<svg id="Layer_1" data-name="Layer 1" xmlns="http://www.w3.org/2000/svg" viewBox="0 0 700 550"><title>court room 2</title><circle cx="91.8379" cy="290.02193" r="17.18062" fill="#ab695d"/><circle cx="610.46835" cy="290.02193" r="17.18062" fill="#ab695d"/><rect x="83.74755" y="311.82992" width="534.81114" height="162.10989" fill="#c38f86"/><circle cx="112.53342" cy="330.768" r="18.93807" fill="#ab695d"/><path d="M131.47149,385.30964a18.93065,18.93065,0,0,0-9.84779-16.6139V334.55561H103.44315v34.14013a18.96348,18.96348,0,0,0-9.44183,20.53173c5.398,25.6464,9.44182,51.559,9.44183,77.7673v6.945H121.6237v-6.94507c0-26.20831,4.04384-52.12088,9.44182-77.76727A19.006,19.006,0,0,0,131.47149,385.30964Z" fill="#ab695d"/><circle cx="165.56002" cy="330.768" r="18.93807" fill="#ab695d"/><path d="M184.4981,385.30964a18.93066,18.93066,0,0,0-9.8478-16.6139V334.55561H156.46975v34.14013a18.96348,18.96348,0,0,0-9.44183,20.53173c5.398,25.6464,9.44182,51.559,9.44183,77.7673v6.945H174.6503v-6.94507c0-26.20831,4.04384-52.12088,9.44183-77.76727A19.006,19.006,0,0,0,184.4981,385.30964Z" fill="#ab695d"/><circle cx="218.58662" cy="330.768" r="18.93807" fill="#ab695d"/><path d="M237.5247,385.30964a18.93066,18.93066,0,0,0-9.8478-16.6139V334.55561H209.49635v34.14013a18.96348,18.96348,0,0,0-9.44183,20.53173c5.398,25.6464,9.44182,51.559,9.44183,77.7673v6.945H227.6769v-6.94507c0-26.20831,4.04384-52.12088,9.44183-77.76727A19.006,19.006,0,0,0,237.5247,385.30964Z" fill="#ab695d"/><circle cx="271.61323" cy="330.768" r="18.93807" fill="#ab695d"/><path d="M290.5513,385.30964a18.93066,18.93066,0,0,0-9.8478-16.6139V334.55561H262.523v34.14013a18.96348,18.96348,0,0,0-9.44183,20.53173c5.398,25.6464,9.44182,51.559,9.44183,77.7673v6.945H280.7035v-6.94507c0-26.20831,4.04384-52.12088,9.44183-77.76727A19.006,19.006,0,0,0,290.5513,385.30964Z" fill="#ab695d"/><circle cx="324.63983" cy="330.768" r="18.93807" fill="#ab695d"/><path d="M343.5779,385.30964a18.93066,18.93066,0,0,0-9.8478-16.6139V334.55561H315.54955v34.14013a18.96348,18.96348,0,0,0-9.44183,20.53173c5.398,25.6464,9.44182,51.559,9.44183,77.7673v6.945H333.7301v-6.94507c0-26.20831,4.04384-52.12088,9.44183-77.76727A19.006,19.006,0,0,0,343.5779,385.30964Z" fill="#ab695d"/><circle cx="377.66643" cy="330.768" r="18.93807" fill="#ab695d"/><path d="M396.6045,385.30964a18.93066,18.93066,0,0,0-9.8478-16.6139V334.55561H368.57615v34.14013a18.96348,18.96348,0,0,0-9.44183,20.53173c5.398,25.6464,9.44182,51.559,9.44183,77.7673v6.945H386.7567v-6.94507c0-26.20831,4.04384-52.12088,9.44183-77.76727A19.006,19.006,0,0,0,396.6045,385.30964Z" fill="#ab695d"/><circle cx="430.69303" cy="330.768" r="18.93807" fill="#ab695d"/><path d="M449.6311,385.30964a18.93066,18.93066,0,0,0-9.8478-16.6139V334.55561H421.60275v34.14013a18.96356,18.96356,0,0,0-9.44183,20.53173c5.398,25.6464,9.44182,51.559,9.44183,77.7673v6.945H439.7833v-6.94507c0-26.20831,4.04384-52.12088,9.44183-77.76727A19.006,19.006,0,0,0,449.6311,385.30964Z" fill="#ab695d"/><circle cx="483.71963" cy="330.768" r="18.93807" fill="#ab695d"/><path d="M502.6577,385.30964a18.93064,18.93064,0,0,0-9.8478-16.6139V334.55561H474.62935v34.14013a18.96356,18.96356,0,0,0-9.44183,20.53173c5.398,25.6464,9.44182,51.559,9.44183,77.7673v6.945H492.8099v-6.94507c0-26.20831,4.04384-52.12088,9.44183-77.76727A19.006,19.006,0,0,0,502.6577,385.30964Z" fill="#ab695d"/><circle cx="536.74623" cy="330.768" r="18.93807" fill="#ab695d"/><path d="M555.6843,385.30964a18.93064,18.93064,0,0,0-9.8478-16.6139V334.55561H527.656v34.14013a18.96356,18.96356,0,0,0-9.44183,20.53173c5.398,25.6464,9.44182,51.559,9.44183,77.7673v6.945H545.8365v-6.94507c0-26.20831,4.04384-52.12088,9.44183-77.76727A19.006,19.006,0,0,0,555.6843,385.30964Z" fill="#ab695d"/><circle cx="589.77283" cy="330.768" r="18.93807" fill="#ab695d"/><path d="M608.7109,385.30964a18.93064,18.93064,0,0,0-9.8478-16.6139V334.55561H580.68255v34.14013a18.96356,18.96356,0,0,0-9.44183,20.53173c5.398,25.6464,9.44182,51.559,9.44183,77.7673v6.945H598.8631v-6.94507c0-26.20831,4.04384-52.12088,9.44183-77.76727A19.006,19.006,0,0,0,608.7109,385.30964Z" fill="#ab695d"/><rect x="83.74738" y="314.85965" width="534.81114" height="18.93807" fill="#ab695d"/><rect x="83.74738" y="445.15358" width="534.81114" height="25.75578" fill="#ab695d"/><rect x="74.65728" y="296.67947" width="552.99169" height="25.75578" rx="2" fill="#c38f86"/><rect x="74.65728" y="454.24422" width="552.99169" height="25.75578" rx="2" fill="#c38f86"/><path d="M271.76664,268.7759l-27.92411,22.3685a2.99113,2.99113,0,0,0,3.74186,4.66755l27.921-22.37" fill="#ab695d"/><path d="M282.2838,281.90518a2.18132,2.18132,0,0,1,.338-3.0602l11.40211-9.12972a2.17708,2.17708,0,0,1,2.72219,3.39829L285.344,282.24322a2.17339,2.17339,0,0,1-3.0602-.338Zm0,0" fill="#c38f86"/><path d="M282.17729,279.20105l-2.38766-2.98554,12.28694-9.84237,2.39193,2.98605Zm12.29121-9.84186" fill="#ab695d"/><path d="M264.80109,260.07906a2.17329,2.17329,0,0,0,3.06017.338l11.401-9.12979a2.17705,2.17705,0,0,0-2.72215-3.39825l-11.401,9.1298a2.17927,2.17927,0,0,0-.33805,3.0602Zm0,0" fill="#c38f86"/><path d="M279.70686,250.9312l2.392,2.98609-12.29012,9.842-2.39306-2.98614Zm-12.29121,9.84193" fill="#ab695d"/><path d="M269.65939,266.149a1.77771,1.77771,0,0,1,.27559-2.49482l12.03359-9.6355a1.77375,1.77375,0,0,1,2.49156.27523l7.75757,9.68427a1.7744,1.7744,0,0,1-.27511,2.49047L279.909,276.10416a1.77364,1.77364,0,0,1-2.49153-.27523l-7.75808-9.68Zm0,0" fill="#c38f86"/><path d="M267.80831,295.70568a5.44444,5.44444,0,0,1,5.44842-5.44846H301.386a5.44913,5.44913,0,0,1,5.44842,5.44846v.8014H267.80831Zm0,.8014" fill="#ab695d"/><path d="M272.89893,284.2343a1.56046,1.56046,0,0,1,1.562-1.562h25.71927a1.56171,1.56171,0,0,1,1.56352,1.562v6.02292H272.89893Zm0,6.02292" fill="#c38f86"/><path d="M555.77776,265.9227v-3.764H534.41192V265.905a10.68314,10.68314,0,0,0,2.99284,7.41539l4.75509,4.93124-4.77614,4.98145a10.683,10.683,0,0,0-2.97179,7.3935v3.764h21.36584v-3.7463a10.68268,10.68268,0,0,0-2.99292-7.4154l-4.7551-4.93123,4.77624-4.98154A10.683,10.683,0,0,0,555.77776,265.9227Z" fill="#c38f86"/><path d="M537.69577,290.88042l6.00381-8.3764a1.52612,1.52612,0,0,1,2.51628-.02127l6.27805,8.39767Z" fill="#ab695d"/><path d="M552.49391,269.22515l-6.0038,8.3764a1.52614,1.52614,0,0,1-2.51629.02128l-6.27805-8.39768Z" fill="#ab695d"/><path d="M558.61633,264.44769H531.51215a2.289,2.289,0,0,1,0-4.57808h27.10418a2.289,2.289,0,0,1,0,4.57808Z" fill="#ab695d"/><path d="M558.61633,296.67947H531.51215a2.289,2.289,0,0,1,0-4.57808h27.10418a2.289,2.289,0,0,1,0,4.57808Z" fill="#ab695d"/><path d="M215.38476,260.52208l-9.10515-33.84274h.02149v-1.04909h-1.085l-.44831-2.07307a2.16348,2.16348,0,0,0-.9512-1.37034,2.11412,2.11412,0,0,0-1.63763-.29615l-20.92509,4.52261-.05929-.29678-1.586.31623v-5.8622h4.02712a.85424.85424,0,0,0,.85423-.85424v-1.76945a.85423.85423,0,0,0-.85423-.85423h-11.6964a.85423.85423,0,0,0-.85423.85423v1.76945a.85424.85424,0,0,0,.85423.85424h4.02759v6.58878l-2.1548.43011.08267.41443-26.62965,5.75554a2.18238,2.18238,0,0,0-1.66649,2.58758l.22572,1.04344h-.58384v1.04909h.021l-9.10515,33.84305h-1.81629a4.84549,4.84549,0,0,0,4.84559,4.84544h16.0406a4.84558,4.84558,0,0,0,4.84559-4.84544h-1.811l-9.10515-33.84305h.02181v-1.04909H147.797l-.31356-1.45a.252.252,0,0,1,.19074-.29867l26.5975-5.749.1087.54462,1.58649-.31654v59.12935h-4.42618a.85423.85423,0,0,0-.85423.85423v2.25946h-7.37783a.85423.85423,0,0,0-.85423.85423v3.46133h30.66616v-3.46133a.85424.85424,0,0,0-.85424-.85423h-7.37783v-2.25946a.85423.85423,0,0,0-.85423-.85423h-4.4257V229.39429l2.15432-.4298-.13207-.66227,20.95473-4.5292.29741.19074.36047,1.66649h-.87921v1.04909h.02087l-9.10515,33.84274h-1.81018a4.84539,4.84539,0,0,0,4.84559,4.84544h16.0406a4.84529,4.84529,0,0,0,4.84559-4.84544Zm-77.72459,11.97159,8.75786-33.411h1.58116l8.75786,33.411Zm65.88159-45.17183h1.58116l8.75786,33.411H194.7839Z" fill="#ab695d"/><rect x="408.74377" y="270.38159" width="73.32455" height="13.14894" rx="3.9227" fill="#c38f86"/><rect x="415.19876" y="257.23266" width="73.32455" height="13.14894" rx="3.9227" fill="#ab695d"/><rect x="415.19876" y="283.53053" width="73.32455" height="13.14894" rx="3.9227" fill="#ab695d"/><text transform="translate(426.95996 280.97968)" font-size="11.76809" fill="#ab695d" font-family="Baloo-Regular, Baloo">ORDER</text><text transform="translate(430.71387 267.79999)" font-size="11.76809" fill="#c38f86" font-family="Baloo-Regular, Baloo">JU<tspan x="12.66211" y="0" letter-spacing="-0.01303em">S</tspan><tspan x="18.99316" y="0">TICE</tspan></text><text transform="translate(440.13379 292.94745)" font-size="11.76809" fill="#c38f86" font-family="Baloo-Regular, Baloo"><tspan letter-spacing="0.00996em">L</tspan><tspan x="6.1543" y="0" letter-spacing="-0.02em">A</tspan><tspan x="13.29785" y="0">W</tspan></text><rect x="451.86103" y="133.32296" width="54.59739" height="54.59739" fill="#bf736a"/><rect x="456.09807" y="137.56" width="46.12332" height="46.12332" fill="#edb0a9"/><path d="M477.47693,158.8454l-15.586,12.48514a1.66953,1.66953,0,0,0,2.08855,2.60523l15.58431-12.486" fill="#ab695d"/><path d="M483.34716,166.1736a1.21751,1.21751,0,0,1,.18868-1.70807L489.9,159.36971a1.21515,1.21515,0,0,1,1.51941,1.89678l-6.36419,5.09579a1.21308,1.21308,0,0,1-1.70807-.18868Zm0,0" fill="#c38f86"/><path d="M483.28771,164.66427l-1.33269-1.6664,6.858-5.49359,1.33508,1.66668Zm6.86043-5.49331" fill="#ab695d"/><path d="M473.58906,153.99119a1.213,1.213,0,0,0,1.708.18868l6.36358-5.09586a1.21514,1.21514,0,1,0-1.51939-1.89676l-6.36356,5.09587a1.21637,1.21637,0,0,0-.18868,1.70807Zm0,0" fill="#c38f86"/><path d="M481.90882,148.88525l1.3351,1.6667-6.85983,5.49338-1.3357-1.66674Zm-6.86043,5.49334" fill="#ab695d"/><path d="M476.30075,157.37916a.99224.99224,0,0,1,.15382-1.3925l6.71664-5.37812a.99.99,0,0,1,1.39068.15362l4.32995,5.40534a.9904.9904,0,0,1-.15356,1.39008l-6.71664,5.37814a.99.99,0,0,1-1.39066-.15362l-4.33023-5.40294Zm0,0" fill="#c38f86"/><path d="M475.26756,173.87645a3.03886,3.03886,0,0,1,3.04107-3.0411H494.0092a3.04148,3.04148,0,0,1,3.04108,3.0411v.44731H475.26756Zm0,.44731" fill="#ab695d"/><path d="M478.10892,167.47362a.871.871,0,0,1,.87187-.87187H493.3362a.87168.87168,0,0,1,.87269.87187v3.36173h-16.1Zm0,3.36173" fill="#c38f86"/><rect x="203.94262" y="133.32296" width="54.59739" height="54.59739" fill="#bf736a"/><rect x="208.17965" y="137.56" width="46.12332" height="46.12332" fill="#edb0a9"/><circle cx="351.15313" cy="160.62166" r="30.13552" fill="#edb0a9"/><polyline points="360.908 170.821 351.153 160.622 351.153 141.491" fill="none" stroke="#bf736a" stroke-linecap="round" stroke-linejoin="round" stroke-width="3"/><path d="M238.721,151.99813v-2.62787H223.80432v2.61551a7.45847,7.45847,0,0,0,2.08947,5.17711l3.3198,3.44278-3.3345,3.47784a7.45841,7.45841,0,0,0-2.07477,5.16183v2.62786H238.721v-2.61551a7.45819,7.45819,0,0,0-2.08954-5.17711l-3.3198-3.44278,3.33456-3.4779A7.45838,7.45838,0,0,0,238.721,151.99813Z" fill="#c38f86"/><path d="M226.097,169.42255l4.1916-5.84805a1.06549,1.06549,0,0,1,1.75677-.01485l4.38306,5.8629Z" fill="#ab695d"/><path d="M236.42839,154.30376l-4.1916,5.84805a1.06548,1.06548,0,0,1-1.75676.01485l-4.38307-5.8629Z" fill="#ab695d"/><path d="M240.7028,150.96834h-18.923a1.59811,1.59811,0,1,1,0-3.19621h18.923a1.59811,1.59811,0,1,1,0,3.19621Z" fill="#ab695d"/><path d="M240.7028,173.47119h-18.923a1.59811,1.59811,0,1,1,0-3.19621h18.923a1.59811,1.59811,0,1,1,0,3.19621Z" fill="#ab695d"/></svg>