<svg id="Layer_1" data-name="Layer 1" xmlns="http://www.w3.org/2000/svg" viewBox="0 0 700 550"><title>criminal in jail</title><rect x="407.3864" y="96.50723" width="35.58" height="15.17438" fill="none" stroke="#d1c6c3" stroke-miterlimit="10" stroke-width="0.84233"/><rect x="425.1764" y="111.71538" width="35.58" height="15.17438" fill="none" stroke="#d1c6c3" stroke-miterlimit="10" stroke-width="0.84233"/><polyline points="445.291 126.877 445.291 140.052 409.711 140.052 409.711 126.877" fill="none" stroke="#d1c6c3" stroke-miterlimit="10" stroke-width="0.84233"/><rect x="389.5964" y="111.71538" width="35.58" height="15.17438" fill="none" stroke="#d1c6c3" stroke-miterlimit="10" stroke-width="0.84233"/><rect x="521.15991" y="218.02002" width="21.59009" height="15.17993" fill="none" stroke="#d1c6c3" stroke-miterlimit="10" stroke-width="0.84233"/><rect x="538.94995" y="233.22998" width="3.80005" height="15.17993" fill="none" stroke="#d1c6c3" stroke-miterlimit="10" stroke-width="0.84233"/><polyline points="523.48 248.39 523.48 248.41 523.48 261.57 536.75 261.57 542.75 261.57" fill="none" stroke="#d1c6c3" stroke-miterlimit="10" stroke-width="0.84233"/><rect x="503.36816" y="233.23152" width="35.58" height="15.17438" fill="none" stroke="#d1c6c3" stroke-miterlimit="10" stroke-width="0.84233"/><rect x="157.25" y="433.60999" width="20.77002" height="15.18005" fill="none" stroke="#d1c6c3" stroke-miterlimit="10" stroke-width="0.84233"/><rect x="160.22816" y="448.82088" width="35.58" height="15.17438" fill="none" stroke="#d1c6c3" stroke-miterlimit="10" stroke-width="0.84233"/><line x1="144.76" y1="464" x2="144.76" y2="463.98" fill="none" stroke="#d1c6c3" stroke-miterlimit="10" stroke-width="0.84233"/><polyline points="157.25 477.16 180.34 477.16 180.34 474 180.34 464 180.34 463.98" fill="none" stroke="#d1c6c3" stroke-miterlimit="10" stroke-width="0.84233"/><rect x="157.25" y="448.82007" width="2.97998" height="15.17993" fill="none" stroke="#d1c6c3" stroke-miterlimit="10" stroke-width="0.84233"/><rect x="184.30398" y="219.04644" width="35.58" height="15.17438" fill="none" stroke="#d1c6c3" stroke-miterlimit="10" stroke-width="0.84233"/><rect x="202.09398" y="234.25459" width="35.58" height="15.17438" fill="none" stroke="#d1c6c3" stroke-miterlimit="10" stroke-width="0.84233"/><polyline points="222.209 249.417 222.209 262.591 186.629 262.591 186.629 249.417" fill="none" stroke="#d1c6c3" stroke-miterlimit="10" stroke-width="0.84233"/><rect x="166.51398" y="234.25459" width="35.58" height="15.17438" fill="none" stroke="#d1c6c3" stroke-miterlimit="10" stroke-width="0.84233"/><rect x="252.18436" y="341.64015" width="286.76381" height="135.35985" fill="#433f43"/><path d="M334.903,216.54463s17.21423,44.01124,14.92458,97.12031c-1.95759,45.4068-7.69508,136.55291-7.69508,136.55291H307.00335V441.931l-4.32357-155.657h-3.82126l-4.46559,163.94387H259.57285s-5.28805-91.16772-7.69508-136.55291c-3.046-57.43265,14.17139-97.12031,14.17139-97.12031Z" fill="#efe2dd"/><path d="M266.04918,211.76524a134.97652,134.97652,0,0,0-4.8306,14.01893c-1.81949,12.64442-8.37883,58.689-9.65657,74.13185q.0455,2.52105.14284,5.0936c2.96435-.03878,35.55267-.85939,46.54417-1.13732l.60959-22.37774h3.82118l.61977,22.31326c5.36888.22874,45.01692,1.87158,46.73038,1.87158,1.45856,0-6.1524-52.28509-8.95329-74.03357a198.87943,198.87943,0,0,0-6.17363-19.88059Z" fill="#d1c6c3"/><path d="M360.71639,279.932s.84459,6.417.124,7.13763-10.24847,8.24682-13.291,8.40695-.60252-3.29058,1.76146-5.2043,3.32472-5.96639,3.32472-5.96639-2.89072-5.68288-2.62732-7.50457S360.71639,279.932,360.71639,279.932Z" fill="#d88a55"/><path d="M351.71286,196.57285s5.28435,35.091,6.00494,52.62545,3.12258,27.62284,3.12258,30.02482-9.60794,22.57867-10.44864,22.57867-2.88238.6005-1.92159-2.52208,6.24517-19.40684,4.44368-21.4131-3.36278-2.00627-3.84318,1.35651-.3603,8.76725-3.24268,7.68636.1201-18.73549,0-20.41688S343.86635,237.989,333.13748,216.211l.56046-19.65577Z" fill="#f6a96c"/><path d="M249.0925,196.90646s-5.28434,35.09095-6.00494,52.62545-3.12258,27.62284-3.12258,30.02482,9.60794,22.57867,10.44864,22.57867,2.88238.6005,1.92159-2.52208-6.24517-19.40684-4.44368-21.41311,3.36278-2.00626,3.84318,1.35652.3603,8.76725,3.24268,7.68636-.1201-18.73549,0-20.41688,1.96162-28.50357,12.6905-50.28158l-.56047-19.65577Z" fill="#f6a96c"/><path d="M253.08249,477s.4804-4.20348,6.24517-6.48536a14.34135,14.34135,0,0,0,7.68635-6.48537l17.67519.74663.57991,9.34172S285.52333,477,285.15484,477Z" fill="#f6a96c"/><path d="M269.6562,450.21785s.72059,10.56874-2.64219,13.81142c0,0,11.64964,1.0809,12.85063,10.08835h5.40447a46.16825,46.16825,0,0,0-.57991-9.34172c-.25482-1.91429-.43034-3.83831-.50791-5.76793l-.35337-8.79012Z" fill="#f6a96c"/><path d="M284.2646,460.55214l.00033-.003c-.03421-.5133-.063-1.027-.08373-1.54119l-.35332-8.79011H269.65617S281.02934,454.13776,284.2646,460.55214Z" fill="#d88a55"/><path d="M348.021,477s-.4804-4.20348-6.24517-6.48536a14.34135,14.34135,0,0,1-7.68635-6.48537l-17.67519.74663-.57991,9.34172S315.58016,477,315.94865,477Z" fill="#f6a96c"/><path d="M331.44729,450.21785s-.72059,10.56874,2.64219,13.81142c0,0-11.64964,1.0809-12.85063,10.08835h-5.40447a46.16825,46.16825,0,0,1,.57991-9.34172c.25482-1.91429.43034-3.83831.50791-5.76793l.35337-8.79012Z" fill="#f6a96c"/><path d="M316.83889,460.55214l-.00033-.003c.03421-.5133.063-1.027.08373-1.54119l.35332-8.79011h14.17171S320.07415,454.13776,316.83889,460.55214Z" fill="#d88a55"/><path d="M319.98391,239.79563s9.82458,182.55918,3.45052,210.42222" fill="none" stroke="#433f43" stroke-miterlimit="10" stroke-width="5.68976"/><path d="M278.61344,239.79563s-8.027,182.55918-1.65289,210.42222" fill="none" stroke="#433f43" stroke-miterlimit="10" stroke-width="5.68976"/><path d="M315.17384,131.23408a56.74534,56.74534,0,0,0,15.48229,5.40447c9.12755,1.80149,14.05162,7.08586,18.0149,17.1742s11.302,45.06878,12.503,60.481l-21.30823.06418s10.97667,83.35582,9.13515,83.35582-46.32554-1.89823-46.32554-1.89823h-.82685s-48.47086,1.22992-50.31238,1.22992,10.15231-82.47966,10.15231-82.47966L239.965,212.677c1.201-15.41226,8.55374-48.77586,12.517-58.86421s8.88735-15.37271,18.01489-17.1742a52.3802,52.3802,0,0,0,15.61291-5.76476" fill="#efe2dd"/><path d="M291.3732,117.80437s.98177,9.46644-5.2634,13.06942c0,0-1.32109,11.04913,9.608,14.77221s19.81638-5.40447,19.45609-14.41192c0,0-6.32284-3.463-5.32321-14.22182Z" fill="#f6a96c"/><path d="M291.41587,119.94348s8.48065,8.34623,20.83315,8.37723v-.00053c-1.49815-2.197-2.91094-5.79158-2.39831-11.30792l-18.47752.7921a17.40076,17.40076,0,0,1,.04268,2.13906Z" fill="#d88a55"/><path d="M315.13373,96.045a1.21533,1.21533,0,0,0-.48706.11073c-1.69183-8.72934-7.49578-15.16317-14.39846-15.16317-6.92386,0-12.74345,6.47274-14.41524,15.243a1.26946,1.26946,0,0,0-.64067-.19051,4.829,4.829,0,0,0-3.763,6.56543c1.09873,3.45549,2.25952,6.56543,3.763,6.56543a1.54175,1.54175,0,0,0,1.11029-.57482c2.123,7.72675,7.56469,13.22527,13.94562,13.22527,6.3446,0,11.75923-5.43685,13.90782-13.09418a1.44825,1.44825,0,0,0,.9777.44373c1.50352,0,2.66447-3.10994,3.7632-6.56543A4.8291,4.8291,0,0,0,315.13373,96.045Z" fill="#f6a96c"/><path d="M306.80692,100.10835a1.50214,1.50214,0,0,0,0-3.00249,1.50214,1.50214,0,0,0,0,3.00249Z" fill="#433f43"/><path d="M294.07639,100.10835a1.50214,1.50214,0,0,0,0-3.00249,1.50214,1.50214,0,0,0,0,3.00249Z" fill="#433f43"/><path d="M300.83031,101.40942s-2.72059,4.72391,0,4.804a4.38225,4.38225,0,0,0,1.43163-.19531" fill="#d88a55"/><path d="M309.09839,95.57751a2.95639,2.95639,0,0,1-1.5647.335,3.83842,3.83842,0,0,1-1.5791-.40381,3.70686,3.70686,0,0,1-1.26953-1.02906,3.14375,3.14375,0,0,1-.667-1.45263c.45166.31079.812.62744,1.20654.88794a8.27693,8.27693,0,0,0,1.176.69836A13.80143,13.80143,0,0,0,309.09839,95.57751Z" fill="#433f43"/><path d="M296.51367,93.16052a2.9559,2.9559,0,0,1-.74609,1.41541,3.83774,3.83774,0,0,1-1.32251.95288,3.70539,3.70539,0,0,1-1.60352.31433,3.143,3.143,0,0,1-1.54248-.41931c.52808-.14734,1.0022-.221,1.45508-.35669a8.27471,8.27471,0,0,0,1.2898-.45459A13.80148,13.80148,0,0,0,296.51367,93.16052Z" fill="#433f43"/><ellipse cx="316.46393" cy="102.55368" rx="3.18187" ry="1.20837" transform="translate(169.6601 401.07556) rotate(-81.76896)" fill="#d88a55"/><ellipse cx="284.11242" cy="102.55368" rx="1.20837" ry="3.18187" transform="translate(-11.75541 41.73139) rotate(-8.23104)" fill="#d88a55"/><line x1="339.86576" y1="214.29379" x2="339.86576" y2="191.50584" fill="none" stroke="#433f43" stroke-miterlimit="10" stroke-width="0.33361"/><line x1="261.34706" y1="214.29379" x2="261.34706" y2="191.50584" fill="none" stroke="#433f43" stroke-miterlimit="10" stroke-width="0.33361"/><path d="M240.089,280.26559s-.8446,6.417-.124,7.13763,10.24847,8.24682,13.291,8.407.60252-3.29058-1.76146-5.2043-3.32472-5.96639-3.32472-5.96639,2.89072-5.68288,2.62733-7.50457S240.089,280.26559,240.089,280.26559Z" fill="#d88a55"/><path d="M243.08756,249.53191c-.72059,17.53449-3.12258,27.62284-3.12258,30.02482s9.60794,22.57867,10.44864,22.57867,2.88238.6005,1.92159-2.52208-6.24517-19.40684-4.44368-21.41311,3.36278-2.00626,3.84318,1.35652.3603,8.76725,3.24268,7.68636-.30053-21.80318-.84869-23.803" fill="#f6a96c"/><path d="M360.759,279.932s.8446,6.417.124,7.13763-10.24847,8.24682-13.291,8.40695-.60252-3.29058,1.76146-5.2043,3.32472-5.96639,3.32472-5.96639-2.89072-5.68288-2.62733-7.50457S360.759,279.932,360.759,279.932Z" fill="#d88a55"/><path d="M357.76041,249.1983c.72059,17.5345,3.12258,27.62284,3.12258,30.02482s-9.60794,22.57867-10.44864,22.57867-2.88238.6005-1.92159-2.52208,6.24517-19.40684,4.44368-21.4131-3.36278-2.00627-3.84318,1.35651-.3603,8.76725-3.24268,7.68636.30053-21.80318.84869-23.803" fill="#f6a96c"/><path d="M300.432,78.20023v-.00086s-.05071-.001-.12479-.00128l-.04214-.00011-.04213.00011c-.07409.00029-.12479.00128-.12479.00128v.00086c-2.38277.04336-17.0422,1.0618-14.00724,19.68965,0,0-.057,5.91856.34125,6.60148.39845.68291,1.47986,0,1.47986,0s-.22781-6.43073,0-6.60148c.22758-.17068,3.30051-2.33322,3.24355-4.49577-.05672-2.16254-.56744-6.54458.00093-6.9429.52392-.3673,7.95029-.39584,9.10857-.39809,1.15828.00225,8.58465.03079,9.10857.39809.56838.39832.05765,4.78036.00093,6.9429-.057,2.16255,3.016,4.32509,3.24355,4.49577.22781.17075,0,6.60148,0,6.60148s1.08142.68291,1.47986,0c.39821-.68292.34125-6.60148.34125-6.60148C317.47419,79.262,302.81477,78.24359,300.432,78.20023Z" fill="#433f43"/><path d="M300.432,78.20023v-.00086s-.05071-.001-.12479-.00128l-.04214-.00011-.04213.00011c-.07409.00029-.12479.00128-.12479.00128v.00086c-2.11637.03851-13.91773.84626-14.40354,14.07882-.06116,1.66566,3.3906,1.7423,5.461,1.11506,2.92082-.88489,12.36863-1.18842,18.219,0,2.12.43065,5.91653,1.31775,5.80985-.54351C314.37563,78.74,302.50584,78.238,300.432,78.20023Z" fill="#efe2dd"/><path d="M297.82442,110.87793s3.20265-4.16344,7.206,0Z" fill="#bb5d4c"/><path d="M301.05265,106.21333h5.47356s1.59313.50354,1.93452,3.25348H293.42207c.34139-2.74994,1.93452-3.25348,1.93452-3.25348h5.69606Z" fill="#433f43"/><polygon points="297.875 146.221 300.163 161.242 302.313 146.5 297.875 146.221" fill="#f6a96c"/><line x1="325.5851" y1="135.39586" x2="322.75137" y2="297.71379" fill="none" stroke="#433f43" stroke-miterlimit="10" stroke-width="5.68976"/><line x1="274.50069" y1="135.39586" x2="276.53765" y2="297.71379" fill="none" stroke="#433f43" stroke-miterlimit="10" stroke-width="5.68976"/><path d="M286.05973,89.14461s23.2844,1.69465,28.47434-.48594" fill="none" stroke="#433f43" stroke-miterlimit="10" stroke-width="2.84488"/><path d="M157.25,55.3999V480h385.5V55.3999ZM199.41992,474H163.25V61.3999h36.16992Zm42.16016,0H205.41992V61.3999h36.16016ZM283.75,474H247.58008V61.3999H283.75Zm42.16992,0H289.75V61.3999h36.16992Zm42.16016,0H331.91992V61.3999h36.16016ZM410.25,474H374.08008V61.3999H410.25Zm42.16992,0H416.25V61.3999h36.16992Zm42.16016,0H458.41992V61.3999h36.16016ZM536.75,474H500.58008V61.3999H536.75Z" fill="#c38f86"/></svg>