<svg id="Layer_1" data-name="Layer 1" xmlns="http://www.w3.org/2000/svg" viewBox="0 0 700 550"><title>everybody standing as judge arrived</title><path d="M631.65349,300.14989s.89065,6.76693.13076,7.52682-10.80728,8.69649-14.01569,8.86535-.63538-3.47,1.8575-5.48807,3.506-6.29172,3.506-6.29172-3.04834-5.99273-2.77058-7.91375S631.65349,300.14989,631.65349,300.14989Z" fill="#d88a55"/><path d="M622.159,212.24553s5.57248,37.00432,6.33237,55.4949,3.29284,29.129,3.29284,31.662-10.13182,23.80979-11.01836,23.80979-3.03955.63324-2.02636-2.65961,6.58568-20.465,4.686-22.58067-3.54614-2.11565-4.05273,1.43049-.37995,9.24529-3.41949,8.10546.12664-19.75706,0-21.53013-2.06859-30.05776-13.38246-53.02323l.591-20.72752Z" fill="#f6a96c"/><path d="M513.94322,212.59733s-5.57248,37.00432-6.33236,55.4949-3.29285,29.129-3.29285,31.662S514.44984,323.564,515.33637,323.564s3.03955.63324,2.02637-2.65961-6.58569-20.465-4.686-22.58067,3.54614-2.11565,4.05273,1.43049.37994,9.24529,3.41949,8.10546-.12665-19.75706,0-21.53013,2.06858-30.05776,13.38246-53.02323l-.591-20.72752Z" fill="#f6a96c"/><path d="M516.88036,335.72217c-3.21206-60.56421,14.9441-102.41588,14.9441-102.41588h72.60812s18.15285,46.411,15.73836,102.41588" fill="#6354b1"/><line x1="570.45239" y1="306.83769" x2="566.42278" y2="306.83769" fill="#6354b1"/><path d="M583.6277,143.34412a59.83962,59.83962,0,0,0,16.32648,5.69915c9.62523,1.89971,14.81779,7.47222,18.99717,18.11064s5.474,29.17224,6.74048,45.42486l-19.34194.067-.69656,13.65267s-.20164,7.00785-2.14357,7.00785H533.40017c-1.94193,0-2.58462-7.00785-2.58462-7.00785l-.69656-13.65267-19.34194-.067c1.26648-16.25262,2.5611-34.78644,6.74048-45.42486s9.37194-16.21093,18.99718-18.11064a55.23617,55.23617,0,0,0,16.46421-6.0791" fill="#fdb441"/><path d="M558.52931,129.18213s1.0353,9.98261-5.55039,13.782c0,0-1.39312,11.6516,10.13183,15.57768s20.89689-5.69915,20.51695-15.19773c0,0-6.6676-3.65182-5.61346-14.99729Z" fill="#f6a96c"/><path d="M558.57431,131.43788s8.94306,8.80132,21.96909,8.834v-.00056c-1.57983-2.31678-3.06966-6.10736-2.52908-11.92448l-19.485.83528a18.35071,18.35071,0,0,1,.045,2.25569Z" fill="#d88a55"/><path d="M583.5854,106.23631a1.28163,1.28163,0,0,0-.51361.11676c-1.78408-9.20532-7.9045-15.99-15.18355-15.99-7.30139,0-13.4383,6.82567-15.20125,16.07408a1.33866,1.33866,0,0,0-.6756-.20089,5.09233,5.09233,0,0,0-3.96822,6.92341c1.15864,3.64391,2.38272,6.92341,3.96822,6.92341a1.6258,1.6258,0,0,0,1.17084-.60616c2.23877,8.14806,7.97715,13.94639,14.706,13.94639,6.69054,0,12.40041-5.73329,14.66615-13.80815a1.52723,1.52723,0,0,0,1.031.46792c1.5855,0,2.80976-3.2795,3.96839-6.92341A5.0924,5.0924,0,0,0,583.5854,106.23631Z" fill="#f6a96c"/><path d="M574.80457,110.52122a1.584,1.584,0,0,0,0-3.1662,1.584,1.584,0,0,0,0,3.1662Z" fill="#433f43"/><path d="M561.3799,110.52122a1.584,1.584,0,0,0,0-3.1662,1.584,1.584,0,0,0,0,3.1662Z" fill="#433f43"/><path d="M568.50208,111.89324s-2.86893,4.98148,0,5.06591a4.6212,4.6212,0,0,0,1.50969-.206" fill="#d88a55"/><path d="M571.3429,105.25125a3.11693,3.11693,0,0,1,1.316-1.056,4.0491,4.0491,0,0,1,1.67932-.36648,3.908,3.908,0,0,1,1.6831.36917,3.3154,3.3154,0,0,1,1.31616,1.05331c-.57275-.07919-1.06225-.20706-1.55737-.26587a8.73127,8.73127,0,0,0-1.4386-.10187A14.55777,14.55777,0,0,0,571.3429,105.25125Z" fill="#433f43"/><path d="M558.38257,105.25125a3.11771,3.11771,0,0,1,1.316-1.056,4.0491,4.0491,0,0,1,1.67932-.36648,3.90887,3.90887,0,0,1,1.68323.36917,3.316,3.316,0,0,1,1.316,1.05331c-.57276-.07919-1.06226-.20706-1.55738-.26587a8.73115,8.73115,0,0,0-1.43859-.10187A14.55786,14.55786,0,0,0,558.38257,105.25125Z" fill="#433f43"/><ellipse cx="584.98814" cy="113.09988" rx="3.35536" ry="1.27426" transform="translate(389.30346 675.87001) rotate(-81.76896)" fill="#d88a55"/><ellipse cx="550.87263" cy="113.09988" rx="1.27426" ry="3.35536" transform="translate(-10.51732 80.03077) rotate(-8.23104)" fill="#d88a55"/><path d="M600.02154,233.30629h3.26771a2.40223,2.40223,0,0,0,2.36417-1.77747l.69639-15.96783V195.45426S599.66751,217.43868,600.02154,233.30629Z" fill="#fea613"/><path d="M530.36042,195.45426v25.64279l.45521,10.43177a2.40195,2.40195,0,0,0,2.364,1.77747h3.50923C537.0429,217.43868,530.36042,195.45426,530.36042,195.45426Z" fill="#fea613"/><line x1="606.34981" y1="212.64575" x2="606.34981" y2="188.61528" fill="none" stroke="#433f43" stroke-miterlimit="10" stroke-width="0.3518"/><line x1="530.36042" y1="212.64575" x2="530.36042" y2="188.61528" fill="none" stroke="#433f43" stroke-miterlimit="10" stroke-width="0.3518"/><path d="M504.44877,300.50169s-.89064,6.76693-.13076,7.52682,10.80728,8.69649,14.0157,8.86535.63537-3.47-1.85751-5.48807-3.506-6.29172-3.506-6.29172,3.04834-5.99274,2.77058-7.91375S504.44877,300.50169,504.44877,300.50169Z" fill="#d88a55"/><path d="M507.61086,268.09223c-.75989,18.49058-3.29285,29.129-3.29285,31.662S514.44984,323.564,515.33637,323.564s3.03955.63324,2.02637-2.65961-6.58569-20.465-4.686-22.58067,3.54614-2.11565,4.05273,1.43049.37994,9.24529,3.41949,8.10546-.31692-22.992-.895-25.10092" fill="#f6a96c"/><path d="M631.69843,300.14989s.89064,6.76693.13076,7.52682-10.80729,8.69649-14.0157,8.86535-.63538-3.47,1.8575-5.48807,3.506-6.29172,3.506-6.29172-3.04834-5.99273-2.77058-7.91375S631.69843,300.14989,631.69843,300.14989Z" fill="#d88a55"/><path d="M628.53634,267.74043c.75989,18.49058,3.29285,29.129,3.29285,31.662s-10.13183,23.80979-11.01837,23.80979-3.03954.63324-2.02636-2.65961,6.58569-20.465,4.686-22.58067-3.54614-2.11565-4.05273,1.43049-.38,9.24529-3.41949,8.10546.31692-22.992.895-25.10092" fill="#f6a96c"/><path d="M552.9589,108.18183s-.06,6.24125.36007,6.96139,1.56032,0,1.56032,0-.24-6.78135,0-6.96139,3.48069-2.46049,3.42068-4.74095-.59847-6.90138.00082-7.32146,9.78114-.42009,9.78114-.42009V87.41767S549.47821,86.81755,552.9589,108.18183Z" fill="#433f43"/><path d="M582.85316,108.18183s.06,6.24125-.36008,6.96139-1.56031,0-1.56031,0,.24-6.78135,0-6.96139-3.48069-2.46049-3.42068-4.74095.59847-6.90138-.00083-7.32146-9.78113-.42009-9.78113-.42009V87.41767S586.33385,86.81755,582.85316,108.18183Z" fill="#433f43"/><path d="M564.81995,121.36569s3.37728-4.39046,7.59887,0Z" fill="#bb5d4c"/><path d="M564.81995,121.36569s4.05273,5.40364,7.59887,0Z" fill="#a44f3e"/><path d="M568.73654,116.95908h5.772s1.68.531,2.04,3.43088H560.6899c.36-2.89988,2.04-3.43088,2.04-3.43088h6.00664Z" fill="#433f43"/><ellipse cx="134.65608" cy="121.73294" rx="12.25721" ry="13.21155" fill="#433f43"/><path d="M181.76022,291.25014s.85113,6.46672.125,7.1929-10.32782,8.31067-13.3939,8.472-.60719-3.31606,1.7751-5.2446,3.35046-6.01258,3.35046-6.01258-2.9131-5.72688-2.64767-7.56267S181.76022,291.25014,181.76022,291.25014Z" fill="#d88a55"/><path d="M172.687,207.24562s5.32526,35.36263,6.05144,53.03289,3.14676,27.83671,3.14676,30.25729-9.68234,22.75348-10.52954,22.75348-2.9047.60515-1.93647-2.54161,6.29352-19.55709,4.47808-21.57889-3.38881-2.0218-3.87293,1.367-.36309,8.83513-3.26779,7.74587.121-18.88055,0-20.575-1.97681-28.72426-12.78875-50.67088l.56481-19.808Z" fill="#f6a96c"/><path d="M69.2721,207.58181s-5.32526,35.36263-6.05143,53.03289-3.14676,27.83671-3.14676,30.25729,9.68233,22.75348,10.52954,22.75348,2.9047.60515,1.93646-2.54161S66.2464,291.52677,68.06184,289.505s3.38881-2.02179,3.87293,1.367.36309,8.83513,3.26779,7.74587-.121-18.88055,0-20.575S77.17937,249.31865,87.9913,227.372l-.5648-19.808Z" fill="#f6a96c"/><path d="M72.07894,325.24427C69.00937,267.367,86.36005,227.372,86.36005,227.372h69.38689s17.34752,44.352,15.04014,97.87225" fill="#6354b1"/><line x1="123.27427" y1="297.64124" x2="119.42343" y2="297.64124" fill="#6354b1"/><path d="M135.86506,141.401a57.18479,57.18479,0,0,0,15.60216,5.44632c9.19822,1.81543,14.16042,7.14072,18.15438,17.30717s5.23115,27.878,6.44144,43.40961l-18.48384.064-.66566,13.047s-.19269,6.69694-2.04847,6.69694H87.86585c-1.85578,0-2.46995-6.69694-2.46995-6.69694l-.66566-13.047-18.48384-.064c1.21029-15.53158,2.44748-33.24316,6.44144-43.40961s8.95616-15.49174,18.15437-17.30717a52.78568,52.78568,0,0,0,15.73379-5.8094" fill="#fe4fb7"/><path d="M111.88015,127.86728s.98937,9.53973-5.30415,13.17061c0,0-1.33132,11.13468,9.68234,14.88658s19.96981-5.44631,19.60672-14.5235c0,0-6.37179-3.4898-5.36442-14.33193Z" fill="#f6a96c"/><path d="M111.92315,130.023s8.54631,8.41086,20.99445,8.44209v-.00053c-1.50975-2.214-2.93348-5.83642-2.41688-11.39547l-18.62058.79823a17.5364,17.5364,0,0,1,.043,2.15562Z" fill="#d88a55"/><path d="M135.82464,105.93944a1.22481,1.22481,0,0,0-.49083.11158c-1.70492-8.79693-7.55381-15.28057-14.50994-15.28057-6.97746,0-12.84211,6.52285-14.52685,15.361a1.2792,1.2792,0,0,0-.64562-.192,4.86642,4.86642,0,0,0-3.79218,6.61626c1.10724,3.48224,2.277,6.61625,3.79218,6.61625a1.55366,1.55366,0,0,0,1.11889-.57926c2.13945,7.78657,7.62325,13.32766,14.05358,13.32766,6.39373,0,11.85028-5.47894,14.0155-13.19556a1.45948,1.45948,0,0,0,.98527.44716c1.51516,0,2.68511-3.134,3.79234-6.61625A4.86649,4.86649,0,0,0,135.82464,105.93944Z" fill="#f6a96c"/><path d="M128.41794,94.76233a5.85241,5.85241,0,0,0-8.6542,2.76934,9.02678,9.02678,0,0,0-.35864,1.146c-1.08927,4.47808-4.115,8.7141-8.109,7.62484,0,0-2.75033,11.91277-4.52585,12.29017,0,0-12.26219-6.38706-7.78411-15.746s10.01041-24.62293,22.8395-14.81957c0,0,11.13468-1.93646,16.702,7.98793s5.35577,8.57816.39358,18.62358l.71232-4.45a1.62383,1.62383,0,0,0-.10869-.90811,6.72637,6.72637,0,0,0-1.78159-2.44385.95813.95813,0,0,0-1.55.7826c.04062,1.54378.02987,3.62516-.3176,3.72613-.5553.16137-1.463-.74635-1.342-2.6223s-.3881-2.60213-1.61614-4.78065-2.49885-4.115-2.92245-7.08021A3.01886,3.01886,0,0,0,128.41794,94.76233Z" fill="#433f43"/><path d="M117.3476,121.996s3.22744-4.19567,7.26175,0Z" fill="#bb5d4c"/><path d="M117.3476,121.996s3.87293,5.16392,7.26175,0Z" fill="#a44f3e"/><path d="M127.43336,110.03425a1.51377,1.51377,0,0,0,0-3.02573,1.51377,1.51377,0,0,0,0,3.02573Z" fill="#433f43"/><path d="M114.60427,110.03425a1.51377,1.51377,0,0,0,0-3.02573,1.51377,1.51377,0,0,0,0,3.02573Z" fill="#433f43"/><path d="M121.41048,111.3454s-2.74165,4.76048,0,4.84117a4.41622,4.41622,0,0,0,1.44272-.19683" fill="#d88a55"/><path d="M124.12524,104.99808a2.979,2.979,0,0,1,1.25769-1.00916,3.86949,3.86949,0,0,1,1.60474-.35022,3.73524,3.73524,0,0,1,1.60852.35279,3.169,3.169,0,0,1,1.25781,1.00659c-.54736-.07569-1.01525-.19788-1.48828-.25406a8.34047,8.34047,0,0,0-1.37488-.09735A13.91128,13.91128,0,0,0,124.12524,104.99808Z" fill="#433f43"/><path d="M111.73987,104.99808a2.97963,2.97963,0,0,1,1.25769-1.00916,3.87,3.87,0,0,1,1.60486-.35022,3.73562,3.73562,0,0,1,1.60852.35279,3.16955,3.16955,0,0,1,1.25769,1.00659c-.54737-.07569-1.01514-.19788-1.48828-.25406a8.33918,8.33918,0,0,0-1.37476-.09735A13.91221,13.91221,0,0,0,111.73987,104.99808Z" fill="#433f43"/><path d="M136.22346,120.01693a1.00918,1.00918,0,0,0,0-2.01715,1.00918,1.00918,0,0,0,0,2.01715Z" fill="#fac600"/><ellipse cx="137.16515" cy="112.49851" rx="3.2065" ry="1.21773" transform="matrix(0.14317, -0.9897, 0.9897, 0.14317, 6.18825, 232.14484)" fill="#d88a55"/><path d="M151.5316,227.372h3.12274a2.29567,2.29567,0,0,0,2.25929-1.69861l.66549-15.25943v-19.2147S151.19327,212.20837,151.5316,227.372Z" fill="#f1239a"/><path d="M84.961,191.19928v24.50516l.435,9.969A2.29538,2.29538,0,0,0,87.6551,227.372h3.35354C91.347,212.20837,84.961,191.19928,84.961,191.19928Z" fill="#f1239a"/><line x1="157.57912" y1="207.62808" x2="157.57912" y2="184.6637" fill="none" stroke="#433f43" stroke-miterlimit="10" stroke-width="0.33619"/><path d="M60.19887,291.58633s-.85113,6.46673-.125,7.1929,10.32782,8.31067,13.39389,8.472.60719-3.316-1.77509-5.2446-3.35046-6.01258-3.35046-6.01258,2.9131-5.72687,2.64766-7.56267S60.19887,291.58633,60.19887,291.58633Z" fill="#d88a55"/><path d="M63.22067,260.6147c-.72618,17.67026-3.14676,27.83671-3.14676,30.25729s9.68233,22.75348,10.52954,22.75348,2.9047.60515,1.93646-2.54161S66.2464,291.52677,68.06184,289.505s3.38881-2.02179,3.87293,1.367.36309,8.83513,3.26779,7.74587-.30286-21.972-.85527-23.98733" fill="#f6a96c"/><path d="M181.80316,291.25014s.85113,6.46672.125,7.1929-10.32782,8.31067-13.39389,8.472-.60719-3.31606,1.77509-5.2446,3.35047-6.01258,3.35047-6.01258-2.91311-5.72688-2.64767-7.56267S181.80316,291.25014,181.80316,291.25014Z" fill="#d88a55"/><path d="M178.78136,260.27851c.72617,17.67026,3.14675,27.83671,3.14675,30.25729s-9.68233,22.75348-10.52953,22.75348-2.9047.60515-1.93647-2.54161,6.29352-19.55709,4.47808-21.57889-3.38882-2.0218-3.87293,1.367-.36309,8.83513-3.26779,7.74587.30286-21.972.85527-23.98733" fill="#f6a96c"/><rect x="58.41334" y="314.50642" width="583.17332" height="138.7364" fill="#c38f86"/><rect x="41.35328" y="287.74924" width="617.29344" height="26.75718" rx="4" fill="#c38f86"/><rect x="58.41274" y="314.50644" width="583.17446" height="10" fill="#ab695d"/><rect x="41.35328" y="453.24282" width="617.29344" height="26.75718" rx="4" fill="#c38f86"/><rect x="58.41274" y="443.24277" width="583.17446" height="10" fill="#ab695d"/><path d="M313.83328,281.37046s.84949,6.45426.12471,7.179-10.30791,8.29465-13.36807,8.45571-.606-3.30966,1.77167-5.23448,3.344-6.001,3.344-6.001-2.90749-5.71583-2.64256-7.54808S313.83328,281.37046,313.83328,281.37046Z" fill="#d88a55"/><path d="M304.77753,197.52789s5.315,35.29446,6.03977,52.93065,3.14069,27.783,3.14069,30.199-9.66366,22.70962-10.50923,22.70962-2.8991.604-1.93274-2.53672,6.28139-19.51939,4.46945-21.53729-3.38228-2.01789-3.86547,1.36439-.36239,8.81809-3.26149,7.73093.1208-18.84415,0-20.53529-1.973-28.66887-12.76409-50.57318l.56372-19.76977Z" fill="#f6a96c"/><path d="M201.562,197.86344s-5.315,35.29446-6.03977,52.93065-3.14069,27.783-3.14069,30.19895,9.66367,22.70962,10.50924,22.70962,2.8991.604,1.93273-2.53671-6.28138-19.51939-4.46944-21.53729,3.38228-2.0179,3.86546,1.36438.36239,8.8181,3.26149,7.73094-.1208-18.84415,0-20.53529,1.973-28.66888,12.76409-50.57319l-.56371-19.76976Z" fill="#f6a96c"/><path d="M287.87015,217.6155s17.31407,44.26648,15.01114,97.68356c-1.96894,45.67014-7.73971,137.34485-7.73971,137.34485H259.80874V444.309l-4.34865-156.55976h-3.84342l-4.4915,164.89467h-35.022s-5.31872-91.69644-7.73971-137.34485C201.29981,257.53333,218.617,217.6155,218.617,217.6155Z" fill="#302e30"/><path d="M205.57516,479.58138s.48318-4.22785,6.28138-6.523a14.42453,14.42453,0,0,0,7.73094-6.523l17.77769.751.58327,9.39589h.83886a.67109.67109,0,0,1,.67109.67109v1.55693a.67109.67109,0,0,1-.67109.67108Z" fill="#66321d"/><path d="M222.245,452.64391s.72478,10.63-2.6575,13.89152c0,0,11.71719,1.08717,12.92515,10.14685h5.43581a46.43613,46.43613,0,0,0-.58327-9.39589c-.2563-1.9254-.43284-3.86057-.51086-5.80139l-.35542-8.84109Z" fill="#f6a96c"/><path d="M236.93811,463.03814l.00033-.003c-.03441-.51628-.06341-1.033-.08422-1.55013l-.35537-8.84109H222.245S233.68409,456.58656,236.93811,463.03814Z" fill="#d88a55"/><path d="M301.06426,479.58138s-.48318-4.22785-6.28138-6.523a14.42448,14.42448,0,0,1-7.73093-6.523l-17.7777.751-.58327,9.39589h-.83886a.67109.67109,0,0,0-.67109.67109v1.55693a.67109.67109,0,0,0,.67109.67108Z" fill="#66321d"/><path d="M284.39444,452.64391s-.72478,10.63,2.65751,13.89152c0,0-11.7172,1.08717-12.92516,10.14685H268.691a46.43613,46.43613,0,0,1,.58327-9.39589c.2563-1.9254.43284-3.86057.51086-5.80139l.35542-8.84109Z" fill="#f6a96c"/><path d="M269.70131,463.03814l-.00033-.003c.03441-.51628.06341-1.033.08422-1.55013l.35537-8.84109h14.2539S272.95533,456.58656,269.70131,463.03814Z" fill="#d88a55"/><path d="M272.86458,241.00135s11.39534,130.08006,4.98431,158.10469" fill="none" stroke="#433f43" stroke-miterlimit="10" stroke-width="0.33554"/><path d="M231.25418,241.00135S219.85883,371.08141,226.26986,399.106" fill="none" stroke="#433f43" stroke-miterlimit="10" stroke-width="0.33554"/><path d="M228.768,119.97221s-1.369,17.03221,1.69114,18.15963,31.8901,17.07248,31.8901,17.07248,18.361-17.23354,15.3008-29.7963c0,0,5.63714-5.07343-.08053-10.75083l-4.7513-20.334-12.4017-13.04594L238.74365,93.03474Z" fill="#433f43"/><path d="M268.0266,131.8102a57.07468,57.07468,0,0,0,15.57208,5.43581c9.18049,1.81194,14.13312,7.12695,18.11938,17.2738s5.22106,27.82428,6.429,43.32593l-18.44821.06389-.66437,13.02183s-.19232,6.684-2.04453,6.684h-66.87c-1.8522,0-2.46519-6.684-2.46519-6.684l-.66437-13.02183-18.44821-.06389c1.208-15.50165,2.44276-33.17908,6.429-43.32593s8.93889-15.46186,18.11937-17.2738a52.68391,52.68391,0,0,0,15.70346-5.7982" fill="#efe2dd"/><path d="M244.08794,118.30259s.98745,9.52134-5.29393,13.14522c0,0-1.32875,11.11322,9.66367,14.85789s19.93131-5.43582,19.56892-14.4955c0,0-6.35951-3.48308-5.35408-14.30431Z" fill="#f6a96c"/><path d="M244.13085,120.45411s8.52983,8.39464,20.954,8.42581v-.00053c-1.50684-2.20973-2.92782-5.82516-2.41221-11.3735l-18.58468.7967a17.50193,17.50193,0,0,1,.04292,2.15146Z" fill="#d88a55"/><path d="M267.98626,96.417a1.22235,1.22235,0,0,0-.48988.11137c-1.70164-8.78-7.53926-15.25112-14.482-15.25112-6.964,0-12.81735,6.51028-14.49884,15.33136a1.27675,1.27675,0,0,0-.64438-.19161,4.857,4.857,0,0,0-3.78487,6.6035c1.1051,3.47553,2.27263,6.6035,3.78487,6.6035a1.55066,1.55066,0,0,0,1.11673-.57815c2.13532,7.77156,7.60856,13.302,14.02649,13.302,6.3814,0,11.82743-5.46838,13.98848-13.17012a1.45666,1.45666,0,0,0,.98337.4463c1.51224,0,2.67993-3.128,3.785-6.6035A4.85711,4.85711,0,0,0,267.98626,96.417Z" fill="#f6a96c"/><path d="M260.52411,85.21958a6.05268,6.05268,0,0,0-8.80935,3.51564q-.062.21091-.11639.434c-1.08716,4.46944-4.10706,8.6973-8.09332,7.61014,0,0-2.745,11.8898-4.51713,12.26647,0,0-7.56245,10.92633-10.22,10.92633s-6.76457-4.87338-2.29512-14.21429,7.73093-23.23242,8.81809-25.28595,5.919-11.7172,18.72336-1.93273c0,0,11.11321-1.93274,16.66982,7.97252s11.838,18.11938,6.88536,28.14543L272.08,98.83294s-2.92785-4.177-3.79262-2.39047c0,0,.30407,5.209-.25015,5.3701s-1.4602-.74491-1.3394-2.61725-.38736-2.59711-1.613-4.77143-2.494-4.10706-2.91682-7.06656A3.05462,3.05462,0,0,0,260.52411,85.21958Z" fill="#433f43"/><path d="M249.54484,112.4426s3.22122-4.18759,7.24775,0Z" fill="#bb5d4c"/><path d="M249.54484,112.4426s3.86547,5.15395,7.24775,0Z" fill="#a44f3e"/><path d="M259.61116,100.50394a1.51085,1.51085,0,0,0,0-3.01989,1.51085,1.51085,0,0,0,0,3.01989Z" fill="#433f43"/><path d="M246.8068,100.50394a1.51085,1.51085,0,0,0,0-3.01989,1.51085,1.51085,0,0,0,0,3.01989Z" fill="#433f43"/><path d="M253.59989,101.81257s-2.73637,4.7513,0,4.83183a4.40778,4.40778,0,0,0,1.43994-.19645" fill="#d88a55"/><path d="M256.30945,95.47751a2.973,2.973,0,0,1,1.25525-1.00723,3.86178,3.86178,0,0,1,1.60168-.34955,3.72761,3.72761,0,0,1,1.60535.35211,3.16249,3.16249,0,0,1,1.25537,1.00467c-.54627-.07556-1.01318-.19751-1.48547-.2536a8.32533,8.32533,0,0,0-1.37207-.09717A13.8826,13.8826,0,0,0,256.30945,95.47751Z" fill="#433f43"/><path d="M243.948,95.47751a2.973,2.973,0,0,1,1.25525-1.00723,3.86178,3.86178,0,0,1,1.60168-.34955,3.72761,3.72761,0,0,1,1.60535.35211,3.16249,3.16249,0,0,1,1.25537,1.00467c-.54627-.07556-1.01318-.19751-1.48547-.2536a8.32533,8.32533,0,0,0-1.37207-.09717A13.8826,13.8826,0,0,0,243.948,95.47751Z" fill="#433f43"/><path d="M253.08818,95.9741a1.00723,1.00723,0,0,0,0-2.01326,1.00723,1.00723,0,0,0,0,2.01326Z" fill="#ca2c2c"/><path d="M268.38431,110.46738a1.00723,1.00723,0,0,0,0-2.01326,1.00723,1.00723,0,0,0,0,2.01326Z" fill="#fac600"/><ellipse cx="269.32418" cy="102.96346" rx="3.20032" ry="1.21538" transform="translate(128.86356 354.77251) rotate(-81.76896)" fill="#d88a55"/><path d="M283.66293,217.6155h3.11673a2.29124,2.29124,0,0,0,2.25493-1.69534l.6642-15.23V181.51249S283.32526,202.48108,283.66293,217.6155Z" fill="#fea613"/><path d="M217.22064,181.51249v24.45792l.43418,9.94975a2.291,2.291,0,0,0,2.25476,1.69534h3.34708C223.59434,202.48108,217.22064,181.51249,217.22064,181.51249Z" fill="#fea613"/><line x1="289.69879" y1="197.90962" x2="289.69879" y2="174.98952" fill="none" stroke="#433f43" stroke-miterlimit="10" stroke-width="0.33554"/><line x1="217.22064" y1="197.90962" x2="217.22064" y2="174.98952" fill="none" stroke="#433f43" stroke-miterlimit="10" stroke-width="0.33554"/><path d="M243.948,143.92066s-2.52386,218.94663-4.93978,222.8121-43.96968,3.38228-43.96968,0,12.00429-104.7499,12.14026-105.59045-10.448,3.15559-14.7972-.22669c-4.14812-3.2259-1.00225-95.86118,17.983-118.21893a14.435,14.435,0,0,1,5.3408-3.919,80.962,80.962,0,0,1,14.92762-4.45608s5.7972-1.78508,8.11064-3.70441C238.74365,130.61718,238.33824,140.07112,243.948,143.92066Z" fill="#433f43"/><path d="M192.50629,281.706s-.84949,6.45425-.12472,7.179,10.30791,8.29464,13.36807,8.45571.606-3.30967-1.77167-5.23449-3.344-6.001-3.344-6.001,2.90748-5.71583,2.64256-7.54808S192.50629,281.706,192.50629,281.706Z" fill="#d88a55"/><path d="M204.04116,261.52631l2.587,3.25813c.02013.07717.047.17784.07382.3087.71135,3.25142,3.56683,22.58546.77846,23.63236-2.21794.83215-2.66757-2.15084-2.97292-5.11369-.094-.91268-.17448-1.822-.28857-2.61724a4.05938,4.05938,0,0,0-.94287-2.43605c-.7382-.66774-1.78174-.198-2.92259,1.07038-.651.72478-.38252,3.31182.28185,6.476a.13179.13179,0,0,0,.01007.047c.62411,2.98634,1.59048,6.48271,2.45618,9.39858.09731.3389.198.66774.29193.98986.63753,2.11057,1.17775,3.81513,1.42941,4.62715.96637,3.14069-1.08716,2.53671-1.93273,2.53671-.10066,0-.32883-.29192-.651-.80866-1.09387-1.74818-3.27155-6.08341-5.30159-10.4589a91.19989,91.19989,0,0,1-4.43254-10.72734v-.00336a3.14436,3.14436,0,0,1-.12415-.71135c0-1.84885,1.41264-8.21412,2.4025-18.99515Z" fill="#f6a96c"/><path d="M207.17877,261.14231s7.61137-81.76388,10.23792-89.7364c0,0-4.16717,8.33491-5.119,13.046s-7.8112,76.98619-7.8112,76.98619S207.46594,260.78013,207.17877,261.14231Z" fill="#302e30"/><path d="M263.16752,143.92066s2.52386,218.94663,4.93978,222.8121,43.96968,3.38228,43.96968,0-12.0043-104.7499-12.14027-105.59045,10.448,3.15559,14.79721-.22669-.17046-103.9669-21.7074-119.87071c0,0-2.80567-2.78709-14.98987-5.35918,0,0-7.40174-2.31859-9.71517-4.23792C268.32148,131.44781,268.77725,140.07112,263.16752,143.92066Z" fill="#433f43"/><path d="M314.6092,281.706s.84949,6.45425.12472,7.179-10.30791,8.29464-13.36808,8.45571-.606-3.30967,1.77168-5.23449,3.344-6.001,3.344-6.001-2.90749-5.71583-2.64256-7.54808S314.6092,281.706,314.6092,281.706Z" fill="#d88a55"/><path d="M312.332,261.99942c.98985,10.781,2.40249,17.1463,2.40249,18.99515a3.14436,3.14436,0,0,1-.12415.71135v.00336a91.19938,91.19938,0,0,1-4.43253,10.72734c-2.03,4.37549-4.20772,8.71072-5.3016,10.4589-.32212.51674-.55029.80866-.65095.80866-.84557,0-2.8991.604-1.93274-2.53671.25166-.812.79189-2.51658,1.42942-4.62715.094-.32212.19462-.651.29192-.98986.86571-2.91587,1.83207-6.41224,2.45619-9.39858a.13176.13176,0,0,0,.01006-.047c.66438-3.16418.93282-5.75122.28186-6.476-1.14085-1.26835-2.18439-1.73812-2.92259-1.07038a4.05938,4.05938,0,0,0-.94288,2.43605c-.11408.79524-.19461,1.70456-.28856,2.61724-.30535,2.96285-.755,5.94584-2.97292,5.11369-2.78837-1.0469.0671-20.38094.77846-23.63236.02684-.13086.05369-.23153.07382-.3087l2.587-3.25813Z" fill="#f6a96c"/><path d="M299.93671,261.14231s-7.61136-81.76388-10.23792-89.7364c0,0,4.16718,8.33491,5.119,13.046s7.8112,76.98619,7.8112,76.98619S299.64954,260.78013,299.93671,261.14231Z" fill="#302e30"/><path d="M268.02655,131.8102a8.61388,8.61388,0,0,1-2.03309-1.75794c0,.00025-2.57917,12.98253-12.60305,12.96664-10.02405-.01592-11.76895-14.139-11.76895-14.139l-.00016,0a9.07294,9.07294,0,0,1-2.82722,2.56784s-1.32891,11.11322,9.6636,14.85788S268.389,140.86989,268.02655,131.8102Z" fill="#faf7f7"/><polygon points="248.165 145.311 243.587 193.257 250.513 194.223 253.285 159.273 255.944 194.223 262.27 192.451 259.639 145.97 248.165 145.311" fill="#faf7f7"/><path d="M485.23868,281.37046s.84949,6.45426.12472,7.179-10.30791,8.29465-13.36807,8.45571-.606-3.30966,1.77167-5.23448,3.344-6.001,3.344-6.001-2.90748-5.71583-2.64256-7.54808S485.23868,281.37046,485.23868,281.37046Z" fill="#d88a55"/><path d="M476.18294,197.52789s5.315,35.29446,6.03977,52.93065,3.14069,27.783,3.14069,30.199-9.66367,22.70962-10.50924,22.70962-2.8991.604-1.93273-2.53672,6.28138-19.51939,4.46944-21.53729-3.38228-2.01789-3.86546,1.36439-.36239,8.81809-3.26149,7.73093.1208-18.84415,0-20.53529-1.973-28.66887-12.76409-50.57318l.56371-19.76977Z" fill="#f6a96c"/><path d="M372.96744,197.86344s-5.315,35.29446-6.03977,52.93065-3.14069,27.783-3.14069,30.19895,9.66366,22.70962,10.50923,22.70962,2.8991.604,1.93274-2.53671-6.28139-19.51939-4.46945-21.53729,3.38229-2.0179,3.86547,1.36438.36239,8.8181,3.26149,7.73094-.1208-18.84415,0-20.53529,1.973-28.66888,12.76409-50.57319l-.56372-19.76976Z" fill="#f6a96c"/><path d="M459.27556,217.6155s17.31407,44.26648,15.01114,97.68356c-1.96894,45.67014-7.73971,137.34485-7.73971,137.34485H431.21414V444.309l-4.34865-156.55976h-3.84341l-4.4915,164.89467h-35.022s-5.31872-91.69644-7.73971-137.34485c-3.06365-57.76573,14.25358-97.68356,14.25358-97.68356Z" fill="#302e30"/><path d="M376.98057,479.58138s.48318-4.22785,6.28138-6.523a14.42448,14.42448,0,0,0,7.73093-6.523l17.7777.751.58327,9.39589h-.16777a.67109.67109,0,0,1,.67108.67109v1.55693a.67108.67108,0,0,1-.67108.67108Z" fill="#302e30"/><path d="M393.65039,452.64391s.72478,10.63-2.65751,13.89152c0,0,11.7172,1.08717,12.92516,10.14685h5.43581a46.43613,46.43613,0,0,0-.58327-9.39589c-.2563-1.9254-.43284-3.86057-.51086-5.80139l-.35542-8.84109Z" fill="#f6a96c"/><path d="M408.34352,463.03814l.00032-.003c-.0344-.51628-.0634-1.033-.08421-1.55013l-.35537-8.84109h-14.2539S405.08949,456.58656,408.34352,463.03814Z" fill="#d88a55"/><path d="M401.24868,471.12757s7.10573-.83611,7.24445-6.25456c0,0,.50955.21874.95761,1.366a6.23083,6.23083,0,0,1,.40642,2.26858v11.0738h-8.60848Z" fill="#302e30"/><path d="M471.96635,479.58138s-.48318-4.22785-6.28138-6.523a14.42448,14.42448,0,0,1-7.73093-6.523l-17.7777.751-.58327,9.39589h.16777a.67109.67109,0,0,0-.67109.67109v1.55693a.67109.67109,0,0,0,.67109.67108Z" fill="#302e30"/><path d="M455.29653,452.64391s-.72478,10.63,2.65751,13.89152c0,0-11.7172,1.08717-12.92516,10.14685h-5.43581a46.43613,46.43613,0,0,1,.58327-9.39589c.2563-1.9254.43284-3.86057.51086-5.80139l.35542-8.84109Z" fill="#f6a96c"/><path d="M440.6034,463.03814l-.00033-.003c.03441-.51628.06341-1.033.08422-1.55013l.35537-8.84109h14.2539S443.85742,456.58656,440.6034,463.03814Z" fill="#d88a55"/><path d="M447.69824,471.12757s-7.10573-.83611-7.24445-6.25456c0,0-.50955.21874-.95761,1.366a6.23084,6.23084,0,0,0-.40643,2.26858v11.0738h8.60849Z" fill="#302e30"/><path d="M444.27,241.00135S455.66533,371.08141,449.2543,399.106" fill="none" stroke="#433f43" stroke-miterlimit="10" stroke-width="0.33554"/><path d="M402.65958,241.00135S391.26424,371.08141,397.67527,399.106" fill="none" stroke="#433f43" stroke-miterlimit="10" stroke-width="0.33554"/><path d="M439.432,131.8102a57.07468,57.07468,0,0,0,15.57208,5.43581c9.18048,1.81194,14.13311,7.12695,18.11938,17.2738s5.22106,27.82428,6.429,43.32593l-18.44821.06389-.66438,13.02183s-.19232,6.684-2.04452,6.684h-66.87c-1.85221,0-2.46519-6.684-2.46519-6.684l-.66438-13.02183-18.44821-.06389c1.208-15.50165,2.44276-33.17908,6.429-43.32593S385.31548,139.058,394.496,137.246a52.68405,52.68405,0,0,0,15.70346-5.7982" fill="#efe2dd"/><path d="M415.49334,118.30259s.98746,9.52134-5.29392,13.14522c0,0-1.32876,11.11322,9.66366,14.85789s19.93132-5.43582,19.56893-14.4955c0,0-6.35951-3.48308-5.35408-14.30431Z" fill="#f6a96c"/><path d="M415.53626,120.45411s8.52983,8.39464,20.954,8.42581v-.00053c-1.50684-2.20973-2.92782-5.82516-2.41222-11.3735l-18.58468.7967a17.50292,17.50292,0,0,1,.04293,2.15146Z" fill="#d88a55"/><path d="M455.06834,217.6155h3.11673a2.29122,2.29122,0,0,0,2.25492-1.69534l.66421-15.23V181.51249S454.73067,202.48108,455.06834,217.6155Z" fill="#fea613"/><path d="M388.62605,181.51249v24.45792l.43417,9.94975a2.291,2.291,0,0,0,2.25477,1.69534h3.34708C394.99975,202.48108,388.62605,181.51249,388.62605,181.51249Z" fill="#fea613"/><line x1="461.1042" y1="197.90962" x2="461.1042" y2="174.98952" fill="none" stroke="#433f43" stroke-miterlimit="10" stroke-width="0.33554"/><line x1="388.62605" y1="197.90962" x2="388.62605" y2="174.98952" fill="none" stroke="#433f43" stroke-miterlimit="10" stroke-width="0.33554"/><path d="M415.35337,143.92066s-2.52385,218.94663-4.93977,222.8121-43.96968,3.38228-43.96968,0,12.00429-104.7499,12.14026-105.59045-10.448,3.15559-14.7972-.22669c-4.14812-3.2259-1.00226-95.86118,17.983-118.21893a14.43507,14.43507,0,0,1,5.34079-3.919,80.962,80.962,0,0,1,14.92763-4.45608s5.7972-1.78508,8.11063-3.70441C410.14905,130.61718,409.74365,140.07112,415.35337,143.92066Z" fill="#433f43"/><path d="M363.91169,281.706s-.84949,6.45425-.12471,7.179,10.30791,8.29464,13.36807,8.45571.606-3.30967-1.77167-5.23449-3.344-6.001-3.344-6.001,2.90749-5.71583,2.64257-7.54808S363.91169,281.706,363.91169,281.706Z" fill="#d88a55"/><path d="M375.44656,261.52631l2.58705,3.25813c.02013.07717.047.17784.07382.3087.71135,3.25142,3.56683,22.58546.77846,23.63236-2.218.83215-2.66758-2.15084-2.97292-5.11369-.09395-.91268-.17448-1.822-.28857-2.61724a4.05938,4.05938,0,0,0-.94288-2.43605c-.7382-.66774-1.78174-.198-2.92259,1.07038-.651.72478-.38252,3.31182.28186,6.476a.13179.13179,0,0,0,.01007.047c.62411,2.98634,1.59048,6.48271,2.45618,9.39858.09731.3389.198.66774.29192.98986.63754,2.11057,1.17776,3.81513,1.42942,4.62715.96637,3.14069-1.08716,2.53671-1.93273,2.53671-.10067,0-.32884-.29192-.651-.80866-1.09387-1.74818-3.27155-6.08341-5.30159-10.4589a91.19811,91.19811,0,0,1-4.43254-10.72734v-.00336a3.14436,3.14436,0,0,1-.12415-.71135c0-1.84885,1.41264-8.21412,2.40249-18.99515Z" fill="#f6a96c"/><path d="M378.58418,261.14231s7.61137-81.76388,10.23792-89.7364c0,0-4.16717,8.33491-5.119,13.046s-7.8112,76.98619-7.8112,76.98619S378.87135,260.78013,378.58418,261.14231Z" fill="#302e30"/><path d="M434.57293,143.92066s2.52386,218.94663,4.93977,222.8121,43.96968,3.38228,43.96968,0-12.00429-104.7499-12.14026-105.59045,10.448,3.15559,14.7972-.22669-.17046-103.9669-21.7074-119.87071c0,0-2.80566-2.78709-14.98987-5.35918,0,0-7.40174-2.31859-9.71517-4.23792C439.72688,131.44781,440.18265,140.07112,434.57293,143.92066Z" fill="#433f43"/><path d="M486.01461,281.706s.84949,6.45425.12471,7.179-10.30791,8.29464-13.36807,8.45571-.606-3.30967,1.77167-5.23449,3.344-6.001,3.344-6.001-2.90749-5.71583-2.64256-7.54808S486.01461,281.706,486.01461,281.706Z" fill="#d88a55"/><path d="M483.7374,261.99942c.98985,10.781,2.40249,17.1463,2.40249,18.99515a3.14436,3.14436,0,0,1-.12415.71135v.00336a91.19811,91.19811,0,0,1-4.43254,10.72734c-2.03,4.37549-4.20772,8.71072-5.30159,10.4589-.32212.51674-.55029.80866-.651.80866-.84557,0-2.8991.604-1.93273-2.53671.25166-.812.79188-2.51658,1.42942-4.62715.094-.32212.19461-.651.29192-.98986.86571-2.91587,1.83207-6.41224,2.45618-9.39858a.13179.13179,0,0,0,.01007-.047c.66438-3.16418.93281-5.75122.28186-6.476-1.14085-1.26835-2.18439-1.73812-2.92259-1.07038a4.05938,4.05938,0,0,0-.94288,2.43605c-.11408.79524-.19462,1.70456-.28857,2.61724-.30534,2.96285-.755,5.94584-2.97292,5.11369-2.78837-1.0469.06711-20.38094.77846-23.63236.02685-.13086.05369-.23153.07382-.3087l2.587-3.25813Z" fill="#f6a96c"/><path d="M471.34212,261.14231s-7.61137-81.76388-10.23792-89.7364c0,0,4.16717,8.33491,5.119,13.046s7.8112,76.98619,7.8112,76.98619S471.055,260.78013,471.34212,261.14231Z" fill="#302e30"/><path d="M439.432,131.8102a8.6141,8.6141,0,0,1-2.03309-1.75794c0,.00025-2.57916,12.98253-12.603,12.96664-10.02405-.01592-11.76894-14.139-11.76894-14.139l-.00016,0a9.07305,9.07305,0,0,1-2.82722,2.56784s-1.32891,11.11322,9.6636,14.85788S439.79437,140.86989,439.432,131.8102Z" fill="#faf7f7"/><polygon points="419.57 145.311 414.993 193.257 421.918 194.223 424.69 159.273 427.35 194.223 433.676 192.451 431.045 145.97 419.57 145.311" fill="#faf7f7"/><path d="M439.51777,97.68829a1.22235,1.22235,0,0,0-.48988.11137c-1.70164-8.78-7.53926-15.25112-14.482-15.25112-6.964,0-12.81735,6.51028-14.49884,15.33136a1.27675,1.27675,0,0,0-.64438-.19161,4.857,4.857,0,0,0-3.78487,6.6035c1.1051,3.47553,2.27263,6.6035,3.78487,6.6035a1.55066,1.55066,0,0,0,1.11673-.57815c2.13532,7.77156,7.60856,13.302,14.02649,13.302,6.3814,0,11.82743-5.46838,13.98848-13.17012a1.45664,1.45664,0,0,0,.98337.4463c1.51224,0,2.67993-3.128,3.785-6.6035A4.85711,4.85711,0,0,0,439.51777,97.68829Z" fill="#f6a96c"/><path d="M431.14267,101.7752a1.51085,1.51085,0,0,0,0-3.01989,1.51085,1.51085,0,0,0,0,3.01989Z" fill="#433f43"/><path d="M418.33831,101.7752a1.51085,1.51085,0,0,0,0-3.01989,1.51085,1.51085,0,0,0,0,3.01989Z" fill="#433f43"/><path d="M425.1314,103.08383s-2.73637,4.7513,0,4.83183a4.40778,4.40778,0,0,0,1.43994-.19645" fill="#d88a55"/><path d="M427.84094,96.74875a2.973,2.973,0,0,1,1.25525-1.0072,3.86138,3.86138,0,0,1,1.60169-.34958,3.728,3.728,0,0,1,1.60534.35214,3.16267,3.16267,0,0,1,1.25537,1.00464c-.54626-.07553-1.01318-.19751-1.48547-.2536a8.32846,8.32846,0,0,0-1.37207-.09714A13.8852,13.8852,0,0,0,427.84094,96.74875Z" fill="#433f43"/><path d="M415.47949,96.74875a2.973,2.973,0,0,1,1.25525-1.0072,3.86138,3.86138,0,0,1,1.60169-.34958,3.72852,3.72852,0,0,1,1.60546.35214,3.16224,3.16224,0,0,1,1.25525,1.00464c-.54626-.07553-1.01318-.19751-1.48535-.2536a8.3299,8.3299,0,0,0-1.37219-.09714A13.8852,13.8852,0,0,0,415.47949,96.74875Z" fill="#433f43"/><ellipse cx="440.85569" cy="104.23472" rx="3.20032" ry="1.21538" transform="translate(274.57959 525.62631) rotate(-81.76896)" fill="#d88a55"/><ellipse cx="408.31656" cy="104.23472" rx="1.21538" ry="3.20032" transform="translate(-10.71663 59.5304) rotate(-8.23104)" fill="#d88a55"/><path d="M429.24582,110.04625s-.44548-.04348-.68517-.04348H420.36a2.27567,2.27567,0,0,0-.44007.04348h0c-3.1436.04348-9.40048-5.23505-9.40048-5.23505v5.50594c1.56648,8.03155,5.46963,11.01749,7.57268,12.06883a9.393,9.393,0,0,0,1.007.42193,3.93712,3.93712,0,0,0,.3883.11075v-.00026a18.64423,18.64423,0,0,0,10.19084-.00437l.00016.00463s6.77511-1.35776,8.9681-12.60151V104.8112S432.38958,110.08973,429.24582,110.04625Z" fill="#433f43"/><path d="M410.30643,99.54391s-.05724,5.95286.34343,6.63973,1.48821,0,1.48821,0-.229-6.468,0-6.63973,3.31987-2.3468,3.26263-4.52188-.57082-6.58249.00079-6.98317,9.32917-.40067,9.32917-.40067v-7.899S406.98656,79.16681,410.30643,99.54391Z" fill="#433f43"/><path d="M438.81936,99.54391s.05724,5.95286-.34344,6.63973-1.48821,0-1.48821,0,.229-6.468,0-6.63973-3.31987-2.3468-3.26263-4.52188.57082-6.58249-.00078-6.98317-9.32918-.40067-9.32918-.40067v-7.899S442.13922,79.16681,438.81936,99.54391Z" fill="#433f43"/><path d="M421.07635,113.71386s3.22122-4.18759,7.24775,0Z" fill="#bb5d4c"/><path d="M421.07635,113.71386s3.86547,5.154,7.24775,0Z" fill="#a44f3e"/><path d="M103.53787,277.5387H161.155a0,0,0,0,1,0,0v9.14759a0,0,0,0,1,0,0H103.53787a3.93609,3.93609,0,0,1-3.93609-3.93609v-1.2754A3.93609,3.93609,0,0,1,103.53787,277.5387Z" fill="#fff"/><path d="M162.9569,286.92044a.82881.82881,0,0,1-.82881.8288H102.32784c-2.28325,0-4.14047-2.50776-4.14047-5.59076,0-3.08225,1.85722-5.59,4.14047-5.59h59.80025a.82881.82881,0,0,1,.82881.82881v.65237a.82881.82881,0,0,1-.82881.82881H102.32784c-1.33988,0-2.42971,1.47157-2.42971,3.28,0,1.8092,1.08983,3.28077,2.42971,3.28077h59.80025a.82881.82881,0,0,1,.82881.82881Z" fill="#302e30"/><path d="M94.5485,266.35792h57.61716a0,0,0,0,1,0,0v9.14759a0,0,0,0,1,0,0H94.5485a3.93609,3.93609,0,0,1-3.93609-3.93609V270.294a3.93609,3.93609,0,0,1,3.93609-3.93609Z" fill="#fff"/><path d="M153.96753,275.73966a.82881.82881,0,0,1-.82881.82881H93.33846c-2.28324,0-4.14047-2.50776-4.14047-5.59077,0-3.08225,1.85723-5.59,4.14047-5.59h59.80026a.82881.82881,0,0,1,.82881.82881v.65238a.82882.82882,0,0,1-.82881.82881H93.33846c-1.33987,0-2.4297,1.47157-2.4297,3.28,0,1.8092,1.08983,3.28077,2.4297,3.28077h59.80026a.82881.82881,0,0,1,.82881.82881Z" fill="#87523e"/><path d="M112.94938,255.17714h57.61716a0,0,0,0,1,0,0v9.14759a0,0,0,0,1,0,0H112.94938a3.93609,3.93609,0,0,1-3.93609-3.93609v-1.2754A3.93609,3.93609,0,0,1,112.94938,255.17714Z" fill="#fff"/><path d="M172.36841,264.55888a.82881.82881,0,0,1-.82881.82881H111.73935c-2.28324,0-4.14047-2.50776-4.14047-5.59077,0-3.08225,1.85723-5.59,4.14047-5.59H171.5396a.82881.82881,0,0,1,.82881.82881v.65238a.82881.82881,0,0,1-.82881.82881H111.73935c-1.33987,0-2.42971,1.47157-2.42971,3.28,0,1.8092,1.08984,3.28077,2.42971,3.28077H171.5396a.82881.82881,0,0,1,.82881.82881Z" fill="#ca2c2c"/><path d="M568.0736,220.52449a1.5009,1.5009,0,0,0,0-3,1.5009,1.5009,0,0,0,0,3Z" fill="#fea613"/><path d="M568.0736,235.91075a1.5009,1.5009,0,0,0,0-3,1.5009,1.5009,0,0,0,0,3Z" fill="#fea613"/><path d="M568.0736,250.28449a1.5009,1.5009,0,0,0,0-3,1.5009,1.5009,0,0,0,0,3Z" fill="#fea613"/><path d="M568.0736,265.12808a1.5009,1.5009,0,0,0,0-3,1.5009,1.5009,0,0,0,0,3Z" fill="#fea613"/><path d="M529.37571,277.49233h57.61716a0,0,0,0,1,0,0v9.14759a0,0,0,0,1,0,0H529.37571a3.93609,3.93609,0,0,1-3.93609-3.93609v-1.2754A3.93609,3.93609,0,0,1,529.37571,277.49233Z" fill="#fff"/><path d="M588.79474,286.87407a.82881.82881,0,0,1-.82881.82881H528.16568c-2.28325,0-4.14047-2.50776-4.14047-5.59077,0-3.08225,1.85722-5.59,4.14047-5.59h59.80025a.82881.82881,0,0,1,.82881.82881v.65238a.82881.82881,0,0,1-.82881.82881H528.16568c-1.33988,0-2.42971,1.47157-2.42971,3.28,0,1.8092,1.08983,3.28077,2.42971,3.28077h59.80025a.82881.82881,0,0,1,.82881.82881Z" fill="#302e30"/><path d="M520.38634,266.31155H578.0035a0,0,0,0,1,0,0v9.14759a0,0,0,0,1,0,0H520.38634a3.93609,3.93609,0,0,1-3.93609-3.93609v-1.2754A3.93609,3.93609,0,0,1,520.38634,266.31155Z" fill="#fff"/><path d="M579.80537,275.69329a.82881.82881,0,0,1-.82881.82881H519.1763c-2.28324,0-4.14047-2.50776-4.14047-5.59076,0-3.08226,1.85723-5.59,4.14047-5.59h59.80026a.82881.82881,0,0,1,.82881.82881v.65238a.82881.82881,0,0,1-.82881.82881H519.1763c-1.33987,0-2.4297,1.47157-2.4297,3.28,0,1.80919,1.08983,3.28076,2.4297,3.28076h59.80026a.82881.82881,0,0,1,.82881.82881Z" fill="#87523e"/><path d="M538.78722,255.13077h57.61716a0,0,0,0,1,0,0v9.14759a0,0,0,0,1,0,0H538.78722a3.93609,3.93609,0,0,1-3.93609-3.93609v-1.2754a3.93609,3.93609,0,0,1,3.93609-3.93609Z" fill="#fff"/><path d="M598.20625,264.51251a.82881.82881,0,0,1-.82881.82881H537.57719c-2.28324,0-4.14047-2.50776-4.14047-5.59076,0-3.08226,1.85723-5.59,4.14047-5.59h59.80025a.82881.82881,0,0,1,.82881.82881v.65238a.82881.82881,0,0,1-.82881.82881H537.57719c-1.33987,0-2.42971,1.47157-2.42971,3.28,0,1.80919,1.08984,3.28077,2.42971,3.28077h59.80025a.82881.82881,0,0,1,.82881.8288Z" fill="#ca2c2c"/></svg>