<svg id="Layer_1" data-name="Layer 1" xmlns="http://www.w3.org/2000/svg" viewBox="0 0 700 550"><title>judge taking seat</title><path d="M311.70572,254.25819h76.58856a14.73232,14.73232,0,0,1,14.73232,14.73232v27.689a0,0,0,0,1,0,0H296.9734a0,0,0,0,1,0,0v-27.689A14.73232,14.73232,0,0,1,311.70572,254.25819Z" fill="#ab695d"/><path d="M413.81041,373.74292s.85752,6.51525.1259,7.24687-10.40533,8.373-13.49441,8.53562-.61174-3.34094,1.78842-5.284,3.3756-6.05771,3.3756-6.05771-2.935-5.76985-2.66753-7.61942S413.81041,373.74292,413.81041,373.74292Z" fill="#d88a55"/><path d="M404.66909,289.108s5.36522,35.628,6.09685,53.43088,3.17037,28.0456,3.17037,30.48435-9.755,22.92423-10.60855,22.92423-2.9265.60969-1.951-2.56069,6.34074-19.70385,4.51168-21.74082-3.41425-2.037-3.902,1.37728-.36581,8.90143-3.29231,7.804.12194-19.02223,0-20.72936-1.99164-28.93981-12.88472-51.05113l.56905-19.95659Z" fill="#f6a96c"/><path d="M300.47815,289.44671s-5.36522,35.628-6.09685,53.43087-3.17037,28.0456-3.17037,30.48435,9.755,22.92424,10.60855,22.92424,2.9265.60968,1.951-2.56069-6.34074-19.70386-4.51168-21.74083,3.41425-2.037,3.902,1.37728.36581,8.90143,3.29231,7.804-.12194-19.02224,0-20.72936,1.99164-28.93981,12.88472-51.05113l-.56905-19.9566Z" fill="#f6a96c"/><path d="M303.306,407.99216c-3.09259-58.31165,14.38829-98.60672,14.38829-98.60672h69.90759s17.4777,44.68482,15.153,98.60672" fill="#302e30"/><line x1="354.88557" y1="380.18198" x2="351.00583" y2="380.18198" fill="#302e30"/><path d="M372.45454,332.9923s11.503,91.30938,5.03142,119.59886" fill="none" stroke="#433f43" stroke-miterlimit="10" stroke-width="0.33872"/><path d="M330.4509,332.9923s-11.503,91.30938-5.03142,119.59886" fill="none" stroke="#433f43" stroke-miterlimit="10" stroke-width="0.33872"/><path d="M367.57084,222.76923a57.61424,57.61424,0,0,0,15.71925,5.48719c9.26724,1.82906,14.26668,7.1943,18.29061,17.43705s5.27041,28.08723,6.48978,43.73537l-18.62255.0645-.67066,13.1449s-.19413,6.7472-2.06384,6.7472h-67.502c-1.86971,0-2.48848-6.7472-2.48848-6.7472l-.67066-13.1449-18.62255-.0645c1.21937-15.64814,2.46584-33.49263,6.48978-43.73537s9.02337-15.608,18.29061-17.437a53.182,53.182,0,0,0,15.85186-5.853" fill="#efe2dd"/><path d="M343.406,209.134s.99679,9.61132-5.344,13.26944c0,0-1.34131,11.21824,9.755,14.9983s20.11968-5.48718,19.75386-14.63249c0,0-6.4196-3.516-5.40467-14.43949Z" fill="#f6a96c"/><path d="M343.44927,211.30583s8.61044,8.474,21.152,8.50544v-.00054c-1.52108-2.23061-2.95549-5.88021-2.435-11.481l-18.76031.80422a17.6695,17.6695,0,0,1,.04333,2.17179Z" fill="#d88a55"/><path d="M383.35495,309.38544h3.14618a2.31288,2.31288,0,0,0,2.27623-1.71136l.67049-15.37394v-19.3589S383.01408,294.108,383.35495,309.38544Z" fill="#fea613"/><path d="M316.28474,272.94124V297.6303l.43828,10.04378a2.31261,2.31261,0,0,0,2.27607,1.71136h3.37872C322.71867,294.108,316.28474,272.94124,316.28474,272.94124Z" fill="#fea613"/><line x1="389.44785" y1="289.49333" x2="389.44785" y2="266.35662" fill="none" stroke="#433f43" stroke-miterlimit="10" stroke-width="0.33872"/><line x1="316.28474" y1="289.49333" x2="316.28474" y2="266.35662" fill="none" stroke="#433f43" stroke-miterlimit="10" stroke-width="0.33872"/><path d="M343.26465,234.99414s-2.54771,221.0158-4.98645,224.91779-44.38522,3.41425-44.38522,0,12.11774-105.73984,12.255-106.58833-10.54672,3.18541-14.937-.22884c-4.18732-3.25638-1.01173-96.76711,18.153-119.33616a14.57155,14.57155,0,0,1,5.39127-3.95605,81.72743,81.72743,0,0,1,15.0687-4.49819s5.852-1.802,8.18728-3.73942C338.01115,221.56494,337.60191,231.10823,343.26465,234.99414Z" fill="#433f43"/><path d="M291.33683,374.08163s-.85752,6.51526-.1259,7.24688,10.40533,8.373,13.49441,8.53562.61174-3.34094-1.78842-5.284-3.3756-6.0577-3.3756-6.0577,2.935-5.76985,2.66753-7.61942S291.33683,374.08163,291.33683,374.08163Z" fill="#d88a55"/><path d="M302.9807,353.71122l2.6115,3.28893c.02032.0779.04742.17952.07451.31161.71808,3.28215,3.60054,22.79891.78582,23.8557-2.2389.84-2.69278-2.17116-3.001-5.162-.09484-.92131-.17613-1.83923-.2913-2.642a4.09777,4.09777,0,0,0-.95179-2.45907c-.74517-.674-1.79857-.19984-2.95021,1.0805-.6571.73162-.38613,3.34312.28453,6.5372a.13285.13285,0,0,0,.01016.04742c.63,3.01456,1.60551,6.544,2.47939,9.48741.09823.3421.19984.674.29468.99921.64356,2.13051,1.18889,3.85119,1.44293,4.67088.9755,3.17037-1.09744,2.56068-1.951,2.56068-.10161,0-.33194-.29468-.65711-.8163-1.10421-1.76471-3.30247-6.1409-5.35169-10.55775a92.05807,92.05807,0,0,1-4.47443-10.82872v-.00338a3.17418,3.17418,0,0,1-.12532-.71808c0-1.86632,1.426-8.29174,2.4252-19.17466Z" fill="#f6a96c"/><path d="M306.148,353.3236s7.6833-82.53659,10.33468-90.58446c0,0-4.20656,8.41368-5.16734,13.16924s-7.885,77.71375-7.885,77.71375S306.43786,352.958,306.148,353.3236Z" fill="#302e30"/><path d="M362.66584,234.99414s2.54771,221.0158,4.98646,224.91779,44.38522,3.41425,44.38522,0-12.11774-105.73984-12.255-106.58833,10.54673,3.18541,14.93705-.22884S414.5475,248.14532,392.807,232.09122c0,0-2.83218-2.81343-15.13153-5.40983,0,0-7.47169-2.3405-9.807-4.278C367.8685,222.40342,368.32858,231.10823,362.66584,234.99414Z" fill="#433f43"/><path d="M414.59367,374.08163s.85752,6.51526.1259,7.24688-10.40533,8.373-13.49441,8.53562-.61175-3.34094,1.78842-5.284,3.3756-6.0577,3.3756-6.0577-2.935-5.76985-2.66753-7.61942S414.59367,374.08163,414.59367,374.08163Z" fill="#d88a55"/><path d="M412.29494,354.18881c.99921,10.88292,2.4252,17.30834,2.4252,19.17466a3.17418,3.17418,0,0,1-.12532.71808v.00338a92.06162,92.06162,0,0,1-4.47443,10.82872c-2.04923,4.41685-4.24749,8.793-5.3517,10.55775-.32516.52162-.55549.8163-.6571.8163-.85357,0-2.9265.60969-1.951-2.56068.254-.81969.79936-2.54037,1.44292-4.67088.09484-.32517.19646-.65711.29468-.99921.87389-2.94344,1.84939-6.47285,2.4794-9.48741a.13307.13307,0,0,0,.01016-.04742c.67066-3.19408.94163-5.80558.28452-6.5372-1.15163-1.28034-2.205-1.75454-2.95021-1.0805a4.09777,4.09777,0,0,0-.95179,2.45907c-.11516.80275-.19645,1.72067-.29129,2.642-.30823,2.99085-.76211,6.002-3.001,5.162-2.81472-1.05679.06775-20.57355.78582-23.8557.0271-.13209.0542-.23371.07452-.31161l2.61149-3.28893Z" fill="#f6a96c"/><path d="M399.78252,353.3236s-7.6833-82.53659-10.33467-90.58446c0,0,4.20656,8.41368,5.16734,13.16924s7.885,77.71375,7.885,77.71375S399.49264,352.958,399.78252,353.3236Z" fill="#302e30"/><path d="M367.57079,222.76924a8.69585,8.69585,0,0,1-2.05231-1.77455c0,.00025-2.60354,13.10521-12.72215,13.08917-10.11878-.01606-11.88017-14.27259-11.88017-14.27259l-.00016,0a9.15873,9.15873,0,0,1-2.85394,2.59211s-1.34146,11.21824,9.75493,14.99829S367.93663,231.91455,367.57079,222.76924Z" fill="#faf7f7"/><polygon points="347.521 236.398 342.901 284.796 349.892 285.772 352.689 250.491 355.374 285.772 361.76 283.983 359.104 237.063 347.521 236.398" fill="#faf7f7"/><path d="M367.65741,188.32485a1.23392,1.23392,0,0,0-.49451.11243c-1.71772-8.86295-7.6105-15.39525-14.61882-15.39525-7.02983,0-12.93849,6.57181-14.63587,15.47624a1.28891,1.28891,0,0,0-.65047-.19342,4.90294,4.90294,0,0,0-3.82063,6.66591c1.11554,3.50838,2.2941,6.66591,3.82063,6.66591a1.56535,1.56535,0,0,0,1.12729-.58361c2.1555,7.845,7.68046,13.42768,14.15905,13.42768,6.4417,0,11.9392-5.52006,14.12067-13.29459a1.4704,1.4704,0,0,0,.99266.45052c1.52654,0,2.70526-3.15753,3.8208-6.66591A4.903,4.903,0,0,0,367.65741,188.32485Z" fill="#f6a96c"/><path d="M359.20317,192.45039a1.52513,1.52513,0,0,0,0-3.04843,1.52513,1.52513,0,0,0,0,3.04843Z" fill="#433f43"/><path d="M346.2778,192.45039a1.52513,1.52513,0,0,0,0-3.04843,1.52513,1.52513,0,0,0,0,3.04843Z" fill="#433f43"/><path d="M353.13508,193.77139s-2.76222,4.7962,0,4.87749a4.4493,4.4493,0,0,0,1.45355-.1983" fill="#d88a55"/><path d="M355.87024,187.37646a3.0023,3.0023,0,0,1,1.26709-1.01684,3.89847,3.89847,0,0,1,1.61682-.35278,3.762,3.762,0,0,1,1.62061.35546,3.19163,3.19163,0,0,1,1.26715,1.01416c-.55139-.07617-1.02277-.19946-1.49945-.2561a8.40836,8.40836,0,0,0-1.38514-.0979A14.01655,14.01655,0,0,0,355.87024,187.37646Z" fill="#433f43"/><path d="M343.392,187.37646a3.00266,3.00266,0,0,1,1.26709-1.01684,3.89847,3.89847,0,0,1,1.61682-.35278,3.7619,3.7619,0,0,1,1.6206.35546,3.19173,3.19173,0,0,1,1.26716,1.01416c-.5514-.07617-1.02277-.19946-1.49946-.2561a8.40791,8.40791,0,0,0-1.38507-.0979A14.0171,14.0171,0,0,0,343.392,187.37646Z" fill="#433f43"/><ellipse cx="369.00798" cy="194.93315" rx="3.23057" ry="1.22686" transform="translate(123.25382 532.2323) rotate(-81.76896)" fill="#d88a55"/><ellipse cx="336.16134" cy="194.93315" rx="1.22686" ry="3.23057" transform="translate(-24.44476 50.13459) rotate(-8.23104)" fill="#d88a55"/><path d="M357.2884,200.7996s-.4497-.04389-.69166-.04389h-8.27817a2.29766,2.29766,0,0,0-.44424.04389h0c-3.1733.04389-9.48931-5.28452-9.48931-5.28452v5.558c1.58128,8.10746,5.52132,11.12161,7.64424,12.18289a9.4836,9.4836,0,0,0,1.01648.42592,3.97639,3.97639,0,0,0,.392.1118v-.00027a18.82046,18.82046,0,0,0,10.28714-.0044l.00017.00467s6.83913-1.37059,9.05285-12.72061v-5.558S360.46186,200.84349,357.2884,200.7996Z" fill="#d8cdca"/><path d="M338.17,190.198s-.05778,6.00912.34668,6.70248,1.50228,0,1.50228,0-.23112-6.52914,0-6.70248,3.35124-2.369,3.29346-4.56461-.57622-6.6447.00079-7.04916,9.41734-.40446,9.41734-.40446v-7.97364S334.81877,169.62834,338.17,190.198Z" fill="#d8cdca"/><path d="M366.9524,190.198s.05778,6.00912-.34668,6.70248-1.50228,0-1.50228,0,.23112-6.52914,0-6.70248-3.35123-2.369-3.29345-4.56461.57621-6.6447-.0008-7.04916-9.41734-.40446-9.41734-.40446v-7.97364S370.30364,169.62834,366.9524,190.198Z" fill="#d8cdca"/><path d="M349.04172,204.50188s3.25166-4.22717,7.31624,0Z" fill="#bb5d4c"/><path d="M349.04172,204.50188s3.902,5.20266,7.31624,0Z" fill="#a44f3e"/><circle cx="346.2778" cy="190.94315" r="3.99" fill="none" stroke="#433f43" stroke-miterlimit="10" stroke-width="1.06854"/><circle cx="358.75606" cy="190.94315" r="3.99" fill="none" stroke="#433f43" stroke-miterlimit="10" stroke-width="1.06854"/><path d="M350.09666,189.78686s2.90241-1.68022,4.8408,0" fill="none" stroke="#433f43" stroke-miterlimit="10" stroke-width="1.06854"/><line x1="362.62943" y1="189.99836" x2="367.1629" y2="188.43728" fill="none" stroke="#433f43" stroke-linecap="round" stroke-miterlimit="10" stroke-width="1.069"/><line x1="342.40325" y1="189.99836" x2="337.90821" y2="188.51827" fill="none" stroke="#433f43" stroke-linecap="round" stroke-miterlimit="10" stroke-width="1.069"/><circle cx="90.68477" cy="290.02193" r="17.18062" fill="#ab695d"/><circle cx="609.31523" cy="290.02193" r="17.18062" fill="#ab695d"/><rect x="82.59443" y="311.82992" width="534.81114" height="162.10989" fill="#c38f86"/><circle cx="111.3803" cy="330.768" r="18.93807" fill="#ab695d"/><path d="M130.31837,385.30964a18.93066,18.93066,0,0,0-9.8478-16.6139V334.55561H102.29v34.14013a18.96356,18.96356,0,0,0-9.44183,20.53173c5.398,25.6464,9.44182,51.559,9.44183,77.7673v6.945h18.18055v-6.94507c0-26.20831,4.04384-52.12088,9.44183-77.76727A19.006,19.006,0,0,0,130.31837,385.30964Z" fill="#ab695d"/><circle cx="164.4069" cy="330.768" r="18.93807" fill="#ab695d"/><path d="M183.345,385.30964a18.93064,18.93064,0,0,0-9.8478-16.6139V334.55561H155.31662v34.14013a18.96356,18.96356,0,0,0-9.44183,20.53173c5.398,25.6464,9.44182,51.559,9.44183,77.7673v6.945h18.18055v-6.94507c0-26.20831,4.04384-52.12088,9.44183-77.76727A19.006,19.006,0,0,0,183.345,385.30964Z" fill="#ab695d"/><circle cx="217.4335" cy="330.768" r="18.93807" fill="#ab695d"/><path d="M236.37157,385.30964a18.93064,18.93064,0,0,0-9.8478-16.6139V334.55561H208.34322v34.14013a18.96356,18.96356,0,0,0-9.44183,20.53173c5.398,25.6464,9.44182,51.559,9.44183,77.7673v6.945h18.18055v-6.94507c0-26.20831,4.04384-52.12088,9.44183-77.76727A19.006,19.006,0,0,0,236.37157,385.30964Z" fill="#ab695d"/><circle cx="270.4601" cy="330.768" r="18.93807" fill="#ab695d"/><path d="M289.39817,385.30964a18.93064,18.93064,0,0,0-9.8478-16.6139V334.55561H261.36982v34.14013a18.96349,18.96349,0,0,0-9.44182,20.53173c5.398,25.6464,9.44181,51.559,9.44182,77.7673v6.945h18.18055v-6.94507c0-26.20831,4.04384-52.12088,9.44183-77.76727A19.006,19.006,0,0,0,289.39817,385.30964Z" fill="#ab695d"/><circle cx="323.4867" cy="330.768" r="18.93807" fill="#ab695d"/><path d="M342.42477,385.30964a18.93064,18.93064,0,0,0-9.8478-16.6139V334.55561H314.39643v34.14013a18.96348,18.96348,0,0,0-9.44183,20.53173c5.398,25.6464,9.44181,51.559,9.44182,77.7673v6.945H332.577v-6.94507c0-26.20831,4.04384-52.12088,9.44183-77.76727A19.006,19.006,0,0,0,342.42477,385.30964Z" fill="#ab695d"/><circle cx="376.5133" cy="330.768" r="18.93807" fill="#ab695d"/><path d="M395.45137,385.30964a18.93064,18.93064,0,0,0-9.8478-16.6139V334.55561H367.423v34.14013a18.96348,18.96348,0,0,0-9.44183,20.53173c5.398,25.6464,9.44181,51.559,9.44182,77.7673v6.945h18.18054v-6.94507c0-26.20831,4.04384-52.12088,9.44183-77.76727A19.006,19.006,0,0,0,395.45137,385.30964Z" fill="#ab695d"/><circle cx="429.5399" cy="330.768" r="18.93807" fill="#ab695d"/><path d="M448.478,385.30964a18.93065,18.93065,0,0,0-9.84779-16.6139V334.55561H420.44963v34.14013a18.96348,18.96348,0,0,0-9.44183,20.53173c5.398,25.6464,9.44181,51.559,9.44182,77.7673v6.945h18.18055v-6.94507c0-26.20831,4.04383-52.12088,9.44182-77.76727A19.006,19.006,0,0,0,448.478,385.30964Z" fill="#ab695d"/><circle cx="482.5665" cy="330.768" r="18.93807" fill="#ab695d"/><path d="M501.50457,385.30964a18.93065,18.93065,0,0,0-9.84779-16.6139V334.55561H473.47623v34.14013a18.96348,18.96348,0,0,0-9.44183,20.53173c5.398,25.6464,9.44181,51.559,9.44182,77.7673v6.945h18.18055v-6.94507c0-26.20831,4.04383-52.12088,9.44182-77.76727A19.006,19.006,0,0,0,501.50457,385.30964Z" fill="#ab695d"/><circle cx="535.5931" cy="330.768" r="18.93807" fill="#ab695d"/><path d="M554.53117,385.30964a18.93065,18.93065,0,0,0-9.84779-16.6139V334.55561H526.50283v34.14013a18.96348,18.96348,0,0,0-9.44183,20.53173c5.398,25.6464,9.44181,51.559,9.44182,77.7673v6.945h18.18055v-6.94507c0-26.20831,4.04383-52.12088,9.44182-77.76727A19.006,19.006,0,0,0,554.53117,385.30964Z" fill="#ab695d"/><circle cx="588.6197" cy="330.768" r="18.93807" fill="#ab695d"/><path d="M607.55777,385.30964a18.93065,18.93065,0,0,0-9.84779-16.6139V334.55561H579.52943v34.14013a18.96348,18.96348,0,0,0-9.44183,20.53173c5.398,25.6464,9.44182,51.559,9.44183,77.7673v6.945H597.71v-6.94507c0-26.20831,4.04384-52.12088,9.44182-77.76727A19.006,19.006,0,0,0,607.55777,385.30964Z" fill="#ab695d"/><rect x="82.59425" y="314.85965" width="534.81114" height="18.93807" fill="#ab695d"/><rect x="82.59425" y="445.15358" width="534.81114" height="25.75578" fill="#ab695d"/><rect x="73.50415" y="296.67947" width="552.99169" height="25.75578" rx="2" fill="#c38f86"/><rect x="73.50415" y="454.24422" width="552.99169" height="25.75578" rx="2" fill="#c38f86"/><path d="M240.61351,268.7759l-27.9241,22.3685a2.99113,2.99113,0,0,0,3.74186,4.66755l27.921-22.37" fill="#ab695d"/><path d="M251.13067,281.90518a2.18131,2.18131,0,0,1,.338-3.0602l11.40211-9.12972a2.17708,2.17708,0,0,1,2.72218,3.39829l-11.40214,9.12967a2.17339,2.17339,0,0,1-3.0602-.338Zm0,0" fill="#c38f86"/><path d="M251.02417,279.20105l-2.38766-2.98554,12.28693-9.84237,2.39194,2.98605Zm12.29121-9.84186" fill="#ab695d"/><path d="M233.648,260.07906a2.17328,2.17328,0,0,0,3.06016.338l11.401-9.12979a2.17705,2.17705,0,1,0-2.72215-3.39825l-11.401,9.1298a2.17926,2.17926,0,0,0-.338,3.0602Zm0,0" fill="#c38f86"/><path d="M248.55374,250.9312l2.392,2.98609-12.29012,9.842-2.39306-2.98614Zm-12.29122,9.84193" fill="#ab695d"/><path d="M238.50626,266.149a1.77771,1.77771,0,0,1,.27559-2.49482l12.03359-9.6355a1.77376,1.77376,0,0,1,2.49157.27523l7.75757,9.68427a1.77441,1.77441,0,0,1-.27511,2.49047l-12.0336,9.63553a1.77364,1.77364,0,0,1-2.49153-.27523l-7.75808-9.68Zm0,0" fill="#c38f86"/><path d="M236.65518,295.70568a5.44445,5.44445,0,0,1,5.44842-5.44846h28.12929a5.44913,5.44913,0,0,1,5.44842,5.44846v.8014H236.65518Zm0,.8014" fill="#ab695d"/><path d="M241.7458,284.2343a1.56046,1.56046,0,0,1,1.562-1.562h25.71928a1.56171,1.56171,0,0,1,1.56352,1.562v6.02292H241.7458Zm0,6.02292" fill="#c38f86"/><path d="M574.62464,265.9227v-3.764H553.2588V265.905a10.68313,10.68313,0,0,0,2.99283,7.41539l4.7551,4.93124-4.77615,4.98145a10.683,10.683,0,0,0-2.97178,7.3935v3.764h21.36584v-3.7463a10.68269,10.68269,0,0,0-2.99293-7.4154l-4.7551-4.93123,4.77625-4.98154A10.683,10.683,0,0,0,574.62464,265.9227Z" fill="#c38f86"/><path d="M556.54265,290.88042l6.00381-8.3764a1.52612,1.52612,0,0,1,2.51628-.02127l6.27805,8.39767Z" fill="#ab695d"/><path d="M571.34079,269.22515l-6.00381,8.3764a1.52613,1.52613,0,0,1-2.51628.02128l-6.27805-8.39768Z" fill="#ab695d"/><path d="M577.46321,264.44769H550.359a2.289,2.289,0,0,1,0-4.57808h27.10419a2.289,2.289,0,0,1,0,4.57808Z" fill="#ab695d"/><path d="M577.46321,296.67947H550.359a2.289,2.289,0,0,1,0-4.57808h27.10419a2.289,2.289,0,0,1,0,4.57808Z" fill="#ab695d"/><path d="M215.19279,254.35208,204.53391,214.7343h.02516v-1.2281h-1.27016l-.52481-2.42683a2.53266,2.53266,0,0,0-1.11352-1.60418,2.47486,2.47486,0,0,0-1.91707-.34669l-24.49582,5.29437-.06941-.34743-1.85666.3702v-6.86255h4.71432a1,1,0,0,0,1-1v-2.07141a1,1,0,0,0-1-1H164.33363a1,1,0,0,0-1,1v2.07141a1,1,0,0,0,1,1h4.71488v7.71311l-2.5225.50351.09677.48515L135.449,223.02254a2.55478,2.55478,0,0,0-1.95086,3.02913l.26424,1.2215h-.68347v1.2281h.02461L122.4446,268.11941h-2.12623a5.67234,5.67234,0,0,0,5.67246,5.67228h18.77781a5.67245,5.67245,0,0,0,5.67246-5.67228h-2.12l-10.65888-39.61814h.02553v-1.2281h-1.61612l-.36707-1.69746a.295.295,0,0,1,.22329-.34963l31.13618-6.73.12725.63755,1.85722-.37056v69.21937H163.867a1,1,0,0,0-1,1v2.645h-8.6368a1,1,0,0,0-1,1v4.052h35.89912v-4.052a1,1,0,0,0-1-1h-8.63681v-2.645a1,1,0,0,0-1-1h-5.18092V217.91254l2.522-.50314-.15462-.77528,24.53052-5.30208.34816.22329.422,1.95087h-1.02924v1.2281h.02442l-10.65888,39.61778h-2.11907a5.67222,5.67222,0,0,0,5.67246,5.67227h18.77782a5.67209,5.67209,0,0,0,5.67245-5.67227ZM124.205,268.36654l10.25233-39.11239h1.851l10.25233,39.11239Zm77.12383-52.8801h1.851l10.25233,39.11239H191.07654Z" fill="#ab695d"/><rect x="447.59065" y="270.38159" width="73.32455" height="13.14894" rx="3.9227" fill="#c38f86"/><rect x="454.04563" y="257.23266" width="73.32455" height="13.14894" rx="3.9227" fill="#ab695d"/><rect x="454.04563" y="283.53053" width="73.32455" height="13.14894" rx="3.9227" fill="#ab695d"/><text transform="translate(465.80688 280.97968)" font-size="11.76809" fill="#ab695d" font-family="Baloo-Regular, Baloo">ORDER</text><text transform="translate(469.56079 267.79999)" font-size="11.76809" fill="#c38f86" font-family="Baloo-Regular, Baloo">JU<tspan x="12.66211" y="0" letter-spacing="-0.01303em">S</tspan><tspan x="18.99316" y="0">TICE</tspan></text><text transform="translate(478.98071 292.94745)" font-size="11.76809" fill="#c38f86" font-family="Baloo-Regular, Baloo"><tspan letter-spacing="0.00996em">L</tspan><tspan x="6.1543" y="0" letter-spacing="-0.02em">A</tspan><tspan x="13.29785" y="0">W</tspan></text><rect x="442.2621" y="117.26806" width="54.59739" height="54.59739" fill="#bf736a"/><rect x="446.49913" y="121.5051" width="46.12332" height="46.12332" fill="#edb0a9"/><path d="M467.878,142.7905l-15.586,12.48514a1.66952,1.66952,0,0,0,2.08854,2.60523l15.58432-12.48595" fill="#ab695d"/><path d="M473.74822,150.1187a1.21752,1.21752,0,0,1,.18869-1.70807l6.36417-5.09582a1.21515,1.21515,0,1,1,1.5194,1.89678l-6.36418,5.0958a1.21311,1.21311,0,0,1-1.70808-.18869Zm0,0" fill="#c38f86"/><path d="M473.68878,148.60937l-1.33269-1.6664,6.858-5.49359,1.33508,1.66668Zm6.86043-5.49331" fill="#ab695d"/><path d="M463.99012,137.93629a1.213,1.213,0,0,0,1.70806.18868l6.36358-5.09586a1.21514,1.21514,0,0,0-1.51939-1.89676l-6.36357,5.09587a1.21638,1.21638,0,0,0-.18868,1.70807Zm0,0" fill="#c38f86"/><path d="M472.30989,132.83035l1.33509,1.6667-6.85982,5.49338-1.33571-1.66674Zm-6.86044,5.49334" fill="#ab695d"/><path d="M466.70181,141.32426a.99225.99225,0,0,1,.15383-1.3925l6.71664-5.37812a.99.99,0,0,1,1.39068.15362l4.32995,5.40534a.99041.99041,0,0,1-.15356,1.39008l-6.71664,5.37814a.99.99,0,0,1-1.39067-.15362l-4.33023-5.40294Zm0,0" fill="#c38f86"/><path d="M465.66862,157.82155a3.03886,3.03886,0,0,1,3.04108-3.04109h15.70057a3.04147,3.04147,0,0,1,3.04107,3.04109v.44731H465.66862Zm0,.44731" fill="#ab695d"/><path d="M468.51,151.41872a.871.871,0,0,1,.87187-.87187h14.3554a.87168.87168,0,0,1,.87269.87187v3.36174h-16.1Zm0,3.36174" fill="#c38f86"/><circle cx="224.40889" cy="145.02938" r="30.13552" fill="#edb0a9"/><polyline points="234.164 155.228 224.409 145.029 224.409 125.899" fill="none" stroke="#bf736a" stroke-linecap="round" stroke-linejoin="round" stroke-width="3"/></svg>