<svg id="Layer_1" data-name="Layer 1" xmlns="http://www.w3.org/2000/svg" viewBox="0 0 700 550"><title>judge asking for the case</title><path d="M588.43869,233.066s5.3101-2.30519,6.107-1.86287,9.613,6.78335,10.49931,9.36016-2.68127,1.32777-4.90852-.23411-5.94847-1.39082-5.94847-1.39082-4.17534,3.884-5.8066,4.10572S588.43869,233.066,588.43869,233.066Z" fill="#d88a55"/><path d="M574.00836,247.8641l3.41835,1.41468c.0709-.00167.16353-.00334.282-.01241,2.95375-.18725,20.18149-2.47581,20.39438-5.11578.16884-2.09975-2.49139-1.75441-5.09911-1.29064-.80326.143-1.60037.29656-2.30815.39357a3.60975,3.60975,0,0,1-2.3133-.21015c-.75145-.46775-.60513-1.47482.20013-2.76045.46038-.73383,2.73778-1.13722,5.60546-1.34329a.11725.11725,0,0,1,.04262-.00289c2.70578-.197,5.93133-.22615,8.636-.19937.31354.00029.61929.0059.91767.00742,1.96035.02873,3.54978.07359,4.30556.09009,2.92147.05785,1.90275-1.55,1.69589-2.27292-.02463-.08606-.33-.20971-.85059-.35869-1.76217-.50751-6.00121-1.30872-10.23856-1.97386a81.09815,81.09815,0,0,0-10.25544-1.16521l-.00287.00082a2.79546,2.79546,0,0,0-.63853.06789c-1.58063.45229-6.67688,3.21716-15.65172,6.70083Z" fill="#f6a96c"/><line x1="594.7485" y1="216.4435" x2="594.7485" y2="477.65307" fill="none" stroke="#7f6332" stroke-miterlimit="10" stroke-width="10.91242"/><circle cx="594.7485" cy="213.56525" r="15.11695" fill="#7f6332"/><path d="M609.80977,212.31372s-15.92587,4.02935-30.12254,0" fill="none" stroke="#5f4c24" stroke-miterlimit="10" stroke-width="0.83942"/><path d="M574.00836,247.8641l3.41835,1.41468c.0709-.00167.16353-.00334.282-.01241,2.95375-.18725,20.18149-2.47581,20.39438-5.11578.16884-2.09975-2.49139-1.75441-5.09911-1.29064-.80326.143-1.60037.29656-2.30815.39357a3.60975,3.60975,0,0,1-2.3133-.21015c-.75145-.46775-.60513-1.47482.20013-2.76045.46038-.73383-7.4597-3.93285-16.43454-.44918Z" fill="#f6a96c"/><path d="M427.1217,321.39619s-.7554,5.73937-.1109,6.38387,9.1662,7.37593,11.88741,7.51915.5389-2.94308-1.57544-4.65471-2.97362-5.33632-2.97362-5.33632,2.58545-5.08274,2.34987-6.712S427.1217,321.39619,427.1217,321.39619Z" fill="#d88a55"/><path d="M450.20913,264.70279s-15.39635,39.36348-13.3485,86.864c1.75086,40.61167,6.88246,102.1324,6.88246,102.1324h31.41934v-7.41173l3.867-119.219h3.41772l3.994,126.63077h31.14294s4.72961-61.54005,6.88245-102.1324c2.72431-51.36754-12.67484-86.864-12.67484-86.864Z" fill="#ca2e43"/><path d="M523.389,477.65307s-.42966-3.75957-5.58565-5.80048a12.82682,12.82682,0,0,1-6.87464-5.80048l-15.80863.66777-.51866,8.3552h.14919a.59676.59676,0,0,0-.59676.59676v1.38447a.59676.59676,0,0,0,.59676.59676Z" fill="#302e30"/><path d="M508.56559,453.69922s-.6445,9.45264,2.36316,12.35289c0,0-10.41939.96674-11.49356,9.023h-4.83373a41.29266,41.29266,0,0,1,.51866-8.3552c.22792-1.71213.3849-3.433.45428-5.15881l.316-7.86185Z" fill="#f6a96c"/><path d="M495.49988,462.94217l-.00029-.00267c.0306-.4591.05639-.91856.07489-1.37844l.316-7.86184h12.67512S498.39349,457.20517,495.49988,462.94217Z" fill="#d88a55"/><path d="M501.80889,470.13561s-6.31869-.7435-6.442-5.5618c0,0-.45311.19452-.85154,1.2147a5.54064,5.54064,0,0,0-.36141,2.01731v9.84725h7.655Z" fill="#302e30"/><path d="M438.924,477.65307s.42966-3.75957,5.58565-5.80048a12.82682,12.82682,0,0,0,6.87464-5.80048l15.80863.66777.51866,8.3552h-.14919a.59676.59676,0,0,1,.59676.59676v1.38447a.59676.59676,0,0,1-.59676.59676Z" fill="#302e30"/><path d="M453.74743,453.69922s.6445,9.45264-2.36316,12.35289c0,0,10.41939.96674,11.49356,9.023h4.83373a41.29266,41.29266,0,0,0-.51866-8.3552c-.22792-1.71213-.3849-3.433-.45428-5.15881l-.31605-7.86185Z" fill="#f6a96c"/><path d="M466.81314,462.94217l.00029-.00267c-.0306-.4591-.05639-.91856-.07489-1.37844l-.316-7.86184H453.74741S463.91953,457.20517,466.81314,462.94217Z" fill="#d88a55"/><path d="M460.50413,470.13561s6.31869-.7435,6.44205-5.5618c0,0,.45311.19452.85154,1.2147a5.54064,5.54064,0,0,1,.36141,2.01731v9.84725h-7.655Z" fill="#302e30"/><path d="M489.142,176.38988s-.87809,8.46674,4.70756,11.68923c0,0,1.18158,9.88231-8.59331,13.21222s-17.7237-4.83374-17.40145-12.89c0,0,5.65513-3.09729,4.76106-12.71994Z" fill="#f6a96c"/><path d="M489.10382,178.30309s-7.58506,7.46484-18.63309,7.49256v-.00047c1.33994-1.965,2.60353-5.18,2.145-10.11376l16.52622.70845a15.56367,15.56367,0,0,0-.03817,1.91316Z" fill="#d88a55"/><line x1="448.58303" y1="247.17955" x2="448.58303" y2="226.7981" fill="none" stroke="#433f43" stroke-miterlimit="10" stroke-width="0.29838"/><line x1="513.03343" y1="247.17955" x2="513.03343" y2="226.7981" fill="none" stroke="#433f43" stroke-miterlimit="10" stroke-width="0.29838"/><path d="M426.43172,321.69457s-.7554,5.73937-.1109,6.38387,9.16619,7.37592,11.88741,7.51915.53889-2.94309-1.57544-4.65471-2.97362-5.33632-2.97362-5.33632,2.58545-5.08274,2.34987-6.712S426.43172,321.69457,426.43172,321.69457Z" fill="#d88a55"/><path d="M428.4567,304.1707c-.88021,9.58691-2.13639,15.24716-2.13639,16.89123a2.79615,2.79615,0,0,0,.1104.63256v.003a81.0964,81.0964,0,0,0,3.94159,9.53917c1.80519,3.89086,3.74167,7.74592,4.71438,9.30047.28644.4595.48934.71909.57886.71909.75191,0,2.578.53708,1.71866-2.25574-.22379-.72208-.70418-2.23784-1.2711-4.11464-.08354-.28645-.17306-.57886-.25959-.88022-.76981-2.59291-1.62914-5.702-2.18413-8.35759a.11709.11709,0,0,1-.00895-.04178c-.59079-2.81371-.82949-5.11421-.25064-5.75871,1.01449-1.12787,1.94245-1.5456,2.59888-.95182a3.60978,3.60978,0,0,1,.83845,2.16623c.10144.70715.17306,1.51576.2566,2.32735.27153,2.63469.67135,5.28727,2.64364,4.54729,2.47953-.93094-.05968-18.12352-.69224-21.01481-.02387-.11637-.04774-.20589-.06564-.27451L436.689,303.75Z" fill="#f6a96c"/><path d="M467.77852,158.05883a1.08713,1.08713,0,0,1,.43563.099c1.51316-7.80749,6.70419-13.56188,12.87792-13.56188,6.19268,0,11.3977,5.78919,12.89294,13.63324a1.13528,1.13528,0,0,1,.573-.17039,4.31906,4.31906,0,0,1,3.36565,5.87209c-.9827,3.09058-2.02091,5.87209-3.36565,5.87209a1.37892,1.37892,0,0,1-.993-.51411c-1.89882,6.91077-6.76583,11.82863-12.47291,11.82863-5.67458,0-10.51741-4.86269-12.4391-11.71138a1.29532,1.29532,0,0,1-.87445.39686c-1.34474,0-2.38309-2.78151-3.36579-5.87209A4.31912,4.31912,0,0,1,467.77852,158.05883Z" fill="#f6a96c"/><path d="M475.226,161.69308a1.34351,1.34351,0,0,0,0-2.68541,1.34351,1.34351,0,0,0,0,2.68541Z" fill="#433f43"/><path d="M486.61212,161.69308a1.34351,1.34351,0,0,0,0-2.68541,1.34351,1.34351,0,0,0,0,2.68541Z" fill="#433f43"/><path d="M480.57145,162.85676s2.43328,4.225,0,4.29665a3.9195,3.9195,0,0,1-1.28046-.17469" fill="#d88a55"/><path d="M478.16205,157.22339a12.34406,12.34406,0,0,0-2.54334-.312,7.40979,7.40979,0,0,0-1.22015.08642c-.41992.05-.83514.15845-1.32092.22559a3.154,3.154,0,0,1,2.54388-1.20654,3.435,3.435,0,0,1,1.42432.31079A2.64492,2.64492,0,0,1,478.16205,157.22339Z" fill="#433f43"/><path d="M489.1543,157.22339a12.34357,12.34357,0,0,0-2.54334-.312,7.41025,7.41025,0,0,0-1.22015.08642c-.41986.05-.83508.15845-1.32086.22559a3.15376,3.15376,0,0,1,2.54382-1.20654,3.43475,3.43475,0,0,1,1.42432.31079A2.64456,2.64456,0,0,1,489.1543,157.22339Z" fill="#433f43"/><ellipse cx="466.58879" cy="163.88017" rx="1.08076" ry="2.84585" transform="matrix(0.9897, -0.14317, 0.14317, 0.9897, -18.6555, 68.48736)" fill="#d88a55"/><ellipse cx="495.52386" cy="163.88017" rx="2.84585" ry="1.08076" transform="translate(262.39015 630.83764) rotate(-81.76896)" fill="#d88a55"/><path d="M493.75439,159.70892s.0509,5.29352-.3054,5.90431-1.32337,0-1.32337,0a57.09366,57.09366,0,0,0,0-5.90431c-.2036-.15269-2.95216-2.08686-2.90126-4.021s.5076-5.85341-.0007-6.2097-8.29587-.3563-8.29587-.3563V142.0978S496.70654,141.58881,493.75439,159.70892Z" fill="#433f43"/><path d="M468.39958,159.70892s-.0509,5.29352.30539,5.90431,1.32338,0,1.32338,0a57.09086,57.09086,0,0,1,0-5.90431c.2036-.15269,2.95215-2.08686,2.90125-4.021s-.50759-5.85341.0007-6.2097,8.29587-.3563,8.29587-.3563V142.0978S465.44742,141.58881,468.39958,159.70892Z" fill="#433f43"/><path d="M484.17735,172.30939s-2.86443-3.72376-6.445,0Z" fill="#bb5d4c"/><path d="M484.17735,172.30939s-3.43732,4.5831-6.445,0Z" fill="#a44f3e"/><path d="M493.89433,187.34049a32.7923,32.7923,0,0,0,10.03786,3.93289s7.39559,2.48255,10.71238,4.6894,11.335,9.29526,16.733,42.27562l41.43269-1.24957s4.0292,6.75251,3.22336,14.408c0,0-35.08686,15.30212-46.39058,15.28963s-11.85183-5.23582-11.85183-5.23582l2.83786,34.40828H441.57173l-2.17224,8.18642s-7.16354,2.82274-13.07867-.8384c0,0-4.83647-77.77135,19.30306-106.59371a31.92065,31.92065,0,0,1,13.32958-4.76559s6.11571-1.97865,8.63911-3.76853Z" fill="#ca2e43"/><path d="M494.11974,155.70325s-14.67476-5.13725-26.08818,0c0,0-4.76523-7.40723-5.52071-11.10727,0,0,21.52978-8.31023,37.62268.98391C500.13353,145.57989,498.19821,151.92589,494.11974,155.70325Z" fill="#ca2e43"/><path d="M475.48712,148.80879a116.38393,116.38393,0,0,0,24.74764-2.82153l-.20212-.81447c-.19013.0471-19.2553,4.69071-36.44487,1.912l-.13361.829A75.9802,75.9802,0,0,0,475.48712,148.80879Z" fill="#ac2538"/><path d="M493.9879,156.10137l.26378-.79649c-.11819-.0394-11.93532-3.9773-18.4434-7.23947l-.37683.75024C481.99434,152.10523,493.868,156.062,493.9879,156.10137Z" fill="#ac2538"/><path d="M490.16126,146.20946a.62994.62994,0,0,1,0-1.25913.62994.62994,0,0,1,0,1.25913Z" fill="#ac2538"/><path d="M476.71379,146.20946a.62994.62994,0,0,1,0-1.25913.62994.62994,0,0,1,0,1.25913Z" fill="#ac2538"/><path d="M484.06994,150.44012a.62994.62994,0,0,1,0-1.25913.62994.62994,0,0,1,0,1.25913Z" fill="#ac2538"/><path d="M481.82711,142.72593a.62994.62994,0,0,1,0-1.25913.62994.62994,0,0,1,0,1.25913Z" fill="#ac2538"/><path d="M471.42547,152.70142a.62994.62994,0,0,1,0-1.25913.62994.62994,0,0,1,0,1.25913Z" fill="#ac2538"/><path d="M470.47073,144.38613a.62994.62994,0,0,1,0-1.25913.62994.62994,0,0,1,0,1.25913Z" fill="#ac2538"/><path d="M464.77728,146.77873a.62994.62994,0,0,1,0-1.25913.62994.62994,0,0,1,0,1.25913Z" fill="#ac2538"/><path d="M497.26273,149.02683a.62994.62994,0,0,1,0-1.25913.62994.62994,0,0,1,0,1.25913Z" fill="#ac2538"/><path d="M493.89433,152.70142a.62994.62994,0,0,1,0-1.25913.62994.62994,0,0,1,0,1.25913Z" fill="#ac2538"/><path d="M500.13353,190.267s2.83646,25.642-12.60843,34.72309" fill="none" stroke="#7f6332" stroke-miterlimit="10" stroke-width="0.83942"/><path d="M441.57173,295.85892s8.35078-61.33927,9.61365-64.7122c0,0-.78466.31-2.60235,4.625S440.48244,275.54319,441.57173,295.85892Z" fill="#ac2538"/><path d="M467.59257,188.07911S494.2,245.71755,517.79123,261.45064l2.83786,34.40828s-59.86-29.62765-75.00521-99.24569C445.62388,196.61323,453.03193,190.53813,467.59257,188.07911Z" fill="#ac2538"/><ellipse cx="476.71379" cy="233.87423" rx="10.01167" ry="13.14527" transform="translate(-53.06958 269.6901) rotate(-30)" fill="#7f6332"/><path d="M439.68121,306.22652c.58527-3.63928,1.22513-7.10357,1.8916-10.36762h79.05626l0,.00032,1.75811,10.34107.00385.02623Z" fill="#ac2538"/><path d="M111.56131,233.066s-5.3101-2.30519-6.107-1.86287-9.613,6.78335-10.49931,9.36016,2.68127,1.32777,4.90852-.23411,5.94847-1.39082,5.94847-1.39082,4.17534,3.884,5.8066,4.10572S111.56131,233.066,111.56131,233.066Z" fill="#d88a55"/><path d="M125.99164,247.8641l-3.41835,1.41468c-.0709-.00167-.16353-.00334-.282-.01241-2.95375-.18725-20.18149-2.47581-20.39438-5.11578-.16884-2.09975,2.49139-1.75441,5.09911-1.29064.80326.143,1.60037.29656,2.30815.39357a3.60975,3.60975,0,0,0,2.3133-.21015c.75145-.46775.60513-1.47482-.20013-2.76045-.46038-.73383-2.73778-1.13722-5.60546-1.34329a.11725.11725,0,0,0-.04262-.00289c-2.70578-.197-5.93133-.22615-8.636-.19937-.31354.00029-.61929.0059-.91767.00742-1.96035.02873-3.54978.07359-4.30556.09009-2.92147.05785-1.90275-1.55-1.69589-2.27292.02463-.08606.33-.20971.85059-.35869,1.76217-.50751,6.00121-1.30872,10.23856-1.97386a81.09815,81.09815,0,0,1,10.25544-1.16521l.00287.00082a2.79546,2.79546,0,0,1,.63853.06789c1.58063.45229,6.67688,3.21716,15.65172,6.70083Z" fill="#f6a96c"/><line x1="105.2515" y1="216.4435" x2="105.2515" y2="477.65307" fill="none" stroke="#7f6332" stroke-miterlimit="10" stroke-width="10.91242"/><circle cx="105.2515" cy="213.56525" r="15.11695" fill="#7f6332"/><path d="M90.19023,212.31372s15.92587,4.02935,30.12254,0" fill="none" stroke="#5f4c24" stroke-miterlimit="10" stroke-width="0.83942"/><path d="M125.99164,247.8641l-3.41835,1.41468c-.0709-.00167-.16353-.00334-.282-.01241-2.95375-.18725-20.18149-2.47581-20.39438-5.11578-.16884-2.09975,2.49139-1.75441,5.09911-1.29064.80326.143,1.60037.29656,2.30815.39357a3.60975,3.60975,0,0,0,2.3133-.21015c.75145-.46775.60513-1.47482-.20013-2.76045-.46038-.73383,7.4597-3.93285,16.43454-.44918Z" fill="#f6a96c"/><path d="M272.8783,321.39619s.7554,5.73937.1109,6.38387-9.1662,7.37593-11.88741,7.51915-.5389-2.94308,1.57544-4.65471,2.97362-5.33632,2.97362-5.33632-2.58545-5.08274-2.34987-6.712S272.8783,321.39619,272.8783,321.39619Z" fill="#d88a55"/><path d="M249.79087,264.70279s15.39635,39.36348,13.3485,86.864c-1.75086,40.61167-6.88246,102.1324-6.88246,102.1324H224.83757v-7.41173l-3.867-119.219h-3.41772l-3.994,126.63077H182.41591s-4.72961-61.54005-6.88245-102.1324c-2.72431-51.36754,12.67484-86.864,12.67484-86.864Z" fill="#ca2e43"/><path d="M176.611,477.65307s.42966-3.75957,5.58565-5.80048a12.82682,12.82682,0,0,0,6.87464-5.80048l15.80863.66777.51866,8.3552h-.14919a.59676.59676,0,0,1,.59676.59676v1.38447a.59676.59676,0,0,1-.59676.59676Z" fill="#302e30"/><path d="M191.43441,453.69922s.6445,9.45264-2.36316,12.35289c0,0,10.41939.96674,11.49356,9.023h4.83373a41.29266,41.29266,0,0,0-.51866-8.3552c-.22792-1.71213-.3849-3.433-.45428-5.15881l-.316-7.86185Z" fill="#f6a96c"/><path d="M204.50012,462.94217l.00029-.00267c-.0306-.4591-.05639-.91856-.07489-1.37844l-.316-7.86184H191.43439S201.60651,457.20517,204.50012,462.94217Z" fill="#d88a55"/><path d="M198.19111,470.13561s6.31869-.7435,6.442-5.5618c0,0,.45311.19452.85154,1.2147a5.54064,5.54064,0,0,1,.36141,2.01731v9.84725h-7.655Z" fill="#302e30"/><path d="M261.076,477.65307s-.42966-3.75957-5.58565-5.80048a12.82682,12.82682,0,0,1-6.87464-5.80048l-15.80863.66777-.51866,8.3552h.14919a.59676.59676,0,0,0-.59676.59676v1.38447a.59676.59676,0,0,0,.59676.59676Z" fill="#302e30"/><path d="M246.25257,453.69922s-.6445,9.45264,2.36316,12.35289c0,0-10.41939.96674-11.49356,9.023h-4.83373a41.29266,41.29266,0,0,1,.51866-8.3552c.22792-1.71213.3849-3.433.45428-5.15881l.316-7.86185Z" fill="#f6a96c"/><path d="M233.18686,462.94217l-.00029-.00267c.0306-.4591.05639-.91856.07489-1.37844l.316-7.86184h12.67512S236.08047,457.20517,233.18686,462.94217Z" fill="#d88a55"/><path d="M239.49587,470.13561s-6.31869-.7435-6.442-5.5618c0,0-.45311.19452-.85154,1.2147a5.54064,5.54064,0,0,0-.36141,2.01731v9.84725h7.655Z" fill="#302e30"/><path d="M210.858,176.38988s.87809,8.46674-4.70756,11.68923c0,0-1.18158,9.88231,8.59331,13.21222s17.7237-4.83374,17.40145-12.89c0,0-5.65513-3.09729-4.76106-12.71994Z" fill="#f6a96c"/><path d="M210.89618,178.30309s7.58506,7.46484,18.63309,7.49256v-.00047c-1.33994-1.965-2.60353-5.18-2.145-10.11376l-16.52622.70845a15.56367,15.56367,0,0,1,.03817,1.91316Z" fill="#d88a55"/><line x1="251.41697" y1="247.17955" x2="251.41697" y2="226.7981" fill="none" stroke="#433f43" stroke-miterlimit="10" stroke-width="0.29838"/><line x1="186.96657" y1="247.17955" x2="186.96657" y2="226.7981" fill="none" stroke="#433f43" stroke-miterlimit="10" stroke-width="0.29838"/><path d="M273.56828,321.69457s.7554,5.73937.1109,6.38387-9.16619,7.37592-11.88741,7.51915-.53889-2.94309,1.57544-4.65471,2.97362-5.33632,2.97362-5.33632-2.58545-5.08274-2.34987-6.712S273.56828,321.69457,273.56828,321.69457Z" fill="#d88a55"/><path d="M271.5433,304.1707c.88021,9.58691,2.13639,15.24716,2.13639,16.89123a2.79615,2.79615,0,0,1-.1104.63256v.003a81.0964,81.0964,0,0,1-3.94159,9.53917c-1.80519,3.89086-3.74167,7.74592-4.71438,9.30047-.28644.4595-.48934.71909-.57886.71909-.75191,0-2.578.53708-1.71866-2.25574.22379-.72208.70418-2.23784,1.2711-4.11464.08354-.28645.17306-.57886.25959-.88022.76981-2.59291,1.62914-5.702,2.18413-8.35759a.11709.11709,0,0,0,.00895-.04178c.59079-2.81371.82949-5.11421.25064-5.75871-1.01449-1.12787-1.94245-1.5456-2.59888-.95182a3.60978,3.60978,0,0,0-.83845,2.16623c-.10144.70715-.17306,1.51576-.2566,2.32735-.27153,2.63469-.67135,5.28727-2.64364,4.54729-2.47953-.93094.05968-18.12352.69224-21.01481.02387-.11637.04774-.20589.06564-.27451L263.311,303.75Z" fill="#f6a96c"/><path d="M232.22148,158.05883a1.08713,1.08713,0,0,0-.43563.099c-1.51316-7.80749-6.70419-13.56188-12.87792-13.56188-6.19268,0-11.3977,5.78919-12.89294,13.63324a1.13528,1.13528,0,0,0-.573-.17039,4.31906,4.31906,0,0,0-3.36565,5.87209c.9827,3.09058,2.02091,5.87209,3.36565,5.87209a1.37892,1.37892,0,0,0,.993-.51411c1.89882,6.91077,6.76583,11.82863,12.47291,11.82863,5.67458,0,10.51741-4.86269,12.4391-11.71138a1.29532,1.29532,0,0,0,.87445.39686c1.34474,0,2.38309-2.78151,3.36579-5.87209A4.31912,4.31912,0,0,0,232.22148,158.05883Z" fill="#f6a96c"/><path d="M224.774,161.69308a1.34351,1.34351,0,0,0,0-2.68541,1.34351,1.34351,0,0,0,0,2.68541Z" fill="#433f43"/><path d="M213.38788,161.69308a1.34351,1.34351,0,0,0,0-2.68541,1.34351,1.34351,0,0,0,0,2.68541Z" fill="#433f43"/><path d="M219.42855,162.85676s-2.43328,4.225,0,4.29665a3.9195,3.9195,0,0,0,1.28046-.17469" fill="#d88a55"/><path d="M221.838,157.22339a2.64482,2.64482,0,0,1,1.11624-.89575,3.43462,3.43462,0,0,1,1.42429-.31079,3.15387,3.15387,0,0,1,2.54385,1.20654c-.48575-.06714-.901-.17554-1.32089-.22559a7.41,7.41,0,0,0-1.22015-.08642A12.34381,12.34381,0,0,0,221.838,157.22339Z" fill="#433f43"/><path d="M210.8457,157.22339a2.64456,2.64456,0,0,1,1.11621-.89575,3.43472,3.43472,0,0,1,1.42429-.31079,3.15386,3.15386,0,0,1,2.54385,1.20654c-.48574-.06714-.901-.17554-1.32089-.22559a7.41,7.41,0,0,0-1.22015-.08642A12.3433,12.3433,0,0,0,210.8457,157.22339Z" fill="#433f43"/><ellipse cx="233.41121" cy="163.88017" rx="2.84585" ry="1.08076" transform="translate(37.80287 371.42506) rotate(-81.76896)" fill="#d88a55"/><ellipse cx="204.47614" cy="163.88017" rx="1.08076" ry="2.84585" transform="translate(-21.35557 30.96199) rotate(-8.23104)" fill="#d88a55"/><path d="M206.24561,159.70892s-.0509,5.29352.3054,5.90431,1.32337,0,1.32337,0a57.09366,57.09366,0,0,1,0-5.90431c.2036-.15269,2.95216-2.08686,2.90126-4.021s-.5076-5.85341.0007-6.2097,8.29587-.3563,8.29587-.3563V142.0978S203.29346,141.58881,206.24561,159.70892Z" fill="#433f43"/><path d="M231.60042,159.70892s.0509,5.29352-.30539,5.90431-1.32338,0-1.32338,0a57.09086,57.09086,0,0,0,0-5.90431c-.2036-.15269-2.95215-2.08686-2.90125-4.021s.50759-5.85341-.0007-6.2097-8.29587-.3563-8.29587-.3563V142.0978S234.55258,141.58881,231.60042,159.70892Z" fill="#433f43"/><path d="M215.82265,172.30939s2.86443-3.72376,6.445,0Z" fill="#bb5d4c"/><path d="M215.82265,172.30939s3.43732,4.5831,6.445,0Z" fill="#a44f3e"/><path d="M206.10567,187.34049a32.7923,32.7923,0,0,1-10.03786,3.93289s-7.39559,2.48255-10.71238,4.6894-11.335,9.29526-16.733,42.27562l-41.43269-1.24957s-4.0292,6.75251-3.22336,14.408c0,0,35.08686,15.30212,46.39058,15.28963s11.85183-5.23582,11.85183-5.23582l-2.83786,34.40828h79.05736l2.17224,8.18642s7.16354,2.82274,13.07867-.8384c0,0,4.83647-77.77135-19.30306-106.59371a31.92065,31.92065,0,0,0-13.32958-4.76559s-6.11571-1.97865-8.63911-3.76853Z" fill="#ca2e43"/><path d="M205.88026,155.70325s14.67476-5.13725,26.08818,0c0,0,4.76523-7.40723,5.52071-11.10727,0,0-21.52978-8.31023-37.62268.98391C199.86647,145.57989,201.80179,151.92589,205.88026,155.70325Z" fill="#ca2e43"/><path d="M224.51288,148.80879a116.38393,116.38393,0,0,1-24.74764-2.82153l.20212-.81447c.19013.0471,19.2553,4.69071,36.44487,1.912l.13361.829A75.9802,75.9802,0,0,1,224.51288,148.80879Z" fill="#ac2538"/><path d="M206.0121,156.10137l-.26378-.79649c.11819-.0394,11.93532-3.9773,18.4434-7.23947l.37683.75024C218.00566,152.10523,206.132,156.062,206.0121,156.10137Z" fill="#ac2538"/><path d="M209.83874,146.20946a.62994.62994,0,0,0,0-1.25913.62994.62994,0,0,0,0,1.25913Z" fill="#ac2538"/><path d="M223.28621,146.20946a.62994.62994,0,0,0,0-1.25913.62994.62994,0,0,0,0,1.25913Z" fill="#ac2538"/><path d="M215.93006,150.44012a.62994.62994,0,0,0,0-1.25913.62994.62994,0,0,0,0,1.25913Z" fill="#ac2538"/><path d="M218.17289,142.72593a.62994.62994,0,0,0,0-1.25913.62994.62994,0,0,0,0,1.25913Z" fill="#ac2538"/><path d="M228.57453,152.70142a.62994.62994,0,0,0,0-1.25913.62994.62994,0,0,0,0,1.25913Z" fill="#ac2538"/><path d="M229.52927,144.38613a.62994.62994,0,0,0,0-1.25913.62994.62994,0,0,0,0,1.25913Z" fill="#ac2538"/><path d="M235.22272,146.77873a.62994.62994,0,0,0,0-1.25913.62994.62994,0,0,0,0,1.25913Z" fill="#ac2538"/><path d="M202.73727,149.02683a.62994.62994,0,0,0,0-1.25913.62994.62994,0,0,0,0,1.25913Z" fill="#ac2538"/><path d="M206.10567,152.70142a.62994.62994,0,0,0,0-1.25913.62994.62994,0,0,0,0,1.25913Z" fill="#ac2538"/><path d="M199.86647,190.267S197.03,215.909,212.4749,224.99011" fill="none" stroke="#7f6332" stroke-miterlimit="10" stroke-width="0.83942"/><path d="M258.42827,295.85892s-8.35078-61.33927-9.61365-64.7122c0,0,.78466.31,2.60235,4.625S259.51756,275.54319,258.42827,295.85892Z" fill="#ac2538"/><path d="M232.40743,188.07911S205.8,245.71755,182.20877,261.45064l-2.83786,34.40828s59.86-29.62765,75.00521-99.24569C254.37612,196.61323,246.96807,190.53813,232.40743,188.07911Z" fill="#ac2538"/><ellipse cx="223.28621" cy="233.87423" rx="13.14527" ry="10.01167" transform="translate(-90.89792 310.30864) rotate(-60)" fill="#7f6332"/><path d="M260.31879,306.22652c-.58527-3.63928-1.22513-7.10357-1.8916-10.36762H179.37093l0,.00032-1.75811,10.34107-.00385.02623Z" fill="#ac2538"/><path d="M310.33546,254.25819H386.924a14.73232,14.73232,0,0,1,14.73232,14.73232v27.689a0,0,0,0,1,0,0H295.60314a0,0,0,0,1,0,0v-27.689A14.73232,14.73232,0,0,1,310.33546,254.25819Z" fill="#ab695d"/><path d="M412.44015,367.74292s.85752,6.51525.1259,7.24687-10.40533,8.373-13.49441,8.53562-.61175-3.34094,1.78842-5.284,3.3756-6.05771,3.3756-6.05771-2.935-5.76985-2.66753-7.61942S412.44015,367.74292,412.44015,367.74292Z" fill="#d88a55"/><path d="M403.29883,283.108s5.36522,35.628,6.09684,53.43088,3.17038,28.0456,3.17038,30.48435-9.755,22.92423-10.60856,22.92423-2.9265.60969-1.951-2.56069,6.34075-19.70385,4.51169-21.74082-3.41425-2.037-3.902,1.37728-.36581,8.90143-3.29231,7.804.12194-19.02223,0-20.72936-1.99164-28.93981-12.88472-51.05113l.569-19.95659Z" fill="#f6a96c"/><path d="M299.10789,283.44671s-5.36523,35.628-6.09685,53.43087-3.17037,28.0456-3.17037,30.48435,9.755,22.92424,10.60855,22.92424,2.9265.60968,1.951-2.56069-6.34075-19.70386-4.51168-21.74083,3.41424-2.037,3.902,1.37728.36581,8.90143,3.29231,7.804-.12193-19.02224,0-20.72936,1.99165-28.93981,12.88472-51.05113l-.569-19.9566Z" fill="#f6a96c"/><path d="M301.93578,401.99216c-3.09259-58.31165,14.38828-98.60672,14.38828-98.60672h69.9076s17.4777,44.68482,15.153,98.60672" fill="#302e30"/><line x1="353.51531" y1="374.18198" x2="349.63557" y2="374.18198" fill="#302e30"/><path d="M371.08428,326.9923s11.503,91.30938,5.03142,119.59886" fill="none" stroke="#433f43" stroke-miterlimit="10" stroke-width="0.33872"/><path d="M329.08064,326.9923s-11.503,91.30938-5.03142,119.59886" fill="none" stroke="#433f43" stroke-miterlimit="10" stroke-width="0.33872"/><path d="M366.20058,216.76923a57.61407,57.61407,0,0,0,15.71925,5.48719c9.26724,1.82906,14.26667,7.1943,18.29061,17.43705s5.2704,28.08723,6.48978,43.73537l-18.62255.0645-.67066,13.1449s-.19414,6.7472-2.06384,6.7472h-67.502c-1.86971,0-2.48849-6.7472-2.48849-6.7472l-.67065-13.1449-18.62256-.0645c1.21938-15.64814,2.46585-33.49263,6.48978-43.73537s9.02337-15.608,18.29062-17.437a53.182,53.182,0,0,0,15.85186-5.853" fill="#efe2dd"/><path d="M342.03568,203.134s.99679,9.61132-5.344,13.26944c0,0-1.34131,11.21824,9.755,14.9983s20.11967-5.48718,19.75386-14.63249c0,0-6.41961-3.516-5.40468-14.43949Z" fill="#f6a96c"/><path d="M342.079,205.30583s8.61044,8.474,21.152,8.50544v-.00054c-1.52108-2.23061-2.95549-5.88021-2.435-11.481l-18.76032.80422a17.667,17.667,0,0,1,.04333,2.17179Z" fill="#d88a55"/><path d="M381.98468,303.38544h3.14618a2.31288,2.31288,0,0,0,2.27624-1.71136l.67049-15.37394v-19.3589S381.64382,288.108,381.98468,303.38544Z" fill="#fea613"/><path d="M314.91448,266.94124V291.6303l.43828,10.04378a2.31261,2.31261,0,0,0,2.27607,1.71136h3.37872C321.34841,288.108,314.91448,266.94124,314.91448,266.94124Z" fill="#fea613"/><line x1="388.07759" y1="283.49333" x2="388.07759" y2="260.35662" fill="none" stroke="#433f43" stroke-miterlimit="10" stroke-width="0.33872"/><line x1="314.91448" y1="283.49333" x2="314.91448" y2="260.35662" fill="none" stroke="#433f43" stroke-miterlimit="10" stroke-width="0.33872"/><path d="M341.89439,228.99414s-2.54771,221.0158-4.98646,224.91779-44.38521,3.41425-44.38521,0,12.11774-105.73984,12.255-106.58833-10.54672,3.18541-14.937-.22884c-4.18733-3.25638-1.01173-96.76711,18.153-119.33616a14.57171,14.57171,0,0,1,5.39127-3.95605,81.72761,81.72761,0,0,1,15.06871-4.49819s5.852-1.802,8.18728-3.73942C336.64089,215.56494,336.23165,225.10823,341.89439,228.99414Z" fill="#433f43"/><path d="M289.96656,368.08163s-.85752,6.51526-.12589,7.24688,10.40532,8.373,13.4944,8.53562.61175-3.34094-1.78841-5.284-3.37561-6.0577-3.37561-6.0577,2.935-5.76985,2.66754-7.61942S289.96656,368.08163,289.96656,368.08163Z" fill="#d88a55"/><path d="M301.61044,347.71122l2.61149,3.28893c.02033.0779.04742.17952.07452.31161.71808,3.28215,3.60054,22.79891.78582,23.8557-2.23891.84-2.69279-2.17116-3.001-5.162-.09484-.92131-.17613-1.83923-.29129-2.642a4.09777,4.09777,0,0,0-.95179-2.45907c-.74517-.674-1.79858-.19984-2.95021,1.0805-.65711.73162-.38613,3.34312.28452,6.5372a.13307.13307,0,0,0,.01016.04742c.63,3.01456,1.60551,6.544,2.4794,9.48741.09823.3421.19984.674.29468.99921.64356,2.13051,1.18889,3.85119,1.44293,4.67088.9755,3.17037-1.09744,2.56068-1.951,2.56068-.10162,0-.33194-.29468-.65711-.8163-1.10421-1.76471-3.30247-6.1409-5.3517-10.55775a92.05934,92.05934,0,0,1-4.47442-10.82872v-.00338a3.17432,3.17432,0,0,1-.12533-.71808c0-1.86632,1.426-8.29174,2.4252-19.17466Z" fill="#f6a96c"/><path d="M304.77771,347.3236s7.6833-82.53659,10.33467-90.58446c0,0-4.20655,8.41368-5.16733,13.16924s-7.885,77.71375-7.885,77.71375S305.0676,346.958,304.77771,347.3236Z" fill="#302e30"/><path d="M361.29558,228.99414s2.54771,221.0158,4.98646,224.91779,44.38521,3.41425,44.38521,0-12.11774-105.73984-12.255-106.58833,10.54672,3.18541,14.937-.22884-.17207-104.94944-21.91254-121.00354c0,0-2.83218-2.81343-15.13153-5.40983,0,0-7.47169-2.3405-9.807-4.278C366.49824,216.40342,366.95832,225.10823,361.29558,228.99414Z" fill="#433f43"/><path d="M413.22341,368.08163s.85752,6.51526.12589,7.24688-10.40532,8.373-13.4944,8.53562-.61175-3.34094,1.78841-5.284,3.37561-6.0577,3.37561-6.0577-2.935-5.76985-2.66754-7.61942S413.22341,368.08163,413.22341,368.08163Z" fill="#d88a55"/><path d="M410.92468,348.18881c.99921,10.88292,2.4252,17.30834,2.4252,19.17466a3.17432,3.17432,0,0,1-.12533.71808v.00338a92.05934,92.05934,0,0,1-4.47442,10.82872c-2.04923,4.41685-4.24749,8.793-5.3517,10.55775-.32517.52162-.55549.8163-.65711.8163-.85356,0-2.9265.60969-1.951-2.56068.254-.81969.79937-2.54037,1.44293-4.67088.09484-.32517.19645-.65711.29468-.99921.87389-2.94344,1.84939-6.47285,2.4794-9.48741a.13307.13307,0,0,0,.01016-.04742c.67065-3.19408.94163-5.80558.28452-6.5372-1.15163-1.28034-2.205-1.75454-2.95021-1.0805a4.09777,4.09777,0,0,0-.95179,2.45907c-.11516.80275-.19645,1.72067-.29129,2.642-.30823,2.99085-.76211,6.002-3.001,5.162-2.81472-1.05679.06774-20.57355.78582-23.8557.0271-.13209.05419-.23371.07452-.31161l2.61149-3.28893Z" fill="#f6a96c"/><path d="M398.41226,347.3236s-7.6833-82.53659-10.33467-90.58446c0,0,4.20655,8.41368,5.16733,13.16924s7.885,77.71375,7.885,77.71375S398.12237,346.958,398.41226,347.3236Z" fill="#302e30"/><path d="M366.20052,216.76924a8.69594,8.69594,0,0,1-2.0523-1.77455c0,.00025-2.60354,13.10521-12.72215,13.08917-10.11878-.01606-11.88017-14.27259-11.88017-14.27259l-.00016,0a9.15873,9.15873,0,0,1-2.85394,2.59211s-1.34147,11.21824,9.75492,14.99829S366.56636,225.91455,366.20052,216.76924Z" fill="#faf7f7"/><polygon points="346.151 230.398 341.53 278.796 348.521 279.772 351.319 244.491 354.004 279.772 360.39 277.983 357.734 231.063 346.151 230.398" fill="#faf7f7"/><path d="M366.28715,182.32485a1.23388,1.23388,0,0,0-.49451.11243c-1.71772-8.86295-7.6105-15.39525-14.61883-15.39525-7.02982,0-12.93848,6.57181-14.63586,15.47624a1.28894,1.28894,0,0,0-.65047-.19342,4.90294,4.90294,0,0,0-3.82064,6.66591c1.11555,3.50838,2.2941,6.66591,3.82064,6.66591a1.56531,1.56531,0,0,0,1.12728-.58361c2.15551,7.845,7.68047,13.42768,14.159,13.42768,6.44171,0,11.93921-5.52006,14.12068-13.29459a1.4704,1.4704,0,0,0,.99266.45052c1.52653,0,2.70526-3.15753,3.8208-6.66591A4.903,4.903,0,0,0,366.28715,182.32485Z" fill="#f6a96c"/><path d="M357.8329,186.45039a1.52513,1.52513,0,0,0,0-3.04843,1.52513,1.52513,0,0,0,0,3.04843Z" fill="#433f43"/><path d="M344.90754,186.45039a1.52513,1.52513,0,0,0,0-3.04843,1.52513,1.52513,0,0,0,0,3.04843Z" fill="#433f43"/><path d="M351.76482,187.77139s-2.76222,4.7962,0,4.87749a4.4493,4.4493,0,0,0,1.45355-.1983" fill="#d88a55"/><path d="M354.49994,181.37646a3.00283,3.00283,0,0,1,1.26715-1.01684,3.89827,3.89827,0,0,1,1.61682-.35278,3.76171,3.76171,0,0,1,1.62055.35546,3.1914,3.1914,0,0,1,1.26721,1.01416c-.55146-.07617-1.02283-.19946-1.49945-.2561a8.40928,8.40928,0,0,0-1.38514-.0979A14.01718,14.01718,0,0,0,354.49994,181.37646Z" fill="#433f43"/><path d="M342.02167,181.37646a3.00283,3.00283,0,0,1,1.26715-1.01684,3.89827,3.89827,0,0,1,1.61682-.35278,3.762,3.762,0,0,1,1.62061.35546,3.1917,3.1917,0,0,1,1.26715,1.01416c-.55146-.07617-1.02277-.19946-1.49945-.2561a8.40836,8.40836,0,0,0-1.38514-.0979A14.01758,14.01758,0,0,0,342.02167,181.37646Z" fill="#433f43"/><ellipse cx="367.63772" cy="188.93315" rx="3.23057" ry="1.22686" transform="translate(128.01793 525.73514) rotate(-81.76896)" fill="#d88a55"/><ellipse cx="334.79107" cy="188.93315" rx="1.22686" ry="3.23057" transform="translate(-23.59988 49.87661) rotate(-8.23104)" fill="#d88a55"/><path d="M355.91813,194.7996s-.44969-.04389-.69165-.04389H346.9483a2.29764,2.29764,0,0,0-.44423.04389h0c-3.1733.04389-9.48931-5.28452-9.48931-5.28452v5.558c1.58127,8.10746,5.52132,11.12161,7.64424,12.18289a9.4836,9.4836,0,0,0,1.01648.42592,3.97639,3.97639,0,0,0,.392.1118v-.00027a18.82047,18.82047,0,0,0,10.28714-.0044l.00017.00467s6.83913-1.37059,9.05285-12.72061v-5.558S359.0916,194.84349,355.91813,194.7996Z" fill="#d8cdca"/><path d="M336.79975,184.198s-.05778,6.00912.34668,6.70248,1.50228,0,1.50228,0-.23112-6.52914,0-6.70248,3.35123-2.369,3.29345-4.56461-.57621-6.6447.0008-7.04916,9.41734-.40446,9.41734-.40446v-7.97364S333.44851,163.62834,336.79975,184.198Z" fill="#d8cdca"/><path d="M365.58214,184.198s.05778,6.00912-.34668,6.70248-1.50228,0-1.50228,0,.23112-6.52914,0-6.70248-3.35124-2.369-3.29346-4.56461.57622-6.6447-.00079-7.04916-9.41734-.40446-9.41734-.40446v-7.97364S368.93338,163.62834,365.58214,184.198Z" fill="#d8cdca"/><path d="M347.67145,198.50188s3.25167-4.22717,7.31625,0Z" fill="#bb5d4c"/><path d="M347.67145,198.50188s3.902,5.20266,7.31625,0Z" fill="#a44f3e"/><circle cx="344.90754" cy="184.94315" r="3.99" fill="none" stroke="#433f43" stroke-miterlimit="10" stroke-width="1.06854"/><circle cx="357.3858" cy="184.94315" r="3.99" fill="none" stroke="#433f43" stroke-miterlimit="10" stroke-width="1.06854"/><path d="M348.72639,183.78686s2.90242-1.68022,4.84081,0" fill="none" stroke="#433f43" stroke-miterlimit="10" stroke-width="1.06854"/><line x1="361.25917" y1="183.99836" x2="365.79264" y2="182.43728" fill="none" stroke="#433f43" stroke-linecap="round" stroke-miterlimit="10" stroke-width="1.069"/><line x1="341.03299" y1="183.99836" x2="336.53795" y2="182.51827" fill="none" stroke="#433f43" stroke-linecap="round" stroke-miterlimit="10" stroke-width="1.069"/><circle cx="149.31451" cy="290.02193" r="17.18062" fill="#ab695d"/><circle cx="547.94496" cy="290.02193" r="17.18062" fill="#ab695d"/><rect x="141.22417" y="311.82992" width="414.81114" height="162.10989" fill="#c38f86"/><circle cx="163.03664" cy="330.768" r="18.93807" fill="#ab695d"/><path d="M181.97471,385.30964a18.93066,18.93066,0,0,0-9.8478-16.6139V334.55561H153.94636v34.14013a18.96348,18.96348,0,0,0-9.44183,20.53173c5.398,25.6464,9.44182,51.559,9.44183,77.7673v6.945h18.18055v-6.94507c0-26.20831,4.04384-52.12088,9.44183-77.76727A19.006,19.006,0,0,0,181.97471,385.30964Z" fill="#ab695d"/><circle cx="216.06324" cy="330.768" r="18.93807" fill="#ab695d"/><path d="M235.00131,385.30964a18.93066,18.93066,0,0,0-9.8478-16.6139V334.55561H206.973v34.14013a18.96348,18.96348,0,0,0-9.44183,20.53173c5.398,25.6464,9.44182,51.559,9.44183,77.7673v6.945h18.18055v-6.94507c0-26.20831,4.04384-52.12088,9.44183-77.76727A19.006,19.006,0,0,0,235.00131,385.30964Z" fill="#ab695d"/><circle cx="269.08984" cy="330.768" r="18.93807" fill="#ab695d"/><path d="M288.02791,385.30964a18.93066,18.93066,0,0,0-9.8478-16.6139V334.55561H259.99956v34.14013a18.96348,18.96348,0,0,0-9.44183,20.53173c5.398,25.6464,9.44182,51.559,9.44183,77.7673v6.945h18.18055v-6.94507c0-26.20831,4.04384-52.12088,9.44183-77.76727A19.006,19.006,0,0,0,288.02791,385.30964Z" fill="#ab695d"/><circle cx="322.11644" cy="330.768" r="18.93807" fill="#ab695d"/><path d="M341.05451,385.30964a18.93066,18.93066,0,0,0-9.8478-16.6139V334.55561H313.02616v34.14013a18.96356,18.96356,0,0,0-9.44183,20.53173c5.398,25.6464,9.44182,51.559,9.44183,77.7673v6.945h18.18055v-6.94507c0-26.20831,4.04384-52.12088,9.44183-77.76727A19.006,19.006,0,0,0,341.05451,385.30964Z" fill="#ab695d"/><circle cx="375.14304" cy="330.768" r="18.93807" fill="#ab695d"/><path d="M394.08111,385.30964a18.93066,18.93066,0,0,0-9.8478-16.6139V334.55561H366.05276v34.14013a18.96356,18.96356,0,0,0-9.44183,20.53173c5.398,25.6464,9.44182,51.559,9.44183,77.7673v6.945h18.18055v-6.94507c0-26.20831,4.04384-52.12088,9.44183-77.76727A19.006,19.006,0,0,0,394.08111,385.30964Z" fill="#ab695d"/><circle cx="428.16964" cy="330.768" r="18.93807" fill="#ab695d"/><path d="M447.10771,385.30964a18.93064,18.93064,0,0,0-9.8478-16.6139V334.55561H419.07936v34.14013a18.96356,18.96356,0,0,0-9.44183,20.53173c5.398,25.6464,9.44182,51.559,9.44183,77.7673v6.945h18.18055v-6.94507c0-26.20831,4.04384-52.12088,9.44183-77.76727A19.006,19.006,0,0,0,447.10771,385.30964Z" fill="#ab695d"/><circle cx="481.19624" cy="330.768" r="18.93807" fill="#ab695d"/><path d="M500.13431,385.30964a18.93064,18.93064,0,0,0-9.8478-16.6139V334.55561H472.106v34.14013a18.96356,18.96356,0,0,0-9.44183,20.53173c5.398,25.6464,9.44182,51.559,9.44183,77.7673v6.945h18.18055v-6.94507c0-26.20831,4.04384-52.12088,9.44183-77.76727A19.006,19.006,0,0,0,500.13431,385.30964Z" fill="#ab695d"/><circle cx="534.22284" cy="330.768" r="18.93807" fill="#ab695d"/><path d="M553.16091,385.30964a18.93064,18.93064,0,0,0-9.8478-16.6139V334.55561H525.13256v34.14013a18.96349,18.96349,0,0,0-9.44182,20.53173c5.398,25.6464,9.44181,51.559,9.44182,77.7673v6.945h18.18055v-6.94507c0-26.20831,4.04384-52.12088,9.44183-77.76727A19.006,19.006,0,0,0,553.16091,385.30964Z" fill="#ab695d"/><rect x="141.22399" y="314.85965" width="414.81114" height="18.93807" fill="#ab695d"/><rect x="141.22399" y="445.15358" width="414.81114" height="25.75578" fill="#ab695d"/><rect x="132.13389" y="296.67947" width="432.99169" height="25.75578" rx="2" fill="#c38f86"/><rect x="132.13389" y="454.24422" width="432.99169" height="25.75578" rx="2" fill="#c38f86"/><path d="M459.24325,268.7759l-27.92411,22.3685A2.99113,2.99113,0,0,0,435.061,295.812l27.921-22.37" fill="#ab695d"/><path d="M469.76041,281.90518a2.18131,2.18131,0,0,1,.33805-3.0602l11.4021-9.12972a2.17708,2.17708,0,0,1,2.72219,3.39829l-11.40214,9.12967a2.17339,2.17339,0,0,1-3.0602-.338Zm0,0" fill="#c38f86"/><path d="M469.6539,279.20105l-2.38765-2.98554,12.28693-9.84237,2.39194,2.98605Zm12.29122-9.84186" fill="#ab695d"/><path d="M452.2777,260.07906a2.17329,2.17329,0,0,0,3.06017.338l11.401-9.12979a2.17705,2.17705,0,0,0-2.72215-3.39825l-11.401,9.1298a2.17927,2.17927,0,0,0-.33805,3.0602Zm0,0" fill="#c38f86"/><path d="M467.18348,250.9312l2.392,2.98609-12.29012,9.842-2.39306-2.98614Zm-12.29122,9.84193" fill="#ab695d"/><path d="M457.136,266.149a1.77771,1.77771,0,0,1,.27559-2.49482l12.03359-9.6355a1.77375,1.77375,0,0,1,2.49156.27523l7.75757,9.68427a1.7744,1.7744,0,0,1-.27511,2.49047l-12.03359,9.63553a1.77364,1.77364,0,0,1-2.49153-.27523l-7.75808-9.68Zm0,0" fill="#c38f86"/><path d="M455.28492,295.70568a5.44444,5.44444,0,0,1,5.44842-5.44846h28.12929a5.44913,5.44913,0,0,1,5.44842,5.44846v.8014H455.28492Zm0,.8014" fill="#ab695d"/><path d="M460.37554,284.2343a1.56046,1.56046,0,0,1,1.562-1.562h25.71928a1.56171,1.56171,0,0,1,1.56352,1.562v6.02292H460.37554Zm0,6.02292" fill="#c38f86"/><path d="M258.91276,271.71869v-3.078H241.44082v3.06354a8.73618,8.73618,0,0,0,2.4474,6.06395l3.88848,4.03252-3.9057,4.07358a8.73608,8.73608,0,0,0-2.43018,6.046v3.078h17.47194v-3.06354a8.73576,8.73576,0,0,0-2.44747-6.064l-3.88848-4.03252,3.90577-4.07366A8.736,8.736,0,0,0,258.91276,271.71869Z" fill="#c38f86"/><path d="M243.28786,294.99833l5.748-8.52648a1.248,1.248,0,0,1,2.0577-.0174l5.97222,8.54388Z" fill="#ab695d"/><path d="M257.06573,272.7426l-5.748,8.52649a1.248,1.248,0,0,1-2.05769.01739l-5.97222-8.54388Z" fill="#ab695d"/><path d="M261.234,270.5125H239.06953a1.87186,1.87186,0,0,1,0-3.74372H261.234a1.87186,1.87186,0,1,1,0,3.74372Z" fill="#ab695d"/><path d="M261.234,296.87007H239.06953a1.87186,1.87186,0,1,1,0-3.74372H261.234a1.87186,1.87186,0,1,1,0,3.74372Z" fill="#ab695d"/></svg>