<svg id="Layer_1" data-name="Layer 1" xmlns="http://www.w3.org/2000/svg" viewBox="0 0 700 550"><title>judge arriving</title><circle cx="379.99021" cy="148.20727" r="30.13552" fill="#edb0a9"/><polyline points="389.745 158.406 379.99 148.207 379.99 129.076" fill="none" stroke="#bf736a" stroke-linecap="round" stroke-linejoin="round" stroke-width="3"/><path d="M125.18126,224.4129s-5.3101-2.30519-6.107-1.86287-9.613,6.78335-10.49931,9.36016,2.68127,1.32776,4.90852-.23411,5.94847-1.39082,5.94847-1.39082,4.17534,3.884,5.8066,4.10572S125.18126,224.4129,125.18126,224.4129Z" fill="#d88a55"/><path d="M139.61159,239.211l-3.41834,1.41468c-.07091-.00167-.16353-.00335-.282-.01241-2.95375-.18726-20.18149-2.47582-20.39438-5.11578-.16883-2.09975,2.49139-1.75441,5.09912-1.29064.80325.14295,1.60036.29656,2.30814.39357a3.60982,3.60982,0,0,0,2.3133-.21015c.75146-.46775.60513-1.47483-.20013-2.76045-.46038-.73383-2.73778-1.13722-5.60545-1.34329a.11708.11708,0,0,0-.04263-.00289c-2.70578-.197-5.93133-.22616-8.636-.19937-.31354.00029-.61929.0059-.91767.00742-1.96034.02873-3.54978.07358-4.30556.09008-2.92147.05785-1.90274-1.55-1.69589-2.27291.02463-.08606.33-.20971.8506-.35869,1.76216-.50752,6.0012-1.30872,10.23855-1.97386a81.09644,81.09644,0,0,1,10.25544-1.16521l.00287.00082a2.79615,2.79615,0,0,1,.63853.06788c1.58063.4523,6.67688,3.21717,15.65172,6.70084Z" fill="#f6a96c"/><line x1="118.87145" y1="207.79042" x2="118.87145" y2="478" fill="none" stroke="#7f6332" stroke-miterlimit="10" stroke-width="10.91242"/><circle cx="118.87145" cy="204.91217" r="15.11695" fill="#7f6332"/><path d="M103.81019,203.66064s15.92586,4.02936,30.12253,0" fill="none" stroke="#5f4c24" stroke-miterlimit="10" stroke-width="0.83942"/><path d="M139.61159,239.211l-3.41834,1.41468c-.07091-.00167-.16353-.00335-.282-.01241-2.95375-.18726-20.18149-2.47582-20.39438-5.11578-.16883-2.09975,2.49139-1.75441,5.09912-1.29064.80325.14295,1.60036.29656,2.30814.39357a3.60982,3.60982,0,0,0,2.3133-.21015c.75146-.46775.60513-1.47483-.20013-2.76045-.46038-.73383,7.4597-3.93285,16.43454-.44918Z" fill="#f6a96c"/><path d="M286.49825,312.74312s.7554,5.73937.1109,6.38387-9.16619,7.37592-11.88741,7.51915-.53889-2.94309,1.57544-4.65471,2.97362-5.33632,2.97362-5.33632-2.58545-5.08274-2.34987-6.71206S286.49825,312.74312,286.49825,312.74312Z" fill="#d88a55"/><path d="M263.41083,256.04971s15.39634,39.36349,13.34849,86.864c-1.75086,40.61167-6.88245,111.1324-6.88245,111.1324H238.45752v-7.41173l-3.867-128.219h-3.41771l-3.994,135.63077H196.03586s-4.72961-70.54006-6.88245-111.1324c-2.72431-51.36754,12.67484-86.864,12.67484-86.864Z" fill="#ca2e43"/><path d="M190.23091,478s.42966-3.75957,5.58565-5.80048a12.82687,12.82687,0,0,0,6.87465-5.80049l15.80862.66778.51866,8.3552h-.14919a.59675.59675,0,0,1,.59676.59675v1.38448A.59676.59676,0,0,1,218.8693,478Z" fill="#302e30"/><path d="M205.05437,454.04615s.64449,9.45264-2.36316,12.35288c0,0,10.41938.96675,11.49355,9.023h4.83373a41.29266,41.29266,0,0,0-.51866-8.3552c-.22791-1.71214-.3849-3.433-.45428-5.15882l-.316-7.86184Z" fill="#f6a96c"/><path d="M218.12007,463.2891l.00029-.00268c-.0306-.45909-.05639-.91855-.07489-1.37843l-.316-7.86184H205.05434S215.22646,457.5521,218.12007,463.2891Z" fill="#d88a55"/><path d="M211.81106,470.48254s6.31869-.7435,6.442-5.5618c0,0,.45311.19452.85154,1.21469a5.54072,5.54072,0,0,1,.36141,2.01731V478h-7.655Z" fill="#302e30"/><path d="M274.696,478s-.42966-3.75957-5.58565-5.80048a12.82682,12.82682,0,0,1-6.87464-5.80049l-15.80863.66778-.51866,8.3552h.14919a.59675.59675,0,0,0-.59676.59675v1.38448a.59676.59676,0,0,0,.59676.59676Z" fill="#302e30"/><path d="M259.87252,454.04615s-.6445,9.45264,2.36316,12.35288c0,0-10.41939.96675-11.49355,9.023h-4.83374a41.29266,41.29266,0,0,1,.51866-8.3552c.22792-1.71214.3849-3.433.45428-5.15882l.31606-7.86184Z" fill="#f6a96c"/><path d="M246.80682,463.2891l-.0003-.00268c.0306-.45909.05639-.91855.07489-1.37843l.316-7.86184h12.67512S249.70042,457.5521,246.80682,463.2891Z" fill="#d88a55"/><path d="M253.11582,470.48254s-6.31869-.7435-6.44205-5.5618c0,0-.4531.19452-.85154,1.21469a5.54072,5.54072,0,0,0-.36141,2.01731V478h7.655Z" fill="#302e30"/><path d="M224.478,167.7368s.87809,8.46675-4.70756,11.68924c0,0-1.18158,9.88231,8.59331,13.21221s17.7237-4.83373,17.40145-12.89c0,0-5.65513-3.09729-4.76106-12.72Z" fill="#f6a96c"/><path d="M224.51613,169.65s7.58506,7.46484,18.63309,7.49256v-.00048c-1.33994-1.965-2.60353-5.18-2.145-10.11375l-16.52622.70845a15.56367,15.56367,0,0,1,.03817,1.91316Z" fill="#d88a55"/><line x1="265.03693" y1="238.52648" x2="265.03693" y2="218.14503" fill="none" stroke="#433f43" stroke-miterlimit="10" stroke-width="0.29838"/><line x1="200.58653" y1="238.52648" x2="200.58653" y2="218.14503" fill="none" stroke="#433f43" stroke-miterlimit="10" stroke-width="0.29838"/><path d="M287.18823,313.04149s.7554,5.73938.1109,6.38388-9.16619,7.37592-11.88741,7.51914-.53889-2.94308,1.57544-4.65471,2.97362-5.33631,2.97362-5.33631-2.58545-5.08274-2.34987-6.71206S287.18823,313.04149,287.18823,313.04149Z" fill="#d88a55"/><path d="M285.16325,295.51763c.88021,9.58691,2.13639,15.24716,2.13639,16.89122a2.79612,2.79612,0,0,1-.1104.63257v.003a81.09839,81.09839,0,0,1-3.94158,9.53917c-1.8052,3.89086-3.74167,7.74591-4.71439,9.30047-.28644.4595-.48934.71909-.57885.71909-.75192,0-2.578.53708-1.71867-2.25574.22379-.72208.70418-2.23784,1.2711-4.11465.08354-.28644.17306-.57885.25959-.88021.76981-2.59292,1.62915-5.702,2.18413-8.35759a.11709.11709,0,0,0,.00895-.04178c.59079-2.81371.82949-5.11421.25064-5.75871-1.01449-1.12787-1.94245-1.5456-2.59888-.95183a3.60984,3.60984,0,0,0-.83844,2.16623c-.10145.70716-.17306,1.51577-.25661,2.32736-.27152,2.63468-.67135,5.28727-2.64364,4.54729-2.47952-.93094.05968-18.12353.69224-21.01482.02387-.11636.04774-.20588.06565-.27451l2.3005-2.89725Z" fill="#f6a96c"/><path d="M245.84143,149.40576a1.08705,1.08705,0,0,0-.43562.099c-1.51317-7.80749-6.7042-13.56188-12.87793-13.56188-6.19267,0-11.39769,5.78919-12.89294,13.63324a1.13528,1.13528,0,0,0-.573-.17039,4.31906,4.31906,0,0,0-3.36565,5.87209c.9827,3.09058,2.02091,5.87209,3.36565,5.87209a1.37889,1.37889,0,0,0,.993-.51411c1.89882,6.91077,6.76583,11.82863,12.47291,11.82863,5.67458,0,10.51741-4.8627,12.4391-11.71138a1.29532,1.29532,0,0,0,.87445.39686c1.34474,0,2.38309-2.78151,3.36579-5.87209A4.31912,4.31912,0,0,0,245.84143,149.40576Z" fill="#f6a96c"/><path d="M238.394,153.04a1.3435,1.3435,0,0,0,0-2.6854,1.3435,1.3435,0,0,0,0,2.6854Z" fill="#433f43"/><path d="M227.00783,153.04a1.3435,1.3435,0,0,0,0-2.6854,1.3435,1.3435,0,0,0,0,2.6854Z" fill="#433f43"/><path d="M233.04851,154.20368s-2.43329,4.22505,0,4.29666a3.91944,3.91944,0,0,0,1.28045-.17469" fill="#d88a55"/><path d="M235.45792,148.57031a2.6435,2.6435,0,0,1,1.11621-.89563,3.4352,3.4352,0,0,1,1.42431-.31091,3.15362,3.15362,0,0,1,2.54386,1.20654c-.48578-.06714-.901-.17566-1.32089-.22558a7.4101,7.4101,0,0,0-1.22019-.08631A12.34377,12.34377,0,0,0,235.45792,148.57031Z" fill="#433f43"/><path d="M224.46564,148.57031a2.64368,2.64368,0,0,1,1.11621-.89563,3.43527,3.43527,0,0,1,1.42431-.31091,3.15356,3.15356,0,0,1,2.54386,1.20654c-.48578-.06714-.901-.17566-1.32089-.22558a7.41,7.41,0,0,0-1.22016-.08631A12.3438,12.3438,0,0,0,224.46564,148.57031Z" fill="#433f43"/><ellipse cx="247.03116" cy="155.2271" rx="2.84585" ry="1.08076" transform="translate(58.03685 377.49045) rotate(-81.76896)" fill="#d88a55"/><ellipse cx="218.09609" cy="155.2271" rx="1.08076" ry="2.84585" transform="translate(-19.97645 32.82276) rotate(-8.23104)" fill="#d88a55"/><path d="M219.86556,151.05585s-.0509,5.29352.3054,5.90431,1.32338,0,1.32338,0a57.09086,57.09086,0,0,1,0-5.90431c.20359-.1527,2.95215-2.08687,2.90125-4.021s-.5076-5.85341.0007-6.20971,8.29587-.35629,8.29587-.35629v-7.02409S216.91341,132.93574,219.86556,151.05585Z" fill="#433f43"/><path d="M245.22037,151.05585s.0509,5.29352-.30539,5.90431-1.32338,0-1.32338,0a57.09086,57.09086,0,0,0,0-5.90431c-.2036-.1527-2.95215-2.08687-2.90125-4.021s.50759-5.85341-.0007-6.20971-8.29587-.35629-8.29587-.35629v-7.02409S248.17253,132.93574,245.22037,151.05585Z" fill="#433f43"/><path d="M229.4426,163.65632s2.86444-3.72377,6.445,0Z" fill="#bb5d4c"/><path d="M229.4426,163.65632s3.43732,4.5831,6.445,0Z" fill="#a44f3e"/><path d="M219.72562,178.68742a32.79219,32.79219,0,0,1-10.03785,3.93289s-7.3956,2.48255-10.71239,4.6894-11.335,9.29526-16.733,42.27562l-41.43269-1.24958s-4.0292,6.75252-3.22336,14.408c0,0,35.08686,15.30212,46.39058,15.28963s11.85183-5.23582,11.85183-5.23582l-2.83786,34.40827h79.05736l2.17225,8.18642s7.16353,2.82275,13.07866-.83839c0,0,4.83647-77.77135-19.30306-106.59371a31.92074,31.92074,0,0,0-13.32958-4.7656s-6.11571-1.97864-8.63911-3.76852Z" fill="#ca2e43"/><path d="M219.50022,147.05018s14.67475-5.13725,26.08817,0c0,0,4.76523-7.40724,5.52071-11.10727,0,0-21.52978-8.31023-37.62268.98391C213.48642,136.92682,215.42174,143.27282,219.50022,147.05018Z" fill="#ca2e43"/><path d="M238.13283,140.15572a116.38469,116.38469,0,0,1-24.74764-2.82153l.20212-.81448c.19013.04711,19.2553,4.69072,36.44487,1.912l.13361.829A75.979,75.979,0,0,1,238.13283,140.15572Z" fill="#ac2538"/><path d="M219.63205,147.44829l-.26378-.79648c.11819-.0394,11.93532-3.9773,18.4434-7.23948l.37683.75024C231.62561,143.45215,219.752,147.4089,219.63205,147.44829Z" fill="#ac2538"/><path d="M223.45869,137.55638a.62994.62994,0,0,0,0-1.25912.62994.62994,0,0,0,0,1.25912Z" fill="#ac2538"/><path d="M236.90616,137.55638a.62994.62994,0,0,0,0-1.25912.62994.62994,0,0,0,0,1.25912Z" fill="#ac2538"/><path d="M229.55,141.78705a.62994.62994,0,0,0,0-1.25913.62994.62994,0,0,0,0,1.25913Z" fill="#ac2538"/><path d="M231.79284,134.07285a.62994.62994,0,0,0,0-1.25912.62994.62994,0,0,0,0,1.25912Z" fill="#ac2538"/><path d="M242.19449,144.04835a.62994.62994,0,0,0,0-1.25913.62994.62994,0,0,0,0,1.25913Z" fill="#ac2538"/><path d="M243.14922,135.73305a.62994.62994,0,0,0,0-1.25912.62994.62994,0,0,0,0,1.25912Z" fill="#ac2538"/><path d="M248.84267,138.12565a.62994.62994,0,0,0,0-1.25912.62994.62994,0,0,0,0,1.25912Z" fill="#ac2538"/><path d="M216.35722,140.37376a.62994.62994,0,0,0,0-1.25913.62994.62994,0,0,0,0,1.25913Z" fill="#ac2538"/><path d="M219.72562,144.04835a.62994.62994,0,0,0,0-1.25913.62994.62994,0,0,0,0,1.25913Z" fill="#ac2538"/><path d="M213.48642,181.614S210.65,207.2559,226.09485,216.337" fill="none" stroke="#7f6332" stroke-miterlimit="10" stroke-width="0.83942"/><path d="M272.04822,287.20584s-8.35078-61.33926-9.61365-64.7122c0,0,.78467.31,2.60236,4.625S273.13751,266.89012,272.04822,287.20584Z" fill="#ac2538"/><path d="M246.02738,179.426S219.42,237.06448,195.82872,252.79757l-2.83786,34.40827s59.86-29.62764,75.00521-99.24568C267.99607,187.96016,260.588,181.88506,246.02738,179.426Z" fill="#ac2538"/><ellipse cx="236.90616" cy="225.22116" rx="13.14527" ry="10.01167" transform="translate(-76.59417 317.77733) rotate(-60)" fill="#7f6332"/><path d="M273.93874,297.57344c-.58526-3.63927-1.22513-7.10356-1.8916-10.36761H192.99089l-.00006.00032-1.7581,10.34106-.00386.02623Z" fill="#ac2538"/><path d="M632.49292,224.4129s5.3101-2.30519,6.107-1.86287,9.613,6.78335,10.49931,9.36016-2.68126,1.32776-4.90851-.23411-5.94847-1.39082-5.94847-1.39082-4.17535,3.884-5.8066,4.10572S632.49292,224.4129,632.49292,224.4129Z" fill="#d88a55"/><path d="M618.06259,239.211l3.41834,1.41468c.07091-.00167.16353-.00335.282-.01241,2.95374-.18726,20.18149-2.47582,20.39437-5.11578.16884-2.09975-2.49139-1.75441-5.09911-1.29064-.80326.14295-1.60036.29656-2.30814.39357a3.60985,3.60985,0,0,1-2.31331-.21015c-.75145-.46775-.60512-1.47483.20014-2.76045.46038-.73383,2.73778-1.13722,5.60545-1.34329a.11708.11708,0,0,1,.04263-.00289c2.70578-.197,5.93132-.22616,8.636-.19937.31354.00029.61929.0059.91766.00742,1.96035.02873,3.54979.07358,4.30557.09008,2.92146.05785,1.90274-1.55,1.69588-2.27291-.02462-.08606-.33-.20971-.85059-.35869-1.76217-.50752-6.00121-1.30872-10.23855-1.97386a81.09635,81.09635,0,0,0-10.25545-1.16521l-.00286.00082a2.79608,2.79608,0,0,0-.63853.06788c-1.58063.4523-6.67689,3.21717-15.65172,6.70084Z" fill="#f6a96c"/><line x1="638.80272" y1="207.79042" x2="638.80272" y2="478" fill="none" stroke="#7f6332" stroke-miterlimit="10" stroke-width="10.91242"/><circle cx="638.80272" cy="204.91217" r="15.11695" fill="#7f6332"/><path d="M653.864,203.66064s-15.92586,4.02936-30.12253,0" fill="none" stroke="#5f4c24" stroke-miterlimit="10" stroke-width="0.83942"/><path d="M618.06259,239.211l3.41834,1.41468c.07091-.00167.16353-.00335.282-.01241,2.95374-.18726,20.18149-2.47582,20.39437-5.11578.16884-2.09975-2.49139-1.75441-5.09911-1.29064-.80326.14295-1.60036.29656-2.30814.39357a3.60985,3.60985,0,0,1-2.31331-.21015c-.75145-.46775-.60512-1.47483.20014-2.76045.46038-.73383-7.45971-3.93285-16.43454-.44918Z" fill="#f6a96c"/><path d="M471.17593,312.74312s-.7554,5.73937-.11091,6.38387,9.1662,7.37592,11.88742,7.51915.53889-2.94309-1.57544-4.65471-2.97362-5.33632-2.97362-5.33632,2.58545-5.08274,2.34987-6.71206S471.17593,312.74312,471.17593,312.74312Z" fill="#d88a55"/><path d="M494.26335,256.04971s-15.39634,39.36349-13.34849,86.864c1.75086,40.61167,6.88245,111.1324,6.88245,111.1324h31.41935v-7.41173l3.867-128.219h3.41771l3.994,135.63077h31.14294s4.72961-70.54006,6.88245-111.1324c2.72431-51.36754-12.67484-86.864-12.67484-86.864Z" fill="#ca2e43"/><path d="M567.44327,478s-.42967-3.75957-5.58565-5.80048A12.82682,12.82682,0,0,1,554.983,466.399l-15.80862.66778-.51867,8.3552h.14919a.59674.59674,0,0,0-.59675.59675v1.38448a.59675.59675,0,0,0,.59675.59676Z" fill="#302e30"/><path d="M552.61981,454.04615s-.6445,9.45264,2.36316,12.35288c0,0-10.41939.96675-11.49355,9.023h-4.83374a41.29336,41.29336,0,0,1,.51867-8.3552c.22791-1.71214.3849-3.433.45428-5.15882l.316-7.86184Z" fill="#f6a96c"/><path d="M539.55411,463.2891l-.00029-.00268c.03059-.45909.05638-.91855.07488-1.37843l.316-7.86184h12.67513S542.44771,457.5521,539.55411,463.2891Z" fill="#d88a55"/><path d="M545.86312,470.48254s-6.3187-.7435-6.442-5.5618c0,0-.45311.19452-.85155,1.21469a5.54092,5.54092,0,0,0-.3614,2.01731V478h7.655Z" fill="#302e30"/><path d="M482.9782,478s.42967-3.75957,5.58565-5.80048a12.82682,12.82682,0,0,0,6.87465-5.80049l15.80862.66778.51867,8.3552h-.14919a.59675.59675,0,0,1,.59676.59675v1.38448A.59676.59676,0,0,1,511.6166,478Z" fill="#302e30"/><path d="M497.80166,454.04615s.6445,9.45264-2.36316,12.35288c0,0,10.41939.96675,11.49355,9.023h4.83374a41.29336,41.29336,0,0,0-.51867-8.3552c-.22791-1.71214-.38489-3.433-.45428-5.15882l-.31605-7.86184Z" fill="#f6a96c"/><path d="M510.86736,463.2891l.00029-.00268c-.03059-.45909-.05638-.91855-.07488-1.37843l-.316-7.86184H497.80163S507.97376,457.5521,510.86736,463.2891Z" fill="#d88a55"/><path d="M504.55835,470.48254s6.3187-.7435,6.442-5.5618c0,0,.45311.19452.85155,1.21469a5.54072,5.54072,0,0,1,.36141,2.01731V478h-7.655Z" fill="#302e30"/><path d="M533.19621,167.7368s-.87809,8.46675,4.70756,11.68924c0,0,1.18158,9.88231-8.59331,13.21221s-17.7237-4.83373-17.40145-12.89c0,0,5.65512-3.09729,4.76106-12.72Z" fill="#f6a96c"/><path d="M533.158,169.65s-7.58505,7.46484-18.63308,7.49256v-.00048c1.33993-1.965,2.60353-5.18,2.145-10.11375l16.52622.70845A15.56367,15.56367,0,0,0,533.158,169.65Z" fill="#d88a55"/><line x1="492.63725" y1="238.52648" x2="492.63725" y2="218.14503" fill="none" stroke="#433f43" stroke-miterlimit="10" stroke-width="0.29838"/><line x1="557.08765" y1="238.52648" x2="557.08765" y2="218.14503" fill="none" stroke="#433f43" stroke-miterlimit="10" stroke-width="0.29838"/><path d="M470.486,313.04149s-.75541,5.73938-.11091,6.38388,9.1662,7.37592,11.88741,7.51914.5389-2.94308-1.57544-4.65471-2.97361-5.33631-2.97361-5.33631,2.58545-5.08274,2.34986-6.71206S470.486,313.04149,470.486,313.04149Z" fill="#d88a55"/><path d="M472.51093,295.51763c-.88022,9.58691-2.13639,15.24716-2.13639,16.89122a2.79612,2.79612,0,0,0,.1104.63257v.003a81.09483,81.09483,0,0,0,3.94158,9.53917c1.80519,3.89086,3.74167,7.74591,4.71439,9.30047.28644.4595.48934.71909.57885.71909.75192,0,2.578.53708,1.71866-2.25574-.22378-.72208-.70417-2.23784-1.27109-4.11465-.08355-.28644-.17306-.57885-.25959-.88021-.76982-2.59292-1.62915-5.702-2.18413-8.35759a.11709.11709,0,0,1-.009-.04178c-.59079-2.81371-.8295-5.11421-.25064-5.75871,1.01449-1.12787,1.94244-1.5456,2.59888-.95183a3.60984,3.60984,0,0,1,.83844,2.16623c.10145.70716.17306,1.51577.25661,2.32736.27152,2.63468.67135,5.28727,2.64363,4.54729,2.47953-.93094-.05967-18.12353-.69224-21.01482-.02387-.11636-.04774-.20588-.06564-.27451l-2.3005-2.89725Z" fill="#f6a96c"/><path d="M511.83275,149.40576a1.08705,1.08705,0,0,1,.43562.099c1.51317-7.80749,6.7042-13.56188,12.87793-13.56188,6.19267,0,11.39769,5.78919,12.89294,13.63324a1.13528,1.13528,0,0,1,.573-.17039,4.31906,4.31906,0,0,1,3.36564,5.87209c-.98269,3.09058-2.0209,5.87209-3.36564,5.87209a1.37893,1.37893,0,0,1-.99305-.51411c-1.89881,6.91077-6.76582,11.82863-12.4729,11.82863-5.67459,0-10.51742-4.8627-12.4391-11.71138a1.29532,1.29532,0,0,1-.87445.39686c-1.34474,0-2.3831-2.78151-3.3658-5.87209A4.31913,4.31913,0,0,1,511.83275,149.40576Z" fill="#f6a96c"/><path d="M519.28021,153.04a1.3435,1.3435,0,0,0,0-2.6854,1.3435,1.3435,0,0,0,0,2.6854Z" fill="#433f43"/><path d="M530.66635,153.04a1.3435,1.3435,0,0,0,0-2.6854,1.3435,1.3435,0,0,0,0,2.6854Z" fill="#433f43"/><path d="M524.62567,154.20368s2.43328,4.22505,0,4.29666a3.91944,3.91944,0,0,1-1.28045-.17469" fill="#d88a55"/><path d="M522.21625,148.57031a12.34365,12.34365,0,0,0-2.54334-.31189,7.41,7.41,0,0,0-1.22015.08631c-.41986.04992-.83508.15844-1.32086.22558a3.15344,3.15344,0,0,1,2.54382-1.20654,3.43518,3.43518,0,0,1,1.42432.31091A2.64338,2.64338,0,0,1,522.21625,148.57031Z" fill="#433f43"/><path d="M533.20856,148.57031a12.34422,12.34422,0,0,0-2.54334-.31189,7.40954,7.40954,0,0,0-1.22015.08631c-.41992.04992-.83515.15844-1.32092.22558a3.15364,3.15364,0,0,1,2.54388-1.20654,3.43538,3.43538,0,0,1,1.42432.31091A2.64411,2.64411,0,0,1,533.20856,148.57031Z" fill="#433f43"/><ellipse cx="510.64302" cy="155.2271" rx="1.08076" ry="2.84585" transform="translate(-16.96287 74.70525) rotate(-8.23104)" fill="#d88a55"/><ellipse cx="539.57808" cy="155.2271" rx="2.84585" ry="1.08076" transform="translate(308.70128 667.0238) rotate(-81.76896)" fill="#d88a55"/><path d="M537.80861,151.05585s.0509,5.29352-.30539,5.90431-1.32338,0-1.32338,0a57.09086,57.09086,0,0,0,0-5.90431c-.2036-.1527-2.95215-2.08687-2.90125-4.021s.50759-5.85341-.0007-6.20971-8.29587-.35629-8.29587-.35629v-7.02409S540.76077,132.93574,537.80861,151.05585Z" fill="#433f43"/><path d="M512.4538,151.05585s-.0509,5.29352.3054,5.90431,1.32338,0,1.32338,0a57.09086,57.09086,0,0,1,0-5.90431c.20359-.1527,2.95215-2.08687,2.90125-4.021s-.5076-5.85341.0007-6.20971,8.29587-.35629,8.29587-.35629v-7.02409S509.50165,132.93574,512.4538,151.05585Z" fill="#433f43"/><path d="M528.23158,163.65632s-2.86444-3.72377-6.445,0Z" fill="#bb5d4c"/><path d="M528.23158,163.65632s-3.43733,4.5831-6.445,0Z" fill="#a44f3e"/><path d="M537.94856,178.68742a32.79219,32.79219,0,0,0,10.03785,3.93289s7.3956,2.48255,10.71238,4.6894,11.335,9.29526,16.733,42.27562l41.43269-1.24958s4.02921,6.75252,3.22336,14.408c0,0-35.08685,15.30212-46.39057,15.28963s-11.85183-5.23582-11.85183-5.23582l2.83785,34.40827H485.626l-2.17224,8.18642s-7.16354,2.82275-13.07867-.83839c0,0-4.83647-77.77135,19.30307-106.59371a31.92074,31.92074,0,0,1,13.32958-4.7656s6.1157-1.97864,8.63911-3.76852Z" fill="#ca2e43"/><path d="M538.174,147.05018s-14.67475-5.13725-26.08817,0c0,0-4.76523-7.40724-5.52071-11.10727,0,0,21.52978-8.31023,37.62268.98391C544.18776,136.92682,542.25244,143.27282,538.174,147.05018Z" fill="#ca2e43"/><path d="M519.54135,140.15572a116.38454,116.38454,0,0,0,24.74763-2.82153l-.20212-.81448c-.19013.04711-19.2553,4.69072-36.44487,1.912l-.1336.829A75.979,75.979,0,0,0,519.54135,140.15572Z" fill="#ac2538"/><path d="M538.04212,147.44829l.26379-.79648c-.11819-.0394-11.93533-3.9773-18.4434-7.23948l-.37683.75024C526.04856,143.45215,537.92222,147.4089,538.04212,147.44829Z" fill="#ac2538"/><path d="M534.21548,137.55638a.62994.62994,0,0,1,0-1.25912.62994.62994,0,0,1,0,1.25912Z" fill="#ac2538"/><path d="M520.768,137.55638a.62994.62994,0,0,1,0-1.25912.62994.62994,0,0,1,0,1.25912Z" fill="#ac2538"/><path d="M528.12416,141.78705a.62994.62994,0,0,1,0-1.25913.62994.62994,0,0,1,0,1.25913Z" fill="#ac2538"/><path d="M525.88133,134.07285a.62994.62994,0,0,1,0-1.25912.62994.62994,0,0,1,0,1.25912Z" fill="#ac2538"/><path d="M515.47969,144.04835a.62994.62994,0,0,1,0-1.25913.62994.62994,0,0,1,0,1.25913Z" fill="#ac2538"/><path d="M514.525,135.73305a.62994.62994,0,0,1,0-1.25912.62994.62994,0,0,1,0,1.25912Z" fill="#ac2538"/><path d="M508.83151,138.12565a.62994.62994,0,0,1,0-1.25912.62994.62994,0,0,1,0,1.25912Z" fill="#ac2538"/><path d="M541.317,140.37376a.62994.62994,0,0,1,0-1.25913.62994.62994,0,0,1,0,1.25913Z" fill="#ac2538"/><path d="M537.94856,144.04835a.62994.62994,0,0,1,0-1.25913.62994.62994,0,0,1,0,1.25913Z" fill="#ac2538"/><path d="M544.18776,181.614s2.83645,25.642-12.60844,34.72309" fill="none" stroke="#7f6332" stroke-miterlimit="10" stroke-width="0.83942"/><path d="M485.626,287.20584s8.35079-61.33926,9.61365-64.7122c0,0-.78466.31-2.60235,4.625S484.53667,266.89012,485.626,287.20584Z" fill="#ac2538"/><path d="M511.6468,179.426s26.60739,57.63844,50.19866,73.37153l2.83785,34.40827s-59.86-29.62764-75.0052-99.24568C489.67811,187.96016,497.08615,181.88506,511.6468,179.426Z" fill="#ac2538"/><ellipse cx="520.76802" cy="225.22116" rx="10.01167" ry="13.14527" transform="translate(-42.84089 290.55792) rotate(-30)" fill="#7f6332"/><path d="M483.73543,297.57344c.58527-3.63927,1.22514-7.10356,1.89161-10.36761h79.05625l0,.00032,1.75811,10.34106.00385.02623Z" fill="#ac2538"/><circle cx="230.67499" cy="290.02193" r="17.18062" fill="#ab695d"/><circle cx="529.30544" cy="290.02193" r="17.18062" fill="#ab695d"/><rect x="222.58464" y="311.82992" width="314.81114" height="162.10989" fill="#c38f86"/><circle cx="247.42371" cy="330.768" r="18.93807" fill="#ab695d"/><path d="M266.36178,385.30964a18.93065,18.93065,0,0,0-9.84779-16.6139V334.55561H238.33344v34.14013a18.96348,18.96348,0,0,0-9.44183,20.53173c5.398,25.6464,9.44182,51.559,9.44183,77.7673v6.945H256.514v-6.94507c0-26.20831,4.04384-52.12088,9.44182-77.76727A19.006,19.006,0,0,0,266.36178,385.30964Z" fill="#ab695d"/><circle cx="300.45031" cy="330.768" r="18.93807" fill="#ab695d"/><path d="M319.38839,385.30964a18.93066,18.93066,0,0,0-9.8478-16.6139V334.55561H291.36v34.14013a18.96348,18.96348,0,0,0-9.44183,20.53173c5.398,25.6464,9.44182,51.559,9.44183,77.7673v6.945h18.18055v-6.94507c0-26.20831,4.04384-52.12088,9.44182-77.76727A19.006,19.006,0,0,0,319.38839,385.30964Z" fill="#ab695d"/><circle cx="353.47691" cy="330.768" r="18.93807" fill="#ab695d"/><path d="M372.415,385.30964a18.93066,18.93066,0,0,0-9.8478-16.6139V334.55561H344.38664v34.14013a18.96348,18.96348,0,0,0-9.44183,20.53173c5.398,25.6464,9.44182,51.559,9.44183,77.7673v6.945h18.18055v-6.94507c0-26.20831,4.04384-52.12088,9.44183-77.76727A19.006,19.006,0,0,0,372.415,385.30964Z" fill="#ab695d"/><circle cx="406.50351" cy="330.768" r="18.93807" fill="#ab695d"/><path d="M425.44159,385.30964a18.93066,18.93066,0,0,0-9.8478-16.6139V334.55561H397.41324v34.14013a18.96348,18.96348,0,0,0-9.44183,20.53173c5.398,25.6464,9.44182,51.559,9.44183,77.7673v6.945h18.18055v-6.94507c0-26.20831,4.04384-52.12088,9.44183-77.76727A19.006,19.006,0,0,0,425.44159,385.30964Z" fill="#ab695d"/><circle cx="459.53012" cy="330.768" r="18.93807" fill="#ab695d"/><path d="M478.46819,385.30964a18.93066,18.93066,0,0,0-9.8478-16.6139V334.55561H450.43984v34.14013a18.96348,18.96348,0,0,0-9.44183,20.53173c5.398,25.6464,9.44182,51.559,9.44183,77.7673v6.945h18.18055v-6.94507c0-26.20831,4.04384-52.12088,9.44183-77.76727A19.006,19.006,0,0,0,478.46819,385.30964Z" fill="#ab695d"/><circle cx="512.55672" cy="330.768" r="18.93807" fill="#ab695d"/><path d="M531.49479,385.30964a18.93066,18.93066,0,0,0-9.8478-16.6139V334.55561H503.46644v34.14013a18.96348,18.96348,0,0,0-9.44183,20.53173c5.398,25.6464,9.44182,51.559,9.44183,77.7673v6.945H521.647v-6.94507c0-26.20831,4.04384-52.12088,9.44183-77.76727A19.006,19.006,0,0,0,531.49479,385.30964Z" fill="#ab695d"/><rect x="222.58447" y="314.85965" width="314.81114" height="18.93807" fill="#ab695d"/><rect x="222.58447" y="445.15358" width="314.81114" height="25.75578" fill="#ab695d"/><path d="M341.69593,254.25819H418.2845a14.73232,14.73232,0,0,1,14.73232,14.73232v27.689a0,0,0,0,1,0,0H326.96361a0,0,0,0,1,0,0v-27.689A14.73232,14.73232,0,0,1,341.69593,254.25819Z" fill="#ab695d"/><rect x="213.49437" y="296.67947" width="332.99169" height="25.75578" rx="2" fill="#c38f86"/><rect x="213.49437" y="454.24422" width="332.99169" height="25.75578" rx="2" fill="#c38f86"/><path d="M470.60373,268.7759l-27.92411,22.3685a2.99113,2.99113,0,0,0,3.74186,4.66755l27.921-22.37" fill="#ab695d"/><path d="M481.12089,281.90518a2.18131,2.18131,0,0,1,.338-3.0602l11.40211-9.12972a2.17708,2.17708,0,1,1,2.72218,3.39829l-11.40213,9.12967a2.17339,2.17339,0,0,1-3.0602-.338Zm0,0" fill="#c38f86"/><path d="M481.01438,279.20105l-2.38766-2.98554,12.28694-9.84237,2.39193,2.98605Zm12.29121-9.84186" fill="#ab695d"/><path d="M463.63818,260.07906a2.17329,2.17329,0,0,0,3.06017.338l11.401-9.12979a2.17705,2.17705,0,1,0-2.72216-3.39825l-11.401,9.1298a2.17927,2.17927,0,0,0-.33805,3.0602Zm0,0" fill="#c38f86"/><path d="M478.544,250.9312l2.392,2.98609-12.29013,9.842-2.393-2.98614Zm-12.29121,9.84193" fill="#ab695d"/><path d="M468.49648,266.149a1.77771,1.77771,0,0,1,.27559-2.49482l12.03359-9.6355a1.77375,1.77375,0,0,1,2.49156.27523l7.75757,9.68427a1.77441,1.77441,0,0,1-.27511,2.49047l-12.03359,9.63553a1.77364,1.77364,0,0,1-2.49153-.27523l-7.75808-9.68Zm0,0" fill="#c38f86"/><path d="M466.6454,295.70568a5.44444,5.44444,0,0,1,5.44841-5.44846h28.1293a5.44913,5.44913,0,0,1,5.44841,5.44846v.8014H466.6454Zm0,.8014" fill="#ab695d"/><path d="M471.736,284.2343a1.56047,1.56047,0,0,1,1.56206-1.562h25.71927a1.56171,1.56171,0,0,1,1.56352,1.562v6.02292H471.736Zm0,6.02292" fill="#c38f86"/><path d="M290.27324,271.71869v-3.078H272.8013v3.06354a8.73617,8.73617,0,0,0,2.44739,6.06395l3.88849,4.03252-3.9057,4.07358a8.73608,8.73608,0,0,0-2.43018,6.046v3.078h17.47194v-3.06354a8.73581,8.73581,0,0,0-2.44747-6.064l-3.88849-4.03252,3.90578-4.07366A8.736,8.736,0,0,0,290.27324,271.71869Z" fill="#c38f86"/><path d="M274.64833,294.99833l5.748-8.52648a1.248,1.248,0,0,1,2.05769-.0174l5.97222,8.54388Z" fill="#ab695d"/><path d="M288.4262,272.7426l-5.748,8.52649a1.248,1.248,0,0,1-2.0577.01739l-5.97222-8.54388Z" fill="#ab695d"/><path d="M292.59448,270.5125H270.43a1.87186,1.87186,0,1,1,0-3.74372h22.16447a1.87186,1.87186,0,0,1,0,3.74372Z" fill="#ab695d"/><path d="M292.59448,296.87007H270.43a1.87186,1.87186,0,1,1,0-3.74372h22.16447a1.87186,1.87186,0,1,1,0,3.74372Z" fill="#ab695d"/><path d="M122.245,478.98542s-.588-5.14523-7.64434-7.93835-9.40841-7.93835-9.40841-7.93835l-21.63515.9139-.70983,11.43464h.20418a.8167.8167,0,0,0-.8167.8167v1.89475a.8167.8167,0,0,0,.8167.8167Z" fill="#302e30"/><path d="M106.10623,444.88891s-5.03015,14.25064-.914,18.21981c0,0-2.92113.5553-4.39119,11.58078l-17.95379.76776s-.34845-3.4846.70983-11.43464c.31192-2.34318.52676-4.69825.62171-7.06019l1.50905-10.82526Z" fill="#f6a96c"/><path d="M84.07684,458.85257l-.0004-.00366c.04188-.62831.07717-1.25711.10249-1.88649l.43248-10.75944h17.34675S88.03693,451.00111,84.07684,458.85257Z" fill="#d88a55"/><path d="M101.62976,470.0355s-17.56618-2.35576-17.735-8.94993c0,0-.62011.26622-1.1654,1.6624a7.58281,7.58281,0,0,0-.49461,2.76082v13.47662h20.29037Z" fill="#302e30"/><path d="M140.35342,243.24158s4.15083,82.80634-3.82688,116.95616c0,0-12.22533,71.6206-17.29118,94.98926l-46.32821-3.08064S85.6243,359.88588,85.15483,340.539s-4.87361-45.54016-3.53561-59.05991,12.62383-41.30371,12.62383-41.30371Z" fill="#302e30"/><path d="M122.245,478.98542s-.588-5.14523-7.64434-7.93835-9.40841-7.93835-9.40841-7.93835l-21.63515.9139-.70983,11.43464h.20418a.8167.8167,0,0,0-.8167.8167v1.89475a.8167.8167,0,0,0,.8167.8167Z" fill="#302e30"/><path d="M106.10623,444.88891s-5.03015,14.25064-.914,18.21981c0,0-2.92113.5553-4.39119,11.58078l-17.95379.76776s-.34845-3.4846.70983-11.43464c.31192-2.34318.52676-4.69825.62171-7.06019l1.50905-10.82526Z" fill="#f6a96c"/><path d="M84.07684,458.85257l-.0004-.00366c.04188-.62831.07717-1.25711.10249-1.88649l.43248-10.75944h17.34675S88.03693,451.00111,84.07684,458.85257Z" fill="#d88a55"/><path d="M101.62976,470.0355s-17.56618-2.35576-17.735-8.94993c0,0-.62011.26622-1.1654,1.6624a7.58281,7.58281,0,0,0-.49461,2.76082v13.47662h20.29037Z" fill="#302e30"/><path d="M140.35342,243.24158s4.15083,82.80634-3.82688,116.95616c0,0-12.22533,71.6206-17.29118,94.98926l-46.32821-3.08064S85.6243,359.88588,85.15483,340.539s-4.87361-45.54016-3.53561-59.05991,12.62383-41.30371,12.62383-41.30371Z" fill="#302e30"/><path d="M110.88137,348.31c-6.392-18.2663-18.63218-41.83892-21.5135-55.11573-2.07172-9.54609-1.51561-27.68953-1.03947-37.13236.80553-2.335,1.60021-4.5511,2.33412-6.54758l30.1606-7.57142,14.22557.94589c1.32741,3.59883,3.42032,9.34992,5.90923,16.46028.76187,25.82516,1.34893,76.10509-4.43139,100.84862,0,0-7.24524,41.634-12.28894,69.40794C119.073,402.39408,114.44574,358.49589,110.88137,348.31Z" fill="#1c1b1c"/><polygon points="140.637 236.536 140.637 241.309 94.424 241.309 94.424 236.503 140.637 236.536" fill="#f6a96c"/><path d="M192.64994,470.25823s-1.8231-4.8472-9.34712-5.83819-11.05812-5.40867-11.05812-5.40867l-20.76153,6.15417,2.09566,11.26334.198-.04971a.8167.8167,0,0,0-.59327.991l.46134,1.83773a.81671.81671,0,0,0,.991.59327Z" fill="#302e30"/><path d="M168.695,441.11735s-1.409,15.04652,3.54973,17.894c0,0-2.698,1.24983-1.43933,12.30144l-17.22654,5.11607s-1.18641-3.29488-2.09566-11.26334c-.268-2.34861-.633-4.68512-1.116-6.99909L149.195,447.29954Z" fill="#f6a96c"/><path d="M150.72845,460.02453l-.00128-.00346q-.16855-.92939-.35992-1.85466L148.167,447.62547l16.82471-4.22362S152.65767,451.44514,150.72845,460.02453Z" fill="#d88a55"/><path d="M170.476,466.5971s-17.61112,1.99218-19.38041-4.36243c0,0-.53663.40918-.72557,1.89611a7.58273,7.58273,0,0,0,.19249,2.79817L153.84378,480l19.67975-4.94034Z" fill="#302e30"/><path d="M138.16445,238.758s29.3962,77.52408,32.29867,112.473c0,0,10.37508,71.91193,12.73549,95.70659l-45.03322,11.305S121.928,366.57646,115.536,348.31s-18.63218-41.839-21.51351-55.11572-.67954-43.18444-.67954-43.18444Z" fill="#302e30"/><path d="M72.17715,293.81746s-.7701,5.851-.11306,6.50806,9.3445,7.51941,12.11865,7.66542.54938-3.00033-1.60608-4.74526-3.03147-5.44013-3.03147-5.44013,2.63575-5.18161,2.39558-6.84262S72.17715,293.81746,72.17715,293.81746Z" fill="#d88a55"/><path d="M80.38652,217.811s-4.81824,31.99575-5.47528,47.98362-2.84715,25.18637-2.84715,27.37649,8.76047,20.58711,9.527,20.58711,2.62815.54753,1.7521-2.29962-5.69431-17.69506-4.05172-19.52436,3.06617-1.8293,3.50419,1.23687.32852,7.99393,2.95666,7.00838-.10951-17.08293,0-18.616,1.7886-25.98942,11.57113-45.84649l-.511-17.922Z" fill="#f6a96c"/><path d="M131.10894,176.427s7.82206,10.72711,9.52771,31.1034c1.04533,12.48794,3.39468,33.55986,0,33.77887s-46.2122,0-46.2122,0L90.26323,218.094,75.358,217.73913s5.04968-39.06725,28.484-58.01178Z" fill="#efe2dd"/><path d="M123.553,117.78657s9.78253,3.06617,7.88443,16.20688c0,0,3.997,5.14678,4.48975,5.63956s.1095,1.80685-2.51864,2.6829a5.03528,5.03528,0,0,1,.876,2.19011c0,.9308-.60229,3.28518-.60229,4.216s.16426,6.02283-3.50419,6.29659-5.80381.60229-6.62511,1.42358a8.25126,8.25126,0,0,0-1.31407,8.10344c1.42358,4.05172,8.87,11.8814,8.87,11.8814s-14.67379-2.35438-27.267-16.69966c0,0,5.80382-4.10276,5.4753-16.80545,0,0-4.54657-11.49812.70971-13.57874a9.2436,9.2436,0,0,1,4.32756,5.96436L111.0146,122.6268A55.38475,55.38475,0,0,1,123.553,117.78657Z" fill="#f6a96c"/><path d="M126.34582,175.11746s-13.63388-4.549-22.50386-15.39011c0,0-21.926,14.31891-28.484,55.629s-6.55795,68.33171-6.55795,68.33171l15.76886-.32852-5.282,99.59138s46.67523.49773,49.96041-.10489S128.62206,182.354,126.34582,175.11746Z" fill="#433f43"/><path d="M84.56892,283.35956s6.57035-69.8636,9.85553-74.68245c0,0-10.84109,23.10515-14.45478,74.68245Z" fill="#302e30"/><path d="M72.10556,293.81608s-.7701,5.851-.11306,6.50806,9.34451,7.51941,12.11866,7.66542.54938-3.00033-1.60609-4.74526-3.03146-5.44013-3.03146-5.44013,2.63574-5.18161,2.39558-6.84262S72.10556,293.81608,72.10556,293.81608Z" fill="#d88a55"/><path d="M82.01151,283.41284l1.96239,2.47144c.01825.07.04259.16122.06692.27985.64487,2.94754,4.16717,13.06633,1.63941,14.01539-2.01065.75437-2.41826-1.94982-2.69507-4.63576-.08517-.82737-.15817-1.65171-.26159-2.37262a3.68,3.68,0,0,0-.85476-2.20837c-.6692-.60533-1.61521-.17947-2.64943.97034-.59012.657-.34677,3.00229.25551,5.87074a.1193.1193,0,0,0,.00913.04258c.56578,2.70723,1.44182,5.87682,2.22662,8.52017.08821.30723.17946.60533.26464.89734.57794,1.91331,1.06768,3.45857,1.29582,4.19469.876,2.84715-.98556,2.29962-1.7521,2.29962-.09125,0-.2981-.26464-.59011-.73308-.99164-1.58479-2.96579-5.51484-4.8061-9.48139a82.67562,82.67562,0,0,1-4.01826-9.72473V293.816a2.85068,2.85068,0,0,1-.11255-.64486c0-1.676.32507.19838,1.22241-9.575Z" fill="#f6a96c"/><path d="M95.98134,310.579V296.79866a1.8037,1.8037,0,0,0-1.80371-1.8037H66.29229a1.8037,1.8037,0,0,0-1.80371,1.8037V310.579" fill="none" stroke="#302e30" stroke-miterlimit="10" stroke-width="4.50927"/><rect x="45.82019" y="306.03365" width="68.82953" height="56.09535" transform="translate(160.46992 668.16266) rotate(-180)" fill="#302e30"/><rect x="51.98888" y="311.06107" width="56.49216" height="46.04052" transform="translate(160.46992 668.16266) rotate(-180)" fill="#433f43"/><rect x="51.98888" y="311.06107" width="56.49216" height="46.04052" transform="translate(160.46992 668.16266) rotate(-180)" fill="#433f43"/><rect x="65.94958" y="327.29938" width="28.57075" height="13.56389" transform="translate(160.46992 668.16266) rotate(-180)" fill="#302e30"/><path d="M82.01151,283.41284l1.96239,2.47144c.01825.07.04259.16122.06692.27985.64487,2.94754,4.16717,13.06633,1.63941,14.01539-2.01065.75437-2.41826-1.94982-2.69507-4.63576-.08517-.82737-.15817-1.65171-.26159-2.37262a3.68,3.68,0,0,0-.85476-2.20837c-.6692-.60533-1.61521-.17947-2.64943.97034-.59012.657-6.90233,1.43641-6.005-8.337Z" fill="#f6a96c"/><path d="M104.9097,315.99013a1.3536,1.3536,0,0,0,0-2.70557,1.3536,1.3536,0,0,0,0,2.70557Z" fill="#302e30"/><path d="M55.81274,315.99013a1.3536,1.3536,0,0,0,0-2.70557,1.3536,1.3536,0,0,0,0,2.70557Z" fill="#302e30"/><path d="M104.9097,354.69772a1.35359,1.35359,0,0,0,0-2.70556,1.35359,1.35359,0,0,0,0,2.70556Z" fill="#302e30"/><path d="M55.81274,354.69772a1.35359,1.35359,0,0,0,0-2.70556,1.35359,1.35359,0,0,0,0,2.70556Z" fill="#302e30"/><path d="M103.842,159.72736a8.82429,8.82429,0,0,0,1.45229-1.28675c5.94212,8.02129,23.3826,15.2944,23.38267,15.2944,1.38442,1.59048,2.432,2.692,2.432,2.692S116.43514,174.07263,103.842,159.72736Z" fill="#faf7f7"/><path d="M129.68537,175.82472s.49009,27.09324,3.55557,38.99229a57.26542,57.26542,0,0,1,5.74158-2.84776L131.10893,176.427Z" fill="#faf7f7"/><path d="M127.51558,135.93918a1.36965,1.36965,0,0,0,0-2.73765,1.36965,1.36965,0,0,0,0,2.73765Z" fill="#433f43"/><path d="M130.50873,131.38257a12.57332,12.57332,0,0,0-2.59278-.318,7.55186,7.55186,0,0,0-1.24389.088c-.4281.0509-.85138.1615-1.34659.23a3.21461,3.21461,0,0,1,2.59332-1.23,3.49855,3.49855,0,0,1,1.452.31689A2.69453,2.69453,0,0,1,130.50873,131.38257Z" fill="#433f43"/><ellipse cx="111.0146" cy="137.18381" rx="1.69734" ry="2.61345" fill="#d88a55"/><path d="M122.56485,165.32816c-2.836-1.25175-7.11526-6.69587-7.11526-6.69587,2.59165-.54753,8.10341-2.19013,8.10341-2.19013a8.479,8.479,0,0,0-.98815,8.886Z" fill="#d88a55"/><path d="M128.879,121.76139s-11.35325-1.30689-10.755.78716,3.29066,4.33768,1.49575,6.88046a15.61368,15.61368,0,0,0-2.24362,6.13258h-3.087s-.95158-5.08556-3.94309-3.5898-2.9155,8.29188-.82145,9.93721c0,0-.01782,9.66387-1.27633,10.34965,0,0-10.10148-16.39087-10.632-19.33829-.657-3.6502.16547-13.51289,10.11223-16.05567S125.36393,116.67584,128.879,121.76139Z" fill="#d8cdca"/><path d="M114.35453,135.30752,115.6532,134.04l1.658,1.04855s8.61531,10.32989,12.17227,9.05108c1.7748-1.40254,4.99861-.77,4.99861-.77s1.44165,6.02187,0,9.24482c-.98615,2.2043-5.96707,2.85269-9.01716,3.04236a7.4019,7.4019,0,0,1-4.8283-1.40064C117.188,151.7373,111.5715,145.83494,114.35453,135.30752Z" fill="#d8cdca"/><path d="M134.28462,144.506s-2.13537.16426-2.40913,1.42358h2.40913S134.8869,145.10831,134.28462,144.506Z" fill="#bb5d4c"/><path d="M131.87549,145.9296a2.27181,2.27181,0,0,0,1.22759,1.97544,1.15892,1.15892,0,0,0,1.46321-1.62967,1.62949,1.62949,0,0,0-.28167-.34577Z" fill="#a44f3e"/><circle cx="127.21852" cy="134.57036" r="3.67628" fill="none" stroke="#433f43" stroke-miterlimit="10" stroke-width="0.91255"/><path d="M123.94377,132.90439s-12.75588-1.82928-14.29626-1.03169" fill="none" stroke="#433f43" stroke-linecap="round" stroke-linejoin="round" stroke-width="0.91268"/></svg>