<svg id="Layer_1" data-name="Layer 1" xmlns="http://www.w3.org/2000/svg" viewBox="0 0 700 550"><title>law and justice</title><path d="M205.86152,140.802h182.019a0,0,0,0,1,0,0v289.13a0,0,0,0,1,0,0h-182.019a28.00293,28.00293,0,0,1-28.00293-28.00293V168.80494A28.00293,28.00293,0,0,1,205.86152,140.802Z" fill="#ab695d"/><path d="M271.15452,178.20484h53.78376a7.00073,7.00073,0,0,1,7.00073,7.00073v82.55229a7.00073,7.00073,0,0,1-7.00073,7.00073H268.8038a7.00073,7.00073,0,0,1-7.00073-7.00073V187.5563A9.35146,9.35146,0,0,1,271.15452,178.20484Z" transform="translate(523.35276 -70.38932) rotate(90)" fill="#edb0a9"/><polygon points="352.597 140.802 387.881 175.581 387.881 140.802 352.597 140.802" fill="#c38f86"/><polygon points="352.597 429.932 387.881 395.153 387.881 429.932 352.597 429.932" fill="#433f43"/><path d="M177.85862,168.805V401.929A28.00294,28.00294,0,0,0,205.86155,429.932V140.802A28.00294,28.00294,0,0,0,177.85862,168.805Z" fill="#c38f86"/><text transform="translate(257.44994 242.30966)" font-size="42.00439" fill="#ab695d" font-family="Baloo-Regular, Baloo"><tspan letter-spacing="0.01em">L</tspan><tspan x="21.96777" y="0" letter-spacing="-0.01999em">A</tspan><tspan x="47.46484" y="0">W</tspan></text><rect x="245.94743" y="347.85839" width="228.84033" height="41.03683" rx="12.24244" fill="#935951"/><rect x="266.09294" y="306.82156" width="228.84033" height="41.03683" rx="12.24244" fill="#edb0a9"/><rect x="266.09294" y="388.89522" width="228.84033" height="41.03683" rx="12.24244" fill="#edb0a9"/><text transform="translate(302.79882 380.93555)" font-size="36.72731" fill="#bf736a" font-family="Baloo-Regular, Baloo">ORDER</text><text transform="translate(314.51659 339.80078)" font-size="36.72731" fill="#c38f86" font-family="Baloo-Regular, Baloo">JU<tspan x="39.51758" y="0" letter-spacing="-0.01298em">S</tspan><tspan x="59.27734" y="0">TICE</tspan></text><path d="M237.84619,338.1094V326.87217H174.05963v11.1844a31.894,31.894,0,0,0,8.935,22.13825l14.19608,14.72194-14.25893,14.87183a31.8937,31.8937,0,0,0-8.8721,22.0729v11.23723h63.78656V411.91433a31.89251,31.89251,0,0,0-8.93522-22.13825l-14.19608-14.72194,14.2592-14.87211A31.89354,31.89354,0,0,0,237.84619,338.1094Z" fill="#edb0a9"/><path d="M183.86339,412.61932l17.924-25.00729a4.55618,4.55618,0,0,1,7.51223-.06351l18.74277,25.0708Z" fill="#ab695d"/><path d="M228.04243,347.9687l-17.924,25.00729a4.55618,4.55618,0,0,1-7.51222.06351l-18.74278-25.0708Z" fill="#ab695d"/><path d="M246.32058,333.70584H165.40251a6.8338,6.8338,0,0,1,0-13.66759h80.91807a6.83379,6.83379,0,0,1,0,13.66759Z" fill="#935951"/><path d="M246.32058,429.93206H165.40251a6.8338,6.8338,0,0,1,0-13.66759h80.91807a6.8338,6.8338,0,0,1,0,13.66759Z" fill="#935951"/><text transform="translate(343.91467 418.28369)" font-size="36.72731" fill="#c38f86" font-family="Baloo-Regular, Baloo"><tspan letter-spacing="0.01em">L</tspan><tspan x="19.20801" y="0" letter-spacing="-0.02em">A</tspan><tspan x="41.50195" y="0">W</tspan></text><path d="M536.99475,218.52532,514.76,135.88143h.05248v-2.56187h-2.64959l-1.09476-5.06244a5.28323,5.28323,0,0,0-2.32284-3.34636,5.1627,5.1627,0,0,0-3.99909-.7232l-51.099,11.04421-.1448-.72474-3.87306.77224V120.96378h9.83423a2.086,2.086,0,0,0,2.086-2.086v-4.321a2.086,2.086,0,0,0-2.086-2.086H430.901a2.086,2.086,0,0,0-2.086,2.086v4.321a2.086,2.086,0,0,0,2.086,2.086h9.83537v16.08979l-5.262,1.05034.20187,1.012-65.02954,14.055a5.32937,5.32937,0,0,0-4.06957,6.31886l.55122,2.54808h-1.42573v2.56186h.05133l-22.23475,82.64466h-4.43538A11.83266,11.83266,0,0,0,350.91671,259.077h39.1711a11.8329,11.8329,0,0,0,11.83292-11.83254h-4.42236l-22.23475-82.64466h.05324v-2.56186h-3.37125l-.76573-3.541a.61526.61526,0,0,1,.46579-.72934l64.951-14.03893.26546,1.33,3.8742-.773V288.67936H429.92764a2.086,2.086,0,0,0-2.086,2.086V296.283H409.825a2.086,2.086,0,0,0-2.086,2.086v8.45255H482.6256V298.369a2.086,2.086,0,0,0-2.086-2.086H462.52293v-5.51759a2.086,2.086,0,0,0-2.086-2.086H449.62933v-146.168l5.26087-1.04957-.32253-1.61725,51.17141-11.0603.72627.46579.88026,4.06956h-2.147v2.56187h.051l-22.23475,82.64389h-4.42045a11.83241,11.83241,0,0,0,11.83292,11.83254h39.1711a11.83216,11.83216,0,0,0,11.83292-11.83254Zm-189.80324,29.2346,21.38667-81.58965h3.86118L393.826,247.75992Zm160.88267-110.3095h3.86118L533.322,219.04007H486.68751Z" fill="#935951"/><path d="M427.8416,290.76549v5.51758H409.825a2.08585,2.08585,0,0,0-2.08594,2.08594v8.45263h74.88648V298.369a2.08585,2.08585,0,0,0-2.08594-2.08594H462.523v-5.51758a2.07779,2.07779,0,0,0-1.04273-1.79663H428.88433A2.07729,2.07729,0,0,0,427.8416,290.76549Z" fill="#ab695d"/></svg>