<svg id="Layer_1" data-name="Layer 1" xmlns="http://www.w3.org/2000/svg" viewBox="0 0 700 550"><title>lawyer asking questions to criminal</title><path d="M322.08252,189.54463s17.21423,44.01124,14.92458,97.12031c-1.95758,45.4068-7.69508,136.55291-7.69508,136.55291H294.18291V414.931l-4.32358-155.657h-3.82125l-4.4656,163.94387H246.7524s-5.288-91.16772-7.69508-136.55291c-3.046-57.43265,14.1714-97.12031,14.1714-97.12031Z" fill="#efe2dd"/><path d="M253.22873,184.76524a134.97652,134.97652,0,0,0-4.8306,14.01893c-1.81949,12.64442-8.37883,58.689-9.65657,74.13185q.0455,2.52105.14285,5.0936c2.96434-.03878,35.55267-.85939,46.54416-1.13732l.60959-22.37774h3.82119l.61977,22.31326c5.36888.22874,45.01692,1.87158,46.73037,1.87158,1.45856,0-6.1524-52.28509-8.95329-74.03357a198.87943,198.87943,0,0,0-6.17363-19.88059Z" fill="#d1c6c3"/><path d="M347.89594,252.932s.84459,6.417.124,7.13763-10.24848,8.24682-13.291,8.40695-.60253-3.29058,1.76145-5.2043,3.32472-5.96639,3.32472-5.96639-2.89072-5.68288-2.62732-7.50457S347.89594,252.932,347.89594,252.932Z" fill="#d88a55"/><path d="M338.89241,169.57285s5.28435,35.091,6.00494,52.62545,3.12259,27.62284,3.12259,30.02482-9.608,22.57867-10.44864,22.57867-2.88239.6005-1.92159-2.52208,6.24516-19.40684,4.44367-21.4131-3.36278-2.00627-3.84318,1.35651-.36029,8.76725-3.24268,7.68636.1201-18.73549,0-20.41688S331.0459,210.989,320.317,189.211l.56046-19.65577Z" fill="#f6a96c"/><path d="M236.27206,169.90646s-5.28435,35.09095-6.005,52.62545-3.12258,27.62284-3.12258,30.02482,9.60795,22.57867,10.44864,22.57867,2.88239.6005,1.92159-2.52208-6.24516-19.40684-4.44367-21.41311,3.36278-2.00626,3.84317,1.35652.3603,8.76725,3.24269,7.68636-.1201-18.73549,0-20.41688,1.96162-28.50357,12.69049-50.28158l-.56046-19.65577Z" fill="#f6a96c"/><path d="M240.26205,450s.48039-4.20348,6.24516-6.48536a14.34135,14.34135,0,0,0,7.68636-6.48537l17.67519.74663.5799,9.34172S272.70288,450,272.33439,450Z" fill="#f6a96c"/><path d="M256.83575,423.21785s.7206,10.56874-2.64218,13.81142c0,0,11.64963,1.0809,12.85062,10.08835h5.40447a46.16854,46.16854,0,0,0-.5799-9.34172c-.25483-1.91429-.43035-3.83831-.50792-5.76793l-.35337-8.79012Z" fill="#f6a96c"/><path d="M271.44415,433.55214l.00033-.003c-.03421-.5133-.063-1.027-.08373-1.54119l-.35332-8.79011H256.83572S268.20889,427.13776,271.44415,433.55214Z" fill="#d88a55"/><path d="M335.20055,450s-.4804-4.20348-6.24516-6.48536a14.34135,14.34135,0,0,1-7.68636-6.48537l-17.67519.74663-.5799,9.34172S302.75971,450,303.12821,450Z" fill="#f6a96c"/><path d="M318.62685,423.21785s-.7206,10.56874,2.64218,13.81142c0,0-11.64963,1.0809-12.85063,10.08835h-5.40446a46.16854,46.16854,0,0,1,.5799-9.34172c.25482-1.91429.43034-3.83831.50792-5.76793l.35337-8.79012Z" fill="#f6a96c"/><path d="M304.01844,433.55214l-.00032-.003c.0342-.5133.063-1.027.08372-1.54119l.35332-8.79011h14.17172S307.2537,427.13776,304.01844,433.55214Z" fill="#d88a55"/><path d="M307.16347,212.79563s9.82458,182.55918,3.45051,210.42222" fill="none" stroke="#433f43" stroke-miterlimit="10" stroke-width="5.68976"/><path d="M265.793,212.79563s-8.027,182.55918-1.6529,210.42222" fill="none" stroke="#433f43" stroke-miterlimit="10" stroke-width="5.68976"/><path d="M302.35339,104.23408a56.74534,56.74534,0,0,0,15.48229,5.40447c9.12755,1.80149,14.05162,7.08586,18.0149,17.1742s11.302,45.06878,12.503,60.481l-21.30824.06418s10.97667,83.35582,9.13515,83.35582-46.32554-1.89823-46.32554-1.89823h-.82684s-48.47086,1.22992-50.31239,1.22992S248.868,187.56582,248.868,187.56582L227.14453,185.677c1.201-15.41226,8.55374-48.77586,12.517-58.86421s8.88735-15.37271,18.0149-17.1742a52.38034,52.38034,0,0,0,15.61291-5.76476" fill="#efe2dd"/><path d="M278.55275,90.80437s.98177,9.46644-5.26339,13.06942c0,0-1.3211,11.04913,9.60794,14.77221s19.81639-5.40447,19.45609-14.41192c0,0-6.32284-3.463-5.32321-14.22182Z" fill="#f6a96c"/><path d="M278.59542,92.94348s8.48065,8.34623,20.83315,8.37723v-.00053c-1.49815-2.197-2.91094-5.79158-2.39831-11.30792l-18.47752.7921a17.40076,17.40076,0,0,1,.04268,2.13906Z" fill="#d88a55"/><path d="M302.31328,69.045a1.21536,1.21536,0,0,0-.48706.11073c-1.69183-8.72934-7.49578-15.16317-14.39846-15.16317-6.92386,0-12.74345,6.47274-14.41524,15.243a1.26946,1.26946,0,0,0-.64067-.19051,4.829,4.829,0,0,0-3.763,6.56543c1.09873,3.45549,2.25952,6.56543,3.763,6.56543a1.54176,1.54176,0,0,0,1.1103-.57482c2.123,7.72675,7.56468,13.22527,13.94561,13.22527,6.3446,0,11.75923-5.43685,13.90782-13.09418a1.44827,1.44827,0,0,0,.9777.44373c1.50352,0,2.66447-3.10994,3.7632-6.56543A4.8291,4.8291,0,0,0,302.31328,69.045Z" fill="#f6a96c"/><path d="M293.98647,73.10835a1.50214,1.50214,0,0,0,0-3.00249,1.50214,1.50214,0,0,0,0,3.00249Z" fill="#433f43"/><path d="M281.25594,73.10835a1.50214,1.50214,0,0,0,0-3.00249,1.50214,1.50214,0,0,0,0,3.00249Z" fill="#433f43"/><path d="M288.00986,74.40942s-2.72059,4.72391,0,4.804a4.38233,4.38233,0,0,0,1.43164-.19531" fill="#d88a55"/><path d="M296.27787,68.57751a2.95589,2.95589,0,0,1-1.5647.335,3.84033,3.84033,0,0,1-1.5791-.40381,3.70589,3.70589,0,0,1-1.26928-1.02906,3.14406,3.14406,0,0,1-.66724-1.45263c.45166.31079.812.62744,1.20679.88794a8.27405,8.27405,0,0,0,1.17578.69836A13.80133,13.80133,0,0,0,296.27787,68.57751Z" fill="#433f43"/><path d="M283.69315,66.16052a2.95376,2.95376,0,0,1-.74609,1.41541,3.83664,3.83664,0,0,1-1.32227.95288,3.70711,3.70711,0,0,1-1.60375.31433,3.143,3.143,0,0,1-1.54249-.41931c.52808-.14734,1.0022-.221,1.45508-.35669a8.27682,8.27682,0,0,0,1.29-.45459A13.8,13.8,0,0,0,283.69315,66.16052Z" fill="#433f43"/><ellipse cx="303.64349" cy="75.55368" rx="3.18187" ry="1.20837" transform="translate(185.39697 365.25263) rotate(-81.76896)" fill="#d88a55"/><ellipse cx="271.29197" cy="75.55368" rx="1.20837" ry="3.18187" transform="translate(-8.02202 39.61782) rotate(-8.23104)" fill="#d88a55"/><line x1="327.04531" y1="187.29379" x2="327.04531" y2="164.50584" fill="none" stroke="#433f43" stroke-miterlimit="10" stroke-width="0.33361"/><line x1="248.52661" y1="187.29379" x2="248.52661" y2="164.50584" fill="none" stroke="#433f43" stroke-miterlimit="10" stroke-width="0.33361"/><path d="M227.26853,253.26559s-.84459,6.417-.124,7.13763,10.24848,8.24682,13.291,8.407.60253-3.29058-1.76145-5.2043-3.32473-5.96639-3.32473-5.96639,2.89073-5.68288,2.62733-7.50457S227.26853,253.26559,227.26853,253.26559Z" fill="#d88a55"/><path d="M230.26711,222.53191c-.72059,17.53449-3.12258,27.62284-3.12258,30.02482s9.60795,22.57867,10.44864,22.57867,2.88239.6005,1.92159-2.52208-6.24516-19.40684-4.44367-21.41311,3.36278-2.00626,3.84317,1.35652.3603,8.76725,3.24269,7.68636-.30054-21.80318-.8487-23.803" fill="#f6a96c"/><path d="M347.93855,252.932s.84459,6.417.124,7.13763-10.24847,8.24682-13.291,8.40695-.60252-3.29058,1.76146-5.2043,3.32472-5.96639,3.32472-5.96639-2.89072-5.68288-2.62732-7.50457S347.93855,252.932,347.93855,252.932Z" fill="#d88a55"/><path d="M344.94,222.1983c.7206,17.5345,3.12258,27.62284,3.12258,30.02482s-9.60794,22.57867-10.44864,22.57867-2.88238.6005-1.92159-2.52208,6.24517-19.40684,4.44368-21.4131-3.36278-2.00627-3.84318,1.35651-.3603,8.76725-3.24268,7.68636.30053-21.80318.8487-23.803" fill="#f6a96c"/><path d="M287.61155,51.20023v-.00086s-.0507-.001-.12479-.00128l-.04214-.00011-.04213.00011c-.07409.00029-.12479.00128-.12479.00128v.00086c-2.38277.04336-17.04219,1.0618-14.00724,19.68965,0,0-.057,5.91856.34126,6.60148.39844.68291,1.47985,0,1.47985,0s-.22781-6.43073,0-6.60148c.22759-.17068,3.30051-2.33322,3.24356-4.49577-.05673-2.16254-.56745-6.54458.00092-6.9429.52393-.3673,7.9503-.39584,9.10857-.39809,1.15828.00225,8.58465.03079,9.10858.39809.56837.39832.05764,4.78036.00092,6.9429-.057,2.16255,3.016,4.32509,3.24355,4.49577.22782.17075,0,6.60148,0,6.60148s1.08142.68291,1.47986,0c.39821-.68292.34126-6.60148.34126-6.60148C304.65374,52.262,289.99432,51.24359,287.61155,51.20023Z" fill="#433f43"/><path d="M287.61155,51.20023v-.00086s-.0507-.001-.12479-.00128l-.04214-.00011-.04213.00011c-.07409.00029-.12479.00128-.12479.00128v.00086c-2.11637.03851-13.91772.84626-14.40354,14.07882-.06115,1.66566,3.3906,1.7423,5.461,1.11506,2.92081-.88489,12.36863-1.18842,18.219,0,2.12.43065,5.91653,1.31775,5.80985-.54351C301.55518,51.74,289.6854,51.238,287.61155,51.20023Z" fill="#efe2dd"/><path d="M285.004,83.87793s3.20265-4.16344,7.206,0Z" fill="#bb5d4c"/><path d="M288.2322,79.21333h5.47356s1.59314.50354,1.93452,3.25348H280.60163c.34138-2.74994,1.93452-3.25348,1.93452-3.25348h5.696Z" fill="#433f43"/><polygon points="285.055 119.221 287.343 134.242 289.493 119.5 285.055 119.221" fill="#f6a96c"/><line x1="312.76465" y1="108.39586" x2="309.96406" y2="268.81556" fill="none" stroke="#433f43" stroke-miterlimit="10" stroke-width="5.68976"/><line x1="261.68024" y1="108.39586" x2="263.69339" y2="268.81556" fill="none" stroke="#433f43" stroke-miterlimit="10" stroke-width="5.68976"/><path d="M273.23928,62.14461s23.28441,1.69465,28.47434-.48594" fill="none" stroke="#433f43" stroke-miterlimit="10" stroke-width="2.84488"/><ellipse cx="401.0425" cy="277.37738" rx="22.80036" ry="25.71353" fill="#ab695d"/><path d="M378.24213,351.43235c0-9.72733,4.79164-18.18931,11.85619-22.55785V282.52008h21.88835V328.8745c7.06455,4.36854,11.85619,12.83052,11.85619,22.55785a28.98654,28.98654,0,0,1-.48876,5.3195c-6.49886,34.82189-11.36741,70.0052-11.36743,105.59005v9.42977H390.09832v-9.4298c0-35.58483-4.86855-70.76813-11.36742-105.59A28.98675,28.98675,0,0,1,378.24213,351.43235Z" fill="#ab695d"/><ellipse cx="325.44177" cy="277.37738" rx="22.80036" ry="25.71353" fill="#ab695d"/><path d="M302.6414,351.43235c0-9.72733,4.79164-18.18931,11.85619-22.55785V282.52008h21.88835V328.8745c7.06455,4.36854,11.85619,12.83052,11.85619,22.55785a28.98654,28.98654,0,0,1-.48876,5.3195c-6.49886,34.82189-11.36741,70.0052-11.36742,105.59005v9.42977H314.49759v-9.4298c0-35.58483-4.86855-70.76813-11.36742-105.59A28.98675,28.98675,0,0,1,302.6414,351.43235Z" fill="#ab695d"/><ellipse cx="249.99733" cy="277.37738" rx="22.80036" ry="25.71353" fill="#ab695d"/><path d="M227.197,351.43235c0-9.72733,4.79164-18.18931,11.85619-22.55785V282.52008h21.88835V328.8745c7.06455,4.36854,11.85619,12.83052,11.85619,22.55785a28.98653,28.98653,0,0,1-.48877,5.3195c-6.49886,34.82189-11.36741,70.0052-11.36742,105.59005v9.42977H239.05316v-9.4298c0-35.58483-4.86856-70.76813-11.36743-105.59A28.98675,28.98675,0,0,1,227.197,351.43235Z" fill="#ab695d"/><ellipse cx="174.84907" cy="277.37738" rx="22.80036" ry="25.71353" fill="#ab695d"/><path d="M152.04871,351.43235c0-9.72733,4.79163-18.18931,11.85619-22.55785V282.52008h21.88834V328.8745c7.06455,4.36854,11.85619,12.83052,11.85619,22.55785a28.98654,28.98654,0,0,1-.48876,5.3195c-6.49886,34.82189-11.36741,70.0052-11.36742,105.59005v9.42977H163.9049v-9.4298c0-35.58483-4.86856-70.76813-11.36743-105.59A28.98675,28.98675,0,0,1,152.04871,351.43235Z" fill="#ab695d"/><ellipse cx="172.04871" cy="227.76571" rx="20.68449" ry="23.32732" fill="#ab695d"/><ellipse cx="403.15837" cy="227.76571" rx="20.68449" ry="23.32732" fill="#ab695d"/><rect x="151.36422" y="231.09302" width="272.47865" height="34.9704" transform="translate(575.20708 497.15645) rotate(-180)" fill="#c38f86"/><rect x="151.36422" y="445.0296" width="272.47865" height="34.9704" transform="translate(575.20708 925.0296) rotate(-180)" fill="#c38f86"/><path d="M447.95268,480s.652-5.70516,8.47624-8.80225,10.43229-8.80225,10.43229-8.80225l23.98963,1.01336.78707,12.679h-.22639a.90558.90558,0,0,1,.90558.90558v2.101a.90558.90558,0,0,1-.90558.90558Z" fill="#302e30"/><path d="M465.84779,442.1929s5.57755,15.80148,1.01342,20.2026c0,0,3.239.61573,4.86907,12.84107l19.90763.85132s.38638-3.86381-.78707-12.679c-.34586-2.59817-.58409-5.20954-.68937-7.82852L488.4882,443.577Z" fill="#f6a96c"/><path d="M490.27455,457.67617l.00044-.00406c-.04643-.69668-.08556-1.39391-.11364-2.09178L489.68181,443.65H470.44727S485.8835,448.97026,490.27455,457.67617Z" fill="#d88a55"/><path d="M470.81141,470.07609s19.47784-2.61212,19.665-9.9239c0,0,.68759.29518,1.29222,1.8433a8.408,8.408,0,0,1,.54844,3.06127V480H469.81859Z" fill="#302e30"/><polygon points="444.049 211.029 444.049 216.322 495.291 216.322 495.291 210.992 444.049 211.029" fill="#f6a96c"/><path d="M444.04928,216.32162s-10.68447,91.31015-4.37047,129.67984c0,0,8.25677,80.13924,12.14231,106.36662H503.3045s-7.28538-102.96677-5.34261-124.33723,8.74246-50.02631,8.25677-65.08277-10.92808-46.62646-10.92808-46.62646Z" fill="#302e30"/><path d="M519.959,274.54407s.8539,6.48777.12536,7.21631-10.36143,8.33772-13.43749,8.49962-.60916-3.32685,1.78088-5.26167,3.36136-6.03216,3.36136-6.03216-2.92258-5.74551-2.65628-7.58727S519.959,274.54407,519.959,274.54407Z" fill="#d88a55"/><path d="M510.85621,190.26614s5.34259,35.47773,6.07113,53.2055,3.157,27.92731,3.157,30.35577S510.3705,296.655,509.52053,296.655s-2.91415.60711-1.94277-2.54989,6.314-19.62075,4.49266-21.64912-3.39985-2.02838-3.88554,1.37147-.36427,8.86388-3.27842,7.77108.12142-18.942,0-20.64193-1.98325-28.81774-12.83038-50.83579l.56665-19.87242Z" fill="#f6a96c"/><path d="M454.61385,144.37844s-8.67331,11.89451-10.56457,34.48827c-1.15909,13.847-3.76412,37.21206,0,37.45491s51.2413,0,51.2413,0l4.61408-25.7417,16.52729-.3935s-5.59922-43.31881-31.58376-64.325Z" fill="#efe2dd"/><path d="M462.992,79.35638s-10.84713,3.39985-8.74246,17.97062c0,0-4.43194,5.70688-4.97835,6.25329s-.12142,2.00348,2.79273,2.97486a5.58335,5.58335,0,0,0-.97138,2.42846c0,1.0321.66783,3.6427.66783,4.67479s-.18214,6.67827,3.88553,6.98183,6.43543.66783,7.3461,1.5785a9.1492,9.1492,0,0,1,1.45708,8.98531c-1.5785,4.49265-9.83527,13.1744-9.83527,13.1744s16.27069-2.61059,30.23434-18.517c0,0-6.43542-4.54925-6.07115-18.63432,0,0,5.04136-12.74943-.78695-15.05647a10.24957,10.24957,0,0,0-4.79851,6.61345l3.7034-14.06073A61.41191,61.41191,0,0,0,462.992,79.35638Z" fill="#f6a96c"/><path d="M459.89532,142.92638s15.1176-5.04407,24.95287-17.065c0,0,24.31214,15.87719,31.58376,61.68293s7.27163,75.768,7.27163,75.768l-17.48492-.36427.02475,108.55223s-45.92268,2.42921-49.56537,1.761S457.37137,150.95049,459.89532,142.92638Z" fill="#433f43"/><path d="M506.21866,262.94808s-7.28539-77.4666-10.92808-82.80988c0,0,12.02088,25.61961,16.02785,82.80988Z" fill="#302e30"/><path d="M520.03835,274.54254s.85391,6.48777.12537,7.21631-10.36144,8.33772-13.43749,8.49962-.60916-3.32685,1.78087-5.26167,3.36137-6.03216,3.36137-6.03216-2.92258-5.74551-2.65628-7.58728S520.03835,274.54254,520.03835,274.54254Z" fill="#d88a55"/><polygon points="527.751 258.739 548.636 288.204 502.05 323.683 481.125 295.489 527.751 258.739" fill="#faf7f7"/><line x1="492.07608" y1="296.70179" x2="503.98663" y2="312.97439" fill="none" stroke="#302e30" stroke-miterlimit="10" stroke-width="0.67457"/><line x1="503.27338" y1="293.63553" x2="515.18392" y2="309.90812" fill="none" stroke="#302e30" stroke-miterlimit="10" stroke-width="0.67457"/><line x1="506.91853" y1="291.21086" x2="518.82908" y2="307.48345" fill="none" stroke="#302e30" stroke-miterlimit="10" stroke-width="0.67457"/><line x1="510.05801" y1="288.5655" x2="521.96855" y2="304.83809" fill="none" stroke="#302e30" stroke-miterlimit="10" stroke-width="0.67457"/><line x1="513.51473" y1="286.0318" x2="525.42527" y2="302.30439" fill="none" stroke="#302e30" stroke-miterlimit="10" stroke-width="0.67457"/><line x1="514.12907" y1="272.57887" x2="526.03961" y2="288.85146" fill="none" stroke="#302e30" stroke-miterlimit="10" stroke-width="0.67457"/><line x1="517.74831" y1="270.02493" x2="529.65885" y2="286.29752" fill="none" stroke="#302e30" stroke-miterlimit="10" stroke-width="0.67457"/><path d="M518.80886,263.21037c.995,10.837,1.35543,8.75859,1.35543,10.617a3.16072,3.16072,0,0,1-.1248.71505v.00337a91.6702,91.6702,0,0,1-4.45555,10.783c-2.04058,4.39822-4.22957,8.756-5.32912,10.51322-.3238.51942-.55315.81286-.65434.81286-.85,0-2.91415.60711-1.94277-2.54989.253-.81623.796-2.52964,1.43684-4.65118.09444-.32379.19563-.65433.29344-.995.8702-2.931,1.84159-6.44554,2.46894-9.44739a.13252.13252,0,0,0,.01012-.04722c.66782-3.18061.93765-5.78109.28332-6.50963-1.14678-1.27494-2.19574-1.74714-2.93777-1.07594a4.08049,4.08049,0,0,0-.94777,2.4487c-.11468.79937-.19563,1.71341-.29007,2.63083-.30693,2.97824-.75889,5.97672-2.98835,5.14025-2.80285-1.05234,1.10276-12.27233,1.81781-15.54063.027-.13154.054-.23273.0742-.31031l2.176-2.74039Z" fill="#f6a96c"/><polygon points="499.803 280.768 510.058 272.684 510.058 279.057 504.438 287.718 499.803 280.768" fill="#faf7f7"/><path d="M484.84817,125.86143a9.78428,9.78428,0,0,1-1.61035-1.42678c-6.58877,8.89422-25.92724,16.95883-25.92732,16.95883-1.53508,1.76357-2.69664,2.985-2.69664,2.985S470.88455,141.76784,484.84817,125.86143Z" fill="#faf7f7"/><path d="M456.19235,143.71061s-.54343,30.04169-3.94252,43.23567a63.49743,63.49743,0,0,0-6.36641-3.15766l8.73044-39.41018Z" fill="#faf7f7"/><path d="M458.59827,99.48447a1.51869,1.51869,0,0,0,0-3.03557,1.51869,1.51869,0,0,0,0,3.03557Z" fill="#433f43"/><path d="M455.27934,94.43188a2.99,2.99,0,0,1,1.26171-1.01245,3.88294,3.88294,0,0,1,1.61011-.35131,3.74765,3.74765,0,0,1,1.61377.35388,3.1794,3.1794,0,0,1,1.26172,1.00988c-.54907-.07592-1.01831-.19848-1.49316-.25488a8.36181,8.36181,0,0,0-1.37915-.09765A13.96176,13.96176,0,0,0,455.27934,94.43188Z" fill="#433f43"/><ellipse cx="476.89498" cy="100.86455" rx="1.88206" ry="2.89787" fill="#d88a55"/><path d="M464.08777,132.07175c3.14468-1.388,7.88958-7.42456,7.88958-7.42456-2.87369-.60711-8.98527-2.42847-8.98527-2.42847a9.40183,9.40183,0,0,1,1.09569,9.853Z" fill="#d88a55"/><path d="M457.08653,83.76377s12.58878-1.44912,11.92536.87282-3.64876,4.80973-1.65853,7.62923a17.31287,17.31287,0,0,1,2.4878,6.8h3.42289s1.05514-5.639,4.3722-3.98047,3.23278,9.19426.91084,11.01864c0,0,.01976,10.71556,1.41523,11.476,0,0,11.20078-18.17463,11.78906-21.44281.72853-4.04744-.18349-14.98345-11.21271-17.80295S460.98407,78.12477,457.08653,83.76377Z" fill="#433f43"/><path d="M473.19158,98.78408l-1.44-1.40552-1.83843,1.16267s-9.55289,11.454-13.49694,10.03607c-1.96794-1.55517-5.54259-.8538-5.54259-.8538s-1.59853,6.6772,0,10.25089c1.09347,2.44419,6.61645,3.16315,9.99847,3.37346a8.20751,8.20751,0,0,0,5.35375-1.55307C470.04979,117.00184,476.27748,110.45715,473.19158,98.78408Z" fill="#433f43"/><path d="M451.09258,108.98361s2.36775.18214,2.67131,1.5785h-2.67131S450.42475,109.65144,451.09258,108.98361Z" fill="#bb5d4c"/><path d="M453.76389,110.56211a2.51907,2.51907,0,0,1-1.36119,2.19042,1.285,1.285,0,0,1-1.62245-1.807,1.80647,1.80647,0,0,1,.31233-.3834Z" fill="#a44f3e"/></svg>