<svg id="Layer_1" data-name="Layer 1" xmlns="http://www.w3.org/2000/svg" viewBox="0 0 700 550"><title>lawyer asking questions to lady</title><path d="M349.08146,270.0247s.89991,6.83733.13212,7.60512-10.91971,8.787-14.1615,8.95758-.642-3.5061,1.87682-5.54516,3.54248-6.35718,3.54248-6.35718-3.08005-6.05508-2.7994-7.99608S349.08146,270.0247,349.08146,270.0247Z" fill="#d88a55"/><path d="M339.48824,181.20583s5.63045,37.38929,6.39824,56.07224,3.3271,29.432,3.3271,31.99135-10.23723,24.05749-11.133,24.05749-3.07117.63983-2.04745-2.68727,6.65421-20.67792,4.73472-22.81559-3.583-2.13766-4.09489,1.44537-.38389,9.34147-3.45506,8.18978.128-19.9626,0-21.75411-2.09011-30.37046-13.52168-53.57485l.59717-20.94316Z" fill="#f6a96c"/><path d="M230.1466,181.56129s-5.63045,37.38929-6.39825,56.07224-3.3271,29.432-3.3271,31.99135,10.23723,24.05749,11.133,24.05749,3.07117.63983,2.04745-2.68727-6.6542-20.67792-4.73472-22.81559,3.583-2.13766,4.09489,1.44537.3839,9.34147,3.45507,8.18978-.128-19.9626,0-21.75412,2.0901-30.37045,13.52168-53.57484l-.59718-20.94316Z" fill="#f6a96c"/><path d="M321.57735,202.4857s18.34171,46.89382,15.9021,103.48135c-2.08581,48.38079-8.19909,145.49667-8.19909,145.49667H291.85041V442.6341l-4.60675-165.852h-4.07154L278.414,451.46372H241.31337s-5.63439-97.1389-8.19908-145.49667c-3.24548-61.19428,15.09957-103.48135,15.09957-103.48135Z" fill="#6354b1"/><path d="M234.39792,480s.51186-4.47879,6.6542-6.91013,8.18979-6.91013,8.18979-6.91013l18.83285.79552.61789,9.95357h.88864a.71092.71092,0,0,1,.71092.71092v1.64933a.71092.71092,0,0,1-.71092.71092Z" fill="#66321d"/><path d="M252.05714,451.46372s.7678,11.26095-2.81523,14.716c0,0,12.41264,1.15169,13.69229,10.74909h5.75845a49.19273,49.19273,0,0,0-.61789-9.95357c-.27151-2.03967-.45853-4.0897-.54118-6.14571l-.37652-9.36583Z" fill="#f6a96c"/><path d="M267.62235,462.47486l.00035-.00318c-.03645-.54693-.06717-1.09428-.08922-1.64214l-.37646-9.36583H252.05711S264.17519,455.64036,267.62235,462.47486Z" fill="#d88a55"/><path d="M335.55457,480s-.51186-4.47879-6.6542-6.91013-8.18979-6.91013-8.18979-6.91013l-18.83285.79552-.61789,9.95357h-.88865a.71092.71092,0,0,0-.71092.71092v1.64933a.71092.71092,0,0,0,.71092.71092Z" fill="#66321d"/><path d="M317.89534,451.46372s-.76779,11.26095,2.81524,14.716c0,0-12.41264,1.15169-13.6923,10.74909h-5.75844a49.19273,49.19273,0,0,1,.61789-9.95357c.27151-2.03967.45853-4.0897.54118-6.14571l.37652-9.36583Z" fill="#f6a96c"/><path d="M302.33014,462.47486l-.00035-.00318c.03645-.54693.06717-1.09428.08921-1.64214l.37647-9.36583h15.09991S305.7773,455.64036,302.33014,462.47486Z" fill="#d88a55"/><path d="M305.68115,227.25956s12.07169,137.80068,5.28015,167.48866" fill="none" stroke="#433f43" stroke-miterlimit="10" stroke-width="0.35546"/><path d="M261.60106,227.25956s-12.07169,137.80068-5.28015,167.48866" fill="none" stroke="#433f43" stroke-miterlimit="10" stroke-width="0.35546"/><path d="M299.70335,110.79924a59.461,59.461,0,0,0,17.349,6.54681c9.72537,1.91948,14.97195,7.55,19.19481,18.29905s5.531,29.47573,6.8106,45.89744l-19.54316.06769-.70381,13.79471s-.20373,7.08076-2.16587,7.08076H249.806c-1.96213,0-2.6115-7.08076-2.6115-7.08076l-.70381-13.79471-19.54316-.06769c1.27965-16.42171,2.58774-35.14835,6.8106-45.89744s9.46944-16.37957,19.19481-18.29905a56.05285,56.05285,0,0,0,17.46139-6.9099" fill="#fe4fb7"/><path d="M317.12042,202.4857h3.30172a2.42722,2.42722,0,0,0,2.38876-1.796l.70363-16.134V164.23987S316.76271,186.453,317.12042,202.4857Z" fill="#f1239a"/><path d="M246.73459,164.23987v25.90957l.45995,10.5403a2.42693,2.42693,0,0,0,2.38859,1.796h3.54574C253.48659,186.453,246.73459,164.23987,246.73459,164.23987Z" fill="#f1239a"/><line x1="323.51453" y1="181.61022" x2="323.51453" y2="157.32974" fill="none" stroke="#433f43" stroke-miterlimit="10" stroke-width="0.35546"/><line x1="246.73459" y1="181.61022" x2="246.73459" y2="157.32974" fill="none" stroke="#433f43" stroke-miterlimit="10" stroke-width="0.35546"/><path d="M220.55337,270.38016s-.89991,6.83733-.13212,7.60512,10.91972,8.787,14.16151,8.95758.642-3.5061-1.87683-5.54517-3.54248-6.35717-3.54248-6.35717,3.08006-6.05508,2.79941-7.99608S220.55337,270.38016,220.55337,270.38016Z" fill="#d88a55"/><path d="M223.74835,237.63353c-.76779,18.683-3.3271,29.432-3.3271,31.99135s10.23723,24.05749,11.133,24.05749,3.07117.63983,2.04745-2.68727-6.6542-20.67792-4.73472-22.81559,3.583-2.13766,4.09489,1.44537.3839,9.34147,3.45507,8.18978-.32022-23.23121-.90428-25.36205" fill="#f6a96c"/><path d="M349.12686,270.0247s.89991,6.83733.13212,7.60512-10.91972,8.787-14.16151,8.95758-.642-3.5061,1.87683-5.54516,3.54248-6.35718,3.54248-6.35718-3.08-6.05508-2.79941-7.99608S349.12686,270.0247,349.12686,270.0247Z" fill="#d88a55"/><path d="M345.93188,237.27807c.76779,18.68295,3.3271,29.432,3.3271,31.99135s-10.23723,24.05749-11.133,24.05749-3.07117.63983-2.04745-2.68727,6.6542-20.67792,4.73472-22.81559-3.583-2.13766-4.09489,1.44537-.3839,9.34147-3.45507,8.18978.32022-23.23121.90429-25.36205" fill="#f6a96c"/><ellipse cx="298.49437" cy="91.1312" rx="12.25721" ry="13.21155" fill="#433f43"/><path d="M275.71844,97.26554s.98937,9.53973-5.30415,13.17061c0,0-1.33132,11.13468,9.68234,14.88659s19.96981-5.44632,19.60672-14.5235c0,0-6.37179-3.48981-5.36442-14.33194Z" fill="#f6a96c"/><path d="M275.76144,99.42121s8.54631,8.41086,20.99445,8.44209v-.00053c-1.50975-2.214-2.93348-5.83642-2.41688-11.39547l-18.62058.79823a17.5364,17.5364,0,0,1,.043,2.15562Z" fill="#d88a55"/><path d="M299.66293,75.3377a1.22481,1.22481,0,0,0-.49083.11158c-1.70492-8.79693-7.55381-15.28057-14.50994-15.28057-6.97746,0-12.84211,6.52286-14.52685,15.361a1.2792,1.2792,0,0,0-.64562-.192,4.86642,4.86642,0,0,0-3.79218,6.61626c1.10724,3.48224,2.277,6.61626,3.79218,6.61626a1.55367,1.55367,0,0,0,1.11889-.57927c2.13945,7.78657,7.62325,13.32767,14.05358,13.32767,6.39373,0,11.85028-5.47895,14.0155-13.19557a1.4595,1.4595,0,0,0,.98527.44717c1.51516,0,2.68511-3.134,3.79234-6.61626A4.86649,4.86649,0,0,0,299.66293,75.3377Z" fill="#f6a96c"/><path d="M292.25623,64.16059a5.85242,5.85242,0,0,0-8.6542,2.76934,9.02678,9.02678,0,0,0-.35864,1.146c-1.08927,4.47808-4.115,8.7141-8.109,7.62484,0,0-2.75033,11.91277-4.52585,12.29017,0,0-12.26219-6.38706-7.78411-15.746S272.83488,47.622,285.664,57.42537c0,0,11.13468-1.93646,16.702,7.98793s5.35577,8.57816.39358,18.62358l.71232-4.45a1.62383,1.62383,0,0,0-.10869-.90811,6.72637,6.72637,0,0,0-1.78159-2.44385.95814.95814,0,0,0-1.55.78261c.04062,1.54378.02987,3.62515-.3176,3.72612-.5553.16137-1.463-.74635-1.342-2.6223s-.3881-2.60213-1.61614-4.78065-2.49885-4.115-2.92245-7.08021A3.01886,3.01886,0,0,0,292.25623,64.16059Z" fill="#433f43"/><path d="M281.18589,91.39423s3.22744-4.19568,7.26175,0Z" fill="#bb5d4c"/><path d="M281.18589,91.39423s3.87293,5.16391,7.26175,0Z" fill="#a44f3e"/><path d="M291.27165,79.43251a1.51377,1.51377,0,0,0,0-3.02573,1.51377,1.51377,0,0,0,0,3.02573Z" fill="#433f43"/><path d="M278.44256,79.43251a1.51377,1.51377,0,0,0,0-3.02573,1.51377,1.51377,0,0,0,0,3.02573Z" fill="#433f43"/><path d="M285.24877,80.74366s-2.74165,4.76048,0,4.84117a4.41622,4.41622,0,0,0,1.44272-.19683" fill="#d88a55"/><path d="M287.9635,74.39636a2.97951,2.97951,0,0,1,1.25769-1.00915,3.86943,3.86943,0,0,1,1.60486-.35022,3.73407,3.73407,0,0,1,1.6084.35278,3.1691,3.1691,0,0,1,1.25781,1.00659c-.54736-.07568-1.01514-.19787-1.48828-.25415a8.34924,8.34924,0,0,0-1.37488-.09729A13.90989,13.90989,0,0,0,287.9635,74.39636Z" fill="#433f43"/><path d="M275.57825,74.39636a2.97866,2.97866,0,0,1,1.25769-1.00915,3.86929,3.86929,0,0,1,1.60473-.35022,3.7346,3.7346,0,0,1,1.60852.35278,3.16784,3.16784,0,0,1,1.25769,1.00659c-.54724-.07568-1.01513-.19787-1.48828-.25415a8.34776,8.34776,0,0,0-1.37475-.09729A13.90892,13.90892,0,0,0,275.57825,74.39636Z" fill="#433f43"/><path d="M300.06175,89.4152a1.00918,1.00918,0,0,0,0-2.01716,1.00918,1.00918,0,0,0,0,2.01716Z" fill="#fac600"/><ellipse cx="301.00344" cy="81.89678" rx="3.2065" ry="1.21773" transform="translate(176.85712 368.07477) rotate(-81.76896)" fill="#d88a55"/><ellipse cx="398.27907" cy="277.37738" rx="22.80036" ry="25.71353" fill="#ab695d"/><path d="M375.47871,351.43235c0-9.72733,4.79164-18.18931,11.85619-22.55785V282.52008h21.88835V328.8745c7.06455,4.36854,11.85619,12.83052,11.85619,22.55785a28.98741,28.98741,0,0,1-.48876,5.3195c-6.49886,34.82189-11.36742,70.0052-11.36743,105.59005v9.42977H387.3349v-9.4298c0-35.58483-4.86855-70.76813-11.36742-105.59A28.98675,28.98675,0,0,1,375.47871,351.43235Z" fill="#ab695d"/><ellipse cx="322.67835" cy="277.37738" rx="22.80036" ry="25.71353" fill="#ab695d"/><path d="M299.878,351.43235c0-9.72733,4.79164-18.18931,11.85619-22.55785V282.52008h21.88835V328.8745c7.06455,4.36854,11.85619,12.83052,11.85619,22.55785a28.98654,28.98654,0,0,1-.48876,5.3195c-6.49886,34.82189-11.36741,70.0052-11.36743,105.59005v9.42977H311.73417v-9.4298c0-35.58483-4.86855-70.76813-11.36742-105.59A28.98675,28.98675,0,0,1,299.878,351.43235Z" fill="#ab695d"/><ellipse cx="247.23391" cy="277.37738" rx="22.80036" ry="25.71353" fill="#ab695d"/><path d="M224.43354,351.43235c0-9.72733,4.79164-18.18931,11.85619-22.55785V282.52008h21.88835V328.8745c7.06455,4.36854,11.85619,12.83052,11.85619,22.55785a28.98654,28.98654,0,0,1-.48876,5.3195c-6.49886,34.82189-11.36741,70.0052-11.36742,105.59005v9.42977H236.28973v-9.4298c0-35.58483-4.86855-70.76813-11.36742-105.59A28.98675,28.98675,0,0,1,224.43354,351.43235Z" fill="#ab695d"/><ellipse cx="172.08565" cy="277.37738" rx="22.80036" ry="25.71353" fill="#ab695d"/><path d="M149.28528,351.43235c0-9.72733,4.79164-18.18931,11.85619-22.55785V282.52008h21.88835V328.8745C190.09437,333.243,194.886,341.705,194.886,351.43235a28.98654,28.98654,0,0,1-.48876,5.3195c-6.49886,34.82189-11.36741,70.0052-11.36742,105.59005v9.42977H161.14147v-9.4298c0-35.58483-4.86855-70.76813-11.36742-105.59A28.98675,28.98675,0,0,1,149.28528,351.43235Z" fill="#ab695d"/><ellipse cx="169.28528" cy="227.76571" rx="20.68449" ry="23.32732" fill="#ab695d"/><ellipse cx="400.39495" cy="227.76571" rx="20.68449" ry="23.32732" fill="#ab695d"/><rect x="148.60079" y="231.09302" width="272.47865" height="34.9704" transform="translate(569.68023 497.15645) rotate(-180)" fill="#c38f86"/><rect x="148.60079" y="445.0296" width="272.47865" height="34.9704" transform="translate(569.68023 925.0296) rotate(-180)" fill="#c38f86"/><path d="M450.97242,480s.63219-5.53159,8.21837-8.53446,10.11492-8.53446,10.11492-8.53446l23.2598.98253.76313,12.2933h1.09753a.878.878,0,0,1,.878.878v2.037a.878.878,0,0,1-.878.878Z" fill="#66321d"/><path d="M472.78271,444.75584s.94828,13.908-3.477,18.17524c0,0,6.22982,1.42241,7.81027,13.27583h16.21266s.37462-3.74627-.76313-12.2933c-.33534-2.51913-.56632-5.05106-.6684-7.59036l-.465-11.56741Z" fill="#f6a96c"/><path d="M492.00675,458.35532l.00043-.00394c-.045-.67548-.083-1.3515-.11019-2.02814l-.465-11.5674H472.78267S487.74928,449.91427,492.00675,458.35532Z" fill="#d88a55"/><polygon points="447.079 211.714 447.079 216.993 498.19 216.993 498.19 211.677 447.079 211.714" fill="#f6a96c"/><path d="M447.079,216.9929s-10.65727,91.0777-4.35934,129.3497c0,0,8.23575,79.93521,12.11139,106.09583h51.35232s-7.26684-102.70463-5.329-124.02069,8.7202-49.89895,8.23575-64.91708-10.90026-46.50776-10.90026-46.50776Z" fill="#302e30"/><path d="M522.79541,275.06714s.85172,6.47125.125,7.19793-10.33506,8.31649-13.40328,8.478-.60761-3.31838,1.77634-5.24827,3.35281-6.0168,3.35281-6.0168-2.91514-5.73088-2.64952-7.568S522.79541,275.06714,522.79541,275.06714Z" fill="#d88a55"/><path d="M513.71581,191.00376s5.329,35.38741,6.05568,53.07005,3.149,27.85621,3.149,30.27848-9.68911,22.76943-10.53691,22.76943-2.90674.60557-1.93783-2.5434,6.29793-19.57079,4.48122-21.594-3.39119-2.02322-3.87565,1.368-.36334,8.84132-3.27007,7.7513.12111-18.89378,0-20.58937-1.9782-28.74438-12.79771-50.70638l.5652-19.82183Z" fill="#f6a96c"/><path d="M472.51365,77.46963s-11.2636-9.68912-18.046,1.93782c0,0-7.99352,22.285-8.59909,24.22279s-1.74042,9.32578,6.215,15.74482c0,0-4.58987,21.90149,8.2229,22.88047s37.03557-3.9867,38.36783-4.71338,5.57124-5.329,3.75453-12.717c0,0,6.78238-3.87565-.12112-10.53692,0,0,5.45013-6.419-1.57448-18.40932S493.22414,76.50072,472.51365,77.46963Z" fill="#433f43"/><path d="M457.61664,145.23289s-20.95272,18.46987-19.74158,32.27686,5.44937,39.24093,9.2039,39.48315,51.11085,0,51.11085,0l4.60233-25.67615,16.48522-.39251s-5.585-43.20852-31.50335-64.16123Z" fill="#efe2dd"/><path d="M465.9735,80.37636s-10.81951,3.3912-8.72021,17.92487c0,0-4.42066,5.69236-4.96567,6.23737s-.12111,1.99838,2.78562,2.96729a5.5691,5.5691,0,0,0-.96891,2.42228c0,1.02947.66613,3.63342.66613,4.66289s-.18167,6.66126,3.87564,6.96405,6.419.66613,7.3274,1.57448a9.12592,9.12592,0,0,1,1.45337,8.96243c-1.57449,4.48122-9.81023,13.14087-9.81023,13.14087s16.22927-2.60395,30.15737-18.46988c0,0-7.38795-4.72345-7.02461-18.77266,0,0,6.0557-9.20466.24223-11.50583a3.72583,3.72583,0,0,0-4.84456,3.27008l-3.27008-.24223s0-5.57124-1.81671-6.419S465.61016,87.76432,465.9735,80.37636Z" fill="#f6a96c"/><path d="M454.10433,109.92817s2.36172.18167,2.66451,1.57448h-2.66451S453.4382,110.5943,454.10433,109.92817Z" fill="#bb5d4c"/><path d="M456.76884,111.50265a2.51262,2.51262,0,0,1-1.35773,2.18484,1.28177,1.28177,0,0,1-1.61831-1.80242,1.80182,1.80182,0,0,1,.31153-.38242Z" fill="#a44f3e"/><path d="M462.88467,143.78453s15.07911-5.03124,24.88934-17.02152c0,0,24.25024,15.83676,31.50335,61.52589s7.25312,75.5751,7.25312,75.5751l-17.44041-.36334.02469,108.27588s-45.80577,2.423-49.43919,1.75652S460.36714,151.7882,462.88467,143.78453Z" fill="#433f43"/><path d="M509.09007,263.50066s-7.26684-77.26938-10.90026-82.599c0,0,11.99028,25.55438,15.987,82.599Z" fill="#302e30"/><path d="M522.87458,275.06561s.85173,6.47125.125,7.19794-10.33506,8.31649-13.40328,8.478-.60762-3.31838,1.77634-5.24827,3.35281-6.0168,3.35281-6.0168-2.91515-5.73088-2.64952-7.568S522.87458,275.06561,522.87458,275.06561Z" fill="#d88a55"/><polygon points="530.568 259.302 551.399 288.692 504.932 324.081 484.06 295.959 530.568 259.302" fill="#faf7f7"/><line x1="494.9835" y1="297.16844" x2="506.86372" y2="313.39961" fill="none" stroke="#302e30" stroke-miterlimit="10" stroke-width="0.67286"/><line x1="506.15229" y1="294.10999" x2="518.03251" y2="310.34115" fill="none" stroke="#302e30" stroke-miterlimit="10" stroke-width="0.67286"/><line x1="509.78816" y1="291.69149" x2="521.66838" y2="307.92266" fill="none" stroke="#302e30" stroke-miterlimit="10" stroke-width="0.67286"/><line x1="512.91964" y1="289.05286" x2="524.79986" y2="305.28403" fill="none" stroke="#302e30" stroke-miterlimit="10" stroke-width="0.67286"/><line x1="516.36757" y1="286.52561" x2="528.24779" y2="302.75678" fill="none" stroke="#302e30" stroke-miterlimit="10" stroke-width="0.67286"/><line x1="516.98034" y1="273.10693" x2="528.86056" y2="289.3381" fill="none" stroke="#302e30" stroke-miterlimit="10" stroke-width="0.67286"/><line x1="520.59037" y1="270.55949" x2="532.47058" y2="286.79066" fill="none" stroke="#302e30" stroke-miterlimit="10" stroke-width="0.67286"/><path d="M521.64822,263.76229c.99246,10.80942,1.352,8.73629,1.352,10.59a3.15276,3.15276,0,0,1-.12448.71323v.00337a91.43957,91.43957,0,0,1-4.44421,10.75559c-2.03539,4.387-4.2188,8.73366-5.31556,10.48645-.323.5181-.55174.81079-.65267.81079-.84779,0-2.90673.60557-1.93782-2.5434.25232-.81415.794-2.5232,1.43318-4.63933.0942-.323.19513-.65267.29269-.99246.868-2.92356,1.8369-6.42914,2.46265-9.42334a.13209.13209,0,0,0,.0101-.0471c.66612-3.17251.93527-5.76637.2826-6.49306-1.14386-1.27169-2.19015-1.74269-2.93029-1.0732a4.07018,4.07018,0,0,0-.94536,2.44246c-.11439.79734-.19513,1.70906-.28933,2.62414-.30615,2.97066-.757,5.9615-2.98075,5.12716-2.79571-1.04966,1.1-12.24108,1.81319-15.50107.02691-.1312.05383-.23213.074-.30951l2.17042-2.73342Z" fill="#f6a96c"/><polygon points="502.69 281.275 512.92 273.212 512.92 279.568 507.314 288.208 502.69 281.275" fill="#faf7f7"/><path d="M487.774,126.763a9.75994,9.75994,0,0,1-1.60624-1.42315c-6.572,8.87158-25.86123,16.91566-25.86132,16.91566-1.53117,1.75907-2.68977,2.97735-2.68977,2.97735S473.84591,142.62894,487.774,126.763Z" fill="#faf7f7"/><path d="M459.19112,144.56676s-8.72172,23.17446-12.11216,36.33485a63.33627,63.33627,0,0,0-6.3502-3.14963l16.88789-32.5191Z" fill="#faf7f7"/><path d="M461.59091,100.45321a1.51483,1.51483,0,0,0,0-3.02785,1.51483,1.51483,0,0,0,0,3.02785Z" fill="#433f43"/><path d="M458.28052,95.41357a2.97873,2.97873,0,0,1,1.25854-1.00988,3.86993,3.86993,0,0,1,1.606-.35047,3.73847,3.73847,0,0,1,1.60962.353,3.17009,3.17009,0,0,1,1.25854,1.00732c-.5476-.0758-1.01587-.19812-1.48925-.25427a8.33652,8.33652,0,0,0-1.37574-.09741A13.91175,13.91175,0,0,0,458.28052,95.41357Z" fill="#433f43"/><path d="M480.50717,109.66576a1.51483,1.51483,0,0,0,0-3.02785,1.51483,1.51483,0,0,0,0,3.02785Z" fill="#fac600"/><ellipse cx="479.84105" cy="101.82978" rx="1.87727" ry="2.89049" fill="#d88a55"/><path d="M467.06644,132.95752c3.13667-1.38443,7.86949-7.40566,7.86949-7.40566-2.86637-.60556-8.96239-2.42228-8.96239-2.42228a9.37783,9.37783,0,0,1,1.0929,9.82794Z" fill="#d88a55"/></svg>