<svg id="Layer_1" data-name="Layer 1" xmlns="http://www.w3.org/2000/svg" viewBox="0 0 700 550"><title>lawyer asking questions to man</title><path d="M332.66631,469.385s-.652-5.70516-8.47624-8.80225-10.43229-8.80225-10.43229-8.80225l-23.98963,1.01336-.78707,12.679h.22639a.90558.90558,0,0,0-.90558.90558v2.10095a.90558.90558,0,0,0,.90558.90558Z" fill="#302e30"/><path d="M314.77121,431.5779s-5.57756,15.80149-1.01343,20.20261c0,0-3.239.61573-4.86907,12.84107l-19.90763.85132s-.38638-3.86381.78707-12.679c.34586-2.59818.58409-5.20955.68937-7.82852L292.1308,432.962Z" fill="#f6a96c"/><path d="M290.34444,447.06118l-.00044-.00406c.04643-.69668.08556-1.39391.11364-2.09178l.47954-11.93036h19.23454S294.7355,438.35527,290.34444,447.06118Z" fill="#d88a55"/><path d="M309.80758,459.4611s-19.47784-2.61212-19.665-9.9239c0,0-.68759.29518-1.29222,1.8433a8.40815,8.40815,0,0,0-.54844,3.06127V469.385H310.8004Z" fill="#302e30"/><polygon points="336.57 200.414 336.57 205.707 285.328 205.707 285.328 200.377 336.57 200.414" fill="#f6a96c"/><path d="M336.56971,205.70662s10.68447,91.31016,4.37047,129.67985c0,0-8.25677,80.13923-12.14231,106.36662H277.31449s7.28538-102.96677,5.34261-124.33723-8.74246-50.02631-8.25676-65.08277,10.92807-46.62647,10.92807-46.62647Z" fill="#6354b1"/><path d="M260.66,263.92908s-.85391,6.48777-.12537,7.21631,10.36144,8.33772,13.43749,8.49962.60916-3.32685-1.78087-5.26167-3.36137-6.03216-3.36137-6.03216,2.92258-5.74551,2.65628-7.58728S260.66,263.92908,260.66,263.92908Z" fill="#d88a55"/><path d="M326.00514,133.76345s8.67331,11.89451,10.56457,34.48827c1.15909,13.847,3.76412,37.21206,0,37.4549s-51.2413,0-51.2413,0l-4.61407-25.74169-16.5273-.39351s3.51906-59.78514,31.58376-64.325Z" fill="#fdb441"/><path d="M317.627,68.74139s10.84713,3.39985,8.74246,17.97062c0,0,4.43195,5.70688,4.97835,6.25329s.12142,2.00348-2.79273,2.97486a5.58335,5.58335,0,0,1,.97138,2.42846c0,1.0321-.66782,3.64269-.66782,4.67479s.18213,6.67827-3.88554,6.98183-6.43543.66782-7.3461,1.5785a9.1492,9.1492,0,0,0-1.45708,8.98531c1.5785,4.49265,9.83527,13.1744,9.83527,13.1744s-16.27069-2.6106-30.23434-18.517c0,0,6.43542-4.54925,6.07115-18.63433,0,0-5.04136-12.74942.78695-15.05646a10.24957,10.24957,0,0,1,4.79851,6.61344L303.724,74.10836A61.41191,61.41191,0,0,1,317.627,68.74139Z" fill="#f6a96c"/><path d="M260.58064,263.92755s-.85391,6.48777-.12537,7.21631,10.36144,8.33772,13.43749,8.49962.60917-3.32685-1.78087-5.26167-3.36137-6.03216-3.36137-6.03216,2.92258-5.74551,2.65628-7.58728S260.58064,263.92755,260.58064,263.92755Z" fill="#d88a55"/><path d="M271.56462,252.39216l2.176,2.7404c.02023.07758.04722.17876.0742.31031.715,3.2683,4.62066,14.48829,1.81782,15.54062-2.22947.83647-2.68143-2.162-2.98836-5.14024-.09444-.91742-.17539-1.83146-.29007-2.63083a4.08049,4.08049,0,0,0-.94777-2.4487c-.742-.6712-1.791-.199-2.93777,1.07594-.65433.72854-.3845,3.329.28332,6.50963a.13257.13257,0,0,0,.01012.04722c.62736,3.00185,1.59874,6.51637,2.46894,9.44739.09781.34066.199.6712.29344.995.64084,2.12153,1.18387,3.83495,1.43684,4.65118.97138,3.157-1.09281,2.54989-1.94277,2.54989-.10119,0-.33054-.29344-.65434-.81286-1.09955-1.75727-3.28854-6.115-5.32912-10.51322a91.672,91.672,0,0,1-4.45555-10.783v-.00338a3.16066,3.16066,0,0,1-.1248-.715c0-1.85845.36044.22,1.35543-10.617Z" fill="#f6a96c"/><polygon points="280.816 270.153 270.561 262.069 270.561 268.442 276.181 277.103 280.816 270.153" fill="#faf7f7"/><path d="M322.02073,88.86948a1.51869,1.51869,0,0,0,0-3.03557,1.51869,1.51869,0,0,0,0,3.03557Z" fill="#433f43"/><path d="M325.3396,83.81689a13.961,13.961,0,0,0-2.87488-.35253,8.38957,8.38957,0,0,0-1.37927.09765c-.47473.0564-.94409.179-1.49316.25488a3.17829,3.17829,0,0,1,1.26184-1.00976,3.74851,3.74851,0,0,1,1.61364-.354,3.88253,3.88253,0,0,1,1.61011.35131A2.98938,2.98938,0,0,1,325.3396,83.81689Z" fill="#433f43"/><ellipse cx="303.72401" cy="90.24956" rx="1.88206" ry="2.89787" fill="#d88a55"/><path d="M316.53123,121.45676c-3.14469-1.388-7.88959-7.42456-7.88959-7.42456,2.87369-.60712,8.98527-2.42847,8.98527-2.42847a9.40168,9.40168,0,0,0-1.09568,9.853Z" fill="#d88a55"/><path d="M323.53246,73.14878s-12.58877-1.44913-11.92536.87281,3.64876,4.80974,1.65853,7.62924a17.31287,17.31287,0,0,0-2.4878,6.8h-3.42289s-1.05514-5.639-4.37219-3.98047S299.75,93.66459,302.0719,95.489c0,0-.01976,10.71556-1.41523,11.476,0,0-11.20078-18.17463-11.78905-21.44281-.72854-4.04744.18348-14.98345,11.2127-17.803S319.63492,67.50978,323.53246,73.14878Z" fill="#433f43"/><path d="M329.52641,98.36862s-2.36775.18214-2.6713,1.5785h2.6713S330.19424,99.03645,329.52641,98.36862Z" fill="#bb5d4c"/><path d="M326.85511,99.94712a2.519,2.519,0,0,0,1.36119,2.19041,1.285,1.285,0,0,0,1.62244-1.807,1.80623,1.80623,0,0,0-.31233-.3834Z" fill="#a44f3e"/><path d="M328.555,95.94016s-3.50893-.59388-5.48893.36612a2.45168,2.45168,0,0,0-1.68,2.52l8.14031-.45766A3.44464,3.44464,0,0,0,328.555,95.94016Z" fill="#433f43"/><path d="M269.76278,179.65115s-5.34259,35.47773-6.07113,53.2055-3.157,27.92731-3.157,30.35577S270.2485,286.04,271.09846,286.04s2.91415.60711,1.94277-2.54989-6.314-19.62075-4.49266-21.64912,3.39985-2.02838,3.88554,1.37147.36427,8.86388,3.27842,7.77107-.12142-18.942,0-20.64192a134.02038,134.02038,0,0,1,12.82654-44.635l-.5628-26.07327Z" fill="#f6a96c"/><path d="M454.00762,480s.652-5.70516,8.47624-8.80225,10.4323-8.80225,10.4323-8.80225l23.98962,1.01336.78708,12.679h-.2264a.90558.90558,0,0,1,.90558.90558v2.101a.90558.90558,0,0,1-.90558.90558Z" fill="#302e30"/><path d="M471.90273,442.1929s5.57756,15.80148,1.01343,20.2026c0,0,3.239.61573,4.86907,12.84107l19.90763.85132s.38638-3.86381-.78708-12.679c-.34586-2.59817-.58408-5.20954-.68936-7.82852L494.54314,443.577Z" fill="#f6a96c"/><path d="M496.32949,457.67617l.00045-.00406c-.04643-.69668-.08557-1.39391-.11364-2.09178L495.73675,443.65H476.50222S491.93844,448.97026,496.32949,457.67617Z" fill="#d88a55"/><path d="M476.86636,470.07609s19.47783-2.61212,19.665-9.9239c0,0,.6876.29518,1.29223,1.8433a8.40818,8.40818,0,0,1,.54843,3.06127V480h-22.4985Z" fill="#302e30"/><polygon points="450.104 211.029 450.104 216.322 501.346 216.322 501.346 210.992 450.104 211.029" fill="#f6a96c"/><path d="M450.10423,216.32162s-10.68448,91.31015-4.37048,129.67984c0,0,8.25677,80.13924,12.14231,106.36662h51.48339s-7.28539-102.96677-5.34262-124.33723,8.74246-50.02631,8.25677-65.08277-10.92808-46.62646-10.92808-46.62646Z" fill="#302e30"/><path d="M526.01392,274.54407s.85391,6.48777.12537,7.21631S515.77785,290.0981,512.7018,290.26s-.60917-3.32685,1.78087-5.26167,3.36137-6.03216,3.36137-6.03216-2.92258-5.74551-2.65628-7.58727S526.01392,274.54407,526.01392,274.54407Z" fill="#d88a55"/><path d="M516.91116,190.26614s5.34259,35.47773,6.07113,53.2055,3.157,27.92731,3.157,30.35577S516.42544,296.655,515.57548,296.655s-2.91415.60711-1.94277-2.54989,6.314-19.62075,4.49265-21.64912-3.39984-2.02838-3.88553,1.37147-.36427,8.86388-3.27843,7.77108.12143-18.942,0-20.64193-1.98324-28.81774-12.83037-50.83579l.56664-19.87242Z" fill="#f6a96c"/><path d="M460.66879,144.37844s-8.6733,11.89451-10.56456,34.48827c-1.1591,13.847-3.76412,37.21206,0,37.45491s51.24129,0,51.24129,0l4.61408-25.7417,16.5273-.3935s-5.59922-43.31881-31.58376-64.325Z" fill="#efe2dd"/><path d="M469.047,79.35638s-10.84713,3.39985-8.74247,17.97062c0,0-4.43194,5.70688-4.97834,6.25329s-.12143,2.00348,2.79273,2.97486a5.58332,5.58332,0,0,0-.97139,2.42846c0,1.0321.66783,3.6427.66783,4.67479s-.18213,6.67827,3.88554,6.98183,6.43542.66783,7.3461,1.5785a9.14921,9.14921,0,0,1,1.45707,8.98531c-1.5785,4.49265-9.83527,13.1744-9.83527,13.1744s16.2707-2.61059,30.23435-18.517c0,0-6.43542-4.54925-6.07115-18.63432,0,0,5.04136-12.74943-.787-15.05647a10.2496,10.2496,0,0,0-4.79852,6.61345l3.70341-14.06073A61.41191,61.41191,0,0,0,469.047,79.35638Z" fill="#f6a96c"/><path d="M465.95027,142.92638s15.1176-5.04407,24.95287-17.065c0,0,24.31213,15.87719,31.58376,61.68293s7.27163,75.768,7.27163,75.768l-17.48493-.36427.02476,108.55223s-45.92268,2.42921-49.56537,1.761S463.42631,150.95049,465.95027,142.92638Z" fill="#433f43"/><path d="M512.2736,262.94808s-7.28538-77.4666-10.92808-82.80988c0,0,12.02089,25.61961,16.02785,82.80988Z" fill="#302e30"/><path d="M526.0933,274.54254s.8539,6.48777.12537,7.21631-10.36144,8.33772-13.43749,8.49962-.60917-3.32685,1.78087-5.26167,3.36137-6.03216,3.36137-6.03216-2.92259-5.74551-2.65629-7.58728S526.0933,274.54254,526.0933,274.54254Z" fill="#d88a55"/><polygon points="533.806 258.739 554.691 288.204 508.105 323.683 487.179 295.489 533.806 258.739" fill="#faf7f7"/><line x1="498.13103" y1="296.70179" x2="510.04157" y2="312.97439" fill="none" stroke="#302e30" stroke-miterlimit="10" stroke-width="0.67457"/><line x1="509.32833" y1="293.63553" x2="521.23887" y2="309.90812" fill="none" stroke="#302e30" stroke-miterlimit="10" stroke-width="0.67457"/><line x1="512.97348" y1="291.21086" x2="524.88402" y2="307.48345" fill="none" stroke="#302e30" stroke-miterlimit="10" stroke-width="0.67457"/><line x1="516.11295" y1="288.5655" x2="528.0235" y2="304.83809" fill="none" stroke="#302e30" stroke-miterlimit="10" stroke-width="0.67457"/><line x1="519.56968" y1="286.0318" x2="531.48022" y2="302.30439" fill="none" stroke="#302e30" stroke-miterlimit="10" stroke-width="0.67457"/><line x1="520.18402" y1="272.57887" x2="532.09456" y2="288.85146" fill="none" stroke="#302e30" stroke-miterlimit="10" stroke-width="0.67457"/><line x1="523.80325" y1="270.02493" x2="535.7138" y2="286.29752" fill="none" stroke="#302e30" stroke-miterlimit="10" stroke-width="0.67457"/><path d="M524.86381,263.21037c.995,10.837,1.35543,8.75859,1.35543,10.617a3.16072,3.16072,0,0,1-.1248.71505v.00337a91.672,91.672,0,0,1-4.45555,10.783c-2.04058,4.39822-4.22957,8.756-5.32913,10.51322-.32379.51942-.55315.81286-.65433.81286-.85,0-2.91416.60711-1.94277-2.54989.253-.81623.796-2.52964,1.43684-4.65118.09444-.32379.19563-.65433.29344-.995.8702-2.931,1.84158-6.44554,2.46893-9.44739a.13231.13231,0,0,0,.01012-.04722c.66783-3.18061.93766-5.78109.28332-6.50963-1.14677-1.27494-2.19573-1.74714-2.93776-1.07594a4.08055,4.08055,0,0,0-.94778,2.4487c-.11467.79937-.19562,1.71341-.29006,2.63083-.30693,2.97824-.7589,5.97672-2.98836,5.14025-2.80285-1.05234,1.10277-12.27233,1.81782-15.54063.027-.13154.054-.23273.0742-.31031l2.176-2.74039Z" fill="#f6a96c"/><polygon points="505.858 280.768 516.113 272.684 516.113 279.057 510.493 287.718 505.858 280.768" fill="#faf7f7"/><path d="M490.90311,125.86143a9.784,9.784,0,0,1-1.61034-1.42678c-6.58878,8.89422-25.92724,16.95883-25.92732,16.95883-1.53508,1.76357-2.69665,2.985-2.69665,2.985S476.93949,141.76784,490.90311,125.86143Z" fill="#faf7f7"/><path d="M462.24729,143.71061s-.54342,30.04169-3.94251,43.23567a63.49851,63.49851,0,0,0-6.36641-3.15766l8.73043-39.41018Z" fill="#faf7f7"/><path d="M464.65321,99.48447a1.51869,1.51869,0,0,0,0-3.03557,1.51869,1.51869,0,0,0,0,3.03557Z" fill="#433f43"/><path d="M461.33423,94.43188a2.99006,2.99006,0,0,1,1.262-1.01245,3.881,3.881,0,0,1,1.60986-.35131,3.74867,3.74867,0,0,1,1.61377.354,3.17884,3.17884,0,0,1,1.262,1.00976c-.54932-.07592-1.01856-.19848-1.49317-.25488a8.39193,8.39193,0,0,0-1.37939-.09765A13.9631,13.9631,0,0,0,461.33423,94.43188Z" fill="#433f43"/><ellipse cx="482.94993" cy="100.86455" rx="1.88206" ry="2.89787" fill="#d88a55"/><path d="M470.14271,132.07175c3.14469-1.388,7.88959-7.42456,7.88959-7.42456-2.87369-.60711-8.98527-2.42847-8.98527-2.42847a9.40185,9.40185,0,0,1,1.09568,9.853Z" fill="#d88a55"/><path d="M463.14147,83.76377s12.58878-1.44912,11.92537.87282-3.64877,4.80973-1.65853,7.62923a17.31277,17.31277,0,0,1,2.48779,6.8H479.319s1.05514-5.639,4.3722-3.98047,3.23279,9.19426.91085,11.01864c0,0,.01976,10.71556,1.41522,11.476,0,0,11.20079-18.17463,11.78906-21.44281.72854-4.04744-.18348-14.98345-11.2127-17.80295S467.039,78.12477,463.14147,83.76377Z" fill="#433f43"/><path d="M479.24652,98.78408l-1.44-1.40552-1.83843,1.16267s-9.55288,11.454-13.49693,10.03607c-1.96794-1.55517-5.54259-.8538-5.54259-.8538s-1.59854,6.6772,0,10.25089c1.09347,2.44419,6.61644,3.16315,9.99847,3.37346a8.20746,8.20746,0,0,0,5.35374-1.55307C476.10474,117.00184,482.33243,110.45715,479.24652,98.78408Z" fill="#433f43"/><path d="M457.14752,108.98361s2.36775.18214,2.67131,1.5785h-2.67131S456.4797,109.65144,457.14752,108.98361Z" fill="#bb5d4c"/><path d="M459.81883,110.56211a2.519,2.519,0,0,1-1.36119,2.19042,1.285,1.285,0,0,1-1.62244-1.807,1.80672,1.80672,0,0,1,.31232-.3834Z" fill="#a44f3e"/><ellipse cx="394.98755" cy="277.37738" rx="22.80036" ry="25.71353" fill="#ab695d"/><path d="M372.18719,351.43235c0-9.72733,4.79164-18.18931,11.85619-22.55785V282.52008h21.88835V328.8745c7.06455,4.36854,11.85618,12.83052,11.85618,22.55785a28.98654,28.98654,0,0,1-.48876,5.3195c-6.49886,34.82189-11.36741,70.0052-11.36742,105.59005v9.42977H384.04338v-9.4298c0-35.58483-4.86856-70.76813-11.36743-105.59A28.98675,28.98675,0,0,1,372.18719,351.43235Z" fill="#ab695d"/><ellipse cx="319.38682" cy="277.37738" rx="22.80036" ry="25.71353" fill="#ab695d"/><path d="M296.58646,351.43235c0-9.72733,4.79164-18.18931,11.85619-22.55785V282.52008H330.331V328.8745c7.06455,4.36854,11.85619,12.83052,11.85619,22.55785a28.98653,28.98653,0,0,1-.48877,5.3195c-6.49886,34.82189-11.36741,70.0052-11.36742,105.59005v9.42977H308.44265v-9.4298c0-35.58483-4.86855-70.76813-11.36743-105.59A28.98675,28.98675,0,0,1,296.58646,351.43235Z" fill="#ab695d"/><ellipse cx="243.94238" cy="277.37738" rx="22.80036" ry="25.71353" fill="#ab695d"/><path d="M221.142,351.43235c0-9.72733,4.79164-18.18931,11.85619-22.55785V282.52008h21.88835V328.8745c7.06455,4.36854,11.85619,12.83052,11.85619,22.55785a28.98741,28.98741,0,0,1-.48876,5.3195c-6.49886,34.82189-11.36741,70.0052-11.36743,105.59005v9.42977H232.99821v-9.4298c0-35.58483-4.86855-70.76813-11.36742-105.59A28.98675,28.98675,0,0,1,221.142,351.43235Z" fill="#ab695d"/><ellipse cx="168.79412" cy="277.37738" rx="22.80036" ry="25.71353" fill="#ab695d"/><path d="M145.99376,351.43235c0-9.72733,4.79164-18.18931,11.85619-22.55785V282.52008H179.7383V328.8745c7.06455,4.36854,11.85619,12.83052,11.85619,22.55785a28.98741,28.98741,0,0,1-.48876,5.3195c-6.49886,34.82189-11.36742,70.0052-11.36743,105.59005v9.42977H157.85v-9.4298c0-35.58483-4.86855-70.76813-11.36743-105.59A28.98763,28.98763,0,0,1,145.99376,351.43235Z" fill="#ab695d"/><ellipse cx="165.99376" cy="227.76571" rx="20.68449" ry="23.32732" fill="#ab695d"/><ellipse cx="397.10342" cy="227.76571" rx="20.68449" ry="23.32732" fill="#ab695d"/><rect x="145.30927" y="231.09302" width="272.47865" height="34.9704" transform="translate(563.09718 497.15645) rotate(-180)" fill="#c38f86"/><rect x="145.30927" y="445.0296" width="272.47865" height="34.9704" transform="translate(563.09718 925.0296) rotate(-180)" fill="#c38f86"/></svg>