<svg id="Layer_1" data-name="Layer 1" xmlns="http://www.w3.org/2000/svg" viewBox="0 0 700 550"><title>lawyer talking to criminal</title><path d="M310.71318,466.49573s-.66509-5.81961-8.64627-8.97883-10.64157-8.97882-10.64157-8.97882l-24.47086,1.03369-.80286,12.93337h.23094a.92375.92375,0,0,0-.92375.92375V465.572a.92375.92375,0,0,0,.92375.92375Z" fill="#302e30"/><path d="M292.4591,427.93021s-5.68944,16.11846-1.03376,20.60787c0,0-3.304.62808-4.96674,13.09867l-20.307.86839s-.39413-3.94132.80286-12.93337c.3528-2.6503.59581-5.31405.7032-7.98556l1.70684-12.24413Z" fill="#f6a96c"/><path d="M267.54234,443.72408l-.00045-.00414c.04736-.71066.08727-1.42188.11592-2.13374l.48916-12.16968h19.62038S272.02147,434.84353,267.54234,443.72408Z" fill="#d88a55"/><path d="M287.39591,456.37275s-19.86857-2.66453-20.05951-10.123c0,0-.70139.3011-1.31815,1.88028a8.57671,8.57671,0,0,0-.55944,3.12268v15.243h22.94983Z" fill="#302e30"/><path d="M314.69488,197.528s10.89881,93.14183,4.45815,132.28122c0,0-8.4224,81.74683-12.38589,108.50034H254.251s7.43153-105.03229,5.44979-126.83144-8.91784-51.02984-8.4224-66.38833S262.42568,197.528,262.42568,197.528Z" fill="#efe2dd"/><path d="M256.23314,218.55207c2.979-11.304,6.19258-21.02417,6.19258-21.02417h52.26911s5.45692,46.64433,6.36541,87.78717c-8.12188.18479-51.591.2727-64.91775.29548-.98321-6.07055-1.99057-12.1152-2.835-17.8122Z" fill="#d1c6c3"/><polygon points="314.695 192.129 314.695 197.528 262.426 197.528 262.426 192.091 314.695 192.129" fill="#f6a96c"/><path d="M237.26244,256.91835s-.871,6.61791-.12788,7.36107,10.56928,8.505,13.707,8.67011.62139-3.39358-1.8166-5.36721-3.42879-6.15316-3.42879-6.15316,2.98121-5.86077,2.70957-7.73948S237.26244,256.91835,237.26244,256.91835Z" fill="#d88a55"/><path d="M303.91839,124.14159s8.84729,12.13311,10.77649,35.18011c1.18235,14.12472,10.33375,120.60677,6.49412,120.85448s-69.96.34031-69.96.34031l6.49009-109.24662-16.85884-.4014s3.58966-60.98443,32.21733-65.61535Z" fill="#efe2dd"/><path d="M295.37213,57.81519s11.06472,3.468,8.91784,18.3311c0,0,4.52084,5.82137,5.07821,6.37873s.12386,2.04367-2.84875,3.03454a5.69533,5.69533,0,0,1,.99087,2.47718c0,1.0528-.68123,3.71577-.68123,4.76857s.18579,6.81223-3.96348,7.12188-6.56452.68122-7.49346,1.61016a9.33274,9.33274,0,0,0-1.4863,9.16556c1.61016,4.58277,10.03256,13.43868,10.03256,13.43868s-16.59708-2.663-30.84085-18.88847c0,0,6.56452-4.64051,6.19294-19.00813,0,0-5.14249-13.00518.80274-15.3585A10.45516,10.45516,0,0,1,284.968,77.6326L281.1903,63.28982A62.64288,62.64288,0,0,1,295.37213,57.81519Z" fill="#f6a96c"/><path d="M237.18147,256.91679s-.871,6.61791-.12788,7.36106,10.56928,8.505,13.707,8.67012.62139-3.39358-1.8166-5.36721-3.42879-6.15317-3.42879-6.15317,2.98121-5.86076,2.70957-7.73948S237.18147,256.91679,237.18147,256.91679Z" fill="#d88a55"/><path d="M248.38579,245.15l2.2196,2.79537c.02064.07913.04816.18235.07569.31653.72939,3.33386,4.71335,14.77893,1.85428,15.85237-2.27419.85325-2.73522-2.20537-3.04831-5.24336-.09633-.93582-.1789-1.8682-.29588-2.6836a4.16234,4.16234,0,0,0-.96679-2.49782c-.75691-.68467-1.82692-.203-2.99669,1.09752-.66746.74316-.39222,3.3958.289,6.64021a.13509.13509,0,0,0,.01032.04817c.63994,3.06207,1.63081,6.64709,2.51846,9.63691.09978.34749.203.68466.29933,1.01495.6537,2.16409,1.20762,3.91187,1.46566,4.74448.99087,3.22033-1.11473,2.601-1.98174,2.601-.10321,0-.33717-.29933-.66746-.82917-1.12161-1.79251-3.35451-6.23767-5.436-10.72411a93.51312,93.51312,0,0,1-4.54493-10.99935v-.00344a3.2243,3.2243,0,0,1-.1273-.72939c0-1.89573.36767.22438,1.38262-10.83Z" fill="#f6a96c"/><path d="M299.854,78.34705a1.54916,1.54916,0,0,0,0-3.09647,1.54916,1.54916,0,0,0,0,3.09647Z" fill="#433f43"/><path d="M296.36308,74.35822a14.24556,14.24556,0,0,0,2.70214-1.19507,8.56032,8.56032,0,0,0,1.15674-.80707c.386-.29767.73291-.65051,1.17408-1.00427a3.24053,3.24053,0,0,1-.57667,1.54443,3.82351,3.82351,0,0,1-1.228,1.15411,3.96027,3.96027,0,0,1-1.59375.53449A3.04891,3.04891,0,0,1,296.36308,74.35822Z" fill="#433f43"/><ellipse cx="281.1903" cy="79.75481" rx="1.91981" ry="2.956" fill="#d88a55"/><path d="M294.25443,111.588c-3.20777-1.41581-8.04786-7.57349-8.04786-7.57349,2.93134-.61929,9.16552-2.47719,9.16552-2.47719a9.59038,9.59038,0,0,0-1.11766,10.05068Z" fill="#d88a55"/><path d="M301.39611,62.311s-12.84131-1.47819-12.16459.89033,3.722,4.90622,1.6918,7.78228a17.6602,17.6602,0,0,0-2.5377,6.93638h-3.49155s-1.07631-5.75212-4.45991-4.06032-3.29763,9.37869-.92912,11.23967c0,0-.02015,10.93051-1.44361,11.70618,0,0-11.42548-18.53922-12.02555-21.87295-.74315-4.12863.18717-15.284,11.43763-18.16008S297.42038,56.55887,301.39611,62.311Z" fill="#433f43"/><path d="M307.5103,88.03674s-2.41525.18579-2.7249,1.61017h2.7249S308.19152,88.718,307.5103,88.03674Z" fill="#bb5d4c"/><path d="M304.7854,89.64691a2.56957,2.56957,0,0,0,1.3885,2.23435,1.31082,1.31082,0,0,0,1.655-1.84327,1.84247,1.84247,0,0,0-.31859-.39108Z" fill="#a44f3e"/><path d="M306.51943,85.55956s-3.57932-.60579-5.599.37347a2.50088,2.50088,0,0,0-1.7137,2.57055l8.30361-.46684A3.5138,3.5138,0,0,0,306.51943,85.55956Z" fill="#433f43"/><path d="M246.5478,170.9498s-5.44976,36.18941-6.19291,54.2728-3.22033,28.48753-3.22033,30.96471,9.9087,23.28546,10.77572,23.28546,2.97261.61929,1.98174-2.601-6.44066-20.01434-4.58278-22.08341,3.46805-2.06906,3.96348,1.399.37158,9.04169,3.34419,7.927-.12386-19.322,0-21.056A136.70852,136.70852,0,0,1,265.70074,197.528l-.57409-26.5963Z" fill="#f6a96c"/><path d="M255.87016,244.0867s-14.414-6.40587-18.7356-4.69217,14.37359,9.54776,18.7356,9.05813S255.87016,244.0867,255.87016,244.0867Z" fill="#999299"/><path d="M239.42289,240.25134c-1.58374,1.11158-3.12866,2.09949-4.51489,3.16565-1.365,1.02832-2.6333,2.26087-2.90186,3.30188a2.31247,2.31247,0,0,0-.06567.74353,2.93853,2.93853,0,0,0,.24487.82569,5.9948,5.9948,0,0,0,1.19214,1.71057,3.46139,3.46139,0,0,0,1.84741.94238,6.83752,6.83752,0,0,0,2.64453-.12268A4.51461,4.51461,0,0,1,231.9473,252.09a6.33115,6.33115,0,0,1-2.39917-2.44263,5.06431,5.06431,0,0,1-.623-1.79126,4.65842,4.65842,0,0,1,.1604-1.99854,6.0935,6.0935,0,0,1,2.0249-2.87866,10.75558,10.75558,0,0,1,2.63477-1.58215A14.09135,14.09135,0,0,1,239.42289,240.25134Z" fill="#999299"/><polygon points="257.719 171.27 255.117 227.799 300.494 188.818 265.843 149.158 257.719 171.27" fill="#efe2dd"/><path d="M281.49207,438.30951l7.06821-158.789c2.75535-93.88713-25.41742-169.85887-25.41742-169.85887" fill="none" stroke="#433f43" stroke-miterlimit="10" stroke-width="5.8039"/><path d="M304.472,68.58315s-29.2,10.72049-34.70538,14.12766c0,0-10.90752-14.139,2.16586-23.86631a22.245,22.245,0,0,1,9.45857-3.98285C288.30585,53.6487,300.53926,53.799,304.472,68.58315Z" fill="#efe2dd"/><path d="M301.94014,62.461s-27.284,11.99208-35.54161,13.6015" fill="none" stroke="#433f43" stroke-miterlimit="10" stroke-width="3.06018"/><ellipse cx="391.91443" cy="277.37738" rx="22.80036" ry="25.71353" fill="#ab695d"/><path d="M369.11406,351.43235c0-9.72733,4.79164-18.18931,11.85619-22.55785V282.52008H402.8586V328.8745c7.06455,4.36854,11.85619,12.83052,11.85619,22.55785a28.98654,28.98654,0,0,1-.48876,5.3195c-6.49886,34.82189-11.36741,70.0052-11.36743,105.59005v9.42977H380.97025v-9.4298c0-35.58483-4.86855-70.76813-11.36742-105.59A28.98675,28.98675,0,0,1,369.11406,351.43235Z" fill="#ab695d"/><ellipse cx="316.3137" cy="277.37738" rx="22.80036" ry="25.71353" fill="#ab695d"/><path d="M293.51333,351.43235c0-9.72733,4.79164-18.18931,11.85619-22.55785V282.52008h21.88835V328.8745c7.06455,4.36854,11.85619,12.83052,11.85619,22.55785a28.98654,28.98654,0,0,1-.48876,5.3195c-6.49886,34.82189-11.36741,70.0052-11.36742,105.59005v9.42977H305.36952v-9.4298c0-35.58483-4.86855-70.76813-11.36742-105.59A28.98675,28.98675,0,0,1,293.51333,351.43235Z" fill="#ab695d"/><ellipse cx="240.86926" cy="277.37738" rx="22.80036" ry="25.71353" fill="#ab695d"/><path d="M218.0689,351.43235c0-9.72733,4.79164-18.18931,11.85619-22.55785V282.52008h21.88835V328.8745c7.06455,4.36854,11.85619,12.83052,11.85619,22.55785a28.98653,28.98653,0,0,1-.48877,5.3195c-6.49886,34.82189-11.36741,70.0052-11.36742,105.59005v9.42977H229.92509v-9.4298c0-35.58483-4.86856-70.76813-11.36743-105.59A28.98675,28.98675,0,0,1,218.0689,351.43235Z" fill="#ab695d"/><ellipse cx="165.721" cy="277.37738" rx="22.80036" ry="25.71353" fill="#ab695d"/><path d="M142.92064,351.43235c0-9.72733,4.79164-18.18931,11.85619-22.55785V282.52008h21.88835V328.8745c7.06455,4.36854,11.85618,12.83052,11.85618,22.55785a28.98654,28.98654,0,0,1-.48876,5.3195c-6.49886,34.82189-11.36741,70.0052-11.36742,105.59005v9.42977H154.77683v-9.4298c0-35.58483-4.86856-70.76813-11.36743-105.59A28.98675,28.98675,0,0,1,142.92064,351.43235Z" fill="#ab695d"/><ellipse cx="162.92064" cy="227.76571" rx="20.68449" ry="23.32732" fill="#ab695d"/><ellipse cx="394.0303" cy="227.76571" rx="20.68449" ry="23.32732" fill="#ab695d"/><rect x="142.23615" y="231.09302" width="272.47865" height="34.9704" transform="translate(556.95094 497.15645) rotate(-180)" fill="#c38f86"/><rect x="142.23615" y="445.0296" width="272.47865" height="34.9704" transform="translate(556.95094 925.0296) rotate(-180)" fill="#c38f86"/><path d="M481.36616,187.619s-43.50111,5.52039-59.42468,8.98372-3.557,12.98205-2.0181,12.69577,22.7399,3.69711,48.15282-.38566l17.52918-5.11166Z" fill="#f6a96c"/><path d="M421.94148,196.60267c-5.23072-1.16861-10.73609-6.79592-12.18254-8.49373s-20.38794-10.1736-20.98217-9.66734-2.399,1.3113.16053,2.93987,16.101,9.95667,16.03574,12.45961-1.16878,3.44314-3.53338,1.35549-5.53423-5.98-6.9207-3.48027,17.34867,18.60031,25.40442,17.58214" fill="#f6a96c"/><path d="M419.82765,193.04262s-4.38855,18.65875-2.14506,21.53976,40.76128,1.59855,40.76128,1.59855l13.64536-34.33376Z" fill="#433f43"/><path d="M457.33707,480s.63218-5.53159,8.21837-8.53446,10.11492-8.53446,10.11492-8.53446l23.25979.98253.76313,12.2933h1.09754a.878.878,0,0,1,.878.878v2.037a.878.878,0,0,1-.878.878Z" fill="#66321d"/><path d="M479.14736,444.75584s.94827,13.908-3.477,18.17524c0,0,6.22981,1.42241,7.81027,13.27583h16.21265s.37463-3.74627-.76313-12.2933c-.33533-2.51913-.56631-5.05106-.66839-7.59036l-.465-11.56741Z" fill="#f6a96c"/><path d="M498.3714,458.35532l.00042-.00394c-.045-.67548-.083-1.3515-.11018-2.02814l-.46495-11.5674H479.14732S494.11393,449.91427,498.3714,458.35532Z" fill="#d88a55"/><polygon points="453.444 211.714 453.444 216.993 504.554 216.993 504.554 211.677 453.444 211.714" fill="#f6a96c"/><path d="M453.44361,216.9929s-10.65727,91.0777-4.35934,129.3497c0,0,8.23575,79.93521,12.11139,106.09583H512.548s-7.26684-102.70463-5.329-124.02069,8.72021-49.89895,8.23575-64.91708-10.90025-46.50776-10.90025-46.50776Z" fill="#302e30"/><path d="M529.16005,275.06714s.85173,6.47125.12505,7.19793-10.33506,8.31649-13.40328,8.478-.60761-3.31838,1.77634-5.24827,3.35281-6.0168,3.35281-6.0168-2.91514-5.73088-2.64952-7.568S529.16005,275.06714,529.16005,275.06714Z" fill="#d88a55"/><path d="M520.08046,191.00376s5.329,35.38741,6.05568,53.07005,3.149,27.85621,3.149,30.27848-9.68912,22.76943-10.53692,22.76943-2.90673.60557-1.93782-2.5434,6.29793-19.57079,4.48122-21.594-3.39119-2.02322-3.87565,1.368-.36334,8.84132-3.27008,7.7513.12112-18.89378,0-20.58937-1.97819-28.74438-12.7977-50.70638l.5652-19.82183Z" fill="#f6a96c"/><path d="M478.8783,77.46963s-11.2636-9.68912-18.046,1.93782c0,0-7.99352,22.285-8.59909,24.22279s-1.74042,9.32578,6.215,15.74482c0,0-4.58988,21.90149,8.2229,22.88047s37.03557-3.9867,38.36782-4.71338,5.57125-5.329,3.75454-12.717c0,0,6.78238-3.87565-.12112-10.53692,0,0,5.45013-6.419-1.57448-18.40932S499.58879,76.50072,478.8783,77.46963Z" fill="#433f43"/><path d="M463.98128,145.23289s-20.95271,18.46987-19.74157,32.27686,5.44937,39.24093,9.2039,39.48315,51.11085,0,51.11085,0l4.60233-25.67615,16.48522-.39251s-5.585-43.20852-31.50335-64.16123Z" fill="#efe2dd"/><path d="M472.33815,80.37636s-10.81952,3.3912-8.72021,17.92487c0,0-4.42066,5.69236-4.96567,6.23737s-.12111,1.99838,2.78562,2.96729a5.5691,5.5691,0,0,0-.96891,2.42228c0,1.02947.66613,3.63342.66613,4.66289s-.18168,6.66126,3.87564,6.96405,6.419.66613,7.3274,1.57448a9.12592,9.12592,0,0,1,1.45336,8.96243c-1.57448,4.48122-9.81023,13.14087-9.81023,13.14087s16.22927-2.60395,30.15738-18.46988c0,0-7.38795-4.72345-7.02461-18.77266,0,0,6.0557-9.20466.24223-11.50583a3.72583,3.72583,0,0,0-4.84456,3.27008l-3.27008-.24223s0-5.57124-1.81671-6.419S471.9748,87.76432,472.33815,80.37636Z" fill="#f6a96c"/><path d="M460.469,109.92817s2.36172.18167,2.66451,1.57448H460.469S459.80285,110.5943,460.469,109.92817Z" fill="#bb5d4c"/><path d="M463.13349,111.50265a2.51265,2.51265,0,0,1-1.35773,2.18484,1.28177,1.28177,0,0,1-1.61831-1.80242,1.80182,1.80182,0,0,1,.31153-.38242Z" fill="#a44f3e"/><path d="M469.24931,143.78453s15.07912-5.03124,24.88935-17.02152c0,0,24.25024,15.83676,31.50335,61.52589s7.25311,75.5751,7.25311,75.5751l-17.44041-.36334.02469,108.27588s-45.80576,2.423-49.43918,1.75652S466.73178,151.7882,469.24931,143.78453Z" fill="#433f43"/><path d="M515.45471,263.50066s-7.26683-77.26938-10.90025-82.599c0,0,11.99028,25.55438,15.987,82.599Z" fill="#302e30"/><path d="M529.23923,275.06561s.85173,6.47125.125,7.19794-10.33505,8.31649-13.40327,8.478-.60762-3.31838,1.77634-5.24827,3.3528-6.0168,3.3528-6.0168-2.91514-5.73088-2.64952-7.568S529.23923,275.06561,529.23923,275.06561Z" fill="#d88a55"/><polygon points="536.932 259.302 557.764 288.692 511.297 324.081 490.424 295.959 536.932 259.302" fill="#faf7f7"/><line x1="501.34815" y1="297.16844" x2="513.22837" y2="313.39961" fill="none" stroke="#302e30" stroke-miterlimit="10" stroke-width="0.67286"/><line x1="512.51694" y1="294.10999" x2="524.39716" y2="310.34115" fill="none" stroke="#302e30" stroke-miterlimit="10" stroke-width="0.67286"/><line x1="516.15281" y1="291.69149" x2="528.03303" y2="307.92266" fill="none" stroke="#302e30" stroke-miterlimit="10" stroke-width="0.67286"/><line x1="519.28429" y1="289.05286" x2="531.16451" y2="305.28403" fill="none" stroke="#302e30" stroke-miterlimit="10" stroke-width="0.67286"/><line x1="522.73221" y1="286.52561" x2="534.61243" y2="302.75678" fill="none" stroke="#302e30" stroke-miterlimit="10" stroke-width="0.67286"/><line x1="523.34499" y1="273.10693" x2="535.22521" y2="289.3381" fill="none" stroke="#302e30" stroke-miterlimit="10" stroke-width="0.67286"/><line x1="526.95501" y1="270.55949" x2="538.83523" y2="286.79066" fill="none" stroke="#302e30" stroke-miterlimit="10" stroke-width="0.67286"/><path d="M528.01286,263.76229c.99247,10.80942,1.352,8.73629,1.352,10.59a3.15262,3.15262,0,0,1-.12447.71323v.00337a91.43957,91.43957,0,0,1-4.44421,10.75559c-2.03539,4.387-4.21881,8.73366-5.31556,10.48645-.323.5181-.55174.81079-.65267.81079-.8478,0-2.90673.60557-1.93782-2.5434.25232-.81415.794-2.5232,1.43318-4.63933.0942-.323.19513-.65267.29269-.99246.868-2.92356,1.8369-6.42914,2.46265-9.42334a.13206.13206,0,0,0,.01009-.0471c.66613-3.17251.93527-5.76637.2826-6.49306-1.14385-1.27169-2.19014-1.74269-2.93028-1.0732a4.07005,4.07005,0,0,0-.94536,2.44246c-.11439.79734-.19513,1.70906-.28933,2.62414-.30615,2.97066-.757,5.9615-2.98075,5.12716-2.79571-1.04966,1.1-12.24108,1.81319-15.50107.02691-.1312.05383-.23213.074-.30951l2.17041-2.73342Z" fill="#f6a96c"/><polygon points="509.055 281.275 519.284 273.212 519.284 279.568 513.678 288.208 509.055 281.275" fill="#faf7f7"/><path d="M494.13863,126.763a9.75945,9.75945,0,0,1-1.60624-1.42315c-6.572,8.87158-25.86124,16.91566-25.86132,16.91566-1.53117,1.75907-2.68978,2.97735-2.68978,2.97735S480.21056,142.62894,494.13863,126.763Z" fill="#faf7f7"/><path d="M465.55576,144.56676s-8.72172,23.17446-12.11215,36.33485a63.33627,63.33627,0,0,0-6.3502-3.14963l16.88788-32.5191Z" fill="#faf7f7"/><path d="M467.95556,100.45321a1.51483,1.51483,0,0,0,0-3.02785,1.51483,1.51483,0,0,0,0,3.02785Z" fill="#433f43"/><path d="M464.64506,95.41351a2.98246,2.98246,0,0,1,1.25854-1.00982,3.87262,3.87262,0,0,1,1.606-.35053,3.73772,3.73772,0,0,1,1.60962.35309,3.17046,3.17046,0,0,1,1.25854,1.00726c-.5476-.07574-1.01586-.198-1.48925-.25427a8.35232,8.35232,0,0,0-1.37574-.09741A13.92615,13.92615,0,0,0,464.64506,95.41351Z" fill="#433f43"/><path d="M486.87182,109.66576a1.51483,1.51483,0,0,0,0-3.02785,1.51483,1.51483,0,0,0,0,3.02785Z" fill="#fac600"/><ellipse cx="486.20569" cy="101.82978" rx="1.87727" ry="2.89049" fill="#d88a55"/><path d="M473.43108,132.95752c3.13668-1.38443,7.8695-7.40566,7.8695-7.40566-2.86637-.60556-8.96239-2.42228-8.96239-2.42228a9.37784,9.37784,0,0,1,1.09289,9.82794Z" fill="#d88a55"/></svg>