<svg id="Layer_1" data-name="Layer 1" xmlns="http://www.w3.org/2000/svg" viewBox="0 0 700 550"><title>police bringing criminal in court </title><path d="M332.69931,236.84574h76.58856a14.73232,14.73232,0,0,1,14.73232,14.73232v27.689a0,0,0,0,1,0,0H317.967a0,0,0,0,1,0,0v-27.689A14.73232,14.73232,0,0,1,332.69931,236.84574Z" fill="#ab695d"/><path d="M434.804,350.33047s.85752,6.51525.12589,7.24688-10.40532,8.373-13.4944,8.53562-.61175-3.34094,1.78841-5.284,3.37561-6.05771,3.37561-6.05771-2.935-5.76984-2.66754-7.61941S434.804,350.33047,434.804,350.33047Z" fill="#d88a55"/><path d="M425.66268,265.69555s5.36523,35.628,6.09685,53.43087,3.17037,28.0456,3.17037,30.48435-9.755,22.92423-10.60855,22.92423-2.9265.60969-1.951-2.56068,6.34074-19.70386,4.51168-21.74083-3.41424-2.037-3.902,1.37728-.36582,8.90143-3.29231,7.804.12193-19.02224,0-20.72936-1.99165-28.93982-12.88472-51.05113l.569-19.9566Z" fill="#f6a96c"/><path d="M321.47174,266.03426s-5.36522,35.628-6.09685,53.43087-3.17037,28.04561-3.17037,30.48436,9.755,22.92423,10.60856,22.92423,2.92649.60969,1.951-2.56069-6.34075-19.70385-4.51169-21.74082,3.41425-2.037,3.902,1.37728.36581,8.90143,3.29231,7.804-.12194-19.02224,0-20.72936,1.99164-28.93981,12.88472-51.05113l-.569-19.95659Z" fill="#f6a96c"/><path d="M324.29964,384.57971c-3.0926-58.31164,14.38828-98.60672,14.38828-98.60672h69.9076s17.47769,44.68483,15.153,98.60672" fill="#302e30"/><line x1="375.87916" y1="356.76954" x2="371.99942" y2="356.76954" fill="#302e30"/><path d="M393.44813,309.57985s11.503,111.30938,5.03142,139.59886" fill="none" stroke="#433f43" stroke-miterlimit="10" stroke-width="0.33872"/><path d="M351.4445,309.57985s-11.503,111.30938-5.03142,139.59886" fill="none" stroke="#433f43" stroke-miterlimit="10" stroke-width="0.33872"/><path d="M388.56444,199.35679a57.61388,57.61388,0,0,0,15.71924,5.48718c9.26725,1.82906,14.26668,7.19431,18.29061,17.43705s5.27041,28.08723,6.48978,43.73538l-18.62255.0645-.67065,13.14489s-.19414,6.7472-2.06385,6.7472H340.205c-1.8697,0-2.48848-6.7472-2.48848-6.7472l-.67066-13.14489-18.62255-.0645c1.21937-15.64815,2.46585-33.49264,6.48978-43.73538s9.02337-15.608,18.29061-17.437a53.18169,53.18169,0,0,0,15.85186-5.853" fill="#efe2dd"/><path d="M364.39954,185.72153s.99679,9.61132-5.344,13.26944c0,0-1.34131,11.21825,9.755,14.99831s20.11967-5.48719,19.75386-14.63249c0,0-6.41961-3.516-5.40468-14.43949Z" fill="#f6a96c"/><path d="M364.44286,187.89338s8.61044,8.474,21.152,8.50544v-.00054c-1.52107-2.23061-2.95548-5.88021-2.435-11.481l-18.76031.80422a17.66725,17.66725,0,0,1,.04333,2.1718Z" fill="#d88a55"/><path d="M404.34854,285.973h3.14618a2.31289,2.31289,0,0,0,2.27624-1.71135l.67048-15.37395v-19.3589S404.00767,270.69555,404.34854,285.973Z" fill="#fea613"/><path d="M337.27833,249.52879v24.68906l.43828,10.04379a2.31261,2.31261,0,0,0,2.27608,1.71135h3.37871C343.71227,270.69555,337.27833,249.52879,337.27833,249.52879Z" fill="#fea613"/><line x1="410.44144" y1="266.08088" x2="410.44144" y2="242.94417" fill="none" stroke="#433f43" stroke-miterlimit="10" stroke-width="0.33872"/><line x1="337.27833" y1="266.08088" x2="337.27833" y2="242.94417" fill="none" stroke="#433f43" stroke-miterlimit="10" stroke-width="0.33872"/><path d="M364.25825,211.5817s-2.54771,221.01579-4.98646,224.91779-44.38522,3.41424-44.38522,0,12.11774-105.73985,12.255-106.58833-10.54673,3.1854-14.937-.22884c-4.18732-3.25638-1.01173-96.76712,18.153-119.33616a14.57144,14.57144,0,0,1,5.39127-3.95605,81.72722,81.72722,0,0,1,15.0687-4.4982s5.852-1.80194,8.18728-3.73941C359.00474,198.1525,358.59551,207.69578,364.25825,211.5817Z" fill="#433f43"/><path d="M312.33042,350.66919s-.85752,6.51525-.1259,7.24687,10.40533,8.373,13.49441,8.53562.61175-3.34094-1.78842-5.284-3.3756-6.05771-3.3756-6.05771,2.935-5.76985,2.66753-7.61942S312.33042,350.66919,312.33042,350.66919Z" fill="#d88a55"/><path d="M323.9743,330.29878l2.61149,3.28892c.02032.07791.04742.17952.07452.31162.71807,3.28215,3.60054,22.79891.78581,23.8557-2.2389.84-2.69278-2.17117-3.001-5.162-.09484-.9213-.17613-1.83922-.2913-2.642a4.09781,4.09781,0,0,0-.95178-2.45907c-.74518-.674-1.79858-.19984-2.95021,1.0805-.65711.73163-.38614,3.34312.28452,6.5372a.133.133,0,0,0,.01016.04742c.63,3.01457,1.60551,6.544,2.47939,9.48741.09823.3421.19985.674.29469.99921.64355,2.13052,1.18889,3.85119,1.44292,4.67088.9755,3.17037-1.09744,2.56069-1.951,2.56069-.10161,0-.33194-.29469-.6571-.81631-1.10422-1.7647-3.30248-6.1409-5.3517-10.55774a92.05948,92.05948,0,0,1-4.47443-10.82872v-.00339a3.17409,3.17409,0,0,1-.12532-.71808c0-1.86632,1.426-8.29174,2.4252-19.17465Z" fill="#f6a96c"/><path d="M327.14157,329.91116s7.68329-82.53659,10.33467-90.58446c0,0-4.20656,8.41368-5.16734,13.16924s-7.885,77.71374-7.885,77.71374S327.43145,329.54555,327.14157,329.91116Z" fill="#302e30"/><path d="M383.65943,211.5817s2.54771,221.01579,4.98646,224.91779,44.38522,3.41424,44.38522,0-12.11774-105.73985-12.255-106.58833,10.54672,3.1854,14.937-.22884-.17207-104.94944-21.91255-121.00355c0,0-2.83218-2.81342-15.13153-5.40983,0,0-7.47169-2.3405-9.807-4.278C388.8621,198.991,389.32218,207.69578,383.65943,211.5817Z" fill="#433f43"/><path d="M435.58726,350.66919s.85752,6.51525.1259,7.24687-10.40533,8.373-13.49441,8.53562-.61174-3.34094,1.78842-5.284,3.3756-6.05771,3.3756-6.05771-2.935-5.76985-2.66753-7.61942S435.58726,350.66919,435.58726,350.66919Z" fill="#d88a55"/><path d="M433.28853,330.77637c.99921,10.88291,2.4252,17.30833,2.4252,19.17465a3.17409,3.17409,0,0,1-.12532.71808v.00339a92.05948,92.05948,0,0,1-4.47443,10.82872c-2.04922,4.41684-4.24748,8.793-5.3517,10.55774-.32516.52162-.55549.81631-.6571.81631-.85356,0-2.9265.60968-1.951-2.56069.254-.81969.79937-2.54036,1.44293-4.67088.09484-.32517.19645-.65711.29468-.99921.87388-2.94343,1.84938-6.47284,2.47939-9.48741a.13281.13281,0,0,0,.01016-.04742c.67066-3.19408.94163-5.80557.28452-6.5372-1.15163-1.28034-2.205-1.75454-2.9502-1.0805a4.0978,4.0978,0,0,0-.95179,2.45907c-.11517.80276-.19646,1.72068-.2913,2.642-.30823,2.99085-.76211,6.002-3.001,5.162-2.81473-1.05679.06774-20.57355.78582-23.8557.02709-.1321.05419-.23371.07451-.31162l2.6115-3.28892Z" fill="#f6a96c"/><path d="M420.77612,329.91116s-7.6833-82.53659-10.33468-90.58446c0,0,4.20656,8.41368,5.16734,13.16924s7.885,77.71374,7.885,77.71374S420.48623,329.54555,420.77612,329.91116Z" fill="#302e30"/><path d="M388.56438,199.35679a8.69571,8.69571,0,0,1-2.0523-1.77455c0,.00025-2.60354,13.10522-12.72216,13.08917-10.11878-.01606-11.88016-14.27258-11.88016-14.27258l-.00017,0a9.15874,9.15874,0,0,1-2.85394,2.59211s-1.34146,11.21824,9.75493,14.99829S388.93022,208.5021,388.56438,199.35679Z" fill="#faf7f7"/><polygon points="368.515 212.985 363.894 261.384 370.885 262.359 373.683 227.079 376.368 262.359 382.754 260.571 380.098 213.651 368.515 212.985" fill="#faf7f7"/><path d="M388.651,164.91241a1.234,1.234,0,0,0-.49451.11242c-1.71773-8.863-7.61051-15.39524-14.61883-15.39524-7.02983,0-12.93849,6.5718-14.63587,15.47624a1.28881,1.28881,0,0,0-.65047-.19342,4.90294,4.90294,0,0,0-3.82063,6.66591c1.11554,3.50838,2.2941,6.66591,3.82063,6.66591a1.56533,1.56533,0,0,0,1.12729-.58362c2.1555,7.845,7.68046,13.42768,14.159,13.42768,6.4417,0,11.93921-5.52,14.12068-13.29458a1.47043,1.47043,0,0,0,.99266.45052c1.52653,0,2.70525-3.15753,3.82079-6.66591A4.903,4.903,0,0,0,388.651,164.91241Z" fill="#f6a96c"/><path d="M380.19676,169.038a1.52513,1.52513,0,0,0,0-3.04844,1.52513,1.52513,0,0,0,0,3.04844Z" fill="#433f43"/><path d="M367.27139,169.038a1.52513,1.52513,0,0,0,0-3.04844,1.52513,1.52513,0,0,0,0,3.04844Z" fill="#433f43"/><path d="M374.12868,170.35894s-2.76223,4.7962,0,4.87749a4.44933,4.44933,0,0,0,1.45355-.1983" fill="#d88a55"/><path d="M376.86381,163.964a3.0011,3.0011,0,0,1,1.26709-1.01672,3.8992,3.8992,0,0,1,1.61694-.35288,3.76422,3.76422,0,0,1,1.62061.35544,3.19223,3.19223,0,0,1,1.26709,1.01416c-.55152-.07623-1.02271-.19937-1.49951-.256a8.40341,8.40341,0,0,0-1.385-.09809A14.01975,14.01975,0,0,0,376.86381,163.964Z" fill="#433f43"/><path d="M364.38554,163.964a3.0011,3.0011,0,0,1,1.26709-1.01672,3.89916,3.89916,0,0,1,1.61694-.35288,3.76422,3.76422,0,0,1,1.62061.35544,3.19223,3.19223,0,0,1,1.26709,1.01416c-.55152-.07623-1.02271-.19937-1.49952-.256a8.40325,8.40325,0,0,0-1.385-.09809A14.01966,14.01966,0,0,0,364.38554,163.964Z" fill="#433f43"/><ellipse cx="390.00157" cy="171.52071" rx="3.23057" ry="1.22686" transform="translate(164.41314 532.94903) rotate(-81.76896)" fill="#d88a55"/><ellipse cx="357.15493" cy="171.52071" rx="1.22686" ry="3.23057" transform="translate(-20.87666 52.89897) rotate(-8.23104)" fill="#d88a55"/><path d="M378.282,177.38716s-.44969-.04389-.69166-.04389h-8.27817a2.29748,2.29748,0,0,0-.44423.04389h0c-3.17331.04389-9.48932-5.28453-9.48932-5.28453v5.558c1.58128,8.10745,5.52132,11.12161,7.64425,12.18288a9.481,9.481,0,0,0,1.01647.42592,3.97732,3.97732,0,0,0,.392.1118v-.00027a18.8204,18.8204,0,0,0,10.28715-.0044l.00016.00467s6.83914-1.37059,9.05286-12.7206v-5.558S381.45546,177.43105,378.282,177.38716Z" fill="#d8cdca"/><path d="M359.1636,166.78557s-.05778,6.00912.34668,6.70248,1.50228,0,1.50228,0-.23112-6.52914,0-6.70248,3.35124-2.369,3.29346-4.56462-.57621-6.6447.00079-7.04916,9.41735-.40446,9.41735-.40446V146.7937S355.81236,146.2159,359.1636,166.78557Z" fill="#d8cdca"/><path d="M387.946,166.78557s.05778,6.00912-.34668,6.70248-1.50228,0-1.50228,0,.23112-6.52914,0-6.70248-3.35124-2.369-3.29346-4.56462.57621-6.6447-.00079-7.04916-9.41735-.40446-9.41735-.40446V146.7937S391.29724,146.2159,387.946,166.78557Z" fill="#d8cdca"/><path d="M370.03531,181.08943s3.25166-4.22716,7.31624,0Z" fill="#bb5d4c"/><path d="M370.03531,181.08943s3.902,5.20266,7.31624,0Z" fill="#a44f3e"/><circle cx="367.27139" cy="167.53071" r="3.99" fill="none" stroke="#433f43" stroke-miterlimit="10" stroke-width="1.06854"/><circle cx="379.74965" cy="167.53071" r="3.99" fill="none" stroke="#433f43" stroke-miterlimit="10" stroke-width="1.06854"/><path d="M371.09025,166.37442s2.90242-1.68022,4.8408,0" fill="none" stroke="#433f43" stroke-miterlimit="10" stroke-width="1.06854"/><line x1="383.62303" y1="166.58592" x2="388.1565" y2="165.02483" fill="none" stroke="#433f43" stroke-linecap="round" stroke-miterlimit="10" stroke-width="1.069"/><line x1="363.39684" y1="166.58592" x2="358.9018" y2="165.10583" fill="none" stroke="#433f43" stroke-linecap="round" stroke-miterlimit="10" stroke-width="1.069"/><circle cx="151.67837" cy="272.60949" r="17.18062" fill="#ab695d"/><circle cx="550.30882" cy="272.60949" r="17.18062" fill="#ab695d"/><rect x="143.58802" y="294.41748" width="414.81114" height="162.10989" fill="#c38f86"/><circle cx="165.40049" cy="313.35555" r="18.93807" fill="#ab695d"/><path d="M184.33856,367.8972a18.93064,18.93064,0,0,0-9.8478-16.61391V317.14316H156.31022v34.14013a18.96348,18.96348,0,0,0-9.44183,20.53173c5.398,25.6464,9.44181,51.559,9.44182,77.7673v6.94505h18.18054V449.5823c0-26.2083,4.04384-52.12088,9.44183-77.76726A19.0061,19.0061,0,0,0,184.33856,367.8972Z" fill="#ab695d"/><circle cx="218.42709" cy="313.35555" r="18.93807" fill="#ab695d"/><path d="M237.36516,367.8972a18.93065,18.93065,0,0,0-9.84779-16.61391V317.14316H209.33682v34.14013A18.96348,18.96348,0,0,0,199.895,371.815c5.398,25.6464,9.44181,51.559,9.44182,77.7673v6.94505h18.18055V449.5823c0-26.2083,4.04383-52.12088,9.44182-77.76726A19.0061,19.0061,0,0,0,237.36516,367.8972Z" fill="#ab695d"/><circle cx="271.45369" cy="313.35555" r="18.93807" fill="#ab695d"/><path d="M290.39176,367.8972a18.93065,18.93065,0,0,0-9.84779-16.61391V317.14316H262.36342v34.14013a18.96348,18.96348,0,0,0-9.44183,20.53173c5.398,25.6464,9.44181,51.559,9.44182,77.7673v6.94505H280.544V449.5823c0-26.2083,4.04383-52.12088,9.44182-77.76726A19.0061,19.0061,0,0,0,290.39176,367.8972Z" fill="#ab695d"/><circle cx="324.48029" cy="313.35555" r="18.93807" fill="#ab695d"/><path d="M343.41836,367.8972a18.93065,18.93065,0,0,0-9.84779-16.61391V317.14316H315.39v34.14013a18.96348,18.96348,0,0,0-9.44183,20.53173c5.398,25.6464,9.44181,51.559,9.44183,77.7673v6.94505h18.18055V449.5823c0-26.2083,4.04383-52.12088,9.44182-77.76726A19.0061,19.0061,0,0,0,343.41836,367.8972Z" fill="#ab695d"/><circle cx="377.50689" cy="313.35555" r="18.93807" fill="#ab695d"/><path d="M396.445,367.8972a18.93065,18.93065,0,0,0-9.84779-16.61391V317.14316H368.41662v34.14013a18.96348,18.96348,0,0,0-9.44183,20.53173c5.398,25.6464,9.44182,51.559,9.44183,77.7673v6.94505h18.18055V449.5823c0-26.2083,4.04384-52.12088,9.44182-77.76726A19.0061,19.0061,0,0,0,396.445,367.8972Z" fill="#ab695d"/><circle cx="430.53349" cy="313.35555" r="18.93807" fill="#ab695d"/><path d="M449.47156,367.8972a18.93065,18.93065,0,0,0-9.84779-16.61391V317.14316H421.44322v34.14013a18.96348,18.96348,0,0,0-9.44183,20.53173c5.398,25.6464,9.44182,51.559,9.44183,77.7673v6.94505h18.18055V449.5823c0-26.2083,4.04384-52.12088,9.44182-77.76726A19.0061,19.0061,0,0,0,449.47156,367.8972Z" fill="#ab695d"/><circle cx="483.56009" cy="313.35555" r="18.93807" fill="#ab695d"/><path d="M502.49817,367.8972a18.93066,18.93066,0,0,0-9.8478-16.61391V317.14316H474.46982v34.14013A18.96348,18.96348,0,0,0,465.028,371.815c5.398,25.6464,9.44182,51.559,9.44183,77.7673v6.94505h18.18055V449.5823c0-26.2083,4.04384-52.12088,9.44183-77.76726A19.0061,19.0061,0,0,0,502.49817,367.8972Z" fill="#ab695d"/><circle cx="536.58669" cy="313.35555" r="18.93807" fill="#ab695d"/><path d="M555.52477,367.8972a18.93066,18.93066,0,0,0-9.8478-16.61391V317.14316H527.49642v34.14013a18.96348,18.96348,0,0,0-9.44183,20.53173c5.398,25.6464,9.44182,51.559,9.44183,77.7673v6.94505H545.677V449.5823c0-26.2083,4.04384-52.12088,9.44183-77.76726A19.0061,19.0061,0,0,0,555.52477,367.8972Z" fill="#ab695d"/><rect x="143.58784" y="297.4472" width="414.81114" height="18.93807" fill="#ab695d"/><rect x="143.58784" y="427.74113" width="414.81114" height="25.75578" fill="#ab695d"/><rect x="134.49775" y="279.26702" width="432.99169" height="25.75578" rx="2" fill="#c38f86"/><rect x="134.49775" y="436.83178" width="432.99169" height="25.75578" rx="2" fill="#c38f86"/><path d="M461.60711,251.36345,433.683,273.732a2.99113,2.99113,0,1,0,3.74186,4.66755l27.921-22.36994" fill="#ab695d"/><path d="M472.12426,264.49273a2.18132,2.18132,0,0,1,.33805-3.0602l11.40211-9.12971a2.17707,2.17707,0,0,1,2.72218,3.39828l-11.40214,9.12968a2.1734,2.1734,0,0,1-3.0602-.33805Zm0,0" fill="#c38f86"/><path d="M472.01776,261.78861l-2.38766-2.98555,12.28693-9.84237,2.39194,2.98605Zm12.29121-9.84187" fill="#ab695d"/><path d="M454.64156,242.66661a2.1733,2.1733,0,0,0,3.06017.33805l11.401-9.1298a2.17705,2.17705,0,0,0-2.72216-3.39825l-11.401,9.1298a2.17926,2.17926,0,0,0-.338,3.0602Zm0,0" fill="#c38f86"/><path d="M469.54733,233.51875l2.392,2.98609-12.29013,9.842-2.39306-2.98615Zm-12.29122,9.84193" fill="#ab695d"/><path d="M459.49985,248.73654a1.77772,1.77772,0,0,1,.2756-2.49483l12.03359-9.6355a1.77374,1.77374,0,0,1,2.49156.27524l7.75757,9.68426a1.77442,1.77442,0,0,1-.27511,2.49048l-12.0336,9.63553a1.77366,1.77366,0,0,1-2.49153-.27523l-7.75808-9.68Zm0,0" fill="#c38f86"/><path d="M457.64877,278.29324a5.44445,5.44445,0,0,1,5.44842-5.44847h28.12929a5.44913,5.44913,0,0,1,5.44842,5.44847v.8014H457.64877Zm0,.8014" fill="#ab695d"/><path d="M462.73939,266.82186a1.56047,1.56047,0,0,1,1.56206-1.56206h25.71927a1.56172,1.56172,0,0,1,1.56352,1.56206v6.02291H462.73939Zm0,6.02291" fill="#c38f86"/><path d="M261.27662,254.30625v-3.078H243.80468v3.06355a8.73614,8.73614,0,0,0,2.44739,6.06394l3.88849,4.03252-3.9057,4.07359a8.73608,8.73608,0,0,0-2.43018,6.046v3.078h17.47194v-3.06355a8.73577,8.73577,0,0,0-2.44747-6.06394l-3.88849-4.03253,3.90578-4.07365A8.73605,8.73605,0,0,0,261.27662,254.30625Z" fill="#c38f86"/><path d="M245.65171,277.58589l5.748-8.52649a1.248,1.248,0,0,1,2.05769-.0174l5.97222,8.54389Z" fill="#ab695d"/><path d="M259.42958,255.33015l-5.748,8.52649a1.248,1.248,0,0,1-2.05769.0174l-5.97222-8.54389Z" fill="#ab695d"/><path d="M263.59786,253.10006H241.43338a1.87187,1.87187,0,0,1,0-3.74373h22.16448a1.87187,1.87187,0,0,1,0,3.74373Z" fill="#ab695d"/><path d="M263.59786,279.45762H241.43338a1.87186,1.87186,0,1,1,0-3.74372h22.16448a1.87186,1.87186,0,0,1,0,3.74372Z" fill="#ab695d"/><path d="M546.14307,478.875s-.652-5.70516-8.47623-8.80224-10.4323-8.80225-10.4323-8.80225l-23.98962,1.01335-.78708,12.679h.2264a.90558.90558,0,0,0-.90558.90558v2.101a.90558.90558,0,0,0,.90558.90558Z" fill="#302e30"/><path d="M528.248,441.0679s-5.57756,15.80148-1.01343,20.20261c0,0-3.239.61572-4.86907,12.84107l-19.90763.85131s-.38638-3.86381.78708-12.679c.34586-2.59817.58408-5.20954.68937-7.82852l1.67327-12.00334Z" fill="#f6a96c"/><path d="M503.82121,456.55117l-.00044-.00406c.04642-.69668.08556-1.39391.11364-2.09178L504.414,442.525h19.23453S508.21226,447.84526,503.82121,456.55117Z" fill="#d88a55"/><path d="M523.28434,468.9511s-19.47783-2.61213-19.665-9.92391c0,0-.6876.29518-1.29223,1.8433a8.40815,8.40815,0,0,0-.54843,3.06127V478.875h22.49851Z" fill="#302e30"/><path d="M546.14307,478.875s-.652-5.70516-8.47623-8.80224-10.4323-8.80225-10.4323-8.80225l-23.98962,1.01335-.78708,12.679h.2264a.90558.90558,0,0,0-.90558.90558v2.101a.90558.90558,0,0,0,.90558.90558Z" fill="#302e30"/><path d="M528.248,441.0679s-5.57756,15.80148-1.01343,20.20261c0,0-3.239.61572-4.86907,12.84107l-19.90763.85131s-.38638-3.86381.78708-12.679c.34586-2.59817.58408-5.20954.68937-7.82852l1.67327-12.00334Z" fill="#f6a96c"/><path d="M503.82121,456.55117l-.00044-.00406c.04642-.69668.08556-1.39391.11364-2.09178L504.414,442.525h19.23453S508.21226,447.84526,503.82121,456.55117Z" fill="#d88a55"/><path d="M523.28434,468.9511s-19.47783-2.61213-19.665-9.92391c0,0-.6876.29518-1.29223,1.8433a8.40815,8.40815,0,0,0-.54843,3.06127V478.875h22.49851Z" fill="#302e30"/><path d="M566.22216,217.476s4.60255,91.81786-4.24335,129.68407c0,0-17.75352,79.41481-23.37067,105.3266l-40.81708-3.85185s7.746-101.82054,7.22544-123.27282-5.404-50.49613-3.92037-65.48718,13.99764-45.79865,13.99764-45.79865Z" fill="#7f6332"/><path d="M533.54277,333.97861a656.56421,656.56421,0,0,1-18.14283-63.99485c-2.29718-10.585-1.68055-30.70288-1.15259-41.17333.89319-2.58912,49.88533-1.35819,52.64509,6.526.84479,28.63562,1.49573,84.38733-4.91363,111.82361,0,0-11.04293,43.918-16.63552,74.71448C539.61666,391.70164,537.495,345.273,533.54277,333.97861Z" fill="#5f4c24"/><polygon points="566.536 210.041 566.536 215.333 515.295 215.333 515.295 210.004 566.536 210.041" fill="#f6a96c"/><path d="M624.20992,469.19807s-2.0215-5.37471-10.36434-6.47354-12.26152-5.99727-12.26152-5.99727l-23.02094,6.82389,2.32373,12.4891.21958-.05512a.90558.90558,0,0,0-.65784,1.09882l.51154,2.03772a.90559.90559,0,0,0,1.09882.65784Z" fill="#302e30"/><path d="M597.648,436.88589s-1.56233,16.684,3.936,19.84137c0,0-2.99163,1.38584-1.596,13.64015l-19.10123,5.67284s-1.31553-3.65345-2.32373-12.4891c-.29716-2.60419-.70192-5.195-1.23748-7.76077L576.026,443.74087Z" fill="#f6a96c"/><path d="M577.72626,457.85067l-.00142-.00383q-.18688-1.03053-.39909-2.0565L574.886,444.10226l18.65568-4.68325S579.86544,448.33762,577.72626,457.85067Z" fill="#d88a55"/><path d="M599.62282,465.13851s-19.52767,2.209-21.48951-4.83718c0,0-.595.45372-.80452,2.10246a8.408,8.408,0,0,0,.21343,3.10268L581.18063,480l21.82142-5.478Z" fill="#302e30"/><path d="M563.795,212.50456s32.59528,85.96074,35.81362,124.71306c0,0,8.30137,79.90267,8.30137,107.58305l-36.13288,9.07067S545.79162,354.233,538.704,333.97869s-20.65986-46.39216-23.85476-61.11376-.75349-47.884-.75349-47.884Z" fill="#7f6332"/><path d="M490.62651,273.5559s-.8539,6.48777-.12536,7.2163,10.36143,8.33772,13.43748,8.49962.60917-3.32685-1.78087-5.26167-3.36136-6.03215-3.36136-6.03215,2.92258-5.74551,2.65628-7.58728S490.62651,273.5559,490.62651,273.5559Z" fill="#d88a55"/><path d="M499.72928,189.278s-5.34259,35.47773-6.07113,53.2055-3.157,27.92731-3.157,30.35577,9.71384,22.82754,10.56381,22.82754,2.91415.60711,1.94276-2.54989-6.314-19.62074-4.49265-21.64912,3.39985-2.02838,3.88554,1.37147.36427,8.86388,3.27842,7.77108-.12142-18.942,0-20.64193,1.98325-28.81774,12.83037-50.83579l-.56664-19.87242Z" fill="#f6a96c"/><path d="M555.97164,143.39026s8.6733,11.89451,10.56457,34.48827c1.15909,13.847,3.76411,37.21206,0,37.45491s-51.2413,0-51.2413,0L505.679,259.96838l-15.41984,2.0506,4.41567-82.569s4.46455-49.60966,31.06243-54.57671Z" fill="#7f6332"/><path d="M547.59345,78.3682s10.84713,3.39985,8.74246,17.97062c0,0,4.43194,5.70688,4.97835,6.25329s.12142,2.00348-2.79273,2.97486a5.58335,5.58335,0,0,1,.97138,2.42847c0,1.03209-.66783,3.64269-.66783,4.67478s.18214,6.67827-3.88553,6.98183-6.43543.66783-7.3461,1.5785a9.1492,9.1492,0,0,0-1.45708,8.98531c1.5785,4.49265,9.83527,13.1744,9.83527,13.1744s-16.27069-2.61059-30.23435-18.517c0,0,6.43543-4.54925,6.07116-18.63432,0,0-5.04136-12.74943.787-15.05646a10.24953,10.24953,0,0,1,4.79851,6.61344l-3.7034-14.06073A61.41191,61.41191,0,0,1,547.59345,78.3682Z" fill="#f6a96c"/><path d="M490.54713,273.55436s-.8539,6.48778-.12536,7.21631,10.36144,8.33772,13.43749,8.49962.60916-3.32685-1.78088-5.26167-3.36136-6.03215-3.36136-6.03215,2.92258-5.74551,2.65628-7.58728S490.54713,273.55436,490.54713,273.55436Z" fill="#d88a55"/><path d="M501.53111,262.019l2.176,2.7404c.02024.07757.04722.17876.07421.3103.715,3.2683,4.62066,14.48829,1.81781,15.54063-2.22946.83647-2.68142-2.162-2.98835-5.14025-.09444-.91742-.17539-1.83146-.29007-2.63083a4.08052,4.08052,0,0,0-.94777-2.4487c-.742-.6712-1.791-.199-2.93777,1.07594-.65433.72854-.38451,3.329.28332,6.50963a.13231.13231,0,0,0,.01012.04722c.62735,3.00185,1.59874,6.51637,2.46894,9.44739.09781.34066.199.6712.29344.995.64084,2.12153,1.18387,3.83494,1.43684,4.65117.97138,3.157-1.09281,2.54989-1.94277,2.54989-.10119,0-.33054-.29344-.65434-.81286-1.09955-1.75726-3.28854-6.115-5.32912-10.51322a91.6707,91.6707,0,0,1-4.45556-10.783v-.00337a3.16116,3.16116,0,0,1-.12479-.71505c0-1.85845.36043.22,1.35543-10.617Z" fill="#f6a96c"/><line x1="543.62808" y1="236.64029" x2="453.87003" y2="314.88029" fill="none" stroke="#1c1b1c" stroke-miterlimit="10" stroke-width="5"/><path d="M501.53111,262.019l4.35892,1.56131c.02024.07757.04722.17876.0742.3103.71505,3.2683,2.4377,15.66738-.36515,16.71972-2.22946.83647-2.68142-2.162-2.98835-5.14025-.09444-.91742-.17539-1.83146-.29007-2.63083a4.08052,4.08052,0,0,0-.94777-2.4487c-.742-.6712-1.791-.199-2.93777,1.07594-.65433.72854-7.65349,1.59274-6.65849-9.24427Z" fill="#f6a96c"/><path d="M551.98722,98.4963a1.5187,1.5187,0,0,0,0-3.03558,1.5187,1.5187,0,0,0,0,3.03558Z" fill="#433f43"/><path d="M555.30619,93.44376a13.96139,13.96139,0,0,0-2.875-.3526,8.3723,8.3723,0,0,0-1.37939.09768c-.47461.05637-.94385.179-1.49292.25492a3.17649,3.17649,0,0,1,1.26172-1.00989,3.74687,3.74687,0,0,1,1.61377-.35394,3.883,3.883,0,0,1,1.6101.35137A2.98965,2.98965,0,0,1,555.30619,93.44376Z" fill="#433f43"/><ellipse cx="533.69051" cy="99.87638" rx="1.88206" ry="2.89787" fill="#d88a55"/><path d="M546.49772,131.08357c-3.14468-1.388-7.88958-7.42456-7.88958-7.42456,2.87368-.60711,8.98527-2.42847,8.98527-2.42847a9.40177,9.40177,0,0,0-1.09569,9.853Z" fill="#d88a55"/><path d="M553.499,82.77559s-12.58878-1.44912-11.92536.87282,3.64876,4.80973,1.65852,7.62923a17.313,17.313,0,0,0-2.48779,6.8h-3.42289s-1.05514-5.639-4.3722-3.98047-3.23278,9.19426-.91084,11.01864c0,0-.01976,10.71556-1.41523,11.476,0,0-11.20079-18.17464-11.78906-21.44282-.72854-4.04743.18349-14.98344,11.21271-17.80294S549.60142,77.13659,553.499,82.77559Z" fill="#210d11"/><path d="M537.39391,97.7959l1.44-1.40552,1.83843,1.16267s9.55289,11.454,13.49694,10.03607c1.96794-1.55517,5.54258-.8538,5.54258-.8538s1.59854,6.6772,0,10.25089c-1.09346,2.44419-6.61644,3.16315-9.99846,3.37346a8.20751,8.20751,0,0,1-5.35375-1.55307C540.5357,116.01367,534.308,109.469,537.39391,97.7959Z" fill="#210d11"/><path d="M559.49291,107.99544s-2.36775.18213-2.67131,1.5785h2.67131S560.16074,108.66326,559.49291,107.99544Z" fill="#bb5d4c"/><path d="M556.8216,109.57394a2.51906,2.51906,0,0,0,1.36119,2.19041,1.285,1.285,0,0,0,1.62245-1.807,1.80618,1.80618,0,0,0-.31233-.38339Z" fill="#a44f3e"/><polygon points="515.295 215.333 518.509 169.8 522.631 215.367 515.295 215.333" fill="#5f4c24"/><path d="M519.62476,98.56377l-3.13592-14.24192L511.706,83.26764s41.22344-12.49187,43.45886-14.80477c0,0,1.88946,5.60952-1.60463,8.78548l2.30788,10.17092S523.9143,95.88248,519.62476,98.56377Z" fill="#302e30"/><path d="M553.5603,77.24833a6.71133,6.71133,0,0,0,2.07832-4.59256c-5.128,3.4981-39.1498,11.66607-39.1498,11.66607C529.35375,84.139,553.5603,77.24833,553.5603,77.24833Z" fill="#efd050"/><path d="M525.73729,124.87324v-4.49749s22.30713,15.22454,26.24993,15.76454l4.83438,8.55739S535.68456,139.3462,525.73729,124.87324Z" fill="#7f6332"/><path d="M548.99943,136.794l-2.42847,7.25s-27.59969-14.6984-27.779-16.65517l3.95759-1.86185Z" fill="#5f4c24"/><rect x="538.93318" y="164.58029" width="14.89082" height="5.22" fill="#302e30"/><polygon points="567.419 222.329 513.754 222.329 515.295 215.333 567.419 215.333 567.419 222.329" fill="#302e30"/><polygon points="546.571 144.044 550.754 146.211 551.987 136.14 547.221 142.105 546.571 144.044" fill="#5f4c24"/><path d="M551.98722,136.14029l-2.42846,7.25s-28.01-15.27643-28.18937-17.2332l4.3679-1.28382v-4.49749Z" fill="#7f6332"/><polygon points="505.679 259.968 522.631 222.329 513.754 222.329 505.679 259.968" fill="#5f4c24"/><polygon points="515.295 215.333 522.631 215.367 522.631 222.329 513.754 222.329 515.295 215.333" fill="#1c1b1c"/><path d="M508.54122,154.37434s-.50125-6.3,9.01937-14.04l6.10063,3.24s-7.38455,9-7.56227,12.06Z" fill="#302e30"/><path d="M511.19321,147.1076c-2.8833,4.32788-2.652,7.26672-2.652,7.26672l7.55774,1.26c.06909-1.18994,1.23084-3.2782,2.62158-5.38611Z" fill="#efd050"/><path d="M168.06312,478.875s-.652-5.70516-8.47623-8.80224-10.4323-8.80225-10.4323-8.80225L125.165,462.28386l-.78708,12.679h.2264a.90558.90558,0,0,0-.90558.90558v2.101a.90559.90559,0,0,0,.90559.90558Z" fill="#302e30"/><path d="M150.168,441.0679s-5.57756,15.80148-1.01343,20.20261c0,0-3.239.61572-4.86907,12.84107l-19.90763.85131s-.38638-3.86381.78708-12.679c.34586-2.59817.58408-5.20954.68937-7.82852l1.67327-12.00334Z" fill="#f6a96c"/><path d="M125.74126,456.55117l-.00044-.00406c.04642-.69668.08556-1.39391.11364-2.09178L126.334,442.525h19.23453S130.13231,447.84526,125.74126,456.55117Z" fill="#d88a55"/><path d="M145.20439,468.9511s-19.47783-2.61213-19.665-9.92391c0,0-.6876.29518-1.29223,1.8433a8.40815,8.40815,0,0,0-.54843,3.06127V478.875h22.49851Z" fill="#302e30"/><path d="M168.06312,478.875s-.652-5.70516-8.47623-8.80224-10.4323-8.80225-10.4323-8.80225L125.165,462.28386l-.78708,12.679h.2264a.90558.90558,0,0,0-.90558.90558v2.101a.90559.90559,0,0,0,.90559.90558Z" fill="#302e30"/><path d="M150.168,441.0679s-5.57756,15.80148-1.01343,20.20261c0,0-3.239.61572-4.86907,12.84107l-19.90763.85131s-.38638-3.86381.78708-12.679c.34586-2.59817.58408-5.20954.68937-7.82852l1.67327-12.00334Z" fill="#f6a96c"/><path d="M125.74126,456.55117l-.00044-.00406c.04642-.69668.08556-1.39391.11364-2.09178L126.334,442.525h19.23453S130.13231,447.84526,125.74126,456.55117Z" fill="#d88a55"/><path d="M145.20439,468.9511s-19.47783-2.61213-19.665-9.92391c0,0-.6876.29518-1.29223,1.8433a8.40815,8.40815,0,0,0-.54843,3.06127V478.875h22.49851Z" fill="#302e30"/><path d="M188.14221,217.476s4.60255,91.81786-4.24335,129.68407c0,0-17.75352,79.41481-23.37067,105.3266l-40.81708-3.85185s7.746-101.82054,7.22544-123.27282-5.404-50.49613-3.92037-65.48718,13.99764-45.79865,13.99764-45.79865Z" fill="#7f6332"/><polygon points="188.456 210.041 188.456 215.333 137.215 215.333 137.215 210.004 188.456 210.041" fill="#f6a96c"/><path d="M112.54656,273.5559s-.8539,6.48777-.12536,7.2163,10.36143,8.33772,13.43748,8.49962.60917-3.32685-1.78087-5.26167-3.36136-6.03215-3.36136-6.03215,2.92258-5.74551,2.65628-7.58728S112.54656,273.5559,112.54656,273.5559Z" fill="#d88a55"/><path d="M121.64933,189.278s-5.34259,35.47773-6.07113,53.2055-3.157,27.92731-3.157,30.35577,9.71384,22.82754,10.56381,22.82754,2.91415.60711,1.94276-2.54989-6.314-19.62074-4.49265-21.64912,3.39985-2.02838,3.88554,1.37147.36427,8.86388,3.27842,7.77108-.12142-18.942,0-20.64193,1.98325-28.81774,12.83037-50.83579l-.56664-19.87242Z" fill="#f6a96c"/><path d="M177.89169,143.39026s8.6733,11.89451,10.56457,34.48827c1.15909,13.847,3.76411,37.21206,0,37.45491s-51.2413,0-51.2413,0l-9.61588,44.63494-15.41984,2.0506,4.41567-82.569s4.46455-49.60966,31.06243-54.57671Z" fill="#7f6332"/><path d="M169.5135,78.3682s10.84713,3.39985,8.74246,17.97062c0,0,4.43194,5.70688,4.97835,6.25329s.12142,2.00348-2.79273,2.97486a5.58335,5.58335,0,0,1,.97138,2.42847c0,1.03209-.66783,3.64269-.66783,4.67478s.18214,6.67827-3.88553,6.98183-6.43543.66783-7.3461,1.5785a9.1492,9.1492,0,0,0-1.45708,8.98531c1.5785,4.49265,9.83527,13.1744,9.83527,13.1744s-16.27069-2.61059-30.23435-18.517c0,0,6.43543-4.54925,6.07116-18.63432,0,0-5.04136-12.74943.78694-15.05646A10.24953,10.24953,0,0,1,159.314,97.7959l-3.7034-14.06073A61.41191,61.41191,0,0,1,169.5135,78.3682Z" fill="#f6a96c"/><path d="M112.46718,273.55436s-.8539,6.48778-.12536,7.21631,10.36144,8.33772,13.43749,8.49962.60916-3.32685-1.78088-5.26167-3.36136-6.03215-3.36136-6.03215,2.92258-5.74551,2.65628-7.58728S112.46718,273.55436,112.46718,273.55436Z" fill="#d88a55"/><path d="M123.45116,262.019l2.176,2.7404c.02024.07757.04722.17876.07421.3103.715,3.2683,4.62066,14.48829,1.81781,15.54063-2.22946.83647-2.68142-2.162-2.98835-5.14025-.09444-.91742-.17539-1.83146-.29007-2.63083a4.08045,4.08045,0,0,0-.94778-2.4487c-.742-.6712-1.791-.199-2.93776,1.07594-.65433.72854-.38451,3.329.28332,6.50963a.13231.13231,0,0,0,.01012.04722c.62735,3.00185,1.59874,6.51637,2.46894,9.44739.09781.34066.199.6712.29344.995.64084,2.12153,1.18387,3.83494,1.43683,4.65117.97139,3.157-1.0928,2.54989-1.94276,2.54989-.10119,0-.33054-.29344-.65434-.81286-1.09955-1.75726-3.28854-6.115-5.32912-10.51322a91.6707,91.6707,0,0,1-4.45556-10.783v-.00337a3.16116,3.16116,0,0,1-.12479-.71505c0-1.85845.36043.22,1.35543-10.617Z" fill="#f6a96c"/><line x1="165.54813" y1="236.64029" x2="75.79008" y2="314.88029" fill="none" stroke="#1c1b1c" stroke-miterlimit="10" stroke-width="5"/><path d="M123.45116,262.019l4.35892,1.56131c.02024.07757.04722.17876.0742.3103.71505,3.2683,2.4377,15.66738-.36515,16.71972-2.22946.83647-2.68142-2.162-2.98835-5.14025-.09444-.91742-.17539-1.83146-.29007-2.63083a4.08045,4.08045,0,0,0-.94778-2.4487c-.742-.6712-1.791-.199-2.93776,1.07594-.65433.72854-7.65349,1.59274-6.65849-9.24427Z" fill="#f6a96c"/><path d="M173.90727,98.4963a1.5187,1.5187,0,0,0,0-3.03558,1.5187,1.5187,0,0,0,0,3.03558Z" fill="#433f43"/><path d="M177.22611,93.44376a13.95749,13.95749,0,0,0-2.875-.3526,8.36951,8.36951,0,0,0-1.37915.09768c-.47461.05637-.94409.179-1.49316.25492a3.17994,3.17994,0,0,1,1.26172-1.00989,3.74847,3.74847,0,0,1,1.61377-.35394,3.883,3.883,0,0,1,1.6101.35137A2.98814,2.98814,0,0,1,177.22611,93.44376Z" fill="#433f43"/><ellipse cx="155.61056" cy="99.87638" rx="1.88206" ry="2.89787" fill="#d88a55"/><path d="M168.41777,131.08357c-3.14468-1.388-7.88958-7.42456-7.88958-7.42456,2.87368-.60711,8.98527-2.42847,8.98527-2.42847a9.40177,9.40177,0,0,0-1.09569,9.853Z" fill="#d88a55"/><path d="M175.419,82.77559s-12.58878-1.44912-11.92536.87282,3.64876,4.80973,1.65852,7.62923a17.313,17.313,0,0,0-2.48779,6.8h-3.42289s-1.05514-5.639-4.3722-3.98047-3.23278,9.19426-.91084,11.01864c0,0-.01976,10.71556-1.41523,11.476,0,0-11.20079-18.17464-11.78906-21.44282-.72854-4.04743.18349-14.98344,11.21271-17.80294S171.52147,77.13659,175.419,82.77559Z" fill="#210d11"/><path d="M181.413,107.99544s-2.36775.18213-2.67131,1.5785H181.413S182.08079,108.66326,181.413,107.99544Z" fill="#bb5d4c"/><path d="M178.74165,109.57394a2.51906,2.51906,0,0,0,1.36119,2.19041,1.285,1.285,0,0,0,1.62245-1.807,1.80618,1.80618,0,0,0-.31233-.38339Z" fill="#a44f3e"/><polygon points="137.215 215.333 140.429 169.8 144.551 215.367 137.215 215.333" fill="#5f4c24"/><path d="M142.55546,100.48l-3.82283-15.14053-4.8283-.88332S174.47353,68.882,176.59417,66.28c0,0,2.15925,5.92933-1.17673,9.52444l2.512,10.92045S146.70994,97.375,142.55546,100.48Z" fill="#302e30"/><path d="M175.41748,75.80442a7.53127,7.53127,0,0,0,1.85318-5.04352c-4.95237,4.02652-38.538,14.57855-38.538,14.57855C151.57354,84.47181,175.41748,75.80442,175.41748,75.80442Z" fill="#efd050"/><path d="M147.65734,124.87324v-4.49749s22.30713,15.22454,26.24993,15.76454l4.83438,8.55739S157.60461,139.3462,147.65734,124.87324Z" fill="#7f6332"/><path d="M170.91948,136.794l-2.42847,7.25s-27.59969-14.6984-27.779-16.65517l3.95759-1.86185Z" fill="#5f4c24"/><path d="M131.41008,149.46029s-.50125-6.3,9.01937-14.04l6.10063,3.24s-7.38455,9-7.56227,12.06Z" fill="#302e30"/><polygon points="189.339 222.329 135.674 222.329 137.215 215.333 189.339 215.333 189.339 222.329" fill="#302e30"/><polygon points="168.491 144.044 172.674 146.211 173.907 136.14 169.141 142.105 168.491 144.044" fill="#5f4c24"/><path d="M173.90727,136.14029l-2.42846,7.25s-28.01-15.27643-28.18937-17.2332l4.3679-1.28382v-4.49749Z" fill="#7f6332"/><polygon points="127.599 259.968 135.674 222.329 144.081 222.329 127.599 259.968" fill="#5f4c24"/><polygon points="135.674 222.329 137.215 215.333 144.551 215.367 144.081 222.329 135.674 222.329" fill="#1c1b1c"/><rect x="160.85323" y="164.58029" width="14.89082" height="5.22" fill="#302e30"/><path d="M134.06207,142.19354c-2.8833,4.32789-2.652,7.26673-2.652,7.26673l7.55774,1.26c.06909-1.18994,1.23084-3.2782,2.62158-5.38611Z" fill="#efd050"/><path d="M291.71383,478.875s-.652-5.70516-8.47624-8.80224-10.43229-8.80225-10.43229-8.80225l-23.98963,1.01335-.78707,12.679h.22639a.90559.90559,0,0,0-.90558.90559v2.10094a.90558.90558,0,0,0,.90558.90558Z" fill="#302e30"/><path d="M273.81872,441.0679s-5.57755,15.80148-1.01342,20.20261c0,0-3.239.61572-4.86907,12.84107l-19.90763.85131s-.38638-3.86381.78707-12.679c.34586-2.59817.58409-5.20954.68937-7.82852l1.67327-12.00334Z" fill="#f6a96c"/><path d="M249.392,456.55118l-.00044-.00407c.04643-.69668.08556-1.39391.11364-2.09178l.47954-11.93035h19.23454S253.783,447.84527,249.392,456.55118Z" fill="#d88a55"/><path d="M268.8551,468.9511s-19.47784-2.61213-19.665-9.92391c0,0-.68759.29518-1.29222,1.84331a8.40794,8.40794,0,0,0-.54844,3.06127V478.875h22.49851Z" fill="#302e30"/><path d="M295.61723,215.19662s10.68447,91.31016,4.37047,129.67985c0,0-8.25677,80.13923-12.14231,106.36662H236.362s7.28538-102.96678,5.34261-124.33724-8.74246-50.02631-8.25677-65.08277,10.92808-46.62646,10.92808-46.62646Z" fill="#efe2dd"/><path d="M238.30516,235.80729c2.92041-11.08166,6.0708-20.61072,6.0708-20.61072h51.24122s5.3496,45.72705,6.24023,86.06079c-7.96216.18116-50.57642.26734-63.64111.28968-.96387-5.95117-1.95142-11.877-2.7793-17.46192Z" fill="#d1c6c3"/><polygon points="295.617 209.904 295.617 215.197 244.376 215.197 244.376 209.867 295.617 209.904" fill="#f6a96c"/><path d="M219.70753,273.41908s-.8539,6.48777-.12536,7.21631,10.36143,8.33772,13.43749,8.49961.60916-3.32685-1.78088-5.26166-3.36136-6.03216-3.36136-6.03216,2.92258-5.74551,2.65628-7.58728S219.70753,273.41908,219.70753,273.41908Z" fill="#d88a55"/><path d="M285.05266,143.25345s8.67331,11.8945,10.56457,34.48827c1.15909,13.847,10.13053,118.235,6.36641,118.47782s-68.58424.33361-68.58424.33361l6.36245-107.09822-16.52729-.39351s3.51906-59.78514,31.58376-64.325Z" fill="#efe2dd"/><path d="M276.67447,78.23139s10.84713,3.39984,8.74246,17.97061c0,0,4.43194,5.70689,4.97835,6.25329s.12142,2.00348-2.79273,2.97487a5.58329,5.58329,0,0,1,.97138,2.42846c0,1.03209-.66782,3.64269-.66782,4.67479s.18213,6.67827-3.88554,6.98182-6.43543.66783-7.3461,1.5785a9.14922,9.14922,0,0,0-1.45708,8.98531c1.5785,4.49266,9.83527,13.17441,9.83527,13.17441s-16.27069-2.6106-30.23434-18.517c0,0,6.43542-4.54925,6.07115-18.63433,0,0-5.04136-12.74942.78695-15.05646a10.24957,10.24957,0,0,1,4.79851,6.61344l-3.7034-14.06072A61.41132,61.41132,0,0,1,276.67447,78.23139Z" fill="#f6a96c"/><path d="M219.62816,273.41755s-.85391,6.48777-.12537,7.21631,10.36144,8.33772,13.43749,8.49961.60916-3.32685-1.78087-5.26166-3.36137-6.03216-3.36137-6.03216,2.92258-5.74551,2.65628-7.58728S219.62816,273.41755,219.62816,273.41755Z" fill="#d88a55"/><path d="M230.61214,261.88216l2.176,2.7404c.02023.07757.04722.17876.0742.3103.715,3.26831,4.62066,14.4883,1.81781,15.54063-2.22946.83647-2.68142-2.162-2.98835-5.14024-.09444-.91742-.17539-1.83147-.29007-2.63084a4.08052,4.08052,0,0,0-.94777-2.4487c-.742-.6712-1.791-.199-2.93777,1.07595-.65433.72854-.3845,3.329.28332,6.50962a.13248.13248,0,0,0,.01012.04722c.62735,3.00185,1.59874,6.51638,2.46894,9.44739.09781.34066.199.6712.29344.995.64084,2.12153,1.18387,3.83494,1.43684,4.65118.97138,3.157-1.09281,2.54988-1.94277,2.54988-.10119,0-.33054-.29344-.65434-.81286-1.09955-1.75726-3.28854-6.115-5.32912-10.51321a91.67017,91.67017,0,0,1-4.45555-10.78305v-.00337a3.16064,3.16064,0,0,1-.1248-.71505c0-1.85844.36044.22,1.35543-10.617Z" fill="#f6a96c"/><path d="M281.06825,98.35948a1.5187,1.5187,0,0,0,0-3.03558,1.5187,1.5187,0,0,0,0,3.03558Z" fill="#433f43"/><path d="M277.64579,94.4491a13.95574,13.95574,0,0,0,2.64893-1.1716,8.3527,8.3527,0,0,0,1.134-.79114c.37866-.29181.71875-.63776,1.15112-.98453a3.17766,3.17766,0,0,1-.56518,1.514,3.74841,3.74841,0,0,1-1.2041,1.13141,3.88178,3.88178,0,0,1-1.56226.524A2.98906,2.98906,0,0,1,277.64579,94.4491Z" fill="#433f43"/><ellipse cx="262.77153" cy="99.73956" rx="1.88206" ry="2.89787" fill="#d88a55"/><path d="M275.57874,130.94675c-3.14468-1.388-7.88958-7.42456-7.88958-7.42456,2.87369-.60711,8.98527-2.42846,8.98527-2.42846a9.40176,9.40176,0,0,0-1.09569,9.853Z" fill="#d88a55"/><path d="M282.58,82.63877s-12.58877-1.44912-11.92536.87282,3.64876,4.80974,1.65853,7.62924a17.31287,17.31287,0,0,0-2.4878,6.8h-3.42289s-1.05514-5.639-4.3722-3.98047-3.23278,9.19425-.91084,11.01864c0,0-.01976,10.71555-1.41523,11.476,0,0-11.20078-18.17464-11.78906-21.44281-.72853-4.04744.18349-14.98345,11.21271-17.80295S278.68244,76.99977,282.58,82.63877Z" fill="#433f43"/><path d="M288.57393,107.85862s-2.36775.18213-2.67131,1.5785h2.67131S289.24176,108.52645,288.57393,107.85862Z" fill="#bb5d4c"/><path d="M285.90262,109.43712a2.51906,2.51906,0,0,0,1.36119,2.19041,1.285,1.285,0,0,0,1.62245-1.807,1.80618,1.80618,0,0,0-.31233-.38339Z" fill="#a44f3e"/><path d="M287.60255,105.43016s-3.50893-.59388-5.48893.36612a2.45168,2.45168,0,0,0-1.68,2.52l8.14031-.45766A3.44463,3.44463,0,0,0,287.60255,105.43016Z" fill="#433f43"/><path d="M228.8103,189.14114s-5.34259,35.47773-6.07113,53.2055-3.157,27.92731-3.157,30.35577S229.296,295.53,230.146,295.53s2.91415.60712,1.94277-2.54988-6.314-19.62075-4.49266-21.64913,3.39985-2.02837,3.88554,1.37147.36427,8.86389,3.27842,7.77108-.12142-18.942,0-20.64192a134.02026,134.02026,0,0,1,12.82654-44.635l-.56281-26.07327Z" fill="#f6a96c"/><path d="M237.94933,260.83977s-14.13055-6.27989-18.36716-4.59989,14.09093,9.36,18.36716,8.88S237.94933,260.83977,237.94933,260.83977Z" fill="#999299"/><path d="M221.82548,257.0799c-1.55249,1.08959-3.06714,2.05816-4.426,3.10333-1.33813,1.00818-2.58154,2.21637-2.84472,3.237a2.263,2.263,0,0,0-.0647.72888,2.89834,2.89834,0,0,0,.24023.80945,5.87664,5.87664,0,0,0,1.1687,1.67688,3.39275,3.39275,0,0,0,1.811.92383,6.70213,6.70213,0,0,0,2.59253-.12024,4.42568,4.42568,0,0,1-5.80566,1.24664,6.20553,6.20553,0,0,1-2.35181-2.39465,4.95856,4.95856,0,0,1-.61084-1.756,4.56516,4.56516,0,0,1,.15723-1.95916,5.97449,5.97449,0,0,1,1.98486-2.82215,10.54613,10.54613,0,0,1,2.583-1.55108A13.81346,13.81346,0,0,1,221.82548,257.0799Z" fill="#999299"/><polygon points="239.762 189.455 237.211 244.873 281.695 206.658 247.726 167.778 239.762 189.455" fill="#efe2dd"/><path d="M263.06737,451.24309l6.92921-155.66629C272.69774,203.536,245.079,129.05829,245.079,129.05829" fill="none" stroke="#433f43" stroke-miterlimit="10" stroke-width="5.68976"/><path d="M285.59542,88.78759s-28.62577,10.50967-34.02289,13.84984c0,0-10.693-13.86093,2.12327-23.397a21.80758,21.80758,0,0,1,9.27257-3.90453C269.74715,74.14684,281.74,74.29413,285.59542,88.78759Z" fill="#efe2dd"/><path d="M283.11332,82.7858s-26.74744,11.75624-34.84267,13.334" fill="none" stroke="#433f43" stroke-miterlimit="10" stroke-width="3"/></svg>