<svg id="Layer_1" data-name="Layer 1" xmlns="http://www.w3.org/2000/svg" viewBox="0 0 700 550"><title>police taking away the criminal</title><path d="M285.69931,231.37958h76.58856a14.73232,14.73232,0,0,1,14.73232,14.73232v27.689a0,0,0,0,1,0,0H270.967a0,0,0,0,1,0,0v-27.689A14.73232,14.73232,0,0,1,285.69931,231.37958Z" fill="#ab695d"/><path d="M387.804,344.86431s.85752,6.51525.12589,7.24688-10.40532,8.373-13.4944,8.53561-.61175-3.34094,1.78841-5.284,3.37561-6.05771,3.37561-6.05771-2.935-5.76985-2.66754-7.61942S387.804,344.86431,387.804,344.86431Z" fill="#d88a55"/><path d="M378.66268,260.22939s5.36523,35.628,6.09685,53.43087,3.17037,28.0456,3.17037,30.48435-9.755,22.92423-10.60855,22.92423-2.9265.60969-1.951-2.56068,6.34074-19.70386,4.51168-21.74083-3.41424-2.037-3.902,1.37728-.36582,8.90143-3.29231,7.804.12193-19.02223,0-20.72936-1.99165-28.93981-12.88472-51.05113l.569-19.95659Z" fill="#f6a96c"/><path d="M274.47174,260.5681s-5.36522,35.628-6.09685,53.43087-3.17037,28.04561-3.17037,30.48435,9.755,22.92424,10.60856,22.92424,2.92649.60968,1.951-2.56069-6.34075-19.70386-4.51169-21.74083,3.41425-2.037,3.902,1.37728.36581,8.90143,3.29231,7.804-.12194-19.02224,0-20.72936,1.99164-28.93981,12.88472-51.05113l-.569-19.9566Z" fill="#f6a96c"/><path d="M277.29964,379.11355c-3.0926-58.31164,14.38828-98.60672,14.38828-98.60672h69.9076s17.47769,44.68482,15.153,98.60672" fill="#302e30"/><line x1="328.87916" y1="351.30337" x2="324.99942" y2="351.30337" fill="#302e30"/><path d="M346.44813,304.11369s11.503,101.30938,5.03142,129.59886" fill="none" stroke="#433f43" stroke-miterlimit="10" stroke-width="0.33872"/><path d="M304.4445,304.11369s-11.503,101.30938-5.03142,129.59886" fill="none" stroke="#433f43" stroke-miterlimit="10" stroke-width="0.33872"/><path d="M341.56444,193.89062a57.61368,57.61368,0,0,0,15.71924,5.48719c9.26725,1.82906,14.26668,7.1943,18.29061,17.43705s5.27041,28.08723,6.48978,43.73537l-18.62255.0645-.67065,13.1449s-.19414,6.7472-2.06385,6.7472H293.205c-1.8697,0-2.48848-6.7472-2.48848-6.7472l-.67066-13.1449-18.62255-.0645c1.21937-15.64814,2.46585-33.49263,6.48978-43.73537s9.02337-15.608,18.29061-17.437a53.18169,53.18169,0,0,0,15.85186-5.853" fill="#efe2dd"/><path d="M317.39954,180.25537s.99679,9.61132-5.344,13.26944c0,0-1.34131,11.21824,9.755,14.9983s20.11967-5.48718,19.75386-14.63249c0,0-6.41961-3.516-5.40468-14.43949Z" fill="#f6a96c"/><path d="M317.44286,182.42722s8.61044,8.474,21.152,8.50544v-.00054c-1.52107-2.23061-2.95548-5.88021-2.435-11.481l-18.76031.80422a17.66713,17.66713,0,0,1,.04333,2.1718Z" fill="#d88a55"/><path d="M357.34854,280.50683h3.14618a2.3129,2.3129,0,0,0,2.27624-1.71136l.67048-15.37394v-19.3589S357.00767,265.22938,357.34854,280.50683Z" fill="#fea613"/><path d="M290.27833,244.06263v24.68906l.43828,10.04378a2.31261,2.31261,0,0,0,2.27608,1.71136h3.37871C296.71227,265.22938,290.27833,244.06263,290.27833,244.06263Z" fill="#fea613"/><line x1="363.44144" y1="260.61472" x2="363.44144" y2="237.47801" fill="none" stroke="#433f43" stroke-miterlimit="10" stroke-width="0.33872"/><line x1="290.27833" y1="260.61472" x2="290.27833" y2="237.47801" fill="none" stroke="#433f43" stroke-miterlimit="10" stroke-width="0.33872"/><path d="M317.25825,206.11553s-2.54771,221.0158-4.98646,224.91779-44.38522,3.41425-44.38522,0,12.11774-105.73984,12.255-106.58833-10.54673,3.18541-14.937-.22884c-4.18732-3.25638-1.01173-96.76711,18.153-119.33615a14.57157,14.57157,0,0,1,5.39127-3.95606,81.72743,81.72743,0,0,1,15.0687-4.49819s5.852-1.802,8.18728-3.73941C312.00474,192.68634,311.59551,202.22962,317.25825,206.11553Z" fill="#433f43"/><path d="M265.33042,345.203s-.85752,6.51526-.1259,7.24688,10.40533,8.373,13.49441,8.53562.61175-3.34094-1.78842-5.284-3.3756-6.05771-3.3756-6.05771,2.935-5.76985,2.66753-7.61942S265.33042,345.203,265.33042,345.203Z" fill="#d88a55"/><path d="M276.9743,324.83262l2.61149,3.28892c.02032.0779.04742.17952.07452.31162.71807,3.28214,3.60054,22.7989.78581,23.85569-2.2389.84-2.69278-2.17116-3.001-5.162-.09484-.92131-.17613-1.83922-.2913-2.642a4.09781,4.09781,0,0,0-.95178-2.45907c-.74518-.674-1.79858-.19984-2.95021,1.0805-.65711.73163-.38614,3.34312.28452,6.5372a.13307.13307,0,0,0,.01016.04742c.63,3.01456,1.60551,6.544,2.47939,9.48741.09823.3421.19985.674.29469.99921.64355,2.13052,1.18889,3.85119,1.44292,4.67088.9755,3.17037-1.09744,2.56068-1.951,2.56068-.10161,0-.33194-.29468-.6571-.8163-1.10422-1.7647-3.30248-6.1409-5.3517-10.55775a92.05807,92.05807,0,0,1-4.47443-10.82872v-.00338a3.17418,3.17418,0,0,1-.12532-.71808c0-1.86632,1.426-8.29174,2.4252-19.17466Z" fill="#f6a96c"/><path d="M280.14157,324.445s7.68329-82.53659,10.33467-90.58446c0,0-4.20656,8.41369-5.16734,13.16924s-7.885,77.71375-7.885,77.71375S280.43145,324.07939,280.14157,324.445Z" fill="#302e30"/><path d="M336.65943,206.11553s2.54771,221.0158,4.98646,224.91779,44.38522,3.41425,44.38522,0-12.11774-105.73984-12.255-106.58833,10.54672,3.18541,14.937-.22884-.17207-104.94943-21.91255-121.00354c0,0-2.83218-2.81343-15.13153-5.40983,0,0-7.47169-2.3405-9.807-4.278C341.8621,193.52481,342.32218,202.22962,336.65943,206.11553Z" fill="#433f43"/><path d="M388.58726,345.203s.85752,6.51526.1259,7.24688-10.40533,8.373-13.49441,8.53562-.61174-3.34094,1.78842-5.284,3.3756-6.05771,3.3756-6.05771-2.935-5.76985-2.66753-7.61942S388.58726,345.203,388.58726,345.203Z" fill="#d88a55"/><path d="M386.28853,325.3102c.99921,10.88292,2.4252,17.30834,2.4252,19.17466a3.17418,3.17418,0,0,1-.12532.71808v.00338A92.05807,92.05807,0,0,1,384.114,356.035c-2.04922,4.41685-4.24748,8.793-5.3517,10.55775-.32516.52162-.55549.8163-.6571.8163-.85356,0-2.9265.60969-1.951-2.56068.254-.81969.79937-2.54036,1.44293-4.67088.09484-.32517.19645-.65711.29468-.99921.87388-2.94344,1.84938-6.47285,2.47939-9.48741a.13285.13285,0,0,0,.01016-.04742c.67066-3.19408.94163-5.80557.28452-6.5372-1.15163-1.28034-2.205-1.75454-2.9502-1.0805a4.0978,4.0978,0,0,0-.95179,2.45907c-.11517.80276-.19646,1.72067-.2913,2.642-.30823,2.99085-.76211,6.002-3.001,5.162-2.81473-1.05679.06774-20.57355.78582-23.85569.02709-.1321.05419-.23372.07451-.31162l2.6115-3.28892Z" fill="#f6a96c"/><path d="M373.77612,324.445s-7.6833-82.53659-10.33468-90.58446c0,0,4.20656,8.41369,5.16734,13.16924s7.885,77.71375,7.885,77.71375S373.48623,324.07939,373.77612,324.445Z" fill="#302e30"/><path d="M341.56438,193.89063a8.69571,8.69571,0,0,1-2.0523-1.77455c0,.00025-2.60354,13.10521-12.72216,13.08917-10.11878-.01606-11.88016-14.27259-11.88016-14.27259l-.00017,0a9.15872,9.15872,0,0,1-2.85394,2.5921s-1.34146,11.21824,9.75493,14.99829S341.93022,203.03594,341.56438,193.89063Z" fill="#faf7f7"/><polygon points="321.515 207.519 316.894 255.918 323.885 256.893 326.683 221.613 329.368 256.893 335.754 255.105 333.098 208.184 321.515 207.519" fill="#faf7f7"/><path d="M341.651,159.44624a1.23384,1.23384,0,0,0-.49451.11243c-1.71773-8.863-7.61051-15.39525-14.61883-15.39525-7.02983,0-12.93849,6.57181-14.63587,15.47625a1.28882,1.28882,0,0,0-.65047-.19343,4.90294,4.90294,0,0,0-3.82063,6.66591c1.11554,3.50838,2.2941,6.66591,3.82063,6.66591a1.56531,1.56531,0,0,0,1.12729-.58361c2.1555,7.845,7.68046,13.42768,14.159,13.42768,6.4417,0,11.93921-5.52006,14.12068-13.29458a1.47041,1.47041,0,0,0,.99266.45051c1.52653,0,2.70525-3.15753,3.82079-6.66591A4.903,4.903,0,0,0,341.651,159.44624Z" fill="#f6a96c"/><path d="M333.19676,163.57179a1.52513,1.52513,0,0,0,0-3.04844,1.52513,1.52513,0,0,0,0,3.04844Z" fill="#433f43"/><path d="M320.27139,163.57179a1.52513,1.52513,0,0,0,0-3.04844,1.52513,1.52513,0,0,0,0,3.04844Z" fill="#433f43"/><path d="M327.12868,164.89278s-2.76223,4.7962,0,4.87749a4.44933,4.44933,0,0,0,1.45355-.1983" fill="#d88a55"/><path d="M329.86377,158.49786a3.00162,3.00162,0,0,1,1.26709-1.01678,3.90043,3.90043,0,0,1,1.61694-.35285,3.76353,3.76353,0,0,1,1.62061.35547,3.19145,3.19145,0,0,1,1.26709,1.01416c-.55152-.07629-1.02271-.1994-1.49951-.256a8.41431,8.41431,0,0,0-1.385-.09808A14.01931,14.01931,0,0,0,329.86377,158.49786Z" fill="#433f43"/><path d="M317.3855,158.49786a3.00162,3.00162,0,0,1,1.26709-1.01678,3.90043,3.90043,0,0,1,1.61694-.35285,3.76353,3.76353,0,0,1,1.62061.35547,3.19145,3.19145,0,0,1,1.26709,1.01416c-.55152-.07629-1.02271-.1994-1.49952-.256a8.41411,8.41411,0,0,0-1.385-.09808A14.01931,14.01931,0,0,0,317.3855,158.49786Z" fill="#433f43"/><ellipse cx="343.00157" cy="166.05454" rx="3.23057" ry="1.22686" transform="translate(129.55175 481.74959) rotate(-81.76896)" fill="#d88a55"/><ellipse cx="310.15493" cy="166.05454" rx="1.22686" ry="3.23057" transform="translate(-20.57825 46.1139) rotate(-8.23104)" fill="#d88a55"/><path d="M331.282,171.921s-.44969-.04389-.69166-.04389h-8.27817a2.2967,2.2967,0,0,0-.44423.04389h0c-3.17331.04389-9.48932-5.28453-9.48932-5.28453v5.558c1.58128,8.10746,5.52132,11.12162,7.64425,12.18289a9.481,9.481,0,0,0,1.01647.42592,3.97732,3.97732,0,0,0,.392.1118v-.00027a18.8204,18.8204,0,0,0,10.28715-.0044l.00016.00467s6.83914-1.37059,9.05286-12.72061v-5.558S334.45546,171.96489,331.282,171.921Z" fill="#d8cdca"/><path d="M312.1636,161.31941s-.05778,6.00911.34668,6.70247,1.50228,0,1.50228,0-.23112-6.52913,0-6.70247,3.35124-2.369,3.29346-4.56462-.57621-6.6447.00079-7.04916,9.41735-.40446,9.41735-.40446v-7.97364S308.81236,140.74973,312.1636,161.31941Z" fill="#d8cdca"/><path d="M340.946,161.31941s.05778,6.00911-.34668,6.70247-1.50228,0-1.50228,0,.23112-6.52913,0-6.70247-3.35124-2.369-3.29346-4.56462.57621-6.6447-.00079-7.04916-9.41735-.40446-9.41735-.40446v-7.97364S344.29724,140.74973,340.946,161.31941Z" fill="#d8cdca"/><path d="M323.03531,175.62327s3.25166-4.22717,7.31624,0Z" fill="#bb5d4c"/><path d="M323.03531,175.62327s3.902,5.20266,7.31624,0Z" fill="#a44f3e"/><circle cx="320.27139" cy="162.06454" r="3.99" fill="none" stroke="#433f43" stroke-miterlimit="10" stroke-width="1.06854"/><circle cx="332.74965" cy="162.06454" r="3.99" fill="none" stroke="#433f43" stroke-miterlimit="10" stroke-width="1.06854"/><path d="M324.09025,160.90825s2.90242-1.68022,4.8408,0" fill="none" stroke="#433f43" stroke-miterlimit="10" stroke-width="1.06854"/><line x1="336.62303" y1="161.11975" x2="341.1565" y2="159.55867" fill="none" stroke="#433f43" stroke-linecap="round" stroke-miterlimit="10" stroke-width="1.069"/><line x1="316.39684" y1="161.11975" x2="311.9018" y2="159.63967" fill="none" stroke="#433f43" stroke-linecap="round" stroke-miterlimit="10" stroke-width="1.069"/><circle cx="134.67837" cy="267.14332" r="17.18062" fill="#ab695d"/><circle cx="533.30882" cy="267.14332" r="17.18062" fill="#ab695d"/><rect x="126.58802" y="288.95132" width="414.81114" height="162.10989" fill="#c38f86"/><circle cx="148.40049" cy="307.88939" r="18.93807" fill="#ab695d"/><path d="M167.33856,362.431a18.93064,18.93064,0,0,0-9.8478-16.6139V311.677H139.31022v34.14013a18.96348,18.96348,0,0,0-9.44183,20.53173c5.398,25.6464,9.44181,51.559,9.44182,77.7673v6.94505h18.18054v-6.94507c0-26.20831,4.04384-52.12088,9.44183-77.76727A19.006,19.006,0,0,0,167.33856,362.431Z" fill="#ab695d"/><circle cx="201.42709" cy="307.88939" r="18.93807" fill="#ab695d"/><path d="M220.36516,362.431a18.93065,18.93065,0,0,0-9.84779-16.6139V311.677H192.33682v34.14013a18.96348,18.96348,0,0,0-9.44183,20.53173c5.398,25.6464,9.44181,51.559,9.44182,77.7673v6.94505h18.18055v-6.94507c0-26.20831,4.04383-52.12088,9.44182-77.76727A19.006,19.006,0,0,0,220.36516,362.431Z" fill="#ab695d"/><circle cx="254.45369" cy="307.88939" r="18.93807" fill="#ab695d"/><path d="M273.39176,362.431a18.93065,18.93065,0,0,0-9.84779-16.6139V311.677H245.36342v34.14013a18.96348,18.96348,0,0,0-9.44183,20.53173c5.398,25.6464,9.44181,51.559,9.44182,77.7673v6.94505H263.544v-6.94507c0-26.20831,4.04383-52.12088,9.44182-77.76727A19.006,19.006,0,0,0,273.39176,362.431Z" fill="#ab695d"/><circle cx="307.48029" cy="307.88939" r="18.93807" fill="#ab695d"/><path d="M326.41836,362.431a18.93065,18.93065,0,0,0-9.84779-16.6139V311.677H298.39v34.14013a18.96348,18.96348,0,0,0-9.44183,20.53173c5.398,25.6464,9.44181,51.559,9.44183,77.7673v6.94505h18.18055v-6.94507c0-26.20831,4.04383-52.12088,9.44182-77.76727A19.006,19.006,0,0,0,326.41836,362.431Z" fill="#ab695d"/><circle cx="360.50689" cy="307.88939" r="18.93807" fill="#ab695d"/><path d="M379.445,362.431a18.93065,18.93065,0,0,0-9.84779-16.6139V311.677H351.41662v34.14013a18.96348,18.96348,0,0,0-9.44183,20.53173c5.398,25.6464,9.44182,51.559,9.44183,77.7673v6.94505h18.18055v-6.94507c0-26.20831,4.04384-52.12088,9.44182-77.76727A19.006,19.006,0,0,0,379.445,362.431Z" fill="#ab695d"/><circle cx="413.53349" cy="307.88939" r="18.93807" fill="#ab695d"/><path d="M432.47156,362.431a18.93065,18.93065,0,0,0-9.84779-16.6139V311.677H404.44322v34.14013a18.96348,18.96348,0,0,0-9.44183,20.53173c5.398,25.6464,9.44182,51.559,9.44183,77.7673v6.94505h18.18055v-6.94507c0-26.20831,4.04384-52.12088,9.44182-77.76727A19.006,19.006,0,0,0,432.47156,362.431Z" fill="#ab695d"/><circle cx="466.56009" cy="307.88939" r="18.93807" fill="#ab695d"/><path d="M485.49817,362.431a18.93066,18.93066,0,0,0-9.8478-16.6139V311.677H457.46982v34.14013a18.96348,18.96348,0,0,0-9.44183,20.53173c5.398,25.6464,9.44182,51.559,9.44183,77.7673v6.94505h18.18055v-6.94507c0-26.20831,4.04384-52.12088,9.44183-77.76727A19.006,19.006,0,0,0,485.49817,362.431Z" fill="#ab695d"/><circle cx="519.58669" cy="307.88939" r="18.93807" fill="#ab695d"/><path d="M538.52477,362.431a18.93066,18.93066,0,0,0-9.8478-16.6139V311.677H510.49642v34.14013a18.96348,18.96348,0,0,0-9.44183,20.53173c5.398,25.6464,9.44182,51.559,9.44183,77.7673v6.94505H528.677v-6.94507c0-26.20831,4.04384-52.12088,9.44183-77.76727A19.006,19.006,0,0,0,538.52477,362.431Z" fill="#ab695d"/><rect x="126.58784" y="291.98104" width="414.81114" height="18.93807" fill="#ab695d"/><rect x="126.58784" y="422.27497" width="414.81114" height="25.75578" fill="#ab695d"/><rect x="117.49775" y="273.80086" width="432.99169" height="25.75578" rx="2" fill="#c38f86"/><rect x="117.49775" y="431.36561" width="432.99169" height="25.75578" rx="2" fill="#c38f86"/><path d="M444.60711,245.89729,416.683,268.26579a2.99113,2.99113,0,0,0,3.74186,4.66755l27.921-22.36995" fill="#ab695d"/><path d="M455.12426,259.02657a2.18132,2.18132,0,0,1,.33805-3.0602l11.40211-9.12971a2.17707,2.17707,0,0,1,2.72218,3.39828l-11.40214,9.12968a2.1734,2.1734,0,0,1-3.0602-.33805Zm0,0" fill="#c38f86"/><path d="M455.01776,256.32244l-2.38766-2.98554,12.28693-9.84237,2.39194,2.98605Zm12.29121-9.84186" fill="#ab695d"/><path d="M437.64156,237.20045a2.1733,2.1733,0,0,0,3.06017.33805l11.401-9.1298a2.17705,2.17705,0,0,0-2.72216-3.39825l-11.401,9.1298a2.17926,2.17926,0,0,0-.338,3.0602Zm0,0" fill="#c38f86"/><path d="M452.54733,228.05259l2.392,2.98609-12.29013,9.842-2.39306-2.98614Zm-12.29122,9.84193" fill="#ab695d"/><path d="M442.49985,243.27037a1.77771,1.77771,0,0,1,.2756-2.49482l12.03359-9.6355a1.77375,1.77375,0,0,1,2.49156.27523l7.75757,9.68427a1.77441,1.77441,0,0,1-.27511,2.49047l-12.0336,9.63553a1.77365,1.77365,0,0,1-2.49153-.27522l-7.75808-9.68Zm0,0" fill="#c38f86"/><path d="M440.64877,272.82707a5.44445,5.44445,0,0,1,5.44842-5.44846h28.12929a5.44913,5.44913,0,0,1,5.44842,5.44846v.8014H440.64877Zm0,.8014" fill="#ab695d"/><path d="M445.73939,261.3557a1.56046,1.56046,0,0,1,1.56206-1.56206h25.71927a1.56172,1.56172,0,0,1,1.56352,1.56206v6.02291H445.73939Zm0,6.02291" fill="#c38f86"/><path d="M244.27662,248.84009v-3.078H226.80468v3.06354a8.73617,8.73617,0,0,0,2.44739,6.06395l3.88849,4.03252-3.9057,4.07358a8.7361,8.7361,0,0,0-2.43018,6.04605v3.078h17.47194v-3.06355a8.73577,8.73577,0,0,0-2.44747-6.06394l-3.88849-4.03253,3.90578-4.07366A8.736,8.736,0,0,0,244.27662,248.84009Z" fill="#c38f86"/><path d="M228.65171,272.11973l5.748-8.52649a1.248,1.248,0,0,1,2.05769-.0174l5.97222,8.54389Z" fill="#ab695d"/><path d="M242.42958,249.864l-5.748,8.52649a1.248,1.248,0,0,1-2.05769.0174l-5.97222-8.54389Z" fill="#ab695d"/><path d="M246.59786,247.6339H224.43338a1.87187,1.87187,0,0,1,0-3.74373h22.16448a1.87187,1.87187,0,0,1,0,3.74373Z" fill="#ab695d"/><path d="M246.59786,273.99146H224.43338a1.87186,1.87186,0,1,1,0-3.74372h22.16448a1.87186,1.87186,0,1,1,0,3.74372Z" fill="#ab695d"/><path d="M407.50532,480s.652-5.70516,8.47624-8.80225,10.43229-8.80225,10.43229-8.80225l23.98963,1.01336.78707,12.679h-.2264a.90559.90559,0,0,1,.90559.90558v2.101a.90559.90559,0,0,1-.90559.90558Z" fill="#302e30"/><path d="M425.40042,442.1929s5.57756,15.80148,1.01343,20.2026c0,0,3.239.61573,4.86907,12.84107l19.90763.85132s.38638-3.86381-.78707-12.679c-.34586-2.59817-.58409-5.20954-.68937-7.82852L448.04083,443.577Z" fill="#f6a96c"/><path d="M449.82719,457.67617l.00044-.00406c-.04643-.69668-.08556-1.39391-.11364-2.09178L449.23445,443.65H429.99991S445.43613,448.97026,449.82719,457.67617Z" fill="#d88a55"/><path d="M430.36405,470.07609s19.47784-2.61212,19.665-9.9239c0,0,.68759.29518,1.29222,1.8433a8.40819,8.40819,0,0,1,.54844,3.06127V480H429.37123Z" fill="#302e30"/><polygon points="403.602 211.029 403.602 216.322 454.843 216.322 454.843 210.992 403.602 211.029" fill="#f6a96c"/><path d="M403.60192,216.32162s-10.68447,91.31015-4.37047,129.67984c0,0,8.25677,80.13924,12.1423,106.36662h51.48339s-7.28538-102.96677-5.34262-124.33723,8.74247-50.02631,8.25677-65.08277-10.92807-46.62646-10.92807-46.62646Z" fill="#6354b1"/><path d="M479.51161,274.54407s.85391,6.48777.12537,7.21631-10.36144,8.33772-13.43749,8.49962-.60916-3.32685,1.78087-5.26167,3.36137-6.03216,3.36137-6.03216-2.92258-5.74551-2.65628-7.58727S479.51161,274.54407,479.51161,274.54407Z" fill="#d88a55"/><path d="M414.16649,144.37844s-8.67331,11.89451-10.56457,34.48827c-1.15909,13.847-3.76412,37.21206,0,37.45491s51.2413,0,51.2413,0l4.61407-25.7417,16.5273-.3935s-3.51907-59.78514-31.58376-64.325Z" fill="#fdb441"/><path d="M422.54468,79.35638s-10.84713,3.39985-8.74246,17.97062c0,0-4.43195,5.70688-4.97835,6.25329s-.12142,2.00348,2.79273,2.97486a5.58335,5.58335,0,0,0-.97138,2.42846c0,1.0321.66782,3.6427.66782,4.67479s-.18213,6.67827,3.88554,6.98183,6.43543.66783,7.3461,1.5785a9.1492,9.1492,0,0,1,1.45708,8.98531c-1.5785,4.49265-9.83527,13.1744-9.83527,13.1744s16.27069-2.61059,30.23434-18.517c0,0-6.43542-4.54925-6.07115-18.63432,0,0,5.04136-12.74943-.78695-15.05647a10.24957,10.24957,0,0,0-4.79851,6.61345l3.7034-14.06073A61.41191,61.41191,0,0,0,422.54468,79.35638Z" fill="#f6a96c"/><path d="M479.591,274.54254s.85391,6.48777.12537,7.21631-10.36144,8.33772-13.43749,8.49962-.60917-3.32685,1.78087-5.26167,3.36137-6.03216,3.36137-6.03216-2.92258-5.74551-2.65628-7.58728S479.591,274.54254,479.591,274.54254Z" fill="#d88a55"/><path d="M468.607,263.00716l-2.176,2.74039c-.02023.07758-.04722.17877-.0742.31031-.715,3.2683-4.62067,14.48829-1.81782,15.54063,2.22947.83647,2.68143-2.162,2.98836-5.14025.09444-.91742.17539-1.83146.29007-2.63083a4.08049,4.08049,0,0,1,.94777-2.4487c.742-.6712,1.791-.199,2.93777,1.07594.65433.72854.3845,3.329-.28332,6.50963a.13252.13252,0,0,1-.01012.04722c-.62736,3.00185-1.59874,6.51637-2.46894,9.44739-.09781.34066-.199.6712-.29344.995-.64084,2.12154-1.18387,3.83495-1.43684,4.65118-.97138,3.157,1.09281,2.54989,1.94277,2.54989.10119,0,.33054-.29344.65434-.81286,1.09955-1.75726,3.28854-6.115,5.32912-10.51322a91.672,91.672,0,0,0,4.45555-10.783v-.00337a3.16072,3.16072,0,0,0,.1248-.71505c0-1.85845-.36044.22-1.35543-10.617Z" fill="#f6a96c"/><path d="M418.1509,99.48447a1.51869,1.51869,0,0,0,0-3.03557,1.51869,1.51869,0,0,0,0,3.03557Z" fill="#433f43"/><path d="M421.57324,95.5741a2.98877,2.98877,0,0,1-1.60229.22216,3.88279,3.88279,0,0,1-1.5625-.524,3.74507,3.74507,0,0,1-1.20386-1.13141,3.1806,3.1806,0,0,1-.56543-1.514c.43237.34674.77246.69269,1.15112.9845a8.36866,8.36866,0,0,0,1.134.79114A13.95157,13.95157,0,0,0,421.57324,95.5741Z" fill="#433f43"/><ellipse cx="436.44762" cy="100.86455" rx="1.88206" ry="2.89787" fill="#d88a55"/><path d="M423.6404,132.07175c3.14469-1.388,7.88959-7.42456,7.88959-7.42456-2.87369-.60711-8.98527-2.42847-8.98527-2.42847a9.40168,9.40168,0,0,1,1.09568,9.853Z" fill="#d88a55"/><path d="M416.63916,83.76377s12.58878-1.44912,11.92537.87282-3.64876,4.80973-1.65853,7.62923a17.31287,17.31287,0,0,1,2.4878,6.8h3.42289s1.05514-5.639,4.37219-3.98047,3.23279,9.19426.91085,11.01864c0,0,.01976,10.71556,1.41523,11.476,0,0,11.20078-18.17463,11.78905-21.44281.72854-4.04744-.18348-14.98345-11.2127-17.80295S420.53671,78.12477,416.63916,83.76377Z" fill="#433f43"/><path d="M410.64522,108.98361s2.36775.18214,2.6713,1.5785h-2.6713S409.97739,109.65144,410.64522,108.98361Z" fill="#bb5d4c"/><path d="M413.31652,110.56211a2.519,2.519,0,0,1-1.36119,2.19042,1.285,1.285,0,0,1-1.62244-1.807,1.80647,1.80647,0,0,1,.31233-.3834Z" fill="#a44f3e"/><path d="M411.6166,106.55515s3.50892-.59387,5.48892.36613a2.45168,2.45168,0,0,1,1.68,2.52l-8.1403-.45767A3.44464,3.44464,0,0,1,411.6166,106.55515Z" fill="#433f43"/><path d="M470.40885,190.26614s5.34259,35.47773,6.07113,53.2055,3.157,27.92731,3.157,30.35577S469.92313,296.655,469.07317,296.655s-2.91415.60711-1.94277-2.54989,6.314-19.62075,4.49266-21.64912-3.39985-2.02838-3.88554,1.37147-.36427,8.86388-3.27843,7.77108.12143-18.942,0-20.64193a134.01987,134.01987,0,0,0-12.82653-44.63494l.5628-26.07327Z" fill="#f6a96c"/><path d="M461.26982,261.96477s14.13055-6.2799,18.36716-4.5999-14.09093,9.36-18.36716,8.88S461.26982,261.96477,461.26982,261.96477Z" fill="#999299"/><path d="M477.39355,258.20483a13.815,13.815,0,0,1,5.56617,1.12281,10.54466,10.54466,0,0,1,2.583,1.55114,5.97249,5.97249,0,0,1,1.98511,2.822,4.57339,4.57339,0,0,1,.15723,1.95922,4.96285,4.96285,0,0,1-.61084,1.756,6.20408,6.20408,0,0,1-2.35205,2.39465,4.4257,4.4257,0,0,1-5.80542-1.24658,6.702,6.702,0,0,0,2.59228.12024,3.39239,3.39239,0,0,0,1.811-.92395,5.87078,5.87078,0,0,0,1.1687-1.67688,2.87983,2.87983,0,0,0,.24023-.80933,2.27023,2.27023,0,0,0-.06445-.729c-.26343-1.02063-1.50684-2.22876-2.84473-3.23694C480.46069,260.26306,478.946,259.29456,477.39355,258.20483Z" fill="#999299"/><path d="M137.85693,478.875s.652-5.70516,8.47623-8.80224,10.4323-8.80225,10.4323-8.80225l23.98962,1.01335.78708,12.679h-.2264a.90558.90558,0,0,1,.90558.90558v2.101a.90558.90558,0,0,1-.90558.90558Z" fill="#302e30"/><path d="M155.752,441.0679s5.57756,15.80148,1.01343,20.20261c0,0,3.239.61572,4.86907,12.84107l19.90763.85131s.38638-3.86381-.78708-12.679c-.34586-2.59817-.58408-5.20954-.68937-7.82852L178.39244,442.452Z" fill="#f6a96c"/><path d="M180.17879,456.55117l.00044-.00406c-.04642-.69668-.08556-1.39391-.11364-2.09178l-.47954-11.93036H160.35152S175.78774,447.84526,180.17879,456.55117Z" fill="#d88a55"/><path d="M160.71566,468.9511s19.47783-2.61213,19.665-9.92391c0,0,.6876.29518,1.29223,1.8433a8.40815,8.40815,0,0,1,.54843,3.06127V478.875H159.72284Z" fill="#302e30"/><path d="M137.85693,478.875s.652-5.70516,8.47623-8.80224,10.4323-8.80225,10.4323-8.80225l23.98962,1.01335.78708,12.679h-.2264a.90558.90558,0,0,1,.90558.90558v2.101a.90558.90558,0,0,1-.90558.90558Z" fill="#302e30"/><path d="M155.752,441.0679s5.57756,15.80148,1.01343,20.20261c0,0,3.239.61572,4.86907,12.84107l19.90763.85131s.38638-3.86381-.78708-12.679c-.34586-2.59817-.58408-5.20954-.68937-7.82852L178.39244,442.452Z" fill="#f6a96c"/><path d="M180.17879,456.55117l.00044-.00406c-.04642-.69668-.08556-1.39391-.11364-2.09178l-.47954-11.93036H160.35152S175.78774,447.84526,180.17879,456.55117Z" fill="#d88a55"/><path d="M160.71566,468.9511s19.47783-2.61213,19.665-9.92391c0,0,.6876.29518,1.29223,1.8433a8.40815,8.40815,0,0,1,.54843,3.06127V478.875H159.72284Z" fill="#302e30"/><path d="M117.77784,217.476s-4.60255,91.81786,4.24335,129.68407c0,0,17.75352,79.41481,23.37067,105.3266l40.81708-3.85185s-7.746-101.82054-7.22544-123.27282,5.404-50.49613,3.92037-65.48718-13.99764-45.79865-13.99764-45.79865Z" fill="#7f6332"/><path d="M150.45723,333.97861a656.56421,656.56421,0,0,0,18.14283-63.99485c2.29718-10.585,1.68055-30.70288,1.15259-41.17333-.89319-2.58912-49.88533-1.35819-52.64509,6.526-.84479,28.63562-1.49573,84.38733,4.91363,111.82361,0,0,11.04293,43.918,16.63552,74.71448C144.38334,391.70164,146.505,345.273,150.45723,333.97861Z" fill="#5f4c24"/><polygon points="117.464 210.041 117.464 215.333 168.705 215.333 168.705 210.004 117.464 210.041" fill="#f6a96c"/><path d="M59.79008,469.19807s2.0215-5.37471,10.36434-6.47354,12.26152-5.99727,12.26152-5.99727l23.02094,6.82389-2.32373,12.4891-.21958-.05512a.90558.90558,0,0,1,.65784,1.09882l-.51154,2.03772a.90559.90559,0,0,1-1.09882.65784Z" fill="#302e30"/><path d="M86.352,436.88589s1.56233,16.684-3.936,19.84137c0,0,2.99163,1.38584,1.596,13.64015l19.10123,5.67284s1.31553-3.65345,2.32373-12.4891c.29716-2.60419.70192-5.195,1.23748-7.76077l1.29968-12.04951Z" fill="#f6a96c"/><path d="M106.27374,457.85067l.00142-.00383q.18688-1.03053.39909-2.0565l2.43971-11.68808L90.45828,439.419S104.13456,448.33762,106.27374,457.85067Z" fill="#d88a55"/><path d="M84.37718,465.13851s19.52767,2.209,21.48951-4.83718c0,0,.595.45372.80452,2.10246a8.408,8.408,0,0,1-.21343,3.10268L102.81937,480,80.998,474.522Z" fill="#302e30"/><path d="M120.205,212.50456S87.60975,298.4653,84.39141,337.21762c0,0-8.30137,79.90267-8.30137,107.58305l36.13288,9.07067S138.20838,354.233,145.296,333.97869s20.65986-46.39216,23.85476-61.11376.75349-47.884.75349-47.884Z" fill="#7f6332"/><path d="M193.37349,273.5559s.8539,6.48777.12536,7.2163-10.36143,8.33772-13.43748,8.49962-.60917-3.32685,1.78087-5.26167,3.36136-6.03215,3.36136-6.03215-2.92258-5.74551-2.65628-7.58728S193.37349,273.5559,193.37349,273.5559Z" fill="#d88a55"/><path d="M184.27072,189.278s5.34259,35.47773,6.07113,53.2055,3.157,27.92731,3.157,30.35577S183.785,295.66677,182.935,295.66677s-2.91415.60711-1.94276-2.54989,6.314-19.62074,4.49265-21.64912-3.39985-2.02838-3.88554,1.37147-.36427,8.86388-3.27842,7.77108.12142-18.942,0-20.64193-1.98325-28.81774-12.83037-50.83579l.56664-19.87242Z" fill="#f6a96c"/><path d="M128.02836,143.39026s-8.6733,11.89451-10.56457,34.48827c-1.15909,13.847-3.76411,37.21206,0,37.45491s51.2413,0,51.2413,0l9.61588,44.63494,15.41984,2.0506-4.41567-82.569s-4.46455-49.60966-31.06243-54.57671Z" fill="#7f6332"/><path d="M136.40655,78.3682s-10.84713,3.39985-8.74246,17.97062c0,0-4.43194,5.70688-4.97835,6.25329s-.12142,2.00348,2.79273,2.97486a5.58335,5.58335,0,0,0-.97138,2.42847c0,1.03209.66783,3.64269.66783,4.67478s-.18214,6.67827,3.88553,6.98183,6.43543.66783,7.3461,1.5785a9.1492,9.1492,0,0,1,1.45708,8.98531c-1.5785,4.49265-9.83527,13.1744-9.83527,13.1744s16.27069-2.61059,30.23435-18.517c0,0-6.43543-4.54925-6.07116-18.63432,0,0,5.04136-12.74943-.787-15.05646a10.24953,10.24953,0,0,0-4.79851,6.61344l3.7034-14.06073A61.41191,61.41191,0,0,0,136.40655,78.3682Z" fill="#f6a96c"/><path d="M193.45287,273.55436s.8539,6.48778.12536,7.21631-10.36144,8.33772-13.43749,8.49962-.60916-3.32685,1.78088-5.26167,3.36136-6.03215,3.36136-6.03215-2.92258-5.74551-2.65628-7.58728S193.45287,273.55436,193.45287,273.55436Z" fill="#d88a55"/><path d="M182.46889,262.019l-2.176,2.7404c-.02024.07757-.04722.17876-.07421.3103-.715,3.2683-4.62066,14.48829-1.81781,15.54063,2.22946.83647,2.68142-2.162,2.98835-5.14025.09444-.91742.17539-1.83146.29007-2.63083a4.08052,4.08052,0,0,1,.94777-2.4487c.742-.6712,1.791-.199,2.93777,1.07594.65433.72854.38451,3.329-.28332,6.50963a.13231.13231,0,0,1-.01012.04722c-.62735,3.00185-1.59874,6.51637-2.46894,9.44739-.09781.34066-.199.6712-.29344.995-.64084,2.12153-1.18387,3.83494-1.43684,4.65117-.97138,3.157,1.09281,2.54989,1.94277,2.54989.10119,0,.33054-.29344.65434-.81286,1.09955-1.75726,3.28854-6.115,5.32912-10.51322a91.6707,91.6707,0,0,0,4.45556-10.783v-.00337a3.16116,3.16116,0,0,0,.12479-.71505c0-1.85845-.36043.22-1.35543-10.617Z" fill="#f6a96c"/><line x1="140.37192" y1="236.64029" x2="230.12997" y2="314.88029" fill="none" stroke="#1c1b1c" stroke-miterlimit="10" stroke-width="5"/><path d="M182.46889,262.019,178.11,263.58029c-.02024.07757-.04722.17876-.0742.3103-.71505,3.2683-2.4377,15.66738.36515,16.71972,2.22946.83647,2.68142-2.162,2.98835-5.14025.09444-.91742.17539-1.83146.29007-2.63083a4.08052,4.08052,0,0,1,.94777-2.4487c.742-.6712,1.791-.199,2.93777,1.07594.65433.72854,7.65349,1.59274,6.65849-9.24427Z" fill="#f6a96c"/><path d="M132.01278,98.4963a1.5187,1.5187,0,0,0,0-3.03558,1.5187,1.5187,0,0,0,0,3.03558Z" fill="#433f43"/><path d="M128.69385,93.44373a2.99033,2.99033,0,0,1,1.26172-1.01246,3.8839,3.8839,0,0,1,1.6101-.35137,3.74772,3.74772,0,0,1,1.61377.354,3.178,3.178,0,0,1,1.26172,1.00983c-.54907-.07593-1.01831-.19849-1.49316-.25489a8.36936,8.36936,0,0,0-1.37915-.09765A13.95708,13.95708,0,0,0,128.69385,93.44373Z" fill="#433f43"/><ellipse cx="150.30949" cy="99.87638" rx="1.88206" ry="2.89787" fill="#d88a55"/><path d="M137.50228,131.08357c3.14468-1.388,7.88958-7.42456,7.88958-7.42456-2.87368-.60711-8.98527-2.42847-8.98527-2.42847a9.40177,9.40177,0,0,1,1.09569,9.853Z" fill="#d88a55"/><path d="M130.501,82.77559s12.58878-1.44912,11.92536.87282-3.64876,4.80973-1.65852,7.62923a17.313,17.313,0,0,1,2.48779,6.8h3.42289s1.05514-5.639,4.3722-3.98047,3.23278,9.19426.91084,11.01864c0,0,.01976,10.71556,1.41523,11.476,0,0,11.20079-18.17464,11.78906-21.44282.72854-4.04743-.18349-14.98344-11.21271-17.80294S134.39858,77.13659,130.501,82.77559Z" fill="#210d11"/><path d="M146.60609,97.7959l-1.44-1.40552-1.83843,1.16267s-9.55289,11.454-13.49694,10.03607c-1.96794-1.55517-5.54258-.8538-5.54258-.8538s-1.59854,6.6772,0,10.25089c1.09346,2.44419,6.61644,3.16315,9.99846,3.37346a8.20751,8.20751,0,0,0,5.35375-1.55307C143.4643,116.01367,149.692,109.469,146.60609,97.7959Z" fill="#210d11"/><path d="M124.50709,107.99544s2.36775.18213,2.67131,1.5785h-2.67131S123.83926,108.66326,124.50709,107.99544Z" fill="#bb5d4c"/><path d="M127.1784,109.57394a2.51906,2.51906,0,0,1-1.36119,2.19041,1.285,1.285,0,0,1-1.62245-1.807,1.80618,1.80618,0,0,1,.31233-.38339Z" fill="#a44f3e"/><polygon points="168.705 215.333 165.491 169.8 161.369 215.367 168.705 215.333" fill="#5f4c24"/><path d="M164.37524,98.56377l3.13592-14.24192,4.78281-1.05421s-41.22344-12.49187-43.45886-14.80477c0,0-1.88946,5.60952,1.60463,8.78548l-2.30788,10.17092S160.0857,95.88248,164.37524,98.56377Z" fill="#302e30"/><path d="M130.4397,77.24833a6.71133,6.71133,0,0,1-2.07832-4.59256c5.128,3.4981,39.1498,11.66607,39.1498,11.66607C154.64625,84.139,130.4397,77.24833,130.4397,77.24833Z" fill="#efd050"/><path d="M158.26271,124.87324v-4.49749s-22.30713,15.22454-26.24993,15.76454l-4.83438,8.55739S148.31544,139.3462,158.26271,124.87324Z" fill="#7f6332"/><path d="M135.00057,136.794l2.42847,7.25s27.59969-14.6984,27.77905-16.65517L161.2505,125.527Z" fill="#5f4c24"/><rect x="130.17599" y="164.58029" width="14.89082" height="5.22" fill="#302e30"/><polygon points="116.581 222.329 170.246 222.329 168.705 215.333 116.581 215.333 116.581 222.329" fill="#302e30"/><polygon points="137.429 144.044 133.246 146.211 132.013 136.14 136.779 142.105 137.429 144.044" fill="#5f4c24"/><path d="M132.01278,136.14029l2.42846,7.25s28.01-15.27643,28.18937-17.2332l-4.3679-1.28382v-4.49749Z" fill="#7f6332"/><polygon points="178.321 259.968 161.369 222.329 170.246 222.329 178.321 259.968" fill="#5f4c24"/><polygon points="168.705 215.333 161.369 215.367 161.369 222.329 170.246 222.329 168.705 215.333" fill="#1c1b1c"/><path d="M175.45878,154.37434s.50125-6.3-9.01937-14.04l-6.10063,3.24s7.38455,9,7.56227,12.06Z" fill="#302e30"/><path d="M172.80679,147.1076c2.8833,4.32788,2.652,7.26672,2.652,7.26672l-7.55774,1.26c-.06909-1.18994-1.23084-3.2782-2.62158-5.38611Z" fill="#efd050"/><path d="M547.93688,480s.652-5.70516,8.47623-8.80225,10.4323-8.80225,10.4323-8.80225l23.98962,1.01335.78708,12.679h-.2264a.90559.90559,0,0,1,.90558.90559v2.10094a.90559.90559,0,0,1-.90559.90558Z" fill="#302e30"/><path d="M565.832,442.19289s5.57756,15.80149,1.01343,20.20261c0,0,3.239.61573,4.86907,12.84107l19.90763.85131s.38638-3.86381-.78708-12.679c-.34586-2.59817-.58408-5.20954-.68937-7.82852L588.47239,443.577Z" fill="#f6a96c"/><path d="M590.25874,457.67617l.00044-.00407c-.04642-.69668-.08556-1.39391-.11364-2.09178L589.666,443.65H570.43147S585.86769,448.97026,590.25874,457.67617Z" fill="#d88a55"/><path d="M570.79561,470.07609s19.47783-2.61213,19.665-9.92391c0,0,.6876.29518,1.29223,1.84331a8.40815,8.40815,0,0,1,.54843,3.06127V480H569.80279Z" fill="#302e30"/><path d="M547.93688,480s.652-5.70516,8.47623-8.80225,10.4323-8.80225,10.4323-8.80225l23.98962,1.01335.78708,12.679h-.2264a.90559.90559,0,0,1,.90558.90559v2.10094a.90559.90559,0,0,1-.90559.90558Z" fill="#302e30"/><path d="M565.832,442.19289s5.57756,15.80149,1.01343,20.20261c0,0,3.239.61573,4.86907,12.84107l19.90763.85131s.38638-3.86381-.78708-12.679c-.34586-2.59817-.58408-5.20954-.68937-7.82852L588.47239,443.577Z" fill="#f6a96c"/><path d="M590.25874,457.67617l.00044-.00407c-.04642-.69668-.08556-1.39391-.11364-2.09178L589.666,443.65H570.43147S585.86769,448.97026,590.25874,457.67617Z" fill="#d88a55"/><path d="M570.79561,470.07609s19.47783-2.61213,19.665-9.92391c0,0,.6876.29518,1.29223,1.84331a8.40815,8.40815,0,0,1,.54843,3.06127V480H569.80279Z" fill="#302e30"/><path d="M527.85779,218.601s-4.60255,91.81785,4.24335,129.68407c0,0,17.75352,79.41481,23.37067,105.32659l40.81708-3.85185s-7.746-101.82054-7.22544-123.27281,5.404-50.49613,3.92037-65.48719-13.99764-45.79865-13.99764-45.79865Z" fill="#7f6332"/><polygon points="527.544 211.166 527.544 216.458 578.785 216.458 578.785 211.129 527.544 211.166" fill="#f6a96c"/><path d="M603.45344,274.68089s.8539,6.48777.12536,7.21631-10.36143,8.33772-13.43748,8.49962-.60917-3.32685,1.78087-5.26167,3.36136-6.03216,3.36136-6.03216-2.92258-5.74551-2.65628-7.58728S603.45344,274.68089,603.45344,274.68089Z" fill="#d88a55"/><path d="M594.35067,190.403s5.34259,35.47773,6.07113,53.2055,3.157,27.9273,3.157,30.35577S593.865,296.79176,593.015,296.79176s-2.91415.60712-1.94276-2.54988,6.314-19.62075,4.49265-21.64912-3.39985-2.02838-3.88554,1.37147-.36427,8.86388-3.27842,7.77107.12142-18.942,0-20.64192-1.98325-28.81775-12.83037-50.8358l.56664-19.87242Z" fill="#f6a96c"/><path d="M538.10831,144.51526s-8.6733,11.8945-10.56457,34.48827c-1.15909,13.847-3.76411,37.21206,0,37.4549s51.2413,0,51.2413,0l9.61588,44.635,15.41984,2.05059-4.41567-82.569s-4.46455-49.60967-31.06243-54.57671Z" fill="#7f6332"/><path d="M546.4865,79.4932s-10.84713,3.39985-8.74246,17.97061c0,0-4.43194,5.70689-4.97835,6.25329s-.12142,2.00348,2.79273,2.97487a5.58329,5.58329,0,0,0-.97138,2.42846c0,1.0321.66783,3.64269.66783,4.67479s-.18214,6.67827,3.88553,6.98183,6.43543.66782,7.3461,1.5785a9.14919,9.14919,0,0,1,1.45708,8.9853c-1.5785,4.49266-9.83527,13.17441-9.83527,13.17441s16.27069-2.6106,30.23435-18.517c0,0-6.43543-4.54925-6.07116-18.63433,0,0,5.04136-12.74942-.78694-15.05646a10.24957,10.24957,0,0,0-4.79852,6.61344l3.7034-14.06072A61.41132,61.41132,0,0,0,546.4865,79.4932Z" fill="#f6a96c"/><path d="M603.53282,274.67936s.8539,6.48777.12536,7.21631-10.36144,8.33772-13.43749,8.49961-.60916-3.32684,1.78088-5.26166,3.36136-6.03216,3.36136-6.03216-2.92258-5.74551-2.65628-7.58728S603.53282,274.67936,603.53282,274.67936Z" fill="#d88a55"/><path d="M592.54884,263.144l-2.176,2.7404c-.02024.07758-.04722.17876-.07421.3103-.715,3.26831-4.62066,14.4883-1.81781,15.54063,2.22946.83647,2.68142-2.162,2.98835-5.14024.09444-.91742.17539-1.83147.29007-2.63083a4.0804,4.0804,0,0,1,.94778-2.4487c.742-.6712,1.791-.199,2.93776,1.07594.65433.72854.38451,3.329-.28332,6.50963a.13235.13235,0,0,1-.01012.04722c-.62735,3.00184-1.59874,6.51637-2.46894,9.44739-.09781.34066-.199.6712-.29344.995-.64084,2.12153-1.18387,3.83495-1.43683,4.65118-.97139,3.157,1.0928,2.54988,1.94276,2.54988.10119,0,.33054-.29344.65434-.81286,1.09955-1.75726,3.28854-6.115,5.32912-10.51321a91.6707,91.6707,0,0,0,4.45556-10.783v-.00338a3.16109,3.16109,0,0,0,.12479-.715c0-1.85845-.36043.22-1.35543-10.617Z" fill="#f6a96c"/><line x1="550.45187" y1="237.76528" x2="640.20992" y2="316.00528" fill="none" stroke="#1c1b1c" stroke-miterlimit="10" stroke-width="5"/><path d="M592.54884,263.144l-4.35892,1.56131c-.02024.07758-.04722.17876-.0742.31031-.71505,3.2683-2.4377,15.66738.36515,16.71971,2.22946.83647,2.68142-2.162,2.98835-5.14024.09444-.91742.17539-1.83147.29007-2.63083a4.0804,4.0804,0,0,1,.94778-2.4487c.742-.6712,1.791-.199,2.93776,1.07594.65433.72854,7.65349,1.59273,6.65849-9.24428Z" fill="#f6a96c"/><path d="M542.09273,99.62129a1.5187,1.5187,0,0,0,0-3.03558,1.5187,1.5187,0,0,0,0,3.03558Z" fill="#433f43"/><path d="M538.77393,94.56873a2.98734,2.98734,0,0,1,1.26171-1.01246,3.8819,3.8819,0,0,1,1.60987-.35137,3.74781,3.74781,0,0,1,1.61377.35394,3.17953,3.17953,0,0,1,1.262,1.00989c-.54907-.07593-1.01855-.19849-1.49316-.25489a8.37052,8.37052,0,0,0-1.3794-.09765A13.95472,13.95472,0,0,0,538.77393,94.56873Z" fill="#433f43"/><ellipse cx="560.38944" cy="101.00137" rx="1.88206" ry="2.89787" fill="#d88a55"/><path d="M547.58223,132.20856c3.14468-1.388,7.88958-7.42456,7.88958-7.42456-2.87368-.60711-8.98527-2.42846-8.98527-2.42846a9.40176,9.40176,0,0,1,1.09569,9.853Z" fill="#d88a55"/><path d="M540.581,83.90058s12.58878-1.44912,11.92536.87282-3.64876,4.80974-1.65852,7.62924a17.313,17.313,0,0,1,2.48779,6.8h3.42289s1.05514-5.639,4.3722-3.98047,3.23278,9.19426.91084,11.01864c0,0,.01976,10.71556,1.41523,11.476,0,0,11.20079-18.17464,11.78906-21.44281.72854-4.04744-.18349-14.98345-11.21271-17.80295S544.47853,78.26158,540.581,83.90058Z" fill="#210d11"/><path d="M534.587,109.12043s2.36775.18214,2.67131,1.5785H534.587S533.91921,109.78826,534.587,109.12043Z" fill="#bb5d4c"/><path d="M537.25835,110.69893a2.51906,2.51906,0,0,1-1.36119,2.19041,1.285,1.285,0,0,1-1.62245-1.807,1.806,1.806,0,0,1,.31233-.3834Z" fill="#a44f3e"/><polygon points="578.785 216.458 575.571 170.925 571.449 216.492 578.785 216.458" fill="#5f4c24"/><path d="M573.44454,101.605l3.82283-15.14054,4.8283-.88332S541.52647,70.007,539.40583,67.405c0,0-2.15925,5.92932,1.17673,9.52444l-2.512,10.92044S569.29006,98.49994,573.44454,101.605Z" fill="#302e30"/><path d="M540.58252,76.92941a7.53124,7.53124,0,0,1-1.85318-5.04351c4.95237,4.02652,38.53805,14.57855,38.53805,14.57855C564.42646,85.5968,540.58252,76.92941,540.58252,76.92941Z" fill="#efd050"/><path d="M568.34266,125.99824v-4.4975s-22.30713,15.22454-26.24993,15.76454l-4.83438,8.5574S558.39539,140.4712,568.34266,125.99824Z" fill="#7f6332"/><path d="M545.08052,137.919l2.42847,7.25s27.59969-14.6984,27.779-16.65517l-3.95759-1.86185Z" fill="#5f4c24"/><path d="M584.58992,150.58528s.50125-6.3-9.01937-14.04l-6.10063,3.24s7.38455,9,7.56227,12.06Z" fill="#302e30"/><polygon points="526.661 223.454 580.326 223.454 578.785 216.458 526.661 216.458 526.661 223.454" fill="#302e30"/><polygon points="547.509 145.169 543.326 147.336 542.093 137.265 546.859 143.23 547.509 145.169" fill="#5f4c24"/><path d="M542.09273,137.26528l2.42846,7.25s28.01-15.27644,28.18937-17.23321l-4.3679-1.28381v-4.4975Z" fill="#7f6332"/><polygon points="588.401 261.093 580.326 223.454 571.919 223.454 588.401 261.093" fill="#5f4c24"/><polygon points="580.326 223.454 578.785 216.458 571.449 216.492 571.919 223.454 580.326 223.454" fill="#1c1b1c"/><rect x="540.25594" y="165.70528" width="14.89082" height="5.22" fill="#302e30"/><path d="M581.93793,143.31854c2.8833,4.32788,2.652,7.26672,2.652,7.26672l-7.55774,1.26c-.06909-1.18994-1.23084-3.27819-2.62158-5.3861Z" fill="#efd050"/></svg>