<svg id="Layer_1" data-name="Layer 1" xmlns="http://www.w3.org/2000/svg" viewBox="0 0 700 550"><title>women taking oath to speak truth</title><path d="M352.6435,191.74512c-7.96351,1.58564-34.6296,5.37531-35.27955,2.59167s4.31216-2.02553,7.46621-2.065,3.34111-1.47711,1.70956-3.37633-17.25945,1.01565-20.24988,1.52624-2.19286-1.29748-2.09214-2.0716,19.83084-7.20383,22.04262-6.916a56.33107,56.33107,0,0,0,15.38615-.98688,15.63287,15.63287,0,0,0,2.50555-.74864c4.46351-1.71678,17.87148-8.35218,25.45184-12.62554,8.8766-5.0041-.96108-.14672-.96108-.14672l20.92072,3.19381S377.6635,186.76331,352.6435,191.74512Z" fill="#f6a96c"/><path d="M380.54357,459.42669s.63282-5.5372,8.22669-8.5431,10.12516-8.5431,10.12516-8.5431l23.28334.98352.7639,12.30574h1.09865a.87893.87893,0,0,1,.87892.87892v2.0391a.87893.87893,0,0,1-.87892.87892Z" fill="#66321d"/><path d="M402.37594,424.14685s.94923,13.92209-3.48052,18.19364c0,0,6.23612,1.42385,7.81817,13.28926h16.22907s.375-3.75-.7639-12.30574c-.33568-2.52168-.56689-5.05617-.66907-7.598l-.4655-11.57912Z" fill="#f6a96c"/><path d="M421.61944,437.7601l.00042-.00394c-.04506-.67617-.083-1.35288-.11029-2.0302l-.46542-11.57911H402.3759S417.35766,429.3105,421.61944,437.7601Z" fill="#d88a55"/><polygon points="376.646 190.869 376.646 196.153 427.809 196.153 427.809 190.832 376.646 190.869" fill="#f6a96c"/><path d="M376.64617,196.15333s-10.66806,91.1699-4.36376,129.48065c0,0,8.24409,80.01613,12.12366,106.20323h51.4043S428.53618,329.0286,430.476,307.691s8.729-49.94947,8.24409-64.9828-10.91129-46.55484-10.91129-46.55484Z" fill="#6354b1"/><path d="M452.43926,254.28635s.85259,6.47781.12518,7.20523-10.34553,8.32491-13.41685,8.48656-.60823-3.32174,1.77813-5.25359,3.35621-6.02289,3.35621-6.02289-2.9181-5.73668-2.6522-7.57562S452.43926,254.28635,452.43926,254.28635Z" fill="#d88a55"/><path d="M402.10661,56.4888s-11.275-9.69892-18.06425,1.93979c0,0-8.00162,22.30753-8.6078,24.24731s-1.74218,9.33522,6.22125,15.76076c0,0-4.59452,21.92366,8.23123,22.90363s37.07306-3.99073,38.40666-4.71815,5.57689-5.33441,3.75834-12.72984c0,0,6.78924-3.87957-.12124-10.54758,0,0,5.45565-6.42554-1.57607-18.428S422.83806,55.51891,402.10661,56.4888Z" fill="#433f43"/><path d="M387.19451,124.32066s-20.97393,18.48858-19.76156,32.30955,5.45488,39.28065,9.21322,39.52312,51.16259,0,51.16259,0l4.607-25.70215,16.50191-.39291s-3.55269-59.34286-31.53525-64.22618Z" fill="#fe4fb7"/><path d="M395.55983,59.39848s-10.83047,3.39463-8.729,17.943c0,0-4.42514,5.69812-4.9707,6.24369s-.12124,2.0004,2.78844,2.97029a5.57474,5.57474,0,0,0-.96989,2.42473c0,1.03051.6668,3.6371.6668,4.66761s-.18186,6.668,3.87957,6.9711,6.42554.66681,7.33481,1.57608a9.13517,9.13517,0,0,1,1.45484,8.97151c-1.57608,4.48575-9.82016,13.15416-9.82016,13.15416s16.2457-2.60658,30.1879-18.48857c0,0-7.39543-4.72823-7.03172-18.79167,0,0,6.06183-9.214.24247-11.51747a3.7296,3.7296,0,0,0-4.84946,3.27338l-3.27338-.24247s0-5.57688-1.81855-6.42554S395.19612,66.79391,395.55983,59.39848Z" fill="#f6a96c"/><path d="M383.67865,88.9802s2.36411.18186,2.6672,1.57608h-2.6672S383.01185,89.647,383.67865,88.9802Z" fill="#bb5d4c"/><path d="M386.34585,90.55628a2.51517,2.51517,0,0,1-1.3591,2.187,1.28306,1.28306,0,0,1-1.61995-1.80424,1.8034,1.8034,0,0,1,.31185-.38281Z" fill="#a44f3e"/><path d="M452.51852,254.28483s.85259,6.4778.12517,7.20522-10.34552,8.32491-13.41685,8.48656-.60823-3.32174,1.77814-5.25358,3.35621-6.0229,3.35621-6.0229-2.9181-5.73668-2.65221-7.57562S452.51852,254.28483,452.51852,254.28483Z" fill="#d88a55"/><line x1="450.23199" y1="249.77415" x2="462.12424" y2="266.02174" fill="none" stroke="#302e30" stroke-miterlimit="10" stroke-width="0.67354"/><path d="M451.29091,242.97006c.99347,10.82037,1.35335,8.74514,1.35335,10.60073a3.156,3.156,0,0,1-.1246.714v.00337a91.53144,91.53144,0,0,1-4.44871,10.76648c-2.03745,4.39145-4.22307,8.7425-5.32094,10.49706-.3233.51863-.5523.81161-.65333.81161-.84866,0-2.90968.60619-1.93978-2.546.25257-.815.79477-2.52577,1.43463-4.644.09429-.3233.19532-.65333.293-.99346.86886-2.92652,1.83875-6.43565,2.46514-9.43288a.13212.13212,0,0,0,.0101-.04715c.6668-3.17572.93622-5.77221.28289-6.49963-1.145-1.273-2.19236-1.74446-2.93325-1.07429a4.07426,4.07426,0,0,0-.94632,2.44494c-.1145.79814-.19533,1.71078-.28962,2.62679-.30646,2.97367-.75773,5.96753-2.98377,5.13235-2.79854-1.05072,1.10108-12.25347,1.815-15.51676.02695-.13134.05389-.23237.07409-.30982l2.17261-2.73619Z" fill="#f6a96c"/><path d="M391.17281,79.49566a1.51637,1.51637,0,0,0,0-3.03092,1.51637,1.51637,0,0,0,0,3.03092Z" fill="#433f43"/><path d="M387.859,74.45093a2.98481,2.98481,0,0,1,1.25989-1.011,3.878,3.878,0,0,1,1.60754-.35083,3.74146,3.74146,0,0,1,1.61121.35352,3.17271,3.17271,0,0,1,1.25988,1.0083c-.54821-.07593-1.01684-.19824-1.49084-.25464a8.36332,8.36332,0,0,0-1.3772-.09741A13.91673,13.91673,0,0,0,387.859,74.45093Z" fill="#433f43"/><path d="M410.10822,88.71752a1.51636,1.51636,0,0,0,0-3.03091,1.51636,1.51636,0,0,0,0,3.03091Z" fill="#fac600"/><ellipse cx="409.44142" cy="80.87362" rx="1.87917" ry="2.89342" fill="#d88a55"/><path d="M396.65387,112.03287c3.13986-1.38584,7.87747-7.41315,7.87747-7.41315-2.86927-.60618-8.97147-2.42474-8.97147-2.42474a9.38727,9.38727,0,0,1,1.094,9.83789Z" fill="#d88a55"/><path d="M443.35048,170.13787s5.33439,35.42324,6.0618,53.12378,3.15216,27.88441,3.15216,30.30914-9.69893,22.79247-10.54759,22.79247-2.90967.60619-1.93978-2.546,6.3043-19.59061,4.48575-21.61587-3.39462-2.02526-3.87957,1.36936-.36371,8.85027-3.27339,7.75914.12124-18.9129,0-20.61022a133.87022,133.87022,0,0,0-12.81066-44.56638l.56577-26.03322Z" fill="#f6a96c"/><ellipse cx="551.546" cy="277.37738" rx="22.80036" ry="25.71353" fill="#ab695d"/><path d="M528.74563,351.43235c0-9.72733,4.79164-18.18931,11.85619-22.55785V282.52008h21.88835V328.8745c7.06455,4.36854,11.85619,12.83052,11.85619,22.55785a28.98741,28.98741,0,0,1-.48876,5.3195c-6.49886,34.82189-11.36741,70.0052-11.36743,105.59005v9.42977H540.60182v-9.4298c0-35.58483-4.86855-70.76813-11.36742-105.59A28.98675,28.98675,0,0,1,528.74563,351.43235Z" fill="#ab695d"/><ellipse cx="475.94527" cy="277.37738" rx="22.80036" ry="25.71353" fill="#ab695d"/><path d="M453.1449,351.43235c0-9.72733,4.79164-18.18931,11.85619-22.55785V282.52008h21.88835V328.8745c7.06455,4.36854,11.85619,12.83052,11.85619,22.55785a28.98654,28.98654,0,0,1-.48876,5.3195c-6.49886,34.82189-11.36741,70.0052-11.36743,105.59005v9.42977H465.00109v-9.4298c0-35.58483-4.86855-70.76813-11.36742-105.59A28.98675,28.98675,0,0,1,453.1449,351.43235Z" fill="#ab695d"/><ellipse cx="400.50083" cy="277.37738" rx="22.80036" ry="25.71353" fill="#ab695d"/><path d="M377.70047,351.43235c0-9.72733,4.79163-18.18931,11.85619-22.55785V282.52008H411.445V328.8745c7.06455,4.36854,11.85619,12.83052,11.85619,22.55785a28.98654,28.98654,0,0,1-.48876,5.3195c-6.49886,34.82189-11.36741,70.0052-11.36742,105.59005v9.42977H389.55666v-9.4298c0-35.58483-4.86856-70.76813-11.36743-105.59A28.98675,28.98675,0,0,1,377.70047,351.43235Z" fill="#ab695d"/><ellipse cx="325.35257" cy="277.37738" rx="22.80036" ry="25.71353" fill="#ab695d"/><path d="M302.5522,351.43235c0-9.72733,4.79164-18.18931,11.85619-22.55785V282.52008h21.88835V328.8745c7.06455,4.36854,11.85619,12.83052,11.85619,22.55785a28.98654,28.98654,0,0,1-.48876,5.3195c-6.49886,34.82189-11.36741,70.0052-11.36742,105.59005v9.42977H314.40839v-9.4298c0-35.58483-4.86855-70.76813-11.36742-105.59A28.98675,28.98675,0,0,1,302.5522,351.43235Z" fill="#ab695d"/><ellipse cx="322.5522" cy="227.76571" rx="20.68449" ry="23.32732" fill="#ab695d"/><ellipse cx="553.66187" cy="227.76571" rx="20.68449" ry="23.32732" fill="#ab695d"/><rect x="301.86771" y="231.09302" width="272.47865" height="34.9704" transform="translate(876.21407 497.15645) rotate(-180)" fill="#c38f86"/><rect x="301.86771" y="445.0296" width="272.47865" height="34.9704" transform="translate(876.21407 925.0296) rotate(-180)" fill="#c38f86"/><rect x="273.0035" y="189.43638" width="41.04" height="5.85" fill="#a44f3e"/><path d="M201.1015,200.69368s43.84223.82483,60.09916-.30069,5.39593-12.33164,3.83184-12.27078-21.96679-6.94492-47.703-6.578l-18.08392,2.52448Z" fill="#f6a96c"/><path d="M262.77437,202.13775c4.83925-2.30386,12.643-1.266,14.82851-.8206s22.32528-4.55539,22.48117-5.32032,1.08084-2.51126-1.93847-2.21606-18.81578,2.08382-20.30719.07268-1.2019-3.43171,1.94688-3.24527,8.0439,1.29783,7.59489-1.5252-25.126-3.95358-30.842,1.81354" fill="#f6a96c"/><path d="M262.77776,204.22118s7.03923-17.82856,5.23569-21.00357-40.10226-7.473-40.10226-7.473l-18.46437,32.00109Z" fill="#433f43"/><path d="M226.08042,480s-.63218-5.53159-8.21837-8.53446-10.11491-8.53446-10.11491-8.53446l-23.2598.98253-.76313,12.2933h-1.09754a.878.878,0,0,0-.878.878v2.037a.878.878,0,0,0,.878.878Z" fill="#66321d"/><path d="M204.27014,444.75584s-.94828,13.908,3.477,18.17524c0,0-6.22982,1.42241-7.81028,13.27583H183.72421s-.37462-3.74627.76313-12.2933c.33534-2.51913.56631-5.05106.6684-7.59036l.465-11.56741Z" fill="#f6a96c"/><path d="M185.0461,458.35532l-.00043-.00394c.045-.67548.083-1.3515.11018-2.02814l.465-11.5674h18.64936S189.30356,449.91427,185.0461,458.35532Z" fill="#d88a55"/><polygon points="229.974 211.714 229.974 216.993 178.863 216.993 178.863 211.677 229.974 211.714" fill="#f6a96c"/><path d="M229.97388,216.9929s10.65727,91.0777,4.35935,129.3497c0,0-8.23575,79.93521-12.1114,106.09583H170.86952s7.26683-102.70463,5.329-124.02069-8.7202-49.89895-8.23575-64.91708S178.863,216.9929,178.863,216.9929Z" fill="#302e30"/><path d="M154.25744,275.06714s-.85173,6.47125-.125,7.19793,10.33505,8.31649,13.40327,8.478.60762-3.31838-1.77633-5.24827-3.35281-6.0168-3.35281-6.0168,2.91514-5.73088,2.64952-7.568S154.25744,275.06714,154.25744,275.06714Z" fill="#d88a55"/><path d="M163.337,191.00376s-5.329,35.38741-6.05567,53.07005-3.149,27.85621-3.149,30.27848,9.68911,22.76943,10.53691,22.76943,2.90673.60557,1.93782-2.5434-6.29792-19.57079-4.48121-21.594,3.39119-2.02322,3.87564,1.368.36335,8.84132,3.27008,7.7513-.12111-18.89378,0-20.58937,1.97819-28.74438,12.79771-50.70638l-.5652-19.82183Z" fill="#f6a96c"/><path d="M204.5392,77.46963s11.26359-9.68912,18.046,1.93782c0,0,7.99353,22.285,8.59909,24.22279s1.74042,9.32578-6.21495,15.74482c0,0,4.58987,21.90149-8.22291,22.88047s-37.03557-3.9867-38.36782-4.71338-5.57124-5.329-3.75453-12.717c0,0-6.78238-3.87565.12111-10.53692,0,0-5.45013-6.419,1.57448-18.40932S183.82871,76.50072,204.5392,77.46963Z" fill="#433f43"/><path d="M219.43621,145.23289s20.95272,18.46987,19.74158,32.27686-5.44937,39.24093-9.20391,39.48315-51.11084,0-51.11084,0l-4.60233-25.67615-16.48522-.39251s5.585-43.20852,31.50335-64.16123Z" fill="#efe2dd"/><path d="M211.07935,80.37636s10.81951,3.3912,8.7202,17.92487c0,0,4.42066,5.69236,4.96568,6.23737s.12111,1.99838-2.78563,2.96729a5.56907,5.56907,0,0,1,.96892,2.42228c0,1.02947-.66613,3.63342-.66613,4.66289s.18167,6.66126-3.87565,6.96405-6.419.66613-7.32739,1.57448A9.12589,9.12589,0,0,0,209.626,132.092c1.57448,4.48122,9.81023,13.14087,9.81023,13.14087s-16.22927-2.60395-30.15737-18.46988c0,0,7.38795-4.72345,7.02461-18.77266,0,0-6.0557-9.20466-.24223-11.50583a3.72583,3.72583,0,0,1,4.84456,3.27008l3.27007-.24223s0-5.57124,1.81671-6.419S211.44269,87.76432,211.07935,80.37636Z" fill="#f6a96c"/><path d="M222.94852,109.92817s-2.36173.18167-2.66451,1.57448h2.66451S223.61464,110.5943,222.94852,109.92817Z" fill="#bb5d4c"/><path d="M220.284,111.50265a2.51263,2.51263,0,0,0,1.35772,2.18484,1.28177,1.28177,0,0,0,1.61832-1.80242,1.80182,1.80182,0,0,0-.31153-.38242Z" fill="#a44f3e"/><path d="M214.16818,143.78453s-15.07911-5.03124-24.88934-17.02152c0,0-24.25024,15.83676-31.50335,61.52589s-7.25312,75.5751-7.25312,75.5751l17.44041-.36334-.02469,108.27588s45.80577,2.423,49.43918,1.75652S216.68571,151.7882,214.16818,143.78453Z" fill="#433f43"/><path d="M167.96278,263.50066s7.26684-77.26938,10.90026-82.599c0,0-11.99028,25.55438-15.987,82.599Z" fill="#302e30"/><path d="M154.17827,275.06561s-.85173,6.47125-.125,7.19794,10.33506,8.31649,13.40328,8.478.60761-3.31838-1.77634-5.24827-3.35281-6.0168-3.35281-6.0168,2.91514-5.73088,2.64952-7.568S154.17827,275.06561,154.17827,275.06561Z" fill="#d88a55"/><polygon points="146.485 259.302 125.654 288.692 172.121 324.081 192.993 295.959 146.485 259.302" fill="#faf7f7"/><line x1="182.06935" y1="297.16844" x2="170.18913" y2="313.39961" fill="none" stroke="#302e30" stroke-miterlimit="10" stroke-width="0.67286"/><line x1="170.90056" y1="294.10999" x2="159.02034" y2="310.34115" fill="none" stroke="#302e30" stroke-miterlimit="10" stroke-width="0.67286"/><line x1="167.26469" y1="291.69149" x2="155.38447" y2="307.92266" fill="none" stroke="#302e30" stroke-miterlimit="10" stroke-width="0.67286"/><line x1="164.1332" y1="289.05286" x2="152.25298" y2="305.28403" fill="none" stroke="#302e30" stroke-miterlimit="10" stroke-width="0.67286"/><line x1="160.68528" y1="286.52561" x2="148.80506" y2="302.75678" fill="none" stroke="#302e30" stroke-miterlimit="10" stroke-width="0.67286"/><line x1="160.07251" y1="273.10693" x2="148.19229" y2="289.3381" fill="none" stroke="#302e30" stroke-miterlimit="10" stroke-width="0.67286"/><line x1="156.46248" y1="270.55949" x2="144.58226" y2="286.79066" fill="none" stroke="#302e30" stroke-miterlimit="10" stroke-width="0.67286"/><path d="M155.40463,263.76229c-.99246,10.80942-1.352,8.73629-1.352,10.59a3.15276,3.15276,0,0,0,.12448.71323v.00337a91.43779,91.43779,0,0,0,4.44421,10.75559c2.03538,4.387,4.2188,8.73366,5.31555,10.48645.323.5181.55175.81079.65267.81079.8478,0,2.90674.60557,1.93783-2.5434-.25232-.81415-.794-2.5232-1.43318-4.63933-.0942-.323-.19513-.65267-.2927-.99246-.868-2.92356-1.83689-6.42914-2.46265-9.42334a.13206.13206,0,0,1-.01009-.0471c-.66613-3.17251-.93527-5.76637-.2826-6.49306,1.14386-1.27169,2.19015-1.74269,2.93029-1.0732a4.07018,4.07018,0,0,1,.94536,2.44246c.11438.79734.19513,1.70906.28933,2.62414.30614,2.97066.757,5.9615,2.98074,5.12716,2.79572-1.04966-1.1-12.24108-1.81318-15.50107-.02692-.1312-.05383-.23213-.074-.30951l-2.17041-2.73342Z" fill="#f6a96c"/><polygon points="174.362 281.275 164.133 273.212 164.133 279.568 169.739 288.208 174.362 281.275" fill="#faf7f7"/><path d="M189.27886,126.763a9.7597,9.7597,0,0,0,1.60625-1.42315c6.572,8.87158,25.86123,16.91566,25.86131,16.91566,1.53118,1.75907,2.68978,2.97735,2.68978,2.97735S203.20694,142.62894,189.27886,126.763Z" fill="#faf7f7"/><path d="M217.86173,144.56676s8.72172,23.17446,12.11215,36.33485a63.33735,63.33735,0,0,1,6.3502-3.14963l-16.88788-32.5191Z" fill="#faf7f7"/><path d="M215.46194,100.45321a1.51483,1.51483,0,0,0,0-3.02785,1.51483,1.51483,0,0,0,0,3.02785Z" fill="#433f43"/><path d="M218.77234,95.41357a13.92057,13.92057,0,0,0-2.86755-.3518,8.37439,8.37439,0,0,0-1.37586.09741c-.47339.0564-.94153.17871-1.48926.25439a3.17019,3.17019,0,0,1,1.25855-1.00732,3.73468,3.73468,0,0,1,1.60974-.353,3.87455,3.87455,0,0,1,1.60583.35034A2.98154,2.98154,0,0,1,218.77234,95.41357Z" fill="#433f43"/><path d="M196.54567,109.66576a1.51483,1.51483,0,0,0,0-3.02785,1.51483,1.51483,0,0,0,0,3.02785Z" fill="#fac600"/><ellipse cx="197.2118" cy="101.82978" rx="1.87727" ry="2.89049" fill="#d88a55"/><path d="M209.98641,132.95752c-3.13668-1.38443-7.8695-7.40566-7.8695-7.40566,2.86637-.60556,8.9624-2.42228,8.9624-2.42228a9.37783,9.37783,0,0,0-1.0929,9.82794Z" fill="#d88a55"/></svg>