<svg xmlns="http://www.w3.org/2000/svg" data-name="Layer 1" viewBox="0 0 512 512"><path fill="#22b37f" d="M491.77 257.84082a3.49985 3.49985 0 0 1-3.5-3.5V234.89111a7.5082 7.5082 0 0 0-7.5-7.5h-.47022a3.5 3.5 0 0 1 0-7H480.77a14.51669 14.51669 0 0 1 14.5 14.5v19.44971A3.49986 3.49986 0 0 1 491.77 257.84082zM20.23 257.84082a3.49986 3.49986 0 0 1-3.5-3.5V234.89111a14.51669 14.51669 0 0 1 14.5-14.5h.47022a3.5 3.5 0 1 1 0 7H31.23a7.5082 7.5082 0 0 0-7.5 7.5v19.44971A3.49985 3.49985 0 0 1 20.23 257.84082zM447.666 211.98828a3.49934 3.49934 0 0 1-3.13379-1.93652c-4.58057-9.16748-5.60938-17.13086-3.05811-23.66992a34.11671 34.11671 0 0 1 2.95508-5.53955c1.77783-2.87989 3.45752-5.6001 4.04248-9.86915a22.21894 22.21894 0 0 0-.00147-5.96191 3.5 3.5 0 0 1 6.93848-.92676 29.22838 29.22838 0 0 1-.00146 7.83985c-.78662 5.73535-3.13477 9.53906-5.022 12.59521a28.05738 28.05738 0 0 0-2.39013 4.40772c-1.80176 4.61767-.86035 10.67236 2.79883 17.9956a3.50181 3.50181 0 0 1-3.12793 5.06543z"/><path fill="#fe93d3" d="M477.12915 88.72607c-21.19447 8.74827-32.099 39.28583-19.66455 60.04517C478.65888 140.02289 489.56342 109.48548 477.12915 88.72607zM427.85 88.73c-12.0542 19.67141-2.4 50.79857 19.66 60.04.05-.08.09-.17.13-.25l-8.01-51.7A43.448 43.448 0 0 0 427.85 88.73z"/><ellipse cx="463.786" cy="150.835" fill="#22b37f" rx="9.214" ry="21.252" transform="rotate(-47.955 463.786 150.835)"/><ellipse cx="440.094" cy="150.835" fill="#22b37f" rx="21.252" ry="9.214" transform="rotate(-42.045 440.094 150.835)"/><ellipse cx="451.94" cy="150.835" fill="#09a76d" rx="9.214" ry="21.252"/><path fill="#fe73c5" d="M494.3418,106.09058c-22.80281-.6001-45.342,23.063-42.24366,46.985C474.90093,153.67563,497.43977,130.01241,494.3418,106.09058Z"/><path fill="#fe73c5" d="M409.53784,106.09058c-3.01338,22.61079,18.12822,47.53058,42.24365,46.985C454.79471,130.46485,433.65335,105.545,409.53784,106.09058Z"/><path fill="#fe4fb7" d="M435.87488,116.02475a50.64464,50.64464,0,0,0,16.06489,37.05081c20.562-17.5209,21.34-55.81971,0-74.10162A50.64464,50.64464,0,0,0,435.87488,116.02475Z"/><path fill="#fed2a4" d="M410.67207,443.6389l72.294-70.68734a30,30,0,0,0,8.6073-26.44784L473.99987,242.48635H445.05576l.1261,87.27616A10,10,0,0,1,442.173,336.927l-49.77541,48.66917Z"/><path fill="#ffbd86" d="M491.57349,346.50372,473.99988,242.48633h-14l17.57361,104.01739a30.00016,30.00016,0,0,1-8.60743,26.44782l-61.58935,60.22064,3.29541,10.46674,72.29394-70.68738A30.00016,30.00016,0,0,0,491.57349,346.50372Z"/><polygon fill="#fee903" points="414.507 363.978 441.043 413.943 455.154 400.145 428.616 350.183 414.507 363.978"/><polygon fill="#22b37f" points="455.15 400.15 441.04 413.94 410.67 443.64 392.4 385.6 414.51 363.98 428.62 350.18 455.15 400.15"/><polygon fill="#fd4755" points="455.15 400.15 441.04 413.94 414.51 363.98 428.62 350.18 455.15 400.15"/><polygon fill="#fb2b3a" points="450.366 391.139 436.257 404.933 441.04 413.94 453.849 401.421 455.15 400.15 450.366 391.139"/><polygon fill="#fee903" points="479.4 276.041 445.02 276.041 445.093 301.235 483.735 301.235 479.4 276.041"/><polygon fill="#fac600" points="479.4 276.041 465.669 276.041 469.926 301.235 483.735 301.235 479.4 276.041"/><path fill="#fed2a4" d="M452.32891,249.30252l-8.28339-2.577a15,15,0,0,1-10.544-14.32286V218.48723a10,10,0,0,1,10-10h1.84058a7.8937,7.8937,0,0,1,7.8937-7.89371H470.3a10,10,0,0,1,10,10V232.9858a15,15,0,0,1-9.81442,14.07515l-1.49319.55012Z"/><path fill="#ffbd86" d="M472.937,200.95654a9.98628,9.98628,0,0,1,.363,2.637v22.39227a15.00005,15.00005,0,0,1-9.81448,14.0752l-1.49314.5501-8.033.81541a42.491,42.491,0,0,1-16.91392-1.701h0a15.007,15.007,0,0,1-2.04638-.81292,14.98515,14.98515,0,0,0,9.04638,7.81292h0a42.491,42.491,0,0,0,16.91392,1.701l8.033-.81541,1.49317-.55011a15,15,0,0,0,9.81445-14.07516v-22.3923A9.9957,9.9957,0,0,0,472.937,200.95654Z"/><path fill="#fed2a4" d="M447.66327,208.48723h-4.16176a10,10,0,0,0-10,10v13.11731"/><path fill="#ffbd86" d="M480.3,223.89089H456.80418a6,6,0,0,1-5.74618-4.27334l-3.39473-11.29738a6,6,0,0,1,5.74618-7.72666H470.3a10,10,0,0,1,10,10Z"/><path fill="#22b37f" d="M64.334,211.98828a3.50181,3.50181,0,0,1-3.12793-5.06543c3.65918-7.32324,4.60059-13.37793,2.79834-17.99609a28.03016,28.03016,0,0,0-2.38964-4.40723c-1.88721-3.05615-4.23536-6.85986-5.022-12.59521a29.22838,29.22838,0,0,1-.00146-7.83985,3.5,3.5,0,1,1,6.93848.92676,22.21894,22.21894,0,0,0-.00147,5.96191c.585,4.269,2.26465,6.98926,4.04248,9.86915a34.09237,34.09237,0,0,1,2.95459,5.53906c2.55176,6.53955,1.52295,14.50293-3.05762,23.67041A3.49988,3.49988,0,0,1,64.334,211.98828Z"/><path fill="#fe93d3" d="M57.7207,114.48547a43.18211,43.18211,0,0,0-22.84985-25.7594C22.827,108.39719,32.467,139.52961,54.5354,148.77124A43.18232,43.18232,0,0,0,57.7207,114.48547Z"/><path fill="#fe93d3" d="M84.15088,88.72607c-21.19447,8.74827-32.099,39.28583-19.66455,60.04517C85.68061,140.02289,96.58515,109.48548,84.15088,88.72607Z"/><ellipse cx="48.214" cy="150.835" fill="#22b37f" rx="21.252" ry="9.214" transform="rotate(-42.045 48.214 150.835)"/><ellipse cx="71.906" cy="150.835" fill="#22b37f" rx="9.214" ry="21.252" transform="rotate(-47.955 71.906 150.835)"/><ellipse cx="60.06" cy="150.835" fill="#09a76d" rx="9.214" ry="21.252"/><path fill="#fe73c5" d="M48.96631,120.42487A43.18288,43.18288,0,0,0,17.6582,106.09058c-3.013,22.61073,18.12816,47.53057,42.24366,46.985A43.18234,43.18234,0,0,0,48.96631,120.42487Z"/><path fill="#fe73c5" d="M102.46216,106.09058c-22.80279-.60007-45.34181,23.06318-42.24365,46.985C83.02123,153.67564,105.56049,130.01247,102.46216,106.09058Z"/><path fill="#fe4fb7" d="M60.0603,78.97394c-20.56206,17.52088-21.34009,55.81971,0,74.10162C80.62217,135.55463,81.40012,97.25585,60.0603,78.97394Z"/><path fill="#fed2a4" d="M101.32793,443.6389l-72.294-70.68734a30,30,0,0,1-8.6073-26.44784L38.00013,242.48635H66.94424l-.1261,87.27616A10,10,0,0,0,69.827,336.927l49.77541,48.66917Z"/><path fill="#ffbd86" d="M69.8269,336.92706a10.00018,10.00018,0,0,1-3.00878-7.16455l.12609-87.27618h-14l-.12609,87.27618a10.00018,10.00018,0,0,0,3.00878,7.16455l49.77539,48.66913-14.979,47.576,10.70459,10.46674,18.27441-58.04273Z"/><polygon fill="#fee903" points="70.957 413.943 97.493 363.978 84.215 350.996 83.343 350.26 56.846 400.145 70.957 413.943"/><polygon fill="#22b37f" points="119.6 385.6 101.33 443.64 70.96 413.94 56.85 400.15 83.34 350.26 84.21 350.99 84.22 351 97.49 363.98 119.6 385.6"/><path fill="#02905d" d="M119.6,385.6,97.49,363.98l-12.6123-12.33667-.67115-.65613-.86645-.72717-4.74243,8.93164L98.4891,378.64109a4.01551,4.01551,0,0,1,.19585,5.50963A65.17027,65.17027,0,0,0,82.7915,425.51056L99.95264,442.293l1.37548,1.34515h0l.002.00189,12.5708-39.935.08581-.27265Z"/><polygon fill="#fd4755" points="97.49 363.98 70.96 413.94 56.85 400.15 83.34 350.26 84.21 350.99 84.22 351 97.49 363.98"/><polygon fill="#fb2b3a" points="92.707 372.987 97.49 363.98 84.878 351.643 84.207 350.987 83.34 350.26 78.598 359.192 92.707 372.987"/><polygon fill="#fee903" points="28.075 301.235 66.859 301.235 66.896 276.041 32.331 276.041 28.075 301.235"/><polygon fill="#fac600" points="52.859 301.235 66.859 301.235 66.896 276.041 52.896 276.041 52.859 301.235"/><path fill="#fed2a4" d="M59.67109,249.30252l8.28339-2.577a15,15,0,0,0,10.544-14.32286V218.48723a10,10,0,0,0-10-10H66.65791a7.8937,7.8937,0,0,0-7.8937-7.89371H41.7a10,10,0,0,0-10,10V232.9858A15,15,0,0,0,41.51445,247.061l1.49319.55012Z"/><path fill="#ffbd86" d="M68.49854,208.48724H66.658a7.89375,7.89375,0,0,0-7.8938-7.89373h-14a7.89375,7.89375,0,0,1,7.8938,7.89373h1.84058a10,10,0,0,1,10,10v13.91535a15,15,0,0,1-10.54407,14.32287L49.11523,248.231l10.55591,1.07153,8.28333-2.57709a15,15,0,0,0,10.54407-14.32287V218.48724A10,10,0,0,0,68.49854,208.48724Z"/><path fill="#ffbd86" d="M31.7,223.89089H55.19582a6,6,0,0,0,5.74618-4.27334l3.39473-11.29738a6,6,0,0,0-5.74618-7.72666H41.7a10,10,0,0,0-10,10Z"/><polygon fill="#3c3b42" points="381.211 380.5 130.211 380.5 193.211 207.5 318.211 207.5 381.211 380.5"/><path fill="#2c2c2e" d="M371.08325,352.68982l-53.74463-16.03143a23.79333,23.79333,0,0,1-9.04008-5.04116,5.98571,5.98571,0,0,1,.26235-9.07982,83.18318,83.18318,0,0,0,30.23074-58.52124L318.21057,207.5h-125l-20.71545,56.88544a80.45288,80.45288,0,0,0,29.57953,58.74887,6.015,6.015,0,0,1-.03562,9.38818,23.75527,23.75527,0,0,1-7.95651,4.1359l-53.74463,16.03143L130.21057,380.5h251Z"/><polygon fill="#2c2c2e" points="318.211 207.5 304.211 207.5 367.211 380.5 381.211 380.5 318.211 207.5"/><circle cx="325.711" cy="268.981" r="18.255" fill="#fee903"/><path fill="#fac600" d="M334.62964,253.06183a18.24274,18.24274,0,0,1-24.838,24.838,18.24926,18.24926,0,1,0,24.838-24.838Z"/><circle cx="185.711" cy="268.981" r="18.255" fill="#fee903"/><path fill="#ffbd86" d="M342.34687 244.34186v-.00012s.18015-6.27571.48-14.18463a13.38662 13.38662 0 0 0-13.37237-13.8954H309.82826l7 40.23822h12.19379a13.3808 13.3808 0 0 0 13.32482-12.15807zM194.593 216.26172H181.78031A13.13251 13.13251 0 0 0 168.661 229.89406c.30586 8.03237.49 14.44768.49 14.44768v.00012l.01115.12154a13.17022 13.17022 0 0 0 13.08257 12.03654H194.593z"/><path fill="#fee903" d="M272.15,25.69a113.12131,113.12131,0,1,0,96.67005,111.92A112.915,112.915,0,0,0,272.15,25.69ZM255.71,215.73a78.115,78.115,0,0,1,0-156.23,77.3872,77.3872,0,0,1,29.48,5.79,78.108,78.108,0,0,1-29.48,150.44Z"/><path fill="#fac600" d="M212.26,72.74a77.55953,77.55953,0,0,1,36.44043-12.91534C246.39563,59.61914,244.06653,59.5,241.71,59.5a78.115,78.115,0,0,0,0,156.23c2.3606,0,4.69214-.1236,7-.32965A78.07887,78.07887,0,0,1,212.26,72.74Z"/><path fill="#fac600" d="M272.15,25.69A112.915,112.915,0,0,0,255.71,24.5c-2.354,0-4.68774.0863-7.00647.228,3.18384.194,6.33728.50457,9.44653.962A113.11882,113.11882,0,0,1,248.71,250.508c2.31592.14148,4.64844.222,7,.222A113.12131,113.12131,0,0,0,272.15,25.69Z"/><path fill="#fac600" d="M255.71057,215.72607a78.20137,78.20137,0,0,1-78.11328-78.11279q0-2.07531.11023-4.12408a79.36166,79.36166,0,0,0-10.36768,50.27087l3.62793,28.76447a112.83036,112.83036,0,0,0,84.7428,38.20172Z"/><path fill="#fff" d="M255.92188 238.53613c-.03809 0-.07618-.00049-.11426-.002-.03223.001-.06446.00146-.09717.00146h-.1001a3.5 3.5 0 1 1 0-7h.1001c.03857 0 .07666.00049.11475.002l.04687-.001.15088-.001a3.5 3.5 0 0 1 0 7h-.04932zM234.78516 236.27344a3.513 3.513 0 0 1-.76807-.08545l.76465-3.41553-.82373 3.40234a3.5 3.5 0 1 1 1.45215-6.84765c.01318.00293.12353.02685.13623.02978a3.50059 3.50059 0 0 1-.76123 6.91651zM276.84375 236.228a3.50063 3.50063 0 0 1-.77295-6.91407l.10889-.02441a3.50008 3.50008 0 0 1 1.52929 6.83106l-.08642.01953A3.52777 3.52777 0 0 1 276.84375 236.228zM214.82764 229.53906a3.48876 3.48876 0 0 1-1.48047-.33056l-.04834-.02246a3.50008 3.50008 0 0 1 2.88086-6.37989l.1333.06153a3.50068 3.50068 0 0 1-1.48535 6.67138zM296.78125 229.45117a3.50056 3.50056 0 0 1-1.46191-6.68164A3.54156 3.54156 0 0 1 300 224.45752a3.45793 3.45793 0 0 1-1.64746 4.62109c-.00781.00342-.10547.04883-.11328.05225A3.48367 3.48367 0 0 1 296.78125 229.45117zM196.75879 218.6499a3.41838 3.41838 0 0 1-2.0752-.70263l-.08691-.06641a3.49994 3.49994 0 1 1 4.24805-5.56348 3.51483 3.51483 0 0 1-2.08594 6.33252zM314.78125 218.53906a3.5 3.5 0 0 1-2.15137-6.26269l.11133-.08545a3.50016 3.50016 0 1 1 4.2334 5.57519l-2.1167-2.78759 2.06982 2.82324A3.48623 3.48623 0 0 1 314.78125 218.53906z"/><path fill="#fd4755" d="M169.6167 186.74658a3.42246 3.42246 0 0 1-3.03662-1.81982l-.04688-.08789a3.50009 3.50009 0 0 1 6.17676-3.29395 3.51825 3.51825 0 0 1-3.09326 5.20166zM341.8457 186.59961a3.50071 3.50071 0 0 1-3.09668-5.12647l.05811-.10937a3.50009 3.50009 0 0 1 6.17676 3.29394l-.03565.06739A3.49959 3.49959 0 0 1 341.8457 186.59961z"/><path fill="#0067c5" d="M161.8418 167.23584a3.5011 3.5011 0 0 1-3.37451-2.58008l3.37646-.9209-3.38721.88282a3.5 3.5 0 0 1 6.71973-1.96094c.00586.02.03857.13672.04394.15722a3.50374 3.50374 0 0 1-3.37841 4.42188zM349.63574 167.03516a3.50378 3.50378 0 0 1-3.37842-4.42188l.02637-.09668a3.4998 3.4998 0 0 1 6.75293 1.8418l-.02637.09668A3.5011 3.5011 0 0 1 349.63574 167.03516z"/><path fill="#fd4755" d="M158.42188 146.4126a3.45326 3.45326 0 0 1-3.48292-3.24512c-.001-.01709-.00732-.13379-.00781-.15088a3.5 3.5 0 1 1 6.99317-.30859 3.543 3.543 0 0 1-3.314 3.6997C158.54736 146.41064 158.48438 146.4126 158.42188 146.4126zM353.00146 146.228c-.05517 0-.11035-.001-.166-.00391a3.47769 3.47769 0 0 1-3.332-3.62207l.00488-.10254a3.5 3.5 0 0 1 6.99316.3086l-.00341.07373A3.52476 3.52476 0 0 1 353.00146 146.228z"/><path fill="#0067c5" d="M159.55176 125.43994a3.50355 3.50355 0 0 1-3.458-4.06738l3.45361.56689-3.439-.65771a3.5 3.5 0 1 1 6.91015 1.11816l-.01757.10645A3.50083 3.50083 0 0 1 159.55176 125.43994zM351.83545 125.2334a3.50084 3.50084 0 0 1-3.45068-2.94141 3.54347 3.54347 0 0 1 2.88427-4.063 3.4615 3.4615 0 0 1 4.0083 2.83838l.01758.10645a3.50272 3.50272 0 0 1-3.45947 4.05957z"/><path fill="#fd4755" d="M165.16309 105.12842a3.49766 3.49766 0 0 1-3.25586-4.75635l.062-.15527a3.50107 3.50107 0 1 1 3.19385 4.91162zM346.1792 104.958a3.50122 3.50122 0 0 1-3.24365-2.1836c-.00342-.00879-.04395-.11035-.04785-.11914a3.5002 3.5002 0 1 1 6.50683-2.582l-3.25342 1.291 3.27979-1.22461a3.50209 3.50209 0 0 1-3.2417 4.81836z"/><path fill="#0067c5" d="M175.03613 86.53027a3.49511 3.49511 0 0 1-2.9082-5.42578l.09619-.1416a3.50077 3.50077 0 1 1 2.812 5.56738zM336.27588 86.38672a3.49718 3.49718 0 0 1-2.8916-1.52393l-.06348-.09375a3.4999 3.4999 0 1 1 5.792-3.93066l-2.896 1.96533 2.94482-1.894a3.5006 3.5006 0 0 1-2.88574 5.477z"/><path fill="#fd4755" d="M188.68652 70.43994a3.483 3.483 0 0 1-2.44433-5.97363l.09814-.09326a3.49992 3.49992 0 1 1 4.79395 5.10058A3.57 3.57 0 0 1 188.68652 70.43994zM322.61768 70.36182a3.48782 3.48782 0 0 1-2.42237-.97412 3.52838 3.52838 0 0 1-.17676-4.96973 3.47206 3.47206 0 0 1 4.92383-.17529l.09864.09326a3.5 3.5 0 0 1-2.42334 6.02588z"/><path fill="#0067c5" d="M205.39941 57.71484a3.50032 3.50032 0 0 1-1.81152-6.49707l1.80811 2.99659-1.7378-3.03956a3.50016 3.50016 0 0 1 3.64649 5.97559c-.00489.00293-.09522.05762-.10059.06055A3.4824 3.4824 0 0 1 205.39941 57.71484zM305.856 57.61475a3.51906 3.51906 0 1 1 1.70312-6.5625l.146.08837a3.50034 3.50034 0 0 1-1.84912 6.47413z"/><path fill="#fff" d="M245.02979 44.272a3.50018 3.50018 0 0 1-.354-6.98193l.3584 3.48144-.30957-3.48681a3.50008 3.50008 0 0 1 .81836 6.95215l-.15039.01611A3.495 3.495 0 0 1 245.02979 44.272zM266.188 44.24951a3.54829 3.54829 0 0 1-3.53272-3.88867 3.45619 3.45619 0 0 1 3.78809-3.10352l.15039.01612a3.50007 3.50007 0 0 1-.40576 6.97607z"/><path fill="#fee903" d="M323.7106,234.5h-136l-7.58171-60.11207a67.97382,67.97382,0,0,1,40.75536-71.023L255.7106,88.5l34.82634,14.8649a67.97381,67.97381,0,0,1,40.75536,71.023Z"/><path fill="#fac600" d="M290.53687,103.36493,255.71057,88.5l-7,2.98779,27.8263,11.87714a67.97372,67.97372,0,0,1,40.75537,71.023L309.71057,234.5h14l7.58167-60.11206A67.97372,67.97372,0,0,0,290.53687,103.36493Z"/><path fill="#22b37f" d="M414.69422,502V425.54959A60,60,0,0,0,371.84483,368.053l-64.56475-19.259A20,20,0,0,1,292.997,329.62852V310.02624H218.42424v19.60228a20,20,0,0,1-14.28313,19.16553l-64.56474,19.259A60,60,0,0,0,96.727,425.54959V502a10,10,0,0,0,10,10H404.69422A10,10,0,0,0,414.69422,502Z"/><circle cx="256" cy="407.716" r="19.811" fill="#02905d"/><path fill="#02905d" d="M255.9728 400.9126a107.61279 107.61279 0 0 0 80.6753-36.35846l-29.368-8.76013a19.988 19.988 0 0 1-3.41108-1.38245 77.76241 77.76241 0 0 1-96.00525-.16766 19.97111 19.97111 0 0 1-3.72265 1.55011L175.188 364.43042A107.61442 107.61442 0 0 0 255.9728 400.9126zM450.36572 391.13855l-18.145 17.7418a3.99315 3.99315 0 0 1-6.6025-1.65262 65.28328 65.28328 0 0 0-22.45432-32.15315L392.4 385.6l18.2699 58.04.002-.00189h0l3.5957-3.51642 14.37353-14.05627v-.00006L441.04 413.94l12.80933-12.51892 1.30053-1.27142z"/><path fill="#fed2a4" d="M303.86,347.42a77.77985,77.77985,0,0,1-95.98-.16,20.00518,20.00518,0,0,0,10.53992-17.63v-19.6H293v19.6A19.99417,19.99417,0,0,0,303.86,347.42Z"/><path fill="#ffbd86" fill-rule="evenodd" d="M218.41992,310.03V325.0293a66.35407,66.35407,0,0,0,42.58777,15.32757h1.70349a67.7992,67.7992,0,0,0,30.60156-7.26574A20.00338,20.00338,0,0,1,293,329.63v-19.6Z"/><path fill="#fed2a4" fill-rule="evenodd" d="M255.71127,326.35688h-1.70359a66.14746,66.14746,0,0,1-66.41548-66.0756c.00038-17.53191.00059-20.69581.0007-27.29249a40.21034,40.21034,0,0,1,16.83557-32.71794l.49285-.352a48.27528,48.27528,0,0,1,34.50193-8.56027l16.28734,2.19321,16.28735-2.19321a48.27423,48.27423,0,0,1,34.50158,8.56l.49292.35208a40.20931,40.20931,0,0,1,16.83586,32.71713c.0001,5.86606.0003,8.56361.00065,25.2461A68.121,68.121,0,0,1,255.71127,326.35688Z"/><path fill="#ffbd86" fill-rule="evenodd" d="M187.5929,246.98877a40.21,40.21,0,0,1,16.83557-32.7179l.49292-.352a48.27541,48.27541,0,0,1,34.50195-8.5603l16.28723,2.19324,16.28735-2.19324a48.27449,48.27449,0,0,1,34.50159,8.56006q.24647.17588.49292.35205a40.2093,40.2093,0,0,1,16.83594,32.71716c0,3.61652,0,6.033.00024,11.26056l.00037-.01446c-.00037-16.6825-.00061-19.38007-.00061-25.2461a40.2093,40.2093,0,0,0-16.83594-32.71716q-.24647-.17615-.49292-.35205a48.27449,48.27449,0,0,0-34.50159-8.56006l-16.28735,2.19324-16.28723-2.19324a48.27541,48.27541,0,0,0-34.50195,8.5603l-.49292.352a40.21,40.21,0,0,0-16.83557,32.7179c-.00013,6.59668-.00037,9.76062-.00061,27.29248l.00024.00964C187.59277,254.08765,187.59277,251.25287,187.5929,246.98877Z"/><path fill="#fed2a4" d="M96.727,502V462.355h55.91509V512H106.727A10,10,0,0,1,96.727,502Z"/><rect width="55.915" height="21" x="96.727" y="462.355" fill="#fd4755"/><path fill="#fac600" d="M285.18994,65.29A77.9267,77.9267,0,0,0,212.26,72.74a14.15167,14.15167,0,0,1-.5-3.76,14.51041,14.51041,0,0,1,14.51-14.52h44.88A14.50388,14.50388,0,0,1,285.18994,65.29Z"/><path fill="#fee903" d="M233.27169,54.45933H278.1495a14.51583,14.51583,0,0,1,14.51583,14.51583v0A14.51584,14.51584,0,0,1,278.1495,83.491H233.27169A14.51583,14.51583,0,0,1,218.75586,68.9752v0a14.51584,14.51584,0,0,1,14.51584-14.51584Z"/><path fill="#fac600" d="M278.14941,54.45935h-1.59863a14.42462,14.42462,0,0,1,2.1145,7.51581v.00006A14.5158,14.5158,0,0,1,264.14941,76.491h-43.279a14.49242,14.49242,0,0,0,12.40137,7h44.87768a14.5158,14.5158,0,0,0,14.51587-14.51581v-.00006A14.5158,14.5158,0,0,0,278.14941,54.45935Z"/><path fill="#fee903" d="M224.59463,83.491h62.23194A14.51583,14.51583,0,0,1,301.3424,98.00687v0a14.51583,14.51583,0,0,1-14.51583,14.51583H224.59463A14.51583,14.51583,0,0,1,210.07879,98.0069v0A14.51584,14.51584,0,0,1,224.59463,83.491Z"/><path fill="#fac600" d="M286.82654 83.491h-1.59863a14.4258 14.4258 0 0 1 2.1145 7.51581v.00006a14.5158 14.5158 0 0 1-14.51587 14.51581H212.19336a14.49221 14.49221 0 0 0 12.40124 7h62.23194A14.5158 14.5158 0 0 0 301.34241 98.0069v-.00006A14.5158 14.5158 0 0 0 286.82654 83.491zM274.34009 36.34a27.17753 27.17753 0 0 1-3.28 12.93L268.25 54.46H229.16992L226.36 49.27a27.12449 27.12449 0 0 1-2.26-20.29 113.89216 113.89216 0 0 1 48.05-3.29A27.00345 27.00345 0 0 1 274.34009 36.34z"/><path fill="#fee903" d="M275.2509,54.45933H236.17029L233.359,49.27244a27.1318,27.1318,0,0,1,0-25.85743h0a27.1316,27.1316,0,0,1,7.52266-8.738L255.7106,3.5l14.829,11.177a27.13175,27.13175,0,0,1,7.52267,8.738h0a27.13186,27.13186,0,0,1,0,25.85743Z"/><path fill="#fac600" d="M278.06226,23.415a27.13118,27.13118,0,0,0-7.52271-8.738L255.71057,3.5l-2.35644,1.77612,3.18542,2.40094a27.13187,27.13187,0,0,1,7.52271,34.5954h0a9.90822,9.90822,0,0,1-8.711,5.18688H232.47046c.2749.61176.56592,1.21814.88843,1.81311l2.8114,5.18689H275.251l2.81128-5.18689A27.132,27.132,0,0,0,278.06226,23.415Z"/><circle cx="256" cy="32.966" r="7.625" fill="#fd4755"/><path fill="#fb2b3a" d="M257.58982,25.50934a7.61931,7.61931,0,0,1-8.00989,11.56036,7.6225,7.6225,0,1,0,8.00989-11.56036Z"/><circle cx="213.711" cy="164.006" r="7" fill="#0067c5"/><circle cx="297.711" cy="164.006" r="7" fill="#0067c5"/><path fill="#0055a3" d="M297.71057 157.006c-.05456 0-.1073.007-.1615.00818a6.99313 6.99313 0 0 1-5.20984 11.47766 6.99923 6.99923 0 1 0 5.37134-11.48584zM213.7106 157.006c-.05457 0-.1073.007-.1615.00818a6.99313 6.99313 0 0 1-5.20984 11.47766A6.99923 6.99923 0 1 0 213.7106 157.006z"/><circle cx="255.711" cy="156.815" r="12.474" fill="#fd4755"/><path fill="#fb2b3a" d="M260.30164,145.22351a12.45778,12.45778,0,0,1-16.182,16.18207,12.46975,12.46975,0,1,0,16.182-16.18207Z"/><path fill="#ffae71" d="M292.77 245.26953q-.26293 0-.53027-.00635a22.7926 22.7926 0 0 1-12.06739-3.80371 3.50007 3.50007 0 0 1 3.87012-5.833 15.755 15.755 0 0 0 17.47119-.001 3.4998 3.4998 0 1 1 3.86621 5.835A23.1118 23.1118 0 0 1 292.77 245.26953zM218.6377 245.26953c-.17579 0-.35206-.00195-.53028-.00635A22.79716 22.79716 0 0 1 206.04 241.45947a3.49979 3.49979 0 0 1 3.86914-5.833 15.81 15.81 0 0 0 8.36279 2.63868 16.06468 16.06468 0 0 0 9.1084-2.63965 3.50007 3.50007 0 1 1 3.86719 5.835A23.11 23.11 0 0 1 218.6377 245.26953zM255.70117 299.95508c-.21582 0-.43262-.00244-.65185-.00781a28.06956 28.06956 0 0 1-14.85938-4.68457 3.50007 3.50007 0 0 1 3.87012-5.833 21.07618 21.07618 0 0 0 11.1543 3.51953 21.33578 21.33578 0 0 0 12.14843-3.52051 3.50007 3.50007 0 1 1 3.86719 5.835A28.457 28.457 0 0 1 255.70117 299.95508z"/><path fill="#02905d" d="M333.11047,370.499l6.62366-11.1933-.2771-1.12347-2.8291-1.215a29.99984,29.99984,0,0,0-37.68274,12.33142l-47.901,81.53955-21.92334-12.12957a43.97928,43.97928,0,0,1-22.68823-38.48206V363.26636l-.16333-1.257a20.00726,20.00726,0,0,1-2.12818.78461l-34.158,10.189.09778,1.12671v26.11676a80.33039,80.33039,0,0,0,41.441,70.28931l17.51186,9.6889a4,4,0,0,1,1.51244,5.52608L215.11426,512h34.39892l2.04126-3.67908,9.7284-16.44006,38.61487-21.36475a80.35369,80.35369,0,0,0,41.4426-70.28967V374.10968l.31865-1.06079Z"/><path fill="#fee903" d="M211.52261,456.51611l44.18762,24.44794,44.18756-24.44794a80.35377,80.35377,0,0,0,41.44251-70.28967V360.10968l.31866-1.06079L307.28012,348.794a19.99777,19.99777,0,0,1-2.19739-.81488l-.09473,1.287v36.96045a43.979,43.979,0,0,1-22.68793,38.48194l-26.58984,14.71112-26.58942-14.71112a43.97927,43.97927,0,0,1-22.68817-38.48194V349.26636l-.16327-1.257a20.00731,20.00731,0,0,1-2.12823.78461l-34.1579,10.189.09772,1.12671v26.11676A80.35379,80.35379,0,0,0,211.52261,456.51611Z"/><path fill="#fac600" d="M304.988 354.92676v31.29986q0 1.47144-.09912 2.92694a108.54867 108.54867 0 0 0 31.75915-24.59942L307.28 355.794A19.26806 19.26806 0 0 1 304.988 354.92676zM206.43262 386.22662V354.92731a19.07162 19.07162 0 0 1-2.29151.8667q-17.079 1.59447-34.15783 3.189a119.574 119.574 0 0 0 36.53918 29.89795C206.46924 388.00012 206.43262 387.11621 206.43262 386.22662z"/><path fill="#fac600" d="M304.988,361.99274v24.23388a43.9791,43.9791,0,0,1-22.688,38.48194L258.73523,437.746l-19.903,33.87989,16.87793,9.33813L273.6,471.066l66.13415-111.76038-.22119-.89691-12.77356-3.81024A30.05638,30.05638,0,0,0,304.988,361.99274Z"/><path fill="#fd6930" d="M262.43164,459.356a3.50056,3.50056,0,0,1-.98047-6.86035l.98194,3.35937-.90137-3.3833a3.5002,3.5002,0,0,1,1.99219,6.71094c-.00489.001-.104.03027-.10889.03174A3.50625,3.50625,0,0,1,262.43164,459.356Z"/><path fill="#0067c5" d="M247.13184,458.93262a3.49947,3.49947,0,0,1-1.03028-.15576,3.54259,3.54259,0,0,1-2.3706-4.36524,3.45866,3.45866,0,0,1,4.28711-2.36767c.01562.00439.12646.03759.14209.04248a3.50058,3.50058,0,0,1-1.02832,6.84619Z"/><path fill="#fd6930" d="M232.38623,453.07129a3.48145,3.48145,0,0,1-1.60352-.39111,3.54243,3.54243,0,0,1-1.55761-4.71778,3.45742,3.45742,0,0,1,4.6416-1.5664c.01367.00683.11523.0581.12891.06543a3.50029,3.50029,0,0,1-1.60938,6.60986Z"/><path fill="#0067c5" d="M218.95215,444.64355a3.48477,3.48477,0,0,1-2.11426-.7124l-.103-.0791a3.5002,3.5002,0,0,1,4.28321-5.53711l-2.14161,2.76856,2.19483-2.72754a3.5,3.5,0,0,1-2.11914,6.28759Z"/><path fill="#fd6930" d="M207.35986,433.833a3.48991,3.48991,0,0,1-2.65136-1.21387,3.54186,3.54186,0,0,1,.30322-4.94873,3.45705,3.45705,0,0,1,4.88281.24756c.01611.01807.09815.11035.11377.12891a3.5,3.5,0,0,1-2.64844,5.78613Z"/><path fill="#0067c5" d="M198.0459,421.00439a3.49686,3.49686,0,0,1-3-1.69238c-.00781-.01269-.06543-.11035-.07324-.123a3.50007,3.50007,0,1,1,6.03906-3.54l-3.01953,1.77,3.04687-1.72315a3.50082,3.50082,0,0,1-2.99316,5.30859Z"/><path fill="#fd6930" d="M191.22217,406.68408a3.50069,3.50069,0,0,1-3.28809-2.30078,3.54283,3.54283,0,0,1,2.04688-4.52588,3.45909,3.45909,0,0,1,4.47656,1.98731c.00586.01513.04639.123.05176.13818a3.50268,3.50268,0,0,1-3.28711,4.70117Z"/><path fill="#0067c5" d="M186.83643,391.43066a3.5009,3.5009,0,0,1-3.43018-2.82421,3.543,3.543,0,0,1,2.72266-4.15381,3.45638,3.45638,0,0,1,4.11523,2.65478l.03027.14649a3.50213,3.50213,0,0,1-3.438,4.17675Z"/><path fill="#fd6930" d="M184.71533,375.69434a3.49771,3.49771,0,0,1-3.48584-3.23731c-.00146-.01709-.00879-.13232-.00976-.1499a3.49987,3.49987,0,1,1,6.9873-.417l-3.49365.20849,3.49658-.16211a3.50186,3.50186,0,0,1-3.23242,3.74805C184.88965,375.69092,184.80225,375.69434,184.71533,375.69434Z"/><circle cx="255.711" cy="217.66" r="3.5" fill="#fd4755"/><path fill="#fed402" d="M255.9728,393.9126a107.61279,107.61279,0,0,0,80.6753-36.35846l-29.368-8.76013a19.988,19.988,0,0,1-3.41108-1.38245,77.76241,77.76241,0,0,1-96.00525-.16766,19.97111,19.97111,0,0,1-3.72265,1.55011L175.188,357.43042A107.61442,107.61442,0,0,0,255.9728,393.9126Z"/><path fill="#fee903" d="M255.9728,393.9126a107.61279,107.61279,0,0,0,80.6753-36.35846l-29.368-8.76013a19.988,19.988,0,0,1-3.41108-1.38245,77.76241,77.76241,0,0,1-96.00525-.16766,19.97111,19.97111,0,0,1-3.72265,1.55011L175.188,357.43042A107.61442,107.61442,0,0,0,255.9728,393.9126Z"/><path fill="#fac600" d="M336.64807,357.55414l-9.90857-2.95563a30.0012,30.0012,0,0,0-27.79431,14.70007L287.19641,389.298A108.118,108.118,0,0,0,336.64807,357.55414Z"/><path fill="#fed402" d="M207.86 347.24l.02.02a19.02247 19.02247 0 0 1-2.77 1.21A20.00657 20.00657 0 0 0 207.86 347.24zM305.53 348.18c-.57007-.23-1.13-.48-1.67-.76l.01-.01C304.40991 347.69 304.96 347.95 305.53 348.18z"/><circle cx="255.711" cy="407.912" r="14" fill="#fee903"/><path fill="#f4d902" d="M261.46362,395.15906a13.98171,13.98171,0,0,1-18.506,18.5061,13.99355,13.99355,0,1,0,18.506-18.5061Z"/><path fill="#fd4755" d="M405.25393,512a10,10,0,0,0,10-9.99754l.0191-77.7226a60,60,0,0,0-36.32287-55.14912L350.628,356.96716c-13.87435-5.95865-23.01521-.67668-30.68285,12.33141L236.11422,512Z"/><path fill="#fb2b3a" d="M378.9502,369.13074l-28.32227-12.16358c-6.68494-2.871-12.2688-3.12573-17.12073-1.17071,1.01428.32727,2.05188.71161,3.12073,1.17071l28.32227,12.16358A59.99985,59.99985,0,0,1,401.273,424.27985L401.25146,512h4.00245a10,10,0,0,0,10-9.99755l.019-77.7226A59.99985,59.99985,0,0,0,378.9502,369.13074Z"/><path fill="#fee903" d="M353.73413,359.30566l-.2771-1.12347-2.8291-1.215a29.99984,29.99984,0,0,0-37.68274,12.33142L229.11422,512h34.399l2.04124-3.67908Z"/><path fill="#09a76d" d="M256.25586,497.88428a3.50072,3.50072,0,0,1-3.01123-5.27881l.05127-.08692a3.50008,3.50008,0,0,1,6.0293,3.55665l-.05127.08691A3.49893,3.49893,0,0,1,256.25586,497.88428Z"/><path fill="#fd6930" d="M264.52979,483.90332a3.50072,3.50072,0,0,1-3.01124-5.27881l.05127-.08691a3.50008,3.50008,0,0,1,6.0293,3.55664l-.05127.08691A3.49888,3.49888,0,0,1,264.52979,483.90332Z"/><path fill="#09a76d" d="M272.80322,469.92188a3.50075,3.50075,0,0,1-3.00683-5.28614l.05127-.08642a3.5,3.5,0,1,1,6.0205,3.57129l-.05127.08642A3.49781,3.49781,0,0,1,272.80322,469.92188Z"/><path fill="#fd6930" d="M281.07666,455.94092a3.50072,3.50072,0,0,1-3.01123-5.27881l.05127-.08691a3.50008,3.50008,0,0,1,6.0293,3.55664l-.05127.08691A3.49891,3.49891,0,0,1,281.07666,455.94092Z"/><path fill="#09a76d" d="M289.3501,441.96a3.50061,3.50061,0,0,1-3.00391-5.2915l.05176-.08692a3.50025,3.50025,0,1,1,6.01465,3.582l-.05176.08692A3.49942,3.49942,0,0,1,289.3501,441.96Z"/><path fill="#fd6930" d="M297.624,427.979a3.50072,3.50072,0,0,1-3.01123-5.2788l.05127-.08692a3.50008,3.50008,0,1,1,6.0293,3.55664l-.05127.08692A3.4989,3.4989,0,0,1,297.624,427.979Z"/><path fill="#09a76d" d="M305.89746,413.99756a3.50075,3.50075,0,0,1-3.00684-5.28613l.05127-.08643a3.5,3.5,0,1,1,6.02051,3.57129l-.05127.08642A3.49784,3.49784,0,0,1,305.89746,413.99756Z"/><path fill="#fd6930" d="M314.1709,400.0166a3.50072,3.50072,0,0,1-3.01123-5.27881l.05127-.08691a3.50007,3.50007,0,1,1,6.02929,3.55664l-.05127.08691A3.49888,3.49888,0,0,1,314.1709,400.0166Z"/><path fill="#09a76d" d="M322.44434,386.03564a3.50061,3.50061,0,0,1-3.00391-5.2915l.05176-.08691a3.50025,3.50025,0,1,1,6.01465,3.582l-.05176.08691A3.49942,3.49942,0,0,1,322.44434,386.03564Z"/><path fill="#fd6930" d="M330.71826 372.05469a3.50072 3.50072 0 0 1-3.01123-5.27881l.05127-.08692a3.50008 3.50008 0 0 1 6.0293 3.55665l-.05127.08691A3.49892 3.49892 0 0 1 330.71826 372.05469zM248.0083 511.82129a3.51621 3.51621 0 1 1 3.042-1.7627l-.02539.043A3.49908 3.49908 0 0 1 248.0083 511.82129z"/><path fill="#fee903" d="M361.59 392.45556a5.93213 5.93213 0 0 0 2.41789-2.93727 3.0095 3.0095 0 0 1 5.6697.6342 13.42418 13.42418 0 0 1 .221 4.1385c-.0368.361-1.03258 8.87976-7.48277 10.91238-2.67044.8415-7.4359.93688-9.66525-2.49426-1.83045-2.81717-1.296-7.00334.85277-8.78918C355.95357 391.96672 358.78575 394.08919 361.59 392.45556zM336.8539 451.79913a5.93208 5.93208 0 0 0-2.41789 2.93727 3.00951 3.00951 0 0 1-5.6697-.63421 13.42381 13.42381 0 0 1-.221-4.13849c.0368-.36105 1.03258-8.87977 7.48277-10.91239 2.67044-.8415 7.4359-.93687 9.66525 2.49426 1.83045 2.81718 1.296 7.00335-.85277 8.78919C342.49037 452.288 339.65819 450.16549 336.8539 451.79913zM308.8539 498.1759a5.93213 5.93213 0 0 0-2.41789 2.93727 3.0095 3.0095 0 0 1-5.6697-.63421 13.42379 13.42379 0 0 1-.221-4.13849c.0368-.361 1.03258-8.87977 7.48277-10.91239 2.67044-.8415 7.4359-.93687 9.66525 2.49426 1.83045 2.81718 1.296 7.00335-.85277 8.78919C314.49037 498.66474 311.65819 496.54226 308.8539 498.1759zM375.73361 432.963a5.93209 5.93209 0 0 0 2.4179-2.93727 3.0095 3.0095 0 0 1 5.66969.63421 13.4238 13.4238 0 0 1 .221 4.13849c-.0368.361-1.03259 8.87977-7.48278 10.91239-2.67043.8415-7.43589.93687-9.66525-2.49426-1.83044-2.81718-1.296-7.00335.85278-8.78919C370.09714 432.47417 372.92933 434.59664 375.73361 432.963zM390.21867 474.26182a5.93213 5.93213 0 0 0 2.41789-2.93727 3.0095 3.0095 0 0 1 5.6697.6342 13.42418 13.42418 0 0 1 .221 4.1385c-.0368.36105-1.03258 8.87977-7.48277 10.91238-2.67044.8415-7.4359.93688-9.66525-2.49425-1.83045-2.81718-1.296-7.00335.85277-8.78919C384.5822 473.773 387.41438 475.89546 390.21867 474.26182zM350.8539 498.1759a5.93213 5.93213 0 0 0-2.41789 2.93727 3.0095 3.0095 0 0 1-5.6697-.63421 13.42379 13.42379 0 0 1-.221-4.13849c.0368-.361 1.03258-8.87977 7.48277-10.91239 2.67044-.8415 7.4359-.93687 9.66525 2.49426 1.83045 2.81718 1.296 7.00335-.85277 8.78919C356.49037 498.66474 353.65819 496.54226 350.8539 498.1759z"/><path fill="#02905d" d="M198.4209,511.82129q-.17065,0-.34424-.01709c-20.52881-2.00195-37.84961-13.83789-45.20361-30.88867-6.50293-15.07862-3.31934-29.91992.49658-39.71485a3.5,3.5,0,1,1,6.52246,2.541c-3.34033,8.57422-6.1543,21.50244-.59131,34.40137,6.34473,14.71093,21.46289,24.93945,39.45557,26.69433a3.50023,3.50023,0,0,1-.33545,6.98389Z"/></svg>