<svg xmlns="http://www.w3.org/2000/svg" data-name="Layer 1" viewBox="0 0 512 512"><rect width="13.412" height="45.76" x="464.995" y="178.509" fill="#baafb9" transform="rotate(-20.982 471.7 201.39)"/><path fill="#e5e1e5" d="M385.71791,104.56672a1.99628,1.99628,0,0,1-.38547-3.922c33.86364-8.56345,66.46214,3.17133,80.30376,26.40408,12.37359,20.76873,5.99842,44.41537,4.13338,50.57609l-12.52282,4.80244c.62344-8.37869.60854-25.477-9.41529-42.26855C435.42452,119.37519,412.11312,106.48123,385.71791,104.56672Z"/><path fill="#baafb9" d="M23.53613,236.73239a6.77781,6.77781,0,0,1-2.48089-9.259l26.85842-46.51947a46.88421,46.88421,0,1,1,69.66855-13.34774,6.77808,6.77808,0,1,1-11.73993-6.77815,33.32611,33.32611,0,1,0-45.52471,12.198,6.7778,6.7778,0,0,1,2.48089,9.259L32.79518,234.2515A6.77782,6.77782,0,0,1,23.53613,236.73239Z"/><path fill="#8ac9fe" d="M438.17468,283.1439l-41.83186,78.4394a10,10,0,0,1-4.00112,4.05466l-67.74738,37.29472,32.39786,60.49941,73.21391-61.63163a30,30,0,0,0,10.06569-16.91079l22.29033-88.371Z"/><path fill="#26a6fe" d="M438.1748,283.14392l-3.16821,5.94049,13.55542,7.43427-22.29028,88.371a29.99875,29.99875,0,0,1-10.06568,16.91083l-63.564,53.5083,4.3501,8.12329,73.21386-61.63159a29.99875,29.99875,0,0,0,10.06568-16.91083l22.29028-88.371Z"/><path fill="#26a6fe" d="M438.1748,290.14392l5.57593,5.98834,6.21045,7.00287a7.29186,7.29186,0,0,0,7.86792,2.043l1.78858-.62707c.3457-.12122.68066-.26545,1.01953-.40113l1.9248-7.63122-22.26758-12.21216Z"/><path fill="#8ac9fe" d="M459.61761,297.551h0a25.26838,25.26838,0,0,0,11.98087-8.854h0a25.26845,25.26845,0,0,1,6.82125-6.356l25.42932-16.10464a10,10,0,0,0,3.23345-13.57838l-17.79623-29.77713a9.13355,9.13355,0,0,0-12.47667-3.34312L459.498,229.5326a7.4358,7.4358,0,0,0-3.27128,3.90144L438.17468,283.1439l-4.7854,8.97314,13.488,5.22689A18.406,18.406,0,0,0,459.61761,297.551Z"/><path fill="#26a6fe" d="M502.49536,259.22137l-17.79907-29.7821a9.128,9.128,0,0,0-12.469-3.341,11.92228,11.92228,0,0,0-4.36376,16.286L484.36865,270.075a9.93376,9.93376,0,0,0,6.20239,4.57044l13.12842-8.31433A9.9468,9.9468,0,0,0,502.49536,259.22137Z"/><path fill="#8ac9fe" d="M502.896,266.84l.95308-.60359a10,10,0,0,0,3.23345-13.57836l-17.7991-29.78209a9.12785,9.12785,0,0,0-12.46888-3.341h0a11.92217,11.92217,0,0,0-4.36382,16.286l16.505,27.69076A10,10,0,0,0,502.896,266.84Z"/><path fill="#8ac9fe" d="M473.75342,240.30042a13.03374,13.03374,0,0,0,4.77051-17.80457l-1.70923-2.96063-.00513.00256-17.31152,9.99481a7.43562,7.43562,0,0,0-3.27124,3.90143l-8.11866,22.35632Z"/><path fill="#26a6fe" d="M465.71732,242.76321a1.80956,1.80956,0,0,0,2.59375.82443l5.44235-3.28722a13.03374,13.03374,0,0,0,4.77051-17.80457l-1.70654-2.956-.00782-.0021-5.24853,3.03034a13.03132,13.03132,0,0,1-4.80762,17.7323l-.31349.18934a1.80955,1.80955,0,0,0-.72261,2.27345Z"/><polygon fill="#fee903" points="456.278 321.432 447.987 354.303 413.355 329.683 428.346 301.574 456.278 321.432"/><polygon fill="#fac600" points="447.987 354.303 456.278 321.432 444.407 312.992 436.115 345.864 447.987 354.303"/><path fill="#8ac9fe" d="M73.80439,283.1081l41.83186,78.43941a10,10,0,0,0,4.00112,4.05466l67.74738,37.29472L154.98689,463.3963,81.773,401.76467a30,30,0,0,1-10.06569-16.91079L49.417,296.4829Z"/><path fill="#26a6fe" d="M73.80427,283.10813l3.16821,5.94049-13.55542,7.43426,22.29028,88.371A29.99872,29.99872,0,0,0,95.773,401.76468l63.564,53.5083-4.3501,8.1233L81.773,401.76468a29.99872,29.99872,0,0,1-10.06568-16.91082l-22.29028-88.371Z"/><path fill="#26a6fe" d="M73.80427,290.10813l-5.57593,5.98834-6.21045,7.00287a7.29186,7.29186,0,0,1-7.86792,2.043l-1.78858-.62708c-.3457-.12121-.68066-.26544-1.01953-.40112l-1.9248-7.63123,22.26758-12.21215Z"/><path fill="#8ac9fe" d="M52.36146,297.51521h0a25.26829,25.26829,0,0,1-11.98087-8.85395h0a25.26845,25.26845,0,0,0-6.82125-6.356L8.13,266.2006a10,10,0,0,1-3.23345-13.57838l17.79623-29.77713A9.13355,9.13355,0,0,1,35.16946,219.502L52.481,229.49681a7.43582,7.43582,0,0,1,3.27128,3.90143L73.80439,283.1081l4.7854,8.97315-13.488,5.22689A18.406,18.406,0,0,1,52.36146,297.51521Z"/><path fill="#26a6fe" d="M9.48371,259.18558l17.79907-29.7821a9.128,9.128,0,0,1,12.469-3.341,11.92228,11.92228,0,0,1,4.36376,16.286L27.61042,270.03922a9.93371,9.93371,0,0,1-6.20239,4.57043L8.27961,266.29532A9.94678,9.94678,0,0,1,9.48371,259.18558Z"/><path fill="#8ac9fe" d="M9.08307,266.80418,8.13,266.20059a10,10,0,0,1-3.23345-13.57837l17.7991-29.78208a9.12785,9.12785,0,0,1,12.46888-3.341h0a11.92216,11.92216,0,0,1,4.36382,16.286l-16.505,27.69077A10,10,0,0,1,9.08307,266.80418Z"/><path fill="#8ac9fe" d="M38.22565,240.26462a13.03372,13.03372,0,0,1-4.77051-17.80456l1.70923-2.96064.00513.00257L52.481,229.4968a7.43562,7.43562,0,0,1,3.27124,3.90143l8.11866,22.35632Z"/><path fill="#26a6fe" d="M46.26175,242.72742a1.80955,1.80955,0,0,1-2.59375.82442l-5.44235-3.28722a13.03372,13.03372,0,0,1-4.77051-17.80456l1.70654-2.956.00782-.00209,5.24853,3.03033a13.03131,13.03131,0,0,0,4.80762,17.7323l.31349.18935a1.80955,1.80955,0,0,1,.72261,2.27345Z"/><polygon fill="#fee903" points="55.701 321.396 63.992 354.267 98.624 329.647 83.633 301.539 55.701 321.396"/><polygon fill="#fac600" points="63.992 354.267 55.701 321.396 67.572 312.956 75.864 345.828 63.992 354.267"/><path fill="#fee903" d="M256,24.5A113.11313,113.11313,0,1,0,369.11328,137.6131,113.113,113.113,0,0,0,256,24.5Zm0,191.22607a78.113,78.113,0,1,1,78.11328-78.11279A78.20137,78.20137,0,0,1,256,215.72607Z"/><path fill="#fac600" d="M315.90625,187.67285A78.08285,78.08285,0,0,1,178.73877,126.1239a67.90661,67.90661,0,0,0-12.32056,48.264l4.80542,38.09863A113.64823,113.64823,0,0,0,197.59961,234.5H310Z"/><path fill="#fac600" d="M249 59.82965c-2.30786-.206-4.6394-.32965-7-.32965a78.113 78.113 0 1 0 0 156.22607c2.3606 0 4.69214-.12359 7-.32965a78.0962 78.0962 0 0 1 0-155.56677zM256 24.5c-2.35156 0-4.68408.08051-7 .22192a113.10767 113.10767 0 0 1 0 225.78241c2.31592.14142 4.64844.22193 7 .22193A113.11313 113.11313 0 1 0 256 24.5z"/><polygon fill="#3c3b42" points="381.5 380.5 130.5 380.5 193.5 207.5 318.5 207.5 381.5 380.5"/><path fill="#2c2c2e" d="M326,294.23535a18.25443,18.25443,0,0,0,18.14771-16.30578l-5.49439-15.08826A18.24917,18.24917,0,1,0,326,294.23535Z"/><path fill="#2c2c2e" d="M368.97705,346.11121l-61.40771-18.31714q-.5912-.17636-1.16452-.38669a4.66851,4.66851,0,0,1-1.61376-7.662,67.86462,67.86462,0,0,0,19.32735-47.51144c-.00049-16.68108-.00073-19.37961-.00073-25.24461a40.21014,40.21014,0,0,0-16.83117-32.71523l-.48984-.35a48.27518,48.27518,0,0,0-34.50932-8.56551L256,207.55176l-16.28735-2.19324a48.275,48.275,0,0,0-34.5,8.55889l-.49058.35038a40.21681,40.21681,0,0,0-16.83978,32.72489c0,6.594-.00048,9.76019-.00073,27.28857a65.67817,65.67817,0,0,0,18.55382,45.84383,4.64208,4.64208,0,0,1-1.93012,7.64656l-.07463.02243L143.023,346.11121,133.04907,373.5H378.95093Z"/><polygon fill="#2c2c2e" points="318.5 207.5 304.5 207.5 367.5 380.5 381.5 380.5 318.5 207.5"/><circle cx="326" cy="268.981" r="18.255" fill="#fee903"/><path fill="#fac600" d="M334.919,253.06183a18.24268,18.24268,0,0,1-24.8379,24.838,18.24928,18.24928,0,1,0,24.8379-24.838Z"/><path fill="#2c2c2e" d="M186,294.23535a18.25452,18.25452,0,1,0-12.65332-31.394l-5.49439,15.08826A18.25443,18.25443,0,0,0,186,294.23535Z"/><circle cx="186" cy="268.981" r="18.255" fill="#fee903"/><path fill="#fff" d="M249.35352 237.02979q-.104 0-.208-.00586c-.01758-.001-.13379-.00928-.15137-.01026a3.50016 3.50016 0 0 1 .51367-6.98144L249.251 233.523l.30566-3.48731a3.50017 3.50017 0 0 1-.20312 6.99415zM270.28223 236.20215a3.50029 3.50029 0 0 1-.50489-6.96338l.50879 3.46289-.42578-3.4751a3.5 3.5 0 1 1 1.04883 6.9209c-.00488.001-.1084.01611-.11426.01709A3.513 3.513 0 0 1 270.28223 236.20215zM228.63379 233.30566a3.50555 3.50555 0 0 1-1.04492-.16015 3.544 3.544 0 0 1-2.35645-4.36133 3.46427 3.46427 0 0 1 4.27246-2.37109c.02539.00732.14649.043.17188.05078a3.50064 3.50064 0 0 1-1.043 6.84179zM290.68652 230.80713a3.4957 3.4957 0 0 1-1.31347-6.74365l.13867-.05323a3.50046 3.50046 0 1 1 1.1748 6.79688zM209.22754 225.13379a3.47982 3.47982 0 0 1-1.7666-.481 3.54244 3.54244 0 0 1-1.31739-4.77246 3.45831 3.45831 0 0 1 4.68653-1.36279c.02832.01562.14258.08008.1709.09619a3.50054 3.50054 0 0 1-1.77344 6.52zM309.37988 221.07227a3.48523 3.48523 0 0 1-2.01269-6.34913c.01562-.01074.11426-.07714.12988-.0874a3.5 3.5 0 0 1 3.83594 5.85547A3.558 3.558 0 0 1 309.37988 221.07227zM192.0791 212.93018a3.4896 3.4896 0 0 1-2.31836-.87842c-.00683-.00684-.08886-.07959-.09668-.08643a3.50031 3.50031 0 0 1 4.6836-5.20312l-2.3418 2.60156 2.39355-2.55518a3.50045 3.50045 0 0 1-2.32031 6.12159z"/><path fill="#09a76d" d="M167.57812 178.95947a3.46527 3.46527 0 0 1-3.17578-2.06152l-.07617-.17822a3.50014 3.50014 0 0 1 6.47071-2.6709l-3.23536 1.33545 3.24512-1.311a3.50848 3.50848 0 0 1-3.22852 4.88623zM347.13574 171.749a3.42825 3.42825 0 0 1-1.09961-.18164 3.46535 3.46535 0 0 1-2.207-4.398l.03809-.11035a3.49966 3.49966 0 1 1 6.61914 2.27539A3.55942 3.55942 0 0 1 347.13574 171.749z"/><path fill="#fd4755" d="M161.46777 158.80371a3.46983 3.46983 0 0 1-3.40722-2.76123c-.00684-.03271-.03223-.16406-.03809-.19678a3.50016 3.50016 0 0 1 6.89063-1.23437l-3.44532.61719 3.44922-.59278a3.52132 3.52132 0 0 1-2.75683 4.09961A3.5707 3.5707 0 0 1 161.46777 158.80371zM351.62207 151.22217a3.60142 3.60142 0 0 1-.41309-.02442 3.49916 3.49916 0 0 1-3.0664-3.88524l3.47558.40917-3.47363-.43359a3.5003 3.5003 0 0 1 6.9707.6416l-.02148.20117A3.49964 3.49964 0 0 1 351.62207 151.22217z"/><path fill="#09a76d" d="M159.91406 137.835q-.104 0-.208-.00586a3.55032 3.55032 0 1 1 3.707-3.49072c-.001.03418-.00586.168-.00782.20215A3.50043 3.50043 0 0 1 159.91406 137.835zM351.52246 130.17236a3.49964 3.49964 0 0 1-3.47168-3.09131l-.01172-.10009a3.49953 3.49953 0 1 1 6.95117-.81739l.01172.09913a3.49916 3.49916 0 0 1-3.0664 3.88525A3.59067 3.59067 0 0 1 351.52246 130.17236z"/><path fill="#fd4755" d="M162.90332 116.97412a3.49657 3.49657 0 0 1-3.39844-4.2998c.00782-.03223.041-.16065.04981-.19287a3.50026 3.50026 0 0 1 6.7539 1.84179l-3.377-.9209 3.37012.94532A3.53322 3.53322 0 0 1 162.90332 116.97412zM346.87109 109.63623a3.50192 3.50192 0 0 1-3.31543-2.37891l3.31543-1.12207-3.32226 1.10108a3.52377 3.52377 0 0 1 2.1123-4.4624 3.47662 3.47662 0 0 1 4.4541 2.03759l.07129.20166a3.50236 3.50236 0 0 1-3.31543 4.623z"/><path fill="#09a76d" d="M170.38184 97.2998a3.49485 3.49485 0 0 1-3.125-5.04443c.01367-.02734.07421-.14307.08886-.16992a3.49965 3.49965 0 1 1 6.17578 3.29394l-3.08789-1.647 3.08106 1.66113A3.53192 3.53192 0 0 1 170.38184 97.2998zM337.77637 90.58838a3.41673 3.41673 0 0 1-2.91992-1.62451l-.05274-.085a3.49987 3.49987 0 1 1 5.94727-3.69139 3.51883 3.51883 0 0 1-2.97461 5.40086z"/><path fill="#fd4755" d="M181.9834 79.72363a3.4906 3.4906 0 0 1-2.74512-5.644c.02344-.0293.11035-.13525.13477-.16357a3.5 3.5 0 1 1 5.34375 4.5215l-2.67188-2.26076 2.65723 2.27783A3.53938 3.53938 0 0 1 181.9834 79.72363zM324.81543 74.0083a3.40623 3.40623 0 0 1-2.44727-1.03223c-.01757-.01757-.10449-.10742-.12109-.12548a3.5 3.5 0 1 1 5.10352-4.791 3.51765 3.51765 0 0 1-2.53516 5.94873z"/><path fill="#09a76d" d="M197.1123 65.1123a3.5 3.5 0 0 1-2.11914-6.28759 3.54145 3.54145 0 0 1 4.93067.62451 3.45752 3.45752 0 0 1-.58692 4.86474l-.11132.08594A3.48306 3.48306 0 0 1 197.1123 65.1123zM308.62012 60.63818a3.48854 3.48854 0 0 1-1.92676-.58007l1.92969-2.92041-2.001 2.873a3.5 3.5 0 1 1 3.83594-5.85547l.09472.0625a3.50048 3.50048 0 0 1-1.93261 6.42041z"/><path fill="#fd4755" d="M215.05664 54.10059a3.50069 3.50069 0 0 1-1.48437-6.67139l.09082-.04248a3.49987 3.49987 0 0 1 2.96484 6.34082l-.08984.04248A3.4947 3.4947 0 0 1 215.05664 54.10059zM289.85254 51.10156a3.48487 3.48487 0 0 1-1.22754-.22363l-.09375-.03516a3.5 3.5 0 1 1 2.457-6.55468l.09375.03515a3.50059 3.50059 0 0 1-1.22949 6.77832z"/><path fill="#fff" d="M234.97266 47.27637a3.50042 3.50042 0 0 1-.70215-6.92871 3.54077 3.54077 0 0 1 4.17578 2.67675 3.45723 3.45723 0 0 1-2.59668 4.14307c-.02246.00537-.14356.03174-.167.03662A3.53187 3.53187 0 0 1 234.97266 47.27637zM269.45508 45.90527a3.50958 3.50958 0 0 1-.46-.03076c-.02246-.00293-.14258-.01953-.16407-.023a3.5 3.5 0 1 1 1.04883-6.9209 3.543 3.543 0 0 1 2.99024 3.959A3.46513 3.46513 0 0 1 269.45508 45.90527zM256 44.9707h-.09961a3.5 3.5 0 0 1 0-7 3.543 3.543 0 0 1 3.54981 3.5A3.458 3.458 0 0 1 256 44.9707z"/><path fill="#fee903" d="M324,234.5H188l-7.5817-60.11207a67.9738,67.9738,0,0,1,40.75536-71.023L256,88.5l34.82634,14.8649a67.9738,67.9738,0,0,1,40.75536,71.023Z"/><path fill="#fac600" d="M290.82642,103.36493,256,88.5l-7,2.98779,27.82642,11.87714a67.974,67.974,0,0,1,40.75537,71.023L310,234.5h14l7.58179-60.11206A67.974,67.974,0,0,0,290.82642,103.36493Z"/><path fill="#26a6fe" d="M84.74146,404.26355l70.24536,59.13275,32.398-60.49939-67.74732-37.29474a9.97286,9.97286,0,0,1-1.95068-1.4339A60.02593,60.02593,0,0,0,84.74146,404.26355Z"/><path fill="#8ac9fe" d="M414.98363,502V425.54959a60,60,0,0,0-42.8494-57.49658l-64.56475-19.259a20,20,0,0,1-14.28313-19.16553V310.02624h-74.5727v19.60228a20,20,0,0,1-14.28313,19.16553l-64.56475,19.259a60,60,0,0,0-42.8494,57.49658V502a10,10,0,0,0,10,10H404.98363A10,10,0,0,0,414.98363,502Z"/><path fill="#26a6fe" d="M372.1341,368.05293l-26.2674-7.83522-33.77246-10.074v.00006l-4.5249-1.34973a19.99977,19.99977,0,0,1-14.283-19.16531V310.02625H218.71362v7h60.57276V336.629a19.99948,19.99948,0,0,0,14.283,19.16508l6.10888,1.82214a96.96764,96.96764,0,0,1-99.67163-7.50256l-42.14477,12.57129a134.57132,134.57132,0,0,0,67.72871,39.22034A16.51026,16.51026,0,0,1,238.3418,417.9964v.03037a27.311,27.311,0,0,0,8.10547,19.4175L256,446.89276l9.55325-9.449a27.30935,27.30935,0,0,0,8.105-19.41628v0a16.5202,16.5202,0,0,1,12.7838-16.09879,133.96892,133.96892,0,0,0,53.70582-26.17229,13.44926,13.44926,0,0,1,12.27264-2.40778l5.71373,1.70434a60,60,0,0,1,42.84945,57.49661V509a9.99115,9.99115,0,0,1-.45923,3h4.45923a10,10,0,0,0,10-10V425.54956A60,60,0,0,0,372.1341,368.05293Z"/><path fill="#fee903" d="M336.73,357.48657l-29.36792-8.76013a19.9945,19.9945,0,0,1-3.41113-1.38245,77.7622,77.7622,0,0,1-96.00513-.16766,19.97362,19.97362,0,0,1-3.72266,1.55011L175.27,357.36285a107.9493,107.9493,0,0,0,56.25679,33.66141,13.28974,13.28974,0,0,1,10.31853,12.92117v.02494a21.89143,21.89143,0,0,0,6.49713,15.56441L256,427.10864l7.65753-7.57386a21.89144,21.89144,0,0,0,6.49713-15.56441v0a13.29091,13.29091,0,0,1,10.33262-12.92448A107.94457,107.94457,0,0,0,336.73,357.48657Z"/><path fill="#fac600" d="M336.72583,357.49109h0l.00415-.00452-5.198-1.55053-.00464.00439-23.958-7.14636c-.04371-.01306-.085-.03083-.12842-.04413l-.07886-.0235c-.12768-.03809-.24731-.09119-.37378-.1319-.36548-.12127-.73071-.24231-1.08545-.383-.46533-.1814-.91748-.3841-1.364-.59687l-.02124-.0097c-.18726-.08948-.38233-.16644-.56665-.26093a78.14116,78.14116,0,0,1-12.18408,7.808c.5874.23822,1.18554.45807,1.80249.64209L316.58718,362.66a2.79692,2.79692,0,0,1,.76836,4.9895,107.19787,107.19787,0,0,1-36.99178,16.425,13.22047,13.22047,0,0,0-10.209,12.89537v0a21.89228,21.89228,0,0,1-6.49732,15.56492L256,420.10864l-7.65747-7.57385a21.89228,21.89228,0,0,1-6.49732-15.56492v-.02444a13.179,13.179,0,0,0-10.12211-12.87557A107.77724,107.77724,0,0,1,180.45557,355.816L175.27,357.36285a107.9487,107.9487,0,0,0,56.25658,33.66132,13.28982,13.28982,0,0,1,10.31861,12.92126v.02444a21.89228,21.89228,0,0,0,6.49732,15.56492L256,427.10864l7.65782-7.5742a21.89113,21.89113,0,0,0,6.497-15.56408v0a13.30334,13.30334,0,0,1,10.35384-12.92947,107.68265,107.68265,0,0,0,47.665-24.93674q1.27662-1.15054,2.51343-2.34351c.31787-.305.62988-.61523.94385-.92407q.90089-.88549,1.78125-1.79157c.27954-.2879.55981-.57464.83618-.86566C335.0874,359.29584,335.917,358.40289,336.72583,357.49109Z"/><path fill="#26a6fe" d="M342.63628 244.34186v-.00012s.18014-6.27571.48-14.18463a13.38662 13.38662 0 0 0-13.37237-13.8954H317.11766v40.23822h12.1938a13.3808 13.3808 0 0 0 13.32481-12.15807zM194.88243 216.26172H182.06971a13.13253 13.13253 0 0 0-13.11929 13.63234c.30587 8.03237.49 14.44768.49 14.44768v.00012l.01116.12154a13.1702 13.1702 0 0 0 13.08256 12.03654h12.3483z"/><path fill="#26a6fe" fill-rule="evenodd" d="M218.71362,310.02625v19.60229a19.95241,19.95241,0,0,1-1.66113,7.97125,66.34167,66.34167,0,0,0,44.24463,16.75708h1.70361a67.77119,67.77119,0,0,0,36.26612-10.46832,19.98722,19.98722,0,0,1-5.98047-14.26V310.02625Z"/><path fill="#8ac9fe" fill-rule="evenodd" d="M256.00067,326.35688h-1.70358a66.14747,66.14747,0,0,1-66.41549-66.0756c.00039-17.53191.00059-20.69581.0007-27.29249a40.21034,40.21034,0,0,1,16.83557-32.71794l.49285-.352a48.27531,48.27531,0,0,1,34.50194-8.56027L256,193.55175l16.28734-2.19321a48.27426,48.27426,0,0,1,34.50159,8.56l.49291.35208a40.20931,40.20931,0,0,1,16.83586,32.71713c.00011,5.86606.0003,8.56361.00065,25.2461A68.121,68.121,0,0,1,256.00067,326.35688Z"/><path fill="#26a6fe" fill-rule="evenodd" d="M324.11768,232.98779a40.209,40.209,0,0,0-16.83594-32.71716l-.49268-.35205a48.275,48.275,0,0,0-34.50171-8.56006l-.58545.07886a48.26722,48.26722,0,0,1,21.08716,8.4812l.49268.35205a40.209,40.209,0,0,1,16.83594,32.71716c0,5.866.00024,8.5636.00073,25.2461a68.118,68.118,0,0,1-61.96192,67.83276c2.02271.18329,4.06812.29022,6.14063.29022h1.70361a68.1211,68.1211,0,0,0,68.11768-68.123C324.11792,241.55139,324.11768,238.85382,324.11768,232.98779Z"/><path fill="#26a6fe" fill-rule="evenodd" d="M187.88232,246.98877a40.21063,40.21063,0,0,1,16.83545-32.7179l.49292-.352a48.27545,48.27545,0,0,1,34.502-8.5603L256,207.55176l16.28735-2.19324a48.275,48.275,0,0,1,34.50171,8.56006l.49268.35205a40.209,40.209,0,0,1,16.83594,32.71716c0,3.61725,0,6.03394.00024,11.26367l.00049-.01757c-.00049-16.6825-.00073-19.38007-.00073-25.2461a40.209,40.209,0,0,0-16.83594-32.71716l-.49268-.35205a48.275,48.275,0,0,0-34.50171-8.56006L256,193.55176l-16.28735-2.19324a48.27545,48.27545,0,0,0-34.502,8.5603l-.49292.352a40.21063,40.21063,0,0,0-16.83545,32.7179c0,6.59668-.00048,9.76062-.00073,27.29248l.00025.01282C187.88208,254.08862,187.88232,251.2536,187.88232,246.98877Z"/><path fill="#26a6fe" d="M198.71,511.82129c-.11328,0-.22851-.00586-.34375-.01709-20.5293-2.00195-37.85059-13.83789-45.2041-30.88867-6.50293-15.07764-3.31934-29.91895.49609-39.71485a3.50043,3.50043,0,0,1,6.52344,2.541c-3.34082,8.57471-6.1543,21.50342-.5918,34.40137,6.34473,14.71093,21.46289,24.93945,39.45606,26.69433a3.50023,3.50023,0,0,1-.33594,6.98389Z"/><rect width="55.915" height="21" x="97.016" y="462.355" fill="#fee903"/><path fill="#26a6fe" d="M152.93164 512a3.50017 3.50017 0 0 1-3.5-3.5V462.90625a3.5 3.5 0 0 1 7 0V508.5A3.50017 3.50017 0 0 1 152.93164 512zM313.29 511.82129a3.50023 3.50023 0 0 1-.33594-6.98389c17.99317-1.75488 33.11133-11.9834 39.45606-26.69433 5.5625-12.898 2.749-25.82666-.5918-34.40137a3.50043 3.50043 0 0 1 6.52344-2.541c3.81543 9.7959 6.999 24.63721.49609 39.71485-7.35351 17.05078-24.6748 28.88672-45.2041 30.88867C313.51855 511.81543 313.40332 511.82129 313.29 511.82129z"/><rect width="55.915" height="21" x="359.069" y="462.355" fill="#fee903"/><rect width="14" height="21" x="400.984" y="462.355" fill="#fac600"/><path fill="#26a6fe" d="M359.06836,512a3.50017,3.50017,0,0,1-3.5-3.5V462.90625a3.5,3.5,0,0,1,7,0V508.5A3.50017,3.50017,0,0,1,359.06836,512Z"/><path fill="#fac600" d="M271.439,54.45935H226.561a14.51567,14.51567,0,0,0-14.51563,14.51581v.00006A14.491,14.491,0,0,0,212.554,72.732a77.92068,77.92068,0,0,1,72.90991-7.44409A14.50839,14.50839,0,0,0,271.439,54.45935Z"/><path fill="#fee903" d="M233.5611,54.45933H278.4389a14.51583,14.51583,0,0,1,14.51583,14.51583v0A14.51584,14.51584,0,0,1,278.4389,83.491H233.5611A14.51583,14.51583,0,0,1,219.04526,68.9752v0A14.51584,14.51584,0,0,1,233.5611,54.45933Z"/><path fill="#fac600" d="M278.439,54.45935h-1.59863a14.42666,14.42666,0,0,1,2.11426,7.51581v.00006A14.51567,14.51567,0,0,1,264.439,76.491H221.15967a14.49288,14.49288,0,0,0,12.40137,7H278.439a14.51567,14.51567,0,0,0,14.51563-14.51581v-.00006A14.51567,14.51567,0,0,0,278.439,54.45935Z"/><path fill="#fee903" d="M224.884,83.491H287.116A14.51583,14.51583,0,0,1,301.6318,98.00687v0A14.51584,14.51584,0,0,1,287.116,112.52273H224.884A14.51583,14.51583,0,0,1,210.3682,98.0069v0A14.51583,14.51583,0,0,1,224.884,83.491Z"/><path fill="#fac600" d="M287.116 83.491h-1.59864a14.42683 14.42683 0 0 1 2.11451 7.51581v.00006A14.51589 14.51589 0 0 1 273.116 105.52271h-60.6333a14.49256 14.49256 0 0 0 12.40136 7H287.116A14.51589 14.51589 0 0 0 301.63184 98.0069v-.00006A14.51588 14.51588 0 0 0 287.116 83.491zM224.40161 28.97906a27.12289 27.12289 0 0 0 2.24683 20.2934l2.81128 5.18689h39.08056l2.81128-5.18689A27.12215 27.12215 0 0 0 272.438 25.69305a113.74569 113.74569 0 0 0-48.03638 3.286z"/><path fill="#fee903" d="M275.54031,54.45933H236.45969l-2.81131-5.18689a27.1318,27.1318,0,0,1,0-25.85743h0a27.13151,27.13151,0,0,1,7.52267-8.738L256,3.5l14.829,11.177a27.13151,27.13151,0,0,1,7.52267,8.738h0a27.1318,27.1318,0,0,1,0,25.85743Z"/><path fill="#fac600" d="M275.54028,54.45935l2.81128-5.18689a27.13235,27.13235,0,0,0-7.52246-34.5954L256,3.5l-2.35645,1.77612,3.18555,2.40094a27.13235,27.13235,0,0,1,7.52246,34.5954h0a9.90825,9.90825,0,0,1-8.711,5.18688H232.75977c.2749.61176.56616,1.21814.88867,1.81311l2.81128,5.18689"/><circle cx="256" cy="32.966" r="7.625" fill="#22b37f"/><path fill="#02905d" d="M256.61353,25.3717a7.61863,7.61863,0,0,1-5.772,12.599c-.207,0-.4104-.01477-.61352-.03094a7.621,7.621,0,1,0,6.3855-12.56806Z"/><path fill="#0593fc" d="M293.05957 245.26953q-.26367 0-.53027-.00635a22.79723 22.79723 0 0 1-12.06739-3.80371 3.49979 3.49979 0 1 1 3.86914-5.833 15.80655 15.80655 0 0 0 8.36231 2.63868 16.03694 16.03694 0 0 0 9.10937-2.63965 3.50007 3.50007 0 0 1 3.86719 5.835A23.11346 23.11346 0 0 1 293.05957 245.26953zM218.92773 245.26953c-.17578 0-.35253-.00195-.53125-.00635a22.79722 22.79722 0 0 1-12.06738-3.80371 3.49979 3.49979 0 1 1 3.86914-5.833 15.75593 15.75593 0 0 0 17.47168-.001 3.50007 3.50007 0 0 1 3.86719 5.835A23.11253 23.11253 0 0 1 218.92773 245.26953z"/><circle cx="256" cy="217.66" r="3.5" fill="#fd4755"/><path fill="#fd4755" d="M268,294.40063v26.95625a12,12,0,1,1-24,0V294.29734Z"/><path fill="#fb2b3a" d="M244,294.29736v.03009l17,.07318v26.95624a11.99861,11.99861,0,0,1-8.50342,11.47949A12.00654,12.00654,0,0,0,268,321.35687V294.40063Z"/><path fill="#0593fc" d="M255.98926,300.3667c-.25488,0-.50977-.00342-.7666-.00928a33.00294,33.00294,0,0,1-17.4668-5.50635,3.49979,3.49979,0,1,1,3.86914-5.833,25.93352,25.93352,0,0,0,28.752-.00147,3.49994,3.49994,0,1,1,3.86524,5.83594A33.46143,33.46143,0,0,1,255.98926,300.3667Z"/><path fill="#fd4755" d="M246.4415 156.5851L230.06212 174.654a5.338 5.338 0 0 1-7.90981 0L205.77293 156.5851a5.338 5.338 0 0 1 0-7.1702L222.15231 131.346a5.338 5.338 0 0 1 7.90981 0L246.4415 149.4149A5.338 5.338 0 0 1 246.4415 156.5851zM306.22707 156.5851L289.84769 174.654a5.338 5.338 0 0 1-7.90981 0L265.5585 156.5851a5.338 5.338 0 0 1 0-7.1702L281.93788 131.346a5.338 5.338 0 0 1 7.90981 0l16.37938 18.06893A5.338 5.338 0 0 1 306.22707 156.5851z"/><path fill="#fb2b3a" d="M306.22705 149.41492l-16.37939-18.069a5.3379 5.3379 0 0 0-7.90962-.00006l-3.04522 3.35925 0 0a27.24 27.24 0 0 1 0 36.58968l0 0 3.04522 3.35925a5.3379 5.3379 0 0 0 7.90962-.00006l16.37939-18.069A5.338 5.338 0 0 0 306.22705 149.41492zM246.26793 149.41492l-16.3794-18.069a5.3379 5.3379 0 0 0-7.90962-.00006l-3.04521 3.35925 0 0a27.24 27.24 0 0 1 0 36.58968l0 0 3.04521 3.35925a5.3379 5.3379 0 0 0 7.90962-.00006l16.3794-18.069A5.338 5.338 0 0 0 246.26793 149.41492z"/><path fill="#22b37f" d="M279.95323,157.22315l-19.29446,21.2847a6.288,6.288,0,0,1-9.31754,0l-19.29446-21.2847a6.288,6.288,0,0,1,0-8.4463l19.29446-21.2847a6.288,6.288,0,0,1,9.31754,0l19.29446,21.2847A6.288,6.288,0,0,1,279.95323,157.22315Z"/><path fill="#02905d" d="M279.95312,148.77686l-19.29443-21.28473a6.2879,6.2879,0,0,0-9.31733-.00006L249,130.07489l0,0a34.13419,34.13419,0,0,1,0,45.85018l0,0,2.34136,2.58282a6.2879,6.2879,0,0,0,9.31733-.00006l19.29443-21.28473A6.288,6.288,0,0,0,279.95312,148.77686Z"/><circle cx="256" cy="153" r="3.5" fill="#fff"/><path fill="#26a6fe" d="M282.1521,506.69824v-.57293a3.45594,3.45594,0,0,1,2.448-3.30591,9.01714,9.01714,0,0,0,6.27832-7.15735,44.59448,44.59448,0,1,0-69.75684,0,9.01714,9.01714,0,0,0,6.27832,7.15735,3.45594,3.45594,0,0,1,2.448,3.30591v.57293A14.695,14.695,0,0,0,230.8457,512h50.3086A14.695,14.695,0,0,0,282.1521,506.69824Z"/><circle cx="256" cy="462.004" r="38.707" fill="#f9f7f8"/><path fill="#c9bfc8" d="M275.33643,476.6651c-7.8923,0-15.78454,7-23.67677,7-7.332,0-14.664-7-21.99609-7a12.73824,12.73824,0,0,0-7.3081,4.46918,38.70195,38.70195,0,0,0,49.21,16.30951,12.845,12.845,0,0,0,.13428-1.75544v-.49737a3.0001,3.0001,0,0,1,2.12475-2.86945,7.86485,7.86485,0,0,0,4.06348-12.15216Z"/><path fill="#c9bfc8" d="M289.87109,480.74023a11.52313,11.52313,0,0,0-7.53466-4.07513c-6.75132,0-13.50258,7-20.25384,7-8.473,0-16.946-7-25.419-7l-2.55151,3.50427a7.86485,7.86485,0,0,0,4.06348,12.15216,3.0001,3.0001,0,0,1,2.12475,2.86945v.49737a12.845,12.845,0,0,0,.13428,1.75544,38.709,38.709,0,0,0,49.43652-16.7035Z"/><path fill="#f9f7f8" d="M229.66353,476.66507l-2.55148,3.50423a7.86492,7.86492,0,0,0,4.06348,12.15217h0a3,3,0,0,1,2.12473,2.86948v.49732A12.81173,12.81173,0,0,0,246.112,508.5h19.776a12.81173,12.81173,0,0,0,12.81173-12.81173V495.191a3,3,0,0,1,2.12473-2.86948h0A7.86492,7.86492,0,0,0,284.888,480.1693l-2.55146-3.50421Z"/><circle cx="241.899" cy="465.598" r="6.912" fill="#3c3b42"/><circle cx="268.995" cy="465.598" r="6.912" fill="#3c3b42"/><path fill="#3c3b42" d="M260.34082 492.32227a3.49017 3.49017 0 0 1-2.47461-1.02491L256 489.43115l-1.86621 1.86621a3.5 3.5 0 0 1-4.94922-4.95019l4.34082-4.34033a3.50048 3.50048 0 0 1 4.94922 0l4.34082 4.34033a3.50025 3.50025 0 0 1-2.47461 5.9751zM245.31152 508.5v-8.46094a3.5 3.5 0 0 1 7 0V508.5zM259.31152 508.5v-8.46094a3.5 3.5 0 0 1 7 0V508.5z"/></svg>