<svg xmlns="http://www.w3.org/2000/svg" data-name="Layer 1" viewBox="0 0 512 512"><polygon fill="#3c3b42" points="381.5 380.5 130.5 380.5 193.5 207.5 318.5 207.5 381.5 380.5"/><path fill="#2c2c2e" d="M371.83667,353.96423,307.56934,334.794q-.675-.20135-1.32659-.44682a8.07212,8.07212,0,0,1-2.7536-13.27542,67.92046,67.92046,0,0,0,20.62926-48.83794c-.00024-15.68976-.00071-19.00945-.00073-24.22895a41.73265,41.73265,0,0,0-16.63776-33.58348,48.27543,48.27543,0,0,0-35.19257-9.06288L256,207.55176l-16.28735-2.19324a48.28566,48.28566,0,0,0-40.436,13.563,39.38361,39.38361,0,0,0-11.39428,28.0472c0,6.61038-.00048,9.76288-.00073,27.31254a65.71558,65.71558,0,0,0,19.81906,47.13055,8.00073,8.00073,0,0,1-3.14169,13.34347l-.1283.03874-64.26733,19.17022L130.5,380.5h251Z"/><path fill="#2c2c2e" d="M186,294.23535a18.25455,18.25455,0,1,0-12.6532-31.394l-5.49451,15.0882A18.25429,18.25429,0,0,0,186,294.23535Z"/><polygon fill="#2c2c2e" points="318.5 207.5 304.5 207.5 367.5 380.5 381.5 380.5 318.5 207.5"/><circle cx="186" cy="268.981" r="18.255" fill="#fee903"/><path fill="#2c2c2e" d="M326,294.23535a18.25438,18.25438,0,0,0,18.14771-16.30578l-5.49439-15.0882A18.24916,18.24916,0,1,0,326,294.23535Z"/><circle cx="326" cy="268.981" r="18.255" fill="#fee903"/><path fill="#ffbd86" d="M342.63628,244.34186v-.00012s.18014-6.27571.48-14.18463a13.38662,13.38662,0,0,0-13.37237-13.8954H317.11766v40.23822h12.1938a13.3808,13.3808,0,0,0,13.32481-12.15807Z"/><path fill="#fac600" d="M334.919,253.06183a18.24268,18.24268,0,0,1-24.8379,24.838,18.24928,18.24928,0,1,0,24.8379-24.838Z"/><path fill="#ffbd86" d="M194.88243,216.26172H182.06971a13.13253,13.13253,0,0,0-13.11929,13.63234c.30587,8.03237.49,14.44768.49,14.44768v.00012l.01116.12154a13.1702,13.1702,0,0,0,13.08256,12.03654h12.3483Z"/><path fill="#fee903" d="M256,24.5A113.11313,113.11313,0,1,0,369.11328,137.6131,113.113,113.113,0,0,0,256,24.5Zm0,191.22607a78.113,78.113,0,1,1,78.11328-78.11279A78.20137,78.20137,0,0,1,256,215.72607Z"/><path fill="#fac600" d="M249 59.82965c-2.30786-.206-4.6394-.32965-7-.32965a78.113 78.113 0 1 0 0 156.22607c2.3606 0 4.69214-.12359 7-.32965a78.0962 78.0962 0 0 1 0-155.56677zM256 24.5c-2.35156 0-4.68408.08051-7 .22192a113.10767 113.10767 0 0 1 0 225.78241c2.31592.14142 4.64844.22193 7 .22193A113.11313 113.11313 0 1 0 256 24.5z"/><path fill="#fff" d="M255.99365 236.11182h-.10107a3.5 3.5 0 0 1 0-7h.10107a3.5 3.5 0 1 1 0 7zM277.02734 233.77734a3.50061 3.50061 0 0 1-.751-6.91894l.7539 3.418-.71875-3.42578a3.5 3.5 0 0 1 1.6416 6.80468l-.16894.03907A3.53624 3.53624 0 0 1 277.02734 233.77734zM234.86133 233.75244a3.56831 3.56831 0 0 1-3.48633-4.28125 3.47255 3.47255 0 0 1 4.14941-2.65771l.13575.03125a3.50048 3.50048 0 0 1-.79883 6.90771zM297.15918 226.75439a3.49373 3.49373 0 0 1-1.56445-6.62841l.13086-.0625a3.50016 3.50016 0 1 1 1.43359 6.69091zM214.78076 226.73047a3.48391 3.48391 0 0 1-1.522-.35059l-.09082-.04394a3.49983 3.49983 0 1 1 3.04883-6.30078l.09082.04394a3.50062 3.50062 0 0 1-1.52686 6.65137zM315.13867 215.4668a3.5 3.5 0 0 1-2.18262-6.2378l.07911-.063a3.50011 3.50011 0 1 1 4.36132 5.47558l-.0791.063A3.486 3.486 0 0 1 315.13867 215.4668zM196.78467 215.40527a3.48417 3.48417 0 0 1-2.20313-.78222 3.52923 3.52923 0 0 1-.58447-4.93946 3.46954 3.46954 0 0 1 4.89111-.5791l.10352.083a3.5 3.5 0 0 1-2.207 6.21777z"/><path fill="#26a6fe" d="M330.19336 200.44727a3.49972 3.49972 0 0 1-2.71094-5.71094l.0332-.04151a3.50007 3.50007 0 0 1 5.48633 4.34766l-.09375.11572A3.49159 3.49159 0 0 1 330.19336 200.44727zM181.74512 200.37012a3.49181 3.49181 0 0 1-2.74024-1.31983l-.063-.0791a3.49981 3.49981 0 1 1 5.47559-4.36035l.063.0791a3.5 3.5 0 0 1-2.73535 5.68018z"/><path fill="#fd4755" d="M341.53906 182.42822a3.42881 3.42881 0 0 1-1.498-.34375 3.4672 3.4672 0 0 1-1.64258-4.63965l.05371-.11035a3.49983 3.49983 0 1 1 6.28125 3.08887A3.55935 3.55935 0 0 1 341.53906 182.42822zM170.40625 182.37305a3.53869 3.53869 0 0 1-1.55371-6.707 3.46556 3.46556 0 0 1 4.65771 1.59033l.05371.11084a3.50169 3.50169 0 0 1-3.15771 5.00586z"/><path fill="#26a6fe" d="M348.60547 162.40723a3.50411 3.50411 0 0 1-3.40723-4.314l3.4043.813-3.39942-.83545a3.52429 3.52429 0 0 1 4.16407-2.65527 3.4755 3.4755 0 0 1 2.68554 4.09765l-.04589.20606A3.50127 3.50127 0 0 1 348.60547 162.40723zM163.36816 162.29541a3.50107 3.50107 0 0 1-3.4038-2.69922l-.03125-.13574a3.50007 3.50007 0 1 1 6.83105-1.5293l.01367.06153a3.50437 3.50437 0 0 1-3.40967 4.30273z"/><path fill="#fd4755" d="M350.999 141.2749a3.50017 3.50017 0 0 1-3.5-3.5v-.10107a3.5 3.5 0 0 1 7 0v.10107A3.50017 3.50017 0 0 1 350.999 141.2749zM161.001 141.13672a3.47993 3.47993 0 0 1-3.5-3.47656v-.10059a3.5 3.5 0 0 1 7 0v.05371A3.51994 3.51994 0 0 1 161.001 141.13672z"/><path fill="#26a6fe" d="M348.67578 120.14062a3.50675 3.50675 0 0 1-3.4043-2.69189l-.04589-.20605a3.501 3.501 0 1 1 3.45019 2.89794zM163.353 120.0249a3.53933 3.53933 0 1 1 3.43506-2.835l-.03125.13574A3.50109 3.50109 0 0 1 163.353 120.0249z"/><path fill="#fd4755" d="M341.64844 100.01514a3.43961 3.43961 0 0 1-3.11133-1.94776l-.05371-.11084a3.5007 3.5007 0 1 1 4.71094 1.70117A3.54163 3.54163 0 0 1 341.64844 100.01514zM170.35791 99.9458a3.502 3.502 0 0 1-3.148-5.02539l.04395-.09082a3.49983 3.49983 0 1 1 6.30078 3.04883l-.04395.09082A3.50063 3.50063 0 0 1 170.35791 99.9458z"/><path fill="#26a6fe" d="M330.38965 82.02A3.49327 3.49327 0 0 1 327.625 80.669L330.3877 78.52l-2.78223 2.124A3.5 3.5 0 0 1 333.03809 76.23l.1123.14111A3.50028 3.50028 0 0 1 330.38965 82.02zM181.67285 81.94189a3.5 3.5 0 0 1-2.71582-5.70507 3.52986 3.52986 0 0 1 4.93945-.58448 3.47051 3.47051 0 0 1 .57911 4.89112l-.083.10351A3.4928 3.4928 0 0 1 181.67285 81.94189z"/><path fill="#fd4755" d="M315.375 66.95166a3.48591 3.48591 0 0 1-2.17871-.76221l-.0791-.063a3.50011 3.50011 0 1 1 4.36133-5.47558l.0791.063a3.5 3.5 0 0 1-2.18262 6.23779zM196.70361 66.88916a3.5 3.5 0 0 1-2.18261-6.23779l.0791-.063a3.49981 3.49981 0 1 1 4.36035 5.47558l-.0791.063A3.48329 3.48329 0 0 1 196.70361 66.88916z"/><path fill="#26a6fe" d="M297.40234 55.58838a3.485 3.485 0 0 1-1.52148-.35059l-.09082-.04394a3.49983 3.49983 0 1 1 3.04883-6.30078l.09082.04394a3.50062 3.50062 0 0 1-1.52735 6.65137zM214.69531 55.541a3.51214 3.51214 0 1 1 3.20362-5.05225 3.46612 3.46612 0 0 1-1.59034 4.65771l-.11084.05372A3.492 3.492 0 0 1 214.69531 55.541z"/><path fill="#fff" d="M256.21582,46.11377h-.31689a3.5,3.5,0,0,1,0-7h.31689a3.5,3.5,0,0,1,0,7Z"/><path fill="#fee903" d="M324,234.5H188l-7.5817-46.11207a67.9738,67.9738,0,0,1,40.75536-71.023L256,102.5l34.82634,14.8649a67.9738,67.9738,0,0,1,40.75536,71.023Z"/><path fill="#fac600" d="M290.82642,117.36493,256,102.5l-7,2.98779,27.82642,11.87714a67.974,67.974,0,0,1,40.75537,71.023L310,234.5h14l7.58179-46.11206A67.974,67.974,0,0,0,290.82642,117.36493Z"/><path fill="#fd6930" d="M414.98363,501.5V425.54959a60,60,0,0,0-42.8494-57.49658l-64.56475-19.259a20,20,0,0,1-14.28313-19.16553V310.02624h-74.5727v19.60228a20,20,0,0,1-14.28313,19.16553l-64.56475,19.259a60,60,0,0,0-42.8494,57.49658V501.5Z"/><path fill="#fd5426" d="M307.56934,348.794c-.38916-.11615-.76685-.25513-1.14454-.39313L159.2356,446.99469a30.00025,30.00025,0,0,0-13.3042,24.92487V487.5l192.585-129.47491Z"/><path fill="#fed2a4" d="M307.56948,348.79405a20,20,0,0,1-14.28313-19.16553V310.02624h-74.5727v19.60228a20,20,0,0,1-14.28313,19.16553l49.50284,35Z"/><path fill="#ffbd86" fill-rule="evenodd" d="M218.71362,310.02625V325.033a66.35456,66.35456,0,0,0,42.5835,15.32385h1.70361a67.7976,67.7976,0,0,0,30.59448-7.26227,20.00579,20.00579,0,0,1-.30883-3.46612V310.02625Z"/><path fill="#fed2a4" fill-rule="evenodd" d="M256.00067,326.35688h-1.70358a66.14747,66.14747,0,0,1-66.41549-66.0756c.00038-16.98925.00058-20.48618.00069-26.68929a41.383,41.383,0,0,1,17.3284-33.67316l0,0a48.27531,48.27531,0,0,1,34.50194-8.56027L256,193.55175l16.28734-2.19321a48.27529,48.27529,0,0,1,34.50193,8.56028l.00006,0a41.38492,41.38492,0,0,1,17.32838,33.6742c.00011,5.46683.0003,8.54246.00064,24.64081A68.121,68.121,0,0,1,256.00067,326.35688Z"/><path fill="#ffbd86" fill-rule="evenodd" d="M324.11768,233.593a41.385,41.385,0,0,0-17.32837-33.6742,48.27545,48.27545,0,0,0-34.502-8.5603l-.58569.07892a48.26873,48.26873,0,0,1,21.08765,8.48138,41.385,41.385,0,0,1,17.32837,33.6742c0,5.46686.00048,8.54248.00073,24.64081a68.118,68.118,0,0,1-61.96192,67.83282c2.02271.18329,4.06812.29022,6.14063.29022h1.70361a68.12112,68.12112,0,0,0,68.11768-68.123C324.11816,242.1355,324.11768,239.05988,324.11768,233.593Z"/><path fill="#ffbd86" fill-rule="evenodd" d="M187.88232,247.592a41.38305,41.38305,0,0,1,17.32837-33.67316,48.27545,48.27545,0,0,1,34.502-8.5603L256,207.55176l16.28735-2.19324a48.27545,48.27545,0,0,1,34.502,8.5603,41.385,41.385,0,0,1,17.32837,33.6742c0,3.29437.00024,5.72455.00048,10.65527l.00025-.01446c-.00025-16.09833-.00073-19.174-.00073-24.64081a41.385,41.385,0,0,0-17.32837-33.6742,48.27545,48.27545,0,0,0-34.502-8.5603L256,193.55176l-16.28735-2.19324a48.27545,48.27545,0,0,0-34.502,8.5603A41.38305,41.38305,0,0,0,187.88232,233.592c0,6.20312-.00048,9.7-.00073,26.68927l.00025.01367C187.88232,254.386,187.88232,251.53253,187.88232,247.592Z"/><path fill="#fed2a4" d="M97.01637,502V469.355h50.91509a5,5,0,0,1,5,5V512H107.01637A10,10,0,0,1,97.01637,502Z"/><path fill="#fee903" d="M147.93146,469.355H97.01637v21h55.91509v-16A5,5,0,0,0,147.93146,469.355Z"/><path fill="#fac600" d="M271.439,54.45935H226.561a14.51567,14.51567,0,0,0-14.51563,14.51581v.00006A14.491,14.491,0,0,0,212.554,72.732a77.92068,77.92068,0,0,1,72.90991-7.44409A14.50839,14.50839,0,0,0,271.439,54.45935Z"/><path fill="#fee903" d="M233.5611,54.45933H278.4389a14.51583,14.51583,0,0,1,14.51583,14.51583v0A14.51584,14.51584,0,0,1,278.4389,83.491H233.5611A14.51583,14.51583,0,0,1,219.04526,68.9752v0A14.51584,14.51584,0,0,1,233.5611,54.45933Z"/><path fill="#fac600" d="M278.439,54.45935h-1.59863a14.42666,14.42666,0,0,1,2.11426,7.51581v.00006A14.51567,14.51567,0,0,1,264.439,76.491H221.15967a14.49288,14.49288,0,0,0,12.40137,7H278.439a14.51567,14.51567,0,0,0,14.51563-14.51581v-.00006A14.51567,14.51567,0,0,0,278.439,54.45935Z"/><rect width="105.292" height="44.108" x="203.354" y="83.491" fill="#fee903" rx="22.054"/><path fill="#fac600" d="M288.80762 83.60193a22.051 22.051 0 0 1-16.21582 36.9975H211.4082q-1.12206 0-2.21582-.1109a21.99277 21.99277 0 0 0 16.21582 7.1109h61.1836a22.05457 22.05457 0 0 0 2.21582-43.9975zM224.40161 28.97906a27.12289 27.12289 0 0 0 2.24683 20.2934l2.81128 5.18689h39.08056l2.81128-5.18689A27.12215 27.12215 0 0 0 272.438 25.69305a113.74569 113.74569 0 0 0-48.03638 3.286z"/><path fill="#fee903" d="M275.54031,54.45933H236.45969l-2.81131-5.18689a27.1318,27.1318,0,0,1,0-25.85743h0a27.13151,27.13151,0,0,1,7.52267-8.738L256,3.5l14.829,11.177a27.13151,27.13151,0,0,1,7.52267,8.738h0a27.1318,27.1318,0,0,1,0,25.85743Z"/><path fill="#fac600" d="M278.35156,23.415a27.132,27.132,0,0,0-7.52246-8.738L256,3.5l-2.35645,1.77612,3.18555,2.40094a27.13235,27.13235,0,0,1,7.52246,34.5954h0a9.90825,9.90825,0,0,1-8.711,5.18688H232.75977c.2749.61176.56616,1.21814.88867,1.81311l2.81128,5.18689h39.08056l2.81128-5.18689A27.13129,27.13129,0,0,0,278.35156,23.415Z"/><circle cx="256" cy="32.966" r="7.625" fill="#fd4755"/><path fill="#fb2b3a" d="M258.48218,25.76215a7.6098,7.6098,0,0,1-9.67041,9.72882,7.62136,7.62136,0,1,0,9.67041-9.72882Z"/><path fill="#ffae71" d="M293.05957 245.26953q-.26367 0-.53027-.00635a22.79723 22.79723 0 0 1-12.06739-3.80371 3.49979 3.49979 0 1 1 3.86914-5.833 15.80655 15.80655 0 0 0 8.36231 2.63868 16.02362 16.02362 0 0 0 9.10937-2.63965 3.50007 3.50007 0 0 1 3.86719 5.835A23.11346 23.11346 0 0 1 293.05957 245.26953zM218.92676 245.26953c-.17578 0-.352-.00195-.53028-.00635a22.79259 22.79259 0 0 1-12.06738-3.80371 3.50007 3.50007 0 0 1 3.87012-5.833 15.7972 15.7972 0 0 0 8.36182 2.63868 16.04694 16.04694 0 0 0 9.10888-2.63965 3.50007 3.50007 0 1 1 3.86719 5.835A23.11052 23.11052 0 0 1 218.92676 245.26953zM255.99072 299.95508c-.21631 0-.43261-.00244-.65185-.00781A28.06994 28.06994 0 0 1 240.479 295.2627a3.50007 3.50007 0 0 1 3.87012-5.833 21.0781 21.0781 0 0 0 11.15479 3.51953 21.33809 21.33809 0 0 0 12.14843-3.52051 3.50007 3.50007 0 1 1 3.86719 5.835A28.46436 28.46436 0 0 1 255.99072 299.95508z"/><path fill="#fd5426" d="M207.33667,468.0462l48.65161,26.91785,48.65186-26.91785a88.47137,88.47137,0,0,0,45.62915-77.39068V361.90027l.1018-.339L310.271,349.59985l-.02637.36145v40.6944a48.42238,48.42238,0,0,1-24.98,42.36963L255.98828,449.2226l-29.27539-16.19727a48.42233,48.42233,0,0,1-24.98047-42.36963V349.96149l-.04516-.34919-40.00953,11.93439.03077.35358v28.75525A88.47135,88.47135,0,0,0,207.33667,468.0462Z"/><path fill="#fee903" d="M211.812,456.51611l44.18762,24.44794,44.18756-24.44794a80.35375,80.35375,0,0,0,41.44251-70.28967V360.10968l.31866-1.06079L307.56952,348.794a19.99853,19.99853,0,0,1-2.19739-.81488l-.09473,1.287v36.96045a43.979,43.979,0,0,1-22.68792,38.48194l-26.58985,14.71112-26.58941-14.71112a43.97927,43.97927,0,0,1-22.68817-38.48194V349.26636l-.16327-1.257a20.00828,20.00828,0,0,1-2.12824.78461l-34.1579,10.189.09772,1.12671v26.11676A80.35381,80.35381,0,0,0,211.812,456.51611Z"/><path fill="#fac600" d="M282.58936 424.70856l-26.58985 14.71112-21.14795-11.70056v-.00006l-5.4414-3.0105c-.83326-.461-1.64478-.95038-2.4397-1.45972-.31909-.20483-.624-.42633-.937-.63867-.45825-.31055-.918-.61933-1.36231-.94562-.39477-.29059-.77563-.5965-1.15918-.89917-.33471-.26343-.67163-.52441-.9978-.79675-.43311-.36273-.85327-.73822-1.271-1.11634-.24853-.2246-.49829-.4483-.74145-.67822q-.68372-.648-1.33569-1.32452c-.17872-.18414-.35669-.36878-.532-.55585q-.70349-.75266-1.37182-1.53467c-.11743-.13769-.23291-.277-.34864-.41613-.4768-.57447-.94238-1.1576-1.38916-1.75452-.06054-.08081-.11865-.16327-.17871-.24451-.48266-.65429-.95141-1.31842-1.397-1.99756a43.93689 43.93689 0 0 1-7.22656-24.11969V349.26636l-.16333-1.257a20.01694 20.01694 0 0 1-2.12818.78461l-4.87182 6.21539.16333 1.257v36.96026a43.90306 43.90306 0 0 0 3.88421 18.05908 6.04772 6.04772 0 0 1-2.21277 7.46975l-17.65191 11.824a80.28054 80.28054 0 0 0 18.05444 19.36267l24.1836-16.25861 23.01977 12.73615 26.58985-14.71112a43.92317 43.92317 0 0 0 13.147-11.14167A43.92278 43.92278 0 0 1 282.58936 424.70856zM307.56958 348.794a20.01036 20.01036 0 0 1-2.19751-.81488l-.09473 1.287v7.93213l29.6709 8.85059-.3186 1.06079v26.11676A80.33882 80.33882 0 0 1 314.49707 446.403a80.355 80.355 0 0 0 27.13257-60.17658V360.10968l.3186-1.06079z"/><path fill="#fff" d="M188.604 356.58887l-3.48681-.30274zm-1.7456-.12842l-1.74512-.12891-3.48486-.32666zM262.72168 459.356a3.50067 3.50067 0 0 1-.99512-6.85645l.9961 3.35547-.91993-3.37793a3.49991 3.49991 0 1 1 2.0293 6.69922c-.00586.002-.10742.03223-.11328.03418A3.50052 3.50052 0 0 1 262.72168 459.356zm-15.30029-.42334a3.49947 3.49947 0 0 1-1.03028-.15576 3.54259 3.54259 0 0 1-2.3706-4.36524 3.45764 3.45764 0 0 1 4.28711-2.36767c.01562.00439.12646.03759.14209.04248a3.50058 3.50058 0 0 1-1.02832 6.84619zm30.08154-5.52295a3.50752 3.50752 0 0 1-3.12793-1.87647 3.45739 3.45739 0 0 1 1.459-4.69336l.0879-.04541a3.49984 3.49984 0 0 1 3.21289 6.21875A3.54685 3.54685 0 0 1 277.50293 453.40967zm-44.82715-.33838a3.48141 3.48141 0 0 1-1.60351-.39111 3.54242 3.54242 0 0 1-1.55762-4.71778 3.45743 3.45743 0 0 1 4.6416-1.5664c.01367.00683.11523.0581.12891.06543a3.50029 3.50029 0 0 1-1.60938 6.60986zm58.09863-8.29688a3.48423 3.48423 0 0 1-2.23437-6.17334c.0166-.01367.11035-.08837.12793-.10156a3.49975 3.49975 0 1 1 4.29687 5.52539A3.56248 3.56248 0 0 1 290.77441 444.77441zm-71.53271-.13086a3.48477 3.48477 0 0 1-2.11426-.7124l-.103-.0791a3.5002 3.5002 0 0 1 4.28321-5.53711l-2.1416 2.76856 2.19482-2.72754a3.5 3.5 0 0 1-2.11914 6.28759zM207.64893 433.833a3.48991 3.48991 0 0 1-2.65137-1.21387 3.54186 3.54186 0 0 1 .30322-4.94873 3.45663 3.45663 0 0 1 4.88281.24756c.01612.01807.09815.11035.11377.12891a3.5 3.5 0 0 1-2.64843 5.78613zm94.44287-.06983a3.50029 3.50029 0 0 1-2.64844-5.78613l2.65039 2.28613-2.63574-2.30273a3.52194 3.52194 0 0 1 4.916-.44483 3.47686 3.47686 0 0 1 .50586 4.87159c-.02343.02929-.11133.13379-.13574.16211A3.49435 3.49435 0 0 1 302.0918 433.76318zM198.33545 421.00439a3.49687 3.49687 0 0 1-3-1.69238c-.00781-.01269-.06543-.11035-.07324-.123a3.50007 3.50007 0 1 1 6.03906-3.54l-3.01953 1.77 3.04687-1.72315a3.50082 3.50082 0 0 1-2.99316 5.30859zm112.87939-.21337a3.5004 3.5004 0 0 1-3.0166-5.27051l3.01953 1.77-2.98242-1.833a3.49976 3.49976 0 1 1 6.06445 3.49512c-.0039.00732-.05859.10058-.0625.10791A3.49826 3.49826 0 0 1 311.21484 420.791zM191.51172 406.68408a3.50069 3.50069 0 0 1-3.28809-2.30078 3.54283 3.54283 0 0 1 2.04688-4.52588 3.45754 3.45754 0 0 1 4.47656 1.98731c.00586.01513.04639.123.05176.13818a3.50268 3.50268 0 0 1-3.28711 4.70117zm126.61133-.17383a3.50385 3.50385 0 0 1-3.27149-4.75586c.01367-.03613.06446-.16357.0791-.19921a3.50154 3.50154 0 1 1 3.19239 4.95507zm-130.99756-15.0791a3.50091 3.50091 0 0 1-3.43018-2.82422 3.543 3.543 0 0 1 2.72266-4.15381 3.45737 3.45737 0 0 1 4.11523 2.65479l.03028.14648a3.50214 3.50214 0 0 1-3.438 4.17676zm135.854-.09668a3.39162 3.39162 0 0 1-.85742-.10986 3.45707 3.45707 0 0 1-2.53223-4.17627c.00684-.02832.03809-.15234.0459-.18018a3.50027 3.50027 0 0 1 6.75391 1.8418A3.56655 3.56655 0 0 1 322.97949 391.33447zm3.041-15.543a3.50475 3.50475 0 0 1-3.46582-4.01709l3.46191.51661-3.458-.542a3.52693 3.52693 0 0 1 3.92481-3.00244 3.48036 3.48036 0 0 1 3.02148 3.86817c-.0039.03173-.02148.16113-.02636.19287A3.50153 3.50153 0 0 1 326.02051 375.7915zm-141.01563-.09716A3.49771 3.49771 0 0 1 181.519 372.457c-.00146-.01709-.00879-.13232-.00976-.1499a3.49987 3.49987 0 1 1 6.9873-.417l-3.49365.20849 3.49658-.16211a3.50186 3.50186 0 0 1-3.23242 3.74805C185.1792 375.69092 185.0918 375.69434 185.00488 375.69434zM327.24805 359.918a3.48066 3.48066 0 0 1-3.5-3.47705v-.0459a3.50007 3.50007 0 1 1 3.5 3.523z"/><path fill="#fee903" d="M256.26221,393.9126a107.61277,107.61277,0,0,0,80.67529-36.35846l-29.368-8.76013a19.98793,19.98793,0,0,1-3.41107-1.38245,77.76241,77.76241,0,0,1-96.00525-.16766,19.97092,19.97092,0,0,1-3.72266,1.55011l-28.95312,8.63641A107.61441,107.61441,0,0,0,256.26221,393.9126Z"/><path fill="#fac600" d="M336.9375,357.55414l-2.28491-.68158L307.56934,348.794c-.38916-.11615-.76685-.25513-1.14454-.39313l-66.16113,44.31769a107.72812,107.72812,0,0,0,56.83154-6.846l35.98536-24.19306Q335.06177,359.66727,336.9375,357.55414Z"/><path fill="#fac600" d="M256.26221,386.9126a107.47927,107.47927,0,0,1-75.60327-31.02777l-5.18152,1.54559a107.6842,107.6842,0,0,0,161.46008.12372l-5.19385-1.54926A107.47813,107.47813,0,0,1,256.26221,386.9126Z"/><path fill="#f9f7f8" d="M405.54333,512a10,10,0,0,0,10-9.99754l.0191-77.7226a60,60,0,0,0-36.32287-55.14912l-45.09975-19.3691a15,15,0,0,0-14.26718,1.32023L166.23567,453.9947a30,30,0,0,0-13.30421,24.9249V512Z"/><path fill="#e5e1e5" d="M379.2395,369.13074l-1.833-.78723h0L334.14,349.76163a15.00013,15.00013,0,0,0-14.26741,1.32028l-6.729,4.50745a14.98344,14.98344,0,0,1,6.99634,1.17224l33.66,14.45614a2.84285,2.84285,0,0,1-.12747,5.27424A67.60906,67.60906,0,0,0,311.76,424.65a68.73035,68.73035,0,0,0,47.79,81.18,67.43732,67.43732,0,0,0,41.99438-1.47333L401.54248,512h4.001a10,10,0,0,0,10-9.99756l.019-77.72259A60.00027,60.00027,0,0,0,379.2395,369.13074Z"/><path fill="#fac600" d="M321.27734,352.88293l-13.708-4.08892-.01123-.00385c-.38623-.11554-.76441-.246-1.13721-.3866l-1.136.76087-.00757.10174v31.10547l33.239-22.34649Z"/><path fill="#fee903" d="M354.9353,358.69269l-20.79541-8.93109a15.00041,15.00041,0,0,0-14.26733,1.32025L166.2356,453.99469a30.00025,30.00025,0,0,0-13.3042,24.92487V494.5L354.9353,358.69269Z"/><path fill="#fac600" d="M320.13989,356.7616l22.98487,9.8714,11.81054-7.94031-20.79541-8.93109a15.00041,15.00041,0,0,0-14.26733,1.32025l-6.729,4.50751A14.98344,14.98344,0,0,1,320.13989,356.7616Z"/><circle cx="256" cy="161.137" r="20" fill="#26a6fe"/><path fill="#0593fc" d="M257.23706,141.19922A19.98721,19.98721,0,0,1,242,174.13672c-.41748,0-.82568-.03729-1.23682-.0625a19.98854,19.98854,0,1,0,16.47388-32.875Z"/><circle cx="256" cy="217.66" r="3.5" fill="#fd4755"/><path fill="#d9b3a6" d="M443.48242,167.60124a3.50426,3.50426,0,0,1-.917-.12256l-20.45508-5.53955a3.50015,3.50015,0,0,1,1.83008-6.75684l20.45508,5.53955a3.50071,3.50071,0,0,1-.91309,6.8794Z"/><path fill="#c38f86" d="M420.83008,170.35319a3.5029,3.5029,0,0,1-3.38477-4.398l4.39551-16.58252a3.49971,3.49971,0,1,1,6.76563,1.794l-4.39551,16.58252A3.50114,3.50114,0,0,1,420.83008,170.35319Z"/><path fill="#d9b3a6" d="M434.16113,202.70134a3.50426,3.50426,0,0,1-.917-.12256l-20.45508-5.53906a3.50015,3.50015,0,0,1,1.83008-6.75684l20.45508,5.53906a3.50071,3.50071,0,0,1-.91309,6.8794Z"/><path fill="#c38f86" d="M411.50781,205.45329a3.50294,3.50294,0,0,1-3.38476-4.398l4.39648-16.58252a3.49971,3.49971,0,1,1,6.76563,1.79395l-4.39649,16.58252A3.50114,3.50114,0,0,1,411.50781,205.45329Z"/><path fill="#d9b3a6" d="M506.30371,184.61345a3.50426,3.50426,0,0,1-.917-.12256l-20.45508-5.53907a3.50014,3.50014,0,0,1,1.83008-6.75683l20.45508,5.53906a3.50071,3.50071,0,0,1-.91309,6.8794Z"/><path fill="#c38f86" d="M504.10645,192.905a3.50294,3.50294,0,0,1-3.38477-4.398l4.39551-16.58252a3.49971,3.49971,0,1,1,6.76562,1.794L507.4873,190.301A3.50113,3.50113,0,0,1,504.10645,192.905Z"/><path fill="#d9b3a6" d="M496.98242,219.71354a3.50466,3.50466,0,0,1-.917-.12255l-20.45508-5.53907a3.50014,3.50014,0,0,1,1.83008-6.75683l20.45508,5.53906a3.5007,3.5007,0,0,1-.91309,6.87939Z"/><path fill="#c38f86" d="M494.78418,228.00505a3.50294,3.50294,0,0,1-3.38477-4.398l4.39649-16.58252a3.49971,3.49971,0,1,1,6.76562,1.79394L498.165,225.401A3.50115,3.50115,0,0,1,494.78418,228.00505Z"/><path fill="#aa6a51" d="M487.57007,169.07914l-11.79,44.47a7.52909,7.52909,0,0,1-2.49,3.89,46.958,46.958,0,0,0-16.01,26.02l-1.15015,5.13-1.52978,6.83-6.1001,27.26-1.53,6.83-19.03,84.99a15.10037,15.10037,0,0,0,5.40015,15.26,68.569,68.569,0,0,1,24.45,71.81994,67.68676,67.68676,0,0,1-84.24,47.75,68.73034,68.73034,0,0,1-47.79-81.18,67.69459,67.69459,0,0,1,56.92993-51.99,15.0755,15.0755,0,0,0,12.4502-10.54l25.32983-83.28,2.04-6.7,8.11987-26.7,2.04-6.7,1.74-5.72a47.06973,47.06973,0,0,0-.63989-29.31l-.2-.57a7.606,7.606,0,0,1-.17993-4.48l11.80981-44.56a7.52679,7.52679,0,0,1,9.24-5.33l27.77,7.51A7.61546,7.61546,0,0,1,487.57007,169.07914Z"/><path fill="#935b44" d="M482.21,159.77916l-27.77-7.51a7.51528,7.51528,0,0,0-7.17773,1.845l20.94775,5.665a7.61546,7.61546,0,0,1,5.36011,9.3l-11.79,44.47a7.52909,7.52909,0,0,1-2.49,3.89,46.958,46.958,0,0,0-16.01,26.02l-1.15015,5.13-1.52978,6.83-6.1001,27.26-1.53,6.83-19.03,84.99a15.10037,15.10037,0,0,0,5.40015,15.26,68.569,68.569,0,0,1,24.45,71.81994,67.68244,67.68244,0,0,1-58.395,50.035,67.67377,67.67377,0,0,0,72.395-50.035,68.569,68.569,0,0,0-24.44995-71.81994,15.10037,15.10037,0,0,1-5.40015-15.26l19.03-84.99,1.53-6.83,6.1001-27.26,1.52978-6.83,1.15015-5.13a46.958,46.958,0,0,1,16.01-26.02,7.52909,7.52909,0,0,0,2.49-3.89l11.79-44.47A7.61546,7.61546,0,0,0,482.21,159.77916Z"/><path fill="#d9b3a6" d="M421.32812 467.75651a3.50426 3.50426 0 0 1-.917-.12256l-64.77441-17.541a3.50015 3.50015 0 0 1 1.83008-6.75684l64.77441 17.541a3.5007 3.5007 0 0 1-.91309 6.87939zM416.80273 484.82682a3.50466 3.50466 0 0 1-.917-.12255l-64.77441-17.541a3.50015 3.50015 0 0 1 1.83008-6.75684l64.77441 17.541a3.5007 3.5007 0 0 1-.91309 6.87939z"/><ellipse cx="376.237" cy="416.761" fill="#d9b3a6" rx="11.322" ry="11.383" transform="rotate(-30 376.238 416.76)"/><ellipse cx="419.095" cy="428.367" fill="#d9b3a6" rx="11.322" ry="11.383" transform="rotate(-30 419.095 428.367)"/><path fill="#d1a08f" d="M423.0752 417.74223a11.32119 11.32119 0 0 1-12.7251 16.61426c-.3667-.09925-.72315-.21692-1.0708-.34882a11.33727 11.33727 0 1 0 13.7959-16.26544zM380.22769 406.139a11.32118 11.32118 0 0 1-12.7251 16.61425c-.3667-.09924-.72314-.21692-1.0708-.34881a11.33727 11.33727 0 1 0 13.7959-16.26544z"/><path fill="#d9b3a6" d="M456.12988,248.58915l-1.52978,6.83a.80262.80262,0,0,1-.15015-.03l-23.82007-6.45-22.1499-6a3.50168,3.50168,0,0,1,1.83008-6.76l22.35986,6.06Z"/><path fill="#87523e" d="M454.45,255.3892a.80262.80262,0,0,0,.15015.03l1.52978-6.83-13.199-3.57263-.801,3.57263-.73144,3.26593Z"/><path fill="#c38f86" d="M407.19727,251.34929a3.50294,3.50294,0,0,1-3.38477-4.398l4.39648-16.58252a3.49971,3.49971,0,1,1,6.76563,1.79394l-4.39649,16.58252A3.50114,3.50114,0,0,1,407.19727,251.34929Z"/><path fill="#d9b3a6" d="M448.5,282.67918l-1.53,6.83a.79551.79551,0,0,1-.1499-.03l-26.3501-7.14-20.94995-5.67a3.50168,3.50168,0,0,1,1.83008-6.76l21.15991,5.73Z"/><path fill="#87523e" d="M446.82007,289.47917a.79551.79551,0,0,0,.1499.03l1.53-6.83-13.19995-3.5755-.8,3.5755-.731,3.26355Z"/><path fill="#d9b3a6" d="M411.75977,311.34636l28.43652,7.70068c.05054.01367.10107.0191.15161.03046l1.52881-6.82782-28.18286-7.632-2.03467,6.69018C411.69385,311.31846,411.72437,311.33677,411.75977,311.34636Z"/><path fill="#87523e" d="M427.14746,315.51335l13.04883,3.53369c.05054.01367.10107.0191.15161.03046l1.52881-6.82782-13.19824-3.57416Z"/><path fill="#d9b3a6" d="M402.94727,340.3239l30.62793,8.29394c.05053.01367.10107.0191.15136.03046l1.52881-6.82782-30.37451-8.22541-2.03467,6.69019C402.88135,340.29594,402.91162,340.31425,402.94727,340.3239Z"/><path fill="#87523e" d="M420.52637,345.08421l13.04883,3.53363c.05053.01367.10107.0191.15136.03046l1.52881-6.82782-13.19824-3.574Z"/><path fill="#d9b3a6" d="M393.57324,369.08732a3.49212,3.49212,0,0,0,.55762.21314l32.81836,8.8872a3.492,3.492,0,0,0,.63135.1037,15.36417,15.36417,0,0,1,.35717-3.78863l.69654-3.11115-32.56616-8.819-.926,3.04431A14.98935,14.98935,0,0,1,393.57324,369.08732Z"/><path fill="#87523e" d="M426.94922,378.18766a3.492,3.492,0,0,0,.63135.1037c-.00025-.0119.00048-.02392,0-.03582-.00733-.28937-.00782-.579.00146-.86957.00122-.04749.0044-.095.00635-.14258.0105-.262.02417-.5238.04834-.78613.01245-.14173.03247-.28345.04883-.42517.02124-.17517.03808-.35035.06543-.52533.051-.33521.11206-.67011.18676-1.004l.69654-3.11115L415.436,367.81749l-1.4961,6.6817c-.01172.05237-.01831.1051-.02954.15753Z"/><path fill="#c38f86" d="M398.24219,285.0822a3.50294,3.50294,0,0,1-3.38477-4.39795l4.39551-16.58252a3.49971,3.49971,0,1,1,6.76562,1.79394l-4.3955,16.58252A3.50115,3.50115,0,0,1,398.24219,285.0822Z"/><path fill="#d9b3a6" d="M482.20508,159.78373l-27.76026-7.51721a7.52814,7.52814,0,0,0-9.24462,5.33747l-5.864,22.11956h0L481.707,191.1978h0l5.864-22.11988A7.60885,7.60885,0,0,0,482.20508,159.78373Z"/><path fill="#d1a08f" d="M468.6438,187.6602l13.06225,3.53729,5.864-22.11835a7.62818,7.62818,0,0,0-5.365-9.29541l-16.63428-4.50439-11.13086-3.01019a7.52288,7.52288,0,0,0-.93432-.18744c-.05347-.00745-.10669-.01184-.16041-.01813a7.4478,7.4478,0,0,0-.78784-.05084c-.05249-.00055-.105-.00238-.157-.00189a7.45763,7.45763,0,0,0-1.84033.24749l-.02612.00757a7.52352,7.52352,0,0,0-.86646.29169l-.03638.01446a7.59943,7.59943,0,0,0-2.3684,1.54175l-.00049.00031,20.94775,5.665a7.61546,7.61546,0,0,1,5.36011,9.3Z"/></svg>