<svg xmlns="http://www.w3.org/2000/svg" data-name="Layer 1" viewBox="0 0 512 512"><path fill="#fee903" d="M103.40154,140.70847c-8.60946,15.57548-8.9636,27.19467-7.34765,35.27137,2.88028,14.39608,6.7221,19.2907,17.44461,35.4067,8.27649,12.43956,6.87023,27.76574-1.84532,35.95-8.327,7.81925-20.12868,6.11721-21.81963,5.84656l6.18063,23.06643c3.89371-.06685,26.4741-.81841,41.44368-18.90884,3.36086-4.06147,11.28874-13.64223,10.83181-26.09977-.63249-17.24122-16.701-22.95521-30.08921-44.10183C112.43579,178.03368,105.38945,163.258,103.40154,140.70847Z"/><path fill="#fac600" d="M118.20044,187.139c-5.76465-9.10535-12.811-23.881-14.79883-46.4306-6.3125,11.42-8.17847,20.70465-8.09253,28.034a90.84166,90.84166,0,0,0,8.89136,18.39661c13.38818,21.1466,29.45679,26.86059,30.08923,44.1018.45691,12.45752-7.47094,22.03833-10.83178,26.0998-8.4646,10.22925-19.36072,14.91272-27.93763,17.06524q.24683.92176.4939,1.84357c3.8938-.06683,26.47412-.81842,41.44373-18.90881,3.36084-4.06147,11.28869-13.64228,10.83178-26.0998C147.65723,213.99963,131.58862,208.28564,118.20044,187.139Z"/><path fill="#fee903" d="M3.5,167.477c15.24375,9.184,21.36,19.06948,23.99894,26.87208,4.70364,13.90752,3.82384,20.06729,2.59587,39.38541-.94788,14.91122,7.93307,27.481,19.57307,30.21092,11.121,2.60815,20.49055-4.76669,21.81963-5.84656l6.18063,23.06644c-3.40548,1.889-23.33644,12.52828-45.34569,4.3463-4.94133-1.8369-16.59746-6.17015-22.43051-17.18716-8.07287-15.24758,2.98588-28.23029,4.0071-53.23791C14.33871,204.31871,13.05321,187.99946,3.5,167.477Z"/><path fill="#fac600" d="M20.499,201.34906c4.70362,13.90753,3.82373,20.06732,2.59571,39.38544-.94776,14.91119,7.9331,27.48095,19.57312,30.21087a21.44407,21.44407,0,0,0,7.50241.392,18.01258,18.01258,0,0,1,19.53654,13.24l.05272.19675a58.24458,58.24458,0,0,0,7.90869-3.60889q-3.09045-11.53326-6.18066-23.06646c-1.3291,1.07989-10.69861,8.45471-21.8197,5.84655-11.64-2.72992-20.52088-15.29968-19.57312-30.21087,1.228-19.31812,2.10791-25.47791-2.59571-39.38544C24.86011,186.54645,18.74377,176.661,3.5,167.477a120.08409,120.08409,0,0,1,6.584,17.46881A42.583,42.583,0,0,1,20.499,201.34906Z"/><path fill="#fee903" d="M71.9483,259.75611l-.00005,0A73.00458,73.00458,0,0,0,67.757,231.43445a72.74923,72.74923,0,0,0-5.0572-11.07315,18.9743,18.9743,0,0,0-17.92067-9.63973,2.22559,2.22559,0,0,1-2.1202-3.29789,87.929,87.929,0,0,0,9.068-24.54347,87.75152,87.75152,0,0,0,1.78936-20.18606,2.22254,2.22254,0,0,1,4.17852-1.11963,87.70975,87.70975,0,0,0,31.76751,33.30823,2.22559,2.22559,0,0,1-.1872,3.91616,18.97427,18.97427,0,0,0-10.69989,17.30858,72.8344,72.8344,0,0,0,11.688,38.74111l0,.00007Z"/><path fill="#fac600" d="M78.5752,216.10748a18.97422,18.97422,0,0,1,10.7-17.30859,2.22556,2.22556,0,0,0,.18713-3.91614,87.70915,87.70915,0,0,1-31.76746-33.30823,2.22258,2.22258,0,0,0-4.17858,1.11963c.06481,2.39063.02954,4.947-.1305,7.63184a87.36169,87.36169,0,0,0,26.33191,24.55676,2.22556,2.22556,0,0,1-.18713,3.91614,18.97422,18.97422,0,0,0-10.7,17.30859,72.83616,72.83616,0,0,0,11.688,38.74109v.00006l-8.48584,2.27375c-.01367.94543-.0437,1.82824-.08447,2.63366v.00006l18.31494-4.90747v-.00006a72.83616,72.83616,0,0,1-11.688-38.74109Z"/><rect width="25.58" height="32.686" x="71.079" y="251.272" fill="#fe9738" rx="5.564" transform="rotate(-15 83.869 267.614)"/><path fill="#fe860a" d="M99.01318,274.71667l-5.57959-20.82312a5.56351,5.56351,0,0,0-6.21191-4.059l1.051,3.92254a20.01618,20.01618,0,0,1-14.15356,24.51471h0a5.62092,5.62092,0,0,1-.60266.12457l.78793,2.94085a5.56417,5.56417,0,0,0,6.81473,3.93458l13.95963-3.74049A5.5641,5.5641,0,0,0,99.01318,274.71667Z"/><path fill="#fee903" d="M97.79833,281.186h14.259a0,0,0,0,1,0,0V404.09992a7.12947,7.12947,0,0,1-7.12947,7.12947h0a7.12948,7.12948,0,0,1-7.12948-7.12948V281.186A0,0,0,0,1,97.79833,281.186Z" transform="rotate(-15 104.928 346.208)"/><path fill="#cbc4cc" d="M394.86182,505c-.03662,0-.07373-.00049-.11036-.00146a3.501,3.501,0,0,1-3.39013-3.60743l8.31006-267.56982a3.50023,3.50023,0,0,1,6.99707.21777L398.3584,501.6084A3.50025,3.50025,0,0,1,394.86182,505Z"/><path fill="#aa6a51" d="M449.69121,512a1.9978,1.9978,0,0,1-1.99721-2.06077c.1931-6.75168.09622-14.13639-.46524-22.05294-.52258-7.36865-1.37744-14.20886-2.40881-20.4563L442.16,451.62a12.25965,12.25965,0,0,1,.14-4.79l3.62-15.62A210.62941,210.62941,0,0,0,403.84,250.5a36.74116,36.74116,0,0,1,47.78-54.49l11.85,7.33a12.25636,12.25636,0,0,1-12.89,20.85l-11.53327-7.13411a12.71676,12.71676,0,0,0-9.23577-1.76721A12.22815,12.22815,0,0,0,422.82,235,235.01958,235.01958,0,0,1,469.79,436.74L466.73,449.97l2.26,13.39a225.70878,225.70878,0,0,1,3.00905,46.72983,1.99556,1.99556,0,0,1-2,1.91018Z"/><path fill="#935b44" d="M466.73 449.97L469.79 436.74a235.02 235.02 0 0 0-46.97-201.74 12.22045 12.22045 0 0 1 2.49512-17.778l-.26836-.166a12.71675 12.71675 0 0 0-9.23581-1.76732A12.228 12.228 0 0 0 408.82007 235a235.02 235.02 0 0 1 46.97 201.74L452.73 449.97l2.26 13.39c1.14209 6.85363 2.08984 14.37133 2.66626 22.48a240.513 240.513 0 0 1 .4325 26.16H469.999a1.99556 1.99556 0 0 0 2-1.91018A225.70878 225.70878 0 0 0 468.99 463.36zM437.62 196.01l11.85 7.33a12.25105 12.25105 0 0 1 .53662 20.49536l.57349.35467A12.25636 12.25636 0 0 0 463.47 203.34l-11.85-7.33a36.49379 36.49379 0 0 0-26.28553-4.81946A36.74421 36.74421 0 0 1 437.62 196.01z"/><rect width="52.596" height="36.256" x="432.06" y="439.38" fill="#fee903" rx="8.752" transform="rotate(-88.266 458.358 457.508)"/><path fill="#fed402" d="M468.52482,431.5058l-5.735-.17365a8.73481,8.73481,0,0,1,.21851,2.18683l-.668,22.06742a21.766,21.766,0,0,1-22.41473,21.0975h0a8.748,8.748,0,0,0,8.265,6.82641l18.74268.56739a8.75249,8.75249,0,0,0,9.01331-8.48365L477.0083,440.519A8.75236,8.75236,0,0,0,468.52482,431.5058Z"/><path fill="#fee903" d="M255.99988,22.57028a113.11313,113.11313,0,1,0,113.11328,113.1131A113.113,113.113,0,0,0,255.99988,22.57028Zm0,191.22607a78.113,78.113,0,1,1,78.11328-78.11279A78.20137,78.20137,0,0,1,255.99988,213.79635Z"/><path fill="#fac600" d="M224.77344 26.93872a27.1254 27.1254 0 0 0 1.58545 22.33368l2.8114 5.18689H268.251l2.81128-5.18689a27.12811 27.12811 0 0 0 .0841-25.68982 113.79854 113.79854 0 0 0-46.37292 3.35614zM248.99988 57.8999c-2.308-.20605-4.63928-.32965-7-.32965a78.113 78.113 0 1 0 0 156.22608c2.36072 0 4.692-.1236 7-.32966a78.0962 78.0962 0 0 1 0-155.56677z"/><path fill="#fac600" d="M255.99988,22.57025c-2.35156,0-4.684.08051-7,.22193a113.10767,113.10767,0,0,1,0,225.7824c2.316.14142,4.64844.22193,7,.22193a113.11313,113.11313,0,1,0,0-226.22626Z"/><polygon fill="#3c3b42" points="381.211 380.5 130.211 380.5 193.211 207.5 318.211 207.5 381.211 380.5"/><path fill="#2c2c2e" d="M371.54724,353.96423,307.28,334.794q-.675-.20136-1.32669-.44685a8.07211,8.07211,0,0,1-2.75362-13.27539A67.92035,67.92035,0,0,0,323.829,272.23383c-.00037-16.09833-.00061-19.174-.00061-24.64081A41.385,41.385,0,0,0,306.5,213.91882h-.00012a48.27574,48.27574,0,0,0-34.502-8.5603l-16.28735,2.19324-16.28723-2.19324a48.27541,48.27541,0,0,0-34.50195,8.5603h-.00013A41.383,41.383,0,0,0,187.5929,247.592c-.00013,6.20312-.00037,9.7-.00061,26.68927a65.715,65.715,0,0,0,19.81884,47.13043,8.0008,8.0008,0,0,1-3.14172,13.34359l-.1283.03874L139.8739,353.96423,130.21057,380.5h251Z"/><polygon fill="#2c2c2e" points="318.211 207.5 304.211 207.5 367.211 380.5 381.211 380.5 318.211 207.5"/><path fill="#2c2c2e" d="M325.71057,294.23535a18.25449,18.25449,0,0,0,18.14783-16.30578l-5.49463-15.0882a18.24909,18.24909,0,1,0-12.6532,31.394Z"/><circle cx="325.711" cy="268.981" r="18.255" fill="#fee903"/><path fill="#fac600" d="M334.62964,253.06183a18.24274,18.24274,0,0,1-24.838,24.838,18.24926,18.24926,0,1,0,24.838-24.838Z"/><path fill="#2c2c2e" d="M185.71057,294.23535a18.25455,18.25455,0,1,0-12.6532-31.39392l-5.4945,15.088A18.25433,18.25433,0,0,0,185.71057,294.23535Z"/><circle cx="185.711" cy="268.981" r="18.255" fill="#fee903"/><path fill="#ffbd86" d="M342.34687 244.34186v-.00012s.18015-6.27571.48-14.18463a13.38662 13.38662 0 0 0-13.37237-13.8954h-5.62628v40.23822h5.19379a13.3808 13.3808 0 0 0 13.32482-12.15807zM187.593 216.26172h-5.81272A13.13251 13.13251 0 0 0 168.661 229.89406c.30586 8.03237.49 14.44768.49 14.44768v.00012l.01115.12154a13.17022 13.17022 0 0 0 13.08257 12.03654h5.3483z"/><path fill="#fac600" d="M317.29224,188.38794c.20727-1.64233.34253-3.28021.42956-4.91327a78.05607,78.05607,0,0,1-139.65954-42.809,67.902,67.902,0,0,0-11.93335,47.72223l3.30371,20.09289A113.61425,113.61425,0,0,0,200.93079,234.5H309.71057Z"/><path fill="#fd4755" d="M341.53906 180.499a3.4242 3.4242 0 0 1-1.498-.34375 3.46616 3.46616 0 0 1-1.64307-4.63965l.05371-.11035a3.49983 3.49983 0 0 1 6.28125 3.08887A3.55918 3.55918 0 0 1 341.53906 180.499zM170.40625 180.44287a3.52441 3.52441 0 1 1 3.104-5.1167l.05371.11084a3.50169 3.50169 0 0 1-3.15771 5.00586z"/><path fill="#22b37f" d="M348.6001 160.44531a3.49577 3.49577 0 0 1-3.4126-4.23291l.03125-.13574a3.49981 3.49981 0 1 1 6.81348 1.60352A3.53991 3.53991 0 0 1 348.6001 160.44531zM163.36768 160.36523a3.50107 3.50107 0 0 1-3.40381-2.69921l-.03125-.13575a3.50007 3.50007 0 1 1 6.83105-1.52929l.01367.06152a3.50433 3.50433 0 0 1-3.40966 4.30273z"/><path fill="#fd4755" d="M350.999 139.3457a3.49986 3.49986 0 0 1-3.5-3.5v-.10107a3.5 3.5 0 0 1 7 0v.10107A3.49985 3.49985 0 0 1 350.999 139.3457zM161.001 139.207a3.47993 3.47993 0 0 1-3.5-3.47656v-.10108a3.5 3.5 0 0 1 7 0v.0542A3.51994 3.51994 0 0 1 161.001 139.207z"/><path fill="#22b37f" d="M348.64307 118.16553a3.44573 3.44573 0 0 1-3.3833-2.69434l-.02442-.10937a3.50013 3.50013 0 1 1 6.83594-1.50782 3.539 3.539 0 0 1-2.64111 4.22412A3.60327 3.60327 0 0 1 348.64307 118.16553zM163.353 118.09473a3.53934 3.53934 0 1 1 3.43506-2.835l-.03125.13574A3.5011 3.5011 0 0 1 163.353 118.09473z"/><path fill="#fd4755" d="M341.64746 98.08545a3.43944 3.43944 0 0 1-3.11084-1.94775l-.05371-.11084a3.50071 3.50071 0 1 1 4.71143 1.70117A3.54433 3.54433 0 0 1 341.64746 98.08545zM170.35791 98.01562a3.502 3.502 0 0 1-3.148-5.02539l.04395-.09082a3.49983 3.49983 0 0 1 6.30078 3.04883l-.04395.09082A3.50061 3.50061 0 0 1 170.35791 98.01562z"/><path fill="#22b37f" d="M330.39014 80.08984A3.49183 3.49183 0 0 1 327.6499 78.77l-.063-.0791a3.49981 3.49981 0 0 1 5.47559-4.36035l.063.0791a3.5 3.5 0 0 1-2.73535 5.68017zM181.67285 80.01172a3.5 3.5 0 0 1-2.71582-5.70508 3.5303 3.5303 0 0 1 4.93945-.58447 3.4705 3.4705 0 0 1 .57911 4.89111l-.083.10352A3.4928 3.4928 0 0 1 181.67285 80.01172z"/><path fill="#fd4755" d="M315.34375 65.01367a3.43042 3.43042 0 0 1-2.147-.7539l-.10352-.083a3.47079 3.47079 0 1 1 2.25049.83691zM196.70361 64.95947a3.5 3.5 0 0 1-2.18261-6.23779l.0791-.063a3.49981 3.49981 0 0 1 4.36035 5.47559l-.0791.063A3.48334 3.48334 0 0 1 196.70361 64.95947z"/><path fill="#22b37f" d="M297.38281 53.65576a3.43484 3.43484 0 0 1-1.502-.34717l-.11035-.05371a3.46123 3.46123 0 1 1 1.6123.40088zM214.69531 53.61133a3.51214 3.51214 0 1 1 3.20362-5.05225 3.46614 3.46614 0 0 1-1.59034 4.65772l-.11084.05371A3.492 3.492 0 0 1 214.69531 53.61133z"/><path fill="#fee903" d="M323.7106,234.5h-136l-7.58171-46.11207a67.97382,67.97382,0,0,1,40.75536-71.023L255.7106,102.5l34.82634,14.8649a67.97381,67.97381,0,0,1,40.75536,71.023Z"/><path fill="#fac600" d="M290.53687,117.36487,255.71057,102.5l-7,2.98779,27.8263,11.87708a67.97384,67.97384,0,0,1,40.75537,71.02307L309.71057,234.5h14l7.58167-46.11206A67.97384,67.97384,0,0,0,290.53687,117.36487Z"/><path fill="#09a76d" d="M414.68994,425.55V491H96.73V425.55a60.00467,60.00467,0,0,1,42.8501-57.5L204.14,348.79a19.98036,19.98036,0,0,0,14.27991-19.16v-19.6H293v19.6a19.99405,19.99405,0,0,0,13.12,18.78c.38.14.77.26,1.16.38l34.75,10.37,29.81006,8.89A60.0046,60.0046,0,0,1,414.68994,425.55Z"/><path fill="#02905d" d="M342.03,359.16c-6.41.8-11.56006-1.94-19.61011,3.47-11.22,7.54-5.63989,15.84-16.86987,23.39-11.22,7.54-16.8-.76-28.02,6.78-11.22,7.55-5.64,15.85-16.86011,23.39-11.23,7.55-16.80993-.75-28.02991,6.79-11.22009,7.55-5.64,15.85-16.86,23.39-11.23,7.55-16.81006-.75-28.03,6.8-11.22,7.54-5.64,15.84-16.87,23.39-10.25,6.89-15.79992.57-25.24,5.17v-9.81A29.99774,29.99774,0,0,1,158.95,446.99L306.12,348.41c.38.14.77.26,1.16.38Z"/><path fill="#fed2a4" d="M307.28,348.79407A20.00008,20.00008,0,0,1,292.997,329.62854V310.02625H218.42419v19.60229a20.00008,20.00008,0,0,1-14.28308,19.16553c4.4159,3.86792,24.027,20.17859,53.48194,19.459A79.31108,79.31108,0,0,0,307.28,348.79407Z"/><path fill="#ffbd86" fill-rule="evenodd" d="M218.42432,310.02625v15.26013a66.33258,66.33258,0,0,0,49.58337,22.07049h1.70349a67.85459,67.85459,0,0,0,27.30335-5.71026,19.96867,19.96867,0,0,1-4.01758-12.01813V310.02625Z"/><path fill="#fed2a4" fill-rule="evenodd" d="M255.71127,326.35688h-1.70359a66.14746,66.14746,0,0,1-66.41548-66.0756c.00037-16.98925.00058-20.48618.00069-26.68929a41.38294,41.38294,0,0,1,17.32839-33.67316l0,0a48.27528,48.27528,0,0,1,34.50193-8.56027l16.28734,2.19321,16.28735-2.19321a48.27529,48.27529,0,0,1,34.50193,8.56028l.00006,0a41.38494,41.38494,0,0,1,17.32838,33.6742c.00011,5.46683.0003,8.54246.00064,24.64081A68.121,68.121,0,0,1,255.71127,326.35688Z"/><path fill="#ffbd86" fill-rule="evenodd" d="M187.5929,247.592a41.383,41.383,0,0,1,17.32836-33.67316h.00013a48.27541,48.27541,0,0,1,34.50195-8.5603l16.28723,2.19324,16.28735-2.19324a48.27574,48.27574,0,0,1,34.502,8.5603H306.5a41.385,41.385,0,0,1,17.32837,33.6742c0,3.29437,0,5.72455.00024,10.65527l.00037-.01446c-.00037-16.09833-.00061-19.174-.00061-24.64081A41.385,41.385,0,0,0,306.5,199.91882h-.00012a48.27574,48.27574,0,0,0-34.502-8.5603l-16.28735,2.19324-16.28723-2.19324a48.27541,48.27541,0,0,0-34.50195,8.5603h-.00013A41.383,41.383,0,0,0,187.5929,233.592c-.00013,6.20312-.00037,9.7-.00061,26.68927l.00024.00964C187.59277,254.38458,187.59277,251.53168,187.5929,247.592Z"/><path fill="#ffbd86" fill-rule="evenodd" d="M323.82837,233.593A41.385,41.385,0,0,0,306.5,199.91882h-.00012a48.25158,48.25158,0,0,0-13.75635-6.81469A41.37977,41.37977,0,0,1,309.82837,226.593c0,5.46686.00024,8.54248.00061,24.64081a68.121,68.121,0,0,1-68.1178,68.123h-1.70349a66.8376,66.8376,0,0,1-22.62781-3.91882,66.40906,66.40906,0,0,0,36.62781,10.91882h1.70349a68.121,68.121,0,0,0,68.1178-68.123C323.82861,242.1355,323.82837,239.05988,323.82837,233.593Z"/><rect width="55.915" height="21" x="96.727" y="469.355" fill="#fee903"/><path fill="#fed2a4" d="M152.64206,490.355H96.727V502a10,10,0,0,0,10,10h45.91509Z"/><path fill="#fee903" d="M233.27169,54.45933H278.1495a14.51583,14.51583,0,0,1,14.51583,14.51583v0A14.51584,14.51584,0,0,1,278.1495,83.491H233.27169A14.51583,14.51583,0,0,1,218.75586,68.9752v0a14.51584,14.51584,0,0,1,14.51584-14.51584Z"/><path fill="#fac600" d="M278.14941,54.45929h-1.59863A14.49366,14.49366,0,0,1,264.14941,76.491h-43.279a14.49242,14.49242,0,0,0,12.40137,7h44.87768a14.51587,14.51587,0,1,0,0-29.03174Z"/><rect width="105.292" height="44.108" x="203.065" y="83.491" fill="#fee903" rx="22.054"/><path fill="#fac600" d="M288.51807,83.60193a22.05082,22.05082,0,0,1-16.21558,36.9975H211.11877q-1.12188,0-2.21569-.1109a21.99182,21.99182,0,0,0,16.21569,7.1109h61.18372a22.05455,22.05455,0,0,0,2.21558-43.9975Z"/><path fill="#fee903" d="M275.2509,54.45933H236.17029L233.359,49.27244a27.1318,27.1318,0,0,1,0-25.85743h0a27.1316,27.1316,0,0,1,7.52266-8.738L255.7106,3.5l14.829,11.177a27.13175,27.13175,0,0,1,7.52267,8.738h0a27.13186,27.13186,0,0,1,0,25.85743Z"/><path fill="#fac600" d="M278.06226,23.415a27.13243,27.13243,0,0,0-7.52271-8.738L255.71057,3.5l-2.35632,1.77606,3.1853,2.40094a27.13187,27.13187,0,0,1,7.52271,34.5954h0a9.90822,9.90822,0,0,1-8.711,5.18688H232.47046c.2749.61175.56592,1.21814.88843,1.81311l2.8114,5.18689H275.251l2.81128-5.18689A27.132,27.132,0,0,0,278.06226,23.415Z"/><circle cx="255.711" cy="32.966" r="7.625" fill="#fd4755"/><path fill="#ffae71" d="M292.77 245.26953q-.26293 0-.53027-.00635a22.7926 22.7926 0 0 1-12.06739-3.80371 3.50007 3.50007 0 0 1 3.87012-5.833 15.7972 15.7972 0 0 0 8.36182 2.63868 16.06188 16.06188 0 0 0 9.10937-2.63965 3.4998 3.4998 0 1 1 3.86621 5.835A23.1118 23.1118 0 0 1 292.77 245.26953zM218.6377 245.26953c-.17579 0-.35206-.00195-.53028-.00635A22.79716 22.79716 0 0 1 206.04 241.45947a3.49979 3.49979 0 0 1 3.86914-5.833 15.81 15.81 0 0 0 8.36279 2.63868 16.0646 16.0646 0 0 0 9.1084-2.63965 3.50007 3.50007 0 1 1 3.86719 5.835A23.11 23.11 0 0 1 218.6377 245.26953zM255.70117 299.95508c-.21582 0-.43262-.00244-.65185-.00781a28.06956 28.06956 0 0 1-14.85938-4.68457 3.50007 3.50007 0 0 1 3.87012-5.833 21.07618 21.07618 0 0 0 11.1543 3.51953 21.32442 21.32442 0 0 0 12.14843-3.52051 3.50007 3.50007 0 1 1 3.86719 5.835A28.457 28.457 0 0 1 255.70117 299.95508z"/><path fill="#02905d" d="M204.52258,463.51611l44.18763,24.44794,44.18762-24.44794a80.35388,80.35388,0,0,0,41.4425-70.28967V367.10968l.31861-1.06079L300.28015,355.794a19.99929,19.99929,0,0,1-2.19739-.81488l-.09472,1.287v36.96045a43.9791,43.9791,0,0,1-22.688,38.48194l-26.58984,14.71112-26.58936-14.71112a43.97933,43.97933,0,0,1-22.68823-38.48194V356.26636l-.16321-1.257q-.51984.21487-1.04846.42078a60.54209,60.54209,0,0,1-28.23767,3.55279q-3.48725,1.03876-6.97449,2.07758l.07214,6.04913v26.11676A80.35381,80.35381,0,0,0,204.52258,463.51611Z"/><path fill="#fee903" d="M211.52261,456.51611l44.18762,24.44794,44.18756-24.44794a80.35377,80.35377,0,0,0,41.44251-70.28967V360.10968l.31866-1.06079L307.28012,348.794a19.99777,19.99777,0,0,1-2.19739-.81488l-.09473,1.287v36.96045a43.979,43.979,0,0,1-22.68793,38.48194l-26.58984,14.71112-26.58942-14.71112a43.97927,43.97927,0,0,1-22.68817-38.48194V349.26636l-.16327-1.257a20.00731,20.00731,0,0,1-2.12823.78461l-34.1579,10.189.09772,1.12671v26.11676A80.35379,80.35379,0,0,0,211.52261,456.51611Z"/><path fill="#fac600" d="M306.13135 348.40356l-1.13587.76093-.00744.10168v36.96045c0 .05176-.00513.10266-.00537.15436.19018-.12085.37817-.23511.57165-.36517 11.22083-7.54383 5.64148-15.84265 16.86243-23.38648 7.87756-5.29608 12.97619-2.78735 19.19726-3.43078l.04493-.14966L307.28 348.794C306.88989 348.67761 306.50781 348.54553 306.13135 348.40356zM229.12085 424.70856a43.92105 43.92105 0 0 1-15.462-14.36273l-30.20654 20.2337a80.28129 80.28129 0 0 0 17.80188 19.16766c4.37268.18927 8.68384.55146 14.52222-3.37365 10.166-6.83448 6.54553-14.28766 14.115-21.23865z"/><path d="M184.82764,359.83154c-.10938,0-.21924-.00488-.33057-.01513a3.50052,3.50052,0,0,1-3.1582-3.81153l3.48925.28125,3.48047.37207A3.50048,3.50048,0,0,1,184.82764,359.83154Z"/><path fill="#fd4755" d="M198.0459,421.00439a3.49686,3.49686,0,0,1-3-1.69238c-.00781-.01269-.06543-.11035-.07324-.123a3.50007,3.50007,0,1,1,6.03906-3.54l-3.01953,1.77,3.04687-1.72315a3.50082,3.50082,0,0,1-2.99316,5.30859Zm-6.82373-14.32031a3.50069,3.50069,0,0,1-3.28809-2.30078,3.54283,3.54283,0,0,1,2.04688-4.52588,3.4587,3.4587,0,0,1,4.47656,1.98731c.00586.01513.04639.123.05176.13818a3.50268,3.50268,0,0,1-3.28711,4.70117Zm-4.38574-15.25342a3.5009,3.5009,0,0,1-3.43018-2.82421,3.543,3.543,0,0,1,2.72266-4.15381,3.45822,3.45822,0,0,1,4.11523,2.65478l.03027.14649a3.50213,3.50213,0,0,1-3.438,4.17675Zm-2.1211-15.73632a3.49771,3.49771,0,0,1-3.48584-3.23731c-.00146-.01709-.00879-.13232-.00976-.1499a3.49987,3.49987,0,1,1,6.9873-.417l-3.49365.20849,3.49658-.16211a3.50186,3.50186,0,0,1-3.23242,3.74805C184.88965,375.69092,184.80225,375.69434,184.71533,375.69434Z"/><path d="M326.959,359.918a3.48076,3.48076,0,0,1-3.50048-3.47705l.00048-.0791a3.54589,3.54589,0,0,1,3.52784-3.45557,3.50594,3.50594,0,0,1-.02784,7.01172Z"/><path fill="#fee903" d="M255.9728,393.9126a107.61279,107.61279,0,0,0,80.6753-36.35846l-29.368-8.76013a19.988,19.988,0,0,1-3.41108-1.38245,77.76241,77.76241,0,0,1-96.00525-.16766,19.97111,19.97111,0,0,1-3.72265,1.55011L175.188,357.43042A107.61442,107.61442,0,0,0,255.9728,393.9126Z"/><path fill="#fac600" d="M306.146,348.3938l-66.17176,44.32477a107.86744,107.86744,0,0,0,40.56653-1.63947,17.54254,17.54254,0,0,1,6.30713-1.67883,107.33782,107.33782,0,0,0,25.79981-11.62518c2.27978-5.09247,2.52612-10.27631,9.769-15.14576a19.19617,19.19617,0,0,1,12.74756-3.44531c.49853-.53961.99609-1.0802,1.48376-1.62988L307.28,348.794C306.89246,348.67841,306.52124,348.53253,306.146,348.3938Z"/><path fill="#fd4755" d="M405.25393,512a10,10,0,0,0,10-9.99754l.0191-77.7226a60,60,0,0,0-36.32287-55.14912l-45.09975-19.3691a15,15,0,0,0-14.26718,1.32023L165.94626,453.9947a30,30,0,0,0-13.3042,24.9249V512Z"/><path fill="#fb2b3a" d="M378.9502,369.13074,333.85034,349.7616a14.99994,14.99994,0,0,0-14.26709,1.32025l-6.72912,4.50744a14.98337,14.98337,0,0,1,6.99621,1.17231l45.09986,19.36914A59.99985,59.99985,0,0,1,401.273,431.27985l-.019,77.72259A9.995,9.995,0,0,1,400.7948,512h4.45911a9.99994,9.99994,0,0,0,10-9.99756l.019-77.72259A59.99985,59.99985,0,0,0,378.9502,369.13074Z"/><path fill="#fee903" d="M152.64209,488.735c9.43945-4.60724,14.98474,1.71563,25.23889-5.17823,11.22473-7.54632,5.64539-15.84521,16.87-23.39154,11.223-7.54529,16.80236.7536,28.02539-6.79168,11.22265-7.54493,5.64331-15.84382,16.86572-23.38874,11.22278-7.545,16.80212.75385,28.02478-6.7912,11.22253-7.54486,5.64319-15.84375,16.86572-23.38867,11.22119-7.544,16.80054.75488,28.02173-6.78912,11.22083-7.54383,5.64148-15.84265,16.86243-23.38648,11.21972-7.543,16.79907.7558,28.0188-6.78723l2.06457-2.06463L333.85034,349.7616a14.99994,14.99994,0,0,0-14.26709,1.32025l-153.637,102.91284a30,30,0,0,0-13.3042,24.92487Z"/><path fill="#fac600" d="M319.85034,356.7616l21.90845,9.40905c4.78223.13575,9.32605.941,15.67676-3.32855l2.06457-2.06463L333.85034,349.7616a14.99994,14.99994,0,0,0-14.26709,1.32025l-6.729,4.50744A14.98313,14.98313,0,0,1,319.85034,356.7616Z"/><path fill="#02905d" d="M152.64209,512a3.49985,3.49985,0,0,1-3.5-3.5V462.355a3.5,3.5,0,0,1,7,0V508.5A3.49985,3.49985,0,0,1,152.64209,512Z"/><circle cx="255.711" cy="148.5" r="20" fill="#fd4755"/><path fill="#fb2b3a" d="M256.94751,128.5625A19.9871,19.9871,0,0,1,241.71057,161.5c-.4176,0-.82568-.03729-1.23694-.0625a19.98858,19.98858,0,1,0,16.47388-32.875Z"/><ellipse cx="255.711" cy="107.815" fill="#22b37f" rx="20.669" ry="32.39"/><path fill="#02905d" d="M262.18408,79.3205a35.708,35.708,0,0,1-13.47351,53.88378,35.73169,35.73169,0,0,1-6.47327-3.89563,35.87085,35.87085,0,0,0,13.47327,10.89563,35.70473,35.70473,0,0,0,6.47351-60.88378Z"/><circle cx="255.711" cy="107.815" r="7.625" fill="#fd4755"/><path fill="#fb2b3a" d="M256.46362,100.22729a7.621,7.621,0,0,1-5.459,12.94318c-.25415,0-.50525-.01373-.75318-.038a7.62329,7.62329,0,1,0,6.21216-12.90516Z"/><circle cx="256" cy="217.66" r="3.5" fill="#fd4755"/><circle cx="277" cy="455.66" r="3.5" fill="#fee903"/><circle cx="319" cy="427.66" r="3.5" fill="#fee903"/><circle cx="375" cy="392.66" r="3.5" fill="#fee903"/><circle cx="361" cy="434.66" r="3.5" fill="#fee903"/><circle cx="319" cy="462.66" r="3.5" fill="#fee903"/><circle cx="347" cy="406.66" r="3.5" fill="#fee903"/><circle cx="284" cy="490.66" r="3.5" fill="#fee903"/><circle cx="354" cy="462.66" r="3.5" fill="#fee903"/><circle cx="340" cy="497.66" r="3.5" fill="#fee903"/><circle cx="396" cy="455.66" r="3.5" fill="#fee903"/><circle cx="382" cy="490.66" r="3.5" fill="#fee903"/><circle cx="396" cy="420.66" r="3.5" fill="#fee903"/><circle cx="249" cy="504.66" r="3.5" fill="#fee903"/><circle cx="193" cy="497.66" r="3.5" fill="#fee903"/><circle cx="235" cy="476.66" r="3.5" fill="#fee903"/></svg>