<svg xmlns="http://www.w3.org/2000/svg" data-name="Layer 1" viewBox="0 0 512 512"><path fill="#d7d0d6" d="M403.00161,201.80968l21.17846,5.67475A29.31458,29.31458,0,0,0,460.8106,175.1903l0-.00011a64.32094,64.32094,0,1,1-33.295,124.25851l0,0a29.31458,29.31458,0,0,0-15.57589-46.28282l-21.17844-5.67474Z"/><path fill="#f9f7f8" d="M407.66471,203.05916l16.51537,4.42528a29.31056,29.31056,0,0,0,36.86548-29.55923,64.319,64.319,0,0,1-31.95894,119.27238,29.31062,29.31062,0,0,0-17.14694-44.03176l-16.51537-4.42528-4.663-1.24944,12.2403-45.68143Z"/><path fill="#aa6a51" d="M387.81189,167.17907h0a8.67281,8.67281,0,0,1,8.67281,8.67281V416.83619a0,0,0,0,1,0,0H379.13909a0,0,0,0,1,0,0V175.85187A8.6728,8.6728,0,0,1,387.81189,167.17907Z" transform="rotate(-165 387.812 292.008)"/><path fill="#935b44" d="M420.21606,171.45825,359.126,399.45013a8.66921,8.66921,0,0,1-9.906,6.28626,8.66754,8.66754,0,0,0,16.906.71374l62.37109-232.77294Z"/><rect width="25.483" height="58.246" x="392.592" y="197.494" fill="#fee903" rx="4.885" transform="rotate(-165 405.333 226.617)"/><path fill="#fac600" d="M420.45947,200.51984l-3.5625-.95453-9.41766,35.14719a16.90942,16.90942,0,0,1-20.70976,11.95675h0l-.01684.06244a4.87673,4.87673,0,0,0,3.44618,5.98085l15.18529,4.06887a4.88514,4.88514,0,0,0,5.983-3.45432l12.54647-46.82452A4.88488,4.88488,0,0,0,420.45947,200.51984Z"/><path fill="#fee903" d="M411.74262,169.18781l16.75459,4.48938,5.04355-6.70228a9.16761,9.16761,0,0,0,.03642-10.976l-6.84911-9.22844L416.18235,151.338a9.1676,9.1676,0,0,0-5.45644,9.52366Z"/><path fill="#fac600" d="M433.57715,155.999l-6.84912-9.22845-5.29712,2.29431,5.14624,6.93414a9.16765,9.16765,0,0,1-.03638,10.97595l-3.86889,5.14136,5.82519,1.56092,5.0437-6.70228A9.16765,9.16765,0,0,0,433.57715,155.999Z"/><path fill="#3c3b42" d="M225.118,34.65941h61.764a23.69811,23.69811,0,0,1,23.69811,23.69811V81.52406a0,0,0,0,1,0,0H201.41988a0,0,0,0,1,0,0V58.35753A23.69811,23.69811,0,0,1,225.118,34.65941Z"/><path fill="#2c2c2e" d="M296.56421,36.72876c.00561.20953.01587.41785.01587.62872v0a23.16655,23.16655,0,0,1-23.16654,23.16654H201.41992v21H310.58008V58.35748A23.69682,23.69682,0,0,0,296.56421,36.72876Z"/><path fill="#3c3b42" d="M133.45288,380.71887c-12.23389-36.72387-7.02209-54.81482.59778-64.55981,7.4585-9.5387,17.30517-11.18457,20.10876-22.33386,3.30225-13.13233-7.99817-20.23584-9.15161-37.00745-.57556-8.36939,1.26038-20.82166,13.66016-36.79846v-.00006s-.87354-30.36853-2.01294-44.4466l-1.98621-14.51111c-6.89514-50.3764,32.35474-95.24267,83.32019-95.24267h36.1139c50.96545,0,90.21533,44.86627,83.32019,95.24267l-1.98621,14.51111c-1.1394,14.07807-2.01294,44.4466-2.01294,44.4466v.00006c12.39978,15.9768,14.23572,28.42907,13.66016,36.79846-1.15345,16.77161-12.45386,23.87512-9.15161,37.00745,2.80358,11.14929,12.65026,12.79516,20.10876,22.33386,7.61987,9.745,12.83166,27.83594.59778,64.55981Z"/><path fill="#2c2c2e" d="M165.40564,236.46216l4.41429,7.75294c5.69067,9.99469,21.4836-50.14724,27.80841,16.16674h88.73744a32,32,0,0,0,27.86193-16.26111l4.32625-7.65857-.24366,15.44446A78.9671,78.9671,0,0,1,282.861,315.54431l-35.355,23.30975a10,10,0,0,1-11.011-.0014l-35.37049-23.33288A78.96729,78.96729,0,0,1,165.657,251.93323Z"/><path fill="#2c2c2e" d="M378.04126,316.15906c-7.4585-9.5387-17.30518-11.18457-20.10864-22.33386-3.30225-13.13233,7.998-20.23584,9.15136-37.00745.57569-8.36939-1.26025-20.82166-13.66015-36.79846v-.00006s.87353-30.36853,2.01318-44.4466l1.98609-14.51111c6.89526-50.3764-32.35474-95.24267-83.32007-95.24267h-14c50.96533,0,90.21533,44.86627,83.32007,95.24267L341.437,175.57263c-1.13965,14.07807-2.01318,44.4466-2.01318,44.4466v.00006c12.3999,15.9768,14.23584,28.42907,13.66015,36.79846-1.15332,16.77161-12.45361,23.87512-9.15136,37.00745,2.80346,11.14929,12.65014,12.79516,20.10864,22.33386,7.61987,9.745,12.83179,27.83594.5979,64.55981h14C390.87305,343.995,385.66113,325.90405,378.04126,316.15906Z"/><path fill="#2c2c2e" d="M353.52394,217.09155l-.01606-.01625A21,21,0,0,0,332.138,238.072c0,.4188.01226,7.83474.03644,8.24747.79821,13.62521,21.34948,12.71211,21.34948-.93646Z"/><path fill="#fee903" d="M353.52394,210.09155l-.01606-.01625A21,21,0,0,0,332.138,231.072c0,.4188.01226,7.83474.03644,8.24747.79821,13.62521,21.34948,12.71211,21.34948-.93646Z"/><path fill="#2c2c2e" d="M158.41983,217.09155l.01606-.01625A21,21,0,0,1,179.80575,238.072c0,.4188-.01226,7.83474-.03644,8.24747-.79821,13.62521-21.34948,12.71211-21.34948-.93646Z"/><path fill="#fee903" d="M158.41983,210.09155l.01606-.01625A21,21,0,0,1,179.80575,231.072c0,.4188-.01226,7.83474-.03644,8.24747-.79821,13.62521-21.34948,12.71211-21.34948-.93646Z"/><path fill="#3c3b42" d="M248.73215,3.5h14.53569A23.69811,23.69811,0,0,1,286.966,27.19811v7.4613a0,0,0,0,1,0,0H225.034a0,0,0,0,1,0,0v-7.4613A23.69811,23.69811,0,0,1,248.73215,3.5Z"/><path fill="#2c2c2e" d="M266.26782,3.69568a23.61418,23.61418,0,0,1,6.698,16.50244h0a7.46129,7.46129,0,0,1-7.4613,7.46129H225.03418v7h61.93164v-7.4613A23.697,23.697,0,0,0,266.26782,3.69568Z"/><path fill="#ffbd86" d="M353.42391 220.01932v-.00014s.20708-7.19669.551-16.2074a14.74813 14.74813 0 0 0-14.75243-15.29284H332.6v45.13935h6.10021a14.79573 14.79573 0 0 0 14.71113-13.50263zM179.40568 188.51894h-6.53631a14.74812 14.74812 0 0 0-14.75243 15.2928c.34394 9.01074.551 16.20744.551 16.20744v.00014l.01254.13634a14.79573 14.79573 0 0 0 14.71114 13.50263h6.01407z"/><path fill="#fed2a4" d="M424.77736,512a10,10,0,0,0,10-10V431.15125a67.32892,67.32892,0,0,0-48.18346-64.49982l-72.602-21.60475a22.443,22.443,0,0,1-16.06116-21.49994V293.70423H214.0749v29.84251a22.443,22.443,0,0,1-16.06116,21.49994l-72.602,21.60475a67.32892,67.32892,0,0,0-48.18346,64.49982V502a10,10,0,0,0,10,10Z"/><path fill="#ffbd86" d="M314.2854 352.134l-.29346-.08734a22.49321 22.49321 0 0 1-4.76757-2.051 3.51389 3.51389 0 0 0-.57593.39935 84.78868 84.78868 0 0 1-15.022 10.22229 9.3346 9.3346 0 0 0-11.77954-.80914 9.16808 9.16808 0 0 0-3.87378 7.159 75.47562 75.47562 0 0 1-13.98 2.60108 9.30589 9.30589 0 0 0-17.20337-.41272 76.57088 76.57088 0 0 1-15.052-3.67365 9.34424 9.34424 0 0 0-16.05175-7.76416q-3.30909-2.25842-6.66529-4.63391-5.6814-4.02319-11.00708-8.03711a3.72263 3.72263 0 0 0-1.06079 6.74964q.843.85006 1.73364 1.69488a80.088 80.088 0 0 0 14.5293 10.91071 9.11476 9.11476 0 0 0 1.71509 4.94433l.20215.27759a9.14347 9.14347 0 0 0 7.41113 3.74652 9.39157 9.39157 0 0 0 5.50537-1.789 83.584 83.584 0 0 0 18.61084 4.61279 9.18383 9.18383 0 0 0 1.07837 1.98987l.20215.27765a9.14347 9.14347 0 0 0 7.41113 3.74652 9.39206 9.39206 0 0 0 5.50537-1.78906 9.05525 9.05525 0 0 0 3.041-3.822 82.49841 82.49841 0 0 0 16.49756-3.05 9.14183 9.14183 0 0 0 6.90454 3.13635 9.39235 9.39235 0 0 0 5.50561-1.78906 9.1661 9.1661 0 0 0 3.77271-7.93237 91.80894 91.80894 0 0 0 16.61255-11.24183A3.4917 3.4917 0 0 0 314.2854 352.134zM231.82037 499.33968a158.8019 158.8019 0 0 1-12.113-13.4751 7.88793 7.88793 0 0 0-8.28906-11.35828 151.30515 151.30515 0 0 1-10.21314-18.04266 7.65563 7.65563 0 0 0 .73365-6.721l-.10034-.27234a7.7891 7.7891 0 0 0-5.71436-4.88623 149.1563 149.1563 0 0 1-6.36475-21.67169 7.65857 7.65857 0 0 0 2.293-6.68451c-.00439-.03137-.04272-.28088-.04834-.31219a7.74564 7.74564 0 0 0-4.40918-5.76545 158.68714 158.68714 0 0 1-1.21093-21.88989 7.72272 7.72272 0 0 0 4.30419-6.78253l.00318-.22247a7.69434 7.69434 0 0 0-3.57373-6.59058 164.01642 164.01642 0 0 1 4.56421-25.85388 3.46984 3.46984 0 0 0-.04175-1.88361l-7.25171 2.158a171.9374 171.9374 0 0 0-4.21533 24.73737 7.72048 7.72048 0 0 0-5.21948 7.20813l-.00318.22033a7.72229 7.72229 0 0 0 4.429 7.06763 166.144 166.144 0 0 0 1.19165 21.99963 7.71016 7.71016 0 0 0-4.07227 8.071l.01978.12421a7.795 7.795 0 0 0 6.53393 6.49981 156.00979 156.00979 0 0 0 6.25464 21.34308 7.6862 7.6862 0 0 0-2.1604 8.48059l.05249.14484a7.83082 7.83082 0 0 0 7.36987 5.129c.20166 0 .4043-.00989.60718-.02564a158.28308 158.28308 0 0 0 10.54663 18.50592 7.72265 7.72265 0 0 0 .56958 8.11322l.17066.2345a7.72312 7.72312 0 0 0 6.25976 3.16449 7.88441 7.88441 0 0 0 1.31568-.11853 165.82715 165.82715 0 0 0 12.85229 14.32464 3.5 3.5 0 1 0 4.92969-4.96972z"/><path fill="#ffbd86" d="M364.718,512a237.005,237.005,0,0,0,11.80639-58.21936,238.99719,238.99719,0,0,0-10.37695-89.04755l-66.15552-19.68646a22.432,22.432,0,0,1-10.08007-6.28625,412.66566,412.66566,0,0,1-11.10621,44.81524A412.84021,412.84021,0,0,1,259.14185,434.897,415.04285,415.04285,0,0,1,212.66235,512Z"/><path fill="#bc7c63" d="M232.97949,502.51367a3.5,3.5,0,1,0,4.92969-4.96972,153.20935,153.20935,0,0,1-34.78467-52.36866c-16.31543-41.0122-10.35742-79.104-5.354-98.16015a3.46984,3.46984,0,0,0-.04175-1.88361l-7.25171,2.158c-5.08606,20.48578-10.3457,59.02521,6.14356,100.47369A160.16072,160.16072,0,0,0,232.97949,502.51367Z"/><path fill="#ffbd86" d="M386.59375,366.65143l-72.60181-21.60474a22.44311,22.44311,0,0,1-16.06128-21.49994V293.70422H214.075v7h69.85571v29.84253a22.44311,22.44311,0,0,0,16.06128,21.49994l72.60181,21.60474a67.32893,67.32893,0,0,1,48.18359,64.49982V512h4a10,10,0,0,0,10-10V431.15125A67.32893,67.32893,0,0,0,386.59375,366.65143Z"/><path fill="#bc7c63" d="M198.01367,345.04669l-.21533.06409a3.46267,3.46267,0,0,0,.88818,1.38043c7.41944,6.9541,27.91455,23.15381,57.90674,23.38233.2041.00146.40674.002.61084.002,27.1211,0,46.69727-13.22852,55.98731-21.15528a3.4917,3.4917,0,0,0,1.094-3.58618l-.29346-.08734a22.49321,22.49321,0,0,1-4.76757-2.051,3.51389,3.51389,0,0,0-.57593.39935c-8.61914,7.35352-26.80567,19.67187-52.00293,19.47852-26.56055-.20215-45.02417-14.07453-52.41065-20.78827A22.463,22.463,0,0,1,198.01367,345.04669Z"/><path fill="#aa6a51" d="M255.352 375.20818a9.14341 9.14341 0 0 1-7.4111-3.7465l-.20208-.27761a9.16561 9.16561 0 0 1 2.15946-12.85122 9.32338 9.32338 0 1 1 5.45372 16.87533zM222.5441 366.37038a9.14339 9.14339 0 0 1-7.4111-3.74651l-.20208-.27761a9.16559 9.16559 0 0 1 2.15946-12.85121 9.32338 9.32338 0 1 1 5.45372 16.87533zM287.30058 369.68349a9.14341 9.14341 0 0 1-7.4111-3.7465l-.20208-.27762a9.16559 9.16559 0 0 1 2.15946-12.85121 9.32338 9.32338 0 1 1 5.45372 16.87533z"/><path fill="#935b44" d="M294.7998 354.95068a9.26988 9.26988 0 0 0-6.60253-3.802 9.234 9.234 0 0 1-2.39112 12.33954 9.39242 9.39242 0 0 1-5.50561 1.78912c-.29859 0-.59619-.02221-.89258-.05078.09228.14459.178.29181.27954.4328l.2019.27759a9.14383 9.14383 0 0 0 7.41114 3.74652 9.39235 9.39235 0 0 0 5.50561-1.78906A9.24448 9.24448 0 0 0 294.7998 354.95068zM262.77792 360.44583a9.26992 9.26992 0 0 0-6.60254-3.802 9.234 9.234 0 0 1-2.39112 12.33954 9.39235 9.39235 0 0 1-5.50561 1.78912c-.29859 0-.59619-.02221-.89258-.05078.09229.1446.178.29181.27954.4328l.20191.27759a9.14381 9.14381 0 0 0 7.41113 3.74652 9.39235 9.39235 0 0 0 5.50561-1.78906A9.24449 9.24449 0 0 0 262.77792 360.44583zM230.04334 351.608a9.26986 9.26986 0 0 0-6.60254-3.802 9.234 9.234 0 0 1-2.39112 12.33954 9.39242 9.39242 0 0 1-5.50561 1.78912c-.29859 0-.59619-.02222-.89258-.05078.09229.14459.178.29181.27954.4328l.20191.27759a9.14384 9.14384 0 0 0 7.41113 3.74652 9.39229 9.39229 0 0 0 5.50561-1.78907A9.24448 9.24448 0 0 0 230.04334 351.608z"/><path fill="#fee903" d="M378.718,512a237.005,237.005,0,0,0,11.80639-58.21936,238.99719,238.99719,0,0,0-10.37695-89.04755l-66.15552-19.68646a22.432,22.432,0,0,1-10.08007-6.28625,412.66566,412.66566,0,0,1-11.10621,44.81524A412.84021,412.84021,0,0,1,273.14185,434.897,415.04285,415.04285,0,0,1,226.66235,512Z"/><path fill="#fac600" d="M380.14746,364.73309l-66.15552-19.68646a22.432,22.432,0,0,1-10.08007-6.28625c-.82837,4.378-1.773,8.93109-2.82276,13.61273l18.51944,5.511a80.006,80.006,0,0,1,57.17251,71.94643A235.76329,235.76329,0,0,1,366.95459,512H378.718a237.005,237.005,0,0,0,11.80639-58.21936A238.99719,238.99719,0,0,0,380.14746,364.73309Z"/><path fill="#aa6a51" d="M147.95264 486.29932h-.1001a3.5 3.5 0 0 1 0-7h.1001a3.5 3.5 0 1 1 0 7zm-16.1001 0h-.1001a3.5 3.5 0 0 1 0-7h.1001a3.5 3.5 0 1 1 0 7zm-16.1001 0h-.09961a3.5 3.5 0 0 1 0-7 3.54272 3.54272 0 0 1 3.54981 3.5A3.4577 3.4577 0 0 1 115.75244 486.29932zm-16.09961 0h-.1001a3.5 3.5 0 1 1 0-7h.1001a3.5 3.5 0 1 1 0 7zm-16.1001 0h-.10009a3.5 3.5 0 0 1 0-7h.10009a3.5 3.5 0 0 1 0 7zM419.74213 486.72564h-.11256a3.92632 3.92632 0 1 1 0-7.85262h.11256a3.92632 3.92632 0 1 1 0 7.85262zm-18.1043 0h-.11256a3.92632 3.92632 0 1 1 0-7.85262h.11256a3.92632 3.92632 0 1 1 0 7.85262z"/><path fill="#ffae71" d="M147.9502,512a3.49944,3.49944,0,0,1-3.5-3.49512l-.04493-32.47607a3.49987,3.49987,0,0,1,3.49512-3.50488h.00488a3.49943,3.49943,0,0,1,3.5,3.49511l.04493,32.47608A3.49987,3.49987,0,0,1,147.95508,512Z"/><path fill="#fed2a4" fill-rule="evenodd" d="M256.00288,319.87661h-.00015c-42.30339,0-58.88287-42.721-76.59706-83.41441V180.66636a39.13408,39.13408,0,0,1,16.43905-31.868l0,0a49.66436,49.66436,0,0,1,44.48384-6.673h0a49.67837,49.67837,0,0,0,31.34832,0h0a49.66436,49.66436,0,0,1,44.48384,6.673l0,0a39.13407,39.13407,0,0,1,16.43906,31.868V236.4622C323.02117,277.43975,298.30627,319.87661,256.00288,319.87661Z"/><path fill="#ffbd86" fill-rule="evenodd" d="M316.16089,148.79834v-.00006a49.66474,49.66474,0,0,0-44.48389-6.673,49.67831,49.67831,0,0,1-31.34839,0,49.66471,49.66471,0,0,0-44.48388,6.673v.00006c-.05127.03656-.09888.077-.14991.11377a49.659,49.659,0,0,1,30.63379.2132,49.67831,49.67831,0,0,0,31.34839,0,49.66474,49.66474,0,0,1,44.48389,6.673v.00006a39.13393,39.13393,0,0,1,16.439,31.868v62.79584a76.29593,76.29593,0,0,1-35.53515,64.49237c28.94482-10.91052,44.6208-45.61454,49.53515-78.49237V180.66632A39.13393,39.13393,0,0,0,316.16089,148.79834Z"/><path fill="#3c3b42" d="M179.40564,236.46216l4.41429,7.75294a32,32,0,0,0,27.80841,16.16674h88.73744a32,32,0,0,0,27.86193-16.26111l4.32625-7.65857-.24366,15.44446A78.9671,78.9671,0,0,1,296.861,315.54431l-35.355,23.30975a10,10,0,0,1-11.01095-.0014l-35.37049-23.33288A78.96729,78.96729,0,0,1,179.657,251.93323Z"/><path fill="#2c2c2e" d="M328.22778,244.12073a31.96866,31.96866,0,0,1-10.073,10.85626,78.96173,78.96173,0,0,1-35.29395,60.56732L249.002,337.86774l1.49317.98492a9.9998,9.9998,0,0,0,11.01074.0014l35.355-23.30975a78.96722,78.96722,0,0,0,35.44946-63.63769l.24366-15.44446Z"/><path fill="#ffae71" d="M297.67383 228.48633q-.29 0-.584-.00684a25.24782 25.24782 0 0 1-13.33593-4.19385 3.50021 3.50021 0 0 1 3.86328-5.83789 18.19148 18.19148 0 0 0 20.13281-.00048 3.50008 3.50008 0 1 1 3.86133 5.83886A25.58489 25.58489 0 0 1 297.67383 228.48633zM214.3125 228.48633c-.19336 0-.38721-.00244-.5835-.00684a25.24012 25.24012 0 0 1-13.33593-4.19385 3.50021 3.50021 0 1 1 3.86328-5.83789 18.19193 18.19193 0 0 0 20.13379-.001 3.50022 3.50022 0 0 1 3.86035 5.83984A25.59472 25.59472 0 0 1 214.3125 228.48633z"/><path fill="#fff" d="M276.97161,184.40763a209.959,209.959,0,0,1-41.94276,0,6.8543,6.8543,0,0,1-6.42021-7.53553h0a7.05364,7.05364,0,0,1,7.77119-5.85845,196.43113,196.43113,0,0,0,39.24081,0,7.05385,7.05385,0,0,1,7.77118,5.85845h0A6.8534,6.8534,0,0,1,276.97161,184.40763Z"/><path fill="#fff" d="M286.12685,196.87934a223.48481,223.48481,0,0,1-60.25324,0c-4.32813-.587-7.28732-4.1739-6.62885-7.83054h0c.65888-3.6613,4.4326-6.0517,8.4523-5.50765a209.95547,209.95547,0,0,0,56.60635,0c4.01846-.54388,7.79466,1.84645,8.4523,5.50765h0C293.41211,192.70534,290.4554,196.29238,286.12685,196.87934Z"/><ellipse cx="328.641" cy="379.269" fill="#fe9738" rx="8.434" ry="8.414"/><ellipse cx="309.681" cy="432.044" fill="#fe9738" rx="8.434" ry="8.414"/><ellipse cx="358.328" cy="408.75" fill="#fe9738" rx="8.434" ry="8.414"/><ellipse cx="337.328" cy="457.75" fill="#fe9738" rx="8.434" ry="8.414"/><ellipse cx="284.112" cy="479.894" fill="#fe9738" rx="8.434" ry="8.414"/><ellipse cx="317.594" cy="500.086" fill="#fe9738" rx="8.434" ry="8.414"/><ellipse cx="359.594" cy="486.086" fill="#fe9738" rx="8.434" ry="8.414"/><path fill="#ffae71" d="M195.49316,511.7998q-.17065,0-.34326-.01709c-22.92578-2.23046-42.26611-15.40917-50.47314-34.39355-11.60547-26.84619,4.53613-53.06836,6.415-55.97021a3.50009,3.50009,0,1,1,5.876,3.80468c-1.67041,2.57959-16.02685,25.8833-5.86572,49.38819,7.19629,16.64648,24.33447,28.21972,44.72559,30.2041a3.50018,3.50018,0,0,1-.33448,6.98388Z"/><ellipse cx="177.112" cy="476.024" fill="#ffae71" rx="3.936" ry="3.926"/><path fill="#aa6a51" d="M218.81152,488.30755a7.72292,7.72292,0,0,1-6.25974-3.16446l-.17069-.23448a7.74167,7.74167,0,0,1,1.824-10.8547,7.87493,7.87493,0,1,1,4.60645,14.25364Z"/><path fill="#935b44" d="M225.14575,475.86353a7.8123,7.8123,0,0,0-4.41113-3.00831,7.79881,7.79881,0,0,1-1.989,10.4693,7.93213,7.93213,0,0,1-4.65015,1.51111,7.841,7.841,0,0,1-1.92017-.2456c.06885.10608.13111.21472.20581.31854l.17066.2345a7.72312,7.72312,0,0,0,6.25976,3.16449,7.93278,7.93278,0,0,0,4.65015-1.51117A7.80823,7.80823,0,0,0,225.14575,475.86353Z"/><path fill="#aa6a51" d="M200.65774 458.31506a7.83107 7.83107 0 0 1-7.36991-5.129l-.05244-.14481a7.72139 7.72139 0 0 1 4.63323-9.94994 7.8537 7.8537 0 0 1 10.05852 4.58322l.10051.27233a7.72535 7.72535 0 0 1-4.72172 9.91A7.91005 7.91005 0 0 1 200.65774 458.31506zM182.58746 416.59355a7.75665 7.75665 0 0 1 6.49819-8.88011 7.845 7.845 0 0 1 9.00718 6.40651c.00548.03133.04382.28085.0482.31217a7.75784 7.75784 0 0 1-6.60774 8.80018 7.95063 7.95063 0 0 1-1.169.08641 7.81985 7.81985 0 0 1-7.75707-6.60094M188.91005 387.30931c-.03952 0-.078 0-.11748-.00108a7.80086 7.80086 0 0 1-7.75359-7.85291l.00329-.2203a7.71636 7.71636 0 0 1 7.98306-7.62721 7.80023 7.80023 0 0 1 7.7547 7.85183l-.00329.22246A7.80755 7.80755 0 0 1 188.91005 387.30931z"/><path fill="#935b44" d="M190.19189,371.71881a7.62106,7.62106,0,0,1,1.66993,4.87586l-.00342.22241a7.8075,7.8075,0,0,1-7.8667,7.62726c-.03943,0-.07788,0-.11743-.0011a8.02207,8.02207,0,0,1-1.16516-.11115,7.89592,7.89592,0,0,0,6.08337,2.97614c.03955.0011.07813.0011.11768.0011a7.80783,7.80783,0,0,0,7.8667-7.62726l.00317-.22248A7.77138,7.77138,0,0,0,190.19189,371.71881Z"/><path fill="#3c3b42" d="M305.6441,252.257a2.66549,2.66549,0,0,0-4.39924-2.49609,21.66742,21.66742,0,0,1-6.90074,4.33881c-13.85354,5.30336-27.78552-7.03568-36.93914-7.13848q-1.405-.01578-2.80978,0c-9.15372.10279-23.0857,12.44185-36.93924,7.13848a21.66754,21.66754,0,0,1-6.90082-4.33887,2.66549,2.66549,0,0,0-4.39924,2.49609c1.381,6.84509,4.883,15.9825,13.69148,21.6262,9.70575,6.21862,23.75916,6.852,32.98914,1.72784a6.11351,6.11351,0,0,1,5.92713,0c9.2299,5.12415,23.28328,4.49076,32.98893-1.72786C300.761,268.23945,304.26311,259.10208,305.6441,252.257Z"/><path fill="#2c2c2e" d="M304.10156,249.30664A30.50042,30.50042,0,0,1,291.93237,265.353c-9.70556,6.21863-23.759,6.85205-32.989,1.72784a6.11336,6.11336,0,0,0-5.927,0c-9.23,5.12421-23.28345,4.49079-32.98926-1.72784a30.49222,30.49222,0,0,1-12.16284-16.03,2.62171,2.62171,0,0,0-1.5083,2.9339c1.38086,6.84509,4.883,15.98254,13.6914,21.62622,9.70581,6.21863,23.75928,6.852,32.98926,1.72784a6.1132,6.1132,0,0,1,5.927,0c9.23,5.12415,23.28345,4.49079,32.989-1.72784,8.80835-5.64368,12.31054-14.78107,13.6914-21.62616A2.62443,2.62443,0,0,0,304.10156,249.30664Z"/><path fill="#935b44" d="M206.97421 445.871a7.81228 7.81228 0 0 0-4.41113-3.0083 7.7988 7.7988 0 0 1-1.989 10.4693 7.93214 7.93214 0 0 1-4.65014 1.51111 7.84048 7.84048 0 0 1-1.92017-.24561c.06885.10608.1311.21473.20581.31855l.17066.23449a7.72312 7.72312 0 0 0 6.25976 3.16449 7.93271 7.93271 0 0 0 4.65015-1.51117A7.80823 7.80823 0 0 0 206.97421 445.871zM196.71169 410.87723a7.81222 7.81222 0 0 0-4.41114-3.0083 7.7988 7.7988 0 0 1-1.989 10.4693 7.93217 7.93217 0 0 1-4.65015 1.51111 7.8404 7.8404 0 0 1-1.92016-.24561c.06885.10608.1311.21472.20581.31854l.17065.2345a7.72313 7.72313 0 0 0 6.25977 3.16449 7.93277 7.93277 0 0 0 4.65014-1.51117A7.80823 7.80823 0 0 0 196.71169 410.87723z"/></svg>