<svg xmlns="http://www.w3.org/2000/svg" data-name="Layer 1" viewBox="0 0 512 512"><path fill="#fee903" d="M408.59846,212.725c8.60946,15.57548,8.9636,27.19467,7.34765,35.27137-2.88028,14.39608-6.7221,19.2907-17.44461,35.40669-8.27649,12.43956-6.87023,27.76574,1.84532,35.95,8.327,7.81925,20.12868,6.11721,21.81963,5.84655L415.98582,348.266c-3.89371-.06685-26.4741-.81842-41.44368-18.90884-3.36086-4.06147-11.28874-13.64223-10.83181-26.09977.63249-17.24122,16.701-22.95521,30.08921-44.10183C399.56421,250.05018,406.61055,235.27454,408.59846,212.725Z"/><path fill="#fac600" d="M406.94446,247.99634c-2.88025,14.39606-6.722,19.29071-17.44458,35.40668-8.27649,12.43957-6.87024,27.76574,1.84533,35.95,8.18067,7.68194,19.708,6.175,21.71412,5.863a23.24006,23.24006,0,0,1-12.71253-5.863c-8.71545-8.18421-10.1217-23.51038-1.84534-35.94995,10.72254-16.116,14.56446-21.01062,17.44458-35.40668,1.616-8.07672,1.26185-19.69586-7.34765-35.27136a121.88522,121.88522,0,0,1-2.44946,15.95A42.55324,42.55324,0,0,1,406.94446,247.99634Z"/><path fill="#fee903" d="M508.5,239.4935c-15.24375,9.184-21.36,19.06948-23.99894,26.87208-4.70364,13.90751-3.82384,20.06729-2.59587,39.38541.94788,14.91122-7.93307,27.481-19.57307,30.21091-11.121,2.60816-20.49055-4.76668-21.81963-5.84655l-6.18063,23.06643c3.40548,1.889,23.33644,12.52828,45.34569,4.34631,4.94133-1.83691,16.59746-6.17015,22.43051-17.18716,8.07287-15.24758-2.98588-28.23029-4.0071-53.23791C497.66129,276.33521,498.94679,260.016,508.5,239.4935Z"/><path fill="#fac600" d="M508.5,239.49353c-14.96851,9.01819-21.12744,18.70789-23.84375,26.44251a89.378,89.378,0,0,0-.5553,14.167c1.02124,25.00763,12.08,37.99029,4.00708,53.23791-5.833,11.017-17.48913,15.35022-22.43054,17.18714a51.774,51.774,0,0,1-30.97778,1.28057q-.18384.68657-.36792,1.37311c3.40551,1.889,23.33654,12.52832,45.3457,4.34632,4.94141-1.83692,16.59753-6.17011,22.43054-17.18714,8.07288-15.24762-2.98584-28.23028-4.00708-53.23791C497.66138,276.33521,498.94678,260.01593,508.5,239.49353Z"/><path fill="#fee903" d="M440.0517,331.7726l.00005,0a72.83459,72.83459,0,0,1,9.24849-39.39477,18.97429,18.97429,0,0,1,17.92067-9.63972,2.22559,2.22559,0,0,0,2.1202-3.29789,87.70978,87.70978,0,0,1-10.85736-44.72953,2.22254,2.22254,0,0,0-4.17852-1.11963,87.70993,87.70993,0,0,1-31.76751,33.30823,2.22558,2.22558,0,0,0,.1872,3.91615A18.9743,18.9743,0,0,1,433.42481,288.124a72.8344,72.8344,0,0,1-11.688,38.74111l0,.00006Z"/><path fill="#fac600" d="M469.34106,279.44019a87.71226,87.71226,0,0,1-10.8573-44.72956,2.22259,2.22259,0,0,0-4.17858-1.11963c-1.28516,2.37195-2.78492,4.86255-4.50855,7.40943a87.272,87.272,0,0,0,10.46094,33.7575,2.22563,2.22563,0,0,1-2.12036,3.29786,18.97447,18.97447,0,0,0-17.92066,9.63971,72.836,72.836,0,0,0-9.24841,39.39477l-.00012.00006L422.939,324.939c-.417.6908-.82116,1.33741-1.20214,1.92615v.00006l18.31494,4.90741h0a72.83318,72.83318,0,0,1,9.24853-39.39477A18.97411,18.97411,0,0,1,467.221,282.7381,2.22559,2.22559,0,0,0,469.34106,279.44019Z"/><rect width="25.58" height="32.686" x="415.341" y="323.289" fill="#fdb441" rx="5.564" transform="rotate(-165 428.13 339.632)"/><path fill="#fea613" d="M439.34058,325.71606l-2.94092-.788a5.61882,5.61882,0,0,1-.12464.60272l-2.62707,9.80448a16.97141,16.97141,0,0,1-20.78563,12.00064h0a5.56346,5.56346,0,0,0,4.059,6.212l13.9596,3.74042a5.5642,5.5642,0,0,0,6.81471-3.9345l5.57946-20.823A5.56418,5.56418,0,0,0,439.34058,325.71606Z"/><path fill="#fee903" d="M407.07218,353.20249h0a7.12947,7.12947,0,0,1,7.12947,7.12947V483.24589a0,0,0,0,1,0,0h-14.259a0,0,0,0,1,0,0V360.332A7.12948,7.12948,0,0,1,407.07218,353.20249Z" transform="rotate(-165 407.072 418.224)"/><path fill="#fac600" d="M422.50659,355.04437,391.9751,468.989a7.126,7.126,0,0,1-7.01056,5.27631A7.12685,7.12685,0,0,0,398.9751,475.989l31.8125-118.7257Z"/><path fill="#8ac9fe" d="M508.501 205.84277l-.06054-.00048q-2.0647-.03516-4.07178-.11182a3.50007 3.50007 0 1 1 .26514-6.99512q1.93432.07324 3.92578.10791a3.5 3.5 0 0 1-.0586 6.99951zM488.41746 204.37891a3.53644 3.53644 0 0 1-.46826-.03125c-2.76026-.36914-5.50489-.81153-8.15772-1.31543a3.4999 3.4999 0 0 1 1.30566-6.877c2.52784.48 5.14551.90186 7.77979 1.25391a3.50032 3.50032 0 0 1-.45947 6.96973zM464.80515 199.125a3.49814 3.49814 0 0 1-1.07959-.17139c-2.665-.86377-5.29638-1.81982-7.8208-2.84228a3.50014 3.50014 0 0 1 2.62793-6.48828c2.37061.96 4.84375 1.85888 7.35108 2.67138a3.50063 3.50063 0 0 1-1.07862 6.83057zm-22.02685-9.95166a3.48242 3.48242 0 0 1-1.80469-.50391c-2.39014-1.44189-4.73731-2.99658-6.97656-4.62109a3.5 3.5 0 1 1 4.11035-5.666c2.08008 1.5083 4.26123 2.95313 6.48242 4.29395a3.50032 3.50032 0 0 1-1.81152 6.49707zm45.42871-8.855a3.50089 3.50089 0 0 1-.667-.064c-2.72315-.52539-5.44922-1.14648-8.10206-1.84668a3.50013 3.50013 0 1 1 1.78614-6.76855c2.50146.66016 5.07275 1.24658 7.64209 1.74219a3.50023 3.50023 0 0 1-.65918 6.937zm-64.53662-5.94482a3.487 3.487 0 0 1-2.40381-.95655c-1.99463-1.88574-3.96-3.86328-5.8418-5.87939a3.50014 3.50014 0 0 1 5.11719-4.77686c1.78271 1.90967 3.644 3.78369 5.5332 5.56934a3.5 3.5 0 0 1-2.40478 6.04346zm41.38672-1.05469a3.48937 3.48937 0 0 1-1.3628-.27783c-2.5542-1.08057-5.09375-2.26856-7.54785-3.53028a3.5 3.5 0 1 1 3.2002-6.22558c2.30029 1.18261 4.68115 2.29589 7.07617 3.30957a3.50063 3.50063 0 0 1-1.36572 6.72412zm-21.063-11.86084a3.485 3.485 0 0 1-2.04932-.665c-2.2373-1.61963-4.44531-3.34961-6.563-5.14111a3.5003 3.5003 0 0 1 4.52246-5.34375c1.98243 1.67822 4.0503 3.29785 6.145 4.814a3.50044 3.50044 0 0 1-2.05517 6.33594zm-36.30469-5.22754a3.49418 3.49418 0 0 1-2.81738-1.41943c-1.59473-2.15723-3.187-4.42774-4.73194-6.748a3.49992 3.49992 0 0 1 5.82618-3.87988c1.48193 2.22558 3.00781 4.40136 4.53466 6.46679a3.5 3.5 0 0 1-2.81152 5.58057zm18.74707-11.31494a3.49456 3.49456 0 0 1-2.78418-1.37549c-1.58789-2.07959-3.19141-4.39649-4.76611-6.88672a3.50027 3.50027 0 1 1 5.917-3.74121c1.46484 2.31689 2.94922 4.46338 4.4126 6.37891a3.49995 3.49995 0 0 1-2.7793 5.62451zm-31.73877-9.09668a3.49942 3.49942 0 0 1-3.06641-1.80762c-1.28759-2.33008-2.57812-4.76514-3.835-7.23779a3.49983 3.49983 0 1 1 6.23926-3.17285c1.22119 2.40136 2.47363 4.76464 3.72266 7.0249a3.50074 3.50074 0 0 1-3.06055 5.19336zm19.33789-11.64844a3.49922 3.49922 0 0 1-3.13965-1.94971c-1.14892-2.32324-2.32763-4.811-3.5039-7.39453a3.50011 3.50011 0 0 1 6.37109-2.90039c1.145 2.51611 2.2915 4.936 3.40723 7.19238a3.502 3.502 0 0 1-3.13477 5.05225zm-30.00049-10.08252a3.50084 3.50084 0 0 1-3.208-2.09668c-1.062-2.42578-2.13184-4.95264-3.1792-7.51074a3.49976 3.49976 0 0 1 6.47753-2.65235c1.02637 2.50635 2.07374 4.98047 3.11377 7.3545a3.50188 3.50188 0 0 1-3.2041 4.90527zm20.20313-12.05371a3.50118 3.50118 0 0 1-3.24658-2.19092q-1.4568-3.60937-2.98145-7.56006a3.5 3.5 0 0 1 6.53125-2.51855q1.5044 3.90015 2.94141 7.45849a3.50215 3.50215 0 0 1-3.24463 4.811zM258.50974 94.76709a3.52424 3.52424 0 0 1-.6875-.06787 15.31349 15.31349 0 0 1-8.81006-5.27783 3.50021 3.50021 0 0 1 5.40625-4.44727 8.29427 8.29427 0 0 0 4.771 2.85986 3.50029 3.50029 0 0 1-.67969 6.93311zm116.57178-3.17627a3.5019 3.5019 0 0 1-3.28223-2.28418q-1.42528-3.84375-2.82373-7.53125a3.5 3.5 0 1 1 6.541-2.49316q1.415 3.71337 2.84619 7.59082a3.5023 3.5023 0 0 1-3.28125 4.71777zm-103.43262-3.853a3.502 3.502 0 0 1-3.23144-4.84228 8.1279 8.1279 0 0 0 .62451-3.13233 8.36785 8.36785 0 0 0-.11084-1.35107c-.07617-.46973-.15869-1.01856-.24219-1.64209a3.49976 3.49976 0 0 1 6.9375-.92969c.07373.54932.14649 1.03369.21338 1.44483a15.4176 15.4176 0 0 1 .20215 2.478 15.09641 15.09641 0 0 1-1.15869 5.81494A3.50207 3.50207 0 0 1 271.6489 87.73779zm123.95752-8.33252a3.50136 3.50136 0 0 1-3.27734-2.271q-1.41064-3.75733-2.8711-7.4917a3.50008 3.50008 0 0 1 6.51465-2.56153q1.4861 3.77931 2.91016 7.59327a3.50223 3.50223 0 0 1-3.27637 4.731zM248.16013 75.22168a3.49957 3.49957 0 0 1-3.49267-3.32715c-.07617-1.5376-.11475-3.09082-.11475-4.61572 0-1.26465.02637-2.53565.07861-3.77735a3.50016 3.50016 0 0 1 6.99414.29395c-.04833 1.14453-.07275 2.31641-.07275 3.4834 0 1.41015.03565 2.84717.106 4.27a3.49946 3.49946 0 0 1-3.32276 3.66846C248.27732 75.22021 248.21824 75.22168 248.16013 75.22168zm117.981-6.13916a3.5005 3.5005 0 0 1-3.19434-2.06641c-1.16211-2.58593-2.28076-4.90381-3.41894-7.08642a3.49983 3.49983 0 0 1 6.20605-3.23731c1.20215 2.30469 2.37891 4.74317 3.59766 7.45459a3.50206 3.50206 0 0 1-3.19043 4.93555zm-94.15381-5.38623a3.50286 3.50286 0 0 1-3.47949-3.91846A51.79653 51.79653 0 0 1 270.23 51.29736a3.49983 3.49983 0 0 1 6.71191 1.98633 44.8145 44.8145 0 0 0-1.48389 7.33008A3.501 3.501 0 0 1 271.98728 63.69629zm114.39063-6.68311a3.50061 3.50061 0 0 1-3.16846-2.00879c-1.167-2.47558-2.35742-4.84619-3.53857-7.04638a3.49993 3.49993 0 1 1 6.167-3.31153c1.23877 2.30713 2.48486 4.78809 3.70361 7.37354a3.50184 3.50184 0 0 1-3.16357 4.99316zM250.45066 51.1958A3.5033 3.5033 0 0 1 247.0615 46.812a67.49055 67.49055 0 0 1 2.65625-8.08789 3.5001 3.5001 0 1 1 6.49609 2.6084 60.49809 60.49809 0 0 0-2.3789 7.2456A3.50185 3.50185 0 0 1 250.45066 51.1958zm103.45215-2.9292a3.49276 3.49276 0 0 1-2.70752-1.27978 48.29586 48.29586 0 0 0-5.18994-5.43506 3.5 3.5 0 1 1 4.65332-5.22949 55.29991 55.29991 0 0 1 5.94775 6.22412 3.5 3.5 0 0 1-2.70361 5.72021zm-72.47656-6.415a3.5 3.5 0 0 1-2.52-5.92822 35.729 35.729 0 0 1 6.96-5.58887 3.49985 3.49985 0 0 1 3.67871 5.95508 28.73417 28.73417 0 0 0-5.59766 4.49024A3.48927 3.48927 0 0 1 281.42625 41.85156zm92.73388-5.69092a3.49365 3.49365 0 0 1-2.80517-1.40332c-1.57666-2.10693-3.231-4.10986-4.916-5.95263a3.5 3.5 0 0 1 5.166-4.72364c1.83935 2.01124 3.64062 4.19239 5.35449 6.48291a3.5 3.5 0 0 1-2.79932 5.59668zm-39.542-2.042a3.49779 3.49779 0 0 1-1.24121-.22851q-.99683-.37794-2.03272-.71485a50.79339 50.79339 0 0 0-5.19433-1.36621 3.49989 3.49989 0 0 1 1.4375-6.85058 57.72043 57.72043 0 0 1 5.917 1.55859q1.20338.39111 2.356.82812a3.50066 3.50066 0 0 1-1.24219 6.77344zm-31.8335-2.79394a3.50042 3.50042 0 0 1-.59716-6.94873 62.528 62.528 0 0 1 8.50586-.86963 3.50019 3.50019 0 1 1 .24511 6.99609 55.38168 55.38168 0 0 0-7.54882.77A3.54914 3.54914 0 0 1 302.78464 31.32471zm-41.79589-1.74219a3.5 3.5 0 0 1-2.74512-5.668c.938-1.18848 1.93457-2.35449 2.96338-3.46533.91162-.98389 1.87012-1.94678 2.8501-2.86328a3.50021 3.50021 0 0 1 4.78125 5.11328c-.85889.80273-1.69873 1.646-2.49561 2.50635-.90332.97558-1.77979 2.00048-2.604 3.04492A3.493 3.493 0 0 1 260.98875 29.58252zm95.88671-10.21387a3.48361 3.48361 0 0 1-1.96484-.60595 62.2662 62.2662 0 0 0-6.56348-3.89307 3.49994 3.49994 0 1 1 3.19434-6.22852 69.29459 69.29459 0 0 1 7.30469 4.33252 3.5004 3.5004 0 0 1-1.97071 6.395zm-77.1958-4.88574A3.50074 3.50074 0 0 1 278.104 7.855a68.35942 68.35942 0 0 1 7.82715-3.331 3.50007 3.50007 0 0 1 2.34082 6.59716 61.16147 61.16147 0 0 0-7.02246 2.9878A3.4904 3.4904 0 0 1 279.67966 14.48291zM334.86033 9.623A3.50839 3.50839 0 0 1 334 9.51514c-2.45508-.62061-5.00684-1.13575-7.584-1.53076a3.49988 3.49988 0 0 1 1.06055-6.91895c2.79687.42871 5.56885.98828 8.23926 1.66357a3.50051 3.50051 0 0 1-.85547 6.894zM302.79392 7.65918A3.50023 3.50023 0 0 1 302.36228.686c2.74121-.34424 5.562-.56153 8.38281-.64551a3.50008 3.50008 0 1 1 .208 6.99707c-2.59961.07715-5.19678.27685-7.71875.59375A3.53929 3.53929 0 0 1 302.79392 7.65918zM508.50193 182.55615c-.0376 0-.0752-.00049-.11328-.00195-1.29151-.041-2.65967-.10205-4.09619-.18994a3.50022 3.50022 0 0 1 .42871-6.98731c1.36426.084 2.66308.14209 3.89013.18116a3.49991 3.49991 0 0 1-.10937 6.998z"/><path fill="#3c3b42" d="M228.56188,86.10789h54.8762a21.09983,21.09983,0,0,1,21.09983,21.09983v20.67637a0,0,0,0,1,0,0H207.46205a0,0,0,0,1,0,0V107.20771A21.09983,21.09983,0,0,1,228.56188,86.10789Z"/><path fill="#2c2c2e" d="M304.43723,105.21344c-.04028-.42865-.11133-.84711-.17676-1.26788-.03186-.198-.05371-.39893-.09082-.59485-.1018-.55017-.23242-1.08863-.376-1.6228-.01221-.045-.02246-.09095-.03491-.13587-.16016-.58057-.34607-1.14856-.55347-1.70776V99.884h0a21.08768,21.08768,0,0,0-19.76721-13.77612h-14q.56712,0,1.12693.02964c8.811.46468,8.28024,13.74648-.543,13.74648H208.79465a21.01033,21.01033,0,0,0-1.33252,7.32367v20.67639h97.07581V107.2077C304.53794,106.53412,304.5012,105.86975,304.43723,105.21344Z"/><path fill="#3c3b42" d="M249.56188,58.33169h12.8762A21.09983,21.09983,0,0,1,283.5379,79.43151v6.67637a0,0,0,0,1,0,0H228.46205a0,0,0,0,1,0,0V79.43151A21.09983,21.09983,0,0,1,249.56188,58.33169Z"/><path fill="#2c2c2e" d="M264.18333,58.4198a20.99489,20.99489,0,0,1,5.35461,14.01172h0a6.67638,6.67638,0,0,1-6.67638,6.67638H228.78574l-.32361.32361v6.67639h55.07581V79.43152A21.08987,21.08987,0,0,0,264.18333,58.4198Z"/><path fill="#3c3b42" d="M145.67775,380.343q.28827-.67671.63777-1.39585a241.53771,241.53771,0,0,0,23.12737-127.60526v-.00008s-.77685-27.0712-1.79016-39.62067l-1.76623-12.93552a74.78422,74.78422,0,0,1,74.0967-84.9015h32.11566a74.78392,74.78392,0,0,1,74.09635,84.9015l-1.76629,12.93552c-1.01325,12.54947-1.79016,39.62067-1.79016,39.62067v.00008a241.53771,241.53771,0,0,0,23.12737,127.60526q.34872.71844.63777,1.39585"/><path fill="#2c2c2e" fill-rule="evenodd" d="M365.76611,378.94714q-4.21289-8.67975-7.69384-17.63757l-37.76563-11.26508a24.87419,24.87419,0,0,1-12.43032-8.435,6.98968,6.98968,0,0,1,.83392-9.49585A78.17279,78.17279,0,0,0,334.41388,274.089V240.833L177.59106,238.9314V274.089a78.17268,78.17268,0,0,0,25.70365,58.02461,6.98968,6.98968,0,0,1,.83393,9.49583,24.87416,24.87416,0,0,1-12.43028,8.43506l-37.67883,11.2392q-3.4909,8.96109-7.704,17.66345-.34881.71843-.63782,1.39582h220.7262Q366.11554,379.6663,365.76611,378.94714Z"/><path fill="#2c2c2e" d="M165.88645 198.78558l.97778 7.16132a44.986 44.986 0 0 0 28.84839-77.56043 75.3417 75.3417 0 0 0-15.63525 15.51612 44.86284 44.86284 0 0 1-14.88989 44.37878A75.80955 75.80955 0 0 0 165.88645 198.78558zM365.76609 378.94714a241.5372 241.5372 0 0 1-23.12732-127.60528v-.00006s.777-27.07123 1.79016-39.62067l1.76636-12.93555a74.78393 74.78393 0 0 0-74.09644-84.90149h-14a74.78393 74.78393 0 0 1 74.09644 84.90149l-1.76636 12.93555c-1.01318 12.54944-1.79016 39.62067-1.79016 39.62067v.00006a241.5372 241.5372 0 0 0 23.12732 127.60528q.34881.71843.63782 1.39582h14Q366.11552 379.6663 365.76609 378.94714z"/><path fill="#aa6a51" d="M106.23238,240.77837c12.66259,7.94492,21.37644,24.56217,21.37644,43.7749,0,26.92789-17.11735,48.75725-38.23267,48.75725s-38.23268-21.82936-38.23268-48.75725c0-19.11209,8.62281-35.65582,21.17779-43.64934"/><path fill="#935b44" d="M106.2324,240.77838,92.30784,240.83c12.621,7.96386,21.301,24.5495,21.301,43.72332,0,23.87708-13.46215,43.73182-31.23266,47.92731a30.39838,30.39838,0,0,0,7,.83c21.11523,0,38.23266-21.82941,38.23266-48.75727C127.60886,265.34052,118.895,248.72327,106.2324,240.77838Z"/><path fill="#d1a08f" d="M104.94516,315.22393V263.25172H73.80722v57.53334a44.43657,44.43657,0,0,0,44.43657,44.43657h97.5334V350.08381l-84.04185-6.06625A28.86854,28.86854,0,0,1,104.94516,315.22393Z"/><path fill="#c68d7a" d="M131.73533,344.01758a28.86858,28.86858,0,0,1-26.79016-28.79364V263.25171H73.80723v14H90.94517v51.97223a28.86858,28.86858,0,0,0,26.79016,28.79364l84.04187,6.06622v1.13782h14V350.0838Z"/><path fill="#fd4755" d="M88.76609,296.60547a3.49986,3.49986,0,0,1-3.5-3.5v-8.32715a3.5,3.5,0,0,1,7,0v8.32715A3.49986,3.49986,0,0,1,88.76609,296.60547Z"/><path fill="#bc7c63" d="M93.62349,284.77837H85.1288A16.4786,16.4786,0,0,1,68.916,271.24755l-3.82511-21.03809a8,8,0,0,1,7.871-9.43109h32.8286a8,8,0,0,1,7.871,9.43109l-3.82511,21.03809A16.4786,16.4786,0,0,1,93.62349,284.77837Z"/><path fill="#aa6a51" d="M106.72678,240.833a7.98437,7.98437,0,0,1-.06543,2.37646l-3.825,21.03809a16.47878,16.47878,0,0,1-16.21289,13.53082H78.12888a16.4098,16.4098,0,0,1-7.60571-1.87591,16.471,16.471,0,0,0,14.60571,8.87591h8.49463a16.47878,16.47878,0,0,0,16.21289-13.53082l3.825-21.03809A8.00093,8.00093,0,0,0,106.72678,240.833Z"/><path fill="#d1a08f" d="M96.08152 264.09082a3.5 3.5 0 0 1-2.4751-5.9751l3.62744-3.62744a3.50032 3.50032 0 0 1 4.9502 4.9502l-3.62744 3.62744A3.49134 3.49134 0 0 1 96.08152 264.09082zM82.61619 264.03613a3.49128 3.49128 0 0 1-2.4751-1.0249l-3.57275-3.57275a3.50032 3.50032 0 0 1 4.95019-4.9502l3.57276 3.57276a3.5 3.5 0 0 1-2.4751 5.97509z"/><path fill="#26a6fe" d="M342.63875 251.34186v-.00012s.18415-6.41529.49-14.44765a13.13252 13.13252 0 0 0-13.11929-13.63237h-5.88936v40.23822h5.4249a13.17021 13.17021 0 0 0 13.08256-12.03654zM187.8849 223.26172h-5.81272a13.13253 13.13253 0 0 0-13.11929 13.63234c.30587 8.03237.49 14.44768.49 14.44768v.00012l.01116.12154a13.1702 13.1702 0 0 0 13.08256 12.03654h5.3483z"/><path fill="#8ac9fe" d="M414.9861,501.82129v-62.2717A60,60,0,0,0,372.1367,382.053l-64.56474-19.259a20,20,0,0,1-14.28314-19.16553V317.02624h-74.5727v26.60228A20,20,0,0,1,204.433,362.79405l-64.56475,19.259a60,60,0,0,0-42.8494,57.49658v62.2717a10,10,0,0,0,10,10H404.9861A10,10,0,0,0,414.9861,501.82129Z"/><path fill="#26a6fe" d="M247.188,498.46631a140.961,140.961,0,0,1-10.92822-12.20978,7.03766,7.03766,0,0,0-6.75818-9.25214,134.61,134.61,0,0,1-9.58166-16.89782,6.82936,6.82936,0,0,0,.41846-5.585l-.08936-.24274a6.9205,6.9205,0,0,0-4.62524-4.242,132.84536,132.84536,0,0,1-5.812-19.86573,6.82439,6.82439,0,0,0,1.62427-5.52533c-.0039-.02795-.038-.25036-.04284-.27832a6.88593,6.88593,0,0,0-3.38282-4.86139,141.39408,141.39408,0,0,1-1.11877-19.72253,6.88711,6.88711,0,0,0,3.97388-6.11475l.00292-.1983a6.86589,6.86589,0,0,0-3.31433-5.95929,146.085,146.085,0,0,1,4.03772-22.86768,3.46828,3.46828,0,0,0-.04419-1.88885c-.03881.01184-.07556.02777-.1145.03937l-7.13183,2.12732a154.14978,154.14978,0,0,0-3.74585,22.32855,6.89785,6.89785,0,0,0-3.68262,6.02038l-.00293.19635a6.86414,6.86414,0,0,0,3.02978,5.78388,148.79471,148.79471,0,0,0,1.06348,20.273,6.87219,6.87219,0,0,0-3.35876,7.049l.01745.11078a6.936,6.936,0,0,0,5.51319,5.74158,139.70331,139.70331,0,0,0,5.66467,19.36309,6.85768,6.85768,0,0,0-1.61609,7.27491l.04663.12909a6.965,6.965,0,0,0,6.55408,4.57208c.0393,0,.0791-.00946.11853-.01013a141.51936,141.51936,0,0,0,9.58472,16.85589,6.89713,6.89713,0,0,0,.43579,7.36029l.15185.209A6.86264,6.86264,0,0,0,229.64182,491a6.995,6.995,0,0,0,1.33289-.1441,148.133,148.133,0,0,0,11.27771,12.57525,3.50033,3.50033,0,1,0,4.93554-4.96484Z"/><path fill="#aa6a51" d="M235.25242,503.43115a3.50033,3.50033,0,1,0,4.93554-4.96484,136.19811,136.19811,0,0,1-30.84912-46.55274c-14.46972-36.46045-9.18505-70.32714-4.74707-87.27a3.46828,3.46828,0,0,0-.04419-1.88885c-.03881.01184-.07556.02777-.1145.03937l-7.13183,2.12732c-4.51758,18.36029-9.11341,52.67382,5.53173,89.57422A143.157,143.157,0,0,0,235.25242,503.43115Z"/><path fill="#935b44" d="M222.64185,491a6.86255,6.86255,0,0,1-5.56676-2.82087l-.1518-.209a6.91162,6.91162,0,0,1,1.62206-9.67612A7.01414,7.01414,0,1,1,222.64185,491Z"/><path fill="#87523e" d="M228.27488,479.90717a6.945,6.945,0,0,0-4.17871-2.73676,6.96773,6.96773,0,0,1-1.55493,9.65851,7.04322,7.04322,0,0,1-4.13538,1.347,6.96219,6.96219,0,0,1-1.44788-.1582l.11719.16138A6.86264,6.86264,0,0,0,222.64182,491a7.04357,7.04357,0,0,0,4.1355-1.34705A6.9713,6.9713,0,0,0,228.27488,479.90717Z"/><path fill="#935b44" d="M206.78429,463.764a6.96478,6.96478,0,0,1-6.554-4.57207l-.04663-.12909a6.88756,6.88756,0,0,1,4.12031-8.8696,6.97941,6.97941,0,0,1,8.945,4.08558l.08938.24277a6.89083,6.89083,0,0,1-4.199,8.834A7.01937,7.01937,0,0,1,206.78429,463.764Z"/><path fill="#87523e" d="M212.40149,452.67119a6.94508,6.94508,0,0,0-4.17871-2.73676,6.96772,6.96772,0,0,1-1.55493,9.65851,7.0432,7.0432,0,0,1-4.13537,1.34705,6.962,6.962,0,0,1-1.44788-.15821l.11719.16138a6.86259,6.86259,0,0,0,5.56665,2.82086,7.0436,7.0436,0,0,0,4.1355-1.347A6.97131,6.97131,0,0,0,212.40149,452.67119Z"/><path fill="#935b44" d="M190.6043,426.57253a6.98247,6.98247,0,0,1,13.78887-2.205c.00488.02793.039.25035.04287.27828a6.91288,6.91288,0,0,1-5.87624,7.84467,7.05355,7.05355,0,0,1-1.03963.077,6.95913,6.95913,0,0,1-6.89833-5.88422"/><path fill="#87523e" d="M203.16492,421.47693a6.94508,6.94508,0,0,0-4.17871-2.73676,6.96772,6.96772,0,0,1-1.55493,9.65851,7.04323,7.04323,0,0,1-4.13538,1.347,6.962,6.962,0,0,1-1.44787-.15821l.11719.16138a6.86259,6.86259,0,0,0,5.56665,2.82086,7.04355,7.04355,0,0,0,4.13549-1.347A6.97131,6.97131,0,0,0,203.16492,421.47693Z"/><path fill="#935b44" d="M196.86964,400.46791c-.03515,0-.06932,0-.10447-.001a6.9459,6.9459,0,0,1-6.89525-7.00026l.00293-.19637a6.86952,6.86952,0,0,1,7.09931-6.79908,6.94534,6.94534,0,0,1,6.89623,6.9993l-.00293.1983A6.951,6.951,0,0,1,196.86964,400.46791Z"/><path fill="#87523e" d="M202.49774,389.37507a6.945,6.945,0,0,0-4.17871-2.73675,6.96771,6.96771,0,0,1-1.55493,9.6585,7.04323,7.04323,0,0,1-4.13538,1.347,6.96279,6.96279,0,0,1-1.44788-.1582l.11719.16137a6.86263,6.86263,0,0,0,5.56665,2.82087,7.04359,7.04359,0,0,0,4.1355-1.34705A6.97131,6.97131,0,0,0,202.49774,389.37507Z"/><path fill="#26a6fe" d="M306.61419,375.236c-28.167,26.42273-72.89869,26.42267-101.065,0-3.78506-3.40735-3.9137-10.14844-.76317-14.65564.03654-.054.07371-.10791.11068-.16165,2.96382-4.24912,7.42361-5.3024,10.51368-2.48419a59.30668,59.30668,0,0,0,81.34264,0c3.08975-2.81793,7.55-1.7649,10.51368,2.48422q.05481.08079.11068.16162C310.52778,365.08741,310.39935,371.82893,306.61419,375.236Z"/><path fill="#26a6fe" d="M382.053,386.01a60.06066,60.06066,0,0,0-9.91626-3.957l-60.86719-18.156c-2.14038,10.29255-4.90845,21.43586-8.53858,33.24262a368.051,368.051,0,0,1-17.48681,45.749A369.17161,369.17161,0,0,1,243.701,511.82129H379.55186A217.42352,217.42352,0,0,0,382.053,386.01Z"/><path fill="#fee903" d="M365.55186,511.82129a217.74715,217.74715,0,0,0,10.0802-52.09937,219.43614,219.43614,0,0,0-9.22815-79.379L307.572,362.794a19.94341,19.94341,0,0,1-8.96424-5.6037,368.50248,368.50248,0,0,1-9.87683,39.94934,368.051,368.051,0,0,1-17.48681,45.749A369.17161,369.17161,0,0,1,229.701,511.82129Z"/><path fill="#fac600" d="M290.78322,390.7335c.58081,2.9481,4.20094,19.28052,20.179,26.44474a34.48341,34.48341,0,0,0,19.19539,2.56887,4.8896,4.8896,0,0,0,2.37171-8.66865c-8.84559-6.91528-13.14475-13.9409-15.41545-19.62868-4.74745-11.8918-3.07182-24.05881-9.73135-26.38769-2.34488-.82-8.68338-1.4556-12.31912,1.93644-.00012.00008-.06674.06232-.13738.13136C291.91782,370.07258,288.69334,380.12646,290.78322,390.7335Z"/><path fill="#fac600" d="M366.40391,380.343,307.572,362.794a19.94341,19.94341,0,0,1-8.96424-5.6037c-.80407,4.26068-1.725,8.69909-2.76525,13.28094l0,0c40.7587,12.15791,68.26857,50.54735,65.9873,93.01949q-.08626,1.60617-.1978,3.23116a217.29367,217.29367,0,0,1-7.94849,45.09937h11.86829a217.74715,217.74715,0,0,0,10.0802-52.09937A219.43614,219.43614,0,0,0,366.40391,380.343Z"/><path fill="#d1a08f" d="M290.041,383.49233c.10032,2.598,1.00014,17.045,13.69514,25.31576a29.83754,29.83754,0,0,0,16.06257,4.77507,4.23082,4.23082,0,0,0,3.19207-7.09106c-6.63178-7.09958-9.36257-13.68259-10.53924-18.84948-2.46011-10.80273.60705-20.97764-4.77243-23.86314-1.89416-1.016-7.22674-2.411-10.79027-.00009-.00012.00005-.06543.0443-.13508.09382C293.78705,365.98434,289.67991,374.14488,290.041,383.49233Z"/><path fill="#c68d7a" d="M322.99082,406.49213c-6.63171-7.09961-9.36255-13.68262-10.53918-18.84949-2.46021-10.80274.60693-20.97766-4.77246-23.86316-1.89417-1.016-7.22681-2.411-10.79029-.00012-.00012.00006-.06543.04431-.135.09387a14.82967,14.82967,0,0,0-4.04724,5.77057,13.4547,13.4547,0,0,1,7.97254,1.13568c5.37939,2.8855,2.31225,13.06042,4.77246,23.86316,1.16491,5.11554,3.85937,11.61993,10.34863,18.63879a32.2773,32.2773,0,0,0,3.99853.30176A4.23081,4.23081,0,0,0,322.99082,406.49213Z"/><path fill="#935b44" d="M159.914 489.08984h-.1001a3.5 3.5 0 0 1 0-7h.1001a3.5 3.5 0 0 1 0 7zm-16.1001 0h-.1001a3.5 3.5 0 0 1 0-7h.1001a3.5 3.5 0 0 1 0 7zm-16.1001 0h-.09961a3.5 3.5 0 0 1 0-7 3.54272 3.54272 0 0 1 3.54981 3.5A3.4577 3.4577 0 0 1 127.71384 489.08984zm-16.09961 0h-.10009a3.5 3.5 0 0 1 0-7h.10009a3.5 3.5 0 1 1 0 7zM401.61532 489.08984h-.1001a3.5 3.5 0 0 1 0-7h.1001a3.5 3.5 0 0 1 0 7zm-16.1001 0h-.1001a3.5 3.5 0 0 1 0-7h.1001a3.5 3.5 0 0 1 0 7z"/><path fill="#26a6fe" d="M159.9116,512a3.49945,3.49945,0,0,1-3.5-3.49512l-.04-28.95019a3.49987,3.49987,0,0,1,3.49512-3.50489h.00488a3.49945,3.49945,0,0,1,3.5,3.49512l.04,28.9502A3.49987,3.49987,0,0,1,159.91648,512Z"/><path fill="#26a6fe" fill-rule="evenodd" d="M218.71616,317.02625V337.973a67.82856,67.82856,0,0,0,44.28626,16.38391h.00012a67.80382,67.80382,0,0,0,30.59534-7.26184,20.01019,20.01019,0,0,1-.30909-3.46649V317.02625Z"/><path fill="#8ac9fe" fill-rule="evenodd" d="M256.00254,340.35688h-.00014a68.11751,68.11751,0,0,1-68.11751-68.11751V216.26175a34.91051,34.91051,0,0,1,14.6192-28.40787l0,0a44.07891,44.07891,0,0,1,39.55933-5.94845l0,0a44.07893,44.07893,0,0,0,27.878,0l0,0a44.079,44.079,0,0,1,39.55933,5.94844l0,0a34.91054,34.91054,0,0,1,14.6192,28.40787v55.97762A68.11751,68.11751,0,0,1,256.00254,340.35688Z"/><path fill="#26a6fe" fill-rule="evenodd" d="M309.501,187.85388h-.00012a44.03016,44.03016,0,0,0-13.23413-6.41748,34.89926,34.89926,0,0,1,13.85339,27.82532v55.97766a68.11756,68.11756,0,0,1-68.11755,68.11749h-.00012a67.98222,67.98222,0,0,1-23.17554-4.05023,67.77735,67.77735,0,0,0,37.17554,11.05023h.00012a68.11756,68.11756,0,0,0,68.11755-68.11749V216.26172A34.91056,34.91056,0,0,0,309.501,187.85388Z"/><path fill="#26a6fe" d="M293.062 259.26953c-.17578 0-.352-.00195-.53028-.00635a22.79722 22.79722 0 0 1-12.06738-3.80371 3.49979 3.49979 0 0 1 3.86914-5.833 15.81 15.81 0 0 0 8.3628 2.63868 16.06648 16.06648 0 0 0 9.10839-2.63965 3.50007 3.50007 0 1 1 3.86719 5.835A23.11 23.11 0 0 1 293.062 259.26953zM218.92918 259.26953c-.17579 0-.352-.00195-.53028-.00635a22.79259 22.79259 0 0 1-12.06738-3.80371 3.50007 3.50007 0 1 1 3.87012-5.833 15.79719 15.79719 0 0 0 8.36181 2.63868 16.05008 16.05008 0 0 0 9.10889-2.63965 3.50007 3.50007 0 0 1 3.86719 5.835A23.11052 23.11052 0 0 1 218.92918 259.26953zM255.99314 313.95508c-.21582 0-.43262-.00244-.65185-.00781a28.06953 28.06953 0 0 1-14.85938-4.68457 3.50007 3.50007 0 1 1 3.87012-5.833 21.01405 21.01405 0 0 0 23.30273-.001 3.50007 3.50007 0 1 1 3.86719 5.835A28.457 28.457 0 0 1 255.99314 313.95508z"/><path fill="#fff" d="M274.65,219.59681a186.27366,186.27366,0,0,1-37.29956,0,6.10586,6.10586,0,0,1-5.70947-6.71735h0a6.27531,6.27531,0,0,1,6.91089-5.22235,174.27206,174.27206,0,0,0,34.89673,0,6.27552,6.27552,0,0,1,6.91089,5.22235h0A6.10506,6.10506,0,0,1,274.65,219.59681Z"/><path fill="#fff" d="M282.79169,230.71436a198.27416,198.27416,0,0,1-53.583,0c-3.849-.52325-6.48059-3.7207-5.895-6.98032h0c.58594-3.26376,3.94189-5.39462,7.5166-4.90963a186.27192,186.27192,0,0,0,50.33985,0c3.5736-.48484,6.93176,1.646,7.5166,4.90963h0C289.27045,226.99357,286.64105,230.19114,282.79169,230.71436Z"/><path fill="#d1a08f" d="M306.61419,365.52865c-28.167,26.42273-72.89869,26.42267-101.065,0-3.78506-3.40735-3.9137-10.14843-.76317-14.65564.03654-.054.07371-.10791.11068-.16165,2.96382-4.24911,7.42361-5.3024,10.51368-2.48419a59.30668,59.30668,0,0,0,81.34264,0c3.08975-2.81793,7.55-1.76489,10.51368,2.48422q.05481.0808.11068.16162C310.52778,355.38,310.39935,362.12155,306.61419,365.52865Z"/><path fill="#c68d7a" d="M307.37742,350.873q-.05584-.08076-.11072-.16163a9.026,9.026,0,0,0-5.408-3.9273c1.46765,4.14648.78821,9.01483-2.24451,11.74457-26.54736,24.90344-67.80346,26.32489-96.04248,4.2854a8.48289,8.48289,0,0,0,1.97742,2.7146c28.16638,26.42266,72.89807,26.42272,101.06506,0C310.39939,362.12152,310.52781,355.38,307.37742,350.873Z"/><path fill="#f3f0f3" d="M150.7239,108.999c-1.32839,0-2.64.06929-3.93928.182a44.98954,44.98954,0,0,1-20.63691,82.509A44.99839,44.99839,0,1,0,150.7239,108.999Z"/><path fill="#e2dee2" d="M163.53916,110.86121a44.99752,44.99752,0,0,1-34.51526,80.4743c-.95044.14453-1.9071.27045-2.87622.35455a44.99856,44.99856,0,1,0,37.39148-80.82885Z"/><ellipse cx="256" cy="219" fill="#d1a08f" rx="8.096" ry="19.931"/><path fill="#c68d7a" d="M256,199.0686a19.38078,19.38078,0,0,0-3.5,3.93061,30.14933,30.14933,0,0,1,0,32.00158,19.38078,19.38078,0,0,0,3.5,3.93061c4.85278-4.0802,8.09631-11.47962,8.09631-19.9314S260.85276,203.1488,256,199.0686Z"/><circle cx="345.5" cy="424.5" r="7.5" fill="#fe9738"/><circle cx="303.738" cy="440.345" r="7.5" fill="#fe9738"/><circle cx="347" cy="469.5" r="7.5" fill="#fe9738"/><circle cx="281" cy="483" r="7.5" fill="#fe9738"/><circle cx="317" cy="501" r="7.5" fill="#fe9738"/><path fill="#26a6fe" d="M202.19187,511.82129q-.17065,0-.34424-.01709c-20.52881-2.00195-37.85009-13.83789-45.2041-30.88867-10.39844-24.1128,4.05274-47.6416,5.73486-50.24512a3.50015,3.50015,0,0,1,5.87989,3.79883c-1.47461,2.28222-14.147,22.897-5.187,43.67431,6.34472,14.71045,21.46337,24.939,39.45605,26.69385a3.50023,3.50023,0,0,1-.33545,6.98389Z"/><circle cx="185.846" cy="479.55" r="3.5" fill="#26a6fe"/></svg>