<svg xmlns="http://www.w3.org/2000/svg" data-name="Layer 1" viewBox="0 0 512 512"><path fill="#fed2a4" d="M322.93277,228.98473c9.37393-11.07623,26.08457-13.44472,30.15447-14.02157,20.25822-2.87131,28.98069,7.26606,44.31512,3.38854,6.519-1.64843,14.75941-5.96292,23.02753-17.45106a6.26174,6.26174,0,0,1,10.57622.63733c10.67319,19.559,10.87447,33.802,8.45185,43.75715-6.24734,25.672-32.45232,33.13788-33.81578,55.553-.69417,11.41205,5.35407,21.71207,12.6146,29.96535a6.25174,6.25174,0,0,1-4.08047,10.35887c-15.507,1.53148-41.40631.80767-63.549-16.10873C318.518,300.53306,305.02961,250.13908,322.93277,228.98473Z"/><path fill="#ffbd86" d="M439.458,245.2951c2.42261-9.95507,2.22119-24.198-8.45191-43.75714a6.2617,6.2617,0,0,0-10.57617-.63733c-.74243,1.0315-1.48413,1.98566-2.22485,2.90479,9.48047,18.39612,9.58081,31.92395,7.25293,41.48968-6.24732,25.67206-32.45239,33.13788-33.81592,55.553-.69409,11.41205,5.35425,21.7121,12.61475,29.96534a6.25177,6.25177,0,0,1-4.08057,10.35888c-1.19824.11835-2.46533.22083-3.78125.30579a108.74207,108.74207,0,0,0,17.78125-.30579,6.25177,6.25177,0,0,0,4.08057-10.35888c-7.2605-8.25324-13.30884-18.55329-12.61475-29.96534C407.00562,278.433,433.21069,270.96716,439.458,245.2951Z"/><path fill="#ffbd86" d="M385.92518,317.90213a57.51984,57.51984,0,0,1-22.00764-10.23494c-14.09079-10.76483-24.85817-29.99066-26.794-47.84059-.97376-8.97714.74877-14.60644,2.52018-16.699.93609-1.10611,4.89222-4.84184,16.51476-6.48853a29.19985,29.19985,0,0,1,4.1348-.30338c3.89047,0,7.26835.86127,11.54466,1.95211a72.21252,72.21252,0,0,0,18.4577,2.85206,50.24258,50.24258,0,0,0,12.47312-1.56372,54.43344,54.43344,0,0,0,15.97622-6.93952,24.25632,24.25632,0,0,1-.5584,7.48214c-1.58561,6.517-5.893,11.28251-12.78973,18.51879-8.61879,9.04331-20.423,21.42837-21.60653,40.88122A53.01251,53.01251,0,0,0,385.92518,317.90213Z"/><path fill="#fed2a4" d="M189.06723,228.98473c-9.37393-11.07623-26.08457-13.44472-30.15447-14.02157-20.25822-2.87131-28.98069,7.26606-44.31512,3.38854-6.519-1.64843-14.75941-5.96292-23.02753-17.45106a6.26174,6.26174,0,0,0-10.57622.63733C70.3207,221.097,70.11942,235.34,72.542,245.29512c6.24734,25.672,32.45232,33.13788,33.81578,55.553.69417,11.41205-5.35407,21.71207-12.6146,29.96535a6.25174,6.25174,0,0,0,4.08047,10.35887c15.507,1.53148,41.40631.80767,63.549-16.10873C193.482,300.53306,206.97039,250.13908,189.06723,228.98473Z"/><path fill="#ffbd86" d="M126.07482,317.90213a53.01251,53.01251,0,0,0,2.13485-18.38339c-1.18348-19.45285-12.98774-31.83791-21.60653-40.88122-6.89676-7.23628-11.20412-12.00176-12.79024-18.5193a24.25339,24.25339,0,0,1-.55789-7.48163,54.413,54.413,0,0,0,15.9752,6.939,50.20332,50.20332,0,0,0,12.47566,1.56423,72.2131,72.2131,0,0,0,18.45466-2.85206c4.27732-1.09084,7.6552-1.95211,11.54618-1.95211a29.248,29.248,0,0,1,4.13378.30287c11.62356,1.6472,15.57969,5.38293,16.51527,6.48853,1.77192,2.0931,3.49445,7.7224,2.52069,16.69954-1.93582,17.84993-12.7032,37.07576-26.794,47.84059A57.51984,57.51984,0,0,1,126.07482,317.90213Z"/><ellipse cx="201.372" cy="40.34" fill="#fee903" rx="12.475" ry="19.727" transform="rotate(-30 201.372 40.34)"/><ellipse cx="161.381" cy="80.331" fill="#fee903" rx="12.475" ry="19.727" transform="rotate(-60 161.38 80.33)"/><ellipse cx="146.743" cy="134.96" fill="#fee903" rx="19.727" ry="12.475"/><ellipse cx="161.381" cy="189.588" fill="#fee903" rx="19.727" ry="12.475" transform="rotate(-30 161.38 189.588)"/><path fill="#fac600" d="M178.46533 179.72418a21.81357 21.81357 0 0 0-32.24707 8.88629 120.77025 120.77025 0 0 0 8.03662 14.56452 21.82749 21.82749 0 0 0 24.21045-23.45081zM135.14478 144.0921a21.82292 21.82292 0 0 0 31.32592-9.13257 21.81076 21.81076 0 0 0-30.90429-9.38415q-.58668 5.93994-.595 12.03772Q134.97144 140.87375 135.14478 144.0921zM167.61841 69.52753a21.7118 21.7118 0 0 0-9.65943-2.87921 120.99609 120.99609 0 0 0-10.39465 17.16949 21.82128 21.82128 0 0 0 30.901 6.37708A21.83125 21.83125 0 0 0 167.61841 69.52753zM190.56787 46.57788a21.83151 21.83151 0 0 0 20.66748 10.847 21.82682 21.82682 0 0 0-5.16919-30.09015 120.8306 120.8306 0 0 0-18.33471 10.33569A21.74563 21.74563 0 0 0 190.56787 46.57788z"/><ellipse cx="350.619" cy="189.588" fill="#fee903" rx="12.475" ry="19.727" transform="rotate(-60 350.62 189.588)"/><ellipse cx="365.257" cy="134.959" fill="#fee903" rx="19.727" ry="12.475"/><ellipse cx="350.619" cy="80.331" fill="#fee903" rx="19.727" ry="12.475" transform="rotate(-30 350.62 80.331)"/><ellipse cx="310.628" cy="40.34" fill="#fee903" rx="19.727" ry="12.475" transform="rotate(-60 310.628 40.34)"/><path fill="#fee903" d="M256,24.5A113.11313,113.11313,0,1,0,369.11316,137.6131,113.1131,113.1131,0,0,0,256,24.5Zm0,191.22607a78.113,78.113,0,1,1,78.11328-78.11279A78.20137,78.20137,0,0,1,256,215.72607Z"/><path fill="#fee903" d="M256,24.5A113.11313,113.11313,0,1,0,369.11316,137.6131,113.1131,113.1131,0,0,0,256,24.5Zm0,191.22607a78.113,78.113,0,1,1,78.11328-78.11279A78.20137,78.20137,0,0,1,256,215.72607Z"/><path fill="#fac600" d="M224.40161 28.97913a27.12272 27.12272 0 0 0 2.24683 20.29333l2.81128 5.18689h39.08056l2.81128-5.18689A27.12215 27.12215 0 0 0 272.438 25.69305a113.74456 113.74456 0 0 0-48.03638 3.28608zM249 59.82965c-2.30786-.206-4.6394-.32965-7-.32965a78.113 78.113 0 1 0 0 156.22607c2.3606 0 4.69214-.12359 7-.32965a78.0962 78.0962 0 0 1 0-155.56677z"/><path fill="#fac600" d="M256,24.5c-2.35156,0-4.68408.08051-7,.22192a113.10767,113.10767,0,0,1,0,225.78241c2.31592.14142,4.64844.22193,7,.22193A113.11313,113.11313,0,1,0,256,24.5Z"/><path fill="#fed2a4" d="M421.98363,502V414.80372a60,60,0,0,0-38.1582-55.88323l-77.81968-30.4156a20,20,0,0,1-12.7194-18.62775v-27.8509h-74.5727v27.8509a20,20,0,0,1-12.7194,18.62775l-77.81968,30.4156a60,60,0,0,0-38.1582,55.88323V502a10,10,0,0,0,10,10H411.98363A10,10,0,0,0,421.98363,502Z"/><path fill="#ffae71" d="M201.89111 511.82129q-.16992 0-.34375-.01709c-20.52881-2.00195-37.84961-13.83789-45.20361-30.88867-7.2915-16.90674-2.18848-33.66846 1.50244-42.15576a3.49993 3.49993 0 1 1 6.41895 2.792c-3.95655 9.09863-7.42774 22.83252-1.49366 36.59131 6.34473 14.71093 21.4629 24.93945 39.45557 26.69433a3.50023 3.50023 0 0 1-.33594 6.98389zM310.1084 511.82129a3.50023 3.50023 0 0 1-.33594-6.98389c17.99316-1.75439 33.11133-11.9834 39.45606-26.69433 5.93359-13.75782 2.46289-27.49219-1.49414-36.5918a3.50018 3.50018 0 0 1 6.41992-2.791c3.69043 8.48731 8.793 25.25 1.502 42.15528-7.35352 17.05078-24.6748 28.88672-45.2041 30.88867C310.33691 511.81543 310.22168 511.82129 310.1084 511.82129z"/><circle cx="178.249" cy="480.954" r="3.5" fill="#ffae71"/><circle cx="332.249" cy="480.954" r="3.5" fill="#ffae71"/><path fill="#ffbd86" d="M383.82544,358.92047l-77.81958-30.41559a19.99991,19.99991,0,0,1-12.71948-18.62774V282.02625h-14v27.85089a19.99991,19.99991,0,0,0,12.71948,18.62774l77.81958,30.41559a59.99983,59.99983,0,0,1,38.1582,55.88324V502a10.0001,10.0001,0,0,1-10,10h14a10.0001,10.0001,0,0,0,10-10V414.80371A59.99983,59.99983,0,0,0,383.82544,358.92047Z"/><path fill="#fee903" d="M156.80609,500c-5.56836,0-5.56836,4-11.13672,4s-5.56836-4-11.13672-4c-5.56454,0-5.56454,4-11.12908,4-5.5663,0-5.5663-4-11.1326-4-5.56437,0-5.56437,4-11.12874,4-5.56293,0-5.56293-4-11.12586-4V472c5.56293,0,5.56293,4,11.12586,4,5.56437,0,5.56437-4,11.12874-4,5.5663,0,5.5663,4,11.1326,4,5.56454,0,5.56454-4,11.12908-4,5.56836,0,5.56836,4,11.13672,4s5.56836-4,11.13672-4Z"/><path fill="#ffae71" d="M156.80615,512a3.49986,3.49986,0,0,1-3.5-3.5V470.44531a3.5,3.5,0,1,1,7,0V508.5A3.49985,3.49985,0,0,1,156.80615,512Z"/><path fill="#fee903" d="M421.98363,500c-5.56836,0-5.56836,4-11.13672,4s-5.56837-4-11.13673-4c-5.56453,0-5.56453,4-11.12907,4-5.5663,0-5.5663-4-11.13261-4-5.56436,0-5.56436,4-11.12873,4-5.56293,0-5.56293-4-11.12586-4V472c5.56293,0,5.56293,4,11.12586,4,5.56437,0,5.56437-4,11.12873-4,5.56631,0,5.56631,4,11.13261,4,5.56454,0,5.56454-4,11.12907-4,5.56836,0,5.56836,4,11.13673,4s5.56836-4,11.13672-4Z"/><path fill="#ffae71" d="M355.18262,512a3.50017,3.50017,0,0,1-3.5-3.5V470.44531a3.5,3.5,0,0,1,7,0V508.5A3.50017,3.50017,0,0,1,355.18262,512Z"/><path fill="#fac600" d="M407.98364,475.53973V502a10.0417,10.0417,0,0,1-.12353,1.49377A8.25192,8.25192,0,0,0,410.84692,504c5.56836,0,5.56836-4,11.13672-4V472c-5.56836,0-5.56836,4-11.13672,4A8.342,8.342,0,0,1,407.98364,475.53973Z"/><path fill="#efedef" d="M280.76172,512h8.93994a224.38788,224.38788,0,0,0,35.06592-65.02441,227.86712,227.86712,0,0,0,9.39892-107.46418l-6.99682-2.73468a3.46444,3.46444,0,0,0-.20874,1.82483,220.90842,220.90842,0,0,1-8.81836,106.11133A217.67017,217.67017,0,0,1,280.76172,512Z"/><path fill="#fee903" d="M170.76636,355.98389a78.9759,78.9759,0,0,0,19.856,34.40185,22.03347,22.03347,0,0,1,6.34229,15.4624v8.45166a52.38892,52.38892,0,1,0,104.77783,0v-.666a22.21675,22.21675,0,0,1,10.77881-18.9419,70.48715,70.48715,0,0,0,21.78613-20.91748c1.75367-2.623,5.83374-8.74041,8.72-27.86621l.39014-2.78106-20.239-7.9104-.26734,2.82916c-2.05346,16.574-4.92407,22.35589-6.06176,24.05762a49.62824,49.62824,0,0,1-15.35108,14.71435,43.07838,43.07838,0,0,0-20.75586,36.81592v.666a31.38892,31.38892,0,1,1-62.77783,0v-8.45166a42.92116,42.92116,0,0,0-12.31836-30.13525,57.14509,57.14509,0,0,1-14.60645-25.20654c-.38891-1.43976-.92846-6.15515-1.33813-15.63355l-20.55115,8.03235A79.914,79.914,0,0,0,170.76636,355.98389Z"/><path fill="#fac600" d="M322.91113 338.0459c-.10351.83435-.20923 1.634-.3164 2.41455l20.05273 7.83758c.12842-.77587.25562-1.56646.37988-2.38983l.39014-2.78106-9.23242-3.60846-11.00659-4.30194zM184.03979 343.50635a57.14509 57.14509 0 0 0 14.60645 25.20654 42.92116 42.92116 0 0 1 12.31836 30.13525v8.45166a31.36206 31.36206 0 0 0 12.98486 25.40461 31.21213 31.21213 0 0 1-5.98486-18.40461v-8.45166a42.92116 42.92116 0 0 0-12.31836-30.13525 57.14509 57.14509 0 0 1-14.60645-25.20654c-.38891-1.43976-.92846-6.15515-1.33813-15.63355l-6.4364 2.51563A43.13639 43.13639 0 0 0 184.03979 343.50635z"/><path fill="#fac600" d="M335.83154,340.16223c-2.87207,18.13556-6.80957,24.04773-8.52417,26.61218a70.48715,70.48715,0,0,1-21.78613,20.91748,22.21675,22.21675,0,0,0-10.77881,18.9419v.666A52.36119,52.36119,0,0,1,208.99194,447.662a52.36768,52.36768,0,0,0,92.75049-33.36219v-.666a22.21675,22.21675,0,0,1,10.77881-18.9419,70.48715,70.48715,0,0,0,21.78613-20.91748c1.75367-2.623,5.83374-8.74041,8.72-27.86621l.39014-2.78106Z"/><path fill="#f4ba00" d="M335.83154,340.16223c-.28979,1.8302-.59082,3.53009-.89892,5.12042l7.71484,3.01538c.12842-.77587.25562-1.56646.37988-2.38983l.39014-2.78106Z"/><path fill="#fac600" d="M315.90625,187.67285a78.08314,78.08314,0,0,1-137.1676-61.54895,67.90712,67.90712,0,0,0-12.32044,48.264l4.8053,38.09869A113.65107,113.65107,0,0,0,197.59961,234.5H310Z"/><path fill="#fee903" d="M324,234.5H188l-7.5817-60.11207a67.9738,67.9738,0,0,1,40.75536-71.023L256,88.5l34.82634,14.8649a67.9738,67.9738,0,0,1,40.75536,71.023Z"/><path fill="#ffbd86" d="M234.3664,283.6347a115.70918,115.70918,0,0,0-7.34243,71.21683c3.9722,18.02326,12.27931,39.03424,30.25879,47.16195,23.53253,10.638,39.905-7.06284,60.04986.60049,15.77143,5.99964,25.12451,21.46476,30.83014,35.86786a2.995,2.995,0,0,0,5.49536.15485q2.57177-5.48464,5.14353-10.96927a7.00005,7.00005,0,0,1,7.54962-3.92249q6.5911,1.15851,13.18216,2.317a2.99551,2.99551,0,0,0,3.50467-3.2655,66.9863,66.9863,0,0,0-6.79788-23.00244c-9.23732-18.18951-26.90352-30.951-46.47651-35.96737-23.77736-6.0939-55.61517,5.72931-55.5088-30.83591.04275-14.698,3.88538-29.92815,8.24879-43.871Z"/><path fill="#fac600" d="M334.30737,373.77441a34.08055,34.08055,0,0,0,3.76-7.29016,77.13254,77.13254,0,0,0-8.30371-2.65765A73.90174,73.90174,0,0,0,316.96,361.93335q-.05786.09109-.11059.17017a49.62824,49.62824,0,0,1-15.35108,14.71435,43.25327,43.25327,0,0,0-19.83008,27.98c8.386-1.3482,16.229-4.11957,24.37354-4.16711a23.10645,23.10645,0,0,1,6.47949-5.93885A70.48715,70.48715,0,0,0,334.30737,373.77441Z"/><path fill="#f4ba00" d="M338.06738,366.48419a77.13221,77.13221,0,0,0-8.30371-2.65759c-.1958-.05023-.39868-.08478-.5957-.13257a32.48892,32.48892,0,0,1-1.8606,3.08038,70.48715,70.48715,0,0,1-21.78613,20.91748,22.4222,22.4222,0,0,0-10.262,14.259,55.15406,55.15406,0,0,1,10.78247-1.32013l.00024-.00037c.404-.5473.83814-1.07483,1.29395-1.58716.063-.071.12744-.14032.1914-.21057.45142-.49481.91993-.97668,1.41822-1.43463l.012-.01166c.48975-.44928,1.00684-.87469,1.54-1.2854.11719-.09033.23559-.17877.35473-.26715.53833-.39868,1.08985-.78473,1.66895-1.14191a70.48715,70.48715,0,0,0,21.78613-20.91748,34.07305,34.07305,0,0,0,3.75733-7.28363Z"/><path fill="#ffbd86" d="M239.39592,265.39165a115.70908,115.70908,0,0,0-7.34243,71.21684c3.97219,18.02326,12.27931,39.03424,30.25878,47.16195,23.53253,10.638,39.905-7.06284,60.04986.60049,15.77143,5.99964,25.12451,21.46475,30.83014,35.86786a2.995,2.995,0,0,0,5.49536.15485q2.57176-5.48466,5.14353-10.96927a7,7,0,0,1,7.54962-3.92249q6.59111,1.15851,13.18216,2.317a2.99551,2.99551,0,0,0,3.50467-3.2655,66.98624,66.98624,0,0,0-6.79788-23.00244c-9.23732-18.18951-26.90352-30.951-46.47651-35.96738-23.77736-6.0939-55.61517,5.72931-55.5088-30.8359.04275-14.698,3.88538-29.92815,8.24879-43.871Z"/><path fill="#fac600" d="M290.82642,103.36493,256,88.5l-7,2.98779,27.82642,11.87714a67.974,67.974,0,0,1,40.75537,71.023L310,234.5h14l7.58179-60.11206A67.974,67.974,0,0,0,290.82642,103.36493Z"/><path fill="#ffbd86" fill-rule="evenodd" d="M189.06714,228.98474a36.03673,36.03673,0,0,0-12.906-9.29278,40.16293,40.16293,0,0,0-2.27881,13.29681c-.00012,6.59668-.00036,9.76062-.00073,27.29248a65.63867,65.63867,0,0,0,11.2207,36.81732C198.76587,272.61761,201.53369,243.71515,189.06714,228.98474Z"/><path fill="#fed2a4" fill-rule="evenodd" d="M256.00067,326.35688h-1.70358a66.14747,66.14747,0,0,1-66.41549-66.0756c.00039-17.53191.00059-20.69581.0007-27.29249a40.21034,40.21034,0,0,1,16.83557-32.71794l.49285-.352a48.27531,48.27531,0,0,1,34.50194-8.56027L256,193.55175l16.28734-2.19321a48.27426,48.27426,0,0,1,34.50159,8.56l.49291.35208a40.20931,40.20931,0,0,1,16.83586,32.71713c.00011,5.86606.0003,8.56361.00065,25.2461A68.121,68.121,0,0,1,256.00067,326.35688Z"/><path fill="#ffbd86" fill-rule="evenodd" d="M187.88232,246.98877a40.21071,40.21071,0,0,1,16.83545-32.7179l.49292-.352a48.27545,48.27545,0,0,1,34.502-8.5603L256,207.55176l16.28735-2.19324a48.275,48.275,0,0,1,34.50171,8.56006q.24609.176.49268.35205a40.20917,40.20917,0,0,1,16.83594,32.71716c0,3.61719,0,6.03394.00024,11.26367l.00049-.01757c-.00049-16.6825-.00073-19.38013-.00073-25.2461a40.20917,40.20917,0,0,0-16.83594-32.71716q-.24647-.17615-.49268-.35205a48.275,48.275,0,0,0-34.50171-8.56006L256,193.55176l-16.28735-2.19324a48.27545,48.27545,0,0,0-34.502,8.5603l-.49292.352a40.21071,40.21071,0,0,0-16.83545,32.7179c0,6.59668-.00048,9.76062-.00073,27.29248l.00025.01282C187.88208,254.08862,187.88232,251.25366,187.88232,246.98877Z"/><path fill="#ffbd86" fill-rule="evenodd" d="M324.11768,232.98779a40.209,40.209,0,0,0-16.83594-32.71716l-.49268-.35205a48.25588,48.25588,0,0,0-13.72754-6.8053l.22022.15735a40.209,40.209,0,0,1,16.83594,32.71716c0,5.866.00024,8.5636.00073,25.2461a68.1211,68.1211,0,0,1-68.11768,68.123h-1.70361a66.8364,66.8364,0,0,1-22.62769-3.91876,66.408,66.408,0,0,0,36.62769,10.91876h1.70361a68.1211,68.1211,0,0,0,68.11768-68.123C324.11792,241.55139,324.11768,238.85382,324.11768,232.98779Z"/><path fill="#fac600" d="M271.439,54.45935H226.561a14.51567,14.51567,0,0,0-14.51563,14.51581v.00006A14.491,14.491,0,0,0,212.554,72.732a77.92068,77.92068,0,0,1,72.90991-7.44409A14.50839,14.50839,0,0,0,271.439,54.45935Z"/><path fill="#fee903" d="M233.5611,54.45933H278.4389a14.51583,14.51583,0,0,1,14.51583,14.51583v0A14.51584,14.51584,0,0,1,278.4389,83.491H233.5611A14.51583,14.51583,0,0,1,219.04526,68.9752v0A14.51584,14.51584,0,0,1,233.5611,54.45933Z"/><path fill="#fac600" d="M278.439,54.45935h-1.59863a14.42666,14.42666,0,0,1,2.11426,7.51581v.00006A14.51567,14.51567,0,0,1,264.439,76.491H221.15967a14.49288,14.49288,0,0,0,12.40137,7H278.439a14.51567,14.51567,0,0,0,14.51563-14.51581v-.00006A14.51567,14.51567,0,0,0,278.439,54.45935Z"/><path fill="#fee903" d="M224.884,83.491H287.116A14.51583,14.51583,0,0,1,301.6318,98.00687v0A14.51584,14.51584,0,0,1,287.116,112.52273H224.884A14.51583,14.51583,0,0,1,210.3682,98.0069v0A14.51583,14.51583,0,0,1,224.884,83.491Z"/><path fill="#fac600" d="M287.116,83.491h-1.59864a14.42683,14.42683,0,0,1,2.11451,7.51581v.00006A14.51589,14.51589,0,0,1,273.116,105.52271h-60.6333a14.49256,14.49256,0,0,0,12.40136,7H287.116A14.51589,14.51589,0,0,0,301.63184,98.0069v-.00006A14.51588,14.51588,0,0,0,287.116,83.491Z"/><path fill="#fee903" d="M275.54031,54.45933H236.45969l-2.81131-5.18689a27.1318,27.1318,0,0,1,0-25.85743h0a27.13151,27.13151,0,0,1,7.52267-8.738L256,3.5l14.829,11.177a27.13151,27.13151,0,0,1,7.52267,8.738h0a27.1318,27.1318,0,0,1,0,25.85743Z"/><path fill="#fac600" d="M278.35156,23.415a27.132,27.132,0,0,0-7.52246-8.738L256,3.5l-2.35645,1.77612,3.18555,2.40094a27.13235,27.13235,0,0,1,7.52246,34.5954h0a9.90825,9.90825,0,0,1-8.711,5.18688H232.75977c.2749.61176.56616,1.21814.88867,1.81311l2.81128,5.18689h39.08056l2.81128-5.18689A27.13129,27.13129,0,0,0,278.35156,23.415Z"/><circle cx="256" cy="32.966" r="7.625" fill="#fd4755"/><path fill="#fb2b3a" d="M256,25.34076c-.0437,0-.08594.0058-.12939.00653a7.617,7.617,0,0,1-5.18287,13.08282A7.6234,7.6234,0,1,0,256,25.34076Z"/><circle cx="214" cy="164.006" r="7" fill="#0067c5"/><circle cx="298" cy="164.006" r="7" fill="#0067c5"/><path fill="#0055a3" d="M298.334 157.02283A6.9986 6.9986 0 0 1 292.95459 168.5c-.11255 0-.22241-.0116-.334-.01685a6.9971 6.9971 0 1 0 5.71337-11.46032zM214.334 157.02283A6.9986 6.9986 0 0 1 208.95459 168.5c-.11255 0-.22241-.0116-.334-.01685a6.9971 6.9971 0 1 0 5.71337-11.46032z"/><path fill="#ffae71" d="M293.05957 245.26953q-.26367 0-.53027-.00635a22.79723 22.79723 0 0 1-12.06739-3.80371 3.49979 3.49979 0 1 1 3.86914-5.833 15.80655 15.80655 0 0 0 8.36231 2.63868 16.05028 16.05028 0 0 0 9.10937-2.63965 3.50007 3.50007 0 0 1 3.86719 5.835A23.11346 23.11346 0 0 1 293.05957 245.26953zM218.92676 245.26953c-.17578 0-.352-.00195-.53028-.00635a22.79259 22.79259 0 0 1-12.06738-3.80371 3.50007 3.50007 0 0 1 3.87012-5.833 15.75419 15.75419 0 0 0 17.4707-.001 3.50007 3.50007 0 1 1 3.86719 5.835A23.11052 23.11052 0 0 1 218.92676 245.26953z"/><ellipse cx="256" cy="151.613" fill="#fd4755" rx="11.813" ry="22.479"/><path fill="#fb2b3a" d="M256,129.134l-.00635.00458a27.27889,27.27889,0,0,1-6.9873,37.949A27.50593,27.50593,0,0,0,256,174.09222a27.29438,27.29438,0,0,0,0-44.95819Z"/><path fill="#ffbd86" d="M264.01318,324.77319l21.05127,13.93042a8.78392,8.78392,0,0,0,9.957-.18048l2.978-2.12994a8.7867,8.7867,0,0,0,2.855-10.852,20.01419,20.01419,0,0,1-6.01611-7.96381q-7.30444-9.20865-14.60889-18.41723c-7.127-4.976-16.87353-3.15064-21.5122,3.5C253.802,309.70691,256.01465,320.17255,264.01318,324.77319Z"/><path fill="#f9f7f8" d="M280.71269,286.91685q9.85342,12.42192,19.70687,24.84384a8.7838,8.7838,0,0,1-1.93657,12.38919l-2.97825,2.12993a8.78375,8.78375,0,0,1-9.957.18052l-21.05141-13.93045c-7.9983-4.60067-10.211-15.06627-5.29583-22.113A15.55633,15.55633,0,0,1,280.71269,286.91685Z"/><path fill="#e5e1e5" d="M300.41943,311.76074q-9.85326-12.42187-19.70678-24.84387a15.77748,15.77748,0,0,0-16.03955-1.186,15.711,15.711,0,0,1,2.03955,1.186q9.85363,12.42188,19.70678,24.84387a8.7837,8.7837,0,0,1-1.93652,12.38916l-1.16626.834,2.2312,1.47644a8.78362,8.78362,0,0,0,9.957-.18054l2.978-2.12989A8.7837,8.7837,0,0,0,300.41943,311.76074Z"/><path fill="#ffbd86" d="M200.05469,350.134c3.03613,1.592,9.75073-5.06872,23.05566-18.45538,10.0437-10.10523,17.77979-18.90045,22.8855-24.93536q-7.96766-8.55451-15.93579-17.10889a74.31964,74.31964,0,0,0-11.34644,9.07507v11.16773a19.99991,19.99991,0,0,1-12.71948,18.62774l-5.92236,2.3147C197.37109,340.40332,197.12451,348.59766,200.05469,350.134Z"/><path fill="#f9f7f8" d="M232.6936,275.63432a70.17412,70.17412,0,0,0-22.46319,23.28c-8.74625,15.00827-12.26084,34.74555-7.54233,37.21961,3.03638,1.59207,9.75085-5.06873,23.05588-18.45535,10.04364-10.10523,17.77966-18.90049,22.8854-24.9354Q240.66148,284.18875,232.6936,275.63432Z"/><path fill="#e5e1e5" d="M232.6936,275.63428c-.09594.06274-.199.13305-.29638.19726q4.61608,4.95594,9.23217,9.91162c-5.10571,6.03492-12.84179,14.8302-22.88549,24.93543-8.42115,8.47278-14.196,14.24121-18.07544,16.93811-.3208,4.4187.301,7.61621,2.01953,8.51733,3.03662,1.592,9.751-5.06884,23.05591-18.45544,10.0437-10.10523,17.77978-18.90051,22.88549-24.93543Q240.66138,284.18884,232.6936,275.63428Z"/><path fill="#fed2a4" d="M234.3664,269.6347a115.70918,115.70918,0,0,0-7.34243,71.21683c3.9722,18.02326,12.27931,39.03424,30.25879,47.16195,23.53253,10.638,39.905-7.06284,60.04986.60049,15.77143,5.99964,25.12451,21.46476,30.83014,35.86786a2.995,2.995,0,0,0,5.49536.15485q2.57177-5.48464,5.14353-10.96927a7.00005,7.00005,0,0,1,7.54962-3.92249q6.5911,1.15851,13.18216,2.317a2.99551,2.99551,0,0,0,3.50467-3.2655,66.9863,66.9863,0,0,0-6.79788-23.00244c-9.23732-18.18951-26.90352-30.951-46.47651-35.96737-23.77736-6.0939-55.61517,5.72931-55.5088-30.83591.04275-14.698,3.88538-29.92815,8.24879-43.871Z"/><circle cx="248.494" cy="487.59" r="20.91" fill="#fee903"/><path fill="#fac600" d="M250.15186,466.76428A20.88615,20.88615,0,0,1,234.49438,501.5c-.55957,0-1.10888-.04053-1.65747-.08368a20.89556,20.89556,0,1,0,17.315-34.652Z"/></svg>