<svg xmlns="http://www.w3.org/2000/svg" data-name="Layer 1" viewBox="0 0 512 512"><path fill="#fed2a4" d="M420.17905,444.95757l72.294-70.68734a30,30,0,0,0,8.6073-26.44785l-18.1317-107.02261L447.56274,243.805l.1261,87.27616A10,10,0,0,1,444.68,338.2457l-49.77541,48.66917Z"/><path fill="#ffbd86" d="M435.98364,411.54968a59.97856,59.97856,0,0,0-20.28491-44.96679l-20.79419,20.332,25.27466,58.04272,15.80444-15.45331Z"/><path fill="#ffbd86" d="M501.08032,347.82239,482.94873,240.79974l-13.80151,1.17212,17.9331,105.85053a29.99935,29.99935,0,0,1-8.60718,26.44781l-62.47485,61.08631,4.18091,9.60107,72.29394-70.68738A29.99935,29.99935,0,0,0,501.08032,347.82239Z"/><polygon fill="#fee903" points="487.494 267.407 447.597 267.407 447.637 295.058 492.166 295.058 487.494 267.407"/><polygon fill="#fac600" points="487.457 267.407 473.457 267.407 478.141 295.058 492.141 295.058 487.457 267.407"/><rect width="23.453" height="77.392" x="436.476" y="334.797" fill="#fee903" rx="11.727" transform="rotate(-36.117 448.202 373.494)"/><path fill="#fac600" d="M473.572,388.3678,441.77856,344.795a11.7266,11.7266,0,0,0-16.385-2.56091l-.00024.00006c-.02856.02094-.05347.04517-.08179.06635a11.72774,11.72774,0,0,1,2.467,2.4945L459.572,388.3678a11.72369,11.72369,0,0,1-2.47876,16.31878A11.728,11.728,0,0,0,473.572,388.3678Z"/><path fill="#fed2a4" d="M91.821,444.95757l-72.294-70.68734a30,30,0,0,1-8.6073-26.44785l18.52876-109.5049,34.77391,17.39218.08888,75.37151A10,10,0,0,0,67.32,338.2457l49.77541,48.66917Z"/><path fill="#ffbd86" d="M91.8208,444.95758l25.27466-58.04272L96.80078,367.07123a59.9778,59.9778,0,0,0-20.78442,45.40466v17.02838Z"/><path fill="#fed2a4" d="M64.22228,255.70966l.01855-12.73181q.0813-6.70573.16236-13.41147a88.46054,88.46054,0,0,0-3.37061-16.95389,88.44059,88.44059,0,0,0-5.52881-13.88861l-8.87671-23.99164H38.12939l0,13.99507a5.01886,5.01886,0,0,1-4.094,4.91482,20.70953,20.70953,0,0,0-7.13237,2.78878c-9.08521,5.733-11.83081,17.96448-9.91065,27.29966C19.11987,234.07346,27.30835,242.4571,38.062,245.5702Z"/><path fill="#ffbd86" d="M67.32007,338.24567a9.99918,9.99918,0,0,1-3.009-7.16449l-.08887-75.37152.01855-12.73182.1626-13.41149a88.46,88.46,0,0,0-3.37061-16.95386,88.46124,88.46124,0,0,0-5.5288-13.88861l-8.877-23.99164H38.12939v13.99505a4.92609,4.92609,0,0,1-.063.70636l3.4375,9.29023a88.46124,88.46124,0,0,1,5.5288,13.88861,88.46,88.46,0,0,1,3.37061,16.95386l-.1626,13.41149-.01855,12.73182.08887,75.37152a9.99918,9.99918,0,0,0,3.009,7.16449l49.77539,48.66919-21.094,48.44171,9.81934,9.601,25.27466-58.04272Z"/><polygon fill="#fee903" points="19.848 295.058 64.269 295.058 64.236 267.407 24.526 267.407 19.848 295.058"/><polygon fill="#fac600" points="64.269 295.058 64.267 293.569 64.236 267.407 50.236 267.407 50.269 295.058 64.269 295.058"/><rect width="23.453" height="77.392" x="52.071" y="334.797" fill="#fee903" rx="11.727" transform="rotate(-143.883 63.798 373.494)"/><path fill="#fac600" d="M86.60669,342.23413l-.00024-.00006a11.7266,11.7266,0,0,0-16.385,2.56091L68.398,347.29425a11.68818,11.68818,0,0,1,4.2085,1.93982l.00024.00006a11.72684,11.72684,0,0,1,2.56079,16.38513l-29.97,41.07349A11.72952,11.72952,0,0,0,57.374,402.19208l31.79346-43.57282A11.72684,11.72684,0,0,0,86.60669,342.23413Z"/><path fill="#e5e1e5" d="M430.58043,200.39273c11.58348,8.04157,20.74836,2.13458,35.82045,8.21779,9.67825,3.90613,17.0167,10.82882,22.65011,18.63207,10.19466-29.5384,1.46157-60.01094-19.546-74.4146-17.265-11.8374-37.06808-8.87744-42.70509-7.83014-1.488,1.62968-13.54,15.277-10.00053,33.36387C417.26965,180.76516,419.92274,192.99376,430.58043,200.39273Z"/><path fill="#efedef" d="M469.50488,152.828a50.40558,50.40558,0,0,0-18.96631-7.82727l-6.79321,18.03314A115.608,115.608,0,0,1,489.051,227.24255C499.24561,197.70416,490.5127,167.23163,469.50488,152.828Z"/><path fill="#baafb9" d="M426.7999,144.99785c-1.2817,1.40367-10.39182,11.72684-10.63475,26.119a30.66637,30.66637,0,0,0,24.69764-5.604,32.93058,32.93058,0,0,0,6.2809-6.38018,35.82587,35.82587,0,0,0,6.2237-13.50467,63.66021,63.66021,0,0,0-26.56749-.63019Z"/><path fill="#fed2a4" d="M476.70334,246.39734l6.47138-3.07676,5.63712-5.27539a27.48528,27.48528,0,0,0,7.0128-29.5628v0a22.09159,22.09159,0,0,0-21.36118-14.45125l-8.59411.245a12,12,0,0,0-9.23706,19.223l0,0a4.744,4.744,0,0,1-1.5929,7.06356l-.93308.4867a13.41475,13.41475,0,0,0-7.18338,12.75l.6398,10.00563.01839,12.73181Z"/><path fill="#ffbd86" d="M470.60409,248.52092l6.09928-2.12358,6.47143-3.07678,5.637-5.27539a27.4854,27.4854,0,0,0,7.13055-29.237,22.46919,22.46919,0,0,0-21.88938-14.7654l-8.18356.23335c-.35742.0102-.70678.03931-1.052.07807a22.08233,22.08233,0,0,1,17.00733,14.12817,27.48539,27.48539,0,0,1-7.01294,29.56281l-1.6992,1.59021a8.92883,8.92883,0,0,0-2.50849,8.88553Z"/><path fill="#fed2a4" d="M418.48363,512V425.54959a60,60,0,0,0-42.8494-57.49658l-64.56475-19.259a20,20,0,0,1-14.28313-19.16553V310.02624h-74.5727v19.60228a20,20,0,0,1-14.28313,19.16553l-64.56475,19.259a60,60,0,0,0-42.8494,57.49658V512Z"/><path fill="#ffbd86" d="M356.82512,355.08228l-20.28491-6.05079a6,6,0,0,0-7.71509,5.74964V512h28V355.08228Z"/><path fill="#fee903" d="M173.52478,367.03271l.00671.0774v26.1167a80.35381,80.35381,0,0,0,41.44165,70.28967l44.18763,24.448,44.1875-24.448a80.35365,80.35365,0,0,0,41.4425-70.28967v-26.1167l.31873-1.06079c.01245-.03028.02234-.06079.03454-.09131L311.06946,355.794a20.00206,20.00206,0,0,1-2.50562-.94971c-.0094.04553-.02173.08948-.03064.13525q-.04742.64362-.09472,1.28711v36.96045A43.979,43.979,0,0,1,285.75061,431.709L259.16077,446.42,232.57129,431.709a43.97919,43.97919,0,0,1-22.68811-38.48193V356.26672l-.01-.07629c-.14856-.30884-.30664-.60535-.46253-.90466-.48413.1864-.97656.358-1.4801.50818l-34.66833,10.3413C173.3501,366.43445,173.42676,366.73364,173.52478,367.03271Z"/><path fill="#fac600" d="M311.06934 355.794a19.99862 19.99862 0 0 1-2.50538-.94971c-.00952.04553-.022.08948-.03076.13525q-.04761.64362-.09472 1.28711v2.91858L331.144 365.958c-.0122.03052-.022.061-.03466.09131l-.31861 1.06079v26.1167a80.35351 80.35351 0 0 1-41.44263 70.28967l-37.1875 20.57507 7 3.87293 44.1875-24.448a80.35351 80.35351 0 0 0 41.44263-70.28967v-26.1167l.31861-1.06079c.01269-.03028.02246-.06079.03466-.09131zM195.8833 393.22705a43.97884 43.97884 0 0 0 22.688 38.48193l25.21622 13.91847a17.59183 17.59183 0 0 0 15.37313.7926h0q-13.295-7.35576-26.59018-14.71151a43.97811 43.97811 0 0 1-22.68716-38.48148V356.26672l-.01025-.07629c-.14844-.30884-.30664-.60535-.46241-.90466-.48413.1864-.97656.358-1.48.50818l-12.04736 3.59362z"/><path fill="#fee903" d="M428.98366,502V418.54971A60.00016,60.00016,0,0,0,386.13417,361.053l-40.30141-12.02149a6,6,0,0,0-7.71507,5.74965V512h80.866A10,10,0,0,0,428.98366,502Z"/><path fill="#fac600" d="M386.13428,361.053l-40.30156-12.0215a6,6,0,0,0-7.715,5.74965v3.12506l34.01645,10.14674a60.00018,60.00018,0,0,1,42.84951,57.49675V512h4a10,10,0,0,0,10-10V418.54949A59.99992,59.99992,0,0,0,386.13428,361.053Z"/><path fill="#fd6930" d="M366.11768,355.08228l-20.28492-6.05079a6,6,0,0,0-7.71508,5.74964V512h28V355.08228Z"/><path fill="#fd5426" d="M366.11768,355.08228l-20.28492-6.05079a6,6,0,0,0-7.71508,5.74964v3.12506l28,8.35211Z"/><path fill="#fee903" d="M83.01634,502V419.47589a60,60,0,0,1,43.98559-57.82334l46.27894-12.81714a6,6,0,0,1,7.60144,5.78234V512h-87.866A10,10,0,0,1,83.01634,502Z"/><path fill="#fd6930" d="M180.88232,512V354.61774a6.00008,6.00008,0,0,0-7.60156-5.78235l-19.52392,5.40722-.87452.83967V512Z"/><path fill="#aa6a51" d="M321.14258,378.82593c5.83349-2.53955,19.14306-9.24268,27.9165-23.18372a51.42984,51.42984,0,0,0,7.1521-35.41638h.11475c3.9248-3.4519,16.95434-15.779,18.87768-35.24194.47242-4.78052,4.3396-30.46924-14.42846-46.3562-15.59375-13.19971-29.0271-10.22388-38.65186-9.502l-132.98706-.00305c-40.12476-2.25061-53.9248,31.60828-52.93384,55.86121.76734,18.77978,14.69654,31.64868,18.87744,35.24194h.11475a51.42984,51.42984,0,0,0,7.1521,35.41638c8.7417,13.8905,21.98193,20.59278,27.84814,23.15332a23.06426,23.06426,0,0,0,3.1626,8.58045c10.71778,17.23266,39.991,13.03845,54.79907,33.21814a37.44359,37.44359,0,0,1,4.67456,8.49487,2.9979,2.9979,0,0,0,5.5962,0,37.43388,37.43388,0,0,1,4.67456-8.49487c14.80786-20.17969,44.0813-15.98548,54.79907-33.21814Z"/><path fill="#935b44" d="M199.29053 393.80225c6.92749 5.29364 16.56347 7.68792 25.98535 11.23931C217.33594 399.52942 207.85547 396.91693 199.29053 393.80225zM360.77515 238.62769a42.25372 42.25372 0 0 0-16.49634-8.98365c.82617.61933 1.65747 1.27356 2.49634 1.98365 18.76806 15.887 14.90088 41.57568 14.42846 46.3562-1.92334 19.46289-14.95288 31.79-18.87768 35.24194h-.11475a51.42984 51.42984 0 0 1-7.1521 35.41638c-8.77344 13.941-22.083 20.64417-27.9165 23.18372l-3.2417 8.55c-10.71777 17.23266-39.99121 13.03845-54.79907 33.21814a37.12589 37.12589 0 0 0-2.88062 4.61236c.66577.7605 1.31738 1.5456 1.9353 2.38764a37.44359 37.44359 0 0 1 4.67456 8.49487 2.9979 2.9979 0 0 0 5.5962 0 37.43388 37.43388 0 0 1 4.67456-8.49487c14.80786-20.17969 44.0813-15.98548 54.79907-33.21814l3.2417-8.55c5.83349-2.53955 19.14306-9.24268 27.9165-23.18372a51.42984 51.42984 0 0 0 7.1521-35.41638h.11475c3.9248-3.4519 16.95434-15.779 18.87768-35.24194C375.676 280.20337 379.54321 254.51465 360.77515 238.62769z"/><path fill="#fee903" d="M278.54674,493.43328l-15.34226,16.92481a5,5,0,0,1-7.409,0l-15.34226-16.92481a5,5,0,0,1,0-6.71619l15.34226-16.92482a5,5,0,0,1,7.409,0l15.34226,16.92482A5,5,0,0,1,278.54674,493.43328Z"/><path fill="#fac600" d="M278.54688,486.71711l-15.34236-16.925a5,5,0,0,0-7.40911.00009L252.5,473.42773l0,0a24.7869,24.7869,0,0,1,0,33.29489l0,0,3.29536,3.63538a5.00015,5.00015,0,0,0,7.40923,0l15.34229-16.9248A5,5,0,0,0,278.54688,486.71711Z"/><circle cx="259.5" cy="486.575" r="3.5" fill="#fd6930"/><circle cx="256" cy="24.503" r="21.003" fill="#fee903"/><circle cx="199.445" cy="39.657" r="21.003" fill="#fee903"/><circle cx="158.044" cy="81.058" r="21.003" fill="#fee903"/><circle cx="142.89" cy="137.613" r="21.003" fill="#fee903"/><circle cx="158.044" cy="194.168" r="21.003" fill="#fee903"/><circle cx="353.956" cy="194.168" r="21.003" fill="#fee903"/><circle cx="369.11" cy="137.613" r="21.003" fill="#fee903"/><circle cx="353.956" cy="81.058" r="21.003" fill="#fee903"/><circle cx="312.555" cy="39.657" r="21.003" fill="#fee903"/><path fill="#fac600" d="M176.23242 183.66687a20.93829 20.93829 0 0 0-32.57544-4.77753 113.13824 113.13824 0 0 0 21.75122 34.92505 20.88189 20.88189 0 0 0 10.82422-30.14752zM137.71313 157.94659a21.003 21.003 0 1 0 0-40.66693 114.11443 114.11443 0 0 0 0 40.66693zM176.23242 91.55933A20.88186 20.88186 0 0 0 165.4082 61.41187a113.13779 113.13779 0 0 0-21.75122 34.925 20.93826 20.93826 0 0 0 32.57544-4.77752zM181.25586 50.15808a21.00281 21.00281 0 1 0 36.37793-21.00281c-.04126-.07153-.09107-.13482-.13306-.20569a112.73657 112.73657 0 0 0-37.366 18.93268A21.13826 21.13826 0 0 0 181.25586 50.15808z"/><path fill="#fee903" d="M256,24.5A113.11313,113.11313,0,1,0,369.11328,137.6131,113.113,113.113,0,0,0,256,24.5Zm0,191.22607a78.113,78.113,0,1,1,78.11328-78.11279A78.20137,78.20137,0,0,1,256,215.72607Z"/><path fill="#fac600" d="M315.25049,188.42944a78.07622,78.07622,0,0,1-136.51172-62.3056,67.90676,67.90676,0,0,0-12.32056,48.2641l6.668,40.15478a113.731,113.731,0,0,0,16.427,14.5802l118.981.00287Z"/><path fill="#fac600" d="M249 59.82965c-2.30786-.206-4.6394-.32965-7-.32965a78.113 78.113 0 1 0 0 156.22607c2.3606 0 4.69214-.12359 7-.32965a78.0962 78.0962 0 0 1 0-155.56677zM256 24.5c-2.35156 0-4.68408.08051-7 .22192a113.10767 113.10767 0 0 1 0 225.78241c2.31592.14142 4.64844.22193 7 .22193A113.11313 113.11313 0 1 0 256 24.5z"/><path fill="#fd4755" d="M176.32129 196.33936a3.49115 3.49115 0 0 1-2.86524-1.48877l-.08789-.12745a3.50031 3.50031 0 0 1 5.793-3.93066l-2.89648 1.96533 2.92187-1.92773a3.50168 3.50168 0 0 1-2.86523 5.50928zM337.18652 194.09863a3.50071 3.50071 0 0 1-2.90918-5.44189l2.91211 1.9414-2.8955-1.96582a3.519 3.519 0 0 1 4.832-1.04394 3.48242 3.48242 0 0 1 1.07714 4.79541c-.01464.02441-.08593.13183-.10156.15576A3.49673 3.49673 0 0 1 337.18652 194.09863z"/><path fill="#8ac9fe" d="M166.2627 177.84277a3.53656 3.53656 0 0 1-1.3584-6.7915 3.46232 3.46232 0 0 1 4.55468 1.86279l.04493.11035a3.50172 3.50172 0 0 1-3.24121 4.81836zM346.72559 175.3291a3.50245 3.50245 0 0 1-3.27637-4.73l.03516-.09375a3.5002 3.5002 0 0 1 6.55468 2.458l-.03515.09375A3.50213 3.50213 0 0 1 346.72559 175.3291z"/><path fill="#fd4755" d="M160.4541 157.6001a3.54828 3.54828 0 1 1 3.43262-4.21631l.03418.20654a3.50284 3.50284 0 0 1-3.4668 4.00977zM351.96387 154.938a3.50284 3.50284 0 0 1-3.4668-4.00977l3.46289.50928-3.459-.53564a3.51547 3.51547 0 0 1 3.91894-3.01124 3.48018 3.48018 0 0 1 3.0293 3.8628l-.02637.19336A3.50119 3.50119 0 0 1 351.96387 154.938z"/><path fill="#8ac9fe" d="M159.167 136.561c-.04687 0-.09375-.001-.1416-.00293a3.47661 3.47661 0 0 1-3.35742-3.57227l.00879-.2041a3.50018 3.50018 0 0 1 6.98828.41113l-3.49414-.20557 3.49219.229A3.52412 3.52412 0 0 1 159.167 136.561zM352.669 133.89941a3.50078 3.50078 0 0 1-3.48243-3.19384c-.00293-.03418-.01367-.16748-.01562-.20166a3.5016 3.5016 0 1 1 3.80957 3.38183C352.876 133.895 352.77148 133.89941 352.669 133.89941z"/><path fill="#fd4755" d="M162.40625 115.78809a3.5042 3.5042 0 0 1-3.37891-4.42188l.02637-.09668a3.50027 3.50027 0 0 1 6.75391 1.8418l-.02637.09668A3.50253 3.50253 0 0 1 162.40625 115.78809zM348.85645 113.19678a3.50154 3.50154 0 0 1-3.34864-2.48584l-.02539-.082a3.50046 3.50046 0 0 1 6.69141-2.0586l.0332.11035a3.50324 3.50324 0 0 1-3.35058 4.51612z"/><path fill="#8ac9fe" d="M170.07324 96.15381a3.49209 3.49209 0 0 1-3.13281-5.01465c.0166-.03467.08008-.15723.09863-.19092a3.49966 3.49966 0 1 1 6.17578 3.29395l-3.08789-1.647 3.07813 1.666A3.545 3.545 0 0 1 170.07324 96.15381zM340.61621 93.80029a3.47042 3.47042 0 0 1-3.02832-1.76367l-.08008-.14453a3.48995 3.48995 0 1 1 3.1084 1.9082z"/><path fill="#fd4755" d="M181.81543 78.70947a3.5 3.5 0 0 1-2.66992-5.76074 3.54214 3.54214 0 0 1 4.96484-.44922 3.45739 3.45739 0 0 1 .44336 4.89453l-.06445.07617A3.492 3.492 0 0 1 181.81543 78.70947zM328.35742 76.64355a3.40873 3.40873 0 0 1-2.54492-1.13525c-.01758-.019-.10059-.11328-.11816-.13281a3.50014 3.50014 0 0 1 5.30078-4.57227 3.51819 3.51819 0 0 1-2.6377 5.84033z"/><path fill="#8ac9fe" d="M197.04 64.16309a3.5 3.5 0 0 1-2.11914-6.2876 3.54087 3.54087 0 0 1 4.93066.62451 3.45754 3.45754 0 0 1-.58691 4.86475l-.11133.08593A3.483 3.483 0 0 1 197.04 64.16309zM312.77441 62.543a3.45482 3.45482 0 0 1-2.01464-.64844l-.12989-.09424a3.48448 3.48448 0 1 1 2.14453.74268z"/><path fill="#fd4755" d="M215.03516 53.23242a3.50068 3.50068 0 0 1-1.48438-6.67138l.09082-.04249a3.49987 3.49987 0 0 1 2.96485 6.34083l-.09083.04248A3.48714 3.48714 0 0 1 215.03516 53.23242zM294.50586 52.12646a3.48531 3.48531 0 0 1-1.39551-.292l1.39746-3.209-1.45215 3.18506a3.49981 3.49981 0 0 1 2.72071-6.44922c.01269.00488.11621.0498.1289.05517a3.50066 3.50066 0 0 1-1.39941 6.71z"/><path fill="#8ac9fe" d="M234.96973 46.4624a3.50042 3.50042 0 0 1-.70215-6.92871 3.544 3.544 0 0 1 4.17578 2.67676 3.45723 3.45723 0 0 1-2.59668 4.14307c-.02344.00537-.14356.03173-.167.03662A3.53258 3.53258 0 0 1 234.96973 46.4624zM274.3916 45.918a3.47184 3.47184 0 0 1-.65625-.063l-.11816-.02246a3.50013 3.50013 0 0 1 1.35351-6.86816 3.53542 3.53542 0 0 1 2.82032 4.10253A3.47548 3.47548 0 0 1 274.3916 45.918z"/><path fill="#fee903" d="M322.49419,229.1258l-132.987-.00314-9.08887-54.73473a67.9738,67.9738,0,0,1,40.75536-71.023L256,88.5l34.82634,14.8649a67.9738,67.9738,0,0,1,40.75536,71.023Z"/><path fill="#fac600" d="M290.82642,103.36487,256,88.5l-7,2.98779,27.82642,11.87708a67.97415,67.97415,0,0,1,40.75537,71.02307l-9.08765,54.73755,14,.0003,9.08765-54.73785A67.97415,67.97415,0,0,0,290.82642,103.36487Z"/><rect width="70.936" height="27.864" x="220.532" y="97.357" fill="#fac600" rx="13.932"/><rect width="70.936" height="27.864" x="220.532" y="90.357" fill="#fee903" rx="13.932"/><path fill="#fac600" d="M277.53613 90.35663h-14a13.93183 13.93183 0 0 1 0 27.86365h14a13.93183 13.93183 0 0 0 0-27.86365zM263.23242 52.17493L249 41.44763l-14.23242 10.7273a25.86961 25.86961 0 0 0-9.32788 13.55676 77.85908 77.85908 0 0 1 45.17871-4.8396c-.05737-.1095-.10718-.22186-.166-.33075A26.04424 26.04424 0 0 0 263.23242 52.17493z"/><path fill="#fee903" d="M274.75412,90.35666H237.24588l-2.6982-4.9782a26.04016,26.04016,0,0,1,0-24.81708h0a26.03982,26.03982,0,0,1,7.22-8.38641L256,41.44763,270.23232,52.175a26.03982,26.03982,0,0,1,7.22,8.38641h0a26.04016,26.04016,0,0,1,0,24.81708Z"/><path fill="#fac600" d="M273.03189,54.59619a25.24639,25.24639,0,0,0-2.82692-2.442l-1.13759-.85734a25.98543,25.98543,0,0,1,1.385,27.08154h0a9.50976,9.50976,0,0,1-8.36066,4.97821H233.5752c.29736.6831.61376,1.36.97241,2.02179l2.69824,4.97821h37.5083l2.69824-4.97821A26.07608,26.07608,0,0,0,273.03189,54.59619Z"/><circle cx="256" cy="69.728" r="7.318" fill="#fd4755"/><circle cx="210.49" cy="164.006" r="8.752" fill="#fd4755"/><circle cx="301.51" cy="164.006" r="8.752" fill="#fd4755"/><path fill="#fb2b3a" d="M301.85547 155.27179a8.7445 8.7445 0 0 1-6.63892 14.44421c-.1167 0-.23022-.01294-.3457-.01745a8.746 8.746 0 1 0 6.98462-14.42676zM210.8362 155.27179a8.7445 8.7445 0 0 1-6.63891 14.44421c-.1167 0-.23023-.01294-.34571-.01745a8.746 8.746 0 1 0 6.98462-14.42676z"/><path fill="#fd4755" d="M275.04674,159.35809l-15.34226,16.92482a5,5,0,0,1-7.409,0l-15.34226-16.92482a5,5,0,0,1,0-6.71618l15.34226-16.92482a5,5,0,0,1,7.409,0l15.34226,16.92482A5,5,0,0,1,275.04674,159.35809Z"/><path fill="#fb2b3a" d="M275.04688,152.64191,259.70459,135.7171A4.98612,4.98612,0,0,0,252.5,135.535c.06567.06495.1416.11274.20459.18207l0,0a30.19993,30.19993,0,0,1,0,40.56576l0,0c-.063.06933-.13892.11712-.20459.18207a4.98612,4.98612,0,0,0,7.20459-.18207l15.34229-16.92481A5,5,0,0,0,275.04688,152.64191Z"/><path fill="#fed2a4" fill-rule="evenodd" d="M256.00071,333.35688h-1.7036a66.14747,66.14747,0,0,1-66.41549-66.0756c.0003-13.27277.00048-23.78967.00061-26.69247a41.37877,41.37877,0,0,1,17.32848-33.67l0,0a48.27532,48.27532,0,0,1,34.50194-8.56027L256,200.55175l16.28734-2.19321a48.27529,48.27529,0,0,1,34.50193,8.56028l.00009.00006A41.37579,41.37579,0,0,1,324.11785,240.587c.00011,2.41627.00028,13.01372.00053,24.64636A68.12147,68.12147,0,0,1,256.00071,333.35688Z"/><path fill="#ffbd86" fill-rule="evenodd" d="M324.11792,240.587a41.37608,41.37608,0,0,0-17.32861-33.6681v-.00006a48.25207,48.25207,0,0,0-13.7566-6.81488,41.37066,41.37066,0,0,1,17.08521,33.483c0,2.41625.00024,13.01367.00049,24.64636a68.12157,68.12157,0,0,1-68.11768,68.12353h-1.70361a66.8364,66.8364,0,0,1-22.62769-3.91876,66.408,66.408,0,0,0,36.62769,10.91876h1.70361a68.12157,68.12157,0,0,0,68.11768-68.12353C324.11816,253.60065,324.11792,243.00323,324.11792,240.587Z"/><path fill="#ffbd86" fill-rule="evenodd" d="M187.88232,254.58881a41.37868,41.37868,0,0,1,17.32837-33.67,48.27574,48.27574,0,0,1,34.502-8.5603L256,214.55176l16.28735-2.19324a48.27545,48.27545,0,0,1,34.502,8.5603v.00006a41.37608,41.37608,0,0,1,17.32861,33.6681c0,1.36645,0,5.35144.00024,10.65832l.00025-.012c-.00025-11.63269-.00049-22.23011-.00049-24.64636a41.37608,41.37608,0,0,0-17.32861-33.6681v-.00006a48.27545,48.27545,0,0,0-34.502-8.5603L256,200.55176l-16.28735-2.19324a48.27574,48.27574,0,0,0-34.502,8.5603,41.37868,41.37868,0,0,0-17.32837,33.67c-.00024,2.90277-.00048,13.41967-.00073,26.69244l.00025.01208C187.88208,260.96655,187.88232,256.35815,187.88232,254.58881Z"/><path fill="#ffae71" d="M272.23047,313.04688a14.82162,14.82162,0,0,1-5.70606-1.146l-11.87109-4.94629a3.50051,3.50051,0,0,1-2.15332-3.231V293.51221a3.5,3.5,0,0,1,7,0v7.87793l9.7168,4.04882a7.76575,7.76575,0,0,0,8.50879-1.68359l7.48144-7.48144a7.80319,7.80319,0,0,0,0-11.02149,3.5,3.5,0,0,1,4.94922-4.95019,14.81125,14.81125,0,0,1,0,20.92138l-7.48145,7.48194A14.75066,14.75066,0,0,1,272.23047,313.04688Z"/><path fill="#ffae71" d="M239.76953,313.04688a14.74692,14.74692,0,0,1-10.44433-4.34131l-7.48145-7.48145a14.81184,14.81184,0,0,1,0-20.92187,3.5,3.5,0,1,1,4.94922,4.95019,7.80377,7.80377,0,0,0,0,11.022l7.48144,7.481a7.76979,7.76979,0,0,0,8.50977,1.68359L252.5,301.39014V286.51221a3.5,3.5,0,0,1,7,0v17.21142a3.50051,3.50051,0,0,1-2.15332,3.231l-11.87012,4.94629A14.82633,14.82633,0,0,1,239.76953,313.04688Z"/><path fill="#7a6d79" d="M267.66433,278.98356l-9.18312,13.51208a3,3,0,0,1-4.96242,0l-9.18312-13.51208a3,3,0,0,1,2.48121-4.68629h18.36624A3,3,0,0,1,267.66433,278.98356Z"/><path fill="#ffae71" d="M293.05957 245.26953q-.26367 0-.53027-.00635a22.79723 22.79723 0 0 1-12.06739-3.80371 3.49979 3.49979 0 1 1 3.86914-5.833 15.80655 15.80655 0 0 0 8.36231 2.63868 16.04184 16.04184 0 0 0 9.10937-2.63965 3.50007 3.50007 0 0 1 3.86719 5.835A23.11346 23.11346 0 0 1 293.05957 245.26953zM218.92773 245.26953c-.17578 0-.35253-.00195-.53125-.00635a22.79722 22.79722 0 0 1-12.06738-3.80371 3.49979 3.49979 0 1 1 3.86914-5.833 15.81036 15.81036 0 0 0 8.36328 2.63868 16.0623 16.0623 0 0 0 9.1084-2.63965 3.50007 3.50007 0 0 1 3.86719 5.835A23.11253 23.11253 0 0 1 218.92773 245.26953z"/><path fill="#fd4755" d="M256,237.74756a3.50017,3.50017,0,0,1-3.5-3.5V215.75244a3.5,3.5,0,1,1,7,0v18.49512A3.50017,3.50017,0,0,1,256,237.74756Z"/><ellipse cx="44.148" cy="164.173" fill="#fee903" rx="40.648" ry="14.11"/><path fill="#fac600" d="M68.99512,153.00977a6.28491,6.28491,0,0,1,1.80078,4.16308c0,7.79273-18.19873,14.11-40.64795,14.11a98.11154,98.11154,0,0,1-24.84717-2.9469c5.11719,5.76043,20.57276,9.9469,38.84717,9.9469,22.44922,0,40.648-6.31726,40.648-14.11C84.7959,159.62952,78.603,155.59052,68.99512,153.00977Z"/><circle cx="44.148" cy="164.173" r="3.5" fill="#fac600"/></svg>