<svg xmlns="http://www.w3.org/2000/svg" data-name="Layer 1" viewBox="0 0 512 512"><ellipse cx="256" cy="148.178" fill="#c68d7a" rx="174.5" ry="144.678"/><path fill="#ab695d" d="M256 3.5c-1.17017 0-2.33527.0177-3.5.03668v54.8432a3.5 3.5 0 1 0 7 0V3.53668C258.33527 3.5177 257.17017 3.5 256 3.5zM152.4585 174.57666a163.20635 163.20635 0 0 0-67.96729 0c-.02716.0058-.05072.01849-.07764.0249q.76182 3.4216 1.71283 6.78626a156.15531 156.15531 0 0 1 64.87506.03552 3.5 3.5 0 1 0 1.457-6.84668zM426.09131 174.57031A170.61644 170.61644 0 0 1 392.08789 178h-.20459a170.649 170.649 0 0 1-33.79394-3.42969 3.50024 3.50024 0 0 0-1.39844 6.85938A177.678 177.678 0 0 0 391.87451 185h.21338a177.6976 177.6976 0 0 0 33.67664-3.24164q1.01678-3.5462 1.82214-7.1579A3.46646 3.46646 0 0 0 426.09131 174.57031zM381.45679 47.62988a3.45176 3.45176 0 0 0-.24732.28809 222.77468 222.77468 0 0 1-24.46435 29.3374 222.77661 222.77661 0 0 1-30.66748 25.79395 3.5 3.5 0 1 0 4.00488 5.74121 229.78163 229.78163 0 0 0 31.6333-26.60645 229.759 229.759 0 0 0 24.95947-29.87622Q384.12684 49.92181 381.45679 47.62988zM182.46729 247.14893a34.22358 34.22358 0 0 0-22.348 21.91656q3.08322 1.68439 6.25379 3.26465a3.51964 3.51964 0 0 0 .21576-.53082 27.23805 27.23805 0 0 1 17.96338-17.96778 3.50015 3.50015 0 0 0-2.085-6.68261zM126.17822 52.95557a142.42333 142.42333 0 0 1 52.686 52.686 3.49981 3.49981 0 1 0 6.07129-3.4834A149.17944 149.17944 0 0 0 130.69617 47.5q-2.73432 2.3388-5.34009 4.77863A3.46152 3.46152 0 0 0 126.17822 52.95557zM342.14014 254.24072a40.77917 40.77917 0 0 0-14.41993-9.002 3.5 3.5 0 0 0-2.37988 6.583 33.43993 33.43993 0 0 1 20.10889 20.10937 3.49554 3.49554 0 0 0 .18042.39765q3.15381-1.56849 6.21783-3.24518A40.73178 40.73178 0 0 0 342.14014 254.24072z"/><path fill="#aa6a51" d="M338.8504,20.81891C385.666,46.76611,416.5,90.98407,416.5,141.17755c0,79.90326-78.12628,144.67761-174.5,144.67761a202.70853,202.70853,0,0,1-82.8504-17.31891c27.71026,15.35822,61.0166,24.31891,96.8504,24.31891,96.37372,0,174.5-64.77435,174.5-144.67761C430.5,93.135,393.42407,45.27441,338.8504,20.81891Z"/><path fill="#935b50" d="M381.20947 47.918q-1.20318 1.72512-2.44537 3.42639 2.47614 2.58747 4.81824 5.26453 1.56711-2.13035 3.08612-4.29139c-.42432-.39727-.84912-.79425-1.27869-1.18762q-.96432-.88366-1.94373-1.75549-.9884-.87588-1.99646-1.73615A3.21661 3.21661 0 0 0 381.20947 47.918zM426.09131 174.57031c-4.94312 1.00745-9.94043 1.78168-14.962 2.34662q-1.12958 3.68536-2.47912 7.29541c5.74206-.54248 11.45923-1.36029 17.11438-2.454q.50829-1.77282.96423-3.56213l.00012-.00073q.45574-1.7895.85779-3.595A3.46646 3.46646 0 0 0 426.09131 174.57031zM345.34454 257.75482q-3.02024 1.84352-6.13415 3.585a33.75459 33.75459 0 0 1 6.23883 10.59137 3.49554 3.49554 0 0 0 .18042.39765q1.52883-.76035 3.03552-1.54761c.04651-.02417.0932-.0481.13971-.07233q1.53113-.80007 3.04169-1.62475l.00091-.00049A40.90807 40.90807 0 0 0 345.34454 257.75482z"/><path fill="#935b44" d="M160.18854 269.09009c1.23846.676 2.483 1.34485 3.7431 1.99518.39166.20227.78662.40063 1.18042.6004.47681.2417.96289.47174 1.44269.70978l.53247-.53247q-3.46609-1.36836-6.848-2.8559C160.22339 269.03522 160.20386 269.06177 160.18854 269.09009zM259.5 285.13336c-2.31952.19147-4.65466.3382-7 .45368v7.2135c1.16644.0191 2.32806.05462 3.5.05462 1.17017 0 2.33527-.0177 3.5-.03668z"/><path fill="#fed2a4" d="M442.74043,512V410.29246a71.03585,71.03585,0,0,0-50.73072-68.072l-76.44019-22.80128a23.67862,23.67862,0,0,1-16.91024-22.69065V265.23329H210.37036v31.49527a23.6786,23.6786,0,0,1-16.91024,22.69065l-76.44018,22.80128a71.03585,71.03585,0,0,0-50.73072,68.072V502a10,10,0,0,0,10,10Z"/><path fill="#aa6a51" d="M140.75244,468.30127h-.1001a3.5,3.5,0,0,1,0-7h.1001a3.5,3.5,0,1,1,0,7Zm-16.1001,0h-.10009a3.5,3.5,0,0,1,0-7h.10009a3.5,3.5,0,1,1,0,7Zm-16.10009,0h-.09961a3.5,3.5,0,0,1,0-7,3.54271,3.54271,0,0,1,3.5498,3.5A3.45769,3.45769,0,0,1,108.55225,468.30127Zm-16.09961,0h-.1001a3.5,3.5,0,0,1,0-7h.1001a3.5,3.5,0,1,1,0,7Zm-16.1001,0h-.1001a3.5,3.5,0,0,1,0-7h.1001a3.5,3.5,0,1,1,0,7Z"/><path d="M426.91035,468.94469h-.11851a4.14376,4.14376,0,0,1,0-8.28752h.11851a4.14376,4.14376,0,0,1,0,8.28752Zm-19.0614,0h-.11851a4.14376,4.14376,0,0,1,0-8.28752h.11851a4.14376,4.14376,0,1,1,0,8.28752Z"/><path fill="#ffae71" d="M140.72632,454.15038h.00342a3.49659,3.49659,0,0,1,3.49659,3.49659V508.5a3.5,3.5,0,0,1-3.5,3.5h-.00342a3.49659,3.49659,0,0,1-3.49659-3.49659v-50.853a3.5,3.5,0,0,1,3.5-3.5Z"/><path fill="#ffae71" d="M190.80566,495.21338q-.17065,0-.34423-.01709c-24.07178-2.34717-44.376-16.2124-52.98926-36.18457-12.17822-28.23828,4.76709-55.8291,6.73926-58.88233a3.50015,3.50015,0,0,1,5.87988,3.79883c-1.76465,2.73145-16.93164,27.40821-6.19141,52.311,7.604,17.63232,25.70557,29.89013,47.24121,31.99023a3.50023,3.50023,0,0,1-.33545,6.98389Z"/><path fill="#ffbd86" d="M244.54718,495.9375c-11.21143-6.843-19.39209-13.5979-25.81055-20.79126a8.324,8.324,0,0,0-8.87695-11.84119,143.89839,143.89839,0,0,1-10.44482-20.71936,8.11054,8.11054,0,0,0,1.08837-7.56744l-.10583-.28742a8.20954,8.20954,0,0,0-6.23187-5.19836,157.93089,157.93089,0,0,1-6.80408-23.44513,8.0736,8.0736,0,0,0,1.83905-6.43994c-.00458-.03308-.045-.29645-.05072-.32947a8.12833,8.12833,0,0,0-3.38593-5.35907l-1.43377-23.62781a8.16386,8.16386,0,0,0,4.95794-7.35827l.00348-.23474a8.14683,8.14683,0,0,0-4.5354-7.39514,110.55477,110.55477,0,0,0,4.76911-26.89759c.13873-2.73114.16919-5.36322.11456-7.88653q-3.15875.94225-6.3175,1.88446c-1.32874,5.673-2.55536,11.73352-3.60364,18.15753-.81732,5.00879-1.4607,9.83655-1.96155,14.46008a8.15631,8.15631,0,0,0-5.03534,7.44013l-.00348.23248a8.1468,8.1468,0,0,0,4.21979,7.23938,175.702,175.702,0,0,0,1.19916,22.98218,8.1605,8.1605,0,0,0-5.3125,8.97351l.02075.1311a8.23254,8.23254,0,0,0,7.98346,6.95825,164.73232,164.73232,0,0,0,6.52527,22.29969,8.12493,8.12493,0,0,0-2.42523,9.07721l.05523.15283a8.19817,8.19817,0,0,0,5.22321,5.00952c4.069,9.85834,7.99377,17.681,12.89917,24.56671a8.14628,8.14628,0,0,0,1.43542,6.0412l.17975.2475a8.11775,8.11775,0,0,0,6.48,3.33337c7.192,7.30682,16.48261,14.09961,29.69892,22.1662a3.49974,3.49974,0,0,0,3.64648-5.97461Z"/><circle cx="171.454" cy="457.65" r="4.144" fill="#ffae71"/><path fill="#bc7c63" d="M244.40088,494.91211a3.49974,3.49974,0,1,0,3.64648-5.97461c-30.22851-18.4502-38.45605-36.25244-49.37744-63.76953-17.19873-43.33643-10.91894-83.58692-5.64453-103.72266a3.468,3.468,0,0,0-.04291-1.88366l-7.25219,2.16326c-5.35706,21.56885-10.93525,62.2616,6.43377,106.02509C203.66064,456.71777,212.91357,475.69385,244.40088,494.91211Z"/><path fill="#aa6a51" d="M214.81258 472.75224a8.12481 8.12481 0 0 1-6.59067-3.33972l-.17971-.24747a8.18287 8.18287 0 0 1 1.92041-11.45586 8.30426 8.30426 0 1 1 4.85 15.043zM196.2439 438.96067a8.24582 8.24582 0 0 1-7.75952-5.413l-.05522-.15284a8.1544 8.1544 0 0 1 4.87818-10.501 8.26313 8.26313 0 0 1 10.59026 4.837l.10583.28742a8.15828 8.15828 0 0 1-4.97134 10.45879A8.31034 8.31034 0 0 1 196.2439 438.96067zM176.32487 394.92852a8.26676 8.26676 0 0 1 16.32507-2.61059c.00577.03306.04614.2964.05075.32946a8.18437 8.18437 0 0 1-6.95707 9.28755 8.35133 8.35133 0 0 1-1.23084.0912 8.23914 8.23914 0 0 1-8.16715-6.96652M184.50565 364.02245c-.04162 0-.08208 0-.12369-.00114a8.22347 8.22347 0 0 1-8.1635-8.28782l.00347-.2325a8.133 8.133 0 0 1 8.4051-8.04963 8.22278 8.22278 0 0 1 8.16465 8.28669l-.00347.23477A8.22946 8.22946 0 0 1 184.50565 364.02245z"/><path fill="#bc7c63" d="M192.16406,434.75c11.49658,28.96777,20.74951,40.94385,52.23682,60.16211a3.49974,3.49974,0,1,0,3.64648-5.97461c-30.22851-18.4502-38.45605-36.25244-49.37744-63.76953-17.19873-43.33643-10.91894-83.58692-5.64453-103.72266a3.468,3.468,0,0,0-.04291-1.88366l-7.25219,9.16326"/><path fill="#aa6a51" d="M214.81258 472.75224a8.12481 8.12481 0 0 1-6.59067-3.33972l-.17971-.24747a8.18287 8.18287 0 0 1 1.92041-11.45586 8.30426 8.30426 0 1 1 4.85 15.043zM196.2439 438.96067a8.24582 8.24582 0 0 1-7.75952-5.413l-.05522-.15284a8.1544 8.1544 0 0 1 4.87818-10.501 8.26313 8.26313 0 0 1 10.59026 4.837l.10583.28742a8.15828 8.15828 0 0 1-4.97134 10.45879A8.31034 8.31034 0 0 1 196.2439 438.96067zM176.32487 394.92852a8.26676 8.26676 0 0 1 16.32507-2.61059c.00577.03306.04614.2964.05075.32946a8.18437 8.18437 0 0 1-6.95707 9.28755 8.35133 8.35133 0 0 1-1.23084.0912 8.23914 8.23914 0 0 1-8.16715-6.96652M184.50565 364.02245c-.04162 0-.08208 0-.12369-.00114a8.22347 8.22347 0 0 1-8.1635-8.28782l.00347-.2325a8.133 8.133 0 0 1 8.4051-8.04963 8.22278 8.22278 0 0 1 8.16465 8.28669l-.00347.23477A8.22946 8.22946 0 0 1 184.50565 364.02245z"/><path fill="#ffbd86" d="M209.31628,322.32062a66.12172,66.12172,0,0,0,7.42853,5.37732,8.13167,8.13167,0,0,0,1.52844,4.89331l.17969.2475a8.125,8.125,0,0,0,6.5907,3.33972,8.33892,8.33892,0,0,0,4.89606-1.59485c.03338-.02417.06231-.05206.09527-.07666a73.75856,73.75856,0,0,0,16.53742,4.40045,8.20814,8.20814,0,0,0,.87683,1.56207l.17975.2475a8.12467,8.12467,0,0,0,6.59063,3.33966,8.3387,8.3387,0,0,0,4.89606-1.59479,8.06464,8.06464,0,0,0,2.47748-2.91565,73.46726,73.46726,0,0,0,15.49322-2.59735,8.13162,8.13162,0,0,0,5.545,2.183,8.33881,8.33881,0,0,0,4.89605-1.59485,8.13986,8.13986,0,0,0,3.33051-5.92761q10.44232-6.85658,20.88458-13.7132a23.583,23.583,0,0,1-4.24493-2.73l-.00006-.00006c-2.15821-1.17176-4.0766-1.3432-4.74622-.53314a1.34849,1.34849,0,0,0-.278.87231c-.04529.036-.09577.06116-.13971.09973a70.064,70.064,0,0,1-13.8963,9.38947,8.28081,8.28081,0,0,0-10.65589-.9057,8.17782,8.17782,0,0,0-3.44427,6.35492,66.64925,66.64925,0,0,1-12.54175,2.07324,8.31271,8.31271,0,0,0-12.42572-3.50336,8.179,8.179,0,0,0-2.48932,2.83765,67.193,67.193,0,0,1-13.582-3.66046,8.31833,8.31833,0,0,0-13.10468-7.05542c-.09283.06591-.17584.14013-.26507.2091a69.26643,69.26643,0,0,1-11.11847-8.89227,3.46782,3.46782,0,0,0-.83246-.59943c-.68976-.53735-1.3396-1.02728-1.95557-1.4768a23.70156,23.70156,0,0,1-4.21063,4.576A65.99849,65.99849,0,0,0,209.31628,322.32062Z"/><path fill="#bc7c63" d="M257.32178,334.22754c.07959.00049.15918.00049.23877.00049,25.51123,0,43.24951-13.147,49.70507-18.813.08716-.07648.15418-.166.23188-.2489a23.69263,23.69263,0,0,1-4.71033-5.11157c-.04529.036-.09576.06115-.13971.09973-5.87646,5.1582-22.02441,17.13965-45.30322,17.07324-26.11182-.08447-43.50977-15.50293-48.22022-20.22608a3.46785,3.46785,0,0,0-.83246-.59942,23.71911,23.71911,0,0,1-3.76361,5.89856C211.46356,319.14746,229.79248,334.13873,257.32178,334.22754Z"/><path fill="#aa6a51" d="M254.53351 338.60594a8.12478 8.12478 0 0 1-6.59066-3.33972l-.17972-.24747a8.18287 8.18287 0 0 1 1.92041-11.45586 8.30425 8.30425 0 1 1 4.85 15.043zM225.35753 330.72772a8.1248 8.1248 0 0 1-6.59067-3.33972l-.17971-.24747a8.18287 8.18287 0 0 1 1.9204-11.45586 8.30425 8.30425 0 1 1 4.85 15.043zM282.94525 333.6811a8.12478 8.12478 0 0 1-6.59066-3.33972l-.17972-.24747a8.18287 8.18287 0 0 1 1.92041-11.45586 8.30426 8.30426 0 1 1 4.85 15.043z"/><path fill="#fd6930" d="M445.69116,512l.02552-103.21081a71.03585,71.03585,0,0,0-43.00376-65.29274l-33.53145-14.40084a35.51793,35.51793,0,0,0-44.61388,14.59953L225.47115,512Z"/><path fill="#ef4424" d="M402.71289,343.49646l-33.53143-14.40088a35.51912,35.51912,0,0,0-36.51746,5.15723,35.40787,35.40787,0,0,1,22.51746,1.84277l33.53143,14.40088a71.03583,71.03583,0,0,1,43.00378,65.29272L431.69287,512h13.99829l.02551-103.21082A71.03583,71.03583,0,0,0,402.71289,343.49646Z"/><path fill="#fd5426" d="M268.45752 511.78857a3.50067 3.50067 0 0 1-2.852-5.5249c14.36133-20.25293 27.99609-41.38721 40.52588-62.81494 11.042-18.88379 21.48242-38.43457 31.03125-58.11035a3.50021 3.50021 0 1 1 6.29785 3.05664c-9.62793 19.83691-20.15381 39.54834-31.28613 58.58691-12.63282 21.604-26.37989 42.91162-40.85889 63.33057A3.49509 3.49509 0 0 1 268.45752 511.78857zM359.62012 511.78809a3.5 3.5 0 0 1-2.82178-5.56641c11.49512-15.71484 22.3667-32.1626 32.3125-48.88672 10.40967-17.50293 20.06006-35.73535 28.68311-54.19043a3.49989 3.49989 0 0 1 6.34179 2.96289c-8.7207 18.66455-18.48047 37.104-29.0083 54.80567-10.05908 16.91406-21.05371 33.54834-32.67969 49.4414A3.49415 3.49415 0 0 1 359.62012 511.78809zM356.2666 445.17383a3.5 3.5 0 0 1-2.73779-5.67725 288.29545 288.29545 0 0 0 40.14795-67.84619 3.5 3.5 0 0 1 6.45508 2.708 295.29529 295.29529 0 0 1-41.12256 69.49267A3.49363 3.49363 0 0 1 356.2666 445.17383z"/><polygon fill="#ef4424" points="298.659 295.281 298.659 265.233 281.311 265.233 298.659 295.281"/><path fill="#ffbd86" d="M442.74048,482.83716,355.21942,331.24634l-39.6499-11.82715a23.68445,23.68445,0,0,1-3.86554-1.54376l109.62268,189.872A15.42806,15.42806,0,0,0,424.9635,512h17.777Z"/><path fill="#ef4424" d="M355.21942,331.24634l-11.03491-3.29163a35.4323,35.4323,0,0,0-18.5492,14.05048l95.69135,165.74219A15.42806,15.42806,0,0,0,424.9635,512h17.777V482.83716Z"/><rect width="31" height="382" x="338.5" y="150.01" fill="#bc7c63" rx="15.5" transform="rotate(-30 354 341.01)"/><path fill="#935b44" d="M455.17334,485.24738,279.6734,181.27246a15.48534,15.48534,0,0,0-14.45361-7.70148c.15185.23328.3128.45758.45361.70148L441.17334,478.24738a15.47386,15.47386,0,0,1-12.39307,23.20147,15.48987,15.48987,0,0,0,26.39307-16.20147Z"/><path fill="#ffbd86" d="M357.08617 187.46754v-.00015s.218-7.59525.58017-17.105A15.548 15.548 0 0 0 342.134 154.2226h-6.97259v47.63926h6.4227A15.59261 15.59261 0 0 0 357.073 187.61143zM173.86834 154.2226h-6.88186a15.548 15.548 0 0 0-15.53233 16.13975c.36212 9.50977.58012 17.105.58012 17.105v.00015l.0132.14389a15.59261 15.59261 0 0 0 15.48885 14.25043h6.332z"/><path fill="#ffbd86" fill-rule="evenodd" d="M210.37036,265.23328v23.82763a80.389,80.389,0,0,0,58.14441,24.79425h.00012a80.33322,80.33322,0,0,0,32.51239-6.84442,23.60406,23.60406,0,0,1-2.368-10.28222V265.23328Z"/><rect width="161.293" height="234.49" x="173.868" y="58.365" fill="#fed2a4" rx="80.646"/><path fill="#ffbd86" fill-rule="evenodd" d="M283.35938,63.69843a80.57216,80.57216,0,0,1,37.80194,68.313v73.19733a80.64641,80.64641,0,0,1-80.64643,80.64642h-.00012a80.41656,80.41656,0,0,1-28.84448-5.33343,80.24223,80.24223,0,0,0,42.84448,12.33343h.00012a80.64641,80.64641,0,0,0,80.64643-80.64642V139.01141A80.65993,80.65993,0,0,0,283.35938,63.69843Z"/><path fill="#ffae71" d="M298.39062 196.20947c-.20314 0-.40673-.00244-.61279-.00732a26.35065 26.35065 0 0 1-13.9458-4.396 3.49979 3.49979 0 0 1 3.86914-5.833 19.35952 19.35952 0 0 0 10.2417 3.231 19.66445 19.66445 0 0 0 11.1543-3.23193 3.50007 3.50007 0 0 1 3.86719 5.835A26.71015 26.71015 0 0 1 298.39062 196.20947zM210.62305 196.20947c-.20313 0-.40674-.00244-.6128-.00732a26.35107 26.35107 0 0 1-13.94629-4.396 3.4998 3.4998 0 0 1 3.86915-5.833 19.36137 19.36137 0 0 0 10.24218 3.231 19.67114 19.67114 0 0 0 11.1543-3.23193 3.50007 3.50007 0 0 1 3.86719 5.835A26.71014 26.71014 0 0 1 210.62305 196.20947zM254.50391 260.95312q-.37573 0-.75684-.00878a32.60667 32.60667 0 0 1-17.25146-5.438 3.5002 3.5002 0 1 1 3.86914-5.834 25.60923 25.60923 0 0 0 13.54736 4.27393 25.99825 25.99825 0 0 0 14.75342-4.27441 3.50007 3.50007 0 1 1 3.86718 5.835A33.04669 33.04669 0 0 1 254.50391 260.95312z"/><path fill="#fd4755" d="M254.51172,181.25732a14.17138,14.17138,0,0,1-14.15527-14.15527V141.05566a3.5,3.5,0,0,1,7,0v26.04639a7.15552,7.15552,0,0,0,14.311,0V141.05566a3.5,3.5,0,0,1,7,0v26.04639A14.17149,14.17149,0,0,1,254.51172,181.25732Z"/></svg>