<svg xmlns="http://www.w3.org/2000/svg" data-name="Layer 1" viewBox="0 0 512 512"><path fill="#efedef" d="M25.85742,273.69385a3.5,3.5,0,0,1-2.71289-5.709,70.57087,70.57087,0,0,1,26.46875-20.17578,69.3004,69.3004,0,0,1,21.04395-5.41015,3.5,3.5,0,1,1,.666,6.96826A62.311,62.311,0,0,0,52.40137,254.23a63.53478,63.53478,0,0,0-23.82715,18.17285A3.49291,3.49291,0,0,1,25.85742,273.69385Z"/><path fill="#efedef" d="M50.15674,309.30713c-.10986,0-.2207-.00488-.33252-.01563a3.49931,3.49931,0,0,1-3.15576-3.813A137.22764,137.22764,0,0,1,67.93262,244.019a3.49981,3.49981,0,0,1,5.88476,3.79,130.2508,130.2508,0,0,0-20.18017,58.32666A3.50015,3.50015,0,0,1,50.15674,309.30713Z"/><path fill="#fee903" d="M255.99994,24.5A113.11313,113.11313,0,1,0,369.11316,137.6131,113.11309,113.11309,0,0,0,255.99994,24.5Zm0,191.22607a78.113,78.113,0,1,1,78.11328-78.11279A78.20137,78.20137,0,0,1,255.99994,215.72607Z"/><path fill="#09a76d" d="M182.79541,202.51172a3.4927,3.4927,0,0,1-2.68262-1.24951c-1.77636-2.11573-3.48535-4.3335-5.0791-6.59131a3.49988,3.49988,0,0,1,5.71826-4.03711c1.48194,2.09863,3.07032,4.16016,4.72217,6.12744a3.5,3.5,0,0,1-2.67871,5.75049Z"/><path fill="#fd4755" d="M333.98145 196.32715a3.50068 3.50068 0 0 1-2.85206-5.5249c1.48633-2.0962 2.90088-4.2793 4.20508-6.48877a3.4999 3.4999 0 1 1 6.02832 3.55761c-1.40283 2.377-2.9248 4.72559-4.52343 6.98A3.49507 3.49507 0 0 1 333.98145 196.32715zM168.92773 180.49854a3.50069 3.50069 0 0 1-3.18994-2.05665c-1.14209-2.52148-2.18945-5.12011-3.11279-7.7246a3.5 3.5 0 1 1 6.59766-2.33887c.85742 2.41894 1.83056 4.833 2.89111 7.1748a3.502 3.502 0 0 1-3.186 4.94532z"/><path fill="#09a76d" d="M346.001,173.25977a3.50273,3.50273,0,0,1-3.2959-4.67823c.86181-2.41406,1.63281-4.89843,2.29-7.38427a3.50016,3.50016,0,0,1,6.76758,1.79c-.708,2.67579-1.5376,5.3501-2.46582,7.94874A3.5009,3.5009,0,0,1,346.001,173.25977Z"/><path fill="#fd4755" d="M351.31689,147.79688c-.08105,0-.1621-.00245-.24414-.00831a3.49989,3.49989,0,0,1-3.251-3.73242c.147-2.13232.22168-4.2998.22168-6.44287q0-.64673-.00879-1.292a3.49939,3.49939,0,0,1,3.44971-3.54932l.05078-.00049a3.49959,3.49959,0,0,1,3.49853,3.4502q.01026.69507.00977,1.3916c0,2.30322-.08008,4.63281-.23828,6.92432A3.50027,3.50027,0,0,1,351.31689,147.79688Z"/><path fill="#09a76d" d="M349.59521,121.84033a3.50113,3.50113,0,0,1-3.42529-2.79834c-.51513-2.51562-1.14453-5.03906-1.87012-7.50049a3.4998,3.4998,0,1,1,6.71387-1.97949c.78174,2.6499,1.459,5.36719,2.01367,8.07569a3.50268,3.50268,0,0,1-3.43213,4.20263Z"/><path fill="#fd4755" d="M340.93652,97.311a3.49892,3.49892,0,0,1-3.1123-1.89405c-1.17774-2.27929-2.46875-4.53906-3.8374-6.71631a3.5,3.5,0,0,1,5.92675-3.72461c1.47266,2.34278,2.86182,4.77442,4.1294,7.228a3.501,3.501,0,0,1-3.10645,5.10694Z"/><path fill="#09a76d" d="M325.95508,76.03564a3.49066,3.49066,0,0,1-2.563-1.11523c-1.752-1.88232-3.603-3.71191-5.502-5.4375a3.50016,3.50016,0,1,1,4.708-5.18066c2.04248,1.85693,4.0337,3.8247,5.918,5.84863a3.5,3.5,0,0,1-2.561,5.88476Z"/><path fill="#fac600" d="M248.99994 59.82965c-2.30792-.206-4.63934-.32965-7-.32965a78.113 78.113 0 1 0 0 156.22607c2.36066 0 4.69208-.12359 7-.32965a78.0962 78.0962 0 0 1 0-155.56677zM255.99994 24.5c-2.35156 0-4.684.08051-7 .22192a113.10768 113.10768 0 0 1 0 225.78241c2.316.14142 4.64844.22193 7 .22193a113.11313 113.11313 0 1 0 0-226.22626z"/><path fill="#aa6a51" d="M154.50062,494.2574h0a16.5,16.5,0,0,0,11.66725-20.20827L90.20451,190.54987c-.91126,2.74087-4.505,12.43137-14.62311,18.13294a31.28273,31.28273,0,0,1-13.629,3.931l72.33992,269.97629A16.5,16.5,0,0,0,154.50062,494.2574Z"/><path fill="#935b44" d="M166.16791,474.04907,90.20453,190.54987a33.83693,33.83693,0,0,1-10.00433,14.912l71.96771,268.58722a16.49292,16.49292,0,0,1-8.94489,19.20056,16.42481,16.42481,0,0,0,11.27759,1.00776h.00006A16.5,16.5,0,0,0,166.16791,474.04907Z"/><rect width="33" height="33" x="74.583" y="241.081" fill="#d9b3a6" transform="rotate(165 91.083 257.58)"/><polygon fill="#d1a08f" points="89.689 240.873 98.23 272.748 111.292 269.248 105.333 247.009 102.751 237.373 89.689 240.873"/><rect width="33" height="33" x="114.442" y="389.834" fill="#fff" stroke="#000" stroke-linecap="round" stroke-linejoin="round" stroke-width="7" transform="rotate(165 130.942 406.334)"/><circle cx="101.713" cy="297.25" r="5" fill="#edd9d3"/><circle cx="110.771" cy="331.057" r="5" fill="#edd9d3"/><circle cx="119.83" cy="364.865" r="5" fill="#edd9d3"/><circle cx="139.759" cy="439.241" r="5"/><circle cx="148.818" cy="473.048" r="5"/><path fill="#3c3b42" d="M120.8752,408.44693c4.49925-12.3551,15.77487-8.249,20.27412-20.604,4.49979-12.35657-6.77582-16.46272-2.276-28.81929,4.49986-12.35676,15.77548-8.25061,20.27534-20.60738,4.4998-12.35658-6.77582-16.46273-2.276-28.81932,4.5-12.3572,15.77563-8.25105,20.27565-20.60824,4.50064-12.3589-6.775-16.465-2.27434-28.82394s15.77626-8.25275,20.2769-20.61165l126-31.10614c4.50063,12.35889-6.775,16.465-2.27434,28.82394s15.77625,8.25274,20.27689,20.61164c4.5,12.35719-6.7756,16.46334-2.27558,28.82054,4.4998,12.35659,15.77542,8.25044,20.27521,20.607,4.49986,12.35677-6.77575,16.46292-2.27589,28.81968,4.49979,12.35657,15.77541,8.25042,20.2752,20.607,4.49925,12.35509-6.77636,16.46124-2.27711,28.81633Z"/><path fill="#2c2c2e" d="M326,294.23535a18.16417,18.16417,0,0,0,12.18646-4.69086,18.4351,18.4351,0,0,1-1.30865-2.84143c-3.58655-9.84875,2.84088-14.45983,3.32287-22.18066A18.25144,18.25144,0,1,0,326,294.23535Z"/><path fill="#2c2c2e" fill-rule="evenodd" d="M375.15228,356.73676a19.28734,19.28734,0,0,0-.8529-1.98932c-.71558-.24311-1.43622-.477-2.16516-.69446l-64.56476-19.259q-.80148-.23907-1.56991-.54022a7.97033,7.97033,0,0,1-2.51043-13.182,67.92055,67.92055,0,0,0,20.62923-48.83794c-.00031-16.684-.00049-19.38051-.00061-25.24775a40.20634,40.20634,0,0,0-16.83455-32.7145l-.49291-.3521a48.27409,48.27409,0,0,0-34.50293-8.561L256,207.55176l-16.28729-2.19324a48.275,48.275,0,0,0-34.499,8.55822l-.49024.35012a40.21819,40.21819,0,0,0-16.84112,32.72583c-.00012,6.594-.0003,9.76018-.00067,27.28856A65.71752,65.71752,0,0,0,207.804,321.51266a7.92132,7.92132,0,0,1-3.10665,13.19975q-.13295.04167-.26678.0816l-62.15521,18.54022a16.16013,16.16013,0,0,0-3.402,5.68933c-4.49982,12.35657,6.77582,16.46277,2.27606,28.81934-4.49926,12.3551-15.7749,8.2489-20.27417,20.604l252-22.89386C368.376,373.19794,379.65155,369.0918,375.15228,356.73676Z"/><path fill="#2c2c2e" d="M375.15228,356.73676c-4.49975-12.35663-15.77539-8.25043-20.27514-20.607-4.49988-12.35681,6.77575-16.46295,2.27588-28.8197-4.49982-12.35657-15.77546-8.25043-20.27521-20.607-4.50006-12.35723,6.77557-16.46337,2.27557-28.82055-4.50067-12.35889-15.77624-8.25275-20.27692-20.61164s6.775-16.46508,2.27436-28.824l-13.13025,3.24152c1.672,9.95037-7.22687,14.371-3.14411,25.58245,4.50068,12.35889,15.77625,8.25275,20.27692,20.61164,4.5,12.35718-6.77563,16.46332-2.27557,28.82055,4.49975,12.35657,15.77539,8.25043,20.27521,20.607,4.49987,12.35675-6.77576,16.46289-2.27588,28.8197,4.49975,12.35657,15.77539,8.25037,20.27514,20.607,4.49927,12.355-6.7763,16.46118-2.2771,28.81628L121.41479,407.126c-.188.42047-.37011.85547-.53961,1.32092l252-22.89386C368.376,373.19794,379.65155,369.0918,375.15228,356.73676Z"/><circle cx="326" cy="268.981" r="18.255" fill="#fee903"/><path fill="#fac600" d="M334.919,253.06183a18.24274,18.24274,0,0,1-24.838,24.838,18.2493,18.2493,0,1,0,24.838-24.838Z"/><path fill="#2c2c2e" d="M176.121,291.31659a18.2489,18.2489,0,1,0-1.798-29.36249c-2.8512,10.99567,7.10077,15.29382,2.82519,27.03455A18.93679,18.93679,0,0,1,176.121,291.31659Z"/><circle cx="186" cy="268.981" r="18.255" fill="#fee903"/><path fill="#fee903" d="M324,234.5H188l-7.5817-60.11207a67.9738,67.9738,0,0,1,40.75536-71.023L256,88.5l34.82634,14.8649a67.9738,67.9738,0,0,1,40.75536,71.023Z"/><path fill="#fac600" d="M228.6768 82.14889a50.43369 50.43369 0 0 1-87.35371 50.43368c-11.6401-20.16125 4.23727-63.12313 9.76519-76.68813a5.91527 5.91527 0 0 1 6.292-3.63272C171.89192 54.2569 217.0367 61.98764 228.6768 82.14889zM290.82635 103.36493L256 88.5l-7 2.98779 27.82635 11.87714a67.97379 67.97379 0 0 1 40.75538 71.023L310 234.5h14l7.58173-60.11206A67.97379 67.97379 0 0 0 290.82635 103.36493z"/><path fill="#8ac9fe" d="M414.98363,502V425.54959a60,60,0,0,0-42.8494-57.49658l-64.56475-19.259a20,20,0,0,1-14.28313-19.16553V310.02624h-74.5727v19.60228a20,20,0,0,1-14.28313,19.16553l-64.56475,19.259a60,60,0,0,0-42.8494,57.49658V502a10,10,0,0,0,10,10H404.98363A10,10,0,0,0,414.98363,502Z"/><path fill="#26a6fe" d="M278.31689 493.18311A22.31689 22.31689 0 1 0 244.00812 512h23.98376A22.294 22.294 0 0 0 278.31689 493.18311zM198.09045 357.68518a80.30894 80.30894 0 0 0 44.10279 23.52423 4.8592 4.8592 0 0 1 3.9577 4.08252 15.77691 15.77691 0 0 1-6.41235 15.17835 5.64092 5.64092 0 0 0 .28155 9.23828l14.65839 9.77227a2.4238 2.4238 0 0 0 2.68915 0l14.65844-9.77227a5.64093 5.64093 0 0 0 .28156-9.23828 15.77635 15.77635 0 0 1-6.41236-15.17847 4.85909 4.85909 0 0 1 3.95765-4.0824 80.25146 80.25146 0 0 0 44.07757-23.51794l-6.36108-1.89746a19.95191 19.95191 0 0 1-9.55268-6.26545 63.38574 63.38574 0 0 1-84.01416-.024 19.951 19.951 0 0 1-9.57208 6.28943z"/><path fill="#fee903" d="M198.09045,350.68518a80.30894,80.30894,0,0,0,44.10279,23.52423,4.8592,4.8592,0,0,1,3.9577,4.08252,15.77691,15.77691,0,0,1-6.41235,15.17835,5.64092,5.64092,0,0,0,.28155,9.23828l14.65839,9.77227a2.4238,2.4238,0,0,0,2.68915,0l14.65844-9.77227a5.64093,5.64093,0,0,0,.28156-9.23828,15.77635,15.77635,0,0,1-6.41236-15.17847,4.85909,4.85909,0,0,1,3.95765-4.0824,80.25146,80.25146,0,0,0,44.07757-23.51794l-6.36108-1.89746a19.95191,19.95191,0,0,1-9.55268-6.26545,63.38574,63.38574,0,0,1-84.01416-.024,19.951,19.951,0,0,1-9.57208,6.28943Z"/><path fill="#fac600" d="M245.8924 377.32941a15.80433 15.80433 0 0 0 .25854-6.03748 4.8592 4.8592 0 0 0-3.9577-4.08252 80.11206 80.11206 0 0 1-38.457-18.20831l-5.64582 1.68408a80.30894 80.30894 0 0 0 44.10279 23.52423A4.83284 4.83284 0 0 1 245.8924 377.32941zM269.853 367.20941a4.85909 4.85909 0 0 0-3.95765 4.0824 15.80169 15.80169 0 0 0 .25855 6.03766 4.83259 4.83259 0 0 1 3.6991-3.12006 80.25146 80.25146 0 0 0 44.07757-23.51794l-5.6449-1.68384A80.04286 80.04286 0 0 1 269.853 367.20941zM272.02612 395.70856l-14.65844 9.77227a2.4238 2.4238 0 0 1-2.68915 0l-14.65839-9.77227a5.68646 5.68646 0 0 1-1.33337-1.24945 5.68832 5.68832 0 0 0 1.33337 8.24945l14.65839 9.77227a2.4238 2.4238 0 0 0 2.68915 0l14.65844-9.77227a5.68832 5.68832 0 0 0 1.33338-8.24945A5.68671 5.68671 0 0 1 272.02612 395.70856z"/><path fill="#26a6fe" d="M317.87634,351.86841a5.94634,5.94634,0,0,0-.75866,2.91272v3.89435l-9.65863-2.88111a19.99573,19.99573,0,0,1-2.19739-.81488l-.09473,1.28705v36.96112a43.97815,43.97815,0,0,1-22.688,38.48126L255.8891,446.42l-26.58936-14.71112A43.9791,43.9791,0,0,1,206.61157,393.227V356.26672l-.16327-1.257a20.0121,20.0121,0,0,1-2.12823.7846l-34.1579,10.189.09766,1.12671v26.11676a80.35385,80.35385,0,0,0,41.44171,70.28967l44.18756,24.44794,44.18762-24.44794a80.15845,80.15845,0,0,0,12.11742-8.23351,2.999,2.999,0,0,1,4.92354,2.29552V512h28V359.99426Z"/><path fill="#fee903" d="M211.70151,456.51653l44.18762,24.44793,44.18756-24.44793a80.3538,80.3538,0,0,0,41.44251-70.28968V360.11009l.31866-1.06079L307.459,348.79442a19.99837,19.99837,0,0,1-2.19738-.81488l-.09473,1.28705V386.227A43.979,43.979,0,0,1,282.479,424.709l-26.58984,14.71112L229.29971,424.709A43.97926,43.97926,0,0,1,206.61154,386.227V349.26677l-.16327-1.257a20.00811,20.00811,0,0,1-2.12823.78461l-34.1579,10.189.09772,1.12671v26.11676A80.35382,80.35382,0,0,0,211.70151,456.51653Z"/><path fill="#fac600" d="M307.45905 348.79437a19.99573 19.99573 0 0 1-2.19739-.81488l-.09473 1.28705v3.0202l22.6709 6.76252-.3186 1.06079v26.11676a80.3539 80.3539 0 0 1-41.44251 70.28967l-37.18762 20.575 7 3.87293 44.18762-24.44794a80.3539 80.3539 0 0 0 41.44251-70.28967V360.11005l.3186-1.06079zM192.61157 386.227a43.97924 43.97924 0 0 0 22.68817 38.48193q16.06785 8.93288 32.13563 17.86576a5.92962 5.92962 0 0 0 8.42924-3.08968l.02449-.06493-26.58968-14.71132A43.97884 43.97884 0 0 1 206.61157 386.227V349.26672l-.16327-1.257a20.0121 20.0121 0 0 1-2.12823.7846l-11.7085 3.49256z"/><path fill="#26a6fe" d="M342.63628 244.34186v-.00012s.18014-6.27571.48-14.18463a13.38662 13.38662 0 0 0-13.37237-13.8954H317.11766v40.23822h12.1938a13.3808 13.3808 0 0 0 13.32481-12.15807zM194.88243 216.26172H182.06971a13.13253 13.13253 0 0 0-13.11929 13.63234c.30587 8.03237.49 14.44768.49 14.44768v.00012l.01116.12154a13.1702 13.1702 0 0 0 13.08256 12.03654h12.3483z"/><path fill="#26a6fe" fill-rule="evenodd" d="M218.71362,310.02625V325.033a66.35466,66.35466,0,0,0,42.5835,15.32391h1.70355a67.79818,67.79818,0,0,0,30.59461-7.26227,20.0058,20.0058,0,0,1-.3089-3.46612V310.02625Z"/><path fill="#8ac9fe" fill-rule="evenodd" d="M256.00069,326.35688h-1.70358a66.14747,66.14747,0,0,1-66.41549-66.0756c.00039-17.53191.00059-20.69581.0007-27.29249a40.21034,40.21034,0,0,1,16.83557-32.71794l.49285-.352a48.27532,48.27532,0,0,1,34.50194-8.56027L256,193.55175l16.28734-2.19321a48.27425,48.27425,0,0,1,34.50159,8.56l.49291.35208a40.20929,40.20929,0,0,1,16.83587,32.71713c.0001,5.86606.00029,8.56361.00065,25.2461A68.121,68.121,0,0,1,256.00069,326.35688Z"/><path fill="#26a6fe" fill-rule="evenodd" d="M324.11774,232.98773a40.20924,40.20924,0,0,0-16.83588-32.7171l-.49292-.35211a48.2512,48.2512,0,0,0-13.72742-6.8053l.22034.15741a40.20924,40.20924,0,0,1,16.83588,32.7171c.00012,5.86609.0003,8.56366.00061,25.2461a68.121,68.121,0,0,1-68.11768,68.123h-1.70355a66.8382,66.8382,0,0,1-22.62787-3.91882,66.40926,66.40926,0,0,0,36.62787,10.91882h1.70355a68.121,68.121,0,0,0,68.11768-68.123C324.118,241.55139,324.11786,238.85382,324.11774,232.98773Z"/><path fill="#26a6fe" fill-rule="evenodd" d="M187.88232,246.98877a40.21035,40.21035,0,0,1,16.83558-32.718l.49285-.352a48.27552,48.27552,0,0,1,34.502-8.5603L256,207.55176l16.28735-2.19324a48.27438,48.27438,0,0,1,34.50159,8.56l.49292.35211a40.20924,40.20924,0,0,1,16.83588,32.7171c.00006,3.616.00018,6.03229.0003,11.25818l.00031-.01208c-.00031-16.68244-.00049-19.38-.00061-25.2461a40.20924,40.20924,0,0,0-16.83588-32.7171l-.49292-.35211a48.27438,48.27438,0,0,0-34.50159-8.56L256,193.55176l-16.28729-2.19324a48.27552,48.27552,0,0,0-34.502,8.5603l-.49285.352a40.21035,40.21035,0,0,0-16.83558,32.718c-.00012,6.59668-.0003,9.76062-.00067,27.29248l.00031.01282C187.88214,254.08862,187.88226,251.2536,187.88232,246.98877Z"/><rect width="78.167" height="20.291" x="216.916" y="95.479" fill="#fee903" rx="10.145"/><path fill="#fac600" d="M216.91638,105.62445a10.14538,10.14538,0,0,0,10.14539,10.14539h7.6662a50.30246,50.30246,0,0,0-.71558-20.29078h-6.95062A10.14538,10.14538,0,0,0,216.91638,105.62445Z"/><path fill="#fac600" d="M284.60182 95.47906h-4.02131a10.10667 10.10667 0 0 1 .35363 4.88195 10.40194 10.40194 0 0 1-10.35195 8.40883h-53.1627a10.14548 10.14548 0 0 0 9.64228 7h57.87646a10.14545 10.14545 0 0 0 10.14365-10.33541A10.36629 10.36629 0 0 0 284.60182 95.47906zM212.80566 33.0481a48.85874 48.85874 0 0 0-7.53161 45.23626 77.86065 77.86065 0 0 1 89.4574-8.46264A48.88924 48.88924 0 0 0 279.721 26.99939a113.54826 113.54826 0 0 0-66.91535 6.04871z"/><path fill="#fee903" d="M280.6205,95.47906h-49.241A17.884,17.884,0,0,1,215.65644,86.117h0a48.97153,48.97153,0,0,1,0-46.67137h0a48.97126,48.97126,0,0,1,13.578-15.77161L256,3.5l26.76552,20.174a48.97126,48.97126,0,0,1,13.578,15.77161h0a48.97153,48.97153,0,0,1,0,46.67137h0A17.884,17.884,0,0,1,280.6205,95.47906Z"/><path fill="#fac600" d="M234.01239,95.47906a50.418,50.418,0,0,0-5.33557-13.3302c-3.63623-6.29809-10.54212-11.383-18.76221-15.45916a48.91234,48.91234,0,0,0,5.74182,19.4273,17.88413,17.88413,0,0,0,15.72309,9.36206Z"/><path fill="#fac600" d="M296.34357,39.44562A48.97074,48.97074,0,0,0,282.7655,23.674L256,3.5l-2.35645,1.77612L268.7655,16.674a48.97074,48.97074,0,0,1,13.57807,15.77161q.45363.83694.87248,1.68678c12.35452,25.06171-6.59,54.34666-34.5314,54.34666H217.37952c-.062,0-.12311-.00567-.185-.00628a17.87867,17.87867,0,0,0,14.185,7.00628h49.241a17.75144,17.75144,0,0,0,15.58259-9.10467A48.97158,48.97158,0,0,0,296.34357,39.44562Z"/><circle cx="256" cy="156.815" r="12.474" fill="#fd4755"/><path fill="#fb2b3a" d="M260.59094,145.22351a12.4577,12.4577,0,0,1-16.18188,16.18207,12.46972,12.46972,0,1,0,16.18188-16.18207Z"/><circle cx="256" cy="489.683" r="18.817" fill="#fee903"/><path fill="#fac600" d="M256.65887,470.89941A18.80631,18.80631,0,0,1,242,501.5c-.22241,0-.43829-.02563-.65887-.03326a18.80743,18.80743,0,1,0,15.31774-30.56733Z"/><circle cx="305" cy="163.815" r="8.16" fill="#09a76d"/><path fill="#02905d" d="M305.94067,155.71265a8.15172,8.15172,0,0,1-6.86462,12.56128,8.22311,8.22311,0,0,1-.94074-.05835,8.15677,8.15677,0,1,0,7.80536-12.50293Z"/><circle cx="207" cy="163.815" r="8.16" fill="#09a76d"/><path fill="#02905d" d="M207.94068,155.71265a8.15174,8.15174,0,0,1-6.86463,12.56128,8.22279,8.22279,0,0,1-.94073-.05835,8.15677,8.15677,0,1,0,7.80536-12.50293Z"/><path fill="#26a6fe" d="M293.05957 245.26953c-.17578 0-.35205-.00195-.53027-.00635a22.79723 22.79723 0 0 1-12.06739-3.80371 3.49979 3.49979 0 0 1 3.86914-5.833 15.81 15.81 0 0 0 8.3628 2.63868 16.0832 16.0832 0 0 0 9.1084-2.63965 3.50007 3.50007 0 0 1 3.86718 5.835A23.11 23.11 0 0 1 293.05957 245.26953zM218.92676 245.26953c-.17578 0-.352-.00195-.53028-.00635a22.79259 22.79259 0 0 1-12.06738-3.80371 3.50007 3.50007 0 0 1 3.87012-5.833 15.7972 15.7972 0 0 0 8.36182 2.63868 16.059 16.059 0 0 0 9.10888-2.63965 3.50007 3.50007 0 1 1 3.86719 5.835A23.11052 23.11052 0 0 1 218.92676 245.26953zM255.99072 299.95508c-.21582 0-.43261-.00244-.65185-.00781A28.06994 28.06994 0 0 1 240.479 295.2627a3.50007 3.50007 0 0 1 3.87012-5.833 21.0781 21.0781 0 0 0 11.15479 3.51953 21.3701 21.3701 0 0 0 12.14843-3.52051 3.50007 3.50007 0 1 1 3.86719 5.835A28.457 28.457 0 0 1 255.99072 299.95508zM198.71045 511.82129q-.17066 0-.34424-.01709c-20.52881-2.00195-37.8501-13.83789-45.2041-30.88867-6.50293-15.08008-3.31934-29.9209.49707-39.71485a3.5 3.5 0 1 1 6.52246 2.541c-3.34033 8.57373-6.15478 21.50146-.5918 34.40185 6.34473 14.71045 21.46338 24.939 39.45606 26.69385a3.50023 3.50023 0 0 1-.33545 6.98389z"/><path fill="#26a6fe" d="M152.93164,512a3.49986,3.49986,0,0,1-3.5-3.5V462.355a3.5,3.5,0,0,1,7,0V508.5A3.49985,3.49985,0,0,1,152.93164,512Z"/><circle cx="193.927" cy="482.203" r="3.5" fill="#26a6fe"/><circle cx="256" cy="398.612" r="3.5" fill="#26a6fe"/><path fill="#fd4755" d="M256,242a12.51408,12.51408,0,0,1-12.5-12.5v-22a3.5,3.5,0,0,1,7,0v22a5.5,5.5,0,0,0,11,0v-22a3.5,3.5,0,0,1,7,0v22A12.51408,12.51408,0,0,1,256,242Z"/><path fill="#22b37f" d="M221.6768,75.14889a50.43369,50.43369,0,0,1-87.35371,50.43368c-11.6401-20.16125,4.23727-63.12313,9.76519-76.68813a5.91527,5.91527,0,0,1,6.292-3.63272C164.89192,47.2569,210.0367,54.98764,221.6768,75.14889Z"/><path fill="#02905d" d="M221.67682,75.14886c-11.64014-20.16125-56.78491-27.892-71.29651-29.88714a5.90017,5.90017,0,0,0-4.74573,1.4624c19.07605,3.38214,52.29682,11.54523,62.04224,28.42474a50.43346,50.43346,0,0,1-36.6341,75.15625,50.41919,50.41919,0,0,0,50.6341-75.15625Z"/><path fill="#fe7d43" d="M215.445,98.40624a33.40812,33.40812,0,0,1-57.86456,33.40812c-7.14633-12.37779,1.36508-37.72939,5.56437-48.52742a6.90665,6.90665,0,0,1,7.492-4.32552C182.08786,80.72375,208.29869,86.02845,215.445,98.40624Z"/><path fill="#fd6930" d="M215.445,98.40625c-7.1463-12.37781-33.35718-17.6825-44.80817-19.44482a6.89915,6.89915,0,0,0-5.49322,1.54083c12.7926,2.66577,30.60363,8.03515,36.30139,17.904A33.41452,33.41452,0,0,1,179.52277,147.777,33.406,33.406,0,0,0,215.445,98.40625Z"/><path fill="#0473ce" d="M209.92518,119.00653a18.32766,18.32766,0,1,1-31.74444,18.32766c-3.38256-5.85875-.37074-17.01581,1.99905-23.77185a7.22518,7.22518,0,0,1,8.15883-4.71051C195.37442,110.17756,206.54262,113.14777,209.92518,119.00653Z"/><path fill="#0067c5" d="M209.92517,119.00653c-3.38257-5.85876-14.55078-8.829-21.58655-10.15472a7.21556,7.21556,0,0,0-5.46069,1.166c6.42456,1.65,13.71368,4.44983,16.33423,8.98871a18.279,18.279,0,0,1-10.50379,26.67481,18.30937,18.30937,0,0,0,21.2168-26.67481Z"/><path fill="#fd4755" d="M275.04674,52.84762,259.70448,69.77244a5,5,0,0,1-7.409,0L236.95326,52.84762a5,5,0,0,1,0-6.71619l15.34226-16.92481a5,5,0,0,1,7.409,0l15.34226,16.92481A5,5,0,0,1,275.04674,52.84762Z"/><path fill="#fb2b3a" d="M275.04675,46.1314,259.70448,29.20661a5,5,0,0,0-7.40895,0L249,32.842l0,0A24.787,24.787,0,0,1,249,66.137h0l3.29553,3.6355a5,5,0,0,0,7.40893,0L275.04675,52.8476A5,5,0,0,0,275.04675,46.1314Z"/><path fill="#fee903" d="M414.98363,502V418.54956A60,60,0,0,0,372.13428,361.053l-40.30156-12.02153a6,6,0,0,0-7.71506,5.74965V512h80.866A10,10,0,0,0,414.98363,502Z"/><path fill="#fac600" d="M372.13428,361.053,331.8327,349.03149a5.99994,5.99994,0,0,0-7.715,5.74964v3.12512l34.0166,10.14673a60.00011,60.00011,0,0,1,42.84936,57.49658V509a9.99115,9.99115,0,0,1-.45923,3h4.45923a10,10,0,0,0,10-10V418.54956A60.00011,60.00011,0,0,0,372.13428,361.053Z"/><path fill="#fe9738" d="M352.11768,508.5V355.08228h0l-20.285-6.05079a5.99994,5.99994,0,0,0-7.715,5.74964V512h28Z"/><path fill="#fe860a" d="M352.11768,355.08228l-20.285-6.05079a5.99994,5.99994,0,0,0-7.715,5.74964v3.12512l28,8.35205Z"/><path fill="#fd4755" d="M31.07163 281.47963l-.76731-12.723a3 3 0 0 0-4.33543-2.50306l-11.40211 5.697a4 4 0 0 0-.21216 7.04232l10.72426 6.19166A4 4 0 0 0 31.07163 281.47963zM54.21925 317.41649l-.7673-12.723a3 3 0 0 0-4.33544-2.50306l-11.40211 5.697a4 4 0 0 0-.21216 7.04232l10.72427 6.19165A4 4 0 0 0 54.21925 317.41649z"/></svg>