<svg xmlns="http://www.w3.org/2000/svg" data-name="Layer 1" viewBox="0 0 512 512"><path fill="#57be92" d="M7.50293 226.7251a3.50017 3.50017 0 0 1-3.5-3.5V203.77539a14.51669 14.51669 0 0 1 14.5-14.5h.46973a3.5 3.5 0 0 1 0 7h-.46973a7.5082 7.5082 0 0 0-7.5 7.5V223.2251A3.50017 3.50017 0 0 1 7.50293 226.7251zM53.06934 202.20947a3.4996 3.4996 0 0 1-2.09668-6.3042c7.93261-5.92431 11.86523-11.21 11.37109-15.28613-.1875-1.543-.9209-2.66748-2.30859-4.68457a28.862 28.862 0 0 1-4.58106-9.19141 30.66925 30.66925 0 0 1 .11426-16.20068 3.50018 3.50018 0 1 1 6.77148 1.77539 23.77193 23.77193 0 0 0-.14355 12.54 22.23362 22.23362 0 0 0 3.60449 7.10791c1.51856 2.20606 3.08887 4.4873 3.49219 7.81055.83594 6.90185-3.78613 14.0122-14.13281 21.7373A3.47843 3.47843 0 0 1 53.06934 202.20947z"/><ellipse cx="75.417" cy="105.631" fill="#fe93d3" rx="31.592" ry="13.698" transform="rotate(-71.867 75.418 105.632)"/><ellipse cx="45.802" cy="105.631" fill="#fe93d3" rx="13.698" ry="31.592" transform="rotate(-18.133 45.802 105.631)"/><ellipse cx="71.906" cy="137.717" fill="#57be92" rx="9.214" ry="21.252" transform="rotate(-47.955 71.906 137.717)"/><ellipse cx="48.214" cy="137.717" fill="#57be92" rx="21.252" ry="9.214" transform="rotate(-42.045 48.214 137.717)"/><ellipse cx="60.06" cy="137.717" fill="#09a76d" rx="9.214" ry="21.252"/><ellipse cx="81.34" cy="116.466" fill="#fe73c5" rx="31.592" ry="13.698" transform="rotate(-48.042 81.34 116.466)"/><ellipse cx="38.78" cy="116.466" fill="#fe73c5" rx="13.698" ry="31.592" transform="rotate(-41.958 38.78 116.466)"/><ellipse cx="60.06" cy="102.907" fill="#fe4fb7" rx="16.065" ry="37.051"/><rect width="109.506" height="63.534" x="402.518" y="123.843" fill="#c68d7a" rx="10" transform="rotate(-60 457.271 155.61)"/><path fill="#aa6a51" d="M503.49829,119.0755,465.79688,97.30859a10.00337,10.00337,0,0,0-11.76246,1.29181l35.46387,20.4751a10.00012,10.00012,0,0,1,3.6604,13.66022l-44.75317,77.51434a9.9891,9.9891,0,0,1-1.89771,2.36847l2.23755,1.29181a9.99989,9.99989,0,0,0,13.66016-3.66028l44.75317-77.51434A10.00012,10.00012,0,0,0,503.49829,119.0755Z"/><path fill="#d9b3a6" d="M493.03125 132.7002a3.48746 3.48746 0 0 1-1.74707-.46924l-30.77344-17.7666a3.50014 3.50014 0 1 1 3.5-6.0625l30.77344 17.7666a3.5004 3.5004 0 0 1-1.75293 6.53174zM452.27832 203.28662a3.48746 3.48746 0 0 1-1.74707-.46924l-30.77344-17.76709a3.50014 3.50014 0 1 1 3.5-6.0625l30.77344 17.76709a3.5004 3.5004 0 0 1-1.75293 6.53174zM459.27832 191.16211a3.48746 3.48746 0 0 1-1.74707-.46924l-30.77344-17.76709a3.50014 3.50014 0 1 1 3.5-6.0625l30.77344 17.76709a3.5004 3.5004 0 0 1-1.75293 6.53174zM486.03125 144.82471a3.48746 3.48746 0 0 1-1.74707-.46924l-30.77344-17.76709a3.50014 3.50014 0 1 1 3.5-6.0625L487.78418 138.293a3.5004 3.5004 0 0 1-1.75293 6.53174z"/><path fill="#fed2a4" d="M418.79642,426.95757l72.294-70.68734a30,30,0,0,0,8.60729-26.44785L482.12421,225.805H446.1801l.1261,87.27616a10,10,0,0,1-3.00882,7.16453L393.522,368.91487Z"/><path fill="#fed2a4" d="M475.32071,228.39734l6.47137-3.07676,7.0117-6.56176a26.31016,26.31016,0,0,0,7.20876-26.81775l-2.61276-8.65A20.09237,20.09237,0,0,0,473.5931,169.0165l-14.749.42048a10.49048,10.49048,0,0,0-8.78083,15.74053l4.25046,7.345a8.23731,8.23731,0,0,1-3.32,11.42923l-1.25746.65591a8.2373,8.2373,0,0,0-4.411,7.8291l.85481,13.36821.0184,12.73181Z"/><path fill="#ffbd86" d="M499.69775,329.82239,481.85044,223.991l-13.72617,1.814,17.57348,104.0174a30.00017,30.00017,0,0,1-8.60742,26.44781l-62.47461,61.08631,4.18067,9.60107,72.29394-70.68738A30.00017,30.00017,0,0,0,499.69775,329.82239Z"/><path fill="#ffbd86" d="M468.93873,228.39734l12.85326-3.07678,7.01126-6.56134a26.311,26.311,0,0,0,7.2092-26.81818l-2.61255-8.65a20.09183,20.09183,0,0,0-19.80627-14.27456l-10.078.28731A20.08452,20.08452,0,0,1,479.3999,183.291l2.61273,8.65062a26.31,26.31,0,0,1-7.20892,26.81715l-7.01172,6.56177h0a1.61671,1.61671,0,0,0,.6942,3.07678Z"/><polygon fill="#fee903" points="486.112 249.407 446.214 249.407 446.254 277.058 490.783 277.058 486.112 249.407"/><polygon fill="#fac600" points="472.112 249.407 476.783 277.058 490.783 277.058 486.112 249.407 472.112 249.407"/><rect width="23.453" height="77.392" x="435.093" y="316.797" fill="#fee903" rx="11.727" transform="rotate(-36.117 446.82 355.494)"/><path fill="#fac600" d="M472.18945,370.3678,440.396,326.795a11.72946,11.72946,0,0,0-12.17652-4.50073l29.97,41.07355a11.73081,11.73081,0,0,1-6.76953,18.325l1.82349,2.49933a11.72671,11.72671,0,1,0,18.946-13.82428Z"/><path fill="#fed2a4" d="M29.74,226.62757l-17.44,103.19a29.98924,29.98924,0,0,0,8.61,26.45l72.29,70.69,25.28-58.05-49.78-48.66a10.02242,10.02242,0,0,1-3.01-7.17l.13-86.16Z"/><path fill="#ffbd86" d="M106.58545,357.28052v.00006L68.7,320.24756a10.02279,10.02279,0,0,1-3.01-7.17l.13013-86.16-36.08008-.29-.019.11237,22.09912.17761-.13013,86.16a10.02279,10.02279,0,0,0,3.01,7.17l39.37586,38.48993a7.95217,7.95217,0,0,1,.78571,10.44582,59.89962,59.89962,0,0,0-11.84516,35.76206v12.054L93.2,426.95758l25.28-58.05Z"/><polygon fill="#fee903" points="25.888 249.405 65.786 249.405 65.746 277.055 21.217 277.055 25.888 249.405"/><polygon fill="#fac600" points="65.744 277.055 65.779 253.878 65.786 249.405 51.786 249.405 51.744 277.055 65.744 277.055"/><rect width="23.453" height="77.392" x="53.454" y="316.795" fill="#fee903" rx="11.727" transform="rotate(-143.883 65.18 355.489)"/><path fill="#fac600" d="M87.98926,324.23169a11.731,11.731,0,0,0-13.918.06634,11.7237,11.7237,0,0,1,2.47876,16.31879L44.75659,384.18964a11.728,11.728,0,0,1-2.467,2.4945c.02832.02118.05322.04541.08179.06635a11.72679,11.72679,0,0,0,16.38525-2.56085l31.79346-43.57282A11.7264,11.7264,0,0,0,87.98926,324.23169Z"/><path fill="#fed2a4" d="M54.9335,230.30857l10.64942-3.31316a19.28451,19.28451,0,0,0,13.55574-18.41395V197.69135A12.85635,12.85635,0,0,0,66.28231,184.835H63.916a10.14843,10.14843,0,0,0-10.14842-10.14843H31.82928a12.85635,12.85635,0,0,0-12.85635,12.85635v21.78831a19.28452,19.28452,0,0,0,12.61776,18.0955l1.91969.70726"/><path fill="#ffbd86" d="M66.28223,184.835H63.916a10.14852,10.14852,0,0,0-10.14844-10.14844h-14A10.14852,10.14852,0,0,1,49.916,184.835h2.36621a12.8563,12.8563,0,0,1,12.85644,12.85639v10.89007a19.28461,19.28461,0,0,1-13.55566,18.414l-7.20557,2.24164,10.55615,1.07147L65.583,226.99542a19.28461,19.28461,0,0,0,13.55566-18.414V197.69135A12.8563,12.8563,0,0,0,66.28223,184.835Z"/><path fill="#ffbd86" d="M18.97293 192.77531H53.80281a7.71379 7.71379 0 0 0 7.38749-5.49395l4.36439-7.52431a7.71381 7.71381 0 0 0-7.3875-9.93366H31.82928a12.85634 12.85634 0 0 0-12.85635 12.85635zM342.60285 246.19839v-.00012s.18015-6.2757.48-14.18463a13.38662 13.38662 0 0 0-13.37237-13.8954h-5.62628v40.23822H329.278a13.3808 13.3808 0 0 0 13.32482-12.15807zM187.849 218.11825h-5.81272A13.13253 13.13253 0 0 0 168.917 231.7506c.30586 8.03237.49 14.44767.49 14.44767v.00012l.01115.12154a13.17021 13.17021 0 0 0 13.08257 12.03654h5.3483z"/><ellipse cx="201.372" cy="40.34" fill="#fee903" rx="12.475" ry="19.727" transform="rotate(-30 201.372 40.34)"/><ellipse cx="161.381" cy="80.331" fill="#fee903" rx="12.475" ry="19.727" transform="rotate(-60 161.38 80.331)"/><ellipse cx="146.743" cy="134.96" fill="#fee903" rx="19.727" ry="12.475"/><ellipse cx="161.381" cy="189.588" fill="#fee903" rx="19.727" ry="12.475" transform="rotate(-30 161.38 189.588)"/><ellipse cx="350.619" cy="189.588" fill="#fee903" rx="12.475" ry="19.727" transform="rotate(-60 350.62 189.588)"/><ellipse cx="365.257" cy="134.959" fill="#fee903" rx="19.727" ry="12.475"/><ellipse cx="350.619" cy="80.331" fill="#fee903" rx="19.727" ry="12.475" transform="rotate(-30 350.62 80.331)"/><ellipse cx="310.628" cy="40.34" fill="#fee903" rx="19.727" ry="12.475" transform="rotate(-60 310.628 40.34)"/><path fill="#fac600" d="M190.56787 46.57788a21.83151 21.83151 0 0 0 20.66748 10.847 21.81174 21.81174 0 0 0-.97827-26.11371 112.66017 112.66017 0 0 0-21.67773 10.66778A21.88218 21.88218 0 0 0 190.56787 46.57788zM167.61841 69.52753a21.76532 21.76532 0 0 0-6.95557-2.5567 113.241 113.241 0 0 0-12.01465 18.4143 21.8087 21.8087 0 0 0 29.81714 4.80976A21.83149 21.83149 0 0 0 167.61841 69.52753zM136.1123 144.66962a21.83116 21.83116 0 0 0 30.3584-9.71009 21.8179 21.8179 0 0 0-29.87964-9.96319 114.3439 114.3439 0 0 0-.7041 12.61676C135.887 139.98383 135.96875 142.33508 136.1123 144.66962zM178.46533 179.72418a21.81356 21.81356 0 0 0-31.33471 7.10816 113.05179 113.05179 0 0 0 9.78393 16.47845 21.8239 21.8239 0 0 0 21.55078-23.58661z"/><path fill="#fee903" d="M256,24.5A113.11313,113.11313,0,1,0,369.11328,137.6131,113.113,113.113,0,0,0,256,24.5Zm0,191.22607a78.113,78.113,0,1,1,78.11328-78.11279A78.20137,78.20137,0,0,1,256,215.72607Z"/><path fill="#fac600" d="M315.90625,187.67285A78.08285,78.08285,0,0,1,178.73877,126.1239a67.90661,67.90661,0,0,0-12.32056,48.264l4.80542,38.09863A113.64823,113.64823,0,0,0,197.59961,234.5H310Z"/><path fill="#fac600" d="M256 24.5c-2.35156 0-4.68408.08051-7 .22192a113.10767 113.10767 0 0 1 0 225.78241c2.31592.14142 4.64844.22193 7 .22193A113.11313 113.11313 0 1 0 256 24.5zM249 59.82965c-2.30786-.206-4.6394-.32965-7-.32965a78.113 78.113 0 1 0 0 156.22607c2.3606 0 4.69214-.12359 7-.32965a78.0962 78.0962 0 0 1 0-155.56677z"/><path fill="#fff" d="M254.81348 235.50586l-.05274-.00049a3.5431 3.5431 0 0 1-3.498-3.55176 3.45882 3.45882 0 0 1 3.44921-3.44922l.05274.00049.09961.00147a3.49994 3.49994 0 0 1-.05078 6.99951zM275.75 233.44336a3.53325 3.53325 0 0 1-3.46484-2.7749 3.45766 3.45766 0 0 1 2.65039-4.1294l.11816-.0249a3.50018 3.50018 0 0 1 1.41211 6.85645A3.55492 3.55492 0 0 1 275.75 233.44336zM233.92969 232.91992a3.50686 3.50686 0 0 1-.80469-.09424l-.12012-.0288a3.49981 3.49981 0 1 1 1.64844-6.80274l.0752.01807a3.50042 3.50042 0 0 1-.79883 6.90771zM295.67871 226.79248a3.49436 3.49436 0 0 1-1.52051-6.65088l.13282-.06152a3.50049 3.50049 0 1 1 1.38769 6.7124zM214.13281 225.74658a3.48622 3.48622 0 0 1-1.5625-.3706 3.54287 3.54287 0 0 1-1.60937-4.71778 3.45828 3.45828 0 0 1 4.65136-1.5874l.08887.04443a3.50053 3.50053 0 0 1-1.56836 6.63135zM313.67188 215.83252a3.48431 3.48431 0 0 1-2.18555-6.21338l.11133-.08594a3.49987 3.49987 0 0 1 4.23242 5.5752A3.5601 3.5601 0 0 1 313.67188 215.83252zM196.42578 214.35254a3.46868 3.46868 0 0 1-2.168-.75977c-.0166-.01318-.11035-.08984-.12695-.10351a3.5 3.5 0 1 1 4.46094-5.39453l-2.23047 2.69726 2.25976-2.67334a3.50394 3.50394 0 0 1-2.19531 6.23389z"/><path fill="#fd4755" d="M340.29785 183.65137a3.503 3.503 0 0 1-3.13867-5.05323c.0166-.03466.0791-.15771.09766-.1914a3.50136 3.50136 0 1 1 3.041 5.24463zM170.61914 181.42822a3.538 3.538 0 1 1 3.10547-5.11621l.082.17481a3.5015 3.5015 0 0 1-3.1875 4.9414z"/><path fill="#fd6930" d="M347.62988 163.90381a3.50191 3.50191 0 0 1-3.40234-4.31836l.0459-.18066a3.501 3.501 0 1 1 3.35644 4.499zM163.78711 161.478a3.46648 3.46648 0 0 1-3.37988-2.65088c-.00879-.03613-.03809-.16992-.0459-.20654a3.49977 3.49977 0 1 1 6.85156-1.43165l-3.42578.71583 3.43066-.69385a3.50974 3.50974 0 0 1-3.43066 4.26709z"/><path fill="#fd4755" d="M350.38281 143.0459c-.03515 0-.06933-.00049-.10449-.00147a3.49917 3.49917 0 0 1-3.39551-3.60156l3.498.103-3.498-.12695a3.52281 3.52281 0 0 1 3.5-3.44678h.03907a3.47791 3.47791 0 0 1 3.46093 3.47412c0 .03418-.00293.168-.0039.20264A3.49988 3.49988 0 0 1 350.38281 143.0459zM161.60352 140.56982c-.03418 0-.06836-.00048-.10352-.00146a3.54993 3.54993 0 1 1 3.60254-3.59863l-.00293.20166A3.4995 3.4995 0 0 1 161.60352 140.56982z"/><path fill="#fd6930" d="M348.47754 122.0835a3.50022 3.50022 0 0 1-3.42188-2.78467l-.0205-.09815a3.49977 3.49977 0 0 1 6.85156-1.43164l.02051.09815a3.503 3.503 0 0 1-3.42969 4.21631zM164.0459 119.63721a3.49614 3.49614 0 0 1-3.42383-4.188c.00781-.03662.03809-.16992.04688-.20606a3.49992 3.49992 0 0 1 6.80273 1.64942l-3.40137-.82471 3.39649.84619A3.53664 3.53664 0 0 1 164.0459 119.63721z"/><path fill="#fd4755" d="M341.96973 102.061a3.49982 3.49982 0 0 1-3.19141-2.06055l3.18945-1.44043-3.2041 1.40869a3.50006 3.50006 0 0 1 6.32227-3.00488l.07129.15576a3.50152 3.50152 0 0 1-3.1875 4.94141zM171.08105 99.82617a3.50159 3.50159 0 0 1-3.13769-5.04541 3.54479 3.54479 0 0 1 4.707-1.64111 3.45766 3.45766 0 0 1 1.61816 4.64062l-.04394.08936A3.50049 3.50049 0 0 1 171.08105 99.82617z"/><path fill="#fd6930" d="M331.1709 83.99365a3.50444 3.50444 0 0 1-2.77246-1.35449l-.12891-.16992a3.50976 3.50976 0 1 1 2.90137 1.52441zM182.35156 82.05225a3.50054 3.50054 0 0 1-2.6914-5.73584 3.5432 3.5432 0 0 1 4.92968-.521 3.45764 3.45764 0 0 1 .56934 4.853c-.0166.021-.0957.11914-.1123.13965A3.49489 3.49489 0 0 1 182.35156 82.05225z"/><path fill="#fd4755" d="M316.62988 68.75635a3.48533 3.48533 0 0 1-2.25879-.82813l2.26075-2.67187-2.30664 2.6333a3.5 3.5 0 1 1 4.46093-5.39453l.10645.08935a3.5 3.5 0 0 1-2.2627 6.17188zM197.291 67.17432a3.49157 3.49157 0 0 1-2.249-6.17139c.02735-.022.13184-.106.16016-.12744a3.49975 3.49975 0 1 1 4.29687 5.52539l-2.14843-2.7627 2.12988 2.77784A3.53057 3.53057 0 0 1 197.291 67.17432z"/><path fill="#fd6930" d="M299.10156 57.10791a3.482 3.482 0 0 1-1.60351-.3916l1.60644-3.10938-1.65429 3.085a3.5 3.5 0 1 1 3.13085-6.26074c.01368.00684.11622.05908.12989.06641a3.50063 3.50063 0 0 1-1.60938 6.61035zM215.10742 56.0083a3.55979 3.55979 0 1 1 1.61328-.394l-.13281.06347A3.487 3.487 0 0 1 215.10742 56.0083z"/><path fill="#fff" d="M258.5752,46.74756c-.03516,0-.06934-.00049-.1045-.00147l.03223-1.11328c-.01172.01221-.02246.02442-.03418.03614l-.04687,1.07568a3.48789,3.48789,0,0,1-1.22852-.24219A3.44949,3.44949,0,0,1,256,46.71338h-.09961a3.5,3.5,0,0,1,0-7,3.54362,3.54362,0,0,1,1.33106.25879,3.46316,3.46316,0,0,1,1.29394-.22656c.0166,0,.13379.00293.15039.00341a3.5,3.5,0,0,1-.10058,6.99854Z"/><path fill="#fed2a4" d="M421.98364,502l0-87.19623a60,60,0,0,0-38.15823-55.88328l-77.81968-30.4156a20,20,0,0,1-12.7194-18.62775v-27.8509h-74.5727v27.8509a20,20,0,0,1-12.7194,18.62775l-77.81968,30.4156a60,60,0,0,0-38.1582,55.88323V502a10,10,0,0,0,10,10H411.98364A10,10,0,0,0,421.98364,502Z"/><path fill="#ffbd86" d="M173.79028 341.09167l-25.97876 10.15375V512h28V347.34576A10.54164 10.54164 0 0 0 173.79028 341.09167zM383.82546 358.92048l-77.8196-30.4156A20.00014 20.00014 0 0 1 293.28638 309.877V282.02625H218.71362v7h60.57276V316.877a20.00014 20.00014 0 0 0 12.71948 18.62787l77.8196 30.4156a60 60 0 0 1 38.15818 55.88323V512h4a10 10 0 0 0 10-10V414.80371A60 60 0 0 0 383.82546 358.92048z"/><path fill="#efedef" d="M308.01465,435.08594a282.92293,282.92293,0,0,0,19.65723-98.11286l-6.71509-2.62457a3.47063,3.47063,0,0,0-.24585,1.20032A275.04769,275.04769,0,0,1,258.03516,506.2793a3.49985,3.49985,0,1,0,5.41015,4.4414A282.71021,282.71021,0,0,0,308.01465,435.08594Z"/><path fill="#fee903" d="M324,234.5H188l-7.5817-60.11207a67.9738,67.9738,0,0,1,40.75536-71.023L256,88.5l34.82634,14.8649a67.9738,67.9738,0,0,1,40.75536,71.023Z"/><path fill="#fac600" d="M290.82642,103.36493,256,88.5l-7,2.98779,27.82642,11.87714a67.974,67.974,0,0,1,40.75537,71.023L310,234.5h14l7.58179-60.11206A67.974,67.974,0,0,0,290.82642,103.36493Z"/><path fill="#fed2a4" fill-rule="evenodd" d="M256.00068,326.35688h-1.70359a66.14747,66.14747,0,0,1-66.41549-66.0756c.00041-18.65574.00062-24.04714.00072-33.68508a41.39012,41.39012,0,0,1,17.32837-33.67737l0,0a48.27531,48.27531,0,0,1,34.50194-8.56027L256,186.55175l16.28734-2.19321a48.27529,48.27529,0,0,1,34.50193,8.56028l.00006,0a41.38571,41.38571,0,0,1,17.32835,33.67494c.0001,8.99524.00029,13.69994.00067,31.6393A68.12166,68.12166,0,0,1,256.00068,326.35688Z"/><path fill="#ffbd86" fill-rule="evenodd" d="M324.11768 226.59381a41.38573 41.38573 0 0 0-17.32837-33.675 48.27171 48.27171 0 0 0-34.20874-8.59271 48.26154 48.26154 0 0 1 21.96655 8.59271 41.3857 41.3857 0 0 1 17.32837 33.675c0 8.99524.00024 13.69989.00073 31.63928a68.11287 68.11287 0 0 1-62.83691 67.90009c1.73608.13446 3.48559.22369 5.25781.22369h1.70361a68.12179 68.12179 0 0 0 68.11768-68.12378C324.11792 240.2937 324.11768 235.58905 324.11768 226.59381zM227.47046 184.35852l16.28735 2.19324 6.1211-.82428-10.16626-1.369a48.24237 48.24237 0 0 0-12.5354-.03241C227.2749 184.33868 227.3728 184.34534 227.47046 184.35852z"/><path fill="#ffbd86" fill-rule="evenodd" d="M187.88232,240.59619a41.39,41.39,0,0,1,17.32837-33.67737,48.27545,48.27545,0,0,1,34.502-8.5603L256,200.55176l16.28735-2.19324a48.27545,48.27545,0,0,1,34.502,8.5603,41.38573,41.38573,0,0,1,17.32837,33.675c0,6.04736.00024,10.161.00048,17.655l.00025-.01569c-.00049-17.93939-.00073-22.644-.00073-31.63928a41.38573,41.38573,0,0,0-17.32837-33.675,48.27545,48.27545,0,0,0-34.502-8.5603L256,186.55176l-16.28735-2.19324a48.27545,48.27545,0,0,0-34.502,8.5603,41.39,41.39,0,0,0-17.32837,33.67737c0,9.63794-.00024,15.02936-.00073,33.68506l.00025.01447C187.88232,251.89923,187.88232,247.262,187.88232,240.59619Z"/><path fill="#fac600" d="M271.439,54.45935H226.561a14.51567,14.51567,0,0,0-14.51563,14.51581v.00006A14.491,14.491,0,0,0,212.554,72.732a77.92068,77.92068,0,0,1,72.90991-7.44409A14.50839,14.50839,0,0,0,271.439,54.45935Z"/><path fill="#fee903" d="M233.5611,54.45933H278.4389a14.51583,14.51583,0,0,1,14.51583,14.51583v0A14.51584,14.51584,0,0,1,278.4389,83.491H233.5611A14.51583,14.51583,0,0,1,219.04526,68.9752v0A14.51584,14.51584,0,0,1,233.5611,54.45933Z"/><path fill="#fac600" d="M278.439,54.45935h-1.59863a14.42666,14.42666,0,0,1,2.11426,7.51581v.00006A14.51567,14.51567,0,0,1,264.439,76.491H221.15967a14.49288,14.49288,0,0,0,12.40137,7H278.439a14.51567,14.51567,0,0,0,14.51563-14.51581v-.00006A14.51567,14.51567,0,0,0,278.439,54.45935Z"/><rect width="91.264" height="29.032" x="210.368" y="83.491" fill="#fee903" rx="14.516"/><path fill="#fac600" d="M287.116 83.491h-1.59864a14.42683 14.42683 0 0 1 2.11451 7.51581v.00006A14.51589 14.51589 0 0 1 273.116 105.52271h-60.6333a14.49256 14.49256 0 0 0 12.40136 7H287.116A14.51589 14.51589 0 0 0 301.63184 98.0069v-.00006A14.51588 14.51588 0 0 0 287.116 83.491zM224.40161 28.97906a27.12289 27.12289 0 0 0 2.24683 20.2934l2.81128 5.18689h39.08056l2.81128-5.18689A27.12215 27.12215 0 0 0 272.438 25.69305a113.74569 113.74569 0 0 0-48.03638 3.286z"/><path fill="#fee903" d="M275.54031,54.45933H236.45969l-2.81131-5.18689a27.1318,27.1318,0,0,1,0-25.85743h0a27.13151,27.13151,0,0,1,7.52267-8.738L256,3.5l14.829,11.177a27.13151,27.13151,0,0,1,7.52267,8.738h0a27.1318,27.1318,0,0,1,0,25.85743Z"/><path fill="#fac600" d="M278.35156,23.415a27.132,27.132,0,0,0-7.52246-8.738L256,3.5l-2.35645,1.77612,3.18555,2.40094a27.13235,27.13235,0,0,1,7.52246,34.5954h0a9.90825,9.90825,0,0,1-8.711,5.18688H232.75977c.2749.61176.56616,1.21814.88867,1.81311l2.81128,5.18689h39.08056l2.81128-5.18689A27.13129,27.13129,0,0,0,278.35156,23.415Z"/><circle cx="256" cy="32.966" r="7.625" fill="#fd6930"/><path fill="#fd5426" d="M256.95508,25.40692a7.61581,7.61581,0,0,1-6.042,12.26434,7.66446,7.66446,0,0,1-.95508-.06616,7.62034,7.62034,0,1,0,6.99707-12.19818Z"/><circle cx="214" cy="164.006" r="7" fill="#fd4755"/><circle cx="298" cy="164.006" r="7" fill="#fd4755"/><path fill="#fb2b3a" d="M299.84912 157.26086a6.98281 6.98281 0 0 1-8.11938 9.84259 6.9959 6.9959 0 1 0 8.11938-9.84259zM215.84912 157.26086a6.98281 6.98281 0 0 1-8.11938 9.84259 6.9959 6.9959 0 1 0 8.11938-9.84259z"/><ellipse cx="256" cy="151.613" fill="#fd6930" rx="11.813" ry="22.479"/><path fill="#fd5426" d="M256,129.134l-.00635.00458a27.27882,27.27882,0,0,1-6.9873,37.949A27.51113,27.51113,0,0,0,256,174.09222a27.29438,27.29438,0,0,0,0-44.95819Z"/><path fill="#ffae71" d="M201.8916 511.82129c-.11328 0-.22851-.00586-.34375-.01709-20.5293-2.00195-37.85058-13.83789-45.2041-30.88867-7.291-16.90528-2.18848-33.668 1.50195-42.15528a3.50018 3.50018 0 0 1 6.41992 2.791c-3.957 9.09961-7.42773 22.834-1.49414 36.5918 6.34473 14.71093 21.4629 24.93994 39.45606 26.69433a3.50023 3.50023 0 0 1-.33594 6.98389zM310.1084 511.82129a3.50023 3.50023 0 0 1-.33594-6.98389c17.99316-1.75439 33.11133-11.9834 39.45606-26.69433 5.93359-13.75782 2.46289-27.49219-1.49414-36.5918a3.50018 3.50018 0 0 1 6.41992-2.791c3.69043 8.48731 8.793 25.25 1.502 42.15528-7.35352 17.05078-24.6748 28.88672-45.2041 30.88867C310.33691 511.81543 310.22168 511.82129 310.1084 511.82129z"/><circle cx="178.249" cy="480.954" r="3.5" fill="#ffae71"/><circle cx="332.249" cy="480.954" r="3.5" fill="#ffae71"/><path fill="#f9f7f8" d="M274.65,211.5182a186.27217,186.27217,0,0,1-37.29956,0,6.10584,6.10584,0,0,1-5.70948-6.71734h0a6.27532,6.27532,0,0,1,6.91089-5.22235,174.27206,174.27206,0,0,0,34.89673,0,6.27552,6.27552,0,0,1,6.91089,5.22235h0A6.105,6.105,0,0,1,274.65,211.5182Z"/><path fill="#fff" d="M282.79171,222.63576a198.27416,198.27416,0,0,1-53.583,0c-3.849-.52326-6.48059-3.72071-5.895-6.98032h0c.58594-3.26376,3.9419-5.39462,7.51661-4.90964a186.271,186.271,0,0,0,50.33984,0c3.57361-.48483,6.93176,1.646,7.5166,4.90964h0C289.27047,218.915,286.64108,222.11253,282.79171,222.63576Z"/><path fill="#ffae71" d="M293.05957 244.4668q-.26367 0-.53027-.00635a22.79723 22.79723 0 0 1-12.06739-3.80371 3.49979 3.49979 0 1 1 3.86914-5.833 15.80656 15.80656 0 0 0 8.36231 2.63867 16.03028 16.03028 0 0 0 9.10937-2.63965 3.50007 3.50007 0 0 1 3.86719 5.835A23.11345 23.11345 0 0 1 293.05957 244.4668zM218.92773 244.4668c-.17578 0-.35253-.002-.53125-.00635a22.79722 22.79722 0 0 1-12.06738-3.80371 3.49979 3.49979 0 1 1 3.86914-5.833 15.756 15.756 0 0 0 17.47168-.001 3.50007 3.50007 0 0 1 3.86719 5.835A23.11252 23.11252 0 0 1 218.92773 244.4668z"/><path fill="#ffbd86" d="M215.62549,342.45844l36.25683,26.35827a7.00017,7.00017,0,0,0,8.23438-.0014l36.22705-26.3559a67.37605,67.37605,0,0,0,13.135-12.59711l-3.4729-1.35742a19.99991,19.99991,0,0,1-12.71948-18.62774V296.3443a41.92478,41.92478,0,0,1-5.49781.36352H224.16211a41.92166,41.92166,0,0,1-5.44849-.35815v13.52747a19.99991,19.99991,0,0,1-12.71948,18.62774l-3.50195,1.36884A67.37817,67.37817,0,0,0,215.62549,342.45844Z"/><path fill="#efedef" d="M187.849,263.40709l.05011.0866a41.89576,41.89576,0,0,0,36.26287,20.9134h63.62648a41.89578,41.89578,0,0,0,36.31284-21v12.2314a67.42187,67.42187,0,0,1-27.75754,54.52017L260.1166,356.51455a7,7,0,0,1-8.23424.00143l-36.2569-26.35827A67.42187,67.42187,0,0,1,187.849,275.62378Z"/><path fill="#e5e1e5" d="M309.39014 278.38831a67.42162 67.42162 0 0 1-27.04639 44.77038l-36.227 26.35584a6.95786 6.95786 0 0 1-2.35889 1.095l8.12451 5.90649a7.00026 7.00026 0 0 0 8.23438-.00146l36.22705-26.35584a67.42193 67.42193 0 0 0 27.75757-54.5202V263.4071A41.84775 41.84775 0 0 1 309.39014 278.38831zM198.72656 275.80267a41.85615 41.85615 0 0 1-10.82739-12.309l-.05-.08655v7.53913A41.88952 41.88952 0 0 0 198.72656 275.80267z"/><path fill="#efedef" d="M302.71,270.89193a2.508,2.508,0,0,0-4.13924-2.34857,20.38674,20.38674,0,0,1-6.49289,4.08238c-13.03476,4.98992-26.14332-6.61985-34.756-6.71658q-1.322-.01485-2.64371,0c-8.61271.09671-21.72129,11.7065-34.75605,6.71658a20.3869,20.3869,0,0,1-6.493-4.08243,2.508,2.508,0,0,0-4.13924,2.34856c1.29936,6.44053,4.59445,15.0379,12.88228,20.34805,9.13213,5.85108,22.35494,6.447,31.03941,1.62572a5.75218,5.75218,0,0,1,5.57682,0c8.68439,4.82131,21.90719,4.22535,31.03921-1.62573C298.11552,285.92978,301.41064,277.33245,302.71,270.89193Z"/><path fill="#e5e1e5" d="M298.5708,268.54333a20.76655,20.76655,0,0,1-5.52588,3.65125,27.69789,27.69789,0,0,1-10.21728,12.04535c-9.13184,5.85107-22.35474,6.447-31.03907,1.62573a5.75233,5.75233,0,0,0-5.5769-.00006c-8.68433,4.82135-21.90723,4.2254-31.03931-1.62567-.20971-.13428-.4021-.27948-.60547-.41785a26.56886,26.56886,0,0,0,7.60547,7.41785c9.13208,5.85107,22.355,6.447,31.03931,1.62567a5.75233,5.75233,0,0,1,5.5769.00006c8.68433,4.82129,21.90723,4.22534,31.03907-1.62573,8.28784-5.31018,11.583-13.90747,12.88232-20.348A2.50792,2.50792,0,0,0,298.5708,268.54333Z"/><path fill="#fd6930" d="M421.98363,502V404.9454a60,60,0,0,0-35.64333-54.83387l-28.16213-12.50934a10.66159,10.66159,0,0,0-14.98961,9.74361V512h68.79507A10,10,0,0,0,421.98363,502Z"/><path fill="#fd6930" d="M421.98363,502V404.9454a60,60,0,0,0-35.64333-54.83387l-28.16213-12.50934a10.66159,10.66159,0,0,0-14.98961,9.74361V512h68.79507A10,10,0,0,0,421.98363,502Z"/><path fill="#fd5426" d="M386.34033,350.11151l-28.16211-12.50934a10.66518,10.66518,0,0,0-14.57055,6.78925c.19018.07214.38159.12683.57055.21075l28.16211,12.50934a60,60,0,0,1,35.64331,54.83384V512h4a10,10,0,0,0,10-10V404.94535A60,60,0,0,0,386.34033,350.11151Z"/><path fill="#ffbd86" d="M338.20972,341.09167a10.54164,10.54164,0,0,0-2.02124,6.25409V512h28V351.24542Z"/><path fill="#fee903" d="M371.18856,512V347.34577a10.64844,10.64844,0,0,1,.65881-3.67188l-13.66919-6.07171a10.6616,10.6616,0,0,0-14.98962,9.74359V512Z"/><path fill="#fac600" d="M356.92822,337.14044c-.13745-.042-.27539-.06952-.41308-.10565-.28125-.07379-.5625-.14294-.844-.19269-.16382-.02893-.32715-.04742-.49072-.06842-.25537-.03277-.51025-.05945-.7644-.0733-.17188-.00934-.34351-.01355-.51465-.01434-.2439-.00123-.48633.0072-.72779.02282-.17334.01135-.34643.0224-.51806.04218-.23682.02716-.47046.06781-.70386.11072-.16943.03131-.34009.05737-.50708.0968-.2356.05529-.46533.1278-.69556.19867-.15722.04852-.31762.0874-.47216.143a10.77435,10.77435,0,0,0-1.04029.43787c-.19873.09619-.38794.20978-.58032.31781-.15088.08453-.304.16467-.45044.25628-.19946.12507-.39038.263-.58154.40088-.126.0907-.25269.18018-.37476.27631-.19263.1521-.37842.313-.56055.47809q-.15819.14328-.31127.29254c-.18335.17993-.36158.36511-.532.55829-.08325.09418-.16211.19232-.24194.28949-.17407.21179-.34522.42621-.50269.65191-.05224.07447-.09814.15351-.14843.2295a10.46591,10.46591,0,0,0-1.34351,2.89819l-.00146.004c.19018.07214.38159.12683.57055.21075l27.01026,11.99774v-9.25415a10.64537,10.64537,0,0,1,.65893-3.67187l-13.66919-6.07172A10.95348,10.95348,0,0,0,356.92822,337.14044Z"/><path fill="#fd6930" d="M90.01637,502V404.9454a60,60,0,0,1,35.64333-54.83387l28.16213-12.50934a10.66159,10.66159,0,0,1,14.98961,9.74361V512H100.01637A10,10,0,0,1,90.01637,502Z"/><path fill="#fee903" d="M140.81144 512V347.34577a10.64844 10.64844 0 0 0-.65881-3.67188l13.66919-6.07171a10.6616 10.6616 0 0 1 14.98962 9.74359V512zM342.3927 342.72636q-10.08727-3.94259-20.17444-7.88513a74.607 74.607 0 0 1-132.43658 0q-10.0872 3.94257-20.17438 7.88513A197.99829 197.99829 0 0 0 256 418.97077a184.65333 184.65333 0 0 0 86.3927-76.24441z"/><path fill="#fac600" d="M311.0791,373.94824A185.63988,185.63988,0,0,1,256,410.48639a197.94284,197.94284,0,0,1-82.01855-69.46967q-2.187.85483-4.374,1.7096A197.9983,197.9983,0,0,0,256,418.97076a184.65035,184.65035,0,0,0,86.39258-76.24444q-2.10828-.82407-4.2168-1.6482A184.63165,184.63165,0,0,1,311.0791,373.94824Z"/><circle cx="256" cy="395" r="7.5" fill="#fd6930"/><path fill="#fd5426" d="M258.06641,387.795a7.48757,7.48757,0,0,1-8.40284,11.20514,7.496,7.496,0,1,0,8.40284-11.20514Z"/><circle cx="229.75" cy="386.475" r="3.5" fill="#fd4755"/><circle cx="282.25" cy="386.475" r="3.5" fill="#fd4755"/></svg>