<svg xmlns="http://www.w3.org/2000/svg" data-name="Layer 1" viewBox="0 0 512 512"><path fill="#3c3b42" d="M120.43594,408.44693c4.49925-12.3551,15.77487-8.249,20.27412-20.604,4.49979-12.35657-6.77582-16.46272-2.276-28.81929,4.49986-12.35676,15.77548-8.25061,20.27534-20.60738,4.4998-12.35658-6.77582-16.46273-2.276-28.81932,4.5-12.3572,15.77564-8.25105,20.27565-20.60824,4.50064-12.3589-6.775-16.465-2.27434-28.82394s15.77626-8.25275,20.2769-20.61165l126-31.10614c4.50064,12.35889-6.775,16.465-2.27434,28.82394s15.77625,8.25274,20.27689,20.61164c4.5,12.35719-6.7756,16.46334-2.27558,28.82054,4.4998,12.35659,15.77542,8.25044,20.27521,20.607,4.49987,12.35677-6.77575,16.46292-2.27589,28.81968,4.49979,12.35657,15.77541,8.25042,20.2752,20.607,4.49925,12.35509-6.77636,16.46124-2.27711,28.81633Z"/><circle cx="185.561" cy="268.981" r="18.255" fill="#fee903"/><path fill="#2c2c2e" d="M374.71313,356.73676c-4.49987-12.35663-15.77551-8.25043-20.27526-20.607-4.49988-12.35681,6.77575-16.46295,2.27588-28.8197-4.49988-12.35657-15.7754-8.25043-20.27527-20.607-4.5-12.35723,6.77563-16.46337,2.27563-28.82055-4.50061-12.35889-15.77624-8.25275-20.27685-20.61164s6.7749-16.46508,2.27429-28.824l-13.13025,3.24152c1.67212,9.95037-7.22681,14.371-3.144,25.58245,4.50061,12.35889,15.77624,8.25275,20.27685,20.61164,4.5,12.35718-6.77563,16.46332-2.27563,28.82055,4.49987,12.35657,15.77539,8.25043,20.27527,20.607,4.49987,12.35675-6.77576,16.46289-2.27588,28.8197,4.49975,12.35657,15.77539,8.25037,20.27526,20.607,4.49915,12.355-6.77636,16.46118-2.27722,28.81628L120.97559,407.126c-.188.42047-.37012.85547-.53968,1.32092l252-22.89386C367.93677,373.19794,379.21228,369.0918,374.71313,356.73676Z"/><circle cx="325.561" cy="268.981" r="18.255" fill="#fee903"/><path fill="#fac600" d="M334.47974,253.06183a18.24275,18.24275,0,0,1-24.83814,24.83789,18.24933,18.24933,0,1,0,24.83814-24.83789Z"/><rect width="24" height="123" x="54.315" y="250.27" fill="#cbc4cc" transform="rotate(-18.232 66.315 311.77)"/><polygon fill="#baafb9" points="58.471 249.603 45.841 253.763 82.954 366.428 72.788 369.777 74.158 373.937 96.954 366.428 58.471 249.603"/><path fill="#918291" d="M66.69921,252.25525l-14.918,10.64629a5,5,0,0,1-2.82153.92942l-18.32484.30406a5,5,0,0,1-4.83193-3.435l-15.5555-47.22311a2,2,0,0,1,2.37187-2.56918l21.04313,5.11369a2,2,0,0,0,2.00712-.66115l13.8843-16.61894a2,2,0,0,1,3.43444.65655L68.54372,246.621A5,5,0,0,1,66.69921,252.25525Z"/><rect width="24" height="123" x="85.082" y="268.363" fill="#cbc4cc" transform="rotate(-18.232 97.082 329.863)"/><polygon fill="#baafb9" points="89.239 267.696 76.609 271.856 113.721 384.521 103.556 387.87 104.926 392.03 127.721 384.521 89.239 267.696"/><path fill="#7a6d79" d="M54.10645,225.09778l-21.04322-5.11365a2,2,0,0,0-2.37182,2.56915L44.314,263.908l4.64576-.07709a4.99929,4.99929,0,0,0,2.82141-.92938l14.91809-10.6463A5,5,0,0,0,68.5437,246.621l-8.75622-26.582-3.674,4.39759A1.99991,1.99991,0,0,1,54.10645,225.09778Z"/><path fill="#918291" d="M97.46674,270.34831l-14.91805,10.6463a5,5,0,0,1-2.82153.92942l-18.32484.30406a5,5,0,0,1-4.83193-3.435L41.01489,231.57a2,2,0,0,1,2.37187-2.56917l21.04313,5.11369a2,2,0,0,0,2.00712-.66115l13.8843-16.61894a2,2,0,0,1,3.43444.65655l15.5555,47.22311A5,5,0,0,1,97.46674,270.34831Z"/><path fill="#7a6d79" d="M99.31128,264.71405,83.75574,217.491a2,2,0,0,0-3.43445-.65655l-7.73291,9.256,6.98884,21.21645a29.89551,29.89551,0,0,1-11.02853,33.68774h0a5,5,0,0,1-2.8215.92942l-5.81347.0965a4.98173,4.98173,0,0,0,1.48864.20758L79.7271,281.924a5.0002,5.0002,0,0,0,2.82161-.92944l14.918-10.6462A5.00009,5.00009,0,0,0,99.31128,264.71405Z"/><polygon fill="#aa6a51" points="181.175 460.46 91.62 492.231 43.438 345.963 133.669 316.241 181.175 460.46"/><path fill="#935b44" d="M143.86066,403.68121l20.65057,62.69062L181.17554,460.46,133.669,316.24048,43.43823,345.96289l2.78992,8.46936.00007,0A77.32254,77.32254,0,0,1,143.86066,403.68121Z"/><rect width="109" height="21" x="30.769" y="310.629" fill="#c68d7a" rx="6" transform="rotate(-18.232 85.269 321.129)"/><path fill="#bc7c63" d="M138.44042,308.35164l-2.81594-8.54827a6,6,0,0,0-7.5759-3.8215l-7.14685,2.35419a5.98687,5.98687,0,0,1,.72278,1.46741h0a14.99987,14.99987,0,0,1-9.55382,18.93994L35.6355,343.92151a5.99781,5.99781,0,0,0,6.853,2.35425l92.13037-30.34815A5.99994,5.99994,0,0,0,138.44042,308.35164Z"/><path fill="#26a6fe" d="M194.44317,216.26172H181.63045a13.13253,13.13253,0,0,0-13.11929,13.63234c.30587,8.03237.49,14.44768.49,14.44768v.00012l.01116.12154a13.17021,13.17021,0,0,0,13.08256,12.03654h12.3483Z"/><path fill="#cbc4cc" d="M394.86182,505c-.03662,0-.07373-.00049-.11036-.00146a3.501,3.501,0,0,1-3.39013-3.60743l8.31006-267.56982a3.50023,3.50023,0,0,1,6.99707.21777L398.3584,501.6084A3.50025,3.50025,0,0,1,394.86182,505Z"/><path fill="#aa6a51" d="M451.57583,512a3.99454,3.99454,0,0,1-3.99459-4.12729c.19281-6.14.12534-12.83057-.35248-19.98645A203.92617,203.92617,0,0,0,444.82,467.43L442.16,451.62a12.25978,12.25978,0,0,1,.14-4.79l3.62-15.62A210.62944,210.62944,0,0,0,403.84,250.5a36.74117,36.74117,0,0,1,47.78-54.49l11.85,7.33a12.25637,12.25637,0,0,1-12.89,20.85l-11.53328-7.1341a12.71671,12.71671,0,0,0-9.23575-1.7672A12.22811,12.22811,0,0,0,422.82,235,235.01962,235.01962,0,0,1,469.79,436.74L466.73,449.97l2.26,13.39a221.9904,221.9904,0,0,1,3.04052,44.785A3.99535,3.99535,0,0,1,468.02994,512Z"/><path fill="#935b44" d="M468.99 463.36l-2.26-13.39L469.79 436.74A235.01958 235.01958 0 0 0 422.82 235a12.23783 12.23783 0 0 1 2.48938-17.78162l-.2627-.16247a12.71624 12.71624 0 0 0-9.23572-1.76721A12.22812 12.22812 0 0 0 408.82 235 235.01958 235.01958 0 0 1 455.79 436.74L452.73 449.97l2.26 13.39a221.991 221.991 0 0 1 3.04053 44.785A3.99536 3.99536 0 0 1 454.03 512h14a3.99536 3.99536 0 0 0 4.00049-3.855A221.991 221.991 0 0 0 468.99 463.36zM437.62 196.01l11.85 7.33a12.25105 12.25105 0 0 1 .53662 20.49536l.57337.35467a12.25639 12.25639 0 0 0 12.89-20.85l-11.85-7.33a36.49371 36.49371 0 0 0-26.28553-4.81952A36.74534 36.74534 0 0 1 437.62 196.01z"/><rect width="52.596" height="36.256" x="432.06" y="439.38" fill="#fee903" rx="8.752" transform="rotate(-88.266 458.358 457.508)"/><path fill="#fac600" d="M468.5249,431.5058l-5.73511-.17365a8.73481,8.73481,0,0,1,.21851,2.18683l-.668,22.06742a21.766,21.766,0,0,1-22.41473,21.0975h0a8.748,8.748,0,0,0,8.265,6.82641l18.74268.56739a8.75249,8.75249,0,0,0,9.01331-8.48365l1.06176-35.07516A8.75227,8.75227,0,0,0,468.5249,431.5058Z"/><path fill="#26a6fe" d="M342.197,244.34186v-.00012s.18014-6.27571.48-14.18463a13.38662,13.38662,0,0,0-13.37237-13.8954H316.6784v40.23822h12.1938A13.3808,13.3808,0,0,0,342.197,244.34187Z"/><ellipse cx="200.932" cy="40.997" fill="#fee903" rx="12.475" ry="19.727" transform="rotate(-30 200.932 40.997)"/><ellipse cx="160.942" cy="80.988" fill="#fee903" rx="12.475" ry="19.727" transform="rotate(-60 160.942 80.988)"/><ellipse cx="146.304" cy="135.616" fill="#fee903" rx="19.727" ry="12.475"/><ellipse cx="160.942" cy="190.245" fill="#fee903" rx="19.727" ry="12.475" transform="rotate(-30 160.942 190.245)"/><ellipse cx="350.18" cy="190.245" fill="#fee903" rx="12.475" ry="19.727" transform="rotate(-60 350.18 190.245)"/><ellipse cx="364.818" cy="135.616" fill="#fee903" rx="19.727" ry="12.475"/><ellipse cx="350.18" cy="80.988" fill="#fee903" rx="19.727" ry="12.475" transform="rotate(-30 350.18 80.988)"/><ellipse cx="310.189" cy="40.997" fill="#fee903" rx="19.727" ry="12.475" transform="rotate(-60 310.19 40.997)"/><path fill="#fee903" d="M255.56071,25.15692A113.11313,113.11313,0,1,0,368.67387,138.27,113.1131,113.1131,0,0,0,255.56071,25.15692Zm0,191.22608A78.113,78.113,0,1,1,333.674,138.2702,78.20137,78.20137,0,0,1,255.56071,216.383Z"/><path fill="#fac600" d="M190.12866 47.2348a21.83128 21.83128 0 0 0 20.66748 10.847 21.8119 21.8119 0 0 0-.97839-26.11371 112.65908 112.65908 0 0 0-21.67761 10.66785A21.86263 21.86263 0 0 0 190.12866 47.2348zM167.17908 70.18445a21.76605 21.76605 0 0 0-6.95545-2.5567A113.22255 113.22255 0 0 0 148.209 86.04205a21.8087 21.8087 0 0 0 29.81714 4.80976A21.83135 21.83135 0 0 0 167.17908 70.18445zM135.6731 145.32648a21.831 21.831 0 0 0 30.35839-9.71 21.81788 21.81788 0 0 0-29.87963-9.9632 114.2802 114.2802 0 0 0-.70423 12.61676C135.44763 140.64069 135.5293 142.99194 135.6731 145.32648zM178.02612 180.3811a21.81375 21.81375 0 0 0-31.335 7.10816 113.055 113.055 0 0 0 9.78418 16.47845 21.824 21.824 0 0 0 21.55078-23.58661z"/><path fill="#fee903" d="M255.56071,25.15692A113.11313,113.11313,0,1,0,368.67387,138.27,113.1131,113.1131,0,0,0,255.56071,25.15692Zm0,191.22608A78.113,78.113,0,1,1,333.674,138.2702,78.20137,78.20137,0,0,1,255.56071,216.383Z"/><path fill="#fac600" d="M248.56079 60.48657c-2.308-.206-4.6394-.32965-7-.32965a78.113 78.113 0 1 0 0 156.22608c2.3606 0 4.692-.1236 7-.32966a78.0962 78.0962 0 0 1 0-155.56677zM255.56079 25.15692c-2.35156 0-4.68408.08051-7 .22193a113.10768 113.10768 0 0 1 0 225.7824c2.31592.14142 4.64844.22193 7 .22193a113.11313 113.11313 0 0 0 0-226.22626z"/><path fill="#fac600" d="M315.36987,188.44171a78.08087,78.08087,0,0,1-136.94043-62.5A67.90986,67.90986,0,0,0,165.979,174.38794l4.90186,38.8645A113.66051,113.66051,0,0,0,196.09473,234.5H309.56079Z"/><path fill="#fee903" d="M323.56074,234.5h-136l-7.5817-60.11207a67.9738,67.9738,0,0,1,40.75536-71.023L255.56074,88.5l34.82634,14.8649a67.9738,67.9738,0,0,1,40.75536,71.023Z"/><path fill="#fac600" d="M256,190.92658c-4.61311,0-7.529-8.36779-11.54493-10.03712-4.15789-1.72834-12.12539,2.05414-15.26223-1.08275s.64592-11.10414-1.08235-15.2619c-1.66929-4.01589-10.03707-6.93175-10.03707-11.54481s8.36779-7.529,10.03712-11.54493c1.72834-4.15789-2.05414-12.12539,1.08275-15.26223s11.10414.64592,15.2619-1.08235c4.01588-1.66929,6.93175-10.03707,11.54481-10.03707s7.529,8.36779,11.54493,10.03712c4.15789,1.72834,12.12539-2.05414,15.26223,1.08275s-.64592,11.10414,1.08235,15.2619c1.66929,4.01589,10.03707,6.93175,10.03707,11.54481s-8.36779,7.529-10.03712,11.54493c-1.72834,4.15789,2.05414,12.12539-1.08275,15.26223s-11.10414-.64592-15.2619,1.08235C263.52893,182.5588,260.61306,190.92658,256,190.92658Z"/><path fill="#fac600" d="M290.38708,103.36493,255.56079,88.5l-7,2.98779,27.82629,11.87714a67.97387,67.97387,0,0,1,40.75538,71.023L309.56079,234.5h14l7.58167-60.11206A67.97387,67.97387,0,0,0,290.38708,103.36493Z"/><path fill="#fac600" d="M184.84326,139.33228a67.8482,67.8482,0,0,0-5.10815,20.33764,553.13086,553.13086,0,0,0,151.6626.11243,67.84838,67.84838,0,0,0-5.07618-20.3418A553.105,553.105,0,0,1,184.84326,139.33228Z"/><path fill="#f4ba00" d="M326.32153,139.44055c-4.45605.57117-8.91882,1.07007-13.38427,1.53223a67.80589,67.80589,0,0,1,4.58886,20.51965c4.62867-.51819,9.25391-1.07471,13.87159-1.71008A67.84838,67.84838,0,0,0,326.32153,139.44055Z"/><path fill="#8ac9fe" d="M414.54437,512V425.54959A60,60,0,0,0,371.695,368.053l-64.56474-19.259a20,20,0,0,1-14.28314-19.16553V310.02624h-74.5727v19.60228a20,20,0,0,1-14.28313,19.16553l-64.56475,19.259a60,60,0,0,0-42.8494,57.49658V502a10,10,0,0,0,10,10Z"/><path fill="#26a6fe" d="M317.43713,351.86841a5.94569,5.94569,0,0,0-.75866,2.91272v3.89435l-9.65869-2.88111a19.99573,19.99573,0,0,1-2.19739-.81488l-.09473,1.28705v36.96133a43.97792,43.97792,0,0,1-22.68787,38.481L255.45,446.42l-26.58945-14.7111a43.97889,43.97889,0,0,1-22.68814-38.48177V356.26672l-.16333-1.257a20.01591,20.01591,0,0,1-2.12817.7846l-9.43774,2.81519v-3.99182a5.958,5.958,0,0,0-.67823-2.77332l-27.32177,8.14978V512h28V459.83045a3.9972,3.9972,0,0,1,6.46717-3.13955,80.02235,80.02235,0,0,0,10.35192,6.82558L255.45,487.96442l44.1875-24.44794a80.1596,80.1596,0,0,0,10.98737-7.3211,3.73417,3.73417,0,0,1,6.05365,2.93029V512h28V359.99426Z"/><path fill="#26a6fe" d="M317.43713,351.86841a5.94569,5.94569,0,0,0-.75866,2.91272v3.89435l-9.65869-2.88111a19.99573,19.99573,0,0,1-2.19739-.81488l-.09473,1.28705v36.9613a43.97793,43.97793,0,0,1-22.68787,38.48108L255.45,446.42l-26.58948-14.71112a43.9789,43.9789,0,0,1-22.68811-38.48175V356.26672l-.16333-1.257a20.01591,20.01591,0,0,1-2.12817.7846l-34.158,10.189.09766,1.12671v26.11676a80.354,80.354,0,0,0,41.44165,70.28967L255.45,487.96442l44.1875-24.44794a80.1608,80.1608,0,0,0,10.98731-7.32105,3.73416,3.73416,0,0,1,6.05371,2.93024V512h28V359.99426Z"/><path fill="#26a6fe" d="M201.87634,356.42487l-6.83166,2.03784a3.46267,3.46267,0,0,0,.36743.85028,71.275,71.275,0,0,0,121.02734.231,3.46,3.46,0,0,0,.374-.86152l-6.83472-2.03875a64.25584,64.25584,0,0,1-108.10242-.21881Z"/><circle cx="256" cy="399.045" r="9.5" fill="#26a6fe"/><path fill="#fee903" d="M201.87634,349.42487l-6.83166,2.03784a3.46267,3.46267,0,0,0,.36743.85028,71.275,71.275,0,0,0,121.02734.231,3.46,3.46,0,0,0,.374-.86152l-6.83472-2.03875a64.25584,64.25584,0,0,1-108.10242-.21881Z"/><path fill="#fee903" d="M211.26225,456.51653l44.18762,24.44793,44.18756-24.44793a80.3538,80.3538,0,0,0,41.44251-70.28968V360.11009l.31866-1.06079-34.37884-10.25488a19.99777,19.99777,0,0,1-2.19739-.81488l-.09473,1.28705V386.227A43.979,43.979,0,0,1,282.03971,424.709l-26.58984,14.71112L228.86045,424.709A43.97926,43.97926,0,0,1,206.17228,386.227V349.26677l-.16327-1.257a20.00731,20.00731,0,0,1-2.12823.78461l-34.1579,10.189.09772,1.12671v26.11676A80.35382,80.35382,0,0,0,211.26225,456.51653Z"/><path fill="#fac600" d="M228.86214,424.70987A43.98053,43.98053,0,0,1,206.17236,386.227V349.26672l-.16333-1.257a20.01591,20.01591,0,0,1-2.12817.7846l-11.7085,3.49256v.03253l-22.44677,6.69562.095,1.095v26.11676a80.35355,80.35355,0,0,0,24.62256,57.86505V409.36852a1.99563,1.99563,0,0,1,3.725-.99765,43.88853,43.88853,0,0,0,16.69234,16.338l29.119,16.20325A9.72187,9.72187,0,0,0,255.44983,439.42Q242.156,432.065,228.86214,424.70987Z"/><path fill="#fac600" d="M192.17236,386.227a43.97919,43.97919,0,0,0,22.68811,38.48193l29.1191,16.20325a9.72177,9.72177,0,0,0,11.47025-1.49209h0q-13.29441-7.35539-26.58869-14.71078a43.97979,43.97979,0,0,1-22.68878-38.4823V349.26672l-.16333-1.257a20.01591,20.01591,0,0,1-2.12817.7846l-11.7085,3.49256Z"/><path fill="#26a6fe" fill-rule="evenodd" d="M218.27441,310.02625V325.033a66.35482,66.35482,0,0,0,42.5835,15.32385h1.70361A67.79846,67.79846,0,0,0,293.156,333.0946a20.00579,20.00579,0,0,1-.30884-3.46612V310.02625Z"/><path fill="#8ac9fe" fill-rule="evenodd" d="M255.56143,326.35688h-1.70358a66.14747,66.14747,0,0,1-66.41549-66.0756c.00038-16.98925.00058-20.48618.00069-26.68929a41.383,41.383,0,0,1,17.3284-33.67316l0,0a48.27532,48.27532,0,0,1,34.50194-8.56027l16.28734,2.19321,16.28734-2.19321A48.27527,48.27527,0,0,1,306.35,199.91882l.00007,0a41.38494,41.38494,0,0,1,17.32838,33.6742c.0001,5.46683.0003,8.54246.00064,24.64081A68.121,68.121,0,0,1,255.56143,326.35688Z"/><path fill="#26a6fe" fill-rule="evenodd" d="M187.44312,247.592a41.383,41.383,0,0,1,17.32836-33.67316,48.27545,48.27545,0,0,1,34.502-8.5603l16.28735,2.19324,16.28735-2.19324a48.27559,48.27559,0,0,1,34.502,8.5603,41.385,41.385,0,0,1,17.32837,33.6742c0,3.29492.00012,5.72534.00024,10.65771l.00049-.0169c-.00049-16.09833-.00061-19.174-.00073-24.64081a41.385,41.385,0,0,0-17.32837-33.6742,48.27559,48.27559,0,0,0-34.502-8.5603l-16.28735,2.19324-16.28735-2.19324a48.27545,48.27545,0,0,0-34.502,8.5603A41.383,41.383,0,0,0,187.44312,233.592c-.00025,6.20312-.00037,9.7-.00074,26.68927l.00025.01208C187.44287,254.38544,187.44287,251.53217,187.44312,247.592Z"/><path fill="#26a6fe" fill-rule="evenodd" d="M323.67847,233.593a41.385,41.385,0,0,0-17.32837-33.6742,48.252,48.252,0,0,0-13.75659-6.81482,41.3794,41.3794,0,0,1,17.085,33.489c.00012,5.46686.00024,8.54248.00073,24.64081a68.12112,68.12112,0,0,1-68.11768,68.123h-1.70361A66.83885,66.83885,0,0,1,217.23,315.438a66.40946,66.40946,0,0,0,36.62793,10.91882h1.70361a68.12112,68.12112,0,0,0,68.11768-68.123C323.67871,242.1355,323.67859,239.05988,323.67847,233.593Z"/><path fill="#fee903" d="M280.18124,95.47906h-49.241A17.884,17.884,0,0,1,215.21718,86.117h0a48.97153,48.97153,0,0,1,0-46.67137h0a48.97126,48.97126,0,0,1,13.578-15.77161L255.56074,3.5l26.76552,20.174a48.97126,48.97126,0,0,1,13.578,15.77161h0a48.97153,48.97153,0,0,1,0,46.67137h0A17.884,17.884,0,0,1,280.18124,95.47906Z"/><path fill="#fac600" d="M295.9043,39.44562A48.97093,48.97093,0,0,0,282.32617,23.674L255.56079,3.5l-2.35644,1.77612L268.32617,16.674A48.97093,48.97093,0,0,1,281.9043,32.44562q.45363.83694.87248,1.68678c12.35452,25.06171-6.59,54.34666-34.5314,54.34666H216.94019c-.062,0-.12305-.00567-.18494-.00628a17.87864,17.87864,0,0,0,14.18494,7.00628h49.241a17.75153,17.75153,0,0,0,15.58268-9.10472A48.97159,48.97159,0,0,0,295.9043,39.44562Z"/><rect width="78.167" height="20.291" x="216.477" y="91.855" fill="#fee903" rx="10.145"/><path fill="#fac600" d="M284.499,91.85461h-4.35778a10.13707,10.13707,0,0,1-9.64222,13.29078h-53.5188a10.14543,10.14543,0,0,0,9.64234,7H284.499a10.14539,10.14539,0,0,0,0-20.29078Z"/><path fill="#26a6fe" d="M292.62012 245.26953c-.17578 0-.352-.00195-.53028-.00635a22.79259 22.79259 0 0 1-12.06738-3.80371 3.50007 3.50007 0 0 1 3.87012-5.833 15.79719 15.79719 0 0 0 8.36181 2.63868 16.06037 16.06037 0 0 0 9.10889-2.63965 3.50007 3.50007 0 1 1 3.86719 5.835A23.11052 23.11052 0 0 1 292.62012 245.26953zM218.48779 245.26953c-.17578 0-.352-.00195-.53027-.00635a22.79716 22.79716 0 0 1-12.06738-3.80371 3.49979 3.49979 0 1 1 3.86914-5.833 15.81 15.81 0 0 0 8.36279 2.63868 16.08053 16.08053 0 0 0 9.1084-2.63965 3.50007 3.50007 0 0 1 3.86719 5.835A23.11006 23.11006 0 0 1 218.48779 245.26953zM255.55127 299.95508c-.21582 0-.43262-.00244-.65186-.00781A28.06952 28.06952 0 0 1 240.04 295.2627a3.50007 3.50007 0 1 1 3.87012-5.833 21.07614 21.07614 0 0 0 11.15429 3.51953 21.36344 21.36344 0 0 0 12.14844-3.52051 3.50007 3.50007 0 0 1 3.86719 5.835A28.457 28.457 0 0 1 255.55127 299.95508z"/><path fill="#fd4755" d="M274.60748,52.84762,259.26523,69.77244a5,5,0,0,1-7.409,0L236.514,52.84762a5,5,0,0,1,0-6.71619l15.34226-16.92481a5,5,0,0,1,7.409,0l15.34225,16.92481A5,5,0,0,1,274.60748,52.84762Z"/><path fill="#fb2b3a" d="M274.60742,46.1314,259.26508,29.20655a4.99991,4.99991,0,0,0-7.40888.00005L248.56079,32.842l0,0a24.78717,24.78717,0,0,1,0,33.29489h0l3.29534,3.63542a5,5,0,0,0,7.409.00008L274.60742,52.8476A5,5,0,0,0,274.60742,46.1314Z"/><path fill="#fd4755" d="M256,243.58789a8.48659,8.48659,0,0,1-4.96729-1.60449l-4.71923-3.39942a8.52034,8.52034,0,0,1-3.53272-6.897V208.75244a3.5,3.5,0,1,1,7,0V231.687a1.504,1.504,0,0,0,.624,1.21729l4.71826,3.39892a1.49911,1.49911,0,0,0,1.75341-.00049l4.71924-3.39843a1.50484,1.50484,0,0,0,.62354-1.21729V208.75244a3.5,3.5,0,1,1,7,0V231.687a8.52121,8.52121,0,0,1-3.53223,6.897l-4.71972,3.39893A8.48822,8.48822,0,0,1,256,243.58789Z"/><path fill="#fe9738" d="M256,182.39146c-3.575,0-5.83466-6.48468-8.94682-7.77834-3.22218-1.33939-9.39666,1.59187-11.82757-.83908s.50056-8.60523-.83877-11.82731c-1.29363-3.11214-7.7783-5.37181-7.7783-8.94673s6.48468-5.83466,7.77834-8.94682c1.33939-3.22218-1.59187-9.39666.83908-11.82757s8.60523.50056,11.82731-.83877c3.11214-1.29363,5.37181-7.7783,8.94673-7.7783s5.83466,6.48468,8.94682,7.77834c3.22218,1.33939,9.39666-1.59187,11.82757.83908s-.50056,8.60523.83877,11.82731c1.29363,3.11214,7.7783,5.37181,7.7783,8.94673s-6.48468,5.83465-7.77834,8.94682c-1.33939,3.22218,1.59187,9.39666-.83908,11.82757s-8.60523-.50056-11.82731.83877C261.83459,175.90679,259.57492,182.39146,256,182.39146Z"/><circle cx="256" cy="153" r="10.226" fill="#fd4755"/><path fill="#fb2b3a" d="M258.82251,143.17749a10.20683,10.20683,0,0,1-12.645,12.645,10.22246,10.22246,0,1,0,12.645-12.645Z"/><circle cx="256" cy="392.045" r="9.5" fill="#fee903"/><path fill="#fac600" d="M258.45532,382.87665A9.48085,9.48085,0,0,1,247.63086,396.54a9.49807,9.49807,0,1,0,10.82446-13.66333Z"/><path fill="#fd4755" d="M414.54443,502V418.54971A60.00015,60.00015,0,0,0,371.695,361.053l-40.30142-12.02149a6,6,0,0,0-7.71506,5.74965V512h80.866A10,10,0,0,0,414.54443,502Z"/><path fill="#fb2b3a" d="M371.695,361.053l-40.30142-12.0215a6,6,0,0,0-7.71508,5.74968v3.125L357.695,368.053a60.00012,60.00012,0,0,1,42.84942,57.49668V512h4a10,10,0,0,0,10-10V418.54968A60.00011,60.00011,0,0,0,371.695,361.053Z"/><path fill="#fac600" d="M307.01978,348.79437a19.99573,19.99573,0,0,1-2.19739-.81488l-.09473,1.28705v3.0202h0a16.73416,16.73416,0,0,1,11.9508,16.036v38.926a53.32493,53.32493,0,0,1-19.70946,41.6735,80.1527,80.1527,0,0,1-11.33156,7.59429l-37.1875,20.575,7,3.87293,44.1875-24.44794a80.22225,80.22225,0,0,0,17.041-12.63409h0l.00036-.00037q1.36395-1.32377,2.65686-2.71039c.11524-.12292.22876-.24707.343-.37067q2.54407-2.7484,4.81677-5.71283c.10865-.14178.21558-.28466.32325-.42718q2.2359-2.9587,4.19018-6.1084c.10462-.16864.20728-.33819.31067-.50757q1.9107-3.13329,3.53174-6.43164c.09814-.19964.19409-.4.29053-.60046.52014-1.08209,1.02343-2.17267,1.49511-3.2782l.0127-.02869c.476-1.11657.92016-2.24737,1.34558-3.3861.08667-.23194.17126-.4646.25586-.69739.40466-1.1145.7926-2.2359,1.14831-3.36963.00586-.019.0127-.03772.01868-.05676.3595-1.149.68591-2.31006.99414-3.47724.18877-.71411.36028-1.43095.55664-2.15175.18723-.68726.30111-1.39112.44833-2.08805.00493-.02336.01072-.04643.01554-.06983.24206-1.1759.44934-2.36151.63879-3.5517q.06831-.42819.13135-.85736c.17383-1.1737.33081-2.35162.45288-3.53723.0022-.02069.00537-.04107.00745-.06177.12268-1.20013.20886-2.40777.27759-3.61859q.02544-.44852.04577-.8977c.05518-1.21546.09339-2.43384.09339-3.65808V360.11005l.31872-1.06079Z"/><path fill="#fee903" d="M351.67847,355.08228l-20.28492-6.05079a6,6,0,0,0-7.71508,5.74964V512h28V355.08228Z"/><path fill="#fac600" d="M351.67847,355.08228l-20.28492-6.05079a6,6,0,0,0-7.71508,5.74964v3.12506l28,8.35211Z"/><path fill="#fd4755" d="M89.57711,502V419.47589a60,60,0,0,1,43.9856-57.82334l46.27893-12.81714a6,6,0,0,1,7.60144,5.78234V512h-87.866A10,10,0,0,1,89.57711,502Z"/><path fill="#fee903" d="M187.44312,354.61774a6.00009,6.00009,0,0,0-7.60157-5.78235l-19.62488,5.43518-.77355.81171V512h28Z"/><path fill="#26a6fe" d="M277.17615,494.62592a5.55887,5.55887,0,0,0,0-7.46705l-17.0575-18.817a5.559,5.559,0,0,0-8.2373,0l-17.0575,18.817a5.55887,5.55887,0,0,0,0,7.46705L250.57336,512h10.85328Z"/><path fill="#fee903" d="M275.04674,489.93328l-15.34226,16.92481a5,5,0,0,1-7.409,0l-15.34226-16.92481a5,5,0,0,1,0-6.71619l15.34226-16.92482a5,5,0,0,1,7.409,0l15.34226,16.92482A5,5,0,0,1,275.04674,489.93328Z"/><path fill="#fac600" d="M275.04676,483.21711l-15.34229-16.92487a5,5,0,0,0-7.409,0L249,469.92773l0,0a24.787,24.787,0,0,1,0,33.29489l0,0,3.29553,3.63543a5,5,0,0,0,7.40895,0l15.34227-16.92479A5,5,0,0,0,275.04676,483.21711Z"/></svg>