<svg xmlns="http://www.w3.org/2000/svg" data-name="Layer 1" viewBox="0 0 512 512"><path fill="#fee903" d="M376.72238,497.2224h0a8.25184,8.25184,0,0,1-5.95524-9.592l40.0711-199.96577L451.956,298.68211l-65.28028,193.211A8.25182,8.25182,0,0,1,376.72238,497.2224Z"/><path fill="#fac600" d="M410.83813,287.66461l-.71337,3.56012,27.83129,7.4574-65.28027,193.211a8.2361,8.2361,0,0,1-.82178,1.72064,8.25131,8.25131,0,0,0,14.82178-1.72064l65.28027-193.211Z"/><circle cx="441.538" cy="255.326" r="66.945" fill="#fee903"/><path fill="#fac600" d="M464.32349,192.39417a66.94477,66.94477,0,0,1-54.11206,120.59619c-1.863-.49921-3.67676-1.089-5.4585-1.73194a66.9382,66.9382,0,1,0,59.57056-118.86425Z"/><ellipse cx="441.538" cy="255.326" fill="#fef48b" rx="66.945" ry="41.285" transform="rotate(-75 441.538 255.326)"/><ellipse cx="441.538" cy="255.326" fill="#fee903" rx="66.945" ry="14.722" transform="rotate(-75 441.536 255.325)"/><rect width="51.275" height="16.447" x="433.303" y="182.155" fill="#fac600" rx="8.223" transform="rotate(15 458.94 190.379)"/><path fill="#fac600" d="M406.79724,311.76692h34.82862a8.22341,8.22341,0,0,1,8.22341,8.22341v0a8.22341,8.22341,0,0,1-8.22341,8.22341H406.79723a8.22341,8.22341,0,0,1-8.22341-8.22341v0a8.22342,8.22342,0,0,1,8.22342-8.22342Z" transform="rotate(15 424.211 319.99)"/><path fill="#fee903" d="M477.508,186.84037l-32.87762-8.80953,5.62588-8.141a14.53789,14.53789,0,0,1,15.72261-5.77751h0a14.53789,14.53789,0,0,1,10.72743,12.86477Z"/><path fill="#fac600" d="M467.59326,176.97717l.59863,7.367,9.31617,2.49627-.80176-9.86322a14.538,14.538,0,0,0-10.7273-12.8648h0a14.5066,14.5066,0,0,0-8.31689.24719A14.53189,14.53189,0,0,1,467.59326,176.97717Z"/><circle cx="326" cy="272.86" r="18.255" fill="#fee903"/><path fill="#fac600" d="M334.919,256.94061a18.24268,18.24268,0,0,1-24.8379,24.838,18.24928,18.24928,0,1,0,24.8379-24.838Z"/><circle cx="186" cy="272.86" r="18.255" fill="#fee903"/><circle cx="256" cy="24.503" r="21.003" fill="#fee903"/><circle cx="199.445" cy="39.657" r="21.003" fill="#fee903"/><circle cx="158.044" cy="81.058" r="21.003" fill="#fee903"/><circle cx="142.89" cy="137.613" r="21.003" fill="#fee903"/><circle cx="158.044" cy="194.168" r="21.003" fill="#fee903"/><circle cx="353.956" cy="194.168" r="21.003" fill="#fee903"/><circle cx="369.11" cy="137.613" r="21.003" fill="#fee903"/><circle cx="353.956" cy="81.058" r="21.003" fill="#fee903"/><circle cx="312.555" cy="39.657" r="21.003" fill="#fee903"/><path fill="#fac600" d="M158.69458 215.161A21.00177 21.00177 0 1 0 140.165 183.14325 124.28583 124.28583 0 0 0 158.69458 215.161zM132.94067 156.111a21.00278 21.00278 0 1 0 0-36.99566 125.53183 125.53183 0 0 0 0 36.99566zM176.23242 91.55939a21.0028 21.0028 0 0 0-17.53784-31.49414A124.28548 124.28548 0 0 0 140.165 92.083a21.00574 21.00574 0 0 0 36.06738-.52356z"/><path fill="#ffbd86" d="M342.60285 244.34186v-.00012s.18015-6.27571.48-14.18463a13.38662 13.38662 0 0 0-13.37237-13.8954h-5.62628v40.23822H329.278a13.3808 13.3808 0 0 0 13.32482-12.15807zM187.849 216.26172h-5.81272A13.13252 13.13252 0 0 0 168.917 229.89406c.30586 8.03237.49 14.44768.49 14.44768v.00012l.01115.12154a13.17022 13.17022 0 0 0 13.08257 12.03654h5.3483z"/><path fill="#fac600" d="M181.25586,50.15814A21.00281,21.00281,0,1,0,210.47,21.778a124.28337,124.28337,0,0,0-32.01782,18.5296A20.90417,20.90417,0,0,0,181.25586,50.15814Z"/><path fill="#fee903" d="M256,24.5A113.11313,113.11313,0,1,0,369.11313,137.6131,113.1131,113.1131,0,0,0,256,24.5Zm0,191.22607a78.113,78.113,0,1,1,78.11328-78.11279A78.20137,78.20137,0,0,1,256,215.72607Z"/><path fill="#fac600" d="M315.906,187.67285A78.08332,78.08332,0,0,1,178.73853,126.1239a67.90763,67.90763,0,0,0-12.32032,48.264l4.80542,38.09869A113.648,113.648,0,0,0,197.59961,234.5H310Z"/><path fill="#fac600" d="M249 59.82965c-2.30811-.206-4.6394-.32965-7-.32965a78.113 78.113 0 1 0 0 156.22607c2.3606 0 4.69189-.12359 7-.32965a78.0962 78.0962 0 0 1 0-155.56677zM256 24.5c-2.35156 0-4.68408.08051-7 .22192a113.10767 113.10767 0 0 1 0 225.78241c2.31592.14142 4.64844.22193 7 .22193A113.11313 113.11313 0 1 0 256 24.5z"/><path fill="#fed2a4" d="M421.98364,512V407.80371a59.99994,59.99994,0,0,0-38.15817-55.88319l-77.81973-30.41564a19.99993,19.99993,0,0,1-12.71936-18.62769V275.02625H218.71362v27.85089a20,20,0,0,1-12.71941,18.62776l-77.81968,30.41562a59.99994,59.99994,0,0,0-38.15817,55.88319V502a10,10,0,0,0,10,10Z"/><path fill="#ffbd86" d="M201.04614,323.43872A35.6566,35.6566,0,0,0,252.512,342.57031a6.93759,6.93759,0,0,1,6.97608,0,35.65634,35.65634,0,0,0,51.46557-19.13159l-4.94775-1.93384a19.99976,19.99976,0,0,1-12.71948-18.62768V279.85034a35.15338,35.15338,0,0,0-13.86817-3.74609,35.54639,35.54639,0,0,0-19.91528,4.6936,6.97441,6.97441,0,0,1-7.00586,0,35.54483,35.54483,0,0,0-19.91406-4.6936,35.154,35.154,0,0,0-13.86939,3.74609V302.8772a19.99976,19.99976,0,0,1-12.71948,18.62768Z"/><path fill="#ffbd86" d="M383.82544,351.92053l-77.81958-30.41565a19.99983,19.99983,0,0,1-12.71948-18.62768v-27.851H218.71362v7h60.57276v27.851a19.99983,19.99983,0,0,0,12.71948,18.62768l77.81958,30.41565a59.99969,59.99969,0,0,1,38.1582,55.88318V512h14V407.80371A59.99969,59.99969,0,0,0,383.82544,351.92053Z"/><path fill="#fee903" d="M342.3927,335.72662q-10.08727-3.94257-20.17444-7.88513a74.607,74.607,0,0,1-132.43658,0q-10.0872,3.94258-20.17438,7.88513A197.99823,197.99823,0,0,0,256,411.971a184.65341,184.65341,0,0,0,86.3927-76.24442Z"/><path fill="#fac600" d="M333.311,332.17706a184.68264,184.68264,0,0,1-29.23194,36.2558q-2.55162,2.45216-5.10924,4.72737a74.38608,74.38608,0,0,1-98.47711.42731q-.27245-.23928-.545-.48042c-1.86963-1.65406-3.65747-3.31275-5.397-4.971,3.76709,3.96863,7.89014,7.98334,12.397,11.971A198.10666,198.10666,0,0,0,256,411.971a184.65079,184.65079,0,0,0,86.39258-76.24439Q337.85193,333.95179,333.311,332.17706Z"/><path fill="#fee903" d="M307.19922,457.30127V321.97137l-1.19348-.46649a20,20,0,0,1-12.71936-18.62774V275.02625h-.08716v182.275a37.19922,37.19922,0,0,1-74.39844,0v-182.275h-.08716v27.85089a20,20,0,0,1-12.71936,18.62774l-1.19348.46649v135.3299a51.19922,51.19922,0,0,0,102.39844,0Z"/><path fill="#fac600" d="M293.28638 302.8772V279.85034c-.02857-.01452-.05835-.0271-.08716-.0415v63.78357a35.79541 35.79541 0 0 0 14-12.51294v-9.108l-1.19336-.46656a20.05012 20.05012 0 0 1-10.39233-9.29321q-.35561-.67236-.65943-1.37158a19.94977 19.94977 0 0 1-1.66772-7.96289zM205.99414 321.50488l-1.19336.46656v9.10839a35.79732 35.79732 0 0 0 14 12.5127V279.80884c-.02881.0144-.05859.027-.08716.0415V302.8772h0a19.94977 19.94977 0 0 1-1.66772 7.96289q-.304.69927-.65943 1.37158a20.18133 20.18133 0 0 1-10.39233 9.29321z"/><path fill="#fac600" d="M211.80078,450.30127a37.15446,37.15446,0,0,0,14.64478,29.55395,37.00082,37.00082,0,0,1-7.64478-22.55395v-182.275h-.08716v27.85089a19.988,19.988,0,0,1-6.91284,15.10656Z"/><path fill="#f4ba00" d="M218.71362,302.8772a19.98707,19.98707,0,0,1-.10766,2.03759c-.002.019-.00269.03833-.00489.05738a19.91865,19.91865,0,0,1-2.90136,8.43335c-.03.04846-.061.09607-.09156.14428q-.32117.50721-.67211.99463c-.02735.03772-.05079.07788-.07813.11548-.012.01636-.02612.03125-.03809.04761q-.46618.63354-.98242,1.22888c-.12158.14246-.24658.28162-.37207.42066-.28808.31482-.583.62316-.89111.91955-.07984.077-.1499.16272-.231.23828-.115.10718-.24414.19947-.36181.30371-.061.0542-.1189.11158-.18067.165v20.98511a35.64731,35.64731,0,0,0,7,4.62378V279.80884c-.02881.0144-.05859.027-.08716.0415V302.8772Z"/><path fill="#fac600" d="M296.08936 313.07593a19.966 19.966 0 0 1-2.803-10.19879V275.02625h-.08716V310.9837A19.93233 19.93233 0 0 0 296.08936 313.07593zM306.00586 321.50488a19.95021 19.95021 0 0 1-5.80664-3.52118V450.30127a51.17312 51.17312 0 0 1-83.717 39.51715 51.17942 51.17942 0 0 0 90.717-32.51715V321.97137z"/><path fill="#f4ba00" d="M304.32275,320.74878l-.03027-.01685c-.52881-.26757-1.04077-.55883-1.53857-.86938l-.02491-.01416c-.05395-.03357-.103-.07349-.15649-.10742-.415-.26538-.82227-.54-1.21436-.83313-.28784-.2118-.56005-.43933-.83471-.66553-.106-.08826-.22-.16834-.32422-.25867v20.98487a35.813,35.813,0,0,0,7-7.889v-9.108l-1.19336-.46656C305.42822,321.27905,304.86865,321.02393,304.32275,320.74878Z"/><path fill="#fee903" d="M324,234.5H188l-7.5817-60.11207a67.9738,67.9738,0,0,1,40.75536-71.023L256,88.5l34.82634,14.8649a67.9738,67.9738,0,0,1,40.75536,71.023Z"/><path fill="#fac600" d="M290.82617,103.36493,256,88.5l-7,2.98779,27.82617,11.87714a67.97339,67.97339,0,0,1,40.75537,71.023L310,234.5h14l7.58154-60.11206A67.97339,67.97339,0,0,0,290.82617,103.36493Z"/><path fill="#fed2a4" fill-rule="evenodd" d="M256.00066,319.35688h-1.70361a66.14747,66.14747,0,0,1-66.41548-66.0756c.00031-14.20355.00051-17.23495.00063-20.29726a40.20325,40.20325,0,0,1,16.83566-32.71319l.49283-.352a48.2753,48.2753,0,0,1,34.50194-8.56027L256,193.55175l16.28734-2.19321a48.27426,48.27426,0,0,1,34.50159,8.56l.49291.35208a40.20138,40.20138,0,0,1,16.836,32.71172c.00011,2.45892.00029,5.61267.00055,18.251A68.12147,68.12147,0,0,1,256.00066,319.35688Z"/><path fill="#ffbd86" fill-rule="evenodd" d="M242 193.55176l7-.94263-9.28735-1.25061a48.25875 48.25875 0 0 0-13.41431.07892zM324.11768 232.98236a40.20057 40.20057 0 0 0-16.83594-32.71173q-.24647-.17615-.49292-.35205a48.27434 48.27434 0 0 0-34.50147-8.56006l-.58545.07886a48.26634 48.26634 0 0 1 21.08692 8.4812q.24645.17588.49292.35205a40.20057 40.20057 0 0 1 16.83594 32.71173c.00024 2.45892.00048 5.61267.00073 18.251a68.11867 68.11867 0 0 1-61.96192 67.83331c2.02247.18329 4.06812.29022 6.14063.29022h1.70361a68.12157 68.12157 0 0 0 68.11768-68.12353C324.11816 238.595 324.11792 235.44128 324.11768 232.98236z"/><path fill="#ffbd86" fill-rule="evenodd" d="M187.88232,246.984a40.20348,40.20348,0,0,1,16.83545-32.7132l.49292-.352a48.27545,48.27545,0,0,1,34.502-8.5603L256,207.55176l16.28735-2.19324a48.27434,48.27434,0,0,1,34.50147,8.56006q.24645.17588.49292.35205a40.20057,40.20057,0,0,1,16.83594,32.71173c0,1.05847.00024,2.25079.00024,4.26788l.00049-.0169c-.00025-12.63831-.00049-15.79206-.00073-18.251a40.20057,40.20057,0,0,0-16.83594-32.71173q-.24647-.17615-.49292-.35205a48.27434,48.27434,0,0,0-34.50147-8.56006L256,193.55176l-16.28735-2.19324a48.27545,48.27545,0,0,0-34.502,8.5603l-.49292.352a40.20348,40.20348,0,0,0-16.83545,32.7132c-.00024,3.06232-.00048,6.09375-.00073,20.29724l.00025.01447C187.88208,250.1579,187.88232,248.57312,187.88232,246.984Z"/><rect width="70.936" height="27.864" x="220.532" y="90.357" fill="#fee903" rx="13.932"/><path fill="#fac600" d="M277.53613 90.35669h-1.92651a13.851 13.851 0 0 1 1.85815 6.93176v.00006a13.93165 13.93165 0 0 1-13.93164 13.93177H222.39038a13.916 13.916 0 0 0 12.07349 7h43.07226a13.93165 13.93165 0 0 0 13.93164-13.93177v-.00006A13.93161 13.93161 0 0 0 277.53613 90.35669zM263.23242 52.175L249 41.44763 234.76758 52.175a25.87008 25.87008 0 0 0-9.32788 13.55664 77.85871 77.85871 0 0 1 45.17846-4.83954c-.05712-.1095-.10693-.2218-.16577-.33069A26.043 26.043 0 0 0 263.23242 52.175z"/><path fill="#fee903" d="M274.75412,90.35666H237.24588l-2.6982-4.9782a26.04016,26.04016,0,0,1,0-24.81708h0a26.03982,26.03982,0,0,1,7.22-8.38641L256,41.44763,270.23232,52.175a26.03982,26.03982,0,0,1,7.22,8.38641h0a26.04016,26.04016,0,0,1,0,24.81708Z"/><path fill="#fac600" d="M273.03188,54.59633a25.26119,25.26119,0,0,0-2.82745-2.44248L256,41.44763l-2.35645,1.77612,2.56059,1.92989a25.25989,25.25989,0,0,1,2.82747,2.44241,26.07593,26.07593,0,0,1,4.42078,30.78243h0a9.50976,9.50976,0,0,1-8.36066,4.97821H233.5752c.29736.6831.61376,1.36005.97241,2.02179l2.69824,4.97821h37.5083l2.69824-4.97821A26.0759,26.0759,0,0,0,273.03188,54.59633Z"/><circle cx="256" cy="69.728" r="7.318" fill="#09a76d"/><path fill="#02905d" d="M257.41626,62.54932a7.31107,7.31107,0,0,1-7.3523,11.44787,7.31516,7.31516,0,1,0,7.3523-11.44787Z"/><circle cx="210.49" cy="164.006" r="8.752" fill="#09a76d"/><circle cx="301.51" cy="164.006" r="8.752" fill="#09a76d"/><path fill="#02905d" d="M302.66553 155.33936A8.7167 8.7167 0 0 1 294.571 169.325a8.74562 8.74562 0 1 0 8.09449-13.98559zM211.64623 155.33936a8.7167 8.7167 0 0 1-8.09448 13.98559 8.74562 8.74562 0 1 0 8.09448-13.98559z"/><path fill="#ffae71" d="M293.05957 245.26953q-.26367 0-.53027-.00635a22.79723 22.79723 0 0 1-12.06739-3.80371 3.49979 3.49979 0 1 1 3.86914-5.833 15.80655 15.80655 0 0 0 8.36231 2.63868 16.08773 16.08773 0 0 0 9.10937-2.63965 3.50007 3.50007 0 0 1 3.86719 5.835A23.11346 23.11346 0 0 1 293.05957 245.26953zM218.92773 245.26953c-.17578 0-.35253-.00195-.53125-.00635a22.79722 22.79722 0 0 1-12.06738-3.80371 3.49979 3.49979 0 1 1 3.86914-5.833 15.81036 15.81036 0 0 0 8.36328 2.63868 15.97088 15.97088 0 0 0 9.1084-2.63965 3.50007 3.50007 0 0 1 3.86719 5.835A23.11253 23.11253 0 0 1 218.92773 245.26953z"/><path fill="#fead8a" d="M279.41812,262.10425a35.54645,35.54645,0,0,0-19.91516,4.69352,6.97434,6.97434,0,0,1-7.00595,0,35.64549,35.64549,0,1,0,.01491,61.77263,6.93736,6.93736,0,0,1,6.97615,0,35.64885,35.64885,0,1,0,19.93-66.46615Z"/><path fill="#fd9468" d="M312.85889,295.16412a35.63533,35.63533,0,0,0-14.1333-25.91864,35.29258,35.29258,0,0,1,7.1333,18.91864A35.65524,35.65524,0,0,1,252.488,321.57037a6.93731,6.93731,0,0,0-6.97608,0,35.63861,35.63861,0,0,1-39.28271-2.43921,35.65365,35.65365,0,0,0,46.28271,9.43921,6.93731,6.93731,0,0,1,6.97608,0,35.65524,35.65524,0,0,0,53.37085-33.40625Z"/><path fill="#fd9468" d="M255.98535,307.583c-.32129,0-.64355-.00342-.96875-.01123A41.755,41.755,0,0,1,232.918,300.605a3.49979,3.49979,0,1,1,3.86914-5.833,34.76323,34.76323,0,0,0,18.39355,5.80176,35.18189,35.18189,0,0,0,20.03418-5.80273,3.49973,3.49973,0,1,1,3.86524,5.83545A42.3367,42.3367,0,0,1,255.98535,307.583Z"/><path fill="#fd4755" d="M256,239.58789a8.49017,8.49017,0,0,1-4.96777-1.60449l-4.71875-3.39893a8.52212,8.52212,0,0,1-3.53223-6.89746V204.75244a3.5,3.5,0,1,1,7,0V227.687a1.50435,1.50435,0,0,0,.62305,1.21729l4.71875,3.39843a1.49681,1.49681,0,0,0,1.75293,0l4.7207-3.39892a1.5045,1.5045,0,0,0,.62207-1.2168V204.75244a3.5,3.5,0,1,1,7,0V227.687a8.52226,8.52226,0,0,1-3.53125,6.897l-4.7207,3.39942A8.49074,8.49074,0,0,1,256,239.58789Z"/><path fill="#ffae71" d="M201.8916 511.82129c-.11328 0-.22851-.00586-.34375-.01709-20.5293-2.00195-37.85058-13.83789-45.2041-30.88867-7.291-16.90528-2.18848-33.668 1.50195-42.15528a3.50018 3.50018 0 0 1 6.41992 2.791c-3.957 9.09961-7.42773 22.834-1.49414 36.5918 6.34473 14.71093 21.4629 24.93994 39.45606 26.69433a3.50023 3.50023 0 0 1-.33594 6.98389zM310.1084 511.82129a3.50023 3.50023 0 0 1-.33594-6.98389c17.99316-1.75439 33.11133-11.9834 39.45606-26.69433 5.93359-13.75782 2.46289-27.49219-1.49414-36.5918a3.50018 3.50018 0 0 1 6.41992-2.791c3.69043 8.48731 8.793 25.25 1.502 42.15528-7.35352 17.05078-24.6748 28.88672-45.2041 30.88867C310.33691 511.81543 310.22168 511.82129 310.1084 511.82129z"/><circle cx="178.249" cy="480.954" r="3.5" fill="#ffae71"/><circle cx="332.249" cy="480.954" r="3.5" fill="#ffae71"/><path fill="#ffae71" d="M156.80566,512a3.50017,3.50017,0,0,1-3.5-3.5V470.44531a3.5,3.5,0,0,1,7,0V508.5A3.50017,3.50017,0,0,1,156.80566,512Z"/><path fill="#ffbd86" d="M415.41421,502V404.94539a60,60,0,0,0-35.64333-54.83386l-28.16213-12.50934a10.66159,10.66159,0,0,0-14.98961,9.7436V512h68.79507A10,10,0,0,0,415.41421,502Z"/><path fill="#fd6930" d="M429.41421,502V404.94539a60,60,0,0,0-35.64333-54.83386l-28.16213-12.50934a10.66159,10.66159,0,0,0-14.98961,9.7436V512h68.79507A10,10,0,0,0,429.41421,502Z"/><path fill="#fd5426" d="M393.771,350.11151l-28.16211-12.50934a10.58818,10.58818,0,0,0-10.90918,1.37293L379.771,350.11151a60,60,0,0,1,35.64306,54.83386V502a10,10,0,0,1-10,10h14a10,10,0,0,0,10-10V404.94537A60,60,0,0,0,393.771,350.11151Z"/><path fill="#fee903" d="M378.61914,512V347.34576a10.64838,10.64838,0,0,1,.65881-3.67187l-13.66919-6.07172a10.66161,10.66161,0,0,0-14.98962,9.74359V512Z"/><path fill="#fac600" d="M364.37061,337.14478c-.0459-.01416-.092-.03107-.13819-.0445a10.60382,10.60382,0,0,0-1.1626-.26544c-.07544-.01306-.15087-.02753-.22631-.03882a10.45876,10.45876,0,0,0-1.09546-.1051q-.14722-.00641-.29395-.00867-.51525-.0087-1.02344.032c-.12011.01-.2395.025-.35888.03907-.29468.03424-.58692.07928-.87574.13769-.16333.03339-.32446.07361-.48559.11457-.20191.05084-.40137.10876-.59937.1712q-.37023.11737-.72973.26069c-.14649.058-.29151.11864-.43482.183-.29174.13135-.57641.27637-.855.43274-.09839.05512-.19751.10913-.29419.1673a10.90976,10.90976,0,0,0-1.09765.75452l23.91943,10.62475v-2.25409a10.65115,10.65115,0,0,1,.65869-3.67187l-13.66894-6.07172A10.945,10.945,0,0,0,364.37061,337.14478Z"/><circle cx="256" cy="427.266" r="15.294" fill="#fee903"/><path fill="#fac600" d="M262.72217,413.54327a15.26831,15.26831,0,0,1-20.44434,20.44446,15.28472,15.28472,0,1,0,20.44434-20.44446Z"/><rect width="80.79" height="23.787" x="83.016" y="470.454" fill="#fee903" rx="11.894"/><path fill="#fac600" d="M151.9126,470.454h-3.16846a11.8303,11.8303,0,0,1,1.062,4.89355v.00007a11.8936,11.8936,0,0,1-11.89355,11.89361H84.07812a11.88739,11.88739,0,0,0,10.83179,7H151.9126a11.8936,11.8936,0,0,0,11.89355-11.89361v-.00007A11.89355,11.89355,0,0,0,151.9126,470.454Z"/><path fill="#fd6930" d="M275.04674,159.35809l-15.34226,16.92482a5,5,0,0,1-7.409,0l-15.34226-16.92482a5,5,0,0,1,0-6.71618l15.34226-16.92482a5,5,0,0,1,7.409,0l15.34226,16.92482A5,5,0,0,1,275.04674,159.35809Z"/><path fill="#fd5426" d="M275.04688,152.64191,259.70454,135.717a5.00009,5.00009,0,0,0-7.40913.00006L249,139.35254l0,0a24.78688,24.78688,0,0,1,0,33.29488l0,0,3.29536,3.63538a5.00015,5.00015,0,0,0,7.40923.00006l15.34229-16.92481A5,5,0,0,0,275.04688,152.64191Z"/></svg>