<svg xmlns="http://www.w3.org/2000/svg" data-name="Layer 1" viewBox="0 0 512 512"><path fill="#aa6a51" d="M408.12959,101.19393c-16.16423,10.14-27.28777,31.34844-27.28777,55.86945,0,34.36777,21.85089,62.22836,48.80533,62.22836s48.80534-27.86059,48.80534-62.22836c0-24.39257-11.00732-45.50716-27.03418-55.7092"/><path fill="#935b44" d="M451.41846,101.35419l-5.41895-.02008c11.24317,11.40027,18.45313,28.99017,18.45313,48.72924,0,34.3678-21.85108,62.2284-48.80542,62.2284a38.88345,38.88345,0,0,1-10.59693-1.48822,40.91505,40.91505,0,0,0,24.59693,8.48822c26.95434,0,48.80542-27.8606,48.80542-62.2284C478.45264,132.67078,467.44531,111.55621,451.41846,101.35419Z"/><path fill="#d1a08f" d="M410.49549,193.4582l6.18162-63.58177h32.84432L446.5508,206.6615a101.67276,101.67276,0,0,1-105.62872,97.65219l-72.63024-2.876V289.02042l56.37282-7.1686A98.74394,98.74394,0,0,0,410.49549,193.4582Z"/><path fill="#c68d7a" d="M435.25049,129.8764l-2.69971,69.7851a101.67262,101.67262,0,0,1-105.62866,97.65216L268.292,294.992v6.44562l72.63013,2.876A101.67262,101.67262,0,0,0,446.55078,206.6615l2.9707-76.7851Z"/><path fill="#fd4755" d="M430.42578,171.47852a3.50017,3.50017,0,0,1-3.5-3.5V157.35059a3.5,3.5,0,0,1,7,0v10.62793A3.50017,3.50017,0,0,1,430.42578,171.47852Z"/><path fill="#bc7c63" d="M424.22527,157.35067H435.069a21.03441,21.03441,0,0,0,20.69621-17.26925l4.88289-26.8507a10.2109,10.2109,0,0,0-10.04756-12.03679H408.69373a10.21089,10.21089,0,0,0-10.04755,12.03679l4.88288,26.8507A21.03441,21.03441,0,0,0,424.22527,157.35067Z"/><path fill="#aa6a51" d="M450.60059,101.19391h-4.31665a10.12524,10.12524,0,0,1,.36425,5.0368l-4.88305,26.85071a21.034,21.034,0,0,1-20.696,17.26923H410.22534c-.57886,0-1.15112-.03028-1.71948-.07654a21.00662,21.00662,0,0,0,15.71948,7.07654h10.84375a21.034,21.034,0,0,0,20.696-17.26923l4.88305-26.85071A10.21094,10.21094,0,0,0,450.60059,101.19391Z"/><path fill="#d1a08f" d="M421.08789 129.98047a3.49022 3.49022 0 0 1-2.47461-1.0249l-4.63086-4.62989a3.5 3.5 0 1 1 4.94922-4.95019l4.63086 4.62988a3.49976 3.49976 0 0 1-2.47461 5.9751zM438.27637 129.91064a3.49975 3.49975 0 0 1-2.47461-5.97509l4.56152-4.56006a3.5 3.5 0 1 1 4.94922 4.95019l-4.56152 4.56006A3.49018 3.49018 0 0 1 438.27637 129.91064z"/><path fill="#aa6a51" d="M110.77145,101.19393c16.16424,10.14,27.28778,31.34844,27.28778,55.86945,0,34.36777-21.8509,62.22836-48.80534,62.22836s-48.80533-27.86059-48.80533-62.22836c0-24.39257,11.00731-45.50716,27.03418-55.7092"/><path fill="#935b44" d="M110.77148,101.19391l-5.28613.01959c11.312,11.39661,18.57373,29.04047,18.57373,48.84985,0,34.3678-21.85083,62.2284-48.80517,62.2284A38.88476,38.88476,0,0,1,64.657,210.80353a40.91505,40.91505,0,0,0,24.59693,8.48822c26.95434,0,48.80517-27.8606,48.80517-62.2284C138.05908,132.54236,126.93555,111.33392,110.77148,101.19391Z"/><path fill="#d1a08f" d="M108.40556,193.4582l-6.18163-63.58177H69.37962l2.97062,76.78507A101.67276,101.67276,0,0,0,177.979,304.31369l72.63023-2.876V289.02042l-56.37281-7.1686A98.74392,98.74392,0,0,1,108.40556,193.4582Z"/><path fill="#c68d7a" d="M194.23633,281.85181a98.74391,98.74391,0,0,1-85.83081-88.39362l-6.18164-63.58179H69.37964l.27075,7H88.22388l6.18164,63.58179a98.74391,98.74391,0,0,0,85.83081,88.39362l56.3728,7.16858V301.992l14-.55438V289.02039Z"/><path fill="#fd4755" d="M88.47559,171.47852a3.50017,3.50017,0,0,1-3.5-3.5V157.35059a3.5,3.5,0,0,1,7,0v10.62793A3.50018,3.50018,0,0,1,88.47559,171.47852Z"/><path fill="#bc7c63" d="M94.67577,157.35067H83.832A21.03441,21.03441,0,0,1,63.1358,140.08142l-4.88288-26.8507a10.21089,10.21089,0,0,1,10.04755-12.03679h41.90684a10.21089,10.21089,0,0,1,10.04755,12.03679l-4.88288,26.8507A21.03441,21.03441,0,0,1,94.67577,157.35067Z"/><path fill="#aa6a51" d="M110.20728,101.19391h-4.31666a10.12513,10.12513,0,0,1,.36426,5.0368l-4.88281,26.85071a21.03463,21.03463,0,0,1-20.69629,17.26923H69.832c-.57861,0-1.15112-.03028-1.71948-.07654A21.00739,21.00739,0,0,0,83.832,157.35065H94.67578a21.03463,21.03463,0,0,0,20.69629-17.26923l4.88281-26.85071A10.21094,10.21094,0,0,0,110.20728,101.19391Z"/><path fill="#d1a08f" d="M97.81348 129.98047a3.49976 3.49976 0 0 1-2.47461-5.9751l4.63086-4.62988a3.5 3.5 0 1 1 4.94922 4.95019l-4.63086 4.62989A3.49024 3.49024 0 0 1 97.81348 129.98047zM80.624 129.91064a3.49019 3.49019 0 0 1-2.47461-1.0249l-4.56054-4.56006a3.5 3.5 0 0 1 4.94922-4.95019l4.56054 4.56006a3.50024 3.50024 0 0 1-2.47461 5.97509z"/><path fill="#aa6a51" d="M189.47243,46.956c16.16423,10.14,27.28777,31.34844,27.28777,55.86944,0,34.36778-21.85089,62.22837-48.80534,62.22837s-48.80533-27.86059-48.80533-62.22837c0-24.39256,11.00731-45.50716,27.03418-55.70919"/><path fill="#935b44" d="M189.47241,46.95593l-5.28613.01959c11.312,11.39661,18.574,29.04047,18.574,48.84986,0,34.3678-21.85107,62.22839-48.80542,62.22839a38.88469,38.88469,0,0,1-10.59692-1.48822,40.915,40.915,0,0,0,24.59692,8.48822c26.95435,0,48.80542-27.86059,48.80542-62.22839C216.76025,78.30438,205.63672,57.096,189.47241,46.95593Z"/><path fill="#d1a08f" d="M192.676,160.24313a36.69584,36.69584,0,0,1-4.84678-18.2731V75.63844H148.08059v73.4292A56.64286,56.64286,0,0,0,172.17133,195.462Z"/><rect width="14" height="66.332" x="173.829" y="75.638" fill="#c68d7a"/><path fill="#fd4755" d="M167.17578,117.24072a3.50017,3.50017,0,0,1-3.5-3.5V103.11279a3.5,3.5,0,1,1,7,0v10.62793A3.50017,3.50017,0,0,1,167.17578,117.24072Z"/><path fill="#bc7c63" d="M173.37675,103.11268H162.533a21.03441,21.03441,0,0,1-20.69621-17.26924l-4.88288-26.8507A10.21089,10.21089,0,0,1,147.00144,46.956h41.90685a10.21089,10.21089,0,0,1,10.04755,12.03679L194.073,85.84344A21.0344,21.0344,0,0,1,173.37675,103.11268Z"/><path fill="#aa6a51" d="M188.9082,46.95593h-4.31665a10.12528,10.12528,0,0,1,.36426,5.03681L180.073,78.84344a21.03445,21.03445,0,0,1-20.69629,17.26923H148.533c-.57886,0-1.15112-.03027-1.71948-.07654a21.00739,21.00739,0,0,0,15.71948,7.07654h10.84375A21.03445,21.03445,0,0,0,194.073,85.84344l4.88281-26.8507A10.21082,10.21082,0,0,0,188.9082,46.95593Z"/><path fill="#d1a08f" d="M176.51465 75.74219a3.49976 3.49976 0 0 1-2.47461-5.9751l4.63086-4.62939a3.5 3.5 0 1 1 4.94922 4.95019l-4.63086 4.6294A3.49022 3.49022 0 0 1 176.51465 75.74219zM159.3252 75.67236a3.49016 3.49016 0 0 1-2.47461-1.0249L152.29 70.08789a3.5 3.5 0 1 1 4.94922-4.95019l4.56054 4.55957a3.49975 3.49975 0 0 1-2.4746 5.97509z"/><path fill="#aa6a51" d="M329.42862,46.956c-16.16424,10.14-27.28777,31.34844-27.28777,55.86944,0,34.36778,21.85089,62.22837,48.80533,62.22837s48.80533-27.86059,48.80533-62.22837c0-24.39256-11.00731-45.50716-27.03418-55.70919Z"/><path fill="#935b44" d="M372.71729,47.11621l-5.41871-.02008c11.24317,11.40027,18.45288,28.99017,18.45288,48.72925,0,34.3678-21.85083,62.22839-48.80517,62.22839a38.88649,38.88649,0,0,1-10.59717-1.48822,40.91622,40.91622,0,0,0,24.59717,8.48822c26.95434,0,48.80517-27.86059,48.80517-62.22839C399.75146,78.4328,388.74414,57.31824,372.71729,47.11621Z"/><path fill="#d1a08f" d="M324.9053,162.37769A36.69924,36.69924,0,0,0,331.0718,141.97V75.63844h39.74866v73.4292a56.678,56.678,0,0,1-27.16233,48.41267Z"/><path fill="#c68d7a" d="M345.811,196.09572a56.65426,56.65426,0,0,0,25.00935-47.02809V75.63843h-14v66.4292A56.51457,56.51457,0,0,1,341.2367,181.113Z"/><path fill="#fd4755" d="M351.72461,117.24072a3.50017,3.50017,0,0,1-3.5-3.5V103.11279a3.5,3.5,0,0,1,7,0v10.62793A3.50017,3.50017,0,0,1,351.72461,117.24072Z"/><path fill="#bc7c63" d="M345.5243,103.11268h10.84376a21.03441,21.03441,0,0,0,20.69621-17.26924l4.88288-26.8507A10.21089,10.21089,0,0,0,371.8996,46.956H329.99276a10.21089,10.21089,0,0,0-10.04755,12.03679l4.88288,26.8507A21.03441,21.03441,0,0,0,345.5243,103.11268Z"/><path fill="#aa6a51" d="M371.89966,46.95593H367.583a10.1254,10.1254,0,0,1,.36426,5.03681l-4.88306,26.8507a21.03438,21.03438,0,0,1-20.69605,17.26923H331.52441c-.57885,0-1.15136-.03027-1.71972-.07654a21.00791,21.00791,0,0,0,15.71972,7.07654h10.84375a21.03438,21.03438,0,0,0,20.69605-17.26923l4.88306-26.8507A10.21108,10.21108,0,0,0,371.89966,46.95593Z"/><path fill="#d1a08f" d="M342.38672 75.74219a3.48815 3.48815 0 0 1-2.47461-1.0249l-4.63086-4.6294a3.5 3.5 0 1 1 4.94922-4.95019l4.63086 4.62939a3.49976 3.49976 0 0 1-2.47461 5.9751zM359.57617 75.67236a3.49976 3.49976 0 0 1-2.47461-5.97509l4.56055-4.55957a3.5 3.5 0 1 1 4.94922 4.95019l-4.56055 4.55957A3.49016 3.49016 0 0 1 359.57617 75.67236z"/><path fill="#aa6a51" d="M236.7648,10.4967c-17.11064,10.73371-28.88546,33.18387-28.88546,59.14057,0,36.38,23.13025,65.8718,51.66286,65.8718s51.66286-29.49181,51.66286-65.8718c0-25.82073-11.65179-48.17157-28.617-58.97093"/><path fill="#935b44" d="M282.58789,10.66632l-5.32593-.01971c12.135,12.05359,19.94312,30.85766,19.94312,51.99066,0,36.38-23.13037,65.87176-51.66284,65.87176a41.18512,41.18512,0,0,1-11.65284-1.70337,43.21867,43.21867,0,0,0,25.65284,8.70337c28.53247,0,51.66284-29.49176,51.66284-65.87176C311.20508,43.81653,299.55322,21.4657,282.58789,10.66632Z"/><rect width="42.076" height="137.763" x="238.504" y="40.859" fill="#d1a08f"/><rect width="14" height="137.763" x="266.58" y="40.859" fill="#c68d7a"/><path fill="#fd4755" d="M260.36621,84.69141a3.50017,3.50017,0,0,1-3.5-3.5v-11.25a3.5,3.5,0,0,1,7,0v11.25A3.50017,3.50017,0,0,1,260.36621,84.69141Z"/><path fill="#bc7c63" d="M253.80287,69.94138h11.47866a22.266,22.266,0,0,0,21.908-18.28035l5.16877-28.42279A10.80874,10.80874,0,0,0,281.72243,10.4967H237.362a10.80874,10.80874,0,0,0-10.63583,12.74154L231.89491,51.661A22.266,22.266,0,0,0,253.80287,69.94138Z"/><path fill="#aa6a51" d="M281.72241,10.4967h-3.88647a10.72749,10.72749,0,0,1,.52246,5.74152L273.18945,44.661a22.26589,22.26589,0,0,1-21.908,18.2804H239.80273a22.34792,22.34792,0,0,1-2.30517-.13019,22.22859,22.22859,0,0,0,16.30517,7.13019h11.47876a22.26589,22.26589,0,0,0,21.908-18.2804l5.16895-28.42279A10.80888,10.80888,0,0,0,281.72241,10.4967Z"/><path fill="#d1a08f" d="M250.48145 40.76367a3.49016 3.49016 0 0 1-2.47461-1.0249l-4.90137-4.90088a3.5 3.5 0 0 1 4.94922-4.95019l4.90136 4.90087a3.50025 3.50025 0 0 1-2.4746 5.9751zM268.67676 40.68945a3.49975 3.49975 0 0 1-2.47461-5.97509l4.82812-4.82666a3.5 3.5 0 1 1 4.94922 4.95019l-4.82812 4.82666A3.49018 3.49018 0 0 1 268.67676 40.68945z"/><path fill="#8ac9fe" d="M79.43782,512a13,13,0,0,1-9.08837-3.70476L28.93427,467.80179a29.58739,29.58739,0,0,1-8.49234-26.07368L38.13081,336.825l28.1954,2.32431L66.20785,425.22a9.82032,9.82032,0,0,0,2.96887,7.0608l49.08987,47.99569L111.63318,512Z"/><path fill="#26a6fe" d="M52.32617,346.14929,52.20776,432.22a9.82008,9.82008,0,0,0,2.969,7.06079l49.08984,47.99567L99.09692,512H111.6333l6.6333-31.72351L69.17676,432.28082a9.82008,9.82008,0,0,1-2.969-7.06079l.11841-86.07074H51.78174Z"/><polygon fill="#fee903" points="27.97 397.084 66.247 397.084 66.281 372.238 32.159 372.238 27.97 397.084"/><polygon fill="#fac600" points="66.247 397.084 66.281 372.238 52.29 372.238 52.256 397.084 66.247 397.084"/><path fill="#8ac9fe" d="M66.31051,351.70408l.0183-12.55541q.08019-6.61282.16014-13.22566a87.21978,87.21978,0,0,0-3.32455-16.719,87.20451,87.20451,0,0,0-5.45325-13.69619l-1.85106-23.65924H44.55721v13.80118a4.94959,4.94959,0,0,1-4.038,4.84672,20.429,20.429,0,0,0-7.03488,2.75014c-8.961,5.6536-11.66914,17.71558-9.77521,26.92142,2.09836,10.1996,10.17494,18.46708,20.78165,21.53705Z"/><path fill="#26a6fe" d="M63.16455,309.204a87.23345,87.23345,0,0,0-5.45337-13.69617l-1.85107-23.65924h-11.303v13.80121a4.87443,4.87443,0,0,1-1.35449,3.35876l.50854,6.49927A87.23345,87.23345,0,0,1,49.16455,309.204,87.24133,87.24133,0,0,1,52.489,325.923q-.08019,6.61286-.16015,13.22571l-.009,6.14411L66.31055,351.704l.01831-12.55536q.08019-6.61285.16015-13.22571A87.24133,87.24133,0,0,0,63.16455,309.204Z"/><ellipse cx="50.493" cy="261.436" fill="#fee903" rx="46.993" ry="13.915"/><path fill="#fac600" d="M82.16138,251.1557a5.19263,5.19263,0,0,1,1.32544,3.27979c0,7.68475-21.03955,13.91449-46.99341,13.91449-12.20093,0-23.31421-1.37726-31.668-3.63471,4.9812,6.10138,23.53149,10.63471,45.668,10.63471,25.95386,0,46.99341-6.22974,46.99341-13.91449C97.48682,257.36334,91.57764,253.70032,82.16138,251.1557Z"/><path fill="#e5e1e5" d="M446.68586,308.35274c8.95267,6.214,16.036,1.64946,27.685,6.35017,7.48014,3.0184,13.15191,8.3678,17.50587,14.39764,7.87928-22.82534,1.12963-46.37252-15.10676-57.50272-13.34381-9.14717-28.64928-6.8599-33.006-6.05062-1.15009,1.25931-10.46482,11.80508-7.72924,25.78141C436.39818,293.18584,438.44871,302.6353,446.68586,308.35274Z"/><path fill="#efedef" d="M476.7701,271.59782c-9.20275-6.30838-19.337-7.17785-26.1709-6.84475l6.26159,14.7312a89.33693,89.33693,0,0,1,35.016,49.61625C499.75616,306.27521,493.00629,282.728,476.7701,271.59782Z"/><path fill="#baafb9" d="M443.764,265.54721c-.99061,1.08467-8.03166,9.06173-8.21942,20.18307a23.70508,23.70508,0,0,0,19.08839-4.33039,25.44981,25.44981,0,0,0,4.85439-4.93019,27.6813,27.6813,0,0,0,4.81019-10.43552,49.211,49.211,0,0,0-20.53355-.487Z"/><path fill="#8ac9fe" d="M399.88546,512,393.273,480.27653l49.08987-47.99569a9.82028,9.82028,0,0,0,2.96887-7.0608l-.15611-89.27306,28.58227,3.20231,17.33976,102.57882a29.58739,29.58739,0,0,1-8.49234,26.07368L440.9955,508.31437A13,13,0,0,1,431.92674,512Z"/><path fill="#26a6fe" d="M491.09766,441.72809l-17.33985-102.5788h-14l17.33985,102.5788a29.58717,29.58717,0,0,1-8.49244,26.07367l-41.60961,40.51257A13,13,0,0,1,417.92676,512h14a13,13,0,0,0,9.06885-3.68567l41.60961-40.51257A29.58717,29.58717,0,0,0,491.09766,441.72809Z"/><polygon fill="#fee903" points="479.351 372.238 445.239 372.238 445.282 397.084 483.551 397.084 479.351 372.238"/><polygon fill="#fac600" points="482.426 390.426 479.351 372.238 465.351 372.238 469.551 397.084 483.551 397.084 482.426 390.426"/><path fill="#8ac9fe" d="M454.00873,342.55166l-8.16387-3.88069-8.18007-7.65369a21.69233,21.69233,0,0,1-5.53654-23.33506l2.219-6.02691a17.754,17.754,0,0,1,17.25393-11.60891l4.54882.15195a11.83351,11.83351,0,0,1,9.05289,18.95488l-.56954.75466a3.99348,3.99348,0,0,0,1.3413,5.94672l.00042.00021a15.77769,15.77769,0,0,1,8.4319,15.25623l-.64747,8.03764,1.25361,7.41869Z"/><path fill="#26a6fe" d="M451.20288,309.1532l-.56958.7547a3.99351,3.99351,0,0,0,1.34131,5.94671l.00049.00019A15.778,15.778,0,0,1,460.407,331.111l-.64746,8.03766.78613,4.65271,14.46753,2.766-1.25366-7.4187.64746-8.03766a15.778,15.778,0,0,0-8.43188-15.25622l-.00049-.00019a3.99351,3.99351,0,0,1-1.34131-5.94671l.56958-.7547a11.83349,11.83349,0,0,0-9.053-18.95484l-4.54883-.152a17.71118,17.71118,0,0,0-5.896.81024A11.84766,11.84766,0,0,1,451.20288,309.1532Z"/><path fill="#fee903" d="M259.45068,106.86243a111.546,111.546,0,1,0,111.56739,111.546A111.55671,111.55671,0,0,0,259.45068,106.86243Zm0,188.57666a77.0308,77.0308,0,1,1,77.0459-77.03052A77.12539,77.12539,0,0,1,259.45068,295.43909Z"/><path fill="#fac600" d="M252.45068,141.70984c-2.30737-.20886-4.63916-.33234-7-.33234a77.0308,77.0308,0,1,0,0,154.06159c2.36084,0,4.69263-.12348,7-.33234a77.01437,77.01437,0,0,1,0-153.39691Z"/><path fill="#fac600" d="M259.45068,106.86243c-2.3518,0-4.68432.08154-7,.22491a111.53914,111.53914,0,0,1,0,222.64209c2.31568.14337,4.6482.22492,7,.22492a111.546,111.546,0,1,0,0-223.09192Z"/><path fill="#fff" d="M250.16016 315.72559c-.11328 0-.22852-.00538-.34473-.01661-2.39941-.23437-4.81836-.562-7.18945-.97314a3.50013 3.50013 0 0 1 1.19531-6.89746c2.20215.38183 4.44824.686 6.67578.90381a3.5 3.5 0 0 1-.33691 6.9834zM278.00684 314.35254a3.5001 3.5001 0 0 1-.68067-6.93262c2.19531-.43847 4.39942-.96435 6.54981-1.564a3.5 3.5 0 0 1 1.8789 6.74316c-2.31738.646-4.69238 1.21289-7.05957 1.68506A3.48652 3.48652 0 0 1 278.00684 314.35254zM216.75781 305.98682a3.48751 3.48751 0 0 1-1.585-.38184c-2.14453-1.0918-4.27637-2.27734-6.33594-3.5249a3.5001 3.5001 0 0 1 3.627-5.98731c1.91211 1.15869 3.89258 2.25977 5.88476 3.27393a3.50077 3.50077 0 0 1-1.59082 6.62012zM310.27148 301.32861a3.50056 3.50056 0 0 1-1.8916-6.44726c1.8877-1.21 3.75-2.50342 5.53516-3.84473a3.5002 3.5002 0 0 1 4.20508 5.59668c-1.92285 1.44482-3.92969 2.83838-5.96289 4.1416A3.4878 3.4878 0 0 1 310.27148 301.32861zM189.18848 284.77393a3.49054 3.49054 0 0 1-2.6084-1.165c-1.60742-1.7959-3.168-3.67334-4.6377-5.58155a3.4997 3.4997 0 1 1 5.54492-4.27148c1.36524 1.77148 2.81446 3.51562 4.30762 5.1831a3.5 3.5 0 0 1-2.60644 5.835z"/><path fill="#fd6930" d="M335.61328 277.48682a3.49993 3.49993 0 0 1-2.82226-5.56641c1.32128-1.80664 2.58984-3.68359 3.7705-5.57812a3.49971 3.49971 0 1 1 5.94141 3.70019c-1.27148 2.042-2.6377 4.06445-4.06152 6.01074A3.4964 3.4964 0 0 1 335.61328 277.48682zM171.14551 255.02393a3.50091 3.50091 0 0 1-3.27735-2.271c-.8457-2.25244-1.61816-4.56885-2.29492-6.88525a3.49994 3.49994 0 0 1 6.71875-1.96387c.62793 2.14941 1.34473 4.29931 2.12891 6.38916a3.50147 3.50147 0 0 1-3.27539 4.731z"/><path fill="#fd4755" d="M350.60742 246.09668a3.50428 3.50428 0 0 1-3.38574-4.39648c.57422-2.167 1.07129-4.377 1.47852-6.56885a3.50034 3.50034 0 0 1 6.88281 1.27929c-.43946 2.36329-.97559 4.74561-1.59375 7.08057A3.5022 3.5022 0 0 1 350.60742 246.09668zM165.16992 220.75391l-.043-.00049a3.5 3.5 0 0 1-3.458-3.54151c.02929-2.41357.14746-4.85058.35253-7.24462a3.5 3.5 0 0 1 6.97461.59667c-.19043 2.22413-.30078 4.48926-.32714 6.73194A3.50066 3.50066 0 0 1 165.16992 220.75391z"/><path fill="#fd6930" d="M353.15527 211.3999a3.5004 3.5004 0 0 1-3.47461-3.11474c-.248-2.23047-.58105-4.4712-.99121-6.66016a3.50028 3.50028 0 0 1 6.88086-1.28906c.44141 2.35986.80078 4.77441 1.06739 7.17773a3.50538 3.50538 0 0 1-3.48243 3.88623zM171.98242 186.6416a3.50291 3.50291 0 0 1-3.24512-4.811c.90137-2.23291 1.89844-4.45948 2.96387-6.61817a3.5 3.5 0 0 1 6.27735 3.09766c-.98829 2.00293-1.91309 4.06885-2.749 6.14062A3.50233 3.50233 0 0 1 171.98242 186.6416z"/><path fill="#fd4755" d="M342.98145 178.13623a3.50016 3.50016 0 0 1-3.10157-1.87256c-1.043-1.98535-2.1709-3.95215-3.35449-5.84668a3.50012 3.50012 0 0 1 5.9375-3.708c1.27441 2.04151 2.49023 4.16065 3.61426 6.29883a3.50066 3.50066 0 0 1-3.0957 5.12842zM190.74121 157.34961a3.5 3.5 0 0 1-2.54883-5.89746c1.65235-1.75781 3.38965-3.47363 5.16309-5.09961a3.4998 3.4998 0 0 1 4.73047 5.15918c-1.64649 1.50976-3.25879 3.103-4.79395 4.73535A3.48971 3.48971 0 0 1 190.74121 157.34961z"/><path fill="#fd6930" d="M321.39648,150.8374a3.48633,3.48633,0,0,1-2.29882-.86181c-1.6836-1.46778-3.44629-2.89405-5.23828-4.23829a3.4996,3.4996,0,1,1,4.19921-5.5996c1.92969,1.44677,3.82618,2.98144,5.63868,4.56152a3.5,3.5,0,0,1-2.30079,6.13818Z"/><path fill="#fff" d="M218.832 136.8125a3.50036 3.50036 0 0 1-1.51074-6.65869c2.17773-1.041 4.41992-2.01221 6.666-2.88623a3.50008 3.50008 0 0 1 2.53907 6.52344c-2.084.811-4.166 1.7124-6.1875 2.67822A3.47946 3.47946 0 0 1 218.832 136.8125zM291.41309 133.19336a3.49167 3.49167 0 0 1-1.18555-.208c-2.10547-.7583-4.26465-1.4458-6.418-2.04346a3.50017 3.50017 0 0 1 1.873-6.74511c2.32129.64453 4.64746 1.38574 6.916 2.20263a3.50053 3.50053 0 0 1-1.18554 6.794zM252.45605 127.894a3.50006 3.50006 0 0 1-.25195-6.99072c2.39258-.17578 4.83008-.26465 7.2461-.26465a3.5 3.5 0 0 1 0 7c-2.24512 0-4.51075.083-6.73438.2461C252.62891 127.89111 252.542 127.894 252.45605 127.894z"/><path fill="#3c3b42" d="M125.625,477.842c4.43777-12.18392,15.5593-8.13466,19.99707-20.31857,4.4383-12.18537-6.68323-16.23463-2.24493-28.42,4.43837-12.18557,15.5599-8.13631,19.99827-20.32187,4.43831-12.18539-6.68322-16.23465-2.24492-28.42,4.43853-12.186,15.56006-8.13673,19.99858-20.32271,4.43914-12.18767-6.68239-16.23693-2.24326-28.42459s15.56067-8.13841,19.9998-20.32607L323.1638,280.613c4.43913,12.18766-6.6824,16.23692-2.24326,28.42459s15.56066,8.1384,19.9998,20.32607c4.43852,12.186-6.683,16.23525-2.24448,28.42123,4.4383,12.18539,15.55983,8.13613,19.99814,20.32152,4.43837,12.18556-6.68316,16.23482-2.24479,28.42039,4.4383,12.18537,15.55983,8.13611,19.99813,20.32148,4.43777,12.18391-6.68376,16.23317-2.246,28.41709Z"/><path fill="#2c2c2e" d="M376.42725,426.84827a18.55691,18.55691,0,0,0-1.0708-2.40125c-.45362-.14709-.90406-.3-1.3628-.43671l-63.67773-18.99316q-.72567-.21645-1.42381-.48445a7.735,7.735,0,0,1-2.46917-12.79548,66.964,66.964,0,0,0,20.21524-48.02708c-.00048-15.8753-.00073-18.90832-.00073-24.29943a40.80946,40.80946,0,0,0-17.09155-33.20765V286.203a47.62331,47.62331,0,0,0-34.03052-8.44165l-16.0647,2.16284-16.06494-2.16284a47.62239,47.62239,0,0,0-34.03027,8.44165l-.00025.00006a40.80742,40.80742,0,0,0-17.09155,33.20661c0,6.11719-.00024,9.56561-.00073,26.31952a64.80774,64.80774,0,0,0,19.49016,46.42646,7.69659,7.69659,0,0,1-3.04446,12.82424l-.12343.03726-61.81641,18.438a15.91076,15.91076,0,0,0-3.3916,5.64831c-4.43824,12.18537,6.68335,16.23462,2.24487,28.42-4.43774,12.1839-15.55933,8.13464-19.99707,20.3186l248.5564-22.57666C369.74365,443.08142,380.86523,439.03217,376.42725,426.84827Z"/><path fill="#2c2c2e" d="M376.42725,426.84827c-4.43824-12.18537-15.55982-8.13611-19.99805-20.32148-4.43848-12.18554,6.6831-16.23486,2.24487-28.42041-4.43823-12.18536-15.55981-8.1361-19.99829-20.32153-4.43848-12.186,6.68311-16.23523,2.24463-28.4212-4.43921-12.18769-15.56079-8.13843-20-20.32605-4.439-12.18769,6.68262-16.23694,2.24341-28.42462l-13.134,3.24188c1.61474,9.78088-7.13013,14.14349-3.10938,25.18274,4.43921,12.18762,15.56079,8.13836,20,20.32605,4.43848,12.186-6.68311,16.23523-2.24463,28.4212,4.43848,12.18543,15.56006,8.13617,19.99829,20.32153,4.43823,12.18555-6.68335,16.23487-2.24487,28.42041,4.43823,12.18537,15.55981,8.13611,19.99805,20.32148,4.438,12.1839-6.6836,16.23315-2.24585,28.41711L126.16577,476.5213c-.18848.42023-.37109.85486-.54077,1.32074l248.5564-22.57666C369.74365,443.08142,380.86523,439.03217,376.42725,426.84827Z"/><path fill="#2c2c2e" d="M328.4939,365.30981a17.921,17.921,0,0,0,11.6997-4.335,17.85114,17.85114,0,0,1-1.51782-3.18994c-3.61474-9.92456,3.0896-14.45312,3.30518-22.37457a17.99583,17.99583,0,1,0-13.48706,29.89953Z"/><circle cx="328.494" cy="340.308" r="18.005" fill="#fee903"/><path fill="#fac600" d="M337.23291,324.5744a17.99659,17.99659,0,0,1-24.478,24.46753,18.00082,18.00082,0,1,0,24.478-24.46753Z"/><path fill="#2c2c2e" d="M180.21973,362.14526a18.00849,18.00849,0,1,0-2.05713-28.00879c-2.178,10.29041,7.084,14.59748,2.96655,25.90235A18.99753,18.99753,0,0,1,180.21973,362.14526Z"/><circle cx="190.407" cy="340.308" r="18.005" fill="#fee903"/><path fill="#fac600" d="M318.21851,268.14349a76.994,76.994,0,0,1-134.781-62.25036,66.96687,66.96687,0,0,0-12.53589,48.13275l4.80322,38.07477a112.10237,112.10237,0,0,0,25.09229,21.20446H312.52124Z"/><path fill="#fee903" d="M326.52127,306.30511H192.37977l-7.47809-59.27922a67.03,67.03,0,0,1,40.19842-70.039l34.35042-14.659,34.35043,14.659a67.03,67.03,0,0,1,40.19842,70.039Z"/><path fill="#fac600" d="M293.801,176.98688l-34.35059-14.659-7,2.98724L279.801,176.98688a67.03016,67.03016,0,0,1,40.19848,70.039l-7.47827,59.27923h14l7.47827-59.27923A67.03016,67.03016,0,0,0,293.801,176.98688Z"/><path fill="#8ac9fe" d="M102.64305,512V494.70383a59.1539,59.1539,0,0,1,42.26444-56.69348l63.67776-18.99316a19.716,19.716,0,0,0,14.08486-18.9044V380.78434h73.56083v19.32845a19.716,19.716,0,0,0,14.08486,18.9044l63.67776,18.99316A59.1539,59.1539,0,0,1,416.258,494.70383V512Z"/><path fill="#26a6fe" d="M130.90747 445.01031l63.67774-18.99316a19.6673 19.6673 0 0 0 8.75708-5.43616l-58.43482 17.42932a59.08063 59.08063 0 0 0-16.3064 7.73908Q129.74292 445.358 130.90747 445.01031zM373.99365 438.01031l-63.67773-18.99316a19.71585 19.71585 0 0 1-14.085-18.90436V380.7843H222.67017v7H282.231v19.32849a19.71585 19.71585 0 0 0 14.085 18.90436l63.67773 18.99316a59.15385 59.15385 0 0 1 42.26441 56.69349V512h14V494.7038A59.15385 59.15385 0 0 0 373.99365 438.01031z"/><path fill="#26a6fe" d="M312.771,426.74945a63.33682,63.33682,0,0,1-106.52784-.03369l-6.8645,2.04748a3.48289,3.48289,0,0,0,.34107.74848A69.959,69.959,0,0,0,256.105,462.70837a9.3709,9.3709,0,1,0,13.83984-.68133,69.98584,69.98584,0,0,0,49.229-32.28729,3.456,3.456,0,0,0,.40039-.96106Z"/><path fill="#fac600" d="M213.72705,116.63269a41.20451,41.20451,0,0,0,1.5918,31.69012c13.439-6.94531,27.72412-13.94531,44.13183-13.94531a76.57942,76.57942,0,0,1,32.62964,7.27124,41.05647,41.05647,0,0,0-3.61841-30.96911,111.98143,111.98143,0,0,0-74.73486,5.95306Z"/><ellipse cx="259.451" cy="130.568" fill="#fee903" rx="41.152" ry="41.144"/><path fill="#fac600" d="M270.50562,90.93756a41.14064,41.14064,0,0,1-36.11011,72.26038,41.14327,41.14327,0,1,0,36.11011-72.26038Z"/><path fill="#fee903" d="M206.24316,419.71576l-6.8645,2.04748a3.48289,3.48289,0,0,0,.34107.74848,70.35565,70.35565,0,0,0,119.4541.228,3.456,3.456,0,0,0,.40039-.96106l-6.80322-2.02924a63.33682,63.33682,0,0,1-106.52784-.03369Z"/><path fill="#26a6fe" d="M324.41724,505.15155A90.47369,90.47369,0,0,0,342.33691,478.1a46.15745,46.15745,0,0,0,1.46485-15.17139V437.17047l.31592-1.04529-33.9104-10.108a19.61576,19.61576,0,0,1-2.16993-.80865l-.08886,1.27209v36.44794a43.35841,43.35841,0,0,1-22.37989,37.94684l-.00024.00012a54.187,54.187,0,0,1-52.45288-.00012,43.3584,43.3584,0,0,1-22.37988-37.94684V426.48065l-.15162-1.19317a19.77153,19.77153,0,0,1-1.99877.72967l-33.79883,10.08118.09594,1.07214v25.75812a49.54673,49.54673,0,0,0,1.4729,15.212A107.96619,107.96619,0,0,0,197.88135,512H317.02051A89.08467,89.08467,0,0,0,324.41724,505.15155Z"/><path fill="#fee903" d="M342.33691,471.1a46.15745,46.15745,0,0,0,1.46485-15.17139V430.17047l.31592-1.04529-33.9104-10.108a19.61576,19.61576,0,0,1-2.16993-.80865l-.08886,1.27209v36.44794a43.35841,43.35841,0,0,1-22.37989,37.94684l-.00024.00012a54.187,54.187,0,0,1-52.45288-.00012,43.3584,43.3584,0,0,1-22.37988-37.94684V419.48065l-.15162-1.19317a19.77153,19.77153,0,0,1-1.99877.72967l-33.79883,10.08118.09594,1.07214v25.75812a49.54673,49.54673,0,0,0,1.4729,15.212A108.157,108.157,0,0,0,205.0708,512H307.33691a89.78674,89.78674,0,0,0,35-40.9Z"/><path fill="#fac600" d="M196.7356 455.92859a43.3584 43.3584 0 0 0 22.37988 37.94684 54.16991 54.16991 0 0 0 33.22632 6.309 54.13137 54.13137 0 0 1-19.22632-6.309 43.3584 43.3584 0 0 1-22.37988-37.94684V419.48065l-.15162-1.19317a19.77153 19.77153 0 0 1-1.99877.72967l-11.84961 3.53436zM343.80176 430.17047l.31592-1.04529-33.9104-10.108a19.61576 19.61576 0 0 1-2.16993-.80865l-.08886 1.27209V422.517h0A30.6557 30.6557 0 0 1 329.845 452.25666l-.04328 3.67193A46.15745 46.15745 0 0 1 328.33691 471.1a89.78719 89.78719 0 0 1-35 40.9h14a89.78719 89.78719 0 0 0 35-40.9 46.15745 46.15745 0 0 0 1.46485-15.17139z"/><path fill="#26a6fe" d="M344.86991 316.01061v-.00012s.17768-6.18875.47348-13.9881a13.2023 13.2023 0 0 0-13.18963-13.70288h-12.5494v39.68072h12.12282a13.197 13.197 0 0 0 13.14273-11.98962zM199.23084 288.31952H186.49755a12.9517 12.9517 0 0 0-12.94 13.44347c.30168 7.92108.48329 14.2475.48329 14.2475v.00012l.011.11986a12.98925 12.98925 0 0 0 12.90379 11.86977h12.27521z"/><path fill="#8ac9fe" fill-rule="evenodd" d="M259.45121,396.88933H257.7709A65.23734,65.23734,0,0,1,192.263,331.72919c.00037-16.75387.00057-20.20235.00068-26.31951a40.8072,40.8072,0,0,1,17.0916-33.20662l0,0a47.62263,47.62263,0,0,1,34.03046-8.44167l16.06476,2.16282,16.06477-2.16282a47.62262,47.62262,0,0,1,34.03045,8.44167l.00006,0a40.80915,40.80915,0,0,1,17.09158,33.20764c.00011,5.3911.00029,8.42411.00063,24.29942A67.18366,67.18366,0,0,1,259.45121,396.88933Z"/><path fill="#26a6fe" fill-rule="evenodd" d="M192.26367,319.40967a40.80742,40.80742,0,0,1,17.09155-33.20661l.00025-.00006a47.62239,47.62239,0,0,1,34.03027-8.44165l16.06494,2.16284,16.0647-2.16284A47.62331,47.62331,0,0,1,309.5459,286.203v.00006a40.80946,40.80946,0,0,1,17.09155,33.20765c0,3.20715,0,5.58044.00025,10.31866l.00048-.01923c-.00048-15.8753-.00073-18.90832-.00073-24.29943a40.80946,40.80946,0,0,0-17.09155-33.20765V272.203a47.62331,47.62331,0,0,0-34.03052-8.44165l-16.0647,2.16284-16.06494-2.16284a47.62239,47.62239,0,0,0-34.03027,8.44165l-.00025.00006a40.80742,40.80742,0,0,0-17.09155,33.20661c0,6.11719-.00024,9.56561-.00073,26.31952l.00049.0169C192.26367,326.046,192.26367,323.25366,192.26367,319.40967Z"/><path fill="#26a6fe" fill-rule="evenodd" d="M326.63745,305.41071a40.80946,40.80946,0,0,0-17.09155-33.20765V272.203a47.599,47.599,0,0,0-13.67969-6.75641,40.80256,40.80256,0,0,1,16.77124,32.96412c0,5.39111.00025,8.42413.00073,24.29943a67.18389,67.18389,0,0,1-67.187,67.17914l-1.68017.00006a65.93794,65.93794,0,0,1-22.23584-3.83661A65.51142,65.51142,0,0,0,257.771,396.88934l1.68017-.00006a67.18389,67.18389,0,0,0,67.187-67.17914C326.6377,313.83484,326.63745,310.80182,326.63745,305.41071Z"/><rect width="77.099" height="20.01" x="220.901" y="165.636" fill="#fee903" rx="10.005"/><path fill="#fac600" d="M287.99512,165.63605h-4.45557a10.00879,10.00879,0,0,1-9.54443,13.00964H221.36157a10.00818,10.00818,0,0,0,9.54419,7h57.08936a10.00482,10.00482,0,1,0,0-20.00964Z"/><path fill="#26a6fe" d="M296.00293 316.97412c-.17383 0-.34766-.00244-.52344-.00635a22.53432 22.53432 0 0 1-11.92871-3.75927 3.50034 3.50034 0 0 1 3.8711-5.833 15.52933 15.52933 0 0 0 8.22167 2.59424 15.72647 15.72647 0 0 0 8.957-2.59522 3.50007 3.50007 0 1 1 3.86718 5.835A22.848 22.848 0 0 1 296.00293 316.97412zM222.88379 316.97412c-.17383 0-.34766-.002-.52344-.00635a22.53 22.53 0 0 1-11.92871-3.75927 3.50033 3.50033 0 0 1 3.87109-5.833 15.5294 15.5294 0 0 0 8.22168 2.59424 15.74774 15.74774 0 0 0 8.957-2.59522 3.50007 3.50007 0 1 1 3.86718 5.835A22.848 22.848 0 0 1 222.88379 316.97412zM259.44141 370.90186q-.31934 0-.64356-.00782a27.73663 27.73663 0 0 1-14.68164-4.62744 3.49979 3.49979 0 1 1 3.86914-5.833 20.6851 20.6851 0 0 0 22.93262-.00146 3.49994 3.49994 0 1 1 3.86523 5.83594A28.12221 28.12221 0 0 1 259.44141 370.90186z"/><path fill="#fd4755" d="M278.237,133.87933l-15.1326,16.69032a4.9323,4.9323,0,0,1-7.30772,0l-15.13259-16.69032a4.93,4.93,0,0,1,0-6.62314l15.13259-16.69033a4.9323,4.9323,0,0,1,7.30772,0l15.1326,16.69033A4.93,4.93,0,0,1,278.237,133.87933Z"/><path fill="#fb2b3a" d="M278.23706,127.25616l-15.13257-16.6903a4.92136,4.92136,0,0,0-7.15405-.137c.04907.04969.10669.08478.15405.137l0,0a29.77845,29.77845,0,0,1,0,40.00374l0,0c-.04736.05219-.105.08728-.15405.137a4.92136,4.92136,0,0,0,7.15405-.137l15.13257-16.69031A4.93024,4.93024,0,0,0,278.23706,127.25616Z"/><path fill="#fd4755" d="M259.4502,315.31543a8.42235,8.42235,0,0,1-4.92676-1.59082l-4.65528-3.35254a8.45066,8.45066,0,0,1-3.5039-6.84131V280.91455a3.5,3.5,0,0,1,7,0v22.61621a1.43226,1.43226,0,0,0,.59375,1.16016l4.65625,3.35254a1.42938,1.42938,0,0,0,1.67383-.00049l4.65332-3.35156a1.43041,1.43041,0,0,0,.5957-1.16065V280.91455a3.5,3.5,0,1,1,7,0v22.61621a8.44881,8.44881,0,0,1-3.50586,6.8418l-4.65234,3.35156A8.42875,8.42875,0,0,1,259.4502,315.31543Z"/><path fill="#fac600" d="M259.45052,261.75478c-4.35777,0-7.11228-7.90313-10.90592-9.47976-3.92776-1.63236-11.45427,1.94007-14.41748-1.02262s.61016-10.48752-1.02245-14.4144c-1.5769-3.79288-9.48152-6.54683-9.48152-10.90372s7.90464-7.11092,9.48157-10.90383c1.63268-3.927-1.94044-11.45207,1.02282-14.41471s10.48953.61005,14.41717-1.02225c3.79361-1.57659,6.54808-9.4797,10.90581-9.4797s7.11229,7.90312,10.90593,9.47975c3.92775,1.63236,11.45426-1.94007,14.41748,1.02262s-.61017,10.48752,1.02244,14.4144c1.5769,3.79288,9.48153,6.54683,9.48153,10.90372s-7.90464,7.11092-9.48158,10.90383c-1.63268,3.927,1.94045,11.45207-1.02282,14.41471s-10.48953-.61005-14.41716,1.02225C266.56273,253.85167,263.80825,261.75478,259.45052,261.75478Z"/><path fill="#fd6930" d="M259.45052,254.91852c-3.5261,0-5.75492-6.39483-8.82455-7.67056-3.17816-1.32083-9.26825,1.56981-11.666-.82746s.49372-8.486-.82731-11.66345c-1.27595-3.069-7.672-5.29738-7.672-8.82277s6.39606-5.75382,7.672-8.82286c1.32109-3.17754-1.57011-9.26647.82762-11.6637s8.48763.49362,11.66569-.82715c3.0696-1.27571,5.29839-7.67053,8.82446-7.67053s5.75492,6.39483,8.82456,7.67056c3.17815,1.32084,9.26825-1.56981,11.66594.82746s-.49372,8.486.82731,11.66345c1.276,3.069,7.672,5.29738,7.672,8.82277s-6.39606,5.75382-7.672,8.82286c-1.32108,3.17754,1.57012,9.26647-.82761,11.6637s-8.48764-.49362-11.66569.82716C265.20538,248.5237,262.97659,254.91852,259.45052,254.91852Z"/><circle cx="259.451" cy="225.934" r="10.085" fill="#fee903"/><path fill="#fac600" d="M262.30225,216.26532a10.07229,10.07229,0,0,1-11.46509,14.89636,10.08016,10.08016,0,1,0,11.46509-14.89636Z"/><circle cx="263.336" cy="461.667" r="9.369" fill="#fee903"/><path fill="#fac600" d="M266.20752,452.75085a9.36189,9.36189,0,0,1-11.72461,11.96351,9.36631,9.36631,0,1,0,11.72461-11.96351Z"/><path fill="#26a6fe" d="M417.68945,456.4043,393.273,480.27649,399.8855,512h26.82471V487.80078A59.04529,59.04529,0,0,0,417.68945,456.4043Z"/><path fill="#fee903" d="M330.0918,512V424.9242a5.91346,5.91346,0,0,1,7.60464-5.67034l39.74929,11.85347a59.1539,59.1539,0,0,1,42.26443,56.69348V512Z"/><path fill="#fac600" d="M377.4458,431.1073l-39.74927-11.85345a5.91352,5.91352,0,0,0-7.60473,5.67034V428.161l33.354,9.94635a59.15385,59.15385,0,0,1,42.26441,56.69348V512h14V487.80078A59.15385,59.15385,0,0,0,377.4458,431.1073Z"/><path fill="#fd6930" d="M357.70923,425.22174l-20.0127-5.96789a5.91352,5.91352,0,0,0-7.60473,5.67034V512h27.61743Z"/><path fill="#fd5426" d="M357.70923,425.22174l-20.0127-5.96789a5.91352,5.91352,0,0,0-7.60473,5.67034V428.161l27.61743,8.23566Z"/><path fill="#26a6fe" d="M94.49219,457.0321a59.03682,59.03682,0,0,0-9.20557,31.6858V512H111.6333l6.6333-31.72351Z"/><path fill="#fee903" d="M188.80924,512V424.75655a5.918,5.918,0,0,0-7.49614-5.69991L135.66553,431.699a59.1639,59.1639,0,0,0-43.379,57.01891V512Z"/><path fill="#fd6930" d="M181.313,419.05664l-20.1189,5.572V512h27.61524V424.75653A5.91815,5.91815,0,0,0,181.313,419.05664Z"/><path fill="#fee903" d="M450,431.07092h0a9.90356,9.90356,0,0,1,9.90356,9.90356v45.55322A9.90356,9.90356,0,0,1,450,496.43125h0a9.90355,9.90355,0,0,1-9.90355-9.90355V440.97447A9.90356,9.90356,0,0,1,450,431.07092Z" transform="rotate(-36.117 450 463.751)"/><path fill="#fac600" d="M471.42554,476.31287,444.575,439.51428a9.83817,9.83817,0,0,0-15.00024-1.15259,9.93058,9.93058,0,0,1,1.00024,1.15259l26.85059,36.79859a9.897,9.897,0,0,1-1.00025,12.82757,9.89752,9.89752,0,0,0,15.00025-12.82757Z"/><rect width="19.807" height="65.36" x="52.096" y="431.071" fill="#fee903" rx="9.904" transform="rotate(-143.883 62 463.751)"/><path fill="#fac600" d="M81.2627,437.3515a9.89694,9.89694,0,0,0-12.83741,1.01019,9.897,9.897,0,0,1,1.00025,12.82758L42.575,487.98785a9.92892,9.92892,0,0,1-1.00024,1.15259A9.83817,9.83817,0,0,0,56.575,487.98785l26.85059-36.79858A9.90366,9.90366,0,0,0,81.2627,437.3515Z"/><circle cx="49.916" cy="261.436" r="3.5" fill="#fac600"/></svg>