<?xml version="1.0" encoding="utf-8"?>
<!-- Generator: Adobe Illustrator 15.0.1, SVG Export Plug-In . SVG Version: 6.00 Build 0)  -->
<!DOCTYPE svg PUBLIC "-//W3C//DTD SVG 1.1//EN" "http://www.w3.org/Graphics/SVG/1.1/DTD/svg11.dtd">
<svg version="1.1" xmlns="http://www.w3.org/2000/svg" xmlns:xlink="http://www.w3.org/1999/xlink" x="0px" y="0px" width="900px"
	 height="900px" viewBox="0 0 900 900" enable-background="new 0 0 900 900" xml:space="preserve">
<g id="Layer_1" display="none">
	<rect display="inline" fill="#FFFFFF" width="900" height="900"/>
</g>
<g id="background">
	<g>
		
			<linearGradient id="SVGID_1_" gradientUnits="userSpaceOnUse" x1="343.9556" y1="101.4316" x2="277.3334" y2="202.7798" gradientTransform="matrix(0.2025 -0.9793 0.9793 0.2025 10.6924 421.146)">
			<stop  offset="0" style="stop-color:#FFFFFF"/>
			<stop  offset="1" style="stop-color:#EFEEEF"/>
		</linearGradient>
		<circle fill="url(#SVGID_1_)" cx="222.555" cy="147.733" r="60.636"/>
		<g>
			<path fill="#E2DCE3" d="M222.618,209.131c-1.448,0-2.915-0.052-4.36-0.156l0.107-1.496c2.596,0.185,5.235,0.2,7.831,0.044
				l0.09,1.497C225.069,209.094,223.835,209.131,222.618,209.131z M234.249,208.011l-0.286-1.473
				c2.553-0.496,5.099-1.167,7.567-1.994l0.477,1.422C239.476,206.814,236.866,207.502,234.249,208.011z M210.308,207.885
				l-0.151-0.031c-2.652-0.548-5.255-1.265-7.768-2.135l0.491-1.417c2.451,0.849,4.992,1.547,7.55,2.077l0.171,0.035
				L210.308,207.885z M249.433,202.926l-0.657-1.349c2.339-1.141,4.627-2.448,6.799-3.883l0.827,1.251
				C254.175,200.417,251.831,201.756,249.433,202.926z M194.993,202.601c-2.386-1.197-4.717-2.565-6.926-4.067l0.843-1.24
				c2.155,1.464,4.428,2.799,6.756,3.966L194.993,202.601z M262.797,194.094l-0.982-1.134c1.969-1.707,3.844-3.559,5.571-5.505
				l1.122,0.996C266.737,190.446,264.815,192.344,262.797,194.094z M181.735,193.594c-1.99-1.774-3.884-3.7-5.63-5.724l1.136-0.98
				c1.704,1.975,3.552,3.854,5.493,5.584L181.735,193.594z M273.433,182.109l-1.242-0.84c1.459-2.158,2.789-4.435,3.951-6.765
				l1.343,0.669C276.292,177.563,274.93,179.896,273.433,182.109z M171.268,181.465c-1.467-2.231-2.802-4.579-3.965-6.978
				l1.35-0.654c1.135,2.341,2.437,4.631,3.869,6.808L171.268,181.465z M280.586,167.771l-1.418-0.488
				c0.829-2.411,1.513-4.91,2.034-7.425l0.026-0.127l1.471,0.297l-0.028,0.137C282.138,162.738,281.437,165.299,280.586,167.771z
				 M164.279,167.055c-0.843-2.535-1.525-5.147-2.027-7.762l1.473-0.283c0.49,2.552,1.156,5.099,1.978,7.572L164.279,167.055z
				 M283.795,152.077l-1.496-0.108c0.103-1.423,0.155-2.87,0.155-4.298c0-1.176-0.035-2.364-0.105-3.532l1.497-0.09
				c0.072,1.198,0.108,2.417,0.108,3.622C283.955,149.135,283.901,150.617,283.795,152.077z M161.26,151.327
				c-0.068-1.175-0.103-2.363-0.103-3.532c0-1.49,0.056-3.002,0.166-4.496l1.496,0.11c-0.107,1.457-0.162,2.933-0.162,4.386
				c0,1.14,0.034,2.3,0.1,3.445L161.26,151.327z M281.371,136.369c-0.495-2.554-1.164-5.101-1.989-7.569l1.423-0.476
				c0.846,2.53,1.532,5.141,2.039,7.759L281.371,136.369z M163.909,135.608l-1.479-0.255l0.01-0.048
				c0.539-2.606,1.25-5.195,2.113-7.695l1.418,0.49C165.129,130.538,164.435,133.064,163.909,135.608z M276.421,121.553
				c-1.139-2.339-2.444-4.628-3.879-6.802l1.252-0.826c1.47,2.229,2.808,4.574,3.976,6.972L276.421,121.553z M169.009,120.882
				l-1.342-0.671c1.196-2.389,2.562-4.72,4.062-6.93l1.241,0.842C171.507,116.278,170.175,118.552,169.009,120.882z
				 M267.813,108.508c-1.706-1.971-3.557-3.847-5.501-5.576l0.997-1.121c1.993,1.772,3.89,3.695,5.638,5.715L267.813,108.508z
				 M177.784,107.943l-1.12-0.997c1.773-1.992,3.697-3.888,5.719-5.634l0.98,1.135C181.392,104.151,179.514,106,177.784,107.943z
				 M256.129,98.123c-2.158-1.461-4.434-2.792-6.763-3.957l0.671-1.342c2.388,1.193,4.72,2.558,6.933,4.056L256.129,98.123z
				 M189.61,97.723l-0.825-1.253c2.229-1.468,4.576-2.804,6.975-3.97l0.655,1.349C194.075,94.987,191.785,96.29,189.61,97.723z
				 M242.147,91.135c-2.426-0.836-4.938-1.525-7.468-2.048l0.215-1.487l0.086,0.018c2.595,0.536,5.17,1.243,7.656,2.1
				L242.147,91.135z M203.665,90.893l-0.475-1.423c2.531-0.844,5.142-1.528,7.761-2.033l0.284,1.473
				C208.681,89.403,206.133,90.07,203.665,90.893z M226.835,87.993c-2.607-0.19-5.246-0.208-7.831-0.057l-0.088-1.497
				c2.649-0.156,5.356-0.137,8.028,0.058L226.835,87.993z"/>
		</g>
	</g>
	<g>
		<linearGradient id="SVGID_2_" gradientUnits="userSpaceOnUse" x1="637.3818" y1="576.79" x2="743.6965" y2="683.1047">
			<stop  offset="0" style="stop-color:#EFEEEF"/>
			<stop  offset="1" style="stop-color:#FFFFFF"/>
		</linearGradient>
		<circle fill="url(#SVGID_2_)" cx="690.538" cy="629.946" r="75.176"/>
		<g>
			<path fill="#E2DCE3" d="M690.667,705.872l-0.002-1.5c2.598-0.005,5.215-0.145,7.776-0.415l0.158,1.492
				C695.986,705.725,693.317,705.867,690.667,705.872z M682.733,705.476c-2.629-0.268-5.271-0.679-7.852-1.22l0.309-1.469
				c2.529,0.531,5.119,0.934,7.695,1.196L682.733,705.476z M706.445,704.202l-0.313-1.467c2.53-0.54,5.061-1.221,7.521-2.022
				l0.465,1.426C711.609,702.957,709.027,703.651,706.445,704.202z M667.2,702.218c-2.513-0.812-5.011-1.766-7.424-2.836
				l0.607-1.371c2.365,1.049,4.814,1.984,7.277,2.779L667.2,702.218z M721.532,699.279l-0.613-1.369
				c2.36-1.057,4.691-2.252,6.93-3.551l0.754,1.297C726.318,696.982,723.939,698.201,721.532,699.279z M652.691,695.781
				c-2.291-1.319-4.534-2.773-6.67-4.322l0.881-1.215c2.093,1.519,4.292,2.944,6.537,4.236L652.691,695.781z M735.254,691.313
				l-0.885-1.211c2.087-1.523,4.12-3.176,6.044-4.914l1.006,1.113C739.456,688.074,737.382,689.761,735.254,691.313z
				 M639.841,686.467c-1.963-1.762-3.856-3.648-5.63-5.608l1.113-1.006c1.737,1.921,3.594,3.771,5.519,5.497L639.841,686.467z
				 M747.029,680.676l-1.115-1.002c1.729-1.925,3.377-3.962,4.897-6.058l1.215,0.881
				C750.475,676.635,748.794,678.714,747.029,680.676z M629.196,674.697c-1.563-2.138-3.024-4.376-4.346-6.65l1.297-0.754
				c1.295,2.229,2.729,4.423,4.26,6.52L629.196,674.697z M756.352,667.831l-1.299-0.75c1.296-2.246,2.484-4.582,3.532-6.942
				l1.371,0.609C758.887,663.155,757.674,665.539,756.352,667.831z M621.224,660.979c-1.082-2.413-2.046-4.907-2.864-7.411
				l1.426-0.467c0.802,2.455,1.747,4.898,2.808,7.265L621.224,660.979z M762.797,653.325l-1.428-0.461
				c0.796-2.464,1.47-4.997,2.002-7.528l1.469,0.309C764.296,648.228,763.608,650.812,762.797,653.325z M616.29,645.896
				c-0.551-2.577-0.972-5.217-1.251-7.847l1.492-0.158c0.273,2.578,0.686,5.165,1.226,7.69L616.29,645.896z M766.063,637.794
				l-1.492-0.152c0.261-2.543,0.393-5.132,0.393-7.695l1.5-0.085v0.085C766.464,632.561,766.329,635.201,766.063,637.794z
				 M616.112,630.116h-1.5v-0.17c0-2.644,0.138-5.313,0.409-7.933l1.492,0.154c-0.267,2.569-0.401,5.187-0.401,7.778V630.116z
				 M764.554,622.085c-0.271-2.577-0.68-5.165-1.217-7.691l1.467-0.313c0.548,2.578,0.966,5.218,1.242,7.848L764.554,622.085z
				 M617.722,614.476l-1.467-0.311c0.546-2.583,1.236-5.166,2.052-7.678l1.426,0.463
				C618.934,609.412,618.258,611.943,617.722,614.476z M761.318,606.872c-0.801-2.458-1.743-4.903-2.8-7.269l1.369-0.611
				c1.078,2.412,2.04,4.907,2.856,7.415L761.318,606.872z M622.524,599.678l-1.369-0.611c1.072-2.407,2.288-4.789,3.612-7.078
				l1.299,0.75C624.769,594.983,623.577,597.318,622.524,599.678z M754.973,592.673c-1.298-2.237-2.729-4.433-4.254-6.524
				l1.213-0.883c1.555,2.133,3.015,4.372,4.338,6.655L754.973,592.673z M630.313,586.209l-1.213-0.883
				c1.552-2.132,3.234-4.208,5.003-6.173l1.115,1.004C633.484,582.083,631.834,584.119,630.313,586.209z M745.809,580.102
				c-1.733-1.921-3.588-3.772-5.513-5.503l1.004-1.115c1.962,1.766,3.854,3.654,5.622,5.614L745.809,580.102z M640.726,574.647
				l-1.004-1.114c1.959-1.766,4.035-3.449,6.17-5.005l0.883,1.213C644.682,571.266,642.646,572.917,640.726,574.647z
				 M734.243,569.696c-2.098-1.523-4.296-2.951-6.533-4.243l0.75-1.299c2.282,1.318,4.524,2.774,6.664,4.329L734.243,569.696z
				 M653.301,565.492l-0.752-1.299c2.287-1.324,4.667-2.54,7.074-3.613l0.611,1.369
				C657.875,563.002,655.542,564.193,653.301,565.492z M720.77,561.917c-2.364-1.054-4.812-1.991-7.274-2.788l0.463-1.428
				c2.512,0.813,5.009,1.771,7.421,2.845L720.77,561.917z M667.503,559.153l-0.463-1.426c2.507-0.815,5.09-1.507,7.674-2.056
				l0.313,1.467C672.492,557.677,669.961,558.354,667.503,559.153z M705.968,557.122c-2.53-0.533-5.118-0.938-7.693-1.204
				l0.154-1.492c2.627,0.271,5.268,0.685,7.85,1.229L705.968,557.122z M682.719,555.927l-0.156-1.492
				c2.614-0.272,5.283-0.412,7.933-0.414l0.002,1.5C687.898,555.522,685.281,555.659,682.719,555.927z"/>
		</g>
	</g>
	<g>
		
			<linearGradient id="SVGID_3_" gradientUnits="userSpaceOnUse" x1="340.7124" y1="454.9541" x2="340.7124" y2="637.7607" gradientTransform="matrix(0.7071 -0.7071 0.7071 0.7071 -397.8364 482.2217)">
			<stop  offset="0" style="stop-color:#FFFFFF"/>
			<stop  offset="1" style="stop-color:#EFEEEF"/>
		</linearGradient>
		<circle fill="url(#SVGID_3_)" cx="229.411" cy="627.634" r="91.403"/>
		<g>
			<path fill="#E2DCE3" d="M229.493,719.787l-0.002-1.5c2.631-0.003,5.29-0.12,7.902-0.35l0.131,1.494
				C234.869,719.665,232.167,719.784,229.493,719.787z M221.461,719.445c-2.661-0.229-5.343-0.577-7.971-1.036l0.258-1.479
				c2.586,0.452,5.225,0.795,7.842,1.021L221.461,719.445z M245.495,718.38l-0.261-1.477c2.588-0.457,5.186-1.032,7.722-1.712
				l0.388,1.449C250.766,717.331,248.125,717.916,245.495,718.38z M205.639,716.684c-2.578-0.686-5.159-1.494-7.67-2.403l0.511-1.41
				c2.471,0.895,5.009,1.689,7.545,2.364L205.639,716.684z M261.012,714.223l-0.514-1.41c2.469-0.899,4.927-1.919,7.306-3.03
				l0.635,1.359C266.021,712.271,263.522,713.308,261.012,714.223z M190.539,711.214c-2.418-1.124-4.818-2.371-7.132-3.706
				l0.75-1.299c2.276,1.313,4.636,2.539,7.015,3.646L190.539,711.214z M275.568,707.421l-0.752-1.299
				c2.271-1.315,4.513-2.75,6.664-4.262l0.863,1.227C280.156,704.625,277.877,706.082,275.568,707.421z M176.628,703.192
				c-2.184-1.529-4.329-3.175-6.374-4.892l0.964-1.148c2.012,1.688,4.122,3.308,6.27,4.812L176.628,703.192z M288.713,698.177
				l-0.967-1.146c1.985-1.673,3.925-3.454,5.767-5.296l0.587,0.474l0.487,0.573C292.702,694.667,290.73,696.478,288.713,698.177z
				 M164.331,692.878l-0.092-0.092c-1.881-1.88-3.709-3.873-5.425-5.913l1.148-0.965c1.688,2.007,3.486,3.968,5.347,5.827
				L164.331,692.878z M300.06,686.811l-1.148-0.965c1.688-2.01,3.308-4.119,4.813-6.269l1.229,0.861
				C303.422,682.623,301.776,684.767,300.06,686.811z M153.91,680.499c-1.538-2.191-2.994-4.472-4.327-6.779l1.299-0.75
				c1.311,2.269,2.743,4.513,4.256,6.668L153.91,680.499z M309.271,673.662l-1.299-0.75c1.312-2.273,2.539-4.633,3.647-7.014
				l1.36,0.633C311.853,668.952,310.605,671.352,309.271,673.662z M145.868,666.588c-1.127-2.417-2.161-4.917-3.074-7.43l1.41-0.512
				c0.898,2.471,1.915,4.93,3.023,7.309L145.868,666.588z M316.048,659.103l-1.41-0.512c0.895-2.468,1.691-5.007,2.367-7.545
				l1.449,0.387C317.767,654.013,316.958,656.593,316.048,659.103z M140.383,651.488c-0.688-2.576-1.271-5.217-1.733-7.851
				l1.478-0.26c0.455,2.591,1.028,5.189,1.705,7.724L140.383,651.488z M320.182,643.581l-1.478-0.258
				c0.452-2.583,0.795-5.221,1.022-7.842l1.494,0.129C320.991,638.274,320.642,640.956,320.182,643.581z M137.607,635.666
				c-0.231-2.659-0.349-5.361-0.349-8.031h1.5c0,2.627,0.115,5.285,0.343,7.9L137.607,635.666z M320.064,627.58
				c-0.002-2.629-0.119-5.287-0.348-7.901l1.494-0.131c0.232,2.657,0.352,5.359,0.354,8.03L320.064,627.58z M139.101,619.732
				l-1.494-0.129c0.231-2.659,0.582-5.341,1.043-7.972l1.478,0.26C139.674,614.479,139.329,617.118,139.101,619.732z
				 M318.685,611.838c-0.456-2.589-1.031-5.188-1.709-7.723l1.449-0.387c0.689,2.576,1.273,5.218,1.737,7.85L318.685,611.838z
				 M141.832,604.17l-1.449-0.387c0.689-2.582,1.5-5.161,2.41-7.668l1.41,0.512C143.308,599.093,142.51,601.631,141.832,604.17z
				 M314.6,596.572c-0.899-2.471-1.918-4.929-3.028-7.307l1.359-0.635c1.129,2.418,2.165,4.917,3.078,7.428L314.6,596.572z
				 M147.225,589.321l-1.359-0.634c1.128-2.422,2.377-4.82,3.712-7.129l1.299,0.75C149.564,584.58,148.335,586.939,147.225,589.321z
				 M307.914,582.253c-1.313-2.269-2.747-4.511-4.261-6.665l1.228-0.863c1.539,2.19,2.996,4.471,4.331,6.776L307.914,582.253z
				 M155.128,575.646l-1.228-0.861c1.531-2.183,3.179-4.325,4.897-6.369l1.148,0.965C158.255,571.392,156.634,573.5,155.128,575.646
				z M298.826,569.319c-1.677-1.992-3.465-3.938-5.313-5.787l1.023-1.099l0.048,0.049c1.868,1.867,3.685,3.846,5.39,5.87
				L298.826,569.319z M165.311,563.532l-1.1-1.021l0.081-0.078c1.843-1.847,3.829-3.669,5.859-5.378l0.966,1.148
				C169.119,559.884,167.166,561.677,165.311,563.532z M287.645,558.151c-2.009-1.688-4.117-3.308-6.267-4.815l0.861-1.229
				c2.186,1.533,4.329,3.18,6.371,4.896L287.645,558.151z M177.386,553.376l-0.862-1.227c2.188-1.538,4.469-2.995,6.777-4.33
				l0.751,1.299C181.782,550.431,179.539,551.863,177.386,553.376z M274.713,549.086c-2.275-1.313-4.634-2.541-7.013-3.649
				l0.634-1.359c2.418,1.127,4.817,2.375,7.129,3.71L274.713,549.086z M191.066,545.463l-0.634-1.359
				c2.416-1.127,4.916-2.162,7.429-3.076l0.513,1.41C195.902,543.336,193.443,544.354,191.066,545.463z M260.394,542.417
				c-2.464-0.895-5.002-1.691-7.543-2.369l0.386-1.449c2.584,0.688,5.165,1.499,7.669,2.408L260.394,542.417z M205.918,540.063
				l-0.387-1.449c2.574-0.688,5.215-1.271,7.85-1.734l0.26,1.477C211.05,538.812,208.451,539.386,205.918,540.063z M245.127,538.347
				c-2.589-0.453-5.228-0.798-7.842-1.024l0.13-1.494c2.657,0.23,5.338,0.581,7.971,1.042L245.127,538.347z M221.483,537.326
				l-0.131-1.494c2.663-0.232,5.365-0.351,8.032-0.351v1.5C226.761,536.981,224.103,537.098,221.483,537.326z"/>
		</g>
	</g>
</g>
<g id="suitcase_x5F_2">
	<linearGradient id="SVGID_4_" gradientUnits="userSpaceOnUse" x1="284.6606" y1="655.3838" x2="284.6606" y2="604.0938">
		<stop  offset="0" style="stop-color:#92A6EB"/>
		<stop  offset="1" style="stop-color:#6A74EF"/>
	</linearGradient>
	<polygon fill="url(#SVGID_4_)" points="252.03,655.384 200.74,604.094 317.495,604.094 368.581,655.18 	"/>
	<linearGradient id="SVGID_5_" gradientUnits="userSpaceOnUse" x1="342.1948" y1="655.3838" x2="342.1948" y2="604.0937">
		<stop  offset="0" style="stop-color:#2421A2"/>
		<stop  offset="1" style="stop-color:#5C60D5"/>
	</linearGradient>
	<path fill="url(#SVGID_5_)" d="M317.508,604.106c-3.694,10.447-1.365,22.549,6.993,30.907l20.207,20.207l23.873-0.041
		L317.508,604.106z"/>
	<linearGradient id="SVGID_6_" gradientUnits="userSpaceOnUse" x1="194.7642" y1="610.0801" x2="270.0441" y2="685.36">
		<stop  offset="0" style="stop-color:#5C60D5"/>
		<stop  offset="1" style="stop-color:#2421A2"/>
	</linearGradient>
	<path fill="url(#SVGID_6_)" d="M200.745,604.099c-3.699,10.448-1.371,22.556,6.989,30.915l37.375,37.375
		c8.36,8.361,20.467,10.689,30.916,6.989L200.745,604.099z"/>
	<polygon fill="#250F52" points="385.372,665.106 366.43,653.233 364.626,653.233 361.291,653.233 254.299,653.233 254.299,657.857 
		261.549,665.106 	"/>
	<linearGradient id="SVGID_7_" gradientUnits="userSpaceOnUse" x1="218.415" y1="675.5811" x2="290.0193" y2="747.1853">
		<stop  offset="0" style="stop-color:#5C60D5"/>
		<stop  offset="1" style="stop-color:#2421A2"/>
	</linearGradient>
	<path fill="url(#SVGID_7_)" d="M280.567,756.636v-81.389c0-12.157-9.857-22.014-22.016-22.014h-8.672
		c-12.158,0-22.015,9.856-22.015,22.014v81.389H280.567z"/>
	<polygon fill="#5C60D5" points="366.43,653.233 366.43,665.106 385.372,665.106 	"/>
	<rect x="227.865" y="746.128" fill="#F2D265" width="52.702" height="10.508"/>
	<g>
		<path fill="#2421A2" d="M280.567,694.842h-52.702c-0.552,0-1-0.447-1-1s0.448-1,1-1h52.702c0.552,0,1,0.447,1,1
			S281.12,694.842,280.567,694.842z"/>
	</g>
</g>
<g id="ruler">
	<g>
		<rect x="292.975" y="643.963" fill="#724A5F" width="6.63" height="31.039"/>
		<path fill="#724A5F" d="M364.707,688.807l-1.216-1.216h-0.001l-78.567-78.628h-3.7l3.7,5.703l73.299,74.163
			c0.677,0,1.236-0.009,1.722-0.022H364.707z"/>
		<linearGradient id="SVGID_8_" gradientUnits="userSpaceOnUse" x1="281.2217" y1="648.8848" x2="361.0635" y2="648.8848">
			<stop  offset="0" style="stop-color:#DC6734"/>
			<stop  offset="1" style="stop-color:#AE2E41"/>
		</linearGradient>
		<path fill="url(#SVGID_8_)" d="M331.381,659.176l-50.158-50.213l-0.001,79.844h36.654h5.569h37.618L331.381,659.176z
			 M296.542,673.488v-28.055l28.026,28.055H296.542z"/>
		<g>
			<g>
				<path fill="#EA971D" d="M287.351,683.475h-6.129c-0.242,0-0.438-0.195-0.438-0.438c0-0.241,0.195-0.437,0.438-0.437h6.129
					c0.241,0,0.438,0.195,0.438,0.437C287.788,683.279,287.592,683.475,287.351,683.475z"/>
			</g>
			<g>
				<path fill="#EA971D" d="M287.35,677.381h-6.127c-0.242,0-0.438-0.195-0.438-0.438c0-0.241,0.195-0.438,0.438-0.438h6.127
					c0.242,0,0.438,0.196,0.438,0.438C287.787,677.186,287.592,677.381,287.35,677.381z"/>
			</g>
			<g>
				<path fill="#EA971D" d="M287.35,671.287h-6.127c-0.242,0-0.438-0.195-0.438-0.438c0-0.241,0.195-0.438,0.438-0.438h6.127
					c0.242,0,0.438,0.196,0.438,0.438C287.787,671.092,287.592,671.287,287.35,671.287z"/>
			</g>
			<g>
				<path fill="#EA971D" d="M287.35,665.194h-6.128c-0.242,0-0.438-0.195-0.438-0.438s0.195-0.438,0.438-0.438h6.128
					c0.242,0,0.438,0.195,0.438,0.438S287.592,665.194,287.35,665.194z"/>
			</g>
			<g>
				<path fill="#EA971D" d="M287.35,659.102h-6.127c-0.242,0-0.438-0.196-0.438-0.438c0-0.242,0.195-0.438,0.438-0.438h6.127
					c0.242,0,0.438,0.195,0.438,0.438C287.787,658.905,287.592,659.102,287.35,659.102z"/>
			</g>
			<g>
				<path fill="#EA971D" d="M287.35,653.007h-6.127c-0.242,0-0.438-0.196-0.438-0.438c0-0.242,0.195-0.438,0.438-0.438h6.127
					c0.242,0,0.438,0.195,0.438,0.438C287.787,652.811,287.592,653.007,287.35,653.007z"/>
			</g>
			<g>
				<path fill="#EA971D" d="M287.35,646.912h-6.127c-0.242,0-0.438-0.195-0.438-0.437c0-0.242,0.195-0.437,0.438-0.437h6.127
					c0.242,0,0.438,0.194,0.438,0.437C287.787,646.717,287.592,646.912,287.35,646.912z"/>
			</g>
			<g>
				<path fill="#EA971D" d="M287.35,640.819h-6.127c-0.242,0-0.438-0.195-0.438-0.438c0-0.241,0.195-0.437,0.438-0.437h6.127
					c0.242,0,0.438,0.195,0.438,0.437C287.787,640.624,287.592,640.819,287.35,640.819z"/>
			</g>
			<g>
				<path fill="#EA971D" d="M287.35,634.726h-6.127c-0.242,0-0.438-0.195-0.438-0.438c0-0.241,0.195-0.437,0.438-0.437h6.127
					c0.242,0,0.438,0.195,0.438,0.437C287.787,634.53,287.592,634.726,287.35,634.726z"/>
			</g>
			<g>
				<path fill="#EA971D" d="M287.35,628.632h-6.127c-0.242,0-0.438-0.195-0.438-0.438c0-0.24,0.195-0.437,0.438-0.437h6.127
					c0.242,0,0.438,0.196,0.438,0.437C287.787,628.437,287.592,628.632,287.35,628.632z"/>
			</g>
			<g>
				<path fill="#EA971D" d="M287.35,622.539h-6.127c-0.242,0-0.438-0.195-0.438-0.438c0-0.241,0.195-0.437,0.438-0.437h6.127
					c0.242,0,0.438,0.195,0.438,0.437C287.787,622.344,287.592,622.539,287.35,622.539z"/>
			</g>
		</g>
	</g>
</g>
<g id="suitcase_x5F_1">
	<g>
		<linearGradient id="SVGID_9_" gradientUnits="userSpaceOnUse" x1="284.0439" y1="659.1543" x2="386.7519" y2="761.8622">
			<stop  offset="0" style="stop-color:#92A6EB"/>
			<stop  offset="1" style="stop-color:#6A74EF"/>
		</linearGradient>
		<path fill="url(#SVGID_9_)" d="M369.963,653.233h-3.533l18.942,11.873H278.09c1.58,3.036,2.477,6.482,2.477,10.141v81.389h58.708
			h25.351h27.352v-81.389C391.978,663.09,382.121,653.233,369.963,653.233z"/>
		<g>
			<g>
				<path fill="#3E3EBA" d="M391.978,694.842h-111.41c-0.552,0-1-0.447-1-1s0.448-1,1-1h111.41c0.552,0,1,0.447,1,1
					S392.53,694.842,391.978,694.842z"/>
			</g>
			<path fill="#E3DDE4" d="M302.832,698.531c0,2.558,2.072,4.628,4.629,4.628c2.556,0,4.628-2.07,4.628-4.628v-2.504h-9.257V698.531
				z"/>
			<path fill="#E3DDE4" d="M312.089,688.905c0-2.558-2.072-4.63-4.628-4.63c-2.557,0-4.629,2.072-4.629,4.63v2.752h9.257V688.905z"
				/>
			<path fill="#E3DDE4" d="M374.771,689.092c0-2.556-2.071-4.628-4.628-4.628s-4.628,2.072-4.628,4.628v2.565h9.256V689.092z"/>
			<path fill="#E3DDE4" d="M365.515,698.719c0,2.557,2.071,4.628,4.628,4.628s4.628-2.071,4.628-4.628v-2.691h-9.256V698.719z"/>
		</g>
		<linearGradient id="SVGID_10_" gradientUnits="userSpaceOnUse" x1="280.5674" y1="751.3818" x2="391.9775" y2="751.3818">
			<stop  offset="0" style="stop-color:#E9AA4A"/>
			<stop  offset="1" style="stop-color:#EA971D"/>
		</linearGradient>
		<rect x="280.567" y="746.128" fill="url(#SVGID_10_)" width="111.41" height="10.508"/>
	</g>
</g>
<g id="diamond">
	<path fill="#F2D265" d="M383.502,630.412c-0.001-0.009,0.001-0.019-0.001-0.027c-0.01-0.058-0.029-0.115-0.056-0.169
		c-0.004-0.01-0.013-0.017-0.019-0.026c-0.024-0.044-0.052-0.085-0.086-0.121c-0.001-0.002-0.001-0.003-0.003-0.004l-12.269-12.879
		c-0.083-0.089-0.198-0.139-0.317-0.166c-0.012-0.003-0.023-0.004-0.035-0.008c-0.035-0.005-0.066-0.021-0.102-0.021l-12.84-0.003
		c-0.201-0.126-0.453-0.126-0.657-0.001l-13.163-0.002c-0.027,0-0.053,0.013-0.081,0.017c-0.043,0.007-0.085,0.012-0.124,0.025
		c-0.038,0.013-0.068,0.032-0.103,0.051c-0.037,0.021-0.072,0.043-0.104,0.072c-0.012,0.01-0.026,0.014-0.037,0.024l-12.575,12.873
		c-0.002,0.003-0.003,0.007-0.007,0.01c-0.023,0.025-0.043,0.057-0.063,0.086c-0.013,0.021-0.03,0.039-0.042,0.062
		c-0.001,0.001-0.001,0.003-0.003,0.005c-0.016,0.031-0.021,0.064-0.03,0.096c-0.007,0.024-0.02,0.044-0.022,0.068
		c-0.011,0.055-0.013,0.11-0.008,0.166c0.002,0.021,0.01,0.044,0.013,0.065c0.009,0.04,0.016,0.079,0.031,0.116
		c0,0.002,0,0.006,0.001,0.009c0.007,0.018,0.021,0.029,0.029,0.046c0.017,0.031,0.031,0.064,0.053,0.094l26.057,33.921
		c0.004,0.007,0.011,0.01,0.016,0.015c0.049,0.059,0.103,0.108,0.166,0.146c0.058,0.033,0.122,0.054,0.188,0.067
		c0.044,0.01,0.087,0.019,0.132,0.018c0.003,0,0.005-0.002,0.007-0.002c0.085-0.001,0.166-0.024,0.243-0.058
		c0.016-0.009,0.03-0.014,0.045-0.022c0.075-0.041,0.14-0.094,0.192-0.161c0.002-0.003,0.008-0.004,0.01-0.008l25.447-33.911
		c0.025-0.033,0.041-0.069,0.059-0.105c0.005-0.008,0.012-0.017,0.015-0.025c0.001-0.002,0.001-0.004,0.002-0.005
		c0.02-0.048,0.032-0.099,0.04-0.15c0.001-0.009,0.006-0.017,0.007-0.025C383.513,630.514,383.509,630.463,383.502,630.412z
		 M381.417,629.869l-8.609-0.002l-1.369-10.474L381.417,629.869z M370.021,618.248l1.389,10.627l-12.17-10.63L370.021,618.248z
		 M357.444,618.342l13.192,11.525l-26.668-0.006L357.444,618.342z M344.506,618.242l11.117,0.002l-12.521,10.705L344.506,618.242z
		 M343.088,619.401l-1.372,10.459l-8.844-0.001L343.088,619.401z M332.655,631.115l9.205,0.003l12.828,28.681L332.655,631.115z
		 M357.432,662.856l-14.195-31.738l28.113,0.005L357.432,662.856z M360.19,659.694l12.531-28.571l8.905,0.002L360.19,659.694z"/>
</g>
<g id="timeline">
	<circle fill="#92A6EB" cx="434.71" cy="465.667" r="9.912"/>
	<g>
		<path fill="#E3DDE4" d="M434.709,509.234c-24.022,0-43.565-19.545-43.565-43.568c0-24.022,19.543-43.565,43.565-43.565
			c24.023,0,43.567,19.543,43.567,43.565C478.276,489.689,458.732,509.234,434.709,509.234z M434.709,424.101
			c-22.919,0-41.565,18.646-41.565,41.565c0,22.921,18.646,41.568,41.565,41.568c22.92,0,41.567-18.647,41.567-41.568
			C476.276,442.747,457.629,424.101,434.709,424.101z"/>
	</g>
	<linearGradient id="SVGID_11_" gradientUnits="userSpaceOnUse" x1="362.4204" y1="393.3779" x2="506.9996" y2="537.9571">
		<stop  offset="0" style="stop-color:#E3DDE4"/>
		<stop  offset="1" style="stop-color:#B5A8AE"/>
	</linearGradient>
	<path fill="url(#SVGID_11_)" d="M434.709,363.434c-56.462,0-102.233,45.771-102.233,102.233
		c0,56.461,45.771,102.233,102.233,102.233c56.461,0,102.233-45.772,102.233-102.233
		C536.942,409.205,491.171,363.434,434.709,363.434z M434.709,542.234c-42.287,0-76.566-34.281-76.566-76.567
		c0-42.287,34.28-76.566,76.566-76.566s76.567,34.28,76.567,76.566C511.276,507.953,476.996,542.234,434.709,542.234z"/>
	<linearGradient id="SVGID_12_" gradientUnits="userSpaceOnUse" x1="434.7095" y1="414.3838" x2="536.9385" y2="414.3838">
		<stop  offset="0" style="stop-color:#DC6734"/>
		<stop  offset="1" style="stop-color:#AE2E41"/>
	</linearGradient>
	<path fill="url(#SVGID_12_)" d="M434.709,363.434v25.667c42.174,0,76.377,34.1,76.558,76.232h25.671
		C536.758,409.025,491.06,363.434,434.709,363.434z"/>
</g>
<g id="slider_x5F_2">
	<path fill="#BCB3B8" d="M280.251,166h-71.542c-5.339,0-9.667,4.328-9.667,9.667s4.328,9.666,9.667,9.666h71.542V166z"/>
	<linearGradient id="SVGID_13_" gradientUnits="userSpaceOnUse" x1="287.3345" y1="175.667" x2="489.208" y2="175.667">
		<stop  offset="0" style="stop-color:#E9AA4A"/>
		<stop  offset="1" style="stop-color:#F2D265"/>
	</linearGradient>
	<path fill="url(#SVGID_13_)" d="M479.542,166H287.334v19.333h192.208c5.338,0,9.666-4.327,9.666-9.666S484.88,166,479.542,166z"/>
</g>
<g id="slider_x5F_1">
	<path fill="#BCB3B8" d="M407.376,117H208.709c-5.339,0-9.667,4.328-9.667,9.667s4.328,9.666,9.667,9.666h198.667V117z"/>
	<linearGradient id="SVGID_14_" gradientUnits="userSpaceOnUse" x1="414.4595" y1="126.6665" x2="544.709" y2="126.6665">
		<stop  offset="0" style="stop-color:#6A74EF"/>
		<stop  offset="1" style="stop-color:#92A6EB"/>
	</linearGradient>
	<path fill="url(#SVGID_14_)" d="M535.042,117H414.459v19.333h120.583c5.339,0,9.667-4.327,9.667-9.666S540.381,117,535.042,117z"/>
</g>
<g id="gear_wheel_x5F_2">
	<g>
		<path fill="#B5A8AE" d="M302.24,270c-26.708,0.441-47.963,22.41-47.522,49.117c0.44,26.707,22.409,47.962,49.117,47.522
			c26.707-0.441,47.962-22.409,47.522-49.117C350.917,290.815,328.948,269.561,302.24,270z M303.494,346.01
			c-15.305,0.252-27.894-11.928-28.146-27.232c-0.252-15.305,11.927-27.894,27.233-28.146c15.304-0.252,27.893,11.927,28.146,27.231
			C330.979,333.168,318.799,345.757,303.494,346.01z"/>
		<polygon fill="#C6BDC2" points="308.888,257.895 311.953,260.861 298.325,261.086 295.259,258.12 		"/>
		<polygon fill="#B5A8AE" points="332.143,265.053 335.209,268.019 346.365,275.85 343.299,272.884 		"/>
		<polygon fill="#B5A8AE" points="357.875,292.292 360.939,295.258 345.377,295.331 342.312,292.364 		"/>
		<polygon fill="#B5A8AE" points="362.702,329.484 365.768,332.45 353.133,323.363 350.067,320.397 		"/>
		<polygon fill="#B5A8AE" points="297.25,378.745 300.315,381.711 295.08,367.055 292.015,364.089 		"/>
		<polygon fill="#B5A8AE" points="262.809,363.786 265.875,366.752 270.259,351.82 267.194,348.854 		"/>
		<polygon fill="#B5A8AE" points="246.828,334.413 243.762,331.447 256.089,321.949 259.155,324.915 		"/>
		<polygon fill="#C6BDC2" points="251.244,347.308 248.179,344.342 243.762,331.447 246.828,334.413 		"/>
		<polygon fill="#C6BDC2" points="243.356,307.145 246.421,310.111 250.426,297.082 247.36,294.116 		"/>
		<polygon fill="#B5A8AE" points="262.917,293.674 265.981,296.641 250.426,297.082 247.36,294.116 		"/>
		<polygon fill="#C6BDC2" points="261.288,274.238 264.353,277.203 275.244,269.008 272.179,266.042 		"/>
		<polygon fill="#B5A8AE" points="269.226,291.982 266.161,289.017 261.288,274.238 264.353,277.203 		"/>
		<polygon fill="#B5A8AE" points="272.179,266.042 275.244,269.008 288.095,277.785 285.029,274.819 		"/>
		<polygon fill="#B5A8AE" points="290.511,272.94 293.577,275.906 298.325,261.086 295.259,258.12 		"/>
		<polygon fill="#B5A8AE" points="319.588,274.249 322.654,277.214 335.209,268.019 332.143,265.053 		"/>
		<linearGradient id="SVGID_15_" gradientUnits="userSpaceOnUse" x1="263.188" y1="278.3691" x2="349.0089" y2="364.1901">
			<stop  offset="0" style="stop-color:#F2D265"/>
			<stop  offset="1" style="stop-color:#DCBB60"/>
		</linearGradient>
		<path fill="url(#SVGID_15_)" d="M361.779,345.483l3.989-13.034l-11.44-8.228c0.074-1.234,0.116-2.476,0.096-3.733
			c-0.021-1.253-0.104-2.489-0.218-3.717l11.166-8.625l-4.432-12.889l-14.064,0.065c-1.34-2.101-2.841-4.086-4.48-5.948l3.97-13.526
			l-11.156-7.831l-11.346,8.31c-2.308-0.912-4.704-1.645-7.169-2.195l-4.741-13.273l-13.628,0.225l-4.295,13.405
			c-2.472,0.635-4.868,1.453-7.168,2.451l-11.617-7.935l-10.891,8.195l4.417,13.396c-1.573,1.913-3.006,3.943-4.274,6.084
			l-14.07,0.399l-4.004,13.029l11.457,8.26c-0.073,1.228-0.115,2.463-0.094,3.713c0.021,1.254,0.104,2.491,0.218,3.719
			l-11.174,8.609l4.417,12.896l14.094-0.049c1.347,2.111,2.858,4.105,4.506,5.975l-3.97,13.518l11.154,7.833l11.366-8.323
			c2.313,0.911,4.715,1.643,7.186,2.191l4.736,13.258l13.628-0.225l4.301-13.422c2.424-0.626,4.774-1.431,7.033-2.407l11.63,7.94
			l10.89-8.197l-4.411-13.369c1.589-1.926,3.037-3.972,4.316-6.131L361.779,345.483z M278.414,321.744
			c-0.252-15.305,11.927-27.894,27.232-28.146c15.304-0.253,27.893,11.927,28.146,27.232c0.252,15.304-11.927,27.893-27.232,28.146
			C291.255,349.228,278.666,337.048,278.414,321.744z"/>
		<g>
			<path fill="#E3DDE4" d="M306.089,360.559c-21.292,0-38.901-17.327-39.253-38.625c-0.173-10.497,3.746-20.427,11.037-27.962
				c7.29-7.535,17.086-11.78,27.583-11.953c21.624-0.35,39.56,17.101,39.916,38.619c0.357,21.652-16.968,39.558-38.619,39.916
				C306.53,360.557,306.309,360.559,306.089,360.559z M306.118,284.014c-0.209,0-0.419,0.002-0.629,0.005
				c-9.963,0.164-19.26,4.193-26.179,11.344c-6.918,7.151-10.638,16.576-10.474,26.538c0.337,20.423,17.412,37.019,37.883,36.652
				c20.549-0.339,36.991-17.333,36.652-37.882C343.037,300.458,326.325,284.014,306.118,284.014z"/>
		</g>
	</g>
</g>
<g id="controller_x5F_2">
	<path fill="#C6BDC2" d="M296.24,318.823c0.067,4.023,3.376,7.226,7.4,7.159c4.023-0.067,7.225-3.376,7.159-7.399
		c-0.066-4.024-3.376-7.225-7.4-7.16C299.375,311.49,296.174,314.8,296.24,318.823z"/>
	<g>
		<path fill="#C6BDC2" d="M305.876,323c-0.383,0-0.766-0.146-1.059-0.437l-84.153-83.82c-0.282-0.281-0.441-0.663-0.441-1.062
			s0.158-0.78,0.439-1.062l62.014-62.013c0.586-0.586,1.535-0.586,2.121,0c0.586,0.585,0.586,1.536,0,2.121l-60.951,60.951
			l83.088,82.759c0.587,0.585,0.589,1.535,0.004,2.122C306.646,322.853,306.261,323,305.876,323z"/>
	</g>
	<linearGradient id="SVGID_16_" gradientUnits="userSpaceOnUse" x1="268.77" y1="160.7002" x2="298.7047" y2="190.6348">
		<stop  offset="0" style="stop-color:#DC6734"/>
		<stop  offset="1" style="stop-color:#AE2E41"/>
	</linearGradient>
	<circle fill="url(#SVGID_16_)" cx="283.737" cy="175.667" r="21.167"/>
	<path fill="#BE4118" d="M298.823,321.406c0.067,4.023,3.376,7.226,7.4,7.159c4.023-0.067,7.225-3.376,7.159-7.399
		c-0.066-4.024-3.376-7.225-7.4-7.16C301.959,314.074,298.757,317.383,298.823,321.406z"/>
	<circle fill="#F2D265" cx="283.737" cy="175.667" r="8.333"/>
</g>
<g id="gear_wheel_x5F_1">
	<g>
		<path fill="#B5A8AE" d="M426.586,209.498c-31.697-5.097-61.471,16.428-66.568,48.125c-5.097,31.697,16.428,61.471,48.126,66.568
			c31.697,5.097,61.471-16.428,66.568-48.125C479.809,244.369,458.283,214.595,426.586,209.498z M412.08,299.707
			c-18.164-2.921-30.499-19.982-27.578-38.146c2.921-18.165,19.982-30.499,38.147-27.578c18.164,2.92,30.498,19.982,27.578,38.146
			C447.306,290.293,430.245,302.627,412.08,299.707z"/>
		<polygon fill="#C6BDC2" points="437,196.571 440.003,200.726 423.828,198.125 420.825,193.97 		"/>
		<polygon fill="#B5A8AE" points="463.013,209.934 466.017,214.088 477.57,225.702 474.566,221.547 		"/>
		<polygon fill="#B5A8AE" points="487.731,247.58 490.734,251.735 472.304,248.546 469.3,244.392 		"/>
		<polygon fill="#B5A8AE" points="485.62,292.607 488.624,296.762 475.585,283.351 472.581,279.197 		"/>
		<polygon fill="#B5A8AE" points="397.804,337.131 400.808,341.286 397.696,322.841 394.693,318.687 		"/>
		<polygon fill="#B5A8AE" points="360.195,312.184 363.199,316.338 371.529,299.591 368.526,295.437 		"/>
		<polygon fill="#B5A8AE" points="347.463,274.063 344.459,269.908 361.045,261.262 364.049,265.417 		"/>
		<polygon fill="#C6BDC2" points="349.977,290.251 346.973,286.097 344.459,269.908 347.463,274.063 		"/>
		<polygon fill="#C6BDC2" points="349.091,241.065 352.095,245.22 359.574,230.644 356.57,226.489 		"/>
		<polygon fill="#B5A8AE" points="375.072,229.239 378.075,233.394 359.574,230.644 356.57,226.489 		"/>
		<polygon fill="#C6BDC2" points="377.233,205.896 380.237,210.051 394.849,202.644 391.845,198.49 		"/>
		<polygon fill="#B5A8AE" points="382.895,228.565 379.891,224.411 377.233,205.896 380.237,210.051 		"/>
		<polygon fill="#B5A8AE" points="391.845,198.49 394.849,202.644 408.209,215.733 405.206,211.579 		"/>
		<polygon fill="#B5A8AE" points="412.088,210.509 415.092,214.664 423.828,198.125 420.825,193.97 		"/>
		<polygon fill="#B5A8AE" points="446.222,218.174 449.225,222.329 466.017,214.088 463.013,209.934 		"/>
		<linearGradient id="SVGID_17_" gradientUnits="userSpaceOnUse" x1="369.7905" y1="220.4287" x2="470.9351" y2="321.5733">
			<stop  offset="0" style="stop-color:#92A6EB"/>
			<stop  offset="1" style="stop-color:#6A74EF"/>
		</linearGradient>
		<path fill="url(#SVGID_17_)" d="M477.715,280.221c0.239-1.487,0.4-2.967,0.524-4.443l15.027-7.858l-2.532-16.185l-16.656-2.881
			c-1.144-2.769-2.503-5.433-4.051-7.981l7.543-15.17l-11.554-11.614l-15.175,7.447c-2.539-1.564-5.22-2.936-8.021-4.105
			l-2.818-16.704l-16.175-2.601l-7.902,14.96c-3.059,0.231-6.066,0.695-8.999,1.393l-12.078-11.834l-14.612,7.407l2.409,16.781
			c-2.264,1.932-4.386,4.033-6.337,6.3l-16.734-2.487l-7.479,14.576l11.819,12.185c-0.344,1.437-0.654,2.89-0.893,4.373
			c-0.239,1.488-0.401,2.97-0.525,4.448l-15.034,7.837l2.514,16.188l16.688,2.908c1.15,2.782,2.518,5.459,4.076,8.019l-7.542,15.161
			l11.551,11.616l15.201-7.458c2.546,1.564,5.234,2.936,8.042,4.104l2.814,16.685l16.174,2.601l7.913-14.979
			c3.001-0.23,5.951-0.688,8.83-1.368l12.092,11.842l14.61-7.409l-2.406-16.748c2.285-1.945,4.429-4.062,6.396-6.347l16.744,2.468
			l7.462-14.584l-11.808-12.144C477.163,283.173,477.475,281.712,477.715,280.221z M387.506,265.715
			c2.921-18.164,19.982-30.499,38.146-27.578c18.164,2.921,30.498,19.982,27.578,38.146c-2.921,18.164-19.982,30.498-38.147,27.578
			C396.919,300.94,384.585,283.879,387.506,265.715z"/>
		<g>
			<path fill="#E3DDE4" d="M420.439,318.008c-2.505,0-5.039-0.204-7.533-0.604c-25.587-4.114-43.057-28.278-38.943-53.866
				c3.685-22.915,23.17-39.546,46.333-39.546c2.505,0,5.04,0.204,7.534,0.604c25.587,4.114,43.057,28.278,38.942,53.865
				C463.087,301.376,443.602,318.008,420.439,318.008z M420.296,225.991c-22.175,0-40.83,15.924-44.358,37.864
				c-3.939,24.499,12.787,47.634,37.286,51.574c2.389,0.384,4.816,0.579,7.215,0.579c22.175,0,40.83-15.924,44.358-37.864
				c3.938-24.499-12.787-47.634-37.285-51.573C425.124,226.186,422.695,225.991,420.296,225.991z"/>
		</g>
	</g>
</g>
<g id="controller_x5F_1">
	<circle fill="#C6BDC2" cx="417.292" cy="267.866" r="8.75"/>
	<g>
		<path fill="#C6BDC2" d="M420.375,272.449c-0.359,0-0.72-0.128-1.007-0.389l-80.667-73.116c-0.304-0.276-0.482-0.664-0.492-1.075
			c-0.01-0.41,0.148-0.807,0.439-1.097l71.167-71.167c0.586-0.586,1.535-0.586,2.121,0c0.586,0.585,0.586,1.536,0,2.121
			l-70.053,70.053l79.5,72.058c0.614,0.556,0.661,1.505,0.104,2.119C421.191,272.283,420.784,272.449,420.375,272.449z"/>
	</g>
	<linearGradient id="SVGID_18_" gradientUnits="userSpaceOnUse" x1="395.9092" y1="111.6997" x2="425.8431" y2="141.6337">
		<stop  offset="0" style="stop-color:#DC6734"/>
		<stop  offset="1" style="stop-color:#AE2E41"/>
	</linearGradient>
	<circle fill="url(#SVGID_18_)" cx="410.876" cy="126.667" r="21.167"/>
	<circle fill="#BE4118" cx="420.376" cy="270.949" r="8.75"/>
	<circle fill="#92A6EB" cx="410.876" cy="126.667" r="8.333"/>
</g>
<g id="right_leg">
	<g>
		<linearGradient id="SVGID_19_" gradientUnits="userSpaceOnUse" x1="677.374" y1="742.4717" x2="709.0557" y2="742.4717">
			<stop  offset="0" style="stop-color:#EAAEA4"/>
			<stop  offset="0.3126" style="stop-color:#E8A89D"/>
			<stop  offset="0.7825" style="stop-color:#E39688"/>
			<stop  offset="1" style="stop-color:#E08C7C"/>
		</linearGradient>
		<path fill="url(#SVGID_19_)" d="M694.206,763.858c4.779,0.021,10.978-1.989,14.85-3.451c-1.236-4.7-2.836-9.404-3.18-12.407
			c-0.667-5.833-2.634-23.754-2.495-26.915l-24.338,0.155c0,0,7.416,26.093,3.838,29.512c-1.513,1.445-3.394,2.711-5.507,3.824
			c1.354,0.191,2.688,0.623,3.954,1.396C685.456,758.491,688.459,763.833,694.206,763.858z"/>
		<linearGradient id="SVGID_20_" gradientUnits="userSpaceOnUse" x1="639.0391" y1="765.9707" x2="710.5586" y2="765.9707">
			<stop  offset="0" style="stop-color:#DC6734"/>
			<stop  offset="1" style="stop-color:#AE2E41"/>
		</linearGradient>
		<path fill="url(#SVGID_20_)" d="M639.381,770.252c1,1.167,7.142,5.945,30.333,7c18.334,0.834,39.667-3.064,40.5-6
			c0.143-0.504,0.237-0.049,0.291-0.627c0.265-2.854-0.48-6.535-1.449-10.218c-3.872,1.462-10.07,3.473-14.85,3.451
			c-5.747-0.025-8.75-5.367-12.878-7.887c-1.266-0.772-2.601-1.204-3.954-1.396c-11.349,5.978-29.403,7.541-33.243,8.844
			c-2.916,0.989-4.434,3.346-4.917,5.259C638.924,769.826,639.006,769.814,639.381,770.252z"/>
		<linearGradient id="SVGID_21_" gradientUnits="userSpaceOnUse" x1="661.3164" y1="726.2881" x2="661.3164" y2="394.3843">
			<stop  offset="0" style="stop-color:#5C60D5"/>
			<stop  offset="0.5879" style="stop-color:#2421A2"/>
			<stop  offset="1" style="stop-color:#250F52"/>
		</linearGradient>
		<path fill="url(#SVGID_21_)" d="M618.298,402.939c-1.588,13.727,6.744,108.061,19.411,181.394s28.917,120.667,30.334,138
			c0.256,3.134,11.665,4.627,21.708,3.667c8.5-0.813,13.715-3.513,14.381-5.513s1.363-55.294-5.756-99.82
			c-9.5-59.417-3.304-79.984,1.354-122.171c5.979-54.163,3.98-73.829-0.604-95.996c-3.488-16.868-23.737-2.375-40.415-1.343
			S618.298,402.939,618.298,402.939z"/>
		<linearGradient id="SVGID_22_" gradientUnits="userSpaceOnUse" x1="647.3242" y1="496.6455" x2="647.3242" y2="485.3125">
			<stop  offset="0" style="stop-color:#6A74EF"/>
			<stop  offset="1" style="stop-color:#5C60D5"/>
		</linearGradient>
		<polygon fill="url(#SVGID_22_)" points="646.652,496.646 646.001,489.75 647.813,485.313 648.646,496.485 		"/>
		<g>
			<path fill="#6A74EF" d="M679.336,713.929c-0.166-1.912-0.381-3.904-0.64-5.919l1.984-0.254c0.262,2.042,0.479,4.061,0.647,6.001
				L679.336,713.929z"/>
			<path fill="#6A74EF" d="M678.145,704.075c-0.287-1.881-0.619-3.861-0.986-5.885l1.969-0.357c0.37,2.043,0.705,4.041,0.994,5.941
				L678.145,704.075z"/>
			<path fill="#6A74EF" d="M676.417,694.277c-0.379-1.92-0.782-3.87-1.208-5.855l1.955-0.42c0.428,1.997,0.835,3.957,1.216,5.889
				L676.417,694.277z"/>
			<path fill="#6A74EF" d="M674.356,684.525c-0.427-1.911-0.87-3.855-1.329-5.841l1.949-0.449c0.459,1.989,0.904,3.939,1.331,5.854
				L674.356,684.525z"/>
			
				<rect x="669.412" y="670.646" transform="matrix(0.2287 0.9735 -0.9735 0.2287 1172.495 -136.5364)" fill="#6A74EF" width="5.996" height="2"/>
			<path fill="#6A74EF" d="M669.837,665.063c-0.446-1.908-0.901-3.855-1.36-5.844l1.949-0.449c0.459,1.986,0.912,3.932,1.358,5.838
				L669.837,665.063z"/>
			<path fill="#6A74EF" d="M667.582,655.319c-0.435-1.913-0.873-3.864-1.314-5.857l1.953-0.432c0.439,1.989,0.878,3.937,1.313,5.846
				L667.582,655.319z"/>
			<path fill="#6A74EF" d="M665.413,645.552c-0.415-1.92-0.831-3.878-1.247-5.875l1.959-0.408c0.414,1.993,0.828,3.945,1.243,5.859
				L665.413,645.552z"/>
			<path fill="#6A74EF" d="M663.361,635.754c-0.39-1.927-0.778-3.891-1.164-5.893l1.963-0.379c0.386,1.996,0.772,3.954,1.162,5.875
				L663.361,635.754z"/>
			<path fill="#6A74EF" d="M661.448,625.928c-0.361-1.935-0.721-3.903-1.076-5.909l1.969-0.35c0.355,2,0.713,3.963,1.074,5.892
				L661.448,625.928z"/>
			<path fill="#6A74EF" d="M659.686,616.072c-0.333-1.94-0.661-3.915-0.986-5.926l1.975-0.318c0.323,2.003,0.651,3.972,0.982,5.906
				L659.686,616.072z"/>
			<path fill="#6A74EF" d="M658.072,606.19c-0.302-1.947-0.601-3.927-0.894-5.939l1.979-0.289c0.293,2.007,0.59,3.98,0.892,5.922
				L658.072,606.19z"/>
			<path fill="#6A74EF" d="M656.612,596.287c-0.273-1.953-0.541-3.938-0.804-5.953l1.982-0.26c0.263,2.01,0.53,3.988,0.802,5.936
				L656.612,596.287z"/>
			<path fill="#6A74EF" d="M655.302,586.361c-0.244-1.959-0.483-3.946-0.717-5.964l1.986-0.23c0.233,2.012,0.471,3.993,0.715,5.946
				L655.302,586.361z"/>
			<path fill="#6A74EF" d="M654.133,576.418c-0.216-1.936-0.435-3.929-0.654-5.976l1.988-0.213c0.22,2.043,0.438,4.034,0.654,5.966
				L654.133,576.418z"/>
			<path fill="#6A74EF" d="M653.055,566.459c-0.206-1.952-0.413-3.946-0.62-5.979l1.99-0.203c0.207,2.03,0.413,4.022,0.618,5.973
				L653.055,566.459z"/>
			<path fill="#6A74EF" d="M652.031,556.495c-0.197-1.963-0.395-3.958-0.592-5.98l1.99-0.193c0.197,2.021,0.395,4.014,0.592,5.975
				L652.031,556.495z"/>
			<path fill="#6A74EF" d="M651.053,546.528c-0.19-1.972-0.38-3.967-0.57-5.981l1.991-0.188c0.189,2.013,0.379,4.006,0.569,5.978
				L651.053,546.528z"/>
			<path fill="#6A74EF" d="M650.11,536.561c-0.184-1.979-0.366-3.976-0.549-5.983l1.992-0.182c0.183,2.008,0.365,4.002,0.549,5.979
				L650.11,536.561z"/>
			<path fill="#6A74EF" d="M649.201,526.588c-0.178-1.984-0.354-3.98-0.53-5.983l1.992-0.176c0.176,2.003,0.353,3.997,0.53,5.981
				L649.201,526.588z"/>
			
				<rect x="646.059" y="512.537" transform="matrix(0.0853 0.9964 -0.9964 0.0853 1105.3311 -176.9864)" fill="#6A74EF" width="6.007" height="1.999"/>
			
				<rect x="645.216" y="502.549" transform="matrix(0.0827 0.9966 -0.9966 0.0827 1096.4507 -184.088)" fill="#6A74EF" width="6.012" height="2.001"/>
			<path fill="#6A74EF" d="M645.861,486.677c-0.156-2.006-0.31-4.004-0.46-5.991l1.994-0.15c0.15,1.985,0.304,3.981,0.46,5.985
				L645.861,486.677z"/>
			<path fill="#6A74EF" d="M645.101,476.692c-0.15-2.011-0.298-4.01-0.441-5.992l1.994-0.145c0.144,1.98,0.291,3.978,0.441,5.988
				L645.101,476.692z"/>
			<path fill="#6A74EF" d="M644.372,466.707c-0.144-2.02-0.284-4.019-0.42-5.995l1.996-0.137c0.136,1.975,0.274,3.972,0.418,5.989
				L644.372,466.707z"/>
			<path fill="#6A74EF" d="M643.682,456.715c-0.136-2.027-0.268-4.027-0.395-5.996l1.996-0.129c0.127,1.966,0.259,3.964,0.395,5.992
				L643.682,456.715z"/>
			<path fill="#6A74EF" d="M643.034,446.721c-0.127-2.04-0.248-4.042-0.363-6l1.996-0.117c0.115,1.956,0.236,3.955,0.363,5.993
				L643.034,446.721z"/>
			<path fill="#6A74EF" d="M642.44,436.721c-0.116-2.059-0.225-4.063-0.324-6.005l1.998-0.103c0.1,1.94,0.206,3.94,0.322,5.995
				L642.44,436.721z"/>
			<path fill="#6A74EF" d="M641.918,426.711c-0.099-2.088-0.188-4.095-0.265-6.011l1.998-0.08c0.077,1.912,0.166,3.913,0.265,5.997
				L641.918,426.711z"/>
			<path fill="#6A74EF" d="M641.504,416.69c-0.073-2.153-0.129-4.166-0.166-6.023l2-0.04c0.037,1.849,0.093,3.853,0.164,5.996
				L641.504,416.69z"/>
			<path fill="#6A74EF" d="M641.286,406.642l-0.002-0.877c0-2.049,0.035-3.791,0.104-5.176l1.998,0.101
				c-0.068,1.352-0.103,3.06-0.103,5.076l0.002,0.851L641.286,406.642z"/>
		</g>
		<linearGradient id="SVGID_23_" gradientUnits="userSpaceOnUse" x1="639.04" y1="772.6045" x2="710.5586" y2="772.6045">
			<stop  offset="0" style="stop-color:#E9AA4A"/>
			<stop  offset="1" style="stop-color:#EA971D"/>
		</linearGradient>
		<path fill="url(#SVGID_23_)" d="M639.381,771.252c1,1.167,7.142,5.945,30.333,7c18.334,0.834,39.667-3.064,40.5-6
			c0.32-1.128,0.398-2.46,0.312-3.918c-43.419,10.93-67.439,0.333-70.561-1.491C638.919,768.67,638.813,770.59,639.381,771.252z"/>
		<g>
			<linearGradient id="SVGID_24_" gradientUnits="userSpaceOnUse" x1="665.7705" y1="715.8105" x2="704.5273" y2="715.8105">
				<stop  offset="0" style="stop-color:#92A6EB"/>
				<stop  offset="1" style="stop-color:#6A74EF"/>
			</linearGradient>
			<path fill="url(#SVGID_24_)" d="M689.751,726c8.5-0.813,13.715-3.513,14.381-5.513c0.209-0.627,0.421-6.297,0.394-15.155l0,0
				c-17.184,9.832-35.483,4.668-38.755,3.97l0,0c1.204,5.397,2.005,9.753,2.272,13.031C668.299,725.467,679.708,726.96,689.751,726z
				"/>
			<g>
				<path fill="#5C60D5" d="M683.283,715.901l-0.047-1.5c2.06-0.063,4.091-0.231,6.04-0.5l0.205,1.486
					C687.479,715.663,685.395,715.836,683.283,715.901z M679.141,715.895c-2.038-0.068-4.12-0.232-6.188-0.487l0.184-1.488
					c2.024,0.249,4.062,0.409,6.056,0.476L679.141,715.895z M693.569,714.66l-0.322-1.465c1.999-0.438,3.95-1.002,5.801-1.674
					l0.512,1.41C697.647,713.626,695.632,714.207,693.569,714.66z"/>
			</g>
			<path fill="#5C60D5" d="M669.133,713.307c-0.894-0.164-1.77-0.346-2.617-0.538c0.113,0.55,0.22,1.083,0.322,1.606
				c0.664,0.143,1.338,0.28,2.025,0.406L669.133,713.307z"/>
			<path fill="#5C60D5" d="M703.416,711.318c0.372-0.178,0.727-0.384,1.094-0.572c0.006-0.547,0.01-1.113,0.013-1.699
				c-0.581,0.313-1.157,0.633-1.753,0.918L703.416,711.318z"/>
		</g>
	</g>
</g>
<g id="left_leg">
	<linearGradient id="SVGID_25_" gradientUnits="userSpaceOnUse" x1="530.1885" y1="753.1875" x2="562.543" y2="753.1875">
		<stop  offset="0" style="stop-color:#EAAEA4"/>
		<stop  offset="0.3126" style="stop-color:#E8A89D"/>
		<stop  offset="0.7825" style="stop-color:#E39688"/>
		<stop  offset="1" style="stop-color:#E08C7C"/>
	</linearGradient>
	<path fill="url(#SVGID_25_)" d="M537.001,766.375c3.625,4.375,6.867,7.564,10.75,7.5c4.542-0.076,8.937-1.846,11.704-3.231
		c-0.754-3.946-1.757-7.822-2.079-10.644c-0.667-5.833,4.333-20.5,5.167-23.834l-23.667-3.666c0,0-0.083,20.334-6.333,28.333
		c-0.67,0.857-1.469,1.644-2.354,2.375C532.729,763.329,535.203,764.205,537.001,766.375z"/>
	<linearGradient id="SVGID_26_" gradientUnits="userSpaceOnUse" x1="488.7012" y1="775.3281" x2="560.3516" y2="775.3281">
		<stop  offset="0" style="stop-color:#DC6734"/>
		<stop  offset="1" style="stop-color:#AE2E41"/>
	</linearGradient>
	<path fill="url(#SVGID_26_)" d="M489.043,780.333c1,1.167,7.142,5.945,30.333,7c18.334,0.834,39.667-3.064,40.5-6
		c0.15-0.53,0.262-0.091,0.338-0.677c0.384-2.935-0.089-6.501-0.759-10.013c-2.768,1.386-7.162,3.155-11.704,3.231
		c-3.883,0.064-7.125-3.125-10.75-7.5c-1.798-2.17-4.272-3.046-6.813-3.167c-9.965,8.232-32.213,8.874-36.396,10.293
		c-3.267,1.108-4.777,3.933-5.047,5.927C488.631,780.281,488.743,779.983,489.043,780.333z"/>
	<linearGradient id="SVGID_27_" gradientUnits="userSpaceOnUse" x1="531.0215" y1="569.3555" x2="666.4375" y2="569.3555">
		<stop  offset="0" style="stop-color:#5C60D5"/>
		<stop  offset="0.5879" style="stop-color:#2421A2"/>
		<stop  offset="1" style="stop-color:#250F52"/>
	</linearGradient>
	<path fill="url(#SVGID_27_)" d="M593.296,422.5c-3.586,10.833-26.855,72.021-37.253,110.833
		c-15.917,59.417-25.535,193.319-25,198.667c0.25,2.5,9.391,5.059,16.166,5.625c6.523,0.545,14.167,1.208,15.75-0.375
		c2.027-2.027,31.418-92.918,36.084-120.584S615.376,554,632.376,519s32.123-72.524,34.062-114.595
		c-11.034-4.773-21.942-3.483-39.562-3.905c-17.258-0.413-24.707,3.652-28.479,10.167S593.296,422.5,593.296,422.5z"/>
	<path fill="#5C60D5" d="M627.755,527.867c1.973-4.381,4.057-8.724,6.11-13.061c2.045-4.343,4.048-8.707,5.984-13.098
		c3.88-8.779,7.501-17.67,10.739-26.694c0.139-0.391,0.568-0.594,0.958-0.454c0.391,0.139,0.594,0.568,0.454,0.958
		c-0.001,0.002-0.003,0.009-0.004,0.01c-3.366,9.024-7.11,17.897-11.109,26.646c-1.996,4.377-4.057,8.721-6.16,13.046
		c-2.112,4.321-4.241,8.616-6.268,12.973c-0.091,0.194-0.321,0.278-0.516,0.188C627.751,528.292,627.668,528.061,627.755,527.867z"
		/>
	<g>
		<path fill="#6A74EF" d="M556.651,726.732l-1.986-0.234c0.218-1.846,0.44-3.837,0.674-5.962l1.988,0.219
			C557.094,722.886,556.869,724.881,556.651,726.732z M557.759,716.771l-1.988-0.215l0.639-5.972l1.988,0.213L557.759,716.771z
			 M558.824,706.818l-1.988-0.215c0.208-1.931,0.424-3.924,0.648-5.973l1.988,0.219
			C559.248,702.896,559.032,704.888,558.824,706.818z M559.913,696.873l-1.988-0.223c0.218-1.945,0.444-3.937,0.68-5.971l1.986,0.23
			C560.355,692.941,560.131,694.93,559.913,696.873z M561.056,686.938l-1.986-0.236c0.231-1.954,0.473-3.944,0.723-5.966
			l1.984,0.246C561.526,682.999,561.287,684.985,561.056,686.938z M562.274,677.013l-1.984-0.252c0.249-1.96,0.508-3.947,0.775-5.96
			l1.982,0.264C562.78,673.073,562.523,675.057,562.274,677.013z M563.582,667.102l-1.982-0.271c0.27-1.963,0.547-3.947,0.835-5.953
			l1.98,0.285C564.127,663.162,563.85,665.143,563.582,667.102z M564.992,657.207l-1.979-0.293c0.291-1.965,0.592-3.946,0.901-5.942
			l1.977,0.307C565.582,653.271,565.283,655.248,564.992,657.207z M566.516,647.331l-1.975-0.318
			c0.315-1.964,0.641-3.942,0.976-5.931l1.973,0.332C567.154,643.398,566.831,645.371,566.516,647.331z M568.163,637.475
			l-1.971-0.344c0.343-1.964,0.694-3.937,1.057-5.918l1.967,0.359C568.855,633.548,568.504,635.517,568.163,637.475z
			 M569.947,627.645l-1.965-0.371c0.37-1.961,0.752-3.929,1.145-5.903l1.961,0.391C570.697,623.728,570.317,625.689,569.947,627.645
			z M571.88,617.845l-1.959-0.402c0.401-1.953,0.813-3.909,1.237-5.869l1.955,0.424C572.69,613.949,572.279,615.899,571.88,617.845z
			 M573.969,608.104l-1.951-0.438c0.437-1.95,0.884-3.902,1.343-5.853l1.947,0.457C574.851,604.216,574.403,606.16,573.969,608.104z
			 M576.237,598.391l-1.943-0.473c0.475-1.948,0.961-3.894,1.46-5.836l1.938,0.498C577.194,594.515,576.71,596.452,576.237,598.391z
			 M578.701,588.713l-1.934-0.514c0.518-1.942,1.047-3.879,1.588-5.811l1.926,0.539C579.742,584.852,579.215,586.78,578.701,588.713
			z M581.381,579.08l-1.92-0.559c0.563-1.934,1.139-3.86,1.729-5.779l1.912,0.588C582.514,575.239,581.941,577.156,581.381,579.08z
			 M584.294,569.521l-1.906-0.607c0.611-1.917,1.237-3.823,1.878-5.72l1.895,0.641C585.523,565.72,584.901,567.616,584.294,569.521z
			 M587.459,560.063l-1.887-0.662c0.667-1.9,1.349-3.789,2.047-5.663l1.875,0.699C588.8,556.299,588.122,558.175,587.459,560.063z
			 M590.911,550.709l-1.865-0.723c0.729-1.88,1.475-3.744,2.235-5.591l1.85,0.762C592.374,546.992,591.635,548.843,590.911,550.709z
			 M594.671,541.468l-1.846-0.771l2.324-5.543l1.844,0.775L594.671,541.468z M598.544,532.236l-1.844-0.775l2.329-5.538l1.844,0.775
			L598.544,532.236z M602.427,523.008l-1.844-0.775l2.332-5.537l1.844,0.777L602.427,523.008z M606.314,513.783l-1.844-0.777
			l2.329-5.526l1.844,0.775L606.314,513.783z M610.198,504.566l-1.844-0.777l2.334-5.54l1.844,0.775L610.198,504.566z
			 M614.087,495.334l-1.844-0.775l2.329-5.537l1.844,0.775L614.087,495.334z M617.967,486.104l-1.844-0.774l2.324-5.538l1.844,0.773
			L617.967,486.104z M621.84,476.87l-1.846-0.771l2.316-5.542l1.846,0.77L621.84,476.87z M625.697,467.63l-1.846-0.77
			c0.791-1.901,1.561-3.753,2.304-5.547l1.848,0.766C627.26,463.873,626.49,465.727,625.697,467.63z M629.534,458.375l-1.85-0.762
			c0.801-1.94,1.563-3.798,2.282-5.557l1.852,0.758C631.098,454.575,630.335,456.433,629.534,458.375z M633.329,449.099
			l-1.854-0.751c0.824-2.035,1.572-3.9,2.233-5.571l1.859,0.736C634.905,445.188,634.155,447.058,633.329,449.099z M637.027,439.766
			l-1.867-0.714c0.626-1.64,1.094-2.922,1.39-3.811c0.179-0.536,0.367-1.138,0.563-1.796l1.918,0.57
			c-0.203,0.681-0.397,1.304-0.583,1.858C638.139,436.802,637.674,438.076,637.027,439.766z M640.115,430.124l-1.934-0.512
			c0.474-1.792,0.97-3.764,1.466-5.808l1.943,0.472C641.091,426.334,640.593,428.32,640.115,430.124z M642.521,420.37l-1.947-0.456
			c0.463-1.976,0.916-3.956,1.342-5.85l1.951,0.439C643.439,416.402,642.986,418.388,642.521,420.37z M644.74,410.586l-1.953-0.431
			c0.505-2.294,0.943-4.322,1.275-5.872l1.955,0.419C645.686,406.255,645.247,408.288,644.74,410.586z"/>
	</g>
	<linearGradient id="SVGID_28_" gradientUnits="userSpaceOnUse" x1="488.7021" y1="782.6855" x2="560.3506" y2="782.6855">
		<stop  offset="0" style="stop-color:#E9AA4A"/>
		<stop  offset="1" style="stop-color:#EA971D"/>
	</linearGradient>
	<path fill="url(#SVGID_28_)" d="M489.043,781.333c1,1.167,7.142,5.945,30.333,7c18.334,0.834,39.667-3.064,40.5-6
		c0.336-1.186,0.475-2.526,0.475-3.958c-43.522,11-67.599,0.375-70.724-1.451C488.581,778.751,488.476,780.671,489.043,781.333z"/>
	<g>
		<linearGradient id="SVGID_29_" gradientUnits="userSpaceOnUse" x1="531.0215" y1="728.1973" x2="568.0771" y2="728.1973">
			<stop  offset="0" style="stop-color:#92A6EB"/>
			<stop  offset="1" style="stop-color:#6A74EF"/>
		</linearGradient>
		<path fill="url(#SVGID_29_)" d="M531.695,718.155c-0.521,7.895-0.747,12.896-0.652,13.845c0.25,2.5,9.391,5.059,16.166,5.625
			c6.523,0.545,14.167,1.208,15.75-0.375c0.467-0.467,2.386-5.651,5.118-13.682C543.611,724.804,535.21,719.5,531.695,718.155z"/>
		<g>
			<path fill="#5C60D5" d="M560.141,728.765c-1.737,0-3.45-0.038-5.094-0.113l0.068-1.498c1.642,0.075,3.342,0.126,5.089,0.111
				l0.369-0.001l0.012,1.5l-0.381,0.001C560.183,728.765,560.162,728.765,560.141,728.765z M551.359,728.414
				c-1.908-0.159-3.763-0.379-5.514-0.652l0.232-1.482c1.715,0.269,3.534,0.483,5.406,0.641L551.359,728.414z M542.198,727.085
				c-1.91-0.415-3.671-0.896-5.382-1.47l0.477-1.422c1.659,0.556,3.367,1.022,5.224,1.425L542.198,727.085z"/>
		</g>
		<path fill="#5C60D5" d="M533.338,724.291l0.586-1.381c-0.478-0.203-0.908-0.394-1.298-0.565c-0.441-0.195-0.818-0.358-1.166-0.5
			c-0.033,0.546-0.065,1.078-0.095,1.585c0.206,0.089,0.419,0.183,0.654,0.287C532.415,723.892,532.853,724.085,533.338,724.291z"/>
		<path fill="#5C60D5" d="M564.282,728.701c0.665-0.021,1.361-0.053,2.052-0.084c0.172-0.489,0.35-0.998,0.531-1.522
			c-0.895,0.043-1.775,0.081-2.628,0.106L564.282,728.701z"/>
	</g>
</g>
<g id="right_hand_x5F_2">
	<radialGradient id="SVGID_30_" cx="727.9941" cy="160.1289" r="110.8817" gradientUnits="userSpaceOnUse">
		<stop  offset="0" style="stop-color:#E08D7D"/>
		<stop  offset="0.0349" style="stop-color:#E49587"/>
		<stop  offset="0.1371" style="stop-color:#EFAA9E"/>
		<stop  offset="0.2469" style="stop-color:#F6B8AE"/>
		<stop  offset="0.3689" style="stop-color:#FBC0B8"/>
		<stop  offset="0.5273" style="stop-color:#FCC3BB"/>
		<stop  offset="1" style="stop-color:#EAAEA4"/>
	</radialGradient>
	<path fill="url(#SVGID_30_)" d="M733.509,219.429c2.159-21.076,2.743-46.833-4.967-60.429
		c-7.391-13.033-30.844-23.949-54.541-27.375s-70.375,1.75-74.625,0.75s-16.375-13.125-18.5-13.5s-3.625,1.458-3,7.375
		c0.754,7.139,7.522,21.408,7.522,21.408s-10.724,7.336-15.394,10.531c-5.871-0.186-12.791-8.379-16.254-6.814
		c-3.042,1.375,4.739,13.416,10.959,14.458c13.916,2.333,37.642-11.982,66.776-13.661s58.796,1.361,68.557,29.327
		c2.96,8.48,2.788,17.27,1.281,25.171C709.265,205.479,722.19,206.625,733.509,219.429z"/>
	<linearGradient id="SVGID_31_" gradientUnits="userSpaceOnUse" x1="690.543" y1="260.0293" x2="733.5088" y2="260.0293">
		<stop  offset="0" style="stop-color:#E9AA4A"/>
		<stop  offset="1" style="stop-color:#EA971D"/>
	</linearGradient>
	<path fill="url(#SVGID_31_)" d="M705.751,258.875c5.639,14.844,13.459,34.583,14.5,54.875c3.058-13.479,6.25-48.5,9.125-65.083
		c0.978-5.639,2.839-16.596,4.133-29.237c-11.318-12.805-24.244-13.951-32.185-12.758c-2.905,15.236-10.781,27.163-10.781,27.163
		S699.626,242.75,705.751,258.875z"/>
	<g>
		<path fill="#F2D265" d="M732.288,230.822c-0.349,0-0.687-0.182-0.871-0.506c-8.393-14.785-26.985-16.914-31.496-16.193
			c-0.553,0.086-1.059-0.286-1.145-0.831c-0.087-0.545,0.285-1.058,0.83-1.145c4.813-0.763,24.637,1.479,33.551,17.181
			c0.272,0.48,0.104,1.091-0.376,1.363C732.625,230.78,732.455,230.822,732.288,230.822z"/>
	</g>
</g>
<g id="head">
	<linearGradient id="SVGID_32_" gradientUnits="userSpaceOnUse" x1="665.793" y1="252.7231" x2="665.793" y2="193.0435">
		<stop  offset="0" style="stop-color:#EAAEA4"/>
		<stop  offset="0.3126" style="stop-color:#E8A89D"/>
		<stop  offset="0.7825" style="stop-color:#E39688"/>
		<stop  offset="1" style="stop-color:#E08C7C"/>
	</linearGradient>
	<path fill="url(#SVGID_32_)" d="M650.709,212.833c-0.173,7.001-4.666,27.5-7.833,35.667s16.999,2.5,27.666-0.5
		s18.5-12.333,18.5-12.333s-7-13.833-8.333-29s-12-14.667-17.833-12.5S650.709,212.833,650.709,212.833z"/>
	<linearGradient id="SVGID_33_" gradientUnits="userSpaceOnUse" x1="609.6201" y1="181.8467" x2="624.2207" y2="181.8467">
		<stop  offset="0" style="stop-color:#E25AB8"/>
		<stop  offset="1" style="stop-color:#EAAEA4"/>
	</linearGradient>
	<path fill="url(#SVGID_33_)" d="M623.924,167.221c-7.131,19.196-14.548,19.904-14.298,23.029s6.5,6.875,11.25,6.125
		S623.924,167.221,623.924,167.221z"/>
	<linearGradient id="SVGID_34_" gradientUnits="userSpaceOnUse" x1="618.3896" y1="182.4854" x2="682.0566" y2="182.4854">
		<stop  offset="0" style="stop-color:#EAAEA4"/>
		<stop  offset="0.3126" style="stop-color:#E8A89D"/>
		<stop  offset="0.7825" style="stop-color:#E39688"/>
		<stop  offset="1" style="stop-color:#E08C7C"/>
	</linearGradient>
	<path fill="url(#SVGID_34_)" d="M631.709,153.5c-9.833,9.333-23.649,56.634-1.249,67.834C650.293,231.25,671.209,200,671.209,200
		s25.167-36.5-1.167-53C646.146,132.027,631.709,153.5,631.709,153.5z"/>
	<path fill="#BE4118" d="M620.093,206.824c0.321,0.332,1.057,0.501,1.674,0.565c0.646,0.051,1.299,0.009,1.896-0.177
		c1.213-0.355,2.088-1.265,2.619-2.394l0.002-0.004c0.224-0.475,0.789-0.679,1.265-0.456c0.475,0.224,0.679,0.79,0.455,1.264
		c-0.009,0.02-0.02,0.041-0.03,0.06c-0.407,0.729-0.936,1.431-1.633,1.952c-0.688,0.527-1.498,0.887-2.325,1.042
		c-0.828,0.155-1.669,0.147-2.465-0.053c-0.399-0.097-0.788-0.232-1.158-0.437c-0.357-0.202-0.755-0.458-0.99-0.925
		c-0.103-0.202-0.021-0.448,0.181-0.55c0.164-0.083,0.357-0.045,0.479,0.08L620.093,206.824z"/>
	<g>
		<path fill="#5C60D5" d="M628.62,180.46c-1.098,0-1.991-0.885-2-1.984l-0.001-0.118c-0.014-1.38-0.046-4.611,2.772-8.453
			c0.652-0.892,1.903-1.084,2.795-0.43c0.891,0.653,1.083,1.905,0.43,2.795c-2.03,2.769-2.009,4.902-1.997,6.048l0.001,0.126
			c0.009,1.104-0.88,2.007-1.984,2.016C628.631,180.46,628.625,180.46,628.62,180.46z"/>
	</g>
	<linearGradient id="SVGID_35_" gradientUnits="userSpaceOnUse" x1="597.1992" y1="169.3818" x2="697.3037" y2="169.3818">
		<stop  offset="0" style="stop-color:#BE4118"/>
		<stop  offset="0.1647" style="stop-color:#A2391E"/>
		<stop  offset="0.3882" style="stop-color:#833024"/>
		<stop  offset="0.606" style="stop-color:#6D2A28"/>
		<stop  offset="0.8137" style="stop-color:#60262B"/>
		<stop  offset="1" style="stop-color:#5B252C"/>
	</linearGradient>
	<path fill="url(#SVGID_35_)" d="M682.751,197c1.125-10,22.405-18.825,11.405-46.45c-6.278-15.768-20.03-22.175-32.14-21.988
		c-9.157,0.141-14.391,3.188-20.016,1.563s-15.125-5.75-20.125-2.25s-2.375,9.125-5.125,11.75s-16.75-0.875-19.375,7.5
		c-0.946,3.02,1.375,13.5,20.25,13.375s29.5-12,36.125-3.75s-8.125,16.625-6.375,25.25c0.345,1.697,1.439,2.249,2.876,2.235
		c2.707-0.402,9.914-9.714,15.582-4.777c3.875,3.375,2.917,12.917-4.333,15.292c0.335,4.454,3.25,9,6.25,12.313
		c2.495,2.755,10.165,7.912,14.875,3.438C684.293,208.917,682.231,201.616,682.751,197z"/>
	<path fill="#6A74EF" d="M628.647,171.018c-1.672,2.714-1.976,5.034-2.021,6.479C629.751,176.164,629.393,172.867,628.647,171.018z"
		/>
	<g>
		<path fill="#7B2E26" d="M636.752,171.825c-0.026,0-0.053-0.001-0.08-0.003c-0.522-0.043-0.911-0.502-0.867-1.025
			c0.146-1.754-0.324-3.071-1.396-3.915c-1.419-1.116-3.534-1.132-3.982-0.98c-0.499,0.165-1.035-0.103-1.2-0.601
			c-0.166-0.498,0.103-1.035,0.601-1.201c0.977-0.326,3.756-0.283,5.755,1.289c1.104,0.868,2.368,2.538,2.116,5.566
			C637.656,171.45,637.241,171.825,636.752,171.825z"/>
	</g>
	<path fill="#8F3421" d="M678.877,139.333c1.174-0.144,2.317,0.242,3.348,0.742c1.03,0.525,1.967,1.26,2.727,2.166
		c0.759,0.905,1.325,1.994,1.6,3.146c0.263,1.155,0.243,2.364-0.174,3.446c-0.424-1.078-0.81-2.027-1.3-2.898
		c-0.484-0.869-1.037-1.661-1.662-2.414c-0.627-0.75-1.32-1.46-2.073-2.151C680.584,140.678,679.806,139.991,678.877,139.333z"/>
	<path fill="#8F3421" d="M688.877,153c0.649-0.001,1.234,0.347,1.762,0.679c0.516,0.363,0.995,0.781,1.411,1.256
		c0.832,0.947,1.468,2.079,1.841,3.313c0.371,1.23,0.459,2.576,0.181,3.843c-0.28,1.263-0.913,2.433-1.861,3.243
		c0.216-1.225,0.349-2.327,0.296-3.401c-0.039-1.069-0.231-2.097-0.531-3.112c-0.305-1.013-0.715-2.012-1.214-2.995
		c-0.253-0.489-0.511-0.988-0.817-1.461C689.642,153.882,689.339,153.403,688.877,153z"/>
	<path fill="#BE4118" d="M607.377,145c0.338,0.913,1.125,1.535,1.906,2.043c0.794,0.513,1.658,0.911,2.545,1.239
		c1.777,0.653,3.646,1.031,5.522,1.234c3.76,0.431,7.552,0.147,11.248-0.626c3.723-0.777,7.438-1.729,11.207-2.571
		c3.773-0.804,7.62-1.536,11.624-1.484c1.991,0.057,4.049,0.342,5.984,1.186c0.961,0.424,1.883,0.991,2.675,1.713
		c0.762,0.692,1.471,1.481,2.028,2.379c1.153,1.785,1.628,4.008,1.423,6.069c-0.18,2.077-0.895,3.995-1.764,5.765
		c-1.757,3.551-4.155,6.61-6.475,9.663c-1.174,1.517-2.354,3.025-3.386,4.624c-0.511,0.8-0.985,1.626-1.327,2.506
		c-0.342,0.864-0.568,1.849-0.212,2.762c-0.455-0.872-0.336-1.932-0.075-2.858c0.278-0.94,0.703-1.822,1.157-2.678
		c0.923-1.708,1.992-3.319,3.046-4.926c2.133-3.187,4.323-6.347,5.858-9.752c0.745-1.701,1.313-3.473,1.429-5.236
		c0.122-1.762-0.301-3.482-1.268-4.913c-0.479-0.719-1.06-1.376-1.725-1.967c-0.632-0.567-1.37-1.014-2.166-1.359
		c-1.6-0.687-3.42-0.94-5.254-0.979c-3.691-0.09-7.455,0.601-11.188,1.334c-3.747,0.726-7.484,1.643-11.315,2.253
		c-3.84,0.665-7.824,0.745-11.669,0.061c-1.918-0.359-3.808-0.898-5.582-1.711c-0.884-0.409-1.743-0.884-2.517-1.481
		C608.36,146.685,607.617,145.95,607.377,145z"/>
	<path fill="#BE4118" d="M619.376,144c1.846,0.157,3.653-0.044,5.421-0.43c1.77-0.369,3.502-0.91,5.225-1.483
		c3.438-1.182,6.839-2.536,10.298-3.815c3.472-1.235,7.003-2.454,10.728-3.058c1.854-0.302,3.767-0.441,5.662-0.217
		c1.883,0.231,3.772,0.885,5.167,2.128c-1.645-0.866-3.443-1.188-5.223-1.148c-1.782,0.014-3.552,0.35-5.298,0.767
		c-3.489,0.879-6.911,2.144-10.352,3.407c-3.453,1.233-6.924,2.524-10.544,3.429c-1.807,0.458-3.654,0.807-5.526,0.958
		C623.067,144.666,621.14,144.594,619.376,144z"/>
	<path fill="#8F3421" d="M669.501,194.875c0.58,1.554,1.406,2.898,2.269,4.193c0.881,1.28,1.868,2.456,2.978,3.446
		c1.113,0.982,2.35,1.783,3.758,2.224c1.406,0.447,2.965,0.526,4.634,0.375c-1.384,0.939-3.175,1.384-4.954,1.153
		c-1.784-0.216-3.464-1.083-4.767-2.258c-1.318-1.173-2.31-2.631-3.008-4.185C669.735,198.276,669.258,196.562,669.501,194.875z"/>
</g>
<g id="wrench">
	<path fill="#724A5F" d="M473.675,235.433c0,0,9.543,1.982,21.491-3.471c9.714-4.433,10.993-6.546,10.993-6.546l-15.787-13.932
		L473.675,235.433z"/>
	<linearGradient id="SVGID_36_" gradientUnits="userSpaceOnUse" x1="447.2881" y1="168.2197" x2="608.751" y2="168.2197">
		<stop  offset="0" style="stop-color:#5B252C"/>
		<stop  offset="1" style="stop-color:#250F50"/>
	</linearGradient>
	<path fill="url(#SVGID_36_)" d="M605.427,114.44c-5.723-7.998-16.839-9.845-24.834-4.126c-2.882,2.061-4.95,4.828-6.169,7.892
		l-66.879,50.149l-0.011-0.015c0,0-9.377,7.232-18.832,9.723c-10.366,2.731-21.14-3.72-33.796,6.736
		c-14.232,11.758-4.159,34.67-4.159,34.67s10.465-15.984,13.596-17.145c2.855-1.056,6.568,1.426,6.568,1.426l35.225,25.697
		c0,0,2.663-11.946,7.027-22.604c4.096-9.996,7.669-14.607,9.866-16.519l69.94-47.849c2.911-0.331,5.781-1.377,8.333-3.203
		C609.303,133.555,611.146,122.437,605.427,114.44z M595.819,131.609c-3.764,2.692-8.997,1.823-11.69-1.94
		c-2.688-3.763-1.819-8.998,1.944-11.689c3.761-2.692,8.994-1.822,11.688,1.941C600.452,123.685,599.584,128.917,595.819,131.609z"
		/>
	<path fill="#724A5F" d="M488.656,184.483c1.286-2.043,3.988-2.657,6.031-1.369l13.816,8.698c2.042,1.285,2.658,3.984,1.368,6.029
		l-6.679,10.608c-1.286,2.046-3.984,2.659-6.029,1.371l-13.816-8.698c-2.045-1.287-2.658-3.986-1.371-6.029L488.656,184.483z"/>
	<g>
		<path fill="#5C60D5" d="M504.214,196.128c0.644-1.021,1.993-1.329,3.014-0.683l0,0c1.023,0.642,1.33,1.992,0.687,3.013
			l-5.009,7.958c-0.643,1.021-1.996,1.328-3.018,0.685l0,0c-1.019-0.643-1.327-1.993-0.684-3.015L504.214,196.128z"/>
		<path fill="#5C60D5" d="M499.126,192.924c0.642-1.02,1.993-1.328,3.015-0.685l0,0c1.022,0.643,1.329,1.994,0.685,3.017
			l-5.01,7.956c-0.644,1.023-1.991,1.328-3.016,0.685l0,0c-1.021-0.644-1.329-1.993-0.688-3.015L499.126,192.924z"/>
		<path fill="#5C60D5" d="M494.035,189.721c0.646-1.023,1.993-1.328,3.016-0.686l0,0c1.021,0.643,1.329,1.993,0.686,3.014
			l-5.01,7.959c-0.642,1.022-1.991,1.328-3.015,0.684l0,0c-1.023-0.643-1.329-1.992-0.688-3.014L494.035,189.721z"/>
		<path fill="#5C60D5" d="M488.949,186.518c0.641-1.023,1.992-1.33,3.014-0.688l0,0c1.022,0.644,1.328,1.996,0.687,3.018
			l-5.012,7.957c-0.645,1.021-1.993,1.328-3.014,0.685l0,0c-1.021-0.645-1.329-1.993-0.687-3.016L488.949,186.518z"/>
	</g>
	<g>
		<path fill="#5C60D5" d="M518.188,184.999c-1.591,0-3.091-0.772-4.013-2.066l-3.132-4.392c-0.764-1.07-1.064-2.374-0.848-3.671
			s0.926-2.432,1.996-3.196l52.308-37.309c0.84-0.599,1.827-0.916,2.855-0.916c1.591,0,3.09,0.772,4.013,2.065l3.134,4.392
			c0.764,1.071,1.064,2.375,0.848,3.672c-0.217,1.297-0.927,2.433-1.998,3.196l-52.308,37.309
			C520.204,184.683,519.217,184.999,518.188,184.999z M567.355,135.45c-0.609,0-1.195,0.188-1.693,0.543l-52.308,37.309
			c-0.636,0.454-1.057,1.128-1.186,1.898c-0.129,0.77,0.05,1.544,0.503,2.18l3.133,4.393c0.899,1.263,2.807,1.589,4.077,0.683
			l52.309-37.309c0.637-0.454,1.058-1.127,1.187-1.898c0.129-0.77-0.05-1.544-0.504-2.181l-3.134-4.392
			C569.192,135.908,568.301,135.45,567.355,135.45z"/>
	</g>
</g>
<g id="right_hand_x5F_1">
	<g>
		<linearGradient id="SVGID_37_" gradientUnits="userSpaceOnUse" x1="548.1113" y1="141.0483" x2="558.6885" y2="141.0483">
			<stop  offset="0" style="stop-color:#EAAEA4"/>
			<stop  offset="0.3126" style="stop-color:#E8A89D"/>
			<stop  offset="0.7825" style="stop-color:#E39688"/>
			<stop  offset="1" style="stop-color:#E08C7C"/>
		</linearGradient>
		<path fill="url(#SVGID_37_)" d="M555.247,129.563c-1.666,0.53-5.918,1.576-6.916,6.349c-0.73,3.493,0.48,8.792,1.844,11.593
			c1.362,2.801,5.428,6.244,8.002,4.603c1.736-1.107-1.46-6.467-1.945-8.842C554.792,136.226,555.247,129.563,555.247,129.563z"/>
		<linearGradient id="SVGID_38_" gradientUnits="userSpaceOnUse" x1="553.1699" y1="137.8701" x2="564.7549" y2="137.8701">
			<stop  offset="0" style="stop-color:#EAAEA4"/>
			<stop  offset="0.3126" style="stop-color:#E8A89D"/>
			<stop  offset="0.7825" style="stop-color:#E39688"/>
			<stop  offset="1" style="stop-color:#E08C7C"/>
		</linearGradient>
		<path fill="url(#SVGID_38_)" d="M560.471,125.626c-0.684-0.193-5.813,0.465-6.89,4.467c-0.634,2.358-0.759,8.863,1.288,12.946
			c2.046,4.083,6.954,7.888,8.479,6.965c2.498-1.514,0.908-4.391,0.908-4.391s-3.785-7.798-3.634-11.356
			S560.471,125.626,560.471,125.626z"/>
		<linearGradient id="SVGID_39_" gradientUnits="userSpaceOnUse" x1="558.5078" y1="135.5391" x2="567.2646" y2="135.5391">
			<stop  offset="0" style="stop-color:#EAAEA4"/>
			<stop  offset="0.3126" style="stop-color:#E8A89D"/>
			<stop  offset="0.7825" style="stop-color:#E39688"/>
			<stop  offset="1" style="stop-color:#E08C7C"/>
		</linearGradient>
		<path fill="url(#SVGID_39_)" d="M566.042,122.632c-1.559-0.261-6.748-0.606-7.464,7.158s4.163,19.684,7.268,18.699
			s0.148-9.028,0.15-13.561C565.997,130.396,566.042,122.632,566.042,122.632z"/>
		<linearGradient id="SVGID_40_" gradientUnits="userSpaceOnUse" x1="564.6016" y1="127.4893" x2="574.7031" y2="127.4893">
			<stop  offset="0" style="stop-color:#EAAEA4"/>
			<stop  offset="0.3126" style="stop-color:#E8A89D"/>
			<stop  offset="0.7825" style="stop-color:#E39688"/>
			<stop  offset="1" style="stop-color:#E08C7C"/>
		</linearGradient>
		<path fill="url(#SVGID_40_)" d="M572.451,122.827c-1.836,3.33-0.852,14.156-3.652,14.762c-3.645,0.788-5.702-12.869-2.878-17.64
			c2.196-3.709,8.782-2.346,8.782-2.346L572.451,122.827z"/>
		<path fill="#9B6D6D" d="M554.309,130.274c-0.385,1.436-0.48,3.048-0.49,4.614c0.001,1.577,0.13,3.159,0.433,4.701
			c0.296,1.56,0.814,2.994,1.6,4.398c0.751,1.392,1.626,2.736,2.755,3.817l0.004,0.003c0.124,0.119,0.128,0.315,0.01,0.439
			c-0.116,0.121-0.306,0.127-0.43,0.019c-1.26-1.102-2.227-2.461-3.07-3.865c-0.858-1.376-1.532-2.98-1.902-4.582
			c-0.394-1.61-0.601-3.252-0.678-4.901c-0.06-1.653-0.055-3.298,0.314-5.006c0.087-0.405,0.486-0.663,0.892-0.575
			s0.662,0.487,0.575,0.892c-0.003,0.011-0.005,0.022-0.008,0.034L554.309,130.274z"/>
		<path fill="#9B6D6D" d="M560.601,125.53c-1.051,1.614-1.392,3.699-1.465,5.737c-0.055,2.059,0.185,4.147,0.591,6.197
			c0.413,2.05,0.993,4.077,1.782,6.015c0.397,0.967,0.846,1.915,1.391,2.794c0.543,0.852,1.195,1.755,2.059,2.096l0.027,0.011
			c0.138,0.054,0.206,0.21,0.151,0.348c-0.054,0.136-0.206,0.203-0.343,0.153c-1.158-0.428-1.821-1.377-2.446-2.25
			c-0.608-0.904-1.106-1.864-1.553-2.844c-0.887-1.963-1.559-4.012-2.063-6.105c-0.497-2.094-0.829-4.239-0.854-6.428
			c0.003-2.168,0.247-4.468,1.44-6.503l0.007-0.011c0.21-0.357,0.669-0.477,1.026-0.268s0.478,0.669,0.268,1.027
			C560.613,125.51,560.606,125.521,560.601,125.53z"/>
		<path fill="#9B6D6D" d="M565.584,135.731c-1.008-2.169-1.427-4.544-1.618-6.896c-0.161-2.362-0.098-4.748,0.448-7.129
			c0.093-0.404,0.495-0.657,0.899-0.564s0.656,0.495,0.564,0.899c-0.004,0.014-0.007,0.027-0.011,0.04l-0.004,0.014
			c-0.618,2.118-0.826,4.421-0.797,6.688c0.054,2.269,0.328,4.566,1.164,6.672c0.072,0.18-0.016,0.385-0.196,0.457
			C565.86,135.982,565.662,135.899,565.584,135.731z"/>
	</g>
	<linearGradient id="SVGID_41_" gradientUnits="userSpaceOnUse" x1="553.0703" y1="158.6328" x2="581.5703" y2="158.6328">
		<stop  offset="0" style="stop-color:#FCC3BB"/>
		<stop  offset="1" style="stop-color:#EAAEA4"/>
	</linearGradient>
	<path fill="url(#SVGID_41_)" d="M576.613,153.668c-2.466,1.687-4.929,3.372-6.608,4.521c-5.871-0.186-12.791-8.379-16.254-6.814
		c-3.042,1.375,4.739,13.416,10.959,14.458c4.599,0.771,10.274-0.281,16.857-2.089C581.676,157.62,578.519,154.804,576.613,153.668z
		"/>
</g>
<g id="left_hand">
	<g>
		<radialGradient id="SVGID_42_" cx="505.6621" cy="314.2646" r="131.2253" gradientUnits="userSpaceOnUse">
			<stop  offset="0" style="stop-color:#E08D7D"/>
			<stop  offset="0.0349" style="stop-color:#E49587"/>
			<stop  offset="0.1371" style="stop-color:#EFAA9E"/>
			<stop  offset="0.2469" style="stop-color:#F6B8AE"/>
			<stop  offset="0.3689" style="stop-color:#FBC0B8"/>
			<stop  offset="0.5273" style="stop-color:#FCC3BB"/>
			<stop  offset="1" style="stop-color:#EAAEA4"/>
		</radialGradient>
		<path fill="url(#SVGID_42_)" d="M564.565,268.964c-17.726,8.167-33.454,15.479-34.689,14.203
			c-0.997-1.03,2.167-8.167,6.667-29.333s9.083-58.833,7.333-66.333c-1.271-5.444-3.859-8.795-3.859-8.795l-7.614,5.209
			c0,0-3.651-3.039-6.901-10.789s-2.125-14.5-1.412-17.175l2.427-1.82c0,0-3.448-1.064-5.265-0.505
			c-1.625,0.5-2.458,2.542-2.458,2.542s-1.542-0.542-3.354,1.083c-1.724,1.545-1.813,3.875-1.813,3.875s-3.166,0.042-4.5,4.875
			s1.25,20.333,0.583,21s-3.083-5.333-3.75-8.167s-0.673-8.887-3.072-7.317s-4.845,9.817,0.26,22.389s20.896,14.261,21.896,16.928
			s-16,44.833-20.166,55s-10.833,42.167-1,49.667c10.3,7.855,42.171,1.163,67.782-5.001
			C577.195,286.875,569.295,274.31,564.565,268.964z"/>
		<path fill="#9B6D6D" d="M519.128,156.246c-0.361,1.81-0.496,3.701-0.546,5.567c-0.041,1.872,0.037,3.745,0.233,5.603
			c0.39,3.715,1.258,7.374,2.637,10.818c0.154,0.384-0.033,0.821-0.418,0.975c-0.384,0.154-0.82-0.033-0.975-0.417
			c-0.003-0.007-0.007-0.018-0.01-0.025c-1.306-3.632-2.062-7.436-2.325-11.255c-0.133-1.911-0.145-3.826-0.034-5.734
			c0.121-1.91,0.32-3.803,0.768-5.69c0.043-0.186,0.229-0.3,0.414-0.256c0.182,0.043,0.295,0.221,0.259,0.402L519.128,156.246z"/>
		<path fill="#9B6D6D" d="M513.968,161.172c-0.184,1.779-0.242,3.602-0.263,5.406c-0.015,1.808,0.032,3.615,0.158,5.414
			c0.269,3.579,0.773,7.202,2.108,10.435l0.003,0.008c0.158,0.383-0.024,0.821-0.407,0.979s-0.821-0.024-0.979-0.407
			c-0.003-0.006-0.006-0.016-0.009-0.021c-0.67-1.777-1.066-3.606-1.339-5.436c-0.271-1.831-0.409-3.668-0.471-5.502
			c-0.06-1.834-0.039-3.667,0.043-5.494c0.09-1.831,0.215-3.645,0.472-5.476c0.026-0.188,0.201-0.32,0.39-0.293
			c0.184,0.026,0.313,0.193,0.295,0.376L513.968,161.172z"/>
	</g>
	<linearGradient id="SVGID_43_" gradientUnits="userSpaceOnUse" x1="577.9824" y1="255.5479" x2="636.0943" y2="313.6597">
		<stop  offset="0" style="stop-color:#E9AA4A"/>
		<stop  offset="1" style="stop-color:#EA971D"/>
	</linearGradient>
	<path fill="url(#SVGID_43_)" d="M606.876,303.667c3.334,4.333,1.666,22,1.666,22s13,3.5,23.667-8.167s-1.5-70.5-1.5-70.5
		s-1.167-1.167-18.833,2.5c-8.936,1.854-29.169,11.106-47.311,19.464c4.729,5.345,12.63,17.91,7.093,41.535
		C590.209,306.034,605.476,301.846,606.876,303.667z"/>
	<g>
		<path fill="#F2D265" d="M581.405,309.122c-0.104,0-0.209-0.017-0.313-0.051c-0.524-0.172-0.81-0.738-0.638-1.262
			c7.428-22.57-3.773-39.362-7.604-42.102c-0.449-0.321-0.553-0.946-0.231-1.395c0.322-0.449,0.945-0.553,1.396-0.232
			c4.094,2.929,16.117,20.722,8.341,44.354C582.217,308.854,581.825,309.122,581.405,309.122z"/>
	</g>
</g>
<g id="body">
	<linearGradient id="SVGID_44_" gradientUnits="userSpaceOnUse" x1="598.2285" y1="273.4316" x2="713.2121" y2="388.4152">
		<stop  offset="0" style="stop-color:#5C60D5"/>
		<stop  offset="0.5879" style="stop-color:#2421A2"/>
		<stop  offset="1" style="stop-color:#250F52"/>
	</linearGradient>
	<path fill="url(#SVGID_44_)" d="M624.409,247.25c0.84-0.102,5.352-0.924,11.155-2.022c8.558-1.619,21.424-2.004,27.979-3.395
		c8.04-1.706,17.092-6.566,23.19-8.174c2.245-0.592,3.887-0.992,4.577-1.063c7.899,1.57,21.584,14.775,26.417,33.442
		c5.067,19.571,8.398,40.211-7.352,92.211c-11.696,38.618-11.25,44.25-11.25,44.25s-33.286,17.289-60.25,14.75s-42-7-42-7
		s8.75-42.25,10.25-61.5s1.756-28.589,1.756-28.589s8.187,0.851,13.661-3.994c7.958-7.042,9.583-29.792,6.083-54.583
		C626.857,249.058,624.409,247.25,624.409,247.25z"/>
	<linearGradient id="SVGID_45_" gradientUnits="userSpaceOnUse" x1="640.4824" y1="240.311" x2="701.3827" y2="301.2113">
		<stop  offset="0" style="stop-color:#E9AA4A"/>
		<stop  offset="1" style="stop-color:#EA971D"/>
	</linearGradient>
	<path fill="url(#SVGID_45_)" d="M652.876,305.5c3,5,18.071,6.623,30.75,4c12.083-2.5,18.75-6.75,21-14.25
		s0.417-45.417-17.893-61.59c-6.098,1.608-16.647,4.634-24.69,6.34c-6.555,1.391-17.921,3.608-26.479,5.228
		c3.554,5.258,9.19,15.101,12.562,29.272C651.75,289.737,650.842,302.11,652.876,305.5z"/>
	<g>
		<path fill="#6A74EF" d="M616.692,325.094l-0.434-1.952c2.004-0.446,3.862-1.041,5.521-1.769l0.805,1.831
			C620.806,323.984,618.823,324.621,616.692,325.094z"/>
		<path fill="#6A74EF" d="M626.248,321.203l-1.121-1.656c1.29-0.874,2.494-2.276,3.579-4.167l1.734,0.994
			C629.204,318.532,627.793,320.157,626.248,321.203z"/>
		<path fill="#6A74EF" d="M632.211,312.627l-1.861-0.729c0.649-1.659,1.233-3.543,1.734-5.6l1.943,0.474
			C633.505,308.915,632.894,310.885,632.211,312.627z"/>
		<path fill="#6A74EF" d="M634.859,302.794l-1.969-0.35c0.328-1.849,0.603-3.824,0.814-5.871l1.99,0.206
			C635.478,298.875,635.196,300.899,634.859,302.794z"/>
		<path fill="#6A74EF" d="M636.026,292.751l-1.996-0.124c0.12-1.924,0.189-3.923,0.208-5.944l2,0.019
			C636.22,288.757,636.148,290.793,636.026,292.751z"/>
		<path fill="#6A74EF" d="M634.209,282.716c-0.046-1.963-0.139-3.964-0.277-5.948l1.995-0.14c0.141,2.014,0.235,4.047,0.282,6.041
			L634.209,282.716z"/>
		<path fill="#6A74EF" d="M633.596,272.815c-0.197-1.975-0.44-3.963-0.723-5.912l1.979-0.287c0.287,1.977,0.534,3.996,0.734,6
			L633.596,272.815z"/>
		<path fill="#6A74EF" d="M632.244,262.984c-0.345-1.962-0.737-3.927-1.166-5.838l1.951-0.438c0.436,1.942,0.835,3.937,1.186,5.93
			L632.244,262.984z"/>
		<path fill="#6A74EF" d="M630.146,253.289c-0.505-1.945-1.315-4.85-1.9-6.698l1.952-0.357c0.596,1.881,1.37,4.574,1.884,6.553
			L630.146,253.289z"/>
		<g>
			<path fill="#6A74EF" d="M670.207,317.742c-1.448,0-2.886-0.042-4.273-0.125l0.119-1.996c1.912,0.114,3.912,0.146,5.938,0.1
				l0.047,1.999C671.424,317.735,670.813,317.742,670.207,317.742z M676.101,317.519l-0.15-1.994
				c1.995-0.151,3.981-0.379,5.904-0.68l0.309,1.976C680.188,317.129,678.148,317.364,676.101,317.519z M661.868,317.246
				c-2.21-0.278-4.246-0.67-6.052-1.165l0.529-1.929c1.714,0.469,3.656,0.843,5.772,1.109L661.868,317.246z M686.164,316.079
				l-0.416-1.956c2.071-0.44,4.01-0.928,5.761-1.45l0.572,1.917C690.278,315.127,688.287,315.628,686.164,316.079z M651.88,314.67
				c-2.063-0.967-3.525-2.133-4.348-3.466c-0.184-0.297-0.348-0.633-0.5-1.026l1.865-0.723c0.105,0.273,0.219,0.508,0.336,0.698
				c0.615,0.997,1.791,1.907,3.496,2.706L651.88,314.67z M695.956,313.277l-0.719-1.867c1.965-0.755,3.737-1.604,5.269-2.522
				l1.029,1.715C699.904,311.581,698.027,312.48,695.956,313.277z M704.932,308.175l-1.301-1.519
				c1.513-1.297,2.715-2.708,3.676-4.316l1.717,1.025C707.965,305.137,706.589,306.755,704.932,308.175z M646.096,306.046
				c-0.245-1.733-0.436-3.761-0.642-6.041l1.992-0.18c0.203,2.252,0.392,4.254,0.63,5.941L646.096,306.046z M710.772,299.521
				l-1.9-0.626l0.118-0.368c0.363-1.177,0.655-3.067,0.822-5.321l1.994,0.147c-0.181,2.435-0.493,4.427-0.906,5.764L710.772,299.521
				z M645.089,296.01c-0.215-2.247-0.419-4.142-0.644-5.962l1.984-0.245c0.228,1.839,0.434,3.751,0.649,6.018L645.089,296.01z
				 M711.972,289.278l-2-0.021l0.005-0.85c0-1.649-0.053-3.366-0.155-5.104l1.996-0.118c0.105,1.777,0.159,3.534,0.159,5.223
				L711.972,289.278z M643.907,286.092c-0.299-2.007-0.641-3.989-1.015-5.891l1.963-0.386c0.38,1.932,0.727,3.945,1.03,5.982
				L643.907,286.092z M709.504,279.339c-0.198-1.968-0.459-3.958-0.775-5.915l1.975-0.319c0.323,1.997,0.589,4.026,0.791,6.034
				L709.504,279.339z M642.058,276.307c-0.096-0.414-0.195-0.83-0.298-1.248c-0.369-1.514-0.775-3.037-1.208-4.526l1.92-0.558
				c0.441,1.517,0.855,3.067,1.231,4.608c0.104,0.426,0.206,0.851,0.304,1.272L642.058,276.307z M708.015,269.512
				c-0.399-1.962-0.861-3.914-1.373-5.8l1.93-0.523c0.523,1.927,0.995,3.921,1.402,5.925L708.015,269.512z M639.372,266.732
				c-0.623-1.886-1.306-3.773-2.03-5.61l1.861-0.733c0.737,1.872,1.434,3.795,2.067,5.717L639.372,266.732z M705.517,259.903
				c-0.61-1.906-1.29-3.788-2.019-5.592l1.854-0.749c0.748,1.85,1.444,3.778,2.069,5.731L705.517,259.903z M635.813,257.45
				c-0.8-1.823-1.66-3.635-2.557-5.387l1.779-0.911c0.915,1.786,1.793,3.635,2.609,5.494L635.813,257.45z M701.916,250.679
				c-0.852-1.816-1.775-3.585-2.748-5.256l1.729-1.006c1.002,1.722,1.954,3.544,2.83,5.414L701.916,250.679z M697.072,242.076
				c-1.114-1.655-2.31-3.244-3.554-4.723l1.531-1.287c1.289,1.533,2.527,3.179,3.681,4.893L697.072,242.076z"/>
		</g>
		<path fill="#6A74EF" d="M612.413,323.792c-1.234,0.147-2.467,0.22-3.688,0.255c-0.027,0.597-0.061,1.267-0.098,2.003
			c1.33-0.033,2.675-0.112,4.021-0.272L612.413,323.792z"/>
		<path fill="#6A74EF" d="M633.115,247.583c-0.335-0.593-0.664-1.157-0.991-1.708c-0.738,0.138-1.438,0.268-2.096,0.389
			c0.273,0.782,0.296,1.926,0.754,2.736L633.115,247.583z"/>
		<path fill="#6A74EF" d="M692.259,232.998c-0.079-0.08-0.164-0.153-0.243-0.233c-0.239-0.065-0.476-0.123-0.705-0.168
			c-0.38,0.039-1.055,0.18-1.951,0.395c0.497,0.464,0.998,0.926,1.476,1.411L692.259,232.998z"/>
	</g>
</g>
<g id="tool_belt_x5F_2">
	<linearGradient id="SVGID_46_" gradientUnits="userSpaceOnUse" x1="593.2959" y1="409.291" x2="704.0527" y2="409.291">
		<stop  offset="0" style="stop-color:#DC6734"/>
		<stop  offset="1" style="stop-color:#AE2E41"/>
	</linearGradient>
	<path fill="url(#SVGID_46_)" d="M598.929,399.978c8.28,3.355,51.447,5.855,72.28,1.188s29.942-9.768,29.942-9.768
		s2.642-0.815,2.891,7.101c0.231,7.347-3.5,12-3.5,12s-34.166,17.667-70.999,16.667c-34.286-0.931-36.247-4.667-36.247-4.667
		L598.929,399.978z"/>
	<path fill="#5B252C" d="M624.209,412.75c4.25-0.667,10.838-9.058,10.838-9.058s-12.557-0.47-16.749-0.753
		s-13.206-1.484-19.369-2.961c-14.322,4.353-25.887,10.188-25.887,10.188s8.667,2.333,20.254,3S619.959,413.417,624.209,412.75z"/>
</g>
<g id="screwdriver">
	<g>
		<path fill="#F2D265" d="M602.179,428.149c0,7.226-5.857,13.083-13.083,13.083l0,0c-7.226,0-13.083-5.857-13.083-13.083v-39
			c0-7.226,5.857-13.083,13.083-13.083l0,0c7.226,0,13.083,5.857,13.083,13.083V428.149z"/>
		<path fill="#EA971D" d="M585.896,392.75c0-3.4-2.767-6.167-6.167-6.167c-1.332,0-2.593,0.427-3.646,1.208
			c-0.046,0.446-0.07,0.899-0.07,1.357v1.02c0.263,0,0.524-0.099,0.721-0.303c0.796-0.827,1.859-1.282,2.995-1.282
			c2.298,0,4.167,1.869,4.167,4.167v47.402c0.623,0.271,1.275,0.483,1.944,0.655c0.026-0.09,0.056-0.179,0.056-0.277V392.75z"/>
		<path fill="#EA971D" d="M602.108,387.792c-1.053-0.781-2.313-1.208-3.646-1.208c-3.4,0-6.167,2.767-6.167,6.167v47.78
			c0,0.098,0.029,0.187,0.056,0.277c0.669-0.172,1.321-0.385,1.944-0.655V392.75c0-2.298,1.869-4.167,4.167-4.167
			c1.136,0,2.199,0.456,2.995,1.282c0.196,0.204,0.458,0.303,0.721,0.303v-1.02C602.179,388.69,602.154,388.238,602.108,387.792z"/>
		<g>
			<g>
				<polygon fill="#E2DCE3" points="592.574,338.833 593.657,340.417 586.699,340.417 585.616,338.833 				"/>
				<polygon fill="#E2DCE3" points="580.637,353.5 581.72,355.083 586.699,340.417 585.616,338.833 				"/>
				<path fill="#E2DCE3" d="M582.137,380.688c0,0,0.749,1.335,1.116,1.75s3.467-23.343,3.467-23.343l-1.501-1.136L582.137,380.688z"
					/>
			</g>
			<path fill="#B5A8AE" d="M593.97,358.917l4.667-3.833l-4.979-14.667h-3.438h-0.083h-3.438l-4.979,14.667l4.667,3.833
				l-3.167,23.333h0.004c0,0.007-0.004,0.014-0.004,0.021c0,0.966,3.115,1.75,6.959,1.75c3.843,0,6.958-0.784,6.958-1.75
				c0-0.007-0.004-0.014-0.004-0.021h0.004L593.97,358.917z"/>
		</g>
	</g>
</g>
<g id="pencil">
	<g>
		
			<rect x="590.174" y="396.129" transform="matrix(0.177 -0.9842 0.9842 0.177 108.6344 942.1585)" fill="#92A6EB" width="54.988" height="19.987"/>
		
			<rect x="590.218" y="401.942" transform="matrix(0.177 -0.9842 0.9842 0.177 108.6624 942.2077)" fill="#6A74EF" width="54.988" height="8.377"/>
		<path fill="#F2D265" d="M612.698,377.294l13.269-17.567l6.403,21.104c0,0-3.499,3.185-10.543,1.918
			C614.781,381.482,612.698,377.294,612.698,377.294z"/>
		<path fill="#6A74EF" d="M627.945,366.248l-1.979-6.521l-4.103,5.431c0.888,0.324,1.849,0.619,2.979,0.822
			C625.981,366.185,626.99,366.245,627.945,366.248z"/>
	</g>
</g>
<g id="tool_belt_x5F_1">
	<g>
		<linearGradient id="SVGID_47_" gradientUnits="userSpaceOnUse" x1="568.1846" y1="434.6309" x2="635.0469" y2="434.6309">
			<stop  offset="0" style="stop-color:#EA971D"/>
			<stop  offset="1" style="stop-color:#DC6734"/>
		</linearGradient>
		<path fill="url(#SVGID_47_)" d="M573.042,410.167c0,0-6.416,43-4.5,46.5c3.607,6.589,36.584,10.416,47.5,8.333
			c7.896-1.507,11.334-6.833,11.334-6.833l7.671-54.475c0,0-6.588,8.391-10.838,9.058s-19.326,1.083-30.913,0.417
			S573.042,410.167,573.042,410.167z"/>
		<linearGradient id="SVGID_48_" gradientUnits="userSpaceOnUse" x1="616.042" y1="434.3462" x2="635.0469" y2="434.3462">
			<stop  offset="0" style="stop-color:#DC6734"/>
			<stop  offset="1" style="stop-color:#AE2E41"/>
		</linearGradient>
		<path fill="url(#SVGID_48_)" d="M627.376,458.167l7.671-54.475c0,0-6.179,7.856-10.429,8.952l-0.004,0.021
			c0.012,6.418-5.572,47.667-8.572,52.334C623.938,463.493,627.376,458.167,627.376,458.167z"/>
		<g>
			<path fill="#F2D265" d="M611.317,424.924l-0.008-1.5c2.033-0.009,4.04-0.061,5.967-0.151l0.07,1.498
				C615.399,424.863,613.371,424.914,611.317,424.924z M607.296,424.891c-1.963-0.041-3.99-0.118-6.023-0.229l0.082-1.498
				c2.017,0.111,4.026,0.188,5.973,0.228L607.296,424.891z M621.363,424.514l-0.121-1.495c0.733-0.06,1.464-0.125,2.188-0.2
				c0.321-0.144,1.435-0.668,2.997-1.674l0.813,1.262c-1.983,1.276-3.274,1.817-3.329,1.839l-0.21,0.053
				C622.927,424.379,622.147,424.45,621.363,424.514z M597.263,424.397c-1.995-0.153-4.015-0.34-6.001-0.556l0.162-1.491
				c1.971,0.214,3.974,0.399,5.954,0.552L597.263,424.397z M587.271,423.364c-2.075-0.272-4.083-0.573-5.966-0.895l0.252-1.479
				c1.864,0.318,3.853,0.616,5.909,0.886L587.271,423.364z M577.345,421.722c-2.109-0.441-4.857-1.101-5.976-1.731l0.736-1.307
				c0.721,0.407,2.794,0.994,5.546,1.57L577.345,421.722z M630.542,420.008l-0.945-1.165c1.499-1.215,2.941-2.572,4.29-4.033
				l1.103,1.017C633.592,417.341,632.096,418.748,630.542,420.008z"/>
		</g>
		<linearGradient id="SVGID_49_" gradientUnits="userSpaceOnUse" x1="629.3398" y1="425.7002" x2="666.7705" y2="425.7002">
			<stop  offset="0" style="stop-color:#DC6734"/>
			<stop  offset="1" style="stop-color:#AE2E41"/>
		</linearGradient>
		<path fill="url(#SVGID_49_)" d="M635.047,403.692c0.662-0.359,7.078-1.942,15.162-2.275s15.645-0.553,16.489,0.599
			s-5.989,39.651-7.489,41.651s-6.083,6.583-14.416,6.583c-10.253,0-15.453-6.029-15.453-6.029s2.742-19.478,3.221-22.874
			S635.047,403.692,635.047,403.692z"/>
		<linearGradient id="SVGID_50_" gradientUnits="userSpaceOnUse" x1="634.9941" y1="411.7856" x2="666.7598" y2="411.7856">
			<stop  offset="0" style="stop-color:#EA971D"/>
			<stop  offset="1" style="stop-color:#DC6734"/>
		</linearGradient>
		<path fill="url(#SVGID_50_)" d="M649.709,422.417c15.06-0.338,16.683-18.024,17.051-20.044c-0.009-0.173-0.026-0.309-0.062-0.357
			c-0.845-1.151-8.405-0.932-16.489-0.599s-14.5,1.917-15.162,2.275C634.79,405.52,634.876,422.75,649.709,422.417z"/>
		<circle fill="#F2D265" cx="650.709" cy="412.083" r="4.083"/>
	</g>
</g>
</svg>
