<?xml version="1.0" encoding="UTF-8" standalone="no"?>
<!-- Generator: Adobe Illustrator 15.0.1, SVG Export Plug-In . SVG Version: 6.00 Build 0)  -->

<svg
   xmlns:dc="http://purl.org/dc/elements/1.1/"
   xmlns:cc="http://creativecommons.org/ns#"
   xmlns:rdf="http://www.w3.org/1999/02/22-rdf-syntax-ns#"
   xmlns:svg="http://www.w3.org/2000/svg"
   xmlns="http://www.w3.org/2000/svg"
   xmlns:sodipodi="http://sodipodi.sourceforge.net/DTD/sodipodi-0.dtd"
   xmlns:inkscape="http://www.inkscape.org/namespaces/inkscape"
   version="1.1"
   x="0px"
   y="0px"
   width="900px"
   height="900px"
   viewBox="0 0 900 900"
   enable-background="new 0 0 900 900"
   xml:space="preserve"
   id="svg577"
   sodipodi:docname="04_Prosper.svg"
   inkscape:version="0.92.4 (5da689c313, 2019-01-14)"><metadata
   id="metadata583"><rdf:RDF><cc:Work
       rdf:about=""><dc:format>image/svg+xml</dc:format><dc:type
         rdf:resource="http://purl.org/dc/dcmitype/StillImage" /></cc:Work></rdf:RDF></metadata><defs
   id="defs581" /><sodipodi:namedview
   pagecolor="#ffffff"
   bordercolor="#666666"
   borderopacity="1"
   objecttolerance="10"
   gridtolerance="10"
   guidetolerance="10"
   inkscape:pageopacity="0"
   inkscape:pageshadow="2"
   inkscape:window-width="1366"
   inkscape:window-height="705"
   id="namedview579"
   showgrid="false"
   inkscape:zoom="0.26222222"
   inkscape:cx="450"
   inkscape:cy="450"
   inkscape:window-x="-8"
   inkscape:window-y="-8"
   inkscape:window-maximized="1"
   inkscape:current-layer="svg577" />
<g
   id="Layer_1"
   display="none">
	<rect
   display="inline"
   fill="#FFFFFF"
   width="900"
   height="900"
   id="rect2" />
</g>














<g
   id="g1703"
   inkscape:export-xdpi="388.07562"
   inkscape:export-ydpi="388.07562"><g
     id="background">
	<g
   id="g16">
		<linearGradient
   y2="374.7019"
   x2="626.1199"
   y1="268.3887"
   x1="519.8066"
   gradientUnits="userSpaceOnUse"
   id="SVGID_1_">
			<stop
   id="stop5"
   style="stop-color:#EFEEEF"
   offset="0" />
			<stop
   id="stop7"
   style="stop-color:#FFFFFF"
   offset="1" />
		</linearGradient>
		<circle
   id="circle10"
   r="75.175"
   cy="321.544"
   cx="572.962"
   fill="url(#SVGID_1_)" />
		<g
   id="g14">
			<path
   id="path12"
   d="M573.088,397.47l-0.002-1.5c2.597-0.004,5.213-0.144,7.776-0.415l0.158,1.492     C578.405,397.324,575.736,397.466,573.088,397.47z M565.154,397.074c-2.634-0.269-5.275-0.68-7.851-1.22l0.309-1.468     c2.524,0.53,5.113,0.932,7.694,1.196L565.154,397.074z M588.867,395.802l-0.313-1.467c2.53-0.54,5.061-1.22,7.521-2.022     l0.465,1.426C594.031,394.557,591.449,395.251,588.867,395.802z M549.622,393.815c-2.515-0.812-5.013-1.766-7.425-2.836     l0.609-1.371c2.363,1.049,4.812,1.985,7.276,2.78L549.622,393.815z M603.954,390.878l-0.613-1.369     c2.358-1.056,4.689-2.25,6.931-3.55l0.752,1.297C608.738,388.583,606.359,389.801,603.954,390.878z M535.113,387.378     c-2.289-1.318-4.532-2.772-6.669-4.322l0.881-1.214c2.094,1.519,4.293,2.944,6.536,4.236L535.113,387.378z M617.677,382.914     l-0.885-1.212c2.088-1.523,4.122-3.176,6.044-4.913l1.006,1.113C621.881,379.674,619.807,381.36,617.677,382.914z      M522.263,378.063c-1.965-1.763-3.858-3.65-5.629-5.608l1.113-1.006c1.735,1.919,3.592,3.769,5.518,5.498L522.263,378.063z      M629.452,372.276l-1.115-1.003c1.729-1.924,3.377-3.962,4.897-6.057l1.215,0.881     C632.897,368.235,631.217,370.313,629.452,372.276z M511.619,366.292c-1.557-2.129-3.019-4.367-4.346-6.65l1.297-0.754     c1.301,2.239,2.734,4.432,4.26,6.52L511.619,366.292z M638.773,359.431l-1.299-0.75c1.294-2.243,2.483-4.578,3.533-6.942     l1.371,0.609C641.307,354.76,640.094,357.143,638.773,359.431z M503.646,352.574c-1.082-2.413-2.045-4.906-2.864-7.412     l1.426-0.466c0.803,2.456,1.747,4.9,2.808,7.265L503.646,352.574z M645.22,344.925l-1.428-0.461     c0.796-2.463,1.47-4.996,2.002-7.528l1.469,0.309C646.719,339.828,646.031,342.412,645.22,344.925z M498.715,337.49     c-0.551-2.576-0.972-5.216-1.251-7.846l1.492-0.158c0.273,2.578,0.686,5.165,1.226,7.69L498.715,337.49z M648.486,329.395     l-1.492-0.153c0.261-2.541,0.394-5.13,0.394-7.697l1.5-0.082v0.082C648.888,324.163,648.753,326.804,648.486,329.395z      M498.537,321.711h-1.5v-0.167c0-2.643,0.138-5.312,0.409-7.933l1.492,0.154c-0.267,2.569-0.401,5.187-0.401,7.778V321.711z      M646.978,313.686c-0.271-2.578-0.68-5.166-1.217-7.692l1.467-0.312c0.548,2.577,0.966,5.217,1.242,7.847L646.978,313.686z      M500.146,306.073l-1.467-0.311c0.546-2.583,1.236-5.167,2.051-7.678l1.428,0.463     C501.359,301.009,500.683,303.541,500.146,306.073z M643.743,298.472c-0.802-2.459-1.744-4.904-2.8-7.268l1.369-0.612     c1.078,2.412,2.039,4.906,2.856,7.415L643.743,298.472z M504.95,291.275l-1.369-0.61c1.072-2.408,2.288-4.79,3.612-7.079     l1.299,0.751C507.194,286.581,506.003,288.916,504.95,291.275z M637.397,284.273c-1.298-2.237-2.729-4.433-4.254-6.524     l1.213-0.884c1.555,2.134,3.015,4.374,4.338,6.655L637.397,284.273z M512.739,277.808l-1.213-0.883     c1.551-2.131,3.234-4.208,5.003-6.173l1.115,1.004C515.91,273.682,514.26,275.718,512.739,277.808z M628.234,271.703     c-1.735-1.923-3.59-3.775-5.513-5.504l1.004-1.115c1.961,1.764,3.853,3.653,5.622,5.614L628.234,271.703z M523.15,266.246     l-1.004-1.114c1.963-1.77,4.039-3.453,6.17-5.005l0.883,1.213C527.11,262.861,525.075,264.511,523.15,266.246z M616.666,261.296     c-2.094-1.522-4.292-2.95-6.531-4.244l0.75-1.299c2.285,1.32,4.527,2.776,6.664,4.33L616.666,261.296z M535.727,257.09     l-0.752-1.298c2.285-1.323,4.666-2.54,7.074-3.615l0.611,1.37C540.3,254.602,537.967,255.793,535.727,257.09z M603.195,253.516     c-2.364-1.052-4.812-1.99-7.274-2.788l0.463-1.427c2.512,0.813,5.009,1.771,7.421,2.845L603.195,253.516z M549.93,250.752     l-0.465-1.427c2.51-0.816,5.092-1.507,7.676-2.055l0.311,1.468C554.919,249.275,552.389,249.953,549.93,250.752z      M588.395,248.721c-2.527-0.533-5.116-0.938-7.694-1.204l0.154-1.492c2.63,0.271,5.271,0.685,7.849,1.229L588.395,248.721z      M565.145,247.525l-0.156-1.492c2.616-0.273,5.285-0.412,7.934-0.414v1.5C570.326,247.121,567.709,247.257,565.145,247.525z"
   fill="#E2DCE3" />
		</g>
	</g>
	<g
   id="g29">
		
			<linearGradient
   gradientTransform="matrix(0.2025 -0.9793 0.9793 0.2025 10.6924 421.146)"
   y2="250.1414"
   x2="242.1128"
   y1="148.7935"
   x1="308.7349"
   gradientUnits="userSpaceOnUse"
   id="SVGID_2_">
			<stop
   id="stop18"
   style="stop-color:#FFFFFF"
   offset="0" />
			<stop
   id="stop20"
   style="stop-color:#EFEEEF"
   offset="1" />
		</linearGradient>
		<circle
   id="circle23"
   r="60.636"
   cy="191.816"
   cx="261.804"
   fill="url(#SVGID_2_)" />
		<g
   id="g27">
			<path
   id="path25"
   d="M261.867,253.214c-1.447,0-2.914-0.052-4.36-0.156l0.106-1.496c2.597,0.185,5.235,0.2,7.832,0.044     l0.09,1.497C264.319,253.177,263.085,253.214,261.867,253.214z M273.498,252.094l-0.286-1.473     c2.553-0.496,5.099-1.167,7.567-1.994l0.477,1.422C278.725,250.897,276.115,251.585,273.498,252.094z M249.551,251.967     l-0.169-0.035c-2.628-0.543-5.231-1.26-7.744-2.13l0.491-1.417c2.451,0.849,4.992,1.547,7.55,2.077l0.177,0.036L249.551,251.967z      M288.682,247.009l-0.657-1.349c2.339-1.141,4.627-2.448,6.799-3.883l0.827,1.251C293.424,244.5,291.08,245.839,288.682,247.009z      M234.242,246.684c-2.386-1.197-4.717-2.565-6.926-4.067l0.843-1.24c2.155,1.464,4.428,2.799,6.756,3.966L234.242,246.684z      M302.046,238.177l-0.982-1.134c1.969-1.707,3.844-3.559,5.571-5.505l1.122,0.996     C305.986,234.528,304.064,236.427,302.046,238.177z M220.984,237.677c-1.99-1.774-3.884-3.7-5.63-5.724l1.136-0.979     c1.704,1.974,3.552,3.853,5.493,5.584L220.984,237.677z M312.682,226.192l-1.242-0.84c1.459-2.158,2.789-4.435,3.951-6.765     l1.343,0.669C315.542,221.646,314.179,223.979,312.682,226.192z M210.517,225.548c-1.467-2.231-2.802-4.579-3.965-6.978     l1.35-0.654c1.135,2.341,2.437,4.631,3.869,6.808L210.517,225.548z M319.836,211.853l-1.419-0.487     c0.83-2.413,1.514-4.911,2.034-7.426l0.026-0.127l1.471,0.297l-0.028,0.137C321.387,206.821,320.686,209.381,319.836,211.853z      M203.528,211.138c-0.843-2.535-1.525-5.147-2.027-7.762l1.473-0.283c0.49,2.551,1.156,5.099,1.978,7.572L203.528,211.138z      M323.044,196.159l-1.496-0.108c0.103-1.423,0.155-2.87,0.155-4.298c0-1.176-0.035-2.364-0.105-3.532l1.497-0.09     c0.072,1.198,0.108,2.417,0.108,3.622C323.204,193.217,323.15,194.7,323.044,196.159z M200.509,195.41     c-0.068-1.175-0.103-2.363-0.103-3.532c0-1.49,0.056-3.002,0.166-4.496l1.496,0.11c-0.107,1.457-0.162,2.933-0.162,4.386     c0,1.14,0.034,2.3,0.1,3.445L200.509,195.41z M320.62,180.452c-0.495-2.554-1.164-5.101-1.989-7.569l1.423-0.476     c0.846,2.53,1.532,5.141,2.039,7.759L320.62,180.452z M203.158,179.691l-1.479-0.255l0.01-0.048     c0.539-2.606,1.25-5.195,2.113-7.695l1.418,0.49C204.378,174.621,203.684,177.147,203.158,179.691z M315.67,165.636     c-1.139-2.339-2.444-4.628-3.879-6.802l1.252-0.826c1.47,2.229,2.808,4.574,3.976,6.972L315.67,165.636z M208.258,164.965     l-1.342-0.671c1.196-2.389,2.562-4.72,4.062-6.93l1.241,0.842C210.757,160.361,209.424,162.635,208.258,164.965z      M307.062,152.591c-1.706-1.971-3.557-3.847-5.501-5.576l0.997-1.121c1.993,1.772,3.89,3.695,5.638,5.715L307.062,152.591z      M217.033,152.026l-1.12-0.997c1.773-1.992,3.697-3.888,5.719-5.634l0.98,1.135C220.641,148.234,218.763,150.083,217.033,152.026     z M295.378,142.206c-2.158-1.461-4.434-2.792-6.763-3.957l0.671-1.342c2.388,1.193,4.72,2.558,6.933,4.056L295.378,142.206z      M228.86,141.806l-0.825-1.253c2.229-1.468,4.576-2.804,6.975-3.97l0.655,1.349C233.324,139.07,231.035,140.373,228.86,141.806z      M281.396,135.218c-2.425-0.836-4.938-1.525-7.468-2.048l0.215-1.487l0.086,0.018c2.595,0.536,5.17,1.243,7.656,2.1     L281.396,135.218z M242.914,134.976l-0.475-1.423c2.534-0.845,5.145-1.529,7.761-2.033l0.284,1.473     C247.933,133.484,245.386,134.151,242.914,134.976z M266.084,132.075c-2.592-0.189-5.239-0.208-7.831-0.056l-0.088-1.497     c2.654-0.157,5.369-0.137,8.028,0.057L266.084,132.075z"
   fill="#E2DCE3" />
		</g>
	</g>
	<g
   id="g42">
		
			<linearGradient
   gradientTransform="matrix(0.7071 -0.7071 0.7071 0.7071 -397.8364 482.2217)"
   y2="775.9784"
   x2="437.9867"
   y1="646.7139"
   x1="308.7222"
   gradientUnits="userSpaceOnUse"
   id="SVGID_3_">
			<stop
   id="stop31"
   style="stop-color:#FFFFFF"
   offset="0" />
			<stop
   id="stop33"
   style="stop-color:#EFEEEF"
   offset="1" />
		</linearGradient>
		<circle
   id="circle36"
   r="91.403"
   cy="721.215"
   cx="369.154"
   fill="url(#SVGID_3_)" />
		<g
   id="g40">
			<path
   id="path38"
   d="M369.236,813.367l-0.002-1.5c2.631-0.003,5.29-0.12,7.902-0.35l0.131,1.494     C374.611,813.245,371.91,813.364,369.236,813.367z M361.204,813.025c-2.661-0.229-5.343-0.577-7.971-1.036l0.258-1.479     c2.586,0.452,5.225,0.795,7.842,1.021L361.204,813.025z M385.237,811.961l-0.261-1.477c2.588-0.457,5.186-1.032,7.722-1.712     l0.388,1.449C390.509,810.912,387.868,811.497,385.237,811.961z M345.381,810.264c-2.578-0.686-5.159-1.494-7.67-2.403     l0.511-1.41c2.471,0.895,5.009,1.689,7.545,2.364L345.381,810.264z M400.754,807.804l-0.514-1.41     c2.469-0.899,4.927-1.919,7.306-3.03l0.635,1.359C405.763,805.853,403.264,806.889,400.754,807.804z M330.281,804.794     c-2.424-1.126-4.823-2.373-7.132-3.705l0.75-1.299c2.271,1.31,4.63,2.536,7.015,3.645L330.281,804.794z M415.311,801.002     l-0.752-1.299c2.271-1.315,4.513-2.75,6.664-4.262l0.863,1.227C419.899,798.206,417.62,799.663,415.311,801.002z      M316.371,796.771c-2.184-1.529-4.329-3.175-6.374-4.892l0.964-1.148c2.012,1.688,4.122,3.308,6.27,4.812L316.371,796.771z      M428.456,791.759l-0.967-1.146c1.982-1.67,3.922-3.452,5.768-5.297l1.117,1.005l-0.063,0.063     C432.442,788.251,430.47,790.063,428.456,791.759z M304.068,786.453l-0.081-0.081c-1.885-1.885-3.713-3.878-5.429-5.918     l1.148-0.965c1.688,2.007,3.486,3.968,5.347,5.827l0.076,0.076L304.068,786.453z M439.803,780.393l-1.148-0.965     c1.688-2.01,3.308-4.119,4.813-6.269l1.229,0.861C443.166,776.205,441.519,778.349,439.803,780.393z M293.654,774.08     c-1.538-2.191-2.994-4.472-4.327-6.779l1.299-0.75c1.311,2.269,2.743,4.513,4.256,6.668L293.654,774.08z M449.015,767.243     l-1.299-0.75c1.313-2.274,2.539-4.634,3.647-7.014l1.359,0.633C451.597,762.531,450.35,764.931,449.015,767.243z      M285.612,760.169c-1.127-2.417-2.161-4.917-3.074-7.43l1.41-0.512c0.898,2.471,1.915,4.93,3.023,7.309L285.612,760.169z      M455.791,752.685l-1.41-0.512c0.896-2.472,1.691-5.01,2.367-7.545l1.449,0.387C457.511,747.591,456.701,750.172,455.791,752.685     z M280.126,745.069c-0.688-2.576-1.271-5.217-1.733-7.851l1.478-0.26c0.455,2.591,1.028,5.189,1.705,7.724L280.126,745.069z      M459.926,737.163l-1.479-0.258c0.453-2.588,0.797-5.227,1.022-7.842l1.494,0.129     C460.734,731.851,460.385,734.532,459.926,737.163z M277.351,729.247c-0.231-2.659-0.349-5.361-0.349-8.031h1.5     c0,2.627,0.115,5.285,0.343,7.9L277.351,729.247z M459.808,721.161c-0.001-2.622-0.118-5.28-0.348-7.9l1.494-0.131     c0.233,2.663,0.353,5.365,0.354,8.031H459.808z M278.845,713.313l-1.494-0.129c0.231-2.659,0.582-5.341,1.043-7.972l1.478,0.26     C279.417,708.061,279.072,710.699,278.845,713.313z M458.43,705.419c-0.457-2.591-1.032-5.188-1.71-7.723l1.449-0.387     c0.688,2.574,1.273,5.216,1.737,7.85L458.43,705.419z M281.576,697.751l-1.449-0.387c0.689-2.582,1.5-5.161,2.41-7.668     l1.41,0.512C283.051,692.674,282.253,695.212,281.576,697.751z M454.343,690.153c-0.899-2.472-1.918-4.93-3.028-7.307     l1.359-0.635c1.129,2.416,2.164,4.915,3.079,7.428L454.343,690.153z M286.969,682.902l-1.359-0.634     c1.128-2.422,2.377-4.82,3.712-7.129l1.299,0.75C289.308,678.161,288.079,680.521,286.969,682.902z M447.657,675.834     c-1.313-2.269-2.747-4.511-4.261-6.665l1.228-0.863c1.539,2.19,2.996,4.471,4.331,6.776L447.657,675.834z M294.872,669.228     l-1.228-0.861c1.531-2.183,3.179-4.325,4.897-6.369l1.148,0.965C297.999,664.973,296.378,667.081,294.872,669.228z      M438.569,662.9c-1.677-1.992-3.464-3.938-5.313-5.787l0.493-0.567l0.53-0.53l-0.53,0.53l0.557-0.504     c1.89,1.889,3.706,3.868,5.411,5.892L438.569,662.9z M305.054,657.113l-1.1-1.021l0.081-0.078     c1.843-1.847,3.829-3.669,5.859-5.378l0.966,1.148C308.863,653.465,306.91,655.258,305.054,657.113z M427.388,651.732     c-2.009-1.688-4.117-3.308-6.267-4.815l0.861-1.229c2.186,1.533,4.329,3.18,6.371,4.896L427.388,651.732z M317.13,646.957     l-0.862-1.227c2.188-1.538,4.469-2.995,6.777-4.33l0.751,1.299C321.525,644.012,319.283,645.444,317.13,646.957z      M414.457,642.667c-2.275-1.313-4.634-2.541-7.013-3.649l0.634-1.359c2.418,1.127,4.817,2.375,7.129,3.71L414.457,642.667z      M330.81,639.044l-0.634-1.359c2.416-1.127,4.916-2.162,7.429-3.076l0.513,1.41C335.646,636.917,333.187,637.935,330.81,639.044z      M400.137,635.998c-2.464-0.895-5.002-1.691-7.543-2.369l0.386-1.449c2.584,0.688,5.165,1.499,7.669,2.408L400.137,635.998z      M345.662,633.644l-0.387-1.449c2.574-0.688,5.215-1.271,7.85-1.734l0.26,1.477C350.793,632.393,348.195,632.967,345.662,633.644     z M384.871,631.928c-2.589-0.453-5.228-0.798-7.842-1.024l0.13-1.494c2.657,0.23,5.338,0.581,7.971,1.042L384.871,631.928z      M361.227,630.907l-0.131-1.494c2.663-0.232,5.365-0.351,8.032-0.351v1.5C366.505,630.563,363.847,630.679,361.227,630.907z"
   fill="#E2DCE3" />
		</g>
	</g>
	<g
   id="g70">
		
			<rect
   id="rect44"
   height="30.565"
   width="30.564"
   fill="#FFFFFF"
   transform="matrix(0.8833 -0.4689 0.4689 0.8833 -63.7017 328.8676)"
   y="277.079"
   x="613.311" />
		<polygon
   id="polygon46"
   points="634.924,271.699 607.928,286.03 616.441,268.703 642.133,255.067   "
   fill="#E3DDE4" />
		<polygon
   id="polygon48"
   points="634.924,271.698 642.133,255.067 655.881,280.966 649.257,298.694   "
   fill="#6A74EF" />
		<g
   id="g52">
			<path
   id="path50"
   d="M629.484,295.188c-0.052,0-0.104-0.008-0.154-0.024c-0.127-0.041-0.232-0.132-0.293-0.251l-13.043-25.985     c-0.123-0.247-0.023-0.547,0.223-0.671c0.245-0.125,0.547-0.025,0.672,0.223l12.815,25.532l25.946-13.488     c0.242-0.126,0.547-0.032,0.674,0.213c0.128,0.245,0.032,0.547-0.213,0.674l-26.396,13.722     C629.644,295.169,629.563,295.188,629.484,295.188z"
   fill="#B5A8AE" />
		</g>
		<g
   id="g56">
			<path
   id="path54"
   d="M622.262,313.525c-0.062,0-0.123-0.011-0.184-0.035c-0.257-0.102-0.383-0.392-0.281-0.648l7.223-18.337     c0.102-0.258,0.393-0.381,0.648-0.282c0.257,0.102,0.383,0.392,0.281,0.648l-7.223,18.337     C622.649,313.405,622.461,313.525,622.262,313.525z"
   fill="#B5A8AE" />
		</g>
		<g
   id="g60">
			<path
   id="path58"
   d="M622.262,313.525c-0.179,0-0.352-0.096-0.441-0.266l-14.334-26.995c-0.063-0.117-0.075-0.254-0.037-0.381     c0.039-0.127,0.127-0.233,0.244-0.295l26.996-14.331c0.242-0.131,0.546-0.038,0.676,0.207l14.333,26.995     c0.063,0.117,0.075,0.254,0.037,0.381c-0.039,0.127-0.127,0.233-0.244,0.295l-26.995,14.331     C622.422,313.506,622.341,313.525,622.262,313.525z M608.604,286.237l13.865,26.112l26.112-13.862l-13.864-26.112     L608.604,286.237z"
   fill="#B5A8AE" />
		</g>
		<g
   id="g64">
			<path
   id="path62"
   d="M607.928,286.53c-0.127,0-0.252-0.048-0.348-0.141c-0.156-0.151-0.196-0.385-0.102-0.58l8.514-17.327     c0.047-0.094,0.122-0.171,0.215-0.221l25.691-13.636c0.188-0.1,0.419-0.069,0.573,0.075c0.156,0.144,0.204,0.371,0.12,0.566     l-7.209,16.631c-0.045,0.104-0.124,0.19-0.225,0.243l-26.996,14.331C608.088,286.511,608.008,286.53,607.928,286.53z      M616.818,269.068l-7.761,15.795l25.478-13.524l6.571-15.161L616.818,269.068z"
   fill="#F2D265" />
		</g>
		<g
   id="g68">
			<path
   id="path66"
   d="M649.257,299.194c-0.185,0-0.354-0.102-0.441-0.266l-14.333-26.996c-0.071-0.134-0.078-0.294-0.018-0.433     l7.209-16.63c0.076-0.176,0.247-0.293,0.439-0.301c0.193-0.023,0.37,0.095,0.461,0.265l13.748,25.899     c0.067,0.126,0.077,0.275,0.027,0.409l-6.624,17.728c-0.069,0.185-0.24,0.312-0.437,0.324     C649.278,299.193,649.268,299.194,649.257,299.194z M635.479,271.676l13.699,25.802l6.156-16.476l-13.155-24.782L635.479,271.676     z"
   fill="#F2D265" />
		</g>
	</g>
	<g
   id="g98">
		<polygon
   id="polygon72"
   points="302.421,731.959 301.455,706.485 278.422,711.418 279.15,738.323   "
   fill="#5C60D5" />
		<polygon
   id="polygon74"
   points="278.422,711.418 279.15,738.323 260.161,729.996 260.757,705.556   "
   fill="#FFFFFF" />
		<polygon
   id="polygon76"
   points="301.455,706.485 283.014,700.688 260.757,705.556 278.422,711.418   "
   fill="#E3DDE4" />
		<g
   id="g80">
			<path
   id="path78"
   d="M302.421,732.459c-0.054,0-0.109-0.009-0.164-0.027l-18.329-6.355c-0.194-0.067-0.327-0.246-0.336-0.451     l-1.078-24.916c-0.012-0.275,0.202-0.509,0.478-0.521c0.286,0.011,0.509,0.202,0.521,0.479l1.063,24.576l18.008,6.244     c0.261,0.091,0.399,0.376,0.309,0.637C302.822,732.329,302.628,732.459,302.421,732.459z"
   fill="#B5A8AE" />
		</g>
		<g
   id="g84">
			<path
   id="path82"
   d="M260.16,730.496c-0.237,0-0.447-0.169-0.491-0.41c-0.05-0.271,0.13-0.532,0.401-0.582l23.931-4.393     c0.278-0.043,0.533,0.131,0.582,0.402c0.05,0.271-0.13,0.532-0.401,0.582l-23.931,4.393     C260.22,730.493,260.19,730.496,260.16,730.496z"
   fill="#B5A8AE" />
		</g>
		<g
   id="g88">
			<path
   id="path86"
   d="M279.15,738.823c-0.068,0-0.137-0.014-0.201-0.042l-18.99-8.327c-0.186-0.082-0.304-0.268-0.299-0.47     l0.597-24.44c0.004-0.159,0.083-0.306,0.212-0.397c0.13-0.09,0.293-0.114,0.445-0.065l17.665,5.862     c0.2,0.066,0.336,0.251,0.342,0.461l0.725,26.766c0.016,0.048,0.024,0.1,0.024,0.153c0,0.279-0.229,0.485-0.51,0.5     C279.157,738.823,279.154,738.823,279.15,738.823z M260.668,729.673l17.961,7.876l-0.698-25.767l-16.691-5.539L260.668,729.673z"
   fill="#B5A8AE" />
		</g>
		<g
   id="g92">
			<path
   id="path90"
   d="M278.422,711.918c-0.053,0-0.106-0.009-0.158-0.025L260.6,706.03c-0.213-0.071-0.354-0.276-0.342-0.501     c0.012-0.225,0.173-0.414,0.393-0.462l22.257-4.868c0.086-0.02,0.173-0.015,0.257,0.012l18.44,5.798     c0.217,0.067,0.36,0.273,0.35,0.5s-0.173,0.418-0.395,0.466l-23.033,4.933C278.492,711.914,278.457,711.918,278.422,711.918z      M262.644,705.655l15.807,5.245l21.045-4.507l-16.504-5.189L262.644,705.655z"
   fill="#F2D265" />
		</g>
		<g
   id="g96">
			<path
   id="path94"
   d="M279.15,738.823c-0.106,0-0.211-0.034-0.298-0.099c-0.124-0.092-0.198-0.234-0.202-0.388l-0.729-26.905     c-0.006-0.241,0.16-0.452,0.396-0.503l23.033-4.933c0.145-0.029,0.294,0.004,0.412,0.095c0.116,0.091,0.187,0.228,0.192,0.376     l0.966,25.474c0.009,0.231-0.144,0.439-0.368,0.501l-23.271,6.364C279.239,738.817,279.194,738.823,279.15,738.823z      M278.933,711.82l0.7,25.853l22.273-6.092l-0.929-24.482L278.933,711.82z"
   fill="#F2D265" />
		</g>
	</g>
	<g
   id="g102">
		<path
   id="path100"
   d="M259.594,312.833c-4.411,0-8-3.589-8-8s3.589-8,8-8s8,3.589,8,8S264.005,312.833,259.594,312.833z     M259.594,298.833c-3.309,0-6,2.691-6,6s2.691,6,6,6s6-2.691,6-6S262.902,298.833,259.594,298.833z"
   fill="#92A6EB" />
	</g>
	<g
   id="g106">
		<path
   id="path104"
   d="M254.26,369.5c-6.801,0-12.333-5.533-12.333-12.333s5.533-12.333,12.333-12.333    s12.333,5.533,12.333,12.333S261.061,369.5,254.26,369.5z M254.26,346.833c-5.698,0-10.333,4.636-10.333,10.333    s4.636,10.333,10.333,10.333s10.333-4.636,10.333-10.333S259.958,346.833,254.26,346.833z"
   fill="#EA971D" />
	</g>
	<g
   id="g110">
		<path
   id="path108"
   d="M197.927,380.667c-9.374,0-17-7.626-17-17s7.626-17,17-17s17,7.626,17,17S207.301,380.667,197.927,380.667    z M197.927,348.667c-8.271,0-15,6.729-15,15s6.729,15,15,15s15-6.729,15-15S206.198,348.667,197.927,348.667z"
   fill="#F2D265" />
	</g>
	<g
   id="g114">
		<path
   id="path112"
   d="M221.76,454.5c-11.947,0-21.667-9.72-21.667-21.667s9.72-21.667,21.667-21.667s21.667,9.72,21.667,21.667    S233.707,454.5,221.76,454.5z M221.76,413.167c-10.844,0-19.667,8.822-19.667,19.667s8.822,19.667,19.667,19.667    s19.667-8.822,19.667-19.667S232.604,413.167,221.76,413.167z"
   fill="#6A74EF" />
	</g>
</g><g
     id="skirt_x5F_2">
	<linearGradient
   y2="518.6777"
   x2="467.1992"
   y1="614.4775"
   x1="467.1992"
   gradientUnits="userSpaceOnUse"
   id="SVGID_4_">
		<stop
   id="stop117"
   style="stop-color:#724A5F"
   offset="0" />
		<stop
   id="stop119"
   style="stop-color:#5B252C"
   offset="1" />
	</linearGradient>
	<path
   id="path122"
   d="M284.677,576.25c17.917,16.583,41.885,6.163,53.583,10.417c11,4,10.81,26.149,35.505,27.737   c23.333,1.5,32.687-20.594,46.516-20.638c31.646-0.101,27.98-6.017,57.48-7.767s55.666,6.333,86.666-1.5   c26.513-6.699,36.408-25.837,42.666-28.5c7.833-3.334,18.668-0.666,32.668-6.666c8.721-3.737,15.574-9.521,16.113-21.389   c-6.084-22.16-43.456,1.063-54.447,11.305c-11,10.25-43.75,34.5-47.75,22.5s28.25-17.75,24-29.25s-35,0-54.25,10.75   s-53.5,38.5-88.75,39.5c-28.043,0.796-51.5-26.25-62.75-35.75s-28.687-17.657-33.625-10.25c-3.25,4.875,2.46,8.781,12.375,19.75   c9.779,10.818-3.583,17.167-18,11.25c-9.948-4.083-30.917-21.417-44.5-17.5c-11.248,3.243-10.026,16.009-9.052,18.405l0,0   C280.441,571.465,282.278,574.03,284.677,576.25z"
   fill="url(#SVGID_4_)" />
</g><g
     id="left_leg">
	
		<radialGradient
   gradientUnits="userSpaceOnUse"
   gradientTransform="matrix(-0.3956 0.9184 -0.5965 -0.2569 1075.1282 236.9993)"
   r="92.396"
   cy="572.6074"
   cx="525.6211"
   id="SVGID_5_">
		<stop
   id="stop125"
   style="stop-color:#E08D7D"
   offset="0" />
		<stop
   id="stop127"
   style="stop-color:#E49587"
   offset="0.0349" />
		<stop
   id="stop129"
   style="stop-color:#EFAA9E"
   offset="0.1371" />
		<stop
   id="stop131"
   style="stop-color:#F6B8AE"
   offset="0.2469" />
		<stop
   id="stop133"
   style="stop-color:#FBC0B8"
   offset="0.3689" />
		<stop
   id="stop135"
   style="stop-color:#FCC3BB"
   offset="0.5273" />
		<stop
   id="stop137"
   style="stop-color:#EAAEA4"
   offset="1" />
	</radialGradient>
	<path
   id="path140"
   d="M523.594,504.667c0,0-13.917,2.583-26.417,5.083S478.427,523,478.427,523s1.5,37.25,1,41.25   s-11.524,11.695-33.333,21.583c-22.487,10.195-35.667,32.667-48.417,57.417c-10.41,20.208-18.954,31.323-22.506,32.924l0,0   c-3.681,4.764-7.056,26.139-4.744,30.076c1.348,2.295,9.024-0.005,13.526,5.634c2.013-8.883,4.932-16.23,10.474-24.634   c10.167-15.417,52.167-43.583,74.5-62.249s48.667-34.001,56-48.668C533.662,558.861,525.594,517,523.594,504.667z"
   fill="url(#SVGID_5_)" />
	<linearGradient
   y2="712.6035"
   x2="383.9531"
   y1="712.6035"
   x1="353.3296"
   gradientUnits="userSpaceOnUse"
   id="SVGID_6_">
		<stop
   id="stop142"
   style="stop-color:#DC6734"
   offset="0" />
		<stop
   id="stop144"
   style="stop-color:#AE2E41"
   offset="1" />
	</linearGradient>
	<path
   id="path147"
   d="M370.427,706.25c-2.313-3.938,1.063-25.313,4.744-30.076l0,0c-0.258,0.116-0.492,0.187-0.696,0.202   c-4.875,0.375-10.547-2.376-14.452-0.928c-9.406,3.488-7.342,36.137-3.22,53.802c2.42,10.371,7.419,22.795,15.479,20.7   c7.021-1.825,8.311-18.015,9.646-26.95c0.604-4.038,1.25-7.688,2.026-11.116C379.451,706.245,371.775,708.545,370.427,706.25z"
   fill="url(#SVGID_6_)" />
	<linearGradient
   y2="712.584"
   x2="376.4517"
   y1="712.584"
   x1="353.3296"
   gradientUnits="userSpaceOnUse"
   id="SVGID_7_">
		<stop
   id="stop149"
   style="stop-color:#E9AA4A"
   offset="0" />
		<stop
   id="stop151"
   style="stop-color:#EA971D"
   offset="1" />
	</linearGradient>
	<path
   id="path154"
   d="M360.022,675.448c-9.406,3.488-7.342,36.137-3.22,53.802c2.42,10.371,7.419,22.795,15.479,20.7   c1.7-0.441,3.061-1.73,4.171-3.549c-5.198,0.084-10.297-5.725-13.525-20.651c-3.712-17.168-3.625-43.25,4.206-50.194   C364.114,674.875,361.888,674.756,360.022,675.448z"
   fill="url(#SVGID_7_)" />
	<linearGradient
   y2="655.8711"
   x2="449.707"
   y1="655.8711"
   x1="369.668"
   gradientUnits="userSpaceOnUse"
   id="SVGID_8_">
		<stop
   id="stop156"
   style="stop-color:#92A6EB"
   offset="0" />
		<stop
   id="stop158"
   style="stop-color:#6A74EF"
   offset="1" />
	</linearGradient>
	<path
   id="path161"
   d="M426.281,599.857c-11.461,11.502-20.13,26.941-28.604,43.393   c-10.41,20.208-18.954,31.323-22.506,32.924c-3.681,4.764-7.056,26.139-4.744,30.076c1.348,2.295,9.024-0.005,13.526,5.634   c2.013-8.883,4.932-16.23,10.474-24.634c7.674-11.637,33.481-30.535,55.28-47.131C424.743,634.738,424.677,606.509,426.281,599.857   z"
   fill="url(#SVGID_8_)" />
</g><g
     id="right_leg">
	
		<radialGradient
   gradientUnits="userSpaceOnUse"
   gradientTransform="matrix(0.2807 0.9598 -0.6107 0.1786 705.5682 16.5685)"
   r="149.7682"
   cy="585.5156"
   cx="483.8311"
   id="SVGID_9_">
		<stop
   id="stop164"
   style="stop-color:#E08D7D"
   offset="0" />
		<stop
   id="stop166"
   style="stop-color:#E49587"
   offset="0.0349" />
		<stop
   id="stop168"
   style="stop-color:#EFAA9E"
   offset="0.1371" />
		<stop
   id="stop170"
   style="stop-color:#F6B8AE"
   offset="0.2469" />
		<stop
   id="stop172"
   style="stop-color:#FBC0B8"
   offset="0.3689" />
		<stop
   id="stop174"
   style="stop-color:#FCC3BB"
   offset="0.5273" />
		<stop
   id="stop176"
   style="stop-color:#EAAEA4"
   offset="1" />
	</radialGradient>
	<path
   id="path179"
   d="M541.904,729.101c-0.554,0.209-1.054,0.292-1.478,0.233c-1.202-0.165-21.452-48.534-29.125-72.209   c-10.25-31.625-18.364-64.293-22.763-75.258c-5.362-13.367-9.279-27.2-11.779-33.2c0,0-14.083-8.167-28.333-6.667   s-22.25,16.25-21.25,20.25s7.25,16.75,11,26.25s2.604,30.981,20.25,63c16.167,29.334,44.334,57.834,58.833,84.834   c3.487,6.495,5.897,11.386,7.891,15.547C526.345,737.262,538.602,730.532,541.904,729.101z"
   fill="url(#SVGID_9_)" />
	<linearGradient
   y2="740.0508"
   x2="584.3125"
   y1="740.0508"
   x1="525.1504"
   gradientUnits="userSpaceOnUse"
   id="SVGID_10_">
		<stop
   id="stop181"
   style="stop-color:#DC6734"
   offset="0" />
		<stop
   id="stop183"
   style="stop-color:#AE2E41"
   offset="1" />
	</linearGradient>
	<path
   id="path186"
   d="M550.413,784.588c10.389-0.713,15.681-16.254,18.681-25.421s9-22,13-34.5   s3.083-28.667-6.833-29.166c-11.995-0.604-21.417,18.708-25.084,24.874c-2.935,4.935-6.054,7.89-8.272,8.726   c-3.303,1.432-15.56,8.161-16.754,22.78c2.908,6.072,4.92,10.575,8.026,16.119C538.768,777.978,542.814,785.109,550.413,784.588z"
   fill="url(#SVGID_10_)" />
	<linearGradient
   y2="740.6807"
   x2="584.3125"
   y1="740.6807"
   x1="542.6494"
   gradientUnits="userSpaceOnUse"
   id="SVGID_11_">
		<stop
   id="stop188"
   style="stop-color:#5C60D5"
   offset="0" />
		<stop
   id="stop190"
   style="stop-color:#2421A2"
   offset="1" />
	</linearGradient>
	<path
   id="path193"
   d="M550.413,784.588c10.389-0.713,15.681-16.254,18.681-25.421s9-22,13-34.5   c3.253-10.164,3.254-22.752-2.19-27.37l0,0c-4.094-1.747-12.809,0.035-16.643,14.869s-2.746,19.087-4.5,25   c-3.584,12.084-11.833,23.668-14,29.834c-2.165,6.16-4.474,15.227,3.073,17.448C548.649,784.597,549.505,784.65,550.413,784.588z"
   fill="url(#SVGID_11_)" />
	<linearGradient
   y2="740.042"
   x2="580.7715"
   y1="740.042"
   x1="535.3174"
   gradientUnits="userSpaceOnUse"
   id="SVGID_12_">
		<stop
   id="stop195"
   style="stop-color:#E9AA4A"
   offset="0" />
		<stop
   id="stop197"
   style="stop-color:#EA971D"
   offset="1" />
	</linearGradient>
	<path
   id="path200"
   d="M549.086,784.597c-0.429-0.024-0.846-0.074-1.252-0.148c-7.547-2.222-5.238-11.288-3.073-17.448   c2.167-6.166,10.416-17.75,14-29.834c1.754-5.913,0.666-10.166,4.5-25s12.549-16.616,16.643-14.869   c0.309,0.262,0.595,0.557,0.868,0.868c-1.385-1.573-3.2-2.548-5.511-2.664c-6.698-0.337-12.593,5.537-17.133,11.863   c-4.025,6.21-5.132,18.787-8.076,27.886c-2.865,8.855-14.06,21.302-14.734,36.531C539.579,779.172,543.273,784.291,549.086,784.597   z"
   fill="url(#SVGID_12_)" />
	<linearGradient
   y2="692.3789"
   x2="541.9043"
   y1="692.3789"
   x1="460.0332"
   gradientUnits="userSpaceOnUse"
   id="SVGID_13_">
		<stop
   id="stop202"
   style="stop-color:#92A6EB"
   offset="0" />
		<stop
   id="stop204"
   style="stop-color:#6A74EF"
   offset="1" />
	</linearGradient>
	<path
   id="path207"
   d="M541.904,729.101c-0.554,0.209-1.054,0.292-1.478,0.233c-1.202-0.165-21.452-48.534-29.125-72.209   c-2.54-7.837-4.948-15.736-7.202-23.354c-24.666-5.041-39.356,12.542-44.066,20.572c16.369,28.333,43.196,55.864,57.227,81.991   c3.487,6.495,5.897,11.386,7.891,15.547C526.345,737.262,538.602,730.532,541.904,729.101z"
   fill="url(#SVGID_13_)" />
</g><g
     id="skirt_x5F_1">
	<path
   id="path210"
   d="M361.579,539.735c-9.584-5.553-19.704-8.346-23.277-2.985c-3.25,4.875,2.46,8.781,12.375,19.75   c3.276,3.624,3.945,6.742,2.858,9.07l0,0C355.117,562.558,358.271,553.173,361.579,539.735z"
   fill="#E1792B" />
	<path
   id="path212"
   d="M553.677,561.75c-4-12,28.25-17.75,24-29.25c-3.08-8.335-20.08-4.586-36.533,2.201   c3.064,9.42,9.725,23.201,12.988,28.063C553.954,562.46,553.801,562.123,553.677,561.75z"
   fill="#E1792B" />
	<linearGradient
   y2="395.2505"
   x2="466.2734"
   y1="582.7676"
   x1="466.2734"
   gradientUnits="userSpaceOnUse"
   id="SVGID_14_">
		<stop
   id="stop214"
   style="stop-color:#AE2E41"
   offset="0" />
		<stop
   id="stop216"
   style="stop-color:#DC6734"
   offset="1" />
	</linearGradient>
	<path
   id="path219"
   d="M288.177,550.25c13.583-3.917,34.552,13.417,44.5,17.5c14.417,5.917,27.779-0.432,18-11.25   c-9.915-10.969-15.625-14.875-12.375-19.75c4.938-7.407,22.375,0.75,33.625,10.25s34.707,36.546,62.75,35.75   c35.25-1,69.5-28.75,88.75-39.5s50-22.25,54.25-10.75s-28,17.25-24,29.25s36.75-12.25,47.75-22.5   c10.991-10.241,48.363-33.465,54.447-11.305c0.019-0.425,0.05-0.838,0.053-1.278c0.18-27.674-89.5-73.167-107-86.333   c-17.437-13.119-22.274-22.135-34.167-31c-18.333-13.667-29.666-13.833-34.083-14.083c0,0-26.25,2.75-37.25,4.5   s-43.998,7.605-43.998,7.605s-11.373,4.8-20.252,11.895c-8.643,6.906-25.301,20.717-34.25,43.5c-16.333,41.584-41.333,43.25-59,68   c-9.141,12.807-11.833,27.168-6.802,37.905l0,0C278.15,566.259,276.929,553.493,288.177,550.25z"
   fill="url(#SVGID_14_)" />
	<linearGradient
   y2="436.7139"
   x2="511.5508"
   y1="436.7139"
   x1="406.1138"
   gradientUnits="userSpaceOnUse"
   id="SVGID_15_">
		<stop
   id="stop221"
   style="stop-color:#EA971D"
   offset="0" />
		<stop
   id="stop223"
   style="stop-color:#E9AA4A"
   offset="1" />
	</linearGradient>
	<path
   id="path226"
   d="M406.821,412.983c0.306,1.646,0.635,3.286,1.054,4.893c1.67,6.428,4.292,12.485,7.64,18.118   c3.351,5.632,7.443,10.844,12.206,15.487c4.755,4.646,10.204,8.71,16.215,11.943c5.998,3.235,12.578,5.629,19.391,6.821   c6.804,1.2,13.81,1.184,20.4-0.101c6.599-1.27,12.738-3.78,18.088-7.105c3.597-2.264,6.868-4.865,9.735-7.814   c-1.472-1.317-3.176-2.867-4.783-4.355c-2.988,0.328-5.881,0.556-8.706,0.607c-5.304,0.138-10.292-0.305-14.898-1.257   c-9.224-1.916-16.949-5.899-23.972-11.278c-6.989-5.405-13.279-12.117-19.078-19.452c-2.893-3.672-5.647-7.51-8.235-11.448   c-1.253-1.889-2.443-3.81-3.598-5.74c-7.82,1.349-16.41,2.857-22.166,3.873c0.023,0.593,0.043,1.187,0.087,1.775   C406.324,409.651,406.555,411.323,406.821,412.983z"
   fill="url(#SVGID_15_)" />
	<linearGradient
   y2="496.0439"
   x2="316.6953"
   y1="564.5479"
   x1="316.6953"
   gradientUnits="userSpaceOnUse"
   id="SVGID_16_">
		<stop
   id="stop228"
   style="stop-color:#EA971D"
   offset="0" />
		<stop
   id="stop230"
   style="stop-color:#E9AA4A"
   offset="1" />
	</linearGradient>
	<path
   id="path233"
   d="M326.463,552.46c0.334-3.292,0.891-6.661,1.595-10.049c0.346-1.686,0.751-3.414,1.151-5.077   c0.39-1.567,0.95-3.956,1.301-6.187c0.744-4.521,1.064-9.379,0.561-14.488c-0.488-5.089-1.915-10.448-4.309-15.329   c-0.906-1.854-1.94-3.62-3.053-5.286c-7.113,7.08-14.544,12.219-21.632,18.015c0.161,0.206,0.333,0.408,0.483,0.617   c1.255,1.713,2.217,3.62,2.867,5.975c0.649,2.34,0.97,5.077,0.946,8.044c-0.002,1.52-0.095,2.845-0.294,4.996   c-0.181,2.058-0.291,4.061-0.379,6.116c-0.167,4.094-0.173,8.246,0.097,12.487c0.017,0.269,0.047,0.542,0.066,0.812   c7.341,3.221,14.752,8.035,20.635,11.442c-0.125-0.843-0.227-1.702-0.288-2.594C326.012,558.966,326.138,555.749,326.463,552.46z"
   fill="url(#SVGID_16_)" />
	<linearGradient
   y2="529.1504"
   x2="433.6182"
   y1="529.1504"
   x1="349.7222"
   gradientUnits="userSpaceOnUse"
   id="SVGID_17_">
		<stop
   id="stop235"
   style="stop-color:#EA971D"
   offset="0" />
		<stop
   id="stop237"
   style="stop-color:#E9AA4A"
   offset="1" />
	</linearGradient>
	<path
   id="path240"
   d="M428.827,559.757c0.858-2.158,1.622-4.379,2.281-6.658c1.344-4.552,2.15-9.373,2.434-14.323   c0.254-4.95-0.126-10.036-1.15-15.01c-1.067-4.966-2.772-9.795-5.029-14.255c-2.294-4.466-5.184-8.771-8.674-12.558   c-3.5-3.77-7.49-7.086-11.803-9.673c-4.299-2.61-8.835-4.597-13.421-5.961c-4.578-1.399-9.2-2.188-13.754-2.544   c-6.742-0.484-13.349-0.019-19.758,1.348c-2.618,9.04-6.461,18.142-10.23,26.467c0.002-0.001,0.004-0.001,0.006-0.002   c2.681-0.639,5.614-1.064,8.575-1.245c5.935-0.372,12.006,0.127,17.477,1.494c2.741,0.663,5.325,1.578,7.693,2.641   c2.355,1.1,4.5,2.344,6.359,3.782c1.85,1.451,3.487,2.992,4.846,4.763c1.374,1.751,2.562,3.657,3.515,5.804   c0.985,2.155,1.722,4.339,2.143,6.59c0.479,2.24,0.657,4.559,0.594,6.969c-0.084,4.815-1.316,10.027-3.389,15.271   c-1.589,3.984-3.705,7.964-6.175,11.726c7.396,6.021,16.036,11.898,25.537,15.329c3.444-4.187,6.47-8.746,9.04-13.687   C426.984,563.996,427.95,561.907,428.827,559.757z"
   fill="url(#SVGID_17_)" />
	<linearGradient
   y2="509.4102"
   x2="634.5596"
   y1="509.4102"
   x1="554.1816"
   gradientUnits="userSpaceOnUse"
   id="SVGID_18_">
		<stop
   id="stop242"
   style="stop-color:#EA971D"
   offset="0" />
		<stop
   id="stop244"
   style="stop-color:#E9AA4A"
   offset="1" />
	</linearGradient>
	<path
   id="path247"
   d="M622.435,503.669c-3.885-3.743-8.379-6.966-13.243-9.399c-4.86-2.445-10.062-4.102-15.289-4.984   c-10.493-1.757-20.946-0.598-30.575,2.726c-3.129,1.093-6.185,2.424-9.146,4.047c4.846,5.348,9.104,10.508,12.661,15.453   c0.816-0.284,1.645-0.546,2.48-0.78c6.791-1.911,14.071-2.186,20.539-0.661c6.5,1.511,12.108,4.807,16.464,9.577   c2.786,3.028,5.079,6.666,6.919,10.703c6.471-4.159,14.188-8.2,21.314-10.26c-0.705-1.345-1.441-2.681-2.242-3.994   C629.612,511.653,626.324,507.415,622.435,503.669z"
   fill="url(#SVGID_18_)" />
	<linearGradient
   y2="432.4452"
   x2="513.1752"
   y1="402.9897"
   x1="483.7197"
   gradientUnits="userSpaceOnUse"
   id="SVGID_19_">
		<stop
   id="stop249"
   style="stop-color:#E9AA4A"
   offset="0" />
		<stop
   id="stop251"
   style="stop-color:#EA971D"
   offset="1" />
	</linearGradient>
	<path
   id="path254"
   d="M492.315,404.426c0.929,4.33,1.339,8.622,1.057,12.747c-0.278,4.127-1.257,8.082-3.06,11.787   c-0.462,0.956-0.984,1.893-1.559,2.813c3.285,4.067,7.215,8.46,11.905,13.177c1.9-1.835,3.687-3.832,5.299-6.006   c3.958-5.292,6.817-11.51,8.457-17.878c0.918-3.525,1.48-7.083,1.778-10.621c-0.467-0.372-0.941-0.742-1.434-1.109   c-10.508-7.833-18.712-11.228-24.636-12.749c0.147,0.437,0.295,0.874,0.435,1.313C491.259,400.085,491.853,402.26,492.315,404.426z   "
   fill="url(#SVGID_19_)" />
	<linearGradient
   y2="541.0364"
   x2="517.3851"
   y1="497.6592"
   x1="474.0078"
   gradientUnits="userSpaceOnUse"
   id="SVGID_20_">
		<stop
   id="stop256"
   style="stop-color:#E9AA4A"
   offset="0" />
		<stop
   id="stop258"
   style="stop-color:#EA971D"
   offset="1" />
	</linearGradient>
	<path
   id="path261"
   d="M491.999,546.582c-0.479-0.863-0.879-1.74-1.227-2.633l-0.122-0.309l-0.085-0.194l-0.048-0.097   c-0.019-0.051-0.054-0.193-0.08-0.286l-0.171-0.627l-0.043-0.157l-0.011-0.039c0.101,0.488,0.024,0.12,0.045,0.223l-0.015-0.053   l-0.056-0.212l-0.115-0.423l-0.208-0.842c-0.526-2.238-0.795-4.41-0.796-6.539c-0.018-4.242,0.995-8.445,3.304-12.767   c2.288-4.305,5.825-8.593,10.132-12.553c4.303-3.968,9.353-7.64,14.724-10.983l2.099-1.279c0.884-0.519,1.763-1.055,2.635-1.614   c1.746-1.117,3.468-2.322,5.149-3.628c3.362-2.607,6.577-5.635,9.389-9.167c0.659-0.824,1.292-1.68,1.901-2.558   c-5.117-4.961-10.576-10.039-16.296-15.211c-0.768,1.022-1.622,1.998-2.582,2.926c-1.746,1.684-3.806,3.218-6.098,4.598   c-1.147,0.689-2.354,1.339-3.608,1.947l-4.405,2.037c-6.806,3.235-13.522,6.975-20.017,11.687   c-6.461,4.712-12.754,10.438-17.962,17.802c-2.591,3.675-4.881,7.757-6.638,12.172c-1.768,4.404-2.995,9.129-3.573,13.898   c-0.595,4.771-0.566,9.564-0.053,14.169l0.213,1.721l0.124,0.853l0.063,0.427l0.016,0.106l0.066,0.343l0.025,0.16l0.104,0.642   l0.059,0.348l0.109,0.532l0.229,1.066l0.222,0.942c0.589,2.439,1.337,4.838,2.242,7.147c1.803,4.63,4.178,8.914,6.877,12.787   c0.394,0.563,0.807,1.099,1.213,1.644c11.862-4.982,23.005-11.54,32.775-17.673c-0.236-0.176-0.478-0.348-0.708-0.525   C496.901,553.383,493.876,550.024,491.999,546.582z"
   fill="url(#SVGID_20_)" />
	<path
   id="path263"
   d="M337.548,538.355c-0.183-1.545,0.088-3.108,0.425-4.619c0.358-1.515,0.833-2.996,1.343-4.462   c1.028-2.931,2.211-5.799,3.416-8.653l7.464-16.987c2.422-5.678,4.778-11.38,6.747-17.206c0.985-2.911,1.915-5.839,2.69-8.804   c0.76-2.944,1.43-6.018,2.263-9.006c3.303-11.98,7.85-23.713,14.354-34.367c3.242-5.321,6.986-10.347,11.267-14.87   c4.303-4.493,9.108-8.521,14.418-11.712c-10.192,7.084-18.206,16.772-24.344,27.379c-3.057,5.327-5.718,10.879-7.966,16.598   c-2.273,5.709-4.194,11.561-5.801,17.498c-0.843,2.969-1.504,5.94-2.305,8.982c-0.813,3.014-1.748,5.989-2.793,8.922   c-2.097,5.861-4.509,11.59-7.11,17.217c-2.576,5.639-5.338,11.18-7.996,16.757c-1.337,2.785-2.651,5.581-3.811,8.438   c-0.577,1.43-1.114,2.875-1.546,4.353C337.835,535.285,337.466,536.805,337.548,538.355z"
   fill="#EA971D" />
	<path
   id="path265"
   d="M471.643,398.382c1.433,7.143,4.462,13.83,8.272,19.962c3.77,6.172,8.25,11.886,13.068,17.277   c4.848,5.37,9.942,10.521,15.29,15.406c2.662,2.454,5.405,4.816,8.139,7.226l8.148,7.261c5.366,4.915,10.664,9.908,15.852,15.019   c5.172,5.125,10.291,10.318,15.076,15.822c4.795,5.489,9.394,11.175,13.435,17.26c1.993,3.058,3.842,6.216,5.423,9.507   c1.579,3.286,2.874,6.729,3.592,10.299c-1.909-7.038-5.651-13.367-9.825-19.254c-4.167-5.918-8.864-11.452-13.769-16.783   c-9.824-10.657-20.347-20.671-31.128-30.392l-8.07-7.313c-2.698-2.419-5.444-4.822-8.105-7.317   c-5.322-4.983-10.496-10.151-15.21-15.733c-4.723-5.565-9.117-11.442-12.755-17.788   C475.511,412.484,472.63,405.613,471.643,398.382z"
   fill="#EA971D" />
</g><g
     id="left_hand_x5F_2">
	<linearGradient
   y2="310.4766"
   x2="552.4834"
   y1="310.4766"
   x1="468.498"
   gradientUnits="userSpaceOnUse"
   id="SVGID_21_">
		<stop
   id="stop268"
   style="stop-color:#EAAEA4"
   offset="0" />
		<stop
   id="stop270"
   style="stop-color:#E8A89D"
   offset="0.3126" />
		<stop
   id="stop272"
   style="stop-color:#E39688"
   offset="0.7825" />
		<stop
   id="stop274"
   style="stop-color:#E08C7C"
   offset="1" />
	</linearGradient>
	<path
   id="path277"
   d="M552.427,325c1.5-6-27-22.75-40.5-27.25c-6.472-2.157-17.371-6.554-29.248-10.549   c-5.265,4.507-13.967,15.335-14.181,33.957c10.565,3.106,32.994,9.558,52.679,11.842C543.802,335.625,550.927,331,552.427,325z"
   fill="url(#SVGID_21_)" />
	<linearGradient
   y2="312.3541"
   x2="477.3023"
   y1="279.2837"
   x1="444.2319"
   gradientUnits="userSpaceOnUse"
   id="SVGID_22_">
		<stop
   id="stop279"
   style="stop-color:#5C60D5"
   offset="0" />
		<stop
   id="stop281"
   style="stop-color:#2421A2"
   offset="0.5879" />
		<stop
   id="stop283"
   style="stop-color:#250F52"
   offset="1" />
	</linearGradient>
	<path
   id="path286"
   d="M482.679,287.201c-12.897-4.338-26.949-8.201-37.752-8.201c0,0-5.875,3.25-7.375,12.75   c-2.975,18.84,19.875,26.25,26.125,28c1.045,0.293,2.699,0.785,4.821,1.408C468.712,302.537,477.414,291.708,482.679,287.201z"
   fill="url(#SVGID_22_)" />
</g><g
     id="body">
	<linearGradient
   y2="278.9766"
   x2="417.9385"
   y1="408.1787"
   x1="417.9385"
   gradientUnits="userSpaceOnUse"
   id="SVGID_23_">
		<stop
   id="stop289"
   style="stop-color:#250F52"
   offset="0" />
		<stop
   id="stop291"
   style="stop-color:#2421A2"
   offset="0.4121" />
		<stop
   id="stop293"
   style="stop-color:#5C60D5"
   offset="1" />
	</linearGradient>
	<path
   id="path296"
   d="M355.105,294.657c3.71-1.25,9.655-4.073,36.572-6.323s33.583-6.833,33.583-6.833   s11.564-2.82,19.979-2.498c-0.5,7.873,1.438,12.623,5.313,18.873c6.896,11.123,26.476,21.985,29.286,34.096   c2.589,11.154-4.786,21.029-5.036,24.654c-0.373,5.414,6.875,37.375,5.875,38.625s-50.248,16.605-81.248,12.105   c0,0-14.835-56.689-28.835-75.189S355.105,294.657,355.105,294.657z"
   fill="url(#SVGID_23_)" />
</g><g
     id="head">
	<linearGradient
   y2="156.7744"
   x2="318.2827"
   y1="280.646"
   x1="318.2827"
   gradientUnits="userSpaceOnUse"
   id="SVGID_24_">
		<stop
   id="stop299"
   style="stop-color:#BE4118"
   offset="0" />
		<stop
   id="stop301"
   style="stop-color:#EA971D"
   offset="1" />
	</linearGradient>
	<path
   id="path304"
   d="M429.567,186.94c6.258-8.818,5.276-21.305,0.526-24.273c-5.333-3.333-8.5,2.166-12.167,0.833   s-6.25-6.256-15.833-6.333c-10.333-0.083-14,6.333-21.667,6.167s-19.135-8.43-37.167-6.167   c-20.583,2.583-36.458,23.083-51.833,30.833c-17.771,8.958-36.284,4.411-46.167,10.667c-11.583,7.333-8.25,15.41-15.083,21.333   c-7.5,6.5-38.25,15.375-29.969,40.243c7.318,21.977,39.759,23.396,58.553,17.257c14.542-4.75,40.542-21.5,47-19.167   c7.082,2.559-2.737,15.633,6.292,18.417c15,4.625,29.25-15,37.708-16.917c6.667-1.51,19.667,5.333,29.667-4.667   s17.333-16.667,24.5-15.833s16.92-2.226,18.188-8.333s0.125-10.188,4.646-15.333c3.405-3.875,11.095-8.597,11-15.667   c-0.083-6.125-8.208-5.125-8.667-10c-0.07-0.742,0.001-1.517,0.139-2.303L429.567,186.94z"
   fill="url(#SVGID_24_)" />
	<linearGradient
   y2="235.4106"
   x2="396.4751"
   y1="295.584"
   x1="396.4751"
   gradientUnits="userSpaceOnUse"
   id="SVGID_25_">
		<stop
   id="stop306"
   style="stop-color:#EAAEA4"
   offset="0" />
		<stop
   id="stop308"
   style="stop-color:#E8A89D"
   offset="0.3126" />
		<stop
   id="stop310"
   style="stop-color:#E39688"
   offset="0.7825" />
		<stop
   id="stop312"
   style="stop-color:#E08C7C"
   offset="1" />
	</linearGradient>
	<path
   id="path315"
   d="M406.427,243c3,8.333,13.5,31.333,18.833,38.5c-2.708,6.125-7.086,10.25-15.833,12.667   c-10.25,2.833-22.833,1-24.333-1.833c-0.667-2.917,0.833-6.083-2.833-15.667c-2.619-6.844-6.828-21.964-13.831-35.649   S406.427,243,406.427,243z"
   fill="url(#SVGID_25_)" />
	<linearGradient
   y2="229.6787"
   x2="426.043"
   y1="229.6787"
   x1="361.3066"
   gradientUnits="userSpaceOnUse"
   id="SVGID_26_">
		<stop
   id="stop317"
   style="stop-color:#FCC3BB"
   offset="0" />
		<stop
   id="stop319"
   style="stop-color:#FBC0B8"
   offset="0.3003" />
		<stop
   id="stop321"
   style="stop-color:#F6B8AE"
   offset="0.5317" />
		<stop
   id="stop323"
   style="stop-color:#EFAA9E"
   offset="0.74" />
		<stop
   id="stop325"
   style="stop-color:#E49587"
   offset="0.9337" />
		<stop
   id="stop327"
   style="stop-color:#E08D7D"
   offset="1" />
	</linearGradient>
	<path
   id="path330"
   d="M414.363,195.387c-6.053,0.662-11.574-0.477-13.436,0.113c-5,1.583-4.459,8.942-10.6,9.513   c-7.167,0.667-16.234-4.097-20.4,1.487c-2.24,3.002-1.333,7.333,1,12.833s-0.422,11.7-5.954,13.73   c-0.588,0.216-1.165,0.386-1.737,0.535c0.127,0.202,0.248,0.412,0.377,0.612c-1.425,1.483-2.306,3.493-2.306,5.712   c0,4.557,3.693,8.25,8.25,8.25c1.487,0,2.878-0.398,4.083-1.086c13.204,13.986,29.313,20.926,42.121,14.58   c18.167-9,8.667-49.833-1.081-65.791C414.576,195.707,414.468,195.552,414.363,195.387z"
   fill="url(#SVGID_26_)" />
	<path
   id="path332"
   d="M200.673,261.526c1.344-2.573,3.571-4.602,6.016-6.149c2.476-1.536,5.247-2.559,8.092-3.184   c2.893-0.526,5.781-0.627,8.672-0.792c2.89-0.139,5.779-0.235,8.667-0.329c11.548-0.332,23.111-0.534,34.568-1.664   c2.86-0.292,5.712-0.65,8.525-1.154c2.81-0.516,5.596-1.108,8.174-2.203c5.157-2.188,9.558-5.979,13.707-9.909   c4.18-3.936,8.126-8.231,12.954-11.694c2.415-1.703,5.106-3.184,8.102-3.879c0.745-0.173,1.503-0.305,2.27-0.372l1.109-0.077   c0.38-0.013,0.766-0.035,1.138-0.031c1.5-0.014,3.001,0.103,4.48,0.342c2.96,0.483,5.807,1.46,8.485,2.689   c2.685,1.227,5.219,2.691,7.715,4.144c2.498,1.45,4.968,2.903,7.543,4.038c2.566,1.134,5.268,1.921,8.005,1.938   c1.365,0.019,2.729-0.153,4.058-0.493c1.346-0.342,2.62-0.801,3.71-1.532c2.215-1.443,3.763-3.868,4.133-6.492   c0.193-1.309,0.104-2.656-0.259-3.932c-0.173-0.637-0.442-1.238-0.727-1.94c-0.275-0.684-0.538-1.369-0.775-2.07   c-0.475-1.4-0.877-2.844-1.077-4.358c-0.194-1.504-0.17-3.128,0.41-4.654c0.284-0.752,0.725-1.478,1.23-2.063   c0.532-0.633,1.156-1.146,1.859-1.552c1.412-0.813,3.01-1.066,4.512-1.098c3.03-0.03,5.876,0.64,8.708,1.043   c1.415,0.208,2.827,0.373,4.226,0.381c0.711,0,1.377-0.023,2.059-0.15c0.619-0.117,1.254-0.352,1.803-0.692   c1.117-0.685,1.944-1.814,2.685-3.021c0.75-1.204,1.434-2.524,2.463-3.666c1.012-1.114,2.482-2.052,4.082-2.046   c1.501-0.035,2.929,0.119,4.371,0.204c2.872,0.195,5.75,0.275,8.598-0.059c2.841-0.328,5.653-1.083,8.179-2.449   c1.264-0.676,2.45-1.502,3.522-2.46c1.064-0.963,1.969-2.104,2.905-3.201c-0.899,1.13-1.757,2.296-2.802,3.312   c-1.047,1.004-2.218,1.882-3.478,2.613c-2.527,1.46-5.377,2.302-8.258,2.711c-2.887,0.416-5.814,0.409-8.706,0.288   c-1.442-0.048-2.899-0.161-4.287-0.091c-1.337,0.028-2.508,0.824-3.393,1.831c-0.889,1.034-1.544,2.304-2.293,3.563   c-0.742,1.248-1.635,2.559-2.986,3.424c-0.675,0.429-1.408,0.721-2.206,0.883c-0.737,0.149-1.521,0.192-2.253,0.201   c-1.492,0.015-2.959-0.135-4.405-0.324c-2.883-0.37-5.728-0.972-8.494-0.894c-1.371,0.049-2.714,0.308-3.811,0.967   c-0.544,0.323-1.043,0.753-1.433,1.232c-0.429,0.517-0.734,1.05-0.956,1.653c-0.435,1.196-0.455,2.553-0.258,3.898   c0.199,1.35,0.593,2.698,1.067,4.024c0.239,0.663,0.493,1.326,0.761,1.981c0.26,0.634,0.587,1.354,0.798,2.112   c0.436,1.5,0.551,3.098,0.33,4.648c-0.422,3.109-2.238,5.993-4.863,7.724c-0.639,0.429-1.372,0.812-2.078,1.093   c-0.721,0.284-1.428,0.513-2.167,0.702c-1.467,0.384-2.994,0.584-4.518,0.572c-3.063-0.004-6.029-0.869-8.737-2.049   c-2.722-1.184-5.25-2.658-7.753-4.093c-4.972-2.883-10.032-5.652-15.566-6.517c-1.372-0.229-2.76-0.344-4.149-0.339   c-0.351-0.006-0.686,0.013-1.028,0.021l-1.053,0.067c-0.673,0.055-1.343,0.168-2.005,0.318c-2.657,0.599-5.144,1.931-7.444,3.537   c-4.607,3.26-8.566,7.498-12.805,11.455c-4.228,3.95-8.753,7.859-14.306,10.188c-2.76,1.145-5.669,1.761-8.54,2.247   c-2.882,0.47-5.773,0.786-8.665,1.035c-11.569,0.952-23.141,0.982-34.692,1.113c-2.889,0.019-5.776,0.041-8.66,0.104   c-2.875,0.088-5.785,0.121-8.595,0.559c-2.808,0.54-5.56,1.479-8.041,2.924C204.382,257.075,202.104,259.003,200.673,261.526z"
   fill="#EA971D" />
	<linearGradient
   y2="222.6147"
   x2="415.9224"
   y1="222.6147"
   x1="402.2241"
   gradientUnits="userSpaceOnUse"
   id="SVGID_27_">
		<stop
   id="stop334"
   style="stop-color:#F1AEA3"
   offset="0" />
		<stop
   id="stop336"
   style="stop-color:#E25AB8"
   offset="1" />
	</linearGradient>
	<path
   id="path339"
   d="M402.594,212.833c1.697-1.272,12.333,9.333,13.25,12.917c0.895,3.495-6.083,6.833-7.917,6.75   c-1.238-0.056-0.333-4.417-2.167-9.25C403.819,218.131,401.26,213.833,402.594,212.833z"
   fill="url(#SVGID_27_)" />
	<path
   id="path341"
   d="M381.608,229.004c-0.167-1.303-0.001-2.772,0.642-4.089c0.63-1.323,1.791-2.464,3.187-3.063   c0.693-0.309,1.433-0.474,2.164-0.551c0.183-0.014,0.366-0.032,0.548-0.035c0.102-0.001,0.158-0.008,0.297-0.005l0.232,0.005   c0.399,0.021,0.778,0.071,1.138,0.158c1.457,0.343,2.767,1.238,3.492,2.461c0.218,0.368,0.097,0.843-0.271,1.061   c-0.235,0.14-0.514,0.14-0.741,0.027l-0.044-0.023c-1.024-0.521-1.969-0.874-2.94-1.012c-0.246-0.038-0.484-0.055-0.701-0.068   l-0.397-0.006c-0.127-0.001-0.252,0.01-0.378,0.016c-0.5,0.037-0.976,0.154-1.427,0.315c-0.898,0.334-1.666,0.953-2.226,1.796   c-0.565,0.849-0.903,1.881-1.074,3.043c-0.061,0.413-0.445,0.699-0.858,0.638c-0.343-0.051-0.598-0.324-0.64-0.651L381.608,229.004   z"
   fill="#BE4118" />
	<path
   id="path343"
   d="M411.624,216.994c-0.01-1.061,0.127-2.206,0.608-3.308c0.456-1.094,1.41-2.193,2.693-2.663   c0.626-0.237,1.284-0.346,1.909-0.336c0.157,0.001,0.312,0.007,0.464,0.02c0.238,0.019,0.27,0.027,0.443,0.049   c0.366,0.056,0.652,0.132,0.964,0.231c1.218,0.406,2.239,1.338,2.616,2.491c0.136,0.415-0.09,0.861-0.505,0.997   c-0.218,0.071-0.444,0.043-0.63-0.06l-0.063-0.036c-0.839-0.469-1.491-0.841-2.203-1.089c-0.17-0.06-0.376-0.113-0.512-0.139   c-0.078-0.013-0.297-0.045-0.313-0.042c-0.101-0.011-0.199-0.016-0.296-0.019c-0.389-0.007-0.753,0.027-1.084,0.13   c-0.653,0.206-1.213,0.673-1.649,1.395c-0.438,0.717-0.732,1.593-0.952,2.547c-0.093,0.406-0.499,0.66-0.905,0.566   c-0.347-0.08-0.583-0.387-0.585-0.728V216.994z"
   fill="#BE4118" />
	<path
   id="path345"
   d="M206.737,235.461c2.052-0.933,4.128-1.821,6.267-2.559c2.139-0.732,4.341-1.299,6.576-1.683   c4.477-0.771,9.044-0.828,13.563-0.607c4.532,0.235,9.005,0.858,13.483,1.226c4.479,0.395,8.965,0.675,13.441,0.68   c4.472-0.007,8.946-0.267,13.298-1.077c2.171-0.416,4.31-0.983,6.344-1.783c1.003-0.396,2.04-0.857,2.916-1.388   c0.913-0.545,1.773-1.196,2.593-1.906c6.532-5.809,10.451-14.556,18.344-19.932c1.97-1.294,4.2-2.267,6.545-2.734   c1.162-0.232,2.386-0.344,3.528-0.351c1.205-0.007,2.352,0.072,3.513,0.213c4.625,0.59,8.979,2.115,13.198,3.754   c4.225,1.634,8.334,3.525,12.555,4.82c2.096,0.615,4.278,1.104,6.295,0.842c1.001-0.129,1.929-0.481,2.682-1.092   c0.795-0.659,1.479-1.458,2.087-2.345c2.417-3.596,3.339-8.093,5.013-12.341c0.853-2.104,1.916-4.314,3.86-5.83   c0.958-0.751,2.119-1.242,3.3-1.451c1.196-0.196,2.32-0.212,3.476-0.183c4.582,0.165,8.987,1.24,13.464,1.349   c2.221,0.045,4.495-0.166,6.521-1.104c2.042-0.905,3.651-2.635,4.659-4.647c-0.916,2.051-2.462,3.889-4.527,4.918   c-2.056,1.043-4.393,1.332-6.655,1.363c-4.556,0.037-9.032-0.894-13.477-0.899c-1.095,0.007-2.237,0.045-3.262,0.241   c-1.033,0.206-1.999,0.64-2.805,1.298c-1.634,1.315-2.603,3.351-3.378,5.4c-1.554,4.135-2.35,8.715-4.911,12.738   c-0.644,0.984-1.418,1.934-2.346,2.731c-0.984,0.837-2.237,1.33-3.463,1.51c-2.484,0.344-4.814-0.226-7.023-0.841   c-4.416-1.325-8.53-3.194-12.722-4.781c-4.176-1.593-8.426-3.033-12.771-3.554c-1.077-0.125-2.184-0.19-3.233-0.177   c-1.111,0.015-2.14,0.122-3.188,0.334c-2.078,0.43-4.05,1.301-5.839,2.49c-3.615,2.365-6.501,5.813-9.276,9.314   c-2.794,3.501-5.441,7.242-8.976,10.323c-0.889,0.76-1.836,1.469-2.864,2.073c-1.06,0.626-2.098,1.07-3.19,1.497   c-2.169,0.836-4.412,1.412-6.669,1.828c-4.52,0.833-9.097,1.009-13.633,0.913c-4.54-0.097-9.056-0.473-13.548-0.961   c-4.499-0.467-8.955-1.166-13.424-1.507c-4.468-0.366-8.975-0.458-13.418,0.156C215.213,232.334,210.911,233.767,206.737,235.461z"
   fill="#EA971D" />
	<path
   id="path347"
   d="M236.798,207.882c2.57-1.329,5.33-2.383,8.245-2.788c2.913-0.44,5.897-0.132,8.757,0.381   c2.866,0.524,5.679,1.127,8.525,1.386c2.842,0.27,5.699,0.269,8.537-0.016c2.848-0.295,5.652-0.739,8.31-1.667   c2.671-0.904,5.224-2.172,7.664-3.636c4.896-2.924,9.36-6.577,13.825-10.259c2.246-1.83,4.498-3.674,6.861-5.414   c2.37-1.721,4.839-3.396,7.661-4.542c1.387-0.574,2.957-0.969,4.441-1.109c1.511-0.166,3.023-0.172,4.524-0.029   c3.008,0.274,5.892,1.192,8.593,2.334c2.708,1.098,5.283,2.57,7.929,3.196c1.327,0.297,2.596,0.179,3.659-0.639   c1.097-0.782,2.029-1.873,2.914-2.988c1.779-2.242,3.353-4.721,5.375-6.856c1.011-1.057,2.155-2.038,3.509-2.649   c1.353-0.608,2.901-0.724,4.3-0.337c-1.425-0.288-2.917-0.061-4.169,0.61c-1.264,0.657-2.317,1.653-3.247,2.732   c-1.863,2.181-3.286,4.701-4.984,7.089c-0.861,1.186-1.785,2.366-3.017,3.324c-0.583,0.463-1.397,0.891-2.196,1.025   c-0.813,0.156-1.625,0.107-2.388-0.024c-1.533-0.271-2.911-0.839-4.264-1.387c-1.35-0.558-2.67-1.135-4.003-1.65   c-2.658-1.034-5.384-1.818-8.163-2.037c-2.774-0.191-5.59,0.045-8.095,1.145c-2.544,1.074-4.923,2.666-7.217,4.362   c-2.295,1.707-4.517,3.549-6.755,5.387c-4.492,3.652-9.033,7.369-14.134,10.34c-2.55,1.474-5.238,2.759-8.073,3.668   c-2.837,0.95-5.812,1.34-8.727,1.557c-2.935,0.209-5.9,0.155-8.815-0.237c-2.918-0.378-5.761-1.09-8.569-1.726   c-2.8-0.65-5.646-1.093-8.505-0.813C242.252,205.881,239.46,206.746,236.798,207.882z"
   fill="#EA971D" />
	
		<ellipse
   id="ellipse349"
   ry="4.194"
   rx="4.884"
   cy="244.083"
   cx="410.385"
   fill="#E08C7C"
   transform="matrix(0.2069 0.9784 -0.9784 0.2069 564.2959 -207.917)" />
</g><g
     id="whistleblower">
	<linearGradient
   y2="216.7715"
   x2="537.9658"
   y1="216.7715"
   x1="408.1387"
   gradientUnits="userSpaceOnUse"
   id="SVGID_28_">
		<stop
   id="stop352"
   style="stop-color:#DC6734"
   offset="0" />
		<stop
   id="stop354"
   style="stop-color:#AE2E41"
   offset="1" />
	</linearGradient>
	<path
   id="path357"
   d="M410.852,240.107c0.586-0.131,1.361-0.333,2.059-0.511l2.152-0.567l4.315-1.162l8.625-2.389   c5.75-1.597,11.486-3.25,17.217-4.92c5.736-1.652,11.462-3.34,17.173-5.079c5.718-1.717,11.429-3.453,17.121-5.245   c0,0,12.845-3.896,17.07-5.364c8.431-2.93,18.843-7.246,23.468-11.808c5.087-1.89,3.983,1.924,7.035-1.208   c0.734-0.793,1.335-1.585,1.719-2.424c0.197-0.419,0.347-0.851,0.466-1.299c0.061-0.224,0.107-0.456,0.148-0.691   c-0.002,0.125,0.05-0.399,0.041-0.322c0.006-0.004,0.012-0.08,0.017-0.163c0.088-1.187-0.722-2.244-1.539-2.487l-0.604-0.179   c-2.008-0.596-3.152-2.707-2.556-4.715c0.506-1.703,2.104-2.784,3.803-2.708c2.589,0.115,4.978,1.365,6.622,3.173   c1.659,1.81,2.623,4.214,2.744,6.599c0.015,0.29,0.025,0.587,0.013,0.957c-0.02,0.45-0.002,0.299-0.046,0.794   c-0.046,0.506-0.112,1.013-0.208,1.519c-0.192,1.011-0.495,2.009-0.885,2.963c-0.776,1.918-1.925,3.601-3.2,5.009   c-2.574,2.819-5.524,4.658-8.417,6.185c-1.45,0.761-2.911,1.429-4.369,2.041l-2.184,0.883c-0.311,0.123-0.804,0.313-1.175,0.442   l-1.141,0.392c-5.869,1.908-11.572,3.494-17.365,5.097c-5.771,1.594-11.545,3.155-17.323,4.691l-17.321,4.645   c-5.774,1.539-11.539,3.112-17.298,4.707l-34.693,9.598c-1.763,0.488-3.588-0.546-4.076-2.31c-0.488-1.763,0.546-3.588,2.31-4.076   c0.05-0.014,0.1-0.026,0.15-0.038L410.852,240.107z"
   fill="url(#SVGID_28_)" />
	<linearGradient
   y2="186.1631"
   x2="525.9482"
   y1="205.2275"
   x1="525.9482"
   gradientUnits="userSpaceOnUse"
   id="SVGID_29_">
		<stop
   id="stop359"
   style="stop-color:#EA971D"
   offset="0" />
		<stop
   id="stop361"
   style="stop-color:#AE2E41"
   offset="1" />
	</linearGradient>
	<path
   id="path364"
   d="M535.665,190.584c-3.551-0.897-6.551,1.291-5.926,5.416c0.567,3.747,3.584,4.708,4.021,5.083   s-1.667,2.25-8.167,3.667c-1.225,0.267-3.575,0.841-4.758,0.148c-2.444-1.431-4.429-4.443-4.597-8.023   c-0.174-3.686,2.473-9.765,9.688-10.625C532.739,185.438,535.665,190.584,535.665,190.584z"
   fill="url(#SVGID_29_)" />
	<path
   id="path366"
   d="M415.868,238.812c-0.379,0.11-0.805,0.217-0.805,0.217l-2.152,0.567c-0.698,0.178-1.472,0.38-2.059,0.511   l-0.133,0.03c-0.05,0.011-0.1,0.024-0.15,0.038c-1.764,0.488-2.797,2.313-2.31,4.076c0.488,1.764,2.313,2.797,4.076,2.31   l5.277-1.46C417.612,245.1,414.968,243.583,415.868,238.812z"
   fill="#E3DDE4" />
</g><g
     id="left_hand_x5F_1">
	<g
   id="g392">
		<linearGradient
   y2="321.2044"
   x2="558.2493"
   y1="225.9922"
   x1="463.0371"
   gradientUnits="userSpaceOnUse"
   id="SVGID_30_">
			<stop
   id="stop369"
   style="stop-color:#FCC3BB"
   offset="0" />
			<stop
   id="stop371"
   style="stop-color:#FBC0B8"
   offset="0.3003" />
			<stop
   id="stop373"
   style="stop-color:#F6B8AE"
   offset="0.5317" />
			<stop
   id="stop375"
   style="stop-color:#EFAA9E"
   offset="0.74" />
			<stop
   id="stop377"
   style="stop-color:#E49587"
   offset="0.9337" />
			<stop
   id="stop379"
   style="stop-color:#E08D7D"
   offset="1" />
		</linearGradient>
		<path
   id="path382"
   d="M534.677,288.5c-12.035-16.352-32.75-30.75-38.125-40.5c-1.908-3.462-1.25-8.125-1.375-14.125    c-0.076-3.635-0.289-7.398-0.445-9.808c-4.359,1.193-8.72,2.383-13.084,3.543l-6.795,1.822c0.306,4.085-0.374,11.501-0.926,11.942    c-0.625,0.5-1.5-2.875-2.875-7.125s-3.542-11.766-5.625-10.625c-1.75,0.958-0.24,18.775,1.188,23.938    c1.625,5.875,8.313,8.771,15.313,16.771s28.444,42.506,39.667,53.833c9.083,9.167,20.746,15.947,25.267,13.209    c4.068-2.463,7.316-4.792,7.233-10.459C554.013,315.373,545.952,303.819,534.677,288.5z"
   fill="url(#SVGID_30_)" />
		<path
   id="path384"
   d="M473.027,239.562c0.387,0.937,1.015,1.723,1.854,2.193c0.835,0.479,1.82,0.666,2.83,0.792    c1.014,0.132,2.073,0.182,3.178,0.492c0.549,0.157,1.115,0.398,1.617,0.781c0.504,0.378,0.913,0.898,1.186,1.452l0.013,0.025    c0.183,0.372,0.03,0.822-0.343,1.006c-0.372,0.183-0.822,0.03-1.006-0.342c-0.01-0.021-0.02-0.043-0.027-0.064    c-0.304-0.794-0.937-1.344-1.829-1.669c-0.884-0.332-1.915-0.476-2.952-0.692c-1.034-0.215-2.13-0.502-3.068-1.143    c-0.946-0.629-1.598-1.629-1.921-2.644l-0.004-0.014c-0.043-0.133,0.03-0.274,0.163-0.316    C472.844,239.378,472.978,239.442,473.027,239.562z"
   fill="#9B6D6D" />
		<path
   id="path386"
   d="M478.461,230.152c-0.002,0.725-0.009,1.45-0.031,2.168c-0.026,0.708-0.054,1.457-0.161,2.068l-0.003,0.022    c-0.004,0.018-0.006,0.036-0.008,0.055c-0.04,0.413,0.262,0.78,0.675,0.82c0.412,0.041,0.779-0.262,0.82-0.674    c0.081-0.834,0.044-1.548,0.021-2.297c-0.029-0.739-0.074-1.471-0.123-2.202l-0.148-1.927l-1.053,0.282L478.461,230.152z"
   fill="#9B6D6D" />
		<path
   id="path388"
   d="M484.271,228.261l0.059,2.068c0.008,0.679,0.019,1.392-0.027,2.01l-0.002,0.019    c-0.001,0.019-0.002,0.037-0.002,0.056c0.001,0.415,0.338,0.75,0.753,0.75c0.414-0.001,0.75-0.337,0.749-0.752    c-0.001-0.771-0.067-1.446-0.126-2.153l-0.214-2.088c-0.062-0.516-0.126-1.028-0.19-1.541c-0.355,0.095-0.71,0.193-1.065,0.289    C484.228,227.366,484.252,227.815,484.271,228.261z"
   fill="#9B6D6D" />
		<path
   id="path390"
   d="M490.608,226.464c-0.043-0.415-0.103-0.826-0.149-1.24c-0.329,0.089-0.658,0.178-0.986,0.267    c0.004,0.344,0.02,0.688,0.021,1.032l-0.019,1.906c-0.02,0.621-0.039,1.283-0.126,1.816l-0.002,0.016    c-0.005,0.025-0.007,0.052-0.009,0.078c-0.022,0.415,0.295,0.769,0.71,0.792c0.414,0.022,0.769-0.295,0.791-0.709    c0.04-0.742-0.015-1.365-0.057-2.024C490.734,227.749,490.674,227.105,490.608,226.464z"
   fill="#9B6D6D" />
	</g>
</g><g
     id="serpentine_x5F_1">
	<linearGradient
   y2="110.5332"
   x2="479.2422"
   y1="178.1943"
   x1="479.2422"
   gradientUnits="userSpaceOnUse"
   id="SVGID_31_">
		<stop
   id="stop395"
   style="stop-color:#E9AA4A"
   offset="0" />
		<stop
   id="stop397"
   style="stop-color:#F2D265"
   offset="1" />
	</linearGradient>
	<path
   id="path400"
   d="M499.189,171.864c-1.474-0.472-2.883-1.019-4.116-1.676c-1.438-0.757-2.618-1.707-3.146-2.557   c-0.134-0.211-0.231-0.412-0.302-0.605c-0.038-0.096-0.063-0.191-0.086-0.287l-0.067-0.355c0.006-0.165,0.013-0.542,0.186-1.02   c0.316-1.001,1.265-2.513,2.351-4.167c1.08-1.679,2.338-3.593,3.274-6.004c0.95-2.379,1.42-5.401,0.923-8.231   c-0.114-0.704-0.277-1.39-0.475-2.055c-0.203-0.661-0.429-1.279-0.733-1.982l-0.151-0.341l-0.126-0.269l-0.115-0.236   c-0.155-0.314-0.323-0.625-0.503-0.931c-0.356-0.613-0.756-1.207-1.194-1.769c-1.758-2.279-4.056-3.908-6.185-5.048   c-2.149-1.153-4.198-1.933-6.057-2.667c-1.859-0.727-3.547-1.4-4.952-2.147c-0.704-0.372-1.335-0.758-1.882-1.161   c-0.263-0.193-0.552-0.426-0.738-0.597l-0.175-0.159l-0.137-0.125l-0.069-0.063c0.113,0.098,0.03,0.024,0.054,0.044l-0.004-0.005   l-0.009-0.01c-0.047-0.055-0.09-0.106-0.125-0.16c-0.143-0.211-0.25-0.418-0.392-0.851c-0.138-0.424-0.279-1.055-0.412-1.877   c-0.285-1.632-0.474-3.99-1.419-6.747c-0.474-1.368-1.17-2.814-2.095-4.132c-0.829-1.189-1.827-2.245-2.877-3.141l-8.14,9.547   c0.036,0.022,0.082,0.045,0.116,0.068c0.778,0.552,1.172,0.942,1.629,1.919c0.46,0.977,0.779,2.595,1.287,4.852   c0.267,1.123,0.608,2.43,1.218,3.85c0.597,1.412,1.529,2.936,2.735,4.188c0.299,0.314,0.613,0.609,0.935,0.888l0.179,0.154   l0.072,0.059l0.146,0.116l0.401,0.315c0.589,0.451,1.106,0.801,1.672,1.157c1.109,0.696,2.229,1.263,3.319,1.746   c2.186,0.965,4.258,1.608,6.145,2.208c1.886,0.594,3.594,1.144,4.999,1.781c1.414,0.638,2.458,1.33,3.21,2.153   c0.191,0.208,0.366,0.426,0.529,0.661c0.083,0.117,0.162,0.237,0.236,0.364l0.058,0.094l0.015,0.023   c0.035,0.073-0.042-0.087-0.03-0.062l0.012,0.021l0.042,0.083l0.173,0.331c0.103,0.203,0.247,0.508,0.357,0.791   c0.104,0.282,0.192,0.559,0.261,0.832c0.264,1.086,0.229,2.151-0.18,3.5c-0.405,1.341-1.208,2.86-2.181,4.577   c-0.941,1.747-2.178,3.632-2.931,6.482c-0.354,1.436-0.499,3.096-0.09,4.882l0.114,0.436c0.062,0.221,0.135,0.48,0.199,0.65   c0.131,0.377,0.28,0.747,0.452,1.102c0.34,0.712,0.751,1.371,1.203,1.962c1.852,2.367,4.104,3.663,6.217,4.641   c1.166,0.523,2.323,0.938,3.475,1.291L499.189,171.864z"
   fill="url(#SVGID_31_)" />
</g><g
     id="serpentine_x5F_2">
	<linearGradient
   y2="71.418"
   x2="543.9785"
   y1="167.4775"
   x1="543.9785"
   gradientUnits="userSpaceOnUse"
   id="SVGID_32_">
		<stop
   id="stop403"
   style="stop-color:#6A74EF"
   offset="0" />
		<stop
   id="stop405"
   style="stop-color:#92A6EB"
   offset="1" />
	</linearGradient>
	<path
   id="path408"
   d="M552.529,71.418c0.009,0.154,0.03,0.326,0.034,0.473c0.024,0.827-0.044,1.514-0.159,2.034   c-0.12,0.521-0.265,0.868-0.469,1.188c-0.053,0.079-0.109,0.16-0.174,0.24c-0.044,0.046-0.047,0.063-0.123,0.138l-0.226,0.223   c-0.311,0.299-0.687,0.624-1.109,0.965c-0.849,0.686-1.884,1.432-3.021,2.277c-1.137,0.848-2.387,1.797-3.676,2.985   c-1.281,1.186-2.629,2.645-3.749,4.505c-1.124,1.845-1.924,4.109-2.165,6.305c-0.033,0.274-0.057,0.546-0.075,0.818l-0.021,0.404   l-0.014,0.485l0.014,0.779c0.012,0.398,0.043,0.639,0.071,0.96c0.136,1.216,0.443,2.43,0.877,3.528   c0.876,2.216,2.137,3.859,3.256,5.135c1.137,1.282,2.194,2.265,3.112,3.157c1.854,1.768,3.114,3.164,3.793,4.52   c0.35,0.68,0.579,1.366,0.713,2.146c0.066,0.373,0.108,0.835,0.119,1.198l0.001,0.624c-0.014,0.197-0.021,0.396-0.048,0.592   c-0.162,1.562-0.842,3.175-2.025,4.854c-1.183,1.671-2.82,3.333-4.657,4.95c-3.688,3.279-8.137,6.258-12.446,10.297   c-1.074,1.029-2.142,2.134-3.146,3.407c-0.506,0.644-0.978,1.297-1.448,2.057l-0.259,0.427l-0.318,0.557   c-0.229,0.396-0.402,0.745-0.582,1.101c-1.412,2.858-2.244,5.788-2.79,8.672c-0.867,4.769-0.994,9.444-0.717,14.06l7.384-0.559   c0.023-4.041,0.409-8.056,1.331-11.778c0.581-2.309,1.382-4.498,2.453-6.353c0.136-0.23,0.272-0.47,0.391-0.641l0.193-0.299   l0.284-0.411c0.254-0.355,0.585-0.765,0.927-1.146c0.694-0.777,1.525-1.547,2.42-2.305c3.643-3.054,8.239-5.786,12.753-9.291   c2.26-1.769,4.551-3.75,6.623-6.298c2.05-2.523,3.881-5.792,4.549-9.511c0.089-0.459,0.15-0.922,0.209-1.386l0.066-0.795   l0.034-0.574c0.039-0.967,0.015-1.837-0.075-2.785c-0.177-1.863-0.654-3.773-1.398-5.519c-1.49-3.54-3.862-6.176-5.713-8.194   c-0.936-1.016-1.767-1.912-2.345-2.665c-0.59-0.755-0.872-1.331-0.929-1.616c-0.092-0.307,0.055-1.358,0.609-2.019   c0.557-0.805,2.051-2.012,4.145-3.35c1.042-0.683,2.217-1.42,3.5-2.327c0.642-0.456,1.311-0.956,2.002-1.533l0.516-0.444   c0.171-0.147,0.402-0.367,0.597-0.553c0.403-0.393,0.789-0.811,1.156-1.246c1.473-1.748,2.552-3.82,3.199-5.844   c0.65-2.022,0.923-3.99,1.003-5.814L552.529,71.418z"
   fill="url(#SVGID_32_)" />
</g><g
     id="serpentine_x5F_3">
	<linearGradient
   y2="122.9146"
   x2="586.9688"
   y1="171.5288"
   x1="586.9688"
   gradientUnits="userSpaceOnUse"
   id="SVGID_33_">
		<stop
   id="stop411"
   style="stop-color:#EA971D"
   offset="0" />
		<stop
   id="stop413"
   style="stop-color:#E9AA4A"
   offset="1" />
	</linearGradient>
	<path
   id="path416"
   d="M623.767,122.915c-1.269,1.317-2.791,2.328-4.459,2.906c-1.417,0.5-2.977,0.711-4.643,0.648   l-6.716-0.447c-2.378-0.121-4.848-0.295-7.875,0.087c-1.504,0.205-3.209,0.597-4.919,1.452c-0.849,0.422-1.678,0.957-2.421,1.571   c-0.189,0.151-0.367,0.311-0.542,0.473l-0.342,0.322l-0.148,0.153c-0.457,0.475-0.782,0.886-1.082,1.306   c-1.2,1.72-1.732,3.37-2.11,4.742c-0.368,1.388-0.576,2.586-0.788,3.658c-0.404,2.142-0.838,3.764-1.49,4.891   c-0.323,0.57-0.689,1.037-1.153,1.467c-0.248,0.224-0.452,0.397-0.809,0.636c-0.042,0.026-0.188,0.125-0.323,0.197   c-0.134,0.077-0.277,0.148-0.427,0.219c-1.191,0.566-2.937,0.881-4.924,0.991c-1.994,0.121-4.209,0.062-6.609,0.09   c-2.403,0.051-5.032,0.104-8.007,0.963c-5.546,1.666-10.166,5.547-12.905,10.378c-1.815,3.166-2.805,6.576-3.257,9.961l8.041,1.949   c0.389-2.784,1.215-5.384,2.574-7.551c0.938-1.51,2.118-2.81,3.49-3.844c1.36-1.03,2.953-1.807,4.526-2.217   c1.414-0.369,3.382-0.435,5.507-0.384c2.141,0.043,4.468,0.195,7.015,0.137c2.533-0.074,5.384-0.311,8.387-1.539   c0.372-0.156,0.743-0.323,1.11-0.512c0.371-0.186,0.713-0.378,1.154-0.651c0.602-0.371,1.309-0.881,1.918-1.401   c1.252-1.057,2.359-2.355,3.208-3.729c1.724-2.775,2.409-5.639,2.942-7.922c0.264-1.148,0.493-2.181,0.741-2.98   c0.239-0.806,0.517-1.319,0.646-1.45c0.033-0.04,0.071-0.066,0.008-0.001l0.153-0.147c0.027-0.026-0.152,0.149-0.073,0.073   l0.007-0.005l0.014-0.01l0.027-0.021c0.035-0.029,0.068-0.06,0.105-0.081c0.14-0.1,0.275-0.176,0.448-0.25   c0.334-0.146,0.871-0.284,1.618-0.353c1.491-0.148,3.583-0.009,5.728,0.196l3.327,0.342l1.714,0.179l0.858,0.087l0.424,0.042   l0.539,0.042c2.861,0.22,5.9-0.035,8.809-0.937c1.153-0.349,2.268-0.798,3.337-1.327   C625.454,131.84,624.501,126.852,623.767,122.915z"
   fill="url(#SVGID_33_)" />
</g><g
     id="illustrations">
	<polygon
   id="polygon419"
   points="455.26,339.845 455.26,497.179 289.996,441.845 289.996,320.333  "
   fill="#A99BAB" />
	<g
   id="g543">
		<polygon
   id="polygon421"
   points="279.79,335.027 436.457,358.36 436.457,499.693 278.79,448.693   "
   fill="#92A6EB" />
		<polygon
   id="polygon423"
   points="400.564,404.602 400.564,353.015 288.391,336.606 288.391,404.602   "
   fill="#FFFFFF" />
		<path
   id="path425"
   d="M367.319,360.923c-4.681,0.964-10.604-1.222-14.732-1.583c-6.3-0.551-14.804-0.722-18.76,5.371    c-2.93,4.507-0.689,8.812,2.597,9.414c2.508,0.46,5.182-0.722,6.196-3.098c0.936-2.189-0.187-4.106-1.806-4.44    c-1.671-0.344-3.249,0.791-3.581,1.842c-0.31,0.981,0.271,1.5,0.896,1.446c0.998-0.086,1.429-0.964,1.824-0.551    c0.506,0.528-0.25,1.833-1.722,2.099c-1.109,0.202-2.503-0.06-2.822-2.064c-0.299-1.88,0.655-3.598,2.856-4.579    c2.044-0.91,4.476-0.481,5.99,1.652c1.515,2.135,1.05,5.835-0.963,7.677c-3.007,2.749-6.718,3.094-12.462,4.44    c-7.335,1.72-18.519,4.458-20.171,13.011c-0.975,5.053,1.45,8.167,3.798,9.948h86.153v-48.485l-35.752-5.325    c0.395,2.635,1.653,4.896,2.874,6.204C369.661,355.966,372,359.959,367.319,360.923z"
   fill="#F2D265" />
		<path
   id="path427"
   d="M371.949,362.196c-6.299,1.705-12.04-0.526-16.11-1.291c-5.043-0.946-8.83,0.637-9.5,2.633    c-1.136,3.377,3.536,4.205,3.253,8.726c-0.241,3.838-6.729,7.169-15.957,8.52c-10.342,1.515-14.259,5.374-14.405,9.983    c-0.138,4.405,3.046,6.54,6.918,6.902c3.708,0.345,8.502-0.488,8.769,3.837h14.194c-1.369-6.221,4.967-5.913,8.845-6.781    c4.614-1.032,13.081-2.995,15.491-10.583c2.22-6.998-3.563-7.998-3.098-13.718c0.413-5.078,10.017-7.046,19.277-9.019    c9.371-1.997,7.848-6.472,7.297-8.674c0,0-0.02-0.096-0.045-0.265l-25.412-3.785c0.404,2.149,1.691,4.073,2.65,5.306    C375.268,355.463,377.038,360.82,371.949,362.196z"
   fill="#EA9F2F" />
		<path
   id="path429"
   d="M334.254,455.257c11.054,1.346,20.92,3.227,24.94,4.734c9.914,3.717,18.176,8.469,34.905,2.893    c11.742-3.916,28.976-4.166,38.21-3.969v-63.644c-9.058,2.365-4.082,27.168-8.569,28.06c-3.663,0.727-4.486-11.846-10.579-9.195    c-6.861,2.985-0.369,17.731-5.327,20.244c-6.753,3.425-10.017-10.533-13.321-11.461c-3.305-0.93-4.853,6.195-8.675,5.576    c-3.821-0.62-0.067-7.75-5.369-8.06c-6.511-0.379-12.909,13.017-16.833,12.215c-3.511-0.717-0.516-10.454-4.132-11.282    c-3.612-0.826-8.884,11.422-12.175,11.183c-3.727-0.27-0.008-10.355-4.346-10.667c-4.338-0.308-9.133,12.955-16.317,12.704    c-7.185-0.252-10.636-13.115-13.941-13.115c-3.305,0-3.684,8.434-6.264,8.64c-2.583,0.206-3.375-10.602-6.541-11.015    c-0.725-0.095-1.59,0.564-2.397,1.451c-1.428,1.316-8.748,12.525-11.683,11.205c-2.806-1.263-0.79-14.052-6.761-15.817    l-0.288,32.757l23.821,7.705l5.048-6.685C315.864,451.859,327.487,452.466,334.254,455.257z"
   fill="#6A74EF" />
		<path
   id="path431"
   d="M379.23,374.829c-1.704,4.045,3.974,5.026,2.821,12.737c-1.023,6.854-12.735,5.921-16.521,8.194    c-2.256,1.353-2.534,3.905-2.387,5.747h37.467v-31.14C396.35,373.005,381.418,369.637,379.23,374.829z"
   fill="#BE4118" />
		<path
   id="path433"
   d="M389.625,361.405c-9.26,1.973-18.864,3.941-19.277,9.019c-0.465,5.72,5.318,6.721,3.098,13.718    c-2.41,7.588-10.877,9.552-15.491,10.583c-3.878,0.868-10.214,0.561-8.845,6.781h14.032c-0.146-1.842,0.131-4.394,2.387-5.747    c3.786-2.272,15.498-1.339,16.521-8.194c1.153-7.711-4.525-8.691-2.821-12.737c2.188-5.192,17.119-1.824,21.38-4.462v-17.345    l-3.733-0.556c0.025,0.169,0.045,0.265,0.045,0.265C397.473,354.933,398.996,359.408,389.625,361.405z"
   fill="#E1792B" />
		<path
   id="path435"
   d="M344.06,393.553c3.181,0.626,8.263-0.048,9.914-2.204c1.585-2.064,0.688-4.543,2.064-5.851    c1.378-1.308,6.926-5.105,7.987-7.229c0.963-1.927,0.207-4.405-1.995-5.163c-2.135-0.733-3.995,0.207-4.958,2.134    c-0.963,1.928-1.859,4.82-5.577,6.954c-3.103,1.781-10.092,3.692-11.083,6.884C339.62,391.626,341.788,393.106,344.06,393.553z"
   fill="#E1792B" />
		<circle
   id="circle437"
   r="4.887"
   cy="441.437"
   cx="420.502"
   fill="#EA971D" />
		<g
   id="g441">
			<path
   id="path439"
   d="M359.093,442.368c0,0-2.844-11.224-4.027-19.531c-1.034-7.231-2.272-16.958-2.272-16.958h-8.539v0.004     l-0.002-0.004h-8.535c0,0-1.241,9.727-2.272,16.958c-1.186,8.307-4.028,19.531-4.028,19.531h14.836l0.002-0.005v0.005H359.093z      M343.637,434.037c-2.168,0-3.925-1.757-3.925-3.924v-12.598c0-2.168,1.757-3.925,3.925-3.925h0.618     c2.167,0,3.925,1.757,3.925,3.925v12.598c0,2.167-1.758,3.924-3.925,3.924H343.637z"
   fill="#93778B" />
		</g>
		<path
   id="path443"
   d="M284.604,400.991v3.895c0,2.032,1.646,3.678,3.678,3.678h109.927c2.032,0,3.678-1.646,3.678-3.678v-3.895    H284.604z"
   fill="#93778B" />
		<path
   id="path445"
   d="M343.489,466.319c7.149,2.15,14.082,4.477,19.631,6.547c14.399,5.367,59.187-4.617,69.189-6.961V453.63    c-10.186,2.275-22.668,2.303-55.008-8.852c-26.243-9.053-67.17-2.98-88.746,7.075l43.462,14.059    C337.928,465.066,342.918,464.695,343.489,466.319z"
   fill="#EA971D" />
		<path
   id="path447"
   d="M420.536,449.458c-15.351,0.206-28.844,9.982-33.795,10.138c-7.173,0.227-17.977-5.113-30.126-5.801    c-8.37-0.474-26.909,1.944-39.503,7.293l74.344,24.048c1.391,0.15,2.616,0.539,3.629,1.174l37.226,12.041v-47.689    C429.021,449.913,425.082,449.397,420.536,449.458z"
   fill="#F2D265" />
		<polygon
   id="polygon449"
   points="288.997,401.541 288.997,336.845 284.604,336.415 284.604,401.541   "
   fill="#93778B" />
		<polygon
   id="polygon451"
   points="401.888,401.541 401.888,353.212 398.996,352.781 398.996,401.541   "
   fill="#93778B" />
		<g
   id="g455">
			<path
   id="path453"
   d="M421.463,379.909c0.759,0.731,1.5,1.479,2.227,2.238c0.731,0.756,1.438,1.536,2.17,2.29     c0.731,0.755,1.477,1.501,2.13,2.324c0.168,0.204,0.326,0.413,0.484,0.624c0.155,0.216,0.316,0.422,0.451,0.655     c0.134,0.23,0.248,0.48,0.337,0.753c0.088,0.273,0.154,0.564,0.159,0.91c-0.342-0.049-0.624-0.151-0.884-0.271     c-0.259-0.123-0.492-0.267-0.706-0.43c-0.213-0.162-0.398-0.349-0.592-0.528c-0.19-0.184-0.376-0.368-0.56-0.558     c-0.733-0.754-1.38-1.585-2.036-2.407c-0.658-0.822-1.342-1.619-2-2.439c-0.663-0.817-1.312-1.645-1.942-2.491     c-0.167-0.224-0.122-0.543,0.105-0.71C421.009,379.717,421.286,379.739,421.463,379.909z"
   fill="#EA971D" />
		</g>
		<path
   id="path457"
   d="M407.176,452.837c0.704,1.469,4.449,10.639,4.238,11.338c-0.213,0.697-9.559,3.91-11.496,3.201    c-0.252-0.094-0.207-0.689,0.192-0.906c1.014-0.555,6.004-3.605,6.446-4.535c0.404-0.855-3.529-6.939-3.46-6.977    C403.312,454.843,407.176,452.837,407.176,452.837z"
   fill="#EAAEA4" />
		<path
   id="path459"
   d="M411.01,462.528c-0.374-1.131-0.961-2.691-1.571-4.24c-1.316,1.152-2.777,1.387-3.64,1.42    c0.532,1.049,0.892,1.938,0.757,2.227c-0.179,0.373-1.089,1.088-2.179,1.846c1.473,0.117,4.277,0.342,4.334,0.342    C408.754,464.122,409.944,463.284,411.01,462.528z"
   fill="#FFFFFF" />
		<path
   id="path461"
   d="M399.918,467.376c1.938,0.709,11.283-2.504,11.496-3.201c0.06-0.199-0.2-1.082-0.62-2.277    c-0.667,0.375-1.36,1.225-1.848,1.449c-0.672,0.313-1.275,0.277-2.385,0.07c-0.551-0.104-0.959-0.203-1.328-0.252    c-1.676,1.258-4.403,2.912-5.123,3.305C399.711,466.687,399.666,467.282,399.918,467.376z"
   fill="#5B252C" />
		<path
   id="path463"
   d="M388.387,421.439c0.069,1.651,2.408,15.834,3.371,21.341c0.965,5.507,2.91,14.835,3.426,14.992    c0.516,0.154,3.305,0.309,8.313-0.723c5.008-1.033,8.675-3.047,8.726-3.254c0.053-0.207-5.247-12.22-7.896-19.143    c-2.648-6.922-4.289-12.974-4.289-12.974L388.387,421.439z"
   fill="#D36A1A" />
		<path
   id="path465"
   d="M380.934,457.978c-0.156,1.705-1.963,11.979-2.529,12.496c-0.569,0.516-12.705-0.104-12.705-0.93    s0.828-0.826,2.016-1.084c1.188-0.258,6.795-1.783,7.451-2.529c0.658-0.748,0.786-8.236,0.708-8.258    C375.797,457.653,380.934,457.978,380.934,457.978z"
   fill="#EAAEA4" />
		<path
   id="path467"
   d="M375.703,462.95L375.703,462.95c-0.114,1.447-0.287,2.697-0.536,2.98c-0.296,0.336-1.601,0.83-3.05,1.297    l0.608,0.818l2.685,1.396l3.486-0.408c0.333-1.313,0.741-3.338,1.105-5.309C377.091,463.792,376.373,463.28,375.703,462.95z"
   fill="#FFFFFF" />
		<path
   id="path469"
   d="M365.7,469.544c0,0.826,12.136,1.445,12.705,0.93c0.163-0.148,0.427-1.1,0.725-2.42    c-0.961,0.072-1.862,0.75-3.103,0.75c-1.246,0-2.328-1.119-3.119-1.84c-1.917,0.66-4.439,1.332-5.192,1.496    C366.528,468.718,365.7,468.718,365.7,469.544z"
   fill="#5B252C" />
		<path
   id="path471"
   d="M376.648,422.608c-0.825,1.586-6.765,17.453-8.26,22.72c-1.5,5.268-2.688,10.171-2.378,10.583    c0.312,0.414,3.204,1.912,7.902,2.635c4.699,0.723,10.65,1.33,11.366,1.025c0.715-0.303,1.663-13.28,3.039-21.196    c1.378-7.919,3.651-15.697,3.651-15.697L376.648,422.608z"
   fill="#BE4118" />
		<path
   id="path473"
   d="M398.611,378.445c-0.172,0.997-0.862,4.232-1.963,5.645c-1.103,1.412,6.678,0.516,6.678,0.516    s-0.165-4.021,0.034-6.747c0.002-0.832-0.86-1.308-2.117-1.144C399.86,376.896,398.611,378.445,398.611,378.445z"
   fill="#EAAEA4" />
		<path
   id="path475"
   d="M398.411,368.031c-0.633,0.503-1.252,1.537-1.833,2.608c-0.433,0.798-0.633,1.097-1.625,1.781    c-0.78,0.536-1.282,0.718-1.316,1.11c-0.035,0.388,0.929,0.827,0.954,1.162c0.025,0.336-0.725,3.444,0.594,4.673    c0.895,0.835,3.977,0.921,6.703-1.179c2.444-1.882,4.27-6.515,3.392-8.864C404.401,366.973,398.411,368.031,398.411,368.031z"
   fill="#FCC3BB" />
		<path
   id="path477"
   d="M400.296,361.396c0.756,0.25,1.016,1.455,0.851,2.014c-0.167,0.575-0.537,1.438,1.293,1.833    c1.628,0.352,7.022,1.523,7.46,6.532c0.514,5.861-6.403,8.339-7.565,6.815c-1.718-2.252-1.725-5.103-1.083-6.144    c0.44-0.713,2.006-0.835,1.857-1.807c-0.215-1.402-3.201-1.194-5.162-2.146c-1.963-0.952-2.607-2.837-2.325-4.541    C395.953,361.972,398.228,360.715,400.296,361.396z"
   fill="#5B252C" />
		<path
   id="path479"
   d="M413.863,371.197c0.396,1.664-0.305,3.425-1.587,3.701c-1.36,0.294-2.58-0.793-3.034-2.598    c-0.417-1.659,0.032-3.462,1.518-3.838C412.189,368.101,413.466,369.534,413.863,371.197z"
   fill="#5B252C" />
		<path
   id="path481"
   d="M418.61,367.48c0.793,1.854,0.177,3.714-1.424,4.412c-2.037,0.889-3.772-0.234-4.566-2.088    c-0.796-1.854-0.108-4.269,1.498-4.957C415.723,364.16,417.814,365.626,418.61,367.48z"
   fill="#5B252C" />
		<path
   id="path483"
   d="M421.105,363.487c0.97,1.205,0.697,3.006-0.413,3.9c-1.112,0.894-2.798,0.641-3.768-0.565    c-0.97-1.206-1.021-2.76,0.09-3.655C418.124,362.275,420.135,362.282,421.105,363.487z"
   fill="#5B252C" />
		<path
   id="path485"
   d="M406.011,368.581c-0.032,0.933-0.259,1.843-0.642,2.684c-0.38,0.842-0.913,1.617-1.536,2.312    c-0.312,0.348-0.647,0.676-1,0.981c-0.177,0.152-0.358,0.299-0.539,0.438c-0.094,0.07-0.186,0.138-0.277,0.203    c-0.092,0.062-0.193,0.131-0.264,0.173l1.117,1.634c0.133-0.1,0.234-0.183,0.342-0.276c0.105-0.089,0.208-0.181,0.312-0.273    c0.199-0.185,0.394-0.375,0.583-0.57c0.374-0.392,0.725-0.805,1.048-1.24c0.645-0.869,1.181-1.829,1.539-2.862    c0.358-1.032,0.525-2.136,0.461-3.22c-0.03-0.554-0.119-1.099-0.257-1.628c-0.383-0.248-0.777-0.461-1.167-0.646    C405.935,367.046,406.039,367.819,406.011,368.581z"
   fill="#EA971D" />
		<circle
   id="circle487"
   r="2.686"
   cy="376.189"
   cx="402.31"
   fill="#BE4118" />
		<path
   id="path489"
   d="M415.581,397.961c0.748-0.628,1.573-3.88,2.099-7.503c0.339-2.337,0.568-3.919,1.034-4.786    c0.454-0.846,1.669-1.589,2.16-1.944c0.658-0.478,1.651-1.575,1.986-1.368c0.337,0.206-0.05,1.265-0.438,1.756    c-0.388,0.49-0.929,1.213-0.929,1.213s1.833-0.233,2.892-0.233c1.057,0,3.875-0.33,4.026,0.388    c0.112,0.534-1.137,0.722-1.601,0.903c-0.466,0.181-0.878,0.25-0.956,1.127c-0.076,0.878-0.369,1.909-1.016,1.984    c-0.645,0.078-3.759-0.117-3.759-0.117s0.007,6.377-0.647,10.198c-0.653,3.82-1.481,4.99-1.481,4.99L415.581,397.961z"
   fill="#EAAEA4" />
		<path
   id="path491"
   d="M414.187,398.057c0.165-0.219,1.316-0.671,1.573-0.491c0.259,0.181,3.263,3.271,3.873,6.815    c0.661,3.831,0.027,5.645-0.491,5.757c-0.624,0.135-5.827-0.207-7.818-3.021C409.332,404.305,414.187,398.057,414.187,398.057z"
   fill="#2421A2" />
		<path
   id="path493"
   d="M407.112,389.563c1.137,0.669,5.458,4.545,7.022,7.796c1.679,3.484,1.614,8.457-0.516,9.759    c-2.323,1.419-4.543-2.013-5.68-4.336c-1.135-2.324-2.752-4.889-3.374-5.974c-0.619-1.083,1.307-6.264,1.307-6.264    L407.112,389.563z"
   fill="#3F40BB" />
		<path
   id="path495"
   d="M393.515,384.743c1.86-1.169,11.691-1.762,12.083-0.413c0.31,1.068-1.688,1.479-2.101,3.408    C403.085,389.666,393.515,384.743,393.515,384.743z"
   fill="#3A39B6" />
		<path
   id="path497"
   d="M388.938,385.879c1.239-0.965,3.871-1.841,5.99-1.171c2.114,0.672,4.405,2.118,5.683,2.273    s3.048,0.238,3.048,0.238s3.247,1.62,3.454,2.344c0.206,0.722-0.521,4.709-2.789,9.036c-2.436,4.646-2.172,6.688-1.963,9.757    c0.202,2.915,2.841,11.67,2.479,13.012c-0.36,1.343-5.265,3.201-16.057,3.357c-10.792,0.155-18.795-1.033-18.795-2.066    c0-1.032,3.467-11.715,4.096-12.331c0.5-0.492,0.812-0.061,1.016-0.344c0.208-0.284,2.841-6.068,4.958-9.682    S387.456,387.032,388.938,385.879z"
   fill="#2421A2" />
		<path
   id="path499"
   d="M384.677,415.25c1.61-0.576,2.023-3.381,1.612-3.35c-2.188,0.158-9.485-0.806-11.283-1.837    c-0.204,0.103-0.493-0.158-0.924,0.266c-0.3,0.294-1.248,2.89-2.158,5.631C374.743,416.021,382.918,415.881,384.677,415.25z"
   fill="#3F40BB" />
		<path
   id="path501"
   d="M407.112,389.563c-0.172-0.606-2.481-1.843-3.222-2.227c0.264,0.401,0.674,1.089-0.358,1.538    c-1.032,0.447-5.299,1.067-5.059,2.753c0.241,1.688,2.96,0.034,3.612,0.931c0.656,0.894-2.477,3.201-1.238,4.096    c1.238,0.894,2.135-2.066,3.201-1.929c0.812,0.105,1.025,1.204,1.096,2.179C406.768,393.274,407.291,390.189,407.112,389.563z"
   fill="#EA971D" />
		<path
   id="path503"
   d="M402.19,419.993c-1.516-0.31-2.617,0.86-3.201,0.516c-0.585-0.344,2.201-2.719,0.894-3.614    c-1.307-0.895-2.96,2.375-3.305,2.341c-0.344-0.034,1.411-4.302,1.654-5.749c0.241-1.446,0.516-4.682-0.897-4.923    c-1.41-0.242-2.754,2.375-3.373,3.58c-0.62,1.205-1.273,5.163-1.617,5.301c-0.344,0.138-0.482-5.335-0.553-6.127    c-0.067-0.792-0.207-1.702-1.167-1.72c-0.846-0.018-1.241,0.998-1.344,1.961c-0.103,0.965,0.757,8.263-0.14,8.4    c-0.894,0.138-1.823-3.029-2.58-2.582c-0.759,0.447-0.275,2.204,0.138,3.511c0.316,1.004,1.261,2.729,1.761,3.841    c0.107-0.001,0.213-0.001,0.321-0.002c9.038-0.131,13.945-1.455,15.514-2.672C403.869,421.263,403.128,420.185,402.19,419.993z"
   fill="#F2D265" />
		<path
   id="path505"
   d="M370.648,386.205c-1.33-0.538-12.21-6.89-12.289-8.053c-0.082-1.198-0.262-2.196-0.32-2.86    c-0.106-1.21,0.391-3.14,0.167-3.318c-0.329-0.262-0.836,0.222-1.264,0.911c-0.338,0.543-1.254,2.718-1.254,2.718    s-0.969,0.085-2.591-0.533c-1.622-0.617-3.304-1.833-3.924-1.479c-0.538,0.307,0.252,1.008,0.638,1.329    c0.385,0.321,0.776,0.9,0.894,1.087c0.307,0.483,0.778,2.05,0.655,2.715c-0.068,0.376-0.392,0.512-0.291,0.967    c0.106,0.479,2.164,1.591,3.266,1.603c0.857,0.009,0.952-0.241,1.182-0.091c0.397,0.26,9.116,8.995,11.997,10.065    C370.392,392.341,370.648,386.205,370.648,386.205z"
   fill="#FCC3BB" />
		<path
   id="path507"
   d="M392.93,384.83c1.298,1.763,0.089,6.178-4.813,8.519c-5.418,2.588-15.639,3.32-18.995,1.937    c-3.356-1.381-0.714-4.196,0.123-5.933c0.834-1.736,1.614-4.713,3.792-4.464c2.176,0.25,4.286,1.91,5.271,1.848    c0.981-0.061,10.75-2.711,12.201-2.89C391.753,383.694,392.584,384.363,392.93,384.83z"
   fill="#5C60D5" />
		<path
   id="path509"
   d="M373.528,384.97c-1,0.905-2.56,5.849-2.589,8.51c-0.031,2.664,0.37,3.861-0.178,3.885    c-1.132,0.051-7.856-1.86-8.309-3.833c-0.351-1.538,2.12-3.438,3.611-5.573c0.962-1.377,1.823-3.248,2.998-3.551    C370.763,383.969,373.528,384.97,373.528,384.97z"
   fill="#3A39B6" />
		<path
   id="path511"
   d="M376.778,391.064c0.975,0.562,1.419-1.951,2.168-2.118c1.134-0.251,1.724,2.079,3.192,2.785    c0.465,0.224,1.365,0.341,1.97-0.203c0.466-0.419,0.696-1.127,0.344-1.814c-0.334-0.646-1.11-1.084-0.939-1.587    c0.21-0.624,1.169,0.153,2.449-0.635c0.96-0.591,1.061-2.041,0.311-2.669c-3.236,0.81-7.188,1.833-7.924,1.91    C377.414,387.763,375.63,390.403,376.778,391.064z"
   fill="#F2D265" />
		<g
   id="g534">
			<linearGradient
   y2="366.7584"
   x2="353.6806"
   y1="369.6138"
   x1="345.8354"
   gradientUnits="userSpaceOnUse"
   id="SVGID_34_">
				<stop
   id="stop513"
   style="stop-color:#DC6734"
   offset="0" />
				<stop
   id="stop515"
   style="stop-color:#AE2E41"
   offset="1" />
			</linearGradient>
			<polygon
   id="polygon518"
   points="345.809,369.542 353.212,374.798 353.212,365.473 345.809,361.755    "
   fill="url(#SVGID_34_)" />
			<linearGradient
   y2="368.4048"
   x2="360.2944"
   y1="368.4048"
   x1="353.2124"
   gradientUnits="userSpaceOnUse"
   id="SVGID_35_">
				<stop
   id="stop520"
   style="stop-color:#2421A2"
   offset="0" />
				<stop
   id="stop522"
   style="stop-color:#5C60D5"
   offset="1" />
			</linearGradient>
			<polygon
   id="polygon525"
   points="360.294,369.991 353.212,374.798 353.212,365.473 360.294,362.011    "
   fill="url(#SVGID_35_)" />
			<linearGradient
   y2="359.2554"
   x2="353.0518"
   y1="365.4727"
   x1="353.0518"
   gradientUnits="userSpaceOnUse"
   id="SVGID_36_">
				<stop
   id="stop527"
   style="stop-color:#DC6734"
   offset="0" />
				<stop
   id="stop529"
   style="stop-color:#EA971D"
   offset="1" />
			</linearGradient>
			<polygon
   id="polygon532"
   points="353.212,365.473 360.294,362.011 353.126,359.255 345.809,361.755    "
   fill="url(#SVGID_36_)" />
		</g>
		<linearGradient
   y2="498.0839"
   x2="453.5112"
   y1="322.2505"
   x1="277.6777"
   gradientUnits="userSpaceOnUse"
   id="SVGID_37_">
			<stop
   id="stop536"
   style="stop-color:#E3DDE4"
   offset="0" />
			<stop
   id="stop538"
   style="stop-color:#FFFFFF"
   offset="1" />
		</linearGradient>
		<path
   id="path541"
   d="M284.594,341.143l146.333,20.618v130.39l-146.333-47.538V341.143 M272.594,327.333v126    l170.333,55.334V351.333L272.594,327.333L272.594,327.333z"
   fill="url(#SVGID_37_)" />
	</g>
</g><g
     id="right_hand">
	
		<radialGradient
   gradientUnits="userSpaceOnUse"
   gradientTransform="matrix(-0.0519 -0.9987 0.5267 -0.0274 109.6908 706.1359)"
   r="117.6548"
   cy="394.1318"
   cx="301.6191"
   id="SVGID_38_">
		<stop
   id="stop546"
   style="stop-color:#E08D7D"
   offset="0" />
		<stop
   id="stop548"
   style="stop-color:#E49587"
   offset="0.0349" />
		<stop
   id="stop550"
   style="stop-color:#EFAA9E"
   offset="0.1371" />
		<stop
   id="stop552"
   style="stop-color:#F6B8AE"
   offset="0.2469" />
		<stop
   id="stop554"
   style="stop-color:#FBC0B8"
   offset="0.3689" />
		<stop
   id="stop556"
   style="stop-color:#FCC3BB"
   offset="0.5273" />
		<stop
   id="stop558"
   style="stop-color:#EAAEA4"
   offset="1" />
	</radialGradient>
	<path
   id="path561"
   d="M336.552,463.75c7.25,11.125,11.5,23.375,15.25,27s5.625,2.25,5.625,2.25s3.987,3.002,7.188,2.438   c2.125-0.375-0.375-2.938,1.375-1.688s5.009,1.313,6.398,0.83c2.037-0.709,0.708-2.518,0.708-2.518s3.207,0.688,5.457,0   c2.879-0.88,2.625-3.313,2.625-3.313s-5.313-0.75-10.875-3.875c-4.283-2.406-7.925-8.93-6.792-9.708   c0.667-0.458,5.181,2.165,7.083,3.834c3.063,2.688,8.521,4.25,9.083,2.625c0.718-2.074-7.439-10.896-11.875-15.001   c-3.892-3.603-8.375-2.5-13.625-10.375c-4-6-25.75-55.5-25.75-64c0-5.218,11.497-23.342,23.612-39.686   c-13.154-14.384-24.118-17.425-32.012-17.809c-11.5,21.438-19.957,45.657-20.601,57.494   C298.177,415.25,329.302,452.625,336.552,463.75z"
   fill="url(#SVGID_38_)" />
	<path
   id="path563"
   d="M361.549,481.829c0.388,1.076,1.272,2.214,2.117,3.219c0.875,1.018,1.847,1.964,2.886,2.825   c2.08,1.718,4.459,3.11,7.053,3.885c0.208,0.063,0.327,0.281,0.266,0.489c-0.061,0.203-0.271,0.32-0.474,0.271   c-2.749-0.694-5.301-2.044-7.555-3.748c-1.127-0.855-2.187-1.801-3.16-2.839c-0.486-0.52-0.951-1.063-1.387-1.639   c-0.427-0.585-0.857-1.176-1.157-1.953c-0.149-0.386,0.043-0.82,0.429-0.97c0.387-0.149,0.821,0.043,0.97,0.43   c0.001,0.004,0.003,0.008,0.004,0.013L361.549,481.829z"
   fill="#9B6D6D" />
	<path
   id="path565"
   d="M358.088,484.887c0.839,1.858,2.02,3.587,3.43,5.099c1.414,1.509,3.09,2.787,4.965,3.702   c0.16,0.077,0.227,0.27,0.149,0.429c-0.074,0.153-0.255,0.22-0.41,0.157c-2.011-0.817-3.863-2.038-5.46-3.529   c-1.595-1.494-2.97-3.235-4.018-5.189l-0.002-0.005c-0.196-0.365-0.059-0.82,0.307-1.016c0.365-0.196,0.82-0.059,1.016,0.307   C358.074,484.855,358.082,484.872,358.088,484.887z"
   fill="#9B6D6D" />
	<path
   id="path567"
   d="M354.886,487.773c0.214,0.54,0.42,1.012,0.669,1.521c0.244,0.497,0.507,0.985,0.792,1.46   c0.573,0.941,1.224,1.857,2.054,2.548l0.009,0.008c0.125,0.104,0.142,0.289,0.038,0.414c-0.096,0.114-0.26,0.138-0.383,0.061   c-1.024-0.645-1.835-1.522-2.574-2.433c-0.367-0.458-0.712-0.934-1.038-1.422c-0.32-0.477-0.644-1.014-0.917-1.503l-0.006-0.012   c-0.203-0.362-0.073-0.82,0.29-1.023c0.363-0.202,0.821-0.072,1.023,0.291C354.859,487.711,354.874,487.744,354.886,487.773z"
   fill="#9B6D6D" />
	<linearGradient
   y2="323.3462"
   x2="374.4927"
   y1="323.3462"
   x1="320.0273"
   gradientUnits="userSpaceOnUse"
   id="SVGID_39_">
		<stop
   id="stop569"
   style="stop-color:#5C60D5"
   offset="0" />
		<stop
   id="stop571"
   style="stop-color:#2421A2"
   offset="1" />
	</linearGradient>
	<path
   id="path574"
   d="M352.039,352.564c7.619-10.277,15.482-19.853,20.888-25.064c6.5-21.75-8.871-34.784-16.25-33.25   c-12.255,2.548-25.805,20.29-36.649,40.506C327.921,335.139,338.885,338.18,352.039,352.564z"
   fill="url(#SVGID_39_)" />
</g></g>
</svg>