<?xml version="1.0" encoding="utf-8"?>
<!-- Generator: Adobe Illustrator 23.0.0, SVG Export Plug-In . SVG Version: 6.00 Build 0)  -->
<svg version="1.1" xmlns="http://www.w3.org/2000/svg" xmlns:xlink="http://www.w3.org/1999/xlink" x="0px" y="0px"
	 viewBox="0 0 1920 1080" style="enable-background:new 0 0 1920 1080;" xml:space="preserve">
<style type="text/css">
	.st0{opacity:0.1;fill:#2A94F4;}
	.st1{fill:#C14242;}
	.st2{fill:#CCE9FF;}
	.st3{fill:#FCD2B1;}
	.st4{fill:#0B4870;}
	.st5{fill:#FFBE55;}
	.st6{fill:#AF7054;}
	.st7{fill:#B97A59;}
	.st8{fill:#0E538C;}
</style>
<g id="Background">
	<ellipse class="st0" cx="1070.6" cy="1012.2" rx="398.6" ry="63"/>
	<path class="st0" d="M1029.8,329.6l101.8,100.3c23.3,22.9,24.2,60.2,2,84.3l-32.4,35c-22.4,24.2-60,26.1-84.6,4.2L732.9,302
		c-45.5-40.3-115.4-35.2-154.5,11.4l0,0c-37.1,44.2-33,109.6,9.3,148.9l252.1,233.7c24.6,22.8,26,61.2,3.1,85.7l0,0
		c-21.9,23.5-58.2,25.8-82.9,5.4L488.8,562.5c-28.7-23.7-70.9-20.6-95.8,7.1l0,0c-24.7,27.4-23.6,69.4,2.5,95.5L622.6,892
		c211.5,211.3,554.6,209.8,764.2-3.3l0,0c216-219.6,203.9-575.3-26.4-779.8l-67.9-60.3c-67.7-60.1-168-64.9-241.1-11.6l0,0
		C955.5,106.9,945.2,246.2,1029.8,329.6z"/>
</g>
<g id="Magnet">
	<g>
		<path class="st1" d="M883.9,354.1l141.5,141.5c24.9,24.9,24.9,65.2,0,90.1v0c-24.9,24.9-65.2,24.9-90.1,0L793.8,444.2L717,520.9
			l143.2,143.2c67.3,67.3,176.4,67.3,243.6,0l0,0c67.3-67.3,67.3-176.4,0-243.6L960.6,277.3L883.9,354.1z"/>
		
			<rect x="842.1" y="252.2" transform="matrix(0.7071 -0.7071 0.7071 0.7071 57.5156 718.788)" class="st2" width="108.6" height="75.5"/>
		
			<rect x="675.3" y="419.1" transform="matrix(0.7071 -0.7071 0.7071 0.7071 -109.3549 649.668)" class="st2" width="108.6" height="75.5"/>
	</g>
</g>
<g id="Character">
	<path class="st3" d="M1190.4,516.4l8,14.7c15.7,38.6,8.2,83.3-20.4,113.6c-0.8,0.9-1.7,1.8-2.6,2.7l-8.2,0L1190.4,516.4z"/>
	<path class="st4" d="M1190.4,731.9l-13,86.4l101.2,162.8l-21.4,13.7l-116.1-145.3l-36-139.5l30.7-46.9l47.3-31l2,11.4
		C1190,672.7,1191.9,702.3,1190.4,731.9z"/>
	<path class="st4" d="M1087.1,639.1L984.4,786.5l-15.6,211h29.5l38.2-200.8l82.4-63.1c30.2-19,49.9-50.9,53.4-86.4v0L1087.1,639.1z"
		/>
	<path class="st5" d="M1132.7,446.9c0,0-27.3,64.7-21.2,83.8c6.1,19.1-26.9,105.2-28.3,113.7s102.6,32.7,104,25.4
		c1.4-7.3,38.2-171.9-14-217.6C1156.6,437.7,1139.9,437.3,1132.7,446.9z"/>
	<path class="st6" d="M1137.5,425.4l-1.6,20.6c-0.5,6.2,4.8,11.3,11,10.6l5.1-0.6c5.8-1.2,9.8-6.5,9.3-12.4l-2.9-35.7L1137.5,425.4z
		"/>
	<path class="st7" d="M1134.5,346.9c0,0-35,46.1-18.7,72.3c16.3,26.3,55.1-11.1,60.2-17.7C1181.1,394.9,1172,322.6,1134.5,346.9z"/>
	<path class="st7" d="M1128.9,489.6c0,0-90.6,10.5-97.9,8.4c-4.2-1.2-34.9-30.7-56.9-53.6c-16-16.7-31.4-31.4-31.4-31.4l3.5,28
		l16.8,12.7l39.6,60.8c6.2,8.4,16,13.4,26.5,13.4l102-10.2L1128.9,489.6z"/>
	<path class="st7" d="M952.3,433c0,0,3.9-11.7,1.7-15.9c-1.8-3.3-3.4-7.1-3.5-9.7c0-0.8,0.8-1.3,1.6-0.9c2,1.2,5.7,3.6,6.7,6.5
		c1.4,4.1,7.3,9.5,8.7,12.9s1.8,15.6,1.8,15.6L952.3,433z"/>
	<path class="st5" d="M1097.2,493l10.4,40.9c0,0,89.6-22.5,78.2-57.8C1174.6,441.5,1097.2,493,1097.2,493z"/>
	<path class="st8" d="M1257.2,994.7c0,0-0.6,7.9-15.7,14.3c-18.8,8-22.3,15.2-17.9,17.9h15.9c6.5-0.3,27.7-5.9,32.4-10.4
		c1.7-1.7,3.6-3.5,5.3-5.6c2.1-2.4,13.3-1.4,12.9-7.5c-1.1-14.4-15.1-20.1-15.1-20.1L1257.2,994.7z"/>
	<path class="st8" d="M972.3,997.5c0,0-0.2,11.2-21.9,9c-23.8-2.4-35.2,20.4-27.7,19.9c0,0,36.8-0.8,44.1-1.1
		c7-0.3,22.5,1.5,22.5,1.5c6.2,0,4.7-6.1,4.8-8.6l1.9-20.7H972.3z"/>
	<path class="st4" d="M1168.5,408c0,0,6.4-5.4,5.6-14.6c-0.8-9.2-6.1-3.9-9.8-1.4c-3.6,2.5,2-7.8,3.6-11.2
		c0.7-1.3-3.8-8.4-10.5-14.5c-2.5-2.2-6.2-2.7-9.1-1c-13.8,8.2-18.2,2.9-21.3,0.9c-3.1-2-4.5-5.9-3-9.4
		c6.1-14.7,19.6-32.1,46.9-12.7c0.3,0.2,0.5,0.4,0.8,0.5c3.8,2,32.9,17.9,25,38.1c-8.2,21.2-23,39.7-37.7,34.2"/>
</g>
</svg>
