<?xml version="1.0" encoding="utf-8"?>
<!-- Generator: Adobe Illustrator 23.0.0, SVG Export Plug-In . SVG Version: 6.00 Build 0)  -->
<svg version="1.1" id="Layer_1" xmlns="http://www.w3.org/2000/svg" xmlns:xlink="http://www.w3.org/1999/xlink" x="0px" y="0px"
	 viewBox="0 0 1080 1080" enable-background="new 0 0 1080 1080" xml:space="preserve">
<path opacity="0.09" fill="#2A94F4" d="M285,679.5C285,535.078,402.078,418,546.5,418S808,535.078,808,679.5"/>
<path fill="#D3D3D3" d="M815,715H256c-9.941,0-18-8.059-18-18l0,0c0-9.941,8.059-18,18-18h559c9.941,0,18,8.059,18,18l0,0
	C833,706.941,824.941,715,815,715z"/>
<g>
	<g>
		<g>
			<path fill="#FA968C" d="M697.028,650.502c0,0,3.364,8.375,4.037,9.756c0.555,1.14,1.652,1.865,2.693,2.588
				c0.333,0.232,0.682,0.777,0.978,1.237c0.238,0.369,0.249,0.82,0.098,1.232c-2.642,7.202-10.709,10.098-10.898,9.557
				c-0.341-0.975,0.856-2.938,2.547-3.92c1.702-0.988,2.684-2.873,2.759-4.84l0,0c0.059-1.565-0.286-3.119-1.002-4.511l-3.288-6.237
				L697.028,650.502z"/>
			<path fill="#FA968C" d="M685.426,660.987l-2.013,8.946c-0.616,2.735-0.228,5.605,1.088,8.081c0,0.001,0.001,0.001,0.001,0.001
				c0.739,1.384,0.082,3.098-1.396,3.626c-4.776,1.704-14.038,4.945-14.451,4.594c-2.105-1.784,3.46-4.724,7.573-7.816
				c2.774-2.085,3.834-11.8,4.081-19.251l4.411,1.111C685.061,660.375,685.329,660.643,685.426,660.987z"/>
			<path fill="#0B4870" d="M677.164,680.963c-1.978,0.651-4.146,0.862-6.132,1.106c-0.228,0.028-0.446,0.117-0.627,0.257
				c-1.906,1.477-2.867,2.962-1.751,3.908c0.448,0.38,11.33-3.473,15.573-4.996c0.888-0.319,1.276-1.347,0.832-2.179l-0.809-1.515
				C682.031,678.958,679.67,680.139,677.164,680.963z"/>
			<path fill="#0B4870" d="M681.671,561.402c5.26,0.718,9.742,6.782,8.817,13.553c-0.531,3.891-4.152,17.818-8.134,28.828
				c-1.528,4.225-0.904,9.016,1.959,12.479c0.466,0.564,0.871,1.148,1.193,1.741c1.66,3.057,8.05,21.117,11.802,33.169
				c-0.299,1.578-1.24,3.577-2.421,4.273c-6.6-10.233-17.332-28.914-19.098-32.166c-0.981-1.806-2.052-3.894-2.834-5.856
				c-4.273-5.656-3.446-37.253-2.589-43.535C671.291,567.117,676.41,560.684,681.671,561.402z"/>
			<path fill="#0B4870" d="M680.238,509.656c0,0-4.557,2.867-4.003,6.731c0,0-2.434-1.723-2.984-7.66
				C672.87,504.614,680.238,509.656,680.238,509.656z"/>
			<g>
				<path fill="#FAB9AF" d="M678.849,533.197c-0.061,0.735-0.129,1.465-0.236,2.193c-0.194,0.749-0.356,1.496-0.642,2.221
					c-0.597,1.447-1.432,2.853-2.525,3.916c-2.165,2.197-4.757,3.288-7.136,3.881c-2.412,0.576-4.736,0.671-6.983,0.56
					c-2.247-0.122-4.427-0.47-6.54-1.026c-2.114-0.544-4.16-1.298-6.127-2.238c-1.965-0.941-3.855-2.086-5.56-3.537
					c-1.693-1.445-3.257-3.209-4.21-5.395c-0.968-2.168-1.128-4.75-0.41-6.914c0.227-0.684,0.966-1.055,1.65-0.827
					c0.603,0.2,0.963,0.799,0.883,1.407l-0.002,0.011c-0.452,3.468,1.857,6.205,4.836,7.979c3.018,1.765,6.591,2.835,10.158,3.226
					c3.538,0.382,7.227,0.216,10.076-0.868c1.413-0.514,2.498-1.283,3.019-2.031c0.527-0.74,0.73-1.42,0.66-2.557l-0.006-0.096
					c-0.154-2.513,1.759-4.676,4.272-4.83s4.676,1.759,4.83,4.272C678.868,532.755,678.864,532.991,678.849,533.197z"/>
			</g>
			<path fill="#2A94F4" d="M675.138,553.215c-1.823-5.494-5.491-17.128-5.177-20.931c0.201-2.436,2.236-4.302,4.681-4.302h15.859
				c2.63,0,4.781,2.085,4.857,4.713c0.134,4.593-1.983,15.048-3.173,20.519H675.138z"/>
			<path fill="#0B4870" d="M680.403,661.099c-0.249-0.152-0.388-0.435-0.38-0.727c0.336-11.664,1.044-26.533,1.301-29.383
				c0.029-0.326,0.068-0.647,0.116-0.963c-2.499-13.789-2.877-43.433-3.125-48.624c-0.326-6.826,3.785-14.528,9.088-14.781
				c5.303-0.254,11.059,5.235,12.762,11.49c1.124,4.127-3.221,26.09-7.929,42.007c-0.991,3.351-1.147,6.875-0.648,10.333
				c0.345,2.392,0.448,4.856,0.278,6.74c-0.253,2.804-3.394,14.223-6.339,24c-0.085,0.283-0.311,0.507-0.6,0.57
				C683.402,662.096,681.812,661.957,680.403,661.099z"/>
			<path fill="#2A94F4" d="M694,560.18c-0.821-2.303-1.067-4.768-0.722-7.189c0.8-5.621,2.198-16.209,2.069-20.704
				c-0.069-2.403-2.037-4.305-4.441-4.305h-2.352c-0.896,2.077-2.794,3.682-5.744,3.682c-2.946,0-4.844-1.605-5.741-3.682h-2.208
				c2.4,5.138,1.537,11.916-2.591,15.871c0.767,2.712,1.412,5.441,1.895,7.653c0.654,2.996,0.365,6.118-0.815,8.949
				c-2.027,4.865-3.633,12.666-3.155,15.757c16.683,4.729,28.22-3.64,28.22-3.64L694,560.18z"/>
			<g>
				<polygon fill="#FAB9AF" points="680.238,529.075 687.433,528.319 685.156,520.446 680.503,521.022 				"/>
			</g>
			<path fill="#FA968C" d="M680.503,521.022l4.654-0.576l0.711,2.458c-1.042,1.175-2.38,3.712-4.074,3.712
				c-0.537,0-1.027-0.152-1.467-0.431L680.503,521.022z"/>
			<path fill="#FAB9AF" d="M680.342,524.828c1.58,0,3.289-0.791,5.643-2.847c1.351-1.181,2.353-3.24,2.353-4.631v-7.693h-11.845
				c0,0-0.889,4.085-0.026,8.139C677.115,520.835,679.1,524.828,680.342,524.828z"/>
			<path fill="#FAB9AF" d="M686.33,515.894c0,1.501,0.719,2.718,1.605,2.718c0.886,0,1.864-1.967,1.864-3.469
				c0-1.501-0.977-1.967-1.864-1.967C687.048,513.176,686.33,514.393,686.33,515.894z"/>
			<path fill="#0B4870" d="M689.798,510.588c0-2.402-1.948-4.35-4.35-4.349l-3.998,0.002c-1.143,0-2.252-0.299-3.225-0.851
				c-1.411-0.8-3.194-0.534-4.156,0.772c-1.04,1.411-1.49,3.3,1.148,5.05c1.311,0.87,3.228-0.094,4.506,0.324
				c0.079-0.003,0.149-0.016,0.231-0.016h3.524c1.225,0,2.161,1.001,2.197,2.225c0.022,0.774,0.657,1.395,1.437,1.395h0.157
				l0.564-1.808l1.967,2.652V510.588z"/>
			<path fill="#FAB9AF" d="M667.293,564.178c0,0,4.118-0.672,4.739,0.516c0.622,1.189,0.821,2.101-0.875,3.07
				c-1.696,0.97-4.486,1.492-6.221,1.47c-1.735-0.022-4.628-1.286-4.848-1.626c-0.802-1.237,2.337-0.868,3.866-0.763
				c1.529,0.105,3.266,0.071,3.108-0.679s-3.101-0.73-3.565-1.53C663.032,563.838,667.293,564.178,667.293,564.178z"/>
			<path fill="#0B4870" d="M677.376,509.521c0.397,1.758-0.189,2.719,5.572,5.462c5.761,2.743,7.585,1.571,9.384,4.524
				c0,0-0.787-4.892-3.969-6.572c-3.182-1.679-8.7-2.777-10.47-6.665C677.894,506.271,677.105,508.32,677.376,509.521z"/>
			<g>
				<path fill="#FAB9AF" d="M695.865,530.398c0.926,1.226,1.632,2.296,2.365,3.48c0.722,1.16,1.414,2.338,2.052,3.554
					c1.259,2.44,2.387,4.981,3.267,7.699c0.846,2.723,1.481,5.637,1.419,8.811c-0.082,1.596-0.265,3.232-0.82,4.855l-0.429,1.206
					c-0.164,0.396-0.392,0.775-0.592,1.157c-0.219,0.374-0.394,0.772-0.661,1.114l-0.794,1.024c-1.087,1.333-2.42,2.376-3.783,3.196
					c-1.371,0.782-2.787,1.412-4.192,1.798l-1.053,0.322c-0.35,0.098-0.699,0.145-1.048,0.219c-0.697,0.131-1.393,0.273-2.085,0.387
					l-2.061,0.173l-1.025,0.081l-1.013,0.007c-5.401,0.08-10.575-0.696-15.63-1.791c-0.704-0.153-1.152-0.847-0.999-1.552
					c0.134-0.618,0.686-1.039,1.295-1.029l0.025,0.001c5.052,0.08,10.093,0.015,14.852-0.745l0.891-0.137l0.863-0.203l1.716-0.395
					l1.626-0.516c0.266-0.091,0.547-0.158,0.798-0.266l0.74-0.337c1.99-0.86,3.598-2.067,4.449-3.485
					c0.855-1.409,1.189-3.045,1.056-4.98c-0.154-1.93-0.742-4.03-1.566-6.106c-0.81-2.087-1.868-4.166-3.062-6.186
					c-0.595-1.012-1.201-2.026-1.856-3.008c-0.635-0.962-1.359-2.003-1.956-2.816l-0.076-0.103
					c-1.486-2.022-1.051-4.866,0.971-6.352C691.554,528.001,694.369,528.419,695.865,530.398z"/>
			</g>
			<path fill="#0B4870" d="M678.484,509.849c0,0-0.219,5.92-5.392,8.764c0,0,2.28-4.475,2.125-7.4
				C675.062,508.286,678.826,507.827,678.484,509.849z"/>
			<path fill="#0B4870" d="M706.739,667.369c0.342-0.394,0.349-0.975,0.013-1.374c-0.275-0.326-1.005-1.22-1.555-1.891
				c-0.239-0.292-0.688-0.224-0.85,0.116c-1.839,3.846-4.91,6.846-8.914,7.397c-1.299,0.878-2.127,2.861-1.857,3.633
				c0.063,0.181,1.84,0.206,3.709-0.863C705.58,669.639,706.739,667.369,706.739,667.369z"/>
		</g>
		<path fill="#FFBE55" d="M665.533,530.789c-0.024,5.128-2.563,8.604-7.138,10.679c-2.97,1.347-3.171,2.295-0.857,4.675
			c3.185,3.277,6.334,6.59,9.563,9.823c1.684,1.686,1.472,3.085-0.192,4.63c-3.53,3.277-7.01,6.609-10.469,9.962
			c-2.257,2.188-2.17,2.58,0.6,4.035c5.653,2.97,7.855,8.693,5.486,14.256c-2.528,5.935-8.896,8.971-14.741,6.927
			c-3.12-1.091-5.391-3.186-6.672-6.295c-1.111-2.695-1.682-2.795-3.795-0.776c-3.603,3.443-7.249,6.842-10.804,10.334
			c-1.674,1.645-2.928,1.617-4.547-0.188c-3.157-3.521-6.58-6.801-9.792-10.274c-2.609-2.822-2.282-3.884,1.342-5.181
			c5.227-1.871,8.932-7.838,7.889-12.706c-1.2-5.6-6.143-9.749-11.622-9.292c-4.948,0.413-8.439,3.16-10.389,7.786
			c-1.431,3.395-2.252,3.557-4.841,0.886c-3.469-3.578-6.85-7.242-10.355-10.783c-1.483-1.498-1.267-2.626,0.167-3.966
			c3.701-3.46,7.349-6.978,10.991-10.5c2.199-2.126,2.133-2.447-0.551-3.826c-5.251-2.698-7.61-7.806-6.109-13.227
			c1.445-5.217,6.586-9.214,11.867-8.855c4.672,0.318,8.094,2.725,9.944,7.135c0.981,2.338,1.673,2.566,3.545,0.807
			c3.513-3.3,6.925-6.706,10.408-10.038c2.378-2.275,2.977-2.272,5.284,0.11c3.178,3.281,6.28,6.635,9.459,9.916
			c2.003,2.067,2.893,1.913,4.18-0.751c1.652-3.421,4.233-5.71,7.913-6.646C658.742,517.555,665.558,523.009,665.533,530.789z"/>
	</g>
	<path fill="#FAB9AF" d="M636.93,530.006c0,0,4.13-0.593,4.367-1.913c0.237-1.32,0.154-2.25-1.755-2.667
		c-1.909-0.417-4.727-0.079-6.376,0.462c-1.649,0.541-4.03,2.614-4.138,3.004c-0.395,1.421,2.49,0.128,3.917-0.431
		c1.427-0.558,3.094-1.047,3.169-0.284c0.074,0.763-2.739,1.626-2.943,2.528C632.967,531.607,636.93,530.006,636.93,530.006z"/>
</g>
<g>
	<g>
		<g>
			<path fill="#0B4870" d="M547.823,620.823c0.047-3.107,0.25-6.221,0.093-9.318c-0.125-2.453,0.917-3.206,3.158-3.148
				c5.711,0.148,11.424,0.235,17.137,0.319c3.68,0.054,4.27-0.787,3.096-4.297c-2.157-6.454-0.227-12.941,4.945-16.62
				c4.998-3.555,11.972-3.36,16.819,0.469c4.953,3.913,6.537,10.568,4.012,16.854c-1.197,2.98-0.535,4.037,2.697,4.11
				c5.612,0.127,11.225,0.165,16.837,0.291c3.564,0.08,4.216,0.778,4.16,4.268c-0.097,6.013-0.235,12.026-0.314,18.039
				c-0.039,2.965,0.539,3.375,3.354,2.3c5.536-2.114,10.758-1.126,14.795,2.826c3.96,3.877,4.922,9.142,3.224,14.52
				c-1.715,5.431-5.528,8.69-11.198,9.657c-2.557,0.436-4.962-0.141-7.325-1.094c-2.729-1.102-3.384-0.684-3.473,2.292
				c-0.186,6.211-0.4,12.424-0.424,18.636c-0.01,2.742-1.073,3.726-3.794,3.62c-6.008-0.235-12.025-0.224-18.037-0.376
				c-3.724-0.094-4.461-1.37-2.832-4.684c4.606-9.365-0.549-19.641-10.363-20.658c-9.988-1.034-17.451,9.06-13.876,18.785
				c0.31,0.843,0.795,1.624,1.084,2.473c0.7,2.054,0.038,3.525-2.219,3.527c-6.815,0.005-13.631-0.128-20.444-0.291
				c-1.682-0.04-2.33-1.033-2.275-2.815c0.202-6.511,0.161-13.031,0.401-19.54c0.094-2.548-0.851-3.239-3.172-2.681
				c-1.958,0.471-3.974,0.422-5.934,0.164c-7.566-0.994-11.729-6.589-10.905-14.5c0.714-6.856,6.475-11.54,13.63-11.082
				c6.922,0.444,6.922,0.444,7.036-6.637c0.029-1.804,0.055-3.608,0.083-5.412C547.807,620.823,547.815,620.823,547.823,620.823z"/>
		</g>
		<g>
			<path fill="#0B4870" d="M474.636,546.52c0.044-2.906,0.076-5.812,0.136-8.717c0.075-3.664,0.723-4.303,4.484-4.232
				c5.309,0.1,10.617,0.275,15.926,0.392c4.041,0.088,4.671-0.781,3.414-4.527c-1.94-5.779-0.81-10.97,3.527-15.18
				c4.107-3.987,9.162-4.862,14.491-2.893c5.51,2.036,8.353,6.288,9.009,12.057c0.267,2.349-0.286,4.576-1.1,6.751
				c-1.249,3.337-0.593,4.301,3.054,4.365c5.511,0.096,11.023,0.136,16.533,0.261c3.534,0.08,3.992,0.585,3.938,4.075
				c-0.093,6.012-0.23,12.023-0.318,18.036c-0.044,2.999,0.565,3.499,3.321,2.441c2.723-1.046,5.484-1.257,8.267-0.657
				c7.805,1.685,12.292,9.69,9.97,17.625c-2.34,7.997-10.372,12.077-18.037,9.162c-3.666-1.395-4.025-1.141-4.097,2.9
				c-0.096,5.41-0.284,10.822-0.242,16.231c0.018,2.337-0.21,3.075-3.063,2.785c-5.762-0.586-11.608-0.418-17.419-0.399
				c-2.453,0.008-3.271-0.4-2.174-3.062c2.656-6.443,0.595-13.666-4.764-17.81c-5.223-4.038-12.567-4.136-17.923-0.238
				c-5.444,3.962-7.654,11.073-5.214,17.68c0.891,2.412,0.356,2.963-2.066,2.958c-6.404-0.013-12.814-0.705-19.21,0.002
				c-1.811,0.2-1.394-1.003-1.383-1.893c0.067-5.812,0.185-11.623,0.276-17.435c0.068-4.303-0.128-4.414-4.09-3.121
				c-4.86,1.585-9.349,0.794-13.192-2.6c-4.088-3.61-5.595-8.27-4.556-13.578c1.719-8.778,9.989-13.367,18.197-10.255
				c3.825,1.45,4.061,1.302,4.141-2.705c0.056-2.805,0.088-5.611,0.131-8.417C474.615,546.52,474.626,546.52,474.636,546.52z"/>
		</g>
		<g>
			<path fill="#FFBE55" d="M474.666,620.653c0.046-3.007,0.251-6.023,0.091-9.02c-0.147-2.732,0.97-3.431,3.533-3.317
				c5.506,0.245,11.024,0.249,16.538,0.307c3.902,0.041,5.311-1.935,3.931-5.553c-2.029-5.323-1.074-10.126,2.773-14.178
				c3.652-3.848,8.298-4.817,13.267-3.115c5.151,1.764,7.758,5.731,8.551,11.012c0.325,2.162-0.179,4.18-0.92,6.166
				c-1.658,4.445-0.515,6.09,4.306,6.159c5.413,0.077,10.827,0.228,16.24,0.188c2.233-0.016,2.964,0.77,2.871,3.003
				c-0.221,5.307-0.304,10.625-0.26,15.937c0.016,1.925-0.694,2.41-2.456,2.323c-2.191-0.108-4.396-0.448-6.59,0.061
				c-7.132,1.653-12.433,8.827-11.656,15.791c1.017,9.111,6.251,14.086,14.862,14.127c5.26,0.026,5.261,0.026,5.179,5.232
				c-0.073,4.611-0.208,9.223-0.191,13.834c0.007,1.826-0.692,2.505-2.484,2.46c-6.114-0.154-12.229-0.26-18.344-0.328
				c-2.569-0.029-2.765-0.939-1.717-3.143c4.186-8.804,0.606-18.511-7.853-21.357c-5.841-1.965-11.334-0.891-15.45,3.652
				c-4.199,4.635-5.094,10.334-2.847,16.288c1.567,4.151,1.641,4.141-2.669,4.091c-5.313-0.061-10.629-0.264-15.938-0.154
				c-2.715,0.056-3.715-0.752-3.587-3.583c0.272-6.006,0.239-12.027,0.299-18.042c0.033-3.294-1.459-4.472-4.491-3.318
				c-5.586,2.126-10.47,1.217-14.487-3.216c-3.751-4.14-4.205-10.052-1.441-15.46c2.511-4.915,9.125-7.318,14.782-5.358
				c0.755,0.262,1.466,0.671,2.233,0.877c2.324,0.624,3.697-0.348,3.779-2.742c0.109-3.206,0.113-6.415,0.162-9.623
				C474.676,620.653,474.671,620.653,474.666,620.653z"/>
		</g>
	</g>
</g>
<path opacity="0.4" fill="#2A94F4" d="M358.796,663.364c0,0-64.667-58.903-129.333-14.775c0,0,31.732-40.592,77.333-34.539
	S358.796,663.364,358.796,663.364z"/>
<path opacity="0.4" fill="#2A94F4" d="M356.817,665.734c0,0-8.412-87.066-85.967-97.75c0,0,50.767-8.797,80.512,26.293
	C381.106,629.367,356.817,665.734,356.817,665.734z"/>
<path fill="#0B4870" d="M357.384,665.36c0,0-30.302-82.055-108.022-72.641c0,0,46.854-21.433,84.553,4.927
	S357.384,665.36,357.384,665.36z"/>
<path fill="#FFBE55" d="M385.296,665.18c0,9.132-7.403,16.536-16.536,16.536h-25.429c-9.132,0-16.536-7.403-16.536-16.536l0,0
	c0-9.132,7.403-16.536,16.536-16.536h25.429C377.893,648.645,385.296,656.048,385.296,665.18L385.296,665.18z"/>
<g>
	<path fill="#FFBE55" d="M803.812,675.277c0,2.452-1.988,4.439-4.439,4.439h-17.124c-2.452,0-4.439-1.988-4.439-4.439v-39.955
		c0-2.452,1.988-4.439,4.439-4.439h17.124c2.452,0,4.439,1.988,4.439,4.439V675.277z"/>
	<path opacity="0.4" fill="#FFBE55" d="M792.864,584.89c0,0-14.018,28.495,6.636,33.347c20.654,4.853,21.25-16.641,19.133-25.499
		c-2.117-8.858,30.658-32.673,3.627-53.74C795.229,517.93,774.163,574.021,792.864,584.89z"/>
	<path opacity="0.4" fill="#FFBE55" d="M766.762,600.358c0,0-0.66,18.751,11.647,16.368c12.307-2.383,7.427-14.112,4.142-18.374
		c-3.285-4.262,8.618-25.03-11.05-29.844C751.832,563.694,754.051,599.025,766.762,600.358z"/>
	<line fill="none" stroke="#4D4D4D" stroke-miterlimit="10" x1="768.861" y1="582.682" x2="784.082" y2="630.882"/>
	<polyline fill="none" stroke="#4D4D4D" stroke-miterlimit="10" points="777.74,592.497 774.516,600.59 767.17,596.543 	"/>
	<line fill="none" stroke="#4D4D4D" stroke-miterlimit="10" x1="809.373" y1="555.411" x2="796.316" y2="630.882"/>
	<polyline fill="none" stroke="#4D4D4D" stroke-miterlimit="10" points="817.033,566.827 806.216,573.659 799.275,564.29 	"/>
	<polyline fill="none" stroke="#4D4D4D" stroke-miterlimit="10" points="814.073,582.654 803.256,589.485 796.316,580.117 	"/>
</g>
</svg>
