<?xml version="1.0" encoding="utf-8"?>
<!-- Generator: Adobe Illustrator 23.0.0, SVG Export Plug-In . SVG Version: 6.00 Build 0)  -->
<svg version="1.1" xmlns="http://www.w3.org/2000/svg" xmlns:xlink="http://www.w3.org/1999/xlink" x="0px" y="0px"
	 viewBox="0 0 1920 1080" style="enable-background:new 0 0 1920 1080;" xml:space="preserve">
<style type="text/css">
	.st0{opacity:0.1;fill:#2A94F4;}
	.st1{fill:#0E538C;}
	.st2{fill:#FFE3CA;}
	.st3{fill:#FFBE55;}
	.st4{fill:#FCD2B1;}
	.st5{fill:#0B4870;}
	.st6{fill:#B97A59;}
	.st7{fill:#A86D52;}
	.st8{fill:#CCE9FF;}
</style>
<g id="Background">
	<path class="st0" d="M1411.47,1031.93c6.9-0.8,259.28-182.04,138.9-371.13s-382.68-158.6-342.97-240.98
		c39.71-82.38-40.12-477.73-354.4-403.91S506.19,310.17,642.7,449.69s-64.63,298.07-182.69,161.2s-282.43,74.66-168.99,170.3
		S307.22,1159.25,1411.47,1031.93z"/>
</g>
<g id="Character_1">
	<g>
		<path class="st1" d="M1252.1,800.43c0,0-21.2,55.88-25.83,77.71c-4.63,21.83-4.52,43.19-4.52,43.19l-39.66-8.78
			c0,0,9.25-117.55,18.04-125.83c8.78-8.28,51.44-4.81,51.44-4.81L1252.1,800.43z"/>
		<path class="st1" d="M1297.64,770.97c0,0,7.34,91.65,11.97,107.17c4.63,15.52,46.62,76,46.62,76l-44.85-11.46
			c0,0-47.46-48.08-67.68-149.39C1229.44,721.78,1278.72,740.36,1297.64,770.97z"/>
		<path class="st2" d="M1207.61,643.07c0,0-50.55-6.35-75.14-17.3c-24.59-10.96-98.73-56.42-98.73-56.42l12.05-14.59
			c0,0,69.37,35.79,83.02,42.97c13.65,7.18,80.66,17.88,80.66,17.88L1207.61,643.07z"/>
		<path class="st3" d="M1289.41,660.95c1.79,44.58,6.38,108.4,8.23,110.02c0,0-22.18,17.84-40.83,20.85
			c-18.64,3.01-60.13,3.25-60.13,3.25s12.66-85.98,13.08-100.02c0.42-14.04-4.97-65.89-4.97-65.89
			C1297.64,574.59,1289.35,659.43,1289.41,660.95z"/>
		<path class="st4" d="M1239.04,602.42l0.12,8.9c0.09,6.54,5.59,11.7,12.13,11.37l1.85-0.09c6.32-0.32,11.21-5.68,10.94-12.01
			l-0.38-9.11c-0.3-7.03-6.76-12.16-13.68-10.85l-1.59,0.3C1242.93,591.97,1238.97,596.82,1239.04,602.42z"/>
		<path class="st2" d="M1219.91,549.27c0,0-10.79,30.59-1.28,47.86c9.51,17.27,44.59,10.87,50.58-13.14
			C1282.39,531.13,1235.05,533.52,1219.91,549.27z"/>
		<path class="st3" d="M1243.58,649.45c0,0-33.29,7.7-70.54-8.01l7.29-32.43l58.83,2.32
			C1239.16,611.32,1241.16,628.73,1243.58,649.45z"/>
		<path class="st4" d="M1282.89,619.58c-1.62,1.65,20.35,73.2-8.05,98.07c-15.66,13.71-89.33,33.22-89.33,33.22
			c-0.65,0.87-5.18,2.18-9.75,3.3c-7.08,1.74-14.55-0.5-19.52-5.83c-0.37-0.4-0.71-0.77-1.01-1.1c-0.93-1.03-1.35-2.41-1.17-3.79
			l0,0c0.43-3.24,2.88-5.84,6.09-6.47c1.37-0.27,2.77-0.48,3.9-0.52c6.82-0.22,12.21,2.56,18.95,2.32l4.24-0.15
			c0,0,59.44-24.38,67.38-30.52c24.09-18.64,12.59-51.07,14.7-64.23L1282.89,619.58z"/>
		<path class="st4" d="M1199.53,741.22c0,0-12.87-7.79-20.99-8.22c-3.68-0.19-9.85-2.32-11.78-4.24c-1.93-1.93-3.47,5.54-0.19,6.7
			c3.28,1.16,11.41,2.99,9.56,7.11L1199.53,741.22z"/>
		<path class="st3" d="M1268.29,612.95c0,0,29.35-2.06,32.35,63.92l-37.38,10.3C1263.26,687.17,1235.07,648.28,1268.29,612.95z"/>
		<path class="st2" d="M1034.96,572.03c0,0,6.57,0.75,16.82-0.26c10.25-1.02,4.77-4.92,4.77-4.92l-6.11-8.18
			c0,0-5.37-13.19-12.12-17.34c-1.58-0.97-2.18-1.79-3.34-3.16c-1.05-1.24-13.48-2.57-2.46,5.96c2.89,2.24,2.49,4.1,0.78,4.12
			s-13.47-10.01-17.66-7.57c-11.6,6.78-4.4,21.47,1.6,24.42C1023.07,567.95,1034.96,572.03,1034.96,572.03z"/>
		<path class="st5" d="M1275.63,541.04c-0.32,0.73-1.33,0.81-1.72,0.12c-3.14-5.6-13.89-21.67-31.88-17.56
			c-18.84,4.31-28.2,17.8-33.17,15.2c-0.77-0.41-1.66,0.26-1.41,1.09c0.89,2.97,3.17,6.64,9.04,5.79c0.54-0.08,1.04,0.34,1.07,0.89
			c0.13,2.32-0.3,7.58-6.84,7.2c-0.79-0.05-1.32,0.8-0.9,1.47c1.2,1.91,3.74,4.52,8.01,2.63c0.25-0.11,0.44-0.33,0.53-0.59
			c0.62-1.84,3.78-9.44,13.13-8.74c0.35,0.03,0.66,0.27,0.81,0.59c0.6,1.34,3.08,4.88,12.83,6.7c11.41,2.13,14.68,10.59,9.62,16.41
			c-0.49,0.56-0.2,1.45,0.53,1.58c2.4,0.4,6.8,0.31,9.27-4.77c3.51-7.23,8.88-0.21,6.41,3.93c-2.26,3.77-1.6,15.63-7.27,21.75
			c-0.58,0.62-0.07,1.64,0.78,1.59c2.99-0.2,7.83-1.13,10.43-4.95c3.93-5.79,14.88-13.84,11.36-29.75
			c-3.24-14.69-6.2-20.4-0.83-24.11c0.65-0.45,0.57-1.44-0.17-1.71C1282.86,534.94,1278.5,534.51,1275.63,541.04z"/>
	</g>
</g>
<g id="Character_2_and_Mountain">
	<path class="st6" d="M868.36,436.18c0,0,38.5,53.47,58.35,71.65c17.22,15.78,62.29,37.11,77.26,45.04
		c2.29,1.21,3.58,1.89,3.58,1.89l6.28-12.35c0,0-60.47-42.36-72.5-52.03c-12.02-9.66-46.73-62.3-46.73-62.3L868.36,436.18z"/>
	<path class="st6" d="M839.36,419.21c-1.97-1.21-86.93,12.44-106.09,4.32c-19.16-8.12-61.57-70.41-61.57-70.41l-13.12-7.96
		c-5.22-3.17-9.44-7.75-12.16-13.22l-2.78-5.58c-2.95-5.93,1.38-12.89,8.01-12.86l12.17,3.72c9.49,2.9,16.82,10.48,19.39,20.07
		l1.1,4.1c0,0,50.45,53.54,59.01,58.78c8.55,5.24,50.35-7.13,63.64-8.03L839.36,419.21z"/>
	<path class="st1" d="M718.72,607.73c0,0,88.54-7.84,128.62-83.43l-52.43,3.66c0,0-101.47,56.32-109.19,67.11
		s13.89,146.04,13.89,146.04h21.22L718.72,607.73z"/>
	<path class="st1" d="M794.91,527.96c0,0,11.58,135.21,37.81,186.91c26.24,51.7,59.42,124.24,59.42,124.24l25.79-6.95L860.5,680.91
		c0,0-6.86-72.54-5.4-81.8c1.46-9.26,15.21-46.27,1.32-74.82L794.91,527.96z"/>
	<path class="st3" d="M766.94,398.81l2.99,32.23c0,0,24.51,3.4,24.21,4.89c-9.06,43.69-24.01,105.9-26.1,107.19
		c0,0,23.64,2.14,41.54,8.16c17.9,6.02,52.09,23.32,52.09,23.32s3.59-78.09,5.48-92c1.88-13.92,15.67-64.19,15.67-64.19
		C835.62,372.06,766.94,398.81,766.94,398.81z"/>
	<path class="st7" d="M853.39,386.41l-1.57,8.76c-1.16,6.44-7.43,10.63-13.82,9.23l-1.81-0.4c-6.19-1.35-10.13-7.44-8.83-13.64
		l4.6-21.99l14.05,5.15C851.27,375.47,854.38,380.9,853.39,386.41z"/>
	<path class="st6" d="M884.23,342.93c0,0-3.38,36.06-18.09,49.19s-44.36-9.03-42.05-33.66
		C829.21,304.21,875.17,323.04,884.23,342.93z"/>
	<path class="st3" d="M858.1,400.39c0,0,31.33,13.64,51.88,48.45l-25.18,21.7l-28.39-27.2C856.42,443.34,847.7,418.46,858.1,400.39z
		"/>
	<path class="st8" d="M334.51,1075.25c0,0,147.77-318.18,321.78-317.95c201.54,0.26,56.72,109.96,259.28,115.75
		c202.56,5.79,602.97,125.93,602.97,125.93l86.81,76.26H334.51z"/>
	<path class="st5" d="M703.66,741.1l-1.49,0.87c-8.4,4.9-17.53,8.37-26.97,10.68c-19.52,4.76-21.4,14.31-21.4,14.31
		c-0.73,1.32,5.35,5.04,6.85,4.92l31.89-6.94c5.46-1.19,11.06-1.54,16.62-1.04l8.98,0.8l0,0c4.17-0.08,7.21-3.97,6.27-8.04
		l-3.58-15.56H703.66z"/>
	<path class="st5" d="M892.14,839.1c0,0-7.33,26.72-27.59,24.99c0,0-11.17,17.85,19.1,13.31c11.58-1.74,14.02-16.78,38.2-13.02
		c6.68,1.04,10.42-6.94,10.42-6.94c2.52-8.65-4.17-13.66-10.11-20.44l-4.23-4.84L892.14,839.1z"/>
	<polygon class="st5" points="619.88,762.48 609.72,761.73 673.2,161.16 683.35,161.91 	"/>
	<path class="st3" d="M673.08,167.14c0,0-80.4-61.23-112.75-20.42c-42.7,53.86-71.56,33.49-86.45,17.09c0,0,13.08,32.68-41.94,84.56
		c0,0,72.76,53.19,113.36,20.39c40.59-32.8,109,3.92,117.32,29.32L673.08,167.14z"/>
	<path class="st6" d="M1008.39,557.75c0,0-5.24-4.03-11.9-11.9c-6.65-7.86,0-6.86,0-6.86l10.08-1.63c0,0,13.03-5.74,20.77-4.02
		c1.81,0.4,2.81,0.23,4.6,0.05c1.61-0.16,11.47,7.53-2.38,5.99c-3.63-0.4-4.64,1.21-3.43,2.42c1.21,1.21,16.64,2.19,17.95,6.86
		c3.61,12.94-11.79,18.48-18.15,16.42C1019.76,563.09,1008.39,557.75,1008.39,557.75z"/>
	<path class="st5" d="M837.43,332.62c0,0,5.71,17.54,25.97,15.23c20.26-2.32,17.78,12.8,17.78,12.8s17.05-15.28,3.43-28.02
		c-13.63-12.75-18.8-29.33-47.18-15.25c-28.38,14.08-21.61,40.52-13.91,51.12l2.42,2.43c1.51,1.51,4.03,1.22,5.14-0.6l0.01-0.02
		c0.66-1.08,0.64-2.43-0.04-3.5c-1.98-3.13-5.51-9.9-2.16-13.86c2.05-2.42,3.64-1.91,4.77-0.65c1.85,2.08,4.73,2.89,7.3,1.81
		l0.2-0.08C841.16,354.02,850.76,344.21,837.43,332.62z"/>
</g>
</svg>
