<svg id="Layer_1" data-name="Layer 1" xmlns="http://www.w3.org/2000/svg" viewBox="0 0 700 550"><title>2021- year of ox</title><path d="M162.821,471.12676c-40.64957-28.17609-78.64551-82.23323-64.90993-125.08965,11.65918-36.37742,51.35377-36.12265,62.91027-74.24963,13.47-44.44159-32.93187-69.63131-28.28921-105.497C143.84548,78.89883,447.13544,13.65948,485.52565,75.539c27.18311,43.81775-93.6182,126.92958-60.26726,181.50061,29.76946,48.71373,142.45284,9.375,174.65047,60.12244,26.83494,42.29242-16.02676,125.40427-79.6099,162.10613-33.96828,19.60568-79.38208,18.42659-168.8097,19.3335-98.45443.99727-148.50738.36036-188.66823-27.475" fill="#fff4f3"/><circle cx="329.84393" cy="304.73416" r="175.9137" fill="#ffbbae"/><circle cx="329.84393" cy="304.73416" r="143.97617" fill="#ffd4c9"/><circle cx="329.84393" cy="304.73416" r="115.01458" fill="#fff4f3"/><path d="M344.72363,170.88232H314.96387a6.52,6.52,0,0,1,0-13.04h29.75976a6.52,6.52,0,1,1,0,13.04Zm-29.75976-11.04a4.52,4.52,0,0,0,0,9.04h29.75976a4.52,4.52,0,1,0,0-9.04Z" fill="#ffa8a4"/><path d="M324.32422,399.48242H294.56348a6.52,6.52,0,0,1,0-13.04h29.76074a6.52,6.52,0,0,1,0,13.04Zm-29.76074-11.04a4.52,4.52,0,0,0,0,9.04h29.76074a4.52,4.52,0,0,0,0-9.04Z" fill="#ffa8a4"/><path d="M310.64355,463.53418H280.88379a6.52,6.52,0,0,1,0-13.04h29.75976a6.52,6.52,0,1,1,0,13.04Zm-29.75976-11.04a4.52,4.52,0,0,0,0,9.04h29.75976a4.52,4.52,0,1,0,0-9.04Z" fill="#ffa8a4"/><path d="M142.85742,327.64258H113.09766a6.52,6.52,0,1,1,0-13.04h29.75976a6.52,6.52,0,0,1,0,13.04Zm-29.75976-11.04a4.52,4.52,0,1,0,0,9.04h29.75976a4.52,4.52,0,0,0,0-9.04Z" fill="#ffa8a4"/><path d="M510.65137,232.21094H480.89063a6.52,6.52,0,0,1,0-13.04h29.76074a6.52,6.52,0,0,1,0,13.04Zm-29.76074-11.04a4.52,4.52,0,0,0,0,9.04h29.76074a4.52,4.52,0,0,0,0-9.04Z" fill="#ffa8a4"/><path d="M461.83789,399.60449H432.07715a6.52,6.52,0,0,1,0-13.04h29.76074a6.52,6.52,0,0,1,0,13.04Zm-29.76074-11.04a4.52,4.52,0,0,0,0,9.04h29.76074a4.52,4.52,0,0,0,0-9.04Z" fill="#ffa8a4"/><path d="M465.84766,356.56543h-93.835a6.28976,6.28976,0,0,1-6.28223-6.2832v-.47461a6.28936,6.28936,0,0,1,6.27832-6.28223H385.4502a4.28486,4.28486,0,0,0,4.28027-4.28027v-.48047a4.28465,4.28465,0,0,0-4.28027-4.2793H341.9707a6.52,6.52,0,1,1,0-13.04h102.96a6.52,6.52,0,0,1,0,13.04h-2.12011a4.28466,4.28466,0,0,0-4.28028,4.2793v.48047a4.28487,4.28487,0,0,0,4.28028,4.28027h23.03711a6.28976,6.28976,0,0,1,6.2832,6.28223v.47461A6.29,6.29,0,0,1,465.84766,356.56543Zm-93.835-11.04a4.287,4.287,0,0,0-4.28223,4.28223v.47461a4.28779,4.28779,0,0,0,4.28223,4.2832h93.835a4.28862,4.28862,0,0,0,4.2832-4.2832v-.47461a4.28779,4.28779,0,0,0-4.2832-4.28223H442.81055a6.28747,6.28747,0,0,1-6.28028-6.28027v-.48047a6.28664,6.28664,0,0,1,6.28028-6.2793h2.12011a4.52,4.52,0,0,0,0-9.04h-102.96a4.52,4.52,0,1,0,0,9.04h44.87989a1.00031,1.00031,0,0,1,.79785.39649,6.29178,6.29178,0,0,1,4.082,5.88281v.48047a6.29119,6.29119,0,0,1-4.31738,5.96582.99715.99715,0,0,1-.72754.31445Z" fill="#ffa8a4"/><path d="M549.7627,298.12891H455.92676a6.28956,6.28956,0,0,1-6.28223-6.28223v-.47559a6.28935,6.28935,0,0,1,6.27832-6.28222h13.44238a4.28466,4.28466,0,0,0,4.2793-4.28028v-.47949a4.28465,4.28465,0,0,0-4.2793-4.28027H425.88477a6.52,6.52,0,0,1,0-13.04h102.96a6.52,6.52,0,1,1,0,13.04h-2.12012a4.28486,4.28486,0,0,0-4.28027,4.28027v.47949a4.28486,4.28486,0,0,0,4.28027,4.28028H549.7627a6.28955,6.28955,0,0,1,6.28222,6.28222v.47559A6.28955,6.28955,0,0,1,549.7627,298.12891Zm-93.83594-11.04a4.287,4.287,0,0,0-4.28223,4.28222v.47559a4.287,4.287,0,0,0,4.28223,4.28223H549.7627a4.287,4.287,0,0,0,4.28222-4.28223v-.47559a4.287,4.287,0,0,0-4.28222-4.28222H526.72461a6.28747,6.28747,0,0,1-6.28027-6.28028v-.47949a6.28746,6.28746,0,0,1,6.28027-6.28027h2.12012a4.52,4.52,0,1,0,0-9.04h-102.96a4.52,4.52,0,0,0,0,9.04h44.87988a1.00035,1.00035,0,0,1,.79785.39648,6.29112,6.29112,0,0,1,4.082,5.88379v.47949a6.2915,6.2915,0,0,1-4.31738,5.9668.99631.99631,0,0,1-.72754.31348Z" fill="#ffa8a4"/><path d="M460.31543,452.49414h-93.835a6.28976,6.28976,0,0,1-6.2832-6.28223v-.47558a6.28977,6.28977,0,0,1,6.27734-6.28223H379.918a4.28466,4.28466,0,0,0,4.2793-4.28027v-.47949a4.28466,4.28466,0,0,0-4.2793-4.28028H336.4375a6.52,6.52,0,0,1,0-13.04h102.96a6.52,6.52,0,1,1,0,13.04h-2.12012a4.28486,4.28486,0,0,0-4.28027,4.28028v.47949a4.28486,4.28486,0,0,0,4.28027,4.28027h23.03809a6.28956,6.28956,0,0,1,6.28223,6.28223v.47558A6.28956,6.28956,0,0,1,460.31543,452.49414Zm-93.835-11.04a4.28778,4.28778,0,0,0-4.2832,4.28223v.47558a4.28778,4.28778,0,0,0,4.2832,4.28223h93.835a4.287,4.287,0,0,0,4.28223-4.28223v-.47558a4.287,4.287,0,0,0-4.28223-4.28223H437.27734a6.28746,6.28746,0,0,1-6.28027-6.28027v-.47949a6.28747,6.28747,0,0,1,6.28027-6.28028h2.12012a4.52,4.52,0,1,0,0-9.04h-102.96a4.52,4.52,0,0,0,0,9.04h44.87988a.99893.99893,0,0,1,.79785.39649,6.29112,6.29112,0,0,1,4.082,5.88379v.47949a6.29151,6.29151,0,0,1-4.31739,5.9668.99632.99632,0,0,1-.72754.31347Z" fill="#ffa8a4"/><path d="M246.05469,301.84277h-93.835a6.28955,6.28955,0,0,1-6.28223-6.28222V295.085a6.28894,6.28894,0,0,1,6.27637-6.28223h13.44336a4.28486,4.28486,0,0,0,4.28027-4.28027V284.043a4.28486,4.28486,0,0,0-4.28027-4.28027H122.17676a6.52,6.52,0,0,1,0-13.04H225.1377a6.52,6.52,0,0,1,0,13.04h-2.12012a4.28487,4.28487,0,0,0-4.28028,4.28027v.47949a4.28487,4.28487,0,0,0,4.28028,4.28027h23.03711a6.28955,6.28955,0,0,1,6.28222,6.28223v.47559A6.28955,6.28955,0,0,1,246.05469,301.84277Zm-93.835-11.04a4.287,4.287,0,0,0-4.28223,4.28223v.47559a4.28694,4.28694,0,0,0,4.28223,4.28222h93.835a4.28693,4.28693,0,0,0,4.28222-4.28222V295.085a4.28694,4.28694,0,0,0-4.28222-4.28223H223.01758a6.28747,6.28747,0,0,1-6.28028-6.28027V284.043a6.28747,6.28747,0,0,1,6.28028-6.28027h2.12012a4.52,4.52,0,0,0,0-9.04H122.17676a4.52,4.52,0,0,0,0,9.04h44.88086a1.00033,1.00033,0,0,1,.79785.39648,6.2921,6.2921,0,0,1,4.082,5.88379v.47949a6.29119,6.29119,0,0,1-4.31738,5.96582.99715.99715,0,0,1-.72754.31445Z" fill="#ffa8a4"/><path d="M280.18164,186.24219H250.4209a6.52,6.52,0,0,1,0-13.04h29.76074a6.52,6.52,0,0,1,0,13.04Zm-29.76074-11.04a4.52,4.52,0,0,0,0,9.04h29.76074a4.52,4.52,0,0,0,0-9.04Z" fill="#ffa8a4"/><path d="M232.22363,235.92236H202.46387a6.517,6.517,0,0,1-4.69434-11.04H173.36426a6.52,6.52,0,1,1,0-13.04h38.87988a4.52,4.52,0,0,0,0-9.04h-11.04a6.52,6.52,0,1,1,0-13.04h29.75977v2H201.2041a4.52,4.52,0,1,0,0,9.04h11.51953a1.00179,1.00179,0,0,1,.30274.04687,6.52059,6.52059,0,0,1-.78223,12.99317H173.36426a4.52,4.52,0,1,0,0,9.04H203.124a1,1,0,1,1,0,2h-.66015a4.52,4.52,0,0,0,0,9.04h29.75976a4.52,4.52,0,1,0,0-9.04,1,1,0,0,1,0-2h63.54v2H236.919a6.517,6.517,0,0,1-4.69532,11.04Z" fill="#ffa8a4"/><path d="M227.89844,157.17383H198.13867a6.517,6.517,0,0,1-4.69433-11.04H169.03906a6.52,6.52,0,1,1,0-13.04H207.919a4.52,4.52,0,0,0,0-9.04h-11.04a6.52,6.52,0,1,1,0-13.04h29.75976v2H196.87891a4.52,4.52,0,1,0,0,9.04h11.51953a1.00137,1.00137,0,0,1,.30273.04688,6.52059,6.52059,0,0,1-.78222,12.99316H169.03906a4.52,4.52,0,1,0,0,9.04h29.75977a1,1,0,0,1,0,2h-.66016a4.52,4.52,0,0,0,0,9.04h29.75977a4.52,4.52,0,1,0,0-9.04,1,1,0,0,1,0-2h63.54v2H232.59375a6.517,6.517,0,0,1-4.69531,11.04Z" fill="#ffa8a4"/><path d="M397.52734,246.9624H367.76758a6.52,6.52,0,1,1,0-13.04h38.87988a4.52,4.52,0,0,0,0-9.04h-11.04a6.52,6.52,0,1,1,0-13.04h58.86133a4.52,4.52,0,0,0,0-9.04H415.58789a6.52017,6.52017,0,0,1-.78223-12.99317,1.00179,1.00179,0,0,1,.30274-.04687h11.51953a4.52,4.52,0,1,0,0-9.04H396.86816v-2h29.75977a6.52,6.52,0,1,1,0,13.04h-11.04a4.52,4.52,0,0,0,0,9.04h38.88086a6.52,6.52,0,0,1,0,13.04H395.60742a4.52,4.52,0,1,0,0,9.04H407.127a1.00179,1.00179,0,0,1,.30274.04688,6.52059,6.52059,0,0,1-.78223,12.99316H367.76758a4.52,4.52,0,1,0,0,9.04h29.75976a1,1,0,0,1,0,2Z" fill="#ffa8a4"/><path d="M397.52734,147.89453H367.76758a6.52,6.52,0,1,1,0-13.04h38.87988a4.52,4.52,0,0,0,0-9.04h-11.04a6.52,6.52,0,1,1,0-13.04h58.86133a4.52,4.52,0,0,0,0-9.04H415.58789a6.52017,6.52017,0,0,1-.78223-12.99317,1.00179,1.00179,0,0,1,.30274-.04687h11.51953a4.52,4.52,0,1,0,0-9.04H396.86816v-2h29.75977a6.52,6.52,0,1,1,0,13.04h-11.04a4.52,4.52,0,0,0,0,9.04h38.88086a6.52,6.52,0,0,1,0,13.04H395.60742a4.52,4.52,0,1,0,0,9.04H407.127a1.00148,1.00148,0,0,1,.30274.04688,6.52059,6.52059,0,0,1-.78223,12.99316H367.76758a4.52,4.52,0,1,0,0,9.04h29.75976a1,1,0,0,1,0,2Z" fill="#ffa8a4"/><path d="M246.9834,388.44238H217.22266a6.52,6.52,0,0,1,0-13.04h38.87988a4.52,4.52,0,1,0,0-9.04h-11.04a6.52,6.52,0,0,1,0-13.04h58.86133a4.52,4.52,0,1,0,0-9.04H265.044a6.52017,6.52017,0,0,1-.78223-12.99317,1.00168,1.00168,0,0,1,.30273-.04687H276.084a4.52,4.52,0,0,0,0-9.04H246.32422v-2H276.084a6.52,6.52,0,0,1,0,13.04h-11.04a4.52,4.52,0,0,0,0,9.04h38.87988a6.52,6.52,0,1,1,0,13.04H245.0625a4.52,4.52,0,0,0,0,9.04H256.583a1.00806,1.00806,0,0,1,.30371.04688,6.52065,6.52065,0,0,1-.78418,12.99316H217.22266a4.52,4.52,0,0,0,0,9.04H246.9834a1,1,0,1,1,0,2Z" fill="#ffa8a4"/><path d="M179.19141,431.63379H149.43164a6.52,6.52,0,0,1,0-13.04h38.87988a4.52,4.52,0,1,0,0-9.04h-11.04a6.52,6.52,0,0,1,0-13.04h58.86133a4.52,4.52,0,0,0,0-9.04H197.25293a6.52023,6.52023,0,0,1-.78418-12.99316,1.00806,1.00806,0,0,1,.30371-.04688H208.293a4.52,4.52,0,0,0,0-9.04H178.5332v-2H208.293a6.52,6.52,0,0,1,0,13.04h-11.04a4.52,4.52,0,0,0,0,9.04h38.87988a6.52,6.52,0,0,1,0,13.04H177.27148a4.52,4.52,0,0,0,0,9.04H188.792a1.00775,1.00775,0,0,1,.30371.04688,6.52065,6.52065,0,0,1-.78418,12.99316H149.43164a4.52,4.52,0,0,0,0,9.04h29.75977a1,1,0,1,1,0,2Z" fill="#ffa8a4"/><path d="M522.54492,423.46H492.78516a6.51953,6.51953,0,1,1,0-13.03906H531.665a4.52,4.52,0,1,0,0-9.04h-11.04a6.52,6.52,0,0,1,0-13.04h58.86133a4.52,4.52,0,0,0,0-9.04H540.60645a6.52023,6.52023,0,0,1-.78418-12.99316,1.00775,1.00775,0,0,1,.30371-.04688h11.5205a4.52,4.52,0,0,0,0-9.04H521.88672v-2h29.75976a6.52,6.52,0,0,1,0,13.04h-11.04a4.52,4.52,0,0,0,0,9.04h38.87988a6.52,6.52,0,0,1,0,13.04H520.625a4.52,4.52,0,0,0,0,9.04h11.52051a1.00806,1.00806,0,0,1,.30371.04687,6.52065,6.52065,0,0,1-.78418,12.99317H492.78516a4.51953,4.51953,0,1,0,0,9.03906h29.75976a1,1,0,0,1,0,2Z" fill="#ffa8a4"/><path d="M91.9696,248.62824c.25028-.88321,2.94571-1.32392,5.26906-.65869,2.59939.74445,2.92747,2.35633,5.92782,3.07368a4.7835,4.7835,0,0,0,3.51275-.10988c1.05012-.581,1.522-1.65625,2.08565-3.5126,1.48554-4.89311.74027-5.76739,1.75637-7.79408,1.57034-3.132,5.00716-4.34877,6.3669-4.83a11.99955,11.99955,0,0,1,8.12319-.21946c2.45274.93145,3.53367,2.53916,4.28118,2.08564.82589-.50086-.11785-2.691-.21954-5.37878a16.18731,16.18731,0,0,1,3.29321-9.76985,18.72522,18.72522,0,0,1,11.9653-7.24526,19.20724,19.20724,0,0,1,10.7578,1.31737c1.69042.73313,7.54543,3.272,9.33076,8.67223,1.15539,3.49474-.05881,6.17535,2.08565,8.01324,1.32035,1.13156,2.01879.31952,4.17144,1.53684a10.39923,10.39923,0,0,1,5.04944,7.13539c.2954,2.00078-.35927,2.7893.32935,3.5126,1.19335,1.25365,3.50665-.74981,7.13524-.43893,4.59682.394,7.79378,4.20167,8.782,5.37879,2.20133,2.62225,1.21226,3.95362,2.96379,5.26921,3.47479,2.61,8.91954-.52737,9.76984,1.09761.49268.94128-1.00694,2.62076-2.19537,3.95183-1.33986,1.50051-3.4797,3.897-6.367,3.95183-2.43852.04616-3.53956-1.61367-4.83-.87815-1.17906.67209-.59526,2.24913-1.7563,3.73237-1.37426,1.7557-3.96747,1.81436-6.25709,1.86618-1.94867.04407-6.62619.15008-9.76984-2.9638-2.44656-2.42333-2.42646-5.27367-3.73237-5.2692-1.1329.00387-1.51153,2.15026-3.18341,4.50063a17.09685,17.09685,0,0,1-7.68405,5.59855c-2.29074,1.00947-8.04741,3.546-13.3924,1.427-5.6989-2.25955-6.16135-7.92093-10.53826-7.90366-2.12942.00834-2.12905,1.34894-6.47662,2.30541-2.381.52379-4.98118,1.09583-7.35486-.10988-2.381-1.20958-2.11594-2.97958-3.73229-3.29314-2.86836-.55655-4.24856,4.91187-8.78181,5.70813-3.55749.62474-6.77165-2.02907-7.90373-2.9638a11.8226,11.8226,0,0,1-4.28117-6.69616c-.47347-2.57371.55074-3.26188-.21954-5.26921C95.05169,250.33362,91.67487,249.66839,91.9696,248.62824Z" fill="#ffa8a4"/><path d="M363.9571,140.4892c.25028-.88322,2.94571-1.32393,5.269-.65869,2.59939.74445,2.92747,2.35633,5.92782,3.07368a4.78353,4.78353,0,0,0,3.51276-.10988c1.05012-.581,1.522-1.65625,2.08564-3.51261,1.48555-4.89311.74028-5.76739,1.75638-7.79407,1.57034-3.132,5.00716-4.34877,6.36689-4.83a11.99956,11.99956,0,0,1,8.1232-.21947c2.45273.93146,3.53367,2.53917,4.28117,2.08565.82589-.50087-.11784-2.691-.21953-5.37879a16.18727,16.18727,0,0,1,3.29321-9.76984,18.72529,18.72529,0,0,1,11.9653-7.24527,19.20718,19.20718,0,0,1,10.75779,1.31738c1.69042.73313,7.54543,3.272,9.33077,8.67222,1.15538,3.49474-.05881,6.17535,2.08565,8.01324,1.32035,1.13157,2.01879.31952,4.17144,1.53684a10.39927,10.39927,0,0,1,5.04944,7.13539c.2954,2.00078-.35927,2.7893.32935,3.51261,1.19335,1.25365,3.50664-.74981,7.13523-.43893,4.59682.394,7.79378,4.20167,8.782,5.37879,2.20134,2.62224,1.21226,3.95361,2.9638,5.2692,3.47479,2.61,8.91953-.52736,9.76984,1.09762.49268.94128-1.00694,2.62075-2.19538,3.95183-1.33985,1.50051-3.4797,3.897-6.367,3.95183-2.43852.04615-3.53956-1.61367-4.83-.87816-1.17906.67209-.59527,2.24913-1.75631,3.73237-1.37425,1.75571-3.96746,1.81437-6.25708,1.86618-1.94867.04407-6.62619.15008-9.76985-2.96379-2.44655-2.42333-2.42645-5.27368-3.73236-5.26921-1.1329.00387-1.51153,2.15027-3.18341,4.50064a17.097,17.097,0,0,1-7.68405,5.59855c-2.29074,1.00947-8.04741,3.546-13.3924,1.427-5.6989-2.25954-6.16135-7.92092-10.53826-7.90365-2.12942.00833-2.12905,1.34894-6.47663,2.3054-2.381.5238-4.98117,1.09583-7.35485-.10988-2.381-1.20958-2.11594-2.97958-3.73229-3.29314-2.86836-.55655-4.24857,4.91187-8.78181,5.70813-3.55749.62474-6.77165-2.02906-7.90373-2.96379a11.82273,11.82273,0,0,1-4.28118-6.69617c-.47346-2.5737.55075-3.26187-.21953-5.2692C367.03919,142.19458,363.66237,141.52934,363.9571,140.4892Z" fill="#ffa8a4"/><path d="M167.86207,456.86879c.25029-.88321,2.94571-1.32392,5.26906-.65868,2.59939.74444,2.92747,2.35632,5.92782,3.07367a4.78345,4.78345,0,0,0,3.51275-.10988c1.05012-.581,1.522-1.65625,2.08565-3.5126,1.48554-4.89311.74028-5.76739,1.75637-7.79408,1.57034-3.132,5.00716-4.34877,6.3669-4.83a11.99955,11.99955,0,0,1,8.12319-.21946c2.45274.93145,3.53368,2.53916,4.28118,2.08565.82589-.50087-.11785-2.691-.21954-5.37879a16.18726,16.18726,0,0,1,3.29322-9.76984,18.72521,18.72521,0,0,1,11.96529-7.24527,19.20733,19.20733,0,0,1,10.7578,1.31737c1.69042.73314,7.54543,3.272,9.33076,8.67223,1.15539,3.49474-.05881,6.17535,2.08565,8.01324,1.32035,1.13156,2.0188.31952,4.17144,1.53684a10.39929,10.39929,0,0,1,5.04945,7.13539c.29539,2.00078-.35927,2.7893.32934,3.5126,1.19335,1.25365,3.50665-.7498,7.13524-.43892,4.59682.394,7.79378,4.20166,8.782,5.37878,2.20133,2.62225,1.21226,3.95362,2.9638,5.26921,3.47478,2.61,8.91953-.52737,9.76984,1.09761.49267.94128-1.00694,2.62076-2.19538,3.95183-1.33986,1.50051-3.4797,3.897-6.367,3.95183-2.43851.04616-3.53955-1.61366-4.83-.87815-1.17906.67209-.59526,2.24913-1.7563,3.73237-1.37425,1.7557-3.96746,1.81437-6.25709,1.86618-1.94867.04407-6.62619.15008-9.76984-2.9638-2.44656-2.42333-2.42646-5.27367-3.73237-5.2692-1.1329.00387-1.51153,2.15026-3.18341,4.50063a17.09688,17.09688,0,0,1-7.684,5.59855c-2.29075,1.00948-8.04741,3.546-13.3924,1.427-5.69891-2.25955-6.16136-7.92093-10.53827-7.90366-2.12942.00834-2.129,1.34894-6.47662,2.30541-2.381.52379-4.98118,1.09583-7.35485-.10988-2.38105-1.20958-2.11595-2.97958-3.73229-3.29314-2.86836-.55655-4.24857,4.91187-8.78181,5.70813-3.5575.62474-6.77165-2.02907-7.90374-2.9638a11.82265,11.82265,0,0,1-4.28117-6.69616c-.47347-2.57371.55074-3.26188-.21954-5.26921C170.94416,458.57418,167.56735,457.90894,167.86207,456.86879Z" fill="#ffa8a4"/><path d="M476.80868,350.22479c.25028-.88322,2.94571-1.32393,5.26906-.65869,2.59939.74445,2.92747,2.35633,5.92782,3.07368a4.78355,4.78355,0,0,0,3.51275-.10988c1.05012-.581,1.522-1.65625,2.08565-3.51261,1.48554-4.89311.74028-5.76739,1.75637-7.79407,1.57034-3.13205,5.00716-4.34877,6.3669-4.83a11.99955,11.99955,0,0,1,8.12319-.21946c2.45274.93146,3.53368,2.53917,4.28118,2.08565.82589-.50087-.11785-2.691-.21954-5.37879a16.18727,16.18727,0,0,1,3.29321-9.76984,18.72525,18.72525,0,0,1,11.9653-7.24527,19.20722,19.20722,0,0,1,10.7578,1.31738c1.69042.73313,7.54543,3.272,9.33076,8.67222,1.15539,3.49474-.05881,6.17535,2.08565,8.01324,1.32035,1.13157,2.01879.31952,4.17144,1.53684a10.39927,10.39927,0,0,1,5.04944,7.13539c.2954,2.00078-.35927,2.7893.32935,3.51261,1.19335,1.25365,3.50665-.74981,7.13524-.43893,4.59682.394,7.79378,4.20167,8.782,5.37879,2.20133,2.62224,1.21226,3.95361,2.96379,5.2692,3.47479,2.61,8.91954-.52737,9.76985,1.09762.49267.94128-1.00695,2.62075-2.19538,3.95183-1.33986,1.50051-3.4797,3.897-6.367,3.95182-2.43852.04616-3.53955-1.61366-4.83-.87815-1.17906.67209-.59526,2.24913-1.7563,3.73237-1.37426,1.75571-3.96747,1.81437-6.25709,1.86618-1.94867.04407-6.62619.15008-9.76984-2.96379-2.44656-2.42333-2.42646-5.27368-3.73237-5.26921-1.1329.00387-1.51153,2.15026-3.18341,4.50064a17.097,17.097,0,0,1-7.68405,5.59855c-2.29074,1.00947-8.04741,3.546-13.3924,1.42695-5.6989-2.25955-6.16135-7.92093-10.53826-7.90365-2.12942.00833-2.12905,1.34894-6.47662,2.3054-2.381.5238-4.98118,1.09583-7.35485-.10988-2.38105-1.20958-2.11595-2.97958-3.7323-3.29314-2.86836-.55655-4.24856,4.91187-8.78181,5.70813-3.55749.62474-6.77165-2.02907-7.90373-2.96379a11.82268,11.82268,0,0,1-4.28117-6.69617c-.47347-2.57371.55074-3.26187-.21954-5.2692C479.89077,351.93017,476.514,351.26493,476.80868,350.22479Z" fill="#ffa8a4"/><path d="M297.63286,164.256a5.63325,5.63325,0,0,1-4.87358-4.92229c-9.62259-1.43272,8.104-25.24,8.104-25.24h0s12.66128,27.00166,2.9511,26.40215a5.63326,5.63326,0,0,1-5.79059,3.80129Z" fill="#ffa8a4"/><path d="M271.05655,139.31058a5.63325,5.63325,0,0,1,3.31827-6.08028c-1.38643-9.62938,26.50391.52691,26.50391.52691h0s-22.23773,19.87161-24.4475,10.39723a5.63327,5.63327,0,0,1-5.302-4.45757Z" fill="#ffa8a4"/><path d="M285.91028,106.58959a5.63326,5.63326,0,0,1,6.81107,1.261c8.71955-4.31467,7.74855,25.35143,7.74855,25.35143h0s-25.806-14.94816-17.49-19.997a5.63326,5.63326,0,0,1,2.58593-6.426Z" fill="#ffa8a4"/><path d="M321.88443,111.57741a5.63326,5.63326,0,0,1,.83857,6.87587c6.72992,7.02533-21.8632,14.99118-21.8632,14.99118h0s6.52568-29.10006,13.83508-22.6798a5.63325,5.63325,0,0,1,6.90566.54087Z" fill="#ffa8a4"/><path d="M329.82159,144.25761a5.63327,5.63327,0,0,1-5.9328,3.57529c-3.66162,9.01329-22.61694-13.82783-22.61694-13.82783h0s29.226-5.9363,26.35341,3.35861a5.63325,5.63325,0,0,1,2.32846,6.52372Z" fill="#ffa8a4"/><path d="M298.96577,149.6184a3.00106,3.00106,0,0,1-2.59635-2.62229c-5.12632-.76327,4.31731-13.44635,4.31731-13.44635h0s6.74516,14.38482,1.57217,14.06544a3.001,3.001,0,0,1-3.08487,2.02509Z" fill="#65c9de"/><path d="M284.80754,136.329a3.00105,3.00105,0,0,1,1.76777-3.2392c-.7386-5.12994,14.11965.28071,14.11965.28071h0s-11.84689,10.58637-13.02412,5.539a3.001,3.001,0,0,1-2.82456-2.37471Z" fill="#65c9de"/><path d="M292.7207,118.89729a3.00106,3.00106,0,0,1,3.62852.67177c4.64523-2.2986,4.12794,13.50568,4.12794,13.50568h0s-13.74785-7.96346-9.3176-10.65319a3.00105,3.00105,0,0,1,1.37762-3.42339Z" fill="#65c9de"/><path d="M311.88551,121.55449a3.00106,3.00106,0,0,1,.44674,3.663c3.58529,3.74267-11.64737,7.98638-11.64737,7.98638h0s3.47648-15.50272,7.37048-12.0824a3.00106,3.00106,0,0,1,3.67891.28814Z" fill="#65c9de"/><path d="M316.11394,138.9645a3.00105,3.00105,0,0,1-3.16063,1.90469c-1.95069,4.80173-12.04891-7.36662-12.04891-7.36662h0s15.5698-3.16249,14.03947,1.78926a3.00105,3.00105,0,0,1,1.24046,3.47544Z" fill="#65c9de"/><path d="M517.41034,230.81558a5.63328,5.63328,0,0,1-4.87359-4.92229c-9.62259-1.43272,8.104-25.24,8.104-25.24h0s12.66128,27.00165,2.9511,26.40214a5.63325,5.63325,0,0,1-5.79059,3.80129Z" fill="#ffa8a4"/><path d="M490.834,205.87017a5.63326,5.63326,0,0,1,3.31827-6.08028c-1.38643-9.62937,26.50391.52691,26.50391.52691h0s-22.23773,19.87161-24.44749,10.39723a5.63325,5.63325,0,0,1-5.302-4.45756Z" fill="#ffa8a4"/><path d="M505.68775,173.14919a5.63328,5.63328,0,0,1,6.81108,1.261c8.71954-4.31468,7.74854,25.35143,7.74854,25.35143h0s-25.806-14.94816-17.49-19.997a5.63326,5.63326,0,0,1,2.58592-6.426Z" fill="#ffa8a4"/><path d="M541.6619,178.137a5.63327,5.63327,0,0,1,.83858,6.87587c6.72991,7.02532-21.8632,14.99117-21.8632,14.99117h0s6.52567-29.10005,13.83507-22.67979a5.63325,5.63325,0,0,1,6.90566.54087Z" fill="#ffa8a4"/><path d="M549.59907,210.81721a5.63326,5.63326,0,0,1-5.9328,3.57528c-3.66163,9.01329-22.61694-13.82783-22.61694-13.82783h0s29.226-5.93629,26.3534,3.35861a5.63327,5.63327,0,0,1,2.32846,6.52373Z" fill="#ffa8a4"/><path d="M518.74324,216.178a3.00105,3.00105,0,0,1-2.59634-2.6223c-5.12633-.76326,4.31731-13.44634,4.31731-13.44634h0s6.74515,14.38482,1.57216,14.06544a3.00106,3.00106,0,0,1-3.08487,2.02509Z" fill="#65c9de"/><path d="M504.585,202.88862a3.00105,3.00105,0,0,1,1.76777-3.2392c-.7386-5.12994,14.11966.2807,14.11966.2807h0s-11.8469,10.58638-13.02413,5.539a3.00106,3.00106,0,0,1-2.82456-2.37472Z" fill="#65c9de"/><path d="M512.49817,185.45689a3.00105,3.00105,0,0,1,3.62852.67177c4.64524-2.2986,4.12795,13.50568,4.12795,13.50568h0s-13.74786-7.96346-9.31761-10.6532a3.001,3.001,0,0,1,1.37762-3.42338Z" fill="#65c9de"/><path d="M531.663,188.11409a3.001,3.001,0,0,1,.44675,3.663c3.58528,3.74266-11.64737,7.98638-11.64737,7.98638h0s3.47648-15.50272,7.37047-12.0824a3.00105,3.00105,0,0,1,3.67892.28814Z" fill="#65c9de"/><path d="M535.89142,205.52409a3.00105,3.00105,0,0,1-3.16063,1.90469c-1.95069,4.80173-12.04892-7.36661-12.04892-7.36661h0s15.56981-3.1625,14.03948,1.78926a3.00106,3.00106,0,0,1,1.24046,3.47544Z" fill="#65c9de"/><path d="M408.12969,491.67558a5.63326,5.63326,0,0,1-4.87358-4.92229c-9.62259-1.43272,8.104-25.24,8.104-25.24h0s12.66128,27.00165,2.95111,26.40214a5.63325,5.63325,0,0,1-5.79059,3.80129Z" fill="#ffa8a4"/><path d="M381.55337,466.73017a5.63327,5.63327,0,0,1,3.31827-6.08028c-1.38642-9.62937,26.50391.52691,26.50391.52691h0s-22.23773,19.87161-24.44749,10.39723a5.63325,5.63325,0,0,1-5.302-4.45756Z" fill="#ffa8a4"/><path d="M396.40711,434.00919a5.63327,5.63327,0,0,1,6.81107,1.261c8.71954-4.31468,7.74854,25.35143,7.74854,25.35143h0s-25.806-14.94816-17.49-19.997a5.63326,5.63326,0,0,1,2.58592-6.426Z" fill="#ffa8a4"/><path d="M432.38125,438.997a5.63327,5.63327,0,0,1,.83858,6.87587c6.72991,7.02532-21.8632,14.99117-21.8632,14.99117h0s6.52567-29.10005,13.83507-22.67979a5.63326,5.63326,0,0,1,6.90567.54087Z" fill="#ffa8a4"/><path d="M440.31842,471.67721a5.63326,5.63326,0,0,1-5.9328,3.57528c-3.66163,9.01329-22.61694-13.82783-22.61694-13.82783h0s29.226-5.93629,26.3534,3.35861a5.63327,5.63327,0,0,1,2.32847,6.52373Z" fill="#ffa8a4"/><path d="M409.46259,477.038a3.00105,3.00105,0,0,1-2.59634-2.6223c-5.12633-.76326,4.31731-13.44634,4.31731-13.44634h0s6.74515,14.38482,1.57216,14.06544a3.001,3.001,0,0,1-3.08487,2.02509Z" fill="#65c9de"/><path d="M395.30436,463.74862a3.00105,3.00105,0,0,1,1.76777-3.2392c-.7386-5.12994,14.11966.2807,14.11966.2807h0s-11.8469,10.58638-13.02412,5.539a3.00107,3.00107,0,0,1-2.82457-2.37472Z" fill="#65c9de"/><path d="M403.21752,446.31689a3.00105,3.00105,0,0,1,3.62852.67177c4.64524-2.2986,4.12795,13.50568,4.12795,13.50568h0s-13.74786-7.96346-9.31761-10.6532a3.00105,3.00105,0,0,1,1.37763-3.42338Z" fill="#65c9de"/><path d="M422.38234,448.97409a3.00106,3.00106,0,0,1,.44674,3.663c3.58528,3.74266-11.64737,7.98638-11.64737,7.98638h0s3.47648-15.50272,7.37047-12.0824a3.00105,3.00105,0,0,1,3.67892.28814Z" fill="#65c9de"/><path d="M426.61077,466.38409a3.00105,3.00105,0,0,1-3.16063,1.90469c-1.95069,4.80173-12.04892-7.36661-12.04892-7.36661h0s15.56981-3.1625,14.03948,1.78926a3.00106,3.00106,0,0,1,1.24046,3.47544Z" fill="#65c9de"/><path d="M261.31183,205.53084c-5.5958,2.1352-8.897-2.82285-8.897-2.82285-12.37953,4.31418-6.13-35.19212-6.13-35.19212h0s32.012,24.295,20.04957,29.65824c0,0,1.00409,5.87132-4.53027,8.161Z" fill="#65c9de"/><path d="M213.98225,192.40056c-3.65-4.74865.15337-9.33287.15337-9.33287-7.68251-10.6228,31.957-15.963,31.957-15.963h0s-14.09644,37.63383-22.66441,27.71139c0,0-5.33691,2.64537-9.11731-2.00012Z" fill="#65c9de"/><path d="M211.22353,144.056c3.37672-4.94669,8.917-2.75908,8.917-2.75908,7.704-10.60723,25.11659,25.40117,25.11659,25.40117h0s-40.152-1.6828-33.38917-12.91353c0,0-4.17507-4.24845-.937-9.287Z" fill="#65c9de"/><path d="M257.27388,127.48782c5.73138,1.73873,5.305,7.68,5.305,7.68,12.42873,4.17032-16.70471,31.57554-16.70471,31.57554h0s-10.42985-38.8102,2.3116-35.72467c0,0,2.80166-5.25655,8.57911-3.6776Z" fill="#65c9de"/><path d="M287.20343,161.51633c.7553,5.94151-4.84144,7.98037-4.84144,7.98037,1.273,13.04778-35.64514-2.3423-35.64514-2.3423h0s31.15915-25.37953,33.55-12.48967c0,0,5.94251.40887,6.86247,6.32712Z" fill="#65c9de"/><path d="M253.7391,187.22942a4.044,4.044,0,0,1-4.7398-1.50385c-6.59505,2.29833-3.2657-18.74819-3.2657-18.74819h0s17.054,12.94286,10.68117,15.80008a4.044,4.044,0,0,1-2.41344,4.34771Z" fill="#ffa8a4"/><path d="M228.52481,180.23441a4.044,4.044,0,0,1,.08171-4.972c-4.09277-5.65918,17.02469-8.50408,17.02469-8.50408h0s-7.50971,20.049-12.0742,14.76292a4.044,4.044,0,0,1-4.85714-1.06554Z" fill="#ffa8a4"/><path d="M227.05513,154.47942a4.044,4.044,0,0,1,4.75045-1.46987c4.10421-5.65088,13.38057,13.53218,13.38057,13.53218h0s-21.39051-.89649-17.7877-6.87953a4.044,4.044,0,0,1-.49916-4.94753Z" fill="#ffa8a4"/><path d="M251.58793,145.65289a4.044,4.044,0,0,1,2.8262,4.09143c6.62126,2.2217-8.89925,16.82152-8.89925,16.82152h0s-5.55638-20.6757,1.23148-19.03192a4.044,4.044,0,0,1,4.57043-1.9592Z" fill="#ffa8a4"/><path d="M267.53256,163.78119a4.044,4.044,0,0,1-2.57923,4.25145c.67818,6.95105-18.98954-1.24783-18.98954-1.24783h0s16.59969-13.52066,17.87339-6.65373a4.044,4.044,0,0,1,3.65591,3.3707Z" fill="#ffa8a4"/><path d="M478.42251,446.21149c-5.59579,2.1352-8.897-2.82285-8.897-2.82285-12.37953,4.31417-6.13-35.19212-6.13-35.19212h0s32.012,24.295,20.04956,29.65824c0,0,1.0041,5.87131-4.53026,8.161Z" fill="#65c9de"/><path d="M431.09293,433.08121c-3.65-4.74865.15337-9.33287.15337-9.33287-7.6825-10.62281,31.957-15.963,31.957-15.963h0s-14.09643,37.63382-22.6644,27.71139c0,0-5.33691,2.64536-9.11732-2.00012Z" fill="#65c9de"/><path d="M428.33421,384.73669c3.37673-4.94669,8.917-2.75908,8.917-2.75908,7.704-10.60723,25.11658,25.40117,25.11658,25.40117h0s-40.152-1.6828-33.38917-12.91353c0,0-4.17507-4.24845-.937-9.287Z" fill="#65c9de"/><path d="M474.38456,368.16847c5.73139,1.73873,5.305,7.68,5.305,7.68,12.42872,4.17032-16.70471,31.57554-16.70471,31.57554h0s-10.42985-38.81021,2.31159-35.72468c0,0,2.80167-5.25654,8.57912-3.67759Z" fill="#65c9de"/><path d="M504.31411,402.197c.75531,5.94151-4.84144,7.98037-4.84144,7.98037,1.273,13.04777-35.64514-2.3423-35.64514-2.3423h0s31.15916-25.37954,33.55-12.48967c0,0,5.9425.40887,6.86247,6.32712Z" fill="#65c9de"/><path d="M470.84979,427.91006a4.044,4.044,0,0,1-4.7398-1.50384c-6.595,2.29833-3.26571-18.7482-3.26571-18.7482h0s17.054,12.94287,10.68118,15.80009a4.044,4.044,0,0,1-2.41345,4.3477Z" fill="#ffa8a4"/><path d="M445.6355,420.91506a4.044,4.044,0,0,1,.0817-4.972c-4.09276-5.65918,17.0247-8.50408,17.0247-8.50408h0s-7.50971,20.049-12.0742,14.76292a4.044,4.044,0,0,1-4.85715-1.06554Z" fill="#ffa8a4"/><path d="M444.16582,395.16007a4.044,4.044,0,0,1,4.75044-1.46987c4.10422-5.65088,13.38058,13.53218,13.38058,13.53218h0s-21.39051-.89649-17.7877-6.87953a4.044,4.044,0,0,1-.49916-4.94754Z" fill="#ffa8a4"/><path d="M468.69862,386.33354a4.044,4.044,0,0,1,2.82619,4.09143c6.62126,2.2217-8.89924,16.82151-8.89924,16.82151h0s-5.55638-20.67569,1.23148-19.03191a4.044,4.044,0,0,1,4.57042-1.9592Z" fill="#ffa8a4"/><path d="M484.64324,404.46184a4.044,4.044,0,0,1-2.57922,4.25145c.67817,6.95105-18.98954-1.24783-18.98954-1.24783h0s16.59968-13.52066,17.87339-6.65373a4.044,4.044,0,0,1,3.6559,3.37069Z" fill="#ffa8a4"/><path d="M301.20966,204.39648a3.65455,3.65455,0,0,1-3.45364-2.875c-6.303-.32593,3.66129-16.80335,3.66129-16.80335h0s9.85752,16.64773,3.54987,16.8653a3.65453,3.65453,0,0,1-3.50252,2.81528Z" fill="#ffa8a4"/><path d="M282.49462,189.94313a3.65453,3.65453,0,0,1,1.76411-4.133c-1.495-6.13179,17.14761-1.31029,17.14761-1.31029h0s-13.12242,14.21688-15.13939,8.23645a3.65454,3.65454,0,0,1-3.70132-2.54828Z" fill="#ffa8a4"/><path d="M290.04865,167.88866a3.65453,3.65453,0,0,1,4.47675.39011c5.36191-3.32921,6.58236,15.888,6.58236,15.888h0s-17.595-8.04564-12.53943-11.82382a3.65451,3.65451,0,0,1,1.26966-4.31061Z" fill="#ffa8a4"/><path d="M313.58943,168.86922a3.65454,3.65454,0,0,1,.96971,4.38784c4.78332,4.11747-13.1845,11.042-13.1845,11.042h0s2.40171-19.19764,7.52155-15.507a3.65454,3.65454,0,0,1,4.493-.08079Z" fill="#ffa8a4"/><path d="M320.75,189.478a3.65454,3.65454,0,0,1-3.60843,2.67819c-1.80317,6.04833-15.46594-7.52078-15.46594-7.52078h0s18.50288-5.6534,17.22677.52764a3.65454,3.65454,0,0,1,1.90987,4.06766Z" fill="#ffa8a4"/><path d="M301.15881,194.86131a1.94691,1.94691,0,0,1-1.83988-1.53165c-3.35784-.17363,1.95051-8.95179,1.95051-8.95179h0s5.25148,8.86889,1.89115,8.9848a1.94691,1.94691,0,0,1-1.86593,1.49981Z" fill="#ffcb5c"/><path d="M291.18859,187.16146a1.94691,1.94691,0,0,1,.93981-2.20179c-.79642-3.26664,9.13519-.698,9.13519-.698h0s-6.99081,7.57388-8.06533,4.38788a1.94693,1.94693,0,0,1-1.97184-1.35757Z" fill="#ffcb5c"/><path d="M295.21291,175.41219a1.94691,1.94691,0,0,1,2.38494.20782c2.8565-1.77359,3.50668,8.46417,3.50668,8.46417h0s-9.37355-4.28621-6.68024-6.299a1.94691,1.94691,0,0,1,.6764-2.29643Z" fill="#ffcb5c"/><path d="M307.754,175.93457a1.9469,1.9469,0,0,1,.51659,2.33757c2.54826,2.19354-7.02388,5.88252-7.02388,5.88252h0s1.27948-10.22732,4.007-8.26116a1.94689,1.94689,0,0,1,2.39358-.043Z" fill="#ffcb5c"/><path d="M311.56871,186.91368a1.94691,1.94691,0,0,1-1.92235,1.42678c-.96062,3.22218-8.2393-4.00661-8.2393-4.00661h0s9.85719-3.01179,9.17736.28109a1.94691,1.94691,0,0,1,1.01746,2.167Z" fill="#ffcb5c"/><path d="M403.36385,425.7846a3.65453,3.65453,0,0,1-3.45363-2.875c-6.303-.32592,3.66128-16.80334,3.66128-16.80334h0s9.85752,16.64772,3.54987,16.8653a3.65453,3.65453,0,0,1-3.50252,2.81528Z" fill="#65c9de"/><path d="M384.64881,411.33125a3.65454,3.65454,0,0,1,1.76411-4.133c-1.49495-6.13178,17.14761-1.31029,17.14761-1.31029h0s-13.12241,14.21688-15.13938,8.23645a3.65454,3.65454,0,0,1-3.70133-2.54827Z" fill="#65c9de"/><path d="M392.20284,389.27678a3.65453,3.65453,0,0,1,4.47675.3901c5.36191-3.3292,6.58236,15.888,6.58236,15.888h0s-17.595-8.04563-12.53943-11.82381a3.65454,3.65454,0,0,1,1.26967-4.31062Z" fill="#65c9de"/><path d="M415.74362,390.25733a3.65454,3.65454,0,0,1,.96971,4.38785c4.78332,4.11747-13.1845,11.042-13.1845,11.042h0s2.40171-19.19763,7.52155-15.507a3.65453,3.65453,0,0,1,4.493-.08079Z" fill="#65c9de"/><path d="M422.90419,410.86616a3.65453,3.65453,0,0,1-3.60843,2.67819c-1.80317,6.04833-15.46594-7.52079-15.46594-7.52079h0s18.50288-5.6534,17.22677.52764a3.65454,3.65454,0,0,1,1.90987,4.06767Z" fill="#65c9de"/><path d="M403.313,416.24943a1.94692,1.94692,0,0,1-1.83989-1.53165c-3.35784-.17363,1.95051-8.95179,1.95051-8.95179h0s5.25148,8.86888,1.89115,8.9848a1.94689,1.94689,0,0,1-1.86593,1.4998Z" fill="#ffcb5c"/><path d="M393.34278,408.54957a1.94691,1.94691,0,0,1,.93981-2.20179c-.79642-3.26664,9.13519-.698,9.13519-.698h0s-6.99081,7.57388-8.06533,4.38787a1.94691,1.94691,0,0,1-1.97184-1.35756Z" fill="#ffcb5c"/><path d="M397.3671,396.8003a1.94692,1.94692,0,0,1,2.38494.20783c2.8565-1.7736,3.50668,8.46417,3.50668,8.46417h0s-9.37355-4.28622-6.68024-6.299a1.94691,1.94691,0,0,1,.6764-2.29643Z" fill="#ffcb5c"/><path d="M409.90819,397.32268a1.94693,1.94693,0,0,1,.5166,2.33758c2.54826,2.19353-7.02389,5.88251-7.02389,5.88251h0s1.27948-10.22732,4.007-8.26116a1.94692,1.94692,0,0,1,2.39359-.043Z" fill="#ffcb5c"/><path d="M413.7229,408.3018a1.94691,1.94691,0,0,1-1.92235,1.42678c-.96062,3.22217-8.2393-4.00662-8.2393-4.00662h0s9.85719-3.01178,9.17736.2811a1.94691,1.94691,0,0,1,1.01746,2.167Z" fill="#ffcb5c"/><path d="M472.7419,244.48369a3.65453,3.65453,0,0,1-3.45364-2.875c-6.303-.32593,3.66129-16.80335,3.66129-16.80335h0s9.85752,16.64773,3.54987,16.8653a3.65452,3.65452,0,0,1-3.50252,2.81528Z" fill="#65c9de"/><path d="M454.02686,230.03035a3.65453,3.65453,0,0,1,1.7641-4.133c-1.49495-6.13179,17.14762-1.31029,17.14762-1.31029h0s-13.12242,14.21688-15.13939,8.23645a3.65454,3.65454,0,0,1-3.70132-2.54827Z" fill="#65c9de"/><path d="M461.58088,207.97587a3.65453,3.65453,0,0,1,4.47675.39011c5.36192-3.3292,6.58237,15.888,6.58237,15.888h0s-17.595-8.04563-12.53944-11.82381a3.65454,3.65454,0,0,1,1.26967-4.31062Z" fill="#65c9de"/><path d="M485.12167,208.95643a3.65453,3.65453,0,0,1,.9697,4.38784c4.78333,4.11747-13.18449,11.042-13.18449,11.042h0s2.40171-19.19764,7.52155-15.507a3.65454,3.65454,0,0,1,4.493-.08079Z" fill="#65c9de"/><path d="M492.28224,229.56525a3.65454,3.65454,0,0,1-3.60843,2.6782c-1.80318,6.04833-15.46594-7.52079-15.46594-7.52079h0s18.50288-5.6534,17.22677.52764a3.65453,3.65453,0,0,1,1.90986,4.06767Z" fill="#65c9de"/><path d="M472.69105,234.94852a1.94691,1.94691,0,0,1-1.83988-1.53164c-3.35784-.17364,1.95051-8.95179,1.95051-8.95179h0s5.25148,8.86888,1.89115,8.98479a1.94692,1.94692,0,0,1-1.86593,1.49981Z" fill="#ffcb5c"/><path d="M462.72083,227.24867a1.94691,1.94691,0,0,1,.93981-2.20179c-.79642-3.26664,9.13519-.698,9.13519-.698h0s-6.99081,7.57388-8.06533,4.38788a1.94691,1.94691,0,0,1-1.97184-1.35756Z" fill="#ffcb5c"/><path d="M466.74515,215.4994a1.94691,1.94691,0,0,1,2.38494.20782c2.8565-1.77359,3.50668,8.46418,3.50668,8.46418h0s-9.37355-4.28622-6.68024-6.299a1.94693,1.94693,0,0,1,.6764-2.29644Z" fill="#ffcb5c"/><path d="M479.28623,216.02178a1.9469,1.9469,0,0,1,.5166,2.33757c2.54826,2.19354-7.02388,5.88252-7.02388,5.88252h0s1.27948-10.22732,4.007-8.26116a1.9469,1.9469,0,0,1,2.39359-.043Z" fill="#ffcb5c"/><path d="M483.101,227.0009a1.94692,1.94692,0,0,1-1.92235,1.42677c-.96062,3.22218-8.2393-4.00661-8.2393-4.00661h0s9.85719-3.01179,9.17736.28109a1.94692,1.94692,0,0,1,1.01746,2.167Z" fill="#ffcb5c"/><path d="M524.91344,287.91532c-3.89943,2.97683-7.644-.15084-7.644-.15084-8.72179,6.264-12.98877-26.21873-12.98877-26.21873h0s30.7874,11.64791,22.63689,18.639c0,0,2.15237,4.37856-1.66291,7.4625Z" fill="#ffa8a4"/><path d="M484.6876,288.59466c-3.96989-2.88219-2.04719-7.36635-2.04719-7.36635-8.50168-6.55959,21.39378-19.96086,21.39378-19.96086h0s-2.33149,32.83446-11.366,27.03065c0,0-3.57759,3.31743-7.626.54656Z" fill="#ffa8a4"/><path d="M471.29212,251.262c1.50341-4.66978,6.36327-4.23827,6.36327-4.23827,3.58764-10.121,25.62815,14.11836,25.62815,14.11836h0s-31.9292,8.004-29.22565-2.38823c0,0-4.26617-2.36734-2.893-7.07706Z" fill="#ffa8a4"/><path d="M503.61533,227.55238c4.9057.03455,5.95074,4.8003,5.95074,4.8003,10.731.389-5.78733,28.68164-5.78733,28.68164h0s-17.2065-28.062-6.48177-28.59771c0,0,.97974-4.7796,5.88451-4.88126Z" fill="#ffa8a4"/><path d="M535.02775,247.32942c1.97325,4.49147-1.9493,7.39286-1.9493,7.39286,4.03041,9.953-28.54237,6.43918-28.54237,6.43918h0s18.58-27.172,23.45181-17.6027c0,0,4.76265-1.05906,6.85985,3.3759Z" fill="#ffa8a4"/><path d="M514.71454,275.29887a3.31245,3.31245,0,0,1-4.07228-.08036c-4.64643,3.33706-6.91961-13.96773-6.91961-13.96773h0s16.40163,6.20529,12.05954,9.92974a3.31244,3.31244,0,0,1-.8859,3.97556Z" fill="#ffcb5c"/><path d="M493.28469,275.66078a3.31244,3.31244,0,0,1-1.09063-3.92434c-4.52917-3.49454,11.3973-10.63392,11.3973-10.63392h0s-1.24208,17.49218-6.05512,14.40027a3.31245,3.31245,0,0,1-4.06265.29118Z" fill="#ffcb5c"/><path d="M486.1484,255.77225a3.31242,3.31242,0,0,1,3.38995-2.25789c1.91128-5.39188,13.65311,7.52139,13.65311,7.52139h0s-17.00992,4.264-15.56964-1.2723a3.31246,3.31246,0,0,1-1.5412-3.77023Z" fill="#ffcb5c"/><path d="M503.36822,243.14121a3.31243,3.31243,0,0,1,3.17018,2.5573c5.71685.20722-3.08313,15.27982-3.08313,15.27982h0s-9.16657-14.9497-3.45309-15.23511a3.31243,3.31243,0,0,1,3.1349-2.60043Z" fill="#ffcb5c"/><path d="M520.10282,253.6772a3.31244,3.31244,0,0,1-1.03846,3.93846c2.14715,5.30236-15.20563,3.4304-15.20563,3.4304h0s9.8983-14.4756,12.49369-9.37764a3.31244,3.31244,0,0,1,3.6545,1.79847Z" fill="#ffcb5c"/><path d="M176.056,377.29738a5.63326,5.63326,0,0,1,4.36839-5.37568c.38732-9.721,25.96643,5.33661,25.96643,5.33661h0s-25.47985,15.49757-25.93033,5.77934a5.63326,5.63326,0,0,1-4.40321-5.34719Z" fill="#ffcb5c"/><path d="M197.99188,348.18743a5.63326,5.63326,0,0,1,6.40249,2.64365c9.42386-2.41613,2.33255,26.40633,2.33255,26.40633h0s-22.15249-19.96659-12.97144-23.18457a5.63326,5.63326,0,0,1,3.86019-5.75149Z" fill="#ffcb5c"/><path d="M232.12311,359.42823a5.63326,5.63326,0,0,1-.51958,6.9073c5.22927,8.20375-24.36869,10.43559-24.36869,10.43559h0s12.07991-27.2667,17.99563-19.54327a5.63326,5.63326,0,0,1,6.66728,1.87832Z" fill="#ffcb5c"/><path d="M231.04136,395.7304a5.63326,5.63326,0,0,1-6.74544,1.57472c-6.25911,7.44785-17.26011-20.12023-17.26011-20.12023h0s29.63384,3.35149,24.03873,11.31024a5.63326,5.63326,0,0,1,.20653,6.92373Z" fill="#ffcb5c"/><path d="M199.40691,407.14336a5.63327,5.63327,0,0,1-4.19385-5.51293c-9.35542-2.66892,11.30981-23.97547,11.30981-23.97547h0s9.05147,28.416-.49888,26.56188a5.63327,5.63327,0,0,1-6.23479,3.018Z" fill="#ffcb5c"/><path d="M190.75194,377.045a3.00105,3.00105,0,0,1,2.32721-2.86383c.20634-5.17873,13.83331,2.843,13.83331,2.843h0s-13.57409,8.25615-13.81408,3.07887a3.001,3.001,0,0,1-2.34576-2.84865Z" fill="#65c9de"/><path d="M202.43805,361.537a3.001,3.001,0,0,1,3.41085,1.40838c5.02046-1.28717,1.24264,14.06766,1.24264,14.06766h0s-11.80148-10.637-6.91038-12.35131a3.001,3.001,0,0,1,2.05647-3.064Z" fill="#65c9de"/><path d="M220.62107,367.52541a3.00105,3.00105,0,0,1-.2768,3.67978c2.78584,4.37046-12.98214,5.55945-12.98214,5.55945h0s6.43544-14.526,9.587-10.41146a3.00106,3.00106,0,0,1,3.55192,1.00065Z" fill="#65c9de"/><path d="M220.04478,386.865a3.001,3.001,0,0,1-3.59355.83891c-3.33447,3.96776-9.19513-10.71881-9.19513-10.71881h0s15.78709,1.78546,12.80636,6.02539a3.00106,3.00106,0,0,1,.11,3.68854Z" fill="#65c9de"/><path d="M203.19189,392.94509a3.001,3.001,0,0,1-2.23422-2.93694c-4.984-1.42184,6.02517-12.77266,6.02517-12.77266h0s4.82207,15.13829-.26578,14.15054a3.00105,3.00105,0,0,1-3.32151,1.60779Z" fill="#65c9de"/><path d="M157.65343,334.36215a3.65455,3.65455,0,0,1,2.4861-3.74337c-.35527-6.30139,17.10006,1.829,17.10006,1.829h0s-15.4884,11.59427-16.3845,5.34681a3.65453,3.65453,0,0,1-3.17635-3.17872Z" fill="#ffa8a4"/><path d="M170.00563,314.19844a3.65455,3.65455,0,0,1,4.299,1.30842c5.935-2.14709,3.1507,16.90652,3.1507,16.90652h0s-15.54831-11.51379-9.82009-14.16354a3.65453,3.65453,0,0,1,2.13453-3.9544Z" fill="#ffa8a4"/><path d="M192.74577,319.33161a3.65454,3.65454,0,0,1,.09463,4.49272c3.88768,4.97189-15.0861,8.25632-15.0861,8.25632h0S183.85681,313.721,188.15784,318.34a3.65454,3.65454,0,0,1,4.42235.7977Z" fill="#ffa8a4"/><path d="M194.308,342.841a3.65455,3.65455,0,0,1-4.25778,1.437c-3.578,5.19921-12.39865-11.91768-12.39865-11.91768h0s19.34466.31875,16.22727,5.80652a3.65452,3.65452,0,0,1,.56454,4.45811Z" fill="#ffa8a4"/><path d="M174.59089,352.18089a3.65453,3.65453,0,0,1-3.05148-3.29878c-6.20744-1.14083,5.81018-16.18639,5.81018-16.18639h0s7.61457,17.78583,1.332,17.1833a3.65453,3.65453,0,0,1-3.83814,2.33712Z" fill="#ffa8a4"/><path d="M167.12759,333.284a1.9469,1.9469,0,0,1,1.32443-1.99424c-.18926-3.357,9.10987.97439,9.10987.97439h0s-8.25127,6.17671-8.72865,2.84845a1.94691,1.94691,0,0,1-1.69217-1.69342Z" fill="#65c9de"/><path d="M173.70808,322.542a1.94691,1.94691,0,0,1,2.29025.697c3.16178-1.14383,1.6785,9.00676,1.6785,9.00676h0s-8.28318-6.13384-5.23154-7.54547a1.94691,1.94691,0,0,1,1.13715-2.10666Z" fill="#65c9de"/><path d="M185.82263,325.27663a1.94691,1.94691,0,0,1,.05041,2.39344c2.07112,2.64872-8.03695,4.39846-8.03695,4.39846h0s3.251-9.78089,5.54237-7.32019a1.94691,1.94691,0,0,1,2.356.425Z" fill="#65c9de"/><path d="M186.65487,337.801a1.94691,1.94691,0,0,1-2.26828.76552c-1.90613,2.76982-6.60524-6.349-6.60524-6.349h0s10.30565.16981,8.64489,3.09336a1.94691,1.94691,0,0,1,.30076,2.375Z" fill="#65c9de"/><path d="M176.15082,342.7767a1.9469,1.9469,0,0,1-1.62564-1.75738c-3.30694-.60777,3.09531-8.62312,3.09531-8.62312h0s4.05657,9.4752.70961,9.15421a1.94691,1.94691,0,0,1-2.04473,1.24507Z" fill="#65c9de"/><path d="M156.8029,417.22135A3.65454,3.65454,0,0,1,159.289,413.478c-.35526-6.30139,17.10006,1.829,17.10006,1.829h0s-15.48839,11.59426-16.38449,5.34681a3.65453,3.65453,0,0,1-3.17636-3.17872Z" fill="#ffa8a4"/><path d="M169.1551,397.05764a3.65453,3.65453,0,0,1,4.299,1.30842c5.935-2.14709,3.1507,16.90652,3.1507,16.90652h0s-15.54831-11.5138-9.82008-14.16354a3.65454,3.65454,0,0,1,2.13452-3.9544Z" fill="#ffa8a4"/><path d="M191.89523,402.19081a3.65453,3.65453,0,0,1,.09464,4.49272c3.88767,4.97189-15.08611,8.25632-15.08611,8.25632h0s6.10251-18.35965,10.40354-13.74068a3.65454,3.65454,0,0,1,4.42235.7977Z" fill="#ffa8a4"/><path d="M193.45743,425.70016a3.65455,3.65455,0,0,1-4.25778,1.437c-3.578,5.19921-12.39864-11.91768-12.39864-11.91768h0s19.34465.31875,16.22727,5.80652a3.65453,3.65453,0,0,1,.56454,4.45811Z" fill="#ffa8a4"/><path d="M173.74035,435.04009a3.65453,3.65453,0,0,1-3.05148-3.29878c-6.20743-1.14083,5.81018-16.18639,5.81018-16.18639h0s7.61457,17.78583,1.332,17.1833a3.65454,3.65454,0,0,1-3.83815,2.33712Z" fill="#ffa8a4"/><path d="M166.27705,416.14318a1.94691,1.94691,0,0,1,1.32444-1.99424c-.18926-3.357,9.10986.97439,9.10986.97439h0s-8.25127,6.17671-8.72865,2.84845a1.94691,1.94691,0,0,1-1.69217-1.69342Z" fill="#ffcb5c"/><path d="M172.85754,405.40119a1.94691,1.94691,0,0,1,2.29025.697c3.16179-1.14383,1.6785,9.00676,1.6785,9.00676h0s-8.28318-6.13384-5.23153-7.54547a1.9469,1.9469,0,0,1,1.13714-2.10666Z" fill="#ffcb5c"/><path d="M184.97209,408.13583a1.94692,1.94692,0,0,1,.05042,2.39344c2.07111,2.64872-8.037,4.39846-8.037,4.39846h0s3.25105-9.78089,5.54237-7.32019a1.94692,1.94692,0,0,1,2.356.425Z" fill="#ffcb5c"/><path d="M185.80433,420.66016a1.94691,1.94691,0,0,1-2.26828.76552c-1.90613,2.76982-6.60524-6.349-6.60524-6.349h0s10.30565.16981,8.6449,3.09336a1.94691,1.94691,0,0,1,.30075,2.375Z" fill="#ffcb5c"/><path d="M175.30029,425.6359a1.9469,1.9469,0,0,1-1.62565-1.75738c-3.30694-.60777,3.09531-8.62312,3.09531-8.62312h0s4.05658,9.4752.70961,9.15421a1.94691,1.94691,0,0,1-2.04473,1.24507Z" fill="#ffcb5c"/><path d="M120.09742,390.91056c-3.37974-3.5559-.67386-7.61578-.67386-7.61578-7.16744-7.9959,24.6662-15.73877,24.6662-15.73877h0s-8.262,31.86341-16.09085,24.51382c0,0-4.12108,2.61172-7.59825-.849Z" fill="#65c9de"/><path d="M115.0868,350.99223c2.43756-4.25739,7.10282-2.82917,7.10282-2.82917,5.60513-9.1591,22.15026,19.118,22.15026,19.118h0s-32.89449,1.22074-28.09816-8.38666c0,0-3.68367-3.19922-1.36525-7.52264Z" fill="#65c9de"/><path d="M150.75834,333.65134c4.8046.99138,4.89937,5.86944,4.89937,5.86944,10.44874,2.476-11.27412,27.00045-11.27412,27.00045h0s-11.39843-30.88063-.77541-29.31282c0,0,1.89379-4.49645,6.72406-3.63884Z" fill="#65c9de"/><path d="M177.81343,363.231c.49436,4.88085-4.131,6.43342-4.131,6.43342.76981,10.71047-29.1383-2.66254-29.1383-2.66254h0s26.04414-20.13058,27.73259-9.52606c0,0,4.85735.45892,5.487,5.32417Z" fill="#65c9de"/><path d="M161.537,396.59191c-4.25265,2.44583-7.55989-1.14119-7.55989-1.14119-9.46068,5.07959-9.47775-27.68216-9.47775-27.68216h0s29.0162,15.54341,20.02763,21.41813c0,0,1.56618,4.62078-2.61693,7.18372Z" fill="#65c9de"/><path d="M131.54123,379.41135a3.31243,3.31243,0,0,1-.359-4.05721c-3.81838-4.25973,13.14063-8.38465,13.14063-8.38465h0s-4.4015,16.97486-8.57221,13.05945a3.31243,3.31243,0,0,1-4.04788-.45228Z" fill="#ffcb5c"/><path d="M128.87188,358.14532a3.31243,3.31243,0,0,1,3.78394-1.5072c2.98607-4.87941,11.8003,10.18486,11.8003,10.18486h0s-17.52416.65034-14.969-4.46789a3.31245,3.31245,0,0,1-.72732-4.00761Z" fill="#ffcb5c"/><path d="M147.87548,348.90716a3.31244,3.31244,0,0,1,2.61008,3.12688c5.56645,1.319-6.00615,14.38418-6.00615,14.38418h0s-6.07239-16.4513-.41309-15.61607a3.31244,3.31244,0,0,1,3.58216-1.93855Z" fill="#ffcb5c"/><path d="M162.28877,364.66541a3.31245,3.31245,0,0,1-2.20075,3.42733c.41011,5.70588-15.5231-1.41844-15.5231-1.41844h0s13.87472-10.72434,14.77423-5.0749a3.31244,3.31244,0,0,1,2.92314,2.83639Z" fill="#ffcb5c"/><path d="M153.61768,382.438a3.31243,3.31243,0,0,1-4.02744-.608c-5.04008,2.7061-5.04917-14.74735-5.04917-14.74735h0s15.45805,8.28057,10.66949,11.41026a3.31245,3.31245,0,0,1-1.39414,3.827Z" fill="#ffcb5c"/><path d="M367.15514,371.48371a21.48887,21.48887,0,0,1,6.00566.35461,10.58063,10.58063,0,0,1,2.522.808,12.45669,12.45669,0,0,0,2.48394.93782,14.52921,14.52921,0,0,0,2.5812.40207,12.26187,12.26187,0,0,0,2.61681-.05119,11.1533,11.1533,0,0,0,2.60138-.67441,13.32072,13.32072,0,0,0,2.49194-1.35173l.3693.34912a11.41768,11.41768,0,0,1-2.01475,2.35165,12.31066,12.31066,0,0,1-2.69991,1.75395,15.211,15.211,0,0,1-3.124.99371,18.19185,18.19185,0,0,1-3.25672.26935c-1.08484-.00548-2.18148-.001-3.26622-.09833a8.01982,8.01982,0,0,1-3.06122-.92092,11.30744,11.30744,0,0,1-2.58851-1.90212,8.49734,8.49734,0,0,1-1.9349-2.79362Z" fill="#c76944"/><path d="M373.41577,371.90274c-.08654-.01831-.16723-.0481-.255-.06446a21.50031,21.50031,0,0,0-6.00562-.35473l-.27411.42822a8.5,8.5,0,0,0,1.93488,2.79346,11.21213,11.21213,0,0,0,1.73041,1.36157A22.62046,22.62046,0,0,0,373.41577,371.90274Z" fill="#b15833"/><path d="M386.83207,378.352a5.12434,5.12434,0,0,1-4.5238-6.47236c.45651-1.53315,1.653-3.17412,4.31315-4.50037,7.09371-3.53667,6.3573-7.29195,6.3573-7.29195s4.91457,7.68235.29075,13.8787C390.64957,377.477,388.64174,378.47984,386.83207,378.352Z" fill="#6c353c"/><path d="M384.24414,373.81558c.45655-1.5332,1.653-3.17407,4.31317-4.50049,3.99378-1.991,5.50537-4.05127,6.064-5.47192a16.60545,16.60545,0,0,0-1.64264-3.75586s.73645,3.75537-6.3573,7.292c-2.66009,1.32617-3.85663,2.96728-4.31311,4.50024a5.11046,5.11046,0,0,0,2.41962,5.82911A4.94682,4.94682,0,0,1,384.24414,373.81558Z" fill="#562b32"/><path d="M289.64341,247.14927c3.39312-7.28225,6.43128-13.79553,11.99081-18.00281l.00212-.00383s-62.81535,35.28628-53.97225-10.75881c0,0-28.76219,35.98235,20.53391,38.72676l18.32252-1.36652A53.069,53.069,0,0,1,289.64341,247.14927Z" fill="#562b32"/><path d="M412.02377,218.38382c8.8431,46.04509-53.9723,10.75881-53.9723,10.75881l.00212.00373c5.55953,4.20738,8.59769,10.72066,11.99087,18.00291a53.065,53.065,0,0,1,3.12278,8.59469l.00006.0001,18.32257,1.36652C440.786,254.36617,412.02377,218.38382,412.02377,218.38382Z" fill="#6c353c"/><path d="M287.38374,252.89771c-.031-.02223-11.36815-8.171-19.18574,4.21287-7.57089,11.99277-12.00234,12.57728-12.2856,12.60272.32431-.02564,23.18591-1.84432,26.81913-4.0646A85.35635,85.35635,0,0,0,287.38374,252.89771Z" fill="#d37959"/><path d="M255.9124,269.7133l-.0151.00114Z" fill="#ffc4b8"/><path d="M372.30267,252.89874s11.3589-8.1889,19.18719,4.21177,12.30067,12.604,12.30067,12.604-23.175-1.82955-26.83424-4.06577S372.30267,252.89874,372.30267,252.89874Z" fill="#dd9576"/><path d="M376.14313,294.71908c3.00551-3.9797,6.37479-9.89347,5.69211-16.66969-.38528-3.8244-1.827-5.59841-4.87895-12.40069-4.66848-10.40519-3.60127-11.3944-6.91184-18.49943-3.89619-8.36183-7.32125-15.71264-14.63686-19.719-9.86532-5.40267-21.205-1.65624-25.00463-.20328h-1.11809c-3.79959-1.453-15.13931-5.19939-25.00463.20328-7.31561,4.00638-10.74067,11.35719-14.63686,19.719-3.31057,7.105-2.24336,8.09424-6.91184,18.49943-3.052,6.80228-4.49367,8.57629-4.879,12.40069-.68267,6.77622,2.6866,12.69,5.69211,16.66969l11.706,21.75586,21.91168,11.47519,35.90741-1.69173Z" fill="#c76944"/><path d="M344.27747,227.227h1.1181a42.07738,42.07738,0,0,1,5.39294-1.65894,29.38422,29.38422,0,0,0-13.4483-.33057A41.528,41.528,0,0,1,344.27747,227.227Z" fill="#ce845b"/><path d="M310.24329,316.475l-11.706-21.75586c-3.00549-3.97973-6.37475-9.89355-5.69207-16.66967.38525-3.82447,1.827-5.59864,4.8789-12.40088,4.66852-10.405,3.60132-11.39429,6.91187-18.49927,3.89618-8.36182,7.32123-15.71265,14.63684-19.719a22.04984,22.04984,0,0,1,4.61908-1.8623c-5.25189-1.23267-12.783-1.87744-19.6117,1.8623-7.31561,4.00635-10.74066,11.35718-14.63684,19.719-3.31054,7.105-2.24334,8.09424-6.91186,18.49927-3.05194,6.80224-4.49365,8.57641-4.87891,12.40088-.68268,6.77612,2.68659,12.68994,5.69208,16.66967l11.706,21.75586,21.91169,11.4751,13.75518-.64819Z" fill="#b15833"/><path d="M330.14885,268.39311c3.88654-1.07762,7.28541-1.99952,10.06284-2.74441,11.25126-3.01737,13.65477-3.49073,16.16153-2.13455,2.89433,1.56586,5.30933,5.23713,5.03141,8.38572a27.12268,27.12268,0,0,1-2.287,7.16592,4.7264,4.7264,0,0,0-.76234,2.89692c.31461,1.79448,2.09117,2.06766,3.04934,3.65917,1.40439,2.33267.20841,6.09854-1.52467,8.2332-2.87054,3.53582-7.88412,3.42146-10.82517,3.35435-3.74545-.0854-6.56276-1.175-12.19738-3.35435-2.95929-1.14451-5.35687-2.24591-7.0135-3.04932-1.65663.80341-4.0542,1.90481-7.01349,3.04932-5.63462,2.17933-8.45193,3.269-12.19738,3.35435-2.94105.06711-7.95463.18147-10.82518-3.35435-1.73307-2.13466-2.92905-5.90053-1.52466-8.2332.95816-1.59151,2.73473-1.86469,3.04934-3.65917a4.72647,4.72647,0,0,0-.76234-2.89692,27.12268,27.12268,0,0,1-2.287-7.16592c-.27793-3.14859,2.13708-6.81986,5.03141-8.38572,2.50675-1.35618,4.91027-.88282,16.16153,2.13455,2.77743.74489,6.1763,1.66679,10.06284,2.74441Z" fill="#e0a585"/><path d="M329.28488,385.79287c4.82814.15246,12.24822-.45739,12.24822-.45739,2.59194,24.85214,5.48881,27.749,5.48881,27.749l3.04932-4.42152,2.99856,4.42152c6.3528-10.97761,5.59044-30.34094,5.59044-30.34094,14.23027-7.31844,15.34837-18.90594,14.73852-30.83228s-9.453-30.15462-9.453-30.15462c13.55921-4.66792,20.1461-13.70521,22.72336-18.26441h0s4.41579-5.927,3.60261-10.19612l-4.33415,2.00707,1.99633-4.34494s-5.64862-.46531-10.07935,2.31941a15.72893,15.72893,0,0,1-2.46655,1.29675,90.89584,90.89584,0,0,0-18.15085,9.801c-15.55165,11.28258-27.95233,12.80725-27.95233,12.80725s-12.40068-1.52467-27.95233-12.80725a90.8961,90.8961,0,0,0-18.15084-9.801,15.729,15.729,0,0,1-2.46656-1.29675c-4.43073-2.78472-10.07935-2.31941-10.07935-2.31941l1.99634,4.34494-4.33416-2.00707c-.81318,4.26912,3.60261,10.19612,3.60261,10.19612h0c2.57726,4.5592,9.16416,13.59649,22.72337,18.26441,0,0-8.8431,18.22828-9.453,30.15462s.50826,23.51384,14.73852,30.83228c0,0-.76236,19.36333,5.59045,30.34094l2.99855-4.42152,3.04933,4.42152s2.89686-2.89686,5.4888-27.749C317.03666,385.33548,324.45674,385.94533,329.28488,385.79287Z" fill="#c76944"/><path d="M340.82153,385.3356l-.006.05517c.14142-.01049.25977-.01953.36176-.02734C340.95044,385.34585,340.82153,385.3356,340.82153,385.3356Z" fill="#ce845b"/><path d="M353.06976,317.18252s12.40064-1.52466,27.95234-12.80713a74.33111,74.33111,0,0,1,8.0617-5.03174,10.67693,10.67693,0,0,0,1.188-6.0476l-4.33417,2.00708,1.99634-4.345s-5.64862-.46534-10.07934,2.31933a15.72012,15.72012,0,0,1-2.46656,1.29688,90.90038,90.90038,0,0,0-18.15088,9.801,81.80719,81.80719,0,0,1-16.05987,9.1709A49.54588,49.54588,0,0,0,353.06976,317.18252Z" fill="#ce845b"/><path d="M323.67243,385.73013c-14.23029-7.3186-15.32642-21.89258-14.71656-33.81885s9.453-30.15478,9.453-30.15478c-13.55921-4.66773-20.14612-13.70508-22.72339-18.26416h-.00006a25.66635,25.66635,0,0,1-2.41462-4.14869,100.53321,100.53321,0,0,0-10.08911-4.76928,15.72,15.72,0,0,1-2.46655-1.29688c-4.43072-2.78467-10.07935-2.31933-10.07935-2.31933l1.99634,4.345-4.33416-2.00708c-.81318,4.269,3.6026,10.19629,3.6026,10.19629h.00006c2.57727,4.55908,9.16418,13.59643,22.72338,18.26416,0,0-8.84313,18.22851-9.453,30.15478s.50824,23.51367,14.73853,30.83228c0,0-.76239,19.36328,5.59045,30.34082l2.99854-4.42139,3.04931,4.42139s2.89685-2.89673,5.48883-27.74878c0,0,3.12433.25561,6.63575.39453Z" fill="#b15833"/><path d="M271.90064,303.49223l8.81451-10.21458.00043.00148c-4.43-2.78676-10.07978-2.32089-10.07978-2.32089l1.999,4.34532-4.33684-2.00749c-.81316,4.26908,3.59992,10.19836,3.59992,10.19836Z" fill="#562b32"/><path d="M301.42571,401.38688h13.451c-1.82113,10.18989-3.32887,11.69763-3.32887,11.69763L308.4985,408.663,305.5,413.08451A39.12029,39.12029,0,0,1,301.42571,401.38688Z" fill="#562b32"/><path d="M386.66912,303.49223l-8.81451-10.21458-.00042.00148c4.43-2.78676,10.07977-2.32089,10.07977-2.32089l-1.999,4.34532,4.33685-2.00749c.81315,4.26908-3.59993,10.19836-3.59993,10.19836Z" fill="#6c353c"/><path d="M353.06979,413.08451l-2.99853-4.42155-3.04934,4.42155s-1.50773-1.50774-3.32887-11.69763h13.451A39.12056,39.12056,0,0,1,353.06979,413.08451Z" fill="#6c353c"/><path d="M348.253,401.38687h-4.56c1.8211,10.18994,3.32885,11.69775,3.32885,11.69775l2.89051-4.1914C349.42182,407.163,348.85541,404.75747,348.253,401.38687Z" fill="#562b32"/><path d="M301.54749,240.85956a10.92175,10.92175,0,0,1,4.11352-1.73216c.37842-.05472.76245-.11713,1.15161-.161l1.18457-.04988,1.19678.11216c.40173.046.792.15876,1.19458.24174a11.35875,11.35875,0,0,1,1.19275.33369,7.43826,7.43826,0,0,1,1.18921.421,8.13529,8.13529,0,0,1,1.09643.62039,7.21353,7.21353,0,0,1,.86292.8889l.37744.48941c.09875.1819.2002.35869.28992.5441a9.53126,9.53126,0,0,1,.47546,1.12988,6.26186,6.26186,0,0,1,.17676,2.53174l-.3634.21334a11.0238,11.0238,0,0,1-2.168-.92132,8.66688,8.66688,0,0,1-.88257-.45616,6.99841,6.99841,0,0,0-.78858-.45717,3.59616,3.59616,0,0,1-.68945-.50733,3.70178,3.70178,0,0,1-.62817-.55675,4.1149,4.1149,0,0,0-.62439-.60492,3.24979,3.24979,0,0,0-.71021-.51587,9.87055,9.87055,0,0,0-3.45923-1.19013,13.08564,13.08564,0,0,0-4.01025.0085Z" fill="#83370f"/><path d="M268.198,257.11058s12.1504-5.3759,18.32257-1.36652l.86461-2.84532S276.02629,244.70979,268.198,257.11058Z" fill="#b15833"/><ellipse cx="306.61807" cy="254.7388" rx="5.99705" ry="8.02994" fill="#ffeee6"/><ellipse cx="309.48108" cy="254.73882" rx="3.13406" ry="7.05715" fill="#83370f"/><path d="M357.96265,241.24168a13.0857,13.0857,0,0,0-4.01026-.0085,9.86978,9.86978,0,0,0-3.45923,1.19013,3.24711,3.24711,0,0,0-.7102.51587,4.12125,4.12125,0,0,0-.62451.60492,3.70145,3.70145,0,0,1-.62805.55675,3.59336,3.59336,0,0,1-.68958.50733,7.008,7.008,0,0,0-.78857.45717,8.65535,8.65535,0,0,1-.88257.45616,11.01931,11.01931,0,0,1-2.16785.92132l-.36352-.21334a6.25954,6.25954,0,0,1,.17688-2.53174,9.5113,9.5113,0,0,1,.47546-1.12988c.08972-.18541.19116-.3622.28979-.5441l.37745-.48941a7.22314,7.22314,0,0,1,.863-.8889,8.1354,8.1354,0,0,1,1.09644-.62039,7.44073,7.44073,0,0,1,1.18909-.421,11.369,11.369,0,0,1,1.19287-.33369c.40246-.083.79284-.19575,1.19458-.24174l1.19677-.11216,1.18457.04988c.38916.04392.77308.10633,1.15162.161a10.92256,10.92256,0,0,1,4.11352,1.73216Z" fill="#83370f"/><path d="M391.48983,257.11058s-12.1504-5.3759-18.32257-1.36652l-.86462-2.84532S383.66153,244.70979,391.48983,257.11058Z" fill="#c76944"/><ellipse cx="353.06974" cy="254.7388" rx="5.99705" ry="8.02994" fill="#ffeee6"/><ellipse cx="355.93274" cy="254.73882" rx="3.13406" ry="7.05715" fill="#83370f"/><path d="M351.54854,297.21171a24.65714,24.65714,0,0,1-43.40925,0l10.89561-17.19845,22.14241-3.73539Z" fill="#ffd4c9"/><path d="M373.56816,351.91123c-.60984-11.92629-9.453-30.15462-9.453-30.15462,10.07814-.05925,24.56406-9.7239,24.56406-9.7239-7.31844-11.28253-15.74428-16.34968-15.74438-16.34988a87.39913,87.39913,0,0,0-15.52818,8.6925c-15.55164,11.28263-27.95233,12.80724-27.95233,12.80724h-.16947s-12.40068-1.52461-27.95233-12.80724a87.39909,87.39909,0,0,0-15.52817-8.6925c-.0001.0002-8.42594,5.06735-15.74438,16.34988,0,0,14.48592,9.66465,24.56406,9.7239,0,0-8.84315,18.22833-9.453,30.15462a106.98415,106.98415,0,0,0,88.39711,0Z" fill="#f05b43"/><path d="M309.48108,357.828c-.19385-2.54663-3.70239-49.65063-3.70239-49.65063l-.5672-1.14356c-1.2674-.82129-2.56067-1.70215-3.879-2.65845a87.39891,87.39891,0,0,0-15.52814-8.69262c-.00012.00024-8.426,5.06738-15.74438,16.34985,0,0,14.4859,9.66479,24.564,9.72388,0,0-8.84313,18.22851-9.45294,30.15478a107.63535,107.63535,0,0,0,21.43225,7.09375C308.41651,358.65347,309.51416,358.26236,309.48108,357.828Z" fill="#cf2633"/><path d="M372.55865,349.68454a105.53364,105.53364,0,0,1-39.88553,9.27847v-7.21346h3.76879a3.44343,3.44343,0,0,0,3.45535,2.51229c4.86692,0,4.875-7.56407,0-7.56407a3.44571,3.44571,0,0,0-3.45386,2.51109h-3.77028V338.73917H336.442a3.4433,3.4433,0,0,0,3.45529,2.51181c4.86692,0,4.875-7.56359,0-7.56359a3.44532,3.44532,0,0,0-3.45392,2.51109h-3.77022V325.72879H336.442a3.4434,3.4434,0,0,0,3.45529,2.51181c4.86692,0,4.875-7.56383,0-7.56383a3.44514,3.44514,0,0,0-3.45392,2.51157h-3.77022v-6.71343l-3.38822.70743-3.38852-.70743v6.71343h-3.76867a3.443,3.443,0,0,0-3.45517-2.51157c-4.867,0-4.87505,7.56383,0,7.56383a3.44561,3.44561,0,0,0,3.454-2.51181h3.76986v10.46969h-3.76867a3.44327,3.44327,0,0,0-3.45517-2.51109c-4.867,0-4.87505,7.56359,0,7.56359a3.44556,3.44556,0,0,0,3.454-2.51181h3.76981v10.46969h-3.76873a3.44361,3.44361,0,0,0-3.45511-2.51109c-4.867,0-4.87505,7.56407,0,7.56407a3.44547,3.44547,0,0,0,3.454-2.51229h3.76981v7.20224a105.57465,105.57465,0,0,1-39.71685-9.26725,2.444,2.444,0,0,0-2.01633,4.45271,110.345,110.345,0,0,0,45.24694,9.7742c.49931,0,1.00052-.00382,1.49983-.01051a110.4142,110.4142,0,0,0,43.66691-9.76369,2.44438,2.44438,0,1,0-2.01823-4.45271Z" fill="#ffcb5c"/><path d="M372.55865,349.68454a105.53364,105.53364,0,0,1-39.88553,9.27847v-7.21346h3.76879a3.44343,3.44343,0,0,0,3.45535,2.51229c4.86692,0,4.875-7.56407,0-7.56407a3.44571,3.44571,0,0,0-3.45386,2.51109h-3.77028V338.73917H336.442a3.4433,3.4433,0,0,0,3.45529,2.51181c4.86692,0,4.875-7.56359,0-7.56359a3.44532,3.44532,0,0,0-3.45392,2.51109h-3.77022V325.72879H336.442a3.4434,3.4434,0,0,0,3.45529,2.51181c4.86692,0,4.875-7.56383,0-7.56383a3.44514,3.44514,0,0,0-3.45392,2.51157h-3.77022v-6.71343l-3.38822.70743-3.38852-.70743v6.71343h-3.76867a3.443,3.443,0,0,0-3.45517-2.51157c-4.867,0-4.87505,7.56383,0,7.56383a3.44561,3.44561,0,0,0,3.454-2.51181h3.76986v10.46969h-3.76867a3.44327,3.44327,0,0,0-3.45517-2.51109c-4.867,0-4.87505,7.56359,0,7.56359a3.44556,3.44556,0,0,0,3.454-2.51181h3.76981v10.46969h-3.76873a3.44361,3.44361,0,0,0-3.45511-2.51109c-4.867,0-4.87505,7.56407,0,7.56407a3.44547,3.44547,0,0,0,3.454-2.51229h3.76981v7.20224a105.57465,105.57465,0,0,1-39.71685-9.26725,2.444,2.444,0,0,0-2.01633,4.45271,110.345,110.345,0,0,0,45.24694,9.7742c.49931,0,1.00052-.00382,1.49983-.01051a110.4142,110.4142,0,0,0,43.66691-9.76369,2.44438,2.44438,0,1,0-2.01823-4.45271Z" fill="#ffcb5c"/><path d="M287.89894,294.42378a2.448,2.448,0,0,0-3.35386-.83536c-.36374.21863-8.99707,5.49238-16.53536,17.11487a2.44416,2.44416,0,0,0,4.10138,2.65978c6.86619-10.58759,14.83027-15.511,14.95629-15.58734A2.444,2.444,0,0,0,287.89894,294.42378Z" fill="#f29720"/><path d="M390.73037,310.70329c-7.53925-11.62249-16.17258-16.89624-16.53632-17.11487a2.444,2.444,0,0,0-2.52327,4.18635c.0802.04869,8.071,4.97016,14.95821,15.5883a2.44416,2.44416,0,1,0,4.10138-2.65978Z" fill="#ffcb5c"/><path d="M372.55865,349.68454a105.53364,105.53364,0,0,1-39.88553,9.27847v-7.21346h3.76879a3.44343,3.44343,0,0,0,3.45535,2.51229c4.86692,0,4.875-7.56407,0-7.56407a3.44571,3.44571,0,0,0-3.45386,2.51109h-3.77028V338.73917H336.442a3.4433,3.4433,0,0,0,3.45529,2.51181c4.86692,0,4.875-7.56359,0-7.56359a3.44532,3.44532,0,0,0-3.45392,2.51109h-3.77022V325.72879H336.442a3.4434,3.4434,0,0,0,3.45529,2.51181c4.86692,0,4.875-7.56383,0-7.56383a3.44514,3.44514,0,0,0-3.45392,2.51157h-3.77022v-6.71343l-3.38822.70743-3.38852-.70743v6.71343h-3.76867a3.443,3.443,0,0,0-3.45517-2.51157c-4.867,0-4.87505,7.56383,0,7.56383a3.44561,3.44561,0,0,0,3.454-2.51181h3.76986v10.46969h-3.76867a3.44327,3.44327,0,0,0-3.45517-2.51109c-4.867,0-4.87505,7.56359,0,7.56359a3.44556,3.44556,0,0,0,3.454-2.51181h3.76981v10.46969h-3.76873a3.44361,3.44361,0,0,0-3.45511-2.51109c-4.867,0-4.87505,7.56407,0,7.56407a3.44547,3.44547,0,0,0,3.454-2.51229h3.76981v7.20224a105.57465,105.57465,0,0,1-39.71685-9.26725,2.444,2.444,0,0,0-2.01633,4.45271,110.345,110.345,0,0,0,45.24694,9.7742c.49931,0,1.00052-.00382,1.49983-.01051a110.4142,110.4142,0,0,0,43.66691-9.76369,2.44438,2.44438,0,1,0-2.01823-4.45271Z" fill="#ffcb5c"/><path d="M287.89894,294.42378a2.448,2.448,0,0,0-3.35386-.83536c-.36374.21863-8.99707,5.49238-16.53536,17.11487a2.44416,2.44416,0,0,0,4.10138,2.65978c6.86619-10.58759,14.83027-15.511,14.95629-15.58734A2.444,2.444,0,0,0,287.89894,294.42378Z" fill="#f29720"/><path d="M390.73037,310.70329c-7.53925-11.62249-16.17258-16.89624-16.53632-17.11487a2.444,2.444,0,0,0-2.52327,4.18635c.0802.04869,8.071,4.97016,14.95821,15.5883a2.44416,2.44416,0,1,0,4.10138-2.65978Z" fill="#ffcb5c"/><path d="M309.06439,361.98941l.35981-4.91675-.00971-.00855a104.90774,104.90774,0,0,1-23.235-7.37963,2.44405,2.44405,0,0,0-2.0163,4.45288,110.10157,110.10157,0,0,0,24.90094,7.85205Z" fill="#f29720"/><path d="M338.5222,294.49712s-2.5796,7.59123-8.67829,7.59123-8.67828-7.59123-8.67828-7.59123l2.5068-10.92269,14.84977,1.309Z" fill="#ffc4b8"/><path d="M330.14885,268.39311c3.88654-1.07762,7.28541-1.99952,10.06284-2.74441,11.25126-3.01737,13.65477-3.49073,16.16153-2.13455,2.89433,1.56586,5.30933,5.23713,5.03141,8.38572a27.12268,27.12268,0,0,1-2.287,7.16592,4.7264,4.7264,0,0,0-.76234,2.89692c.31461,1.79448,2.09117,2.06766,3.04934,3.65917,1.40439,2.33267.20841,6.09854-1.52467,8.2332-2.87054,3.53582-7.88412,3.42146-10.82517,3.35435-3.74545-.0854-6.56276-1.175-12.19738-3.35435-2.95929-1.14451-5.35687-2.24591-7.0135-3.04932-1.65663.80341-4.0542,1.90481-7.01349,3.04932-5.63462,2.17933-8.45193,3.269-12.19738,3.35435-2.94105.06711-7.95463.18147-10.82518-3.35435-1.73307-2.13466-2.92905-5.90053-1.52466-8.2332.95816-1.59151,2.73473-1.86469,3.04934-3.65917a4.72647,4.72647,0,0,0-.76234-2.89692,27.12268,27.12268,0,0,1-2.287-7.16592c-.27793-3.14859,2.13708-6.81986,5.03141-8.38572,2.50675-1.35618,4.91027-.88282,16.16153,2.13455,2.77743.74489,6.1763,1.66679,10.06284,2.74441Z" fill="#dd9576"/><path d="M308.79138,293.85513c-1.733-2.13477-2.929-5.90064-1.52465-8.2334.95819-1.59131,2.73474-1.8645,3.04937-3.65918a4.72626,4.72626,0,0,0-.76233-2.89673,27.12645,27.12645,0,0,1-2.287-7.166c-.26709-3.02588,1.95459-6.52906,4.69708-8.18775-5.06635-1.1958-6.84009-1.17675-8.64917-.198-2.89435,1.56592-5.30939,5.23707-5.03144,8.38575a27.12645,27.12645,0,0,0,2.287,7.166,4.72545,4.72545,0,0,1,.76233,2.89673c-.31457,1.79468-2.09119,2.06787-3.04932,3.65918-1.40441,2.33276-.20843,6.09863,1.52466,8.2334,2.87055,3.53564,7.88416,3.42139,10.8252,3.35425a18.55693,18.55693,0,0,0,3.33948-.37427A8.90921,8.90921,0,0,1,308.79138,293.85513Z" fill="#d37959"/><path d="M307.494,271.90726a9.31111,9.31111,0,0,1,1.08655-.54029,5.533,5.533,0,0,1,.909-.26394,3.512,3.512,0,0,1,1.49317-.02915,1.3862,1.3862,0,0,1,.9696.72983,9.59384,9.59384,0,0,0,.64575,1.17215l.72718,1.05115.65442,1.1336a15.27638,15.27638,0,0,1,1.07263,2.46759l-.4021.4357c-.88867-.17843-1.7002-.39315-2.52307-.58874l-1.20386-.32123-1.15564-.37167a7.40088,7.40088,0,0,0-1.2572-.22361,1.275,1.275,0,0,1-.95008-.64294,3.61433,3.61433,0,0,1-.441-1.38132,6.08187,6.08187,0,0,1-.06347-.93222,11.1112,11.1112,0,0,1,.10925-1.20157Z" fill="#83370f"/><path d="M352.52271,272.4006a11.11373,11.11373,0,0,1,.10925,1.20157,6.11232,6.11232,0,0,1-.06348.93222,3.61623,3.61623,0,0,1-.441,1.38132,1.27536,1.27536,0,0,1-.95007.64294,7.40224,7.40224,0,0,0-1.25733.22361l-1.15564.37167-1.20373.32123c-.82288.19559-1.6344.41031-2.52307.58874l-.4021-.4357a15.27462,15.27462,0,0,1,1.07263-2.46759l.6543-1.1336.72717-1.05115a9.57773,9.57773,0,0,0,.64575-1.17215,1.38646,1.38646,0,0,1,.96961-.72983,3.51193,3.51193,0,0,1,1.49316.02915,5.52637,5.52637,0,0,1,.90906.26394,9.3043,9.3043,0,0,1,1.08667.54029Z" fill="#83370f"/><path d="M324.16651,200.79137h11.35485A14.48258,14.48258,0,0,1,350.00393,215.274v11.953a0,0,0,0,1,0,0h-40.32a0,0,0,0,1,0,0V215.274A14.48258,14.48258,0,0,1,324.16651,200.79137Z" fill="#ffcb5c"/><path d="M337.134,201.50375a37.17087,37.17087,0,0,0-7.29-.71237h-.00006c-11.134,0-20.16,4.658-20.16,10.404v16.03154h14.58V211.1954C324.264,206.77788,329.60778,203.01291,337.134,201.50375Z" fill="#f29720"/><path d="M325.73794,200.79137h8.212a10.474,10.474,0,0,1,10.474,10.474v15.833a0,0,0,0,1,0,0h-29.16a0,0,0,0,1,0,0v-15.833A10.474,10.474,0,0,1,325.73794,200.79137Z" fill="#f05b43"/><path d="M333.86235,201.08756a27.48819,27.48819,0,0,0-4.01837-.29618h-.00006c-8.05231,0-14.58,3.36874-14.58,7.52433V227.0984h8.0368V208.31571C323.30077,204.88031,327.76665,201.98874,333.86235,201.08756Z" fill="#cf2633"/><path d="M327.58062,200.80751h4.52662a5.7735,5.7735,0,0,1,5.7735,5.7735v20.62981a0,0,0,0,1,0,0H321.80713a0,0,0,0,1,0,0V206.581a5.7735,5.7735,0,0,1,5.7735-5.7735Z" fill="#ffcb5c"/><path d="M333.489,201.2619a14.39612,14.39612,0,0,0-3.645-.45439h-.00006c-4.4386,0-8.0368,1.85693-8.0368,4.14758v22.25573h7.29V204.95509C329.09716,203.34239,330.88439,201.948,333.489,201.2619Z" fill="#f29720"/><path d="M333.21509,204.18031a6.94836,6.94836,0,0,1,4.7821.60422,9.82021,9.82021,0,0,1,3.56629,3.28516,17.68577,17.68577,0,0,1,2.196,4.18609c.24756.74.44226,1.4942.65625,2.234l.42224,2.26985-.17737.04058-.779-2.14008c-.319-.68625-.61487-1.37779-.95593-2.041a16.49835,16.49835,0,0,0-2.48914-3.62867,19.336,19.336,0,0,0-3.33252-2.62112,19.01668,19.01668,0,0,0-3.885-2.0072Z" fill="#fff"/><path d="M361.43518,333.33774a6.94826,6.94826,0,0,1,4.07935,2.56759,9.82088,9.82088,0,0,1,1.84485,4.48414,17.6858,17.6858,0,0,1,.22229,4.72189c-.08814.7753-.23035,1.54117-.34888,2.30215l-.57605,2.23578-.17786-.03811.19776-2.26889c.00085-.75675.02465-1.50855-.00428-2.25376a16.4977,16.4977,0,0,0-.72351-4.34045,19.32757,19.32757,0,0,0-1.91333-3.78345,19.021,19.021,0,0,0-2.67358-3.46039Z" fill="#fff"/><path d="M392.20471,370.78528a3.13082,3.13082,0,0,1-.03345,2.15762,4.40512,4.40512,0,0,1-1.28625,1.74863,7.91838,7.91838,0,0,1-1.75452,1.1832c-.31762.14563-.64416.26834-.96313.39892l-.98792.30267-.02673-.0769.91528-.449c.28931-.17676.58191-.34351.85974-.52887a7.38671,7.38671,0,0,0,1.49207-1.28623,8.61218,8.61218,0,0,0,1.00232-1.61185,8.31968,8.31968,0,0,0,.7019-1.82751Z" fill="#fff"/><path d="M353.20093,402.86285a3.13063,3.13063,0,0,1,1.15954,1.81983,4.40277,4.40277,0,0,1-.11145,2.16788,7.91647,7.91647,0,0,1-.8136,1.95355c-.18505.29641-.39013.57858-.58459.86316l-.6582.79644-.0647-.04946.51709-.87864c.14429-.30679.29687-.60711.42664-.91476a7.38486,7.38486,0,0,0,.538-1.89511,8.6133,8.6133,0,0,0-.05042-1.8974,8.32115,8.32115,0,0,0-.4198-1.91211Z" fill="#fff"/><path d="M311.33862,402.86285a3.13123,3.13123,0,0,1,1.15955,1.81983,4.40571,4.40571,0,0,1-.11145,2.16788,7.91257,7.91257,0,0,1-.81372,1.95355c-.18494.29641-.39.57858-.58447.86316l-.65821.79644-.06469-.04946.517-.87864c.14429-.30679.29688-.60711.42676-.91476a7.37976,7.37976,0,0,0,.53784-1.89511,8.606,8.606,0,0,0-.05029-1.8974,8.32168,8.32168,0,0,0-.4198-1.91211Z" fill="#fff"/><path d="M355.47473,265.40015a5.48646,5.48646,0,0,1,2.67676,2.70608,7.75376,7.75376,0,0,1,.61475,3.77936,13.95665,13.95665,0,0,1-.67579,3.67123c-.20678.58045-.45337,1.144-.681,1.70795l-.84387,1.61612-.13-.06122.559-1.70941c.13635-.58182.28943-1.15573.40075-1.734a13.022,13.022,0,0,0,.22193-3.46777,15.25914,15.25914,0,0,0-.79309-3.25278,15.01991,15.01991,0,0,0-1.43555-3.14062Z" fill="#fff"/></svg>