<svg id="Layer_1" data-name="Layer 1" xmlns="http://www.w3.org/2000/svg" viewBox="0 0 700 550"><title>Artboard 1 copy 3</title><path d="M171.3493,479.87777c-38.47915-28.91857-74.44636-84.40023-61.44417-128.386,11.03666-37.336,48.61182-37.07454,59.55128-76.20624,12.75076-45.6127-31.17353-71.46622-26.77876-108.27707,10.70926-89.69455,297.80553-156.65307,334.146-93.14288C502.55532,118.838,388.204,204.14,419.77423,260.14907c28.18,49.99744,134.84679,9.62205,165.32528,61.70678,25.40213,43.4069-15.171,128.7089-75.35925,166.37792-32.1546,20.12233-75.1436,18.91217-159.79637,19.843-93.19762,1.02355-140.57807.36987-178.59459-28.199" fill="#fff4f3"/><path d="M68.37442,178.63534c8.79032-3.68794,16.21764-6.77358,21.82611-9.09429,14.49808-5.999,17.01288-6.9556,21.30646-7.53516,6.80432-.91842,12.85094.16722,24.94417,2.3385,15.664,2.81234,14.44971,4.23719,21.04655,4.4171,11.98371.32687,21.54434-4.22326,30.14083-8.31472,12.65543-6.02327,11.91517-8.75772,21.30646-11.95226a56.58487,56.58487,0,0,1,28.84162-1.81886c7.29666,1.50872,10.97966,3.9237,29.62118,15.33024,5.75649,3.52229,14.92531,9.11719,26.50312,16.10962Z" fill="#ffd4c9"/><path d="M631.62558,262.174c-8.79032-3.68794-16.21764-6.77358-21.82611-9.09429-14.49808-5.99895-17.01288-6.9556-21.30646-7.53516-6.80432-.91842-12.85094.16722-24.94417,2.3385-15.664,2.81234-14.44971,4.23719-21.04655,4.4171-11.98371.32687-21.54434-4.22326-30.14083-8.31472-12.65543-6.02327-11.91517-8.75772-21.30646-11.95227a56.585,56.585,0,0,0-28.84162-1.81885c-7.29666,1.50872-10.97966,3.9237-29.62118,15.33024-5.75649,3.52229-14.92531,9.11719-26.50312,16.10962Z" fill="#ffd4c9"/><path d="M525.12825,347.64368c-8.79032-3.68794-16.21764-6.77358-21.82611-9.09429-14.49808-5.999-17.01288-6.9556-21.30645-7.53516-6.80433-.91842-12.851.16722-24.94418,2.33851-15.664,2.81233-14.44971,4.23718-21.04655,4.41709-11.98371.32688-21.54434-4.22326-30.14083-8.31472-12.65543-6.02327-11.91517-8.75772-21.30646-11.95226a56.585,56.585,0,0,0-28.84162-1.81886c-7.29666,1.50872-10.97966,3.92371-29.62118,15.33024-5.75649,3.5223-14.92531,9.11719-26.50312,16.10962Z" fill="#ffd4c9"/><path d="M568.64115,508.33623c-17.15433-7.197-31.64878-13.21865-42.59371-17.74752-28.29305-11.707-33.2007-13.57388-41.57962-14.7049-13.27867-1.79229-25.07865.32634-48.67863,4.5636-30.56832,5.48829-28.19866,8.26889-41.0724,8.62-23.38626.63789-42.04386-8.24172-58.81993-16.22621-24.69712-11.75443-23.25249-17.09072-41.57962-23.32488a110.42589,110.42589,0,0,0-56.28452-3.54951c-14.23945,2.94428-21.42684,7.65713-57.80583,29.917-11.23379,6.87377-29.12678,17.79223-51.72091,31.438Z" fill="#ffd4c9"/><path d="M345.69749,184.85617h139.231c23.32119,0,35.852,18.79619,35.852,18.79619s11.13848,13.9231,6.61347,40.377l-6.26539,26.10582H170.26641L164.001,244.02935c-4.525-26.45389,6.61347-40.377,6.61347-40.377s12.53079-18.79619,35.852-18.79619Z" fill="#f05b43"/><path d="M233.9971,202.11118l19.02936-17.255,10.95983,19.92748-9.65915,13.05291s-6.3307,10.55993-10.33071,0S233.9971,202.11118,233.9971,202.11118Z" fill="#cf2633"/><path d="M280.5571,202.11118l19.02936-17.255,13.65,21.40823-12.34929,11.57216s-6.3307,10.55993-10.33071,0S280.5571,202.11118,280.5571,202.11118Z" fill="#cf2633"/><path d="M325.46107,202.11118l19.02936-17.255,13.65,21.40823-12.34929,11.57216s-6.3307,10.55993-10.33071,0S325.46107,202.11118,325.46107,202.11118Z" fill="#cf2633"/><path d="M375.14107,202.11118l19.02936-17.255,13.65,21.40823-12.34929,11.57216s-6.3307,10.55993-10.33071,0S375.14107,202.11118,375.14107,202.11118Z" fill="#cf2633"/><path d="M420.98107,202.11118l19.02936-17.255,13.65,21.40823-12.34929,11.57216s-6.3307,10.55993-10.33071,0S420.98107,202.11118,420.98107,202.11118Z" fill="#cf2633"/><path d="M468.86273,202.11118l19.02936-17.255,13.65,21.40823-12.3493,11.57216s-6.3307,10.55993-10.3307,0S468.86273,202.11118,468.86273,202.11118Z" fill="#cf2633"/><path d="M345.69749,103.406l58.15107,1.17477A113.80413,113.80413,0,0,0,466.2482,87.43965l4.17707-2.59776S473.79,114.54451,446.64,136.47339H244.755c-27.15-21.92888-23.7853-51.6315-23.7853-51.6315l4.17707,2.59776a113.80413,113.80413,0,0,0,62.39964,17.14115Z" fill="#f05b43"/><path d="M271.023,103.70953a113.803,113.803,0,0,1-45.87622-16.2699l-4.17706-2.59778S217.605,114.54449,244.755,136.47332h48A63.02827,63.02827,0,0,1,271.023,103.70953Z" fill="#cf2633"/><circle cx="345.69749" cy="121.245" r="9.13704" fill="#ffcb5c"/><path d="M345.69748,121.24505a9.126,9.126,0,0,1,4.56854-7.90479,9.1371,9.1371,0,1,0,0,15.80933A9.12578,9.12578,0,0,1,345.69748,121.24505Z" fill="#f29720"/><path d="M345.69749,136.47339H446.64s3.82885,42.81354,42.81353,48.38278h-287.512c38.98468-5.56924,42.81354-48.38278,42.81354-48.38278Z" fill="#ffcb5c"/><path d="M291.795,136.47332h-47.04s-3.8288,42.8136-42.81348,48.38281h47.04C287.96616,179.28692,291.795,136.47332,291.795,136.47332Z" fill="#f29720"/><polygon points="450.226 151.204 241.166 151.204 241.136 151.294 239.996 154.204 451.396 154.204 450.226 151.204" fill="#f05b43"/><polygon points="459.986 168.614 231.406 168.614 228.716 171.604 228.706 171.614 462.686 171.614 459.986 168.614" fill="#f05b43"/><path d="M288.20926,151.20428h-47.04c-.34595.94958-.72528,1.92285-1.1383,2.912l-.03449.088h47.03821C287.46213,153.18475,287.853,152.18206,288.20926,151.20428Z" fill="#cf2633"/><path d="M278.4487,168.61443h-47.04q-1.26388,1.526-2.68774,2.98487l-.00452.00512-.01.01h47.03974Q277.17962,170.1518,278.4487,168.61443Z" fill="#cf2633"/><path d="M217.17447,203.65227s12.53082-18.79614,35.852-18.79614h-46.56c-23.32116,0-35.852,18.79614-35.852,18.79614s-11.13849,13.9231-6.61346,40.37708l6.26538,26.10584h46.56L210.561,244.02935C206.036,217.57537,217.17447,203.65227,217.17447,203.65227Z" fill="#cf2633"/><path d="M122.23171,209.74371s18.013,26.10582,33.6765,8.09281,19.57937-19.84042,31.588-14.09714,13.575,11.74761,29.76063.52211,20.88465,4.438,27.15,6.00434,10.96444,1.56635,19.57936-5.48222,17.752-3.91587,22.71206,1.82741,15.92455,6.00433,21.66783,1.30529,12.26973-11.48656,26.62793-1.04424,24.27841-3.13269,24.27841-3.13269,9.39809-6.78752,21.40676,1.04423,16.18561,6.78751,23.7563,1.56635,15.40243-7.83175,26.36687,1.8274,20.62359-.52211,24.01735-3.65481,11.74762-6.2654,21.66783,1.82741,19.05724,4.17693,22.97311,0,16.96878-9.3981,25.84476,1.56635,18.013,20.50789,25.5837,16.25828,17.752-14.16982,17.752-14.16982l-10.15844,30.24445a5.8013,5.8013,0,0,1-5.49937,3.95417H138.36219a5.80128,5.80128,0,0,1-5.47818-3.89223Z" fill="#fce2b9"/><path d="M534.0977,217.83652H155.90821c-15.66348,18.013-33.6765-8.09281-33.6765-8.09281l10.6523,30.56745a5.80128,5.80128,0,0,0,5.47818,3.89223H552.98334a5.8013,5.8013,0,0,0,5.49937-3.95417l10.15844-30.24445s-10.18126,9.92021-17.752,14.16982c-5.0783,2.85057-10.86137-.50506-16.79768-6.33276Z" fill="#ffcb5c"/><rect x="207.33667" y="270.13517" width="46.99047" height="42.46546" fill="#ffcb5c"/><polygon points="207.337 270.135 207.337 312.601 230.832 312.601 216.277 270.135 207.337 270.135" fill="#f29720"/><rect x="435.5015" y="270.13517" width="46.99047" height="42.46546" fill="#ffcb5c"/><polygon points="435.501 270.135 435.501 312.601 458.997 312.601 452.421 270.135 435.501 270.135" fill="#f29720"/><rect x="219.69342" y="312.60063" width="21.58081" height="195.7356" fill="#f05b43"/><rect x="219.69345" y="312.60064" width="10.79034" height="195.7356" fill="#cf2633"/><rect x="448.20633" y="312.60063" width="21.58081" height="195.7356" fill="#f05b43"/><rect x="448.20633" y="312.60064" width="10.79041" height="195.7356" fill="#cf2633"/><path d="M161.07645,226.97356l38.85547-9.13708s-1.42957-2.2428,8.71283-8.57459c-8.71552,3.666-11.70527-1.0061-21.1485-5.52246-12.00867-5.74341-15.92456-3.916-31.588,14.097a24.19313,24.19313,0,0,1-2.26763,2.29309Z" fill="#f2d3a5"/><path d="M216.30313,204.91326a9.38414,9.38414,0,0,0,1.98432-1.32873c-.34058.21862-.67933.43335-1.03058.67688-.33588.233-.65625.44751-.9798.66577Z" fill="#f2d3a5"/><path d="M138.36435,244.2033h72.09906c.07813-.05518.119-.11267.0976-.174l-10.62909-26.19287H155.90823c-15.66351,18.01306-33.67651-8.09277-33.67651-8.09277l10.65228,30.5675a5.801,5.801,0,0,0,5.47821,3.89209Z" fill="#f29720"/><rect x="221.55664" y="320.7041" width="19.71777" height="2" fill="#cf2633"/><rect x="221.55664" y="329.58398" width="19.71777" height="2" fill="#cf2633"/><rect x="221.55664" y="339.02441" width="19.71777" height="2" fill="#cf2633"/><rect x="221.55664" y="347.9043" width="19.71777" height="2" fill="#cf2633"/><rect x="221.55664" y="356.86426" width="19.71777" height="2" fill="#cf2633"/><rect x="221.55664" y="365.74414" width="19.71777" height="2" fill="#cf2633"/><rect x="221.55664" y="375.18457" width="19.71777" height="2" fill="#cf2633"/><rect x="221.55664" y="384.06445" width="19.71777" height="2" fill="#cf2633"/><rect x="221.55664" y="392.58398" width="19.71777" height="2" fill="#cf2633"/><rect x="221.55664" y="401.46484" width="19.71777" height="2" fill="#cf2633"/><rect x="221.55664" y="410.9043" width="19.71777" height="2" fill="#cf2633"/><rect x="221.55664" y="419.78418" width="19.71777" height="2" fill="#cf2633"/><rect x="221.55664" y="428.74414" width="19.71777" height="2" fill="#cf2633"/><rect x="221.55664" y="437.62402" width="19.71777" height="2" fill="#cf2633"/><rect x="221.55664" y="447.06445" width="19.71777" height="2" fill="#cf2633"/><rect x="221.55664" y="455.94434" width="19.71777" height="2" fill="#cf2633"/><rect x="221.55664" y="464.58398" width="19.71777" height="2" fill="#cf2633"/><rect x="221.55664" y="473.46484" width="19.71777" height="2" fill="#cf2633"/><rect x="221.55664" y="482.9043" width="19.71777" height="2" fill="#cf2633"/><rect x="221.55664" y="491.78418" width="19.71777" height="2" fill="#cf2633"/><rect x="221.55664" y="500.74414" width="19.71777" height="2" fill="#cf2633"/><rect x="450.06934" y="320.7041" width="19.71777" height="2" fill="#cf2633"/><rect x="450.06934" y="329.58398" width="19.71777" height="2" fill="#cf2633"/><rect x="450.06934" y="339.02441" width="19.71777" height="2" fill="#cf2633"/><rect x="450.06934" y="347.9043" width="19.71777" height="2" fill="#cf2633"/><rect x="450.06934" y="356.86426" width="19.71777" height="2" fill="#cf2633"/><rect x="450.06934" y="365.74414" width="19.71777" height="2" fill="#cf2633"/><rect x="450.06934" y="375.18457" width="19.71777" height="2" fill="#cf2633"/><rect x="450.06934" y="384.06445" width="19.71777" height="2" fill="#cf2633"/><rect x="450.06934" y="392.58398" width="19.71777" height="2" fill="#cf2633"/><rect x="450.06934" y="401.46484" width="19.71777" height="2" fill="#cf2633"/><rect x="450.06934" y="410.9043" width="19.71777" height="2" fill="#cf2633"/><rect x="450.06934" y="419.78418" width="19.71777" height="2" fill="#cf2633"/><rect x="450.06934" y="428.74414" width="19.71777" height="2" fill="#cf2633"/><rect x="450.06934" y="437.62402" width="19.71777" height="2" fill="#cf2633"/><rect x="450.06934" y="447.06445" width="19.71777" height="2" fill="#cf2633"/><rect x="450.06934" y="455.94434" width="19.71777" height="2" fill="#cf2633"/><rect x="450.06934" y="464.58398" width="19.71777" height="2" fill="#cf2633"/><rect x="450.06934" y="473.46484" width="19.71777" height="2" fill="#cf2633"/><rect x="450.06934" y="482.9043" width="19.71777" height="2" fill="#cf2633"/><rect x="450.06934" y="491.78418" width="19.71777" height="2" fill="#cf2633"/><rect x="450.06934" y="500.74414" width="19.71777" height="2" fill="#cf2633"/><path d="M357.66641,352.98431l3.28-3.23a3.39417,3.39417,0,1,0-4.77-4.83l-3.27,3.23-2.42-2.46008,3.36-3.30994a3.39772,3.39772,0,0,0-4.77-4.84l-2.63,2.6v-29.86h-1.5V340.0844l-2.46-2.5a3.39,3.39,0,0,0-5.81,2.37989,3.35106,3.35106,0,0,0,.98,2.38012l3.23005,3.27991-2.32,2.29-3.18-3.23a3.39415,3.39415,0,1,0-4.83,4.7699l3.17,3.22009-3.28,3.23a3.39417,3.39417,0,1,0,4.77,4.83l3.28-3.22,2.42,2.45-3.36,3.31006a3.39527,3.39527,0,0,0-.04,4.8,3.38039,3.38039,0,0,0,4.8.04l2.63-2.59008v10.34008h1.5v-10.28l2.46,2.49a3.40458,3.40458,0,0,0,4.8.04,3.40432,3.40432,0,0,0,.04-4.8l-3.23-3.28,2.32-2.28,3.17,3.22a3.39422,3.39422,0,1,0,4.84-4.76Zm-.43-6.99a1.89509,1.89509,0,0,1,2.66,2.7l-3.28,3.22009-2.66-2.69006Zm-5.4,3.21-2.7,2.66015-2.42-2.46008,2.7-2.66Zm-3.77,3.71008-2.32,2.28992-2.42-2.46,2.32-2.28Zm2.06-14.29993a1.89507,1.89507,0,1,1,2.66,2.7l-3.36,3.30994-2.66-2.7Zm-4.42,4.36988,2.65,2.70007-2.69,2.65-2.66-2.69006Zm-6.98-1.69a1.89155,1.89155,0,0,1,2.69-2.66l3.23,3.28-2.7,2.66Zm3.21,5.39991,2.66,2.70007-2.32,2.28-2.66-2.70007Zm-10.32,1.70007a1.89161,1.89161,0,1,1,2.7-2.65l3.18,3.22-2.7,2.66Zm2.55,11.28a1.94246,1.94246,0,0,1-2.68-.02,1.88623,1.88623,0,0,1,.02-2.68l3.27-3.23,2.66,2.7Zm1.68-6.9801,2.7-2.65992,2.66,2.69-2.7,2.66Zm3.71,3.76,2.7-2.65992,2.42,2.46-2.69,2.66Zm1.71,10.59008a1.94245,1.94245,0,0,1-2.68-.02,1.9043,1.9043,0,0,1,.02-2.67994l3.36-3.31006,2.66,2.7Zm4.43-4.36-2.66-2.70007,2.7-2.65992,2.66,2.7Zm6.98,1.68005a1.89507,1.89507,0,0,1-2.7,2.65992l-3.23-3.28,2.7-2.64991Zm-3.22-5.40014-2.65-2.68994,2.31-2.29,2.66,2.70007Zm.73-6.02991,2.7-2.66,2.66,2.7-2.7,2.66Zm9.57,7.00989a1.90431,1.90431,0,0,1-2.68-.0199l-3.18-3.22009,2.7-2.65992,3.18,3.22A1.90429,1.90429,0,0,1,359.75644,359.94427Zm-13.31-89.80994h-1.5v26.65h1.5Z" fill="#ffcb5c"/><path d="M345.69781,375.86053h0A2.03943,2.03943,0,0,1,347.73725,377.9V381.342a0,0,0,0,1,0,0h-4.07887a0,0,0,0,1,0,0V377.9a2.03943,2.03943,0,0,1,2.03943-2.03943Z" fill="#f05b43"/><path d="M346.6241,376.09271a2.01647,2.01647,0,0,0-.92625-.23217A2.03939,2.03939,0,0,0,343.65842,377.9V381.342H345.511V377.9A2.0318,2.0318,0,0,1,346.6241,376.09271Z" fill="#cf2633"/><path d="M352.37644,279.62432a20.02415,20.02415,0,0,0-2.44-.54993l-.75-.12011c-.1-.01-.2-.02991-.31-.03992-.37-.04993-.75-.09-1.13-.12-.16-.02-.32-.03-.48-.04-.23-.01-.45-.03-.68-.03a.32926.32926,0,0,0-.14,0c-.25-.02-.5-.02-.75-.02s-.5,0-.75.02a24.82112,24.82112,0,0,0,0,49.62011c.25.02.5.02.75.02s.5,0,.75-.02c.14,0,.27,0,.41-.01a22.19652,22.19652,0,0,0,2.33-.22q.375-.045.75-.12011c.28-.04.55-.1.82-.14991.55-.12011,1.09-.25,1.62-.40014a24.82394,24.82394,0,0,0,0-47.82Zm-13.43,30.66v-13.5h13.5v13.5Z" fill="#f05b43"/><path d="M334.22722,303.53522a24.83263,24.83263,0,0,1,18.14937-23.91239,24.82879,24.82879,0,1,0,0,47.82431A24.838,24.838,0,0,1,334.22722,303.53522Z" fill="#cf2633"/><path d="M346.44067,283.28421q-.74523-.02532-1.48486.0155l-.0459-.00555a18.33653,18.33653,0,0,0-7.38476,1.95279,19.50344,19.50344,0,0,0-5.97608,4.6448,20.7148,20.7148,0,0,0-5.14111,13.63764,19.77639,19.77639,0,0,0,5.30029,13.48254,20.28513,20.28513,0,0,0,6.00171,4.38578c.57739.23739,1.1438.51065,1.73267.72323.59643.18811,1.18579.41419,1.79321.5759.61328.13089,1.22607.29535,1.84546.40265l.93433.11749.4685.0596.23462.03.11743.015c.01831.00193-.0188.00635-.02246.0214l.17651-.01456a19.72886,19.72886,0,0,0,7.679-1.04336,18.745,18.745,0,0,0,6.655-4.08747,19.40054,19.40054,0,0,0,5.87353-13.94751,21.62209,21.62209,0,0,0-5.04882-14.14139,19.81437,19.81437,0,0,0-6.07935-4.85449A18.1619,18.1619,0,0,0,346.44067,283.28421Zm.01148-.19968a21.93323,21.93323,0,0,1,14.61621,6.16938,19.44469,19.44469,0,0,1,5.793,15.05651,20.61009,20.61009,0,0,1-2.154,7.92679,22.35238,22.35238,0,0,1-19.80445,12.183l.17627-.01456a1.59444,1.59444,0,0,1-.2666.01923l-.12549-.007-.25146-.0141-.50318-.02863-1.00952-.05893c-.66821-.06943-1.3269-.19757-1.99365-.29562-.65967-.12872-1.30542-.325-1.96143-.48673-.64428-.19793-1.2666-.464-1.90234-.69519a20.615,20.615,0,0,1-6.70483-4.52771,20.7556,20.7556,0,0,1-4.459-22.76968,19.63443,19.63443,0,0,1,4.61817-6.64111,21.28,21.28,0,0,1,6.72949-4.27015,22.92365,22.92365,0,0,1,7.73364-1.55535l-.04565-.00556Q345.69788,283.04265,346.45215,283.08453Z" fill="#ffcb5c"/><path d="M335.96729,293.795l.65673,10.03565c.19239,3.22772.29224,6.35885.33911,9.50366l-1.06665-1.0665c1.63428.00061,3.26831-.01285,4.90259.02439l4.90235.10156c3.26831.0451,6.53662.199,9.80493.39313l-.54737.54739c.06763-1.63416.18042-3.26831.20777-4.90247.04321-1.63415.04394-3.26831.01538-4.90246-.07349-3.26831-.36475-6.53665-.50806-9.805l.83228.83224c-3.16846.11859-6.29224.02817-9.5083-.11633-1.60694-.07276-3.23218-.16391-4.89991-.27579Zm-.14161-.14142c1.50513-.13729,3.07569-.25573,4.67408-.3695,1.60058-.11188,3.24365-.20307,4.905-.27582,3.32055-.14447,6.73339-.23489,10.10156-.11633l.86767.03055-.03515.80191c-.14331,3.26831-.43457,6.53665-.5083,9.805-.02832,1.63415-.02759,3.26831.01538,4.90246.02759,1.63416.14038,3.26831.208,4.90247l.02124.51382-.56885.03379c-3.26831.19412-6.53662.348-9.80493.39312l-4.90235.10157c-1.63428.03723-3.26831.02377-4.90259.02438l-1.08129.0004.01464-1.06708c.04688-3.39188.14673-6.79739.33912-10.10635l.30908-4.88547Z" fill="#ffcb5c"/><path d="M351.66211,287.52768a5.47719,5.47719,0,0,1,3.29541.55206,7.93479,7.93479,0,0,1,2.47754,2.14527,14.17708,14.17708,0,0,1,1.89673,2.6138,16.313,16.313,0,0,1,1.27466,2.90213l-.18018.08685a20.8528,20.8528,0,0,0-1.904-2.40207,18.12838,18.12838,0,0,0-2.18018-2.03232c-.77368-.62015-1.70166-.9797-2.43237-1.61011a25.45883,25.45883,0,0,1-2.29883-2.06225Z" fill="#fff"/><path d="M456.71167,100.22766a15.3293,15.3293,0,0,1-.15625,4.55715,23.48176,23.48176,0,0,1-1.15918,4.33867c-.28271.69027-.56811,1.38218-.90527,2.04827-.35791.6556-.748,1.29393-1.15235,1.92144-.87524,1.21844-1.75732,2.41911-2.68261,3.58361-.87549,1.19812-1.8899,2.29136-2.84888,3.41245-1.06641,1.03567-2.05859,2.12511-3.2041,3.06211a42.98772,42.98772,0,0,1-7.16895,5.03783l-.22656-.32965A52.76722,52.76722,0,0,0,448.00781,114.88a35.539,35.539,0,0,0,1.88184-3.73252c.27832-.63785.5708-1.26489.89575-1.87466.30322-.62093.63452-1.22819.9812-1.83042.68579-1.20867,1.39063-2.41594,2.14746-3.62637.73877-1.21816,1.51245-2.43789,2.40723-3.675Z" fill="#fff"/><path d="M520.0249,248.55243a8.72538,8.72538,0,0,1,.927,4.31387,12.63644,12.63644,0,0,1-1.01928,4.25229,22.04327,22.04327,0,0,1-4.38086,7.35681l-.16187-.11807a28.58738,28.58738,0,0,0,1.79956-3.76468,22.23038,22.23038,0,0,0,1.20191-3.917c.30688-1.33.28222-2.694.56518-4.00365.2627-1.32586.50464-2.6508.87085-4.08575Z" fill="#fff"/><path d="M559.67554,219.80321a11.90986,11.90986,0,0,1,.5769,5.88366,18.73061,18.73061,0,0,1-1.9043,5.50811,36.04033,36.04033,0,0,1-2.78,5.05867,41.54562,41.54562,0,0,1-3.47852,4.53178l-.22632-.16212c.43018-.84322.89307-1.65723,1.31421-2.49118.39209-.85141.83228-1.66982,1.16626-2.54027l.54761-1.27593.48144-1.29931c.35034-.85054.6023-1.73856.89112-2.605.52978-1.76134.68823-3.59028,1.26538-5.30146.55175-1.73315,1.10888-3.454,1.86816-5.29528Z" fill="#fff"/><path d="M477.08325,285.44635a12.11485,12.11485,0,0,1,2.01148,5.787,17.577,17.577,0,0,1-.68091,6.03317,29.00931,29.00931,0,0,1-1.87525,5.71213,32.71945,32.71945,0,0,1-2.91015,5.1712l-.24317-.13516c.3335-.92276.72413-1.80844,1.02979-2.725.28662-.92489.61133-1.8273.80957-2.769a35.52053,35.52053,0,0,0,.98975-5.60226c.03247-.471.06567-.94062.07983-1.4104l-.0249-1.40989c-.03418-.93612-.0083-1.861.04272-2.793.13623-1.87176.24439-3.73874.50488-5.77844Z" fill="#fff"/><path d="M248.33765,285.44635a12.11187,12.11187,0,0,1,2.01123,5.787,17.57087,17.57087,0,0,1-.68091,6.03317,29.02508,29.02508,0,0,1-1.875,5.71213,32.73926,32.73926,0,0,1-2.91016,5.1712l-.24341-.13516c.3335-.92276.72413-1.80844,1.03-2.725.28662-.92489.61109-1.8273.80933-2.769a35.54757,35.54757,0,0,0,.99-5.60226c.03223-.471.06543-.94062.07959-1.4104l-.02466-1.40989c-.03418-.93612-.00854-1.861.04273-2.793.13623-1.87176.24438-3.73874.50463-5.77844Z" fill="#fff"/><path d="M350,116.45247a2.39259,2.39259,0,0,1,1.51929.76792,3.145,3.145,0,0,1,.64184,1.49511,6.0997,6.0997,0,0,1,.20752,1.60437,4.85638,4.85638,0,0,1-.30493,1.54045l-.14819-.02325a5.701,5.701,0,0,0-.29-1.41576,5.13788,5.13788,0,0,0-.57349-1.24785,7.384,7.384,0,0,1-.77124-1.1068,4.95872,4.95872,0,0,1-.38135-1.503Z" fill="#fff"/><rect x="207.33664" y="465.87077" width="46.99047" height="42.46546" transform="translate(461.66375 974.20699) rotate(180)" fill="#ffcb5c"/><path d="M244.00415,468.07626a12.11337,12.11337,0,0,1,4.0376,4.60785,17.57485,17.57485,0,0,1,1.635,5.84717,29.02753,29.02753,0,0,1,.40747,5.9982,32.73575,32.73575,0,0,1-.75464,5.88562l-.27637-.03387c-.03759-.98044-.0083-1.948-.06909-2.91233-.08154-.96484-.11963-1.92309-.28979-2.8703a35.51524,35.51524,0,0,0-1.18677-5.5639c-.147-.44864-.29248-.89633-.45581-1.337l-.55249-1.29739c-.3833-.85474-.70679-1.72156-1.00928-2.60459-.5769-1.78588-1.178-3.55679-1.70264-5.545Z" fill="#fff"/><polygon points="230.484 465.871 207.337 508.336 207.337 465.871 230.484 465.871" fill="#f29720"/><rect x="435.5015" y="465.87077" width="46.99047" height="42.46546" transform="translate(917.99346 974.20699) rotate(180)" fill="#ffcb5c"/><path d="M472.169,468.07626a12.11335,12.11335,0,0,1,4.03759,4.60785,17.5687,17.5687,0,0,1,1.635,5.84717,29.04368,29.04368,0,0,1,.40772,5.9982,32.7567,32.7567,0,0,1-.75489,5.88562l-.27636-.03387c-.0376-.98044-.00806-1.948-.06885-2.91233-.08179-.96484-.11987-1.92309-.29-2.8703a35.54206,35.54206,0,0,0-1.18652-5.5639c-.147-.44864-.29273-.89633-.45606-1.337l-.55249-1.29739c-.3833-.85474-.70678-1.72156-1.00927-2.60459-.57691-1.78588-1.178-3.55679-1.70264-5.545Z" fill="#fff"/><polygon points="458.649 465.871 435.501 508.336 435.501 465.871 458.649 465.871" fill="#f29720"/><path d="M559.49979,318.65847a2.944,2.944,0,0,0-3.3864-2.42208l-17.42709,2.89285,10.733-6.64785a3.02871,3.02871,0,0,0,.96535-.96529,2.98341,2.98341,0,1,0-5.07263-3.14189l-6.64784,10.733,2.8929-17.42713a3.01346,3.01346,0,0,0,0-.96422,2.944,2.944,0,1,0-5.80854.96422l2.893,17.42713-6.6479-10.733a3.0288,3.0288,0,0,0-.96534-.96539,2.9834,2.9834,0,0,0-3.14194,5.07257l10.733,6.64785-17.42708-2.89285a3.01461,3.01461,0,0,0-.96422,0,2.944,2.944,0,0,0,.96422,5.80859l17.42718-2.89295-10.73312,6.64784a3.03023,3.03023,0,0,0-.96534.9653,2.98343,2.98343,0,1,0,5.07262,3.142l6.6479-10.73312-2.893,17.42724a3.01284,3.01284,0,0,0,0,.96412,2.944,2.944,0,0,0,5.80854-.96412l-2.8929-17.42714,6.64784,10.733a3.03106,3.03106,0,0,0,.96535.9654,2.98345,2.98345,0,0,0,3.14193-5.07268L538.68621,319.152l17.42718,2.89295a3.01521,3.01521,0,0,0,.96427,0A2.94408,2.94408,0,0,0,559.49979,318.65847Z" fill="#ef8378"/><path d="M524.7471,306.58253a1.74361,1.74361,0,0,0,0-3.48514A1.74361,1.74361,0,0,0,524.7471,306.58253Z" fill="#ef8378"/><path d="M552.76766,306.58253a1.74361,1.74361,0,0,0,0-3.48514A1.74361,1.74361,0,0,0,552.76766,306.58253Z" fill="#ef8378"/><path d="M552.76766,331.118a1.74361,1.74361,0,0,0,0,3.48513A1.74361,1.74361,0,0,0,552.76766,331.118Z" fill="#ef8378"/><path d="M524.64257,331.118a1.74361,1.74361,0,0,0,0,3.48513A1.74361,1.74361,0,0,0,524.64257,331.118Z" fill="#ef8378"/><path d="M182.37045,115.90894a3.65813,3.65813,0,0,0-4.20789-3.00965L156.508,116.4939l13.33667-8.2605a3.76329,3.76329,0,0,0,1.19952-1.19946,3.70714,3.70714,0,1,0-6.30316-3.90406l-8.2605,13.33667,3.59467-21.65466a3.74431,3.74431,0,0,0,0-1.19812,3.65818,3.65818,0,1,0-7.21759,1.19812l3.59472,21.65466-8.26055-13.33667a3.7638,3.7638,0,0,0-1.19953-1.19958,3.70713,3.70713,0,0,0-3.90411,6.3031l13.33667,8.2605-21.6546-3.59461a3.74632,3.74632,0,0,0-1.19812,0,3.65821,3.65821,0,0,0,1.19812,7.21766l21.65472-3.59473-13.33679,8.2605a3.76523,3.76523,0,0,0-1.19953,1.19946,3.70717,3.70717,0,1,0,6.30317,3.90417l8.26055-13.33679-3.59472,21.65479a3.74328,3.74328,0,0,0,0,1.198,3.65817,3.65817,0,0,0,7.21759-1.198l-3.59467-21.65467,8.2605,13.33667a3.76623,3.76623,0,0,0,1.19953,1.19959,3.70718,3.70718,0,0,0,3.90411-6.30322l-13.33679-8.2605,21.65472,3.59473a3.74669,3.74669,0,0,0,1.19818,0A3.65827,3.65827,0,0,0,182.37045,115.90894Z" fill="#ef8378"/><path d="M139.18734,100.90357c2.78656,0,2.79114-4.33057,0-4.33057C136.40084,96.573,136.3962,100.90357,139.18734,100.90357Z" fill="#ef8378"/><path d="M174.00521,100.90357c2.7865,0,2.79114-4.33057,0-4.33057C171.21871,96.573,171.21407,100.90357,174.00521,100.90357Z" fill="#ef8378"/><path d="M174.00521,131.39087c-2.7865,0-2.79114,4.33057,0,4.33057C176.79171,135.72144,176.79635,131.39087,174.00521,131.39087Z" fill="#ef8378"/><path d="M139.05746,131.39087c-2.78656,0-2.79114,4.33057,0,4.33057C141.844,135.72144,141.8486,131.39087,139.05746,131.39087Z" fill="#ef8378"/><path d="M156.7311,308.80391v-1.44336h-11.297a4.32723,4.32723,0,0,0-.23847-.77283l9.82062-5.64514-.71875-1.252-9.87189,5.67456a4.37209,4.37209,0,0,0-.587-.55615l5.63562-9.91822-1.25586-.71289-5.64661,9.9375a4.288,4.288,0,0,0-.70105-.18481V292.5002h-1.44336v11.43042a4.2852,4.2852,0,0,0-.72265.1914l-5.69629-9.908-1.252.71875,5.6858,9.88965a4.38608,4.38608,0,0,0-.58417.55921l-9.90045-5.62464-.71289,1.25586,9.85015,5.59607a4.32355,4.32355,0,0,0-.23187.75159H125.567v1.44336h11.26587a4.31692,4.31692,0,0,0,.18988.81811l-9.74188,5.60083.71875,1.252,9.7052-5.57972a4.38972,4.38972,0,0,0,.63849.66321l-5.52045,9.71533,1.25586.7129,5.50287-9.68457a4.31868,4.31868,0,0,0,.84576.22973v11.13257h1.44336V312.53169a4.32057,4.32057,0,0,0,.867-.23645l5.551,9.65515,1.25195-.71875-5.56958-9.6875a4.38811,4.38811,0,0,0,.63581-.6665l9.73358,5.52978.71289-1.25586-9.7721-5.55175a4.31071,4.31071,0,0,0,.183-.7959Zm-12.55078-.57227a3.03174,3.03174,0,1,1-3.03125-3.03222A3.03411,3.03411,0,0,1,144.18032,308.23164Z" fill="#ef8378"/><path d="M544.58666,146.03645v-2.48434H525.142a7.44737,7.44737,0,0,0-.41045-1.33021l16.90348-9.71655-1.23713-2.15489-16.99172,9.76718a7.52672,7.52672,0,0,0-1.01032-.95726l9.70016-17.07146-2.16161-1.227-9.71907,17.10466a7.381,7.381,0,0,0-1.20666-.31811V117.97412h-2.48435v19.67431a7.37654,7.37654,0,0,0-1.24385.32945l-9.80459-17.05381L503.321,122.1612l9.78652,17.02229a7.549,7.549,0,0,0-1.00548.96252l-17.04089-9.68125-1.22705,2.16161,16.95433,9.63209a7.44025,7.44025,0,0,0-.39911,1.29365h-19.443v2.48434h19.39107a7.43043,7.43043,0,0,0,.32683,1.40816l-16.76795,9.64028,1.23713,2.15489,16.70481-9.60393a7.55622,7.55622,0,0,0,1.099,1.14153l-9.50192,16.72225,2.16162,1.227,9.47166-16.66931a7.43458,7.43458,0,0,0,1.45575.39543v19.16163h2.48435V152.4528a7.43712,7.43712,0,0,0,1.4923-.407l9.55445,16.61868,2.15489-1.23713L522.62383,150.753a7.55416,7.55416,0,0,0,1.09436-1.14721l16.75367,9.518,1.227-2.16162L524.879,147.40637a7.41977,7.41977,0,0,0,.31495-1.36992Zm-21.6027-.985a5.2183,5.2183,0,1,1-5.21746-5.21914A5.2224,5.2224,0,0,1,522.984,145.05145Z" fill="#ef8378"/><path d="M454.26143,52.7503l6.03864,2.295-6.03864,2.295a6.90185,6.90185,0,0,0-3.79756,3.52251l-3.54528,7.564-3.54529-7.564a6.90185,6.90185,0,0,0-3.79756-3.52251l-6.03864-2.29495,6.03864-2.29495a6.90187,6.90187,0,0,0,3.79756-3.52252l3.54529-7.564,3.54528,7.564A6.90187,6.90187,0,0,0,454.26143,52.7503Z" fill="#ef8378"/><path d="M95.64813,227.96175l6.03864,2.295-6.03864,2.295a6.90182,6.90182,0,0,0-3.79756,3.52251l-3.54529,7.564-3.54528-7.564a6.90185,6.90185,0,0,0-3.79756-3.52251l-6.03864-2.295,6.03864-2.29495A6.90188,6.90188,0,0,0,84.76,224.43924l3.54528-7.564,3.54529,7.564A6.90185,6.90185,0,0,0,95.64813,227.96175Z" fill="#ef8378"/><path d="M615.58166,262.12141l6.03864,2.295-6.03864,2.295a6.90192,6.90192,0,0,0-3.79756,3.52251l-3.54528,7.564-3.54528-7.564a6.90192,6.90192,0,0,0-3.79756-3.52251l-6.03864-2.295,6.03864-2.295a6.90188,6.90188,0,0,0,3.79756-3.52251l3.54528-7.564,3.54528,7.564A6.90188,6.90188,0,0,0,615.58166,262.12141Z" fill="#f05b43"/><path d="M201.541,345.27229l3.01932,1.14747-3.01932,1.14748a3.45093,3.45093,0,0,0-1.89878,1.76126l-1.77265,3.782-1.77264-3.782a3.45093,3.45093,0,0,0-1.89878-1.76126l-3.01932-1.14748,3.01932-1.14747a3.45093,3.45093,0,0,0,1.89878-1.76126l1.77264-3.782,1.77265,3.782A3.45093,3.45093,0,0,0,201.541,345.27229Z" fill="#f05b43"/><path d="M581.06907,190.3994l3.01932,1.14747-3.01932,1.14748a3.45093,3.45093,0,0,0-1.89878,1.76126l-1.77264,3.782-1.77265-3.782a3.451,3.451,0,0,0-1.89877-1.76126l-3.01932-1.14748,3.01932-1.14747a3.451,3.451,0,0,0,1.89877-1.76126l1.77265-3.782,1.77264,3.782A3.45093,3.45093,0,0,0,581.06907,190.3994Z" fill="#f05b43"/><path d="M166.591,187.3004l3.01932,1.14747-3.01932,1.14748a3.45093,3.45093,0,0,0-1.89878,1.76126l-1.77264,3.782-1.77264-3.782a3.451,3.451,0,0,0-1.89878-1.76126l-3.01932-1.14748,3.01932-1.14747a3.451,3.451,0,0,0,1.89878-1.76126l1.77264-3.782,1.77264,3.782A3.45093,3.45093,0,0,0,166.591,187.3004Z" fill="#f05b43"/><path d="M320.30745,83.25889l3.52147,1.33832-3.52147,1.33831a4.02493,4.02493,0,0,0-2.21457,2.05418l-2.06745,4.411-2.06745-4.411a4.02493,4.02493,0,0,0-2.21457-2.05418l-3.52147-1.33831,3.52147-1.33832a4.02488,4.02488,0,0,0,2.21457-2.05417l2.06745-4.411,2.06745,4.411A4.02488,4.02488,0,0,0,320.30745,83.25889Z" fill="#f05b43"/><path d="M155.32,67.54c5.79107,0,5.80066-9,0-9-5.79107,0-5.80066,9,0,9Z" fill="#f05b43"/><path d="M381.02241,95.05406c5.79107,0,5.80066-9,0-9-5.79108,0-5.80067,9,0,9Z" fill="#f05b43"/><path d="M130.51232,266.674c5.79107,0,5.80067-9,0-9-5.79107,0-5.80066,9,0,9Z" fill="#f05b43"/><path d="M182.4204,154.76891c5.79107,0,5.80067-9,0-9-5.79107,0-5.80066,9,0,9Z" fill="#f05b43"/><path d="M182.4204,406.96436c5.79107,0,5.80067-9,0-9-5.79107,0-5.80066,9,0,9Z" fill="#f05b43"/><path d="M501.54207,483.34c5.79107,0,5.80066-9,0-9-5.79107,0-5.80067,9,0,9Z" fill="#f05b43"/><path d="M603.52,385.842c5.79107,0,5.80066-9,0-9-5.79107,0-5.80066,9,0,9Z" fill="#f05b43"/><path d="M130.51232,470.08436c5.79107,0,5.80067-9,0-9-5.79107,0-5.80066,9,0,9Z" fill="#f05b43"/><path d="M524.64257,89.34189c5.79107,0,5.80066-9,0-9-5.79107,0-5.80067,9,0,9Z" fill="#f05b43"/><path d="M540.86346,186.25713c5.79107,0,5.80066-9,0-9-5.79107,0-5.80066,9,0,9Z" fill="#f05b43"/><path d="M495.52,234.7567c5.79107,0,5.80066-9,0-9-5.79107,0-5.80066,9,0,9Z" fill="#f05b43"/><path d="M412.36,367.18438c5.79107,0,5.80066-9,0-9-5.79107,0-5.80066,9,0,9Z" fill="#f05b43"/><path d="M268.25415,371.24436c5.79107,0,5.80067-9,0-9-5.79107,0-5.80066,9,0,9Z" fill="#f05b43"/><path d="M325.46107,461.44436c5.79107,0,5.80066-9,0-9-5.79107,0-5.80066,9,0,9Z" fill="#f05b43"/><path d="M592.80459,311.08253c5.79107,0,5.80066-9,0-9-5.79108,0-5.80067,9,0,9Z" fill="#f05b43"/><path d="M501.54207,361.47248c5.79107,0,5.80066-9,0-9-5.79107,0-5.80067,9,0,9Z" fill="#f05b43"/><path d="M101.68677,357.20934c5.79107,0,5.80066-9,0-9-5.79107,0-5.80067,9,0,9Z" fill="#f05b43"/><path d="M278.4487,59.54525c5.79107,0,5.80066-9,0-9-5.79107,0-5.80066,9,0,9Z" fill="#f05b43"/><path d="M559.54,439.06c5.79108,0,5.80067-9,0-9-5.79107,0-5.80066,9,0,9Z" fill="#f05b43"/></svg>