<svg id="Layer_1" data-name="Layer 1" xmlns="http://www.w3.org/2000/svg" viewBox="0 0 700 550"><title>2021- ox year</title><path d="M388.50127,245.33722c-2.59674-7.76216-1.16858-13.74519,25.92-74.16,12.98522-28.96057,16.28088-35.66785,24.48-43.92,17.22546-17.33687,37.59695-22.87619,44.64-24.48,30.48566-6.94206,75.59134-.34355,97.2,33.12,14.26764,22.09517,18.89917,56.84378,3.6,73.44-11.92786,12.93909-28.56006,6.80586-36.72,20.16-10.19721,16.68813,10.75244,34.488,2.88,49.68-11.60058,22.38651-73.0664,14.56561-113.76-.72C413.40172,269.69025,394.2405,262.49277,388.50127,245.33722Z" fill="#ffefd9"/><path d="M144.51038,464.568c-34.22407-25.72072-66.214-75.06713-54.64959-114.18888,9.81622-33.20736,43.23626-32.97479,52.966-67.77925,11.34077-40.56878-27.72631-63.56338-23.81752-96.30363,9.525-79.776,264.87377-139.33015,297.19561-82.843,22.88626,39.99931-78.81991,115.86847-50.74077,165.684,25.06378,44.46864,119.93524,8.558,147.04337,54.88316C535.10061,362.62729,499.01408,438.49647,445.48157,472c-28.5989,17.89717-66.83411,16.82084-142.12585,17.64871-82.89169.91036-125.03274.329-158.84534-25.08069" fill="#ffefd9"/><path d="M613.57375,288.0146c7.6611,0,7.67379-11.90625,0-11.90625-7.6611,0-7.67379,11.90625,0,11.90625Z" fill="#f4d69e"/><path d="M626.53375,145.4546c7.6611,0,7.67379-11.90625,0-11.90625-7.6611,0-7.67379,11.90625,0,11.90625Z" fill="#f4d69e"/><path d="M553.09375,428.4146c7.6611,0,7.67379-11.90625,0-11.90625-7.6611,0-7.67379,11.90625,0,11.90625Z" fill="#f4d69e"/><path d="M159.97375,175.6946c7.6611,0,7.67379-11.90625,0-11.90625-7.6611,0-7.67379,11.90625,0,11.90625Z" fill="#fff"/><path d="M365.20788,125.51392c7.6611,0,7.67379-11.90625,0-11.90625-7.6611,0-7.67379,11.90625,0,11.90625Z" fill="#fff"/><path d="M276.64966,204.93829c7.66111,0,7.67379-11.90625,0-11.90625-7.6611,0-7.67379,11.90625,0,11.90625Z" fill="#fff"/><path d="M532.98149,157.18279c7.6611,0,7.67379-11.90625,0-11.90625-7.6611,0-7.67379,11.90625,0,11.90625Z" fill="#fff"/><path d="M451.22094,232.802c7.6611,0,7.67379-11.90625,0-11.90625-7.66111,0-7.6738,11.90625,0,11.90625Z" fill="#fff"/><path d="M403.78822,331.54232c7.66111,0,7.6738-11.90625,0-11.90625-7.6611,0-7.67379,11.90625,0,11.90625Z" fill="#fff"/><path d="M151.98742,388.70555c7.6611,0,7.67379-11.90625,0-11.90625-7.66111,0-7.67379,11.90625,0,11.90625Z" fill="#fff"/><path d="M415.74529,447.69457c7.66111,0,7.67379-11.90625,0-11.90625-7.6611,0-7.67379,11.90625,0,11.90625Z" fill="#fff"/><path d="M238.727,343.06064c7.6611,0,7.67379-11.90625,0-11.90625-7.66111,0-7.67379,11.90625,0,11.90625Z" fill="#fff"/><path d="M295.0855,442.41866c7.6611,0,7.67379-11.90625,0-11.90625-7.66111,0-7.6738,11.90625,0,11.90625Z" fill="#fff"/><path d="M295.0855,155.15037c7.6611,0,7.67379-11.90625,0-11.90625-7.66111,0-7.6738,11.90625,0,11.90625Z" fill="#f05b43"/><path d="M73.82519,245.229c7.6611,0,7.67379-11.90625,0-11.90625-7.66111,0-7.6738,11.90625,0,11.90625Z" fill="#f05b43"/><path d="M446.22918,294.703c7.6611,0,7.67379-11.90625,0-11.90625-7.6611,0-7.67379,11.90625,0,11.90625Z" fill="#f05b43"/><path d="M264.21137,442.41866c7.6611,0,7.67379-11.90625,0-11.90625-7.66111,0-7.67379,11.90625,0,11.90625Z" fill="#f05b43"/><path d="M164.13877,300.722c7.66111,0,7.6738-11.90625,0-11.90625-7.6611,0-7.67379,11.90625,0,11.90625Z" fill="#f05b43"/><path d="M259.50207,211.7284c-.47981.09893-.89417.14133-6.94645-.66154-5.87481-.77931-6.90888-1.00834-8.26958-.33088a7.44472,7.44472,0,0,0-3.63862,5.29254c-.88,5.08931,3.98426,10.28471,7.9388,12.90059,6.41852,4.24561,11.30914,2.27019,14.22367,6.285,1.53657,2.11653,1.673,4.758.99235,9.59266-1.28993,9.16218-1.9349,13.74316-6.94644,22.49325-9.21361,16.08692-12.60533,38.6118-12.90055,50.279-.52478,20.74059,7.96721,37.55006,13.56212,48.62508,7.99073,15.8175,14.62748,20.74731,20.50857,39.03263a81.97052,81.97052,0,0,1,4.30017,25.801,78.84891,78.84891,0,0,1-2.31548,18.85466h33.7399a13.49116,13.49116,0,0,0,3.63862-10.91574c-.4691-2.80475-2.535-3.92639-4.96176-8.26958a29.15344,29.15344,0,0,1-2.977-7.608c-.70651-3.41672-.05725-6.88863,6.28488-18.524,5.8321-10.69971,8.818-16.05933,12.239-16.53917,3.80482-.53367,4.54453,2.82047,11.90819,5.95431,6.03385,2.56787,11.18954,2.70426,21.50091,2.977,7.31163.19337,10.96744.29006,15.216-.66176,9.68687-2.17014,14.36437-6.94337,17.8623-4.63078,2.131,1.409.981,3.56792,3.63862,7.27716,2.13794,2.984,4.70571,4.13188,9.9235,6.61562,3.27292,1.558,19.18543,7.608,26.43681,14.75717l-.63571-1.195c6.61566,10.58508-7.27724,30.10129-7.27724,30.10129h45.31731c.003-2.2186.05259-5.82039.33079-10.25421.88964-14.17879,2.828-16.3164.99235-21.17016-2.28585-6.044-6.19366-5.11465-9.9235-12.90059a33.62761,33.62761,0,0,1-2.97705-12.90058c-.789-10.46619,1.81463-15.55684,2.64626-22.49325,1.95564-16.31125-7.04484-33.17546-17.86229-42.671-3.29348-2.89112-9.08656-7.97616-17.8623-9.92354-7.55285-1.676-10.61.46031-18.52386-1.654-4.84859-1.29526-8.70116-3.85819-16.20839-8.93112-10.457-7.06629-15.80628-10.48952-21.50091-16.86982-8.5745-9.6068-9.56841-15.84016-15.38143-20.3433a14.74468,14.74468,0,0,1-5.12713-7.27716,4.22194,4.22194,0,0,1-.1654-2.64638c.94044-2.523,4.95452-1.72216,8.76576-3.96924,3.87774-2.28634,5.3418-6.42853,6.28488-9.09668.70065-1.98237,3.20019-9.054,0-12.40437-1.5003-1.57074-2.76143-.76159-7.27723-2.14995-4.37626-1.34551-7.2055-3.33933-10.91585-5.9543-4.48138-3.1583-6.7807-4.82931-7.44262-7.77338-.11494-.51124-.08908-.65436.16539-4.79633.46993-7.64909.44186-8.13992.33078-8.76579-.41991-2.366-1.93385-4.2234-4.96174-7.9387-3.71626-4.55989-5.57438-6.83972-8.435-8.26958-3.86154-1.93011-7.64441-1.87336-11.24662-1.81929-4.17654.06258-4.35331.81991-8.60036.82687-4.43886.0074-5.13386-.81835-9.92351-1.15776-3.801-.26941-7.65254-.54242-11.7428.8271a21.392,21.392,0,0,0-10.0889,7.44249" fill="#c76944"/><path d="M254.04414,227.606a8.85855,8.85855,0,0,1-5.62331-3.30792c-.27191-.37755-2.92069-4.05628-1.15775-6.4503,1.24089-1.68514,3.96842-1.78452,5.78871-.99219,2.33327,1.01552,3.76225,3.75141,3.14244,4.63077-.62126.88138-3.09108-.40019-3.63861.49622-.497.81363.99715,2.75473,1.81931,3.63858,1.10853,1.19184,2.11049,1.66046,1.9847,1.98484C256.2237,227.95665,254.90518,227.79267,254.04414,227.606Z" fill="#b15833"/><path d="M269.19887,243.59055a26.67072,26.67072,0,0,0,2.26226,5.17589,27.54278,27.54278,0,0,0,3.1958,4.58457,22.51994,22.51994,0,0,0,4.12991,3.59926,17.97837,17.97837,0,0,0,4.88393,2.22029c.438.1221.82851.26779,1.30078.37278l1.39389.32589,2.78444.62593c1.85424.39745,3.70363.75369,5.54428,1.02789a50.94032,50.94032,0,0,0,11.056.47292c1.86728-.12,3.73939-.27885,5.62418-.51613l5.74205-.70956a38.92558,38.92558,0,0,1,12.10648.436c1.00375.23105,2.00452.4907,2.92652.76238.922.27817,1.77975.525,2.60528.73274,1.54623.37141,3.57645.58016,5.402.84933a59.42517,59.42517,0,0,0,11.283.554l.13557.53439a30.76012,30.76012,0,0,1-11.5275,2.80634q-1.47854.10105-2.94105.13732a24.20728,24.20728,0,0,1-3.12392-.07181c-1.06595-.10529-2.07715-.28912-3.0215-.4469-.94229-.17356-1.81662-.31439-2.698-.42887a79.84721,79.84721,0,0,0-10.826-.41642l-5.72735.1327c-1.9386.0444-3.89675.065-5.86124.05382a55.06176,55.06176,0,0,1-11.832-1.27924c-1.925-.4445-3.809-.96607-5.66793-1.52109l-2.771-.85763-1.37732-.43933c-.45513-.13911-.955-.3559-1.4276-.5313a20.491,20.491,0,0,1-5.2953-3.02406,24.47232,24.47232,0,0,1-4.14667-4.33936,27.78975,27.78975,0,0,1-4.67089-10.70588Z" fill="#b15833"/><path d="M288.355,205.18886a25.80462,25.80462,0,0,1,10.03193-3.75974,20.1609,20.1609,0,0,1,3.79787-.1122c.64973.02,1.30357.11159,1.97286.19642.69369.0736,1.24491.20294,1.88106.306a9.97008,9.97008,0,0,1,3.45093,1.44413,12.46852,12.46852,0,0,1,2.82857,2.5842,7.97646,7.97646,0,0,1,1.71289,3.60647l-.41435.3367c-2.53582-.57674-4.53047-1.11111-6.51954-1.75392a14.85365,14.85365,0,0,1-2.84291-1.24184l-.70039-.382c-.23948-.13417-.46873-.25652-.68009-.34786l-.66315-.30443c-.22626-.09242-.46947-.14857-.70579-.22669a16.15093,16.15093,0,0,0-3.02336-.55546,23.41387,23.41387,0,0,0-3.23026-.11457,35.58682,35.58682,0,0,0-6.67839.81226Z" fill="#6c353c"/><path d="M332.94407,208.369a7.59906,7.59906,0,0,1,.95105-2.30179c.21751-.34149.44712-.6807.68866-1.01073a11.67336,11.67336,0,0,1,.79592-.90217c.27971-.28367.50951-.66738.77861-.9929a1.33852,1.33852,0,0,1,1.03-.52409,3.0971,3.0971,0,0,1,1.34919.28176,4.61549,4.61549,0,0,1,.75291.41607l.40951.321.20261.16355.21919.21519.18287.50164-.02309.30839-.04.25676-.07561.50732a6.03564,6.03564,0,0,1-.21639.7901,3.23863,3.23863,0,0,1-.55979,1.10278.9475.9475,0,0,1-.84323.37543,4.74223,4.74223,0,0,0-1.05273-.01122l-.98252.17254c-.34116.04474-.67972.10191-1.02126.1696a19.97936,19.97936,0,0,0-2.1211.48442Z" fill="#6c353c"/><path d="M320.36618,254.58666a16.6439,16.6439,0,0,1,11.964-.09195,7.78966,7.78966,0,0,1,.97377.41021l.48028.2257.43464.19992.75943.36155c.25662.1177.5367.21127.803.31905a62.64329,62.64329,0,0,0,6.9622,2.10013c2.4267.62027,4.8966,1.22392,7.436,2.02077a25.58339,25.58339,0,0,1-7.84509.84008,24.474,24.474,0,0,1-7.9-1.54254c-.3231-.13809-.64713-.25792-.96819-.4127l-.95756-.49117-.79667-.43786c-.24768-.14288-.5002-.278-.762-.40106a23.50281,23.50281,0,0,0-3.25967-1.34212A49.28011,49.28011,0,0,0,320.36618,254.58666Z" fill="#b15833"/><path d="M332.99893,247.43731a9.32168,9.32168,0,0,1-3.0405-4.41842,7.74294,7.74294,0,0,1-.40094-2.909,5.00072,5.00072,0,0,1,1.16726-3.04277,5.19357,5.19357,0,0,1,2.71478-1.60563,24.81059,24.81059,0,0,1,2.68276-.38847c1.67677-.23185,3.30735-.65095,5.0331-1.029a16.11568,16.11568,0,0,1,2.62968-.37729,18.68814,18.68814,0,0,1,2.60938.07277c.844.06671,1.66.13478,2.38349.167a9.63861,9.63861,0,0,0,1.89689-.07709,10.54068,10.54068,0,0,0,1.94344-.5063c.71659-.24968,1.51177-.55509,2.34978-.8098a12.38232,12.38232,0,0,1,5.26756-.54238l.07952.35881c-1.47044.97544-2.788,1.82323-4.07013,2.79211-.65179.47027-1.31065.96069-2.08852,1.42574a9.15794,9.15794,0,0,1-2.73173,1.13486,8.0875,8.0875,0,0,1-3.04961.053c-.92368-.14521-1.73972-.3705-2.53117-.5658-1.57472-.35192-3.05763-.78857-4.65264-1.11363a9.89968,9.89968,0,0,0-4.81559.17524,5.37177,5.37177,0,0,0-2.05778,1.05808,3.92216,3.92216,0,0,0-1.07173,1.52127,7.40372,7.40372,0,0,0-.433,1.60047,10.35473,10.35473,0,0,0-.05158,2.02966c.08789,1.47113.36369,3.05856.55234,4.80749Z" fill="#b15833"/><path d="M350.881,246.21255c-.25194,1.77538-3.5067.016-6.533-.41348s-5.24626-1.15231-4.99431-2.92769,2.90946-2.86645,5.93573-2.437S351.13289,244.43718,350.881,246.21255Z" fill="#6c353c"/><path d="M308.56028,218.9691c-.27745,2.27722-4.485.10894-8.36671-.364s-6.73953-1.34152-6.46208-3.61874,3.64912-3.73989,7.53084-3.267S308.83773,216.69187,308.56028,218.9691Z" fill="#fcfcfc"/><path d="M361.86253,243.71449c1.00073,1.31141,2.75754-1.22819,4.92442-3.08719a9.54934,9.54934,0,0,0-.71234-5.89531,8.74786,8.74786,0,0,0-2.159,1.20823C361.48544,237.79428,360.77477,242.28867,361.86253,243.71449Z" fill="#6c353c"/><ellipse cx="302.11798" cy="215.40957" rx="1.70905" ry="3.06969" fill="#6c353c"/><path d="M276.297,192.90513s-41.714-8.63175-16.57442-47.44366c0,0-46.30966,25.36007-.22052,66.26693C259.50207,211.7284,272.91418,203.19079,276.297,192.90513Z" fill="#6c353c"/><path d="M331.9785,192.42082c.95227,1.08485,1.99932,2.36351,3.27293,3.92617,3.028,3.7153,4.54183,5.57273,4.96177,7.9387.11105.62587.1392,1.1167-.33077,8.76579,54.79978-33.62905,5.71551-67.2581,5.71551-67.2581C366.57306,178.17585,341.0237,189.54159,331.9785,192.42082Z" fill="#6c353c"/><path d="M365.45463,182.75556a.27373.27373,0,0,1-.01527.0839,28.01406,28.01406,0,0,1-2.24252,7.13958,36.19889,36.19889,0,0,1-4.40123,7.10908,48.78538,48.78538,0,0,1-4.61484,5.11825A67.37484,67.37484,0,0,1,348.00984,207.5a95.57615,95.57615,0,0,1-8.13114,5.553c.47283-7.65063.44229-8.13882.33558-8.7643-.41956-2.37223-1.93748-4.22577-4.96568-7.94049-1.27378-1.56368-2.31887-2.84514-3.27234-3.92832.92293-.28986,2.0062-.67124,3.20362-1.1518l.31286-.12966c.35848-.14493.73987-.30508,1.12889-.48055l.206-.09153c.69406-.31272,1.41866-.656,2.15108-1.03736l.03036-.01527c.49591-.25932.99928-.534,1.50264-.82382l.06872-.03813c.94584-.55681,1.89931-1.15939,2.83751-1.83063q.77823-.54926,1.53319-1.16707l.00763-.00764a25.48068,25.48068,0,0,0,2.296-2.08236l.09925-.09917c.2745-.27459.53391-.55681.79314-.84667l.01527-.02291a23.50781,23.50781,0,0,0,1.884-2.418c.3434-.511.67134-1.03736.97638-1.58658a20.5736,20.5736,0,0,0,1.41121-3.1121c.2136-.595.4043-1.21284.56445-1.84595v-.00764a21.52414,21.52414,0,0,0,.63316-4.21049v-.03813c.03054-.67125.038-1.3654.01527-2.08242v-.07626c-.01527-.33562-.03817-.67888-.06108-1.02214-.04581-.5873-.11434-1.17466-.206-1.7925v-.00764a29.95667,29.95667,0,0,0-.6408-3.21889c-.14489-.57972-.31267-1.15944-.49573-1.75443v-.00759a55.39473,55.39473,0,0,0-6.64376-13.62323,60.279,60.279,0,0,1,12.81469,12.65449,43.47393,43.47393,0,0,1,2.73825,4.15714,35.96077,35.96077,0,0,1,2.42576,4.91988,30.228,30.228,0,0,1,1.9373,6.99469A25.99218,25.99218,0,0,1,365.45463,182.75556Z" fill="#6c353c"/><path d="M266.4485,363.88859c-20.79049-19.14046-18.68821-72.52418-18.67823-72.7743a130.26829,130.26829,0,0,0-3.815,26.46472c-.52481,20.74059,7.96719,37.55006,13.56213,48.62508,7.99074,15.8175,14.62745,20.74731,20.50863,39.03263a81.97185,81.97185,0,0,1,4.30012,25.801,78.8462,78.8462,0,0,1-2.3155,18.85466h14.55454c-5.95419-8.26958-6.61573-43.99407-6.61573-53.58673C287.94944,386.71272,287.2879,383.07414,266.4485,363.88859Z" fill="#b15833"/><path d="M430.94161,318.00591a32.34112,32.34112,0,0,0-3.73235-1.08843c-7.55286-1.676-10.61.46031-18.52389-1.654-4.8486-1.29526-8.70119-3.85819-16.2084-8.93112-10.457-7.06629-15.80629-10.48952-21.50094-16.86982-7.04184-7.88957-8.97475-13.50111-12.65921-17.75053h-.00011s11.23216,52.15194-18.98253,94.49205c0,0,13.64165-3.96924,27.60352-55.90224,0,0,2.05371-11.90816,17.93123-2.977C400.52985,316.1339,408.81705,323.41622,430.94161,318.00591Z" fill="#b15833"/><path d="M450.03328,428.72217c0-5.95408-15.21609-22.82391-15.21609-22.82391-32.3763-4.67048-40.02472-25.13963-40.02472-25.13963-31.0936,16.53917-52.85262,14.022-52.85262,14.022H341.94c5.23108,1.80717,10.31892,1.94514,19.44341,2.18651,7.3116.19337,10.96745.29006,15.216-.66176,9.68688-2.17014,14.36443-6.94337,17.86236-4.63078,2.131,1.409.981,3.56792,3.63858,7.27716,2.13795,2.984,4.7057,4.13188,9.92355,6.61562,3.27292,1.558,19.18532,7.608,26.43668,14.75711,4.9777,10.79035-7.9129,28.90631-7.9129,28.90631h21.17017C446.72547,441.95341,450.03328,434.67625,450.03328,428.72217Zm-16.2084-9.59266a10.68733,10.68733,0,0,1,.63552,1.19476Z" fill="#b15833"/><path d="M509.16784,415.32823c-.18687-7.37576-1.21989-19.34684-1.21989-19.34684.40558-1.62413.75733-2.9988,1.06779-4.21107,1.73719-6.79351,2.20559-8.62043,3.62692-20.27016,1.96151-16.10039-6.48574-24.74953-22.76109-35.07843-17.91564-11.368-40.89012-6.87131-41.8-6.69813l3.74636,4.34195c.1992-.03948,19.06481-3.16495,35.09969,7.01141,16.97885,10.77486,21.70766,17.7272,20.24146,29.7556-1.37827,11.2962-1.78385,12.88533-3.49412,19.57206-.2536.991-.54365,2.13043-.85928,3.38442-5.41783,8.40687-13.92632,26.27517.90953,39.24306,0,0,11.31347,7.56811,19.80178,3.01147C523.527,436.04357,509.51061,428.84358,509.16784,415.32823Z" fill="#c76944"/><path d="M509.16784,415.32823c-.18687-7.37576-1.21989-19.34684-1.21989-19.34684.40558-1.62413-4.81663-3.44634-5.13226-2.19235-5.41783,8.40687-13.92632,26.27517.90953,39.24306,0,0,11.31347,7.56811,19.80178,3.01147C523.527,436.04357,509.51061,428.84358,509.16784,415.32823Z" fill="#6c353c"/><path d="M509.168,415.32836a163.29693,163.29693,0,0,0-1.63985-18.52117c-2.16248,5.363-5.36992,14.452-4.42324,19.18491,1.13748,5.68644,6.06867,15.10569,14.63294,21.48363a12.72235,12.72235,0,0,0,5.78919-1.43231S509.51071,428.84356,509.168,415.32836Z" fill="#562b32"/><path d="M251.51619,181.84763c12.152,22.00937,13.59061,25.639,13.59622,25.65311,4.09924-3.47011,9.26111-8.74717,11.1846-14.5956,0,0-41.7139-8.63187-16.57439-47.44354C259.72262,145.4616,239.34029,159.79541,251.51619,181.84763Z" fill="#562b32"/><path d="M274.80617,193.06069a31.19323,31.19323,0,0,1-1.99838,2.59341c-.679.81618-1.3883,1.59422-2.1129,2.357a44.87606,44.87606,0,0,1-4.653,4.20291,33.30842,33.30842,0,0,1-5.25563,3.32569A24.0132,24.0132,0,0,1,255.01215,207.5a22.89225,22.89225,0,0,0,5.02658-3.12737,30.84811,30.84811,0,0,0,4.08857-4.14192,40.79326,40.79326,0,0,0,3.28761-4.74445c.48809-.82381.95347-1.66285,1.38048-2.50952.36612-.70942.73243-1.48742,1.01456-2.17394.94583.39666,1.82314.717,2.60863.9916l.02291.00764Z" fill="#562b32"/><path d="M249.841,201.84184a34.73321,34.73321,0,0,0,4.62155-2.54169,35.79007,35.79007,0,0,0,4.14815-3.14282,26.72377,26.72377,0,0,0,3.48464-3.70555,21.42049,21.42049,0,0,0,2.51851-4.21008l3.22169,1.76895a24.63274,24.63274,0,0,1-3.71649,4.31278,29.03282,29.03282,0,0,1-4.41651,3.312,37.17993,37.17993,0,0,1-4.80963,2.47656A35.17343,35.17343,0,0,1,249.841,201.84184Z" fill="#562b32"/><path d="M262.98313,187.22542a68.80663,68.80663,0,0,1-8.2762,5.07249q-4.35906,2.29978-8.871,4.17237c2.72317-1.78488,5.33944-3.69945,7.86428-5.70556a68.89826,68.89826,0,0,0,6.34617-5.70556A31.888,31.888,0,0,0,262.98313,187.22542Z" fill="#562b32"/><path d="M256.469,181.45121a30.30711,30.30711,0,0,1-3.06636,2.56293,30.03445,30.03445,0,0,1-7.42182,3.96644,24.02147,24.02147,0,0,1-4.14951,1.14417,24.76568,24.76568,0,0,0,4.37071-.25172,30.52963,30.52963,0,0,0,4.3402-.923,31.59471,31.59471,0,0,0,4.23342-1.54081,33.52973,33.52973,0,0,0,4.03508-2.1434l-1.02974-1.32723-.03814-.0534Z" fill="#562b32"/><path d="M255.47734,180.13161a14.28626,14.28626,0,0,1-3.76044,1.72388,23.66925,23.66925,0,0,1-4.01985.82382,36.97718,36.97718,0,0,1-3.98167.25931c-1.31959.01527-2.62391-.01527-3.92822-.122,1.289-.19833,2.55519-.47292,3.80624-.78568a34.14635,34.14635,0,0,0,3.66882-1.14417,21.03647,21.03647,0,0,0,3.37924-1.56368,11.14247,11.14247,0,0,0,2.64681-2.10527l1.18979,1.35013.00782.00763C254.79092,179.10947,255.12649,179.6282,255.47734,180.13161Z" fill="#562b32"/><path d="M253.17374,175.86767a12.03025,12.03025,0,0,1-3.7299.70942,15.87351,15.87351,0,0,1-3.791-.42715,20.65139,20.65139,0,0,1-3.44777-1.19,19.95862,19.95862,0,0,1-2.952-1.60181c-.06089-.03813-.11434-.07626-.17542-.11444a1.71826,1.71826,0,0,0,.18306.061,20.70079,20.70079,0,0,0,6.59813,1.02214,13.584,13.584,0,0,0,3.20362-.48055,9.1357,9.1357,0,0,0,2.64682-1.312l.84676,1.58659A16.33161,16.33161,0,0,0,253.17374,175.86767Z" fill="#562b32"/><path d="M251.70166,169.10949a8.74,8.74,0,0,1-5.69032-.86194,10.48789,10.48789,0,0,1-2.39512-1.73913,11.60977,11.60977,0,0,1-1.7849-2.1968,11.12294,11.12294,0,0,0,2.31122,1.44165,9.45912,9.45912,0,0,0,2.46377.76277,6.3116,6.3116,0,0,0,2.37223-.07627,6.49246,6.49246,0,0,0,2.029-.86194l.66361,1.69336Z" fill="#562b32"/><path d="M253.15093,158.85777l-.6331-1.72388-.6865.45767c-.22884.11441-.4653.25171-.70176.3585a4.08089,4.08089,0,0,1-1.495.35088,3.0185,3.0185,0,0,1-1.56369-.43478,3.8778,3.8778,0,0,1-1.312-1.31961,4.38808,4.38808,0,0,0,.64836,1.96034,4.52266,4.52266,0,0,0,1.69337,1.55606,6.24868,6.24868,0,0,0,2.33409.62548c.39665.03051.78566.02288,1.18994.01526Z" fill="#562b32"/><path d="M331.9785,192.42082c.95227,1.08485,1.99932,2.36351,3.27293,3.92617,1.3205,1.62009,2.33738,2.87744,3.1168,3.98718h.00011s2.5064-1.67168,14.58-19.69948c12.0736-18.02757-7.35041-34.84131-7.35041-34.84131C366.57306,178.17585,341.0237,189.54159,331.9785,192.42082Z" fill="#562b32"/><path d="M338.37393,189.90506c.508,1.53473,1.1302,3.13212,1.77528,4.67448.65589,1.54813,1.34939,3.08765,2.12427,4.58415a33.06847,33.06847,0,0,0,5.73647,8.33705,33.94981,33.94981,0,0,1-7.28884-7.35359c-1.06334-1.37946-2.05-2.81377-3.00548-4.27312-.95291-1.47262-1.85331-2.93225-2.72-4.52144Z" fill="#562b32"/><path d="M341.82282,187.96441a40.52392,40.52392,0,0,0,4.94873,8.11577,27.92759,27.92759,0,0,0,3.31555,3.49651,17.51684,17.51684,0,0,0,4.09527,2.63183,17.98916,17.98916,0,0,1-4.62657-1.88213,29.31954,29.31954,0,0,1-4.10551-2.96884,43.237,43.237,0,0,1-6.84674-7.61963Z" fill="#562b32"/><path d="M344.95112,185.65411l.00763-.00762,1.41113-1.00687a42.49355,42.49355,0,0,0,2.43326,3.67659,39.6543,39.6543,0,0,0,2.81465,3.47063,26.41631,26.41631,0,0,0,3.257,3.074,14.41793,14.41793,0,0,0,3.92068,2.22731,14.74682,14.74682,0,0,1-4.40885-1.44928,27.60872,27.60872,0,0,1-3.98933-2.479,42.7466,42.7466,0,0,1-3.64607-2.99772c-1.15179-1.06025-2.23493-2.11289-3.33333-3.341Z" fill="#562b32"/><path d="M349.272,181.42653a34.22412,34.22412,0,0,0,6.16609,5.46718,22.78776,22.78776,0,0,0,3.65746,2.0306,14.19453,14.19453,0,0,0,4.10067,1.05608,14.66426,14.66426,0,0,1-4.36492-.176,24.15976,24.15976,0,0,1-4.25207-1.286,34.20946,34.20946,0,0,1-4.015-1.951,35.15121,35.15121,0,0,1-3.81649-2.46948Z" fill="#562b32"/><path d="M365.81312,182.7632c-.12217.02286-.24414.0534-.37376.07626-.52627.1068-1.068.22882-1.6019.32035-.66371.07631-1.33486.206-2.02129.22887a20.97522,20.97522,0,0,1-4.142-.1068,17.92474,17.92474,0,0,1-4.13419-1.0984,13.72936,13.72936,0,0,1-1.99074-.97638,10.78826,10.78826,0,0,1-.9613-.61784c-.16015-.11439-.3203-.22883-.48046-.36612-.0229-.01527-.03817-.03049-.06108-.04577.3434-.511.67134-1.03736.97638-1.58658l1.40358-1.167a1.2494,1.2494,0,0,0,.17542.25932c.07635.1068.16779.206.25941.31276.17542.21356.38139.41952.58717.62549a11.94787,11.94787,0,0,0,1.3883,1.12889,15.54178,15.54178,0,0,0,3.28762,1.74674,19.41957,19.41957,0,0,0,3.72989.97638c.64844.122,1.30451.15257,1.96039.22882.54154.0305,1.09072.03813,1.64008.0534C365.569,182.75556,365.691,182.75556,365.81312,182.7632Z" fill="#562b32"/><path d="M352.99841,173.63275v-.00763l.595-1.61708a29.29361,29.29361,0,0,0,2.78413,1.28909,24.95194,24.95194,0,0,0,2.952,1.01449,14.87028,14.87028,0,0,0,3.06636.55683,7.54022,7.54022,0,0,0,3.11976-.35088,7.90513,7.90513,0,0,1-3.05111,1.26621,16.07606,16.07606,0,0,1-3.35621.35088,29.3864,29.3864,0,0,1-3.37911-.15256,32.58,32.58,0,0,1-3.29519-.50343Z" fill="#562b32"/><path d="M353.64921,167.2206c.77954.15466,1.628.28339,2.45109.39563q1.245.16648,2.498.26128a23.32163,23.32163,0,0,0,2.5064.0621,7.36338,7.36338,0,0,0,2.47381-.41984,7.787,7.787,0,0,1-2.27194,1.31624,24.6183,24.6183,0,0,1-2.50361.86776q-1.27014.37005-2.56208.66538c-.86725.19586-1.711.37529-2.62409.52669Z" fill="#562b32"/><path d="M353.3798,164.40315v-.00763l.23646-1.80778a9.78974,9.78974,0,0,0,1.762.51869,13.28626,13.28626,0,0,0,1.91457.25935,9.89335,9.89335,0,0,0,1.95271-.09916,6.45637,6.45637,0,0,0,1.90694-.66362,6.90424,6.90424,0,0,1-1.54081,1.5103,11.95385,11.95385,0,0,1-1.97559,1.06026,16.25353,16.25353,0,0,1-2.16629.6865,14.46781,14.46781,0,0,1-1.88406.33562Z" fill="#562b32"/><path d="M358.41422,158.44587a4.18993,4.18993,0,0,1-1.18234,1.31959,6.86252,6.86252,0,0,1-1.67063.83908,10.04379,10.04379,0,0,1-1.83059.45765c-.33557.04576-.65588.09153-.99164.11444-.14489-.57972-.31267-1.15944-.49573-1.75443v-.00759l.48046-1.762a6.384,6.384,0,0,0,1.25106.66361,8.34269,8.34269,0,0,0,1.41866.46529A4.10332,4.10332,0,0,0,358.41422,158.44587Z" fill="#562b32"/><path d="M280.01063,449.89233a27.21043,27.21043,0,0,0-4.312,13.76428h38.37087l-.319-13.76428Z" fill="#6c353c"/><path d="M280.0106,449.89234a27.21084,27.21084,0,0,0-4.31185,13.76425h14.14191a27.21084,27.21084,0,0,1,4.31185-13.76425Z" fill="#562b32"/><path d="M426.54761,449.2308s-9.27369,9.57433-6.18638,14.42581h53.59019l-2.08648-14.42581Z" fill="#6c353c"/><path d="M447.23414,449.23078h-20.6866s-9.27362,9.57433-6.18639,14.42581h20.6866C437.96052,458.80511,447.23414,449.23078,447.23414,449.23078Z" fill="#562b32"/><path d="M308.67386,218.98291a1.28583,1.28583,0,0,1-.7012,1.01819,3.51028,3.51028,0,0,1-1.22818.26544,23.32566,23.32566,0,0,1-2.43247-.02716,27.21144,27.21144,0,0,1-4.48971-.72241,20.41469,20.41469,0,0,1-4.53968-1.69464,3.6235,3.6235,0,0,1-1.83215-1.78345,3.1683,3.1683,0,0,1,.30167-2.68567,6.32452,6.32452,0,0,1,4.42758-2.68964,11.716,11.716,0,0,1,2.552-.19317,7.11292,7.11292,0,0,1,2.62689.5542,8.146,8.146,0,0,1,3.84805,3.32916,11.86171,11.86171,0,0,1,1.04868,2.25293A5.99166,5.99166,0,0,1,308.67386,218.98291Zm-.22717-.02765a3.14233,3.14233,0,0,0-.74384-2.05774,7.31577,7.31577,0,0,0-1.63031-1.5307,20.48766,20.48766,0,0,0-1.80447-1.17529,9.9627,9.9627,0,0,0-1.81372-.89643,7.56719,7.56719,0,0,0-1.89109-.43969,11.73878,11.73878,0,0,0-2.08548-.04956,6.47856,6.47856,0,0,0-3.71866,1.29278,1.92018,1.92018,0,0,0-.50793.77472,1.4975,1.4975,0,0,0-.06244.923,2.19168,2.19168,0,0,0,1.41,1.35894,13.57807,13.57807,0,0,0,4.466.47254,11.29111,11.29111,0,0,1,4.59991,1.19708,12.85814,12.85814,0,0,0,2.12686.85657,1.99959,1.99959,0,0,0,1.06177.03424A.87562.87562,0,0,0,308.44669,218.95526Z" fill="#6c353c"/><path d="M174.04832,385.9052l3.27728-3.22944a3.39389,3.39389,0,1,0-4.76465-4.83447l-3.277,3.22913-2.42163-2.45752,3.36072-3.31165a3.39389,3.39389,0,1,0-4.76465-4.83447l-2.62988,2.59143V359.69578h-1.5V372.9973l-2.459-2.49536a3.39372,3.39372,0,0,0-4.834,4.76465l3.22766,3.27551-2.31915,2.28522L151.768,377.604a3.39407,3.39407,0,0,0-4.835,4.76465l3.17591,3.22314-3.27747,3.22949a3.39407,3.39407,0,0,0,4.76465,4.835l3.27716-3.22931,2.42157,2.45759-3.36084,3.31176a3.39389,3.39389,0,0,0,4.76465,4.83448l2.62988-2.5915v10.33857h1.5V398.50053l2.459,2.49555a3.39407,3.39407,0,0,0,4.835-4.76465l-3.2284-3.27643,2.31922-2.2854,3.17675,3.22394a3.39407,3.39407,0,0,0,4.835-4.76465Zm-.43463-6.99506a1.89384,1.89384,0,1,1,2.65918,2.69727l-3.27735,3.22943-2.65863-2.69794Zm-1.68653,6.97943-2.69836,2.65888-2.65857-2.69806,2.6983-2.65876Zm-3.71155-3.76642-2.69818,2.65882-2.42157-2.45758,2.69812-2.6587Zm-3.76654,3.71155L162.12992,388.12l-2.42157-2.45758,2.31915-2.28528ZM162.043,381.256l-2.65857-2.69806,2.69812-2.65857,2.65857,2.69793Zm4.46814-9.72034a1.89384,1.89384,0,1,1,2.65918,2.69726l-3.36084,3.31165-2.65857-2.69794Zm-11.40723,2.67822a1.89384,1.89384,0,0,1,2.69727-2.65918l3.22839,3.27612-2.698,2.65863Zm3.21216,5.39679,2.65857,2.69806-2.31915,2.28522-2.65857-2.69812Zm-.72913,6.03619-2.69818,2.6587-2.65869-2.69812,2.69824-2.6587Zm-9.58557-4.33093a1.894,1.894,0,0,1,2.69824-2.65869l3.17591,3.223-2.69818,2.65876Zm2.542,11.27149a1.94014,1.94014,0,0,1-2.67871-.01954,1.89707,1.89707,0,0,1,.01953-2.67822l3.27747-3.22943,2.65869,2.69818Zm5.39832-3.21332,2.69818-2.65875,2.42157,2.45758-2.69812,2.65875Zm6.17248.86712,2.65863,2.69806-2.69824,2.65876-2.65863-2.69812Zm-4.46826,9.72071a1.93822,1.93822,0,0,1-2.67871-.01953,1.89708,1.89708,0,0,1,.01953-2.67823l3.36066-3.3114,2.65863,2.69818Zm11.40821-2.67774a1.894,1.894,0,0,1-2.69825,2.65869l-3.22839-3.2763,2.69818-2.65875Zm-3.21289-5.3977-2.65864-2.69812,2.31928-2.28522,2.65857,2.69806Zm10.29492.97339a1.8956,1.8956,0,0,1-2.67774-.019l-3.17676-3.22393,2.69831-2.65894,3.17669,3.22369A1.898,1.898,0,0,1,176.13615,392.85985Z" fill="#ffcb5c"/><path d="M162.07867,408.778h0a2.03943,2.03943,0,0,1,2.03943,2.03943v3.44208a0,0,0,0,1,0,0h-4.07887a0,0,0,0,1,0,0v-3.44208A2.03943,2.03943,0,0,1,162.07867,408.778Z" fill="#f05b43"/><path d="M163.005,409.01019a2.01665,2.01665,0,0,0-.92626-.23216,2.0394,2.0394,0,0,0-2.03943,2.03943v3.44208h1.85262v-3.44208A2.03181,2.03181,0,0,1,163.005,409.01019Z" fill="#cf2633"/><path d="M162.07836,311.62417a24.82855,24.82855,0,1,0,24.8285,24.82854A24.82752,24.82752,0,0,0,162.07836,311.62417Zm6.75318,31.57529H155.325v-13.5h13.50652Z" fill="#f05b43"/><path d="M150.60808,336.45271a24.83263,24.83263,0,0,1,18.14936-23.91239,24.82878,24.82878,0,1,0,0,47.82431A24.838,24.838,0,0,1,150.60808,336.45271Z" fill="#cf2633"/><path d="M182.5441,336.45013a22.08239,22.08239,0,0,1-5.59952,14.86591,19.63226,19.63226,0,0,1-6.7039,4.83771,20.60758,20.60758,0,0,1-16.35436.07318,21.42418,21.42418,0,0,1-6.8733-4.71112,20.57268,20.57268,0,0,1-5.84726-15.06568,22.06238,22.06238,0,0,1,6.28311-14.62976,22.31336,22.31336,0,0,1,6.62341-4.69854,20.86883,20.86883,0,0,1,8.00639-1.86945,19.50191,19.50191,0,0,1,14.84436,6.35345A22.07922,22.07922,0,0,1,182.5441,336.45013Zm-.2,0a18.36284,18.36284,0,0,0-1.69281-7.693,19.82775,19.82775,0,0,0-4.61592-6.26367,21.69863,21.69863,0,0,0-13.9567-5.57642,19.52079,19.52079,0,0,0-14.17126,5.36188,18.81644,18.81644,0,0,0-4.3291,6.50818,19.2745,19.2745,0,0,0-1.31755,7.663,20.29339,20.29339,0,0,0,6.0825,13.73542,19.85982,19.85982,0,0,0,13.73541,5.56347,20.81458,20.81458,0,0,0,13.93515-5.36371,19.61676,19.61676,0,0,0,4.62227-6.24841A18.47629,18.47629,0,0,0,182.3441,336.45013Z" fill="#ffcb5c"/><path d="M171.9554,346.3269l-4.68935.34766-4.886.3092c-3.30928.19245-6.71514.29218-10.10735.339l-1.06708.01471.00042-1.08136c.00061-1.63433-.01285-3.26867.02438-4.90295l.10156-4.903c.04511-3.26861.199-6.53723.39311-9.8059l.03379-.56885.51382.02124c1.63432.06769,3.26865.18042,4.903.208,1.63431.04315,3.26863.04376,4.90295.01532,3.26864-.07355,6.53728-.36487,9.80593-.50806l.80189-.03516.03054.86756c.11859,3.36853.02816,6.7818-.11632,10.1026-.07276,1.66156-.16393,3.30487-.2758,4.90557C172.21112,343.25085,172.09268,344.82166,171.9554,346.3269Zm-.14142-.14141-.36951-5.13147c-.11187-1.668-.203-3.29328-.2758-4.90039-.14448-3.21656-.23491-6.34064-.11632-9.5094l.83225.83227c-3.26865-.14325-6.53729-.43451-9.80593-.50812-1.63432-.02838-3.26864-.02777-4.90295.01538-1.63432.02747-3.26865.1402-4.903.20789l.54741-.54742c.19411,3.26867.348,6.53729.39311,9.8059l.10156,4.903c.03724,1.63428.02379,3.26862.02439,4.90295l-1.06647-1.06646c3.14511.04681,6.27657.14654,9.50461.339Z" fill="#ffcb5c"/><path d="M337.8675,90.93112s6.51991,2.34244,4.341,5.76361-17.63817-1.30128-17.63817-1.30128,9.481-13.092,13.28259-11.6778S337.8675,90.93112,337.8675,90.93112Z" fill="#ef8378"/><path d="M306.799,101.35723s-3.787,5.80129.01461,7.21547S320.0962,96.8949,320.0962,96.8949,304.637,92.17246,302.458,95.59362,306.799,101.35723,306.799,101.35723Z" fill="#ef8378"/><path d="M334.57761,107.03291s1.20786,6.82183-2.84379,6.63145-7.63729-15.95212-7.63729-15.95212,16.07266,1.7201,16.735,5.72179S334.57761,107.03291,334.57761,107.03291Z" fill="#ef8378"/><path d="M310.0889,85.25544s-6.91622-.4028-6.2539,3.59888,16.735,5.72179,16.735,5.72179-3.58562-15.76173-7.63728-15.95212S310.0889,85.25544,310.0889,85.25544Z" fill="#ef8378"/><path d="M319.109,112.20945s-5.28069,4.48449-7.16036.89019,9.92026-14.64194,9.92026-14.64194,6.62347,14.74512,3.5025,17.33582S319.109,112.20945,319.109,112.20945Z" fill="#ef8378"/><path d="M325.55747,80.0789s-3.14144-6.17477-6.2624-3.58407,3.5025,17.33582,3.5025,17.33582S334.5975,82.783,332.71783,79.18871,325.55747,80.0789,325.55747,80.0789Z" fill="#ef8378"/><path d="M89.40585,96.9151s4.66257,1.67515,3.10435,4.12171-12.61354-.93057-12.61354-.93057,6.78011-9.36244,9.49874-8.35112S89.40585,96.9151,89.40585,96.9151Z" fill="#ef8378"/><path d="M67.18792,104.3711s-2.70818,4.14866.01045,5.16S76.69711,101.18,76.69711,101.18s-11.05531-3.37715-12.61353-.93058S67.18792,104.3711,67.18792,104.3711Z" fill="#ef8378"/><path d="M87.05316,108.42993s.86378,4.87848-2.03367,4.74233-5.46163-11.4078-5.46163-11.4078,11.494,1.2301,11.96764,4.09181S87.05316,108.42993,87.05316,108.42993Z" fill="#ef8378"/><path d="M69.54062,92.85627s-4.946-.28806-4.47234,2.57366,11.96764,4.0918,11.96764,4.0918-2.56418-11.27164-5.46163-11.40779S69.54062,92.85627,69.54062,92.85627Z" fill="#ef8378"/><path d="M75.99116,112.13182s-3.77636,3.207-5.12057.6366,7.09426-10.47086,7.09426-10.47086,4.73662,10.54464,2.50473,12.39732S75.99116,112.13182,75.99116,112.13182Z" fill="#ef8378"/><path d="M80.60261,89.15438s-2.24652-4.41575-4.47841-2.56307,2.50473,12.39732,2.50473,12.39732,8.43846-7.90047,7.09426-10.47085S80.60261,89.15438,80.60261,89.15438Z" fill="#ef8378"/><path d="M227.3242,392.63946s4.66257,1.67515,3.10435,4.12172-12.61354-.93058-12.61354-.93058,6.78011-9.36244,9.49874-8.35112S227.3242,392.63946,227.3242,392.63946Z" fill="#ef8378"/><path d="M205.10627,400.09546s-2.70819,4.14866.01045,5.16,9.49874-8.35112,9.49874-8.35112-11.05531-3.37714-12.61354-.93057S205.10627,400.09546,205.10627,400.09546Z" fill="#ef8378"/><path d="M224.97151,404.15429s.86378,4.87848-2.03367,4.74233-5.46163-11.40779-5.46163-11.40779,11.494,1.23009,11.96763,4.09181S224.97151,404.15429,224.97151,404.15429Z" fill="#ef8378"/><path d="M207.459,388.58063s-4.946-.28806-4.47233,2.57366,11.96764,4.09181,11.96764,4.09181-2.56418-11.27165-5.46163-11.4078S207.459,388.58063,207.459,388.58063Z" fill="#ef8378"/><path d="M213.90951,407.85618s-3.77637,3.207-5.12057.6366,7.09425-10.47085,7.09425-10.47085,4.73663,10.54464,2.50474,12.39732S213.90951,407.85618,213.90951,407.85618Z" fill="#ef8378"/><path d="M218.521,384.87874s-2.24653-4.41574-4.47841-2.56306,2.50473,12.39732,2.50473,12.39732,8.43846-7.90047,7.09425-10.47086S218.521,384.87874,218.521,384.87874Z" fill="#ef8378"/><path d="M102.66643,294.781s4.66257,1.67514,3.10435,4.12171-12.61354-.93057-12.61354-.93057,6.7801-9.36244,9.49874-8.35112S102.66643,294.781,102.66643,294.781Z" fill="#ef8378"/><path d="M80.4485,302.237s-2.70819,4.14866.01045,5.16,9.49874-8.35112,9.49874-8.35112-11.05531-3.37715-12.61354-.93058S80.4485,302.237,80.4485,302.237Z" fill="#ef8378"/><path d="M100.31374,306.29582s.86378,4.87848-2.03367,4.74233-5.46163-11.4078-5.46163-11.4078,11.494,1.23009,11.96763,4.09181S100.31374,306.29582,100.31374,306.29582Z" fill="#ef8378"/><path d="M82.80119,290.72215s-4.946-.288-4.47233,2.57366,11.96764,4.09181,11.96764,4.09181-2.56418-11.27164-5.46163-11.40779S82.80119,290.72215,82.80119,290.72215Z" fill="#ef8378"/><path d="M89.25174,309.99771s-3.77637,3.207-5.12057.6366,7.09425-10.47086,7.09425-10.47086,4.73663,10.54464,2.50474,12.39732S89.25174,309.99771,89.25174,309.99771Z" fill="#ef8378"/><path d="M93.86319,287.02027s-2.24653-4.41575-4.47842-2.56307,2.50474,12.39732,2.50474,12.39732,8.43846-7.90047,7.09425-10.47085S93.86319,287.02027,93.86319,287.02027Z" fill="#ef8378"/><path d="M115.5609,406.84363s7.92968,2.84894,5.2796,7.00985-21.452-1.58264-21.452-1.58264,11.531-15.9228,16.15461-14.20284S115.5609,406.84363,115.5609,406.84363Z" fill="#ef8378"/><path d="M77.77464,419.52413s-4.60585,7.05567.01777,8.77563S93.947,414.09693,93.947,414.09693s-18.80189-5.74355-21.452-1.58264S77.77464,419.52413,77.77464,419.52413Z" fill="#ef8378"/><path d="M111.55965,426.427s1.469,8.29688-3.45869,8.06533S98.81231,415.091,98.81231,415.091s19.548,2.092,20.35349,6.959S111.55965,426.427,111.55965,426.427Z" fill="#ef8378"/><path d="M81.77588,399.94073s-8.41167-.4899-7.60614,4.37705,20.35348,6.959,20.35348,6.959S90.1623,392.107,85.23457,391.87541,81.77588,399.94073,81.77588,399.94073Z" fill="#ef8378"/><path d="M92.7464,432.72287s-6.42251,5.45415-8.70861,1.08267,12.06527-17.80789,12.06527-17.80789,8.05562,17.93338,4.25983,21.08425S92.7464,432.72287,92.7464,432.72287Z" fill="#ef8378"/><path d="M100.58914,393.64489s-3.82069-7.5099-7.61649-4.359,4.25983,21.08426,4.25983,21.08426,14.35137-13.43642,12.06527-17.8079S100.58914,393.64489,100.58914,393.64489Z" fill="#ef8378"/><rect x="209.00113" y="303.20823" width="5.22157" height="25.72108" fill="#f05b43"/><rect x="205.8293" y="291.9147" width="11.56524" height="11.56524" transform="translate(272.48348 -62.4387) rotate(45)" fill="#f05b43"/><rect x="209.0012" y="303.20823" width="2.84003" height="25.72109" fill="#cf2633"/><polygon points="207.235 297.697 213.512 291.42 211.612 289.519 203.434 297.697 211.612 305.875 213.512 303.975 207.235 297.697" fill="#cf2633"/><rect x="189.25896" y="218.22916" width="44.95567" height="64.32119" rx="22.47781" fill="#f05b43"/><path d="M199.63332,270.57178V230.20772a11.97825,11.97825,0,0,1,11.30008-11.95823A22.47408,22.47408,0,0,0,189.25889,240.707v19.36555A22.47412,22.47412,0,0,0,210.9334,282.53,11.97828,11.97828,0,0,1,199.63332,270.57178Z" fill="#cf2633"/><path d="M211.73675,218.22917h.00012a22.41653,22.41653,0,0,1,7.98351,1.46446v-6.07532H203.75324v6.07532A22.416,22.416,0,0,1,211.73675,218.22917Z" fill="#f05b43"/><path d="M208.647,213.61831h-4.89372v6.07532a22.40347,22.40347,0,0,1,4.89372-1.25193Z" fill="#cf2633"/><path d="M211.73687,282.55036h-.00012a22.41626,22.41626,0,0,1-7.98351-1.46446v10.22616h15.96714V281.0859A22.41675,22.41675,0,0,1,211.73687,282.55036Z" fill="#f05b43"/><path d="M203.75324,281.0859v10.22616h5.248v-8.93323A22.40309,22.40309,0,0,1,203.75324,281.0859Z" fill="#cf2633"/><path d="M211.61192,282.62134a12.43781,12.43781,0,0,1-11.55021-7.83643,13.55806,13.55806,0,0,1-.89563-4.89862c-.198-6.49884-.26679-12.99768-.26491-19.49652-.04518-6.49884.01176-12.99768.06435-19.49652a13.547,13.547,0,0,1,.81515-5.00116,12.59256,12.59256,0,0,1,2.72108-4.28766,12.31075,12.31075,0,0,1,9.11016-3.764,12.43475,12.43475,0,0,1,8.88217,3.97931,12.78154,12.78154,0,0,1,3.34222,9.07349c.01984,6.49884.25315,12.99768.34241,19.49652.06889,6.49878.04524,12.99762-.14258,19.49646a13.49062,13.49062,0,0,1-.88694,4.89392,12.44378,12.44378,0,0,1-11.53727,7.84119Zm0-.142a11.55148,11.55148,0,0,0,10.94834-7.91406,12.63813,12.63813,0,0,0,.58459-4.67908c-.18782-6.49884-.21147-12.99768-.14258-19.49646.08925-6.49884.32257-12.99768.34241-19.49652a12.35833,12.35833,0,0,0-.6958-4.71143,11.76381,11.76381,0,0,0-2.51781-4.0191,11.45057,11.45057,0,0,0-8.51916-3.54486,11.56951,11.56951,0,0,0-8.2912,3.76019,11.40248,11.40248,0,0,0-2.36316,3.94342,12.5689,12.5689,0,0,0-.65637,4.57178c.05256,6.49884.10951,12.99768.06433,19.49652.00188,6.49884-.06694,12.99768-.26489,19.49652a12.57521,12.57521,0,0,0,.57591,4.67432,11.55588,11.55588,0,0,0,10.93539,7.91876Z" fill="#ffcb5c"/><rect x="210.90186" y="144.12988" width="1.41992" height="69.48828" fill="#ffcb5c"/><circle cx="211.73679" cy="203.94997" r="2.98264" fill="#f05b43"/><circle cx="211.73679" cy="209.04198" r="1.52254" fill="#f05b43"/><circle cx="211.73679" cy="198.62437" r="1.52254" fill="#f05b43"/><path d="M210.27675,203.95a2.981,2.981,0,0,1,2.22137-2.88084,2.98266,2.98266,0,1,0,0,5.76171A2.98107,2.98107,0,0,1,210.27675,203.95Z" fill="#cf2633"/><path d="M211.73675,209.042a1.51608,1.51608,0,0,1,.76137-1.31137,1.52259,1.52259,0,1,0,0,2.62272A1.51606,1.51606,0,0,1,211.73675,209.042Z" fill="#cf2633"/><path d="M211.73675,198.62438a1.51609,1.51609,0,0,1,.76137-1.31138,1.5226,1.5226,0,1,0,0,2.62272A1.516,1.516,0,0,1,211.73675,198.62438Z" fill="#cf2633"/><path d="M211.74605,222.86621a4.95006,4.95006,0,0,1,3.86334.61932,7.09567,7.09567,0,0,1,2.52136,2.984,12.65179,12.65179,0,0,1,1.28195,3.53559c.10991.608.1763,1.21972.2584,1.82007q.04837.91361.06408,1.81463l-.21154.02478q-.26295-.86187-.49585-1.7088c-.211-.55121-.40325-1.10278-.63167-1.6333a14.135,14.135,0,0,0-.77585-1.52832l-.42552-.72589-.4924-.66968a22.92194,22.92194,0,0,0-2.33322-2.18146,27.18916,27.18916,0,0,0-2.64156-2.13879Z" fill="#fff"/><path d="M168.84021,321.20459a5.01933,5.01933,0,0,1,3.82607.66565,7.18793,7.18793,0,0,1,2.51562,2.95953,12.693,12.693,0,0,1,1.29451,3.517c.11354.60559.18376,1.21552.26979,1.81433q.054.9116.07726,1.8114l-.19864.02326q-.25543-.86307-.48267-1.712c-.20709-.55273-.39549-1.10614-.6203-1.639a14.19448,14.19448,0,0,0-.76753-1.53656l-.423-.73065-.49065-.67535a20.81772,20.81772,0,0,0-2.339-2.20593,23.76414,23.76414,0,0,0-2.67881-2.09241Z" fill="#fff"/><path d="M219.62941,234.93018a8.97141,8.97141,0,0,1,.35478,2.64117,8.86717,8.86717,0,0,1-.35478,2.64111,8.8662,8.8662,0,0,1-.35478-2.64111A8.97041,8.97041,0,0,1,219.62941,234.93018Z" fill="#fff"/><rect x="126.50282" y="248.88982" width="7.35446" height="36.22755" fill="#f05b43"/><rect x="122.03537" y="232.96314" width="16.28937" height="16.28937" transform="translate(208.61783 -21.43235) rotate(45)" fill="#f05b43"/><rect x="126.50274" y="248.88981" width="3.6774" height="36.22756" fill="#cf2633"/><polygon points="124.187 241.108 132.943 232.352 130.18 229.59 118.662 241.108 130.18 252.626 132.943 249.864 124.187 241.108" fill="#cf2633"/><ellipse cx="130.3225" cy="171.87781" rx="65.73369" ry="45.39921" fill="#f05b43"/><path d="M83.07671,171.87779c0-22.906,24.56371-41.84638,56.48966-44.95019-3.02073-.29369-6.10588-.449-9.24387-.449-36.30378,0-65.73369,20.32594-65.73369,45.39921S94.01872,217.277,130.3225,217.277c3.138,0,6.22314-.15533,9.24387-.449C107.64042,213.72417,83.07671,194.78378,83.07671,171.87779Z" fill="#cf2633"/><path d="M130.3225,126.47858a93.44854,93.44854,0,0,1,18.4879,1.82346v-8.22261H111.5497v8.28112A93.37131,93.37131,0,0,1,130.3225,126.47858Z" fill="#f05b43"/><path d="M120.93594,120.07943H111.5497v8.28112a91.42461,91.42461,0,0,1,9.38624-1.41845Z" fill="#cf2633"/><path d="M139.70873,126.47858q-2.36093,0-4.68023.11578a92.50717,92.50717,0,0,1,13.7819,1.70768v-1.38662C145.83509,126.63,142.79784,126.47858,139.70873,126.47858Z" fill="#cf2633"/><path d="M130.3225,217.277a93.37131,93.37131,0,0,1-18.7728-1.882v15.12071h37.2607V215.45353A93.44778,93.44778,0,0,1,130.3225,217.277Z" fill="#f05b43"/><path d="M139.70873,217.277c3.08911,0,6.12636-.15145,9.10167-.43685v-1.38662a92.50585,92.50585,0,0,1-13.7819,1.70769Q137.3478,217.27438,139.70873,217.277Z" fill="#cf2633"/><path d="M111.5497,215.395v15.12071h9.38624V216.81348A91.42461,91.42461,0,0,1,111.5497,215.395Z" fill="#cf2633"/><rect x="129.18018" y="88.51855" width="2" height="31.56055" fill="#ffcb5c"/><path d="M93.947,134.05944c6.0796.00061,12.12359.12567,18.16155.26883l9.04987.19772c1.50778.01358,3.01372.07153,4.52046.10515l4.519.05484c3.0113.07628,6.02274.08553,9.03212.08975l4.51546.0149c1.50319-.03233,3.00676-.05449,4.513-.05719,6.0189-.12073,12.026-.3214,18.08631-.83681a92.274,92.274,0,0,1-17.96353,3.17462,176.80547,176.80547,0,0,1-18.22856.6126c-6.0757-.10582-12.14082-.43683-18.18216-1.02759A168.60618,168.60618,0,0,1,93.947,134.05944Z" fill="#ffcb5c"/><path d="M78.29689,144.13q13.03617,1.28577,26.0341,2.064l6.5062.33934c2.16765.11594,4.33845.16841,6.50651.25581,2.16779.0997,4.33693.13736,6.50556.1924,2.16856.06107,4.337.11052,6.50572.087,8.67549.15433,17.34482-.13878,26.00981-.56737l6.49878-.40267c2.16536-.15259,4.32234-.39251,6.48852-.57786l3.253-.2697,3.23806-.39239q3.24012-.39617,6.505-.72856-3.171.80247-6.367,1.54868c-1.06451.25134-2.13038.50305-3.20172.72167l-3.22755.57972c-2.15651.35971-4.31226.75477-6.47777,1.0734l-6.51941.781c-2.17265.29532-4.35687.43068-6.54063.58584-2.18425.13425-4.36682.36355-6.55489.41733l-6.56447.20253c-2.18849.04368-4.37712.01836-6.566.02644-2.18924,0-4.37629-.07314-6.56282-.15805-2.18609-.09036-4.3751-.11486-6.55668-.29014-4.36651-.27939-8.72783-.61684-13.07441-1.10066A202.32673,202.32673,0,0,1,78.29689,144.13Z" fill="#ffcb5c"/><path d="M70.40529,153.17948a202.41659,202.41659,0,0,0,29.75988,5.17995l3.75.38476,3.75879.28594c2.50642.178,5.00761.41,7.52157.45272,2.51139.064,5.01717.25647,7.5288.27206l7.5343.01611c2.51117.02111,5.02061-.13349,7.53158-.19124l3.76636-.12064c1.25458-.05835,2.50469-.19229,3.75888-.26428l7.52362-.514,7.49932-.82177,3.75474-.40132c1.25444-.11837,2.488-.37408,3.73682-.53643l7.48018-1.10349,1.87558-.26057,1.85785-.35229,3.72009-.70151q3.72441-.69321,7.4761-1.324-3.63129,1.09476-7.28962,2.13448l-3.66277,1.02772-1.83487.50611-1.8551.4148c-4.96265,1.02472-9.902,2.27351-14.94321,2.91615-2.51024.38638-5.02144.78562-7.54112,1.11629l-7.59038.73289c-1.26576.11954-2.53151.24617-3.80029.32266l-3.81119.15809c-2.54143.08089-5.08137.26495-7.62507.26043a197.10838,197.10838,0,0,1-30.4166-2.09642A133.51067,133.51067,0,0,1,70.40529,153.17948Z" fill="#ffcb5c"/><path d="M65.13075,166.02561a319.65618,319.65618,0,0,0,32.46738,5.07148c5.44122.54326,10.88539,1.02382,16.34123,1.28844,5.45262.289,10.91107.49344,16.36853.43506,5.45567-.00814,10.91476-.12954,16.35707-.51322q8.16877-.489,16.293-1.56057a226.27923,226.27923,0,0,0,32.14354-6.60534,151.34409,151.34409,0,0,1-31.79309,8.92,196.345,196.345,0,0,1-32.99667,2.75734A229.68957,229.68957,0,0,1,97.30731,173.411c-5.45925-.78543-10.88217-1.80069-16.26051-2.99432A153.99376,153.99376,0,0,1,65.13075,166.02561Z" fill="#ffcb5c"/><path d="M65.13075,177.72823a249.447,249.447,0,0,0,32.55608,5.36155q8.19382.84794,16.41867,1.245l8.22378.33039,8.22974.02041c2.74371.07916,5.48433-.08459,8.22668-.15091,2.741-.10449,5.48783-.11259,8.22168-.35621l8.21569-.55033c1.373-.06144,2.7319-.2606,4.09715-.4023l4.09647-.43339c5.47918-.4776,10.89669-1.401,16.349-2.17815,2.74216-.3119,5.42223-.9409,8.137-1.42056q4.06283-.76394,8.15352-1.46548-3.97092,1.16571-7.96953,2.27651c-2.66867.72332-5.32463,1.52869-8.0405,2.05562L171.915,183.758c-2.70351.62924-5.46158.91464-8.19754,1.35609a225.78923,225.78923,0,0,1-33.146,2.56966,222.18405,222.18405,0,0,1-33.17153-2.27957A162.36,162.36,0,0,1,65.13075,177.72823Z" fill="#ffcb5c"/><path d="M72.69969,193.73666c9.62141,1.23993,19.24043,2.17041,28.873,2.84693,2.41084.134,4.81981.27255,7.22577.44166l7.22876.31682c2.40825.12059,4.81975.14169,7.22906.21759l3.61454.08771,3.61508-.00974c9.64064.1247,19.27664-.26751,28.89485-.93476l7.21562-.55982,7.19513-.80559,3.60819-.3751,3.58467-.53695q3.58893-.52871,7.20431-.99427-3.5118.9336-7.05024,1.81154l-3.54268.86558-3.57811.68477-7.1791,1.30131-7.23493.93894c-1.20752.146-2.41277.32822-3.62334.44449l-3.63695.29129c-2.42592.175-4.85.42291-7.28.53781l-7.29454.26082c-2.43183.10647-4.86484.04284-7.2976.06811a268.43025,268.43025,0,0,1-29.11254-1.73A207.3939,207.3939,0,0,1,72.69969,193.73666Z" fill="#ffcb5c"/><path d="M92.25194,208.892l19.095.66771c3.17537.08853,6.34476.24468,9.51667.29732q4.755.1602,9.50718.21594c3.16652.03754,6.33609.10974,9.50054.057,1.58229-.01059,3.16922.03755,4.74961-.02109,1.58124-.04934,3.16434-.07252,4.74958-.085,6.33154-.2032,12.64753-.55176,19.0226-1.13179a103.72063,103.72063,0,0,1-18.87937,3.46845,184.39107,184.39107,0,0,1-19.19052.71035c-6.3974-.13743-12.785-.50346-19.14043-1.18479A163.53109,163.53109,0,0,1,92.25194,208.892Z" fill="#ffcb5c"/><path d="M93.9561,134.06114c4.679.9704,9.40033,1.65173,14.137,2.185q1.84461-1.00662,3.79309-1.92249c-5.9599-.14074-11.92572-.26336-17.92651-.2641Z" fill="#f29720"/><path d="M78.29689,144.13q13.03617,1.28577,26.0341,2.064l6.5062.33934c2.16765.11594,4.33845.16841,6.50651.25581,2.16779.0997,4.33693.13736,6.50556.1924,2.16856.06107,4.337.11052,6.50572.087,8.67549.15433,17.34482-.13878,26.00981-.56737l6.49878-.40267c2.16536-.15259,4.32234-.39251,6.48852-.57786l3.253-.2697,3.23806-.39239q3.24012-.39617,6.505-.72856-3.171.80247-6.367,1.54868c-1.06451.25134-2.13038.50305-3.20172.72167l-3.22755.57972c-2.15651.35971-4.31226.75477-6.47777,1.0734l-6.51941.781c-2.17265.29532-4.35687.43068-6.54063.58584-2.18425.13425-4.36682.36355-6.55489.41733l-6.56447.20253c-2.18849.04368-4.37712.01836-6.566.02644-2.18924,0-4.37629-.07314-6.56282-.15805-2.18609-.09036-4.3751-.11486-6.55668-.29014-4.36651-.27939-8.72783-.61684-13.07441-1.10066A202.32673,202.32673,0,0,1,78.29689,144.13Z" fill="#ffcb5c"/><path d="M78.30968,144.133c5.07727,1.245,10.216,2.21973,15.3847,3.01221q.74991-.79533,1.54687-1.56653-8.45864-.621-16.92974-1.44733Z" fill="#f29720"/><path d="M70.40529,153.17948a202.41659,202.41659,0,0,0,29.75988,5.17995l3.75.38476,3.75879.28594c2.50642.178,5.00761.41,7.52157.45272,2.51139.064,5.01717.25647,7.5288.27206l7.5343.01611c2.51117.02111,5.02061-.13349,7.53158-.19124l3.76636-.12064c1.25458-.05835,2.50469-.19229,3.75888-.26428l7.52362-.514,7.49932-.82177,3.75474-.40132c1.25444-.11837,2.488-.37408,3.73682-.53643l7.48018-1.10349,1.87558-.26057,1.85785-.35229,3.72009-.70151q3.72441-.69321,7.4761-1.324-3.63129,1.09476-7.28962,2.13448l-3.66277,1.02772-1.83487.50611-1.8551.4148c-4.96265,1.02472-9.902,2.27351-14.94321,2.91615-2.51024.38638-5.02144.78562-7.54112,1.11629l-7.59038.73289c-1.26576.11954-2.53151.24617-3.80029.32266l-3.81119.15809c-2.54143.08089-5.08137.26495-7.62507.26043a197.10838,197.10838,0,0,1-30.4166-2.09642A133.51067,133.51067,0,0,1,70.40529,153.17948Z" fill="#ffcb5c"/><path d="M70.42241,153.1859a111.76951,111.76951,0,0,0,15.76837,4.87445c.22687-.49072.46844-.97656.71863-1.4599-5.53266-.88739-11.03785-1.98737-16.48578-3.41638Z" fill="#f29720"/><path d="M65.13075,166.02561a319.65618,319.65618,0,0,0,32.46738,5.07148c5.44122.54326,10.88539,1.02382,16.34123,1.28844,5.45262.289,10.91107.49344,16.36853.43506,5.45567-.00814,10.91476-.12954,16.35707-.51322q8.16877-.489,16.293-1.56057a226.27923,226.27923,0,0,0,32.14354-6.60534,151.34409,151.34409,0,0,1-31.79309,8.92,196.345,196.345,0,0,1-32.99667,2.75734A229.68957,229.68957,0,0,1,97.30731,173.411c-5.45925-.78543-10.88217-1.80069-16.26051-2.99432A153.99376,153.99376,0,0,1,65.13075,166.02561Z" fill="#ffcb5c"/><path d="M65.1497,166.03172a154.08276,154.08276,0,0,0,15.8971,4.385c.68664.15241,1.376.29315,2.06408.43964.01715-.53455.04218-1.06751.08582-1.59729-6.03687-.89374-12.05658-1.9505-18.04657-3.22943Z" fill="#f29720"/><path d="M65.13075,177.72823a249.447,249.447,0,0,0,32.55608,5.36155q8.19382.84794,16.41867,1.245l8.22378.33039,8.22974.02041c2.74371.07916,5.48433-.08459,8.22668-.15091,2.741-.10449,5.48783-.11259,8.22168-.35621l8.21569-.55033c1.373-.06144,2.7319-.2606,4.09715-.4023l4.09647-.43339c5.47918-.4776,10.89669-1.401,16.349-2.17815,2.74216-.3119,5.42223-.9409,8.137-1.42056q4.06283-.76394,8.15352-1.46548-3.97092,1.16571-7.96953,2.27651c-2.66867.72332-5.32463,1.52869-8.0405,2.05562L171.915,183.758c-2.70351.62924-5.46158.91464-8.19754,1.35609a225.78923,225.78923,0,0,1-33.146,2.56966,222.18405,222.18405,0,0,1-33.17153-2.27957A162.36,162.36,0,0,1,65.13075,177.72823Z" fill="#ffcb5c"/><path d="M65.15184,177.73546A141.85072,141.85072,0,0,0,85.188,183.28831q-.34359-.91616-.633-1.84661c-6.50525-.9621-12.98255-2.16047-19.40357-3.70874Z" fill="#f29720"/><path d="M72.7061,193.73827A194.18772,194.18772,0,0,0,95.1776,198.114q-1.10936-1.0796-2.12842-2.20459-10.17564-.87864-20.34381-2.17206Z" fill="#f29720"/><path d="M92.25194,208.892l19.095.66771c3.17537.08853,6.34476.24468,9.51667.29732q4.755.1602,9.50718.21594c3.16652.03754,6.33609.10974,9.50054.057,1.58229-.01059,3.16922.03755,4.74961-.02109,1.58124-.04934,3.16434-.07252,4.74958-.085,6.33154-.2032,12.64753-.55176,19.0226-1.13179a103.72063,103.72063,0,0,1-18.87937,3.46845,184.39107,184.39107,0,0,1-19.19052.71035c-6.3974-.13743-12.785-.50346-19.14043-1.18479A163.53109,163.53109,0,0,1,92.25194,208.892Z" fill="#ffcb5c"/><path d="M92.25194,208.892l19.095.66771c3.17537.08853,6.34476.24468,9.51667.29732q4.755.1602,9.50718.21594c3.16652.03754,6.33609.10974,9.50054.057,1.58229-.01059,3.16922.03755,4.74961-.02109,1.58124-.04934,3.16434-.07252,4.74958-.085,6.33154-.2032,12.64753-.55176,19.0226-1.13179a103.72063,103.72063,0,0,1-18.87937,3.46845,184.39107,184.39107,0,0,1-19.19052.71035c-6.3974-.13743-12.785-.50346-19.14043-1.18479A163.53109,163.53109,0,0,1,92.25194,208.892Z" fill="#ffcb5c"/><path d="M112.21086,209.5891c-.28809-.009-.57575-.02137-.86389-.02942l-19.06024-.66651.021.01032a163.71661,163.71661,0,0,0,18.87512,2.98248c2.85669.30627,5.72065.54028,8.58832.727A76.92932,76.92932,0,0,1,112.21086,209.5891Z" fill="#f29720"/><circle cx="130.18006" cy="106.81174" r="5.97091" fill="#f05b43"/><path d="M129.05756,106.81174a5.96849,5.96849,0,0,1,3.54676-5.45346,5.9709,5.9709,0,1,0,0,10.90692A5.96853,5.96853,0,0,1,129.05756,106.81174Z" fill="#cf2633"/><path d="M145.8109,142.44434a10.816,10.816,0,0,1,11.41411,2.461c.23892.24335.483.47931.71228.72712l.63639.78674c.4099.5321.87543,1.00983,1.2269,1.571a25.96982,25.96982,0,0,1,3.59374,6.83228c.3932,1.20581.699,2.43127,1.03344,3.62921q.35339,1.84443.63675,3.67236l-.42329.10944q-.77523-1.67936-1.48524-3.33661c-.583-1.06213-1.12786-2.13019-1.74042-3.1452l-.97-1.48126-.48239-.73249-.55188-.67779-1.06793-1.35736-1.18827-1.22455a9.04559,9.04559,0,0,0-1.28524-1.08667l-.66384-.50214-.71019-.42456c-.4651-.28656-.89489-.6131-1.36424-.871-.45491-.28-.87074-.62628-1.33018-.90076a58.105,58.105,0,0,0-5.96878-3.61218Z" fill="#fff"/><path d="M200.86,387.875a6.25754,6.25754,0,0,1,4.45718.98181,8.90531,8.90531,0,0,1,2.959,3.498,16.59146,16.59146,0,0,1,1.5461,4.16876c.13969.71924.22816,1.44458.33595,2.158q.07074,1.08591.11089,2.15961l-.19887.0213q-.27266-1.03931-.51728-2.06427c-.22929-.66852-.43649-1.33857-.68817-1.98609a15.2852,15.2852,0,0,0-1.9385-3.59832,20.44569,20.44569,0,0,0-2.78989-2.74268,21.32082,21.32082,0,0,0-3.29576-2.397Z" fill="#fff"/><path d="M209.60692,119.3786s3.89656-4.93158,6.21014-2.07005-6.21014,14.79474-6.21014,14.79474-8.52371-11.9332-6.21013-14.79474S209.60692,119.3786,209.60692,119.3786Z" fill="#ef8378"/><path d="M209.60692,149.10945s3.89656,4.93158,6.21014,2.07-6.21014-14.79473-6.21014-14.79473-8.52371,11.9332-6.21013,14.79473S209.60692,149.10945,209.60692,149.10945Z" fill="#ef8378"/><path d="M222.50626,126.85567s6.216.93013,4.88281,4.35995S211.46453,133.18,211.46453,133.18s6.11851-13.32737,9.75146-12.742S222.50626,126.85567,222.50626,126.85567Z" fill="#ef8378"/><path d="M196.70758,141.63238s-2.34269,5.83227,1.29027,6.41763,9.75147-12.742,9.75147-12.742-14.59136-1.46539-15.92454,1.96443S196.70758,141.63238,196.70758,141.63238Z" fill="#ef8378"/><path d="M222.49382,141.65407s2.33286,5.83621-1.30107,6.41545-9.73-12.75839-9.73-12.75839,14.5938-1.44084,15.92121,1.99121S222.49382,141.65407,222.49382,141.65407Z" fill="#ef8378"/><path d="M196.72,126.834s-6.21754.91967-4.89013,4.35172,15.92121,1.99122,15.92121,1.99122-6.09608-13.33765-9.73-12.7584S196.72,126.834,196.72,126.834Z" fill="#ef8378"/><rect x="585.56897" y="219.19874" width="5.22157" height="25.72108" fill="#f05b43"/><rect x="582.39714" y="207.90521" width="11.56524" height="11.56524" transform="translate(323.37398 -353.31818) rotate(45)" fill="#f05b43"/><rect x="585.56904" y="219.19875" width="2.84003" height="25.72109" fill="#cf2633"/><polygon points="583.803 213.688 590.08 207.41 588.18 205.51 580.002 213.688 588.18 221.866 590.08 219.965 583.803 213.688" fill="#cf2633"/><rect x="565.8268" y="134.21967" width="44.95567" height="64.32119" rx="22.47781" fill="#f05b43"/><path d="M576.20117,186.5623V146.19823A11.97825,11.97825,0,0,1,587.50125,134.24a22.47409,22.47409,0,0,0-21.67451,22.45749V176.063a22.47412,22.47412,0,0,0,21.67451,22.45752A11.97829,11.97829,0,0,1,576.20117,186.5623Z" fill="#cf2633"/><path d="M588.3046,134.21969h.00011a22.4167,22.4167,0,0,1,7.98351,1.46445v-6.07531H580.32109v6.07531A22.41621,22.41621,0,0,1,588.3046,134.21969Z" fill="#f05b43"/><path d="M593.19843,134.21969h-.00012a22.53841,22.53841,0,0,0-2.44686.13807,22.40237,22.40237,0,0,1,5.53677,1.32638v-1.25189A22.53122,22.53122,0,0,0,593.19843,134.21969Z" fill="#cf2633"/><path d="M585.2148,129.60883h-4.89371v6.07531a22.40408,22.40408,0,0,1,4.89371-1.25192Z" fill="#cf2633"/><path d="M588.30471,198.54087h-.00011a22.416,22.416,0,0,1-7.98351-1.46446v10.22616h15.96713V197.07641A22.41649,22.41649,0,0,1,588.30471,198.54087Z" fill="#f05b43"/><path d="M593.55255,198.54087h0a22.524,22.524,0,0,0,2.73567-.17152v-1.29294a22.40383,22.40383,0,0,1-5.3597,1.3059A22.52852,22.52852,0,0,0,593.55255,198.54087Z" fill="#cf2633"/><path d="M580.32109,197.07641v10.22616H585.569v-8.93322A22.40364,22.40364,0,0,1,580.32109,197.07641Z" fill="#cf2633"/><path d="M588.17975,198.61188a12.43761,12.43761,0,0,1-11.55017-7.83643,13.558,13.558,0,0,1-.89569-4.89868c-.19794-6.49884-.26673-12.99768-.2649-19.49646-.04516-6.49884.01178-12.99768.0644-19.49652a13.54619,13.54619,0,0,1,.81512-5.00116,12.59284,12.59284,0,0,1,2.72107-4.28766,12.31114,12.31114,0,0,1,9.11017-3.764,12.4352,12.4352,0,0,1,8.8822,3.97937,12.78175,12.78175,0,0,1,3.34222,9.07343c.01984,6.49884.25312,12.99768.34235,19.49652.06891,6.49884.04529,12.99768-.14258,19.49652a13.48973,13.48973,0,0,1-.8869,4.89392,12.44408,12.44408,0,0,1-11.53729,7.84119Zm0-.142a11.55159,11.55159,0,0,0,10.94836-7.914,12.63873,12.63873,0,0,0,.5846-4.67908c-.18781-6.49884-.21149-12.99768-.14258-19.49652.08923-6.49884.32257-12.99768.34241-19.49652a12.359,12.359,0,0,0-.6958-4.71137,11.76442,11.76442,0,0,0-2.51783-4.01916,11.45071,11.45071,0,0,0-8.51916-3.5448,11.56947,11.56947,0,0,0-8.2912,3.76019,11.402,11.402,0,0,0-2.36316,3.94336,12.57027,12.57027,0,0,0-.65637,4.57184c.05255,6.49884.1095,12.99768.06433,19.49652.00189,6.49878-.067,12.99762-.26489,19.49646a12.57473,12.57473,0,0,0,.57592,4.67438,11.556,11.556,0,0,0,10.93537,7.9187Z" fill="#ffcb5c"/><rect x="587.46973" y="60.12012" width="1.41992" height="69.48828" fill="#ffcb5c"/><circle cx="588.30464" cy="119.94048" r="2.98264" fill="#f05b43"/><circle cx="588.30464" cy="125.0325" r="1.52254" fill="#f05b43"/><circle cx="588.30464" cy="114.61489" r="1.52254" fill="#f05b43"/><path d="M586.8446,119.94048a2.981,2.981,0,0,1,2.22136-2.88084,2.98265,2.98265,0,1,0,0,5.7617A2.98105,2.98105,0,0,1,586.8446,119.94048Z" fill="#cf2633"/><path d="M588.3046,125.03251a1.51609,1.51609,0,0,1,.76136-1.31138,1.5226,1.5226,0,1,0,0,2.62272A1.516,1.516,0,0,1,588.3046,125.03251Z" fill="#cf2633"/><path d="M588.3046,114.61489a1.51608,1.51608,0,0,1,.76136-1.31137,1.52259,1.52259,0,1,0,0,2.62272A1.516,1.516,0,0,1,588.3046,114.61489Z" fill="#cf2633"/><path d="M588.3139,138.85669a4.95037,4.95037,0,0,1,3.86335.61938,7.09588,7.09588,0,0,1,2.52136,2.984,12.65108,12.65108,0,0,1,1.28192,3.53559c.10992.608.17633,1.21972.25842,1.82006q.04834.9136.06409,1.81464l-.21155.02472q-.26293-.86187-.49585-1.70874c-.211-.55127-.40326-1.10278-.63165-1.6333a14.12961,14.12961,0,0,0-.77588-1.52832l-.42554-.72589-.49237-.66968a22.924,22.924,0,0,0-2.33325-2.18152,27.18994,27.18994,0,0,0-2.64154-2.13873Z" fill="#fff"/><path d="M596.19727,150.92072a8.97069,8.97069,0,0,1,.35479,2.64111,8.86893,8.86893,0,0,1-.35479,2.64117,8.86668,8.86668,0,0,1-.3548-2.64117A8.97038,8.97038,0,0,1,596.19727,150.92072Z" fill="#fff"/><path d="M589.43707,392.03146l3.27729-3.22943a3.39389,3.39389,0,0,0-4.76465-4.83447l-3.277,3.22913-2.42163-2.45752,3.36072-3.31165a3.39389,3.39389,0,1,0-4.76465-4.83447l-2.62988,2.59143V365.82205h-1.5v13.30152l-2.459-2.49537a3.39372,3.39372,0,0,0-4.834,4.76465l3.22766,3.27552-2.31915,2.28521-3.17609-3.22333a3.39407,3.39407,0,0,0-4.835,4.76465l3.1759,3.22315-3.27746,3.22949a3.39406,3.39406,0,0,0,4.76464,4.835l3.27717-3.22931,2.42156,2.45758-3.36084,3.31177a3.39389,3.39389,0,0,0,4.76465,4.83447l2.62989-2.59149v10.33856h1.5V404.6268l2.459,2.49554a3.39406,3.39406,0,0,0,4.835-4.76464l-3.22839-3.27643,2.31921-2.2854,3.17676,3.22394a3.39407,3.39407,0,0,0,4.835-4.76465Zm-.43463-6.995a1.89384,1.89384,0,1,1,2.65918,2.69726l-3.27734,3.22943-2.65863-2.69793Zm-1.68652,6.97943-2.69837,2.65887-2.65856-2.69806,2.6983-2.65875Zm-3.71155-3.76642-2.69818,2.65881-2.42157-2.45758,2.69812-2.65869Zm-3.76654,3.71155-2.31915,2.28534-2.42157-2.45758,2.31915-2.28528Zm-2.40607-4.57874-2.65857-2.69806,2.69812-2.65857,2.65857,2.69794Zm4.46814-9.72033a1.89384,1.89384,0,1,1,2.65918,2.69726l-3.36084,3.31165-2.65857-2.69794Zm-11.40722,2.67822a1.89384,1.89384,0,0,1,2.69726-2.65918l3.2284,3.27612-2.698,2.65863Zm3.21216,5.39679,2.65856,2.69806-2.31915,2.28521-2.65857-2.69812Zm-.72913,6.03619-2.69818,2.65869-2.65869-2.69812,2.69824-2.65869Zm-9.58557-4.33093a1.894,1.894,0,0,1,2.69824-2.65869l3.1759,3.223-2.69818,2.65875Zm2.542,11.27148a1.94013,1.94013,0,0,1-2.67871-.01953,1.89707,1.89707,0,0,1,.01953-2.67822l3.27747-3.22943,2.65869,2.69818Zm5.39832-3.21331,2.69818-2.65876,2.42157,2.45758-2.69812,2.65876Zm6.17248.86712,2.65863,2.69806-2.69824,2.65875-2.65863-2.69812Zm-4.46826,9.72071a1.93821,1.93821,0,0,1-2.67871-.01954,1.89707,1.89707,0,0,1,.01953-2.67822l3.36066-3.3114,2.65863,2.69818Zm11.4082-2.67774a1.894,1.894,0,0,1-2.69824,2.65869l-3.22839-3.2763,2.69818-2.65876Zm-3.21289-5.3977-2.65863-2.69812,2.31928-2.28522,2.65857,2.69806Zm10.29492.97338a1.8956,1.8956,0,0,1-2.67773-.019l-3.17676-3.22394,2.6983-2.65893,3.1767,3.22369A1.898,1.898,0,0,1,591.5249,398.98611Z" fill="#ffcb5c"/><path d="M577.46743,414.90429h0a2.03943,2.03943,0,0,1,2.03943,2.03943v3.44208a0,0,0,0,1,0,0H575.428a0,0,0,0,1,0,0v-3.44208A2.03943,2.03943,0,0,1,577.46743,414.90429Z" fill="#f05b43"/><path d="M578.39371,415.13646a2.01647,2.01647,0,0,0-.92625-.23217,2.0394,2.0394,0,0,0-2.03943,2.03944v3.44207h1.85262v-3.44207A2.03181,2.03181,0,0,1,578.39371,415.13646Z" fill="#cf2633"/><path d="M577.46711,317.75043A24.82855,24.82855,0,1,0,602.29562,342.579,24.82752,24.82752,0,0,0,577.46711,317.75043Zm6.75319,31.5753H570.71378v-13.5H584.2203Z" fill="#f05b43"/><path d="M565.99684,342.579a24.83263,24.83263,0,0,1,18.14936-23.91239,24.82878,24.82878,0,1,0,0,47.82431A24.838,24.838,0,0,1,565.99684,342.579Z" fill="#cf2633"/><path d="M597.93286,342.57642a22.08252,22.08252,0,0,1-5.59955,14.8659,19.63213,19.63213,0,0,1-6.70385,4.83771,20.60727,20.60727,0,0,1-16.35437.07312,21.4238,21.4238,0,0,1-6.8733-4.71106,20.57277,20.57277,0,0,1-5.84729-15.06567,22.06228,22.06228,0,0,1,6.28315-14.62976,22.311,22.311,0,0,1,6.62341-4.69855,20.86868,20.86868,0,0,1,8.00635-1.86945,19.50176,19.50176,0,0,1,14.84436,6.3534A22.07952,22.07952,0,0,1,597.93286,342.57642Zm-.2,0a18.363,18.363,0,0,0-1.69281-7.693,19.82644,19.82644,0,0,0-4.61591-6.26367,21.6984,21.6984,0,0,0-13.95672-5.57642,19.52058,19.52058,0,0,0-14.17121,5.36182,18.81669,18.81669,0,0,0-4.32916,6.50824,19.27447,19.27447,0,0,0-1.3175,7.663,20.29329,20.29329,0,0,0,6.08245,13.73541,19.86024,19.86024,0,0,0,13.73542,5.56348,20.81515,20.81515,0,0,0,13.93518-5.36371,19.61835,19.61835,0,0,0,4.62225-6.24848A18.476,18.476,0,0,0,597.73285,342.57642Z" fill="#ffcb5c"/><path d="M587.34418,352.45319l-4.68939.34765-4.88593.30915c-3.30927.1925-6.71515.29223-10.10736.33905l-1.06708.01471.00043-1.08143c.00061-1.63427-.01288-3.26861.02435-4.90295l.10156-4.903c.04511-3.26862.199-6.5373.39313-9.80591l.03382-.56885.51379.02124c1.63434.06769,3.26868.18042,4.90295.208,1.63434.04309,3.26868.04376,4.903.01532,3.26867-.07361,6.53729-.36487,9.806-.50812l.80188-.0351.03051.86756c.1186,3.36853.0282,6.7818-.11633,10.10254-.07275,1.66156-.16388,3.30487-.27576,4.90558C587.59985,349.37714,587.48145,350.94794,587.34418,352.45319Zm-.14142-.14142-.36951-5.13147c-.11188-1.668-.20306-3.29334-.27582-4.90039-.14447-3.21656-.23492-6.34064-.11633-9.5094l.83228.83221c-3.26868-.14319-6.5373-.43451-9.806-.508-1.63428-.02845-3.26862-.02784-4.903.01532-1.63427.02752-3.26861.14025-4.90295.20794l.54742-.54742c.1941,3.26861.348,6.53729.39313,9.80591l.10156,4.903c.03723,1.63434.02375,3.26868.02436,4.90295l-1.06647-1.06646c3.14514.04681,6.27655.1466,9.50464.339Z" fill="#ffcb5c"/><path d="M448.429,139.576l3.27729-3.22943a3.39389,3.39389,0,0,0-4.76465-4.83447l-3.277,3.22913-2.42163-2.45752,3.36072-3.31165a3.39389,3.39389,0,1,0-4.76465-4.83447l-2.62989,2.59143V113.36658h-1.5v13.30151l-2.459-2.49536a3.39372,3.39372,0,0,0-4.834,4.76465l3.22766,3.27551-2.31916,2.28522-3.17608-3.22333a3.39407,3.39407,0,0,0-4.835,4.76465l3.1759,3.22315-3.27747,3.22949a3.39407,3.39407,0,0,0,4.76465,4.835l3.27716-3.22931,2.42157,2.45758-3.36084,3.31177a3.39389,3.39389,0,0,0,4.76465,4.83447l2.62988-2.59149v10.33856h1.5V152.17133l2.459,2.49554a3.39406,3.39406,0,0,0,4.835-4.76464l-3.22839-3.27643,2.31921-2.2854,3.17676,3.22394a3.39407,3.39407,0,0,0,4.835-4.76465Zm-.43463-6.995a1.89384,1.89384,0,1,1,2.65918,2.69726l-3.27734,3.22943-2.65863-2.69793Zm-1.68652,6.97943-2.69837,2.65887-2.65857-2.69806,2.69831-2.65875Zm-3.71155-3.76642-2.69818,2.65881-2.42157-2.45758,2.69812-2.65869Zm-3.76654,3.71155-2.31915,2.28534-2.42157-2.45758,2.31915-2.28528Zm-2.40607-4.57874-2.65857-2.69806,2.69812-2.65857,2.65857,2.69794Zm4.46814-9.72033a1.89384,1.89384,0,1,1,2.65918,2.69726l-3.36084,3.31165-2.65857-2.69794Zm-11.40722,2.67822a1.89384,1.89384,0,0,1,2.69726-2.65918l3.22839,3.27612-2.698,2.65863Zm3.21215,5.39679,2.65857,2.69806-2.31915,2.28521-2.65857-2.69812Zm-.72912,6.03619-2.69818,2.65869-2.65869-2.69812,2.69824-2.65869Zm-9.58557-4.33093a1.894,1.894,0,0,1,2.69824-2.65869l3.1759,3.223-2.69818,2.65875Zm2.542,11.27148a1.94013,1.94013,0,0,1-2.67871-.01953,1.89706,1.89706,0,0,1,.01953-2.67822l3.27746-3.22943,2.6587,2.69818Zm5.39831-3.21331,2.69819-2.65876,2.42156,2.45758-2.69812,2.65876Zm6.17249.86712,2.65863,2.69806-2.69824,2.65875-2.65863-2.69812Zm-4.46826,9.7207a1.9382,1.9382,0,0,1-2.67871-.01953,1.89705,1.89705,0,0,1,.01953-2.67822l3.36065-3.3114,2.65864,2.69818Zm11.4082-2.67773a1.894,1.894,0,0,1-2.69824,2.65869l-3.22839-3.2763,2.69818-2.65876Zm-3.21289-5.3977-2.65863-2.69812,2.31927-2.28522,2.65857,2.69806Zm10.29492.97338a1.8956,1.8956,0,0,1-2.67773-.019l-3.17676-3.22394,2.6983-2.65893,3.1767,3.22369A1.898,1.898,0,0,1,450.51685,146.53064Z" fill="#ffcb5c"/><path d="M436.45937,162.44881h0a2.03943,2.03943,0,0,1,2.03943,2.03943v3.44208a0,0,0,0,1,0,0h-4.07887a0,0,0,0,1,0,0v-3.44208A2.03943,2.03943,0,0,1,436.45937,162.44881Z" fill="#f05b43"/><path d="M437.38566,162.681a2.01647,2.01647,0,0,0-.92625-.23217,2.0394,2.0394,0,0,0-2.03943,2.03944v3.44207h1.85262v-3.44207A2.03181,2.03181,0,0,1,437.38566,162.681Z" fill="#cf2633"/><path d="M436.45906,65.295a24.82855,24.82855,0,1,0,24.82851,24.82855A24.82752,24.82752,0,0,0,436.45906,65.295Zm6.75318,31.5753H429.70572v-13.5h13.50652Z" fill="#f05b43"/><path d="M424.98879,90.12351a24.83262,24.83262,0,0,1,18.14936-23.91239,24.82878,24.82878,0,1,0,0,47.82431A24.838,24.838,0,0,1,424.98879,90.12351Z" fill="#cf2633"/><path d="M456.9248,90.121a22.08263,22.08263,0,0,1-5.59951,14.86591,19.631,19.631,0,0,1-6.70392,4.83764,20.60681,20.60681,0,0,1-16.35434.07319,21.42379,21.42379,0,0,1-6.87329-4.71113A20.57275,20.57275,0,0,1,415.54645,90.121a22.06243,22.06243,0,0,1,6.28314-14.62982,22.31212,22.31212,0,0,1,6.62338-4.69849,20.86818,20.86818,0,0,1,8.00641-1.86944,19.5019,19.5019,0,0,1,14.84436,6.35339A22.07922,22.07922,0,0,1,456.9248,90.121Zm-.2,0a18.3628,18.3628,0,0,0-1.69281-7.693,19.82837,19.82837,0,0,0-4.6159-6.26367,21.69818,21.69818,0,0,0-13.9567-5.57636,19.52035,19.52035,0,0,0-14.17126,5.36182,18.81674,18.81674,0,0,0-4.32911,6.50818,19.2748,19.2748,0,0,0-1.31756,7.66308,20.29351,20.29351,0,0,0,6.08252,13.73541,19.86,19.86,0,0,0,13.73541,5.56342,20.81429,20.81429,0,0,0,13.93515-5.36371,19.61692,19.61692,0,0,0,4.62225-6.24841A18.47543,18.47543,0,0,0,456.72479,90.121Z" fill="#ffcb5c"/><path d="M446.33612,99.99768l-4.68936.34766-4.886.3092c-3.30929.19244-6.71515.29218-10.10733.339l-1.06707.01477.00039-1.08142c.00061-1.63434-.01285-3.26862.02439-4.903l.10156-4.903c.0451-3.26868.199-6.53729.39313-9.80591l.03378-.56891.51382.02131c1.63431.06768,3.26862.18042,4.903.20788,1.6343.04315,3.26861.04376,4.903.01538,3.26865-.07361,6.53726-.36493,9.80591-.50812l.80191-.03515.03055.86761c.11856,3.36853.02817,6.78174-.11634,10.10254-.07275,1.66156-.16394,3.30487-.27578,4.90558C446.59183,96.92163,446.47339,98.49243,446.33612,99.99768Zm-.14145-.14142-.36951-5.13147c-.11184-1.66791-.203-3.29327-.27578-4.90039-.1445-3.21649-.23493-6.34057-.11634-9.50934l.83225.83222c-3.26865-.14319-6.53726-.43451-9.80591-.50812-1.63434-.02838-3.26865-.02777-4.903.01538-1.63434.02747-3.26865.1402-4.903.20789l.5474-.54737c.19409,3.26862.348,6.53723.39312,9.80591l.10157,4.903c.03723,1.63433.02377,3.26861.02438,4.903l-1.0665-1.06647c3.14511.04682,6.27658.14655,9.50461.339Z" fill="#ffcb5c"/><path d="M609.148,238.94082s2.06874-2.61824,3.29705-1.099-3.29705,7.85473-3.29705,7.85473-4.52536-6.33551-3.297-7.85473S609.148,238.94082,609.148,238.94082Z" fill="#ef8378"/><path d="M609.148,254.72535s2.06874,2.61824,3.29705,1.099-3.29705-7.85474-3.29705-7.85474-4.52536,6.33551-3.297,7.85474S609.148,254.72535,609.148,254.72535Z" fill="#ef8378"/><path d="M615.99641,242.9105s3.30015.49382,2.59235,2.31476-8.45457,1.04294-8.45457,1.04294,3.24841-7.07569,5.17719-6.76491S615.99641,242.9105,615.99641,242.9105Z" fill="#ef8378"/><path d="M602.29952,250.75567s-1.24376,3.09643.685,3.40721,5.1772-6.76491,5.1772-6.76491-7.74676-.778-8.45457,1.04294S602.29952,250.75567,602.29952,250.75567Z" fill="#ef8378"/><path d="M615.9898,250.76718s1.23855,3.09853-.69076,3.40606-5.1658-6.77361-5.1658-6.77361,7.74806-.765,8.4528,1.05716S615.9898,250.76718,615.9898,250.76718Z" fill="#ef8378"/><path d="M602.30613,242.899s-3.301.48826-2.59624,2.31039,8.4528,1.05717,8.4528,1.05717-3.2365-7.08115-5.16581-6.77362S602.30613,242.899,602.30613,242.899Z" fill="#ef8378"/><path d="M616.52132,408.13235s2.93681-3.7169,4.68054-1.56018-4.68054,11.15071-4.68054,11.15071-6.42428-8.994-4.68055-11.15071S616.52132,408.13235,616.52132,408.13235Z" fill="#ef8378"/><path d="M616.52132,430.54032s2.93681,3.71691,4.68054,1.56018-4.68054-11.1507-4.68054-11.1507-6.42428,8.994-4.68055,11.1507S616.52132,430.54032,616.52132,430.54032Z" fill="#ef8378"/><path d="M626.24348,413.76778s4.685.701,3.68014,3.28606-12.00224,1.48058-12.00224,1.48058,4.61149-10.04477,7.34963-9.60358S626.24348,413.76778,626.24348,413.76778Z" fill="#ef8378"/><path d="M606.79915,424.9049s-1.76567,4.39575.97247,4.83693,7.34963-9.60358,7.34963-9.60358-10.99742-1.10445-12.00224,1.48058S606.79915,424.9049,606.79915,424.9049Z" fill="#ef8378"/><path d="M626.2341,424.92125s1.75827,4.39871-.98061,4.83529-7.33346-9.61593-7.33346-9.61593,10.99927-1.086,11.99973,1.50076S626.2341,424.92125,626.2341,424.92125Z" fill="#ef8378"/><path d="M606.80853,413.75143s-4.68612.69315-3.68566,3.27987,11.99973,1.50077,11.99973,1.50077-4.59458-10.05251-7.33346-9.61594S606.80853,413.75143,606.80853,413.75143Z" fill="#ef8378"/><path d="M527.20679,64.76686s5.029-6.36487,8.015-2.67168-8.015,19.09462-8.015,19.09462-11.001-15.40142-8.015-19.09462S527.20679,64.76686,527.20679,64.76686Z" fill="#ef8378"/><path d="M527.20679,103.13856s5.029,6.36487,8.015,2.67167-8.015-19.09461-8.015-19.09461-11.001,15.40142-8.015,19.09461S527.20679,103.13856,527.20679,103.13856Z" fill="#ef8378"/><path d="M543.85515,74.417s8.02257,1.20046,6.30192,5.62711-20.55279,2.53536-20.55279,2.53536,7.89677-17.20079,12.5856-16.4453S543.85515,74.417,543.85515,74.417Z" fill="#ef8378"/><path d="M510.55844,93.48838s-3.02356,7.52735,1.66527,8.28283S524.8093,85.32592,524.8093,85.32592s-18.83213-1.89128-20.55278,2.53536S510.55844,93.48838,510.55844,93.48838Z" fill="#ef8378"/><path d="M543.83908,93.51638s3.01089,7.53242-1.6792,8.28S529.602,85.33,529.602,85.33s18.83528-1.8596,20.54849,2.56994S543.83908,93.51638,543.83908,93.51638Z" fill="#ef8378"/><path d="M510.5745,74.389s-8.02458,1.187-6.31137,5.61649,20.54849,2.56994,20.54849,2.56994-7.86782-17.214-12.55791-16.46645S510.5745,74.389,510.5745,74.389Z" fill="#ef8378"/><path d="M602.97775,442.37036s2.06873-2.61825,3.29705-1.099-3.29705,7.85473-3.29705,7.85473-4.52536-6.3355-3.29705-7.85473S602.97775,442.37036,602.97775,442.37036Z" fill="#ef8378"/><path d="M602.97775,458.15488s2.06873,2.61825,3.29705,1.099-3.29705-7.85473-3.29705-7.85473-4.52536,6.3355-3.29705,7.85473S602.97775,458.15488,602.97775,458.15488Z" fill="#ef8378"/><path d="M609.82619,446.34s3.30016.49382,2.59235,2.31476-8.45456,1.04294-8.45456,1.04294,3.2484-7.07569,5.17719-6.76492S609.82619,446.34,609.82619,446.34Z" fill="#ef8378"/><path d="M596.1293,454.1852s-1.24376,3.09644.685,3.40721,5.17719-6.76491,5.17719-6.76491-7.74676-.778-8.45456,1.04294S596.1293,454.1852,596.1293,454.1852Z" fill="#ef8378"/><path d="M609.81958,454.19672s1.23855,3.09852-.69075,3.406-5.16581-6.77361-5.16581-6.77361,7.74806-.765,8.4528,1.05716S609.81958,454.19672,609.81958,454.19672Z" fill="#ef8378"/><path d="M596.13591,446.32852s-3.301.48827-2.59624,2.31039,8.4528,1.05717,8.4528,1.05717-3.23649-7.08115-5.1658-6.77361S596.13591,446.32852,596.13591,446.32852Z" fill="#ef8378"/><path d="M435.44214,219.91973s2.06874-2.61824,3.29705-1.099-3.29705,7.85473-3.29705,7.85473-4.52536-6.33551-3.297-7.85473S435.44214,219.91973,435.44214,219.91973Z" fill="#ef8378"/><path d="M435.44214,235.70426s2.06874,2.61824,3.29705,1.099-3.29705-7.85474-3.29705-7.85474-4.52536,6.33551-3.297,7.85474S435.44214,235.70426,435.44214,235.70426Z" fill="#ef8378"/><path d="M442.29059,223.88942s3.30015.49381,2.59235,2.31475-8.45457,1.04294-8.45457,1.04294,3.24841-7.07569,5.17719-6.76491S442.29059,223.88942,442.29059,223.88942Z" fill="#ef8378"/><path d="M428.5937,231.73458s-1.24376,3.09643.685,3.40721,5.17719-6.76491,5.17719-6.76491-7.74676-.778-8.45457,1.04294S428.5937,231.73458,428.5937,231.73458Z" fill="#ef8378"/><path d="M442.284,231.74609s1.23855,3.09853-.69076,3.40606-5.1658-6.77361-5.1658-6.77361,7.74806-.765,8.4528,1.05716S442.284,231.74609,442.284,231.74609Z" fill="#ef8378"/><path d="M428.60031,223.8779s-3.301.48826-2.59624,2.31039,8.4528,1.05717,8.4528,1.05717-3.2365-7.08115-5.1658-6.77362S428.60031,223.8779,428.60031,223.8779Z" fill="#ef8378"/><rect x="498.65025" y="271.05366" width="8.56835" height="42.20706" fill="#f05b43"/><rect x="498.65021" y="271.05365" width="4.47419" height="42.20707" fill="#cf2633"/><rect x="493.6354" y="252.94681" width="18.978" height="18.978" transform="translate(332.93187 -278.89701) rotate(45)" fill="#f05b43"/><polygon points="496.853 262.436 506.699 252.591 503.124 249.016 489.705 262.436 503.124 275.855 506.699 272.281 496.853 262.436" fill="#cf2633"/><path d="M550.06037,211.36727c0-15.01926-12.37035-27.83446-29.83063-33.039V170.747H486.59111v7.31852c-17.95839,5.01681-30.78262,18.01279-30.78262,33.30177,0,15.28914,12.82423,28.285,30.78262,33.30177v5.16239h33.63863v-5.42517C537.69,239.20173,550.06037,226.38669,550.06037,211.36727Z" fill="#f05b43"/><path d="M508.95021,178.32828a45.41054,45.41054,0,0,1,21.1029,11.13615,33.75264,33.75264,0,0,1,7.19534,9.88263,27.68251,27.68251,0,0,1,.003,24.0418,33.774,33.774,0,0,1-7.19575,9.88383,45.374,45.374,0,0,1-21.1055,11.13357A52.40857,52.40857,0,0,0,528.7088,231.9354a33.83268,33.83268,0,0,0,6.44725-9.50227,26.63558,26.63558,0,0,0,.003-22.13306,33.8574,33.8574,0,0,0-6.44767-9.50348A52.35689,52.35689,0,0,0,508.95021,178.32828Z" fill="#ffcb5c"/><path d="M468.7451,211.36726c0-15.289,12.82422-28.28494,30.78258-33.30174V170.747H486.59111v7.31854c-17.95836,5.0168-30.78258,18.01276-30.78258,33.30174,0,15.28916,12.82422,28.285,30.78258,33.30178v5.16239h12.93657V244.669C481.56932,239.65224,468.7451,226.65642,468.7451,211.36726Z" fill="#cf2633"/><path d="M499.52768,244.66905a46.06886,46.06886,0,0,1-21.69236-11.04833,34.03472,34.03472,0,0,1-7.44816-10.00284,27.705,27.705,0,0,1-.003-24.50258,34.056,34.056,0,0,1,7.4486-10.004,46.03242,46.03242,0,0,1,21.69489-11.04576c-7.64232,2.70154-14.81359,6.72606-20.36554,12.40051a34.059,34.059,0,0,0-6.6907,9.62272,26.6034,26.6034,0,0,0-.003,22.55848,34.08257,34.08257,0,0,0,6.69113,9.62393C484.71161,237.94668,491.88456,241.97048,499.52768,244.66905Z" fill="#ffcb5c"/><path d="M502.93443,184.7103c.50325,4.58051.76653,9.161.94538,13.74153.112,2.29024.137,4.58051.20287,6.87075l.06717,6.87076-.06388,6.87078c-.0678,2.29024-.0894,4.58051-.20252,6.87075-.17817,4.58051-.44274,9.161-.949,13.74153-.50628-4.58051-.77085-9.161-.949-13.74153-.11313-2.29024-.13473-4.58051-.20253-6.87075l-.06388-6.87078.06717-6.87076c.06591-2.29024.09081-4.58051.20287-6.87075C502.1679,193.87132,502.43118,189.29081,502.93443,184.7103Z" fill="#ffcb5c"/><path d="M495.994,241.22434a22.0589,22.0589,0,0,1-6.40848-5.14266,29.76444,29.76444,0,0,1-4.48773-7.00758,36.12783,36.12783,0,0,1-2.59793-7.93636,42.62352,42.62352,0,0,1-.8188-8.31656,38.09584,38.09584,0,0,1,3.64852-16.2045,29.35152,29.35152,0,0,1,4.61509-6.92779,21.57419,21.57419,0,0,1,6.53311-4.98473,29.32868,29.32868,0,0,0-9.41451,12.685,39.73028,39.73028,0,0,0-2.19818,7.58631,41.00689,41.00689,0,0,0-.75325,7.86169,42.93855,42.93855,0,0,0,.64429,7.87258,40.03308,40.03308,0,0,0,2.08107,7.62308A29.983,29.983,0,0,0,495.994,241.22434Z" fill="#ffcb5c"/><path d="M510.7566,241.22434a29.98291,29.98291,0,0,0,9.1568-12.89147,40.03308,40.03308,0,0,0,2.08107-7.62308,42.93854,42.93854,0,0,0,.64428-7.87258,41.00607,41.00607,0,0,0-.75323-7.86169,39.73031,39.73031,0,0,0-2.19819-7.58631,29.3286,29.3286,0,0,0-9.41451-12.685,21.57419,21.57419,0,0,1,6.53311,4.98473,29.35217,29.35217,0,0,1,4.6151,6.92779,38.09643,38.09643,0,0,1,3.64852,16.2045,42.62428,42.62428,0,0,1-.81879,8.31656,36.12841,36.12841,0,0,1-2.59795,7.93636,29.76444,29.76444,0,0,1-4.48773,7.00758A22.05877,22.05877,0,0,1,510.7566,241.22434Z" fill="#ffcb5c"/><path d="M518.32635,212.3418a44.98718,44.98718,0,0,0-1.28216-8.04041,36.81067,36.81067,0,0,0-2.736-7.54773,50.04338,50.04338,0,0,0-4.2797-6.63818,48.37852,48.37852,0,0,0-5.23178-6.0777l.1243-.209a16.23232,16.23232,0,0,1,6.99765,4.756,23.34987,23.34987,0,0,1,4.17011,7.38427,38.3909,38.3909,0,0,1,2.14825,8.09528,40.79682,40.79682,0,0,1,.33258,8.27753Z" fill="#fff"/><rect x="496.39248" y="154.49467" width="13.46385" height="13.46385" transform="translate(261.36615 -308.5405) rotate(45)" fill="#f05b43"/><polygon points="498.255 161.227 505.45 154.032 503.124 151.706 493.604 161.227 503.124 170.747 505.45 168.421 498.255 161.227" fill="#cf2633"/><rect x="502.12402" y="113.97559" width="1.62109" height="37.73047" fill="#ffcb5c"/><path d="M486.59111,178.06549a46.2382,46.2382,0,0,1,8.33591-1.67808,67.02439,67.02439,0,0,1,8.50017-.46779c1.42009.00572,2.83962.0847,4.257.1591,1.41452.13742,2.83224.2181,4.236.4486a50.71936,50.71936,0,0,1,8.3095,1.801c-2.83714-.15785-5.62617-.42381-8.42827-.54119-2.79639-.14937-5.59116-.23758-8.38618-.24695-2.7953-.0481-5.59139.021-8.39212.10411C492.22121,177.74057,489.41979,177.87861,486.59111,178.06549Z" fill="#ffcb5c"/><path d="M508.95021,176.19246v1.47495c.95036.03593,1.90062.06888,2.85128.11966,2.80209.11737,5.59112.38336,8.42825.54121a50.71383,50.71383,0,0,0-8.30949-1.801C510.93515,176.36556,509.94313,176.27807,508.95021,176.19246Z" fill="#f29720"/><path d="M499.52766,177.54276v-1.53795c-1.53765.07423-3.07268.19611-4.60063.38257a46.24174,46.24174,0,0,0-8.3359,1.67809c2.82866-.18686,5.63006-.32492,8.43205-.42122Q497.27719,177.57738,499.52766,177.54276Z" fill="#f29720"/><path d="M486.59111,244.669c5.661-.0524,11.2604.18228,16.86055.2431,2.79825.05953,5.59474.07089,8.38693.01685a80.83551,80.83551,0,0,0,8.39116-.52271,33.03315,33.03315,0,0,1-8.31218,1.78559c-1.4118.17785-2.8283.21781-4.24442.3052-1.41544.02927-2.8327.05748-4.24687.03543-2.82944-.05658-5.6534-.2137-8.46259-.52449A70.60272,70.60272,0,0,1,486.59111,244.669Z" fill="#ffcb5c"/><path d="M508.95021,244.9525v1.473c.99024-.0529,1.98-.10926,2.96737-.23367a33.03286,33.03286,0,0,0,8.31216-1.78562,80.82736,80.82736,0,0,1-8.39114.52271C510.87646,244.94755,509.91329,244.94869,508.95021,244.9525Z" fill="#f29720"/><path d="M499.52766,244.84581c-4.29471-.08957-8.59749-.217-12.93653-.17681a70.59985,70.59985,0,0,0,8.37257,1.339c1.51741.1679,3.03942.2878,4.564.3744Z" fill="#f29720"/><circle cx="502.93443" cy="143.44195" r="4.84099" fill="#f05b43"/><path d="M501.845,143.442a4.842,4.842,0,0,1,2.96516-4.46372,4.841,4.841,0,1,0,0,8.92743A4.842,4.842,0,0,1,501.845,143.442Z" fill="#cf2633"/><path d="M583.6546,326.89508a6.25755,6.25755,0,0,1,4.45716.98181,8.90483,8.90483,0,0,1,2.959,3.498,16.58962,16.58962,0,0,1,1.54608,4.16876c.13971.71918.22815,1.44458.33594,2.1579q.07077,1.08591.1109,2.15967l-.19885.02124q-.27264-1.03931-.51727-2.06427c-.22931-.66846-.43653-1.33857-.68818-1.98609a15.28214,15.28214,0,0,0-1.93853-3.59826,20.44321,20.44321,0,0,0-2.78986-2.74268,21.32566,21.32566,0,0,0-3.29578-2.397Z" fill="#fff"/><path d="M622.69153,204.70281s2.93681-3.7169,4.68055-1.56018-4.68055,11.15071-4.68055,11.15071-6.42427-8.994-4.68054-11.15071S622.69153,204.70281,622.69153,204.70281Z" fill="#ef8378"/><path d="M622.69153,227.11079s2.93681,3.7169,4.68055,1.56018-4.68055-11.15071-4.68055-11.15071-6.42427,8.994-4.68054,11.15071S622.69153,227.11079,622.69153,227.11079Z" fill="#ef8378"/><path d="M632.4137,210.33824s4.685.701,3.68013,3.28607-12.00223,1.48058-12.00223,1.48058,4.61148-10.04477,7.34962-9.60359S632.4137,210.33824,632.4137,210.33824Z" fill="#ef8378"/><path d="M612.96937,221.47536s-1.76567,4.39576.97247,4.83694,7.34963-9.60358,7.34963-9.60358-10.99743-1.10446-12.00224,1.48058S612.96937,221.47536,612.96937,221.47536Z" fill="#ef8378"/><path d="M632.40431,221.49171s1.75827,4.39872-.9806,4.8353-7.33346-9.61594-7.33346-9.61594,10.99926-1.08595,11.99973,1.50077S632.40431,221.49171,632.40431,221.49171Z" fill="#ef8378"/><path d="M612.97875,210.32189s-4.68613.69315-3.68566,3.27987,11.99973,1.50077,11.99973,1.50077-4.59458-10.05251-7.33346-9.61593S612.97875,210.32189,612.97875,210.32189Z" fill="#ef8378"/><path d="M441.65784,73.77679a6.25746,6.25746,0,0,1,4.45718.98182,8.90494,8.90494,0,0,1,2.959,3.498,16.5897,16.5897,0,0,1,1.54611,4.16876c.13971.71918.22818,1.44458.336,2.158q.07072,1.08582.11087,2.15961l-.19886.0213q-.27264-1.0393-.51727-2.06427c-.22931-.66852-.43649-1.33856-.68817-1.98614a15.28525,15.28525,0,0,0-1.93851-3.59827,20.44412,20.44412,0,0,0-2.78991-2.74268,21.32244,21.32244,0,0,0-3.29575-2.397Z" fill="#fff"/></svg>