<svg id="Layer_1" data-name="Layer 1" xmlns="http://www.w3.org/2000/svg" viewBox="0 0 700 550"><title>cherry blossom</title><path d="M317.59078,106.65479c-7.3044,14.70539,45.79837,70.82187,114.69857,78.71512,36.28675,4.15744,85.24163-4.11254,86.58662-17.99239,2.72538-28.10925-189.23993-84.971-201.28519-60.72273" fill="#f0f5fd"/><path d="M588.59406,199.9881c33.13161,28.52539,27.80453,91.39,14.98,128.12558-3.41213,9.77-23.66618,67.78366-72.33,82.15447-50.886,15.029-73.84233-35.08316-141.25065-36.59817-75.13158-1.68909-89.99062,59.58576-154.47091,58.37266C164.38107,430.7017,68.54393,353.97215,73.80024,254.29446c4.09486-77.65841,68.47587-148.88414,129.65551-151.68568C272.36686,99.45364,283.452,185.57107,379.30813,209.459c99.40437,24.77187,163.49433-48.895,209.28593-9.47086" fill="#f0f5fd"/><rect x="415.71682" y="436.49481" width="7.57333" height="37.30567" fill="#f05b43"/><rect x="411.11641" y="420.11475" width="16.77414" height="16.77414" transform="translate(425.86627 -171.12848) rotate(45)" fill="#f05b43"/><rect x="415.71692" y="436.49481" width="4.11916" height="37.30568" fill="#cf2633"/><polygon points="413.155 428.502 422.26 419.397 419.503 416.641 407.642 428.502 419.503 440.363 422.26 437.607 413.155 428.502" fill="#cf2633"/><rect x="387.08291" y="313.24178" width="65.20338" height="93.29099" rx="32.60166" fill="#f05b43"/><path d="M402.12982,389.15914V330.61539a17.37318,17.37318,0,0,1,16.38955-17.34413,32.59627,32.59627,0,0,0-31.43656,32.57218V373.9311a32.5963,32.5963,0,0,0,31.43656,32.57221A17.3732,17.3732,0,0,1,402.12982,389.15914Z" fill="#cf2633"/><path d="M419.68454,313.2418h.00017a32.513,32.513,0,0,1,11.57922,2.124v-8.81159H408.10532v8.81159A32.51233,32.51233,0,0,1,419.68454,313.2418Z" fill="#f05b43"/><path d="M426.78252,313.2418h-.00017a32.68774,32.68774,0,0,0-3.5489.20026,32.49267,32.49267,0,0,1,8.03048,1.92377V313.5501A32.6793,32.6793,0,0,0,426.78252,313.2418Z" fill="#cf2633"/><path d="M415.20313,306.55424h-7.09781v8.81159a32.49472,32.49472,0,0,1,7.09781-1.81578Z" fill="#cf2633"/><path d="M419.68471,406.53278h-.00017a32.51212,32.51212,0,0,1-11.57922-2.124v14.83195h23.15861V404.40874A32.51281,32.51281,0,0,1,419.68471,406.53278Z" fill="#f05b43"/><path d="M427.29614,406.53278h0a32.67064,32.67064,0,0,0,3.96779-.24877v-1.87527a32.49448,32.49448,0,0,1-7.77368,1.89406A32.67578,32.67578,0,0,0,427.29614,406.53278Z" fill="#cf2633"/><path d="M408.10532,404.40874v14.83195h7.6116V406.284A32.49416,32.49416,0,0,1,408.10532,404.40874Z" fill="#cf2633"/><path d="M419.50342,406.63574a17.96419,17.96419,0,0,1-12.82739-5.363,17.77768,17.77768,0,0,1-3.92481-6.0029l-.3291-.84748-.25073-.87445a11.79584,11.79584,0,0,1-.40528-1.77624,11.93106,11.93106,0,0,1-.22265-1.8129c-.05908-.61642-.0791-1.2085-.09131-1.79388-.31421-9.42588-.37525-18.85175-.42066-28.27759-.02783-9.42587.0586-18.85172.12964-28.27759-.00024-.5838.00635-1.17633.053-1.80838a18.27634,18.27634,0,0,1,.56275-3.67425l.24194-.8989.32471-.87213a18.26413,18.26413,0,0,1,3.94677-6.21878,17.96223,17.96223,0,0,1,20.26563-3.882,18.61085,18.61085,0,0,1,5.83008,4.1943,17.738,17.738,0,0,1,3.72241,6.10889l.29883.84842.22265.87167a17.60775,17.60775,0,0,1,.53394,3.55042c.04419.603.04956,1.19333.04712,1.7807.07593,9.42584.37573,18.85172.52319,28.27759.12476,9.42584.075,18.85171-.21069,28.27759-.01123.58557-.03,1.17746-.08789,1.79263a11.92791,11.92791,0,0,1-.21924,1.81058,11.74307,11.74307,0,0,1-.40137,1.77462l-.24951.87363-.32837.84662a17.76072,17.76072,0,0,1-3.91846,5.99814A17.99116,17.99116,0,0,1,419.50342,406.63574Zm0-.20593a16.92084,16.92084,0,0,0,6.821-1.44672,16.66435,16.66435,0,0,0,5.60279-4.09167,17.02978,17.02978,0,0,0,3.45556-5.9401l.26929-.8161.19067-.838a16.756,16.756,0,0,0,.398-3.3923c.02393-.561.01123-1.14716-.01-1.74-.28564-9.42588-.33545-18.85175-.21069-28.27759.14746-9.42587.44751-18.85175.52319-28.27759a18.10575,18.10575,0,0,0-1.03174-6.83337,17.06168,17.06168,0,0,0-3.65185-5.82935,16.608,16.608,0,0,0-12.3562-5.14139,16.78006,16.78006,0,0,0-12.02539,5.45377,16.536,16.536,0,0,0-3.42749,5.71945l-.2732.79059-.19824.81274a16.393,16.393,0,0,0-.45556,3.30323c-.03516.54412-.03467,1.12966-.02515,1.72436.07129,9.42587.15771,18.85172.12988,28.27759-.04565,9.42584-.10644,18.85171-.42065,28.27759-.02246.59308-.03614,1.17907-.01343,1.73883a16.76219,16.76219,0,0,0,.39062,3.3883l.18946.83725.26855.81522a17.0162,17.0162,0,0,0,3.44922,5.93533,16.67151,16.67151,0,0,0,5.595,4.0925A16.93119,16.93119,0,0,0,419.50342,406.42981Z" fill="#ffcb5c"/><rect x="418.47461" y="205.76904" width="2.05859" height="100.78564" fill="#ffcb5c"/><circle cx="419.6846" cy="292.53134" r="4.32599" fill="#f05b43"/><circle cx="419.6846" cy="299.91677" r="2.20828" fill="#f05b43"/><circle cx="419.6846" cy="284.80714" r="2.20828" fill="#f05b43"/><path d="M417.567,292.53133a4.32366,4.32366,0,0,1,3.22185-4.17834,4.326,4.326,0,1,0,0,8.35673A4.32371,4.32371,0,0,1,417.567,292.53133Z" fill="#cf2633"/><path d="M419.68454,299.91678a2.19893,2.19893,0,0,1,1.10428-1.902,2.20836,2.20836,0,1,0,0,3.804A2.19884,2.19884,0,0,1,419.68454,299.91678Z" fill="#cf2633"/><path d="M419.68454,284.80715a2.19893,2.19893,0,0,1,1.10428-1.902,2.20836,2.20836,0,1,0,0,3.804A2.19884,2.19884,0,0,1,419.68454,284.80715Z" fill="#cf2633"/><path d="M419.698,319.96732a7.64224,7.64224,0,0,1,7.75366,2.81933,8.77063,8.77063,0,0,1,.79883,1.18927c.23584.41187.51562.791.70776,1.21765a18.34138,18.34138,0,0,1,1.85938,5.128c.15942.88184.25586,1.76908.37475,2.63981q.07032,1.32508.093,2.63189l-.30688.03595q-.38122-1.25005-.719-2.47839c-.30615-.79953-.585-1.59952-.91626-2.36893a20.51316,20.51316,0,0,0-1.12524-2.21667l-.61719-1.05283-.71411-.97131a33.24821,33.24821,0,0,0-3.38428-3.164,39.66772,39.66772,0,0,0-3.8313-3.102Z" fill="#fff"/><path d="M431.13208,337.46484a12.99754,12.99754,0,0,1,.5144,3.83069,12.84637,12.84637,0,0,1-.5144,3.83072,12.8467,12.8467,0,0,1-.51465-3.83072A12.99027,12.99027,0,0,1,431.13208,337.46484Z" fill="#fff"/><rect x="261.08415" y="427.36319" width="11.27701" height="55.54973" fill="#f05b43"/><rect x="261.08409" y="427.36318" width="5.8886" height="55.54976" fill="#cf2633"/><rect x="254.48398" y="403.53233" width="24.9774" height="24.9774" transform="translate(372.36578 -66.92846) rotate(45)" fill="#f05b43"/><polygon points="258.719 416.021 271.677 403.063 266.973 398.359 249.311 416.021 266.973 433.683 271.677 428.979 258.719 416.021" fill="#cf2633"/><path d="M328.74626,348.80848c0-19.76722-16.28092-36.63361-39.26082-43.48342v-9.97793H245.21282v9.63209c-23.63547,6.60274-40.51376,23.70706-40.51376,43.82926,0,20.12241,16.87829,37.22652,40.51376,43.82926v6.79436h44.27262v-7.1402C312.46534,385.44209,328.74626,368.57591,328.74626,348.80848Z" fill="#f05b43"/><path d="M274.64017,305.32507a59.7658,59.7658,0,0,1,27.774,14.65655,44.42279,44.42279,0,0,1,9.47,13.00678,36.43362,36.43362,0,0,1,.00395,31.642,44.45082,44.45082,0,0,1-9.47049,13.00834,59.71781,59.71781,0,0,1-27.77747,14.65317c9.791-3.66495,18.94736-9.00106,26.00477-16.4132a44.52845,44.52845,0,0,0,8.48538-12.50617,35.05579,35.05579,0,0,0,.0039-29.12986,44.5603,44.5603,0,0,0-8.48593-12.50776C293.59082,314.32136,284.43231,308.9861,274.64017,305.32507Z" fill="#ffcb5c"/><path d="M221.72525,348.80847c0-20.12221,16.87827-37.2265,40.5137-43.82923v-9.63211H245.21282v9.63211c-23.63543,6.60273-40.5137,23.707-40.5137,43.82923,0,20.12243,16.87827,37.22655,40.5137,43.82928v6.79434H262.239v-6.79434C238.60352,386.035,221.72525,368.9309,221.72525,348.80847Z" fill="#cf2633"/><path d="M262.239,392.63776a60.63227,60.63227,0,0,1-28.54984-14.541,44.79354,44.79354,0,0,1-9.8027-13.165,36.46325,36.46325,0,0,1-.00391-32.24844,44.82172,44.82172,0,0,1,9.80328-13.16654A60.58441,60.58441,0,0,1,262.239,304.97924c-10.05824,3.55556-19.49653,8.85233-26.80359,16.32061a44.82591,44.82591,0,0,0-8.80578,12.66469,35.01335,35.01335,0,0,0-.00394,29.68977A44.85713,44.85713,0,0,0,235.432,376.3206C242.73917,383.79028,252.17966,389.08611,262.239,392.63776Z" fill="#ffcb5c"/><path d="M266.72265,313.72459c.66234,6.02852,1.00886,12.057,1.24425,18.08557.14747,3.01424.18025,6.02852.267,9.04276l.0884,9.04277-.08407,9.0428c-.08924,3.01424-.11766,6.02852-.26655,9.04276-.23449,6.02852-.5827,12.05705-1.249,18.08557-.66633-6.02852-1.01453-12.05705-1.249-18.08557-.1489-3.01424-.17732-6.02852-.26656-9.04276l-.08406-9.0428.0884-9.04277c.08674-3.01424.11952-6.02852.267-9.04276C265.71381,325.78163,266.06032,319.75311,266.72265,313.72459Z" fill="#ffcb5c"/><path d="M257.58812,388.1041a29.03218,29.03218,0,0,1-8.43435-6.76838,39.17359,39.17359,0,0,1-5.90641-9.22285,47.54884,47.54884,0,0,1-3.41921-10.44524,56.099,56.099,0,0,1-1.07764-10.94562,50.13907,50.13907,0,0,1,4.80191-21.32714,38.63017,38.63017,0,0,1,6.074-9.11783,28.39406,28.39406,0,0,1,8.59838-6.56052,38.60007,38.60007,0,0,0-12.39067,16.6951,52.29012,52.29012,0,0,0-2.89308,9.98452,53.9696,53.9696,0,0,0-.99136,10.347,56.51215,56.51215,0,0,0,.848,10.36129,52.68875,52.68875,0,0,0,2.739,10.03291A39.46125,39.46125,0,0,0,257.58812,388.1041Z" fill="#ffcb5c"/><path d="M277.01761,388.1041a39.46128,39.46128,0,0,0,12.05149-16.96679A52.68946,52.68946,0,0,0,291.808,361.1044a56.513,56.513,0,0,0,.848-10.36129,53.97039,53.97039,0,0,0-.99135-10.347,52.29015,52.29015,0,0,0-2.89309-9.98452,38.6,38.6,0,0,0-12.39067-16.6951,28.39418,28.39418,0,0,1,8.59838,6.56052,38.63051,38.63051,0,0,1,6.07405,9.11783,50.13936,50.13936,0,0,1,4.8019,21.32714,56.09822,56.09822,0,0,1-1.07763,10.94562,47.54937,47.54937,0,0,1-3.41921,10.44524,39.17426,39.17426,0,0,1-5.90642,9.22285A29.032,29.032,0,0,1,277.01761,388.1041Z" fill="#ffcb5c"/><path d="M286.98022,350.09113a59.20263,59.20263,0,0,0-1.68725-10.58219,52.04212,52.04212,0,0,0-3.60108-9.93374,65.87031,65.87031,0,0,0-5.63256-8.73673,63.66788,63.66788,0,0,0-6.88575-7.999l.16358-.27518a21.36308,21.36308,0,0,1,9.20972,6.25949,30.72682,30.72682,0,0,1,5.48852,9.71866,47.39529,47.39529,0,0,1,2.82739,10.65436,53.69385,53.69385,0,0,1,.43775,10.89432Z" fill="#fff"/><rect x="258.11263" y="273.95707" width="17.72011" height="17.72011" transform="translate(278.1764 -105.94298) rotate(45)" fill="#f05b43"/><polygon points="260.564 282.817 270.033 273.348 266.973 270.287 254.443 282.817 266.973 295.347 270.033 292.286 260.564 282.817" fill="#cf2633"/><rect x="265.65527" y="220.62939" width="2.13477" height="49.65771" fill="#ffcb5c"/><path d="M245.21282,304.9792a60.85586,60.85586,0,0,1,10.97109-2.20857,88.2118,88.2118,0,0,1,11.18729-.61566c1.869.00752,3.73728.11147,5.60279.20939,1.86168.18086,3.72758.28705,5.57513.59042a66.752,66.752,0,0,1,10.93633,2.37029c-3.734-.20776-7.40474-.5578-11.09266-.71228-3.68039-.19659-7.35865-.31268-11.03725-.325-3.679-.06331-7.359.02761-11.04507.137C252.62273,304.55157,248.93571,304.73324,245.21282,304.9792Z" fill="#ffcb5c"/><path d="M262.23892,304.29122v-2.02413c-2.02373.09769-4.044.2581-6.055.50351a60.86035,60.86035,0,0,0-10.97109,2.20857c3.72287-.24593,7.40986-.42763,11.09763-.55437Q259.277,304.33678,262.23892,304.29122Z" fill="#f29720"/><path d="M245.21282,392.63773c7.45057-.069,14.82008.2399,22.19057.31994,3.68285.07835,7.36337.0933,11.03825.02218a106.3944,106.3944,0,0,0,11.04381-.688,43.47674,43.47674,0,0,1-10.93987,2.35006c-1.85809.23407-3.72238.28666-5.58618.40168-1.86289.03852-3.72818.07565-5.58941.04663-3.72389-.07447-7.44058-.28126-11.13781-.69029A92.926,92.926,0,0,1,245.21282,392.63773Z" fill="#ffcb5c"/><path d="M262.23892,392.8704c-5.65237-.11788-11.31536-.28559-17.02608-.2327a92.91664,92.91664,0,0,0,11.01935,1.76224c1.9971.221,4.00026.37879,6.00673.49276Z" fill="#f29720"/><circle cx="266.72266" cy="259.41032" r="6.37135" fill="#f05b43"/><path d="M265.28885,259.41031a6.3727,6.3727,0,0,1,3.90253-5.8748,6.37134,6.37134,0,1,0,0,11.7496A6.37261,6.37261,0,0,1,265.28885,259.41031Z" fill="#cf2633"/><rect x="544.98106" y="399.8562" width="11.27701" height="55.54973" fill="#f05b43"/><rect x="544.981" y="399.85619" width="5.8886" height="55.54976" fill="#cf2633"/><rect x="538.3809" y="376.02534" width="24.9774" height="24.9774" transform="translate(436.06688 -275.7305) rotate(45)" fill="#f05b43"/><polygon points="542.616 388.514 555.574 375.556 550.87 370.852 533.208 388.514 550.87 406.176 555.574 401.472 542.616 388.514" fill="#cf2633"/><path d="M612.64317,321.30149c0-19.76722-16.28092-36.63361-39.26082-43.48342v-9.97793H529.10974v9.63209C505.47426,284.075,488.596,301.17929,488.596,321.30149c0,20.12241,16.87829,37.22652,40.51377,43.82926v6.79436h44.27261v-7.1402C596.36225,357.9351,612.64317,341.06892,612.64317,321.30149Z" fill="#f05b43"/><path d="M558.53708,277.81808a59.7658,59.7658,0,0,1,27.77405,14.65655,44.42288,44.42288,0,0,1,9.47,13.00677,36.4336,36.4336,0,0,1,.004,31.642,44.451,44.451,0,0,1-9.4705,13.00834,59.7176,59.7176,0,0,1-27.77747,14.65316c9.791-3.66494,18.94736-9.00105,26.00477-16.41319a44.52845,44.52845,0,0,0,8.48538-12.50617,35.05584,35.05584,0,0,0,.00391-29.12986,44.5604,44.5604,0,0,0-8.48594-12.50776C577.48773,286.81437,568.32922,281.47911,558.53708,277.81808Z" fill="#ffcb5c"/><path d="M505.62216,321.30148c0-20.12221,16.87827-37.2265,40.5137-43.82923v-9.63211H529.10973v9.63211c-23.63543,6.60273-40.5137,23.707-40.5137,43.82923,0,20.12243,16.87827,37.22654,40.5137,43.82928v6.79434h17.02613v-6.79434C522.50043,358.528,505.62216,341.42391,505.62216,321.30148Z" fill="#cf2633"/><path d="M546.13586,365.13077a60.63236,60.63236,0,0,1-28.54984-14.541,44.79393,44.79393,0,0,1-9.8027-13.165,36.46323,36.46323,0,0,1-.00391-32.24843,44.82172,44.82172,0,0,1,9.80328-13.16654,60.58452,60.58452,0,0,1,28.55317-14.5376c-10.05824,3.55556-19.49652,8.85233-26.80358,16.32062a44.8258,44.8258,0,0,0-8.80579,12.66469,35.01344,35.01344,0,0,0-.00394,29.68977,44.8573,44.8573,0,0,0,8.80636,12.66629C526.63608,356.28329,536.07657,361.57912,546.13586,365.13077Z" fill="#ffcb5c"/><path d="M550.61957,286.2176c.66234,6.02852,1.00885,12.057,1.24424,18.08557.14747,3.01424.18026,6.02852.267,9.04276l.0884,9.04277-.08407,9.0428c-.08923,3.01424-.11765,6.02852-.26655,9.04276-.23448,6.02852-.58269,12.057-1.249,18.08557-.66633-6.02853-1.01453-12.05705-1.249-18.08557-.14889-3.01424-.17731-6.02852-.26656-9.04276l-.08406-9.0428.0884-9.04277c.08675-3.01424.11952-6.02852.267-9.04276C549.61072,298.27464,549.95724,292.24612,550.61957,286.2176Z" fill="#ffcb5c"/><path d="M541.485,360.59711a29.03225,29.03225,0,0,1-8.43436-6.76838,39.17391,39.17391,0,0,1-5.90641-9.22285,47.54884,47.54884,0,0,1-3.41921-10.44524,56.09987,56.09987,0,0,1-1.07764-10.94563,50.13929,50.13929,0,0,1,4.80191-21.32714,38.63062,38.63062,0,0,1,6.074-9.11782,28.39413,28.39413,0,0,1,8.59839-6.56053,38.6001,38.6001,0,0,0-12.39068,16.69511,52.29012,52.29012,0,0,0-2.89308,9.98452,53.9712,53.9712,0,0,0-.99136,10.347,56.513,56.513,0,0,0,.848,10.36129,52.689,52.689,0,0,0,2.73895,10.03291A39.46128,39.46128,0,0,0,541.485,360.59711Z" fill="#ffcb5c"/><path d="M560.91452,360.59711A39.46128,39.46128,0,0,0,572.966,343.63032a52.68969,52.68969,0,0,0,2.739-10.03291,56.51214,56.51214,0,0,0,.84795-10.36129,53.96879,53.96879,0,0,0-.99135-10.347,52.29015,52.29015,0,0,0-2.89309-9.98452,38.60014,38.60014,0,0,0-12.39066-16.69511,28.39418,28.39418,0,0,1,8.59837,6.56053,38.63035,38.63035,0,0,1,6.07405,9.11782,50.13943,50.13943,0,0,1,4.80191,21.32714,56.09986,56.09986,0,0,1-1.07763,10.94563,47.54993,47.54993,0,0,1-3.41922,10.44524,39.17363,39.17363,0,0,1-5.90642,9.22285A29.03208,29.03208,0,0,1,560.91452,360.59711Z" fill="#ffcb5c"/><path d="M570.8772,322.58411a59.2041,59.2041,0,0,0-1.6875-10.58216,52.02576,52.02576,0,0,0-3.60083-9.93374,65.87138,65.87138,0,0,0-5.63257-8.73673,63.6884,63.6884,0,0,0-6.88574-7.999l.16357-.27518a21.36327,21.36327,0,0,1,9.20972,6.25946,30.73656,30.73656,0,0,1,5.48852,9.71869,47.39486,47.39486,0,0,1,2.82715,10.65436,53.69367,53.69367,0,0,1,.43775,10.89429Z" fill="#fff"/><rect x="542.00955" y="246.45008" width="17.72011" height="17.72011" transform="translate(341.8775 -314.74502) rotate(45)" fill="#f05b43"/><polygon points="544.461 255.31 553.93 245.841 550.87 242.78 538.34 255.31 550.87 267.84 553.93 264.779 544.461 255.31" fill="#cf2633"/><rect x="549.55176" y="193.12256" width="2.13477" height="49.65771" fill="#ffcb5c"/><path d="M529.10973,277.47221a60.856,60.856,0,0,1,10.97109-2.20857,88.2118,88.2118,0,0,1,11.18729-.61566c1.869.00752,3.73728.11147,5.60279.20939,1.86168.18086,3.72758.28705,5.57513.59042a66.751,66.751,0,0,1,10.93633,2.37029c-3.734-.20776-7.40474-.5578-11.09265-.71228-3.6804-.19659-7.35866-.31268-11.03726-.325-3.67895-.0633-7.359.02762-11.04506.137C536.51964,277.04458,532.83263,277.22625,529.10973,277.47221Z" fill="#ffcb5c"/><path d="M546.13584,276.78423V274.7601c-2.02374.09769-4.044.2581-6.055.50351a60.86035,60.86035,0,0,0-10.97109,2.20857c3.72288-.24593,7.40986-.42763,11.09764-.55437Q543.17392,276.82978,546.13584,276.78423Z" fill="#f29720"/><path d="M529.10973,365.13074c7.45057-.069,14.82008.2399,22.19058.31994,3.68284.07835,7.36337.0933,11.03824.02218a106.39166,106.39166,0,0,0,11.04381-.688A43.47624,43.47624,0,0,1,562.4425,367.135c-1.8581.23407-3.72239.28666-5.58619.40168-1.86288.03852-3.72818.07565-5.58941.04663-3.72389-.07447-7.44058-.28126-11.13781-.6903A92.926,92.926,0,0,1,529.10973,365.13074Z" fill="#ffcb5c"/><path d="M546.13584,365.36341c-5.65237-.11788-11.31536-.28559-17.02609-.23271A92.91666,92.91666,0,0,0,540.1291,366.893c1.9971.221,4.00026.37879,6.00674.49276Z" fill="#f29720"/><circle cx="550.61957" cy="231.90332" r="6.37135" fill="#f05b43"/><path d="M549.18577,231.90332a6.37269,6.37269,0,0,1,3.90252-5.8748,6.37134,6.37134,0,1,0,0,11.7496A6.3726,6.3726,0,0,1,549.18577,231.90332Z" fill="#cf2633"/><path d="M520.91979,201.1376a78.68882,78.68882,0,0,1-14.11553-3.94742,68.47269,68.47269,0,0,0-14.37758-3.60289,45.649,45.649,0,0,0-7.46472-.201c-2.47315.09912-4.93464.28666-7.39013.51312-4.9096.462-9.79485,1.08343-14.67066,1.75655-9.73688,1.34445-19.49314,2.96792-29.10586,5.04525-9.55733,2.03884-19.28958,3.29874-29.00348,4.63692-4.34778.57169-8.69607,1.03584-13.04076,1.324q5.33526-2.51226,10.53846-5.27438a174.29807,174.29807,0,0,0,17.93818-10.83583c2.88886-1.97941,5.63657-4.15673,8.35925-6.27677l8.20491-6.375c2.746-2.10667,5.49851-4.20415,8.34433-6.16016a46.78134,46.78134,0,0,1,4.39-2.733,12.10274,12.10274,0,0,1,4.864-1.62742,12.24387,12.24387,0,0,0-4.99912,1.35457,47.20515,47.20515,0,0,0-4.5841,2.49347c-2.97666,1.79891-5.85763,3.73888-8.72865,5.68536l-8.57276,5.88962c-2.86468,1.97246-5.67379,3.9421-8.61221,5.71134a171.3065,171.3065,0,0,1-18.22647,9.59969c-6.23184,2.86553-12.64769,5.48806-19.04468,7.75558l-.06.02127q-.06327.02264-.12605.04913a2.41874,2.41874,0,0,0-1.13307.98808c-1.52666-.03833-3.053-.09776-4.57793-.2058a104.097,104.097,0,0,1-14.34791-1.88217c-4.73553-.96364-9.44267-2.21025-14.14871-3.53-4.70526-1.32978-9.40838-2.72894-14.1169-4.12663-4.69772-1.40507-9.36705-2.81632-13.98142-4.38225-4.635-1.54244-9.12387-3.259-13.74715-5.0462a66.11717,66.11717,0,0,0-7.27462-2.38646c-.46133-.11833-.92128-.20073-1.38218-.30655L338.53607,153.333l-48.09738,30.54223a97.06649,97.06649,0,0,0-14.94137-1.11747c-5.06892-.02547-9.99961.55487-14.3329-.01852a29.21894,29.21894,0,0,1-6.42726-1.63025,37.05816,37.05816,0,0,1-6.06-2.94682,28.74676,28.74676,0,0,1-5.17645-4.18271c-1.67578-1.64663-3.4211-3.47169-5.26177-5.2153a107.83373,107.83373,0,0,0-11.75377-9.638,135.46327,135.46327,0,0,0-12.763-8.12482,149.20191,149.20191,0,0,0-27.74855-11.92389,142.61719,142.61719,0,0,0-29.68449-5.93858c-3.20844-.31718-6.40359-.5439-9.58837-.74412a64.69915,64.69915,0,0,1,6.08015-4.20372,55.42539,55.42539,0,0,1,7.24341-3.75723,52.82685,52.82685,0,0,1,7.79237-2.67217,53.48084,53.48084,0,0,0-8.19067,1.52109,57.24613,57.24613,0,0,0-7.95246,2.73845,67.14348,67.14348,0,0,0-7.59026,3.77087c-1.23709.71985-2.437,1.45377-3.62449,2.243-4.61986-.25116-9.35067-.42591-14.02455-.43149a254.43233,254.43233,0,0,0-29.97192,1.69464c-.025.00309-.0812.01-.10633.01347a4.87245,4.87245,0,0,0,1.32824,9.654,244.95909,244.95909,0,0,1,28.81672-2.22705c4.84006-.09252,9.60483-.01544,14.50937.16155,4.89271.15786,9.72874.35731,14.52129.73134a134.32371,134.32371,0,0,1,28.12687,5.01713,141.607,141.607,0,0,1,26.55425,10.7632,118.64373,118.64373,0,0,1,23.45514,16.24972c1.76067,1.59869,3.44657,3.29256,5.31073,5.0522a35.26626,35.26626,0,0,0,6.3771,4.91286c.30921.18316.622.34514.93311.51663a154.38905,154.38905,0,0,0,7.97141,18.55634,139.10716,139.10716,0,0,0,11.59522,18.99,93.70162,93.70162,0,0,0,15.03346,16.32234,72.5279,72.5279,0,0,0,9.04009,6.40359,60.9971,60.9971,0,0,0,10.01986,4.60623,60.68767,60.68767,0,0,1-9.69813-5.12337,71.6137,71.6137,0,0,1-8.55484-6.79881,91.88065,91.88065,0,0,1-13.83805-16.79748,136.0719,136.0719,0,0,1-10.29742-19.17124c-2.05641-4.68691-3.92083-9.51634-5.5028-14.36548.18033.068.35843.14122.53953.20776a35.41191,35.41191,0,0,0,7.86457,1.81564,48.83648,48.83648,0,0,0,7.83232.09655c2.49733-.13643,4.88937-.28726,7.28054-.34231a91.40948,91.40948,0,0,1,14.27185.78306c2.37411.31323,4.72155.684,6.98479,1.21565a60.91408,60.91408,0,0,1,6.76416,2.07116c4.5763,1.6618,9.30463,3.35859,14.02618,4.82059,4.72327,1.49477,9.49027,2.82858,14.23438,4.1413,4.73913,1.3008,9.48238,2.60615,14.25976,3.85027,4.78029,1.23434,9.60345,2.40789,14.51811,3.30285.405.07314.814.13033,1.22029.199a2.42734,2.42734,0,0,0,1.18641,1.464l.03618.01929c7.96481,4.26477,15.8425,8.91336,23.3784,13.94069a131.61567,131.61567,0,0,1,10.9034,8.04472c3.41415,2.87146,6.66881,6.13555,9.99773,9.27247,6.64909,6.30533,13.53741,12.52756,21.34839,17.4592a67.48286,67.48286,0,0,0,12.31053,6.22884,53.1775,53.1775,0,0,0,13.39078,3.02193,52.864,52.864,0,0,1-13.16578-3.58787,66.5676,66.5676,0,0,1-11.861-6.67722c-7.47158-5.19531-13.97456-11.61185-20.30586-18.17287-3.19-3.28245-6.25465-6.65364-9.7091-9.83567a134.80916,134.80916,0,0,0-10.8053-8.74126c-5.387-3.94767-10.90066-7.65337-16.54752-11.19443,1.17269.08592,2.34521.15581,3.5155.20185,2.0216.10127,4.04217.1252,6.061.10985a2.41653,2.41653,0,0,0,1.62458-.01209,170.465,170.465,0,0,0,22.00163-2.11447c4.88078-.73537,9.7223-1.553,14.576-2.36956,4.86313-.81839,9.72436-1.79326,14.52078-2.90215,4.09019-.97247,8.19272-1.84419,12.30538-2.66128a2.43026,2.43026,0,0,0,1.05745,2.19412,46.35781,46.35781,0,0,0,6.45547,3.56773c2.15828,1.0288,4.36235,1.90644,6.57277,2.74531a115.89141,115.89141,0,0,0,13.51426,4.0053c4.55169,1.09715,9.16288,1.85611,13.77014,2.509,2.30457.32242,4.62474.52461,6.92982.79163l6.94407.50737-6.86175-1.11078c-2.26924-.46707-4.5462-.868-6.79743-1.38723-4.4999-1.04587-8.96944-2.191-13.32665-3.65545a112.86239,112.86239,0,0,1-12.75762-5.02888c-2.04612-.98979-4.07286-2.01045-6.00923-3.15253a47.86968,47.86968,0,0,1-4.52819-2.9373q5.77822-1.07066,11.59247-2.00617c4.84255-.77088,9.69384-1.48987,14.557-2.04912,2.43148-.27508,4.866-.51089,7.29975-.65889a44.44,44.44,0,0,1,7.2543.04184,67.39773,67.39773,0,0,1,14.22991,3.25912,79.4374,79.4374,0,0,0,14.31087,3.68314,82.51777,82.51777,0,0,0,29.35779-1.049A82.21283,82.21283,0,0,1,520.91979,201.1376Z" fill="#6c353c"/><circle cx="208.88924" cy="249.94589" r="5.99322" fill="#f599ad"/><circle cx="124.79527" cy="345.77791" r="5.99322" fill="#f599ad"/><circle cx="354.61466" cy="360.07708" r="5.99322" fill="#ffd4c9"/><circle cx="498.24621" cy="249.94589" r="5.99322" fill="#f599ad"/><circle cx="276.65997" cy="94.94511" r="5.99322" fill="#ffd4c9"/><circle cx="118.80204" cy="95.58852" r="5.99322" fill="#f599ad"/><circle cx="190.13003" cy="156.25634" r="5.99322" fill="#ffd4c9"/><circle cx="403.43231" cy="144.26989" r="5.99322" fill="#f599ad"/><circle cx="586.95113" cy="235.40027" r="5.99322" fill="#ffd4c9"/><circle cx="580.95791" cy="201.91456" r="5.99322" fill="#f599ad"/><circle cx="391.44586" cy="225.71807" r="5.99322" fill="#f599ad"/><circle cx="431.72673" cy="257.96067" r="5.99322" fill="#f599ad"/><path d="M575.47852,139.68164a7.3982,7.3982,0,1,1,7.39843-7.39844A7.407,7.407,0,0,1,575.47852,139.68164Zm0-11.98682a4.58863,4.58863,0,1,0,4.58789,4.58838A4.59317,4.59317,0,0,0,575.47852,127.69482Z" fill="#ffd4c9"/><path d="M357.57031,114.97314a7.39819,7.39819,0,1,1,7.39844-7.39794A7.40691,7.40691,0,0,1,357.57031,114.97314Zm0-11.98681a4.58862,4.58862,0,1,0,4.58789,4.58887A4.59328,4.59328,0,0,0,357.57031,102.98633Z" fill="#ffd4c9"/><path d="M93.5293,279.48535a7.3982,7.3982,0,1,1,7.39843-7.39844A7.40734,7.40734,0,0,1,93.5293,279.48535Zm0-11.98681a4.58813,4.58813,0,1,0,4.58789,4.58837A4.59316,4.59316,0,0,0,93.5293,267.49854Z" fill="#ffd4c9"/><path d="M184.13672,314.418a7.39844,7.39844,0,1,1,7.39844-7.39844A7.40735,7.40735,0,0,1,184.13672,314.418Zm0-11.98633a4.58789,4.58789,0,1,0,4.58789,4.58789A4.59245,4.59245,0,0,0,184.13672,302.43164Z" fill="#ffd4c9"/><path d="M223.30859,387.93945A7.39893,7.39893,0,1,1,230.707,380.541,7.40733,7.40733,0,0,1,223.30859,387.93945Zm0-11.9873a4.58838,4.58838,0,1,0,4.58789,4.58887A4.59328,4.59328,0,0,0,223.30859,375.95215Z" fill="#ffd4c9"/><path d="M348.62109,439.53516a7.39844,7.39844,0,1,1,7.39844-7.39844A7.40734,7.40734,0,0,1,348.62109,439.53516Zm0-11.98633a4.58789,4.58789,0,1,0,4.58789,4.58789A4.59245,4.59245,0,0,0,348.62109,427.54883Z" fill="#ffd4c9"/><path d="M391.44629,320.41113a7.39844,7.39844,0,1,1,7.39844-7.39843A7.40734,7.40734,0,0,1,391.44629,320.41113Zm0-11.98633a4.5879,4.5879,0,1,0,4.58789,4.5879A4.59245,4.59245,0,0,0,391.44629,308.4248Z" fill="#ffd4c9"/><path d="M522.11816,341.1377a7.39844,7.39844,0,1,1,7.39844-7.39844A7.40734,7.40734,0,0,1,522.11816,341.1377Zm0-11.98633a4.58789,4.58789,0,1,0,4.58789,4.58789A4.59244,4.59244,0,0,0,522.11816,329.15137Z" fill="#ffd4c9"/><circle cx="616.24746" cy="327.74594" r="5.99322" fill="#ffd4c9"/><circle cx="502.55639" cy="385.5101" r="5.99322" fill="#f599ad"/><path d="M220.876,80.47852a7.3982,7.3982,0,1,1,7.39843-7.39844A7.407,7.407,0,0,1,220.876,80.47852Zm0-11.98682a4.58863,4.58863,0,1,0,4.58789,4.58838A4.59317,4.59317,0,0,0,220.876,68.4917Z" fill="#ffd4c9"/><path d="M367.27165,252.08392a5.26248,5.26248,0,0,0-5.26245-5.26253,5.20441,5.20441,0,0,0-2.50143.65942,5.18738,5.18738,0,0,0,.06648-.65942,5.2625,5.2625,0,1,0-10.525,0,5.20841,5.20841,0,0,0,.21078,1.3953,5.20427,5.20427,0,0,0-2.41-.60988,5.2527,5.2527,0,0,0-.82209,10.44221,5.25555,5.25555,0,1,0,8.67658,5.59859,5.26,5.26,0,1,0,7.80064-6.35125A5.24463,5.24463,0,0,0,367.27165,252.08392Zm-12.56715,7.60129a5.25125,5.25125,0,0,0-4.04765-3.19848,5.08656,5.08656,0,0,0,1.24492-5.01268,5.07041,5.07041,0,0,0,4.91137-.04954,5.1874,5.1874,0,0,0-.06648.65941,5.256,5.256,0,0,0,2.33165,4.37A5.24493,5.24493,0,0,0,354.7045,259.68521Z" fill="#f599ad"/><ellipse cx="354.42957" cy="255.05649" rx="4.95476" ry="4.72821" fill="#fff"/><path d="M354.42969,258.87539a3.82188,3.82188,0,1,1,3.9586-3.81944A3.895,3.895,0,0,1,354.42969,258.87539Zm0-5.81182a1.99693,1.99693,0,1,0,2.13155,1.99238A2.06762,2.06762,0,0,0,354.42969,253.06357Z" fill="#ffd4c9"/><path d="M393.21042,190.37257a5.26249,5.26249,0,0,0-2.40836-7.04184,5.20452,5.20452,0,0,0-2.53629-.50912,5.18606,5.18606,0,0,0,.35-.56281,5.2625,5.2625,0,1,0-9.45024-4.63341,5.2085,5.2085,0,0,0-.425,1.34561,5.20423,5.20423,0,0,0-1.89544-1.60856,5.2527,5.2527,0,0,0-5.33511,9.014,5.25555,5.25555,0,1,0,5.32591,8.84657,5.26,5.26,0,1,0,9.80009-2.26863A5.24461,5.24461,0,0,0,393.21042,190.37257Zm-14.63016,1.29266a5.25128,5.25128,0,0,0-2.22627-4.65376,5.08661,5.08661,0,0,0,3.32453-3.95277,5.07033,5.07033,0,0,0,4.43165,2.11765,5.18769,5.18769,0,0,0-.35.56282,5.256,5.256,0,0,0,.16976,4.95019A5.2449,5.2449,0,0,0,378.58026,191.66523Z" fill="#f599ad"/><ellipse cx="380.37109" cy="187.38814" rx="4.72821" ry="4.95476" transform="translate(44.66762 446.42416) rotate(-63.88151)" fill="#fff"/><path d="M378.69,190.81712a3.82188,3.82188,0,1,1,5.2358-1.68672A3.895,3.895,0,0,1,378.69,190.81712Zm2.55853-5.21835a1.99693,1.99693,0,1,0,1.03679,2.72731A2.06762,2.06762,0,0,0,381.24854,185.59877Z" fill="#ffd4c9"/><path d="M422.26762,254.8884a5.26248,5.26248,0,0,0-5.26245-5.26253,5.20441,5.20441,0,0,0-2.50143.65942,5.18737,5.18737,0,0,0,.06647-.65942,5.26249,5.26249,0,1,0-10.525,0,5.20873,5.20873,0,0,0,.21077,1.39529,5.20431,5.20431,0,0,0-2.41-.60987,5.2527,5.2527,0,0,0-.82209,10.44221,5.25555,5.25555,0,1,0,8.67658,5.59859,5.26,5.26,0,1,0,7.80064-6.35125A5.24463,5.24463,0,0,0,422.26762,254.8884Zm-12.56715,7.60129a5.25125,5.25125,0,0,0-4.04765-3.19848,5.08664,5.08664,0,0,0,1.24492-5.01268,5.07041,5.07041,0,0,0,4.91137-.04954,5.1874,5.1874,0,0,0-.06648.65941,5.256,5.256,0,0,0,2.33165,4.37A5.24492,5.24492,0,0,0,409.70047,262.48969Z" fill="#ffd4c9"/><ellipse cx="409.42553" cy="257.86097" rx="4.95476" ry="4.72821" fill="#fff"/><path d="M409.42566,261.67987a3.82188,3.82188,0,1,1,3.9586-3.81944A3.895,3.895,0,0,1,409.42566,261.67987Zm0-5.81183a1.99693,1.99693,0,1,0,2.13155,1.99239A2.06762,2.06762,0,0,0,409.42566,255.868Z" fill="#f599ad"/><path d="M467.53516,269.95043a5.26249,5.26249,0,0,0-.13391-7.44109,5.20439,5.20439,0,0,0-2.25814-1.262,5.18542,5.18542,0,0,0,.50566-.42845,5.26249,5.26249,0,1,0-7.57505-7.30711,5.20827,5.20827,0,0,0-.817,1.15055,5.20426,5.20426,0,0,0-1.31113-2.11213,5.2527,5.2527,0,0,0-7.84133,6.94472,5.25555,5.25555,0,1,0,2.35782,10.05326,5.26,5.26,0,1,0,10.02372.84458A5.24463,5.24463,0,0,0,467.53516,269.95043ZM453.213,266.69631a5.25129,5.25129,0,0,0-.69259-5.11215,5.08657,5.08657,0,0,0,4.37612-2.74343,5.07037,5.07037,0,0,0,3.56921,3.37414,5.18531,5.18531,0,0,0-.50566.42844,5.256,5.256,0,0,0-1.35578,4.76393A5.24492,5.24492,0,0,0,453.213,266.69631Z" fill="#f599ad"/><ellipse cx="456.2287" cy="263.17405" rx="4.72821" ry="4.95476" transform="matrix(0.69426, -0.71972, 0.71972, 0.69426, -49.92618, 408.81898)" fill="#fff"/><path d="M453.57747,265.92267a3.82188,3.82188,0,1,1,5.50078-.00061A3.895,3.895,0,0,1,453.57747,265.92267Zm4.03494-4.18289a1.99693,1.99693,0,1,0,.15088,2.91383A2.06763,2.06763,0,0,0,457.61241,261.73978Z" fill="#ffd4c9"/><path d="M527.64048,201.25971a5.26249,5.26249,0,0,0-7.39029.87821,5.20444,5.20444,0,0,0-1.02964,2.37315,5.18583,5.18583,0,0,0-.47691-.46022,5.26249,5.26249,0,1,0-6.512,8.26855,5.20862,5.20862,0,0,0,1.22657.69771,5.20429,5.20429,0,0,0-1.97026,1.516,5.2527,5.2527,0,0,0,7.69487,7.10665,5.25555,5.25555,0,1,0,9.7667-3.35245,5.26,5.26,0,1,0-.16321-10.05792A5.24463,5.24463,0,0,0,527.64048,201.25971Zm-1.80389,14.576a5.25122,5.25122,0,0,0-5.01712,1.20092,5.08656,5.08656,0,0,0-3.16777-4.07947,5.07036,5.07036,0,0,0,2.99985-3.88909,5.18456,5.18456,0,0,0,.47691.46022,5.256,5.256,0,0,0,4.87573.872A5.24492,5.24492,0,0,0,525.83659,215.83568Z" fill="#ffd4c9"/><ellipse cx="522.03011" cy="213.18779" rx="4.95476" ry="4.72821" transform="translate(31.55679 491.39704) rotate(-51.77727)" fill="#fff"/><path d="M525.03035,215.55052a3.82188,3.82188,0,1,1-.55132-5.47309A3.895,3.895,0,0,1,525.03035,215.55052Zm-4.56583-3.59589a1.99693,1.99693,0,1,0,2.88408-.44184A2.06762,2.06762,0,0,0,520.46452,211.95463Z" fill="#f599ad"/><path d="M563.02364,190.81838a5.26248,5.26248,0,0,0-5.26245-5.26253,5.20443,5.20443,0,0,0-2.50143.65941,5.18558,5.18558,0,0,0,.06648-.65941,5.2625,5.2625,0,1,0-10.525,0,5.20833,5.20833,0,0,0,.21078,1.39529,5.20424,5.20424,0,0,0-2.41-.60988,5.2527,5.2527,0,0,0-.82209,10.44221,5.25555,5.25555,0,1,0,8.67658,5.59859,5.26,5.26,0,1,0,7.80064-6.35125A5.24462,5.24462,0,0,0,563.02364,190.81838Zm-12.56715,7.60128a5.25121,5.25121,0,0,0-4.04765-3.19847,5.08658,5.08658,0,0,0,1.24492-5.01269,5.07034,5.07034,0,0,0,4.91137-.04954,5.18737,5.18737,0,0,0-.06647.65942,5.256,5.256,0,0,0,2.33164,4.37A5.24492,5.24492,0,0,0,550.45649,198.41966Z" fill="#ffd4c9"/><ellipse cx="550.18156" cy="193.79095" rx="4.95476" ry="4.72821" fill="#fff"/><path d="M550.18168,197.60984a3.82188,3.82188,0,1,1,3.9586-3.81943A3.895,3.895,0,0,1,550.18168,197.60984Zm0-5.81182a1.99693,1.99693,0,1,0,2.13156,1.99239A2.06762,2.06762,0,0,0,550.18168,191.798Z" fill="#f599ad"/><path d="M248.993,150.07435a5.26248,5.26248,0,0,0-5.26245-5.26253,5.20443,5.20443,0,0,0-2.50143.65941,5.18558,5.18558,0,0,0,.06648-.65941,5.2625,5.2625,0,1,0-10.525,0,5.20833,5.20833,0,0,0,.21078,1.39529,5.20423,5.20423,0,0,0-2.41-.60988,5.2527,5.2527,0,0,0-.8221,10.44221,5.25555,5.25555,0,1,0,8.67658,5.59859,5.26,5.26,0,1,0,7.80064-6.35125A5.24462,5.24462,0,0,0,248.993,150.07435Zm-12.56715,7.60128a5.25121,5.25121,0,0,0-4.04765-3.19847,5.08658,5.08658,0,0,0,1.24492-5.01269,5.07034,5.07034,0,0,0,4.91137-.04954,5.18737,5.18737,0,0,0-.06647.65942,5.256,5.256,0,0,0,2.33164,4.37A5.24492,5.24492,0,0,0,236.42587,157.67563Z" fill="#ffd4c9"/><ellipse cx="236.15094" cy="153.04692" rx="4.95476" ry="4.72821" fill="#fff"/><path d="M236.15106,156.86581a3.82188,3.82188,0,1,1,3.95861-3.81943A3.895,3.895,0,0,1,236.15106,156.86581Zm0-5.81182a1.99693,1.99693,0,1,0,2.13156,1.99239A2.06762,2.06762,0,0,0,236.15106,151.054Z" fill="#f599ad"/><path d="M190.14253,116.792a6.22708,6.22708,0,0,0-6.227-6.22713,6.15832,6.15832,0,0,0-2.95992.78029,6.13766,6.13766,0,0,0,.07866-.78029,6.22709,6.22709,0,1,0-12.45417,0,6.16314,6.16314,0,0,0,.24942,1.651,6.15813,6.15813,0,0,0-2.85177-.72167,6.2155,6.2155,0,0,0-.97278,12.35622,6.21886,6.21886,0,1,0,10.267,6.62478,6.22408,6.22408,0,1,0,9.23046-7.5154A6.20594,6.20594,0,0,0,190.14253,116.792Zm-14.87065,8.99457a6.21374,6.21374,0,0,0-4.78956-3.78474,6.0189,6.0189,0,0,0,1.4731-5.93149,5.99979,5.99979,0,0,0,5.81161-.05862,6.1355,6.1355,0,0,0-.07866.78028,6.21939,6.21939,0,0,0,2.759,5.171A6.20627,6.20627,0,0,0,175.27188,125.78652Z" fill="#f599ad"/><ellipse cx="174.94655" cy="120.30938" rx="5.86295" ry="5.59487" fill="#fff"/><path d="M174.9467,124.82826a4.52241,4.52241,0,1,1,4.6842-4.51952A4.60894,4.60894,0,0,1,174.9467,124.82826Zm0-6.8771a2.363,2.363,0,1,0,2.52226,2.35758A2.4466,2.4466,0,0,0,174.9467,117.95116Z" fill="#ffd4c9"/><path d="M477.11786,103.98156a4.17087,4.17087,0,0,0-4.17086-4.17091,4.1248,4.1248,0,0,0-1.98255.52263,4.11068,4.11068,0,0,0,.05269-.52263,4.17089,4.17089,0,1,0-8.34178,0,4.12776,4.12776,0,0,0,.16706,1.10586,4.12475,4.12475,0,0,0-1.91011-.48337,4.16313,4.16313,0,0,0-.65157,8.27617,4.16539,4.16539,0,1,0,6.87679,4.43727,4.16887,4.16887,0,1,0,6.18254-5.0338A4.15673,4.15673,0,0,0,477.11786,103.98156Zm-9.96033,6.02454a4.162,4.162,0,0,0-3.208-2.535,4.03145,4.03145,0,0,0,.98668-3.9729,4.01862,4.01862,0,0,0,3.8926-.03926,4.11068,4.11068,0,0,0-.05269.52263,4.16573,4.16573,0,0,0,1.848,3.46351A4.157,4.157,0,0,0,467.15753,110.0061Z" fill="#ffd4c9"/><ellipse cx="466.93962" cy="106.33753" rx="3.92699" ry="3.74743" fill="#fff"/><path d="M466.93972,109.36427a3.02911,3.02911,0,1,1,3.13747-3.02717A3.08706,3.08706,0,0,1,466.93972,109.36427Zm0-4.60627a1.5827,1.5827,0,1,0,1.68941,1.5791A1.63872,1.63872,0,0,0,466.93972,104.758Z" fill="#f599ad"/><path d="M436.81983,200.63857a4.17089,4.17089,0,0,0,2.90224-5.13514,4.125,4.125,0,0,0-1.03426-1.7703,4.10952,4.10952,0,0,0,.51766-.08914,4.17088,4.17088,0,1,0-2.233-8.03735,4.1281,4.1281,0,0,0-1.0208.457,4.1246,4.1246,0,0,0-.04557-1.96979,4.16313,4.16313,0,0,0-8.14856,1.5876,4.16539,4.16539,0,1,0-2.43454,7.81362,4.16887,4.16887,0,1,0,6.50507,4.60945A4.15673,4.15673,0,0,0,436.81983,200.63857Zm-8.47091-7.98418a4.162,4.162,0,0,0,1.58376-3.76955,4.03149,4.03149,0,0,0,4.092-.1128,4.01861,4.01861,0,0,0,1.07981,3.74,4.10948,4.10948,0,0,0-.51766.08913,4.16574,4.16574,0,0,0-2.84243,2.70767A4.157,4.157,0,0,0,428.34892,192.65439Z" fill="#ffd4c9"/><ellipse cx="431.82529" cy="191.46242" rx="3.74743" ry="3.92699" transform="translate(-35.49269 122.57961) rotate(-15.52647)" fill="#fff"/><path d="M428.909,192.27272a3.0291,3.0291,0,1,1,3.75654,2.21265A3.087,3.087,0,0,1,428.909,192.27272Zm4.43817-1.233a1.58271,1.58271,0,1,0-1.06925,2.05045A1.63874,1.63874,0,0,0,433.34721,191.0397Z" fill="#f599ad"/><path d="M488.99226,182.03556a4.17088,4.17088,0,0,0-5.87738.499,4.12481,4.12481,0,0,0-.87873,1.85243,4.11156,4.11156,0,0,0-.36553-.37724,4.17089,4.17089,0,1,0-5.37829,6.37646,4.12783,4.12783,0,0,0,.953.5853,4.12477,4.12477,0,0,0-1.601,1.14844,4.16313,4.16313,0,0,0,5.90622,5.834,4.16539,4.16539,0,1,0,7.8256-2.39573,4.16887,4.16887,0,1,0,.1383-7.97144A4.15673,4.15673,0,0,0,488.99226,182.03556Zm-1.81668,11.498a4.162,4.162,0,0,0-4.00612.8178,4.03149,4.03149,0,0,0-2.40073-3.31572,4.01859,4.01859,0,0,0,2.47971-3.00082,4.109,4.109,0,0,0,.36553.37724,4.16572,4.16572,0,0,0,3.839.82046A4.157,4.157,0,0,0,487.17558,193.53352Z" fill="#ffd4c9"/><ellipse cx="484.23083" cy="191.3348" rx="3.92699" ry="3.74743" transform="translate(25.77059 438.11954) rotate(-49.85368)" fill="#fff"/><path d="M486.54453,193.28619a3.0291,3.0291,0,1,1-.29111-4.35A3.087,3.087,0,0,1,486.54453,193.28619Zm-3.521-2.96985a1.5827,1.5827,0,1,0,2.29629-.27327A1.63872,1.63872,0,0,0,483.0235,190.31634Z" fill="#f599ad"/><path d="M299.356,163.83764a4.17088,4.17088,0,0,0-4.17086-4.17092,4.12491,4.12491,0,0,0-1.98255.52263,4.1105,4.1105,0,0,0,.05269-.52263,4.17089,4.17089,0,1,0-8.34178,0,4.12789,4.12789,0,0,0,.16706,1.10587,4.12475,4.12475,0,0,0-1.91011-.48337,4.16313,4.16313,0,0,0-.65157,8.27617,4.16539,4.16539,0,1,0,6.87679,4.43727,4.16888,4.16888,0,1,0,6.18254-5.03381A4.15672,4.15672,0,0,0,299.356,163.83764Zm-9.96033,6.02454a4.162,4.162,0,0,0-3.208-2.535,4.03145,4.03145,0,0,0,.98668-3.9729,4.01862,4.01862,0,0,0,3.8926-.03926,4.11068,4.11068,0,0,0-.05269.52263,4.16572,4.16572,0,0,0,1.848,3.4635A4.157,4.157,0,0,0,289.39566,169.86218Z" fill="#ffd4c9"/><ellipse cx="289.17775" cy="166.1936" rx="3.92699" ry="3.74743" fill="#fff"/><path d="M289.17785,169.22034a3.0291,3.0291,0,1,1,3.13747-3.02716A3.08706,3.08706,0,0,1,289.17785,169.22034Zm0-4.60627a1.58271,1.58271,0,1,0,1.68941,1.57911A1.63873,1.63873,0,0,0,289.17785,164.61407Z" fill="#f599ad"/><path d="M304.00127,123.63418a3.30571,3.30571,0,0,0-3.30569-3.30574,3.26922,3.26922,0,0,0-1.57131.41422,3.25886,3.25886,0,0,0,.04176-.41422,3.30572,3.30572,0,1,0-6.61143,0,3.27152,3.27152,0,0,0,.1324.87647,3.26909,3.26909,0,0,0-1.51389-.3831,3.29956,3.29956,0,0,0-.51641,6.55943,3.30135,3.30135,0,1,0,5.45032,3.51684,3.30412,3.30412,0,1,0,4.90009-3.98963A3.2945,3.2945,0,0,0,304.00127,123.63418ZM296.107,128.409a3.29864,3.29864,0,0,0-2.54259-2.00917,3.19518,3.19518,0,0,0,.782-3.1488,3.185,3.185,0,0,0,3.08516-.03111,3.257,3.257,0,0,0-.04176.41422,3.30161,3.30161,0,0,0,1.46465,2.74506A3.29466,3.29466,0,0,0,296.107,128.409Z" fill="#f599ad"/><ellipse cx="295.93432" cy="125.50144" rx="3.11241" ry="2.9701" fill="#fff"/><path d="M295.93439,127.90034a2.40078,2.40078,0,1,1,2.48666-2.39924A2.4467,2.4467,0,0,1,295.93439,127.90034Zm0-3.65079a1.2544,1.2544,0,1,0,1.339,1.25155A1.29881,1.29881,0,0,0,295.93439,124.24955Z" fill="#ffd4c9"/><path d="M152.477,106.16988a4.16322,4.16322,0,0,0-5.82076-.88526,4.11725,4.11725,0,0,0-1.28455,1.59316,4.10383,4.10383,0,0,0-.26687-.45132,4.16323,4.16323,0,1,0-6.706,4.93555,4.12084,4.12084,0,0,0,.7886.79016,4.11724,4.11724,0,0,0-1.82153.74157,4.15548,4.15548,0,0,0,4.37294,7.03874,4.15773,4.15773,0,1,0,8.15365-.50163,4.16121,4.16121,0,1,0,1.99182-7.70469A4.14908,4.14908,0,0,0,152.477,106.16988Zm-4.44262,10.73634a4.15431,4.15431,0,0,0-4.07883-.13982,4.02414,4.02414,0,0,0-1.55743-3.77761,4.01123,4.01123,0,0,0,3.106-2.33468,4.1031,4.1031,0,0,0,.26686.45132,4.15807,4.15807,0,0,0,3.53484,1.69092A4.14934,4.14934,0,0,0,148.03434,116.90622Z" fill="#ffd4c9"/><ellipse cx="145.68859" cy="114.08596" rx="3.91978" ry="3.74055" transform="translate(-39.27153 108.56085) rotate(-36.35279)" fill="#fff"/><path d="M147.47949,116.51911a3.02354,3.02354,0,1,1,.73115-4.28988A3.08139,3.08139,0,0,1,147.47949,116.51911Zm-2.72537-3.703a1.57979,1.57979,0,1,0,2.29242.26988A1.63571,1.63571,0,0,0,144.75412,112.81612Z" fill="#f599ad"/><path d="M626.407,195.90109a4.16322,4.16322,0,0,0-4.1632-4.16325,4.11723,4.11723,0,0,0-1.97891.52167,4.10326,4.10326,0,0,0,.05259-.52167,4.16322,4.16322,0,1,0-8.32644,0,4.1206,4.1206,0,0,0,.16674,1.10383,4.11714,4.11714,0,0,0-1.9066-.48248,4.15548,4.15548,0,0,0-.65036,8.261,4.15773,4.15773,0,1,0,6.86415,4.42912,4.16121,4.16121,0,1,0,6.17118-5.02456A4.14909,4.14909,0,0,0,626.407,195.90109Zm-9.942,6.01347a4.15433,4.15433,0,0,0-3.20215-2.53035,4.02406,4.02406,0,0,0,.98487-3.9656,4.01125,4.01125,0,0,0,3.88545-.03919,4.10307,4.10307,0,0,0-.05259.52167,4.15809,4.15809,0,0,0,1.84459,3.45714A4.1493,4.1493,0,0,0,616.465,201.91456Z" fill="#f599ad"/><ellipse cx="616.24746" cy="198.25273" rx="3.91978" ry="3.74055" fill="#fff"/><path d="M616.24756,201.2739a3.02354,3.02354,0,1,1,3.1317-3.0216A3.08138,3.08138,0,0,1,616.24756,201.2739Zm0-4.5978a1.57979,1.57979,0,1,0,1.6863,1.5762A1.63571,1.63571,0,0,0,616.24756,196.6761Z" fill="#ffd4c9"/><path d="M280.30186,224.48477a4.16321,4.16321,0,0,0-4.16319-4.16325,4.11717,4.11717,0,0,0-1.97891.52167,4.10307,4.10307,0,0,0,.05259-.52167,4.16323,4.16323,0,1,0-8.32645,0,4.1206,4.1206,0,0,0,.16675,1.10383,4.11717,4.11717,0,0,0-1.9066-.48248,4.15548,4.15548,0,0,0-.65037,8.261,4.15773,4.15773,0,1,0,6.86415,4.42912,4.16121,4.16121,0,1,0,6.17118-5.02456A4.14908,4.14908,0,0,0,280.30186,224.48477Zm-9.942,6.01347a4.1543,4.1543,0,0,0-3.20215-2.53035,4.02413,4.02413,0,0,0,.98488-3.9656,4.01123,4.01123,0,0,0,3.88544-.03919,4.10307,4.10307,0,0,0-.05259.52167,4.15808,4.15808,0,0,0,1.84459,3.45714A4.14932,4.14932,0,0,0,270.35983,230.49824Z" fill="#ffd4c9"/><ellipse cx="270.14233" cy="226.83641" rx="3.91978" ry="3.74055" fill="#fff"/><path d="M270.14242,229.85758a3.02354,3.02354,0,1,1,3.13171-3.0216A3.08138,3.08138,0,0,1,270.14242,229.85758Zm0-4.5978a1.57979,1.57979,0,1,0,1.68631,1.5762A1.63572,1.63572,0,0,0,270.14242,225.25978Z" fill="#f599ad"/><path d="M315.4816,249.52013a4.16321,4.16321,0,0,0-1.53682-5.68358,4.11726,4.11726,0,0,0-1.97584-.53315,4.10439,4.10439,0,0,0,.3054-.42619,4.16322,4.16322,0,1,0-7.22042-4.14671,4.12019,4.12019,0,0,0-.40513,1.04026,4.11706,4.11706,0,0,0-1.41306-1.36791,4.15547,4.15547,0,0,0-4.67807,6.83974,4.15773,4.15773,0,1,0,3.74659,7.25925,4.16121,4.16121,0,1,0,7.85376-1.28378A4.14909,4.14909,0,0,0,315.4816,249.52013Zm-11.61621.26339a4.15432,4.15432,0,0,0-1.51665-3.789,4.02405,4.02405,0,0,0,2.829-2.94836,4.01127,4.01127,0,0,0,3.38885,1.901,4.10326,4.10326,0,0,0-.30541.42618A4.15811,4.15811,0,0,0,308.139,249.29,4.1493,4.1493,0,0,0,303.86539,249.78352Z" fill="#f599ad"/><ellipse cx="305.50043" cy="246.49978" rx="3.74055" ry="3.91978" transform="translate(-60.40045 388.65884) rotate(-60.13113)" fill="#fff"/><path d="M303.99592,249.11969a3.02354,3.02354,0,1,1,4.22051-1.0606A3.08139,3.08139,0,0,1,303.99592,249.11969Zm2.28978-3.98707a1.5798,1.5798,0,1,0,.67733,2.20664A1.63571,1.63571,0,0,0,306.2857,245.13262Z" fill="#ffd4c9"/><path d="M377.74578,330.33351a4.16322,4.16322,0,0,0-1.53681-5.68358,4.11723,4.11723,0,0,0-1.97585-.53316,4.10433,4.10433,0,0,0,.30541-.42618,4.16323,4.16323,0,1,0-7.22043-4.14671,4.1205,4.1205,0,0,0-.40513,1.04025,4.11715,4.11715,0,0,0-1.41306-1.36791,4.15547,4.15547,0,0,0-4.67807,6.83974,4.15773,4.15773,0,1,0,3.7466,7.25925,4.16121,4.16121,0,1,0,7.85375-1.28378A4.14909,4.14909,0,0,0,377.74578,330.33351Zm-11.61621.26339a4.15433,4.15433,0,0,0-1.51664-3.789,4.02408,4.02408,0,0,0,2.829-2.94835,4.01123,4.01123,0,0,0,3.38886,1.901,4.10191,4.10191,0,0,0-.30541.42619,4.15806,4.15806,0,0,0-.12214,3.91655A4.14931,4.14931,0,0,0,366.12957,330.5969Z" fill="#f599ad"/><ellipse cx="367.76461" cy="327.31315" rx="3.74055" ry="3.91978" transform="translate(-99.22359 483.21929) rotate(-60.13113)" fill="#fff"/><path d="M366.2601,329.93306a3.02354,3.02354,0,1,1,4.22052-1.06059A3.08137,3.08137,0,0,1,366.2601,329.93306Zm2.28978-3.98706a1.5798,1.5798,0,1,0,.67733,2.20663A1.63572,1.63572,0,0,0,368.54988,325.946Z" fill="#ffd4c9"/><path d="M221.1711,326.85171a4.16321,4.16321,0,0,0-1.53682-5.68358,4.11726,4.11726,0,0,0-1.97584-.53315,4.1029,4.1029,0,0,0,.3054-.42619,4.16322,4.16322,0,1,0-7.22042-4.14671,4.12065,4.12065,0,0,0-.40513,1.04025,4.11724,4.11724,0,0,0-1.41306-1.36791,4.15548,4.15548,0,0,0-4.67807,6.83975,4.15773,4.15773,0,1,0,3.74659,7.25924,4.16121,4.16121,0,1,0,7.85376-1.28377A4.14909,4.14909,0,0,0,221.1711,326.85171Zm-11.61621.26339a4.15434,4.15434,0,0,0-1.51664-3.789,4.0241,4.0241,0,0,0,2.829-2.94836,4.01123,4.01123,0,0,0,3.38885,1.901,4.10447,4.10447,0,0,0-.30541.42619,4.15809,4.15809,0,0,0-.12214,3.91655A4.14931,4.14931,0,0,0,209.55489,327.1151Z" fill="#f599ad"/><ellipse cx="211.18993" cy="323.83135" rx="3.74055" ry="3.91978" transform="translate(-174.80219 345.69501) rotate(-60.13113)" fill="#fff"/><path d="M209.68542,326.45127a3.02354,3.02354,0,1,1,4.22052-1.0606A3.08139,3.08139,0,0,1,209.68542,326.45127Zm2.28978-3.98707a1.5798,1.5798,0,1,0,.67733,2.20664A1.63571,1.63571,0,0,0,211.9752,322.4642Z" fill="#ffd4c9"/><path d="M484.53548,400.57161a4.16321,4.16321,0,0,0-1.53682-5.68358,4.11716,4.11716,0,0,0-1.97584-.53316,4.10318,4.10318,0,0,0,.3054-.42618,4.16322,4.16322,0,1,0-7.22042-4.14671,4.1205,4.1205,0,0,0-.40513,1.04025,4.11715,4.11715,0,0,0-1.41306-1.36791,4.15547,4.15547,0,0,0-4.67807,6.83974,4.15773,4.15773,0,1,0,3.74659,7.25925,4.16121,4.16121,0,1,0,7.85376-1.28378A4.14909,4.14909,0,0,0,484.53548,400.57161Zm-11.61621.26339a4.15435,4.15435,0,0,0-1.51664-3.789,4.02408,4.02408,0,0,0,2.829-2.94835,4.01123,4.01123,0,0,0,3.38885,1.901,4.1034,4.1034,0,0,0-.30541.42619,4.15809,4.15809,0,0,0-.12214,3.91655A4.14928,4.14928,0,0,0,472.91927,400.835Z" fill="#f599ad"/><ellipse cx="474.55431" cy="397.55125" rx="3.74055" ry="3.91978" transform="translate(-106.52514 611.0822) rotate(-60.13113)" fill="#fff"/><path d="M473.0498,400.17117a3.02354,3.02354,0,1,1,4.22051-1.0606A3.08139,3.08139,0,0,1,473.0498,400.17117Zm2.28978-3.98707a1.5798,1.5798,0,1,0,.67733,2.20663A1.63571,1.63571,0,0,0,475.33958,396.1841Z" fill="#ffd4c9"/><path d="M320.36678,205.64077a7.50309,7.50309,0,0,0-7.50305-7.50317,7.42027,7.42027,0,0,0-3.56647.94018,7.39581,7.39581,0,0,0,.09478-.94018,7.50312,7.50312,0,1,0-15.00623,0,7.42613,7.42613,0,0,0,.30052,1.98937,7.42015,7.42015,0,0,0-3.43615-.86954,7.48915,7.48915,0,0,0-1.17211,14.88821,7.49321,7.49321,0,1,0,12.37082,7.98231,7.49949,7.49949,0,1,0,11.12193-9.05543A7.47765,7.47765,0,0,0,320.36678,205.64077Zm-17.91789,10.8377a7.48705,7.48705,0,0,0-5.771-4.56029,7.25232,7.25232,0,0,0,1.775-7.147,7.22922,7.22922,0,0,0,7.00249-.07063,7.39547,7.39547,0,0,0-.09478.94017,7.49383,7.49383,0,0,0,3.32439,6.23058A7.47807,7.47807,0,0,0,302.44889,216.47847Z" fill="#ffd4c9"/><ellipse cx="302.0569" cy="209.87898" rx="7.06436" ry="6.74135" fill="#fff"/><path d="M302.05707,215.32385a5.44913,5.44913,0,1,1,5.64407-5.44564A5.55338,5.55338,0,0,1,302.05707,215.32385Zm0-8.28633a2.84717,2.84717,0,1,0,3.03912,2.84069A2.94794,2.94794,0,0,0,302.05707,207.03752Z" fill="#f599ad"/><path d="M264.934,224.74191a7.5031,7.5031,0,0,0-.8526-10.5767,7.42031,7.42031,0,0,0-3.32561-1.595,7.39444,7.39444,0,0,0,.68142-.65466,7.50311,7.50311,0,1,0-11.42937-9.724,7.42591,7.42591,0,0,0-1.06022,1.70992,7.42008,7.42008,0,0,0-2.05365-2.88889,7.48915,7.48915,0,0,0-10.54026,10.58,7.49321,7.49321,0,1,0,4.24961,14.09593,7.49949,7.49949,0,1,0,14.33883.31A7.47764,7.47764,0,0,0,264.934,224.74191Zm-20.66983-3.35631a7.48707,7.48707,0,0,0-1.44039-7.21293,7.25234,7.25234,0,0,0,5.9831-4.29323,7.22925,7.22925,0,0,0,5.37916,4.48381,7.39554,7.39554,0,0,0-.68142.65465,7.49387,7.49387,0,0,0-1.50541,6.89967A7.47807,7.47807,0,0,0,244.26421,221.3856Z" fill="#f599ad"/><ellipse cx="248.24211" cy="216.10514" rx="6.74135" ry="7.06436" transform="translate(-77.21303 265.14108) rotate(-49.60917)" fill="#fff"/><path d="M244.714,220.2523a5.44913,5.44913,0,1,1,7.82752-.49029A5.55339,5.55339,0,0,1,244.714,220.2523Zm5.36953-6.31123a2.84717,2.84717,0,1,0,.474,4.13293A2.948,2.948,0,0,0,250.08351,213.94107Z" fill="#ffd4c9"/><path d="M219.45357,171.29682a7.5031,7.5031,0,0,0-10.18343,2.98182,7.42033,7.42033,0,0,0-.88672,3.58013,7.39472,7.39472,0,0,0-.77935-.53434,7.50311,7.50311,0,1,0-7.20151,13.1653,7.42619,7.42619,0,0,0,1.88954.691,7.42,7.42,0,0,0-2.41188,2.59731,7.48915,7.48915,0,0,0,12.49926,8.1732,7.49322,7.49322,0,1,0,12.93984-7.02248,7.49949,7.49949,0,1,0-2.60711-14.10323A7.47764,7.47764,0,0,0,219.45357,171.29682Zm.90933,20.9208a7.48705,7.48705,0,0,0-6.77037,2.87456,7.25234,7.25234,0,0,0-5.41837-4.98706,7.22924,7.22924,0,0,0,3.29855-6.17734,7.39631,7.39631,0,0,0,.77935.53435,7.49385,7.49385,0,0,0,7.06161.0735A7.478,7.478,0,0,0,220.3629,192.21762Z" fill="#f599ad"/><ellipse cx="214.3849" cy="189.39442" rx="7.06436" ry="6.74135" transform="translate(-54.6587 286.5884) rotate(-61.32103)" fill="#fff"/><path d="M219.16189,192.00727a5.44913,5.44913,0,1,1-2.069-7.565A5.55337,5.55337,0,0,1,219.16189,192.00727Zm-7.26978-3.97663a2.84717,2.84717,0,1,0,3.95067-1.303A2.948,2.948,0,0,0,211.89211,188.03064Z" fill="#ffd4c9"/><path d="M361.19153,150.867a9.64407,9.64407,0,0,0-9.644-9.64416,9.53759,9.53759,0,0,0-4.58414,1.20845,9.50513,9.50513,0,0,0,.12183-1.20845,9.6441,9.6441,0,1,0-19.28819,0,9.54525,9.54525,0,0,0,.38627,2.557,9.53744,9.53744,0,0,0-4.41663-1.11766,9.62615,9.62615,0,0,0-1.50657,19.13649,9.63137,9.63137,0,1,0,15.90078,10.26,9.63943,9.63943,0,1,0,14.29551-11.63936A9.61135,9.61135,0,0,0,361.19153,150.867Zm-23.03067,13.93019a9.62349,9.62349,0,0,0-7.41777-5.86156,9.32174,9.32174,0,0,0,2.28146-9.18629,9.292,9.292,0,0,0,9.00062-.09079,9.50512,9.50512,0,0,0-.12182,1.20845,9.63216,9.63216,0,0,0,4.273,8.00845A9.61188,9.61188,0,0,0,338.16086,164.79721Z" fill="#f599ad"/><ellipse cx="337.65701" cy="156.31458" rx="9.08014" ry="8.66496" fill="#fff"/><path d="M337.65723,163.31312a7.004,7.004,0,1,1,7.25458-6.99953A7.138,7.138,0,0,1,337.65723,163.31312Zm0-10.6508a3.65959,3.65959,0,1,0,3.90631,3.65127A3.78914,3.78914,0,0,0,337.65723,152.66232Z" fill="#ffd4c9"/><path d="M474.246,143.15154a9.64408,9.64408,0,0,0-13.28027-3.10671,9.53784,9.53784,0,0,0-3.2572,3.44461,9.50385,9.50385,0,0,0-.5339-1.09093,9.64409,9.64409,0,1,0-16.38689,10.17368,9.545,9.545,0,0,0,1.67689,1.96866,9.53737,9.53737,0,0,0-4.34181,1.38,9.62615,9.62615,0,0,0,8.81371,17.05267,9.63137,9.63137,0,1,0,18.92073.32977,9.63943,9.63943,0,1,0,6.006-17.42885A9.61136,9.61136,0,0,0,474.246,143.15154Zm-12.21888,23.98251a9.62347,9.62347,0,0,0-9.39372-1.06732,9.32178,9.32178,0,0,0-2.90709-9.00788,9.292,9.292,0,0,0,7.59889-4.82457,9.50318,9.50318,0,0,0,.5339,1.09094,9.63217,9.63217,0,0,0,7.85436,4.55A9.61186,9.61186,0,0,0,462.02708,167.13405Z" fill="#f599ad"/><ellipse cx="457.1248" cy="160.19312" rx="9.08014" ry="8.66496" transform="translate(-15.73512 265.20938) rotate(-31.83376)" fill="#fff"/><path d="M460.81642,166.13884a7.004,7.004,0,1,1,2.4714-9.77315A7.138,7.138,0,0,1,460.81642,166.13884Zm-5.61784-9.04873a3.65959,3.65959,0,1,0,5.24462,1.04165A3.78914,3.78914,0,0,0,455.19858,157.09011Z" fill="#ffd4c9"/><path d="M456.33929,224.0132a3.30571,3.30571,0,0,0-3.30569-3.30574,3.26923,3.26923,0,0,0-1.57131.41423,3.2572,3.2572,0,0,0,.04176-.41423,3.30572,3.30572,0,1,0-6.61143,0,3.27205,3.27205,0,0,0,.1324.87648,3.26906,3.26906,0,0,0-1.51389-.3831,3.29956,3.29956,0,0,0-.51641,6.55943,3.30136,3.30136,0,1,0,5.45033,3.51684,3.30412,3.30412,0,1,0,4.90008-3.98964A3.29448,3.29448,0,0,0,456.33929,224.0132Zm-7.89424,4.77487a3.29864,3.29864,0,0,0-2.5426-2.00917,3.19525,3.19525,0,0,0,.782-3.1488,3.185,3.185,0,0,0,3.08515-.03112,3.25723,3.25723,0,0,0-.04176.41422,3.30164,3.30164,0,0,0,1.46466,2.74507A3.29466,3.29466,0,0,0,448.44505,228.78807Z" fill="#f599ad"/><ellipse cx="448.27234" cy="225.88047" rx="3.11241" ry="2.9701" fill="#fff"/><path d="M448.27242,228.27937a2.40078,2.40078,0,1,1,2.48666-2.39924A2.44671,2.44671,0,0,1,448.27242,228.27937Zm0-3.65079a1.2544,1.2544,0,1,0,1.339,1.25155A1.2988,1.2988,0,0,0,448.27242,224.62858Z" fill="#ffd4c9"/><path d="M495.4899,167.86355a3.3057,3.3057,0,0,0-3.30569-3.30574,3.26922,3.26922,0,0,0-1.57131.41422,3.25723,3.25723,0,0,0,.04176-.41422,3.30572,3.30572,0,1,0-6.61143,0,3.27192,3.27192,0,0,0,.1324.87647,3.26909,3.26909,0,0,0-1.51389-.3831,3.29956,3.29956,0,0,0-.51641,6.55943,3.30135,3.30135,0,1,0,5.45032,3.51684,3.30412,3.30412,0,1,0,4.90009-3.98963A3.2945,3.2945,0,0,0,495.4899,167.86355Zm-7.89425,4.77486a3.29861,3.29861,0,0,0-2.54259-2.00917,3.19525,3.19525,0,0,0,.782-3.1488,3.185,3.185,0,0,0,3.08515-.03112,3.2572,3.2572,0,0,0-.04176.41423,3.30162,3.30162,0,0,0,1.46466,2.74506A3.29469,3.29469,0,0,0,487.59565,172.63841Z" fill="#ffd4c9"/><ellipse cx="487.42295" cy="169.73081" rx="3.11241" ry="2.9701" fill="#fff"/><path d="M487.423,172.12971a2.40078,2.40078,0,1,1,2.48665-2.39924A2.44671,2.44671,0,0,1,487.423,172.12971Zm0-3.65079a1.2544,1.2544,0,1,0,1.339,1.25155A1.2988,1.2988,0,0,0,487.423,168.47892Z" fill="#f599ad"/><path d="M601.93705,394.59025a3.30571,3.30571,0,0,0-3.30569-3.30574.81661.81661,0,1,1-1.52955,0,3.30572,3.30572,0,1,0-6.61143,0,.79559.79559,0,1,1-1.38149.49337,3.29957,3.29957,0,0,0-.51641,6.55944,3.30135,3.30135,0,1,0,5.45033,3.51684,3.30412,3.30412,0,1,0,4.90009-3.98964A3.29448,3.29448,0,0,0,601.93705,394.59025Zm-7.89424,4.77486a3.29868,3.29868,0,0,0-2.5426-2.00917,1.79725,1.79725,0,1,1,2.29591-2.76569.81659.81659,0,1,1,1.5295,0,3.30162,3.30162,0,0,0,1.46466,2.74506A3.29466,3.29466,0,0,0,594.04281,399.36511Z" fill="#ffd4c9"/><ellipse cx="593.8701" cy="396.45751" rx="3.11241" ry="2.9701" fill="#fff"/><path d="M593.87018,398.85641a2.40077,2.40077,0,1,1,2.48666-2.39923A2.44671,2.44671,0,0,1,593.87018,398.85641Zm0-3.65078a1.2544,1.2544,0,1,0,1.339,1.25155A1.2988,1.2988,0,0,0,593.87018,395.20563Z" fill="#f599ad"/><path d="M493.0154,345.27549a3.30571,3.30571,0,0,0-3.30569-3.30574.81661.81661,0,1,1-1.52956,0,3.30572,3.30572,0,1,0-6.61143,0,3.27165,3.27165,0,0,0,.13241.87647,3.2691,3.2691,0,0,0-1.5139-.3831,3.29956,3.29956,0,0,0-.5164,6.55943,3.30135,3.30135,0,1,0,5.45032,3.51684,3.30412,3.30412,0,1,0,4.90009-3.98963A3.2945,3.2945,0,0,0,493.0154,345.27549Zm-7.89425,4.77486a3.29864,3.29864,0,0,0-2.54259-2.00917,3.19527,3.19527,0,0,0,.782-3.1488,1.54313,1.54313,0,1,1,3.0434.38311,3.30162,3.30162,0,0,0,1.46465,2.74506A3.29466,3.29466,0,0,0,485.12115,350.05035Z" fill="#ffd4c9"/><ellipse cx="484.94845" cy="347.14275" rx="3.11241" ry="2.9701" fill="#fff"/><path d="M484.94852,349.54165a2.40078,2.40078,0,1,1,2.48666-2.39924A2.44671,2.44671,0,0,1,484.94852,349.54165Zm0-3.65079a1.2544,1.2544,0,1,0,1.339,1.25155A1.2988,1.2988,0,0,0,484.94852,345.89086Z" fill="#f599ad"/><path d="M256.24943,284.09289a3.3057,3.3057,0,0,0-3.30569-3.30574,3.26922,3.26922,0,0,0-1.57131.41422,3.257,3.257,0,0,0,.04176-.41422,3.30572,3.30572,0,1,0-6.61143,0,3.27153,3.27153,0,0,0,.13241.87647,3.26925,3.26925,0,0,0-1.5139-.3831,3.29956,3.29956,0,0,0-.51641,6.55943,3.30136,3.30136,0,1,0,5.45033,3.51684,3.30412,3.30412,0,1,0,4.90009-3.98963A3.29448,3.29448,0,0,0,256.24943,284.09289Zm-7.89424,4.77486a3.29864,3.29864,0,0,0-2.5426-2.00917,3.19523,3.19523,0,0,0,.782-3.14879,3.185,3.185,0,0,0,3.08515-.03112,3.25886,3.25886,0,0,0-.04176.41422,3.30162,3.30162,0,0,0,1.46466,2.74506A3.29466,3.29466,0,0,0,248.35519,288.86775Z" fill="#ffd4c9"/><ellipse cx="248.18248" cy="285.96015" rx="3.11241" ry="2.9701" fill="#fff"/><path d="M248.18256,288.35905a2.40077,2.40077,0,1,1,2.48666-2.39924A2.44671,2.44671,0,0,1,248.18256,288.35905Zm0-3.65078a1.2544,1.2544,0,1,0,1.339,1.25154A1.2988,1.2988,0,0,0,248.18256,284.70827Z" fill="#f599ad"/><path d="M116.63082,186.00517a3.30572,3.30572,0,0,0-3.30569-3.30574,3.26922,3.26922,0,0,0-1.57131.41422,3.25886,3.25886,0,0,0,.04176-.41422,3.30572,3.30572,0,1,0-6.61143,0,3.27205,3.27205,0,0,0,.1324.87648,3.2691,3.2691,0,0,0-1.51389-.38311,3.29957,3.29957,0,0,0-.51641,6.55944,3.30135,3.30135,0,1,0,5.45032,3.51684,3.30412,3.30412,0,1,0,4.90009-3.98964A3.29449,3.29449,0,0,0,116.63082,186.00517ZM108.73657,190.78a3.29867,3.29867,0,0,0-2.54259-2.00917,3.19517,3.19517,0,0,0,.782-3.14879,3.18506,3.18506,0,0,0,3.08516-.03112,3.257,3.257,0,0,0-.04176.41422,3.30161,3.30161,0,0,0,1.46465,2.74506A3.29469,3.29469,0,0,0,108.73657,190.78Z" fill="#ffd4c9"/><ellipse cx="108.56387" cy="187.87243" rx="3.11241" ry="2.9701" fill="#fff"/><path d="M108.56394,190.27133a2.40077,2.40077,0,1,1,2.48666-2.39923A2.4467,2.4467,0,0,1,108.56394,190.27133Zm0-3.65078a1.2544,1.2544,0,1,0,1.339,1.25155A1.29881,1.29881,0,0,0,108.56394,186.62055Z" fill="#f599ad"/><path d="M411.49926,97.0468a3.30571,3.30571,0,0,0-3.30569-3.30574,3.26923,3.26923,0,0,0-1.57131.41423,3.2572,3.2572,0,0,0,.04176-.41423,3.30572,3.30572,0,1,0-6.61143,0,3.27205,3.27205,0,0,0,.1324.87648,3.26909,3.26909,0,0,0-1.51389-.3831,3.29956,3.29956,0,0,0-.51641,6.55943,3.30135,3.30135,0,1,0,5.45032,3.51684,3.30412,3.30412,0,1,0,4.90009-3.98964A3.29449,3.29449,0,0,0,411.49926,97.0468Zm-7.89425,4.77487a3.29861,3.29861,0,0,0-2.54259-2.00917,3.19525,3.19525,0,0,0,.782-3.1488,3.185,3.185,0,0,0,3.08515-.03112,3.25723,3.25723,0,0,0-.04176.41422,3.30164,3.30164,0,0,0,1.46466,2.74507A3.29469,3.29469,0,0,0,403.605,101.82167Z" fill="#ffd4c9"/><ellipse cx="403.43231" cy="98.91407" rx="3.11241" ry="2.9701" fill="#fff"/><path d="M403.43239,101.313a2.40078,2.40078,0,1,1,2.48665-2.39924A2.44671,2.44671,0,0,1,403.43239,101.313Zm0-3.65079a1.2544,1.2544,0,1,0,1.339,1.25155A1.2988,1.2988,0,0,0,403.43239,97.66218Z" fill="#f599ad"/><rect x="125.1251" y="296.53942" width="8.56835" height="42.20706" fill="#f05b43"/><rect x="125.12505" y="296.53941" width="4.47419" height="42.20707" fill="#cf2633"/><rect x="120.11025" y="278.43258" width="18.978" height="18.978" transform="translate(241.55004 -7.31023) rotate(45)" fill="#f05b43"/><polygon points="123.328 287.922 133.173 278.076 129.599 274.502 116.18 287.922 129.599 301.341 133.173 297.767 123.328 287.922" fill="#cf2633"/><path d="M176.53522,236.853c0-15.01926-12.37036-27.83446-29.83063-33.039v-7.58129H113.066v7.31852c-17.95839,5.0168-30.78263,18.01278-30.78263,33.30176,0,15.28915,12.82424,28.285,30.78263,33.30177v5.1624h33.63863V269.892C164.16486,264.6875,176.53522,251.87246,176.53522,236.853Z" fill="#f05b43"/><path d="M135.42505,203.81405A45.41051,45.41051,0,0,1,156.528,214.95019a33.75287,33.75287,0,0,1,7.19534,9.88264,27.68255,27.68255,0,0,1,.003,24.0418,33.77408,33.77408,0,0,1-7.19574,9.88382A45.374,45.374,0,0,1,135.42505,269.892a52.40871,52.40871,0,0,0,19.7586-12.47085,33.83314,33.83314,0,0,0,6.44724-9.50227,26.63558,26.63558,0,0,0,.003-22.13306,33.8571,33.8571,0,0,0-6.44767-9.50349A52.35687,52.35687,0,0,0,135.42505,203.81405Z" fill="#ffcb5c"/><path d="M95.21994,236.853c0-15.289,12.82422-28.28494,30.78258-33.30175v-7.31853H113.066v7.31853C95.1076,208.56809,82.28337,221.564,82.28337,236.853c0,15.28915,12.82423,28.285,30.78258,33.30177v5.16239h12.93657V270.1548C108.04416,265.138,95.21994,252.14218,95.21994,236.853Z" fill="#cf2633"/><path d="M126.00252,270.15481a46.06886,46.06886,0,0,1-21.69236-11.04833A34.03459,34.03459,0,0,1,96.862,249.10364a27.70511,27.70511,0,0,1-.003-24.50258,34.05613,34.05613,0,0,1,7.4486-10.004,46.03256,46.03256,0,0,1,21.69489-11.04576c-7.64232,2.70154-14.81359,6.72606-20.36554,12.40051a34.05914,34.05914,0,0,0-6.6907,9.62272,26.6034,26.6034,0,0,0-.003,22.55848,34.08284,34.08284,0,0,0,6.69113,9.62393C111.18646,263.43244,118.3594,267.45624,126.00252,270.15481Z" fill="#ffcb5c"/><path d="M129.40927,210.19606c.50325,4.58051.76654,9.161.94539,13.74153.112,2.29025.137,4.58051.20286,6.87076l.06717,6.87075-.06388,6.87078c-.0678,2.29024-.08939,4.58051-.20252,6.87075-.17817,4.58051-.44274,9.161-.949,13.74154-.50628-4.58052-.77085-9.161-.949-13.74154-.11313-2.29024-.13473-4.58051-.20253-6.87075l-.06387-6.87078.06716-6.87075c.06591-2.29025.09082-4.58051.20287-6.87076C128.64274,219.35708,128.906,214.77657,129.40927,210.19606Z" fill="#ffcb5c"/><path d="M122.46879,266.71011a22.05889,22.05889,0,0,1-6.40847-5.14266,29.76469,29.76469,0,0,1-4.48774-7.00758,36.12791,36.12791,0,0,1-2.59793-7.93637,42.62414,42.62414,0,0,1-.8188-8.31656,38.09614,38.09614,0,0,1,3.64852-16.2045,29.3515,29.3515,0,0,1,4.6151-6.92778,21.574,21.574,0,0,1,6.53311-4.98473,29.32851,29.32851,0,0,0-9.41452,12.685,39.73,39.73,0,0,0-2.19818,7.5863,41.00618,41.00618,0,0,0-.75324,7.8617,42.93931,42.93931,0,0,0,.64428,7.87257,40.03237,40.03237,0,0,0,2.08108,7.62308A29.98292,29.98292,0,0,0,122.46879,266.71011Z" fill="#ffcb5c"/><path d="M137.23144,266.71011a29.98286,29.98286,0,0,0,9.1568-12.89148,40.03308,40.03308,0,0,0,2.08107-7.62308,42.93756,42.93756,0,0,0,.64429-7.87257,41.00618,41.00618,0,0,0-.75324-7.8617,39.73,39.73,0,0,0-2.19819-7.5863,29.32841,29.32841,0,0,0-9.41451-12.685,21.574,21.574,0,0,1,6.53311,4.98473,29.3515,29.3515,0,0,1,4.6151,6.92778,38.09614,38.09614,0,0,1,3.64852,16.2045,42.62413,42.62413,0,0,1-.81879,8.31656,36.12846,36.12846,0,0,1-2.59794,7.93637,29.76469,29.76469,0,0,1-4.48774,7.00758A22.0588,22.0588,0,0,1,137.23144,266.71011Z" fill="#ffcb5c"/><path d="M144.80127,237.82759a44.99051,44.99051,0,0,0-1.28223-8.0404,36.80541,36.80541,0,0,0-2.73608-7.54775,50.06821,50.06821,0,0,0-4.27954-6.63821,48.39283,48.39283,0,0,0-5.23194-6.07769l.12427-.20907a16.23191,16.23191,0,0,1,6.9978,4.756,23.35088,23.35088,0,0,1,4.17017,7.38429,38.40112,38.40112,0,0,1,2.14819,8.09526,40.8145,40.8145,0,0,1,.33252,8.27757Z" fill="#fff"/><rect x="122.86732" y="179.98044" width="13.46385" height="13.46385" transform="translate(169.98432 -36.95372) rotate(45)" fill="#f05b43"/><polygon points="124.73 186.712 131.925 179.517 129.599 177.192 120.079 186.712 129.599 196.233 131.925 193.907 124.73 186.712" fill="#cf2633"/><rect x="128.59863" y="139.46143" width="1.62109" height="37.73047" fill="#ffcb5c"/><path d="M113.066,203.55126a46.23881,46.23881,0,0,1,8.3359-1.67809,67.02454,67.02454,0,0,1,8.50018-.46778c1.42008.00571,2.83961.08469,4.257.15909,1.41451.13742,2.83224.21811,4.236.44861a50.71843,50.71843,0,0,1,8.30949,1.801c-2.83714-.15786-5.62617-.42382-8.42827-.5412-2.79639-.14937-5.59116-.23757-8.38618-.24695-2.79529-.0481-5.59139.021-8.39212.10412C118.69605,203.22634,115.89463,203.36438,113.066,203.55126Z" fill="#ffcb5c"/><path d="M126.0025,203.02852v-1.53794c-1.53765.07422-3.07267.1961-4.60062.38256a46.24358,46.24358,0,0,0-8.33591,1.67809c2.82866-.18685,5.63006-.32492,8.43205-.42121Q123.752,203.06314,126.0025,203.02852Z" fill="#f29720"/><path d="M113.066,270.15479c5.661-.05241,11.26039.18228,16.86054.24309,2.79825.05953,5.59474.07089,8.38693.01685a80.83534,80.83534,0,0,0,8.39116-.52271,33.0336,33.0336,0,0,1-8.31218,1.7856c-1.4118.17785-2.82829.2178-4.24442.3052-1.41543.02927-2.8327.05747-4.24687.03543-2.82944-.05659-5.6534-.2137-8.46258-.5245A70.60441,70.60441,0,0,1,113.066,270.15479Z" fill="#ffcb5c"/><path d="M126.0025,270.33157c-4.29471-.08957-8.59748-.217-12.93653-.17681a70.59813,70.59813,0,0,0,8.37257,1.339c1.51741.1679,3.03943.2878,4.564.3744Z" fill="#f29720"/><circle cx="129.40927" cy="168.92771" r="4.84099" fill="#f05b43"/><path d="M128.31986,168.92771A4.842,4.842,0,0,1,131.285,164.464a4.841,4.841,0,1,0,0,8.92742A4.842,4.842,0,0,1,128.31986,168.92771Z" fill="#cf2633"/><path d="M133.96052,151.91407a4.16321,4.16321,0,0,0,1.14285-5.7757,4.11722,4.11722,0,0,0-1.53455-1.354,4.10293,4.10293,0,0,0,.46273-.24656,4.16323,4.16323,0,1,0-4.63291-6.91852,4.12079,4.12079,0,0,0-.82441.75273,4.11708,4.11708,0,0,0-.65995-1.85266,4.15547,4.15547,0,0,0-7.226,4.05607,4.15773,4.15773,0,1,0,.13908,8.16788,4.16121,4.16121,0,1,0,7.60864,2.332A4.1491,4.1491,0,0,0,133.96052,151.91407Zm-10.52848-4.915a4.15432,4.15432,0,0,0,.32079-4.06861,4.02407,4.02407,0,0,0,3.843-1.38815,4.01127,4.01127,0,0,0,2.19447,3.20665,4.10207,4.10207,0,0,0-.46273.24656,4.15809,4.15809,0,0,0-1.84622,3.45627A4.14929,4.14929,0,0,0,123.432,146.9991Z" fill="#ffd4c9"/><ellipse cx="126.35367" cy="144.78089" rx="3.74055" ry="3.91978" transform="translate(-59.19204 94.78545) rotate(-33.80779)" fill="#fff"/><path d="M123.8434,146.462a3.02354,3.02354,0,1,1,4.25319.92092A3.08139,3.08139,0,0,1,123.8434,146.462Zm3.82036-2.55826a1.5798,1.5798,0,1,0-.37141,2.27818A1.63573,1.63573,0,0,0,127.66376,143.90372Z" fill="#f599ad"/></svg>