<svg id="Layer_1" data-name="Layer 1" xmlns="http://www.w3.org/2000/svg" viewBox="0 0 700 550"><title>Artboard 1</title><path d="M174.90509,471.12676c-40.64957-28.17609-78.64552-82.23323-64.90994-125.08965,11.65919-36.37742,51.35378-36.12265,62.91028-74.24963,13.47-44.44159-32.93188-69.63131-28.28922-105.497C155.92953,78.89883,459.21949,13.65948,497.6097,75.539c27.18311,43.81775-93.6182,126.92958-60.26725,181.50061,29.76946,48.71373,142.45284,9.375,174.65047,60.12244,26.83493,42.29242-16.02677,125.40427-79.6099,162.10613-33.96829,19.60568-79.38208,18.42659-168.8097,19.3335-98.45444.99727-148.50738.36036-188.66823-27.475" fill="#f0f5fd"/><path d="M379.95472,151.17682s-2.50679-3.17266-3.9952-1.33174,3.9952,9.518,3.9952,9.518,5.4836-7.677,3.99519-9.518S379.95472,151.17682,379.95472,151.17682Z" fill="#ef8378"/><path d="M379.95472,170.3037s-2.50679,3.17265-3.9952,1.33173,3.9952-9.518,3.9952-9.518,5.4836,7.677,3.99519,9.518S379.95472,170.3037,379.95472,170.3037Z" fill="#ef8378"/><path d="M371.65612,155.98707s-3.99895.59839-3.14127,2.80491,10.24481,1.26378,10.24481,1.26378-3.93625-8.574-6.27346-8.19737S371.65612,155.98707,371.65612,155.98707Z" fill="#ef8378"/><path d="M388.25331,165.49344s1.50713,3.75211-.83008,4.12869-6.27345-8.19738-6.27345-8.19738,9.38712-.94273,10.24481,1.26379S388.25331,165.49344,388.25331,165.49344Z" fill="#ef8378"/><path d="M371.66413,165.5074s-1.50081,3.75463.837,4.12728,6.25966-8.20792,6.25966-8.20792-9.3887-.92694-10.24267,1.281S371.66413,165.5074,371.66413,165.5074Z" fill="#ef8378"/><path d="M388.2453,155.97312s4,.59166,3.146,2.79961-10.24266,1.281-10.24266,1.281,3.92181-8.58057,6.25965-8.20792S388.2453,155.97312,388.2453,155.97312Z" fill="#ef8378"/><path d="M453.51408,425.72639s-2.50679-3.17266-3.9952-1.33173,3.9952,9.518,3.9952,9.518,5.4836-7.677,3.99519-9.518S453.51408,425.72639,453.51408,425.72639Z" fill="#ef8378"/><path d="M453.51408,444.85327s-2.50679,3.17265-3.9952,1.33173,3.9952-9.518,3.9952-9.518,5.4836,7.677,3.99519,9.518S453.51408,444.85327,453.51408,444.85327Z" fill="#ef8378"/><path d="M445.21548,430.53665s-3.999.59838-3.14127,2.8049,10.24481,1.26378,10.24481,1.26378-3.93625-8.574-6.27346-8.19737S445.21548,430.53665,445.21548,430.53665Z" fill="#ef8378"/><path d="M461.81267,440.043s1.50713,3.75211-.83007,4.12869-6.27346-8.19738-6.27346-8.19738,9.38712-.94273,10.24481,1.26379S461.81267,440.043,461.81267,440.043Z" fill="#ef8378"/><path d="M445.22349,440.057s-1.50081,3.75463.837,4.12728,6.25965-8.20792,6.25965-8.20792-9.3887-.92694-10.24267,1.281S445.22349,440.057,445.22349,440.057Z" fill="#ef8378"/><path d="M461.80466,430.52269s4,.59166,3.146,2.79962-10.24266,1.281-10.24266,1.281,3.92182-8.58057,6.25965-8.20792S461.80466,430.52269,461.80466,430.52269Z" fill="#ef8378"/><path d="M107.1326,285.67441s-2.50679-3.17266-3.9952-1.33173,3.9952,9.518,3.9952,9.518,5.4836-7.677,3.99519-9.518S107.1326,285.67441,107.1326,285.67441Z" fill="#f9c985"/><path d="M107.1326,304.80129s-2.50679,3.17266-3.9952,1.33173,3.9952-9.518,3.9952-9.518,5.4836,7.677,3.99519,9.518S107.1326,304.80129,107.1326,304.80129Z" fill="#f9c985"/><path d="M98.834,290.48467s-3.999.59838-3.14127,2.8049,10.24481,1.26379,10.24481,1.26379-3.93625-8.574-6.27346-8.19738S98.834,290.48467,98.834,290.48467Z" fill="#f9c985"/><path d="M115.43119,299.991s1.50713,3.75211-.83008,4.12869-6.27345-8.19737-6.27345-8.19737,9.38712-.94274,10.2448,1.26378S115.43119,299.991,115.43119,299.991Z" fill="#f9c985"/><path d="M98.842,300.005s-1.50081,3.75463.837,4.12728,6.25966-8.20791,6.25966-8.20791-9.3887-.92695-10.24267,1.281S98.842,300.005,98.842,300.005Z" fill="#f9c985"/><path d="M115.42318,290.47071s4,.59166,3.146,2.79962-10.24267,1.281-10.24267,1.281,3.92182-8.58057,6.25966-8.20792S115.42318,290.47071,115.42318,290.47071Z" fill="#f9c985"/><path d="M207.4302,397.3798s-2.50679-3.17266-3.9952-1.33174,3.9952,9.518,3.9952,9.518,5.4836-7.677,3.99519-9.518S207.4302,397.3798,207.4302,397.3798Z" fill="#f9c985"/><path d="M207.4302,416.50668s-2.50679,3.17265-3.9952,1.33173,3.9952-9.518,3.9952-9.518,5.4836,7.677,3.99519,9.518S207.4302,416.50668,207.4302,416.50668Z" fill="#f9c985"/><path d="M199.1316,402.19005s-3.99895.59839-3.14127,2.80491,10.24481,1.26378,10.24481,1.26378-3.93625-8.574-6.27346-8.19737S199.1316,402.19005,199.1316,402.19005Z" fill="#f9c985"/><path d="M215.72879,411.69642s1.50713,3.7521-.83007,4.12869-6.27346-8.19738-6.27346-8.19738,9.38712-.94273,10.24481,1.26379S215.72879,411.69642,215.72879,411.69642Z" fill="#f9c985"/><path d="M199.13961,411.71038s-1.50081,3.75463.837,4.12728,6.25965-8.20792,6.25965-8.20792-9.3887-.92694-10.24267,1.281S199.13961,411.71038,199.13961,411.71038Z" fill="#f9c985"/><path d="M215.72078,402.1761s4,.59165,3.146,2.79961-10.24266,1.281-10.24266,1.281,3.92181-8.58057,6.25965-8.20792S215.72078,402.1761,215.72078,402.1761Z" fill="#f9c985"/><path d="M507.66757,252.26771s-4.41779-5.59127-7.04085-2.34695,7.04085,16.77379,7.04085,16.77379,9.66391-13.52948,7.04085-16.77379S507.66757,252.26771,507.66757,252.26771Z" fill="#f9c985"/><path d="M507.66757,285.97559s-4.41779,5.59127-7.04085,2.34695,7.04085-16.77379,7.04085-16.77379,9.66391,13.52948,7.04085,16.77379S507.66757,285.97559,507.66757,285.97559Z" fill="#f9c985"/><path d="M493.04271,260.745s-7.04749,1.05455-5.536,4.94317,18.05474,2.2272,18.05474,2.2272-6.937-15.11014-11.0559-14.44648S493.04271,260.745,493.04271,260.745Z" fill="#f9c985"/><path d="M522.29243,277.49833s2.65606,6.61244-1.46287,7.27611-11.0559-14.44648-11.0559-14.44648,16.54321-1.66141,18.05473,2.2272S522.29243,277.49833,522.29243,277.49833Z" fill="#f9c985"/><path d="M493.05682,277.52292s-2.64493,6.61691,1.47511,7.27364,11.03158-14.46506,11.03158-14.46506-16.546-1.63358-18.051,2.25757S493.05682,277.52292,493.05682,277.52292Z" fill="#f9c985"/><path d="M522.27832,260.72038s7.04924,1.04269,5.54427,4.93384-18.051,2.25758-18.051,2.25758,6.91154-15.12179,11.03158-14.46506S522.27832,260.72038,522.27832,260.72038Z" fill="#f9c985"/><rect x="164.75825" y="283.50549" width="8.84315" height="43.56072" fill="#f05b43"/><rect x="164.7582" y="283.50548" width="4.42162" height="43.56073" fill="#cf2633"/><rect x="159.58256" y="265.12606" width="19.58666" height="19.58666" transform="translate(244.00641 -39.24482) rotate(45)" fill="#f05b43"/><polygon points="162.904 274.919 173.065 264.758 169.376 261.07 155.526 274.919 169.376 288.769 173.065 285.08 162.904 274.919" fill="#cf2633"/><path d="M217.81719,222.94721c0-15.501-12.76709-28.72717-30.78735-34.09861v-7.82445H152.31235v7.55324c-18.53435,5.1777-31.76988,18.59049-31.76988,34.36982,0,15.77949,13.23553,29.19211,31.76988,34.36981v5.328h34.71749v-5.59917C205.0501,251.67437,217.81719,238.44833,217.81719,222.94721Z" fill="#f05b43"/><path d="M175.38855,188.8486a46.867,46.867,0,0,1,21.77971,11.4933,34.83545,34.83545,0,0,1,7.42611,10.19959,28.57035,28.57035,0,0,1,.0031,24.81287,34.8574,34.8574,0,0,1-7.42653,10.20081,46.8291,46.8291,0,0,1-21.78239,11.49065c7.67786-2.874,14.858-7.0584,20.39228-12.87082a34.91827,34.91827,0,0,0,6.654-9.807,27.48991,27.48991,0,0,0,.00306-22.84291,34.943,34.943,0,0,0-6.65446-9.80827C190.24917,195.90327,183.06729,191.71949,175.38855,188.8486Z" fill="#ffcb5c"/><path d="M133.894,222.9472c0-15.77933,13.23552-29.19209,31.76984-34.36979v-7.55326H152.31235v7.55326c-18.53432,5.1777-31.76984,18.59046-31.76984,34.36979,0,15.77951,13.23552,29.19213,31.76984,34.36983V262.645h13.35147V257.317C147.1295,252.13933,133.894,238.72671,133.894,222.9472Z" fill="#cf2633"/><path d="M165.66382,257.317a47.54632,47.54632,0,0,1-22.38808-11.40268,35.12618,35.12618,0,0,1-7.687-10.32364,28.59356,28.59356,0,0,1-.00307-25.28843,35.14848,35.14848,0,0,1,7.68749-10.32487,47.50888,47.50888,0,0,1,22.39069-11.4c-7.88743,2.78818-15.28869,6.94177-21.01871,12.79821a35.15185,35.15185,0,0,0-6.90528,9.93134,27.45665,27.45665,0,0,0-.00309,23.282,35.17611,35.17611,0,0,0,6.90573,9.93258C150.37257,250.37906,157.77557,254.53192,165.66382,257.317Z" fill="#ffcb5c"/><path d="M169.17983,195.4353c.51939,4.72741.79112,9.45483.9757,14.18224.11564,2.3637.14135,4.72742.20937,7.09112l.06933,7.09111-.06593,7.09114c-.07,2.36369-.09226,4.72741-.209,7.09111-.18388,4.72741-.45693,9.45483-.97945,14.18225-.52252-4.72742-.79557-9.45484-.97945-14.18225-.11676-2.3637-.139-4.72742-.209-7.09111l-.06592-7.09114.06932-7.09111c.068-2.3637.09373-4.72742.20937-7.09112C168.38871,204.89013,168.66044,200.16271,169.17983,195.4353Z" fill="#ffcb5c"/><path d="M162.01675,253.76185a22.76629,22.76629,0,0,1-6.614-5.30759,30.71912,30.71912,0,0,1-4.63167-7.23233,37.28631,37.28631,0,0,1-2.68125-8.1909,43.99144,43.99144,0,0,1-.84506-8.58328,39.318,39.318,0,0,1,3.76553-16.72422,30.29348,30.29348,0,0,1,4.76311-7.15,22.26625,22.26625,0,0,1,6.74264-5.1446,30.26924,30.26924,0,0,0-9.71645,13.09189,41.00405,41.00405,0,0,0-2.26868,7.82961,42.321,42.321,0,0,0-.7774,8.11383,44.31659,44.31659,0,0,0,.66494,8.12507,41.31716,41.31716,0,0,0,2.14782,7.86756A30.94456,30.94456,0,0,0,162.01675,253.76185Z" fill="#ffcb5c"/><path d="M177.25287,253.76185a30.9445,30.9445,0,0,0,9.45048-13.30493,41.31787,41.31787,0,0,0,2.14781-7.86756,44.31572,44.31572,0,0,0,.665-8.12507,42.321,42.321,0,0,0-.7774-8.11383,41.00478,41.00478,0,0,0-2.26868-7.82961,30.26924,30.26924,0,0,0-9.71645-13.09189,22.26621,22.26621,0,0,1,6.74263,5.1446,30.29352,30.29352,0,0,1,4.76312,7.15,39.3181,39.3181,0,0,1,3.76553,16.72422,43.99143,43.99143,0,0,1-.845,8.58328,37.28739,37.28739,0,0,1-2.68126,8.1909,30.71912,30.71912,0,0,1-4.63167,7.23233A22.7662,22.7662,0,0,1,177.25287,253.76185Z" fill="#ffcb5c"/><path d="M185.06537,223.953a46.424,46.424,0,0,0-1.32326-8.29828,37.98826,37.98826,0,0,0-2.82378-7.78981,51.64408,51.64408,0,0,0-4.417-6.85112,49.92936,49.92936,0,0,0-5.39955-6.2726l.12827-.21577a16.75289,16.75289,0,0,1,7.22209,4.9085,24.09933,24.09933,0,0,1,4.30386,7.62114,39.61955,39.61955,0,0,1,2.21712,8.35488,42.1048,42.1048,0,0,1,.34325,8.54306Z" fill="#fff"/><rect x="162.42806" y="164.2506" width="13.89566" height="13.89566" transform="translate(170.66462 -69.62398) rotate(45)" fill="#f05b43"/><polygon points="164.35 171.198 171.776 163.773 169.376 161.373 159.55 171.198 169.376 181.024 171.776 178.624 164.35 171.198" fill="#cf2633"/><rect x="168.34277" y="69.64746" width="1.67383" height="91.7251" fill="#ffcb5c"/><path d="M152.31235,188.57738a47.72173,47.72173,0,0,1,8.60326-1.73191,69.17581,69.17581,0,0,1,8.77279-.48278c1.46563.0059,2.93068.08741,4.39357.16419,1.45988.14183,2.92307.2251,4.37187.463a52.34526,52.34526,0,0,1,8.576,1.85872c-2.92813-.16292-5.80661-.43741-8.69858-.55855-2.88608-.15416-5.77048-.2452-8.65514-.25488-2.88494-.04964-5.77072.02166-8.66127.10746C158.123,188.242,155.23175,188.38451,152.31235,188.57738Z" fill="#ffcb5c"/><path d="M165.6638,188.03788v-1.58727c-1.587.07661-3.17123.2024-4.74818.39484a47.72586,47.72586,0,0,0-8.60326,1.7319c2.91939-.19284,5.81063-.33534,8.70249-.43472Q163.34114,188.0736,165.6638,188.03788Z" fill="#f29720"/><path d="M152.31235,257.317c5.84255-.05408,11.62154.18812,17.40129.25089,2.888.06144,5.77418.07316,8.65592.01739a83.42924,83.42924,0,0,0,8.66028-.53947,34.09288,34.09288,0,0,1-8.57877,1.84286c-1.45707.18355-2.919.22479-4.38054.315-1.46083.03021-2.92355.05932-4.38308.03656-2.92018-.0584-5.83472-.22055-8.734-.54131A72.869,72.869,0,0,1,152.31235,257.317Z" fill="#ffcb5c"/><path d="M165.6638,257.49947c-4.43245-.09244-8.87323-.224-13.35144-.18248a72.86478,72.86478,0,0,0,8.6411,1.38191c1.56608.17328,3.13691.297,4.71034.38641Z" fill="#f29720"/><circle cx="169.17983" cy="152.84339" r="4.99625" fill="#f05b43"/><path d="M168.05547,152.84339a4.99732,4.99732,0,0,1,3.06027-4.60687,4.99625,4.99625,0,1,0,0,9.21374A4.99724,4.99724,0,0,1,168.05547,152.84339Z" fill="#cf2633"/><rect x="571.65103" y="366.43794" width="9.37736" height="46.1922" fill="#f05b43"/><rect x="571.65097" y="366.43793" width="4.68873" height="46.19222" fill="#cf2633"/><rect x="566.16268" y="346.94822" width="20.76988" height="20.76988" transform="translate(421.53959 -303.02027) rotate(45)" fill="#f05b43"/><polygon points="569.684 357.333 580.459 346.558 576.548 342.647 561.861 357.333 576.548 372.02 580.459 368.108 569.684 357.333" fill="#cf2633"/><path d="M627.91524,302.22136c0-16.43737-13.53835-30.46257-32.64721-36.1585v-8.29712H558.45327v8.00953c-19.654,5.49049-33.68909,19.71354-33.68909,36.44609,0,16.73272,14.03509,30.95559,33.68909,36.44608v5.64983H595.268v-5.93742C614.37689,332.68392,627.91524,318.6589,627.91524,302.22136Z" fill="#f05b43"/><path d="M582.92349,266.06286a49.69816,49.69816,0,0,1,23.09542,12.18761,36.93966,36.93966,0,0,1,7.87472,10.81575,30.29629,30.29629,0,0,1,.00329,26.3118,36.96308,36.96308,0,0,1-7.87517,10.817,49.658,49.658,0,0,1-23.09826,12.18479c8.14169-3.04757,15.75562-7.48479,21.62418-13.64834a37.02745,37.02745,0,0,0,7.056-10.39946,29.15049,29.15049,0,0,0,.00325-24.22284,37.05413,37.05413,0,0,0-7.05645-10.4008C598.68184,273.54371,591.06611,269.10719,582.92349,266.06286Z" fill="#ffcb5c"/><path d="M538.92226,302.22135c0-16.73256,14.03507-30.95558,33.689-36.44606v-8.00955h-14.158v8.00955c-19.654,5.49048-33.689,19.7135-33.689,36.44606,0,16.73274,14.03507,30.95561,33.689,36.4461v5.64981h14.158v-5.64981C552.95733,333.177,538.92226,318.95409,538.92226,302.22135Z" fill="#cf2633"/><path d="M572.61129,338.66746A50.41866,50.41866,0,0,1,548.87077,326.576a37.24809,37.24809,0,0,1-8.15141-10.94729,30.32091,30.32091,0,0,1-.00325-26.81609A37.27142,37.27142,0,0,1,548.868,277.864a50.3788,50.3788,0,0,1,23.74329-12.08869c-8.36389,2.95661-16.21227,7.36112-22.28843,13.57135a37.27486,37.27486,0,0,0-7.32242,10.53129,29.11529,29.11529,0,0,0-.00328,24.68843,37.30083,37.30083,0,0,0,7.3229,10.53261C556.39631,331.31036,564.24652,335.71409,572.61129,338.66746Z" fill="#ffcb5c"/><path d="M576.33971,273.04746c.55076,5.013.83891,10.026,1.03465,15.039.12262,2.50649.14988,5.013.222,7.51949l.07352,7.51948L577.6,310.64493c-.07421,2.50649-.09784,5.013-.22165,7.51948-.195,5.013-.48454,10.026-1.03862,15.039-.55409-5.013-.84363-10.026-1.03862-15.039-.12381-2.50648-.14744-5.013-.22165-7.51948l-.06991-7.51951.07351-7.51948c.07214-2.50649.09939-5.013.222-7.51949C575.5008,283.07346,575.789,278.06046,576.33971,273.04746Z" fill="#ffcb5c"/><path d="M568.74392,334.89751a24.14184,24.14184,0,0,1-7.01356-5.62823,32.57441,32.57441,0,0,1-4.91146-7.66923,39.538,39.538,0,0,1-2.84323-8.68571,46.6481,46.6481,0,0,1-.89611-9.1018,41.69312,41.69312,0,0,1,3.993-17.73451,32.123,32.123,0,0,1,5.05085-7.5819,23.611,23.611,0,0,1,7.15-5.45538A32.09782,32.09782,0,0,0,558.97,286.92351a43.48152,43.48152,0,0,0-2.40573,8.30259,44.8789,44.8789,0,0,0-.82436,8.604,46.99393,46.99393,0,0,0,.70511,8.6159,43.81388,43.81388,0,0,0,2.27757,8.34284A32.81393,32.81393,0,0,0,568.74392,334.89751Z" fill="#ffcb5c"/><path d="M584.90044,334.89751a32.81393,32.81393,0,0,0,10.02138-14.10868,43.81385,43.81385,0,0,0,2.27756-8.34284,46.99306,46.99306,0,0,0,.70512-8.6159,44.8789,44.8789,0,0,0-.82436-8.604,43.48155,43.48155,0,0,0-2.40574-8.30259A32.09772,32.09772,0,0,0,584.371,273.04075a23.61112,23.61112,0,0,1,7.15,5.45538,32.12327,32.12327,0,0,1,5.05085,7.5819,41.69312,41.69312,0,0,1,3.993,17.73451,46.64809,46.64809,0,0,1-.8961,9.1018,39.53905,39.53905,0,0,1-2.84324,8.68571,32.57441,32.57441,0,0,1-4.91146,7.66923A24.14171,24.14171,0,0,1,584.90044,334.89751Z" fill="#ffcb5c"/><path d="M593.18488,303.28793a49.23243,49.23243,0,0,0-1.4032-8.79959,40.28292,40.28292,0,0,0-2.99433-8.26037,54.772,54.772,0,0,0-4.68377-7.265,52.94734,52.94734,0,0,0-5.72577-6.65152l.136-.22882a17.765,17.765,0,0,1,7.65839,5.205,25.55482,25.55482,0,0,1,4.5639,8.08154,42.01533,42.01533,0,0,1,2.351,8.85959,44.64915,44.64915,0,0,1,.364,9.05914Z" fill="#fff"/><rect x="569.18007" y="239.97891" width="14.7351" height="14.7351" transform="translate(343.76724 -335.23463) rotate(45)" fill="#f05b43"/><polygon points="571.219 247.346 579.093 239.472 576.548 236.927 566.128 247.346 576.548 257.766 579.093 255.221 571.219 247.346" fill="#cf2633"/><rect x="575.45215" y="139.66064" width="1.77539" height="97.2666" fill="#ffcb5c"/><path d="M558.45327,265.77526a50.60486,50.60486,0,0,1,9.123-1.83653,73.35324,73.35324,0,0,1,9.30275-.512c1.55417.00625,3.10773.09269,4.659.17412,1.54808.15039,3.09966.23869,4.636.491a55.50678,55.50678,0,0,1,9.09407,1.971c-3.105-.17276-6.15738-.46383-9.22406-.59229-3.06042-.16347-6.11906-.26-9.178-.27027-3.05922-.05264-6.11932.023-9.18449.11395C564.615,265.41966,561.549,265.57074,558.45327,265.77526Z" fill="#ffcb5c"/><path d="M572.61127,265.20317V263.52c-1.68283.08124-3.36279.21463-5.035.41869a50.60924,50.60924,0,0,0-9.123,1.83653c3.09574-.20449,6.16165-.35559,9.2282-.461Q570.1483,265.241,572.61127,265.20317Z" fill="#f29720"/><path d="M558.45327,338.66743c6.1955-.05735,12.32359.19949,18.4525.266,3.06246.06515,6.123.07758,9.17882.01844a88.46951,88.46951,0,0,0,9.18344-.57207,36.15217,36.15217,0,0,1-9.097,1.95419c-1.5451.19464-3.09534.23837-4.64518.334-1.54908.032-3.10016.0629-4.64785.03877-3.09659-.06193-6.18719-.23388-9.26161-.574A77.27193,77.27193,0,0,1,558.45327,338.66743Z" fill="#ffcb5c"/><path d="M572.61127,338.86091c-4.70021-.098-9.40925-.23748-14.158-.19351a77.2648,77.2648,0,0,0,9.1631,1.46539c1.66068.18376,3.3264.315,4.99488.40976Z" fill="#f29720"/><circle cx="576.33971" cy="227.8826" r="5.29807" fill="#f05b43"/><path d="M575.14743,227.88259a5.29922,5.29922,0,0,1,3.24513-4.88517,5.29807,5.29807,0,1,0,0,9.77035A5.29914,5.29914,0,0,1,575.14743,227.88259Z" fill="#cf2633"/><path d="M152.4073,369.06747a37.429,37.429,0,0,0-2.43589-6.22964,30.09022,30.09022,0,0,0-3.48589-5.57172,49.15472,49.15472,0,0,0-4.531-4.57629,52.91107,52.91107,0,0,0-5.06482-4.20749l.082-.23453a12.53444,12.53444,0,0,1,6.56418,2.52588,18.22382,18.22382,0,0,1,4.57275,5.34543,31.70443,31.70443,0,0,1,3.00864,6.23914,33.1658,33.1658,0,0,1,1.53349,6.65985Z" fill="#fff"/><path d="M154.321,445.07206l4.85454-4.78357a4.816,4.816,0,0,0-6.76138-6.85987l-4.85371,4.78268-3.6936-3.74841,4.9758-4.90312a4.816,4.816,0,0,0-6.7609-6.86034l-4.03316,3.97426V406.94324h-1.93939V426.5903l-3.785-3.84115a4.8163,4.8163,0,0,0-6.86081,6.76138l4.78179,4.85264-3.54712,3.49527-4.70675-4.77641a4.81613,4.81613,0,0,0-6.86033,6.76138l4.70609,4.77582-4.85477,4.78386a4.816,4.816,0,0,0,6.76138,6.85987l4.854-4.7831,3.69355,3.74824-4.976,4.90324a4.816,4.816,0,1,0,6.76137,6.85986l4.03269-3.97373v15.33172h1.93939v-15.2488l3.78552,3.84157a4.81613,4.81613,0,0,0,6.86034-6.76138l-4.78173-4.85252,3.547-3.4951,4.70681,4.77659a4.8163,4.8163,0,0,0,6.86081-6.76138Zm-.546-10.26181a2.87689,2.87689,0,0,1,4.03931,4.09755L152.9601,443.691l-4.03854-4.09838Zm-2.19639,10.242-4.09819,4.03824-4.0386-4.09843,4.09831-4.03825Zm-5.39957-5.47971-4.09826,4.0383-3.6936-3.74835,4.09825-4.03836Zm-5.47977,5.39969-3.54706,3.49516-3.69361-3.7483,3.54706-3.49521Zm-3.67313-6.491-4.03842-4.09826,4.09832-4.03842,4.03836,4.09826Zm6.416-14.39977a2.87672,2.87672,0,1,1,4.03931,4.09707l-4.97563,4.90307-4.03836-4.0982Zm-16.59615,4.06866a2.87688,2.87688,0,0,1,4.09707-4.03978l4.782,4.85293-4.09832,4.03848Zm4.76019,7.59418,4.03848,4.09832-3.547,3.49527-4.0386-4.09837Zm-.8901,8.955-4.09778,4.038-4.03866-4.09843,4.0979-4.03795Zm-14.203-6.21675a2.87655,2.87655,0,0,1,4.09707-4.03883l4.7064,4.776-4.09791,4.038Zm3.87028,16.39872a2.94715,2.94715,0,0,1-4.06914-.03031,2.8804,2.8804,0,0,1,.02935-4.06724l4.85448-4.78345,4.03865,4.09843Zm7.59583-4.7628,4.09791-4.03807,3.69354,3.7483-4.0979,4.038Zm9.15249,1.09139,4.03866,4.09843-4.09791,4.038-4.03871-4.0985Zm-6.41544,14.39965a2.9462,2.9462,0,0,1-4.06914-.02935,2.88156,2.88156,0,0,1,.02936-4.0682l4.97568-4.90283,4.03872,4.0985Zm16.59616-4.06819a2.87656,2.87656,0,1,1-4.09708,4.03884l-4.782-4.85282,4.0979-4.03795Zm-4.76049-7.59436-4.03866-4.09844,3.54706-3.49515,4.03854,4.09849Zm15.064,1.33014a2.88069,2.88069,0,0,1-4.0682-.02936l-4.70639-4.77617,4.0982-4.03824,4.70574,4.77558A2.8824,2.8824,0,0,1,157.61589,455.27716Z" fill="#ffcb5c"/><path d="M137.07894,478.349h0a2.967,2.967,0,0,1,2.967,2.967v5.00758a0,0,0,0,1,0,0h-5.934a0,0,0,0,1,0,0V481.316a2.967,2.967,0,0,1,2.967-2.967Z" fill="#f05b43"/><path d="M138.42652,478.68679a2.93367,2.93367,0,0,0-1.34753-.33776,2.96694,2.96694,0,0,0-2.967,2.967v5.00759h2.69521V481.316A2.9559,2.9559,0,0,1,138.42652,478.68679Z" fill="#cf2633"/><path d="M137.07849,339.91667a36.121,36.121,0,1,0,36.12089,36.12095A36.11945,36.11945,0,0,0,137.07849,339.91667Zm9.82463,45.93623H127.25363v-19.64h19.64949Z" fill="#f05b43"/><path d="M120.39135,376.03762a36.12688,36.12688,0,0,1,26.404-34.78811,36.12129,36.12129,0,1,0,0,69.57553A36.1347,36.1347,0,0,1,120.39135,376.03762Z" fill="#cf2633"/><path d="M166.85232,376.03391a32.19458,32.19458,0,0,1-8.1777,21.59568,27.9327,27.9327,0,0,1-9.76814,6.95681,28.52362,28.52362,0,0,1-11.82753,2.28611,30.35935,30.35935,0,0,1-11.64777-2.71961,32.46,32.46,0,0,1-9.63583-6.8354,32.09631,32.09631,0,0,1-9.14069-21.28359,29.92943,29.92943,0,0,1,8.50673-21.91756,31.168,31.168,0,0,1,9.99931-6.8537,29.97959,29.97959,0,0,1,23.79235.10645,28.56035,28.56035,0,0,1,9.75292,7.03779A32.20074,32.20074,0,0,1,166.85232,376.03391Zm-.2909,0a27.06342,27.06342,0,0,0-2.47811-11.18556,28.31432,28.31432,0,0,0-6.73117-9.08763,30.28115,30.28115,0,0,0-20.27319-7.80336,28.89271,28.89271,0,0,0-19.98266,8.0939,29.45966,29.45966,0,0,0-8.84891,19.98265,28.04159,28.04159,0,0,0,1.91688,11.14837,27.37468,27.37468,0,0,0,6.29807,9.46824,28.399,28.399,0,0,0,20.61662,7.80064,31.56667,31.56667,0,0,0,20.30454-8.11271,28.62054,28.62054,0,0,0,6.72179-9.10987A26.89242,26.89242,0,0,0,166.56142,376.03391Z" fill="#ffcb5c"/><path d="M137.71213,406.86837a36.21589,36.21589,0,0,1-3.55233-2.47314,28.18508,28.18508,0,0,1-17.69748-7.74469,27.37564,27.37564,0,0,1-6.29808-9.46824,28.04207,28.04207,0,0,1-1.91684-11.14841,29.45948,29.45948,0,0,1,8.84892-19.98264,28.78727,28.78727,0,0,1,16.42256-7.85431,36.21468,36.21468,0,0,1,4.70965-3.29925c-.38311-.01882-.76628-.03752-1.14957-.04308a30.321,30.321,0,0,0-11.91823,2.408,31.168,31.168,0,0,0-9.99931,6.85371,29.92924,29.92924,0,0,0-8.50677,21.91754,32.0963,32.0963,0,0,0,9.1407,21.28361,32.45874,32.45874,0,0,0,9.63586,6.83537,30.35815,30.35815,0,0,0,11.64775,2.71964C137.28978,406.87659,137.50108,406.86884,137.71213,406.86837Z" fill="#f29720"/><path d="M151.3448,360.21656c-2.37767-.00083-4.75528-.01479-7.13295.03161l-7.13289.14494c-2.37767.05487-4.75528.10683-7.13294.20745-2.37761.08978-4.75528.24864-7.13289.371l-.83636.043.03989.75344c.12577,2.37767.25551,4.75528.30238,7.13295.0628,2.37761.06369,4.75527.02232,7.13288-.05706,2.37767-.17211,4.75528-.33091,7.13295-.15471,2.37761-.31286,4.75528-.40815,7.13289l-.04669,1.16608,1.25752.04474c2.44827.087,4.92034.11086,7.37425.05457,2.45691-.04066,4.90685-.111,7.32305-.22378,2.4172-.10582,4.80795-.23846,7.13667-.40116,2.33376-.15483,4.61862-.32907,6.80062-.53747l.51243-6.81766c.16448-2.32517.31245-4.70408.443-7.11277.13554-2.40773.24242-4.85033.32647-7.30713.098-2.45538.1173-4.92976.16667-7.39709l.031-1.55091Zm-7.568,29.443c-2.42656-.1627-4.79115-.29534-7.12916-.40116-2.3392-.11275-4.64454-.18312-6.9429-.22378-1.91845-.04694-3.82672-.02705-5.74416.02758-.09517-1.96509-.21715-3.93023-.345-5.89532-.1588-2.37767-.27386-4.75528-.331-7.13295-.04131-2.37761-.04042-4.75527.02237-7.13288.04137-2.09832.14915-4.19657.25989-6.29488,2.12636.11535,4.25279.24893,6.37916.32925,2.37766.10061,4.75527.15258,7.13294.20744l7.13289.145c1.87039.03652,3.74072.03486,5.61111.03237.032,1.76889.06143,3.53718.13725,5.31672.084,2.29848.19087,4.61116.32641,6.95876l.443,7.15313.51243,7.44823C148.66878,389.98865,146.1983,389.81435,143.77678,389.65952Z" fill="#ffcb5c"/><path d="M123.88563,391.53411a35.8409,35.8409,0,0,1-2.06227-5.41893c-.08582,1.39483-.16512,2.78972-.22106,4.18455l-.04669,1.16608,1.25752.04474C123.16942,391.52322,123.5285,391.52417,123.88563,391.53411Z" fill="#f29720"/><path d="M122.81313,360.97159l-.83636.043.03989.75344q.08106,1.53188.15531,3.06375a35.83438,35.83438,0,0,1,1.53427-3.90975C123.40854,360.93833,123.11083,360.95627,122.81313,360.97159Z" fill="#f29720"/><path d="M145.05017,353.94086a9.4887,9.4887,0,0,1,6.53058.82513,13.411,13.411,0,0,1,4.87033,4.48636A22.54736,22.54736,0,0,1,159.45,364.969c.33815,1.0105.604,2.04053.8962,3.05088q.30809,1.55511.57667,3.09979l-.24217.05542q-.55032-1.4681-1.064-2.92258c-.43553-.93716-.83968-1.88156-1.30545-2.78723l-.75343-1.32529-.37613-.65756-.43869-.61545-.85866-1.23022-.97235-1.12692a26.399,26.399,0,0,0-4.55094-3.5795,25.97,25.97,0,0,0-5.30552-2.74112Z" fill="#fff"/><path d="M511.60239,148.25691a27.40507,27.40507,0,0,0-1.78369-4.5617,22.03425,22.03425,0,0,0-2.55259-4.07995,35.99163,35.99163,0,0,0-3.31784-3.351,38.74507,38.74507,0,0,0-3.70874-3.081l.06-.17174a9.17847,9.17847,0,0,1,4.8067,1.84959,13.34529,13.34529,0,0,1,3.34845,3.91423,22.83314,22.83314,0,0,1,3.326,9.44541Z" fill="#fff"/><path d="M513.00374,203.912l3.55477-3.50281a3.52653,3.52653,0,0,0-4.95108-5.0232l-3.55417,3.50216-2.70468-2.74481,3.64358-3.59036a3.52653,3.52653,0,0,0-4.95073-5.02355l-2.95332,2.9102V175.9918H499.668v14.38674l-2.77164-2.81272a3.52678,3.52678,0,0,0-5.02389,4.95108l3.50151,3.55339-2.59741,2.55945L489.33,195.13217a3.52665,3.52665,0,0,0-5.02354,4.95108l3.44608,3.49714-3.555,3.503a3.52653,3.52653,0,0,0,4.95108,5.0232l3.55439-3.50247,2.70463,2.74468-3.64375,3.59045a3.52653,3.52653,0,1,0,4.95108,5.0232l2.953-2.9098v11.22678h1.42014V217.11339l2.772,2.813a3.52665,3.52665,0,0,0,5.02354-4.95108l-3.50147-3.55331,2.59733-2.55931,3.4466,3.49769a3.52678,3.52678,0,0,0,5.02389-4.95108Zm-.39985-7.5143a2.10663,2.10663,0,1,1,2.95782,3.00047l-3.55452,3.50251-2.95725-3.00108Zm-1.60832,7.49982-3.00095,2.957-2.9573-3.00111,3.001-2.957Zm-3.95389-4.01257-3.001,2.95709-2.70468-2.74477,3.001-2.95713Zm-4.01262,3.954-2.59736,2.55936-2.70468-2.74472,2.59737-2.55941Zm-2.68968-4.75307-2.95717-3.001,3.001-2.95718,2.95713,3.001Zm4.69816-10.54437a2.1065,2.1065,0,1,1,2.95782,3.00012l-3.64345,3.59032-2.95713-3.00094Zm-12.15269,2.97932a2.10663,2.10663,0,0,1,3.00012-2.95817l3.50164,3.55361-3.001,2.95722Zm3.48569,5.56091,2.95722,3.001-2.59733,2.55945-2.9573-3.00107Zm-.65178,6.55737-3.00064,2.95687-2.95734-3.00112,3.00072-2.95682ZM485.3185,199.0868a2.10638,2.10638,0,0,1,3.00012-2.95748l3.4463,3.49731-3.00073,2.95687Zm2.834,12.00811a2.15807,2.15807,0,0,1-2.97966-.02219,2.10922,2.10922,0,0,1,.02149-2.97828l3.55474-3.50273,2.95734,3.00112Zm5.56213-3.4876,3.00072-2.95692,2.70464,2.74473L496.4193,210.352Zm6.702.79917,2.95734,3.00112-3.00073,2.95687-2.95738-3.00116Zm-4.69777,10.54428a2.15737,2.15737,0,0,1-2.97966-.02149,2.11,2.11,0,0,1,.02149-2.979l3.6435-3.59015,2.95738,3.00117Zm12.15269-2.979a2.10638,2.10638,0,1,1-3.00012,2.95748l-3.50164-3.55352,3.00073-2.95683Zm-3.48591-5.561-2.95734-3.00112,2.59737-2.55936,2.95725,3.00117Zm11.03077.974a2.1094,2.1094,0,0,1-2.979-.0215l-3.4463-3.49739,3.00094-2.957,3.44582,3.497A2.11066,2.11066,0,0,1,515.41644,211.38476Z" fill="#ffcb5c"/><path d="M500.37807,228.27934h0a2.17261,2.17261,0,0,1,2.17261,2.17261v3.66685a0,0,0,0,1,0,0h-4.34522a0,0,0,0,1,0,0V230.452A2.17261,2.17261,0,0,1,500.37807,228.27934Z" fill="#f05b43"/><path d="M501.36485,228.52668a2.14818,2.14818,0,0,0-.98674-.24733,2.17257,2.17257,0,0,0-2.17261,2.17261v3.66685h1.97359V230.452A2.16449,2.16449,0,0,1,501.36485,228.52668Z" fill="#cf2633"/><path d="M500.37774,126.911a26.4499,26.4499,0,1,0,26.44986,26.4499A26.44881,26.44881,0,0,0,500.37774,126.911Zm7.19418,33.63723H493.18339V146.16665h14.38853Z" fill="#f05b43"/><path d="M488.15843,153.36087A26.45423,26.45423,0,0,1,507.493,127.887a26.45014,26.45014,0,1,0,0,50.94734A26.46,26.46,0,0,1,488.15843,153.36087Z" fill="#cf2633"/><path d="M522.17991,153.35815a23.57485,23.57485,0,0,1-5.9882,15.81364,20.454,20.454,0,0,1-7.15282,5.09419,20.88686,20.88686,0,0,1-8.66082,1.674,22.23075,22.23075,0,0,1-8.52918-1.99147,23.76911,23.76911,0,0,1-7.05593-5.00528,23.50283,23.50283,0,0,1-6.69336-15.58511,21.91619,21.91619,0,0,1,6.22914-16.04934,22.82306,22.82306,0,0,1,7.32209-5.01868,21.95283,21.95283,0,0,1,17.42217.07795,20.9135,20.9135,0,0,1,7.14166,5.15349A23.57936,23.57936,0,0,1,522.17991,153.35815Zm-.213,0a19.81759,19.81759,0,0,0-1.81462-8.19073,20.73355,20.73355,0,0,0-4.929-6.6545,22.17366,22.17366,0,0,0-14.84524-5.71408,21.15695,21.15695,0,0,0-14.63248,5.92683,21.57215,21.57215,0,0,0-6.4797,14.63248,20.53377,20.53377,0,0,0,1.40365,8.1635,20.04554,20.04554,0,0,0,4.61182,6.93321,20.7954,20.7954,0,0,0,15.09671,5.71209,23.115,23.115,0,0,0,14.86819-5.94061,20.95753,20.95753,0,0,0,4.92209-6.67078A19.69222,19.69222,0,0,0,521.96689,153.35815Z" fill="#ffcb5c"/><path d="M500.84173,175.937a26.51746,26.51746,0,0,1-2.60123-1.811,20.63875,20.63875,0,0,1-12.95915-5.67112,20.0461,20.0461,0,0,1-4.61182-6.9332,20.53407,20.53407,0,0,1-1.40363-8.16353,21.572,21.572,0,0,1,6.47971-14.63248,21.07971,21.07971,0,0,1,12.02557-5.75138,26.5176,26.5176,0,0,1,3.44868-2.41591c-.28053-.01378-.56111-.02748-.84177-.03155a22.20289,22.20289,0,0,0-8.72724,1.7633,22.82324,22.82324,0,0,0-7.32209,5.01869,21.916,21.916,0,0,0-6.22916,16.04933,23.50281,23.50281,0,0,0,6.69336,15.58512,23.76814,23.76814,0,0,0,7.05595,5.00526,22.23,22.23,0,0,0,8.52918,1.99149C500.53246,175.943,500.68718,175.93732,500.84173,175.937Z" fill="#f29720"/><path d="M510.82438,141.77575c-1.74107-.0006-3.4821-.01083-5.22317.02315l-5.22312.10613c-1.74108.04018-3.4821.07823-5.22317.15191-1.741.06574-3.4821.18207-5.22313.27169l-.61242.03151.02921.55171c.09209,1.74107.18709,3.4821.22142,5.22317.046,1.741.04663,3.4821.01634,5.22312-.04178,1.74107-.126,3.4821-.24231,5.22317-.11329,1.741-.2291,3.4821-.29887,5.22312l-.0342.85387.92083.03277c1.79278.06371,3.603.08117,5.39987.04,1.7991-.02978,3.59308-.08131,5.36237-.16387,1.77-.07749,3.52067-.17461,5.2259-.29375,1.70891-.11338,3.382-.241,4.97981-.39357l.37524-4.99229c.12044-1.70263.22878-3.44461.32439-5.20839.09925-1.76309.17752-3.5517.23906-5.35072.07173-1.798.0859-3.60986.122-5.41659l.02271-1.13566Zm-5.54176,21.55988c-1.77687-.11914-3.50836-.21626-5.22039-.29375-1.7129-.08256-3.401-.13409-5.084-.16387-1.4048-.03437-2.80214-.0198-4.20621.0202-.06969-1.439-.159-2.87795-.25262-4.3169-.11628-1.74107-.20053-3.4821-.24236-5.22317-.03025-1.741-.0296-3.4821.01639-5.22312.03029-1.53651.10921-3.073.1903-4.60948,1.55705.08446,3.11415.18228,4.6712.24109,1.74107.07368,3.48209.11173,5.22317.15191l5.22312.10613c1.36961.02674,2.73917.02553,4.10878.02371.02341,1.29528.045,2.59013.10051,3.89321.0615,1.68309.13977,3.37657.239,5.09562l.3244,5.238.37523,5.454C508.86483,163.57664,507.05581,163.449,505.28262,163.33563Z" fill="#ffcb5c"/><path d="M490.71715,164.70832a26.24344,26.24344,0,0,1-1.51012-3.96806c-.06284,1.02138-.12092,2.0428-.16187,3.06417l-.0342.85387.92083.03277C490.1927,164.70034,490.45564,164.701,490.71715,164.70832Z" fill="#f29720"/><path d="M489.93179,142.32863l-.61242.03151.02921.55171q.05935,1.12173.11372,2.24346a26.24168,26.24168,0,0,1,1.12348-2.86295C490.36779,142.30428,490.14979,142.31741,489.93179,142.32863Z" fill="#f29720"/><path d="M506.21509,137.18031a6.94817,6.94817,0,0,1,4.78207.60422,9.82006,9.82006,0,0,1,3.56632,3.28516,17.68114,17.68114,0,0,1,2.196,4.18609c.24762.74.44226,1.4942.65625,2.234l.4223,2.26985-.17737.04058-.77911-2.14008c-.31891-.68625-.61487-1.37779-.95593-2.041a16.49424,16.49424,0,0,0-2.48914-3.62867,19.33083,19.33083,0,0,0-3.33243-2.62112,19.01693,19.01693,0,0,0-3.885-2.0072Z" fill="#fff"/><path d="M349.82186,95.90032a2.944,2.944,0,0,0-3.3864-2.42209l-17.42709,2.89285,10.733-6.64784a3.02875,3.02875,0,0,0,.96535-.9653,2.98341,2.98341,0,1,0-5.07263-3.14188l-6.64784,10.733,2.8929-17.42714a3.01346,3.01346,0,0,0,0-.96422,2.944,2.944,0,1,0-5.80854.96422l2.89294,17.42714-6.64789-10.733a3.029,3.029,0,0,0-.96534-.9654,2.98341,2.98341,0,0,0-3.14194,5.07258l10.733,6.64784-17.42708-2.89285a3.0149,3.0149,0,0,0-.96422,0,2.944,2.944,0,1,0,.96422,5.80859l17.42718-2.89295-10.73312,6.64785a3.03012,3.03012,0,0,0-.96535.96529,2.98344,2.98344,0,1,0,5.07263,3.142l6.64789-10.73312-2.89294,17.42723a3.01255,3.01255,0,0,0,0,.96412,2.944,2.944,0,0,0,5.80854-.96412L328.98627,96.416l6.64784,10.733a3.03093,3.03093,0,0,0,.96535.96539,2.98344,2.98344,0,0,0,3.14193-5.07267l-10.73312-6.64785,17.42719,2.89295a3.01514,3.01514,0,0,0,.96426,0A2.94408,2.94408,0,0,0,349.82186,95.90032Z" fill="#ef8378"/><path d="M315.06917,83.82437a1.74361,1.74361,0,0,0,0-3.48513A1.74361,1.74361,0,0,0,315.06917,83.82437Z" fill="#ef8378"/><path d="M343.08973,83.82437a1.74361,1.74361,0,0,0,0-3.48513A1.74361,1.74361,0,0,0,343.08973,83.82437Z" fill="#ef8378"/><path d="M343.08973,108.35979a1.74361,1.74361,0,0,0,0,3.48514A1.74361,1.74361,0,0,0,343.08973,108.35979Z" fill="#ef8378"/><path d="M314.96464,108.35979a1.74361,1.74361,0,0,0,0,3.48514A1.74361,1.74361,0,0,0,314.96464,108.35979Z" fill="#ef8378"/><path d="M258.6587,465.95419a2.944,2.944,0,0,0-3.3864-2.42209L237.84522,466.425l10.733-6.64784a3.02872,3.02872,0,0,0,.96534-.9653,2.98341,2.98341,0,1,0-5.07262-3.14189l-6.64785,10.733,2.8929-17.42713a3.01318,3.01318,0,0,0,0-.96422,2.944,2.944,0,1,0-5.80854.96422l2.893,17.42713-6.64789-10.733a3.029,3.029,0,0,0-.96535-.96539,2.9834,2.9834,0,0,0-3.14193,5.07258l10.733,6.64784-17.42709-2.89285a3.0149,3.0149,0,0,0-.96422,0,2.944,2.944,0,0,0,.96422,5.80859l17.42719-2.89295-10.73312,6.64784a3.03016,3.03016,0,0,0-.96535.9653,2.98344,2.98344,0,1,0,5.07263,3.142l6.64789-10.73311-2.893,17.42723a3.01284,3.01284,0,0,0,0,.96412,2.944,2.944,0,0,0,5.80854-.96412l-2.8929-17.42714,6.64785,10.733a3.03083,3.03083,0,0,0,.96534.9654,2.98345,2.98345,0,0,0,3.14194-5.07268l-10.73312-6.64784,17.42718,2.89295a3.01521,3.01521,0,0,0,.96427,0A2.94407,2.94407,0,0,0,258.6587,465.95419Z" fill="#ef8378"/><path d="M223.906,453.87824a1.74361,1.74361,0,0,0,0-3.48513A1.74361,1.74361,0,0,0,223.906,453.87824Z" fill="#ef8378"/><path d="M251.92657,453.87824a1.74361,1.74361,0,0,0,0-3.48513A1.74361,1.74361,0,0,0,251.92657,453.87824Z" fill="#ef8378"/><path d="M251.92657,478.41366a1.74361,1.74361,0,0,0,0,3.48513A1.74361,1.74361,0,0,0,251.92657,478.41366Z" fill="#ef8378"/><path d="M223.80149,478.41366a1.74361,1.74361,0,0,0,0,3.48513A1.74361,1.74361,0,0,0,223.80149,478.41366Z" fill="#ef8378"/><path d="M532.53851,404.889a2.944,2.944,0,0,0-3.3864-2.42209L511.725,405.35976l10.733-6.64784a3.02875,3.02875,0,0,0,.96535-.9653,2.98341,2.98341,0,1,0-5.07263-3.14188l-6.64784,10.733,2.89289-17.42714a3.01317,3.01317,0,0,0,0-.96422,2.944,2.944,0,1,0-5.80853.96422l2.89294,17.42714-6.64789-10.733a3.029,3.029,0,0,0-.96535-.9654,2.9834,2.9834,0,0,0-3.14193,5.07258l10.733,6.64784L494.231,402.46691a3.0149,3.0149,0,0,0-.96422,0,2.944,2.944,0,1,0,.96422,5.80859l17.42718-2.893-10.73312,6.64785a3.03012,3.03012,0,0,0-.96535.96529,2.98344,2.98344,0,1,0,5.07263,3.142l6.64789-10.73312-2.89294,17.42723a3.01255,3.01255,0,0,0,0,.96412,2.944,2.944,0,0,0,5.80853-.96412l-2.89289-17.42713,6.64784,10.733a3.03083,3.03083,0,0,0,.96535.96539,2.98344,2.98344,0,0,0,3.14193-5.07267l-10.73312-6.64785,17.42719,2.893a3.01514,3.01514,0,0,0,.96426,0A2.94408,2.94408,0,0,0,532.53851,404.889Z" fill="#f9c985"/><path d="M497.78582,392.813a1.74361,1.74361,0,0,0,0-3.48513A1.74361,1.74361,0,0,0,497.78582,392.813Z" fill="#f9c985"/><path d="M525.80637,392.813a1.74361,1.74361,0,0,0,0-3.48513A1.74361,1.74361,0,0,0,525.80637,392.813Z" fill="#f9c985"/><path d="M525.80637,417.34847a1.74361,1.74361,0,0,0,0,3.48514A1.74361,1.74361,0,0,0,525.80637,417.34847Z" fill="#f9c985"/><path d="M497.68129,417.34847a1.74361,1.74361,0,0,0,0,3.48514A1.74361,1.74361,0,0,0,497.68129,417.34847Z" fill="#f9c985"/><path d="M275.93,182.05791V179.9904H259.74786a6.198,6.198,0,0,0-.34159-1.107l14.06734-8.08627-1.02956-1.79333-14.14077,8.1284a6.26481,6.26481,0,0,0-.8408-.79665l8.07262-14.20713-1.79893-1.02117L255.64781,175.342a6.14331,6.14331,0,0,0-1.0042-.26474V158.704H252.5761v16.37326a6.13768,6.13768,0,0,0-1.03516.27418L243.38141,161.159l-1.79333,1.02956,8.14449,14.16622a6.28177,6.28177,0,0,0-.83678.801L234.7141,169.0989l-1.02117,1.79893,14.10965,8.016a6.19251,6.19251,0,0,0-.33214,1.0766H231.2897v2.06751h16.13755a6.18417,6.18417,0,0,0,.272,1.17189l-13.95455,8.02279,1.02956,1.79333,13.902-7.99254a6.2879,6.2879,0,0,0,.91459.95l-7.90765,13.91653,1.79893,1.02116,7.88247-13.87246a6.186,6.186,0,0,0,1.2115.32908v15.94662h2.06751V187.39769a6.18917,6.18917,0,0,0,1.24192-.3387l7.95136,13.83032,1.79333-1.02956-7.978-13.87665a6.28732,6.28732,0,0,0,.91074-.95472l13.94266,7.921,1.02117-1.79893-13.99783-7.9525a6.17547,6.17547,0,0,0,.26211-1.14006Zm-17.97811-.81973a4.34275,4.34275,0,1,1-4.34205-4.34345A4.34616,4.34616,0,0,1,257.9519,181.23818Z" fill="#f9c985"/><path d="M449.30077,102.8505l6.03864,2.295-6.03864,2.295a6.90188,6.90188,0,0,0-3.79756,3.52251l-3.54528,7.564-3.54529-7.564a6.90182,6.90182,0,0,0-3.79756-3.52251l-6.03864-2.295,6.03864-2.29495a6.90182,6.90182,0,0,0,3.79756-3.52251l3.54529-7.564,3.54528,7.564A6.90188,6.90188,0,0,0,449.30077,102.8505Z" fill="#f9c985"/><path d="M120.8928,134.97615l6.03864,2.295-6.03864,2.295a6.90182,6.90182,0,0,0-3.79756,3.52251l-3.54529,7.564-3.54528-7.564a6.90182,6.90182,0,0,0-3.79756-3.52251l-6.03864-2.29495,6.03864-2.295a6.90182,6.90182,0,0,0,3.79756-3.52251l3.54528-7.564,3.54529,7.564A6.90182,6.90182,0,0,0,120.8928,134.97615Z" fill="#f05b43"/><path d="M552.094,206.232l6.03864,2.295-6.03864,2.295a6.90185,6.90185,0,0,0-3.79756,3.52251l-3.54529,7.564-3.54528-7.564a6.90188,6.90188,0,0,0-3.79756-3.52251l-6.03864-2.29495,6.03864-2.295a6.90185,6.90185,0,0,0,3.79756-3.52251l3.54528-7.564,3.54529,7.564A6.90182,6.90182,0,0,0,552.094,206.232Z" fill="#ffcb5c"/><path d="M446.11328,196.30724l3.01932,1.14747-3.01932,1.14748a3.45093,3.45093,0,0,0-1.89878,1.76126l-1.77264,3.782-1.77265-3.782a3.45093,3.45093,0,0,0-1.89878-1.76126l-3.01932-1.14748,3.01932-1.14747a3.45093,3.45093,0,0,0,1.89878-1.76126l1.77265-3.782,1.77264,3.782A3.45093,3.45093,0,0,0,446.11328,196.30724Z" fill="#f05b43"/><path d="M222.49476,143.68872l3.01932,1.14748-3.01932,1.14747a3.45093,3.45093,0,0,0-1.89878,1.76126l-1.77264,3.782-1.77264-3.782a3.451,3.451,0,0,0-1.89878-1.76126l-3.01932-1.14747,3.01932-1.14748a3.451,3.451,0,0,0,1.89878-1.76126l1.77264-3.782,1.77264,3.782A3.45093,3.45093,0,0,0,222.49476,143.68872Z" fill="#ffcb5c"/><path d="M270.49476,110.68872l3.01932,1.14748-3.01932,1.14747a3.45093,3.45093,0,0,0-1.89878,1.76126l-1.77264,3.782-1.77264-3.782a3.451,3.451,0,0,0-1.89878-1.76126l-3.01932-1.14747,3.01932-1.14748a3.451,3.451,0,0,0,1.89878-1.76126l1.77264-3.782,1.77264,3.782A3.45093,3.45093,0,0,0,270.49476,110.68872Z" fill="#f05b43"/><path d="M408.1722,460.41543l3.01932,1.14747-3.01932,1.14748a3.451,3.451,0,0,0-1.89878,1.76126l-1.77264,3.782-1.77264-3.782a3.45093,3.45093,0,0,0-1.89878-1.76126L397.81,461.5629l3.01932-1.14747a3.45093,3.45093,0,0,0,1.89878-1.76126l1.77264-3.782,1.77264,3.782A3.451,3.451,0,0,0,408.1722,460.41543Z" fill="#f05b43"/><path d="M82.44693,347.2176l3.01932,1.14748-3.01932,1.14747a3.45093,3.45093,0,0,0-1.89878,1.76126l-1.77264,3.782-1.77265-3.782a3.45093,3.45093,0,0,0-1.89878-1.76126l-3.01932-1.14747,3.01932-1.14748a3.45093,3.45093,0,0,0,1.89878-1.76126l1.77265-3.782,1.77264,3.782A3.45093,3.45093,0,0,0,82.44693,347.2176Z" fill="#f05b43"/><rect x="236.31958" y="198.25403" width="216.90684" height="216.90684" transform="translate(317.8566 -153.9588) rotate(45)" fill="#f05b43"/><path d="M344.773,437.70605a1.5412,1.5412,0,0,1-1.09326-.45214l-9.92237-9.92188a1.5478,1.5478,0,0,1,0-2.1875l9.78956-9.78906-7.73584-7.73633-9.78956,9.79a1.59508,1.59508,0,0,1-2.18652,0l-89.76318-89.76367a1.54778,1.54778,0,0,1,0-2.1875l9.78906-9.78809-7.73584-7.73535-9.78906,9.78906a1.59312,1.59312,0,0,1-2.18653-.001l-9.92236-9.92286a1.54572,1.54572,0,0,1,0-2.18652l10.88233-10.88183a1.54659,1.54659,0,0,1,2.18652,0l8.8291,8.8291,6.77588-6.77539-8.8291-8.82911a1.54689,1.54689,0,0,1,0-2.1875L323.835,196.00586a1.54659,1.54659,0,0,1,2.18652,0l9.78956,9.78955,7.73584-7.73584L333.75732,188.27a1.54662,1.54662,0,0,1,0-2.18652l9.92237-9.92188a1.54661,1.54661,0,0,1,2.18652,0L356.749,187.044a1.54659,1.54659,0,0,1,0,2.18652l-8.8291,8.8291,6.77539,6.77539,8.83008-8.8291a1.54659,1.54659,0,0,1,2.18652,0l89.7627,89.76269a1.54661,1.54661,0,0,1,0,2.18653l-8.8291,8.83008,6.77539,6.77539,8.82812-8.8291a1.54661,1.54661,0,0,1,2.18653,0l10.88281,10.88183a1.54573,1.54573,0,0,1,.001,2.18652l-9.92188,9.92286a1.59434,1.59434,0,0,1-2.1875.001l-9.78906-9.79-7.73535,7.73633,9.78906,9.78809a1.54778,1.54778,0,0,1,0,2.1875l-89.7627,89.76367a1.54659,1.54659,0,0,1-2.18652,0l-8.83008-8.8291-6.77539,6.77539,8.8291,8.82812a1.54661,1.54661,0,0,1,0,2.18653l-10.88281,10.88379A1.5412,1.5412,0,0,1,344.773,437.70605Zm-7.73584-11.46777,7.73584,7.73535,8.6958-8.69629L345.7334,417.542Zm17.6582-21.39062a1.5401,1.5401,0,0,1,1.09278.45214l8.83007,8.82911,87.57618-87.57715-9.78907-9.78809a1.54661,1.54661,0,0,1,0-2.18652l8.82911-8.83008-7.86915-7.86816a1.54662,1.54662,0,0,1,0-2.18653l8.82911-8.83008-87.57618-87.57666-8.83007,8.82911a1.54662,1.54662,0,0,1-2.18653,0l-7.86816-7.86866-8.8291,8.82911a1.59119,1.59119,0,0,1-2.18653,0l-9.78955-9.78956L237.35156,286.8623l8.8291,8.82911a1.54689,1.54689,0,0,1,0,2.1875l-7.86914,7.86816,8.82911,8.8291a1.5478,1.5478,0,0,1,0,2.1875l-9.78907,9.78809,87.57666,87.57715,9.78955-9.79a1.59507,1.59507,0,0,1,2.18653,0l8.8291,8.83008,7.86816-7.86915A1.544,1.544,0,0,1,354.69531,404.84766ZM217.50684,306.707l7.73584,7.73633,8.6958-8.69531-7.73584-7.73633Zm238.10058-.96,8.69629,8.69629,7.73535-7.73633-8.69629-8.69531ZM337.03711,187.17676l8.69629,8.69629,7.73535-7.73584-8.6958-8.6958Z" fill="#ffcb5c"/><path d="M344.773,461.62988a1.54912,1.54912,0,0,1-1.09326-.45215l-153.37647-153.377a1.5478,1.5478,0,0,1,0-2.1875L343.67969,152.23779a1.54661,1.54661,0,0,1,2.18652,0L499.24316,305.61328a1.549,1.549,0,0,1,0,2.1875l-153.37695,153.377A1.54912,1.54912,0,0,1,344.773,461.62988ZM193.583,306.707,344.773,457.89746,495.96289,306.707,344.773,155.51758Z" fill="#ffcb5c"/><path d="M344.773,403.74316l-3.00635-3.00586,1.63965-1.64062,1.3667,1.36719.30322-.30371,1.64063,1.63867Zm4.12988-4.12988-1.63965-1.64062,2.18653-2.18653,1.64013,1.64063Zm-9.32275-1.0625-2.18653-2.18652,1.63965-1.64063,2.18653,2.18653Zm13.69629-3.31055-1.64063-1.64062,2.18653-2.18652,1.64062,1.64062Zm-18.06934-1.0625-2.18652-2.18652,1.63965-1.64062,2.18652,2.18652Zm22.44238-3.31054-1.64062-1.64063,2.18652-2.18652,1.64063,1.64062Zm-26.81591-1.0625-2.18653-2.18653,1.63965-1.64062,2.18652,2.18652Zm31.189-3.31055-1.64062-1.64062,2.18652-2.18653,1.64062,1.64063Zm-35.562-1.0625-2.18652-2.18652,1.63964-1.64063,2.18653,2.18653Zm39.93408-3.31055-1.63867-1.64062,2.1875-2.18652,1.63867,1.64062Zm-44.30713-1.0625-2.18652-2.18652,1.63965-1.64062,2.18652,2.18652Zm48.68213-3.31054-1.64062-1.64063,2.18652-2.18652,1.64062,1.64062Zm-53.05517-1.06348-2.18653-2.18652,1.63965-1.64063L319.354,375.044Zm57.42822-3.30957-1.64063-1.64062,2.18653-2.18653,1.64062,1.64063Zm-61.80127-1.06348-2.18652-2.18652,1.63964-1.64062,2.18653,2.18652Zm66.17432-3.30957-1.64063-1.64062,2.18652-2.18653,1.64063,1.64063Zm-70.54737-1.06347-2.18652-2.18653,1.63965-1.64062,2.18652,2.18652Zm74.92041-3.30957-1.64062-1.64063,2.18652-2.18652,1.64063,1.64062Zm-79.29394-1.06348-2.18653-2.18652,1.63965-1.64063,2.18653,2.18652Zm83.667-3.30957-1.64063-1.64063,2.18653-2.18652,1.64062,1.64063Zm-88.04-1.06348-2.18652-2.18652,1.63964-1.64063,2.18653,2.18653Zm92.41309-3.30957-1.64063-1.64062,2.18652-2.18653,1.64063,1.64063Zm-96.78614-1.06347-2.18652-2.18653,1.63965-1.64062,2.18652,2.18652Zm101.15918-3.30957-1.64062-1.64063,2.18652-2.18652,1.64063,1.64062Zm-105.53222-1.06348-2.18653-2.18652,1.63965-1.64063,2.18652,2.18652Zm109.90527-3.30957-1.64063-1.64063,2.18653-2.18652,1.64062,1.64063Zm-114.27832-1.06348-2.18652-2.18652,1.63964-1.64063,2.18653,2.18653Zm118.65137-3.31054-1.64063-1.63868,2.18652-2.1875,1.64063,1.63868Zm-123.02442-1.0625-2.187-2.18653,1.63965-1.64062,2.187,2.18652ZM410.127,338.38965l-1.64062-1.64063,2.18652-2.18652,1.64063,1.64063Zm-131.771-1.0625-2.18653-2.18652L277.80908,333.5l2.18653,2.18652ZM414.499,334.0166l-1.63867-1.64062,2.1875-2.18653,1.63867,1.64063Zm-140.51611-1.0625-2.18652-2.18652L273.436,329.127l2.18652,2.18653ZM418.874,329.64355l-1.64062-1.64062,2.18652-2.18652,1.64063,1.64062Zm-149.26464-1.06347-2.18653-2.1875,1.64063-1.63867,2.18652,2.1875Zm153.63769-3.30957-1.64062-1.64063,2.18652-2.18652,1.64062,1.64062ZM265.23682,324.207l-2.18653-2.18652,1.63965-1.64063,2.18652,2.18653Zm162.3833-3.30957-1.64063-1.64062,2.18653-2.18653,1.64062,1.64063ZM260.86377,319.834l-2.18652-2.18652,1.63964-1.64062,2.18653,2.18652Zm171.12939-3.30957-1.64062-1.64062,2.18652-2.18652,1.64063,1.64062Zm-175.50293-1.06347-2.18652-2.18653,1.63965-1.64062,2.18652,2.18652Zm179.876-3.30957-1.64062-1.64063,2.18652-2.18652,1.64062,1.64062Zm-184.249-1.06348-2.18653-2.18652,1.63965-1.64063,2.18653,2.18653Zm188.62207-3.30957-.82031-.82031-.56934.56933-1.93555-1.93554,1.64063-1.64063,2.75488,2.75586Zm-189.73047-1.06348-1.63965-1.64062,2.18652-2.18652,1.63965,1.64062Zm184.21875-3.30957-2.18652-2.18652,1.64062-1.64062,2.18652,2.18652Zm-179.8457-1.06347-1.63965-1.64063,2.18652-2.18652,1.63965,1.64062Zm175.47265-3.30957L428.668,296.8457l1.64062-1.64062,2.18653,2.18652Zm-171.09961-1.06348-1.63965-1.64062,2.18653-2.18653,1.63965,1.64063Zm166.72657-3.30957-2.18653-2.18652,1.64063-1.64063,2.18652,2.18652ZM264.12793,293.5957l-1.63965-1.64062,2.187-2.18653,1.63965,1.64063Zm157.97949-3.30957-2.18652-2.18652,1.64062-1.64063,2.18653,2.18653Zm-153.606-1.06347-1.63964-1.64063,2.18652-2.18652,1.63965,1.64062Zm149.23292-3.30957-2.18653-2.18653,1.64063-1.64062,2.18652,2.18652Zm-144.85987-1.06348-1.63965-1.64063,2.18653-2.18652,1.63965,1.64063Zm140.48682-3.31055-2.18653-2.1875,1.64063-1.63867,2.18652,2.1875Zm-136.11377-1.0625-1.63965-1.64062,2.18652-2.18653,1.63965,1.64063ZM408.98828,277.166l-2.18652-2.18653,1.64062-1.63965,2.18653,2.186Zm-127.36767-1.06348-1.63965-1.63965,2.18652-2.18652,1.63965,1.63965ZM404.61523,272.793l-2.18652-2.18652,1.64063-1.63965,2.18652,2.18652Zm-118.62158-1.06348-1.63965-1.63965,2.187-2.18652,1.63964,1.63965Zm114.24854-3.30957-2.18653-2.18652,1.64063-1.63965,2.18652,2.18652Zm-109.875-1.06347-1.63965-1.63965,2.18652-2.18653,1.63965,1.63965Zm105.502-3.31006-2.18652-2.18653,1.64062-1.63965,2.18653,2.18653Zm-101.12891-1.063-1.63964-1.63965,2.18652-2.18652,1.63965,1.63965Zm96.75586-3.31006-2.18652-2.18652,1.64063-1.63965,2.18652,2.18652Zm-92.38281-1.06348-1.63965-1.63965,2.18653-2.18652,1.63964,1.63965Zm88.00977-3.30957-2.18653-2.18652,1.64063-1.63965,2.18652,2.18652Zm-83.63672-1.06347-1.63965-1.63965,2.18652-2.18653,1.63965,1.63965Zm79.26269-3.30957-2.18652-2.18653,1.64063-1.63965,2.18652,2.18653Zm-74.88964-1.06348-1.63965-1.63965,2.18652-2.18652,1.63965,1.63965Zm70.5166-3.30957-2.18653-2.18652,1.64063-1.63965,2.18652,2.18652Zm-66.14307-1.06348-1.63965-1.63965,2.18653-2.18652,1.63964,1.63965Zm61.77-3.30957-2.18652-2.18652L373.457,238.355l2.18652,2.18652Zm-57.397-1.06347-1.63965-1.63965,2.18652-2.18653,1.63965,1.63965Zm53.02392-3.30957-2.18652-2.18653,1.64062-1.63965,2.18653,2.18653ZM320.979,236.74463l-1.63964-1.63965,2.18652-2.18652,1.63965,1.63965Zm44.27784-3.30957-2.18653-2.18652,1.64063-1.63965,2.18652,2.18652Zm-39.90479-1.06348-1.63965-1.63965,2.18653-2.18652,1.63964,1.63965Zm35.53174-3.31006-2.18652-2.18652,1.64062-1.63965,2.18652,2.18653Zm-31.15869-1.063-1.63965-1.63965,2.18652-2.187,1.63965,1.63964Zm26.78564-3.31006-2.18652-2.18653,1.64062-1.63965,2.18653,2.18653Zm-22.4126-1.06348-1.63964-1.63965,2.187-2.18652,1.63965,1.63965Zm18.03956-3.30957-2.18653-2.18652,1.63965-1.63965,2.1875,2.18652Zm-13.666-1.06348L336.832,217.6123l2.18652-2.18652,1.63965,1.63965Zm9.293-3.30957-2.18652-2.18652,1.63964-1.63965,2.18653,2.18652Zm-4.91992-1.06347-1.63965-1.63965,2.18652-2.18653,1.63965,1.63965Z" fill="#ffcb5c"/><path d="M309.69238,279.82031h1.20117v6.69043h-1.17334l-.62841-1.63476a10.82661,10.82661,0,0,1-2.9961,1.62793,9.96851,9.96851,0,0,1-3.24756.52343,9.57827,9.57827,0,0,1-7.061-2.70214,9.46976,9.46976,0,0,1-2.7168-7.01954,11.81278,11.81278,0,0,1,.4751-3.42187,9.26793,9.26793,0,0,1,1.43848-2.87793,9.93141,9.93141,0,0,1,3.55517-3.03809,10.17131,10.17131,0,0,1,4.60254-1.02636,9.80361,9.80361,0,0,1,3.02393.44726,8.497,8.497,0,0,1,2.57715,1.35449l.48877-1.59277h1.25732l.16748,6.17481h-1.20117a7.40461,7.40461,0,0,0-2.04639-3.64649,4.7709,4.7709,0,0,0-3.33154-1.29883,4.97955,4.97955,0,0,0-4.28809,2.31153,10.81307,10.81307,0,0,0-1.60644,6.26464,10.55878,10.55878,0,0,0,1.55029,6.15333,5.32274,5.32274,0,0,0,7.91309.79589A7.97392,7.97392,0,0,0,309.69238,279.82031Z" fill="#ffcb5c"/><path d="M313.08691,286.56641v-.97754a2.0968,2.0968,0,0,0,1.42481-.3916,1.65618,1.65618,0,0,0,.4331-1.28418V269.88867a2.02406,2.02406,0,0,0-.32128-1.376,2.1137,2.1137,0,0,0-1.355-.3418l-.01416-.99219q1.67652-.167,3.10108-.41894a24.17841,24.17841,0,0,0,2.57031-.58692v9.666a6.57739,6.57739,0,0,1,2.06738-1.66895,5.35914,5.35914,0,0,1,2.43018-.56543,3.59809,3.59809,0,0,1,2.95459,1.20117,5.59368,5.59368,0,0,1,.98437,3.60352V284.415a1.06688,1.06688,0,0,0,.2793.87305,2.91722,2.91722,0,0,0,1.32715.30078v.97754q-.60059-.02784-1.21533-.042-.61451-.01317-1.53613-.01367-.82471,0-1.9419.02051-1.11768.022-2.57031.06348v-.99219a2.43658,2.43658,0,0,0,1.29248-.34863q.30028-.26514.30029-1.39746v-5.44727a3.92069,3.92069,0,0,0-.41943-2.165,1.666,1.666,0,0,0-1.43848-.57324,2.16534,2.16534,0,0,0-1.83008.92285,4.13123,4.13123,0,0,0-.68408,2.51367v4.45606a2.86138,2.86138,0,0,0,.30713,1.63379,1.53309,1.53309,0,0,0,1.20117.3916v1.00586q-.79614-.04248-2.2207-.06348-1.4253-.0205-3.46436-.02051-.36327,0-1.36865.042C313.24951,286.56152,313.15186,286.56641,313.08691,286.56641Z" fill="#ffcb5c"/><path d="M330.5752,286.59473v-1.08985a2.75756,2.75756,0,0,0,1.45947-.335,1.49978,1.49978,0,0,0,.34228-1.17383v-6.76074a1.88655,1.88655,0,0,0-.34228-1.334,2.37257,2.37257,0,0,0-1.45947-.37012l-.01416-1.00488q1.82958-.19629,3.19873-.44727a15.49826,15.49826,0,0,0,2.249-.55859h.41894v10.47558a1.51909,1.51909,0,0,0,.33545,1.17383,2.74677,2.74677,0,0,0,1.46631.335v1.08985q-1.39673-.04248-2.27636-.06348-.88038-.0205-1.29932-.02051-1.08912,0-2.11621.02051Q331.51075,286.55323,330.5752,286.59473Zm1.45263-18.15918a2.186,2.186,0,1,1,4.37207,0,2.07982,2.07982,0,0,1-.63965,1.53027,2.201,2.201,0,0,1-3.09277,0A2.07794,2.07794,0,0,1,332.02783,268.43555Z" fill="#ffcb5c"/><path d="M339.82227,286.59473l-.01416-1.01953a3.04849,3.04849,0,0,0,1.45312-.37793q.32081-.26514.3208-1.25684v-6.38379a2.30733,2.30733,0,0,0-.34912-1.51465,1.98846,1.98846,0,0,0-1.4248-.37109v-1.06152a17.86478,17.86478,0,0,0,2.40966-.335,21.31156,21.31156,0,0,0,2.45166-.66992h.48877l.18164,2.52832a6.794,6.794,0,0,1,2.15137-1.90039,5.32687,5.32687,0,0,1,2.55567-.62793,3.73674,3.73674,0,0,1,2.97558,1.15235,5.03817,5.03817,0,0,1,1.00586,3.40136v5.78223q0,1.03418.30664,1.292a2.66676,2.66676,0,0,0,1.38281.32813v1.03418q-.99169-.04248-1.91992-.06348-.93018-.0205-1.79492-.02051-.75439,0-1.64844.02051-.895.022-1.92773.06348v-1.03418a1.92173,1.92173,0,0,0,1.29883-.31348,1.88912,1.88912,0,0,0,.32129-1.30664V278.1582a3.25313,3.25313,0,0,0-.42579-1.84472,1.4532,1.4532,0,0,0-1.27832-.61426,2.42063,2.42063,0,0,0-2.01855.99219,4.22131,4.22131,0,0,0-.76123,2.63964v4.45606a2.01894,2.01894,0,0,0,.35693,1.40332,1.97379,1.97379,0,0,0,1.333.38477l-.01367,1.01953q-1.27149-.04248-2.25586-.06348-.98437-.0205-1.71094-.02051-.81006,0-1.66943.02051Q340.74389,286.55323,339.82227,286.59473Z" fill="#ffcb5c"/><path d="M368.73633,283.21387l.97754.86621a6.38692,6.38692,0,0,1-2.40918,2.12988,7.35505,7.35505,0,0,1-3.31739.70606,6.825,6.825,0,0,1-4.93066-1.83692,6.24559,6.24559,0,0,1-1.91406-4.71484,6.476,6.476,0,0,1,1.97656-4.89551,7.0959,7.0959,0,0,1,5.11914-1.89258,5.5855,5.5855,0,0,1,4.20508,1.543,5.95977,5.95977,0,0,1,1.49414,4.32324v.23828h-8.40918c0,.06446-.00391.16309-.01367.293-.00879.13086-.01367.21875-.01367.26563a5.87825,5.87825,0,0,0,.9707,3.63867,3.31781,3.31781,0,0,0,2.80078,1.26367,3.87481,3.87481,0,0,0,1.09668-.15332,4.09362,4.09362,0,0,0,.998-.44726,4.65078,4.65078,0,0,0,.60742-.51661Q368.31739,283.689,368.73633,283.21387Zm-7.208-4.88867h4.69336v-.335a4.24841,4.24841,0,0,0-.55859-2.38867,1.83439,1.83439,0,0,0-1.62012-.82422,2.013,2.013,0,0,0-1.73926.87305A5.47124,5.47124,0,0,0,361.52832,278.3252Z" fill="#ffcb5c"/><path d="M371.99121,286.73438c.01856-.28907.03223-.58887.042-.90137q.01318-.46729.01368-1.208,0-.76758-.01368-1.23633-.01464-.46728-.042-.915h1.0332a4.59134,4.59134,0,0,0,1.54395,2.32617,3.821,3.821,0,0,0,2.4375.88672,2.41874,2.41874,0,0,0,1.52246-.47461,1.4219,1.4219,0,0,0,.61426-1.15918,1.40655,1.40655,0,0,0-.41211-1.04785,6.8443,6.8443,0,0,0-2.0459-1.01953,10.29045,10.29045,0,0,1-3.66016-1.91406,3.33294,3.33294,0,0,1-.82421-2.375,3.99938,3.99938,0,0,1,1.15234-2.99609,4.26285,4.26285,0,0,1,3.1084-1.124,5.95533,5.95533,0,0,1,1.8789.293,4.48592,4.48592,0,0,1,1.48731.79688l.54492-.93653h1.08984q-.01464.3501-.02148.72656-.00732.37794-.00684,1.13184,0,.72657.00684,1.13086.00732.40576.02148.78223h-1.08984a4.56469,4.56469,0,0,0-1.4668-1.99024,3.44308,3.44308,0,0,0-2.13672-.7334,2.14017,2.14017,0,0,0-1.3623.41211,1.282,1.282,0,0,0-.52344,1.05469q0,1.062,2.29,1.80176c.37305.12109.65723.21484.85254.2793a7.4941,7.4941,0,0,1,3.11524,1.78125,3.72661,3.72661,0,0,1,.97753,2.63281,3.83237,3.83237,0,0,1-1.31347,3.02441,5.10548,5.10548,0,0,1-3.49219,1.15235,7.04562,7.04562,0,0,1-2.2207-.32813,4.02824,4.02824,0,0,1-1.57813-.90137l-.43359,1.04786Z" fill="#ffcb5c"/><path d="M395.625,283.21387l.97754.86621a6.38685,6.38685,0,0,1-2.40918,2.12988,7.355,7.355,0,0,1-3.31738.70606,6.82505,6.82505,0,0,1-4.93067-1.83692,6.24563,6.24563,0,0,1-1.91406-4.71484,6.476,6.476,0,0,1,1.97656-4.89551,7.09593,7.09593,0,0,1,5.11914-1.89258,5.5855,5.5855,0,0,1,4.20508,1.543,5.95973,5.95973,0,0,1,1.49414,4.32324v.23828H388.417c0,.06446-.0039.16309-.01367.293-.00879.13086-.01367.21875-.01367.26563a5.87825,5.87825,0,0,0,.9707,3.63867,3.31781,3.31781,0,0,0,2.80078,1.26367,3.87481,3.87481,0,0,0,1.09668-.15332,4.09345,4.09345,0,0,0,.998-.44726,4.65078,4.65078,0,0,0,.60742-.51661Q395.20606,283.689,395.625,283.21387Zm-7.208-4.88867h4.69336v-.335a4.24841,4.24841,0,0,0-.55859-2.38867,1.83439,1.83439,0,0,0-1.62012-.82422,2.013,2.013,0,0,0-1.73926.87305A5.47124,5.47124,0,0,0,388.417,278.3252Z" fill="#ffcb5c"/><path d="M284.38232,320.9502V319.749a2.91061,2.91061,0,0,0,2.04639-.873,4.40106,4.40106,0,0,0,.55176-2.59082v-12.041l-.33545-.43262a2.647,2.647,0,0,0-.97754-.77539,4.23631,4.23631,0,0,0-1.45312-.27246v-1.11719q.41967.04248.978.0625.55884.022,1.81592.02149,1.21509,0,1.92041-.02149.70533-.0205,1.34815-.0625l11.4121,13.0459v-8.5625a4.22185,4.22185,0,0,0-.60791-2.59765,2.51734,2.51734,0,0,0-2.04589-.76856v-1.11719q1.03344.04248,1.85058.0625.81738.022,1.43164.02149.54492,0,1.40381-.02149.85914-.0205,2.11621-.0625V302.75a2.78136,2.78136,0,0,0-2.06738.82422,4.64956,4.64956,0,0,0-.55859,2.71V321.2998H301.605l-13.04639-15.25292v10.23828a4.33406,4.33406,0,0,0,.62891,2.60547,2.40839,2.40839,0,0,0,1.99707.85839v1.17383q-.96387-.04248-1.94141-.06347-.97777-.02052-2.34668-.02051-.7683,0-1.376.02832Q284.91333,320.895,284.38232,320.9502Z" fill="#ffcb5c"/><path d="M319.28906,317.542l.978.86621a6.39531,6.39531,0,0,1-2.40967,2.12989,7.35649,7.35649,0,0,1-3.31738.70605,6.827,6.827,0,0,1-4.93115-1.83691,6.247,6.247,0,0,1-1.91358-4.71485,6.47421,6.47421,0,0,1,1.97657-4.8955,7.09708,7.09708,0,0,1,5.11962-1.89258,5.5832,5.5832,0,0,1,4.20411,1.543,5.95788,5.95788,0,0,1,1.49462,4.32324v.23828h-8.40869c0,.06445-.00488.16309-.01416.293-.00927.13086-.01367.21875-.01367.26562a5.87825,5.87825,0,0,0,.9707,3.63867,3.31781,3.31781,0,0,0,2.80079,1.26368,3.87144,3.87144,0,0,0,1.09619-.15332,4.1,4.1,0,0,0,.999-.44727,4.71526,4.71526,0,0,0,.60742-.5166Q318.86987,318.0171,319.28906,317.542Zm-7.20752-4.88867h4.69336v-.335a4.25639,4.25639,0,0,0-.55859-2.38867,1.83633,1.83633,0,0,0-1.62061-.82422,2.01211,2.01211,0,0,0-1.73877.873A5.4608,5.4608,0,0,0,312.08154,312.65332Z" fill="#ffcb5c"/><path d="M326.92969,321.00684l-3.75733-9.69434a5.168,5.168,0,0,0-.894-1.66895,1.68034,1.68034,0,0,0-1.10352-.48242v-.96386q1.41064.02929,2.13721.042.72584.01464,1.355.01465.15308,0,1.48731-.02149,1.33374-.02051,2.47949-.03515v.96386a3.22275,3.22275,0,0,0-1.36865.23731.75492.75492,0,0,0-.36328.71289,3.316,3.316,0,0,0,.042.50976,2.50507,2.50507,0,0,0,.12549.4961l1.80175,4.749,3.19873-7.66894h1.11768l2.9751,8.11621,1.63428-4.0791a10.668,10.668,0,0,0,.37744-1.15235,3.63255,3.63255,0,0,0,.13964-.85937.84207.84207,0,0,0-.38427-.75391,3.42226,3.42226,0,0,0-1.38965-.36328v-.93555q.7544.041,1.38281.0625c.41895.01367.7959.02149,1.13135.02149q.48852,0,1.376-.042.887-.04248,1.166-.042v.99121q-1.25683.15381-2.15088,2.40235-.19556.48925-.30713.75488l-3.604,8.68848H334.333l-3.11524-7.459-3.00293,7.459Z" fill="#ffcb5c"/><path d="M354.61426,320.92285V319.749a3.60066,3.60066,0,0,0,2.23535-.53027,2.65583,2.65583,0,0,0,.55859-1.9834v-3.86914l-4.54-8.22754a11.36552,11.36552,0,0,0-.63574-1.06152,4.95607,4.95607,0,0,0-.53711-.68457,2.08846,2.08846,0,0,0-.6709-.41211,4.38308,4.38308,0,0,0-.99218-.24414v-1.08985q1.27148.04248,2.3955.0625,1.125.022,2.15821.02149,1.20117,0,2.41015-.02149,1.207-.0205,2.40918-.0625L359.419,302.75a4.17475,4.17475,0,0,0-1.64063.2793.82477.82477,0,0,0-.50977.78222,2.47225,2.47225,0,0,0,.23047.86621q.23.55811.8584,1.7461l2.80762,5.1123,2.82226-4.65136a11.75293,11.75293,0,0,0,.85157-1.62012,3.11478,3.11478,0,0,0,.26562-1.13184,1.11214,1.11214,0,0,0-.44726-1.00586,3.51626,3.51626,0,0,0-1.63379-.34863v-1.13184q.53027.04248,1.15234.0625.62109.022,1.87891.02149.65625,0,2.34668-.042c.2041-.00879.3584-.01368.46093-.01368.13965,0,.24122-.00292.30665-.00781.06543-.0039.13085-.01074.19531-.02051V302.792a2.85174,2.85174,0,0,0-1.25.47461,3.51862,3.51862,0,0,0-.94238,1.08985l-5.26661,8.67382v4.09278a2.79716,2.79716,0,0,0,.59375,2.08105,3.45257,3.45257,0,0,0,2.27051.54492l-.01465,1.17383q-1.08837-.04248-2.332-.06347-1.24365-.02052-2.64062-.02051-2.34669,0-3.37305.02051Q355.38233,320.88134,354.61426,320.92285Z" fill="#ffcb5c"/><path d="M377.67578,317.542l.97754.86621a6.38679,6.38679,0,0,1-2.40918,2.12989,7.355,7.355,0,0,1-3.31738.70605,6.825,6.825,0,0,1-4.93067-1.83691,6.24563,6.24563,0,0,1-1.91406-4.71485,6.476,6.476,0,0,1,1.97656-4.8955,7.09593,7.09593,0,0,1,5.11914-1.89258,5.58549,5.58549,0,0,1,4.20508,1.543,5.95971,5.95971,0,0,1,1.49414,4.32324v.23828h-8.40918c0,.06445-.0039.16309-.01367.293-.00879.13086-.01367.21875-.01367.26562a5.87825,5.87825,0,0,0,.9707,3.63867,3.31779,3.31779,0,0,0,2.80078,1.26368,3.87481,3.87481,0,0,0,1.09668-.15332,4.09348,4.09348,0,0,0,.99805-.44727,4.6506,4.6506,0,0,0,.60742-.5166Q377.25684,318.0171,377.67578,317.542Zm-7.208-4.88867h4.69336v-.335a4.24828,4.24828,0,0,0-.55859-2.38867,1.83437,1.83437,0,0,0-1.62012-.82422,2.013,2.013,0,0,0-1.73926.873A5.47123,5.47123,0,0,0,370.46777,312.65332Z" fill="#ffcb5c"/><path d="M387.71875,319.41406a8.13178,8.13178,0,0,1-2.03906,1.38965,4.87744,4.87744,0,0,1-2.02539.44043,3.32907,3.32907,0,0,1-2.43067-.87305,3.15826,3.15826,0,0,1-.89355-2.36816,3.30981,3.30981,0,0,1,.98437-2.47168,11.46608,11.46608,0,0,1,3.76465-2.01172l2.03906-.7539a1.06381,1.06381,0,0,0,.54493-.35645,1.01248,1.01248,0,0,0,.168-.60742v-.97852a1.90053,1.90053,0,0,0-.4121-1.31933,1.53171,1.53171,0,0,0-1.19434-.45411,1.8766,1.8766,0,0,0-1.04785.29981,2.05939,2.05939,0,0,0-.72656.8457q-.07032.15381-.18165.43262-.69873,1.6626-1.84375,1.66211a1.55358,1.55358,0,0,1-1.60644-1.60645,2.24543,2.24543,0,0,1,1.43945-2.0039,8.5596,8.5596,0,0,1,3.91114-.74707,7.22059,7.22059,0,0,1,4.07128.93554,3.16684,3.16684,0,0,1,1.36231,2.79395v6.74609a1.17954,1.17954,0,0,0,.11816.61524.43914.43914,0,0,0,.39844.18066,1.01033,1.01033,0,0,0,.39063-.10449,4.00265,4.00265,0,0,0,.55859-.31445l.60156.76855a3.84346,3.84346,0,0,1-1.45312,1.21484,4.0968,4.0968,0,0,1-1.87207.47559,2.91974,2.91974,0,0,1-1.7041-.44043A2.53163,2.53163,0,0,1,387.71875,319.41406Zm-.02734-2.43066v-3.15625a6.36235,6.36235,0,0,0-2.56348,1.34082,2.674,2.674,0,0,0-.78906,1.9834,1.98813,1.98813,0,0,0,.377,1.27051,1.20326,1.20326,0,0,0,.99219.47558,1.96931,1.96931,0,0,0,1.39648-.55176A1.79865,1.79865,0,0,0,387.69141,316.9834Z" fill="#ffcb5c"/><path d="M394.60645,320.89453V319.833a2.89843,2.89843,0,0,0,1.45214-.40528,1.3539,1.3539,0,0,0,.34961-1.07519v-5.83887a3.84076,3.84076,0,0,0-.37793-2.06054,1.62681,1.62681,0,0,0-1.38281-.53711l-.01367-1.00586q1.62012-.18165,2.81445-.42578a11.99843,11.99843,0,0,0,2.03223-.58008h.47558l.23731,2.48633a6.09181,6.09181,0,0,1,1.69727-1.73243,3.47014,3.47014,0,0,1,1.90625-.60058,2.57216,2.57216,0,0,1,1.73242.53125,1.86855,1.86855,0,0,1,.61425,1.49414,1.70342,1.70342,0,0,1-.48144,1.27148,1.76114,1.76114,0,0,1-1.292.47461,1.79165,1.79165,0,0,1-1.36914-.74707q-.62843-.74707-.89453-.74707-.58594,0-1.124.8584a3.45176,3.45176,0,0,0-.53808,1.86523v5.37793a1.29434,1.29434,0,0,0,.39843,1.10352,2.99274,2.99274,0,0,0,1.61328.293l-.01367,1.06152q-1.53661-.02782-2.42383-.042-.88769-.01318-1.627-.01367-1.21582,0-2.06055.01367Q395.48585,320.86718,394.60645,320.89453Z" fill="#ffcb5c"/><path d="M314.21143,355.168a26.89718,26.89718,0,0,1,4.67968-6.96973q.75366-.88036,1.11719-1.32715a11.98573,11.98573,0,0,0,1.88574-3.02441,7.96038,7.96038,0,0,0,.61475-3.06641,4.78889,4.78889,0,0,0-.76856-2.86328,2.39954,2.39954,0,0,0-2.03906-1.06152,2.23656,2.23656,0,0,0-1.73926.69824,2.73694,2.73694,0,0,0-.63525,1.91406,2.34647,2.34647,0,0,0,.43262,1.44532,1.299,1.299,0,0,0,1.07568.58007,2.16334,2.16334,0,0,0,.67041-.10449,2.26965,2.26965,0,0,0,.62891-.3291,1.20344,1.20344,0,0,0,.01367.168,3.42258,3.42258,0,0,1,.042.34961,2.03309,2.03309,0,0,1-.66357,1.57129,2.43373,2.43373,0,0,1-1.71094.60742,3.09824,3.09824,0,0,1-2.36768-.99219,3.54561,3.54561,0,0,1-.92871-2.52734,4.04914,4.04914,0,0,1,1.73877-3.332,7.03615,7.03615,0,0,1,4.40723-1.334,6.52389,6.52389,0,0,1,4.46289,1.48828,4.95541,4.95541,0,0,1,1.69678,3.918,5.82394,5.82394,0,0,1-.64258,2.79981,11.35916,11.35916,0,0,1-2.65381,2.89843q-.79614.68556-2.31885,1.8584a22.02522,22.02522,0,0,0-3.31006,2.97461h8.9253l-1.145,5.32227h-1.08985q.08424-.47462.11182-.66992a2.45269,2.45269,0,0,0,.02783-.33594.57292.57292,0,0,0-.20947-.52344,2.9867,2.9867,0,0,0-1.187-.13281h-9.12158Z" fill="#ffcb5c"/><path d="M330.21924,345.61328a14.49251,14.49251,0,0,1,.53808-4.05762,10.85994,10.85994,0,0,1,1.61329-3.34472,6.93345,6.93345,0,0,1,2.07421-1.99121,4.7442,4.7442,0,0,1,2.4375-.64942,4.79749,4.79749,0,0,1,2.29053.56543,6.62353,6.62353,0,0,1,1.99756,1.72559,10.21861,10.21861,0,0,1,1.77393,3.38769,13.77113,13.77113,0,0,1,.62841,4.19727,14.99371,14.99371,0,0,1-.58642,4.24609,11.25357,11.25357,0,0,1-1.68994,3.50586,6.32249,6.32249,0,0,1-1.99756,1.83008,4.9232,4.9232,0,0,1-2.41651.60059,4.83217,4.83217,0,0,1-2.36767-.58692,6.334,6.334,0,0,1-1.97656-1.78808,11.16226,11.16226,0,0,1-1.73194-3.47754A14.32028,14.32028,0,0,1,330.21924,345.61328Zm4.3999-.94922a37.47417,37.47417,0,0,0,.51025,7.83594q.50978,1.8999,1.8086,1.89941,1.25757,0,1.74609-1.91992a36.74058,36.74058,0,0,0,.48877-7.49414,26.20286,26.20286,0,0,0-.5166-6.37012q-.5171-1.75928-1.80176-1.75976-1.22973,0-1.73242,1.69726A24.85789,24.85789,0,0,0,334.61914,344.66406Z" fill="#ffcb5c"/><path d="M345.72363,355.168a26.94022,26.94022,0,0,1,4.67871-6.96973q.75587-.88036,1.11914-1.32715a12.03648,12.03648,0,0,0,1.88477-3.02441,7.95186,7.95186,0,0,0,.61523-3.06641,4.77865,4.77865,0,0,0-.76953-2.86328,2.39834,2.39834,0,0,0-2.03906-1.06152,2.23654,2.23654,0,0,0-1.73828.69824,2.7375,2.7375,0,0,0-.63672,1.91406,2.34386,2.34386,0,0,0,.43359,1.44532,1.29861,1.29861,0,0,0,1.07618.58007,2.16486,2.16486,0,0,0,.66992-.10449,2.26284,2.26284,0,0,0,.6289-.3291,1.133,1.133,0,0,0,.01368.168c.02734.18652.043.30273.043.34961a2.03678,2.03678,0,0,1-.66407,1.57129,2.437,2.437,0,0,1-1.71093.60742,3.10506,3.10506,0,0,1-2.36915-.99219,3.547,3.547,0,0,1-.92773-2.52734,4.05118,4.05118,0,0,1,1.73828-3.332,7.03906,7.03906,0,0,1,4.4082-1.334,6.52563,6.52563,0,0,1,4.4629,1.48828,4.95738,4.95738,0,0,1,1.69726,3.918,5.82944,5.82944,0,0,1-.64258,2.79981,11.4097,11.4097,0,0,1-2.65429,2.89843q-.79687.68556-2.31836,1.8584a22.06106,22.06106,0,0,0-3.31055,2.97461h8.92578l-1.14648,5.32227h-1.08985c.05664-.31641.09375-.54.11328-.66992a2.60661,2.60661,0,0,0,.02735-.33594.575.575,0,0,0-.209-.52344,2.99663,2.99663,0,0,0-1.1875-.13281h-9.12207Z" fill="#ffcb5c"/><path d="M363.63086,355.252l-.01367-1.11718a3.91442,3.91442,0,0,0,2.21386-.41211,2.3281,2.3281,0,0,0,.50977-1.80957V339.915a1.78,1.78,0,0,0-.41894-1.41113,3.4494,3.4494,0,0,0-1.89942-.335h-.40527v-1.02051a23.13279,23.13279,0,0,0,3.43652-.59278,11.83535,11.83535,0,0,0,2.57031-.98535l1.00489.01367q-.041.82471-.0625,1.42481-.02052.60206-.02051.96387v13.99609q0,1.36964.53711,1.76758a4.15077,4.15077,0,0,0,2.22851.39844V355.252q-1.48095-.04248-2.68261-.06347-1.20117-.02052-2.12305-.02051-1.21436,0-2.4375.02051Q364.84669,355.21046,363.63086,355.252Z" fill="#ffcb5c"/><path d="M597.18667,140.18594a2.944,2.944,0,0,0-3.3864-2.42208l-17.42709,2.89285,10.733-6.64785a3.02865,3.02865,0,0,0,.96535-.9653,2.98341,2.98341,0,1,0-5.07263-3.14188l-6.64784,10.733,2.8929-17.42713a3.01346,3.01346,0,0,0,0-.96422,2.944,2.944,0,1,0-5.80854.96422l2.893,17.42713-6.6479-10.733a3.02893,3.02893,0,0,0-.96534-.9654,2.98341,2.98341,0,0,0-3.14194,5.07258l10.733,6.64785-17.42708-2.89285a3.01461,3.01461,0,0,0-.96422,0,2.944,2.944,0,0,0,.96422,5.80858l17.42718-2.89294-10.73312,6.64784a3.03023,3.03023,0,0,0-.96534.9653,2.98343,2.98343,0,1,0,5.07262,3.142l6.6479-10.73312-2.893,17.42724a3.01249,3.01249,0,0,0,0,.96411,2.944,2.944,0,0,0,5.80854-.96411l-2.8929-17.42714,6.64784,10.733a3.03106,3.03106,0,0,0,.96535.9654,2.98345,2.98345,0,0,0,3.14193-5.07268l-10.73311-6.64784,17.42718,2.89294a3.01486,3.01486,0,0,0,.96426,0A2.94406,2.94406,0,0,0,597.18667,140.18594Z" fill="#ef8378"/><path d="M562.434,128.11a1.74361,1.74361,0,0,0,0-3.48513A1.74361,1.74361,0,0,0,562.434,128.11Z" fill="#ef8378"/><path d="M590.45454,128.11a1.74361,1.74361,0,0,0,0-3.48513A1.74361,1.74361,0,0,0,590.45454,128.11Z" fill="#ef8378"/><path d="M590.45454,152.64542a1.74361,1.74361,0,0,0,0,3.48513A1.74361,1.74361,0,0,0,590.45454,152.64542Z" fill="#ef8378"/><path d="M562.32945,152.64542a1.74361,1.74361,0,0,0,0,3.48513A1.74361,1.74361,0,0,0,562.32945,152.64542Z" fill="#ef8378"/></svg>