<svg id="Layer_1" data-name="Layer 1" xmlns="http://www.w3.org/2000/svg" viewBox="0 0 700 550"><title>Artboard 1 copy 6</title><path d="M635.81734,203.67253l-44.38064,1.06468,33.6324.80745-26.31139.628,22.12454.53234-34.82865.8314,49.26726,1.17828q-.34982,2.59287-.88521,5.1319l-30.30681.72374,20.31221.48448-13.40986.323,22.93192.55026a69.77833,69.77833,0,0,1-2.47617,8.10459l-40.92355.98089,25.65348.61608-16.81321.40074,30.99466.74166A71.71225,71.71225,0,0,1,612.353,252.1982l-32.11322.77156,30.39654.72973a2.22719,2.22719,0,0,1-.18538.1615l-22.89015.54428,21.5922.52036c-.012.012-.018.02391-.02987.02391l-34.26644.81946,32.21485.77157A71.70081,71.70081,0,0,1,493.219,189.69442v-.006l29.09867-.69381-16.8073-.40073,25.64756-.61608-37.55013-.89718a68.3689,68.3689,0,0,1,1.93192-8.37372l15.15048-.36484-13.41-.323,20.31228-.48448-21.5324-.51438q.99586-3.13116,2.2848-6.13075l37.32292-.89119-33.32743-.79552,20.62324-.49641L499.64881,168.15l30.63587-.73568-29.98394-.71775a71.70934,71.70934,0,0,1,103.858-27.25644l-28.45863.68187,29.92407.71775-23.02172.68786,25.50986.76558a71.53085,71.53085,0,0,1,27.86058,56.72593C635.97286,200.58025,635.925,202.13535,635.81734,203.67253Z" fill="#ffbbae"/><path d="M167.002,476.29506c-38.47915-28.91858-74.44636-84.40023-61.44417-128.386,11.03666-37.336,48.61182-37.07455,59.55128-76.20625,12.75076-45.6127-31.17353-71.46622-26.77876-108.27706C149.03963,73.7312,436.1359,6.77268,472.47633,70.28288c25.73171,44.97242-88.6196,130.27441-57.04938,186.28348,28.18,49.99743,134.84679,9.62205,165.32528,61.70678,25.40213,43.4069-15.171,128.7089-75.35925,166.37792-32.1546,20.12232-75.1436,18.91217-159.79638,19.843-93.19761,1.02355-140.57806.36986-178.59458-28.199" fill="#fff4f3"/><path d="M64.02714,175.05262c8.79032-3.68793,16.21764-6.77357,21.82611-9.09428,14.49808-5.99895,17.01288-6.9556,21.30645-7.53517,6.80433-.91841,12.85095.16723,24.94418,2.33851,15.664,2.81234,14.44971,4.23719,21.04655,4.4171,11.98371.32687,21.54434-4.22327,30.14083-8.31473,12.65543-6.02326,11.91517-8.75772,21.30646-11.95226a56.58511,56.58511,0,0,1,28.84162-1.81886c7.29666,1.50873,10.97966,3.92371,29.62118,15.33024,5.75649,3.5223,14.92531,9.1172,26.50312,16.10963Z" fill="#ffd4c9"/><path d="M627.2783,258.59123c-8.79032-3.68793-16.21764-6.77357-21.82611-9.09428-14.49808-5.999-17.01288-6.95561-21.30646-7.53517-6.80432-.91841-12.85094.16723-24.94417,2.33851-15.664,2.81234-14.44971,4.23718-21.04655,4.4171-11.98371.32687-21.54434-4.22327-30.14083-8.31473-12.65543-6.02327-11.91517-8.75772-21.30646-11.95226a56.585,56.585,0,0,0-28.84162-1.81886c-7.29666,1.50873-10.97966,3.92371-29.62119,15.33024-5.75648,3.5223-14.9253,9.1172-26.50311,16.10963Z" fill="#ffd4c9"/><path d="M515.08922,357.96378c-8.79032-3.68794-16.21764-6.77358-21.8261-9.09429-14.49808-5.99895-17.01289-6.9556-21.30646-7.53516-6.80433-.91842-12.85094.16722-24.94418,2.3385-15.664,2.81234-14.44971,4.23719-21.04654,4.4171-11.98372.32687-21.54435-4.22327-30.14083-8.31472-12.65544-6.02327-11.91517-8.75773-21.30646-11.95227a56.58509,56.58509,0,0,0-28.84163-1.81885c-7.29666,1.50872-10.97966,3.9237-29.62118,15.33024-5.75648,3.52229-14.92531,9.11719-26.50312,16.10962Z" fill="#ffd4c9"/><path d="M564.29387,504.75352c-17.15433-7.197-31.64878-13.21865-42.59371-17.74752-28.293-11.707-33.2007-13.57389-41.57962-14.7049-13.27867-1.79229-25.07866.32634-48.67863,4.5636-30.56832,5.48829-28.19866,8.26888-41.0724,8.62-23.38626.6379-42.04386-8.24171-58.81993-16.22621-24.69712-11.75442-23.25249-17.09072-41.57962-23.32487a110.42577,110.42577,0,0,0-56.28452-3.54951c-14.23945,2.94428-21.42684,7.65712-57.80583,29.917-11.23379,6.87377-29.12678,17.79223-51.72091,31.438Z" fill="#ffd4c9"/><rect x="389.8364" y="314.68682" width="5.4307" height="26.75122" fill="#f05b43"/><rect x="386.53753" y="303.04268" width="12.02843" height="12.02843" transform="translate(333.51197 -187.05533) rotate(45)" fill="#f05b43"/><rect x="389.83647" y="314.68682" width="2.95377" height="26.75122" fill="#cf2633"/><polygon points="387.999 309.057 394.528 302.528 392.552 300.552 384.046 309.057 392.552 317.562 394.528 315.586 387.999 309.057" fill="#cf2633"/><rect x="369.30354" y="228.87871" width="46.75616" height="66.89728" rx="23.37806" fill="#f05b43"/><path d="M380.09341,283.31767V241.337a12.458,12.458,0,0,1,11.75265-12.43716,23.37418,23.37418,0,0,0-22.54258,23.35692v20.14115a23.3742,23.3742,0,0,0,22.54258,23.35694A12.458,12.458,0,0,1,380.09341,283.31767Z" fill="#cf2633"/><path d="M392.68158,228.87872h.00012a23.3143,23.3143,0,0,1,8.30325,1.52311V224.0832H384.37833v6.31863A23.31385,23.31385,0,0,1,392.68158,228.87872Z" fill="#f05b43"/><path d="M397.77141,228.87872h-.00012a23.44164,23.44164,0,0,0-2.54485.1436,23.29962,23.29962,0,0,1,5.75851,1.37951v-1.302A23.43458,23.43458,0,0,0,397.77141,228.87872Z" fill="#cf2633"/><path d="M389.468,224.0832h-5.08971v6.31863a23.30084,23.30084,0,0,1,5.08971-1.30206Z" fill="#cf2633"/><path d="M392.6817,295.776h-.00012a23.31385,23.31385,0,0,1-8.30325-1.52311V304.8886H400.985V294.25288A23.3143,23.3143,0,0,1,392.6817,295.776Z" fill="#f05b43"/><path d="M384.37833,294.25288V304.8886h5.45814v-9.291A23.3009,23.3009,0,0,1,384.37833,294.25288Z" fill="#cf2633"/><path d="M392.55176,295.84985a12.93616,12.93616,0,0,1-12.01282-8.15033,14.0994,14.0994,0,0,1-.93152-5.09484c-.20581-6.7591-.27746-13.51819-.27551-20.27735-.047-6.75909.01221-13.51819.06689-20.27734a14.089,14.089,0,0,1,.8479-5.20142,13.09522,13.09522,0,0,1,2.83008-4.45941,12.80358,12.80358,0,0,1,9.475-3.91473,12.9328,12.9328,0,0,1,9.23791,4.13873,13.29329,13.29329,0,0,1,3.47608,9.43683c.02063,6.75909.2633,13.51825.35608,20.27734.07165,6.7591.04712,13.51825-.14832,20.27735a14.02993,14.02993,0,0,1-.92248,5.0899,12.73275,12.73275,0,0,1-2.80982,4.30115A12.90072,12.90072,0,0,1,392.55176,295.84985Zm0-.1477a11.95644,11.95644,0,0,0,8.90881-3.9715,12.21509,12.21509,0,0,0,2.478-4.25952,13.14484,13.14484,0,0,0,.608-4.86645c-.19543-6.7591-.22-13.51825-.14831-20.27735.09277-6.75909.33544-13.51825.35607-20.27734a12.853,12.853,0,0,0-.72363-4.90009,12.23494,12.23494,0,0,0-2.61865-4.18011,11.90916,11.90916,0,0,0-8.86035-3.68677,12.03279,12.03279,0,0,0-8.62329,3.91077,11.85971,11.85971,0,0,0-2.45777,4.10131A13.07126,13.07126,0,0,0,380.788,242.05c.05469,6.75915.1139,13.51825.067,20.27734.00183,6.75916-.0697,13.51825-.27551,20.27735a13.07828,13.07828,0,0,0,.59887,4.86157,12.01885,12.01885,0,0,0,11.37342,8.2359Z" fill="#ffcb5c"/><rect x="391.81348" y="195.16992" width="1.47656" height="28.91309" fill="#ffcb5c"/><circle cx="392.68163" cy="214.02763" r="3.10209" fill="#f05b43"/><circle cx="392.68163" cy="219.32358" r="1.58352" fill="#f05b43"/><circle cx="392.68163" cy="208.48874" r="1.58352" fill="#f05b43"/><path d="M391.16311,214.02762a3.10041,3.10041,0,0,1,2.31033-2.99621,3.10211,3.10211,0,1,0,0,5.99246A3.10046,3.10046,0,0,1,391.16311,214.02762Z" fill="#cf2633"/><path d="M392.68158,219.32359a1.57681,1.57681,0,0,1,.79186-1.36389,1.58357,1.58357,0,1,0,0,2.72776A1.57676,1.57676,0,0,1,392.68158,219.32359Z" fill="#cf2633"/><path d="M392.68158,208.48875a1.57678,1.57678,0,0,1,.79186-1.36389,1.58358,1.58358,0,1,0,0,2.72775A1.57675,1.57675,0,0,1,392.68158,208.48875Z" fill="#cf2633"/><path d="M392.69128,233.70148a5.14857,5.14857,0,0,1,4.01807.6441,7.3807,7.3807,0,0,1,2.62232,3.10358,13.15876,13.15876,0,0,1,1.33325,3.67718c.11438.63233.18335,1.26856.2688,1.893q.05035.95022.06665,1.88727l-.2201.02581q-.27337-.89639-.51562-1.77722c-.21948-.5733-.41944-1.147-.657-1.69873a14.7039,14.7039,0,0,0-.80689-1.58954l-.44263-.75494-.51208-.69653a23.83909,23.83909,0,0,0-2.42664-2.26886,28.28462,28.28462,0,0,0-2.74743-2.22437Z" fill="#fff"/><rect x="184.37731" y="242.83022" width="7.91613" height="38.99426" fill="#f05b43"/><rect x="184.37727" y="242.83021" width="3.95811" height="38.99427" fill="#cf2633"/><rect x="179.74419" y="225.77125" width="17.53339" height="17.53339" transform="translate(221.05693 -64.60275) rotate(45)" fill="#f05b43"/><polygon points="182.717 234.538 191.813 225.442 188.511 222.14 176.113 234.538 188.511 246.936 191.813 243.634 182.717 234.538" fill="#cf2633"/><rect x="187.58594" y="108.37109" width="1.49805" height="29.41602" fill="#ffcb5c"/><path d="M231.87409,190.66009c0-13.876-11.42872-25.71571-27.55992-30.52406v-7.00421H173.23611v6.76143c-16.59139,4.63493-28.43945,16.64165-28.43945,30.76684s11.84806,26.13191,28.43945,30.76683v4.76944h31.07806v-5.01221C220.44537,216.37579,231.87409,204.53623,231.87409,190.66009Z" fill="#f05b43"/><path d="M156.74854,190.66008c0-14.12519,11.848-26.13189,28.43941-30.76681v-6.76145H173.23611v6.76145c-16.59137,4.63492-28.43941,16.64162-28.43941,30.76681,0,14.12535,11.848,26.13193,28.43941,30.76685v4.76943H185.188v-4.76943C168.59658,216.792,156.74854,204.78543,156.74854,190.66008Z" fill="#cf2633"/><path d="M188.33539,166.03223c.58905,8.46368.72442,16.92736.74859,25.39105-.02105,8.46368-.156,16.92737-.74859,25.39105-.59265-8.46368-.72754-16.92737-.7486-25.39105C187.611,182.95959,187.74634,174.49591,188.33539,166.03223Z" fill="#ffcb5c"/><path d="M181.92322,218.24445a24.23879,24.23879,0,0,1-9.79895-11.33948A36.09385,36.09385,0,0,1,169.074,192.0058a35.68725,35.68725,0,0,1,3.26348-14.85455,23.76682,23.76682,0,0,1,10.03266-11.1247,26.23773,26.23773,0,0,0-8.96485,11.60053,38.10482,38.10482,0,0,0-2.8341,14.38861,38.5513,38.5513,0,0,0,2.62439,14.43274A26.80531,26.80531,0,0,0,181.92322,218.24445Z" fill="#ffcb5c"/><path d="M195.56213,218.24445a26.80569,26.80569,0,0,0,8.7276-11.796,38.5513,38.5513,0,0,0,2.62439-14.43274,38.10482,38.10482,0,0,0-2.8341-14.38861,26.23766,26.23766,0,0,0-8.96485-11.60053,23.76713,23.76713,0,0,1,10.03266,11.1247,35.6861,35.6861,0,0,1,3.26342,14.85455,36.09364,36.09364,0,0,1-3.05017,14.89917A24.23945,24.23945,0,0,1,195.56213,218.24445Z" fill="#ffcb5c"/><path d="M177.633,218.60889a36.61705,36.61705,0,0,1-9.26313-3.37744,32.97238,32.97238,0,0,1-7.95648-5.9552,25.73431,25.73431,0,0,1-5.52258-8.35163,23.63648,23.63648,0,0,1-1.696-9.91632,23.9,23.9,0,0,1,2.62305-9.70758,27.32708,27.32708,0,0,1,6.16718-7.87683,34.22712,34.22712,0,0,1,8.32354-5.42084,37.85916,37.85916,0,0,1,9.43561-2.85693,41.91121,41.91121,0,0,0-9.11133,3.51587,33.59894,33.59894,0,0,0-7.86389,5.6065c-4.63214,4.42481-7.83282,10.43787-8.07867,16.81079a24.12083,24.12083,0,0,0,6.5617,17.41431,32.41338,32.41338,0,0,0,7.47882,6.10327A40.355,40.355,0,0,0,177.633,218.60889Z" fill="#ffcb5c"/><path d="M201.17328,218.60889a40.35468,40.35468,0,0,0,8.90216-4.012,32.41338,32.41338,0,0,0,7.47882-6.10327,24.12089,24.12089,0,0,0,6.56171-17.41431c-.24585-6.37292-3.44654-12.386-8.07868-16.81079a33.59874,33.59874,0,0,0-7.86389-5.6065,41.90983,41.90983,0,0,0-9.11133-3.51587,37.85891,37.85891,0,0,1,9.43561,2.85693,34.226,34.226,0,0,1,8.32355,5.42084,27.32722,27.32722,0,0,1,6.16717,7.87683,23.89988,23.89988,0,0,1,2.623,9.70758,23.63631,23.63631,0,0,1-1.696,9.91632,25.73418,25.73418,0,0,1-5.52259,8.35163,32.97218,32.97218,0,0,1-7.95648,5.9552A36.61712,36.61712,0,0,1,201.17328,218.60889Z" fill="#ffcb5c"/><rect x="182.29139" y="138.11663" width="12.43899" height="12.43899" transform="translate(157.27461 -91.02225) rotate(45)" fill="#f05b43"/><polygon points="184.012 144.336 190.659 137.689 188.511 135.54 179.715 144.336 188.511 153.132 190.659 150.983 184.012 144.336" fill="#cf2633"/><path d="M173.23608,159.89325a42.71755,42.71755,0,0,1,7.7014-1.55035,61.924,61.924,0,0,1,7.85317-.43219,59.92952,59.92952,0,0,1,7.84656.56146,46.85639,46.85639,0,0,1,7.67694,1.66388c-2.62116-.14588-5.19788-.3916-7.78668-.5-2.58356-.138-5.16559-.21949-7.74781-.22821-2.58252-.04444-5.16577.01941-7.75335.09625C178.43762,159.59308,175.84949,159.72058,173.23608,159.89325Z" fill="#ffcb5c"/><path d="M173.23608,221.42694c5.23011-.04846,10.40326.1684,15.57715.22455,2.58527.055,5.16889.06549,7.74854.01556a74.67235,74.67235,0,0,0,7.75238-.48291,30.51869,30.51869,0,0,1-7.67945,1.64966,64.36429,64.36429,0,0,1-7.84491.31476c-2.61407-.05231-5.22308-.19745-7.81842-.48462A65.23,65.23,0,0,1,173.23608,221.42694Z" fill="#ffcb5c"/><circle cx="188.33538" cy="127.90524" r="4.47249" fill="#f05b43"/><path d="M187.32889,127.90524a4.47346,4.47346,0,0,1,2.73945-4.12394,4.4725,4.4725,0,1,0,0,8.24787A4.47338,4.47338,0,0,1,187.32889,127.90524Z" fill="#cf2633"/><path d="M202.1322,194.06726a41.55579,41.55579,0,0,0-.60394-7.49792,34.00794,34.00794,0,0,0-1.97846-7.1485,46.23612,46.23612,0,0,0-3.46557-6.42151,44.70051,44.70051,0,0,0-4.38275-5.97351l.12945-.18366a14.99641,14.99641,0,0,1,6.10413,4.88288,21.57183,21.57183,0,0,1,3.31116,7.10083,35.46551,35.46551,0,0,1,1.3977,7.61059,37.69,37.69,0,0,1-.28766,7.64826Z" fill="#fff"/><path d="M461.038,153.21006a58.10534,58.10534,0,0,1-10.42322-2.91486,50.56157,50.56157,0,0,0-10.61672-2.66045,33.708,33.708,0,0,0-5.51212-.14842c-1.82623.0732-3.64384.21167-5.457.3789-3.62535.34116-7.23273.8-10.83314,1.29707-7.18993.99277-14.39416,2.19158-21.49241,3.72553-7.05734,1.50552-14.24385,2.43586-21.4168,3.424-3.2105.42215-6.42137.76489-9.62959.97764q3.93968-1.8551,7.78183-3.89471a128.70581,128.70581,0,0,0,13.24595-8.00142c2.1332-1.46164,4.16217-3.06942,6.17265-4.6349l6.05869-4.70747c2.0277-1.55561,4.06022-3.10444,6.16163-4.54879a34.547,34.547,0,0,1,3.24165-2.01809,8.93711,8.93711,0,0,1,3.59167-1.20172,9.04134,9.04134,0,0,0-3.69146,1.00024,34.85717,34.85717,0,0,0-3.385,1.84124c-2.198,1.32835-4.3254,2.76087-6.44543,4.1982l-6.33032,4.349c-2.11534,1.45651-4.18965,2.91093-6.35944,4.21738a126.49717,126.49717,0,0,1-13.45883,7.08862c-4.60172,2.116-9.33933,4.0525-14.063,5.72689l-.04432.01571q-.04673.01671-.09308.03628a1.786,1.786,0,0,0-.83669.72962c-1.12732-.02831-2.25439-.07219-3.38044-.152a76.86622,76.86622,0,0,1-10.59481-1.38984c-3.49682-.71157-6.97268-1.63209-10.44772-2.60662-3.47447-.98194-6.94736-2.01511-10.42423-3.0472-3.4689-1.03753-6.91684-2.07963-10.32419-3.236-3.42261-1.139-6.73726-2.40654-10.1512-3.72622a48.82039,48.82039,0,0,0-5.37174-1.76222c-.34065-.08737-.68029-.14822-1.02063-.22636l30.87334-23.42906-35.51616,22.55305a71.6762,71.6762,0,0,0-11.033-.82516c-3.743-.01881-7.38393.40973-10.58373-.01368a21.57568,21.57568,0,0,1-4.746-1.20381,27.364,27.364,0,0,1-4.47484-2.176,21.2265,21.2265,0,0,1-3.8224-3.0886c-1.23744-1.21591-2.52622-2.56358-3.88541-3.85109a79.62622,79.62622,0,0,0-8.67924-7.11692,100.02629,100.02629,0,0,0-9.4245-5.99955,110.17414,110.17414,0,0,0-20.49014-8.80486,105.31143,105.31143,0,0,0-21.91968-4.38518c-2.36918-.23421-4.72855-.40162-7.08026-.54947a47.77229,47.77229,0,0,1,4.48972-3.10412,40.92571,40.92571,0,0,1,5.34869-2.77442,39.00756,39.00756,0,0,1,5.75406-1.97319,39.49066,39.49066,0,0,0-6.04817,1.1232,42.27093,42.27093,0,0,0-5.87228,2.02214,49.58026,49.58026,0,0,0-5.60481,2.78448c-.9135.53156-1.79951,1.0735-2.67641,1.65629-3.4114-.18546-6.90474-.31451-10.356-.31862a187.87567,187.87567,0,0,0-22.13193,1.25136l-.07851.00994a3.59793,3.59793,0,0,0,.9808,7.1287,180.884,180.884,0,0,1,21.2789-1.64451c3.574-.06832,7.09242-.01139,10.714.1193,3.61288.11657,7.18391.26384,10.72284.54a99.18711,99.18711,0,0,1,20.7695,3.70476A104.56575,104.56575,0,0,1,231.605,120.922a87.60911,87.60911,0,0,1,17.31979,11.99915c1.30012,1.18051,2.545,2.4313,3.92156,3.73066a26.04183,26.04183,0,0,0,4.709,3.62776c.22833.13525.45931.25486.689.38149a114.00485,114.00485,0,0,0,5.88627,13.70241,102.72023,102.72023,0,0,0,8.56216,14.02262,69.19161,69.19161,0,0,0,11.101,12.05278,53.55569,53.55569,0,0,0,6.67541,4.72855,45.04078,45.04078,0,0,0,7.39887,3.40134,44.81268,44.81268,0,0,1-7.1613-3.78321,52.88025,52.88025,0,0,1-6.31709-5.02039,67.84679,67.84679,0,0,1-10.21832-12.40363,100.47832,100.47832,0,0,1-7.60384-14.15647c-1.5185-3.46091-2.89523-7.02707-4.06339-10.60779.13316.05022.26467.10429.3984.15342a26.14876,26.14876,0,0,0,5.80737,1.34071,36.06271,36.06271,0,0,0,5.78356.07129c1.84409-.10073,3.61042-.21211,5.37611-.25276a67.499,67.499,0,0,1,10.53865.57822c1.7531.2313,3.4865.50509,5.15772.89767a44.97794,44.97794,0,0,1,4.99481,1.52939c3.37924,1.22711,6.87074,2.48005,10.35724,3.55963,3.48777,1.10377,7.00783,2.08868,10.511,3.058,3.49948.96054,7.002,1.92444,10.52972,2.84313,3.52987.91146,7.0914,1.778,10.72049,2.43889.29906.054.60109.09625.90109.147a1.79241,1.79241,0,0,0,.87607,1.081l.02672.01425c5.88139,3.1492,11.69845,6.58181,17.26312,10.29411a97.1846,97.1846,0,0,1,8.05131,5.9404c2.52109,2.12034,4.9244,4.53062,7.38255,6.847a104.31613,104.31613,0,0,0,15.76412,12.89225,49.83007,49.83007,0,0,0,9.09036,4.59951,39.26771,39.26771,0,0,0,9.888,2.23147,39.03619,39.03619,0,0,1-9.7219-2.64937,49.15509,49.15509,0,0,1-8.75845-4.9306,103.04074,103.04074,0,0,1-14.9943-13.41926c-2.35557-2.42382-4.61857-4.91319-7.16941-7.26287a99.54485,99.54485,0,0,0-7.97887-6.45473c-3.97792-2.91506-8.04929-5.65142-12.21906-8.26622.86594.06345,1.73176.11505,2.59593.14905,1.49279.07478,2.98483.09245,4.47559.08111a1.78438,1.78438,0,0,0,1.19963-.00892,125.87581,125.87581,0,0,0,16.24649-1.56137c3.60408-.543,7.17916-1.14676,10.76323-1.74974,3.591-.60431,7.18069-1.32418,10.72246-2.143,3.02029-.7181,6.04969-1.36179,9.08657-1.96515a1.79458,1.79458,0,0,0,.78084,1.62019,34.23256,34.23256,0,0,0,4.76686,2.63449c1.59373.75969,3.22126,1.40775,4.85348,2.0272a85.57859,85.57859,0,0,0,9.97923,2.9576c3.36107.81016,6.76608,1.37059,10.16817,1.85269,1.70175.23808,3.415.38739,5.11714.58456l5.12765.37465-5.06686-.82022c-1.67566-.3449-3.357-.641-5.01938-1.02437-3.32282-.77229-6.62323-1.61784-9.84069-2.69926a83.34,83.34,0,0,1-9.4205-3.71343c-1.51091-.73088-3.0075-1.48456-4.43736-2.3279a35.34747,35.34747,0,0,1-3.34371-2.169q4.26677-.79059,8.56013-1.4814c3.57585-.56923,7.15815-1.10016,10.74918-1.51312,1.79546-.20312,3.5932-.37725,5.3903-.48654a32.81572,32.81572,0,0,1,5.35673.0309,49.76817,49.76817,0,0,1,10.50769,2.40661,58.65816,58.65816,0,0,0,10.56745,2.71971,60.93292,60.93292,0,0,0,21.67844-.77457A60.70761,60.70761,0,0,1,461.038,153.21006Z" fill="#6c353c"/><circle cx="230.62773" cy="189.25118" r="4.42553" fill="#f05b43"/><circle cx="168.53089" cy="260.01565" r="4.42553" fill="#f05b43"/><circle cx="338.23459" cy="270.57447" r="4.42553" fill="#ffcb5c"/><circle cx="444.29529" cy="189.25118" r="4.42553" fill="#f05b43"/><circle cx="280.67113" cy="74.79519" r="4.42553" fill="#ffcb5c"/><circle cx="164.10536" cy="75.2703" r="4.42553" fill="#f05b43"/><circle cx="216.77551" cy="120.06875" r="4.42553" fill="#ffcb5c"/><circle cx="374.28262" cy="111.21769" r="4.42553" fill="#f05b43"/><circle cx="509.79696" cy="178.51037" r="4.42553" fill="#ffcb5c"/><circle cx="505.37143" cy="153.78379" r="4.42553" fill="#f05b43"/><circle cx="365.43156" cy="171.36082" r="4.42553" fill="#f05b43"/><circle cx="395.17584" cy="195.16947" r="4.42553" fill="#f05b43"/><path d="M501.3252,107.8291a5.4624,5.4624,0,1,1,5.46289-5.46289A5.4685,5.4685,0,0,1,501.3252,107.8291Zm0-8.85058a3.38818,3.38818,0,1,0,3.38867,3.38769A3.39213,3.39213,0,0,0,501.3252,98.97852Z" fill="#ffcb5c"/><path d="M340.417,89.584a5.4624,5.4624,0,1,1,5.46289-5.46289A5.4685,5.4685,0,0,1,340.417,89.584Zm0-8.85058a3.38819,3.38819,0,1,0,3.38867,3.38769A3.39213,3.39213,0,0,0,340.417,80.7334Z" fill="#ffcb5c"/><path d="M145.44336,211.06348a5.46289,5.46289,0,1,1,5.46191-5.46289A5.4685,5.4685,0,0,1,145.44336,211.06348Zm0-8.85157a3.38868,3.38868,0,1,0,3.38769,3.38868A3.393,3.393,0,0,0,145.44336,202.21191Z" fill="#ffcb5c"/><path d="M212.34961,236.8584a5.46289,5.46289,0,1,1,5.46289-5.46289A5.46829,5.46829,0,0,1,212.34961,236.8584Zm0-8.85156a3.38867,3.38867,0,1,0,3.38867,3.38867A3.39213,3.39213,0,0,0,212.34961,228.00684Z" fill="#ffcb5c"/><path d="M241.27539,291.14746a5.4624,5.4624,0,1,1,5.46289-5.46191A5.46829,5.46829,0,0,1,241.27539,291.14746Zm0-8.85058a3.38818,3.38818,0,1,0,3.38867,3.38867A3.393,3.393,0,0,0,241.27539,282.29688Z" fill="#ffcb5c"/><path d="M333.80859,329.24707a5.4624,5.4624,0,1,1,5.46289-5.46289A5.46829,5.46829,0,0,1,333.80859,329.24707Zm0-8.85059a3.38819,3.38819,0,1,0,3.38868,3.3877A3.3913,3.3913,0,0,0,333.80859,320.39648Z" fill="#ffcb5c"/><path d="M365.43164,241.28418a5.46289,5.46289,0,1,1,5.46289-5.46289A5.46851,5.46851,0,0,1,365.43164,241.28418Zm0-8.85156a3.38867,3.38867,0,1,0,3.38867,3.38867A3.393,3.393,0,0,0,365.43164,232.43262Z" fill="#ffcb5c"/><path d="M461.92285,256.58887a5.46289,5.46289,0,1,1,5.46289-5.46289A5.46851,5.46851,0,0,1,461.92285,256.58887Zm0-8.85157a3.38868,3.38868,0,1,0,3.38867,3.38868A3.393,3.393,0,0,0,461.92285,247.7373Z" fill="#ffcb5c"/><circle cx="531.43001" cy="246.70045" r="4.42553" fill="#ffcb5c"/><circle cx="447.47802" cy="289.35478" r="4.42553" fill="#f05b43"/><path d="M239.47852,64.1123a5.4624,5.4624,0,1,1,5.46289-5.46289A5.4683,5.4683,0,0,1,239.47852,64.1123Zm0-8.85058a3.38819,3.38819,0,1,0,3.38867,3.38769A3.3913,3.3913,0,0,0,239.47852,55.26172Z" fill="#ffcb5c"/><path d="M347.58079,190.83a3.88593,3.88593,0,0,0-3.88591-3.886,3.843,3.843,0,0,0-1.84711.48693,3.83057,3.83057,0,0,0,.04909-.48693,3.88595,3.88595,0,1,0-7.77189,0,3.8458,3.8458,0,0,0,.15565,1.03031,3.843,3.843,0,0,0-1.77962-.45034,3.87871,3.87871,0,0,0-.607,7.71076,3.88081,3.88081,0,1,0,6.407,4.13412,3.88406,3.88406,0,1,0,5.76016-4.6899A3.87275,3.87275,0,0,0,347.58079,190.83Zm-9.27986,5.613a3.87763,3.87763,0,0,0-2.98888-2.36183,3.75607,3.75607,0,0,0,.91928-3.70148,3.74406,3.74406,0,0,0,3.62667-.03658,3.82875,3.82875,0,0,0-.04909.48693,3.88113,3.88113,0,0,0,1.72173,3.22688A3.873,3.873,0,0,0,338.30093,196.44291Z" fill="#f05b43"/><ellipse cx="338.09791" cy="193.02496" rx="3.65871" ry="3.49142" fill="#fff"/><path d="M338.098,195.84492a2.82217,2.82217,0,1,1,2.92312-2.82036A2.87616,2.87616,0,0,1,338.098,195.84492Zm0-4.29158a1.47458,1.47458,0,1,0,1.574,1.47122A1.52677,1.52677,0,0,0,338.098,191.55334Z" fill="#ffcb5c"/><path d="M366.73455,145.26093a3.88593,3.88593,0,0,0-1.77839-5.19985,3.843,3.843,0,0,0-1.87285-.376,3.829,3.829,0,0,0,.25844-.41559,3.88594,3.88594,0,1,0-6.97826-3.42141,3.846,3.846,0,0,0-.31383.99362A3.84291,3.84291,0,0,0,354.65,135.654a3.87871,3.87871,0,0,0-3.93956,6.65613,3.88082,3.88082,0,1,0,3.93277,6.53251,3.88406,3.88406,0,1,0,7.23659-1.67521A3.87274,3.87274,0,0,0,366.73455,145.26093Zm-10.80324.95453a3.87763,3.87763,0,0,0-1.64392-3.43644,3.756,3.756,0,0,0,2.4549-2.91881,3.74411,3.74411,0,0,0,3.27244,1.56371,3.8301,3.8301,0,0,0-.25844.4156,3.88112,3.88112,0,0,0,.12536,3.65533A3.873,3.873,0,0,0,355.93131,146.21546Z" fill="#f05b43"/><ellipse cx="357.2537" cy="143.05716" rx="3.49142" ry="3.65871" transform="translate(71.53132 400.85219) rotate(-63.88151)" fill="#fff"/><path d="M356.01236,145.58919a2.82216,2.82216,0,1,1,3.86623-1.24551A2.87616,2.87616,0,0,1,356.01236,145.58919Zm1.88928-3.85334a1.47458,1.47458,0,1,0,.76558,2.0139A1.52678,1.52678,0,0,0,357.90164,141.73585Z" fill="#ffcb5c"/><path d="M388.191,192.90084a3.88593,3.88593,0,0,0-3.88591-3.886,3.8431,3.8431,0,0,0-1.84711.48692,3.82841,3.82841,0,0,0,.04909-.48692,3.88594,3.88594,0,1,0-7.77188,0,3.8462,3.8462,0,0,0,.15564,1.03031,3.843,3.843,0,0,0-1.77961-.45034,3.87871,3.87871,0,0,0-.60705,7.71075,3.88081,3.88081,0,1,0,6.407,4.13413,3.88406,3.88406,0,1,0,5.76016-4.6899A3.87275,3.87275,0,0,0,388.191,192.90084Zm-9.27986,5.613a3.87763,3.87763,0,0,0-2.98887-2.36182,3.756,3.756,0,0,0,.91927-3.70148,3.74406,3.74406,0,0,0,3.62667-.03658,3.83057,3.83057,0,0,0-.04909.48693,3.88114,3.88114,0,0,0,1.72174,3.22688A3.873,3.873,0,0,0,378.91116,198.51379Z" fill="#ffcb5c"/><ellipse cx="378.70814" cy="195.09585" rx="3.65871" ry="3.49142" fill="#fff"/><path d="M378.70823,197.9158a2.82216,2.82216,0,1,1,2.92313-2.82035A2.87616,2.87616,0,0,1,378.70823,197.9158Zm0-4.29157a1.47458,1.47458,0,1,0,1.574,1.47122A1.52676,1.52676,0,0,0,378.70823,193.62423Z" fill="#f05b43"/><path d="M421.61757,204.023a3.88593,3.88593,0,0,0-.09888-5.49466,3.843,3.843,0,0,0-1.66746-.93193,3.83055,3.83055,0,0,0,.37339-.31637,3.88594,3.88594,0,1,0-5.59358-5.39574,3.84608,3.84608,0,0,0-.6033.8496,3.8429,3.8429,0,0,0-.96816-1.55965,3.87871,3.87871,0,0,0-5.79021,5.12814,3.88081,3.88081,0,1,0,1.74106,7.42354,3.88407,3.88407,0,1,0,7.40174.62366A3.87275,3.87275,0,0,0,421.61757,204.023Zm-10.57578-2.40291a3.87766,3.87766,0,0,0-.51142-3.77493,3.75606,3.75606,0,0,0,3.23142-2.0258,3.7441,3.7441,0,0,0,2.63559,2.49153,3.83055,3.83055,0,0,0-.37339.31637,3.88114,3.88114,0,0,0-1.00114,3.51779A3.873,3.873,0,0,0,411.04179,201.62006Z" fill="#f05b43"/><ellipse cx="413.26864" cy="199.01914" rx="3.49142" ry="3.65871" transform="translate(-16.88702 358.28526) rotate(-46.03141)" fill="#fff"/><path d="M411.31091,201.04879a2.82216,2.82216,0,1,1,4.0619-.00045A2.87615,2.87615,0,0,1,411.31091,201.04879Zm2.97948-3.08874a1.47458,1.47458,0,1,0,.11142,2.15163A1.52678,1.52678,0,0,0,414.29039,197.96005Z" fill="#ffcb5c"/><path d="M466.00067,153.30023a3.88594,3.88594,0,0,0-5.45716.64849,3.84307,3.84307,0,0,0-.76031,1.75238,3.83007,3.83007,0,0,0-.35216-.33983,3.88594,3.88594,0,1,0-4.80862,6.10568,3.84589,3.84589,0,0,0,.90573.5152,3.8428,3.8428,0,0,0-1.45488,1.11945,3.8787,3.8787,0,0,0,5.68206,5.2477,3.88082,3.88082,0,1,0,7.21194-2.47553,3.88406,3.88406,0,1,0-.12051-7.427A3.87276,3.87276,0,0,0,466.00067,153.30023Zm-1.332,10.76322a3.87763,3.87763,0,0,0-3.70475.88678,3.756,3.756,0,0,0-2.33915-3.01237,3.74408,3.74408,0,0,0,2.21515-2.87178,3.83019,3.83019,0,0,0,.35217.33983,3.88109,3.88109,0,0,0,3.60034.64392A3.873,3.873,0,0,0,464.66863,164.06345Z" fill="#ffcb5c"/><ellipse cx="461.85784" cy="162.10819" rx="3.65871" ry="3.49142" transform="translate(48.74304 424.6494) rotate(-51.77727)" fill="#fff"/><path d="M464.07329,163.85288a2.82216,2.82216,0,1,1-.40711-4.04145A2.87616,2.87616,0,0,1,464.07329,163.85288Zm-3.37151-2.65529a1.47457,1.47457,0,1,0,2.12966-.32626A1.52676,1.52676,0,0,0,460.70178,161.19759Z" fill="#f05b43"/><path d="M492.12837,145.59012a3.88593,3.88593,0,0,0-3.88591-3.886,3.843,3.843,0,0,0-1.84711.48693,3.83057,3.83057,0,0,0,.04909-.48693,3.88594,3.88594,0,1,0-7.77188,0,3.84593,3.84593,0,0,0,.15564,1.03032,3.8429,3.8429,0,0,0-1.77962-.45035,3.87871,3.87871,0,0,0-.60705,7.71076,3.88081,3.88081,0,1,0,6.407,4.13412,3.88406,3.88406,0,1,0,5.76016-4.6899A3.87275,3.87275,0,0,0,492.12837,145.59012Zm-9.27986,5.613a3.87763,3.87763,0,0,0-2.98888-2.36183,3.75607,3.75607,0,0,0,.91928-3.70148,3.74406,3.74406,0,0,0,3.62667-.03658,3.82875,3.82875,0,0,0-.04909.48693,3.8811,3.8811,0,0,0,1.72174,3.22688A3.873,3.873,0,0,0,482.84851,151.20308Z" fill="#ffcb5c"/><ellipse cx="482.64549" cy="147.78513" rx="3.65871" ry="3.49142" fill="#fff"/><path d="M482.64558,150.60509a2.82216,2.82216,0,1,1,2.92312-2.82036A2.87616,2.87616,0,0,1,482.64558,150.60509Zm0-4.29158a1.47458,1.47458,0,1,0,1.574,1.47122A1.52677,1.52677,0,0,0,482.64558,146.31351Z" fill="#f05b43"/><path d="M260.24124,115.50383a3.88593,3.88593,0,0,0-3.88591-3.886,3.843,3.843,0,0,0-1.84711.48693,3.82875,3.82875,0,0,0,.04909-.48693,3.88594,3.88594,0,1,0-7.77188,0,3.84633,3.84633,0,0,0,.15564,1.03032,3.84286,3.84286,0,0,0-1.77961-.45035,3.87871,3.87871,0,0,0-.60705,7.71076,3.88081,3.88081,0,1,0,6.407,4.13412,3.88406,3.88406,0,1,0,5.76016-4.6899A3.87274,3.87274,0,0,0,260.24124,115.50383Zm-9.27985,5.613a3.87765,3.87765,0,0,0-2.98888-2.36183,3.75607,3.75607,0,0,0,.91928-3.70148,3.744,3.744,0,0,0,3.62666-.03658,3.83057,3.83057,0,0,0-.04909.48693,3.88112,3.88112,0,0,0,1.72174,3.22688A3.873,3.873,0,0,0,250.96139,121.11679Z" fill="#ffcb5c"/><ellipse cx="250.75837" cy="117.69884" rx="3.65871" ry="3.49142" fill="#fff"/><path d="M250.75846,120.5188a2.82216,2.82216,0,1,1,2.92312-2.82036A2.87616,2.87616,0,0,1,250.75846,120.5188Zm0-4.29158a1.47457,1.47457,0,1,0,1.574,1.47122A1.52677,1.52677,0,0,0,250.75846,116.22722Z" fill="#f05b43"/><path d="M216.78474,90.92738a4.5982,4.5982,0,0,0-4.59818-4.59825,4.54737,4.54737,0,0,0-2.18567.57618,4.533,4.533,0,0,0,.05808-.57618,4.59821,4.59821,0,1,0-9.19642,0,4.55086,4.55086,0,0,0,.18417,1.21917,4.54728,4.54728,0,0,0-2.10581-.5329,4.58966,4.58966,0,0,0-.71832,9.1241,4.59215,4.59215,0,1,0,7.58134,4.89189,4.596,4.596,0,1,0,6.816-5.54954A4.58259,4.58259,0,0,0,216.78474,90.92738Zm-10.98081,6.64178a4.5884,4.5884,0,0,0-3.53672-2.79474,4.44452,4.44452,0,0,0,1.08778-4.37994,4.4303,4.4303,0,0,0,4.29141-.04328,4.53259,4.53259,0,0,0-.05808.57618,4.5925,4.5925,0,0,0,2.03732,3.81835A4.58286,4.58286,0,0,0,205.80393,97.56916Z" fill="#f05b43"/><ellipse cx="205.5637" cy="93.52472" rx="4.32933" ry="4.13137" fill="#fff"/><path d="M205.56381,96.86156a3.33945,3.33945,0,1,1,3.45891-3.33731A3.40334,3.40334,0,0,1,205.56381,96.86156Zm0-5.0782a1.74486,1.74486,0,1,0,1.86249,1.74089A1.80663,1.80663,0,0,0,205.56381,91.78336Z" fill="#ffcb5c"/><path d="M428.69365,81.4679A3.07986,3.07986,0,0,0,425.6138,78.388a3.04584,3.04584,0,0,0-1.464.38592,3.03707,3.03707,0,0,0,.0389-.38592,3.07988,3.07988,0,1,0-6.15975,0,3.048,3.048,0,0,0,.12336.81659,3.04585,3.04585,0,0,0-1.41047-.35693,3.07415,3.07415,0,0,0-.48113,6.11131,3.07581,3.07581,0,1,0,5.078,3.27657,3.07839,3.07839,0,1,0,4.56533-3.71707A3.06941,3.06941,0,0,0,428.69365,81.4679Zm-7.35493,4.44866a3.07328,3.07328,0,0,0-2.36889-1.87191,2.97692,2.97692,0,0,0,.72859-2.93368,2.96745,2.96745,0,0,0,2.87438-.029,3.03525,3.03525,0,0,0-.0389.38592,3.07608,3.07608,0,0,0,1.36459,2.55753A3.06958,3.06958,0,0,0,421.33872,85.91656Z" fill="#ffcb5c"/><ellipse cx="421.17782" cy="83.2076" rx="2.89978" ry="2.76719" fill="#fff"/><path d="M421.17789,85.44261a2.23676,2.23676,0,1,1,2.31677-2.23533A2.27955,2.27955,0,0,1,421.17789,85.44261Zm0-3.40137a1.1687,1.1687,0,1,0,1.24749,1.166A1.21007,1.21007,0,0,0,421.17789,82.04124Z" fill="#f05b43"/><path d="M398.93669,152.84157a3.07988,3.07988,0,0,0,2.14308-3.7919,3.04576,3.04576,0,0,0-.76372-1.30723,3.03628,3.03628,0,0,0,.38226-.06582,3.07988,3.07988,0,1,0-1.64887-5.935,3.0481,3.0481,0,0,0-.75377.33744,3.04575,3.04575,0,0,0-.03366-1.45454,3.07414,3.07414,0,0,0-6.01707,1.17233,3.07581,3.07581,0,1,0-1.79772,5.76974,3.07839,3.07839,0,1,0,4.80349,3.40372A3.06942,3.06942,0,0,0,398.93669,152.84157Zm-6.2551-5.8957a3.07329,3.07329,0,0,0,1.16949-2.78352,2.97694,2.97694,0,0,0,3.02164-.08329,2.96746,2.96746,0,0,0,.79736,2.76172,3.03824,3.03824,0,0,0-.38225.06582,3.076,3.076,0,0,0-2.09891,1.99941A3.06961,3.06961,0,0,0,392.68159,146.94587Z" fill="#ffcb5c"/><ellipse cx="395.24862" cy="146.0657" rx="2.76719" ry="2.89978" transform="translate(-24.67553 111.13197) rotate(-15.52647)" fill="#fff"/><path d="M393.09519,146.664a2.23676,2.23676,0,1,1,2.77392,1.63387A2.27955,2.27955,0,0,1,393.09519,146.664Zm3.27725-.91049a1.16871,1.16871,0,1,0-.78956,1.5141A1.21009,1.21009,0,0,0,396.37244,145.75355Z" fill="#f05b43"/><path d="M437.462,139.1047a3.07987,3.07987,0,0,0-4.34.3685,3.04574,3.04574,0,0,0-.64887,1.36787,3.03473,3.03473,0,0,0-.26992-.27856,3.07988,3.07988,0,1,0-3.97145,4.70852,3.04888,3.04888,0,0,0,.70374.4322,3.04564,3.04564,0,0,0-1.18222.848,3.07414,3.07414,0,0,0,4.36128,4.308,3.07581,3.07581,0,1,0,5.77859-1.76906,3.07839,3.07839,0,1,0,.10213-5.88629A3.06941,3.06941,0,0,0,437.462,139.1047Zm-1.34148,8.49034a3.07329,3.07329,0,0,0-2.95821.60388,2.97693,2.97693,0,0,0-1.77275-2.4484,2.96739,2.96739,0,0,0,1.83107-2.21587,3.03473,3.03473,0,0,0,.26992.27856,3.076,3.076,0,0,0,2.83478.60585A3.0696,3.0696,0,0,0,436.12049,147.595Z" fill="#ffcb5c"/><ellipse cx="433.94602" cy="145.97146" rx="2.89978" ry="2.76719" transform="translate(42.58225 383.56611) rotate(-49.85368)" fill="#fff"/><path d="M435.65451,147.41241a2.23676,2.23676,0,1,1-.215-3.21216A2.27956,2.27956,0,0,1,435.65451,147.41241Zm-2.6-2.193a1.16871,1.16871,0,1,0,1.69564-.20179A1.21007,1.21007,0,0,0,433.0545,145.2194Z" fill="#f05b43"/><path d="M297.43037,125.667a3.07987,3.07987,0,0,0-3.07985-3.0799,3.04584,3.04584,0,0,0-1.464.38592,3.03689,3.03689,0,0,0,.0389-.38592,3.07988,3.07988,0,1,0-6.15975,0,3.0481,3.0481,0,0,0,.12336.8166,3.04573,3.04573,0,0,0-1.41047-.35693,3.07414,3.07414,0,0,0-.48113,6.1113,3.07581,3.07581,0,1,0,5.078,3.27658,3.07839,3.07839,0,1,0,4.56533-3.71707A3.06943,3.06943,0,0,0,297.43037,125.667Zm-7.35493,4.44865a3.07332,3.07332,0,0,0-2.36889-1.87191,2.9769,2.9769,0,0,0,.72859-2.93367,2.96745,2.96745,0,0,0,2.87438-.029,3.03506,3.03506,0,0,0-.0389.38592,3.07606,3.07606,0,0,0,1.36459,2.55752A3.06962,3.06962,0,0,0,290.07544,130.1156Z" fill="#ffcb5c"/><ellipse cx="289.91454" cy="127.40664" rx="2.89978" ry="2.76719" fill="#fff"/><path d="M289.91461,129.64165a2.23676,2.23676,0,1,1,2.31677-2.23532A2.27955,2.27955,0,0,1,289.91461,129.64165Zm0-3.40137a1.1687,1.1687,0,1,0,1.24749,1.166A1.21008,1.21008,0,0,0,289.91461,126.24028Z" fill="#f05b43"/><path d="M300.86054,95.97983a2.441,2.441,0,0,0-2.441-2.441,2.414,2.414,0,0,0-1.16029.30587,2.40635,2.40635,0,0,0,.03084-.30587,2.441,2.441,0,1,0-4.882,0,2.41579,2.41579,0,0,0,.09777.6472,2.414,2.414,0,0,0-1.11789-.28289,2.43647,2.43647,0,0,0-.38133,4.84363,2.43779,2.43779,0,1,0,4.02464,2.59691,2.43983,2.43983,0,1,0,3.61833-2.946A2.43272,2.43272,0,0,0,300.86054,95.97983Zm-5.82928,3.52586a2.43579,2.43579,0,0,0-1.87751-1.48362,2.35941,2.35941,0,0,0,.57746-2.32514,2.35186,2.35186,0,0,0,2.27814-.023,2.40616,2.40616,0,0,0-.03083.30587,2.438,2.438,0,0,0,1.08153,2.027A2.43286,2.43286,0,0,0,295.03126,99.50569Z" fill="#f05b43"/><ellipse cx="294.90373" cy="97.35865" rx="2.29827" ry="2.19319" fill="#fff"/><path d="M294.90379,99.13005A1.77278,1.77278,0,1,1,296.74,97.3584,1.80671,1.80671,0,0,1,294.90379,99.13005Zm0-2.69582a.92628.92628,0,1,0,.98872.92417A.95907.95907,0,0,0,294.90379,96.43423Z" fill="#ffcb5c"/><path d="M175.29871,119.07759a3.07421,3.07421,0,0,0,.84391-4.26491,3.0403,3.0403,0,0,0-1.13315-.99985,3.02984,3.02984,0,0,0,.34169-.18207,3.07421,3.07421,0,1,0-3.421-5.10878,3.04276,3.04276,0,0,0-.60876.55583,3.0403,3.0403,0,0,0-.48732-1.368,3.0685,3.0685,0,0,0-5.33582,2.9951,3.07016,3.07016,0,1,0,.1027,6.03134,3.07273,3.07273,0,1,0,5.61839,1.722A3.06378,3.06378,0,0,0,175.29871,119.07759Zm-7.77446-3.62933a3.06762,3.06762,0,0,0,.23688-3.00434,2.97146,2.97146,0,0,0,2.83779-1.02505,2.962,2.962,0,0,0,1.62043,2.36786,3.02971,3.02971,0,0,0-.34168.18207,3.07042,3.07042,0,0,0-1.36329,2.55219A3.064,3.064,0,0,0,167.52425,115.44826Z" fill="#ffcb5c"/><ellipse cx="169.68165" cy="113.81029" rx="2.7621" ry="2.89445" transform="translate(-34.63336 113.65665) rotate(-33.80779)" fill="#fff"/><path d="M167.828,115.05165a2.23265,2.23265,0,1,1,3.14064.68A2.27536,2.27536,0,0,1,167.828,115.05165Zm2.821-1.88908a1.16656,1.16656,0,1,0-.27426,1.68226A1.20785,1.20785,0,0,0,170.64905,113.16257Z" fill="#f05b43"/><path d="M188.97166,83.0838a3.07423,3.07423,0,0,0-4.29818-.65369,3.04025,3.04025,0,0,0-.94854,1.17642,3.03075,3.03075,0,0,0-.19706-.33326,3.07421,3.07421,0,1,0-4.95184,3.64451,3.0428,3.0428,0,0,0,.58232.58348,3.04021,3.04021,0,0,0-1.34506.54759,3.06849,3.06849,0,0,0,3.22907,5.19756,3.07016,3.07016,0,1,0,6.02083-.37041,3.07273,3.07273,0,1,0,1.47081-5.68931A3.06379,3.06379,0,0,0,188.97166,83.0838Zm-3.28053,7.928a3.06765,3.06765,0,0,0-3.0119-.10324,2.97147,2.97147,0,0,0-1.15-2.78947,2.962,2.962,0,0,0,2.29357-1.724,3.02918,3.02918,0,0,0,.19706.33326,3.0704,3.0704,0,0,0,2.6102,1.24862A3.064,3.064,0,0,0,185.69113,91.01175Z" fill="#ffcb5c"/><ellipse cx="183.95898" cy="88.92922" rx="2.89445" ry="2.7621" transform="translate(-16.91164 126.34989) rotate(-36.35279)" fill="#fff"/><path d="M185.28142,90.7259a2.23265,2.23265,0,1,1,.53989-3.16774A2.27536,2.27536,0,0,1,185.28142,90.7259Zm-2.01248-2.73437a1.16656,1.16656,0,1,0,1.69277.19929A1.20785,1.20785,0,0,0,183.26894,87.99153Z" fill="#f05b43"/><path d="M538.932,149.34331a3.07421,3.07421,0,0,0-3.0742-3.07424,3.04028,3.04028,0,0,0-1.46127.38521,3.02956,3.02956,0,0,0,.03883-.38521,3.07422,3.07422,0,1,0-6.14843,0,3.04264,3.04264,0,0,0,.12313.81509,3.04016,3.04016,0,0,0-1.40787-.35627,3.06849,3.06849,0,0,0-.48025,6.10007,3.07016,3.07016,0,1,0,5.06864,3.27056,3.07273,3.07273,0,1,0,4.55694-3.71024A3.06378,3.06378,0,0,0,538.932,149.34331Zm-7.34142,4.44048a3.06765,3.06765,0,0,0-2.36454-1.86847,2.97146,2.97146,0,0,0,.72726-2.92829,2.96194,2.96194,0,0,0,2.8691-.02894,3.0299,3.0299,0,0,0-.03884.38522,3.07042,3.07042,0,0,0,1.36209,2.55282A3.064,3.064,0,0,0,531.59062,153.78379Z" fill="#f05b43"/><ellipse cx="531.43001" cy="151.07981" rx="2.89445" ry="2.7621" fill="#fff"/><path d="M531.43008,153.31071a2.23265,2.23265,0,1,1,2.31252-2.23122A2.27537,2.27537,0,0,1,531.43008,153.31071Zm0-3.39512a1.16655,1.16655,0,1,0,1.2452,1.1639A1.20784,1.20784,0,0,0,531.43008,149.91559Z" fill="#ffcb5c"/><path d="M291.97644,179.50884a3.0742,3.0742,0,0,0-3.07419-3.07423,3.04028,3.04028,0,0,0-1.46127.38521,3.02974,3.02974,0,0,0,.03883-.38521,3.07422,3.07422,0,1,0-6.14843,0,3.0427,3.0427,0,0,0,.12313.81509,3.04017,3.04017,0,0,0-1.40788-.35627,3.06849,3.06849,0,0,0-.48024,6.10007,3.07016,3.07016,0,1,0,5.06864,3.27056,3.07273,3.07273,0,1,0,4.55693-3.71024A3.06377,3.06377,0,0,0,291.97644,179.50884Zm-7.34141,4.44048a3.06763,3.06763,0,0,0-2.36454-1.86846,2.97148,2.97148,0,0,0,.72725-2.92829,2.962,2.962,0,0,0,2.8691-.02894,3.02974,3.02974,0,0,0-.03883.38521,3.07041,3.07041,0,0,0,1.36208,2.55283A3.06394,3.06394,0,0,0,284.635,183.94932Z" fill="#ffcb5c"/><ellipse cx="284.47442" cy="181.24534" rx="2.89445" ry="2.7621" fill="#fff"/><path d="M284.47449,183.47625A2.23265,2.23265,0,1,1,286.787,181.245,2.27537,2.27537,0,0,1,284.47449,183.47625Zm0-3.39512a1.16655,1.16655,0,1,0,1.2452,1.1639A1.20784,1.20784,0,0,0,284.47449,180.08113Z" fill="#f05b43"/><path d="M309.33787,188.93679a3.07421,3.07421,0,0,0-1.13481-4.19688,3.04036,3.04036,0,0,0-1.459-.3937,3.02924,3.02924,0,0,0,.22551-.3147,3.07422,3.07422,0,1,0-5.33172-3.062,3.04275,3.04275,0,0,0-.29915.76814,3.04023,3.04023,0,0,0-1.04344-1.01009,3.0685,3.0685,0,0,0-3.45439,5.05062,3.07016,3.07016,0,1,0,2.76657,5.36038,3.07273,3.07273,0,1,0,5.79939-.948A3.06377,3.06377,0,0,0,309.33787,188.93679Zm-8.57766.19449a3.06764,3.06764,0,0,0-1.11992-2.79785,2.97151,2.97151,0,0,0,2.089-2.17713,2.962,2.962,0,0,0,2.5024,1.40376,3.03094,3.03094,0,0,0-.22552.31471,3.07042,3.07042,0,0,0-.09019,2.89207A3.06393,3.06393,0,0,0,300.76021,189.13128Z" fill="#f05b43"/><ellipse cx="301.96756" cy="186.70649" rx="2.7621" ry="2.89445" transform="translate(-10.3231 355.58001) rotate(-60.13113)" fill="#fff"/><path d="M300.85659,188.64109a2.23265,2.23265,0,1,1,3.11653-.78317A2.27535,2.27535,0,0,1,300.85659,188.64109Zm1.69083-2.94414a1.16656,1.16656,0,1,0,.50015,1.62943A1.20785,1.20785,0,0,0,302.54742,185.69695Z" fill="#ffcb5c"/><path d="M355.31512,248.61116a3.07421,3.07421,0,0,0-1.13482-4.19688,3.04024,3.04024,0,0,0-1.459-.39369,3.0289,3.0289,0,0,0,.22552-.3147,3.07422,3.07422,0,1,0-5.33172-3.062,3.04285,3.04285,0,0,0-.29916.76815,3.04014,3.04014,0,0,0-1.04343-1.0101,3.0685,3.0685,0,0,0-3.45439,5.05062,3.07016,3.07016,0,1,0,2.76657,5.36039,3.07273,3.07273,0,1,0,5.79938-.948A3.06378,3.06378,0,0,0,355.31512,248.61116Zm-8.57767.1945a3.06764,3.06764,0,0,0-1.11992-2.79786,2.9714,2.9714,0,0,0,2.089-2.17713,2.962,2.962,0,0,0,2.50241,1.40377,3.02783,3.02783,0,0,0-.22552.3147,3.07039,3.07039,0,0,0-.09019,2.89207A3.064,3.064,0,0,0,346.73745,248.80566Z" fill="#f05b43"/><ellipse cx="347.9448" cy="246.38087" rx="2.7621" ry="2.89445" transform="translate(-38.99096 425.40553) rotate(-60.13113)" fill="#fff"/><path d="M346.83384,248.31547a2.23265,2.23265,0,1,1,3.11652-.78317A2.27536,2.27536,0,0,1,346.83384,248.31547Zm1.69082-2.94414a1.16656,1.16656,0,1,0,.50016,1.62943A1.20785,1.20785,0,0,0,348.52466,245.37133Z" fill="#ffcb5c"/><path d="M239.69692,246.04013a3.07421,3.07421,0,0,0-1.13481-4.19688,3.04024,3.04024,0,0,0-1.459-.39369,3.03044,3.03044,0,0,0,.22551-.31471,3.07422,3.07422,0,1,0-5.33172-3.062,3.04275,3.04275,0,0,0-.29915.76814,3.04023,3.04023,0,0,0-1.04344-1.01009,3.0685,3.0685,0,0,0-3.45439,5.05062,3.07016,3.07016,0,1,0,2.76657,5.36038,3.07273,3.07273,0,1,0,5.79939-.948A3.06377,3.06377,0,0,0,239.69692,246.04013Zm-8.57766.19449a3.06764,3.06764,0,0,0-1.11992-2.79785,2.97151,2.97151,0,0,0,2.089-2.17713,2.962,2.962,0,0,0,2.5024,1.40376,3.03094,3.03094,0,0,0-.22552.31471,3.07042,3.07042,0,0,0-.09019,2.89207A3.06393,3.06393,0,0,0,231.11926,246.23462Z" fill="#f05b43"/><ellipse cx="232.32661" cy="243.80983" rx="2.7621" ry="2.89445" transform="translate(-94.79986 323.85457) rotate(-60.13113)" fill="#fff"/><path d="M231.21564,245.74443a2.23265,2.23265,0,1,1,3.11653-.78316A2.27535,2.27535,0,0,1,231.21564,245.74443Zm1.69083-2.94414a1.16656,1.16656,0,1,0,.50015,1.62943A1.20785,1.20785,0,0,0,232.90647,242.80029Z" fill="#ffcb5c"/><path d="M434.171,300.47652a3.07421,3.07421,0,0,0-1.13482-4.19688,3.04021,3.04021,0,0,0-1.459-.39369,3.0289,3.0289,0,0,0,.22552-.3147,3.07422,3.07422,0,1,0-5.33172-3.062,3.04282,3.04282,0,0,0-.29915.76815,3.04025,3.04025,0,0,0-1.04344-1.0101,3.0685,3.0685,0,0,0-3.45439,5.05062,3.07016,3.07016,0,1,0,2.76657,5.36039,3.07273,3.07273,0,1,0,5.79939-.948A3.06377,3.06377,0,0,0,434.171,300.47652Zm-8.57766.1945a3.06765,3.06765,0,0,0-1.11993-2.79786,2.97146,2.97146,0,0,0,2.089-2.17713,2.962,2.962,0,0,0,2.5024,1.40377,3.03081,3.03081,0,0,0-.22552.3147,3.07039,3.07039,0,0,0-.09019,2.89207A3.06393,3.06393,0,0,0,425.59332,300.671Z" fill="#f05b43"/><ellipse cx="426.80067" cy="298.24623" rx="2.7621" ry="2.89445" transform="translate(-44.38258 519.82232) rotate(-60.13113)" fill="#fff"/><path d="M425.6897,300.18083a2.23265,2.23265,0,1,1,3.11653-.78317A2.27536,2.27536,0,0,1,425.6897,300.18083Zm1.69083-2.94414a1.16656,1.16656,0,1,0,.50015,1.62943A1.20785,1.20785,0,0,0,427.38053,297.23669Z" fill="#ffcb5c"/><path d="M312.9452,156.5353a5.54045,5.54045,0,0,0-5.54042-5.5405,5.47934,5.47934,0,0,0-2.63356.69424,5.4595,5.4595,0,0,0,.07-.69424,5.54047,5.54047,0,1,0-11.08093,0,5.48367,5.48367,0,0,0,.22191,1.469,5.47922,5.47922,0,0,0-2.53733-.64209,5.53015,5.53015,0,0,0-.86551,10.99378,5.53316,5.53316,0,1,0,9.13489,5.89432,5.53779,5.53779,0,1,0,8.21267-6.68673A5.52166,5.52166,0,0,0,312.9452,156.5353Zm-13.231,8.0028a5.52865,5.52865,0,0,0-4.26146-3.36743,5.35527,5.35527,0,0,0,1.31068-5.27746,5.33823,5.33823,0,0,0,5.1708-.05215,5.45931,5.45931,0,0,0-.07.69424,5.53361,5.53361,0,0,0,2.4548,4.6008A5.522,5.522,0,0,0,299.71424,164.5381Z" fill="#ffcb5c"/><ellipse cx="299.42478" cy="159.66489" rx="5.21648" ry="4.97796" fill="#fff"/><path d="M299.42491,163.6855a4.02376,4.02376,0,1,1,4.1677-4.02118A4.10074,4.10074,0,0,1,299.42491,163.6855Zm0-6.11881a2.10241,2.10241,0,1,0,2.24415,2.09763A2.17683,2.17683,0,0,0,299.42491,157.56669Z" fill="#f05b43"/><path d="M272.01244,170.64a5.54044,5.54044,0,0,0-.62958-7.81006,5.47923,5.47923,0,0,0-2.4557-1.17778,5.45988,5.45988,0,0,0,.50318-.48341,5.54046,5.54046,0,1,0-8.4397-7.18042,5.4833,5.4833,0,0,0-.78289,1.26264,5.4792,5.4792,0,0,0-1.51646-2.13322,5.53016,5.53016,0,0,0-7.78317,7.81247,5.53316,5.53316,0,1,0,3.138,10.40875,5.53779,5.53779,0,1,0,10.58811.22891A5.52166,5.52166,0,0,0,272.01244,170.64Zm-15.26305-2.47837a5.52866,5.52866,0,0,0-1.06362-5.32619,5.35526,5.35526,0,0,0,4.418-3.17022,5.3382,5.3382,0,0,0,3.9721,3.31095,5.45988,5.45988,0,0,0-.50318.48341,5.53364,5.53364,0,0,0-1.11163,5.09487A5.522,5.522,0,0,0,256.74939,168.16163Z" fill="#f05b43"/><ellipse cx="259.68676" cy="164.26242" rx="4.97796" ry="5.21648" transform="translate(-33.6989 255.60906) rotate(-49.60917)" fill="#fff"/><path d="M257.0815,167.32477a4.02376,4.02376,0,1,1,5.78-.362A4.10074,4.10074,0,0,1,257.0815,167.32477Zm3.965-4.66034a2.10241,2.10241,0,1,0,.35,3.05184A2.17683,2.17683,0,0,0,261.04648,162.66443Z" fill="#ffcb5c"/><path d="M238.42866,131.175a5.54046,5.54046,0,0,0-7.51967,2.20184,5.47934,5.47934,0,0,0-.65477,2.64365,5.45977,5.45977,0,0,0-.57549-.39457,5.54046,5.54046,0,1,0-5.31775,9.72155,5.48393,5.48393,0,0,0,1.39527.51029,5.47906,5.47906,0,0,0-1.781,1.91791,5.53016,5.53016,0,0,0,9.22973,6.03527,5.53315,5.53315,0,1,0,9.55506-5.18555,5.53779,5.53779,0,1,0-1.92514-10.41414A5.52167,5.52167,0,0,0,238.42866,131.175Zm.67147,15.44838a5.52862,5.52862,0,0,0-4.99939,2.12264,5.35523,5.35523,0,0,0-4.001-3.68255,5.33819,5.33819,0,0,0,2.43572-4.56149,5.45826,5.45826,0,0,0,.57549.39457,5.53357,5.53357,0,0,0,5.21444.05428A5.522,5.522,0,0,0,239.10013,146.62335Z" fill="#f05b43"/><ellipse cx="234.68584" cy="144.53864" rx="5.21648" ry="4.97796" transform="translate(-4.74723 281.06945) rotate(-61.32103)" fill="#fff"/><path d="M238.21328,146.468a4.02376,4.02376,0,1,1-1.52778-5.58619A4.10073,4.10073,0,0,1,238.21328,146.468Zm-5.36817-2.93642a2.10241,2.10241,0,1,0,2.91727-.96219A2.17681,2.17681,0,0,0,232.84511,143.5316Z" fill="#ffcb5c"/><path d="M343.09109,116.08916a7.12139,7.12139,0,0,0-7.12135-7.12146,7.04278,7.04278,0,0,0-3.385.89234,7.01843,7.01843,0,0,0,.09-.89234,7.12141,7.12141,0,1,0-14.24282,0,7.04837,7.04837,0,0,0,.28523,1.88816,7.04267,7.04267,0,0,0-3.26134-.82531,7.10816,7.10816,0,0,0-1.11249,14.1308,7.112,7.112,0,1,0,11.74149,7.57624,7.118,7.118,0,1,0,10.55612-8.59476A7.09723,7.09723,0,0,0,343.09109,116.08916Zm-17.00635,10.28635a7.10621,7.10621,0,0,0-5.47744-4.3283,6.8834,6.8834,0,0,0,1.68467-6.78336,6.86141,6.86141,0,0,0,6.64626-.067,7.01859,7.01859,0,0,0-.09.89235,7.11261,7.11261,0,0,0,3.15527,5.91361A7.09762,7.09762,0,0,0,326.08474,126.37551Z" fill="#f05b43"/><ellipse cx="325.71268" cy="120.11175" rx="6.70498" ry="6.3984" fill="#fff"/><path d="M325.71285,125.27963a5.17192,5.17192,0,1,1,5.35694-5.16861A5.27087,5.27087,0,0,1,325.71285,125.27963Zm0-7.86478a2.70232,2.70232,0,1,0,2.8845,2.69617A2.798,2.798,0,0,0,325.71285,117.41485Z" fill="#ffcb5c"/><path d="M426.573,110.39188a7.12139,7.12139,0,0,0-9.80644-2.29406,7.04271,7.04271,0,0,0-2.40518,2.54357,7.018,7.018,0,0,0-.39425-.80557,7.12141,7.12141,0,1,0-12.10044,7.51247,7.04843,7.04843,0,0,0,1.23825,1.45371,7.04262,7.04262,0,0,0-3.20609,1.019,7.10816,7.10816,0,0,0,6.50824,12.59207,7.112,7.112,0,1,0,13.97148.2435,7.118,7.118,0,1,0,4.43494-12.86984A7.09723,7.09723,0,0,0,426.573,110.39188Zm-9.02269,17.70921a7.10616,7.10616,0,0,0-6.93652-.78813,6.88343,6.88343,0,0,0-2.14666-6.65162,6.86138,6.86138,0,0,0,5.61118-3.56256,7.018,7.018,0,0,0,.39425.80557,7.11259,7.11259,0,0,0,5.79983,3.35983A7.09761,7.09761,0,0,0,417.55028,128.10109Z" fill="#f05b43"/><ellipse cx="413.93033" cy="122.97576" rx="6.70498" ry="6.3984" transform="translate(-2.6018 236.82802) rotate(-31.83376)" fill="#fff"/><path d="M416.6563,127.36621a5.17192,5.17192,0,1,1,1.825-7.21671A5.27086,5.27086,0,0,1,416.6563,127.36621Zm-4.14833-6.68178a2.70232,2.70232,0,1,0,3.87274.76917A2.798,2.798,0,0,0,412.508,120.68443Z" fill="#ffcb5c"/><path d="M413.3503,170.10191a2.441,2.441,0,0,0-2.441-2.441,2.41408,2.41408,0,0,0-1.16029.30587,2.40453,2.40453,0,0,0,.03084-.30587,2.441,2.441,0,1,0-4.882,0,2.41592,2.41592,0,0,0,.09777.64721,2.41394,2.41394,0,0,0-1.11789-.28289,2.43647,2.43647,0,0,0-.38133,4.84363,2.43779,2.43779,0,1,0,4.02464,2.59691,2.43984,2.43984,0,1,0,3.61833-2.946A2.43272,2.43272,0,0,0,413.3503,170.10191Zm-5.82929,3.52586a2.43578,2.43578,0,0,0-1.87751-1.48361,2.35941,2.35941,0,0,0,.57746-2.32514,2.35192,2.35192,0,0,0,2.27815-.023,2.40453,2.40453,0,0,0-.03084.30587,2.438,2.438,0,0,0,1.08154,2.027A2.43284,2.43284,0,0,0,407.521,173.62777Z" fill="#f05b43"/><ellipse cx="407.39348" cy="171.48074" rx="2.29827" ry="2.19319" fill="#fff"/><path d="M407.39354,173.25214a1.77278,1.77278,0,1,1,1.8362-1.77165A1.8067,1.8067,0,0,1,407.39354,173.25214Zm0-2.69582a.92628.92628,0,1,0,.98872.92417A.95907.95907,0,0,0,407.39354,170.55632Z" fill="#ffcb5c"/><path d="M442.26,128.63977a2.441,2.441,0,0,0-2.441-2.441,2.41411,2.41411,0,0,0-1.16029.30587,2.40453,2.40453,0,0,0,.03084-.30587,2.441,2.441,0,1,0-4.882,0,2.41618,2.41618,0,0,0,.09777.6472,2.41394,2.41394,0,0,0-1.11789-.28289,2.43647,2.43647,0,0,0-.38133,4.84363,2.43779,2.43779,0,1,0,4.02464,2.59691,2.43983,2.43983,0,1,0,3.61834-2.946A2.43273,2.43273,0,0,0,442.26,128.63977Zm-5.82929,3.52586a2.43579,2.43579,0,0,0-1.8775-1.48362,2.35943,2.35943,0,0,0,.57745-2.32514,2.35188,2.35188,0,0,0,2.27815-.023,2.40616,2.40616,0,0,0-.03084.30587,2.438,2.438,0,0,0,1.08154,2.027A2.43287,2.43287,0,0,0,436.43068,132.16563Z" fill="#ffcb5c"/><ellipse cx="436.30315" cy="130.01859" rx="2.29827" ry="2.19319" fill="#fff"/><path d="M436.30321,131.79a1.77278,1.77278,0,1,1,1.8362-1.77165A1.8067,1.8067,0,0,1,436.30321,131.79Zm0-2.69582a.92628.92628,0,1,0,.98873.92417A.95906.95906,0,0,0,436.30321,129.09417Z" fill="#f05b43"/><path d="M520.86289,296.05976a2.441,2.441,0,0,0-2.441-2.441.603.603,0,1,1-1.12946,0,2.441,2.441,0,1,0-4.882,0,.58749.58749,0,1,1-1.02013.36431,2.43647,2.43647,0,0,0-.38132,4.84363,188.828,188.828,0,0,1,6.28347,4.11893,2.44078,2.44078,0,0,0,1.3595-4.46805A2.43272,2.43272,0,0,0,520.86289,296.05976Zm-5.82928,3.52586a2.43581,2.43581,0,0,0-1.87751-1.48361,1.32713,1.32713,0,1,1,1.69535-2.04225.603.603,0,1,1,1.12942,0,2.438,2.438,0,0,0,1.08153,2.027A2.43286,2.43286,0,0,0,515.03361,299.58562Z" fill="#ffcb5c"/><ellipse cx="514.90608" cy="297.43859" rx="2.29827" ry="2.19319" fill="#fff"/><path d="M514.90613,299.21a1.77278,1.77278,0,1,1,1.83621-1.77165A1.8067,1.8067,0,0,1,514.90613,299.21Zm0-2.69582a.92628.92628,0,1,0,.98873.92417A.95906.95906,0,0,0,514.90613,296.51417Z" fill="#f05b43"/><path d="M440.43274,259.64465a2.441,2.441,0,0,0-2.441-2.441.603.603,0,1,1-1.12946,0,2.441,2.441,0,1,0-4.882,0,2.41631,2.41631,0,0,0,.09776.64721,2.41394,2.41394,0,0,0-1.11789-.28289,2.43646,2.43646,0,0,0-.38132,4.84362,2.43779,2.43779,0,1,0,4.02464,2.59692,2.43983,2.43983,0,1,0,3.61833-2.946A2.43271,2.43271,0,0,0,440.43274,259.64465Zm-5.82928,3.52586a2.43581,2.43581,0,0,0-1.87751-1.48361,2.35949,2.35949,0,0,0,.57746-2.32514,1.13948,1.13948,0,1,1,2.2473.28289,2.438,2.438,0,0,0,1.08154,2.027A2.43284,2.43284,0,0,0,434.60346,263.17051Z" fill="#ffcb5c"/><ellipse cx="434.47593" cy="261.02348" rx="2.29827" ry="2.19319" fill="#fff"/><path d="M434.476,262.79488a1.77278,1.77278,0,1,1,1.83621-1.77165A1.8067,1.8067,0,0,1,434.476,262.79488Zm0-2.69582a.92628.92628,0,1,0,.98873.92417A.95906.95906,0,0,0,434.476,260.09906Z" fill="#f05b43"/><path d="M265.59954,214.46607a2.441,2.441,0,0,0-2.441-2.441,2.41411,2.41411,0,0,0-1.16029.30587,2.40434,2.40434,0,0,0,.03084-.30587,2.441,2.441,0,1,0-4.882,0,2.41632,2.41632,0,0,0,.09777.64721,2.41394,2.41394,0,0,0-1.11789-.28289,2.43647,2.43647,0,0,0-.38133,4.84363,2.43779,2.43779,0,1,0,4.02464,2.59691,2.43983,2.43983,0,1,0,3.61834-2.946A2.43273,2.43273,0,0,0,265.59954,214.46607Zm-5.82929,3.52587a2.43577,2.43577,0,0,0-1.8775-1.48362,2.35943,2.35943,0,0,0,.57745-2.32514,2.35192,2.35192,0,0,0,2.27815-.023,2.40635,2.40635,0,0,0-.03084.30587,2.438,2.438,0,0,0,1.08154,2.027A2.43287,2.43287,0,0,0,259.77025,217.99194Z" fill="#ffcb5c"/><ellipse cx="259.64272" cy="215.8449" rx="2.29827" ry="2.19319" fill="#fff"/><path d="M259.64278,217.6163a1.77278,1.77278,0,1,1,1.8362-1.77165A1.8067,1.8067,0,0,1,259.64278,217.6163Zm0-2.69582a.92628.92628,0,1,0,.98873.92417A.95906.95906,0,0,0,259.64278,214.92048Z" fill="#f05b43"/><path d="M162.50208,142.03594a2.441,2.441,0,0,0-2.441-2.441,2.41408,2.41408,0,0,0-1.16029.30587,2.40453,2.40453,0,0,0,.03084-.30587,2.441,2.441,0,1,0-4.882,0,2.41632,2.41632,0,0,0,.09777.64721,2.41394,2.41394,0,0,0-1.11789-.28289,2.43647,2.43647,0,0,0-.38133,4.84363,2.43779,2.43779,0,1,0,4.02464,2.59691,2.43983,2.43983,0,1,0,3.61834-2.946A2.43273,2.43273,0,0,0,162.50208,142.03594Zm-5.82929,3.52587a2.43577,2.43577,0,0,0-1.8775-1.48362,2.35943,2.35943,0,0,0,.57745-2.32514,2.35192,2.35192,0,0,0,2.27815-.023,2.40453,2.40453,0,0,0-.03084.30587,2.438,2.438,0,0,0,1.08154,2.027A2.43285,2.43285,0,0,0,156.67279,145.56181Z" fill="#ffcb5c"/><ellipse cx="156.54526" cy="143.41477" rx="2.29827" ry="2.19319" fill="#fff"/><path d="M156.54532,145.18617a1.77278,1.77278,0,1,1,1.8362-1.77165A1.8067,1.8067,0,0,1,156.54532,145.18617Zm0-2.69582a.92628.92628,0,1,0,.98873.92417A.95906.95906,0,0,0,156.54532,142.49035Z" fill="#f05b43"/><path d="M380.23943,76.34712a2.441,2.441,0,0,0-2.441-2.441,2.414,2.414,0,0,0-1.16029.30587,2.40616,2.40616,0,0,0,.03083-.30587,2.441,2.441,0,1,0-4.882,0,2.41631,2.41631,0,0,0,.09776.64721,2.41394,2.41394,0,0,0-1.11789-.28289,2.43647,2.43647,0,0,0-.38132,4.84363,2.43779,2.43779,0,1,0,4.02464,2.59691,2.43983,2.43983,0,1,0,3.61833-2.946A2.43273,2.43273,0,0,0,380.23943,76.34712ZM374.41015,79.873a2.43582,2.43582,0,0,0-1.87751-1.48362,2.35949,2.35949,0,0,0,.57746-2.32514,2.3519,2.3519,0,0,0,2.27814-.023,2.40635,2.40635,0,0,0-.03084.30587,2.438,2.438,0,0,0,1.08154,2.027A2.43284,2.43284,0,0,0,374.41015,79.873Z" fill="#ffcb5c"/><ellipse cx="374.28262" cy="77.72595" rx="2.29827" ry="2.19319" fill="#fff"/><path d="M374.28267,79.49735a1.77278,1.77278,0,1,1,1.83621-1.77165A1.8067,1.8067,0,0,1,374.28267,79.49735Zm0-2.69582a.92628.92628,0,1,0,.98873.92417A.95906.95906,0,0,0,374.28267,76.80153Z" fill="#f05b43"/><rect x="204.22033" y="409.46991" width="6.59382" height="22.87232" fill="#59625f"/><rect x="152.64754" y="409.46991" width="6.59382" height="22.87232" fill="#59625f"/><polygon points="152.648 422.96 152.648 432.342 152.648 409.47 159.241 409.47 152.648 422.96" fill="#434947"/><polygon points="204.22 422.96 204.22 432.342 204.22 409.47 210.814 409.47 204.22 422.96" fill="#434947"/><rect x="212.25659" y="446.83946" width="10.89175" height="57.91405" fill="#59625f"/><polygon points="212.257 477.76 223.148 446.839 212.257 446.839 212.257 504.754 212.257 477.76" fill="#434947"/><rect x="140.31361" y="446.83946" width="10.89175" height="57.91405" fill="#59625f"/><polygon points="140.314 475.796 151.205 446.839 140.314 446.839 140.314 504.754 140.314 475.796" fill="#434947"/><path d="M219.39986,409.46994c-11.87766.84578-24.60173,1.34985-38.081,1.33936-13.1716-.01021-25.61919-.51061-37.25706-1.33936A19.32713,19.32713,0,0,0,156.16622,391.749c6.55226,1.55286,44.42244,1.58943,51.12918,0a19.62738,19.62738,0,0,0,2.45917,9.16952A20.03664,20.03664,0,0,0,219.39986,409.46994Z" fill="#ffcb5c"/><path d="M237.45389,452.63553c-17.57039,1.25116-36.39286,1.99681-56.33253,1.9813-19.48448-.01511-37.898-.75534-55.11362-1.9813a28.59028,28.59028,0,0,0,17.90589-26.21418c9.69262,2.29711,65.71321,2.35122,75.63437,0a29.0345,29.0345,0,0,0,3.6378,13.5643A29.63972,29.63972,0,0,0,237.45389,452.63553Z" fill="#ffcb5c"/><path d="M198.87681,410.51725c-28.013-.66655-25.0516-17.66033-25.0516-17.66033l-.00043-.00029c-8.12609-.14578-15.16387-.51644-17.65861-1.10765a19.327,19.327,0,0,1-12.10447,17.72095c11.638.82879,24.08554,1.32907,37.25711,1.33917C187.33294,410.814,193.17156,410.70229,198.87681,410.51725Z" fill="#f29720"/><path d="M126.00775,452.63538c17.21563,1.22629,35.62912,1.96646,55.1136,1.98147,1.07806.00086,2.117-.024,3.18857-.02771C162.933,451.77212,159.2413,427.755,159.2413,427.755l-.01906-.00231c-7.142-.29127-12.79282-.735-15.30863-1.33137a28.58943,28.58943,0,0,1-17.90586,26.2141Z" fill="#f29720"/><path d="M184.92249,400.31688c-16.49148,0-29.70361-1.45493-29.89529-1.47571l.26328-2.351c.27481.03,27.87686,3.07152,53.00323.30023l.25865,2.351A219.00457,219.00457,0,0,1,184.92249,400.31688Z" fill="#f05b43"/><path d="M174.21954,397.75806c-10.09919-.36316-17.46144-1.112-18.7218-1.24564-.09771.36922-.208.7445-.33674,1.13363l-.1338,1.19512c.1517.01645,8.47106.929,20.10283,1.30972A13.42633,13.42633,0,0,1,174.21954,397.75806Z" fill="#cf2633"/><path d="M223.18579,439.98551a28.556,28.556,0,0,1-3.05395-8.28369h0S204.52,445.43863,200.44,446.83951c0,0,3.36084,5.01612,13.53516,7.10694q12.07214-.49733,23.4787-1.311A29.63752,29.63752,0,0,1,223.18579,439.98551Z" fill="#f29720"/><path d="M179.21364,438.86322c-23.27422,0-36.8189-2.44567-37.01982-2.48492l.43417-2.32327c.30022.05543,30.42415,5.48485,78.319-.01386l.26789,2.351A369.533,369.533,0,0,1,179.21364,438.86322Z" fill="#f05b43"/><path d="M216.91418,434.48111c-.93853.80078-2.029,1.72217-3.1986,2.6958q3.6762-.35009,7.49926-.78466l-.133-1.16748q-.19812-.58814-.36377-1.1587Q218.796,434.28581,216.91418,434.48111Z" fill="#cf2633"/><path d="M161.67253,436.00763a179.51319,179.51319,0,0,1-18.912-1.92922c-.10248.35536-.21752.71419-.3389,1.08081l-.22777,1.21908a182.09066,182.09066,0,0,0,20.73921,2.0623C162.45715,437.62191,162.03655,436.80813,161.67253,436.00763Z" fill="#cf2633"/><rect x="372.24959" y="417.06547" width="15.00003" height="87.68805" fill="#59625f"/><rect x="354.02101" y="362.72218" width="12.58335" height="43.64848" fill="#59625f"/><rect x="402.81645" y="417.06547" width="15.00003" height="87.68805" fill="#59625f"/><polygon points="417.816 451.772 402.816 504.754 402.816 417.065 417.816 417.065 417.816 451.772" fill="#434947"/><rect x="501.89603" y="417.06547" width="15.00003" height="87.68805" fill="#59625f"/><polygon points="501.896 460.909 501.896 504.754 501.896 417.065 516.896 417.065 501.896 460.909" fill="#434947"/><path d="M536.59761,417.6c-24.19781,1.72308-50.12,2.75-77.58074,2.72863-26.83388-.02082-52.1928-1.04025-75.90208-2.72863a39.37431,39.37431,0,0,0,24.65986-36.102c13.34862,3.16357,90.49976,3.23809,104.1631,0a39.98632,39.98632,0,0,0,5.01,18.68066A40.81974,40.81974,0,0,0,536.59761,417.6Z" fill="#ffcb5c"/><path d="M445.0905,384.54651l-.80252-.78347c-16.78074-.28983-31.3762-1.0476-36.51333-2.26495a39.37423,39.37423,0,0,1-24.65986,36.10183c23.70925,1.68846,49.06814,2.70778,75.902,2.72856q4.77073.0039,9.47435-.03724C443.81816,417.96827,445.0905,384.54651,445.0905,384.54651Z" fill="#f29720"/><rect x="255.60189" y="362.72218" width="12.58335" height="43.64848" fill="#59625f"/><polygon points="255.602 382.876 255.602 406.371 255.602 362.722 268.185 362.722 255.602 382.876" fill="#434947"/><polygon points="354.39 382.876 354.39 406.371 354.39 362.722 366.973 362.722 354.39 382.876" fill="#434947"/><path d="M382.98893,362.72223c-22.66678,1.614-46.94882,2.576-72.67211,2.556-25.13606-.0195-48.89048-.97444-71.09965-2.556a36.883,36.883,0,0,0,23.0996-33.81777c12.504,2.96341,84.77372,3.03321,97.57256,0a37.45613,37.45613,0,0,0,4.693,17.49871A38.237,38.237,0,0,0,382.98893,362.72223Z" fill="#f05b43"/><rect x="234.9567" y="417.06547" width="15.00003" height="87.68805" fill="#59625f"/><polygon points="234.702 482.908 234.957 504.754 234.957 417.065 249.957 417.065 234.702 482.908" fill="#434947"/><polygon points="372.122 482.908 372.377 504.754 372.377 417.065 387.377 417.065 372.122 482.908" fill="#434947"/><path d="M417.44239,447.99083c-33.53052,2.38764-69.45045,3.81061-107.50239,3.781-37.18328-.02885-72.32272-1.44146-105.17629-3.781a54.56033,54.56033,0,0,0,34.17077-50.026c18.497,4.3837,125.40407,4.487,144.33714,0a55.40819,55.40819,0,0,0,6.9422,25.88548A56.5632,56.5632,0,0,0,417.44239,447.99083Z" fill="#f05b43"/><path d="M205.33335,448.029c32.69155,2.31547,67.63636,3.71411,104.60667,3.74269q14.35875.01125,28.30758-.24624l-.00087-.00029c-59.16849-9.81557-53.634-50.2458-53.634-50.2458l-.9776-.29272c-20.71944-.46881-38.19141-1.47918-44.70062-3.02186a54.54675,54.54675,0,0,1-33.63509,49.80182Z" fill="#cf2633"/><path d="M298.6603,331.06176l-.00462-.00057c-16.60783-.24191-31.30966-.96476-36.339-2.1567A36.88188,36.88188,0,0,1,239.21713,362.722c22.20915,1.58166,45.96358,2.5366,71.09976,2.55623,4.81844.00375,9.56889-.03782,14.285-.10075C295.24656,357.12719,298.6603,331.06176,298.6603,331.06176Z" fill="#cf2633"/><path d="M313.24522,342.60707a470.63785,470.63785,0,0,1-52.47669-2.82671l.29561-2.34636c.50345.06235,50.897,6.29545,100.13133,0l.30022,2.34636A385.88762,385.88762,0,0,1,313.24522,342.60707Z" fill="#ffcb5c"/><path d="M314.85257,418.30025c-44.02425,0-78.06032-3.29553-78.56839-3.344l.23094-2.35559c.76211.07621,77.13425,7.45938,149.22705.0023l.2448,2.351A701.25809,701.25809,0,0,1,314.85257,418.30025Z" fill="#ffcb5c"/><path d="M456.13756,403.44382c-40.38,0-52.1118-3.69967-52.76306-3.91676l.74594-2.24474c.22171.0739,22.98324,7.14993,112.75456,1.71589l.14318,2.36022C491.7394,402.88725,471.78842,403.44382,456.13756,403.44382Z" fill="#f05b43"/></svg>