<svg id="Layer_1" data-name="Layer 1" xmlns="http://www.w3.org/2000/svg" viewBox="0 0 700 550"><title>lady teaching hindi</title><path d="M421.07515,463.43145c15.255-4.769,28.94231-9.64118,45.40836-18.88808,16.98237-9.53791,92.422-54.9275,102.23218-133.48387a149.84232,149.84232,0,0,0-6.25222-63.98664c-3.03223-8.89017-9.322-26.74559-25.19661-44.40388-19.43257-21.62929-41.60634-30.01251-54.60832-34.75331a157.56684,157.56684,0,0,0-61.22666-9.09669c-11.791.3849-32.60352,1.24857-56.26055,11.58444-15.4334,6.74037-25.02764,14.42891-39.16554,25.91947-22.39908,18.22155-25.34682,25.80682-64.53113,63.43277-10.75831,10.32648-19.60154,18.46562-33.10107,26.48273-9.35955,5.55753-16.926,8.66486-30.88557,14.335-34.31208,13.94075-44.08148,16.76341-55.30918,24.61154-21.83582,15.2738-20.42149,31.93064-21.36026,35.51675a70.52692,70.52692,0,0,0-1.66162,28.135c2.86325,18.84114,13.01136,31.15782,19.31052,38.61166a106.17337,106.17337,0,0,0,30.88557,24.82111,197.37436,197.37436,0,0,0,25.30927,11.162Z" fill="#efedef"/><path d="M469.50684,450.11422l-.459-.81836c22.43653-12.60449,96.40918-59.85547,106.248-138.69141a156.16362,156.16362,0,0,0-6.49024-66.4375c-2.79589-8.19824-9.34375-27.39746-26.14257-46.08984-20.582-22.90137-44.07325-31.4668-56.69336-36.06836a163.43467,163.43467,0,0,0-63.59864-9.45313c-11.66406.37989-33.374,1.085-58.43261,12.02637l-.375-.85937c25.22363-11.01465,47.88574-11.751,58.77636-12.1045a164.20549,164.20549,0,0,1,63.95215,9.50782c12.69629,4.63086,36.33008,13.248,57.06836,36.32421,16.92871,18.835,23.51953,38.16114,26.334,46.41407a157.16071,157.16071,0,0,1,6.5332,66.85742C566.334,389.99312,492.041,437.456,469.50684,450.11422Z" fill="#efedef"/><path d="M207.19256,95.18223H475.51389a3.25946,3.25946,0,0,1,3.25946,3.25946v204.5247a3.25949,3.25949,0,0,1-3.25949,3.25949H207.19254a3.25946,3.25946,0,0,1-3.25946-3.25946V98.4417A3.25948,3.25948,0,0,1,207.19256,95.18223Z" fill="#904d24"/><path d="M213.75144,102.32018H468.955a3.07,3.07,0,0,1,3.10011,3.039V296.04893a3.07,3.07,0,0,1-3.10011,3.039H213.75144a3.07,3.07,0,0,1-3.10011-3.039V105.35917A3.07,3.07,0,0,1,213.75144,102.32018Z" fill="#558031"/><path d="M499.33715,239.83976V463.20614h50.49857V239.83976a2.42316,2.42316,0,0,0-2.42315-2.42316H501.7603A2.42316,2.42316,0,0,0,499.33715,239.83976Z" fill="#935b50"/><rect x="502.12381" y="278.05288" width="44.92526" height="33.36682" rx="2.42315" fill="#e19974"/><rect x="502.12381" y="241.05133" width="44.92526" height="33.36682" rx="2.42315" fill="#e19974"/><path d="M544.19537,270.18331a1.497,1.497,0,1,1-2.11529,2.11536c.5329-.76587.59851-1.05811.83215-1.28321C543.13947,270.78451,543.43408,270.71639,544.19537,270.18331Z" fill="#d6694b"/><path d="M542.08008,243.1708a1.497,1.497,0,1,1,2.11529,2.11529c-.76593-.5329-1.05816-.59845-1.28314-.83209C542.68121,244.2267,542.6131,243.93215,542.08008,243.1708Z" fill="#d6694b"/><path d="M504.97748,245.28609a1.497,1.497,0,1,1,2.11529-2.11529c-.53289.76593-.59851,1.05816-.83209,1.2832C506.03339,244.685,505.73883,244.75307,504.97748,245.28609Z" fill="#d6694b"/><path d="M507.09277,272.29867a1.497,1.497,0,1,1-2.11529-2.11536c.76593.533,1.05816.59851,1.2832.83215C506.49164,271.24276,506.55975,271.53731,507.09277,272.29867Z" fill="#d6694b"/><path d="M544.19537,307.1849a1.497,1.497,0,1,1-2.11529,2.11535c.5329-.766.59851-1.05823.83215-1.2832C543.13947,307.78609,543.43408,307.718,544.19537,307.1849Z" fill="#d6694b"/><path d="M542.08008,280.17232a1.497,1.497,0,1,1,2.11529,2.11536c-.76593-.533-1.05816-.59851-1.28314-.83215C542.68121,281.22823,542.6131,280.93368,542.08008,280.17232Z" fill="#d6694b"/><path d="M504.97748,282.28768a1.497,1.497,0,1,1,2.11529-2.11536c-.53289.766-.59851,1.05823-.83209,1.28321C506.03339,281.68648,505.73883,281.7546,504.97748,282.28768Z" fill="#d6694b"/><path d="M507.09277,309.30025a1.497,1.497,0,1,1-2.11529-2.11535c.76593.53295,1.05816.59851,1.2832.83215C506.49164,308.24434,506.55975,308.5389,507.09277,309.30025Z" fill="#d6694b"/><rect x="502.12381" y="352.05597" width="44.92526" height="33.36682" rx="2.42315" fill="#e19974"/><rect x="502.12381" y="389.05752" width="44.92526" height="33.36682" rx="2.42315" fill="#e19974"/><rect x="517.68045" y="253.19133" width="13.81197" height="5.08862" rx="0.93877" fill="#d6694b"/><rect x="517.68045" y="364.19597" width="13.81197" height="5.08862" rx="0.93877" fill="#d6694b"/><rect x="517.68045" y="401.19751" width="13.81197" height="5.08862" rx="0.93877" fill="#d6694b"/><rect x="517.68045" y="290.19287" width="13.81197" height="5.08862" rx="0.93877" fill="#d6694b"/><path d="M544.19537,381.188a1.497,1.497,0,1,1-2.11529,2.11535c.5329-.76587.59851-1.0581.83215-1.2832C543.13947,381.78914,543.43408,381.721,544.19537,381.188Z" fill="#d6694b"/><path d="M542.08008,354.1755a1.497,1.497,0,1,1,2.11529,2.11523c-.76593-.53284-1.05816-.59851-1.28314-.83215C542.68121,355.23128,542.6131,354.93673,542.08008,354.1755Z" fill="#d6694b"/><path d="M504.97748,356.29073a1.497,1.497,0,1,1,2.11529-2.11523c-.53289.76587-.59851,1.0581-.83209,1.28308C506.03339,355.68966,505.73883,355.75765,504.97748,356.29073Z" fill="#d6694b"/><path d="M507.09277,383.3033a1.497,1.497,0,1,1-2.11529-2.11535c.76593.533,1.05816.59851,1.2832.83215C506.49164,382.2474,506.55975,382.542,507.09277,383.3033Z" fill="#d6694b"/><path d="M544.19537,418.18953a1.497,1.497,0,1,1-2.11529,2.11536c.5329-.766.59851-1.05823.83215-1.2832C543.13947,418.79073,543.43408,418.72262,544.19537,418.18953Z" fill="#d6694b"/><path d="M542.08008,391.177a1.497,1.497,0,1,1,2.11529,2.11536c-.76593-.533-1.05816-.59851-1.28314-.83216C542.68121,392.23287,542.6131,391.93831,542.08008,391.177Z" fill="#d6694b"/><path d="M504.97748,393.29232a1.497,1.497,0,1,1,2.11529-2.11536c-.53289.766-.59851,1.05823-.83209,1.2832C506.03339,392.69112,505.73883,392.75924,504.97748,393.29232Z" fill="#d6694b"/><path d="M507.09277,420.30489a1.497,1.497,0,1,1-2.11529-2.11536c.76593.533,1.05816.59852,1.2832.83216C506.49164,419.249,506.55975,419.54354,507.09277,420.30489Z" fill="#d6694b"/><path d="M513.98808,409.95966s24.64959.50022,28.39437-3.66491c0,0-8.072,28.92053-1.9782,43.10982l-27.41605-2.89518S516.19433,424.1111,513.98808,409.95966Z" fill="#7ca1b1"/><path d="M507.95237,413.50267s24.6496.50021,28.39437-3.66491c0,0-8.072,28.92052-1.9782,43.10981l-27.41605-2.89518S510.15862,427.65411,507.95237,413.50267Z" fill="#f65b2b"/><path d="M511.03566,416.22524s24.6496.50021,28.39437-3.66492c0,0-8.072,28.92053-1.97819,43.10982l-27.416-2.89518S513.24192,430.37667,511.03566,416.22524Z" fill="#fff"/><path d="M514.05352,300.688s24.6496.50022,28.39437-3.66491c0,0-8.072,28.92053-1.9782,43.10982l-27.41605-2.89519S516.25977,314.83944,514.05352,300.688Z" fill="#ffba55"/><path d="M508.01781,304.231s24.6496.50022,28.39437-3.66491c0,0-8.072,28.92053-1.9782,43.10982l-27.416-2.89518S510.22407,318.38244,508.01781,304.231Z" fill="#f65b2b"/><path d="M511.10111,306.95357s24.64959.50022,28.39436-3.66491c0,0-8.072,28.92053-1.97819,43.10982l-27.41605-2.89518S513.30736,321.105,511.10111,306.95357Z" fill="#fff"/><rect x="502.12381" y="426.05906" width="44.92526" height="33.36682" rx="2.42315" fill="#e19974"/><rect x="517.68045" y="438.19906" width="13.81197" height="5.08862" rx="0.93877" fill="#d6694b"/><path d="M544.19537,455.19112a1.497,1.497,0,1,1-2.11529,2.11524c.5329-.76587.59851-1.05811.83215-1.28309C543.13947,455.7922,543.43408,455.72408,544.19537,455.19112Z" fill="#d6694b"/><path d="M542.08008,428.17855a1.497,1.497,0,1,1,2.11529,2.11535c-.76593-.533-1.05816-.59851-1.28314-.83215C542.68121,429.23446,542.6131,428.9399,542.08008,428.17855Z" fill="#d6694b"/><path d="M504.97748,430.2939a1.497,1.497,0,1,1,2.11529-2.11535c-.53289.76587-.59851,1.0581-.83209,1.2832C506.03339,429.69271,505.73883,429.76082,504.97748,430.2939Z" fill="#d6694b"/><path d="M507.09277,457.30636a1.497,1.497,0,1,1-2.11529-2.11524c.76593.53284,1.05816.59851,1.2832.83215C506.49164,456.25057,506.55975,456.54513,507.09277,457.30636Z" fill="#d6694b"/><rect x="502.12381" y="315.05442" width="44.92526" height="33.36682" rx="2.42315" fill="#e19974"/><rect x="517.68045" y="327.19442" width="13.81197" height="5.08862" rx="0.93877" fill="#d6694b"/><path d="M544.19537,344.18648a1.497,1.497,0,1,1-2.11529,2.11524c.5329-.76587.59851-1.05811.83215-1.28308C543.13947,344.78756,543.43408,344.71944,544.19537,344.18648Z" fill="#d6694b"/><path d="M542.08008,317.17391a1.497,1.497,0,1,1,2.11529,2.11536c-.76593-.533-1.05816-.59851-1.28314-.83216C542.68121,318.22982,542.6131,317.93526,542.08008,317.17391Z" fill="#d6694b"/><path d="M504.97748,319.28927a1.497,1.497,0,1,1,2.11529-2.11536c-.53289.76587-.59851,1.0581-.83209,1.2832C506.03339,318.68807,505.73883,318.75618,504.97748,319.28927Z" fill="#d6694b"/><path d="M507.09277,346.30172a1.497,1.497,0,1,1-2.11529-2.11524c.76593.53284,1.05816.59851,1.2832.83216C506.49164,345.24593,506.55975,345.54049,507.09277,346.30172Z" fill="#d6694b"/><circle cx="524.58682" cy="158.67005" r="26.31743" fill="#ffba55"/><path d="M524.58643,185.457a26.78711,26.78711,0,1,1,26.78711-26.78711A26.81738,26.81738,0,0,1,524.58643,185.457Zm0-52.63477a25.84766,25.84766,0,1,0,25.84766,25.84766A25.87631,25.87631,0,0,0,524.58643,132.82222Z" fill="#d77f4a"/><path d="M524.58643,161.01754a.47054.47054,0,0,1-.46972-.46973v-16.9707a.46973.46973,0,1,1,.93945,0v16.9707A.47055.47055,0,0,1,524.58643,161.01754Z" fill="#d77f4a"/><path d="M539.188,164.52828a.47344.47344,0,0,1-.21-.04981l-17.6084-8.83007a.46949.46949,0,0,1,.41992-.83985l17.6084,8.83008a.46965.46965,0,0,1-.21.88965Z" fill="#d77f4a"/><rect x="178.57061" y="199.65218" width="10.73878" height="29.60907" fill="#ffba55"/><path d="M507.38775,230.8009H544.603a0,0,0,0,1,0,0v5.90847a0,0,0,0,1,0,0h-37.2152a2.54234,2.54234,0,0,1-2.54234-2.54234v-.82379a2.54234,2.54234,0,0,1,2.54234-2.54234Z" fill="#fff"/><path d="M545.76679,236.86061a.53533.53533,0,0,1-.53533.53533H506.60618c-1.47476,0-2.67435-1.61977-2.67435-3.6111,0-1.99084,1.19959-3.61062,2.67435-3.61062h38.62528a.53534.53534,0,0,1,.53533.53533v.42138a.53534.53534,0,0,1-.53533.53533H506.60618c-.86543,0-1.56936.9505-1.56936,2.11858,0,1.16857.70393,2.11906,1.56936,2.11906h38.62528a.53534.53534,0,0,1,.53533.53533Z" fill="#f65b2b"/><path d="M501.58147,223.57918h37.21521a0,0,0,0,1,0,0v5.90847a0,0,0,0,1,0,0h-37.2152a2.54234,2.54234,0,0,1-2.54234-2.54234v-.82379A2.54234,2.54234,0,0,1,501.58147,223.57918Z" fill="#fff"/><path d="M539.96051,229.63889a.53533.53533,0,0,1-.53533.53533H500.7999c-1.47476,0-2.67435-1.61977-2.67435-3.6111,0-1.99084,1.19959-3.61062,2.67435-3.61062h38.62528a.53534.53534,0,0,1,.53533.53533v.42138a.53533.53533,0,0,1-.53533.53533H500.7999c-.86543,0-1.56936.9505-1.56936,2.11858,0,1.16857.70393,2.11906,1.56936,2.11906h38.62528a.53534.53534,0,0,1,.53533.53534Z" fill="#ffba55"/><path d="M513.46669,216.35746h37.21521a0,0,0,0,1,0,0v5.90847a0,0,0,0,1,0,0h-37.2152a2.54234,2.54234,0,0,1-2.54234-2.54234v-.82379a2.54234,2.54234,0,0,1,2.54234-2.54234Z" fill="#fff"/><path d="M551.84573,222.41717a.53533.53533,0,0,1-.53533.53533H512.68512c-1.47476,0-2.67435-1.61977-2.67435-3.6111,0-1.99084,1.19959-3.61062,2.67435-3.61062H551.3104a.53534.53534,0,0,1,.53533.53533v.42138a.53533.53533,0,0,1-.53533.53533H512.68512c-.86543,0-1.56936.9505-1.56936,2.11858,0,1.16857.70393,2.11906,1.56936,2.11906H551.3104a.53534.53534,0,0,1,.53533.53534Z" fill="#f65b2b"/><path d="M148.536,446.942c0,.097,1.0101-.1405.99827-.03164,0,0-9.93945,16.29577-11.03034,16.29577a2.75066,2.75066,0,0,1-.31472-.02425,2.22458,2.22458,0,0,1-1.89013-2.50805l7.75385-13.76347Z" fill="#935b50"/><path d="M199.23466,446.942c0,.097-1.0101-.1405-.99827-.03164,0,0,9.93945,16.29577,11.03034,16.29577a2.75066,2.75066,0,0,0,.31472-.02425,2.22458,2.22458,0,0,0,1.89013-2.50805l-7.75385-13.76347Z" fill="#935b50"/><path d="M214.75613,410.31372H132.69484V375.50907a2.42316,2.42316,0,0,1,2.42316-2.42315h77.215a2.42315,2.42315,0,0,1,2.42315,2.42315Z" fill="#d6694b"/><path d="M144.05312,447.54039H135.1238a2.42317,2.42317,0,0,1-2.42316-2.42316V410.30864h82.06008v34.80859a2.42316,2.42316,0,0,1-2.42315,2.42316h-6.15481" fill="#d6694b"/><rect x="136.26375" y="376.92011" width="74.92348" height="29.55943" rx="2.42315" fill="#e19974"/><ellipse cx="173.72549" cy="391.69982" rx="4.12577" ry="4.08451" fill="#935b50"/><path d="M176.51325,393.89651s18.0676,16.77542,23.6345,16.158c0,0-25.26952,16.21743-30.16227,30.86433l-18.53907-20.404S168.74371,405.92834,176.51325,393.89651Z" fill="#ffba55"/><path d="M169.65018,392.52509s18.06759,16.77542,23.6345,16.158c0,0-25.26953,16.21743-30.16228,30.86433l-18.53907-20.404S161.88063,404.55692,169.65018,392.52509Z" fill="#f65b2b"/><path d="M170.14018,396.60908s18.06759,16.77543,23.6345,16.158c0,0-25.26953,16.21744-30.16227,30.86433l-18.53907-20.404S162.37063,408.64091,170.14018,396.60908Z" fill="#fff"/><rect x="136.26375" y="414.14791" width="74.92348" height="29.55943" rx="2.42315" fill="#e19974"/><ellipse cx="173.72549" cy="428.92762" rx="4.12577" ry="4.08451" fill="#935b50"/><rect x="171.03243" y="312.85701" width="1.51131" height="50.68531" transform="translate(-118.78701 94.36309) rotate(-23.07002)" fill="#935b50"/><circle cx="173.9664" cy="338.05615" r="20.41453" fill="#c0d6f2"/><path d="M190.75854,326.45106a20.40007,20.40007,0,0,1,3.15231,15.959c-.01291.00737-.02508.01672-.03817.02372a2.37465,2.37465,0,0,1-2.34885,0,6.13839,6.13839,0,0,1-.729-1.61988c-.2938-.76818-.35557-1.01877-.648-1.2149-.37216-.24973-.68477-.12059-.89092-.405-.18519-.2555-.00731-.46239-.081-.891a2.44679,2.44679,0,0,0-1.05294-1.37686c-.696-.56043-1.05454-.50148-1.179-.88324-.07806-.23952.00946-.42723.369-1.22264a12.49628,12.49628,0,0,0,.729-1.70089,3.56988,3.56988,0,0,0-.40492-2.02488,31.54212,31.54212,0,0,1-.729-3.32078c-.82005-3.112-2.24331-4.30979-1.94386-4.61669C185.33225,322.77889,188.15788,323.91757,190.75854,326.45106Z" fill="#a6b862"/><path d="M156.47831,327.521c1.41054-1.45159,2.7566-2.25671,3.13362-2.0151.16418.10523.05667.3525.32392.97194.25581.59269.87888,1.582,1.62,1.61988.332.017.48544-.1673,1.53887-1.05294,1.56887-1.3189,1.83839-1.42277,2.10589-1.37692.68446.1174,1.229,1.19339.97193,1.62-.25225.41845-1.162.02249-1.45793.48593a1.18042,1.18042,0,0,0,.486,1.37692,1.88635,1.88635,0,0,0,1.70089-.081,3.22723,3.22723,0,0,0,1.7009-1.29591c.433-.71439.3016-1.27458.648-1.37691.31377-.09269.75779.26786.97193.64795.36971.65637-.0799,1.13364.243,1.62.41586.62632,1.46168.28642,1.61988.7289.14672.41015-.6131,1.08994-1.2149,1.45793-.74519.45557-.99854.28046-1.94386.64795-1.414.54967-1.31914,1.12492-2.59181,1.53888-1.1055.35956-1.47385.02212-1.94393.486-.38605.381-.44635.98294-.56694,2.18683-.09583.95645.01487,1.185.081,1.29591a1.53891,1.53891,0,0,0,1.61988.648c.32293-.08568.53929-.30007.97193-.72891.496-.49165.49645-.67942.80992-.81.48237-.2008.71089.14807,1.13395,0,.5627-.197.78729-1.03438,1.05294-2.02487.2681-.99978.21-1.41853.56694-1.61989.29183-.16466.47291.035,1.13395,0a5.088,5.088,0,0,0,1.45787-.405,12.74539,12.74539,0,0,1,1.7819-.48594,5.32961,5.32961,0,0,1,2.59188.324,5.734,5.734,0,0,1,2.75378,1.61988,4.11406,4.11406,0,0,1,1.215,3.07782,3.75,3.75,0,0,1-1.215,2.34878c-.93788.81938-1.56629.43837-2.42986,1.215a3.89688,3.89688,0,0,0-1.13389,2.59182c-.023.42072.01579,1.00377,1.29591,3.64476.99584,2.05456,1.25644,2.28769,1.37691,3.15882.13473.97415.085,2.6799-.81,3.15876-.49558.26516-.73763-.12022-2.67283-.324a11.63629,11.63629,0,0,0-2.18683-.081c-1.09811.07511-1.23112.26755-1.86291.162a3.93959,3.93959,0,0,1-1.86285-.97194c-.80229-.65465-.72552-.95017-1.53894-1.61988a7.80219,7.80219,0,0,0-1.61982-.97193c-1.18349-.59946-1.49954-.5718-2.51087-1.13395-.88238-.49042-1.56334-.87931-1.53888-1.37692a1.09305,1.09305,0,0,1,.7289-.80991c.60782-.23584.94059.22,1.45793,0a1.4675,1.4675,0,0,0,.729-1.45793c-.04512-.46141-.328-1.04987-.648-1.05294-.40523-.00387-.38384.93634-1.13395,1.37692a2.15648,2.15648,0,0,1-2.10588-.162c-.55115-.33984-1.19456-1.06745-1.05288-1.7009.108-.48335.58846-.5335.729-1.13395.09251-.39552.017-.94206-.243-1.05294-.48876-.20848-1.51293,1.17261-2.02487,1.86292a5.62376,5.62376,0,0,0-1.37692,2.5108c-.13915.9849.21292,1.64091-.243,2.10589a1.24551,1.24551,0,0,1-.97194.324,1.31467,1.31467,0,0,1-.48489-.15095,20.42611,20.42611,0,0,1,.83407-19.54054Z" fill="#a6b862"/><path d="M173.02051,364.45308a26.76155,26.76155,0,0,1-10.36524-51.45019,1.38454,1.38454,0,1,1,1.06836,2.55469,23.99266,23.99266,0,0,0,18.51953,44.26757,1.38454,1.38454,0,1,1,1.06836,2.55469A26.608,26.608,0,0,1,173.02051,364.45308Z" fill="#935b50"/><path d="M155.10477,369.78747h16.09228v-6.20935a1.76223,1.76223,0,0,1,1.7623-1.7623c.97334,0,4.27986.789,4.27986,1.7623v6.20935h13.57471a1.7623,1.7623,0,1,1,0,3.52459H155.10477a1.7623,1.7623,0,0,1,0-3.52459Z" fill="#935b50"/><path d="M385.30341,435.29231v9.19625s-11.51936,9.15169-26.27121,11.61052c0,0-4.50748,2.06977-4.50748,5.33728h44.43786V435.74677Z" fill="#f9977a"/><path d="M355.2514,459.22393h43.232a1.10431,1.10431,0,0,1,1.10432,1.10431v.0038a1.10432,1.10432,0,0,1-1.10431,1.10432l-44.569.00012S352.64184,460.09517,355.2514,459.22393Z" fill="#d6694b"/><path d="M394.465,461.43629a2.30711,2.30711,0,0,1,.08588-1.93618,5.18719,5.18719,0,0,1,1.12042-1.5988,6.9254,6.9254,0,0,1,3.30121-1.8023,14.932,14.932,0,0,1-1.31378,1.3072c-.43713.41083-.87708.79849-1.28626,1.20728a11.50672,11.50672,0,0,0-1.14367,1.267A3.7386,3.7386,0,0,0,394.465,461.43629Z" fill="#dd765e"/><path d="M425.8871,435.29225v9.19625s-11.51937,9.15168-26.27122,11.61051c0,0-4.50748,2.06977-4.50748,5.33728h44.43786V435.74671Z" fill="#f9977a"/><path d="M395.83508,459.22386h43.232a1.10432,1.10432,0,0,1,1.10432,1.10432v.0038a1.10431,1.10431,0,0,1-1.10431,1.10431l-44.569.00013S393.22552,460.09511,395.83508,459.22386Z" fill="#d6694b"/><path d="M448.16413,281.97078A55.9722,55.9722,0,0,0,454.36,301.85733,55.314,55.314,0,0,0,461.29578,311.95a18.51,18.51,0,0,1-6.6958,7.18737c-7.17773,4.35624-14.82715,1.9766-16.072,1.567V277.62506Z" fill="#f73c4f"/><path d="M454.6355,243.10492v27.68035a13.13164,13.13164,0,0,1-13.13163,13.13164h-5.95052l-1.32384-18.89444,8.56025-18.38868s.887-5.22937,4.38244-3.52887Z" fill="#f9977a"/><path d="M443.83979,344.43177l-2.00291,24.43134s1.5714,61.47943-1.47107,70.76254a.98189.98189,0,0,1-.94021.65844H425.75724a1,1,0,0,1-.99274-.87972l-7.58486-62.6056v-32.367Z" fill="#f73c4f"/><path d="M405.42444,345.44953l-4.17124,23.80463s1.7477,61.476-1.28473,70.76177a.98181.98181,0,0,1-.94047.65922H385.17356a1,1,0,0,1-.99274-.87973L376.596,377.18983v-32.367Z" fill="#f73c4f"/><path d="M383.3371,259.28852a167.66231,167.66231,0,0,1-19.80651,48.7745,28.18117,28.18117,0,0,0,9.9494,4.35431,28.55051,28.55051,0,0,0,14.99225-.79121q8.47613-35.13222,16.95221-70.26444Z" fill="#f73c4f"/><path d="M414.87117,210.485c-6.18023-4.77705,1.45017-7.988,1.45017-7.988l.204-.39165a.54722.54722,0,0,0-.41428-.79673c-1.5343-.19713-4.61238-.92369-2.86206-3.53183a2.64726,2.64726,0,0,0-.249-2.36216.74756.74756,0,0,1,.346-1.0965,7.59148,7.59148,0,0,0,2.7113-1.65584.52737.52737,0,0,0-.33182-.869l-2.95985-.3809a.42533.42533,0,0,1-.33958-.58242l.14743-.36167a.45366.45366,0,0,0-.25612-.59425l-.95717-.37106a1.07884,1.07884,0,0,1-.47349-1.65268l2.48849-3.32209a2.97965,2.97965,0,0,0,.58362-2.02323,22.21213,22.21213,0,0,1,1.87515-11.1999s1.45881,7.08008,10.19863,16.18635c0,0,2.7103-6.91439,6.62614-1.63356,0,0,1.54765,1.98551-.59086,6.9656l1.62277,2.255a8.62865,8.62865,0,0,1,1.6005,5.60058c-.18767,2.90037.40088,7.73364,1.17148,9.09148C436.46262,209.77053,421.0514,215.262,414.87117,210.485Z" fill="#f9977a"/><path d="M431.05627,194.30808s-5.49784,19.496-14.95391,8.64369l.423-.84642c.176-.338-.25877-.74971-.25877-.74971C427.18521,204.67705,431.05627,194.30808,431.05627,194.30808Z" fill="#dd765e"/><path d="M419.93691,184.10307a.41794.41794,0,0,0,.44749-.68847,15.96456,15.96456,0,0,0-5.89382-3.40759.41743.41743,0,0,0-.51927.28236.42457.42457,0,0,0,.28175.51952,15.35477,15.35477,0,0,1,5.5519,3.20861A.415.415,0,0,0,419.93691,184.10307Z" fill="#350500"/><path d="M417.62241,184.49645a3.04123,3.04123,0,0,0-1.33465-1.10959,2.5178,2.5178,0,0,0-1.73192-.14051c.28523.08348.55219.13625.81016.23a5.5558,5.5558,0,0,1,.75542.2936C416.62871,183.967,417.092,184.24778,417.62241,184.49645Z" fill="#350500"/><ellipse cx="415.52984" cy="184.29608" rx="0.91968" ry="0.52684" transform="translate(88.01044 499.5121) rotate(-67.82164)" fill="#050505"/><path d="M432.02652,187.54172a3.547,3.547,0,0,0-1.99722-1.50585,2.36542,2.36542,0,0,0-1.30836.038,2.18436,2.18436,0,0,0-1.03.739,3.73082,3.73082,0,0,1,1.11155-.423,2.724,2.724,0,0,1,1.12241.05066A6.95264,6.95264,0,0,1,432.02652,187.54172Z" fill="#dd765e"/><path d="M430.6265,190.97608a8.14452,8.14452,0,0,1-.81119-2.31764,4.75,4.75,0,0,1-.06213-1.19886,7.25117,7.25117,0,0,1,.20563-1.22566,3.00516,3.00516,0,0,0-.52864,1.17944,3.37576,3.37576,0,0,0-.027,1.31406,4.06766,4.06766,0,0,0,.42648,1.23591A3.47558,3.47558,0,0,0,430.6265,190.97608Z" fill="#dd765e"/><path d="M415.834,171.30505s-.34811,6.17053,10.19863,16.18635c0,0,2.01263-3.95446,4.72982-3.09014a2.79766,2.79766,0,0,1,1.82336,2.03272,9.626,9.626,0,0,1-.5179,6.38946,21.97019,21.97019,0,0,0-1.03518,6.82512,16.07447,16.07447,0,0,0,1.8206,6.37731c1.13057,2.27138,5.1127,6.497,6.63608,5.30345,3.15173-2.46933,6.53837-18.23827,6.63836-27.675C446.32436,165.09522,422.22108,160.68786,415.834,171.30505Z" fill="#84382a"/><circle cx="430.83112" cy="193.66657" r="2.41418" fill="#f73c4f"/><circle cx="412.7988" cy="188.63268" r="0.60418" fill="#f73c4f"/><circle cx="445.06561" cy="204.95349" r="10.2397" fill="#84382a"/><path d="M441.40939,211.50846s15.87133,6.04622,15.49345,31.74266H444.43251l.81752,27.75195s5.29045,61.59588,0,73.68832l-69.53154,1.51155,26.25384-97.11742s-17.46834-13.97306-16.11259-19.4384c0,0,23.807-19.27233,31.36477-20.78388Z" fill="#ffba55"/><path d="M389.1493,231.67487c.91742.81472,1.79523,1.66514,2.701,2.48837l2.65234,2.5295,5.27881,5.07125q2.626,2.54491,5.30621,5.02335c.89362.82522,1.804,1.63247,2.75135,2.38942a17.47351,17.47351,0,0,0,1.44641,1.09919,4.36855,4.36855,0,0,0,1.62646.77253,3.86921,3.86921,0,0,1-1.7597-.54345,17.832,17.832,0,0,1-1.60248-.9325c-1.023-.68931-1.9989-1.43893-2.96277-2.2013-1.92291-1.532-3.72394-3.19872-5.49853-4.88723-1.7558-1.70846-3.48157-3.44572-5.132-5.25459C392.30006,235.42693,390.67115,233.59888,389.1493,231.67487Z" fill="#e6952a"/><path d="M444.4325,243.25112a36.3526,36.3526,0,0,1,2.28839-5.97735,35.94235,35.94235,0,0,1,3.191-5.54826,35.93561,35.93561,0,0,1-2.28839,5.97736A36.3517,36.3517,0,0,1,444.4325,243.25112Z" fill="#e6952a"/><path d="M411.05109,270.05835c1.26636.214,2.52448.44034,3.79261.61008,1.26159.19963,2.52533.37829,3.792.522,2.5318.29074,5.06543.5312,7.60089.60143a43.77417,43.77417,0,0,0,7.56854-.35036,20.45624,20.45624,0,0,0,3.67487-.872,13.4577,13.4577,0,0,0,3.42431-1.64481,11.78549,11.78549,0,0,1-3.24591,2.10144,20.57694,20.57694,0,0,1-3.71594,1.17219,33.0391,33.0391,0,0,1-7.73669.59243,52.21368,52.21368,0,0,1-7.684-.84318A51.57638,51.57638,0,0,1,411.05109,270.05835Z" fill="#e6952a"/><path d="M397.06922,312.75979l5.52118,4.989c1.85284,1.64174,3.69086,3.29419,5.582,4.88046,1.8794,1.59948,3.80786,3.13516,5.80017,4.57668a29.26323,29.26323,0,0,0,3.10755,1.97068,11.30813,11.30813,0,0,0,3.41815,1.344c-2.532-.10352-4.82709-1.40838-6.95123-2.67383a52.49026,52.49026,0,0,1-6.02-4.45433c-1.89374-1.62139-3.72907-3.30648-5.46527-5.0896A73.61486,73.61486,0,0,1,397.06922,312.75979Z" fill="#e6952a"/><path d="M404.24909,326.36378a57.08824,57.08824,0,0,0,4.67328,3.77916,53.4238,53.4238,0,0,0,4.99841,3.26146,48.73164,48.73164,0,0,0,5.31141,2.70978c1.81561.8287,3.70208,1.4822,5.61187,2.1531a27.92058,27.92058,0,0,1-5.90027-1.428c-.97284-.30577-1.88739-.7538-2.82672-1.1474-.90686-.4591-1.82824-.8975-2.6994-1.42395a33.70921,33.70921,0,0,1-4.97656-3.51455A26.30856,26.30856,0,0,1,404.24909,326.36378Z" fill="#e6952a"/><path d="M390.54227,238.90972a25.89214,25.89214,0,0,1-1.806-2.66729c-1.995-2.55841-3.28248-4.95886-2.87653-6.59535,0,0,12.11574-9.80661,21.80523-15.97764l.00966-.00712.00079.00047c3.8877-2.47547,7.38526-4.36678,9.54911-4.79964l24.18479,2.64529s2.64529-8.73861-11.52556-9.16372-27.06622,6.51843-27.06622,6.51843c-22.95679,5.38492-21.77231,36.83042-21.77231,36.83042Z" fill="#f73c4f"/><path d="M392.75787,260.39177,401.8681,249.471l.08958-.33141-.28916-.3004c-1.60594-1.30982-9.39733-7.78236-13.44044-13.2654l-15.10131,16.219-17.05529-19.12306-1.32882-9.37042s-1.9524-12.90724-3.98646-6.323c0,0-.22854,3.61374.51691,4.90805l-3.57275.92s-7.60336-7.51489-8.22361-10.088c0,0-4.88669,6.77925,9.9204,24.10771,0,0,7.00843,16.70694,14.058,29.42141a12.78846,12.78846,0,0,0,19.13066,3.78672A94.07522,94.07522,0,0,0,392.75787,260.39177Z" fill="#f9977a"/><path d="M368.08,459.77732s.42-2.28-1.84979-5.43558a4.63327,4.63327,0,0,1,3.91565-1.40142,13.98315,13.98315,0,0,1,1.26209,2.76542c.54852,1.53763.93206,3.38509.272,4.62441Z" fill="#d6694b"/><path d="M378.91543,448.68676S382.6,454.52733,380.35,459.83733h4.23s2.35758-8.38961-2.19621-13.28481C382.38379,446.55252,379.55085,446.62618,378.91543,448.68676Z" fill="#d6694b"/><path d="M408.665,459.77732s.42-2.28-1.84979-5.43558a4.63327,4.63327,0,0,1,3.91565-1.40142,13.98315,13.98315,0,0,1,1.26209,2.76542c.54852,1.53763.93206,3.38509.272,4.62441Z" fill="#d6694b"/><path d="M419.50043,448.68676s3.68457,5.84057,1.43457,11.15057h4.23s2.35758-8.38961-2.19621-13.28481C422.96879,446.55252,420.13585,446.62618,419.50043,448.68676Z" fill="#d6694b"/><path d="M284.90656,178.448a.93921.93921,0,0,1,.82813.36035,1.8354,1.8354,0,0,1,.252,1.05566,4.19934,4.19934,0,0,1-.084.75586,2.33189,2.33189,0,0,1-.20411.66016h-8.68847V183.2a4.48383,4.48383,0,0,1,1.20019-.48047,6.39309,6.39309,0,0,1,1.53614-.168,4.95838,4.95838,0,0,1,1.76367.3125,4.24777,4.24777,0,0,1,2.47265,2.39942,5.33142,5.33142,0,0,1,.37207,2.06445,4.9595,4.9595,0,0,1-.36035,1.96777,4.44269,4.44269,0,0,1-.93652,1.416,3.75335,3.75335,0,0,1-1.332.86426,4.30417,4.30417,0,0,1-1.54785.28808,2.66521,2.66521,0,0,1-1.69141-.46777,1.65744,1.65744,0,0,1-.58789-1.37988,2.32578,2.32578,0,0,1,.38379-1.32032,2.677,2.677,0,0,0,.59961.07227,1.40568,1.40568,0,0,0,.99609-.39648,1.71783,1.71783,0,0,0-.04785-2.30372,1.78157,1.78157,0,0,0-1.23633-.41992,2.44614,2.44614,0,0,0-.89941.15528,2.183,2.183,0,0,0-.68457.42089v7.12793a4.07819,4.07819,0,0,1-.76759.14356,8.60014,8.60014,0,0,1-1.05565.07226,3.08047,3.08047,0,0,1-1.584-.32421q-.52881-.32373-.52832-1.4043v-.74414a4.71939,4.71939,0,0,1-1.21191.49219,6.30611,6.30611,0,0,1-1.59668.18066,5.054,5.054,0,0,1-1.77539-.3125,4.22011,4.22011,0,0,1-1.47657-.92383,4.57159,4.57159,0,0,1-1.01953-1.5,5.167,5.167,0,0,1-.38379-2.06445,4.83352,4.83352,0,0,1,.37207-1.95606,4.23829,4.23829,0,0,1,.97168-1.416,4.06858,4.06858,0,0,1,1.36817-.85156,4.46617,4.46617,0,0,1,1.584-.28809,2.73655,2.73655,0,0,1,1.81153.50391,1.70646,1.70646,0,0,1,.58789,1.36816,2.47778,2.47778,0,0,1-.10743.71973,2.09057,2.09057,0,0,1-.27636.60058,1.22692,1.22692,0,0,0-.28809-.07226,3.44044,3.44044,0,0,0-.45605-.02442,1.59178,1.59178,0,0,0-1.05567.38477,1.392,1.392,0,0,0-.45605,1.12793,1.484,1.484,0,0,0,.49219,1.17578,1.83732,1.83732,0,0,0,1.25976.43164,2.36174,2.36174,0,0,0,.96-.17969,2.27688,2.27688,0,0,0,.69629-.46777v-6.74414h-8.04a.92325.92325,0,0,1-.84082-.37207,2.037,2.037,0,0,1-.23926-1.0918,4.53533,4.53533,0,0,1,.07129-.7207,2.11649,2.11649,0,0,1,.19239-.64746Z" fill="#fcfcfc"/><path d="M315.81086,190.35232a3.045,3.045,0,0,1-2.19629-.708,2.2447,2.2447,0,0,1-.73242-1.668,2.967,2.967,0,0,1,.5039-1.60791h.48047a1.08133,1.08133,0,0,0,.85157-.33594,1.39386,1.39386,0,0,0,.30078-.96v-3.792h-2.32813a.92328.92328,0,0,1-.84082-.37207,2.03776,2.03776,0,0,1-.23926-1.09229,4.53,4.53,0,0,1,.07129-.71973,2.08874,2.08874,0,0,1,.19239-.64794h15.74414a.94011.94011,0,0,1,.82812.35986,1.83924,1.83924,0,0,1,.252,1.05615,4.19934,4.19934,0,0,1-.084.75586,2.32143,2.32143,0,0,1-.2041.66016h-2.16016v12.07226a4.079,4.079,0,0,1-.76758.14356,8.60256,8.60256,0,0,1-1.05664.07226,3.08531,3.08531,0,0,1-1.584-.32422q-.52734-.32373-.52734-1.4038v-3.57618H318.762A2.72164,2.72164,0,0,1,315.81086,190.35232Zm3.14355-5.11181h3.36036v-3.96h-3.36036Z" fill="#fcfcfc"/><path d="M367.19367,178.448a.93921.93921,0,0,1,.82813.36035,1.8354,1.8354,0,0,1,.252,1.05566,4.19934,4.19934,0,0,1-.084.75586,2.3007,2.3007,0,0,1-.20411.66016h-2.16015v12.07226a4.07821,4.07821,0,0,1-.76758.14356,8.60043,8.60043,0,0,1-1.05566.07226,3.08047,3.08047,0,0,1-1.584-.32421q-.52881-.32373-.52832-1.4043V191.24a5.87534,5.87534,0,0,1-1.64453.6123,10.454,10.454,0,0,1-2.21973.20313,8.29164,8.29164,0,0,1-2.16015-.26367,4.91614,4.91614,0,0,1-1.67969-.78028,3.73659,3.73659,0,0,1-1.0918-1.25976,3.51971,3.51971,0,0,1-.39648-1.67969,2.95795,2.95795,0,0,1,2.08789-2.92773,3.17248,3.17248,0,0,1-1.72754-.80469,2.1354,2.1354,0,0,1-.624-1.5957,2.50136,2.50136,0,0,1,.13183-.81641,2.46012,2.46012,0,0,1,.32422-.64746H351.5218a.92254.92254,0,0,1-.83985-.37207,2.03628,2.03628,0,0,1-.24023-1.0918,4.55232,4.55232,0,0,1,.07226-.7207,2.08962,2.08962,0,0,1,.19239-.64746Zm-7.4873,5.208a2.25649,2.25649,0,0,1,.31152.64746,2.9873,2.9873,0,0,1,.12012.88867,2.87722,2.87722,0,0,1-.12012.86328,1.90179,1.90179,0,0,1-.31152.624h-1.46485q-1.51172,0-1.51172,1.10449,0,1.17627,2.04,1.17579a6.39058,6.39058,0,0,0,1.63184-.22754,3.59372,3.59372,0,0,0,1.48828-.78028v-6.67187H357.0423a1.52217,1.52217,0,0,0-.57617,1.22363,1.07661,1.07661,0,0,0,.35938.81641,1.38806,1.38806,0,0,0,.98437.33594Z" fill="#fcfcfc"/><path d="M368.76016,120.10234a1.05949,1.05949,0,0,0-.933-.406h-1.5712q-.02641-3.89334-1.75606-5.77318a6.28528,6.28528,0,0,0-4.86765-1.87928,8.65255,8.65255,0,0,0-2.64948.36529,5.85784,5.85784,0,0,0-1.90569.98695,4.037,4.037,0,0,0-1.14869,1.41937,3.735,3.735,0,0,0-.3785,1.63612,1.75143,1.75143,0,0,0,.7702,1.66253,3.63311,3.63311,0,0,0,1.85288.44671,4.22265,4.22265,0,0,0,.69978-.05391,3.60163,3.60163,0,0,0,.56774-.13534,3.69085,3.69085,0,0,0,.54134-.18925v-.64916a2.24153,2.24153,0,0,1,.44892-1.43367,1.59459,1.59459,0,0,1,1.33794-.56775,1.69424,1.69424,0,0,1,1.54039.94625,7.09347,7.09347,0,0,1,.56775,3.21832h-40.8843a2.15754,2.15754,0,0,1-.31248-.74379,4.07052,4.07052,0,0,1-.09243-.87912,2.331,2.331,0,0,1,.84942-1.82537,4.13605,4.13605,0,0,1,2.74631-.74269,14.22861,14.22861,0,0,1,2.43382.21565,15.5785,15.5785,0,0,1,2.40742.62166,12.82867,12.82867,0,0,1,2.18736,1.00126,8.58153,8.58153,0,0,1,1.78686,1.35225,3.40539,3.40539,0,0,0,.933-.13534,3.20353,3.20353,0,0,0,.84942-.3785,1.94268,1.94268,0,0,0,.60736-.60845,1.51366,1.51366,0,0,0,.23326-.82521c0-.34219-.30368-.78451-.90664-1.32474a10.62387,10.62387,0,0,0-2.48664-1.569,20.1561,20.1561,0,0,0-3.73215-1.29723,19.082,19.082,0,0,0-4.6652-.54134,12.502,12.502,0,0,0-3.43288.41921,7.37763,7.37763,0,0,0-2.43383,1.14979,4.58853,4.58853,0,0,0-1.448,1.744,5.12549,5.12549,0,0,0-.47532,2.20387,6.512,6.512,0,0,0,.11,1.13549,3.724,3.724,0,0,0,.32568,1.02766h-2.51745a2.38863,2.38863,0,0,0-.21565.72949,5.22189,5.22189,0,0,0-.07922.812,2.28569,2.28569,0,0,0,.26847,1.23011,1.0406,1.0406,0,0,0,.94624.41921h1.54039v11.89736c0,.812.19806,1.339.59856,1.5822a3.45581,3.45581,0,0,0,1.78246.3653,9.43406,9.43406,0,0,0,1.1883-.08142,4.5652,4.5652,0,0,0,.867-.16284v-13.6006h10.23263v1.35225h-3.138a4.78972,4.78972,0,0,0-3.04119.86482,2.98384,2.98384,0,0,0-1.09588,2.48774,3.547,3.547,0,0,0,.3785,1.64932,3.64811,3.64811,0,0,0,.99906,1.21692,4.60254,4.60254,0,0,0-1.10909,1.48758,4.69122,4.69122,0,0,0-.4049,2.00031,5.35906,5.35906,0,0,0,.54134,2.43383,5.238,5.238,0,0,0,1.54039,1.83967,7.15144,7.15144,0,0,0,2.40742,1.1487,11.66539,11.66539,0,0,0,3.138.3917,3.59236,3.59236,0,0,0,2.205-.54134,1.87562,1.87562,0,0,0,.68658-1.56681,3.89486,3.89486,0,0,0-.09242-.812,1.97261,1.97261,0,0,0-.28608-.70308c-.26847.03631-.603.06381-.99905.08142s-.72179.0264-.97265.0264a5.07962,5.07962,0,0,1-2.73311-.59415,1.93747,1.93747,0,0,1-.91983-1.73074,1.77836,1.77836,0,0,1,.52813-1.31154,1.99478,1.99478,0,0,1,1.47438-.527,1.967,1.967,0,0,1,1.56681.51384,2.018,2.018,0,0,1,.43571,1.35114v.21676a1.19677,1.19677,0,0,1-.02641.21675,4.10513,4.10513,0,0,0,1.86168.43242,3.9555,3.9555,0,0,0,.933-.10783,2.11972,2.11972,0,0,0,.7746-.35209,1.73851,1.73851,0,0,0,.52373-.66237,2.36278,2.36278,0,0,0,.20245-1.04087,3.22389,3.22389,0,0,0-1.5668-2.7177,8.01378,8.01378,0,0,0-4.59478-1.09478c-.27287,0-.53694.0088-.801.02641-.25967.0187-.51494.04511-.7702.08142a1.003,1.003,0,0,1-.3785-.7845.92923.92923,0,0,1,.28607-.70308,1.57321,1.57321,0,0,1,1.06508-.27067H334.033c.99465,0,1.48758-.45,1.48758-1.35115v-2.94766h18.16567v1.5415h-.89343a8.664,8.664,0,0,0-2.90475.44561,5.92627,5.92627,0,0,0-2.09934,1.23012c-.018.01692-.02957.03823-.04731.05529l-1.60091.05364h-5.87111a3.28668,3.28668,0,0,0-2.38981.85162,3.07182,3.07182,0,0,0-.88023,2.31169,3.49785,3.49785,0,0,0,.22886,1.32474,2.9456,2.9456,0,0,0,.61176.96055,2.46391,2.46391,0,0,0,.889.59415,2.8571,2.8571,0,0,0,1.05628.20355,3.279,3.279,0,0,0,.89343-.12213,4.4942,4.4942,0,0,0,.889-.36529v-1.32474c0-.68438.31689-1.02767.94625-1.02767h3.62653l.03026.00165c-.019.20672-.05447.40752-.05447.62111a6.09532,6.09532,0,0,0,.53694,2.64948,5.26245,5.26245,0,0,0,1.50079,1.89249,6.57713,6.57713,0,0,0,2.27538,1.13549,10.09306,10.09306,0,0,0,2.82553.3796c.32128,0,.63376-.00991.933-.02751a6.21457,6.21457,0,0,0,.84941-.10783l.24207,1.48758a3.16252,3.16252,0,0,0,.85382,1.85068,2.48247,2.48247,0,0,0,1.74284.58315,2.79812,2.79812,0,0,0,1.74285-.54134,2.29359,2.29359,0,0,0,.88023-1.5426q-.54135-.59415-1.1355-1.33794a14.34452,14.34452,0,0,1-1.1883-1.77035,3.20159,3.20159,0,0,0,1.21471-2.48774,2.80133,2.80133,0,0,0-.73059-2.01462,2.61733,2.61733,0,0,0-1.99811-.7713,3.35818,3.35818,0,0,0-1.25872.24316,2.60074,2.60074,0,0,0-.95945.62276c.05281.18045.10123.3829.14964.60846a3.32106,3.32106,0,0,1,.066.63486.933.933,0,0,1-.3785.81091,1.785,1.785,0,0,1-1.05627.27067,2.60443,2.60443,0,0,1-1.84848-.66237,2.4252,2.4252,0,0,1-.71738-1.87928,2.165,2.165,0,0,1,.7834-1.82537,3.45511,3.45511,0,0,1,2.161-.60846H356.635q1.48539,0,1.48759-1.35224v-3.59573h3.72775v11.89736q0,1.218.59416,1.5822a3.463,3.463,0,0,0,1.78686.3653,9.48844,9.48844,0,0,0,1.1883-.08142,4.64375,4.64375,0,0,0,.867-.16284v-13.6006h2.42943a2.61314,2.61314,0,0,0,.23326-.74379,4.80581,4.80581,0,0,0,.09242-.85162A2.069,2.069,0,0,0,368.76016,120.10234Z" fill="#fff"/><path d="M584.69238,463.43648H115.30762a1,1,0,1,1,0-2H584.69238a1,1,0,0,1,0,2Z" fill="#935b50"/></svg>