<svg id="Layer_1" data-name="Layer 1" xmlns="http://www.w3.org/2000/svg" viewBox="0 0 700 550"><title>man teaching biology</title><path d="M416.10692,455.88887c15.255-4.769,28.94231-9.64118,45.40836-18.88808,16.98237-9.53791,92.422-54.9275,102.23218-133.48387a149.84235,149.84235,0,0,0-6.25222-63.98664c-3.03223-8.89016-9.322-26.74559-25.19662-44.40388-19.43256-21.62928-41.60634-30.01251-54.60832-34.75331a157.56681,157.56681,0,0,0-61.22665-9.09669c-11.791.3849-32.60352,1.24857-56.26056,11.58444-15.4334,6.74037-25.02764,14.42891-39.16553,25.91947-22.39908,18.22155-25.34682,25.80682-64.53113,63.43277-10.75832,10.32648-19.60154,18.46563-33.10107,26.48273-9.35955,5.55753-16.926,8.66486-30.88557,14.335-34.31209,13.94075-44.08148,16.76341-55.30918,24.61154-21.83582,15.2738-20.42149,31.93064-21.36026,35.51675a70.527,70.527,0,0,0-1.66163,28.135c2.86325,18.84114,13.01137,31.15782,19.31053,38.61166a106.17324,106.17324,0,0,0,30.88557,24.82111,197.37436,197.37436,0,0,0,25.30927,11.162Z" fill="#f9e0c0"/><path d="M464.5386,442.57164l-.459-.81836c22.43652-12.60449,96.40918-59.85547,106.248-138.69141a156.16367,156.16367,0,0,0-6.49023-66.4375c-2.7959-8.19824-9.34375-27.39746-26.14258-46.08984-20.582-22.90137-44.07324-31.4668-56.69336-36.06836a163.43461,163.43461,0,0,0-63.59863-9.45313c-11.66406.37989-33.374,1.085-58.43262,12.02637l-.375-.85937c25.22364-11.01465,47.88575-11.751,58.77637-12.1045a164.20549,164.20549,0,0,1,63.95215,9.50782c12.69629,4.63086,36.33008,13.248,57.06836,36.32422,16.92871,18.835,23.51953,38.16113,26.334,46.41406a157.16048,157.16048,0,0,1,6.53321,66.85742C561.36575,382.45054,487.07278,429.91343,464.5386,442.57164Z" fill="#f9e0c0"/><path d="M135.60213,94.1061H403.92347a3.25946,3.25946,0,0,1,3.25946,3.25946V301.89029a3.25946,3.25946,0,0,1-3.25946,3.25946H135.60212a3.25946,3.25946,0,0,1-3.25946-3.25946V97.36557A3.25948,3.25948,0,0,1,135.60213,94.1061Z" fill="#904d24"/><path d="M142.161,101.244H397.36457a3.07,3.07,0,0,1,3.10011,3.039V294.9728a3.07,3.07,0,0,1-3.10011,3.039H142.161a3.07,3.07,0,0,1-3.10011-3.039V104.283A3.07,3.07,0,0,1,142.161,101.244Z" fill="#558031"/><path d="M230.307,135.295q-.39111,0-.91992-.02344t-1.0918-.0918q-.564-.06884-1.11621-.17285a5.31962,5.31962,0,0,1-1.01172-.28711,1.712,1.712,0,0,1-1.26464-1.67871V122.29992a1.01042,1.01042,0,0,1,.26367-.74707,1.88981,1.88981,0,0,1,.72461-.42578,8.76238,8.76238,0,0,1,1.95508-.40234,22.60644,22.60644,0,0,1,2.415-.127,8.60312,8.60312,0,0,1,4.53125.98926,3.35,3.35,0,0,1,1.58692,3.0586,2.76908,2.76908,0,0,1-.59766,1.7832,3.41618,3.41618,0,0,1-1.61035,1.0918,3.99481,3.99481,0,0,1,1.9209,1.17285,3.06877,3.06877,0,0,1,.77051,2.13965,3.729,3.729,0,0,1-1.69043,3.36914A8.983,8.983,0,0,1,230.307,135.295Zm-1.49511-8.85547h1.67968a2.2557,2.2557,0,0,0,1.4375-.36816,1.315,1.315,0,0,0,.44825-1.08008,1.15465,1.15465,0,0,0-.51758-.98926,2.68272,2.68272,0,0,0-1.55274-.36816q-.34423,0-.793.02343a5.79357,5.79357,0,0,0-.70214.06836Zm0,5.61231a4.13441,4.13441,0,0,0,.82812.12695c.33789.02246.65918.03418.9668.03418a2.848,2.848,0,0,0,1.52929-.37988,1.29477,1.29477,0,0,0,.60938-1.18458,1.183,1.183,0,0,0-.50586-1.08105,2.93281,2.93281,0,0,0-1.541-.32129h-1.88671Z" fill="#fff"/><path d="M243.16438,134.83508a6.41857,6.41857,0,0,1-.79395.13769,8.45787,8.45787,0,0,1-1.06934.06934,4.787,4.787,0,0,1-.93164-.08106,1.66208,1.66208,0,0,1-.67871-.2871,1.251,1.251,0,0,1-.41406-.5752,2.809,2.809,0,0,1-.1377-.96582V120.9884q.25342-.04541.80469-.126a7.33245,7.33245,0,0,1,1.0586-.08008,4.79343,4.79343,0,0,1,.93164.08008,1.65773,1.65773,0,0,1,.67773.28711,1.24221,1.24221,0,0,1,.41406.5752,2.78289,2.78289,0,0,1,.13868.96582Z" fill="#fff"/><path d="M245.46418,127.93469a8.33585,8.33585,0,0,1,.56348-3.17383,6.39675,6.39675,0,0,1,3.84082-3.72559,8.72178,8.72178,0,0,1,5.72656,0,6.64967,6.64967,0,0,1,2.31152,1.41407,6.50579,6.50579,0,0,1,1.55274,2.31152,8.336,8.336,0,0,1,.56347,3.17383,8.58517,8.58517,0,0,1-.55175,3.18554,6.43633,6.43633,0,0,1-1.5293,2.32325,6.52686,6.52686,0,0,1-2.31152,1.41406,8.44818,8.44818,0,0,1-2.89844.4834,8.2899,8.2899,0,0,1-2.89844-.49414,6.47572,6.47572,0,0,1-2.2998-1.4375,6.65537,6.65537,0,0,1-1.51758-2.32325A8.42966,8.42966,0,0,1,245.46418,127.93469Zm4.13965,0a4.84877,4.84877,0,0,0,.85058,3.12793,3.0474,3.0474,0,0,0,4.57715,0,6.16412,6.16412,0,0,0,.01172-6.23242,2.78721,2.78721,0,0,0-2.28808-1.03516,2.84324,2.84324,0,0,0-2.28907,1.02344A4.75468,4.75468,0,0,0,249.60383,127.93469Z" fill="#fff"/><path d="M264.46125,134.99621a1.98581,1.98581,0,0,1-2.13867-2.13965V120.96594q.25341-.04542.80469-.127a7.47425,7.47425,0,0,1,1.05859-.08007,4.87129,4.87129,0,0,1,.93164.08007,1.6586,1.6586,0,0,1,.67773.28809,1.23734,1.23734,0,0,1,.41407.5752,2.78315,2.78315,0,0,1,.13867.96582v9.085h5.2666a2.99964,2.99964,0,0,1,.29883.67871,2.82357,2.82357,0,0,1,.13867.88476,1.76625,1.76625,0,0,1-.3916,1.29981,1.42328,1.42328,0,0,1-1.03516.37988Z" fill="#fff"/><path d="M272.74152,127.93469a8.33585,8.33585,0,0,1,.56348-3.17383,6.39682,6.39682,0,0,1,3.84082-3.72559,8.72178,8.72178,0,0,1,5.72656,0,6.64972,6.64972,0,0,1,2.31153,1.41407,6.50576,6.50576,0,0,1,1.55273,2.31152,8.33585,8.33585,0,0,1,.56348,3.17383,8.58517,8.58517,0,0,1-.55176,3.18554,6.43621,6.43621,0,0,1-1.5293,2.32325,6.52686,6.52686,0,0,1-2.31152,1.41406,8.44818,8.44818,0,0,1-2.89844.4834,8.2899,8.2899,0,0,1-2.89844-.49414,6.47572,6.47572,0,0,1-2.2998-1.4375,6.65551,6.65551,0,0,1-1.51758-2.32325A8.42986,8.42986,0,0,1,272.74152,127.93469Zm4.13965,0a4.84876,4.84876,0,0,0,.85059,3.12793,3.0474,3.0474,0,0,0,4.57715,0,6.16419,6.16419,0,0,0,.01172-6.23242,2.78724,2.78724,0,0,0-2.28809-1.03516,2.84322,2.84322,0,0,0-2.28906,1.02344A4.75462,4.75462,0,0,0,276.88117,127.93469Z" fill="#fff"/><path d="M302.22688,132.64953a1.79393,1.79393,0,0,1-.25293,1.0586,2.62945,2.62945,0,0,1-.80469.667,5.08881,5.08881,0,0,1-.80567.35644,8.59951,8.59951,0,0,1-1.05761.29883,11.45349,11.45349,0,0,1-1.207.19531,11.58781,11.58781,0,0,1-1.25391.06934,10.46212,10.46212,0,0,1-3.10547-.44824,7.0789,7.0789,0,0,1-2.51758-1.35742,6.42769,6.42769,0,0,1-1.6914-2.26563,8.31627,8.31627,0,0,1,.05761-6.43945,6.91972,6.91972,0,0,1,1.794-2.335,7.51088,7.51088,0,0,1,2.55371-1.39161,9.63692,9.63692,0,0,1,2.95508-.46,7.22828,7.22828,0,0,1,3.46191.70118,2.07936,2.07936,0,0,1,1.27637,1.8291,1.78893,1.78893,0,0,1-.29883,1.03515,2.46546,2.46546,0,0,1-.69043.68946,9.53618,9.53618,0,0,0-1.4375-.67871,5.3682,5.3682,0,0,0-1.94336-.333,4.2245,4.2245,0,0,0-3.07031,1.10351,4.065,4.065,0,0,0-1.13867,3.05957,4.8791,4.8791,0,0,0,.31054,1.82813,3.47755,3.47755,0,0,0,.83985,1.26562,3.42582,3.42582,0,0,0,1.21875.73536,4.41839,4.41839,0,0,0,1.47168.24218,3.93709,3.93709,0,0,0,.89746-.09277,2.36664,2.36664,0,0,0,.59765-.207V129.6134h-2.46093a3.604,3.604,0,0,1-.26465-.667,2.97669,2.97669,0,0,1-.126-.873,1.60978,1.60978,0,0,1,.37891-1.19629,1.34693,1.34693,0,0,1,.97754-.36816h3.88672a1.31959,1.31959,0,0,1,1.44922,1.44922Z" fill="#fff"/><path d="M311.7259,134.83508a6.41881,6.41881,0,0,1-.78223.13769,8.009,8.009,0,0,1-1.03418.06934,2.86519,2.86519,0,0,1-1.58789-.35645,1.72192,1.72192,0,0,1-.52832-1.50683v-3.10449q-.57568-.85109-1.24219-1.88672-.668-1.03419-1.31054-2.11621-.64454-1.07959-1.19629-2.127a19.56446,19.56446,0,0,1-.89746-1.9209,3.15452,3.15452,0,0,1,.8164-.75878,2.25708,2.25708,0,0,1,1.27735-.34473,2.629,2.629,0,0,1,1.46.36816,3.448,3.448,0,0,1,1.06933,1.37989l1.90918,3.84082h.1377q.32226-.71339.56348-1.29981.24169-.58593.47168-1.17285.23-.58593.48339-1.21875.252-.6328.5752-1.46094a4.03384,4.03384,0,0,1,.91992-.32129,4.32916,4.32916,0,0,1,.96582-.11523,2.20308,2.20308,0,0,1,1.36817.42578,1.49631,1.49631,0,0,1,.56347,1.27637,2.41666,2.41666,0,0,1-.11523.667,7.46845,7.46845,0,0,1-.52832,1.18457q-.41455.79248-1.208,2.15039-.79248,1.35645-2.15039,3.542Z" fill="#fff"/><path d="M173.83234,176.97473a4.91532,4.91532,0,0,1-.62011.1084,6.58835,6.58835,0,0,1-.83692.05371,3.755,3.755,0,0,1-.72949-.0625,1.28463,1.28463,0,0,1-.53027-.22559.96648.96648,0,0,1-.32422-.4502,2.182,2.182,0,0,1-.1084-.75585v-8.47754a.79187.79187,0,0,1,.207-.585,1.48018,1.48018,0,0,1,.56738-.333,6.73652,6.73652,0,0,1,1.39454-.31543,12.64463,12.64463,0,0,1,1.57519-.09863,5.91833,5.91833,0,0,1,3.79785,1.06152,3.5086,3.5086,0,0,1,1.31446,2.87988,4.34187,4.34187,0,0,1-.2793,1.59375,3.30917,3.30917,0,0,1-.82813,1.22363,3.71891,3.71891,0,0,1-1.38574.792,6.10535,6.10535,0,0,1-1.93457.27929h-1.2793Zm.93653-5.77735a1.71888,1.71888,0,0,0,1.16113-.35156,1.34205,1.34205,0,0,0,.4043-1.07129,1.325,1.325,0,0,0-.42188-1.05273,1.82624,1.82624,0,0,0-1.2334-.36914c-.19238,0-.35058.0039-.47754.00976a2.885,2.885,0,0,0-.38671.04492v2.79Z" fill="#fff"/><path d="M190.8968,176.97473a4.97251,4.97251,0,0,1-.6211.1084,6.56527,6.56527,0,0,1-.83691.05371,3.7619,3.7619,0,0,1-.72949-.0625,1.29035,1.29035,0,0,1-.53028-.22559.97335.97335,0,0,1-.32422-.4502,2.206,2.206,0,0,1-.10839-.75585v-2.80762h-3.45508v4.13965a5.04187,5.04187,0,0,1-.6211.1084,6.59182,6.59182,0,0,1-.83789.05371,3.75138,3.75138,0,0,1-.72851-.0625,1.29463,1.29463,0,0,1-.53125-.22559.97328.97328,0,0,1-.32422-.4502,2.20832,2.20832,0,0,1-.10742-.75585v-9.50391q.19774-.03516.62988-.09863a5.74052,5.74052,0,0,1,.82813-.06348,3.75569,3.75569,0,0,1,.72949.06348,1.31247,1.31247,0,0,1,.53125.22461.97483.97483,0,0,1,.32324.45019,2.18973,2.18973,0,0,1,.1084.75586v2.87988h3.45508v-4.21191q.19922-.03516.63086-.09863a5.72994,5.72994,0,0,1,.82812-.06348,3.74514,3.74514,0,0,1,.72852.06348,1.30664,1.30664,0,0,1,.53125.22461.9765.9765,0,0,1,.32422.45019,2.19246,2.19246,0,0,1,.10742.75586Z" fill="#fff"/><path d="M192.6966,171.57531a6.54929,6.54929,0,0,1,.44043-2.48437,5.01613,5.01613,0,0,1,3.00684-2.916,6.8315,6.8315,0,0,1,4.48144,0,5.21624,5.21624,0,0,1,1.80957,1.10742,5.084,5.084,0,0,1,1.21485,1.8086,6.53057,6.53057,0,0,1,.44043,2.48437,6.725,6.725,0,0,1-.43164,2.49317,5.02771,5.02771,0,0,1-1.19727,1.81738,5.10627,5.10627,0,0,1-1.80859,1.10742,6.61272,6.61272,0,0,1-2.26758.37793,6.46069,6.46069,0,0,1-2.26856-.38769,5.04926,5.04926,0,0,1-1.7998-1.125,5.18024,5.18024,0,0,1-1.1875-1.81739A6.57578,6.57578,0,0,1,192.6966,171.57531Zm3.24024,0a3.79231,3.79231,0,0,0,.666,2.44727,2.384,2.384,0,0,0,3.582,0,4.82628,4.82628,0,0,0,.00879-4.87793,2.1818,2.1818,0,0,0-1.791-.80957,2.22763,2.22763,0,0,0-1.791.80078A3.7276,3.7276,0,0,0,195.93684,171.57531Z" fill="#fff"/><path d="M205.06281,168.6593a2.3477,2.3477,0,0,1-.23437-.54,2.37551,2.37551,0,0,1-.10742-.72071,1.36188,1.36188,0,0,1,.31445-1.00781,1.126,1.126,0,0,1,.81933-.30566h7.84864a2.55341,2.55341,0,0,1,.34179,1.25976,1.36038,1.36038,0,0,1-.31543,1.00782,1.12668,1.12668,0,0,1-.81933.30664h-1.99805v8.31543a4.97227,4.97227,0,0,1-.62109.1084,6.56167,6.56167,0,0,1-.83594.05371,3.74793,3.74793,0,0,1-.72949-.0625,1.28894,1.28894,0,0,1-.53125-.22559.96484.96484,0,0,1-.32324-.4502,2.182,2.182,0,0,1-.1084-.75585v-6.9834Z" fill="#fff"/><path d="M214.56672,171.57531a6.51127,6.51127,0,0,1,.44141-2.48437,5.00449,5.00449,0,0,1,3.00585-2.916,6.83443,6.83443,0,0,1,4.48243,0,5.21206,5.21206,0,0,1,1.80859,1.10742,5.09666,5.09666,0,0,1,1.21484,1.8086,6.53007,6.53007,0,0,1,.44141,2.48437,6.72446,6.72446,0,0,1-.43262,2.49317,5.03819,5.03819,0,0,1-1.19629,1.81738,5.1103,5.1103,0,0,1-1.80957,1.10742,6.61828,6.61828,0,0,1-2.26855.37793,6.45519,6.45519,0,0,1-2.26758-.38769,5.05775,5.05775,0,0,1-1.7998-1.125,5.20936,5.20936,0,0,1-1.18848-1.81739A6.615,6.615,0,0,1,214.56672,171.57531Zm3.24023,0a3.79225,3.79225,0,0,0,.666,2.44727,2.18687,2.18687,0,0,0,1.78125.81055,2.20955,2.20955,0,0,0,1.80078-.81055,4.82628,4.82628,0,0,0,.00879-4.87793,2.18312,2.18312,0,0,0-1.791-.80957,2.2276,2.2276,0,0,0-1.791.80078A3.722,3.722,0,0,0,217.807,171.57531Z" fill="#fff"/><path d="M230.85676,172.7091q-.79248-.26953-1.44043-.54883a4.43667,4.43667,0,0,1-1.11524-.6748,2.79806,2.79806,0,0,1-.72949-.94531,3.10869,3.10869,0,0,1-.26074-1.34082,2.94556,2.94556,0,0,1,1.17871-2.44825,5.26267,5.26267,0,0,1,3.30371-.918,9.09448,9.09448,0,0,1,1.43945.10742,4.33363,4.33363,0,0,1,1.14258.333,2.00806,2.00806,0,0,1,.748.57618,1.30927,1.30927,0,0,1,.26953.81933,1.43317,1.43317,0,0,1-.2168.80078,2.228,2.228,0,0,1-.52148.56739,4.06343,4.06343,0,0,0-1.0625-.44141,5.32082,5.32082,0,0,0-1.457-.18848,2.41032,2.41032,0,0,0-1.18848.22461.65623.65623,0,0,0-.37793.56739.52209.52209,0,0,0,.23438.44043,2.40593,2.40593,0,0,0,.70117.31543l.95508.30566a6.9259,6.9259,0,0,1,2.60058,1.37695,2.94656,2.94656,0,0,1,.90918,2.27735,2.99393,2.99393,0,0,1-1.207,2.47461,5.66417,5.66417,0,0,1-3.54492.94531,8.261,8.261,0,0,1-1.53906-.13477,4.86,4.86,0,0,1-1.24219-.39648,2.28451,2.28451,0,0,1-.82813-.64746,1.42329,1.42329,0,0,1-.29687-.8916,1.34932,1.34932,0,0,1,.30566-.89063,2.34388,2.34388,0,0,1,.666-.56738,4.88393,4.88393,0,0,0,1.2334.68457,4.30955,4.30955,0,0,0,1.59277.28808,2.13469,2.13469,0,0,0,1.24121-.2705.77854.77854,0,0,0,.36133-.62989.61575.61575,0,0,0-.28906-.54882,3.701,3.701,0,0,0-.80957-.36915Z" fill="#fff"/><path d="M243.04328,176.97473a5.00766,5.00766,0,0,1-.6123.1084,6.23741,6.23741,0,0,1-.80957.05371,2.23177,2.23177,0,0,1-1.24219-.2793,1.34062,1.34062,0,0,1-.41406-1.17871v-2.42969q-.45117-.66651-.97266-1.47656t-1.02539-1.65528q-.50391-.84668-.93652-1.665a15.20311,15.20311,0,0,1-.70215-1.50293,2.46274,2.46274,0,0,1,.63867-.59473,1.76711,1.76711,0,0,1,1-.26953,2.05211,2.05211,0,0,1,1.14258.28808,2.713,2.713,0,0,1,.83691,1.08008l1.49414,3.00586h.1084q.252-.55811.44043-1.01758.189-.45849.36914-.918.18018-.45849.37793-.95312.19776-.49512.4502-1.14355a3.23589,3.23589,0,0,1,.71972-.252,3.43265,3.43265,0,0,1,.75586-.08984,1.72884,1.72884,0,0,1,1.07129.333,1.17136,1.17136,0,0,1,.44043.999,1.87526,1.87526,0,0,1-.08984.52148,5.73116,5.73116,0,0,1-.41407.92774q-.32226.62109-.94433,1.68262-.62109,1.062-1.68262,2.77246Z" fill="#fff"/><path d="M257.53254,176.66906a1.64481,1.64481,0,0,1-.72852.38672,4.24659,4.24659,0,0,1-1.14355.13477,3.96643,3.96643,0,0,1-1.25977-.19727,1.74259,1.74259,0,0,1-.97168-.9541l-1.78222-3.63574q-.26954-.5581-.48633-1.05371-.21534-.49512-.46777-1.14258l-.1084.01758q.07324.97265.082,1.98047t.00781,1.97949v2.79a4.91623,4.91623,0,0,1-.60254.1084,6.03892,6.03892,0,0,1-.80078.05371,4.05948,4.05948,0,0,1-.70215-.05371,1.08053,1.08053,0,0,1-.5039-.21583,1.03694,1.03694,0,0,1-.30664-.4414,2.06709,2.06709,0,0,1-.10743-.72852v-9a1.50544,1.50544,0,0,1,.77344-.54,3.40511,3.40511,0,0,1,1.11719-.18066,3.89082,3.89082,0,0,1,1.26855.207,1.72226,1.72226,0,0,1,.96289.94531l1.79981,3.63575q.26954.55811.48633,1.05371.2168.4951.46777,1.14257l.09082-.01757q-.07325-.97266-.09082-1.94434-.019-.97266-.01855-1.94434v-2.916a4.89456,4.89456,0,0,1,.60351-.10742,6.02893,6.02893,0,0,1,.80078-.05469,2.169,2.169,0,0,1,1.207.2793,1.32436,1.32436,0,0,1,.41309,1.16113Z" fill="#fff"/><path d="M259.36848,168.6593a2.30853,2.30853,0,0,1-.2334-.54,2.37594,2.37594,0,0,1-.1084-.72071,1.35781,1.35781,0,0,1,.31543-1.00781,1.12214,1.12214,0,0,1,.81836-.30566h7.84766a2.52637,2.52637,0,0,1,.34179,1.25976,1.36038,1.36038,0,0,1-.31445,1.00782,1.12594,1.12594,0,0,1-.81836.30664h-1.998v8.31543a5.04163,5.04163,0,0,1-.62109.1084,6.60331,6.60331,0,0,1-.83789.05371,3.7445,3.7445,0,0,1-.72852-.0625,1.29463,1.29463,0,0,1-.53125-.22559.96655.96655,0,0,1-.32422-.4502,2.1848,2.1848,0,0,1-.10742-.75585v-6.9834Z" fill="#fff"/><path d="M279.63605,176.97473a4.98315,4.98315,0,0,1-.62011.1084,6.60354,6.60354,0,0,1-.83789.05371,3.7445,3.7445,0,0,1-.72852-.0625,1.28894,1.28894,0,0,1-.53125-.22559.96655.96655,0,0,1-.32422-.4502,2.1848,2.1848,0,0,1-.10742-.75585v-2.80762h-3.457v4.13965a4.91521,4.91521,0,0,1-.62012.1084,6.58807,6.58807,0,0,1-.83691.05371,3.75491,3.75491,0,0,1-.72949-.0625,1.28474,1.28474,0,0,1-.53028-.22559.96655.96655,0,0,1-.32422-.4502,2.1823,2.1823,0,0,1-.10839-.75585v-9.50391c.13183-.02344.34277-.05664.62988-.09863a5.75075,5.75075,0,0,1,.82812-.06348,3.73808,3.73808,0,0,1,.72852.06348,1.29519,1.29519,0,0,1,.53125.22461.9765.9765,0,0,1,.32422.45019,2.19246,2.19246,0,0,1,.10742.75586v2.87988h3.457v-4.21191c.13086-.02344.3418-.05664.62891-.09863a5.76125,5.76125,0,0,1,.82812-.06348,3.74847,3.74847,0,0,1,.72949.06348,1.3008,1.3008,0,0,1,.53125.22461.97478.97478,0,0,1,.32325.45019,2.19,2.19,0,0,1,.10839.75586Z" fill="#fff"/><path d="M281.97688,167.81262a1.55287,1.55287,0,0,1,1.67382-1.67383h5.93946a2.15519,2.15519,0,0,1,.22461.52246,2.31029,2.31029,0,0,1,.09961.68359,1.31862,1.31862,0,0,1-.29688.97168,1.076,1.076,0,0,1-.7832.28809h-3.79785v1.6748h4.0498a2.15379,2.15379,0,0,1,.22461.5127,2.22393,2.22393,0,0,1,.09961.6748,1.34063,1.34063,0,0,1-.28809.97168,1.04567,1.04567,0,0,1-.77441.28809h-3.31152v1.89062h4.626a2.12936,2.12936,0,0,1,.22461.52149,2.31651,2.31651,0,0,1,.09961.68457,1.35325,1.35325,0,0,1-.29687.98047,1.05809,1.05809,0,0,1-.78321.29687H283.6507a1.55287,1.55287,0,0,1-1.67382-1.67382Z" fill="#fff"/><path d="M295.0257,172.7091q-.791-.26953-1.43945-.54883a4.44294,4.44294,0,0,1-1.11621-.6748,2.81047,2.81047,0,0,1-.72949-.94531,3.10915,3.10915,0,0,1-.25977-1.34082,2.9473,2.9473,0,0,1,1.17774-2.44825,5.26265,5.26265,0,0,1,3.30371-.918,9.11635,9.11635,0,0,1,1.44043.10742,4.33344,4.33344,0,0,1,1.14257.333,2.00433,2.00433,0,0,1,.74707.57618,1.30928,1.30928,0,0,1,.26954.81933,1.43285,1.43285,0,0,1-.21582.80078,2.26393,2.26393,0,0,1-.52149.56739,4.09255,4.09255,0,0,0-1.0625-.44141,5.323,5.323,0,0,0-1.458-.18848,2.41284,2.41284,0,0,0-1.18847.22461.65508.65508,0,0,0-.377.56739.52113.52113,0,0,0,.2334.44043,2.40145,2.40145,0,0,0,.70215.31543l.9541.30566a6.91066,6.91066,0,0,1,2.60059,1.37695,2.94656,2.94656,0,0,1,.90918,2.27735,2.99568,2.99568,0,0,1-1.20606,2.47461,5.66919,5.66919,0,0,1-3.5459.94531,8.26867,8.26867,0,0,1-1.53906-.13477,4.86478,4.86478,0,0,1-1.24121-.39648,2.27606,2.27606,0,0,1-.82812-.64746,1.41746,1.41746,0,0,1-.29688-.8916,1.35374,1.35374,0,0,1,.30469-.89063,2.35715,2.35715,0,0,1,.666-.56738,4.90109,4.90109,0,0,0,1.2334.68457,4.30957,4.30957,0,0,0,1.59278.28808,2.14038,2.14038,0,0,0,1.24218-.2705.77737.77737,0,0,0,.36036-.62989.617.617,0,0,0-.28809-.54882,3.71161,3.71161,0,0,0-.81055-.36915Z" fill="#fff"/><path d="M304.99836,176.97473a5.04163,5.04163,0,0,1-.62109.1084,6.59205,6.59205,0,0,1-.83789.05371,3.75142,3.75142,0,0,1-.72852-.0625,1.29463,1.29463,0,0,1-.53125-.22559.97328.97328,0,0,1-.32422-.4502,2.20832,2.20832,0,0,1-.10742-.75585v-9.50391q.19775-.03516.62988-.09863a5.74052,5.74052,0,0,1,.82813-.06348,3.75569,3.75569,0,0,1,.72949.06348,1.31247,1.31247,0,0,1,.53125.22461.97483.97483,0,0,1,.32324.45019,2.18973,2.18973,0,0,1,.1084.75586Z" fill="#fff"/><path d="M310.43391,172.7091q-.79248-.26953-1.43946-.54883a4.44958,4.44958,0,0,1-1.11718-.6748,2.80755,2.80755,0,0,1-.72852-.94531,3.10869,3.10869,0,0,1-.26074-1.34082,2.94556,2.94556,0,0,1,1.17871-2.44825,5.25772,5.25772,0,0,1,3.30273-.918,9.10719,9.10719,0,0,1,1.44043.10742,4.33027,4.33027,0,0,1,1.14356.333,2.00069,2.00069,0,0,1,.74609.57618,1.30927,1.30927,0,0,1,.26953.81933,1.44042,1.44042,0,0,1-.21484.80078,2.24943,2.24943,0,0,1-.52246.56739,4.08435,4.08435,0,0,0-1.06153-.44141,5.33518,5.33518,0,0,0-1.459-.18848,2.41114,2.41114,0,0,0-1.1875.22461.65623.65623,0,0,0-.37793.56739.52113.52113,0,0,0,.2334.44043,2.42128,2.42128,0,0,0,.70312.31543l.95313.30566a6.92318,6.92318,0,0,1,2.60156,1.37695,2.94592,2.94592,0,0,1,.9082,2.27735,2.99741,2.99741,0,0,1-1.20507,2.47461,5.67043,5.67043,0,0,1-3.54688.94531,8.27609,8.27609,0,0,1-1.53906-.13477,4.86465,4.86465,0,0,1-1.24121-.39648,2.2929,2.2929,0,0,1-.82813-.64746,1.42329,1.42329,0,0,1-.29687-.8916,1.34932,1.34932,0,0,1,.30566-.89063,2.34374,2.34374,0,0,1,.666-.56738,4.894,4.894,0,0,0,1.23242.68457,4.31476,4.31476,0,0,0,1.59375.28808,2.14044,2.14044,0,0,0,1.24219-.2705.7762.7762,0,0,0,.35937-.62989.61618.61618,0,0,0-.28711-.54882,3.75578,3.75578,0,0,0-.81054-.36915Z" fill="#fff"/><path d="M324.99641,177.33508q-.30762,0-.70313-.01856c-.26367-.01172-.53711-.03515-.81836-.07129q-.42333-.05419-.8457-.13476a4.26716,4.26716,0,0,1-.7832-.22559,1.33962,1.33962,0,0,1-.99024-1.31347v-8.40625a.78793.78793,0,0,1,.207-.585,1.47572,1.47572,0,0,1,.56641-.333,7.54784,7.54784,0,0,1,1.63867-.333q.86426-.08056,1.54785-.081a8.87951,8.87951,0,0,1,2.54688.34179,5.24482,5.24482,0,0,1,1.96191,1.05274,4.7526,4.7526,0,0,1,1.26953,1.791,7.50884,7.50884,0,0,1,.01758,5.06738,4.84383,4.84383,0,0,1-1.23242,1.79981,5.15582,5.15582,0,0,1-1.918,1.08887A7.98919,7.98919,0,0,1,324.99641,177.33508Zm-1.00879-2.62793c.13183.02441.29394.04492.48633.0625.19238.01855.37207.02734.54.02734a3.37247,3.37247,0,0,0,1.125-.17969,2.26432,2.26432,0,0,0,.88184-.55859,2.56679,2.56679,0,0,0,.57617-.98047,4.49277,4.49277,0,0,0,.207-1.44922,3.48148,3.48148,0,0,0-.75683-2.43945,2.61085,2.61085,0,0,0-2.01563-.81836q-.252,0-.51269.01758c-.17481.01269-.35059.03027-.53125.05469Z" fill="#fff"/><path d="M332.30305,171.57531a6.53026,6.53026,0,0,1,.4414-2.48437,5.01127,5.01127,0,0,1,3.00586-2.916,6.8344,6.8344,0,0,1,4.48242,0,5.2121,5.2121,0,0,1,1.8086,1.10742,5.084,5.084,0,0,1,1.21484,1.8086,6.51146,6.51146,0,0,1,.44141,2.48437,6.74478,6.74478,0,0,1-.43164,2.49317,5.04034,5.04034,0,0,1-1.19727,1.81738,5.10618,5.10618,0,0,1-1.80859,1.10742,6.62235,6.62235,0,0,1-2.26856.37793,6.46455,6.46455,0,0,1-2.26855-.38769,5.05381,5.05381,0,0,1-1.79883-1.125,5.19588,5.19588,0,0,1-1.18848-1.81739A6.59529,6.59529,0,0,1,332.30305,171.57531Zm3.24023,0a3.79808,3.79808,0,0,0,.666,2.44727,2.384,2.384,0,0,0,3.582,0,4.82941,4.82941,0,0,0,.00976-4.87793,2.18308,2.18308,0,0,0-1.791-.80957,2.22629,2.22629,0,0,0-1.791.80078A3.72192,3.72192,0,0,0,335.54328,171.57531Z" fill="#fff"/><path d="M355.37922,176.66906a1.6503,1.6503,0,0,1-.72852.38672,4.24659,4.24659,0,0,1-1.14355.13477,3.968,3.968,0,0,1-1.26074-.19727,1.74407,1.74407,0,0,1-.97071-.9541l-1.7832-3.63574q-.26953-.5581-.48535-1.05371-.21534-.49512-.46777-1.14258l-.1084.01758q.07178.97265.08105,1.98047.00879,1.00781.00879,1.97949v2.79a4.99014,4.99014,0,0,1-.60254.1084,6.03892,6.03892,0,0,1-.80078.05371,4.07916,4.07916,0,0,1-.70312-.05371,1.08944,1.08944,0,0,1-.50391-.21583,1.04394,1.04394,0,0,1-.30567-.4414,2.06508,2.06508,0,0,1-.10839-.72852v-9a1.50419,1.50419,0,0,1,.77441-.54,3.39927,3.39927,0,0,1,1.11621-.18066,3.8967,3.8967,0,0,1,1.26953.207,1.72226,1.72226,0,0,1,.96289.94531l1.79883,3.63575q.271.55811.48633,1.05371.2168.4951.46875,1.14257l.08984-.01757q-.07323-.97266-.08984-1.94434-.019-.97266-.01856-1.94434v-2.916a4.83679,4.83679,0,0,1,.60254-.10742,6.0435,6.0435,0,0,1,.80176-.05469,2.16321,2.16321,0,0,1,1.20606.2793,1.32447,1.32447,0,0,1,.41406,1.16113Z" fill="#fff"/><path d="M357.71906,167.81262a1.55416,1.55416,0,0,1,1.67383-1.67383h5.94043a2.19389,2.19389,0,0,1,.22461.52246,2.34215,2.34215,0,0,1,.09863.68359,1.31447,1.31447,0,0,1-.29687.97168,1.07447,1.07447,0,0,1-.78321.28809h-3.79687v1.6748h4.04883a2.15235,2.15235,0,0,1,.22558.5127,2.25471,2.25471,0,0,1,.09864.6748,1.3452,1.3452,0,0,1-.28711.97168,1.04571,1.04571,0,0,1-.77442.28809h-3.31152v1.89062h4.625a2.12808,2.12808,0,0,1,.22559.52149,2.3488,2.3488,0,0,1,.09863.68457,1.34884,1.34884,0,0,1-.29688.98047,1.05652,1.05652,0,0,1-.7832.29687h-5.25586a1.55416,1.55416,0,0,1-1.67383-1.67382Z" fill="#fff"/><path d="M174.91242,198.93469c-.20312,0-.44336-.00586-.71875-.01856-.27734-.01172-.56152-.03515-.85547-.07129-.29492-.03613-.585-.08105-.873-.13476a4.21053,4.21053,0,0,1-.792-.22559,1.33963,1.33963,0,0,1-.99023-1.31347v-8.40625a.79191.79191,0,0,1,.207-.585,1.48029,1.48029,0,0,1,.56738-.333,6.88293,6.88293,0,0,1,1.5293-.31543,17.78222,17.78222,0,0,1,1.89063-.09864,6.73825,6.73825,0,0,1,3.54589.77344,2.62425,2.62425,0,0,1,1.24122,2.39453,2.16411,2.16411,0,0,1-.4668,1.39453,2.66964,2.66964,0,0,1-1.26074.85547,3.11132,3.11132,0,0,1,1.50293.918,2.39912,2.39912,0,0,1,.60351,1.67383,2.91788,2.91788,0,0,1-1.32324,2.63672A7.02815,7.02815,0,0,1,174.91242,198.93469ZM173.7425,192.005H175.057a1.77419,1.77419,0,0,0,1.125-.28809,1.03183,1.03183,0,0,0,.35157-.84668.90475.90475,0,0,0-.40528-.77343,2.09756,2.09756,0,0,0-1.21582-.28809q-.26953,0-.62109.01758a4.60389,4.60389,0,0,0-.54883.05469Zm0,4.3916a3.20929,3.20929,0,0,0,.64844.09863q.3955.02784.75586.02735a2.2255,2.2255,0,0,0,1.19726-.29688,1.01246,1.01246,0,0,0,.47657-.92675.927.927,0,0,0-.39551-.84668,2.28851,2.28851,0,0,0-1.20606-.252H173.7425Z" fill="#fff"/><path d="M187.18879,198.57434a4.97044,4.97044,0,0,1-.61231.10839,6.22428,6.22428,0,0,1-.80957.05372,2.23618,2.23618,0,0,1-1.24218-.2793,1.34325,1.34325,0,0,1-.41407-1.17871v-2.42969q-.4497-.66651-.97168-1.47656-.52295-.81006-1.02636-1.65528-.50391-.84668-.93653-1.665a15.40544,15.40544,0,0,1-.70117-1.50293,2.46274,2.46274,0,0,1,.63867-.59473,1.76384,1.76384,0,0,1,.999-.26953,2.05775,2.05775,0,0,1,1.14355.28808,2.712,2.712,0,0,1,.83594,1.08008l1.49414,3.00586h.1084q.252-.5581.44043-1.01758.19043-.45849.36914-.918.18018-.45849.37891-.95312.19628-.49512.44921-1.14356a3.2626,3.2626,0,0,1,.72071-.25195,3.43258,3.43258,0,0,1,.75586-.08984,1.724,1.724,0,0,1,1.07031.333,1.16945,1.16945,0,0,1,.44141.999,1.875,1.875,0,0,1-.08985.52148,5.91436,5.91436,0,0,1-.41406.92774q-.32373.62109-.94531,1.68261-.62111,1.062-1.68262,2.77247Z" fill="#fff"/><path d="M198.54719,198.57434a5.04035,5.04035,0,0,1-.6211.10839,6.59,6.59,0,0,1-.83789.05372,3.75138,3.75138,0,0,1-.72851-.0625,1.29463,1.29463,0,0,1-.53125-.22559.97321.97321,0,0,1-.32422-.4502,2.20838,2.20838,0,0,1-.10742-.75586v-8.47753a.788.788,0,0,1,.207-.585,1.47579,1.47579,0,0,1,.5664-.333,6.73188,6.73188,0,0,1,1.39551-.31543,12.65658,12.65658,0,0,1,1.5752-.09864,5.91649,5.91649,0,0,1,3.79785,1.06153,3.50782,3.50782,0,0,1,1.31348,2.87988,4.322,4.322,0,0,1-.27832,1.59375,3.30929,3.30929,0,0,1-.82813,1.22363,3.71891,3.71891,0,0,1-1.38574.792,6.10745,6.10745,0,0,1-1.93555.27929h-1.27734Zm.93554-5.77735a1.72068,1.72068,0,0,0,1.16114-.35156,1.33925,1.33925,0,0,0,.40527-1.07129,1.323,1.323,0,0,0-.42383-1.05273,1.82,1.82,0,0,0-1.23242-.36914c-.19141,0-.35156.0039-.47656.00976a2.84523,2.84523,0,0,0-.3877.04492v2.79Z" fill="#fff"/><path d="M207.52863,198.70031a1.55554,1.55554,0,0,1-1.6748-1.67383v-9.30566c.13281-.02441.34277-.05664.63086-.09961a5.72607,5.72607,0,0,1,.82812-.0625,3.75149,3.75149,0,0,1,.72852.0625,1.30771,1.30771,0,0,1,.53125.22559.96657.96657,0,0,1,.32422.45019,2.1849,2.1849,0,0,1,.10742.75586v7.10938h4.12207a2.35561,2.35561,0,0,1,.2334.53125,2.22968,2.22968,0,0,1,.10937.69336,1.38278,1.38278,0,0,1-.30664,1.0166,1.114,1.114,0,0,1-.81054.29687Z" fill="#fff"/><path d="M217.59016,188.06262a3.79016,3.79016,0,0,1,.92773-.3418,4.91235,4.91235,0,0,1,1.25-.16211,4.51168,4.51168,0,0,1,1.59375.26074,1.38782,1.38782,0,0,1,.89063.81934q.32519.936.70214,2.17773.37794,1.2422.75586,2.56543.37794,1.32276.73828,2.60938.35889,1.2876.62989,2.27734a1.48979,1.48979,0,0,1-.64844.40528,3.082,3.082,0,0,1-1.02539.15234,3.14937,3.14937,0,0,1-.72852-.07129,1.28652,1.28652,0,0,1-.48632-.2168,1.05144,1.05144,0,0,1-.30664-.37793,3.28717,3.28717,0,0,1-.207-.54l-.32421-1.24121h-3.25782q-.14355.53907-.28711,1.11524c-.09668.38476-.19238.75586-.28906,1.11621a4.66851,4.66851,0,0,1-.53027.15332,3.118,3.118,0,0,1-.67481.0625,2.35554,2.35554,0,0,1-1.35937-.31445,1.01379,1.01379,0,0,1-.44141-.87305,1.83245,1.83245,0,0,1,.07227-.50391q.07177-.252.16211-.59472.126-.48487.35156-1.20508.22411-.72071.49414-1.55762.26954-.83643.57617-1.71875.30615-.88183.57617-1.665.26953-.78369.49512-1.39551Q217.46369,188.38733,217.59016,188.06262Zm2.16015,2.32226q-.252.75586-.5664,1.68262-.31641.92724-.56739,1.88086H220.848q-.252-.97119-.5127-1.89844t-.47754-1.665Z" fill="#fff"/><path d="M236.43586,198.26867a1.64481,1.64481,0,0,1-.72852.38672,4.24434,4.24434,0,0,1-1.14257.13477,3.95938,3.95938,0,0,1-1.26075-.19727,1.74553,1.74553,0,0,1-.97168-.9541l-1.78222-3.63574q-.271-.55811-.48535-1.05371-.21681-.49512-.46875-1.14258l-.10743.01758q.07032.97265.08008,1.98046.00879,1.00782.00977,1.9795v2.79a5.05006,5.05006,0,0,1-.60352.10839,6.02627,6.02627,0,0,1-.80078.05372,4.06638,4.06638,0,0,1-.70215-.05372,1.08042,1.08042,0,0,1-.5039-.21582,1.04394,1.04394,0,0,1-.30567-.4414,2.04282,2.04282,0,0,1-.1084-.72852v-9a1.50417,1.50417,0,0,1,.77442-.54,3.39335,3.39335,0,0,1,1.11523-.18066,3.8924,3.8924,0,0,1,1.26953.207,1.71938,1.71938,0,0,1,.96289.94531l1.79981,3.63575q.271.5581.48633,1.05371.21533.49511.46777,1.14257l.08984-.01757q-.07177-.97266-.08984-1.94434-.01758-.97266-.01758-1.94434v-2.916a4.76775,4.76775,0,0,1,.60254-.10742,6.0435,6.0435,0,0,1,.80176-.05469,2.15959,2.15959,0,0,1,1.20508.2793,1.32185,1.32185,0,0,1,.41406,1.16113Z" fill="#fff"/><path d="M238.2718,190.25891a2.34767,2.34767,0,0,1-.23438-.54,2.37582,2.37582,0,0,1-.10742-.72071,1.36188,1.36188,0,0,1,.31445-1.00781,1.12606,1.12606,0,0,1,.81934-.30566h7.84863a2.55355,2.55355,0,0,1,.3418,1.25976,1.36042,1.36042,0,0,1-.31543,1.00782,1.12671,1.12671,0,0,1-.81934.30664h-1.998v8.31543a4.971,4.971,0,0,1-.6211.10839,6.55971,6.55971,0,0,1-.83593.05372,3.748,3.748,0,0,1-.7295-.0625,1.289,1.289,0,0,1-.53125-.22559.96491.96491,0,0,1-.32324-.4502,2.18233,2.18233,0,0,1-.1084-.75586v-6.98339Z" fill="#fff"/><path d="M251.73664,194.30871q-.794-.26953-1.44043-.54883a4.44294,4.44294,0,0,1-1.11621-.6748,2.79528,2.79528,0,0,1-.72852-.94531,3.10842,3.10842,0,0,1-.26171-1.34082,2.9438,2.9438,0,0,1,1.17968-2.44825,5.25773,5.25773,0,0,1,3.30274-.918,9.08566,9.08566,0,0,1,1.43945.10743,4.33027,4.33027,0,0,1,1.14356.333,2.00431,2.00431,0,0,1,.74707.57618,1.30933,1.30933,0,0,1,.26953.81933,1.44082,1.44082,0,0,1-.21582.80078,2.21443,2.21443,0,0,1-.52246.56739,4.05543,4.05543,0,0,0-1.06153-.44141,5.333,5.333,0,0,0-1.458-.18848,2.40863,2.40863,0,0,0-1.1875.22461.65737.65737,0,0,0-.3789.56739.52208.52208,0,0,0,.23437.44043,2.42582,2.42582,0,0,0,.70215.31542l.9541.30567a6.9385,6.9385,0,0,1,2.60157,1.37695,2.94594,2.94594,0,0,1,.9082,2.27735,2.99565,2.99565,0,0,1-1.20606,2.47461,5.66537,5.66537,0,0,1-3.54589.94531,8.26862,8.26862,0,0,1-1.53907-.13477,4.85978,4.85978,0,0,1-1.24218-.39648,2.30118,2.30118,0,0,1-.82813-.64746,1.42919,1.42919,0,0,1-.29687-.8916,1.34491,1.34491,0,0,1,.30664-.89063,2.33069,2.33069,0,0,1,.666-.56738,4.87736,4.87736,0,0,0,1.23242.68457,4.31476,4.31476,0,0,0,1.59375.28808,2.13466,2.13466,0,0,0,1.24121-.2705.77737.77737,0,0,0,.36036-.62989.615.615,0,0,0-.28809-.54883,3.74524,3.74524,0,0,0-.80957-.36914Z" fill="#fff"/><path d="M269.82648,187.7384a2.17147,2.17147,0,0,1,.22461.53125,2.40468,2.40468,0,0,1,.09961.69336,1.38492,1.38492,0,0,1-.29687.999,1.089,1.089,0,0,1-.80176.29688H265.2718v2.03418h3.94238a1.778,1.778,0,0,1,.24316.52148,2.347,2.347,0,0,1,.09864.68359,1.35,1.35,0,0,1-.29688.98145,1.08283,1.08283,0,0,1-.80078.29687h-3.15039v3.79786a4.98226,4.98226,0,0,1-.62012.10839,6.613,6.613,0,0,1-.83789.05372,3.74432,3.74432,0,0,1-.72851-.0625,1.28894,1.28894,0,0,1-.53125-.22559.96648.96648,0,0,1-.32422-.4502,2.18462,2.18462,0,0,1-.10742-.75586v-7.83007a1.55287,1.55287,0,0,1,1.67382-1.67383Z" fill="#fff"/><path d="M271.08625,193.17492a6.53038,6.53038,0,0,1,.44043-2.48437,5.0094,5.0094,0,0,1,3.00684-2.916,6.8315,6.8315,0,0,1,4.48144,0,5.21609,5.21609,0,0,1,1.80957,1.10742,5.09672,5.09672,0,0,1,1.21485,1.8086,6.54949,6.54949,0,0,1,.44042,2.48437,6.7048,6.7048,0,0,1-.43261,2.49317,5.02582,5.02582,0,0,1-1.19629,1.81738,5.1103,5.1103,0,0,1-1.80957,1.10742,6.60867,6.60867,0,0,1-2.26758.37793,6.45128,6.45128,0,0,1-2.26758-.38769,5.05332,5.05332,0,0,1-1.80078-1.125,5.19379,5.19379,0,0,1-1.1875-1.81739A6.59536,6.59536,0,0,1,271.08625,193.17492Zm3.24023,0a3.78649,3.78649,0,0,0,.666,2.44727,2.18686,2.18686,0,0,0,1.78125.81054,2.21214,2.21214,0,0,0,1.80078-.81054,4.82318,4.82318,0,0,0,.00781-4.87793,2.1818,2.1818,0,0,0-1.791-.80957,2.229,2.229,0,0,0-1.791.80078A3.72772,3.72772,0,0,0,274.32648,193.17492Z" fill="#fff"/><path d="M287.41145,195.11828v3.45606a4.98226,4.98226,0,0,1-.62012.10839,6.60161,6.60161,0,0,1-.83789.05372,3.7445,3.7445,0,0,1-.72852-.0625,1.213,1.213,0,0,1-.52246-.22559,1.00165,1.00165,0,0,1-.31543-.4502,2.20838,2.20838,0,0,1-.10742-.75586v-8.47753a.788.788,0,0,1,.207-.585,1.47583,1.47583,0,0,1,.56641-.333,6.75232,6.75232,0,0,1,1.42285-.31543,14.38432,14.38432,0,0,1,1.72754-.09864,5.75432,5.75432,0,0,1,3.74414,1.04395,3.47812,3.47812,0,0,1,1.25976,2.82617,3.15179,3.15179,0,0,1-.57617,1.9082,4.14468,4.14468,0,0,1-1.36719,1.22364q.64747.88184,1.27735,1.65625a10.67938,10.67938,0,0,1,.99023,1.40332,1.69432,1.69432,0,0,1-.65625.96289,1.82622,1.82622,0,0,1-1.07226.333,2.28382,2.28382,0,0,1-.6836-.08985,1.6478,1.6478,0,0,1-.5039-.25195,2.05359,2.05359,0,0,1-.39649-.39551,5.6074,5.6074,0,0,1-.34179-.5039l-1.51172-2.43067Zm1.13378-2.39355a1.56648,1.56648,0,0,0,1.08008-.35157,1.30907,1.30907,0,0,0,.39649-1.03418,1.24063,1.24063,0,0,0-.44141-1.03515,2.23341,2.23341,0,0,0-1.39453-.35156,4.13832,4.13832,0,0,0-.43164.01855c-.1084.01172-.22852.03027-.36035.05371v2.7002Z" fill="#fff"/><path d="M300.11945,194.90246a1.61574,1.61574,0,0,1-.57617-.585,1.81553,1.81553,0,0,1-.26953-.999,1.09841,1.09841,0,0,1,.29688-.83692,1.94615,1.94615,0,0,1,.873-.42285l1.4043-.3418q.89942-.23437.90039-.86425a.73231.73231,0,0,0-.334-.59375,1.94745,1.94745,0,0,0-1.14258-.252,4.93636,4.93636,0,0,0-1.38672.18848,4.091,4.091,0,0,0-1.043.44141,2.21407,2.21407,0,0,1-.52246-.56739,1.44074,1.44074,0,0,1-.21582-.80078,1.30927,1.30927,0,0,1,.26953-.81933,2.00017,2.00017,0,0,1,.74805-.57618,4.30107,4.30107,0,0,1,1.13281-.333,9.06149,9.06149,0,0,1,1.44922-.10743,4.77146,4.77146,0,0,1,3.21289.94532,3.11826,3.11826,0,0,1,1.08984,2.47461q0,2.87988-4.06836,3.69043Zm-.59375,2.3584a1.60889,1.60889,0,1,1,.459,1.21484A1.67636,1.67636,0,0,1,299.5257,197.26086Z" fill="#fff"/><polygon points="489.535 366.668 437.484 366.668 437.484 337.608 489.44 337.608 489.535 366.668" fill="#935b50"/><rect x="425.93132" y="263.87219" width="74.65429" height="70.64601" rx="6.26294" fill="#d6694b"/><rect x="421.422" y="358.06687" width="83.67293" height="8.60111" rx="1.39177" fill="#d6694b"/><rect x="426.93339" y="366.66798" width="72.39963" height="5.42788" rx="1.39177" fill="#935b50"/><rect x="458.99966" y="372.09586" width="8.01657" height="54.11184" fill="#d6694b"/><polygon points="467.016 430.506 518.418 448.615 518.418 442.102 467.016 426.208 459 426.208 407.556 442.102 407.556 448.615 459 430.506 467.016 430.506" fill="#935b50"/><rect x="457.12078" y="424.20356" width="11.77434" height="8.5176" rx="1.39177" fill="#e19974"/><rect x="557.65931" y="330.70936" width="7.89195" height="125.18454" fill="#935b50"/><rect x="343.49755" y="324.65663" width="237.16307" height="6.05273" rx="1.36056" fill="#935b50"/><rect x="359.23647" y="330.70936" width="7.89195" height="125.18454" fill="#935b50"/><path d="M352.9409,330.70936h218.816a0,0,0,0,1,0,0v15.68478a2.72113,2.72113,0,0,1-2.72113,2.72113H355.662a2.72113,2.72113,0,0,1-2.72113-2.72113V330.70936A0,0,0,0,1,352.9409,330.70936Z" fill="#c38f86"/><rect x="400.51768" y="441.09959" width="7.64079" height="13.52796" rx="1.73971" fill="#d6694b"/><rect x="517.81567" y="441.09959" width="7.64079" height="13.52796" rx="1.73971" transform="translate(1043.27213 895.72714) rotate(-180)" fill="#d6694b"/><circle cx="475.85792" cy="173.3105" r="26.31743" fill="#ffba55"/><path d="M475.85753,200.09743a26.78711,26.78711,0,1,1,26.78711-26.7871A26.81738,26.81738,0,0,1,475.85753,200.09743Zm0-52.63476a25.84766,25.84766,0,1,0,25.84766,25.84766A25.87631,25.87631,0,0,0,475.85753,147.46267Z" fill="#d77f4a"/><path d="M475.85753,175.658a.47054.47054,0,0,1-.46972-.46973v-16.9707a.46973.46973,0,0,1,.93945,0v16.9707A.47055.47055,0,0,1,475.85753,175.658Z" fill="#d77f4a"/><path d="M490.4591,179.16872a.47363.47363,0,0,1-.21-.0498l-17.60839-8.83008a.46948.46948,0,1,1,.41992-.83984l17.6084,8.83008a.46965.46965,0,0,1-.21.88964Z" fill="#d77f4a"/><rect x="424.61961" y="188.2376" width="10.73878" height="29.60907" fill="#ffba55"/><path d="M135.18049,439.62977c0,.097,1.0101-.14049.99827-.03164,0,0-9.93945,16.29577-11.03034,16.29577a2.7484,2.7484,0,0,1-.31472-.02425,2.22458,2.22458,0,0,1-1.89013-2.508l7.75385-13.76347Z" fill="#935b50"/><path d="M185.8792,439.62977c0,.097-1.0101-.14049-.99827-.03164,0,0,9.93945,16.29577,11.03034,16.29577a2.7484,2.7484,0,0,0,.31472-.02425,2.22458,2.22458,0,0,0,1.89013-2.508l-7.75385-13.76347Z" fill="#935b50"/><path d="M201.40067,403.00148H119.33938V368.19683a2.42316,2.42316,0,0,1,2.42316-2.42315h77.215a2.42315,2.42315,0,0,1,2.42315,2.42315Z" fill="#d6694b"/><path d="M130.69766,440.22815h-8.92932a2.42316,2.42316,0,0,1-2.42316-2.42315V402.9964h82.06008V437.805a2.42315,2.42315,0,0,1-2.42315,2.42315H192.8273" fill="#d6694b"/><rect x="122.90829" y="369.60787" width="74.92348" height="29.55943" rx="2.42315" fill="#e19974"/><ellipse cx="160.37003" cy="384.38758" rx="4.12577" ry="4.08451" fill="#935b50"/><rect x="122.90829" y="406.83567" width="74.92348" height="29.55943" rx="2.42315" fill="#e19974"/><ellipse cx="160.37003" cy="421.61539" rx="4.12577" ry="4.08451" fill="#935b50"/><path d="M470.99657,317.3015h41.50427a0,0,0,0,1,0,0v6.58943a0,0,0,0,1,0,0H470.99657a2.83535,2.83535,0,0,1-2.83535-2.83535v-.91873A2.83535,2.83535,0,0,1,470.99657,317.3015Z" fill="#fff"/><path d="M513.7988,324.0596a.597.597,0,0,1-.597.597H470.12492c-1.64472,0-2.98256-1.80646-2.98256-4.02729,0-2.22028,1.33784-4.02674,2.98256-4.02674h43.07685a.597.597,0,0,1,.597.597v.46994a.597.597,0,0,1-.597.597H470.12492c-.96517,0-1.75022,1.06-1.75022,2.36274,0,1.30325.785,2.36329,1.75022,2.36329h43.07685a.597.597,0,0,1,.597.597Z" fill="#f65b2b"/><path d="M464.52111,309.24748h41.50427a0,0,0,0,1,0,0v6.58943a0,0,0,0,1,0,0H464.52111a2.83535,2.83535,0,0,1-2.83535-2.83535v-.91873A2.83535,2.83535,0,0,1,464.52111,309.24748Z" fill="#fff"/><path d="M507.32335,316.00557a.597.597,0,0,1-.597.597H463.64947c-1.64473,0-2.98257-1.80645-2.98257-4.02728,0-2.22029,1.33784-4.02674,2.98257-4.02674h43.07685a.597.597,0,0,1,.597.597v.46994a.597.597,0,0,1-.597.597H463.64947c-.96518,0-1.75023,1.06-1.75023,2.36275,0,1.30325.785,2.36329,1.75023,2.36329h43.07685a.597.597,0,0,1,.597.597Z" fill="#ffba55"/><path d="M477.77611,301.19345h41.50427a0,0,0,0,1,0,0v6.58943a0,0,0,0,1,0,0H477.77611a2.83535,2.83535,0,0,1-2.83535-2.83535v-.91873a2.83535,2.83535,0,0,1,2.83535-2.83535Z" fill="#fff"/><path d="M520.57834,307.95155a.597.597,0,0,1-.597.597H476.90447c-1.64473,0-2.98257-1.80646-2.98257-4.02728,0-2.22029,1.33784-4.02675,2.98257-4.02675h43.07685a.597.597,0,0,1,.597.597v.46994a.597.597,0,0,1-.597.597H476.90447c-.96518,0-1.75023,1.06-1.75023,2.36275,0,1.30324.78505,2.36328,1.75023,2.36328h43.07685a.597.597,0,0,1,.597.597Z" fill="#f65b2b"/><path d="M338.57094,242.80184l-6.78259-5.22337a6.57606,6.57606,0,0,0-3.32757-1.33091c-2.1201-.22279-5.53023-.68623-7.02232-1.46952-1.44778-.76-2.17854-.10007-1.439,1.35827.4353.85836,1.96763,1.98937,5.98088,3.32712l-3.49211.89367a3.85527,3.85527,0,0,1-3.05823-.50337l-3.84479-2.50145a1.1764,1.1764,0,0,0-1.53132.21653l-.00023.00026a1.17641,1.17641,0,0,0,.21748,1.7349l6.94,4.83324s-.66768,5.723,4.67378,6.963,12.686-.95383,12.686-.95383Z" fill="#d87e6a"/><polygon points="317.509 262.119 340.582 260.655 316.835 227.01 294.281 228.544 317.509 262.119" fill="#6c7fd8"/><path d="M340.68544,250.51874l-12.00428-10.5336s-6.46339-1.98554-10.18484-3.52417a5.27283,5.27283,0,0,0-6.01127,1.55238c-1.39218,1.667-1.34246,3.34966,2.52968,6,5.79134,3.96389,8.74317,5.42486,10.48757,5.94911.60433.18162,3.981,1.51748,3.981,1.51748Z" fill="#d87e6a"/><path d="M325.20149,241.75085a23.15238,23.15238,0,0,1-5.14978-1.842,15.4866,15.4866,0,0,1-4.50721-3.1084c.802.44776,1.61255.83765,2.413,1.24756l2.4237,1.18775C321.99494,240.03772,323.621,240.816,325.20149,241.75085Z" fill="#ba6558"/><path d="M323.6623,243.96277a21.80731,21.80731,0,0,1-5.70862-1.83325,16.201,16.201,0,0,1-2.60644-1.531,6.72107,6.72107,0,0,1-2.07-2.19873,11.19136,11.19136,0,0,0,2.38989,1.7085c.84986.47949,1.71778.93237,2.60975,1.345C320.04719,242.308,321.862,243.07751,323.6623,243.96277Z" fill="#ba6558"/><path d="M321.7375,245.6759a16.71078,16.71078,0,0,1-4.79724-1.46191,13.16579,13.16579,0,0,1-4.11915-2.86817c1.4961.77027,2.9441,1.49756,4.43726,2.18946C318.74348,244.23791,320.24372,244.901,321.7375,245.6759Z" fill="#ba6558"/><path d="M314.9845,189.72583l-7.6825-3.7771a6.576,6.576,0,0,1-2.66408-2.39721c-1.13652-1.80355-3.05886-4.65809-4.42077-5.65061-1.32146-.963-1.05224-1.9102.58279-1.891.96236.01129,2.654.8863,5.62714,3.89563l-.74108-3.52765a3.85522,3.85522,0,0,0-1.8027-2.52119l-3.94269-2.34409a1.17639,1.17639,0,0,1-.48229-1.46943l.00014-.00032a1.17639,1.17639,0,0,1,1.65248-.57137l7.40206,4.0907s4.8392-3.12738,8.31145,1.1167,4.74891,11.80217,4.74891,11.80217Z" fill="#d87e6a"/><path d="M311.31611,175.58411a4.09957,4.09957,0,0,1-1.595-.751,4.803,4.803,0,0,1-1.20813-1.271,3.1359,3.1359,0,0,1,1.65356.66822A3.58857,3.58857,0,0,1,311.31611,175.58411Z" fill="#ba6558"/><path d="M313.02754,174.74133a5.22484,5.22484,0,0,1-1.433-.95532c-.19848-.189-.398-.3667-.58362-.56348a6.18846,6.18846,0,0,0-.61535-.5874,1.3238,1.3238,0,0,1,.93786.09888,2.88033,2.88033,0,0,1,.76075.49316A2.95816,2.95816,0,0,1,313.02754,174.74133Z" fill="#ba6558"/><path d="M315.11823,174.66858a5.42362,5.42362,0,0,1-.66894-1.06494,3.33012,3.33012,0,0,0-.62134-.95777.84708.84708,0,0,1,.766.05469,1.35687,1.35687,0,0,1,.523.56226A1.50555,1.50555,0,0,1,315.11823,174.66858Z" fill="#ba6558"/><path d="M370.62676,135.15767a18.1195,18.1195,0,0,0-8.4192,1.1279c-1.25364.513-5.83875,2.38909-7.90137,6.91332-.78342,1.71821-.88227,3.74492-1.08046,7.79838-.12377,2.53185-1.00829,4.38316-.86018,7.4569a25.998,25.998,0,0,0,1.563,7.277c1.30753,3.66193.68044,5.80776,1.27722,6.47546,2.4051,2.691,9.19641.1656,9.47424,3.81356.17155,2.25252-1.53012,2.75474-1.25816,5.38726.35258,3.4128,11.27775,1.02491,14.455-.84086.43311-.25434,4.3473-3.09256,3.71694-7.06091-.33681-2.12-2.62322-12.03355-2.51106-13.33206.40581-4.69337,2.72861-5.37419,4.31232-11.09971a8.77832,8.77832,0,0,0-1.85248-8.38473A17.93092,17.93092,0,0,0,370.62676,135.15767Z" fill="#d87e6a"/><ellipse cx="354.38414" cy="154.90621" rx="0.94798" ry="1.17884" transform="translate(-6.9787 17.06229) rotate(-2.73117)" fill="#0a0709"/><ellipse cx="362.9218" cy="154.49893" rx="0.94798" ry="1.17884" transform="translate(-6.9496 17.46864) rotate(-2.73117)" fill="#0a0709"/><path d="M352.35871,152.88928a.59861.59861,0,0,1-.38281-1.05859,6.35264,6.35264,0,0,1,7.08594-.36231.59828.59828,0,0,1-.60352,1.03321,5.10774,5.10774,0,0,0-5.7168.249A.59614.59614,0,0,1,352.35871,152.88928Z" fill="#1e1d22"/><path d="M361.20832,152.46545a.59759.59759,0,0,1-.38379-1.05664,6.35224,6.35224,0,0,1,7.085-.3623.59827.59827,0,1,1-.60351,1.0332,5.06524,5.06524,0,0,0-5.71778.25A.59447.59447,0,0,1,361.20832,152.46545Z" fill="#1e1d22"/><path d="M359.61225,152.78772a4.47176,4.47176,0,0,1,.03369,3.03638,9.7601,9.7601,0,0,1-1.31775,2.77124l-.46752.58642a.62106.62106,0,0,0-.17835.44654,1.5407,1.5407,0,0,0,.6001,1.00683,3.80135,3.80135,0,0,0,2.69922.59107,3.33426,3.33426,0,0,1-3.04834-.12134,2.04247,2.04247,0,0,1-.96-1.43506,1.32606,1.32606,0,0,1,.301-.92773l.4502-.59107a13.79336,13.79336,0,0,0,1.37732-2.53638A5.71888,5.71888,0,0,0,359.61225,152.78772Z" fill="#ba6558"/><path d="M375.1468,152.44592a1.68447,1.68447,0,0,1,1.1228.00562,2.7555,2.7555,0,0,1,.97595.5686,3.22828,3.22828,0,0,1,.67969.87476,2.77963,2.77963,0,0,1,.31616,1.05346c-.58557-.47168-1.01819-.9497-1.49609-1.37011a8.63387,8.63387,0,0,0-.73084-.60254A5.71985,5.71985,0,0,0,375.1468,152.44592Z" fill="#ba6558"/><path d="M376.15022,157.31946a2.85725,2.85725,0,0,1-.65039-2.25366,3.07974,3.07974,0,0,1,.36706-1.15088,2.52232,2.52232,0,0,1,.79517-.88916,18.70218,18.70218,0,0,0-.41761,2.126A17.93486,17.93486,0,0,0,376.15022,157.31946Z" fill="#ba6558"/><path d="M373.41085,159.16779a9.23265,9.23265,0,0,1,.42917-3.95065c.59354-1.75517,1.31062-4.14227,2.98844-4.37893,1.23624-.17437,1.71946-.526,2.22374.6511.83343,1.94732-.346,4.19561-1.167,5.76157-1.17564,2.24072-2.23947,2.76841-2.18729,4.2774.03967,1.15114,3.43523,3.32911,4.03627,2.85013,1.22521-.97638.39955-3.68789,3.55018-10.38484,1.98977-4.22885,2.95818-5.05054,3.08851-7.6374.04622-.9185.23762-4.72109-2.14529-6.81369-1.10531-.97062-1.6913-.63089-6.37831-2.35718a37.93713,37.93713,0,0,1-3.81823-1.54412c-3.75483-1.82443-3.72244-2.85655-5.89287-3.36313-1.96073-.45754-2.036.37387-5.74035.33135-3.57148-.04089-3.92519-.81874-5.54919-.27067-2.81965.95145-4.04691,4.07005-4.37644,4.908a9.84916,9.84916,0,0,0-.88367,4.65031,8.88535,8.88535,0,0,0,1.95043,4.39153c.48689.45084,2.23986-2.36541,3.217-3.44.95821-1.05288,2.12082-.69594,3.683-.6734,1.52313.022,1.48517.97177,3.771,1.695.81443.25765,3.95293-1.33206,5.07271.39344,1.19311,1.83849,2.06158,2.02672,1.62771,3.8111-.2711,1.1148-.00645,2.4559.52279,5.13827.37962,1.925-.86591,8.77141-.86591,8.77141C370.04334,163.19907,373.73154,162.1407,373.41085,159.16779Z" fill="#1e1d22"/><path d="M363.14583,165.29365s-3.56333,3.65615-7.06408.337" fill="#0a0709"/><path d="M381.04466,425.53007s3.33816,24.66783,1.542,25.4651-47.1804,4.29421-39.00284-.03318l13.59706-6.30648a13.63865,13.63865,0,0,0,7.89955-12.49247l-.06841-7.78387Z" fill="#d87e6a"/><path d="M392.907,264.78985l.39842,3.68912a56.755,56.755,0,0,1-5.16757,30.45807h0v16.59668L385.457,425.13487a3.57687,3.57687,0,0,1-3.5758,3.4894h-18.806a3.57686,3.57686,0,0,1-3.55447-3.1772l-7.49136-66.62476a209.38363,209.38363,0,0,1-1.18066-30.78849l2.23429-63.244Z" fill="#8b9d36"/><path d="M323.315,182.78124c8.91,4.75785,21.13734,20.2003,21.13734,20.2003l15.42573-14.814,3.46012-8.65031,13.86747-3.782a5.05817,5.05817,0,0,0,3.70752-5.60316q-.01159-.07593-.02447-.15316l7.66647,12.74876c6.05835,10.07455,7.89591,21.69336,7.02253,33.41677L392.907,264.78985s-43.49473,5.34144-41.58708,0l.34664-8.58588-4.73425-.57092-7.63758-1.55578a3,3,0,0,1-2.38543-3.24683l.78958-7.67021a3,3,0,0,1,2.87716-2.69089l8.07317-.28832,4.00607-3.243.42783-13.555-2.36644.40611a19.56377,19.56377,0,0,1-17.59253-6.80463l-18.08735-24.22184a2.97113,2.97113,0,0,1-.431-2.79023,13.563,13.563,0,0,1,5.81287-7.1094A2.95868,2.95868,0,0,1,323.315,182.78124Z" fill="#f73c4f"/><path d="M385.17121,177.10046c-1.48413.95777-2.97876,1.89576-4.50207,2.781-1.5166.89746-3.03357,1.79443-4.57263,2.65015-3.07483,1.718-6.17481,3.38964-9.31568,4.98535l-.42517.21606-.16064-.42114-1.47876-3.87573c-.24829-.64527-.46741-1.303-.70252-1.95386-.23425-.65112-.4624-1.30493-.67554-1.96509.32727.61182.63965,1.22974.94581,1.85034.30542.62085.62695,1.23511.91906,1.86158l1.76428,3.75463-.58557-.20507c3.05579-1.75318,6.15247-3.43091,9.2743-5.062,1.5592-.8186,3.14062-1.59619,4.72229-2.37329C381.95344,178.55408,383.55708,177.8175,385.17121,177.10046Z" fill="#b02336"/><path d="M352.65522,236.93787a33.32637,33.32637,0,0,1,4.55408-1.57349q2.32086-.65368,4.66919-1.20654,4.69372-1.11146,9.4342-2.012l-.17908.22144-.83349-19.17822a65.52378,65.52378,0,0,1,.11951-9.64136,25.47339,25.47339,0,0,1,2.47583-9.37891,11.33647,11.33647,0,0,1,3.12731-3.83447,9.40054,9.40054,0,0,1,4.63367-1.821,11.0329,11.0329,0,0,1,9.08667,3.33569,11.95876,11.95876,0,0,1,2.61475,4.21118,36.72581,36.72581,0,0,1,1.43139,4.64136,60.54879,60.54879,0,0,1,1.44544,9.55639,108.96686,108.96686,0,0,1-.41907,19.24634c-.31091,3.19361-.74792,6.37232-1.25061,9.53882a11.55846,11.55846,0,0,1-4.788,8.32031,10.76191,10.76191,0,0,1-2.162,1.19458l-2.24377.87793c-1.4983.56909-3.00281,1.12183-4.51844,1.64307-3.02929,1.04639-6.08752,2.01587-9.19189,2.81787a83.95158,83.95158,0,0,1-9.41455,1.93164,42.25023,42.25023,0,0,1-9.57984.37549,42.15412,42.15412,0,0,0,9.54724-.59058,83.57517,83.57517,0,0,0,9.33277-2.136q4.60254-1.32385,9.111-2.95044c1.50293-.53833,2.99463-1.10816,4.47961-1.69385a18.01578,18.01578,0,0,0,4.22815-2.04565,10.77784,10.77784,0,0,0,4.37964-7.873c.469-3.157.90369-6.31983,1.19532-9.49634a108.074,108.074,0,0,0,.33691-19.084,59.93407,59.93407,0,0,0-1.4585-9.39576,35.72208,35.72208,0,0,0-1.37536-4.5288,10.9783,10.9783,0,0,0-2.38965-3.89429,10.0925,10.0925,0,0,0-8.297-3.08887,8.48782,8.48782,0,0,0-4.19287,1.62525,10.46024,10.46024,0,0,0-2.89307,3.53027,25.01992,25.01992,0,0,0-2.42834,9.05127,64.78384,64.78384,0,0,0-.23694,9.53222l.56177,19.18628.00549.19043-.18494.03125q-4.74572.79761-9.46142,1.79615-2.35528.50244-4.68848,1.09961A33.27019,33.27019,0,0,0,352.65522,236.93787Z" fill="#b02336"/><path d="M359.878,188.1676c-.4552,1.44141-.96985,2.85889-1.45313,4.28906-.51635,1.42041-1.03527,2.8252-1.46875,4.25953a65.8803,65.8803,0,0,0-2.07617,8.71875,88.64423,88.64423,0,0,0-.93982,8.93676l-.37585,4.5083c-.16174,1.501-.28919,3.00367-.4812,4.50293-.03443-1.511-.00415-3.01879-.0083-4.52856l.09716-4.52295c.02723-1.50732.08179-3.01123.18006-4.53345.11377-1.51587.29956-3.02636.54223-4.52758a48.4075,48.4075,0,0,1,2.337-8.801C357.30134,193.61926,358.5904,190.903,359.878,188.1676Z" fill="#b02336"/><path d="M344.45234,202.98157c-.297,1.82519-.62415,3.563-.82483,5.32592-.12268.87769-.17944,1.75879-.23816,2.64527-.06421.89087-.04346,1.77759-.08166,2.71167a8.70539,8.70539,0,0,1-.69837-2.68994,12.24,12.24,0,0,1,.02588-2.78662,13.99144,13.99144,0,0,1,.61243-2.70948A9.933,9.933,0,0,1,344.45234,202.98157Z" fill="#b02336"/><path d="M380.698,239.99036c-1.45862-1.48462-2.853-2.92676-4.36853-4.23658a28.98327,28.98327,0,0,0-2.359-1.84082,28.01564,28.01564,0,0,0-2.62-1.55346,10.30718,10.30718,0,0,1,5.63306,2.63867,15.74417,15.74417,0,0,1,2.13855,2.29565A11.763,11.763,0,0,1,380.698,239.99036Z" fill="#b02336"/><path d="M390.04548,251.05481a9.8617,9.8617,0,0,1-1.21252,3.00513,11.44252,11.44252,0,0,1-2.06092,2.5559,8.84676,8.84676,0,0,1-2.83105,1.72388,6.78464,6.78464,0,0,1-3.243.3457,13.207,13.207,0,0,0,2.9309-1.061,12.48676,12.48676,0,0,0,2.47278-1.74976A25.80619,25.80619,0,0,0,390.04548,251.05481Z" fill="#b02336"/><path d="M388.90083,257.1593a6.9042,6.9042,0,0,1-1.844,2.531,10.1362,10.1362,0,0,1-2.66418,1.72143,11.13061,11.13061,0,0,1-3.05542.80713,11.69415,11.69415,0,0,1-1.56726.07446,13.61418,13.61418,0,0,1-1.552-.17431c.50964-.1355,1.01306-.207,1.50878-.31494.4917-.13086.988-.20337,1.4657-.35205a20.27166,20.27166,0,0,0,2.80078-.9563A15.79949,15.79949,0,0,0,388.90083,257.1593Z" fill="#b02336"/><path d="M348.64912,240.181a35.59219,35.59219,0,0,1,.97522,6.25757,35.19371,35.19371,0,0,1-.02137,6.333,35.195,35.195,0,0,1-.97521-6.25757A35.6026,35.6026,0,0,1,348.64912,240.181Z" fill="#b02336"/><path d="M327.21,185.33752a38.42875,38.42875,0,0,1-3.97693,5.24268,37.96768,37.96768,0,0,1-4.725,4.57983,37.99087,37.99087,0,0,1,3.97693-5.24267A38.40144,38.40144,0,0,1,327.21,185.33752Z" fill="#b02336"/><polygon points="371.35 266.796 368.588 302.12 365.76 337.439 365.761 337.411 369.018 383.014 372.176 428.624 368.737 383.034 365.399 337.437 365.398 337.423 365.399 337.409 368.342 302.1 371.35 266.796" fill="#5e7c24"/><path d="M388.13776,298.93713a10.93181,10.93181,0,0,1-2.894,2.69141,5.79576,5.79576,0,0,1-1.86682.75293,2.23349,2.23349,0,0,1-1.91589-.43994,2.4743,2.4743,0,0,0,1.85168.14111,6.38,6.38,0,0,0,1.72339-.79224A26.167,26.167,0,0,0,388.13776,298.93713Z" fill="#5e7c24"/><path d="M359.878,267.16394q.11883,4.22314.15942,8.44653l.03479,8.44678-.04-.11816c2.98523,3.92187,5.96375,7.84912,8.84559,11.85034-3.11792-3.82007-6.13916-7.71436-9.15369-11.614l-.04041-.05224.00025-.06592.03479-8.44678Q359.76355,271.38732,359.878,267.16394Z" fill="#5e7c24"/><path d="M382.40925,342.94665a15.2899,15.2899,0,0,1-.21533,4.8064,18.95381,18.95381,0,0,1-1.515,4.59229,19.75886,19.75886,0,0,1-2.62719,4.05786,21.80947,21.80947,0,0,1-1.647,1.76611c-.58606.55078-1.23095,1.03613-1.83984,1.5542a29.085,29.085,0,0,0,3.24841-3.51172,21.13937,21.13937,0,0,0,2.50769-4.03808,20.194,20.194,0,0,0,1.57508-4.4834A18.497,18.497,0,0,0,382.40925,342.94665Z" fill="#5e7c24"/><path d="M383.13081,354.68347a21.75372,21.75372,0,0,1-1.71289,4.25781,17.74831,17.74831,0,0,1-2.62354,3.79175,11.10917,11.10917,0,0,1-3.73767,2.71216,8.3859,8.3859,0,0,1-4.54944.39819,9.23309,9.23309,0,0,0,4.42932-.67944,11.33112,11.33112,0,0,0,3.56592-2.7,18.95131,18.95131,0,0,0,2.64905-3.66968A30.27956,30.27956,0,0,0,383.13081,354.68347Z" fill="#5e7c24"/><rect x="308.31477" y="210.80334" width="0.39648" height="11.80273" fill="#7ca1b1"/><polygon points="326.248 232.543 326.09 232.177 338.492 226.827 338.65 227.192 326.248 232.543" fill="#7ca1b1"/><rect x="316.41139" y="216.50632" width="12.75207" height="0.39679" transform="translate(-0.09061 433.2744) rotate(-67.72725)" fill="#7ca1b1"/><path d="M360.98162,173.77507l.00049.00171c1.92822.166,3.56445.49292,3.69775,2.24341.11231,1.47314-.57031,2.20483-.98486,3.26611,4.11718-2.21716,8.15576-7.69165,8.15576-7.69165C368.43084,174.41472,360.98162,173.77507,360.98162,173.77507Z" fill="#ba6558"/><path d="M342.64962,453.97444c-2.24137-3.09661-.62927-6.88438,3.643-8.60633l17.97016-7.24286a1.97386,1.97386,0,0,1,1.91758.32248l6.408,6.05208a1.9833,1.9833,0,0,0,2.01665.28433l7.5532-3.16836c1.02475-.42986,2.32513.09406,2.32252.93572l-.032,10.30167c-.00186.598-.6908,1.08067-1.53879,1.078l-40.25353.05269Z" fill="#6c7fd8"/><path d="M579.72415,455.8939H110.33938a1,1,0,1,1,0-2H579.72415a1,1,0,0,1,0,2Z" fill="#935b50"/></svg>