<svg id="Layer_1" data-name="Layer 1" xmlns="http://www.w3.org/2000/svg" viewBox="0 0 700 550"><title>sir teaching english</title><path d="M142.30544,352.211c11.14461,60.91954,139.79821,161.06289,183.22778,80.47661,22.86036-42.419,90.63689-103.68663,142.869-140.13284,50.78834-35.43909-93.17828-96.95-183.22745-80.47641S131.16082,291.2915,142.30544,352.211Z" fill="#f9e0c0"/><path d="M125.5222,353.87277c-12.25806-67.00647,58.2389-136.24216,157.14957-154.33726,35.99556-6.58457,84.44472-2.08079,129.60071,12.05007,43.13654,13.498,74.52076,32.8846,81.90618,50.59572,4.12779,9.89818.63019,19.09239-10.11417,26.5898l-.60619-.86751c10.43415-7.28053,13.71221-15.79833,9.74352-25.3152-7.26809-17.42936-38.39989-36.58575-81.24577-49.99308-44.99955-14.08109-93.26028-18.57509-129.09407-12.01808-98.33647,17.98934-168.45123,86.67217-156.29805,153.10533Z" fill="#f9e0c0"/><path d="M125.83913,86.56352H394.16046a3.25946,3.25946,0,0,1,3.25946,3.25946V294.34771a3.25946,3.25946,0,0,1-3.25946,3.25946H125.83914a3.25949,3.25949,0,0,1-3.25949-3.25949V89.823A3.25948,3.25948,0,0,1,125.83913,86.56352Z" fill="#904d24"/><path d="M132.398,93.70147H387.60157a3.07,3.07,0,0,1,3.10011,3.039V287.43022a3.07,3.07,0,0,1-3.10011,3.039H132.398a3.07,3.07,0,0,1-3.10011-3.039V96.74046A3.07,3.07,0,0,1,132.398,93.70147Z" fill="#558031"/><path d="M218.1792,110.09207a1.89843,1.89843,0,0,1,2.0459-2.0459h7.25976a2.65236,2.65236,0,0,1,.27539.6377,2.86938,2.86938,0,0,1,.12061.83593,1.60973,1.60973,0,0,1-.36279,1.18848,1.31769,1.31769,0,0,1-.957.35156H221.919v2.0459h4.95019a2.68619,2.68619,0,0,1,.2749.62793,2.7327,2.7327,0,0,1,.1211.82422,1.64481,1.64481,0,0,1-.352,1.18848,1.2803,1.2803,0,0,1-.94629.35156H221.919v2.31055h5.65429a2.67284,2.67284,0,0,1,.2749.63769,2.8647,2.8647,0,0,1,.1211.83594,1.651,1.651,0,0,1-.36328,1.19922,1.29288,1.29288,0,0,1-.957.36328H220.2251a1.8998,1.8998,0,0,1-2.0459-2.04688Z" fill="#fff"/><path d="M242.3125,120.91629a2.00918,2.00918,0,0,1-.89062.47266,5.16847,5.16847,0,0,1-1.397.165,4.81513,4.81513,0,0,1-1.54-.24218,2.12881,2.12881,0,0,1-1.188-1.166l-2.17823-4.44336q-.32958-.68262-.59375-1.28711-.2644-.605-.57226-1.39746l-.13184.02246q.08716,1.188.09912,2.41992.01026,1.23194.01074,2.41993v3.41015a6.12619,6.12619,0,0,1-.73681.13184,7.41816,7.41816,0,0,1-.979.0664,4.98676,4.98676,0,0,1-.85839-.0664,1.3122,1.3122,0,0,1-.61573-.26367,1.26585,1.26585,0,0,1-.374-.53907,2.515,2.515,0,0,1-.13184-.8916v-11a1.83757,1.83757,0,0,1,.9458-.65918,4.16053,4.16053,0,0,1,1.36426-.2207,4.76514,4.76514,0,0,1,1.55078.25293,2.1005,2.1005,0,0,1,1.17676,1.15527l2.2002,4.44434q.33032.68115.59423,1.28711.26369.605.57178,1.39648l.10987-.02148q-.0879-1.188-.10987-2.376t-.022-2.376v-3.56446a6.12685,6.12685,0,0,1,.73682-.13183,7.41072,7.41072,0,0,1,.979-.06641,2.6459,2.6459,0,0,1,1.47412.34082,1.61743,1.61743,0,0,1,.50586,1.41992Z" fill="#fff"/><path d="M257.25,119.20047a1.71673,1.71673,0,0,1-.2417,1.01172,2.509,2.509,0,0,1-.77.63769,4.83086,4.83086,0,0,1-.77.3418,8.36047,8.36047,0,0,1-1.01221.28516,10.74089,10.74089,0,0,1-1.15478.1875,11.07355,11.07355,0,0,1-1.19922.06543,9.98757,9.98757,0,0,1-2.96973-.42872,6.76326,6.76326,0,0,1-2.40918-1.29785,6.15928,6.15928,0,0,1-1.61718-2.167,7.949,7.949,0,0,1,.05517-6.16016,6.60914,6.60914,0,0,1,1.71582-2.23242,7.16567,7.16567,0,0,1,2.44239-1.33105,9.19982,9.19982,0,0,1,2.82666-.44043,6.902,6.902,0,0,1,3.311.6709,1.9863,1.9863,0,0,1,1.22119,1.749,1.71084,1.71084,0,0,1-.28613.99023,2.363,2.363,0,0,1-.65967.66016,9.021,9.021,0,0,0-1.375-.64941,5.14032,5.14032,0,0,0-1.85937-.31836,4.039,4.039,0,0,0-2.937,1.05566,3.8863,3.8863,0,0,0-1.08887,2.92578,4.67288,4.67288,0,0,0,.29687,1.749,3.33413,3.33413,0,0,0,.80323,1.21,3.27052,3.27052,0,0,0,1.166.7041,4.223,4.223,0,0,0,1.40772.23144,3.71959,3.71959,0,0,0,.85839-.08886,2.27211,2.27211,0,0,0,.57178-.19727v-2.06836h-2.354a3.48833,3.48833,0,0,1-.25293-.63769,2.8369,2.8369,0,0,1-.1211-.83594,1.54142,1.54142,0,0,1,.36329-1.14453,1.28643,1.28643,0,0,1,.93457-.35156h3.71826a1.26123,1.26123,0,0,1,1.38574,1.38574Z" fill="#fff"/><path d="M261.82617,121.44461a1.89982,1.89982,0,0,1-2.0459-2.04688v-11.373c.16114-.0293.418-.07031.77-.1211a6.95082,6.95082,0,0,1,1.01172-.07714,4.55093,4.55093,0,0,1,.89112.07714,1.57737,1.57737,0,0,1,.64892.27442,1.1858,1.1858,0,0,1,.396.5498,2.69132,2.69132,0,0,1,.13183.92481v8.68945H268.668a2.9013,2.9013,0,0,1,.28613.64941,2.73179,2.73179,0,0,1,.13184.84668,1.69006,1.69006,0,0,1-.374,1.24317,1.36083,1.36083,0,0,1-.98974.36328Z" fill="#fff"/><path d="M274.91553,121.29031a6.11946,6.11946,0,0,1-.75879.13184,8.08366,8.08366,0,0,1-1.023.0664,4.62315,4.62315,0,0,1-.89111-.07714,1.58852,1.58852,0,0,1-.64893-.27539,1.18925,1.18925,0,0,1-.396-.54981,2.6814,2.6814,0,0,1-.13183-.92383V108.04617q.2417-.04394.77-.12109a7.08909,7.08909,0,0,1,1.01172-.07715,4.62679,4.62679,0,0,1,.89111.07715,1.59133,1.59133,0,0,1,.64893.27539,1.18585,1.18585,0,0,1,.396.5498,2.68525,2.68525,0,0,1,.13184.92383Z" fill="#fff"/><path d="M281.55957,116.07645q-.96826-.33106-1.75977-.6709a5.41548,5.41548,0,0,1-1.36425-.8252,3.415,3.415,0,0,1-.89063-1.15527,3.79207,3.79207,0,0,1-.31933-1.63867,3.601,3.601,0,0,1,1.44091-2.99219,6.43145,6.43145,0,0,1,4.03711-1.12207,11.03387,11.03387,0,0,1,1.76026.13183,5.24209,5.24209,0,0,1,1.397.40723,2.4411,2.4411,0,0,1,.91309.7041,1.5977,1.5977,0,0,1,.32959,1.001,1.75665,1.75665,0,0,1-.26368.97851,2.75025,2.75025,0,0,1-.63818.69336,4.99589,4.99589,0,0,0-1.29785-.53906,6.50164,6.50164,0,0,0-1.78223-.23047,2.94524,2.94524,0,0,0-1.45166.27442.803.803,0,0,0-.4624.69336.64054.64054,0,0,0,.28613.53906,2.95515,2.95515,0,0,0,.85791.38476l1.166.374a8.45485,8.45485,0,0,1,3.1792,1.68262,3.60032,3.60032,0,0,1,1.11084,2.7832,3.6623,3.6623,0,0,1-1.47412,3.02539,6.92836,6.92836,0,0,1-4.334,1.1543,10.05592,10.05592,0,0,1-1.88086-.165,5.91867,5.91867,0,0,1-1.51806-.4834,2.8034,2.8034,0,0,1-1.01172-.792,1.73963,1.73963,0,0,1-.36328-1.08887,1.64848,1.64848,0,0,1,.374-1.08887,2.848,2.848,0,0,1,.814-.69336,5.98464,5.98464,0,0,0,1.50733.83594,5.25644,5.25644,0,0,0,1.94678.35156,2.61635,2.61635,0,0,0,1.51806-.3291.95327.95327,0,0,0,.43994-.77051.75443.75443,0,0,0-.352-.6709,4.54589,4.54589,0,0,0-.98974-.45117Z" fill="#fff"/><path d="M301.82178,121.29031a6.13653,6.13653,0,0,1-.75879.13184,8.09717,8.09717,0,0,1-1.02344.0664,4.61781,4.61781,0,0,1-.89062-.07714A1.58852,1.58852,0,0,1,298.5,121.136a1.18583,1.18583,0,0,1-.396-.54981,2.66859,2.66859,0,0,1-.13232-.92383v-3.43261h-4.22412v5.06054a6.1191,6.1191,0,0,1-.75879.13184,8.08366,8.08366,0,0,1-1.02295.0664,4.62315,4.62315,0,0,1-.89111-.07714,1.58852,1.58852,0,0,1-.64893-.27539,1.18923,1.18923,0,0,1-.396-.54981,2.68113,2.68113,0,0,1-.13184-.92383V108.04617q.24169-.04394.77-.12109a7.08909,7.08909,0,0,1,1.01172-.07715,4.62679,4.62679,0,0,1,.89111.07715,1.59127,1.59127,0,0,1,.64893.27539,1.18578,1.18578,0,0,1,.396.5498,2.68525,2.68525,0,0,1,.13184.92383v3.52051h4.22412v-5.14844q.2417-.04394.77-.12109a7.10106,7.10106,0,0,1,1.01221-.07715,4.62144,4.62144,0,0,1,.89062.07715,1.59345,1.59345,0,0,1,.64942.27539,1.19264,1.19264,0,0,1,.396.5498,2.68525,2.68525,0,0,1,.13184.92383Z" fill="#fff"/><path d="M240.56494,153.721a2.08467,2.08467,0,0,1-.73926.35644,3.728,3.728,0,0,1-1.09668.15332,3.1786,3.1786,0,0,1-1.22412-.21289,1.28133,1.28133,0,0,1-.69677-.58594q-.1875-.39111-.459-1.01171-.27246-.61963-.56933-1.38575-.29811-.76464-.61231-1.623-.31494-.85841-.60352-1.74219-.28931-.88476-.54394-1.73438-.25488-.8496-.44189-1.59765a2.2001,2.2001,0,0,1,.68847-.4336,2.37772,2.37772,0,0,1,.96045-.19531,1.8415,1.8415,0,0,1,1.02832.2627,1.604,1.604,0,0,1,.58692.97754q.45849,1.667.92626,3.1875.4673,1.522.97754,3.17089h.102q.45924-1.59814.94336-3.48535.48487-1.88672.92676-3.75683a3.9769,3.9769,0,0,1,.6543-.25489,2.79956,2.79956,0,0,1,.79053-.10156,1.95351,1.95351,0,0,1,1.0708.28027,1.0119,1.0119,0,0,1,.44238.92579,4.8976,4.8976,0,0,1-.17871,1.08886q-.17871.71339-.459,1.60645-.28051.89209-.6289,1.86133-.34863.96825-.69727,1.82715-.34863.85839-.65429,1.51367A6.05992,6.05992,0,0,1,240.56494,153.721Z" fill="#fff"/><path d="M245.17188,145.34012a1.46688,1.46688,0,0,1,1.58105-1.58106h5.60986a2.03757,2.03757,0,0,1,.21241.49317,2.18614,2.18614,0,0,1,.09375.6455,1.243,1.243,0,0,1-.28077.918,1.01539,1.01539,0,0,1-.73925.27246H248.062v1.58106h3.82471a2.06376,2.06376,0,0,1,.21289.48437,2.12652,2.12652,0,0,1,.09326.6377,1.27091,1.27091,0,0,1-.272.918.99034.99034,0,0,1-.731.27148H248.062v1.78516h4.36865a2.03623,2.03623,0,0,1,.21289.49316,2.20674,2.20674,0,0,1,.09327.64551,1.27594,1.27594,0,0,1-.28028.92676,1.00186,1.00186,0,0,1-.73974.28027h-4.96387a1.46687,1.46687,0,0,1-1.58105-1.58105Z" fill="#fff"/><path d="M257.4458,150.72879v3.26367a4.71621,4.71621,0,0,1-.58642.10254,6.2067,6.2067,0,0,1-.79053.05078,3.5099,3.5099,0,0,1-.68848-.05957,1.15306,1.15306,0,0,1-.49316-.21191.94788.94788,0,0,1-.29737-.42578,2.07146,2.07146,0,0,1-.10205-.71387v-8.00684a.74785.74785,0,0,1,.19532-.55273,1.41362,1.41362,0,0,1,.53564-.31445,6.34032,6.34032,0,0,1,1.34326-.29688,13.42933,13.42933,0,0,1,1.63184-.09375,5.44356,5.44356,0,0,1,3.53613.98535,3.28845,3.28845,0,0,1,1.18994,2.66992,2.984,2.984,0,0,1-.54394,1.80176,3.91064,3.91064,0,0,1-1.292,1.15625q.61158.832,1.207,1.56348a10.08711,10.08711,0,0,1,.93457,1.32617,1.60138,1.60138,0,0,1-.62012.90918,1.7252,1.7252,0,0,1-1.01172.31445,2.17661,2.17661,0,0,1-.646-.085,1.57571,1.57571,0,0,1-.47607-.2373,1.994,1.994,0,0,1-.374-.374,5.04681,5.04681,0,0,1-.32276-.47656l-1.42822-2.29492Zm1.0708-2.26074a1.47943,1.47943,0,0,0,1.02-.332,1.23542,1.23542,0,0,0,.374-.97754,1.17491,1.17491,0,0,0-.4165-.97754,2.11519,2.11519,0,0,0-1.31738-.33106,4.04657,4.04657,0,0,0-.40772.0166c-.10205.01172-.21582.02832-.34033.05176v2.54981Z" fill="#fff"/><path d="M268.83545,154.33328q-.2893,0-.68018-.01758-.39111-.01758-.80761-.06836c-.27784-.0332-.55225-.07617-.82422-.127a3.96363,3.96363,0,0,1-.748-.21289,1.26456,1.26456,0,0,1-.93506-1.24023v-7.93946a.74789.74789,0,0,1,.19531-.55273,1.41374,1.41374,0,0,1,.53565-.31445,6.4787,6.4787,0,0,1,1.44482-.29688,16.60612,16.60612,0,0,1,1.78516-.09375,6.36928,6.36928,0,0,1,3.34912.73047,2.47706,2.47706,0,0,1,1.17285,2.26172,2.04518,2.04518,0,0,1-.44189,1.31738,2.52664,2.52664,0,0,1-1.18994.80762,2.9423,2.9423,0,0,1,1.41943.86621,2.27041,2.27041,0,0,1,.56934,1.58105,2.75778,2.75778,0,0,1-1.24952,2.49121A6.64039,6.64039,0,0,1,268.83545,154.33328Zm-1.105-6.5459h1.24072a1.66859,1.66859,0,0,0,1.0625-.27148.97275.97275,0,0,0,.33154-.79883.85328.85328,0,0,0-.38232-.73144,1.98776,1.98776,0,0,0-1.14746-.27149q-.25488,0-.58643.0166a4.419,4.419,0,0,0-.51855.05078Zm0,4.14844a3.03391,3.03391,0,0,0,.61182.09375q.37353.0249.71386.02539a2.1105,2.1105,0,0,0,1.13086-.28027.9596.9596,0,0,0,.4502-.876.87334.87334,0,0,0-.374-.79883,2.16214,2.16214,0,0,0-1.13867-.23828h-1.394Z" fill="#fff"/><path d="M278.28711,149.96414q-.74781-.25488-1.35986-.51855a4.18581,4.18581,0,0,1-1.05371-.6377,2.64175,2.64175,0,0,1-.689-.89258,2.93832,2.93832,0,0,1-.24609-1.2666,2.78106,2.78106,0,0,1,1.11328-2.31152,4.96893,4.96893,0,0,1,3.11963-.86719,8.58284,8.58284,0,0,1,1.35986.10156,4.07006,4.07006,0,0,1,1.07959.31446,1.89269,1.89269,0,0,1,.70557.54394,1.23566,1.23566,0,0,1,.25488.77344,1.35926,1.35926,0,0,1-.2041.75683,2.09877,2.09877,0,0,1-.49268.53516,3.86983,3.86983,0,0,0-1.00342-.416,5.0256,5.0256,0,0,0-1.37695-.17872,2.272,2.272,0,0,0-1.12207.21289.61975.61975,0,0,0-.35693.53516.49642.49642,0,0,0,.22119.417,2.30056,2.30056,0,0,0,.66308.29688l.90088.28906a6.51819,6.51819,0,0,1,2.45655,1.30078,2.78046,2.78046,0,0,1,.85839,2.15039,2.82992,2.82992,0,0,1-1.13916,2.33789,5.35258,5.35258,0,0,1-3.34863.89258,7.79968,7.79968,0,0,1-1.45361-.12793,4.60384,4.60384,0,0,1-1.17285-.374,2.16012,2.16012,0,0,1-.78223-.61231,1.341,1.341,0,0,1-.28027-.84082,1.27439,1.27439,0,0,1,.28906-.84179,2.18037,2.18037,0,0,1,.62891-.53516,4.60489,4.60489,0,0,0,1.16455.64551,4.05268,4.05268,0,0,0,1.50439.27246,2.00983,2.00983,0,0,0,1.17285-.25586.73489.73489,0,0,0,.33985-.59473.58273.58273,0,0,0-.272-.51855,3.54984,3.54984,0,0,0-.76465-.34863Z" fill="#fff"/><path d="M236.58691,164.46512a3.63145,3.63145,0,0,1,.87549-.32324,4.68134,4.68134,0,0,1,1.18164-.15235,4.25926,4.25926,0,0,1,1.5044.2461,1.31142,1.31142,0,0,1,.84179.77343q.30543.88477.6626,2.05762.35742,1.17188.71436,2.42187.35669,1.24952.69677,2.46485.33985,1.21582.59522,2.15039a1.3959,1.3959,0,0,1-.6123.38281,2.89756,2.89756,0,0,1-.96875.14453,2.939,2.939,0,0,1-.68848-.06836,1.21737,1.21737,0,0,1-.459-.20312,1.00577,1.00577,0,0,1-.28906-.35742,3.05648,3.05648,0,0,1-.19531-.50977l-.30615-1.17285H237.063q-.13623.50976-.272,1.05371-.13623.54346-.272,1.05371a4.39176,4.39176,0,0,1-.50146.14453,2.91587,2.91587,0,0,1-.6377.05957,2.223,2.223,0,0,1-1.2832-.29785.95462.95462,0,0,1-.4165-.82422,1.71949,1.71949,0,0,1,.06787-.47558c.04541-.15918.09619-.34571.15283-.56153q.11865-.45849.33154-1.13867.2124-.67968.46778-1.4707.25488-.791.54394-1.62305.28857-.83349.544-1.57324.25488-.73828.46728-1.31738Q236.46777,164.77175,236.58691,164.46512Zm2.04,2.19336q-.238.71337-.53515,1.58886-.2981.876-.53565,1.77735h2.10791q-.238-.91846-.48437-1.79395-.24683-.876-.45069-1.57226Z" fill="#fff"/><path d="M248.96338,174.73367q-.2893,0-.66309-.01758-.37426-.01757-.77343-.06836c-.26661-.0332-.53272-.07617-.79932-.12695a3.99827,3.99827,0,0,1-.73926-.21289,1.26456,1.26456,0,0,1-.93506-1.24023V165.1282a.74785.74785,0,0,1,.19532-.55273,1.41362,1.41362,0,0,1,.53564-.31445,7.14562,7.14562,0,0,1,1.54687-.31446q.81592-.07617,1.46241-.07617a8.35792,8.35792,0,0,1,2.40527.32324,4.94589,4.94589,0,0,1,1.853.99414,4.487,4.487,0,0,1,1.19824,1.69141,7.07717,7.07717,0,0,1,.01709,4.78516,4.57,4.57,0,0,1-1.16455,1.70019,4.87311,4.87311,0,0,1-1.81006,1.02832A7.56111,7.56111,0,0,1,248.96338,174.73367Zm-.95215-2.48242c.12451.02246.27783.042.459.05957.18116.0166.35108.02539.51026.02539a3.19443,3.19443,0,0,0,1.0625-.16992,2.13364,2.13364,0,0,0,.833-.52734,2.43675,2.43675,0,0,0,.54394-.92579,4.2501,4.2501,0,0,0,.19531-1.36914,3.29205,3.29205,0,0,0-.71386-2.30371,2.46728,2.46728,0,0,0-1.9043-.77343q-.238,0-.48437.01757c-.16456.01075-.33155.02832-.50147.05078Z" fill="#fff"/><path d="M262.29053,174.12137a2.08476,2.08476,0,0,1-.73926.35644,3.728,3.728,0,0,1-1.09668.15332,3.1786,3.1786,0,0,1-1.22412-.21289,1.28135,1.28135,0,0,1-.69678-.58594q-.1875-.39111-.459-1.01171-.27246-.61964-.56934-1.38575-.2981-.76464-.6123-1.623-.31494-.85841-.60352-1.74219-.28931-.88476-.54394-1.73438-.25489-.8496-.4419-1.59765a2.2,2.2,0,0,1,.68848-.4336,2.37786,2.37786,0,0,1,.96045-.19531,1.84155,1.84155,0,0,1,1.02832.2627,1.604,1.604,0,0,1,.58691.97754q.4585,1.667.92627,3.1875.46728,1.522.97754,3.17089h.10205q.45923-1.59813.94336-3.48535.48486-1.88672.92676-3.75683a3.97644,3.97644,0,0,1,.65429-.25489,2.8,2.8,0,0,1,.79053-.10156,1.95347,1.95347,0,0,1,1.0708.28028,1.01188,1.01188,0,0,1,.44239.92578,4.89715,4.89715,0,0,1-.17872,1.08886q-.17871.71338-.459,1.60645-.28051.89209-.62891,1.86133-.34863.96826-.69726,1.82715-.34863.85839-.6543,1.51367A6.05866,6.05866,0,0,1,262.29053,174.12137Z" fill="#fff"/><path d="M266.89746,165.74051a1.4669,1.4669,0,0,1,1.58106-1.58106h5.60986a2.0372,2.0372,0,0,1,.2124.49317,2.18615,2.18615,0,0,1,.09375.64551,1.243,1.243,0,0,1-.28076.918,1.01542,1.01542,0,0,1-.73926.27246H269.7876v1.58106h3.8247a2.06333,2.06333,0,0,1,.2129.48437,2.12652,2.12652,0,0,1,.09326.6377,1.27087,1.27087,0,0,1-.272.918.99032.99032,0,0,1-.731.27148H269.7876v1.78516h4.36865a2.03623,2.03623,0,0,1,.21289.49316,2.20707,2.20707,0,0,1,.09326.64551,1.27591,1.27591,0,0,1-.28027.92676,1.00186,1.00186,0,0,1-.73975.28027h-4.96386a1.46688,1.46688,0,0,1-1.58106-1.58105Z" fill="#fff"/><path d="M279.17139,171.12918v3.26367a4.71645,4.71645,0,0,1-.58643.10254,6.20647,6.20647,0,0,1-.79053.05078,3.50979,3.50979,0,0,1-.68847-.05957,1.153,1.153,0,0,1-.49317-.21191.94786.94786,0,0,1-.29736-.42578,2.07146,2.07146,0,0,1-.10205-.71387V165.1282a.74789.74789,0,0,1,.19531-.55273,1.41358,1.41358,0,0,1,.53565-.31445,6.34018,6.34018,0,0,1,1.34326-.29688,13.42916,13.42916,0,0,1,1.63183-.09375,5.44358,5.44358,0,0,1,3.53614.98535,3.28847,3.28847,0,0,1,1.18994,2.66992,2.98392,2.98392,0,0,1-.54395,1.80176,3.91041,3.91041,0,0,1-1.292,1.15625q.61158.832,1.207,1.56348a10.0852,10.0852,0,0,1,.93457,1.32617,1.60128,1.60128,0,0,1-.62012.90918,1.72517,1.72517,0,0,1-1.01171.31445,2.17651,2.17651,0,0,1-.646-.085,1.57571,1.57571,0,0,1-.47607-.2373,1.9937,1.9937,0,0,1-.374-.374,5.04675,5.04675,0,0,1-.32275-.47656l-1.42822-2.29492Zm1.0708-2.26074a1.47946,1.47946,0,0,0,1.02-.332,1.23542,1.23542,0,0,0,.374-.97754,1.17491,1.17491,0,0,0-.4165-.97754,2.11529,2.11529,0,0,0-1.31739-.33106,4.04273,4.04273,0,0,0-.40771.01661c-.102.01171-.21582.02832-.34033.05175v2.54981Z" fill="#fff"/><path d="M290.56152,174.73367q-.2893,0-.68017-.01758-.39111-.01757-.80762-.06836c-.27783-.0332-.55225-.07617-.82422-.12695a3.96405,3.96405,0,0,1-.748-.21289,1.26455,1.26455,0,0,1-.935-1.24023V165.1282a.74789.74789,0,0,1,.19531-.55273,1.41362,1.41362,0,0,1,.53564-.31445,6.4788,6.4788,0,0,1,1.44483-.29688,16.60594,16.60594,0,0,1,1.78515-.09375,6.36924,6.36924,0,0,1,3.34912.73047,2.47707,2.47707,0,0,1,1.17286,2.26172,2.04513,2.04513,0,0,1-.4419,1.31738,2.52652,2.52652,0,0,1-1.18994.80762,2.94226,2.94226,0,0,1,1.41943.86621,2.27037,2.27037,0,0,1,.56934,1.58105,2.75777,2.75777,0,0,1-1.24951,2.49121A6.64043,6.64043,0,0,1,290.56152,174.73367Zm-1.105-6.5459h1.24073a1.66863,1.66863,0,0,0,1.0625-.27148.97275.97275,0,0,0,.33154-.79883.85326.85326,0,0,0-.38233-.73144,1.98774,1.98774,0,0,0-1.14746-.27149q-.25488,0-.58642.0166a4.41917,4.41917,0,0,0-.51856.05078Zm0,4.14844a3.034,3.034,0,0,0,.61182.09375q.37353.0249.71387.02539a2.11054,2.11054,0,0,0,1.13086-.28027.95961.95961,0,0,0,.45019-.876.87336.87336,0,0,0-.374-.79883,2.16219,2.16219,0,0,0-1.13867-.23828h-1.394Z" fill="#fff"/><path d="M300.0127,170.36453q-.74781-.25488-1.35987-.51855a4.1857,4.1857,0,0,1-1.05371-.6377,2.64184,2.64184,0,0,1-.689-.89258,2.93814,2.93814,0,0,1-.2461-1.2666,2.78109,2.78109,0,0,1,1.11328-2.31152,4.969,4.969,0,0,1,3.11963-.86719,8.583,8.583,0,0,1,1.35987.10156,4.07017,4.07017,0,0,1,1.07959.31446,1.89258,1.89258,0,0,1,.70556.54394,1.23566,1.23566,0,0,1,.25489.77344,1.35932,1.35932,0,0,1-.20411.75684,2.09886,2.09886,0,0,1-.49267.53515,3.87,3.87,0,0,0-1.00342-.416,5.026,5.026,0,0,0-1.37695-.17872,2.27182,2.27182,0,0,0-1.12207.2129.61971.61971,0,0,0-.35694.53515.49641.49641,0,0,0,.22119.417,2.30077,2.30077,0,0,0,.66309.29688l.90088.28906a6.51821,6.51821,0,0,1,2.45654,1.30078,2.78043,2.78043,0,0,1,.8584,2.15039,2.82992,2.82992,0,0,1-1.13916,2.33789,5.35262,5.35262,0,0,1-3.34863.89258,7.79979,7.79979,0,0,1-1.45362-.12793,4.6041,4.6041,0,0,1-1.17285-.374,2.16017,2.16017,0,0,1-.78222-.61231,1.34094,1.34094,0,0,1-.28028-.84082,1.27434,1.27434,0,0,1,.28907-.84179,2.18062,2.18062,0,0,1,.6289-.53516,4.60524,4.60524,0,0,0,1.16455.64551,4.05273,4.05273,0,0,0,1.5044.27246,2.00986,2.00986,0,0,0,1.17285-.25586.73488.73488,0,0,0,.33984-.59473.58274.58274,0,0,0-.272-.51855,3.55007,3.55007,0,0,0-.76465-.34863Z" fill="#fff"/><path d="M243.72705,194.5032a1.54889,1.54889,0,0,1-.68848.36621,4.00293,4.00293,0,0,1-1.07959.127,3.75573,3.75573,0,0,1-1.18994-.18653,1.647,1.647,0,0,1-.918-.90136l-1.6831-3.4336q-.25488-.52734-.459-.99511-.20361-.4673-.44189-1.07911l-.102.01661q.06812.91845.07666,1.87011.00805.95215.0083,1.87012v2.63477a4.71518,4.71518,0,0,1-.56934.10253,5.68974,5.68974,0,0,1-.75683.05079,3.82561,3.82561,0,0,1-.6626-.05079,1.02017,1.02017,0,0,1-.47607-.2041.98277.98277,0,0,1-.28907-.417,1.93557,1.93557,0,0,1-.10205-.68848v-8.5a1.42286,1.42286,0,0,1,.731-.50976,3.21339,3.21339,0,0,1,1.0542-.16992,3.67839,3.67839,0,0,1,1.19824.19531,1.62429,1.62429,0,0,1,.90967.89258l1.70019,3.43457q.25489.52587.459.99414.20361.46728.44189,1.0791l.085-.0166q-.06812-.91846-.085-1.83594-.01758-.91845-.01709-1.83594v-2.7539a4.69884,4.69884,0,0,1,.56934-.10254,5.69523,5.69523,0,0,1,.75684-.05078,2.03751,2.03751,0,0,1,1.13867.26367,1.24827,1.24827,0,0,1,.39111,1.09668Z" fill="#fff"/><path d="M245.42725,189.69266a6.16235,6.16235,0,0,1,.4165-2.34571,4.72345,4.72345,0,0,1,2.83887-2.7539,6.445,6.445,0,0,1,4.23291,0A4.91761,4.91761,0,0,1,254.624,185.638a4.80085,4.80085,0,0,1,1.14746,1.709,6.16215,6.16215,0,0,1,.41651,2.34571,6.34916,6.34916,0,0,1-.40772,2.35449,4.75546,4.75546,0,0,1-1.13086,1.7168,4.83311,4.83311,0,0,1-1.70849,1.04589,6.26218,6.26218,0,0,1-2.14209.35645,6.12318,6.12318,0,0,1-2.1416-.36524,4.766,4.766,0,0,1-1.7002-1.0625,4.91307,4.91307,0,0,1-1.12207-1.71679A6.23056,6.23056,0,0,1,245.42725,189.69266Zm3.05957,0a3.58279,3.58279,0,0,0,.62939,2.31152,2.2511,2.2511,0,0,0,3.38281,0,4.55794,4.55794,0,0,0,.0083-4.60645,2.06106,2.06106,0,0,0-1.6914-.76464,2.102,2.102,0,0,0-1.69141.75586A3.51722,3.51722,0,0,0,248.48682,189.69266Z" fill="#fff"/><path d="M267.0166,191.053a4.32247,4.32247,0,0,1-.31445,1.67383,3.53607,3.53607,0,0,1-.90967,1.292,4.109,4.109,0,0,1-1.44482.82519,6.52682,6.52682,0,0,1-3.8418,0,4.11117,4.11117,0,0,1-1.44531-.82519,3.53475,3.53475,0,0,1-.90918-1.292,4.31346,4.31346,0,0,1-.31446-1.67383v-6.49414q.18678-.03369.59473-.09375a5.37161,5.37161,0,0,1,.78223-.05957,3.51679,3.51679,0,0,1,.68847.05957,1.22288,1.22288,0,0,1,.50147.21289.91422.91422,0,0,1,.30566.4248,2.06345,2.06345,0,0,1,.102.71387v5.18457a1.74292,1.74292,0,0,0,.45069,1.27539,1.71738,1.71738,0,0,0,2.3374,0,1.76148,1.76148,0,0,0,.44189-1.27539v-6.44238q.1875-.03369.59522-.09375a5.3715,5.3715,0,0,1,.78223-.05957,3.51679,3.51679,0,0,1,.68847.05957,1.22574,1.22574,0,0,1,.50147.21289.91422.91422,0,0,1,.30566.4248,2.06345,2.06345,0,0,1,.102.71387Z" fill="#fff"/><path d="M278.5083,194.5032a1.54889,1.54889,0,0,1-.68848.36621,4.00293,4.00293,0,0,1-1.07959.127,3.75573,3.75573,0,0,1-1.18994-.18653,1.647,1.647,0,0,1-.918-.90136l-1.6831-3.4336q-.25488-.52734-.459-.99511-.20361-.4673-.44189-1.07911l-.10205.01661q.06812.91845.07666,1.87011.00806.95215.0083,1.87012v2.63477a4.71518,4.71518,0,0,1-.56934.10253,5.68974,5.68974,0,0,1-.75683.05079,3.82561,3.82561,0,0,1-.6626-.05079,1.02017,1.02017,0,0,1-.47607-.2041.98277.98277,0,0,1-.28907-.417,1.93557,1.93557,0,0,1-.102-.68848v-8.5a1.42286,1.42286,0,0,1,.731-.50976,3.21339,3.21339,0,0,1,1.0542-.16992,3.67839,3.67839,0,0,1,1.19824.19531,1.62429,1.62429,0,0,1,.90967.89258l1.70019,3.43457q.2549.52587.459.99414.20361.46728.44189,1.0791l.085-.0166q-.06811-.91846-.085-1.83594-.01758-.91845-.01709-1.83594v-2.7539a4.69884,4.69884,0,0,1,.56934-.10254,5.69523,5.69523,0,0,1,.75684-.05078,2.03751,2.03751,0,0,1,1.13867.26367,1.24827,1.24827,0,0,1,.39111,1.09668Z" fill="#fff"/><path d="M237.36914,215.19266a4.71609,4.71609,0,0,1-.58643.10254,6.21216,6.21216,0,0,1-.79052.05078,3.5099,3.5099,0,0,1-.68848-.05957,1.21644,1.21644,0,0,1-.50146-.21192.91962.91962,0,0,1-.30616-.42578,2.07138,2.07138,0,0,1-.10205-.71387V205.928a.74788.74788,0,0,1,.19532-.55274,1.41374,1.41374,0,0,1,.53564-.31445,6.33356,6.33356,0,0,1,1.31738-.29687,11.818,11.818,0,0,1,1.4878-.09375,5.58746,5.58746,0,0,1,3.58691,1.00293,3.31285,3.31285,0,0,1,1.24121,2.71972,4.09971,4.09971,0,0,1-.26367,1.50488,3.12909,3.12909,0,0,1-.78223,1.15625,3.50682,3.50682,0,0,1-1.30908.74707,5.746,5.746,0,0,1-1.82715.26368h-1.207Zm.88379-5.457a1.62712,1.62712,0,0,0,1.09668-.33106,1.26778,1.26778,0,0,0,.38232-1.01172,1.24894,1.24894,0,0,0-.39941-.99414,1.722,1.722,0,0,0-1.16455-.34863c-.18115,0-.33154.00293-.4502.00879a2.84707,2.84707,0,0,0-.36572.042v2.63477Z" fill="#fff"/><path d="M247.229,211.929v3.26368a4.71621,4.71621,0,0,1-.58642.10254,6.20659,6.20659,0,0,1-.79053.05078,3.51,3.51,0,0,1-.68848-.05957,1.15319,1.15319,0,0,1-.49316-.21192.94786.94786,0,0,1-.29736-.42578,2.07138,2.07138,0,0,1-.10205-.71387V205.928a.74791.74791,0,0,1,.19531-.55274,1.41374,1.41374,0,0,1,.53564-.31445,6.34111,6.34111,0,0,1,1.34326-.29687,13.42945,13.42945,0,0,1,1.63184-.09375,5.44353,5.44353,0,0,1,3.53613.98535,3.28846,3.28846,0,0,1,1.18995,2.66992,2.984,2.984,0,0,1-.54395,1.80176,3.91061,3.91061,0,0,1-1.292,1.15625q.61157.832,1.207,1.56347a10.08619,10.08619,0,0,1,.93457,1.32618,1.60126,1.60126,0,0,1-.62012.90917,1.72511,1.72511,0,0,1-1.01172.31446,2.17649,2.17649,0,0,1-.646-.085,1.57567,1.57567,0,0,1-.47608-.23731,1.99419,1.99419,0,0,1-.374-.374,5.04675,5.04675,0,0,1-.32275-.47656l-1.42823-2.29493Zm1.0708-2.26074a1.47943,1.47943,0,0,0,1.02-.332,1.23538,1.23538,0,0,0,.374-.97754,1.1749,1.1749,0,0,0-.41651-.97754,2.11524,2.11524,0,0,0-1.31738-.33105,4.04621,4.04621,0,0,0-.40771.0166c-.102.01172-.21582.02832-.34034.05176v2.5498Z" fill="#fff"/><path d="M253.978,210.09305a6.16235,6.16235,0,0,1,.4165-2.34571,4.72345,4.72345,0,0,1,2.83887-2.7539,6.445,6.445,0,0,1,4.23291,0,4.91767,4.91767,0,0,1,1.70849,1.04492,4.801,4.801,0,0,1,1.14747,1.709,6.16235,6.16235,0,0,1,.4165,2.34571,6.34916,6.34916,0,0,1-.40772,2.35449,4.75557,4.75557,0,0,1-1.13085,1.7168,4.83315,4.83315,0,0,1-1.7085,1.04589,6.26214,6.26214,0,0,1-2.14209.35645,6.12345,6.12345,0,0,1-2.1416-.36523,4.76623,4.76623,0,0,1-1.7002-1.0625,4.9132,4.9132,0,0,1-1.12207-1.7168A6.23056,6.23056,0,0,1,253.978,210.09305Zm3.05957,0a3.58279,3.58279,0,0,0,.62939,2.31152,2.25108,2.25108,0,0,0,3.38281,0,4.558,4.558,0,0,0,.00831-4.60644,2.06107,2.06107,0,0,0-1.69141-.76465,2.102,2.102,0,0,0-1.69141.75586A3.51722,3.51722,0,0,0,257.0376,210.09305Z" fill="#fff"/><path d="M275.77148,214.90359a1.5489,1.5489,0,0,1-.68847.36621,4.003,4.003,0,0,1-1.07959.127,3.75564,3.75564,0,0,1-1.18994-.18653,1.647,1.647,0,0,1-.918-.90136l-1.68311-3.4336q-.25488-.52734-.459-.99511-.20361-.46729-.4419-1.07911l-.102.01661q.06812.91845.07666,1.87011.00805.95216.0083,1.87012v2.63477a4.71691,4.71691,0,0,1-.56933.10254,5.69,5.69,0,0,1-.75684.05078,3.82585,3.82585,0,0,1-.6626-.05078,1.02028,1.02028,0,0,1-.47607-.20411.98275.98275,0,0,1-.28906-.417,1.93555,1.93555,0,0,1-.102-.68847v-8.5a1.42278,1.42278,0,0,1,.73095-.50977,3.21344,3.21344,0,0,1,1.0542-.16992,3.67845,3.67845,0,0,1,1.19825.19531,1.62428,1.62428,0,0,1,.90966.89258l1.7002,3.43457q.25488.52587.459.99414.20361.46728.4419,1.0791l.085-.0166q-.06811-.91847-.085-1.83594-.01758-.91845-.01709-1.83594v-2.7539a4.69822,4.69822,0,0,1,.56933-.10254,5.69534,5.69534,0,0,1,.75684-.05078,2.03751,2.03751,0,0,1,1.13867.26367,1.24828,1.24828,0,0,1,.39111,1.09668Z" fill="#fff"/><path d="M277.47168,210.09305a6.16235,6.16235,0,0,1,.4165-2.34571,4.72352,4.72352,0,0,1,2.83887-2.7539,6.445,6.445,0,0,1,4.23291,0,4.9178,4.9178,0,0,1,1.7085,1.04492,4.801,4.801,0,0,1,1.14746,1.709,6.16235,6.16235,0,0,1,.4165,2.34571,6.34936,6.34936,0,0,1-.40771,2.35449,4.75559,4.75559,0,0,1-1.13086,1.7168,4.83315,4.83315,0,0,1-1.7085,1.04589,6.2621,6.2621,0,0,1-2.14209.35645,6.12345,6.12345,0,0,1-2.1416-.36523,4.76631,4.76631,0,0,1-1.7002-1.0625,4.91334,4.91334,0,0,1-1.12207-1.7168A6.23056,6.23056,0,0,1,277.47168,210.09305Zm3.05957,0a3.58279,3.58279,0,0,0,.62939,2.31152,2.25109,2.25109,0,0,0,3.38282,0,4.558,4.558,0,0,0,.0083-4.60644,2.06106,2.06106,0,0,0-1.69141-.76465,2.102,2.102,0,0,0-1.6914.75586A3.51716,3.51716,0,0,0,280.53125,210.09305Z" fill="#fff"/><path d="M299.061,211.4534a4.32248,4.32248,0,0,1-.31446,1.67383,3.536,3.536,0,0,1-.90967,1.292,4.10892,4.10892,0,0,1-1.44482.82519,6.52682,6.52682,0,0,1-3.8418,0,4.11126,4.11126,0,0,1-1.44531-.82519,3.53487,3.53487,0,0,1-.90918-1.292,4.31346,4.31346,0,0,1-.31445-1.67383v-6.49414q.18676-.03369.59472-.09375a5.37171,5.37171,0,0,1,.78223-.05957,3.5169,3.5169,0,0,1,.68848.05957,1.22289,1.22289,0,0,1,.50146.21289.91423.91423,0,0,1,.30567.4248,2.06345,2.06345,0,0,1,.102.71387v5.18457a1.743,1.743,0,0,0,.45068,1.27539,1.71738,1.71738,0,0,0,2.3374,0,1.76148,1.76148,0,0,0,.4419-1.27539v-6.44238q.1875-.03369.59521-.09375a5.37171,5.37171,0,0,1,.78223-.05957,3.5169,3.5169,0,0,1,.68848.05957,1.22575,1.22575,0,0,1,.50146.21289.91422.91422,0,0,1,.30566.4248,2.06342,2.06342,0,0,1,.10206.71387Z" fill="#fff"/><path d="M310.55322,214.90359a1.5489,1.5489,0,0,1-.68847.36621,4.003,4.003,0,0,1-1.07959.127,3.75575,3.75575,0,0,1-1.19-.18653,1.647,1.647,0,0,1-.918-.90136l-1.68311-3.4336q-.25488-.52734-.459-.99511-.20363-.46729-.4419-1.07911l-.102.01661q.06812.91845.07666,1.87011.00805.95216.0083,1.87012v2.63477a4.71691,4.71691,0,0,1-.56933.10254,5.69,5.69,0,0,1-.75684.05078,3.82585,3.82585,0,0,1-.6626-.05078,1.02028,1.02028,0,0,1-.47607-.20411.98275.98275,0,0,1-.28906-.417,1.9353,1.9353,0,0,1-.10206-.68847v-8.5a1.42285,1.42285,0,0,1,.731-.50977,3.21344,3.21344,0,0,1,1.0542-.16992,3.67835,3.67835,0,0,1,1.19824.19531,1.62426,1.62426,0,0,1,.90967.89258l1.7002,3.43457q.25488.52587.459.99414.20361.46728.4419,1.0791l.085-.0166q-.06811-.91847-.085-1.83594-.01758-.91845-.01709-1.83594v-2.7539a4.69822,4.69822,0,0,1,.56933-.10254,5.69534,5.69534,0,0,1,.75684-.05078,2.03751,2.03751,0,0,1,1.13867.26367,1.24828,1.24828,0,0,1,.39111,1.09668Z" fill="#fff"/><path d="M236.58691,225.66434a3.63139,3.63139,0,0,1,.87549-.32325,4.68179,4.68179,0,0,1,1.18164-.15234,4.2595,4.2595,0,0,1,1.5044.24609,1.31146,1.31146,0,0,1,.84179.77344q.30543.88477.6626,2.05762.35742,1.17188.71436,2.42187.35669,1.24952.69677,2.46485.33985,1.21581.59522,2.15039a1.3959,1.3959,0,0,1-.6123.38281,2.89756,2.89756,0,0,1-.96875.14453,2.939,2.939,0,0,1-.68848-.06836,1.21737,1.21737,0,0,1-.459-.20312,1.00577,1.00577,0,0,1-.28906-.35742,3.05682,3.05682,0,0,1-.19531-.50977l-.30615-1.17285H237.063q-.13623.50976-.272,1.05371-.13623.54345-.272,1.05371a4.39176,4.39176,0,0,1-.50146.14453,2.91587,2.91587,0,0,1-.6377.05957,2.223,2.223,0,0,1-1.2832-.29785.95465.95465,0,0,1-.4165-.82422,1.71949,1.71949,0,0,1,.06787-.47558c.04541-.15918.09619-.34571.15283-.56153q.11865-.45849.33154-1.13867.2124-.67968.46778-1.4707.25488-.791.54394-1.62305.28857-.83349.544-1.57324.25488-.73828.46728-1.31738Q236.46777,225.971,236.58691,225.66434Zm2.04,2.19336q-.238.71337-.53515,1.58886-.2981.876-.53565,1.77735h2.10791q-.238-.91846-.48437-1.79395-.24683-.876-.45069-1.57226Z" fill="#fff"/><path d="M248.96338,235.93289q-.2893,0-.66309-.01758-.37426-.01758-.77343-.06836c-.26661-.0332-.53272-.07617-.79932-.12695a3.99827,3.99827,0,0,1-.73926-.21289,1.26457,1.26457,0,0,1-.93506-1.24023v-7.93946a.74785.74785,0,0,1,.19532-.55273,1.41363,1.41363,0,0,1,.53564-.31446,7.14621,7.14621,0,0,1,1.54687-.31445q.81592-.07617,1.46241-.07617a8.35792,8.35792,0,0,1,2.40527.32324,4.94589,4.94589,0,0,1,1.853.99414A4.487,4.487,0,0,1,254.25,228.0784a7.07714,7.07714,0,0,1,.01709,4.78515,4.57,4.57,0,0,1-1.16455,1.7002,4.87325,4.87325,0,0,1-1.81006,1.02832A7.56111,7.56111,0,0,1,248.96338,235.93289Zm-.95215-2.48242c.12451.02246.27783.042.459.05957.18116.0166.35108.02539.51026.02539a3.19443,3.19443,0,0,0,1.0625-.16992,2.13355,2.13355,0,0,0,.833-.52735,2.43663,2.43663,0,0,0,.54394-.92578,4.2501,4.2501,0,0,0,.19531-1.36914,3.29205,3.29205,0,0,0-.71386-2.30371,2.46729,2.46729,0,0,0-1.9043-.77344q-.238,0-.48437.01758c-.16456.01074-.33155.02832-.50147.05078Z" fill="#fff"/><path d="M257.87109,225.35867q.18678-.03369.59473-.09375a5.37161,5.37161,0,0,1,.78223-.05957,3.50979,3.50979,0,0,1,.68847.05957,1.22288,1.22288,0,0,1,.50147.21289.91512.91512,0,0,1,.30615.42481,2.0752,2.0752,0,0,1,.102.71386v6.29a2.85025,2.85025,0,0,1-.86719,2.26953,3.778,3.778,0,0,1-2.5498.75684,3.201,3.201,0,0,1-1.42822-.27246,1.2317,1.2317,0,0,1-.56934-.50977,1.48615,1.48615,0,0,1-.17871-.73144,1.72017,1.72017,0,0,1,.09375-.59473,1.262,1.262,0,0,1,.22949-.4082c.21485.0459.39942.07617.55225.09375a4.66807,4.66807,0,0,0,.50146.02539,1.20591,1.20591,0,0,0,.95215-.33105,1.45146,1.45146,0,0,0,.28906-.97754Z" fill="#fff"/><path d="M263.00488,226.93973a1.4669,1.4669,0,0,1,1.58106-1.58106h5.60986a2.037,2.037,0,0,1,.2124.49317,2.18614,2.18614,0,0,1,.09375.6455,1.243,1.243,0,0,1-.28076.918,1.0154,1.0154,0,0,1-.73926.27246H265.895v1.58106h3.82471a2.06376,2.06376,0,0,1,.21289.48437,2.12652,2.12652,0,0,1,.09326.6377,1.27091,1.27091,0,0,1-.272.918.99034.99034,0,0,1-.731.27148H265.895v1.78516h4.36865a2.03623,2.03623,0,0,1,.21289.49316,2.20707,2.20707,0,0,1,.09326.64551,1.27594,1.27594,0,0,1-.28027.92676,1.00186,1.00186,0,0,1-.73975.28027h-4.96386a1.46688,1.46688,0,0,1-1.58106-1.58105Z" fill="#fff"/><path d="M277.47168,227.43289a2.51643,2.51643,0,0,0-2.00586.79883,3.32994,3.32994,0,0,0-.69727,2.26074,3.142,3.142,0,0,0,.77393,2.27832,2.76443,2.76443,0,0,0,2.08252.79883,3.28218,3.28218,0,0,0,1.18115-.1875,7.9242,7.9242,0,0,0,.92676-.42481,1.70137,1.70137,0,0,1,.4502.56934,1.74732,1.74732,0,0,1,.16162.77344,1.39312,1.39312,0,0,1-.77344,1.18164,4.51928,4.51928,0,0,1-2.35449.48437,6.96174,6.96174,0,0,1-2.14209-.32226,4.77606,4.77606,0,0,1-1.751-.99512,4.67961,4.67961,0,0,1-1.18164-1.70019,6.30131,6.30131,0,0,1-.43311-2.45606,6.10374,6.10374,0,0,1,.41651-2.33789,4.96,4.96,0,0,1,1.13867-1.708,4.7777,4.7777,0,0,1,1.69141-1.05371,5.94625,5.94625,0,0,1,2.07422-.35742,4.77311,4.77311,0,0,1,2.42236.50977,1.50127,1.50127,0,0,1,.8584,1.30957,1.32113,1.32113,0,0,1-.22071.76464,1.80317,1.80317,0,0,1-.51025.50977,5.59509,5.59509,0,0,0-.94336-.49316A3.08105,3.08105,0,0,0,277.47168,227.43289Z" fill="#fff"/><path d="M281.6875,227.73855a2.401,2.401,0,0,1-.32275-1.19042,1.28886,1.28886,0,0,1,.29736-.95215,1.06345,1.06345,0,0,1,.77344-.28809h7.41211a2.18231,2.18231,0,0,1,.2207.50977,2.228,2.228,0,0,1,.10205.67968,1.28579,1.28579,0,0,1-.29736.95215,1.06412,1.06412,0,0,1-.77344.28906H287.2124v7.85352a4.69889,4.69889,0,0,1-.58642.10254,6.201,6.201,0,0,1-.79053.05078,3.5099,3.5099,0,0,1-.68848-.05957,1.222,1.222,0,0,1-.50146-.21191.92643.92643,0,0,1-.30615-.42578,2.07247,2.07247,0,0,1-.10157-.71387v-6.59571Z" fill="#fff"/><path d="M294.59082,235.59207a4.71609,4.71609,0,0,1-.58643.10254,6.21216,6.21216,0,0,1-.79052.05078,3.5099,3.5099,0,0,1-.68848-.05957,1.21629,1.21629,0,0,1-.50146-.21191.91962.91962,0,0,1-.30616-.42578,2.07146,2.07146,0,0,1-.102-.71387v-8.97559q.18676-.03369.59522-.09375a5.365,5.365,0,0,1,.78174-.05957,3.50979,3.50979,0,0,1,.68847.05957,1.22008,1.22008,0,0,1,.50147.21289.91174.91174,0,0,1,.30615.42481,2.0752,2.0752,0,0,1,.10205.71386Z" fill="#fff"/><path d="M302.97119,235.32059a2.08467,2.08467,0,0,1-.73926.35644,3.728,3.728,0,0,1-1.09668.15332,3.1786,3.1786,0,0,1-1.22412-.21289,1.28133,1.28133,0,0,1-.69677-.58594q-.1875-.39111-.459-1.01172-.27246-.61962-.56933-1.38574-.29811-.76464-.61231-1.623-.31494-.85841-.60352-1.74219-.28931-.88478-.54394-1.73438-.25488-.8496-.44189-1.59765a2.2001,2.2001,0,0,1,.68847-.4336,2.37772,2.37772,0,0,1,.96045-.19531,1.8415,1.8415,0,0,1,1.02832.2627,1.604,1.604,0,0,1,.58692.97754q.45849,1.667.92626,3.1875.4673,1.522.97754,3.17089h.10205q.45924-1.59814.94336-3.48535.48488-1.88671.92676-3.75683a3.9769,3.9769,0,0,1,.6543-.25489,2.79956,2.79956,0,0,1,.79053-.10156,1.95351,1.95351,0,0,1,1.0708.28027,1.0119,1.0119,0,0,1,.44238.92579,4.8976,4.8976,0,0,1-.17871,1.08886q-.17871.71338-.459,1.60645-.28051.89208-.6289,1.86133-.34863.96825-.69727,1.82714-.34863.85841-.65429,1.51368A6.05992,6.05992,0,0,1,302.97119,235.32059Z" fill="#fff"/><path d="M307.57813,226.93973a1.46688,1.46688,0,0,1,1.58105-1.58106H314.769a2.0374,2.0374,0,0,1,.21241.49317,2.18614,2.18614,0,0,1,.09375.6455,1.243,1.243,0,0,1-.28077.918,1.01539,1.01539,0,0,1-.73925.27246h-3.58692v1.58106H314.293a2.06376,2.06376,0,0,1,.21289.48437,2.12652,2.12652,0,0,1,.09326.6377,1.27091,1.27091,0,0,1-.272.918.99034.99034,0,0,1-.731.27148h-3.12793v1.78516h4.36865a2.03623,2.03623,0,0,1,.21289.49316,2.20674,2.20674,0,0,1,.09327.64551,1.27594,1.27594,0,0,1-.28028.92676,1.00186,1.00186,0,0,1-.73974.28027h-4.96387a1.46687,1.46687,0,0,1-1.58105-1.58105Z" fill="#fff"/><path d="M319.90283,231.56375q-.74779-.25488-1.35986-.51855a4.18581,4.18581,0,0,1-1.05371-.6377,2.64187,2.64187,0,0,1-.689-.89258,2.93832,2.93832,0,0,1-.24609-1.2666,2.78106,2.78106,0,0,1,1.11328-2.31152,4.969,4.969,0,0,1,3.11963-.86719,8.58284,8.58284,0,0,1,1.35986.10156,4.07,4.07,0,0,1,1.07959.31446,1.89253,1.89253,0,0,1,.70557.54394,1.23566,1.23566,0,0,1,.25488.77344,1.35926,1.35926,0,0,1-.2041.75683,2.09876,2.09876,0,0,1-.49268.53516,3.87022,3.87022,0,0,0-1.00341-.416,5.02612,5.02612,0,0,0-1.377-.17871,2.272,2.272,0,0,0-1.12207.21289.61975.61975,0,0,0-.35693.53516.49642.49642,0,0,0,.22119.417,2.30078,2.30078,0,0,0,.66309.29688l.90088.28906a6.51814,6.51814,0,0,1,2.45654,1.30078,2.78047,2.78047,0,0,1,.8584,2.15039,2.83,2.83,0,0,1-1.13916,2.33789,5.35263,5.35263,0,0,1-3.34864.89258,7.79968,7.79968,0,0,1-1.45361-.12793,4.604,4.604,0,0,1-1.17285-.374,2.16021,2.16021,0,0,1-.78223-.61231,1.341,1.341,0,0,1-.28027-.84082,1.27439,1.27439,0,0,1,.28906-.84179,2.1805,2.1805,0,0,1,.62891-.53516,4.60489,4.60489,0,0,0,1.16455.64551,4.05268,4.05268,0,0,0,1.50439.27246,2.00983,2.00983,0,0,0,1.17285-.25586.73488.73488,0,0,0,.33985-.59473.58274.58274,0,0,0-.272-.51855,3.55075,3.55075,0,0,0-.76465-.34864Z" fill="#fff"/><path d="M237.36914,255.99246a4.71609,4.71609,0,0,1-.58643.10254,6.21216,6.21216,0,0,1-.79052.05078,3.5099,3.5099,0,0,1-.68848-.05957,1.21629,1.21629,0,0,1-.50146-.21191.91962.91962,0,0,1-.30616-.42578,2.07146,2.07146,0,0,1-.10205-.71387v-8.00684a.74785.74785,0,0,1,.19532-.55273,1.41362,1.41362,0,0,1,.53564-.31445,6.3329,6.3329,0,0,1,1.31738-.29688,11.818,11.818,0,0,1,1.4878-.09375,5.58746,5.58746,0,0,1,3.58691,1.00293,3.31288,3.31288,0,0,1,1.24121,2.71973,4.09974,4.09974,0,0,1-.26367,1.50488,3.12917,3.12917,0,0,1-.78223,1.15625,3.50709,3.50709,0,0,1-1.30908.74707,5.746,5.746,0,0,1-1.82715.26367h-1.207Zm.88379-5.457a1.62712,1.62712,0,0,0,1.09668-.33105,1.26781,1.26781,0,0,0,.38232-1.01172,1.24892,1.24892,0,0,0-.39941-.99414,1.72193,1.72193,0,0,0-1.16455-.34864c-.18115,0-.33154.00293-.4502.00879a2.84707,2.84707,0,0,0-.36572.042v2.63477Z" fill="#fff"/><path d="M247.229,252.72879v3.26367a4.71621,4.71621,0,0,1-.58642.10254,6.20659,6.20659,0,0,1-.79053.05078,3.51,3.51,0,0,1-.68848-.05957,1.15306,1.15306,0,0,1-.49316-.21191.94786.94786,0,0,1-.29736-.42578,2.07146,2.07146,0,0,1-.10205-.71387v-8.00684a.74789.74789,0,0,1,.19531-.55273,1.41362,1.41362,0,0,1,.53564-.31445,6.34046,6.34046,0,0,1,1.34326-.29688,13.42945,13.42945,0,0,1,1.63184-.09375,5.44353,5.44353,0,0,1,3.53613.98535,3.28846,3.28846,0,0,1,1.18995,2.66992,2.984,2.984,0,0,1-.54395,1.80176,3.91061,3.91061,0,0,1-1.292,1.15625q.61157.832,1.207,1.56348a10.08616,10.08616,0,0,1,.93457,1.32617,1.60128,1.60128,0,0,1-.62012.90918,1.72517,1.72517,0,0,1-1.01172.31445,2.17649,2.17649,0,0,1-.646-.085,1.57565,1.57565,0,0,1-.47608-.2373,1.994,1.994,0,0,1-.374-.374,5.04675,5.04675,0,0,1-.32275-.47656l-1.42823-2.29492Zm1.0708-2.26074a1.47943,1.47943,0,0,0,1.02-.332,1.23539,1.23539,0,0,0,.374-.97754,1.17488,1.17488,0,0,0-.41651-.97754,2.11517,2.11517,0,0,0-1.31738-.33106,4.04621,4.04621,0,0,0-.40771.0166c-.102.01172-.21582.02832-.34034.05176v2.54981Z" fill="#fff"/><path d="M254.624,247.34012a1.4669,1.4669,0,0,1,1.58106-1.58106h5.60986a2.0372,2.0372,0,0,1,.2124.49317,2.18614,2.18614,0,0,1,.09375.6455,1.243,1.243,0,0,1-.28076.918,1.0154,1.0154,0,0,1-.73926.27246h-3.58691v1.58106h3.82471a2.06376,2.06376,0,0,1,.21289.48437,2.12652,2.12652,0,0,1,.09326.6377,1.27091,1.27091,0,0,1-.272.918.99034.99034,0,0,1-.731.27148h-3.12793v1.78516h4.36865a2.03623,2.03623,0,0,1,.21289.49316,2.20707,2.20707,0,0,1,.09326.64551,1.27594,1.27594,0,0,1-.28027.92676,1.00186,1.00186,0,0,1-.73974.28027h-4.96387a1.46688,1.46688,0,0,1-1.58106-1.58105Z" fill="#fff"/><path d="M266.91455,255.99246a4.71621,4.71621,0,0,1-.58642.10254,6.21243,6.21243,0,0,1-.79053.05078,3.5099,3.5099,0,0,1-.68848-.05957,1.21629,1.21629,0,0,1-.50146-.21191.91969.91969,0,0,1-.30616-.42578,2.07146,2.07146,0,0,1-.102-.71387v-8.00684a.74785.74785,0,0,1,.19532-.55273,1.41362,1.41362,0,0,1,.53564-.31445,6.3329,6.3329,0,0,1,1.31738-.29688,11.818,11.818,0,0,1,1.4878-.09375,5.58746,5.58746,0,0,1,3.58691,1.00293,3.31288,3.31288,0,0,1,1.24121,2.71973,4.09974,4.09974,0,0,1-.26367,1.50488,3.12917,3.12917,0,0,1-.78223,1.15625,3.50709,3.50709,0,0,1-1.30908.74707,5.746,5.746,0,0,1-1.82715.26367h-1.207Zm.88379-5.457a1.62712,1.62712,0,0,0,1.09668-.33105,1.26781,1.26781,0,0,0,.38232-1.01172,1.24892,1.24892,0,0,0-.39941-.99414,1.72193,1.72193,0,0,0-1.16455-.34864c-.18115,0-.33154.00293-.4502.00879a2.84707,2.84707,0,0,0-.36572.042v2.63477Z" fill="#fff"/><path d="M273.30664,250.89285a6.16229,6.16229,0,0,1,.4165-2.3457,4.7235,4.7235,0,0,1,2.83887-2.75391,6.445,6.445,0,0,1,4.23291,0,4.918,4.918,0,0,1,1.7085,1.04492,4.801,4.801,0,0,1,1.14746,1.709,6.16229,6.16229,0,0,1,.4165,2.3457,6.34933,6.34933,0,0,1-.40771,2.35449,4.7555,4.7555,0,0,1-1.13086,1.7168,4.83294,4.83294,0,0,1-1.7085,1.0459,6.26234,6.26234,0,0,1-2.14209.35644,6.12345,6.12345,0,0,1-2.1416-.36523,4.766,4.766,0,0,1-1.70019-1.0625,4.913,4.913,0,0,1-1.12207-1.7168A6.23028,6.23028,0,0,1,273.30664,250.89285Zm3.05957,0a3.58276,3.58276,0,0,0,.6294,2.31153,2.2511,2.2511,0,0,0,3.38281,0,4.558,4.558,0,0,0,.0083-4.60645,2.06106,2.06106,0,0,0-1.69141-.76465,2.102,2.102,0,0,0-1.6914.75586A3.51716,3.51716,0,0,0,276.36621,250.89285Z" fill="#fff"/><path d="M288.69092,251.96414q-.74781-.25488-1.35987-.51855a4.18617,4.18617,0,0,1-1.05371-.6377,2.64184,2.64184,0,0,1-.689-.89258,2.93832,2.93832,0,0,1-.24609-1.2666,2.78106,2.78106,0,0,1,1.11328-2.31152,4.96891,4.96891,0,0,1,3.11963-.86719,8.58284,8.58284,0,0,1,1.35986.10156,4.07006,4.07006,0,0,1,1.07959.31446,1.89258,1.89258,0,0,1,.70556.54394,1.2356,1.2356,0,0,1,.25489.77344,1.35926,1.35926,0,0,1-.2041.75683,2.099,2.099,0,0,1-.49268.53516,3.86983,3.86983,0,0,0-1.00342-.416,5.02565,5.02565,0,0,0-1.377-.17872,2.272,2.272,0,0,0-1.12207.21289.61975.61975,0,0,0-.35693.53516.49642.49642,0,0,0,.22119.417,2.30056,2.30056,0,0,0,.66308.29688l.90088.28906a6.51807,6.51807,0,0,1,2.45654,1.30078,2.78043,2.78043,0,0,1,.8584,2.15039,2.82992,2.82992,0,0,1-1.13916,2.33789,5.3526,5.3526,0,0,1-3.34863.89258,7.79968,7.79968,0,0,1-1.45361-.12793,4.60384,4.60384,0,0,1-1.17285-.374,2.16012,2.16012,0,0,1-.78223-.61231,1.341,1.341,0,0,1-.28027-.84082,1.27439,1.27439,0,0,1,.28906-.84179,2.18047,2.18047,0,0,1,.6289-.53516,4.60524,4.60524,0,0,0,1.16455.64551,4.05273,4.05273,0,0,0,1.5044.27246,2.00983,2.00983,0,0,0,1.17285-.25586.73488.73488,0,0,0,.33984-.59473.58274.58274,0,0,0-.272-.51855,3.54984,3.54984,0,0,0-.76465-.34863Z" fill="#fff"/><path d="M298.10938,255.99246a4.71645,4.71645,0,0,1-.58643.10254,6.2122,6.2122,0,0,1-.79053.05078,3.50979,3.50979,0,0,1-.68847-.05957,1.21628,1.21628,0,0,1-.50147-.21191.9196.9196,0,0,1-.30615-.42578,2.07146,2.07146,0,0,1-.10205-.71387v-8.97559q.18676-.03369.59521-.09375a5.36509,5.36509,0,0,1,.78174-.05957,3.51,3.51,0,0,1,.68848.05957,1.22,1.22,0,0,1,.50146.21289.91174.91174,0,0,1,.30615.42481,2.075,2.075,0,0,1,.10206.71387Z" fill="#fff"/><path d="M299.84326,248.139a2.40106,2.40106,0,0,1-.32275-1.19043,1.28886,1.28886,0,0,1,.29736-.95215,1.06347,1.06347,0,0,1,.77344-.28809h7.41211a2.18231,2.18231,0,0,1,.2207.50977,2.228,2.228,0,0,1,.102.67968,1.28579,1.28579,0,0,1-.29736.95215,1.06411,1.06411,0,0,1-.77344.28907h-1.88721v7.85351a4.69889,4.69889,0,0,1-.58642.10254,6.20087,6.20087,0,0,1-.79053.05078,3.51,3.51,0,0,1-.68848-.05957,1.222,1.222,0,0,1-.50146-.21191.9265.9265,0,0,1-.30615-.42578,2.07271,2.07271,0,0,1-.10157-.71387V248.139Z" fill="#fff"/><path d="M312.74609,255.99246a4.71621,4.71621,0,0,1-.58642.10254,6.21232,6.21232,0,0,1-.79053.05078,3.51,3.51,0,0,1-.68848-.05957,1.21629,1.21629,0,0,1-.50146-.21191.9196.9196,0,0,1-.30615-.42578,2.07146,2.07146,0,0,1-.102-.71387v-8.97559q.18676-.03369.59521-.09375a5.36509,5.36509,0,0,1,.78174-.05957,3.51,3.51,0,0,1,.68848.05957,1.22,1.22,0,0,1,.50146.21289.91174.91174,0,0,1,.30615.42481,2.07522,2.07522,0,0,1,.102.71387Z" fill="#fff"/><path d="M314.44629,250.89285a6.16229,6.16229,0,0,1,.4165-2.3457,4.72343,4.72343,0,0,1,2.83887-2.75391,6.445,6.445,0,0,1,4.23291,0,4.918,4.918,0,0,1,1.7085,1.04492,4.801,4.801,0,0,1,1.14746,1.709,6.16229,6.16229,0,0,1,.4165,2.3457,6.34933,6.34933,0,0,1-.40771,2.35449,4.7555,4.7555,0,0,1-1.13086,1.7168A4.833,4.833,0,0,1,321.96,256.01a6.26238,6.26238,0,0,1-2.14209.35644,6.12345,6.12345,0,0,1-2.1416-.36523,4.76609,4.76609,0,0,1-1.7002-1.0625,4.91325,4.91325,0,0,1-1.12207-1.7168A6.23048,6.23048,0,0,1,314.44629,250.89285Zm3.05957,0a3.58282,3.58282,0,0,0,.62939,2.31153,2.25111,2.25111,0,0,0,3.38282,0,4.558,4.558,0,0,0,.0083-4.60645,2.06106,2.06106,0,0,0-1.69141-.76465,2.102,2.102,0,0,0-1.69141.75586A3.51722,3.51722,0,0,0,317.50586,250.89285Z" fill="#fff"/><path d="M336.23975,255.7034a1.549,1.549,0,0,1-.68848.36621,4.00341,4.00341,0,0,1-1.07959.12695,3.756,3.756,0,0,1-1.18994-.18652,1.647,1.647,0,0,1-.918-.90137l-1.68311-3.43359q-.25488-.52734-.459-.99512-.20361-.46728-.44189-1.0791l-.10206.0166q.06812.91847.07666,1.87012.00807.95214.00831,1.87012v2.63476a4.71716,4.71716,0,0,1-.56934.10254,5.68975,5.68975,0,0,1-.75684.05078,3.82564,3.82564,0,0,1-.66259-.05078,1.02036,1.02036,0,0,1-.47608-.2041.98275.98275,0,0,1-.28906-.417,1.93561,1.93561,0,0,1-.102-.68848v-8.5a1.42289,1.42289,0,0,1,.731-.50977,3.21333,3.21333,0,0,1,1.05419-.16992,3.67845,3.67845,0,0,1,1.19825.19531,1.62431,1.62431,0,0,1,.90966.89258L332.5,250.1282q.25488.52589.459.99414.20363.4673.4419,1.07911l.085-.01661q-.06811-.91845-.085-1.83593-.01758-.91846-.01709-1.83594v-2.75391a4.69808,4.69808,0,0,1,.56934-.10254,5.69519,5.69519,0,0,1,.75683-.05078,2.03749,2.03749,0,0,1,1.13867.26367,1.24827,1.24827,0,0,1,.39112,1.09668Z" fill="#fff"/><path d="M341.37354,251.96414q-.74781-.25488-1.35987-.51855a4.186,4.186,0,0,1-1.05371-.6377,2.64184,2.64184,0,0,1-.689-.89258,2.93817,2.93817,0,0,1-.2461-1.2666,2.78109,2.78109,0,0,1,1.11328-2.31152,4.969,4.969,0,0,1,3.11963-.86719,8.583,8.583,0,0,1,1.35987.10156,4.07017,4.07017,0,0,1,1.07959.31446,1.89258,1.89258,0,0,1,.70556.54394,1.23566,1.23566,0,0,1,.25488.77344,1.35926,1.35926,0,0,1-.2041.75683,2.09874,2.09874,0,0,1-.49267.53516,3.87,3.87,0,0,0-1.00342-.416,5.02565,5.02565,0,0,0-1.37695-.17872,2.272,2.272,0,0,0-1.12207.21289.61974.61974,0,0,0-.35694.53516.49642.49642,0,0,0,.22119.417,2.30077,2.30077,0,0,0,.66309.29688l.90088.28906a6.51807,6.51807,0,0,1,2.45654,1.30078,2.78043,2.78043,0,0,1,.8584,2.15039,2.82992,2.82992,0,0,1-1.13916,2.33789,5.35262,5.35262,0,0,1-3.34863.89258,7.79979,7.79979,0,0,1-1.45362-.12793,4.6041,4.6041,0,0,1-1.17285-.374,2.16017,2.16017,0,0,1-.78222-.61231,1.34094,1.34094,0,0,1-.28028-.84082,1.27439,1.27439,0,0,1,.28906-.84179,2.18063,2.18063,0,0,1,.62891-.53516,4.60524,4.60524,0,0,0,1.16455.64551,4.05273,4.05273,0,0,0,1.5044.27246,2.00986,2.00986,0,0,0,1.17285-.25586.73488.73488,0,0,0,.33984-.59473.58274.58274,0,0,0-.272-.51855,3.55007,3.55007,0,0,0-.76465-.34863Z" fill="#fff"/><path d="M239.647,268.23367a2.51643,2.51643,0,0,0-2.00586.79883,3.32993,3.32993,0,0,0-.69726,2.26074,3.142,3.142,0,0,0,.77392,2.27832,2.76445,2.76445,0,0,0,2.08252.79883,3.28227,3.28227,0,0,0,1.18116-.1875,7.924,7.924,0,0,0,.92675-.4248,1.70121,1.70121,0,0,1,.4502.56933,1.74732,1.74732,0,0,1,.16162.77344,1.3931,1.3931,0,0,1-.77344,1.18164,4.51925,4.51925,0,0,1-2.35449.48438,6.96179,6.96179,0,0,1-2.14209-.32227,4.77606,4.77606,0,0,1-1.751-.99512,4.67973,4.67973,0,0,1-1.18164-1.70019,6.30131,6.30131,0,0,1-.4331-2.45606,6.10375,6.10375,0,0,1,.4165-2.33789,4.96014,4.96014,0,0,1,1.13867-1.708,4.7777,4.7777,0,0,1,1.69141-1.05371,5.94629,5.94629,0,0,1,2.07422-.35742,4.77308,4.77308,0,0,1,2.42236.50977,1.50125,1.50125,0,0,1,.8584,1.30957,1.32125,1.32125,0,0,1-.2207.76465,1.80316,1.80316,0,0,1-.51026.50976,5.59544,5.59544,0,0,0-.94336-.49316A3.081,3.081,0,0,0,239.647,268.23367Z" fill="#fff"/><path d="M243.42139,271.29324a6.16229,6.16229,0,0,1,.4165-2.3457,4.72343,4.72343,0,0,1,2.83887-2.75391,6.445,6.445,0,0,1,4.23291,0,4.91782,4.91782,0,0,1,1.70849,1.04492,4.80113,4.80113,0,0,1,1.14747,1.709,6.16229,6.16229,0,0,1,.4165,2.3457,6.34912,6.34912,0,0,1-.40772,2.35449,4.75537,4.75537,0,0,1-1.13086,1.7168,4.8329,4.8329,0,0,1-1.70849,1.0459,6.26242,6.26242,0,0,1-2.14209.35645,6.12345,6.12345,0,0,1-2.1416-.36524,4.76609,4.76609,0,0,1-1.7002-1.0625,4.91311,4.91311,0,0,1-1.12207-1.7168A6.23048,6.23048,0,0,1,243.42139,271.29324Zm3.05957,0a3.58282,3.58282,0,0,0,.62939,2.31153,2.2511,2.2511,0,0,0,3.38281,0,4.55794,4.55794,0,0,0,.0083-4.60645,2.061,2.061,0,0,0-1.6914-.76465,2.102,2.102,0,0,0-1.69141.75586A3.51722,3.51722,0,0,0,246.481,271.29324Z" fill="#fff"/><path d="M265.21484,276.10379a1.5489,1.5489,0,0,1-.68847.36621,4.00346,4.00346,0,0,1-1.07959.12695,3.75592,3.75592,0,0,1-1.18994-.18652,1.647,1.647,0,0,1-.918-.90137l-1.68311-3.43359q-.25488-.52734-.459-.99512-.20361-.46728-.4419-1.0791l-.10205.0166q.06812.91846.07666,1.87012.00806.95214.0083,1.87012v2.63476a4.71691,4.71691,0,0,1-.56933.10254,5.69,5.69,0,0,1-.75684.05078,3.82585,3.82585,0,0,1-.6626-.05078,1.02037,1.02037,0,0,1-.47607-.2041.98275.98275,0,0,1-.28906-.417,1.93561,1.93561,0,0,1-.102-.68848v-8.5a1.4229,1.4229,0,0,1,.731-.50977,3.21344,3.21344,0,0,1,1.0542-.16992,3.67809,3.67809,0,0,1,1.19824.19532,1.62424,1.62424,0,0,1,.90967.89257l1.7002,3.43457q.25488.52589.459.99414.20361.46729.4419,1.07911l.085-.01661q-.06811-.91845-.085-1.83593-.01758-.91846-.01709-1.83594v-2.75391a4.69822,4.69822,0,0,1,.56933-.10254,5.69534,5.69534,0,0,1,.75684-.05078,2.03751,2.03751,0,0,1,1.13867.26367,1.24829,1.24829,0,0,1,.39111,1.09668Z" fill="#fff"/><path d="M269.29492,266.15945q.18676-.03369.59473-.09375a5.3715,5.3715,0,0,1,.78223-.05957,3.50979,3.50979,0,0,1,.68847.05957,1.22293,1.22293,0,0,1,.50147.21289.91512.91512,0,0,1,.30615.42481,2.07522,2.07522,0,0,1,.102.71387v6.29a2.85029,2.85029,0,0,1-.86719,2.26954,3.778,3.778,0,0,1-2.5498.75683,3.201,3.201,0,0,1-1.42823-.27246,1.23175,1.23175,0,0,1-.56933-.50976,1.48619,1.48619,0,0,1-.17871-.73145,1.72021,1.72021,0,0,1,.09375-.59473,1.262,1.262,0,0,1,.22949-.4082c.21484.0459.39941.07617.55225.09375a4.66807,4.66807,0,0,0,.50146.02539,1.20591,1.20591,0,0,0,.95215-.33105,1.45146,1.45146,0,0,0,.28906-.97754Z" fill="#fff"/><path d="M283.55713,272.65359a4.32244,4.32244,0,0,1-.31445,1.67383,3.5361,3.5361,0,0,1-.90967,1.292,4.10892,4.10892,0,0,1-1.44483.8252,6.527,6.527,0,0,1-3.84179,0,4.11117,4.11117,0,0,1-1.44532-.8252,3.53491,3.53491,0,0,1-.90918-1.292,4.31343,4.31343,0,0,1-.31445-1.67383v-6.49414q.18677-.03369.59473-.09375a5.37147,5.37147,0,0,1,.78222-.05957,3.51683,3.51683,0,0,1,.68848.05957,1.22293,1.22293,0,0,1,.50147.21289.9143.9143,0,0,1,.30566.42481,2.06341,2.06341,0,0,1,.10205.71387v5.18457a1.743,1.743,0,0,0,.45068,1.27539,1.71742,1.71742,0,0,0,2.33741,0,1.76151,1.76151,0,0,0,.44189-1.27539v-6.44239q.1875-.03369.59522-.09375a5.37147,5.37147,0,0,1,.78222-.05957,3.51683,3.51683,0,0,1,.68848.05957,1.22575,1.22575,0,0,1,.50146.21289.91425.91425,0,0,1,.30567.42481,2.06341,2.06341,0,0,1,.102.71387Z" fill="#fff"/><path d="M290.96924,268.23367a2.51642,2.51642,0,0,0-2.00586.79883,3.32994,3.32994,0,0,0-.69727,2.26074,3.142,3.142,0,0,0,.77393,2.27832,2.76443,2.76443,0,0,0,2.08252.79883,3.28222,3.28222,0,0,0,1.18115-.1875,7.92415,7.92415,0,0,0,.92676-.4248,1.7013,1.7013,0,0,1,.45019.56933,1.74732,1.74732,0,0,1,.16163.77344,1.39312,1.39312,0,0,1-.77344,1.18164,4.51929,4.51929,0,0,1-2.35449.48438,6.96174,6.96174,0,0,1-2.14209-.32227,4.776,4.776,0,0,1-1.751-.99512,4.67961,4.67961,0,0,1-1.18164-1.70019,6.30131,6.30131,0,0,1-.43311-2.45606,6.10355,6.10355,0,0,1,.41651-2.33789,4.96,4.96,0,0,1,1.13867-1.708,4.77761,4.77761,0,0,1,1.69141-1.05371,5.94624,5.94624,0,0,1,2.07421-.35742,4.77315,4.77315,0,0,1,2.42237.50977,1.50127,1.50127,0,0,1,.8584,1.30957,1.32118,1.32118,0,0,1-.22071.76465,1.80313,1.80313,0,0,1-.51025.50976,5.59621,5.59621,0,0,0-.94336-.49316A3.08105,3.08105,0,0,0,290.96924,268.23367Z" fill="#fff"/><path d="M295.18506,268.53934a2.4012,2.4012,0,0,1-.32276-1.19043,1.28886,1.28886,0,0,1,.29737-.95215,1.06349,1.06349,0,0,1,.77344-.28809h7.4121a2.182,2.182,0,0,1,.22071.50977,2.22807,2.22807,0,0,1,.10205.67969,1.28578,1.28578,0,0,1-.29736.95214,1.06413,1.06413,0,0,1-.77344.28907H300.71v7.85351a4.69889,4.69889,0,0,1-.58642.10254,6.201,6.201,0,0,1-.79053.05078,3.5099,3.5099,0,0,1-.68848-.05957,1.222,1.222,0,0,1-.50146-.21191.92645.92645,0,0,1-.30616-.42578,2.07274,2.07274,0,0,1-.10156-.71387v-6.5957Z" fill="#fff"/><path d="M308.08838,276.39285a4.71609,4.71609,0,0,1-.58643.10254,6.21216,6.21216,0,0,1-.79052.05078,3.50983,3.50983,0,0,1-.68848-.05957,1.2164,1.2164,0,0,1-.50147-.21191.9196.9196,0,0,1-.30615-.42578,2.07146,2.07146,0,0,1-.10205-.71387v-8.97559q.18677-.03369.59522-.09375a5.365,5.365,0,0,1,.78173-.05957,3.50983,3.50983,0,0,1,.68848.05957,1.22014,1.22014,0,0,1,.50147.21289.91174.91174,0,0,1,.30615.42481,2.07522,2.07522,0,0,1,.102.71387Z" fill="#fff"/><path d="M309.78809,271.29324a6.16229,6.16229,0,0,1,.4165-2.3457,4.72343,4.72343,0,0,1,2.83887-2.75391,6.445,6.445,0,0,1,4.23291,0,4.91791,4.91791,0,0,1,1.70849,1.04492,4.801,4.801,0,0,1,1.14746,1.709,6.1621,6.1621,0,0,1,.41651,2.3457,6.34912,6.34912,0,0,1-.40772,2.35449,4.75537,4.75537,0,0,1-1.13086,1.7168,4.833,4.833,0,0,1-1.70849,1.0459,6.26242,6.26242,0,0,1-2.14209.35645,6.12341,6.12341,0,0,1-2.1416-.36524,4.76609,4.76609,0,0,1-1.7002-1.0625,4.91311,4.91311,0,0,1-1.12207-1.7168A6.23048,6.23048,0,0,1,309.78809,271.29324Zm3.05957,0a3.58282,3.58282,0,0,0,.62939,2.31153,2.2511,2.2511,0,0,0,3.38281,0,4.55794,4.55794,0,0,0,.0083-4.60645,2.061,2.061,0,0,0-1.6914-.76465,2.102,2.102,0,0,0-1.69141.75586A3.51722,3.51722,0,0,0,312.84766,271.29324Z" fill="#fff"/><path d="M331.58154,276.10379a1.5489,1.5489,0,0,1-.68847.36621,4.00346,4.00346,0,0,1-1.07959.12695,3.75592,3.75592,0,0,1-1.18994-.18652,1.647,1.647,0,0,1-.918-.90137l-1.68311-3.43359q-.25488-.52734-.459-.99512-.20363-.46728-.4419-1.0791l-.10205.0166q.06811.91846.07666,1.87012.00806.95214.0083,1.87012v2.63476a4.71691,4.71691,0,0,1-.56933.10254,5.69,5.69,0,0,1-.75684.05078,3.82585,3.82585,0,0,1-.6626-.05078,1.02037,1.02037,0,0,1-.47607-.2041.98275.98275,0,0,1-.28906-.417,1.93538,1.93538,0,0,1-.10205-.68848v-8.5a1.4229,1.4229,0,0,1,.731-.50977,3.21344,3.21344,0,0,1,1.0542-.16992,3.67809,3.67809,0,0,1,1.19824.19532,1.62424,1.62424,0,0,1,.90967.89257l1.7002,3.43457q.25488.52589.459.99414.20361.46729.4419,1.07911l.085-.01661q-.06811-.91845-.085-1.83593-.01758-.91846-.01709-1.83594v-2.75391a4.69822,4.69822,0,0,1,.56933-.10254,5.69534,5.69534,0,0,1,.75684-.05078,2.03751,2.03751,0,0,1,1.13867.26367,1.24829,1.24829,0,0,1,.39111,1.09668Z" fill="#fff"/><path d="M336.71533,272.36453q-.74779-.25488-1.35986-.51855a4.18552,4.18552,0,0,1-1.05371-.6377,2.64187,2.64187,0,0,1-.689-.89258,2.93829,2.93829,0,0,1-.24609-1.2666,2.78106,2.78106,0,0,1,1.11328-2.31152,4.969,4.969,0,0,1,3.11963-.86719,8.58284,8.58284,0,0,1,1.35986.10156,4.07,4.07,0,0,1,1.07959.31446,1.89253,1.89253,0,0,1,.70557.54394,1.23566,1.23566,0,0,1,.25488.77344,1.35932,1.35932,0,0,1-.2041.75684,2.09872,2.09872,0,0,1-.49268.53515,3.86989,3.86989,0,0,0-1.00341-.416,5.02611,5.02611,0,0,0-1.377-.17872,2.27185,2.27185,0,0,0-1.12207.2129.61972.61972,0,0,0-.35693.53515.49641.49641,0,0,0,.22119.417,2.30051,2.30051,0,0,0,.66309.29688l.90088.28906a6.51828,6.51828,0,0,1,2.45654,1.30078,2.78047,2.78047,0,0,1,.8584,2.15039,2.83,2.83,0,0,1-1.13916,2.33789,5.35263,5.35263,0,0,1-3.34864.89258,7.79968,7.79968,0,0,1-1.45361-.12793,4.604,4.604,0,0,1-1.17285-.374,2.16021,2.16021,0,0,1-.78223-.61231,1.341,1.341,0,0,1-.28027-.84082,1.27439,1.27439,0,0,1,.28906-.84179,2.18066,2.18066,0,0,1,.62891-.53516,4.60489,4.60489,0,0,0,1.16455.64551,4.05268,4.05268,0,0,0,1.50439.27246,2.00983,2.00983,0,0,0,1.17285-.25586.73486.73486,0,0,0,.33985-.59473.58274.58274,0,0,0-.272-.51855,3.5503,3.5503,0,0,0-.76465-.34863Z" fill="#fff"/><rect x="210.84033" y="125.2952" width="97.78809" height="1" fill="#fff"/><polygon points="481.487 374.211 429.437 374.211 429.437 345.15 481.393 345.15 481.487 374.211" fill="#935b50"/><rect x="417.88361" y="271.41477" width="74.65429" height="70.64601" rx="6.26294" fill="#d6694b"/><rect x="413.37429" y="365.60945" width="83.67293" height="8.60111" rx="1.39177" fill="#d6694b"/><rect x="418.88568" y="374.21056" width="72.39963" height="5.42788" rx="1.39177" fill="#935b50"/><rect x="450.95195" y="379.63844" width="8.01657" height="54.11184" fill="#d6694b"/><polygon points="458.969 438.048 510.37 456.158 510.37 449.644 458.969 433.75 450.952 433.75 399.508 449.644 399.508 456.158 450.952 438.048 458.969 438.048" fill="#935b50"/><rect x="449.07307" y="431.74614" width="11.77434" height="8.5176" rx="1.39177" fill="#e19974"/><rect x="549.6116" y="338.25194" width="7.89195" height="125.18454" fill="#935b50"/><rect x="335.44984" y="332.19921" width="237.16307" height="6.05273" rx="1.36056" fill="#935b50"/><rect x="351.18876" y="338.25194" width="7.89195" height="125.18454" fill="#935b50"/><path d="M344.89319,338.25194h218.816a0,0,0,0,1,0,0v15.68478a2.72113,2.72113,0,0,1-2.72113,2.72113H347.61432a2.72113,2.72113,0,0,1-2.72113-2.72113V338.25194A0,0,0,0,1,344.89319,338.25194Z" fill="#c38f86"/><rect x="392.46997" y="448.64217" width="7.64079" height="13.52796" rx="1.73971" fill="#d6694b"/><rect x="509.76796" y="448.64217" width="7.64079" height="13.52796" rx="1.73971" transform="translate(1027.17671 910.8123) rotate(-180)" fill="#d6694b"/><path d="M380.72272,328.17627v.379a3.64529,3.64529,0,0,1-3.644,3.644H366.1323a3.64529,3.64529,0,0,1-3.644-3.644V313.80449a3.64528,3.64528,0,0,1,3.644-3.644h10.94646a3.64528,3.64528,0,0,1,3.644,3.644v14.37178Z" fill="#ffba55"/><path d="M386.757,313.921h-6.03425v2.18638h4.94106v9.88246h-4.94106v2.18638H386.757a1.09165,1.09165,0,0,0,1.09318-1.09319V315.01417A1.09176,1.09176,0,0,0,386.757,313.921Z" fill="#fff"/><rect x="371.60553" y="317.70532" width="4.52888" height="4.52888" rx="0.72879" fill="#fff"/><rect x="373.3572" y="310.16" width="1.02593" height="7.54578" fill="#e5caf3"/><path d="M484.27111,309.599a1.51976,1.51976,0,0,0-1.12415-.54641c-.56991.07688-.54258.829-1.54467,1.77988-.817.77525-2.39552,1.75565-3.66033,1.34333-1.05455-.3438-.9077-1.33477-2.14956-2.21642a5.18818,5.18818,0,0,0-2.38787-.872c1.10557,4.4456,3.15128,7.44055,5.49943,7.44055C481.16065,316.52791,483.13894,313.76107,484.27111,309.599Z" fill="#ffba55"/><path d="M478.244,322.55279c-1.00463.04737-1.54211,1.11942-3.49271,4.3658-.95835,1.59459-1.67038,2.737-2.19948,3.58418-.00874.31593-.0204.62967-.0204.9507h12.745c0-.317-.012-.62676-.02-.93868-.72623-.92082-1.82415-2.30041-3.45263-4.46947C479.88564,323.49019,479.23337,322.50615,478.244,322.55279Z" fill="#ffba55"/><path d="M478.90379,317.27365c-3.99157,0-7.11879-6.91036-7.11879-15.73306v-.74628h14.23758v.74628C486.02258,310.36329,482.89536,317.27365,478.90379,317.27365Zm-5.619-14.98678c.164,8.10411,2.9822,13.49422,5.619,13.49422s5.455-5.39011,5.61895-13.49422Z" fill="#fff"/><path d="M486.02258,332.19921H471.785v-.74628c0-8.8227,3.12722-15.73306,7.11879-15.73306s7.11879,6.91036,7.11879,15.73306Zm-12.73774-1.49256h11.2379c-.164-8.10411-2.9822-13.49422-5.61895-13.49422S473.44882,322.60254,473.28484,330.70665Z" fill="#fff"/><path d="M490.37434,330.70646h-2.23883V302.28668h2.23883a.74628.74628,0,1,0,0-1.49256H467.43358a.74628.74628,0,1,0,0,1.49256h2.23883v28.41978h-2.23883a.74628.74628,0,1,0,0,1.49256h22.94076a.74628.74628,0,1,0,0-1.49256ZM471.165,302.28668h15.478v28.41978H471.165Z" fill="#7ca1b1"/><path d="M513.37361,321.3186c-.05284-1.18173-.02-2.34433.01567-3.506l.755-3.34021,1.49911-6.683,1.49875-6.683.74956-3.34131c.49485-1.05893.93249-2.13061,1.47762-3.17824.04518,1.18009-.01676,2.33594-.0215,3.50474l-.74919,3.34148-1.49912,6.683-1.49875,6.683-.74373,3.34258C514.39318,319.20748,513.92639,320.27261,513.37361,321.3186Z" fill="#fcfcfc"/><path d="M516.73623,324.50941q-1.28613-6.73482-2.44836-13.48748c-.40156-2.24867-.88839-4.4855-1.11322-6.7595a52.10149,52.10149,0,0,1-.30063-6.8752l.14758-.02095a52.03662,52.03662,0,0,1,1.63066,6.68589c.41869,2.24631.57575,4.53.8177,6.80159q.76851,6.80834,1.41385,13.6347Z" fill="#f65b2b"/><path d="M523.27892,298.45072c-.13519,1.17516-.35128,2.31772-.571,3.45918l-1.27428,3.17843-2.53873,6.36121-2.53837,6.361-1.26918,3.18061c-.65664.9671-1.25825,1.95606-1.96262,2.904.14211-1.17243.38662-2.30387.5761-3.45718l1.26955-3.18061,2.53836-6.361,2.53837-6.36122,1.26408-3.18262C521.93758,300.37344,522.56762,299.396,523.27892,298.45072Z" fill="#ffba55"/><rect x="507.43357" y="298.75113" width="6.10592" height="21.82858" transform="translate(-56.75715 123.32226) rotate(-13.05567)" fill="#ffba55"/><path d="M522.6516,327.95717v.39961a3.66327,3.66327,0,0,1-3.44956,3.84243H508.83959a3.66327,3.66327,0,0,1-3.44955-3.84243V312.80264a3.66327,3.66327,0,0,1,3.44955-3.84243H519.202a3.66327,3.66327,0,0,1,3.44956,3.84243v15.15453Z" fill="#7ca1b1"/><rect x="505.39011" y="314.86391" width="17.26132" height="1.49256" fill="#fcfcfc"/><rect x="505.39011" y="317.84902" width="17.26132" height="1.49256" fill="#fcfcfc"/><path d="M400.64888,323.1074h51.30419a0,0,0,0,1,0,0v8.14531a0,0,0,0,1,0,0H400.64888a3.50483,3.50483,0,0,1-3.50483-3.50483v-1.13566A3.50483,3.50483,0,0,1,400.64888,323.1074Z" fill="#fff"/><path d="M453.55751,331.46121a.738.738,0,0,1-.738.738H399.57142c-2.03307,0-3.6868-2.233-3.6868-4.9782,0-2.74454,1.65373-4.97753,3.6868-4.97753h53.24809a.738.738,0,0,1,.738.738v.5809a.738.738,0,0,1-.738.738H399.57142c-1.19306,0-2.16349,1.31033-2.16349,2.92063,0,1.611.97043,2.9213,2.16349,2.9213h53.24809a.738.738,0,0,1,.738.738Z" fill="#f65b2b"/><path d="M392.64445,313.15168h51.30419a0,0,0,0,1,0,0V321.297a0,0,0,0,1,0,0H392.64445a3.50483,3.50483,0,0,1-3.50483-3.50483V316.6565A3.50483,3.50483,0,0,1,392.64445,313.15168Z" fill="#fff"/><path d="M445.55307,321.50548a.738.738,0,0,1-.738.738H391.567c-2.03307,0-3.68681-2.233-3.68681-4.9782,0-2.74454,1.65374-4.97753,3.68681-4.97753h53.24809a.738.738,0,0,1,.738.738v.5809a.738.738,0,0,1-.738.738H391.567c-1.19307,0-2.16349,1.31033-2.16349,2.92063,0,1.611.97042,2.9213,2.16349,2.9213h53.24809a.738.738,0,0,1,.738.738Z" fill="#ffba55"/><path d="M409.02919,303.19595h51.30419a0,0,0,0,1,0,0v8.14531a0,0,0,0,1,0,0H409.02919a3.50483,3.50483,0,0,1-3.50483-3.50483v-1.13566A3.50483,3.50483,0,0,1,409.02919,303.19595Z" fill="#fff"/><path d="M461.93782,311.54975a.738.738,0,0,1-.738.738H407.95174c-2.03308,0-3.68681-2.233-3.68681-4.9782,0-2.74453,1.65373-4.97753,3.68681-4.97753h53.24808a.738.738,0,0,1,.738.738v.5809a.738.738,0,0,1-.738.738H407.95174c-1.19307,0-2.16349,1.31034-2.16349,2.92063,0,1.611.97042,2.92131,2.16349,2.92131h53.24808a.738.738,0,0,1,.738.738Z" fill="#f65b2b"/><path d="M450.26251,189.35645h5.458a0,0,0,0,1,0,0V207.514a1.30678,1.30678,0,0,1-1.30678,1.30678h-2.84442a1.30678,1.30678,0,0,1-1.30678-1.30678V189.35645A0,0,0,0,1,450.26251,189.35645Z" fill="#935b50"/><path d="M541.434,189.35645h5.458a0,0,0,0,1,0,0V207.514a1.30678,1.30678,0,0,1-1.30678,1.30678h-2.84442A1.30678,1.30678,0,0,1,541.434,207.514V189.35645A0,0,0,0,1,541.434,189.35645Z" fill="#935b50"/><path d="M561.3081,191.265H440.44778c-.67583,0-1.22378-.85444-1.22378-1.90827s.548-1.90826,1.22378-1.90826H561.3081c.67582,0,1.22377.85443,1.22377,1.90826S561.98392,191.265,561.3081,191.265Z" fill="#d6694b"/><rect x="463.6411" y="184.4042" width="6.1677" height="0.74485" fill="#fff"/><rect x="463.6411" y="181.4248" width="6.1677" height="0.74485" fill="#fff"/><rect x="463.6411" y="154.60834" width="6.1677" height="0.74485" fill="#fff"/><rect x="463.6411" y="151.62805" width="6.1677" height="0.74485" fill="#fff"/><path d="M480.19135,164.57984h38.58047a0,0,0,0,1,0,0v6.06628a0,0,0,0,1,0,0H480.19135a.63054.63054,0,0,1-.63054-.63054v-4.80521a.63054.63054,0,0,1,.63054-.63054Z" transform="translate(732.64273 -304.35089) rotate(97.75988)" fill="#7ca1b1"/><rect x="501.04386" y="148.11597" width="0.7321" height="6.06598" transform="translate(283.90614 627.54167) rotate(-82.23559)" fill="#fff"/><polygon points="503.97 154.824 497.959 154.006 498.059 153.28 504.069 154.099 503.97 154.824" fill="#fff"/><polygon points="500.408 180.958 494.398 180.14 494.497 179.414 500.508 180.233 500.408 180.958" fill="#fff"/><polygon points="500.013 183.862 494.002 183.043 494.102 182.318 500.112 183.137 500.013 183.862" fill="#fff"/><path d="M485.34871,148.868l0,38.58047H479.2824l0-38.58048a.63053.63053,0,0,1,.63053-.63053h4.80521A.63054.63054,0,0,1,485.34871,148.868Z" fill="#f65b2b"/><rect x="479.28211" y="184.09311" width="6.06637" height="0.73241" fill="#fff"/><rect x="479.28211" y="181.16259" width="6.06637" height="0.73241" fill="#fff"/><rect x="479.28211" y="154.787" width="6.06637" height="0.73241" fill="#fff"/><rect x="479.28211" y="151.85648" width="6.06637" height="0.73241" fill="#fff"/><path d="M485.34136,187.44849V150.62636a.63053.63053,0,0,1,.63054-.63053h6.91522a.63053.63053,0,0,1,.63053.63053v36.82213Z" fill="#ffba55"/><rect x="485.34136" y="182.84073" width="8.17649" height="0.73241" fill="#fff"/><rect x="480.68176" y="158.21607" width="17.49549" height="5.27502" transform="translate(650.28309 -328.57593) rotate(90)" fill="#fff"/><path d="M465.051,148.868l0,38.58047h6.06628l0-38.58048a.63053.63053,0,0,0-.63054-.63053h-4.8052A.63054.63054,0,0,0,465.051,148.868Z" fill="#ffba55"/><rect x="465.05081" y="184.09311" width="6.06637" height="0.73241" fill="#fff"/><rect x="465.05081" y="181.16259" width="6.06637" height="0.73241" fill="#fff"/><rect x="465.05081" y="154.787" width="6.06637" height="0.73241" fill="#fff"/><rect x="465.05081" y="151.85648" width="6.06637" height="0.73241" fill="#fff"/><path d="M465.05835,187.44849V150.62636a.63053.63053,0,0,0-.63053-.63053H457.5126a.63053.63053,0,0,0-.63053.63053v36.82213Z" fill="#f65b2b"/><rect x="456.88233" y="182.84073" width="8.1756" height="0.73241" fill="#fff"/><rect x="452.22246" y="158.21607" width="17.49549" height="5.27502" transform="translate(621.82379 -300.11663) rotate(90)" fill="#fff"/><path d="M457.10406,164.634h36.82213a0,0,0,0,1,0,0v8.17629a0,0,0,0,1,0,0H457.10406a.63054.63054,0,0,1-.63054-.63054v-6.91522a.63054.63054,0,0,1,.63054-.63054Z" transform="translate(643.92202 -306.4777) rotate(90)" fill="#7ca1b1"/><rect x="471.11184" y="182.84073" width="8.17649" height="0.73241" fill="#fff"/><rect x="466.45211" y="158.21607" width="17.49549" height="5.27502" transform="translate(636.05344 -314.34628) rotate(90)" fill="#fff"/><rect x="501.74916" y="152.65204" width="49.14213" height="1.46473" transform="translate(178.88781 577.44864) rotate(-66.92011)" fill="#935b50"/><circle cx="524.20798" cy="153.24505" r="19.79273" fill="#c0d6f2"/><path d="M507.9273,141.99344a19.77875,19.77875,0,0,0-3.05629,15.47287c.01251.00715.02431.01621.037.023a2.30238,2.30238,0,0,0,2.27731,0,5.95176,5.95176,0,0,0,.70676-1.57055c.28485-.74478.34474-.98774.62822-1.17789.36083-.24213.66391-.11692.86378-.39266.17956-.24772.0071-.44831.07855-.86384a2.37227,2.37227,0,0,1,1.02087-1.33492c.67476-.54336,1.02242-.48621,1.14309-.85634.07568-.23223-.00918-.41422-.35779-1.1854a12.11643,12.11643,0,0,1-.70676-1.64909,3.46107,3.46107,0,0,1,.39259-1.96319,30.58266,30.58266,0,0,0,.70676-3.21964c.79508-3.01726,2.175-4.17852,1.88466-4.47607C513.18832,138.43312,510.44875,139.53712,507.9273,141.99344Z" fill="#a6b862"/><path d="M541.16339,143.03076c-1.36757-1.40738-2.67263-2.188-3.03817-1.95372-.15917.102-.05495.34176-.31405.94233-.248.57464-.85211,1.53377-1.57061,1.57054-.32191.01651-.47065-.16221-1.492-1.02087-1.52108-1.27872-1.78239-1.37943-2.04174-1.335-.66361.11382-1.1916,1.157-.94233,1.57061.24457.4057,1.12659.02181,1.41352.47113a1.14446,1.14446,0,0,1-.47119,1.335,1.82892,1.82892,0,0,1-1.64909-.07854,3.1289,3.1289,0,0,1-1.64908-1.25644c-.41983-.69263-.29242-1.23575-.62822-1.335-.30422-.08986-.73471.25971-.94233.62822-.35845.63639.07747,1.09912-.23557,1.57061-.4032.60724-1.41715.2777-1.57054.7067-.14225.39766.59443,1.05674,1.17789,1.41352.72249.4417.96813.27192,1.88466.62822,1.371.53293,1.279,1.09065,2.51287,1.492,1.07182.34861,1.42895.02145,1.88471.47119.3743.36936.43276.953.54968,2.12023.0929.92731-.01442,1.14893-.07854,1.25643a1.492,1.492,0,0,1-1.57055.62822c-.31309-.08307-.52286-.29093-.94233-.7067-.48084-.47668-.48132-.65873-.78524-.7853-.46768-.19469-.68924.14355-1.09941,0-.54556-.191-.76331-1.00288-1.02087-1.9632-.25994-.96932-.20363-1.37532-.54968-1.57054-.28294-.15965-.4585.034-1.09941,0a4.9329,4.9329,0,0,1-1.41346-.39266,12.35908,12.35908,0,0,0-1.72763-.47113,5.16729,5.16729,0,0,0-2.51293.31411,5.55929,5.55929,0,0,0-2.6699,1.57054,3.9887,3.9887,0,0,0-1.178,2.98407,3.63579,3.63579,0,0,0,1.178,2.27725c.90931.79442,1.51858.425,2.35585,1.178a3.77821,3.77821,0,0,1,1.09935,2.51287c.02229.40791-.01531.9732-1.25643,3.53375-.96551,1.992-1.21818,2.218-1.335,3.06261-.13063.94447-.08242,2.59826.7853,3.06254.48049.25708.71516-.11656,2.59141-.3141a11.28156,11.28156,0,0,1,2.12023-.07849c1.06467.07282,1.19362.25941,1.80617.157a3.81957,3.81957,0,0,0,1.80611-.94233c.77785-.63471.70342-.92123,1.49206-1.57055a7.56494,7.56494,0,0,1,1.57049-.94232c1.14744-.5812,1.45386-.55439,2.43439-1.09941.8555-.47549,1.51572-.85253,1.492-1.335a1.05976,1.05976,0,0,0-.7067-.78525c-.5893-.22865-.91193.21328-1.41352,0a1.42279,1.42279,0,0,1-.70676-1.41352c.04374-.44735.318-1.01789.62822-1.02087.39289-.00375.37215.90783,1.09941,1.335a2.0908,2.0908,0,0,0,2.04174-.157c.53436-.32949,1.15817-1.03494,1.02081-1.64909-.10476-.46863-.57053-.51726-.70676-1.09941-.08969-.38348-.01645-.91337.23563-1.02087.47387-.20214,1.46685,1.13689,1.96319,1.80617a5.45244,5.45244,0,0,1,1.335,2.43433c.13492.9549-.20642,1.59093.23557,2.04174a1.20755,1.20755,0,0,0,.94233.31411,1.27469,1.27469,0,0,0,.47012-.14636,19.80385,19.80385,0,0,0-.80867-18.94535Z" fill="#a6b862"/><path d="M525.127,178.83737a25.79289,25.79289,0,0,1-9.97995-2.01057,1.34223,1.34223,0,1,1,1.0364-2.47632,23.26192,23.26192,0,0,0,17.95467-42.91966,1.34222,1.34222,0,1,1,1.03639-2.47632A25.94647,25.94647,0,0,1,525.127,178.83737Z" fill="#935b50"/><path d="M542.4951,184.00987H526.893v-6.02021a1.70855,1.70855,0,0,0-1.70862-1.70862c-.9437,0-4.1495.76492-4.1495,1.70862v6.02021H507.87361a1.70862,1.70862,0,0,0,0,3.41724H542.4951a1.70862,1.70862,0,1,0,0-3.41724Z" fill="#935b50"/><rect x="414.29576" y="165.49971" width="12.36135" height="35.06987" fill="#ffba55"/><rect x="112.47573" y="461.58301" width="475.04854" height="1.82035" fill="#935b50"/><path d="M221.22709,204.76008a86.8558,86.8558,0,0,1,2.74164-10.46786c.27163-.6815.52911-1.36561.7665-2.05978.62539-1.82884,1.85088-5.02711,2.90252-5.45969,1.48465-.61071-.39275,8.03711-.39275,8.03711l10.924-10.9887a2.84031,2.84031,0,0,1,.92726-.63572c.59934-.24595,1.29892-.29136.40385,1.45684-.71286,1.39234-5.56374,7.68424-5.56374,7.68424l7.50174-6.651s3.81679-2.46158,1.68389.90813a45.09469,45.09469,0,0,1-6.48563,7.30287l6.87306-4.60869s3.41444-2.40061.90231,1.09807a20.20414,20.20414,0,0,1-5.53587,5.26265s.9405.228,5.45261-3.33044c0,0,4.28986-2.78113-.58569,2.632a67.70129,67.70129,0,0,0-5.40589,6.31457c-1.08291,1.4691-2.19894,3.69912-3.71053,4.72188l-4.91033,3.87Z" fill="#f9977a"/><path d="M228.323,195.31878a3.42889,3.42889,0,0,1,1.25938.86557,5.27456,5.27456,0,0,1,.89771,1.25343,5.91306,5.91306,0,0,1,.50891,1.4472c.05542.249.08.50392.1181.75325.00553.256.01886.50846.00185.76207a26.30129,26.30129,0,0,0-1.12355-2.70874A9.734,9.734,0,0,0,228.323,195.31878Z" fill="#dd765e"/><path d="M230.314,194.64167c1.12917.17193,2.20978.41622,3.30073.57948q.81408.14025,1.6314.19823a6.60329,6.60329,0,0,0,1.65354-.074,3.51227,3.51227,0,0,1-1.64781.50192,6.78924,6.78924,0,0,1-1.72452-.07705,9.39452,9.39452,0,0,1-1.65866-.42187A8.06725,8.06725,0,0,1,230.314,194.64167Z" fill="#dd765e"/><polygon points="140.934 433.77 139.557 447.514 163.426 459.177 126.773 459.177 126.773 433.77 140.934 433.77" fill="#f9977a"/><polygon points="184.893 433.77 183.516 447.514 207.385 459.177 170.732 459.177 170.732 433.77 184.893 433.77" fill="#f9977a"/><path d="M211.06405,460.426v-.08386a3.47089,3.47089,0,0,0-1.90881-3.09952l-24.775-12.486a1.157,1.157,0,0,0-1.44568.3382L178.09188,451.54a1.157,1.157,0,0,1-1.5202.29712l-5.684-3.4104a1.157,1.157,0,0,0-1.7522.99209V460.426a1.157,1.157,0,0,0,1.157,1.157h39.61463A1.157,1.157,0,0,0,211.06405,460.426Z" fill="#a1acaf"/><path d="M167.105,460.426v-.08386a3.47089,3.47089,0,0,0-1.90881-3.09952l-24.775-12.486a1.157,1.157,0,0,0-1.44568.3382L134.13284,451.54a1.157,1.157,0,0,1-1.52021.29712l-5.684-3.4104a1.157,1.157,0,0,0-1.75225.99209V460.426a1.157,1.157,0,0,0,1.157,1.157H165.948A1.157,1.157,0,0,0,167.105,460.426Z" fill="#a1acaf"/><path d="M187.30557,263.5321s2.198,35.58344,2.198,43.9495V356.847q.0001,3.0494-.29943,6.0878l.9989,74.23389a2.919,2.919,0,0,1-2.905,2.63257H169.5032a2.919,2.919,0,0,1-2.91907-2.91892q0-.10607.00769-.21188l-2.837-62.6738a62.029,62.029,0,0,0-1.15076-17.20041l-18.41022-88.0097Z" fill="#065ea5"/><path d="M141.7308,438.55017H127.41311a2.919,2.919,0,0,1-2.919-2.919V384.71854a132.68179,132.68179,0,0,1,3.33576-29.56449h0a19.6177,19.6177,0,0,0,.47064-5.305c-.624-13.11-2.95526-70.60449,3.581-81.06253l41.81025-3.087-29.0835,170.42267A2.919,2.919,0,0,1,141.7308,438.55017Z" fill="#065ea5"/><path d="M139.60269,331.48419l.22277-.35116c-7.08093-4.4972-8.75152-17.92853-8.76757-18.063l-.4134.04815C130.66049,313.25565,132.35317,326.88165,139.60269,331.48419Z" fill="#065082"/><path d="M136.74124,278.34369s4.139-.62085,11.8413,4.46683,13.22156,9.91247,7.11652,7.66006l-4.62384-1.79346s3.92352,6.29984,6.5896,9.84818a5.496,5.496,0,0,1,.15021,6.53793c-1.311,1.77527-3.05762,2.05979-6.91187-1.42267-5.76452-5.20849-8.66131-8.12414-9.70825-9.82675-.36267-.58984-3.77032-7.2868-3.77032-7.2868Z" fill="#f9977a"/><rect x="129.69643" y="281.96308" width="28.81262" height="40.82672" transform="translate(-162.54111 437.16021) rotate(-88.2467)" fill="#7ca1b1"/><path d="M136.74124,278.34369l13.57928,8.72723s4.67822,7.906,7.3443,11.45438a5.496,5.496,0,0,1,.15021,6.53793c-1.311,1.77527-3.05762,2.05979-6.91187-1.42267-5.76452-5.20849-8.66131-8.12414-9.70825-9.82675-.36267-.58984-3.77032-7.2868-3.77032-7.2868Z" fill="#f9977a"/><path d="M171.5267,186.97154s3.34588,1.49567,5.939,2.82514c3.59442,1.84286,9.17627,8.31878,15.70856,24.49322l4.34094,10.74849s12.077-14.09777,23.0362-23.7566a1.99335,1.99335,0,0,1,2.57247-.04187l8.21551,6.66637a2,2,0,0,1,.25008,2.86417l-24.3972,28.10246a18.197,18.197,0,0,1-6.452,5.68259c-5.87982,3.00473-11.88391,2.014-15.18-4.09674-5.15589-9.55875-11.28553-24.11237-11.87189-28.1676Z" fill="#ffba55"/><path d="M197.47366,225.2308c.18084,1.69873.46844,3.29853.53454,4.90006a12.2742,12.2742,0,0,1-.06158,2.36862,7.7233,7.7233,0,0,1-.695,2.31644,4.17224,4.17224,0,0,0,1.47583-2.13434,7.17922,7.17922,0,0,0,.30628-2.6033,10.02971,10.02971,0,0,0-.46985-2.53406A8.55844,8.55844,0,0,0,197.47366,225.2308Z" fill="#e6952a"/><path d="M155.18429,275.9798c23.86053,0,32.68634-7.20133,32.79773-7.29563l-.2699-.31707c-.14148.1184-14.60632,11.87912-56.82788,5.08917l-.06622.41137A153.894,153.894,0,0,0,155.18429,275.9798Z" fill="#065082"/><rect x="130.30186" y="309.50606" width="71.69873" height="0.41733" transform="translate(-167.01026 421.66501) rotate(-80.36157)" fill="#065082"/><path d="M158.23318,145.47288a18.94276,18.94276,0,0,1,8.848.75841c1.33472.47324,6.21619,2.204,8.59546,6.82569.90369,1.75523,1.10785,3.86671,1.51678,8.0897a74.2311,74.2311,0,0,1,.25281,7.83692c-.00079,1.80618-.03808,4.39207-.25281,7.5841-.27282,4.05593-.4212,6.09871-1.01116,6.82569-2.37751,2.92991-7.47565.22155-7.584,4.04481-.067,2.36076,1.433,3.855-.53735,5.97254-2.44361,2.62577-11.72583,1.63206-15.1366-.158-.465-.244-7.28626-3.91432-6.82568-8.08971.24609-2.23056,2.33374-2.46128,3.79217-5.81448a13.38931,13.38931,0,0,0,.75836-7.3313c-.65759-4.88087-3.11706-5.47612-5.05609-11.37616a9.17724,9.17724,0,0,1,1.51679-8.84811A18.74577,18.74577,0,0,1,158.23318,145.47288Z" fill="#f9977a"/><path d="M167.01809,187.7583s-2.35156,11.90269-19.03662-5.54076l-16.09888,9.96062a23.13672,23.13672,0,0,0-8.4375,9.50107,116.5676,116.5676,0,0,0-10.96936,42.89267s.0332,14.60245,21.10566,43.10969a2.97576,2.97576,0,0,0,3.3066,1.07363,16.11079,16.11079,0,0,0,8.95975-7.47415,2.97114,2.97114,0,0,0-.12692-3.1074l-6.00668-9.07983s37.73211,3.53925,47.59143-5.56167c0,0,13.413-51.57192-16.685-77.35785Z" fill="#ffba55"/><path d="M139.02,214.9939q-.66412,4.21311-1.233,8.437c-.3656,2.81738-.76611,5.63089-1.10284,8.45154l-1.00537,8.46243c-.34992,2.81915-.60828,5.64859-.917,8.47235l-.005.04629.0033.03876a76.15126,76.15126,0,0,0,1.59314,10.33039,40.95091,40.95091,0,0,0,3.361,9.86117,51.21811,51.21811,0,0,1-2.72034-9.99072c-.308-1.69937-.55273-3.41-.76007-5.12393-.2254-1.70914-.41589-3.43308-.53784-5.14225l-.00177.08466c.32336-2.82214.69708-5.63867.97919-8.46533l.89056-8.47537c.29523-2.82529.52667-5.65775.79315-8.48618Q138.73258,219.24911,139.02,214.9939Z" fill="#e6952a"/><path d="M142.99636,217.77464a16.59556,16.59556,0,0,0-2.95422,3.22,16.40426,16.40426,0,0,0-2.1214,3.8204,16.4119,16.4119,0,0,0,2.95435-3.21988A16.59608,16.59608,0,0,0,142.99636,217.77464Z" fill="#e6952a"/><path d="M135.22805,248.86951c-1.15216-.0094-2.17523.11-3.2008.15139-.51007.02848-1.0113.02332-1.52326.01783-.50958-.03-1.014-.08655-1.596-.16919a3.12725,3.12725,0,0,0,1.44538.95672,5.16794,5.16794,0,0,0,1.72155.22037,6.0289,6.0289,0,0,0,1.67176-.33713A4.38822,4.38822,0,0,0,135.22805,248.86951Z" fill="#e6952a"/><path d="M163.43978,191.52139c1.03064,3.10561,2.01917,6.2215,2.89167,9.37177q1.37732,4.7034,2.53942,9.46345c1.561,6.34055,2.92511,12.72786,3.947,19.17186a176.09366,176.09366,0,0,1,2.05078,19.44678c.05493,3.25812.20746,6.52277-.00714,9.78064.00976,3.27328-.48743,6.50333-.75495,9.76962a100.55835,100.55835,0,0,0,1.552-19.57458,158.857,158.857,0,0,0-1.82739-19.58512c-1.112-6.4642-2.468-12.88589-4.19891-19.20761A167.84787,167.84787,0,0,0,163.43978,191.52139Z" fill="#e6952a"/><path d="M170.62051,186.17421c.38556,1.72645.735,3.45918.96124,5.20419a16.10843,16.10843,0,0,1,.0603,5.15767c-.18377.8263-.66375,1.40412-1.3869,1.1993a5.906,5.906,0,0,1-2.11713-1.16695,31.24294,31.24294,0,0,1-3.71142-3.65622l-.75507-.84434-.08368,1.1495a8.6235,8.6235,0,0,1-.90667,3.41329,3.26959,3.26959,0,0,1-2.52588,1.88185,6.41946,6.41946,0,0,1-3.36133-.82315,18.08715,18.08715,0,0,1-3.097-2.00164A83.85725,83.85725,0,0,1,142.99636,185.108c1.502,2.02873,3.047,4.03249,4.72821,5.92676a49.27937,49.27937,0,0,0,5.43347,5.34154,18.94654,18.94654,0,0,0,3.21735,2.143,7.31119,7.31119,0,0,0,3.88086.97254,4.189,4.189,0,0,0,3.32159-2.3843,9.55916,9.55916,0,0,0,.97052-3.86053l-.83856.30516a32.0484,32.0484,0,0,0,3.89038,3.71818,5.96711,5.96711,0,0,0,2.535,1.25976,1.67065,1.67065,0,0,0,1.53906-.47623,2.65143,2.65143,0,0,0,.63776-1.36211,9.95007,9.95007,0,0,0,.07739-2.73436,22.00037,22.00037,0,0,0-.39356-2.64781A43.47417,43.47417,0,0,0,170.62051,186.17421Z" fill="#e6952a"/><ellipse cx="176.9205" cy="165.28638" rx="0.99109" ry="1.23242" fill="#0a0709"/><ellipse cx="168.49368" cy="165.28638" rx="0.99109" ry="1.23242" fill="#0a0709"/><path d="M172.71548,161.693a.61845.61845,0,0,0,.33917-.10034,5.28605,5.28605,0,0,1,5.98419-.02408.62552.62552,0,0,0,.75257-.99938,6.64032,6.64032,0,0,0-7.417-.02609.62517.62517,0,0,0,.34113,1.14989Z" fill="#161616"/><path d="M164.289,161.693a.61845.61845,0,0,0,.33917-.10034,5.34534,5.34534,0,0,1,5.98218-.0261.62571.62571,0,0,0,.75451-.99836,6.65243,6.65243,0,0,0-7.417-.02509.62516.62516,0,0,0,.34113,1.14989Z" fill="#161616"/><circle cx="167.50259" cy="211.9602" r="1.07531" fill="#065ea5"/><circle cx="164.2767" cy="199.47562" r="1.07531" fill="#065ea5"/><circle cx="170.18276" cy="226.59772" r="1.0753" fill="#065ea5"/><circle cx="172.38455" cy="242.04382" r="1.0753" fill="#065ea5"/><circle cx="173.05953" cy="258.95761" r="1.0753" fill="#065ea5"/><rect x="180.29806" y="267.05667" width="0.41742" height="6.60529" fill="#065082"/><polygon points="154.581 277.338 155.477 269.773 155.064 269.725 154.168 277.29 154.581 277.338" fill="#065082"/><circle cx="170.33303" cy="272.01041" r="1.65118" fill="#065082"/><polygon points="169.085 291.865 169.336 291.531 166.197 289.166 168.532 275.017 168.121 274.948 165.746 289.347 169.085 291.865" fill="#065082"/><path d="M139.59664,337.08511l.23481-.34314c-5.72535-3.92022-8.75556-11.63629-8.78565-11.71356l-.38928.15051C130.68655,325.25717,133.76193,333.09161,139.59664,337.08511Z" fill="#065082"/><path d="M177.38021,391.38342l.22278-.35116c-7.08191-4.4982-8.75256-17.92954-8.76861-18.064l-.4134.04816C168.437,373.1539,170.12972,386.77988,177.38021,391.38342Z" fill="#065082"/><path d="M177.37417,396.98334l.2348-.34317c-5.72833-3.92224-8.75659-11.63629-8.78668-11.71357l-.38928.15052C168.4631,385.1554,171.53951,392.9899,177.37417,396.98334Z" fill="#065082"/><path d="M174.36642,163.75156a4.90694,4.90694,0,0,0,.249,3.11383,11.3482,11.3482,0,0,0,1.52374,2.7711c.32422.42631.79731.74525.765,1.16418a1.78466,1.78466,0,0,1-.66565,1.192,3.85034,3.85034,0,0,1-2.88159.639,3.5869,3.5869,0,0,0,3.0849-.39094,1.98762,1.98762,0,0,0,.84173-1.436,1.21382,1.21382,0,0,0-.32074-.83476l-.5003-.59615a12.45343,12.45343,0,0,1-1.555-2.63728A5.593,5.593,0,0,1,174.36642,163.75156Z" fill="#dd765e"/><path d="M146.60421,167.214c.33716,3.20215.03162,5.12983,1.0744,6.95209.674,1.17973,3.03974,2.26467,3.14093,1.16561a10.70058,10.70058,0,0,0-.01245-3.86745,15.9871,15.9871,0,0,1-1.16907-3.99747c-.30548-2.20146.13678-5.49844,2.02234-6.32008a3.12022,3.12022,0,0,1,3.03351.50558c.92707.7479,1.12714,1.90656,1.26422,3.53931a45.95837,45.95837,0,0,1,0,6.82567,21.72087,21.72087,0,0,0,1.264,8.59529c.77948,2.02241,2.01178,5.20354,5.05609,6.57287,1.85364.83219,3.54962.611,6.32007.2528,2.73853-.3581,4.8136-.62145,6.57263-2.2752a8.9266,8.9266,0,0,0,2.5282-5.05606c.27386-1.68539-.18951-1.896,0-5.056.13709-2.22255.40039-2.64392,0-3.28643-.38959-.63205-1.89606,1.20083-2.7807,1.01117-1.11664-.24225-1.696-2.39106-2.781-2.02242a12.39623,12.39623,0,0,0-3.53912,2.27527c-1.47485,1.15866-1.7171,1.62213-2.5282,1.76955a4.10651,4.10651,0,0,1-3.53937-1.51676c-1.1585-1.36934-1.04254-3.53923-.75811-7.83691.179-2.77031.46344-4.20284,0-6.57288-.42151-2.16989-1.022-2.80194-1.26422-3.03364-1.15876-1.09554-2.20136-.50565-5.05585-1.264a16.86811,16.86811,0,0,1-5.0564-2.27527c-2.05371-1.39037-2.24353-2.27519-3.28631-2.27519-1.64331-.01055-3.20221,2.16989-3.79187,4.04487-.86383,2.75977.16845,5.46688,1.264,8.3425C145.79312,165.59189,146.41464,165.43388,146.60421,167.214Zm28.17627,10.67116a6.12319,6.12319,0,0,0-3.85846.49178.87368.87368,0,0,1-1.06952-1.29769c1.68683-2.35539,4.30835-1.80067,5.58313-1.3392a1.12694,1.12694,0,0,1,.74671,1.06131h0a1.12522,1.12522,0,0,1-1.40186,1.0838Z" fill="#161616"/><path d="M154.37441,163.75156a2.60174,2.60174,0,0,0-2.03424.83476,4.58771,4.58771,0,0,0-.67413.89766,4.00823,4.00823,0,0,0-.39862,1.0348,14.88875,14.88875,0,0,1,1.36511-1.63583,4.57751,4.57751,0,0,1,.79254-.66235A3.765,3.765,0,0,1,154.37441,163.75156Z" fill="#dd765e"/><path d="M153.56918,168.89079a3.71038,3.71038,0,0,0-.74829-4.45836c.15777.37081.33361.71146.44751,1.07625a5.12438,5.12438,0,0,1,.27557,1.09339A7.59606,7.59606,0,0,1,153.56918,168.89079Z" fill="#dd765e"/><path d="M190.26309,245.23349a73.9583,73.9583,0,0,0,.32586-11.05359,56.43881,56.43881,0,0,0-1.37964-10.97668c.08155,3.69635.21357,7.34842.35358,11.01806C189.72323,237.88806,189.87917,241.5542,190.26309,245.23349Z" fill="#e6952a"/><path d="M177.24756,169.34207a4.3125,4.3125,0,1,1,4.313-4.3125A4.31737,4.31737,0,0,1,177.24756,169.34207Zm0-7.70019a3.3877,3.3877,0,1,0,3.38818,3.38769A3.3913,3.3913,0,0,0,177.24756,161.64188Z" fill="#065ea5"/><path d="M168.1001,169.34207a4.3125,4.3125,0,1,1,4.3125-4.3125A4.31737,4.31737,0,0,1,168.1001,169.34207Zm0-7.70019a3.3877,3.3877,0,1,0,3.38769,3.38769A3.3913,3.3913,0,0,0,168.1001,161.64188Z" fill="#065ea5"/><rect x="171.9502" y="164.56717" width="1.44727" height="0.9248" fill="#065ea5"/><path d="M149.36963,164.77078c-.09229-1.96094.33838-3.38965,1.27881-4.24658a3.25881,3.25881,0,0,1,2.4834-.80225l11.05517,3.87159-.30664.87207L152.91455,160.616c.00733.00244-.01514.00146-.05859.00146a2.36691,2.36691,0,0,0-1.59424.59912c-.72119.66406-1.04688,1.84522-.96826,3.51026Z" fill="#065ea5"/><path d="M176.39541,155.064s-12.97784,2.18183-16.29431.45408c0,0-9.18817,4.63241-12.99133-5.49466,0,0,9.41522-8.80561,20.39282-4.75173C177.25961,148.87479,176.39541,155.064,176.39541,155.064Z" fill="#161616"/><path d="M151.43905,294.21722c1.26508,1.35639,2.43823,2.76627,3.64319,4.14841.59717.69489,1.19885,1.38535,1.81329,2.06332.6203.6727,1.23371,1.35212,1.90387,1.9935a17.65035,17.65035,0,0,1-4.1449-3.6871A28.18933,28.18933,0,0,1,151.43905,294.21722Z" fill="#dd765e"/><path d="M149.66458,296.30115c1.27038,1.58133,2.48443,3.1802,3.78314,4.70422.639.77048,1.31463,1.50623,2.01959,2.209a10.43006,10.43006,0,0,0,2.34784,1.84893,7.16429,7.16429,0,0,1-2.6438-1.52142,17.62685,17.62685,0,0,1-2.15478-2.17081A25.41656,25.41656,0,0,1,149.66458,296.30115Z" fill="#dd765e"/><path d="M148.47958,298.635c1.08264,1.30859,2.11108,2.62653,3.186,3.90887,1.06989,1.28873,2.18122,2.51978,3.37348,3.7295a15.00588,15.00588,0,0,1-3.80732-3.36716A19.73481,19.73481,0,0,1,148.47958,298.635Z" fill="#dd765e"/><path d="M149.48633,161.693s3.83642,10.95623,1.33321,13.63872C150.81954,175.3317,147.05633,164.90178,149.48633,161.693Z" fill="#161616"/></svg>