<svg id="Layer_1" data-name="Layer 1" xmlns="http://www.w3.org/2000/svg" viewBox="0 0 1080 1080"><defs><style>.cls-1{fill:#091e53;}.cls-2{fill:#244393;}.cls-3{fill:#007ce0;}.cls-4{fill:#fff;}.cls-5{fill:#5b72d8;}.cls-6{fill:#74d7ff;}.cls-7{fill:#102655;}.cls-8{fill:#f7b4ae;}.cls-9{fill:#ff8b88;}.cls-10{fill:#1b207b;}.cls-11{fill:#00053c;}.cls-12{fill:#ff6c6c;}.cls-13{fill:#7dc6e8;}.cls-14{fill:#6fbef6;}.cls-15{fill:none;stroke:#4ca1d6;stroke-miterlimit:10;stroke-width:1.622px;}</style></defs><title>Laern With VR</title><g id="Laern_With_VR" data-name="Laern With VR"><path class="cls-1" d="M987.739,839.043a111.282,111.282,0,0,1-22.78,23.985c-14.941,11.632-32.341,18.994-51.031,22.852-1.609.33-3.219.637-4.85.92a175.418,175.418,0,0,1-32.639,2.407c-2.99-.035-6-.153-9.011-.33a230.309,230.309,0,0,1-24.4-2.808,278.709,278.709,0,0,1-73.51-23.608c-72.14-34.685-140.52-88.578-219.651-89.817-38.809-.6-76.629,11.8-113.869,23.478-14.47,4.542-29.05,9-43.72,13.013-21.03,5.769-42.25,10.618-63.611,13.509A296.485,296.485,0,0,1,284,825.463c-2.071-.035-4.131-.094-6.2-.188-2.29-.083-4.58-.213-6.871-.366a206.861,206.861,0,0,1-23.04-2.9q-4.319-.779-8.589-1.757a199.6,199.6,0,0,1-24.6-7.256,180.249,180.249,0,0,1-39.581-20.2,148.439,148.439,0,0,1-46.4-49.858c-36.11-64.192-17.081-151.98,31.03-206.51s118.9-80.3,188.6-89.345,140.269-3.374,210.46-5.356c11.41-.33,24.74-2.017,30.52-12.506,3.47-6.3,3.12-14.075,2.829-21.377-3.54-89.334,27.541-190.359,104.28-226.449,79.191-37.245,181.591,20.423,204.66,109.343,28.83,111.16-57.37,147.5-86.109,236.24-34.14,105.414,102.9,110.523,155.169,156.275C1012.029,719.908,1020.259,792.854,987.739,839.043Z"/><path class="cls-1" d="M410.291,413.126c-36.476,8.943-79.485,8.846-116.065-27.416-13.136-13.022-25.2-31.474-29.215-51.746-5.388-27.224,5.023-50.053,18.681-63.477,16.948-16.658,39.444-23.624,63.2-19.569,32.618,5.567,68.433,31.124,97.335,20.489,22.108-8.135,34.586-35.653,49.3-57.868s36.736-40.582,61.773-26.758c5.985,3.305,9.922,10.272,11.624,13.044,14.374,23.417,9.72,56.285,8.037,68.171-2.3,16.222-9.893,48.947-61.309,91.061C485.979,381.717,456.4,401.822,410.291,413.126Z"/><rect class="cls-2" x="231.445" y="356.818" width="176.237" height="3"/><polygon class="cls-2" points="369.686 352.568 346.539 352.568 350.868 346.139 374.015 346.139 369.686 352.568"/><polygon class="cls-2" points="425.679 354.711 409.753 354.711 412.732 348.282 428.658 348.282 425.679 354.711"/><polygon class="cls-3" points="442.305 368.965 421.324 368.965 425.249 360.496 446.23 360.496 442.305 368.965"/><polygon class="cls-4" points="330.15 371.164 312.039 371.164 315.426 363.853 333.537 363.853 330.15 371.164"/><polygon class="cls-3" points="238.807 352.782 220.696 352.782 224.084 345.472 242.195 345.472 238.807 352.782"/><polygon class="cls-4" points="448.38 344.569 439.324 344.569 441.018 340.914 450.074 340.914 448.38 344.569"/><rect class="cls-2" x="41.313" y="593.66" width="176.237" height="3"/><polygon class="cls-2" points="179.554 589.411 156.406 589.411 160.736 582.982 183.883 582.982 179.554 589.411"/><polygon class="cls-2" points="235.547 591.553 219.621 591.553 222.6 585.125 238.526 585.125 235.547 591.553"/><polygon class="cls-3" points="252.173 605.808 231.192 605.808 235.116 597.339 256.097 597.339 252.173 605.808"/><polygon class="cls-4" points="140.018 608.007 121.906 608.007 125.294 600.696 143.405 600.696 140.018 608.007"/><polygon class="cls-3" points="48.675 589.625 30.564 589.625 33.951 582.314 52.062 582.314 48.675 589.625"/><polygon class="cls-4" points="258.248 581.412 249.192 581.412 250.886 577.757 259.941 577.757 258.248 581.412"/><rect class="cls-2" x="830.808" y="827.955" width="176.237" height="3"/><polygon class="cls-2" points="969.048 823.705 945.901 823.705 950.231 817.276 973.378 817.276 969.048 823.705"/><polygon class="cls-2" points="1025.042 825.848 1009.115 825.848 1012.094 819.419 1028.021 819.419 1025.042 825.848"/><polygon class="cls-3" points="1041.668 840.102 1020.687 840.102 1024.611 831.634 1045.592 831.634 1041.668 840.102"/><polygon class="cls-5" points="929.512 842.301 911.401 842.301 914.789 834.991 932.9 834.991 929.512 842.301"/><polygon class="cls-3" points="838.17 823.919 820.059 823.919 823.446 816.609 841.557 816.609 838.17 823.919"/><polygon class="cls-5" points="1047.742 815.706 1038.687 815.706 1040.381 812.051 1049.436 812.051 1047.742 815.706"/><rect class="cls-2" x="546.734" y="194.222" width="176.237" height="3"/><polygon class="cls-2" points="684.975 189.972 661.827 189.972 666.157 183.544 689.304 183.544 684.975 189.972"/><polygon class="cls-2" points="740.968 192.115 725.042 192.115 728.021 185.687 743.947 185.687 740.968 192.115"/><polygon class="cls-3" points="757.594 206.37 736.613 206.37 740.537 197.901 761.518 197.901 757.594 206.37"/><polygon class="cls-5" points="645.439 208.569 627.327 208.569 630.715 201.258 648.826 201.258 645.439 208.569"/><polygon class="cls-3" points="554.096 190.187 535.985 190.187 539.372 182.876 557.484 182.876 554.096 190.187"/><polygon class="cls-5" points="763.669 181.974 754.613 181.974 756.307 178.319 765.363 178.319 763.669 181.974"/><path class="cls-6" d="M1006.493,584.521,846.965,567.328c-14.416-1.554-27.105-14.754-28.355-29.554l-7.055-83.528c-1.327-15.71,9.744-27.549,24.754-26.253L1002.6,442.357c15.868,1.371,29.082,15.749,29.386,31.9l1.614,85.8C1033.888,575.248,1021.7,586.16,1006.493,584.521ZM836.481,430.24c-13.838-1.2-24.056,9.707-22.841,24.195l7,83.55c1.145,13.658,12.856,25.845,26.162,27.275l159.628,17.154c14.03,1.507,25.268-8.57,25-22.579l-1.67-85.778c-.29-14.889-12.472-28.137-27.094-29.405Z"/><path class="cls-4" d="M738.053,559.963c-15.179-1.671-28.986-15.8-30.861-31.647-1.892-16,9.056-27.868,24.492-26.307l96.3,9.737a1.3,1.3,0,0,1,1.112,1.163.84.84,0,0,1-.94.954L731.913,504.1c-14.333-1.454-24.512,9.56-22.763,24.422,1.734,14.729,14.569,27.869,28.681,29.419a1.307,1.307,0,0,1,1.091,1.119A.768.768,0,0,1,738.053,559.963Z"/><path class="cls-6" d="M974.71,600.557l-156.6-17.59c-13.63-1.531-25.683-13.973-26.983-27.9l-7.621-81.626c-1.379-14.77,8.936-25.792,23.108-24.492l163.007,14.944c14.966,1.372,27.51,14.891,27.951,30.064l2.437,83.763C1000.427,592,989.072,602.171,974.71,600.557Z"/><path class="cls-5" d="M968.993,585.4l-35.8-3.943A18.243,18.243,0,0,1,917.453,564.9l-1.525-27.961c-.461-8.44,5.955-14.627,14.351-13.777l36.441,3.691a18.246,18.246,0,0,1,15.955,17l.961,28.184C983.92,580.352,977.355,586.316,968.993,585.4Z"/><path class="cls-4" d="M968.754,541.968l-39.167-4.055a2.774,2.774,0,0,1-2.4-2.542h0a1.915,1.915,0,0,1,2.169-2.073l39.222,4.034a2.754,2.754,0,0,1,2.4,2.559h0A1.958,1.958,0,0,1,968.754,541.968Z"/><path class="cls-4" d="M969.353,557.584l-38.984-4.128a2.762,2.762,0,0,1-2.39-2.524h0a1.9,1.9,0,0,1,2.16-2.047l39.038,4.107a2.745,2.745,0,0,1,2.393,2.541h0A1.94,1.94,0,0,1,969.353,557.584Z"/><path class="cls-4" d="M969.947,573.051l-38.8-4.2a2.751,2.751,0,0,1-2.379-2.507h0a1.879,1.879,0,0,1,2.151-2.021l38.856,4.179a2.732,2.732,0,0,1,2.38,2.523h0A1.921,1.921,0,0,1,969.947,573.051Z"/><path class="cls-5" d="M839.42,495.428l15.339-29.9A45.9,45.9,0,0,1,871.3,485.553a38.314,38.314,0,0,1,2.3,24.171Z"/><path class="cls-4" d="M832.072,497.712l12.6-24.678c-.255-.171-.491-.359-.75-.524-14.8-9.395-32.023-5.586-38.39,8.37-6.3,13.8.42,32.333,14.931,41.529s31.545,5.724,38.131-7.878a25.49,25.49,0,0,0,1.774-4.975Z"/><path class="cls-3" d="M893.262,522.184a2.877,2.877,0,0,1-.561-.117,2.015,2.015,0,0,1-1.6-2.229l9.946-34.526a1.724,1.724,0,0,1,1.841-1.088,2.64,2.64,0,0,1,2.166,1.256l11.126,20.213,13.8-33.389a1.873,1.873,0,0,1,2.076-.958,2.522,2.522,0,0,1,2.056,1.5L945,503.236l6.417-16.174a1.836,1.836,0,0,1,1.9-1,2.672,2.672,0,0,1,2.122,1.225l5.834,10.2,5.638-8.693a1.976,1.976,0,0,1,1.912-.758,2.666,2.666,0,0,1,1.968,1.152l6.582,10.576a1.445,1.445,0,0,1-.89,2.24,2.709,2.709,0,0,1-2.944-1.061l-4.56-7.316-5.732,8.808a1.937,1.937,0,0,1-1.941.74,2.626,2.626,0,0,1-1.951-1.2l-5.381-9.391-6.921,17.365a1.88,1.88,0,0,1-2.059.954,2.513,2.513,0,0,1-2.054-1.482l-10.944-30.459L918.62,511.179a1.793,1.793,0,0,1-1.881.934,2.629,2.629,0,0,1-2.069-1.243l-10.8-19.6-8.654,29.869A1.729,1.729,0,0,1,893.262,522.184Z"/><path class="cls-3" d="M920.1,623.563l-140.394-16.4c-8.108-.947-15.35-8.36-16.2-16.6l-5.1-49.538c-.88-8.54,5.117-14.795,13.417-13.928l143.823,15.015a19.12,19.12,0,0,1,16.561,17.476l2.523,50.577C935.148,618.576,928.589,624.554,920.1,623.563Z"/><path class="cls-4" d="M908.772,565.055l-126.8-13.7a3.905,3.905,0,0,1-3.288-3.4h0a2.388,2.388,0,0,1,2.7-2.759l127.037,13.6a3.82,3.82,0,0,1,3.294,3.465h0A2.567,2.567,0,0,1,908.772,565.055Z"/><path class="cls-4" d="M863.858,578.9l-80.67-8.947a3.137,3.137,0,0,1-2.639-2.72l-.113-1.172a1.905,1.905,0,0,1,2.166-2.194l80.817,8.887a3.092,3.092,0,0,1,2.643,2.756l.084,1.184A1.994,1.994,0,0,1,863.858,578.9Z"/><path class="cls-4" d="M824.335,592.87l-40.047-4.555a2.238,2.238,0,0,1-1.881-1.934l-.246-2.531a1.351,1.351,0,0,1,1.547-1.551l40.118,4.527a2.223,2.223,0,0,1,1.885,1.949l.212,2.544A1.379,1.379,0,0,1,824.335,592.87Z"/><path class="cls-4" d="M746.587,559.9a1.816,1.816,0,0,1-2.056,2.127,3.073,3.073,0,0,1-2.57-2.636,1.818,1.818,0,0,1,2.055-2.132A3.073,3.073,0,0,1,746.587,559.9Z"/><path class="cls-4" d="M754.488,560.772a1.825,1.825,0,0,1-2.067,2.13,3.07,3.07,0,0,1-2.57-2.64,1.825,1.825,0,0,1,2.066-2.133A3.07,3.07,0,0,1,754.488,560.772Z"/><path class="cls-4" d="M762.409,561.644a1.833,1.833,0,0,1-2.079,2.131,3.066,3.066,0,0,1-2.57-2.643A1.834,1.834,0,0,1,759.837,559,3.065,3.065,0,0,1,762.409,561.644Z"/><path class="cls-4" d="M876.114,364.6,716.185,377.533c-14.453,1.169-29.386-9.427-33.38-23.732L660.26,273.064c-4.24-15.185,4.423-28.885,19.411-30.417l166.048-16.975c15.844-1.619,31.513,10.035,34.831,25.847l17.624,83.988C901.293,350.373,891.357,363.371,876.114,364.6ZM680.26,244.822c-13.818,1.408-21.818,14.033-17.916,28.038l22.5,80.768c3.678,13.2,17.46,22.986,30.8,21.9l160.021-12.987C889.728,361.4,898.885,349.4,896,335.691l-17.675-83.954c-3.068-14.572-17.512-25.31-32.114-23.822Z"/><path class="cls-4" d="M607.816,390.657c-15.224,1.2-31.43-10.1-36.233-25.32-4.85-15.364,3.687-29.069,19.142-30.422l96.422-8.435a1.3,1.3,0,0,1,1.309.935.84.84,0,0,1-.745,1.113l-96.369,8.4c-14.353,1.251-22.293,13.974-17.8,28.247,4.457,14.145,19.521,24.655,33.675,23.539a1.307,1.307,0,0,1,1.281.895A.769.769,0,0,1,607.816,390.657Z"/><path class="cls-6" d="M847.89,386.3,690.763,398.29c-13.675,1.044-27.841-8.926-31.723-22.368L636.295,297.16c-4.116-14.252,3.958-27.008,18.123-28.381L817.345,252.99c14.959-1.45,29.808,9.486,33.078,24.308l18.052,81.832C871.553,373.083,862.3,385.2,847.89,386.3Z"/><path class="cls-3" d="M800.085,328.55c5.638,26.838-17.3,44.972-46.405,41.826-24.974-2.7-47.141-20.655-52.67-40.9-5.675-20.776,7.087-40.493,31.784-43.98C761.818,281.4,794.248,300.765,800.085,328.55Z"/><path class="cls-4" d="M720.706,308.254l10.95,42.578c.674,2.621,4.518,4.436,6.817,3.181L777.4,332.757c2.847-1.554,2.053-5.112-1.492-6.629l-49.9-21.341C722.971,303.49,719.992,305.478,720.706,308.254Z"/><path class="cls-4" d="M781.31,272.269,654.836,288.733a3.9,3.9,0,0,1-3.994-2.53h0a2.388,2.388,0,0,1,1.973-3.316l126.679-16.612a3.819,3.819,0,0,1,4.015,2.594h0A2.567,2.567,0,0,1,781.31,272.269Z"/><path class="cls-4" d="M844.671,372.052l-40.193,3.011a2.237,2.237,0,0,1-2.209-1.549l-.714-2.44a1.351,1.351,0,0,1,1.229-1.813l40.257-3.052a2.224,2.224,0,0,1,2.216,1.562l.684,2.46A1.38,1.38,0,0,1,844.671,372.052Z"/><path class="cls-4" d="M616.189,389a1.818,1.818,0,0,1-1.623,2.475,3.073,3.073,0,0,1-3.017-2.11,1.818,1.818,0,0,1,1.62-2.478A3.077,3.077,0,0,1,616.189,389Z"/><path class="cls-4" d="M624.113,388.38a1.826,1.826,0,0,1-1.634,2.479,3.072,3.072,0,0,1-3.018-2.113,1.826,1.826,0,0,1,1.631-2.482A3.071,3.071,0,0,1,624.113,388.38Z"/><path class="cls-4" d="M632.057,387.755a1.834,1.834,0,0,1-1.645,2.483,3.067,3.067,0,0,1-3.018-2.116,1.833,1.833,0,0,1,1.641-2.486A3.068,3.068,0,0,1,632.057,387.755Z"/><g id="Popup_2" data-name="Popup 2"><path class="cls-6" d="M414.346,298.642c-46.616,10.075-95.107-20.926-99.824-70.895s37.358-86.912,85.291-83.038c40.578,3.279,72.1,35.6,75.583,72.485S453.809,290.112,414.346,298.642Zm-14.237-150.8c-45.784-3.43-85.671,32.023-81.178,79.612s50.542,77.406,95.119,68.048c38-7.976,62.271-42.583,58.914-78.151S439.134,150.769,400.109,147.845Z"/><path class="cls-3" d="M506.864,240.8c3.2,33.868-17.848,67.838-50.985,76.97-38.539,10.62-78.128-15.542-82.336-60.113s29.566-80.009,69.177-79.27C476.779,179.022,503.667,206.931,506.864,240.8Z"/><path class="cls-6" d="M454.457,302.708c-29.726,7.223-59.4-13.639-62.581-47.37s21.893-61.515,52.265-61.891c26.989-.333,48.916,21.561,51.485,48.773S480.871,296.289,454.457,302.708Zm-9.951-105.4c-28.076.571-51.052,26.374-48.118,57.455s30.183,50.532,57.7,44.074c24.661-5.787,40.956-30.784,38.552-56.245S469.666,196.8,444.506,197.313Z"/><path class="cls-4" d="M470.488,243.019l6.22-12.618-14.1-9.081L447.659,211.7l-7.1,13.064a8.7,8.7,0,0,1-12.192,3.273h0a4.829,4.829,0,0,0-7.231,4.839l6.261,50.037a3.5,3.5,0,0,0,5.337,2.6l40.523-22.758c2.982-1.674,3.132-6.38.263-8.073h0C469.788,252.472,468.416,247.222,470.488,243.019Z"/><polygon class="cls-7" points="431.338 285.474 428.273 283.987 446.156 249.564 448.996 251.178 431.338 285.474"/><path class="cls-7" d="M451.289,251.324A3.677,3.677,0,0,1,446.22,253a4.056,4.056,0,0,1-1.459-5.406,3.671,3.671,0,0,1,5.095-1.625A4.063,4.063,0,0,1,451.289,251.324Z"/></g><g id="Human"><path class="cls-6" d="M426.018,930.671l2.05,1.858L504.34,848.4l-7.8-8.165-24.588-25.761-35.114,38.733c14.656,19.935-3.416,39.058-13.617,54.321A17.818,17.818,0,0,0,426.018,930.671Z"/><path class="cls-2" d="M428.068,932.529l2.392,2.169a3.344,3.344,0,0,0,4.728-.224L506.972,855.3a3.345,3.345,0,0,0-.239-4.728L504.34,848.4Z"/><rect class="cls-2" x="447.422" y="866.876" width="2.154" height="12.973" transform="translate(-431.031 1309.643) rotate(-89.201)"/><rect class="cls-2" x="445.388" y="873.669" width="2.155" height="12.069" transform="translate(-459.095 1271.072) rotate(-86.465)"/><path class="cls-2" d="M495.408,857.47c.13.117.259.235.4.345a10.957,10.957,0,0,0,6.623,2.493l4.545-5.013a3.345,3.345,0,0,0-.239-4.728L504.34,848.4l-7.8-8.165a11.166,11.166,0,0,0-1.9,1.666A11.024,11.024,0,0,0,495.408,857.47Z"/><polygon class="cls-8" points="428.353 840.409 436.902 853.222 471.956 814.472 468.812 810.611 428.353 840.409"/><polygon class="cls-9" points="428.353 840.409 433.172 847.631 471.956 814.472 468.812 810.611 428.353 840.409"/><polygon class="cls-2" points="363.038 774.953 425.635 845.799 473.059 810.09 425.257 732.267 393.407 743.819 363.038 774.953"/><polygon class="cls-10" points="367.269 779.627 357.83 768.782 386.751 734.596 423.74 728.136 435.31 748.633 399.101 759.326 367.269 779.627"/><path class="cls-6" d="M137.012,857.555l-1.372,2.4,98.62,56.3,6.288-9.376,19.842-29.571-45.4-25.92c-16.3,18.616-38.874,5.1-55.981-1.563A17.819,17.819,0,0,0,137.012,857.555Z"/><path class="cls-2" d="M135.64,859.958l-1.6,2.8a3.344,3.344,0,0,0,1.241,4.568l92.814,52.987a3.345,3.345,0,0,0,4.565-1.254l1.6-2.8Z"/><rect class="cls-2" x="196.747" y="860.641" width="2.154" height="12.973" transform="translate(-171.377 57.97) rotate(-11.675)"/><rect class="cls-2" x="189.197" y="860.496" width="2.273" height="12.727" transform="translate(-132.371 40.098) rotate(-8.938)"/><path class="cls-2" d="M223.473,909.5c-.087.152-.174.3-.251.461a10.959,10.959,0,0,0-1,7l5.876,3.355a3.345,3.345,0,0,0,4.565-1.254l1.6-2.8,6.288-9.376a11.235,11.235,0,0,0-2.036-1.494A11.025,11.025,0,0,0,223.473,909.5Z"/><polygon class="cls-8" points="225.648 840.339 214.984 851.454 260.39 877.311 263.481 873.407 225.648 840.339"/><polygon class="cls-9" points="225.648 840.339 219.637 846.604 260.39 877.311 263.481 873.407 225.648 840.339"/><path class="cls-2" d="M221.349,843.823l42.8,32.513L393.408,743.822s97.4-33.135,145.86-48.631a54.03,54.03,0,0,0,35.435-36.4L584.22,626.1,433.9,604.63,306.523,621.265l-3.267.468a25.463,25.463,0,0,0-17.186,39.83l1.336,1.906,33.458,47.645Z"/><path class="cls-7" d="M286.07,661.563l1.336,1.906a27.53,27.53,0,0,0,19.117-42.2l-3.267.468A25.463,25.463,0,0,0,286.07,661.563Z"/><path class="cls-7" d="M348.6,678.524a27.544,27.544,0,0,0,44.642-29.289l-7.5,2.145A63.867,63.867,0,0,0,354.7,671.368Z"/><polygon class="cls-10" points="584.216 626.099 582.645 631.502 387.903 610.637 433.896 604.63 584.216 626.099"/><path class="cls-10" d="M346.855,656.4l7.843,14.968a63.867,63.867,0,0,1,31.051-19.988l55.577-15.9.041-.021-88.628,9.874A7.592,7.592,0,0,0,346.855,656.4Z"/><path class="cls-7" d="M321.451,711.613l33.835-39.745a62.883,62.883,0,0,1,30.676-19.746l86.414-24.731-.424-1.483-86.415,24.731a64.428,64.428,0,0,0-31.426,20.229l-33.834,39.746Z"/><polygon class="cls-7" points="363.59 775.492 393.829 744.49 426.552 733.409 426.057 731.949 392.984 743.147 362.486 774.415 363.59 775.492"/><path class="cls-6" d="M575.168,657.977v-1.542c-4.224,0-7.286-1.382-9.1-4.1-5.781-8.662,2.179-28.116,2.26-28.312l-1.425-.59c-.344.829-8.352,20.418-2.118,29.758C566.9,656.364,570.4,657.974,575.168,657.977Z"/><rect class="cls-6" x="564.214" y="656.108" width="5.142" height="1.543" transform="matrix(0.943, -0.333, 0.333, 0.943, -186.305, 226.077)"/><path class="cls-6" d="M276.788,842.187l-6.711,7.511,1.151,1.032,6.711-7.511Zm13.424-15.011-6.712,7.511,1.151,1.021,6.7-7.51Zm13.412-15.02-6.712,7.51,1.151,1.032,6.712-7.51Zm13.423-15.011-6.712,7.5,1.151,1.032,6.711-7.511Zm13.423-15.022-6.712,7.511,1.151,1.021,6.7-7.5Zm13.411-15.02-6.711,7.511,1.151,1.032,6.712-7.511Zm13.424-15.011-6.711,7.511,1.15,1.021,6.711-7.511Zm13.423-15.021-6.712,7.51,1.152,1.032,6.7-7.509Zm13.411-15.021-6.711,7.511,1.152,1.032,6.711-7.511Zm18.545-8.063-9.494,3.352.508,1.462,9.494-3.352Zm18.988-6.7-9.494,3.351.508,1.463,9.5-3.364Zm18.989-6.7-9.494,3.352.518,1.461,9.494-3.351Zm18.988-6.7-9.494,3.352.517,1.45,9.494-3.351Zm19-6.7-9.494,3.351.506,1.452,9.495-3.341Zm18.988-6.7-9.494,3.352.506,1.451,9.5-3.352Zm18.988-6.7-9.494,3.352.517,1.45,9.494-3.352Zm19-6.7-9.5,3.352.518,1.451,9.494-3.352Zm18.988-6.7-9.494,3.352.507,1.451,9.494-3.351Z"/><rect class="cls-6" x="259.659" y="858.869" width="5.141" height="1.542" transform="translate(-553.501 482.376) rotate(-48.216)"/><rect class="cls-6" x="248.253" y="825.247" width="1.542" height="54.988" transform="translate(-579.09 531.173) rotate(-52.499)"/><rect class="cls-6" x="410.719" y="816.538" width="61.681" height="1.543" transform="translate(-412.339 451.486) rotate(-38.428)"/><rect class="cls-6" x="411.916" y="737.361" width="1.543" height="5.141" transform="translate(-329.195 330.762) rotate(-31.972)"/><path class="cls-6" d="M441.683,784.944l-1.3.818,5.39,8.639,1.313-.819Zm-10.792-17.3-1.3.818,5.39,8.65,1.313-.819Zm-9.332-14.959-1.46-2.339-1.313.819,1.241,1.98,4.16,6.669L425.5,759Z"/><rect class="cls-6" x="452.416" y="802.253" width="1.543" height="5.141" transform="translate(-357.412 362.05) rotate(-31.972)"/><path class="cls-8" d="M439.806,534.56l-19.677,7.56a30.076,30.076,0,0,1-38.491-16.212l-61.3-142.416a18.52,18.52,0,0,0-5.085-6.853h0l40.7-16.9,61.368,119.132Z"/><polygon class="cls-9" points="417.324 478.874 426.039 539.849 439.806 534.56 417.324 478.874"/><path class="cls-8" d="M356.063,359.818l-17.2-24.294a26.39,26.39,0,0,0-9.438-8.208L299.812,312.04a2.661,2.661,0,0,0-3.076,4.259L314.2,333.664l-12.945,15.964a8.059,8.059,0,0,0,.042,10.229l14.064,16.857Z"/><path class="cls-6" d="M361.488,323.543l.484,15.48-27.851.869-2.556.078-5.207-3.365a1.387,1.387,0,0,0-1.655.08,1.433,1.433,0,0,0-.467,1.609l.656,1.882-1.5.056-54.423,1.694-.483-15.469Z"/><path class="cls-6" d="M265.257,502.617a92.2,92.2,0,0,1-14.131.136c-15.353-.92-26.568-4.756-34.284-11.728-9.129-8.25-13.4-24.029-5.209-34.37,4.338-5.475,10.85-8.055,17.149-10.55,5.446-2.158,10.59-4.195,14.472-7.94,4.318-4.166,6.4-10.223,5.847-17.056a31.829,31.829,0,0,0-12.913-22.8c-10.847-7.542-25.559-9.724-46.309-6.87-3.665.5-7.408,1.119-11.028,1.713-12.5,2.051-25.428,4.17-38.213,2.357-11.615-1.649-23.932-7.895-30.875-17.592a40.29,40.29,0,0,1-14.548-4.189c-12.308-6.372-19.555-19.912-17.233-32.2,2.757-14.587,17.081-23.2,25.373-27.038,21.681-10.031,48.535-12.51,77.661-7.17,25.923,4.752,50.621,14.8,74.5,24.507a1.622,1.622,0,1,1-1.222,3c-23.732-9.65-48.272-19.628-73.868-24.32-28.461-5.218-54.643-2.825-75.713,6.923-7.726,3.574-21.06,11.536-23.547,24.7-2.028,10.731,4.651,23.074,15.536,28.711a36.141,36.141,0,0,0,10.842,3.512,28.678,28.678,0,0,1-3.173-9.821c-1.209-9.256,3.322-19.006,11.826-25.446,8.405-6.365,18.469-8.008,26.914-4.392a19.747,19.747,0,0,1,8.416,6.424c4.245,5.946,3.857,14.868-.946,21.7-3.72,5.293-9.8,9.409-18.062,12.236a55.6,55.6,0,0,1-18.488,3.092c6.585,7.737,17.1,12.732,27.06,14.146,12.291,1.745,24.97-.336,37.231-2.346,3.64-.6,7.4-1.215,11.111-1.725,21.6-2.971,37.048-.616,48.6,7.419a34.715,34.715,0,0,1,14.3,25.209c.627,7.819-1.8,14.8-6.829,19.651-4.344,4.19-10.03,6.442-15.529,8.621-6.174,2.445-12,4.754-15.8,9.548-7.062,8.915-3.2,22.682,4.841,29.947,7.149,6.459,17.715,10.023,32.3,10.9,12.458.748,21.891-.6,29.675-4.247,9.66-4.523,16.426-13.23,17.236-22.184a45.718,45.718,0,0,0-.046-6.6,43.955,43.955,0,0,1,.051-7.868c.649-5.206,3.985-11.139,9.772-11.861a1.622,1.622,0,0,1,.4,3.22c-3.885.485-6.44,4.916-6.954,9.043a40.931,40.931,0,0,0-.03,7.291,48.976,48.976,0,0,1,.037,7.068c-.912,10.082-8.406,19.828-19.092,24.83A51.108,51.108,0,0,1,265.257,502.617Zm-153.7-127.806a51.434,51.434,0,0,0,19.915-2.826c7.6-2.6,13.138-6.312,16.457-11.032,3.4-4.83,4.816-12.545.96-17.947a16.541,16.541,0,0,0-7.052-5.326c-7.364-3.152-16.217-1.657-23.679,4-7.577,5.738-11.626,14.336-10.567,22.438A25.963,25.963,0,0,0,111.559,374.811Z"/><polygon class="cls-2" points="268.483 326.451 253.48 334.664 268.966 341.924 268.483 326.451"/><rect class="cls-2" x="357.746" y="327.409" width="15.48" height="7.512" transform="translate(685.08 -44.481) rotate(88.211)"/><path class="cls-9" d="M338.924,343l-.786,1.226-6.573-4.258-5.207-3.365a1.387,1.387,0,0,0-1.655.08,1.433,1.433,0,0,0-.467,1.609l.656,1.882,4.183,12.089-.706.229c-.032.014-3.255,1.09-4.2,3.58a5.563,5.563,0,0,0,.8,4.8l-1.244.748c-1.294-2.2-1.6-4.25-.9-6.065a8.226,8.226,0,0,1,4.419-4.176l-3.856-11.152-.507-1.452a2.866,2.866,0,0,1,.934-3.228,2.809,2.809,0,0,1,3.33-.173l6.977,4.513Z"/><path class="cls-11" d="M633.145,355.554s21.9-24.868,31.2,7.939-22.515,38.6-14.264,69.335,17.784,38.026,17.784,38.026-60.5-37.388-33.965-82.5c0,0,7.172-9.931,1.21-10.7Z"/><path class="cls-6" d="M700.629,569.338,628.2,586.291h-.011L622.96,530.9l-38.74,95.2-16.166-2.19h-.011l-1.266-.173L429.806,605.173l-.021,0-.628-.093c27.25-47.964,24.689-76.7,24.689-76.7l-8.443,5.74-5.217,3.545-1.136-2.826-5.17-12.875-16.14-40.228v-.011l-3.209-7.986,5.91-3.687,38.544-24.086a105.892,105.892,0,0,1,74.51-14.465l10.828,1.911,4.961.879,46.6,8.224,5.68,1.007,35.841,6.329a59.483,59.483,0,0,1,8.067,2.009,60.34,60.34,0,0,1,13.816,6.409,61.242,61.242,0,0,1,27.59,40.223l11.974,61.687.36,1.857Z"/><path class="cls-10" d="M601.565,443.527,598.442,454.3a28.789,28.789,0,0,1-55.592-14.949l1.472-5.929,4.961.879.333-1.314,47.329,5.451-1.06,4.087Z"/><path class="cls-8" d="M621.928,388.673v.011a9.747,9.747,0,0,1-.2,2.061l-.2,1-.217,1.041-.037.188a14.354,14.354,0,0,1-3.519,6.906c-.009.022-.021.012-.021.012a13.451,13.451,0,0,1-2.325,2.078,15.163,15.163,0,0,1-2.4,1.378,14.678,14.678,0,0,1-4.954,1.272s-.009.011-.01,0a15.077,15.077,0,0,1-2.4-.023l-.018.045-1,3.908-3.639,14.163-.009.011-4.036,15.711-1.06,4.087-.237.935-3.045,9.522a23.323,23.323,0,0,1-44.806-12.9l1.486-5.778.333-1.314.335-1.281,2.555-6.075,3.707-8.846s-31.607-2.318-10.5-45.031c.5-1,1.024-2.041,1.588-3.094.23-.434.47-.881.711-1.327.1-.194.213-.39.315-.573a187.016,187.016,0,0,1,10-16.024c.113-.174.237-.359.362-.534q1.52-2.2,3.183-4.484c.2-.279.414-.571.627-.852,0-.011,0-.011.008-.022.136-.176.259-.362.4-.537.3-.409.606-.829.915-1.238a1.842,1.842,0,0,1,.125-.175,64.406,64.406,0,0,1,10.167-1.742c14.011-1.312,37.427.91,36.345,30.759a64.5,64.5,0,0,1-.612,6.761c0,.065-.019.132-.024.2l.2.024c0-.01,0-.01.011,0l3.236.336a9.592,9.592,0,0,1,5.9,2.833c.011.01.022.009.023.019a9.787,9.787,0,0,1,2.741,6.6Z"/><ellipse class="cls-6" cx="631.193" cy="368.09" rx="4.625" ry="14.819" transform="translate(-15.929 28.785) rotate(-2.58)"/><path class="cls-11" d="M604.657,380.3l-47.875-40.246s16.533-31.021,53.487-3.444l5.093,2.9s22.887,15.228,14.467,42.565-28.847,40.642-28.847,40.642Z"/><polygon class="cls-12" points="560.944 386.345 562.36 384.899 556.237 378.901 565.313 368.898 563.813 367.538 553.428 378.983 560.944 386.345"/><path class="cls-11" d="M556.365,339.993s-9.17,3.364-6.255,21.062l10.113-14.865A42.48,42.48,0,0,1,556.365,339.993Z"/><path class="cls-5" d="M606.621,373.493a5.888,5.888,0,0,0-.237-1.626,6.2,6.2,0,0,0-2.02-3L598.34,382.98l.13,1.092Z"/><path class="cls-5" d="M614.039,372.087a111.636,111.636,0,0,0,1.7-12.648c1.008-13.286-1.1-17.355-2.315-19.223a17.172,17.172,0,0,0-3.152-3.607l5.093,2.9s8.217,1.09,2.3,35.034Z"/><ellipse class="cls-2" cx="608.513" cy="390.174" rx="18.912" ry="11.523" transform="translate(57.572 858.136) rotate(-73.012)"/><path class="cls-13" d="M609.087,406.611a9.919,9.919,0,0,0,7.787-1.008,17.291,17.291,0,0,0,7.767-10.19c2.453-8.062-.518-16.105-6.634-17.979a9.618,9.618,0,0,0-6.272.311c-4.036,1.541-7.646,5.547-9.281,10.887C599.988,396.69,602.956,404.746,609.087,406.611Z"/><path class="cls-6" d="M610.633,405.9a9.552,9.552,0,0,0,6.241-.293,17.291,17.291,0,0,0,7.767-10.19c2.453-8.062-.518-16.105-6.634-17.979a9.618,9.618,0,0,0-6.272.311A17.33,17.33,0,0,0,604,387.929C601.534,395.975,604.5,404.031,610.633,405.9Z"/><ellipse class="cls-5" cx="614.773" cy="392.34" rx="11.224" ry="8.533" transform="matrix(0.292, -0.956, 0.956, 0.292, 59.932, 865.656)"/><ellipse class="cls-6" cx="616.001" cy="392.656" rx="8.125" ry="6.177" transform="translate(60.499 867.054) rotate(-73.012)"/><path class="cls-5" d="M620.931,392.815a.634.634,0,0,0,.465-1.169l-6.644-3.673a.634.634,0,1,0-.614,1.109l6.644,3.673A.612.612,0,0,0,620.931,392.815Z"/><path class="cls-5" d="M619.728,395.4a.634.634,0,0,0,.464-1.169l-6.644-3.672a.634.634,0,1,0-.614,1.109l6.644,3.672A.619.619,0,0,0,619.728,395.4Z"/><path class="cls-5" d="M618.433,397.955a.633.633,0,0,0,.464-1.168l-6.644-3.673a.634.634,0,0,0-.614,1.109l6.644,3.673A.616.616,0,0,0,618.433,397.955Z"/><rect class="cls-2" x="554.476" y="332.014" width="33.497" height="64.826" rx="9.562" transform="translate(11.826 746.76) rotate(-66.888)"/><rect class="cls-13" x="552.247" y="333.487" width="33.497" height="59.979" rx="9.355" transform="translate(11.347 744.132) rotate(-66.888)"/><rect class="cls-6" x="551.721" y="333.834" width="30.029" height="53.583" rx="8.372" transform="matrix(0.393, -0.92, 0.92, 0.393, 12.595, 740.321)"/><path class="cls-5" d="M592.225,359.33a7.067,7.067,0,0,0-.5-1A7.752,7.752,0,0,0,588,355l-25.1-10.7-2.2-.944-2.559-1.1h-.01l-.76-.331h-.01l-1.291-.551a7.213,7.213,0,0,0-1.311-.42h-.01a7.85,7.85,0,0,0-8.666,3.839,3.868,3.868,0,0,0-.284.559.941.941,0,0,0-.092.182L541.3,355.88a7.9,7.9,0,0,0,4.162,10.363l2.547,1.085,11.535,4.919,1.96.847h.01l15.871,6.769a7.525,7.525,0,0,0,1.135.393,7.909,7.909,0,0,0,9.228-4.554l3.015-7.075,1.4-3.261a.48.48,0,0,0,.044-.113c.079-.192.158-.395.226-.6A7.82,7.82,0,0,0,592.225,359.33ZM591.6,365a.516.516,0,0,1-.044.113l-1.307,3.078-3.095,7.256a7.247,7.247,0,0,1-9.5,3.82l-15.667-6.691-1.97-.835-11.682-4.981-2.6-1.112a7.259,7.259,0,0,1-3.82-9.5l4.413-10.336a1.649,1.649,0,0,1,.092-.183,5.807,5.807,0,0,1,.283-.57,7.264,7.264,0,0,1,7.433-3.548,6.419,6.419,0,0,1,.654.134,7.544,7.544,0,0,1,1.043.347l2.15.916,1.461.622,2.988,1.272.012.01.079.036,25.234,10.774a7.219,7.219,0,0,1,4.066,8.775A4.736,4.736,0,0,1,591.6,365Z"/><rect class="cls-5" x="571.757" y="326.297" width="0.634" height="59.954" transform="translate(19.318 741.84) rotate(-66.811)"/><ellipse class="cls-2" cx="588.761" cy="363.195" rx="3.464" ry="1.528" transform="translate(23.613 762.14) rotate(-66.888)"/><ellipse class="cls-5" cx="584.394" cy="361.331" rx="3.464" ry="1.528" transform="translate(22.674 756.991) rotate(-66.888)"/><path class="cls-12" d="M567.635,393.175l-17.32-2.824a1,1,0,0,0-1.11,1.318c1.465,4.168,6.574,14.423,18.937,3.25A1.01,1.01,0,0,0,567.635,393.175Z"/><path class="cls-9" d="M556.218,416.784s11.447,2.07,15.645-.076c0,0-4,10.487-19.355,8.914Z"/><path class="cls-11" d="M555.687,339.586s17.643,21.886,43.129,18.406S569.207,336.459,555.687,339.586Z"/><polygon class="cls-14" points="457.59 508.633 433.883 521.964 440.189 537.675 453.846 528.385 457.59 508.633"/><path class="cls-14" d="M620.846,508.512,622.96,530.9l-38.74,95.2L429.157,605.082l55.391-.128A141.4,141.4,0,0,0,608.169,531.6Z"/><path class="cls-15" d="M453.842,528.38s4.38-47.583,28.533-54.752"/><polygon class="cls-2" points="414.53 473.747 420.442 470.054 445.407 534.122 440.189 537.675 414.53 473.747"/><polygon class="cls-2" points="628.192 586.287 627.406 577.969 699.21 562.045 700.624 569.337 628.192 586.287"/><path class="cls-8" d="M795.494,524.757l34.475-8.462a31.768,31.768,0,0,1,14.942-.049l38.75,9.239a3.148,3.148,0,0,1-.511,6.2l-29.335,2.045-.628,24.345a9.51,9.51,0,0,1-7.975,9.141l-25.855,4.222Z"/><path class="cls-9" d="M823.452,551.379c2.869-.967,4.718-2.552,5.5-4.711,1.019-2.83-.13-5.811-.793-7.162l13.786-7.951a3.375,3.375,0,0,0-1.226-6.268L824.1,523l-.222,1.611,16.614,2.289a1.749,1.749,0,0,1,.635,3.248l-15.193,8.763.438.713c.021.035,2.124,3.513,1.042,6.5-.6,1.665-2.11,2.914-4.482,3.714Z"/><path class="cls-8" d="M628.2,586.091l.215,20.779a29.439,29.439,0,0,0,42.132,26.256l141.915-60.085a20.618,20.618,0,0,1,6.9-1.6h0l-23.828-46.707Z"/><line class="cls-15" x1="622.962" y1="530.896" x2="620.239" y2="502.052"/><path class="cls-2" d="M559.756,505.5a38.371,38.371,0,0,1,2.355,6.084,59.306,59.306,0,0,1-7.935,6.949,117.864,117.864,0,0,1-11.242,7.353c-3.648,2.115-7.6,4.191-11.766,6.15-13.479,6.341-26.012,9.982-34.012,10.363a38.708,38.708,0,0,1-5.3-11.24c-.066-.236-.136-.477-.2-.715a37.721,37.721,0,0,1-1.257-9.915c0-.433.011-.871.028-1.307a37.156,37.156,0,0,1,4.607-16.505,35.609,35.609,0,0,1,15.084-14.575,36.142,36.142,0,0,1,35.485,1.675c.647.4,1.282.821,1.908,1.261A37.907,37.907,0,0,1,559.555,505.1C559.625,505.229,559.69,505.363,559.756,505.5Z"/><path class="cls-2" d="M562.111,511.581a37.7,37.7,0,0,1,1.472,12.476c0,.013,0,.02,0,.032a36.941,36.941,0,0,1-7.29,20.313,35.494,35.494,0,0,1-13.872,11.11,36.16,36.16,0,0,1-33.259-1.945,36.668,36.668,0,0,1-3.656-2.441,37.743,37.743,0,0,1-8.347-8.73c8-.381,20.533-4.022,34.012-10.363,4.164-1.959,8.118-4.035,11.766-6.15a117.864,117.864,0,0,0,11.242-7.353A59.306,59.306,0,0,0,562.111,511.581Z"/><path class="cls-10" d="M559.756,505.5a38.371,38.371,0,0,1,2.355,6.084,37.711,37.711,0,0,1,1.313,6.658l-9.248.291-63.776,2c0-.433.011-.871.028-1.307a37.156,37.156,0,0,1,4.607-16.505l64.52,2.384C559.625,505.229,559.69,505.363,559.756,505.5Z"/><path class="cls-10" d="M563.583,524.057c0,.013,0,.02,0,.032a36.941,36.941,0,0,1-7.29,20.313l-47.131,9.165a36.668,36.668,0,0,1-3.656-2.441,37.743,37.743,0,0,1-8.347-8.73,38.708,38.708,0,0,1-5.3-11.24c-.066-.236-.136-.477-.2-.715,16.173-1.445,35.006-3.118,51.277-4.558C550.591,525.2,557.662,524.576,563.583,524.057Z"/><path class="cls-10" d="M552.124,494.91l-52.686,1.528a35.486,35.486,0,0,1,4.314-4.163c13.011-.791,28.936-1.714,41.852-2.461.647.4,1.282.821,1.908,1.261A37.521,37.521,0,0,1,552.124,494.91Z"/><path class="cls-4" d="M596.247,488.008c-3.7-7.44-23.66-5.611-48.73,3.069.337.239.676.49,1.015.74s.656.5.986.776c.258.2.518.429.778.644.379.334.758.667,1.127,1.013.06.059.119.108.179.167.178.157.346.326.514.5a2.126,2.126,0,0,1,.167.158v.011c.442.425.852.854,1.264,1.3.569.62,1.13,1.273,1.66,1.94.124.151.247.3.359.455.295.363.569.739.845,1.126,5.039-.367,8.5.458,9.547,2.619s-.428,5.364-3.849,9.055c-.375.405-.781.823-1.2,1.232-.188.192-.387.384-.586.577q-.644.615-1.35,1.235c-.23.218-.471.425-.712.633-.311.268-.634.537-.956.807-.977.809-2.018,1.635-3.135,2.469-.842.633-1.717,1.259-2.634,1.9-.846.59-1.724,1.184-2.625,1.769-.44.291-.89.583-1.341.876q-2.231,1.4-4.635,2.806c-3.646,2.115-7.6,4.194-11.772,6.152-13.471,6.335-26.013,9.974-34,10.359-4.619.219-7.753-.647-8.731-2.717s.349-5.052,3.421-8.526c-.065-.233-.132-.476-.186-.71a3.027,3.027,0,0,1-.118-.445.621.621,0,0,1-.035-.138c-.066-.244-.122-.488-.179-.744-.111-.489-.213-.99-.3-1.481l-.069-.385c-.067-.363-.123-.727-.169-1.1a.514.514,0,0,1-.023-.128c-.024-.139-.038-.29-.062-.429-.051-.419-.1-.838-.14-1.258a37.144,37.144,0,0,1-.165-3.809.941.941,0,0,1,0-.2c0-.37.006-.74.025-1.111-19.851,13.217-31.364,26.135-28.172,33.015s20.424,6.09,43.244-1.106a244.834,244.834,0,0,0,29.314-11.492,258.614,258.614,0,0,0,28.768-15.546C586.135,509.9,599.95,495.47,596.247,488.008Z"/><path class="cls-4" d="M497.536,503.978c-2.254,3.485-2.389,7.493-.3,8.969s5.629-.14,7.907-3.63,2.429-7.549.315-9.022S499.8,500.481,497.536,503.978Z"/><path class="cls-4" d="M494.5,520.251c-1.4,2.154-1.485,4.649-.187,5.579s3.5-.057,4.909-2.213,1.5-4.671.191-5.6S495.9,518.092,494.5,520.251Z"/><path class="cls-4" d="M510.815,499.884c-1.018,1.561-1.082,3.355-.142,4.01s2.533-.077,3.556-1.64,1.09-3.366.145-4.02S511.836,498.32,510.815,499.884Z"/><path class="cls-6" d="M675.586,788.185a43.347,43.347,0,0,1-24.34-7.816c-10.686-7.349-17.539-18.676-18.332-30.3a45.093,45.093,0,0,1,6.024-24.985q-4.848-1.749-10.238-3.25c-34.828-9.7-72.051-8.674-108.054-7.688l-3.925.107c-40.987,1.111-77.772,1.064-112.85-10.79-40.408-13.652-70.686-43.234-79.018-77.2-1.218-4.965-2.025-10.129-2.8-15.124-1.742-11.158-3.387-21.7-9.237-30.573-12.537-19.021-38.638-22.419-64.976-23.257a2,2,0,0,1-1.935-2.062,1.978,1.978,0,0,1,2.062-1.936c27.414.872,54.649,4.512,68.189,25.054,6.328,9.6,8.118,21.068,9.849,32.158.767,4.911,1.56,9.989,2.737,14.787,8.009,32.651,37.29,61.148,76.415,74.366,34.452,11.641,70.86,11.679,111.461,10.581l3.922-.107c36.3-1,73.83-2.026,109.237,7.832q5.967,1.661,11.3,3.625a57.15,57.15,0,0,1,16.551-16.228c12.985-8.379,29.907-12.641,50.3-12.666h.19a160.92,160.92,0,0,1,73.272,17.732c13.623,7,26.312,16.025,38.582,24.752,15.128,10.757,30.772,21.881,48.046,29.061a87.873,87.873,0,0,0,50.126,5.1c17.553-3.6,30.657-13.1,36.9-26.741,5.042-11.024,5.044-23.571.007-36.283-6.659-16.807-21.37-31.562-38.392-38.507-30.336-12.377-66.114-6.966-94.86-2.618a2,2,0,0,1-.6-3.956c29.23-4.421,65.612-9.923,96.968,2.871,18,7.341,33.553,22.952,40.6,40.737,5.447,13.75,5.417,27.381-.09,39.42-6.785,14.835-20.895,25.133-39.731,29a91.962,91.962,0,0,1-52.465-5.326c-17.69-7.354-33.521-18.61-48.828-29.5-12.156-8.645-24.726-17.583-38.093-24.455a156.927,156.927,0,0,0-71.444-17.289h-.185c-19.609.024-35.8,4.071-48.131,12.028a53.308,53.308,0,0,0-14.9,14.345c11.21,4.564,20.2,10.263,27.261,17.246,12.7,12.569,18.572,29.745,15.321,44.825l-.247,1.145-1.121.345A35.812,35.812,0,0,1,675.586,788.185Zm-32.875-61.669a41.242,41.242,0,0,0-5.806,23.279c.711,10.417,6.919,20.616,16.608,27.278,9.322,6.412,20.551,8.638,30.277,6.071,2.424-13.476-3.046-28.683-14.456-39.973C662.519,736.426,653.738,730.924,642.711,726.516Z"/></g></g></svg>