<svg id="Layer_1" data-name="Layer 1" xmlns="http://www.w3.org/2000/svg" viewBox="0 0 150 150"><defs><style>.cls-1{fill:#ffe1d7;}.cls-1,.cls-10,.cls-11,.cls-12,.cls-13,.cls-2,.cls-3,.cls-4,.cls-5,.cls-6,.cls-7,.cls-8,.cls-9{fill-rule:evenodd;}.cls-2{fill:#ff7345;}.cls-3{fill:#faca50;}.cls-4{fill:#edb9a9;}.cls-5{fill:#c6877b;}.cls-6{fill:#ffac7b;}.cls-7{fill:#c14d2d;}.cls-8{fill:#fff;}.cls-10{fill:#6885c2;}.cls-11{fill:#8eb6ea;}.cls-12{fill:#c9dcf5;}.cls-13{fill:#556c9e;}</style></defs><path class="cls-1" d="M73.54,20.78a42.66,42.66,0,0,0-28.85-1.2c-16,5-7.15,16.2-19.71,27.83A44,44,0,0,0,10.77,81c.28,7.4,1.88,19.87,6.42,28.36s9.19,11.25,18.05,13.4,42.66,7.5,54.47,12.19,27.66,3,34.88-6.37.94-19.69,10.31-39S140.22,47.68,120.51,41,101,26.08,94.73,24.76,79.54,25.89,73.54,20.78Z"/><path class="cls-2" d="M36,16.9s-1.55,0-1.48,2,.61,8,1.43,10.4,2.62,6.47,2.79,6.71a6.55,6.55,0,0,0,4.59,1.26c2.56-.21,16.2-2.64,16.2-2.64s1.5-.43,2,.28a17.43,17.43,0,0,0,1.9,1.89V34.29s-1.21-19.41-1-19.43a1.74,1.74,0,0,0-2.16-1.8c-2,.35-17.65,2.44-17.65,2.44Z"/><path class="cls-3" d="M110.16,14.64l2,1.95s5.68,8,5.8,7.92,3.75,6.12,3.75,6.12.47,2-.56,2.5-5.76.45-5.76.45L102,33.93s-3,0-2.09-2.55S107.84,16,107.84,16,109.41,14.23,110.16,14.64Z"/><path class="cls-4" d="M17.09,57.05A44.22,44.22,0,0,0,10.77,81c.28,7.4,1.88,19.87,6.42,28.36s9.19,11.25,18.05,13.4,42.66,7.5,54.47,12.19,27.66,3,34.88-6.37.94-19.69,10.31-39a47.34,47.34,0,0,0,4.71-17.12c-3.68,3.51-8.48,8-10,9-2.63,1.69-4.78-1-4.78-1s-15.57-21.94-17.72-22.88-3.28.19-3.28.19-6.57,5.91-9.19,7.78-4.41,1-4.41,1-18.65-4.87-21.75-4.78-3.18,1.6-3.18,1.6-12,20.81-14.91,21-2.81-2.16-2.81-2.16S39,61.06,38.28,58.43s-5.54-2.34-5.54-2.34Z"/><path class="cls-5" d="M29.82,121.11a47,47,0,0,0,5.42,1.62c8.86,2.16,42.66,7.5,54.47,12.19s27.66,3,34.88-6.37a17.69,17.69,0,0,0,2.92-5.73l-22.74-1.41-75.38-5Z"/><path class="cls-2" d="M57.67,76.75s3.15-4.94,3.62-6.07,1.59-3.42,1.5-3.46,14.95,5.14,15.28,5.14,4.05.22,4.05.22L95,69.9a25.12,25.12,0,0,0,7.06-3.25,89.85,89.85,0,0,0,8.22-6.4s3.57,5.18,3.75,5.46S117.67,69,117.67,69l2.4-2.76A49.05,49.05,0,0,0,121.75,71c.26.21.28,1.43.28,1.43s-6.19,6.23-7.41,7.47-.75,8-.75,8,3.17,18.18,4.39,22.68,2.11,8.16,2.11,8.16-.89,1.72-4.36,3.34l-11.24-.69-29.72-2c-.47-4.83-1.51-16.45-1.51-16.45L72.06,88.64S56.54,82.09,56,81,57.67,76.75,57.67,76.75Z"/><path class="cls-6" d="M62.15,68.74a8.45,8.45,0,0,0,.64-1.52c-.1,0,14.95,5.14,15.28,5.14s4.05.22,4.05.22l7.06-1.47h0s-5.78,2.44-5.94,2.45a23.81,23.81,0,0,0-1.33,5.18c-.17,1.6,1.71,3,1.71,3a6.42,6.42,0,0,0-1.48.7,4.74,4.74,0,0,1-2.32.57,29.6,29.6,0,0,1-.37-4.27,29.74,29.74,0,0,1,1.35-5.07s-3.23,1.58-9.74-.86a73.34,73.34,0,0,1-8.91-4.05Zm32.72,1.18.13,0a25.12,25.12,0,0,0,7.06-3.25,89.85,89.85,0,0,0,8.22-6.4l1.43,2.07c-2.32,1.57-7.29,5-8.59,6.56-1.71,2-6.19,2.9-6.19,2.9s.73,2.16.8,2.23a9.84,9.84,0,0,1-.8,3.35A20.48,20.48,0,0,1,93.13,83c-.82.68-2.48-.7-2.6-1s2.56-3.17,3.68-5.06,1.22-1.34,1.22-4.32A5.3,5.3,0,0,0,94.87,69.92Z"/><path class="cls-7" d="M57.67,76.75S59,74.74,60,73c1.75,1.38,5.14,4.06,6.3,4.92,1.6,1.17,4.6,3.66,5.63,3.14a2.34,2.34,0,0,1,2.2.38s-1.45.37-1.35,7.78,5.34,12.65,8.71,16.4,8.63,6.47,12.38,6.94-5.35-4.22-3.19-5,5.44,1.78,13.31,1.5-.78-5-1.43-5.36-3.44,0-3.94-.26S97,99,97,98.35,96.41,92,96.41,92l10.19-2s1,10.35,1.3,10.32a21,21,0,0,0,7-6.53c1,5.73,2.57,14,3.34,16.78,1.22,4.5,2.11,8.16,2.11,8.16s-.89,1.72-4.36,3.34l-11.24-.69-29.72-2c-.47-4.83-1.51-16.45-1.51-16.45L72.06,88.64S56.54,82.09,56,81s1.7-4.25,1.7-4.25ZM117,68.36l-.14.1s-3.35,5.5-3.68,6.35-5.16-.61-5.44-.1,4.76,3.89,6.39,6.42a2.63,2.63,0,0,1,.52-1.21c1.22-1.24,7.41-7.47,7.41-7.47s0-1.22-.28-1.43a49.05,49.05,0,0,1-1.68-4.81L117.67,69Z"/><path class="cls-4" d="M70.1,48l-5,2-5.65,7.64s-3.82,5.6-3.66,5.9S62.76,67,62.76,67s-3.24,8.51-4.4,9.37-2.18-1.15-3-1.56-7.74-3.49-9.69-5.37a5.18,5.18,0,0,1-1.19-5.93c.7-1.83,12.61-14.16,12.61-14.16l9.51-9a7.48,7.48,0,0,1,3.45-1.89,21.15,21.15,0,0,1,3.63-.38Z"/><path class="cls-1" d="M44.78,68.36a5.29,5.29,0,0,1-.3-4.84c.7-1.83,12.61-14.16,12.61-14.16l9.51-9a7.48,7.48,0,0,1,3.45-1.89,21.15,21.15,0,0,1,3.63-.38l-1,2.88a4.18,4.18,0,0,1-1.77.22c-1.62-.2-4.31,1.87-5.62,2.95s-2.07,2.67-3.71,3.66S56.62,53.44,55.22,55s-6.66,6.9-8.3,8.91a7.42,7.42,0,0,0-1.59,4.4Z"/><path class="cls-4" d="M91.29,36.29s5.79,3.42,6.35,3.61,3.75,1.45,3.75,1.45S120,48,121.46,49s4.88,3.1,5.11,5.06-4.93,9.09-4.55,9.35-4.54,5.74-4.54,5.74-3-3.34-4.43-5.09a21.41,21.41,0,0,1-2.52-4.35l2.77-3.24-10.23-6.17S92.62,45,92.17,44.93s-7-2.11-7.85-2.53A22.68,22.68,0,0,1,81.56,40S79,41,78.3,40s-.8-1.46.3-2.32,3.61-3,5.3-3a21.7,21.7,0,0,1,4.41.12A9.23,9.23,0,0,1,91.29,36.29Z"/><path class="cls-1" d="M91.29,36.29s5.79,3.42,6.35,3.61,3.75,1.45,3.75,1.45S120,48,121.46,49s4.88,3.1,5.11,5.06c.14,1.2-1.72,4.3-3.11,6.61.15-1.23.32-2.53.39-3.58.22-3-.79-4-3.37-5.53a27,27,0,0,0-8-3.65,156.49,156.49,0,0,1-17.09-7.27c-1.22-.8-6.1-3.28-6.72-3.16a9.65,9.65,0,0,0-3.29,2,2.08,2.08,0,0,1-.85.56c-1-.78-1.85-1.66-2.14-1.89-.49-.4-.17-.74-.17-.74a9.94,9.94,0,0,0-.91-.53c-.16-.07-.3-.58-.4-1a6.06,6.06,0,0,1,3-1.26,21.7,21.7,0,0,1,4.41.12A9.23,9.23,0,0,1,91.29,36.29Z"/><path class="cls-4" d="M70.47,48.5a43,43,0,0,1,1.83,5.11c.59,2.23,2.11,10.45,4.15,13.27s2.7,3.68,5,3.61,2.83-.5,2.6.77a2.48,2.48,0,0,1-.88,1.2l.31.24a5.63,5.63,0,0,0,.8,3.57,19,19,0,0,0,2.44,3.65,28.45,28.45,0,0,0,6-5.6,13,13,0,0,0,2.12-4.53,2,2,0,0,1-.87-1,47.3,47.3,0,0,1-1.22-6.52,30,30,0,0,1,2.11-2.67,6.27,6.27,0,0,0,1.07-5,5.62,5.62,0,0,0-1.19-2.2s.8-7.8-10.26-8.78S70.47,48.5,70.47,48.5Z"/><path class="cls-1" d="M70.47,48.5a43,43,0,0,1,1.83,5.11c0,.15.08.33.13.53,0,0,3.18,1.43,3.75,1.71a8.09,8.09,0,0,1,1.78,1c.4.39.91,0,1.08.7s-.07,4.24.65,4.69a1.16,1.16,0,0,0,1.63-.37c.26-.42-.5-.21-.57-.62s-.26-3.81-.23-4.1a9.7,9.7,0,0,1,3.25-3.31c1.66-.93,2.88-1.26,3.73-.72S89.21,46,89.21,46a16.45,16.45,0,0,0-11-1.69c-1.56.27-2.88.55-4,.82a8.79,8.79,0,0,0-3.8,3.38ZM85.92,79a14.72,14.72,0,0,0,2.55-4.39,30.66,30.66,0,0,0,2.09-9.18c0-1.29-2.25-2.91-2-4.5s1.24-5.21,1.24-5.21l2.77-2a5.15,5.15,0,0,1,2.71-.61,8,8,0,0,1,.64,1.45,6.27,6.27,0,0,1-1.07,5,30,30,0,0,0-2.11,2.67,47.3,47.3,0,0,0,1.22,6.52,2,2,0,0,0,.87,1,13,13,0,0,1-2.12,4.53,28.45,28.45,0,0,1-6,5.6s-.31-.34-.75-.93ZM75.36,59.78l2.36.12c.19,0-.37,1.45-1.33,1s-1-1.1-1-1.1Zm7.54-.7a32.66,32.66,0,0,1,3.38-1c1-.16-.26,2-1.92,2.09S82.9,59.08,82.9,59.08Z"/><path class="cls-8" d="M79.42,64.29s.63,1.12.76,1.38.74,1.26.74,1.26a11.47,11.47,0,0,0,3.69-.73c.94-.59,1-1.14,1-1.14a18.6,18.6,0,0,0-4.17-1.29A5.88,5.88,0,0,0,79.42,64.29Z"/><path class="cls-9" d="M60.22,12.67,58,12.94c-.87.07-2,.19-2.51.26l-1.91.25c-4.71.57-5,.62-6.73.9-.4.08-1.23.2-1.85.29a8.62,8.62,0,0,0-1.39.28,5.2,5.2,0,0,1-.85.17c-1.06.12-4.29.6-5.68.86-2.39.43-3.21,1.06-3.21,2.52,0,.33.07,1.28.16,2.11s.21,2.08.27,2.77A32.16,32.16,0,0,0,35,27.44c.41,1.53.59,2.13,1,3.34.26.74.71,2.06,1,2.93.87,2.63,1.1,2.94,2.37,3.39a16,16,0,0,0,3.72.44c.09,0,1.19-.13,2.41-.2a54.72,54.72,0,0,0,7.53-1c1.32-.26,2.29-.44,3.23-.59.7-.11,2.2-.43,3.17-.66,1.38-.33,1.22-.37,2,.55a6.07,6.07,0,0,0,2,1.73.49.49,0,0,0,.4-.08c.16-.13.17-.61.09-2.73A71.1,71.1,0,0,0,63.4,27a.43.43,0,0,0-.36-.07c-.23,0-.25.18-.2,2.28s.14,3.61.36,6.14l.07.73-.57-.61c-.32-.33-.74-.82-1-1.08a1.69,1.69,0,0,0-.66-.54,7.49,7.49,0,0,0-2.45.35,25.93,25.93,0,0,1-3.23.62L54,35.1a56,56,0,0,1-11.86,1.29c-1.82,0-2.13-.08-2.68-.34s-.64-.36-1.17-1.68c-.07-.15-.53-1.54-1-3.1a46.11,46.11,0,0,1-1.48-5.22,39.06,39.06,0,0,1-.74-6.74c-.06-1.56-.05-1.6.24-1.79a9.93,9.93,0,0,1,2.55-.77l1.45-.28L41,16.21c.94-.12,1.28-.19,3-.5,2.8-.53,3.94-.7,6.27-1,3.8-.47,5.38-.66,7.33-.84.91-.08,2-.21,2.39-.28,1-.17,1.38-.16,1.53,0a2.73,2.73,0,0,1,.21,1c.37,3.61.4,3.71.86,3.42.25-.17.27-1,.1-2.89-.22-2.47-.52-2.77-2.45-2.43Z"/><path class="cls-9" d="M46.36,18.74c-1.29.37-2.67,1.44-2.86,2.25-.1.33-.27.51-.74.78a5.88,5.88,0,0,0-1.06.76,1.23,1.23,0,0,0-.42,1.15c0,.67,0,.75.59,1.32a5.85,5.85,0,0,0,1.18.91c.45.22.62.41.7.73s.06.46-.43.92a1.18,1.18,0,0,0-.52,1.16c0,1.49,1.28,2.07,3.69,1.72.7-.11.74-.11.91.22A1.87,1.87,0,0,0,49,31.4c.67,0,.83.18.83,1,0,.58,0,.63.32.63.49,0,.62-.71.34-1.74-.17-.59-.45-.76-1.21-.76s-1.16-.27-.87-.48a5.8,5.8,0,0,1,.89-.37,17,17,0,0,0,3.07-1.31c2.07-1,2.64-1.43,3-2.3a6.65,6.65,0,0,0-.55-4.78A6,6,0,0,0,53,19.43a3.65,3.65,0,0,0-2.8-.41,1.14,1.14,0,0,1-1-.08,6.22,6.22,0,0,0-2.89-.2Zm2.15,1.07c.48.37-.47.9-1.61.9a1.58,1.58,0,0,0-.74.12,2.73,2.73,0,0,1-.84.18l-.71.08.35-.37a5.05,5.05,0,0,1,1.66-1,3.81,3.81,0,0,1,1.89.06Zm4.16.56a3.85,3.85,0,0,1,1.6,2.06A7.23,7.23,0,0,1,54.6,25l-.08.5-.39-.53a3.44,3.44,0,0,0-.7-.72A2.45,2.45,0,0,1,52.8,23a4.71,4.71,0,0,0-1.12-2A9.23,9.23,0,0,1,50.85,20c0-.19,1.38.13,1.82.41Zm-2,1.16a1.65,1.65,0,0,1,.73,1c0,.22-1.26.64-1.9.64s-.8-.6-.45-1.56c.16-.44.17-.44.75-.36a4.42,4.42,0,0,1,.87.23Zm-2.75.95,0,1.12-.66.13c-1.16.25-1.39.2-2.1-.49a2.19,2.19,0,0,1-.67-.93c0-.36.18-.45,1.5-.66a2.9,2.9,0,0,0,.73-.19,1.45,1.45,0,0,1,.63-.09h.55v1.11Zm-4.32.41a3.53,3.53,0,0,0,.72,1l.58.56-.5.43c-.45.37-.53.39-.84.25s-.35-.2-.35-.27-.08-.09-.18-.09c-.29,0-.87-.78-.87-1.17a1.62,1.62,0,0,1,1.18-1.19c.06,0,.16.2.26.45Zm8.1,1.49c.33.29.28.51-.2.74a1,1,0,0,1-1.19,0c-.31-.22-.3-.37.07-.7s.83-.47,1.32-.06Zm-4.46.94a9.72,9.72,0,0,0,1.29.13c.46,0,.62.06.62.21S49,25.91,48,26c-.29,0-.79.13-1.12.2a1.47,1.47,0,0,1-1,0c-.21-.1-.5-.2-.62-.25-.37-.12-.28-.41.2-.64s.58-.21,1.74,0Zm6.33.4c.11.18,0,.66-.21.66s-.12-.18-.12-.39c0-.4.18-.53.33-.27ZM49.17,27a1.27,1.27,0,0,1-.39,0c-.14,0-.06-.07.15-.07s.32,0,.24.07Zm3.2,0a2.38,2.38,0,0,0-.57.19.35.35,0,0,1-.52-.06c-.21-.21-.18-.23.56-.21.43,0,.67,0,.53.08Zm-5.09.58a15.84,15.84,0,0,0,2,.44l.51.08-.37.2a1.63,1.63,0,0,1-.47.19,4.76,4.76,0,0,0-.81.31,6,6,0,0,1-2.81.66c-.76,0-1,0-1.24-.23-.62-.56-.21-1.15,1.08-1.52a8.69,8.69,0,0,0,.82-.29c.26-.11.34-.09,1.25.16Z"/><path class="cls-9" d="M109.25,14.3a2.6,2.6,0,0,0-1.52,1.26,6.5,6.5,0,0,0-.53.85,14.12,14.12,0,0,1-.71,1.3c-.39.68-1.12,2-1.61,3s-1.09,2.08-1.33,2.46a6,6,0,0,0-.44.76,6.41,6.41,0,0,1-.46.81c-.25.39-.46.74-.46.76s-.57,1-1.24,2.25c-1.43,2.49-1.66,3.07-1.66,4.18a2.1,2.1,0,0,0,1.51,2.35c.65.2,3.55.15,8.45-.17a52.32,52.32,0,0,1,6.14-.12c1.49,0,2.8.09,2.9.08l1.19-.11c1.78-.15,2.77-1,2.77-2.31,0-.76-.21-1.2-1.73-3.47-.58-.86-1-1.58-1-1.62a15.73,15.73,0,0,0-1.93-2.82c-.13,0-.18.07-.13.22s.11.45.15.7A18.32,18.32,0,0,0,120,29.35c1.39,2.12,1.49,2.38,1.1,2.95-.51.72-.6.74-6.52.76-3,0-6.48.1-7.73.19-4.13.27-5.08.3-5.7.12-.83-.23-1-.57-.93-1.68a5.45,5.45,0,0,1,1-2.67l1-1.65c.38-.66.87-1.49,1.08-1.84a7.71,7.71,0,0,0,.46-.9c0-.12.12-.22.19-.22a.14.14,0,0,0,.12-.14,3,3,0,0,1,.35-.7c.2-.3.69-1.21,1.1-2s.9-1.72,1.08-2.05.71-1.28,1.16-2.11c1-1.77,1.53-2.38,2.17-2.38a.54.54,0,0,1,.6.35,4.52,4.52,0,0,0,1.57,1.24c.28,0,.15-.24-.48-1a5.66,5.66,0,0,1-.73-.93c0-.13-.3-.31-.57-.43-.54-.23-.5-.23-1,0Zm.24,13.29h0a1.81,1.81,0,0,1,2.19,1.24,1,1,0,0,1-.11,1A2.13,2.13,0,0,1,110,31c-.72,0-1.59-1.06-1.59-1.94a1.84,1.84,0,0,1,1.1-1.47Zm-.7-8h0a9.66,9.66,0,0,1,1.66-.17c1.31,0,1.49.12,1.26.9a20.11,20.11,0,0,0-.15,3v2.52l-.34.13a5.3,5.3,0,0,1-2.09.21c-.28-.07-.34-.16-.34-.5a5,5,0,0,0-.13-.89,32.45,32.45,0,0,1-.44-4.29l0-.79Z"/><polygon class="cls-10" points="19.05 100.07 54.11 102.82 55.87 106.66 62.24 121.16 88.61 123.65 66.36 132.06 50.47 130.15 28.05 127.48 26.98 125.16 17.41 100.24 19.05 100.07"/><path class="cls-11" d="M19.05,100.07l35.06,2.75,1.76,3.84,3.1,7a27.48,27.48,0,0,1-16.88,7.39,55.85,55.85,0,0,1-17-.87l-7.68-20Z"/><path class="cls-12" d="M19.05,100.07l35.06,2.75,1.76,3.84.84,1.9a2.64,2.64,0,0,1-1.37.37c-1-.09-2-4-2.81-4.45s-7-.1-10.13-.61-9-.56-11.06-.7-10.69-1-11.25-1,2,6.33,3.14,9.52.69,4.09.69,4.09l-.53.07-6-15.57Z"/><polygon class="cls-10" points="62.25 121.16 88.61 123.65 67.17 131.76 62.25 121.16"/><path class="cls-13" d="M83.5,125.58l-16.26,6.15h-.09l-4-8.51C64.94,123.47,77.87,124.94,83.5,125.58Z"/><path class="cls-9" d="M76.48,33.29a1.65,1.65,0,0,0-.37.72,1.16,1.16,0,0,1-.2.5.56.56,0,0,0-.12.37c0,.39-.17.53-.86.74l-.79.27c-.14,0-.59.2-1,.31-.84.26-1,.35-1.2,1.09l-.17.51-1.06.11a6.5,6.5,0,0,0-3.35,1.18c-.32.23-1.84,1.64-3.38,3.15s-3,2.89-3.18,3-1.23,1.13-2.27,2.14c-1.36,1.34-1.87,1.93-1.85,2.13.09.63.52.34,2.85-1.94,8.62-8.41,8.2-8,10-8.66a15.07,15.07,0,0,1,2.25-.55c.09,0-.1.84-.21,1a1.86,1.86,0,0,1-.61.3c-.28.1-.62.22-.77.29a10.52,10.52,0,0,1-1,.38c-1.25.41-1.32.5-1.21,1.84L68,43.34l-.45.47a25.43,25.43,0,0,0-2.26,3c-.18.36-.18.41,0,.66s.49.3,1.45.42,1.23.19,1.19.41-.23.33-.63.46-.72.24-.86.29a3.3,3.3,0,0,1-1.31.41c-.33,0-.62.29-1.6,1.59l-1,1.37a62.3,62.3,0,0,0-3.67,5.3A37,37,0,0,1,53,65.43a5.08,5.08,0,0,0-.83,1c0,.06.17.12.38.12s.65-.27,1.68-1.26C55,64.57,55.57,64,55.61,64s.16.09.25.2A22.32,22.32,0,0,0,59.29,66l.93.38.72.29c.15.07.45.17.66.24s.4.18.39.56a5.34,5.34,0,0,1-.45,1.38c-1,2.14-3.21,6.53-3.3,6.53a1.37,1.37,0,0,1-.5-.33,1.46,1.46,0,0,0-.73-.33,6.79,6.79,0,0,1-2.16-.8,3.21,3.21,0,0,0-.64-.26c-.06,0-.48-.18-2-.87l-.73-.31c-.08,0-3.16-1.73-3.85-2.15a8.35,8.35,0,0,1-2.77-2.66,2.62,2.62,0,0,1-.46-1.81,3.64,3.64,0,0,1,.24-1.51,8.09,8.09,0,0,1,1-1.64s.3-.4.59-.79c.41-.57,1.82-2.28,2.18-2.64,0,0,.66-.71,1.39-1.52s5-5.58,5.14-5.73a4.82,4.82,0,0,0,.52-.64c.22-.35.22-.38,0-.59s-.26-.19-.76.37c-.29.33-4.76,5.32-5.56,6.19-2.32,2.5-2.8,3-3.06,3.36-.13.17-.46.56-.72.86a10.7,10.7,0,0,0-1.51,2.32,3.18,3.18,0,0,0-.37,1.85c0,2,.86,3.43,2.87,5a22.68,22.68,0,0,0,2.38,1.5,7.31,7.31,0,0,1,.75.44,26.17,26.17,0,0,0,3.72,1.81,6.61,6.61,0,0,1,.77.31c.38.18.91.41,1.17.52l.48.2-.11.7a20.46,20.46,0,0,0,0,4.07c.1.7.12.73.54.77s.42,0,.42-.2a.58.58,0,0,1,.12-.37,7.8,7.8,0,0,0,.48-.79c.19-.37.54-1,.73-1.32.4-.69,4.28-8.49,4.49-9,.07-.16.17-.43.24-.6s.2-.5.28-.75l.15-.46,1.22.59c.66.33,1.38.66,1.6.74.47.19,2.21.82,2.77,1l.66.24.92.33c.37.12.78.27.93.33s.71.27,1.25.46l1.25.46a8.24,8.24,0,0,0,1.06.33c.43.12.91.28,1,.33a9,9,0,0,0,1.26.33c.54.12,1.2.27,1.46.35a10,10,0,0,0,1.63.12,4.9,4.9,0,0,1,1.13.06,9.3,9.3,0,0,1-.57,1,8.17,8.17,0,0,0-1.22,2.63,14.4,14.4,0,0,0-.41,4.5c.06,1.52.1,1.81.35,2.15a1.28,1.28,0,0,0,.22.24s0,1.75.94,2c.81.19,4.35-1.76,5.58-2.45,0,.43,0,.91-.06,1.41a37.92,37.92,0,0,0,.17,6.66c.61,6.63.64,6.88.9,7.09s.46-.07.38-2.54c0-1.33-.13-3-.21-3.61-.12-1.07-.23-6-.24-9,1.43.75,5.37,2.73,6.53,2.51,1.43-.29,3.52-2.54,4.29-5.86a14.89,14.89,0,0,0,.34-5.41.26.26,0,0,0,0-.14,7.23,7.23,0,0,1-.21-.94,7,7,0,0,0-1.31-3c-.35-.39-.38-.47-.18-.47a13,13,0,0,0,3.81-1.64c.37-.22.89-.53,1.17-.67s.48-.29.48-.34.11-.12.24-.18a2.91,2.91,0,0,0,.57-.3l.92-.62c.32-.21.77-.54,1-.72s.73-.59,1.11-.88l.85-.66c.07-.08.64-.54,1.26-1s1.45-1.16,1.85-1.47a4,4,0,0,1,.86-.6c.08,0,.3.37.51.82a42.78,42.78,0,0,0,2.5,4.07,49,49,0,0,0,4.85,4.83c.88.71,1.23.87,1.15.54A31.2,31.2,0,0,0,116,67.23a25.63,25.63,0,0,1-2.89-3.41,4.57,4.57,0,0,0-.42-.7,17.63,17.63,0,0,1-1.48-2.6,21.55,21.55,0,0,0,2.32.07,6.42,6.42,0,0,0,4-2.06c.07,0,.09-.09.09-.18s-.34-.38-1.09-.74a54,54,0,0,1-5.24-2.72l-.53-.31a17.63,17.63,0,0,1-1.72-1L106.44,52c-.9-.54-1.78-1.07-1.94-1.18a87.93,87.93,0,0,0-9.17-4.91c-.19-.08-.44-.18-.56-.25a1.34,1.34,0,0,0-.43-.12,2.78,2.78,0,0,1-.82-.43,8.18,8.18,0,0,0-2.09-1,12.49,12.49,0,0,0-2.37-.54,11.29,11.29,0,0,1-3.5-.84c-1-.53-3.43-3.21-3.43-3.83a.2.2,0,0,0-.2-.2.24.24,0,0,0-.2.26c0,.2-.09.27-.31.27a.52.52,0,0,0-.4.12,1.78,1.78,0,0,1-.63.19,2.23,2.23,0,0,0-.72.23c-.22.18-1.13-.23-1.08-.5.08-.44,3.49-2,4-1.77.16.06.62.22,1,.34a8.44,8.44,0,0,1,1.16.49c.4.21.44.22.52,0a.55.55,0,0,0-.06-.43,4.51,4.51,0,0,0-1.78-1,.39.39,0,0,1-.3-.13c0-.08-.37-.13-.74-.13s-.65,0-.65-.11.31-.21.66-.33c.69-.22.66-.22,2.64.2,1.24.27,1.55.28,1.63.07S86.42,36,85,35.8a1.57,1.57,0,0,1-.65-.19,1.27,1.27,0,0,0-.6-.13h-.47l.59-.2a6.28,6.28,0,0,1,2.83,0,1.11,1.11,0,0,0,.91,0c.28-.14.42-.12,1.23.28l1.63.84,1.78,1c1,.54,2,1.06,3,1.62a4.24,4.24,0,0,1,.68.44c.62.55.91-.19.29-.77a16.16,16.16,0,0,0-3.34-2.06c-1.16-.63-2.23-1.21-2.72-1.49l-.66-.37-.78-.34L87.92,34A4.08,4.08,0,0,0,85.56,34c-.66.24-1.32.28-1.32.09S83.34,33,83.06,33a6.51,6.51,0,0,0-1.49.6l-1.2.59-.72-.26c-.41-.16-1.06-.42-1.44-.61-.89-.39-1.36-.41-1.73,0Zm19.3,44.87a.29.29,0,0,0-.14.19,2.69,2.69,0,0,1-.12.31,3.26,3.26,0,0,0-.18.38,17.33,17.33,0,0,1-2,3,1.32,1.32,0,0,1-1.82.16l-1.3-.71A19.21,19.21,0,0,1,87.61,80s.18-.25.48-.44a11.06,11.06,0,0,0,2.55-2.13,14.94,14.94,0,0,0,2.52-3,11.12,11.12,0,0,0,1.36-2.53c.15-.34.33-.62.41-.62s.12-.13.07-.4c-.12-.52.08-.5.71.07a7.19,7.19,0,0,1,1.69,3.49s-.91,2.29-1.62,3.74Zm15-18.58-.18,0c-.26,0-.36,0-.41.26a.94.94,0,0,1-.41.5c-.18.11-.82.59-1.42,1.06s-1.15.88-1.23,1-.37.29-.66.54l-.87.7c-.19.13-.78.58-1.32,1a27.54,27.54,0,0,1-2.85,2,2.13,2.13,0,0,0-.52.33,2.59,2.59,0,0,1-.51.33,1.64,1.64,0,0,0-.45.26A18,18,0,0,1,96.78,69a.5.5,0,0,0-.33.11c0,.07-.25.12-.46.12a1,1,0,0,0-.56.13c-.12.1-.29.1-.57,0s-.43-.3-.64-1c-.13-.46-.29-1-.35-1.17a22.26,22.26,0,0,1-.73-4.29l-.07-.79,1.23-1.26c1.63-1.66,2.21-2.87,2.21-4.59a3,3,0,0,0-.33-1.64,3,3,0,0,1-.33-1,11.28,11.28,0,0,1,.53-2.3c.05-.14.21-.62.35-1a6.24,6.24,0,0,1,.34-.93,1.14,1.14,0,0,0,.1-.52,1.34,1.34,0,0,1,.19-.64c.17-.22.24-.21,1.13.29,2,1.19,4,2.24,6.05,3.59a4.63,4.63,0,0,0,.62.39,5.56,5.56,0,0,1,.75.43c.38.25,1,.6,1.29.78s1.31.77,2.18,1.29c1.31.8,2.47,1.46,3.57,2l-2.16,2.65Zm-22.65,9c.24-.27.09-.4-.38-.31a25.73,25.73,0,0,0-2.66.86,10.83,10.83,0,0,1-3.59.83,3.11,3.11,0,0,1-2-.44,7.42,7.42,0,0,1-3.21-3.72,16.17,16.17,0,0,1-1.46-4,.6.6,0,0,0-.09-.34,2.71,2.71,0,0,1-.27-.85c-.08-.4-.2-.93-.24-1.14a4.52,4.52,0,0,0-.19-.66,3.25,3.25,0,0,1-.19-.6,23.54,23.54,0,0,0-.74-2.83c-.05-.15-.21-.63-.33-1.06a10.27,10.27,0,0,0-.33-1.06,10.32,10.32,0,0,1-.24-3.18c.8.74,1.08.66,2.2-.51a6.69,6.69,0,0,1,2.62-1.92c.15,0,.32.18.43.43a3.47,3.47,0,0,0,.54.79,1.21,1.21,0,0,0,1.59.13L81,48.11a17.25,17.25,0,0,1,3.49-1.65c.12,0,.16.28.16,1h0c0,1.16.21,1.8.67,2a2.93,2.93,0,0,0,1,0,4,4,0,0,1,.84,0,2,2,0,0,1,0,.74c-.06.38-.12,1.34-.14,2.15,0,1.94.18,2.44,1.23,2.94a1.48,1.48,0,0,1,1,1.65,14.32,14.32,0,0,0,.57,3.26c.39.82.68.74.79-.2,0-.29.14-.76.2-1a12.61,12.61,0,0,1,.87-2.73,2.37,2.37,0,0,0,.21-.64c0-.52,1.34-1.58,2-1.58a1.63,1.63,0,0,1,1.36.84,2.33,2.33,0,0,1,.34,1.61,3.18,3.18,0,0,1-.12,1.17.93.93,0,0,0-.21.43,9.24,9.24,0,0,1-1.68,2.42c-.23.25-.66.75-1,1.09-.47.61-.5.68-.42,1.32,0,.38.13,1.26.21,1.94a16.83,16.83,0,0,0,.33,2l.29,1a3.62,3.62,0,0,0,.17.53c.07.14.22.55.35.92s.31.81.39,1c.17.32.16.42-.17,1.2a15.4,15.4,0,0,1-3.67,5.36,12.17,12.17,0,0,1-3.36,2.56c-.2,0-.52-.37-1.26-1.48a16.28,16.28,0,0,1-1.44-2.72,3,3,0,0,1,.06-1.74,6.22,6.22,0,0,0,.13-1.47,8.17,8.17,0,0,0,1.92-1.13,13.22,13.22,0,0,0,2-2.17Zm-16.3-15c.12.5.29,1.13.52,1.89,0,.21.24.92.4,1.58s.34,1.31.39,1.45a12.64,12.64,0,0,1,.33,1.32c.12.58.28,1.23.33,1.45s.17.64.25.93a30.79,30.79,0,0,0,1,3.23c1.48,3.31,3.1,5,5.31,5.55a7.3,7.3,0,0,0,2.69-.08c.54-.12.49.38-.06.68l-.81.41a13.14,13.14,0,0,1-4.58-.13c-.47-.12-1-.25-1.25-.29a4,4,0,0,1-.66-.2c-.15-.07-.6-.21-1-.33a10.07,10.07,0,0,1-1-.33c-.15-.06-.56-.21-.93-.33-.63-.21-.89-.32-1.54-.58l-1-.34c-.36-.13-.78-.28-.93-.35l-1.45-.5a29.88,29.88,0,0,1-4.88-2c-1.9-.92-3-1.45-3.16-1.45s-.41-.15-2.39-1.06a4.23,4.23,0,0,1-1-.64c-.25-.28-.25-.3,0-.59a35.62,35.62,0,0,0,2.35-3.47,3,3,0,0,1,.49-.68.25.25,0,0,0,.11-.17,42.11,42.11,0,0,1,2.85-4.45c2.37-3.22,2.89-3.82,3.34-3.92a5.1,5.1,0,0,0,.89-.32,8.17,8.17,0,0,1,.82-.34c.28-.08.31-.07.21.14a4.88,4.88,0,0,0-.17.94c0,.58,0,.7.23.83.39.21.64.11,2.42-1l1.27-.79a13,13,0,0,0,.55,3.94ZM89.65,91.81h0c.61-.42.92-.19.92.68,0,.66-.15.94-.64,1.19a.48.48,0,0,1-.62,0c-.25-.13-.32-.26-.32-.7a1.21,1.21,0,0,1,.66-1.17Zm14.78-1.66A11.81,11.81,0,0,1,106,90c.81,0,1,0,1.2.28s.53,1.65.7,5.06c.14,2.5.32,4.81.47,6.13.09.77-.28,1.45-.81,1.45-.32,0-.34,0-.25-.43a7.65,7.65,0,0,0,0-2.53c-.08-.66-.2-2.45-.27-4-.22-4.89-.29-5.43-.66-5.28-.19.08-1.67.34-3.44.62-.48.06-1.15.17-1.52.23-.58.1-2,.32-3.92.61l-.63.09v.61a12.35,12.35,0,0,0,.14,1.53c.08.5.2,1.4.27,2,.47,3.68.82,5.65,1.07,5.94a.72.72,0,0,1,.1.34c0,.52.42.62,2.39.55,1.47-.06,1.89,0,2,.1s-.21.52-.6.53a.58.58,0,0,0-.39.12,6.57,6.57,0,0,1-1.68.22c-2.08.12-2.24,0-2.86-1.92a23.13,23.13,0,0,1-.68-3.7c-.25-2-.54-4.63-.62-5.62s-.06-1.09.29-1.32a3,3,0,0,1,1-.33l4-.66c.4-.07,1.18-.19,1.72-.25l1.58-.25Zm8.94-2.74h0a.41.41,0,0,1,.37-.18c.35,0,.5.33.72,1.58.1.48.21,1.12.28,1.45s.17.93.24,1.32c.13.69.43,2.22.67,3.37,0,.29.21,1.06.33,1.72s.28,1.42.34,1.71c.22,1.06.73,3.67.92,4.69.11.6.46,2.28.67,3.26.06.31.17.81.24,1.12s.22,1,.34,1.49.24,1.1.28,1.32a3.49,3.49,0,0,0,.18.66c.09.22.42,1.52.79,3.1.19.77.68,2.56.78,2.84.62,1.57.56,2.24-.3,3a8.25,8.25,0,0,1-2.59,1.3c-.33,0-.06-.42.63-1,1.4-1.19,1.48-1.3,1.48-2a1.2,1.2,0,0,0-.12-.66,1.36,1.36,0,0,1-.18-.57c0-.27-.19-.83-.3-1.22-.33-1.14-.41-1.44-.72-2.71-.16-.66-.34-1.31-.39-1.45a12.64,12.64,0,0,1-.33-1.32c-.13-.58-.28-1.19-.35-1.36a2.25,2.25,0,0,1-.11-.63,1.64,1.64,0,0,0-.12-.56,5.53,5.53,0,0,1-.28-1.08c-.21-1-.36-1.79-.52-2.55-.11-.51-.36-1.86-.68-3.52-.08-.4-.19-1-.25-1.25-.23-1.17-.57-3-.68-3.5,0-.33-.19-1.1-.31-1.72s-.27-1.45-.35-1.85-.18-1-.25-1.32a23.4,23.4,0,0,1-.43-3.51ZM88.69,85.13c.5-.29.76-.12,1.16.74.34.71.34.71.1,1.13a.77.77,0,0,1-.79.47.73.73,0,0,1-.82-.32,1.56,1.56,0,0,1-.27-.74,1.77,1.77,0,0,1,.62-1.28ZM60.24,83h0c.19-.18.27-.2.66,0l1.3.49a33.17,33.17,0,0,1,3.3,1.41c.62.29,1.45.68,1.85.85l1.68.78c.55.25,1,.45,1,.45s1.27.54,2.25,1a1,1,0,0,1,.55.71c.12.45.1.53-.07.53s-.21,0,.11,2.7c.08.65.2,1.52.26,1.93a8,8,0,0,1,.13,1.31,8,8,0,0,0,.14,1.3c.06.41.19,1.51.27,2.46s.2,2.24.28,2.9c.28,2.6.34,3.39.57,5.88.12,1.41.28,3.69.34,5.08.21,4.39.33,5.13,1,5.83.19.24.39.3.92.3.37,0,1.17.06,1.79.12s1.64.16,2.29.2c1,0,1.15,0,1.15-.13s.09-.17.37-.11a1.28,1.28,0,0,1,.42.19c.13.18,3.15.43,11.08.91,1.42.08,3,.21,3.48.28a14.76,14.76,0,0,0,2,.13,11.61,11.61,0,0,1,1.81.13c.41.07,1.95.2,3.44.28s3.37.2,4.16.26l3.37.23,2.7.21c.44.05,1.81.16,3,.22l3.76.25c1.93.15,5.16.36,8.43.57,2.37.15,2.58.18,2.66.42a1,1,0,0,1,0,.42c-.08.22-1.06.23-2.72,0-.68-.07-2.26-.19-3.53-.27-3.49-.21-5.43-.35-8.84-.58-4.47-.31-6.93-.48-8-.53l-2.78-.2-4.15-.29c-3.55-.21-4.9-.3-11.35-.75l-3-.2c-2.1-.13-5.06-.34-7.92-.54l-4.75-.34-3.5-.24c-3.51-.24-5.76-.4-6.6-.48l-2.18-.18a8.15,8.15,0,0,1-1.54-.21c-.2-.08-.24,0-.24.23a.65.65,0,0,0,.12.43.84.84,0,0,1,.21.43c.19.83.37.93,2.31,1.08l5.65.52c.7.08,2.32.22,3.59.34l6,.58c.66.07,2.09.19,3.17.27s2.35.21,2.79.27a10.9,10.9,0,0,0,1.58.14,3.88,3.88,0,0,1,2,.48c.21.22-.07.57-.44.57a.37.37,0,0,0-.33.24c-.07.25-.22.33-1.75.88-.55.2-1.11.4-1.26.47s-.74.26-1.32.46l-1.91.66c-.48.17-1.48.53-2.25.79l-1.58.55c-.55.22-2.8,1-3.5,1.24l-1,.37c-.15.07-.56.22-.93.35s-.78.26-.92.33l-1.32.46c-.58.18-1.18.4-1.32.46a8.16,8.16,0,0,1-1,.34,2.37,2.37,0,0,0-1,.57c-.25.29-.33.32-.62.19s-.37-.11-.47,0-1.54,0-3.92-.29c-.43,0-1.62-.19-2.64-.33l-2.77-.33-2-.25-2.9-.35-2.71-.32-4.81-.59-2.71-.33L39,129.27c-1.68-.2-2.75-.33-4.75-.6L29,128c-.59-.06-.88-.15-1-.32-.4-.56.27-.74,1.78-.48.78.13,2.2.3,4.43.54l2.11.25,2.71.33,4.68.58c1.06.15,4,.49,5.09.61l1.45.2c.47.06,1.69.22,2.7.33l2.38.27c.76.11,2,.27,4.09.52,3,.37,3.64.43,5,.58a13.69,13.69,0,0,1,1.43.21c.3.12.33-.32,0-.92a4.44,4.44,0,0,1-.28-.66s-.16-.4-.35-.82-.39-.89-.44-1-.27-.61-.45-1-.35-.78-.35-.82-.23-.57-.52-1.19-.53-1.16-.53-1.2-.21-.5-.46-1-.47-1-.47-1a8,8,0,0,0-.34-.81c-.53-1.22-1-2.35-1.37-3.15,0-.14-.24-.56-.4-.92l-.47-1.09c-.11-.23-.27-.62-.37-.86s-.32-.73-.48-1.08-.34-.78-.39-.93-.24-.54-.39-.9l-.55-1.25c-.15-.34-.32-.74-.37-.88-.22-.53-.4-1-.86-1.94-.26-.57-.47-1.06-.47-1.1a6.89,6.89,0,0,0-.32-.73c-.45-.93-.53-1.37-.29-1.57a.33.33,0,0,1,.34-.08,7.18,7.18,0,0,1,.8,1.59s.15.39.34.82.42.93.51,1.16l.65,1.42c.26.57.47,1.06.47,1.09s.16.39.35.81.42,1,.53,1.19c.48,1.14.66,1.51,1.1,2.48.27.58.57,1.27.66,1.52l.4.9.21.43,1.39.06c1.73,0,5.63.27,7.71.45.87.07,2.19.14,2.94.14h1.36l-.17-.3c-.2-.36-.33-1.47-.49-4.25-.23-3.82-.41-6.32-.54-7.22a12.24,12.24,0,0,1-.14-1.61,6.35,6.35,0,0,0-.13-1.3c-.06-.31-.18-1.49-.27-2.61-.19-2.4-.36-4.37-.51-5.94-.06-.62-.18-1.78-.25-2.57s-.22-2.06-.3-2.8c-.16-1.32-.17-1.35-.57-1.5-.22-.1-.84-.36-1.37-.61s-1-.44-1-.44-1.14-.49-2.7-1.21C65,85.71,63.43,85,62.5,84.58a4,4,0,0,0-.63-.25s-.46-.19-.94-.41c-.84-.41-1-.58-.69-.89Zm5.19,38.79h0a6.75,6.75,0,0,0-2.57,0,6.88,6.88,0,0,0,.39.9,6.28,6.28,0,0,1,.4.89,6,6,0,0,0,.38.93c.52,1.09,1.07,2.33,1.07,2.4s.2.47.45,1l.74,1.62.74,1.64a18.16,18.16,0,0,0,2.23-.78l.92-.33c.37-.12.78-.27.93-.33s.56-.21.92-.33l.92-.33c.15-.07.51-.19.8-.28a3.66,3.66,0,0,0,.66-.26,2,2,0,0,1,.59-.19,2.7,2.7,0,0,0,.66-.21c.11,0,.82-.32,1.58-.58s1.51-.53,1.65-.59l.93-.33c.37-.12.78-.27.92-.33a9.73,9.73,0,0,1,.93-.33l.92-.33c.29-.12,2.18-.8,3.43-1.21.44-.14.89-.3,1-.35s-.54-.23-1.85-.36l-1.91-.21-2.84-.26L77.57,123l-3.49-.33c-3.09-.28-5-.48-8.65-.85ZM12.51,78.91h0c.35-.15.5-.15,1.21,0a9.42,9.42,0,0,1,2.81,1.34l.33.32.46-.28a8.89,8.89,0,0,1,.84-.45l.71-.33a7,7,0,0,1,1.82-.15,3.66,3.66,0,0,1,2.11.33A6.68,6.68,0,0,1,25.14,82a9.91,9.91,0,0,1,1,3.88c0,.62.2.71,1.49.71,2.22,0,3.73.58,4.59,1.74a9,9,0,0,1,1.3,2.88c.27,1.12.27,1.12,1.57.47a7.26,7.26,0,0,1,3.55-1,6.48,6.48,0,0,1,5.38,3.51c.38.77.4.82.4,2.72v2h.78a2.83,2.83,0,0,1,2.77,1.4c.14.29.3.62.35.74a1.59,1.59,0,0,1,.12.62V102l1.23.08,2.63.16c1.14.07,1.45.13,1.63.33s.2.28,0,.46-.38.22-1.57.14c-1.77-.1-4.59-.31-5.61-.41-.43,0-1.83-.15-3.1-.23-3.07-.18-5.09-.31-7.32-.47l-3.83-.28-2.91-.21-2.63-.2-3.37-.25a30,30,0,0,0-5.48,0,1,1,0,0,0,.17.57,8.85,8.85,0,0,1,.41,1c.1.29.27.72.36,1,.37.88.54,1.3.71,1.75s.32.87.58,1.48a2.25,2.25,0,0,1,.21.66.63.63,0,0,0,.12.32,4.7,4.7,0,0,1,.41.91,18,18,0,0,0,.81,1.94,1.24,1.24,0,0,1,.12.38,2.42,2.42,0,0,0,.21.62c.12.28.26.61.31.75l.33.86c.39,1,.43,1.11.62,1.58.11.25.28.68.37.93a14.38,14.38,0,0,0,.54,1.34,1.11,1.11,0,0,1,.12.39,3.11,3.11,0,0,0,.21.62c.32.74.39.88,1.05,2.66.34.91.7,1.82.79,2s.3.75.46,1.19c.26.72.37,1,.86,2.11.22.47,0,.9-.36.83s-.34-.05-1.09-2.09c-.35-.91-.7-1.83-.79-2s-.43-1.07-.74-1.89l-.57-1.49-1.07-.82a23,23,0,0,1-5-5.3c-3.12-5.18-3.8-6.43-4.46-8.19-.6-1.55-1.48-4.33-1.79-5.61-.07-.33-.21-.83-.27-1.12-.4-1.6-.91-4.53-1.18-6.66-.22-1.89-.42-11.71-.23-12A2.63,2.63,0,0,1,11.91,79a1.64,1.64,0,0,0,.6-.12ZM100,40.74h0c0-.26.14-.3.5-.11a7.69,7.69,0,0,0,1.81.6c1.28.32,3.45,1,4.09,1.24a6.45,6.45,0,0,0,.72.28l.86.34c.23.1.75.29,1.19.45s1,.36,1.19.45,1.17.49,2.11.87l2.7,1.08c.25.11.68.28.93.37s.78.31,1.16.48.72.32.75.32a10.23,10.23,0,0,1,1,.43l1.42.62a29.77,29.77,0,0,1,3.7,2,8.51,8.51,0,0,1,2.43,2.54,2.57,2.57,0,0,1,.47,1.81c0,1.45-.5,2.79-1.81,4.84a8,8,0,0,0-.43.76,61.9,61.9,0,0,1-3.67,5.46c-.13.2-.12.37,0,1,.27.9.38,1.39.65,2.63.12.54.26,1.13.33,1.32s.17.66.26,1a1.82,1.82,0,0,1-.74,2.07c-2.31,1.77-6.81,6.18-7.3,7.13a1.33,1.33,0,0,1-.4.57c-.24,0-.15-.77.15-1.28a30.79,30.79,0,0,1,5.71-6.16c1.82-1.52,1.87-1.59,1.7-2a13.68,13.68,0,0,1-.65-1.68c-.12-.39-.26-.84-.32-1a13.71,13.71,0,0,1-.52-1.86c0-.31-.2-.21-.74.4s-.53.58-.83.34l-.32-.22.38-.52c.21-.29.41-.54.45-.58a6.19,6.19,0,0,0,.46-.59c.23-.29.43-.56.46-.6.27-.22,2.58-3.59,3.77-5.47,1.87-3,2.32-3.94,2.4-5.22.06-1,0-1-.36-1.62-1-1.44-2.24-2.42-4.88-3.74-1.74-.85-3.38-1.63-3.49-1.63a4.46,4.46,0,0,1-.71-.28c-.34-.16-.74-.33-.88-.38l-.86-.33-1.15-.48a4.76,4.76,0,0,0-.65-.25,11.32,11.32,0,0,1-1.53-.64,5.88,5.88,0,0,0-.71-.28,3.1,3.1,0,0,1-.55-.21c-.68-.29-1.2-.52-1.75-.72-.25-.09-.63-.23-.85-.33a38.21,38.21,0,0,0-3.79-1.38l-1.14-.38a6.57,6.57,0,0,0-.95-.35c-1.28-.37-1.84-.72-1.84-1.15ZM79.88,65.43c0-.48.45-.2.78.47l.32.63.94-.08c.51,0,1.28-.11,1.7-.15.75-.08.94,0,.58.31a8.64,8.64,0,0,1-2.81.56c-.48,0-.73-.07-.87-.24a3.4,3.4,0,0,1-.64-1.5Zm-.14-1.75h0a3.76,3.76,0,0,1,1.62-.33,7.13,7.13,0,0,1,4.33,1.38c.71.72.29.89-.92.37-.25-.11-.58-.26-.73-.31a11.83,11.83,0,0,0-1.21-.34,5.38,5.38,0,0,0-3.33.2c-.68.33-1,.21-.67-.31a2.18,2.18,0,0,1,.91-.66Zm-4.95-6.36c.09-.24.49-.21,1.46.08a9.5,9.5,0,0,0,1,.23c.87.14.3.68-.71.69-.76,0-1.61-.29-1.73-.59a.72.72,0,0,1,0-.41Zm4-.35h0c.14-.16.39-.11.58.13s.18.72.18,2.27c0,1.75,0,2.12.24,2.43a.71.71,0,0,0,.54.35c.43,0,.52.13.25.42s-.71.31-1.14,0c-.68-.53-.74-.85-.74-3.27a15.59,15.59,0,0,1,.09-2.3Zm5-.82h0c.57-.39.76-.41.86-.08.16.5-.1.71-1.56,1.33-.85.36-1.41.36-1.41,0,0-.14,0-.26.13-.26a2.93,2.93,0,0,0,1.19-.56c0-.06.08-.1.17-.12a2,2,0,0,0,.62-.31Zm9.47-.58h0c.43-.36.78-.36,1,0s.07.37-.38.89l-.54.6.52.59c.31.31.51.63.47.69s-.72,0-.91-.14c-.41-.37-1,.28-1,1.09,0,.33,0,.39-.29.35s-.3-.11-.29-.77A3.9,3.9,0,0,1,92.41,57a5,5,0,0,1,.9-1.41ZM74.2,54.48h0c.27-.22.34-.22.75,0,1,.41,3.17,2.21,3,2.46s-.54.14-.89,0a22.57,22.57,0,0,1-3.1-2c0-.11.07-.29.23-.43Zm10.2-1.42h0c.39-.17.34-.17.64,0a.46.46,0,0,1,.26.33,4.6,4.6,0,0,1-1.09,1,27.35,27.35,0,0,0-2.72,2.26c-.09.21-.42.1-.42-.14a4.36,4.36,0,0,1,1.11-1.71,10.29,10.29,0,0,1,2.22-1.73ZM82.79,73.57A9.53,9.53,0,0,0,83.43,76a13.6,13.6,0,0,0,2.18,3.28c.6.67.74,1,.46,1a17.69,17.69,0,0,0-2.69,1.19C80.19,83,80.06,83,80,82.57a27.7,27.7,0,0,1,.18-4.91,9.44,9.44,0,0,1,2-4c.49-.5.62-.53.62-.09Z"/><path class="cls-8" d="M18.67,85.82c.62.47,1.15,2.2,1.25,4.08.06,1,0,1.16-.13,1.16s-.34-.23-.49-.93a23.72,23.72,0,0,0-.87-3c-.34-.74-.43-1.16-.27-1.32s.23-.17.51,0Zm9.2,9.51a1.87,1.87,0,0,1,.79.46c.2.31.19.31-.39.22a9.08,9.08,0,0,0-2.89.35c-1.26.27-1.58.28-1.67.06-.17-.44.73-1,1.65-1a4.35,4.35,0,0,0,.81-.12,2.77,2.77,0,0,1,1.7,0Zm11,1.19a.49.49,0,0,1-.07.86c-.17.06-.34.09-.39.05a16.08,16.08,0,0,0-4.57.66c-.11.07-.2,0-.25-.12-.12-.33.59-.88,1.52-1.16l1.08-.34a6.42,6.42,0,0,1,2.68,0Z"/></svg>