<svg xmlns="http://www.w3.org/2000/svg" viewBox="0 0 3000 2000"><defs><style>.cls-1{isolation:isolate;}.cls-2{fill:#ffc359;}.cls-3{fill:#b4ac15;}.cls-17,.cls-22,.cls-25,.cls-26,.cls-28,.cls-29,.cls-4,.cls-6,.cls-8,.cls-9{fill:none;}.cls-4,.cls-8{stroke:#242638;}.cls-22,.cls-25,.cls-29,.cls-4,.cls-6,.cls-8,.cls-9{stroke-linecap:round;stroke-linejoin:round;}.cls-4{stroke-width:3.09px;}.cls-5{fill:#847b0b;}.cls-6{stroke:#fff;stroke-width:1.75px;}.cls-7{fill:#d1c63b;}.cls-8{stroke-width:1.43px;}.cls-9{stroke:#f97070;stroke-width:2.11px;}.cls-10{fill:#fca19f;}.cls-11{fill:#ffe4e1;}.cls-12{fill:#f97070;}.cls-13{fill:#945661;}.cls-14{fill:#1a1a1a;}.cls-15{fill:#fff;}.cls-16{fill:#fce6a3;}.cls-17{stroke:#563136;stroke-width:3.47px;}.cls-17,.cls-26,.cls-28{stroke-miterlimit:10;}.cls-18{fill:#563136;}.cls-19{fill:#e03d3d;}.cls-20{fill:#ef8a7f;}.cls-21{fill:#d85b55;}.cls-22,.cls-25,.cls-29{stroke:#1a1a1a;}.cls-22{stroke-width:1.57px;}.cls-23{fill:#f2a325;}.cls-24{fill:#60333d;}.cls-25{stroke-width:1.74px;}.cls-26,.cls-28{stroke:#ffc359;}.cls-26{stroke-width:2.02px;}.cls-26,.cls-27,.cls-28{mix-blend-mode:multiply;}.cls-28{stroke-width:1.22px;}.cls-29{stroke-width:5.96px;}</style></defs><g class="cls-1"><g id="Layer_1" data-name="Layer 1"><circle class="cls-2" cx="1516.76" cy="1000" r="889.84"/><path class="cls-3" d="M2707.84,861.16c-15.8-15.73-43-3.32-58.58,12.63-39.76,40.7-62,103.74-116,121.51-10.64,3.5-22,4.93-32.24,9.4-17.2,7.47-29.85,22.83-38.71,39.36-17.82,33.28-22.4,71.83-33.65,107.86s-32.68,72.83-68.49,84.78c-17.33,5.78-36.6,5.18-53.06,13.1-34.24,16.49-42.18,60.72-46.81,98.44s-15.51,82.18-51.27,95.07c-9.64,3.48-20.2,4.13-29.55,8.32-22.52,10.09-31.49,36.79-37.82,60.64q-34.82,131.19-59.58,264.77c-1.31,7-2.54,14.63.41,21.17,3.78,8.42,13.18,12.52,21.77,15.88l65.07,25.45c11.7,4.58,24.16,9.23,36.51,7,13.37-2.46,23.86-12.51,33.39-22.19q63.08-64.05,119.88-133.88c23.34-28.69,46.93-61.1,46.81-98.08-.07-19.38-6.78-38.43-5.43-57.76,5-71.92,107.55-94.91,135.63-161.32,18.1-42.8.9-94.49,19.58-137,21.53-49,86.84-77.44,87.11-131,.09-17.7-7.56-34.58-8.9-52.23-4.17-54.65,49.33-94.2,74.18-143.06C2716,894.41,2720.19,873.45,2707.84,861.16Z"/><path class="cls-4" d="M2674.71,892.23c-53,53-108.24,109.83-126.33,182.61-3.37,13.57-5.41,27.61-11,40.41-16.85,38.42-61.22,57.13-84.62,92-24.4,36.31-22.82,85-45.5,122.46-21.38,35.26-60.51,54.8-93.67,79.33s-63.84,62.81-55,103.09c4.12,18.71,16.4,35,19.63,53.87,6.21,36.28-21.73,68.68-48.08,94.39-44.83,43.74-93.87,90.92-103,152.89"/><path class="cls-4" d="M2421.69,1300.17c4.41-11,9.34-22.58,19.15-29.16,14.72-9.87,35.75-5.3,50.47-15.16,13.54-9.07,17.2-26.91,24.75-41.35a76.82,76.82,0,0,1,54.41-39.53"/><path class="cls-4" d="M2610.2,1049.82c-7.79,9.75-21,12.94-33.1,15.93s-25.29,7.18-31.79,17.84"/><path class="cls-4" d="M2488.88,1074.86c.24,39.44-27.83,75.72-24.17,115"/><path class="cls-4" d="M2344.09,1387.84a82.09,82.09,0,0,1,62.79-10c6.06,1.51,11.95,3.73,18.1,4.86,18.63,3.45,38.69-3.93,51.28-18.09,3.31-3.71,8-8.32,12.38-5.91"/><path class="cls-4" d="M2336.33,1272.78c7.31,22.52,1.18,47.12-7.18,69.27s-19.06,44-21.09,67.54"/><path class="cls-5" d="M2348.87,707.1c-11.8-8.64-26.72,4.57-34.08,18.42-18.75,35.35-23.75,83.77-54.36,105.11-6,4.2-12.75,7-18.42,11.87-9.49,8.09-15.14,21-18.3,34.24-6.36,26.54-3.91,54.69-5.88,82.13s-10.06,57.06-30.31,71.32c-9.81,6.91-21.66,9.58-30.64,17.87-18.68,17.24-17.52,50-15.21,77.55s1.7,61-18.39,75.88c-5.42,4-11.78,6.19-16.93,10.68-12.39,10.8-14.23,31.23-14.85,49.21q-3.42,98.92-.38,197.92c.16,5.23.44,10.81,3.13,15,3.46,5.38,9.76,6.78,15.47,7.79l43.22,7.63c7.77,1.37,16,2.67,23.26-.93,7.83-3.91,12.87-12.74,17.38-21.16q29.82-55.71,55-114.53c10.36-24.16,20.36-51,15.26-77.3-2.68-13.77-9.37-26.24-11.18-40.2-6.71-52,52.81-84.83,60.93-136.59,5.23-33.35-12.31-67.35-6.69-100.62,6.48-38.34,42.53-69.06,35.4-107.2-2.35-12.6-9.32-23.38-12.55-35.72-10-38.2,17.33-74.94,25.87-113.69C2358.36,729.45,2358.09,713.86,2348.87,707.1Z"/><path class="cls-6" d="M2317.41,790.4c-17.22,29.72-35.08,62.45-30,96.44,1.25,8.45,3.91,16.69,4.48,25.21,2.79,41.77-43.54,73.62-44.21,115.47-.21,12.75,4,25.31,3.34,38-1.23,25.25-20.41,45.41-37.71,63.85s-34.91,40.92-31.91,66c1.19,9.93,5.58,19.14,8.55,28.69a104.1,104.1,0,0,1-9.58,82.64c-5.94,10.09-13.61,19.17-18.51,29.79-7.1,15.4-7.89,32.85-8.57,49.8l-3,74.84"/><path class="cls-6" d="M2196.54,1064c4.54,6.57,8.33,13.84,9.68,21.71,2.87,16.74-5.47,34.29-.82,50.63"/><path class="cls-6" d="M2247.5,870.74c-2.5,20.51,8.59,39.91,13.59,60a104.14,104.14,0,0,1-1.21,54.56"/><path class="cls-6" d="M2328.4,887.57c-8.52,17.78-30.49,26.38-38.22,44.52"/><path class="cls-6" d="M2289.55,1092.79c-9.3,23.15-29.79,39.74-50.36,53.86s-42.55,27.32-57.61,47.22c-.47.62-1,1.45-.57,2.14s1.8,0,1.25-.54"/><path class="cls-6" d="M2132.35,1219.79c7.17,15.69,18.82,28.82,28.61,43s18.05,30.68,16.85,47.9"/><path class="cls-6" d="M2241.38,1315.1c-1.27,3.88-3.85,7.19-6.58,10.22-18.63,20.71-45.32,31.82-68.8,46.8-6.87,4.38-14.29,10.74-13.44,18.84"/><path class="cls-7" d="M2796.61,1299.57c-4.81-13.78-24.56-11.36-38.44-4.12-35.42,18.47-66.91,55.47-104.15,55.71-7.34,0-14.47-1.42-21.87-.65-12.38,1.29-24.35,8.75-34.4,17.81-20.24,18.24-34.15,42.77-51.29,64.23s-40.53,41.25-65.26,41.53c-12,.13-23.23-4.37-35.3-2.63-25.12,3.61-42.67,31.2-56.37,55.19s-33.06,51.09-58,52c-6.73.25-13.19-1.57-20-.79-16.3,1.88-29.37,17.64-40.05,32.08q-58.74,79.43-112.22,162.58c-2.82,4.39-5.75,9.14-5.91,14.1-.19,6.38,4.2,11.1,8.32,15.15l31.24,30.72c5.62,5.52,11.66,11.26,19.66,12.38,8.65,1.22,17.79-3.19,26.26-7.57q56-29,110-63.08c22.19-14,45.6-30.45,56.26-55,5.59-12.83,7.14-26.88,13.55-39.39,23.86-46.54,91.39-39.91,127.34-77.89,23.17-24.47,28-62.36,51.4-86.54,27-27.88,74-32.76,89.74-68.16,5.19-11.7,5.55-24.5,9.87-36.47,13.39-37.07,56.63-51.85,85.56-78.9C2791.78,1323.31,2800.38,1310.34,2796.61,1299.57Z"/><path class="cls-8" d="M2723.64,1350.29c-31,14.71-64.17,31.54-79.25,62.33-3.75,7.66-6.22,15.94-10.57,23.27-21.33,35.94-77.44,35.93-101.67,70-7.38,10.37-11.05,23.06-18.76,33.18-15.28,20.07-42.46,25.8-67.11,31.19s-51.86,13.92-63.58,36.26c-4.64,8.84-6.24,18.9-9.2,28.44a103.92,103.92,0,0,1-54.61,62.55c-10.59,4.94-22,8.07-32.07,14-14.55,8.65-25.07,22.55-35.2,36.11l-44.77,59.88"/><path class="cls-8" d="M2469.51,1507c0,8-1,16.09-4.32,23.33-7.11,15.39-23.89,25.11-29.3,41.18"/><path class="cls-8" d="M2620.7,1376.84c-13.65,15.46-15.5,37.69-22.72,57a104,104,0,0,1-31.85,44.19"/><path class="cls-8" d="M2677.73,1436.43c-17.06,9.81-40,4.46-56.62,15"/><path class="cls-8" d="M2529.73,1583.26c-20.74,13.79-47,15.85-71.88,15.83s-50.45-1.6-74.08,6.26c-.75.24-1.62.65-1.69,1.43s1.48,1,1.34.27"/><path class="cls-8" d="M2328.61,1598.83c-3,17-.82,34.35-.79,51.58s-2.51,35.44-13.23,48.92"/><path class="cls-8" d="M2364.4,1738.87c-3.23,2.48-7.23,3.75-11.19,4.7-27,6.49-55.27.53-83.06-.42-8.12-.28-17.82.76-21.7,7.9"/><path class="cls-3" d="M292.16,823.56c15.8-15.72,43-3.31,58.58,12.64,39.76,40.7,62,103.74,116,121.51,10.64,3.5,22,4.93,32.24,9.4,17.2,7.47,29.85,22.83,38.71,39.36,17.82,33.28,22.4,71.83,33.65,107.86s32.68,72.83,68.49,84.78c17.33,5.78,36.6,5.18,53.06,13.1,34.24,16.49,42.18,60.72,46.81,98.44s15.51,82.17,51.27,95.07c9.64,3.48,20.2,4.13,29.55,8.32,22.52,10.09,31.49,36.79,37.82,60.64q34.82,131.19,59.58,264.77c1.31,7,2.54,14.63-.41,21.17-3.78,8.42-13.18,12.52-21.77,15.88L830.7,1802c-11.7,4.57-24.16,9.23-36.51,7-13.37-2.46-23.86-12.51-33.39-22.19q-63.07-64-119.88-133.88c-23.34-28.69-46.93-61.1-46.81-98.08.07-19.38,6.78-38.43,5.43-57.76-5-71.92-107.55-94.91-135.63-161.32-18.1-42.8-.9-94.49-19.58-137-21.53-49-86.84-77.44-87.11-131-.09-17.7,7.56-34.58,8.9-52.23,4.17-54.65-49.33-94.2-74.18-143.06C284,856.82,279.81,835.86,292.16,823.56Z"/><path class="cls-4" d="M325.29,854.64c53,53,108.24,109.83,126.33,182.61,3.37,13.57,5.41,27.6,11,40.41,16.85,38.42,61.22,57.13,84.62,91.95,24.4,36.31,22.82,85.05,45.5,122.45,21.38,35.27,60.51,54.81,93.67,79.34s63.84,62.8,55,103.09c-4.12,18.71-16.4,35-19.63,53.87-6.21,36.28,21.73,68.68,48.08,94.38,44.83,43.75,93.87,90.93,103,152.9"/><path class="cls-4" d="M578.31,1262.58c-4.41-11-9.34-22.58-19.15-29.16-14.72-9.87-35.75-5.3-50.47-15.16-13.54-9.07-17.2-26.91-24.75-41.35a76.82,76.82,0,0,0-54.41-39.53"/><path class="cls-4" d="M389.8,1012.22c7.79,9.76,21,13,33.1,15.93s25.29,7.19,31.79,17.85"/><path class="cls-4" d="M511.12,1037.27c-.24,39.44,27.83,75.72,24.17,115"/><path class="cls-4" d="M655.91,1350.25a82.14,82.14,0,0,0-62.79-10c-6.06,1.52-12,3.74-18.1,4.87-18.63,3.45-38.69-3.93-51.28-18.09-3.31-3.71-8-8.32-12.38-5.91"/><path class="cls-4" d="M663.67,1235.18c-7.31,22.53-1.18,47.13,7.18,69.28s19.06,44,21.09,67.54"/><path class="cls-5" d="M651.13,669.51c11.8-8.64,26.72,4.57,34.08,18.42C704,723.28,709,771.7,739.57,793c6,4.2,12.75,7,18.42,11.87,9.49,8.09,15.14,21.05,18.3,34.23,6.36,26.55,3.91,54.7,5.88,82.14s10.06,57.06,30.31,71.32c9.81,6.91,21.66,9.58,30.64,17.87,18.68,17.24,17.52,50,15.21,77.55s-1.7,61,18.39,75.88c5.42,4,11.78,6.19,16.93,10.67,12.39,10.81,14.23,31.24,14.85,49.22q3.42,98.91.38,197.92c-.16,5.23-.44,10.81-3.13,15-3.46,5.38-9.76,6.78-15.47,7.79l-43.22,7.63c-7.77,1.37-16,2.67-23.26-.93-7.83-3.91-12.87-12.74-17.38-21.16q-29.82-55.71-55-114.53c-10.36-24.16-20.36-51-15.26-77.3,2.68-13.77,9.37-26.24,11.18-40.2,6.71-52-52.81-84.83-60.93-136.59-5.23-33.35,12.31-67.35,6.69-100.62-6.48-38.35-42.53-69.06-35.4-107.2C660,841,667,830.21,670.22,817.87c10-38.2-17.33-74.94-25.87-113.69C641.64,691.86,641.91,676.27,651.13,669.51Z"/><path class="cls-6" d="M682.59,752.81c17.22,29.72,35.08,62.45,30,96.44-1.25,8.45-3.91,16.69-4.48,25.21-2.79,41.77,43.54,73.62,44.21,115.47.21,12.75-4,25.31-3.34,38,1.23,25.25,20.41,45.41,37.71,63.85s34.91,40.92,31.91,66c-1.19,9.93-5.58,19.14-8.55,28.69a104.1,104.1,0,0,0,9.58,82.64c5.94,10.09,13.61,19.17,18.51,29.79,7.1,15.4,7.89,32.85,8.57,49.8l3,74.84"/><path class="cls-6" d="M803.46,1026.41c-4.54,6.57-8.33,13.84-9.68,21.71-2.87,16.74,5.47,34.29.82,50.63"/><path class="cls-6" d="M752.5,833.15c2.5,20.51-8.59,39.91-13.59,60a104.14,104.14,0,0,0,1.21,54.56"/><path class="cls-6" d="M671.6,850c8.52,17.78,30.49,26.38,38.22,44.52"/><path class="cls-6" d="M710.45,1055.2c9.3,23.15,29.79,39.74,50.36,53.86s42.55,27.32,57.61,47.21c.47.63,1,1.46.57,2.15s-1.8,0-1.25-.54"/><path class="cls-6" d="M867.65,1182.2c-7.17,15.69-18.82,28.82-28.61,43s-18,30.68-16.85,47.9"/><path class="cls-6" d="M758.62,1277.51c1.27,3.88,3.85,7.19,6.58,10.22,18.63,20.71,45.32,31.82,68.8,46.8,6.87,4.38,14.29,10.74,13.44,18.84"/><path class="cls-7" d="M203.39,1262c4.81-13.78,24.56-11.36,38.44-4.12,35.42,18.47,66.91,55.47,104.15,55.71,7.34,0,14.47-1.42,21.87-.65,12.38,1.29,24.35,8.75,34.4,17.81,20.24,18.24,34.15,42.77,51.29,64.23s40.53,41.25,65.26,41.53c12,.13,23.23-4.37,35.3-2.63,25.12,3.61,42.67,31.2,56.37,55.19s33.06,51.09,58,52c6.73.25,13.19-1.57,20-.79,16.3,1.88,29.37,17.64,40,32.08q58.74,79.43,112.22,162.58c2.82,4.39,5.75,9.14,5.91,14.1.19,6.38-4.2,11.1-8.32,15.15l-31.24,30.71c-5.62,5.53-11.66,11.27-19.66,12.39-8.65,1.22-17.79-3.19-26.26-7.57q-56-29-110-63.08c-22.19-14-45.6-30.45-56.26-55-5.59-12.84-7.14-26.88-13.55-39.39-23.86-46.54-91.39-39.91-127.34-77.89-23.17-24.47-28-62.36-51.4-86.55-27-27.87-74-32.76-89.74-68.15-5.18-11.7-5.55-24.51-9.87-36.47-13.39-37.07-56.63-51.85-85.56-78.9C208.22,1285.72,199.62,1272.75,203.39,1262Z"/><path class="cls-8" d="M276.36,1312.7c31,14.71,64.17,31.53,79.25,62.33,3.75,7.66,6.22,15.94,10.57,23.27,21.33,35.94,77.44,35.93,101.67,70,7.38,10.37,11,23.06,18.76,33.18,15.28,20.07,42.46,25.8,67.11,31.19s51.86,13.92,63.58,36.26c4.64,8.84,6.24,18.9,9.2,28.44a103.92,103.92,0,0,0,54.61,62.55c10.59,4.94,22,8.07,32.07,14,14.55,8.65,25.07,22.55,35.2,36.11l44.77,59.88"/><path class="cls-8" d="M530.49,1469.4c0,8,1,16.09,4.32,23.33,7.11,15.39,23.89,25.11,29.3,41.18"/><path class="cls-8" d="M379.3,1339.25c13.65,15.46,15.5,37.68,22.72,57a104,104,0,0,0,31.85,44.19"/><path class="cls-8" d="M322.27,1398.84c17.06,9.81,40,4.46,56.62,15"/><path class="cls-8" d="M470.27,1545.67c20.74,13.79,47,15.85,71.88,15.83s50.45-1.6,74.08,6.26c.75.24,1.62.65,1.69,1.43s-1.48,1-1.34.27"/><path class="cls-8" d="M671.39,1561.24c3,17,.82,34.35.79,51.57s2.51,35.45,13.23,48.93"/><path class="cls-8" d="M635.6,1701.28c3.23,2.48,7.23,3.75,11.19,4.7,27,6.49,55.27.53,83.06-.42,8.12-.28,17.82.76,21.7,7.9"/><line class="cls-9" x1="841.93" y1="1527.09" x2="729.66" y2="1557.25"/><path class="cls-10" d="M1449.4,1357.24s39.16,323.88,45.19,352.5,27.11,140.09,27.11,140.09l-144.61,1.51L1347,1587.72l-10.54-132.56Z"/><path class="cls-11" d="M1033.63,1119.23s-221.06,49-248.17,103.19-71.19,286.78-71.19,286.78l186.26,30L880,1854.35s259.1,54.23,497.11-3L1365,1523h135.57s-40.67-290.36-132.18-360.41c-48.81-37.36-229.35-49.33-229.35-49.33Z"/><path class="cls-10" d="M1028,973.73,1023.44,1136s31.16,70.17,118,42.55,47.71-56.25,47.71-56.25l-3.37-9.68-16.1-106.7Z"/><path class="cls-12" d="M1027.17,1001.81l.64-23.22,42.84,4.82,41.77,9.48,61.4,37.5,8.39,50.28C1154.06,1099.2,1044.5,1107.56,1027.17,1001.81Z"/><path class="cls-10" d="M1229.08,831.69c9.49,71.27,10.75,215.9-59.77,229.85-74.21,14.67-119.61-18-145.35-84.57,0,0-34,21.67-42.67-29.05-3.82-22.37,23.46-16.15,23.46-16.15s-69.79-148.7,38.3-197.42C1123.26,698.2,1216.1,734.13,1229.08,831.69Z"/><path class="cls-13" d="M1107.1,874.51c2.32.73,4.67,1.62,7,1.53a5.82,5.82,0,0,0,5.51-3.94c1.2-3.72-1.22-8.29-4.1-10.86-5.8-5.16-13.14-5.47-19.9-5.36-6.92.12-13.9.47-20.32,3a26.14,26.14,0,0,0-15.17,14.72,4.92,4.92,0,0,0-.43,2.87,3.13,3.13,0,0,0,2.81,2.39,6.54,6.54,0,0,0,3.27-1.07A53.84,53.84,0,0,1,1107.1,874.51Z"/><path class="cls-13" d="M1176.05,869.78c-1.86,1.25-3.71,2.65-5.74,3.1a4.92,4.92,0,0,1-5.55-2.58c-1.78-3.35-.61-8.36,1.37-11.51,4-6.34,10.25-8.33,16.11-9.76s12.1-2.72,18.14-1.76a22.78,22.78,0,0,1,16,10.86,5.28,5.28,0,0,1,1,2.7,3.14,3.14,0,0,1-2,3,5.24,5.24,0,0,1-3-.3C1200.25,860,1187.31,862.24,1176.05,869.78Z"/><path class="cls-14" d="M1147.39,968.92c1.78-2.84,5.41-3.7,9.26-4.6a45,45,0,0,0,4.54-1.22,21.61,21.61,0,0,0,9.93-7,6.87,6.87,0,0,0,1.32-2.39c.63-2.32-.65-4.52-1.43-5.83-8.4-14.33-17.08-29.14-17.76-45.44l-3,.13c.72,17,9.59,32.18,18.18,46.82.72,1.23,1.4,2.51,1.12,3.53a4.21,4.21,0,0,1-.79,1.33,18.5,18.5,0,0,1-8.53,6c-1.36.46-2.81.8-4.27,1.14-4.27,1-8.68,2-11.11,5.94Z"/><ellipse class="cls-14" cx="1191.98" cy="898.07" rx="11.31" ry="22.02" transform="translate(-99.93 150.86) rotate(-6.95)"/><path class="cls-14" d="M1105.84,905.23c-1.47-12.07-7.69-21.24-13.89-20.48s-10,11.15-8.55,23.22,7.69,21.24,13.88,20.49S1107.31,917.3,1105.84,905.23Z"/><path class="cls-15" d="M1195.25,977.82s-44.33,18.95-90.69,13.46c0,0,22.78,32.15,51.94,26.24S1195.25,977.82,1195.25,977.82Z"/><path class="cls-16" d="M1004.75,931.77l14,6.51s30.5-84.17,33.89-146.87l-65-6.22S960.24,833.19,1004.75,931.77Z"/><path class="cls-16" d="M1089.13,790.81c-7.54-2.45-16.12-4.73-23.05-.89-3.67,2-6.28,5.51-9.49,8.2-13.52,11.33-33.72,6.8-50.59,1.67-4.12-1.25-8.34-2.56-11.73-5.22-6.33-5-8.5-13.67-8.26-21.71.66-21.89,16.24-41.12,35.12-52.2S1062,705.19,1083.46,701L1155,686.93c3.88-.76,8-1.51,11.7-.21s6.77,5.46,5.4,9.16a41.76,41.76,0,0,1-20.52,13.22l43.62,6.22c26.8,3.81,56.34,9.15,73,30.49,3.39,4.34,6.12,10.42,3.32,15.15-5.42,9.16-20.45.38-30,5a53.33,53.33,0,0,1,32.18,38.31c.58,2.84.86,6-.73,8.41s-4.4,3.34-7.07,4.12C1207.75,833.62,1146.72,809.51,1089.13,790.81Z"/><path class="cls-17" d="M2009.6,761a191.87,191.87,0,0,1,100.15,66.21c14,17.8,24.69,38,38.32,56s31.11,34.52,52.92,40.55c15.13,4.18,31.12,3,46.8,3.77a198.19,198.19,0,0,1,115.05,43.81c11.87,9.63,23,21.27,27.41,35.9,8.16,26.89-8.08,55-7.93,83.13,0,5.88.82,11.88,3.44,17.14,3.61,7.26,10.28,12.42,16.65,17.44,15.89,12.52,32,26.76,38.13,46,6.05,18.87,1.44,39.86-8,57.27s-58,112.72-183.32,68.83"/><path class="cls-18" d="M2371.24,1019.57c3.87,30.32-19.51,62.13-6.88,90,9.11,20.08,33.31,28.59,46.55,46.23,11.77,15.67,13.42,37.6,6.66,56s-21.09,33.36-37.83,43.57c-20.79,12.68-46.19,18.54-70,13.6-33.54-7-60.31-33.74-93.8-40.94-40.67-8.75-80.79,12.74-119.91,26.89-47.17,17.07-99.86,23.75-147.48,8s-88.46-57.36-93.57-107.27c-1.91-18.63,1-37.37,2.15-56.07a288.43,288.43,0,0,0-5-73.19c-4.84-24.42-12.83-48.14-17.33-72.62-11-59.8,2.17-127.55,47.88-167.65,46-40.4,120.93-42.9,169.56-5.65,26.41,20.23,44.34,49.54,58.72,79.54,13.29,27.7,25.75,58.55,52.22,74.15,39.31,23.15,90.46,2.31,134.56,14,17.88,4.74,34.06,14.81,47.62,27.41C2358.07,987.33,2369,1002.31,2371.24,1019.57Z"/><path class="cls-19" d="M1969.1,1147.91s-122.3,62.4-147.26,84.86-77.37,341.94-77.37,341.94l104.82,239.61s159.74,57.41,429.31-42.43l-2.5-164.73s37.44-25,37.44-122.3-29.95-282-102.33-314.49S2009,1130.44,2009,1130.44Z"/><path class="cls-20" d="M1958.32,1062.43s10.75,86,1.59,90.5a142.37,142.37,0,0,0-18.75,11.51s51.46,81,142.44-11.15c0,0-13.58-3.67-21.5-23.06s-19.84-94.52-19.84-94.52Z"/><path class="cls-21" d="M1961.38,1091.49c-1.44-16.11-3.06-29.06-3.06-29.06l80.7-45.25s5,29.45,7.55,44C2014.74,1091.79,1977.25,1092.74,1961.38,1091.49Z"/><path class="cls-20" d="M1845.89,901.48c16.23,128.66,86.32,179,115.36,175,37.48-5.09,95.39-47.75,97.69-106.92,0,0,45.19-10.74,42.78-36.39-4.43-47.24-34.79-15-34.79-15s38.63-115-88.88-150.54C1943.54,758,1830.32,778.14,1845.89,901.48Z"/><path class="cls-18" d="M1990.81,888c-2.1-2.54-8.89-1.81-12-2a61.24,61.24,0,0,0-19.22,1.78,122.09,122.09,0,0,0-14.35,4.82c-3.16,1.24-8.52,4.1-12,2.3-2.15-1.11-2.49-3.93-1.32-5.91,2.7-4.57,11.13-6.65,16.23-8.14C1963,876.47,1980.62,875.57,1990.81,888Z"/><path class="cls-18" d="M1849.27,919.18c.51-3.07,5.93-4.88,8.22-6.21a42.91,42.91,0,0,1,15.23-5.4,90.14,90.14,0,0,1,12.84-.89c2.9,0,8.15.61,10-2.29,1.15-1.8.21-4.48-1.5-5.84-4-3.15-11.19-2-15.67-1.44C1865.32,898.61,1851.7,904.22,1849.27,919.18Z"/><ellipse class="cls-21" cx="1985.1" cy="951" rx="23.62" ry="11.51" transform="translate(-159.04 453.3) rotate(-12.53)"/><path class="cls-21" d="M1904.91,967.68c-1.29-5.79-10.53-8.67-20.64-6.43s-17.25,8.77-16,14.57,10.54,8.68,20.64,6.43S1906.2,973.48,1904.91,967.68Z"/><path class="cls-14" d="M1938.41,981.9c-8.77,2-16.88-5.38-17.23-5.7a1.79,1.79,0,0,1-.54-1.69c6.07-28.53-4.77-55.88-4.88-56.15a1.78,1.78,0,0,1,1-2.33,1.83,1.83,0,0,1,2.33,1c.45,1.14,11.09,28,5.28,57.17,2,1.58,7.66,5.45,13.27,4.21l.6-.15a1.79,1.79,0,0,1,.87,3.48Z"/><ellipse class="cls-14" cx="1968.18" cy="919.32" rx="12.39" ry="19.5" transform="translate(-118.36 314.97) rotate(-8.88)"/><ellipse class="cls-14" cx="1876.65" cy="934.55" rx="12.39" ry="19.5" transform="translate(-121.81 301.01) rotate(-8.88)"/><path class="cls-21" d="M1978.07,1001.12l-28.58-7.82-6.94,9.84-10.33-4.92-14.56,20.66s16.09,27.6,38,22.3C1981.09,1035.06,1978.07,1001.12,1978.07,1001.12Z"/><path class="cls-15" d="M1978.07,1001.12l-60.41,17.76S1958,1051.93,1978.07,1001.12Z"/><path class="cls-18" d="M1844.37,908.07s25.8-54.51,63.51-81.09c0,0,135.53,93.94,150.32,94.47,0,0,8,.73,16.25-14s11.37-121-68.18-143.19S1821.32,799.78,1844.37,908.07Z"/><path class="cls-22" d="M2276.1,1607.16s-129.79,90.48-184.08,28.39-53-112-53-112-17.48-61.15,121-76.13"/><path class="cls-11" d="M1796.21,1310.39a35.09,35.09,0,0,1,4.38,4.49c7.25,9,9.32,19.23,11.15,28.28.43,2.12.85,4.23,1.35,6.3,1.76,7.19,4.94,10.55,6.25,10.7,2.42-.75,7.4-9.18,10.08-13.7,7.18-12.14,16.12-27.26,33.91-30.15,21.37-3.45,38.12,14.57,44.65,32.81,1.34,3.76,2.46,7.66,3.56,11.57,2.23,7.82,4.33,15.21,8.36,19.67,5.27,5.81,16.23,6.45,22.13,1.31,2.86-2.49,5.41-6.52,8.11-10.79,2-3.14,4-6.39,6.56-9.65,11-14.19,26.91-20.38,40.74-15.75,6.51,2.19,12.22,6.59,17,13.07,6.46,8.83,9.24,18.71,11.7,27.42,1,3.37,1.89,6.74,3.09,10,2.55,7,7.34,12.65,10.7,12.65h.1c4.62-.14,10.11-9.57,15-17.88,8.23-14.13,19.35-33.47,42.21-31.63,22.2,1.81,31.95,23.29,37.78,36.13,4.23,9.31,9.49,13.47,11,13.53,1.78-.49,4.49-8.1,5.94-12.18,2-5.63,4.29-12,8.06-17.8,7-10.72,18.84-17.59,32.56-18.86s26.66,3.31,35.48,12.57c9,9.48,12.32,21.13,15.23,31.41.8,2.85,1.6,5.7,2.53,8.45,2.67,7.8,7.8,13.36,10.5,13.08,3-.27,7.32-7.36,9.44-18.74,2.78-14.94,7-37.52,27.37-46.09a34.53,34.53,0,0,1,9.15-2.3c1.76,9.94,3.34,19.87,4.71,29.68a5.67,5.67,0,0,0-2.26.23c-5.5,2.31-7.92,15.34-9.53,24-4.78,25.72-18,41.43-36.15,43.1-1,.09-2,.14-3,.14-16.63,0-31.56-12.78-38.58-33.38-1.11-3.25-2.07-6.61-3-10-2.14-7.6-4.17-14.79-8.07-18.88-2.44-2.56-6.58-3.83-11.05-3.42s-8.29,2.43-10.22,5.39-3.35,7-4.95,11.51c-4,11.1-9.37,26.3-26.09,31-18,5-35.64-6.51-46.31-30-2.48-5.47-8.3-18.28-13-18.66-4,0-9.42,9.21-13.88,16.86-7.89,13.53-18.68,32.06-39.88,32.74-16.85.51-32.53-12.15-39.89-32.3-1.45-4-2.62-8.06-3.78-12.16-1.94-6.89-3.78-13.4-7-17.87a8.78,8.78,0,0,0-2.25-2.33c-.86-.17-4.36,1.46-7.58,5.63-1.79,2.33-3.36,4.86-5,7.36-3.56,5.63-7.6,12-13.77,17.38-18,15.68-47.91,13.92-64-3.8-8.74-9.65-12-21.31-15-31.6-.92-3.27-1.84-6.53-3-9.67-2.9-8.11-8.76-13.77-11.63-13.33-4,.65-8.94,9.07-12.94,15.83-7.3,12.34-18.44,31-40.09,28.14-13.92-1.83-24.92-12.93-30.06-29.83C1788.76,1342.57,1792.51,1325.77,1796.21,1310.39Z"/><circle class="cls-23" cx="1483.64" cy="1150.25" r="20.59" transform="translate(-224.58 371.64) rotate(-13.28)"/><polygon class="cls-24" points="1283.34 1288.31 1289.89 1214.36 1731.67 1219.04 1729.8 1307.03 1283.34 1288.31"/><polygon class="cls-23" points="1602.04 1200.79 1528.18 1200.79 1479.29 1159.73 1488.93 1148.26 1533.63 1185.82 1602.04 1185.82 1602.04 1200.79"/><path class="cls-23" d="M1266.27,1307h32.9v-75.68H1720.3V1307h32.9V1214.9a16.45,16.45,0,0,0-16.45-16.45h-454a16.45,16.45,0,0,0-16.45,16.45Z"/><rect class="cls-7" x="1483.49" y="1000.28" width="371.4" height="161.32" transform="translate(-94.33 1999.96) rotate(-60.45)"/><rect class="cls-3" x="1496.68" y="1012.38" width="345.14" height="138.81" transform="translate(-95.04 2000.44) rotate(-60.45)"/><circle class="cls-7" cx="1671" cy="1079.4" r="65.77" transform="translate(233.5 2454.52) rotate(-76.59)"/><path class="cls-7" d="M1621.14,1164.74a16.41,16.41,0,1,0,6.18,22.38A16.41,16.41,0,0,0,1621.14,1164.74Z"/><path class="cls-7" d="M1734.92,964a16.41,16.41,0,1,0,6.18,22.37A16.41,16.41,0,0,0,1734.92,964Z"/><path class="cls-5" d="M1694.66,1082.41a13.92,13.92,0,0,0-8.22-2.16q-3.7.4-9.08,3.82-10.17,8.29-18.29,10.36t-17.91-3.47q-8.88-5-11.71-13.36t1.1-17.64l-11.22-6.35,4.36-7.71,11.44,6.47a23.1,23.1,0,0,1,14.92-8.87q8.81-1.29,18.75,4.33l-8.46,15q-5.89-3.35-10.21-3.11a7.23,7.23,0,0,0-6.32,3.79q-2.11,3.72-.34,6.86a15.78,15.78,0,0,0,6.23,5.68,12.82,12.82,0,0,0,7.67,2q3.53-.39,9.37-3.9,9.67-8.15,18.12-10.17t18.18,3.48q9.15,5.17,11.81,13.31t-1.27,17.44l10.53,6-4.39,7.76-10.48-5.93a26.83,26.83,0,0,1-15.14,10.75q-9.06,2.37-20.27-4.25l-.21-.26,8.25-14.57q7,3.95,11.37,3.11a9.7,9.7,0,0,0,6.82-5.1c1.48-2.62,1.69-5.06.62-7.3A13.93,13.93,0,0,0,1694.66,1082.41Z"/><rect class="cls-7" x="1243.87" y="1184.4" width="371.4" height="161.32" transform="translate(823.31 3075.16) rotate(-112.99)"/><rect class="cls-3" x="1257.71" y="1196.12" width="345.14" height="138.81" transform="translate(823.86 3076.46) rotate(-112.99)"/><circle class="cls-7" cx="1429.46" cy="1262.68" r="65.77" transform="translate(-402.99 733.67) rotate(-25.35)"/><path class="cls-7" d="M1466.87,1354.17a16.41,16.41,0,1,0,21.52,8.7A16.41,16.41,0,0,0,1466.87,1354.17Z"/><path class="cls-7" d="M1376.76,1141.77a16.41,16.41,0,1,0,21.52,8.7A16.41,16.41,0,0,0,1376.76,1141.77Z"/><path class="cls-5" d="M1446.24,1245.73q-4.79,2-6.72,5.21t-2.49,9.53q.39,13.11-2.9,20.82t-13.65,12.11q-9.39,4-17.73,1.16t-13.33-11.6l-11.87,5-3.46-8.16,12.09-5.14a23,23,0,0,1,2-17.23q4.32-7.79,14.84-12.25l6.72,15.8q-6.24,2.65-8.68,6.21a7.28,7.28,0,0,0-.84,7.33c1.12,2.62,2.87,4.11,5.25,4.44a15.84,15.84,0,0,0,8.29-1.49,12.8,12.8,0,0,0,6.22-4.91q1.83-3,2.6-9.8-.58-12.63,2.94-20.57t13.83-12.32q9.67-4.11,17.75-1.27t13.07,11.61l11.13-4.73,3.49,8.21-11.08,4.71a26.81,26.81,0,0,1-.68,18.55q-3.63,8.64-15.7,13.51H1457l-6.55-15.41q7.37-3.13,9.38-7.14a9.69,9.69,0,0,0,.1-8.51c-1.18-2.78-3-4.42-5.41-4.94A14,14,0,0,0,1446.24,1245.73Z"/><polygon class="cls-13" points="1255.26 1359.44 1259.01 1290.18 1753.2 1284.56 1756.94 1372.54 1255.26 1359.44"/><path class="cls-2" d="M1230.93,1389.39h37.44v-86.11h479.22v86.11H1785V1284.56a18.72,18.72,0,0,0-18.72-18.72H1249.65a18.72,18.72,0,0,0-18.72,18.72Z"/><path class="cls-13" d="M1272.11,1340.72s-134.78,98.72-134.78,249.7,84.86,177.11,396.85,177.11,346.94-34.85,346.94-185.82c0-168.4-149.76-238.09-149.76-238.09Z"/><polygon class="cls-2" points="1404.08 1266.78 1477.94 1266.78 1526.83 1225.71 1517.2 1214.25 1472.49 1251.8 1404.08 1251.8 1404.08 1266.78"/><circle class="cls-2" cx="1522.48" cy="1216.24" r="20.59" transform="translate(-414.08 1432.79) rotate(-45)"/><path class="cls-22" d="M2123.85,1451.17s10-116.07,8.73-146"/><path class="cls-20" d="M2117.71,1612.29s7.72-88.13-25.91-116l-322.94,62.92s-33.72-8.6-69.34,26.38-58.52,69.36-51.11,70.49,48.32-35.57,48.32-35.57S1678.05,1677,1673,1679.1s-54.84,18.17-55,25.71S1658,1709,1658,1709s-28,22.25-24.07,27.58,20.92-.6,20.92-.6-9.46,6.13-6.74,13.17,85.13-30.6,88.95-43.27,44.33-86,44.33-86Z"/><path class="cls-10" d="M1202.17,1601.32s-351.06,259.39-427.81,198.85-44.18-287.7-44.18-287.7l175.23,24.08-1.5,85.86L1166,1539.56Z"/><path class="cls-10" d="M1144.65,1548.44s50.48-55.68,86.9-63.31,95.66-25.29,94.87-12.8-71.23,38-56.73,43.35,54.37,18,70.31,15.17,43.3-14.85,50.27-6.61-13.36,20.11-13.36,20.11,20-2.1,21.95,10.87-47.77,32.3-53.22,31.35,45.59-3.81,46.27,10.61c.94,19.65-59.9,11.23-69.87,11.9-73,4.93-150.28,8.68-150.28,8.68Z"/><path class="cls-10" d="M1176.64,1619.64s174.09,23.4,187.2,12.17-38.38-13.1-50.55-24.34S1183.19,1604.67,1176.64,1619.64Z"/><polyline class="cls-25" points="905.41 1536.55 922.99 1537.28 939.84 1361.31"/><circle class="cls-16" cx="1566.92" cy="848.31" r="53.5" transform="matrix(0.96, -0.29, 0.29, 0.96, -176.81, 481.87)"/><circle class="cls-26" cx="1566.92" cy="848.31" r="41.58" transform="translate(-162.46 419.24) rotate(-14.5)"/><g class="cls-27"><path class="cls-2" d="M1566.87,864a7,7,0,0,0,1-5.24,17.73,17.73,0,0,0-3.63-6.39q-5.94-6.9-7.55-12.34t2-11.45a14.18,14.18,0,0,1,9-7q5.68-1.41,12.19,1.61l4.17-7,5.22,3.1-4.22,7.13a16.92,16.92,0,0,1,6.52,10.11q1.1,5.78-2.6,11.8l-.17.12-9.36-5.55a9.65,9.65,0,0,0,1.64-6.47,6.55,6.55,0,0,0-3.41-4.62c-2.06-1.22-3.87-1.56-5.42-1a7.48,7.48,0,0,0-4,3.52,6.47,6.47,0,0,0-.94,4.91q.57,2.37,3.67,6.57,5.9,6.69,7.47,12.27t-2,11.55q-3.39,5.71-9,7c-3.74.88-7.78.3-12.15-1.72l-3.84,6.47-5.22-3.1,3.84-6.47a20.25,20.25,0,0,1-7.88-10.34q-1.9-6,2.4-13l.21-.13,9.33,5.53c-1.66,2.8-2.16,5.21-1.5,7.21a9.1,9.1,0,0,0,4.28,5q3.21,1.91,5.76,1.29A6.71,6.71,0,0,0,1566.87,864Z"/></g><circle class="cls-16" cx="1419.96" cy="629.45" r="53.5" transform="translate(-29.19 1188.43) rotate(-45)"/><circle class="cls-26" cx="1419.96" cy="629.45" r="41.58" transform="translate(334.28 1740.22) rotate(-69.56)"/><g class="cls-27"><path class="cls-2" d="M1419.91,645.14a6.94,6.94,0,0,0,1-5.23q-.57-2.55-3.62-6.39-5.94-6.9-7.55-12.35t2-11.45a14.22,14.22,0,0,1,9-7c3.78-.93,7.84-.4,12.19,1.62l4.17-7,5.22,3.1-4.23,7.12a16.94,16.94,0,0,1,6.53,10.11q1.1,5.79-2.61,11.8l-.16.13-9.36-5.55c1.41-2.39,2-4.55,1.63-6.47a6.55,6.55,0,0,0-3.4-4.62q-3.09-1.83-5.43-1a7.54,7.54,0,0,0-4,3.51,6.47,6.47,0,0,0-.93,4.91c.37,1.59,1.6,3.78,3.67,6.58q5.88,6.69,7.46,12.26t-2,11.56a14.09,14.09,0,0,1-9,7q-5.6,1.32-12.14-1.72l-3.84,6.47-5.23-3.1,3.84-6.47a20.15,20.15,0,0,1-7.87-10.33q-1.9-6,2.39-13l.22-.14,9.33,5.53c-1.67,2.81-2.17,5.21-1.51,7.22a9.12,9.12,0,0,0,4.28,5q3.23,1.9,5.76,1.29A6.63,6.63,0,0,0,1419.91,645.14Z"/></g><circle class="cls-16" cx="1660.74" cy="630.58" r="32.38" transform="translate(-57.64 1080.97) rotate(-35.48)"/><circle class="cls-28" cx="1660.74" cy="630.58" r="25.17" transform="translate(-70.98 234.57) rotate(-7.91)"/><g class="cls-27"><path class="cls-2" d="M1670.07,632.36a4.25,4.25,0,0,0-3-1.19,10.73,10.73,0,0,0-4.21,1.44,21.49,21.49,0,0,1-8.19,3.11,8.49,8.49,0,0,1-6.59-2.44,8.59,8.59,0,0,1-3.13-6.11,11,11,0,0,1,2.32-7.07l-3.71-3.27,2.42-2.76,3.77,3.31a10.24,10.24,0,0,1,6.74-2.75,9.9,9.9,0,0,1,6.73,2.87l.06.11-4.36,4.95a5.81,5.81,0,0,0-3.66-1.7,4.67,4.67,0,0,0-4.35,4.62,4.55,4.55,0,0,0,1.65,2.75,3.91,3.91,0,0,0,2.81,1.1,12.52,12.52,0,0,0,4.32-1.45,20.14,20.14,0,0,1,8.13-3.06,8.69,8.69,0,0,1,6.65,2.46,8.49,8.49,0,0,1,3.18,6.13,11.17,11.17,0,0,1-2.38,7l3.42,3-2.43,2.76-3.42-3a12.29,12.29,0,0,1-7,3.53c-2.53.3-5-.66-7.45-2.89l-.06-.14,4.33-4.93c1.48,1.31,2.86,1.87,4.12,1.7a5.49,5.49,0,0,0,3.43-2,4.66,4.66,0,0,0,1.41-3.29A4,4,0,0,0,1670.07,632.36Z"/></g><circle class="cls-16" cx="1744.64" cy="825.68" r="32.38" transform="translate(4.55 1660.9) rotate(-50.97)"/><circle class="cls-28" cx="1744.64" cy="825.68" r="25.17" transform="translate(882.45 2552.57) rotate(-88.79)"/><g class="cls-27"><path class="cls-2" d="M1754,827.46a4.25,4.25,0,0,0-3-1.19,10.78,10.78,0,0,0-4.21,1.44,21.51,21.51,0,0,1-8.18,3.11,8.5,8.5,0,0,1-6.6-2.44,8.59,8.59,0,0,1-3.13-6.11,11,11,0,0,1,2.32-7.07l-3.71-3.27,2.43-2.76,3.76,3.31a10.23,10.23,0,0,1,6.75-2.74,9.81,9.81,0,0,1,6.72,2.87l.06.11-4.35,4.94a5.87,5.87,0,0,0-3.66-1.7,4.69,4.69,0,0,0-4.36,4.62,4.55,4.55,0,0,0,1.65,2.75,3.91,3.91,0,0,0,2.81,1.1,12.45,12.45,0,0,0,4.32-1.44,20.12,20.12,0,0,1,8.14-3.07,8.7,8.7,0,0,1,6.65,2.46,8.57,8.57,0,0,1,3.18,6.14,11.16,11.16,0,0,1-2.39,7l3.42,3-2.43,2.76-3.42-3a12.23,12.23,0,0,1-7,3.53q-3.81.45-7.46-2.88l-.06-.15,4.34-4.93c1.48,1.31,2.85,1.87,4.12,1.71a5.53,5.53,0,0,0,3.42-2,4.72,4.72,0,0,0,1.42-3.29A4.08,4.08,0,0,0,1754,827.46Z"/></g><rect class="cls-15" x="597.37" y="1779.44" width="1940.78" height="108.28" transform="translate(3135.52 3667.17) rotate(180)"/><line class="cls-29" x1="2360.45" y1="1782.22" x2="708.43" y2="1782.22"/></g></g></svg>