<?xml version="1.0" encoding="utf-8"?>
<!-- Generator: Adobe Illustrator 21.0.0, SVG Export Plug-In . SVG Version: 6.00 Build 0)  -->
<svg version="1.1" id="Design__x26__Development" xmlns="http://www.w3.org/2000/svg" xmlns:xlink="http://www.w3.org/1999/xlink"
	 x="0px" y="0px" viewBox="0 0 600 400" enable-background="new 0 0 600 400" xml:space="preserve">
<g>
	<path id="background_3_" fill-rule="evenodd" clip-rule="evenodd" fill="#F6F2F1" d="M536.37,345.513l-474.945,0.34
		c0,0-3.949-31.426,19.326-40.938s24.448,16.947,69.057-26.217c44.609-43.164,18.974-102.759,71.705-115.81
		c52.731-13.05,96.305,41.477,128.008,16.571c31.703-24.906-2.223-93.757,61.619-91.624c63.842,2.133,39.229,117.08,87.34,128.867
		C546.591,228.49,536.37,345.513,536.37,345.513z"/>
	<g id="screen">
		<g>
			<path fill="#D7E1F2" d="M116.784,326.036h389.468c7.567,0,13.702-6.135,13.702-13.702V64.501c0-7.568-6.135-13.702-13.702-13.702
				H116.784c-7.568,0-13.702,6.135-13.702,13.702v247.832C103.081,319.901,109.216,326.036,116.784,326.036z"/>
			<path fill="#6696F8" d="M116.598,50.494h389.89c7.631,0,13.817,6.186,13.817,13.817v27.42H102.781v-27.42
				C102.781,56.68,108.967,50.494,116.598,50.494z"/>
		</g>
		<g>
			<path fill="#6696F8" d="M486.964,302.503h-58.435c-5.432,0-9.835-4.404-9.835-9.835V116.74c0-5.432,4.403-9.835,9.835-9.835
				h58.435c5.432,0,9.835,4.404,9.835,9.835v175.927C496.799,298.099,492.396,302.503,486.964,302.503z"/>
			<rect x="430.017" y="118.321" fill="#FFFFFF" width="55.565" height="46.696"/>
			<rect x="430.017" y="204.668" fill="#FFFFFF" width="55.565" height="46.696"/>
			<rect x="430.017" y="172.32" fill="#FFFFFF" width="55.565" height="4.696"/>
			<rect x="430.017" y="258.668" fill="#FFFFFF" width="55.565" height="4.696"/>
			<rect x="430.017" y="269.103" fill="#FFFFFF" width="55.565" height="4.696"/>
			<rect x="430.017" y="182.494" fill="#FFFFFF" width="45.391" height="4.696"/>
			<rect x="430.017" y="279.538" fill="#FFFFFF" width="45.391" height="4.696"/>
		</g>
		<g>
			<path fill="#6696F8" d="M186.195,309.664h-64.566c-3.739,0-6.77-3.031-6.77-6.77v-79.127c0-3.739,3.031-6.77,6.77-6.77h64.566
				c3.739,0,6.77,3.031,6.77,6.77v79.127C192.964,306.634,189.934,309.664,186.195,309.664z"/>
			<rect x="126.182" y="228.414" fill="#FFFFFF" width="55.565" height="46.696"/>
			<rect x="126.182" y="282.414" fill="#FFFFFF" width="55.565" height="4.696"/>
			<rect x="126.182" y="292.588" fill="#FFFFFF" width="45.391" height="4.696"/>
		</g>
		<path fill="#609119" d="M356.049,176.631h-93.817c-21.421,0-38.787-17.365-38.787-38.787v0c0-21.422,17.366-38.787,38.787-38.787
			h93.817c21.421,0,38.787,17.366,38.787,38.787v0C394.836,159.266,377.47,176.631,356.049,176.631z"/>
		<g>
			<path fill="#0A0909" d="M126.624,124.36c-10.414,0.001-18.421-5.347-21.718-11.9c-3.445,0.424-8.283-0.232-14.984-3.33
				c-0.125-0.058-0.18-0.206-0.122-0.331c0.059-0.126,0.207-0.181,0.332-0.122c6.482,2.996,11.177,3.632,14.519,3.252
				c-0.083-0.18-0.162-0.359-0.237-0.541c-1.979-4.748-0.986-8.972,2.593-11.023c2.234-1.279,4.248-1.188,5.526,0.25
				c1.474,1.659,1.713,5.105-0.437,8.001c-0.928,1.25-2.921,3.163-6.667,3.77c4.159,8.066,15.665,14.2,29.972,10.244
				c3.773-1.042,6.709-2.34,8.993-3.73c-3.312-2.031-5.26-5.895-5.092-10.109c0.146-3.654,1.914-6.754,4.613-8.091
				c2.23-1.106,4.525-0.966,6.298,0.384c2.156,1.642,3.146,4.788,2.523,8.017c-0.394,2.043-1.871,6.165-7.367,9.772
				c3.461,1.751,9.537,2.347,19.509-3.516c25.085-14.743,24.967-44.978,24.963-45.281c-0.002-0.138,0.108-0.251,0.247-0.253
				c0.001,0,0.002,0,0.003,0c0.137,0,0.248,0.109,0.25,0.247c0.004,0.306,0.123,30.83-25.21,45.719
				c-10.412,6.12-16.715,5.306-20.248,3.395c-2.355,1.47-5.404,2.84-9.351,3.93C132.42,123.97,129.433,124.36,126.624,124.36z
				 M146.898,100.449c-0.89,0-1.822,0.231-2.761,0.696c-2.536,1.256-4.197,4.192-4.335,7.664c-0.163,4.069,1.73,7.792,4.939,9.715
				c0.043,0.025,0.086,0.051,0.13,0.076c5.524-3.537,6.989-7.597,7.375-9.597c0.587-3.043-0.33-5.996-2.336-7.524
				C149.009,100.794,147.984,100.449,146.898,100.449z M109.939,99.971c-0.81,0-1.721,0.274-2.684,0.826
				c-3.343,1.916-4.256,5.9-2.381,10.397c0.093,0.223,0.191,0.444,0.295,0.664c3.891-0.588,5.807-2.575,6.524-3.542
				c1.999-2.691,1.806-5.861,0.465-7.371C111.582,100.297,110.821,99.971,109.939,99.971z"/>
		</g>
		<g>
			<circle fill="#0A0909" cx="312.907" cy="137.673" r="26.558"/>
			<circle fill="#FCB925" cx="307.522" cy="137.673" r="26.558"/>
			<circle fill="#FE891E" cx="307.522" cy="137.673" r="22.555"/>
			<path fill="#0A0909" d="M287.881,137.673c0-11.967,9.321-21.751,21.098-22.503c-0.482-0.031-0.967-0.052-1.457-0.052
				c-12.456,0-22.555,10.098-22.555,22.555c0,12.456,10.098,22.555,22.555,22.555c0.49,0,0.975-0.021,1.457-0.052
				C297.202,159.424,287.881,149.64,287.881,137.673z"/>
			<g>
				<path fill="#FCB925" d="M313.316,137.135h-1.328c3.628,0,6.569-2.941,6.569-6.569l0,0c0-3.628-2.941-6.569-6.569-6.569h-10.876
					v13.138v14.742h12.204c4.071,0,7.371-3.3,7.371-7.371v0C320.687,140.435,317.387,137.135,313.316,137.135z M304.881,127.586
					h5.944c1.982,0,3.59,1.607,3.59,3.59l0,0c0,1.982-1.607,3.59-3.59,3.59h-5.944V127.586z M315.997,143.619
					c0,2.273-1.842,4.115-4.115,4.115h-6.814v-8.23h6.814C314.154,139.504,315.997,141.346,315.997,143.619L315.997,143.619z"/>
				<rect x="296.302" y="123.997" fill="#FCB925" width="4.81" height="3.59"/>
				<rect x="296.302" y="148.287" fill="#FCB925" width="4.81" height="3.59"/>
				<rect x="303.517" y="120.264" fill="#FCB925" width="3.231" height="4.523"/>
				<rect x="307.948" y="120.264" fill="#FCB925" width="3.231" height="4.523"/>
				<rect x="303.517" y="150.56" fill="#FCB925" width="3.231" height="4.523"/>
				<rect x="307.948" y="150.56" fill="#FCB925" width="3.231" height="4.523"/>
			</g>
		</g>
		<g>
			<circle fill="#CC1111" cx="125.18" cy="70.071" r="5.472"/>
			<circle fill="#FCB925" cx="142.607" cy="70.071" r="5.472"/>
			<circle fill="#609119" cx="160.084" cy="70.071" r="5.472"/>
		</g>
	</g>
	<rect id="floor_2_" x="17.527" y="344.571" fill="#0A0909" width="564.945" height="2.564"/>
	<g id="plant">
		<g>
			<path fill="#0A0909" d="M528.927,329.124c0,0,7.734-9.771,6.313-15.762c-1.421-5.991-2.674-10.121,1.09-16.771
				c3.764-6.649,4.395-10.303,1.257-15.599c-3.138-5.296-3.737-13.483,1.035-18.849c4.772-5.367-1.477-15.678-1.477-15.678
				s-0.985,11.46-4.995,14.573c-4.009,3.112-9.027,10.132-6.936,15.278c2.091,5.146,3.351,15.833-1.401,21.841
				c-4.752,6.008-7.222,18.761,0.525,29.132L528.927,329.124z"/>
			<path fill="#0A0909" d="M520.038,325.571c0,0-5.592-6.979-3.585-12c2.007-5.02,3.711-10.208-1.321-14.224
				c-5.032-4.016-5.353-8.75-2.587-15.669c2.766-6.919-5.297-7.966-5.199-15.132c0.08-5.866-6.241-10.218-6.241-10.218
				s4.435,5.972,0.259,14.113c-2.843,5.542-2.266,11.667,1.477,15.678s-2.258,13.031-1.404,17.811
				c0.855,4.78,6.435,10.508,4.963,14.19L520.038,325.571z"/>
			<g>
				<path fill="#FFFFFF" d="M526.006,328.067c-0.057,0-0.104-0.043-0.11-0.101c-0.012-0.14-1.15-14.106,3.216-25.392
					c4.247-10.977,3.521-16.581,2.316-25.866l-0.129-1.001c-0.811-6.288,1.335-10.062,3.41-13.711
					c1.243-2.186,2.417-4.251,2.98-6.808c0.012-0.06,0.07-0.104,0.131-0.084c0.06,0.013,0.098,0.071,0.084,0.131
					c-0.57,2.59-1.752,4.669-3.004,6.87c-2.057,3.617-4.184,7.358-3.383,13.574l0.13,1c1.208,9.319,1.937,14.945-2.331,25.975
					c-4.348,11.237-3.213,25.153-3.2,25.292c0.005,0.061-0.04,0.114-0.101,0.12C526.012,328.067,526.009,328.067,526.006,328.067z"
					/>
			</g>
			<g>
				<path fill="#FFFFFF" d="M513.358,323.012c-0.043,0-0.084-0.025-0.102-0.068c-0.056-0.134-5.525-13.514-5.54-22.848
					c-0.014-9.299-1.191-16.803-2.28-19.841c-0.781-2.177-0.621-5.557-0.493-8.272c0.052-1.109,0.102-2.156,0.08-2.97
					c-0.002-0.061,0.047-0.111,0.107-0.113c0.001,0,0.002,0,0.003,0c0.06,0,0.108,0.048,0.11,0.107
					c0.021,0.821-0.028,1.873-0.08,2.985c-0.128,2.696-0.286,6.053,0.479,8.188c1.096,3.055,2.28,10.59,2.294,19.915
					c0.015,9.291,5.468,22.63,5.522,22.764c0.023,0.057-0.003,0.121-0.06,0.144C513.387,323.009,513.372,323.012,513.358,323.012z"
					/>
			</g>
		</g>
		<polygon fill-rule="evenodd" clip-rule="evenodd" fill="#FEB91E" points="506.558,344.426 532.856,344.426 538.78,317.213 
			501.211,317.213 		"/>
	</g>
	<g id="cart">
		<g>
			
				<ellipse transform="matrix(0.7638 -0.6455 0.6455 0.7638 -103.1718 244.7477)" fill="#0A0909" cx="282.799" cy="263.332" rx="26.558" ry="26.558"/>
			
				<ellipse transform="matrix(0.7638 -0.6455 0.6455 0.7638 -101.3382 241.5337)" fill="#FCB925" cx="279.323" cy="259.219" rx="26.558" ry="26.558"/>
			
				<ellipse transform="matrix(0.7638 -0.6455 0.6455 0.7638 -101.3383 241.5338)" fill="#FE891E" cx="279.323" cy="259.219" rx="22.555" ry="22.555"/>
			<path fill="#0A0909" d="M266.645,244.217c9.14-7.724,22.63-6.921,30.806,1.589c-0.288-0.388-0.584-0.772-0.901-1.146
				c-8.04-9.514-22.271-10.708-31.785-2.668c-9.514,8.041-10.708,22.271-2.668,31.785c0.316,0.374,0.645,0.731,0.98,1.079
				C256.048,265.376,257.505,251.941,266.645,244.217z"/>
			<g>
				<path fill="#FCB925" d="M283.474,263.297l-0.857-1.014c2.342,2.771,6.486,3.119,9.257,0.777l0,0
					c2.771-2.342,3.119-6.486,0.777-9.257l-7.021-8.307l-10.034,8.48l-11.259,9.516l7.878,9.321c2.628,3.109,7.278,3.5,10.388,0.872
					h0C285.712,271.056,286.102,266.406,283.474,263.297z M285.322,250.691l3.836,4.539c1.28,1.514,1.09,3.779-0.425,5.059h0
					c-1.514,1.28-3.779,1.09-5.059-0.425l-3.836-4.539L285.322,250.691z M280.252,269.529c-1.736,1.467-4.332,1.249-5.799-0.487
					l-4.398-5.204l6.286-5.313l4.398,5.204C282.206,265.466,281.988,268.062,280.252,269.529L280.252,269.529z"/>
				
					<rect x="280.303" y="243.022" transform="matrix(0.6455 0.7638 -0.7638 0.6455 287.21 -129.1333)" fill="#FCB925" width="4.81" height="3.59"/>
				
					<rect x="261.75" y="258.701" transform="matrix(0.6455 0.7638 -0.7638 0.6455 292.6077 -109.4052)" fill="#FCB925" width="4.81" height="3.59"/>
				
					<rect x="287.735" y="245.354" transform="matrix(0.6455 0.7638 -0.7638 0.6455 291.6979 -133.2143)" fill="#FCB925" width="3.231" height="4.523"/>
				
					<rect x="290.595" y="248.738" transform="matrix(0.6455 0.7638 -0.7638 0.6455 295.2967 -134.199)" fill="#FCB925" width="3.231" height="4.523"/>
				
					<rect x="264.595" y="264.91" transform="matrix(0.6455 0.7638 -0.7638 0.6455 298.4302 -108.6086)" fill="#FCB925" width="3.231" height="4.523"/>
				
					<rect x="267.455" y="268.294" transform="matrix(0.6455 0.7638 -0.7638 0.6455 302.0296 -109.5932)" fill="#FCB925" width="3.231" height="4.523"/>
			</g>
		</g>
		<g>
			
				<ellipse transform="matrix(0.4342 -0.9008 0.9008 0.4342 -44.0908 448.9513)" fill="#0A0909" cx="335.337" cy="259.574" rx="26.558" ry="26.558"/>
			
				<ellipse transform="matrix(0.4342 -0.9008 0.9008 0.4342 -49.783 449.5901)" fill="#FCB925" cx="332.999" cy="264.424" rx="26.558" ry="26.558"/>
			
				<ellipse transform="matrix(0.4342 -0.9008 0.9008 0.4342 -49.7831 449.5898)" fill="#FE891E" cx="332.999" cy="264.424" rx="22.555" ry="22.555"/>
			<path fill="#0A0909" d="M324.471,282.118c-10.78-5.196-15.547-17.841-11.111-28.776c-0.237,0.421-0.466,0.848-0.679,1.29
				c-5.408,11.221-0.696,24.702,10.525,30.111c11.221,5.408,24.702,0.696,30.111-10.525c0.213-0.441,0.404-0.887,0.586-1.335
				C348.112,283.165,335.251,287.314,324.471,282.118z"/>
			<g>
				<path fill="#FCB925" d="M335.03,258.971l-0.576,1.196c1.575-3.268,0.203-7.194-3.065-8.77l0,0
					c-3.268-1.575-7.194-0.203-8.77,3.065l-4.722,9.798l11.835,5.704l13.28,6.401l5.299-10.994c1.767-3.667,0.227-8.073-3.44-9.84v0
					C341.203,253.764,336.797,255.304,335.03,258.971z M322.766,262.424l2.581-5.354c0.861-1.786,3.006-2.536,4.792-1.675h0
					c1.786,0.861,2.536,3.006,1.675,4.792l-2.581,5.354L322.766,262.424z M342.035,259.372c2.047,0.987,2.907,3.446,1.92,5.494
					l-2.958,6.138l-7.414-3.573l2.958-6.138C337.528,259.245,339.987,258.385,342.035,259.372L342.035,259.372z"/>
				
					<rect x="316.063" y="265.412" transform="matrix(0.4342 -0.9008 0.9008 0.4342 -60.5135 438.0696)" fill="#FCB925" width="4.81" height="3.59"/>
				
					<rect x="337.944" y="275.958" transform="matrix(0.4342 -0.9008 0.9008 0.4342 -57.6314 463.752)" fill="#FCB925" width="4.81" height="3.59"/>
				
					<rect x="316.7" y="257.739" transform="matrix(0.4342 -0.9008 0.9008 0.4342 -54.1029 433.8662)" fill="#FCB925" width="3.231" height="4.523"/>
				
					<rect x="318.624" y="253.747" transform="matrix(0.4342 -0.9008 0.9008 0.4342 -49.4235 433.3304)" fill="#FCB925" width="3.231" height="4.523"/>
				
					<rect x="343.992" y="270.893" transform="matrix(0.4342 -0.9008 0.9008 0.4342 -50.5153 465.8833)" fill="#FCB925" width="3.231" height="4.523"/>
				
					<rect x="345.916" y="266.901" transform="matrix(0.4342 -0.9008 0.9008 0.4342 -45.8256 465.3688)" fill="#FCB925" width="3.231" height="4.523"/>
			</g>
		</g>
		<g>
			<circle fill="#0A0909" cx="307.573" cy="234.763" r="26.558"/>
			<circle fill="#FCB925" cx="302.189" cy="234.763" r="26.558"/>
			<circle fill="#FE891E" cx="302.189" cy="234.763" r="22.555"/>
			<path fill="#0A0909" d="M282.547,234.763c0-11.967,9.321-21.751,21.098-22.503c-0.482-0.031-0.967-0.052-1.457-0.052
				c-12.457,0-22.555,10.098-22.555,22.555c0,12.457,10.098,22.555,22.555,22.555c0.49,0,0.974-0.021,1.457-0.052
				C291.868,256.514,282.547,246.73,282.547,234.763z"/>
			<g>
				<path fill="#FCB925" d="M307.983,234.224h-1.328c3.628,0,6.569-2.941,6.569-6.569l0,0c0-3.628-2.941-6.569-6.569-6.569h-10.876
					v13.138v14.742h12.204c4.071,0,7.371-3.3,7.371-7.371v0C315.354,237.524,312.054,234.224,307.983,234.224z M299.547,224.676
					h5.943c1.982,0,3.59,1.607,3.59,3.59l0,0c0,1.982-1.607,3.59-3.59,3.59h-5.943V224.676z M310.663,240.708
					c0,2.273-1.842,4.115-4.115,4.115h-6.814v-8.23h6.814C308.821,236.593,310.663,238.436,310.663,240.708L310.663,240.708z"/>
				<rect x="290.968" y="221.086" fill="#FCB925" width="4.81" height="3.59"/>
				<rect x="290.968" y="245.376" fill="#FCB925" width="4.81" height="3.59"/>
				<rect x="298.183" y="217.353" fill="#FCB925" width="3.231" height="4.523"/>
				<rect x="302.614" y="217.353" fill="#FCB925" width="3.231" height="4.523"/>
				<rect x="298.183" y="247.649" fill="#FCB925" width="3.231" height="4.523"/>
				<rect x="302.614" y="247.649" fill="#FCB925" width="3.231" height="4.523"/>
			</g>
		</g>
		<g>
			
				<ellipse transform="matrix(0.4197 -0.9077 0.9077 0.4197 -21.3144 460.3141)" fill="#0A0909" cx="349.34" cy="246.826" rx="26.558" ry="26.558"/>
			
				<ellipse transform="matrix(0.4197 -0.9077 0.9077 0.4197 -22.0992 454.5665)" fill="#FCB925" cx="344.453" cy="244.566" rx="26.558" ry="26.558"/>
			
				<ellipse transform="matrix(0.4197 -0.9077 0.9077 0.4197 -22.0995 454.5659)" fill="#FE891E" cx="344.453" cy="244.566" rx="22.555" ry="22.555"/>
			<path fill="#0A0909" d="M326.625,236.323c5.022-10.862,17.59-15.831,28.594-11.57c-0.425-0.23-0.856-0.453-1.3-0.658
				c-11.306-5.228-24.71-0.301-29.938,11.006c-5.228,11.306-0.301,24.71,11.006,29.938c0.445,0.206,0.893,0.39,1.344,0.564
				C325.956,259.978,321.603,247.184,326.625,236.323z"/>
			<g>
				<path fill="#FCB925" d="M349.938,246.509l-1.205-0.557c3.293,1.523,7.197,0.088,8.719-3.205l0,0
					c1.523-3.293,0.088-7.197-3.205-8.719l-9.872-4.565l-5.514,11.925l-6.187,13.381l11.077,5.122
					c3.695,1.709,8.075,0.098,9.784-3.597l0,0C355.243,252.598,353.633,248.218,349.938,246.509z M346.289,234.303l5.395,2.494
					c1.799,0.832,2.584,2.965,1.752,4.765l0,0c-0.832,1.799-2.965,2.584-4.765,1.751l-5.395-2.495L346.289,234.303z M349.65,253.52
					c-0.954,2.063-3.399,2.962-5.462,2.008l-6.184-2.86l3.454-7.47l6.184,2.86C349.704,249.012,350.603,251.457,349.65,253.52
					L349.65,253.52z"/>
				
					<rect x="339.033" y="228.287" transform="matrix(0.9077 0.4197 -0.4197 0.9077 128.0945 -122.0576)" fill="#FCB925" width="4.81" height="3.59"/>
				
					<rect x="328.839" y="250.334" transform="matrix(0.9077 0.4197 -0.4197 0.9077 136.4064 -115.743)" fill="#FCB925" width="4.81" height="3.59"/>
				
					<rect x="347.026" y="227.553" transform="matrix(0.9077 0.4197 -0.4197 0.9077 128.647 -125.1054)" fill="#FCB925" width="3.231" height="4.523"/>
				
					<rect x="351.048" y="229.412" transform="matrix(0.9077 0.4197 -0.4197 0.9077 129.7993 -126.6219)" fill="#FCB925" width="3.231" height="4.523"/>
				
					<rect x="334.311" y="255.051" transform="matrix(0.9077 0.4197 -0.4197 0.9077 139.0141 -117.2295)" fill="#FCB925" width="3.231" height="4.523"/>
				
					<rect x="338.333" y="256.911" transform="matrix(0.9076 0.4197 -0.4197 0.9076 140.1766 -118.7514)" fill="#FCB925" width="3.231" height="4.523"/>
			</g>
		</g>
		<g>
			
				<ellipse transform="matrix(0.861 -0.5085 0.5085 0.861 -62.201 201.4233)" fill="#0A0909" cx="337.461" cy="214.526" rx="26.558" ry="26.558"/>
			
				<ellipse transform="matrix(0.861 -0.5085 0.5085 0.861 -60.2238 199.3865)" fill="#FCB925" cx="334.723" cy="209.89" rx="26.558" ry="26.558"/>
			
				<ellipse transform="matrix(0.861 -0.5085 0.5085 0.861 -60.2238 199.3868)" fill="#FE891E" cx="334.723" cy="209.89" rx="22.555" ry="22.555"/>
			<path fill="#0A0909" d="M324.734,192.978c10.304-6.085,23.469-3.036,30.105,6.723c-0.219-0.431-0.447-0.859-0.696-1.28
				c-6.335-10.726-20.165-14.285-30.89-7.95s-14.285,20.165-7.95,30.89c0.249,0.422,0.514,0.828,0.785,1.228
				C310.745,212.065,314.43,199.063,324.734,192.978z"/>
			<g>
				<path fill="#FCB925" d="M338.133,214.605l-0.675-1.143c1.845,3.124,5.873,4.16,8.997,2.316l0,0
					c3.124-1.845,4.16-5.873,2.315-8.997l-5.531-9.365l-11.312,6.681l-12.693,7.497l6.206,10.508
					c2.07,3.505,6.59,4.668,10.095,2.598l0,0C339.04,222.63,340.203,218.11,338.133,214.605z M342.064,202.486l3.022,5.118
					c1.008,1.707,0.442,3.908-1.265,4.916v0c-1.707,1.008-3.908,0.442-4.916-1.265l-3.023-5.118L342.064,202.486z M333.913,220.21
					c-1.957,1.156-4.48,0.506-5.636-1.451l-3.465-5.867l7.087-4.185l3.465,5.867C336.519,216.531,335.87,219.055,333.913,220.21
					L333.913,220.21z"/>
				
					<rect x="338.065" y="194.462" transform="matrix(0.5085 0.861 -0.861 0.5085 336.3111 -196.7052)" fill="#FCB925" width="4.81" height="3.59"/>
				
					<rect x="317.15" y="206.815" transform="matrix(0.5086 0.861 -0.861 0.5086 336.661 -172.6265)" fill="#FCB925" width="4.81" height="3.59"/>
				
					<rect x="344.935" y="197.867" transform="matrix(0.5085 0.861 -0.861 0.5085 342.6347 -200.0379)" fill="#FCB925" width="3.231" height="4.523"/>
				
					<rect x="347.188" y="201.682" transform="matrix(0.5085 0.861 -0.861 0.5085 347.0272 -200.1031)" fill="#FCB925" width="3.231" height="4.523"/>
				
					<rect x="318.849" y="213.274" transform="matrix(0.5085 0.861 -0.861 0.5085 343.0802 -170.0048)" fill="#FCB925" width="3.231" height="4.523"/>
				
					<rect x="321.102" y="217.089" transform="matrix(0.5085 0.861 -0.861 0.5085 347.4727 -170.07)" fill="#FCB925" width="3.231" height="4.523"/>
			</g>
		</g>
		<g>
			
				<ellipse transform="matrix(0.9627 -0.2706 0.2706 0.9627 -47.209 84.2195)" fill="#0A0909" cx="281.862" cy="213.338" rx="26.558" ry="26.558"/>
			
				<ellipse transform="matrix(0.9627 -0.2706 0.2706 0.9627 -47.7966 82.8715)" fill="#FCB925" cx="276.678" cy="214.795" rx="26.558" ry="26.558"/>
			
				<ellipse transform="matrix(0.9627 -0.2706 0.2706 0.9627 -47.7964 82.871)" fill="#FE891E" cx="276.678" cy="214.795" rx="22.555" ry="22.555"/>
			<path fill="#0A0909" d="M257.769,220.109c-3.238-11.52,3.088-23.462,14.223-27.372c-0.472,0.101-0.945,0.212-1.416,0.344
				c-11.992,3.37-18.981,15.824-15.611,27.816c3.37,11.992,15.824,18.981,27.816,15.611c0.472-0.133,0.932-0.284,1.388-0.444
				C272.628,238.527,261.007,231.63,257.769,220.109z"/>
			<g>
				<path fill="#FCB925" d="M282.111,212.709l-1.278,0.359c3.493-0.982,5.528-4.609,4.547-8.101l0,0
					c-0.982-3.493-4.609-5.528-8.101-4.547l-10.471,2.943l3.555,12.648l3.989,14.192l11.749-3.302
					c3.919-1.101,6.203-5.171,5.102-9.09v0C290.099,213.892,286.03,211.607,282.111,212.709z M271.406,205.799l5.722-1.608
					c1.908-0.536,3.89,0.576,4.427,2.484h0c0.536,1.908-0.576,3.891-2.484,4.427l-5.722,1.608L271.406,205.799z M286.445,218.226
					c0.615,2.188-0.66,4.46-2.848,5.075l-6.559,1.844l-2.227-7.923l6.559-1.843C283.558,214.763,285.831,216.038,286.445,218.226
					L286.445,218.226z"/>
				
					<rect x="262.572" y="203.947" transform="matrix(0.9627 -0.2706 0.2706 0.9627 -45.7821 79.3644)" fill="#FCB925" width="4.81" height="3.59"/>
				
					<rect x="269.144" y="227.331" transform="matrix(0.9627 -0.2706 0.2706 0.9627 -51.8637 82.0145)" fill="#FCB925" width="4.81" height="3.59"/>
				
					<rect x="268.664" y="198.597" transform="matrix(0.9627 -0.2706 0.2706 0.9627 -44.2648 80.621)" fill="#FCB925" width="3.231" height="4.523"/>
				
					<rect x="272.929" y="197.398" transform="matrix(0.9627 -0.2705 0.2705 0.9627 -43.7778 81.721)" fill="#FCB925" width="3.231" height="4.523"/>
				
					<rect x="276.861" y="227.763" transform="matrix(0.9627 -0.2706 0.2706 0.9627 -51.8505 83.9268)" fill="#FCB925" width="3.231" height="4.523"/>
				
					<rect x="281.126" y="226.564" transform="matrix(0.9627 -0.2706 0.2706 0.9627 -51.3671 85.0362)" fill="#FCB925" width="3.231" height="4.523"/>
			</g>
		</g>
		<g>
			
				<ellipse transform="matrix(0.9627 -0.2706 0.2706 0.9627 -59.147 91.7991)" fill="#0A0909" cx="303.386" cy="260.429" rx="26.558" ry="26.558"/>
			
				<ellipse transform="matrix(0.9627 -0.2706 0.2706 0.9627 -59.7349 90.4516)" fill="#FCB925" cx="298.202" cy="261.885" rx="26.558" ry="26.558"/>
			
				<ellipse transform="matrix(0.9627 -0.2706 0.2706 0.9627 -59.7347 90.4512)" fill="#FE891E" cx="298.202" cy="261.885" rx="22.555" ry="22.555"/>
			<path fill="#0A0909" d="M279.293,267.2c-3.238-11.52,3.088-23.462,14.223-27.372c-0.472,0.101-0.945,0.212-1.416,0.344
				c-11.992,3.37-18.981,15.824-15.611,27.816c3.37,11.992,15.824,18.981,27.816,15.611c0.472-0.133,0.932-0.284,1.388-0.444
				C294.152,285.618,282.531,278.72,279.293,267.2z"/>
			<g>
				<path fill="#FCB925" d="M303.635,259.799l-1.278,0.359c3.493-0.982,5.528-4.609,4.547-8.101l0,0
					c-0.982-3.493-4.609-5.528-8.101-4.547l-10.471,2.943l3.555,12.648l3.989,14.192l11.749-3.302
					c3.919-1.101,6.203-5.171,5.102-9.09l0,0C311.623,260.982,307.553,258.698,303.635,259.799z M292.93,252.889l5.722-1.608
					c1.908-0.536,3.891,0.576,4.427,2.484l0,0c0.536,1.908-0.576,3.891-2.484,4.427l-5.722,1.608L292.93,252.889z M307.969,265.316
					c0.615,2.188-0.66,4.46-2.848,5.075l-6.559,1.844l-2.227-7.923l6.559-1.843C305.082,261.853,307.355,263.129,307.969,265.316
					L307.969,265.316z"/>
				
					<rect x="284.096" y="251.037" transform="matrix(0.9627 -0.2706 0.2706 0.9627 -57.7233 86.951)" fill="#FCB925" width="4.81" height="3.59"/>
				
					<rect x="290.668" y="274.422" transform="matrix(0.9627 -0.2706 0.2706 0.9627 -63.8015 89.5942)" fill="#FCB925" width="4.81" height="3.59"/>
				
					<rect x="290.188" y="245.688" transform="matrix(0.9627 -0.2705 0.2705 0.9627 -56.1985 88.1908)" fill="#FCB925" width="3.231" height="4.523"/>
				
					<rect x="294.453" y="244.489" transform="matrix(0.9627 -0.2706 0.2706 0.9627 -55.7198 89.3106)" fill="#FCB925" width="3.231" height="4.523"/>
				
					<rect x="298.385" y="274.854" transform="matrix(0.9627 -0.2706 0.2706 0.9627 -63.7889 91.5069)" fill="#FCB925" width="3.231" height="4.523"/>
				
					<rect x="302.65" y="273.655" transform="matrix(0.9627 -0.2706 0.2706 0.9627 -63.3054 92.6164)" fill="#FCB925" width="3.231" height="4.523"/>
			</g>
		</g>
		<g>
			<ellipse fill="#0A0909" cx="208.967" cy="191.685" rx="3.957" ry="3.267"/>
			<g>
				<path fill="#0A0909" d="M258.267,291.344c-3.917,0-7.21-2.556-7.663-5.944l-9.681-72.669c-0.231-1.738,0.311-3.461,1.526-4.85
					c1.473-1.682,3.709-2.646,6.137-2.647l128.71-0.024c0.001,0,0.001,0,0.002,0c2.441,0,4.686,0.974,6.158,2.671
					c1.215,1.4,1.746,3.134,1.497,4.88l-10.378,72.673c-0.48,3.356-3.771,5.889-7.655,5.891l-108.651,0.021
					C258.269,291.344,258.268,291.344,258.267,291.344z M377.299,206.16c-0.001,0-0.001,0-0.002,0l-128.71,0.024
					c-2.154,0-4.13,0.847-5.422,2.322c-1.033,1.18-1.494,2.635-1.299,4.099l9.681,72.669c0.389,2.918,3.278,5.118,6.72,5.118
					c0.001,0,0.001,0,0.002,0l0,0l108.651-0.021c3.414,0,6.301-2.182,6.714-5.074l10.378-72.673c0.21-1.469-0.242-2.934-1.273-4.122
					C381.447,207.013,379.465,206.16,377.299,206.16z"/>
			</g>
			<g>
				<path fill="#0A0909" d="M350.419,291.326c-0.263,0-0.475-0.213-0.476-0.476l-0.014-85.161c0-0.263,0.213-0.475,0.476-0.476
					c0.263,0,0.475,0.213,0.476,0.476l0.014,85.161C350.894,291.113,350.682,291.325,350.419,291.326z"/>
			</g>
			<g>
				<path fill="#0A0909" d="M324.863,291.331c-0.263,0-0.475-0.213-0.476-0.476l-0.014-85.161c0-0.263,0.213-0.475,0.476-0.476
					c0.263,0,0.475,0.213,0.476,0.476l0.014,85.161C325.339,291.118,325.126,291.33,324.863,291.331z"/>
			</g>
			<g>
				<path fill="#0A0909" d="M299.307,291.336c-0.262,0-0.475-0.213-0.475-0.476l-0.013-85.161c0-0.263,0.212-0.475,0.475-0.476
					c0.262,0,0.475,0.213,0.475,0.476l0.013,85.161C299.783,291.123,299.57,291.335,299.307,291.336z"/>
			</g>
			<g>
				<path fill="#0A0909" d="M273.752,291.341c-0.262,0-0.475-0.213-0.475-0.476l-0.013-85.161c0-0.263,0.212-0.475,0.475-0.476
					c0.262,0,0.475,0.213,0.475,0.476l0.013,85.161C274.227,291.128,274.015,291.34,273.752,291.341z"/>
			</g>
			<g>
				<path fill="#0A0909" d="M242.714,223.044c-0.262,0-0.475-0.213-0.475-0.476s0.212-0.475,0.475-0.476l140.363-0.027
					c0.263,0,0.475,0.213,0.476,0.476c0,0.263-0.213,0.475-0.476,0.476L242.714,223.044z"/>
			</g>
			<g>
				<path fill="#0A0909" d="M245.234,241.963c-0.262,0-0.475-0.213-0.475-0.476s0.212-0.475,0.475-0.476l135.141-0.026
					c0.263,0,0.475,0.213,0.476,0.476c0,0.263-0.213,0.475-0.476,0.476L245.234,241.963z"/>
			</g>
			<g>
				<path fill="#0A0909" d="M247.87,261.751c-0.262,0-0.475-0.213-0.475-0.476s0.212-0.475,0.475-0.476l129.678-0.025
					c0.263,0,0.475,0.213,0.476,0.476c0,0.263-0.213,0.475-0.476,0.476L247.87,261.751z"/>
			</g>
			<g>
				<path fill="#0A0909" d="M250.477,281.319c-0.261,0-0.473-0.211-0.475-0.472c-0.002-0.263,0.209-0.477,0.471-0.479l124.413-0.979
					c0.001,0,0.003,0,0.004,0c0.261,0,0.473,0.211,0.476,0.472c0.002,0.263-0.209,0.477-0.472,0.479l-124.413,0.979
					C250.48,281.319,250.478,281.319,250.477,281.319z"/>
			</g>
			<g>
				<path fill="#0A0909" d="M227.632,221.008c-0.162,0-0.312-0.083-0.4-0.219l-19.195-29.857c-0.142-0.221-0.078-0.515,0.143-0.656
					c0.221-0.144,0.515-0.079,0.657,0.143l19.054,29.639l14.551-0.003c0.262,0,0.475,0.213,0.475,0.476s-0.212,0.475-0.475,0.476
					L227.632,221.008z"/>
			</g>
			<g>
				<path fill="#0A0909" d="M265.075,303.82c-0.126,0-0.247-0.051-0.336-0.14c-0.089-0.089-0.139-0.21-0.139-0.336l-0.002-12.478
					c0-0.263,0.212-0.475,0.475-0.476c0.262,0,0.475,0.213,0.475,0.476l0.002,12.002l114.835-0.022c0.263,0,0.475,0.213,0.476,0.476
					c0,0.263-0.213,0.475-0.476,0.476L265.075,303.82z"/>
			</g>
			<path fill="#0A0909" d="M357.732,314.883c3.177,3.397,7.769,4.747,10.256,3.016c2.487-1.731,1.928-5.888-1.249-9.284
				c-3.177-3.397-7.769-4.746-10.256-3.016C353.996,307.33,354.555,311.486,357.732,314.883z"/>
			<path fill="#0A0909" d="M276.558,314.899c3.177,3.397,7.769,4.747,10.256,3.016c2.487-1.731,1.928-5.888-1.249-9.284
				c-3.177-3.396-7.769-4.747-10.256-3.016C272.821,307.345,273.381,311.502,276.558,314.899z"/>
		</g>
	</g>
	<g id="grey_shirt_girl_1_">
		<path fill-rule="evenodd" clip-rule="evenodd" fill="#FB7E60" d="M134.159,175.734c0,0-6.933,1.047-12.137,4.23
			c0,0,3.92,12.729,11.867,15.603c7.948,2.872,23.915,2.322,27.817,4.709c3.902,2.388,9.348,7.206,10.23,6.752
			c0.881-0.453-4.674-4.909-3.603-4.781c1.071,0.128,5.328,4.015,5.693,3.215c0.366-0.799-5.623-5.567-4.839-5.828
			c0.784-0.26,5.083,3.856,5.769,3.363c0.686-0.494-3.626-4.116-5.115-5.169c-1.49-1.052,6.316,2.943,6.252,1.931
			c-0.064-1.013-7.122-3.863-6.323-4.5c0.797-0.637,4.754-0.678,4.446-1.673c-0.309-0.994-4.935-0.636-8.624-0.622
			c-3.687,0.014-19.19-6.883-23.761-8.772C137.262,182.303,134.159,175.734,134.159,175.734z"/>
		<path fill-rule="evenodd" clip-rule="evenodd" fill="#FEB91E" d="M126.604,218.723c3.213,9.162,10.337,33.827,16.618,53.552
			c6.279,19.727,12.442,47.28,12.442,47.28l-12.515,4.076c0,0-10.279-21.285-17.871-37.209
			c-7.593-15.923-14.119-27.293-14.119-27.293s-5.886,17.161-17.77,36.224c-11.886,19.063-25.044,27.088-25.044,27.088
			l-9.712-12.985c0,0,11.905-9.626,19.757-30.016c7.852-20.391,11.723-37.872,12.591-49.508
			C90.98,229.932,123.392,209.561,126.604,218.723z"/>
		<path fill-rule="evenodd" clip-rule="evenodd" fill="#0A0909" d="M103.915,228.635c13.351-2.704,23.367-7.982,23.367-7.982
			l-0.716-2.016L103.915,228.635z"/>
		<path fill-rule="evenodd" clip-rule="evenodd" fill="#FB7E60" d="M143.854,323.4l11.423-3.727l2.75,10.816l-8.845,2.735
			L143.854,323.4z"/>
		<path fill-rule="evenodd" clip-rule="evenodd" fill="#0A0909" d="M111.101,259.135c2.622-7.212,3.472-16.591,3.472-16.591
			s13.405,11.579,0.831,24.392L111.101,259.135z"/>
		<path fill-rule="evenodd" clip-rule="evenodd" fill="#FB7E60" d="M60.305,311.72l-7.406,6.849l6.842,9.168l7.664-6.547
			L60.305,311.72z"/>
		<path fill-rule="evenodd" clip-rule="evenodd" fill="#FEB825" d="M149.059,333.043c0,0,2.915,8.698,3.796,16.463l25.351-0.643
			c0,0-1.929-4.325-6.588-6.131c-4.66-1.806-10.467-1.01-13.597-12.601L149.059,333.043z"/>
		<path fill-rule="evenodd" clip-rule="evenodd" fill="#0A0909" d="M60.304,311.709l6.499,10.016l0.597-0.549L60.304,311.709z"/>
		<path fill-rule="evenodd" clip-rule="evenodd" fill="#0A0909" d="M155.301,319.676l-10.989,4.597l-0.488-0.861L155.301,319.676z"
			/>
		<path fill-rule="evenodd" clip-rule="evenodd" fill="#FFFFFF" d="M170.406,342.356c-2.124,2.225-9.231,0.926-12.507-4.111
			c-3.278-5.038-3.057-8.895-0.561-10.676c0,0,1.543,7.187,4.196,10.159C164.187,340.698,170.406,342.356,170.406,342.356z"/>
		<path fill-rule="evenodd" clip-rule="evenodd" fill="#FFFFFF" d="M152.845,349.496l25.374-0.626c0,0-0.149-0.322-0.235-0.473
			l-25.259,0.119L152.845,349.496z"/>
		<g>
			<path fill="#0A0909" d="M153.911,335.543c-0.103,0-0.2-0.06-0.243-0.16c-0.057-0.135,0.005-0.289,0.14-0.347l4.957-2.104
				c0.3-0.517,1.672-2.769,2.909-2.941c0.335-0.046,0.645,0.058,0.894,0.305c0.311,0.307,0.316,0.614,0.266,0.817
				c-0.161,0.651-1.18,1.233-2.132,1.646c1.071,0.011,2.274,0.157,2.623,0.727c0.12,0.195,0.201,0.526-0.098,0.988
				c-0.259,0.4-0.617,0.627-1.063,0.672c-1.238,0.146-2.808-1.269-3.26-1.699l-4.888,2.076
				C153.981,335.536,153.946,335.543,153.911,335.543z M159.549,333.322c0.661,0.576,1.769,1.391,2.562,1.298
				c0.282-0.028,0.502-0.17,0.672-0.434c0.181-0.279,0.114-0.39,0.092-0.426C162.597,333.307,160.913,333.237,159.549,333.322z
				 M161.83,330.507c-0.027,0-0.054,0.002-0.083,0.006c-0.698,0.098-1.609,1.263-2.175,2.119c1.186-0.424,2.613-1.096,2.749-1.646
				c0.018-0.072,0.02-0.173-0.124-0.315C162.086,330.56,161.967,330.507,161.83,330.507z"/>
		</g>
		<g>
			<path fill="#0A0909" d="M159.199,342.476c-0.053,0-0.106-0.016-0.152-0.048c-0.119-0.085-0.147-0.249-0.063-0.368
				c0.076-0.107,1.881-2.646,3.462-3.532c0.126-0.068,0.288-0.026,0.359,0.102c0.071,0.127,0.026,0.288-0.101,0.359
				c-1.477,0.828-3.271,3.351-3.289,3.376C159.363,342.437,159.282,342.476,159.199,342.476z"/>
		</g>
		<g>
			<path fill="#0A0909" d="M162.038,344.023c-0.032,0-0.063-0.006-0.095-0.018c-0.136-0.052-0.204-0.205-0.152-0.341
				c0.045-0.116,1.114-2.872,2.465-3.946c0.113-0.09,0.28-0.071,0.371,0.043s0.072,0.28-0.042,0.371
				c-1.238,0.983-2.29,3.694-2.3,3.722C162.244,343.959,162.144,344.023,162.038,344.023z"/>
		</g>
		<g>
			<path fill="#0A0909" d="M165.099,344.811c-0.015,0-0.03-0.001-0.045-0.004c-0.144-0.024-0.24-0.161-0.215-0.305
				c0.02-0.115,0.497-2.829,1.355-3.819c0.094-0.111,0.262-0.124,0.372-0.026c0.11,0.095,0.122,0.262,0.026,0.372
				c-0.762,0.88-1.229,3.537-1.233,3.563C165.336,344.72,165.225,344.811,165.099,344.811z"/>
		</g>
		<g>
			<path fill="#0A0909" d="M67.142,313.639c-0.078,0-0.155-0.034-0.207-0.1l-5.453-6.871c-0.091-0.114-0.072-0.28,0.042-0.371
				c0.113-0.089,0.28-0.071,0.371,0.043l5.453,6.871c0.091,0.114,0.072,0.28-0.042,0.371
				C67.258,313.621,67.2,313.639,67.142,313.639z"/>
		</g>
		<g>
			<path fill="#0A0909" d="M72.389,319.731c-0.074,0-0.147-0.03-0.199-0.091l-4.033-4.65c-0.096-0.11-0.084-0.276,0.026-0.372
				c0.109-0.096,0.276-0.086,0.372,0.026l4.033,4.65c0.096,0.11,0.084,0.276-0.026,0.372
				C72.512,319.71,72.451,319.731,72.389,319.731z"/>
		</g>
		<g>
			<path fill="#0A0909" d="M141.731,320.803c-0.106,0-0.207-0.064-0.247-0.17c-0.052-0.136,0.017-0.289,0.153-0.341l13.085-4.978
				c0.135-0.05,0.289,0.018,0.34,0.153s-0.017,0.289-0.153,0.341l-13.085,4.978C141.794,320.798,141.763,320.803,141.731,320.803z"
				/>
		</g>
		<g>
			<path fill="#0A0909" d="M66.737,312.366c-0.038,0-0.075-0.016-0.101-0.047c-0.047-0.056-0.04-0.139,0.016-0.186
				c3.652-3.088,10.573-11.215,17.136-21.76c5.411-8.694,12.332-21.854,14.575-35.175c3.971-23.58,2.865-25.918,2.816-26.006
				c-0.042-0.06-0.025-0.139,0.035-0.181c0.059-0.042,0.144-0.024,0.186,0.035c0.054,0.077,1.272,2.158-2.776,26.194
				c-2.25,13.363-9.187,26.557-14.61,35.271c-6.578,10.569-13.521,18.721-17.19,21.821
				C66.797,312.356,66.767,312.366,66.737,312.366z"/>
		</g>
		<g>
			<path fill="#0A0909" d="M148.475,317.914c-0.056,0-0.108-0.036-0.126-0.093c-5.702-18.323-29.75-65.522-29.992-65.997
				c-0.033-0.064-0.007-0.144,0.058-0.177c0.064-0.032,0.144-0.009,0.178,0.058c0.242,0.475,24.3,47.693,30.009,66.038
				c0.021,0.069-0.017,0.144-0.087,0.165C148.502,317.912,148.489,317.914,148.475,317.914z"/>
		</g>
		<path fill-rule="evenodd" clip-rule="evenodd" fill="#0A0909" d="M136.24,139.418c-2.841-1.591-11.365-2.542-13.55,2.022
			c-2.186,4.565-1.701,5.677-8.867,5.19c-7.166-0.487-12.417,2.089-12.024,9.37c0.393,7.279-7.94,4.144-14.03,13.75
			c-6.09,9.606,6.51,18.939,6.51,18.939s24.425-23.005,36.631-25.578c12.205-2.574,10.223-13.29,10.223-13.29
			c0.711,2.176,0.602,6.973,0.602,6.973C146.034,145.966,142.025,142.66,136.24,139.418z"/>
		<path fill-rule="evenodd" clip-rule="evenodd" fill="#464D7B" d="M118.344,164.824c0,0-15.036,4.342-21.646,17.745
			c-6.611,13.403-8.725,37.91-10.943,48.963c0,0,14.057-3.737,28.399-3.342c14.341,0.396,17.24-0.611,17.756-1.759
			c0.518-1.147,5.673-28.463,3.56-38.582c-2.113-10.119-3.646-18.421-3.646-18.421S122.778,169.725,118.344,164.824z"/>
		<path fill-rule="evenodd" clip-rule="evenodd" fill="#464D7B" d="M131.057,168.201c3.118,2.844,11.575,14.774,11.575,14.774
			l-6.733,8.638C135.899,191.613,127.939,165.357,131.057,168.201z"/>
		<path fill-rule="evenodd" clip-rule="evenodd" fill="#FB7E60" d="M138.055,146.309c0,0,0.787,10.002-3.933,10.994
			c-4.039,0.848-2.232,12.348-2.232,12.348s-9.123,1.571-13.576-4.834c0,0,7.983-8.269,7.166-11.261c0,0-3.107,0.741-3.895-2.357
			c-0.789-3.098,2.038-4.231,3.679-3.566c1.641,0.666,1.875,2.774,1.875,2.774s3.365-0.622,5.888-5.731
			c0.313-0.634,1.188-0.69,1.603-0.117C135.379,145.593,136.566,146.703,138.055,146.309z"/>
		<path fill-rule="evenodd" clip-rule="evenodd" fill="#0A0909" d="M133.825,157.373c-1.614,0.353-3.789-1.509-3.789-1.509
			s-0.003,2.849,1.829,4.433c0,0,0.179-0.93,0.669-1.661C133.024,157.905,133.825,157.373,133.825,157.373z"/>
		<path fill-rule="evenodd" clip-rule="evenodd" fill="#FFFFFF" d="M131.972,169.695c0,0-3.353,0.652-7.349-0.396
			c-3.997-1.048-6.322-4.453-6.322-4.453l0.627-0.673c0,0,2.455,2.934,5.885,4.037c3.432,1.102,6.958,0.487,6.958,0.487
			L131.972,169.695z"/>
		<path fill-rule="evenodd" clip-rule="evenodd" fill="#0A0909" d="M136.103,191.317c-0.339-2.071-2.408-7.42-2.408-7.42
			l4.366,4.939L136.103,191.317z"/>
		<g>
			<path fill="#0A0909" d="M107.585,200.739c-0.085,0-0.169-0.041-0.22-0.117c-2.533-3.802-6.126-12.748-5.771-17.571
				c0.011-0.146,0.14-0.269,0.283-0.243c0.145,0.01,0.254,0.137,0.244,0.282c-0.348,4.714,3.19,13.498,5.684,17.239
				c0.081,0.121,0.048,0.285-0.073,0.366C107.687,200.725,107.636,200.739,107.585,200.739z"/>
		</g>
		<g>
			<path fill="#0A0909" d="M102.221,187.651c-0.003,0-0.006,0-0.009,0c-2.072-0.074-3.215-2.89-3.262-3.009
				c-0.054-0.136,0.012-0.289,0.147-0.343c0.136-0.053,0.289,0.012,0.343,0.147c0.01,0.026,1.063,2.614,2.791,2.677
				c0.146,0.005,0.26,0.128,0.254,0.273C102.479,187.54,102.362,187.651,102.221,187.651z"/>
		</g>
		<g>
			<path fill="#0A0909" d="M122.578,189.346c-0.098,0-0.192-0.055-0.237-0.148c-1.264-2.604-3.043-10.477-3.118-10.811
				c-0.032-0.142,0.057-0.283,0.199-0.315c0.146-0.025,0.284,0.059,0.315,0.2c0.019,0.081,1.841,8.146,3.078,10.695
				c0.064,0.131,0.009,0.289-0.122,0.353C122.656,189.338,122.617,189.346,122.578,189.346z"/>
		</g>
		<path fill-rule="evenodd" clip-rule="evenodd" fill="#FEB825" d="M53.915,317.629l-17.394,9.142l18.872,21.946
			c0,0,2.384-1.712-0.03-9.023c-2.415-7.311,1.236-11.476,5.847-13.133L53.915,317.629z"/>
		<path fill-rule="evenodd" clip-rule="evenodd" fill="#FFFFFF" d="M55.343,339.625c-3.229-1.515-3.937-6.357-1.765-10.612
			c2.173-4.256,8.868-8.316,11.418-3.858c0,0-5.694,1.977-8.611,6.089C53.466,335.356,55.343,339.625,55.343,339.625z"/>
		<path fill-rule="evenodd" clip-rule="evenodd" fill="#FFFFFF" d="M36.552,326.774l1.342-0.693l17.769,22.329
			c0,0-0.125,0.199-0.285,0.309L36.552,326.774z"/>
		<g>
			<path fill="#0A0909" d="M58.91,333.095c-0.031,0-0.063-0.002-0.096-0.004c-0.404-0.026-0.717-0.207-0.905-0.523
				c-0.624-1.05,0.325-3.393,0.615-4.054l-4.678-4.437c-0.111-0.106-0.116-0.282-0.01-0.394s0.282-0.115,0.393-0.011l4.773,4.527
				c0.767-0.051,4.01-0.204,4.983,1.019c0.291,0.364,0.358,0.825,0.196,1.331c-0.199,0.622-0.591,0.835-0.885,0.903
				c-1.087,0.257-2.754-1.019-3.785-1.938c0.347,1.047,0.692,2.507,0.216,3.184C59.597,332.883,59.352,333.094,58.91,333.095z
				 M58.826,329.241c-0.411,1.073-0.773,2.48-0.439,3.042c0.059,0.1,0.171,0.233,0.463,0.253c0.273,0.016,0.368-0.081,0.422-0.157
				C59.623,331.88,59.248,330.39,58.826,329.241z M59.482,328.732c1.005,0.947,2.777,2.383,3.688,2.18
				c0.145-0.034,0.353-0.126,0.482-0.532c0.106-0.33,0.073-0.597-0.101-0.815C62.928,328.783,60.755,328.698,59.482,328.732z"/>
		</g>
		<g>
			<path fill="#0A0909" d="M55.657,332.777c-0.039,0-0.078-0.008-0.115-0.025l-4.418-2.011c-0.14-0.063-0.202-0.229-0.138-0.368
				c0.063-0.141,0.227-0.203,0.368-0.138l4.418,2.011c0.14,0.063,0.202,0.229,0.138,0.368
				C55.864,332.717,55.763,332.777,55.657,332.777z"/>
		</g>
		<g>
			<path fill="#0A0909" d="M54.94,334.692c-0.007,0-0.015,0-0.021-0.001l-3.847-0.293c-0.153-0.012-0.268-0.146-0.256-0.299
				s0.16-0.28,0.298-0.256l3.847,0.293c0.153,0.012,0.268,0.146,0.256,0.299C55.206,334.581,55.084,334.692,54.94,334.692z"/>
		</g>
		<g>
			<path fill="#0A0909" d="M51.694,337.222c-0.136,0-0.255-0.101-0.275-0.239c-0.021-0.152,0.084-0.293,0.236-0.314l3.095-0.441
				c0.149-0.021,0.292,0.085,0.314,0.236c0.021,0.152-0.084,0.293-0.236,0.314l-3.095,0.441
				C51.72,337.221,51.707,337.222,51.694,337.222z"/>
		</g>
		<circle fill-rule="evenodd" clip-rule="evenodd" fill="#0A0909" cx="133.241" cy="148.883" r="0.291"/>
		<circle fill-rule="evenodd" clip-rule="evenodd" fill="#0A0909" cx="136.979" cy="149.465" r="0.291"/>
		<g>
			<path fill="#0A0909" d="M135.167,154.806c-0.005,0-0.01,0-0.015,0c-1.093-0.063-1.809-1.117-1.839-1.162
				c-0.081-0.121-0.048-0.284,0.072-0.365c0.12-0.082,0.284-0.049,0.366,0.071c0.006,0.009,0.603,0.881,1.431,0.929
				c0.146,0.009,0.257,0.134,0.249,0.279C135.422,154.698,135.306,154.806,135.167,154.806z"/>
		</g>
		<g>
			<circle fill="#0A0909" cx="171.867" cy="197.051" r="26.558"/>
			<circle fill="#FCB925" cx="166.482" cy="197.051" r="26.558"/>
			<circle fill="#FE891E" cx="166.482" cy="197.051" r="22.555"/>
			<path fill="#0A0909" d="M146.841,197.051c0-11.967,9.321-21.751,21.098-22.503c-0.482-0.031-0.967-0.052-1.457-0.052
				c-12.456,0-22.555,10.098-22.555,22.555s10.098,22.555,22.555,22.555c0.49,0,0.975-0.021,1.457-0.052
				C156.162,218.802,146.841,209.018,146.841,197.051z"/>
			<g>
				<path fill="#FCB925" d="M172.276,196.513h-1.328c3.628,0,6.569-2.941,6.569-6.569l0,0c0-3.628-2.941-6.569-6.569-6.569h-10.876
					v13.138v14.742h12.204c4.071,0,7.371-3.3,7.371-7.371v0C179.647,199.813,176.347,196.513,172.276,196.513z M163.841,186.964
					h5.943c1.982,0,3.59,1.607,3.59,3.59l0,0c0,1.983-1.607,3.59-3.59,3.59h-5.943V186.964z M174.957,202.997
					c0,2.273-1.842,4.115-4.115,4.115h-6.813v-8.23h6.813C173.114,198.882,174.957,200.724,174.957,202.997L174.957,202.997z"/>
				<rect x="155.262" y="183.375" fill="#FCB925" width="4.81" height="3.59"/>
				<rect x="155.262" y="207.665" fill="#FCB925" width="4.81" height="3.59"/>
				<rect x="162.477" y="179.642" fill="#FCB925" width="3.231" height="4.523"/>
				<rect x="166.908" y="179.642" fill="#FCB925" width="3.231" height="4.523"/>
				<rect x="162.477" y="209.938" fill="#FCB925" width="3.231" height="4.523"/>
				<rect x="166.908" y="209.938" fill="#FCB925" width="3.231" height="4.523"/>
			</g>
		</g>
		<path fill-rule="evenodd" clip-rule="evenodd" fill="#FB7E60" d="M121.116,189.232c0,0-8.263,4.645-12.465,9.067
			c0,0,7.077,11.284,15.496,12.005c8.419,0.721,23.703-3.936,28.089-2.638c4.386,1.297,10.892,4.545,11.626,3.879
			c0.734-0.665-5.782-3.535-4.715-3.688c1.067-0.153,6.184,2.502,6.33,1.636c0.146-0.868-6.871-3.926-6.181-4.38
			c0.689-0.455,5.907,2.412,6.442,1.757c0.534-0.653-4.567-3.039-6.277-3.671c-1.712-0.631,6.861,1.211,6.538,0.249
			c-0.324-0.962-7.878-1.892-7.272-2.713c0.605-0.821,4.418-1.883,3.863-2.765c-0.554-0.881-4.932,0.661-8.491,1.627
			c-3.559,0.967-20.318-1.689-25.222-2.333C123.976,196.62,121.116,189.232,121.116,189.232z"/>
		<path fill-rule="evenodd" clip-rule="evenodd" fill="#0A0909" d="M121.919,191c1.276-1.382,2.073-3.235-0.764-1.779
			c-2.837,1.455-9.085,5.339-12.529,9.033c-3.445,3.692,0.158,2.723,1.622,2.277l-0.34-0.418c0,0,2.01-3.253,6.348-6.604
			c4.338-3.349,5.2-3.489,5.2-3.489L121.919,191z"/>
	</g>
	<g id="red_shirt_boy">
		<g>
			<polygon fill="#FC7F61" points="252.437,315.085 249.941,328.137 235.46,326.975 235.829,313.782 			"/>
			<path fill="#6596FA" d="M235.534,326.05l-1.504,18.915h32.134c0,0-1.073-5.866-8.715-8.078
				c-7.642-2.212-7.259-10.052-7.259-10.052L235.534,326.05z"/>
			<path fill="#464D7B" d="M265.875,210.077c-1.007,15.803-6.191,69.881-8.516,83.825c-2.324,13.944-3.754,21.274-3.754,21.274
				l-18.235-1.43l-0.715,3.039l-16.358-3.397c0,0,1.073-13.14,2.145-37.542c1.073-24.402-0.034-48.737,3.469-68.078
				C223.912,207.768,250.167,200.531,265.875,210.077z"/>
			<path fill="#FC7F61" d="M234.047,316.659l-1.626,12.015l-14.123-1.341c0,0,0.334-8.021,0.703-13.798L234.047,316.659z"/>
			<path fill="#6596FA" d="M218.326,326.694l-1.904,19.746h32.112c0,0-0.177-5.293-6.302-6.771
				c-11.531-2.782-9.654-12.147-9.654-12.147L218.326,326.694z"/>
			<polygon fill="#0A0909" points="234.047,316.659 218.931,314.664 219.002,313.535 			"/>
			<polygon fill="#0A0909" points="252.437,315.085 235.788,315.267 235.829,313.782 			"/>
			<g>
				<path fill="#0A0909" d="M235.787,312.168c-0.014,0-0.027-0.002-0.041-0.005c-0.113-0.022-0.186-0.133-0.164-0.245
					c1.885-9.363,13.433-82.561,13.549-83.299c0.018-0.114,0.122-0.192,0.239-0.174c0.114,0.018,0.191,0.125,0.173,0.238
					c-0.117,0.738-11.665,73.945-13.552,83.316C235.972,312.099,235.885,312.168,235.787,312.168z"/>
			</g>
			<g>
				<path fill="#0A0909" d="M248.214,235.966c-0.114,0-0.208-0.093-0.208-0.207c-0.001-0.115,0.091-0.209,0.207-0.211
					c4.043-0.041,5.177-5.98,5.188-6.04c0.021-0.112,0.128-0.19,0.243-0.168c0.113,0.021,0.188,0.129,0.167,0.242
					c-0.047,0.259-1.211,6.338-5.595,6.384C248.216,235.966,248.215,235.966,248.214,235.966z"/>
			</g>
			<g>
				<path fill="#0A0909" d="M235.371,313.955c-0.018,0-0.035-0.003-0.053-0.007l-6.793-1.787c-0.111-0.029-0.178-0.144-0.148-0.255
					c0.029-0.11,0.142-0.173,0.255-0.149l6.793,1.787c0.111,0.029,0.178,0.144,0.148,0.255
					C235.548,313.892,235.464,313.955,235.371,313.955z"/>
			</g>
			<g>
				<path fill="#0A0909" d="M226.489,311.632c-0.017,0-0.035-0.003-0.052-0.007l-7.894-2.048c-0.112-0.029-0.179-0.143-0.149-0.255
					c0.029-0.111,0.14-0.175,0.254-0.149l7.894,2.048c0.112,0.029,0.179,0.143,0.149,0.255
					C226.667,311.569,226.582,311.632,226.489,311.632z"/>
			</g>
			<g>
				<path fill="#0A0909" d="M254.31,311.632c-0.008,0-0.016-0.001-0.024-0.002l-18.04-2.048c-0.115-0.013-0.197-0.116-0.184-0.23
					c0.013-0.114,0.128-0.199,0.23-0.184l18.04,2.048c0.115,0.013,0.197,0.116,0.184,0.23
					C254.505,311.553,254.415,311.632,254.31,311.632z"/>
			</g>
			<g>
				<path fill="#0A0909" d="M226.173,309.479c-0.002,0-0.005,0-0.008-0.001c-0.058-0.004-0.101-0.054-0.096-0.111
					c0.055-0.74,5.586-74.294,10.099-97.368c0.011-0.057,0.063-0.094,0.123-0.083c0.057,0.012,0.093,0.066,0.083,0.123
					c-4.511,23.063-10.041,96.604-10.096,97.344C226.273,309.437,226.227,309.479,226.173,309.479z"/>
			</g>
			<path fill="#FFFFFF" d="M239.363,338.738c-1.891,1.668-5.377-0.411-7.724-3.83c-2.346-3.419-2.212-7.058-1.743-8.859
				c0.469-1.801,2.935-0.404,2.935-0.404s-0.689,3.799,0.719,7.251C235.127,336.765,239.363,338.738,239.363,338.738z"/>
			<path fill="#FFFFFF" d="M257.449,336.886c-1.877,1.274-4.179,1.106-7.352-2.145s-3.24-9.117-2.805-10.492
				c0.436-1.374,3.431-0.205,3.431-0.205s-0.819,4.385,0.064,6.559C252.437,334.663,254.924,335.981,257.449,336.886z"/>
			<polygon fill="#FFFFFF" points="248.533,346.439 216.421,346.439 216.534,345.267 248.461,345.853 			"/>
			<polygon fill="#FFFFFF" points="266.164,344.964 248.245,344.964 247.948,344.166 266.003,344.371 			"/>
			<g>
				<path fill="#0A0909" d="M234.03,338.983c-0.083,0-0.162-0.051-0.194-0.133c-0.042-0.107,0.011-0.229,0.119-0.271l3.304-1.291
					c0.106-0.044,0.228,0.011,0.27,0.118s-0.011,0.229-0.119,0.271l-3.304,1.291C234.081,338.978,234.056,338.983,234.03,338.983z"
					/>
			</g>
			<g>
				<path fill="#0A0909" d="M231.93,337.285c-0.096,0-0.183-0.067-0.204-0.165c-0.024-0.112,0.048-0.224,0.16-0.248l3.931-0.846
					c0.116-0.021,0.224,0.049,0.248,0.16c0.024,0.112-0.048,0.224-0.16,0.248l-3.931,0.846
					C231.959,337.283,231.944,337.285,231.93,337.285z"/>
			</g>
			<g>
				<path fill="#0A0909" d="M230.053,335.051c-0.11,0-0.203-0.087-0.208-0.198c-0.006-0.115,0.083-0.213,0.198-0.219l4.438-0.225
					c0.004,0,0.007-0.001,0.011-0.001c0.11,0,0.203,0.087,0.208,0.198c0.006,0.115-0.083,0.213-0.198,0.219l-4.438,0.225
					C230.059,335.05,230.056,335.051,230.053,335.051z"/>
			</g>
			<g>
				<path fill="#0A0909" d="M232.696,333.118c-0.082,0-0.174-0.013-0.278-0.043c-0.353-0.104-0.597-0.316-0.727-0.635
					c-0.413-1.011,0.562-2.767,0.604-2.841c0.025-0.045,0.065-0.077,0.111-0.094l-4.946,0.004c-0.115,0-0.208-0.094-0.208-0.209
					s0.093-0.209,0.208-0.209h5.258c0.024,0.006,0.055,0.005,0.081,0.016c0.409,0.084,2.205,0.521,2.79,1.576
					c0.227,0.407,0.249,0.854,0.065,1.328c-0.157,0.407-0.386,0.616-0.68,0.622c-0.003,0-0.007,0-0.01,0
					c-0.533,0-1.133-0.791-1.608-1.604c0.121,0.769,0.138,1.557-0.197,1.9C233.067,333.023,232.919,333.118,232.696,333.118z
					 M232.656,329.809c-0.258,0.463-0.856,1.792-0.578,2.474c0.081,0.197,0.23,0.325,0.458,0.392
					c0.227,0.068,0.298-0.009,0.325-0.036C233.183,332.306,232.959,330.912,232.656,329.809z M233.087,329.604
					c0.556,1.193,1.404,2.612,1.875,2.612c0.001,0,0.003,0,0.004,0c0.135-0.003,0.237-0.194,0.299-0.355
					c0.138-0.357,0.125-0.677-0.042-0.976C234.83,330.175,233.699,329.774,233.087,329.604z M232.547,329.506
					c0.008,0.003,0.016,0.006,0.023,0.01c-0.001-0.003-0.002-0.007-0.003-0.01H232.547z"/>
			</g>
			<g>
				<path fill="#0A0909" d="M251.818,337.509c-0.084,0-0.164-0.052-0.195-0.136c-0.041-0.108,0.015-0.229,0.123-0.269l3.541-1.321
					c0.108-0.039,0.229,0.015,0.268,0.122c0.041,0.108-0.015,0.229-0.123,0.269l-3.541,1.321
					C251.867,337.504,251.843,337.509,251.818,337.509z"/>
			</g>
			<g>
				<path fill="#0A0909" d="M249.405,335.716c-0.096,0-0.182-0.066-0.204-0.163c-0.025-0.112,0.045-0.224,0.158-0.249l3.93-0.89
					c0.112-0.022,0.225,0.046,0.25,0.157c0.025,0.112-0.045,0.224-0.158,0.249l-3.93,0.89
					C249.435,335.714,249.42,335.716,249.405,335.716z"/>
			</g>
			<g>
				<path fill="#0A0909" d="M247.304,333.441c-0.109,0-0.201-0.085-0.208-0.194c-0.008-0.115,0.079-0.215,0.194-0.223l4.687-0.322
					c0.127-0.005,0.215,0.079,0.222,0.193c0.008,0.115-0.079,0.215-0.194,0.223l-4.687,0.322
					C247.313,333.44,247.308,333.441,247.304,333.441z"/>
			</g>
			<g>
				<path fill="#0A0909" d="M254.242,333.23c-0.087,0-0.176-0.009-0.267-0.027c-1.637-0.323-3.424-3.641-3.775-4.32h-5.175
					c-0.115,0-0.208-0.094-0.208-0.209s0.093-0.209,0.208-0.209h5.25c0.49-0.262,3.199-1.668,4.341-1.276
					c0.227,0.077,0.387,0.218,0.476,0.417c0.112,0.253,0.041,0.445-0.04,0.563c-0.419,0.615-2.342,0.729-3.638,0.735
					c1.432,0.639,3.837,1.874,4.044,3.047c0.043,0.244,0.013,0.606-0.376,0.948C254.83,333.119,254.548,333.23,254.242,333.23z
					 M250.782,329.084c0.587,1.064,2.037,3.466,3.274,3.71c0.283,0.059,0.527-0.013,0.752-0.21c0.201-0.176,0.277-0.354,0.241-0.562
					C254.869,331.012,252.264,329.713,250.782,329.084z M251.168,328.484c1.533,0.015,3.263-0.145,3.54-0.551
					c0.021-0.032,0.042-0.072,0.003-0.158c-0.041-0.092-0.114-0.153-0.229-0.192C253.812,327.354,252.229,327.981,251.168,328.484z"
					/>
			</g>
		</g>
		<path fill="#FC7F61" d="M286.398,197.86l6.169-2.359c0,0,2.179,0.296,4.129-0.033c1.95-0.329,3.846-1.096,3.846-1.096
			s0.372,0.353,0.217,0.777c-0.155,0.424-0.316,0.551-0.316,0.551s0.614,0.078,0.678,0.476c0.064,0.398-0.471,0.976-0.671,1.092
			c-0.2,0.116-1.24,0.687-1.24,0.687s1.792,0.264,1.93,0.385c0.137,0.121-0.025,1.051-0.304,1.147s-4.782-0.803-5.698-0.539
			c-0.917,0.265-1.41,1.404-1.21,2.007c0.2,0.603,1.383,1.489,1.943,2.167c0.561,0.678-0.114,1.705-0.114,1.705
			s-2.426-2.104-2.979-2.251c-0.554-0.147-10.514-0.62-10.375-0.757S286.398,197.86,286.398,197.86z"/>
		<polygon fill="#CC1111" points="288.489,196.847 283.218,205.831 264.315,198.14 268.34,188.226 		"/>
		<path fill-rule="evenodd" clip-rule="evenodd" fill="#CC1111" d="M277.382,214.68c0,0-4.877-7.937-5.127-14.79
			c-0.25-6.853,3.769-22.211,3.769-22.211s0.447-7.817-2.792-14.845c-3.239-7.028-11.522-12.774-11.522-12.774l-11.416-0.213
			l9.763,66.355L277.382,214.68z"/>
		<path fill="#0A0909" d="M274.511,146.614c0,0,2.341,1.571,5.257,0.761c2.917-0.81,2.319-4.296,1.476-5.574
			c0,0,1.938-0.727,2.399-3.41c0.462-2.683-1.802-4.423-3.533-4.452c-1.732-0.029-2.638,0.753-2.638,0.753s-0.4-1.949-2.686-2.426
			c-2.286-0.476-3.144,1.614-3.144,1.614s-3.843-2.71-6.401-2.334c-2.559,0.376-4.026,7.562-4.026,7.562L274.511,146.614z"/>
		<path fill="#FC7F61" d="M259.336,144.118c-0.622-0.696-1.087-4.713,1.421-4.982c2.508-0.269,2.907,1.278,2.907,1.278
			s0,0.002,0.001,0.002c1.066-1.683,2.914-2.83,5.055-2.91c3.453-0.128,6.357,2.567,6.486,6.021
			c0.052,1.392-0.361,2.691-1.092,3.758l0.006,0.002c0,0-4.057,6.025-6.622,5.91c-1.31-0.059-2.56-0.287-3.632-0.884
			c0,0,0,0.001,0,0.001c-1.896,3.368-2.521,8.058-2.521,8.058s-3.082-0.797-5.703-3.366c-2.621-2.568-3.257-5.527-3.257-5.527
			C255.184,149.447,259.336,144.118,259.336,144.118z"/>
		<path fill="#0A0909" d="M274.888,145.726c-2.508,0.473-2.267-2.997-2.267-2.997s-1.94,0.54-2.894-1.202
			c-0.954-1.742,0.271-2.77,0.271-2.77s-1.542,1.287-3.004,0.984c-1.461-0.303-3.391,2.669-3.391,2.669l-0.839-0.717l0.899-1.278
			c0,0,1.405-3.438,3.072-3.874c1.668-0.436,7.778,0.365,8.931,2.427c1.152,2.062-0.366,7.123-0.366,7.123L274.888,145.726z"/>
		<path fill="#0A0909" d="M263.864,152.316c-1.995-1.398-2.551-4.081-2.551-4.081s-0.974,4.415,1.286,6.966
			C262.599,155.201,263.249,153.32,263.864,152.316z"/>
		<path fill="#FFFFFF" d="M252.383,151.48l-1.454,0.195c0,0,0.641,3.414,2.922,6.241c2.28,2.827,4.458,3.903,7.692,4.52
			l-0.198-2.062c0,0-2.936-0.662-5.493-3.374C253.294,154.288,252.383,151.48,252.383,151.48z"/>
		<g>
			<path fill="#0A0909" d="M270.318,173.884c-0.023,0-0.046-0.008-0.065-0.022c-0.347-0.259-8.51-6.398-8.764-9.944
				c-0.004-0.061,0.041-0.112,0.101-0.116c0.002-0.001,0.005-0.001,0.008-0.001c0.057,0,0.104,0.044,0.109,0.102
				c0.247,3.447,8.593,9.723,8.677,9.786c0.048,0.035,0.058,0.104,0.022,0.152C270.384,173.868,270.351,173.884,270.318,173.884z"/>
		</g>
		<g>
			<path fill="#0A0909" d="M256.521,188.335c-0.028,0-0.057-0.012-0.078-0.033c-5.725-5.863-12.406-17.896-12.473-18.018
				c-0.029-0.053-0.01-0.119,0.042-0.148c0.052-0.028,0.119-0.01,0.148,0.043c0.067,0.12,6.734,12.128,12.438,17.971
				c0.042,0.043,0.041,0.112-0.002,0.154C256.577,188.324,256.549,188.335,256.521,188.335z"/>
		</g>
		<g>
			<path fill="#0A0909" d="M245.916,174.562c-1.029,0-3.045-0.313-3.661-2.662c-0.015-0.058,0.02-0.117,0.078-0.133
				c0.058-0.018,0.118,0.02,0.133,0.078c0.784,2.993,3.995,2.47,4.028,2.461c0.061-0.008,0.116,0.029,0.126,0.089
				c0.01,0.06-0.029,0.115-0.089,0.126C246.523,174.523,246.282,174.562,245.916,174.562z"/>
		</g>
		
			<ellipse transform="matrix(0.9993 -0.0371 0.0371 0.9993 -5.3317 10.21)" fill="#0A0909" cx="272.255" cy="148.671" rx="0.587" ry="0.587"/>
		
			<ellipse transform="matrix(0.9993 -0.0371 0.0371 0.9993 -5.2215 10.0863)" fill="#0A0909" cx="269.004" cy="145.653" rx="0.587" ry="0.587"/>
		<g>
			<path fill="#0A0909" d="M268.611,151.095L268.611,151.095c-0.121,0-0.217-0.097-0.218-0.217l0,0c0-0.05-0.021-0.496-0.532-0.603
				c-0.118-0.025-0.193-0.141-0.168-0.259c0.024-0.118,0.139-0.191,0.258-0.169c0.697,0.146,0.879,0.738,0.878,1.03
				C268.828,150.998,268.731,151.095,268.611,151.095z"/>
		</g>
		<g>
			<path fill="#0A0909" d="M276.024,151.517c-0.029,0-0.057-0.012-0.079-0.034l-2.792-2.899c-0.042-0.043-0.041-0.112,0.003-0.153
				c0.044-0.042,0.113-0.04,0.154,0.003l2.792,2.899c0.042,0.043,0.041,0.112-0.003,0.153
				C276.079,151.507,276.052,151.517,276.024,151.517z"/>
		</g>
		<g>
			<path fill="#0A0909" d="M268.416,148.589c-1.557,0-2.852-1.236-2.911-2.806l0,0c-0.06-1.605,1.198-2.96,2.803-3.021
				c0.037-0.001,0.074-0.002,0.111-0.002c0.737,0,1.437,0.274,1.979,0.778c0.571,0.529,0.901,1.249,0.93,2.027
				c0.06,1.605-1.198,2.96-2.803,3.021C268.489,148.588,268.453,148.589,268.416,148.589z M265.724,145.775
				c0.055,1.451,1.252,2.595,2.693,2.595c0.034,0,0.067,0,0.102-0.002c1.485-0.055,2.648-1.309,2.593-2.794
				c-0.054-1.451-1.252-2.595-2.693-2.595c-0.034,0-0.067,0-0.102,0.002C266.832,143.036,265.669,144.29,265.724,145.775
				L265.724,145.775z"/>
		</g>
		<g>
			<path fill="#FFFFFF" d="M266.911,153.306c-1.316,0-2.344-0.426-2.417-0.456c-0.111-0.048-0.162-0.176-0.115-0.286
				c0.047-0.111,0.178-0.162,0.286-0.116c0.028,0.013,2.855,1.177,5.038-0.467c2.252-1.701,4.6-5.445,4.623-5.482
				c0.064-0.103,0.199-0.132,0.3-0.07c0.103,0.064,0.134,0.198,0.07,0.301c-0.097,0.156-2.414,3.851-4.73,5.6
				C268.965,153.084,267.863,153.306,266.911,153.306z"/>
		</g>
		<g>
			<path fill="#0A0909" d="M273.401,152.77c-0.737,0-1.437-0.274-1.979-0.778c-0.57-0.529-0.9-1.249-0.929-2.027
				c-0.029-0.777,0.247-1.521,0.776-2.091c0.53-0.57,1.25-0.899,2.027-0.929c0.789-0.022,1.521,0.247,2.09,0.776
				c0.57,0.529,0.9,1.249,0.929,2.027c0.029,0.777-0.247,1.52-0.776,2.09c-0.53,0.57-1.25,0.9-2.027,0.93
				C273.475,152.769,273.438,152.77,273.401,152.77z M273.407,147.162c-0.034,0-0.068,0-0.103,0.002
				c-0.719,0.026-1.385,0.331-1.875,0.858c-0.49,0.528-0.745,1.215-0.718,1.935c0.054,1.451,1.252,2.595,2.692,2.595
				c0.034,0,0.067,0,0.102-0.002c0.719-0.026,1.385-0.332,1.875-0.859s0.745-1.214,0.718-1.934s-0.332-1.386-0.86-1.875
				C274.735,147.415,274.088,147.162,273.407,147.162z"/>
		</g>
		<g>
			<path fill="#0A0909" d="M271.631,147.796c-0.057,0-0.104-0.044-0.109-0.102l0,0c-0.001-0.02-0.046-0.489-0.638-0.63
				c-0.059-0.015-0.095-0.073-0.081-0.132c0.013-0.059,0.069-0.1,0.131-0.081c0.601,0.145,0.789,0.604,0.805,0.827
				c0.004,0.061-0.042,0.112-0.102,0.116C271.636,147.796,271.634,147.796,271.631,147.796z"/>
		</g>
		<path fill="#0A0909" d="M258.961,184.737c0.26,0.445,0.497,0.824,0.707,1.148L258.961,184.737c0,0,3.729-5.227,11.357-10.963
			c-5.469,5.226-8.337,8.591-10.629,12.142c0.504,0.773,0.834,1.189,0.834,1.189s-2.314,1.972-3.151,1.88
			C256.534,188.894,257.354,186.666,258.961,184.737z"/>
		<polygon fill="#1036BF" points="266.669,197.793 268.539,216.441 264.512,215.812 		"/>
		<g>
			<circle fill="#0A0909" cx="304.751" cy="181.797" r="26.558"/>
			<circle fill="#FCB925" cx="310.136" cy="181.797" r="26.558"/>
			<circle fill="#FE891E" cx="310.136" cy="181.797" r="22.555"/>
			<path fill="#0A0909" d="M329.778,181.797c0-11.967-9.321-21.751-21.098-22.503c0.482-0.031,0.967-0.052,1.457-0.052
				c12.457,0,22.555,10.098,22.555,22.555c0,12.457-10.098,22.555-22.555,22.555c-0.49,0-0.974-0.021-1.457-0.052
				C320.457,203.548,329.778,193.764,329.778,181.797z"/>
			<g>
				<path fill="#FCB925" d="M304.342,181.259h1.328c-3.628,0-6.569-2.941-6.569-6.569l0,0c0-3.628,2.941-6.569,6.569-6.569h10.876
					v13.138V196h-12.204c-4.071,0-7.371-3.3-7.371-7.371l0,0C296.971,184.559,300.271,181.259,304.342,181.259z M312.777,171.71
					h-5.943c-1.982,0-3.59,1.607-3.59,3.59v0c0,1.982,1.607,3.59,3.59,3.59h5.943V171.71z M301.662,187.743
					c0,2.273,1.842,4.115,4.115,4.115h6.814v-8.23h-6.814C303.504,183.628,301.662,185.47,301.662,187.743L301.662,187.743z"/>
				
					<rect x="316.546" y="168.121" transform="matrix(-1 -1.224647e-16 1.224647e-16 -1 637.9028 339.831)" fill="#FCB925" width="4.81" height="3.59"/>
				
					<rect x="316.546" y="192.411" transform="matrix(-1 -1.224647e-16 1.224647e-16 -1 637.9028 388.4112)" fill="#FCB925" width="4.81" height="3.59"/>
				
					<rect x="310.911" y="164.387" transform="matrix(-1 -1.224647e-16 1.224647e-16 -1 625.0521 333.2979)" fill="#FCB925" width="3.231" height="4.523"/>
				
					<rect x="306.48" y="164.387" transform="matrix(-1 -1.224647e-16 1.224647e-16 -1 616.1901 333.2979)" fill="#FCB925" width="3.231" height="4.523"/>
				
					<rect x="310.911" y="194.684" transform="matrix(-1 -1.224647e-16 1.224647e-16 -1 625.0521 393.8902)" fill="#FCB925" width="3.231" height="4.523"/>
				
					<rect x="306.48" y="194.684" transform="matrix(-1 -1.224647e-16 1.224647e-16 -1 616.1901 393.8902)" fill="#FCB925" width="3.231" height="4.523"/>
			</g>
		</g>
		<path fill="#FC7F61" d="M270.318,173.775l7.185,8.008c0,0,8.354-3.32,13.872-5.24c5.518-1.92,12.243-3.664,13.562-5.847
			c1.32-2.182,2.369-5.554,2.768-5.574c0.4-0.02,1.723-0.187,3.317-0.899c1.594-0.711,2.379-1.572,2.613-1.907
			c0.234-0.336,0.878,0.177,0.501,0.901c0,0,0.163,0.011,0.423-0.018s0.208,0.389,0.208,0.389s0.7-0.304,0.781-0.111
			c0.081,0.193,0.048,1.01-0.831,1.536c-0.879,0.526-2.287,1.601-2.287,1.601s1.378,0.398,2.548-0.272
			c1.17-0.67,1.061-0.794,1.225-0.783c0.163,0.011,0.465,0.734-0.795,1.703c-1.26,0.968-2.503,0.978-3.012,1.575
			c-0.509,0.598-1.025,1.125-1.41,3.172c-0.385,2.047-0.437,4.362-2.18,5.192c-1.743,0.83-2.962,0.677-6.282,2.981
			c-3.319,2.304-12.086,8.758-16.209,11.523c-4.123,2.764-11.164,6.408-13.225,5.706c-2.06-0.702-10.193-5.8-14.129-12.673
			C258.961,184.738,262.919,179.572,270.318,173.775z"/>
		<g>
			<path fill="#0A0909" d="M277.713,182.014c-0.059,0-0.117-0.023-0.159-0.068l-4.03-4.271c-0.083-0.087-0.079-0.226,0.009-0.308
				c0.088-0.083,0.227-0.079,0.309,0.009l3.93,4.165l13.945-5.339c0.115-0.039,0.239,0.015,0.282,0.126
				c0.043,0.112-0.013,0.238-0.125,0.282l-14.082,5.391C277.766,182.011,277.739,182.014,277.713,182.014z"/>
		</g>
		<g>
			<path fill="#0A0909" d="M310.009,165.481c-0.049,0-0.093-0.033-0.105-0.082c-0.016-0.059,0.02-0.118,0.078-0.133
				c0.891-0.231,2.633-1.231,3.854-2.018c0.049-0.032,0.118-0.019,0.15,0.033c0.032,0.05,0.018,0.118-0.033,0.15
				c-1.234,0.795-3.001,1.808-3.917,2.045C310.027,165.48,310.017,165.481,310.009,165.481z"/>
		</g>
		<g>
			<path fill="#0A0909" d="M310.307,165.924c-0.051,0-0.096-0.035-0.106-0.086c-0.013-0.06,0.024-0.117,0.083-0.13
				c1.204-0.261,4.104-1.982,4.133-2c0.051-0.03,0.117-0.014,0.149,0.038c0.031,0.052,0.014,0.118-0.038,0.149
				c-0.12,0.071-2.959,1.757-4.197,2.025C310.322,165.923,310.314,165.924,310.307,165.924z"/>
		</g>
		<g>
			<path fill="#0A0909" d="M312.259,166.712l-1.492-0.102c-0.06-0.004-0.105-0.056-0.101-0.116c0.004-0.058,0.052-0.102,0.108-0.102
				c0.002,0,0.005,0,0.008,0.001l1.492,0.102L312.259,166.712z"/>
		</g>
		<g>
			<path fill="#0A0909" d="M306.592,175.966c-0.17,0-0.354-0.038-0.555-0.099c-0.058-0.018-0.091-0.078-0.073-0.136
				c0.019-0.059,0.084-0.089,0.136-0.073c0.577,0.178,0.93,0.143,1.246-0.528c0.026-0.054,0.091-0.074,0.146-0.052
				c0.055,0.026,0.077,0.091,0.052,0.146C307.28,175.776,306.972,175.966,306.592,175.966z"/>
		</g>
		<path fill="#CC1111" d="M298.083,172.605l3.822,11.807c0,0-19.455,14.06-25.012,14.601c-5.557,0.541-10.074-2.022-10.074-2.022
			s-2.046,10.682-2.239,16.157c-0.193,5.476,0,9.213,0,9.213l-22.905,2.013l-1.006-4.691l-2.444,4.691c0,0-2.012,1.006-10.062,0
			c-8.05-1.006-13.081-4.691-13.081-4.691s-0.575-21.958,6.9-37.886c7.475-15.928,14.95-25.526,20.987-29.136
			c6.037-3.61,8.141-2.798,8.141-2.798l21.733,25.313c0,0,3.14,3.199,5.249,3.199S298.083,172.605,298.083,172.605z"/>
		<g>
			<path fill="#0A0909" d="M244.342,183.248c-0.109,0-0.21-0.005-0.302-0.018c-1.305-0.169-2.979-1.215-3.049-1.259
				c-0.096-0.061-0.125-0.188-0.064-0.284c0.061-0.097,0.188-0.125,0.284-0.065c0.017,0.011,1.668,1.043,2.882,1.2
				c1.205,0.138,4.377-0.959,4.409-0.97c0.107-0.037,0.225,0.019,0.263,0.126c0.038,0.106-0.018,0.225-0.125,0.263
				C248.515,182.285,245.777,183.248,244.342,183.248z"/>
		</g>
		<g>
			<path fill="#0A0909" d="M276.024,177.886c-0.015,0-0.029-0.001-0.044-0.005c-0.047-0.01-1.174-0.27-2.45-1.667l-6.465-7.217
				c-0.076-0.085-0.069-0.215,0.016-0.291c0.086-0.075,0.216-0.067,0.291,0.016l6.464,7.216c1.178,1.291,2.222,1.539,2.233,1.541
				c0.11,0.025,0.181,0.135,0.156,0.246C276.204,177.82,276.119,177.886,276.024,177.886z"/>
		</g>
		<g>
			<path fill="#0A0909" d="M275.713,199.29c-0.006,0-0.011,0-0.018,0c-5.506-0.009-8.845-2.036-8.984-2.123l-22.404-18.345
				c-0.088-0.072-0.101-0.202-0.029-0.29c0.073-0.088,0.203-0.101,0.29-0.028l22.382,18.329c0.011,0.004,3.365,2.036,8.747,2.045
				c0.005,0,0.011,0,0.017,0c5.347,0,9-3.602,9.037-3.638c0.08-0.08,0.211-0.082,0.292,0c0.081,0.08,0.081,0.21,0,0.291
				C285.004,195.568,281.235,199.29,275.713,199.29z"/>
		</g>
	</g>
	<g id="blue_shirt_girl_1_">
		<path fill="#FC7F61" d="M372.13,193.28l-6.015,8.8l-21.378,9.228l2.888,5.985c0,0,22.23-2.565,25.437-4.382
			c3.206-1.817,9.194-12.22,9.194-12.22l-3.498-5.395L372.13,193.28z"/>
		<path fill="#0A0909" d="M372.037,153.38c4.092-2.676,8.744-3.046,14.773-0.104c6.03,2.942,6.243,10.76,6.243,10.76
			s11.37-3.263,22.557,4.054c0,0-3.03-1.622-9.674-2.353c0,0,9.54,0.702,16.268,15.314c0,0-12.474-6.611-21.257-7.946
			c-8.782-1.335-11.271-1.049-13.788-3.141c-2.518-2.092-4.611,5.525-4.611,5.525s-7.339,0.745-11.759-4.117
			c-4.419-4.862-4.017-12.146-3.565-14.084C367.676,155.349,372.037,153.38,372.037,153.38z"/>
		<path fill="#FEB91E" d="M423.643,327.872l0.878,16.812H394.32c0,0,0.307-3.292,7.243-6.804c6.936-3.512,9.647-7.555,9.569-10.008
			H423.643z"/>
		<path fill="#FFFFFF" d="M394.32,344.684c0,0,0.135-0.643,0.393-1.095l25.286-0.386l-1.048,1.482H394.32z"/>
		<path fill="#FEB91E" d="M428.574,198.936c4.375,6.598,15.261,12.963,22.284,20.842c7.023,7.879,4.741,29.652,3.687,46.508
			c-1.053,16.856-4.214,44.949-4.214,44.949l-17.91-1.053c0,0,0.176-17.734-1.053-33.361l-4.565,34.415h-16.856
			c0,0,0.351-17.734,0-46.354c-0.351-28.62-8.594-40.105-8.594-40.105S414.016,204.98,428.574,198.936z"/>
		<path fill="#FC7F61" d="M433.819,310.264c0.183,4,1.193,18.53,1.193,18.53h12.203l1.709-17.641L433.819,310.264z"/>
		<path fill="#FC7F61" d="M410.606,311.235l0.527,16.637h12.51c0,0,1.712-10.228,1.931-16.637H410.606z"/>
		<polygon fill="#0A0909" points="433.819,310.264 448.798,312.449 448.924,311.152 		"/>
		<path fill="#0A0909" d="M410.606,311.235l14.894,1.517c0,0,0.118-0.957,0.074-1.517H410.606z"/>
		<path fill="#FEB91E" d="M447.215,328.793l0.79,16.549h-29.147c0,0-0.22-3.731,7.418-7.199c7.638-3.468,8.735-9.35,8.735-9.35
			H447.215z"/>
		<path fill="#FFFFFF" d="M424.708,338.916c1.262,1.773,5.607,0.017,8.109-2.134c2.502-2.151,3.819-4.609,4.302-6.76
			c0.483-2.151,0.615-2.766,0.483-3.248c-0.132-0.483-2.771-0.612-2.729,0c0.042,0.612,0.183,2.985-0.914,4.565
			C432.861,332.92,430.031,335.651,424.708,338.916z"/>
		<path fill="#FFFFFF" d="M400.367,338.519c1.24,0.985,2.82,0.721,5.542-0.639c2.721-1.361,4.829-3.292,6.628-6.365
			c1.8-3.073,1.405-4.96,1.405-5.97c0-1.01-2.933-1.582-2.89-0.22c0.043,1.362,0.476,2.634-0.666,4.917
			C409.245,332.525,405.47,335.817,400.367,338.519z"/>
		<path fill="#FFFFFF" d="M418.858,345.342c0,0,0.044-0.593,0.176-0.966l28.896-0.619l0.076,1.585H418.858z"/>
		<g>
			<path fill="#0A0909" d="M431.325,274.831c-0.111,0-0.203-0.09-0.205-0.201c-0.213-11.287-0.712-37.719-12.038-46.725
				c-0.088-0.07-0.103-0.199-0.032-0.288c0.069-0.088,0.199-0.104,0.288-0.032c11.476,9.126,11.978,35.692,12.192,47.037
				c0.002,0.113-0.088,0.207-0.201,0.209C431.328,274.831,431.326,274.831,431.325,274.831z"/>
		</g>
		<g>
			<path fill="#0A0909" d="M440.06,305.909c-0.005,0-0.011,0-0.017-0.001l-7.638-0.613c-0.112-0.009-0.196-0.107-0.188-0.221
				c0.01-0.112,0.089-0.206,0.221-0.188l7.638,0.613c0.112,0.009,0.196,0.107,0.188,0.221
				C440.256,305.828,440.166,305.909,440.06,305.909z"/>
		</g>
		<g>
			<path fill="#0A0909" d="M450.88,306.438c-0.004,0-0.009,0-0.013-0.001l-8.361-0.529c-0.113-0.007-0.199-0.104-0.191-0.217
				c0.007-0.108,0.097-0.192,0.204-0.192c0.004,0,0.009,0,0.013,0.001l8.361,0.529c0.113,0.007,0.199,0.104,0.191,0.217
				C451.077,306.354,450.987,306.438,450.88,306.438z"/>
		</g>
		<g>
			<path fill="#0A0909" d="M427.394,306.983c-0.002,0-0.004,0-0.007,0l-17.376-0.545c-0.112-0.004-0.201-0.099-0.198-0.212
				c0.004-0.11,0.095-0.198,0.205-0.198c0.002,0,0.004,0,0.007,0l17.376,0.545c0.112,0.004,0.201,0.099,0.198,0.212
				C427.596,306.895,427.505,306.983,427.394,306.983z"/>
		</g>
		<g>
			<path fill="#0A0909" d="M430.052,339.85c-0.045,0-0.09-0.015-0.127-0.045c-1.063-0.841-3.449-1.851-3.473-1.861
				c-0.104-0.044-0.153-0.164-0.109-0.268c0.043-0.104,0.165-0.156,0.268-0.109c0.101,0.042,2.462,1.041,3.568,1.918
				c0.089,0.069,0.104,0.198,0.033,0.287C430.172,339.824,430.112,339.85,430.052,339.85z"/>
		</g>
		<g>
			<path fill="#0A0909" d="M433.819,338.129c-0.079,0-0.154-0.046-0.188-0.123c-0.437-0.993-3.518-1.618-4.667-1.774
				c-0.112-0.016-0.19-0.119-0.176-0.23c0.015-0.112,0.123-0.183,0.23-0.176c0.447,0.061,4.381,0.635,4.987,2.017
				c0.046,0.104-0.002,0.224-0.105,0.27C433.875,338.123,433.847,338.129,433.819,338.129z"/>
		</g>
		<g>
			<path fill="#0A0909" d="M435.846,335.495c-0.026,0-0.054-0.006-0.08-0.017c-2.015-0.857-4.365-1.202-4.389-1.205
				c-0.112-0.017-0.189-0.12-0.174-0.232c0.017-0.111,0.122-0.185,0.232-0.174c0.023,0.004,2.427,0.356,4.49,1.234
				c0.104,0.044,0.152,0.165,0.108,0.269C436.001,335.448,435.925,335.495,435.846,335.495z"/>
		</g>
		<g>
			<path fill="#0A0909" d="M430.807,333.122c-0.315,0-0.611-0.076-0.87-0.253c-0.354-0.24-0.39-0.5-0.358-0.675
				c0.155-0.845,2.537-1.634,3.977-2.036c-1.929-0.329-4.797-0.939-4.954-1.679c-0.029-0.135-0.004-0.335,0.281-0.517
				c1.466-0.935,5.103,1.506,5.731,1.942h3.91c0.113,0,0.205,0.092,0.205,0.205s-0.092,0.205-0.205,0.205h-3.22
				c0.004,0.056-0.016,0.112-0.058,0.155C435.123,330.595,432.629,333.122,430.807,333.122z M434.573,330.315
				c-1.848,0.446-4.48,1.344-4.592,1.953c-0.015,0.08,0.048,0.169,0.186,0.263c1.177,0.801,3.641-1.219,4.655-2.216H434.573z
				 M429.722,328.157c-0.243,0-0.455,0.046-0.619,0.151c-0.089,0.057-0.102,0.092-0.102,0.092c0.066,0.33,2.103,0.916,4.633,1.354
				C432.493,329.049,430.793,328.157,429.722,328.157z"/>
		</g>
		<g>
			<path fill="#0A0909" d="M407.533,338.905c-0.03,0-0.061-0.007-0.09-0.021l-4.072-1.99c-0.102-0.049-0.144-0.172-0.094-0.273
				c0.05-0.103,0.173-0.142,0.273-0.094l4.072,1.99c0.102,0.049,0.144,0.172,0.094,0.273
				C407.682,338.863,407.608,338.905,407.533,338.905z"/>
		</g>
		<g>
			<path fill="#0A0909" d="M410.343,337.181c-0.036,0-0.072-0.01-0.105-0.029c-0.102-0.039-2.925-1.021-4.793-1.669
				c-0.106-0.037-0.163-0.153-0.126-0.261c0.037-0.106,0.152-0.164,0.261-0.126c4.807,1.667,4.846,1.69,4.869,1.704
				c0.097,0.059,0.128,0.185,0.07,0.281C410.48,337.145,410.412,337.181,410.343,337.181z"/>
		</g>
		<g>
			<path fill="#0A0909" d="M412.274,334.886c-0.067,0-0.133-0.033-0.172-0.095c-0.209-0.256-2.463-0.773-4.431-1.105
				c-0.111-0.019-0.187-0.125-0.168-0.236c0.018-0.11,0.115-0.189,0.236-0.168c1.308,0.221,4.385,0.788,4.706,1.289
				c0.062,0.095,0.034,0.222-0.062,0.282C412.35,334.875,412.312,334.886,412.274,334.886z"/>
		</g>
		<g>
			<path fill="#0A0909" d="M408.977,332.141c-0.161,0-0.319-0.053-0.466-0.157c-0.272-0.195-0.314-0.427-0.301-0.586
				c0.045-0.54,0.819-1.128,1.489-1.54c-1.168,0.094-2.938,0.12-3.401-0.527c-0.116-0.162-0.211-0.442-0.002-0.851
				c0.181-0.351,0.461-0.569,0.836-0.648c1.254-0.288,3.267,1.217,3.639,1.505h5.541c0.113,0,0.205,0.092,0.205,0.205
				s-0.092,0.205-0.205,0.205h-5.467c-0.187,0.513-0.817,2.093-1.628,2.355C409.138,332.129,409.057,332.141,408.977,332.141z
				 M410.316,329.974c-0.797,0.447-1.665,1.072-1.697,1.457c-0.005,0.056,0.006,0.13,0.131,0.219
				c0.113,0.08,0.222,0.101,0.342,0.063C409.562,331.56,410.038,330.641,410.316,329.974z M407.466,328.208
				c-0.087,0-0.17,0.008-0.248,0.024c-0.251,0.054-0.434,0.196-0.556,0.436c-0.125,0.243-0.077,0.359-0.029,0.425
				c0.349,0.487,2.185,0.459,3.538,0.311C409.465,328.905,408.288,328.208,407.466,328.208z"/>
		</g>
		<g>
			<path fill="#0A0909" d="M442.518,305.806c-0.002,0-0.003,0-0.005,0c-0.057-0.003-0.1-0.051-0.098-0.107
				c0.012-0.246,1.148-24.93,1.804-47.572c0.604-20.906-3.29-34.447-11.906-41.396c-0.044-0.036-0.051-0.101-0.016-0.145
				c0.035-0.045,0.1-0.05,0.145-0.016c8.669,6.992,12.589,20.588,11.982,41.562c-0.655,22.645-1.793,47.329-1.804,47.576
				C442.618,305.763,442.573,305.806,442.518,305.806z"/>
		</g>
		<path fill="#1636BD" d="M390.191,168.359c3.58-1.764,10.947-1.936,20.468,4.044c9.522,5.98,18.521,14.653,24.765,21.742
			c6.245,7.09,8.608,11.209,8.608,11.209s-10.367,6.581-21.816,13.3c-11.449,6.719-20.389,11.96-20.389,11.96
			s-4.141-10.628-8.811-16.071l-10.761-13.853c0,0-9.324-7.181-11.226-8.125c0,0,2.768-4.721,4.589-8.145
			c1.821-3.424,3.144-8.365,3.855-9.97c0.711-1.605,9.31-5.669,9.31-5.669L390.191,168.359z"/>
		<path fill="#0A0909" d="M398.868,202.153c-0.107,0.505-0.213,0.94-0.312,1.314L398.868,202.153c0,0-5.193-3.801-14.255-6.857
			c6.847,3.252,10.636,5.55,13.934,8.208c-0.236,0.894-0.531,1.424-0.531,1.424s2.934,1.118,3.701,0.767
			C402.484,205.344,401.004,203.482,398.868,202.153z"/>
		<path fill="#0A0909" d="M372.13,193.28c2.829,2.16,9.518,8.8,9.518,8.8l0.607-1.389
			C382.255,200.691,376.503,195.294,372.13,193.28z"/>
		<g>
			<path fill="#0A0909" d="M384.4,194.885c-0.011,0-0.021-0.002-0.032-0.005c-0.058-0.018-0.09-0.079-0.072-0.137
				c0.023-0.075,2.302-7.51,1.101-10.771c-0.021-0.057,0.008-0.12,0.064-0.141c0.058-0.021,0.12,0.009,0.141,0.064
				c1.228,3.331-1.001,10.604-1.097,10.911C384.49,194.854,384.447,194.885,384.4,194.885z"/>
		</g>
		<g>
			<path fill="#0A0909" d="M402.286,204.813c-0.017,0-0.032-0.004-0.048-0.011c-0.055-0.027-0.077-0.093-0.051-0.146
				c3.59-7.354,6.154-20.877,6.18-21.013c0.011-0.059,0.072-0.094,0.128-0.087c0.059,0.011,0.098,0.068,0.087,0.128
				c-0.025,0.136-2.595,13.687-6.197,21.067C402.365,204.791,402.326,204.813,402.286,204.813z"/>
		</g>
		<g>
			<path fill="#0A0909" d="M407.463,188.523c-0.054,0-0.1-0.039-0.108-0.094c-0.009-0.06,0.032-0.115,0.093-0.124
				c0.133-0.02,3.253-0.52,3.057-3.609c-0.004-0.061,0.042-0.112,0.103-0.116c0.063,0.007,0.112,0.043,0.116,0.103
				c0.209,3.292-3.209,3.834-3.244,3.84C407.474,188.523,407.468,188.523,407.463,188.523z"/>
		</g>
		<path fill="#FC7F61" d="M390.191,168.359c0,0-7.344-4.008-6.766-4.418c2.71-1.921,2.214-4.059,1.045-5.216
			c-1.042-1.031-3.5-1.058-4.083,0.168c-0.769-1.551-2.262-2.711-4.105-2.975c-2.976-0.427-5.736,1.639-6.163,4.616
			c-0.222,1.549,0.235,3.036,1.14,4.169l-0.002,0.001c1.88,3.049,4.224,6.006,5.844,5.744c0.506-0.082,2.171-0.915,2.762-1.998
			c0.968,1.173,4.911,13.63,4.911,13.63L390.191,168.359z"/>
		<path fill="#0A0909" d="M378.757,169.601c1.482-1.287,2.72-3.458,2.72-3.458s-0.061,3.015-1.861,5.218
			C379.617,171.362,379.311,170.661,378.757,169.601z"/>
		<path fill="#0A0909" d="M369.561,161.331c0,0,1.878,0.863,5.377,0.772c3.499-0.091,5.732-1.699,5.732-1.699
			s-2.259,0.755-5.573,0.593c0,0,4.724-0.301,7.611-3.134c2.887-2.833-6.269-4.147-6.269-4.147l-4.455,1.585l-2.816,3.081
			L369.561,161.331z"/>
		<g>
			<path fill="#0A0909" d="M383.011,162.414c-0.087,0-0.17-0.05-0.208-0.134c-0.035-0.077-0.837-1.896,0.477-3.283
				c0.087-0.091,0.232-0.096,0.323-0.009c0.092,0.087,0.096,0.231,0.009,0.323c-1.101,1.161-0.422,2.715-0.393,2.78
				c0.052,0.114,0.001,0.25-0.114,0.302C383.074,162.407,383.042,162.414,383.011,162.414z"/>
		</g>
		<g>
			<path fill="#0A0909" d="M384.391,161.065c-0.08,0-0.158-0.042-0.199-0.117c-0.347-0.624-1.305-0.361-1.313-0.356
				c-0.119,0.033-0.247-0.034-0.282-0.156c-0.035-0.121,0.034-0.248,0.155-0.283c0.051-0.014,1.313-0.37,1.839,0.573
				c0.062,0.11,0.022,0.25-0.088,0.311C384.467,161.055,384.429,161.065,384.391,161.065z"/>
		</g>
		
			<ellipse transform="matrix(0.1421 -0.9899 0.9899 0.1421 159.6886 511.4863)" fill="#0A0909" cx="374.917" cy="163.62" rx="0.615" ry="0.615"/>
		<g>
			<path fill="#0A0909" d="M375.325,168.592c-0.043,0-0.087-0.013-0.125-0.037c-0.105-0.069-0.135-0.211-0.066-0.316
				c0.868-1.322,0.732-2.032,0.731-2.039c-0.025-0.122,0.051-0.244,0.173-0.271c0.125-0.031,0.241,0.046,0.271,0.167
				c0.009,0.035,0.199,0.882-0.793,2.394C375.473,168.555,375.399,168.592,375.325,168.592z"/>
		</g>
		<path fill="#FFFFFF" d="M388.85,167.611l1.341,0.747c0,0,0.823,3.382-0.092,6.905c-0.915,3.522-2.46,5.404-5.158,7.302
			l-0.909-1.878c0,0,2.188-2.225,3.404-5.756C388.651,171.4,388.85,167.611,388.85,167.611z"/>
		<path fill="#FC7F61" d="M351.31,209.464l-9.687,2.611c0,0-1.921,0.827-3.791,1.023c-1.87,0.196-3.804-0.022-3.804-0.022
			s-0.251,0.418,0,0.767c0.25,0.349,0.43,0.424,0.43,0.424s-0.543,0.229-0.5,0.609c0.043,0.381,0.68,0.774,0.893,0.829
			c0.213,0.055,1.312,0.313,1.312,0.313s-1.575,0.699-1.669,0.845c-0.095,0.146,0.291,0.957,0.572,0.973
			c0.28,0.016,4.176-1.956,5.083-1.948c0.908,0.008,1.65,0.926,1.621,1.53c-0.029,0.604-0.887,1.717-1.228,2.481
			c-0.341,0.764,0.54,1.533,0.54,1.533s1.685-2.547,2.155-2.823c0.47-0.276,11.124-3.071,10.962-3.162
			C354.036,215.359,351.31,209.464,351.31,209.464z"/>
		<path fill="#FC7F61" d="M385.571,195.823l-4.539,9.171c0,0-8.501-0.91-14.047-1.26c-5.546-0.351-12.152-0.233-13.918-1.895
			c-1.766-1.663-3.588-4.484-3.959-4.4c-0.371,0.084-1.626,0.268-3.268,0.023c-1.642-0.245-2.581-0.833-2.881-1.08
			c-0.3-0.248-0.759,0.386-0.229,0.953c0,0-0.147,0.052-0.392,0.091c-0.245,0.04-0.091,0.409-0.091,0.409s-0.719-0.1-0.743,0.098
			c-0.025,0.197,0.214,0.938,1.153,1.195c0.94,0.257,2.504,0.883,2.504,0.883s-1.161,0.717-2.404,0.402
			c-1.243-0.315-1.175-0.457-1.322-0.405s-0.239,0.792,1.163,1.357c1.402,0.565,2.542,0.257,3.161,0.675
			c0.619,0.418,1.226,0.769,2.102,2.546c0.875,1.777,1.514,3.885,3.323,4.201c1.809,0.316,2.887-0.136,6.516,1.128
			c3.629,1.264,13.308,4.94,17.791,6.42c4.483,1.48,11.864,3.022,13.573,1.852c1.709-1.169,7.859-7.915,9.711-15.217
			C398.774,202.969,393.829,199.247,385.571,195.823z"/>
	</g>
</g>
</svg>
