<svg xmlns="http://www.w3.org/2000/svg" xmlns:xlink="http://www.w3.org/1999/xlink" viewBox="0 0 1280 1280"><defs><style>.cls-1{fill:#ffba02;}.cls-2{fill:#8080eb;}.cls-11,.cls-3,.cls-37,.cls-38{fill:#fff;}.cls-12,.cls-13,.cls-27,.cls-4,.cls-5,.cls-8{fill:#38aca1;}.cls-4{clip-path:url(#clip-path);}.cls-5{clip-path:url(#clip-path-2);}.cls-33,.cls-6{fill:#d82525;}.cls-6{clip-path:url(#clip-path-3);}.cls-39,.cls-7{fill:#ffb200;}.cls-37,.cls-38,.cls-41,.cls-7{stroke:#5835a1;}.cls-11,.cls-37,.cls-41,.cls-44,.cls-58,.cls-59,.cls-7,.cls-8{stroke-miterlimit:10;}.cls-37,.cls-38,.cls-41,.cls-42,.cls-7{stroke-width:3px;}.cls-42,.cls-44,.cls-8{stroke:#2b2e42;}.cls-44,.cls-8{stroke-width:2px;}.cls-19,.cls-9{fill:#2b2e42;}.cls-9{clip-path:url(#clip-path-4);}.cls-10{fill:#e18fb4;}.cls-11,.cls-59{stroke:#38aca1;}.cls-11,.cls-58,.cls-59{stroke-width:4px;}.cls-12{clip-path:url(#clip-path-5);}.cls-13{clip-path:url(#clip-path-6);}.cls-14{fill:#f2f4f7;}.cls-15{fill:#5934a1;}.cls-16{clip-path:url(#clip-path-7);}.cls-17{fill:#343463;}.cls-18{fill:#1e2664;}.cls-20{clip-path:url(#clip-path-8);}.cls-21{fill:#6c7ad6;}.cls-22{clip-path:url(#clip-path-9);}.cls-23{fill:#d9878a;}.cls-24{clip-path:url(#clip-path-10);}.cls-25{clip-path:url(#clip-path-11);}.cls-26{fill:#ffba00;}.cls-28{clip-path:url(#clip-path-12);}.cls-29{clip-path:url(#clip-path-13);}.cls-30{fill:#cc2121;}.cls-31{clip-path:url(#clip-path-14);}.cls-32{clip-path:url(#clip-path-15);}.cls-34{clip-path:url(#clip-path-16);}.cls-35{fill:#f33;}.cls-36{fill:#e02a2a;}.cls-38,.cls-42{stroke-linecap:round;stroke-linejoin:round;}.cls-40{clip-path:url(#clip-path-17);}.cls-41,.cls-42,.cls-44,.cls-58,.cls-59{fill:none;}.cls-43{clip-path:url(#clip-path-18);}.cls-45{clip-path:url(#clip-path-19);}.cls-46{fill:#3994ab;}.cls-47{clip-path:url(#clip-path-20);}.cls-48{clip-path:url(#clip-path-21);}.cls-49{clip-path:url(#clip-path-22);}.cls-50{clip-path:url(#clip-path-23);}.cls-51{fill:#d686ae;}.cls-52{clip-path:url(#clip-path-24);}.cls-53{clip-path:url(#clip-path-25);}.cls-54{clip-path:url(#clip-path-26);}.cls-55{clip-path:url(#clip-path-27);}.cls-56{clip-path:url(#clip-path-28);}.cls-57{clip-path:url(#clip-path-29);}.cls-58{stroke:#ffba00;}.cls-60{fill:#5835a1;}</style><clipPath id="clip-path"><path class="cls-3" d="M247.09,739.39l19.4-5.7v69.7H244.91a5,5,0,0,1-5-5V749A10,10,0,0,1,247.09,739.39Z"/></clipPath><clipPath id="clip-path-2"><path class="cls-3" d="M268.71,937.93l-30.79-.82a10,10,0,0,1-7.9-9.78V813.39a10,10,0,0,1,10-10h28.69Z"/></clipPath><clipPath id="clip-path-3"><rect class="cls-3" x="275.23" y="785.47" width="48.39" height="5.66" rx="2.83"/></clipPath><clipPath id="clip-path-4"><path class="cls-2" d="M611,660.28s62,89.55,140.89,56.77c0,0-15.83,153.12-123,188.74s-5.5-34.35-48.44-81-48.26-49.28-48.26-49.28Z"/></clipPath><clipPath id="clip-path-5"><rect class="cls-3" x="254.86" y="929.51" width="28.95" height="77.39"/></clipPath><clipPath id="clip-path-6"><rect class="cls-3" x="295.81" y="929.51" width="25.84" height="77.39"/></clipPath><clipPath id="clip-path-7"><path class="cls-1" d="M498,1091s-17.71-123.81-32.52-202.19C555.2,848,710.49,733.89,765,708.63s93.26-38.29,139.78-46l98.35,452.22Z"/></clipPath><clipPath id="clip-path-8"><path class="cls-9" d="M587.91,917c-4.6,0-7.67-1-9.52-2.91-4.5-4.69-1.12-13.66,3.16-25,6.87-18.22,16.28-43.17-2.23-63.26-41.26-44.8-47.63-48.84-47.88-49l-1.54-.77,1-1.39,80.09-117,1.24,1.79a190.47,190.47,0,0,0,40.59,40.36C686,723.7,719.17,729,751.34,715.66l2.33-1-.26,2.5A335.52,335.52,0,0,1,732,798.63c-10.14,25-22.76,46.36-37.52,63.61-18.5,21.63-40.41,36.76-65.13,45C609.41,913.83,596.19,917,587.91,917ZM534.22,775.19c3.37,2.72,14.19,12.65,47.31,48.61,19.76,21.45,10,47.4,2.83,66.35-3.76,10-7,18.56-3.81,21.88,4.09,4.25,19.29,1.82,47.85-7.67,24.18-8,45.63-22.85,63.76-44,14.55-17,27-38.12,37-62.76a337.53,337.53,0,0,0,20.94-78.18c-32.07,12.38-66.28,6.45-99.1-17.21a195.72,195.72,0,0,1-39.95-39.3Z"/></clipPath><clipPath id="clip-path-9"><path class="cls-2" d="M602.47,602.74c47.88,116.37,5.42,174.33-60.85,229.2-9.73,8.06-19.49,5.32-34.23,2.29,0,0-126.22-33.75-175.14-161.6-24.26-63.39-46.72-114.71,25.83-162S552,480,602.47,602.74Z"/></clipPath><clipPath id="clip-path-10"><path class="cls-1" d="M912.74,1057.75S794,720.28,884.39,670.09,1132.05,801.23,1164,850.41s95.48,245.88,95.48,245.88Z"/></clipPath><clipPath id="clip-path-11"><path class="cls-1" d="M299.93,1118.45s-15.86-157.73,27.55-171.9,138-57.76,138-57.76c16.77,73,31.27,143.9,32.52,202.19Z"/></clipPath><clipPath id="clip-path-12"><path class="cls-12" d="M284.32,1007.4h-30V929h30Zm-29-1h28V930h-28Z"/></clipPath><clipPath id="clip-path-13"><path class="cls-13" d="M322.15,1007.4H295.31V929h26.84Zm-25.84-1h24.84V930H296.31Z"/></clipPath><clipPath id="clip-path-14"><path class="cls-4" d="M267,803.89H244.91a5.5,5.5,0,0,1-5.5-5.5V749A10.56,10.56,0,0,1,247,738.91L267,733Zm-19.76-64a9.55,9.55,0,0,0-6.82,9.11v49.41a4.5,4.5,0,0,0,4.5,4.5H266V734.36Z"/></clipPath><clipPath id="clip-path-15"><path class="cls-5" d="M269.21,938.45l-31.3-.84a10.56,10.56,0,0,1-8.39-10.28V813.39a10.51,10.51,0,0,1,10.5-10.5h29.19ZM240,803.89a9.52,9.52,0,0,0-9.5,9.5V927.33a9.55,9.55,0,0,0,7.51,9.29l30.18.8V803.89Z"/></clipPath><clipPath id="clip-path-16"><path class="cls-6" d="M320.79,791.38H278.06a3.08,3.08,0,1,1,0-6.16h42.73a3.08,3.08,0,1,1,0,6.16Zm-42.73-5.66a2.58,2.58,0,1,0,0,5.16h42.73a2.58,2.58,0,1,0,0-5.16Z"/></clipPath><clipPath id="clip-path-17"><ellipse class="cls-7" cx="846.71" cy="467.14" rx="51.13" ry="130.1" transform="translate(-116.54 552.54) rotate(-33.95)"/></clipPath><clipPath id="clip-path-18"><path class="cls-8" d="M727.88,798.25c-24.81,31.69-20.18,58.49-33.78,59.4-17.5,1.18-19-48.62-1.66-86.42s48.33-57.78,64.29-50.48S753.51,765.52,727.88,798.25Z"/></clipPath><clipPath id="clip-path-19"><path class="cls-8" d="M720.89,731.61c0,40.86-16.35,76.85-33.51,76.85s-31.07-33.13-31.07-74,34.58-79.7,51.74-79.7S720.89,690.75,720.89,731.61Z"/></clipPath><clipPath id="clip-path-20"><path class="cls-8" d="M662.09,703.57c-5,48.23-24.84,108.79-35.88,108.79s2-60.17,2-108.79S640.9,640.34,652,640.34,667,656.19,662.09,703.57Z"/></clipPath><clipPath id="clip-path-21"><path class="cls-8" d="M636.36,735.67c10.62,39.74,18.37,73.26,1.21,75.21-6,.68-41.72-31.18-53.07-70.72s-19.15-67.06,12-72.48C625.2,662.68,633,723,636.36,735.67Z"/></clipPath><clipPath id="clip-path-22"><ellipse class="cls-8" cx="567.02" cy="774.15" rx="36.02" ry="89.49" transform="translate(-361.1 530.42) rotate(-39.07)"/></clipPath><clipPath id="clip-path-23"><ellipse class="cls-10" cx="736.51" cy="803.81" rx="76.22" ry="22.15" transform="matrix(0.96, -0.28, 0.28, 0.96, -193.1, 234.26)"/></clipPath><clipPath id="clip-path-24"><ellipse class="cls-10" cx="696.85" cy="795.85" rx="72.4" ry="20.53" transform="translate(-358.96 860.87) rotate(-52.32)"/></clipPath><clipPath id="clip-path-25"><ellipse class="cls-10" cx="596.38" cy="820.03" rx="20.53" ry="51.4" transform="translate(-277.81 306.3) rotate(-23.53)"/></clipPath><clipPath id="clip-path-26"><ellipse class="cls-10" cx="651.88" cy="780.04" rx="19.58" ry="72.4" transform="translate(-123.06 122.11) rotate(-9.78)"/></clipPath><clipPath id="clip-path-27"><path class="cls-10" d="M511.69,783.37c8.11-12.84,27.52-9.46,51.16,5.23s23.87,63.44,15.86,76.34-4.07-32.12-31.19-38.41C513.23,818.58,503,797.19,511.69,783.37Z"/></clipPath><clipPath id="clip-path-28"><path class="cls-10" d="M606.36,740.37c10.9-3.13,20.38,5,31,41.5,6.4,22,34.13,33.93,6.36,41.61-10.92,3-38.81-12.71-45.84-37.22S595.47,743.49,606.36,740.37Z"/></clipPath><clipPath id="clip-path-29"><path class="cls-11" d="M712.93,1027.84l-150.63.81C510.9,993.21,472,866.51,523.54,817.32h243C824.25,901,742.34,1013.11,712.93,1027.84Z"/></clipPath></defs><g id="_6-_Decorate_Your_Workspace" data-name="6- Decorate Your Workspace"><path class="cls-14" d="M1232.94,731.61C1219.65,1165.41,478.68,1130,233.07,1130S37.23,650.16,355.71,613.46c263.2-30.34,73.55-540.59,504.51-522C1105.61,102.07,1246,304.61,1232.94,731.61Z"/><path class="cls-15" d="M749.2,519.21a.5.5,0,0,1-.5-.5.49.49,0,0,1,.49-.5c4,0,8-.06,12-.14a.48.48,0,0,1,.51.49.52.52,0,0,1-.49.51c-4,.08-8,.13-12,.14Zm-12-.1h0c-4-.07-8-.19-12-.34a.5.5,0,0,1-.48-.52.48.48,0,0,1,.52-.48c4,.15,8,.27,12,.34a.5.5,0,0,1,0,1Zm36-.43a.5.5,0,0,1,0-1c4-.17,8-.38,12-.63a.48.48,0,0,1,.53.47.5.5,0,0,1-.46.53c-4,.25-8,.46-12,.63Zm-60-.49h0c-4-.23-8-.51-12-.82a.5.5,0,0,1-.46-.54.52.52,0,0,1,.54-.46c4,.31,8,.59,12,.82a.5.5,0,0,1,0,1Zm83.93-1a.5.5,0,0,1-.49-.46.49.49,0,0,1,.45-.54c4-.34,8-.72,11.94-1.14a.51.51,0,0,1,.55.44.5.5,0,0,1-.45.55c-4,.42-8,.81-11.95,1.14Zm-107.86-.86h0c-4-.39-8-.83-12-1.29a.5.5,0,0,1-.43-.56.52.52,0,0,1,.55-.44c3.94.47,8,.91,11.92,1.3a.5.5,0,0,1,0,1ZM821,514.61a.51.51,0,0,1-.5-.43.5.5,0,0,1,.43-.56c4-.52,8-1.09,11.88-1.69a.51.51,0,0,1,.57.42.51.51,0,0,1-.42.57c-3.89.6-7.9,1.17-11.9,1.69Zm-155.57-1.13h-.07c-3.93-.55-7.93-1.14-11.88-1.77a.51.51,0,0,1-.41-.58.49.49,0,0,1,.57-.41c3.94.63,7.93,1.22,11.86,1.77a.51.51,0,0,1,.43.56A.51.51,0,0,1,665.44,513.48Zm179.29-2.55a.5.5,0,0,1-.09-1c4-.73,8-1.51,11.76-2.32a.52.52,0,0,1,.59.39.49.49,0,0,1-.38.59c-3.81.81-7.78,1.6-11.79,2.33Zm-203-1.23h-.09c-3.91-.71-7.88-1.47-11.8-2.26a.49.49,0,0,1-.39-.58.51.51,0,0,1,.59-.4c3.91.79,7.87,1.55,11.78,2.26a.5.5,0,0,1-.09,1Zm226.46-3.79a.5.5,0,0,1-.13-1c4.11-1,8-2.1,11.55-3.18a.5.5,0,0,1,.63.34.5.5,0,0,1-.34.62c-3.57,1.08-7.47,2.15-11.59,3.19Zm-250-1h-.11c-3.9-.87-7.84-1.8-11.69-2.74a.5.5,0,0,1-.37-.6.5.5,0,0,1,.61-.37c3.84.94,7.77,1.86,11.67,2.73a.5.5,0,0,1-.11,1Zm-23.31-5.71-.13,0c-3.84-1-7.74-2.11-11.57-3.22a.5.5,0,0,1-.34-.62.49.49,0,0,1,.62-.34c3.82,1.11,7.71,2.19,11.55,3.21a.5.5,0,0,1-.13,1Zm296.21-.42a.49.49,0,0,1-.46-.32.5.5,0,0,1,.27-.65,98.33,98.33,0,0,0,10.78-5.12.49.49,0,0,1,.68.2.51.51,0,0,1-.2.68,102.08,102.08,0,0,1-10.88,5.17A.65.65,0,0,1,891.11,498.82Zm-319.26-6.26a.39.39,0,0,1-.15,0c-3.81-1.19-7.66-2.44-11.42-3.7a.5.5,0,1,1,.31-.95c3.77,1.26,7.6,2.51,11.41,3.7a.5.5,0,0,1-.15,1Zm340.22-5.3a.5.5,0,0,1-.29-.9,104.94,104.94,0,0,0,9.29-7.52.5.5,0,0,1,.67.74,105,105,0,0,1-9.37,7.59A.53.53,0,0,1,912.07,487.26Zm-363-2.34a.51.51,0,0,1-.17,0c-3.73-1.34-7.52-2.74-11.26-4.18a.5.5,0,1,1,.36-.93c3.73,1.43,7.51,2.83,11.24,4.17a.5.5,0,0,1,.3.64A.48.48,0,0,1,549.1,484.92Zm428.52-7.82c-1,0-2,0-3,0a.51.51,0,0,1-.5-.51.52.52,0,0,1,.51-.49c1.09,0,2.16,0,3.2,0H979c2.5,0,5-.08,7.52-.21a.47.47,0,0,1,.52.48.49.49,0,0,1-.47.52c-2.51.13-5.05.19-7.56.21h-1.41Zm-15-.53h0c-3.91-.26-7.94-.62-12-1.06a.5.5,0,0,1,.11-1c4,.45,8.05.8,11.94,1.06a.5.5,0,0,1,0,1Zm-435.88-.24a.39.39,0,0,1-.18,0c-3.68-1.5-7.41-3.06-11.07-4.65a.5.5,0,0,1-.26-.66.49.49,0,0,1,.65-.26c3.66,1.59,7.38,3.15,11,4.65a.5.5,0,0,1,.28.65A.51.51,0,0,1,526.69,476.33Zm471.81-.41a.5.5,0,0,1-.49-.44.49.49,0,0,1,.44-.55c3.92-.45,7.9-1,11.82-1.75a.51.51,0,0,1,.58.41.5.5,0,0,1-.4.58c-4,.71-8,1.3-11.89,1.75Zm-59.8-2h-.08c-4-.6-8-1.3-11.85-2.06a.51.51,0,0,1-.4-.59.49.49,0,0,1,.59-.39c3.88.76,7.85,1.45,11.81,2.05a.5.5,0,0,1-.07,1Zm83.38-2.27a.49.49,0,0,1-.48-.38.5.5,0,0,1,.36-.61c3.84-.94,7.72-2,11.55-3.21a.5.5,0,0,1,.62.33.49.49,0,0,1-.33.62c-3.84,1.2-7.75,2.29-11.6,3.23Zm-92.26-.52a.54.54,0,0,1-.33-.12.51.51,0,0,1,0-.71,113.07,113.07,0,0,0,7.42-9.37.5.5,0,0,1,.69-.11.49.49,0,0,1,.12.69A111,111,0,0,1,930.2,471,.51.51,0,0,1,929.82,471.16Zm-14.69-1.85H915c-4-1-7.87-2-11.61-3.15a.49.49,0,0,1-.34-.62.51.51,0,0,1,.62-.34c3.73,1.12,7.62,2.17,11.57,3.14a.5.5,0,0,1,.37.6A.5.5,0,0,1,915.13,469.31Zm-410.45-2.52a.41.41,0,0,1-.21-.05c-3.63-1.66-7.28-3.38-10.86-5.12a.5.5,0,1,1,.43-.9c3.58,1.73,7.23,3.45,10.85,5.12a.5.5,0,0,1-.21,1ZM1045,464.56a.51.51,0,0,1-.47-.32.49.49,0,0,1,.29-.64c3.69-1.39,7.42-2.9,11.09-4.51a.5.5,0,0,1,.66.26.49.49,0,0,1-.26.65c-3.69,1.62-7.44,3.14-11.14,4.53A.47.47,0,0,1,1045,464.56Zm-152.87-2.15a.47.47,0,0,1-.17,0c-3.88-1.41-7.63-2.93-11.17-4.51a.49.49,0,0,1-.25-.66.5.5,0,0,1,.66-.25c3.51,1.57,7.25,3.08,11.1,4.48a.5.5,0,0,1,.3.64A.52.52,0,0,1,892.14,462.41Zm-409-6.09a.59.59,0,0,1-.23-.05c-3.55-1.82-7.12-3.7-10.63-5.59A.5.5,0,0,1,472,450a.51.51,0,0,1,.68-.2c3.5,1.89,7.08,3.76,10.61,5.58a.49.49,0,0,1,.22.67A.5.5,0,0,1,483.09,456.32ZM1067,455a.5.5,0,0,1-.22-.95c3.5-1.76,7.06-3.65,10.57-5.62a.5.5,0,0,1,.49.87c-3.52,2-7.09,3.88-10.61,5.64A.49.49,0,0,1,1067,455Zm-196.72-2.37a.45.45,0,0,1-.25-.07,113.63,113.63,0,0,1-10.22-6.38.52.52,0,0,1-.12-.7.5.5,0,0,1,.7-.12,112.49,112.49,0,0,0,10.13,6.33.49.49,0,0,1,.19.68A.51.51,0,0,1,870.26,452.58Zm73.44-1a.57.57,0,0,1-.25-.06.51.51,0,0,1-.19-.68,115.67,115.67,0,0,0,5.33-10.69.5.5,0,0,1,.66-.26.49.49,0,0,1,.26.66,118.87,118.87,0,0,1-5.37,10.78A.52.52,0,0,1,943.7,451.62ZM462,444.94a.42.42,0,0,1-.24-.07c-3.46-2-7-4-10.39-6a.5.5,0,0,1-.17-.68.5.5,0,0,1,.68-.18c3.43,2,6.92,4.07,10.37,6a.51.51,0,0,1,.19.68A.49.49,0,0,1,462,444.94Zm625.94-1.74a.5.5,0,0,1-.42-.24.49.49,0,0,1,.16-.69c3.35-2.09,6.73-4.29,10-6.55a.5.5,0,0,1,.7.13.49.49,0,0,1-.13.69c-3.32,2.27-6.71,4.49-10.07,6.58A.56.56,0,0,1,1087.9,443.2Zm-237.12-4.54a.47.47,0,0,1-.34-.13,67.78,67.78,0,0,1-8.05-9,.5.5,0,0,1,.81-.59,67,67,0,0,0,7.92,8.86.5.5,0,0,1-.34.86Zm-409.44-6a.5.5,0,0,1-.26-.08c-3.36-2.1-6.77-4.27-10.12-6.46a.5.5,0,0,1,.55-.84c3.35,2.19,6.74,4.36,10.1,6.45a.51.51,0,0,1,.16.69A.52.52,0,0,1,441.34,432.67Zm666.4-3a.5.5,0,0,1-.29-.9c3.15-2.34,6.35-4.81,9.51-7.34a.5.5,0,0,1,.7.08.49.49,0,0,1-.08.7c-3.16,2.54-6.37,5-9.54,7.36A.47.47,0,0,1,1107.74,429.66Zm-154.47,0-.15,0a.49.49,0,0,1-.32-.62,110.45,110.45,0,0,0,3-11.57.51.51,0,0,1,.59-.39.5.5,0,0,1,.39.59,109.31,109.31,0,0,1-3,11.67A.5.5,0,0,1,953.27,429.66Zm-532-10.12a.49.49,0,0,1-.28-.09c-3.29-2.26-6.61-4.57-9.84-6.88a.5.5,0,0,1-.11-.7.49.49,0,0,1,.69-.12c3.23,2.31,6.54,4.62,9.82,6.87a.5.5,0,0,1,.13.7A.49.49,0,0,1,421.26,419.54Zm415.48-.11a.5.5,0,0,1-.46-.3,52.87,52.87,0,0,1-2.17-5.74,55.47,55.47,0,0,1-1.44-5.78.5.5,0,0,1,.4-.58.51.51,0,0,1,.59.4,52.18,52.18,0,0,0,1.41,5.67,53.18,53.18,0,0,0,2.12,5.63.5.5,0,0,1-.25.66A.45.45,0,0,1,836.74,419.43Zm289.78-4.78a.52.52,0,0,1-.38-.17.51.51,0,0,1,0-.71c3-2.57,6-5.24,9-7.95a.5.5,0,1,1,.67.73c-3,2.72-6,5.4-9,8A.49.49,0,0,1,1126.52,414.65Zm-168.59-8.49h0a.49.49,0,0,1-.46-.54c.17-2.3.26-4.61.26-6.85,0-1.69-.05-3.4-.15-5.07a.5.5,0,0,1,.47-.53.51.51,0,0,1,.53.47c.1,1.69.15,3.42.15,5.13,0,2.27-.09,4.6-.27,6.93A.5.5,0,0,1,957.93,406.16Zm-556.19-.58a.49.49,0,0,1-.3-.1c-3.19-2.39-6.4-4.84-9.54-7.28a.51.51,0,0,1-.09-.71.52.52,0,0,1,.71-.08c3.13,2.44,6.33,4.88,9.52,7.27a.5.5,0,0,1,.11.7A.51.51,0,0,1,401.74,405.58Zm742.5-7.14a.51.51,0,0,1-.36-.15.49.49,0,0,1,0-.7c2.83-2.75,5.68-5.6,8.49-8.49a.5.5,0,0,1,.72.7c-2.82,2.89-5.68,5.76-8.51,8.5A.47.47,0,0,1,1144.24,398.44Zm-312.09-2.36h0a.5.5,0,0,1-.5-.5,66.33,66.33,0,0,1,1.29-12,.48.48,0,0,1,.58-.39.5.5,0,0,1,.4.58,65.43,65.43,0,0,0-1.27,11.83A.49.49,0,0,1,832.15,396.08Zm-449.33-5.25a.45.45,0,0,1-.31-.11c-3.1-2.51-6.2-5.09-9.25-7.67a.5.5,0,0,1,.65-.76c3,2.57,6.14,5.15,9.23,7.65a.52.52,0,0,1,.07.71A.5.5,0,0,1,382.82,390.83Zm573.53-8.53a.49.49,0,0,1-.49-.38,58.35,58.35,0,0,0-3.81-11.25.52.52,0,0,1,.25-.67.51.51,0,0,1,.66.25,58.72,58.72,0,0,1,3.87,11.44.5.5,0,0,1-.37.6ZM1161,381.23a.48.48,0,0,1-.34-.13.5.5,0,0,1,0-.71c2.68-2.9,5.38-5.9,8-8.92a.5.5,0,0,1,.75.66c-2.66,3-5.36,6-8.05,8.94A.46.46,0,0,1,1161,381.23Zm-796.49-5.9a.5.5,0,0,1-.33-.12c-3-2.64-6-5.34-8.93-8a.5.5,0,0,1,.67-.74c2.93,2.68,5.93,5.38,8.92,8a.48.48,0,0,1,0,.7A.5.5,0,0,1,364.51,375.33Zm472.28-2.67-.18,0a.51.51,0,0,1-.29-.65,66,66,0,0,1,5.41-10.8.49.49,0,0,1,.69-.16.51.51,0,0,1,.16.69,64,64,0,0,0-5.32,10.63A.51.51,0,0,1,836.79,372.66Zm340.06-9.48a.47.47,0,0,1-.32-.12.49.49,0,0,1-.07-.7c2.53-3,5.09-6.16,7.6-9.3a.49.49,0,0,1,.7-.08.5.5,0,0,1,.08.7c-2.52,3.15-5.08,6.29-7.61,9.32A.49.49,0,0,1,1176.85,363.18ZM946.2,360.79a.5.5,0,0,1-.38-.19,41.94,41.94,0,0,0-4.35-4.58c-1.33-1.21-2.78-2.4-4.28-3.54a.52.52,0,0,1-.1-.71.5.5,0,0,1,.7-.09c1.53,1.16,3,2.37,4.35,3.6a43,43,0,0,1,4.45,4.69.49.49,0,0,1-.07.7A.47.47,0,0,1,946.2,360.79Zm-599.38-1.67a.49.49,0,0,1-.34-.14c-2.88-2.74-5.78-5.55-8.62-8.36a.51.51,0,0,1,0-.71.5.5,0,0,1,.71,0c2.83,2.81,5.73,5.62,8.6,8.36a.49.49,0,0,1,0,.7A.48.48,0,0,1,346.82,359.12Zm502.66-6.65a.54.54,0,0,1-.35-.14.5.5,0,0,1,0-.71,54.07,54.07,0,0,1,4.65-4.33,49.68,49.68,0,0,1,4.63-3.41.5.5,0,0,1,.55.84,51.08,51.08,0,0,0-4.55,3.34,55.17,55.17,0,0,0-4.56,4.25A.48.48,0,0,1,849.48,352.47Zm77.91-6.35a.5.5,0,0,1-.24-.06,84.44,84.44,0,0,0-10.88-4.87.5.5,0,0,1-.3-.64.52.52,0,0,1,.65-.3,86.34,86.34,0,0,1,11,4.93.51.51,0,0,1,.21.68A.5.5,0,0,1,927.39,346.12Zm264.45-1.72a.54.54,0,0,1-.3-.1.52.52,0,0,1-.1-.71c2.39-3.12,4.81-6.36,7.19-9.62a.5.5,0,0,1,.81.59c-2.39,3.27-4.81,6.51-7.2,9.64A.51.51,0,0,1,1191.84,344.4Zm-862.07-2.16a.51.51,0,0,1-.36-.15c-2.76-2.85-5.55-5.77-8.28-8.69a.5.5,0,0,1,0-.71.51.51,0,0,1,.71,0c2.72,2.91,5.51,5.83,8.27,8.67a.5.5,0,0,1,0,.71A.52.52,0,0,1,329.77,342.24Zm539.64-2.73a.51.51,0,0,1-.47-.33.5.5,0,0,1,.3-.64A57.17,57.17,0,0,1,881,335.75a.48.48,0,0,1,.56.43.5.5,0,0,1-.43.56,55.63,55.63,0,0,0-11.55,2.74A.51.51,0,0,1,869.41,339.51Zm35.52-1.62h-.11A76.11,76.11,0,0,0,893,336.31a.5.5,0,0,1-.47-.53.52.52,0,0,1,.53-.47,77,77,0,0,1,12,1.6.5.5,0,0,1-.1,1ZM1206,325a.45.45,0,0,1-.29-.09.49.49,0,0,1-.12-.69c2.27-3.25,4.56-6.59,6.79-9.91a.49.49,0,0,1,.69-.13.5.5,0,0,1,.14.69c-2.23,3.33-4.52,6.66-6.8,9.92A.51.51,0,0,1,1206,325Zm-892.66-.26a.5.5,0,0,1-.37-.17c-2.66-2.93-5.34-6-8-9a.5.5,0,0,1,.76-.65c2.62,3,5.3,6,7.95,9a.5.5,0,0,1,0,.71A.46.46,0,0,1,313.37,324.73Zm-15.76-18.09a.49.49,0,0,1-.38-.18c-2.56-3-5.14-6.16-7.64-9.26a.5.5,0,1,1,.77-.63c2.51,3.09,5.08,6.2,7.63,9.25a.48.48,0,0,1-.06.7A.47.47,0,0,1,297.61,306.64ZM1219.43,305a.45.45,0,0,1-.27-.08.5.5,0,0,1-.15-.69c2.17-3.37,4.33-6.79,6.41-10.16a.5.5,0,0,1,.69-.17.51.51,0,0,1,.16.69c-2.08,3.38-4.24,6.8-6.42,10.18A.48.48,0,0,1,1219.43,305ZM282.5,288a.48.48,0,0,1-.39-.19c-2.44-3.11-4.9-6.31-7.32-9.51a.5.5,0,0,1,.79-.61c2.42,3.2,4.88,6.4,7.31,9.51a.49.49,0,0,1-.39.8Zm949.56-3.44a.59.59,0,0,1-.26-.07.51.51,0,0,1-.17-.69c2-3.46,4.06-7,6-10.42a.51.51,0,0,1,.68-.19.5.5,0,0,1,.19.68c-1.94,3.46-4,7-6,10.44A.5.5,0,0,1,1232.06,284.56ZM268,268.87a.49.49,0,0,1-.41-.21c-2.33-3.18-4.68-6.46-7-9.75a.49.49,0,0,1,.12-.69.5.5,0,0,1,.7.12c2.31,3.28,4.67,6.55,7,9.73a.51.51,0,0,1-.11.7A.46.46,0,0,1,268,268.87Zm975.82-5.31a.52.52,0,0,1-.24-.05.51.51,0,0,1-.2-.68c.95-1.8,1.73-3.29,2.32-4.44a.52.52,0,0,1,.68-.21.5.5,0,0,1,.21.67c-.59,1.15-1.37,2.65-2.33,4.45A.49.49,0,0,1,1243.85,263.56Z"/><path class="cls-1" d="M498,1091s-17.71-123.81-32.52-202.19C555.2,848,710.49,733.89,765,708.63s93.26-38.29,139.78-46l98.35,452.22Z"/><g class="cls-16"><path class="cls-17" d="M963.73,884.46c-162.65,167.58-397.07,226.8-644.5,157.82q-8.24-24.48-14.74-44c236.58,41.58,455.41-43.53,598.09-234.55Q931.43,822,963.73,884.46Z"/><path class="cls-17" d="M1074.3,965.8c-162.65,167.58-397.07,226.8-644.5,157.82q-8.24-24.48-14.74-44c236.58,41.58,455.41-43.53,598.09-234.55Q1042,903.31,1074.3,965.8Z"/><path class="cls-17" d="M1164.53,1059.34c-162.65,167.58-397.08,226.81-644.5,157.83q-8.25-24.5-14.75-44c236.58,41.58,455.42-43.52,598.1-234.55Q1132.21,996.85,1164.53,1059.34Z"/><path class="cls-17" d="M1283.27,1143.51c-162.65,167.57-397.07,226.8-644.49,157.82q-8.25-24.49-14.75-44c236.58,41.58,455.41-43.52,598.09-234.55Q1251,1081,1283.27,1143.51Z"/><path class="cls-17" d="M761.14,676.49c41.36,39.44,39,126.67-26.82,195.62s-130.67,93.5-172,54.06S591.67,853.51,626.19,749C656.07,658.46,719.79,637,761.14,676.49Z"/></g><path class="cls-18" d="M635,564.94s5-174.26-26.37-190.81c-29.37-15.46-31.23,25.32-31.23,25.32s-58.74-137.65-178.1-113.1c-85.07,17.49-99.33,89.56-99.33,89.56S156.47,389.2,151.15,525.66s172.79,137,172.79,137Z"/><path class="cls-2" d="M611,660.28s62,89.55,140.89,56.77c0,0-15.83,153.12-123,188.74s-5.5-34.35-48.44-81-48.26-49.28-48.26-49.28Z"/><path class="cls-19" d="M587.91,917c-4.6,0-7.67-1-9.52-2.91-4.5-4.69-1.12-13.66,3.16-25,6.87-18.22,16.28-43.17-2.23-63.26-41.26-44.8-47.63-48.84-47.88-49l-1.54-.77,1-1.39,80.09-117,1.24,1.79a190.47,190.47,0,0,0,40.59,40.36C686,723.7,719.17,729,751.34,715.66l2.33-1-.26,2.5A335.52,335.52,0,0,1,732,798.63c-10.14,25-22.76,46.36-37.52,63.61-18.5,21.63-40.41,36.76-65.13,45C609.41,913.83,596.19,917,587.91,917ZM534.22,775.19c3.37,2.72,14.19,12.65,47.31,48.61,19.76,21.45,10,47.4,2.83,66.35-3.76,10-7,18.56-3.81,21.88,4.09,4.25,19.29,1.82,47.85-7.67,24.18-8,45.63-22.85,63.76-44,14.55-17,27-38.12,37-62.76a337.53,337.53,0,0,0,20.94-78.18c-32.07,12.38-66.28,6.45-99.1-17.21a195.72,195.72,0,0,1-39.95-39.3Z"/><g class="cls-20"><path class="cls-21" d="M611,660.28s43.56,46.14,21.34,118.8-65.26,120.5-86.72,123.16-13.48-126.71-13.48-126.71Z"/></g><path class="cls-2" d="M602.47,602.74c47.88,116.37,5.42,174.33-60.85,229.2-9.73,8.06-19.49,5.32-34.23,2.29,0,0-126.22-33.75-175.14-161.6-24.26-63.39-46.72-114.71,25.83-162S552,480,602.47,602.74Z"/><g class="cls-22"><ellipse class="cls-23" cx="393.15" cy="739.14" rx="39.17" ry="26.56" transform="translate(-286.74 250.62) rotate(-26.29)"/></g><ellipse class="cls-2" cx="611.56" cy="621.05" rx="69.84" ry="48.53" transform="translate(-207.61 918.84) rotate(-65.42)"/><ellipse class="cls-23" cx="545.65" cy="632.79" rx="39.17" ry="26.56" transform="translate(-282.55 522.19) rotate(-41.62)"/><path class="cls-3" d="M468.77,657.23s-13.14-21.6-6.66-36.6c6.16-14.22,29.47-33.41,69.75-26.71,0,0,1.28,36.48-33.1,53.57C473.73,659.94,468.77,657.23,468.77,657.23Z"/><path class="cls-18" d="M628.25,398.57a183.86,183.86,0,0,0-6.57-21c-2.09-5.44-4.68-10.82-8.66-15.15s-9.27-7.06-15.09-6.93-11.43,3.06-15.59,7.14c-12,11.75-9.69,29.57-7.34,44.6a2,2,0,0,0,2.46,1.39,2,2,0,0,0,1.4-2.46c-1.94-12.39-4.29-27.33,3.95-38.06,3.23-4.2,7.92-7.63,13.23-8.46,5.13-.8,10,1.37,13.56,5,3.73,3.8,6.18,8.77,8.1,13.68a179.62,179.62,0,0,1,6.17,19.34,209.1,209.1,0,0,1,6.59,41.21,217.89,217.89,0,0,1-2.27,47,2.06,2.06,0,0,0,1.39,2.46,2,2,0,0,0,2.46-1.39A219.83,219.83,0,0,0,628.25,398.57Z"/><path class="cls-18" d="M480.4,302.39A133,133,0,0,0,434.71,275a125.58,125.58,0,0,0-53.52-6.89c-17.86,1.77-35.56,8.16-48.58,20.87-11.54,11.27-19.4,27.39-18,43.79,1.31,15.19,10.07,30.22,24,37.11a39.21,39.21,0,0,0,5.33,2.18c2.45.8,3.5-3.06,1.06-3.86-13.82-4.52-23.23-17.63-25.84-31.58-2.82-15.12,3.33-30.6,13.39-41.79C344,282.1,360.21,275.12,377,272.66c17.1-2.5,34.89-.53,51.35,4.5A128.31,128.31,0,0,1,472.76,301c1.64,1.36,3.24,2.77,4.81,4.21C479.46,307,482.3,304.14,480.4,302.39Z"/><path class="cls-18" d="M275.8,637.73c-28.15,7.84-58.78,14.87-87.56,6-23.71-7.3-43.34-25.17-54.75-47A105.86,105.86,0,0,1,125.94,518c7.36-24.65,23.17-46,41.9-63.32,21.2-19.56,46.32-34.19,71.41-48.11l9.12-5.05c2.26-1.24.24-4.69-2-3.45-25.9,14.28-52,28.71-74.65,47.88-20.24,17.11-37.64,38.41-47.07,63.4A110.07,110.07,0,0,0,126,590.2c9.9,23.71,28.55,44,52.33,54.14,28,12,59.08,7.49,87.68.16q5.43-1.39,10.84-2.92C279.34,640.89,278.29,637,275.8,637.73Z"/><path class="cls-3" d="M426.56,684.14s-15.61-17.07-45-9.62c-30.25,7.66-22.6,33.67-22.6,33.67s19.9,22.4,46.31-.51C425.58,690.05,426.56,684.14,426.56,684.14Z"/><ellipse class="cls-19" cx="488.21" cy="634.73" rx="22.69" ry="16.31"/><ellipse class="cls-19" cx="387.26" cy="699.77" rx="16.08" ry="19.91" transform="translate(-353.93 1000.25) rotate(-83.11)"/><path class="cls-19" d="M468.77,658.73a1.49,1.49,0,0,1-1.28-.72c-.55-.91-13.47-22.44-6.75-38,3.69-8.53,12.2-16.74,22.78-22,13.62-6.71,30.41-8.66,48.59-5.64a1.5,1.5,0,1,1-.5,3c-17.54-2.92-33.71-1.06-46.76,5.37-10,4.92-18,12.56-21.36,20.46-6.1,14.1,6.44,35,6.56,35.22a1.5,1.5,0,0,1-.5,2.06A1.46,1.46,0,0,1,468.77,658.73Z"/><path class="cls-19" d="M358.94,709.69a1.49,1.49,0,0,1-1.44-1.08c-.13-.45-3.2-11.2,2.54-21.26,3.95-6.93,11.06-11.74,21.13-14.29,29.94-7.58,45.84,9.34,46.5,10.07a1.5,1.5,0,1,1-2.21,2h0C425.31,685,410,668.85,381.9,676c-9.24,2.34-15.72,6.67-19.26,12.87-5.11,9-2.29,18.83-2.26,18.93a1.5,1.5,0,0,1-1,1.86A1.52,1.52,0,0,1,358.94,709.69Z"/><path class="cls-19" d="M455,727.85a14.41,14.41,0,0,1-2.07-.15c-4.65-.7-8.43-3.75-11.25-9.06-2.72-5.11-3.06-9.71-1-13.67,3.55-6.87,13.34-9.7,18-10.69L425.39,652a1.5,1.5,0,0,1,2.35-1.85l34.81,44.28a1.46,1.46,0,0,1,.21,1.49,1.49,1.49,0,0,1-1.19.92c-.14,0-14.37,2-18.27,9.55-1.56,3-1.23,6.7,1,10.88,2.36,4.43,5.4,6.95,9,7.5,8.31,1.26,17.43-7.71,17.52-7.8a1.5,1.5,0,0,1,2.11,2.13C472.59,719.44,464,727.85,455,727.85Z"/><path class="cls-19" d="M440,611.74a2.5,2.5,0,0,1-2.5-2.41c0-.38-.25-9.33,6.54-19.63,6.12-9.29,19.43-21.55,48.05-27.21a2.5,2.5,0,0,1,1,4.9c-50.83,10.05-50.6,40.48-50.56,41.78a2.52,2.52,0,0,1-2.43,2.57Z"/><path class="cls-19" d="M344.85,665.18a2.58,2.58,0,0,1-1.3-.36,2.5,2.5,0,0,1-.83-3.44c20.76-34,56.8-25.17,57.16-25.08a2.5,2.5,0,1,1-1.25,4.84c-1.32-.33-32.85-7.93-51.64,22.85A2.5,2.5,0,0,1,344.85,665.18Z"/><path class="cls-19" d="M617.35,636.19a1.51,1.51,0,0,1-1.4-1,78.15,78.15,0,0,1-4.33-20.78c-.93-15,3.83-26.05,13.75-31.9a1.5,1.5,0,1,1,1.53,2.58c-21.64,12.77-8.28,48.67-8.14,49a1.51,1.51,0,0,1-.87,1.94A1.71,1.71,0,0,1,617.35,636.19Z"/><path class="cls-19" d="M631.48,611.54h-.12l-18.46-1.48a1.5,1.5,0,0,1,.24-3l18.46,1.48a1.5,1.5,0,0,1-.12,3Z"/><path class="cls-19" d="M450.42,761.38a1.5,1.5,0,0,1-.26-3c.4-.07,37.23-7.37,94.36-73.29a1.5,1.5,0,1,1,2.26,2c-58,66.91-94.57,74-96.1,74.27Z"/><path class="cls-19" d="M622.76,681.42a1.5,1.5,0,0,1-.78-2.79c13.33-8.07,24.82-21.57,32.34-38,15.68-34.27,9.25-70.93-14.34-81.71-15.08-6.91-34.62-1.59-51,13.87A1.5,1.5,0,1,1,587,570.6c17.26-16.32,38.06-21.84,54.28-14.42,25.09,11.47,32.18,49.91,15.82,85.68-7.77,17-19.68,31-33.52,39.34A1.46,1.46,0,0,1,622.76,681.42Z"/><path class="cls-18" d="M588,618.42s-50.11-53.78-45-91c0,0-77.6,17.72-116.43-19.5,0,0-81.35,80.64-153.13,8s78.85-154.18,165.25-97.47c0,0,161.28-6.2,154.63,90.38S588,618.42,588,618.42Z"/><path class="cls-2" d="M580,594a1.51,1.51,0,0,1-1.31-.76,217.46,217.46,0,0,1-17-42.32c-6.53-22.79-12-56.53-.86-87.86a1.5,1.5,0,1,1,2.83,1c-20.79,58.58,17.23,127,17.61,127.71a1.49,1.49,0,0,1-.56,2A1.54,1.54,0,0,1,580,594Z"/><path class="cls-2" d="M535.12,510.43h-.06c-.3,0-31-1.34-61.21-12-40.36-14.28-61.57-38.66-61.32-70.52a1.5,1.5,0,0,1,1.5-1.49h0a1.51,1.51,0,0,1,1.49,1.51c-.24,30.88,19.7,53.64,59.26,67.65,29.79,10.55,60.09,11.87,60.39,11.89a1.5,1.5,0,0,1-.06,3Z"/><path class="cls-2" d="M356.36,522.74c-18.72,0-33.9-5.56-45.13-16.53-20-19.55-20.39-49-20.39-50.25a1.49,1.49,0,0,1,1.49-1.51h0a1.51,1.51,0,0,1,1.5,1.49c0,.29.39,29.48,19.5,48.14,11,10.72,26,16,44.71,15.65a1.5,1.5,0,1,1,.05,3Z"/><path class="cls-2" d="M381,511.36c-19,0-32.49-6.92-40.93-13.36-11-8.41-15.95-17.63-16.15-18a1.5,1.5,0,1,1,2.65-1.39c.19.35,19.44,35.81,66.4,28.86a1.5,1.5,0,1,1,.43,3A84.08,84.08,0,0,1,381,511.36Z"/><path class="cls-2" d="M321.87,598.71c-26.5,0-47.81-8.35-63.48-24.91-21.93-23.18-28.63-58.5-30.39-84a260.14,260.14,0,0,1,1.42-50.27,1.5,1.5,0,1,1,3,.45c-.13.88-12.68,88.62,28.19,131.82,17.46,18.44,42.31,26.3,73.86,23.36a1.5,1.5,0,1,1,.28,3C330.31,598.51,326,598.71,321.87,598.71Z"/><path class="cls-2" d="M294.19,634.29c-26.29,0-49.17-7.11-68.28-21.25-44.59-33-53.12-93.77-53.21-94.38a1.5,1.5,0,0,1,3-.4c.08.6,8.47,60.16,52,92.38C252.5,629,283.9,635.14,321,629a1.5,1.5,0,0,1,.49,3A167.47,167.47,0,0,1,294.19,634.29Z"/><path class="cls-1" d="M912.74,1057.75S794,720.28,884.39,670.09,1132.05,801.23,1164,850.41s95.48,245.88,95.48,245.88Z"/><g class="cls-24"><path class="cls-17" d="M1391.68,764.5C1124.9,772,922.88,852.62,763.22,937.41A411.29,411.29,0,0,0,713,903.5c166.25-109.92,383.51-212.17,672.28-235.81Q1390.72,715.08,1391.68,764.5Z"/><path class="cls-17" d="M1440.54,873C1186,864.71,982,931.4,816.87,1014.34a458.3,458.3,0,0,0-45.52-35.57c172.46-108.61,393.7-196.83,672.4-203Q1444.07,823.61,1440.54,873Z"/><path class="cls-17" d="M1488.4,980.77c-241.47-23.29-446.7,29.74-616.33,110.83a538,538,0,0,0-40.89-37.24c177.64-107,401.66-181.21,669-170.6Q1495.88,931.7,1488.4,980.77Z"/><path class="cls-17" d="M1539.14,1083c-231.38-34-437,9-609.44,88.77q-18.3-20.41-37.54-38.47c180.9-105.56,406.29-169.5,664.55-147Q1549.26,1034.22,1539.14,1083Z"/></g><path class="cls-2" d="M327.77,775.46s0-11.56,13.6-11.5,18,.68,20.23,4.35,10.46,57.15,10.46,57.15S382.8,843.38,387.7,852c3.59,6.28,1.7,19.78.42,26.61a6.37,6.37,0,0,1-5,5.07c-10,2.1-36.22,6.47-53.18-.92C308.66,873.44,327.77,775.46,327.77,775.46Z"/><path class="cls-19" d="M354.31,888.38c-8.67,0-17.61-1.07-24.93-4.26-9.49-4.14-12.86-23.87-10-58.63,2-24.51,6.52-48.26,6.89-50.19a13.88,13.88,0,0,1,3.84-8.87c2.65-2.64,6.41-4,11.16-4h.1c13.14,0,18.77.52,21.51,5.08,2.23,3.7,9.13,47.78,10.61,57.4,1.33,2.21,11,18.34,15.52,26.31,3.77,6.62,2,20.15.59,27.63a7.87,7.87,0,0,1-6.13,6.26A148.64,148.64,0,0,1,354.31,888.38Zm-13-122.92c-11.78,0-12,9.6-12,10a1.27,1.27,0,0,1,0,.28c-5.25,26.93-15.25,98.4,1.34,105.63s42.05,3,52.28.83a4.88,4.88,0,0,0,3.79-3.88c2.25-12,2.16-21.36-.25-25.59-4.84-8.49-15.52-26.32-15.63-26.5a1.52,1.52,0,0,1-.2-.55c-3.16-20.49-8.73-54-10.26-56.59-1.72-2.87-5.44-3.58-18.95-3.63Zm-13.5,10h0Z"/><path class="cls-1" d="M299.93,1118.45s-15.86-157.73,27.55-171.9,138-57.76,138-57.76c16.77,73,31.27,143.9,32.52,202.19Z"/><g class="cls-25"><path class="cls-17" d="M293.64,894.22c151.5,151.6,227.83,306.83,277.35,440.89a333.44,333.44,0,0,1,46.65,9.5C577.16,1193.34,503.05,1018,347,845.54A696.07,696.07,0,0,0,293.64,894.22Z"/><path class="cls-17" d="M209.61,925.72C362,1062,446.68,1210.87,500.32,1347a366.3,366.3,0,0,1,44.74,6c-44.77-154-128.38-324-287.53-481.4Q232.84,897.15,209.61,925.72Z"/><path class="cls-17" d="M126.47,957.44c152.56,121,244.89,263.1,302.11,400.67a424.84,424.84,0,0,1,42.9,2.52c-48.63-156-141-319.93-302.16-462.07Q147.27,926.82,126.47,957.44Z"/><path class="cls-17" d="M120.07,854.9c91,164,121,329.5,116,480.08q19.49,8.18,37.62,17.71c20.52-163.88-.8-349.83-91.66-537Q150.94,834.17,120.07,854.9Z"/></g><path class="cls-19" d="M924.85,1090.23a1.49,1.49,0,0,1-1.4-1c-.2-.53-20.35-54-39.5-120.91C851.9,856.3,847.23,793.09,849,759.8a236.5,236.5,0,0,1,5.21-38.5c6.14-27.28,16.06-44.95,29.49-52.52a1.5,1.5,0,1,1,1.47,2.61C854.77,688.5,852,759.22,852,759.93c-6,114.76,73.5,326.14,74.3,328.26a1.49,1.49,0,0,1-.87,1.94A1.61,1.61,0,0,1,924.85,1090.23Z"/><path class="cls-2" d="M212,859s-78.75,140.41-57.41,255.89c7.21,39,206.87,33.38,193.58-18.61C324.4,1003.39,330,882.75,330,882.75Z"/><path class="cls-19" d="M239.38,1141.82c-24.29,0-47-2.8-62.71-8-14.21-4.68-22.14-11-23.56-18.66-11.09-60,5.17-126.64,20.75-172,16.87-49.09,36.62-84.53,36.82-84.88a1.5,1.5,0,0,1,1.6-.74l118,23.74a1.48,1.48,0,0,1,1.2,1.54c-.05,1.2-5.29,121.48,18.13,213.1,2,7.91-.41,15.16-7.24,21.54-12.66,11.82-40.64,20.31-76.77,23.28C256.82,1141.47,248,1141.82,239.38,1141.82ZM212.77,860.7a582.07,582.07,0,0,0-36.09,83.49c-15.46,45-31.59,111.12-20.62,170.44,1.19,6.45,8.64,12.1,21.55,16.35,20.95,6.91,54.57,9.51,87.74,6.77,35.48-2.92,62.8-11.11,75-22.48,6-5.57,8.12-11.84,6.39-18.61-22.23-86.93-18.78-199.42-18.28-212.69Z"/><path class="cls-19" d="M510.9,1139.44a1.51,1.51,0,0,1-1.47-1.22c-.11-.58-11.3-59.12-19.74-118.17-5-34.7-8-62.8-9.09-83.51-1.85-35.78,2.62-42.19,6.15-43.91a1.5,1.5,0,0,1,1.31,2.7c-4.6,2.24-10.12,21.36,4.6,124.29,8.43,59,19.61,117.45,19.72,118a1.5,1.5,0,0,1-1.19,1.75A1.43,1.43,0,0,1,510.9,1139.44Z"/><rect class="cls-3" x="86.26" y="1027.84" width="1173.18" height="121.62" rx="10"/><path class="cls-26" d="M1249.43,1151.46H96.26a12,12,0,0,1-12-12V1037.84a12,12,0,0,1,12-12H1249.43a12,12,0,0,1,12,12v101.62A12,12,0,0,1,1249.43,1151.46ZM96.26,1029.84a8,8,0,0,0-8,8v101.62a8,8,0,0,0,8,8H1249.43a8,8,0,0,0,8-8V1037.84a8,8,0,0,0-8-8Z"/><rect class="cls-27" x="326.6" y="817.57" width="21.56" height="106.63" rx="10.78"/><path class="cls-3" d="M337.38,924.7a11.29,11.29,0,0,1-11.28-11.28V828.35a11.28,11.28,0,0,1,22.56,0v85.07A11.29,11.29,0,0,1,337.38,924.7Zm0-106.63a10.29,10.29,0,0,0-10.28,10.28v85.07a10.28,10.28,0,0,0,20.56,0V828.35A10.29,10.29,0,0,0,337.38,818.07Z"/><rect class="cls-27" x="326.6" y="817.57" width="21.56" height="62.16" rx="10.78"/><path class="cls-3" d="M337.38,880.23A11.29,11.29,0,0,1,326.1,869v-40.6a11.28,11.28,0,0,1,22.56,0V869A11.29,11.29,0,0,1,337.38,880.23Zm0-62.16a10.29,10.29,0,0,0-10.28,10.28V869a10.28,10.28,0,0,0,20.56,0v-40.6A10.29,10.29,0,0,0,337.38,818.07Z"/><rect class="cls-3" x="254.86" y="929.51" width="28.95" height="77.39"/><path class="cls-27" d="M284.32,1007.4h-30V929h30Zm-29-1h28V930h-28Z"/><g class="cls-28"><polygon class="cls-1" points="271.37 1006.31 254.86 1006.31 254.86 926.26 311.39 933.06 271.37 941.62 271.37 1006.31"/></g><rect class="cls-3" x="295.81" y="929.51" width="25.84" height="77.39"/><path class="cls-27" d="M322.15,1007.4H295.31V929h26.84Zm-25.84-1h24.84V930H296.31Z"/><g class="cls-29"><polygon class="cls-1" points="312.85 1006.31 296.34 1006.31 296.34 926.26 334.31 936.1 312.85 939.85 312.85 1006.31"/></g><path class="cls-30" d="M341.66,1025.65H288.05V1000.8a6.25,6.25,0,0,1,6.24-6.24h27.55c6.58,0,12.32,4.11,14,10Z"/><path class="cls-3" d="M337.38,936l-68.67,1.92V803.39h68a5,5,0,0,1,5,5l0,122.68A5,5,0,0,1,337.38,936Z"/><path class="cls-27" d="M268.21,938.45V802.89h68.45a5.51,5.51,0,0,1,5.5,5.5l0,122.68a5.47,5.47,0,0,1-4.67,5.44h-.06Zm1-134.56V937.42l68.12-1.91a4.47,4.47,0,0,0,3.79-4.44l0-122.68a4.51,4.51,0,0,0-4.5-4.5Z"/><path class="cls-3" d="M247.09,739.39l19.4-5.7v69.7H244.91a5,5,0,0,1-5-5V749A10,10,0,0,1,247.09,739.39Z"/><path class="cls-27" d="M267,803.89H244.91a5.5,5.5,0,0,1-5.5-5.5V749A10.56,10.56,0,0,1,247,738.91L267,733Zm-19.76-64a9.55,9.55,0,0,0-6.82,9.11v49.41a4.5,4.5,0,0,0,4.5,4.5H266V734.36Z"/><g class="cls-31"><polygon class="cls-1" points="314.05 830.13 220.19 839.57 220.19 697.35 255.49 697.35 255.49 797.04 314.05 830.13"/></g><path class="cls-3" d="M268.71,937.93l-30.79-.82a10,10,0,0,1-7.9-9.78V813.39a10,10,0,0,1,10-10h28.69Z"/><path class="cls-27" d="M269.21,938.45l-31.3-.84a10.56,10.56,0,0,1-8.39-10.28V813.39a10.51,10.51,0,0,1,10.5-10.5h29.19ZM240,803.89a9.52,9.52,0,0,0-9.5,9.5V927.33a9.55,9.55,0,0,0,7.51,9.29l30.18.8V803.89Z"/><g class="cls-32"><polygon class="cls-1" points="249.36 941.03 214.07 941.03 214.07 798.82 273.98 801.48 249.36 810.78 249.36 941.03"/></g><rect class="cls-27" x="223.81" y="822.89" width="21.56" height="106.63" rx="10.78"/><path class="cls-3" d="M234.59,930a11.29,11.29,0,0,1-11.28-11.28V833.67a11.28,11.28,0,0,1,22.56,0v85.06A11.29,11.29,0,0,1,234.59,930Zm0-106.62a10.29,10.29,0,0,0-10.28,10.28v85.06a10.28,10.28,0,0,0,20.56,0V833.67A10.29,10.29,0,0,0,234.59,823.39Z"/><path class="cls-33" d="M297.1,1025.65H237.59l8-24.78a9.11,9.11,0,0,1,8.66-6.31h28.31a9.9,9.9,0,0,1,9.69,7.87Z"/><path class="cls-19" d="M247.74,767.77a1,1,0,0,1-1-1c0-.15-.36-15.13.59-29.95,2-30.82,7.67-31,9.54-31a8.71,8.71,0,0,1,4.66,1.07,9.76,9.76,0,0,1,5.92-2.25c3.37-.24,5.55.6,6.95,1.71a14.36,14.36,0,0,1,6.67-1.75l.26,0a9.89,9.89,0,0,1,2.87,1.26,7.35,7.35,0,0,1,6.61-1.25,14.94,14.94,0,0,1,3.87,1.53,8,8,0,0,1,5.39-1.81,7.32,7.32,0,0,1,5.21,2.6,6.84,6.84,0,0,1,9.88.85,11.34,11.34,0,0,1,3.46-.5,5.71,5.71,0,0,1,4.39,2c6,6.72,3.49,28.82,3.38,29.76a1,1,0,0,1-1.11.88,1,1,0,0,1-.88-1.11c0-.22,2.5-22.15-2.88-28.2a3.75,3.75,0,0,0-2.9-1.37,9.89,9.89,0,0,0-2.3.25,12.77,12.77,0,0,1,1.32,5.79c0,3.72-1.72,6.22-4.19,6.22s-4.33-2.36-4.33-5.6a8.62,8.62,0,0,1,2.25-5.81,8.11,8.11,0,0,1,1.87-1.5,4.77,4.77,0,0,0-3.35-1.42,5,5,0,0,0-3.45,1.37,13.19,13.19,0,0,1,1.62,5.45c.27,3.75-1,6.58-3.26,7a2.42,2.42,0,0,1-2.53-1c-1.46-1.9-1.18-6.48.6-10a11,11,0,0,1,1-1.71,5.49,5.49,0,0,0-4-2.09,6,6,0,0,0-3.56,1.06,7.72,7.72,0,0,1,2.59,7.16c-.63,3.72-3.72,6.67-6.74,6.4-2.08-.17-3.26-2-3.06-4.71a15.33,15.33,0,0,1,3.92-8.65,13.4,13.4,0,0,0-2.79-1,5.31,5.31,0,0,0-4.52.65,7.19,7.19,0,0,1,1.26,1.88c1.23,2.68.76,6-1.38,10-1.39,2.57-2.77,3.57-4.12,3-2.27-1-2.31-6.56-.82-10.86a13.36,13.36,0,0,1,2-3.88,7.51,7.51,0,0,0-1.75-.74,12.53,12.53,0,0,0-5.19,1.25l.12.18c1.93,3,1.46,7.38,0,10-.78,1.43-1.79,2.22-2.84,2.22-1.89,0-3.36-2.36-3.42-5.49a9.32,9.32,0,0,1,3-7.15,8.42,8.42,0,0,0-5.11-1,8.15,8.15,0,0,0-4.43,1.49,10.65,10.65,0,0,1,2.8,6.47c.44,4-.67,8.69-3,9.15a2.36,2.36,0,0,1-2.33-1.11c-1.86-2.31-3.28-8.26-1.34-12.71a8.85,8.85,0,0,1,.84-1.51,7,7,0,0,0-3.25-.6c-1.72.05-5.91,3-7.59,29.14-1,14.74-.6,29.65-.59,29.8a1,1,0,0,1-1,1Zm14.06-58.21a8.47,8.47,0,0,0-1.34,4c-.42,4.34,1.51,8,2.22,8.22.65-.25,1.89-3.87,1.18-7.81A8.48,8.48,0,0,0,261.8,709.56Zm22.54-1a10,10,0,0,0-1.29,2.2c-1.85,4.17-1.42,8.94-.68,9.46a6,6,0,0,0,1.55-2.1c1.83-3.37,2.27-6.13,1.33-8.21A5.24,5.24,0,0,0,284.34,708.59Zm30.09,1.67a6.39,6.39,0,0,0-1.59,1.23,6.66,6.66,0,0,0-1.72,4.46c0,1.79.8,3.6,2.33,3.6s2.17-2.2,2.19-4.24A11.06,11.06,0,0,0,314.43,710.26Zm-9.36,0q-.24.4-.42.75c-1.53,3-1.68,6.72-.79,7.89a.45.45,0,0,0,.53.2c1.14-.23,1.86-2.35,1.67-4.93A11.61,11.61,0,0,0,305.07,710.28Zm-10.23-1.58a13.34,13.34,0,0,0-3.66,7.68c-.08,1.12.07,2.48,1.24,2.58,2,.17,4.14-2.05,4.59-4.74A5.63,5.63,0,0,0,294.84,708.7Zm-20.68.27a7.27,7.27,0,0,0-2.44,5.72c0,2.15.95,3.53,1.42,3.53.14,0,.6-.29,1.09-1.17,1.15-2.13,1.48-5.68,0-7.94Z"/><path class="cls-3" d="M327.36,803.39H266.49v-69.7l61.31,5.5a5,5,0,0,1,4.56,5v54.22A5,5,0,0,1,327.36,803.39Z"/><path class="cls-27" d="M327.36,803.89H266V733.14l61.86,5.55a5.48,5.48,0,0,1,5,5.48v54.22A5.5,5.5,0,0,1,327.36,803.89Zm-60.37-1h60.37a4.5,4.5,0,0,0,4.5-4.5V744.17a4.47,4.47,0,0,0-4.1-4.48L267,734.24Z"/><ellipse class="cls-1" cx="284.73" cy="759.28" rx="10.35" ry="12.15"/><path class="cls-19" d="M284.73,771.68c-5.85,0-10.6-5.56-10.6-12.4s4.75-12.4,10.6-12.4,10.6,5.56,10.6,12.4S290.58,771.68,284.73,771.68Zm0-24.3c-5.57,0-10.1,5.34-10.1,11.9s4.53,11.9,10.1,11.9,10.1-5.34,10.1-11.9S290.3,747.38,284.73,747.38Z"/><ellipse class="cls-1" cx="318.9" cy="760.05" rx="9.64" ry="11.32"/><path class="cls-19" d="M318.9,771.62c-5.45,0-9.89-5.19-9.89-11.57s4.44-11.57,9.89-11.57,9.89,5.19,9.89,11.57S324.35,771.62,318.9,771.62Zm0-22.64c-5.18,0-9.39,5-9.39,11.07s4.21,11.07,9.39,11.07,9.39-5,9.39-11.07S324.08,749,318.9,749Z"/><ellipse class="cls-3" cx="284.73" cy="759.28" rx="9.53" ry="11.18"/><path class="cls-19" d="M284.73,770.71c-5.39,0-9.77-5.13-9.77-11.43s4.38-11.43,9.77-11.43,9.78,5.13,9.78,11.43S290.12,770.71,284.73,770.71Zm0-22.36c-5.11,0-9.27,4.9-9.27,10.93s4.16,10.93,9.27,10.93,9.28-4.9,9.28-10.93S289.85,748.35,284.73,748.35Z"/><ellipse class="cls-3" cx="318.9" cy="760.05" rx="8.87" ry="10.41"/><path class="cls-19" d="M318.9,770.71c-5,0-9.12-4.78-9.12-10.66s4.09-10.66,9.12-10.66,9.12,4.78,9.12,10.66S323.93,770.71,318.9,770.71Zm0-20.82c-4.75,0-8.62,4.56-8.62,10.16s3.87,10.16,8.62,10.16,8.62-4.56,8.62-10.16S323.65,749.89,318.9,749.89Z"/><ellipse class="cls-19" cx="319.56" cy="760.05" rx="4.53" ry="5.32"/><ellipse class="cls-19" cx="285.42" cy="759.28" rx="5.14" ry="6.03"/><polygon class="cls-1" points="297.01 779.51 303.15 765.32 308.54 779.6 297.01 779.51"/><path class="cls-19" d="M308.91,779.85l-12.27-.09,6.52-15.11Zm-11.52-.59,10.79.09L303.13,766Z"/><rect class="cls-3" x="275.23" y="785.47" width="48.39" height="5.66" rx="2.83"/><path class="cls-33" d="M320.79,791.38H278.06a3.08,3.08,0,1,1,0-6.16h42.73a3.08,3.08,0,1,1,0,6.16Zm-42.73-5.66a2.58,2.58,0,1,0,0,5.16h42.73a2.58,2.58,0,1,0,0-5.16Z"/><g class="cls-34"><polygon class="cls-3" points="278.35 785.47 275.23 791.51 272.11 785.47 278.35 785.47"/><path class="cls-33" d="M275.23,791.76a.26.26,0,0,1-.23-.13l-3.11-6a.23.23,0,0,1,0-.24.22.22,0,0,1,.21-.12h6.24a.25.25,0,0,1,.21.12.23.23,0,0,1,0,.24l-3.12,6A.25.25,0,0,1,275.23,791.76Zm-2.71-6,2.71,5.25,2.71-5.25Z"/><polygon class="cls-3" points="284.58 785.47 281.46 791.51 278.35 785.47 284.58 785.47"/><path class="cls-33" d="M281.46,791.76a.25.25,0,0,1-.22-.13l-3.12-6a.25.25,0,0,1,0-.24.25.25,0,0,1,.22-.12h6.23a.25.25,0,0,1,.22.12.29.29,0,0,1,0,.24l-3.12,6A.26.26,0,0,1,281.46,791.76Zm-2.7-6,2.7,5.25,2.71-5.25Z"/><polygon class="cls-3" points="290.82 785.47 287.7 791.51 284.58 785.47 290.82 785.47"/><path class="cls-33" d="M287.7,791.76a.25.25,0,0,1-.22-.13l-3.12-6a.23.23,0,0,1,0-.24.24.24,0,0,1,.21-.12h6.24a.22.22,0,0,1,.21.12.23.23,0,0,1,0,.24l-3.12,6A.25.25,0,0,1,287.7,791.76Zm-2.71-6L287.7,791l2.71-5.25Z"/><polygon class="cls-3" points="297.06 785.47 293.94 791.51 290.82 785.47 297.06 785.47"/><path class="cls-33" d="M293.94,791.76a.24.24,0,0,1-.22-.13l-3.12-6a.23.23,0,0,1,0-.24.22.22,0,0,1,.21-.12h6.24a.25.25,0,0,1,.21.12.23.23,0,0,1,0,.24l-3.12,6A.25.25,0,0,1,293.94,791.76Zm-2.71-6,2.71,5.25,2.71-5.25Z"/><polygon class="cls-3" points="303.29 785.47 300.17 791.51 297.06 785.47 303.29 785.47"/><path class="cls-33" d="M300.17,791.76a.25.25,0,0,1-.22-.13l-3.12-6a.25.25,0,0,1,0-.24.25.25,0,0,1,.22-.12h6.23a.25.25,0,0,1,.22.12.29.29,0,0,1,0,.24l-3.12,6A.26.26,0,0,1,300.17,791.76Zm-2.7-6,2.7,5.25,2.71-5.25Z"/><polygon class="cls-3" points="309.53 785.47 306.41 791.51 303.29 785.47 309.53 785.47"/><path class="cls-33" d="M306.41,791.76a.25.25,0,0,1-.22-.13l-3.12-6a.23.23,0,0,1,0-.24.24.24,0,0,1,.21-.12h6.24a.22.22,0,0,1,.21.12.23.23,0,0,1,0,.24l-3.12,6A.25.25,0,0,1,306.41,791.76Zm-2.71-6,2.71,5.25,2.71-5.25Z"/><polygon class="cls-3" points="315.77 785.47 312.65 791.51 309.53 785.47 315.77 785.47"/><path class="cls-33" d="M312.65,791.76a.24.24,0,0,1-.22-.13l-3.12-6a.23.23,0,0,1,0-.24.22.22,0,0,1,.21-.12h6.24a.25.25,0,0,1,.21.12.23.23,0,0,1,0,.24l-3.12,6A.25.25,0,0,1,312.65,791.76Zm-2.71-6,2.71,5.25,2.71-5.25Z"/><polygon class="cls-3" points="322 785.47 318.88 791.51 315.77 785.47 322 785.47"/><path class="cls-33" d="M318.88,791.76a.25.25,0,0,1-.22-.13l-3.12-6a.25.25,0,0,1,0-.24.25.25,0,0,1,.22-.12H322a.25.25,0,0,1,.22.12.29.29,0,0,1,0,.24l-3.12,6A.26.26,0,0,1,318.88,791.76Zm-2.7-6,2.7,5.25,2.71-5.25Z"/><polygon class="cls-3" points="328.24 785.47 325.12 791.51 322 785.47 328.24 785.47"/><path class="cls-33" d="M325.12,791.76a.25.25,0,0,1-.22-.13l-3.12-6a.23.23,0,0,1,0-.24.24.24,0,0,1,.21-.12h6.24a.22.22,0,0,1,.21.12.23.23,0,0,1,0,.24l-3.12,6A.25.25,0,0,1,325.12,791.76Zm-2.71-6,2.71,5.25,2.71-5.25Z"/></g><ellipse class="cls-35" cx="247.74" cy="776.06" rx="13.29" ry="16.78"/><path class="cls-19" d="M247.74,793.22c-7.54,0-13.67-7.7-13.67-17.16s6.13-17.16,13.67-17.16,13.66,7.7,13.66,17.16S255.27,793.22,247.74,793.22Zm0-33.57c-7.13,0-12.92,7.37-12.92,16.41s5.79,16.41,12.92,16.41,12.91-7.36,12.91-16.41S254.86,759.65,247.74,759.65Z"/><ellipse class="cls-36" cx="245.87" cy="774.85" rx="8.54" ry="13.45"/><rect class="cls-27" x="223.81" y="822.89" width="21.56" height="56.85" rx="10.78"/><path class="cls-3" d="M234.59,880.24A11.29,11.29,0,0,1,223.31,869V833.67a11.28,11.28,0,0,1,22.56,0V869A11.29,11.29,0,0,1,234.59,880.24Zm0-56.85a10.29,10.29,0,0,0-10.28,10.28V869a10.28,10.28,0,1,0,20.56,0V833.67A10.29,10.29,0,0,0,234.59,823.39Z"/><rect class="cls-1" x="274.38" y="817.57" width="38.04" height="25.11"/><path class="cls-19" d="M312.67,842.93H274.13V817.32h38.54Zm-38-.5h37.54V817.82H274.63Z"/><circle class="cls-1" cx="326.6" cy="830.12" r="12.55"/><path class="cls-19" d="M326.6,842.93a12.81,12.81,0,1,1,12.8-12.81A12.82,12.82,0,0,1,326.6,842.93Zm0-25.11a12.31,12.31,0,1,0,12.3,12.3A12.31,12.31,0,0,0,326.6,817.82Z"/><circle class="cls-3" cx="326.6" cy="830.12" r="11.2"/><path class="cls-19" d="M326.6,841.57a11.45,11.45,0,1,1,11.45-11.45A11.45,11.45,0,0,1,326.6,841.57Zm0-22.4a11,11,0,1,0,10.95,11A11,11,0,0,0,326.6,819.17Z"/><polygon class="cls-33" points="332.27 823.61 327.53 829.76 326.78 829.1 332.23 823.58 332.27 823.61"/><polygon class="cls-33" points="323.16 831.97 326.79 829.09 327.52 829.77 324.94 833.61 323.16 831.97"/><circle class="cls-33" cx="327.15" cy="829.43" r="1.27"/><rect class="cls-3" x="275.65" y="818.59" width="35.49" height="23.08"/><path class="cls-19" d="M311.27,841.79H275.53V818.46h35.74Zm-35.49-.25H311V818.71H275.78Z"/><path class="cls-19" d="M294.42,838.89l-6.6-12.23a.25.25,0,0,1,.11-.34.24.24,0,0,1,.3,0l9.63,10a2.15,2.15,0,0,1-3.1,3A2.25,2.25,0,0,1,294.42,838.89Z"/><path class="cls-19" d="M279.8,836.64h-1.56a.25.25,0,0,1,0-.5h1.56a.25.25,0,1,1,0,.5Z"/><path class="cls-19" d="M280.47,832.37h-.07l-1.48-.48a.24.24,0,0,1-.16-.31.25.25,0,0,1,.31-.16l1.48.47a.25.25,0,0,1,.16.32A.25.25,0,0,1,280.47,832.37Z"/><path class="cls-19" d="M282.43,828.51a.26.26,0,0,1-.15,0l-1.26-.91a.24.24,0,0,1-.06-.35.25.25,0,0,1,.35-.05l1.26.9a.25.25,0,0,1,.06.35A.25.25,0,0,1,282.43,828.51Z"/><path class="cls-19" d="M285.46,825.44a.28.28,0,0,1-.2-.1l-.93-1.25a.25.25,0,0,1,.41-.3l.92,1.25a.24.24,0,0,1-.05.35A.27.27,0,0,1,285.46,825.44Z"/><path class="cls-19" d="M289.29,823.44a.23.23,0,0,1-.23-.17l-.5-1.47a.25.25,0,1,1,.47-.16l.5,1.47a.25.25,0,0,1-.16.32Z"/><path class="cls-19" d="M293.55,822.71a.26.26,0,0,1-.25-.25l0-1.55a.24.24,0,0,1,.24-.25h0a.25.25,0,0,1,.25.24l0,1.56a.24.24,0,0,1-.24.25Z"/><path class="cls-19" d="M297.83,823.32h-.07a.26.26,0,0,1-.17-.32l.45-1.48a.25.25,0,0,1,.32-.17.25.25,0,0,1,.16.31l-.45,1.49A.25.25,0,0,1,297.83,823.32Z"/><path class="cls-19" d="M301.72,825.2a.23.23,0,0,1-.14,0,.26.26,0,0,1-.07-.35l.89-1.28a.25.25,0,1,1,.41.29l-.88,1.27A.26.26,0,0,1,301.72,825.2Z"/><path class="cls-19" d="M304.85,828.19a.26.26,0,0,1-.2-.1.24.24,0,0,1,0-.35l1.24-1a.25.25,0,1,1,.3.4l-1.23.94A.24.24,0,0,1,304.85,828.19Z"/><path class="cls-19" d="M306.91,832a.26.26,0,0,1-.24-.16.26.26,0,0,1,.15-.32l1.47-.53a.26.26,0,0,1,.32.15.25.25,0,0,1-.15.32L307,832Z"/><path class="cls-19" d="M307.71,836.23a.26.26,0,0,1-.25-.24.25.25,0,0,1,.24-.26l1.56-.05a.24.24,0,0,1,.26.24.26.26,0,0,1-.24.26l-1.56.05Z"/><rect class="cls-2" x="273.98" y="848.55" width="62.41" height="75.1"/><path class="cls-3" d="M336.89,924.15H273.48v-76.1h63.41Zm-62.41-1h61.41v-74.1H274.48Z"/><rect class="cls-2" x="273.98" y="910.46" width="62.41" height="12.18"/><path class="cls-3" d="M336.89,923.15H273.48V910h63.41Zm-62.41-1h61.41V911H274.48Z"/><circle class="cls-1" cx="279.59" cy="916.55" r="3.4"/><path class="cls-19" d="M279.59,920.08a3.53,3.53,0,1,1,3.52-3.52A3.53,3.53,0,0,1,279.59,920.08Zm0-6.8a3.28,3.28,0,1,0,3.27,3.28A3.27,3.27,0,0,0,279.59,913.28Z"/><circle class="cls-3" cx="279.59" cy="916.55" r="3.03"/><path class="cls-19" d="M279.59,919.71a3.16,3.16,0,1,1,3.15-3.15A3.16,3.16,0,0,1,279.59,919.71Zm0-6.06a2.91,2.91,0,1,0,2.9,2.91A2.91,2.91,0,0,0,279.59,913.65Z"/><circle class="cls-1" cx="234.45" cy="870.88" r="3.4"/><path class="cls-19" d="M234.45,874.41a3.53,3.53,0,1,1,3.52-3.53A3.53,3.53,0,0,1,234.45,874.41Zm0-6.8a3.28,3.28,0,1,0,3.27,3.27A3.28,3.28,0,0,0,234.45,867.61Z"/><circle class="cls-3" cx="234.45" cy="870.88" r="3.03"/><path class="cls-19" d="M234.45,874a3.16,3.16,0,1,1,3.15-3.16A3.17,3.17,0,0,1,234.45,874Zm0-6.06a2.91,2.91,0,1,0,2.9,2.9A2.9,2.9,0,0,0,234.45,868Z"/><circle class="cls-1" cx="329.26" cy="916.55" r="3.4"/><path class="cls-19" d="M329.26,920.08a3.53,3.53,0,1,1,3.52-3.52A3.53,3.53,0,0,1,329.26,920.08Zm0-6.8a3.28,3.28,0,1,0,3.27,3.28A3.27,3.27,0,0,0,329.26,913.28Z"/><circle class="cls-3" cx="329.26" cy="916.55" r="3.03"/><path class="cls-19" d="M329.26,919.71a3.16,3.16,0,1,1,3.15-3.15A3.16,3.16,0,0,1,329.26,919.71Zm0-6.06a2.91,2.91,0,1,0,2.9,2.91A2.91,2.91,0,0,0,329.26,913.65Z"/><circle class="cls-1" cx="319.34" cy="916.55" r="3.4"/><path class="cls-19" d="M319.34,920.08a3.53,3.53,0,1,1,3.52-3.52A3.53,3.53,0,0,1,319.34,920.08Zm0-6.8a3.28,3.28,0,1,0,3.27,3.28A3.28,3.28,0,0,0,319.34,913.28Z"/><circle class="cls-3" cx="319.34" cy="916.55" r="3.03"/><path class="cls-19" d="M319.34,919.71a3.16,3.16,0,1,1,3.16-3.15A3.15,3.15,0,0,1,319.34,919.71Zm0-6.06a2.91,2.91,0,1,0,2.91,2.91A2.9,2.9,0,0,0,319.34,913.65Z"/><circle class="cls-1" cx="307.99" cy="916.55" r="3.4"/><path class="cls-19" d="M308,920.08a3.53,3.53,0,1,1,3.52-3.52A3.53,3.53,0,0,1,308,920.08Zm0-6.8a3.28,3.28,0,1,0,3.27,3.28A3.28,3.28,0,0,0,308,913.28Z"/><circle class="cls-3" cx="307.99" cy="916.55" r="3.03"/><path class="cls-19" d="M308,919.71a3.16,3.16,0,1,1,3.16-3.15A3.16,3.16,0,0,1,308,919.71Zm0-6.06a2.91,2.91,0,1,0,2.91,2.91A2.91,2.91,0,0,0,308,913.65Z"/><circle class="cls-1" cx="300.76" cy="916.55" r="3.4"/><path class="cls-19" d="M300.76,920.08a3.53,3.53,0,1,1,3.52-3.52A3.53,3.53,0,0,1,300.76,920.08Zm0-6.8a3.28,3.28,0,1,0,3.27,3.28A3.28,3.28,0,0,0,300.76,913.28Z"/><circle class="cls-3" cx="300.76" cy="916.55" r="3.03"/><path class="cls-19" d="M300.76,919.71a3.16,3.16,0,1,1,3.16-3.15A3.15,3.15,0,0,1,300.76,919.71Zm0-6.06a2.91,2.91,0,1,0,2.91,2.91A2.9,2.9,0,0,0,300.76,913.65Z"/><path class="cls-1" d="M336.39,923.65a1,1,0,0,1-.65-.24l-7.13-6.09a1,1,0,0,1,1.3-1.53l7.13,6.1a1,1,0,0,1-.65,1.76Z"/><path class="cls-1" d="M308.73,917.56h-9.38a1,1,0,1,1,0-2h9.38a1,1,0,0,1,0,2Z"/><path class="cls-1" d="M273.06,925.2a1,1,0,0,1-.76-1.65l6.09-7.13a1,1,0,1,1,1.52,1.29l-6.09,7.14A1,1,0,0,1,273.06,925.2Z"/><path class="cls-2" d="M190.73,913.46s-10,28.95-5.31,39,37.8,8.27,54.93,4.14,0-43.13,0-43.13Z"/><path class="cls-19" d="M210.81,961.35c-12.33,0-23.81-2-26.75-8.26-4.93-10.47,4.84-38.91,5.26-40.12a1.49,1.49,0,0,1,1.41-1h49.62a1.5,1.5,0,0,1,1.38.9c.49,1.12,12,27.55,6,39.57a10.26,10.26,0,0,1-7.05,5.62A141.83,141.83,0,0,1,210.81,961.35Zm-19-46.39c-2.88,8.63-8.55,29.38-5,36.85,4,8.42,34.55,7.83,53.23,3.32a7.26,7.26,0,0,0,5.06-4c4.77-9.64-3.76-31.45-5.7-36.14Z"/><path class="cls-2" d="M191.91,857.35S172.42,892.2,173.6,904s39.87,38.69,66.31,25-5.32-68.08-5.32-68.08Z"/><path class="cls-19" d="M223,934.27c-7.71,0-17.47-1.95-29-8.18-12.1-6.55-21.33-15.77-21.94-21.93-1.22-12.14,17.69-46.11,18.49-47.55a1.53,1.53,0,0,1,1.44-.76l42.68,3.54a1.55,1.55,0,0,1,1.17.74,160.89,160.89,0,0,1,9.73,20.6c6,15.56,7.74,28,5.14,37A19.83,19.83,0,0,1,240.6,930.3,38.1,38.1,0,0,1,223,934.27Zm-30.28-75.35c-2.93,5.36-18.69,34.72-17.67,44.94.45,4.45,8.19,13,20.39,19.59,22.9,12.39,38.22,7.06,43.74,4.19a16.92,16.92,0,0,0,8.66-10.76c5.34-18.46-11.43-49.6-14.2-54.56Z"/><path class="cls-2" d="M190.14,777.85l-22.08,81.58a17.39,17.39,0,0,0,10.64,20.8c18.3,7,49.77,15.43,69.8,1.41C278.16,860.89,190.14,777.85,190.14,777.85Z"/><path class="cls-19" d="M221,890.67c-15.79,0-32.07-5-42.79-9A18.84,18.84,0,0,1,166.61,859l22.08-81.58a1.51,1.51,0,0,1,1-1.05,1.49,1.49,0,0,1,1.44.35,480.45,480.45,0,0,1,33.15,35.29c22,26.14,32.67,45.91,31.73,58.76a15.41,15.41,0,0,1-6.69,12.06C241.18,888.59,231.17,890.67,221,890.67Zm-30-110-21.42,79.13a15.87,15.87,0,0,0,9.72,19c17.1,6.51,48.72,15.36,68.41,1.58a12.36,12.36,0,0,0,5.42-9.82C255,844.37,201.55,791,190.93,780.69Z"/><path class="cls-2" d="M239.91,754.56s-64.59,24.55-62.82,32.6,5.91,39.6,27.76,52.77c12.29,7.4,21.84,5.63,27.85,2.67a13.07,13.07,0,0,0,7.21-11.75Z"/><path class="cls-19" d="M221.74,846.66c-5,0-11-1.41-17.66-5.45-20.38-12.28-25.64-39.35-27.89-50.91-.22-1.12-.4-2.07-.57-2.82-1.37-6.22,20.9-16.21,31.6-21,15.78-7.08,32-13.25,32.16-13.31a1.47,1.47,0,0,1,1.38.16,1.49,1.49,0,0,1,.65,1.24v76.29a14.65,14.65,0,0,1-8,13.09A26.1,26.1,0,0,1,221.74,846.66Zm16.67-89.92c-4.82,1.88-17.49,6.87-29.89,12.44-30.36,13.61-30,17.5-30,17.66.17.76.36,1.74.59,2.89,2.17,11.17,7.25,37.32,26.49,48.91,11.79,7.11,20.87,5.34,26.4,2.61a11.62,11.62,0,0,0,6.38-10.4Z"/><rect class="cls-37" x="993.38" y="303.25" width="28.35" height="79.41" rx="14.18" transform="translate(627.48 -651.2) rotate(50.28)"/><polygon class="cls-38" points="1189.8 716.16 1153.66 714.8 979.58 434.21 1008.94 415.99 1189.8 716.16"/><path class="cls-37" d="M772.28,360.55s163.06-77.13,218.88-28.5c75.62,65.87-69.83,242.23-69.83,242.23Z"/><ellipse class="cls-39" cx="846.71" cy="467.14" rx="51.13" ry="130.1" transform="translate(-116.54 552.54) rotate(-33.95)"/><g class="cls-40"><ellipse class="cls-3" cx="885.64" cy="428.74" rx="73.18" ry="80.56"/></g><ellipse class="cls-41" cx="846.71" cy="467.14" rx="51.13" ry="130.1" transform="translate(-116.54 552.54) rotate(-33.95)"/><polygon class="cls-38" points="1154.67 714.83 1189.8 716.16 941.9 1015.49 915.69 992.97 1154.67 714.83"/><rect class="cls-37" x="834.33" y="979.33" width="311.02" height="48.51" rx="24.26"/><line class="cls-41" x1="834.33" y1="1003.59" x2="1141.95" y2="1003.59"/><path class="cls-42" d="M622.48,679.93c5.16,68-31.16,110.86-80.86,152"/><path class="cls-27" d="M727.88,798.25c-24.81,31.69-20.18,58.49-33.78,59.4-17.5,1.18-19-48.62-1.66-86.42s48.33-57.78,64.29-50.48S753.51,765.52,727.88,798.25Z"/><g class="cls-43"><path class="cls-19" d="M745.85,731.16l-19.5,31c-1.37,2.19,2.09,4.2,3.46,2q9.75-15.51,19.49-31C750.68,731,747.22,729,745.85,731.16Z"/></g><path class="cls-44" d="M727.88,798.25c-24.81,31.69-20.18,58.49-33.78,59.4-17.5,1.18-19-48.62-1.66-86.42s48.33-57.78,64.29-50.48S753.51,765.52,727.88,798.25Z"/><path class="cls-27" d="M720.89,731.61c0,40.86-16.35,76.85-33.51,76.85s-31.07-33.13-31.07-74,34.58-79.7,51.74-79.7S720.89,690.75,720.89,731.61Z"/><g class="cls-45"><path class="cls-46" d="M664.15,749s49.22,9.66,63.4-36.15S712.93,791,712.93,791l-60,13.05Z"/><path class="cls-19" d="M697.13,699.38a2,2,0,0,0-2.73.72q-11.65,27-21.37,54.71-2.74,7.88-5.34,15.79c-.8,2.46,3.06,3.51,3.86,1.07q9-27.57,20-54.43,3.09-7.59,6.35-15.12A2.07,2.07,0,0,0,697.13,699.38Z"/></g><path class="cls-44" d="M720.89,731.61c0,40.86-16.35,76.85-33.51,76.85s-31.07-33.13-31.07-74,34.58-79.7,51.74-79.7S720.89,690.75,720.89,731.61Z"/><path class="cls-27" d="M662.09,703.57c-5,48.23-24.84,108.79-35.88,108.79s2-60.17,2-108.79S640.9,640.34,652,640.34,667,656.19,662.09,703.57Z"/><g class="cls-47"><path class="cls-46" d="M623,694.37s25.83,58.08,35.39,52.13S672,782.92,672,782.92L628.71,814s-21.75,23-20.62,3.53,6.57-61.12,6.57-61.12Z"/><path class="cls-19" d="M648.49,671q-1.11,24.39-2.21,48.76c-.12,2.57,3.88,2.57,4,0q1.1-24.37,2.21-48.76C652.61,668.38,648.61,668.39,648.49,671Z"/></g><path class="cls-44" d="M662.09,703.57c-5,48.23-24.84,108.79-35.88,108.79s2-60.17,2-108.79S640.9,640.34,652,640.34,667,656.19,662.09,703.57Z"/><path class="cls-27" d="M636.36,735.67c10.62,39.74,18.37,73.26,1.21,75.21-6,.68-41.72-31.18-53.07-70.72s-19.15-67.06,12-72.48C625.2,662.68,633,723,636.36,735.67Z"/><g class="cls-48"><path class="cls-46" d="M628.81,686.1s.92,36.6-12.2,49.06-36.59-8-36.59-8l10.24,71.24L642,788.47Z"/><path class="cls-19" d="M613.73,746.83q-9.27-24.37-18.56-48.75a2.07,2.07,0,0,0-2.46-1.4,2,2,0,0,0-1.4,2.46l18.57,48.75a2.05,2.05,0,0,0,2.46,1.4A2,2,0,0,0,613.73,746.83Z"/></g><path class="cls-44" d="M636.36,735.67c10.62,39.74,18.37,73.26,1.21,75.21-6,.68-41.72-31.18-53.07-70.72s-19.15-67.06,12-72.48C625.2,662.68,633,723,636.36,735.67Z"/><ellipse class="cls-27" cx="567.02" cy="774.15" rx="36.02" ry="89.49" transform="translate(-361.1 530.42) rotate(-39.07)"/><g class="cls-49"><path class="cls-46" d="M508.73,768.31s64.69,9.23,72.64-12.82-6.84-36.23-6.84-36.23l42.08,46.85-10.56,41.82-71.22,6.59Z"/><path class="cls-19" d="M579.52,785q-18.33-22-36.67-44c-1.65-2-4.47.86-2.83,2.83l36.68,44C578.34,789.78,581.16,786.93,579.52,785Z"/></g><ellipse class="cls-44" cx="567.02" cy="774.15" rx="36.02" ry="89.49" transform="translate(-361.1 530.42) rotate(-39.07)"/><ellipse class="cls-10" cx="736.51" cy="803.81" rx="76.22" ry="22.15" transform="matrix(0.96, -0.28, 0.28, 0.96, -193.1, 234.26)"/><g class="cls-50"><path class="cls-51" d="M703.18,788.47s7.54,34.52,48.3,22.09S810,797.68,810,797.68l-64.24,50.07-72.88-10.3Z"/><path class="cls-19" d="M762.43,784.44a297.62,297.62,0,0,0-38.51,31.32c-1.86,1.79,1,4.62,2.83,2.83a290.78,290.78,0,0,1,37.7-30.7C766.56,786.45,764.56,783,762.43,784.44Z"/></g><ellipse class="cls-10" cx="696.85" cy="795.85" rx="72.4" ry="20.53" transform="translate(-358.96 860.87) rotate(-52.32)"/><g class="cls-52"><path class="cls-51" d="M676.6,781.8s-1.52,44.67,43.16,25.38l-26.91,38.35H634.36Z"/><path class="cls-19" d="M721.16,766.94,685,810.23l-10.24,12.26c-1.64,2,1.18,4.81,2.83,2.83L713.75,782,724,769.77C725.63,767.81,722.81,765,721.16,766.94Z"/></g><ellipse class="cls-10" cx="596.38" cy="820.03" rx="20.53" ry="51.4" transform="translate(-277.81 306.3) rotate(-23.53)"/><g class="cls-53"><path class="cls-51" d="M565,799.75s28.75,19.63,41.1,8.18,9.12,29.32,9.12,29.32L565,845.53Z"/><path class="cls-19" d="M615.8,825.73A165.31,165.31,0,0,1,586.4,793c-1.44-2.12-4.91-.12-3.45,2a169.07,169.07,0,0,0,30,33.56C614.92,830.23,617.76,827.41,615.8,825.73Z"/></g><ellipse class="cls-10" cx="651.88" cy="780.04" rx="19.58" ry="72.4" transform="translate(-123.06 122.11) rotate(-9.78)"/><g class="cls-54"><path class="cls-51" d="M625.2,780.37s22.45,23,36.33,13.09,18.67-34.77,18.67-34.77l8.64,70.89-16.67,28.65-32.17-4Z"/><path class="cls-19" d="M650.07,763.82q-1.94-7.77-4.36-15.39c-.77-2.45-4.63-1.4-3.85,1.06a259.38,259.38,0,0,1,11,54.6q.71,7.85,1,15.73c.08,2.57,4.08,2.58,4,0A264.54,264.54,0,0,0,650.07,763.82Z"/></g><path class="cls-10" d="M511.69,783.37c8.11-12.84,27.52-9.46,51.16,5.23s23.87,63.44,15.86,76.34-4.07-32.12-31.19-38.41C513.23,818.58,503,797.19,511.69,783.37Z"/><g class="cls-55"><path class="cls-51" d="M508.73,805.07s34.77,13,51,4.13,8.88-21.29,8.88-21.29l32.65,41.67-53,13.89L516.52,826Z"/><path class="cls-19" d="M584.39,828.71A421.6,421.6,0,0,0,543.54,797q-6-4.11-12.21-8c-2.18-1.38-4.19,2.08-2,3.45a413.93,413.93,0,0,1,41.3,29.79q5.57,4.56,10.95,9.31C583.49,833.23,586.33,830.42,584.39,828.71Z"/></g><path class="cls-10" d="M606.36,740.37c10.9-3.13,20.38,5,31,41.5,6.4,22,34.13,33.93,6.36,41.61-10.92,3-38.81-12.71-45.84-37.22S595.47,743.49,606.36,740.37Z"/><g class="cls-56"><path class="cls-51" d="M599.15,790s43.78,26.56,51.76,9.13,13.49,27.93,13.49,27.93-49.82,13.42-50.71,13.42-9.75-12.11-9.75-12.11Z"/><path class="cls-19" d="M637.28,819.87a234.85,234.85,0,0,1-20.67-53.76c-.62-2.5-4.48-1.44-3.85,1.06a238.83,238.83,0,0,0,21.07,54.71C635,824.16,638.49,822.14,637.28,819.87Z"/></g><path class="cls-3" d="M712.93,1027.84l-150.63.81C510.9,993.21,472,866.51,523.54,817.32h243C824.25,901,742.34,1013.11,712.93,1027.84Z"/><g class="cls-57"><path class="cls-58" d="M587.08,1083.83c-32.32-38.53-45.92-73.58-34.23-88,11.06-13.68,47.4-12.11,54.49,2.8,6.72,14.11-12.41,40.95-22.35,39.12-7.33-1.35-12.9-18.88-8.39-31.44,8-22.31,49.73-34.42,69.87-17.47,16,13.47,16.67,43.86,9.08,47.51s-31-16.52-28.64-32.14c2.87-19.27,45.56-36.69,65.67-20.26,16.67,13.62,14.78,48,4.89,52.4-8.86,3.93-30.14-13.59-28.65-27.24,2.09-19,48.92-35,62.19-22.36,16.06,15.3-16.25,73.35-30.75,97.81"/><line class="cls-59" x1="492.59" y1="844.66" x2="826.94" y2="844.66"/><path class="cls-58" d="M793.4,908.34c-5,27.75-19.88,48.29-38.1,51.39-1.86.32-17.58,2.75-25.74-7.64-6.56-8.34-7.17-23.64,2.7-31.35,10.2-8,27.17-4.4,31.9,6.2,3.84,8.61-2.95,19-4.43,21.27-13,19.49-46.34,27.63-69.11,15.06-10.94-6-25.14-20-21.11-30.76,3.07-8.22,16.5-13.94,26.54-9.49,9.76,4.32,14,17.23,11.4,25.19-5.86,18.11-44.16,29.76-70.88,16.84-15.89-7.68-31.09-25.73-26.59-36.33,3.39-8,18.5-13,27.47-7.09,7.88,5.22,8.54,17.26,6.19,25-5.41,17.76-31.08,26.94-51.38,24.63-20.58-2.34-43.21-17.35-41.64-30.13,1.13-9.28,15.22-19,27.46-16,9.65,2.37,17.48,12.45,16.84,21.27-1.28,17.7-37.31,39-64.68,27.47-21.76-9.17-27.63-34.69-28.36-38.11"/></g><path class="cls-59" d="M712.93,1027.84l-150.63.81C510.9,993.21,472,866.51,523.54,817.32h243C824.25,901,742.34,1013.11,712.93,1027.84Z"/><path class="cls-3" d="M647,360.82s41.86-30.91,51.59-26.46l1.15.53c27.07,9.28,55.4,5.71,86.41-25.31,17.38-17.38,25.29-43,20.44-66.34-3.84-18.54-11.37-32.74-21.86-43.44C768,182.72,744,176,719.94,180.78c-71.8,14.37-83.92,42.32-83.65,73.08.65,26.68,8,43.81,19.13,55.68C664.09,318.81,647,360.82,647,360.82Z"/><path class="cls-60" d="M647,362.82a1.94,1.94,0,0,1-1.23-.43,2,2,0,0,1-.62-2.33c6.41-15.78,14.47-43.09,8.79-49.16-12.63-13.51-19.06-32.15-19.65-57-.18-19.14,4.56-32.74,15.34-44.11,13.37-14.11,36.24-24.24,69.91-31,25.18-5,49.46,2.09,66.61,19.58,11.09,11.3,18.63,26.25,22.4,44.43,5,24.1-3,50.21-21,68.16-15.11,15.12-30,24.37-45.6,28.29-13.8,3.48-27.83,2.66-42.87-2.5l-.19-.08-1.14-.52c-6-2.73-32.58,13.7-49.57,26.25A2,2,0,0,1,647,362.82Zm88.22-181.58a75.61,75.61,0,0,0-14.9,1.5c-72.53,14.52-82.29,42.75-82,71.1.58,23.79,6.65,41.57,18.59,54.33,7.42,7.94-1,34.53-5.61,47.1,12.64-8.92,39.53-26.68,48.16-22.73l1.06.48c30.2,10.33,57,2.43,84.26-24.86,17-17,24.62-41.73,19.9-64.52-3.62-17.42-10.8-31.7-21.34-42.44A66.52,66.52,0,0,0,735.23,181.24Z"/><path class="cls-10" d="M751.16,237.38l-.06-.11h0a20.34,20.34,0,0,0-37.74,10,20.34,20.34,0,0,0-26.81,28.4h0c6.11,14.18,18.44,15.91,55,19.12,14.76-32.67,18.66-42.21,9.71-57.38a.13.13,0,0,1,0-.05Z"/><path class="cls-19" d="M507.39,835.73a1.35,1.35,0,0,1-.39-.05c-.31-.08-32.21-8.78-69.65-33-34.56-22.4-81.09-63-106.5-129.46L326.55,662a1.5,1.5,0,1,1,2.8-1.07l4.3,11.21c25.11,65.62,71.09,105.8,105.24,128,37.05,24,68.58,32.64,68.89,32.72a1.5,1.5,0,0,1-.39,3Z"/><polygon class="cls-3" points="173.54 163.94 218.7 214.76 248.37 188.39 173.54 163.94"/><path class="cls-15" d="M218.7,215.76h-.06a1,1,0,0,1-.69-.34L172.79,164.6a1,1,0,0,1-.09-1.21,1,1,0,0,1,1.15-.4l74.83,24.45a1,1,0,0,1,.35,1.7l-29.67,26.37A1,1,0,0,1,218.7,215.76Zm-42-49.72,42,47.31L246.4,188.8Z"/><polygon class="cls-3" points="173.54 163.94 244.41 243.7 274.09 217.33 173.54 163.94"/><path class="cls-15" d="M244.41,244.7h-.06a1,1,0,0,1-.69-.34L172.79,164.6a1,1,0,0,1,0-1.28,1,1,0,0,1,1.26-.27l100.54,53.4a1,1,0,0,1,.53.76,1,1,0,0,1-.33.87l-29.67,26.37A1,1,0,0,1,244.41,244.7ZM178,167.43l66.51,74.86,27.86-24.75Z"/></g></svg>