<svg xmlns="http://www.w3.org/2000/svg" xmlns:xlink="http://www.w3.org/1999/xlink" viewBox="0 0 155 155"><defs><style>.cls-1{isolation:isolate;}.cls-2{fill:url(#Безымянный_градиент_25);}.cls-3{mix-blend-mode:multiply;}.cls-25,.cls-4{fill:#b0bed9;}.cls-5{fill:#5a5c71;}.cls-6{fill:url(#Безымянный_градиент_93);}.cls-7{fill:#eef0f2;}.cls-8{fill:#ffd56f;}.cls-9{fill:#182837;}.cls-10{fill:url(#Безымянный_градиент_17);}.cls-11{fill:#d7dde2;}.cls-12{fill:#518af0;}.cls-13{fill:#c9d5e0;}.cls-14{mix-blend-mode:screen;}.cls-15{fill:#ffde91;}.cls-16{fill:#fff;}.cls-17{fill:#ffbd53;}.cls-18{fill:#70d994;}.cls-19{fill:#ffbf6a;}.cls-20{fill:#6a8aff;}.cls-21{fill:url(#Безымянный_градиент_21);}.cls-22{fill:url(#Безымянный_градиент_21-2);}.cls-23{fill:url(#Безымянный_градиент_18);}.cls-24{fill:url(#Безымянный_градиент_18-2);}.cls-25{opacity:0.4;}.cls-26{fill:#efebe7;}.cls-27{fill:url(#Безымянный_градиент_21-3);}.cls-28{fill:url(#Безымянный_градиент_21-4);}.cls-29{fill:url(#Безымянный_градиент_21-5);}.cls-30{fill:url(#Безымянный_градиент_21-6);}.cls-31{fill:url(#Безымянный_градиент_21-7);}.cls-32{fill:url(#Безымянный_градиент_21-8);}.cls-33{fill:url(#Безымянный_градиент_21-9);}.cls-34{fill:url(#Безымянный_градиент_21-10);}.cls-35{fill:#949cc3;}</style><radialGradient id="Безымянный_градиент_25" cx="73.76" cy="82.78" r="70.35" gradientTransform="translate(134.44 -16.15) rotate(76.3)" gradientUnits="userSpaceOnUse"><stop offset="0" stop-color="#afc8d7"/><stop offset="0.23" stop-color="#c9dae4"/><stop offset="0.54" stop-color="#e7eef3"/><stop offset="0.81" stop-color="#f9fbfc"/><stop offset="1" stop-color="#fff"/></radialGradient><linearGradient id="Безымянный_градиент_93" x1="104.4" y1="108.65" x2="65.77" y2="95.07" gradientUnits="userSpaceOnUse"><stop offset="0" stop-color="#ffa141"/><stop offset="0.14" stop-color="#ffa747"/><stop offset="0.64" stop-color="#ffba58"/><stop offset="1" stop-color="#ffc05e"/></linearGradient><linearGradient id="Безымянный_градиент_17" x1="80.39" y1="99.01" x2="100.67" y2="99.01" gradientUnits="userSpaceOnUse"><stop offset="0" stop-color="#c7cfe4"/><stop offset="1" stop-color="#e2e6f1"/></linearGradient><linearGradient id="Безымянный_градиент_21" x1="68.17" y1="50.57" x2="79.41" y2="41.12" gradientUnits="userSpaceOnUse"><stop offset="0" stop-color="#ff5f82"/><stop offset="0.3" stop-color="#ff5c7c"/><stop offset="0.71" stop-color="#ff5269"/><stop offset="1" stop-color="#ff4959"/></linearGradient><linearGradient id="Безымянный_градиент_21-2" x1="75.96" y1="59.83" x2="87.2" y2="50.39" xlink:href="#Безымянный_градиент_21"/><linearGradient id="Безымянный_градиент_18" x1="84.83" y1="40.32" x2="70.88" y2="58.54" gradientUnits="userSpaceOnUse"><stop offset="0" stop-color="#c7cfe4"/><stop offset="1" stop-color="#fff"/></linearGradient><linearGradient id="Безымянный_градиент_18-2" x1="90.05" y1="42.12" x2="83.92" y2="46.71" xlink:href="#Безымянный_градиент_18"/><linearGradient id="Безымянный_градиент_21-3" x1="34.58" y1="52.15" x2="37.63" y2="52.15" xlink:href="#Безымянный_градиент_21"/><linearGradient id="Безымянный_градиент_21-4" x1="73.5" y1="76.15" x2="76.55" y2="76.15" xlink:href="#Безымянный_градиент_21"/><linearGradient id="Безымянный_градиент_21-5" x1="76.75" y1="24.92" x2="79.79" y2="24.92" xlink:href="#Безымянный_градиент_21"/><linearGradient id="Безымянный_градиент_21-6" x1="117.4" y1="49.77" x2="120.45" y2="49.77" xlink:href="#Безымянный_градиент_21"/><linearGradient id="Безымянный_градиент_21-7" x1="86.74" y1="74.4" x2="89.99" y2="74.4" xlink:href="#Безымянный_градиент_21"/><linearGradient id="Безымянный_градиент_21-8" x1="130.64" y1="48.02" x2="133.89" y2="48.02" xlink:href="#Безымянный_градиент_21"/><linearGradient id="Безымянный_градиент_21-9" x1="89.98" y1="23.18" x2="93.23" y2="23.18" xlink:href="#Безымянный_градиент_21"/><linearGradient id="Безымянный_градиент_21-10" x1="47.82" y1="51.78" x2="51.06" y2="51.78" xlink:href="#Безымянный_градиент_21"/></defs><g class="cls-1"><g id="Layer_1" data-name="Layer 1"><circle class="cls-2" cx="77.5" cy="77.5" r="69.7" transform="translate(-16.15 134.44) rotate(-76.3)"/><g class="cls-3"><path class="cls-4" d="M100.15,113.2c-12.58-6.16-32.92-6-45.42.31S42.3,130,54.88,136.16s32.93,6,45.43-.31S112.74,119.37,100.15,113.2Z"/></g><path class="cls-5" d="M77.06,138.34c-11.57,0-23.14-2.5-31.94-7.49-8.58-4.86-13.3-11.34-13.3-18.23s4.72-13.37,13.3-18.24c17.61-10,46.27-10,63.89,0h0c8.57,4.86,13.29,11.33,13.29,18.23S117.58,126,109,130.85C100.2,135.84,88.63,138.34,77.06,138.34Zm0-51c-11.5,0-23,2.48-31.75,7.44-8.44,4.79-13.09,11.14-13.09,17.89s4.65,13.09,13.09,17.88c17.51,9.93,46,9.93,63.5,0,8.44-4.79,13.09-11.14,13.09-17.88s-4.65-13.1-13.09-17.89h0C100.06,89.77,88.56,87.29,77.06,87.29Z"/><polygon class="cls-6" points="111.87 73.88 111.87 107.46 67.56 133.1 67.56 99.46 111.87 73.88"/><path class="cls-7" d="M70.06,135.14a.21.21,0,0,1-.2-.2V101.3a.19.19,0,0,1,.1-.17l44.31-25.58a.23.23,0,0,1,.2,0,.21.21,0,0,1,.1.18v33.58a.21.21,0,0,1-.1.17L70.16,135.11A.17.17,0,0,1,70.06,135.14Zm.2-33.73v33.18l43.91-25.4V76.07Z"/><polygon class="cls-8" points="67.56 99.46 45.06 86.52 45.06 120.11 67.56 133.1 67.56 99.46"/><polygon class="cls-4" points="58.6 94.31 58.6 104.69 54.09 101.97 54.09 91.72 58.6 94.31"/><path class="cls-9" d="M47,111.7v7l4.77,2.76v-7Zm4.34,9-3.9-2.26v-6l3.9,2.25Z"/><polygon class="cls-9" points="48.49 118.06 50.11 119 50.11 117.09 50.9 117.54 49.3 114.19 47.7 115.69 48.49 116.15 48.49 118.06"/><polygon class="cls-10" points="80.39 110.94 100.67 99.09 100.67 87.08 80.39 98.93 80.39 110.94"/><polygon class="cls-9" points="98.94 89.77 97.6 90.59 97.6 99.38 98.94 98.57 98.94 89.77"/><polygon class="cls-9" points="96.66 91.13 96 91.57 96 100.36 96.66 99.92 96.66 91.13"/><polygon class="cls-9" points="94.74 92.27 93.39 93.09 93.39 101.88 94.74 101.06 94.74 92.27"/><polygon class="cls-9" points="92.46 93.63 91.94 93.92 91.94 102.72 92.46 102.42 92.46 93.63"/><polygon class="cls-9" points="89.37 95.47 89.16 95.56 89.16 104.36 89.37 104.26 89.37 95.47"/><polygon class="cls-9" points="95.49 91.89 95.29 91.99 95.29 100.78 95.49 100.68 95.49 91.89"/><polygon class="cls-9" points="87.62 96.51 87.42 96.61 87.42 105.4 87.62 105.3 87.62 96.51"/><polygon class="cls-9" points="87.28 96.71 87.08 96.81 87.08 105.6 87.28 105.5 87.28 96.71"/><polygon class="cls-9" points="93.19 93.18 92.98 93.28 92.98 102.07 93.19 101.98 93.19 93.18"/><polygon class="cls-9" points="92.85 93.38 92.64 93.48 92.64 102.27 92.85 102.18 92.85 93.38"/><polygon class="cls-9" points="97.44 90.68 97.24 90.77 97.24 99.57 97.44 99.47 97.44 90.68"/><polygon class="cls-9" points="97.1 90.87 96.89 90.97 96.89 99.77 97.1 99.67 97.1 90.87"/><polygon class="cls-9" points="84.13 98.47 83.93 98.56 83.93 107.36 84.13 107.26 84.13 98.47"/><polygon class="cls-9" points="83.79 98.67 83.58 98.76 83.58 107.56 83.79 107.46 83.79 98.67"/><polygon class="cls-9" points="85.93 97.46 85.73 97.56 85.73 106.36 85.93 106.26 85.93 97.46"/><polygon class="cls-9" points="91.54 94.22 89.76 95.25 89.76 104.05 91.54 103.01 91.54 94.22"/><polygon class="cls-9" points="88.82 95.79 87.79 96.39 87.79 105.18 88.82 104.58 88.82 95.79"/><polygon class="cls-9" points="86.89 96.99 86.22 97.36 86.22 106.16 86.89 105.78 86.89 96.99"/><polygon class="cls-9" points="85.28 97.9 84.26 98.5 84.26 107.29 85.28 106.7 85.28 97.9"/><polygon class="cls-9" points="83.36 99.05 82.02 99.86 82.02 108.65 83.36 107.84 83.36 99.05"/><path class="cls-11" d="M77.06,133.09c-15.08,0-30.16-3.26-41.64-9.77s-17.7-15.17-17.7-24.49,6.28-18,17.7-24.5c23-13,60.32-13,83.29,0h0c11.41,6.47,17.7,15.17,17.7,24.5s-6.29,18-17.7,24.49S92.14,133.09,77.06,133.09Zm0-65.57c-14.55,0-29.09,3.14-40.16,9.42C26.46,82.86,20.72,90.63,20.72,98.83s5.74,16,16.18,21.88c22.15,12.56,58.18,12.56,80.33,0,10.43-5.91,16.18-13.68,16.18-21.88s-5.75-16-16.18-21.89h0C106.15,70.66,91.61,67.52,77.06,67.52Z"/><path class="cls-12" d="M75.21,133.11h0c-15-.27-29.12-3.75-39.77-9.79-11.42-6.47-17.7-15.17-17.7-24.49s6.28-18,17.7-24.5c23-13,60.32-13,83.29,0,14,8,20.27,19.44,16.73,30.72a1.5,1.5,0,1,1-2.86-.89c3.09-9.84-2.65-20-15.35-27.22C95.08,64.38,59,64.38,36.9,76.94,26.46,82.86,20.72,90.63,20.72,98.83s5.74,16,16.18,21.88c10.22,5.8,23.84,9.14,38.34,9.4a1.5,1.5,0,0,1,0,3Z"/><g class="cls-3"><path class="cls-13" d="M141.72,103.31c0,1.78-3.28,3.23-7.32,3.23s-7.32-1.45-7.32-3.23,3.28-3.23,7.32-3.23S141.72,101.53,141.72,103.31Z"/></g><path class="cls-9" d="M140.14,100.67A5.68,5.68,0,1,1,134.47,95,5.67,5.67,0,0,1,140.14,100.67Z"/><g class="cls-14"><path class="cls-9" d="M138.93,99.86c-.36.56-1.46-.14-2.81-1s-2.43-1.58-2.07-2.14,2-.76,3.38.11S139.29,99.3,138.93,99.86Z"/></g><polygon class="cls-15" points="45.06 86.52 89.72 60.89 111.87 73.88 67.56 99.46 45.06 86.52"/><polygon class="cls-16" points="102.75 68.61 58.62 94.31 54.09 91.71 98.65 66.06 102.75 68.61"/><g class="cls-3"><path class="cls-17" d="M89.17,70.42a19.89,19.89,0,0,0-15.76.11c-4.34,2.2-4.31,5.72,0,7.85a19.89,19.89,0,0,0,15.76-.1C93.56,76.08,93.53,72.56,89.17,70.42Z"/></g><path class="cls-18" d="M20.2,137.9a2.72,2.72,0,1,1-2.72-2.72A2.72,2.72,0,0,1,20.2,137.9Z"/><path class="cls-19" d="M140.36,18a2.73,2.73,0,1,1-2.73-2.72A2.72,2.72,0,0,1,140.36,18Z"/><path class="cls-9" d="M137.35,73.05a1.63,1.63,0,0,1-1.14-.46l-1.91-1.92a1.59,1.59,0,0,1,0-2.26l1.91-1.92a1.62,1.62,0,0,1,2.27,0l1.91,1.92a1.55,1.55,0,0,1,.47,1.13,1.59,1.59,0,0,1-.47,1.13l-1.91,1.92A1.61,1.61,0,0,1,137.35,73.05Zm0-6a.6.6,0,0,0-.43.18L135,69.12a.6.6,0,0,0,0,.84l1.92,1.92a.61.61,0,0,0,.85,0L139.69,70a.6.6,0,0,0,0-.84l-1.92-1.92A.59.59,0,0,0,137.35,67Z"/><polygon class="cls-20" points="131.19 133.93 140.05 132.05 137.12 140.62 131.19 133.93"/><polygon class="cls-9" points="15.1 75.45 14.39 74.74 18.06 71.08 14.5 67.52 15.2 66.81 19.47 71.08 15.1 75.45"/><polygon class="cls-9" points="120.02 25.62 117.52 22.42 115.35 23.48 112.03 19.78 112.78 19.11 115.59 22.25 117.81 21.16 120.81 25 120.02 25.62"/><polygon class="cls-9" points="120.02 22.25 117.52 19.05 115.35 20.11 112.03 16.41 112.78 15.74 115.59 18.88 117.81 17.8 120.81 21.64 120.02 22.25"/><path class="cls-9" d="M51.85,78.64l6.48-3.75,4-17.18a.66.66,0,0,1,1.29.31L59.9,74l14.78-8.53,4-17.19a.66.66,0,0,1,.79-.49.65.65,0,0,1,.49.8l-3.72,16,4.85-2.8A.87.87,0,0,1,82,63.26L52.72,80.15a.88.88,0,0,1-.44.12.87.87,0,0,1-.43-1.63Z"/><path class="cls-9" d="M73.73,91.27l6.09-3.51-4.06-22a.67.67,0,0,1,.53-.77.66.66,0,0,1,.77.53l4,21.56,15.13-8.74-4.06-22a.67.67,0,0,1,1.31-.24l4,21.56,5.6-3.24a.88.88,0,0,1,1.19.32.89.89,0,0,1-.32,1.2L74.6,92.79a.89.89,0,0,1-1.19-.32A.88.88,0,0,1,73.73,91.27Z"/><path class="cls-4" d="M75.53,25.68a5.19,5.19,0,0,1,3-.88c2.32,0,4.19,1.35,4.18,3l0,5.66H74.27l0-5.65A2.7,2.7,0,0,1,75.53,25.68Z"/><path class="cls-5" d="M89.73,52.1h23.15v2.21H89.73a1.11,1.11,0,0,1,0-2.21Z"/><path class="cls-5" d="M66.87,56.83a1.1,1.1,0,0,1-1.1,1.1H42.62V55.72H65.77A1.11,1.11,0,0,1,66.87,56.83Z"/><path class="cls-5" d="M74.9,52A1.11,1.11,0,0,1,76,53.13V76.27H73.79V53.13A1.11,1.11,0,0,1,74.9,52Z"/><path class="cls-5" d="M79.41,33.41V56.55a1.11,1.11,0,1,1-2.21,0V33.41C77.2,32.41,79.41,32.41,79.41,33.41Z"/><path class="cls-21" d="M64.89,47.65,76.41,41a3.89,3.89,0,0,1,2.74-.6l2.57.57a4.36,4.36,0,0,0-3.07.67L67.12,48.29a11.82,11.82,0,0,0-5.35,9.28v4.21l-.84-1.15V58.31a2.8,2.8,0,0,0-.84-2h0v-.37A10.55,10.55,0,0,1,64.89,47.65Z"/><path class="cls-5" d="M79.13,55.92l11.52-6.65c2.65-1.53,4.81-.3,4.82,2.75v.32L94.3,53v3.23L75.66,67l-2.79.72,1.47-3.51A10.57,10.57,0,0,1,79.13,55.92Z"/><path class="cls-22" d="M75.07,55.38A9,9,0,0,1,76.89,54l11.52-6.65c1.85-1.06,3.48-.93,4.45.14l1.77,1.94c-.87-1-2.33-1.07-4-.12L79.13,55.92a8,8,0,0,0-1.63,1.27,11.31,11.31,0,0,0-2.61,4.14,8.63,8.63,0,0,0-.55,2.89l-1.4,3.39-1.4-.16v-4.2h0A9.75,9.75,0,0,1,72.14,60,12.82,12.82,0,0,1,75.07,55.38Z"/><path class="cls-23" d="M64.78,50.27a9.6,9.6,0,0,1,2.34-2l11.53-6.65a3.81,3.81,0,0,1,3.82-.38l9.77,5.68a3.8,3.8,0,0,0-3.83.37L76.89,54a9.46,9.46,0,0,0-2.35,2,13,13,0,0,0-2.08,3.27,10.22,10.22,0,0,0-.93,4v4.2l-9.76-5.67V57.57h0a10,10,0,0,1,.93-4A12.63,12.63,0,0,1,64.78,50.27Z"/><path class="cls-24" d="M67.68,52.07a9.64,9.64,0,0,1,2.35-2l11.52-6.65a3.8,3.8,0,0,1,3.83-.37L89,45a3.78,3.78,0,0,0-3.82.37L73.68,52a9.41,9.41,0,0,0-2.35,2,13,13,0,0,0-2.08,3.27,10.22,10.22,0,0,0-.93,4v4.2l-3.64-1.93,0-4.21h0a10,10,0,0,1,.94-4A12.76,12.76,0,0,1,67.68,52.07Z"/><path class="cls-4" d="M78,74.54a5.55,5.55,0,0,1-3,.8c-2.32,0-4.19-1.23-4.18-2.74l0-5.14h8.38l0,5.15A2.43,2.43,0,0,1,78,74.54Z"/><path class="cls-4" d="M119.25,51.2c1.89,0,3.41.88,3.41,2a1.73,1.73,0,0,1-1,1.4,5,5,0,0,1-2.42.58H112.8l0-4Z"/><path class="cls-4" d="M33.9,55.23a4.92,4.92,0,0,1,2.42-.58h6.43l0,4H36.3c-1.89,0-3.41-.89-3.41-2A1.73,1.73,0,0,1,33.9,55.23Z"/><g class="cls-1"><path class="cls-5" d="M73.24,79.26a3.84,3.84,0,0,0,3.52,0,1.24,1.24,0,0,0,.74-1v1.13a1.26,1.26,0,0,1-.73,1,3.92,3.92,0,0,1-3.53,0,1.27,1.27,0,0,1-.73-1V78.25A1.23,1.23,0,0,0,73.24,79.26Z"/><path class="cls-9" d="M73.25,77.22a3.86,3.86,0,0,1,3.53,0,1.08,1.08,0,0,1,0,2,3.84,3.84,0,0,1-3.52,0A1.08,1.08,0,0,1,73.25,77.22Z"/><g class="cls-1"><path class="cls-5" d="M34.31,55.26a3.92,3.92,0,0,0,3.53,0,1.27,1.27,0,0,0,.74-1v1.13a1.26,1.26,0,0,1-.73,1,3.92,3.92,0,0,1-3.53,0,1.25,1.25,0,0,1-.73-1V54.24A1.24,1.24,0,0,0,34.31,55.26Z"/><path class="cls-9" d="M34.33,53.22a3.84,3.84,0,0,1,3.52,0c1,.56,1,1.47,0,2a3.92,3.92,0,0,1-3.53,0A1.08,1.08,0,0,1,34.33,53.22Z"/><rect class="cls-25" x="21.75" y="52.79" width="27.19" height="2.02" transform="translate(70.7 107.59) rotate(180)"/><rect class="cls-25" x="27.73" y="52.44" width="16.91" height="2.02" transform="translate(-26.15 70.23) rotate(-70.97)"/><rect class="cls-25" x="61.17" y="76.96" width="27.19" height="2.02"/><rect class="cls-25" x="66.08" y="75.14" width="16.91" height="2.02" transform="translate(26.85 171.44) rotate(-109.03)"/></g><g class="cls-1"><path class="cls-5" d="M35.71,53.36a.83.83,0,0,0,.75,0,.28.28,0,0,0,.16-.22v1a.28.28,0,0,1-.16.22.83.83,0,0,1-.75,0,.27.27,0,0,1-.15-.21v-1A.27.27,0,0,0,35.71,53.36Z"/><path class="cls-26" d="M35.71,52.93a.83.83,0,0,1,.75,0c.21.12.21.31,0,.43a.83.83,0,0,1-.75,0C35.5,53.24,35.51,53.05,35.71,52.93Z"/></g><g class="cls-1"><g class="cls-1"><path class="cls-5" d="M35,53.44a2.39,2.39,0,0,0,2.15,0,.76.76,0,0,0,.45-.63v.4a.76.76,0,0,1-.45.62,2.33,2.33,0,0,1-2.15,0,.75.75,0,0,1-.45-.62v-.39A.76.76,0,0,0,35,53.44Z"/></g></g><g class="cls-1"><g class="cls-1"><path class="cls-27" d="M35.27,50.79a1.78,1.78,0,0,1,1.81.1c.14.12.53.45.55,1.92a.76.76,0,0,1-.45.63,2.35,2.35,0,0,1-2.16,0,.77.77,0,0,1-.44-.62C34.58,51.22,35,50.93,35.27,50.79Z"/></g></g></g><g class="cls-1"><path class="cls-5" d="M74.63,77.36a.83.83,0,0,0,.75,0,.28.28,0,0,0,.16-.21v1a.26.26,0,0,1-.16.21.83.83,0,0,1-.75,0,.25.25,0,0,1-.15-.21v-1A.25.25,0,0,0,74.63,77.36Z"/><path class="cls-26" d="M74.63,76.93a.83.83,0,0,1,.75,0c.21.12.21.31,0,.43a.83.83,0,0,1-.75,0A.23.23,0,0,1,74.63,76.93Z"/></g><g class="cls-1"><g class="cls-1"><path class="cls-5" d="M74,77.44a2.33,2.33,0,0,0,2.15,0,.76.76,0,0,0,.45-.63v.4a.77.77,0,0,1-.45.63,2.39,2.39,0,0,1-2.15,0,.78.78,0,0,1-.45-.62v-.4A.75.75,0,0,0,74,77.44Z"/></g></g><g class="cls-1"><g class="cls-1"><path class="cls-28" d="M74.19,74.8a1.76,1.76,0,0,1,1.81.09c.15.13.53.45.55,1.92a.76.76,0,0,1-.45.63,2.33,2.33,0,0,1-2.15,0,.75.75,0,0,1-.45-.62C73.5,75.23,74,74.94,74.19,74.8Z"/></g></g><g class="cls-1"><path class="cls-5" d="M76.48,28A3.92,3.92,0,0,0,80,28a1.26,1.26,0,0,0,.73-1v1.13a1.27,1.27,0,0,1-.74,1,3.92,3.92,0,0,1-3.53,0,1.25,1.25,0,0,1-.72-1V27A1.25,1.25,0,0,0,76.48,28Z"/><path class="cls-9" d="M76.49,26A3.86,3.86,0,0,1,80,26c1,.56,1,1.47,0,2a3.92,3.92,0,0,1-3.53,0A1.08,1.08,0,0,1,76.49,26Z"/><rect class="cls-25" x="64.3" y="25.29" width="27.19" height="2.02" transform="translate(155.79 52.61) rotate(180)"/><rect class="cls-25" x="70.27" y="24.25" width="16.91" height="2.02" transform="translate(29.18 91.45) rotate(-70.97)"/></g><g class="cls-1"><path class="cls-5" d="M77.87,26.14a.83.83,0,0,0,.75,0,.26.26,0,0,0,.16-.22v1a.26.26,0,0,1-.16.22.81.81,0,0,1-.74,0,.26.26,0,0,1-.16-.21v-1A.27.27,0,0,0,77.87,26.14Z"/><path class="cls-26" d="M77.88,25.71a.83.83,0,0,1,.75,0c.2.12.2.31,0,.43a.83.83,0,0,1-.75,0C77.67,26,77.67,25.83,77.88,25.71Z"/></g><g class="cls-1"><g class="cls-1"><path class="cls-5" d="M77.19,26.22a2.39,2.39,0,0,0,2.15,0,.76.76,0,0,0,.45-.63V26a.76.76,0,0,1-.45.62,2.33,2.33,0,0,1-2.15,0,.75.75,0,0,1-.44-.62V25.6A.75.75,0,0,0,77.19,26.22Z"/></g></g><g class="cls-1"><g class="cls-1"><path class="cls-29" d="M77.43,23.57a1.78,1.78,0,0,1,1.81.1c.15.12.53.45.55,1.92a.76.76,0,0,1-.45.63,2.39,2.39,0,0,1-2.15,0,.73.73,0,0,1-.44-.62C76.75,24,77.21,23.71,77.43,23.57Z"/></g></g><g class="cls-1"><path class="cls-5" d="M117.14,52.88a3.84,3.84,0,0,0,3.52,0,1.24,1.24,0,0,0,.74-1V53a1.27,1.27,0,0,1-.74,1,3.92,3.92,0,0,1-3.53,0,1.24,1.24,0,0,1-.72-1V51.87A1.23,1.23,0,0,0,117.14,52.88Z"/><path class="cls-9" d="M117.15,50.84a3.86,3.86,0,0,1,3.53,0,1.08,1.08,0,0,1,0,2,3.84,3.84,0,0,1-3.52,0A1.08,1.08,0,0,1,117.15,50.84Z"/><rect class="cls-25" x="104.65" y="49.45" width="27.19" height="2.02"/><rect class="cls-25" x="109.68" y="48.84" width="16.91" height="2.02" transform="translate(109.52 177.79) rotate(-109.03)"/></g><g class="cls-1"><path class="cls-5" d="M118.53,51a.83.83,0,0,0,.75,0,.26.26,0,0,0,.16-.21v1a.26.26,0,0,1-.16.21.83.83,0,0,1-.75,0,.25.25,0,0,1-.15-.21v-1A.25.25,0,0,0,118.53,51Z"/><path class="cls-26" d="M118.54,50.55a.81.81,0,0,1,.74,0c.21.12.21.31,0,.43a.83.83,0,0,1-.75,0C118.33,50.86,118.33,50.67,118.54,50.55Z"/></g><g class="cls-1"><g class="cls-1"><path class="cls-5" d="M117.85,51.06a2.33,2.33,0,0,0,2.15,0,.76.76,0,0,0,.45-.63v.4a.79.79,0,0,1-.45.63,2.39,2.39,0,0,1-2.15,0,.76.76,0,0,1-.44-.62v-.4A.73.73,0,0,0,117.85,51.06Z"/></g></g><g class="cls-1"><g class="cls-1"><path class="cls-30" d="M118.09,48.42a1.76,1.76,0,0,1,1.81.09c.15.13.53.45.55,1.92a.76.76,0,0,1-.45.63,2.33,2.33,0,0,1-2.15,0,.75.75,0,0,1-.45-.62C117.4,48.85,117.87,48.56,118.09,48.42Z"/></g></g><path class="cls-4" d="M60.07,76.24c0,5.35,7,9.62,15.58,9.17S90.2,80,89.1,74.72c-1-4.94-7.91-8.38-15.45-8S60,71.25,60.07,76.24Zm1.78-.11a5.19,5.19,0,0,1,1.61-3.62c2.15-2.28,6-3.77,10.19-4,6.73-.36,12.88,2.63,13.71,6.65a4.75,4.75,0,0,1-1.08,4c-2,2.51-6,4.22-10.63,4.46C68.33,84,61.89,80.5,61.85,76.13Z"/><path class="cls-31" d="M86.74,70.76l1-.34a8.35,8.35,0,0,1,2,3.81,6.82,6.82,0,0,1-.37,4.15l-1.21-.25a6.43,6.43,0,0,0,.37-3.84A7.6,7.6,0,0,0,86.74,70.76Z"/><path class="cls-4" d="M104,49.86c0,5.35,7,9.61,15.58,9.17S134.1,53.63,133,48.34c-1-4.94-7.91-8.38-15.45-8S103.93,44.87,104,49.86Zm1.78-.11a5.23,5.23,0,0,1,1.61-3.62c2.15-2.28,6-3.77,10.19-4,6.73-.36,12.88,2.63,13.71,6.65a4.75,4.75,0,0,1-1.08,4c-2,2.51-6,4.22-10.63,4.46C112.24,57.63,105.79,54.13,105.75,49.75Z"/><path class="cls-32" d="M130.64,44.38l1-.34a8.35,8.35,0,0,1,2.05,3.81,6.82,6.82,0,0,1-.37,4.15l-1.21-.25a6.36,6.36,0,0,0,.37-3.84A7.51,7.51,0,0,0,130.64,44.38Z"/><path class="cls-4" d="M63.31,25c0,5.34,7,9.61,15.58,9.16S93.44,28.79,92.34,23.5c-1-4.94-7.9-8.38-15.45-8S63.27,20,63.31,25Zm1.78-.11a5.31,5.31,0,0,1,1.61-3.63c2.15-2.27,6-3.77,10.19-4,6.73-.35,12.88,2.63,13.71,6.66a4.72,4.72,0,0,1-1.08,4c-2,2.52-6,4.23-10.63,4.47C71.58,32.78,65.13,29.28,65.09,24.91Z"/><path class="cls-33" d="M90,19.54l1-.34a8.4,8.4,0,0,1,2,3.81,6.91,6.91,0,0,1-.38,4.15l-1.21-.25a6.44,6.44,0,0,0,.38-3.84A7.62,7.62,0,0,0,90,19.54Z"/><path class="cls-4" d="M21.15,53.62c0,5.35,7,9.62,15.58,9.17s14.55-5.4,13.45-10.69c-1-4.94-7.91-8.38-15.45-8S21.11,48.63,21.15,53.62Zm1.78-.11a5.19,5.19,0,0,1,1.61-3.62c2.15-2.28,6-3.77,10.19-4,6.73-.36,12.87,2.63,13.71,6.65a4.75,4.75,0,0,1-1.08,4c-2,2.51-6,4.22-10.63,4.46C29.41,61.39,23,57.89,22.93,53.51Z"/><path class="cls-9" d="M74.41,84.38c-4.81,0-9.21-1.48-11.94-4A7.39,7.39,0,0,1,59.92,75h0c0-5,6-9.25,13.72-9.66s14.59,3.16,15.61,8.11A6.7,6.7,0,0,1,87.82,79c-2.35,3-6.9,5-12.16,5.3C75.24,84.37,74.83,84.38,74.41,84.38ZM60.22,75a7,7,0,0,0,2.46,5.08c2.9,2.74,7.76,4.21,13,3.93s9.65-2.21,11.94-5.18A6.45,6.45,0,0,0,89,73.54c-1-4.81-7.71-8.27-15.3-7.87S60.18,70.18,60.22,75Zm14.33,7.56c-4.36,0-8.44-1.34-10.85-3.61a5.7,5.7,0,0,1-2-4.06h0a5.38,5.38,0,0,1,1.65-3.73c2.17-2.3,6-3.81,10.29-4,6.79-.37,13,2.69,13.86,6.78A4.87,4.87,0,0,1,86.4,78c-2,2.54-6.11,4.28-10.74,4.52Q75.11,82.59,74.55,82.59ZM62,74.92a5.37,5.37,0,0,0,1.91,3.84c2.55,2.41,7,3.74,11.73,3.5s8.58-1.93,10.52-4.41a4.58,4.58,0,0,0,1-3.86c-.82-3.95-6.88-6.88-13.55-6.54-4.2.22-8,1.7-10.09,4A5,5,0,0,0,62,74.92Z"/><path class="cls-9" d="M118.32,58c-4.82,0-9.22-1.48-11.95-4a7.39,7.39,0,0,1-2.55-5.3h0c0-5,6-9.25,13.72-9.66s14.59,3.16,15.61,8.11a6.7,6.7,0,0,1-1.43,5.56c-2.35,3.05-6.89,5-12.16,5.3C119.14,58,118.73,58,118.32,58Zm-14.2-9.35a7.08,7.08,0,0,0,2.46,5.08c2.9,2.74,7.74,4.2,13,3.93s9.65-2.21,11.94-5.18a6.45,6.45,0,0,0,1.38-5.32c-1-4.81-7.71-8.27-15.3-7.87s-13.48,4.51-13.44,9.36Zm14.33,7.56c-4.36,0-8.44-1.34-10.85-3.61a5.74,5.74,0,0,1-2-4.06h0a5.38,5.38,0,0,1,1.65-3.73c2.18-2.3,6-3.81,10.29-4,6.8-.36,13,2.68,13.87,6.77a4.89,4.89,0,0,1-1.11,4.12c-2,2.54-6.11,4.28-10.74,4.52Q119,56.21,118.45,56.21ZM105.9,48.54a5.41,5.41,0,0,0,1.91,3.84c2.55,2.41,7,3.74,11.73,3.5s8.58-1.93,10.52-4.41a4.56,4.56,0,0,0,1.05-3.86c-.82-4-6.9-6.88-13.55-6.54-4.19.22-8,1.7-10.09,4a5,5,0,0,0-1.57,3.52Z"/><path class="cls-9" d="M77.66,33.15c-4.82,0-9.22-1.47-12-4a7.4,7.4,0,0,1-2.55-5.3h0c0-5,6-9.26,13.72-9.66s14.59,3.15,15.61,8.1a6.72,6.72,0,0,1-1.43,5.57c-2.35,3-6.89,5-12.16,5.3ZM63.46,23.8a7.12,7.12,0,0,0,2.46,5.09c2.91,2.74,7.76,4.2,13,3.93s9.64-2.21,11.93-5.19a6.4,6.4,0,0,0,1.38-5.32c-1-4.8-7.71-8.26-15.3-7.86S63.42,19,63.46,23.8Zm14.33,7.57c-4.36,0-8.44-1.34-10.85-3.61a5.74,5.74,0,0,1-2-4.06h0A5.4,5.4,0,0,1,66.59,20c2.18-2.31,6-3.82,10.29-4,6.79-.36,13,2.68,13.87,6.77a4.87,4.87,0,0,1-1.11,4.11c-2,2.55-6.11,4.28-10.74,4.53Q78.35,31.37,77.79,31.37ZM65.25,23.69a5.36,5.36,0,0,0,1.9,3.85c2.55,2.4,7,3.74,11.74,3.5s8.57-1.93,10.51-4.41a4.58,4.58,0,0,0,1-3.87c-.82-4-6.9-6.89-13.55-6.53-4.19.22-8,1.69-10.09,3.94a5.06,5.06,0,0,0-1.56,3.52Z"/><path class="cls-9" d="M35.49,61.76c-4.81,0-9.21-1.48-11.94-4A7.35,7.35,0,0,1,21,52.41h0c0-5,6-9.25,13.72-9.66s14.58,3.16,15.61,8.11a6.74,6.74,0,0,1-1.43,5.56c-2.35,3-6.9,5-12.16,5.3C36.32,61.75,35.91,61.76,35.49,61.76ZM21.3,52.41a7.07,7.07,0,0,0,2.45,5.09c2.91,2.73,7.75,4.2,13,3.93s9.64-2.22,11.94-5.19A6.41,6.41,0,0,0,50,50.92c-1-4.81-7.7-8.27-15.29-7.87S21.26,47.56,21.3,52.41ZM35.63,60c-4.36,0-8.44-1.34-10.85-3.61a5.66,5.66,0,0,1-2-4.06h0a5.38,5.38,0,0,1,1.65-3.73c2.17-2.3,6-3.81,10.29-4,6.81-.36,13,2.69,13.86,6.78a4.87,4.87,0,0,1-1.1,4.11c-2,2.55-6.11,4.28-10.74,4.52Q36.18,60,35.63,60ZM23.08,52.3A5.41,5.41,0,0,0,25,56.15c2.55,2.4,7.05,3.73,11.73,3.49s8.58-1.93,10.52-4.41a4.58,4.58,0,0,0,1-3.86c-.82-3.95-6.9-6.88-13.55-6.54-4.2.22-8,1.7-10.09,4a5.06,5.06,0,0,0-1.57,3.52Z"/><path class="cls-34" d="M47.82,48.14l1-.33a8.27,8.27,0,0,1,2,3.8,6.89,6.89,0,0,1-.37,4.15l-1.21-.25a6.43,6.43,0,0,0,.37-3.84A7.69,7.69,0,0,0,47.82,48.14Z"/><path class="cls-16" d="M80.64,63.23l-.16-.13,2.1-2.47a15.25,15.25,0,0,1,4.08-3.38l8.76-5,.1.18-8.76,5a15,15,0,0,0-4,3.34Z"/><path class="cls-35" d="M14.76,22.35a.5.5,0,0,1-.43-.25.51.51,0,0,1,.18-.69l12-7a.51.51,0,0,1,.68.18.51.51,0,0,1-.18.69l-12,7A.59.59,0,0,1,14.76,22.35Z"/><path class="cls-35" d="M14.76,28.79a.5.5,0,0,1-.25-.93l17.06-9.92a.5.5,0,1,1,.5.86L15,28.72A.47.47,0,0,1,14.76,28.79Z"/><path class="cls-35" d="M14.76,32a.5.5,0,0,1-.25-.93l9.07-5.28a.5.5,0,0,1,.5.87L15,31.92A.57.57,0,0,1,14.76,32Z"/><path class="cls-35" d="M14.76,35.48a.5.5,0,0,1-.25-.93l8.21-4.78a.51.51,0,0,1,.68.19.5.5,0,0,1-.18.68L15,35.42A.57.57,0,0,1,14.76,35.48Z"/><path class="cls-35" d="M14.76,25.35a.5.5,0,0,1-.43-.25.51.51,0,0,1,.18-.69l8.74-5.08a.5.5,0,1,1,.5.86L15,25.28A.59.59,0,0,1,14.76,25.35Z"/></g></g></svg>