<svg xmlns="http://www.w3.org/2000/svg" viewBox="0 0 4680 3120"><defs><style>.cls-1,.cls-24{fill:#fff;}.cls-1{opacity:0;}.cls-2{fill:#e0eaf6;}.cls-3{fill:#a0d6e8;}.cls-4{fill:#7fbfdb;}.cls-5{fill:#a4b8ea;}.cls-25,.cls-6{fill:#2f4eab;}.cls-7{fill:#3e67bf;}.cls-8{fill:#29437d;}.cls-9{fill:#151b3b;}.cls-10{fill:#5a99bc;}.cls-11{fill:#4989a5;}.cls-12{fill:#85c5d6;}.cls-13{fill:#0a112b;}.cls-14{fill:#e87e94;}.cls-15{fill:#db9f9c;}.cls-16{fill:#dff2f7;}.cls-17{fill:#f5ceca;}.cls-18{fill:#8e162d;}.cls-19,.cls-28{fill:#cc2e45;}.cls-20,.cls-23{fill:#ecb1aa;}.cls-20,.cls-21,.cls-25,.cls-26,.cls-27,.cls-28,.cls-29,.cls-34{fill-rule:evenodd;}.cls-21,.cls-31{fill:#e49389;}.cls-22,.cls-27{fill:#3f0110;}.cls-26,.cls-33{fill:#681a31;}.cls-29,.cls-30{fill:#9e1f33;}.cls-32,.cls-34{fill:#190108;}.cls-35{opacity:0.83;}</style></defs><title>09</title><g id="_09" data-name="09"><rect id="_09-2" data-name="09" class="cls-1" width="4680" height="3120"/><circle class="cls-2" cx="2376.22" cy="1456.51" r="1096.51"/><path class="cls-3" d="M2562.34,611.85l-30.21-18.06a12.19,12.19,0,0,0-16.72,4.21l-11.16,18.66a12.21,12.21,0,0,1-13.05,5.65,117.27,117.27,0,0,0-14.48-2.12,12.24,12.24,0,0,1-10.89-9.17l-5.31-21.09a12.2,12.2,0,0,0-14.8-8.85l-34.14,8.6a12.18,12.18,0,0,0-8.84,14.8l5.31,21.08a12.16,12.16,0,0,1-5.14,13.17,116.31,116.31,0,0,0-12,8.9,12.14,12.14,0,0,1-14.06,1.11l-18.66-11.16a12.19,12.19,0,0,0-16.72,4.21L2323.44,672a12.19,12.19,0,0,0,4.21,16.72l18.66,11.15a12.13,12.13,0,0,1,5.68,12.91,116.09,116.09,0,0,0-2.15,14.62,12.24,12.24,0,0,1-9.17,10.9l-21.09,5.31a12.2,12.2,0,0,0-8.85,14.8l8.6,34.13a12.2,12.2,0,0,0,14.8,8.85l21.08-5.31a12.13,12.13,0,0,1,13.16,5.13,118.18,118.18,0,0,0,8.9,12,12.13,12.13,0,0,1,1.11,14.07l-11.15,18.66a12.2,12.2,0,0,0,4.21,16.72l30.22,18.06a12.2,12.2,0,0,0,16.72-4.21l11.15-18.66a12.14,12.14,0,0,1,12.91-5.69,115.85,115.85,0,0,0,14.62,2.16,12.24,12.24,0,0,1,10.9,9.17l5.31,21.09a12.18,12.18,0,0,0,14.8,8.84l34.13-8.59a12.2,12.2,0,0,0,8.85-14.8l-5.31-21.09a12.13,12.13,0,0,1,5.13-13.16,116.31,116.31,0,0,0,12-8.9,12.14,12.14,0,0,1,14.07-1.11l18.66,11.15a12.19,12.19,0,0,0,16.72-4.21l18.06-30.21a12.19,12.19,0,0,0-4.22-16.72l-18.65-11.15a12.14,12.14,0,0,1-5.69-12.92,117.69,117.69,0,0,0,2.16-14.62,12.23,12.23,0,0,1,9.17-10.89l21.09-5.31a12.18,12.18,0,0,0,8.84-14.8l-8.59-34.14a12.19,12.19,0,0,0-14.8-8.84l-21.09,5.31a12.16,12.16,0,0,1-13.16-5.13,115.36,115.36,0,0,0-8.9-12,12.14,12.14,0,0,1-1.11-14.07l11.15-18.65A12.19,12.19,0,0,0,2562.34,611.85Zm-71.66,85.6a46.36,46.36,0,1,1-63.58,16A46.42,46.42,0,0,1,2490.68,697.45Z"/><path class="cls-3" d="M3350.74,1015.45l-35.4-21.16a22.2,22.2,0,0,0-30.45,7.67l-12,20.06a22.2,22.2,0,0,1-23.34,10.28q-7.56-1.46-15.16-2.22a22.2,22.2,0,0,1-19.22-16.77l-5.65-22.43a22.2,22.2,0,0,0-27-16.11l-40,10.07a22.2,22.2,0,0,0-16.11,26.95l5.68,22.56a22.25,22.25,0,0,1-9.19,23.87q-6.27,4.23-12.17,9a22.24,22.24,0,0,1-25.48,1.9l-20-11.93a22.2,22.2,0,0,0-30.45,7.67l-21.16,35.4a22.21,22.21,0,0,0,7.67,30.45l20.06,12a22.19,22.19,0,0,1,10.28,23.35c-1,5-1.71,10.09-2.21,15.15a22.23,22.23,0,0,1-16.77,19.22l-22.44,5.65a22.21,22.21,0,0,0-16.11,27l10.07,40a22.2,22.2,0,0,0,27,16.11l22.55-5.68a22.26,22.26,0,0,1,23.87,9.2q4.23,6.25,9.05,12.17a22.21,22.21,0,0,1,1.9,25.47l-11.93,20a22.21,22.21,0,0,0,7.67,30.45l35.4,21.16a22.2,22.2,0,0,0,30.45-7.67l12-20a22.19,22.19,0,0,1,23.35-10.28c5,1,10.09,1.71,15.15,2.21a22.22,22.22,0,0,1,19.22,16.77l5.65,22.43a22.21,22.21,0,0,0,27,16.11l40-10.07a22.2,22.2,0,0,0,16.11-26.95l-5.68-22.56a22.25,22.25,0,0,1,9.19-23.87q6.26-4.23,12.17-9a22.23,22.23,0,0,1,25.47-1.9l20,11.93a22.2,22.2,0,0,0,30.45-7.67l21.15-35.4a22.21,22.21,0,0,0-7.66-30.45l-20.06-12a22.19,22.19,0,0,1-10.28-23.35c1-5,1.71-10.09,2.21-15.15a22.23,22.23,0,0,1,16.77-19.22l22.44-5.65a22.19,22.19,0,0,0,16.1-27l-10.07-40a22.2,22.2,0,0,0-27-16.11l-22.55,5.68a22.27,22.27,0,0,1-23.87-9.19q-4.23-6.27-9-12.18a22.23,22.23,0,0,1-1.91-25.47l11.93-20A22.21,22.21,0,0,0,3350.74,1015.45Zm-99,125.45a66.63,66.63,0,1,1-91.38,23A66.7,66.7,0,0,1,3251.74,1140.9Z"/><circle class="cls-4" cx="1279.14" cy="1093.02" r="22.33"/><circle class="cls-4" cx="1361.3" cy="1093.02" r="22.33"/><circle class="cls-4" cx="1443.46" cy="1093.02" r="22.33"/><circle class="cls-4" cx="1525.63" cy="1093.02" r="22.33"/><circle class="cls-4" cx="1607.79" cy="1093.02" r="22.33"/><circle class="cls-4" cx="1279.14" cy="1167.35" r="22.33"/><circle class="cls-4" cx="1361.3" cy="1167.35" r="22.33"/><circle class="cls-4" cx="1443.46" cy="1167.35" r="22.33"/><circle class="cls-4" cx="1525.63" cy="1167.35" r="22.33"/><circle class="cls-4" cx="1607.79" cy="1167.35" r="22.33"/><circle class="cls-4" cx="1279.14" cy="1241.69" r="22.33"/><circle class="cls-4" cx="1361.3" cy="1241.69" r="22.33"/><circle class="cls-4" cx="1443.46" cy="1241.69" r="22.33"/><circle class="cls-4" cx="1525.63" cy="1241.69" r="22.33"/><circle class="cls-4" cx="1607.79" cy="1241.69" r="22.33"/><circle class="cls-4" cx="1279.14" cy="1316.03" r="22.33"/><circle class="cls-4" cx="1361.3" cy="1316.03" r="22.33"/><circle class="cls-4" cx="1443.46" cy="1316.03" r="22.33"/><circle class="cls-4" cx="1525.63" cy="1316.03" r="22.33"/><circle class="cls-4" cx="1607.79" cy="1316.03" r="22.33"/><circle class="cls-4" cx="1279.14" cy="1390.37" r="22.33"/><circle class="cls-4" cx="1361.3" cy="1390.37" r="22.33"/><circle class="cls-4" cx="1443.46" cy="1390.37" r="22.33"/><circle class="cls-4" cx="1525.63" cy="1390.37" r="22.33"/><circle class="cls-4" cx="1607.79" cy="1390.37" r="22.33"/><circle class="cls-4" cx="1279.14" cy="1464.7" r="22.33"/><circle class="cls-4" cx="1361.3" cy="1464.7" r="22.33"/><circle class="cls-4" cx="1443.46" cy="1464.7" r="22.33"/><circle class="cls-4" cx="1525.63" cy="1464.7" r="22.33"/><circle class="cls-4" cx="1607.79" cy="1464.7" r="22.33"/><circle class="cls-4" cx="1279.14" cy="1539.04" r="22.33"/><circle class="cls-4" cx="1361.3" cy="1539.04" r="22.33"/><circle class="cls-4" cx="1443.46" cy="1539.04" r="22.33"/><circle class="cls-4" cx="1525.63" cy="1539.04" r="22.33"/><circle class="cls-4" cx="1607.79" cy="1539.04" r="22.33"/><ellipse class="cls-5" cx="2320.22" cy="2671.1" rx="537.53" ry="88.9"/><circle class="cls-4" cx="3266.78" cy="1814.3" r="22.33"/><circle class="cls-4" cx="3184.62" cy="1814.3" r="22.33"/><circle class="cls-4" cx="3102.45" cy="1814.3" r="22.33"/><circle class="cls-4" cx="3020.29" cy="1814.3" r="22.33"/><circle class="cls-4" cx="2938.13" cy="1814.3" r="22.33"/><circle class="cls-4" cx="3266.78" cy="1887.68" r="22.33"/><circle class="cls-4" cx="3184.62" cy="1887.68" r="22.33"/><circle class="cls-4" cx="3102.45" cy="1887.68" r="22.33"/><circle class="cls-4" cx="3020.29" cy="1887.68" r="22.33"/><circle class="cls-4" cx="2938.13" cy="1887.68" r="22.33"/><circle class="cls-4" cx="3266.78" cy="1961.05" r="22.33"/><circle class="cls-4" cx="3184.62" cy="1961.05" r="22.33"/><circle class="cls-4" cx="3102.45" cy="1961.05" r="22.33"/><circle class="cls-4" cx="3020.29" cy="1961.05" r="22.33"/><circle class="cls-4" cx="2938.13" cy="1961.05" r="22.33"/><circle class="cls-4" cx="3266.78" cy="2034.43" r="22.33"/><circle class="cls-4" cx="3184.62" cy="2034.43" r="22.33"/><circle class="cls-4" cx="3102.45" cy="2034.43" r="22.33"/><circle class="cls-4" cx="3020.29" cy="2034.43" r="22.33"/><circle class="cls-4" cx="2938.13" cy="2034.43" r="22.33"/><circle class="cls-4" cx="3266.78" cy="2107.8" r="22.33"/><circle class="cls-4" cx="3184.62" cy="2107.8" r="22.33"/><circle class="cls-4" cx="3102.45" cy="2107.8" r="22.33"/><circle class="cls-4" cx="3020.29" cy="2107.8" r="22.33"/><circle class="cls-4" cx="2938.13" cy="2107.8" r="22.33"/><circle class="cls-4" cx="3266.78" cy="2181.18" r="22.33"/><circle class="cls-4" cx="3184.62" cy="2181.18" r="22.33"/><circle class="cls-4" cx="3102.45" cy="2181.18" r="22.33"/><circle class="cls-4" cx="3020.29" cy="2181.18" r="22.33"/><circle class="cls-4" cx="2938.13" cy="2181.18" r="22.33"/><circle class="cls-4" cx="3266.78" cy="2254.55" r="22.33"/><circle class="cls-4" cx="3184.62" cy="2254.55" r="22.33"/><circle class="cls-4" cx="3102.45" cy="2254.55" r="22.33"/><circle class="cls-4" cx="3020.29" cy="2254.55" r="22.33"/><circle class="cls-4" cx="2938.13" cy="2254.55" r="22.33"/><circle class="cls-4" cx="3266.78" cy="1739.97" r="22.33"/><circle class="cls-4" cx="3184.62" cy="1739.97" r="22.33"/><circle class="cls-4" cx="3102.45" cy="1739.97" r="22.33"/><circle class="cls-4" cx="3020.29" cy="1739.97" r="22.33"/><circle class="cls-4" cx="2938.13" cy="1739.97" r="22.33"/><circle class="cls-4" cx="3266.78" cy="1665.63" r="22.33"/><circle class="cls-4" cx="3184.62" cy="1665.63" r="22.33"/><circle class="cls-4" cx="3102.45" cy="1665.63" r="22.33"/><circle class="cls-4" cx="3020.29" cy="1665.63" r="22.33"/><circle class="cls-4" cx="2938.13" cy="1665.63" r="22.33"/><circle class="cls-4" cx="3266.78" cy="1591.29" r="22.33"/><circle class="cls-4" cx="3184.62" cy="1591.29" r="22.33"/><circle class="cls-4" cx="3102.45" cy="1591.29" r="22.33"/><circle class="cls-4" cx="3020.29" cy="1591.29" r="22.33"/><circle class="cls-4" cx="2938.13" cy="1591.29" r="22.33"/><circle class="cls-4" cx="3266.78" cy="1516.95" r="22.33"/><circle class="cls-4" cx="3184.62" cy="1516.95" r="22.33"/><circle class="cls-4" cx="3102.45" cy="1516.95" r="22.33"/><circle class="cls-4" cx="3020.29" cy="1516.95" r="22.33"/><circle class="cls-4" cx="2938.13" cy="1516.95" r="22.33"/><circle class="cls-4" cx="3266.78" cy="1442.62" r="22.33"/><circle class="cls-4" cx="3184.62" cy="1442.62" r="22.33"/><circle class="cls-4" cx="3102.45" cy="1442.62" r="22.33"/><circle class="cls-4" cx="3020.29" cy="1442.62" r="22.33"/><circle class="cls-4" cx="2938.13" cy="1442.62" r="22.33"/><circle class="cls-4" cx="3266.78" cy="1368.28" r="22.33"/><circle class="cls-4" cx="3184.62" cy="1368.28" r="22.33"/><circle class="cls-4" cx="3102.45" cy="1368.28" r="22.33"/><circle class="cls-4" cx="3020.29" cy="1368.28" r="22.33"/><circle class="cls-4" cx="2938.13" cy="1368.28" r="22.33"/><path class="cls-6" d="M3152.9,724c-.56-92.36-176-103.56-173.24-55l-314.53,5.33c-36.39,1-65.33,34.34-64.66,74.45l22.19,1339.44c.65,39.24,30.32,70.65,66.3,70.18l333.21-2.82c3.28,6.5,9.38,12.35,18.94,17.14,93.23-2,135.11-39.3,134.83-86.58C3179.3,2077.39,3156.89,741.32,3152.9,724Z"/><path class="cls-7" d="M3139.73,1068.69,3136.48,910A13.92,13.92,0,0,0,3122,896.39h0A14.41,14.41,0,0,0,3108.19,911l3.32,158.07Z"/><path class="cls-7" d="M3112.26,1085.29l3.63,175.4a13.76,13.76,0,0,0,14.34,13.37h0a14.25,14.25,0,0,0,13.74-14.39l-3.53-174.76Z"/><path class="cls-8" d="M3035.56,2173.05l-410,5.06c-37.25.57-68-31.66-68.69-72L2533.37,728.5c-.71-41.26,29.26-75.48,67-76.42l411.07-10.89c38-.94,69.33,31.91,70,73.37l21.08,1384.08C3103.06,2139.18,3073.11,2172.48,3035.56,2173.05Z"/><path class="cls-7" d="M3043.71,2163.16a54,54,0,0,1-7.54.62l-409.86,4.41c-32,.45-58.72-27.82-59.32-63L2543.58,729.06c-.61-36,25.41-66,57.8-66.86l410.94-11.54c.95,0,1.9,0,2.84,0a56.3,56.3,0,0,1,40.18,18.59c10.94,11.87,17.09,27.76,17.35,44.77l21.2,1385.48C3094.38,2131.39,3072.88,2158.74,3043.71,2163.16Z"/><polygon class="cls-9" points="3052.03 721.64 3073.38 2102.03 2587.37 2108.54 2564.17 732.22 3052.03 721.64"/><polygon class="cls-10" points="2713.33 944.74 2768.2 943.55 2941.61 724.03 2886.51 725.23 2713.33 944.74"/><polygon class="cls-3" points="2768.2 943.55 2823.02 942.36 2996.72 722.84 2941.61 724.03 2768.2 943.55"/><polygon class="cls-10" points="2823.02 942.36 2877.89 941.17 3051.79 721.64 2996.72 722.84 2823.02 942.36"/><polygon class="cls-3" points="2658.51 945.92 2713.33 944.74 2886.51 725.23 2831.44 726.42 2658.51 945.92"/><polygon class="cls-3" points="2548.83 948.3 2603.65 947.11 2776.33 727.62 2721.27 728.81 2548.83 948.3"/><polygon class="cls-10" points="2389.69 951.74 2439.16 950.67 2611.1 731.2 2561.46 732.27 2389.69 951.74"/><polygon class="cls-3" points="2439.16 950.67 2493.97 949.49 2666.16 730 2611.1 731.2 2439.16 950.67"/><polygon class="cls-10" points="2603.65 947.11 2658.51 945.92 2831.44 726.42 2776.33 727.62 2603.65 947.11"/><polygon class="cls-10" points="2493.97 949.49 2548.83 948.3 2721.27 728.81 2666.16 730 2493.97 949.49"/><path class="cls-11" d="M2823,942.36l.43,33.06c.45,35,55.24,33.84,54.82-1.19l-.38-33.06Z"/><path class="cls-12" d="M2768.2,943.55l.46,33.05c.49,35,55.24,33.84,54.79-1.18l-.43-33.06Z"/><path class="cls-11" d="M2713.33,944.74l.5,33c.53,35,55.32,33.84,54.83-1.19l-.46-33.05Z"/><path class="cls-12" d="M2658.51,945.92l.54,33.05c.57,35,55.31,33.84,54.78-1.18l-.5-33Z"/><path class="cls-11" d="M2603.65,947.11l.58,33c.6,35,55.39,33.84,54.82-1.19l-.54-33.05Z"/><path class="cls-12" d="M2548.83,948.3l.61,33.05c.65,35,55.39,33.83,54.79-1.19l-.58-33Z"/><path class="cls-11" d="M2494,949.48l.65,33c.69,35,55.47,33.84,54.82-1.18l-.61-33.05Z"/><path class="cls-12" d="M2439.16,950.67l.68,33.05c.73,35,55.47,33.83,54.78-1.19l-.65-33Z"/><path class="cls-11" d="M2389.69,951.74l.72,33c.76,35,50.16,34,49.43-1.07l-.68-33.05Z"/><polygon class="cls-13" points="2877.89 941.17 2873.6 941.83 3054.94 937.78 3051.79 721.64 2877.89 941.17"/><rect class="cls-3" x="2637.02" y="1084.53" width="385.7" height="594.87"/><rect class="cls-14" x="2103.95" y="1084.53" width="385.7" height="594.87"/><path class="cls-15" d="M1416.37,1293c-14.64,20.86-21.28,42.48-21.28,64.63v591.59c0-22.14,6.65-43.75,21.28-64.61Z"/><path class="cls-3" d="M1503.3,1230v591.59c47.22-31.77,85.89-48.43,187.91-74.2,53.83-13.62,116.06-26.28,187.67-37.81q27.3-4.44,56.34-8.59V1109.39C1694.59,1143.9,1581.75,1177.18,1503.3,1230Z"/><path class="cls-16" d="M1884.11,1153.83s-112.76,17.31-172.69,31.7c-81.25,19.5-157.31,46.16-157.31,46.16v263.18S1683.93,1463.45,1727,1455c63.89-12.54,157.11-30.08,157.11-30.08Z"/><path class="cls-16" d="M1874.7,1459.28s-119.52,21.43-159.36,28.87c-37.95,7.08-151.82,35.07-151.82,35.07a9.41,9.41,0,0,0-9.41,9.41h0a9.41,9.41,0,0,0,9.41,9.42s116.69-28.51,155.59-35.78,155.59-28.16,155.59-28.16a9.41,9.41,0,0,0,9.41-9.42h0A9.41,9.41,0,0,0,1874.7,1459.28Z"/><path class="cls-16" d="M1874.7,1506.27l-311.18,58.1a9.41,9.41,0,0,0-9.41,9.42h0a9.41,9.41,0,0,0,9.41,9.41l311.18-58.1a9.41,9.41,0,0,0,9.41-9.41h0A9.41,9.41,0,0,0,1874.7,1506.27Z"/><path class="cls-16" d="M1874.7,1547.43l-311.18,58.1a9.41,9.41,0,0,0-9.41,9.42h0a9.41,9.41,0,0,0,9.41,9.41l311.18-58.1a9.41,9.41,0,0,0,9.41-9.41h0A9.41,9.41,0,0,0,1874.7,1547.43Z"/><polygon class="cls-16" points="1884.11 1594.31 1554.11 1664.95 1554.11 1748.57 1884.11 1677.92 1884.11 1594.31"/><path class="cls-6" d="M1664,1265.67a15.87,15.87,0,0,0-15.74,14l-12.83,97a26.25,26.25,0,0,0,26.11,29.35l57.25-.1c6.61,0,30.52-11.34,32.84-17.53l38.4-101.43a15.89,15.89,0,0,0-14.9-21.46Z"/><path class="cls-6" d="M1681.58,1268.19c0-.52,4.46-52.34,35.64-51.62,32.78.76,40.4,49.9,40.48,50.37l6.19-1c-.08-.52-2.76-15.73-9.33-28.44-9-17.32-21.81-26.72-37.16-27.16-15.64-.44-27.84,9.55-35.42,28.89a110.67,110.67,0,0,0-6.67,28.53Z"/><path class="cls-7" d="M1789.76,1265.45l-114.11.2a11.34,11.34,0,0,0-11,13.88l10,91.26a45.21,45.21,0,0,0,44.15,35.1l78.59-27.82c15.85-7.28,30.92-17.62,25.44-34.85l-22.22-69.86A11.34,11.34,0,0,0,1789.76,1265.45Z"/><path class="cls-7" d="M1692.46,1268.17c0-.52,4-46.73,35.17-45.81,31.65.91,39.89,47.11,40,47.58l6.2-1.06a98,98,0,0,0-8.83-25.64c-9-17.33-21.81-26.72-37.16-27.16-15.64-.44-27.84,9.55-35.42,28.89-5.5,14-6.15,22.13-6.19,22.72Z"/><path class="cls-14" d="M1700.8,1551.54v591.6c-101.5-50.79-305.7-126.14-305.7-192.49v-591.6C1395.1,1425.34,1599.3,1500.69,1700.8,1551.54Z"/><rect class="cls-17" x="2124.11" y="1117.72" width="345.38" height="297.37"/><rect class="cls-17" x="2124.11" y="1443.44" width="345.38" height="18.83" rx="9.16"/><rect class="cls-17" x="2124.11" y="1484.6" width="345.38" height="18.83" rx="9.16"/><rect class="cls-17" x="2124.11" y="1525.75" width="345.38" height="18.83" rx="9.16"/><rect class="cls-17" x="2124.11" y="1595.79" width="345.38" height="83.62"/><path class="cls-18" d="M2416.22,1330.92s-29.19-12.17-49.82-18.26c-19.76-5.84-29.45-101.21-31.55-115.1-4.43-29.17-26.52-37.25-26.52-37.25l1,153,34,42.84,63.46,1.48Z"/><path class="cls-19" d="M2435.9,1364.34h0l-111.1-2.59a15.53,15.53,0,0,1-14.32-10.55c-8.56-25.06-9.4-75.67-18-87.54-.65-.92-1.38-2-2.16-3.19L2286.91,1362l-11.06-.26c.2-14.37,2.41-82.07-3.07-126.06-6.3-15.11-10.69-29.73-8.49-35.81,4.59-12.64,44-39.6,44-39.6a.54.54,0,0,0,0,.11c.72,5.26,10.72,165.28,26.81,170.47,38.92,12.56,81.05,0,81.05,0S2444.46,1348,2435.9,1364.34Z"/><path class="cls-18" d="M2343.94,1329.24s-29.2-12.14-49.82-18.27c-19.58-5.82-30.77-101.07-31.55-115.1-1.73-31-26.52-37.25-26.52-37.25L2246.34,1313l34,42.85,54.15.12Z"/><path class="cls-19" d="M2363.62,1362.66h0l-96.49-1.11a22.94,22.94,0,0,1-21.39-16.14c-8.19-26.48-17.53-72.37-25.53-83.43-.65-.92-1.38-2-2.16-3.19l6.61,100.55-11.06-.26c.2-14.36-7.61-81.07-13.1-125.06-6.29-15.11-10.69-29.74-8.48-35.81,4.59-12.64,44-39.61,44-39.61a.56.56,0,0,0,0,.12c.72,5.25,14.87,165.07,31,170.26,38.92,12.55,76.9.25,76.9.25S2372.18,1346.31,2363.62,1362.66Z"/><rect class="cls-16" x="2658.51" y="1117.72" width="345.38" height="297.37"/><rect class="cls-16" x="2658.51" y="1443.44" width="345.38" height="18.83" rx="9.16"/><rect class="cls-16" x="2658.51" y="1484.6" width="345.38" height="18.83" rx="9.16"/><rect class="cls-16" x="2658.51" y="1525.75" width="345.38" height="18.83" rx="9.16"/><rect class="cls-16" x="2658.51" y="1595.79" width="345.38" height="83.62"/><path class="cls-6" d="M2717.78,1331.74c10,6.18,21.5,10.25,33,13.14,59.38,14.94,125.45.33,173-38.25,17.34-14.07,32.81-32.13,37.44-54,4.07-19.26,0-46.14-29.3-59.46-26.68-12.13-63.89-13.61-101.34-5.15s-72,26.71-104.29,47.46c-15.56,10-31.83,22.13-36.41,40.06-4.25,16.6,3.13,34.65,15.44,46.59A72.75,72.75,0,0,0,2717.78,1331.74Z"/><path class="cls-7" d="M2895.37,1184.77q6,24.46,10.45,49.29a27.46,27.46,0,0,1-8.84,25.34c-9.4,8.34-25.71,18.9-52.16,25.33a143.55,143.55,0,0,1-41.5,3.86,27.41,27.41,0,0,1-24.86-33.42q7.29-32.34,17.37-64a27.42,27.42,0,0,1,16-17.23,144.6,144.6,0,0,1,58.29-9.94,27.07,27.07,0,0,1,25.19,20.55Z"/><path class="cls-9" d="M2743.67,1238.29c-12.15,6.42-24.71,13.36-33.49,24.23-7.47,9.24-11.26,21.26-9,33.08a27.3,27.3,0,0,0,9.16,15.92c2,1.68,4.82-1.32,2.78-3-8.21-6.84-9.87-18.21-7.48-28.17,2.85-11.85,11.69-20.81,21.43-27.56a184,184,0,0,1,18.75-11c2.34-1.24.16-4.72-2.17-3.49Z"/><path class="cls-9" d="M2803.84,1342.11a44.2,44.2,0,0,0,24.68-2.44,2.14,2.14,0,0,0,1.39-2.56,2.09,2.09,0,0,0-2.56-1.39,40.2,40.2,0,0,1-22.58,2.38c-2.59-.48-3.54,3.52-.93,4Z"/><path class="cls-9" d="M2950.8,1232.62a73.7,73.7,0,0,1-20.14,51.07c-7.59,8-17.06,13.45-26.56,18.89-10,5.73-20,11.43-30.4,16.45a168.85,168.85,0,0,1-36.5,13.24c-2.59.58-1.4,4.52,1.16,3.94,23.34-5.25,44.55-16.78,65.14-28.55,10-5.69,20.11-11.23,28.36-19.33a77.79,77.79,0,0,0,23-55.82c0-2.66-4.14-2.53-4.11.11Z"/><path class="cls-9" d="M2905.39,1231.73a27.41,27.41,0,0,1-8.41,13.85c-9.4,8.34-25.71,18.9-52.16,25.33a143.54,143.54,0,0,1-41.5,3.87,27.36,27.36,0,0,1-24.66-20.48c-.07.29-.14.58-.2.87a27.41,27.41,0,0,0,24.86,33.42,143.55,143.55,0,0,0,41.5-3.86c26.45-6.43,42.76-17,52.16-25.33a27.46,27.46,0,0,0,8.84-25.34C2905.68,1233.28,2905.53,1232.51,2905.39,1231.73Z"/><path class="cls-9" d="M2790.93,1283.75l-22.23,13.17c-13.2,7.83-26.47,15.71-38.13,25.72l18.52-6.18a1,1,0,0,1,1.6,1q.53,7,1,13.94c14.71-16.5,35.9-26.52,49.33-44.09Z"/><path class="cls-9" d="M2801.79,1287.85l-8.9,20.78c-5.28,12.35-10.59,24.76-13.34,38l10.38-13.74a1.19,1.19,0,0,1,1-.61,1.54,1.54,0,0,1,.81.53l9.4,9.86c1.08-19.54,11.13-37.47,10.57-57.17Z"/><path class="cls-9" d="M2803.41,1189.32c16.93,10.23,37.63,10.5,56.38,5.94a144,144,0,0,0,17.22-5.45c2.47-.93,1.31-4.88-1.16-3.94-22.47,8.54-48.84,12.92-70.52-.19-2.26-1.36-4.18,2.28-1.92,3.64Z"/><path class="cls-9" d="M2883.93,1186.63l3.3-2.05a2.13,2.13,0,0,0,.92-1.28,2.1,2.1,0,0,0-.26-1.55,2.07,2.07,0,0,0-1.28-.92,2.11,2.11,0,0,0-1.55.26l-3.3,2.05a2.13,2.13,0,0,0-.92,1.28,2.1,2.1,0,0,0,.26,1.55,2.07,2.07,0,0,0,1.28.92,2.11,2.11,0,0,0,1.55-.26Z"/><path class="cls-19" d="M2036.77,1595.35c6.12-20.83,32.87-33.63,57-27.19,12.59,3.36,22.33,11.06,27.8,21h-18.39c-8.28-8.4-23-11.85-34.74-7-7.37,3-13.06,8.2-15.49,14.26a21.47,21.47,0,0,0,1.64,19.94c4.62,7.3,12.14,11.64,21.92,13.12a7.06,7.06,0,0,1,5.84,6.5v30.13c0,8.68-15.89,8.7-15.89,0v-24.9C2044.5,1635.1,2031.07,1614.78,2036.77,1595.35Z"/><ellipse class="cls-19" cx="2074.42" cy="1677.71" rx="22.56" ry="19.15"/><path class="cls-14" d="M1995.15,2414.51l49.78-708.45c0-10.3,14.9-18.73,33.12-18.73h0c18.21,0,33.12,8.43,33.12,18.73v708.45Z"/><path class="cls-19" d="M2082.56,1688.4s-61.5-16.76-75.84,54.39c-13.33,66.22-55.22,450-55.22,450s67.18,45.92,135.66,36.63C2087.16,2229.44,2104.31,1692.92,2082.56,1688.4Z"/><path class="cls-20" d="M2055.21,1548c.62-1,1.26-1.52,1.94-1.33,25.16,7.1,79.49,7.12,79.49,7.12l7,8.31c-3.55,5.15-10.06,9.81-13,15.32l-2.3-5a101.08,101.08,0,0,1-16.51,19l-13.73.68.68-5.92-17.88-1.2-1.1-1.35-21.21-3.71-1.78-6s-6.28-.37-6.76-.79S2051.93,1553.34,2055.21,1548Z"/><path class="cls-21" d="M2050,1573.11c.48.42,6.76.79,6.76.79l1.78,6,21.21,3.71,1.1,1.35c1.5-11.42,9.82-26.68,9.82-26.68s-6.07-.88-8.31-1-4.91-2.16-7.82-2.84-12.08-3.53-12.08-3.53l-7.26-3C2051.93,1553.34,2049.6,1572.76,2050,1573.11Z"/><path class="cls-20" d="M2056.77,1573.9s.51-17.27,1.72-23.07c0,0-3.18,14.55-2.8,23Z"/><path class="cls-20" d="M2063,1580.71s1.44-16.24,3.58-24.38A71.94,71.94,0,0,0,2063,1580.71Z"/><path class="cls-20" d="M2071.93,1582.28s1.7-15.21,4.87-25.94c0,0-5.47,14.59-5.4,25.88Z"/><path class="cls-22" d="M2250.34,1385.35l115.21-3.7-4.2-140.5-57.61-65.78-36.15-11.53-44.51,13.86s-17.14,44.84-6.59,94.29S2241.49,1378.62,2250.34,1385.35Z"/><path class="cls-23" d="M2546,1780.15c-.1-.17-.19-.35-.28-.52a24.67,24.67,0,0,1-1.18-2.5c-1.31-3.27-2.47-8.34-3.63-14.77-.79-4.51-1.63-9.67-2.49-15.29-4-25.35-9.08-59.83-20.67-85.32-11.93-26.26-21.47-44.25-27.33-55.35a0,0,0,0,0,0,0c-2.89-5.43-4.87-9.22-5.87-11.56-1.64-4-13.49-62.42-25.36-115.35a1.13,1.13,0,0,1,0-.18c-9.49-42.38-19-81.2-23.22-85.4-3.8-3.88-18.07-7.22-34.31-10.33-.85-.22-1.77-.37-2.69-.54-1.35-.22-2.73-.54-4.1-.76a16,16,0,0,0-2.12-.38c-.49-.08-1-.18-1.48-.26-14.23-2.23-38.93-.86-49.37-12-5.38-5.72-17.41-69-17.67-69-8.26.39-31.89,1.84-37.33,8.51-13.23,16.22,3.25,45.89-7.63,64.35-6.67,11.32-20.13,10.37-31.69,11.79-17.76,2.18-23.74,4.78-25.36,22.82-2,22.64-.94,45.81.31,68.48,1.75,31.77,5.65,63.41,6.69,95.23-19.38-.26-38.92-1.25-58.18-3.36l-16.15,25.13,2.64,1.44c13.62,7.43,29.49,15.92,44.15,23.66.92.54,1.84,1,2.75,1.46,13.48,7,40,31.06,54.69,16,16.31-16.64,2.44-43.39,32.48-45.51,20.06-1.42,39.52,4.13,58.83,8.57,12.52,2.88,23.84,8.64,33.27-2.91,8.35-10.25,7.78-26.91,11.31-39.06,4.25-14.59,5.28-55.09,21.21-60.79,2,2.73,2.73,5.67,3.71,9a.06.06,0,0,0,0,0c.08,0,.08.08.08.16,13.15,44.86,17.92,91.7,31.21,136.51,12.47,42.07,37,76.7,59.8,113.65a1.45,1.45,0,0,0,.1.18,0,0,0,0,0,0,0c1.53,2.47,3,4.84,4.32,7.1,6,10.07,10.14,17.87,10.6,21.26a5.32,5.32,0,0,1,.06.56v.12Z"/><path class="cls-24" d="M2388,1571.77c-3.68,11.67-11.9,38.75-11,47,.35,3.06.9,6.5,1.53,9.84,1.55,8.27,3.5,15.93,3.5,15.93s-112.31,21.93-107.26,1.18c2.82-11.68,1.43-29.83-.33-43.48-1.37-10.59-3-18.45-3-18.45l92.11-13.63,26.14-3.86S2389,1568.43,2388,1571.77Z"/><path d="M2298.78,1655.76c-12.68,0-20.61-1.61-23.69-4.84a5.58,5.58,0,0,1-1.4-5.43c2.81-11.61,1.36-29.83-.36-43.08-1.35-10.43-2.91-18.3-2.93-18.38l-.22-1.12L2391.32,1565l-.56,1.68s-.7,2.09-1.77,5.42c-7.69,24.35-11.57,40.89-10.93,46.58.33,2.87.86,6.25,1.52,9.75,1.53,8.15,3.47,15.79,3.49,15.87l.29,1.12-1.14.22c-.23,0-23.81,4.63-48.58,7.59A302.84,302.84,0,0,1,2298.78,1655.76Zm-26-71c.48,2.55,1.68,9.2,2.74,17.4,1.73,13.43,3.19,31.94.31,43.87a3.38,3.38,0,0,0,.86,3.42c9.51,10,77.21-.55,104-5.7-.6-2.44-2-8.51-3.24-14.88-.68-3.56-1.21-7-1.55-9.92-.86-7.66,5.52-30.05,11-47.48h0l1.22-3.77Z"/><path class="cls-24" d="M2228.31,1571.67c9.09-.39,25.49,24.7,25.29,24.11s-4.84-15.21-11.36-20.54C2231.71,1566.62,2228.31,1571.67,2228.31,1571.67Z"/><path d="M2253.57,1596.91c-.53,0-.91-.53-1.59-1.5-14.21-20-20.89-22.75-23.62-22.65l-2.16.1,1.21-1.79a5,5,0,0,1,3.41-1.89c3.22-.47,7.3,1.28,12.11,5.21,6.08,5,10.47,17.29,11.68,20.95a1.13,1.13,0,0,1-.51,1.42A1.19,1.19,0,0,1,2253.57,1596.91Zm-21.87-25.62c4.64,1.92,10.66,7.72,18,17.32-2-4.52-4.84-9.83-8.13-12.53C2236.69,1572.1,2233.58,1571.27,2231.7,1571.29Z"/><path class="cls-20" d="M2263.54,2405.67s3.42,77.53,0,122-39.69,120.42-47.21,131.37-52,37.63-52.69,41.73,95.79-3.42,95.79-3.42,13-32.84,35.58-54.73,39-35.58,39-35.58-8.21-19.84-28.74-46.53c0,0-9.58-17.1-6.16-54.73s13-65,21.21-117C2320.32,2388.78,2280.64,2395.88,2263.54,2405.67Z"/><path class="cls-20" d="M2466.12,2446.94s15.05,49.26,15.05,83.47-11.87,103.62-26,124.52c-11.19,16.56-38.32,26.53-47.21,47.07,0,0,35.58,9,104.68-4.65,0,0,8.21-32.5,15.74-57.81s13-48.24,13-48.24,1.37-12.37-25.32-56.47c0,0-8.85-33.14-2-93.35Z"/><path class="cls-25" d="M2221.94,2649.1s19.87.7,41.42-17.77,41.91-70.82,41.91-70.82,20.87,22.75,28.74,46.53l-15.23,92.54h-19.49l-4.11-54.4s-26.17,31.43-34.38,54.4c0,0-64.14,13.05-102.12,2.42,0,0,14.84-20,34.38-29.11C2217.18,2661.6,2221.94,2649.1,2221.94,2649.1Z"/><polygon class="cls-25" points="2545.43 2590.98 2519.96 2625.95 2526.02 2691.48 2545.52 2691.48 2545.43 2590.98"/><path class="cls-25" d="M2453.67,2657s25.45,12.85,46.49-10.24,28.69-89.25,28.69-89.25,14.41,25.62,16.46,32.81-11.8,42.59-18,66.71a348.23,348.23,0,0,0-8.21,42.07s-90.83,20.76-116.48,2.94C2402.66,2702,2421,2676.49,2453.67,2657Z"/><path class="cls-26" d="M2512.51,2466.6c-8.23,4.07-33.47,5-49.51,5.1-8.12,0-13.86-.11-13.86-.11s-14.14-179.94-46.48-305.17-52.59-259.68-52.59-259.68l-21.29-2.38s-21.34,238-22,263.3,20.2,74.8,25,128.05-18.15,193.05-18.15,193.05l-48.69,5.09s-17.44-237.14-28.93-320.23-37.8-249.44-31.63-291c1.35-9.21,5.2-23.89,10.4-41.22,2.06-6.83,4.28-14.09,6.66-21.62,18.85-59.31,46.21-133.14,46.21-133.14,33.53-5.63,126.58-4.06,126.58-4.06s15.33,22.32,33.58,54v0c4.45,7.7,9.05,16,13.66,24.65L2443,1764c20.21,38.29,39.87,83.14,43.61,118.57,8.23,77.45-6.45,188.39-5.42,244.83s17.44,108.76,29.79,149.82S2512.51,2466.6,2512.51,2466.6Z"/><path class="cls-27" d="M2512.51,2466.6c-8.23,4.07-33.47,5-49.51,5.1-1.19-43.93-7.25-169.82-38-322.35-38.35-190.12-53.89-296.39-53.89-296.39l-21.07,53.78-21.29-2.38s-21.34,238-22,263.3,20.2,74.8,25,128.05-18.15,193.05-18.15,193.05l-48.69,5.09s-4.12-273.38-18.58-384.09-14.3-231.13-14.3-231.13L2216,1842.88l-1.19-1.51c18.2-61.1,52.87-154.76,52.87-154.76,33.53-5.63,126.58-4.06,126.58-4.06s84.18,122.58,92.36,200-6.45,188.39-5.42,244.83,17.44,108.76,29.79,149.82S2512.51,2466.6,2512.51,2466.6Z"/><polygon class="cls-21" points="2264.45 2511.29 2299.87 2498.43 2300.95 2490.09 2264.91 2493.85 2264.45 2511.29"/><polygon class="cls-21" points="2477.96 2497.55 2511.55 2477.4 2512.49 2466.61 2472.64 2471.51 2477.96 2497.55"/><path class="cls-27" d="M2408,2165.39s23.36,8.1,48.84-4.11c0,0-12.94,36.95-24.42,36.95S2408,2165.39,2408,2165.39Z"/><path class="cls-27" d="M2239.07,2198.23s7,8.21,43.63,0c0,0-13.29,32.77-26.36,36S2239.07,2198.23,2239.07,2198.23Z"/><path class="cls-23" d="M2574.67,1824.9h0v0c-.61-3.9-26.25-33.5-32.69-45.55l-13,3.23c.48,7.1-8.07,25.23-9.13,31.62a3.25,3.25,0,0,0,.06,2c1.79,2.83,19.46,20.95,19.46,25.37,0,3,0,10.38,2,16a23.42,23.42,0,0,0,4,6,2.48,2.48,0,0,0,2.18.48c4.05-1.23,4.77-15.35,4.77-15.35l-.9-1.54-9.32-16-1.87-3.21a4.76,4.76,0,0,1-.65-.42c.35,0,1,0,2,.09,7.79.28,33.1.72,33.1-2.51v0Z"/><path class="cls-14" d="M2502.5,1949.21s19.74-104.83,43.05-107.54c27.51-3.19,38.59,26.06,36.28,111.37-10.85-.82-9.07-.09-9.07-.09s2.41-56.56,0-77.31c-2.85-24.24-29.13-38.88-41.06-7-14,37.56-24,82.57-24,82.57Z"/><polygon class="cls-27" points="2663.79 1912.24 2602.11 1910.9 2436.61 1930.64 2471.59 1935.57 2663.79 1912.24"/><polygon class="cls-28" points="2731.99 2175.79 2663.79 1912.24 2471.59 1935.57 2496.89 2225.75 2731.99 2175.79"/><polygon class="cls-29" points="2496.89 2225.75 2449.33 2207.71 2436.61 1930.64 2481.35 1927.71 2471.59 1935.57 2496.89 2225.75"/><polygon class="cls-29" points="2472.56 2182.62 2452.79 1929.58 2481.35 1927.71 2471.59 1935.57 2496.89 2225.75 2472.56 2182.62"/><path class="cls-29" d="M2599.89,1947c.69,4.5,3.65,7.77,6.62,7.32s4.83-4.47,4.14-9-3.66-7.78-6.63-7.32S2599.2,1942.46,2599.89,1947Z"/><ellipse class="cls-30" cx="2532.49" cy="1959.46" rx="5.39" ry="8.16" transform="translate(-267.43 405.94) rotate(-8.71)"/><polygon class="cls-14" points="2664.78 2103.12 2655.99 2018.84 2515.07 2030.97 2533.73 2122.31 2664.78 2103.12"/><path class="cls-14" d="M2532.49,1959.46s-4.39-106.58,17.71-114.47c26.08-9.31,43.47,16.69,60.45,100.32-10.76,1.65-8.86,2-8.86,2s-10.4-55.65-17.45-75.32c-8.23-23-37.13-31.31-41.57,2.45-5.22,39.76-4.81,85.86-4.81,85.86Z"/><path class="cls-31" d="M2577.11,1838.45v.23c0,.34,0,.74-.05,1.16,0,1.46-.16,2.92-.28,4.31l-.06.67c-.19,1.86-.42,3.6-.64,5.16,0,.11,0,.23,0,.34-.07.46-.14.89-.2,1.31-.1.67-.2,1.27-.3,1.81a43.33,43.33,0,0,1-6.85,3.3h0c-3.22,1.27-6.49,2.31-8.66,3-.05-6,1.16-10.92.62-11.82-.86-1.52-4.36-6.2-17.55-16.1l-1-.75c-1.9-1.4-4-2.93-6.29-4.54-.71-.53-1.48-1-2.23-1.56,0,0,2.6-.55,6.5-1.19,10.55-1.76,30.62-4.26,34.59,1.13v0h0l0,0c1.41,2,2.09,5.14,2.34,8.66C2577.14,1835.15,2577.15,1836.79,2577.11,1838.45Z"/><path class="cls-6" d="M2548.43,1778.91c-8.85,2.44-17.72,4.8-26.57,7.23-1.6.33-8.07-17-9.12-18.63-3.76-5.73-13.32-4.88-19-7-7.85-3-14.25-9.79-18.34-16.9-5.85-10.14-10.45-21.09-15.75-31.53-5.42-10.7-10.24-21.61-14.69-32.75s-9-22.21-13.14-33.43c-5-13.35-9.56-26.86-14-40.41.58,1.8.38,4.22.51,6.11.56,8.17,1.42,17-.42,25.1,0,0-22.22,10-22.25,10-.48,2.35-2.57,3.54-3.59,5.57-1.26,2.5,12.13,28.2,12.13,28.22.1.41-41.17,5.38-46.09,5.93-19.47,2.19-39.05,3.53-58.64,2.82-13.66-.5-32-.39-44.39-6.92.13-1.66.62-20.53,2-20.53l-.51-.08c-36.21-6.22-75.28-26.5-101.69-52.21l-.14-.66-1-4.29-1.32-5.92c-6.36-4.71-12.71-9.45-19.09-14.14-1.49-1.09-3-2.19-4.43-3.34,4.16-8,9-15.59,13.51-23.39.14-.25,30.23,8.3,33.54,8.85a131.67,131.67,0,0,0,35.41,1c8.31-.84,12.46-3,12.3-11.86-.15-8.24-.22-16.48-.56-24.72-1.11-26.81-2.36-53.62-3.37-80.43-.63-16.62-4.33-34.94-1.24-51.4,2.8-15,16.53-16.56,29.58-17.35-.13,0,6.66,13.4,7.34,14.4A62.54,62.54,0,0,0,2268,1409.9a76.36,76.36,0,0,0,34.16,15.35c36.43,6.56,70.88-16.16,90.26-45.49a3.41,3.41,0,0,0,.29-.48l0,0s37.76,4.46,43,10.91,52.7,190.76,61.17,202c12.3,16.36,20.71,35.36,26.82,54.81,6.27,20,10.24,40.53,14,61.09,2.24,12.13,5.81,24.25,7.11,36.53a19.41,19.41,0,0,1-.27,6.67c-.3,1.21-2.1,3.91-1.81,5.08Z"/><path class="cls-8" d="M2161.28,1582.92c-4,12.37-4.2,12.37-6.85,27.37l-1.6-13.28Z"/><path class="cls-8" d="M2256.53,1661.71a197.28,197.28,0,0,1-23.35-5.91,193.25,193.25,0,0,1-24.53-9.5c-3.17-1.5-6.35-3.12-9.5-4.89l-15.74-9.79c54.73,24.55,60.36,6,60.36-9.26,0-20.95-10-59.7-16.43-82.16,3,7.72,18.85,40.27,21.13,50.84C2256.06,1626.43,2256.6,1652.87,2256.53,1661.71Z"/><path class="cls-8" d="M2410.81,1559.2s1.21,43.86-7.65,66-55.54,36.62-55.54,36.62,65.33-19.07,69.89-25S2410.81,1559.2,2410.81,1559.2Z"/><path class="cls-8" d="M2392.43,1379.77c-3.23,5.22-30.75,47.37-79.44,46.61-27.6-.43-44.21-13-53.71-24.66,9.59,9.82,22.77,18.57,40.43,21.44,47.08,7.65,84.51-46.27,84.51-46.27Z"/><path class="cls-31" d="M2326.27,1310.49c-1.23-5.92-2-9.81-2.08-9.8-8.26.39-31.89,1.84-37.33,8.51-7,8.57-5.69,20.91-4.5,33.37C2296.8,1335.28,2317.51,1321.92,2326.27,1310.49Z"/><path class="cls-23" d="M2331.08,1284.05v0c-.27,1.71-.53,3.3-.78,4.72-2.27,13-32.39,32.61-50.24,41.2l-2,1a43.56,43.56,0,0,1-5.92,2c-4.26,1.21-9,2.14-10.62,1.86-2.46-.49-8.51-8.92-15-13.79s-21.21-18.37-22.47-27.62c-.64-4.65.51-9.9,1.73-14.86s2.46-9.5,2.13-12.9c-1.56-15.56-10.62-34.76-11.27-39.48-.17-1.24.31-5.13,1.71-10.41.21-.78.44-1.64.67-2.52,0,0,0-.07,0-.1,4.35-14.88,14.94-38,35.64-47.24a73.94,73.94,0,0,1,32.35-2.83l30.42,31.68s11.83,43.13,10.06,59.55A68.58,68.58,0,0,0,2331.08,1284.05Z"/><path class="cls-22" d="M2386.83,1284.82v0l.25,3,.91,10.4.17,1.93v0c2.68,31.2,6.69,62.36,7.87,78.94.15,1.75.26-1.37.36,0h.46l-42.32-2.26-15.75-137.08s-41.4-35.43-48.74-44.32c-5-6-14.34-17.32-19.82-23.93-1.32-1.56-2.05-2.47-2.05-2.47l-2.23-2.73s-21.94,5.52-25.59,9.33c0,0-22.19,22.34-23.73,50.48s5,111.3,33.71,159.18l-7,1s-31.26-92.15-31.87-144.77,12.77-76.18,16.06-80.52,35-.76,50-.82,42.28-1.59,55.71,3,42,49.34,46.71,63C2381.62,1231.4,2384.23,1256,2386.83,1284.82Z"/><path class="cls-32" d="M2309,1213.65s12.24,22.8,14.81,41.61l2.2,1.79s6.86-9.42,12.82-17.26Z"/><path class="cls-32" d="M2216.76,1224.37l8.8,3,11.11,12.65s-8.65-18.57-18.51-24.39C2218.16,1215.61,2216,1218.86,2216.76,1224.37Z"/><path class="cls-32" d="M2259,1209.08l7.36,10.73-.32-2.4s18.16-1.54,22.83-.67,11.33,4,11.33,4-9.44-8.07-13-9.19S2259,1209.08,2259,1209.08Z"/><path class="cls-32" d="M2278,1241.08c.71,5.17-2,9.79-6,10.34a5.94,5.94,0,0,1-3.12-.44c-1-3.73-2.32-11.12.3-16.76a22.08,22.08,0,0,1,4-.74A10,10,0,0,1,2278,1241.08Z"/><path class="cls-32" d="M2231.11,1255.92c.65,4.77-.67,8.87-3,9.19a.3.3,0,0,1-.13,0c-1.77-7.78-3.75-16-3.75-16a20.93,20.93,0,0,1,3.71-.42C2229.43,1250,2230.67,1252.68,2231.11,1255.92Z"/><path class="cls-32" d="M2267.7,1238.36l-7-4,6.12-.84,1.09-5.55s21-3.48,31.49,12.85c0,0-9.65-11.46-30.22-8.65A28.18,28.18,0,0,0,2267.7,1238.36Z"/><path class="cls-32" d="M2225.53,1252.2l-6.38-3.12,2.92-.4-.28-6.65a18.52,18.52,0,0,1,12.54,2.73c5.41,3.52,8.16,13.81,8.16,13.81a20.55,20.55,0,0,0-8.77-11.28c-3.94-2.37-9.15-1.53-9.15-1.53Z"/><path class="cls-24" d="M2280,1242.18a2.52,2.52,0,1,1-2.84-2.15A2.52,2.52,0,0,1,2280,1242.18Z"/><path class="cls-24" d="M2232.11,1256.27a2.19,2.19,0,1,1-2.46-1.87A2.18,2.18,0,0,1,2232.11,1256.27Z"/><path class="cls-31" d="M2232.75,1283.44s9.31-18.75,12.16-22.51,4.45,19.15,4.45,19.15S2240.32,1285.82,2232.75,1283.44Z"/><path class="cls-33" d="M2265.93,1166.36l14.21-3.25s44.7,33.74,67.25,73l-8.6,3.68S2286.26,1198.31,2265.93,1166.36Z"/><polygon class="cls-33" points="2344.39 1280.09 2354.3 1376.89 2378.3 1379.15 2350.21 1273.57 2344.39 1280.09"/><path class="cls-28" d="M2249.23,1305.71a23.16,23.16,0,0,0,1.39,10.12s11.61-3,16.85-7.38c6.51-5.39,11.86-20.68,11.86-20.68s-9.12,9.72-12.11,11.11S2249.23,1305.71,2249.23,1305.71Z"/><path class="cls-29" d="M2249.07,1308.14s-3.83-5.32-4.06-7a71,71,0,0,1,11.54-4.32c5.73-1.49,12.5-2.11,14.66-2.88s8.12-6.19,8.12-6.19-5.47,7.52-12.11,11.11c-3.94,2.13-18,6.83-18,6.83Z"/><path class="cls-34" d="M2265.93,1166.36s-31.14,3.06-38.43,6.44-10.4,48.5-10.4,48.5,13-36.19,21.3-43.46S2265.93,1166.36,2265.93,1166.36Z"/><path class="cls-23" d="M2327.29,1281.12s6.47,5.7,9.41,5.3,18.91-18.07,20.06-21.89c3.57-11.86-2.71-26.75-3.76-27.55s-8.66-1-8.66-1-12.55,6.8-16.81,18.31C2327.53,1254.3,2325.71,1269.48,2327.29,1281.12Z"/><path class="cls-21" d="M2333.64,1266.88s2.62-18,12.53-24.4c0,0,7.56,5.69,8.12,9.81s-.94,13.6-.94,13.6l-10.93,10.55s7.66-8.21,9.14-12,.59-11.76.59-11.76l-4.67-2.75a14.24,14.24,0,0,1,1.42,8.9c-.76,5.38-9.17,14.37-9.17,14.37l-3.08.42s3.26-9.26,1.71-10.44S2333.64,1266.88,2333.64,1266.88Z"/><path class="cls-33" d="M2283.51,1162.65l17.45,14.7-.59-4.31,33.07-1.92,9.71-.5a38.62,38.62,0,0,0-11.11-7.79C2325.75,1160.1,2283.51,1162.65,2283.51,1162.65Z"/><path class="cls-33" d="M2265.93,1166.36s-34.59,3.57-39.3,7.08-14.58,46.15-14.58,46.15,3.65-51.21,16.82-60.94c0,0,24.91-2,47.72,4Z"/><g class="cls-35"><polygon class="cls-7" points="2306.82 1261.56 2328.02 1251.47 2344.34 1235.99 2301.89 1230.42 2306.82 1261.56"/><path class="cls-9" d="M2290,1269.87c2.66-2.82-2.18-45.74-4.85-47.81s-69.95,6.68-72,9.09,6.52,44.53,8.36,47S2286.52,1273.6,2290,1269.87Z"/><path class="cls-8" d="M2215.6,1232.73c1.2-1.4,23.6-4.91,40.76-6.88-1.48,11.18-11.44,22.86-26.22,29.19a54.27,54.27,0,0,1-11.36,3.46C2216.54,1247.09,2214.51,1234,2215.6,1232.73Z"/><path class="cls-8" d="M2289.68,1268.78c2.68-2.79-2.06-43.91-4.7-45.92-.47-.36-2.54-1.24-6-1,11.88-1.41,22-2.22,23-1.43,2.64,2,7.11,44,4.44,46.78s-32.59,6.83-49.59,8C2271.94,1273.36,2287.84,1270.69,2289.68,1268.78Z"/></g><path class="cls-17" d="M1416.37,1426.39s117.51,93.56,269.83,140.1c-3.2,74.91,0,209.39,0,209.39s-217.6-56.07-269.83-151.52C1417,1564.12,1416.37,1426.39,1416.37,1426.39Z"/><path class="cls-30" d="M1618.47,1685.39s-16.91-14.28-29.32-22.51c-11.9-7.89-.72-80.12.45-90.77,2.45-22.35-10.55-32.32-10.55-32.32L1551.56,1653l14.44,37.81,41.36,12.58Z"/><path class="cls-19" d="M1625.24,1713.65h0l-72.45-22c-4.21-1.28-7.15-5.38-7.41-10.28-1-20,7.74-57.7,4.28-68-.26-.8-.54-1.73-.83-2.75l-20.9,74.41-7.21-2.19c2.77-10.58,16.67-60.2,21.15-93.7-1.35-12.31-1.55-23.91,1-28,5.34-8.52,36.18-21.3,36.18-21.3a.31.31,0,0,0,0,.09c-.49,4-23.34,124.07-13.74,130.81,23.22,16.33,53.17,14.71,53.17,14.71S1633.86,1703.12,1625.24,1713.65Z"/><path class="cls-30" d="M1571.36,1671.06s-16.93-14.25-29.33-22.51c-11.77-7.85-1.61-80.26.45-90.76,4.57-23.21-10.54-32.33-10.54-32.33l-21.62,115.93,14.43,37.81,35.5,9.89Z"/><path class="cls-19" d="M1578.13,1699.32h0L1515,1681c-6.42-2-10.88-8.31-11.06-15.8-.51-21,1.8-56.65-1.42-66.27-.26-.8-.54-1.73-.83-2.75l-14.14,75.49-7.22-2.19c2.78-10.58,9.91-61.28,14.4-94.78-1.35-12.3-1.55-23.9,1-28,5.34-8.51,36.17-21.3,36.17-21.3a.62.62,0,0,1,0,.09c-.49,4-20.57,124.67-11,131.41,23.22,16.32,50.41,14.11,50.41,14.11S1586.75,1688.79,1578.13,1699.32Z"/><path class="cls-7" d="M3366.16,2334.32l-140.09-32.59-30.55-154.06,140.08,32.59Zm-135.42-37.11,128.42,29.88-28.22-142.31-128.42-29.88Z"/><path class="cls-7" d="M3360.8,2335.38l-30.55-154.06,117-83.58,30.55,154.05Zm-24.51-151.66L3364.51,2326l107.3-76.63-28.23-142.31Z"/><path class="cls-7" d="M3333.85,2185.46l-1.2-.28-140.41-32.67,119.39-79.1L3452.17,2101Zm-128-35.4,126.89,29.52,106-75.71-125.92-24.67Z"/><circle class="cls-9" cx="3312.2" cy="2076.31" r="10.79"/><circle class="cls-9" cx="3445.44" cy="2102.41" r="10.79"/><circle class="cls-9" cx="3475.11" cy="2252.03" r="10.79"/><circle class="cls-9" cx="3362.66" cy="2330.7" r="10.79"/><circle class="cls-9" cx="3333.27" cy="2182.52" r="10.79"/><circle class="cls-9" cx="3199.02" cy="2151.29" r="10.79"/><circle class="cls-9" cx="3228.35" cy="2299.17" r="10.79"/><path class="cls-14" d="M1258.9,1347.73l-62.15-79.92,51.4-97.43,62.15,79.92ZM1205.8,1267l51.86,66.69,43.58-82.6-51.86-66.7Z"/><path class="cls-14" d="M1353.19,1350.35l-101-6.18,51.4-97.43,101,6.18Zm-88.77-13.08,84.32,5.15,43.58-82.6-84.32-5.16Z"/><path class="cls-14" d="M1407.07,1260.72l-103.26-6.32-63.5-81.66,101.43,9.78ZM1307.72,1247l82.12,5-52-62.19-80.66-7.78Z"/><circle class="cls-19" cx="1339.81" cy="1186.17" r="7.27"/><circle class="cls-19" cx="1398.46" cy="1256.37" r="7.27"/><circle class="cls-19" cx="1350.51" cy="1347.26" r="7.27"/><circle class="cls-19" cx="1258.28" cy="1340.72" r="7.27"/><circle class="cls-19" cx="1305.77" cy="1250.7" r="7.27"/><circle class="cls-19" cx="1248.76" cy="1177.39" r="7.27"/><circle class="cls-19" cx="1201.37" cy="1267.23" r="7.27"/><path class="cls-17" d="M1686.21,1831.08a9.49,9.49,0,0,1-1.9-.19c-115.16-23.31-183.85-63.43-221.19-93-41.28-32.66-54.78-60-55.33-61.14a9.53,9.53,0,0,1,17.14-8.32c.14.27,12.82,25.42,51.26,55.5,35.67,27.93,101.38,65.9,211.9,88.27a9.53,9.53,0,0,1-1.88,18.87Z"/><path class="cls-17" d="M1682.15,1875.63a8.91,8.91,0,0,1-1.85-.08c-112.72-16.74-181.49-52.89-219.33-80.28-41.83-30.27-56.48-56.79-57.08-57.9a9.66,9.66,0,0,1,3.54-12.95,9.1,9.1,0,0,1,12.54,3.67c.15.27,13.89,24.65,52.82,52.51,36.13,25.84,101.9,60,210.07,76.09a9.52,9.52,0,0,1,7.86,10.79A9.31,9.31,0,0,1,1682.15,1875.63Z"/><path class="cls-17" d="M1682.15,1931.72a8.91,8.91,0,0,1-1.85-.08c-112.72-16.73-181.49-52.89-219.33-80.27-41.83-30.27-56.48-56.79-57.08-57.91a9.66,9.66,0,0,1,3.54-13,9.1,9.1,0,0,1,12.54,3.68c.15.26,13.89,24.64,52.82,52.5,36.13,25.85,101.9,60,210.07,76.09a9.52,9.52,0,0,1,7.86,10.79A9.31,9.31,0,0,1,1682.15,1931.72Z"/><path class="cls-17" d="M1410.38,1889.43V1984s39.12,54.55,259.18,144.08c-1-38.18,0-99.8,0-99.8S1522.86,1999,1410.38,1889.43Z"/></g></svg>