<svg xmlns="http://www.w3.org/2000/svg" viewBox="0 0 4680 3120"><defs><style>.cls-1,.cls-25{fill:#fff;}.cls-1{opacity:0;}.cls-2{fill:#080859;}.cls-3{fill:#cbe7e2;}.cls-4{fill:#6cafb3;}.cls-5{fill:#a4d7cf;}.cls-6{fill:#3b8989;}.cls-7{fill:#c4f2e9;}.cls-8{fill:#eefffb;}.cls-9{fill:#e9fffb;}.cls-10{fill:#318484;}.cls-11{fill:#ffdce0;}.cls-12{fill:#ff8b89;}.cls-13{fill:#f3532d;}.cls-14{fill:#231f20;}.cls-15{fill:#ffb95c;}.cls-16{fill:#374680;}.cls-17{fill:#84bde3;}.cls-18{fill:#3e559e;}.cls-19{fill:#ffa348;}.cls-20{fill:#4c70c9;}.cls-21{fill:#89c1ef;}.cls-22{fill:#ffce99;}.cls-23{fill:#ffd6a1;}.cls-24{fill:#fff3f5;}.cls-26{opacity:0.7;}.cls-27{fill:#89c3ee;}.cls-28{opacity:0.8;}</style></defs><title>10</title><g id="_10" data-name="10"><rect id="_10-2" data-name="10" class="cls-1" width="4680" height="3120"/><path class="cls-2" d="M3490.42,2309.43a343.45,343.45,0,0,0-6.24-35.94q-4-17.79-9.61-35.15t-12.63-34.12a492,492,0,0,0-32.86-64.71c-6.21-10.37-12.78-20.51-19.61-30.47s-13.94-19.71-21.36-29.23c-14.79-19-30.6-37.28-47.19-54.73s-34-34-52.18-49.84a636.56,636.56,0,0,0-56.72-44.41c9.6,7.2,18.84,14.86,27.93,22.66s18,15.8,26.77,24c17.45,16.4,34.31,33.43,50.27,51.24s31.26,36.2,45.42,55.42a635.5,635.5,0,0,1,39.33,59.69q8.9,15.49,16.76,31.51c1.28,2.68,2.63,5.33,3.86,8l3.74,8.09,3.56,8.17c1.19,2.72,2.27,5.49,3.41,8.23q6.64,16.51,12,33.49t9,34.37q3.76,17.34,5.85,35a331.88,331.88,0,0,1,2.41,35.35c.11,2.95.06,5.91,0,8.86s0,5.91-.18,8.86l-.38,8.86-.64,8.85c-1,11.77-2.53,23.5-4.64,35.12a345.56,345.56,0,0,1-19.69,67.94,360.92,360.92,0,0,1-33.15,62.57,400.85,400.85,0,0,1-44.35,55.42c-8.18,8.6-16.78,16.8-25.63,24.72s-18,15.53-27.41,22.8a539.51,539.51,0,0,1-59.37,39.67,596,596,0,0,1-64,32.1,620.67,620.67,0,0,1-67.37,24.53q-17.19,5.18-34.7,9.28t-35.26,7.12q17.88-2.11,35.6-5.5t35.18-8a598.42,598.42,0,0,0,68.61-22.49c44.74-17.88,87.61-41,126.44-69.91q14.55-10.85,28.32-22.72c9.15-7.95,18-16.26,26.46-24.95a411.43,411.43,0,0,0,46.08-56.34,363,363,0,0,0,34.43-64.28,340.85,340.85,0,0,0,12.08-34.48,358.54,358.54,0,0,0,8.48-35.54q3.2-18,4.65-36.22l.63-9.11.36-9.12c.16-3,.12-6.09.15-9.13s.06-6.09-.06-9.14A346.4,346.4,0,0,0,3490.42,2309.43Z"/><path class="cls-2" d="M2962.26,1758.77c-56.58-191.82,107-391,68-586.51-21.61-108.49-109.76-203.35-222.25-239.18-123.08-39.21-258-7.3-368.62,60.12-206,158.19-363.24,362.67-363.24,362.67-615.44,603.11-705.58,942.87-687.73,1094.78,1.24,54.38,17.29,107.06,53.72,153.77,98.12,125.82,250.64,154,401.46,121s289.75-106,442.45-130.42c122.19-19.54,250.23-6.46,364.91,37.26,86.12,32.84,165.7,82.75,256.94,100,152.27,28.77,313.52-43.18,408.89-157,63.73-76.05,102.76-174.55,84.55-269.38C3357.63,2078,3028.11,1982,2962.26,1758.77Z"/><path class="cls-2" d="M2066.58,1195.36Q2019.2,1236.52,1973,1279t-91.4,86.08q-45.18,43.61-89,88.56-87.87,89.75-169.63,185.31-20.4,23.88-40.21,48.29t-39.11,49.21q-38.55,49.66-74.38,101.41-17.87,25.89-34.73,52.48c-11.25,17.7-22.21,35.6-32.73,53.77a1154.86,1154.86,0,0,0-57.58,112.06c-8.46,19.25-16.34,38.77-23.33,58.63s-13.21,40-18.36,60.42a833.23,833.23,0,0,0-22.84,124c-4.26,41.84-4.93,84.17-.46,126.07a479.9,479.9,0,0,0,10.84,62.2c2.44,10.25,5.39,20.36,8.55,30.4,1.7,5,3.27,10,5.16,14.93.92,2.47,1.79,4.95,2.75,7.41l2.94,7.33c4,9.71,8.34,19.33,13.17,28.68s9.88,18.58,15.46,27.5,11.42,17.67,17.69,26.1,12.93,16.58,19.92,24.42a352.61,352.61,0,0,0,45.83,43c8.3,6.41,16.85,12.49,25.72,18.05,4.44,2.78,8.94,5.46,13.52,8s9.24,4.92,14,7c-4.74-2.2-9.32-4.74-13.83-7.37s-8.93-5.42-13.27-8.32c-8.7-5.78-17.05-12.06-25.13-18.65a350.87,350.87,0,0,1-44.56-43.75,372,372,0,0,1-63.51-106.7l-2.79-7.28c-.91-2.43-1.73-4.89-2.6-7.33-1.79-4.88-3.26-9.86-4.87-14.8-3-9.94-5.75-20-8-30.09a472.91,472.91,0,0,1-9.8-61.47c-3.85-41.37-2.86-83.12,1.81-124.42,2.36-20.65,5.63-41.2,9.6-61.61l1.51-7.66c.51-2.55,1-5.1,1.57-7.64l3.37-15.23c1.16-5.07,2.45-10.11,3.67-15.17.63-2.52,1.21-5.06,1.88-7.57l2-7.54c10.4-40.25,24.89-79.3,41.88-117.27,8.47-19,17.58-37.71,27.15-56.19s19.69-36.7,30.17-54.7c21-36,43.58-71.08,67.2-105.44,47.22-68.79,98.78-134.58,152.56-198.45q40.35-47.91,82.43-94.35,21-23.25,42.4-46.15t43-45.57q21.67-22.62,43.67-45t44.24-44.42q44.48-44.19,90-87.28t92-85.26q23.22-21.08,46.74-41.83c15.65-13.86,31.39-27.64,47.34-41.16-16.3,13.1-32.39,26.47-48.41,39.92S2082.38,1181.65,2066.58,1195.36Z"/><path class="cls-3" d="M2758.83,1720.65a25.06,25.06,0,0,1,.18,4.14c-.49,30.27-33.7,128-33.7,128l-6.92,141.88,43.49-21.09-37.9,54.27,3.61,130.11L2701,2260.69l-57.43,221.72-3.05,11.83-2.68,10.3,7.42-10.76,22.37-32.48,16-23.26,40.32-58.53,1.4-2,14.25-27.94L2847,2138.64l22.33-87.53,10.9-42.71-38.68-6.85,44.25-8.83s15.8-116.3-17.23-174S2758.83,1720.65,2758.83,1720.65Z"/><path class="cls-4" d="M2650,2500.19a21,21,0,0,0-2.41,5.35Z"/><path class="cls-4" d="M3204.56,1807l-229.65,117.1-84.38,101.55-57.09,68.74-59.23,131.08L2709.8,2368l-36.21,80.12-.06.14h0L2653.3,2493l-3.28,7.21a68.71,68.71,0,0,1,5.18-7.37h0c25.93-32.85,111.31-104.46,180.15-159.74h0l2.84-2.3c43.36-34.78,79.64-62.7,89.46-69.73,28.08-20.08,104.93-132.62,144.08-144.13s162.59-3.6,181.13-5,134.42-63.23,134.42-63.23l-20.59-60.81,59.47,34,100.71-66.47.87-.59C3402.07,1800.67,3204.56,1807,3204.56,1807Z"/><path class="cls-3" d="M3003.39,2285a553.51,553.51,0,0,0-298,132.89c-10.46,9.18-19.74,18-27.84,26.2-1.39,1.39-2.74,2.78-4,4.15a1,1,0,0,0-.18.18,422.53,422.53,0,0,0-33.91,39.35c-3.38,4.56-5.07,7.09-5.07,7.09l3-.3,1.41-.12,14.5-1.43,1.93-.17,155.25-15.1,37.55-3.65,128.64-10.71,32.31-28.9.5,32.76,127.59,61.35s276.32,6.65,285-65.54-19.39-124.14-19.39-124.14S3254,2253.81,3003.39,2285Z"/><path class="cls-5" d="M3113.23,1917.32l-183.66,140.91-70.69,76-77.65,110.64-45.87,85.49-46.56,46,11.82,11.71,28.66,19,15.6-13.5,9.26-13.76,4.41,1.19s31.84-20.52,73.3-46.28c2.12-1.31,4.26-2.62,6.4-4,43.36-34.78,79.64-62.7,89.46-69.73,28.08-20.08,104.93-132.62,144.08-144.13s162.59-3.6,181.13-5,134.42-63.23,134.42-63.23l-20.59-60.81,59.47,34,100.71-66.47-248-63.44Z"/><path class="cls-4" d="M2986,2347.59c-20.5-.41-146.24,33.13-239.53,58.86-14.65,4.06-28.53,7.92-41.06,11.41-4,1.11-7.89,2.21-11.58,3.24l-9.23,2.57c-11.51,3.25-21.12,6-28.16,8-8.42,2.36-13.17,3.73-13.17,3.73l11.19,2.85,21.15,5.33,1.14.3.82.2,20.43,5.17,112.48,28.48,37.55-3.65,128.64-10.71,32.31-28.9.5,32.76,127.59,61.35s276.32,6.65,285-65.54l-189.87-70.8S3019.18,2348.28,2986,2347.59Z"/><path class="cls-5" d="M2725.31,1852.83l-6.92,141.88,43.49-21.09-37.9,54.27,3.61,130.11L2701,2260.69l17.18,88.78,5.8,30,3.83,19.8,1.5,7.75s.68-3.65,1.89-10.41c1.79-9.8,4.72-26.11,8.43-47.11,3.72-21.27,8.21-47.38,13.05-76.43,19.61-117.82,44.73-284.09,46.77-373.35,1.81-78.68-19.79-137.32-40.41-175C2758.52,1755.06,2725.31,1852.83,2725.31,1852.83Z"/><path class="cls-6" d="M3343.78,1905.43l-32.07-8.27-32.09-8.19-.53-.13-.65.09-41.52,5.66-41.49,5.84c-13.83,2-27.67,3.85-41.49,5.9l-41.47,6-1.16.17-1,.71-30,21.4-29.94,21.54-30,21.53c-10,7.19-20,14.32-29.9,21.62-19.92,15-38.46,31.32-56.69,48-9.13,8.29-18,16.84-26.89,25.4s-17.6,17.22-26.28,26l-.19.19-.11.14-10.62,13.44c-3.55,4.48-7.12,8.93-10.48,13.55L2849,2139.76l-2.56,3.43-2.48,3.49-5,7-5,7c-1.66,2.32-3.31,4.65-4.91,7l-9.64,14.14-2.4,3.54-2.33,3.59-4.66,7.18c-3.1,4.78-6.25,9.54-9.23,14.4-12.26,19.23-23.71,39-34.76,58.9-2.8,5-5.43,10-8.11,15s-5.25,10.11-7.87,15.17c-5.14,10.16-10.09,20.43-14.72,30.82,5.23-10.11,10.86-20,16.48-29.87s11.48-19.63,17.41-29.32,11.95-19.32,18.08-28.87l9.28-14.28,9.48-14.14c3.13-4.74,6.41-9.37,9.65-14l4.86-7,2.44-3.49,2.49-3.44,9.94-13.82c1.64-2.31,3.33-4.58,5-6.85l5.1-6.8,5.1-6.81,2.55-3.4,2.62-3.34,10.49-13.39c3.46-4.49,7.1-8.83,10.66-13.24l10.57-13-.14.14.3-.34-.16.2c17.36-17.13,35.24-33.87,53.3-50.28s36.64-32.5,56.07-47l59.64-43.26,29.81-21.65,28.8-21.11-1.23.2,2.15-.87-.92.67,40.14-6.43c13.8-2.18,27.57-4.51,41.36-6.77l41.34-6.82,40.78-6.91-.64-.14,1.18,0-.54.09,31.73,6.88L3343,1909l32.42,6.8,32.45,6.64-32-8.56Z"/><polygon class="cls-6" points="3113.99 1922.27 3115.22 1922.07 3116.14 1921.4 3113.99 1922.27"/><path class="cls-6" d="M2887.46,2105.49l.14-.14.16-.2Z"/><polygon class="cls-6" points="3278.2 1895 3278.84 1895.14 3279.38 1895.05 3278.2 1895"/><path class="cls-6" d="M3333.32,2430.82c-8.16-3.85-16.31-7.75-24.49-11.54l-24.54-11.42-24.6-11.28-.27-.12-.43-.1-16.95-3.63-17-3.54-33.94-7.06-68-13.68-34-6.66-34-6.57-34.06-6.45-34.07-6.35-1.17-.21-1.08.27L2925,2357.77l-59.64,15.67c-19.85,5.37-39.72,10.64-59.53,16.17l-14.86,4.11-14.84,4.19q-14.85,4.18-29.66,8.54,15.14-3,30.23-6.18l15.1-3.17,15.08-3.25c20.11-4.28,40.16-8.81,60.24-13.25l60.11-13.76L2986.1,2353l-1.09-.21,2.25-.06-1.16.27,32.93,6.46,34,6.56,34.05,6.46,34.08,6.35,68.21,12.36,34.15,6,17.08,3,16.81,2.82-.41-.17.7.22-.29,0,24.67,10,25.15,10c8.37,3.36,16.79,6.61,25.2,9.9q6.28,2.47,12.62,4.89l12.65,4.83-12.19-5.89Q3339.43,2433.7,3333.32,2430.82Z"/><polygon class="cls-6" points="2985.01 2352.76 2986.1 2352.97 2987.26 2352.7 2985.01 2352.76"/><polygon class="cls-6" points="3257.03 2402.75 3257.44 2402.92 3257.73 2402.97 3257.03 2402.75"/><path class="cls-6" d="M2799.15,1855c0,.13,0,.27-.05.4l.13.58Z"/><path class="cls-6" d="M2800.19,1840.54c-1.47-4.68-2.89-9.36-4.4-14l-4.5-14c-1.54-4.65-3-9.32-4.63-14,1,4.82,2,9.61,3,14.41l3.13,14.37c1,4.8,2.15,9.57,3.22,14.35l3.11,13.76c0-.13,0-.27.05-.4l.08,1-.13-.58c-1.49,12-3.06,23.94-4.48,35.91l-4.25,36.34c-2.73,24.24-5.23,48.49-7.64,72.76s-4.6,48.55-6.69,72.85-3.95,48.45-5.63,72.71l.1-.41-.12.64c0-.07,0-.15,0-.23l-2.84,11.94-2.84,12.37c-1.87,8.26-3.82,16.49-5.61,24.77s-3.68,16.53-5.4,24.82-3.49,16.58-5.11,24.9q4-12.08,7.78-24.2c2.57-8.07,5-16.18,7.49-24.27s4.85-16.22,7.27-24.33l3.61-12.17,3.51-12.2.06-.22.05-.42q4.35-36.33,8.12-72.72t7.05-72.81c2.18-24.28,4.27-48.58,6.12-72.9l2.63-36.49c.86-12.17,1.56-24.35,2.35-36.52l0-.59-.12-.38Z"/><path class="cls-6" d="M2770.51,2145.59l-.1.41c0,.08,0,.16,0,.23Z"/><path class="cls-7" d="M3206.35,1937c-68.88,18.5-145.87,88.26-137.29,120.21s102.17,38.45,171.06,20,115.78-95.68,107.2-127.63S3275.24,1918.47,3206.35,1937Z"/><path class="cls-7" d="M2947.21,2090.51c-31,26.58-47.19,72.7-34.74,87.22s48.83-8.07,79.82-34.65,68.32-59,55.87-73.51S2978.21,2063.93,2947.21,2090.51Z"/><path class="cls-8" d="M3277.87,2308.57c-50.95-10.25-93.07,1.51-98.25,27.26s38.84,19.08,89.8,29.33,94.74,47.1,99.92,21.36S3328.83,2318.82,3277.87,2308.57Z"/><path class="cls-8" d="M3107.1,2295.43c-32-1.9-58.37,5.07-59,15.56s24.78,20.55,56.74,22.45,58.36-5.07,59-15.57S3139.05,2297.33,3107.1,2295.43Z"/><polygon class="cls-6" points="3178.47 1956.18 3177.84 1956.21 3047.78 1961.37 3048.43 1972.32 3177.69 1962.16 3177.09 1961.97 3178.2 1962.12 3177.69 1962.16 3322.93 2007.33 3178.95 1956.36 3178.47 1956.18"/><polygon class="cls-6" points="3177.09 1961.97 3177.69 1962.16 3178.2 1962.12 3177.09 1961.97"/><polygon class="cls-6" points="3055.32 2326.19 3055.74 2326.11 3055.98 2326.01 3055.32 2326.19"/><polygon class="cls-6" points="3053.92 2319.08 3053.51 2319.22 2984.13 2342.44 2987.87 2352.75 3055.74 2326.11 3055.32 2326.19 3055.98 2326.01 3055.74 2326.11 3194.3 2300.11 3054.17 2319.05 3053.92 2319.08"/><polygon class="cls-6" points="3214.95 2361.35 3215.23 2361.29 3215.33 2361.26 3214.95 2361.35"/><polygon class="cls-6" points="3213.61 2354.24 3213.33 2354.32 3144.64 2372.21 3147.69 2382.75 3215.23 2361.29 3214.95 2361.35 3215.33 2361.26 3215.23 2361.29 3353 2333.69 3213.71 2354.23 3213.61 2354.24"/><polygon class="cls-6" points="3145.14 2443.6 3145.03 2443.35 3144.77 2443.05 3072.23 2359.53 3064.18 2366.97 3141.55 2445.66 3141.38 2445.3 3141.74 2445.85 3141.55 2445.66 3170.11 2503.91 3145.14 2443.6"/><polygon class="cls-6" points="3141.38 2445.3 3141.55 2445.66 3141.74 2445.85 3141.38 2445.3"/><polygon class="cls-6" points="2994.79 1949.02 2995.23 1948.58 2995.4 1948.15 2994.79 1949.02"/><polygon class="cls-6" points="2991.25 1945.25 2990.9 1945.56 2990.64 1946.12 2951.43 2030.31 2961.51 2034.63 2995.23 1948.58 2994.79 1949.02 2995.4 1948.15 2995.23 1948.58 3053.29 1890.36 2991.25 1945.25"/><polygon class="cls-6" points="3008.29 2074.44 3008.74 2074.49 3009.09 2074.36 3008.29 2074.44"/><polygon class="cls-6" points="3008.72 2071 3008.36 2070.95 3007.93 2071.09 2865.06 2117.83 2868.73 2128.17 3008.74 2074.49 3008.29 2074.44 3009.09 2074.36 3008.74 2074.49 3077.51 2081.4 3008.72 2071"/><path class="cls-5" d="M2313.23,2318.26c-195.18-134.14-374.67-164.76-374.67-164.76l-15.5,55.35-34-68.34-53.38-9.63-1.51,34.93-42.57-47.2-224-14.34c.52.89,1.08,1.84,1.67,2.79,43.13,68.45,281.1,231.78,281.1,231.78,249.39,157.68,339.12,138.32,409.41,150.59s234.74-14.31,234.74-14.31A1071.5,1071.5,0,0,0,2313.23,2318.26Z"/><path class="cls-3" d="M1938.56,2153.5l-15.5,55.35-34-68.34-53.38-9.63-1.51,34.93-42.57-47.2-224-14.34c.52.89,1.08,1.84,1.67,2.79,239,114,759.8,360,821.27,369.61l-77.26-158.41C2118.05,2184.12,1938.56,2153.5,1938.56,2153.5Z"/><path class="cls-4" d="M2184.75,2389.59l-20.67-9.81-41.35-19.6-82.85-38.87-83-38.47c-27.74-12.69-55.42-25.5-83.23-38.05-55.55-25.23-111.23-50.21-167.24-74.45,54.58,27.32,109.5,53.91,164.54,80.25,27.48,13.23,55.1,26.2,82.65,39.29l82.85,38.88,83,38.48,41.6,19.08,20.8,9.53,20.84,9.45c55.55,25.23,111.22,50.21,167.24,74.44-54.57-27.34-109.49-53.93-164.53-80.26Z"/><path class="cls-9" d="M2179.52,2264.77c-63.84-25.2-124.82-37.15-132.58-17.51s39.55,37.14,103.39,62.35,127,68.65,134.74,49S2243.35,2290,2179.52,2264.77Z"/><ellipse class="cls-9" cx="1989.12" cy="2208.82" rx="22.17" ry="39.79" transform="translate(-795.88 3247.69) rotate(-68.45)"/><path class="cls-4" d="M2023.54,2287.59q-11.85-11.76-24.32-22.88c-8.35-7.39-16.87-14.6-26-21.22,6.7,9,14,17.51,21.43,25.8s15.17,16.3,23.07,24.14,16,15.47,24.31,22.88,16.87,14.6,26,21.22c-6.69-9.06-14-17.52-21.42-25.81S2031.45,2295.42,2023.54,2287.59Z"/><path class="cls-4" d="M2129.66,2296.16q-11-21.49-22.87-42.59c-7.93-14-16.08-28-25-41.52,5.85,15.11,12.43,29.84,19.22,44.46s13.94,29.07,21.3,43.4,15,28.54,22.86,42.59,16.08,28,25,41.52c-5.84-15.11-12.42-29.85-19.21-44.47S2137,2310.48,2129.66,2296.16Z"/><path class="cls-4" d="M1844.29,2268.23q-19.21-.49-38.44-.27-9.61.12-19.23.41l-9.62.32c-1.6.06-3.2.1-4.81.12-.8,0-1.6,0-2.4,0-.4,0-.8,0-1.19-.05a3.81,3.81,0,0,1-.59-.07,1.47,1.47,0,0,1-.28-.08c-.09,0-.14-.12,0-.2s-.09.06-.08.13a.18.18,0,0,0,.09.14,1.06,1.06,0,0,0,.26.17,5.89,5.89,0,0,0,.58.24c.38.14.78.25,1.17.36.79.22,1.58.4,2.37.59,1.59.33,3.18.63,4.77.91,3.19.57,6.39,1,9.58,1.45,6.39.84,12.8,1.47,19.2,2,12.81,1.06,25.63,1.7,38.46,2s25.65.33,38.49,0,25.67-1,38.52-2.52c-12.79-1.91-25.59-3-38.39-3.93S1857.09,2268.56,1844.29,2268.23Z"/><path class="cls-4" d="M1942.58,2317.6q-20.4.51-40.78,1.76-10.18.63-20.37,1.42l-10.18.83c-1.7.14-3.4.27-5.1.37-.85.06-1.7.12-2.54.15-.43,0-.85,0-1.27,0q-.33,0-.63,0a1.46,1.46,0,0,1-.3-.07c-.1,0-.17-.11-.07-.2a.18.18,0,0,0-.09.14.28.28,0,0,0,.12.14,1.14,1.14,0,0,0,.29.15q.31.12.63.21c.41.12.84.21,1.26.3q1.28.26,2.55.45c1.7.26,3.4.47,5.11.67,3.41.39,6.82.64,10.23.93,6.83.5,13.65.8,20.47,1,13.63.38,27.26.35,40.88,0s27.22-1,40.81-2.05,27.17-2.37,40.72-4.54c-13.67-1.23-27.3-1.68-40.92-1.9S1956.17,2317.25,1942.58,2317.6Z"/><path class="cls-5" d="M2120.06,1845.47l-49.11,48.1,5.54-91.14-49.56-41.86-22.43,35.29-15.91-74.33L1765,1572.88c0,1.24,0,2.56.07,3.9,3.82,96.68,152.88,408,152.88,408,164.26,312.34,268.81,345.86,334.32,400.56s251.8,125.36,251.8,125.36A1281.23,1281.23,0,0,0,2409.92,2240C2287.78,1984.39,2120.06,1845.47,2120.06,1845.47Z"/><path class="cls-3" d="M2120.06,1845.47l-49.11,48.1,5.54-91.14-49.56-41.86-22.43,35.29-15.91-74.33L1765,1572.88c0,1.24,0,2.56.07,3.9,179.61,260.82,572.39,826.76,630.33,873.48l14.53-210.3C2287.78,1984.39,2120.06,1845.47,2120.06,1845.47Z"/><path class="cls-4" d="M2233.64,2237.54l-15.59-22.49-31.19-45-62.68-89.74-63-89.48c-21.13-29.74-42.16-59.57-63.42-89.22q-63.6-89.09-128.33-177.39,60.77,91.08,123.1,181.06c20.64,30.09,41.52,60,62.29,90l62.67,89.74,63,89.49,31.67,44.64L2228,2241.5l15.91,22.27q63.58,89.08,128.34,177.38-60.76-91.08-123.09-181.07Z"/><path class="cls-9" d="M2176.38,2007.35c-19.77,15.73,18.81,62.11,69.91,126.36s90.59,147,110.35,131.26-2.24-96-53.33-160.29S2196.15,1991.63,2176.38,2007.35Z"/><path class="cls-9" d="M2109.79,1895.74c-11.46,9.12-7.49,33.18,8.87,53.75s38.92,29.86,50.38,20.75,7.49-33.18-8.87-53.75S2121.25,1886.63,2109.79,1895.74Z"/><path class="cls-4" d="M2127.27,2035.38q-5.26-19.25-11.37-38.28c-4.12-12.67-8.48-25.27-13.63-37.66,1.87,13.29,4.52,26.36,7.41,39.36s6.16,25.91,9.66,38.75,7.27,25.6,11.36,38.28,8.48,25.28,13.63,37.66c-1.85-13.28-4.5-26.36-7.39-39.36S2130.78,2048.22,2127.27,2035.38Z"/><path class="cls-4" d="M2227.56,2049.29q-2.29,28.83-3.68,57.7t-1.91,57.78c-.3,19.28-.34,38.57.44,57.9,2.64-19.16,4.46-38.37,6-57.58s2.74-38.46,3.67-57.7,1.57-38.51,1.9-57.79.34-38.56-.43-57.89C2230.94,2010.87,2229.12,2030.08,2227.56,2049.29Z"/><path class="cls-4" d="M1953.43,1908.75q-19.61-12-39.58-23.39-10-5.68-20-11.26l-10.07-5.56c-1.68-.93-3.35-1.87-5-2.84-.83-.47-1.66-1-2.47-1.46-.4-.26-.8-.52-1.19-.8a5.79,5.79,0,0,1-.55-.43,1.18,1.18,0,0,1-.24-.26c-.07-.09-.07-.22.08-.25-.06,0-.13,0-.17.09a.28.28,0,0,0,0,.2,1.52,1.52,0,0,0,.18.33,5,5,0,0,0,.46.57c.32.37.67.71,1,1,.7.68,1.42,1.33,2.14,2,1.47,1.27,3,2.5,4.46,3.72,3,2.43,6.08,4.73,9.15,7.07,6.18,4.6,12.47,9,18.81,13.35q19,13,38.73,24.91t39.8,23.12c13.46,7.39,27.06,14.53,41.09,20.94-12.29-9.33-25-18-37.76-26.45S1966.51,1916.74,1953.43,1908.75Z"/><path class="cls-4" d="M2025.84,2018.62q-21.45-11.64-43.23-22.67-10.89-5.52-21.85-10.9l-11-5.39q-2.74-1.34-5.46-2.74c-.9-.46-1.81-.93-2.69-1.42-.45-.25-.88-.51-1.31-.78a6.26,6.26,0,0,1-.62-.43,1.27,1.27,0,0,1-.27-.25c-.09-.09-.09-.23.06-.26-.06,0-.14,0-.17.1a.28.28,0,0,0,0,.2,1.58,1.58,0,0,0,.22.33,4.86,4.86,0,0,0,.53.58c.37.36.76.7,1.15,1,.78.67,1.59,1.31,2.39,2,1.63,1.25,3.29,2.45,4.95,3.65,3.33,2.39,6.74,4.64,10.13,6.93,6.82,4.5,13.75,8.82,20.72,13q20.94,12.66,42.45,24.25t43.43,22.41c14.65,7.13,29.43,14,44.61,20.16-13.58-9.14-27.52-17.59-41.57-25.84S2040.14,2026.39,2025.84,2018.62Z"/><path class="cls-4" d="M2161.59,2421.13c-48-5.19-201.64-17.94-286.63,20.22l-3.52,54.18-32.89-37.2s-105.39,76.7-124.43,146.86c0,0,172.49-28.79,196.21-25l11.69-41.72,16.72,41.71s106.3-21.06,128-16.91l-3.75-39.43,24.34,36.37s193.82-76.8,400.81-43.38l-299-89A105.62,105.62,0,0,0,2161.59,2421.13Z"/><path class="cls-5" d="M2110.82,2461.86l-176.61,26.25-220.09,117.08,196.21-25,11.69-41.72,16.72,41.71,128-16.91-3.75-39.43,24.34,36.37c168.47-63.71,312.32-47.07,312.32-47.07S2262.33,2460.11,2110.82,2461.86Z"/><path class="cls-3" d="M2102.13,2429.73c-5.89-2.51-65-8.84-114.4-1.51s-85,17.88-84,24.22,38.1,6.06,87.45-1.27S2139.69,2445.75,2102.13,2429.73Z"/><polygon class="cls-10" points="2129.19 2461.89 2129.83 2461.99 2130.44 2461.9 2129.19 2461.89"/><path class="cls-10" d="M1934.6,2490.62l.41-.06.45-.24Z"/><path class="cls-10" d="M2275.46,2478.84,2261,2476.2l-14.48-2.55-29-5.11-29-4.94-29-4.91-29-4.77-.62-.1-.64.1-24.46,3.7-24.44,3.84-24.45,3.85-12.22,1.92-12.21,2c-16.27,2.68-32.56,5.26-48.83,8s-32.54,5.44-48.78,8.34l-.51.09-.36.21-19.63,11.67-19.57,11.78c-6.54,3.92-13,7.9-19.53,11.86s-13,8-19.46,12c6.75-3.52,13.54-7,20.27-10.56s13.48-7.08,20.19-10.69l20.15-10.76,19.64-10.63-.41.06.86-.3-.45.24c16.22-2.13,32.41-4.47,48.61-6.7s32.65-4.72,49-7.07l12.24-1.78,12.24-1.85,24.46-3.7,24.46-3.72,23.83-3.75-.64-.1h1.25l-.61.09,28.42,4.5,29.08,4.44,29.09,4.41,29.12,4.25,14.56,2.12,14.57,2.05c9.71,1.34,19.42,2.75,29.15,4,19.44,2.63,38.89,5.2,58.39,7.53-19.24-3.91-38.52-7.57-57.81-11.18C2294.77,2482.32,2285.11,2480.61,2275.46,2478.84Z"/><path class="cls-11" d="M2423,1644.63a134.44,134.44,0,0,1-9.73-29.45,205.62,205.62,0,0,1-4.26-32.62s-112.38-56.43-164,70.53c-1.4,3.36-2.7,6.84-4,10.45,0,0,6.56,9,15.86,22.07,21.05,29.7,56.1,80.26,60,93.38,5.57,18.85,51.06,62.13,113.78,35s55.48-122.09,55.48-122.09S2445.42,1692.18,2423,1644.63Z"/><path class="cls-12" d="M2419.67,1636a257.59,257.59,0,0,1-7.09-26.48l-76.86,1.09-90.65,42.51c-1.4,3.36-2.7,6.84-4,10.45,0,0,6.56,9,15.86,22.07l25.45,12.2,100.73-18.3a27.87,27.87,0,0,0,15.52-8.52h0a18.48,18.48,0,0,1,16.49-5.82l.37.07a14.9,14.9,0,0,1,9.33,6c9.63,13.08,23.62,27.37,39.34,28.5,29.47,2.13,41.68-2.12,41.68-2.12s-51-13.6-65.23-28C2431.72,1660.53,2423.24,1643.61,2419.67,1636Z"/><path class="cls-13" d="M2139.92,1418.84l-18.5,67.33,5.16,55.87,14.43,40,32.11,39.2,42.25-7S2191.53,1430.49,2139.92,1418.84Z"/><path class="cls-11" d="M2163.65,1517l77.44,146.52,17.61,9.78a64.37,64.37,0,0,0,42.66,7.08l80.83-14.55a6.23,6.23,0,0,0,2.27-.91l12.19-8.13a17.43,17.43,0,0,0,7.24-10.28l10.93-43.69L2373,1427S2193,1363.17,2163.65,1517Z"/><polygon class="cls-14" points="2141.01 1581.99 2162.1 1608.63 2190.79 1568.68 2170.98 1534.27 2141.01 1581.99"/><path class="cls-11" d="M2414,1519.85c-11.1-7.77-22.19,11.1-22.19,11.1-2.22,32.18,23,71.88,23,71.88l11.66-17.41a37.28,37.28,0,0,0,4.37-32.55C2426.58,1540,2420.3,1524.24,2414,1519.85Z"/><path class="cls-11" d="M2181.66,1605.24a11.47,11.47,0,0,0-10.3,9.54c-1.08,6.56-1.81,15.72.73,22.71,4.44,12.2,69,26,69,26s-10-41.36-21.06-56.9C2220,1606.63,2200,1603.57,2181.66,1605.24Z"/><path class="cls-15" d="M2647.08,1674.11c-2-.59-46.06,2.89-88.28,6.37-36.29,3-71.18,6-76.93,6.5-.53,0-.84.07-.84.07,31.09,73.78-159.24,129.54-165.34,117.88s-2.7-32.19-2.7-32.19l-28.8,25.66-8.89,31.09-18.88-10-41,18.88-40,14.42-12.22,3.33-16.64,25.53-65.39,50.69,82,57,25.53,52.15,24.41,105.45,74.38,375.1,501.07-22.76c10.54-125.94-66-559.88-66-559.88l45.8-2.86c-11.63-97.64,48.54-136.41,48.54-136.41a166,166,0,0,0-15.7-17.67C2751.84,1733.56,2650.53,1675.1,2647.08,1674.11Z"/><path class="cls-14" d="M2341.84,1539.56a116.23,116.23,0,0,0-9.08-7.28,11.75,11.75,0,0,0-10.32-1.74l-6.35,1.9a11.7,11.7,0,0,0-7.46,6.65c-1.34,3.05-3.05,7.15-4.6,11.2-2.39,6.15-4.45,12.22-4.29,14.42.31,3.74,7.43,16.08,11.25,22.49a11.71,11.71,0,0,0,6.81,5.28l8.53,2.52a33.34,33.34,0,0,0,20.11-.34,11.82,11.82,0,0,0,7.5-7.49c2.52-7.5,5.91-20.81,2.11-30.1C2353.56,1550.94,2347.63,1544.63,2341.84,1539.56Z"/><path class="cls-12" d="M2021.08,1496s.76-18.71-13-9.16-13.39,49.58-13.39,49.58l-9.52-.71-58-8.4s-44.66,16.79-50.39,26,29,94.68,29,94.68l24.4,34.06,22.94-47,37.42-33.6,10.69-25.2,25.19-32.83-.76-15.27Z"/><path class="cls-16" d="M2052.16,1373l-6.38-26.24s-23.07-18.32-38.18-23.11c-6-1.89-14.43-2.39-22.42-2.17-12.1.34-23.39,2.33-24.57,3.76-2,2.39-32.22,22.7-31.84,37.44h-19.1l4,44.56,27,.81,9.58,23.07,3.17,10.35-61.1,162.85a2.27,2.27,0,0,0-.22.53l8,2.36,33.33,9.77,1.31-2.18L2049.76,1424h15.14l-.8-18.32.8-24.69Z"/><path class="cls-17" d="M1988.34,1351.57a35.61,35.61,0,1,0,8.16,66.86h0a35.53,35.53,0,0,0-8.19-66.86Z"/><path class="cls-14" d="M1968.18,1379.83c1.14-13.19,11.49-22.63,20.16-28.26a35.61,35.61,0,1,0,8.16,66.86C1977.56,1413.68,1966.54,1398.57,1968.18,1379.83Z"/><path class="cls-18" d="M2034.25,1351.56c-3.29,0-6,4.1-6,9.16s2.68,9.15,6,9.15,6-4.1,6-9.15S2037.55,1351.56,2034.25,1351.56Z"/><path class="cls-18" d="M2039.43,1380.62c-3.3,0-6,4.1-6,9.15s2.67,9.16,6,9.16,6-4.1,6-9.16S2042.72,1380.62,2039.43,1380.62Z"/><polygon class="cls-14" points="1926.37 1607.47 1934.83 1614.84 2049.76 1424.01 2051.53 1424.01 2049.2 1402.17 1926.37 1607.47"/><path class="cls-17" d="M1928.77,1362.72h-19.1l4,44.56,27,.81,9.58,23.07,3.17,10.35-61.1,162.85a2.27,2.27,0,0,0-.22.53c-.81,2.74,1.4,6,5.53,8.93l2.52-6.57,2.61-6.93,60.27-158-20-43.69-23.19-.52-1.09-27.49,13.49-1.09,11.06-19.42,21.84-18.89,20-9.7v0c-12.1.34-23.39,2.33-24.57,3.76C1958.62,1327.67,1928.39,1348,1928.77,1362.72Z"/><path class="cls-14" d="M1926.59,1607.13a46.66,46.66,0,0,0-23.79-6.81c-5.31.06-9.26,1.46-10.44,4a2.27,2.27,0,0,0-.22.53c-.81,2.74,1.4,6,5.53,8.93a41.58,41.58,0,0,0,12.6,5.9c11.44,3.33,21.86,2.12,23.25-2.7a5,5,0,0,0-.59-3.83A18,18,0,0,0,1926.59,1607.13Z"/><path class="cls-19" d="M2182,1850.36l-18.74,5.75-16.65,25.53s40.29,126.73,93.37,147.15C2239.93,2028.79,2191.34,2006.33,2182,1850.36Z"/><path class="cls-19" d="M2228.49,1832l-24.5,10.21s3.68,89.83,71.05,129.43C2275,1971.62,2217.06,1924.67,2228.49,1832Z"/><path class="cls-19" d="M2284.18,1798.41l-8.88,31.07-18.87-10s35.76,68.84,81.49,81.91C2337.92,1901.4,2289.23,1855.47,2284.18,1798.41Z"/><path class="cls-19" d="M2391,1927.12s86.15,11.43,101.26,7.35c10.78-2.92,37.78-39.52,52.36-60.24C2526.22,1896.89,2479.9,1937.89,2391,1927.12Z"/><path class="cls-19" d="M2544.62,1874.23a91.79,91.79,0,0,0,9.7-14.07S2550.47,1865.92,2544.62,1874.23Z"/><path class="cls-19" d="M2292.19,2012.86s57.57,75.13,75.13,64.52,49.4-69,49.4-69C2322.4,2044.71,2292.19,2012.86,2292.19,2012.86Z"/><path class="cls-19" d="M2586.28,1949.82c-5.89,42.89-132,398.64-132,398.64s153.91-349,175.77-397.8-29.43-164.83-32.8-169C2597.21,1781.62,2592.17,1906.93,2586.28,1949.82Z"/><path class="cls-19" d="M2683,2322.93c1.6,81.57-83.71,139.16-83.71,139.16s88.51-56.52,109.83-86.91-22.39-277.79-22.39-277.79C2696.83,2188.56,2683,2322.93,2683,2322.93Z"/><path class="cls-19" d="M2781.87,1817.5c-8.69,10.37-14.08,23-19.84,35.26s-12,24.26-18.68,36q-7.29,12.78-15.28,25.15c-.31.48-16.05-9.74-17.48-10.7q-8.57-5.82-16.56-12.42a222.62,222.62,0,0,1-29.29-29.2q-6.61-8-12.47-16.52-2.92-4.27-5.64-8.68c-.47-.77-2-3.88-2.21-1.57-.17,1.68.5,3.81.87,5.44,2.05,9.09,6.77,17.33,11.84,25,17.29,26.29,39.59,48.84,62,71a10.18,10.18,0,0,0,3.25,2.45,10.32,10.32,0,0,0,4.5.37l41.87-2.77-12.76-8a6.84,6.84,0,0,1-2.66-2.42,6.68,6.68,0,0,1-.47-3.11c.74-47.71,26.71-93.12,64-122.84C2803.35,1799.2,2790.57,1807.14,2781.87,1817.5Z"/><path class="cls-19" d="M2323.28,2470.85c-40.69-46.82-102.56-288.73-102.56-288.73L2287.5,2522,2631,2504.3S2364,2517.67,2323.28,2470.85Z"/><polygon class="cls-12" points="2205.47 1640.92 2213.88 1622.16 2196.41 1617.63 2205.47 1640.92"/><polygon class="cls-12" points="2407.32 1552.94 2422.2 1556.17 2411.2 1535.47 2407.32 1552.94"/><polygon class="cls-12" points="2319.17 1467.53 2271 1488.29 2226.16 1527.32 2190.86 1561.37 2196.26 1578.82 2280.14 1542.27 2292.6 1496.59 2313.36 1490.78 2346.58 1518.19 2392.62 1510.93 2387.83 1478.94 2319.17 1467.53"/><path class="cls-14" d="M2199.65,1488.89l12.39,75.35,53.27-24.42,20-48.83,28.85-10,32.18,26.64s47.17-4.44,56.6-8.88,11.66-42.17,5.55-89.89S2199.65,1488.89,2199.65,1488.89Z"/><path class="cls-18" d="M2377.13,1337s-55.56-.37-117.85,16.82c-9,2.49-18.19,5.35-27.36,8.65-29.6,10.6-59.14,25.65-83.59,47-2.64,2.3-5.19,4.67-7.71,7.12,0,0,6.25,75.78,47.05,82.07,35,5.38,73.79-19.84,106.6-29.67,27.17-8.12,54.16-16.88,81-26.09,20.37-7,28.27-7.4,31.25-12.56,2.33-4,1.77-10.64,1.77-25.19Z"/><polygon class="cls-16" points="2140.62 1416.54 2144.34 1489.88 2193.3 1573.71 2212.04 1564.24 2202.89 1498.92 2140.62 1416.54"/><path class="cls-20" d="M2377.13,1337s-55.56-.37-117.85,16.82l-27.36,8.65c-29.6,10.6-59.14,25.65-83.59,47l258.19,20.87c2.33-4,1.77-10.64,1.77-25.19Z"/><path class="cls-21" d="M2368,1346.21c-8.35-2.39-41,4.57-41,4.57,41.55-3.78,58.45,23.06,58.45,23.06S2376.35,1348.59,2368,1346.21Z"/><path class="cls-21" d="M2388,1380.91c-1,.33-.38,5.44,1.49,11.42s4.26,10.56,5.31,10.23.39-5.45-1.49-11.43S2389,1380.58,2388,1380.91Z"/><path class="cls-12" d="M2941.19,1992.25l-57.63-129.41S2915.3,1965.35,2941.19,1992.25Z"/><path class="cls-22" d="M2551.74,1716.49c-20.7,2.67-68.77,92.12-106.82,109.48s-57.41,31.38-38.72,46.73c0,0,104.81,31.38,150.21-44.72S2572.43,1713.82,2551.74,1716.49Z"/><path class="cls-22" d="M2262,1862c-4-17.35-18-19.36-18.7-10.68,0,0,5.34,78.78,32,97.47s56.74-10,48.07-30.71S2266,1879.38,2262,1862Z"/><path class="cls-22" d="M2624.44,2020.28s-62.11,250.34-137.53,316.88-8,184.44,78,21.55c102.67-194.57,63.38-347.31,63.38-347.31Z"/><path class="cls-22" d="M2674.12,1954.93c-15.83,3.18-28.73,30.68-23.22,58.15s1.8,48.09,17.63,44.92,39-30.92,33.51-58.39S2689.94,1951.76,2674.12,1954.93Z"/><path class="cls-23" d="M2558.8,1680.48c14.39,24.35,35.76,48.51,62.81,69.28,65.64,50.35,142,63.22,179.58,32.65-49.35-48.85-150.66-107.31-154.11-108.3C2645.09,1673.52,2601,1677,2558.8,1680.48Z"/><path class="cls-16" d="M2689.93,1627.34c-2.62-12,12.53-27.14,12.53-27.14l10.45-11.51-27-25.19-11.72,12.25-44.71-2.83a34,34,0,0,0-18.88,4.36l-4.63,2.61-10.08,5.66s-10.69,14.89-18.65,28.33c-4.64,7.77-8.31,15-8.49,18.69-.53,9.92,8.33,43.87,8.33,43.87l4.2,8.37-9.42,10.44,34.11,25.41,16-19.12,16.73-3.14L2840.49,1826l6.87-7.12,20.09-20.83,6.37-6.63-175.53-144.19A56.89,56.89,0,0,1,2689.93,1627.34Z"/><path class="cls-17" d="M2667.88,1610.17c-2.94-2.56-6.83-3.67-11.27-3.44-9.8.38-22.13,7.19-32.18,18.65-12.55,14.33-17.41,31.24-12.58,41a13.49,13.49,0,0,0,3.17,4.13c9.41,8.22,28.87,1.42,43.45-15.24S2677.27,1618.39,2667.88,1610.17Z"/><path class="cls-14" d="M2667.88,1610.17c-2.94-2.56-6.83-3.67-11.27-3.44.69,11.27-1.86,27.09-16.58,42.06-9.82,10-19.65,15.1-28.18,17.55a13.49,13.49,0,0,0,3.17,4.13c9.41,8.22,28.87,1.42,43.45-15.24S2677.27,1618.39,2667.88,1610.17Z"/><path class="cls-18" d="M2633.57,1584.69a6.93,6.93,0,1,0,7.11,6.93A7,7,0,0,0,2633.57,1584.69Z"/><path class="cls-18" d="M2660.49,1585.94a6.93,6.93,0,1,0,7.11,6.93A7,7,0,0,0,2660.49,1585.94Z"/><path class="cls-14" d="M2616,1695.22l-12,15.18-21-16.08,7.15-7.15-3.58-7.12-8.92-48.23-.4-17.94c-4.64,7.77-8.31,15-8.49,18.69-.53,9.92,8.33,43.87,8.33,43.87l4.2,8.37-9.42,10.44,34.11,25.41,16-19.12,16.73-3.14L2840.49,1826l6.87-7.12L2641,1691.21Z"/><path class="cls-17" d="M2689.93,1627.34c-2.62-12,12.53-27.14,12.53-27.14l10.45-11.51-27-25.19-11.72,12.25-44.71-2.83a34,34,0,0,0-18.88,4.36l-14.93,8.21,31.91-7.63,46.1,3.83,12.73-10.76,18.5,16.42-13.86,16.45s-15.14,15.09,1,45.13l92.47,76.64,82.9,72.46,6.37-6.63-175.53-144.19A56.89,56.89,0,0,1,2689.93,1627.34Z"/><path class="cls-14" d="M2848.75,1800.06c-9.56,9.56-14.06,20.57-10.05,24.58s15-.49,24.58-10.05,13.95-19.38,9.94-23.39S2858.31,1790.5,2848.75,1800.06Z"/><path class="cls-11" d="M2879.74,1722.73l-58.26-60.85-59.56-14.24-46.61,3.88-50.49,60.85s4.43,23.33,19.7,15.47l42.57-47.2,28.7,1.85-32.4,19.43-.92,59.23,23.13,25,23.14,20.36h26.84l10.18-6.48,2.78-37,24.09-1.89,12.93,7.45,30.54,37,4.63,44.42,3.7,15.73-81.35-54.16s-16,11.54-31.8,41c-5.42,10.1-9.36,19.47-14.4,33.67-3.8,10.68-4.87,20-4,39.79l196.79,130.76s73.8.65,81.57-1.29,22-33.66,22-33.66l2.59-41.43-113.93-180Z"/><path class="cls-24" d="M2928.65,1818.38c-10.59,8.58,16.29,49.7,43.53,95.91s51.6,91.58,62.19,83-17.11-66.55-50.93-108.3S2939.24,1809.81,2928.65,1818.38Z"/><path class="cls-12" d="M2884.43,1865.74l-8.66-5.53.35-.12-73-48.52s-56.36,46.54-50.22,114.43l15.49,10.49s5.17-53.13,20.6-83.74a26.52,26.52,0,0,1,33.41-12.51c14,5.52,32.55,14.09,41.51,23.47,6.75,59,56.26,105.71,56.26,105.71C2897.42,1937,2883.37,1866.18,2884.43,1865.74Z"/><path class="cls-11" d="M2091,1929.69l-122.93,53.22c-2.82-41.58-12.49-83.22-20.6-124-11.56-58.14-10.29-118.82-17.29-176.89-2.63-21.77-21.77-49.91-23.27-68.29s-23.26-51.78-23.26-51.78l28.52-15.76,23.26,12,3,18.76,13.51,9,12-4.5h10.5l6.75-5.25,6-21.77,6-9.75,1.5-8.26-6.75-36.77-10.51-26.26-34.52-7.51,9.76-14.25h21.76l16.51-10.51s9-12.38,4.5-15.76-72,15.76-72,15.76l-7.21,15.7-36.59,39.29-37.94,46.07,4.07,138.21s-6.1,393.62,23,422.75,130.08,25.74,130.08,25.74l189.87-87.42s-13-59.59-34.05-83.3S2091,1929.69,2091,1929.69Z"/><path class="cls-24" d="M1874.88,1668.2c-18,3-14,68.65-12.91,140.5s-.65,140.8,17.36,137.84,24.2-88.8,12.52-159.81S1892.89,1665.24,1874.88,1668.2Z"/><path class="cls-24" d="M1880.09,1983.12c-7,.61-10.77,23.32-8.37,50.71s10,49.1,17.06,48.49,10.77-23.32,8.37-50.72S1887.12,1982.5,1880.09,1983.12Z"/><path class="cls-12" d="M2133.16,1942.72s-31.43-18.5-52-10.39l-113.1,50.58,2.13,37-1.61,45.49a154.46,154.46,0,0,0,4.84-18.77c2.07-12,1.63-24.5.36-35.28l109.76-47.28c23.35-10.06,50.79-4,67.08,15.5l.43.51c27.36,33.19,37.67,61.35,37.67,61.35S2175.07,1955.29,2133.16,1942.72Z"/><path class="cls-25" d="M2322.44,1530.54l-6.35,1.9a11.7,11.7,0,0,0-7.46,6.65c-1.34,3.05-3.05,7.15-4.6,11.2a40.2,40.2,0,0,0,9.7,1.18,38.4,38.4,0,0,0,28.11-11.91,116.23,116.23,0,0,0-9.08-7.28A11.75,11.75,0,0,0,2322.44,1530.54Z"/><path class="cls-19" d="M2481.87,1687c-.53,0-.84.07-.84.07,31.09,73.78-159.24,129.54-165.34,117.88s-2.7-32.19-2.7-32.19-20.44,22-1.34,43.54,177.43-39.8,190.89-86.57C2514.7,1687.29,2487.15,1686.7,2481.87,1687Z"/><path class="cls-25" d="M2683.87,1430.2l-.45-1.13c-.18-.35-.38-.67-.57-1s-.4-.67-.61-1l-.68-.84a22.6,22.6,0,0,0-6.08-4.94,59.26,59.26,0,0,0-12.9-5.26c-4.29-1.29-8.62-2.31-13-3.23s-8.72-1.6-13.1-2.18-8.76-1-13.14-1.35c-8.75-.68-17.48-1.11-26.18-1.39s-17.4-.6-26.12-.74c-17.43-.22-35,.06-52.24,2.42a480.78,480.78,0,0,1,52.06,1.59c8.66.63,17.32,1.36,26,2.09s17.3,1.38,25.87,2.39a253.54,253.54,0,0,1,25.34,4.2c4.15,1,8.26,2,12.28,3.34a52.73,52.73,0,0,1,11.12,4.78,16.32,16.32,0,0,1,4,3.27l.34.42a4.64,4.64,0,0,1,.25.42c.07.14.17.27.24.4s.08.26.13.39a3,3,0,0,1,.19.73c.06.12,0,.25,0,.36a2.29,2.29,0,0,1,0,.37,7.37,7.37,0,0,1-1.9,3.59,22.72,22.72,0,0,1-4.15,3.6,51.59,51.59,0,0,1-10.73,5.48,75.13,75.13,0,0,1-11.87,3.48c-8.36,1.73-16.92,3.21-25.43,4.48s-17.11,2.26-25.71,3.18-17.22,1.64-25.87,2.28l-26,1.79c-34.67,2.22-69.4,3.78-104.2,5.47,34.8,1.73,69.66,2,104.5.94l13.06-.41,13.07-.6c8.71-.44,17.44-1,26.16-1.72a485.16,485.16,0,0,0,52.1-7.37,82.85,82.85,0,0,0,13.12-4,59.36,59.36,0,0,0,12.39-6.47,30.3,30.3,0,0,0,5.61-5,13.82,13.82,0,0,0,1.24-1.62l.58-.87c.19-.3.35-.65.52-1s.34-.66.49-1l.38-1.11a12,12,0,0,0,.51-2.37,13.37,13.37,0,0,0,0-2.53A10.72,10.72,0,0,0,2683.87,1430.2Z"/><path class="cls-25" d="M2596.17,1475.29c-14,1.53-28.05,2.79-42.14,4s-28.22,2.29-42.44,3.57c7.06,1.13,14.18,1.71,21.3,2.2,3.57.24,7.13.38,10.7.49s7.13.16,10.7.18a397.38,397.38,0,0,0,42.78-2.24,326.36,326.36,0,0,0,42.27-7.46c13.86-3.65,27.55-8.3,40.21-15-13.88,3.47-27.65,6.27-41.53,8.63S2610.16,1473.69,2596.17,1475.29Z"/><g class="cls-26"><rect class="cls-27" x="2252.14" y="651.07" width="981" height="545"/></g><rect class="cls-16" x="2078.73" y="492.52" width="624.27" height="317.09"/><g class="cls-28"><rect class="cls-16" x="2841.73" y="753.93" width="460.77" height="234.04"/></g><rect class="cls-16" x="2395.82" y="968.16" width="243.86" height="123.86"/><rect class="cls-16" x="2841.3" y="395.58" width="129.1" height="129.1"/><rect class="cls-17" x="3386.75" y="618.28" width="83.92" height="83.92"/><rect class="cls-16" x="1980.64" y="976.11" width="122.65" height="122.65"/><rect class="cls-17" x="1821.01" y="697.03" width="67.78" height="67.78"/><rect class="cls-17" x="1771.89" y="1202.06" width="67.78" height="67.78"/><rect class="cls-17" x="2976.02" y="1374.87" width="53.25" height="53.25"/><rect class="cls-17" x="2409.99" y="866.97" width="34.63" height="34.63"/><rect class="cls-17" x="2767.28" y="1086.36" width="34.63" height="34.63"/><rect class="cls-17" x="2910.49" y="734.52" width="34.63" height="34.63"/><rect class="cls-17" x="2595.62" y="922.83" width="66.76" height="66.76"/><rect class="cls-16" x="3285.89" y="285.04" width="53.25" height="53.25"/><rect class="cls-17" x="2252.28" y="337.49" width="53.25" height="53.25"/><rect class="cls-17" x="2645.5" y="1298.13" width="77.28" height="77.28"/><path class="cls-16" d="M2290,1169.61H3195V675.81H2290Zm2.77-491H3192.2v488.27H2292.79Z"/><polygon class="cls-17" points="2215.32 1128.08 2209.83 1128.08 2209.83 1230.69 2372.37 1230.69 2372.37 1225.21 2215.32 1225.21 2215.32 1128.08"/><polygon class="cls-16" points="3140.32 604.74 3269.36 604.74 3269.36 703.82 3277.59 703.82 3277.59 596.51 3140.32 596.51 3140.32 604.74"/><path class="cls-16" d="M2742.76,1047.19h390.92V857.52H2742.76ZM2748.25,863h379.94v178.7H2748.25Z"/><path class="cls-17" d="M2355.32,741.58h435.22v-307H2355.32ZM2360.8,440h424.26V736.09H2360.8Z"/><rect class="cls-2" x="3070.1" y="1560.39" width="102.06" height="102.06"/><rect class="cls-17" x="1377.57" y="1422.27" width="102.06" height="102.06"/><rect class="cls-2" x="964.95" y="2228.99" width="102.06" height="102.06"/><rect class="cls-17" x="1123.4" y="2524.56" width="55.13" height="55.13"/><rect class="cls-2" x="2177.08" y="2732.9" width="102.06" height="102.06"/><rect class="cls-17" x="3612.98" y="2343.45" width="102.06" height="102.06"/><rect class="cls-17" x="2458.65" y="2640.14" width="44.82" height="44.82"/><rect class="cls-2" x="3530.7" y="2157.9" width="37.25" height="37.25"/><rect class="cls-2" x="1368.81" y="2779.12" width="44.82" height="44.82"/><rect class="cls-2" x="2709.86" y="2770.87" width="29.18" height="29.18"/><rect class="cls-2" x="3254.67" y="1344.77" width="71.01" height="71.01"/><rect class="cls-17" x="3401.97" y="1697.03" width="60.35" height="60.35"/><rect class="cls-2" x="1200.7" y="1742.99" width="34.7" height="34.7"/><rect class="cls-17" x="1255.73" y="1987.74" width="34.7" height="34.7"/><polygon class="cls-13" points="2810.67 1551.6 2786.04 1562.12 2763.41 1547.8 2765.81 1574.47 2745.19 1591.57 2771.3 1597.53 2781.19 1622.42 2794.93 1599.43 2821.65 1597.72 2804.04 1577.55 2810.67 1551.6"/><polygon class="cls-13" points="2540.86 1555.95 2528.95 1561.04 2518.01 1554.11 2519.16 1567.01 2509.2 1575.28 2521.82 1578.16 2526.6 1590.2 2533.25 1579.08 2546.17 1578.26 2537.65 1568.5 2540.86 1555.95"/><polygon class="cls-13" points="2078.96 1469.86 2069.49 1473.91 2060.8 1468.4 2061.72 1478.65 2053.8 1485.22 2063.83 1487.51 2067.63 1497.07 2072.91 1488.24 2083.18 1487.58 2076.41 1479.83 2078.96 1469.86"/><polygon class="cls-13" points="2075.52 1263.79 2057.75 1271.38 2041.42 1261.05 2043.15 1280.29 2028.28 1292.63 2047.12 1296.93 2054.25 1314.89 2064.17 1298.3 2083.45 1297.07 2070.74 1282.51 2075.52 1263.79"/><polygon class="cls-13" points="1887.37 1431.67 1875.46 1436.76 1864.52 1429.83 1865.68 1442.73 1855.71 1451 1868.33 1453.88 1873.12 1465.92 1879.76 1454.8 1892.69 1453.98 1884.17 1444.22 1887.37 1431.67"/><polygon class="cls-13" points="2677.17 1503.63 2659.58 1511.14 2643.42 1500.91 2645.13 1519.96 2630.41 1532.17 2649.05 1536.43 2656.11 1554.2 2665.93 1537.79 2685.01 1536.56 2672.43 1522.16 2677.17 1503.63"/><path class="cls-25" d="M2385.57,2119.21c-148.19,91.79-276.33,162.17-380.87,209.2-130,58.47-223.21,80.72-277.08,66.11-28.12-7.62-48.07-25.35-59.3-52.69-17.07-41.51-14.91-105.91,6.4-191.41,17.17-68.87,46.73-151.33,87.86-245.09,70.1-159.81,150.56-298.8,151.37-300.19l-7.12-4.13c-.8,1.39-81.47,140.72-151.76,301-41.32,94.2-71,177.11-88.32,246.44-21.75,87.25-23.79,153.38-6,196.56,12.25,29.83,34,49.17,64.76,57.5q16.89,4.58,38.55,4.57c57.09,0,138.9-23.82,244.07-71.13,104.88-47.18,233.35-117.74,381.86-209.72,252.73-156.54,479-323.2,481.26-324.86l-4.88-6.62C2864.07,1796.36,2638,1962.84,2385.57,2119.21Z"/></g></svg>