<svg id="Layer_1" data-name="Layer 1" xmlns="http://www.w3.org/2000/svg" viewBox="0 0 3500 3000"><defs><style>.cls-1{fill:#fff;}.cls-2{fill:#e9fbff;}.cls-3{fill:#7a6640;}.cls-4{fill:#aa8d5e;}.cls-5{fill:#f7d895;}.cls-6{fill:#b18b36;}.cls-7{fill:#f3e4cd;}.cls-8{fill:#fa6142;}.cls-9{fill:#ffba55;}.cls-10{fill:#f0f0ff;}.cls-11,.cls-15{fill:#d35b47;}.cls-11,.cls-12{opacity:0.5;}.cls-13{fill:#abbd43;}.cls-14{fill:#6c8335;}.cls-16{fill:#e37961;}.cls-17{fill:#123a53;}.cls-18{fill:#ffad95;}</style></defs><rect class="cls-1" width="3500" height="3000"/><path class="cls-2" d="M3160.12,1794.0236c-18.81-80.35-61.4395-155.31-90.1-232.43-2.1006-.27-4.21-.47-6.3-.63a400.0588,400.0588,0,0,0-180.21,27.59c-10.49,4.23-21.19,8.98-32.5,8.98-21.5-.02-42.1806-17.18-62.6806-10.71-14.35,4.53-22.66,18.95-32.88,30-25.21,27.25-69.04,35.08-102.13,18.25-2.58-31.81.84-73.1,31.38-82.35,16.51-5,34.21,2.5,51.4,1.14,38.41-3.02,58.89-45.71,89.6494-68.92,31.8408-24.03,74.71-26.44,114.58-25.01a824.7536,824.7536,0,0,1,104.8505,10.52,300.9842,300.9842,0,0,1-3.4707-52.82c1.7-68.3,29.0909-133.94,32.5508-202.04-.5107.08-1.0205.16-1.53.21-14.65,1.56-28.61-6.16-40.68-14.6-12.07-8.45-23.95-18.13-38.3106-21.42-27.79-6.36-54.14,12.56-79.01,26.49-24.86,13.92-60.67,21.52-78.3105-.87-15.6-19.8-5.81-49.87-16.09-72.88-11.34-25.39-43.9493-34.4-71.4395-30.25s-52.49,17.95-79.16,25.78c-48.87,14.36-101.49,8.16-150.95-4-9.49-2.33-19.81-4.82-28.71-.81-8.29,3.73-13.29,12.2-20.38,17.89-7.1,5.68-19.73,7.18-23.66-1.02q16.6347-33.39,33.27-66.8c3.05-6.11,6.2793-12.45,11.72-16.57,7.38-5.58,17.32-6.03,26.56-5.9a362.8676,362.8676,0,0,1,98.3505,15.04c37.1495,11.06,83.9893,25.6,109.29-3.77,8.29-9.62,12.75-23.03,23.75-29.37,6.83-3.93,15.05-4.4,22.93-4.55,111.04-2,221.75,44.96,298.79,124.7-7.12-45.91-22.88-90.83-38.48-134.88-19.3994-54.74-40.2793-111.79-83.06-151.07-30.27-27.79-67.4-43.35-107.27-54.05-10.2207,23.92-43.83,27.74-70.6709,27.09q-59.5649-1.455-119.13-2.9c-10.3-.25-20.83-.55-30.47-4.18-12.14-4.59-21.76-14.04-33.19-20.18-24.9893-13.4-55.3-9.62-83.34-5.47q-55.62,8.205-111.22,16.42c-1.38-34.63,36.29-58.69,70.7705-62.25,34.47-3.56,69.55,5.46,103.7793.08a125.3826,125.3826,0,0,0,36.7-11.81,197.3179,197.3179,0,0,1-32.91-23.92c-37.88-34.18-58.88-81.78-82-127.81a118.07,118.07,0,0,1-58.64-7.98c-35.6406-14.84-62.13-46.28-97.19-62.44a128.0714,128.0714,0,0,0-72.09-10.27c-21.51,3.22-43.68,11.9-64.3,4.93-11.08-3.74-20.36-11.71-31.45-15.46-9.2-3.11-19.14-3.14-28.85-2.77a384.8415,384.8415,0,0,0-151.2,37.38c4.96-37.46,41.3-61.39,74.07-80.22,29.68-17.06,60.1-34.4,93.75-40.7,30.1992-5.65,61.3-2.08,91.6992,2.38,43.3808,6.37,86.62,14.54,128.86,26.16-75.05-62.13-170.88-99.56-268.42-101.11-35.59-.57-72.28,3.63-103.53,20.68-48.1,26.24-75.45,77.75-107.34,122.31-38.37,53.62-88.65,101.42-151.06,122.71s-138.12,11.34-183.83-36.19c-46.12-47.94-54.24-122.58-98.04-172.65-62.38-71.29-171.82-69.52-266.25-62.02-40.01,3.18-82.13,7.07-115.09,29.98-19.7305,13.71-34.2,32.88-45.5508,54.21,14.6806,8.29,33.6806,10.77,50.7,8.2,27.49-4.15,52.49-17.95,79.17-25.78,48.87-14.35,101.49-8.15,150.95,4.01,9.4805,2.33,19.8,4.81,28.71.81,8.29-3.73,13.29-12.21,20.38-17.89,7.09-5.69,19.7207-7.18,23.66,1.01q-16.6348,33.405-33.28,66.8c-3.04,6.11-6.27,12.45-11.72,16.58-7.37,5.58-17.31,6.03-26.56,5.9a363.2523,363.2523,0,0,1-98.3408-15.04c-37.1494-11.06-84-25.6-109.2891,3.76-8.29,9.63-12.75,23.04-23.7607,29.38-6.8193,3.93-15.05,4.4-22.92,4.54a387.3166,387.3166,0,0,1-58.28-3.39c-23.6494,75.64-39.7793,154.54-65.56,228.88,18.58-2.56,37.19-5.28,55.78-6.16,66.33-3.13,131.47,17.33,197.75,21.54,34.01,2.16,68.42.05,101.97,6.05,33.55,5.99,67.41,21.72,85.21,50.78-17.72,22.97-52.0195,24.81-80.1895,17.91-28.1709-6.91-55.1308-20.46-84.12-21.12-27.5508-.63-53.81,10.45-80.61,16.87-66.1,15.83-135.58,3.14-201.21-14.53-6.9-1.86-13.93-3.76-21.03-5.52a487.2477,487.2477,0,0,1-32.47,58.89c-71.35,109.88-195.42,183.78-326.03,194.17-44.88,3.57-90.55.12-134.55,9.67-44.01,9.56-88.12,35.84-102.48,78.52-7.96,23.67-5.9,49.46-2.49,74.2,6.72,48.77,18.31,97.04,29.18,145.29a822.3593,822.3593,0,0,1,89.74-8.16c39.86-1.43,82.74.98,114.58,25.01,30.76,23.21,51.24,65.9,89.65,68.93,17.19,1.35,34.89-6.15,51.39-1.15,30.54,9.25,33.97,50.54,31.38,82.35-33.08,16.83-76.92,9-102.13-18.25-10.22-11.05-18.52-25.47-32.87-30-20.5-6.47-41.18,10.69-62.68,10.71-11.32,0-22.01-4.75-32.51-8.98a399.7555,399.7555,0,0,0-128.13-28.25c6.02,37.88,9.42,75.93,7.53,114.39-1.7,34.43-7.63,68.54-15,102.49q69.51-10.725,139.03-21.44c17.83-2.75,36.9-5.34,53.23,2.32,29.62,13.88,35.61,52.74,54.53,79.42,4.01,5.65,9.16,11.11,15.94,12.54,8.03,1.69,15.94-2.67,23.14-6.61,85.25-46.72,190.9-54.47,282.05-20.69,26.39,9.79,51.52,22.82,78.2,31.8,69.3193,23.35,144.58,18.09,217.51,12.56,45.43-3.44,92.21-7.25,132.89-27.75,10.8008-5.45,23.37-12.14,34.21-6.8,5.87,2.9,9.6308,8.74,12.92,14.39a345.55,345.55,0,0,1,40.1309,105.46c.7695,3.84,1.35,8.27-1.1407,11.3-2.55,3.1-7.1494,3.32-11.17,3.29l-124.6094-1.14c-33.6806-.31-67.75-.66-100.3408-9.15-50.38-13.11-98.23-45.54-149.7793-38.31-18.95,2.66-36.6806,10.62-54.71,17.03-108.81,38.74-237.81,24.63-330.88,93.04-8.7,6.4-17.57,13.71-28.3,14.9-24.12,2.68-38.91-24.5-50.73-45.7-36.27-65.06-108.12-108.77-182.58-111.07-25.49-.79-50.85,2.92-76.23,6.07-10.46,49.98-17.14,100-11.04,150.6,9.4,78.05,48.54,149.13,90.28,215.75q49.6549,79.2426,105.6239,154.2894a197.57,197.57,0,0,0,158.3723,79.5H2790.674a196.79,196.79,0,0,0,111.351-34.3794q22.1366-15.1873,43.2852-31.98C3101.5905,2195.1835,3205.65,1988.4935,3160.12,1794.0236ZM1670.93,1273.2736a123.2309,123.2309,0,0,1-70.8505,19.66c-30.7393-1.07-59.8594-13.59-90.1993-18.62a156.7658,156.7658,0,0,0-51.5507-.39c-14.26,2.41-28.85,7.11-42.87,3.54-14.01-3.57-25.8095-20.35-17.96-32.5,5.62-8.68,17.5107-10.11,27.8408-10.68q96.419-5.2951,192.85-10.59c2.38-.13,4.87-.24,7.05.73,2.99,1.32,4.77,4.35,6.54,7.1a78.9468,78.9468,0,0,0,46.41,33.41Zm213.46-277.65c-15.9307,6.92-34.5205,4-50.78-2.12-23.47-8.83-44.11-23.8-66.79-34.52-22.6895-10.71-49.51-16.98-72.67-7.34-10.26,4.27-19.16,11.41-29.52,15.43-9.44,3.66-19.6806,4.57-29.7705,5.45q-48.0292,4.17-96.05,8.35c-15.42,1.34-31.77,2.52-45.61-4.43-13.83-6.94-23.18-25.23-15.09-38.43l5.56-9.24c14.6709-28.05,48.5605-40.72,80.1709-42.54s63.1895,4.74,94.8291,3.77a200.6288,200.6288,0,0,0,76.25-17.64c22.9307-10.37,52.87-23.99,69.9609-5.53,3.92,4.24,6.3291,9.63,9.8,14.24,18.68,24.89,59.58,19.6,82.3594,40.81C1918.66,942.0136,1911.49,983.8435,1884.39,995.6235Zm440.9395-296.26c-4.52,9.3-16.1495,12.18-26.3194,14q-95.0552,17.04-190.11,34.07c-2.35.42-4.81.84-7.09.15-3.13-.95-5.2705-3.74-7.36-6.25a78.9432,78.9432,0,0,0-50.1494-27.5l6.1894-9.16a123.1844,123.1844,0,0,1,67.92-28.16c30.6407-2.7,61.07,6.17,91.8,7.45a156.6911,156.6911,0,0,0,51.21-5.91c13.86-4.13,27.7607-10.58,42.11-8.75S2331.64,686.3535,2325.33,699.3635Z"/><path class="cls-3" d="M225.9107,2385.9135H3274.0893s-258.2609,4.6956-288,101.7391-175.3043,70.4348-183.13-9.3913c0,0-463.3044,14.0869-450.7826,42.2609s176.8695,48.5217,158.0869,90.7826-428.8695-25.0435-715.3043-72-488.3479,133.0434-547.8261,14.0869c0,0-569.7391,38.4112-256.6957-48.0987,0,0-513.3913,52.7944-471.13-55.2056C519.3067,2450.0874,542.95,2385.9135,225.9107,2385.9135Zm595.483,167.4782s-338.087-25.0435-399.13,0S608.5241,2619.1308,821.3937,2553.3917ZM1993.7415,2652c-136.1739-62.6087-566.6087-6.2609-566.6087-6.2609C1506.9589,2675.4787,1993.7415,2652,1993.7415,2652Zm957.913-57.913c-61.0435-29.7392-288,0-288,0C2792.0023,2614.4352,2951.6545,2594.0874,2951.6545,2594.0874Z"/><path class="cls-3" d="M877.7167,2254.1036,820.591,2397.8427c-10.4514,26.2974-49.7374,17.1731-47.5288-11.0387l10.3887-132.7Z"/><path class="cls-4" d="M751.9823,2277.2908,694.8565,2421.03c-10.4513,26.2975-49.7374,17.1732-47.5287-11.0387l10.3887-132.7Z"/><path class="cls-3" d="M1780.0778,2242.51l55.8546,149.2957c9.9614,26.6262,49.63,18.0687,47.7289-10.2962l-9.3177-138.9995Z"/><path class="cls-4" d="M1674.6211,2268.9871l55.8545,149.2957c9.9614,26.6262,49.63,18.0687,47.729-10.2962l-9.3177-139Z"/><path class="cls-5" d="M2752.7862,1179.4921s131.8547-84.7755,245.3412,201.51,150.2065,1062.1923-430.8936,1062.1274-575.7353-378.1215-541.73-473.1332,426.951-56.6272,528.4992-241.9772S2566.6752,1300.1936,2752.7862,1179.4921Z"/><path class="cls-6" d="M2916,1590s-88.5986-37.769-48.0635-136.6479c0,0-88.0986-32.9634-36.0547-110.2144,24.8809-46.8618,22.6836-75.1934,22.6836-75.1934-4.4345-125.0542-132.3174-65.5156-132.32-65.5141-145.6064,126.5771-72.7695,351.3281-168.2412,525.5888-101.5488,185.35-494.4932,146.9659-528.5,241.9771-15.8965,44.4145-25.5264,150.6807,28.0781,251.2734C2077.3145,2147.2363,2153.3711,2049.314,2263,2136c157.9268,124.875,373.8516,115.9316,459,56s127.584-285.8071,236-319C2958,1873,2891.4521,1747.9619,2916,1590Z"/><path class="cls-3" d="M2614.9619,2334.13a2.0006,2.0006,0,0,1-.6172-3.9033c143.1348-46.4444,246.0205-131.2745,305.7989-252.1348,69.37-140.2539,67.6425-304.8438,53.9785-418.2207-14.82-122.9649-46.4893-213.8867-46.8076-214.791a2,2,0,1,1,3.7734-1.3281c.3193.9072,32.1123,92.166,46.9932,215.5419,8.7421,72.4776,10.0293,141.7149,3.8261,205.7881-7.7607,80.1543-27.332,152.4121-58.1709,214.7676-60.2724,121.8711-163.9521,207.3906-308.1572,254.1816A2,2,0,0,1,2614.9619,2334.13Z"/><path class="cls-3" d="M2916.0381,1508.2578a2,2,0,0,1-1.1231-3.6562c1.1993-.8116,29.7852-19.8125,65.3672-14.4219a2,2,0,1,1-.6,3.9551c-33.9971-5.1534-62.2461,13.59-62.5264,13.78A1.9944,1.9944,0,0,1,2916.0381,1508.2578Z"/><path class="cls-3" d="M2920.3076,1530.6709a2.0005,2.0005,0,0,1-1.123-3.6563c1.1992-.8115,29.7861-19.8134,65.3662-14.4218a2,2,0,0,1-.6,3.9551c-34.001-5.1543-62.2451,13.59-62.5254,13.78A1.9947,1.9947,0,0,1,2920.3076,1530.6709Z"/><path class="cls-3" d="M2683.2715,2361.8789c-.0264,0-.0527-.001-.0791-.0019a1.9989,1.9989,0,0,1-1.92-2.0762c2.0625-52.6328-27.5752-75.4024-27.875-75.626a2,2,0,0,1,2.3867-3.21c1.2929.959,31.6347,24.1358,29.4844,78.9922A2,2,0,0,1,2683.2715,2361.8789Z"/><path class="cls-3" d="M2709.9541,2344.8027c-.0264,0-.0527-.0009-.0791-.0019a1.9989,1.9989,0,0,1-1.92-2.0762c2.0635-52.6338-27.5752-75.4033-27.875-75.6269a2,2,0,0,1,2.3867-3.21c1.293.959,31.6357,24.1357,29.4844,78.9932A2,2,0,0,1,2709.9541,2344.8027Z"/><rect class="cls-7" x="637.0169" y="613.2935" width="1302.3022" height="778.9917" rx="29.7391" transform="translate(15.0119 -18.9918) rotate(0.8497)"/><path class="cls-8" d="M1899.627,622.319,688.2605,604.3538a45.4018,45.4018,0,0,0-46.07,44.7229l-1.84,124.0568,1302.16,19.3117,1.84-124.0567A45.4012,45.4012,0,0,0,1899.627,622.319Z"/><rect class="cls-8" x="731.2017" y="1266.2705" width="405.6684" height="84.8577" rx="11.991" transform="translate(21.4371 -15.038) rotate(0.9332)"/><path class="cls-9" d="M863.6428,1279.51l5.7888,12.2272a5.1247,5.1247,0,0,0,3.8123,2.8658l13.3543,2.1631a5.1245,5.1245,0,0,1,2.6973,8.786l-9.84,9.2839a5.1244,5.1244,0,0,0-1.5475,4.5112l2.0694,13.3691a5.1245,5.1245,0,0,1-7.5224,5.28l-11.87-6.4895a5.1246,5.1246,0,0,0-4.7687-.0776l-12.0752,6.0994a5.1245,5.1245,0,0,1-7.3465-5.5225l2.5037-13.2947a5.1241,5.1241,0,0,0-1.4-4.5592l-9.5324-9.6a5.1245,5.1245,0,0,1,2.9821-8.6934l13.4176-1.7271a5.1244,5.1244,0,0,0,3.9036-2.74l6.184-12.0322A5.1245,5.1245,0,0,1,863.6428,1279.51Z"/><path class="cls-9" d="M788.1984,1278.2807l5.7888,12.2273a5.1242,5.1242,0,0,0,3.8122,2.8657l13.3543,2.1632a5.1245,5.1245,0,0,1,2.6974,8.7859l-9.84,9.2839a5.1246,5.1246,0,0,0-1.5475,4.5113l2.0695,13.3691a5.1246,5.1246,0,0,1-7.5224,5.28l-11.87-6.4895a5.1244,5.1244,0,0,0-4.7686-.0777l-12.0753,6.1a5.1246,5.1246,0,0,1-7.3465-5.5226l2.5038-13.2946a5.1246,5.1246,0,0,0-1.4-4.5593l-9.5323-9.5994a5.1246,5.1246,0,0,1,2.982-8.6935l13.4177-1.727a5.1243,5.1243,0,0,0,3.9035-2.74l6.184-12.0323A5.1246,5.1246,0,0,1,788.1984,1278.2807Z"/><path class="cls-7" d="M1089.9762,1283.1961l5.7888,12.2272a5.1247,5.1247,0,0,0,3.8123,2.8658l13.3543,2.1631a5.1245,5.1245,0,0,1,2.6973,8.786l-9.84,9.2839a5.1246,5.1246,0,0,0-1.5475,4.5113l2.0694,13.3691a5.1245,5.1245,0,0,1-7.5224,5.28l-11.87-6.49a5.1246,5.1246,0,0,0-4.7687-.0776l-12.0753,6.0994a5.1245,5.1245,0,0,1-7.3464-5.5225l2.5037-13.2946a5.1243,5.1243,0,0,0-1.4-4.5593l-9.5324-9.6a5.1245,5.1245,0,0,1,2.9821-8.6934l13.4176-1.7271a5.1244,5.1244,0,0,0,3.9036-2.74l6.184-12.0322A5.1245,5.1245,0,0,1,1089.9762,1283.1961Z"/><path class="cls-9" d="M1014.5317,1281.9672l5.7889,12.2273a5.1245,5.1245,0,0,0,3.8122,2.8658l13.3543,2.1631a5.1245,5.1245,0,0,1,2.6974,8.7859l-9.84,9.2839a5.1246,5.1246,0,0,0-1.5475,4.5113l2.07,13.3691a5.1246,5.1246,0,0,1-7.5224,5.28l-11.87-6.4895a5.1244,5.1244,0,0,0-4.7686-.0777l-12.0753,6.1a5.1246,5.1246,0,0,1-7.3465-5.5226l2.5038-13.2946a5.1244,5.1244,0,0,0-1.4-4.5592l-9.5323-9.6a5.1245,5.1245,0,0,1,2.982-8.6934l13.4176-1.7271a5.1243,5.1243,0,0,0,3.9036-2.74l6.184-12.0322A5.1245,5.1245,0,0,1,1014.5317,1281.9672Z"/><path class="cls-9" d="M939.0873,1280.7384l5.7888,12.2272a5.1243,5.1243,0,0,0,3.8123,2.8658l13.3542,2.1631a5.1245,5.1245,0,0,1,2.6974,8.786l-9.84,9.2839a5.1245,5.1245,0,0,0-1.5474,4.5113l2.0694,13.3691a5.1245,5.1245,0,0,1-7.5224,5.28l-11.87-6.4894a5.1243,5.1243,0,0,0-4.7687-.0777l-12.0753,6.0994a5.1245,5.1245,0,0,1-7.3464-5.5225l2.5037-13.2946a5.1245,5.1245,0,0,0-1.4-4.5593l-9.5324-9.5994a5.1246,5.1246,0,0,1,2.982-8.6935l13.4177-1.727a5.1247,5.1247,0,0,0,3.9036-2.74l6.1839-12.0322A5.1246,5.1246,0,0,1,939.0873,1280.7384Z"/><rect class="cls-8" x="736.0968" y="828.115" width="405.0008" height="405.0008" rx="29.9775" transform="translate(19.1824 -17.1485) rotate(1.0576)"/><path class="cls-10" d="M896.1707,911.2657c-18.9961,5.3549-80.9407,29.0634-119.9714,117.3968a4.7718,4.7718,0,0,0,2.0834,6.1291l37.3186,20.1844a4.7579,4.7579,0,0,0,5.1151-.3761l17.5329-13.1245a4.7582,4.7582,0,0,1,7.6076,3.9476l-3.7476,128.7632a4.7583,4.7583,0,0,0,4.6684,4.8959l185.7783,3.43a4.7583,4.7583,0,0,0,4.8452-4.67l2.23-120.79a4.7582,4.7582,0,0,1,7.6821-3.6654l16.7078,13.02a4.7582,4.7582,0,0,0,5.7876.0474l30.0682-22.6494a4.7465,4.7465,0,0,0,1.6869-5.1953c-5.312-17.2221-33.9759-98.7527-107.6132-125.3977a4.7749,4.7749,0,0,0-6.1845,3.1565c-3.0057,10.07-13.5,32.17-47.6419,31.5393-30.5026-.5631-36.72-22.267-37.9483-32.6264A4.7459,4.7459,0,0,0,896.1707,911.2657Z"/><circle class="cls-7" cx="1606.7165" cy="702.7201" r="31.9081"/><circle class="cls-7" cx="1822.4534" cy="705.9196" r="31.9081"/><circle class="cls-7" cx="1714.5849" cy="704.3198" r="31.9081"/><path class="cls-11" d="M1934.1447,1356.5015l9.4372-636.368L1137.505,746.6044a45.4013,45.4013,0,0,0-43.8869,46.867l19.58,596.2616,774.8768,11.4917A45.4,45.4,0,0,0,1934.1447,1356.5015Z"/><g class="cls-12"><path class="cls-1" d="M842.0311,606.6341l-208.969,657.9886-1.0764,72.5675a45.4016,45.4016,0,0,0,44.7232,46.07l22.718.3369,246.2653-775.425Z"/><polygon class="cls-1" points="1125.242 611.649 1021.581 610.112 775.315 1385.538 878.976 1387.075 1125.242 611.649"/></g><rect class="cls-7" x="1185.4736" y="802.8459" width="1302.3022" height="778.9917" rx="29.7391" transform="translate(-38.1444 60.9223) rotate(-1.8808)"/><path class="cls-13" d="M2429.2645,783.1745l-1210.847,39.7626a45.4017,45.4017,0,0,0-43.887,46.8669l4.0721,124.0035,1301.6012-42.7429-4.0721-124.0035A45.4011,45.4011,0,0,0,2429.2645,783.1745Z"/><rect class="cls-13" x="1780.6764" y="1282.3068" width="468.5682" height="81.4952" rx="11.991" transform="translate(-40.5977 63.9994) rotate(-1.8015)"/><path class="cls-10" d="M1852.2973,1305.4949a3.5728,3.5728,0,0,1,3.55-3.59l22.6431-.7122q6.5752-.2068,10.2135,3.4425a13.1092,13.1092,0,0,1,3.8121,9.1992,12.8839,12.8839,0,0,1-2.2626,8.0643q-.2293.3249-.4909.6316a3.44,3.44,0,0,0,.6549,5.1652,10.3632,10.3632,0,0,1,2.4028,2.313,14.2157,14.2157,0,0,1,2.5712,8.253,16.08,16.08,0,0,1-1.4138,7.3922,13.1945,13.1945,0,0,1-4.3359,5.2982,13.4027,13.4027,0,0,1-5.281,1.8863,53.46,53.46,0,0,1-6.274.9142l-20.5961.6478a3.5715,3.5715,0,0,1-3.7674-3.36Zm14.6015,13.1936a3.5716,3.5716,0,0,0,3.7673,3.36l2.4516-.0771q3.2868-.1034,4.5338-1.451a5.167,5.167,0,0,0,1.1692-3.8181,4.8481,4.8481,0,0,0-1.3995-3.5405q-1.3278-1.2489-4.522-1.1481l-2.5447.08a3.5729,3.5729,0,0,0-3.55,3.5905Zm.6457,20.6257a3.5716,3.5716,0,0,0,3.7673,3.36l3.5062-.11q3.6284-.1142,5.0712-1.6472a5.3921,5.3921,0,0,0,1.3638-4.04,4.9534,4.9534,0,0,0-1.5908-3.6955q-1.5176-1.3677-5.2085-1.2519l-3.4748.1093a3.5729,3.5729,0,0,0-3.55,3.59Zm65.6262-39.8418,6.7021-.2108a3.5715,3.5715,0,0,1,3.7673,3.36l.87,27.8006a30.0849,30.0849,0,0,1-.981,8.8246,19.6,19.6,0,0,1-3.7129,7.3525,15.77,15.77,0,0,1-5.4932,4.5243,24.9154,24.9154,0,0,1-9.7778,2.063,53.7727,53.7727,0,0,1-7.259-.3089,15.4886,15.4886,0,0,1-11.591-6.2976,17.4376,17.4376,0,0,1-3.1826-5.9536,35.7966,35.7966,0,0,1-1.58-8.8336l-.87-27.8006a3.5729,3.5729,0,0,1,3.55-3.59l6.7021-.2109a3.5717,3.5717,0,0,1,3.7674,3.36l.8935,28.5456a10.0109,10.0109,0,0,0,2.2727,6.6436,7.9974,7.9974,0,0,0,11.4152-.3233,9.9906,9.9906,0,0,0,1.8516-6.8091l-.8936-28.5455A3.573,3.573,0,0,1,1933.1707,1299.4724Zm21.2708-.669,7.133-.2243a3.6826,3.6826,0,0,1,3.3443,1.8393l5.1712,9.2728a3.7482,3.7482,0,0,0,6.5658-.204l4.5933-9.5849a3.684,3.684,0,0,1,3.2215-2.0434l7.0565-.222a3.4825,3.4825,0,0,1,3.3663,5.0505l-13.4717,25.0232a3.3423,3.3423,0,0,0-.4011,1.69l.5515,17.6175a3.5728,3.5728,0,0,1-3.55,3.59l-6.7644.2128a3.5717,3.5717,0,0,1-3.7674-3.36l-.5514-17.6162a3.3415,3.3415,0,0,0-.5073-1.6638l-15.0328-24.1235A3.4833,3.4833,0,0,1,1954.4415,1298.8034Zm72.7394-2.2879,7.3171-.23a3.6958,3.6958,0,0,1,3.2478,1.6769l9.7127,15.355c1.9391,3.0655,6.91,1.6663,6.7975-1.9136l-.3834-12.2489a3.5729,3.5729,0,0,1,3.55-3.5905l5.9269-.1864a3.5715,3.5715,0,0,1,3.7673,3.36l1.4257,45.5446a3.5728,3.5728,0,0,1-3.55,3.59l-7.4433.2342a3.6962,3.6962,0,0,1-3.246-1.6742l-9.6148-15.1687c-1.9411-3.0623-6.9077-1.6619-6.7957,1.9163l.3773,12.0542a3.5728,3.5728,0,0,1-3.55,3.59l-5.8961.1855a3.5716,3.5716,0,0,1-3.7673-3.36l-1.4257-45.5447A3.5729,3.5729,0,0,1,2027.1809,1296.5155Zm48.2171,24.7927q-.4025-12.8547,5.5766-20.2118t17.0521-7.7053q11.352-.3572,17.7135,6.4865t6.7581,19.5192q.288,9.2034-2.21,15.1778a20.975,20.975,0,0,1-7.4674,9.4105,22.8529,22.8529,0,0,1-12.5367,3.6742q-7.6926.2419-12.8209-2.4286a20.653,20.653,0,0,1-8.453-8.6948Q2075.6858,1330.5108,2075.398,1321.3082Zm14.0529-.37q.2488,7.9492,2.9162,11.3424a8.8224,8.8224,0,0,0,13.9748-.3681q2.3751-3.4791,2.1-12.2885-.2321-7.413-2.9291-10.751a8.3514,8.3514,0,0,0-7.1321-3.1985,8.09,8.09,0,0,0-6.7149,3.6879Q2089.1992,1312.9173,2089.4509,1320.9382Zm38.4261-27.59,5.8217-.1831a3.6076,3.6076,0,0,1,3.7073,2.8283l1.65,8.4284c.7376,3.7674,6.4129,3.7761,7.19.011l1.86-9.0131a3.6258,3.6258,0,0,1,3.4829-2.8173l7.4592-.2346a3.6245,3.6245,0,0,1,3.6514,2.59l2.4355,8.9026c1.0138,3.7058,6.6727,3.34,7.1744-.4644l1.1261-8.5371a3.6089,3.6089,0,0,1,3.5229-3.0545l5.7611-.1812a3.534,3.534,0,0,1,3.728,3.9823l-7.27,45.8182a3.6151,3.6151,0,0,1-3.51,2.9684l-7.8085.2456a3.6251,3.6251,0,0,1-3.6506-2.5867l-4.2376-15.427a3.7071,3.7071,0,0,0-7.1327.2272l-3.2484,15.6567a3.6259,3.6259,0,0,1-3.4821,2.8139l-7.8111.2457a3.614,3.614,0,0,1-3.6879-2.7364l-10.2022-45.2686A3.5349,3.5349,0,0,1,2127.877,1293.3483Z"/><rect class="cls-14" x="1777.0632" y="1203.0851" width="468.6367" height="21.9673" rx="6.2621" transform="translate(-38.7633 66.6697) rotate(-1.8808)"/><rect class="cls-14" x="1775.7256" y="1161.872" width="527.2163" height="21.9673" rx="6.642" transform="translate(-37.3956 67.5649) rotate(-1.8808)"/><rect class="cls-14" x="1774.3811" y="1120.2383" width="611.4244" height="21.9673" rx="7.1528" transform="translate(-36.0072 68.8802) rotate(-1.8808)"/><rect class="cls-13" x="1771.8961" y="1016.4475" width="468.6367" height="80.5469" rx="11.991" transform="translate(-33.6018 66.4153) rotate(-1.8808)"/><rect class="cls-13" x="1294.6335" y="1472.3457" width="405.6684" height="84.8577" rx="11.991" transform="translate(-46.7736 47.7128) rotate(-1.7974)"/><path class="cls-9" d="M1425.764,1488.9714l6.3647,11.9376a5.1246,5.1246,0,0,0,3.9445,2.6809l13.4421,1.5245a5.1245,5.1245,0,0,1,3.1129,8.6475l-9.3865,9.7421a5.1245,5.1245,0,0,0-1.3308,4.58l2.7039,13.2553a5.1245,5.1245,0,0,1-7.2623,5.6327l-12.1659-5.9166a5.1246,5.1246,0,0,0-4.7669.15l-11.771,6.6678a5.1245,5.1245,0,0,1-7.6012-5.1663l1.8675-13.3988a5.1243,5.1243,0,0,0-1.6153-4.4874l-9.9789-9.1345a5.1245,5.1245,0,0,1,2.5646-8.8256l13.32-2.3643a5.1244,5.1244,0,0,0,3.7686-2.923l5.6037-12.3131A5.1246,5.1246,0,0,1,1425.764,1488.9714Z"/><path class="cls-9" d="M1350.3466,1491.338l6.3648,11.9376a5.1244,5.1244,0,0,0,3.9444,2.6809l13.4422,1.5245a5.1245,5.1245,0,0,1,3.1128,8.6475l-9.3865,9.7421a5.1248,5.1248,0,0,0-1.3308,4.58l2.704,13.2553a5.1245,5.1245,0,0,1-7.2623,5.6327l-12.1659-5.9166a5.1248,5.1248,0,0,0-4.767.15l-11.771,6.6678a5.1246,5.1246,0,0,1-7.6012-5.1663l1.8676-13.3988a5.1246,5.1246,0,0,0-1.6154-4.4874l-9.9788-9.1345a5.1245,5.1245,0,0,1,2.5645-8.8256l13.32-2.3643a5.1247,5.1247,0,0,0,3.7687-2.923l5.6037-12.3131A5.1245,5.1245,0,0,1,1350.3466,1491.338Z"/><path class="cls-7" d="M1652.016,1481.8716l6.3648,11.9376a5.1244,5.1244,0,0,0,3.9444,2.6809l13.4422,1.5245a5.1245,5.1245,0,0,1,3.1128,8.6475l-9.3865,9.7421a5.1248,5.1248,0,0,0-1.3308,4.58l2.704,13.2553a5.1245,5.1245,0,0,1-7.2623,5.6327l-12.1659-5.9166a5.1245,5.1245,0,0,0-4.767.15l-11.771,6.6677a5.1245,5.1245,0,0,1-7.6012-5.1662l1.8676-13.3988a5.1249,5.1249,0,0,0-1.6154-4.4875l-9.9788-9.1344a5.1245,5.1245,0,0,1,2.5645-8.8256l13.32-2.3643a5.1249,5.1249,0,0,0,3.7687-2.923l5.6037-12.3132A5.1245,5.1245,0,0,1,1652.016,1481.8716Z"/><path class="cls-9" d="M1576.5987,1484.2382l6.3647,11.9376a5.1246,5.1246,0,0,0,3.9445,2.6809l13.4421,1.5245a5.1245,5.1245,0,0,1,3.1129,8.6475l-9.3865,9.7421a5.1245,5.1245,0,0,0-1.3308,4.58l2.7039,13.2553a5.1245,5.1245,0,0,1-7.2623,5.6327l-12.1659-5.9166a5.1243,5.1243,0,0,0-4.7669.15l-11.771,6.6677a5.1245,5.1245,0,0,1-7.6012-5.1662l1.8675-13.3988a5.1246,5.1246,0,0,0-1.6153-4.4875l-9.9789-9.1344a5.1245,5.1245,0,0,1,2.5646-8.8256l13.32-2.3643a5.1246,5.1246,0,0,0,3.7686-2.923l5.6037-12.3131A5.1245,5.1245,0,0,1,1576.5987,1484.2382Z"/><path class="cls-9" d="M1501.1813,1486.6048l6.3648,11.9376a5.1244,5.1244,0,0,0,3.9444,2.6809l13.4422,1.5245a5.1245,5.1245,0,0,1,3.1128,8.6475l-9.3865,9.7421a5.1248,5.1248,0,0,0-1.3308,4.58l2.704,13.2553a5.1245,5.1245,0,0,1-7.2623,5.6327l-12.1659-5.9166a5.1245,5.1245,0,0,0-4.767.15l-11.771,6.6677a5.1245,5.1245,0,0,1-7.6012-5.1662l1.8676-13.3988a5.1246,5.1246,0,0,0-1.6154-4.4874l-9.9788-9.1345a5.1245,5.1245,0,0,1,2.5645-8.8256l13.32-2.3643a5.1249,5.1249,0,0,0,3.7687-2.923l5.6037-12.3131A5.1244,5.1244,0,0,1,1501.1813,1486.6048Z"/><rect class="cls-13" x="1286.276" y="1034.2887" width="405.0008" height="405.0008" rx="29.9775" transform="translate(-35.4719 43.9901) rotate(-1.6729)"/><path class="cls-10" d="M1440.7124,1119.596c-18.7194,6.2538-79.4642,32.8863-114.2425,122.9788a4.7717,4.7717,0,0,0,2.3729,6.0229l38.2378,18.3837a4.7582,4.7582,0,0,0,5.0914-.6193l16.8877-13.9449a4.7582,4.7582,0,0,1,7.7871,3.5807l2.3907,128.7956a4.7583,4.7583,0,0,0,4.8964,4.6679l185.7307-5.4245a4.7583,4.7583,0,0,0,4.6173-4.8951l-3.5269-120.7589a4.7582,4.7582,0,0,1,7.4988-4.0272l17.309,12.2088a4.7583,4.7583,0,0,0,5.7833-.2284l28.9551-24.056a4.7466,4.7466,0,0,0,1.4375-5.27c-6.1264-16.9495-38.6418-97.022-113.4647-120.1288a4.775,4.775,0,0,0-6.0272,3.4475c-2.5226,10.2014-11.9523,32.7761-46.0854,33.773-30.4948.8907-37.7388-20.4924-39.4595-30.7815A4.7459,4.7459,0,0,0,1440.7124,1119.596Z"/><circle class="cls-7" cx="2140.5168" cy="877.438" r="31.9081"/><circle class="cls-7" cx="2356.1611" cy="870.3565" r="31.9081"/><circle class="cls-7" cx="2248.3389" cy="873.8973" r="31.9081"/><g class="cls-12"><polygon class="cls-1" points="1993.933 797.47 1888.686 800.926 1557.568 1591.212 1662.815 1587.755 1993.933 797.47"/><polygon class="cls-1" points="2232.03 789.651 2126.783 793.108 1795.665 1583.393 1900.912 1579.937 2232.03 789.651"/><polygon class="cls-1" points="1319.472 1599.03 1424.719 1595.574 1755.837 805.289 1650.59 808.745 1319.472 1599.03"/></g><path class="cls-15" d="M2515.7553,1612.603l-12.5988-8.0542s-30.7549,63.0834,38.7142,157.9718C2541.8707,1762.5206,2595.0647,1697.5328,2515.7553,1612.603Z"/><path class="cls-16" d="M2536.2539,1614.5713S2461.8262,1639.9736,2435,1655l-59.3213,33.4194c22.5488,26.0479,38.5049,44.3648,38.5049,44.3648s.3154,26.1279,22.5312,13.9331c0,0,94.2491-1.3306,138.6026-26.99C2575.3174,1719.7271,2591.9736,1663.8926,2536.2539,1614.5713Z"/><path class="cls-8" d="M2664.08,1493.81s-97.7751,96.9077-160.9236,110.7384c0,0,92.0681,61.3712,38.7142,157.9718,0,0,177.7729-101.3542,144.9982-260.1692C2686.8689,1502.3514,2677.7206,1480.8664,2664.08,1493.81Z"/><path class="cls-15" d="M2663.1035,1464.282s-43.3844,40.7759-76.2346,52.2208c0,0,11.1647,28.2243,27.2373,38.78,0,0,12.02,231.6046-130.0543,278.6068l65.5138,34.7681S2730.4525,1675.1684,2663.1035,1464.282Z"/><path class="cls-17" d="M2591.0713,1338.7235s-58.2432,15.6776-91.25-29.3785a2.6241,2.6241,0,0,1,2.2151-4.16c7.2338.2461,20.7357-.2817,33.5463-6.1147a2.635,2.635,0,0,0-.368-4.9409c-9.5737-2.7143-27.0242-10.4717-38.9227-32.1921a2.6329,2.6329,0,0,1,3.0944-3.7745c8.2732,2.5736,23.4707,5.88,35.5.4621a2.632,2.632,0,0,0,.3423-4.6138c-4.2855-2.7648-10.9742-8.6355-14.9852-19.8883a2.6287,2.6287,0,0,1,3.6537-3.222c12.23,6.1108,43.6991,16.8739,81.775-8.2117,49.1251-32.3653,100.6554,6.6945,106.7675,33.5491,0,0,91.6841,32.9082,10.9521,133.44,0,0-23.2661,14.1222-34.3222-38.6308S2591.0713,1338.7235,2591.0713,1338.7235Z"/><path class="cls-18" d="M2114.5378,1843.577,2044.0461,1989.39s-13.3972,32.9625-53.54,45.546-72.2567,16.1351-87.5548,9.0036-54.3923,2.8119-19.37,39.0422,130.012-4.064,159.4782,4.59,111.41,45.5755,98.7108-64.3023l59.6158-123.3163S2127.2349,1880.04,2114.5378,1843.577Z"/><path class="cls-16" d="M2114.5379,1843.5769l-53.4017,110.4622c22.858,14.5632,54.0049,37.0109,95.0223,39.4681l45.2273-93.5534S2127.2345,1880.04,2114.5379,1843.5769Z"/><path class="cls-13" d="M2641.5619,1954.996s-120.4034,80.66-214.02,8.5141c-88.843-68.4668-128.4084-131.62-128.4084-131.62s-65.3754,84.1867-84.1106,158.9678c0,0-156.4138-40.8031-196.4923-99.3562,0,0,185.7706-258.3263,206.1664-283.352,0,0,.5421-32.2014,25.4551-11.8975C2250.1518,1596.2519,2682.9827,1811.2329,2641.5619,1954.996Z"/><path class="cls-14" d="M2320.1818,1860.2745c20.1741,24.8335,55.3042,63.1189,107.36,103.2356,93.6167,72.1458,214.02-8.5141,214.02-8.5141,6.1758-21.4351,1.8037-44.4539-10.1-68.1067a195.6135,195.6135,0,0,0-20.1231-10.3631C2504.458,1828.6879,2381.7585,1846.2628,2320.1818,1860.2745Z"/><path class="cls-7" d="M2116.2441,1935.5684a1.5773,1.5773,0,0,1-1.3046-2.461c.3828-.5654,38.7294-57.1992,78.7656-113.47,81.3564-114.3447,90.2431-115.8281,93.1631-116.3164,5.6386-.9111,17.081,12.4131,42.4658,42.7129,27.5488,32.8828,65.2773,77.916,105.8086,111.6162,47.5381,39.5283,88.1113,53.8057,120.5781,42.4424a1.5766,1.5766,0,1,1,1.041,2.9765c-18.1728,6.36-38.7685,5.1153-61.2129-3.7021-19.0781-7.4951-40.08-20.7149-62.4218-39.292-40.751-33.8818-78.585-79.041-106.21-112.0156-18.2295-21.7578-35.4307-42.3106-39.5293-41.628-3.9277.6563-20.9863,16.4727-91.11,115.03-40.0146,56.24-78.3437,112.8477-78.7265,113.4131A1.5758,1.5758,0,0,1,2116.2441,1935.5684Z"/><path class="cls-7" d="M2194.3926,1952.2324a1.6148,1.6148,0,0,1-.3457-.0381c-80.7832-18.0244-131.874-70.2705-132.3809-70.7968a1.5768,1.5768,0,0,1,2.27-2.1885c.501.5195,50.9756,52.0967,130.7979,69.9072a1.5771,1.5771,0,0,1-.3418,3.1162Z"/><path class="cls-7" d="M2211.8955,1929.7549a1.6148,1.6148,0,0,1-.3457-.0381c-80.7842-18.0244-131.875-70.27-132.3818-70.7969a1.5768,1.5768,0,0,1,2.2705-2.1885c.501.52,50.9756,52.0967,130.7988,69.9073a1.5771,1.5771,0,0,1-.3418,3.1162Z"/><path class="cls-14" d="M2295.7676,1828.2842a1.5771,1.5771,0,0,1-.6377-.1358c-29.417-13.0351-23.2569-40.3291-23.1914-40.6035a1.5768,1.5768,0,0,1,3.0674.7324c-.2432,1.0284-5.5606,25.04,21.4013,36.9883a1.577,1.577,0,0,1-.64,3.0186Z"/><path class="cls-14" d="M2295.3711,1823.9844a1.578,1.578,0,0,1-1.4795-1.0313c-8.9082-24.1172,1.207-37.5967,1.6416-38.1582a1.5767,1.5767,0,0,1,2.4971,1.9258c-.1065.1406-9.4414,12.7754-1.18,35.1406a1.5775,1.5775,0,0,1-1.48,2.1231Z"/><path class="cls-14" d="M2298.833,1826.86l-.0449-.001a1.5766,1.5766,0,0,1-1.5322-1.62c.7089-25.5538,16.2392-30.5655,16.8994-30.7666a1.5768,1.5768,0,0,1,.9228,3.0156c-.6015.19-14.0283,4.7012-14.67,27.8388A1.5767,1.5767,0,0,1,2298.833,1826.86Z"/><path class="cls-18" d="M2227.1967,2240.8494l-118.7752,110.1048s-24.4866,25.815-66.455,22.9068-73.1686-11.302-84.8165-23.5174-51.6777-17.2-32.2644,29.3,122.5552,43.5873,146.8425,62.3833,87.1448,83.0363,115.3545-23.915l100.45-93.1171S2225.7351,2279.432,2227.1967,2240.8494Z"/><path class="cls-16" d="M2227.1968,2240.8494l-89.9793,83.4108c15.98,21.8908,36.8069,54.1441,74.1092,71.3778l76.2059-70.6428S2225.7347,2279.4321,2227.1968,2240.8494Z"/><path class="cls-13" d="M2798.5578,1991.5084s-104.8154-84.4645-196.9556-76.725-227.31,121.9387-227.31,121.9387-150.3813,104.9439-245.6073,227.18c0,0,26.8368,90.2317,130.7155,148.0484l264.4082-200.9788C2721.6531,2028.81,2776.8016,2121.3355,2798.5578,1991.5084Z"/><path class="cls-7" d="M2201.72,2333.4805a1.7258,1.7258,0,0,1-1.3467-2.8028c51.9688-65.0127,168.3379-156.1875,256.8077-221.2256,96.51-70.9472,182.2529-127.4394,183.8584-128.04a1.7251,1.7251,0,0,1,1.333,3.18c-3.6846,2.0127-88.5645,58.0469-184.5528,128.6748-87.7734,64.583-203.22,155.1-254.7509,219.5654A1.7216,1.7216,0,0,1,2201.72,2333.4805Z"/><path class="cls-7" d="M2260.6416,2369.915a1.7147,1.7147,0,0,1-.8955-.2519c-67.1426-40.8692-95.2568-109.0264-95.5332-109.71a1.7253,1.7253,0,1,1,3.1992-1.2929c.2725.6728,27.9941,67.8,94.1289,108.0556a1.7255,1.7255,0,0,1-.8994,3.1992Z"/><path class="cls-7" d="M2284.415,2351.458a1.7149,1.7149,0,0,1-.8955-.2519c-67.1425-40.8692-95.2568-109.0264-95.5332-109.71a1.7253,1.7253,0,0,1,3.1992-1.293c.2725.6729,27.9942,67.8,94.129,108.0557a1.7256,1.7256,0,0,1-.8995,3.1992Z"/><path class="cls-7" d="M2650.2772,1531.4332s-10.9874,16.7594-13.117,38.4284-9.8575,173.19-75.9262,224.9833c0,0-136.111,218.6092,233.4107,227.3125,0,0,44.878-122.2413,42.1529-278.6024s-92.2-276.8178-113.7659-267.1566S2653.1683,1523.85,2650.2772,1531.4332Z"/><path class="cls-15" d="M2738.3586,1434.7982l-2.8572-14.7872s-7.9585-1.1417-17.7176,6.9285l15.366,28.6612Z"/><path class="cls-18" d="M2636.9227,1435.5672s19.0219,26.4966,17.04,51.7984-26.3818,73.224.4088,68.62,136.112-80.9525,44.29-160.4078Z"/><path class="cls-16" d="M2698.6621,1395.578l-61.7391,39.989a111.2,111.2,0,0,1,14.2706,29.6058c45.3737.2247,60.9166-25.9831,65.3992-51.1142A137.5022,137.5022,0,0,0,2698.6621,1395.578Z"/><path class="cls-18" d="M2605.1284,1295.0616a49.3412,49.3412,0,0,0-30.6149,39.6422c-5.15,39.4707-5.5073,112.868,62.2711,115.9683,92.9018,4.25,69.3651-96.1793,69.3651-96.1793s28.5552-10.5731,8.5278-37.1124C2697.988,1295.2644,2649.8436,1277.4784,2605.1284,1295.0616Z"/><path class="cls-17" d="M2564.7937,1283.3493s6.55,45.0212,65.2127,37.8932c43.785-5.32,60.7631,5.5773,60.7631,5.5773s2.3563-22.2638,22.1965-12.6566,8.6725-50.0007-41.3217-56.4567S2561.7548,1259.4853,2564.7937,1283.3493Z"/><path class="cls-7" d="M2690.7676,1328.5449a1.7128,1.7128,0,0,1-.93-.2734c-.1611-.1016-17.1592-10.4736-59.6231-5.3164-31.0488,3.7705-47.6591-7.084-56.1181-16.8574a48.2645,48.2645,0,0,1-11.01-22.5,1.7251,1.7251,0,0,1,3.4141-.4981,45.6565,45.6565,0,0,0,10.3135,20.8643c11.5107,13.2021,29.3388,18.4365,52.9843,15.5654,43.8877-5.334,61.1875,5.38,61.9024,5.8379a1.7255,1.7255,0,0,1-.9336,3.1777Z"/><path class="cls-17" d="M2704.4053,1269.67a1.7256,1.7256,0,0,1-1.6592-2.2031c6.125-21.26,30.48-27.2383,31.5137-27.4824a1.7255,1.7255,0,0,1,.7939,3.3584c-.2334.0556-23.4316,5.7812-28.9912,25.0791A1.7267,1.7267,0,0,1,2704.4053,1269.67Z"/><path class="cls-17" d="M2707.75,1265.1514a1.726,1.726,0,0,1-1.5049-2.5655c8.3242-14.94,24.7822-8.8222,24.9483-8.7588a1.7252,1.7252,0,0,1-1.2354,3.2217c-.5771-.2177-13.8516-5.0752-20.6992,7.2168A1.7238,1.7238,0,0,1,2707.75,1265.1514Z"/><path class="cls-17" d="M2708.0684,1265.2852h-.003a1.7261,1.7261,0,0,1-1.7226-1.7286c.0234-14.705,10.8437-24.0957,11.3047-24.4882a1.7255,1.7255,0,0,1,2.2392,2.6259c-.1631.1407-10.0722,8.83-10.0928,21.8682A1.7261,1.7261,0,0,1,2708.0684,1265.2852Z"/><path class="cls-8" d="M2681.9643,1483.9456s41.1793-31.5182,53.5371-63.9346c0,0,15.35,13.3453,18.7738,27.5941,0,0,238.2925,186.2156,64.024,542.8293,0,0-135.131,64.9768-237.7351-102.1256C2580.5641,1888.3088,2800.8612,1729.6413,2681.9643,1483.9456Z"/><path class="cls-15" d="M2789.008,1482.5371l-3.8666,14.4552s76.0559,127.1044-65.527,258.4c0,0,52.71-14.4656,110.5719-69.2519,0,0,62.2366,296.47-153.1721,297.8384,74.9824,38.3307,141.285,6.4558,141.285,6.4558C2948.8367,1723.3092,2847.8912,1551.7963,2789.008,1482.5371Z"/><path class="cls-7" d="M2765.7891,1976.6377a144.8251,144.8251,0,0,1-38.0137-5.0752c-20.627-5.5908-40.6973-15.7871-59.6533-30.3047-32.2207-24.6767-50.335-53.7578-50.5137-54.0488a1.7253,1.7253,0,0,1,2.9375-1.8106c.1768.2862,18.0156,28.9,49.7617,53.1866,29.1807,22.3232,76.4639,45.4638,136.0205,28.94a1.7258,1.7258,0,0,1,.9219,3.3262A154.7363,154.7363,0,0,1,2765.7891,1976.6377Z"/><path class="cls-18" d="M2397.9805,1637.7045l-1.938-5.1289s-41.7074-44.5776-61.0458-53.8745-27.2343-11.1128-28.9745-3.5459,15.9843,17.8566,24.475,23.1108,8.58,22.9408,8.58,22.9408S2378.9946,1644.9494,2397.9805,1637.7045Z"/><path class="cls-15" d="M2681.4209,1649.3643l-14.9163-1.05s3.15,70.11,109.5323,120.2356C2776.0369,1768.55,2791.6847,1686.038,2681.4209,1649.3643Z"/><path class="cls-14" d="M2304.2638,1716.5836l-100.1363-28.5811c-8.3839-2.0539-15.18-10.7689-15.18-19.4656l-2.3852-230.1874s9.1818-3.7536,17.5657-1.7l109.3967,26.799c8.3839,2.0538,15.18,10.7689,15.18,19.4656v219.8591C2328.7046,1711.47,2312.6477,1718.6374,2304.2638,1716.5836Z"/><path class="cls-13" d="M2307.5653,1716.3667l-113.4781-26.799c-8.6967-2.0538-15.7468-10.7689-15.7468-19.4656V1450.243c0-8.6968,7.05-14.0819,15.7468-12.0281l113.4781,26.799c8.6967,2.0539,15.7468,10.7689,15.7468,19.4656v219.8592C2323.3121,1713.0354,2316.262,1718.4205,2307.5653,1716.3667Z"/><path class="cls-14" d="M2194.0872,1683.5677c-5.3745-1.2692-9.7469-6.6744-9.7469-12.0489V1451.66c0-5.3745,4.3724-8.7145,9.7469-7.4452l113.4781,26.799c5.3745,1.2693,9.7468,6.6744,9.7468,12.0489v219.8589c0,5.3745-4.3723,8.7145-9.7468,7.4452Z"/><path class="cls-13" d="M2229.8841,1503.3045l-29.2469-6.907a7.689,7.689,0,0,1-5.7244-7.0762v-26.8991c0-3.1615,2.5629-5.1191,5.7244-4.3725l29.2469,6.907a7.6889,7.6889,0,0,1,5.7243,7.0762v26.8991C2235.6084,1502.0935,2233.0456,1504.0511,2229.8841,1503.3045Z"/><path class="cls-13" d="M2226.41,1505.2553l-29.2469-6.907a7.6891,7.6891,0,0,1-5.7244-7.0762V1464.373c0-3.1615,2.5629-5.1191,5.7244-4.3725l29.2469,6.9069a7.6891,7.6891,0,0,1,5.7243,7.0763v26.899C2232.1346,1504.0442,2229.5717,1506.0019,2226.41,1505.2553Z"/><ellipse class="cls-14" cx="2218.4858" cy="1486.6118" rx="9.48" ry="11.9987" transform="translate(-427.2874 1849.3483) rotate(-41.6327)"/><ellipse class="cls-14" cx="2202.4159" cy="1471.9963" rx="7.1049" ry="8.9926" transform="translate(-421.6366 1834.9807) rotate(-41.6327)"/><ellipse class="cls-14" cx="2202.4159" cy="1489.7491" rx="5.213" ry="6.598" transform="translate(-433.4307 1839.4647) rotate(-41.6327)"/><path class="cls-18" d="M2700.3661,1641.2919s-31.1717,31.1247-47.5484,57.1484c0,0-157.6919-35.8036-256.7752-65.8647,0,0-80.7235-32.0739-112.7456-39.4383s-48.8311-2.5562-50.91,6.4845,35.6671,1.5564,66.9875,17.9966c0,0-49.0142-11.5117-62.124,9.1529-4.3469,6.8519,6.5113,12.1839,22.66,6.3006,18.6516-6.7952,36.1351-.9778,50.6812,6.0624,0,0-66.1868-4.6269-62.3328,17.995,1.4741,8.6525,10.7487,2.491,29.8572-.2923,26.5256-3.8637,45.2058,3.0065,45.2058,3.0065s-45.2449,12.2258-41.4423,29.02c2.25,9.9382,11.6768-2.2649,43.4858-9.0363,0,0,13.56-3.2321,58.3473,20.9238,23.4275,12.6354,265.96,102.7319,265.96,102.7319s12.77,22.7967,26.4511,1.4645c0,0,82.1423-46.2313,108.8292-89.9748C2784.9524,1714.9724,2772.8859,1657.97,2700.3661,1641.2919Z"/><path class="cls-16" d="M2700.3661,1641.2918s-7.7035,7.6927-17.4623,18.6248c27.8467,14.0851,66.9467,40.8578,77.9847,83.638,9.7171-9.3057,18.22-19.0034,24.0639-28.5822C2784.9524,1714.9724,2772.886,1657.97,2700.3661,1641.2918Z"/><path class="cls-8" d="M2754.8963,1474.1122s-39.5415,131.8618-88.3917,174.2018c0,0,110.2057,9.8823,109.5323,120.2356,0,0,107.677-174.0159,2.9582-297.8318C2778.9951,1470.7178,2760.6879,1456.2217,2754.8963,1474.1122Z"/><path class="cls-13" d="M2979.9922,2386.0026s-6.636-109.3753-51.7218-202.8366c17.4424,12.99,35.4414,29.7354,46.3042,49.1717-.937-1.98-25.713-53.61-58.9921-73.18-16.5336-28.51-37.2307-54.3141-63.1057-73.384a219.69,219.69,0,0,1-17.5624-14.3922c43.4023-5.0935,92.68,17.3509,93.37,17.661-33.9409-38.1328-87.1353-43.0288-116.7018-42.416a243.4143,243.4143,0,0,1-35.0681-59.5273c25.6214-4.34,54.7016-6.4388,77.5334-.3382,0,0-42.9792-20.6548-83.8664-16.3576-22.5642-65.6914-16.6537-125.6484-16.6537-125.6484a473.5973,473.5973,0,0,1,68.1639,25.9877c2.0711,19.3164,7.2421,43.4373,19.4856,64.4727-.2043-.7115-8.2423-28.9888-4.3819-56.9a350.2146,350.2146,0,0,1,65.431,44.2615c-.8173,27.5164,1.6129,69.404,19.45,103.07,0,0-8.7494-52.1586-4.9031-89.7206,39.3022,38.4145,63.8807,82.9226,78.4351,128.6987-.93,28.2983-3.4941,62.458-10.13,81.2108a168.5694,168.5694,0,0,0,19.8447-43.8318C3034.1232,2244.1937,2979.9922,2386.0026,2979.9922,2386.0026Z"/><path class="cls-14" d="M2860.2066,1967.4848s154.3922,150.6415,119.7856,418.5178C2979.9922,2386.0026,3036.767,2144.0452,2860.2066,1967.4848Z"/><path class="cls-3" d="M3008.2105,2386c-4.5855-8.1382-16.7432-15.0954-27.1017-18.8185a33.22,33.22,0,0,1-18.69-16.7832,42.7968,42.7968,0,0,0-70.1209-10.2313,34.6822,34.6822,0,0,1-26.5339,11.2769c-19.2888-.4773-34.7784,14.89-34.7784,33.2971,0,.4217.01.841.026,1.259Z"/><path class="cls-14" d="M2980.1671,2385.2432s-21.0823-63.21-63.5407-110.7733c12.8321,4.7819,26.5917,11.68,36.3434,21.3279-.8882-1.01-24.2623-27.3066-47.9362-33.3647-14.6759-14.0537-31.5142-25.8358-50.5188-32.8116a139.633,139.633,0,0,1-13.124-5.5864c26.1258-10.097,60.167-4.9674,60.643-4.898-26.9639-16.8619-60.7119-11.0348-78.9525-5.8359a146.4586,146.4586,0,0,1-30.9818-29.2543c15.216-6.7439,32.9244-12.737,48.03-12.8872,0,0-29.8577-5.1084-54.5473,4.109-24.1837-34.9241-29.8192-71.1371-29.8192-71.1371a314.2018,314.2018,0,0,1,46.3032,4.1218c4.2809,11.0162,11.2295,24.3495,22.0855,34.7115-.2371-.3848-9.6084-15.6922-11.5441-32.7314a225.6611,225.6611,0,0,1,47.4432,15.3113c3.7617,16.3093,11.7667,40.5352,28.051,57.4069,0,0-13.5171-29.23-16.9587-51.94a185.5706,185.5706,0,0,1,68.6062,62.82c3.813,16.7874,7.522,37.2878,6.3158,49.3976a100.24,100.24,0,0,0,5.5072-29.0141C2991.7381,2293.0222,2980.1671,2385.2432,2980.1671,2385.2432Z"/><path class="cls-13" d="M2840.9586,2158.82s119.115,63.2883,139.2085,226.4229C2980.1671,2385.2432,2977.8419,2233.7172,2840.9586,2158.82Z"/><path class="cls-14" d="M2981.7134,2385.2432s23.9352-81.2343,74.0761-143.8249c-15.387,6.7646-31.8433,16.2611-43.39,29.02,1.0485-1.3288,28.6493-35.9279,57.1039-44.9066,17.3895-18.6114,37.4466-34.4643,60.2377-44.3482a169.7517,169.7517,0,0,0,15.72-7.8c-31.8094-11.351-72.812-2.9773-73.3854-2.8632,32.167-22.8458,73.0816-17.3237,95.2455-11.743a188.1228,188.1228,0,0,0,36.72-38.7654c-18.5472-7.7045-40.0874-14.3206-58.3409-13.6786,0,0,35.9488-8.1163,66.0017,2.2,28.3693-45.5731,34.2981-91.757,34.2981-91.757a366.02,366.02,0,0,0-55.8416,7.7727c-4.9043,14.1908-12.9754,31.4638-25.8394,45.1882.277-.5006,11.2273-20.4078,13.1519-42.0991a270.6662,270.6662,0,0,0-56.947,22.01c-4.1485,20.8673-13.2312,51.9969-32.4954,74.2666,0,0,15.6208-37.7718,19.227-66.73-36.254,22.13-62.4729,51.3986-81.361,83.358-4.1989,21.4758-8.182,47.6493-6.43,62.9232a130.2775,130.2775,0,0,1-7.3585-36.4507C2965.4934,2269.0584,2981.7134,2385.2432,2981.7134,2385.2432Z"/><path class="cls-13" d="M3144.3987,2090.7481s-142.3724,86.7347-162.6853,294.4951C2981.7134,2385.2432,2980.8414,2193.1672,3144.3987,2090.7481Z"/><path class="cls-6" d="M3144.3987,2386c-5.4349-9.6455-19.8443-17.8912-32.1212-22.3039a39.3719,39.3719,0,0,1-22.1511-19.8916,50.7231,50.7231,0,0,0-83.108-12.1262,41.1056,41.1056,0,0,1-31.4483,13.3654c-22.8613-.5657-41.22,17.6483-41.22,39.4641,0,.5.0124.9968.0309,1.4922Z"/><rect class="cls-3" x="562" y="2157" width="1380" height="129" rx="47.1522"/><path class="cls-14" d="M1001.392,2142.0434l50.0558,14.3765,48.735-48.63s-118.565-265.0757-130.8959-403.8121C969.2869,1703.9773,886.6427,1945.9057,1001.392,2142.0434Z"/><path class="cls-13" d="M969.2869,1703.9773s-18.8627,271.3834,82.1609,452.4426l-365.0338,1s-69.6931-225.5495,32.6427-434.7126Z"/><path class="cls-7" d="M919.4529,1861.9778l-186.8914,14.0449s-23.07,160.7385,17.0109,213.8625l191.807-12.8792S903.4105,1985.7339,919.4529,1861.9778Z"/><ellipse class="cls-3" cx="866.8185" cy="1753.1421" rx="19.7567" ry="18.6591" transform="translate(-1087.1968 1835.0323) rotate(-66.0903)"/><ellipse class="cls-3" cx="780.8999" cy="1758.2734" rx="19.7567" ry="18.6591" transform="translate(-1142.9838 1759.5384) rotate(-66.0903)"/><path class="cls-3" d="M780.0322,1764.4336a4.2068,4.2068,0,0,1-4.2041-4.1143,237.4437,237.4437,0,0,1,7.1367-58.6142c10.4668-39.9649,31.2842-62.5567,60.2-65.3321,14.2539-1.36,25.07,2.5694,32.167,11.7022,22.8145,29.3643-3.4267,103.3564-4.5547,106.4922a4.2074,4.2074,0,0,1-7.9179-2.8486c.2607-.7247,25.8174-72.7608,5.8252-98.4834-5.2842-6.7989-13.3682-9.5733-24.7149-8.4854-61.3847,5.8916-59.7529,114.29-59.73,115.3848a4.2073,4.2073,0,0,1-4.1142,4.2978C780.0947,1764.4336,780.0635,1764.4336,780.0322,1764.4336Z"/><path class="cls-8" d="M850.9584,1912.6537l50.5835,55.1622s1.6067,23.1188-24.6787,26.8914l-13.4291-13.04s-1.9231,44.6211,11.33,65.5047c0,0-15.66,29.3429-79.8681,10.215l-11.1306-75.7717-9.3419,21.0715s-22.988-2.9878-28.7132-17.8324c0,0,12.6266-54.4335,51.1936-76.6556C796.904,1908.1993,813.1269,1949.641,850.9584,1912.6537Z"/><path class="cls-15" d="M1365.8641,2142.35l50.0558,14.3764,48.735-48.6305s-118.5652-265.0756-130.8963-403.812C1333.7586,1704.2842,1251.1147,1946.2127,1365.8641,2142.35Z"/><path class="cls-8" d="M1333.7586,1704.2842s-18.8624,271.3835,82.1613,452.4425l-365.0338,1.0006s-69.6932-225.5494,32.6424-434.7127Z"/><path class="cls-7" d="M1283.9247,1862.2848l-186.8913,14.045s-23.07,160.7386,17.0111,213.8625l191.807-12.8794S1267.8825,1986.0409,1283.9247,1862.2848Z"/><ellipse class="cls-15" cx="1231.2902" cy="1753.4491" rx="19.7567" ry="18.6591" transform="translate(-870.7245 2168.4115) rotate(-66.0903)"/><ellipse class="cls-15" cx="1145.3717" cy="1758.5805" rx="19.7567" ry="18.6591" transform="translate(-926.5116 2092.9176) rotate(-66.0903)"/><path class="cls-7" d="M1144.5039,1764.7412a4.2067,4.2067,0,0,1-4.2041-4.1142,237.4384,237.4384,0,0,1,7.1367-58.6143c10.4668-39.9658,31.2842-62.5576,60.2-65.333,14.2471-1.3643,25.07,2.57,32.167,11.7021,22.8145,29.3643-3.4267,103.3565-4.5547,106.4922a4.2074,4.2074,0,0,1-7.9179-2.8486c.2607-.7246,25.8173-72.7608,5.8251-98.4834-5.2851-6.8-13.37-9.5742-24.7148-8.4854-61.3848,5.8916-59.7529,114.2911-59.7295,115.3858a4.2072,4.2072,0,0,1-4.1142,4.2978C1144.5664,1764.7412,1144.5352,1764.7412,1144.5039,1764.7412Z"/><path class="cls-13" d="M1215.43,1912.9607l50.5835,55.1622s1.6067,23.1188-24.6787,26.8913l-13.4291-13.0394s-1.9231,44.6211,11.33,65.5047c0,0-15.66,29.3429-79.868,10.215l-11.1307-75.7716-9.3418,21.0715s-22.9881-2.9878-28.7133-17.8324c0,0,12.6266-54.4335,51.1935-76.6557C1161.3759,1908.5063,1177.5988,1949.948,1215.43,1912.9607Z"/><path class="cls-14" d="M1726.392,2142.0434l50.0558,14.3765L1849,2157s-138-218-154.7131-453.0227C1694.2869,1703.9773,1611.6427,1945.9057,1726.392,2142.0434Z"/><path class="cls-13" d="M1694.2869,1703.9773s-18.8627,271.3834,82.1609,452.4426l-365.0338,1s-69.6931-225.5495,32.6427-434.7126Z"/><path class="cls-7" d="M1644.4529,1861.9778l-186.8914,14.0449s-23.07,160.7385,17.0109,213.8625l191.807-12.8792S1628.4105,1985.7339,1644.4529,1861.9778Z"/><ellipse class="cls-3" cx="1591.8185" cy="1753.1421" rx="19.7567" ry="18.6591" transform="translate(-656.0368 2497.8166) rotate(-66.0903)"/><ellipse class="cls-3" cx="1505.8999" cy="1758.2734" rx="19.7567" ry="18.6591" transform="translate(-711.8238 2422.3227) rotate(-66.0903)"/><path class="cls-3" d="M1505.0322,1764.4336a4.2068,4.2068,0,0,1-4.2041-4.1143,237.4437,237.4437,0,0,1,7.1367-58.6142c10.4668-39.9649,31.2842-62.5567,60.2-65.3321,14.2481-1.36,25.0713,2.5694,32.167,11.7022,22.8145,29.3643-3.4267,103.3564-4.5547,106.4922a4.2074,4.2074,0,0,1-7.9179-2.8486c.2607-.7247,25.8174-72.7608,5.8252-98.4834-5.2842-6.7989-13.3682-9.5733-24.7149-8.4854-61.3847,5.8916-59.7529,114.29-59.73,115.3848a4.2073,4.2073,0,0,1-4.1142,4.2978C1505.0947,1764.4336,1505.0635,1764.4336,1505.0322,1764.4336Z"/><path class="cls-8" d="M1575.9584,1912.6537l50.5835,55.1622s1.6067,23.1188-24.6787,26.8914l-13.4291-13.04s-1.9231,44.6211,11.33,65.5047c0,0-15.66,29.3429-79.8681,10.215l-11.1306-75.7717-9.3419,21.0715s-22.988-2.9878-28.7132-17.8324c0,0,12.6266-54.4335,51.1936-76.6556C1521.904,1908.1993,1538.1269,1949.641,1575.9584,1912.6537Z"/></svg>