<?xml version="1.0" encoding="iso-8859-1"?>
<!-- Generator: Adobe Illustrator 25.2.1, SVG Export Plug-In . SVG Version: 6.00 Build 0)  -->
<svg version="1.1" id="Layer_1" xmlns="http://www.w3.org/2000/svg" xmlns:xlink="http://www.w3.org/1999/xlink" x="0px" y="0px"
	 width="2000px" height="2000px" viewBox="0 0 2000 2000" enable-background="new 0 0 2000 2000" xml:space="preserve">
<g id="Market_Analysis">
	<g>
		<path fill="#FAF2E6" d="M167.893,1023.866c0-270.422,746.712,96.24,832.107-319.707
			c138.514-674.679,722.123-104.116,705.378,355.923c-9.837,270.243-261.789,453.427-715.667,453.427
			S167.893,1294.288,167.893,1023.866z"/>
		<circle fill="#FAF2E6" cx="625.496" cy="562.472" r="126.755"/>
		<ellipse fill="#FAF2E6" cx="508.491" cy="609.972" rx="126.755" ry="59.02"/>
	</g>
	<g>
		<path fill="#4A0027" d="M684.694,825.75c-1.724-0.37-0.745-0.255-2.292-0.26c-0.303,0.012-1.101,0.109-1.478,0.151
			c-3.591,0.656-6.942,2.119-10.501,2.899c-6.478,1.523-13.288,2.162-19.915,1.14c-10.355-1.515-19.476-6.58-28.446-11.262
			c-1.765-0.781-2.676-0.325-7.141,1.212c-8.508,3.193-17.4,3.078-24.974-2.073c-7.137-4.163-11.349-11.141-16.732-16.931
			c-5.586-6.317-16.162-7.485-23.4-6.269c-6.886,1.704-10.875,3.525-15.186,7.706c-0.617,0.854-1.794,2.032-2.233,3.733
			c-0.325,0.744-0.443,1.65-0.681,2.454c1.267,1.523,1.317,4.168,2.219,5.899c2.255,6.385,6.288,14.948,10.567,22.381
			c10.025,16.617,22.931,30.319,39.381,43.174c16.231,12.626,35.392,21.839,57.833,24.457c4.296,0.878,4.272-2.085,3.777-8.758
			c-0.309-8.226-5.224-15.264,5.642-19.408c2.858-1.15,1.551-0.303,4.185-2.648c1.998-2.192,2.588-2.691,2.719-6.315
			c0.157-5.282-0.998-8.557-0.907-14.496c0.651-8.71,10.248-12.823,18.365-14.554c5.66-1.446,9.164-3.847,10.308-6.192
			c1.059-3.18,1.104-4.17-0.681-5.831C684.985,825.896,684.825,825.818,684.694,825.75z"/>
		<path fill="#4A0027" d="M729.957,875.908c-3.057,1.923-6.597,3.822-10.428,3.46c-6.804-0.651-10.783-1.402-17.976-0.756
			c-4.215,0.569-7.404,3.061-8.991,7.954c-1.426,5.007-2.263,10.304-5.428,14.705c-2.017,3.677-8.905,6.061-10.595,6.4
			c-0.123,0.053-0.233,0.113-0.34,0.172c1.776,2.358,13.453,5.433,21.648,6.453c9.342,1.132,20.593-0.423,30.474-2.691
			c44.622-11.182,85.745-36.522,106.86-75.174c-0.653-0.405-1.258-0.928-1.932-1.266c-8.193-5.626-15.034-5.555-25.051-5.332
			c-7.084,0.451-10.884,0.914-17.36,2.965c-7.791,2.845-15.868,6.56-24.476,4.938c-6.187-0.789-12.172-4.274-16.448-5.166
			c-1.782-0.234-2.758-0.335-5,0.452c-0.11,0.059-0.236,0.128-0.356,0.197c-0.049,0.036-0.073,0.057-0.146,0.109
			c-0.008,0.007-0.009,0.009-0.017,0.016c-0.807,1.96,0.657,6.869-0.021,11.627c-0.438,5.677-2.092,11.205-4.195,16.535
			C738.108,866.971,735.056,872.358,729.957,875.908z"/>
		<path fill="#FB9A00" d="M721.113,1070.058c-2.408-7.489-5.492-14.912-7.576-22.533c-1.092-0.433-1.869-1.592-2.824-2.261
			c-4.905-4.475-13.733-11.538-17.187-14.083c-9.761-6.87-21.589-12.731-32.971-15.353c-7.893,0.225-15.787,0.426-23.68,0.537
			c-0.513,0.192-1.042,0.353-1.541,0.576c-8.202,4.421-12.016,7.113-12.582,13.631c-1.031,13.321,4.738,25.704,12.984,38.116
			c8.247,13.01,15.813,22.71,26.062,34.187c22.467,25.304,49.925,45.354,76.586,63.74c16.228,11.308,33.272,21.596,49.176,33.336
			c-12.243-19.054-23.181-38.909-33.53-59C741.281,1118.127,729.749,1094.675,721.113,1070.058z"/>
		<path d="M384.237,1093.676c0.136,4.725,0.238,9.45,0.291,14.176c1.408,0.679,2.757,1.54,4.17,2.163
			c10.195,5.311,20.431,11.27,27.967,19.732c3.227,3.251,5.463,7.526,7.768,9.619c1.611-0.707,7.825-6.649,11.875-9.672
			c4.606-3.724,9.066-6.906,8.426-8.596c0.087-1.358-5.973-12.73-8.323-14.953c-5.009-6.021-10.608-10.607-16.265-13.906
			c-7.351-3.929-14.275-6.465-21.039-8.377c-6.077-1.46-10.337-2.249-15.624-1.774c0.221,0.365,0.368,0.769,0.341,1.19
			C384.002,1086.743,384.132,1090.209,384.237,1093.676z"/>
		<path fill="#4A0027" d="M710.635,661.918c-15.79,3.135-27.551,7.89-37.864,17.623c-6.179,5.628-11.428,12.052-17.595,17.69
			c-8.2,7.319-17.288,14.006-27.378,18.961c-11.819,6.293-31.816,7.149-34.015,13.51c-2.615,4.907,2.665,12.229,6.826,17.093
			c4.972,6.542,10.671,8.994,18.831,12.506c12.536,5.656,25.445,6.636,40.21,6.852c8.859,0.385,17.781,1.568,25.98,4.827
			c9.169,3.965,17.133,9.904,25.473,15.134c15.166,10.105,34.585,20.415,49.808,22.193c7.243,0.536,11.645-0.949,15.368-4.316
			c3.774-3.439,6.846-7.585,11.362-10.272c3.195-1.814,6.879-3.14,10.678-3.045c4.662,0.152,9.071,1.825,13.696,2.266
			c13.137,1.601,9.206-7.704,20.562-17.272c2.702-2.113,5.969-3.549,9.332-4.516c3.299-0.843,6.748-0.917,10.118-1.386
			c0.254-0.035,1.04-0.147,1.544-0.218c6.99-1.056,9.159-3.906,9.656-9.188c-3.717-36.475-15.15-76.656-38.191-108.924
			c-10.398-13.896-26.593-28.117-41.863-40.414c-0.219,0.321-0.575,0.712-0.806,0.946c-6.834,9.155-10.822,19.984-18.484,28.657
			c-6.31,6.749-14.897,11.605-23.88,14.729C730.53,658.583,720.406,659.681,710.635,661.918z"/>
		<path fill="#FB9A00" d="M588.719,597.293c-31.94,19.336-53.676,48.905-63.782,84.355c-4.482,13.272-4.689,31.342-4.057,44.146
			c0.314,4.074,0.863,8.128,1.53,12.163c6.307,0.187,10.117,0.65,15.809,0.907c3.89,0.226,7.782,0.427,11.669,0.684
			c0.108-1.169,0.264-2.347,0.101-3.218c-0.858-15.827,0.958-31.862,7.045-46.712c12.192-29.673,32.004-57.893,60.315-75.768
			c33.451-19.524,77.128-28.065,114.349-13.496c4.148-7.074,8.059-14.274,11.785-21.555c-9.591-2.21-19.222-4.29-28.933-5.972
			c-17.444-2.956-32.774-4.05-50.937-2.536c-12.013,1.113-21.16,2.435-32.886,6.134
			C616.912,581.176,602.529,588.966,588.719,597.293z"/>
		<path d="M724.401,964.784c-40.09-0.46-80.21,0.002-120.221-2.297c-37.872-1.662-75.498-5.555-113.143-8.925
			c-0.828,1.233-1.216,1.87-2.142,3.644c-0.042,0.4-0.179,0.809-0.316,1.167c-0.155,0.495-0.296,0.993-0.419,1.493
			c-0.033,0.137-0.064,0.249-0.063,0.241c-2.264,8.165,3.632,17.239,10.244,21c7.417,3.737,15.59,4.204,25.125,5.458
			c15.886,1.891,32.047,3.19,46.308,3.782c16.949,0.585,33.899,0.655,50.849,0.479c1.241-0.333,2.505-0.621,3.795-0.845
			c7.571-1.398,15.417-0.88,22.982,0.397c29.822-0.646,59.647-1.637,89.474-1.556c93.88,0.033,187.795,1.618,281.64-0.705
			c65.031,0.396,130.001,3.118,195.007,4.394c16.297,0.47,32.595,0.895,48.896,1.248c1.788-0.36,3.617-0.64,5.489-0.821
			c7.345-0.758,15.715-0.488,23.099,1.346c1.517,0.022,3.034,0.053,4.551,0.074c28.172,0.907,56.381,1.434,84.568,0.507
			c27.402-1.35,63.777-1.592,75.814-18.103c3.414-4.061,1.575-14.106,0.996-21.841c-0.229,0.055-0.454,0.121-0.698,0.13
			c-16.764,2.304-33.607,4.314-50.573,5.549c-0.459,0.26-0.99,0.452-1.577,0.48c-0.551-0.026-0.971-0.126-1.316-0.268
			c-2.788,0.188-5.579,0.358-8.374,0.499c-68.879,4.249-138.123,1.966-207.122,0.77c-52.75-1.015-105.525-0.355-158.278,0.187
			c-46.254,0.3-92.464,1.972-138.714,2.416C834.997,965.441,779.689,965.268,724.401,964.784z"/>
		<path fill="#FB9A00" d="M1282.86,944.675c-0.015,0.598-0.276,1.126-0.655,1.558c-0.023,0.377-0.067,0.745-0.139,1.099
			c12.827,0.076,25.651,0.034,38.469-0.223c-0.066-0.239-0.124-0.482-0.109-0.732c0.471-4.065,0.836-8.142,1.125-12.223
			c0.747-11.134,0.87-22.297,1.19-33.448c1.416-61.39,2.121-122.809,5.231-184.148c0.777-17.359,1.712-34.726,1.474-52.107
			c-0.279-6.348-0.671-15.411-4.308-18.67c-0.693-0.525-1.318-0.718-4.633-0.771c-15.374,0.129-36.413-0.243-36.234,9.443
			c-1.321,36.182-1.367,72.408-2.431,108.603C1282.147,823.585,1279.71,884.196,1282.86,944.675z"/>
		<path d="M1386.213,943.687c0.09-0.79,0.167-1.551,0.107-2.187c0.44-8.775,0.922-17.549,1.278-26.328
			c2.267-50.648,2.624-101.337,3.997-152.009c-0.421-16.332,4.451-66.786-5.1-67.482c-10.515-0.831-34.789,2.766-36.6,8.291
			c-1.26,2.596-0.928,7.852-1.104,12.395c-0.248,13.475-0.54,26.95-0.776,40.425c-0.455,30.103-0.257,60.215-1.083,90.313
			c-0.989,31.943-2.357,63.877-2.542,95.839c-0.001,0.591-0.236,1.101-0.589,1.513c0.043,0.662-0.011,1.309-0.266,1.923
			c11.855-0.478,23.704-1.141,35.542-2.095C1381.457,944.11,1383.835,943.893,1386.213,943.687z"/>
		<path d="M1255.964,947.023c-0.173-15.706-0.573-31.407-1.023-47.107c-1.424-63.408,2.321-126.801,3.163-190.199
			c0.021-20.344,2.288-43.68,0.012-61.793c-0.064-0.382-0.393-1.383-0.397-1.43c-0.019-0.034-0.039-0.062-0.059-0.094
			c-1.68-0.909-6.096-1.056-9.456-1.588c-11.558-1.277-26.494-2.786-29.784,3.998c-3.53,19.629-5.474,53.293-4.809,78.071
			c-0.329,72.642-3.422,145.265-2.792,217.917c-0.011,0.434-0.164,0.828-0.38,1.182
			C1225.61,946.374,1240.787,946.756,1255.964,947.023z"/>
		<path fill="#FB9A00" d="M1253.658,1482.075c11.775-14.888,18.537-33.437,20.606-50.836c0.797-11.831-0.399-20.508-2.014-31.984
			c-2.304-18.012-6.347-35.734-10.911-53.316c-5.474-22.901-10.494-45.945-13.989-69.218c-4.088-30.431-2.679-61.452,1.302-91.827
			c4.151-30.348,11.364-60.172,18.192-90.025c2.823-13.051,5.425-23.94,6.778-36.255c0.769-9.131,1.161-15.817-1.673-24.088
			c-1.863-6.89-7.324-11.446-14.175-13.908c-8.236-0.232-16.473-0.467-24.709-0.697c-3.384,0.912-6.571,2.219-9.333,3.933
			c-30.086,20.017-39.669,60.158-54.046,94.678c-6.445,15.289-12.416,30.947-21.156,45.166
			c-7.044,11.084-16.38,20.664-27.221,28.295c-20.096,14.423-46.459,17.75-70.804,15.965c-16.756-1.338-33.539-4.042-49.579-9.035
			c8.573,24.067,19.697,47.057,34.568,69.26c10.485,15.909,19.794,29.546,32.239,43.167c1.827,1.797-0.618,4.897-2.868,4.029
			c-11.991-11.789-21.257-26.291-30.796-40.062c-16.755-24.25-29.646-50.774-39.201-78.42c-0.432-0.152-0.871-0.284-1.301-0.44
			c-1.636-0.839-1.284-2.798-0.15-3.843c-2.906-8.756-5.496-17.614-7.755-26.547c-11.507-47.083-13.784-129.808-61.385-150.411
			c-0.385-0.137-0.909-0.311-1.12-0.319c-0.603-0.153-1.209-0.303-1.825-0.395c-0.924-0.066-3.01-0.258-3.942,0.208
			c-5.416,1.82-11.098,5.961-14.055,10.887c-4.543,7.275-4.177,15.233-1.732,25.253c5.956,24.535,14.237,48.584,17.568,73.669
			c2.639,17.587,3.607,35.764,5.041,51.792c2.35,22.52,4.634,45.038,6.062,67.637c-0.002,2.413-3.88,3.58-4.766,1.136
			c-0.883-8.267-1.559-21.634-2.16-27.591c-2.616-26.336-4.94-50.898-7.074-76.161c-0.566-6.38-1.418-12.712-2.467-19.009
			c-0.955,0.408-2.096,0.393-3.266-0.366c-4.798-3.114-10.081-5.961-14.583-9.465c-0.364-0.283-0.675-0.633-0.995-0.974
			c-0.379,0.055-0.77,0.027-1.144-0.124c-3.837-3.059-6.957-7.154-10.67-10.451c-16.079-15.32-32.691-30.139-49.968-44.172
			c-15.407-12.623-32.855-24.514-53.443-22.094c4.344,5.336,8.287,11.025,12.143,16.377c15.291,23.998,26.2,50.468,42.621,73.835
			c11.54,16.505,23.46,31.252,38.48,46.249c5.548,5.658,11.089,11.322,16.596,17.017c1.574,2.309,6.779,4.812,4.092,7.871
			c-0.671,0.656-1.782,1.03-2.685,0.643c-2.387-1.573-4.053-4.192-6.196-6.116c-7.253-7.525-14.642-14.924-21.87-22.471
			c-17.817-18.774-33.337-39.642-46.157-61.946c-12.35-21.324-23.906-47.495-38.367-64.964
			c-7.688-9.441-14.695-17.612-25.479-21.828c-15.102-4.518-30.339-8.057-35.341,5.946c-4.156,10.953,2.397,24.78,6.627,37.959
			c7.185,20.769,16.971,43.455,28.618,64.232c8.783,16.07,16.966,32.451,26.091,48.342c9.014,15.543,21.673,34.372,30.922,47.008
			c16.671,21.878,36.863,40.849,56.15,60.484c38.249,39.821,67.495,87.306,108.099,125.044c16.878,16.503,37.702,29.525,51.4,48.891
			c7.071,11.781,11.777,24.842,15.903,37.837c0.28,1.302-0.642,2.619-1.913,3.013c-0.989,0.352-2.136-0.113-2.645-0.978
			c-1.165,0.242,0.415,13.966,30.576,15.948c13.578,0.893,7.01,0.179,20.611-0.224c27.56-1.156,55.186-2.573,82.542-6.139
			c21.997-2.973,41.193-5.67,62.169-10.32c12.105-3.061,25.326-6.53,32.206-12.766c4.065-4.119,4.947-5.95,1.502-9.523
			c-0.375-0.372-0.678-0.954-0.908-1.623c-0.733,1.288-1.501,2.557-2.317,3.801c-1.475,2.288-3.05,4.516-4.728,6.668
			c-1.172,1.553-2.6,3.848-4.855,2.882c-1.04-0.534-1.457-1.932-0.883-2.923C1252.815,1483.025,1253.337,1482.418,1253.658,1482.075
			z"/>
		<path fill="#FB9A00" d="M1185.133,945.337c0.006-0.223,0.013-0.445,0.014-0.654c-0.001-9.3-0.004-18.6,0-27.901
			c-0.354-57.403,0.981-114.793,4.585-172.094c1.336-24.314,4.536-51.916,2.33-74.058c-0.027-0.251-0.189-0.794-0.287-1.118
			c-0.111-0.288-0.251-0.563-0.419-0.824c-0.012-0.012-0.035-0.031-0.044-0.04c-0.077-0.04-0.155-0.08-0.283-0.151
			c-1.576-0.026-7.668-0.807-12.201-0.745c-11.83-0.039-25.262-0.638-28.225,5.691c-3.08,13.915-1.852,40.756-2.624,59.622
			c-1.299,40.691-1.5,81.394-1.956,122.098c-0.636,29.584-2.155,59.141-2.699,88.728c0,0.31-0.064,0.598-0.172,0.862
			c6.692,0.034,13.385,0.031,20.077,0.101C1170.526,944.993,1177.829,945.16,1185.133,945.337z"/>
		<path d="M488.108,947.656c0.007-0.041,0.014-0.074,0.035-0.184c0.005-0.027,0.012-0.054,0.017-0.082
			c0.014-0.079,0.029-0.161,0.039-0.232C488.161,947.322,488.143,947.49,488.108,947.656z"/>
		<path fill="#4A0027" d="M313.229,1306.318c22.611,7.616,51.769,8.232,70.629,4.29c6.617-3.251,7.561-18.949,7.978-30.901
			c-0.083-5.026,0.192-9.687-1.199-10.442c-3.306-2.614-16.643-2.615-24.742-3.503c-25.201-2.089-53.348-6.957-69.198-27.234
			c-6.602-7.038-9.84-16.005-12.505-24.869c-6.399-20.044-5.082-42.153,4.069-61.279c9.902-21.436,30.171-38.07,53.886-45.238
			c-0.297-9.288,0.486-20.148-0.322-27.277c-2.325-1.278-4.707-0.878-9.441-0.554c-36.334,4.497-68.109,35.832-83.018,66.573
			c-11.679,25.519-15.691,53.391-12.509,79.269C243.951,1267.318,271.675,1293.623,313.229,1306.318z"/>
		<path fill="#FB9A00" d="M1051.696,945.067c-0.116-0.287-0.182-0.598-0.149-0.93c0.004-4.639,0.025-9.278,0.056-13.917
			c0.096-13.681,0.226-27.361,0.502-41.04c0.337-15.808,0.758-31.615,1.354-47.416c0.116-9.462,1.007-19.168-1.807-25.432
			c-1.419-1.905-20.435-1.201-30.406-1.158c-6.364,0.693-6.218,0.526-6.624,3.868c-1.638,42.038-4.161,84.072-3.697,126.157
			c0,0.201-0.064,0.379-0.113,0.563C1024.438,945.483,1038.067,945.246,1051.696,945.067z"/>
		<path d="M1077.097,944.799c13.095-0.109,26.19-0.163,39.285-0.166c-0.305-0.408-0.509-0.888-0.459-1.408
			c0.238-7.33,0.314-14.665,0.425-21.997c0.282-46.183,1.564-92.319,4.033-138.439c0.272-11.241,1.581-27.377,0.022-34.515
			c-0.528-1.011,0.052-0.85-3.386-1.368c-7.439-0.255-23.905-1.474-31.242,0.841c-2.867,1.283-4.277,2.681-4.488,8.937
			c-3.399,34.764-4.36,69.697-3.964,104.604c0.264,27.184,1.784,54.41,0.834,81.583
			C1078.156,943.688,1077.707,944.344,1077.097,944.799z"/>
		<path d="M1464.747,1127.087C1464.747,1127.087,1464.747,1127.087,1464.747,1127.087
			C1464.544,1127.122,1464.473,1127.146,1464.747,1127.087z"/>
		<path d="M1038.604,1491.583c71.544,10.222,144.757,0.183,213.093-29.219c4.697-2.021,9.847-4.13,14.462-1.81
			c4.724,2.374,7.562,8.974,8.186,15.515c0.624,6.541-0.569,13.118-1.754,19.526c-2.264,12.245-5.109,25.623-13.13,32.669
			c-5.256,4.617-11.841,5.637-18.145,6.528c-62.074,8.772-124.519,17.557-186.828,12.322c-7.24-0.608-14.602-1.445-21.322-5.003
			c-0.067-0.036-0.134-0.071-0.201-0.108c-10.057-5.43-12.252-19.052-4.732-27.658
			C1034.067,1507.667,1038.04,1499.277,1038.604,1491.583z"/>
		<path d="M1465.299,1127.022c-0.161-0.034-0.158-0.016-0.063,0.007c0.023-0.002,0.045-0.001,0.068-0.002
			C1465.302,1127.026,1465.3,1127.023,1465.299,1127.022z"/>
		<path d="M1465.336,1127.047c-0.002-0.004-0.004-0.011-0.007-0.015c-0.002-0.001-0.002-0.001-0.004-0.002
			c-0.003-0.001-0.008-0.003-0.01-0.003c-0.004,0-0.007,0-0.011,0c0.005,0.005,0.014,0.015,0.019,0.02
			C1465.326,1127.047,1465.332,1127.046,1465.336,1127.047z"/>
		<path d="M1465.134,1127c-0.13,0.023-0.259,0.052-0.386,0.087c0,0,0,0-0.001,0c0.002,0,0.004,0,0.005-0.001
			C1464.843,1127.067,1464.967,1127.039,1465.134,1127z"/>
		<path d="M1465.303,1127.027c-0.023,0.001-0.045,0.001-0.068,0.002c0.029,0.007,0.04,0.013,0.088,0.017
			C1465.318,1127.042,1465.309,1127.032,1465.303,1127.027z"/>
		<polygon points="1464.748,1127.087 1464.747,1127.087 1464.753,1127.086 		"/>
	</g>
	<g>
		<path d="M734.54,948.913c-41.546-0.937-83.144,0.145-124.62-2.941c-34.711-1.683-68.74-6.62-104.579-10.598
			c-4.758-0.656-9.506-1.384-14.283-1.891c-0.683-0.139-1.398,0.001-1.992,0.362c-0.493,0.277-0.858,0.728-1.099,1.242
			c-2.247,1.179-2.939,5.513-4.12,7.603c-0.395,0.752-0.497,1.423-0.406,1.994c-0.588,2.701-1.032,5.444-1.09,8.212
			c-0.117,5.273,1.151,10.483,3.278,15.287c5.336,14.176,19.607,18.239,33.279,20.001c15.834,2.648,31.8,4.506,47.822,5.526
			c14.672,0.776,29.346,0.97,44.021,0.891c-0.355,0.26-0.732,0.491-1.079,0.761c-3.725,2.668-6.988,6.13-8.22,10.648
			c-4.977,24.963,12.1,47.098,25.315,66.595c30.788,43.099,74.103,74.729,117.417,104.244c11.309,8.194,25.46,17.036,34.773,24.118
			c3.136,2.39,6.3,4.748,9.291,7.32c1.158,0.848,2.063,2.261,3.573,2.312c4.721,7.062,9.595,14.025,14.722,20.819
			c20.569,26.948,46.046,49.538,68.345,74.957c27.309,31.749,51.458,66.064,78.718,97.862c20.072,24.856,45.595,44.325,68.62,66.232
			c8.786,8.7,14.234,16.084,18.968,27.654c3.699,8.628,6.282,15.27,8.83,23.393c-2.931,0.457-5.857,1.006-8.676,1.939
			c-10.494,2.89-13.748,14.281-3.825,20.476c9.815,4.613,21.244,4.042,31.854,5.014c20.403,0.984,40.845,0.402,61.222-0.88
			c32.448-1.729,64.781-4.904,96.821-10.394c21.358-3.756,43.258-6.861,63.174-15.854c9.041-3.69,26.227-14.133,9.817-27.632
			c1.372-2.88,2.62-5.822,3.767-8.804c0.43,0.424,1.006,0.699,1.723,0.642c13.541-0.461,30.66-1.926,38.138,3.033
			c8.256,6.438,2.147,17.465-5.441,22.327c-26.156,17.359-58.028,23.386-89.582,31.033c-5.892,1.375-11.768,2.824-17.689,4.069
			c-2.348,0.935-6.313-0.128-7.92,3.234c-0.325,0.949-0.019,2.006,0.707,2.68c3.675,1.987,8.323,1.288,12.222,2.877
			c0.421,0.183,1.538,0.663,1.947,0.896c0.268,0.093,0.821,0.447,1.131,0.649c0.128,0.121,0.269,0.271,0.396,0.412
			c0.008,0.094,0.014,0.193,0.027,0.249c-0.006,0.133-0.01,0.265-0.009,0.384c-0.023,0.066-0.04,0.114-0.04,0.146
			c-0.09,0.168-0.182,0.335-0.3,0.486c-0.154,0.19-0.39,0.451-0.624,0.589c-9.922,7.281-29.94,8.856-46.423,10.638
			c-34.497,2.569-69.104,3.503-103.638,5.548c-55.647,1.62-115.392,0.524-168.477-3.865c-15.609-1.989-62.607-2.888-57.183-11.509
			c5.453-8.059,25.837-16.527,41.979-20.266c17.325-4.132,34.856-7.364,52.312-10.892c9.449-2.357,19.911-2.62,28.56-7.319
			c15.438-13.888-32.65-15.853-39.755-15.925c-10.36-0.194-20.721,0.054-31.079,0.236c-1.085,0.062-2.126,0.77-2.519,1.785
			c-1.379,4.324,3.504,3.467,6.221,3.429c5.143-0.095,10.287-0.163,15.432-0.212c15.263-0.1,27.282,0.163,42.217,3.576
			c3.393,0.871,5.987,1.92,6.932,2.747c-0.057,0.053-0.111,0.103-0.164,0.15c-5.69,3.065-18.226,4.491-26.797,6.459
			c-21.844,4.589-44.029,7.979-65.384,14.59c-9.803,3.588-42.589,15.827-31.2,29.037c6.935,5.081,17.182,4.921,25.456,6.298
			c16.062,1.569,32.14,2.987,48.236,4.152c51.27,3.571,102.746,4.244,154.113,2.855c33.986-1.946,68.027-3.041,101.988-5.362
			c17.001-1.996,35.301-2.397,50.57-10.877c8.545-6.086,4.967-11.788-2.059-14.26c26.204-5.852,56.97-12.195,82.304-23.207
			c10.76-5.375,23.517-10.09,29.93-20.882c4.499-7.262,3.669-18.068-4.529-22.285c-8.375-4.381-18.246-3.188-27.385-3.459
			c-4.117,0.034-8.232,0.192-12.34,0.462c-0.11,0.006-0.211,0.061-0.32,0.08c0.505-1.442,1.026-2.88,1.498-4.331
			c3.011-9.25,5.35-18.812,5.371-28.591c-0.171-33.251-8.252-65.884-15.985-98.041c-5.569-25.309-11.116-50.701-14.229-76.449
			c-3.418-34.143-1.134-72.742,4.774-108.628c3.988-25.263,10.908-55.042,16.957-82.221c2.94-13.921,6.129-27.837,7.61-42.007
			c1.131-11.39,0.927-23.456-4.559-33.788c-1.542-2.838-3.567-5.192-5.902-7.162c8.683,0.266,17.367,0.542,26.048,0.866
			c21.708,0.366,43.449,0.253,65.119-1.177c22.177-2.038,48.121-3.226,64.011-20.864c4.538-5.332,7.204-12.311,6.684-19.353
			c-0.397-7.264-0.654-14.613-1.295-21.829c-0.689-1.735-2.473-1.842-3.744-1.038c-0.458-0.413-1.056-0.673-1.701-0.614
			c-5.295,0.939-10.59,1.873-15.888,2.794c-11.131,1.999-22.342,3.465-33.591,4.576c0.16-3.21,0.321-6.42,0.48-9.63
			c0.693-13.062,1.193-26.132,1.576-39.206c2.143-46.758,2.049-93.569,3.459-140.348c0.352-18.703,1.037-37.416,0.788-56.123
			c-0.695-8.031-0.186-18.393-7.272-23.723c-3.44-1.291-7.315-0.733-10.925-0.734c-11.367,0.998-24.078,1.817-33.534,8.799
			c-6.041,6.706-3.474,16.642-4.245,24.891c-1.04,40.496-0.865,81.007-1.56,121.508c-0.53,30.439-2.194,60.846-2.593,91.289
			c0.005,6.298-0.296,12.654-0.265,18.954c-0.784,0.661-1.269,1.689-1.033,2.736c0.335,1.658,0.079,3.572,0.672,5.15
			c-4.797,0.177-9.594,0.325-14.392,0.443c1.017-3.812,0.864-7.967,1.351-11.896c1.044-14.587,1.106-29.222,1.538-43.835
			c1.275-58.525,1.973-117.078,4.621-175.563c0.939-24.64,2.755-49.297,2.088-73.964c-0.722-7.446-0.425-17.658-7.786-21.81
			c-5.583-1.608-11.637-0.599-17.387-0.681c-10.694,0.539-24.653,0.149-31.141,10.25c-1.34,2.742-1.184,5.907-1.393,8.883
			c-0.318,7.825-0.532,15.655-0.631,23.486c-0.484,47.361-2.251,94.697-1.897,142.068c-0.076,42.425-1.055,84.871,0.529,127.28
			c0.131,3.512,0.34,7.02,0.551,10.528c-0.18,0.345-0.313,0.714-0.322,1.116c-0.023,1.204-0.317,2.996-0.197,4.479
			c-5.541-0.048-11.082-0.116-16.624-0.205c0.149-2.121-0.42-4.7-0.162-6.455c-0.24-16.375-0.681-32.747-1.127-49.117
			c-1.158-62.577,2.355-125.129,3.166-187.694c0.424-21.316,1.273-42.632,1.2-63.955c-0.108-4.255-0.037-8.548-0.755-12.756
			c-0.478-2.014-0.763-4.387-2.548-5.688c-3.648-2.232-8.329-1.818-12.435-2.579c-12.407-1.09-34.93-5.109-37.627,11.843
			c-2.119,18.942-4.423,37.932-4.488,57.017c0.1,37.983-0.252,75.96-1.503,113.925c-0.717,40.891-1.176,81.785-1.548,122.68
			c-0.023,6.861,0.019,13.722,0.131,20.583c-0.017,0.293,0.041,0.58,0.124,0.857c-5.411-0.145-10.821-0.289-16.23-0.427
			c0.002-0.519-0.017-1.038-0.042-1.527c0-3.539-0.001-7.078-0.001-10.617c-0.002-14.942-0.003-29.885,0.035-44.827
			c-0.17-57.905,1.909-115.802,5.814-173.572c1.007-14.301,1.753-28.621,2.017-42.956c0.045-7.612,0.631-15.389-1.044-22.87
			c-0.606-3.116-3.315-5.02-6.441-4.895c-6.451-0.621-12.936-0.824-19.416-0.776c-10.987-0.089-27.577,1.01-28.411,15.133
			c-0.843,10.157-1.213,20.358-1.382,30.548c-0.623,46.032-2.285,92.043-2.212,138.084c-0.061,28.833-1.424,57.632-2.347,86.443
			c-0.073,10.335-0.783,20.765-0.59,31.051c-6.321-0.026-12.641-0.094-18.963-0.098c2.021-2.539,0.531-9.212,1.094-11.96
			c0.204-12.657,0.38-25.315,0.577-37.973c-0.089-41.127,1.977-82.178,3.826-123.247c0.3-9.324,0.792-18.645,0.806-27.975
			c-0.241-4.176,0.19-8.837-1.94-12.578c-1.298-2.067-3.907-2.46-6.15-2.713c-4.596-0.425-9.22-0.467-13.831-0.573
			c-17.054,0.207-30.629-2.071-30.469,19.866c-2.59,27.806-3.749,55.701-3.842,83.623c-0.434,28.276,0.919,56.54,1.081,84.814
			c0.203,9.348,0.06,18.8-0.05,28.084c0.121,0.343,0.296,0.619,0.506,0.839c-6.06,0.056-12.12,0.105-18.179,0.181
			c0.207-0.374,0.364-0.775,0.387-1.203c0.004-4.901,0.025-9.802,0.058-14.703c0.124-20.597,0.385-41.193,0.933-61.784
			c0.259-13.951,0.948-27.89,1.209-41.84c-0.309-7.268,0.742-15.707-3.538-21.985c-3.151-2.968-7.9-2.195-11.88-2.443
			c-8.926-0.022-17.925-0.682-26.812,0.332c-3.355,0.402-6.983,1.961-8.256,5.322c-1.385,4.915-0.928,10.192-1.316,15.253
			c-0.795,33.531-3.262,67.013-3.286,100.56c0.146,7.784-0.265,15.664,0.144,23.405c-20.065,0.438-40.128,0.968-60.186,1.591
			C875.265,949.54,804.893,949.549,734.54,948.913z M730.404,1160.642c-28.697-20.326-58.252-42.493-82.435-70.468
			c-11.032-12.688-19.176-23.413-28.053-37.795c-8.875-13.722-15.085-27.412-13.975-42.139c0.609-7.206,4.715-10.182,13.543-15.069
			c0.537-0.246,1.106-0.424,1.658-0.636c8.496-0.123,16.992-0.345,25.488-0.593c12.252,2.899,24.983,9.378,35.49,16.973
			c3.718,2.814,13.219,10.623,18.499,15.57c1.028,0.74,1.864,2.021,3.039,2.499c2.243,8.426,5.563,16.633,8.155,24.911
			c9.296,27.215,21.708,53.143,35.432,78.374c11.139,22.212,22.913,44.163,36.091,65.228
			C766.217,1184.517,747.872,1173.143,730.404,1160.642z M701.78,1020.049c-11.774-10.702-24.666-20.459-39.359-26.593
			c16.46-0.544,32.921-1.13,49.381-1.433c-7.399,4.984-11.007,14.609-10.52,23.52
			C701.383,1017.057,701.564,1018.557,701.78,1020.049z M1304.724,1014.614c3.05,9.144,2.629,16.536,1.801,26.631
			c-1.456,13.615-4.257,25.653-7.296,40.082c-7.35,33.004-15.114,65.976-19.582,99.527c-4.285,33.581-5.802,67.876-1.402,101.519
			c3.762,25.729,9.165,51.207,15.058,76.524c4.912,19.438,9.264,39.031,11.744,58.944c1.738,12.687,3.026,22.279,2.167,35.359
			c-2.226,19.236-9.505,39.742-22.18,56.202c-0.345,0.379-0.907,1.049-0.989,1.4c-0.618,1.096-0.169,2.641,0.951,3.232
			c2.427,1.068,3.964-1.469,5.226-3.186c1.806-2.379,3.501-4.842,5.089-7.372c0.878-1.375,1.704-2.779,2.494-4.202
			c0.248,0.739,0.574,1.382,0.977,1.794c3.708,3.95,2.759,5.974-1.617,10.528c-7.405,6.895-21.636,10.73-34.666,14.114
			c-22.579,5.141-43.241,8.123-66.918,11.41c-29.445,3.943-59.182,5.509-88.846,6.787c-14.639,0.445-29.31,0.327-43.925-0.66
			c-4.015-0.338-16.909-1.34-20.732-3.224c-6.649-2.787-5.838-8.197-3.45-9.657c2.096-1.512,2.993-1.608,6.335-2.601
			c0.305-0.242,4.959-0.969,3.01-0.668c1.028-0.223,2.412-0.307,3.666-0.575c0.548,0.957,1.783,1.471,2.847,1.082
			c1.369-0.436,2.361-1.892,2.059-3.331c-4.442-14.367-9.506-28.806-17.118-41.83c-14.745-21.41-37.159-35.806-55.326-54.051
			c-43.705-41.721-75.185-94.219-116.356-138.242c-20.759-21.707-42.494-42.681-60.438-66.869
			c-9.956-13.97-23.582-34.787-33.284-51.97c-9.822-17.568-18.63-35.679-28.084-53.444c-12.536-22.97-23.069-48.05-30.804-71.011
			c-4.553-14.571-11.607-29.856-7.133-41.966c5.384-15.481,21.786-11.569,38.041-6.574c11.607,4.662,19.15,13.695,27.425,24.133
			c15.565,19.314,28.004,48.246,41.298,71.821c13.799,24.658,30.504,47.729,49.682,68.485c7.781,8.343,15.734,16.523,23.541,24.843
			c2.307,2.127,4.1,5.023,6.669,6.761c0.973,0.428,2.168,0.015,2.89-0.711c2.892-3.382-2.71-6.149-4.404-8.702
			c-5.927-6.297-11.891-12.559-17.863-18.814c-16.167-16.58-28.998-32.884-41.419-51.13c-17.676-25.834-29.418-55.097-45.877-81.629
			c-4.15-5.917-8.394-12.206-13.07-18.106c22.16-2.676,40.941,10.47,57.525,24.426c18.597,15.515,36.477,31.897,53.785,48.835
			c3.996,3.645,7.355,8.173,11.485,11.555c1.695,0.701,3.702-0.857,3.764-2.623c-0.003-0.673-0.172-1.354-0.677-1.831
			c-1.934-2.087-3.882-4.161-5.863-6.205c-16.883-17.103-34.698-33.293-52.924-48.949c-17.938-15.12-38.24-32.323-63.185-30.742
			c-2.439,0.412-5.374-0.095-7.548,1.148c-7.563-8.682-16.366-15.972-27.703-19.04c56.618,0.078,113.248,0.858,169.866,0.72
			c-4.876,3.355-9.006,7.796-11.489,13.185c-6.352,13.177-1.315,27.865,1.946,41.189c7.801,28.348,15.445,56.851,17.983,86.245
			c2.297,27.929,4.799,55.083,7.614,84.2c0.647,6.586,1.375,21.364,2.325,30.503c0.954,2.702,5.128,1.412,5.13-1.256
			c-1.538-24.984-3.996-49.879-6.525-74.776c-1.543-17.72-2.585-37.816-5.426-57.259c-3.585-27.733-12.498-54.32-18.909-81.445
			c-2.632-11.077-3.026-19.875,1.864-27.918c3.183-5.446,9.299-10.024,15.129-12.036c1.004-0.516,3.25-0.303,4.244-0.23
			c0.664,0.101,1.316,0.267,1.965,0.436c0.227,0.009,0.792,0.201,1.206,0.352c51.236,22.778,53.687,114.234,66.073,166.287
			c2.432,9.876,5.22,19.669,8.348,29.349c-1.221,1.156-1.6,3.322,0.161,4.249c0.463,0.172,0.936,0.318,1.4,0.486
			c10.286,30.565,24.161,59.887,42.196,86.697c10.267,15.225,20.241,31.257,33.148,44.291c2.423,0.96,5.054-2.467,3.088-4.454
			c-13.396-15.059-23.416-30.135-34.701-47.723c-16.007-24.547-27.981-49.963-37.209-76.571c17.265,5.521,35.331,8.51,53.367,9.989
			c26.205,1.974,54.581-1.705,76.212-17.651c11.669-8.436,21.718-19.028,29.3-31.281c9.408-15.719,15.835-33.03,22.772-49.933
			c15.475-38.164,25.791-82.542,58.175-104.671c2.972-1.895,6.403-3.34,10.046-4.348c8.865,0.254,17.731,0.513,26.596,0.77
			C1296.84,1001.96,1302.718,1006.997,1304.724,1014.614z M939.92,992.402c25.723-0.214,51.443-0.653,77.157-1.518
			c64.507,0.406,128.954,4.128,193.435,5.838c13.487,0.557,26.978,0.988,40.469,1.392c-7.055,4.183-13.191,10.051-18.256,16.494
			c-10.176,11.594-16.894,25.53-22.958,39.586c-15.593,35.776-25.124,74.016-45.488,105.571
			c-8.779,13.372-25.975,27.71-39.729,33.627c-12.341,5.095-22.461,6.397-35.189,7.839c-20.127,1.355-37.536-1.288-57.68-5.498
			c-7.447-1.549-14.562-3.682-20.841-5.783c-3.552-10.826-6.687-21.844-9.456-33.091
			C989.738,1107.609,987.467,1021.975,939.92,992.402z M1357.573,944.26c0.367-0.441,0.612-0.985,0.613-1.617
			c0.193-34.146,1.618-68.262,2.648-102.388c0.86-32.155,0.654-64.324,1.127-96.485c0.246-14.396,0.55-28.792,0.808-43.188
			c0.183-4.854-0.162-10.468,1.15-13.242c1.886-5.902,27.165-9.745,38.114-8.857c9.947,0.744,4.873,54.646,5.312,72.094
			c-1.429,54.135-1.801,108.287-4.162,162.396c-0.372,9.379-0.874,18.752-1.331,28.127c0.062,0.679-0.018,1.493-0.111,2.336
			c-2.477,0.22-4.953,0.451-7.432,0.64c-12.328,1.02-24.667,1.728-37.012,2.238C1357.562,945.658,1357.617,944.967,1357.573,944.26z
			 M1293.049,750.461c1.108-38.668,1.156-77.37,2.532-116.024c-0.187-10.348,21.723-9.951,37.733-10.088
			c3.452,0.057,4.104,0.263,4.825,0.823c3.787,3.482,4.195,13.164,4.486,19.946c0.248,18.569-0.726,37.123-1.535,55.668
			c-3.239,65.53-3.973,131.146-5.448,196.731c-0.333,11.913-0.461,23.838-1.239,35.733c-0.3,4.36-0.681,8.715-1.171,13.059
			c-0.015,0.268,0.045,0.527,0.114,0.782c-13.348,0.275-26.703,0.32-40.06,0.239c0.076-0.378,0.121-0.771,0.145-1.174
			c0.395-0.462,0.667-1.026,0.682-1.664C1290.832,879.88,1293.369,815.127,1293.049,750.461z M1221.998,711.814
			c-0.692-26.471,1.332-62.436,5.008-83.406c3.426-7.247,18.98-5.635,31.016-4.271c3.499,0.569,8.098,0.726,9.847,1.697
			c0.021,0.033,0.042,0.064,0.062,0.1c0.004,0.05,0.347,1.119,0.413,1.527c2.37,19.351,0.009,44.282-0.013,66.016
			c-0.877,67.731-4.776,135.455-3.294,203.196c0.468,16.773,0.884,33.548,1.065,50.326c-15.804-0.285-31.609-0.693-47.409-1.115
			c0.226-0.379,0.384-0.799,0.396-1.263C1218.435,867.005,1221.656,789.42,1221.998,711.814z M1148.803,943.654
			c0.567-31.609,2.148-63.186,2.81-94.791c0.476-43.486,0.684-86.97,2.037-130.441c0.805-20.155-0.474-48.83,2.733-63.696
			c3.086-6.761,17.073-6.122,29.392-6.08c4.72-0.066,11.065,0.768,12.706,0.796c0.134,0.076,0.215,0.119,0.295,0.162
			c0.01,0.01,0.033,0.031,0.046,0.043c0.175,0.278,0.32,0.572,0.436,0.88c0.102,0.347,0.27,0.927,0.299,1.195
			c2.297,23.654-1.035,53.143-2.426,79.118c-3.753,61.216-5.143,122.528-4.775,183.854c-0.004,9.936-0.001,19.871,0,29.807
			c-0.002,0.223-0.008,0.46-0.015,0.698c-7.606-0.189-15.21-0.368-22.812-0.515c-6.969-0.074-13.938-0.071-20.907-0.108
			C1148.737,944.293,1148.803,943.985,1148.803,943.654z M1080.074,855.405c-0.412-37.293,0.589-74.613,4.129-111.752
			c0.221-6.683,1.688-8.176,4.674-9.547c7.64-2.474,24.787-1.171,32.534-0.899c3.58,0.553,2.977,0.381,3.526,1.461
			c1.624,7.626,0.26,24.864-0.023,36.873c-2.571,49.272-3.906,98.56-4.2,147.899c-0.116,7.834-0.195,15.669-0.443,23.501
			c-0.052,0.555,0.161,1.068,0.478,1.505c-13.637,0.002-27.273,0.061-40.91,0.177c0.635-0.486,1.103-1.187,1.103-2.06
			C1081.931,913.533,1080.348,884.447,1080.074,855.405z M1014.779,810.273c0.424-3.57,0.271-3.392,6.898-4.132
			c10.383-0.046,30.185-0.798,31.663,1.237c2.931,6.692,2.003,17.06,1.882,27.169c-0.62,16.881-1.058,33.768-1.41,50.656
			c-0.287,14.613-0.422,29.229-0.522,43.844c-0.033,4.956-0.054,9.912-0.059,14.867c-0.035,0.356,0.034,0.687,0.155,0.994
			c-14.193,0.192-28.385,0.445-42.576,0.743c0.051-0.196,0.118-0.386,0.118-0.601
			C1010.446,900.09,1013.073,855.183,1014.779,810.273z M1028.997,950.633c52.753-0.731,105.529-1.624,158.278-0.252
			c69,1.616,138.243,4.702,207.122-1.041c2.795-0.191,5.586-0.421,8.374-0.674c0.346,0.191,0.765,0.327,1.316,0.362
			c0.587-0.039,1.118-0.299,1.577-0.649c16.966-1.67,33.809-4.386,50.573-7.5c0.243-0.011,0.469-0.101,0.698-0.175
			c0.578,10.455,2.418,24.032-0.996,29.521c-12.037,22.317-48.412,22.644-75.814,24.468c-28.187,1.253-56.396,0.54-84.568-0.686
			c-1.517-0.027-3.034-0.069-4.551-0.099c-7.385-2.479-15.754-2.844-23.099-1.819c-1.873,0.245-3.701,0.623-5.489,1.11
			c-16.301-0.476-32.599-1.051-48.896-1.687c-65.006-1.725-129.975-5.404-195.007-5.939c-93.844,3.14-187.759,0.998-281.64,0.953
			c-29.827-0.109-59.652,1.23-89.474,2.104c-7.565-1.726-15.411-2.425-22.982-0.536c-1.29,0.302-2.553,0.692-3.795,1.142
			c-16.951,0.238-33.9,0.144-50.849-0.647c-14.262-0.8-30.422-2.555-46.308-5.112c-9.535-1.695-17.709-2.326-25.125-7.377
			c-6.612-5.083-12.508-17.347-10.244-28.384c-0.001,0.01,0.03-0.141,0.063-0.326c-0.005,0.027-0.012,0.054-0.017,0.082
			c-0.022,0.11-0.028,0.144-0.035,0.184c0.034-0.166,0.053-0.333,0.091-0.498c-0.01,0.071-0.025,0.153-0.039,0.232
			c0.123-0.676,0.264-1.349,0.419-2.018c0.137-0.484,0.274-1.036,0.316-1.577c0.926-2.397,1.314-3.259,2.142-4.925
			c37.645,4.555,75.271,9.817,113.143,12.064c40.011,3.108,80.131,2.484,120.221,3.105c55.289,0.654,110.597,0.888,165.882-0.139
			C936.533,953.298,982.743,951.038,1028.997,950.633z"/>
		<path d="M1465.303,1127.027c-0.023,0.001-0.045,0.001-0.068,0.002c0.029,0.007,0.04,0.013,0.088,0.017
			C1465.318,1127.042,1465.309,1127.032,1465.303,1127.027z"/>
		<polygon points="1464.748,1127.087 1464.747,1127.087 1464.753,1127.086 		"/>
		<path d="M763.421,607.78c-20.72,16.345-52.625,11.336-75.737,27.257c-11.185,7.253-19.277,17.971-28.22,27.637
			c-9.249,9.282-16.831,15.544-28.525,22.173c-5.957,3.083-11.751,5.253-19.622,7.205c-6.647,1.748-14.182,3.386-18.334,9.382
			c-6.574,10.162,2.187,21.404,8.618,29.237c7.14,8.77,18.492,12.662,28.737,16.611c20.931,7.333,43.76,1.116,61.39,10.288
			c20.486,11.421,37.927,28.117,60.075,36.609c9.953,4.029,21.41,7.808,31.912,3.636c6.655-2.605,10.504-8.909,15.484-13.649
			c2.634-2.46,6.712-4.577,10.024-4.631c5.139-0.168,15.48,4.441,22.943,2.028c6.37-1.75,9.215-8.099,11.857-13.543
			c3.017-4.699,4.345-6.634,9.116-9.231c4.164-2.694,12.309-2.132,19.949-4.28c5.106-1.651,9.076-6.281,10.191-11.496
			c1.022-4.592-0.049-9.275-0.554-13.869c-7.378-55.253-25.858-110.753-68.86-148.467c-5.002-4.942-10.244-9.628-15.61-14.17
			c-0.469-0.497-1.165-0.704-1.83-0.677c-1.011,0.03-1.872,0.679-2.36,1.522c-1.529-1.074-3.748,0.358-4.726,2.178
			C780.358,583.062,774.483,600.952,763.421,607.78z M774.531,604.316c8.013-9.821,12.184-22.085,19.331-32.453
			c0.242-0.266,0.614-0.708,0.843-1.072c15.971,13.926,32.909,30.032,43.783,45.768c24.097,36.544,36.054,82.048,39.942,123.355
			c-0.519,5.982-2.788,9.209-10.099,10.405c-0.527,0.08-1.349,0.207-1.614,0.247c-3.525,0.532-7.132,0.615-10.582,1.57
			c-3.518,1.096-6.934,2.722-9.76,5.114c-11.876,10.836-7.765,21.373-21.505,19.56c-4.838-0.5-9.448-2.394-14.324-2.566
			c-3.973-0.107-7.826,1.394-11.167,3.449c-4.723,3.043-7.936,7.738-11.883,11.633c-3.894,3.813-8.498,5.496-16.073,4.888
			c-15.921-2.014-36.231-13.69-52.092-25.134c-8.721-5.923-17.051-12.649-26.641-17.139c-8.574-3.69-17.906-5.03-27.171-5.467
			c-15.442-0.245-28.943-1.354-42.054-7.76c-8.535-3.977-14.495-6.755-19.695-14.163c-4.352-5.509-9.874-13.8-7.139-19.358
			c2.3-7.203,23.214-8.173,35.575-15.3c10.552-5.611,20.057-13.185,28.633-21.474c6.449-6.384,11.939-13.66,18.401-20.033
			c10.786-11.022,23.087-16.407,39.601-19.957c10.219-2.533,20.807-3.776,30.716-7.435
			C758.951,617.458,767.932,611.959,774.531,604.316z"/>
		<path d="M732.538,868.76c-0.307,0.119-1.357,0.531-1.835,0.609c-0.075,0.007-0.201,0.022-0.465,0.058
			c-2.873-0.029-9.533-1.144-14.513-1.128c-9.388-0.731-17.308,3.047-20.453,12.329c-2.228,7.646-3.101,15.026-7.162,18.355
			c-0.432,0.305-1.166,0.813-1.482,0.939c-1.464,0.991-3.531,1.086-6.46,2.717c-3.248,1.812-3.796,6.478-0.792,8.818
			c2.959,2.518,6.827,3.55,10.424,4.829c32.984,10.738,69.765-5.075,98.661-20.844c18.509-10.518,34.792-24.882,48.616-41.006
			c5.282-6.635,9.908-13.787,14.054-21.18c1.387-2.5,2.64-5.07,3.89-7.64c0.37-0.594,0.495-1.311,0.363-1.992
			c-0.306-1.428-1.634-1.969-2.865-1.747c-3.792-3.232-8.333-5.878-13.145-7.241c-8.955-2.109-18.419-1.736-27.458-0.325
			c-9.957,1.07-20.109,7.893-27.994,8.301c-5.385,0.391-10.546-1.383-15.852-3.747c-2.985-1.296-6.068-2.669-9.382-2.651
			c-3.981-0.01-8.76,1.62-9.826,5.893c-0.77,2.281,0.12,6.686,0.033,6.908c0.268,4.108-0.034,8.245-0.714,12.301
			C745.906,851.104,742.295,864.751,732.538,868.76z M749.737,854.462c2.199-6.036,3.929-12.296,4.387-18.725
			c0.709-5.388-0.822-10.948,0.022-13.168c0.009-0.008,0.009-0.01,0.018-0.018c0.076-0.058,0.101-0.082,0.153-0.123
			c0.125-0.078,0.257-0.156,0.372-0.223c2.345-0.891,3.366-0.777,5.23-0.512c4.471,1.01,10.731,4.956,17.202,5.85
			c9.003,1.837,17.451-2.37,25.599-5.592c6.773-2.322,10.747-2.846,18.156-3.357c10.476-0.253,17.631-0.333,26.2,6.038
			c0.705,0.382,1.338,0.976,2.021,1.434c-22.083,43.773-65.091,72.47-111.76,85.133c-10.334,2.569-22.102,4.329-31.872,3.047
			c-8.571-1.155-20.783-4.638-22.64-7.308c0.112-0.066,0.227-0.135,0.356-0.195c1.768-0.383,8.972-3.083,11.081-7.247
			c3.31-4.985,4.186-10.983,5.677-16.654c1.659-5.542,4.995-8.364,9.403-9.008c7.523-0.732,11.685,0.119,18.8,0.856
			c4.008,0.41,7.71-1.74,10.907-3.918C744.38,866.751,747.572,860.651,749.737,854.462z"/>
		<path d="M685.497,809.042c-11.84,3.933-20.417,6.268-31.836,3.396c-7.925-1.814-16.521-7.087-25.109-11.709
			c-3.878-1.892-7.869,0.155-11.557,1.503c-8.238,2.76-12.729,3.127-19.985-1.333c-15.963-9.694-15.912-29.977-42.821-28.133
			c-10.189,0.8-22.412,6.651-26.443,16.533c-0.573,1.762-1.958,4.786-0.664,6.366c-0.066,0.334-0.09,0.678-0.01,1.03
			c8.574,30.554,27.128,57.544,50.76,78.479c10.447,9.067,21.768,17.312,34.267,23.322c11.303,5.027,23.469,8.465,35.786,9.703
			c7.649-0.35,8.894-7.744,8.24-14.006c-0.131-5.494-1.646-11.859-1.534-15.516c0.061-0.184,0.128-0.4,0.18-0.584
			c0.37-0.516,1.164-1.248,3.256-2.307c0.275-0.098,0.693-0.258,0.913-0.364c1.867-0.665,3.498-1.835,4.865-3.257
			c1.887-1.883,3.607-4.019,4.514-6.555c0.96-2.877,0.873-5.951,0.712-8.941c-0.885-11.856-2.942-17.046,6.521-21.295
			c7.026-2.915,23.851-4.96,23.292-19.223C698.459,808.896,691.501,807.207,685.497,809.042z M692.871,820.808
			c-1.197,2.656-4.861,5.375-10.781,7.013c-8.488,1.96-18.526,6.619-19.207,16.482c-0.095,6.726,1.113,10.435,0.949,16.417
			c-0.137,4.104-0.754,4.67-2.844,7.152c-2.755,2.656-1.388,1.697-4.377,2.999c-11.365,4.693-6.224,12.664-5.901,21.979
			c0.517,7.557,0.542,10.913-3.95,9.919c-23.471-2.965-43.51-13.398-60.485-27.697c-17.205-14.559-30.702-30.075-41.187-48.894
			c-4.475-8.418-8.693-18.115-11.052-25.346c-0.943-1.96-0.996-4.955-2.321-6.68c0.25-0.911,0.372-1.937,0.712-2.78
			c0.459-1.926,1.689-3.26,2.335-4.227c4.508-4.735,8.681-6.798,15.883-8.727c7.57-1.377,18.631-0.055,24.473,7.1
			c5.63,6.557,10.035,14.459,17.499,19.174c7.921,5.834,17.221,5.964,26.12,2.348c4.67-1.741,5.622-2.257,7.468-1.373
			c9.381,5.302,18.92,11.038,29.75,12.754c6.93,1.157,14.053,0.434,20.828-1.291c3.721-0.883,7.226-2.54,10.982-3.283
			c0.394-0.047,1.228-0.157,1.546-0.171c1.617,0.005,0.594-0.124,2.397,0.294c0.137,0.077,0.305,0.165,0.451,0.236
			C694.026,816.086,693.979,817.208,692.871,820.808z"/>
		<path d="M608.135,561.868c-16.869,9.37-32.705,20.757-46.238,34.557c-19.471,19.91-32.593,45.301-40.58,71.818
			c-5.617,17.197-6.472,35.409-5.84,53.366c0.315,6.695,1.168,13.351,2.252,19.961c0.184,0.993,1.11,1.817,2.123,1.815
			c0.711,0.013,1.251-0.151,1.689-0.407c0.106,0.005,0.208,0.028,0.319,0.017c9.572,0.403,18.389,1.192,29.184,1.75
			c1.273-0.032,2.669,0.509,3.86-0.06c0.041-0.015,0.074-0.043,0.114-0.06c3.185-0.371,2.762-3.898,2.836-6.308
			c0.083-6.511-0.354-13.023-0.05-19.532c0.735-14.432,3.868-27.209,9.809-41.471c12.348-29.359,33.3-59.888,60.289-77.676
			c15.824-9.97,31.001-15.937,49.859-20.187c17.214-4.145,35.348-4.297,53.641-0.267c7.413,1.378,11.555,3.104,17.985,5.647
			c0.86,0.13,1.621-0.256,2.185-0.847c2.632,0.463,4.287-4.502,5.567-6.525c3.927-7.584,8.157-15.112,11.525-22.939
			c0.114-0.506,0.043-0.926-0.095-1.304c0.487-1.292,0.159-2.798-1.617-3.23c-39.396-10.383-81.272-16.227-121.179-5.138
			C632.453,548.56,620.122,555.096,608.135,561.868z M731.618,547.766c10.566,1.935,21.044,4.327,31.479,6.87
			c-4.053,8.376-8.309,16.658-12.822,24.795c-40.497-16.759-88.019-6.935-124.414,15.524
			c-30.803,20.561-52.358,53.023-65.623,87.156c-6.624,17.082-8.599,35.528-7.665,53.733c0.177,1.002,0.008,2.357-0.11,3.702
			c-4.23-0.295-8.464-0.527-12.696-0.786c-6.192-0.295-10.338-0.828-17.2-1.043c-0.726-4.642-1.324-9.305-1.665-13.992
			c-0.687-14.728-0.462-35.515,4.414-50.781c10.995-40.779,34.644-74.793,69.396-97.035c15.025-9.578,30.675-18.54,45.706-24.005
			c12.758-4.256,22.711-5.777,35.78-7.056C695.959,543.107,712.64,544.367,731.618,547.766z"/>
		<path d="M302.692,1306.471c23.706,9.974,49.804,13.836,75.372,10.942c4.599-0.663,9.438-0.91,13.747-2.743
			c7.344-4.456,8.294-14.017,9.652-21.743c1.229-9.16,1.652-18.507,0.84-27.721c-1.428-9.65-15.326-8.024-22.616-9.168
			c-25.702-2.199-53.084-5.036-70.188-22.111c-9.347-9.058-14.587-18.432-17.682-30.31c-5.208-16.023-6.056-34.02-2.862-48.145
			c5.89-30.62,26.798-53.857,54.063-64.462c1.3-0.663,2.948-0.823,4.271-1.456c1.577,0.643,3.94-0.67,3.927-2.61
			c-0.085-10.723,0.182-21.456-0.125-32.173c0.36-5.155-5.219-6.791-9.456-6.677c-36.508,2.072-66.603,28.506-85.672,58.05
			c-19.718,29.69-26.556,66.387-25.279,101.59C234.641,1254.288,259.351,1288.763,302.692,1306.471z M249.851,1127.605
			c15.44-34.103,48.348-68.866,85.977-73.854c4.902-0.36,7.37-0.804,9.777,0.615c0.836,7.908,0.025,19.957,0.333,30.26
			c-24.56,7.952-45.552,26.406-55.807,50.186c-9.477,21.218-10.841,45.745-4.214,67.981c2.759,9.833,6.114,19.782,12.95,27.59
			c16.414,22.495,45.565,27.896,71.664,30.213c8.388,0.985,22.2,0.986,25.624,3.886c1.441,0.838,1.156,6.009,1.242,11.585
			c-0.432,13.258-1.41,30.674-8.263,34.281c-19.532,4.373-49.729,3.689-73.146-4.76c-43.036-14.084-71.747-43.266-79.093-90.043
			C233.6,1186.837,237.756,1155.916,249.851,1127.605z"/>
		<path d="M384.484,1087.914c0.758,2.225,3.701,2.583,5.442,3.885c4.908,2.698,9.799,5.447,14.384,8.675
			c3.971,2.906,8.63,6.084,12.944,10.947c4.292,4.557,5.52,7.456,9.547,12.548c3.015,3.499,7.532,1.037,10.096-1.723
			c5.618-5.462,11.869-10.226,17.502-15.662c2.941-2.811,3.962-7.163,2.06-10.841c-2.803-7.586-7.151-14.57-12.601-20.536
			c-10.021-11.184-23.886-17.7-38.102-21.825c-7.021-1.776-14.591-2.951-21.677-1.004c-2.33,0.823-2.266,4.468,0.05,4.941
			c-0.179,0.344-0.311,0.712-0.32,1.113c0.343,7.273,0.524,14.552,0.656,21.832c0.286,1.957-0.277,4.253,0.147,6.198
			C384.441,1086.925,384.376,1087.423,384.484,1087.914z M404.93,1058.799c7.005,2.121,14.175,4.935,21.789,9.293
			c5.858,3.66,11.657,8.747,16.845,15.427c2.434,2.466,8.71,15.082,8.62,16.588c0.663,1.875-3.956,5.405-8.727,9.536
			c-4.195,3.354-10.63,9.945-12.299,10.73c-2.387-2.322-4.703-7.064-8.045-10.671c-7.805-9.388-18.406-15.999-28.964-21.891
			c-1.464-0.691-2.861-1.647-4.319-2.399c-0.055-5.243-0.161-10.486-0.302-15.727c-0.109-3.846-0.244-7.692-0.425-11.536
			c0.028-0.467-0.124-0.915-0.353-1.32C394.225,1056.304,398.637,1057.179,404.93,1058.799z"/>
		<path d="M418.202,1300.514c4.379,8.967,14.035,5.796,21.001,1.997c10.635-5.087,20.391-11.87,29.137-19.758
			c14.486-12.55,22.732-30.667,28.258-48.68c10.134-35.901,8.251-78.179-14.248-109.123c-2.681-3.538-5.594-6.889-8.751-10.011
			c-0.472-0.492-1.164-0.708-1.831-0.677c-0.464,0.012-0.89,0.174-1.273,0.406c-1.064-0.308-2.4,0.106-3.466,0.443
			c-2.741,0.758-5.424,1.734-7.979,2.984c-6.086,3.089-11.218,8.133-14.282,14.242c-1.821,3.987-4.074,8.305-3.287,12.812
			c2.254,9.41,5.322,18.626,7.376,28.093c5.531,25.109,5.281,46.172-9.162,64.275c-7.414,9.549-17.058,17.225-24.036,27.107
			c-2.781,4.632-1.399,10.341-1.338,15.462C414.97,1286.972,415.259,1294.145,418.202,1300.514z M419.631,1267.958
			c0.482-1.445,3.439-4.994,6.687-8.408c11.015-11.516,22.986-23.025,28.044-38.577c7.171-22.406,0.755-46.459-5.289-68.407
			c-1.047-4.121-2.844-8.584-2.406-11.106c0.723-3.113,4.082-11.07,7.966-14.143c4.014-3.863,8.187-5.848,15.324-7.647
			c0.115-0.033,0.22-0.09,0.329-0.138c30.002,30.442,32.503,79.995,19.3,119.706c-4.177,11.918-10.422,24.46-17.604,32.833
			c-12.007,12.866-26.993,23.441-42.174,28.804c-6.377,1.955-8.792-5.553-9.819-17.031
			C419.538,1279.094,418.802,1271.711,419.631,1267.958z"/>
		<path d="M628.485,1308.434c5.688,10.381,20.03,13.409,28.899,5.235c5.295-4.856,7.506-12.842,6.238-19.831
			c-1.465-7.443-7.025-13.325-13.512-16.9c-0.409-0.191-0.81-0.438-1.218-0.669c-0.367-0.842-1.137-1.475-2.238-1.381
			c-0.796-0.046-1.547-0.002-2.303,0.031c-3.31-10.659-6.102-21.498-10.247-31.876c-2.463-5.841-5.007-12.741-11.196-15.515
			c-5.052-1.686-10.548-1.377-15.804-1.869c-15.057-0.955-30.117-1.865-45.187-2.592c-17.969-0.96-36.161-2.185-54.082-1.222
			c-2.518,0.888-2.287,5.222,0.722,5.026c20.787-0.346,41.53,0.757,62.273,1.965c16.437,1.056,34.225,1.497,48.587,3.286
			c8.945,2.523,13.797,26.161,18.244,39.479c0.574,1.28,0.812,2.863,1.218,4.324
			C626.487,1280.123,621.948,1296.281,628.485,1308.434z M643.93,1280.265c0.277-0.028,0.569-0.028,0.859-0.031
			c0.493,0.438,1.136,0.738,1.737,1.048c1.383,0.738,2.726,1.555,3.993,2.48c5.533,3.779,9.275,11.309,8,17.163
			c-1.893,12.12-13.71,15.423-21.551,8.968C625.514,1299.995,630.982,1279.986,643.93,1280.265z"/>
		<path d="M358.198,974.749c3.155-2.894,5.188-6.905,6.069-11.149c2.227,0.1,4.714-0.411,6.783-0.193
			c14.171,0.218,27.941-1.876,40.304,1.045c0.199,0.063,0.247,0.074,0.245,0.069c0.16,0.061,0.381,0.143,0.772,0.288
			c0.464,0.186,0.889,0.453,1.3,0.737c0.07,0.064,0.132,0.121,0.181,0.166c0.727,6.596-0.106,18.597,0.082,27.399
			c0.034,14.158-0.493,28.441,0.869,42.523c0.94,2.739,5.139,1.385,5.13-1.256c-1.346-19.755-0.584-39.578-0.572-59.362
			c-0.482-4.681,1.893-11.4-2.936-14.309c-3.768-2.136-8.259-2.487-12.498-2.838c-8.654-0.46-17.328,0.046-25.987,0.122
			c-4.397,0.082-8.794,0.16-13.192,0.236c-0.031-1.116-0.114-2.226-0.311-3.309c-1.465-7.443-7.025-13.325-13.512-16.899
			c-0.409-0.191-0.81-0.438-1.218-0.669c-0.367-0.842-1.137-1.475-2.238-1.381c-18.115-1.054-25.936,19.107-18.17,33.546
			C334.988,979.895,349.33,982.923,358.198,974.749z M344.745,941.345c0.277-0.028,0.569-0.028,0.859-0.031
			c0.493,0.438,1.136,0.738,1.737,1.048c1.383,0.738,2.726,1.555,3.993,2.48c5.533,3.779,9.275,11.309,8,17.163
			c-1.893,12.12-13.71,15.423-21.551,8.968C326.329,961.075,331.796,941.066,344.745,941.345z"/>
		<path d="M213.15,1186.054c-10.642-0.5-21.284-1.034-31.935-1.306c-5.741-0.034-12.385-0.65-16.79,3.77
			c-4.187,4.212-4.954,10.342-5.923,15.931c-1.757,9.744-2.173,19.66-2.417,29.539c-0.064,24.411,0.281,48.822,0.447,73.232
			c0.002,6.444-0.086,12.889-0.216,19.332c-15.382,1.753-21.599,20.031-14.398,33.419c5.688,10.381,20.03,13.409,28.899,5.235
			c5.295-4.856,7.506-12.842,6.238-19.831c-1.465-7.443-7.025-13.324-13.512-16.899c-0.409-0.191-0.81-0.438-1.218-0.669
			c-0.147-0.338-0.376-0.624-0.648-0.861c0.072-1.671-0.088-3.47,0.028-4.691c0.101-6.197,0.133-12.395,0.117-18.592
			c-0.145-25.127-0.746-50.268-0.287-75.391c0.738-12.991,1.412-30.147,6.344-36.115c3.438-3.979,20.516-1.475,31.287-1.44
			c4.569,0.195,9.138,0.399,13.705,0.631c1.075-0.068,2.134-0.766,2.518-1.785C216.254,1188.009,214.976,1185.867,213.15,1186.054z
			 M163.954,1335.299c5.533,3.779,9.275,11.309,8,17.163c-1.893,12.12-13.71,15.423-21.551,8.968
			c-11.453-9.897-5.985-29.906,6.963-29.627c0.277-0.028,0.569-0.028,0.859-0.031c0.493,0.438,1.136,0.738,1.737,1.047
			C161.344,1333.558,162.687,1334.375,163.954,1335.299z"/>
		<path d="M975.343,778.818c13.501-1.13,27.111-0.762,40.634-0.184c5.236,0.273,10.469,0.601,15.699,0.985
			c3.026,0.317,6.174,0.201,8.88-1.341c14.789-8.75,16.906-27.856,21.822-42.844c5.037-18.144,10.861-36.059,17.245-53.771
			c3.082-11.076,12.744-16.996,22.681-11.794c4.756,2.325,6.717,4.938,11.422,8.677c7.787,4.078,12.879-1.187,15.294-8.354
			c7.796-21.451,15.418-39.019,26.314-58.976c5.398-9.357,9.751-20.562,16.172-26.648c0.954-0.841,4.911-1.68,7.791,1.098
			c5.226,4.365,7.2,7.222,10.461,12.655c3.022,5.651,10.008,6.858,15.869,6.253c4.853-0.678,9.089-3.421,13.376-5.624
			c8.301-4.697,16.373-9.798,24.316-15.076c6.749-4.346,7.842-5.751,14.574-3.863c2.623,0.634,6.948,4.215,8.616,7.242
			c5.609,8.992,17.794,8.025,27.082,8.918c7.726-0.094,15.894,1.743,23.368-0.632c11.742-4.157,19.234-26.649,20.636-28.137
			c0.003,0.001,0.007,0.002,0.011,0.003c0.096,0.009,0.182,0.057,0.274,0.079c1.448,0.867,0.976,0.53,2.334,2.495
			c3.011,5.708,4.025,9.98,5.674,16.978c2.173,8.91,15.519,7.351,22.649,7.528c10.64-0.375,21.274-0.889,31.915-1.246
			c1.921-0.261,4.179,0.461,5.703-0.989c0.958-0.905,1.107-2.499,0.316-3.515c0.355-0.335,0.636-0.748,0.764-1.235
			c0.56-1.859-1.156-3.284-1.892-4.841c-2.418-4.236-5.399-8.103-8.152-12.119c-0.314-0.598-0.905-1.032-1.565-1.168
			c-2.145-0.487-4.234,2.037-3.177,4.024c3.385,4.756,6.723,9.534,9.647,14.591c-9.516-0.149-19.2,0.902-28.741,1.043
			c-7.819,0.18-13.19,0.843-19.71-1.14c-2.182-1.379-1.814-0.212-2.602-2.716c-1.065-5.05-2.526-10.025-4.534-14.783
			c-1.248-3.018-2.854-6.232-5.918-7.737c-7.257-3.25-9.508,7.224-10.508,8.918c-4.754,9.646-9.523,18.315-16.625,19.641
			c-4.86,0.507-16.86-0.232-24.259-0.615c-3.191-0.048-12.153-1.066-15.741-3.756c-0.071-0.077-0.18-0.174-0.369-0.294
			c-1.956-1.934-3.432-5.002-6.628-7.88c-3.733-3.279-8.865-5.029-13.822-4.701c-7.643,1.037-13.324,7.174-19.875,10.775
			c-6.586,4.126-13.166,8.297-20.089,11.841c-3.836,1.836-5.085,2.894-9.69,2.821c-5.208-0.04-7.492-1.535-10.816-7.692
			c-6.713-10.339-18.348-20.268-27.852-6.696c-10.545,16.856-19.336,34.854-27.916,52.781c-5.4,11.496-9.682,25.769-14.257,35.131
			c-1.39,1.92-2.074,2.209-5.234,1.054c-1.977-1.458-7.04-6.646-11.359-8.666c-11.407-6.844-26.337,0.448-30.018,12.745
			c-7.104,19.148-13.294,38.63-18.775,58.304c-3.661,13.374-8.366,30.13-15.456,35.429c-4.823,4.42-9.082,2.101-17.248,1.992
			c-12.407-0.859-24.847-1.089-37.281-0.888c-3.721,0.08-7.445,0.24-11.148,0.625c-1.082,0.069-2.128,0.764-2.519,1.785
			C972.258,776.841,973.509,779.022,975.343,778.818z"/>
		<path d="M1418.924,570.766c0.633,1.076,1.651,2.182,3.028,1.792c1.765-0.224,3.036-2.402,2.172-4.014
			c-4.003-5.526-7.982-11.069-12.023-16.567c-2.905-3.945-5.82-7.882-8.644-11.885c-0.315-0.599-0.905-1.031-1.565-1.168
			c-2.144-0.486-4.234,2.036-3.177,4.024C1405.384,552.269,1412.257,561.442,1418.924,570.766z"/>
		<path d="M1860.846,1435.836c-4.829-17.687-23.465-27.739-38.977-35.001c-10.406-4.693-24.38-5.508-32.794-9.341
			c-0.823-0.411-1.478-0.765-2.021-1.085c7.045-0.332,13.692,1.314,21.772,3.034c10.591,2.19,21.144,7.113,32.148,5.374
			c16.239-1.902,14.242-23.467,8.963-34.445c-2.553-4.254-7.268-6.757-11.766-8.501c-4.076-1.574-8.292-2.453-12.566-2.853
			c5.017-0.738,9.71-2.518,12.548-6.925c2.818-5.054,2.764-11.091,1.89-16.659c-0.999-7.775-3.894-15.15-7.272-22.175
			c-1.464-3.032-3.012-6.027-4.772-8.899c-0.077-0.149-0.213-0.246-0.319-0.371c0.664-2.02-1.573-4.155-3.716-2.783
			c-8.021,5.993-12.367,10.69-20.286,15.895c-6.501,4.527-11.748,8.393-18.028,10.22c-4.557,1.364-6.128,1.436-8.898-1.24
			c-0.033-0.109-0.08-0.283-0.116-0.466c0.001-0.287-0.005-1.038,0.072-1.349c0.042-2.848,11.907-10.406,20.951-14.157
			c10.105-3.579,30.774-13.55,28.247-30.218c-1.404-9.052-7.43-17.641-12.865-24.837c-5.515-5.702-15.364-5.877-21.147-0.474
			c-9.179,8.713-13.874,19.557-22.903,24.836c-7.628,4.261-12.719,3.693-8.763-1.65c7.734-8.527,34.832-21.082,32.53-40.974
			c-0.099-4.228-1.328-8.317-2.85-12.233c-0.377-1.127-0.851-2.416-1.61-3.185c-0.345-2.193-3.673-2.58-4.836-0.44
			c-4.696,9.285-14.948,15.293-23.122,17.063c-1.297,0.466-4.372-3.786-3.664-5.232c2.232-6.843,19.738-17.986,18.965-31.273
			c0.03-8.716-8.133-12.463-15.751-9.948c-5.166,1.257-11.522,6.844-13.329,6.853c-0.025-0.023-0.034-0.032-0.068-0.062
			c-0.021-0.026-0.024-0.029-0.042-0.052c-0.024-0.036-0.031-0.048-0.063-0.094c-0.169-0.309-0.306-0.636-0.435-0.964
			c-0.022-0.072-0.038-0.129-0.071-0.233c-0.949-3.177,1.224-10.792,1.339-16.133c0.505-9.908-8.13-18.726-17.875-19.308
			c-5.855-0.577-13.042-0.142-16.892-0.726c-3.264-0.309-6.351-1.733-9.636-1.79c-3.442,0.143-5.406,3.472-5.341,6.661
			c-0.009,11.03,7.287,20.208,11.737,29.838c1.419,3.043,2.768,5.621,3.595,8.025c-1.208-1.594-2.496-3.824-3.853-6.22
			c-8.364-13.164-14.019-40.181-34.05-37.006c-4.262,0.75-8.147,2.829-12.057,4.595c-1.463,0.871-3.458,1.411-4.455,2.83
			c-0.422-0.299-0.844-0.607-1.264-0.883c-4.888-2.906-10.516-4.455-16.135-5.129c-1.063-0.094-2.318-0.39-3.392-0.193
			c-4.6-6.406-8.419-14.077-15.948-17.348c-2.845-1.199-5.832-2.407-8.957-2.484c-4.343,0.066-8.815,2.367-10.669,6.421
			c-2.317,5.676-0.748,12.167-0.9,18.151c0.077,3.012,0.218,6.04-0.029,9.046c-0.448,1.976-1.323,3.124-1.542,3.474
			c-0.045,0.032-0.068,0.047-0.133,0.094c-0.021,0.011-0.018,0.01-0.038,0.02c-0.107,0.04-0.214,0.076-0.324,0.107
			c-1.888,0.055-1.004,0.184-2.985-0.24c-9.493-5.457-13.332-29.446-19.053-45.11c-0.798-2.385-1.669-4.745-2.55-7.1
			c-0.318-0.601-0.902-1.03-1.565-1.168c-0.172-0.039-0.34-0.028-0.509-0.031c-1.6-0.799-4.378-0.769-6.046-0.782
			c-3.14,0.227-6.292,1.356-8.7,3.411c-9.361,8.418-9.341,22.752-7.749,34.333c2.082,13.46,7.352,26.074,11.167,39.069
			c1.821,6.787,1.489,10.164,0.251,10.353c-1.299,1.39-8.216-5.309-11.792-13.101c-4.284-8.273-6.011-16.795-7.019-27.201
			c-1.382-10.485-0.745-25.838,1.345-38.437c0.978-9.953,4.012-20.083-10.642-16.15c-10.771,2.096-21.926,4.94-30.296,12.447
			c-3.885,3.671-7.538,8.067-8.558,13.453c-3.177,15.456-0.448,31.653,4.034,46.588c7.668,22.187,20.695,42.037,31.856,62.561
			c3.459,6.151,4.149,9.8,2.767,10.571c-1.509,1.055-2.333,1.687-7.887-2.203c-15.012-12.756-28.082-34.385-38.357-54.613
			c-6.847-14.679-9.915-31.801-13.014-49.21c-1.027-6.488-1.509-13.04-2.109-19.576c-0.369-9.916-5.799-11.516-13.487-5.945
			c-10.853,7.589-24.593,15.924-26.374,30.258c-2.438,16.989,4.739,33.034,11.459,48.205c4.43,9.741,8.948,19.49,14.549,28.623
			c3.805,6.411,9.59,13.15,12.49,17.696c1.552,3.137,1.614,3.029,1.606,5.392c-0.001,0.018-0.005,0.035-0.007,0.053
			c-0.061,0.222-0.162,0.581-0.253,0.8c-0.014,0.025-0.045,0.083-0.066,0.123c-0.141,0.054-0.308,0.115-0.481,0.167
			c-0.024,0.003-0.045,0.005-0.143,0.021c-2.375,0.19-3.053-0.204-3.354-0.228c-3.085-1.34-4.149-2.751-7.224-5.689
			c-14.427-15.627-24.637-37.612-33.805-58.67c-6.234-13.269-8.661-24.913-14.777-38.698c-1.242-2.254-4.255-1.033-4.907,0.932
			c-1.662,1.231-3.173,3.47-4.497,4.453c-7.398,7.823-13.954,16.669-18.665,26.371c-10.01,20.027,5.027,40.847,17.753,55.72
			c9.59,11.044,19.411,21.879,29.223,32.724c7.569,8.273,12.491,16.757,9.497,17.201c-9.106-3.601-28.869-31.38-41.731-44.962
			c-3.319-3.742-6.769-7.366-10.053-11.139c-5.144-6.082-8.152-9.586-11.909-16.253c-2.807-4.156-5.449-14.322-12.048-11.239
			c-3.056,2.355-3.669,6.705-5.374,10.012c-6.164,17.045-14.388,35.851-8.702,54.075c3.951,13.829,14.937,23.98,26.009,32.46
			c10.237,7.88,21.146,14.872,32.771,20.527c6.076,2.707,13.738,7.708,14.361,9.583c-0.004,0.004-0.007,0.007-0.011,0.011
			c-0.207,0.152-0.826,0.6-1.172,0.678c-5.408,2.439-21.247-2.913-30.292-6.889c-12.682-5.806-21.642-12.181-31.204-21.433
			c-3.056-2.991-5.963-6.131-9.04-9.1c-1.769-1.717-4.224-4.318-6.814-2.588c-2.279,1.539-2.14,4.687-2.017,7.137
			c0.343,4.882,0.97,9.738,1.501,14.602c1.605,16.447,5.682,32.499,11.584,47.916c8.067,20.103,16.394,40.672,28.929,58.426
			c-11.323-0.06-22.646-0.021-33.969,0.002c-3.407,0.17-3.825,5.321-0.279,5.293c17.924-0.048,35.85-0.193,53.771,0.224
			c18.729,0.098,46.32,1.767,53.75,13.221c1.833,4.163-0.285,8.31-1.219,9.913c-1.63,1.534-3.389,3.141-4.668,4.983
			c-0.406,0.15-0.788,0.358-1.094,0.667c-0.927,0.813-1.035,2.138-0.557,3.131c-0.161,0.812-0.246,1.654-0.143,2.566
			c0.514,8.626,11.026,9.199,17.646,9.667c37.716,1.427,75.435-2.57,113.18-2.1c39.218-0.193,79.8-0.11,116.82,4.393
			c33.304,5.613,44.377,19.448,4.788,28.52c-32.327,8.158-67.195,10.092-101.994,13.127c-13.264,1.141-26.508,2.507-39.757,3.807
			c-15.652,1.636-33.727,2.881-45.796,14.151c-2.467,3.09-1.885,7.16-2.496,10.833c-0.198,0.931-0.513,1.821-0.941,2.672
			c-0.327,0.517-0.957,1.538-1.264,2.062c-15.258,14.539-41.017,16.463-63.99,19.581c-98.371,9.629-197.07,15.856-295.683,22.479
			c-81.477,5.692-163.161,6.275-244.79,7.672c-90.004,1.625-180.033,1.51-270.047,0.875c-13.825-0.272-31.705,0.212-40.239-4.609
			c-1.16-1.337-2.198-1.848-2.812-2.801c4.548-9.622,25.251-17.646,37.522-23.334c5.514-2.488,11.181-4.609,16.835-6.75
			c3.376-1.396,7.438-2.479,9.577-5.689c7.95-14.521-39.365-15.943-48.02-17.373c-99.165-9.977-203.555-5.026-300.33-13.253
			c-14.804-1.745-30.138-1.376-44.417-5.984c-13.639-5.342-24.773-15.74-9.053-29.291c19.279-12.457,49.302-17.678,74.768-21.269
			c97.095-10.15,195.13-8.798,292.457-2.72c44.311,3.083,88.66,5.594,133.024,7.78c16.285,0.797,32.573,1.529,48.867,2.108
			c9.11,0.127,18.339,1.223,27.388-0.198c5.989-0.815,14.595-5.335,11.722-12.586c-5.512-6.666-14.743-8.561-22.31-12.098
			c-6.074-2.479-16.485-6.082-19.67-8.469c-7.209-7.263-2.341-9.283,7.88-10.05c37.119-0.459,71.667,3.191,107.561,6.725
			c9.465,1.172,18.913,2.485,28.327,4.015c2.111,0.09,4.477,1.387,6.476,0.375c1.443-0.814,2.003-2.962,0.784-4.203
			c-3.094-1.584-7.028-1.297-10.425-2.12c-30.302-4.906-60.956-6.782-91.54-8.992c-10.401-0.677-20.819-1.195-31.242-1.306
			c-9.578,0.009-29.814-0.762-25.771,13.884c2.502,7.341,10.949,9.26,17.349,11.972c9.295,4.158,21.675,7.233,27.759,13.197
			l0.073,0.359c-0.02,0.094-0.04,0.212-0.06,0.352c-0.967,1.492-0.418,0.895-2.598,2.295c-8.652,3.489-19.333,1.604-30.039,1.604
			c-24.923-0.875-49.831-2.108-74.736-3.394c-97.388-5.274-194.74-13.794-292.365-10.688c-46.783,1.901-94.013,2.679-140.007,12.216
			c-11.429,2.441-22.796,5.442-33.544,10.086c-9.094,3.757-18.333,9.127-21.996,18.774c-2.027,6.206-0.971,14.067,4.54,18.147
			c14.393,13.133,34.704,12.066,52.851,14.134c24.009,2.029,48.061,3.591,72.138,4.531c58.569,1.879,117.192,2.115,175.732,4.936
			c20.835,0.93,38.378,2.372,59.292,4.37c13.812,1.499,31.127,2.691,41.997,7.433c1.031,0.387,1.955,0.954,2.771,1.703
			c-0.18-0.134-0.361-0.267-0.542-0.401c0.225,0.183,0.467,0.518,0.622,0.761c-0.001,0.009-0.003,0.019-0.004,0.028
			c-0.003,0.004-0.006,0.008-0.009,0.013c-0.038-0.059-0.071-0.109-0.125-0.196c0.047,0.083,0.074,0.142,0.112,0.214
			c-0.087,0.12-0.175,0.241-0.262,0.361c-0.613,0.439-1.622,1.153-2.191,1.318c-10.483,3.983-29.358,11.616-41.85,18.053
			c-5.542,2.86-10.772,6.341-15.417,10.509c-2.489,2.137-5.027,4.613-5.349,8.05c0.388,5.633,6.767,8.934,11.716,10.141
			c23.488,4.315,47.671,2.099,71.442,2.861c46.298,0.228,92.596,0.223,138.894,0.001c87.893-0.841,175.817-1.799,263.668-4.711
			c70.569-3.057,141.055-7.999,211.482-13.373c41.458-3.2,82.958-5.824,124.373-9.575c27.091-2.671,54.687-3.968,80.958-11.562
			c10-3.532,21.745-7.727,26.729-17.763c1.984-3.441,1.32-9.751,2.183-11.195c-0.222-1.889,12.557-8.089,20.841-9.62
			c53.518-8.72,115.878-6.639,170.913-21.782c36-10.374,26.21-30.376-6.827-36.158c-16.387-3.082-33.137-3.369-49.752-4.164
			c-3.603-0.177-7.207-0.316-10.811-0.45c5.693-3.695,11.141-7.824,14.912-13.577c1.649-2.509,3.746-5.056,4.13-8.119
			c0.032-9.965-12.505-10.439-19.797-12.163c-13.676-2.98-28.224-3.944-38.91-10.581c-4.61-3.527-3.676-9.884,5.753-9.21
			c10.928,1.182,24.325,6.465,37.864,9.138c0.158,0.164,0.343,0.309,0.564,0.421c6.751,4.154,12.686,9.689,19.969,12.932
			c6.771,2.713,14.612,3.467,21.572,1.021c4.281-1.433,9.441-4.496,12.514-6.554c0.389,1.742,0.617,3.526,1.111,5.244
			c4.922,18.319,27.283,36.746,44.615,43.221c14.453,5.151,30.402,5.777,45.442,3.124c13.24-2.511,25.474-8.656,37.289-14.919
			c7.455-5.144,8.005-11.938,3.905-17.278c4.04,2.314,8.285,4.124,13.038,3.779
			C1855.258,1451.207,1862.428,1443.78,1860.846,1435.836z M1394.974,1422.282c-1.529-0.022-3.059-0.009-4.588-0.024
			c0.192-0.608,0.184-1.269-0.158-1.897c-14.661-21.44-25.414-47.485-33.083-70.024c-5.003-14.88-8.251-35.887-8.687-49.105
			c3.66,3.608,9.227,9.664,13.15,12.957c10.862,9.43,23.368,17.001,37.06,21.516c8.791,2.591,19.761,7.683,28.098,1.558
			c9.562-9.682-17.587-18.543-23.539-22.718c-55.864-33.175-58.383-51.367-36.617-102.523c0.731,0.804,1.138,1.766,2.267,3.577
			c5.125,10.466,12.495,19.524,20.4,28.01c7.751,8.341,15.037,17.093,22.41,25.766c5.983,6.886,11.496,14.225,18.197,20.449
			c4.395,4.595,12.117,9.595,15.875,1.497c1.821-4.467-1.12-9.017-3.598-12.605c-3.76-5.37-8.166-10.239-12.568-15.082
			c-7.699-8.185-15.011-16.715-22.458-25.127c-10.753-12.301-22.268-27.402-21.356-42.414c0.523-8.576,7.381-18.394,14.305-27.582
			c0.81-0.911,5.412-6.418,8.464-9.21c2.646,6.309,4.134,11.554,6.703,18.929c3.807,10.492,8.405,20.675,13.088,30.8
			c8.447,17.932,17.877,36.541,33.026,49.741c2.751,2.273,6.368,3.334,9.901,2.718c7.771-1.182,6.744-10.788,3.109-15.678
			c-10.724-13.184-19.9-29.879-27.234-47.166c-6.612-15.205-12.388-28.277-9.942-44.594c0.971-9.49,17.354-21.671,27.549-26.963
			c-0.274,0.059-0.203,0.035,0.001,0c0,0,0,0,0.001,0c0.127-0.035,0.256-0.064,0.386-0.087c-0.167,0.039-0.291,0.067-0.381,0.086
			c0.128-0.022,0.302-0.045,0.482-0.057c-0.095-0.023-0.097-0.042,0.063-0.007c0.001,0.001,0.003,0.004,0.005,0.005
			c0.004,0,0.007,0,0.011,0c0.003,0,0.008,0.002,0.01,0.003c0.002,0.001,0.002,0.001,0.004,0.002
			c0.003,0.004,0.004,0.011,0.007,0.015c-0.003,0-0.01,0-0.013,0c0.006,0.006,0.019,0.02,0.025,0.026
			c1.064,1.806,1.265,7.781,1.661,11.677c0.991,12.466,3.442,24.755,6.236,36.927c3.829,19.763,13.585,37.493,24.379,54.251
			c4.844,7.334,10.138,14.384,15.953,20.978c4.087,4.582,8.685,9.138,14.54,11.321c3.883,1.376,8.484-1.019,10.168-4.656
			c2.573-6.474-2.82-12.859-5.482-18.478c-9.717-17.08-22.342-38.609-28.343-54.719c-5.305-15.785-7.902-33.186-4.954-46.942
			c2.92-10.456,13.307-16.356,26.115-19.563c5.623-1.117,10.736-2.94,13.696-2.346c0.072,0.145,0.136,0.307,0.155,0.456
			c0.19,3.615-1.963,18.898-2.781,27.14c-0.66,22.762,0.504,51.421,19.573,66.924c3.798,2.364,9.402,0.692,10.752-3.716
			c1.634-4.956-0.214-10.209-1.469-15.054c-4.334-13.203-10.398-30.118-11.058-41.742c-0.725-10.92,1.792-20.876,7.188-24.275
			c1.569-0.822,2.346-1.174,4.4-1.358c0.568-0.017,1.135,0.019,1.702,0.048c0.314,0.094,0.539,0.074,0.556,0.042
			c0.546,0.062,1.117,0.158,1.676,0.208c2.829,7.557,5.998,18.276,8.746,27.694c2.638,8.004,5.163,16.54,10.819,22.986
			c3.286,3.761,10.073,5.101,13.761,1.242c3.202-3.672,3.394-8.62,3.165-13.246c-0.122-5.371-0.625-14.828-0.18-17.719
			c1.39-5.922,10.044-4.894,16.891,0.525c4.588,4.578,6.333,8.225,10.524,13.95c0.049,0.093,0.141,0.151,0.203,0.235
			c-34.099,37.266-61.622,79.926-86.015,124.026c-21.812,38.393-40.615,79.203-49.819,122.433c-2.429,1.501-3.059,4.966-4.333,7.391
			c-4.402,10.814-6.716,22.614-12.701,28.705c-5.702,5.807-11.962,9.667-20.034,12.081c-0.298,0.085-0.565,0.154-0.828,0.221
			c1.96-2.305,3.463-4.911,3.743-8.118C1467.191,1420.285,1412.038,1423.016,1394.974,1422.282z M1493.875,1432.188
			c-0.124,0.345-0.163,0.711-0.13,1.087c-0.119,1.041-0.269,2.075-0.374,3.118c-1.281,10.021-2.181,20.096-2.457,30.197
			c-0.011,0.124,0.042,0.236,0.052,0.358c-0.946,0.019-1.891,0.058-2.838,0.073c-11.159-0.211-23.494,0.847-31.034-2.965
			c-0.835-0.69-1.28-2.075-1.193-3.437c12.39-1.535,24.163-8.353,31.68-18.283c3.024-4.647,5.089-10.122,6.938-15.506
			C1494.274,1428.609,1494.086,1430.401,1493.875,1432.188z M1496.001,1466.817c0.935-2.896,0.063-7.78,0.642-10.064
			c0.187-2.876,0.459-5.745,0.727-8.615c1.768,5.647,4.128,11.063,7.819,15.812c0.653,0.877,1.364,1.71,2.128,2.493
			C1503.545,1466.583,1499.774,1466.714,1496.001,1466.817z M1611.587,1406.363c-8.285-1.548-17.881,3.963-15.226,13.363
			c5.695,14.664,47.359,14.577,58.588,20.355c0.172,0.091,0.333,0.201,0.495,0.308c0.058,0.049,0.104,0.089,0.186,0.156
			c0.39,0.38,0.759,0.785,1.094,1.216c0.15,0.245,0.305,0.545,0.412,0.757c0.087,0.291,0.144,0.589,0.172,0.892
			c-0.002,0.057-0.002,0.117-0.005,0.169c-1.162,3.606-7.346,11.043-10.073,12.896c-2.617,1.933-5.34,3.721-8.061,5.502
			c-0.632,0.385-1.118,0.99-1.339,1.697c-0.165,0.45-0.156,0.88-0.064,1.281c-30.887-0.969-61.801-0.525-92.694,0.124
			c-10.058,0.24-20.109,0.67-30.161,1.072c-0.044-0.156-0.09-0.313-0.167-0.463c-1.385-1.683-0.873-0.629-2.462-2.189
			c-2.592-2.501-2.759-2.897-4.376-5.326c-4.143-6.793-5.592-11.296-7.263-18.645c-0.494-2.282-0.984-4.564-1.53-6.834
			c5.222-45.585,22.124-89.211,44.346-129.965c16.313-30.601,33.93-60.564,53.723-89.055c10.357-14.61,19.047-25.754,30.638-39.332
			c3.683-4.241,7.462-8.398,11.181-12.607c0.24-0.238,0.425-0.518,0.571-0.816c6.59,0.783,13.556,3.447,16.511,5.895
			c7.912,6.47,13.527,14.787,11.678,20.821c-1.556,10.117-18.674,10.939-32.196,16.248c-4.916,1.981-10.174,3.777-14.036,7.556
			c-1.734,1.977-3.892,4.246-4.05,6.979c0.003,0.909,0.567,1.58,1.309,1.92c0.129,1.079,0.856,2.008,2.4,1.986
			c15.886-1.68,31.745-4.482,47.005-9.266c9.644-2.722,22.479-9.873,27.833-11.39c4.166-0.532,7.99,4.393,8.769,11.504
			c0.325,3.871-2.399,11.706-7.05,15.722c-11.096,10.646-28.007,14.764-45.4,18.635c-12.946,2.768-43.504,7.517-47.699,21.81
			c-0.559,2.499-0.383,5.746,1.462,7.643c0.272,0.214,0.569,0.329,0.873,0.401c0.426,0.52,1.057,0.863,1.884,0.796
			c19.662-2.293,39.102-6.062,58.252-11.061c12.339-2.803,26.029-7.896,35.351-6.723c7.005,0.94,8.847,10.145,6.068,15.001
			c-11.146,18.296-46.752,23.314-71.713,28.569c-8.242,1.583-16.39,3.876-23.831,7.832c-3.805,1.951-7.746,4.958-8.233,9.512
			c-0.316,2.345,0.378,5.984,3.057,5.406c0.525,0.543,1.312,0.842,2.41,0.535c27.727-6.398,54.743-12.06,82.136-20.214
			c8.461-2.275,18.64-4.805,25.221-5.728c3.846,0.024,3.256-0.118,4.997,2.229c2.618,3.708-1.43,17.783-3.75,22.656
			c-3.781,7.698-12.635,13.8-20.532,16.819c-25.071,9.243-49.929,10.233-76.926,14.411c-7.726,1.228-15.62,1.959-23.096,4.359
			c-2.03,0.73-4.073,1.579-5.684,3.051c-2.385,2.009-2.765,5.849-1.362,8.504c0.372,0.556,0.925,0.833,1.519,0.909
			c0.997,0.871,2.873,0.806,4.246,0.905c3.602,0.264,7.211,0.413,10.821,0.509c18.135,0.331,36.271-0.067,54.4-0.536
			c11.911-0.29,23.833-0.262,35.74,0.154c4.093-0.009,10.715,0.936,10.712,2.215c2.256,0.653-7.418,16.024-11.242,20.374
			c-13.276,15.285-27.431,21.884-46.703,18.086C1637.564,1413.249,1624.948,1408.117,1611.587,1406.363z M1724.382,1326.02
			c0.935-2.262,2-5.287,2.835-8.543c-3.876,16.086-9.199,32.305-14.797,48.354c-0.73,1.976-1.503,3.934-2.274,5.895
			c-4.09-1.707-8.697-1.481-13.049-1.791c-9.167-0.276-18.342-0.361-27.513-0.245c-23.959,0.481-52.015,1.462-73.792,0.12
			c-0.016-0.092-0.034-0.184-0.047-0.276c0.001-0.044-0.002-0.057,0-0.11c0.028-0.208,0.051-0.491,0.065-0.721
			c0.035-0.037,0.066-0.078,0.103-0.114c0.187-0.162,0.273-0.24,0.323-0.289c0.009-0.007,0.01-0.007,0.019-0.014
			c4.439-2.677,11.035-3.374,17.188-4.442c16.031-2.45,32.156-4.219,48.176-6.753c18.344-3.168,38.288-5.812,53.113-18.015
			C1718.797,1335.493,1722.482,1331.15,1724.382,1326.02z M1846.475,1446.406c-4.542-0.257-7.128-2.253-11.835-4.921
			c-9.474-5.609-18.299-12.262-27.992-17.51c-6.809-3.695-13.839-7.034-21.271-9.277c-4.327-1.399-10.694-2.579-12.955,2.565
			c-0.972,1.798-0.698,3.946,0.068,5.776c-1.518,2.309,1.04,3.811,3.36,4.81c4.371,2.259,8.881,4.23,13.458,6.033
			c12.793,4.785,23.849,6.725,35.057,13.056c9.367,5.101,10.013,10.612,1.587,14.997c-10.312,5.102-17.318,8.84-28.252,11.84
			c-13.804,3.407-28.48,3.521-43.299-0.434c-16.527-4.76-33.562-18.355-42.803-33.593c-2.244-3.999-2.628-5.219-3.638-9.641
			c-0.627-2.337-0.523-5.141-2.252-6.996c-3.929-2.603-6.106,1.693-8.78,2.748c-4.713,2.787-9.159,4.728-12.575,5.175
			c-7.96,0.622-13.122-0.831-20.209-5.535c-1.591-1.098-3.161-2.228-4.734-3.351c7.668,0.319,15.161-0.851,22.042-4.779
			c10.638-5.923,19.668-14.597,26.083-24.943c2.362-4.762,8.065-11.497,6.411-16.627c0.183-0.253,0.336-0.528,0.418-0.841
			c10.398-27.536,19.56-55.936,23.159-85.247c2.084-19.983,0.619-40.119-1.49-60.036c-0.675-7.392-1.789-14.735-3.271-22.007
			c-0.335-1.306-0.23-2.986-1.592-3.689c-1.984-1.048-4.508,1.022-4.024,3.177c5.207,28.281,7.475,54.016,5.104,82.658
			c-0.921,8.134-2.452,16.356-4.347,24.614c1.815-9.241,1.021-19.042-10.044-18.411c-22.199,3.604-43.479,11.291-65.351,16.363
			c-14.079,3.607-28.456,5.929-42.51,9.615c-0.001-0.074-0.01-0.148-0.008-0.223c-0.023-1.339,0.604-1.845,0.881-2.375
			c5.803-5.367,17.529-8.542,28.509-10.679c14.5-2.839,29.113-5.464,43.068-10.445c11.603-4.018,23.887-9.36,30.457-20.332
			c4.302-7.377,2.193-18.632-6.224-21.992c-5.909-2.149-12.339-0.652-18.304,0.522c-11.167,2.535-22.179,5.715-33.338,8.295
			c-13.276,3.199-23.256,5.042-36.506,6.888c-2.457,0.587-5.893,0.489-8.634,1.089c-0.03-0.094-0.061-0.207-0.09-0.375
			c-0.318-2.177-0.252-1.871,0.557-3.648c4.585-6.835,18.825-10.859,31.107-13.703c22.559-5.108,52.882-8.594,65.641-30.422
			c2.267-4.494,3.604-9.656,2.644-14.677c-1.187-8.01-8.356-16.586-17.07-12.62c-13.664,6.507-26.536,12.033-42.62,15.212
			c-8.846,1.844-16.754,3.261-26.537,4.303c0.456-0.743,0.582-0.742,1.69-1.977c4.104-3.77,13.301-6.763,21.907-9.228
			c8.103-2.617,17.754-4.04,23.169-11.284c7.188-10.278,0.52-21.838-7.935-29.39c1.947-0.923,3.791-2.191,5.829-2.915
			c2.866-1.286,8.673-3.869,12.818-2.168c7.43,1.907,12.506,13.137,17.501,23.254c3.161,5,11.154,27.8,18.954,20.244
			c3.568-4.702-1.094-10.612-2.807-15.23c-4.476-9.823-10.786-17.775-11.886-27.329c0.027-0.621,0.068-1.823,0.074-2.344
			c0.005-0.02,0.008-0.039,0.012-0.059c0.005-0.012,0.008-0.022,0.012-0.034c0.052,0.007,0.105,0.012,0.157,0.02
			c7.853,2.524,19.177,1.981,24.981,2.4c5.589,0.333,9.507,3.622,11.496,6.458c3.075,4.837,2.751,7.226,1.75,14.133
			c-2.635,11.847,0.404,22.291,13.337,12.349c4.958-3.318,9.557-4.357,12.308-3.137c4.589,1.597,4.058,8.237,1.87,12.328
			c-3.657,5.818-6.374,8.651-11.332,14.243c-2.626,2.911-5.685,5.983-6.076,10.086c-0.351,3.913,2.353,7.859,5.776,9.571
			c2.578,1.134,5.391,0.065,7.892-0.789c5.938-2.388,11.922-5.192,16.366-9.926c1.282-1.457,2.612-2.963,3.81-4.553
			c0.483,1.242,0.669,1.844,1.342,4.145c1.463,5.419,1.356,11.62-0.236,14.417c-3.423,7.068-9.613,11.958-16.785,17.73
			c-3.117,3.258-21.643,12.723-14.333,21.674c4.247,4.053,10.387,1.225,14.889-0.903c16.627-8.535,21.365-33.024,35.187-28.045
			c2.905,0.702,5.95,4.647,8.963,9.957c4.079,6.584,6.677,11.426,6.553,17.104c-0.425,7-5.851,12.274-14.112,16.996
			c-6.85,3.453-17.309,6.928-25.404,12.517c-3.531,2.507-7.543,5.027-9.276,9.176c-2.258,5.365,1.157,9.968,6.598,10.974
			c4.753,0.9,9.418-1.263,13.708-3.071c8.164-4.104,15.437-9.807,22.729-15.265c3.251-2.662,6.004-5.008,8.559-7.125
			c1.86,3.103,3.511,6.326,5.051,9.599c3.168,6.862,5.06,11.649,6.223,19.738c2.507,16.495-5.013,17.528-23.589,17.074
			c-9.293-0.229-18.592-0.603-27.888-0.27c-4.711,0.461-13.447-0.439-14.012,5.926c0.128,3.177,3.247,5.203,5.835,6.471
			c10.409,4.412,21.656-0.746,32.343-1.479c10.936-1.273,18.857-1.536,29.055,2.212c2.605,1.362,8.54,3.699,9.697,8.529
			c0.606,1.163,2.297,9.719,2.128,11.151c-0.127,4.765-0.524,7.254-1.833,9.629c-0.108,0.184-0.291,0.456-0.441,0.678
			c-2.65,3.055-9.203,3.316-15.448,2.25c-14.837-2.99-29.502-9.069-44.866-8.119c-6.632,0.401-8.013,6.595-2.023,9.713
			c8.916,5.171,19.585,5.501,29.26,8.529c16.478,5.391,41.337,20.203,42.68,35.554
			C1855.812,1443.153,1850.226,1446.914,1846.475,1446.406z M1777.158,1419.995c-0.033-0.088-0.069-0.175-0.101-0.263
			c0.021,0.042,0.021,0.05,0.038,0.087c0,0,0,0.001,0,0.001c0.024,0.051,0.036,0.08,0.053,0.12
			c-0.024-0.098-0.048-0.209-0.057-0.345c-0.002-0.059-0.003-0.1-0.008-0.192c-0.001-0.063,0.007-0.125,0.009-0.187
			c0.012-0.033,0.024-0.065,0.04-0.104c0.024-0.045,0.053-0.092,0.081-0.139c0.005-0.005,0.013-0.012,0.018-0.017
			c0.082-0.05,0.167-0.102,0.23-0.138c0.886-0.138,3.643,0.137,6.465,1.12c11.545,3.421,24.298,11.062,36.095,18.771
			c-10.09-4.301-21.142-6.826-29.609-10.27c-4.278-1.717-8.451-3.677-12.54-5.803c0.057-0.477-0.005-0.97-0.25-1.435
			c-0.129-0.326-0.253-0.653-0.377-0.981c0.029,0.041-0.004-0.071-0.096-0.28C1777.152,1419.955,1777.154,1419.98,1777.158,1419.995
			z M1808.75,1353.456c-1.463,0.172-2.921,0.366-4.37,0.579c-11.962,1.87-23.781,4.992-28.99-0.085
			c2.866-0.705,8.26-0.674,12.641-0.821C1794.939,1353.036,1801.844,1353.283,1808.75,1353.456z"/>
		<path d="M1332.875,1537.698c0.984,5.656,9.114-1.829,11.865-2.927c7.221-4.413,14.232-9.146,20.814-14.472
			c0.632-0.381,1.118-0.993,1.339-1.696c0.796-2.194-1.825-4.064-3.711-2.77c-8.378,6.756-17.422,12.626-26.756,17.97
			C1334.895,1534.682,1332.608,1535.546,1332.875,1537.698z"/>
		<path d="M1491.107,1509.568c4.575-1.817,6.392-1.729,11.559-2.418c17.635-1.611,35.34-2.316,53.035-2.91
			c4.87-0.146,9.741-0.23,14.611-0.382c1.079-0.065,2.131-0.768,2.518-1.785c0.853-1.559-0.406-3.691-2.24-3.508
			c-23.428,0.659-46.912,1.193-70.237,3.604c-8.313,0.702-16.361,4.168-22.358,10.006c-3.459,5.033-5.635,8.33-9.653,10.956
			c-12.882,8.581-30.034,9.886-45.601,12.767c-1.81,0.436-4.022-0.009-5.47,1.333c-1.005,0.952-1.223,2.73-0.197,3.743
			c1.057,1.045,2.511,0.569,3.815,0.429c4.83-0.634,9.625-1.507,14.422-2.349c17.156-3.089,37.203-6.775,46.327-23.424
			C1484.037,1513.204,1488.086,1510.745,1491.107,1509.568z"/>
		<path d="M1477.823,1535.557c-6.252,2.624-12.539,5.17-18.889,7.547c-3.223,0.897-2.496,6.061,1.073,5.05
			c6.35-2.377,12.637-4.922,18.889-7.547c0.704-0.22,1.315-0.709,1.697-1.339
			C1481.881,1537.392,1480.028,1534.757,1477.823,1535.557z"/>
		<path d="M713.554,1491.584c2.974-0.044,6.56,1.358,9.31,0.361c1.919-1.02,2.002-4.356-0.38-4.829
			c-27.169-2.903-54.541-2.9-81.826-3.789c-42.652-0.945-85.505-2.127-128.086-1.079c-2.501,0.883-2.299,5.226,0.722,5.026
			c54.399-0.406,108.795,0.596,163.163,2.384C689.762,1490.102,701.689,1490.421,713.554,1491.584z"/>
		<path d="M601.599,1499.223c-2.523,0.298-6.355-1.178-7.685,1.728c-1.54,4.23,3.781,3.516,6.365,3.555
			c13.052,0.048,26.103,0.171,39.154,0.368c3.238-0.08,3.932-5.35,0.279-5.293C627.008,1499.397,614.304,1499.257,601.599,1499.223z
			"/>
		<path d="M422.249,572.451c3.098,0.675,6.487-0.483,9.665-0.568c9.507-1.1,18.982-2.549,28.369-4.418
			c3.338-0.952,15.383-2.438,10.6-8.013c-9.523-4.202-17.742-4.004-25.861-9.932c-7.293-5.807-7.347-12.09,3.622-14.629
			c4.481-1.11,15.097-0.718,18.832,0.975c2.942,1.082,5.115,3.641,8.16,4.457c4.618,0.967,4.819-4.76,5.895-7.824
			c1.243-4.045,2.887-7.966,3.922-10.069c8.012-15.411,17.945-27.127,31.344-36.042c28.033-19.433,55.966-19.285,72.621,12.012
			c3.035,5.316,4.865,9.219,6.179,13.942c0.867,2.856,0.988,5.954,2.284,8.664c2.549,4.125,6.966,0.131,8.948-2.495
			c10.297-11.427,24.029-26.446,33.683-28.873c12.677-0.828,12.644,15.735,6.055,26.717c-0.935,2.372-3.458,4.429-3.313,7.074
			c0.423,2.364,3.84,2.322,4.829,0.38c3.932-6.294,7.295-13.098,8.168-20.555c0.835-9.892-3.785-19.157-14.806-18.959
			c-6.03,0.616-11.071,4.635-15.729,8.209c-8.639,7.152-16.193,15.484-23.665,23.816c-0.272-1.196-0.47-2.412-0.771-3.602
			c-1.02-4.462-2.712-8.752-4.736-12.849c-16.957-34.866-45.887-40.765-77.927-20.595c-20.287,12.146-36.519,32.107-42.912,55.002
			c-2.049-1.266-3.966-2.765-6.292-3.524c-4.495-1.671-9.43-1.67-14.17-1.772c-24.692,0.253-28.187,20.973-4.915,29.49
			c2.867,1.231,7.233,2.442,10.898,3.443c-7.752,1.823-17.794,3.284-26.578,4.393c-3.605,0.428-7.217,0.787-10.831,1.127
			c-0.724,0.045-1.403,0.36-1.912,0.874C420.712,569.42,420.701,571.639,422.249,572.451z"/>
		<path d="M407.174,586.065c42.276,1.487,84.616,2.193,126.821-1.243c6.498-0.449,12.992-0.95,19.497-1.285
			c0.722-0.041,1.404-0.363,1.912-0.874c1.652-1.468,0.77-4.619-1.634-4.419c-25.145,1.549-50.277,3.644-75.484,3.803
			c-23.921,0.495-48.014-1.196-71.835-1.009C403.929,581.921,404.169,586.265,407.174,586.065z"/>
		<path d="M458.998,603.158c4.853-0.041,9.705-0.126,14.557-0.138c3.248-0.082,3.924-5.351,0.279-5.293
			c-5.955,0.016-11.909,0.137-17.864,0.159c-1.699,0.075-3.073,1.774-2.735,3.453C453.853,603.96,457.021,603.016,458.998,603.158z"
			/>
	</g>
	<g>
		<path d="M1490.581,979.479c-0.812-5.802-3.561-12.634-9.843-14.126c-0.969-0.485-3.497-0.147-4.872,0.24
			c0.602-8.7-0.615-17.493-2.238-26.033c-1.969-10.158-7.822-20.972-19.018-22.487c-10.637-2.375-24.45,1.37-28.595-9.246
			c-1.616-6.766-1.06-18.616-1.509-27.672c-0.648-23.429-0.357-46.873,0.805-70.281c0.569-10.173,1.545-20.318,2.475-30.463
			c0.083-1.713-2.647-1.543-2.646,0.139c-3.139,30.599-4.058,61.393-3.451,92.139c0.175,9.064,0.359,18.129,0.68,27.189
			c0.224,3.659,0.06,7.479,1.487,10.925c4.364,10.28,18.896,8.253,26.671,9.332c4.148,0.586,7.402,1.363,10.534,3.18
			c3.974,2.765,7.689,8.904,8.994,14.277c2.811,10.63,3.621,20.212,3.194,30.84c0.595,2.235,2.963,0.636,4.409,0.351
			c-0.814,0.223,1.089-0.199,1.464-0.01c-0.694,0.067,1.49,0.147,1.946,0.513c-0.51-0.236-0.119-0.018,0.16,0.072
			c6.841,3.41,7.607,14.759,7.85,22.723c0.033,1.999-0.44,4.039-0.296,6.005c0.087,0.325,0.362,0.594,0.683,0.683
			c2.586,0.489,1.86-3.166,2.162-4.759C1492.025,988.459,1491.42,983.946,1490.581,979.479z"/>
		<path d="M1474.798,992.082c-0.351-3.535,0.164-7.429-0.786-10.786c-0.821-0.816-2.283-0.034-2.309,1.055
			c0.321,5.9,0.591,11.805,0.539,17.716c0.069,0.777-0.26,1.714,0.324,2.34c0.821,0.816,2.282,0.034,2.308-1.055
			C1474.913,998.262,1474.888,995.171,1474.798,992.082z"/>
		<path d="M1453.486,993.327c-0.125,1.772-1.553,4.413-1.181,5.82c2.594,2.768,3.464-4.192,3.755-5.788
			C1455.985,991.869,1453.794,992.031,1453.486,993.327z"/>
		<path d="M565.434,918.451c-22.043-2.132-44.168-3.168-66.301-3.781c-24.867-2.146-33.646,4.767-40.256,28.652
			c-0.141,0.876-0.734,1.812-0.359,2.68c0.326,0.636,1.2,0.774,1.779,0.402c1.117-0.88,0.942-2.617,1.467-3.861
			c3.57-12.262,8.443-23.072,21.143-25.128c14.652-0.897,33.363,0.7,49.343,1.2c10.468,0.572,19.26,1.253,29.745,2.196
			c1.199-0.024,2.504,0.535,3.63,0.054C566.575,920.358,566.632,918.687,565.434,918.451z"/>
		<path d="M452.41,920.072c-0.305-1.729,0.124-3.767-0.651-5.328c-0.821-0.816-2.283-0.034-2.309,1.055
			c0.413,6.205,0.952,12.401,1.582,18.587c0.128,0.617-0.026,1.351,0.36,1.876c0.522,0.792,1.785,0.504,2.202-0.257
			C453.858,931.222,452.426,923.672,452.41,920.072z"/>
		<path d="M444.999,956.242c-4.48-8.145-8.683-16.44-12.728-24.809c-0.497-2.288-3.483-1.61-2.783,0.581
			c3.883,8.038,7.889,16.019,12.158,23.859c0.564,0.783,0.747,2.084,1.764,2.38C444.482,958.496,445.528,957.236,444.999,956.242z"
			/>
		<path d="M533.927,1238.359c-30.081,1.898-23.859-1.103-34.838,24.632c-6.547,14.257-17.892,26.889-29.748,35.709
			c-8.003,5.497-16.746,10.222-24.734,13.738c-1.902,0.918-2.165,3.02-1.496,4.846c0.198,1.168,0.164,2.153-0.033,2.954
			c-0.923,3.849-1.757,5.042-4.354,7.676c-0.811,1.075-2.383,1.735-2.662,3.104c0.618,4.485,7.556-4.701,8.155-6.135
			c0.948-2.206,1.785-4.604,1.66-7.036c0.032-0.377-0.416-2.673-0.475-2.771c-0.001-0.053-0.003-0.099-0.003-0.14
			c0.024-0.032,0.04-0.054,0.087-0.117c4.817-1.994,18.449-8.963,25.782-14.432c16.43-12.155,28.696-29.366,35.185-48.709
			c1.547-3.915,3.187-8.004,4.956-8.398c6.29-1.998,14.828-1.598,22.376-2.275C535.371,1241.029,535.754,1238.278,533.927,1238.359z
			"/>
		<path d="M460.72,1314.418c-0.821-0.816-2.282-0.034-2.308,1.055c-0.295,6.278-2.966,12.238-5.78,17.878
			c-0.648,0.938,0.281,2.257,1.385,1.855c1.106-0.41,1.285-1.791,1.849-2.703c2.363-4.947,4.546-10.128,5.064-15.636
			C460.927,1316.061,461.341,1315.077,460.72,1314.418z"/>
		<path d="M477.949,1311.576c-0.832-1.476-3.134,0.017-2.371,1.428c1.105,1.914,1.684,4.208,2.876,6.013
			c0.725,0.592,1.876,0.021,2.112-0.817C480.458,1315.881,478.797,1313.736,477.949,1311.576z"/>
		<path d="M288.761,1041.713c-11.913,8.193-23.865,16.568-34.045,26.897c-12.706,13.413-23.018,29.365-29.604,46.646
			c-2.65,6.817-5.196,13.777-6.559,20.965c0.09,1.464,2.254,1.347,2.573,0.032c5.729-24.39,17.779-47.064,34.335-64.787
			c10.149-10.609,20.921-18.071,33.083-26.579c1.588-1.335,3.928-2.035,5.079-3.751
			C293.788,1037.67,290.065,1040.919,288.761,1041.713z"/>
		<path d="M254.269,1047.575c-6.252,2.877-12.393,6.391-17.814,10.687c-3.43,3.067-8.078,6.778-10.367,10.661
			c-0.096,1.188,1.47,1.657,2.21,0.817c7.621-9.262,16.403-14.466,26.904-20.101
			C255.918,1048.882,255.357,1047.477,254.269,1047.575z"/>
		<path d="M911.864,721.097c-0.51-8.49-2.031-17.023-5.832-24.699c-2.499-6.045-7.611-10.518-13.581-13.002
			c-3.021-1.008-3.588-3.707-4.602-7.252c-9.081-45.56-27.746-90.339-60.725-123.81c-6.853-6.675-19.517-20.258-27.979-8.766
			c-5.361,6.562-10.773,13.269-15.616,20.163c-0.283,1.508,1.756,1.882,2.41,0.693c5.542-6.994,9.895-13.17,15.341-19.505
			c3.274-3.954,5.96-4.203,10.692-1.456c9.942,5.743,18.293,16.223,26.225,25.646c15.853,19.914,29.28,44.983,36.736,69.559
			c3.059,9.236,5.935,18.545,8.159,28.022c1.447,5.178,1.598,10.772,4.083,15.613c0.891,2.186,3.008,3.196,5.073,4.019
			c3.357,1.711,5.162,2.872,7.683,5.513c11.59,15.331,10.054,38.472,8.833,58.529c0.166,0.613,0.929,0.903,1.51,0.704
			c1.835-0.851,0.997-3.618,1.45-5.267C912.409,737.588,912.367,729.319,911.864,721.097z"/>
		<path d="M925.465,713.053c-1.022,12.055-3.717,22.671-6.227,34.828c0.076,1.483,2.264,1.334,2.573,0.032
			c2.49-11.709,5.565-23.534,6.219-35.487C927.557,711.051,925.463,711.736,925.465,713.053z"/>
		<path d="M945.892,721.701c-3.911,11.295-8.817,22.856-12.845,32.904c0.237,1.178,1.903,1.164,2.415,0.19
			c5.007-10.567,8.89-21.607,12.955-32.557C948.952,720.5,946.308,720.08,945.892,721.701z"/>
		<path d="M518.768,818.75c-8.658-22.474-15.182-49.005-18.264-74.065c-1.067-9.433-1.782-17.22-2.211-26.504
			c-0.238-1.418,0.229-3.11-0.506-4.359c-0.819-0.805-2.284-0.042-2.309,1.055c0.983,26.081,4.632,52.053,11.805,77.173
			c3.028,10.135,5.361,20.86,10.291,30.223c0.841,0.663,2.144-0.142,2.173-1.155C519.707,820.259,519.062,819.541,518.768,818.75z"
			/>
		<path d="M498.895,811.97c-4.265-9.26-7.905-18.232-10.795-27.238c-1.363-4.073-2.282-8.332-3.641-12.379
			c-0.813-1.144-2.703-0.025-2.383,1.253c2.59,10.024,5.89,19.837,9.893,29.385c1.418,3.512,2.951,6.977,4.556,10.407
			c0.158,0.301,0.452,0.514,0.782,0.584C498.378,814.223,499.423,812.965,498.895,811.97z"/>
		<path d="M498.738,843.991c-0.394-0.629-1.214-0.798-1.803-1.205c-8.056-4.502-14.357-10.016-21.203-16.8
			c-3.614-3.47-6.737-7.546-10.239-11.043c-1.224-0.507-2.518,1.252-1.544,2.227c6.727,7.966,14.026,15.519,22.311,21.879
			c2.959,2.25,6.034,4.353,9.298,6.138c0.722,0.329,1.419,1.049,2.263,0.782C498.622,845.732,499.133,844.758,498.738,843.991z"/>
		<path d="M1314.561,1161.943c0.534-1.68-2.108-2.198-2.525-0.537c-10.01,38.925-16.511,79.506-11.852,119.7
			c1.845,16.237,3.649,32.635,9.069,48.142c0.832,1.863,0.991,4.255,2.3,5.789c3.853,0.751,0.861-4.312,0.287-6.62
			c-4.538-12.938-6.506-26.524-8.135-40.083c-3.156-22.7-3.14-45.626-0.28-69.042
			C1305.776,1199.767,1309.521,1181.418,1314.561,1161.943z"/>
		<path d="M1324.898,1225.843c-2.643,10.669-4.304,21.535-5.036,32.5c-0.279,3.569-0.495,7.142-0.635,10.719
			c-0.02,0.337,0.099,0.676,0.338,0.915c0.821,0.814,2.282,0.036,2.308-1.054c0.477-10.388,1.341-21.759,3.057-30.93
			c0.703-4.064,1.796-8.081,2.541-12.118C1327.395,1224.394,1325.207,1224.54,1324.898,1225.843z"/>
		<path d="M910.684,1371.037c-3.621-4.529-8.07-8.543-12.116-12.752c-4.41-4.382-8.975-8.657-14.222-12.032
			c-2.629-1.482-5.397-3.344-8.513-3.379c-0.627,0.05-1.259,0.175-1.836,0.432c-0.135,0.078-0.433,0.212-0.63,0.299
			c-0.072,0.027-0.139,0.052-0.2,0.072c-2.431-0.084-5.703-1.589-8.952-3.253c-10.601-5.611-19.103-16.191-27.89-25.427
			c-35.331-37.537-58.883-84.217-100.423-116.293c-9.719-7.327-19.861-14.064-29.882-20.966c-1.349-0.707-2.945,1.492-1.428,2.371
			c14.91,10.376,28.988,19.116,42.178,31.368c16.128,14.769,31.436,34.056,43.648,50.554c14.434,20.007,29.672,39.45,46.377,57.621
			c9.15,9.545,17.987,20.398,30.642,25.309c1.913,0.686,3.943,1.589,6.01,1.314c1.775-0.565,1.193-0.799,2.867-0.738
			c7.021,1.714,16.049,10.341,22.816,17.245c3.137,3.169,6.207,6.404,9.273,9.643
			C909.314,1373.327,910.976,1372.263,910.684,1371.037z"/>
		<path d="M904.211,1389.214c-6.608-6.748-13.43-13.284-20.422-19.633c-1.167-1.144-3.116,0.793-1.97,1.97
			c5.607,5.096,11.112,10.304,16.477,15.654c1.54,1.186,3.076,3.875,4.86,4.318C904.242,1391.498,905.028,1390.037,904.211,1389.214
			z"/>
		<path d="M874.303,1390.294c-0.409-1.704-2.973-0.746-2.596,0.806c0.834,2.927,1.251,6.03,2.19,8.895
			c0.27,0.441,0.883,0.564,1.354,0.413c0.684-0.219,1.181-0.945,1.03-1.666C875.663,1395.916,875.003,1393.1,874.303,1390.294z"/>
		<path fill="#FFFFFF" d="M1254.945,1489.25c-2.012,8.021-2.933,15.724-8.595,20.275c-13.794,9.312-35.041,10.717-53.483,13.102
			c-24.147,2.625-48.326,4.927-72.415,8.064c-4.789,0.536-11.854,1.58-15.534,1.618c-0.35-0.068-0.709-0.094-1.077-0.053
			c-1.792,0.849-1.114,2.585,0.511,2.739c0.189,0.098,0.395,0.209,0.541,0.288c1.896,1.743,1.028,3.07-0.812,4.455
			c-5.541,3.669-12.317,3.652-19.955,4.168c-7.143,0.139-14.289-0.069-21.432-0.193c-2.292,0.204-7.988-1.303-6.335,2.171
			c7.042,1.083,14.611,0.367,21.826,0.713c8.217-0.241,27.431,0.579,30.36-9.1c0.144-0.967-0.091-1.971-0.574-2.841
			c21.844-2.176,43.588-5.432,65.473-7.303c20.489-2.488,41.482-3.358,61.289-9.544c12.815-3.854,18.828-9.156,21.46-22.607
			c0.377-2.096,1.465-4.299,1.2-6.398C1256.808,1487.763,1255.24,1488.191,1254.945,1489.25z"/>
		<path fill="#FFFFFF" d="M1076.916,1528.451c-5.044,0.309-10.089,0.595-15.143,0.671c-1.194-0.162-2.223,1.382-1.323,2.314
			c4.9,0.914,11.169-0.313,16.327-0.338C1078.392,1531.09,1078.719,1528.393,1076.916,1528.451z"/>
		<path fill="#FFFFFF" d="M1073,1513.045c-3.133-0.179-7.062-1.721-9.981-1.329c-3.673,3.193,6.549,3.174,9.174,3.926
			C1073.745,1516.023,1074.702,1513.459,1073,1513.045z"/>
		<path fill="#FFFFFF" d="M1147.476,1473.013c-3.243-0.124-6.613,0.885-9.922,0.934c-14.18,0.866-28.387,1.882-42.601,1.532
			c-11.36-0.029-25.354-2.507-33.889-9.42c-10.233-7.717-14.686-19.758-22.321-30.393c-15.216-23.04-36.974-40.212-57.975-57.658
			c-5.385-4.575-10.546-9.491-15.982-13.963c-1.203-0.489-2.533,1.24-1.544,2.227c20.036,18.769,43.161,34.272,61.062,55.243
			c10.548,11.464,17.716,25.307,26.912,38.605c11.002,15.271,30.751,18.375,48.363,18.096c13.851-0.094,27.711-0.828,41.514-1.959
			c2.146-0.418,4.628-0.161,6.556-1.171C1148.241,1474.522,1148.252,1473.424,1147.476,1473.013z"/>
		<path fill="#FFFFFF" d="M1093.177,1446.567c-6.498-0.776-13.12-1.286-19.32-3.518c-2.667-0.814-4.826-1.989-7.924-3.281
			c-1.303-0.187-2.208,1.818-0.951,2.496c7.531,4.014,15.937,5.746,24.365,6.561c1.911,0.177,3.841,0.526,5.75,0.556
			c0.358-0.039,0.701-0.258,0.902-0.553C1097.297,1446.708,1094.611,1446.664,1093.177,1446.567z"/>
		<path fill="#FFFFFF" d="M1082.887,1428.161c-3.3-1.192-6.549-2.621-9.858-3.742c-1.306-0.187-2.206,1.819-0.95,2.496
			c3.284,1.233,6.539,2.647,9.858,3.742c0.899,0.115,1.726-0.837,1.534-1.714
			C1083.379,1428.615,1083.201,1428.318,1082.887,1428.161z"/>
		<path fill="#FFFFFF" d="M1365.307,921.779c-1.15-3.957-5.444-8.846-8.29-9.55c-1.358-1.434-1.464-3.628-1.306-6.939
			c0.439-13.512,1.085-27.018,1.903-40.512c0.214-5.062,0.891-10.172,0.895-15.209c-0.472-1.358-2.568-0.7-2.565,0.628
			c-1.089,15.592-1.984,31.197-2.58,46.817c0.208,5.276-1.536,11.097,0.819,16.023c0.372,0.792,1.013,1.43,1.839,1.736
			c0.433,0.134,2.537,1.491,1.855,1.062c3.687,2.543,4.378,6.515,6.54,10.68c0.724,0.589,1.877,0.023,2.112-0.817
			C1366.676,924.341,1365.681,923.066,1365.307,921.779z"/>
		<path fill="#FFFFFF" d="M1366.422,901.728c-0.911-1.628-1.457-3.562-2.571-5.031c-1.069-0.841-2.677,0.633-2.035,1.799
			c1.013,1.535,1.452,4.37,3.017,5.244C1365.906,903.983,1366.95,902.722,1366.422,901.728z"/>
		<path fill="#FFFFFF" d="M1242.407,923.635c-0.833-1.48-1.698-2.945-2.668-4.341c-2.063-2.505-4.68-7.053-8.517-5.633
			c-0.374,0.215-2.354,1.218-1.564,0.891c-0.128,0.049-0.268,0.099-0.359,0.135c-1.195-0.154-1.35-1.415-1.798-4.491
			c-0.558-25.107-0.364-54.031,1.565-80.349c0.641-6.501,1.397-13.471,2.519-18.906c0.54-1.691-2.113-2.191-2.525-0.537
			c-3.717,19.672-3.848,39.783-4.276,59.734c-0.208,10.065-0.194,20.133-0.163,30.2c0.168,4.815-0.395,9.831,1.087,14.483
			c0.458,1.674,2.256,2.786,3.953,2.448c0.332,0.022,2.009-0.982,2.224-1.137c0.112-0.048,0.224-0.084,0.322-0.107
			c0.057-0.007,0.114-0.017,0.172-0.019c1.851,0.036,5.688,5.36,7.708,9.147c0.306,0.953,1.542,1.165,2.212,0.445
			C1242.852,925.063,1242.835,924.24,1242.407,923.635z"/>
		<path fill="#FFFFFF" d="M1236.109,875.024c-0.409-1.704-2.973-0.746-2.596,0.806c0.862,2.844,1.466,5.823,2.49,8.593
			c0.172,0.284,0.519,0.462,0.849,0.461c0.897,0.108,1.727-0.835,1.534-1.714C1237.621,880.457,1236.857,877.742,1236.109,875.024z"
			/>
		<path fill="#FFFFFF" d="M1098.07,927.34c-2.204-5.591-5.693-12.479-8.91-16.116c-1.399-2.988-1.179-7.044-1.509-11.209
			c-0.677-8.14-0.76-16.496-2.007-24.515c-0.814-1.14-2.702-0.028-2.383,1.253c0.819,8.875,1.353,16.896,1.912,26.255
			c0.184,3.19,0.193,6.511,1.533,9.475c1.505,2.513,2.682,3.186,4.025,5.697c2.365,3.979,3.76,8.551,5.975,12.537
			c0.842,0.669,2.143-0.145,2.173-1.155C1098.839,928.773,1098.32,928.079,1098.07,927.34z"/>
		<path fill="#FFFFFF" d="M1099.161,910.669c-0.345-0.5-0.572-1.202-1.242-1.322c-1.073-0.244-2.117,1.018-1.588,2.012
			c0.988,1.442,2.453,5.245,4.145,2.284C1100.745,912.502,1099.607,911.636,1099.161,910.669z"/>
		<path fill="#FFFFFF" d="M836.904,750.53c-2.471,2.636-5.475,6.254-7.529,7.624c-5.301,2.901-13.455,2.405-20.823,3.827
			c-6.021,0.86-11.308,4.255-15.853,8.141c-3.24,3.395-6.768,6.432-9.696,6.76c-8.646,0.185-18.951-4.254-28.495-5.755
			c-0.941-0.129-1.884-0.53-2.83-0.467c-0.885,0.105-1.516,1.203-1.086,2.007c1.156,1.186,3.301,0.857,4.825,1.415
			c6.762,1.363,13.385,3.31,20.115,4.806c3.657,0.738,7.706,1.372,11.105-0.579c3.061-1.546,5.443-4.022,7.835-6.414
			c3.235-2.747,7.464-5.673,11.87-6.814c6.568-1.825,15.747-0.99,23.084-4.113c2.794-1.21,4.618-3.8,6.722-5.892
			c0.942-1.24,2.541-2.207,2.966-3.728C839.199,750.161,837.652,749.687,836.904,750.53z"/>
		<path fill="#FFFFFF" d="M775.588,767.64c-4.553-2.009-9.21-3.766-13.83-5.612c-1.119-0.599-2.489,0.779-1.899,1.9
			c4.379,2.538,9.69,3.792,14.302,6.084C775.568,770.778,777.062,768.476,775.588,767.64z"/>
		<path fill="#FFFFFF" d="M780.173,756.229c-1.33-1.473-3.132-1.176-3.069,0.765c0.28,0.753,1.202,1.499,2.015,1.543
			C780.205,758.514,780.99,757.051,780.173,756.229z"/>
		<path fill="#FFFFFF" d="M787.365,868.971c-8.397,7.213-16.529,12.759-25.471,19.59c-0.396,1.097,0.912,2.033,1.856,1.385
			c8.953-5.717,17.141-12.532,25.388-19.203C790.42,869.492,788.641,867.676,787.365,868.971z"/>
		<path fill="#FFFFFF" d="M772.283,867.141c-2.172,1.601-4.355,3.186-6.578,4.715c-1.181,1.03-3.04,1.502-3.799,2.902
			c-0.229,0.647,0.167,1.439,0.86,1.566c2.264-0.338,4.071-2.455,6.054-3.582c1.698-1.439,4.049-2.404,5.32-4.216
			C774.538,867.427,773.226,866.494,772.283,867.141z"/>
		<path fill="#FFFFFF" d="M624.859,887.443c-13.367-6.134-25.07-14.186-35.99-22.797c-1.223-0.508-2.518,1.253-1.544,2.227
			c9.394,7.589,19.423,14.446,30.144,20.026c2.191,0.84,4.693,2.881,6.943,2.993C625.462,889.616,625.913,888.004,624.859,887.443z"
			/>
		<path fill="#FFFFFF" d="M609.786,860.359c-1.723-1.068-3.777-3.656-5.51-4.103c-1.087,0.024-1.871,1.486-1.055,2.309
			c1.652,1.352,3.25,2.852,5.021,4.021C609.47,863.096,610.758,861.33,609.786,860.359z"/>
		<path fill="#FFFFFF" d="M370.631,1285.77c0.013,3.16-0.193,10.334-0.196,10.988c-1.939,3.109-8.781,5.052-13.862,5.633
			c-23.346,2.756-44.246-10.126-63.655-23.257c-2.787-1.924-5.898-3.873-7.811-5.653c1.185,0.054,2.649,0.321,4.384,0.522
			c2.79,0.674,9.421,0.816,6.831-3.748c-1.631-2.263-4.308-3.464-6.549-5.029c-7.275-4.687-14.089-9.587-20.193-16.602
			c-3.018-3.77-5.33-9.942-6.825-15.252c-0.597-2.03-1.139-4.076-1.624-6.135c-0.142-0.839-1.213-1.169-1.891-0.713
			c-1.434,0.926-0.269,2.727-0.087,4.024c1.049,4.002,2.261,7.967,3.79,11.813c4.5,13.643,24.226,23.495,30.941,29.326
			c-1.27,0.091-1.276,0.034-2.728-0.153c-2.647-0.114-10.259-2.593-9.521,2.128c3.2,4.244,8.463,6.597,12.697,9.725
			c12.824,8.525,26.079,16.883,41.305,20.264c7.902,1.813,16.182,2.508,24.169,0.829c4.354-0.734,8.797-2.253,12.026-5.372
			c0.738-0.787,1.248-1.781,1.289-2.873c0.054-3.533,0.06-7.068,0.156-10.602C373.301,1283.821,370.672,1284.157,370.631,1285.77z"
			/>
		<path fill="#FFFFFF" d="M251.738,1221.718c-0.41-1.704-2.974-0.747-2.596,0.806c0.236,3.711,0.88,7.374,1.632,11.011
			c0.233,1.186,1.902,1.161,2.414,0.19C253.544,1230.865,251.645,1225.433,251.738,1221.718z"/>
		<path fill="#FFFFFF" d="M269.989,1228.392c-0.815-1.15-2.701-0.021-2.384,1.253c0.574,1.597,0.921,6.623,3.438,3.931
			C271.574,1232.425,270.387,1229.69,269.989,1228.392z"/>
		<path fill="#FFFFFF" d="M419.081,1105.312c-2.891-1.401-5.913-2.538-9.091-3.072c-1.55-0.382-2.509,2.181-0.806,2.596
			c3.264,0.621,4.83,1.159,7.739,2.509c1.304,0.354,2.77,2.02,4.089,1.068C422.743,1106.845,420.396,1105.845,419.081,1105.312z"/>
		<path fill="#FFFFFF" d="M418.348,1115.334c-1.181-0.724-2.265-1.839-3.585-2.239c-1.307-0.188-2.205,1.819-0.951,2.496
			c1.481,0.663,3.478,3.057,4.929,2.803C420.541,1117.626,419.753,1116.011,418.348,1115.334z"/>
		<path fill="#FFFFFF" d="M1434.071,968.402c-0.493-1.375-2.552-0.688-2.565,0.628c-0.057,4.084-3.218,6.91-7.317,9.333
			c-1.283,0.914-8.211,2.36-9.614,2.574c-11.668,2-23.494,2.836-35.29,3.688c-37.304,3.311-72.964-0.642-109.776-4.649
			c-4.243-0.197-8.635-1.37-12.801-1.045c-3.617,3.4,6.128,2.673,8.71,3.303c23.765,2.344,47.5,5.406,71.389,6.136
			c21.001,0.612,42.001-0.801,62.897-2.803c6.733-0.711,13.469-1.566,20.078-3.065c5.715-1.19,11.413-4.754,13.765-10.263
			C1433.875,971.022,1434.237,969.648,1434.071,968.402z"/>
		<path fill="#FFFFFF" d="M1282.094,972.742c-4.117-1.358-6.977-2.353-10.584-3.726c-0.458-0.241-1.071-0.164-1.454,0.184
			c-2.207,2.381,2.454,2.883,3.926,3.634c2.59,0.79,5.161,2.085,7.808,2.499c0.357-0.04,0.701-0.258,0.902-0.553
			C1283.296,974.134,1283.009,972.906,1282.094,972.742z"/>
		<path fill="#FFFFFF" d="M1275.7,985.748c-4.78,0.324-9.565,0.568-14.355,0.684c-1.212-0.185-2.298,1.354-1.38,2.317
			c4.36,0.89,10.881-0.323,15.596-0.353C1277.177,988.387,1277.504,985.689,1275.7,985.748z"/>
		<path fill="#FFFFFF" d="M703.951,672.135c-7.827,2.657-15.276,6.473-21.432,12.051c-7.918,7.449-15.718,15.141-24.015,22.107
			c-0.677,1.297,1.139,2.388,2.077,1.317c11.633-8.663,20.561-20.85,32.197-27.802c4.136-2.404,7.477-3.456,12.182-5.409
			C706.12,673.652,705.362,671.641,703.951,672.135z"/>
		<path fill="#FFFFFF" d="M677.86,694.967c-1.698,2.369-4.4,5.305-6.793,8.363c-0.243,0.447-0.158,1.057,0.205,1.416
			c0.908,0.838,1.955-0.026,2.507-0.836c2.168-2.532,4.306-5.094,6.314-7.756C681.036,694.565,678.729,693.457,677.86,694.967z"/>
		<path fill="#FFFFFF" d="M528.805,729.83c-1.792-0.959-2.534-1.243-2.9-2.01c-1.036-3.667-0.798-11.116-0.836-16.867
			c0.438-2.07-2.45-2.304-2.64-0.326c-0.088,5.276-0.011,10.561,0.434,15.821c0.089,1.108,0.263,2.256,0.906,3.192
			c1.126,1.595,3.119,2.251,4.786,3.133c0.585,0.333,1.355,0.534,1.9,0.018C532.08,731.243,530.131,730.389,528.805,729.83z"/>
		<path fill="#FFFFFF" d="M534.454,722.136c-0.497-1.122-0.577-1.049-0.503-2.374c0.124-3.262,1.188-5.936,0.995-8.396
			c-0.558-1.05-2.173-0.607-2.448,0.446c-0.418,3.804-2.194,8.045-0.447,11.691c0.434,1.132,1.466,2.002,2.542,0.992
			C535.351,723.794,534.943,722.852,534.454,722.136z"/>
		<path fill="#FFFFFF" d="M1070.629,1277.544c-7.141-9.417-14.158-19.139-21.379-29.418c-2.285-3.116-4.306-6.471-6.598-9.554
			c-1.065-0.836-2.68,0.63-2.035,1.799c9.142,13.328,18.363,26.873,28.468,39.4
			C1070.31,1280.276,1071.603,1278.519,1070.629,1277.544z"/>
		<path fill="#FFFFFF" d="M1064.287,1254.938c-2.734-4.038-4.899-8.495-7.463-12.591c-1.068-0.839-2.678,0.631-2.035,1.799
			c3.085,5.793,6.461,11.434,10.187,16.839c0.3,0.545,0.82,1.078,1.498,0.887
			C1069.795,1260.897,1064.971,1256.753,1064.287,1254.938z"/>
		<path fill="#FFFFFF" d="M1070.559,1240.796c-1.523-2.283-3.058-4.561-4.495-6.9c-0.682-2.13-3.478-1.331-2.783,0.748
			c1.806,2.992,3.77,5.884,5.72,8.783c0.324,0.64,1.201,0.777,1.778,0.402C1072.085,1243.035,1071.294,1241.689,1070.559,1240.796z"
			/>
		<path fill="#FFFFFF" d="M582.653,977.511c-7.427-0.782-14.849-1.605-22.262-2.511c-10.093-1.014-20.299-3.27-30.444-2.159
			c-1.272,0.442-1.134,2.613,0.361,2.513c18.015-0.556,36.882,3.847,55.729,5.193c1.174,0.215,2.881,0.365,3.01-1.234
			C588.993,977.157,584.262,978.056,582.653,977.511z"/>
		<path fill="#FFFFFF" d="M559.806,968.086c-0.106-0.559-0.666-0.964-1.228-0.92c-3.238,0.309-6.477,0.621-9.702,1.043
			c-1.618,0.007-1.941,2.705-0.139,2.647c3.379-0.521,6.85-0.617,10.203-1.177C559.559,969.443,559.928,968.731,559.806,968.086z"/>
		<path fill="#FFFFFF" d="M550.007,985.398c-1.619,0.008-1.94,2.705-0.139,2.647c2.494,0.069,3.321,0.271,5.713,0.341
			c0.543-0.063,1.001-0.515,1.163-1.025C557.329,984.706,551.668,985.845,550.007,985.398z"/>
	</g>
</g>
</svg>
