<?xml version="1.0" encoding="utf-8"?>
<!-- Generator: Adobe Illustrator 26.1.0, SVG Export Plug-In . SVG Version: 6.00 Build 0)  -->
<svg version="1.1" id="Layer_1" xmlns="http://www.w3.org/2000/svg" xmlns:xlink="http://www.w3.org/1999/xlink" x="0px" y="0px"
	 viewBox="0 0 3000 3000" style="enable-background:new 0 0 3000 3000;" xml:space="preserve">
<style type="text/css">
	.st0{fill:url(#SVGID_1_);}
	.st1{opacity:0.1;fill:#134B54;}
	.st2{opacity:0.2;fill:#D6E4EA;}
	.st3{opacity:0.2;fill:#0E646B;}
	.st4{fill:#F9FFFF;}
	.st5{opacity:0.5;fill:#F9FFFF;}
	.st6{fill:#FFFFFF;}
	.st7{fill:url(#SVGID_00000164511925766650261040000002192420507685634725_);}
	.st8{fill:#3CC681;}
	.st9{fill:#FFF5D8;}
	.st10{fill:#D8D0AD;}
	.st11{opacity:0.78;fill:#EADCBB;}
	.st12{fill:url(#SVGID_00000178923204717986238880000007624121146999021224_);}
	.st13{fill:#F2B6AD;}
	.st14{opacity:0.1;fill:#231F20;}
	.st15{opacity:0.2;fill:#FFFFFF;}
	.st16{opacity:0.25;fill:#E8D9E3;}
	.st17{fill:#134B54;}
	.st18{opacity:0.5;fill:#D6E4EA;}
	.st19{fill:#F4EBEA;}
	.st20{fill:#E8D9E3;}
	.st21{opacity:0.35;}
	.st22{opacity:0.5;}
	.st23{opacity:0.25;}
	.st24{opacity:0.3;fill:#E27664;}
	.st25{opacity:0.1;fill:#0E646B;}
	.st26{fill:#80FFB3;}
	.st27{opacity:0.1;}
	.st28{fill:#0E646B;}
	.st29{opacity:0.2;}
	.st30{opacity:0.35;fill:#D6E4EA;}
	.st31{fill:url(#SVGID_00000107581919415020708610000007796530068322782382_);}
</style>
<g>
	<g>
		<linearGradient id="SVGID_1_" gradientUnits="userSpaceOnUse" x1="2980.5439" y1="330.5503" x2="90.6645" y2="3012.8262">
			<stop  offset="0" style="stop-color:#00AAD4"/>
			<stop  offset="1" style="stop-color:#80FFB3"/>
		</linearGradient>
		<path class="st0" d="M1500,359.44c-512.73,0-928.39,415.65-928.39,928.39c0,23.21,0.87,46.21,2.55,68.99
			c0.03,0.35,0.04,0.69,0.04,1.04v1163.8c0,9.3,7.54,16.84,16.84,16.84h1817.92c9.3,0,16.84-7.54,16.84-16.84v-1163.8
			c0-0.35,0.01-0.69,0.04-1.04c1.67-22.78,2.55-45.78,2.55-68.99C2428.39,775.1,2012.73,359.44,1500,359.44z"/>
		<path class="st1" d="M2425.85,1209.49v1312.18c0,9.25-7.57,16.82-16.89,16.82H591.1c-9.32,0-16.89-7.57-16.89-16.82V1349.11
			c0-0.32,0-0.71-0.06-1.04c-1.68-22.77-2.52-45.81-2.52-68.97c0-52.92,4.46-104.81,13-155.34c28.01-11.39,58.23-17.4,88.51-15.33
			c22,1.42,44.58,6.79,64.31,16.76c16.69,8.35,30.93,20.64,42.77,35c13.91,16.76,24.85,35.71,35.84,54.41
			c0.97,1.55,2.59,2.2,4.34,1.49c42.83-17.02,78.87-51.82,125.71-58.62c22.52-3.3,48.59,0.71,68.26,12.75
			c16.5,10.16,27.3,26.2,34.55,43.87c8.41,20.64,12.68,42.7,18.25,64.25c0.52,2.07,2.52,3.23,4.59,2.33
			c27.56-12.03,48.78-34.1,74.86-48.52c12.49-6.92,26.27-11.91,40.76-11.32c16.05,0.65,31.83,7.12,42.9,18.89
			c15.79,16.89,21.22,40.5,33.71,59.39c9.19,2.65,19.99,3.36,32.54,1.23c68.06-11.52,96.34-91.03,208.14-10.93
			c26.46,18.96,47.04,38.3,63.02,56.74c4.92-8.15,10.48-15.85,17.4-22.71c16.89-16.69,41.21-29.05,63.92-35.39
			c25.56-7.18,50.98-4.85,74.92,6.6c3.17,1.55,5.69-1.81,5.56-4.59c-2.33-37.78,3.3-78.42,32.03-105.72
			c14.82-14.04,35.33-25.36,55.64-28.86c20.38-3.49,41.41,0.32,61.66,3.3c17.73,2.59,36.62,5.69,54.41,1.81
			c15.07-3.3,27.24-12.88,36.88-24.72c19.41-23.74,24.97-57.19,49.88-76.67c49.56-38.76,117.24-6.86,163.37,20.64
			c2.07,1.23,4.33,0.84,5.82-1.04c28.53-35.33,48.65-86.83,96.73-99.25c34.36-8.86,69.68,4.14,100.54,22.77
			C2407.16,1068.51,2420.55,1137.87,2425.85,1209.49z"/>
		<path class="st2" d="M1155.3,648.63c170.71-13.43,341.29-28.55,511.78-44.5c-11.48-11.69-26.08-19.71-41.53-25.25
			c-37.02-13.27-78-14.59-116.93-13.4c-36.2,1.11-72.19,5.44-108.03,10.42c-1.68,0.23-3.89-0.57-4.5-2.32
			c-6.77-19.41-12.46-40.24-24.27-57.34c-21.68-31.42-61.62-32.99-95.6-24.52c-31.93,7.96-68.14,27.34-76.85,61.67
			c-1.11,4.37-7.13,2.88-8.03-0.72c-8.33-33.37-34.77-62.53-60.13-84.47c-8.45-7.31-17.53-14.3-27.19-20.25
			c-114.91,54.27-216.88,131.42-300.05,225.59C921.15,666.17,1038.26,657.84,1155.3,648.63z"/>
		<g>
			<path class="st1" d="M2425.8,2538.5v-892.86h-41.18v-66.15c0-16.82,11.7-30.94,27.53-35.28c5.1,1.35,9.68,3.74,13.65,6.95
				v-105.54c-3.3-3.21-6.3-6.73-9-10.39c1.35-1.2,2.18-2.92,2.18-4.78c0-2.69-1.65-5.01-4.05-6.05l-1.73-26.09h-2.03l-1.72,26.09
				c-2.4,1.05-4.05,3.36-4.05,6.05c0,1.87,0.82,3.59,2.1,4.78c-7.05,9.64-15.98,17.71-26.33,23.99
				c-16.8,10.09-28.05,28.18-28.05,48.81c0,2.99,0.3,5.9,0.75,8.75h-10.35c-4.43,0-7.95,3.44-7.95,7.7v4.34
				c0,4.26,3.52,7.7,7.95,7.7h1.5v204.8c-0.07-17.12-11.25-31.47-26.93-37c0.07-0.23,0.07-0.37,0.07-0.6
				c0-5.83-3.82-10.76-9.15-12.63l-1.95-5.83c0.38-0.52,0.6-1.12,0.6-1.79c0-1.35-0.83-2.47-1.95-2.99l-1.2-18.24
				c0,0-0.08-0.07-0.23-0.07c-0.07,0-0.15,0.07-0.15,0.07l-1.2,18.24c-1.2,0.6-2.03,1.65-2.03,2.99c0,0.67,0.3,1.27,0.68,1.79
				l-1.95,5.83c-5.4,1.87-9.23,6.8-9.23,12.63c0,0.22,0.08,0.37,0.08,0.6c-15.68,5.53-26.93,19.96-26.93,37.07
				c0,4.19,0.82,8,2.1,11.74h-14.1v0.22h-1.35v-68.84h0.67c1.8,0,3.23-1.34,3.23-3.06v-1.79c0-1.72-1.42-3.14-3.23-3.14h-4.27
				c0.15-1.2,0.3-2.32,0.3-3.51c0-8.45-4.58-15.7-11.4-19.88c-4.2-2.47-7.8-5.76-10.73-9.72c0.6-0.45,0.9-1.12,0.9-1.87
				c0-1.12-0.68-2.09-1.65-2.47l-0.68-10.61h-0.82l-0.75,10.61c-0.97,0.37-1.65,1.34-1.65,2.47c0,0.75,0.38,1.42,0.9,1.87
				c-2.85,3.96-6.45,7.17-10.73,9.72c-6.75,4.19-11.33,11.44-11.33,19.88c0,1.2,0.15,2.32,0.3,3.51h-4.2c-1.8,0-3.23,1.42-3.23,3.14
				v1.79c0,1.72,1.43,3.06,3.23,3.06h0.6v43.95h-10.42c2.7-5.01,4.12-10.32,4.12-15.7c0-19.06-17.78-35.73-44.48-45.07
				c-6.68-2.32-12.83-5.08-18.68-7.92v-129.83h1.5c4.35,0,7.88-3.44,7.88-7.7v-4.33c0-4.26-3.52-7.77-7.88-7.77h-10.43
				c0.45-2.84,0.75-5.76,0.75-8.67c0-20.63-11.18-38.72-27.98-48.88c-10.43-6.28-19.35-14.35-26.4-23.92
				c1.28-1.2,2.18-2.92,2.18-4.78c0-2.69-1.65-5.08-4.05-6.06l-1.8-26.08h-1.95l-1.8,26.08c-2.4,0.97-4.05,3.36-4.05,6.06
				c0,1.87,0.83,3.59,2.18,4.78c-7.05,9.57-16.05,17.71-26.4,23.92c-16.8,10.17-27.98,28.25-27.98,48.88c0,2.91,0.23,5.83,0.75,8.67
				h-10.72c-4.43,0-7.95,3.51-7.95,7.77v4.33c0,4.26,3.52,7.7,7.95,7.7h1.8v133.72c-5.48-11.88-13.8-22.2-24.08-30.27l-0.07-5.23
				h11.32v-14.43h-11.62l-2.18-112.64h7.88v-14.43h-8.18l-2.03-103.15h9v-8.37h-5.32v-2.76h-5.18v-37.52h5.18v-3.59h-8.33
				c0.67-2.24,1.05-4.63,1.05-7.1c0-8.59-4.65-16.07-11.7-20.33c-4.28-2.62-8.03-5.98-10.95-9.94c0.6-0.52,0.9-1.2,0.9-2.02
				c0-1.12-0.68-2.09-1.73-2.54l-0.68-9.87c2.93-0.97,5.1-3.59,5.1-6.8c0-3.59-2.78-6.58-6.38-7.03c2.02,0.97,3.53,2.99,3.53,5.38
				c0,3.29-2.78,6.05-6.15,6.05c-2.48,0-4.65-1.5-5.62-3.44c0.53,3.51,3.53,6.2,7.28,6.2c0.45,0,0.9-0.08,1.35-0.15l-0.67,9.64
				c-0.98,0.45-1.65,1.42-1.65,2.54c0,0.82,0.3,1.5,0.83,2.02c-2.93,3.96-6.6,7.32-10.95,9.94c-6.97,4.26-11.7,11.73-11.7,20.33
				c0,2.47,0.38,4.86,1.13,7.1h-8.4v3.59h5.32v37.52h-5.32v2.76h-5.25v8.37h8.93l-2.03,103.15h-8.1v14.43h7.88l-2.18,112.64h-11.63
				v5.01c-24.98,7.25-45.15,25.34-54.6,48.73l-0.97-46.27h4.5v-8.22h-4.65l-1.13-58.75h5.1v-4.71h-3v-1.64h-3v-21.38h3v-2.02h-4.73
				c0.38-1.27,0.6-2.62,0.6-4.04c0-4.93-2.7-9.19-6.68-11.58c-2.4-1.5-4.58-3.44-6.23-5.68c0.3-0.3,0.53-0.67,0.53-1.12
				c0-0.67-0.45-1.2-0.98-1.42l-0.37-5.53c0.23,0.08,0.53,0.08,0.75,0.08c2.1,0,3.9-1.57,4.13-3.51c-0.53,1.12-1.8,1.94-3.15,1.94
				c-1.95,0-3.53-1.57-3.53-3.44c0-1.34,0.82-2.54,2.03-3.06c-2.1,0.22-3.68,1.94-3.68,4.04c0,1.79,1.2,3.29,2.93,3.81l-0.37,5.68
				c-0.6,0.22-0.98,0.75-0.98,1.42c0,0.45,0.23,0.82,0.45,1.12c-1.65,2.24-3.75,4.19-6.23,5.68c-3.98,2.39-6.6,6.65-6.6,11.58
				c0,1.42,0.15,2.77,0.6,4.04h-4.8v2.02h2.93v21.38h-2.93v1.64h-3v4.71h5.1l-1.13,58.75h-4.65v8.22h4.5l-1.27,64.06h-6.6v8.3h6.45
				l-0.6,29h-22.88c7.28-13.23,11.18-27.28,11.18-41.86c0-50.75-47.56-95.23-118.81-120.12c-46.28-16.14-86.11-37.6-116.86-62.86
				c1.28-2.32,2.1-5.01,2.1-7.85c0-6.65-4.13-12.33-9.98-14.88l-4.27-64.06h-4.95l-4.28,64.06c-5.85,2.54-9.98,8.22-9.98,14.88
				c0,2.84,0.82,5.53,2.1,7.85c-30.75,25.34-70.21,46.64-116.86,62.86c-13.28,4.64-25.73,9.94-37.2,15.92v-185.22h1.2
				c2.85,0,5.25-2.32,5.25-5.08v-2.84c0-2.84-2.4-5.08-5.25-5.08h-7.05c0.3-1.87,0.52-3.74,0.52-5.68c0-13.6-7.35-25.41-18.45-32.07
				c-6.75-4.11-12.6-9.49-17.25-15.7c0.9-0.82,1.43-1.94,1.43-3.14c0-1.87-1.12-3.36-2.7-4.04l-1.13-17.12h-1.28l-1.2,17.12
				c-1.57,0.67-2.63,2.17-2.63,4.04c0,1.2,0.53,2.32,1.43,3.14c-4.65,6.28-10.5,11.59-17.33,15.7
				c-11.03,6.65-18.38,18.46-18.38,32.07c0,1.94,0.15,3.81,0.45,5.68h-6.83c-2.85,0-5.18,2.24-5.18,5.08v2.84
				c0,2.77,2.32,5.08,5.18,5.08h1.05v117.8c-13.88-40.29-42-74.22-78.53-96.27c-32.48-19.51-60.68-45.15-82.96-75.19
				c4.2-3.81,6.75-9.19,6.75-15.17c0-8.52-5.25-15.77-12.75-19.06l-4.8-72.28c-2.47-0.15-4.95-0.45-7.58-0.82l-4.88,73.1
				c-7.5,3.21-12.75,10.54-12.75,19.06c0,5.98,2.63,11.36,6.75,15.17c-22.2,30.12-50.18,55.54-82.88,75.19
				c-52.88,31.84-88.21,88.72-88.21,153.68c0,18.61,2.93,36.63,8.33,53.52h-44.1c0.15-2.84,0.3-5.68,0.3-8.6
				c0-59.87-46.35-109.2-106.06-115.93l-7.58-22.42c-0.08-0.22-0.75-0.45-1.72-0.6l-4.13-62.26c0-0.23-0.3-0.37-0.53-0.37
				c-0.3,0-0.52,0.15-0.52,0.37l-4.2,62.26c-0.9,0.15-1.65,0.37-1.72,0.6l-7.57,22.42c-59.63,6.73-105.99,56.06-105.99,115.93
				c0,12.11,1.88,23.69,5.33,34.61h-40.88v17.49h19.05v89.84h-29.17c-2.1,0.8-4.44,1.33-7.12,1.33H574.2v783.82H2425.8z
				 M2353.65,1585.85c0-15.25,4.65-28.03,10.95-31.91c6.23,3.88,10.87,16.67,10.87,31.91v59.8h-21.82V1585.85z M2345.02,1741.54
				v11.59H2343C2344.2,1749.47,2345.02,1745.58,2345.02,1741.54z M2237.91,1704.55c0-6.13,1.88-11.36,4.42-12.93
				c2.55,1.57,4.43,6.8,4.43,12.93v24.29h-8.85V1704.55z M2211.73,1702c0-6.88,4.72-12.63,11.17-14.35
				c6.45,1.72,11.18,7.48,11.18,14.35v26.83h-16.95v-0.37h-5.4V1702z M2199.21,1704.55c0-6.13,1.87-11.36,4.43-12.93
				c2.55,1.57,4.35,6.8,4.35,12.93v23.92h-8.78V1704.55z M1951.69,1341.58c0-1.05,0.9-1.94,2.03-1.94h1.05c1.12,0,2.1,0.9,2.1,1.94
				v30.8h-5.18V1341.58z M1941.94,1341.58c0-1.05,0.9-1.94,2.1-1.94h0.97c1.12,0,2.1,0.9,2.1,1.94v30.8h-5.17V1341.58z
				 M1932.18,1341.58c0-1.05,0.9-1.94,2.1-1.94h0.97c1.13,0,2.1,0.9,2.1,1.94v30.8h-5.18V1341.58z M1922.43,1341.58
				c0-1.05,0.9-1.94,2.03-1.94h1.05c1.2,0,2.1,0.9,2.1,1.94v30.8h-5.18V1341.58z M1912.68,1341.58c0-1.05,0.9-1.94,2.1-1.94h1.05
				c1.12,0,2.03,0.9,2.03,1.94v30.8h-5.18V1341.58z M1827.1,1530.39c0-0.67,0.52-1.19,1.12-1.19h0.6c0.67,0,1.2,0.52,1.2,1.19v17.49
				h-2.92V1530.39z M1821.55,1530.39c0-0.67,0.52-1.19,1.2-1.19h0.52c0.68,0,1.2,0.52,1.2,1.19v17.49h-2.93V1530.39z M1816,1530.39
				c0-0.67,0.52-1.19,1.2-1.19h0.53c0.75,0,1.2,0.52,1.2,1.19v17.49H1816V1530.39z M1810.45,1530.39c0-0.67,0.52-1.19,1.2-1.19h0.52
				c0.68,0,1.2,0.52,1.2,1.19v17.49h-2.92V1530.39z M1804.9,1530.39c0-0.67,0.53-1.19,1.2-1.19h0.6c0.6,0,1.12,0.52,1.12,1.19v17.49
				h-2.93V1530.39z"/>
			<path class="st1" d="M2285.87,2172.88c-61.67,4.27-119.15,34-168.94,68.9c-28.92,20.28-55.32,43.08-82.16,65.95
				c-19.18,16.34-39.77,33.39-64.37,40.66c-25.49,7.53-51.02,0.84-73.67-11.86c-30.09-16.87-55.88-40.67-78.33-66.61
				c-41.28-47.71-78.1-106.85-144.79-119.07c-52.12-9.55-112.71,9.08-131.21,63.26c-13.55,39.68,6.51,84.87,14.08,123.96
				c6.07,31.37,9.01,72.02-26.5,86.45c-22.28,9.05-50.89,7.83-74.02,3.35c-22.59-4.37-43.16-14.66-60.19-30.12
				c-34.99-31.77-51.8-77.56-76.96-116.49c-15.52-24.01-35.18-46.03-61.14-58.89c-30.07-14.89-64.54-19.41-97.78-18.87
				c-30.63,0.5-62.48,3.61-89.8,18.56c-22.6,12.38-39.44,32.08-52.92,53.69c-16.2,25.97-27.69,54.35-41.82,81.41
				c-13.83,26.49-29.98,52.01-50.26,74.07c-32.97,35.85-77.27,58.51-126.81,52.7c-53.43-6.26-93.94-39.19-137.21-67.76
				c-27.61-18.23-56.73-35.42-86.9-50.76v173.07H2425.8v-319.57C2386.72,2188.1,2340.22,2169.11,2285.87,2172.88z"/>
			<path class="st1" d="M1445.39,2072.19H1325.4v-143.61c0-36.7,25.4-67.36,59.9-76.63c34.69,9.27,60.09,39.93,60.09,76.63V2072.19z
				"/>
			<path class="st1" d="M2366.72,2072.19h-119.99v-143.61c0-36.7,25.4-67.36,59.9-76.63c34.69,9.27,60.09,39.93,60.09,76.63V2072.19
				z"/>
			<path class="st1" d="M1645.78,2072.19H1525.8v-143.61c0-36.7,25.4-67.36,59.9-76.63c34.69,9.27,60.09,39.93,60.09,76.63V2072.19z
				"/>
			<path class="st1" d="M2138.56,2072.19h-119.99v-143.61c0-36.7,25.4-67.36,59.9-76.63c34.69,9.27,60.09,39.93,60.09,76.63V2072.19
				z"/>
			<path class="st1" d="M830.95,2072.19H710.96v-143.61c0-36.7,25.4-67.36,59.9-76.63c34.69,9.27,60.09,39.93,60.09,76.63V2072.19z"
				/>
			<path class="st1" d="M1050.06,2072.19H930.07v-143.61c0-36.7,25.4-67.36,59.9-76.63c34.69,9.27,60.09,39.93,60.09,76.63V2072.19z
				"/>
		</g>
		<g>
			<path class="st3" d="M2230.48,1138.36c0,0,65.06,1.3,70.26,54.52C2300.75,1192.88,2322.03,1098.12,2230.48,1138.36z"/>
			<path class="st3" d="M2317.41,1331.92c0,0,43.01,51.23,9.11,91.19C2326.51,1423.12,2407.51,1375.62,2317.41,1331.92z"/>
			<path class="st3" d="M2141.41,1235.5c0,0-3.71,48.24,40.82,39.16c0,0-23.51,29.86-44.54,9.09
				C2116.67,1262.98,2141.41,1235.5,2141.41,1235.5z"/>
			<path class="st3" d="M2329.86,1255.2c0,0,4.54-38.95,50.32-14.29C2425.95,1265.57,2329.86,1255.2,2329.86,1255.2z"/>
		</g>
		<g>
			<path class="st3" d="M698.06,1238.68c0,0,65.06,1.3,70.26,54.52C768.32,1293.2,789.61,1198.44,698.06,1238.68z"/>
			<path class="st3" d="M1175.87,1282.34c0,0,43.01,51.23,9.11,91.19C1184.98,1373.54,1265.97,1326.04,1175.87,1282.34z"/>
			<path class="st3" d="M646.27,1374.64c0,0-3.71,48.24,40.83,39.16c0,0-23.51,29.86-44.54,9.09
				C621.52,1402.12,646.27,1374.64,646.27,1374.64z"/>
			<path class="st3" d="M893.52,1317.08c0,0,4.54-38.95,50.32-14.29C989.61,1327.46,893.52,1317.08,893.52,1317.08z"/>
		</g>
		<g>
			<path class="st4" d="M1500,435.25c-1.5,0-2.76,4.08-3.11,9.59c-5.51,0.35-9.59,1.61-9.59,3.11c0,1.5,4.08,2.76,9.59,3.11
				c0.35,5.51,1.61,9.59,3.11,9.59s2.76-4.08,3.11-9.59c5.51-0.35,9.59-1.61,9.59-3.11c0-1.5-4.08-2.76-9.59-3.11
				C1502.76,439.33,1501.5,435.25,1500,435.25z"/>
			<path class="st5" d="M1922.08,934.43c-1,0-1.84,2.72-2.07,6.39c-3.67,0.23-6.39,1.07-6.39,2.07c0,1,2.72,1.84,6.39,2.07
				c0.23,3.67,1.07,6.39,2.07,6.39c1,0,1.84-2.72,2.08-6.39c3.67-0.23,6.39-1.07,6.39-2.07c0-1-2.72-1.84-6.39-2.07
				C1923.92,937.15,1923.08,934.43,1922.08,934.43z"/>
			<path class="st5" d="M1741.25,952.71l-4.93-2.06c-0.26-0.11-0.47-0.32-0.58-0.58l-2.06-4.94c-0.37-0.89-1.63-0.89-2,0l-2.06,4.94
				c-0.11,0.26-0.32,0.47-0.58,0.58l-4.94,2.06c-0.89,0.37-0.89,1.63,0,2l4.94,2.06c0.26,0.11,0.47,0.32,0.58,0.58l2.06,4.94
				c0.37,0.89,1.63,0.89,2,0l2.06-4.94c0.11-0.26,0.32-0.47,0.58-0.58l4.93-2.06C1742.14,954.34,1742.14,953.08,1741.25,952.71z"/>
			<path class="st5" d="M1130.64,867.34l-4.93-2.06c-0.26-0.11-0.47-0.32-0.58-0.58l-2.06-4.93c-0.37-0.89-1.63-0.89-2,0l-2.06,4.93
				c-0.11,0.26-0.32,0.47-0.58,0.58l-4.94,2.06c-0.89,0.37-0.89,1.63,0,2l4.94,2.06c0.26,0.11,0.47,0.32,0.58,0.58l2.06,4.94
				c0.37,0.89,1.63,0.89,2,0l2.06-4.94c0.11-0.26,0.32-0.47,0.58-0.58l4.93-2.06C1131.52,868.97,1131.52,867.71,1130.64,867.34z"/>
			<path class="st5" d="M1125.7,584.53l-4.93-2.06c-0.26-0.11-0.47-0.32-0.58-0.58l-2.06-4.93c-0.37-0.89-1.63-0.89-2,0l-2.06,4.93
				c-0.11,0.26-0.32,0.47-0.58,0.58l-4.94,2.06c-0.89,0.37-0.89,1.63,0,2l4.94,2.06c0.26,0.11,0.47,0.32,0.58,0.58l2.06,4.93
				c0.37,0.89,1.63,0.89,2,0l2.06-4.93c0.11-0.26,0.32-0.47,0.58-0.58l4.93-2.06C1126.59,586.16,1126.59,584.9,1125.7,584.53z"/>
			<path class="st4" d="M1883.89,515.76l-6.97-2.91c-0.37-0.16-0.67-0.45-0.82-0.82l-2.91-6.97c-0.52-1.25-2.3-1.25-2.83,0
				l-2.91,6.97c-0.15,0.37-0.45,0.67-0.82,0.82l-6.97,2.91c-1.26,0.52-1.26,2.3,0,2.83l6.97,2.91c0.37,0.16,0.67,0.45,0.82,0.82
				l2.91,6.97c0.52,1.26,2.3,1.26,2.83,0l2.91-6.97c0.16-0.37,0.45-0.67,0.82-0.82l6.97-2.91
				C1885.15,518.06,1885.15,516.28,1883.89,515.76z"/>
			<path class="st4" d="M904.61,731.09l-6.97-2.91c-0.37-0.16-0.67-0.45-0.82-0.82l-2.91-6.97c-0.52-1.26-2.3-1.26-2.83,0
				l-2.91,6.97c-0.15,0.37-0.45,0.67-0.82,0.82l-6.97,2.91c-1.25,0.52-1.26,2.3,0,2.83l6.97,2.91c0.37,0.16,0.67,0.45,0.82,0.82
				l2.91,6.97c0.52,1.26,2.3,1.26,2.83,0l2.91-6.97c0.16-0.37,0.45-0.67,0.82-0.82l6.97-2.91
				C905.86,733.39,905.86,731.61,904.61,731.09z"/>
			<path class="st5" d="M2140.22,879.28l-5.05-2.11c-0.27-0.11-0.48-0.33-0.6-0.59l-2.11-5.05c-0.38-0.91-1.67-0.91-2.05,0
				l-2.11,5.05c-0.11,0.27-0.33,0.48-0.6,0.6l-5.05,2.11c-0.91,0.38-0.91,1.67,0,2.05l5.05,2.11c0.27,0.11,0.48,0.33,0.6,0.6
				l2.11,5.05c0.38,0.91,1.67,0.91,2.05,0l2.11-5.05c0.11-0.27,0.33-0.48,0.6-0.6l5.05-2.11
				C2141.12,880.95,2141.12,879.66,2140.22,879.28z"/>
			<path class="st4" d="M1494.37,1034.64l-7.41-3.1c-0.4-0.17-0.71-0.48-0.87-0.88l-3.1-7.41c-0.56-1.33-2.45-1.33-3.01,0l-3.1,7.41
				c-0.17,0.4-0.48,0.71-0.88,0.88l-7.42,3.1c-1.34,0.56-1.34,2.45,0,3.01l7.42,3.1c0.39,0.17,0.71,0.48,0.88,0.88l3.1,7.41
				c0.56,1.34,2.45,1.34,3.01,0l3.1-7.41c0.16-0.4,0.48-0.71,0.87-0.88l7.41-3.1C1495.7,1037.09,1495.7,1035.2,1494.37,1034.64z"/>
		</g>
		<g>
			<path class="st6" d="M1500,324.5c-531.2,0-963.32,432.12-963.32,963.31c0,23.41,0.87,47.18,2.56,70.77v1163.1
				c0,28.54,23.24,51.78,51.78,51.78h1817.95c28.54,0,51.78-23.24,51.78-51.78v-1163.1c1.69-23.59,2.56-47.35,2.56-70.77
				C2463.32,756.62,2031.2,324.5,1500,324.5z M2414.21,1355.96c-0.06,0.64-0.06,1.28-0.06,1.92v1163.8c0,2.85-2.33,5.18-5.18,5.18
				H591.03c-2.85,0-5.18-2.33-5.18-5.18v-1163.8c0-0.64,0-1.28-0.06-1.92c-1.69-22.71-2.5-45.61-2.5-68.15
				c0-505.45,411.21-916.72,916.72-916.72s916.72,411.27,916.72,916.72C2416.72,1310.36,2415.9,1333.25,2414.21,1355.96z"/>
		</g>
		<g>
			<g>
				<g>
					<g>
						
							<linearGradient id="SVGID_00000111151440500461834750000010011884397708128682_" gradientUnits="userSpaceOnUse" x1="941.5818" y1="2235.1489" x2="1717.6178" y2="2235.1489" gradientTransform="matrix(-1 0 0 1 2137.3289 0)">
							<stop  offset="0" style="stop-color:#3CC681"/>
							<stop  offset="1" style="stop-color:#80FFB3"/>
						</linearGradient>
						<path style="fill:url(#SVGID_00000111151440500461834750000010011884397708128682_);" d="M452.13,2124.03
							c-33.26,89.58-40.63,174.34-23.49,223.21c15.08,14.75,31.65,29.07,49.59,42.81c58.05,44.45,130.38,82.79,212.65,109.91
							c112.41,37.06,224.2,46.84,318.02,33.01c4.35-0.63,8.67-1.34,12.95-2.08c10.97-1.9,21.67-4.15,32.07-6.73
							c40.08-23.75,84.49-85.58,113.7-164.27c29.22-78.7,35.41-153.11,19.78-195.23c-8.94-11.3-18.76-22.43-29.38-33.33
							c-61.31-62.94-149.67-118.69-255.41-155.84c-4.99-1.77-10.02-3.48-15.08-5.15c-82.26-27.12-164.19-39.63-238.98-38.98
							c-23.12,0.21-45.55,1.67-67.1,4.36C535.71,1963.86,485.38,2034.47,452.13,2124.03z"/>
						<path class="st8" d="M650.76,2182.09c0,0,278.05,78.49,452.16,172.63c0,0-224.53-123.66-447.78-179.88L650.76,2182.09z"/>
						<path class="st8" d="M1147.16,2163.69c0,0-159.86-146.56-476.65-193.64l13.3,56.53c0,0,247.24,18.93,467.45,164.53
							C1151.26,2191.12,1163.29,2166.4,1147.16,2163.69z"/>
						<path class="st8" d="M1023.16,2497.65c0,0-221.96,20.69-500.8-128.59l47.79-36.39c0,0,205.84,130.43,474.35,145.95
							C1044.51,2478.62,1037.57,2505.01,1023.16,2497.65z"/>
						<path class="st9" d="M449.52,2123.17c-34.15,91.96-41.71,179-24.1,229.17c4.77,13.6,11.38,24.48,19.82,32.02
							c4.87,4.36,10.35,7.61,16.45,9.62c0.24,0.08,0.53,0.18,0.81,0.22c4.44,1.38,9.05,2.07,13.82,2.09
							c12.36,0.04,25.69-4.31,39.46-12.5c47.43-28.1,100.01-101.29,134.59-194.41c34.59-93.15,41.89-181.23,23.4-231.06
							c-5.35-14.5-12.89-25.73-22.58-32.95c-3.74-2.8-7.8-4.96-12.19-6.49c-0.24-0.12-0.54-0.22-0.78-0.3
							c-6.1-2.01-12.53-2.69-19.22-2.14c-11.59,0.94-23.96,5.58-36.69,13.42C535.33,1958.73,483.66,2031.23,449.52,2123.17z"/>
						<path class="st9" d="M651.19,1925.36c3.31,6.23,68.26,7.81,68.26,7.81s0.52,8.86-26.47,22.56
							c-26.99,13.7,48.43,56.81,37.17,94.82c-11.26,38-46.39,37.72-47.69,69.45c-1.31,31.73,46.56,87.48,2.82,107.83
							c-43.74,20.34-75.06,48.26-62.8,87.06c12.26,38.81-27.52,58.72-70.63,67.1c-43.11,8.38-3.7,56.14-3.7,56.14l-85.64-43.92
							L651.19,1925.36z"/>
						<path class="st10" d="M449.52,2123.17c-34.15,91.96-41.71,179-24.1,229.17c3.64,10.37,8.33,19.15,14.11,26.09
							c1.8,2.15,3.71,4.14,5.71,5.94c11.07-0.89,22.82-5.13,34.91-12.32c47.43-28.1,100.01-101.29,134.59-194.41
							c34.59-93.15,41.89-181.23,23.4-231.07c-4.7-12.72-11.08-22.94-19.14-30.14c-2.75,0.23-5.56,0.66-8.4,1.31
							c-9.11,2.03-18.59,6.14-28.29,12.11C535.33,1958.73,483.66,2031.23,449.52,2123.17z"/>
						<g>
							<path class="st8" d="M658.49,1939.15c-1.91,5.13,1.11,10.79,6.73,12.65c5.62,1.85,11.72-0.8,13.63-5.93
								c1.91-5.13-1.11-10.8-6.73-12.65C666.5,1931.37,660.4,1934.02,658.49,1939.15z"/>
							<path class="st8" d="M669.29,2038.31c-3.18,8.55,1.85,17.99,11.22,21.08c9.37,3.09,19.54-1.34,22.72-9.89
								c3.18-8.55-1.85-17.99-11.22-21.08C682.64,2025.33,672.47,2029.76,669.29,2038.31z"/>
							<path class="st8" d="M564.26,2321.19c-3.17,8.55,1.85,17.99,11.22,21.08c9.37,3.09,19.54-1.34,22.72-9.89
								c3.17-8.55-1.85-17.99-11.22-21.08C577.6,2308.21,567.43,2312.64,564.26,2321.19z"/>
							<path class="st8" d="M635.64,2183.65c-3.17,8.55,1.85,17.99,11.22,21.08c9.37,3.09,19.55-1.34,22.72-9.89
								c3.18-8.55-1.85-17.99-11.22-21.08C648.99,2170.67,638.82,2175.1,635.64,2183.65z"/>
							<path class="st8" d="M491.17,2389.79c-1.91,5.13,1.11,10.79,6.73,12.65c5.62,1.85,11.72-0.8,13.63-5.94
								c1.91-5.13-1.11-10.79-6.73-12.65C499.17,2382.01,493.07,2384.66,491.17,2389.79z"/>
						</g>
						<path class="st8" d="M1184.34,2274.73c0,0-194.32-112.73-344.42-159.89c0,0,194.99,59.65,346.72,153.7L1184.34,2274.73z"/>
						<path class="st8" d="M1111,2458.6c0,0-221.57-52.56-362.08-120.9c0,0,181.29,89.9,358.92,126.75L1111,2458.6z"/>
					</g>
					<path class="st11" d="M449.52,2123.17c-34.15,91.96-41.71,179-24.1,229.17c3.64,10.37,8.33,19.15,14.11,26.09
						c2.65-2.11,5.33-4.36,8.02-6.75c-25.36-14.22-7.19-37.86,22.12-91.52c29.75-54.5-8.23-49.64-8.02-91.28
						c0.22-41.64,35.83-24.69,64.41-70.89c28.58-46.2-10-34.59-7.48-82.42c2.52-47.84,27.8-8.21,57.31-15.87
						c29.19-7.57,34.59-99.92,34.71-101.91c-0.01-0.03-0.01-0.04-0.01-0.04c-9.11,2.03-18.59,6.14-28.29,12.11
						C535.33,1958.73,483.66,2031.22,449.52,2123.17z"/>
				</g>
			</g>
			<g>
				<g>
					<g>
						
							<linearGradient id="SVGID_00000038398748969297715610000001695029581753290888_" gradientUnits="userSpaceOnUse" x1="1804.2529" y1="2235.1489" x2="2580.2891" y2="2235.1489">
							<stop  offset="0" style="stop-color:#3CC681"/>
							<stop  offset="1" style="stop-color:#80FFB3"/>
						</linearGradient>
						<path style="fill:url(#SVGID_00000038398748969297715610000001695029581753290888_);" d="M2547.87,2124.03
							c33.26,89.58,40.63,174.34,23.49,223.21c-15.08,14.75-31.65,29.07-49.59,42.81c-58.05,44.45-130.38,82.79-212.65,109.91
							c-112.41,37.06-224.2,46.84-318.02,33.01c-4.35-0.63-8.67-1.34-12.95-2.08c-10.97-1.9-21.67-4.15-32.07-6.73
							c-40.08-23.75-84.49-85.58-113.7-164.27c-29.22-78.7-35.41-153.11-19.78-195.23c8.94-11.3,18.76-22.43,29.38-33.33
							c61.31-62.94,149.67-118.69,255.41-155.84c4.99-1.77,10.02-3.48,15.08-5.15c82.26-27.12,164.19-39.63,238.98-38.98
							c23.12,0.21,45.55,1.67,67.1,4.36C2464.29,1963.86,2514.62,2034.47,2547.87,2124.03z"/>
						<path class="st8" d="M2349.24,2182.09c0,0-278.05,78.49-452.16,172.63c0,0,224.53-123.66,447.78-179.88L2349.24,2182.09z"/>
						<path class="st8" d="M1852.84,2163.69c0,0,159.86-146.56,476.65-193.64l-13.3,56.53c0,0-247.24,18.93-467.45,164.53
							C1848.74,2191.12,1836.71,2166.4,1852.84,2163.69z"/>
						<path class="st8" d="M1976.84,2497.65c0,0,221.96,20.69,500.8-128.59l-47.79-36.39c0,0-205.84,130.43-474.35,145.95
							C1955.49,2478.62,1962.43,2505.01,1976.84,2497.65z"/>
						<path class="st9" d="M2550.48,2123.17c34.15,91.96,41.71,179,24.1,229.17c-4.77,13.6-11.38,24.48-19.82,32.02
							c-4.87,4.36-10.35,7.61-16.45,9.62c-0.24,0.08-0.53,0.18-0.81,0.22c-4.44,1.38-9.05,2.07-13.82,2.09
							c-12.36,0.04-25.69-4.31-39.46-12.5c-47.43-28.1-100.01-101.29-134.59-194.41c-34.59-93.15-41.89-181.23-23.4-231.06
							c5.35-14.5,12.89-25.73,22.58-32.95c3.74-2.8,7.8-4.96,12.19-6.49c0.24-0.12,0.54-0.22,0.78-0.3
							c6.1-2.01,12.53-2.69,19.23-2.14c11.59,0.94,23.96,5.58,36.69,13.42C2464.67,1958.73,2516.34,2031.23,2550.48,2123.17z"/>
						<path class="st9" d="M2348.81,1925.36c-3.31,6.23-68.26,7.81-68.26,7.81s-0.52,8.86,26.47,22.56
							c26.99,13.7-48.43,56.81-37.17,94.82c11.26,38,46.39,37.72,47.69,69.45c1.31,31.73-46.56,87.48-2.82,107.83
							c43.74,20.34,75.06,48.26,62.8,87.06c-12.26,38.81,27.52,58.72,70.63,67.1c43.11,8.38,3.7,56.14,3.7,56.14l85.64-43.92
							L2348.81,1925.36z"/>
						<path class="st10" d="M2550.48,2123.17c34.15,91.96,41.71,179,24.1,229.17c-3.64,10.37-8.33,19.15-14.11,26.09
							c-1.8,2.15-3.71,4.14-5.71,5.94c-11.07-0.89-22.82-5.13-34.91-12.32c-47.43-28.1-100.01-101.29-134.59-194.41
							c-34.59-93.15-41.89-181.23-23.4-231.07c4.7-12.72,11.08-22.94,19.14-30.14c2.75,0.23,5.56,0.66,8.4,1.31
							c9.11,2.03,18.59,6.14,28.29,12.11C2464.67,1958.73,2516.34,2031.23,2550.48,2123.17z"/>
						<g>
							<path class="st8" d="M2341.51,1939.15c1.91,5.13-1.11,10.79-6.73,12.65c-5.62,1.85-11.72-0.8-13.63-5.93
								c-1.91-5.13,1.11-10.8,6.73-12.65C2333.5,1931.37,2339.6,1934.02,2341.51,1939.15z"/>
							<path class="st8" d="M2330.71,2038.31c3.18,8.55-1.85,17.99-11.22,21.08c-9.37,3.09-19.54-1.34-22.72-9.89
								c-3.18-8.55,1.85-17.99,11.22-21.08C2317.36,2025.33,2327.53,2029.76,2330.71,2038.31z"/>
							<path class="st8" d="M2435.74,2321.19c3.18,8.55-1.85,17.99-11.22,21.08c-9.37,3.09-19.54-1.34-22.72-9.89
								c-3.18-8.55,1.85-17.99,11.22-21.08C2422.4,2308.21,2432.57,2312.64,2435.74,2321.19z"/>
							<path class="st8" d="M2364.36,2183.65c3.17,8.55-1.85,17.99-11.22,21.08c-9.37,3.09-19.55-1.34-22.72-9.89
								c-3.18-8.55,1.85-17.99,11.22-21.08C2351.01,2170.67,2361.18,2175.1,2364.36,2183.65z"/>
							<path class="st8" d="M2508.83,2389.79c1.91,5.13-1.11,10.79-6.73,12.65c-5.62,1.85-11.72-0.8-13.63-5.94
								c-1.91-5.13,1.11-10.79,6.73-12.65C2500.83,2382.01,2506.93,2384.66,2508.83,2389.79z"/>
						</g>
						<path class="st8" d="M1815.66,2274.73c0,0,194.32-112.73,344.42-159.89c0,0-194.99,59.65-346.72,153.7L1815.66,2274.73z"/>
						<path class="st8" d="M1889,2458.6c0,0,221.57-52.56,362.08-120.9c0,0-181.29,89.9-358.92,126.75L1889,2458.6z"/>
					</g>
					<path class="st11" d="M2550.48,2123.17c34.15,91.96,41.71,179,24.1,229.17c-3.64,10.37-8.33,19.15-14.11,26.09
						c-2.65-2.11-5.33-4.36-8.02-6.75c25.36-14.22,7.19-37.86-22.12-91.52c-29.75-54.5,8.23-49.64,8.02-91.28
						c-0.22-41.64-35.83-24.69-64.41-70.89c-28.58-46.2,10-34.59,7.48-82.42c-2.52-47.84-27.8-8.21-57.31-15.87
						c-29.19-7.57-34.59-99.92-34.71-101.91c0.01-0.03,0.01-0.04,0.01-0.04c9.11,2.03,18.59,6.14,28.29,12.11
						C2464.67,1958.73,2516.34,2031.22,2550.48,2123.17z"/>
				</g>
			</g>
		</g>
		<g>
			<g>
				<g>
					<path class="st13" d="M1603.28,1495.49c-5.05,4.16-10.37,7.59-15.54,10.39c-15.93,8.64-30.46,11.24-30.46,11.24l-80.14,109.42
						c-23.76-11.2-48.76-37.35-52.79-42.06c0,0,82.7-93.89,82.18-117.25c0.04-0.2,0.01-0.45-0.01-0.64
						c-2.14-4.99-1.3-13.78,1.39-23.16c1.87-6.47,4.6-13.22,7.8-19.26c7.83-14.75-13.47-55.23-4.02-59.35
						c9.48-4.09,28.19,16.06,28.03,29.94c-0.13,13.84,12.28,13.82,20.51,3.49c12.7-15.94,55.47-102.62,67.75-95.6
						c12.28,7.02-30.41,92.73-30.41,92.73s64.71-89.03,73.02-76.02c8.27,12.99-53.32,93.26-53.32,93.26s52.34-60.85,65.15-54.5
						c12.84,6.31-45.71,77.77-45.71,77.77s42.88-38.12,53.98-31.58C1701.78,1410.85,1623.84,1478.44,1603.28,1495.49z"/>
					<path class="st14" d="M1512.42,1486.23c2.91,9.02,10.2,15.91,18.2,20.6c7.94,4.66,17.4,7.6,26.67,6.7
						c2.75-0.27,5.31-0.98,7.8-1.92c-1.5,0.1-2.98,0.14-4.38,0.05c-17.25-1.06-24.42-18.76-24.42-18.76
						c-4.03-0.25-16.82-9.46-25.43-19.8C1510.99,1477.52,1511.04,1481.97,1512.42,1486.23z"/>
					<path class="st15" d="M1603.28,1495.49c-5.05,4.16-10.37,7.59-15.54,10.39c-8.39,3.29-18.69,6.32-27.03,5.79
						c-17.25-1.06-24.42-18.76-24.42-18.76c-4.78-0.29-21.93-13.21-29.76-25.67c0.04-0.2,0.01-0.45-0.01-0.64
						c-2.14-4.99-1.3-13.78,1.39-23.16c1.87-6.47,4.6-13.22,7.8-19.26c7.83-14.75-13.47-55.23-4.02-59.35
						c9.48-4.09,28.19,16.06,28.03,29.94c-0.13,13.84,12.28,13.82,20.51,3.49c12.7-15.94,55.47-102.62,67.75-95.6
						c12.28,7.02-30.41,92.73-30.41,92.73s64.71-89.03,73.02-76.02c8.27,12.99-53.32,93.26-53.32,93.26s52.34-60.85,65.15-54.5
						c12.84,6.31-45.71,77.77-45.71,77.77s42.88-38.12,53.98-31.58C1701.78,1410.85,1623.84,1478.44,1603.28,1495.49z"/>
					<path class="st13" d="M1638.75,1443.49c-3.03-5.04-6.13-10.01-9.5-14.77c-3.37-4.74-6.89-9.42-11.11-13.3
						c-4.19-4-8.78-7.66-13.4-11.19c-4.66-3.51-9.47-6.83-14.64-9.63c5.57,1.97,10.72,4.98,15.63,8.24
						c4.94,3.27,9.51,6.99,13.95,10.95c4.33,4.17,7.88,8.97,11.04,13.97C1633.81,1432.79,1636.57,1438.02,1638.75,1443.49z"/>
				</g>
				<path class="st6" d="M1487.37,1486.69c8.95,4.83,75.95,41.98,77.08,60.97c1.13,18.99-193.89,244.8-206.05,242.46
					c-12.16-2.34-95.37-151.11-95.37-151.11L1487.37,1486.69z"/>
				<path class="st16" d="M1532.69,1550.46c-7.96-0.23-13.54,5.76-20.13,9.35c-6.37,3.46-13.56,4.95-20.75,5.32
					c-24.21,1.26-58.72-9.23-74.93-30.56l-153.84,104.45c0,0,83.21,148.77,95.37,151.11c11.27,2.17,179.29-191.27,203.14-234.93
					C1551.91,1553.68,1542.31,1550.74,1532.69,1550.46z"/>
				<path class="st16" d="M1470.62,1581.25c-29.41,0.04-54.66-12.42-73.97-32.96l-133.62,90.72c0,0,83.21,148.77,95.37,151.11
					c11.68,2.25,191.82-205.72,205.17-239.12C1535.61,1567.66,1503.59,1581.2,1470.62,1581.25z"/>
			</g>
			<g>
				<g>
					<path class="st13" d="M1356.96,1006.75c0,0,16.32,83.1,15.86,109.79c-0.46,26.67,13.9,33.88,13.9,33.88s-5.23,17.43-13.9,22.58
						c-8.68,5.11,2.62,42.06-28.16,71.82c-30.79,29.76-58.5-0.99-72.86,23.6c-14.36,24.64-9.23,40.02-9.23,40.02
						s-100.57,66.68-136.47,0c0,0,5.13-46.19,0-61.56c-5.13-15.39-35.05-165.8-15.46-190.14
						C1130.2,1032.38,1356.96,1006.75,1356.96,1006.75z"/>
					<path class="st17" d="M1291.92,1126.54c0,0-7.91-13.22-9.76-9.46c-1.85,3.76,4.88,8.3,4.88,8.3s-12.45,0.34-7.24,6.23
						C1285.02,1137.5,1291.92,1126.54,1291.92,1126.54z"/>
					<g>
						<path class="st17" d="M1364.93,1100.71c1.43,5.53-1.89,11.17-7.42,12.6c-5.53,1.43-11.17-1.89-12.6-7.42
							c-1.43-5.53,1.89-11.17,7.42-12.6C1357.85,1091.86,1363.5,1095.18,1364.93,1100.71z"/>
					</g>
					<path class="st17" d="M1337.4,1076.53c-1.09,8.75,33.03,10.72,29.64,3.84C1363.65,1073.5,1338.92,1064.41,1337.4,1076.53z"/>
					<g>
						<path class="st17" d="M1383.63,992.73c-30.81-28.94-47.6-52.5-77.23-21.54c-18.79,19.63-23.17,41.65-11.74,54.32
							c-64.6,9.63-179.04,27.35-190.6,33.6c-16.19,8.73-22.09,22.55-25.17,67.71c-3.08,45.15-7.17,28.72,15.39,81.09
							c22.56,52.32,19.5,40,45.16,59.5c25.67,19.49,44.12-4.11,55.4-21.54c11.3-17.45,39.01-14.37,71.83-24.64
							c0.46-0.14,0.83-0.33,1.28-0.48c2.6,16.69,11.9,37.33,39.11,47.29c47.79,17.5,67.31-87.5,62.59-89.04
							c-4.72-1.54-34.99,4.9-39.03,2.88c-2.62-1.31-12.52-32.67-18.66-52.58c2.49-6.76,3.98-20.73,3.98-31.2
							c0-19.48,27.7-43.1,28.73-53.36c0.35-3.55-0.3-7.69-1.27-11.62C1365.55,1027.75,1406.68,1014.38,1383.63,992.73z
							 M1272.82,1154.51c-20.52-26.67-8.21-45.15,0-60.53c8.21-15.41,23.61,4.11,30.79,29.77c0.22,0.8,0.44,1.39,0.66,2.08
							C1315.8,1178.99,1276.77,1159.64,1272.82,1154.51z"/>
					</g>
					<path class="st17" d="M1108.91,1239.68c0.65-12.76,0.23-25.57,1.34-38.31c1.1-12.64,4.53-25.22,14.4-33.86
						c11.96-10.47,28.73-12.05,43.61-15.38c7.25-1.62,22.43-4.7,26.12-12.4c2.46-5.13-0.74-12.9,0.57-18.66
						c2.78-12.16,13.5-19.84,23.56-25.98c25.27-15.41,53.29-25.58,76.51-44.52c13.95-11.38,24.9-26.78,28.37-44.7
						c2.97-15.31,0.18-30.89-2.45-46.13c-4.56,2.34-9.35,6.01-14.55,11.45c-18.79,19.63-23.17,41.65-11.74,54.32
						c-64.6,9.63-179.04,27.35-190.6,33.6c-16.19,8.73-22.09,22.55-25.17,67.71c-3.08,45.15-7.17,28.72,15.39,81.09
						C1100.92,1223.31,1105.32,1233.02,1108.91,1239.68z"/>
					<path class="st4" d="M1317.66,990.8c-8.19,64.61-205.54,108.28-233.76,89.2c-28.2-19.05-40.61-134.42,99-172.79
						C1264.05,884.9,1323.09,947.94,1317.66,990.8z"/>
					<path class="st16" d="M1176.4,959.3c3.49,21.81-69.93,72.34-73.6,33.01C1099.13,952.99,1172.57,935.36,1176.4,959.3z"/>
					<path class="st16" d="M1070.43,1000.99c0.87,9.93,4.26,19.53,11.51,28.14c15.45,18.34,42.01,19.91,61.72,9.62
						c11.72-6.12,19.68-17.15,30.17-24.97c13.45-10.01,28.01-3.92,43.06-1.59c13.34,2.07,27.46,3.11,40.23-1.93
						c12.67-5,22.88-16.34,31.79-26.6c8.38-9.65,15.4-20.81,17.29-33.97c8.81,13.63,13.08,28.27,11.45,41.11
						c-8.19,64.61-205.54,108.28-233.76,89.2C1069.81,1070.48,1059.68,1036.95,1070.43,1000.99z"/>
					<path class="st17" d="M1279.64,1187.14c-6.63,5.12-12.7,11.01-19.83,15.5c-0.09,0.05-0.18,0.09-0.27,0.15
						c-10.08,9.46-20.77,18.28-31.54,27.01c11.36-2.19,24.47-4.15,38.66-8.59c0.46-0.14,0.83-0.33,1.28-0.48
						c2.6,16.69,11.9,37.33,39.11,47.29c15.63,5.72,28.18-1.75,37.9-14.33C1313.95,1245.38,1293.78,1217.24,1279.64,1187.14z"/>
					<path class="st18" d="M1150.3,1120.04c3.58,11.79,13.62,88.16,14.6,69.42c0.96-18.35-3.56-30.03-3.56-30.03l5.7,13.46
						c0,0,3.34-48.65-2.05-55.46c-5.39-6.81-4.48,14.73-4.48,14.73L1150.3,1120.04z"/>
					<path class="st18" d="M1107.5,1144.11c5.24,14.51,52.4,98.57,37.38,80.53c-14.71-17.68-18.93-32.77-18.93-32.77l4.37,17.76
						c0,0-39.79-46.26-39.5-57.12c0.3-10.86,15.52,11.41,15.52,11.41L1107.5,1144.11z"/>
					<path class="st18" d="M1197.37,1157.81c4.83-20.23,20.32-31.45,17.2-37.06c0,0,11.13,20.25-0.84,33.36l16.55,4.6
						c0,0,2.93,39-16.66,55.66l0.84-37.05C1214.46,1177.33,1195.99,1163.59,1197.37,1157.81z"/>
					<path class="st6" d="M1364.16,1209.63c0,0-6.27,26.93-13.51,28.04c-7.24,1.12-25.52-23.7-21.09-26.59
						C1334,1208.19,1364.16,1209.63,1364.16,1209.63z"/>
					<path class="st19" d="M1278.53,1324.22c0,0,8.98-38.12-3.9-42.39c-12.89-4.27-134.94-12.82-160.97-1.37
						c-26.03,11.45-30.51,67.1-30.51,67.1L1278.53,1324.22z"/>
					<g>
						<path class="st6" d="M1510.31,2526.05l2.85-45.26c0,0,2.87,20.41,10.02,45.26h80.07c-2.12-25.48-5.1-59.62-8.88-99.13
							c-14.44-150.43-89.95-977.02-326.75-1123.05c-25.94-15.99-153.96,1.73-170.12,18.6
							C886.96,1542.3,876.06,2458.81,875.54,2526.05H1510.31z"/>
					</g>
					<path class="st20" d="M937.94,2235.47c0,0,110.39,79.35,245.43,35.3C1183.37,2270.77,1055.88,2412.99,937.94,2235.47z"/>
					<g class="st21">
						<path class="st20" d="M1076.54,2119.14c0,0,97.58,60.21,213.09,4.9C1289.64,2124.04,1232.25,2301.83,1076.54,2119.14z"/>
					</g>
					<g class="st21">
						<path class="st20" d="M1114.89,1844.75c0,0,115.81-1.15,186.35-99.47C1301.24,1745.28,1285.38,1907.22,1114.89,1844.75z"/>
					</g>
					<g class="st22">
						<path class="st20" d="M1307.91,2102.03c8.97,45.86-2.52,88.05-17.89,131.05c-7.94,22.22-16.31,44.67-20.93,67.86
							c-4.72,23.67-6.36,47.85-6.72,71.95c-0.7,47.25,4.4,94.57,2.14,141.8c-0.18,3.77-0.49,7.56-0.72,11.34h246.52l2.85-45.26
							c0,0,2.87,20.41,10.02,45.26h80.07c-2.12-25.48-5.1-59.62-8.88-99.14c-7.07-73.68-28.82-309.59-76.97-548.29
							c-8.61-6.75-16.67-14.25-24.19-21.85c-37.49-37.88-65.56-83.42-96.98-126.13c-35.61-48.4-63.11-102.15-91.24-155.19
							c1.32,18.62,3.73,37.19,4.44,55.85c1,26.39-1.83,52.84,0.89,79.19c2.26,21.86,9.53,42.43,16.74,63.04
							c3.79,10.83,8.21,22.83,4.62,34.33c-3.71,11.85-14.31,19.77-24.32,26.18c-16.57,10.62-34.77,17.86-46.91,34.15
							c-23.08,30.97-188.93,101-317.79,105.3c5.79,15.92,63.34,11.93,124.63,27.42c5.45,1.38,3.78,21.33,9.08,23.61
							C1203.33,2079.15,1302.6,2074.84,1307.91,2102.03z"/>
					</g>
					<g class="st23">
						<path class="st20" d="M1424.16,2024.4c23.9,25.22,57.26,63.32,49.28,100.99c-3.33,15.72-12.82,28.7-19.22,43.17
							c-5.96,13.46-6.71,28.57-2.45,42.67c7.55,25.06,27.63,44.08,39.24,67.13c12.59,25.02,12.79,50.87,0.59,76.05
							c-13.42,27.69-35.42,50.38-48.21,78.33c-10.69,23.35-12.44,51.28-14.97,76.53c-0.56,5.59-1.07,11.18-1.58,16.78h83.47
							l2.85-45.26c0,0,2.87,20.41,10.02,45.26h80.07c-2.12-25.48-5.1-59.62-8.88-99.14c-6.5-67.68-25.37-272.26-65.72-490.13
							c-27.81-4.48-56-7-84.11-7.48c-18.28-0.32-37.21-0.51-55.02,4.12c-15.25,3.97-29.77,10.17-44.79,14.86
							C1369.36,1975.5,1398.9,1997.74,1424.16,2024.4z"/>
					</g>
				</g>
			</g>
			<g>
				<path class="st13" d="M1726.72,1156.07c0,0-14.93,76.03-14.51,100.45c0.42,24.4-12.72,31-12.72,31s4.79,15.95,12.72,20.66
					c7.94,4.68-2.4,38.49,25.77,65.71c28.18,27.23,53.52-0.9,66.66,21.6c13.14,22.55-1.52,97.35-1.52,97.35
					s128.69,65.73,161.54,4.71c0,0-31.4-107.71-26.71-121.77c4.69-14.08,32.07-151.71,14.14-173.98
					C1934.2,1179.52,1726.72,1156.07,1726.72,1156.07z"/>
				<path class="st24" d="M1738.05,1207.93c11.51,13.11,9.95,28.43,14,44.25c1.8,7.02,6.74,12.1,11.06,17.68
					c3.77,4.88,6.34,5.37,12.24,2.86c10.03-4.28,15.94,0.84,20.24,10.16c5.51,11.95,9.7,23.06,20.54,31.58
					c11.81,9.28,26.18,15.5,40.63,19.34c29.83,7.93,61.11,3.29,90.79-3.77c8.22-46.64,16.56-113.3,4.54-128.23
					c-17.9-22.28-225.38-45.74-225.38-45.74s-3.56,18.16-7.16,39.55C1726.56,1198.17,1732.99,1202.16,1738.05,1207.93z"/>
				<path class="st24" d="M1898.79,1410.73c-23.29-1.58-46.2-7.26-64.59-22.27c-14.48-11.83-27.96-26.44-36.76-43.25
					c-13.76,17.19-39.93,22.13-61.98,25.99c0.84,0.9,1.61,1.81,2.52,2.7c28.18,27.23,53.52-0.9,66.66,21.6
					c13.14,22.55-1.52,97.35-1.52,97.35s128.69,65.73,161.54,4.71c0,0-14.67-50.35-22.46-86.7
					C1927.68,1411.62,1913.11,1411.7,1898.79,1410.73z"/>
				<path class="st24" d="M1833.71,1443c-3-20.79-9.02-40.09-19.79-58.18c-4.84-8.14-9.94-16.23-13.38-25.1
					c-0.39-1-0.64-2.03-0.95-3.04c-10.73,7.23-23.35,12.06-35.4,15.82c-7.09,2.21-14.29,3.87-21.54,5.36
					c26.29,20.21,49.59-3.62,62,17.63c13.14,22.55-1.52,97.35-1.52,97.35s14.5,7.34,34.86,14.83c-0.01-1.2,0.06-2.4,0.03-3.6
					C1837.64,1483.75,1836.61,1463.13,1833.71,1443z"/>
				<path class="st17" d="M1712.21,1308.18c0,0,13.49-3.91,20.97-6c0,0-12.54,12.47-18.25,10.7
					C1714.93,1312.88,1713.86,1310.73,1712.21,1308.18z"/>
				<path class="st4" d="M1719.57,1343.39c0,0,12.91-3.34,20.39-5.43c0,0-12.54,12.47-18.25,10.7
					C1721.71,1348.65,1720.92,1346.94,1719.57,1343.39z"/>
				<g>
					<path class="st17" d="M1719.43,1242.04c-1.31,5.06,1.73,10.22,6.79,11.53c5.06,1.31,10.22-1.73,11.53-6.79
						c1.31-5.06-1.73-10.22-6.79-11.53C1725.9,1233.94,1720.74,1236.98,1719.43,1242.04z"/>
				</g>
				<path class="st17" d="M1714.72,1215.07c-4.49,5.12,25.58,16.83,36.12,21.99C1761.39,1242.22,1730.65,1196.9,1714.72,1215.07z"/>
				<path class="st17" d="M1819.3,1180.21c-2.67-9.55-61.48-88.05-90.71-69.62c-12.08,7.62-9.02,32.79-9.02,32.79
					s-35.72-11.14-24.07,15.7c11.64,26.84,44.91,33.49,44.91,33.49S1825.48,1202.31,1819.3,1180.21z"/>
				<path class="st17" d="M1775.53,1263.12c6.57-23.48,20.66-41.34,28.18-27.24c7.51,14.08,18.77,30.98,0,55.39
					c-8.94,11.63,35.14,41.15,54.16,52.06c13.39,7.68,28.2,15.12,43.95,15.54c13.31,0.35,51.07-2.3,54.2-17.3
					c2.4-11.49-0.57-22.93,4.19-34.22c4.74-11.22-0.47-23.02,4.05-34.59c8.38-21.49,9.51-52.93-10.22-68.76
					c-0.74-0.59-1.21-1.29-1.65-1.98c-35.98-9.9-208.78-34.67-208.78-34.67s-6.57,14.08-5.63,23.47c0.94,9.39,26.29,31,26.29,48.82
					C1764.27,1257.47,1768.97,1286.57,1775.53,1263.12z"/>
				<path class="st17" d="M1954.05,1203.99c-0.74-0.59-1.21-1.29-1.65-1.98c-35.98-9.9-208.78-34.67-208.78-34.67
					s-3.03,6.57-4.67,13.73c18.64,25.76,46.86,42.99,76.08,54.52c29.36,11.59,58.32,15.12,89.6,13.86
					c10.63-0.43,22.78-0.12,30.97,7.64c7.89,7.47,11,19.69,11.26,30.22c0.27,10.76-3.39,20.51-13.52,25.28
					c-5.18,2.44-10.93,3.44-15.41,7.26c-4.62,3.94-7.13,9.93-10.26,15.01c-5.5,8.92-13.34,15.31-21.68,21.16
					c5.17,1.53,10.42,2.7,15.83,2.84c13.31,0.35,51.08-2.31,54.2-17.3c2.4-11.49-0.58-22.93,4.19-34.22
					c4.74-11.22-0.47-23.02,4.05-34.59C1972.65,1251.26,1973.78,1219.82,1954.05,1203.99z"/>
				<path class="st18" d="M1828.05,1254.45c6.54,10.45,36.19,81.54,32.24,63.19c-3.87-17.97-11.29-28.06-11.29-28.06l9.02,11.5
					c0,0-9.5-47.83-16.47-52.99c-6.98-5.16-0.47,15.39-0.47,15.39L1828.05,1254.45z"/>
				<path class="st18" d="M1878.98,1254.76c2.26,13.01-0.01,94.01,4.97,74.99c4.88-18.63,1.39-31.76,1.39-31.76l4.65,15.26
					c0,0,13.95-49.18,8.38-57.52c-5.57-8.33-8.68,14.03-8.68,14.03L1878.98,1254.76z"/>
				<path class="st18" d="M1910.95,1282.22c2.66-11.16,11.21-17.35,9.49-20.44c0,0,6.14,11.17-0.46,18.4l9.13,2.54
					c0,0,1.62,21.52-9.19,30.71l0.46-20.44C1920.38,1292.99,1910.19,1285.41,1910.95,1282.22z"/>
				<path class="st4" d="M1753.57,1134.32c-1.37,60.46,180.41,132.82,210,119.99c29.57-12.81,57.76-116.33-69.77-174.36
					C1819.66,1046.22,1754.47,1094.21,1753.57,1134.32z"/>
				<path class="st16" d="M1892.58,1128.68c-6.42,19.38,56.34,77.67,65.42,42.29C1967.09,1135.59,1899.63,1107.41,1892.58,1128.68z"
					/>
				<path class="st16" d="M1971.5,1142.2c3.32,11.51,4.45,23.73-0.67,34.87c-22.1,48.01-79.56,6.35-100.48-19.56
					c-9.9-12.26-16.76-26.29-33.87-28.73c-15.67-2.24-31.56-1.32-45.26-10.59c-8.36-5.65-13.6-13.79-18.1-22.45
					c-12.04,11.64-19.25,25.51-19.54,38.58c-1.37,60.46,180.41,132.82,210,119.99C1984.07,1245.42,2003.81,1192.91,1971.5,1142.2z"
					/>
				<path class="st16" d="M1987.61,1184.22c-2.23,8.94-6.83,17.17-14.96,23.86c-17.32,14.25-42.85,11.32-60.16-1.33
					c-10.29-7.52-16.31-18.92-25.2-27.8c-11.39-11.37-26.13-8.19-40.79-8.52c-13-0.3-26.6-1.66-38.04-8.37
					c-11.36-6.65-19.47-18.71-26.51-29.56c-6.61-10.2-11.71-21.57-11.64-33.92c-10.33,11.03-16.47,23.72-16.74,35.74
					c-1.37,60.46,180.41,132.82,210,119.99C1978.33,1247.91,1992.74,1218.89,1987.61,1184.22z"/>
				<path class="st8" d="M1804.65,1503.45l-12.12-52.46c0,0,81.54-34.14,118.38-30.96c44.29,3.81,52.71,21.15,52.71,21.15
					l12.73,49.6L1804.65,1503.45z"/>
				<g>
					<path class="st8" d="M1956.08,1466.85c0,0,230.05,216.46,242.24,328.58c12.19,112.12-115.58,189.04-115.58,189.04
						L1956.08,1466.85z"/>
					<path class="st25" d="M2180.61,1869.44c-3.29-12.07-5.88-24.56-10.33-36.26c-4.51-11.87-12.33-21.93-17.57-33.43
						c-7.76-17.04-9.97-39.2,1-55.32c4.79-7.04,12.66-12.66,20.97-14.85c-61.31-114.65-218.6-262.71-218.6-262.71l126.66,517.62
						c0,0,68.37-41.22,100.3-107.24C2182.21,1874.63,2181.31,1872.01,2180.61,1869.44z"/>
					<path class="st25" d="M2158.73,1889.06c-11.16-31.51-28.17-61.21-33.38-94.66c-3.57-22.89,0-49.59,14.6-68.04
						c5.94-7.51,14.23-13.02,23.88-13.47c0.5-0.02,0.98,0.05,1.48,0.05c-66.57-111.82-209.23-246.1-209.23-246.1l126.66,517.62
						c0,0,47.2-28.46,81.49-75.95C2162.72,1901.96,2160.99,1895.44,2158.73,1889.06z"/>
				</g>
				<g>
					<path class="st26" d="M1503.08,2526.05h72.42c4.69-13.11,8.3-21.26,8.3-21.26l1.34,21.26h584.76
						c13.96-134.92,67.88-808.04-214.66-1059.01c-32.97-29.29-99.37-19.66-150.95,15.35c-81.15,55.06-242.6,509.45-215.37,496.83
						c-36.9,84.68-64.76,323.57-79.42,476.27C1506.96,2482.07,1504.82,2505.95,1503.08,2526.05z"/>
				</g>
				<path class="st25" d="M1847.93,2123.06c0,0,110.39,79.35,245.43,35.3C2093.36,2158.36,1965.87,2300.59,1847.93,2123.06z"/>
				<path class="st25" d="M1931.26,2298.95c0,0,91.94,52.32,176.58-13.53C2107.84,2285.42,2045.76,2411.89,1931.26,2298.95z"/>
				<g class="st27">
					<path class="st28" d="M1575.5,2526.05c4.69-13.11,8.3-21.27,8.3-21.27l1.34,21.27h195.97c0.87-23.36,3.21-46.73,1.47-70.08
						c-1.87-25.21-8.78-49.42-18.96-72.47c-9.96-22.54-21.94-44.15-31.16-67.02c-9.25-22.95-14.38-46.46-14.64-71.23
						c-0.49-47.6,16.97-92.59,30.34-137.53c7.02-23.61,12.76-47.5,14.7-72.12c2.06-26.19,4.18-52.38,6.05-78.58
						c3.53-49.52,5.71-99.69-1.14-149c-65.75,53.58-113.46,126.49-181.4,177.4c-35.64,89.56-62.56,320.89-76.87,470.07
						c-2.55,26.58-4.69,50.46-6.42,70.56H1575.5z"/>
				</g>
				<g class="st27">
					<path class="st28" d="M1503.08,2526.05h72.42c4.69-13.11,8.3-21.27,8.3-21.27l1.34,21.27h77.6
						c-3.92-19.1-6.16-38.57-8.71-58.27c-4.58-35.48-10-77.82-36.25-104.5c-9.48-9.64-21.27-17.31-29.38-28.24
						c-8.1-10.91-10.95-23.78-9.11-37.18c4.43-32.32,28.38-56.75,48.33-80.86c10.52-12.72,21.41-25.83,28.19-41.01
						c8.39-18.78,13.48-38.85,17.59-58.94c4.02-19.6,7.27-39.36,11.75-58.86c4.83-21.02,11.94-41.05,19.5-61.22
						c24.36-64.97,51.27-128.97,79.8-192.23c-4.41,4.11-8.88,8.15-13.33,12.1c-38.22,33.85-75.49,69.05-116.34,99.78
						c-21.07,15.85-43.42,31.19-67.08,43.78c-2.6,13.39-2.49,20.54,1.22,18.83c-36.9,84.68-64.76,323.57-79.41,476.27
						C1506.96,2482.07,1504.82,2505.94,1503.08,2526.05z"/>
				</g>
				<path class="st17" d="M1790.33,1253.87c0,0,7.91-13.22,9.76-9.46c1.85,3.76-4.88,8.3-4.88,8.3s12.45,0.34,7.24,6.23
					C1797.23,1264.83,1790.33,1253.87,1790.33,1253.87z"/>
			</g>
			<g>
				<g>
					<path class="st13" d="M932.31,1968.89c4.02-10.34,53.31-7.51,53.31-7.51s-77.69-16.97-72.41-28.09c5.28-11.12,73.12,2,73.12,2
						s-84.49-21.3-85.83-34.5c-1.35-13.2,89.92,12.35,89.92,12.35s-74.58-35.1-70.05-46.4c4.53-11.3,79.72,24.43,96.8,28.4
						c11.08,2.58,19.48-4.06,11.97-13.32c-7.51-9.27-5.64-32.87,2.96-35.16c8.59-2.3,15.81,36.45,28.97,42.2
						c13.16,5.75,26.79,16.09,28.84,23.75c10.42,16.12,45.57,25.54,45.57,25.54c-0.17,5.33-3.09,36.34-13.17,56.55l-39.68-20.87
						c0,0-19.63,10.47-42.6,9.95C1017.05,1983.26,928.29,1979.24,932.31,1968.89z"/>
					<g class="st29">
						<path class="st6" d="M1033.48,1847.69c2.71,0.78,4.44,5.57,5.09,7.53c0,0-2.76,3.18-4.19,1.14
							C1032.95,1854.31,1030.78,1846.91,1033.48,1847.69z"/>
						<path class="st6" d="M921.54,1867.1c1.75-2.33,10.62,0.12,11.19,0.99c0,0-3.28,6.72-4.36,7.61
							C927.28,1876.59,919.79,1869.43,921.54,1867.1z"/>
						<path class="st6" d="M903.15,1901.15c1.05-2.72,10.26-2.74,11.04-2.06c0,0-1.35,7.36-2.15,8.51
							C911.24,1908.75,902.1,1903.87,903.15,1901.15z"/>
						<path class="st6" d="M916.38,1934.56c0.93-2.76,10.12-3.2,10.93-2.55c0,0-1.02,7.41-1.76,8.59
							C924.81,1941.78,915.46,1937.31,916.38,1934.56z"/>
						<path class="st6" d="M934.57,1969.17c0.56-2.36,8.15-3.43,8.88-2.95c0,0-0.27,6.22-0.8,7.26
							C942.11,1974.52,934.01,1971.53,934.57,1969.17z"/>
					</g>
				</g>
				<path class="st8" d="M1099.71,1911.6l366.06-45.99c0,0,203.43-356.62,362.58-386.35c161.19-30.12-99.14,459.52-181.25,553.24
					c-82.11,93.72-567.91-32.93-567.91-32.93L1099.71,1911.6z"/>
				<path class="st18" d="M1126.49,1932.52c-15.15-13.89,183.29-44.41,203.73-8.46C1350.67,1960.01,1151.87,1955.78,1126.49,1932.52
					z"/>
				<path class="st25" d="M1625.96,1947.32c0,0,345.78-199.86,353.19-209.37c7.4-9.52,86.71-9.52,86.71-9.52l51.81-5.29
					c0,0,5.29,22.21-28.55,42.3c-33.84,20.09-106.8,22.21-132.18,74.02s-246.38,151.21-247.44,155.44
					c-1.06,4.23-106.8,105.74-149.1,93.06l5.29-40.18L1625.96,1947.32z"/>
				<path class="st25" d="M1700.98,1704.42c-23.24,1.6-46.92,2.92-70.21,2.01c-17.97-0.71-35.53-4.2-51.36-12.28
					c-66.57,88.95-113.64,171.46-113.64,171.46l-81.14,10.19c7.14,8.29,13.2,17.55,18.26,27.21c15.8,30.19,26.43,67.44,12.32,100.16
					c-9.68,22.44-27.73,39.98-48.45,52.88c121.16,16.07,242.85,19.23,280.35-23.57c43.74-49.92,138.03-212.16,192.26-348.36
					C1793.75,1693.94,1747.53,1701.22,1700.98,1704.42z"/>
				<g>
					<path class="st25" d="M1698.01,1808.95c-56.26-8.09-107.73-33.48-153.02-67.07c-47.79,68.66-79.22,123.73-79.22,123.73
						l-73.56,9.24c21.72,16.07,37.07,40.23,52.01,62.27c16.63,24.53,34.1,49.99,62.19,62.3c13.29,5.82,27.58,8.46,41.97,9.61
						c17.09,1.37,34.33,1.2,51.39-0.42c26.68-2.53,52.68-8.48,77.89-16.94c30.48-44.91,69.47-111.91,105.08-182.8
						C1754.64,1812.48,1726.27,1813.02,1698.01,1808.95z"/>
				</g>
				<path class="st30" d="M1675.66,1601.53c0.62-2.77,95.16-107.7,134.63-91.54c39.47,16.15,20.63,121.59-11.68,105.67
					c-32.31-15.92-21.02-68.61-41.02-50.79C1737.58,1582.69,1672.07,1617.69,1675.66,1601.53z"/>
			</g>
			<g>
				<g>
					<path class="st13" d="M2147.22,1715.07c-5.48-9.65-53.84,0.3-53.84,0.3s74.41-28.05,67.57-38.29
						c-6.83-10.24-72.06,12.57-72.06,12.57s80.51-33.31,79.93-46.57c-0.58-13.26-87.18,25.26-87.18,25.26s68.71-45.54,62.58-56.06
						c-6.12-10.52-75.34,35.72-91.66,42.13c-10.59,4.16-19.86-1.19-13.77-11.45c6.09-10.26,0.81-33.34-8.02-34.36
						c-8.83-1.03-10.37,38.35-22.55,45.95c-12.19,7.6-24.18,19.8-25.1,27.68c-7.98,17.46-112.01,52.52-112.01,52.52
						c0.94,5.25,8.33,35.51,21.23,54.04l106.85-47.04c0,0,20.94,7.51,43.59,3.67C2065.45,1741.57,2152.7,1724.72,2147.22,1715.07z"
						/>
					<g class="st29">
						<path class="st6" d="M2029.54,1609.81c-2.57,1.17-3.59,6.15-3.95,8.19c0,0,3.19,2.75,4.31,0.52
							C2031.03,1616.28,2032.11,1608.64,2029.54,1609.81z"/>
						<path class="st6" d="M2143.12,1612.79c-2.06-2.05-10.49,1.66-10.92,2.61c0,0,4.22,6.18,5.42,6.9
							C2138.81,1623.02,2145.18,1614.84,2143.12,1612.79z"/>
						<path class="st6" d="M2166.25,1643.82c-1.44-2.53-10.55-1.23-11.22-0.43c0,0,2.4,7.08,3.36,8.1
							C2159.35,1652.51,2167.68,1646.35,2166.25,1643.82z"/>
						<path class="st6" d="M2158,1678.79c-1.32-2.6-10.48-1.7-11.19-0.94c0,0,2.08,7.19,2.99,8.25
							C2150.71,1687.15,2159.32,1681.38,2158,1678.79z"/>
						<path class="st6" d="M2145.02,1715.67c-0.9-2.26-8.56-2.21-9.21-1.64c0,0,1.17,6.12,1.85,7.07
							C2138.33,1722.06,2145.92,1717.93,2145.02,1715.67z"/>
					</g>
				</g>
				<path class="st4" d="M1239.23,1349.5l357.33,391.47l377.93-59.01l19.03,70.37c0,0-284.3,231.68-431.2,229.88
					C1415.42,1980.39,1172.8,1602.12,1239.23,1349.5z"/>
				<path class="st20" d="M1264.77,1362.82c0,0-61.84,50.86-38,112.45C1226.77,1475.27,1175.87,1372.38,1264.77,1362.82z"/>
				<path class="st16" d="M1832.7,1837.19c-21.79-2.41-42.12-11.06-63.69-14.33c-11.17-1.69-22.41-1.44-33.04,2.73
					c-11.32,4.44-20.56,12.67-30.1,19.98c-32.78,25.13-71.11,48.58-113.15,30.49c-35.2-15.15-36.84-52.85-52.69-82.4
					c-8.44,13.75-16.41,29.72-31.21,35.89c-20.85,8.69-45.57-7.37-59.96-21.37c-29.97-29.14-35.69-73.2-46.25-111.61
					c-2.38-8.65-3.86-19.21-9.04-26.75c-3.71-5.41-9.94-8.03-15.86-10.18c-91.24-33.11-117.75-105.43-133.48-121.12
					c-2.61-2.61-5.25-5.18-7.89-7.76c39.49,220.71,211.67,450.02,325.97,451.43c87.51,1.08,223.77-80.7,319.65-147.01
					C1865.93,1837.95,1849.58,1839.06,1832.7,1837.19z"/>
				<path class="st20" d="M1688.33,1930.62c-23.41,4.57-48.41,8.07-72.07,3.32c-10.83-2.18-20.53-6.05-29.32-12.84
					c-8.15-6.29-15.13-14.16-24.05-19.44c-12.45-7.36-27.56-5.73-41.43-5.86c-10.08-0.09-20.17-0.61-30.15-2.11
					c-19.03-2.86-37.64-9.26-52.93-21.22c-18.16-14.21-30.63-33.89-37.03-55.89c-3.49-11.98-5.01-24.29-7.6-36.46
					c-2.3-10.8-4.62-19.76-16.4-22.85c-12.32-3.23-22.84-6.63-33.94-13.18c-10.76-6.35-20.37-14.04-30.02-21.92
					c-6.92-5.65-13.73-11.34-20.49-17.1c70.94,152.69,185.67,276.1,269.41,277.13c52.23,0.64,121.81-28.3,189.83-65.78
					C1730.95,1921.12,1709.77,1926.44,1688.33,1930.62z"/>
				<path class="st20" d="M1638.59,1734.5c0,0-51.3,36.49-55,79.2c0,0-4.02-50.88,12.97-72.74L1638.59,1734.5z"/>
			</g>
		</g>
	</g>
	<g>
		<g>
			<path class="st6" d="M1248.54,608.17c0.88,0,1.64-0.3,2.29-0.92c0.64-0.61,0.98-1.36,1.02-2.24v-12.99h-16.05v13.09
				c0,4.08-1.04,7.32-3.11,9.73c-1.63,1.9-3.98,2.85-7.03,2.85c-0.98,0-2.05-0.12-3.21-0.35l-0.1-0.51
				c2.51-1.05,4.12-2.62,4.84-4.69c0.64-1.76,0.97-4.11,0.97-7.03v-28.43c-0.03-0.88-0.36-1.63-1-2.24
				c-0.63-0.61-1.38-0.92-2.26-0.92h-0.67v-0.51h15.49v0.51h-0.66c-1.22,0-2.14,0.51-2.75,1.53c-0.31,0.47-0.48,1.02-0.51,1.63
				v13.14h16.05v-12.22c0-3.98,1.24-7.13,3.72-9.48c1.97-1.94,4.45-2.91,7.43-2.91c0.68,0,1.39,0.05,2.14,0.15l0.1,0.51
				c-2.48,0.88-4.09,2.44-4.84,4.69c-0.61,1.83-0.93,4.17-0.97,7.03v27.35c0.03,1.22,0.58,2.14,1.63,2.75
				c0.51,0.31,1.07,0.46,1.68,0.46h0.61v0.51h-15.44v-0.51H1248.54z"/>
			<path class="st6" d="M1305.9,608.17h0.46v0.51h-16.25v-0.51h0.46c0.75,0,1.3-0.23,1.66-0.68c0.36-0.46,0.53-0.89,0.53-1.3
				c0-0.41-0.09-0.81-0.26-1.22l-2.5-6.26h-11.92l-2.64,6.26c-0.17,0.44-0.26,0.86-0.26,1.25c0,0.39,0.18,0.81,0.53,1.27
				c0.36,0.46,0.93,0.68,1.71,0.68h0.41v0.51h-10.9v-0.51h0.46c0.78,0,1.56-0.23,2.34-0.71c0.78-0.48,1.42-1.19,1.93-2.14
				l11.77-26.64c1.59-3.37,2.45-5.59,2.55-6.68h0.46l15.13,33.22c0.51,0.98,1.15,1.72,1.94,2.22
				C1304.29,607.92,1305.09,608.17,1305.9,608.17z M1278.95,596.55h10.19l-4.94-12.53L1278.95,596.55z"/>
			<path class="st6" d="M1338.35,587.64c-1.15,2.65-3.29,4.48-6.42,5.5c-0.92,0.31-1.76,0.46-2.55,0.46c-2.41,0-4.57-0.63-6.47-1.89
				v-0.51c2.55,0.07,4.6-0.76,6.17-2.5c1.39-1.5,2.09-3.45,2.09-5.86c0-3.7-1.29-6.1-3.87-7.18c-0.81-0.34-1.71-0.51-2.7-0.51h-3.42
				v29.8c0,0.89,0.32,1.64,0.97,2.27c0.64,0.63,1.41,0.94,2.29,0.94h0.66v0.51h-15.49v-0.51h0.67c0.88,0,1.64-0.31,2.26-0.94
				c0.63-0.63,0.96-1.38,1-2.27v-28.48c-0.14-1.15-0.71-2-1.73-2.54c-0.47-0.27-0.98-0.41-1.52-0.41h-0.67v-0.51h17.02
				c6.14,0,10.08,1.96,11.82,5.86c0.54,1.29,0.81,2.73,0.81,4.31C1339.27,584.76,1338.96,586.25,1338.35,587.64z"/>
			<path class="st6" d="M1374.17,587.64c-1.15,2.65-3.29,4.48-6.42,5.5c-0.92,0.31-1.77,0.46-2.55,0.46c-2.41,0-4.57-0.63-6.47-1.89
				v-0.51c2.55,0.07,4.6-0.76,6.17-2.5c1.39-1.5,2.09-3.45,2.09-5.86c0-3.7-1.29-6.1-3.87-7.18c-0.82-0.34-1.72-0.51-2.7-0.51H1357
				v29.8c0,0.89,0.32,1.64,0.97,2.27c0.64,0.63,1.41,0.94,2.29,0.94h0.67v0.51h-15.49v-0.51h0.66c0.88,0,1.64-0.31,2.27-0.94
				c0.63-0.63,0.96-1.38,0.99-2.27v-28.48c-0.13-1.15-0.71-2-1.73-2.54c-0.48-0.27-0.98-0.41-1.53-0.41h-0.66v-0.51h17.01
				c6.15,0,10.09,1.96,11.82,5.86c0.55,1.29,0.81,2.73,0.81,4.31C1375.08,584.76,1374.78,586.25,1374.17,587.64z"/>
			<path class="st6" d="M1416.5,573.53h-0.72c-1.02,0-1.99,0.29-2.9,0.86c-0.92,0.58-1.65,1.27-2.19,2.09l-10.04,16v12.48
				c0,0.89,0.32,1.64,0.97,2.27c0.65,0.63,1.41,0.94,2.3,0.94h0.61l0.05,0.51h-15.49v-0.51h0.67c0.88,0,1.64-0.3,2.26-0.92
				c0.63-0.61,0.96-1.36,1-2.24v-12.58l-9.73-15.99c-0.51-0.82-1.23-1.51-2.17-2.06c-0.93-0.56-1.89-0.84-2.88-0.84h-0.71v-0.51
				h16.86v0.51h-0.67c-0.75,0-1.33,0.34-1.73,1.02c-0.2,0.38-0.31,0.74-0.31,1.1c0,0.35,0.09,0.71,0.26,1.04l7.29,13.25l7.54-13.25
				c0.2-0.34,0.31-0.69,0.31-1.04c0-0.36-0.12-0.71-0.36-1.05c-0.41-0.71-0.98-1.07-1.73-1.07h-0.61v-0.51h12.13V573.53z"/>
			<path class="st6" d="M1453.23,608.17h0.66v0.51h-15.49v-0.51h0.67c0.88,0,1.64-0.31,2.26-0.94c0.63-0.63,0.96-1.38,1-2.27v-29.85
				l-4.84,0.2c-3.19,0.14-4.79,1.33-4.79,3.57c0,0.92,0.31,1.7,0.94,2.32c0.63,0.63,1.5,0.94,2.62,0.94c0.1,0,0.2,0,0.31,0v0.3
				c-0.68,0.24-1.26,0.36-1.73,0.36c-1.52,0-2.7-0.54-3.52-1.63c-0.57-0.75-0.86-1.59-0.86-2.54c0-1.5,0.59-2.73,1.76-3.7
				c1.17-0.97,2.98-1.54,5.43-1.71c0.44-0.03,1.87-0.1,4.28-0.2c5.51-0.2,9.49-0.54,11.97-1.02l0.1,0.51
				c-1.46,0.24-2.49,0.73-3.08,1.48c-0.59,0.75-0.91,1.85-0.94,3.31v27.66c0.03,0.89,0.37,1.64,1,2.27
				C1451.6,607.86,1452.35,608.17,1453.23,608.17z"/>
			<path class="st6" d="M1460.98,603.94c0-2.45,0.53-4.53,1.58-6.27h0.45c-0.03,0.27-0.05,0.55-0.05,0.82
				c0,2.34,0.84,4.39,2.53,6.14c1.68,1.75,3.98,2.62,6.9,2.62c2.28,0,4.05-0.54,5.32-1.63c1.27-1.09,1.91-2.46,1.91-4.13
				c0-2-1.36-3.75-4.07-5.24l-8.87-5.86c-1.76-1.02-3.03-2.25-3.79-3.7c-0.76-1.44-1.15-2.91-1.15-4.4c0-3.2,1.01-5.66,3.03-7.39
				c2.03-1.73,4.61-2.6,7.77-2.6c1.87,0,4.18,0.17,6.93,0.51h3.21l-0.67,7.49h-0.51c0-1.76-0.65-3.19-1.96-4.25
				c-1.31-1.07-3.05-1.6-5.22-1.6c-2.65,0-4.57,0.82-5.76,2.45c-0.61,0.78-0.92,1.67-0.92,2.65c0,1.63,1.19,3.14,3.57,4.53
				l9.73,6.32c3.05,1.76,4.58,4.36,4.58,7.79c0,3.63-1.23,6.41-3.69,8.33c-2.46,1.92-5.73,2.88-9.81,2.88
				c-2.31,0-4.44-0.28-6.39-0.84c-1.96-0.56-3.39-1.32-4.31-2.27C1461.1,605.64,1460.98,604.86,1460.98,603.94z"/>
			<path class="st6" d="M1492.91,608.17c0.89,0,1.64-0.31,2.27-0.94c0.63-0.63,0.96-1.38,1-2.27v-28.22c-0.03-0.88-0.37-1.64-1-2.26
				c-0.63-0.63-1.38-0.94-2.27-0.94h-0.66v-0.51h15.49l-0.05,0.51h-0.61c-0.88,0-1.64,0.31-2.29,0.94
				c-0.64,0.63-0.97,1.38-0.97,2.26v29.75h6.67c2.48,0,4.56-0.72,6.25-2.14c1.68-1.43,2.93-3.45,3.74-6.06h0.51l-2.34,10.39h-26.39
				v-0.51H1492.91z"/>
			<path class="st6" d="M1561.64,608.17h0.46v0.51h-16.25v-0.51h0.46c0.75,0,1.3-0.23,1.66-0.68c0.36-0.46,0.53-0.89,0.53-1.3
				c0-0.41-0.09-0.81-0.26-1.22l-2.5-6.26h-11.92l-2.64,6.26c-0.17,0.44-0.26,0.86-0.26,1.25c0,0.39,0.18,0.81,0.53,1.27
				c0.36,0.46,0.93,0.68,1.71,0.68h0.41v0.51h-10.9v-0.51h0.46c0.78,0,1.56-0.23,2.34-0.71c0.78-0.48,1.42-1.19,1.93-2.14
				l11.77-26.64c1.59-3.37,2.45-5.59,2.55-6.68h0.45l15.13,33.22c0.51,0.98,1.15,1.72,1.94,2.22
				C1560.03,607.92,1560.82,608.17,1561.64,608.17z M1534.69,596.55h10.19l-4.94-12.53L1534.69,596.55z"/>
			<path class="st6" d="M1611.31,608.17h0.81v0.51h-15.28v-0.46h0.77c0.57,0,1.07-0.23,1.48-0.69c0.4-0.46,0.57-0.96,0.51-1.5
				l-1.99-18.49l-9.58,16.51c-1.26,2.1-1.91,3.99-1.93,5.65h-0.51l-13.09-22.01l-1.99,18.34c-0.07,0.55,0.1,1.05,0.51,1.5
				c0.41,0.46,0.9,0.69,1.48,0.69h0.77v0.46h-10.65v-0.51h0.81c0.95,0,1.77-0.28,2.47-0.86c0.7-0.57,1.11-1.36,1.25-2.34l4.23-32.65
				h0.46l15.79,25.98l15.18-25.98h0.46l4.33,32.65c0.17,0.98,0.6,1.77,1.3,2.34C1609.59,607.89,1610.39,608.17,1611.31,608.17z"/>
			<path class="st6" d="M1616.96,608.17c0.89,0,1.64-0.31,2.27-0.94c0.63-0.63,0.96-1.38,1-2.27v-28.28c-0.03-0.88-0.37-1.63-1-2.24
				c-0.63-0.61-1.38-0.92-2.27-0.92h-0.66v-0.51h15.49l-0.05,0.51h-0.61c-0.88,0-1.64,0.31-2.29,0.92
				c-0.64,0.61-0.97,1.36-0.97,2.24v28.28c0,0.89,0.32,1.64,0.97,2.27c0.65,0.63,1.41,0.94,2.29,0.94h0.61l0.05,0.51h-15.49v-0.51
				H1616.96z"/>
			<path class="st6" d="M1658.59,609.37c-6.56-0.02-11.7-1.67-15.44-4.97c-3.74-3.29-5.6-7.82-5.6-13.55
				c0-5.74,1.85-10.27,5.55-13.58s8.78-4.97,15.23-4.97c4.93,0,9.15,0.92,12.68,2.75l0.1,8.76h-0.41
				c-1.73-6.25-5.69-9.37-11.87-9.37c-4.01,0-7.18,1.45-9.5,4.36c-2.33,2.91-3.49,6.87-3.49,11.89c0,5.03,1.11,9.02,3.33,11.97
				c2.22,2.96,5.24,4.48,9.04,4.58c3.94,0,6.95-0.98,9.02-2.95c2.11-2.04,3.57-5.53,4.39-10.49h0.4l0.51,8.76
				C1669.79,607.12,1665.14,609.39,1658.59,609.37z"/>
			<path class="st6" d="M1703.37,572.97c0.57,0,1.63,0,3.16,0s4.36,0.02,8.51,0.05c6.01,0.07,10.77,1.7,14.27,4.87
				c3.5,3.17,5.24,7.5,5.24,12.99c0,5.48-1.75,9.82-5.24,13.01c-3.5,3.19-8.25,4.79-14.27,4.79h-18.49v-0.51h0.66
				c0.85,0,1.59-0.3,2.22-0.89c0.63-0.6,0.97-1.32,1.04-2.17v-29.81c-3.81,0.27-6.62,1.16-8.46,2.65c-0.92,0.72-1.64,1.44-2.16,2.19
				c-0.53,0.75-1.05,1.65-1.55,2.7l-0.51-0.2c0.81-3.4,2.52-5.85,5.12-7.36S1698.98,573,1703.37,572.97z M1723.06,602.31
				c2.13-2.82,3.19-6.64,3.19-11.46c0-4.82-1.06-8.62-3.19-11.41c-2.12-2.79-4.97-4.17-8.53-4.17c-0.03,0-0.07,0-0.1,0h-6.31v31.28
				h6.31C1718.06,606.54,1720.93,605.13,1723.06,602.31z"/>
			<path class="st6" d="M1775.25,608.17h0.46v0.51h-16.25v-0.51h0.46c0.75,0,1.3-0.23,1.66-0.68c0.36-0.46,0.53-0.89,0.53-1.3
				c0-0.41-0.09-0.81-0.25-1.22l-2.5-6.26h-11.92l-2.65,6.26c-0.17,0.44-0.26,0.86-0.26,1.25c0,0.39,0.18,0.81,0.53,1.27
				c0.36,0.46,0.93,0.68,1.71,0.68h0.41v0.51h-10.9v-0.51h0.46c0.78,0,1.56-0.23,2.34-0.71c0.78-0.48,1.43-1.19,1.93-2.14
				l11.77-26.64c1.6-3.37,2.45-5.59,2.55-6.68h0.46l15.13,33.22c0.51,0.98,1.15,1.72,1.93,2.22
				C1773.63,607.92,1774.44,608.17,1775.25,608.17z M1748.3,596.55h10.19l-4.94-12.53L1748.3,596.55z"/>
			<path class="st6" d="M1808.72,573.53h-0.72c-1.02,0-1.99,0.29-2.9,0.86c-0.92,0.58-1.65,1.27-2.19,2.09l-10.04,16v12.48
				c0,0.89,0.32,1.64,0.97,2.27c0.65,0.63,1.41,0.94,2.3,0.94h0.61l0.05,0.51h-15.49v-0.51h0.67c0.88,0,1.64-0.3,2.26-0.92
				c0.63-0.61,0.96-1.36,1-2.24v-12.58l-9.73-15.99c-0.51-0.82-1.23-1.51-2.17-2.06c-0.93-0.56-1.89-0.84-2.88-0.84h-0.71v-0.51
				h16.86v0.51h-0.67c-0.75,0-1.33,0.34-1.73,1.02c-0.2,0.38-0.31,0.74-0.31,1.1c0,0.35,0.09,0.71,0.26,1.04l7.29,13.25l7.54-13.25
				c0.2-0.34,0.31-0.69,0.31-1.04c0-0.36-0.12-0.71-0.36-1.05c-0.41-0.71-0.98-1.07-1.73-1.07h-0.61v-0.51h12.13V573.53z"/>
		</g>
		<g>
			<path class="st6" d="M1082.46,707.69c0-6.46,1.79-11.96,5.35-16.5c3.57-4.53,8.44-8.24,14.63-11.15
				c6.19-2.9,13.4-5.01,21.63-6.34c8.24-1.33,17.05-1.99,26.44-1.99c4.48,0,8.84,0.04,13.09,0.13c4.25,0.08,8.13,0.2,11.64,0.37
				c3.51,0.17,6.54,0.36,9.08,0.58c2.54,0.22,4.39,0.47,5.55,0.75c1.11,0.27,1.99,0.58,2.66,0.91c0.66,0.33,1.16,0.72,1.49,1.16
				c0.33,0.44,0.55,0.95,0.67,1.53c0.11,0.58,0.17,1.26,0.17,2.03c0,0.67-0.09,1.4-0.25,2.2c-0.16,0.8-0.42,1.55-0.75,2.24
				c-0.33,0.69-0.75,1.29-1.25,1.78c-0.49,0.5-1.1,0.75-1.82,0.75c-0.44,0-0.93-0.19-1.45-0.58c-0.53-0.39-1.27-0.89-2.24-1.5
				c-0.97-0.61-2.26-1.24-3.9-1.91c-1.63-0.66-3.81-1.3-6.55-1.91c-2.74-0.61-6.13-1.1-10.19-1.49c-4.06-0.39-8.96-0.58-14.71-0.58
				v53.13h34.4v7.3h-34.4v32.4c0,2.6,0.39,4.82,1.16,6.67c0.77,1.85,1.88,3.38,3.32,4.6c1.44,1.22,3.16,2.1,5.18,2.65
				c2.01,0.55,4.27,0.83,6.76,0.83c2.82,0,5.63-0.29,8.45-0.87c2.82-0.58,5.48-1.31,8-2.2c2.51-0.88,4.81-1.88,6.88-2.99
				c2.07-1.1,3.74-2.18,5.01-3.23l3.23,3.56c-1.38,1.11-3.23,2.61-5.55,4.52c-2.32,1.91-5.15,3.77-8.49,5.59
				c-3.34,1.83-7.24,3.41-11.69,4.77s-9.49,2.03-15.12,2.03c-1.88,0-4.02-0.1-6.43-0.29c-2.4-0.19-4.87-0.58-7.42-1.16
				c-2.54-0.58-5.05-1.43-7.5-2.57c-2.46-1.13-4.64-2.63-6.55-4.52c-1.91-1.88-3.45-4.19-4.64-6.92c-1.19-2.73-1.78-6.01-1.78-9.82
				v-33.07h-12.93v-7.3h12.93v-52.14c-1.77,0.17-3.8,0.49-6.09,0.96c-2.29,0.47-4.64,1.13-7.05,1.99c-2.4,0.86-4.77,1.87-7.09,3.03
				c-2.32,1.16-4.39,2.51-6.22,4.06c-1.82,1.55-3.3,3.27-4.43,5.18c-1.13,1.91-1.7,3.97-1.7,6.18c0,1.77,0.23,3.18,0.71,4.23
				c0.47,1.05,1.01,1.84,1.62,2.37c0.61,0.52,1.23,0.85,1.87,0.99c0.63,0.14,1.09,0.21,1.37,0.21c1.38,0,2.51-0.23,3.4-0.71
				c0.88-0.47,1.68-0.97,2.4-1.49c0.72-0.53,1.4-1.02,2.03-1.5c0.64-0.47,1.37-0.71,2.2-0.71c0.66,0,1.37,0.15,2.11,0.46
				c0.75,0.3,1.44,0.78,2.07,1.45c0.64,0.66,1.18,1.53,1.62,2.61c0.44,1.08,0.66,2.39,0.66,3.94c0,2.21-0.43,4.13-1.29,5.76
				c-0.85,1.63-1.96,2.97-3.32,4.02c-1.35,1.05-2.9,1.84-4.64,2.37c-1.74,0.52-3.46,0.78-5.18,0.78c-2.66,0-5.05-0.46-7.17-1.37
				c-2.13-0.92-3.94-2.17-5.43-3.77c-1.5-1.6-2.63-3.47-3.4-5.6S1082.46,710.18,1082.46,707.69z"/>
			<path class="st6" d="M1240.79,788.18c0,0.72-0.13,1.59-0.38,2.61c-0.25,1.02-0.83,1.99-1.74,2.9c-0.91,0.91-2.22,1.68-3.94,2.32
				c-1.71,0.63-4.03,0.95-6.96,0.95s-5.22-0.35-6.88-1.04c-1.66-0.69-2.9-1.51-3.73-2.45c-0.83-0.94-1.34-1.91-1.54-2.9
				c-0.19-1-0.29-1.79-0.29-2.4v-63.99c0-1.6-0.37-3-1.12-4.19c-0.75-1.19-2-1.78-3.77-1.78c-0.94,0-1.74,0.16-2.4,0.49
				c-0.67,0.34-1.38,0.8-2.16,1.41l-1.74-2.07c1.27-1.05,2.69-2.09,4.27-3.11c1.58-1.02,3.28-1.92,5.1-2.69
				c1.82-0.77,3.78-1.41,5.88-1.91c2.1-0.5,4.31-0.75,6.63-0.75c3.59,0,6.38,0.49,8.37,1.45c1.99,0.97,3.45,2.16,4.39,3.57
				c0.94,1.41,1.51,2.91,1.7,4.52s0.29,3.01,0.29,4.23V788.18z M1212.77,690.7c0-1.55,0.35-3.03,1.04-4.44
				c0.69-1.4,1.66-2.63,2.9-3.69c1.24-1.05,2.68-1.88,4.31-2.49c1.63-0.61,3.41-0.92,5.35-0.92c1.88,0,3.63,0.31,5.26,0.92
				c1.63,0.61,3.05,1.44,4.27,2.49c1.21,1.05,2.17,2.28,2.86,3.69c0.69,1.41,1.04,2.89,1.04,4.44c0,1.6-0.35,3.09-1.04,4.48
				c-0.69,1.38-1.65,2.58-2.86,3.61c-1.22,1.02-2.64,1.84-4.27,2.45c-1.63,0.61-3.38,0.91-5.26,0.91c-1.93,0-3.71-0.3-5.35-0.91
				c-1.63-0.61-3.07-1.42-4.31-2.45c-1.25-1.02-2.21-2.22-2.9-3.61C1213.12,693.8,1212.77,692.31,1212.77,690.7z"/>
			<path class="st6" d="M1310.92,714.16c-1.05-5.52-2.51-10.68-4.39-15.46c-1.88-4.78-4.13-8.91-6.76-12.39
				c-2.62-3.48-5.61-6.22-8.95-8.21c-3.34-1.99-6.95-2.99-10.82-2.99c-2.21,0-4.21,0.28-6.01,0.83c-1.79,0.55-3.36,1.2-4.68,1.95
				c-1.33,0.75-2.42,1.46-3.27,2.15c-0.86,0.69-1.48,1.21-1.87,1.54l-2.16-2.9c1.33-1.71,2.94-3.32,4.85-4.81
				c1.91-1.49,3.99-2.76,6.26-3.81c2.27-1.05,4.66-1.88,7.17-2.49c2.51-0.6,5.02-0.91,7.5-0.91c8.17,0,15.36,1.78,21.55,5.35
				c6.19,3.57,11.36,8.61,15.5,15.12c4.15,6.52,7.27,14.4,9.37,23.62c2.1,9.23,3.15,19.48,3.15,30.76c0,9.11-0.93,17.13-2.78,24.03
				c-1.85,6.91-4.49,12.7-7.92,17.37c-3.43,4.67-7.58,8.18-12.47,10.53c-4.89,2.35-10.4,3.52-16.53,3.52
				c-4.25,0-8.58-0.76-12.97-2.28c-4.39-1.52-8.37-3.99-11.93-7.42c-3.57-3.42-6.48-7.91-8.74-13.47c-2.27-5.55-3.4-12.36-3.4-20.43
				c0-6.96,0.98-13.15,2.94-18.57s4.6-9.99,7.92-13.71c3.32-3.73,7.16-6.58,11.52-8.54c4.36-1.96,8.98-2.95,13.84-2.95
				c1.88,0,3.57,0.15,5.06,0.46c1.49,0.3,2.79,0.68,3.9,1.11c1.1,0.44,2.07,0.93,2.9,1.45
				C1309.52,713.15,1310.26,713.66,1310.92,714.16z M1311.92,750.63c0-0.6,0-1.83,0-3.69c0-1.85-0.06-3.98-0.16-6.38
				c-0.11-2.41-0.31-4.96-0.58-7.67c-0.28-2.71-0.72-5.22-1.33-7.54c-1.33-1.71-2.8-3.25-4.44-4.6c-1.63-1.35-3.71-2.03-6.26-2.03
				c-4.31,0-7.47,2.82-9.49,8.46c-2.02,5.64-3.03,14.37-3.03,26.19c0,5.2,0.23,9.95,0.71,14.26c0.47,4.31,1.18,8.01,2.15,11.1
				c0.97,3.1,2.21,5.5,3.73,7.21c1.52,1.71,3.33,2.57,5.43,2.57C1307.5,788.51,1311.92,775.88,1311.92,750.63z"/>
			<path class="st6" d="M1467.77,760.66h-31.24c-2.32,7.29-4.82,13.62-7.5,18.98c-2.68,5.36-5.65,9.81-8.91,13.34
				c-3.26,3.53-6.84,6.16-10.73,7.87c-3.9,1.71-8.25,2.57-13.05,2.57c-2.65,0-5.21-0.24-7.67-0.71c-2.46-0.47-4.62-1.12-6.51-1.95
				c-1.88-0.82-3.38-1.81-4.52-2.94c-1.13-1.13-1.7-2.36-1.7-3.69c0-1,0.15-2,0.46-3.03c0.3-1.02,0.73-1.96,1.28-2.82
				c0.56-0.85,1.23-1.54,2.03-2.07c0.8-0.52,1.7-0.78,2.7-0.78c0.89,0,1.66,0.61,2.32,1.82c0.67,1.22,1.51,2.56,2.53,4.02
				c1.02,1.46,2.33,2.8,3.94,4.02c1.6,1.21,3.81,1.82,6.63,1.82c2.87,0,5.61-0.69,8.21-2.07c2.6-1.38,5.1-3.55,7.5-6.51
				c2.4-2.95,4.71-6.72,6.92-11.31c2.21-4.58,4.36-10.11,6.46-16.57h-19.56v-7.3h21.72c1.83-6.19,3.61-12.43,5.35-18.73
				c1.74-6.3,3.38-12.35,4.93-18.15s2.93-11.23,4.15-16.29c1.21-5.05,2.24-9.46,3.07-13.22c-1.11-3.09-2.61-5.16-4.52-6.22
				c-1.91-1.05-4.47-1.58-7.67-1.58c-2.99,0-6.07,0.46-9.24,1.37c-3.18,0.91-6.06,2.21-8.66,3.9c-2.6,1.68-4.74,3.76-6.42,6.22
				c-1.69,2.46-2.53,5.2-2.53,8.25c0,1.77,0.24,3.17,0.71,4.23c0.47,1.05,1.02,1.84,1.66,2.36c0.63,0.53,1.26,0.86,1.87,1
				c0.6,0.14,1.08,0.2,1.4,0.2c1.33,0,2.45-0.23,3.36-0.71c0.92-0.47,1.71-0.96,2.41-1.49c0.69-0.52,1.37-1.02,2.03-1.49
				s1.41-0.71,2.24-0.71c0.61,0,1.29,0.15,2.03,0.46c0.75,0.31,1.44,0.79,2.08,1.45c0.63,0.67,1.17,1.54,1.62,2.61
				c0.44,1.08,0.66,2.39,0.66,3.94c0,2.21-0.43,4.12-1.28,5.72c-0.86,1.6-1.96,2.94-3.32,4.02c-1.35,1.08-2.9,1.88-4.64,2.4
				c-1.74,0.53-3.47,0.79-5.18,0.79c-2.65,0-5.05-0.48-7.17-1.45s-3.94-2.28-5.43-3.94c-1.49-1.66-2.62-3.59-3.4-5.8
				c-0.78-2.21-1.16-4.53-1.16-6.96c0-3.65,0.6-7,1.82-10.07c1.22-3.07,2.9-5.86,5.06-8.37s4.7-4.72,7.63-6.63
				c2.92-1.91,6.09-3.5,9.49-4.81c3.4-1.3,6.95-2.28,10.65-2.94c3.7-0.67,7.43-1,11.19-1c5.3,0,9.79,0.43,13.47,1.29
				s6.75,2.13,9.24,3.81c2.49,1.69,4.49,3.81,6.01,6.38s2.78,5.54,3.77,8.91l17.82,61.25h17.99v7.3h-15.99l6.46,21.71
				c0.22,0.83,0.44,1.6,0.67,2.33c0.22,0.72,0.48,1.34,0.78,1.86c0.31,0.53,0.69,0.96,1.16,1.29c0.47,0.34,1.06,0.5,1.79,0.5
				c1.54,0,2.98-0.26,4.31-0.79c1.33-0.52,2.49-1.06,3.48-1.62l1.41,3.07c-1,0.72-2.25,1.54-3.77,2.45
				c-1.52,0.91-3.26,1.78-5.22,2.61c-1.96,0.83-4.13,1.52-6.51,2.07c-2.38,0.55-4.92,0.83-7.62,0.83c-3.76,0-6.79-0.47-9.08-1.41
				c-2.29-0.94-4.09-2.1-5.39-3.48c-1.3-1.38-2.24-2.84-2.82-4.39s-1.04-2.9-1.37-4.06L1467.77,760.66z M1451.69,704.63
				c-2.26,9.23-4.46,17.91-6.59,26.03s-4.24,15.69-6.34,22.71h27.02L1451.69,704.63z"/>
			<path class="st6" d="M1556.39,788.34c0,0.72-0.12,1.58-0.37,2.57c-0.25,1-0.83,1.94-1.74,2.82c-0.91,0.88-2.24,1.64-3.98,2.28
				c-1.74,0.63-4.07,0.95-7,0.95s-5.22-0.35-6.88-1.04c-1.66-0.69-2.89-1.51-3.69-2.45s-1.3-1.91-1.49-2.9
				c-0.19-1-0.29-1.79-0.29-2.4V681.25c0-1.6-0.38-3-1.12-4.19s-2-1.78-3.77-1.78c-0.94,0-1.75,0.15-2.45,0.46
				c-0.69,0.3-1.42,0.76-2.2,1.37l-1.66-1.99c1.27-1.05,2.68-2.08,4.23-3.11c1.55-1.02,3.24-1.92,5.1-2.7
				c1.85-0.77,3.83-1.4,5.93-1.91c2.1-0.49,4.31-0.75,6.63-0.75c3.59,0,6.38,0.48,8.37,1.45c1.99,0.97,3.45,2.16,4.4,3.57
				c0.94,1.4,1.5,2.9,1.7,4.48c0.19,1.57,0.29,2.97,0.29,4.18V788.34z"/>
			<path class="st6" d="M1579.62,742.5h42.43v20.06h-42.43V742.5z"/>
			<path class="st6" d="M1723.27,738.61h-32.74v46.16c0,4.25-1.11,7.35-3.36,9.28c-2.24,1.93-5.65,2.9-10.23,2.9
				c-4.64,0-8.07-0.97-10.28-2.9c-2.21-1.93-3.32-5.03-3.32-9.28v-46.16h-12.93v-7.3h12.93v-52.14c-1.77,0.17-3.8,0.49-6.09,0.96
				c-2.29,0.47-4.64,1.13-7.05,1.99c-2.4,0.86-4.77,1.87-7.09,3.03s-4.39,2.51-6.22,4.06c-1.82,1.55-3.3,3.27-4.43,5.18
				c-1.13,1.91-1.7,3.97-1.7,6.18c0,1.77,0.23,3.18,0.71,4.23c0.47,1.05,1.01,1.84,1.62,2.37c0.61,0.52,1.23,0.85,1.87,0.99
				c0.63,0.14,1.09,0.21,1.37,0.21c1.38,0,2.51-0.23,3.4-0.71c0.88-0.47,1.68-0.97,2.4-1.49c0.72-0.53,1.4-1.02,2.03-1.5
				c0.64-0.47,1.37-0.71,2.2-0.71c0.66,0,1.37,0.15,2.11,0.46c0.75,0.3,1.44,0.78,2.07,1.45c0.64,0.66,1.18,1.53,1.62,2.61
				c0.44,1.08,0.66,2.39,0.66,3.94c0,2.21-0.43,4.13-1.29,5.76c-0.85,1.63-1.96,2.97-3.32,4.02c-1.35,1.05-2.9,1.84-4.64,2.37
				c-1.74,0.52-3.46,0.78-5.18,0.78c-2.66,0-5.05-0.46-7.17-1.37c-2.13-0.92-3.94-2.17-5.43-3.77c-1.5-1.6-2.63-3.47-3.4-5.6
				s-1.16-4.44-1.16-6.92c0-6.46,1.79-11.96,5.35-16.5c3.57-4.53,8.44-8.24,14.63-11.15c6.19-2.9,13.4-5.01,21.63-6.34
				c8.24-1.33,17.05-1.99,26.44-1.99c3.81,0,7.79,0.04,11.93,0.13c4.15,0.08,8.05,0.2,11.73,0.37c3.67,0.17,6.92,0.36,9.74,0.58
				c2.82,0.22,4.81,0.47,5.97,0.75c1.11,0.27,1.99,0.58,2.66,0.91c0.66,0.33,1.16,0.72,1.49,1.16s0.55,0.95,0.67,1.53
				c0.11,0.58,0.16,1.26,0.16,2.03c0,0.67-0.09,1.4-0.25,2.2c-0.17,0.8-0.42,1.55-0.75,2.24c-0.33,0.69-0.75,1.29-1.25,1.78
				c-0.49,0.5-1.1,0.75-1.82,0.75c-0.44,0-0.93-0.19-1.45-0.58c-0.53-0.39-1.27-0.89-2.24-1.5c-0.97-0.61-2.26-1.24-3.9-1.91
				c-1.63-0.66-3.81-1.3-6.55-1.91c-2.74-0.61-6.13-1.1-10.19-1.49s-8.96-0.58-14.71-0.58v53.13h32.74V738.61z"/>
			<path class="st6" d="M1769.71,788.18c0,0.72-0.13,1.59-0.38,2.61c-0.25,1.02-0.83,1.99-1.74,2.9c-0.91,0.91-2.22,1.68-3.94,2.32
				c-1.71,0.63-4.03,0.95-6.96,0.95s-5.22-0.35-6.88-1.04c-1.66-0.69-2.9-1.51-3.73-2.45c-0.83-0.94-1.34-1.91-1.54-2.9
				c-0.19-1-0.29-1.79-0.29-2.4v-63.99c0-1.6-0.37-3-1.12-4.19c-0.75-1.19-2-1.78-3.77-1.78c-0.94,0-1.74,0.16-2.4,0.49
				c-0.67,0.34-1.38,0.8-2.16,1.41l-1.74-2.07c1.27-1.05,2.69-2.09,4.27-3.11c1.58-1.02,3.28-1.92,5.1-2.69
				c1.82-0.77,3.78-1.41,5.88-1.91c2.1-0.5,4.31-0.75,6.63-0.75c3.59,0,6.38,0.49,8.37,1.45c1.99,0.97,3.45,2.16,4.39,3.57
				c0.94,1.41,1.51,2.91,1.7,4.52s0.29,3.01,0.29,4.23V788.18z M1741.69,690.7c0-1.55,0.35-3.03,1.04-4.44
				c0.69-1.4,1.66-2.63,2.9-3.69c1.24-1.05,2.68-1.88,4.31-2.49c1.63-0.61,3.41-0.92,5.35-0.92c1.88,0,3.63,0.31,5.26,0.92
				c1.63,0.61,3.05,1.44,4.27,2.49c1.21,1.05,2.17,2.28,2.86,3.69c0.69,1.41,1.04,2.89,1.04,4.44c0,1.6-0.35,3.09-1.04,4.48
				c-0.69,1.38-1.65,2.58-2.86,3.61c-1.22,1.02-2.64,1.84-4.27,2.45c-1.63,0.61-3.38,0.91-5.26,0.91c-1.93,0-3.71-0.3-5.35-0.91
				c-1.63-0.61-3.07-1.42-4.31-2.45c-1.25-1.02-2.21-2.22-2.9-3.61C1742.04,693.8,1741.69,692.31,1741.69,690.7z"/>
			<path class="st6" d="M1821.69,716.73v61.25c0,2.93,0.55,4.96,1.66,6.09c1.11,1.13,2.63,1.7,4.56,1.7c1.49,0,2.82-0.42,3.98-1.25
				c1.16-0.82,2.16-1.76,2.99-2.82c1-1.16,1.85-2.51,2.57-4.06l2.57,1.16c-0.82,1.77-1.81,3.7-2.94,5.8s-2.64,4.05-4.52,5.84
				c-1.88,1.8-4.24,3.3-7.09,4.52c-2.84,1.22-6.42,1.83-10.73,1.83c-2.43,0-4.77-0.36-7-1.08c-2.24-0.72-4.23-1.85-5.97-3.4
				c-1.74-1.55-3.13-3.48-4.18-5.8c-1.05-2.32-1.58-5.11-1.58-8.37v-61.41h-9.28v-5.97c1.55,0,3.7-0.4,6.46-1.2
				c2.76-0.8,5.6-2.14,8.5-4.02c2.9-1.88,5.6-4.39,8.08-7.54c2.49-3.15,4.25-7.04,5.3-11.68h6.63v24.45h13.51
				c4.42,0,6.63-0.75,6.63-2.24c0-0.55-0.28-0.93-0.83-1.12c-0.55-0.19-1.17-0.44-1.87-0.75c-0.69-0.3-1.31-0.73-1.86-1.29
				c-0.56-0.55-0.83-1.46-0.83-2.74c0-1.55,0.48-2.76,1.45-3.65c0.97-0.88,2.22-1.33,3.77-1.33c1,0,1.87,0.2,2.61,0.62
				s1.37,0.97,1.87,1.66c0.49,0.69,0.87,1.48,1.11,2.36c0.25,0.89,0.38,1.77,0.38,2.65c0,3.59-1.04,6.46-3.11,8.58
				c-2.08,2.13-5.4,3.19-9.99,3.19H1821.69z"/>
			<path class="st6" d="M1882.71,727.09c2.1-3.2,4.33-6.1,6.71-8.7c1-1.1,2.07-2.18,3.23-3.23c1.16-1.05,2.37-1.99,3.61-2.82
				c1.25-0.82,2.53-1.49,3.86-1.99c1.33-0.5,2.65-0.75,3.98-0.75c2.82,0,5.03,0.85,6.63,2.53s2.41,4.05,2.41,7.09
				c0,1.88-0.15,3.69-0.46,5.43c-0.3,1.74-0.9,3.86-1.78,6.34h-2.32c-0.33-1.71-1.1-3.13-2.32-4.27c-1.22-1.13-2.98-1.7-5.31-1.7
				c-1.71,0-3.4,0.32-5.05,0.95c-1.66,0.64-3.28,1.43-4.85,2.37c-1.58,0.94-3.07,1.96-4.48,3.07c-1.4,1.1-2.69,2.16-3.85,3.15v53.79
				c0,0.72-0.11,1.58-0.34,2.57c-0.22,1-0.76,1.94-1.62,2.82c-0.85,0.88-2.13,1.64-3.81,2.28c-1.69,0.63-3.99,0.95-6.92,0.95
				s-5.23-0.35-6.92-1.04c-1.68-0.69-2.97-1.51-3.85-2.45c-0.89-0.94-1.44-1.91-1.66-2.9c-0.22-1-0.33-1.79-0.33-2.4v-63.99
				c0-1.6-0.37-3-1.12-4.19c-0.75-1.19-2-1.78-3.77-1.78c-0.94,0-1.74,0.16-2.4,0.49c-0.67,0.34-1.38,0.8-2.16,1.41l-1.74-2.07
				c1.27-1.05,2.69-2.09,4.27-3.11c1.58-1.02,3.28-1.92,5.1-2.69c1.82-0.77,3.78-1.41,5.88-1.91c2.1-0.5,4.31-0.75,6.63-0.75
				c2.37,0,4.4,0.32,6.09,0.96c1.68,0.64,3.07,1.46,4.15,2.49c1.08,1.02,1.92,2.17,2.53,3.44c0.61,1.27,1.06,2.55,1.37,3.85
				c0.31,1.3,0.48,2.54,0.54,3.73S1882.71,726.26,1882.71,727.09z"/>
		</g>
	</g>
	<g>
		<path class="st6" d="M1995.01,2675.5c-10.73,0-20.31-5.12-26.45-13.07h-937.11c-6.15,7.95-15.72,13.07-26.45,13.07h-5.61
			c-15.31,0-28.28-10.31-32.38-24.38c-30.64-3.19-58.01-20.57-74.59-47.83c-4.45-7.59-10.22-14.73-17.05-21.18
			c-0.36,0.01-0.73,0.02-1.1,0.02c-18.45,0-32.9-14.14-32.9-32.19c0-18.16,14.45-32.38,32.9-32.38c0.42,0,0.83,0.01,1.25,0.02
			c6.61-6.19,12.24-13.14,16.82-20.78c16.69-27.56,44.12-45.06,74.79-48.24c4.24-13.79,17.09-23.84,32.25-23.84h5.61
			c10.44,0,19.79,4.82,25.94,12.36h938.13c6.16-7.54,15.5-12.36,25.94-12.36h5.61c15.16,0,28.02,10.06,32.25,23.84
			c30.67,3.18,58.1,20.67,74.73,48.14c4.62,7.71,10.26,14.69,16.88,20.89c0.41-0.02,0.83-0.02,1.24-0.02
			c18.45,0,32.9,14.22,32.9,32.38c0,18.05-14.45,32.19-32.9,32.19c-0.37,0-0.73-0.01-1.1-0.02c-6.81,6.42-12.54,13.5-16.85,20.85
			c-16.75,27.56-44.14,44.96-74.78,48.15c-4.1,14.08-17.07,24.38-32.38,24.38H1995.01z"/>
		
			<linearGradient id="SVGID_00000064351757550747531640000007350854948773994396_" gradientUnits="userSpaceOnUse" x1="1755.0537" y1="2988.0264" x2="982.7587" y2="1661.4208">
			<stop  offset="0" style="stop-color:#3CC681"/>
			<stop  offset="1" style="stop-color:#80FFB3"/>
		</linearGradient>
		<path style="fill:url(#SVGID_00000064351757550747531640000007350854948773994396_);" d="M2125.73,2558.83
			c-2.45,0-4.73-1.05-6.31-2.81c-12.54,9.56-23.67,21.39-31.74,35.16c-13.59,22.36-37.44,37.17-64.97,37.17
			c-4.03,0-7.98-0.35-11.66-1.05v14.29c0,5.87-4.56,10.61-10.43,10.61h-5.61c-5.61,0-10.26-4.73-10.26-10.61v-2.45h-969.5v2.45
			c0,5.87-4.65,10.61-10.26,10.61h-5.61c-5.87,0-10.43-4.73-10.43-10.61v-14.29c-3.68,0.7-7.63,1.05-11.66,1.05
			c-27.53,0-51.38-14.82-64.97-37.17c-8.07-13.77-19.2-25.6-31.74-35.16c-1.58,1.75-3.86,2.81-6.31,2.81
			c-12.98,0-12.63-17.97,0-17.97c2.46,0,4.73,1.05,6.31,2.81c12.71-9.47,23.5-21.13,31.74-34.89
			c13.59-22.44,37.44-37.44,64.97-37.44c4.03,0,7.98,0.35,11.66,1.05v-13.94c0-5.79,4.56-10.43,10.43-10.43h5.61
			c5.61,0,10.26,4.65,10.26,10.43v1.93h969.5v-1.93c0-5.79,4.65-10.43,10.26-10.43h5.61c5.87,0,10.43,4.65,10.43,10.43v13.94
			c3.68-0.7,7.63-1.05,11.66-1.05c27.53,0,51.38,14.99,64.97,37.44c8.24,13.77,19.02,25.43,31.74,34.89
			c1.58-1.75,3.86-2.81,6.31-2.81C2138.36,2540.85,2138.71,2558.83,2125.73,2558.83z"/>
		<path class="st6" d="M923.32,2530.28c-3.07-26.11,40.97-57.02,59.55-40.54C1001.45,2506.21,924.16,2537.46,923.32,2530.28z"/>
		<g>
			<path class="st25" d="M2018.13,2614.33c-4.62-19.79,57.33-47.83,61.13-35.16C2083.06,2591.84,2022.56,2633.33,2018.13,2614.33z"
				/>
			<path class="st25" d="M2086.23,2559.85c12.66-7.84,2.85,24.39-2.53,14.57C2078.31,2564.6,2079.58,2563.96,2086.23,2559.85z"/>
			<path class="st25" d="M2125.73,2558.86c-2.49,0-4.76-1.07-6.33-2.84c-12.51,9.53-23.67,21.4-31.71,35.19
				c-13.58,22.32-37.47,37.11-64.98,37.11c-4.05,0-7.96-0.28-11.66-1v14.29c0,5.83-4.55,10.59-10.45,10.59h-5.62
				c-5.62,0-10.24-4.76-10.24-10.59v-2.49h-969.51v2.49c0,5.83-4.62,10.59-10.24,10.59h-5.62c-5.9,0-10.45-4.76-10.45-10.59v-14.29
				c-3.7,0.71-7.61,1-11.66,1c-27.51,0-51.4-14.79-64.98-37.11c-3.55-6.04-7.68-11.8-12.3-17.06
				c474.41,60.64,770.59-22.54,943.91-113.75h140.84v-1.99c0-5.76,4.62-10.38,10.24-10.38h5.62c5.9,0,10.45,4.62,10.45,10.38v14.01
				c3.7-0.71,7.61-1.07,11.66-1.07c27.51,0,51.4,15,64.98,37.4c8.25,13.79,18.98,25.45,31.71,34.91c1.56-1.71,3.84-2.77,6.33-2.77
				C2138.39,2540.87,2138.67,2558.86,2125.73,2558.86z"/>
		</g>
		<g>
			<path class="st6" d="M1155.13,2574.56v-38.56c0-1.63-0.76-2.88-2.29-3.75c-0.71-0.38-1.47-0.57-2.28-0.57h-1.63l-0.08-0.82h24.62
				v0.82h-1.71c-1.68,0-2.96,0.71-3.83,2.12c-0.44,0.71-0.65,1.44-0.65,2.21v38.56c0,1.69,0.76,2.97,2.28,3.83
				c0.65,0.38,1.39,0.57,2.2,0.57h1.71v0.81h-24.54v-0.81h1.71c1.2,0,2.25-0.44,3.14-1.31
				C1154.68,2576.78,1155.13,2575.76,1155.13,2574.56z"/>
			<path class="st6" d="M1208.71,2556.62c-2.18,3.48-3.26,7.04-3.26,10.68c0,3.96,1.44,7.58,4.32,10.84c1.58,1.85,3.58,3.29,6,4.32
				s5.07,1.55,7.95,1.55c2.88,0,5.46-0.54,7.75-1.63c4.56-2.23,6.85-5.87,6.85-10.93c0-1.91-0.64-3.91-1.92-6.03
				c-1.28-2.12-3.2-4.02-5.75-5.71l-13.86-9.29c-5.38-3.37-8.07-7.72-8.07-13.05c0-0.54,0.03-1.09,0.08-1.63
				c0.33-4.19,2-7.6,5.02-10.24c3.01-2.63,7.05-3.95,12.11-3.95c3.09,0,6.85,0.27,11.25,0.81h5.06l-1.06,11.99h-0.73
				c-0.06-2.83-1.14-5.1-3.26-6.81c-2.12-1.71-4.92-2.57-8.4-2.57c-4.24,0-7.31,1.28-9.21,3.83c-0.93,1.3-1.39,2.72-1.39,4.24
				c0,1.52,0.46,2.82,1.39,3.87c0.92,1.06,2.39,2.22,4.4,3.47l15.24,9.95c3.1,2.01,5.52,4.37,7.26,7.09c2.07,3.21,3.1,6.5,3.1,9.87
				c0,2.17-0.45,4.47-1.34,6.89c-0.9,2.42-2.37,4.66-4.41,6.73c-2.04,2.06-4.66,3.75-7.87,5.06c-3.21,1.3-6.76,1.96-10.64,1.96
				c-3.88,0-7.41-0.68-10.56-2.04c-5.82-2.45-9.52-6.71-11.09-12.8c-0.32-1.3-0.49-2.66-0.49-4.07c0-4.57,1.6-8.89,4.81-12.97
				L1208.71,2556.62z"/>
			<path class="st6" d="M1313.16,2523.51h-1.14c-1.63,0-3.18,0.46-4.65,1.39c-1.47,0.92-2.64,2.04-3.51,3.34l-16.06,25.6v19.98
				c0,1.42,0.52,2.63,1.55,3.63c1.03,1.01,2.25,1.51,3.67,1.51h0.98l0.08,0.81h-24.79v-0.81h1.06c1.42,0,2.62-0.49,3.63-1.47
				c1.01-0.98,1.54-2.18,1.59-3.59v-20.14l-15.57-25.61c-0.82-1.3-1.97-2.41-3.47-3.3c-1.5-0.9-3.03-1.35-4.61-1.35h-1.14v-0.81
				h26.99v0.81h-1.06c-1.2,0-2.12,0.55-2.78,1.63c-0.32,0.6-0.49,1.18-0.49,1.75s0.14,1.13,0.41,1.67l11.66,21.2l12.07-21.2
				c0.32-0.54,0.49-1.1,0.49-1.67s-0.19-1.13-0.57-1.67c-0.65-1.14-1.58-1.71-2.77-1.71h-0.98v-0.81h19.41V2523.51z"/>
			<path class="st6" d="M1364.05,2578.96h0.73v0.81h-26.01v-0.81h0.73c1.19,0,2.08-0.37,2.65-1.1c0.57-0.73,0.85-1.43,0.85-2.08
				c0-0.65-0.14-1.31-0.41-1.96l-3.99-10.03h-19.08l-4.24,10.03c-0.27,0.71-0.41,1.38-0.41,2s0.28,1.3,0.86,2.04
				c0.57,0.73,1.48,1.1,2.73,1.1h0.65v0.81h-17.45v-0.81h0.73c1.25,0,2.5-0.38,3.75-1.14s2.29-1.9,3.1-3.42l18.84-42.65
				c2.55-5.38,3.91-8.94,4.07-10.68h0.73l24.22,53.17c0.82,1.58,1.85,2.76,3.1,3.55
				C1361.46,2578.57,1362.74,2578.96,1364.05,2578.96z M1320.91,2560.37h16.31l-7.91-20.06L1320.91,2560.37z"/>
			<path class="st6" d="M1438.09,2523.51h-0.73c-1.36,0-2.74,0.41-4.12,1.22c-1.39,0.82-2.38,1.99-2.98,3.51l-13.7,43.95
				c-0.93,2.99-1.39,5.76-1.39,8.32c0,0.27,0,0.52,0,0.73h-0.81l-17.78-39.38l-12.89,30.33c-1.25,3.15-1.9,6.17-1.96,9.05h-0.81
				l-19.49-53c-0.71-1.58-1.71-2.76-3.02-3.55c-1.3-0.78-2.63-1.18-3.99-1.18h-0.65v-0.81h24.87v0.81h-0.73c-1.14,0-2,0.37-2.57,1.1
				c-0.57,0.73-0.85,1.43-0.85,2.08c0,0.65,0.11,1.28,0.32,1.88l10.03,28.38l14.76-35.56l0.73,0.09l16.23,35.79l8.15-28.7
				c0.17-0.6,0.24-1.22,0.24-1.88c0-0.65-0.26-1.34-0.77-2.08c-0.52-0.73-1.37-1.1-2.57-1.1h-0.73v-0.81h17.21V2523.51z"/>
			<path class="st6" d="M1490.52,2578.96h0.73v0.81h-26.01v-0.81h0.73c1.19,0,2.08-0.37,2.65-1.1c0.57-0.73,0.85-1.43,0.85-2.08
				c0-0.65-0.14-1.31-0.41-1.96l-3.99-10.03h-19.08l-4.24,10.03c-0.27,0.71-0.41,1.38-0.41,2s0.28,1.3,0.86,2.04
				c0.57,0.73,1.48,1.1,2.73,1.1h0.65v0.81h-17.45v-0.81h0.73c1.25,0,2.5-0.38,3.75-1.14c1.25-0.76,2.29-1.9,3.1-3.42l18.84-42.65
				c2.55-5.38,3.91-8.94,4.07-10.68h0.73l24.22,53.17c0.82,1.58,1.85,2.76,3.1,3.55
				C1487.94,2578.57,1489.21,2578.96,1490.52,2578.96z M1447.38,2560.37h16.31l-7.91-20.06L1447.38,2560.37z"/>
			<path class="st6" d="M1495.25,2578.96c1.42,0,2.62-0.51,3.63-1.51c1.01-1,1.54-2.21,1.59-3.63v-45.17
				c-0.06-1.41-0.59-2.62-1.59-3.63c-1.01-1-2.21-1.51-3.63-1.51h-1.06v-0.81h24.79l-0.08,0.81h-0.98c-1.42,0-2.64,0.51-3.67,1.51
				c-1.04,1.01-1.55,2.22-1.55,3.63v47.63h10.68c3.97,0,7.3-1.14,9.99-3.43c2.69-2.28,4.69-5.51,6-9.7h0.81l-3.75,16.64h-42.24
				v-0.81H1495.25z"/>
			<path class="st6" d="M1575.08,2574.56v-38.56c0-1.63-0.76-2.88-2.29-3.75c-0.71-0.38-1.47-0.57-2.28-0.57h-1.63l-0.08-0.82h24.62
				v0.82h-1.71c-1.68,0-2.96,0.71-3.83,2.12c-0.44,0.71-0.65,1.44-0.65,2.21v38.56c0,1.69,0.76,2.97,2.28,3.83
				c0.65,0.38,1.39,0.57,2.2,0.57h1.71v0.81h-24.54v-0.81h1.71c1.2,0,2.25-0.44,3.14-1.31
				C1574.63,2576.78,1575.08,2575.76,1575.08,2574.56z"/>
			<path class="st6" d="M1636.64,2570.64v12.15c0.05,1.74,0.92,3.05,2.61,3.92c0.6,0.27,1.25,0.4,1.96,0.4h0.82l0.08,0.82h-23.08
				v-0.82h0.9c1.19,0,2.23-0.4,3.1-1.22c0.86-0.81,1.33-1.82,1.38-3.01v-12.24h-25.77v-0.81l37.27-40.12h0.73v33.92h3.58
				c1.42,0,2.46-0.2,3.14-0.61c0.68-0.41,1.29-1.07,1.84-2h0.81l-2.28,9.62H1636.64z M1624.41,2563.63v-16.06l-15.01,16.06H1624.41z
				"/>
			<path class="st6" d="M1689.16,2570.64v12.15c0.05,1.74,0.92,3.05,2.61,3.92c0.6,0.27,1.25,0.4,1.96,0.4h0.82l0.08,0.82h-23.08
				v-0.82h0.9c1.19,0,2.23-0.4,3.1-1.22c0.86-0.81,1.33-1.82,1.38-3.01v-12.24h-25.77v-0.81l37.27-40.12h0.73v33.92h3.58
				c1.42,0,2.46-0.2,3.14-0.61c0.68-0.41,1.29-1.07,1.84-2h0.81l-2.28,9.62H1689.16z M1676.92,2563.63v-16.06l-15.01,16.06H1676.92z
				"/>
			<path class="st6" d="M1704.32,2535.66c4.24-3.86,10.25-5.79,18.03-5.79c5.49,0,9.89,1.18,13.21,3.55
				c3.32,2.37,4.98,5.61,4.98,9.74c0,2.34-0.56,4.46-1.67,6.36c-1.11,1.91-2.5,3.37-4.16,4.4c-1.66,1.04-3.44,1.61-5.34,1.72
				c3.42,0.65,6.41,2.14,8.96,4.48c2.83,2.61,4.27,6.28,4.32,11.01c0,3.21-0.76,6.2-2.28,8.97c-2.83,5.11-7.75,8.78-14.76,11.01
				c-2.93,0.92-6.06,1.38-9.38,1.38c-3.96,0-7.8-0.65-11.5-1.96l0.16-0.81c0.27,0,0.54,0,0.81,0c4.08,0,7.93-0.76,11.58-2.28
				c3.64-1.52,6.59-3.81,8.84-6.85c2.26-3.04,3.38-6.5,3.38-10.35c0-5.38-2.23-9.24-6.68-11.58c-2.56-1.36-5.57-2.04-9.06-2.04
				l0.16-0.82c0.17,0,0.3,0,0.41,0c3.7,0,6.89-1.25,9.58-3.75c2.69-2.5,4.04-5.52,4.04-9.06c0-3.31-0.93-5.76-2.78-7.34
				c-1.85-1.58-4.02-2.37-6.52-2.37c-6.74,0-10.11,4.24-10.11,12.72c0,0.38,0,0.79,0,1.22h-0.82L1704.32,2535.66z"/>
			<path class="st6" d="M1813.91,2578.96c1.42,0,2.64-0.49,3.67-1.47c1.03-0.98,1.58-2.18,1.63-3.59v-20.8h-25.69v20.95
				c0,6.52-1.66,11.72-4.97,15.58c-2.61,3.04-6.36,4.56-11.25,4.56c-1.58,0-3.29-0.19-5.14-0.57l-0.16-0.81
				c4.02-1.69,6.6-4.19,7.75-7.5c1.03-2.83,1.55-6.58,1.55-11.26v-45.5c-0.06-1.41-0.59-2.61-1.59-3.59
				c-1.01-0.98-2.22-1.47-3.63-1.47h-1.06v-0.81h24.79v0.81h-1.06c-1.96,0-3.42,0.82-4.4,2.45c-0.49,0.76-0.76,1.63-0.82,2.61v21.04
				h25.69v-19.57c0-6.36,1.99-11.42,5.96-15.16c3.15-3.1,7.12-4.65,11.9-4.65c1.09,0,2.23,0.09,3.42,0.24l0.17,0.82
				c-3.97,1.41-6.55,3.91-7.75,7.5c-0.98,2.94-1.5,6.68-1.55,11.25v43.79c0.06,1.96,0.93,3.43,2.61,4.41
				c0.81,0.49,1.71,0.73,2.69,0.73h0.98v0.81h-24.71v-0.81H1813.91z"/>
		</g>
	</g>
</g>
</svg>
