<?xml version="1.0" encoding="iso-8859-1"?>
<!-- Generator: Adobe Illustrator 23.0.5, SVG Export Plug-In . SVG Version: 6.00 Build 0)  -->
<svg version="1.1" xmlns="http://www.w3.org/2000/svg" xmlns:xlink="http://www.w3.org/1999/xlink" x="0px" y="0px"
	 viewBox="0 0 700 700" style="enable-background:new 0 0 700 700;" xml:space="preserve">
<g id="Men_checking_heart_rate_on_mobile_app">
	<g>
		<g>
			<g>
				<path style="fill:#F2F2F2;" d="M582.072,641.965c-20.327-36.307-17.989-81.229-7.713-121.551s27.793-78.614,36.578-119.286
					c16.974-78.583,4.513-227.716-100.636-235.878c-18.667-1.449-38.861,3.287-51.452,17.145
					c-9.097,10.013-13.2,23.449-19.566,35.386c-17.8,33.376-55.725,54.931-93.509,53.146
					c-42.387-2.002-81.701-28.297-121.055-41.917c-40.267-13.936-82.018,5.975-108.104,38.703
					c-22.98,28.831-33.273,66.351-33.8,103.215c-0.526,36.865,8.113,73.309,19.745,108.294c9.57,28.785,21.331,57.576,22.011,87.903
					c0.68,30.327-12.78,63.405-40.575,75.554"/>
				<line style="fill:none;stroke:#26489C;stroke-miterlimit:10;" x1="58.333" y1="642.68" x2="641.667" y2="642.68"/>
			</g>
			<g>
				<path style="fill:#FFFFFF;" d="M304.302,584.203c0,2.05-15.9,3.722-35.531,3.722c-19.618,0-35.518-1.672-35.518-3.722
					c0-2.06,15.9-3.722,35.518-3.722C288.402,580.481,304.302,582.143,304.302,584.203z"/>
				<path style="fill:#FFFFFF;" d="M299.115,611.492c1.625,13.053,3.263,29.187-26.235,31.033c-1.3,0.078-2.678,0.13-4.108,0.156
					c-33.724-0.559-32.021-17.551-30.318-31.189c1.703-13.677-5.018-27.34-5.2-27.718c4.147,2.067,12.91,3.393,22.998,3.991
					c18.149,1.053,40.588-0.273,48.051-3.991C304.12,584.151,297.399,597.815,299.115,611.492z"/>
				<path style="fill:#26489C;" d="M272.879,642.524c-1.3,0.078-2.678,0.13-4.108,0.156c-33.724-0.559-32.021-17.551-30.318-31.189
					c1.703-13.677-4.831-26.529-5.013-26.906c4.147,2.067,12.723,2.581,22.811,3.179c4.602,4.485,6.136,11.389,6.318,17.876
					c0.195,6.682-0.793,13.404,0.078,20.034c0.871,6.63,4.082,13.508,10.141,16.316L272.879,642.524z"/>
				<path style="fill:none;stroke:#26489C;stroke-linecap:round;stroke-linejoin:round;stroke-miterlimit:10;" d="M304.302,584.203
					c-0.187,0.381-6.899,13.617-5.189,27.291c1.703,13.638,3.406,30.624-30.337,31.185c-33.735-0.56-32.033-17.547-30.329-31.185
					c1.71-13.674-5.007-26.91-5.194-27.291"/>
				<path style="fill:#7ECFC7;" d="M250.35,471.465l8.498-21.228l13.882,6.296l-4.51-13.529c0,0,16.181-32.893,44.565-39.26
					c0,0,8.223-0.531,0,13.529c-8.223,14.059-13.529,26.792-13.529,26.792l-10.611,4.775l10.345,1.397l-1.586,11.601l3.002,9.627
					l3.893,6.987l-2.561,7.106l-11.103,4.663l-6.762,9.77l-3.008,10.658l-0.666,7.772l-9.77,10.436l-11.583-11.789l-7.069-17.078
					l4.048-9.992l-3.826-1.11l-9.104-1.332l-1.332-5.107l2.443-5.551L250.35,471.465z"/>
				<path style="opacity:0.3;fill:#FFFFFF;" d="M316.267,409.14c-27.428,7.178-43.026,38.883-43.026,38.883l4.504,13.527
					l-13.874-6.296l-8.501,21.226l-6.349,5.44l-2.433,5.547l0.174,0.655l-3.863-0.561l-1.337-5.106l2.446-5.56l6.336-5.427
					l8.501-21.226l13.888,6.296l-4.518-13.54c0,0,16.187-32.881,44.577-39.257C312.791,403.74,317.363,403.446,316.267,409.14z"/>
				<path style="fill:#28AFA1;" d="M273.949,521.68l8.27-32.047v-18.167l20.56,7.648l-14.415-11.236l18.958-16.257l9.117,5.499
					l-5.531-9.324c0,0,17.691-24.005,23.668-28.14c5.977-4.135,1.674,12.122,1.674,12.122l11.236-8.129l-2.152,9.802l-3.586,6.933
					l-0.717,9.853l-9.324,7.36l10.041-1.195l-1.913,23.906l-24.864,1.675l23.668,3.825c0,0-9.02,20.064-22.201,28.68h-15.811
					l13.149,3.595c0,0-5.26,41.36-4.303,45.902s-12.069,1.999-12.069,1.999l11.112,2.544c0,0-3.612,4.342-21.171,3.844"/>
				<path style="opacity:0.3;fill:#FFFFFF;" d="M301.684,570.085c0.321,0.067,1.537,0.281,3.088,0.454
					c-0.147,0.054-0.294,0.107-0.454,0.147L301.684,570.085z"/>
				<path style="opacity:0.3;fill:#FFFFFF;" d="M278.145,525.776l12.324,46.635c-0.989,0-2.032-0.013-3.128-0.04l-13.393-50.685
					l8.274-32.053v-18.165l18.553,6.897l6.202,4.839l-20.571-7.646v18.165L278.145,525.776z"/>
				<path style="opacity:0.3;fill:#FFFFFF;" d="M293.062,471.535l-4.692-3.662l18.954-16.254l9.116,5.494l-5.534-9.316
					c0,0,17.697-24.006,23.672-28.136c3.128-2.165,3.435,1.256,3.021,5.012c-6.83,5.948-22.496,27.214-22.496,27.214l5.534,9.316
					l-9.116-5.494L293.062,471.535z"/>
				<polygon style="opacity:0.3;fill:#FFFFFF;" points="300.775,478.365 292.555,471.962 293.062,471.535 302.78,479.114 				"/>
				<polyline style="fill:none;stroke:#26489C;stroke-miterlimit:10;" points="229.394,548.412 226.982,559.415 233.252,559.415 
					233.252,564.159 249.24,554.307 242.307,567.443 242.672,570.727 				"/>
				<path style="fill:none;stroke:#26489C;stroke-miterlimit:10;" d="M250.35,471.465l8.498-21.228l13.882,6.296l-4.51-13.529
					c0,0,16.181-32.893,44.565-39.26c0,0,8.223-0.531,0,13.529c-8.223,14.059-13.529,26.792-13.529,26.792l-10.611,4.775
					l10.345,1.397l-1.32,9.66"/>
				<path style="fill:none;stroke:#26489C;stroke-linejoin:round;stroke-miterlimit:10;" d="M273.949,521.68l8.27-32.047v-18.167
					l20.56,7.648l-14.415-11.236l18.958-16.257l9.117,5.499l-5.531-9.324c0,0,17.691-24.005,23.668-28.14
					c5.977-4.135,1.674,12.122,1.674,12.122l11.236-8.129l-2.152,9.802l-3.586,6.933l-0.717,9.853l-9.324,7.36l10.041-1.195
					l-1.913,23.906l-24.864,1.675l23.668,3.825c0,0-9.02,20.064-22.201,28.68h-15.811l13.149,3.595c0,0-5.26,41.36-4.303,45.902
					s-12.069,1.999-12.069,1.999l11.112,2.544c0,0-3.612,4.342-21.171,3.844"/>
				<path style="fill:none;stroke:#26489C;stroke-miterlimit:10;" d="M293.888,428.382c0,0-25.999,31.872-18.748,88.686"/>
				<path style="fill:none;stroke:#26489C;stroke-miterlimit:10;" d="M277.825,587.746c0,0,6.61-72.012,42.678-127.685"/>
				<path style="fill:#28AFA1;" d="M258.848,576.2l7.542-4.014c0,0,14.96,8.028,31.016-6.203c0,0-14.596-12.771-24.083-13.136
					l16.785-6.568l-21.331-32.475l7.1-15.325l-20.434-21.164l-10.217,8.392l6.568-12.406c0,0-22.258-29.191-28.826-21.893
					c-6.568,7.298-4.379,33.935-4.379,33.935l10.217-1.095l-10.567,10.217v16.42l10.567,11.676l12.406-5.473l-10.582,10.217
					l2.621,13.136l-15.013,31.016l11.662,1.095l-4.379,6.187l17.15-8.011L258.848,576.2z"/>
				<path style="opacity:0.3;fill:#FFFFFF;" d="M218.585,485.342c0,0-2.179-26.639,4.384-33.937c1.55-1.738,3.997-1.403,6.817,0.094
					c-5.828,6.683-4.651,28.791-4.357,33.109L218.585,485.342z"/>
				<polygon style="opacity:0.3;fill:#FFFFFF;" points="228.81,522.568 218.237,510.885 218.237,494.472 227.955,485.075 
					235.707,484.246 225.134,494.472 225.134,510.885 233.742,520.389 				"/>
				<polygon style="opacity:0.3;fill:#FFFFFF;" points="240.145,540.439 225.134,571.462 236.803,572.545 235.827,573.922 
					225.522,578.733 229.906,572.545 218.237,571.462 233.248,540.439 230.628,527.299 235.627,522.474 235.707,522.568 
					248.111,517.088 237.525,527.299 				"/>
				<path style="fill:none;stroke:#26489C;stroke-miterlimit:10;" d="M236.274,480.307c18.043,33.004,25.809,70.06,21.615,107.439"
					/>
				<path style="fill:none;stroke:#26489C;stroke-linejoin:round;stroke-miterlimit:10;" d="M258.848,576.2l7.542-4.014
					c0,0,14.96,8.028,31.016-6.203c0,0-14.596-12.771-24.083-13.136l16.785-6.568l-21.331-32.475l7.1-15.325l-20.434-21.164
					l-10.217,8.392l6.568-12.406c0,0-22.258-29.191-28.826-21.893c-6.568,7.298-4.379,33.935-4.379,33.935l10.217-1.095
					l-10.567,10.217v16.42l10.567,11.676l12.406-5.473l-10.582,10.217l2.621,13.136l-15.013,31.016l11.662,1.095l-4.379,6.187
					l17.15-8.011L258.848,576.2z"/>
				<path style="fill:none;stroke:#26489C;stroke-miterlimit:10;" d="M304.302,584.203c0,2.05-15.9,3.722-35.531,3.722
					c-19.618,0-35.518-1.672-35.518-3.722c0-2.06,15.9-3.722,35.518-3.722C288.402,580.481,304.302,582.143,304.302,584.203z"/>
			</g>
			<g>
				<path style="fill:#26489C;" d="M363.34,630.404c0,0-16.636-0.924-21.257,11.091h31.435c1.097,0,2.031-0.786,2.222-1.866
					c0.558-3.16,1.184-9.224-2.233-9.224H363.34z"/>
				<polygon style="fill:#FFFFFF;" points="373.898,617.876 373.916,630.485 363.105,630.444 363.088,617.88 				"/>
				<path style="fill:none;stroke:#26489C;stroke-miterlimit:10;" d="M363.34,630.404c0,0-16.636-0.924-21.257,11.091h31.435
					c1.097,0,2.031-0.786,2.222-1.866c0.558-3.16,1.184-9.224-2.233-9.224"/>
				<polygon style="fill:none;stroke:#26489C;stroke-miterlimit:10;" points="373.898,617.876 373.916,630.485 363.105,630.444 
					363.088,617.88 				"/>
			</g>
			<g>
				<path style="fill:#26489C;" d="M476.925,622.099c0,0-14.656,7.926-12.299,20.582l26.779-16.465
					c0.935-0.575,1.318-1.733,0.915-2.753c-1.18-2.984-3.823-8.478-6.734-6.688L476.925,622.099z"/>
				<polygon style="fill:#FFFFFF;" points="479.357,605.897 485.976,616.628 476.745,622.255 470.15,611.562 				"/>
				<path style="fill:none;stroke:#26489C;stroke-miterlimit:10;" d="M476.925,622.099c0,0-14.656,7.926-12.299,20.582
					l26.779-16.465c0.935-0.575,1.318-1.733,0.915-2.753c-1.18-2.984-3.823-8.478-6.734-6.688"/>
				<polygon style="fill:none;stroke:#26489C;stroke-miterlimit:10;" points="479.357,605.897 485.976,616.628 476.745,622.255 
					470.15,611.562 				"/>
			</g>
			<path style="fill:#FFFFFF;" d="M411.947,112.683c-1.422,9.548,3.593,12.837,6.922,13.583c1.495,0.335,3.101,0.154,4.483-0.506
				c2.907-1.386,4.511-4.688,4.759-7.899c0.249-3.211,0.064-5.491-1.271-8.187"/>
			<path style="fill:#FFFFFF;" d="M362.592,238.692c0,0-10.914,46.925,5.913,95.155c0,0,12.129-3.87,14.359-5.476
				c2.229-1.606,16.584-20.224,16.584-20.224s8.373-32.819,5.981-40.295c-2.392-7.476-6.28-29.16-6.28-29.16
				s-4.785-14.8-6.28-13.903"/>
			<path style="fill:#27AAEA;" d="M488.391,605.566l-21.805,12.308c0,0-33.787-58.053-54.6-109.655
				c-5.18-12.845-9.567-25.293-12.413-36.342c-1.575-6.078-2.683-11.725-3.208-16.788c-5.355-51.298-11.375-125.207-16.73-143.267
				l96.985-3.675c0,0,6.02,34.545-6.685,95.865c-12.705,61.32-10.033,102.177-4.013,119.875
				C471.941,541.586,488.391,605.566,488.391,605.566z"/>
			<path style="fill:#FFFFFF;" d="M469.316,312.138c-26.554,6.09-82.262,10.302-94.442-3.99c-6.743-7.898-5.366-39.515-1.668-69.218
				c2.963-24.01,7.455-46.772,10.372-54.752l104.919,50.703c0,0,0.152,1.412,0.327,3.873
				C489.896,253.676,492.113,306.899,469.316,312.138z"/>
			<path style="fill:#26489C;" d="M469.316,312.138c-26.554,6.09-82.262,10.302-94.442-3.99c-6.743-7.898-5.366-39.515-1.668-69.218
				c2.753,10.337,0.98,21.257,0.817,31.955c-0.152,10.745,1.937,22.598,10.255,29.412c5.25,4.293,12.145,5.88,18.807,7.058
				c14.198,2.497,28.886,3.722,42.968,0.618c14.082-3.103,27.58-10.99,34.965-23.368c8.097-13.568,7.922-30.31,7.525-46.095
				l0.28,0.245C489.896,253.676,492.113,306.899,469.316,312.138z"/>
			<path style="fill:#FFFFFF;" d="M373.235,238.697h-13.324c1.253-37.082,16.553-64.201,31.54-82.031
				c7.373-8.783,14.674-15.312,20.179-19.673c5.698-4.518,9.481-6.734,9.481-6.734c2.626,1.566,5.204,3.205,7.734,4.915
				c26.709,17.963,47.78,43.274,60.297,73.055c6.096,14.493,8.71,24.878,8.71,24.878s-40.624,8.53-53.165,4.506
				c-12.541-4.012-10.674-57.683-10.674-57.683"/>
			<path style="fill:#27AAEA;" d="M425.916,383.164c-1.54,2.94-4.69,24.605-4.69,24.605l-24.861,47.32
				c-1.4,3.15-2.707,6.417-3.908,9.8c-21.828,60.97-12.822,155.622-12.822,155.622l-27.428,1.75c0,0-6.86-46.76-14.455-123.83
				c-7.759-78.54,40.53-187.402,40.53-187.402l18.083,6.183l18.025,16.637l8.925,23.158
				C423.314,357.008,427.456,380.224,425.916,383.164z"/>
			<g>
				<line style="fill:none;stroke:#26489C;stroke-miterlimit:10;" x1="234.587" y1="88.113" x2="229.984" y2="88.113"/>
				<path style="fill:none;stroke:#26489C;stroke-miterlimit:10;" d="M379.735,88.113h-25.348c1.266-3.859-0.871-8.516-4.622-10.072
					c-3.492-1.449-7.874-0.45-10.888-2.731c-3.196-2.418-3.169-7.141-4.786-10.808c-1.73-3.925-5.699-6.766-9.972-7.139
					c-4.273-0.373-8.674,1.738-11.058,5.304c-1.206,1.804-1.903,3.9-2.995,5.776s-2.757,3.621-4.903,3.944
					c-4.658,0.701-8.6-5.432-13.117-4.098c-3.869,1.143-4.436,6.697-7.8,8.926c-3.221,2.134-7.524,0.436-11.367,0.835
					c-4.45,0.463-8.353,5.64-9.024,10.063h-25.22h-1.34"/>
			</g>
			<g>
				<line style="fill:none;stroke:#26489C;stroke-miterlimit:10;" x1="463.498" y1="135.325" x2="458.896" y2="135.325"/>
				<path style="fill:none;stroke:#26489C;stroke-miterlimit:10;" d="M608.647,135.325h-25.348
					c1.266-3.859-0.871-8.516-4.622-10.072c-3.492-1.449-7.874-0.45-10.888-2.731c-3.196-2.418-3.169-7.141-4.786-10.808
					c-1.73-3.925-5.699-6.766-9.972-7.139c-4.273-0.373-8.674,1.738-11.058,5.304c-1.206,1.804-1.903,3.9-2.995,5.776
					s-2.757,3.621-4.903,3.944c-4.658,0.701-8.6-5.432-13.117-4.098c-3.869,1.143-4.436,6.697-7.8,8.926
					c-3.221,2.134-7.524,0.436-11.367,0.835c-4.45,0.463-8.353,5.64-9.024,10.063h-25.22h-1.34"/>
			</g>
			<g>
				<path style="fill:#FFFFFF;" d="M330.576,154.012v219.786c0,10.322-8.364,18.686-18.678,18.686H187.67
					c-10.314,0-18.678-8.364-18.678-18.686V154.012c0-10.322,8.364-18.686,18.678-18.686h124.228
					C322.212,135.325,330.576,143.689,330.576,154.012z"/>
				<g>
					<path style="fill:none;stroke:#26489C;stroke-miterlimit:10;" d="M330.576,154.012v219.786
						c0,10.322-8.364,18.686-18.678,18.686H187.67c-10.314,0-18.678-8.364-18.678-18.686V154.012
						c0-10.322,8.364-18.686,18.678-18.686h124.228C322.212,135.325,330.576,143.689,330.576,154.012z"/>
					<path style="fill:none;stroke:#26489C;stroke-miterlimit:10;" d="M324.392,169.598v-15.586c0-6.894-5.604-12.502-12.494-12.502
						H187.67c-6.889,0-12.493,5.609-12.493,12.502v15.586H324.392z"/>
					<path style="fill:none;stroke:#26489C;stroke-miterlimit:10;" d="M175.176,358.212v15.586c0,6.894,5.604,12.502,12.494,12.502
						h124.228c6.889,0,12.493-5.609,12.493-12.502v-15.586H175.176z"/>
					<path style="fill:#26489C;" d="M324.392,169.598v-15.586c0-6.894-5.604-12.502-12.494-12.502H187.67
						c-6.889,0-12.493,5.609-12.493,12.502v15.586H324.392z"/>
					<path style="fill:#FFFFFF;" d="M269.314,153.07c0,0.68-0.272,1.311-0.73,1.756c-0.445,0.458-1.076,0.73-1.756,0.73H232.74
						c-1.373,0-2.486-1.113-2.486-2.486c0-0.68,0.272-1.311,0.73-1.769c0.445-0.445,1.076-0.73,1.756-0.73h34.087
						C268.2,150.572,269.314,151.697,269.314,153.07z"/>
					<path style="fill:#26489C;" d="M175.176,358.212v15.586c0,6.894,5.604,12.502,12.494,12.502h124.228
						c6.889,0,12.493-5.609,12.493-12.502v-15.586H175.176z"/>
					<path style="fill:#FFFFFF;" d="M269.314,372.262c0,0.68-0.272,1.311-0.73,1.756c-0.445,0.458-1.076,0.73-1.756,0.73H232.74
						c-1.373,0-2.486-1.113-2.486-2.486c0-0.68,0.272-1.311,0.73-1.769c0.445-0.445,1.076-0.73,1.756-0.73h34.087
						C268.2,369.764,269.314,370.889,269.314,372.262z"/>
					<path style="opacity:0.3;fill:#FFFFFF;" d="M328.578,317.551l3.129-0.334l-0.792,0.767l-2.288,0.247
						C328.628,318.231,328.603,317.996,328.578,317.551z"/>
					<path style="fill:none;stroke:#26489C;stroke-miterlimit:10;" d="M269.314,153.07c0,0.68-0.272,1.311-0.73,1.756
						c-0.445,0.458-1.076,0.73-1.756,0.73H232.74c-1.373,0-2.486-1.113-2.486-2.486c0-0.68,0.272-1.311,0.73-1.769
						c0.445-0.445,1.076-0.73,1.756-0.73h34.087C268.2,150.572,269.314,151.697,269.314,153.07z"/>
					<path style="fill:none;stroke:#26489C;stroke-miterlimit:10;" d="M269.314,372.262c0,0.68-0.272,1.311-0.73,1.756
						c-0.445,0.458-1.076,0.73-1.756,0.73H232.74c-1.373,0-2.486-1.113-2.486-2.486c0-0.68,0.272-1.311,0.73-1.769
						c0.445-0.445,1.076-0.73,1.756-0.73h34.087C268.2,369.764,269.314,370.889,269.314,372.262z"/>
				</g>
			</g>
			<g>
				<line style="fill:none;stroke:#26489C;stroke-miterlimit:10;" x1="126.959" y1="311.953" x2="116.431" y2="322.481"/>
				<line style="fill:none;stroke:#26489C;stroke-miterlimit:10;" x1="126.959" y1="322.481" x2="116.431" y2="311.953"/>
			</g>
			<g>
				<line style="fill:none;stroke:#26489C;stroke-miterlimit:10;" x1="352.751" y1="357.464" x2="342.223" y2="367.992"/>
				<line style="fill:none;stroke:#26489C;stroke-miterlimit:10;" x1="352.751" y1="367.992" x2="342.223" y2="357.464"/>
			</g>
			<g>
				<line style="fill:none;stroke:#26489C;stroke-miterlimit:10;" x1="556.324" y1="191.685" x2="545.796" y2="202.212"/>
				<line style="fill:none;stroke:#26489C;stroke-miterlimit:10;" x1="556.324" y1="202.212" x2="545.796" y2="191.685"/>
			</g>
			<g>
				<line style="fill:none;stroke:#26489C;stroke-miterlimit:10;" x1="101.881" y1="529.052" x2="91.353" y2="539.58"/>
				<line style="fill:none;stroke:#26489C;stroke-miterlimit:10;" x1="101.881" y1="539.58" x2="91.353" y2="529.052"/>
			</g>
			<path style="fill:none;stroke:#26489C;stroke-miterlimit:10;" d="M513.549,325.488c0,3.448-2.794,6.242-6.242,6.242
				c-3.435,0-6.229-2.794-6.229-6.242c0-3.449,2.794-6.229,6.229-6.229C510.755,319.259,513.549,322.04,513.549,325.488z"/>
			<path style="fill:none;stroke:#26489C;stroke-miterlimit:10;" d="M541.213,599.404c0,3.448-2.794,6.242-6.242,6.242
				c-3.435,0-6.229-2.794-6.229-6.242c0-3.449,2.794-6.229,6.229-6.229C538.419,593.176,541.213,595.956,541.213,599.404z"/>
			<path style="fill:none;stroke:#26489C;stroke-miterlimit:10;" d="M151.202,190.707c0,3.448-2.794,6.242-6.242,6.242
				c-3.435,0-6.229-2.794-6.229-6.242c0-3.449,2.794-6.229,6.229-6.229C148.408,184.478,151.202,187.258,151.202,190.707z"/>
			<path style="fill:none;stroke:#26489C;stroke-miterlimit:10;" d="M176.852,449.543c0,3.448-2.794,6.242-6.242,6.242
				c-3.435,0-6.229-2.794-6.229-6.242c0-3.449,2.794-6.229,6.229-6.229C174.058,443.314,176.852,446.094,176.852,449.543z"/>
			<path style="fill:none;stroke:#26489C;stroke-miterlimit:10;" d="M328.911,545.809c0,3.448-2.794,6.242-6.242,6.242
				c-3.435,0-6.229-2.794-6.229-6.242c0-3.449,2.794-6.229,6.229-6.229C326.117,539.58,328.911,542.36,328.911,545.809z"/>
			<path style="fill:none;stroke:#26489C;stroke-miterlimit:10;" d="M213.945,575v29.034c0,7.638-6.192,13.842-13.842,13.842
				h-58.972c-7.65,0-13.842-6.204-13.842-13.842V575c0-7.65,6.192-13.842,13.842-13.842h58.972
				C207.753,561.157,213.945,567.349,213.945,575z"/>
			<polyline style="fill:none;stroke:#26489C;stroke-miterlimit:10;" points="138.731,591.79 153.414,591.79 157.743,581.251 
				166.285,605.567 176.304,567.437 184.028,593.043 203.441,593.043 			"/>
			<path style="fill:none;stroke:#26489C;stroke-miterlimit:10;" d="M379.634,311.823c1.307,4.398,2.648,12.122,4.013,22.027
				c0,0,0.012,0.058,0.023,0.175c0.012,0.093,0.035,0.198,0.035,0.292c4.223,30.777,8.633,82.18,12.658,120.773
				c0.583,5.647,1.902,12.017,3.757,18.888c15.085,55.592,66.465,143.897,66.465,143.897l21.805-12.308
				c0,0-16.45-63.98-22.47-81.678c-6.02-17.698-8.692-58.555,4.013-119.875c12.705-61.32,6.685-95.865,6.685-95.865"/>
			<path style="fill:none;stroke:#26489C;stroke-miterlimit:10;" d="M396.36,455.087c-26.755,59.988-16.722,165.42-16.722,165.42
				l-27.434,1.748c0,0-6.856-46.749-14.458-123.823c-7.747-78.538,40.539-187.4,40.539-187.4"/>
			<path style="fill:none;stroke:#26489C;stroke-miterlimit:10;" d="M488.498,234.883c0,0,7.364,71.156-19.183,77.249
				c-26.548,6.093-82.255,10.309-94.441-3.985c-12.186-14.294,2.176-106.123,8.704-123.967"/>
			<path style="fill:#FFFFFF;" d="M451.905,238.697c0,0-0.952,57.96-25.986,91.56c4.556,6.033,10.86,10.428,18.866,13.228
				c6.638-7.554,37.371-45.768,39.612-107.908C473.675,237.54,462.844,238.577,451.905,238.697z"/>
			<path style="fill:none;stroke:#26489C;stroke-miterlimit:10;" d="M434.013,179.931c0,0-0.035,1.19-0.07,3.22
				c-0.14,9.707,0,38.71,6.242,50.062c1.248,2.263,2.73,3.827,4.503,4.398c12.542,4.025,53.165-4.503,53.165-4.503
				s-2.613-10.383-8.715-24.873c-12.507-29.785-33.577-55.102-60.293-73.057c-2.532-1.715-5.11-3.348-7.735-4.923
				c0,0-3.78,2.217-9.473,6.743c-5.507,4.352-12.81,10.885-20.183,19.67c-14.992,17.827-30.287,44.952-31.547,82.028h13.335"/>
			<path style="fill:#FFFFFF;" d="M428.844,135.178c-0.385,4.503-4.176,8.038-8.785,8.038c-3.967,0-7.315-2.625-8.423-6.218
				c0.222-0.187,0.443-0.362,0.653-0.525c1.587-1.248,2.718-2.928,3.267-4.818c0.257-0.875,0.396-1.785,0.396-2.718v-3.99
				c0.992,0.7,2.018,1.12,2.917,1.33c1.493,0.315,3.104,0.14,4.48-0.513c0.42-0.198,0.817-0.443,1.178-0.723v2.135
				c0,0.922,0.14,1.832,0.397,2.695c0.63,2.123,1.995,4.002,3.873,5.273L428.844,135.178z"/>
			<path style="fill:none;stroke:#26489C;stroke-miterlimit:10;" d="M451.905,238.697c0,0-0.952,57.96-25.986,91.56
				c4.485,5.962,10.765,10.379,18.866,13.228c6.638-7.554,37.371-45.768,39.612-107.908
				C472.994,237.57,462.101,238.713,451.905,238.697z"/>
			<path style="fill:none;stroke:#26489C;stroke-miterlimit:10;" d="M449.556,344.871c-1.65-0.398-3.241-0.855-4.771-1.385
				c-7.819-2.675-14.132-7.06-18.866-13.228c-0.94-1.193-1.795-2.458-2.602-3.795"/>
			<path style="fill:none;stroke:#26489C;stroke-miterlimit:10;" d="M362.592,238.692c0,0-10.914,46.925,5.913,95.155"/>
			<path style="fill:none;stroke:#26489C;stroke-miterlimit:10;" d="M415.956,124.946c0.988,0.699,2.012,1.12,2.915,1.325
				c1.494,0.325,3.096,0.145,4.482-0.506c0.422-0.205,0.819-0.446,1.181-0.723"/>
			<path style="fill:none;stroke:#26489C;stroke-miterlimit:10;" d="M428.846,135.174c-0.386,4.506-4.18,8.048-8.783,8.048
				c-3.976,0-7.325-2.626-8.433-6.229c0.224-0.178,0.446-0.352,0.664-0.522c2.317-1.813,3.661-4.591,3.661-7.533v-3.992
				c0.988,0.699,2.012,1.12,2.916,1.325c1.494,0.325,3.096,0.144,4.482-0.506c0.422-0.205,0.819-0.446,1.181-0.723v2.128
				c0,3.205,1.617,6.177,4.27,7.975L428.846,135.174z"/>
			<g>
				<rect x="188.836" y="211.47" style="fill:none;stroke:#26489C;stroke-miterlimit:10;" width="123.028" height="107.788"/>
				<line style="fill:none;stroke:#26489C;stroke-miterlimit:10;" x1="188.836" y1="235.577" x2="311.864" y2="235.577"/>
				<line style="fill:none;stroke:#26489C;stroke-miterlimit:10;" x1="188.836" y1="252.783" x2="311.864" y2="252.783"/>
				<line style="fill:none;stroke:#26489C;stroke-miterlimit:10;" x1="188.836" y1="269.989" x2="311.864" y2="269.989"/>
				<line style="fill:none;stroke:#26489C;stroke-miterlimit:10;" x1="188.836" y1="287.195" x2="311.864" y2="287.195"/>
				<polyline style="fill:none;stroke:#26489C;stroke-miterlimit:10;" points="188.836,263.905 197.368,263.905 206.348,243.803 
					212.634,269.989 217.573,259.518 222.063,269.989 235.533,228.088 242.268,281.519 250.35,258.62 254.391,269.989 
					261.126,257.273 266.514,269.989 283.576,228.088 289.413,286.27 297.046,259.518 301.536,269.989 306.026,257.179 
					311.864,263.905 				"/>
			</g>
			<g>
				<path style="fill:none;stroke:#26489C;stroke-linejoin:round;stroke-miterlimit:10;" d="M219.704,335.785
					c0,7.781-10.559,13.813-10.559,13.813s-10.559-6.26-10.559-13.813c0-3.054,2.476-5.528,5.531-5.528
					c2.233,0,4.158,1.324,5.028,3.229c0.87-1.905,2.795-3.229,5.028-3.229C217.228,330.257,219.704,332.73,219.704,335.785z"/>
				<path style="fill:#26489C;" d="M219.704,335.785c0,7.781-10.559,13.813-10.559,13.813s-10.559-6.26-10.559-13.813
					c0-3.054,2.476-5.528,5.531-5.528c2.233,0,4.158,1.324,5.028,3.229c0.87-1.905,2.795-3.229,5.028-3.229
					C217.228,330.257,219.704,332.73,219.704,335.785z"/>
				<g>
					<line style="fill:none;stroke:#26489C;stroke-miterlimit:10;" x1="231.72" y1="333.847" x2="302.113" y2="333.847"/>
					<line style="fill:none;stroke:#26489C;stroke-miterlimit:10;" x1="231.72" y1="343.677" x2="283.618" y2="343.677"/>
				</g>
			</g>
			<path style="fill:#28AFA1;" d="M437.781,117.818c-0.968,1.878-2.427,3.582-4.363,4.41c-1.937,0.828-4.41,0.595-5.892-0.898
				c1.046-4.182,0.955-8.019-0.56-11.422c-1.435-2.823-5.542-3.057-8.412-1.715c-2.87,1.342-5.098,3.78-7.886,5.285
				c-2.788,1.505-6.778,1.762-8.68-0.782c-1.808-2.415-0.688-5.927,1.003-8.435c2.905-4.293,7.338-7.513,12.32-8.948
				c6.451-1.867,13.93-0.513,18.83,4.072C439.053,103.981,440.849,111.844,437.781,117.818z"/>
			<path style="opacity:0.3;fill:#FFFFFF;" d="M436.124,101.648c-4.83-3.535-11.456-4.457-17.255-2.777
				c-4.982,1.435-9.415,4.655-12.32,8.948c-1.295,1.925-2.264,4.445-1.82,6.603c-1.085-0.245-2.053-0.805-2.742-1.727
				c-1.808-2.415-0.688-5.927,1.003-8.435c2.905-4.293,7.338-7.513,12.32-8.948c6.451-1.867,13.93-0.513,18.83,4.072
				C434.876,100.073,435.541,100.831,436.124,101.648z"/>
			<path style="fill:none;stroke:#26489C;stroke-miterlimit:10;" d="M427.525,121.332c1.488,1.495,3.952,1.719,5.893,0.894
				c1.941-0.825,3.397-2.532,4.361-4.409c3.069-5.978,1.274-13.838-3.635-18.427c-4.909-4.589-12.381-5.943-18.837-4.08
				c-4.975,1.435-9.413,4.661-12.313,8.949c-1.697,2.508-2.817,6.017-1.004,8.442c1.898,2.538,5.889,2.281,8.678,0.775
				c2.789-1.506,5.017-3.937,7.886-5.283s6.97-1.109,8.416,1.712"/>
			<path style="fill:none;stroke:#26489C;stroke-miterlimit:10;" d="M411.947,112.683c-1.422,9.548,3.593,12.837,6.922,13.583
				c1.495,0.335,3.101,0.154,4.483-0.506c2.907-1.386,4.511-4.688,4.759-7.899c0.249-3.211,0.064-5.491-1.271-8.187"/>
			<path style="fill:#26489C;" d="M424.924,129.869c-0.42,0.292-0.829,0.525-1.19,0.723c-2.473,1.342-5.46,1.797-8.178,1.062
				c0.257-0.875,0.396-1.785,0.396-2.718v-3.99c0.992,0.7,2.018,1.12,2.917,1.33c1.493,0.315,3.104,0.14,4.48-0.513
				c0.42-0.198,0.817-0.443,1.178-0.723v2.135C424.528,128.096,424.668,129.006,424.924,129.869z"/>
			<path style="fill:#26489C;" d="M396.365,455.089c-1.4,3.15-2.707,6.417-3.908,9.8c-12.262-21.945-6.813-57.12-6.813-57.12
				c3.104-26.227-1.283-67.562-1.913-73.267C387.953,365.303,392.351,416.578,396.365,455.089z"/>
			<rect x="513.549" y="383.165" style="fill:#FFFFFF;" width="18.914" height="20.847"/>
			<rect x="488.396" y="367.989" style="fill:none;stroke:#26489C;stroke-miterlimit:10;" width="18.914" height="36.022"/>
			<rect x="538.681" y="357.464" style="fill:none;stroke:#26489C;stroke-miterlimit:10;" width="18.914" height="46.547"/>
			<rect x="488.396" y="367.989" style="fill:#26489C;" width="18.914" height="36.022"/>
			<rect x="538.681" y="357.464" style="fill:#26489C;" width="18.914" height="46.547"/>
			<rect x="513.549" y="383.165" style="fill:none;stroke:#26489C;stroke-miterlimit:10;" width="18.914" height="20.847"/>
			<rect x="481.035" y="414.01" style="fill:#FFFFFF;" width="89.295" height="138.039"/>
			<rect x="481.035" y="414.01" style="fill:none;stroke:#26489C;stroke-miterlimit:10;" width="89.295" height="138.039"/>
			<rect x="491.878" y="424.853" style="fill:none;stroke:#26489C;stroke-miterlimit:10;" width="67.61" height="91.592"/>
			<rect x="491.878" y="526.988" style="fill:none;stroke:#26489C;stroke-miterlimit:10;" width="67.61" height="14.218"/>
			<rect x="491.878" y="526.988" style="fill:#26489C;" width="67.61" height="14.218"/>
			<g>
				<g>
					<line style="fill:none;stroke:#26489C;stroke-miterlimit:10;" x1="519.713" y1="446.279" x2="520.668" y2="452.202"/>
					
						<line style="fill:none;stroke:#26489C;stroke-miterlimit:10;stroke-dasharray:13.1188,13.1188;" x1="522.757" y1="465.154" x2="525.89" y2="484.581"/>
					<line style="fill:none;stroke:#26489C;stroke-miterlimit:10;" x1="526.935" y1="491.056" x2="527.89" y2="496.98"/>
				</g>
			</g>
			<g>
				<g>
					<line style="fill:none;stroke:#26489C;stroke-miterlimit:10;" x1="536.34" y1="449.55" x2="535.996" y2="455.54"/>
					
						<line style="fill:none;stroke:#26489C;stroke-miterlimit:10;stroke-dasharray:11.8361,11.8361;" x1="535.317" y1="467.356" x2="534.298" y2="485.081"/>
					<line style="fill:none;stroke:#26489C;stroke-miterlimit:10;" x1="533.959" y1="490.99" x2="533.614" y2="496.98"/>
				</g>
			</g>
			<g>
				<g>
					<line style="fill:none;stroke:#26489C;stroke-miterlimit:10;" x1="551.06" y1="462.906" x2="549.011" y2="468.546"/>
					
						<line style="fill:none;stroke:#26489C;stroke-miterlimit:10;stroke-dasharray:8.0841,8.0841;" x1="546.251" y1="476.144" x2="542.11" y2="487.541"/>
					<line style="fill:none;stroke:#26489C;stroke-miterlimit:10;" x1="540.73" y1="491.34" x2="538.681" y2="496.98"/>
				</g>
			</g>
			<g>
				<g>
					<line style="fill:none;stroke:#26489C;stroke-miterlimit:10;" x1="503.085" y1="458.272" x2="505.676" y2="463.684"/>
					
						<line style="fill:none;stroke:#26489C;stroke-miterlimit:10;stroke-dasharray:10.3055,10.3055;" x1="510.127" y1="472.979" x2="516.804" y2="486.921"/>
					<line style="fill:none;stroke:#26489C;stroke-miterlimit:10;" x1="519.029" y1="491.568" x2="521.621" y2="496.98"/>
				</g>
			</g>
			<g>
				<g>
					<line style="fill:none;stroke:#26489C;stroke-miterlimit:10;" x1="516.382" y1="500.131" x2="511.63" y2="496.469"/>
					<line style="fill:none;stroke:#26489C;stroke-miterlimit:10;" x1="502.606" y1="489.514" x2="497.854" y2="485.852"/>
				</g>
			</g>
			<path style="fill:none;stroke:#26489C;stroke-miterlimit:10;" d="M525.015,516.301c-0.721-2.399-1.45-4.854-1.339-7.357
				c0.11-2.503,1.219-5.107,3.395-6.349c2.109-1.204,4.87-0.882,6.919,0.422s3.446,3.453,4.284,5.732
				c0.839,2.279,1.172,4.707,1.5,7.113"/>
			<path style="fill:#26489C;" d="M440.184,233.213c-11.013-13.825-13.592-33.973-6.242-50.062
				C433.803,192.858,433.943,221.861,440.184,233.213z"/>
		</g>
		<path style="fill:#26489C;" d="M416.77,492.668c-2.765,4.725-4.375,10.092-4.783,15.552c-5.18-12.845-9.567-25.293-12.413-36.342
			c0.233,0.163,0.49,0.35,0.747,0.56c2.812,2.263,4.713,7.852,7.035,10.768C410.131,486.706,413.293,489.879,416.77,492.668z"/>
		<g>
			<g>
				<path style="fill:#26489C;" d="M416.301,115.422c-0.056-0.632,0.521-1.127,1.134-1.18c0.613-0.054,1.267,0.337,1.318,0.971
					c-0.606-0.035-0.912,0-1.233,0.025C417.199,115.264,416.89,115.283,416.301,115.422z"/>
			</g>
			<g>
				<path style="fill:#26489C;" d="M421.736,115.418c-0.056-0.632,0.521-1.127,1.134-1.18c0.613-0.054,1.267,0.337,1.318,0.971
					c-0.606-0.035-0.912,0-1.233,0.025C422.634,115.26,422.325,115.279,421.736,115.418z"/>
			</g>
			<g>
				<path style="fill:#26489C;" d="M419.818,116.112c0.144,0.84,0.115,1.537,0.103,2.255c-0.019,0.182-0.007,0.298-0.001,0.331
					c-0.015,0.035,0.022,0.094,0.111,0.163c0.161,0.135,0.528,0.128,0.952,0.049c-0.157,0.38-0.544,0.77-1.144,0.708
					c-0.278-0.02-0.586-0.192-0.769-0.502c-0.163-0.313-0.143-0.593-0.148-0.786C418.967,117.531,419.206,116.717,419.818,116.112z"
					/>
			</g>
			<g>
				<path style="fill:#26489C;" d="M418.14,120.834c0.666-0.043,1.103-0.007,1.579,0.027c0.474,0.053,0.909,0.1,1.556,0.268
					c-0.363,0.581-1.039,0.776-1.65,0.727C419.016,121.788,418.389,121.47,418.14,120.834z"/>
			</g>
		</g>
	</g>
</g>
<g id="Layer_1">
</g>
</svg>
