<svg xmlns="http://www.w3.org/2000/svg" xmlns:xlink="http://www.w3.org/1999/xlink" viewBox="0 0 4500 2100"><defs><style>.cls-1{mask:url(#mask);filter:url(#luminosity-noclip-8);}.cls-10,.cls-12,.cls-14,.cls-16,.cls-2,.cls-23,.cls-25,.cls-27,.cls-39,.cls-4,.cls-46,.cls-48,.cls-6,.cls-60,.cls-64,.cls-79,.cls-8,.cls-84{mix-blend-mode:multiply;}.cls-2{fill:url(#linear-gradient);}.cls-3{mask:url(#mask-2);filter:url(#luminosity-noclip-13);}.cls-4{fill:url(#linear-gradient-2);}.cls-5{mask:url(#mask-3);filter:url(#luminosity-noclip-14);}.cls-6{fill:url(#linear-gradient-3);}.cls-7{mask:url(#mask-4);filter:url(#luminosity-noclip-9);}.cls-8{fill:url(#linear-gradient-4);}.cls-9{mask:url(#mask-5);filter:url(#luminosity-noclip-10);}.cls-10{fill:url(#linear-gradient-5);}.cls-11{mask:url(#mask-6);filter:url(#luminosity-noclip-11);}.cls-12{fill:url(#linear-gradient-6);}.cls-13{mask:url(#mask-7);filter:url(#luminosity-noclip-12);}.cls-14{fill:url(#linear-gradient-7);}.cls-15{isolation:isolate;}.cls-16{fill:#6d6e71;}.cls-17{fill:#231f20;}.cls-18{fill:#414042;}.cls-19{fill:#808285;}.cls-20,.cls-46{fill:#e6e7e8;}.cls-21{fill:#be1e2d;}.cls-22,.cls-28,.cls-47,.cls-56{fill:#fff;}.cls-22{opacity:0.5;}.cls-23,.cls-24{fill:#a7a9ac;}.cls-25{fill:#939598;}.cls-26{fill:url(#linear-gradient-8);}.cls-27,.cls-59{fill:#58595b;}.cls-28{opacity:0.7;}.cls-29{fill:url(#linear-gradient-9);}.cls-30{fill:url(#linear-gradient-10);}.cls-31{fill:url(#linear-gradient-11);}.cls-32{fill:url(#linear-gradient-12);}.cls-33{fill:url(#linear-gradient-13);}.cls-34{fill:url(#linear-gradient-14);}.cls-35{fill:url(#linear-gradient-15);}.cls-36{fill:#ffb72b;}.cls-37{fill:#ed1c24;}.cls-38{fill:#ffd480;}.cls-39,.cls-55{fill:#d1d3d4;}.cls-40{mask:url(#mask-8);}.cls-41{fill:url(#linear-gradient-16);}.cls-42{mask:url(#mask-9);}.cls-43,.cls-45,.cls-50,.cls-52{opacity:0.8;}.cls-43{fill:url(#linear-gradient-17);}.cls-44{mask:url(#mask-10);}.cls-45{fill:url(#linear-gradient-18);}.cls-47{opacity:0.3;}.cls-49{mask:url(#mask-11);}.cls-50{fill:url(#linear-gradient-19);}.cls-51{mask:url(#mask-12);}.cls-52{fill:url(#linear-gradient-20);}.cls-53{mask:url(#mask-13);}.cls-54{fill:url(#linear-gradient-21);}.cls-57{mask:url(#mask-14);}.cls-58{fill:url(#linear-gradient-22);}.cls-60,.cls-62{fill:#bcbec0;}.cls-61{fill:#00544f;}.cls-63{fill:#bf8920;}.cls-65{fill:#00a79d;}.cls-66{fill:#594a42;}.cls-67{fill:#001514;}.cls-68{fill:#9b8579;}.cls-69{fill:#c49a6c;}.cls-70{fill:#ffde17;}.cls-71{fill:#8b5e3c;}.cls-72{fill:#337672;}.cls-73{fill:#00201e;}.cls-74{fill:#3c2415;}.cls-75{fill:#dcc2a7;}.cls-76{fill:#6bd3ff;}.cls-77,.cls-79{fill:#d8e2ee;}.cls-78{fill:#27aae1;}.cls-80,.cls-84{fill:#fbb09e;}.cls-81{fill:#1c75bc;}.cls-82{fill:#262262;}.cls-83{fill:#603913;}.cls-85{fill:#fdd0c5;}.cls-86{fill:#f1f2f2;}.cls-87{fill:#fbcce8;}.cls-88{fill:#5b1322;}.cls-89{fill:#ef4136;}.cls-90{fill:#ffe3c3;}.cls-91{fill:#6b101a;}.cls-92{fill:#8f1622;}.cls-93{fill:#480b11;}.cls-94{fill:#b52644;}.cls-95{filter:url(#luminosity-noclip-7);}.cls-96{filter:url(#luminosity-noclip-6);}.cls-97{filter:url(#luminosity-noclip-5);}.cls-98{filter:url(#luminosity-noclip-4);}.cls-99{filter:url(#luminosity-noclip-3);}.cls-100{filter:url(#luminosity-noclip-2);}.cls-101{filter:url(#luminosity-noclip);}</style><filter id="luminosity-noclip" x="1700.41" y="-9242" width="2333.47" height="32766" filterUnits="userSpaceOnUse" color-interpolation-filters="sRGB"><feFlood flood-color="#fff" result="bg"/><feBlend in="SourceGraphic" in2="bg"/></filter><mask id="mask" x="1700.41" y="-9242" width="2333.47" height="32766" maskUnits="userSpaceOnUse"><g class="cls-101"/></mask><linearGradient id="linear-gradient" x1="346.02" y1="1348.09" x2="346.02" y2="1006.76" gradientTransform="matrix(-1, 0, 0, 1, 3213.17, 0)" gradientUnits="userSpaceOnUse"><stop offset="0" stop-color="#fff"/><stop offset="0.09" stop-color="#f4f4f4"/><stop offset="0.24" stop-color="#d5d5d5"/><stop offset="0.45" stop-color="#a4a4a4"/><stop offset="0.69" stop-color="#606060"/><stop offset="0.97" stop-color="#0a0a0a"/><stop offset="1"/></linearGradient><filter id="luminosity-noclip-2" x="2764.15" y="-9242" width="111.66" height="32766" filterUnits="userSpaceOnUse" color-interpolation-filters="sRGB"><feFlood flood-color="#fff" result="bg"/><feBlend in="SourceGraphic" in2="bg"/></filter><mask id="mask-2" x="2764.15" y="-9242" width="111.66" height="32766" maskUnits="userSpaceOnUse"><g class="cls-100"/></mask><linearGradient id="linear-gradient-2" x1="181.34" y1="1278.54" x2="181.34" y2="1224.09" gradientTransform="matrix(-1.07, -0.06, -0.06, 1, 3087.13, -28.24)" gradientUnits="userSpaceOnUse"><stop offset="0"/><stop offset="0.21" stop-color="#303030"/><stop offset="0.68" stop-color="#a9a9a9"/><stop offset="1" stop-color="#fff"/></linearGradient><filter id="luminosity-noclip-3" x="2590.06" y="-9242" width="111.66" height="32766" filterUnits="userSpaceOnUse" color-interpolation-filters="sRGB"><feFlood flood-color="#fff" result="bg"/><feBlend in="SourceGraphic" in2="bg"/></filter><mask id="mask-3" x="2590.06" y="-9242" width="111.66" height="32766" maskUnits="userSpaceOnUse"><g class="cls-99"/></mask><linearGradient id="linear-gradient-3" x1="343.83" y1="1278.1" x2="343.83" y2="1223.65" xlink:href="#linear-gradient-2"/><filter id="luminosity-noclip-4" x="3474.85" y="-9242" width="802.16" height="32766" filterUnits="userSpaceOnUse" color-interpolation-filters="sRGB"><feFlood flood-color="#fff" result="bg"/><feBlend in="SourceGraphic" in2="bg"/></filter><mask id="mask-4" x="3474.85" y="-9242" width="802.16" height="32766" maskUnits="userSpaceOnUse"><g class="cls-98"/></mask><linearGradient id="linear-gradient-4" x1="-1063.84" y1="1052.69" x2="-261.68" y2="1052.69" gradientTransform="matrix(-1, 0, 0, 1, 3213.17, 0)" gradientUnits="userSpaceOnUse"><stop offset="0"/><stop offset="0.01" stop-color="#060606"/><stop offset="0.18" stop-color="#474747"/><stop offset="0.34" stop-color="#7f7f7f"/><stop offset="0.49" stop-color="#adadad"/><stop offset="0.64" stop-color="#d1d1d1"/><stop offset="0.78" stop-color="#eaeaea"/><stop offset="0.9" stop-color="#fafafa"/><stop offset="1" stop-color="#fff"/></linearGradient><filter id="luminosity-noclip-5" x="2144.5" y="-9242" width="1198.11" height="32766" filterUnits="userSpaceOnUse" color-interpolation-filters="sRGB"><feFlood flood-color="#fff" result="bg"/><feBlend in="SourceGraphic" in2="bg"/></filter><mask id="mask-5" x="2144.5" y="-9242" width="1198.11" height="32766" maskUnits="userSpaceOnUse"><g class="cls-97"/></mask><linearGradient id="linear-gradient-5" x1="-129.43" y1="501.25" x2="1068.67" y2="501.25" gradientTransform="matrix(-1, 0, 0, 1, 3213.17, 0)" gradientUnits="userSpaceOnUse"><stop offset="0" stop-color="#fff"/><stop offset="0.1" stop-color="#fafafa"/><stop offset="0.22" stop-color="#eaeaea"/><stop offset="0.36" stop-color="#d1d1d1"/><stop offset="0.51" stop-color="#adadad"/><stop offset="0.66" stop-color="#7f7f7f"/><stop offset="0.82" stop-color="#474747"/><stop offset="0.99" stop-color="#060606"/><stop offset="1"/></linearGradient><filter id="luminosity-noclip-6" x="3405.74" y="-9242" width="436.19" height="32766" filterUnits="userSpaceOnUse" color-interpolation-filters="sRGB"><feFlood flood-color="#fff" result="bg"/><feBlend in="SourceGraphic" in2="bg"/></filter><mask id="mask-6" x="3405.74" y="-9242" width="436.19" height="32766" maskUnits="userSpaceOnUse"><g class="cls-96"/></mask><linearGradient id="linear-gradient-6" x1="-269.25" y1="1456.37" x2="164.97" y2="1414.74" gradientTransform="matrix(-1, 0.1, 0.1, 1, 3434.99, 93.11)" gradientUnits="userSpaceOnUse"><stop offset="0" stop-color="#fff"/><stop offset="0.15" stop-color="#c4c4c4"/><stop offset="0.32" stop-color="#898989"/><stop offset="0.49" stop-color="#585858"/><stop offset="0.64" stop-color="#323232"/><stop offset="0.78" stop-color="#161616"/><stop offset="0.91" stop-color="#060606"/><stop offset="1"/></linearGradient><filter id="luminosity-noclip-7" x="1795.82" y="-9242" width="433.91" height="32766" filterUnits="userSpaceOnUse" color-interpolation-filters="sRGB"><feFlood flood-color="#fff" result="bg"/><feBlend in="SourceGraphic" in2="bg"/></filter><mask id="mask-7" x="1795.82" y="-9242" width="433.91" height="32766" maskUnits="userSpaceOnUse"><g class="cls-95"/></mask><linearGradient id="linear-gradient-7" x1="1330.38" y1="1247.44" x2="1762.33" y2="1206.03" gradientTransform="matrix(-1, 0.1, 0.1, 1, 3434.99, 93.11)" gradientUnits="userSpaceOnUse"><stop offset="0" stop-color="#fff"/><stop offset="0.14" stop-color="#c9c9c9"/><stop offset="0.31" stop-color="#8d8d8d"/><stop offset="0.48" stop-color="#5a5a5a"/><stop offset="0.64" stop-color="#333"/><stop offset="0.78" stop-color="#171717"/><stop offset="0.91" stop-color="#060606"/><stop offset="1"/></linearGradient><linearGradient id="linear-gradient-8" x1="-399.88" y1="1771.27" x2="-399.88" y2="1588.56" gradientTransform="matrix(-1, 0, 0, 1, 3213.17, 0)" gradientUnits="userSpaceOnUse"><stop offset="0"/><stop offset="1" stop-color="#e6e7e8"/></linearGradient><linearGradient id="linear-gradient-9" x1="-399.93" y1="1766.94" x2="-399.93" y2="1593.56" gradientTransform="matrix(-1, 0, 0, 1, 3213.17, 0)" gradientUnits="userSpaceOnUse"><stop offset="0" stop-color="#e6e7e8"/><stop offset="1"/></linearGradient><linearGradient id="linear-gradient-10" x1="-386.72" y1="1711.59" x2="-386.72" y2="1654.34" xlink:href="#linear-gradient-8"/><linearGradient id="linear-gradient-11" x1="-381.8" y1="1703.76" x2="-381.8" y2="1662.5" xlink:href="#linear-gradient-9"/><linearGradient id="linear-gradient-12" x1="1215.39" y1="1702.12" x2="1215.39" y2="1519.41" xlink:href="#linear-gradient-8"/><linearGradient id="linear-gradient-13" x1="1215.34" y1="1697.79" x2="1215.34" y2="1524.41" xlink:href="#linear-gradient-9"/><linearGradient id="linear-gradient-14" x1="1228.55" y1="1642.44" x2="1228.55" y2="1585.19" xlink:href="#linear-gradient-8"/><linearGradient id="linear-gradient-15" x1="1233.47" y1="1634.6" x2="1233.47" y2="1593.34" xlink:href="#linear-gradient-9"/><filter id="luminosity-noclip-8" x="1700.41" y="1006.76" width="2333.47" height="341.33" filterUnits="userSpaceOnUse" color-interpolation-filters="sRGB"><feFlood flood-color="#fff" result="bg"/><feBlend in="SourceGraphic" in2="bg"/></filter><mask id="mask-8" x="1700.41" y="1006.76" width="2333.47" height="341.33" maskUnits="userSpaceOnUse"><g class="cls-1"><path class="cls-2" d="M1700.41,1091.26l2059.7,116c95.91,10.41,174.5,55.77,202,140.78,5.25-42.56,56.89-39.17,70.44-25.06,15.93-70.17-108.33-165.16-291.63-183.11,0,0-1922.26-135.84-1922.26-133.12C1751,1006.8,1717.51,1043,1700.41,1091.26Z"/></g></mask><linearGradient id="linear-gradient-16" x1="346.02" y1="1348.09" x2="346.02" y2="1006.76" gradientTransform="matrix(-1, 0, 0, 1, 3213.17, 0)" gradientUnits="userSpaceOnUse"><stop offset="0" stop-color="#fff"/><stop offset="1" stop-color="#fff"/></linearGradient><filter id="luminosity-noclip-9" x="3474.85" y="912.34" width="802.16" height="280.72" filterUnits="userSpaceOnUse" color-interpolation-filters="sRGB"><feFlood flood-color="#fff" result="bg"/><feBlend in="SourceGraphic" in2="bg"/></filter><mask id="mask-9" x="3474.85" y="912.34" width="802.16" height="280.72" maskUnits="userSpaceOnUse"><g class="cls-7"><path class="cls-8" d="M3476.88,968.61c-7.91-20.16,10.62-35.48,0-56.27h109.89c5.65,12.15,11,24.24,15.65,36.14,47.5,4.81,565.38,29.87,655.25,162,6.08,8.94,13,42.42,19.35,82.57h-70.61c8.22-31.18,15.29-55.41,9-61.48C4069.83,991.46,3591.8,968.61,3476.88,968.61Z"/></g></mask><linearGradient id="linear-gradient-17" x1="-1063.84" y1="1052.69" x2="-261.68" y2="1052.69" xlink:href="#linear-gradient-16"/><filter id="luminosity-noclip-10" x="2144.5" y="421.76" width="1198.11" height="158.99" filterUnits="userSpaceOnUse" color-interpolation-filters="sRGB"><feFlood flood-color="#fff" result="bg"/><feBlend in="SourceGraphic" in2="bg"/></filter><mask id="mask-10" x="2144.5" y="421.76" width="1198.11" height="158.99" maskUnits="userSpaceOnUse"><g class="cls-9"><path class="cls-10" d="M2180.6,457.69c122.08-33.16,599.23-63.93,986.34,7.56,45.51,8.4,109.62,52.56,175.67,115.5l-103.25-5.29c-56-49.23-130.91-77.57-170-84.79-338.76-62.56-746.48-46.81-924.85-19.68A226.27,226.27,0,0,1,2180.6,457.69Z"/></g></mask><linearGradient id="linear-gradient-18" x1="-129.43" y1="501.25" x2="1068.67" y2="501.25" xlink:href="#linear-gradient-16"/><filter id="luminosity-noclip-11" x="3405.74" y="1390.5" width="436.19" height="253.18" filterUnits="userSpaceOnUse" color-interpolation-filters="sRGB"><feFlood flood-color="#fff" result="bg"/><feBlend in="SourceGraphic" in2="bg"/></filter><mask id="mask-11" x="3405.74" y="1390.5" width="436.19" height="253.18" maskUnits="userSpaceOnUse"><g class="cls-11"><path class="cls-12" d="M3405.74,1614.41c4.38-116,86.21-212.53,195.29-223,119.86-11.49,227.2,85.33,239.75,216.25.72,7.54,1.08,15,1.15,22.43l-60.88,13.58c.13-6.49.12-28.8-.52-35.41a168.76,168.76,0,0,0-184.09-151.89c-84.45,8.1-146.57,95.7-150.66,178Z"/></g></mask><linearGradient id="linear-gradient-19" x1="-269.25" y1="1456.37" x2="164.97" y2="1414.74" gradientTransform="matrix(-1, 0.1, 0.1, 1, 3434.99, 93.11)" xlink:href="#linear-gradient-16"/><filter id="luminosity-noclip-12" x="1795.82" y="1343.41" width="433.91" height="236.62" filterUnits="userSpaceOnUse" color-interpolation-filters="sRGB"><feFlood flood-color="#fff" result="bg"/><feBlend in="SourceGraphic" in2="bg"/></filter><mask id="mask-12" x="1795.82" y="1343.41" width="433.91" height="236.62" maskUnits="userSpaceOnUse"><g class="cls-13"><path class="cls-14" d="M1795.82,1548.81c11.89-107.57,90.67-194.58,193.88-204.47,119.86-11.49,227.2,85.32,239.75,216.24.13,1.29.18,2.56.28,3.84L2165.94,1580c0-4.9-2-27.78-2.45-32.75a168.76,168.76,0,0,0-184.1-151.88c-82.78,7.93-144,92.88-150.33,173Z"/></g></mask><linearGradient id="linear-gradient-20" x1="1330.38" y1="1247.44" x2="1762.33" y2="1206.03" gradientTransform="matrix(-1, 0.1, 0.1, 1, 3434.99, 93.11)" xlink:href="#linear-gradient-16"/><filter id="luminosity-noclip-13" x="2764.15" y="1181.83" width="111.66" height="55.31" filterUnits="userSpaceOnUse" color-interpolation-filters="sRGB"><feFlood flood-color="#fff" result="bg"/><feBlend in="SourceGraphic" in2="bg"/></filter><mask id="mask-13" x="2764.15" y="1181.83" width="111.66" height="55.31" maskUnits="userSpaceOnUse"><g class="cls-3"><path class="cls-4" d="M2764.21,1194.56c-.68,11.53,3.77,38.43,55.37,42.24,49.39,3.64,55.54-23.08,56.22-34.62s-24.3-18-54.74-19.83S2764.89,1183,2764.21,1194.56Z"/></g></mask><linearGradient id="linear-gradient-21" x1="181.34" y1="1278.54" x2="181.34" y2="1224.09" gradientTransform="matrix(-1.07, -0.06, -0.06, 1, 3087.13, -28.24)" gradientUnits="userSpaceOnUse"><stop offset="0"/><stop offset="1"/></linearGradient><filter id="luminosity-noclip-14" x="2590.06" y="1171.15" width="111.66" height="55.31" filterUnits="userSpaceOnUse" color-interpolation-filters="sRGB"><feFlood flood-color="#fff" result="bg"/><feBlend in="SourceGraphic" in2="bg"/></filter><mask id="mask-14" x="2590.06" y="1171.15" width="111.66" height="55.31" maskUnits="userSpaceOnUse"><g class="cls-5"><path class="cls-6" d="M2590.12,1183.88c-.68,11.54,3.76,38.44,55.36,42.24,49.39,3.65,55.54-23.08,56.22-34.61s-24.29-18-54.73-19.83S2590.79,1172.35,2590.12,1183.88Z"/></g></mask><linearGradient id="linear-gradient-22" x1="343.83" y1="1278.1" x2="343.83" y2="1223.65" xlink:href="#linear-gradient-21"/></defs><g class="cls-15"><g id="virus"><path class="cls-16" d="M1638,1704.52c-.89,44.48,599,100.48,1340,125.08s1342.34,8.48,1343.23-36-274.9-93.21-1340-125.09C2240.25,1646.33,1638.91,1660,1638,1704.52Z"/><path class="cls-16" d="M2217.91,1704.22c22.18-20,55.53-32.79,92.93-32.79,37.22,0,70.42,12.65,92.61,32.47,175,.71,371,4.11,577.8,10.3,373.09,11.17,649.29,24.4,850.71,38.8,21.58-15,50.39-24.18,82.11-24.18,41.38,0,77.86,15.6,99.69,39.37,141.3,14,225,28.65,268.57,43.34-144.25,30.44-673.69,39-1304.33,18.07-607.72-20.17-1120.48-61.47-1284.77-100.22C1781.21,1714.74,1969.11,1706.21,2217.91,1704.22Z"/><path class="cls-17" d="M2376.49,1672.85l16.77-5.68a141,141,0,0,0,88.31-178.77h0a141,141,0,0,0-178.77-88.31l-16.77,5.68a141,141,0,0,0-88.31,178.77h0A141,141,0,0,0,2376.49,1672.85Z"/><path class="cls-18" d="M2286,1405.77l16.77-5.68a141,141,0,0,1,178.77,88.31h0A141.17,141.17,0,0,1,2486,1505a141.74,141.74,0,0,1-28.14,13.23l-54.55,18.48c-77.54,26.27-141-101.11-141-101.11h0l-.06-.17c-3.31-9.82,1.8-20.44,11.23-24.72Q2279.57,1408,2286,1405.77Z"/><ellipse cx="2306.93" cy="1547.55" rx="115.17" ry="131.82" transform="translate(-374.53 821.87) rotate(-18.71)"/><path class="cls-17" d="M3970.72,1730.87l16.77-5.68a141,141,0,0,0,88.31-178.77h0A141,141,0,0,0,3897,1458.11l-16.78,5.68a141,141,0,0,0-88.31,178.77h0A141,141,0,0,0,3970.72,1730.87Z"/><path class="cls-18" d="M3880.25,1463.79l16.78-5.68a141,141,0,0,1,178.77,88.31h0a143.14,143.14,0,0,1,4.42,16.62,141.18,141.18,0,0,1-28.14,13.23l-54.55,18.48c-77.55,26.27-141-101.11-141-101.11h0l-.05-.17c-3.31-9.82,1.8-20.44,11.23-24.72C3871.76,1466.91,3876,1465.25,3880.25,1463.79Z"/><ellipse cx="3901.16" cy="1605.57" rx="115.17" ry="131.82" transform="translate(-308.88 1336.37) rotate(-18.71)"/><path d="M2101.86,1591.49l1791,74.2c296.69,0,406.43-112.6,409.85-197.59l-242.86-122.27L1982,1260.1l-7.76,193A133.11,133.11,0,0,0,2101.86,1591.49Z"/><path d="M3781.05,1643.68s-44.05-61.07-142.54-61c-113.89.06-192.73,51.71-192.73,51.71l-64.22-67.2-1114.67-43.68L2165.94,1580s-27-78.51-131.11-80.46-205.77,68.84-205.77,68.84l-75.25-13.54c-28.42-3.68-36.58-20-41.83-48.18l-22.53-165.63,2166,47.93Z"/><ellipse cx="2203.22" cy="1518.1" rx="162.97" ry="125.18" transform="translate(-306.88 591.71) rotate(-14.31)"/><path class="cls-17" d="M3697,1800.16l16.77-5.68a141,141,0,0,0,88.31-178.77h0a141,141,0,0,0-178.77-88.31l-16.77,5.68a141,141,0,0,0-88.31,178.77h0A141,141,0,0,0,3697,1800.16Z"/><path class="cls-18" d="M3606.51,1533.08l16.77-5.68c73.75-25,150.39,89.44,137.2,124.21l-36.7,12.43c-77.55,26.27-141-101.1-141-101.1h0l-.05-.16c-3.31-9.82,1.8-20.44,11.23-24.73Q3600.05,1535.28,3606.51,1533.08Z"/><path class="cls-19" d="M3582.78,1562.93l-.05-.16A19.77,19.77,0,0,1,3593,1538.5a137.43,137.43,0,0,1,13.54-5.42l16.77-5.68a65.58,65.58,0,0,1,15-3.19c8.5-.79,37.63,10.21,36.5,24.15-1.28,15.86-53.13-13.84-62.14,16.11-6.32,21-19.83,18.2-29.73-1.36a1.47,1.47,0,0,0-.08-.17Z"/><ellipse cx="3627.41" cy="1674.86" rx="115.17" ry="131.82" transform="translate(-345.58 1252.22) rotate(-18.71)"/><ellipse class="cls-20" cx="3612.6" cy="1679.88" rx="80.07" ry="91.65" transform="translate(-347.97 1247.72) rotate(-18.71)"/><ellipse class="cls-21" cx="3612.6" cy="1679.88" rx="72.82" ry="83.34" transform="translate(-347.97 1247.73) rotate(-18.71)"/><path class="cls-22" d="M3583.1,1602.06c-19.33,20.53-26.48,53.36-15.73,85.08,14.76,43.6,57.61,68.48,95.7,55.58.95-.32,1.83-.75,2.76-1.11a65.05,65.05,0,0,1-26.5,17.21c-38.09,12.9-80.93-12-95.7-55.58C3529.23,1660.73,3546.9,1616.21,3583.1,1602.06Z"/><path class="cls-23" d="M3611.86,1654.3c11-3.74,23.48,3.48,27.76,16.12s-2.66,48.9-14.32,49.07c-23,.34-25.79-24.6-30.08-37.25S3600.82,1658,3611.86,1654.3Z"/><path class="cls-24" d="M3620.21,1701l2.83-1a23.8,23.8,0,0,0,14.91-30.18h0a23.8,23.8,0,0,0-30.18-14.91l-2.83,1a23.8,23.8,0,0,0-14.91,30.18h0A23.81,23.81,0,0,0,3620.21,1701Z"/><ellipse class="cls-20" cx="3608.47" cy="1679.84" rx="19.44" ry="22.25" transform="translate(-348.17 1246.31) rotate(-18.71)"/><path class="cls-25" d="M3603.76,1650.19c-28.43,9.63-49.69,30-59.8,53.9-.1-.29-.23-.56-.33-.85-14.77-43.6,4.14-89.4,42.23-102.3,37.63-12.74,79.85,11.43,95.11,54C3658.87,1643.56,3630.92,1641,3603.76,1650.19Z"/><path class="cls-26" d="M3532.18,1682.4c4.7,49.56,43.56,88.56,86.82,88.87,43.09.31,76.79-37.89,75.35-87.08-1.49-51.23-40.24-94.92-86.67-95.62C3561.08,1587.87,3527.28,1630.77,3532.18,1682.4Z"/><path class="cls-27" d="M3573.94,1687.09c1.32,17.87,15.2,32.29,31,32.44s27.86-14,27-31.81c-.91-18.09-14.78-33.11-31-33.31S3572.6,1669,3573.94,1687.09Z"/><path class="cls-28" d="M3612.31,1663.19c-36-.43-65.48,16-76.14,39.4a105.23,105.23,0,0,1-4-20.19c-4.9-51.63,28.9-94.53,75.5-93.83,46.43.7,85.18,44.39,86.67,95.62a99.15,99.15,0,0,1-1.46,20C3679.47,1680.71,3648.23,1663.62,3612.31,1663.19Z"/><path d="M3585.08,1616.49c.41,5.78,11.61,10.6,25,10.78s24-4.33,23.66-10.1-11.47-10.67-25-10.86S3584.66,1610.68,3585.08,1616.49Z"/><path d="M3648.83,1627.11c-4.17,2.8-1.64,15.85,5.58,29s16.19,21.27,20.3,18.56,1.79-15.43-5.29-28.55S3653,1624.3,3648.83,1627.11Z"/><path d="M3675.4,1693.2c-4.3-2.76-12.62,5.16-18.54,17.6s-7.12,24.38-2.87,27,12.41-5,18.31-17.23S3679.68,1696,3675.4,1693.2Z"/><path d="M3640.51,1746.56c-.27-5.22-10.85-9.55-23.64-9.66s-22.89,4-22.51,9.28,11,9.49,23.68,9.59S3640.78,1751.76,3640.51,1746.56Z"/><path d="M3575.08,1737.2c3.37-2.6,1-14.73-5.35-27.22s-14.45-20.77-17.87-18.08-.87,15.11,5.6,27.64S3571.72,1739.79,3575.08,1737.2Z"/><path d="M3550.48,1673.27c3.84,2.82,10.78-5.28,15.54-18.19s5.61-26.09,1.72-29-11,5.44-15.74,18.59S3546.63,1670.44,3550.48,1673.27Z"/><path class="cls-29" d="M3536.34,1682.45c4.39,47.07,41.27,84.19,82.39,84.49s73-36.06,71.52-82.79c-1.5-48.58-38.28-89.92-82.26-90.58C3563.85,1592.91,3531.78,1633.51,3536.34,1682.45Zm6.37.07c-4.06-44.83,25.38-81.91,65.76-81.32s74,38.35,75.49,82.88c1.43,43-27.93,76.48-65.64,76.19S3546.63,1725.78,3542.71,1682.52Z"/><path class="cls-30" d="M3574.48,1683c1.14,15.72,13.32,28.43,27.22,28.57s24.47-12.32,23.66-28c-.82-15.89-13-29.06-27.21-29.24S3573.33,1667.09,3574.48,1683Z"/><path class="cls-31" d="M3576.65,1683.1c.79,11.35,9.57,20.56,19.62,20.66s17.67-8.93,17.05-20.26-9.4-20.88-19.61-21S3575.85,1671.64,3576.65,1683.1Z"/><path class="cls-17" d="M2081.7,1731l16.77-5.68a141,141,0,0,0,88.31-178.77h0A141,141,0,0,0,2008,1458.25l-16.77,5.68a141,141,0,0,0-88.31,178.77h0A141,141,0,0,0,2081.7,1731Z"/><path class="cls-18" d="M1991.23,1463.93l16.77-5.68c73.76-25,150.4,89.43,137.21,124.2l-36.7,12.44c-77.55,26.27-141-101.11-141-101.11h0l0-.17c-3.31-9.82,1.79-20.44,11.23-24.72Q1984.77,1466.13,1991.23,1463.93Z"/><path class="cls-19" d="M1967.51,1493.78l0-.17a19.78,19.78,0,0,1,10.24-24.27,137.2,137.2,0,0,1,13.53-5.41l16.77-5.68a65.24,65.24,0,0,1,15-3.19c8.5-.79,37.63,10.21,36.5,24.15-1.29,15.86-53.13-13.85-62.15,16.11-6.32,21-19.82,18.2-29.72-1.36l-.09-.18Z"/><ellipse cx="2012.14" cy="1605.71" rx="115.17" ry="131.82" transform="translate(-408.77 730.37) rotate(-18.71)"/><ellipse class="cls-20" cx="1997.32" cy="1610.73" rx="80.07" ry="91.65" transform="translate(-411.16 725.89) rotate(-18.71)"/><ellipse class="cls-21" cx="1997.32" cy="1610.73" rx="72.82" ry="83.34" transform="translate(-411.16 725.88) rotate(-18.71)"/><path class="cls-22" d="M1967.83,1532.9c-19.33,20.54-26.48,53.36-15.73,85.09,14.76,43.59,57.61,68.48,95.7,55.57,1-.32,1.83-.75,2.76-1.11a65,65,0,0,1-26.5,17.21c-38.09,12.9-80.94-12-95.7-55.57C1914,1591.58,1931.63,1547.06,1967.83,1532.9Z"/><path class="cls-23" d="M1996.59,1585.14c11.05-3.74,23.48,3.48,27.76,16.13s-2.66,48.89-14.32,49.07c-23,.33-25.8-24.61-30.08-37.25S1985.55,1588.89,1996.59,1585.14Z"/><path class="cls-24" d="M2004.94,1631.84l2.83-1a23.79,23.79,0,0,0,14.91-30.18h0a23.8,23.8,0,0,0-30.18-14.9l-2.83,1a23.79,23.79,0,0,0-14.91,30.18h0A23.8,23.8,0,0,0,2004.94,1631.84Z"/><ellipse class="cls-20" cx="1993.2" cy="1610.69" rx="19.44" ry="22.25" transform="translate(-411.38 724.58) rotate(-18.71)"/><path class="cls-25" d="M1988.48,1581c-28.43,9.63-49.69,30-59.79,53.89-.1-.29-.23-.55-.33-.84-14.77-43.6,4.14-89.4,42.23-102.3,37.63-12.75,79.85,11.42,95.11,54C2043.59,1574.41,2015.65,1571.84,1988.48,1581Z"/><path class="cls-32" d="M1916.91,1613.25c4.7,49.56,43.56,88.55,86.82,88.87,43.09.31,76.79-37.9,75.35-87.08-1.49-51.24-40.25-94.92-86.67-95.62C1945.8,1518.71,1912,1561.61,1916.91,1613.25Z"/><path class="cls-27" d="M1958.67,1617.93c1.31,17.88,15.2,32.3,31,32.45s27.85-14,27-31.82c-.91-18.09-14.78-33.11-31-33.3S1957.33,1599.8,1958.67,1617.93Z"/><path class="cls-28" d="M1997,1594c-36-.43-65.47,16-76.14,39.4a106,106,0,0,1-4-20.19c-4.9-51.64,28.89-94.54,75.5-93.83,46.42.7,85.18,44.39,86.67,95.62a99.83,99.83,0,0,1-1.46,20C2064.2,1611.55,2033,1594.46,1997,1594Z"/><path d="M1969.81,1547.34c.41,5.78,11.61,10.59,25,10.77s24-4.33,23.66-10.1-11.47-10.66-25-10.86S1969.39,1541.53,1969.81,1547.34Z"/><path d="M2033.56,1558c-4.17,2.81-1.64,15.85,5.58,29s16.19,21.28,20.3,18.57,1.78-15.44-5.29-28.55C2047,1563.72,2037.74,1555.14,2033.56,1558Z"/><path d="M2060.12,1624.05c-4.29-2.77-12.61,5.16-18.53,17.6s-7.12,24.38-2.87,27,12.4-5,18.31-17.24S2064.41,1626.8,2060.12,1624.05Z"/><path d="M2025.24,1677.41c-.28-5.22-10.85-9.56-23.64-9.67s-22.89,4.06-22.51,9.28,11,9.49,23.68,9.59S2025.51,1682.6,2025.24,1677.41Z"/><path d="M1959.81,1668c3.37-2.59,1-14.73-5.35-27.21s-14.46-20.78-17.87-18.09-.87,15.12,5.6,27.64S1956.44,1670.63,1959.81,1668Z"/><path d="M1935.21,1604.12c3.84,2.81,10.78-5.28,15.54-18.2s5.61-26.08,1.72-29-11,5.43-15.74,18.59S1931.35,1601.29,1935.21,1604.12Z"/><path class="cls-33" d="M1921.07,1613.3c4.38,47.07,41.27,84.18,82.39,84.49s73-36.06,71.52-82.8c-1.5-48.58-38.28-89.92-82.26-90.57C1948.58,1523.76,1916.5,1564.35,1921.07,1613.3Zm6.37.07c-4.06-44.83,25.37-81.91,65.75-81.32s74,38.35,75.5,82.87c1.43,43-27.93,76.49-65.64,76.2S1931.36,1656.62,1927.44,1613.37Z"/><path class="cls-34" d="M1959.21,1613.87c1.13,15.72,13.32,28.43,27.22,28.57s24.46-12.33,23.65-28c-.82-15.89-13-29.06-27.2-29.24S1958.06,1597.94,1959.21,1613.87Z"/><path class="cls-35" d="M1961.38,1613.94c.78,11.35,9.57,20.56,19.62,20.66s17.67-8.92,17-20.25-9.4-20.89-19.61-21S1960.58,1602.49,1961.38,1613.94Z"/><path class="cls-36" d="M1818.62,1006.8c0-68.49,141.57-489.25,362-549.11,122.08-33.16,599.23-63.93,986.34,7.56,116.32,21.48,354.17,276,435.48,483.23,47.5,4.81,565.38,29.87,655.25,162,16.4,24.12,39,226.8,39.75,257.76l36.7,26.39s11.23,142.18-34.55,170.69c-85.15,53-425.23,62.73-457.66,63.94,0,.28,0,.56,0,.84l-60.88,13.58c.13-6.48.12-28.8-.52-35.41a168.76,168.76,0,0,0-184.09-151.89c-84.45,8.1-146.57,95.7-150.66,178l-40-20-1176-50h0L2165.94,1580c0-4.9-2-27.79-2.45-32.75a168.76,168.76,0,0,0-184.1-151.88c-82.78,7.93-144,92.88-150.33,173l-33.24-19.59-92.88-6.68c-55.58-5-57.5-204.11-46.72-207.75C1715.1,1314.53,1621.17,1006.8,1818.62,1006.8Z"/><path d="M1674.73,1311.9c-10-48.56-9.47-99,10.67-148.64,21.28,19,42.72,71.46,40.18,161C1725.58,1324.28,1675,1313.26,1674.73,1311.9Z"/><path class="cls-21" d="M1684.12,1166.37c18.15,17.09,36.42,61.79,37.65,136.66.08,4.88-4.92,8.61-10.26,7.71l-38.56-6.49C1665.14,1259.05,1666.48,1212.39,1684.12,1166.37Z"/><path class="cls-37" d="M1670.43,1286.91c-3.93-33.4-2.42-67.44,7.28-101.29C1694.69,1190.85,1724.1,1291.84,1670.43,1286.91Z"/><path class="cls-38" d="M4151.28,1443.83l56.46-12.52c-.79-31-30.28-253.88-51.12-274.3-134.27-131.63-740.31-137.41-787.81-142.22-81.32-207.24-295.24-467.87-427.88-495.08-278.86-57.22-644.81-45.4-834.06-27.47,23.44-15.65,48-27.58,73.73-34.55,122.08-33.16,599.23-63.93,986.34,7.56,116.32,21.48,354.17,276,435.48,483.23,47.5,4.81,565.38,29.87,655.25,162,16.4,24.12,39,226.8,39.75,257.76l36.7,26.39s11.23,142.18-34.55,170.69c-39.13,24.37-132.11,39.58-224.32,49,26.42-17,33.54-35.17,31.86-51.4C4102.46,1518.08,4117.26,1473.44,4151.28,1443.83Z"/><path class="cls-39" d="M4095.26,1242.79c0-37.44-10.73-93.26-150.69-139.66-178.23-59.08-375.89-62-553-69.7-4.14,8.9-12.44,39.5,31.66,40.93C4075.86,1095.46,4095.26,1242.79,4095.26,1242.79Z"/><g class="cls-40"><path class="cls-41" d="M1700.41,1091.26l2059.7,116c95.91,10.41,174.5,55.77,202,140.78,5.25-42.56,56.89-39.17,70.44-25.06,15.93-70.17-108.33-165.16-291.63-183.11,0,0-1922.26-135.84-1922.26-133.12C1751,1006.8,1717.51,1043,1700.41,1091.26Z"/></g><g class="cls-42"><path class="cls-43" d="M3476.88,968.61c-7.91-20.16,10.62-35.48,0-56.27h109.89c5.65,12.15,11,24.24,15.65,36.14,47.5,4.81,565.38,29.87,655.25,162,6.08,8.94,13,42.42,19.35,82.57h-70.61c8.22-31.18,15.29-55.41,9-61.48C4069.83,991.46,3591.8,968.61,3476.88,968.61Z"/></g><g class="cls-44"><path class="cls-45" d="M2180.6,457.69c122.08-33.16,599.23-63.93,986.34,7.56,45.51,8.4,109.62,52.56,175.67,115.5l-103.25-5.29c-56-49.23-130.91-77.57-170-84.79-338.76-62.56-746.48-46.81-924.85-19.68A226.27,226.27,0,0,1,2180.6,457.69Z"/></g><path class="cls-38" d="M4025,1408.69c45.06-3.4,62.85-4.85,95.26-8.77,16.28,4.14,33.07,20,26.84,31.39-31.95,3.1-78.8,10.4-119.42,11.56-100.43,2.89-280.37-38.35-280.37-38.35S3915.15,1417,4025,1408.69Z"/><path class="cls-38" d="M3405.18,1513.66,2202,1434.79S2579.36,1544.43,3405.18,1513.66Z"/><path class="cls-38" d="M1655.21,1335.38a2.15,2.15,0,0,1,1-1c8.88-3,14.27-12.61,17.72-26.68,62,23.82,200.73,43.47,200.73,43.47S1738.58,1348.68,1655.21,1335.38Z"/><path class="cls-46" d="M1887.94,789c-44.69,99.37-69.32,189.2-69.32,217.76.06-1.6,666.09,44.81,1214.05,83.27-73-123.32-428.62-244.88-865-286.65C2070.48,794.11,1976.46,789.48,1887.94,789Zm-69.32,217.76h0Z"/><path class="cls-27" d="M3171.94,531.47a323.86,323.86,0,0,1-73.47,12.85c-30.06,1.72-99.17-54.37-96.34-64.93C3009.75,450.9,3171.94,531.47,3171.94,531.47Z"/><path class="cls-36" d="M3002.13,479.39c68.71,21.84,98.48,59.43,147.21,55.74s86-32.36,83.28-64-44.44-54.36-93.17-50.67S2999.4,447.71,3002.13,479.39Z"/><path class="cls-39" d="M3019.27,454.74a72.87,72.87,0,0,1,12.63,2.69c59.93,21.07,119.87,60.21,185.33,50-15,14.82-39.44,25.53-67.89,27.68-48.73,3.69-78.5-33.9-147.21-55.74C3001.36,470.44,3008.1,462.13,3019.27,454.74Z"/><path class="cls-47" d="M3229.42,458.85c-59.33-33.57-133.22,4.14-196.92-11.52,30.4-14.71,76.82-24.61,106.95-26.9C3181.62,417.24,3218.47,433.81,3229.42,458.85Z"/><path d="M3072.94,484.18c0,27.41,52.94,41.63,95.11,41.63,29.19,0,59.45-25.84,57.1-53.16s-25.45-41.55-59.75-41.55C3123.23,431.1,3072.94,470.05,3072.94,484.18Z"/><path class="cls-36" d="M3119.79,463.48l-7.24.65c-1.13.1-2.24-1-2.48-2.55h0c-.23-1.51.5-2.81,1.63-2.91l23.3-2c1.11-.1,2.2,1,2.43,2.52h0c.24,1.48-.47,2.77-1.57,2.87l-7.18.64c-1.12.1-1.83,1.39-1.6,2.89l6.09,38.7c.23,1.51-.48,2.84-1.6,3l-.77.09c-1.12.12-2.23-1-2.47-2.52l-6.08-38.8C3122,464.51,3120.92,463.38,3119.79,463.48Z"/><path class="cls-36" d="M3148.08,491.5l-1,12.11a2.05,2.05,0,0,1-1.6,2.08l-.63.07c-1.37.15-2.63-1.58-2.46-3.39l4.08-44.87a2,2,0,0,1,1.58-2l2.73-.24a2.35,2.35,0,0,1,2.16,1.65l17.83,42.31c.71,1.7.07,3.61-1.27,3.76l-.78.09a2.28,2.28,0,0,1-2.15-1.62L3161.76,490a2.31,2.31,0,0,0-2.15-1.63l-9.94,1A2,2,0,0,0,3148.08,491.5Zm8.47-7.79c1.36-.14,2-2,1.3-3.75l-4.35-10.24c-1.32-3.11-2.31-6-3.3-8.73h-.1c-.09,2.87-.14,6-.41,9l-1,10.88c-.16,1.79,1.09,3.51,2.45,3.37Z"/><path class="cls-36" d="M3197,500a2.05,2.05,0,0,1-1.86-1.13l-5.47-8.93c-2.48-3.89-4-6.43-5.54-9.11H3184c-.53,2.89-1.14,5.58-2.22,10l-2.17,9.67a1.84,1.84,0,0,1-1.47,1.58l-.66.07c-1.51.17-2.81-2-2.32-3.87l5.29-20a3.59,3.59,0,0,0-.44-2.72l-11-17.73c-1.05-1.7-.48-4,1-4.15l.75-.06a2.14,2.14,0,0,1,1.9,1.2l5.7,9.57c1.81,3,3.2,5.36,4.55,7.84l.16,0c.51-3,1-5.24,1.82-8.42l2.51-10.28a1.75,1.75,0,0,1,1.43-1.46l.66-.05c1.49-.13,2.77,2.05,2.27,3.86l-5.16,18.67a3.64,3.64,0,0,0,.44,2.77l11.62,18.42c1.06,1.68.52,4-1,4.2Z"/><path class="cls-36" d="M3203.12,453.4l7,42.39c.25,1.46-.4,2.73-1.44,2.84l-.71.08c-1,.12-2.07-1-2.31-2.42l-7-42.49c-.24-1.44.41-2.68,1.44-2.77l.71-.07C3201.85,450.87,3202.88,452,3203.12,453.4Z"/><g class="cls-48"><polygon class="cls-18" points="3563.91 1335.92 3613.99 1338.73 3613.99 1288.65 3563.91 1285.84 3563.91 1335.92"/><polygon class="cls-18" points="3513.83 1383.19 3563.91 1386 3563.91 1335.92 3513.83 1333.11 3513.83 1383.19"/><polygon class="cls-18" points="3463.75 1330.3 3513.83 1333.11 3513.83 1283.03 3463.75 1280.21 3463.75 1330.3"/><polygon class="cls-18" points="3413.67 1377.57 3463.75 1380.38 3463.75 1330.3 3413.67 1327.48 3413.67 1377.57"/><polygon class="cls-18" points="3363.59 1324.67 3413.67 1327.48 3413.67 1277.4 3363.59 1274.59 3363.59 1324.67"/><polygon class="cls-18" points="3313.51 1371.94 3363.59 1374.76 3363.59 1324.67 3313.51 1321.86 3313.51 1371.94"/><polygon class="cls-18" points="3263.43 1319.05 3313.51 1321.86 3313.51 1271.78 3263.43 1268.97 3263.43 1319.05"/><polygon class="cls-18" points="3213.34 1366.32 3263.43 1369.13 3263.43 1319.05 3213.34 1316.24 3213.34 1366.32"/><polygon class="cls-18" points="3163.26 1313.43 3213.34 1316.24 3213.34 1266.16 3163.26 1263.35 3163.26 1313.43"/><polygon class="cls-18" points="3113.18 1360.7 3163.26 1363.51 3163.26 1313.43 3113.18 1310.62 3113.18 1360.7"/><polygon class="cls-18" points="3063.1 1307.81 3113.18 1310.62 3113.18 1260.54 3063.1 1257.73 3063.1 1307.81"/><polygon class="cls-18" points="3013.02 1355.08 3063.1 1357.89 3063.1 1307.81 3013.02 1305 3013.02 1355.08"/><polygon class="cls-18" points="2962.94 1302.19 3013.02 1305 3013.02 1254.92 2962.94 1252.11 2962.94 1302.19"/><polygon class="cls-18" points="2912.86 1349.46 2962.94 1352.27 2962.94 1302.19 2912.86 1299.38 2912.86 1349.46"/><polygon class="cls-18" points="2862.78 1296.57 2912.86 1299.38 2912.86 1249.3 2862.78 1246.49 2862.78 1296.57"/><polygon class="cls-18" points="2812.7 1343.84 2862.78 1346.65 2862.78 1296.57 2812.7 1293.76 2812.7 1343.84"/><polygon class="cls-18" points="2762.62 1290.95 2812.7 1293.76 2812.7 1243.67 2762.62 1240.87 2762.62 1290.95"/><polygon class="cls-18" points="2712.53 1338.22 2762.62 1341.03 2762.62 1290.95 2712.53 1288.13 2712.53 1338.22"/><polygon class="cls-18" points="2662.45 1285.32 2712.53 1288.13 2712.53 1238.05 2662.45 1235.24 2662.45 1285.32"/><polygon class="cls-18" points="2612.37 1332.6 2662.45 1335.4 2662.45 1285.32 2612.37 1282.51 2612.37 1332.6"/><polygon class="cls-18" points="2562.29 1279.7 2612.37 1282.51 2612.37 1232.43 2562.29 1229.62 2562.29 1279.7"/><polygon class="cls-18" points="2512.21 1326.97 2562.29 1329.78 2562.29 1279.7 2512.21 1276.89 2512.21 1326.97"/><polygon class="cls-18" points="2462.13 1274.08 2512.21 1276.89 2512.21 1226.81 2462.13 1224 2462.13 1274.08"/><polygon class="cls-18" points="2412.05 1321.35 2462.13 1324.16 2462.13 1274.08 2412.05 1271.27 2412.05 1321.35"/><polygon class="cls-18" points="2361.97 1268.46 2412.05 1271.27 2412.05 1221.19 2361.97 1218.38 2361.97 1268.46"/><polygon class="cls-18" points="2311.89 1315.73 2361.97 1318.54 2361.97 1268.46 2311.89 1265.65 2311.89 1315.73"/><polygon class="cls-18" points="2261.81 1262.84 2311.89 1265.65 2311.89 1215.57 2261.81 1212.76 2261.81 1262.84"/><polygon class="cls-18" points="2211.72 1310.11 2261.81 1312.92 2261.81 1262.84 2211.72 1260.03 2211.72 1310.11"/><polygon class="cls-18" points="2161.64 1257.22 2211.72 1260.03 2211.72 1209.95 2161.64 1207.14 2161.64 1257.22"/><polygon class="cls-18" points="2111.56 1304.49 2161.64 1307.3 2161.64 1257.22 2111.56 1254.41 2111.56 1304.49"/><polygon class="cls-18" points="2061.48 1251.6 2111.56 1254.41 2111.56 1204.33 2061.48 1201.52 2061.48 1251.6"/><polygon class="cls-18" points="2011.4 1298.87 2061.48 1301.68 2061.48 1251.6 2011.4 1248.79 2011.4 1298.87"/><polygon class="cls-18" points="1961.32 1245.97 2011.4 1248.79 2011.4 1198.7 1961.32 1195.89 1961.32 1245.97"/></g><g class="cls-49"><path class="cls-50" d="M3405.74,1614.41c4.38-116,86.21-212.53,195.29-223,119.86-11.49,227.2,85.33,239.75,216.25.72,7.54,1.08,15,1.15,22.43l-60.88,13.58c.13-6.49.12-28.8-.52-35.41a168.76,168.76,0,0,0-184.09-151.89c-84.45,8.1-146.57,95.7-150.66,178Z"/></g><g class="cls-51"><path class="cls-52" d="M1795.82,1548.81c11.89-107.57,90.67-194.58,193.88-204.47,119.86-11.49,227.2,85.32,239.75,216.24.13,1.29.18,2.56.28,3.84L2165.94,1580c0-4.9-2-27.78-2.45-32.75a168.76,168.76,0,0,0-184.1-151.88c-82.78,7.93-144,92.88-150.33,173Z"/></g><path class="cls-23" d="M3505.19,1426.57c-58.16,40.07-96.49,109.51-99.45,187.84h0l-22.32-.8C3390.85,1531.58,3437.77,1460.89,3505.19,1426.57Z"/><path class="cls-23" d="M1795.82,1548.81h0l-19.67-1.64c12.33-68.59,52-127.17,107.38-160.1C1835.64,1424.54,1803.12,1482.78,1795.82,1548.81Z"/><g class="cls-53"><path class="cls-54" d="M2764.21,1194.56c-.68,11.53,3.77,38.43,55.37,42.24,49.39,3.64,55.54-23.08,56.22-34.62s-24.3-18-54.74-19.83S2764.89,1183,2764.21,1194.56Z"/></g><path class="cls-55" d="M2758.5,1169.56h124.71a0,0,0,0,1,0,0v23.3a9.25,9.25,0,0,1-9.25,9.25H2767.75a9.25,9.25,0,0,1-9.25-9.25v-23.3A0,0,0,0,1,2758.5,1169.56Z" transform="translate(5567.23 2535.23) rotate(-176.63)"/><path class="cls-56" d="M2876.51,1190.15c.39-6.66-5.09-12.4-12.24-12.82l-98.61-5.8a13.64,13.64,0,0,0-4.72.54,13.17,13.17,0,0,1,11.57-5.38l98.61,5.8c7.15.42,12.62,6.16,12.23,12.82l-1.2,20.43-6.54-.39Z"/><g class="cls-57"><path class="cls-58" d="M2590.12,1183.88c-.68,11.54,3.76,38.44,55.36,42.24,49.39,3.65,55.54-23.08,56.22-34.61s-24.29-18-54.73-19.83S2590.79,1172.35,2590.12,1183.88Z"/></g><path class="cls-55" d="M2584.4,1158.89h124.72a0,0,0,0,1,0,0v23.3a9.25,9.25,0,0,1-9.25,9.25H2593.65a9.25,9.25,0,0,1-9.25-9.25v-23.3A0,0,0,0,1,2584.4,1158.89Z" transform="translate(5219.96 2503.68) rotate(-176.63)"/><path class="cls-56" d="M2702.41,1179.47c.39-6.66-5.09-12.4-12.24-12.82l-98.6-5.8a13.64,13.64,0,0,0-4.72.55,13.15,13.15,0,0,1,11.56-5.39l98.61,5.8c7.15.42,12.63,6.16,12.24,12.82l-1.2,20.43-6.54-.38Z"/><ellipse cx="4040.25" cy="1280.11" rx="45.6" ry="78.18" transform="translate(-184.63 944.42) rotate(-13.04)"/><ellipse class="cls-55" cx="4036.99" cy="1280.86" rx="39.75" ry="73.53" transform="translate(-184.88 943.69) rotate(-13.04)"/><path class="cls-59" d="M4038.32,1346.28c21.39-5,31.3-41,22.14-80.6-6-25.94-18.73-46.86-32.8-56.85,19.46,1.9,39.92,27.91,48.06,63.06,9.16,39.57-.75,75.65-22.14,80.6-7.37,1.71-15.12-.58-22.51-5.82A22.33,22.33,0,0,0,4038.32,1346.28Z"/><path class="cls-60" d="M4053.36,1321.32c11.61-2.69,20.46-12.44,25.6-26.13,1.41,29.55-8.31,53.35-25.38,57.3-21.39,5-46.15-23.1-55.31-62.66a132.32,132.32,0,0,1-3.09-20.48C4006.18,1303.73,4030.93,1326.52,4053.36,1321.32Z"/><path class="cls-56" d="M4013.35,1256.84c4.06,17.53,15,30,24.51,27.77s13.87-18.19,9.81-35.72-15-30-24.51-27.77S4009.29,1239.3,4013.35,1256.84Z"/><path d="M2238.67,1121.68v455.54a1.6,1.6,0,0,0,1.52,1.59l1098.69,48.24h.06a1.59,1.59,0,0,0,1.59-1.59V1183.39c0-38.83,35.12-67.72,35.47-68a1.6,1.6,0,0,0,.59-1.37l-8.86-102.52a1.59,1.59,0,1,0-3.16.27l8.79,101.71c-4.93,4.26-36,32.57-36,69.92v440.43l-603.05-26.49V1149.38c0-47.39,18.82-77.83,19-78.13a1.64,1.64,0,0,0,.24-.86l-2.12-549.23c84.14,7.68,159.78,17.92,207.73,30.35a196.69,196.69,0,0,1,40,15.28l51.44,26.3a1.59,1.59,0,0,0,1.45-2.83L3000.61,564A200.19,200.19,0,0,0,2960,548.44c-149.44-38.76-567.39-56.28-675.52-41.15a1.6,1.6,0,0,0-1.37,1.5l-22.24,526.91C2257.71,1039.35,2238.67,1064,2238.67,1121.68Zm3.18,0c0-60.15,21.5-84,21.71-84.27a1.62,1.62,0,0,0,.43-1l22.21-526.15c74-9.95,286.06-5.27,462.07,10.62l2.12,549.09c-2.26,3.82-19.25,34.06-19.25,79.42v447.81l-489.29-21.49Z"/><path class="cls-61" d="M3310.33,1031.67c-25.8-98.15-219-382.45-346.69-433a22.8,22.8,0,0,0-4.52-1.26c-11.91-2.08-68.67-11.75-152.17-21.81A22.43,22.43,0,0,0,2781.86,598l1.58,407.54a22.4,22.4,0,0,0,20.95,22.28l482.71,31.62C3302.24,1060.41,3314.19,1046.34,3310.33,1031.67ZM2698,564.09c-106.21-9.69-233.94-16.73-362.63-13a22.4,22.4,0,0,0-21.66,21.48l-17,400a22.41,22.41,0,0,0,20.93,23.31l378.44,24.8A22.43,22.43,0,0,0,2720,998.24l-1.59-411.91A22.42,22.42,0,0,0,2698,564.09ZM1915.84,969.58l293.76,19.24a22.4,22.4,0,0,0,23.86-21.41l16.42-386.91a22.45,22.45,0,0,0-24.38-23.29c-38.49,3.2-76.53,7.6-113.56,13.43-62.38,9.82-174.77,193-223.23,361.27C1883.49,950,1896.62,968.29,1915.84,969.58Z"/><path class="cls-22" d="M2806.94,575.62c83.65,10.08,140.46,19.76,152.24,21.82a22.16,22.16,0,0,1,4.37,1.22c84.67,33.44,198.24,169.84,272.65,286.55-4.57,5.46-31.13,17.33-45.15,66.25-75.77-40.69-168.57-75.87-253.51-93.45q-77.51-17.65-154.8-32.92L2781.86,598A22.42,22.42,0,0,1,2806.94,575.62Z"/><path class="cls-22" d="M2335.37,551.14c128.69-3.78,256.42,3.26,362.63,13a22.42,22.42,0,0,1,20.39,22.24l.87,226.69C2580.83,787.66,2443,769,2305.78,759.33l7.93-186.71A22.4,22.4,0,0,1,2335.37,551.14Z"/><path class="cls-22" d="M1959.28,755.76c51.3-100.18,112.39-178.78,152.66-185.12,37-5.83,75.07-10.23,113.57-13.43a22.45,22.45,0,0,1,24.37,23.29l-7.42,175A2715.37,2715.37,0,0,0,1959.28,755.76Z"/><path class="cls-62" d="M3310.32,1031.64c3.87,14.69-8.07,28.77-23.23,27.77l-62.8-4.11v-94c0-32,14.73-71.53,17.35-67.46C3280.9,954.87,3301.4,997.73,3310.32,1031.64Z"/><path class="cls-20" d="M3229,925.28c4.55-19.25,11-34,12.65-31.42,39.26,61,59.76,103.87,68.68,137.78a21.66,21.66,0,0,1-1.46,15.06C3297.56,1015.88,3273.3,977.64,3229,925.28Z"/><path d="M3286.89,1062.58h0L2804.18,1031a25.67,25.67,0,0,1-23.92-25.43L2778.69,598a25.6,25.6,0,0,1,28.63-25.51c84.16,10.14,141.67,20,152.35,21.84a26.28,26.28,0,0,1,5.14,1.43c127.45,50.45,321.91,333.6,348.59,435.12a24.92,24.92,0,0,1-5,22.4,25.82,25.82,0,0,1-19.87,9.37C3288,1062.63,3287.45,1062.62,3286.89,1062.58Zm.14-3.17h0Zm-495.54-475.9A19.24,19.24,0,0,0,2785,598l1.57,407.55a19.3,19.3,0,0,0,18,19.12l482.71,31.63a19.31,19.31,0,0,0,16.24-7,18.62,18.62,0,0,0,3.72-16.74c-26.43-100.58-218.79-381-344.78-430.84a19.59,19.59,0,0,0-3.9-1.08c-10.65-1.87-68-11.67-152-21.79a19.72,19.72,0,0,0-2.3-.14A19.2,19.2,0,0,0,2791.49,583.51Zm-95.6,440.35-378.44-24.79a25.74,25.74,0,0,1-23.89-26.62l17-400A25.65,25.65,0,0,1,2335.28,548c110.85-3.25,233,1.12,363,13a25.5,25.5,0,0,1,23.27,25.39l1.59,411.91a25.58,25.58,0,0,1-25.6,25.68C2697,1023.91,2696.45,1023.9,2695.89,1023.86ZM2335.46,554.31a19.27,19.27,0,0,0-18.58,18.44l-17,400a19.36,19.36,0,0,0,18,20l378.44,24.79a19.25,19.25,0,0,0,20.5-19.27l-1.59-411.91h0a19.19,19.19,0,0,0-17.51-19.1c-102-9.3-199.13-14-289.74-14Q2371,553.26,2335.46,554.31Zm382.87,32h0ZM2209.39,992l-293.76-19.25a33.49,33.49,0,0,1-25.33-14.16,32.25,32.25,0,0,1-4.64-27.54h0c49-170.17,163-353.64,225.79-363.54,35.62-5.61,73.9-10.13,113.79-13.45a25.62,25.62,0,0,1,27.81,26.58l-16.42,386.91a25.57,25.57,0,0,1-25.52,24.5C2210.54,992,2210,992,2209.39,992Zm16.38-431.62c-39.74,3.31-77.87,7.81-113.33,13.4-60.87,9.59-172.24,190.78-220.68,359h0a26,26,0,0,0,3.73,22.15,27.17,27.17,0,0,0,20.56,11.47l293.76,19.25a19.24,19.24,0,0,0,20.48-18.38l16.43-386.92a19.29,19.29,0,0,0-19.33-20.06C2226.85,560.3,2226.31,560.32,2225.77,560.37Z"/><path class="cls-60" d="M3001.15,639.9s-528.7-86-942.91-27.21a55.41,55.41,0,0,0-10.64,2.8c23.8-27.56,46.2-45.16,64.34-48,373.19-58.78,849.51,27.21,849.51,27.21,37.54,14.15,80.92,49,124.14,93.59C3056,665.82,3027.29,648.77,3001.15,639.9Z"/><path class="cls-60" d="M3086.23,1133.49h0l-.09-2.09c-.44-9.71,3.68-22.19,10.72-34.73l.55-1c.2-.34.39-.68.59-1,7.09-12.53,16.81-24.63,27.74-33.53l2.37-1.93,40.47-33,2.63-2.14c12-9.78,23.1-14.26,31.59-13.81h1l.24,0c8.7.5,14.31,6.21,14.81,17.15l.79,17.5,48.91-39.94c6.3-1,4.52,33.3-26.08,53.37l-36.93,17.13c-.7.66-1.39,1.33-2.12,1.92l-86.2,70.23a56.4,56.4,0,0,1-8.88,5.93l.17.17c-4.3,2.41-8.23,3.53-11.55,3.48-5.92.16-9.83-3.23-10.15-10.32l-.06-1.41h0Z"/><path class="cls-63" d="M3225.52,988.87l43.12,8.38c6.86,5,3.25,44.94-30.8,39l-38-36.65Z"/><path class="cls-60" d="M3217,992.43c15.38,15.75,37,29,53.93,20.42-2.21,12.52-11.54,27.18-33.12,23.44l-38-36.65Z"/><path class="cls-25" d="M3222.92,1021.92l-23.12-22.28,25.72-10.77,17.69,3.44C3241.75,1004.21,3233.75,1014.36,3222.92,1021.92Z"/><path class="cls-36" d="M3095.59,916.49h111.24a23.57,23.57,0,0,1,23.57,23.57v38.06a35.11,35.11,0,0,1-35.11,35.11h-74.45a39,39,0,0,1-39-39v-44A13.73,13.73,0,0,1,3095.59,916.49Z" transform="translate(6312.25 1929.71) rotate(180)"/><path class="cls-22" d="M3221.51,1003.55V976.16c0-28.32-24.31-51.28-54.29-51.28h-45.36a50.43,50.43,0,0,0-29.8,9.64,49.78,49.78,0,0,1,38.69-18h45.36c30,0,54.29,23,54.29,51.28v27.39a18,18,0,0,1-10.85,16.22A17.07,17.07,0,0,0,3221.51,1003.55Z"/><path class="cls-46" d="M3128.1,916.49h51a50.22,50.22,0,0,1,39.81,20,48.85,48.85,0,0,0-21-4.76h-51c-25.54,0-46.25,21.86-46.25,48.83v15.12A33.86,33.86,0,0,0,3105,1012c-13.28-3.72-23.11-16.38-23.11-31.57V965.32C3081.86,938.35,3102.56,916.49,3128.1,916.49Z"/><path class="cls-46" d="M3229.51,1000.31a18.94,18.94,0,0,1-18.24,12.91h-96.59c-18.13,0-32.82-13.88-32.82-31v-12C3124.41,954.14,3199.8,950.26,3229.51,1000.31Z"/><path class="cls-27" d="M4187.57,1523.89a18.32,18.32,0,0,0,21.14,16.52c32.18-5.05,95.27-17.53,97.36-38l2.17-130.25c-1.19-12.54-42-262.28-55.84-260.34,0,0-96.27,0-96.26,51L4188,1386.35C4188.37,1398.77,4183.63,1478.17,4187.57,1523.89Z"/><path class="cls-55" d="M4193.78,1523.89a18.33,18.33,0,0,0,21.15,16.52c32.18-5.05,95.27-17.53,97.36-38l2.16-130.25c-1.18-12.54-42-262.28-55.83-260.34,0,0-96.27,0-96.27,51l31.83,223.53C4194.59,1398.77,4189.85,1478.17,4193.78,1523.89Z"/><path class="cls-59" d="M4206.11,1509c.78,9.82,9,16.8,18,15.28,27.36-4.67,81-16.21,82.77-35.1l1.85-120.4c-1-11.59-35.7-242.46-47.47-240.67,0,0-81.86,0-81.85,47.11l27,206.64C4206.79,1393.29,4202.76,1466.68,4206.11,1509Z"/><path class="cls-64" d="M4206.11,1509c.78,9.82,9,15.14,18,13.62,27.36-4.67,68.35-18.4,70.13-37.29l4.52-116.55c-1-11.59-33.53-237.16-46.35-237.1,0,0-73-3.58-73,43.54l27,206.64C4206.79,1393.29,4202.76,1466.68,4206.11,1509Z"/><path class="cls-20" d="M4226.39,1514.77a2.37,2.37,0,0,0,2.38-2.38V1376.74l-31.11-199.68a2.38,2.38,0,0,0-4.71.73L4224,1377.11l0,135.28A2.38,2.38,0,0,0,4226.39,1514.77Z"/><path class="cls-20" d="M4247.73,1508h0a2.39,2.39,0,0,0,2.36-2.4l-1.56-141.16-31.11-199.66a2.38,2.38,0,1,0-4.7.73l31.08,199.32,1.53,140.82A2.39,2.39,0,0,0,4247.73,1508Z"/><path class="cls-20" d="M4269.07,1501.27a2.38,2.38,0,0,0,2.38-2.38V1363.24l-32.25-202.5a2.38,2.38,0,0,0-4.7.75l32.22,202.13,0,135.27A2.37,2.37,0,0,0,4269.07,1501.27Z"/><path class="cls-20" d="M4286.3,1494.52a2.37,2.37,0,0,0,2.38-2.38V1356.5l-30.06-192.94a2.38,2.38,0,1,0-4.7.73l30,192.57,0,135.28A2.38,2.38,0,0,0,4286.3,1494.52Z"/><path class="cls-65" d="M3046.05,588.23c51-24.89,134.81-56.24,237.64-59,117.74,92.92,259.61,268.51,318.73,419.2h0s-109.63.81-233.61,60c-1.18-.09-2.22-.18-3-.26C3306.47,857.08,3164,680.94,3046.05,588.23Z"/><path class="cls-61" d="M3492.77,928.1c-51.06-136-163.82-291.41-269.47-393.83a553.31,553.31,0,0,1,60.39-5c117.74,92.92,259.61,268.51,318.73,419.2,0,0-109.63.81-233.61,60-1.18-.09-2.22-.18-3-.26-8-20.36-17.53-41.17-28.28-62.18C3414.45,942.65,3492.77,928.1,3492.77,928.1Z"/><path class="cls-22" d="M3046.05,588.23c51-24.89,134.81-56.24,237.64-59,77.77,61.38,166.06,158.83,234.08,261.34-105-35.15-215.79-56.34-326-58.86C3143.81,675.26,3093,625.13,3046.05,588.23Z"/><path class="cls-47" d="M3183.47,541.17a559,559,0,0,1,100.22-11.89c117.74,92.92,259.61,268.51,318.73,419.2,0,0-44.45.35-108.72,15.85C3430.17,811.16,3297.62,639.37,3183.47,541.17Z"/><path d="M3368.81,1014.79a6.33,6.33,0,0,0,2.73-.62c121.16-57.81,237.24-61.64,237.23-65.13s-2.85-6.9-6.35-6.9c-1,0-101.09.62-219.36,52.79a14.45,14.45,0,0,1-19-7.67C3301.07,841,3169.84,683.41,3066.91,597a7.43,7.43,0,0,1,1.54-12.44c130.35-60.85,216.42-50.81,217.87-53.91,1.68-3.59-6.91-7.78-10.38-7.47-103.27,2.73-180.08,33.66-232.67,59.34a6.33,6.33,0,0,0-1.14,10.68c107.95,84.86,256,259.95,317.74,417.3a6.32,6.32,0,0,0,5.25,4c.87.09,2,.18,3.2.27Z"/><path d="M2241.85,1121.68c0-60.15,21.5-84,21.71-84.27a1.62,1.62,0,0,0,.43-1l22.21-526.15c74-9.95,286.06-5.27,462.07,10.62l2.12,549.09c-2.26,3.82-19.25,34.06-19.25,79.42v447.81l-489.29-21.49Z"/><path class="cls-66" d="M2263.56,1037.41a1.62,1.62,0,0,0,.43-1l22.21-526.15c74-9.95,286.06-5.27,462.07,10.62l2.12,549.09c-2.26,3.82-19.25,34.06-19.25,79.42v268.77l-489.29-26.24V1121.68C2241.85,1061.53,2263.35,1037.64,2263.56,1037.41Z"/><path class="cls-60" d="M2731.14,1418.15l-489.29-26.24V1121.68c0-21.56,2.77-38.38,6.32-51.2,144.87,87.28,314.13,131.58,483,148Z"/><path class="cls-67" d="M2337.24,956.23l263.25,21.42c11.25.92,20.9-9.85,21.38-23.84l14.72-430.7a30.17,30.17,0,0,0-1.54-10.68c-32.86-2-65.7-3.58-97.54-4.78q-12.35,2.12-24.54,4.48c-55.9,10.94-156.62,214.82-200,402.17C2308.24,934.48,2320,954.79,2337.24,956.23Zm356.47-439.84-15.14,443.19c-.47,13.54,7.86,25.06,18.75,25.95l52.76,4.29-1.81-468.95C2730.4,519.26,2712.14,517.77,2693.71,516.39Z"/><path class="cls-68" d="M2750.14,1004.28l.25,65.68a122,122,0,0,0-8.57,18.72c-136.4-16.42-368.21-102.34-368.21-102.34Z"/><path class="cls-25" d="M2286.2,510.25c74-9.95,286.06-5.27,462.07,10.62l1.06,275.62c-139.47-83-303.78-120.25-470.06-122.21Z"/><polygon class="cls-17" points="2562 1282.51 2517.78 1443.55 2253.08 1482.45 2274.07 1305.41 2562 1282.51"/><path class="cls-69" d="M2362,1156v25.84H2241.85v-60.15c0-60.15,21.5-84,21.71-84.27a1.62,1.62,0,0,0,.43-1l12-283.3h21.62C2333.13,753.1,2362,1120.42,2362,1156Z"/><path class="cls-60" d="M2359.1,1106c1.86,25.2,2.87,43.4,2.87,50v25.84H2241.85v-60.15c0-20.93,2.62-37.37,6-50A186.2,186.2,0,0,0,2359.1,1106Z"/><path class="cls-69" d="M2241.85,1144.06s345-45.29,345,44.55v105.15l-345,41.33Z"/><path class="cls-60" d="M2586.85,1221.4v72.36l-345,41.33v-191s3.73-.49,10.33-1.26C2328.78,1242.83,2467,1241.15,2586.85,1221.4Z"/><path class="cls-22" d="M2241.85,1144.06s345-45.29,345,44.55v4.29C2487.17,1128.92,2241.85,1144.06,2241.85,1144.06Z"/><path d="M2263.56,1037.41a1.62,1.62,0,0,0,.43-1l22.21-526.15c2.76-.37,5.73-.72,8.88-1.05-13.55,292.28-11.29,497.56-11.29,497.56l12.92,540.08L2731.14,1567v18.73l-489.29-20.48V1121.68C2241.85,1061.53,2263.35,1037.64,2263.56,1037.41Z"/><path class="cls-60" d="M2286.2,510.25c2.76-.37,5.73-.72,8.88-1.05-1.71,36.89-3.17,72.38-4.41,106.26-3-.47-5.91-.91-8.86-1.28Z"/><path d="M2618.31,1412.1c-.64-75.61-2.41-312.58.21-347.86,2.83-38.13,22-61.28,26.42-66.13l19-483.84,6.33.44-19,484.83-.05,1.23-.86.87c-.22.23-22.52,23.3-25.48,63.07-2.57,34.61-.8,273-.18,347.73Z"/><path d="M2263.56,1037.41c-.21.23-21.71,24.12-21.71,84.27v454l489.29,21.49V1149.38c0-45.36,17-75.6,19.25-79.42l-2.12-549.09c-176-15.89-388.05-20.57-462.07-10.62L2264,1036.4A1.62,1.62,0,0,1,2263.56,1037.41Zm-5.86,84.27c0-52.28,17.57-73.57,17.75-73.78a17.2,17.2,0,0,0,4.38-10.71l21.64-512.69c80.44-7.51,271.57-2.77,431,10.9l2.05,530.51c-6,11.39-19.23,41.46-19.23,83.48v431.23l-457.59-20.09Z"/><path class="cls-70" d="M2699.76,761.67V582.42a44.39,44.39,0,0,1,44.34-44.34h4.23l.08,19h-4.31a25.33,25.33,0,0,0-25.31,25.31V761.67A25.34,25.34,0,0,0,2744.1,787h5.19l.08,19h-5.27A44.39,44.39,0,0,1,2699.76,761.67Z"/><path class="cls-39" d="M2744.1,538.08h4.23l.08,19h-4.31a25.33,25.33,0,0,0-25.31,25.31v33a91.65,91.65,0,0,0-19-10.27V582.42A44.39,44.39,0,0,1,2744.1,538.08Z"/><path class="cls-23" d="M2744.1,557.11h4.31l-.08-19h-4.23a44.41,44.41,0,0,0-6.25.49,17.53,17.53,0,0,0-.13,19.45A25.33,25.33,0,0,1,2744.1,557.11Zm-5.9,229.1a17.29,17.29,0,0,0-.84,19.23,44,44,0,0,0,6.74.57h5.27l-.08-19h-5.19A25,25,0,0,1,2738.2,786.21Z"/><polygon class="cls-70" points="2296.71 1546.84 2731.14 1567 2731.14 1585.73 2295.68 1567.51 2296.71 1546.84"/><path class="cls-36" d="M1807.17,1643.68l-44.24-23.92a43.2,43.2,0,0,1-22.56-39l8.81-382a216.9,216.9,0,0,1,49.39-132.79l8.6-10.44s15-337.11,59.58-524.78l12.72-2.1Z"/><path class="cls-36" d="M1807.17,1643.68l-44.24-23.92a43.2,43.2,0,0,1-22.56-39l8.81-382a216.9,216.9,0,0,1,49.39-132.79l8.6-10.44s15-337.11,59.58-524.78l12.72-2.1Z"/><path class="cls-60" d="M1814.67,1059.65s11-358.6,58.61-530l6.18-1-72.29,1115.09-44.24-23.92c-.83-.45-1.58-1-2.38-1.51-.19-1.91-13.75-26-13.7-28l12.54-396.38C1760.55,1143.38,1814.67,1059.65,1814.67,1059.65Z"/><path class="cls-71" d="M2241.85,1573.77l-434.68,69.91s11.45-922.67,72.3-1115.09L2271,511s-13.48,209.1-22.1,535c-.26,10,30.65,29.92,30.39,40.14C2275.62,1232.53,2279.27,1564.76,2241.85,1573.77Z"/><path class="cls-69" d="M2236.52,1047.47l-394.89,38.66s28.3,23.07,40.32,31.92c149.21,109.91,338.9,17.16,383.7-23a14,14,0,0,0,1.27-19.51A233.22,233.22,0,0,0,2236.52,1047.47Z"/><path class="cls-39" d="M2218.79,1396.5c20.45-8.58,39-21.43,55.27-37.2-3.91,112.07-12.17,209.64-32.21,214.47l-434.68,69.91s.7-56.83,2.69-145.16C1950.3,1481.59,2088.35,1452.86,2218.79,1396.5Z"/><path class="cls-65" d="M2244.23,573.66C2129.09,570,1992,578.57,1896.06,588c-10.4,1-45.36,443.77-33.68,443L2207.8,1007a18.55,18.55,0,0,0,17.51-17.91C2229.33,798,2254.41,574,2244.23,573.66Z"/><path class="cls-72" d="M2244.22,573.66c10.19.32-14.89,224.31-18.91,415.46A18.55,18.55,0,0,1,2207.8,1007l-345.42,23.88c-5.38.38-.86-93.44,6.6-194.81,33.69-84.07,83.26-181.57,145.72-257.55C2089.31,573.94,2171.18,571.33,2244.22,573.66Z"/><path class="cls-61" d="M2099.82,574.41c49-1.71,98.43-2.22,144.4-.75,10.1.32-14.39,220-18.78,409.92a22.24,22.24,0,0,1-15.84,5.24l-293.76-19.24c-19.22-1.29-32.35-19.54-27.13-37.67C1934.17,774,2035.9,603.07,2099.82,574.41Z"/><path class="cls-22" d="M1881.24,691.8c5.89-59.82,11.56-103.52,14.82-103.84,95.89-9.39,233-18,348.16-14.3,6.42.2-1.14,89.06-8.63,202.55C2126.62,706.78,2005.06,685.58,1881.24,691.8Z"/><path class="cls-73" d="M2193.54,992.81a18.54,18.54,0,0,0,17.51-17.9c3.44-163.08,22.18-349.95,21.29-401.55,4,.1,8,.17,11.88.3,10.19.32-14.89,224.31-18.91,415.46A18.55,18.55,0,0,1,2207.8,1007l-345.42,23.88c-1.3.09-2-5.35-2.26-15Z"/><path class="cls-23" d="M2010.26,1382.79c51.72,0,97-12.72,135.35-38.12,101.34-67.11,116.32-197.23,116.91-202.74.74-7-8.85-16.13-15.88-16.88s-16.15,7.46-16.91,14.42c-.13,1.23-7.16,123.85-98.51,184.21-58.31,38.54-135.82,44.07-230.39,16.42a12.83,12.83,0,0,0-15.91,8.58c-2,6.72,1.81,18.56,8.6,20.54C1935.39,1381.46,1974.41,1382.79,2010.26,1382.79Z"/><path class="cls-36" d="M1901.69,1367c.45,0,.9,0,1.36,0,308-26,359.12-212.33,361.14-220.25a15.86,15.86,0,0,0-30.71-7.91c-1.88,7.09-48.88,172.56-333.1,196.55a15.86,15.86,0,0,0,1.31,31.66Z"/><path class="cls-23" d="M2265.4,1495.13c-5.13,45.47-12.57,76-23.55,78.64l-434.68,69.91s.25-20.23.87-55.11C1965.48,1578.39,2121.68,1555,2265.4,1495.13Z"/><path class="cls-74" d="M1823.74,1084.15c15.59,10.36,43.26,30,42.93,40.51-16.2,511.41-59.5,519-59.5,519s-27.13-22-36.58-33.64c-22.25-27.35-10.64-188.66-5.65-355.3C1768.33,1141.55,1809.91,1084.15,1823.74,1084.15Z"/><path d="M1764.94,1254.74c3.39-113.19,45-170.59,58.8-170.59,2.46,1.63,5.22,3.51,8.12,5.53-17.78,16.75-46.35,72-49.14,165.06-5,166.64-16.6,328,5.65,355.3,5.53,6.8,17.1,17.14,25.76,24.57-4.28,8.59-7,9.07-7,9.07s-27.13-22-36.58-33.64C1748.34,1582.69,1760,1421.38,1764.94,1254.74Z"/><path class="cls-60" d="M2263.25,1136.38a15.75,15.75,0,0,1,.94,10.35c-2,7.92-53.13,194.24-361.14,220.25-.46,0-.91,0-1.36,0a15.82,15.82,0,0,1-15.61-13.58C2190.1,1328.54,2255.05,1161.93,2263.25,1136.38Z"/><path class="cls-75" d="M2236.52,1047.47l-394.89,38.66S2293.54,1114.47,2236.52,1047.47Z"/><path class="cls-76" d="M1306.22,771.26a50.13,50.13,0,1,0-50.12-50.12A50.12,50.12,0,0,0,1306.22,771.26Zm-18.86,155.35c1.77-2.64,3.42-5.37,5-8.16l292.43-37.38c7.54-1,8-11.72.51-13.25L1290.4,807.11a110.8,110.8,0,0,0-111.62-53.9,66.52,66.52,0,0,0-70.58-46c-29.9,3.13-54.66,27-58.7,56.82a66.44,66.44,0,0,0,36.67,69A111.89,111.89,0,0,0,1207,975.83a50.13,50.13,0,1,0,80.37-49.22Z"/><circle class="cls-56" cx="1085.21" cy="751.54" r="22.63" transform="translate(104.44 1635.05) rotate(-76.72)"/><circle class="cls-56" cx="1290.97" cy="706.28" r="22.63" transform="translate(-121.3 1119.72) rotate(-45)"/><circle class="cls-56" cx="1233.47" cy="963.19" r="22.63" transform="translate(12.65 1942.37) rotate(-76.72)"/><circle class="cls-56" cx="1131.07" cy="830.77" r="36.87" transform="translate(129.86 1814.16) rotate(-80.78)"/><rect class="cls-20" x="1630.3" y="844.98" width="28.1" height="28.1" transform="translate(119.51 -197.71) rotate(7.14)"/><path class="cls-46" d="M1660,846.84l-11.6-1.46c-1.37,10.26-3,19.27-7,27.44l15.14,1.9Z"/><path class="cls-77" d="M1656.43,1022.77l-63.1-7.9,12.72-101.59a31.79,31.79,0,0,1,35.51-27.6h0a31.8,31.8,0,0,1,27.6,35.5Z"/><g class="cls-48"><path class="cls-77" d="M1665.13,934l1.31-10.51a29.39,29.39,0,0,0-25.51-32.82h0a29.39,29.39,0,0,0-32.82,25.51l-2,16A109.05,109.05,0,0,0,1665.13,934Z"/></g><path class="cls-78" d="M1606.1,932.26l-9.76,77.87,58.34,7.31,10.45-83.4A109.05,109.05,0,0,1,1606.1,932.26Z"/><path class="cls-79" d="M1651.87,894.37a29,29,0,0,1,1.88,14.21l-13.41,107.06,14.34,1.8,11.76-93.91A29.39,29.39,0,0,0,1651.87,894.37Z"/><path class="cls-22" d="M1622.77,914.16a32.8,32.8,0,0,1,14.8-23.53,29.29,29.29,0,0,0-29.46,25.59l-11.77,93.91,14.19,1.78Z"/><path class="cls-56" d="M1625.51,1013.78l14.11-112.66a28.8,28.8,0,0,1,3.24-10c-.65-.12-1.26-.36-1.93-.44h0c-.84-.1-1.65,0-2.48-.06a28.91,28.91,0,0,0-8.8,17.39l-13.11,104.62Z"/><path class="cls-78" d="M1624.06,862.07H1660a0,0,0,0,1,0,0v26.51a4.44,4.44,0,0,1-4.44,4.44h-27a4.44,4.44,0,0,1-4.44-4.44V862.07A0,0,0,0,1,1624.06,862.07Z" transform="translate(121.8 -197.28) rotate(7.14)"/><path class="cls-46" d="M1646.29,862.48c-1.68,11.89-4.94,21.88-11.62,29.74l17.3,2.16a6,6,0,0,0,6.72-5.22l3.09-24.74Z"/><path class="cls-23" d="M1649.55,887.79c-3.19-.79-6.43-1.55-9.55-2.23a31.69,31.69,0,0,0-20.32,5.44c-3.22,7.4-6.36,17.77,1,19.57,10.69,2.62,41.27-.45,41.27-.45s-6.39,34.7-5.47,39.65A54.54,54.54,0,0,0,1663.3,968l5.86-46.77A31.78,31.78,0,0,0,1649.55,887.79Z"/><path class="cls-80" d="M1728.52,937l-31-47.8-8.19-54.74s-28,2.35-37.68.82-25.68-12.15-28.49-7.65,6.36,16.82,21.55,22.25,29.93.5,29.93.5l1.11,37.7s-44.22-12.57-46-9.05-13.09,24.07-2.4,26.68,41.28-.46,41.28-.46-6.39,34.71-5.48,39.66c8.36,45.16,58.5,46.77,58.5,46.77Z"/><polygon class="cls-55" points="1768.22 946.2 1728.52 924.64 1710.09 998.97 1755.25 1018.42 1768.22 946.2"/><path class="cls-81" d="M2077.05,851.12s-73.54,116.47-152.63,127.77-173.83-55.39-173.83-55.39L1728.52,1014s126.92,79.77,214.29,68.68S2183.7,947.17,2077.05,851.12Z"/><path class="cls-60" d="M1942.81,1031.72c-72.07,9.14-171-43.5-203.44-62.22L1728.52,1014s126.92,79.77,214.29,68.68c73.41-9.31,193.48-98.62,166.74-183.9C2090.16,965.6,2001.54,1024.26,1942.81,1031.72Z"/><path class="cls-60" d="M2077.05,851.12a453.54,453.54,0,0,1-36.36,48.12c19.26,32.94,26.17,75.85,25.12,118C2113.94,970.22,2138,906,2077.05,851.12Z"/><ellipse class="cls-16" cx="2243.59" cy="1803.81" rx="277.7" ry="25.7"/><path class="cls-20" d="M2182.65,1130.14l112.93-4.42,100.54-191.85-9.32-111.33c-64.88-32.54-137.08-36.08-203.89-10l-20.79,8.12c-46.35,18.09-68.92,82.08-47.84,135.68Z"/><path class="cls-82" d="M2254.1,803.93l17.36,366.85s-111.63-12.12-114.11-18.18S2254.1,803.93,2254.1,803.93Z"/><polygon class="cls-83" points="2434.03 1348.35 2408.53 1807.59 2274.56 1807.59 2324.8 1757.58 2300.61 1484.76 2200.14 1484.76 2183.39 1807.59 2053.16 1807.59 2104.01 1757.58 2091.68 1348.35 2434.03 1348.35"/><rect class="cls-37" x="2389.36" y="1366.74" width="7.3" height="422.77"/><rect class="cls-37" x="2374.29" y="1366.74" width="7.3" height="422.77"/><polygon points="2408.53 1807.59 2274.56 1807.59 2324.8 1757.58 2409.97 1781.59 2408.53 1807.59"/><polygon points="2184.69 1782.59 2183.39 1807.59 2053.16 1807.59 2104.01 1757.58 2184.69 1782.59"/><path class="cls-39" d="M2434,1348.35l-25.5,459.24H2353.2c53.24-256.12-52.59-322.83-52.59-322.83H2200.14l-16.74,322.83h-61.15c49-129.19,60.18-294-28.53-391.48l-2-67.76Z"/><polygon class="cls-60" points="2091.68 1348.35 2434.03 1348.35 2431.72 1389.87 2093.71 1415.82 2091.68 1348.35"/><path class="cls-81" d="M2164.8,819.6c-4.35,146.19,60.77,281.46,60.77,281.46s92.1-169.37,112.49-297.13a260.5,260.5,0,0,1,48.74,18.61l64.52,32.35v522.69H2074.38V854.89Z"/><path class="cls-60" d="M2313.79,889.84c-68.94,5.3-155.58,1.7-197-51.51l66.1-25.8c66.81-26.07,139-22.53,203.89,10l8.08,4.05C2378.14,859.85,2351.14,885.17,2313.79,889.84Z"/><path class="cls-39" d="M2386.8,822.54c-1.5-.75-3-1.41-4.52-2.13-63.71-30.48-134.1-33.35-199.37-7.88l-20.79,8.12h0l-87.74,34.24V956.14c75.9-36.46,221.54-61.07,285.7-8.12-27.63,44.24-109.94,149.85-109.94,149.85,41-30.57,94.5-92.76,126.35-131.75,39.55,60,27.64,179.69-15.31,252.79-35,59.49-34.67,117.57,24.73,158.67h65.41V854.89Z"/><circle class="cls-80" cx="2082.76" cy="536.35" r="32.06" transform="translate(230.77 1629.82) rotate(-45)"/><path class="cls-84" d="M2083.06,536.35a22.25,22.25,0,0,1,11.17-19.25,22.11,22.11,0,0,0-11.17-3.1,22.35,22.35,0,1,0,0,44.69,22.11,22.11,0,0,0,11.17-3.1A22.25,22.25,0,0,1,2083.06,536.35Z"/><path class="cls-46" d="M2082.76,504.28a31.5,31.5,0,0,0-8.57,1.31,76.2,76.2,0,0,1,.75,61.75,32,32,0,1,0,7.82-63.06Z"/><circle class="cls-80" cx="2323.57" cy="536.35" r="32.06" transform="translate(938.86 2477.79) rotate(-67.5)"/><path class="cls-84" d="M2323.27,536.35a22.25,22.25,0,0,0-11.17-19.25,22.08,22.08,0,0,1,11.17-3.1,22.35,22.35,0,0,1,0,44.69,22.08,22.08,0,0,1-11.17-3.1A22.25,22.25,0,0,0,2323.27,536.35Z"/><path class="cls-46" d="M2323.57,504.28a31.49,31.49,0,0,1,8.56,1.31,76.28,76.28,0,0,0-.75,61.75,32,32,0,1,1-7.81-63.06Z"/><path class="cls-80" d="M2089.07,441.24s4,257.35,23.07,316c43,131.83,149.05,106.14,170.79,77.68,58.77-77,21.23-399.32,21.23-399.32S2158.68,398.45,2089.07,441.24Z"/><path d="M2218,524.67a5,5,0,0,0,1.85-3.56c0-.19,1.5-19.57,12.1-27.26,4.21-3,9.34-3.72,15.69-2.1a5,5,0,1,0,2.49-9.78c-9.3-2.38-17.42-1.13-24.12,3.7-14.46,10.47-16.16,33.74-16.23,34.73a5.05,5.05,0,0,0,8.22,4.27Z"/><path d="M2175.47,523.22a5,5,0,0,1-3.18-2.44c-.1-.17-9.63-17.11-22.48-19.61-5.09-1-10,.58-15.11,4.73a5,5,0,0,1-6.39-7.82c7.43-6.08,15.31-8.38,23.43-6.82,17.52,3.39,28.9,23.76,29.38,24.62a5,5,0,0,1-5.65,7.34Z"/><path class="cls-23" d="M2227.35,696.44c0,46.9-15.47,52.91-34.55,52.91s-34.55-6-34.55-52.91,15.47-125.78,34.55-125.78S2227.35,649.54,2227.35,696.44Z"/><path class="cls-80" d="M2219.86,675.49c0,45.37-15.47,51.18-34.56,51.18s-34.55-5.81-34.55-51.18,15.47-121.65,34.55-121.65S2219.86,630.13,2219.86,675.49Z"/><path class="cls-85" d="M2189.77,555.39a8.63,8.63,0,0,0-4.46-1.55c-19.09,0-34.56,76.29-34.56,121.65,0,41.14,12.74,49.73,29.34,51,1.56-6.83,3-14.61,4.35-23.65C2190.68,660.31,2193.44,597.18,2189.77,555.39Z"/><ellipse class="cls-23" cx="2248.44" cy="549.35" rx="32.18" ry="32.32"/><ellipse class="cls-80" cx="2243.55" cy="546.96" rx="32.18" ry="32.32"/><ellipse class="cls-86" cx="2243.55" cy="546.96" rx="23.7" ry="27.23"/><path d="M2230.22,536.34a6.87,6.87,0,0,0-1.92,4.8c0,3.59,2.54,6.51,5.66,6.51s5.67-2.92,5.67-6.51c0-.1-.05-.18-.05-.28a11.82,11.82,0,0,1,1.6,6c0,5.91-4.17,10.71-9.32,10.71s-9.32-4.8-9.32-10.71C2222.54,541.6,2225.85,537.24,2230.22,536.34Z"/><ellipse class="cls-23" cx="2140.72" cy="547.76" rx="32.18" ry="32.32"/><ellipse class="cls-80" cx="2135.84" cy="545.37" rx="32.18" ry="32.32"/><ellipse class="cls-86" cx="2135.84" cy="545.37" rx="23.7" ry="27.23"/><path d="M2122.5,534.75a6.89,6.89,0,0,0-1.91,4.8c0,3.59,2.54,6.5,5.66,6.5s5.66-2.91,5.66-6.5a2.93,2.93,0,0,0,0-.29,11.78,11.78,0,0,1,1.61,6c0,5.92-4.17,10.72-9.32,10.72s-9.33-4.8-9.33-10.72C2114.82,540,2118.14,535.65,2122.5,534.75Z"/><path class="cls-39" d="M2259.6,834.88c58.77-77,21.22-399.32,21.22-399.32s-50.86-13-106.83-14.73c64.3-2.05,130.17,14.73,130.17,14.73s37.54,322.37-21.23,399.32c-10.21,13.36-39,26.11-71.15,22.23C2233.87,854.52,2252,844.88,2259.6,834.88Z"/><path class="cls-39" d="M2090.6,503.3c-1.13-36.66-1.53-62.06-1.53-62.06,69.61-42.79,215.09-5.68,215.09-5.68s2.58,22.2,5.33,56.33C2241.19,455.33,2159.18,467.43,2090.6,503.3Z"/><path d="M2333.88,450.37,2316.38,481s-88.62-53.6-192.2-73.36l-2.54-28.22S2290.12,400.59,2333.88,450.37Z"/><path class="cls-81" d="M2096.18,410.42s19.58-34.37,19.72-47.47-39.21-50.46-36.17-62.52,40.74-69.3,95.23-25,40.76,85.78,80.06,98.89,58-18.2,78.53,7,15.2,93.95-14.15,82.27S2162.77,391.16,2096.18,410.42Z"/><path class="cls-39" d="M2285.08,404.64c-63.7-3.86-117.48-85.34-172.87-27.32-5.7,14.95-16,33.11-16,33.11,66.59-19.27,193.87,41.51,223.22,53.19,16.21,6.45,25.08-11.64,26.32-33.37.94-16.54-9.65-32.07-25.75-35.95C2311.46,392.25,2300.48,393.15,2285.08,404.64Z"/><path d="M2082.76,405.25S2005,456.3,2081.14,474s140.71-78.75,140.71-78.75S2166.05,353.7,2082.76,405.25Z"/><path class="cls-17" d="M2168,379.47c-22.75-.6-51.76,5.07-85.22,25.78,0,0-67.1,44.08-15.46,64.48A219.36,219.36,0,0,1,2168,379.47Z"/><path class="cls-56" d="M2094,424.83c-11.35,9.23-22.56,14.26-25,11.23s4.74-13,16.09-22.21,22.56-14.26,25-11.22S2105.33,415.6,2094,424.83Z"/><path class="cls-36" d="M2105.43,393.1c70.59-32,116.42,2.11,116.42,2.11s-3.1,4.63-8.75,11.67C2178.86,388.89,2141.29,387,2105.43,393.1Z"/><path class="cls-39" d="M2157.74,784.25c5.21,15.39,29.9,21,55.15,12.4s41.49-28,36.28-43.35-21.44,4.05-46.69,12.6S2152.53,768.85,2157.74,784.25Z"/><path class="cls-87" d="M2153.93,779.54c5.21,15.39,29.91,21,55.15,12.4s41.49-28,36.28-43.35-21.44,4.06-46.68,12.6S2148.72,764.15,2153.93,779.54Z"/><path class="cls-88" d="M2155.83,778.9c4.14,12.22,27.11,15.49,51.31,7.29s40.46-24.74,36.33-37-18.65,9.52-42.85,17.71S2151.69,766.68,2155.83,778.9Z"/><path class="cls-78" d="M2281.23,655a1.56,1.56,0,0,1-.42-.08c-1.27-.4-2-2.21-1.68-4l27.45-146.7c.35-1.83,1.66-2.94,2.92-2.57s2,2.21,1.69,4l-27.46,146.7C2283.43,654,2282.36,655,2281.23,655Z"/><path class="cls-78" d="M2097.81,636.16s77.85-35.43,87.17-34.06,99,48,99,48-2.48,51.67,3.38,75.32a165.11,165.11,0,0,0,15.56,40.15s-29.25,65.8-93.14,58.22S2104.53,781,2104.53,781,2069.84,695.81,2097.81,636.16Z"/><path class="cls-22" d="M2117.21,662.21s41.1-33.84,45.47,29.78c15.45-6.21,21.47-68.39,25-67.86,6.5,1,69,20.72,96.12,30.14.08-2.55.16-4.12.16-4.12s-89.71-46.67-99-48-87.17,34.06-87.17,34.06c-28,59.65,6.72,144.83,6.72,144.83a146.6,146.6,0,0,0,13.83,9.87C2109.87,763.33,2096.69,706,2117.21,662.21Z"/><path class="cls-60" d="M2101.19,745.39s61.13,43.82,97.91,50.39,87.71-31,87.71-31S2213.51,795.17,2101.19,745.39Z"/><path class="cls-60" d="M2095.72,699.77s59.54,30.66,96.05,34.93,88.64-23.31,88.64-23.31S2206.18,734.08,2095.72,699.77Z"/><polygon class="cls-60" points="2100.06 674.57 2186.45 643.9 2273.53 686.03 2188.19 658.35 2100.06 674.57"/><path class="cls-78" d="M2299.46,768.15l-.16,0c-1.3-.18-2.22-1.84-2.06-3.7l17-197.29s1.79.47,3.17.68,2.35.37,2.35.37L2302,765.09C2301.8,766.87,2300.7,768.2,2299.46,768.15Z"/><path class="cls-80" d="M2457.18,1205.9l-13,8.34-20.53-30.79-54.9,34.11s3.26,12.26,14.75,10.25S2418,1207,2418,1207l1.41,10.86s-28.43,15.62-28.23,25.24,15.14,12.26,15.14,12.26-8.2,7.11-2.46,19,14.19,5.82,14.19,5.82l16.7-20.84s-.28,28.89,16.79,25.58,31.84-22.93,31.84-22.93Z"/><polygon class="cls-55" points="2470.4 1183.45 2450.29 1204.7 2484.95 1274.07 2513.59 1240.52 2470.4 1183.45"/><path class="cls-81" d="M2451.38,855.08S2637.1,1008.24,2639,1064.14s-135.78,199.11-135.78,199.11l-40.92-78.12s59.52-92,64.48-121S2340.06,982.59,2451.38,855.08Z"/><path class="cls-39" d="M2487.22,885.84c-21.16-18.65-35.84-30.76-35.84-30.76-111.32,127.51,80.32,180,75.36,209.06s-64.48,121-64.48,121l40.92,78.12s58-60.39,98.22-118C2528.53,1076.91,2479.87,986.51,2487.22,885.84Z"/><path class="cls-78" d="M879.52,465.65s87.76-162.32,113.83-142.87S879.52,465.65,879.52,465.65Z"/><path class="cls-56" d="M973.06,338.1c2,2.53-5.83,16.25-17.44,30.66S933,392.81,931,390.28s5.83-16.25,17.44-30.66S971.08,335.58,973.06,338.1Z"/><path class="cls-78" d="M917.5,516.05S1105.76,359.57,1128,403.68,917.5,516.05,917.5,516.05Z"/><ellipse class="cls-56" cx="1056.81" cy="430.48" rx="43.81" ry="8.59" transform="translate(-77.8 552.28) rotate(-28.29)"/><path class="cls-78" d="M1005,561.3s129.3-38.72,132.52-7.57S1005,561.3,1005,561.3Z"/><path class="cls-56" d="M1119.21,548.69c-.3,3-11.43,6-24.86,6.69s-24.08-1.25-23.78-4.27,11.43-6,24.87-6.69S1119.51,545.66,1119.21,548.69Z"/><ellipse class="cls-16" cx="654.78" cy="1803.81" rx="328.88" ry="25.7"/><polygon class="cls-89" points="802.81 1396.98 790.98 1620.81 880.84 1727.7 786.48 1803.9 800.85 1730.9 684.3 1641.03 674 1518.94 603.73 1518.94 558.12 1643.04 550 1807.59 439.14 1807.59 482.42 1762.87 478.78 1635.9 511.41 1396.98 802.81 1396.98"/><polygon class="cls-60" points="511.41 1396.98 802.81 1396.98 799.01 1468.96 506.05 1436.22 511.41 1396.98"/><path class="cls-46" d="M880.84,1727.7,791,1620.81,802.81,1397H511.41l-13.29,97.32c54.34,86.85,38.35,208.07,19.36,313.29H550L558.12,1643l45.61-124.1H674s105.16,60.55,97.34,189.21l29.51,22.76-14.37,73Z"/><path class="cls-89" d="M298.25,1004.7c-8.62-3.2-16.76,15.33-21.56,29.27l-39.88-67.78S215,969.57,220.7,983.5,245,1016.58,245,1016.58s-1.1,2.13-10.69,7.47L197.58,989.2s-13.43,5.56-11.58,16.2c1.16,6.64,20.44,17.33,36.8,25.62-3.61,2.17-9.5,6-12.62,8.11L172,1020.31s-11.06,9.42-6,19c2.46,4.66,18.54,9.54,31.05,14.45-.26,10.13,6.62,41.88,19.23,41,13.3-.89,15-1.94,15-1.94l21.25,52.55L285.41,1123l-5.33-29.16s30.52-59.42,32.07-66.36C314.43,1017.33,311.82,1009.73,298.25,1004.7Z"/><path class="cls-39" d="M243.65,1084.92s-19.83-23.27-11-29.21,39-17.16,39-17.16-26.08-.9-35.49,3.07-20.3,15.83-20.3,15.83S214.21,1077.13,243.65,1084.92Z"/><path class="cls-90" d="M466.55,1067.78s-24.63,127.9-89.51,141.55-75.67-108.28-75.67-108.28l-81.2,14.65S233.69,1299.76,369.62,1298,577.49,1158.91,466.55,1067.78Z"/><path class="cls-23" d="M279.88,1104.93c1.56,36.19-2.81,72.38,17.29,108.57,41.61,60.09,159.79,41.27,164.42-125.14,3.39-12.41,5-20.58,5-20.58,110.94,91.13,39,228.51-96.93,230.25S220.17,1115.7,220.17,1115.7Z"/><path class="cls-89" d="M897.93,926.69c6.08-6.91,22,5.55,32.86,15.56l3-78.59s20.78-7.35,22.38,7.61-5.71,40.64-5.71,40.64,2,1.35,12.95,1.51l15.83-48.09s14.45-1.47,17.87,8.78c2.13,6.39-9.79,24.94-20.26,40,4.21.21,11.2.78,14.95,1.16l24.7-34.66s14.21,3,14.3,13.85c0,5.28-11.8,17.2-20.49,27.45,5,8.8,14,40,2.51,45.25-12.13,5.52-14.14,5.41-14.14,5.41l6.19,56.34-39.55-4.09-9.12-28.2s-55-37.86-59.69-43.24C889.68,945.48,888.37,937.55,897.93,926.69Z"/><path class="cls-39" d="M984,971.45s6.43-29.89-4.2-30.91-42.45,3.36-42.45,3.36,22.54-13.16,32.71-14.12,25.38,4.32,25.38,4.32S1006.27,950.63,984,971.45Z"/><path class="cls-90" d="M779.63,1062s82.31,101,145.91,82.21S940.85,1013,940.85,1013l78.45-25.59s75.32,168.49-45.19,231.38S725.13,1194.82,779.63,1062Z"/><path class="cls-23" d="M961.61,1006.24c15.78,32.6,36.78,62.4,36.23,103.8-8.15,72.63-121.14,112.07-204.08-32.27-8.87-9.32-14.13-15.77-14.13-15.77-54.5,132.82,74,219.7,194.48,156.8s45.19-231.38,45.19-231.38Z"/><path class="cls-90" d="M815.34,1426.68H498.48L467.32,1067.1l52.3-22.26c52.61-22.38,113.09-24.82,170.8-6.88l93.75,29.14Z"/><path class="cls-46" d="M784.17,1067.1,690.42,1038c-57.71-17.94-118.19-15.5-170.8,6.88l-52.3,22.26,31.16,359.58h74.26c-116-36-65.52-238.59-44-265,27.67-47.71,136.15-47.09,188,.62,64.09,88.71,50.56,167.23,37.05,264.36h61.61Z"/><path class="cls-39" d="M537,1167.15c210.75,41.65,214.36-49.11,199.66-114.81L690.42,1038c-57.71-17.94-118.19-15.5-170.8,6.88L494.1,1055.7C500.15,1076.74,486.23,1154.48,537,1167.15Z"/><ellipse class="cls-91" cx="255.71" cy="706.41" rx="70.72" ry="52.19" transform="translate(-493.91 656.73) rotate(-66.31)"/><ellipse class="cls-60" cx="263.29" cy="706.89" rx="42.08" ry="25.19" transform="translate(-489.82 663.95) rotate(-66.31)"/><path class="cls-92" d="M251.57,699.45c-9.26,19.74,5.91,42.36,27.68,41a143.25,143.25,0,0,1,51.35,6.05c25.61,7.87,42.33,16.57,53,23.88a20.08,20.08,0,0,0,29.44-7.72h0a20,20,0,0,0-16.28-28.72,151.34,151.34,0,0,1-51.53-14.07c-18.88-9-35.65-20.59-48.65-31a29.47,29.47,0,0,0-45.05,10.57Z"/><ellipse class="cls-92" cx="578.49" cy="586.44" rx="48.27" ry="35.63"/><path class="cls-60" d="M580.27,608.5c15.86,0,28.72-7.7,28.72-17.2s-12.86-17.19-28.72-17.19-28.72,7.7-28.72,17.19S564.41,608.5,580.27,608.5Z"/><path class="cls-92" d="M581.71,581.94c-14.88-.37-24.86,15.31-18,28.54A97.55,97.55,0,0,1,574,644.23c2.11,18.17,1.25,31-.38,39.71a13.7,13.7,0,0,0,12.9,16.28h0A13.67,13.67,0,0,0,600,682.17a103.12,103.12,0,0,1-5.34-36.07,173.75,173.75,0,0,1,6-38.9,20.12,20.12,0,0,0-19-25.26Z"/><ellipse class="cls-92" cx="729.78" cy="590.87" rx="28.6" ry="38.75" transform="translate(-160.93 888.09) rotate(-57.45)"/><ellipse class="cls-60" cx="728.88" cy="594.93" rx="13.8" ry="23.06" transform="translate(-164.77 889.21) rotate(-57.45)"/><path class="cls-91" d="M733.9,589.22a15.75,15.75,0,0,0-24.52,11.52,78.47,78.47,0,0,1-7.61,27.3c-6.42,13.2-12.54,21.52-17.4,26.7a11,11,0,0,0,1.69,16.59h0A11,11,0,0,0,703,664.94a83.1,83.1,0,0,1,12-26.71,139.83,139.83,0,0,1,20.87-23.73,16.14,16.14,0,0,0-1.92-25.28Z"/><ellipse class="cls-91" cx="859.05" cy="759.98" rx="28.6" ry="38.75" transform="translate(-100.32 131.38) rotate(-8.26)"/><path class="cls-60" d="M841.73,763.94c1.83,12.6,9.43,21.92,17,20.83s12.17-12.2,10.34-24.8-9.43-21.93-17-20.84S839.9,751.33,841.73,763.94Z"/><path class="cls-93" d="M863,762a15.75,15.75,0,0,0-24.75-11,78.48,78.48,0,0,1-25.63,12.08c-14.19,3.77-24.49,4.57-31.59,4.28a11,11,0,0,0-11.45,12.13h0a11,11,0,0,0,15.9,8.63,82.82,82.82,0,0,1,28-8.4,139.87,139.87,0,0,1,31.6.28A16.15,16.15,0,0,0,863,762Z"/><ellipse class="cls-91" cx="859.41" cy="936.06" rx="38.75" ry="28.6" transform="translate(-343.08 1346.93) rotate(-66.31)"/><path class="cls-60" d="M842.62,930.26c-5.12,11.66-3.61,23.59,3.37,26.66s16.79-3.91,21.91-15.57,3.6-23.6-3.38-26.66S847.74,918.59,842.62,930.26Z"/><path class="cls-93" d="M861.68,939.88a15.76,15.76,0,0,0-15.17-22.46,78.32,78.32,0,0,1-28.14-3.31c-14-4.31-23.19-9.08-29.06-13.08a11,11,0,0,0-16.13,4.23h0A11,11,0,0,0,782.09,921a82.83,82.83,0,0,1,28.24,7.71,140.16,140.16,0,0,1,26.66,17,16.15,16.15,0,0,0,24.69-5.79Z"/><ellipse class="cls-91" cx="282.18" cy="898.82" rx="28.6" ry="38.75" transform="translate(-126.27 49.9) rotate(-8.26)"/><path class="cls-60" d="M299.49,894.86c-1.83-12.6-9.43-21.93-17-20.83s-12.18,12.2-10.35,24.8,9.43,21.93,17,20.83S301.32,907.46,299.49,894.86Z"/><path class="cls-92" d="M278.23,896.78a15.75,15.75,0,0,0,24.75,11,78.48,78.48,0,0,1,25.63-12.08c14.19-3.77,24.49-4.58,31.59-4.29a11,11,0,0,0,11.44-12.12h0a11,11,0,0,0-15.89-8.63,82.89,82.89,0,0,1-28,8.4,139.86,139.86,0,0,1-31.6-.28,16.14,16.14,0,0,0-17.88,18Z"/><ellipse class="cls-93" cx="429.16" cy="595.36" rx="30.68" ry="22.64" transform="translate(-247.18 310.4) rotate(-31.37)"/><ellipse class="cls-60" cx="431.73" cy="597.41" rx="18.25" ry="10.93" transform="translate(-247.87 312.04) rotate(-31.37)"/><path class="cls-93" d="M429.41,591.86a12.48,12.48,0,0,0-.34,21.45,62,62,0,0,1,16.76,14.91c7.15,9.16,10.94,16.41,12.93,21.67a8.72,8.72,0,0,0,12.39,4.57h0a8.7,8.7,0,0,0,1.35-14.26,65.62,65.62,0,0,1-14.83-17.81,110.77,110.77,0,0,1-9.61-23.1,12.78,12.78,0,0,0-18.65-7.43Z"/><ellipse class="cls-91" cx="371.64" cy="1084.09" rx="39.15" ry="53.04" transform="translate(-658.37 581.66) rotate(-45.07)"/><ellipse class="cls-60" cx="374.03" cy="1078.92" rx="18.89" ry="31.56" transform="translate(-654.01 581.83) rotate(-45.07)"/><path class="cls-92" d="M365.65,1085.09c11.29,11.84,31.22,7.38,36.16-8.22A107.35,107.35,0,0,1,420,1042.62c12.46-15.77,23.09-25.1,31.1-30.6a15,15,0,0,0,2.6-22.68h0a15,15,0,0,0-24.49,3.58,113.55,113.55,0,0,1-23.84,32.2,191.86,191.86,0,0,1-34.86,25.61,22.09,22.09,0,0,0-4.85,34.36Z"/><ellipse class="cls-91" cx="690.21" cy="1115.28" rx="47.49" ry="35.05" transform="translate(-354.66 322.5) rotate(-21.06)"/><ellipse class="cls-60" cx="686.85" cy="1111.45" rx="28.25" ry="16.91" transform="translate(-353.5 321.04) rotate(-21.06)"/><path class="cls-92" d="M688.84,1120.55A19.3,19.3,0,0,0,695.3,1088a96.15,96.15,0,0,1-21.39-27.35c-8.36-15.93-12.11-28-13.69-36.58a13.49,13.49,0,0,0-17.6-10.39h0a13.45,13.45,0,0,0-6,21.34,101.42,101.42,0,0,1,17.65,31.23,171.38,171.38,0,0,1,8.24,37.84,19.78,19.78,0,0,0,26.33,16.48Z"/><circle class="cls-89" cx="578.49" cy="838.21" r="246.17"/><ellipse class="cls-25" cx="573.4" cy="684.64" rx="45.74" ry="49.77" transform="translate(-137.37 1225.3) rotate(-87.31)"/><ellipse class="cls-21" cx="585.31" cy="674.22" rx="45.74" ry="49.77" transform="translate(-115.62 1227.27) rotate(-87.31)"/><path class="cls-28" d="M586.54,648.09c13,.61,23.24,7.58,23.54,1.1s-10-12.22-23-12.83S563.3,640.51,563,647,573.53,647.48,586.54,648.09Z"/><ellipse class="cls-60" cx="587.02" cy="676.85" rx="25.77" ry="34.57" transform="translate(-116.61 1231.49) rotate(-87.31)"/><path class="cls-60" d="M556.21,687.87c2.74-12.42,16.42-21.43,32.45-20.68,14.87.7,26.92,9.57,29.86,20.91-5.59,9.14-18.26,15.17-32.7,14.5C572.79,702,561.72,696.08,556.21,687.87Z"/><ellipse class="cls-25" cx="714.16" cy="815.47" rx="35.55" ry="34.41" transform="translate(-367.54 745.22) rotate(-45.07)"/><ellipse class="cls-21" cx="720.18" cy="809.44" rx="35.55" ry="34.41" transform="translate(-361.51 747.72) rotate(-45.07)"/><path class="cls-28" d="M734.54,795c6.37,6.36,8,15.08,11.54,11.51s1.28-11.61-5.1-18-14.42-8.61-18-5.05S728.16,788.69,734.54,795Z"/><ellipse class="cls-60" cx="719.68" cy="811.74" rx="20.03" ry="23.91" transform="translate(-363.28 748.05) rotate(-45.07)"/><path class="cls-60" d="M698,803.81C706,798,717.74,799.12,725.6,807c7.29,7.27,8.83,17.92,4.39,25.77-7.69,2.65-17.38.25-24.46-6.81C699.15,819.56,696.55,811.06,698,803.81Z"/><ellipse class="cls-25" cx="617.31" cy="1026.26" rx="29.47" ry="28.53" transform="translate(-545.23 738.54) rotate(-45.07)"/><ellipse class="cls-21" cx="622.29" cy="1021.26" rx="29.47" ry="28.53" transform="translate(-540.23 740.6) rotate(-45.07)"/><path class="cls-28" d="M634.2,1009.33c5.28,5.27,6.61,12.49,9.56,9.54s1.06-9.63-4.22-14.9-12-7.14-14.91-4.19S628.91,1004.06,634.2,1009.33Z"/><ellipse class="cls-60" cx="621.88" cy="1023.16" rx="16.6" ry="19.82" transform="translate(-541.71 740.92) rotate(-45.07)"/><path class="cls-60" d="M603.93,1016.59c6.58-4.84,16.34-3.88,22.86,2.62,6,6,7.32,14.85,3.63,21.36-6.37,2.19-14.4.2-20.27-5.65C604.86,1029.64,602.71,1022.6,603.93,1016.59Z"/><path class="cls-60" d="M332.32,838.22c0,135.95,110.21,246.17,246.17,246.17S824.67,974.17,824.67,838.22,714.45,592,578.49,592,332.32,702.26,332.32,838.22Zm7.34,3.89c0-123.7,96-224,214.5-224s214.5,100.28,214.5,224-96,224-214.5,224S339.66,965.82,339.66,842.11Z"/><path class="cls-21" d="M360.84,959.45c4.26,11.61,14.92,16.39,19.36,8.6a39.21,39.21,0,0,1,13.46-14.36c8.27-5.06,14.81-6.82,19.56-7.19,4.5-.36,6.46-6.51,4.12-13.07h0c-2.68-7.51-9.33-11.15-12.87-7.06a36.32,36.32,0,0,1-16.07,10.94A61.23,61.23,0,0,1,367.55,940c-7.15-.22-10.43,9.32-6.71,19.46Z"/><g class="cls-48"><path class="cls-62" d="M359.39,949.4c.53-5.57,3.52-9.55,8.16-9.41a61.23,61.23,0,0,0,20.85-2.68,36.32,36.32,0,0,0,16.07-10.94c2.15-2.48,5.44-2.1,8.3.25C399.31,943.15,381.13,951.85,359.39,949.4Z"/></g><g class="cls-48"><path class="cls-62" d="M391.1,955.43A40.51,40.51,0,0,0,380.2,968c-4.44,7.8-15.1,3-19.36-8.58-3.72-10.15-.44-19.69,6.71-19.47a66.6,66.6,0,0,0,14.93-1.14A48.28,48.28,0,0,0,391.1,955.43Z"/></g><ellipse class="cls-21" cx="349.34" cy="966.75" rx="33.32" ry="40.1" transform="translate(-324.05 190.1) rotate(-21.06)"/><path class="cls-28" d="M331.55,973.6c-3.77-9.79-2.42-19.42-6.83-17.73s-4.92,11-1.15,20.8S334,993,338.37,991.32,335.32,983.39,331.55,973.6Z"/><ellipse class="cls-60" cx="350.54" cy="964.7" rx="18.78" ry="27.86" transform="translate(-323.24 190.39) rotate(-21.06)"/><path class="cls-60" d="M367.76,984.2c-9.14,1.66-19.53-5.77-24.18-17.84-4.31-11.19-2.28-22.73,4.33-28.27,7.88,1.42,16,9,20.15,19.87C371.83,967.76,371.46,977.7,367.76,984.2Z"/><path class="cls-21" d="M514.61,1079.92c14,4,25.86-2.6,21.48-12a44.71,44.71,0,0,1-4.42-22.28c.86-11.12,3.68-18.38,6.58-23,2.76-4.41-1.75-10.44-9.61-12.76h0c-9-2.66-17,1-15.56,7.08a41,41,0,0,1-.62,22.36,69,69,0,0,1-11.78,21.14c-5.12,6.47,1.71,16,13.93,19.53Z"/><g class="cls-48"><path class="cls-62" d="M504,1074.38c-5-4.3-6.68-9.79-3.36-14a69,69,0,0,0,11.78-21.14,41,41,0,0,0,.62-22.36c-.89-3.69,1.73-6.48,5.94-7.51C525.51,1033.15,521.31,1055.93,504,1074.38Z"/></g><g class="cls-48"><path class="cls-62" d="M531.57,1049.15a46.24,46.24,0,0,0,4.52,18.73c4.38,9.44-7.49,16-21.48,12-12.22-3.5-19.05-13.06-13.93-19.53a76.11,76.11,0,0,0,9.17-14.59A58.21,58.21,0,0,0,531.57,1049.15Z"/></g><ellipse class="cls-21" cx="513.65" cy="1095.56" rx="38.3" ry="47.17" transform="translate(-677.81 1306.55) rotate(-74.92)"/><path class="cls-28" d="M508,1116.72c-11.91-3.21-20.16-11.06-21.57-5.82s7.1,12.1,19,15.31,22.71,1.56,24.12-3.68S519.87,1119.93,508,1116.72Z"/><ellipse class="cls-60" cx="512.53" cy="1093.05" rx="21.58" ry="32.77" transform="translate(-676.22 1303.61) rotate(-74.92)"/><path class="cls-60" d="M542.94,1090.45c-4.71,9.6-18.93,14.13-33.62,10.18-13.62-3.67-23.21-13.45-23.95-23.36,6.77-6.32,19.54-8.62,32.77-5.06C530.07,1075.43,539.28,1082.58,542.94,1090.45Z"/><path class="cls-21" d="M306.67,807.55c-5,10.9-1,21.43,7.36,19.07a37.6,37.6,0,0,1,18.93-.75c9.08,2.14,14.74,5.37,18.23,8.33,3.31,2.81,8.83-.09,11.69-6.2h0c3.28-7,1.22-14-4-13.6A34.75,34.75,0,0,1,340.51,811a58.39,58.39,0,0,1-16-12.32c-4.73-5-13.44-.66-17.8,8.85Z"/><g class="cls-48"><path class="cls-62" d="M312.51,799.64c4.15-3.48,8.89-4.19,12-.94a58.39,58.39,0,0,0,16,12.32,34.75,34.75,0,0,0,18.39,3.38c3.16-.25,5.15,2.25,5.49,5.81C344,822.45,325.67,816.1,312.51,799.64Z"/></g><g class="cls-48"><path class="cls-62" d="M330,825.34a39,39,0,0,0-16,1.28c-8.32,2.36-12.35-8.17-7.36-19.07,4.36-9.51,13.07-13.86,17.8-8.85a63.94,63.94,0,0,0,10.95,9.36A47.26,47.26,0,0,0,330,825.34Z"/></g><ellipse class="cls-21" cx="293.86" cy="804.76" rx="38.84" ry="32.04" transform="translate(-561.15 750.5) rotate(-66.31)"/><path class="cls-28" d="M277.08,797.4c4.08-9.31,11.55-15,7.39-16.85s-10.84,4.24-14.92,13.54-4,18.33.14,20.15S273,806.7,277.08,797.4Z"/><ellipse class="cls-60" cx="296.07" cy="804.17" rx="26.99" ry="18.05" transform="translate(-559.29 752.17) rotate(-66.31)"/><path class="cls-60" d="M294.57,829.31c-7.36-5.08-9.4-17.25-4.37-28.73,4.67-10.64,13.9-17.21,22.17-16.53,4.4,6.33,4.77,17,.24,27.37C308.52,820.74,301.51,827.33,294.57,829.31Z"/><path class="cls-21" d="M853.38,626.2c-12.49-21.69-43.73-22.28-56.73-.9a164,164,0,0,1-39.44,44.33c-24.23,18.92-43.4,28.92-57.31,34.2a23,23,0,0,0-12.09,32.76h0a23,23,0,0,0,37.71,3.56,173.39,173.39,0,0,1,47.1-39.22c20.84-11.87,42.79-20,61.09-25.42a33.81,33.81,0,0,0,19.67-49.31Z"/><g class="cls-48"><path class="cls-62" d="M857.62,647.08a33.64,33.64,0,0,1-23.91,28.43c-18.3,5.42-40.25,13.55-61.09,25.42a173.39,173.39,0,0,0-47.1,39.22,22.9,22.9,0,0,1-24.32,7.22C740.66,698.23,793.93,662,857.62,647.08Z"/></g><g class="cls-48"><path class="cls-62" d="M764.7,663.39a164.37,164.37,0,0,0,31.95-38.08c13-21.39,44.24-20.8,56.72.89a33.8,33.8,0,0,1-19.66,49.31A315.15,315.15,0,0,0,790,692C785,680.41,775.93,670.39,764.7,663.39Z"/></g><ellipse class="cls-21" cx="844.1" cy="625.52" rx="59.89" ry="81.14" transform="matrix(0.85, -0.52, 0.52, 0.85, -202.23, 530.8)"/><path class="cls-28" d="M873.36,607.69c11,18.12,12.75,37.23,20,32.81s4.17-22.69-6.88-40.81-25.88-29.23-33.13-24.81S862.31,589.57,873.36,607.69Z"/><ellipse class="cls-60" cx="842.82" cy="629.81" rx="33.75" ry="56.37" transform="translate(-204.65 530.75) rotate(-31.37)"/><path class="cls-60" d="M803.21,596.16c15.84-5.53,37.87,6.32,51.49,28.67,12.63,20.72,13.93,43.71,4.36,56.17-14.88-.79-32.79-13.5-45.06-33.62C802.94,629.23,799.33,609.77,803.21,596.16Z"/><path class="cls-21" d="M920.4,841.06c1.41-19.5-18.55-33.55-36.32-25.4a128.36,128.36,0,0,1-44.91,11.44c-23.95,1.64-40.74-.27-52-2.94A18,18,0,0,0,765,840.07h0a17.94,17.94,0,0,0,22.84,18.8,135.5,135.5,0,0,1,47.64-4.78c18.68,1.44,36.44,5.78,50.66,10.28a26.41,26.41,0,0,0,34.29-23.31Z"/><g class="cls-48"><path class="cls-62" d="M914,856.43a26.31,26.31,0,0,1-27.91,7.94c-14.22-4.5-32-8.84-50.66-10.28a135.52,135.52,0,0,0-47.64,4.78,17.86,17.86,0,0,1-18.89-6C816,838.37,866.27,838.21,914,856.43Z"/></g><g class="cls-48"><path class="cls-62" d="M846.75,826.33a128.16,128.16,0,0,0,37.33-10.67c17.77-8.15,37.73,5.9,36.32,25.4a26.41,26.41,0,0,1-34.29,23.31,245.14,245.14,0,0,0-35.51-8.47A50.37,50.37,0,0,0,846.75,826.33Z"/></g><ellipse class="cls-21" cx="914.7" cy="836.56" rx="63.38" ry="46.78" transform="translate(36.16 1711.02) rotate(-87.31)"/><path class="cls-28" d="M941.43,837.82c-.78,16.56-8,29.67-1.41,30s12.63-12.86,13.4-29.42-4-30.24-10.58-30.55S942.21,821.26,941.43,837.82Z"/><ellipse class="cls-60" cx="911.99" cy="838.77" rx="44.03" ry="26.36" transform="translate(31.37 1710.42) rotate(-87.31)"/><path class="cls-60" d="M901.08,799.67c12.67,3.35,21.74,20.66,20.78,41.08-.89,18.93-10.11,34.38-21.75,38.25-9.29-7-15.32-23.07-14.45-41.46C886.44,821,892.61,806.78,901.08,799.67Z"/><path class="cls-21" d="M812.7,1058.52c15.1-13.31,10.57-38-8.36-44.84a132.06,132.06,0,0,1-41.23-24C744.33,973.62,733.38,960.11,727,950a18.53,18.53,0,0,0-27.75-4.29h0A18.49,18.49,0,0,0,702.47,976a139.31,139.31,0,0,1,38.43,30.84c12.69,14.52,22.6,30.52,29.8,44.08a27.18,27.18,0,0,0,42,7.61Z"/><g class="cls-48"><path class="cls-62" d="M796.93,1065.21a27.1,27.1,0,0,1-26.23-14.3c-7.2-13.56-17.11-29.56-29.8-44.08A139.31,139.31,0,0,0,702.47,976a18.41,18.41,0,0,1-9.57-18C737.93,981.21,775,1017.39,796.93,1065.21Z"/></g><g class="cls-48"><path class="cls-62" d="M769.22,994.59a132.38,132.38,0,0,0,35.12,19.09c18.93,6.82,23.46,31.54,8.36,44.84a27.18,27.18,0,0,1-42-7.61,253.17,253.17,0,0,0-20-31.83A51.81,51.81,0,0,0,769.22,994.59Z"/></g><ellipse class="cls-21" cx="811.75" cy="1051.1" rx="65.24" ry="48.15" transform="translate(-498.15 832.21) rotate(-42.83)"/><path class="cls-28" d="M830.48,1071.3c-12.51,11.61-27.3,16-22.66,21s18.55-.34,31.07-11.94,18.89-25.07,14.25-30.07S843,1059.7,830.48,1071.3Z"/><ellipse class="cls-60" cx="808.17" cy="1050.77" rx="45.32" ry="27.13" transform="translate(-498.88 829.69) rotate(-42.83)"/><path class="cls-60" d="M828.35,1014.19c6.89,11.6,1.08,30.85-14.36,45.15-14.3,13.27-32.22,18-43.56,12.41-1.76-11.85,5.39-28,19.29-40.87C802.25,1019.26,817,1013.31,828.35,1014.19Z"/><path class="cls-21" d="M341.2,588.08c-14.28,10.71-12,32.88,4.27,40.24a116.93,116.93,0,0,1,34.79,24.09c15.49,15.52,24.23,28.23,29.17,37.63a16.42,16.42,0,0,0,24.23,5.72h0a16.38,16.38,0,0,0-.73-27,124,124,0,0,1-31.84-30,209.44,209.44,0,0,1-23.28-41.06,24.11,24.11,0,0,0-36.61-9.66Z"/><g class="cls-48"><path class="cls-62" d="M355.61,583.26a24,24,0,0,1,22.2,14.48,209.44,209.44,0,0,0,23.28,41.06,124,124,0,0,0,31.84,30,16.32,16.32,0,0,1,7.21,16.59C401.94,661.66,371.67,627.08,355.61,583.26Z"/></g><g class="cls-48"><path class="cls-62" d="M375.19,647.65a117.18,117.18,0,0,0-29.72-19.33c-16.27-7.36-18.55-29.53-4.27-40.24a24.11,24.11,0,0,1,36.61,9.66,224.49,224.49,0,0,0,15.44,29.53A46.06,46.06,0,0,0,375.19,647.65Z"/></g><ellipse class="cls-21" cx="341.52" cy="594.7" rx="57.88" ry="42.72" transform="translate(-295.2 339.96) rotate(-38.33)"/><path class="cls-28" d="M326.36,575.53c11.88-9.39,25.26-12.25,21.51-17s-16.43-1-28.31,8.4-18.46,20.85-14.7,25.6S314.49,584.92,326.36,575.53Z"/><ellipse class="cls-60" cx="344.67" cy="595.24" rx="40.21" ry="24.07" transform="translate(-294.86 342.02) rotate(-38.33)"/><path class="cls-60" d="M324.26,626.19c-5.28-10.74,1.21-27.35,15.85-38.93,13.58-10.74,29.75-13.64,39.4-7.94.73,10.6-6.72,24.38-19.92,34.81C347.7,623.53,334.24,627.76,324.26,626.19Z"/><path class="cls-21" d="M676.07,487.87C658,480.43,638.4,495,640.59,514.42a128.11,128.11,0,0,1-3.19,46.23c-5.93,23.27-13,38.61-19.07,48.52a18,18,0,0,0,8.18,26h0a18,18,0,0,0,25-15.81,135.2,135.2,0,0,1,10.36-46.74c7.2-17.29,16.88-32.8,25.6-44.9a26.4,26.4,0,0,0-11.41-39.86Z"/><g class="cls-48"><path class="cls-62" d="M688.67,498.74a26.29,26.29,0,0,1-1.19,29c-8.72,12.1-18.4,27.61-25.6,44.9a135.2,135.2,0,0,0-10.36,46.74,17.91,17.91,0,0,1-11.58,16.08C640.84,586.23,656.43,538.38,688.67,498.74Z"/></g><g class="cls-48"><path class="cls-62" d="M639.05,553.22a128.56,128.56,0,0,0,1.54-38.8c-2.19-19.43,17.4-34,35.48-26.55a26.4,26.4,0,0,1,11.41,39.86,246.44,246.44,0,0,0-19.15,31.07A50.39,50.39,0,0,0,639.05,553.22Z"/></g><ellipse class="cls-21" cx="670.01" cy="491.88" rx="46.78" ry="63.38" transform="translate(-28.65 942.13) rotate(-69.08)"/><path class="cls-28" d="M679.57,466.88c15.48,5.92,25.67,16.91,28,10.72s-8.27-16-23.75-21.94-30-5.69-32.33.5S664.08,461,679.57,466.88Z"/><ellipse class="cls-60" cx="671.27" cy="495.14" rx="26.36" ry="44.03" transform="translate(-30.89 945.4) rotate(-69.08)"/><path class="cls-60" d="M630.72,493.27c7.14-11,26.41-14.18,45.51-6.89,17.7,6.77,29.49,20.36,29.53,32.63-9.57,6.63-26.7,7.33-43.9.75C646.35,513.84,634.82,503.54,630.72,493.27Z"/><path class="cls-21" d="M459.83,482.47c-20.59,4.43-29.1,29.33-15.3,45.25a138.35,138.35,0,0,1,25.4,43c8.93,24.29,12,42.23,12.68,54.75a19.38,19.38,0,0,0,23.15,18.1h0a19.35,19.35,0,0,0,12.56-29.31A145.88,145.88,0,0,1,499,566.43c-4.15-19.76-5-39.45-4.67-55.52a28.46,28.46,0,0,0-34.48-28.44Z"/><g class="cls-48"><path class="cls-62" d="M477.67,484.43a28.35,28.35,0,0,1,16.64,26.48c-.36,16.07.52,35.76,4.67,55.52a146.1,146.1,0,0,0,19.33,47.84,19.26,19.26,0,0,1-.46,21.35C488.6,591.36,473.24,539.33,477.67,484.43Z"/></g><g class="cls-48"><path class="cls-62" d="M466.85,563.12a138.37,138.37,0,0,0-22.32-35.4c-13.8-15.92-5.29-40.82,15.3-45.25a28.46,28.46,0,0,1,34.48,28.44,265,265,0,0,0,2,39.3A54.25,54.25,0,0,0,466.85,563.12Z"/></g><ellipse class="cls-21" cx="456.91" cy="489.73" rx="68.31" ry="50.42" transform="translate(-102.26 121.03) rotate(-13.59)"/><path class="cls-28" d="M450.13,461.7c17.37-4.2,33.13-.66,31.45-7.6s-17.12-9.18-34.49-5S417,462.35,418.68,469.3,432.76,465.89,450.13,461.7Z"/><ellipse class="cls-60" cx="460.01" cy="491.87" rx="47.46" ry="28.41" transform="translate(-102.67 121.82) rotate(-13.59)"/><path class="cls-60" d="M422.85,515c-.36-14.13,14.8-28.74,36.22-33.91,19.86-4.8,38.63.07,46.15,10.95-4.45,11.73-19.24,22.81-38.53,27.47C449.29,523.69,432.77,521.58,422.85,515Z"/><ellipse class="cls-60" cx="611.61" cy="849.58" rx="32.32" ry="54.51" transform="translate(-429.27 738.08) rotate(-48.14)"/><ellipse cx="611.61" cy="849.58" rx="29.95" ry="50.5" transform="translate(-429.27 738.08) rotate(-48.14)"/><ellipse class="cls-20" cx="611.61" cy="849.58" rx="27.04" ry="45.59" transform="translate(-429.27 738.08) rotate(-48.14)"/><path d="M647,829.74a12.52,12.52,0,1,1-21.46-10.36l-.49,0a22.8,22.8,0,1,0,25.41,19.84A22.53,22.53,0,0,0,647,829.74Z"/><ellipse class="cls-60" cx="457.3" cy="849.58" rx="54.51" ry="32.32" transform="translate(-406.16 419.05) rotate(-35.21)"/><ellipse cx="457.3" cy="849.58" rx="50.5" ry="29.95" transform="translate(-406.16 419.05) rotate(-35.21)"/><ellipse class="cls-20" cx="457.3" cy="849.58" rx="45.59" ry="27.04" transform="translate(-406.16 419.05) rotate(-35.21)"/><path d="M498.72,822.9a12.52,12.52,0,1,1-21.47-10.35l-.48,0a22.84,22.84,0,1,0,22,10.31Z"/><path class="cls-39" d="M631.69,967.47c-14.5,11.28-44.64,1.53-72.9,2.68-28.22-2-58.5,6.67-72.61-5.12-15.47-10.79,12.11-61.89,73.65-61.54C621.36,905,647.54,957.21,631.69,967.47Z"/><path class="cls-87" d="M632.49,961.48c-14.07,11.81-45.7,1.76-76,3.81-30.34-1.14-61.79,10-76.26-1.26-15.88-10.24,11.61-63.88,75.22-65.4C619.07,898.22,648,950.72,632.49,961.48Z"/><path class="cls-88" d="M629.78,959c-10.7,9.91-41.17-2.36-73.4-.61-32.27-.77-62.49,12.58-73.52,3.06-12.27-8.55,15.13-54.8,72.69-56C613.12,904.94,641.75,950.08,629.78,959Z"/><path class="cls-94" d="M527.15,960.76a241.46,241.46,0,0,1,29.23-2.34c32.23-1.74,62.7,10.52,73.4.61a8.59,8.59,0,0,0,1.7-3.1C606.57,915,538.45,916.9,527.15,960.76Z"/><path d="M420.41,765.66S487.67,747,501,729.36s12.66-55,12.66-55S497.66,726.37,420.41,765.66Z"/><path d="M626.58,803.34s-43.52-12.08-52.14-23.49-8.19-35.57-8.19-35.57S576.6,777.91,626.58,803.34Z"/></g></g></svg>