<svg xmlns="http://www.w3.org/2000/svg" xmlns:xlink="http://www.w3.org/1999/xlink" version="1.1" x="0px" y="0px" viewBox="-64.7349853515625 239.6033447265625 2231.5699462890625 1827.9870361328126" style="enable-background:new 0 0 2100 2100;" xml:space="preserve" height="1827.987060546875" width="2231.56982421875">
<style type="text/css">
	.st0{fill:#FFFFFF;}
	.st1{fill:#DCE3FF;}
	.st2{fill:#B8CAE9;}
	.st3{fill:#D1DBFF;}
	.st4{fill:url(#SVGID_1_);}
	.st5{fill:#A6BBE5;}
	.st6{opacity:0.5;fill:#6280C3;}
	.st7{fill:url(#SVGID_2_);}
	.st8{fill:url(#SVGID_3_);}
	.st9{fill:url(#SVGID_4_);}
	.st10{fill:#D4DEFF;}
	.st11{fill:#98B2FF;}
	.st12{fill:#86ABE0;}
	.st13{fill:#1A317A;}
	.st14{fill:#2C4996;}
	.st15{fill:#6280C6;}
	.st16{opacity:0.75;fill:#2C4996;}
	.st17{fill:url(#SVGID_5_);}
	.st18{fill:url(#SVGID_6_);}
	.st19{opacity:0;fill:#FFFFFF;}
	.st20{opacity:5.555556e-02;fill:#FCFDFF;}
	.st21{opacity:0.1111;fill:#F9FBFE;}
	.st22{opacity:0.1667;fill:#F6F9FE;}
	.st23{opacity:0.2222;fill:#F3F7FD;}
	.st24{opacity:0.2778;fill:#EFF4FD;}
	.st25{opacity:0.3333;fill:#ECF2FD;}
	.st26{opacity:0.3889;fill:#E9F0FC;}
	.st27{opacity:0.4444;fill:#E6EEFC;}
	.st28{opacity:0.5;fill:#E3ECFC;}
	.st29{opacity:0.5556;fill:#E0EAFB;}
	.st30{opacity:0.6111;fill:#DDE8FB;}
	.st31{opacity:0.6667;fill:#DAE6FA;}
	.st32{opacity:0.7222;fill:#D7E4FA;}
	.st33{opacity:0.7778;fill:#D3E1FA;}
	.st34{opacity:0.8333;fill:#D0DFF9;}
	.st35{opacity:0.8889;fill:#CDDDF9;}
	.st36{opacity:0.9444;fill:#CADBF8;}
	.st37{fill:#C7D9F8;}
	.st38{fill:#9BB5FF;}
	.st39{fill:url(#SVGID_7_);}
	.st40{fill:url(#SVGID_8_);}
	.st41{fill:url(#SVGID_9_);}
	.st42{fill:url(#SVGID_10_);}
	.st43{fill:url(#SVGID_11_);}
	.st44{fill:url(#SVGID_12_);}
	.st45{fill:url(#SVGID_13_);}
	.st46{fill:url(#SVGID_14_);}
	.st47{fill:#F9C3B5;}
	.st48{fill:url(#SVGID_15_);}
	.st49{fill:#A7C1FF;}
	.st50{fill:url(#SVGID_16_);}
	.st51{fill:#FAC4B6;}
	.st52{fill:url(#SVGID_17_);}
	.st53{fill:url(#SVGID_18_);}
	.st54{fill:url(#SVGID_19_);}
	.st55{opacity:0.6;fill:#A7C1FF;}
	.st56{fill:url(#SVGID_20_);}
	.st57{fill:#F5B3A6;}
	.st58{fill:url(#SVGID_21_);}
	.st59{fill:url(#SVGID_22_);}
	.st60{fill:url(#SVGID_23_);}
	.st61{fill:#FFA031;}
	.st62{fill:#F4B2A5;}
	.st63{fill:url(#SVGID_24_);}
	.st64{fill:#2C49A1;}
	.st65{fill:url(#SVGID_25_);}
	.st66{fill:url(#SVGID_26_);}
	.st67{fill:url(#SVGID_27_);}
	.st68{fill:url(#SVGID_28_);}
	.st69{opacity:0.5;fill:#2C49A1;}
</style>
<g id="Layer_1">
	
	<g>
		<g>
			<path class="st1" d="M762,1664.8c-205.5-13.4-631.5,39.5-652.6-520.2C96.4,801.3,528.5,621.3,629.3,567     c100.8-54.3,242.5-298.6,602.5-233.3c320.5,58.1,367.3,266.7,450.4,615.7c50.4,211.6,342.1,234.5,320.9,465.8     C1983.4,1630.5,1642.3,1722.1,762,1664.8z"/>
		</g>
		<g>
			<g>
				<g>
					<path class="st2" d="M1443.7,850c0,0-35.8-74.6,16-160.5c51.8-86,90.1-106.3,95.5-110.9c5.4-4.6,28-59.5,63.4-74.2       s115.2-86,149.7-47.4c34.5,38.6-5.7,93-19.1,115.3c-13.4,22.3-30.8,30.9-45.3,55.6c-14.5,24.7-59.7,6.1-74.8,39.1       c-15.1,33,27.4,61.1-108.7,173.2C1485,869.4,1448.8,864,1443.7,850z"/>
					<g>
						<path class="st3" d="M1781.3,484.3c0.4,2.6,0.6,5.2,0.6,7.8c-13.8-3.4-26.5-7.6-26.6-12        C1755.2,475.8,1767.6,479.2,1781.3,484.3z"/>
						<path class="st3" d="M1714.9,505.6c5.8-2.3,37.6,5.6,62.7,12.5c-2.1,6.5-4.8,12.8-7.7,18.8        C1743.1,526.9,1708,508.3,1714.9,505.6z"/>
						<path class="st3" d="M1697.5,524.6c0.6-1.7,35.7,22,58.1,37.2c-2.4,3.9-4.7,7.4-6.4,10.3c-1.6,2.6-3.2,5-4.8,7.2        C1724.1,561.6,1696.9,526.3,1697.5,524.6z"/>
						<path class="st3" d="M1676.3,533.7c6.8-6.9,35.8,32.8,57.6,58.1c-4.7,5-9.5,9.7-14.3,14.9        C1699.6,581.5,1671.4,538.8,1676.3,533.7z"/>
						<path class="st3" d="M1708.9,620.1c-1.6,2.3-3.3,4.8-4.8,7.5c-25.2-18.7-62.1-61.7-57.4-61.5        C1650.5,566.2,1689,599.5,1708.9,620.1z"/>
						<path class="st3" d="M1640.9,652.9c-1.2,0.8-2.4,1.7-3.5,2.7c-15.5-16.6-45.8-51-35.7-57.2        C1611.8,592.2,1631.6,632.3,1640.9,652.9z"/>
						<path class="st3" d="M1659.5,645.7c-0.8,0.2-1.6,0.4-2.4,0.6c-9.7-13.2-34.9-49-27.2-55.3        C1638,584.2,1654.9,629.2,1659.5,645.7z"/>
						<path class="st3" d="M1625.4,681.7c-0.6,5.8-0.4,11.9-0.9,18.8c-30.6-14.9-78.3-39.9-74.4-48.7        C1554.1,642.7,1598.8,666.5,1625.4,681.7z"/>
						<path class="st3" d="M1618.3,729c-1.9,4.7-4.3,9.8-7.4,15.3c-25-20.7-71.8-60.6-70.2-66.9        C1542.3,671.3,1590.5,707.5,1618.3,729z"/>
						<path class="st3" d="M1586.2,778.1c-6.4,7.3-13.8,15.2-22.6,23.7c-15.6-23.8-45.7-72.2-38.5-82.2        C1532.7,709.1,1567.3,750,1586.2,778.1z"/>
						<path class="st3" d="M1509.4,848.1c-9.4,6-18.6,9.7-27.1,11.6c2.3-34.5,7.5-83.2,18.5-87        C1513.9,768.3,1511.4,821.4,1509.4,848.1z"/>
						<path class="st3" d="M1482.9,708.5c-0.3,19.3-31,39.2-48.8,49.1c1.5-8.8,3.7-18,6.8-27.5        C1461.7,710.6,1483.1,693.7,1482.9,708.5z"/>
						<path class="st3" d="M1480.6,657.1c2-2.9,4-5.6,5.9-8.3c33.2-9.6,38-14,35.7-5.4C1520.6,649.6,1499.7,651.4,1480.6,657.1z"/>
						<path class="st3" d="M1535,594.1c18.7-2.3,35.6-3.6,27.9,0.8c-11.7,6.7-25.7,8.5-37.8,8.4C1528.7,599.8,1532,596.7,1535,594.1        z"/>
						<path class="st3" d="M1563.6,564.9c20.2-2.7,40.5-4.5,32.2,0.3c-11.5,6.6-25.2,8.4-37.2,8.4        C1560,571.2,1561.7,568.3,1563.6,564.9z"/>
						<path class="st3" d="M1597.1,519c7.6,4.2,15,9.8,11.6,14.8c-3.7,5.5-12.4-0.9-18.9-7.2C1592.1,523.9,1594.5,521.4,1597.1,519z        "/>
						<path class="st3" d="M1624.1,501.7c5-2.5,10.6-5.8,16.7-9.5c4.6,8.3,8.4,19.3,2,22.6C1636.8,518.1,1629.3,509.5,1624.1,501.7z        "/>
						<path class="st3" d="M1706.6,454.5c4.8-2.1,9.6-3.9,14.3-5.4c-3.3,12.3-7.6,23.6-10.4,24.9        C1707.3,475.5,1705.8,466.2,1706.6,454.5z"/>
						<path class="st3" d="M1667.1,499.1c-3.4-2.1,1.7-15.4,7.3-27.6c2.8-1.7,5.6-3.3,8.4-4.9        C1678.9,487.6,1672.3,502.3,1667.1,499.1z"/>
					</g>
				</g>
				
					<linearGradient id="SVGID_1_" gradientUnits="userSpaceOnUse" x1="730.9059" y1="919.962" x2="730.9059" y2="374.35" gradientTransform="matrix(-0.9384 -0.3456 -0.3456 0.9384 2494.9636 333.9653)">
					<stop offset="0" style="stop-color:#6280C3"/>
					<stop offset="1" style="stop-color:#98B2FF;stop-opacity:0.5"/>
				</linearGradient>
				<path class="st4" d="M1425.8,920.6c0.2,0.1,0.4,0.1,0.5,0.2c1.9,0.4,3.8-0.9,4.1-2.8c36-183.7,122.3-296.7,188.3-359.1      c71.5-67.5,135-91.9,135.7-92.1c1.8-0.7,2.7-2.7,2.1-4.5c-0.7-1.8-2.7-2.7-4.5-2.1c-0.6,0.2-65.6,25.1-138,93.6      c-66.8,63.1-154.1,177.3-190.4,362.8C1423.3,918.3,1424.2,920,1425.8,920.6z"/>
			</g>
			<g>
				<path class="st5" d="M866.6,1393.2c0,0-32.5-182.7-218.6-161.7s-231,129.5-231,129.5S658.9,1633.1,866.6,1393.2z"/>
				<path class="st6" d="M652.9,1392.1c-134.3,2.7-205.7-23.7-232.9-37.1c-2,3.8-3,6-3,6s2.2,2.5,6.3,6.7      c32.7,14.6,103.8,36.9,229.7,34.3c111-2.2,177-4.8,211.4-6.5c0.7-0.8,1.4-1.5,2.1-2.3c0,0-0.5-2.8-1.7-7.6      C830.8,1387.2,764.8,1389.8,652.9,1392.1z"/>
			</g>
			<g>
				<path class="st2" d="M1465.8,632.5c0,0,57.4-35.9,24.9-96s-75.2-60.5-75.2-60.5S1356.3,594.9,1465.8,632.5z"/>
				
					<linearGradient id="SVGID_2_" gradientUnits="userSpaceOnUse" x1="1072.568" y1="978.3555" x2="1166.2366" y2="978.3555" gradientTransform="matrix(-0.908 -0.4189 -0.4189 0.908 2880.051 171.5413)">
					<stop offset="0" style="stop-color:#6280C3"/>
					<stop offset="1" style="stop-color:#98B2FF"/>
				</linearGradient>
				<path class="st7" d="M1468.2,666.9c0.2,0.1,0.3,0.1,0.5,0.2c1.1,0.2,2.1-0.5,2.3-1.6c8.5-48.7-28.9-145.3-30.5-149.4      c-0.4-1-1.5-1.5-2.5-1.1c-1,0.4-1.5,1.5-1.1,2.5c0.4,1,38.6,99.7,30.3,147.3C1466.9,665.7,1467.4,666.6,1468.2,666.9z"/>
			</g>
			<path class="st3" d="M918.4,544.1c0,0-61.1-28.2-36.6-91.5s66.7-69.1,66.7-69.1S1021.7,493.3,918.4,544.1z"/>
			<linearGradient id="SVGID_3_" gradientUnits="userSpaceOnUse" x1="912.9513" y1="501.6329" x2="932.72" y2="501.6329">
				<stop offset="0" style="stop-color:#6280C3"/>
				<stop offset="1" style="stop-color:#98B2FF"/>
			</linearGradient>
			<path class="st8" d="M920.4,578.3c-0.1,0.1-0.3,0.2-0.5,0.2c-1,0.3-2.1-0.3-2.4-1.3c-14.5-47,10.4-147,11.4-151.2     c0.3-1,1.3-1.7,2.4-1.4c1,0.3,1.7,1.3,1.4,2.4c-0.3,1-25.6,103.2-11.5,149.1C921.4,577,921.1,577.9,920.4,578.3z"/>
			<g>
				<path class="st5" d="M1596.1,1326.1c0.1,0.5,0.3,0.9,0.5,1.3c1.4,2.7,4.7,3.7,7.4,2.2c122.4-65.5,271.2-315.5,277.5-326.1      c1.5-2.6,0.7-6-1.9-7.5c-2.6-1.5-6-0.7-7.5,1.9c-1.5,2.6-153.5,257.9-273.2,322C1596.6,1321.2,1595.6,1323.8,1596.1,1326.1z"/>
				<path class="st2" d="M1668.1,1261.3c0,0,178.6,64.8,255.3-111c76.7-175.8,3.5-271.1,3.5-271.1S1561.8,954.2,1668.1,1261.3z"/>
			</g>
			<g>
				<path class="st5" d="M1392.8,1339.2c-0.3-0.4-0.5-0.8-0.7-1.3c-1-2.9,0.5-6.1,3.4-7.1c133.3-47.6,423.3,10.7,435.6,13.2      c3,0.6,4.9,3.6,4.3,6.6c-0.6,3-3.6,5-6.6,4.3c-3-0.6-299.2-60.2-429.6-13.7C1396.9,1342.2,1394.2,1341.2,1392.8,1339.2z"/>
				<path class="st2" d="M1491,1329.2c0,0,73.9-178.7,258.7-116.7s206.1,182.1,206.1,182.1S1648.7,1618.6,1491,1329.2z"/>
			</g>
			<g>
				<path class="st5" d="M561.1,1293.8c0,0-84.1-165.4-256.1-91.2s-183.4,191-183.4,191S432,1583.7,561.1,1293.8z"/>
				<path class="st6" d="M356.3,1354.8c-127.7,41.6-203.7,37-233.6,32.2c-0.9,4.2-1.1,6.6-1.1,6.6s2.8,1.7,8,4.6      c35.6,4.5,110,5.1,229.8-33.9c105.6-34.4,167.9-56,200.4-67.6c0.4-0.9,0.9-1.8,1.3-2.8c0,0-1.3-2.5-3.9-6.8      C525.1,1298.5,462.6,1320.1,356.3,1354.8z"/>
			</g>
			<g>
				<path class="st2" d="M611.9,1239.5c0,0,66.6-221.1-152.8-299.1s-330.5,18.3-330.5,18.3S245.1,1393.5,611.9,1239.5z"/>
				<path class="st6" d="M374.2,1121.9c-151.3-70.1-216-138.5-238.9-168.2c-4.4,3.1-6.7,5-6.7,5s1.1,3.9,3.3,10.9      c28.3,34.1,95,97.6,236.9,163.4c125.1,58,200.1,91.1,239.5,108c1.2-0.5,2.4-0.9,3.6-1.4c0,0,1-3.4,2.4-9.4      C575.3,1213.4,500.2,1180.3,374.2,1121.9z"/>
			</g>
			<g>
				
					<linearGradient id="SVGID_4_" gradientUnits="userSpaceOnUse" x1="-128.2417" y1="1642.6223" x2="115.9543" y2="1642.6223" gradientTransform="matrix(0.4937 0.8696 0.8696 -0.4937 -230.1732 1337.7622)">
					<stop offset="0" style="stop-color:#6280C3"/>
					<stop offset="0.3503" style="stop-color:#7A96DE"/>
					<stop offset="0.7531" style="stop-color:#90AAF6"/>
					<stop offset="1" style="stop-color:#98B2FF"/>
				</linearGradient>
				<path class="st9" d="M1359.1,565.4c-0.8-1.3-2.4-1.9-3.9-1.3c-119.2,53-196.4,32.4-240.2,5.8c-44-26.8-68.7-69.7-70.4-98.3      c-0.1-1.7-1.5-2.9-3.2-2.8c-1.7,0.1-2.9,1.5-2.8,3.2c1.7,29.2,25.4,73.9,73.3,103.1c45,27.4,124.2,48.7,245.8-5.4      c1.5-0.7,2.2-2.5,1.5-4C1359.2,565.6,1359.2,565.5,1359.1,565.4z"/>
				<g>
					<path class="st2" d="M1027.2,375.2c0,0-0.4,104.8,14.9,110.1C1057.8,490.8,1027.2,375.2,1027.2,375.2z"/>
					<path class="st2" d="M982.8,403.4c0,0,58.7,92.8,61.3,88.4C1046.7,487.4,1014.6,439.9,982.8,403.4z"/>
					<path class="st2" d="M965.8,442.1c0,0,27.1,10.8,52.2,32.6s34.8,32.5,34.8,32.5s-26.7-11-43-24.4       C993.5,469.3,965.8,442.1,965.8,442.1z"/>
					<path class="st2" d="M956.5,479.9c0,0,43.1,12.5,60.1,21s43.9,19.9,43.9,19.9s-30.6-5.8-47-11.6       C997.1,503.3,956.5,479.9,956.5,479.9z"/>
					<path class="st2" d="M953.9,517.4c0,0,39.6-1,60.4,2.9c20.8,3.9,49.3,13.9,49.3,13.9s-33.7,1.1-51.1-1.8       C995.1,529.5,953.9,517.4,953.9,517.4z"/>
					<path class="st2" d="M961.7,549.6c0,0,50.9-9.7,69.5-9.2s44.3,6.8,44.3,6.8s-21.9,6.6-44.2,5.3       C1009.1,551.1,961.7,549.6,961.7,549.6z"/>
					<path class="st2" d="M977.2,576.8c0,0,34.7-13.9,65-17.1c30.3-3.3,47.4-1.9,47.4-1.9s-33.8,11.1-54.6,12.4       C1014.3,571.5,977.2,576.8,977.2,576.8z"/>
					<path class="st2" d="M997.2,599.8c0,0,22.5-14.5,62.9-22.3s45.8-6.3,45.8-6.3s-38.2,18.8-51,20.2       C1042.1,592.9,997.2,599.8,997.2,599.8z"/>
					<path class="st2" d="M1017.1,621.6c0,0,31.4-22.5,54.4-28c23-5.5,52.5-14.1,52.5-14.1s-31.1,18.8-50.7,25.9       S1017.1,621.6,1017.1,621.6z"/>
					<path class="st2" d="M1038.8,645.3c0,0,18.9-24.1,51.6-38c32.8-14,46.5-22.5,46.5-22.5s-30.6,24-43.3,32.3       C1080.9,625.5,1038.8,645.3,1038.8,645.3z"/>
					<path class="st2" d="M1063.9,657.8c0,0,22-24.7,41.9-37.7c19.9-13,45.7-26,45.7-26s-17.5,20.4-36.6,34.8       S1063.9,657.8,1063.9,657.8z"/>
					<path class="st2" d="M1088.1,670.8c0,0,10.1-22,40.4-44.4s43.8-31.3,43.8-31.3s-23.5,27.3-38.6,40.5       C1118.6,648.8,1088.1,670.8,1088.1,670.8z"/>
					<path class="st2" d="M1116.7,681.9c0,0,8.7-23,27.1-39.8c18.4-16.8,48.1-44.2,48.1-44.2s-20.7,31.5-35,46.6       C1142.7,659.5,1116.7,681.9,1116.7,681.9z"/>
					<path class="st2" d="M1142.7,685.1c0,0,2.5-13,27.2-42.2c24.7-29.1,42.6-42.8,42.6-42.8s-20,29.3-31.9,47.7       C1168.7,666.3,1142.7,685.1,1142.7,685.1z"/>
					<path class="st2" d="M1173.5,690.3c0,0-0.5-10.2,19.7-39.1c20.2-28.9,41.7-54.5,41.7-54.5s-16.3,29.6-31.1,53.7       C1189,674.5,1173.5,690.3,1173.5,690.3z"/>
					<path class="st2" d="M1206.7,683.1c0,0-5.6-11.9,14.4-40.1c20-28.2,31.8-49.4,31.8-49.4s-13.7,41.5-22.7,55.3       C1221.2,662.6,1206.7,683.1,1206.7,683.1z"/>
					<path class="st2" d="M1233.8,681.7c0,0,1.6-25.9,11.2-48.8c9.7-22.9,23.8-42,23.8-42s-6.1,35.4-13.3,52.9       C1248.3,661.2,1233.8,681.7,1233.8,681.7z"/>
					<path class="st2" d="M1286.6,585.4c0,0-10.2,12.8-19.7,42c-9.5,29.3-4.3,42.6-4.3,42.6s7.2-18,15.5-44.3       C1286.5,599.5,1286.6,585.4,1286.6,585.4z"/>
					<path class="st2" d="M1307.2,576.6c0,0-17.6,27.4-16.3,47c1.3,19.6,0.2,33,0.2,33s11.7-31.6,10.8-39.3       C1301,609.8,1307.2,576.6,1307.2,576.6z"/>
					<path class="st2" d="M1048.7,489.2c0,0,18.2-37.1,22.3-52.2s12.4-56.5,12.4-56.5s-16,39.9-22.2,57.1       C1055,454.8,1048.7,489.2,1048.7,489.2z"/>
					<path class="st2" d="M1052.8,507.1c0,0,19.1-44,23.3-53.9c4.2-10,18.4-37.2,25-41.5c6.6-4.3-13.2,42.8-16.8,50.7       C1080.7,470.4,1052.8,507.1,1052.8,507.1z"/>
					<path class="st2" d="M1059.3,518.6c0,0,6.3-16.4,25.6-41.8s37.8-48.2,37.8-48.2s-21.7,47.2-30.6,56.3       S1059.3,518.6,1059.3,518.6z"/>
					<path class="st2" d="M1071.5,536.6c0,0,3.8-17.9,23-47.3c19.1-29.5,38.3-47.9,38.3-47.9s-26,52.5-34.5,61.6       C1089.9,512.3,1071.5,536.6,1071.5,536.6z"/>
					<path class="st2" d="M1087.4,553.8c2.1-11.7,9.6-36.3,15.5-45.4c5.9-9.1,33.8-55.2,33.8-55.2s-15.7,40.9-25.5,61       C1101.3,534.3,1087.4,553.8,1087.4,553.8z"/>
					<path class="st2" d="M1103.2,566.3c0,0,5-26.1,18.8-56c13.8-29.9,21.6-44.8,21.6-44.8s-15.7,50.1-22.5,66.2       S1103.2,566.3,1103.2,566.3z"/>
					<path class="st2" d="M1124,579.5c0,0-2.1-23.2,6.9-50.4c9-27.2,20.6-59.9,20.6-59.9s-6.8,63.7-11.4,76.2       C1135.6,557.8,1124,579.5,1124,579.5z"/>
					<path class="st2" d="M1148.8,589.3c0,0-7-20.5-2.3-47.5c4.7-27.1,13.9-65.7,13.9-65.7s-1.9,55.4-3.7,69.8       S1148.8,589.3,1148.8,589.3z"/>
					<path class="st2" d="M1167,592.7c0,0-9.4-21.8-6.4-50.2c3-28.5,4.1-58.7,4.1-58.7s11,57.7,9.8,64.8S1167,592.7,1167,592.7z"/>
					<path class="st2" d="M1189.9,595c0,0-10.4-31.3-10.3-47c0.1-15.7-0.4-59.6-0.4-59.6s9.4,49.1,10.2,61.8       C1190.1,562.9,1189.9,595,1189.9,595z"/>
					<path class="st2" d="M1190.1,490.2c0,0,0.5,49,6.4,68.7c5.9,19.7,13.7,37.4,13.7,37.4s-0.1-22.8-4.2-42.7       C1202,533.5,1190.1,490.2,1190.1,490.2z"/>
					<path class="st2" d="M1199.5,495.4c0,0,8.3,48.4,13.7,63c5.4,14.6,16.2,36.3,16.2,36.3S1224.2,551.1,1199.5,495.4z"/>
					<path class="st2" d="M1207.8,496.7c0,0,13.5,41.5,27.3,72.6s16.6,22,16.6,22S1234.6,538.8,1207.8,496.7z"/>
					<path class="st2" d="M1220.6,506c0,0,10.3,26.9,18.7,45.6s29.7,35.6,29.7,35.6s-13.1-30.2-19.9-41.2       C1242.3,535,1220.6,506,1220.6,506z"/>
					<path class="st2" d="M1234,507.1c0,0,8.2,20.6,23.9,42.1c15.7,21.5,34,33.2,34,33.2s-24.5-34.9-30.2-41       C1255.9,535.4,1234,507.1,1234,507.1z"/>
					<path class="st2" d="M1256.9,514.5c0,0,7.8,22.9,17.3,36.7s29.9,24.3,29.9,24.3s-18.1-23.5-24.2-30.1       C1269.8,534.3,1256.9,514.5,1256.9,514.5z"/>
				</g>
			</g>
			<path class="st10" d="M1884.2,932.5c-24.1,14.6-65,22.6-69.9,23c-6.5,0.5-8.1-6.7-5.5-11c2.5-4.3,15.3-4.8,39.3-19.9     c12.4-7.8,20.6-22.2,25.7-34.4c-10.4-20.1-25.3-44.9-26.3-63.3c0,0-19.4,6.1-38.7,7.9c-3.6,20.7-13.4,69.3-25.8,63.8     c-10.8-4.8-7.1-42-3.7-64.8c-8-0.5-17,0-27.6,3.3c-1.9,10.6-5.3,31.7-3.6,42.4c2.3,14.6,8.7,37.2,8.7,37.2s-5.6,12-17-23.6     c-5.7-18-3.9-36.7-0.7-50.9c-14.6,7.1-31.9,19.6-53.6,41.4c-1.5,1.6-3,3.1-4.4,4.7c-1.4,11.8-1,26.1,5.7,36.4     c13.3,20.4,34.3,31.1,34.3,31.1s9,14.7-6.2,9.6c-14.3-4.8-42.5-12.6-44.6-62.6c-28.7,47.3,11.6,87.4,26.3,97.8     c16.6,11.8,39.1-10.9,53.8-5.1c14.6,5.8,0.8,36.4,19.9,52.4c19,16.1,57.7,6.9,83.9-29.3C1874.9,990.2,1883,956.6,1884.2,932.5z      M1841.5,881.4c3.5-4.6,17-11.9,12.2,0c-4.8,11.9-13.9,23.7-16.5,14.5C1834.5,886.8,1838,886,1841.5,881.4z M1849.5,983.2     c-19.2,15.2-40.5,15.2-40.1,9.6c0.4-5.7,13.5-6.1,22.6-10c9.1-3.9,20.9-26,29.6-23.9C1861.7,958.9,1868.7,968,1849.5,983.2z"/>
			<g>
				<g>
					<path class="st11" d="M749.1,487.7c17.3,0.5,31,15.7,31,15.7s-14.5,14.4-31.8,13.9c-17.3-0.5-31-15.7-31-15.7       S731.8,487.2,749.1,487.7z"/>
					<path class="st11" d="M774.7,522c17.3,0.5,31,15.7,31,15.7s-14.5,14.4-31.8,13.9c-17.3-0.5-31-15.7-31-15.7       S757.4,521.5,774.7,522z"/>
					<path class="st11" d="M790.5,557.5c16.8-4.2,34,6.8,34,6.8s-10.1,17.7-26.9,21.9c-16.8,4.2-34-6.8-34-6.8       S773.6,561.6,790.5,557.5z"/>
					<path class="st11" d="M816.1,593.6c13.5-3.4,27.3,5.4,27.3,5.4s-8.1,14.2-21.6,17.6c-13.5,3.4-27.3-5.4-27.3-5.4       S802.6,596.9,816.1,593.6z"/>
					<path class="st11" d="M835.9,629.6c13.5-3.4,27.3,5.4,27.3,5.4s-8.1,14.2-21.6,17.6c-13.5,3.4-27.3-5.4-27.3-5.4       S822.4,633,835.9,629.6z"/>
				</g>
				<path class="st11" d="M790.1,456.3c0.1,17.3-14.6,31.5-14.6,31.5s-14.9-14-15-31.3s14.6-31.5,14.6-31.5S790,439,790.1,456.3z"/>
				<path class="st11" d="M818.3,489.5c-4.5,16.7-22.4,26.5-22.4,26.5s-10.6-17.4-6.1-34.2c4.5-16.7,22.4-26.5,22.4-26.5      S822.8,472.8,818.3,489.5z"/>
				<path class="st11" d="M845.4,525.7c-4.5,16.7-22.4,26.5-22.4,26.5s-10.6-17.4-6.1-34.2c4.5-16.7,22.4-26.5,22.4-26.5      S849.9,509,845.4,525.7z"/>
				<path class="st11" d="M870.4,566.6c-9.9,14.2-30.1,17.3-30.1,17.3s-4.1-20,5.9-34.2s30.1-17.3,30.1-17.3      S880.3,552.4,870.4,566.6z"/>
				<path class="st11" d="M889.9,606c-12.3,12.2-32.7,11.6-32.7,11.6s-0.4-20.4,11.9-32.6c12.3-12.2,32.7-11.6,32.7-11.6      S902.2,593.8,889.9,606z"/>
				<path class="st11" d="M876.8,684.8c-0.6,0.4-1.3,0.5-2,0.4c-1.8-0.4-3.2-2.2-3.3-4.1c0-0.5-1.2-38.7-43.5-105.8      c-42.8-67.9-80.2-105-80.6-105.3c-1.4-1.4-1.8-3.6-0.7-4.9c1-1.3,3-1.2,4.5,0.2c0.4,0.4,38.5,38,81.9,107      c43.8,69.5,44.8,108.5,44.8,110.1C878,683.5,877.5,684.4,876.8,684.8z"/>
				<path class="st11" d="M740.6,437.4c11.9,12.6,10.7,33,10.7,33s-20.4-0.1-32.3-12.7c-11.9-12.6-10.7-33-10.7-33      S728.7,424.8,740.6,437.4z"/>
			</g>
			<g>
				<path class="st12" d="M1430.3,1510.8c2.3,0.6,4.6-0.7,5.4-2.9c65.3-185.7,167.9-249,242.5-269.5c74.9-20.5,147.6-3.2,180.7,24.6      c1.9,1.6,4.8,1.4,6.4-0.6c1.6-1.9,1.4-4.8-0.6-6.4c-33.8-28.4-107.4-48.7-189-26.4c-76.7,21-182.1,85.8-248.7,275.2      c-0.8,2.4,0.4,5,2.8,5.8C1430,1510.7,1430.2,1510.7,1430.3,1510.8z"/>
				<g>
					<path class="st12" d="M1982.7,1343.7c0,0-114.6-109-136.2-97.8C1824.2,1257.5,1982.7,1343.7,1982.7,1343.7z"/>
					<path class="st12" d="M1997.8,1265.8c0,0-162.6-31.7-160.5-24.3S1924.8,1262.8,1997.8,1265.8z"/>
					<path class="st12" d="M1973,1207.1c0,0-39.9,18.5-89.8,23.5s-71.8,4.5-71.8,4.5s39.7-17.9,71.3-21.9S1973,1207.1,1973,1207.1z"/>
					<path class="st12" d="M1941.1,1157.7c0,0-58.4,34.3-85.3,44.3c-26.9,9.9-67.3,27.6-67.3,27.6s38-27.6,61.4-39.6       C1873.3,1178,1941.1,1157.7,1941.1,1157.7z"/>
					<path class="st12" d="M1902.6,1116.1c0,0-39.9,44.4-65.7,63.2s-66.3,39.7-66.3,39.7s33.7-38.1,54.9-54.2       S1902.6,1116.1,1902.6,1116.1z"/>
					<path class="st12" d="M1859.3,1091.3c0,0-42.1,66-61.9,85.8c-19.8,19.8-53.4,41.5-53.4,41.5s15.4-30.9,39.9-53.9       C1808.4,1141.7,1859.3,1091.3,1859.3,1091.3z"/>
					<path class="st12" d="M1813.3,1080c0,0-20.7,52.4-48.5,89.1s-47,54-47,54s22.9-48.6,42.9-72.7       C1780.8,1126.2,1813.3,1080,1813.3,1080z"/>
					<path class="st12" d="M1767.5,1078.2c0,0-7.4,39.8-40.6,92.1c-33.2,52.3-40.6,56.8-40.6,56.8s19-61.3,30.6-76.9       S1767.5,1078.2,1767.5,1078.2z"/>
					<path class="st12" d="M1722.9,1077.5c0,0-7.9,57.7-25.7,88.7s-38.9,72.1-38.9,72.1s11.6-53.7,24.1-82.4       S1722.9,1077.5,1722.9,1077.5z"/>
					<path class="st12" d="M1674.4,1076.6c0,0,6.9,45.6-11.8,96c-18.6,50.4-23.4,74.3-23.4,74.3s5.4-58.3,9.4-80.9       S1674.4,1076.6,1674.4,1076.6z"/>
					<path class="st12" d="M1634.7,1091.2c0,0,4.3,49.7-2,85.1c-6.3,35.4-18.9,77-18.9,77s-4.3-40.3-0.2-76.2       C1617.8,1141.2,1634.7,1091.2,1634.7,1091.2z"/>
					<path class="st12" d="M1595.4,1104.4c0,0,13.7,33.9,6.9,90.3c-6.8,56.4-11.1,80.5-11.1,80.5s-5.6-54-4.5-84.3       C1587.9,1160.6,1595.4,1104.4,1595.4,1104.4z"/>
					<path class="st12" d="M1553.6,1124.3c0,0,16.1,33.4,15.6,70.9c-0.6,37.5-1.4,98.6-1.4,98.6s-13.1-55.4-14.9-86.7       C1551.2,1175.9,1553.6,1124.3,1553.6,1124.3z"/>
					<path class="st12" d="M1523.1,1149.4c0,0,11.7,16.2,18.1,73.5s2.8,91,2.8,91s-11.5-52.3-19.3-84.4       C1516.9,1197.4,1523.1,1149.4,1523.1,1149.4z"/>
					<path class="st12" d="M1485.5,1177.9c0,0,11.7,9.9,22.5,62c10.8,52.1,16.6,102.2,16.6,102.2s-15.6-48.6-26.7-89.8       S1485.5,1177.9,1485.5,1177.9z"/>
					<path class="st12" d="M1459.1,1221.7c0,0,18.9,6.2,29.1,57.4c10.2,51.2,21.3,86.1,21.3,86.1s-31.3-57.9-37.2-82.1       C1466.5,1258.8,1459.1,1221.7,1459.1,1221.7z"/>
					<path class="st12" d="M1432.6,1252.9c0,0,26.8,28.5,41.9,62.9c15.1,34.3,21.4,69.6,21.4,69.6s-32.6-43.3-44.2-69.3       S1432.6,1252.9,1432.6,1252.9z"/>
					<path class="st12" d="M1483.5,1410.6c0,0-3.4-24.4-25.6-65.2s-42.2-48.8-42.2-48.8s12.3,26.6,32.5,62.9       C1468.2,1395.8,1483.5,1410.6,1483.5,1410.6z"/>
					<path class="st12" d="M1471.8,1442.2c0,0-11.9-47.7-34.7-66.6s-36.4-34-36.4-34s22.6,45.6,31.9,52.6       C1441.8,1401.1,1471.8,1442.2,1471.8,1442.2z"/>
					<path class="st12" d="M1835.4,1249.2c0,0,21.9,58.3,34.2,78.6c12.3,20.3,49.1,72.1,49.1,72.1s-27.2-58.9-39.6-83.5       C1866.6,1291.7,1835.4,1249.2,1835.4,1249.2z"/>
					<path class="st12" d="M1811.4,1235.2c0,0,28.4,66.5,35,81.4c6.5,14.9,21.7,58.7,19.6,70.4c-2.1,11.7-33.3-58.8-38.2-71       S1811.4,1235.2,1811.4,1235.2z"/>
					<path class="st12" d="M1792.2,1230.4c0,0,11.4,23.9,19.4,71.3c8,47.5,13.7,91.3,13.7,91.3s-29.3-72.6-30.1-91.9       S1792.2,1230.4,1792.2,1230.4z"/>
					<path class="st12" d="M1759.7,1225.2c0,0,15.6,22.7,28.1,74.2c12.5,51.5,12.8,91.6,12.8,91.6s-30.6-82.9-31.9-101.6       S1759.7,1225.2,1759.7,1225.2z"/>
					<path class="st12" d="M1724.5,1224.7c10.6,14.4,29.8,48.1,33.8,64c4,15.9,25.6,94.2,25.6,94.2s-28.6-59.6-40.5-91.2       C1731.5,1260.2,1724.5,1224.7,1724.5,1224.7z"/>
					<path class="st12" d="M1694.4,1229.1c0,0,23.4,32.4,42,78.6c18.5,46.1,26.7,70.1,26.7,70.1s-38.8-69.1-49.3-93.3       S1694.4,1229.1,1694.4,1229.1z"/>
					<path class="st12" d="M1658.4,1238.3c0,0,27.7,21.7,48.2,59.7c20.5,38,44.4,84.7,44.4,84.7s-62.8-73.5-71.8-91.4       C1670.2,1273.4,1658.4,1238.3,1658.4,1238.3z"/>
					<path class="st12" d="M1622,1255.3c0,0,29.7,13.5,54.5,46.7c24.8,33.2,57.7,83.2,57.7,83.2s-58.8-59.6-72.8-76.3       C1647.5,1292.2,1622,1255.3,1622,1255.3z"/>
					<path class="st12" d="M1599.4,1271.8c0,0,33.7,12.2,61.7,45c28.1,32.8,60.1,65.4,60.1,65.4s-74.7-47.7-81.2-56.4       C1633.6,1317,1599.4,1271.8,1599.4,1271.8z"/>
					<path class="st12" d="M1573.1,1294.6c0,0,45.1,21,62.3,37.4c17.2,16.4,65.8,61.3,65.8,61.3s-63.6-40.5-78.4-52.9       S1573.1,1294.6,1573.1,1294.6z"/>
					<path class="st12" d="M1687.9,1403.3c0,0-54.3-50.2-82-64.1c-27.7-13.9-55.1-23.7-55.1-23.7s25.1,23.4,51.2,39.6       C1628.1,1371.4,1687.9,1403.3,1687.9,1403.3z"/>
					<path class="st12" d="M1672.4,1408.2c0,0-61.6-41-83.2-50.2c-21.6-9.2-56.6-19.8-56.6-19.8S1585.8,1377.5,1672.4,1408.2z"/>
					<path class="st12" d="M1662.4,1415.9c0,0-59.5-28.2-107.9-45.3c-48.4-17-41.3-4.6-41.3-4.6S1588.5,1401.8,1662.4,1415.9z"/>
					<path class="st12" d="M1638.8,1420.4c0,0-40.2-16.5-69.4-26.6c-29.2-10.1-69.8-4.4-69.8-4.4s46.6,16.9,65.8,20.8       S1638.8,1420.4,1638.8,1420.4z"/>
					<path class="st12" d="M1623.8,1434c0,0-31.1-12.3-70.9-17.4s-71.6,2.9-71.6,2.9s63.7,9.3,76.2,9.3       C1570.1,1428.6,1623.8,1434,1623.8,1434z"/>
					<path class="st12" d="M1592,1451.3c0,0-33.2-15.2-58.2-19c-25-3.8-57.6,7.7-57.6,7.7s44.5,4.5,58.1,4.6       C1556.9,1445,1592,1451.3,1592,1451.3z"/>
				</g>
			</g>
			<g>
				<path class="st12" d="M760.6,1304.2c-1.9,1.3-4.5,1-6-0.8c-125.4-148.7-242.4-171.3-318.4-164.1c-76.4,7.3-137.5,48.7-158.3,86      c-1.2,2.2-4,3-6.2,1.7c-2.2-1.2-3-4-1.7-6.2c21.3-38.1,82.2-82.6,165.4-90.5c78.2-7.4,198.3,15.5,326.2,167.3      c1.6,1.9,1.4,4.8-0.5,6.4C760.8,1304,760.7,1304.1,760.6,1304.2z"/>
				<g>
					<path class="st12" d="M192.1,1347.1c0,0,67.8-140.8,91.6-138C308.3,1211.9,192.1,1347.1,192.1,1347.1z"/>
					<path class="st12" d="M150.8,1280.4c0,0,139.1-86.2,139.8-78.6C291.2,1209.4,217.2,1252,150.8,1280.4z"/>
					<path class="st12" d="M153.2,1217.4c0,0,43.3,3.1,91.2-9.7s67.9-20.9,67.9-20.9s-43-2.6-73.6,4.7       C208.1,1198.9,153.2,1217.4,153.2,1217.4z"/>
					<path class="st12" d="M165.4,1160.6c0,0,66,11.3,94.3,11s71.9,1.9,71.9,1.9s-44.8-12.2-70.6-15S165.4,1160.6,165.4,1160.6z"/>
					<path class="st12" d="M186.3,1108.7c0,0,52.4,27,82.9,35.4c30.4,8.3,75.1,13.5,75.1,13.5s-44.4-23.4-69.7-30.8       C249.4,1119.3,186.3,1108.7,186.3,1108.7z"/>
					<path class="st12" d="M217.7,1070.6c0,0,62,46.2,87.2,57.6c25.2,11.4,63.9,19.7,63.9,19.7s-25.1-23.2-55.8-35.9       C282.3,1099.3,217.7,1070.6,217.7,1070.6z"/>
					<path class="st12" d="M256.2,1044.1c0,0,37.5,41.2,76,65.3c38.6,24.1,62.3,33.4,62.3,33.4s-38.2-36.9-65.1-52.1       S256.2,1044.1,256.2,1044.1z"/>
					<path class="st12" d="M298,1026.4c0,0,20.8,34.2,69.8,70.9c49,36.7,57.4,38.2,57.4,38.2s-39-50-55.2-60.3       C353.7,1064.9,298,1026.4,298,1026.4z"/>
					<path class="st12" d="M338.9,1010.1c0,0,27.5,50.6,54.8,73c27.3,22.4,61.2,53,61.2,53s-29.5-45.6-51.1-67.7       C382.1,1046.3,338.9,1010.1,338.9,1010.1z"/>
					<path class="st12" d="M383.4,992.3c0,0,9.6,44.6,44.5,84.6s47.7,60.5,47.7,60.5s-25.4-52-37-71.5S383.4,992.3,383.4,992.3z"/>
					<path class="st12" d="M425.2,991.9c0,0,13.4,47.5,31.7,77.9c18.2,30.5,44.4,64.6,44.4,64.6s-10.2-38.7-26.5-70.5       C458.4,1032.2,425.2,991.9,425.2,991.9z"/>
					<path class="st12" d="M466.1,990.3c0,0-0.8,36.1,25.3,85.9c26,49.8,38.4,70.5,38.4,70.5s-13.7-51.8-25.4-79.5       C492.7,1039.6,466.1,990.3,466.1,990.3z"/>
					<path class="st12" d="M511.7,994.1c0,0-3.2,36.5,10.4,71c13.7,34.5,35.8,90.6,35.8,90.6s-7.3-55.8-16.6-85.3       C532.1,1040.9,511.7,994.1,511.7,994.1z"/>
					<path class="st12" d="M548.7,1006.6c0,0-5.2,19.1,9,74.3c14.2,55.2,29.2,85.1,29.2,85.1s-7.7-52.3-11.7-84.8       C571.3,1048.7,548.7,1006.6,548.7,1006.6z"/>
					<path class="st12" d="M593.4,1019.8c0,0-7.3,13.3,1,65.2c8.3,51.9,20.5,100.2,20.5,100.2s-2.6-50.3-6.8-92.3       S593.4,1019.8,593.4,1019.8z"/>
					<path class="st12" d="M633.2,1051c0,0-15.3,12.3-6.8,63.2s10.5,87,10.5,87s8.7-64.5,5.6-88.9       C639.3,1087.9,633.2,1051,633.2,1051z"/>
					<path class="st12" d="M668.6,1070.5c0,0-14.7,35.7-16.7,72.8c-2,37,4.6,71.8,4.6,71.8s14.9-51.4,16.6-79.6       C674.7,1107.4,668.6,1070.5,668.6,1070.5z"/>
					<path class="st12" d="M676.8,1234c0,0-5.4-23.7,0.9-69.2c6.2-45.4,21.9-59.9,21.9-59.9s-2.1,28.9-8,69.5       C685.7,1215.1,676.8,1234,676.8,1234z"/>
					<path class="st12" d="M698.7,1259.2c0,0-5.7-48.2,8.7-73.7s21.7-44.2,21.7-44.2s-4.9,50-11,59.7       C712,1210.7,698.7,1259.2,698.7,1259.2z"/>
					<path class="st12" d="M295,1208.1c0,0,0.2,61.6-4.1,84.6c-4.3,23.1-20.1,83.8-20.1,83.8s4.6-64,7.4-91S295,1208.1,295,1208.1z"/>
					<path class="st12" d="M312.3,1186.8c0,0-3,71.4-3.8,87.5c-0.8,16.1,0.5,61.9,6.5,71.9c6,10,10.2-66,10.5-79       S312.3,1186.8,312.3,1186.8z"/>
					<path class="st12" d="M328.4,1175.7c0,0-2.2,26,7,72.7s19.3,89.2,19.3,89.2s1.7-77.4-4.4-95.5       C344.3,1224,328.4,1175.7,328.4,1175.7z"/>
					<path class="st12" d="M356.6,1159.4c0,0-6.5,26.5,0,78.4c6.5,52,20.2,89.1,20.2,89.1s-0.7-87.3-6.1-105.1       S356.6,1159.4,356.6,1159.4z"/>
					<path class="st12" d="M389,1146.7c-4.8,17-10.7,54.9-8.8,71c1.9,16.1,9.3,96,9.3,96s5.5-65.1,5.5-98.4       C394.9,1181.9,389,1146.7,389,1146.7z"/>
					<path class="st12" d="M418.3,1140.2c0,0-10.3,38.2-11.3,87.3c-1,49.1-0.1,74.2-0.1,74.2s11.6-77.5,12.9-103.5       C421.1,1172.1,418.3,1140.2,418.3,1140.2z"/>
					<path class="st12" d="M454.9,1136.1c0,0-18,29.7-23.6,72c-5.7,42.3-11.4,93.8-11.4,93.8s32.3-89.9,34.3-109.6       S454.9,1136.1,454.9,1136.1z"/>
					<path class="st12" d="M494.4,1139.1c0,0-22.7,22.9-34,62.3c-11.3,39.4-24.2,97.1-24.2,97.1s33.5-75.6,40.5-96       C483.7,1182.1,494.4,1139.1,494.4,1139.1z"/>
					<path class="st12" d="M521.1,1146.4c0,0-26.8,23-41.3,63.2c-14.5,40.1-32.7,81.5-32.7,81.5s52.3-70.3,55.3-80.5       C505.3,1200.2,521.1,1146.4,521.1,1146.4z"/>
					<path class="st12" d="M553.3,1158.2c0,0-34.3,35.2-44.4,56.4c-10.1,21.2-39.4,79.7-39.4,79.7s44.6-59.7,53.9-76.3       C532.7,1201.4,553.3,1158.2,553.3,1158.2z"/>
					<path class="st12" d="M485.4,1298.9c0,0,32.6-65.4,53.3-87.9c20.8-22.5,42.6-41.2,42.6-41.2s-15,30.4-33.5,54.6       C529.4,1248.5,485.4,1298.9,485.4,1298.9z"/>
					<path class="st12" d="M501.3,1298c0,0,42.6-59.5,59.3-75.6c16.7-16.1,45.4-38.1,45.4-38.1S570.7,1239.3,501.3,1298z"/>
					<path class="st12" d="M513.4,1301.6c0,0,45.1-46.9,83.8-79.6c38.7-32.7,36.5-18.7,36.5-18.7S576.6,1262.7,513.4,1301.6z"/>
					<path class="st12" d="M536.6,1297.5c0,0,31.3-29.3,54.8-48.9c23.4-19.5,63-28.5,63-28.5s-37.2,32-53.5,42.3       S536.6,1297.5,536.6,1297.5z"/>
					<path class="st12" d="M555.3,1304.8c0,0,24.4-22.3,59.4-40.9c35.1-18.6,67.2-22.4,67.2-22.4s-55.6,30.9-67.2,35.3       C603.1,1281.1,555.3,1304.8,555.3,1304.8z"/>
					<path class="st12" d="M590.7,1309.7c0,0,25.3-25.7,47.1-37.9c21.8-12.2,55.9-13.1,55.9-13.1s-39.6,19.7-52.1,24.6       C620.9,1291.5,590.7,1309.7,590.7,1309.7z"/>
				</g>
			</g>
			<g>
				<g>
					<path class="st11" d="M1730,720c-21.5,5.8-34,28.9-34,28.9s22.4,13.6,43.9,7.8c21.5-5.8,34-28.9,34-28.9S1751.5,714.1,1730,720       z"/>
					<path class="st11" d="M1708.3,770.5c-21.5,5.8-34,28.9-34,28.9s22.4,13.6,43.9,7.8c21.5-5.8,34-28.9,34-28.9       S1729.8,764.7,1708.3,770.5z"/>
					<path class="st11" d="M1699.4,819.6c-22.3-0.2-40.5,18.7-40.5,18.7s17.9,19.1,40.2,19.3s40.5-18.7,40.5-18.7       S1721.7,819.7,1699.4,819.6z"/>
					<path class="st11" d="M1678.3,872.4c-17.9-0.1-32.5,15-32.5,15s14.4,15.3,32.3,15.5c17.9,0.1,32.5-15,32.5-15       S1696.2,872.5,1678.3,872.4z"/>
					<path class="st11" d="M1664.3,923.4c-17.9-0.1-32.5,15-32.5,15s14.4,15.3,32.3,15.5c17.9,0.1,32.5-15,32.5-15       S1682.2,923.5,1664.3,923.4z"/>
				</g>
				<path class="st11" d="M1669.3,693.2c5.1,21.7,27.7,34.9,27.7,34.9s14.4-21.9,9.3-43.6s-27.7-34.9-27.7-34.9      S1664.2,671.5,1669.3,693.2z"/>
				<path class="st11" d="M1644.1,743.1c10.7,19.6,36,26.3,36,26.3s8-24.9-2.7-44.5s-36-26.3-36-26.3S1633.4,723.5,1644.1,743.1z"/>
				<path class="st11" d="M1621.2,796.5c10.7,19.6,36,26.3,36,26.3s8-24.9-2.7-44.5s-36-26.3-36-26.3S1610.5,777,1621.2,796.5z"/>
				<path class="st11" d="M1602.3,855c16.7,14.8,42.8,12.5,42.8,12.5s-0.9-26.2-17.6-40.9c-16.7-14.8-42.8-12.5-42.8-12.5      S1585.6,840.3,1602.3,855z"/>
				<path class="st11" d="M1589.9,910.1c19.1,11.5,44.3,4.6,44.3,4.6s-5.6-25.6-24.7-37.1s-44.3-4.6-44.3-4.6      S1570.8,898.6,1589.9,910.1z"/>
				<path class="st11" d="M1629.9,1004.7c0.8,0.3,1.7,0.3,2.7-0.2c2.1-1,3.4-3.7,2.8-6.1c-0.1-0.6-10.1-48.7,22.4-145.2      c32.9-97.7,68.5-155.2,68.9-155.8c1.4-2.2,1.1-5-0.6-6.4c-1.7-1.3-4.2-0.6-5.5,1.6c-0.4,0.6-36.6,59.1-70,158.3      c-33.7,100-23.2,149-22.8,151.1C1628.1,1003.3,1628.9,1004.3,1629.9,1004.7z"/>
				<path class="st11" d="M1725.5,654.6c-11,19.4-3.5,44.4-3.5,44.4s25.4-6.3,36.5-25.6c11-19.4,3.5-44.4,3.5-44.4      S1736.5,635.2,1725.5,654.6z"/>
			</g>
		</g>
	</g>
</g>
<g id="Layer_2">
	<g>
		<path class="st13" d="M843.4,943.3l-261.8,193.4c-2.1,1.5-5,1.1-6.6-1L319.4,789.6L585,593.4c2.1-1.5,5-1.1,6.6,1l252.8,342.3    C846,938.8,845.5,941.8,843.4,943.3z"/>
		<g>
			<path class="st10" d="M419.5,521.7l201.3,349.5c3.2,5.6,1.3,12.8-4.3,16L487,961.7c-5.6,3.2-12.8,1.3-16-4.3L269.7,607.9     c-3.2-5.6-1.3-12.8,4.3-16l129.4-74.6C409.1,514.1,416.3,516.1,419.5,521.7z"/>
			<g>
				<path class="st14" d="M567.1,834l24.7,43c0.7,1.3,0.3,2.9-1,3.7l-10.1,5.8c-1.3,0.7-2.9,0.3-3.7-1l-24.7-43      c-0.7-1.3-0.3-2.9,1-3.7l10.1-5.8C564.7,832.3,566.3,832.7,567.1,834z"/>
				<path class="st14" d="M537.1,781.9l24.7,43c0.7,1.3,0.3,2.9-1,3.7l-10.1,5.8c-1.3,0.7-2.9,0.3-3.7-1l-24.7-43      c-0.7-1.3-0.3-2.9,1-3.7l10.1-5.8C534.7,780.1,536.3,780.6,537.1,781.9z"/>
				<path class="st14" d="M507,729.7l24.7,43c0.7,1.3,0.3,2.9-1,3.7l-10.1,5.8c-1.3,0.7-2.9,0.3-3.7-1l-24.7-43      c-0.7-1.3-0.3-2.9,1-3.7l10.1-5.8C504.7,728,506.3,728.4,507,729.7z"/>
				<path class="st14" d="M477,677.6l24.7,43c0.7,1.3,0.3,2.9-1,3.7l-10.1,5.8c-1.3,0.7-2.9,0.3-3.7-1l-24.7-43      c-0.7-1.3-0.3-2.9,1-3.7l10.1-5.8C474.6,675.9,476.3,676.3,477,677.6z"/>
			</g>
			<g>
				<g>
					
						<rect x="282.8" y="607.9" transform="matrix(-0.4991 -0.8665 0.8665 -0.4991 -72.283 1177.3184)" class="st13" width="42.7" height="3.4"/>
					
						<rect x="299.6" y="598.2" transform="matrix(-0.4991 -0.8665 0.8665 -0.4991 -38.7072 1177.3705)" class="st13" width="42.7" height="3.4"/>
					
						<rect x="289.3" y="602.7" transform="matrix(-0.4991 -0.8665 0.8665 -0.4991 -59.2906 1177.3385)" class="st13" width="42.7" height="6.2"/>
					
						<rect x="307.3" y="591.4" transform="matrix(-0.4991 -0.8665 0.8665 -0.4991 -23.2331 1177.3945)" class="st13" width="42.7" height="8.1"/>
					
						<rect x="293.8" y="602.4" transform="matrix(-0.4991 -0.8665 0.8665 -0.4991 -50.2397 1177.3527)" class="st13" width="42.7" height="1.5"/>
					
						<rect x="312.9" y="591.4" transform="matrix(-0.4991 -0.8665 0.8665 -0.4991 -11.9925 1177.412)" class="st13" width="42.7" height="1.5"/>
					
						<rect x="296.3" y="601" transform="matrix(-0.4991 -0.8665 0.8665 -0.4991 -45.2764 1177.3604)" class="st13" width="42.7" height="1.5"/>
				</g>
				<g>
					
						<rect x="317.8" y="587.7" transform="matrix(-0.4991 -0.8665 0.8665 -0.4991 -2.2117 1177.4272)" class="st13" width="42.7" height="3.4"/>
					
						<rect x="334.6" y="578" transform="matrix(-0.4991 -0.8665 0.8665 -0.4991 31.3642 1177.4794)" class="st13" width="42.7" height="3.4"/>
					
						<rect x="324.3" y="582.5" transform="matrix(-0.4991 -0.8665 0.8665 -0.4991 10.7807 1177.4474)" class="st13" width="42.7" height="6.2"/>
					
						<rect x="342.4" y="571.2" transform="matrix(-0.4991 -0.8665 0.8665 -0.4991 46.8383 1177.5034)" class="st13" width="42.7" height="8.1"/>
					
						<rect x="328.9" y="582.2" transform="matrix(-0.4991 -0.8665 0.8665 -0.4991 19.8316 1177.4614)" class="st13" width="42.7" height="1.5"/>
					
						<rect x="348" y="571.2" transform="matrix(-0.4991 -0.8665 0.8665 -0.4991 58.0789 1177.5209)" class="st13" width="42.7" height="1.5"/>
					
						<rect x="331.3" y="580.8" transform="matrix(-0.4991 -0.8665 0.8665 -0.4991 24.795 1177.4692)" class="st13" width="42.7" height="1.5"/>
				</g>
				<g>
					
						<rect x="352.9" y="567.5" transform="matrix(-0.4991 -0.8665 0.8665 -0.4991 67.8597 1177.5361)" class="st13" width="42.7" height="3.4"/>
					
						<rect x="369.7" y="557.8" transform="matrix(-0.4991 -0.8665 0.8665 -0.4991 101.4356 1177.5883)" class="st13" width="42.7" height="3.4"/>
					
						<rect x="359.4" y="562.3" transform="matrix(-0.4991 -0.8665 0.8665 -0.4991 80.8521 1177.5563)" class="st13" width="42.7" height="6.2"/>
					
						<rect x="377.4" y="551" transform="matrix(-0.4991 -0.8665 0.8665 -0.4991 116.9097 1177.6123)" class="st13" width="42.7" height="8.1"/>
					
						<rect x="363.9" y="562" transform="matrix(-0.4991 -0.8665 0.8665 -0.4991 89.903 1177.5703)" class="st13" width="42.7" height="1.5"/>
					
						<rect x="383.1" y="551" transform="matrix(-0.4991 -0.8665 0.8665 -0.4991 128.1503 1177.6298)" class="st13" width="42.7" height="1.5"/>
					
						<rect x="366.4" y="560.6" transform="matrix(-0.4991 -0.8665 0.8665 -0.4991 94.8664 1177.5781)" class="st13" width="42.7" height="1.5"/>
				</g>
			</g>
			<g>
				<path class="st15" d="M377,679.8c27.4-15.5,72.2-48.2,70.9-50.4c-0.9-1.6-52.5,20.2-79.9,35.8c-15.9,9-22.3,18.5-20.5,21.6      S359,690.1,377,679.8z"/>
				<polygon class="st15" points="437.3,612.9 434.7,614.3 432.5,638.4 453.2,648.6 456.5,646.8 441.1,633.6     "/>
				<polygon class="st15" points="387.5,596.8 381.4,603.9 379.3,668.2 436.9,700 445,698.3 409.1,671.5 391.9,641.4     "/>
				<path class="st15" d="M388.3,635.2l-1.8-3.2c-0.4-0.8-1.5-1.1-2.2-0.6l-10.6,6c-0.8,0.4-1.1,1.5-0.6,2.2l1.8,3.2      c0.4,0.8,1.5,1.1,2.2,0.6l10.6-6C388.4,637,388.7,636,388.3,635.2z"/>
				<path class="st15" d="M414.5,681.5l-1.8-3.2c-0.4-0.8-1.5-1.1-2.2-0.6l-10.6,6c-0.8,0.4-1.1,1.5-0.6,2.2l1.8,3.2      c0.4,0.8,1.5,1.1,2.2,0.6l10.6-6C414.7,683.2,415,682.2,414.5,681.5z"/>
			</g>
			<g>
				<path class="st13" d="M521,908.7l-25.3,14.6l5.2,9l-5.2,3l-13.9-24.2l5.2-3l5.2,9l25.3-14.6L521,908.7z"/>
				<path class="st13" d="M510.1,889.8l-30.5,17.5l-3.5-6.1l30.5-17.5L510.1,889.8z"/>
				<path class="st13" d="M480.8,864.8l-1.5-7.1c3.8-1,7.2-0.9,10,0.3c2.8,1.2,5.2,3.4,7.1,6.7c2.3,4,2.9,8.2,1.6,12.4      c-1.3,4.2-4.3,7.7-9.1,10.4c-5.1,2.9-9.8,3.9-14.1,2.9c-4.3-1-7.7-3.6-10.2-7.9c-2.1-3.7-2.8-7.4-1.9-11      c0.5-2.1,1.8-4.3,3.8-6.3l5,5.2c-1.4,1.3-2.2,2.7-2.4,4.4c-0.3,1.7,0.1,3.3,1,5c1.3,2.3,3.2,3.6,5.6,4.1s5.5-0.3,9.1-2.4      c3.9-2.2,6.2-4.5,7-6.8c0.8-2.3,0.6-4.6-0.7-6.8c-0.9-1.6-2.3-2.7-4-3.3C485.5,863.9,483.3,864,480.8,864.8z"/>
				<path class="st13" d="M485.5,847L455,864.5l-3.5-6.1l13.5-7.8l-20.7-4.6l-4.8-8.3l18.5,4.6l11.6-22.8l4.6,8l-9.5,16.6l8,2.1      l9.2-5.3L485.5,847z"/>
				<path class="st13" d="M467.8,816.3l-30.5,17.5l-13-22.6l5.2-3l9.5,16.4l6.7-3.9l-8.8-15.3l5.1-3l8.8,15.3l8.3-4.8l-9.8-17l5.1-3      L467.8,816.3z"/>
				<path class="st13" d="M447.5,781.1l-25.3,14.6l5.2,9l-5.2,3l-13.9-24.2l5.2-3l5.2,9L444,775L447.5,781.1z"/>
			</g>
			<path class="st16" d="M494.7,956.9L282,587.7c-9.3,7.5-12,20.8-5.9,31.4l188.4,327.1C470.7,956.8,483.6,961.2,494.7,956.9z"/>
			<path class="st16" d="M608.6,891.2c9.1-7.5,11.8-20.7,5.7-31.3L425.9,532.9c-6.1-10.6-18.8-14.9-29.9-10.8L608.6,891.2z"/>
			<g>
				<path class="st14" d="M488.7,793.8L550.5,901c0.7,1.2,0.3,2.7-0.9,3.4l-5.3,3c-1.2,0.7-2.7,0.3-3.4-0.9l-61.8-107.2      c-0.7-1.2-0.3-2.7,0.9-3.4l5.3-3C486.5,792.2,488,792.6,488.7,793.8z"/>
				<path class="st14" d="M476.1,730.3l92.3,160.3c0.7,1.2,0.3,2.7-0.9,3.4l-5.3,3c-1.2,0.7-2.7,0.3-3.4-0.9l-92.3-160.3      c-0.7-1.2-0.3-2.7,0.9-3.4l5.3-3C473.9,728.7,475.4,729.2,476.1,730.3z"/>
			</g>
		</g>
		<g>
			<path class="st10" d="M675.6,496.3l-42.7,381.9c-0.7,6.1-6.2,10.5-12.3,9.9l-141.5-15.8c-6.1-0.7-10.5-6.2-9.9-12.3L511.9,478     c0.7-6.1,6.2-10.5,12.3-9.9L665.7,484C671.8,484.6,676.2,490.2,675.6,496.3z"/>
			<g>
				<path class="st14" d="M612.6,819.4l-5.2,46.9c-0.2,1.4-1.4,2.4-2.8,2.3l-11.1-1.2c-1.4-0.2-2.4-1.4-2.3-2.8l5.2-46.9      c0.2-1.4,1.4-2.4,2.8-2.3l11.1,1.2C611.8,816.7,612.8,818,612.6,819.4z"/>
				<path class="st14" d="M619,762.4l-5.2,46.9c-0.2,1.4-1.4,2.4-2.8,2.3l-11.1-1.2c-1.4-0.2-2.4-1.4-2.3-2.8l5.2-46.9      c0.2-1.4,1.4-2.4,2.8-2.3l11.1,1.2C618.2,759.7,619.2,761,619,762.4z"/>
				<path class="st14" d="M625.4,705.4l-5.2,46.9c-0.2,1.4-1.4,2.4-2.8,2.3l-11.1-1.2c-1.4-0.2-2.4-1.4-2.3-2.8l5.2-46.9      c0.2-1.4,1.4-2.4,2.8-2.3l11.1,1.2C624.5,702.8,625.5,704,625.4,705.4z"/>
				<path class="st14" d="M631.7,648.4l-5.2,46.9c-0.2,1.4-1.4,2.4-2.8,2.3l-11.1-1.2c-1.4-0.2-2.4-1.4-2.3-2.8l5.2-46.9      c0.2-1.4,1.4-2.4,2.8-2.3l11.1,1.2C630.9,645.8,631.9,647,631.7,648.4z"/>
			</g>
			<g>
				<g>
					
						<rect x="517" y="497" transform="matrix(0.111 -0.9938 0.9938 0.111 -17.836 977.3569)" class="st13" width="40.7" height="3.2"/>
					
						<rect x="535.4" y="499.1" transform="matrix(0.111 -0.9938 0.9938 0.111 -3.5508 997.4302)" class="st13" width="40.7" height="3.2"/>
					
						<rect x="524.1" y="496.5" transform="matrix(0.111 -0.9938 0.9938 0.111 -12.3082 985.1244)" class="st13" width="40.7" height="5.9"/>
					
						<rect x="543.9" y="497.8" transform="matrix(0.111 -0.9938 0.9938 0.111 3.0328 1006.6815)" class="st13" width="40.7" height="7.7"/>
					
						<rect x="529.1" y="499.3" transform="matrix(0.111 -0.9938 0.9938 0.111 -8.4574 990.5355)" class="st13" width="40.7" height="1.4"/>
					
						<rect x="550" y="501.6" transform="matrix(0.111 -0.9938 0.9938 0.111 7.8153 1013.4017)" class="st13" width="40.7" height="1.4"/>
					
						<rect x="531.8" y="499.6" transform="matrix(0.111 -0.9938 0.9938 0.111 -6.3457 993.5029)" class="st13" width="40.7" height="1.4"/>
				</g>
				<g>
					
						<rect x="555.4" y="501.3" transform="matrix(0.111 -0.9938 0.9938 0.111 11.9766 1019.2491)" class="st13" width="40.7" height="3.2"/>
					
						<rect x="573.7" y="503.4" transform="matrix(0.111 -0.9938 0.9938 0.111 26.2618 1039.3225)" class="st13" width="40.7" height="3.2"/>
					
						<rect x="562.5" y="500.8" transform="matrix(0.111 -0.9938 0.9938 0.111 17.5044 1027.0166)" class="st13" width="40.7" height="5.9"/>
					
						<rect x="582.2" y="502.1" transform="matrix(0.111 -0.9938 0.9938 0.111 32.8454 1048.5737)" class="st13" width="40.7" height="7.7"/>
					
						<rect x="567.4" y="503.6" transform="matrix(0.111 -0.9938 0.9938 0.111 21.3552 1032.4277)" class="st13" width="40.7" height="1.4"/>
					
						<rect x="588.3" y="505.9" transform="matrix(0.111 -0.9938 0.9938 0.111 37.6279 1055.2938)" class="st13" width="40.7" height="1.4"/>
					
						<rect x="570.1" y="503.9" transform="matrix(0.111 -0.9938 0.9938 0.111 23.4669 1035.395)" class="st13" width="40.7" height="1.4"/>
				</g>
				<g>
					
						<rect x="593.7" y="505.6" transform="matrix(0.111 -0.9938 0.9938 0.111 41.7892 1061.1414)" class="st13" width="40.7" height="3.2"/>
					
						<rect x="612" y="507.7" transform="matrix(0.111 -0.9938 0.9938 0.111 56.0744 1081.2147)" class="st13" width="40.7" height="3.2"/>
					
						<rect x="600.8" y="505" transform="matrix(0.111 -0.9938 0.9938 0.111 47.317 1068.9088)" class="st13" width="40.7" height="5.9"/>
					
						<rect x="620.5" y="506.4" transform="matrix(0.111 -0.9938 0.9938 0.111 62.658 1090.4659)" class="st13" width="40.7" height="7.7"/>
					
						<rect x="605.7" y="507.8" transform="matrix(0.111 -0.9938 0.9938 0.111 51.1678 1074.3199)" class="st13" width="40.7" height="1.4"/>
					
						<rect x="626.7" y="510.2" transform="matrix(0.111 -0.9938 0.9938 0.111 67.4405 1097.1862)" class="st13" width="40.7" height="1.4"/>
					
						<rect x="608.5" y="508.1" transform="matrix(0.111 -0.9938 0.9938 0.111 53.2795 1077.2874)" class="st13" width="40.7" height="1.4"/>
				</g>
			</g>
			<g>
				<path class="st15" d="M553.7,593.7c29.8,3.5,82.6,3.7,82.9,1.3c0.2-1.7-51.7-14.1-81.5-17.6c-17.2-2-27.5,1.6-27.9,5      C526.7,585.8,534.1,591.4,553.7,593.7z"/>
				<polygon class="st15" points="637.8,576.3 635,576 619.7,593.3 629.8,612.8 633.4,613.2 629,594.4     "/>
				<polygon class="st15" points="608.6,535.9 599.9,537.9 562,586.1 588.3,643 595.5,646.3 583,605.4 586.8,572.7     "/>
				<path class="st15" d="M587.5,565.8l0.4-3.4c0.1-0.9-0.5-1.6-1.4-1.7l-11.6-1.4c-0.9-0.1-1.6,0.5-1.7,1.4l-0.4,3.4      c-0.1,0.9,0.5,1.6,1.4,1.7l11.6,1.4C586.7,567.3,587.4,566.7,587.5,565.8z"/>
				<path class="st15" d="M581.6,616.2l0.4-3.4c0.1-0.9-0.5-1.6-1.4-1.7l-11.6-1.4c-0.9-0.1-1.6,0.5-1.7,1.4l-0.4,3.4      c-0.1,0.9,0.5,1.6,1.4,1.7l11.6,1.4C580.7,617.6,581.5,617,581.6,616.2z"/>
			</g>
			<g>
				<path class="st13" d="M535.1,850.8l-27.6-3.1l-1.1,9.9l-5.6-0.6l3-26.4l5.6,0.6l-1.1,9.9l27.6,3.1L535.1,850.8z"/>
				<path class="st13" d="M537.4,830.1l-33.3-3.7l0.8-6.7l33.3,3.7L537.4,830.1z"/>
				<path class="st13" d="M529,794.3l2.8-6.3c3.5,1.4,6,3.4,7.5,5.9c1.5,2.5,2.1,5.6,1.7,9.1c-0.5,4.4-2.4,7.9-5.7,10.4      c-3.3,2.5-7.6,3.5-12.9,2.9c-5.5-0.6-9.7-2.5-12.4-5.7c-2.7-3.2-3.9-7.1-3.3-11.8c0.5-4.1,2-7.2,4.7-9.5      c1.6-1.4,3.8-2.3,6.5-2.7l0.8,6.8c-1.8,0.2-3.2,0.9-4.4,2c-1.1,1.1-1.8,2.6-2,4.4c-0.3,2.5,0.4,4.6,2,6.3s4.4,2.8,8.3,3.3      c4.2,0.5,7.3,0,9.2-1.3c2-1.3,3.1-3.2,3.3-5.6c0.2-1.8-0.2-3.4-1.2-4.8C533.1,796.3,531.4,795.1,529,794.3z"/>
				<path class="st13" d="M542.7,783.3l-33.3-3.7l0.8-6.7l14.8,1.7l-13.3-15.2l1-9l11.6,14l21.8-10.9l-1,8.7l-16.6,7.4l5,6.1      l10.1,1.1L542.7,783.3z"/>
				<path class="st13" d="M546.4,749.8l-33.3-3.7l2.8-24.7l5.6,0.6l-2,18l7.4,0.8l1.9-16.7l5.6,0.6l-1.9,16.7l9.1,1l2.1-18.6      l5.6,0.6L546.4,749.8z"/>
				<path class="st13" d="M550.7,711.3l-27.6-3.1l-1.1,9.9l-5.6-0.6l3-26.4l5.6,0.6l-1.1,9.9l27.6,3.1L550.7,711.3z"/>
			</g>
			<path class="st16" d="M487.7,872.9l45.1-403.5c-11.3,0.5-20.9,9.2-22.2,20.8l-39.9,357.5C469.3,859.3,476.8,869.9,487.7,872.9z"/>
			<path class="st16" d="M612.3,886.8c11.2-0.6,20.7-9.2,22-20.8l39.9-357.5c1.3-11.5-6-22-16.9-25.1L612.3,886.8z"/>
			<g>
				<path class="st14" d="M575.2,744.3l-13.1,117.2c-0.1,1.3-1.3,2.2-2.6,2.1l-5.7-0.6c-1.3-0.1-2.2-1.3-2.1-2.6l13.1-117.2      c0.1-1.3,1.3-2.2,2.6-2.1l5.7,0.6C574.4,741.8,575.3,743,575.2,744.3z"/>
				<path class="st14" d="M601.3,688.4l-19.6,175.2c-0.1,1.3-1.3,2.2-2.6,2.1l-5.7-0.6c-1.3-0.1-2.2-1.3-2.1-2.6l19.6-175.2      c0.1-1.3,1.3-2.2,2.6-2.1l5.7,0.6C600.5,686,601.4,687.1,601.3,688.4z"/>
			</g>
		</g>
		<g>
			
				<linearGradient id="SVGID_5_" gradientUnits="userSpaceOnUse" x1="815.0987" y1="909.7487" x2="1192.8195" y2="532.028" gradientTransform="matrix(0.735 -0.6781 0.6781 0.735 -675.7808 1019.1097)">
				<stop offset="0" style="stop-color:#FF5F18"/>
				<stop offset="9.972274e-03" style="stop-color:#FF6018"/>
				<stop offset="0.6688" style="stop-color:#FF8D2A"/>
				<stop offset="1" style="stop-color:#FF9F31"/>
			</linearGradient>
			<path class="st17" d="M814.4,922l-231,213.1c-2.3,2.2-6,2-8.1-0.3L287.2,822.5c-2.2-2.3-2-6,0.3-8.1l231-213.1     c2.3-2.2,6-2,8.1,0.3l288.1,312.3C816.9,916.2,816.7,919.9,814.4,922z"/>
			<g>
				<path class="st10" d="M650,978.7c-47.6,43.9-122,40.9-165.9-6.7s-40.9-122,6.7-165.9c47.6-43.9,122-40.9,165.9,6.7      C700.6,860.3,697.6,934.8,650,978.7z M497.7,813.6c-43.4,40.1-46.2,108-6.1,151.5c40.1,43.4,108,46.2,151.5,6.1      c43.4-40.1,46.2-108,6.1-151.5C609.1,776.2,541.1,773.5,497.7,813.6z"/>
				<path class="st10" d="M648.9,977.5c-24,22.1-77.2,2-121.3-45.8s-59.8-102.5-35.8-124.6c24-22.1,77.2-2,121.3,45.8      C657.2,900.7,672.9,955.4,648.9,977.5z M496.6,812.5c-20.3,18.7-3.7,71.2,36.3,114.5c40,43.3,90.9,64.1,111.2,45.3      c20.3-18.7,3.7-71.2-36.3-114.5S517,793.7,496.6,812.5z"/>
				<path class="st10" d="M543.7,863.4c-27.2,25.1-57.8,41.9-84.1,46.3l-5.3,0.9l-0.6-5.4c-4-36.9,9.8-74,37.1-99.1      c27.3-25.2,65.3-36,101.8-29l5.3,1l-1.3,5.2C590.1,809.2,570.8,838.4,543.7,863.4z M463.4,898.5c22.9-5.3,49.9-20.9,73.4-42.6      c23.5-21.7,41.2-47.3,48.4-69.7c-31.6-4.3-63.9,5.7-87.4,27.4C474.2,835.3,461.6,866.7,463.4,898.5z"/>
				<path class="st10" d="M650,978.7c-26.9,24.9-63.1,35.6-99.3,29.5l-5.6-0.9l1.5-5.4c6.9-25.4,26-53.9,52.4-78.3      c26.5-24.4,56.4-41.2,82.3-46l5.5-1l0.5,5.6C690.5,918.6,676.9,953.8,650,978.7z M558.2,998.9c31.1,3.6,61.7-6.3,84.9-27.7      c23.2-21.4,35.5-51.1,34.4-82.4c-22.7,5.7-48.4,20.8-71.6,42.2C582.8,952.3,565.7,976.7,558.2,998.9z"/>
				<path class="st10" d="M650,978.7c-2.1,1.9-5.3,1.8-7.2-0.3L490.5,813.3c-1.9-2.1-1.8-5.3,0.3-7.2c2.1-1.9,5.3-1.8,7.2,0.3      l152.3,165.1C652.2,973.5,652.1,976.8,650,978.7z"/>
				<path class="st10" d="M656.4,820L491.3,972.3c-2.1,1.9-5.3,1.8-7.2-0.3s-1.8-5.3,0.3-7.2l165.1-152.3c2.1-1.9,5.3-1.8,7.2,0.3      C658.6,814.8,658.5,818.1,656.4,820z"/>
			</g>
			<g>
				<path class="st10" d="M376.1,857.5l-45.8-49.7l16.1-14.9c6.1-5.6,10.3-9,12.6-10.3c3.5-1.9,7.4-2.5,11.6-1.7      c4.2,0.7,8.2,3.1,11.8,7c2.8,3.1,4.6,6.1,5.4,9.2c0.8,3.1,0.9,6,0.3,8.8c-0.6,2.8-1.6,5.1-3,7.2c-2,2.7-5.2,6.1-9.7,10.3l-6.5,6      l17.3,18.7L376.1,857.5z M348.1,807l13,14.1l5.5-5.1c4-3.6,6.4-6.3,7.2-8.1c0.9-1.7,1.1-3.5,0.9-5.3c-0.3-1.8-1.1-3.4-2.4-4.9      c-1.7-1.8-3.6-2.8-5.7-3c-2.1-0.2-4.2,0.3-6.1,1.5c-1.4,0.9-3.9,3-7.5,6.3L348.1,807z"/>
				<path class="st10" d="M462.1,778.2l-10.9,10.1l-14.7-7.3l-19.9,18.3l6.3,15.1l-10.6,9.8l-26.5-67.5l10.6-9.8L462.1,778.2z       M425.5,775.6l-23.9-12.1l10.3,24.6L425.5,775.6z"/>
				<path class="st10" d="M449.9,759.5l8.9-10c3.6,2.7,7,4,10.2,3.9c3.2-0.1,6.3-1.6,9.4-4.4c3.2-3,5-5.9,5.4-8.8      c0.4-2.9-0.3-5.2-2-7.1c-1.1-1.2-2.4-1.9-3.8-2c-1.5-0.2-3.3,0.2-5.6,1.2c-1.6,0.7-4.9,2.4-10,5.2c-6.6,3.6-11.9,5.5-15.9,5.5      c-5.6,0.1-10.2-1.8-13.8-5.8c-2.3-2.5-3.8-5.6-4.4-9.1c-0.6-3.5-0.1-7.1,1.6-10.8c1.6-3.6,4.4-7.2,8.2-10.8      c6.2-5.8,12.2-8.7,17.9-8.9c5.7-0.2,10.7,1.9,15.1,6.4l-9.6,9.7c-2.8-2.2-5.4-3.1-7.8-3c-2.4,0.2-5.1,1.6-7.9,4.2      c-2.9,2.7-4.6,5.4-5.2,8.1c-0.4,1.7,0.1,3.3,1.3,4.6c1.1,1.2,2.5,1.7,4.3,1.6c2.2-0.1,6.3-1.8,12.3-5.2      c5.9-3.3,10.7-5.5,14.1-6.4c3.5-0.9,6.9-0.9,10.1,0c3.3,0.9,6.4,2.9,9.3,6.1c2.6,2.8,4.3,6.2,5,10.2c0.7,3.9,0.2,7.9-1.6,11.7      c-1.8,3.9-4.8,7.8-9.1,11.8c-6.3,5.8-12.4,8.8-18.5,9C461.6,766.8,455.7,764.5,449.9,759.5z"/>
				<path class="st10" d="M496.2,716.8l8.9-10c3.6,2.7,7,4,10.2,3.9c3.2-0.1,6.3-1.6,9.4-4.4c3.2-3,5-5.9,5.4-8.8      c0.4-2.9-0.3-5.2-2-7.1c-1.1-1.2-2.4-1.9-3.8-2c-1.5-0.2-3.3,0.2-5.6,1.2c-1.6,0.7-4.9,2.4-10,5.2c-6.6,3.6-11.9,5.5-15.9,5.5      c-5.6,0.1-10.2-1.8-13.8-5.8c-2.3-2.5-3.8-5.6-4.4-9.1c-0.6-3.5-0.1-7.1,1.6-10.8c1.6-3.6,4.4-7.2,8.2-10.8      c6.2-5.8,12.2-8.7,17.9-8.9c5.7-0.2,10.7,1.9,15.1,6.4l-9.6,9.7c-2.8-2.2-5.4-3.1-7.8-3c-2.4,0.2-5.1,1.6-7.9,4.2      c-2.9,2.7-4.6,5.4-5.2,8.1c-0.4,1.7,0.1,3.3,1.3,4.6c1.1,1.2,2.5,1.7,4.3,1.6c2.2-0.1,6.3-1.8,12.3-5.2      c5.9-3.3,10.7-5.5,14.1-6.4c3.5-0.9,6.9-0.9,10.1,0c3.3,0.9,6.4,2.9,9.3,6.1c2.6,2.8,4.3,6.2,5,10.2c0.7,3.9,0.2,7.9-1.6,11.7      c-1.8,3.9-4.8,7.8-9.1,11.8c-6.3,5.8-12.4,8.8-18.5,9C507.9,724.1,502,721.7,496.2,716.8z"/>
			</g>
		</g>
	</g>
	<linearGradient id="SVGID_6_" gradientUnits="userSpaceOnUse" x1="889.7997" y1="1224.9878" x2="1806.975" y2="1224.9878">
		<stop offset="0" style="stop-color:#FF5F18"/>
		<stop offset="0.4781" style="stop-color:#FF7E23"/>
		<stop offset="1" style="stop-color:#FFA531"/>
	</linearGradient>
	<path class="st18" d="M1728.8,1440.8c-50.5,0-117.1-18.8-174.5-39.2c-129-45.9-288-126.5-447.7-227.2   c-77.1-48.6-150-99.1-216.9-150.2l11.5-15c66.4,50.7,138.9,100.9,215.5,149.2c158.5,99.9,316.2,179.9,443.9,225.3   c120.2,42.7,203.5,49.9,222.8,19.3c18.1-28.7-16.7-92.2-95.4-174.3l13.7-13.1c61.2,63.8,127.8,149.9,97.8,197.5   C1787,1433.1,1761.2,1440.8,1728.8,1440.8z"/>
	<g>
		<ellipse class="st19" cx="597.9" cy="1738.9" rx="561.2" ry="78.3"/>
		<ellipse class="st20" cx="597.9" cy="1738.9" rx="534.9" ry="74.7"/>
		<ellipse class="st21" cx="597.9" cy="1738.9" rx="508.6" ry="71"/>
		<ellipse class="st22" cx="597.9" cy="1738.9" rx="482.4" ry="67.3"/>
		<ellipse class="st23" cx="597.9" cy="1738.9" rx="456.1" ry="63.7"/>
		<ellipse class="st24" cx="597.9" cy="1738.9" rx="429.8" ry="60"/>
		<ellipse class="st25" cx="597.9" cy="1738.9" rx="403.6" ry="56.3"/>
		<ellipse class="st26" cx="597.9" cy="1738.9" rx="377.3" ry="52.7"/>
		<ellipse class="st27" cx="597.9" cy="1738.9" rx="351" ry="49"/>
		<ellipse class="st28" cx="597.9" cy="1738.9" rx="324.8" ry="45.3"/>
		<ellipse class="st29" cx="597.9" cy="1738.9" rx="298.5" ry="41.7"/>
		<ellipse class="st30" cx="597.9" cy="1738.9" rx="272.2" ry="38"/>
		<ellipse class="st31" cx="597.9" cy="1738.9" rx="246" ry="34.3"/>
		<ellipse class="st32" cx="597.9" cy="1738.9" rx="219.7" ry="30.7"/>
		<ellipse class="st33" cx="597.9" cy="1738.9" rx="193.4" ry="27"/>
		<ellipse class="st34" cx="597.9" cy="1738.9" rx="167.2" ry="23.3"/>
		<ellipse class="st35" cx="597.9" cy="1738.9" rx="140.9" ry="19.7"/>
		<ellipse class="st36" cx="597.9" cy="1738.9" rx="114.6" ry="16"/>
		<ellipse class="st37" cx="597.9" cy="1738.9" rx="88.4" ry="12.3"/>
	</g>
	<g>
		<g>
			<circle class="st15" cx="1158.4" cy="1078.2" r="570"/>
			<circle class="st38" cx="1119.1" cy="1069.6" r="570"/>
			<path class="st10" d="M1280,1268.1c-37.1-28.5-34.2-42.8-82.7-34.2s-151.1-8.6-165.4-51.3c-14.3-42.8-59.9-77-85.5-59.9     c-25.7,17.1-114.1,22.2-116.9-53.1c-2.9-75.3-59.9-86.7-59.9-86.7s-37.1-39.9,17.1-65.6s91.2-2.9,94.1,17.1c2.9,20,2.9,20,2.9,20     s14.3-59.9,39.9-59.9s42.8-42.8,42.8-42.8s25.7-8.6,88.4-35.7c62.7-27.1,34.2-93.6,0-101.7c-34.2-8.1-88.4-4.7-97,7.9     s-82.7-28.5-45.6-46.5c37.1-18,119.8-57.2,119.8-31.9c0,25.3,42.9,17.5,34.3,0c-8.6-17.5-71.4-61.1-105.6-62.1     c-14.3-0.4-35.6-19.1-55.5-40.7c-18.6,7.5-36.7,16-54.2,25.4c1.9,23.8-1.6,50.2-18.5,72.3c-42.8,56-102.7,68.9-125.5,148     c-22.8,79.1-45.6,187.5,0,218.9s111.2,62.7,125.5,108.4c14.3,45.6,65.6,22.8,68.4,31.4c2.9,8.6,22.8,62.7-39.9,62.7     s22.8,193.9,77,179.6s14.3,105.5,45.6,156.8c13.5,22.1,27.5,37.3,39.1,47.5c4.4,3.8,11,0.4,10.6-5.4c-0.8-11.4,6.2-26.6,33.1-45     c62.7-42.8,145.4-102.7,119.7-122.6s68.4-14.6,77-62.9C1271.4,1308.1,1317.1,1296.6,1280,1268.1z"/>
			<path class="st10" d="M1464,749.2c34.6,24.7,66.9,68.4,63.1,36.1c-3.8-32.3,5.7-47.5,20.9-32.3c15.2,15.2,54.2,14.4,52.4,11.2     c-57.5-90.5-139.9-163.6-237.4-209.9c7.7,9.7,9.1,16.9-1.3,18c-34.2,3.8-91.2-20.9-53.2,55.1c38,76,7.6,81.7,30.4,100.8     c22.8,19,49.4-13.3,72.2,19c22.8,32.3,0,38-13.3,36.1c-13.3-1.9-11,9.5,23,41.8c34,32.3,53,3.8,37.8-24.7     C1443.5,772,1429.4,724.4,1464,749.2z"/>
			<path class="st10" d="M1618.3,794.4c-47.5,6.1-38,32.7-57,34.6c-19,1.9-15.2-11.4-36.1-17.1s-26.6,13.5-57,27.6     c-30.4,14.2-53.2,14.7-47.5,25.9c5.7,11.1,26.6,13,36.1,22.5c9.5,9.5-68.4,2.5-45.6,64c22.8,61.5,26.6,64,26.6,99.8     c0,35.8,81.7,90.9,116,43.4c34.2-47.5,68.4-7.6,70.3,43.7c1.9,51.3-11.4,129.3-41.8,188.2c-19.8,38.5-16.9,66.4-5.3,82.2     c70.5-94.9,112.2-212.4,112.2-339.6C1689.1,969.8,1663.4,876,1618.3,794.4z"/>
			<path class="st10" d="M1078.9,581.9c0,0,62.3-30.3,79.5-15.2c17.1,15.1,38,19.3,43.7,37.2c5.7,17.9,39.9,54.1,45.6,35     c5.7-19.1,26.6-15.8,26.6,5.4c0,21.2-26.6,24.6-38,21s-64.6-15.4-66.5,0c-1.9,15.4-87.4,11.6-68.4-13.1s-20.1-55.8-22.4-51.7     C1076.6,604.7,1078.9,581.9,1078.9,581.9z"/>
		</g>
		<linearGradient id="SVGID_7_" gradientUnits="userSpaceOnUse" x1="819.2756" y1="924.6943" x2="819.2756" y2="707.4402">
			<stop offset="0" style="stop-color:#FF5F18"/>
			<stop offset="0.5401" style="stop-color:#FF7E25"/>
			<stop offset="1" style="stop-color:#FF9C31"/>
		</linearGradient>
		<path class="st39" d="M818.4,707.4c-40.8,0.5-73.5,34-73,74.8c0.4,30.5,42.5,101.9,63.8,136c5.5,8.8,18.2,8.6,23.5-0.3    c20.4-34.6,60.9-106.9,60.5-137.5C892.7,739.7,859.2,707,818.4,707.4z M819.8,821.2c-22.6,0.3-41.1-17.8-41.3-40.4    c-0.3-22.6,17.8-41.1,40.4-41.3c22.6-0.3,41.1,17.8,41.3,40.4S842.3,821,819.8,821.2z"/>
		
			<linearGradient id="SVGID_8_" gradientUnits="userSpaceOnUse" x1="1413.4094" y1="510.9636" x2="1493.356" y2="510.9636" gradientTransform="matrix(0.9977 -6.710982e-02 6.710982e-02 0.9977 -86.5079 137.4232)">
			<stop offset="0" style="stop-color:#FF5F18"/>
			<stop offset="0.5401" style="stop-color:#FF7E25"/>
			<stop offset="1" style="stop-color:#FF9C31"/>
		</linearGradient>
		<path class="st40" d="M1396.1,491c-22.1,0.3-39.8,18.4-39.5,40.5c0.2,16.5,23,55.1,34.5,73.6c3,4.7,9.9,4.7,12.7-0.2    c11.1-18.7,32.9-57.8,32.7-74.4C1436.3,508.5,1418.2,490.8,1396.1,491z M1396.9,552.6c-12.2,0.1-22.2-9.6-22.4-21.8    c-0.1-12.2,9.6-22.2,21.8-22.4c12.2-0.1,22.2,9.6,22.4,21.8C1418.9,542.4,1409.1,552.4,1396.9,552.6z"/>
	</g>
	<g>
		<g>
			<linearGradient id="SVGID_9_" gradientUnits="userSpaceOnUse" x1="531.1682" y1="1727.0803" x2="531.1682" y2="1549.8635">
				<stop offset="2.976281e-03" style="stop-color:#2C4995"/>
				<stop offset="0.6787" style="stop-color:#7A95E0"/>
				<stop offset="1" style="stop-color:#9AB4FF"/>
			</linearGradient>
			<path class="st41" d="M818.1,1727.1H244.2c-8.3,0-15-6.7-15-15v-147.3c0-8.3,6.7-15,15-15h573.9c8.3,0,15,6.7,15,15v147.3     C833.1,1720.4,826.4,1727.1,818.1,1727.1z"/>
			<path class="st14" d="M801.6,1549.9H260.7c-17.4,0-31.4,14.1-31.4,31.4v63.5c1.8,0.3,3.7,0.5,5.6,0.5h592.6     c1.9,0,3.8-0.2,5.6-0.5v-63.5C833.1,1563.9,819,1549.9,801.6,1549.9z"/>
			<path class="st15" d="M271.5,1558.6c0-3-0.3-5.9-0.9-8.7h-9.9c-17.4,0-31.4,14.1-31.4,31.4v19.5     C252.6,1600.8,271.5,1581.9,271.5,1558.6z"/>
			<path class="st15" d="M801.6,1549.9H786c-0.6,2.8-0.9,5.7-0.9,8.7c0,23.3,18.9,42.2,42.2,42.2c1.9,0,3.8-0.2,5.7-0.4v-19.1     C833.1,1563.9,819,1549.9,801.6,1549.9z"/>
			<path class="st15" d="M833.1,1695.6v-10.4c-1.9-0.3-3.8-0.4-5.7-0.4c-23.3,0-42.2,18.9-42.2,42.2h16.5     C819,1727.1,833.1,1713,833.1,1695.6z"/>
			<path class="st15" d="M229.3,1695.6v-10.4c1.9-0.3,3.8-0.4,5.7-0.4c23.3,0,42.2,18.9,42.2,42.2h-16.5     C243.4,1727.1,229.3,1713,229.3,1695.6z"/>
			<path class="st15" d="M354.6,1684.8h-26c-3.6,0-6.6-2.9-6.6-6.6v-65.9c0-3.6,2.9-6.6,6.6-6.6h26c3.6,0,6.6,2.9,6.6,6.6v65.9     C361.2,1681.9,358.2,1684.8,354.6,1684.8z"/>
			<path class="st15" d="M719.1,1684.8h-26c-3.6,0-6.6-2.9-6.6-6.6v-65.9c0-3.6,2.9-6.6,6.6-6.6h26c3.6,0,6.6,2.9,6.6,6.6v65.9     C725.7,1681.9,722.7,1684.8,719.1,1684.8z"/>
			<circle class="st13" cx="435.3" cy="1662.7" r="11.6"/>
			<circle class="st13" cx="611.9" cy="1662.7" r="11.6"/>
			<path class="st13" d="M588.7,1694.1H458.9c-16.2,0-29.4-13.2-29.4-29.4c0-3.4,2.8-6.2,6.2-6.2c3.4,0,6.2,2.8,6.2,6.2     c0,9.4,7.6,17,17,17h129.8c9.4,0,17-7.6,17-17c0-3.4,2.8-6.2,6.2-6.2c3.4,0,6.2,2.8,6.2,6.2     C618.1,1681,604.9,1694.1,588.7,1694.1z"/>
		</g>
		<g>
			<linearGradient id="SVGID_10_" gradientUnits="userSpaceOnUse" x1="530.1997" y1="1549.8635" x2="530.1997" y2="1404.3525">
				<stop offset="0" style="stop-color:#FF5F18"/>
				<stop offset="0.4781" style="stop-color:#FF7E23"/>
				<stop offset="1" style="stop-color:#FFA531"/>
			</linearGradient>
			<path class="st42" d="M765.8,1549.9H294.6c-6.8,0-12.3-5.5-12.3-12.3v-120.9c0-6.8,5.5-12.3,12.3-12.3h471.2     c6.8,0,12.3,5.5,12.3,12.3v120.9C778.1,1544.4,772.6,1549.9,765.8,1549.9z"/>
			<circle class="st13" cx="588.3" cy="1479.3" r="14.6"/>
			<circle class="st13" cx="462.7" cy="1479.3" r="14.6"/>
			<path class="st13" d="M579.1,1485.7H465.7c-1.7,0-3-1.4-3-3v-6.7c0-1.7,1.4-3,3-3h113.4c1.7,0,3,1.4,3,3v6.7     C582.1,1484.3,580.8,1485.7,579.1,1485.7z"/>
			<rect x="664.4" y="1404.4" class="st13" width="32.1" height="145.5"/>
			<rect x="354.9" y="1404.4" class="st13" width="32.1" height="145.5"/>
		</g>
	</g>
	<g>
		<linearGradient id="SVGID_11_" gradientUnits="userSpaceOnUse" x1="1107.6033" y1="1298.4849" x2="1800.4697" y2="1298.4849">
			<stop offset="0" style="stop-color:#FF5F18"/>
			<stop offset="0.4781" style="stop-color:#FF7E23"/>
			<stop offset="1" style="stop-color:#FFA531"/>
		</linearGradient>
		<path class="st43" d="M1729.9,1439.7c-27.9,0-63.2-5.8-105.6-17.4c-107.9-29.5-251.5-93.9-404.3-181.4    c-37.3-21.3-75.1-44.1-112.4-67.6l10.1-16c37.1,23.4,74.6,46,111.7,67.2c151.4,86.7,293.4,150.5,399.9,179.6    c83.4,22.8,140,22,155.2-2.2l16,10.1C1788.8,1430.5,1765.2,1439.7,1729.9,1439.7z"/>
		<path class="st14" d="M1232.8,1231.1l50.8-37.4c3.2-2.3,3.1-7.1-0.1-9.3l0,0c-1.5-1.1-3.5-1.3-5.3-0.6l-68.6,25.9    c-29.3-26.4-70.5-61.5-112.5-95.2l21.9-31.9l117.6-72.4c9.8-6,7.6-20.9-3.5-23.8h0c-2.9-0.8-6-0.5-8.7,0.7l-97.7,43.6l-18.2-12.5    c-5.5-3.8-13.1-3.2-17.5,1.8c-5.3,6-4,15,2.3,19.4l5.5,3.8l-59.4,26.5c-14.1-10.6-27.7-20.4-40.2-29c-56.5-38.8-99.1-45-106.7-34    c-7.6,11,7.8,44.3,72,88.5c12.5,8.6,26.4,17.7,41.2,27l-3.5,65.8l-7.2-5c-5-3.4-12.6-2.7-16.9,1.5l0,0c-6,6-5.2,14.8,1.8,19.6    l20.7,14.2l-5.8,108c-0.2,2.9,0.7,5.8,2.6,8.1l0,0c6.4,8.2,19.6,5.1,21.5-5.2l26.6-139.3l21.2-30.9c46.3,27.1,93.8,52.9,129,70.5    l-0.3,69.1c0,1.9,0.9,3.7,2.5,4.7l2.5,1.7c3.3,2.2,7.8,0.6,8.8-3.3l15.3-58.6c15.9,7.2,25.9,10.6,27.1,8.9    C1252.3,1250.8,1245.3,1243.1,1232.8,1231.1z"/>
		<g>
			<path class="st15" d="M965.6,1082.6c97.6,67.1,281.4,164.9,286.8,157c3.9-5.7-154.6-144.4-252.2-211.5     c-56.5-38.8-99.1-45-106.7-34C886,1005.2,901.3,1038.4,965.6,1082.6z"/>
			<path class="st15" d="M1284.4,1172L1284.4,1172c-1.5-1.1-3.5-1.3-5.3-0.6l-82.4,31.1l-0.4,83.7c0,1.9,0.9,3.7,2.5,4.7l2.5,1.7     c3.3,2.2,7.8,0.6,8.8-3.3l17.2-65.9l57.4-42.1C1287.7,1179,1287.7,1174.2,1284.4,1172z"/>
			<path class="st15" d="M1234.1,973.9L1234.1,973.9c-2.9-0.8-6-0.5-8.7,0.7l-216.6,96.7l-13,242.6c-0.2,2.9,0.7,5.8,2.6,8.1h0     c6.4,8.2,19.6,5.1,21.5-5.2l26.6-139.3l73.6-107.4l117.6-72.4C1247.4,991.7,1245.2,976.8,1234.1,973.9z"/>
			<path class="st15" d="M1135.1,1047.4l7.7-11.2c1.9-2.8,1.2-6.7-1.6-8.6l-37.8-26c-2.8-1.9-6.7-1.2-8.6,1.6l-7.7,11.2     c-1.9,2.8-1.2,6.7,1.6,8.6l37.8,26C1129.3,1051,1133.2,1050.2,1135.1,1047.4z"/>
			<path class="st15" d="M1021.7,1212.2l7.7-11.2c1.9-2.8,1.2-6.7-1.6-8.6l-37.8-26c-2.8-1.9-6.7-1.2-8.6,1.6l-7.7,11.2     c-1.9,2.8-1.2,6.7,1.6,8.6l37.8,26C1015.9,1215.8,1019.8,1215.1,1021.7,1212.2z"/>
		</g>
	</g>
	<g>
		<g>
			
				<linearGradient id="SVGID_12_" gradientUnits="userSpaceOnUse" x1="352.2273" y1="998.1874" x2="352.2273" y2="879.6404" gradientTransform="matrix(1 0 0 1 299.0901 0)">
				<stop offset="0" style="stop-color:#000000"/>
				<stop offset="4.152179e-02" style="stop-color:#04060D"/>
				<stop offset="0.1912" style="stop-color:#101936"/>
				<stop offset="0.3446" style="stop-color:#1A2958"/>
				<stop offset="0.5003" style="stop-color:#213572"/>
				<stop offset="0.6591" style="stop-color:#273E85"/>
				<stop offset="0.823" style="stop-color:#2A4390"/>
				<stop offset="1" style="stop-color:#2B4594"/>
			</linearGradient>
			<path class="st44" d="M616.4,939.6c0,0,22.1-62.4,35-59.9s-2.9,52.7,16.2,69.3c19.1,16.7,20.8,37.7,17.3,45.6     c-3.5,7.9-34.2,0-34.2,0L616.4,939.6z"/>
			
				<linearGradient id="SVGID_13_" gradientUnits="userSpaceOnUse" x1="310.0592" y1="994.0089" x2="226.2917" y2="848.9192" gradientTransform="matrix(1 0 0 1 299.0901 0)">
				<stop offset="0" style="stop-color:#000000"/>
				<stop offset="0.1308" style="stop-color:#0A0F21"/>
				<stop offset="0.3213" style="stop-color:#15224A"/>
				<stop offset="0.5078" style="stop-color:#1F316A"/>
				<stop offset="0.6866" style="stop-color:#263C81"/>
				<stop offset="0.8544" style="stop-color:#2A438F"/>
				<stop offset="1" style="stop-color:#2B4594"/>
			</linearGradient>
			<path class="st45" d="M627.5,834.5c0,0,2.2-28.1-32-22.8c-26,4-46.9,35.1-49.6,55.3c-2.6,20.2,7.5,46.5-5.3,61     s-45.6,11.8-39.9,68c5.7,56.1,67.1,21.9,67.1,21.9l56.6-38.2L613,892.4L627.5,834.5z"/>
		</g>
		<g>
			
				<linearGradient id="SVGID_14_" gradientUnits="userSpaceOnUse" x1="1166.6705" y1="922.8444" x2="1087.8771" y2="786.3701" gradientTransform="matrix(-0.9998 -2.206003e-02 -2.206003e-02 0.9998 2132.4116 24.3524)">
				<stop offset="0.4358" style="stop-color:#243361"/>
				<stop offset="0.4962" style="stop-color:#25366A"/>
				<stop offset="0.6787" style="stop-color:#283E81"/>
				<stop offset="0.8507" style="stop-color:#2A438F"/>
				<stop offset="1" style="stop-color:#2B4594"/>
			</linearGradient>
			<path class="st46" d="M935.2,914.4c0.9,0,1.8-0.3,2.4-1.1l102.5-114.7c1.2-1.3,1-3.3-0.3-4.5c-1.3-1.2-3.3-1-4.5,0.3L933,909.2     c-1.2,1.3-1,3.3,0.3,4.5C933.8,914.1,934.5,914.4,935.2,914.4z"/>
			<g>
				<path class="st47" d="M665.4,1012.4c35.3,36.3,135.7,17.3,157,15.4c2.5-0.2,4.9-1.1,7.1-2.4c13.3-8.7,64.6-42.8,88.6-71.2      l0.1,0.1c0,0,0.2-0.4,0.5-0.9c3.2-3.7,5.9-7,8.2-9.7c0.2-0.1,0.5-0.2,0.7-0.1c6.6,3.7,18-8.9,19-10.8c1-2,10-7.9,10.4-9.5      c0.4-1.6-4.5-19.1-5.6-21.2c-1.1-2.1-6.3-3-6.3-3s11.9-16.7,13.1-19.2c1.1-2.5-2-4.4-3.2-4.1c-1.2,0.4-22.8,23.4-22.8,23.4      s-5.1,3.9-8.3,4.4c-3.2,0.5-5,3.4-10.3,10.5c-5.3,7.2-3.5,15.9-3.5,15.9s-7.3,7.7-8.3,8.1l-1.2,1.4      c-21,14.7-70.4,39.7-85.8,47.3c-3,1.5-6.4,2-9.7,1.4c-24.1-4.4-136.4-21.4-149.9-17.1c-22.6,5.1-27.9-0.3-52.4,9      C574.3,991,659.9,1039,665.4,1012.4z"/>
				
					<linearGradient id="SVGID_15_" gradientUnits="userSpaceOnUse" x1="1334.2897" y1="930.8304" x2="1334.2897" y2="1034.4805" gradientTransform="matrix(-1 0 0 1 2112.397 0)">
					<stop offset="0" style="stop-color:#FFFFFF"/>
					<stop offset="0.1812" style="stop-color:#F9FAFF"/>
					<stop offset="0.4341" style="stop-color:#E6EEFF"/>
					<stop offset="0.7279" style="stop-color:#C9D9FF"/>
					<stop offset="1" style="stop-color:#A7C1FF"/>
				</linearGradient>
				<path class="st48" d="M909.4,930.8L909.4,930.8c-1.9,1.9-6.8,7-7.6,7.4l-1.2,1.4c-21,14.7-70.4,39.7-85.8,47.3      c-3,1.5-6.4,2-9.7,1.4c-24.1-4.4-139.8-27.1-153.3-22.7c-22.6,5.1-30.8,32.8-10.4,45c9.5,5.7,41.6,14.6,53.5,18      c44.5,12.8,110.6,0.7,127.4-0.8c2.5-0.2,4.9-1.1,7.1-2.4c13.3-8.7,64.6-42.8,88.6-71.2l0.1,0.1c0,0,0.2-0.4,0.5-0.9      c2.9-3.5,5.5-6.5,7.7-9.1L909.4,930.8z"/>
			</g>
			<path class="st49" d="M918.1,954.3c0,0,0.2-0.4,0.5-0.9c0.7-0.9,1.5-1.7,2.2-2.6c0.5-0.5,0.9-1.1,1.3-1.6     c0.2-0.3,0.5-0.6,0.7-0.8c0.5-0.6,1-1.1,1.4-1.7c0.1-0.2,0.3-0.4,0.4-0.5c0.6-0.7,1.1-1.3,1.6-1.9l-6.7-5.3     c-4.7,7.2-16.3,23.6-30.3,33.2c-18.4,12.6-52.6,41.2-65.1,46.1c-12.5,4.8-72.9,6.8-91.5,3.3c-36.9-6.9-84.6-31.3-101.5-38     c-3.3,9.6-0.6,20.5,10.4,27c3.8,2.3,11.3,5.1,19.7,7.9c2.2-1.3,3.6-3.2,4.2-6.1c7.6,7.8,18.2,13.1,30.4,16.5     c0.5,0.2,1.1,0.3,1.6,0.4c1.1,0.3,2.3,0.6,3.4,0.9c0.6,0.1,1.1,0.3,1.7,0.4c1.3,0.3,2.6,0.6,4,0.8c0.4,0.1,0.8,0.2,1.1,0.2     c1.7,0.3,3.5,0.6,5.2,0.8c0.4,0.1,0.9,0.1,1.4,0.2c1.3,0.2,2.7,0.4,4,0.5c0.6,0.1,1.2,0.1,1.8,0.2c1.2,0.1,2.5,0.2,3.8,0.4     c0.6,0,1.2,0.1,1.8,0.1c1.6,0.1,3.1,0.2,4.7,0.3c0.3,0,0.5,0,0.8,0c1.8,0.1,3.7,0.2,5.5,0.2c0.5,0,1.1,0,1.6,0     c1.3,0,2.7,0.1,4,0.1c0.6,0,1.3,0,1.9,0c1.3,0,2.6,0,3.9,0c0.6,0,1.1,0,1.7,0c1.8,0,3.7-0.1,5.5-0.1c0,0,0.1,0,0.1,0     c1.8-0.1,3.5-0.1,5.3-0.2c0.6,0,1.1-0.1,1.7-0.1c1.3-0.1,2.5-0.1,3.7-0.2c0.6,0,1.2-0.1,1.8-0.1c1.3-0.1,2.5-0.2,3.8-0.3     c0.5,0,1-0.1,1.4-0.1c1.7-0.1,3.4-0.3,5-0.4c0.3,0,0.6-0.1,0.9-0.1c1.4-0.1,2.7-0.2,4.1-0.4c0.5-0.1,1.1-0.1,1.6-0.2     c1.1-0.1,2.2-0.2,3.3-0.3c0.5-0.1,1-0.1,1.6-0.2c1.2-0.1,2.3-0.3,3.5-0.4c0.3,0,0.7-0.1,1.1-0.1c1.5-0.2,2.9-0.3,4.3-0.5     c0.3,0,0.7-0.1,1-0.1c1.1-0.1,2.1-0.3,3.1-0.4c0.4-0.1,0.9-0.1,1.3-0.2c0.9-0.1,1.8-0.2,2.7-0.3c0.4,0,0.8-0.1,1.2-0.1     c1.1-0.1,2.1-0.3,3.1-0.4c1.2-0.2,2.3-0.3,3.3-0.4c0.3,0,0.5-0.1,0.8-0.1c0.7-0.1,1.4-0.2,2.1-0.3c0.3,0,0.6-0.1,0.9-0.1     c0.6-0.1,1.2-0.1,1.7-0.2c0.3,0,0.5-0.1,0.8-0.1c0.7-0.1,1.4-0.2,2-0.2c0.6-0.1,1.3-0.2,1.9-0.3c1-0.2,2-0.6,2.9-1     c0.4-0.2,0.8-0.4,1.2-0.6c0.4-0.2,0.7-0.4,1.1-0.6c0.4-0.3,0.9-0.6,1.4-0.9c0.5-0.3,1-0.7,1.6-1c2.8-1.8,6.4-4.2,10.6-7.1     c0.8-0.6,1.7-1.2,2.6-1.8c1.8-1.2,3.6-2.5,5.5-3.8c1-0.7,1.9-1.4,2.9-2.1c5-3.5,10.3-7.4,15.8-11.5c3.3-2.5,6.6-5,9.9-7.6     c2.2-1.7,4.4-3.5,6.6-5.3c12-9.8,23.5-20.3,31.8-30L918.1,954.3z"/>
		</g>
		<g>
			
				<linearGradient id="SVGID_16_" gradientUnits="userSpaceOnUse" x1="272.1345" y1="1755.9297" x2="357.3369" y2="1755.9297" gradientTransform="matrix(1 0 0 1 299.0901 0)">
				<stop offset="0" style="stop-color:#000000"/>
				<stop offset="0.2038" style="stop-color:#0A1124"/>
				<stop offset="0.5787" style="stop-color:#1C2D60"/>
				<stop offset="0.8548" style="stop-color:#273E86"/>
				<stop offset="1" style="stop-color:#2B4594"/>
			</linearGradient>
			<path class="st50" d="M583.5,1710.2c0,0,14.8,28.9,23.2,40.5s18.3,24.6,23.9,26.5s18.3,6.3,22.5,8.7s4.5,16.1,0,15.7     c-4-0.3-48.5-7.7-48.5-7.7l-26.7-33.1l-5.5-18.6C568.9,1730.3,573.4,1717.4,583.5,1710.2L583.5,1710.2z"/>
			<path class="st51" d="M499.4,1294.4c-2.9-36.8,19.3-65.3,19.3-65.3c5.2-3.5,9.9-5.9,14.3-7.4c18.9,7.1,59.4,25.3,79.9,45.3     c1.9,1.8,3.5,4.3,4.8,7.2c25.4-4.4,60.8-3,60.8-3c28.4,181.3,39.4,244.1,34.8,274.5c-4.4,29.2-51.1,83-80.6,130.8     c-21.6,35-28.8,70.8-28.8,70.8l-20.6-33.7c0,0,22.6-101.9,32-122.2c6.6-14.1,27.7-38.7,32.1-44.9c6.7-9.5-32.6-71.1-43.2-108     c-6.9,32-13.4,57.3-14.5,63.5c-19,109-14.1,230.1-14.1,230.1l19.3,33.5l-27.4,15.5l-21.6-24.3l-1.4-27.9     c-6.1-22.2-20.4-104-27.5-144.8c-8.2-46.6,17.1-89.7,14.7-102.4C529.4,1468.8,502.3,1331.2,499.4,1294.4z"/>
			
				<linearGradient id="SVGID_17_" gradientUnits="userSpaceOnUse" x1="239.0485" y1="1785.9186" x2="335.4432" y2="1785.9186" gradientTransform="matrix(1 0 0 1 299.0901 0)">
				<stop offset="0" style="stop-color:#000000"/>
				<stop offset="4.152179e-02" style="stop-color:#04060D"/>
				<stop offset="0.1912" style="stop-color:#101936"/>
				<stop offset="0.3446" style="stop-color:#1A2958"/>
				<stop offset="0.5003" style="stop-color:#213572"/>
				<stop offset="0.6591" style="stop-color:#273E85"/>
				<stop offset="0.823" style="stop-color:#2A4390"/>
				<stop offset="1" style="stop-color:#2B4594"/>
			</linearGradient>
			<path class="st52" d="M538.1,1782.7c0,0-0.5,9.6,11.5,13.8s11.8,5.2,11.8,5.2s21.5,18.1,35.6,19.5c14.1,1.4,30.8,3.5,36.2-1.9     c3.5-3.5,0.6-23.2-9.9-26.7c-10.5-3.5-32.3-35.8-32.3-39.7s-20.2-7.5-28.6,4.6c-7,10.2-16.6-6.8-16.6-6.8L538.1,1782.7z"/>
		</g>
		<g>
			
				<linearGradient id="SVGID_18_" gradientUnits="userSpaceOnUse" x1="1429.5161" y1="1119.5526" x2="1613.2083" y2="1119.5526" gradientTransform="matrix(-1 0 0 1 2112.397 0)">
				<stop offset="0" style="stop-color:#FFFFFF"/>
				<stop offset="0.2665" style="stop-color:#ECF2FF"/>
				<stop offset="0.805" style="stop-color:#BACFFF"/>
				<stop offset="1" style="stop-color:#A7C1FF"/>
			</linearGradient>
			<path class="st53" d="M538.5,974.1L538.5,974.1c10.4-4.6,21-13.3,46.8-24.3c0,0,0,0,0,0l5.5,12.8c4.7,10.9,19.9,11.4,25.3,0.9     l6.6-13.7c0,0,0,0,0,0c0.1,0,19.9,8.9,31.1,13.9c4,1.8,6.8,5.3,7.8,9.5c1.4,6,3.8,15.8,7.8,28.4c2.4,7.7,8.8,23.2,11.2,32.3     c8.4,31.2-8.1,52.8-10.1,87.8c-3,53.1,9.9,149,9.9,149s-8.1,11-71.5,18c-36.7,4.1-109.7-24.3-109.7-24.3s25.5-48.8,35.6-72.1     c7.8-17.9,7.1-25.4,11.6-58.1c2.5-17.9-32.7-71.2-33.3-86.8C513,1044.2,555.1,1018.4,538.5,974.1z"/>
			
				<linearGradient id="SVGID_19_" gradientUnits="userSpaceOnUse" x1="1637.9434" y1="1250.2836" x2="1495.9222" y2="1004.2958" gradientTransform="matrix(-1 0 0 1 2112.397 0)">
				<stop offset="2.976281e-03" style="stop-color:#2C49A1;stop-opacity:0.8"/>
				<stop offset="0.2599" style="stop-color:#536FBF;stop-opacity:0.8515"/>
				<stop offset="0.5923" style="stop-color:#809BE2;stop-opacity:0.9182"/>
				<stop offset="0.8502" style="stop-color:#9CB6F7;stop-opacity:0.9699"/>
				<stop offset="1" style="stop-color:#A6C0FF"/>
			</linearGradient>
			<path class="st54" d="M572.1,1112.1c-3.6-19.3-9.9-28.1-16-49.1C546,1028,581,975.2,551,967.3c-4.7,2.8-8.7,5.1-12.5,6.8     c16.7,44.3-25.5,70.1-25.4,73.5c0.6,15.6,35.8,68.9,33.3,86.8c-4.5,32.7-3.8,40.2-11.6,58.1c-10.2,23.3-35.6,72.1-35.6,72.1     s24.8,9.6,52.7,16.9C556.6,1258.6,575.5,1130.6,572.1,1112.1z"/>
			<path class="st55" d="M619.7,1115.8c9.4,4.5,25.8,12.2,41.7,8.1c3.8-1,6.7-0.4,8.9,1c0-1,0.1-2.1,0.2-3.1     c0.3-6.1,1.1-11.7,2.1-17.1c-16.1,5.2-33.6,8.4-42.6,4.8C618.4,1104.8,610.3,1111.3,619.7,1115.8z"/>
		</g>
		
			<linearGradient id="SVGID_20_" gradientUnits="userSpaceOnUse" x1="1586.5935" y1="1512.1136" x2="1415.4229" y2="1215.6372" gradientTransform="matrix(-1 0 0 1 2112.397 0)">
			<stop offset="0.4358" style="stop-color:#243361"/>
			<stop offset="0.4962" style="stop-color:#25366A"/>
			<stop offset="0.6787" style="stop-color:#283E81"/>
			<stop offset="0.8507" style="stop-color:#2A438F"/>
			<stop offset="1" style="stop-color:#2B4594"/>
		</linearGradient>
		<path class="st56" d="M673,1201.8l-17.1,2.4c-17.1,2.4-34.4,2.4-51.4-0.1l-73.1-10.6c0,0-25.8,21.9-32.2,71    c-3.6,27.4-0.6,68.4,10.5,114.9c20.8,87-1.6,122.5-1.6,122.5l208.1-4l-4.3-74.5c-2.5-43.6-9.2-86.9-19.9-129.3L673,1201.8z"/>
		<g>
			<path class="st51" d="M609.7,989.9L609.7,989.9c-14.6,2.6-28.5-7.1-31-21.7l-0.7-67.5l43.6,2.5l9.9,55.7     C633.9,973.4,624.2,987.3,609.7,989.9z"/>
			<path class="st57" d="M578.3,937.1c13.1,14.6,31,24.1,52.3,20.3c0.2,0,0.3-0.1,0.5-0.1l-9.6-54.1l-43.6-2.5L578.3,937.1z"/>
			<path class="st51" d="M660,851c1.6,30-11.7,90.2-31.8,90.2c-36,0-54.4-38.2-56-68.2s15.5-58.5,35.5-59.6     C627.7,812.4,658.3,821.1,660,851z"/>
			
				<linearGradient id="SVGID_21_" gradientUnits="userSpaceOnUse" x1="338.8913" y1="874.7707" x2="338.8913" y2="813.6751" gradientTransform="matrix(1 0 0 1 299.0901 0)">
				<stop offset="0" style="stop-color:#000000"/>
				<stop offset="4.152179e-02" style="stop-color:#04060D"/>
				<stop offset="0.1912" style="stop-color:#101936"/>
				<stop offset="0.3446" style="stop-color:#1A2958"/>
				<stop offset="0.5003" style="stop-color:#213572"/>
				<stop offset="0.6591" style="stop-color:#273E85"/>
				<stop offset="0.823" style="stop-color:#2A4390"/>
				<stop offset="1" style="stop-color:#2B4594"/>
			</linearGradient>
			<path class="st58" d="M660,851c-1.4-25.6-23.9-35.6-42.9-37.3c-0.1,0.2-0.3,0.4-0.4,0.7c-4.3,9.4,9.3,27.2,18.7,31.8     c14.1,6.9,20.6,18.7,23.5,28.7C659.9,866,660.3,857.7,660,851z"/>
			
				<linearGradient id="SVGID_22_" gradientUnits="userSpaceOnUse" x1="312.9309" y1="906.7994" x2="266.6497" y2="826.6378" gradientTransform="matrix(1 0 0 1 299.0901 0)">
				<stop offset="0.4358" style="stop-color:#243361"/>
				<stop offset="0.4962" style="stop-color:#25366A"/>
				<stop offset="0.6787" style="stop-color:#283E81"/>
				<stop offset="0.8507" style="stop-color:#2A438F"/>
				<stop offset="1" style="stop-color:#2B4594"/>
			</linearGradient>
			<path class="st59" d="M621.9,814.1c12.7,3.1,17.5,33.7-15.3,41.6c-13.9,3.4-22.9,9.9-18.8,21.9c0.5,1.6,8.2,14,8.6,15.6     c7.6,32.9-37,38.7-37,38.7s10.1-11.1,5.4-32.5C553.9,849.8,565.2,800.1,621.9,814.1z"/>
		</g>
		<g>
			<path class="st51" d="M612.3,1213.8c-3.3,2.5-7.3,4.8-10,6.2c-2,1.1-4.4,1-6.4-0.1l-25.6-15c-2.5-1.5-5.3-2.5-8.2-2.9l-33.9-2.5     l-12-13.1l13.7-18.6l42.6-1.4c1.4,0,2.7,0.5,3.7,1.6l36.5,42.4C613.6,1211.4,613.4,1213,612.3,1213.8z"/>
			<path class="st0" d="M475,1105.1c0,0,48.5-40.1,71.8-76c16.9-26,12.6-50,4.2-53.8c-15.1-6.9-32.5,2.3-59.1,26.4     c-22.7,20.6-75.2,81.3-75.2,105.3c0,40.3,111.5,92.5,111.5,92.5s-6.2-15.8,6.4-31.6L475,1105.1z"/>
			<path class="st57" d="M563.3,1191.8c0,0-29.7,4.9-36.4,2.3c-2.2-0.9-4.7-2.2-7.1-3.6l8.4,9.1l33.9,2.5c2.9,0.5,5.7,1.5,8.2,2.9     l25.6,15c1.4,0.8,3.1,1.1,4.7,0.7C595.7,1213.6,563.3,1191.8,563.3,1191.8z"/>
			<path class="st37" d="M551,975.3c-15.1-6.9-32.5,2.3-59.1,26.4c-22.7,20.6-75.2,81.3-75.2,105.3c0,40.3,111.5,92.5,111.5,92.5     s-0.8-2.1-1.3-5.5c0,0,0,0,0,0c-77.9-44.5-87.8-75.8-88.8-92.6c-1-15.3,99.7-101.2,118.9-117.4     C555.8,979.6,553.6,976.5,551,975.3z"/>
		</g>
	</g>
	<g>
		<g>
			<g>
				<ellipse class="st19" cx="1448.2" cy="1885.5" rx="617.2" ry="99"/>
				<ellipse class="st20" cx="1448.2" cy="1885.5" rx="588.3" ry="94.4"/>
				<ellipse class="st21" cx="1448.2" cy="1885.5" rx="559.4" ry="89.7"/>
				<ellipse class="st22" cx="1448.2" cy="1885.5" rx="530.5" ry="85.1"/>
				<ellipse class="st23" cx="1448.2" cy="1885.5" rx="501.6" ry="80.5"/>
				<ellipse class="st24" cx="1448.2" cy="1885.5" rx="472.7" ry="75.8"/>
				<ellipse class="st25" cx="1448.2" cy="1885.5" rx="443.8" ry="71.2"/>
				<ellipse class="st26" cx="1448.2" cy="1885.5" rx="414.9" ry="66.6"/>
				<ellipse class="st27" cx="1448.2" cy="1885.5" rx="386.1" ry="61.9"/>
				<ellipse class="st28" cx="1448.2" cy="1885.5" rx="357.2" ry="57.3"/>
				<ellipse class="st29" cx="1448.2" cy="1885.5" rx="328.3" ry="52.7"/>
				<ellipse class="st30" cx="1448.2" cy="1885.5" rx="299.4" ry="48"/>
				<ellipse class="st31" cx="1448.2" cy="1885.5" rx="270.5" ry="43.4"/>
				<ellipse class="st32" cx="1448.2" cy="1885.5" rx="241.6" ry="38.8"/>
				<ellipse class="st33" cx="1448.2" cy="1885.5" rx="212.7" ry="34.1"/>
				<ellipse class="st34" cx="1448.2" cy="1885.5" rx="183.8" ry="29.5"/>
				<ellipse class="st35" cx="1448.2" cy="1885.5" rx="155" ry="24.9"/>
				<ellipse class="st36" cx="1448.2" cy="1885.5" rx="126.1" ry="20.2"/>
				<ellipse class="st37" cx="1448.2" cy="1885.5" rx="97.2" ry="15.6"/>
			</g>
		</g>
		<g>
			<g>
				<circle class="st13" cx="1787.6" cy="1862" r="14.7"/>
				<circle class="st13" cx="1632.6" cy="1888" r="14.7"/>
				<path class="st14" d="M1643.1,1619.7c-19.5,0-36.8-14.1-40.1-34l-30.8-184c-1.8-10.7,0.7-21.5,7-30.4      c6.3-8.9,15.7-14.7,26.4-16.5l37.3-6.2c10.7-1.8,21.5,0.7,30.4,7c8.9,6.3,14.7,15.7,16.5,26.4l30.8,184      c1.8,10.7-0.7,21.5-7,30.4c-6.3,8.9-15.7,14.7-26.4,16.5l-37.3,6.2C1647.6,1619.6,1645.3,1619.7,1643.1,1619.7z M1649.6,1360.5      c-1.6,0-3.1,0.1-4.7,0.4l-37.3,6.2c-7.4,1.2-13.9,5.3-18.3,11.4c-4.4,6.1-6.1,13.6-4.9,21l30.8,184      c2.6,15.3,17.1,25.7,32.5,23.2l37.3-6.2c7.4-1.2,13.9-5.3,18.3-11.4c4.4-6.1,6.1-13.6,4.9-21l-30.8-184      c-1.2-7.4-5.3-13.9-11.4-18.3C1661.1,1362.3,1655.4,1360.5,1649.6,1360.5z"/>
				<path class="st13" d="M1651.7,1618.3c-7.4,0-14.3-0.8-20.4-2.4c-12.4-3.2-20-9.5-21.4-17.6c-2.7-15.8,19.5-31.8,51.6-37.2      c14.4-2.4,28.4-2.2,39.5,0.7c12.4,3.2,20,9.5,21.4,17.6c1.4,8.1-3.8,16.5-14.4,23.6c-9.5,6.3-22.7,11.2-37.1,13.6      C1664.3,1617.8,1657.9,1618.3,1651.7,1618.3z M1680.7,1569.3c-5.6,0-11.5,0.5-17.5,1.5c-26.7,4.5-45,17.4-43.6,26      c0.7,4,6,7.7,14.2,9.8c9.8,2.5,22.4,2.7,35.5,0.5c13.1-2.2,24.9-6.5,33.3-12.1c7.1-4.7,10.9-9.9,10.2-13.9      c-0.7-4-6-7.7-14.2-9.8C1693.3,1569.9,1687.2,1569.3,1680.7,1569.3z"/>
				
					<linearGradient id="SVGID_23_" gradientUnits="userSpaceOnUse" x1="532.2878" y1="1721.8153" x2="770.076" y2="1484.0271" gradientTransform="matrix(-0.9862 0.1653 0.1653 0.9862 2063.218 41.6092)">
					<stop offset="0" style="stop-color:#FF5F18"/>
					<stop offset="0.4781" style="stop-color:#FF7E23"/>
					<stop offset="1" style="stop-color:#FFA531"/>
				</linearGradient>
				<path class="st60" d="M1630.6,1891.6l160.2-26.8c8.4-1.4,14.1-9.4,12.7-17.9l-44.5-265.6c-1.4-8.4-9.4-14.1-17.9-12.7      l-160.2,26.8c-8.4,1.4-14.1,9.4-12.7,17.9l44.5,265.6C1614.2,1887.3,1622.2,1893,1630.6,1891.6z"/>
				<path class="st61" d="M1773.4,1843.3l8.2-1.4c2.1-0.3,3.5-2.3,3.1-4.4l-37.2-222.3c-0.3-2.1-2.3-3.5-4.4-3.1l-8.2,1.4      c-2.1,0.3-3.5,2.3-3.1,4.4l37.2,222.3C1769.4,1842.2,1771.3,1843.6,1773.4,1843.3z"/>
				<path class="st61" d="M1739.9,1848.9l8.2-1.4c2.1-0.3,3.5-2.3,3.1-4.4l-37.2-222.3c-0.3-2.1-2.3-3.5-4.4-3.1l-8.2,1.4      c-2.1,0.3-3.5,2.3-3.1,4.4l37.2,222.3C1735.9,1847.8,1737.9,1849.2,1739.9,1848.9z"/>
				<path class="st61" d="M1706.5,1854.5l8.2-1.4c2.1-0.3,3.5-2.3,3.1-4.4l-37.2-222.3c-0.3-2.1-2.3-3.5-4.4-3.1l-8.2,1.4      c-2.1,0.3-3.5,2.3-3.1,4.4l37.2,222.3C1702.5,1853.4,1704.4,1854.8,1706.5,1854.5z"/>
				<path class="st61" d="M1673,1860.1l8.2-1.4c2.1-0.3,3.5-2.3,3.1-4.4l-37.2-222.3c-0.3-2.1-2.3-3.5-4.4-3.1l-8.2,1.4      c-2.1,0.3-3.5,2.3-3.1,4.4l37.2,222.3C1669,1859,1671,1860.4,1673,1860.1z"/>
				<path class="st61" d="M1639.6,1865.7l8.2-1.4c2.1-0.3,3.5-2.3,3.1-4.4l-37.2-222.3c-0.3-2.1-2.3-3.5-4.4-3.1l-8.2,1.4      c-2.1,0.3-3.5,2.3-3.1,4.4l37.2,222.3C1635.6,1864.6,1637.5,1866,1639.6,1865.7z"/>
				<path class="st13" d="M1578.3,1409c-4,0-7.5-2.9-8.2-7c-3.9-23.3,11.9-45.4,35.2-49.3l37.3-6.2c11.3-1.9,22.6,0.7,31.9,7.4      c9.3,6.6,15.5,16.5,17.4,27.8c0.8,4.5-2.3,8.9-6.9,9.6c-4.5,0.8-8.9-2.3-9.6-6.9c-1.2-6.9-4.9-12.9-10.6-17s-12.6-5.6-19.5-4.5      l-37.3,6.2c-14.2,2.4-23.8,15.9-21.4,30.1c0.8,4.5-2.3,8.9-6.9,9.6C1579.2,1409,1578.7,1409,1578.3,1409z"/>
			</g>
			<g>
				<g>
					<g>
						<path class="st47" d="M1648.7,1347.4c-11.3-9.1-26.4-13.7-28.3-17.8c-26.4-56-67.4-140.5-73.3-173.6        c-8.3-46.9-30.4-124.9-54.6-145.1c-9.3-7.8-19.7-12.3-26.3-11.2c-28-7.3-34.1-16.3-62.1-16c-24,0.2-12,2.8-55.9,11.3        c-14.7,0.8-23.7,14.2-42.7,31c-39,34.3-55.3,51.4-55.3,51.4s-86.9-23.2-114.1-29.8l-1.4-0.8c-1,0-9.8-4.2-9.8-4.2        s-1.3-8.1-8.2-12.4c-6.9-4.4-9.4-6.3-12.3-5.6c-2.9,0.7-8.5-1-8.5-1s-26.1-12.6-27.3-12.5c-1.2,0.1-3.2,2.8-1.4,4.5        c1.8,1.8,17.5,12.1,17.5,12.1s-4.2,2.5-4.4,4.6c-0.2,2.2,1.4,18.7,2.2,19.9c0.8,1.2,10.5,3.3,12,4.7c1.5,1.4,15.4,8.3,19.8,3        c0.1-0.2,0.4-0.2,0.6-0.2c2.8,1.6,6.3,3.4,10.2,5.6c0.4,0.3,0.7,0.6,0.7,0.6l0.1-0.1c34.5,18.8,104,55.9,116.6,56.8        c16.9,1.2,69.7-34.7,91.9-60.1c5.5-6.3,9.2-13.1,11.7-19.6c13.5,20.9,34.1,41.7,34.1,41.7s60.9,26.4,78,15.5        c5.3-3.4,8.2-14.1,9.8-27.4c17.3,40.2,46.9,95.4,46.9,95.4s9.5,44.8,17.3,62.6c7.8,17.8,63.2,109,72.5,113.6        c9.3,4.7,25.8,26.5,25.8,26.5l18.1,3.7C1648.7,1374.6,1653.8,1351.5,1648.7,1347.4z"/>
						<path class="st62" d="M1342.1,1039.9c-10.5,22-85.3,69.1-101.2,71.8c-15.9,2.7-118.7-58.6-122.9-59.7c-4.3-1.2-10.1,2.3-14,0        c-3.9-2.3-14.7-4.7-18.6-10.1c-2.3-3.2-3.6-5.3-5-7c0.3,5.3,1.5,16.3,2.2,17.3c0.8,1.2,10.5,3.3,12,4.7        c1.5,1.4,15.4,8.3,19.8,3c0.1-0.2,0.4-0.2,0.6-0.2c2.8,1.6,6.3,3.4,10.2,5.6c0.4,0.3,0.7,0.6,0.7,0.6l0.1-0.1        c34.5,18.8,104,55.9,116.6,56.8c16.9,1.2,69.7-34.7,91.9-60.1c5.5-6.3,9.2-13.1,11.7-19.6c3.1,4.8,6.6,9.6,10.1,14.1        C1352.1,1041.4,1346.9,1030,1342.1,1039.9z"/>
						<path class="st62" d="M1639.7,1364.4c-1.9,0.5-6.8,2-11.5,3.4c1.5,1.9,2.4,3.1,2.4,3.1l18.1,3.7c0,0,5.1-23.1,0-27.1        c-11.3-9.1-26.4-13.7-28.3-17.8c-26.4-56-67.4-140.5-73.3-173.6c-8.3-46.9-30.4-124.9-54.6-145.1        c-9.3-7.8-19.7-12.3-26.3-11.2c-1.4-0.4-2.7-0.7-4-1.1l1.3,8.5c0,0,14.5,3,29.1,25.1c14.5,22.1,43.6,101.2,45.4,117.5        c1.7,16.3,7.6,44.2,16.9,59.9c9.3,15.7,55.8,118.7,59.9,122.1c4.1,3.5,27.9,15.7,28.5,19.2S1643.8,1363.2,1639.7,1364.4z"/>
						<g>
							<g>
								<path class="st47" d="M1385.1,1003.5l3.7-38.8l55.3-32.5l-1.5,16.2c-1.7,18.2-0.6,36.7,3.1,54.6l0,0c0,0-42.2,7.7-60.6,1.9          V1003.5z"/>
								<path class="st62" d="M1387.8,972.5c21.4-1.4,47.4-14.9,56.3-39.8l-0.1-2.2l-55.3,32.5L1387.8,972.5z"/>
								
									<linearGradient id="SVGID_24_" gradientUnits="userSpaceOnUse" x1="1236.8158" y1="581.8093" x2="1236.8158" y2="278.4449" gradientTransform="matrix(1.0161 -0.4317 0.399 0.9393 87.928 1097.4568)">
									<stop offset="0" style="stop-color:#FF5F18"/>
									<stop offset="0.1907" style="stop-color:#FF741F"/>
									<stop offset="0.5194" style="stop-color:#FF9229"/>
									<stop offset="0.8007" style="stop-color:#FFA42F"/>
									<stop offset="1" style="stop-color:#FFAB31"/>
								</linearGradient>
								<path class="st63" d="M1443.3,846.2c0,0-2.4-14.3,14-21.7c19.4-8.7,39.5-2.1,54.2,13.9c26.3,28.6,15.6,51.4,18.6,65.8          s14.8,14.2,24.3,30.2c4.7,7.9-0.9,21.8,11.6,28.9c14.6,8.2,39.1,31.3,40.3,68.6c1,32.7-19.5,86.4-57.5,87          c-51.4,0.9-49.8-28.3-44.6-41.7c16-41.3,9.9-48.8,6-59.8c-3.9-11-32.9-18-36.3-37.9c-5.3-31,10.1-54,9-68.3          c-0.9-11.6,8.2-66.4-14.9-66C1462.6,845.2,1452.6,839,1443.3,846.2z"/>
								<path class="st47" d="M1442.1,913.2c-4.8,33.2-35.7,50.9-59.2,51.6c-15.8,0.5-29.3-34.8-24.5-68.1s26.9-53.3,50.2-49.9          C1432,850.2,1447,879.9,1442.1,913.2z"/>
								<path class="st64" d="M1455.3,864.8l-24-16.1c-2.2-1.5-2.8-4.5-1.3-6.8l6-9c1.5-2.2,4.5-2.8,6.8-1.3l24,16.1          c2.2,1.5,2.8,4.5,1.3,6.8l-6,9C1460.6,865.7,1457.5,866.3,1455.3,864.8z"/>
								
									<linearGradient id="SVGID_25_" gradientUnits="userSpaceOnUse" x1="654.6499" y1="955.8372" x2="654.6499" y2="842.0145" gradientTransform="matrix(1 0 0 1 759.1092 0)">
									<stop offset="0" style="stop-color:#FF5F18"/>
									<stop offset="0.1907" style="stop-color:#FF741F"/>
									<stop offset="0.5194" style="stop-color:#FF9229"/>
									<stop offset="0.8007" style="stop-color:#FFA42F"/>
									<stop offset="1" style="stop-color:#FFAB31"/>
								</linearGradient>
								<path class="st65" d="M1429.3,844.4c-28.7-8.5-63.2,5.6-68.4,40.9l4.8-7c6-8.8,14.5-15.5,24.5-19.4l0,0          c0,0,3.4,16.4,14.3,27c5.9,5.7,14.5,8.9,20.7,13.4c4.2-4.2,9.5-5.8,13-3.4c4.3,2.9,4.3,10.3,0,16.7c-1.1,1.6-2.4,3-3.7,4.2          c-0.5,10.1-2.8,23.2-4.2,23.5c3.5,16.6,11.5,15.6,11.5,15.6c9.8-8.4,16.6-18.6,20.8-32.6          C1474.6,882.6,1458.9,853.2,1429.3,844.4z"/>
							</g>
							<circle class="st64" cx="1434.4" cy="917.5" r="6.3"/>
						</g>
					</g>
					<path class="st64" d="M1454.5,996.2c-3.2-1.1-6.1-2.2-8.9-3.2c-6.6,10.7-20.7,17.5-36.2,15.9c-14.8-1.4-26.8-9.9-31.7-20.9       c-2.4,0.7-5.3,1.5-9.1,2.5c5.9,14.5,21.1,25.8,39.9,27.6c1.8,0.2,3.6,0.3,5.3,0.3C1431.7,1018.4,1447.2,1009.5,1454.5,996.2z"/>
				</g>
				<g>
					<g>
						<path class="st47" d="M1431.7,1500.9c0,0-2.3,18.5,3.9,31.7s27.9,85.3,36.4,126.4s26.4,165.2,26.4,165.2h25.1        c0,0,3.6-143.5-1.3-201c-4.3-51.1-33.9-99.1-37.8-111.6C1480.5,1499.2,1431.7,1500.9,1431.7,1500.9z"/>
						<path class="st62" d="M1522.2,1623.2c-4.3-51.1-33.9-99.1-37.8-111.6c-1.3-4.3-8-6.9-16.2-8.5c-0.2,6.8,0.9,14,4.8,20        c10.9,16.9,30.5,40.7,37.3,99.5c6.8,58.7,10.8,195.4,10.8,195.4l2.6-3.6C1524.4,1781.3,1526.3,1671.7,1522.2,1623.2z"/>
						
							<linearGradient id="SVGID_26_" gradientUnits="userSpaceOnUse" x1="740.0757" y1="1791.5458" x2="740.0757" y2="1874.6456" gradientTransform="matrix(1 0 0 1 759.1092 0)">
							<stop offset="0" style="stop-color:#000000"/>
							<stop offset="0.1994" style="stop-color:#0A1023"/>
							<stop offset="0.5764" style="stop-color:#1C2D5F"/>
							<stop offset="0.854" style="stop-color:#273E85"/>
							<stop offset="1" style="stop-color:#2B4593"/>
						</linearGradient>
						<path class="st66" d="M1524.3,1791.5c0,0,15.5,5.2,15.5,25.1c0.1,19.9,0.2,44.8,0.2,44.8l-3.9,0.6l-8-34.6c0,0-2-4.3-6.2,4        c-4.2,8.3-6.6,33.6-12.4,34.9c-5.7,1.3-48.2,9.1-50,8.2s-1-6.2-1-6.2s9.7-3.1,17.2-9.2c10.3-8.3,22.2-34.1,22.7-34.3        C1525.9,1810.7,1524.3,1791.5,1524.3,1791.5z"/>
					</g>
					<g>
						<path class="st47" d="M1342.5,1457.9c0,0-17.1,35.1-17.8,63.8c-0.5,19.3,1.4,129.8,16.7,213.5c14.3,78.7-8.1,107-8.1,107        l24.8-8.5l11.4-20.4c0,0,1-11.5,15.7-160.5c3.7-37.6,6.2-162.9,6.2-162.9L1342.5,1457.9z"/>
						<path class="st62" d="M1375.7,1600.5c-4.1,79.7-11.1,221-11.1,221l0.4-0.3l4.4-7.9c0,0,1-11.5,15.7-160.5        c3.7-37.6,6.2-162.9,6.2-162.9l-8.7-5.7l-14,2.9C1368.7,1487.1,1379.7,1520.8,1375.7,1600.5z"/>
						
							<linearGradient id="SVGID_27_" gradientUnits="userSpaceOnUse" x1="578.1431" y1="1801.8639" x2="578.1431" y2="1873.9434" gradientTransform="matrix(1 0 0 1 759.1092 0)">
							<stop offset="0" style="stop-color:#000000"/>
							<stop offset="0.1994" style="stop-color:#0A1023"/>
							<stop offset="0.5764" style="stop-color:#1C2D5F"/>
							<stop offset="0.854" style="stop-color:#273E85"/>
							<stop offset="1" style="stop-color:#2B4593"/>
						</linearGradient>
						<path class="st67" d="M1370.4,1801.9c0,0,14.4,7.6,11.3,27.3c-3.1,19.6-7.1,44.2-7.1,44.2h-3.9l-2.3-35.4c0,0-1.3-4.5-6.8,2.9        c-5.5,7.5-12,32.1-17.9,32.5c-5.9,0.4-49.1,1.2-50.6,0c-1.6-1.2,0-6.3,0-6.3s10-1.5,18.5-6.3c11.5-6.5,27.4-30,28-30.2        C1368.9,1821.1,1370.4,1801.9,1370.4,1801.9z"/>
					</g>
				</g>
				<g>
					
						<linearGradient id="SVGID_28_" gradientUnits="userSpaceOnUse" x1="658.0427" y1="1514.4561" x2="658.0427" y2="992.841" gradientTransform="matrix(1 0 0 1 759.1092 0)">
						<stop offset="2.976281e-03" style="stop-color:#2C49A1"/>
						<stop offset="6.908386e-02" style="stop-color:#3552A8"/>
						<stop offset="0.7078" style="stop-color:#86A1E6"/>
						<stop offset="1" style="stop-color:#A6C0FF"/>
					</linearGradient>
					<path class="st68" d="M1469.1,1202.1c-5.2-7.6-7.7-58.8-3-77.9c5.4-21.7,4.2-36.9,1.8-50.1c0.1-0.5,0.1-0.9,0.2-1.4       c-2.4-13.5-6.2-24.8-6.3-38.7c0-0.3,0-0.5,0-0.8c0-0.7,0-1.4,0-2c0-0.2,0-0.3,0-0.4c0.8-21.3,13.5-30,13.6-30       c-3.4-1.1-6.6-1.6-9.2-1.2c-1.7-0.5-3.4-0.9-5-1.4c-4.1,8.9-19.9,36.1-58.7,29.6c-34.8-5.8-42.2-27.8-43.7-35.1       c-0.1,0-0.3,0.1-0.4,0.1c0,0,0-0.1,0-0.1l-1.6,0.4c-2.6,0.6-5.4,1.1-8.5,1.7c-0.3,7.8-2,37.6-9.8,55.9       c-2.2,5.1-3.9,9.4-5.3,13.1c0.5-0.5,1-1,1.4-1.5c0.1-0.1,0.2-0.2,0.3-0.3c-7.1,17.8-7.2,22.8-4.5,34.9       c4.1,18.3,12.2,30,14,34.6c1.7,4.7,9.1,53.1,8.3,68.2c-1.8,36.2-7.6,92.3-15,121.4c-9.3,36.4-13.5,190.7-13.5,190.7l167,2.5       c0,0,19.1-185.4,19.2-207.6C1510.5,1262.6,1474.4,1209.7,1469.1,1202.1z"/>
					<path class="st69" d="M1461.8,1031.4c0-0.2,0-0.3,0-0.4c0.7-17.8,9.6-26.8,12.6-29.3l-0.6-1.2c-2.8-0.8-5.4-1.1-7.6-0.7       c-0.1,0-0.1,0-0.2-0.1c-2.5,2.9-5.3,6.9-6.8,12c-3.2,10.5-4.9,21.2,0,38.4c4.9,17.2,8.4,34.6,7.6,42.8s-4.9,35.5-14,39.3       c-9,3.8-20.1,2.6-16.3,6.1c3.8,3.5,20.1-2.3,22.1,0c2,2.3,0,6.7-1.7,10.2c-1.7,3.5,4.9,4.9,4.7,11.3c-0.3,6.4,2,32,3.8,37.8       c1.7,5.8,30.2,51.5,30.5,62.2c0.3,10.8,11.3,24.4,6.4,70.1c-4.4,40.8-16.2,159.5-18.7,184.6l7.6,0.1c0,0,19.1-185.4,19.2-207.6       c0.3-44.2-35.9-97.1-41.1-104.7c-5.2-7.6-7.7-58.8-3-77.9c5.4-21.7,4.2-36.9,1.8-50.1c0.1-0.5,0.1-0.9,0.2-1.4       c-2.4-13.5-6.2-24.8-6.3-38.7c0-0.3,0-0.5,0-0.8C1461.8,1032.7,1461.8,1032,1461.8,1031.4z"/>
				</g>
			</g>
		</g>
	</g>
</g>
</svg>