<?xml version="1.0" encoding="UTF-8"?>
<!DOCTYPE svg PUBLIC "-//W3C//DTD SVG 1.1//EN" "http://www.w3.org/Graphics/SVG/1.1/DTD/svg11.dtd">
<!-- Creator: CorelDRAW Home & Student X7 -->
<svg xmlns="http://www.w3.org/2000/svg" xml:space="preserve" width="113.051mm" height="90.7121mm" version="1.1" style="shape-rendering:geometricPrecision; text-rendering:geometricPrecision; image-rendering:optimizeQuality; fill-rule:evenodd; clip-rule:evenodd"
viewBox="0 0 11307 9073"
 xmlns:xlink="http://www.w3.org/1999/xlink">
 <defs>
  <style type="text/css">
   <![CDATA[
    .str1 {stroke:#00E2B8;stroke-width:20.0037;stroke-linecap:round;stroke-linejoin:round}
    .str0 {stroke:#1009C1;stroke-width:20.0037;stroke-linecap:round;stroke-linejoin:round}
    .str2 {stroke:#FECAAE;stroke-width:20.0037;stroke-linecap:round;stroke-linejoin:round}
    .str3 {stroke:#FFCD48;stroke-width:20.0037;stroke-linecap:round;stroke-linejoin:round}
    .fil0 {fill:none}
    .fil8 {fill:#00E2B8}
    .fil10 {fill:#06A1A1}
    .fil9 {fill:#0BD29B}
    .fil2 {fill:#1009C1}
    .fil6 {fill:#FDA91A}
    .fil1 {fill:#FECAAE}
    .fil7 {fill:#FF0F1A}
    .fil4 {fill:#FF5767}
    .fil3 {fill:#FF7D90}
    .fil5 {fill:#FFCD48}
   ]]>
  </style>
 </defs>
 <g id="Layer_x0020_1">
  <metadata id="CorelCorpID_0Corel-Layer"/>
  <rect class="fil0" width="11307" height="9073"/>
  <g id="_417474040">
   <polygon class="fil1" points="2071,7145 5585,7145 9099,7145 9192,8540 5585,8540 1978,8540 "/>
   <circle class="fil2 str0" cx="5586" cy="2437" r="197"/>
   <polyline class="fil0 str1" points="1975,4501 4369,2581 5924,3656 6935,2907 8913,4226 "/>
   <path class="fil3" d="M2457 6820c-69,442 46,735 702,879 717,157 1373,-43 1373,-43l-282 739 231 -11 933 -691 2227 -39c0,0 810,42 1047,-560 236,-602 -276,-963 -346,-989 -70,-25 -1415,-566 -1415,-566l-214 10 -2119 0 -1701 739c0,0 -368,120 -436,532z"/>
   <path class="fil4" d="M4340 7701c121,-24 192,-45 192,-45l298 -741 1219 -128 -1584 -141c0,0 6,164 -1,433 -4,179 -76,456 -124,622z"/>
   <path class="fil4" d="M8696 6512c-100,-248 -311,-391 -354,-407 -70,-25 -1415,-566 -1415,-566l-214 10 -2119 0 -1701 739c0,0 -255,83 -380,350 170,-64 433,-140 665,-117 383,38 1028,103 1028,103l1843 163 1847 -276c0,0 478,-98 800,1z"/>
   <path class="fil5" d="M7412 5733c-266,-106 -485,-194 -485,-194l-214 10 -2119 0 -558 242 170 833 1843 163 1197 -173 166 -881z"/>
   <path class="fil6" d="M7412 5733c-266,-106 -485,-194 -485,-194l-214 10 -2119 0 -558 242 170 833 328 29 -80 -470c0,0 637,-403 1450,-304 813,99 1069,288 1069,288l-69 496 342 -49 166 -881z"/>
   <path class="fil3" d="M5551 3285l-18 168 -522 98c0,0 -425,-2 -597,638 -173,640 -269,995 -269,995l-1136 637c0,0 -76,-87 -163,-145 -86,-57 -187,-8 -187,-8 0,0 -19,12 -15,30 4,17 -68,-4 -85,49 -17,54 -22,123 7,197 28,74 63,114 63,114 0,0 -73,16 -244,-6 -171,-22 -209,-28 -201,19 8,47 190,106 190,106 0,0 -59,9 -108,1 -50,-7 -53,84 113,105 167,22 217,15 217,15 0,0 -89,18 -165,22 -75,3 -64,70 21,86 85,15 277,42 869,-147 592,-189 1019,-470 1110,-541 91,-70 163,-169 163,-169l1060 0 1059 0c0,0 72,99 163,169 91,71 518,352 1110,541 593,189 784,162 869,147 85,-16 96,-83 21,-86 -75,-4 -165,-22 -165,-22 0,0 50,7 217,-15 166,-21 163,-112 113,-105 -49,8 -108,-1 -108,-1 0,0 182,-59 190,-106 8,-47 -30,-41 -201,-19 -171,22 -244,6 -244,6 0,0 35,-40 63,-114 29,-74 24,-143 7,-197 -17,-53 -89,-32 -85,-49 4,-18 -15,-30 -15,-30 0,0 -101,-49 -187,8 -87,58 -163,145 -163,145l-1136 -637c0,0 -96,-355 -269,-995 -172,-640 -596,-638 -596,-638l-523 -98 -18 -168 -102 -6 -103 6zm3095 2445c0,0 -19,5 -9,57 10,52 -5,222 -118,209 -114,-13 -70,-152 -21,-210 49,-58 93,-36 113,-51 19,-15 35,-5 35,-5zm-5985 0c0,0 20,5 9,57 -10,52 5,222 119,209 113,-13 69,-152 20,-210 -48,-58 -93,-36 -112,-51 -20,-15 -36,-5 -36,-5z"/>
   <path class="fil7" d="M5551 3285l-4 34c16,43 49,108 106,124 42,11 85,6 120,-3l-17 -155 -102 -6 -103 6z"/>
   <path class="fil8" d="M5152 3524l-141 27c0,0 -41,-1 -101,18 -11,267 -41,905 -88,1296 -61,506 -228,684 -228,684l1060 0 1059 0c0,0 -167,-178 -228,-684 -47,-391 -77,-1029 -88,-1296 -60,-19 -100,-18 -100,-18l-142 -27c-2,145 -25,400 -156,509 -95,79 -232,102 -345,105 -114,-3 -251,-26 -346,-105 -131,-109 -154,-364 -156,-509z"/>
   <path class="fil9" d="M4823 4860l-1 5c-61,506 -228,684 -228,684l1060 0 1059 0c0,0 -160,-171 -224,-654 -195,93 -428,158 -703,168 -376,15 -698,-75 -963,-203z"/>
   <path class="fil10" d="M4706 5347c-57,144 -112,202 -112,202l1060 0 1059 0c0,0 -54,-58 -112,-202l-1895 0z"/>
   <path class="fil0 str0" d="M2648 6184c0,0 -90,5 -159,4 -68,-1 -115,-11 -115,-11"/>
   <line class="fil0 str0" x1="2671" y1="6286" x2="2596" y2= "6298" />
   <path class="fil0 str0" d="M8659 6184c0,0 90,5 159,4 68,-1 115,-11 115,-11"/>
   <line class="fil0 str0" x1="8637" y1="6286" x2="8711" y2= "6298" />
   <path class="fil3" d="M5672 2560c275,13 265,233 259,388 120,-71 181,86 -20,154l1 -4c-41,147 -148,315 -272,284 -131,-32 -224,-161 -268,-279 -196,-66 -146,-214 -35,-162 -24,-222 53,-394 335,-381z"/>
   <path class="fil0 str0" d="M5410 2933c0,0 42,-82 108,-73 66,9 69,54 69,54"/>
   <path class="fil0 str0" d="M5756 2968c0,0 -1,60 50,52 51,-7 35,-57 35,-57"/>
   <path class="fil0 str0" d="M5467 2972c0,0 9,69 56,62 47,-8 37,-63 37,-63"/>
   <path class="fil0 str0" d="M5596 3213c-3,33 52,57 78,31"/>
   <path class="fil2 str0" d="M5337 2941l0 0 0 0c0,0 -10,-308 246,-322 256,-13 301,108 327,197 18,61 21,101 21,120l0 5 0 0 0 0c0,5 0,7 0,7 0,0 1,-2 2,-5l2 3c18,-10 35,-15 49,-16 13,-50 15,-99 13,-141 -17,-407 -704,-408 -721,-2 -1,43 -3,92 9,144 15,-2 32,1 52,10z"/>
   <line class="fil0 str0" x1="3178" y1="6521" x2="4206" y2= "6624" />
   <polyline class="fil0 str0" points="4532,7656 4830,6915 6049,6787 "/>
   <line class="fil0 str0" x1="7896" y1="6511" x2="7246" y2= "6614" />
   <line class="fil0 str0" x1="4630" y1="8135" x2="4481" y2= "8384" />
   <line class="fil0 str0" x1="5337" y1="2941" x2="5362" y2= "3057" />
   <line class="fil0 str0" x1="5931" y1="2948" x2="5919" y2= "3043" />
   <path class="fil0 str2" d="M6071 1647l1911 0c0,0 -32,-191 -185,-210 -153,-19 -209,73 -209,73 0,0 -25,-179 -154,-181 -130,-1 -224,145 -224,145 0,0 -48,-450 -406,-390 -358,61 -402,445 -402,445 0,0 -59,-136 -190,-88 -131,48 -141,206 -141,206z"/>
   <path class="fil0 str2" d="M1904 3048l1508 0c0,0 -75,-123 -177,-139 -102,-16 -177,68 -177,68 0,0 -50,-198 -183,-172 -133,25 -151,142 -151,142 -186,-667 -827,-391 -820,101z"/>
   <line class="fil0 str2" x1="8628" y1="5064" x2="8757" y2= "5106" />
   <line class="fil0 str2" x1="9228" y1="6469" x2="9345" y2= "6402" />
   <line class="fil0 str1" x1="3945" y1="3726" x2="3945" y2= "4106" />
   <line class="fil0 str1" x1="4135" y1="3916" x2="3755" y2= "3916" />
   <line class="fil0 str1" x1="7852" y1="4610" x2="7852" y2= "4990" />
   <line class="fil0 str1" x1="8042" y1="4800" x2="7662" y2= "4800" />
   <line class="fil0 str1" x1="7641" y1="2750" x2="7641" y2= "3009" />
   <line class="fil0 str1" x1="7771" y1="2880" x2="7511" y2= "2880" />
   <path class="fil4" d="M4623 1887c-108,74 94,234 142,265 48,31 91,45 91,45 0,0 207,-204 183,-316 -15,-70 -89,-90 -143,-61 -53,29 -82,108 -82,108 -42,-69 -121,-89 -191,-41z"/>
   <path class="fil4" d="M6515 2366c-121,32 10,243 43,287 34,44 68,70 68,70 0,0 255,-118 269,-227 10,-69 -51,-110 -110,-102 -58,9 -110,72 -110,72 -15,-77 -80,-121 -160,-100z"/>
   <path class="fil0 str0" d="M2834 5454c0,0 273,-142 259,-490 -15,-347 -227,-283 -355,-192 -128,92 -148,234 -72,240 75,7 327,-199 277,-469 -49,-271 -254,-218 -254,-218"/>
   <path class="fil0 str0" d="M7343 4388c0,0 -137,-104 -99,-322 39,-218 259,-109 253,8 -6,117 -123,62 -158,-83 -36,-146 129,-259 129,-259"/>
   <circle class="fil5" cx="3576" cy="1426" r="458"/>
   <path class="fil0 str3" d="M3576 2279l0 -231m0 -1474l0 231"/>
   <path class="fil0 str3" d="M2723 1426l231 0m1475 0l-231 0"/>
   <path class="fil0 str3" d="M2973 823l163 164m1043 1043l-163 -164"/>
   <path class="fil0 str3" d="M2973 2030l163 -164m1043 -1043l-163 164"/>
   <line class="fil0 str2" x1="8786" y1="2771" x2="8657" y2= "2813" />
   <line class="fil0 str2" x1="7996" y1="2346" x2="7942" y2= "2470" />
   <line class="fil0 str2" x1="8106" y1="3043" x2="8146" y2= "3066" />
   <line class="fil0 str2" x1="8597" y1="4480" x2="8614" y2= "4521" />
   <line class="fil0 str2" x1="7658" y1="616" x2="7529" y2= "658" />
   <line class="fil0 str2" x1="6473" y1="490" x2="6419" y2= "614" />
   <line class="fil0 str2" x1="5140" y1="1021" x2="5234" y2= "1119" />
   <line class="fil0 str2" x1="6071" y1="935" x2="6111" y2= "912" />
   <line class="fil0 str2" x1="8611" y1="1199" x2="8572" y2= "1176" />
   <line class="fil0 str2" x1="5051" y1="2445" x2="4922" y2= "2404" />
   <line class="fil0 str2" x1="2471" y1="3395" x2="2445" y2= "3528" />
   <line class="fil0 str2" x1="1916" y1="3578" x2="1998" y2= "3686" />
   <line class="fil0 str2" x1="1665" y1="4406" x2="1664" y2= "4361" />
   <line class="fil0 str2" x1="8543" y1="1631" x2="8622" y2= "1741" />
   <path class="fil0 str0" d="M5281 2976c29,8 56,17 74,45"/>
   <line class="fil0 str0" x1="5301" y1="3025" x2="5322" y2= "2991" />
   <path class="fil0 str0" d="M5992 2985c-29,8 -54,18 -72,45"/>
   <line class="fil0 str0" x1="5972" y1="3033" x2="5951" y2= "3001" />
   <line class="fil0 str2" x1="2060" y1="5213" x2="1969" y2= "5314" />
   <line class="fil0 str2" x1="1838" y1="6099" x2="1837" y2= "6054" />
   <line class="fil0 str2" x1="1833" y1="6797" x2="1948" y2= "6725" />
   <line class="fil0 str2" x1="2019" y1="1975" x2="2105" y2= "2079" />
   <line class="fil0 str2" x1="2288" y1="719" x2="2323" y2= "689" />
   <ellipse class="fil4" cx="5501" cy="3104" rx="73" ry="20"/>
   <ellipse class="fil4" cx="5808" cy="3094" rx="73" ry="20"/>
   <path class="fil0 str0" d="M5654 3137l102 -9c0,0 -68,-70 -68,-142 0,-72 33,-150 97,-144 65,7 76,64 76,64"/>
   <path class="fil0 str0" d="M6876 5718c91,71 518,352 1110,541 593,189 784,162 869,147m-6403 0c85,13 277,41 869,-147 592,-188 1019,-470 1110,-541"/>
  </g>
 </g>
</svg>
