<?xml version="1.0" encoding="utf-8"?>
<!-- Generator: Adobe Illustrator 24.3.0, SVG Export Plug-In . SVG Version: 6.00 Build 0)  -->
<svg version="1.1" id="Layer_1" xmlns="http://www.w3.org/2000/svg" xmlns:xlink="http://www.w3.org/1999/xlink" x="0px" y="0px"
	 viewBox="0 0 2000 2000" style="enable-background:new 0 0 2000 2000;" xml:space="preserve">
<style type="text/css">
	.st0{fill:#EBF2FF;}
	.st1{fill:#0056FF;}
	.st2{fill:#FA3E6B;}
	.st3{fill:#FFFFFF;}
	.st4{fill:#185ADB;}
</style>
<g id="Pattern_System">
	<g>
		<path class="st0" d="M341.2,1010.5c0-259.5,541,47.5,728.9-266.3c349.9-584.3,735-471.5,735-48.8c0,301.7-414.1,684.5-798.3,684.5
			S341.2,1270,341.2,1010.5z"/>
		<path class="st0" d="M717.9,595.9c0-79.7,103.3-76,153.1-144.3c122.8-168.7,267.3,72.9,226,170.6c-31.1,73.4-91.7,161.9-226,147.3
			C786.9,760.2,717.9,675.6,717.9,595.9z"/>
	</g>
	<g>
		<path d="M647.4,1325.4c-5.7,0.4-11.4,0.9-17.1,1.6c-13.6,1.8-27.8,4.4-42.3,9.1c-1.5,0.5-3.8,1.6-5.5,1.6
			c-13.8,16.7-26.8,34.1-38.5,52.6c3.5-0.8,7.1-1.5,10.6-2.1c19.7-3.6,40.1-3,59.9-0.1c3-4.2,6.2-8.5,9.5-12
			c11.8-13.7,25.1-26.6,25.7-43.1c0.1-2.9,0-5.5-0.1-7.9C648.9,1325.3,648.1,1325.3,647.4,1325.4z"/>
		<path d="M592.9,1329.4c18-5,36.8-7.9,55.6-9.1c0.2,0,0.5,0,0.7,0.1c-0.2-3-0.5-6.1-0.7-9.6c-0.2-5.9,0.6-11.8,1.1-17.7
			c0.8-9.9,0.8-16.8-2.7-26.1c0-0.1-0.1-0.2-0.1-0.4c-0.1,0.1-0.3,0.3-0.4,0.4c-20.1,21.3-39.8,42.1-58.3,63.9
			C589.7,1330.4,591.3,1329.9,592.9,1329.4z"/>
		<path d="M558.2,1360.4c2.6-3.4,5.1-6.9,7.8-10.3c24-30.6,50.7-59.4,77.9-87.7c0.1-0.1,0.2-0.1,0.3-0.2c-0.8-0.9-1.7-1.6-2.5-1.8
			c-2.3-2-10.6,2.2-17.9,4.1c-8.5,2.5-17.4,2.9-26.1,4c-12.3,1.7-26.9,8.9-36.8,18.4c-6.5,5.4-11.9,12.4-20,15.8
			c-3.2,0.9-6.2,1.8-9.1,2.9c6,7.6,11.2,15.9,15.8,24.3C552,1339.8,555.6,1350,558.2,1360.4z"/>
		<path d="M448.3,1448.7c1.7-0.8,1-1,3.3-2.1c-0.4-10.5-1.4-20.8-2.9-31.2c-5-2.4-12.1-5.9-14.4-6.4c-10.8-3.4-24.3-6.3-35.1-7.7
			c8.3,8,14.3,17.7,19.7,27.5C425.2,1440.8,439.4,1453.8,448.3,1448.7z"/>
		<path d="M529.7,1392.5c0.8,2.4,1.7,4.9,2.4,7.4c6.7-11.5,14-22.8,21.9-33.7c-0.1-0.2-0.3-0.4-0.4-0.7
			c-4.6-21.4-13.2-39.4-27.3-57.6c-8.4,3.9-15.2,9.3-20.4,17.2c7.6,15,14.4,30.3,18,46.5C525.6,1378.6,527.4,1385.6,529.7,1392.5z"
			/>
		<path d="M528.9,1411.2c-0.9-8.5-4.8-16.5-6.9-24.8c-2.9-10-4.6-20.3-8.1-30.1c-0.5-1.4-1.1-2.8-1.6-4.3c-0.3,0-0.6,0-0.8,0
			c-6.6-0.1-11.7,1.9-18.9,4.3c-15.4,5.5-31.4,15.8-44.2,26.7c2.3,9.7,4.2,19.5,5.6,29.4c0.7,0.7,0.7,1.6,0.3,2.4
			c1.4,9.7,2.3,19.5,2.8,29.3c1.3-0.3,2.8,0.3,4.2,0.4c14.6,2.1,35.7,6.1,45.7,5.8c9.2-2,15.4-11.2,18.9-20.2
			C528.5,1423.8,529.3,1415.9,528.9,1411.2z"/>
		<path d="M447.7,1408.9c-1.3-8.2-2.9-16.4-4.8-24.9c-3.7-15.2-8.5-30.5-13.9-45.3c-0.3,0-0.6-0.1-0.8-0.2
			c-22-8.7-48.5-16-71.4-17.1c1.5,7.8,4.6,15.2,6.9,22.8c2.2,6.9,2.7,14.1,4.9,20.9c2.9,11.7,13.5,21.1,24.4,30.6
			c2-0.3,4.5,0.4,6.4,0.4c7.8,0.9,15.5,2.4,23.2,4.2C431.3,1402.4,439.9,1405.1,447.7,1408.9z"/>
		<path d="M542.4,1395.7c-0.8,0.2-1.5,0.5-2.3,0.7c-1.8,3-3.6,6.1-5.4,9.2c-0.3,0.4-0.6,0.7-0.9,0.9c0.6,2.9,0.9,5.8,0.7,8.8
			c-1.1,13.1-6.2,27.2-17.8,35.8c-0.1,0-0.1,0.1-0.2,0.1c0.5,0,1-0.1,1.5-0.1c1.7-0.2-1,0.1,0.8-0.1c3.3-0.7,8.3-3.6,10.6-5.5
			c18.2-15.6,13.3-27.2,46.1-30.2c9.9-1.5,21.7-5.2,28.7-13.1c2-2.5,4.3-5.9,6.9-9.5c-7.7-0.9-14.8-1.7-21.4-1.8
			C572.6,1390.2,558,1391.7,542.4,1395.7z"/>
		<path d="M366.1,1404.1c-8.7-6.3-17.3-11.6-27.2-18.1c-7.6-4.8-15.3-9.6-23-14.2c-0.2,0.1-0.4,0.3-0.7,0.4
			c-7.4,1.2-17.1,4.6-25.1,8.4c3.1,1.7,6.2,3.5,9.1,5.6c8.6,5.4,14.6,10.6,22.6,14.8c6.6,3.4,10.7,4.1,17.8,6.3
			c1.9,0.5,3.9,1.2,5.7,2c0.7-0.4,1.5-0.7,2.2-1.1c4.4-2,9.2-3,14-3.5C363.1,1404.4,364.6,1404.2,366.1,1404.1z"/>
		<path d="M424.6,1309.1c0,0.4-0.1,0.7-0.3,1c2,4.9,3.8,9.9,5.7,14.9c6.8,17.2,12.6,34.8,17.1,52.6c0.8-0.6,1.5-1.1,2-1.6
			c8-6.3,16.6-12.1,25.7-17.1c6.7-3.6,13.8-6.5,21.1-8.9c4.6-1.5,9.5-2.8,14.4-3c-5-11.6-11.7-24.4-17.7-36.1
			c-9-18.7-24.6-31.6-39.3-47.7c-1.9-2-3.7-4.1-5.6-6.1c-0.8,0.8-1.7,1.5-2.3,2.3c-3.2,3.4-12.1,15.5-13.8,19.8
			C427.1,1289.9,424.9,1298.6,424.6,1309.1z"/>
		<path d="M404.9,1419.1c0.2-0.1,0.4-0.3,0.6-0.4c0.1-0.1,0.3-0.2,0.4-0.3c0,0,0.1-0.1,0.2-0.1c-4-6-7.9-10.6-14.1-16.1
			c-12.2-10.5-25.5-21.4-29.1-36.9c-1.8-6.6-2.4-13.4-4.6-19.9c0-0.2-0.1-0.3-0.2-0.5c-0.1,0-0.2,0-0.2-0.1
			c-1.3-0.5-1.9-1.9-2.9-2.7c-3.2-3.4-8-7-10.3-8.4c-1-0.6-2.1-1.2-3.1-1.8c-0.3,2.2-0.6,4.4-0.8,6.6c-0.8,12-1.2,27.7-0.2,37.4
			c0,1.8,0.7,3.5,0.5,5.3c5.6,3.6,11.3,7.3,16.9,10.9c13.4,8.3,25.5,18.2,36.2,29.2c1-0.2,2.1-0.1,3.2-0.3c1.1-0.1,2.2-0.2,3.4-0.4
			C403.3,1419.9,403.3,1419.9,404.9,1419.1z"/>
		<path d="M310,1368.3c-9.6-5.7-19.4-11.1-29.5-16c-28.2-12.8-56.7-23.7-85.5-31.5c0.3,0.9,0.8,2,1.7,3.2c5.4,5.8,17.2,11.9,27,17.6
			c15,8.9,24.1,22.2,39.9,27.7c7.1,2.6,14.2,5.3,21,8.5c0.1,0,0.1-0.1,0.2-0.1c2.4-1.2,4.9-2.4,7.4-3.4
			C298,1371.9,303.9,1369.6,310,1368.3z"/>
		<path d="M363.2,1316.9c8,0.8,15.9,2,23.7,3.6c13.7,2.8,26.9,7.2,39.9,12c-4.1-11-8.4-21.7-12.6-32c-12.1-31.3-34-57.5-54.7-84.4
			c-5.2,10.8-0.3,34.8-1.5,50.7c0,16.6-3.6,35.1-1.9,49.9C358.3,1316.1,361.1,1317,363.2,1316.9z"/>
		<path d="M419.9,1299.6c1-6.3,3.1-12.6,5.1-18.7c2.4-6.2,6.2-11.9,10.3-17.3c2.8-3.4,5.3-7.5,8.9-10.3
			c-5.2-5.7-10.5-11.4-16.8-16.2c-10.2-8.3-25.4-15-38.2-18.6c-7.6-2-19-4.9-24.8-5.3c7.2,9.9,15.5,19.2,22.6,29.2
			C401,1260.3,411.3,1279.6,419.9,1299.6z"/>
		<path d="M284,1348.2c-0.9-2.1-1.7-4.1-2.5-6.2c-2.5-7.5-5.3-15.1-5.3-23c0-0.1,0-0.2,0.1-0.4c-2.1,0.3-4.1,0.5-6,0.8
			c-18.5,1.6-40-4.4-56-4.7c-7.4-0.2-13.5,0-16.8,1.4c27,7.3,53.1,17.4,78.6,28.3C278.8,1345.7,281.4,1346.9,284,1348.2z"/>
		<path d="M281.8,1321.8c0.3,3.5,2.7,11.9,4.6,17.3c1.5,4,2.2,6,4.5,10.5c0.4,1,1.2,1.8,1.4,2.8c14.8,7.6,29,16.2,42.9,25
			c-0.4-4.4-0.7-8.8-0.8-13.2c0.1-11.7,0.1-23.6,2-35.2c-11.4-5.9-22.6-9.6-35.8-11.6c-5-0.7-12-0.2-19,0.7
			C282,1319.2,281.6,1320.6,281.8,1321.8z"/>
		<path d="M372.1,1408.6C372.1,1408.6,372.1,1408.6,372.1,1408.6c-8.2,0.7-15.1,1-21,3.2c8.2,4.2,15.9,9.4,23.5,10.5
			c3.9,0.7,8.6,0.3,13.6,0.8c-3.6-3.6-7.3-7.2-11.4-10.7C375.3,1411.1,373.7,1409.8,372.1,1408.6z"/>
		<path d="M597,1054.9c0.1-0.1,0-0.1-0.1,0.1C596.8,1055,596.8,1055,597,1054.9C596.9,1055,596.9,1054.9,597,1054.9z"/>
		<path d="M596.8,1055.1C596.8,1055.1,596.8,1055.1,596.8,1055.1C596.8,1055.1,596.8,1055.1,596.8,1055.1
			C596.8,1055,596.8,1055,596.8,1055.1C596.8,1055.1,596.8,1055.1,596.8,1055.1z"/>
		<polygon points="596.8,1055.1 596.8,1055.1 596.8,1055.1 		"/>
		<path d="M596.9,1055C596.9,1055,596.9,1055,596.9,1055C596.9,1055,596.9,1055,596.9,1055C596.9,1055,596.9,1055,596.9,1055z"/>
		<polygon points="596.8,1055.1 596.8,1055.1 596.8,1055.1 		"/>
		<path d="M726.9,939.9c4.4-5.9,4.8-11.9,6-20.1c0.9-6.8-0.3-8.8-5.1-11.9c-4.8-3.2-15-4.1-19.3-4.5c-6.1-0.4-12.7-0.8-16.8,0.7
			c-3.8,1.5-4.2,1.2-5.5,5.9c0,0.1,0,0.3-0.1,0.6c0,0.3-0.1,0.5-0.1,0.8c0.1,0.1,0.1,0.1,0.2,0.1c1.9,8.2,1.7,17,2.9,25.4
			c0.4,5.2,1.3,5.1,6.7,6.5c7.4,0.9,15.3,1,24.2,0.4c0.7-0.1,3.1-0.5,3.5-0.9c-0.2,0.1-1,0.4-0.4,0.1
			C725.1,942.1,725.8,941.2,726.9,939.9z"/>
		<path d="M596.9,1055C596.9,1055,596.8,1055,596.9,1055C597,1055,597,1055,596.9,1055z"/>
		<path d="M597,1054.9C596.9,1054.9,596.9,1054.9,597,1054.9C597.1,1054.9,597.1,1054.8,597,1054.9z"/>
		<path class="st1" d="M815.3,883.5c-8.7-12-19.7-20.1-30.6-27.6c-27.2-18.4-55.6-29.5-87.4-34.9c1.8,12.5,1.2,28.5,2,38.1
			c-0.4,2.1,4.8,3,11.5,3.6c29.6,1.8,54.2,16.5,65.7,44.6c5.6,12.8,8.4,26.6,9.3,40.6c0.7,10.9,0.7,22.1-2.1,32.7
			c-5.8,24.4-23.4,41.2-45.1,52.2c-26.4,14-56.6,16.9-86,17.5c-0.4-0.2-3.6,0.3-3.8,0.3c-0.1,0-0.2,0-0.2,0.1c0,0-0.1,0-0.1,0.1
			c-3.9,3.9-4,15.2-3.4,25.1c0.7,6.7,0.2,15.9,1.7,18.6c0.8,1.1,6.4,2.2,11,2.2c10,0.2,19.9-1.2,29.8-2.6
			c16.2-2.2,29.2-4.6,45.3-8.8c38.4-9.1,77.9-29.7,92.1-64.3c11.9-25.9,12.2-55.1,9.6-81.4C832.5,919.1,825.5,897.7,815.3,883.5z"/>
		<path d="M876.9,565.2c-18.2,33.1-27.4,69.4-33.1,107c6.8-41.6,18.5-81.9,42.8-120.5c18.2-31.9,45.4-57.9,75-80.3
			c34.4-26.2,74.1-47,116.4-58.7c-48.4,10.3-95.9,36-132.8,67.9C916.1,504.8,893.7,531.1,876.9,565.2z"/>
		<path d="M640,1004.8c2.5,1.4,2.4,1.4,5.5,1.8c0.7,0,9.3-1,12.6-1.5c10.9-1.1,23.3-4.4,24.5-8.5c0.5-8.1-2.6-20.9-7.4-26.3
			c-3.8-3.9-5.4-3.8-11.2-3.7c-8.3,0.5-16.7,1.1-25,1.9c-0.2,0-0.3-0.1-0.5-0.1c-0.3,0.3-0.7,0.5-1,0.7c-2.1,1.7-1.8,1.6-2.6,3.3
			c-1.2,3.2-0.9,8.8-0.8,13.8C634.4,992.6,635.6,1001,640,1004.8z"/>
		<path d="M929.8,684.7c-5.3,29.6-5.9,67-6.5,99.6c-0.7,46.3-0.6,92.7-0.7,139c-0.8,64.5-1.8,130.9-24.2,191.9
			c-8,21.6-18.6,42.6-32.5,60.7c65.5-75.9,61.9-186.7,62.6-284.6c0.1-42.5,0.1-84.9,1.2-127.4c0.9-32.5,1.9-65.4,10.7-97
			c6.8-24.4,22-48.5,43.7-59.7C953.1,614,935.6,650.2,929.8,684.7z"/>
		<path d="M910.5,604.1c-13.5,23.8-23.1,54.7-27.3,81c-6.5,36.6-6.1,73.9-6.4,111c-0.2,43.9-0.1,87.9-4.2,131.6
			c-1.4,13.2-4.2,26.7-11.4,38.1c-0.1,0.2-0.3,0.4-0.4,0.6c0,0,0.1,0,0.1,0c4.2-4,6-8,8.3-13.7c4.8-12.2,5.6-22,6.9-35.2
			c3-40.9,3.4-81.9,3.4-122.9c0.3-38.4,0-77.1,8-115c11.6-66.2,54.3-130.4,122.2-158.7c6.2-2.7,12.6-5.1,19.1-7.3
			c-15.8,4-28,8.8-42,16C953.2,546.6,929.7,572.4,910.5,604.1z"/>
		<path class="st2" d="M622.3,886.3c2.2-1.5,6.1-7,9.5-9.9c6.9-6.5,15-11.6,23.9-14.5c3.4-1,6.9-1.4,10.4-1.6c0.1,0,0.2-0.1,0.3-0.1
			c0,0,0,0,0.1,0c3.1-3.9,3.4-18.6,3.5-29c-0.1-3.4,0.3-5.7-0.4-6.1c-10.8-6.4-43.9,10.6-57.9,21.6c-3.8,2.9-10.8,10.1-12.1,11.7
			c-1.4,1.5-2.1,3.5-3.2,5.2c8.7,6.7,22.2,18,25.4,22.7C622,886.3,622.2,886.3,622.3,886.3z"/>
		<path d="M596.5,1055.1c-0.1,0-0.1,0.1-0.2,0.1c0.1,0,0.3-0.1,0.4-0.2c0,0,0,0,0,0C596.7,1055.1,596.7,1055.1,596.5,1055.1
			C596.6,1055.1,596.6,1055.1,596.5,1055.1z"/>
		<path d="M596.8,1055.1C596.8,1055,596.8,1055,596.8,1055.1C596.8,1055,596.8,1055,596.8,1055.1
			C596.8,1055,596.7,1055.1,596.8,1055.1C596.8,1055.1,596.8,1055.1,596.8,1055.1z"/>
		<path class="st2" d="M574.7,891.3c-4.6,4-8.3,10.9-12.4,18.6c-14.6,28-10.9,66.9,0,96.3c7.1,19.5,19.4,44.1,35.8,48.9
			c2.4,0.4,2.9,0.5,4.6,0c0.1,0,0.1-0.1,0.2-0.1c5.2-10.8,10.6-22.3,12.9-31.3c0.1-0.3,0.1-0.8,0.1-1.2c0-0.1,0-0.2-0.1-0.4
			c-0.2-0.6-0.1-0.4-0.8-1.8c-5.5-10-11-20.4-13.8-31.6c-5.6-20.7-1.5-42.2,4.1-62.4c1.3-5.2,2.1-8.4,0.7-9.5
			C597.3,910.1,584.3,900.5,574.7,891.3z"/>
		<path class="st1" d="M911,1374.3c19.1-2.3,38.3-3.8,57.4-5.6c4.8-0.4,9.7-0.8,14.5-1.2c-3.4-16.1-5.1-32.7-7-49.1
			c-2-16.7-3.9-31.4,7.9-40.6c-12-5.8-21.4-16.8-29.5-28.1c-8.9-12.5-15.4-27-20-42.1c-2.6-8.7-5.2-17.6-6.1-26.8
			c-7.8,5.6-14.4,12.7-19.8,20.5c-6.1,11-9.6,25.3-10.5,38.6c-3.6,37.9,1.9,73.2,8.8,110.9C908,1358.7,909.5,1366.5,911,1374.3z"/>
		<path d="M1634,643.4c14.7,1.9,26.6,2.7,40.6,2.9c18.9,0.3,37.8-0.7,56.5-2.5c10.8-1.3,21.7-1.8,30.1-5.8c5.5-2.7,3.1-7.5-9-10.7
			c-24.6-6.7-56.7-4.5-85.6-1.6c-13,1.7-39.3,4.4-44.8,10.5c-1,1.3-1.2,1.5-1.4,2.3c0,0,0,0,0,0c1,0.8,1.5,1.8,2,2.8
			C1626.3,642.2,1630.1,642.9,1634,643.4z"/>
		<path class="st2" d="M1110.5,936.7c1.6-0.4,3.2-1.6,4.9-1.4c0.4,0.1,0.7,0.3,1,0.5c0.3-63.4,0.4-127.2-5.7-188.6
			c-1.3,0.6-2.9,0.7-4.2,1.1c-6.1,1.5-12.3,2.6-18.6,3c-8.9,0.8-18.1,0.3-26.6-2.5c-4.7-1.6-9.5-3.7-13-7.4
			c-0.2-0.2-0.3-0.4-0.5-0.6c0.2,2.9,0.4,5.5,0.6,8.7c2.3,28,3.3,56.2,2.6,84.3c-0.9,33.2-4.4,66.2-8.5,99.1c6,1.6,11.9,3.8,18,4.7
			C1078.3,940.9,1094.1,942.4,1110.5,936.7z"/>
		<path d="M1073.4,733.7c0.1,0.2,0.3,0.4,0.8,0.9c0.1,0.1,0.1,0.1,0.2,0.2c3.4,2.3,12.1,1.5,14.6,0.1c0.7-0.3,1-0.5,1.2-0.8
			c0.5-6.9,1-13.7,1.3-20.6c0.4-16.4,0.6-32.1-1.6-46.8c-2-16.1-11.4-31.3-22.3-39.9c-11.4-7.9-22.5-12.6-34.8-16
			c-1.7-0.4-3.3-0.9-5-1.3c12.3,4.9,23.8,11.8,31.9,22.6c11.3,14.6,14.4,33.7,14.8,52C1075.2,700.6,1074.6,717.2,1073.4,733.7z"/>
		<path class="st2" d="M1241.3,1168c-0.1-0.8-0.1-1.6-0.3-2.4c-2.8-28.5-2.2-57.2-2.3-85.8c0.1-42-0.1-84,1.2-125.9
			c-3.6,1.7-7.3,3.1-11.1,4.1c-14.7,3.7-30.2,3.6-45,0.4c-1,20.3-1.9,40.6-2.3,60.9c-0.8,37.9-0.1,76.1-5.4,113.7
			c-1.2,9.2-2.8,18.3-4.5,27.4c-0.1,0.8-0.4,2.3-0.4,2.5c0,0.3-0.1,0.7-0.2,1C1194.5,1166,1217.6,1168.7,1241.3,1168z"/>
		<path class="st1" d="M1133.4,1254c0.5,2,2.1,3.8,2.1,5.8c43.6,1.3,87.2,1.2,130.7-0.1c37.3-1.2,72.4-4.9,107.2-15.6
			c2.3-0.7,4.6-1.4,6.9-2.1c-9.2-10-16.2-22.3-23.2-33.9c-9.7-17.4-18.2-35.8-22.3-55.5c-12.3,3.9-24.9,7.1-37.5,10.3
			c-22.3,5.3-45,9.7-67.9,10.1c-26.6,0.4-55.4-4-79.8-5.3c-8.4-0.7-16.8-1-25.2-1.2c-0.8,10.8-1.4,21.6-0.8,32.4
			C1124.3,1216.3,1127,1238.3,1133.4,1254z"/>
		<path class="st2" d="M1017,1162c24,0.7,47.9,0.3,71.9-0.1c0.1-0.3,0.2-0.5,0.3-0.7c2.5-7.5,6.1-14.6,9.3-21.8
			c8-17,14.9-33.6,16.4-52.5c2.6-35.7,0.8-71.6,1.4-107.3c0-6.5,0-13.1,0.1-19.7c-0.5,0.2-1,0.4-1.4,0.7c-4.3,2-8.8,3.2-13.4,4
			c-11.9,2.3-24.1,2.1-36.1,0.7c-8.9-0.9-17.8-2-26.4-4.4c-1.5,11.7-2.9,23.4-4.3,35.1c-3.4,27.6-7.1,55.2-14.1,82.1
			c-5.2,20.4-12.2,40.8-23.8,58.3c-3.7,5.6-10.1,14.9-11.5,18.8c-0.9,2.2-1.7,4.4-2.4,6.7c0,0.1,0,0.1,0,0.2
			C994.3,1161.7,1005.8,1162.2,1017,1162z"/>
		<path class="st1" d="M1597.4,1190.5c-1.3,8.3-2.6,16.6-4,24.9c-7,43.3-15.4,86.5-27.7,128.6c-12.2,47.3-35.3,90.5-52.2,136.1
			c-0.2,0.8-0.8,1.3-1.5,1.7c0,0.3-0.1,0.6-0.1,0.9c-0.1,0.3-0.2,0.6-0.3,0.9c0.1-0.3,0,0.1-0.1,0.2c-0.1,0.2-0.1,0.3-0.2,0.5
			c0,0.1-0.1,0.1-0.1,0.1c22.5,2.4,45,5.1,67.5,8.3c6.5,0.9,13,1.9,19.5,2.8c0-0.2,0-0.5,0.1-0.7c2.8-7.8,5.6-15.6,8.2-23.5
			c7.3-21.8,13.7-43.9,19.9-66.1c15-52,27.4-104.7,43-156.6c6-20.3,12.3-41,18.4-61.8C1658.6,1195.3,1627.2,1196.7,1597.4,1190.5z"
			/>
		<path class="st1" d="M1750.9,658.5c-6.3,4-14.2,5.3-21.4,6.7c-36.2,5.7-74.3,8.4-110-1.4c2,8.2,2.3,16.7,2.7,25
			c0.7,18.2,0.3,36.3,0.7,54.5c1.6,45.7-0.9,91.5-0.1,137.2c0,2.2,0,4.5,0.1,6.7c1.1,0.3,2.3,0.7,3.4,0.8
			c10.1,2.2,20.1,3.3,28.7,3.8c17.7,0.8,34-1.7,49.8-5.5c12.6-2.9,27.1-7.3,36.6-12.3c2-0.6,4.2-2.8,6.3-3.2
			c2.1-24.1,4-48.3,5.5-72.5c1.7-29.3,3.5-58.7,3-88.1C1755.5,692,1755,676.3,1750.9,658.5z"/>
		<path d="M1622.4,907.3c0.4,41.2,1.2,82.5-1.5,123.6c0.5,0.8,0.4,1.9-0.2,2.8c-0.7,9.4-1.5,18.8-2.6,28.1
			c-4,35.3-9.1,70.4-14.7,105.5c7.2,1.2,14.4,2.7,21.7,3.1c23,1.9,49.1-0.4,72.6-7.5c12.6-42.1,24.3-84.6,30.9-125.5
			c5.1-48.4,10.4-96.8,14.8-145.3c-13.6,7.2-28.5,11.4-43.5,14.7C1674.5,912.7,1647.9,913,1622.4,907.3z"/>
		<path d="M991.1,1267.7c1.6,1.3,4.5,1.3,5.7,3c0.6-0.3,1.2-0.6,1.8-0.8c13.7-5.7,28.8-6.5,43.3-8.3c28.5-2.8,57.1-2.8,85.7-2
			c0.8,0,1.6,0,2.4,0.1c-6.4-13.4-8.9-28.7-10.5-43.4c-1.6-16.5-1.8-33.2-0.4-49.8c-14.7-0.1-29.4,0.4-44.2,0.8
			c-24.9,0.6-49.7-0.4-74.6-0.3c-15.1,0.1-31.9,0-44.8,2.8c-6.7,1.5-12.9,4-18.6,7.1c0.8,8.7,3.4,17.2,6,25.5
			C951.1,1227.3,967.9,1254.6,991.1,1267.7z"/>
		<path class="st1" d="M922.6,1459c1.7-5.7,1.8-12.4,5.9-17c0.7-0.7,1.4-1.3,2.2-1.9c-10.1-3-19.6-8.4-28.1-14.4
			c-12.2-8.3-21.2-20.3-25.1-34.5c-24.3,3.4-48.5,8.6-65.2,25c-14.2,11.7-15.9,31.7-17.1,50.3c12.9-0.7,25.7-1.4,38.6-2.2
			c29.6-1.7,59.3-3,88.9-3.8C922.5,1460.1,922.5,1459.6,922.6,1459z"/>
		<path d="M941.5,1426.9c2,1,4.8,1,6.8,2.1c1.3-0.4,2.5-0.7,3.8-0.9c8-1.6,16.1-1.8,24.2-2.3c35.8-1.4,71.6,2.6,107.4,1.8
			c40.3-0.1,80.5-1.4,120.7-3c-6.8-10.7-11.9-22.7-16.1-34.6c-4.2-11-7.4-26.5-7.2-35.8c0-0.2,0-0.4,0-0.6
			c-52.5,6.4-105.2,11-157.9,14.5c-42.5,3.3-85.1,6-127.4,11.1c-1.5,0.2-2.9,0.4-4.4,0.6c2.4,8,6.6,16.4,12,22.3
			C913.8,1413.4,928.5,1422.3,941.5,1426.9z"/>
		<path d="M1538.9,709c15.9,5.1,42,5.9,58.8,3.2c7.1-1.3,14.1-3,20.8-5.2c1.3-0.1,3.8-1.7,6-2.4c0-6.1-0.1-12.1-0.3-18
			c-0.6,0.2-1.4,0.3-2.2,0c-12.8-0.6-25.7-0.2-38.5,0.9c-13.5,1.3-24.5,3.5-38.2,7.3c-6.6,1.9-12.7,3.6-15.4,5.9
			C1528.2,701.2,1530.3,706.3,1538.9,709z"/>
		<path d="M1323.1,734.8c1.8,1.3,3.8,2.4,6,3.2c4.8,1.9,18.9,1.3,25.7-0.6c2-0.3,2.7-1,3.8-1.5c0.7-9.4,2.5-18.9,3-28.4
			c2.8-41.7,4.1-81.4-4.2-121.5c-10.2-57.2-45-112-92.1-145.4c-26-17.6-55.4-27.3-86-31c19.5,5.4,38,13.9,54.5,26
			c39.4,29.9,68.1,73.9,82,121.9C1331.8,614.9,1329.8,676,1323.1,734.8z"/>
		<path class="st1" d="M1469.4,960.6c8,0.2,17.4-0.2,22.9-1.5c3-0.6,8.5-2.7,9.1-3.1c1.1-0.4,2.6-1.5,4.1-2.2
			c-0.2-6.1-0.5-12.2-0.8-18.3c-3.2-46.8-3.6-93.8-0.4-140.6c-2.7,0.4-5.5,0.7-8.3,0.7c-12.1-0.1-25.3-1-35.2-8.8
			c-1.1-0.9-2.2-1.9-3.1-2.9c0.7,4.4,1.4,8.8,1.9,13.2c3.9,29.4,7.4,58.9,8.8,88.6C1469.6,910.4,1470.4,935.6,1469.4,960.6z"/>
		<path d="M1359.9,1153.6c1.1,4.8,2.1,9.8,3.8,14.5c7.7,23.6,23.6,52.4,39.1,71.7c0.8,1.2,2.1,2.1,2.7,3.3
			c22-7.2,41.8-15.6,61.6-28.5c8.8-6,14.4-10,21.7-17.6c3.1-3.2,6-6.7,8.9-10.1c0.1-0.1,0.3-0.3,0.5-0.4c2.2-11,3.6-22.3,4.7-33.8
			c2.6-29.2,3.5-58.6,4.1-87.9c0.5-35.1,0.2-70.2-1.1-105.3c-0.8,0.4-1.6,0.7-2.2,1.1c-10.7,5.3-22.7,5.6-34.4,5.4
			c-1.8,36-7.8,71.6-22.7,104.7c-7,14.8-14,29.9-24.1,42.8c-12.5,15.3-29.3,26.6-47.2,34.3C1370.2,1149.9,1365,1151.8,1359.9,1153.6
			z"/>
		<path class="st2" d="M1185.1,934.1c6.8,0.8,13.7,2.2,20.6,2.7c9.2,1,21.6,0.8,31.4-2.8c1.2-0.3,2.4-1,3.6-1.2
			c1.4-30.7,3.6-61.3,4.6-92c0.9-32.3,0.5-64.7-0.1-97.1c-0.9,0.2-1.9,0.4-2.7,0.7c-6.1,1.5-12.3,2.6-18.6,3
			c-8.9,0.8-18.1,0.3-26.6-2.5c-4.3-1.5-8.7-3.4-12.1-6.6c0.7,5.8,1,11.7,1.5,17.5c3.9,48.2,2.8,96.7,0.2,144.9
			C1186.4,911.9,1185.7,923,1185.1,934.1z"/>
		<path d="M1503.3,776.6c3.3,0,6.7-0.2,10-0.7c0.3-3.6,0.6-7.2,0.9-10.8c0.8-8.6,2.3-17.1,4.1-25.6c-0.1,0-0.2,0.1-0.3,0.2
			c-3.3,0.6-6.5,1.2-9.8,1.9c-14.2,3-28.8,6.6-39.5,12.6c-4.5,2.8-6.7,8.1-1.7,12.4C1475.5,775.3,1490.2,776.4,1503.3,776.6z"/>
		<path d="M1526.7,1360.1c6.5-5.9,13.1-12.3,19.1-18.2c2.5-2.4,4.9-4.9,7.4-7.3c0.1-0.1,0.2-0.2,0.3-0.2
			c7.4-25.1,13.5-50.6,18.7-76.1c4.9-26.6,9.7-53.7,14.2-81.1c0-0.4,0.1-0.7,0.2-1.1c7.1-43.8,13.1-88.3,16.8-132.6
			c-29.8,7.6-61.9,5.2-91.2-4.1c0,4.7,0.1,9.3,0,14c-0.2,37.8-1,75.7-4.3,113.3c-4.2,48.4-17.2,89.5-58.2,118.4
			c-8.3,6.1-16.9,11.5-25.7,16.5c0.2,0.1,0.5,0.2,0.7,0.4c5.9,7.4,12.9,13.7,20,19.7c8.5,6.7,16.8,14.3,24.3,19.3
			c16.9,10.9,33.5,16.1,53.5,18.8C1523.9,1360.1,1525.4,1360,1526.7,1360.1z"/>
		<path class="st2" d="M1309.8,1159.2c4.7-1.3,9.5-2.7,14.5-4.2c7.9-2.4,16.1-5,24-8c0.7-1.2,2-1.8,3.1-1.2c7.7-3,15.1-6.3,21.5-10
			c2.5-1.5,4.9-3.1,7.4-4.8c-0.7-2.3-1.6-4.7-2.5-6.9c-5.2-12.6-14.8-22.3-18-36.1c-2.4-11.7-2-23.9-2.3-35.9
			c-0.1-21.8,0.3-43.5,0.4-65.3c0.1-12.7,0.3-25.4,0.5-38.1c-2.8,1.4-5.6,2.7-8.4,3.7c-11,4.1-22.8,4.2-34.2,2.3
			c0,47.2,0.8,94.3-0.2,141.5c-2.2,18.4-7.8,32.7-6.6,50.9C1309.3,1152.3,1309.4,1154.2,1309.8,1159.2z"/>
		<path d="M1212.1,731.8c0.4,0.3,0.9,0.6,2.3,1.4c5.8,2.6,14.4,3.4,21.4,0.4c0.6-0.3,2.2-1.2,2.5-1.5c0.9-0.5,0.5-0.5,1.1-0.9
			c-0.5-7.7-0.7-15.5-1.2-23.2c-1.7-27.9-0.8-56.5-4.2-82.3c-3.3-25.2-12.3-46.9-29.9-65.1c-24.2-27.4-61-44.8-96.9-50.6
			c36.1,11.6,68,36,86.5,69c12.5,24.2,14.8,51.9,15.6,78.6C1209.9,682.3,1211,707.1,1212.1,731.8z"/>
		<path class="st1" d="M1207,1378c4.4,17,10.5,32.2,20,48.1c0.5,1,1.3,1.9,1.8,2.9c30.1-1.3,60.2-2.7,90.3-4.1
			c46.1-2.8,91.6-3.5,134.5-18.1c14.2-5.6,30.4-17.4,44.5-27.8c4-3.1,8.5-6.8,13.1-10.8c-19-2.3-37.7-8.1-54.1-18.2
			c-7.9-4.8-14.8-11-22-16.8c-9.7-7.9-19.4-15.9-27.3-25.7c-0.7-0.7-0.8-1.5-0.5-2.3c-55.8,30.3-120.6,41.3-182.8,50.1
			c-6.7,0.9-13.4,1.7-20.1,2.6c0.5,2.4,0.1,5.1,0.5,7.5C1204.8,1367.2,1206,1374,1207,1378z"/>
		<path class="st1" d="M1516,900.7c2.1,35.9,3.6,71.8,4,107.7c5.6,1.4,11.1,3.7,16.8,4.6c23.1,5,47.1,5.6,69,0.2
			c0.8-0.1,1.7-0.4,2.6-0.6c0.1-1.2,0.2-2.3,0.3-3.5c2.5-48.7,1.1-97.5,0.8-146.3c0-35.8,1.5-71.5,0.3-107.3
			c-0.2-7.4-0.2-14.9-0.2-22.5c-2.8,1.3-5.6,2.4-8.5,3.4c-13,4.5-26.7,6-40.4,5.2c-9.6-0.6-19.4-1.5-28.4-5.1
			c-1.4-0.5-2.9-1.3-4.3-2.3c-3.6,17.6-7.2,32.4-8.9,49.9c-0.5,5.1-0.9,10.2-1.3,15.2c0.2,0.4,0.3,0.9,0.3,1.6
			c-0.1,0.5-0.2,0.9-0.5,1.2C1515.2,835.1,1514.9,867.9,1516,900.7z"/>
		<path class="st2" d="M1316.1,912.8c-0.1,6.1-0.1,12.2-0.2,18.3c0.8,0,1.5,0.3,2.3,0.3c3.7,0.7,7.5,1.2,11.3,1.6
			c7.9,0.8,19.7,1.4,28-3c0.5-0.2,0.8-0.4,1.3-0.7c0.7-40.2,1.7-80.4,2.7-120.6c0.5-21.6,2.3-43.2,2.1-64.8
			c-0.8,0.2-1.5,0.3-2.2,0.6c-5.3,1.5-10.8,2.6-16.3,3c-7.8,0.8-15.8,0.3-23.3-2.5c-3.8-1.5-7.7-3.5-10.7-6.8
			c0.4,5.7,0.9,11.5,1.6,18.2C1317.2,808.3,1316.1,860.6,1316.1,912.8z"/>
		<path d="M596.6,1055.1c0.1,0,0.1,0,0.1,0c0,0,0,0,0,0C596.7,1055,596.6,1055.1,596.6,1055.1
			C596.6,1055.1,596.6,1055.1,596.6,1055.1z"/>
		<path d="M596.8,1055.1C596.8,1055.1,596.8,1055.1,596.8,1055.1C596.8,1055.1,596.8,1055.1,596.8,1055.1
			C596.8,1055.1,596.8,1055.1,596.8,1055.1C596.8,1055,596.8,1055,596.8,1055.1c0.1,0,0.1-0.1,0.1-0.1c0,0,0,0,0,0c0,0,0,0,0,0
			c0,0,0,0,0-0.1C596.9,1054.9,596.9,1055,596.8,1055.1C596.8,1055,596.8,1055,596.8,1055.1C596.8,1055,596.8,1055,596.8,1055.1
			C596.8,1055.1,596.8,1055.1,596.8,1055.1z"/>
	</g>
	<g>
		<path d="M596.6,1055.1c0.1,0,0.1,0,0.1,0c0,0,0,0,0,0C596.7,1055,596.6,1055.1,596.6,1055.1
			C596.6,1055.1,596.6,1055.1,596.6,1055.1z"/>
		<path d="M596.8,1055.1C596.8,1055.1,596.8,1055.1,596.8,1055.1C596.8,1055.1,596.8,1055.1,596.8,1055.1
			C596.8,1055.1,596.8,1055.1,596.8,1055.1C596.8,1055,596.8,1055,596.8,1055.1c0.1,0,0.1-0.1,0.1-0.1c0,0,0,0,0,0c0,0,0,0,0,0
			c0,0,0,0,0-0.1C596.9,1054.9,596.9,1055,596.8,1055.1C596.8,1055,596.8,1055,596.8,1055.1C596.8,1055,596.8,1055,596.8,1055.1
			C596.8,1055.1,596.8,1055.1,596.8,1055.1z"/>
		<path d="M602.8,903.8c-6-4.4-10.6-7.7-15.5-11.4c-6.3-4.7-11.9-10.2-18.1-14.9c-0.5-0.2-1.1-0.2-1.5-0.1c-0.3-0.4-0.7-0.7-1.3-0.8
			c-1.7-0.3-3,1-4.2,1.9c-8.6,8-13.8,19.2-18.5,29.8c-12.4,31.9-7.7,67.5,4.1,98.8c6.9,18.5,23.5,52.2,45.6,53.8
			c7,0.5,8.8-4.1,11.2-9.7c4.1-9.7,9.6-19,11.8-29.4c0.8-4.3-2.3-7.7-4.2-11.3c-6-11.4-10.8-20.4-13-32.2c-4.7-21.1,1-41.4,6.6-63.3
			C606.9,911.1,606.7,906.2,602.8,903.8z M599.3,919.2c-6,21.3-10.5,44-4.4,65.8c3.1,11.9,9,22.8,15.1,33.4c0.8,1.5,0.7,1.3,0.9,1.9
			c0,0.1,0,0.2,0.1,0.4c0,0.4,0,1-0.1,1.3c-2.5,9.6-8.4,21.7-14.1,33.1c0,0,0,0,0.1,0c0.1-0.2,0.2-0.2,0.1-0.1c0.1-0.1,0.1,0,0,0.1
			c0,0,0,0,0,0c0.1,0,0.1,0-0.1,0.1c0,0,0,0-0.1,0.1c0,0,0,0,0,0c0,0,0,0,0,0l0,0c0,0,0,0,0,0c0,0,0,0,0,0c0,0,0,0,0,0
			c-0.1,0.1-0.2,0.1-0.4,0.2c0,0,0.1-0.1,0.2-0.1c-1.9,0.5-2.4,0.4-5,0c-17.8-5.1-31.3-31.1-39-51.7c-11.9-31.1-15.9-72.1,0-101.7
			c4.5-8.1,8.5-15.4,13.5-19.6c10.5,9.7,24.6,19.9,34,27C601.6,910.3,600.7,913.7,599.3,919.2z"/>
		<path d="M619.4,882.1c4.4-2.1,6.8-6.7,10.4-9.9c5.1-5.2,13.7-11,18.7-13.1c5.2-2.4,9.5-3.5,13.7-3.9c2.6-0.2,5.5,0,7.6-2
			c2.6-2.4,3.4-6,4.1-9.3c1.2-5.9,1.5-12,1.6-18.1c-0.2-5.4,1.1-11.1-0.6-16.3c-10.8-13.5-48.9,7.2-60.9,14
			c-7.7,4.5-14.6,10.3-21,16.5c-2.9,2.9-5.5,6.1-7.4,9.7c-0.3,0.6-0.6,1.1-0.8,1.7c-1.3,1-2,2.8-0.7,4.2
			c8.2,6.2,16.4,12.4,23.9,19.4C611.3,877.9,614.2,884,619.4,882.1z M589.8,852.9c1.1-1.8,1.9-3.9,3.4-5.5c1.4-1.7,9-9.3,13.2-12.4
			c15.2-11.6,51.4-29.5,63.2-22.8c0.8,0.4,0.4,2.9,0.4,6.5c-0.2,11-0.4,26.6-3.9,30.7c0,0,0,0-0.1,0c-0.1,0-0.3,0.1-0.4,0.1
			c-3.8,0.2-7.7,0.7-11.4,1.7c-9.7,3-18.5,8.5-26.1,15.3c-3.7,3.1-8,8.8-10.4,10.4c-0.1,0-0.2,0-0.4-0.1
			C614,871.9,599.3,860,589.8,852.9z"/>
		<path d="M420.7,954.9c2.9,1.2,6,1,9.1,1.2c5.9,0.3,11.8,0.6,17.8,0.6c-1,7.4-0.1,15.2,0.4,22.6c1,7.7,1.8,21.4,1.9,23.5
			c0,0,0,0,0,0c-0.1,0.1-0.1,0.1-0.2,0.2c-6.6,1.6-12.9,4.3-18.3,8.5c-6.5,4.4-9.2,8.9-6.8,16.7c4.3,14.6,8.6,35.9,24.4,42
			c7,1.2,14.1-1.9,21-3c1.8-0.5,3.1-0.6,3.7-0.6c0,0.1,0.1,0.2,0.1,0.3c4.3,11.2,9.7,22.1,16.5,32c2.4,3.3,4.9,6.6,7.6,9.7
			c0,0,0,0-0.1,0c-2.1,1.6-4.1,3.3-5.8,5.2c-3.2,3.9-5.8,8.6-7.1,13.6c-1.9,7.1,3.2,13,7.2,18.3c5.3,6.9,10.8,13.8,17.6,19.2
			c7,5.6,15.1,7.3,20.6-1.1c6-7.8,14.6-16.1,18-15c2.5,0.1,5.4,2,8.8,4.2c7,4.6,13,9.1,18.4,13.1c2.4,1.6,6.3,5.5,6.4,6.1
			c0.2,0.3,0.6,1.1,0.8,1.5c0.1,0.2,0.1,0.5,0.2,0.7c0,0.2,0,0.3,0,0.5c-1.8,5.6-4.4,10.9-6,16.5c-1.2,3.9-2.4,8-1.4,12
			c1.1,5,5.8,7.7,9.4,10.8c9.5,7.5,20.2,13.6,32.1,16c5.7,1,12.1,1.8,17.5-0.8c3.8-2.2,3.6-6.9,4.4-10.7c0.1-0.4,2-10.3,3-12.2
			c0.3-0.3,1.1-1.3,1.4-1.5c0.1-0.1,0.1-0.1,0.1-0.1c0,0,0.1-0.1,0.4-0.3c2.9-1.9,4.4-2.3,7-2.5c11.1,0.3,30.4,4.6,41.7-5.3
			c3.7-3.4,3.8-8.4,3.6-13.1c-0.1-8.9,0.1-17.8,0.3-26.6c0-3.8-5.4-3.1-5.5,0.3c-0.6,10.5,0.5,31.9-1,34.5c-5.7,7.3-22.4,6.1-33.3,5
			c-7.8-1.4-17.8,1.6-20.4,9.8c-1.8,5.8-3.3,16.4-3.8,17.8c0,0,0,0,0,0c0,0-0.1,0.1-0.1,0.1c-0.1,0.1-0.1,0.1-0.2,0.2
			c-9.1,3.2-28.5-3.2-40.8-13.1c-2.2-1.5-10.8-8.2-10.2-10c-1.8-6.2,5.6-18.3,7.5-27.5c0-4.8-4-8.4-7.4-11.2
			c-5.6-4.4-11.4-8.6-17.3-12.6c-14.9-11.5-21-8.5-32.9,4.7c-5.4,6.3-7.4,10.2-10.7,8.8c-5.6-1.4-12.3-8.2-17.9-15
			c-4.8-6.3-8.3-9.5-11.6-16.3c-1.7-2.8,1.9-11.7,5.7-15.7c2.2-2.1,3.8-3.6,4.8-4.2c0.7-0.6,1.6-1,2.1-1.8c1.4-0.9,2.1-3,0.8-4.3
			c-10.9-11.6-20.2-29.2-25.3-43.3c-2.1-3.8-7-1.8-10.3-1.2c-5.5,1.2-11.6,2.6-15.2,3c-12.3-0.9-19.5-24.2-23.3-40.4
			c-1.6-5.6,1.8-6.9,9.6-12.1c3-1.6,4.8-2.3,9.2-3.7c3.1-0.5,6.4-2.2,6.8-5.6c0.4-9.3-1.3-18.5-1.9-27.8c-0.6-4.2-0.3-14.2-0.4-20.8
			c-0.2-0.8-0.8-1.2-1.5-1.4c-0.2-1.2-1.2-2.3-2.6-2.2c-7.1,0.1-18.4-0.6-22.9-0.9c-2.5-0.4-1.7,0-3.5-1.1
			c-5.4-3.8-6.8-16.5-6.5-26.9c0.2-7.3,1.7-11.6,3.8-19.2c1.3-3.8,1.9-6.9,3.2-8.9c0,0,0.1-0.1,0.1-0.1c0.1-0.1,0.3-0.2,0.6-0.4
			c1.3-0.7,3-1.3,5.2-1.5c6-0.4,8.8,0.2,15,0.9c3.8,0.5,8.2,1.4,11-1.9c5.3-7.1,6-16.5,9.5-24.5c1.4-3.4,4.9-10.8,8.3-15.8
			c1.1-2.4,5.4-5.5,3.9-8c0.8-1.2,0.8-3-0.7-3.8c-7.7-4.4-18.3-11.1-21.7-14.4c-1.9-2.7-1.3-5.4-0.5-8.9c3-12.3,13.4-27.2,20.5-34.2
			c1.1-1.6,5.5-0.6,8.4,0.6c6.7,3.2,9.3,6.2,15.1,10.3c4.6,3.1,9.3-1.3,12.4-4.5c4.1-4.1,8-8.4,12.1-12.5c5.6-5.5,8.9-8.9,14.7-12.4
			c5.9-3.3,8.7-4.8,5.6-12c-2.4-5.8-8.6-12.3-9.5-16.4c0-0.2,0-0.4,0-0.6c0.3-1.4,0.6-1.8,0.7-2c2.2-4.1,4.3-5.9,8.4-9.9
			c5.8-5,15.8-11.3,24.6-16c2.4-1.1,4.1-1.7,8.4,1.2c2.1,1.1,8.7,9.3,10.4,12c1.8,2.3,3.2,5.3,6,6.5c6.4,2,12.6-2.7,18.4-4.8
			c7-3.3,17-7.7,23.8-8.7c3.1-0.9,8.4,1.1,9-3.3c-0.1-1-0.4-1.7-1-2.1c0.1-0.2,0.1-0.5,0.1-0.8c-0.3-8.5-2.6-18.8-2.4-25.1
			c0.1-0.3,0.2-0.6,0.3-0.9c1.3-2.7,2-3,3.8-4.3c8.7-5.3,19.2-5.9,31.1-7.1c9.5-0.5,18.8-1.5,22.8,3.3c10.5,18.7,5.6,50.8,3.9,76.7
			c-0.2,4.9-1.1,10-0.8,14.8c0.5,1.9,3.2,2,4.5,0.7c1.9-3,0.8-7.2,1.5-10.6c0.6-8.8,1.3-17.6,2-26.4c1.3-14.6,1.7-29.5-1.1-44
			c-1.5-7.7-4-17.5-12.8-19.4c-12.6-2.5-25.6-0.2-38.2,1.7c-8.7,1.9-19.6,5-22.3,14.6c-0.8,4.2,0.4,8.4,0.8,12.5
			c0.6,4.7,1.2,11.1,1.4,13.7c0,0,0,0.1,0,0.1c-0.8,0.1-1.6,0.2-2.2,0.2c-13.8,2.1-24.4,9.5-35.8,13.4c-3.3,0.8-1.9,0.9-4.3,0.5
			c-2.4-1-11.3-19.9-22.2-20.8c-6.2-0.6-11.6,4.4-16.8,7.1c-10,6.4-21.3,13.2-26.5,24.3c-1.7,3.7-0.6,7.7,1.8,10.7
			c3.1,4.9,7.3,10.4,8,14.3c-8.9,4.8-16.2,11.8-23.1,19.2c-4.6,4.7-10.7,11.8-13.3,12.7c-0.1,0-0.2,0-0.3,0
			c-0.9-0.4-2.8-2.1-5.3-3.9c-6.2-4.7-13.9-10.3-22.1-8.5c-4.5,2-7.3,6.5-10.5,10.1c-7,9.6-19.4,28.5-15.1,40.5
			c1.6,3.6,5.4,5.5,8.4,7.8c4.8,3.2,9.8,6.5,15,9.2c-0.2,0.3-0.4,0.5-0.6,0.8c-1.8,2.3-3.4,4.7-4.9,7.2c-3.3,5.7-6.2,11.6-8.4,17.8
			c-2.2,7-5.7,18.7-7,18.8c-0.1,0.1-0.2,0.1-0.2,0.1c0,0-0.1,0-0.1,0c-0.4,0.1-0.8,0.1-1.2,0.1c-0.1,0-0.3,0-0.4,0
			c-6.2-0.7-12.5-1.7-18.7-1.5c-5.2,0.3-11.4,2-13.2,7.5c-4.7,13-8.1,26.7-6.2,40.6C411.5,942.2,413.4,951.2,420.7,954.9z"/>
		<path d="M1771.6,666.8c-0.7-9.2-1.7-18.4-4-27.4c-0.4-1.1-0.5-2.4-0.8-3.6c8.7-10.8-4.1-20.5-14.1-23.7
			c-27.9-9.9-58.4-5.8-87.1-1.7c-10.5,1.9-21,4-31.2,7.2c-5.7,1.9-11.6,4.4-15.6,9.1c-2.9,3.5-5.1,8.8-3.6,13.3
			c-0.3,1.3,0.2,2.8,1.8,3.1c0.3,0.1,0.7,0.2,1,0.3c0.8,2.6,1.8,6.6,2.1,9.2c0.8,6.3,1.3,12.8,1.6,19.5c-0.1,0-0.1,0-0.2,0
			c-19.1-1-38.4-0.2-57.2,3.6c-9.6,2-19.1,4.6-28.3,7.9c-4.3,1.6-9.1,3.3-11.9,7.2c-2.1,3.5-1.2,6.9,1,9.7c-0.1,0.2-0.2,0.4-0.3,0.6
			c-2.1,10-4.4,20.1-6.3,30.1c-0.6-0.5-1.4-0.7-2.3-0.4c-14,3.2-50.4,10.2-56.2,23.9c-0.8,1.5-1.2,3-1.3,4.4
			c-1.6,0.3-2.9,1.9-2.5,3.6c8.8,54.5,14,106.1,14.2,160.8c0,10.2-0.1,20.2-0.5,30.1c-0.5,0.9-0.6,2-0.1,2.8
			c-1.5,33.1-6.2,65-18.9,96.6c-6.9,17.2-16.1,35.7-28.1,52.3c-6.2,7.7-15.4,15.8-25.7,22.6c-0.9-2.7-2.8-5.8-3.4-7.5
			c-5.2-10.3-13.7-18.6-18.6-29.1c-3.7-8.4-3.8-19-4.1-29.9c-0.4-43.5,0.4-87,1.1-130.4c1.5-50.7,2-101.3,4.6-152
			c0.6-13.3,1.6-26.6,1.1-39.9c2.2-2.9,3.1-6.7,1-10.1c-2.1-3-5.8-4.4-9.1-5.8c-1.8-0.7-3.6-1.3-5.4-1.9
			c6.6-56.4,8.1-114.7-8.6-169.7c-14.9-47.6-45.7-91.2-88-120.8c-37.9-25.7-85.9-35-131.9-32.6c-11.2-0.6-22.5-0.4-33.6,0.6
			c-56.6,6.1-110,31.6-154.2,67.5c-27.6,22.2-52.8,48-69.8,79.6c-40.6,68.5-43.3,142.5-50.1,219.7c-1.4,14.3-3.2,25.1-6.9,39.1
			c-3.1,10.5-6,18.2-12.6,24.8c-0.8,0.8-1.2,2-0.7,3c0.2,0.9,1.1,1.5,2,1.6c0.7,1.2,2.5,1.5,3.7,0.8c0.5-0.4,1.1-1,1.6-1.7
			c14.5-9.8,20-42.7,22.4-58.3c8.1-74.3,9.3-151.2,47.7-215.5c18-33.8,42-59.9,73.3-83.9c45.2-36.1,105.2-64.3,164.6-70.7
			c4.3-0.4,8.6-0.7,12.9-0.9c33.6,1.9,66.1,11.7,94.4,32c43.8,33.1,76.2,87.4,85.7,144.1c7.8,39.8,6.5,79.1,3.9,120.5
			c-0.3,5.9-1,11.8-1.7,17.7c-2,0.7-4,1.6-5.9,2.8c-3.3,2.1-5.1,5.4-5.4,8.8c-1.2,0.3-2.4,1.3-2.4,2.8c9.2,79.7,5.9,162.1,6,244.1
			c-0.4,40.5,1.4,81.1-0.4,121.5c-2.2,14.1-9.2,33.1-7.5,50.1c0.2,4.1,0.6,8.2,0.9,12.3c-16.1,3.5-31.8,6.1-49.1,7.3
			c0-0.2-0.1-0.5-0.1-0.7c-0.5-3.4-0.9-6.8-1.1-10.2c-2.5-36.2-1.4-80.4-1.5-119.4c-0.1-48.5,1.1-97,4.2-145.4
			c3.1-44.8,3.5-89.6,2.8-134.4c-0.2-6.3-0.1-12.6-0.3-18.9c2-2.9,2.8-6.5,0.7-9.7c-2.1-3-5.8-4.4-9.1-5.8c-1.8-0.7-3.7-1.3-5.5-1.9
			c-1.1-22.4-2.1-44.7-2.6-67.1c-0.9-26.7-3.3-54.4-16.7-78.6c-26.8-44.4-79.5-73.3-134.3-76.3c-5.2,0-10.5,0.2-15.7,0.6
			c-2.4-0.3-4.7-0.5-7.1-0.6c-26.2-0.2-52.3,7.3-75.9,18.1c-63.1,28.3-102.9,92.5-113.7,158.7c-7.4,37.8-7.1,76.5-7.4,114.9
			c0,41-0.4,82-3.2,122.9c-1.2,13.2-2,23-6.4,35.2c-2.3,6.2-4.1,10.5-8.9,14.8c-0.1,0-0.1,0.1-0.2,0.2c0.1-3.2,0.1-6.5,0.1-9.7
			c0-23.6-3.4-47.4-13.2-68.9c-10.5-25.1-33.6-41.5-56.2-55c-20.4-11.6-42.4-20.9-65.3-26c-6.2-1.4-12.3-2.6-18.6-3.7
			c-0.7-0.2-1.5,0-2.1,0.4c-0.5,0.3-0.9,0.7-1.2,1.2c-0.9,0.7-1.6,1.8-1.3,3c1.4,11.7,1.6,25.3,2.1,38.9
			c-0.9,9.2,5.9,10.7,13.4,11.4c49.6,2.6,73.1,33.2,78,81.2c4.3,40.5-8.5,68.7-46.4,87.8c-26.8,14.2-59,17.1-91.4,17.7
			c-10.5,0.7-11.3,16.7-11.1,24.7c0.2,7.7,0.6,15.5,1.2,23.2c0,3.9,0.8,8.2,4.8,9.7c10.5,3.6,22,1.8,32.8,0.8
			c57.5-7.4,133.7-21.7,161-79.5c8.1-16.5,12-34.6,13-52.8c0.1,0.1,0.2,0.1,0.3,0.2c0.4,0.2,0.7,0.3,1.1,0.3c2,0.4,4.4,0.5,6.5-0.1
			c1.3,0.2,2.5-0.4,3.5-1.2c2-1.5,3.6-3.4,5-5.4c7.7-11.4,10.8-24.9,12.3-38.1c4.4-43.7,4.3-87.7,4.5-131.6
			c0.3-37-0.1-74.3,6.8-110.9c4.5-26.3,14.7-57.2,29.2-81c20.6-31.6,45.8-57.5,81.8-74.5c15.4-7.5,28.7-12.2,46.3-16.3
			c8.1-1.9,16.3-3.5,24.9-4.4c36,4.1,74.1,22.1,98.6,51.7c16.4,18.2,24.7,39.9,27.8,65c3.1,25.9,2.4,54.4,3.9,82.3
			c0.2,4,0.4,7.9,0.6,11.9c-4.5,0.6-8.8,1.9-12.8,4.4c-3.2,2-5,5.2-5.4,8.5c-1.6,0.2-3,1.9-2.7,3.6c9.8,75.6,3.2,155.8-1.1,233.8
			c-3.7,57.2,0.2,114.9-8.2,171.7c-1.1,7.3-2,12-3.2,18.3c-0.1,1.9-1.2,4.6-1.1,6.6c-11.8-1-23.7-1.8-35.9-2
			c-12.5,0-25,0.2-37.5,0.4c0.4-1.5,0.8-3.1,1.5-4.2c2.4-5.9,4.9-10.8,8.1-17.7c4.9-10.8,10.3-21.4,13.2-32.9
			c4.7-18,4.9-36.6,5-55.1c0-55,0.4-110,0.5-165.1c-0.4-43.6-1.1-87.3-5-130.8c-0.5-5-1.1-10-1.6-15c1.2-2.6,1.4-5.4-0.2-8.1
			c-2.1-3-5.8-4.4-9.1-5.8c-4.5-1.7-9.1-3.1-13.8-4.3c0.9-13.6,1.2-27.2,0.6-40.8c-0.4-18.3-3.8-37.5-15.9-52.2
			c-12.4-15.6-32.6-23.1-51.7-28.2c-10-3.1-19.4-3.7-28-2.4c-37.6-5.8-63.7,29.6-73.1,65.7c-8.2,31.7-9.1,64.8-10,97.4
			c-1,42.6-1,85.3-1.1,127.9c-0.7,104.3,3.1,223.2-70.2,299.4c-10.5,10-22.3,19-35.2,19.7c-3-0.1-6-0.6-9.1-1.7
			c-23.1-8.6-31.6-36.7-30.8-61.8c0-13.3,1.1-26.6,2-39.8c0.1-1-0.6-2.2-1.7-2.5c-0.4-0.1-0.8-0.1-1.2-0.1c-4.3-0.2-3,6.9-3.5,10
			c-0.7,11.9-1.5,23.8-1.3,35.8c0,0.1,0,0.2,0,0.2c0,1.7,0.1,3.3,0.1,5c0,0.9,0.1,1.9,0.2,2.8c0,0.7,0.1,1.3,0.1,2
			c1.1,13.4,4.4,26.6,12,37.8c9.1,12.7,20.2,18.1,31.8,17.8c11.4,0.6,23.3-3.8,34.7-12c29.8-22.1,49.7-54.3,62.9-87.8
			c24-61.3,25.2-127.9,26-192.7c0.1-46.5,0-93,0.8-139.5c0.6-32.8,1.2-70.3,6.9-100c6.2-34.9,25.2-71.4,58.5-77.7
			c4.5,0.8,9,2.1,14,3.5c11.4,3.4,21.7,8.1,32.4,16c10.2,8.6,18.8,23.9,20.7,40.1c2.1,14.8,1.9,30.5,1.5,47
			c-0.1,2.8-0.3,5.6-0.4,8.5c-5.6,0.4-11,1.6-15.8,4.7c-2.6,1.7-4.3,4.1-5,6.8c-1.7-0.6-3.9,0.8-4,2.7c2.9,35.9,5.2,72.5,3.4,110.1
			c-1.7,40.1-7.3,79.8-12.4,119.6c-7.9,56.8-11.4,121.9-41.9,169.3c-5.8,8.5-12.2,16.9-15.1,26.9c-0.2,0.7-0.4,1.4-0.6,2.1
			c-10.2,0.6-20.4,2-30.2,5.2c-12.8,4.5-24.3,12-33.7,21.7c-7.3,6.7-12.3,15.2-15.4,24.6c-4.4,11.4-5.5,23.6-6.4,35.7
			c-1.7,24.8,1.2,49.8,5.2,74.3c2.5,14.5,5.5,28.8,8.6,43.2c0.5,2.6,1.1,5.3,1.7,7.9c-8.8,1-17.5,2.1-26.3,3.4
			c-16.8,2.8-33.8,5.9-49.2,13.5c-12.3,6.9-24.1,15.8-32.2,27.5c-8.1,11.6-8.4,32-9.6,45.8c0,0.6-0.1,1.2-0.1,1.8
			c-9.4,0.5-18.8,1-28.3,1.5c-7.4,0.4-14.7,0.7-22.1,1c-0.8,0-1.5,0.4-2,0.9c-1.7,1.6-0.8,4.8,1.7,4.6
			c83.2-3.7,166.4-10.3,249.7-10.4c53.8-0.5,107.6,2.3,161.4,4.2c57.9,2,115.9,3.6,173.8,6.3c91.7,4.6,181.2,11.5,273,24.5
			c20.7,3,41.4,5.7,62,9.1c18,3.2,48.3,8.3,38.5,21.3c-11.7,13.6-37.8,21.6-60.3,26.4c-29.3,5.9-61.7,8.8-93.6,10
			c-43.5,1.7-87.1,2.1-130.7,2.8c-29.1,1.2-58.8-1.6-87.5,4.3c-3.3,0.7-6.5,3-7,6.5c1.2,6.7,9.2,9.3,14.7,11.7
			c17.4,7.1,36.2,10,54.4,14.6c11.6,2.7,21.1,4.5,30.6,10.3c3.9,2.5,4.8,2.7,6.5,6.2c0,0.3,0.1,0.7,0.1,1.1c0,0.1,0,0.2-0.1,0.2
			c-0.1,0.1-0.2,0.3-0.3,0.4c0.3-0.5-0.6,0.7-1.1,1.1c-9.8,7-32.7,13.3-47,15.3c-41.9,5.9-84.4,6.2-126.6,7.6
			c-213.1,7.8-426.4,2.2-639.5-3.7c-44-1.3-87.9-2.5-131.8-4.3c-11.9-1-22.2-0.7-34.8-4c-0.3-0.2-0.8-0.5-1.3-0.7
			c-0.1-0.1-0.3-0.3-0.5-0.5c0-0.1-0.1-0.3-0.1-0.5c0-0.1,0-0.2,0-0.4c0.2-0.4,0.5-0.9,0.7-1.3c0.5-0.5,1.4-1.4,1.6-1.6
			c0.6-1.3,12-8.8,13-9c14.9-6.3,30.5-10.7,46-15.2c12.3-3.3,24.8-6.2,37.2-8.9c7.8-2.1,16.5-2,23.5-6.4
			c34.1-30.1-218.9-55.8-239-58.5c-19.7-2.5-55.2-5-56.4-15.2c0.8-13.9,49-23.3,66.3-25.8c31.8-4.5,63.8-6.3,95.9-6.6
			c2.1,5.5,3.8,10.9,5.5,17.7c0.9,3.6,1.6,7.2,2.1,10.8c0.1,0.7,0.6,1.3,1.2,1.6c1.6,0.8,3.6-0.2,4.1-1.9c0.3-2.3-0.6-4.7-0.9-6.9
			c-1.4-7.3-3.5-14.4-6.1-21.3c5.7,0,11.5,0,17.2,0c-0.6,7.9-1.4,15.9-2.4,23.8c0,2.2-1.7,5.4,1.1,6.5c5.7,1.4,4.1-8.9,5.2-12.3
			c0.6-5.9,1.2-11.9,1.6-17.9c9.8,0.1,19.6,0.3,29.4,0.6c-1.5,4.4-2.9,8.8-4.1,13.2c-0.2,0.1-0.4,0.1-0.5,0.2
			c-1.6,0.9-2,3.3-0.7,4.4c-0.7,2.8-1.3,5.5-2,8.3c-0.2,0.7-0.2,1.4,0.2,2.1c1.2,2.2,4.5,1.3,5.1-0.9c0.6-2.6,1.2-5.2,1.8-7.7
			c5.4,1.6,7.7,3.4,7.1,5.2c-0.1,0.1-0.1,0.2-0.2,0.3c-0.2,0.2-0.4,0.4-0.6,0.6c-1.5,1.6-4.3,3-5.8,3.6c-5.8,2.2-9.3,2.7-14.2,3.4
			c-12.8,1.5-25.6,1.4-38.5,1.5c-4-0.1-8.1-0.1-12.1-0.3c-0.8-0.1-3.3-0.3-4,0c-1.8,0.5-2.8,2.2-2.8,4c-0.5,0.2-1.4,0.5-1.8,0.6
			c-6,1.2-15.3,0.1-23.6-1c-3.4-0.1-7.1-1.7-10.3-0.6c-2,1.1-2.1,4.6,0.4,5.1c7.9,0.9,15.8,2.1,23.8,2.6c4.7,0.1,9.7,0.2,14-1.9
			c1.3-0.7,2.5-1.8,3-3.3c10.6,0.7,21.2,0.4,31.8,0.1c8.8-0.2,17.7-0.5,26.4-2.3c7.4-1.5,23.1-6.3,19.4-16.3
			c-0.4-1.2-1.3-2.3-2.3-3.1c-2.4-2-5.4-2.8-8.4-3.7c1.3-4.8,2.8-9.4,4.5-14c17.2,0.5,34.5,1.2,51.7,1.9c22.4,1,44.8,2.2,67.3,3.4
			c4.9,0.3,9.7,0.6,14.6,0.9c1.5-0.1,2.8-1.4,2.9-2.9c0.1-1.4-1.2-2.8-2.6-2.6c-9.5-0.6-19-1.1-28.5-1.6
			c-24.8-1.3-49.7-2.6-74.5-3.5c-9.6-0.4-19.2-0.7-28.8-1c3.3-8.6,7.2-16.9,11.7-25c0-0.2,0-0.3,0-0.5c1.6-0.1,3.1-0.4,4.6-0.8
			c0.1,0.3,0.3,0.6,0.5,0.9c1,1,2.7,0.7,4,0.9c2.7,0,5.5-0.3,8.1-1.2c8.6-3.4,15.5-10,20.7-17.5c9-13.8,13.6-19,28.7-20.6
			c16.1-1.9,33.1-8,41.7-22.7c8-14,16.2-24.1,25.6-35.6c8.9-11.6,17.7-24.8,18.1-40c0.3-10.6-1.3-19-1.2-28.3
			c0.3-10.7,2.2-21.4,1.3-32.2c-0.4-5.1-1.6-10.1-3.3-14.9c-1.5-5.1-5.3-9.9-10.8-10.9c-6.6-0.4-12.4,3.7-18.7,5.2
			c-11.1,3.8-21.5,2.6-33.8,6.2c-8.7,2.7-17,6.9-24,12.7c-8.3,6.3-17.5,17.4-23.6,22c-3.1,2.4-5.6,2.5-10.4,4.3
			c-6.4,2.3-12.4,5.4-17.5,9.8c-4.3,3.4-8.4,7.4-11.5,12c-3-6.4-6.1-12.8-9.1-19.1c-8.8-16.8-22.5-30.2-34.6-44.6
			c-8.6-9.8-16.1-20.6-25.7-29.5c-12.4-11.7-28-19.7-44.2-24.8c-7.2-2.2-14.6-4-22-5.4c-3.8-1-8-1.1-11.4,1.3
			c-3.1,2.2-4.1,6.2-5,9.7c-1.6,7.4-1.3,15.1-1,22.6c0.5,10.8,1.1,21.7,0.7,32.5c-0.1,19.1-4,38.3-1.5,57.4c0.6,5.5,2,10.7,3.6,16
			c-13.9-13-35.6-21.5-53.1-24.3c-14.5-2.1-28.7,3.6-43.2,2.4c-11.7-0.9-31.2-4.9-45.6-5.5c-7,0-14.8-0.7-20.8,3.4
			c-5,3.1-5.3,9.9-2.3,14.5c7.6,10.7,25.1,18.4,32.9,24.6c9.9,7.2,17.7,16.9,27.8,23.8c10.2,6.3,22,9.3,32.4,15.2
			c14.2,7.7,23.1,17.5,37.3,25.7c10.5,5.4,20,6,29.2,11.9c7.7,4.6,15.3,10,24.3,11.7c7.7,1.1,12.4-0.1,19.5,1.9
			c0.4,0.1,0.9,0.1,1.3,0c12.2,14.7,22,30.4,30,49c0.8,1.8,1.5,3.6,2.2,5.2c-32.4,0.5-64.7,2.4-96.8,7.1
			c-15.4,2.7-30.9,5.5-45.4,11.3c-7.5,3.1-15.5,6-20.8,12.4c-4.9,8.2-2.4,14.2,6.5,18.5c9.6,4.1,20.1,5.6,30.5,6.8
			c13.3,1.6,26.5,3.2,39.8,4.8c31.7,3.8,63.5,7.5,95.1,12.4c25.4,4.5,115.3,18,124,33.5c-0.2,0.2-0.3,0.3-0.4,0.4
			c-3.3,2-6.1,2.4-11.4,3.5c-16.4,3.2-32.7,7-48.9,11.4c-16.7,5.2-34.1,9.2-49.6,17.5c-7.3,4.4-23.1,15.6-9.6,21.8
			c19.7,4.9,40.4,4.1,60.6,5.2c31.8,1.1,63.6,2.1,95.4,3c214.2,5.9,428.6,12,642.8,4.4c47.2-1.8,94.8-1.4,141.5-8.8
			c21.3-4,77.9-18.5,30.5-38.5c-14.4-5.3-29.7-7.5-44.5-11.3c-12-2.8-23.2-5.4-32.9-9.7c-4.8-1.9-8.7-4-10.3-6.5
			c0,0,0.1-0.1,0.1-0.1c0.2-0.1,0.5-0.3,0.8-0.4c-0.1,0.1,1.5-0.6,2.3-0.6c2.5-0.7,2.6-0.6,4.8-1c14.1-2.2,28.4-2.2,42.6-2.4
			c52-0.7,104-1.3,156-2.8c42.1-1.7,152.7-5.8,173.4-44.1c7-20.5-40.6-23.9-53.4-26.7c-12.6-1.9-25.2-3.7-37.8-5.5
			c0.1-0.1,0.1-0.2,0.2-0.4c2.5-6.8,4.9-13.6,7.4-20.4c8-22.8,15-46,21.7-69.2c15.5-51.9,28.3-104.6,43.8-156.5
			c8.8-30.2,18.3-60.2,27.3-90.4c1.4-0.4,2.9-0.7,3.7-2c1.1-1.7-0.1-3.9-1.9-4c8-27,15.7-54.1,22.1-81.6
			c7.5-30.8,12.5-62.1,14.8-93.7c3.5-34.4,7.2-68.9,10.6-103.3c3.6-39.7,6.8-79.5,8.9-119.4C1772.8,725.8,1774,696.3,1771.6,666.8z
			 M961.5,466.4c-29.6,22.2-56.7,48-74.9,79.6c-24.3,38.2-36,78.2-42.8,119.4c5.7-37.3,14.9-73.3,33.1-106
			c16.8-33.8,39.2-59.9,68.3-83.9c36.9-31.6,84.3-57.2,132.6-67.3C1035.4,419.9,995.9,440.4,961.5,466.4z M835.6,1016.9
			c-15.1,36.4-56.8,58-97.5,67.6c-17,4.5-30.8,7-47.9,9.3c-10.4,1.5-20.9,3-31.5,2.8c-4.8,0-10.8-1.2-11.6-2.3
			c-1.6-2.8-1-12.5-1.8-19.5c-0.7-10.3-0.5-22.3,3.6-26.4c0,0,0.1,0,0.1-0.1c0.1,0,0.1,0,0.3-0.1c0.3,0,3.6-0.5,4-0.3
			c31.1-0.6,63-3.7,91-18.4c22.9-11.6,41.6-29.2,47.7-54.9c2.9-11.2,2.9-22.9,2.2-34.4c-0.9-14.6-3.8-29.2-9.8-42.6
			c-12.2-29.6-38.3-45.1-69.6-46.9c-7.1-0.7-12.6-1.6-12.2-3.8c-0.8-10.1-0.2-26.9-2.1-40c33.6,5.7,63.6,17.4,92.5,36.7
			c11.6,7.9,23.2,16.4,32.4,29c10.7,15,18.2,37.5,20.4,58.7C848.4,959,848.1,989.6,835.6,1016.9z M1009.5,517.5
			c-67.8,28.3-110.4,92.5-122,158.7c-7.9,37.8-7.6,76.5-7.9,114.9c0,41-0.5,82-3.4,122.9c-1.3,13.2-2.1,23-6.9,35.2
			c-2.3,5.6-4.1,9.7-8.3,13.7c0,0-0.1,0-0.1,0c0.1-0.2,0.3-0.4,0.4-0.6c7.2-11.4,10-24.9,11.4-38.1c4.1-43.7,4-87.7,4.2-131.6
			c0.3-37-0.1-74.3,6.4-110.9c4.2-26.3,13.7-57.2,27.2-81c19.2-31.6,42.7-57.5,76.2-74.5c14-7.3,26.1-12,41.9-16
			C1022,512.4,1015.7,514.9,1009.5,517.5z M940.2,665.1c-8.8,31.7-9.8,64.8-10.7,97.4c-1,42.6-1.1,85.3-1.2,127.9
			c-0.7,98.2,2.9,209.5-62.5,285.7c14-18.2,24.5-39.3,32.5-61c22.4-61.3,23.4-127.9,24.2-192.7c0.1-46.5,0-93,0.7-139.5
			c0.6-32.8,1.1-70.3,6.5-100c5.7-34.7,23.3-71,54.1-77.6C962.1,616.4,947,640.6,940.2,665.1z M490.5,1481.2
			c-10.3-0.3-20.7-0.5-31-0.6c0.2-2.6,0.3-5.2,0.4-7.9c0.3-8,0.3-15.9,0.1-23.9c14.1,2.5,28.3,4.9,42.5,6.7
			C497.8,1463.7,493.9,1472.4,490.5,1481.2z M510.2,1450.2c-10.2,0.4-31.4-4.1-46.2-6.4c-1.4-0.1-2.9-0.8-4.2-0.4
			c-0.5-10.9-1.4-21.8-2.8-32.6c0.4-0.9,0.3-1.9-0.3-2.7c-1.5-11-3.4-21.9-5.7-32.7c13-12.1,29.1-23.6,44.7-29.7
			c7.3-2.7,12.4-4.9,19.1-4.8c0.3,0,0.6,0,0.8,0c0.6,1.6,1.2,3.2,1.7,4.8c3.6,10.9,5.3,22.4,8.2,33.5c2.2,9.2,6.1,18.1,7,27.6
			c0.4,5.2-0.4,14-3.1,21.1C525.8,1437.8,519.5,1448,510.2,1450.2z M436.9,1404.3c2.3,0.5,9.5,4.5,14.5,7.1
			c1.5,11.6,2.5,23.1,2.9,34.7c-2.3,1.2-1.6,1.5-3.3,2.4c-9,5.6-23.4-8.8-29.7-22.1c-5.4-10.9-11.4-21.7-19.9-30.6
			C412.4,1397.2,425.9,1400.4,436.9,1404.3z M395.2,1389.6c-11-10.6-21.6-20.9-24.6-34c-2.2-7.6-2.7-15.6-4.9-23.3
			c-2.4-8.5-5.5-16.7-7-25.4c23.1,1.3,49.9,9.4,72.1,19c0.3,0.2,0.6,0.2,0.8,0.2c5.4,16.5,10.3,33.4,14,50.4
			c1.9,9.4,3.5,18.6,4.8,27.7c-8-4.3-16.6-7.3-25.4-9.5c-7.7-1.9-15.5-3.6-23.4-4.7C399.7,1390.1,397.2,1389.3,395.2,1389.6z
			 M608.6,1396.6c-7.1,8.8-19.1,12.9-29,14.6c-33.1,3.3-28.1,16.2-46.6,33.6c-2.2,2.1-7.4,5.3-10.7,6.1c-1.8,0.3,0.9-0.1-0.8,0.1
			c-0.5,0.1-1,0.1-1.6,0.1c0.1-0.1,0.1-0.1,0.2-0.1c11.7-9.5,16.9-25.2,18-39.8c0.1-3.3-0.2-6.6-0.7-9.8c0.3-0.2,0.6-0.6,0.9-1
			c1.8-3.4,3.6-6.9,5.5-10.2c0.8-0.2,1.5-0.6,2.3-0.7c15.8-4.4,30.5-6.1,47.9-5.4c6.6,0.2,13.8,1.1,21.6,2
			C613,1390,610.7,1393.8,608.6,1396.6z M628.5,1367.6c-3.3,3.9-6.6,8.6-9.6,13.3c-20-3.1-40.6-3.9-60.5,0.2
			c-3.6,0.7-7.2,1.4-10.7,2.3c11.8-20.6,24.9-39.9,38.9-58.6c1.7,0,4.1-1.2,5.6-1.8c14.7-5.2,29-8.1,42.8-10.1
			c5.8-0.8,11.5-1.4,17.3-1.8c0.7,0,1.5-0.1,2.2-0.4c0.1,2.7,0.2,5.6,0.1,8.8C653.8,1338,640.4,1352.3,628.5,1367.6z M651.5,1245.8
			c0,0.1,0.1,0.3,0.1,0.4c3.6,10.4,3.5,18.1,2.8,29.1c-0.5,6.6-1.3,13.1-1.1,19.7c0.2,3.9,0.5,7.3,0.7,10.7c-0.2,0-0.4-0.1-0.7-0.1
			c-19,1.3-37.9,4.5-56.2,10.1c-1.6,0.5-3.3,1.1-5,1.6c18.6-24.2,38.6-47.4,58.9-71.1C651.2,1246.1,651.3,1245.9,651.5,1245.8z
			 M544.3,1286c8.2-3.8,13.7-11.6,20.2-17.6c10.1-10.6,24.8-18.6,37.2-20.5c8.8-1.2,17.8-1.6,26.4-4.4c7.4-2.1,15.8-6.8,18.1-4.5
			c0.9,0.3,1.8,1.1,2.6,2c-0.1,0.1-0.2,0.1-0.3,0.2c-27.5,31.5-54.5,63.5-78.7,97.6c-2.7,3.8-5.3,7.6-7.9,11.4
			c-2.6-11.6-6.2-23-10.9-33.9c-4.7-9.3-9.9-18.6-16-27C538,1288.1,541,1287,544.3,1286z M529.9,1291.7c14.2,20.3,23,40.3,27.6,64.1
			c0.1,0.3,0.2,0.5,0.4,0.8c-7.9,12.2-15.4,24.6-22.1,37.5c-0.8-2.7-1.6-5.5-2.4-8.2c-2.3-7.7-4.2-15.4-5.8-23.3
			c-3.6-18.1-10.5-35.1-18.2-51.8C514.5,1302,521.3,1296.1,529.9,1291.7z M450.3,1235.2c1.9,2.3,3.7,4.6,5.6,6.8
			c14.9,18,30.7,32.3,39.7,53.1c6.1,13,12.8,27.2,17.9,40.1c-5,0.2-9.9,1.7-14.5,3.4c-7.4,2.7-14.6,5.9-21.3,9.9
			c-9.2,5.6-17.9,12-26,19c-0.5,0.6-1.2,1.2-2,1.8c-4.5-19.9-10.3-39.4-17.2-58.6c-1.8-5.6-3.7-11.1-5.7-16.6
			c0.2-0.3,0.3-0.7,0.3-1.1c0.4-11.7,2.6-21.4,7-33.2c1.7-4.8,10.7-18.2,14-22.1C448.6,1236.9,449.5,1236.1,450.3,1235.2z
			 M391.4,1192.5c12.9,4,28.2,11.4,38.6,20.7c6.4,5.3,11.8,11.6,17,18c-3.6,3.1-6.1,7.6-9,11.4c-4.2,6-8,12.3-10.4,19.2
			c-2.1,6.7-4.1,13.7-5.2,20.8c-8.7-22.3-19.2-43.8-33.2-63.4c-7.2-11.1-15.5-21.5-22.8-32.5
			C372.2,1187.1,383.7,1190.3,391.4,1192.5z M359.8,1246c1.2-17.8-3.8-44.4,1.5-56.5c20.9,29.9,43,59,55.2,93.9
			c4.2,11.4,8.6,23.4,12.7,35.6c-13.1-5.3-26.5-10.2-40.3-13.3c-7.9-1.7-15.9-3.1-23.9-4c-2.1,0.1-5-0.9-7-0.2
			C356.2,1285.1,359.8,1264.5,359.8,1246z M301.8,1302.3c13.4,2.2,24.7,6.3,36.2,12.9c-2,13-2,26.1-2,39.2c0.1,4.9,0.4,9.8,0.8,14.7
			c-14.1-9.8-28.5-19.4-43.4-27.9c-0.2-1.1-1-2.1-1.4-3.1c-2.3-5-3.1-7.2-4.5-11.7c-1.9-6-4.4-15.4-4.6-19.3
			c-0.2-1.3,0.2-2.9-0.2-4.2C289.6,1302.1,296.7,1301.5,301.8,1302.3z M214.5,1299.3c16.2,0.3,37.9,7,56.6,5.2
			c1.9-0.3,4-0.5,6.1-0.8c0,0.1-0.1,0.3-0.1,0.4c-0.1,8.8,2.8,17.3,5.3,25.6c0.8,2.3,1.6,4.6,2.5,6.9c-2.7-1.4-5.3-2.8-8-4.2
			c-25.7-12.2-52.1-23.4-79.4-31.5C200.9,1299.3,207,1299.1,214.5,1299.3z M285.6,1369.6c-6.9-3.6-14.1-6.6-21.3-9.5
			c-15.9-6.1-25.2-21-40.3-30.8c-9.9-6.4-21.8-13.1-27.3-19.6c-0.9-1.4-1.4-2.5-1.7-3.6c29,8.7,57.9,20.8,86.4,35.1
			c10.2,5.4,20.1,11.5,29.8,17.8c-6.2,1.5-12.2,4-18,6.7c-2.5,1.2-5,2.5-7.5,3.8C285.7,1369.5,285.7,1369.5,285.6,1369.6z
			 M349.2,1403.2c-0.7,0.4-1.5,0.8-2.2,1.2c-1.9-0.9-3.8-1.6-5.8-2.2c-7.2-2.4-11.3-3.2-18-7c-8.1-4.7-14.2-10.4-22.9-16.5
			c-2.9-2.3-6-4.3-9.2-6.2c8.1-4.2,18-8,25.4-9.3c0.3-0.1,0.5-0.2,0.7-0.4c7.8,5.2,15.5,10.5,23.2,15.8c9.9,7.2,18.7,13.1,27.5,20.1
			c-1.5,0.2-3,0.4-4.5,0.5C358.5,1399.9,353.6,1401,349.2,1403.2z M376.5,1419.1c-7.8-1.3-15.5-7-23.8-11.7
			c5.9-2.5,12.9-2.8,21.2-3.5c0,0,0,0,0.1,0c1.6,1.3,3.2,2.7,4.8,4.2c4.1,3.9,7.9,7.9,11.5,11.9
			C385.2,1419.5,380.4,1419.8,376.5,1419.1z M396.2,1417.8c-10.8-12.2-23-23.2-36.6-32.5c-5.7-4.1-11.3-8.1-17-12.1
			c0.2-1.9-0.4-3.9-0.5-5.9c-1-10.9-0.7-28.3,0.2-41.7c0.2-2.5,0.5-4.9,0.8-7.4c1,0.7,2.1,1.3,3.1,2c2.4,1.6,7.2,5.6,10.4,9.4
			c1,1,1.6,2.5,3,3c0.1,0,0.2,0,0.2,0.1c0.1,0.2,0.1,0.4,0.2,0.5c2.1,7.3,2.8,14.8,4.6,22.1c3.7,17.3,17.1,29.5,29.4,41.1
			c6.3,6.1,10.2,11.3,14.3,17.9c-0.1,0-0.1,0.1-0.2,0.1c-0.2,0.1-0.3,0.3-0.4,0.4c-0.2,0.2-0.4,0.3-0.6,0.4
			c-1.6,0.9-1.6,0.9-4.4,1.6c-1.1,0.2-2.3,0.3-3.4,0.4C398.3,1417.6,397.2,1417.6,396.2,1417.8z M434.1,1480.1
			c-8.1-20.7-19.5-40.1-33.6-57.2c3.8-0.4,7.6-1.3,10.5-3.8c0.1,0.1,0.1,0.2,0.2,0.3c6.7,13,13.4,27.8,27.5,34.1
			c4.7,2.4,10.5,2.5,15-0.4c0.3-0.2,0.6-0.4,0.9-0.6c0.1,4.1,0.1,8.2,0.1,12.3c-0.1,5.3-0.3,10.5-0.6,15.8c-6.5,0-13.1,0-19.6,0
			C434.3,1480.4,434.2,1480.2,434.1,1480.1z M1620.5,634.8C1620.5,634.8,1620.5,634.8,1620.5,634.8c0.2-1.2,0.3-1.5,1.4-3.4
			c5.5-9.2,31.8-13.1,44.8-15.7c29-4.3,61.1-7.6,85.6,2.3c12.2,4.8,14.6,11.9,9,15.9c-8.4,5.9-19.3,6.7-30.1,8.6
			c-18.7,2.6-37.6,4.1-56.5,3.7c-14-0.3-26-1.4-40.6-4.3c-3.9-0.8-7.8-1.8-11.6-3C1622,637.4,1621.5,636,1620.5,634.8z M1602,1161.2
			c-0.1,0.4-0.2,0.8-0.2,1.2c-4.9,29.6-10.2,58.9-15.5,87.7c-5.8,27.7-12.4,55.2-20.5,82.3c-0.1,0.1-0.2,0.2-0.3,0.3
			c-2.7,2.7-5.4,5.3-8.1,7.9c-6.5,6.4-13.8,13.2-20.9,19.6c-1.5-0.2-3.1-0.1-4.4-0.5c-21.9-2.9-40.1-8.5-58.6-20.3
			c-8.3-5.4-17.4-13.5-26.7-20.8c-7.9-6.5-15.5-13.3-21.9-21.3c-0.2-0.2-0.5-0.4-0.8-0.5c9.6-5.4,19-11.2,28.1-17.8
			c44.9-31.2,59.1-75.6,63.7-128c3.7-40.7,4.5-81.7,4.7-122.5c0-5,0-10.1,0-15.1c32,10.1,67.2,12.6,99.8,4.4
			C1616.4,1065.7,1609.8,1113.8,1602,1161.2z M1230.4,1429c-0.6-1-1.4-2-1.9-3c-10.1-16.7-16.5-32.6-21.2-50.4
			c-1.1-4.2-2.4-11.3-2.3-13.4c-0.4-2.5,0.1-5.4-0.5-7.9c7.1-0.9,14.3-1.8,21.4-2.7c66.2-9.3,135.1-20.8,194.5-52.6
			c-0.2,0.8-0.1,1.7,0.6,2.4c8.3,10.3,18.7,18.7,29,27c7.7,6.1,15,12.6,23.4,17.7c17.4,10.6,37.4,16.6,57.5,19.1
			c-4.9,4.2-9.6,8.1-13.9,11.4c-15,10.9-32.2,23.2-47.4,29.1c-45.7,15.3-94.1,16.1-143.1,19
			C1294.4,1426.1,1262.4,1427.7,1230.4,1429z M996,1282.9c8.2-5.9,18.1-7.7,27.3-9.3c11.1-1.6,22.2-2.9,33.3-3.7
			c44.4-3.6,89-0.6,133.4-0.1c48.7-0.2,97.7,0.6,146.1-5c27.2-3,53.7-9.9,79.7-18.4c31.8-11.2,64.4-25.9,87.4-51
			c-3.8,14.6-9.2,28.6-17.4,41.8c-13.7,21.8-33.6,36.9-56.8,50.8c-42.3,25.6-90.7,38.2-140.2,48.2c-92.8,17-193.4,23.8-290.4,30.9
			c0-0.1,0-0.3,0-0.4c-3.6-17.9-6.3-36-8.3-54.2C988.1,1299.2,988.2,1288.1,996,1282.9z M1528.9,693.1c2.7-2.6,8.7-4.4,15.2-6.5
			c13.6-4.2,24.4-6.7,37.7-8c12.6-1.2,25.3-1.6,38-0.9c0.8,0.2,1.5,0.2,2.1-0.1c0.2,6.5,0.3,13.2,0.3,19.8c-2.2,0.8-4.6,2.6-5.9,2.7
			c-6.7,2.5-13.6,4.3-20.5,5.8c-16.6,2.9-42.3,2.1-58-3.5C1529.4,699.3,1527.3,693.7,1528.9,693.1z M1518,776.6
			c0.4-5.6,0.9-11.2,1.4-16.9c1.9-19.4,6-35.8,10.1-55.2c1.6,1.1,3.3,2,4.9,2.6c10.2,4,21.3,5,32.2,5.6c15.5,1,31.1-0.8,45.8-5.7
			c3.3-1.1,6.6-2.3,9.7-3.8c0,8.3,0,16.7,0.2,24.8c1.4,39.5-0.3,79.1-0.3,118.6c0.3,53.9,1.9,107.8-0.9,161.7
			c-0.1,1.3-0.2,2.6-0.3,3.8c-1,0.3-2,0.6-2.9,0.7c-24.9,5.9-52.1,5.3-78.3-0.3c-6.5-1-12.8-3.5-19.1-5.1
			c-0.4-39.7-2.2-79.4-4.5-119.1c-1.2-36.2-0.9-72.6,1.8-108.7c0.3-0.4,0.5-0.8,0.5-1.3C1518.4,777.6,1518.2,777.1,1518,776.6z
			 M1468.6,752c10.6-6.6,25-10.6,38.9-13.9c3.2-0.8,6.4-1.5,9.6-2.1c0.1,0,0.2-0.1,0.3-0.2c-1.7,9.3-3.2,18.7-4,28.1
			c-0.4,4-0.6,7.9-0.9,11.9c-3.3,0.5-6.6,0.7-9.9,0.7c-12.9-0.3-27.3-1.4-35.8-10.9C1462.1,761,1464.2,755.1,1468.6,752z
			 M1465,783.7c-0.5-4.6-1.3-9.1-2-13.6c1,1.1,2.1,2.1,3.3,3c10.5,8,24.4,8.9,37.1,9c2.9-0.1,5.8-0.3,8.7-0.7
			c-3.3,48.2-2.9,96.6,0.4,144.8c0.3,6.3,0.6,12.5,0.8,18.8c-1.5,0.7-3.2,1.8-4.3,2.2c-0.6,0.4-6.4,2.6-9.6,3.2
			c-5.7,1.4-15.7,1.8-24.1,1.6c1.1-25.8,0.1-51.7-1-77.2C1472.8,844.4,1469.1,814,1465,783.7z M1425.8,1109.6
			c10.6-13.3,18.1-28.9,25.4-44.1c15.7-34.1,21.9-70.7,23.9-107.8c12.3,0.3,25-0.1,36.2-5.5c0.7-0.4,1.5-0.8,2.3-1.1
			c1.4,36.1,1.8,72.3,1.2,108.5c-0.6,30.2-1.5,60.4-4.3,90.5c-1.1,11.9-2.6,23.5-4.9,34.9c-0.2,0.1-0.4,0.2-0.5,0.4
			c-3.1,3.5-6.1,7.1-9.4,10.4c-7.7,7.8-13.6,12-22.8,18.2c-20.9,13.3-41.8,22-65,29.4c-0.6-1.3-2-2.2-2.8-3.4
			c-16.4-19.9-33.1-49.6-41.2-73.9c-1.8-4.8-2.9-9.9-4-14.9c5.5-1.8,10.9-3.8,16.2-6C1394.9,1137,1412.6,1125.3,1425.8,1109.6z
			 M1366.2,943.1c-0.1,0.1-0.2,0.1-0.3,0.1c-0.7,0.4-1.8,0.8-4,1.7c-11.6,4.5-20.7,6-33.4,5.6c-3.6-0.1-7.5-0.6-12.5-1.3
			c0-4.2,0-8.4,0-12.5c15.7,2.1,32.3,4.5,47.7-0.5c0.7-0.4,1.6-0.7,2.6-1C1366.3,937.8,1366.2,940.4,1366.2,943.1z M1315.1,551.8
			c-13.9-47.6-42.6-91.2-81.9-120.8c-16.5-12-35-20.4-54.4-25.8c30.5,3.6,59.8,13.3,85.8,30.7c47,33.1,81.8,87.4,92,144.1
			c8.4,39.8,7,79.1,4.2,120.5c-0.5,9.4-2.3,18.8-3,28.1c-1,0.5-1.8,1.2-3.8,1.5c-6.8,1.9-20.9,2.4-25.7,0.6c-2.1-0.8-4.1-1.9-6-3.2
			C1329.2,669.2,1331.2,608.7,1315.1,551.8z M1314.7,725.6c0.9-0.6,1.8-1.1,2.8-1.5c-0.1,1.2-0.2,2.4-0.3,3.6
			c-0.5,0.8-0.6,1.8-0.2,2.6c0,0.1,0,0.2,0,0.4c0.3,1.1,1.1,1.5,2.1,1.6c6.2,4.8,14.4,5.7,22,5.1c5.8-0.3,11.8-0.7,17.3-3
			c1.4-0.7,3.2-1.2,3.8-2.9c0.7-0.5,1.2-1.2,1.2-2.2c0.1-0.7,0.2-1.4,0.3-2.2c4.7,1.6,8.8,3.4,10.3,5.3c-1,0.4-1.9,1.3-1.8,2.6
			c0,0.8,0,1.7,0.1,2.5c0,0-0.1,0.1-0.1,0.1c0.1,0,0.1-0.1,0.1-0.1c0,0,0,0,0,0c-0.1,0-0.1,0.1-0.2,0.1c-0.3,0.2-0.6,0.5-0.9,0.8
			c-15.5,3.8-30.3,5.8-46.3,1C1315.4,736.5,1308.3,730.4,1314.7,725.6z M1310.5,738.2c3.5,3.3,8.1,5.3,12.6,6.8
			c8.8,2.8,18.2,3.3,27.4,2.5c6.4-0.5,12.8-1.5,19.1-3c0.8-0.3,1.7-0.4,2.6-0.6c0.2,21.6-2,43.2-2.5,64.8
			c-1.2,40.2-2.4,80.4-3.2,120.6c-0.5,0.3-0.9,0.5-1.5,0.7c-9.8,4.4-23.7,3.8-32.9,3c-4.4-0.4-8.8-0.9-13.2-1.6
			c-0.9-0.1-1.8-0.3-2.7-0.3c0.1-6.1,0.1-12.2,0.2-18.3c0-52.1,1.3-104.5-4-156.4C1311.5,749.6,1311,743.9,1310.5,738.2z
			 M1308.1,1147.3c-1.4-18.2,5.2-32.6,7.7-50.9c1.1-47.1,0.2-94.3,0.2-141.5c13.4,1.9,27.2,1.8,40.2-2.3c3.4-1,6.7-2.3,9.9-3.7
			c-0.2,12.7-0.4,25.4-0.6,38.1c-0.1,21.8-0.5,43.5-0.5,65.3c0.4,12-0.1,24.2,2.7,35.9c3.7,13.7,15,23.5,21.1,36.1
			c1.1,2.2,2.1,4.5,3,6.9c-2.8,1.7-5.7,3.4-8.7,4.8c-7.5,3.7-16.2,7-25.3,10c-1.2-0.6-2.8,0-3.6,1.2c-9.3,2.9-19,5.6-28.3,8
			c-5.8,1.5-11.5,2.9-17,4.2C1308.5,1154.2,1308.3,1152.3,1308.1,1147.3z M1190.6,939.7c16.9,2.6,34.5,5.5,51.2,0.8
			c1.7-0.6,4-1,6.1-1.8c-0.1,3.1-0.3,6.2-0.4,9.4c-2,0.7-2.3,1.2-3.8,1.7c-12.5,5-23.9,6-38,5.4c-3.2,0-10.2-1.4-15.8-2.3
			C1190.1,948.4,1190.4,944,1190.6,939.7z M1193.3,575.7c-18.5-32.9-50.4-57.3-86.4-68.9c35.8,5.8,72.6,23.2,96.8,50.5
			c17.6,18.2,26.6,39.9,29.9,65c3.4,25.9,2.5,54.4,4.2,82.3c0.5,7.7,0.7,15.5,1.2,23.2c-0.6,0.4-0.2,0.4-1.1,0.9
			c-0.3,0.3-1.9,1.2-2.5,1.5c-7,3-15.6,2.2-21.4-0.4c-1.4-0.8-1.8-1.1-2.3-1.4c-1.1-24.7-2.2-49.4-2.8-74.1
			C1208.1,627.5,1205.8,599.9,1193.3,575.7z M1195.2,725.6c2.7-1.8,6.4-2.9,10.6-3.5c0.1,1.8,0.2,3.7,0.3,5.5
			c-0.9,1.1-1.1,2.6,0,3.7c7.2,6.4,17.7,7.4,26.8,5.4c3-0.7,6-2.1,8.4-4c0.2-0.2,0.5-0.4,0.7-0.6c1.5-0.2,3-1.3,3-2.8
			c0-0.6-0.1-1.2-0.1-1.9c4,1.4,7.4,2.9,9,4.5c-0.7,0.5-1.2,1.3-1.2,2.2c0,1,0,2.1,0.1,3.1c0,0-0.1,0.1-0.1,0.1
			c-0.1,0.1-0.2,0.2-0.3,0.3c0.3-0.2,0.5-0.4,0,0c-0.3,0.2-0.6,0.5-0.9,0.8c-15.5,3.8-30.3,5.8-46.3,1
			C1195.9,736.5,1188.7,730.4,1195.2,725.6z M1203.5,744.9c8.8,2.8,18.2,3.3,27.4,2.5c6.4-0.5,12.8-1.5,19.1-3
			c0.9-0.3,1.9-0.5,2.8-0.7c0.6,32.4,0.9,64.7,0.1,97.1c-1.1,30.7-3.3,61.3-4.7,92c-1.3,0.3-2.5,1-3.7,1.2
			c-10.1,3.6-22.8,3.9-32.3,2.8c-7.1-0.6-14.2-2-21.2-2.7c0.6-11.1,1.3-22.3,2-33.4c2.7-48.3,3.8-96.7-0.2-144.9
			c-0.5-5.8-0.9-11.7-1.6-17.5C1194.6,741.5,1199.1,743.5,1203.5,744.9z M1176.7,1162.9c0.1-0.2,0.3-1.7,0.4-2.5
			c1.7-9.1,3.4-18.2,4.6-27.4c5.4-37.7,4.7-75.8,5.6-113.7c0.4-20.3,1.3-40.6,2.3-60.9c15.2,3.2,31.2,3.3,46.3-0.4
			c3.9-1,7.7-2.4,11.4-4.1c-1.4,42-1.1,83.9-1.3,125.9c0.1,28.6-0.5,57.3,2.4,85.8c0.2,0.8,0.2,1.6,0.3,2.4
			c-24.3,0.6-48.1-2-72.3-4.1C1176.5,1163.6,1176.6,1163.2,1176.7,1162.9z M1160.1,1168.2c25.6,1.4,55.8,5.9,83.8,5.5
			c24.1-0.4,47.9-4.9,71.3-10.4c13.2-3.3,26.4-6.6,39.3-10.7c4.3,20.3,13.2,39.3,23.4,57.3c7.4,12,14.7,24.8,24.4,35
			c-2.4,0.7-4.8,1.5-7.2,2.2c-36.6,11-73.3,14.8-112.5,16.1c-45.7,1.3-91.5,1.4-137.2,0.1c0-2.1-1.7-4-2.2-6
			c-6.7-16.2-9.5-38.9-10.2-56.8c-0.6-11.2,0-22.3,0.8-33.5C1142.5,1167.1,1151.3,1167.5,1160.1,1168.2z M1043.5,938.6
			c19.4,5.9,40.3,9.4,60.5,6.2c4.4-0.7,8.7-1.8,12.9-3.3c1.1-0.5,2.5-0.8,3.4-1.6c0,4.8,0,9.5-0.1,14.3c-2.4,0.7-2.3,1.2-4.2,1.9
			c-15.2,5.7-33.2,5.3-48.6,3.7c-8.8-0.9-17.5-2.1-26.1-4.4C1042.1,949.7,1042.8,944.1,1043.5,938.6z M1059.4,630
			c-8-10.9-19.6-17.8-31.8-22.7c1.6,0.4,3.2,0.8,4.9,1.3c12.3,3.4,23.3,8.1,34.7,16c10.9,8.6,20.2,23.9,22.3,40.1
			c2.3,14.8,2,30.5,1.6,47c-0.3,6.9-0.8,13.8-1.3,20.7c-0.2,0.3-0.5,0.5-1.2,0.8c-2.5,1.4-11.2,2.2-14.6-0.1
			c-0.1-0.1-0.1-0.1-0.2-0.2c-0.5-0.5-0.7-0.7-0.8-0.9c1.3-16.6,1.8-33.2,1.2-49.8C1073.8,663.9,1070.7,644.7,1059.4,630z
			 M1055.2,729.5c3.2-2.1,7.8-3.3,13-3.7c-0.1,1.9-0.2,3.8-0.4,5.7c-0.5,0.8-0.7,1.8-0.2,2.7c0,0.1,0.1,0.1,0.1,0.2
			c0.1,0.4,0.3,0.8,0.6,1.2c0.1,0.2,0.3,0.2,0.5,0.3c2,2.4,4.9,3.6,8.2,3.9c5.6,0.5,11.9,0.2,16.4-3.5c0.3-0.2,0.6-0.4,0.8-0.6
			c0.8-0.5,1.4-1.4,1.4-2.3c0.1-1.6,0.2-3.2,0.3-4.7c2.7,0.7,5.4,1.4,7.9,2.3c4.7,1.6,8.9,3.4,10.5,5.3c-0.6,0.7-0.9,1.6-0.7,2.5
			c0.1,0.5,0.1,1,0.2,1.6c-0.2,0.3-0.6,0.6-1,1c-0.1,0.1-0.2,0.2-0.3,0.3c0.3-0.2,0.5-0.4,0,0c-0.3,0.2-0.6,0.5-0.9,0.8
			c-15.5,3.8-30.3,5.8-46.3,1C1055.9,740.4,1048.8,734.4,1055.2,729.5z M1053,833.8c0.8-28.1-0.3-56.3-2.6-84.3
			c-0.2-3.2-0.4-5.8-0.7-8.7c0.2,0.2,0.3,0.4,0.5,0.6c3.6,3.7,8.6,5.8,13.4,7.4c8.8,2.8,18.2,3.3,27.4,2.5c6.4-0.5,12.8-1.5,19.1-3
			c1.3-0.5,3-0.6,4.3-1.1c6.3,61.4,6.2,125.2,5.9,188.6c-0.3-0.2-0.6-0.4-1-0.5c-1.8-0.2-3.4,1-5,1.4c-16.9,5.7-33.2,4.2-51.4,1
			c-6.3-0.9-12.4-3.2-18.6-4.7C1048.4,900,1052.1,867,1053,833.8z M982.9,1161.9c0.6-2.3,1.5-4.5,2.4-6.7
			c1.4-3.9,7.9-13.2,11.8-18.8c12-17.6,19.1-37.9,24.5-58.3c7.2-26.9,11.1-54.5,14.5-82.1c1.4-11.7,2.9-23.4,4.4-35.1
			c8.9,2.3,18,3.5,27.2,4.4c12.3,1.3,24.9,1.5,37.1-0.7c4.7-0.8,9.4-2,13.8-4c0.5-0.2,0.9-0.4,1.4-0.7c0,6.6-0.1,13.1-0.1,19.7
			c-0.6,35.8,1.2,71.7-1.5,107.3c-1.6,18.9-8.6,35.5-16.9,52.5c-3.3,7.2-7,14.3-9.6,21.8c-0.1,0.2-0.2,0.5-0.3,0.7
			c-24.6,0.4-49.3,0.8-73.9,0.1c-11.6,0.2-23.4-0.3-35.1,0.1C982.9,1162,982.9,1161.9,982.9,1161.9z M956.6,1170.3
			c13.5-2.9,31.1-2.7,47-2.9c26.1,0,52.2,0.9,78.3,0.3c15.4-0.4,30.9-1,46.3-0.9c-1.5,17.1-1.3,34.3,0.4,51.3
			c1.6,15.2,4.3,31.1,11,44.8c-0.8,0-1.7,0-2.5-0.1c-30-0.8-60.1-0.8-90,2.1c-15.3,1.9-31.1,2.7-45.5,8.5c-0.7,0.3-1.3,0.6-1.9,0.9
			c-1.3-1.7-4.3-1.8-6-3.1c-24.3-13.6-42-41.7-50.3-67.4c-2.8-8.6-5.5-17.3-6.3-26.3C943.1,1174.4,949.6,1171.9,956.6,1170.3z
			 M897.9,1239.9c1-13.4,4.9-27.7,11.7-38.6c6-7.7,13.5-14.8,22.1-20.5c1.1,9.2,3.9,18,6.8,26.8c5.1,15.1,12.4,29.6,22.4,42.1
			c9.1,11.3,19.5,22.2,33,28.1c-13.1,9.2-11.1,23.9-8.8,40.6c2.1,16.4,4,33.1,7.8,49.1c-5.4,0.4-10.8,0.8-16.2,1.2
			c-21.4,1.8-42.8,3.3-64.2,5.6c-1.7-7.8-3.3-15.6-4.9-23.4C900,1313.2,893.9,1277.8,897.9,1239.9z M1031.2,1370.1
			c56-3.6,111.9-8.5,167.7-15.2c0,0.2,0,0.4,0,0.6c-0.2,9.8,3.2,26,7.7,37.5c4.5,12.5,9.9,25,17.1,36.2c-42.7,1.7-85.4,3-128.2,3.1
			c-38,0.8-76-3.3-114-1.9c-8.6,0.4-17.3,0.7-25.7,2.4c-1.3,0.3-2.7,0.6-4,1c-2.1-1.1-5.1-1.1-7.2-2.2c-13.8-4.8-29.4-14.1-40.6-26
			c-5.8-6.2-10.2-15-12.8-23.3c1.6-0.2,3.1-0.4,4.7-0.6C940.9,1376.4,986.1,1373.6,1031.2,1370.1z M795.1,1466.6
			c1.4-20.6,3.2-42.8,18.8-55.8c18.4-18.1,44.9-24,71.6-27.7c4.3,15.7,14.2,29,27.6,38.2c9.3,6.7,19.7,12.7,30.8,16
			c-0.9,0.6-1.7,1.3-2.4,2.1c-4.6,5.1-4.6,12.5-6.5,18.8c-0.1,0.7-0.1,1.2,0.1,1.7c-32.5,0.9-65.1,2.3-97.6,4.2
			C823.4,1465,809.2,1465.8,795.1,1466.6z M1639,1397.7c-6.9,24-13.9,48-22.1,71.6c-2.9,8.5-6,17-9.1,25.4c-0.1,0.2-0.1,0.5-0.1,0.8
			c-7.2-1-14.4-2.1-21.6-3.1c-144.2-19.9-289.8-24.7-435.2-29.2c-47.3-1.7-94.5-3.9-141.8-4.3c-23,0-46,0.3-69,0.9
			c0.1-0.1,0.2-0.2,0.2-0.4c1.7-6.4,2.9-14.9,5.2-16.5c6.5-6.1,22.6-6,36.1-6.8c42.4-1.3,84.6,3.2,127,1.8
			c75.3-0.7,150.6-4.5,225.9-8.1c46.1-2.7,93.4-4.1,137.4-19.3c19.4-8.3,36.7-21.1,53.4-33.9c4.4-3.5,8.7-7.2,12.9-11
			c0.5-0.2,0.9-0.6,1.2-1.1c7.9-7.1,15.6-14.4,23.2-21.8c-6.6,20.8-14,41.3-22.8,61.3c-10.5,24.5-22.3,48.5-31.4,73.6
			c-0.5,1.3,0.3,3,1.8,3.3c1.5,0.3,3.1-0.7,3.5-2.2c18.8-49.3,44.3-96.1,57.9-147.3c13.6-45.6,22.9-92.3,30.7-139.2
			c1.5-9,3-17.9,4.4-26.9c33.1,6.6,67.8,5.2,100.3-4.1c-6.8,22.6-13.7,45-20.4,67C1669.4,1284.3,1655.5,1341.3,1639,1397.7z
			 M1742,1019.7c-7.1,44.1-19.6,89.9-33.2,135.3c-25.2,7.7-53.2,10.2-77.9,8.1c-7.8-0.5-15.6-2.1-23.3-3.3
			c6.1-37.8,11.5-75.7,15.8-113.7c1.2-10.1,2-20.2,2.7-30.3c0.6-0.9,0.7-2.1,0.2-3c2.9-44.3,2-88.8,1.6-133.2
			c27.4,6.1,56,5.8,83.3-0.7c16.1-3.5,32.1-8,46.7-15.8C1753.2,915.3,1747.4,967.5,1742,1019.7z M1764.2,782.9
			c-1.6,24.7-3.6,49.4-5.8,74.1c-2.2,0.4-4.5,2.7-6.6,3.3c-10,5.1-25.1,9.6-38.3,12.6c-16.6,3.8-33.6,6.4-52.1,5.6
			c-9-0.5-19.5-1.6-30-3.9c-1.1-0.1-2.3-0.5-3.5-0.8c0-2.3,0-4.6-0.1-6.8c-0.8-46.7,1.7-93.5,0.1-140.2c-0.4-18.6,0-37.2-0.7-55.7
			c-0.5-8.6-0.7-17.3-2.8-25.6c37.3,10,77.2,7.3,115.1,1.4c7.5-1.5,15.8-2.7,22.4-6.9c4.3,18.2,4.8,34.2,5.5,52.9
			C1767.8,722.8,1766,752.9,1764.2,782.9z"/>
		<path d="M737.5,928.3c2.6-6,3.4-12.5,4.2-18.9c0.4-4.1,1.3-8.5-0.3-12.4c-5.9-13.2-23-13.4-35.4-14.4
			c-10.7-0.7-22.7,1.8-23.5,14.5c-0.3,1,0,2.1,0.6,2.8c0,0.1,0,0.3,0,0.4c1.1,10.2,1.8,20.5,2.8,30.7c0.5,4.8,5.2,7.5,9.5,8.4
			c7.8,1.5,15.8,1.1,23.7,1.1c3.5-0.1,7.2-0.6,10.3-2.3C733.1,935.9,735.7,932.2,737.5,928.3z M726.8,933.7c-0.5,0.4-2.9,0.9-3.7,1
			c-9.2,0.7-17.5,0.6-25.1-0.4c-5.6-1.6-6.5-1.5-6.9-7.4c-1.2-9.6-1-19.7-3-29.1c-0.1-0.1-0.1-0.1-0.2-0.2c0-0.3,0.1-0.6,0.1-0.9
			c0.1-0.4,0.1-0.5,0.1-0.7c1.4-5.3,1.8-5,5.7-6.8c4.2-1.7,11-1.2,17.4-0.7c4.5,0.4,15,1.5,20,5.2c5,3.5,6.2,5.8,5.3,13.6
			c-1.3,9.4-1.6,16.3-6.2,23c-1.1,1.4-1.8,2.4-3.9,3.6C725.8,934.2,726.6,933.8,726.8,933.7z"/>
		<path d="M663.5,1009.6c9.3-1.7,25.1-4.2,26.6-15.7c-0.1-11.7-3.2-32.3-15.1-37.6c-4.1-1.7-8.7-1.1-13-0.8
			c-7.5,0.5-15,1.2-22.5,1.9c-0.8,0-1.4,0.4-1.9,0.8c-1.3-0.1-2.7,0.7-3.7,1.7c-3.9,3.2-5.2,8.3-5.4,13.2c-0.2,6.7,0,13.5,0.9,20.1
			C633.7,1016.6,644.6,1012.6,663.5,1009.6z M635,967.6c0.8-1.9,0.6-1.8,2.7-3.8c0.4-0.2,0.7-0.5,1.1-0.8c0.2,0,0.3,0.1,0.5,0.1
			c8.6-0.9,17.3-1.6,25.9-2.2c6-0.2,7.7-0.3,11.6,4.2c5,6.2,8.2,20.9,7.6,30.1c-1.3,4.6-14.2,8.4-25.5,9.7
			c-3.4,0.6-12.3,1.8-13.1,1.7c-3.2-0.4-3.1-0.4-5.7-2c-4.6-4.4-5.8-13.9-6.1-21.1C634,977.6,633.7,971.3,635,967.6z"/>
		<path d="M715.5,971c-0.2,0.3-0.5,0.5-0.8,0.7c-0.2,0.2-0.5,0.3-0.7,0.4c-0.4,0.2-0.9,0.4-1.2,0.4c-4.3,1.7-9.1,2.2-13.3,4
			c-1.5,1-1.7,3.7,0.1,4.6c1.3,0.7,2.7,0,4-0.3c3.9-1,7.9-2.1,11.6-3.5c2.6-1,4.9-3.1,5.7-5.9c0.8-4.2-0.2-8.5-0.2-12.7
			c-0.2-4.5-0.4-8.9-0.7-13.4c0-0.7-0.2-1.4-0.7-1.9c-1.7-1.7-4.8-0.1-4.8,2.2C714.8,953.5,716.4,968.2,715.5,971
			C715.6,970.9,715.5,971,715.5,971z"/>
		<path d="M652.6,947.7c0.1-10-0.2-20,0.5-30c0-0.1,0-0.1,0.1-0.2c0-0.1,0.1-0.2,0.1-0.2c0.3-0.3,0.6-0.7,0.9-0.9
			c2.8-2.1,10.4-4.1,12.2-4.3c2.8-0.6,5.7-0.6,8.4-1.3c1.7-0.6,2.5-3.2,1.2-4.6c-0.5-0.5-1.2-0.8-1.9-0.7c-3,0.3-5.9,0.8-8.9,1.3
			c-3.6,0.7-7.2,1.7-10.6,3.3c-2.8,1.2-5.5,3-6.6,6c-1.6,10.5-0.6,21.4-0.9,32C647,951.8,652.5,951.2,652.6,947.7z"/>
		<path d="M1214.3,1539c-1.5-18.8-5.6-42.9-30.1-38.4c-7.8,0.6-15.9,1.4-22.9,5.2c-5.4,3.1-9,8.4-11,14.2c-3,7.7-4.9,13.7-8.3,19.7
			c-3.6,7.7-12.6,6.1-23,5c-4.6-0.5-10.5-2.8-11.6-3.8c-2-1.5-3.2-3.8-5.3-5.3c-2.3-1.9-5.1-3-7.9-3.5c-13.3-2.4-22.2,7.6-28.3,18
			c-2.5,4.1-4.6,8.4-6.4,12.9c-0.5,1.3-1.3,2.7-0.6,4c1.2,2.2,4.5,1.3,5.1-0.9c4.2-10.3,10.7-23.3,20.5-28.1
			c1.3-0.6,9.3-1.2,12.1,0.8c2.2,0.6,4.7,5.2,8.3,7.3c6.8,3.9,14.8,4.4,22.4,4.8c5.8,0.6,12.1-0.2,16.3-4.7
			c7.5-8.7,10.9-26,14.8-31.2c4.5-6,11.3-7.4,18.8-8.4c7.4-0.6,15.3-2,19,0.3c10.6,6.3,12.4,26.3,12.7,40.5
			c0.3,4.8-1.7,11.3,2.9,14.5c2.8,1.8,6.2,1.8,9.3,2c6.2,0.2,12.5-0.3,18.7-0.6c4.4-0.5,9-0.2,13.4-1.1c1.7-0.6,2.5-3.2,1.2-4.6
			c-0.5-0.5-1.2-0.8-1.9-0.7c-4.2,0.3-8.5,0.5-12.7,0.8c-7.3,0.5-16.8,1-21.9,0.3c-1.8-0.4-1.1,0-2.9-1c0,0-0.1-0.1-0.1-0.1
			c-0.1-0.1-0.2-0.3-0.2-0.5C1213.8,1555.2,1215,1544.9,1214.3,1539z"/>
		<path d="M986.4,1594.7c-2.8,0.5-5.8,0.5-8.6,1.2c-0.7,0.3-1.3,0.9-1.6,1.6c-1.2,2.7,1.6,4.3,4,3.5c4.2-0.5,8.3-1.1,12.5-1.7
			c5.9-1,12.4-1.6,17.2-5.7c3.5-3.5,1.8-6.8-1.1-9.4c22.2-1,44.6-0.8,66.7-3c6.1-0.8,12.2-2,18.2-3.3c4.2-1.1,8.8-1.9,12.3-4.7
			c6.7-7-5.6-11.2-11.1-12.2c-1.9-0.2-4.1-1.6-5.9-0.5c-2,1.1-2.1,4.6,0.4,5.1c5.5,1.3,8.3,1.5,12.4,4.2c-0.1,0-0.2,0.1-0.3,0.1
			c-7.1,2.8-16.7,4.4-21.9,5.3c-22.6,3-45.5,2.2-68.2,3.5c-3.7,0.2-7.5,0.1-11.1,0.6c-1,0.1-1.9,0.7-2.4,1.5c-2,4,3.6,5.3,6,7
			c0.2,0.4,1,0.5,2.1,1.8c0,0.1,0.1,0.1,0.1,0.2c0,0,0,0,0,0c0,0,0,0,0,0C1004.9,1591.6,994.3,1594,986.4,1594.7z"/>
		<path d="M546,1536.4c-0.1,0.1-0.2,0.2-0.3,0.3c-1.4,0.9-0.7,0.7-3,1.2c-0.3,0-0.6,0.1-0.7,0.1c-1.9,0.3-3.7,0.4-5.6,0.6
			c-2,0.4-4.5-0.3-6.2,1.2c-1.2,1.2-1.3,3.5,0.4,4.3c1.4,0.6,3.1,0,4.6,0.1c4.3-0.5,8.9-0.3,12.7-2.6c2.5-1.5,3.8-3.8,3.8-6
			c5.5,0.7,11,1.2,16.5,1.7c16.6,1.6,33.3,3.1,49.9,4.2c34.2,1.9,68.6,1.5,102.6-2.5c9.5-1.2,18.8-3.2,27.9-6
			c5.3-1.8,11-3.1,15.5-6.5c8.4-7.2-0.3-11.8-7.8-13c-23.3-2.6-46.8-2.9-70.2-2.2c-3.4,0.1-4.1,5.6-0.3,5.5
			c18.1-0.7,36.2-0.3,54.2,0.8c6.6,0.6,11.3,0.2,18.6,2.3c-1.1-0.4,1.7,0.7,3.1,1.5c-0.5,0.7-0.7,0.7-1.4,1.3
			c-8.7,4.7-24.5,8.3-34.7,10c-37.2,5-74.9,5.2-112.3,2.8c-20.9-1.8-47.6-3.3-70.7-7.2c0,0,0,0,0,0c-0.7-0.1-1.3-0.1-2,0.2
			c-1.7,0.7-2.5,3.2-1.2,4.6c0.5,0.5,1.1,0.7,1.7,0.8c0.2,0.1,0.3,0.1,0.5,0.1c1.5,0.5,3.5,1.1,4.3,2.1
			C546,1536.3,546,1536.3,546,1536.4C546,1536.4,546,1536.4,546,1536.4z"/>
		<path d="M394.1,1513c9.6,0.4,19.2-1,28.6-2.9c3.4-0.7,6.7-1.6,10-2.7c0.7-0.2,1.4-0.7,1.8-1.4c1.3-2-0.6-4.7-2.9-3.9
			c-10.2,3.2-17.3,4.3-28,5.3c-3.1,0.2-6.1,0.2-9.2,0.1c-0.8,0-1.5,0.4-2,0.9C390.6,1509.9,391.5,1513.2,394.1,1513z"/>
	</g>
	<g>
		<path d="M672.9,649.9c-8.4-4.2-16.8-8.4-25.2-12.6c-5.9-2.7-39.9-20.5-43.2-13c0.2,2.9,4.8,3.7,6.8,5.1c4,2.4,6.6,4.2,10,7
			c1.5,1.5,3.1,2.3,3.4,3.8c0.6,1.5-6.7,5.4-13.1,7.4c-10.4,3.6-20.9,7.4-31.2,11.2c-38.4,12.9-73.1,35-102.5,62.8
			c-8.4,7.5-21,21.5-26.4,29.1c0.2-0.8,0.5-1.7,0.5-2.2c0.7-3.3,1.5-6.6,1.8-10c0-0.7-0.2-1.5-0.8-1.9c-1.4-0.9-3.1,0-4.4,0.6
			c-3.7,2.5-5.9,6.6-8.4,10.2c-3.8,6-7.5,12.1-11.2,18.3c-12.1,19.6-22.7,40.1-30.6,61.8c-11.8,30.4-17.4,63-20.2,95.4
			c-0.4,9-0.1,18,0.8,27c0.5,1.4,2.7,0.8,2.7-0.7c-2.1-20.1,0-40.3,3.5-60.2c5.7-37.8,19.1-76.1,38.8-109.5
			c5.7-9.8,11.5-19.5,17.5-29.1c2.8-5.1,7.7-11.2,9.5-11.5c0,0.2,0,0.7-0.2,1.5c-0.3,1.1-0.2,1.5-0.6,3.2c-0.5,4-2.1,7.8-2.6,11.7
			c0.4,2.4,3.2,1,4-0.4c1.7-2.1,5.3-6.8,6-7.8c4.4-5.7,9.3-11,14.3-16.1c23-22.9,48.2-41.8,77.5-56.6C565,667,583,660.9,600,654.7
			c7.9-3.1,16.5-5,23.8-9.5c6.9-4.1,2.8-8.6-2.2-12.1c-3.1-2.8-7.8-5.4-11.4-7.4c12.3,1.7,27.6,10.3,40.4,16.4
			c6.9,3.5,13.8,6.9,20.7,10.3c0.5,0.3,1.1,0.2,1.5-0.2C673.7,651.7,673.8,650.4,672.9,649.9z"/>
		<path d="M683.9,642.7c-7.7-8.6-15.2-17.3-23.4-25.4c-1.2-1.2-3.3,0.8-2.1,2.1c6.8,6.7,13.1,13.9,19.5,20.9c1.6,1.3,3,4.4,4.9,4.8
			C683.9,645.1,684.7,643.6,683.9,642.7z"/>
		<path d="M708.7,653.3c-1.4-2.5-33.9-66-33.3-50.9c12.1,15.1,21.1,35.1,31.1,52.8C707.7,656.1,709.4,654.5,708.7,653.3z"/>
		<path d="M608.9,1058.8c-2.2-0.7-3.3,2.9-4.7,4.2c-2.7,3.4-9.6,12.9-12.4,11.4c-2.7-0.6-6-4.4-9.2-7.4
			c-6.1-6.3-12.3-12.5-17.6-19.4c-4.2-5.4-8.1-11.3-11.8-17.9c-0.4-0.6-0.6-1.6-1.5-1.8c-1.1-0.3-2.2,1.1-1.7,2.1
			c7.3,13.5,17,25.5,27.8,36.2c3.8,3.6,7.1,8,11.8,10.4c3.5,1.8,6.9-0.8,9.3-3.3c3.9-3.9,7-8.4,10.4-12.7
			C609.7,1060,609.6,1059.1,608.9,1058.8z"/>
		<path d="M605.8,1079.1c-1.7-1-2.5,0.6-4.2,1c-4.3,1.6-9,4.1-11.9,3.2c-2.8-1.5-8.9-7.4-12.7-11.4c-0.6-0.5-1-1.4-1.9-1.3
			c-1.1,0-2,1.6-1.1,2.4c3.8,4,7.8,7.9,12,11.4c1,0.8,2.2,1.5,3.5,1.8c2.9,0.4,5.7-0.9,8.4-1.8c2.6-1.1,5.5-1.9,7.7-3.5
			C606.3,1080.4,606.3,1079.6,605.8,1079.1z"/>
		<path d="M708.9,788.9c-5.2-0.5-10.4-0.8-15.6,0c-1.9,0.4-4,0.7-5.6,2.1c-2.2,2-1.2,5.1-0.9,7.7c0.6,2.2,0.4,6.8,1.8,8.3
			c1,0.6,2.4-0.5,2.1-1.7c-0.6-4.5-2.1-12-1.5-12.2c1.5-1.6,7.1-1.9,11.7-1.9c3.3-0.2,5.2,0.7,8.1,0.3
			C710.1,790.9,710.2,789.1,708.9,788.9z"/>
		<path d="M713.3,782.3c-1.7-1.4-4.4-1.7-6.5-2.5c-3.6-0.9-7.1-2.3-10.7-2.9c-1.4,0.1-1.8,2.4-0.3,2.7c4.7,1.3,9.5,2.6,14.2,4.2
			c0.7,0.1,1.1,0.7,2.4,0.6C713.2,784.1,713.7,783.1,713.3,782.3z"/>
		<path d="M1808.9,893.3c-1.3-5.7-7.4-10.4-12.6-5.9c-7.2,6.6-10,16.6-14.3,25.1c0,0,0,0,0,0.1c1.2-12.6,2.3-25.1,3.3-37.7
			c2.2-28.9,5.1-57.7,5.7-86.7c0.9-45.8-4-91.6-4.3-137.4c-0.2-7.2,2.4-14.6,0.2-21.7c-4.9-14-17.6-23.9-30.7-30
			c-7.3-3.6-15.2-6.6-23.3-7.6c-1.4,0.2-1.8,2.3-0.3,2.7c20.5,3.8,43.9,16.2,51.3,34.8c2,4.6,0.9,8.7,0.6,13.9
			c-0.6,6.8-0.6,13.7-0.4,20.6c1.4,41.7,4.8,83.4,4.2,125.1c-0.7,32.8-4.1,65.4-6.7,98.1c-0.6,7.3-1.2,14.7-1.9,22
			c0,3.4-1.7,8.1-0.1,11c1.8,1,2.9-1,3.4-2.5c1.4-3.3,2.1-4.9,3.4-7.7c4.9-10.8,13.1-30.2,19.6-16.5c3.6,9.4,1.6,23,0.3,34.6
			c-2.1,16.9-4.7,33.8-7.6,50.6c-5.4,31.8-10.9,63.6-15.3,95.6c-1.3,9.1-2.6,18.2-3.9,27.3c-0.1,0.7,0.6,1.4,1.3,1.3
			c0.8,0,1.4-0.7,1.5-1.5c0.5-3.7,1.1-7.4,1.6-11.1c2.3-16.2,4.6-32.5,7.1-48.7c5.6-35.8,12.5-71.4,17.3-107.3
			C1809.4,920.6,1812.7,906.6,1808.9,893.3z"/>
		<path d="M1769.6,987.9c-0.9-0.8-2.4,0-2.4,1.1c-4,30.8-8,61.8-11.2,92.6c0.5,1.4,2.7,0.7,2.7-0.7c3.3-28.3,6.8-56.6,10.3-84.9
			c0.3-2.4,0.6-4.8,1-7.2C1770,988.5,1769.9,988.2,1769.6,987.9z"/>
		<path d="M1808.3,1015.1c-0.9-0.9-2.4,0-2.4,1.1c-2,12.5-4,25.2-5.2,37.8c0.5,1.4,2.7,0.7,2.7-0.7c1.3-10.6,2.7-21.2,4.3-31.8
			C1807.8,1019.6,1809.2,1016.8,1808.3,1015.1z"/>
		<path d="M1477,723.8c-19.6,1.3-33.3,17.9-43.1,33.4c-2.5,3.7,1.3,4.5,2.1,1.7c7.3-12,17.6-24.7,29.8-29.7
			c4.3-1.7,7.5-2.1,11.6-2.7C1478.7,725.9,1478.6,723.7,1477,723.8z"/>
		<path d="M1462.3,710.6c-0.9-0.7-2.3-0.3-3.4-0.5c-4.3-0.1-8.7,0.1-12.8,1.5c-1.3,0.5-2.7,1.1-3.5,2.3c-0.8,1.3,0.4,2.6,1.8,2.5
			c1.2-0.2,1.7,0.2,2.8-1c0.3-0.4,0.3-0.9,0.1-1.3c2.2-0.7,5.5-1.2,8.5-1.2c2.6-0.2,4.2,0.5,6.1,0
			C1462.6,712.4,1462.9,711.2,1462.3,710.6z"/>
		<path d="M1471,704.8c-5.3-2.9-10.8-5.7-16.7-7.3c-2.2-0.4-5.4-1.7-7.5-1.2c-1,0.5-1,2.3,0.2,2.5c8.9,1.1,15.8,5,24,9.1
			C1473.2,707.7,1473,705.4,1471,704.8z"/>
		<path d="M1593.9,648.9c-7.2-5.1-15.3-9.1-23.8-11.6c-4.1-1.2-8.4-1.9-12.7-1.7c-1,0-2.2-0.1-2.6,1c-0.5,0.8,0.2,1.9,1.2,1.8
			c12.6-0.6,24.9,5.1,36,12.6C1593.4,652.6,1595.7,650,1593.9,648.9z"/>
		<path d="M1594.7,623c-0.9-1.5-3.3,0-2.5,1.5c2.6,5.1,5.9,9.7,8.9,14.6c0.7,1.2,2.6,0.5,2.6-0.8
			C1601.3,633,1597.2,628.4,1594.7,623z"/>
		<path d="M1584.2,661.8c-2.6-0.8-5.3-1.2-8-1.6c-1.6-0.4-2.6,2.3-0.8,2.7c2.6,0.3,5.2,0.8,7.7,1.5c1.1,0.4,2.8,0.9,3.2-0.6
			C1586.8,662.4,1585.2,662.1,1584.2,661.8z"/>
		<path d="M1307.5,710.4c-12.2,3-13.8,17.3-15.7,27.7c-4.6,24.8-5.5,50.1-6.7,75.2c0,4.2,2.8,4.1,4.7,0.9c0.7-1,0.9-1.4,1.2-1.7
			c0,0,0,0,0.1-0.1c1.6,1.8,1.2,13.2,1,19.6c-0.5,12.5-0.1,25,0.4,37.5c0.2,4.7,0.4,9.4,0.7,14.1c-0.1,1.2,1.5,1.8,2.3,0.9
			c0.9-1.2,0.1-3,0.3-4.4c-0.2-4.2-0.4-8.4-0.6-12.6c-0.5-11.3-0.8-22.5-0.4-33.8c-0.1-7.2,1-14.6-0.8-21.6
			c-1.3-4.2-4.6-2.4-6.2,0.3c0-0.4,0-0.9,0-1.4c1.4-25,2.4-51.8,7.1-75.3c1.5-8.5,3.4-17.6,9.2-21c1.4-0.9,2-0.9,4-1.6
			c0.5-0.2,1-0.6,1.1-1.2C1309.3,710.9,1308.4,710.1,1307.5,710.4z"/>
		<path d="M1285.8,861.3c-0.8,6.4-1.3,12.9-1.8,19.4c0.1,1.2-0.6,2.7,0.2,3.8c3.6,2.2,2.4-6.7,3-8.7c0.3-5,1.1-10.1,1.3-15.1
			C1288,859.2,1285.8,859.9,1285.8,861.3z"/>
		<path d="M1170.3,1004.7c-0.5-2.8-0.4-9.7-4.7-7.2c-1.1-1.1-1.5-3.1-1.4-5.3c0.2-29.9,1.2-59.9,1.4-89.8
			c-0.1-5.6,0.2-11.2-0.1-16.7c-0.5-1.4-2.7-0.7-2.7,0.7c0.4,36.4-1.6,72.8-1.2,109.2c0.3,2.1,1.9,5.7,4.5,4.6
			c0.2-0.1,0.3-0.2,0.5-0.2c3.5,18.7,0.1,46-0.5,68c0,0.5,0.3,1.1,0.8,1.2c3.3,0.7,1.7-6,2.3-8
			C1169.8,1042.4,1172.2,1023.5,1170.3,1004.7z"/>
		<path d="M1153.1,1042.9c-0.9-0.9-2.4,0-2.4,1.1c0,12.3-1.3,24.9-0.5,37c0.9,0.9,2.4,0,2.4-1.1c0.2-11.6,0.5-23.3,0.8-34.9
			C1153.4,1044.3,1153.6,1043.5,1153.1,1042.9z"/>
		<path d="M1150.2,874c0.1-1.9-2.8-1.6-2.8,0.1c0.8,9.5,0.2,19.3,1.5,28.6c0.9,0.9,2.4,0,2.4-1.1
			C1151,892.5,1150.7,883.2,1150.2,874z"/>
		<path d="M1015.5,1019c0-9.3,0.1-18.6,0.4-27.9c0-0.5-0.3-1.1-0.8-1.2c-3-0.5-1.8,3.8-2.1,5.6c-0.2,10.6-0.3,21.1-0.2,31.7
			c-0.1,6.6,0.2,13.2-0.1,19.8c-1.3-3.3-3.5-6.4-7.3-4.8c-2.9,1.1-3.8,4.2-4.4,7c-1.4,5.9-2.3,11.7-3.2,16.8
			c-3.9,22-9,44.4-19.2,63.3c-4.5,7.9-9.1,16.1-15.5,20.4c-1.6,0.6-9.9,0-14,0.2c-1.3,0.4-1.2,2.8,0.4,2.6c4.7-0.1,9.6,0.8,14.2-0.2
			c5.7-2.8,9.1-8.8,12.6-13.8c9.2-14.4,15.1-30.7,19.2-47.3c3.8-14.8,5.7-34.1,9.5-45.4c2.4-3,4.6-0.1,6,4.5c0.4,1,0.4,2.2,1,3.2
			c0.7,1.2,2.3,0.5,2.8-0.5C1016.8,1042.2,1015,1030,1015.5,1019z"/>
		<path d="M999.6,988.4c-0.9-0.9-2.4,0-2.4,1.1c-1.1,6.9-2,13.9-2.2,21c-0.1,1.5,1.9,1.7,2.6,0.5c0.7-6.3,0.9-12.8,2-19
			C999.5,990.8,1000.4,989.4,999.6,988.4z"/>
		<path d="M846.7,1354.6c-1.3-1.1-2.3-3.2-4-3.6c-1.7,0.2-1.9,2.1-0.5,3c4.3,4.2,11,11.7,10.2,13.1c0,0.1-0.1,0.1-0.1,0.1
			c0,0,0,0,0,0c0,0,0,0,0,0c-0.7,0.3-1.4,0.3-2.8,0.4c-26.7-0.4-55.5,12-68,36.6c-5.6,12.4-4.9,28.5-9.3,39c-1.3,3-2.5,3.8-3.4,3.9
			c-4.3,0.5-10.2-0.2-14.2,1.2c-0.9,0.8-0.4,2.4,0.9,2.3c4.3-0.4,8.5-0.5,12.8-0.7c1.1-0.1,2.2-0.5,3.2-1.1
			c3.3-2.7,4.3-7.3,5.4-11.2c1.8-8.5,2.3-15.7,4.3-23.6c5.5-24.9,33.4-40.9,57.8-43c4.6-0.8,9.4-0.1,13.9-1
			C859.7,1366.4,849.5,1357.9,846.7,1354.6z"/>
		<path d="M862.3,1349.2c-1.2-1.2-3.3,0.8-2.1,2.1c3.1,3.7,6.2,7.5,9.3,11.2c0.9,0.9,2.4,0,2.4-1.1
			C869.5,1357,865.3,1353.4,862.3,1349.2z"/>
		<path d="M879.3,1333.1c-0.4-1.8-3.1-0.8-2.7,0.8c1.5,9.3,3.2,18.5,4.7,27.8c0.1,0.6,0.1,1.3,0.7,1.5c1,0.6,2.4-0.5,2.1-1.7
			C882.6,1352.1,880.9,1342.6,879.3,1333.1z"/>
		<path class="st3" d="M1100.3,1086.5c-0.6-1.1-2.3-0.6-2.6,0.5c-5.3,17-11.3,33.1-18.9,48.2c-0.3,1.5,1.9,2,2.5,0.7
			c6.7-13.2,12.1-27.1,16.7-41.2C1098.6,1092.3,1100.6,1088.7,1100.3,1086.5z"/>
		<path class="st3" d="M1097.8,1114.3c-1,2.3-2.4,5.1-3.8,8.2c-0.3,0.9,0.8,1.8,1.6,1.4c2.2-1.8,3.3-6.5,4.8-9.1
			C1101,1113.1,1098.2,1112.6,1097.8,1114.3z"/>
		<path class="st3" d="M1325.3,1147c-3.9-7.9-6.3-15.4-4.9-24.3c0.9-4.6,2.7-11.9,2.8-17.9c0.1-5.4-0.1-10.8-0.6-16.2
			c-0.5-1.4-2.7-0.7-2.7,0.7c0.6,8.6,0.9,19-0.8,26.3c-1,4.7-2.2,9.3-1.8,14.1c0.4,6.7,2.7,13.2,5.8,19.1
			C1324.2,1151.7,1327.2,1149.2,1325.3,1147z"/>
		<path class="st3" d="M1333.4,1134.1c-1.1-1.2-2.1-2.5-3.1-3.8c0.4,0.9-2.7-4.5-3.6-4.5c-1.1-0.3-2.2,1.1-1.7,2.1
			c2.2,3.2,4.3,6.4,7,9.1c0.4,0.4,1,0.5,1.5,0.2C1335.2,1136.5,1334.4,1134.9,1333.4,1134.1z"/>
		<path class="st3" d="M1324.8,885.8c0.1-1.9-2.8-1.6-2.8,0.1c0.2,4.8,0.3,9.5,0.4,14.3c-0.1,1.3,1.5,1.7,2.3,0.9
			C1325.9,896.9,1324.6,890.4,1324.8,885.8z"/>
		<path class="st3" d="M1333.1,872.1c0.4-2.2-2.6-2.3-2.8-0.3c0.1,4.5,0,9.1,0.3,13.6c0.1,0.3,0.4,0.6,0.7,0.7
			c0.9,0.4,1.9-0.4,2-1.4C1333.2,880.5,1333.2,876.3,1333.1,872.1z"/>
		<path class="st3" d="M1203.5,889.8c-0.3-1.6,0.2-3.6-0.6-5c-0.9-0.9-2.4,0-2.4,1.1c0.4,6,0.5,12,0.7,18c-0.1,0.9,0.8,1.5,1.7,1.2
			c0.6-0.2,1.1-0.8,1.1-1.4C1203.9,899.1,1203.7,894.4,1203.5,889.8z"/>
		<path class="st3" d="M1210.8,880.8c0-2.7,0.1-5.4,0.4-8.2c0-0.4-0.1-0.7-0.4-1c-0.9-0.9-2.4,0-2.4,1.1c-0.6,16-0.9,32.5,0.2,48.3
			c0.9,0.8,2.4,0,2.4-1.1C1210.9,907,1210.6,893.9,1210.8,880.8z"/>
		<path class="st3" d="M1105.5,902.1c0.1-1.9-2.8-1.5-2.8,0.1c0.1,3.6-0.2,7.3,0.1,10.9c0.1,0.3,0.4,0.6,0.7,0.7
			c0.9,0.4,1.9-0.4,2-1.4C1105.5,909,1105.5,905.5,1105.5,902.1z"/>
		<path class="st3" d="M1089.2,881.2c-0.1-2.8-0.1-5.5,0-8.3c0-0.4-0.1-0.7-0.4-1c-0.9-0.9-2.4,0-2.4,1.1c0.2,15.8,0.4,32,2.1,47.6
			c0.9,0.9,2.4,0,2.4-1.1C1090.1,906.7,1089.5,894,1089.2,881.2z"/>
		<path class="st3" d="M1494.6,771c-1.2-0.7-2.9-0.5-4.2-0.9c-4.3-0.9-8-1.7-10.4-3.7c-1.3-1-2.8-2.6-3.1-3.1
			c-0.3-0.4-0.6-1-1.2-1.1c-1.1-0.3-2.2,1.1-1.7,2.1c2.7,4.1,7.1,6.8,11.8,7.8c2.7,0.4,5.7,1.7,8.4,1.2
			C1494.9,772.7,1495.2,771.6,1494.6,771z"/>
		<path class="st3" d="M1495.8,762.6c-1.7-0.3-3.4-1.1-5.1-1.2c-1.4,0.1-1.8,2.4-0.3,2.7c2,0.5,4.1,1.4,6.2,1.5
			c0.4,0,0.7-0.3,0.9-0.6C1498.5,763.7,1497,762.7,1495.8,762.6z"/>
		<path class="st3" d="M1591.9,704.4c-8.4,1.6-19.8,2.1-27,1.5c-4.2-0.2-8.4-1.4-12.5-2c-1.4,0.1-1.8,2.4-0.3,2.7
			c9.2,2.4,18.8,2.6,28.2,2c4-0.2,8-0.8,12-1.5c0.8-0.2,1.7-0.1,2.1-0.9C1595.3,703.7,1592.4,704.2,1591.9,704.4z"/>
		<path class="st3" d="M1674.3,648.7c-4.3-0.3-12.5-1.3-18-2.5c-2.4-0.4-4.8-1.1-7.3-1.3c-0.4,0-0.7,0.3-0.9,0.6
			c-0.6,0.7-0.3,2,0.6,2.1c7.5,1.4,15,2.9,22.6,3.5c1.9-0.1,4.2,1,5.9-0.1C1678.7,648.8,1675.9,648.8,1674.3,648.7z"/>
		<path class="st3" d="M1582.8,697.3c-0.3-1.2-1.6-1-2.5-0.8c-1.4,0.3-3,0.2-4.4,0.6c-1.3,0.5-1.2,2.7,0.4,2.6
			c1.9-0.2,3.8-0.3,5.6-0.8C1582.6,698.8,1583,698,1582.8,697.3z"/>
		<path class="st3" d="M1682.5,639.8c-1.7-0.1-3.9-0.4-6.4-0.9c-1.6-0.1-3.9-1.6-5.3-1c-1,0.5-1,2.3,0.2,2.5c3.4,1.1,7,1.9,10.5,2.1
			c1.4,0.2,3.8,0.4,3.6-1.7C1684.8,639.7,1683.4,639.9,1682.5,639.8z"/>
		<path class="st3" d="M698.1,932.5c-0.4-0.1-2.3-0.9-2.5-1.2c-1-0.8-0.8-3.6-0.9-6.8c0.1-1.9-2.8-1.5-2.8,0.1c0.3,3-0.7,6.9,2,9
			c1.1,0.9,2.5,1.3,3.8,1.7c0.8,0.3,1.8,0.5,2.4-0.3C701.1,933.4,699.4,932.8,698.1,932.5z"/>
		<path class="st3" d="M699.3,922.4c-1.1,0-2,1.6-1.1,2.4c0.9,0.6,1.6,2,2.9,2.1c0.9,0,1.6-0.9,1.4-1.8
			C702.2,924.2,700.2,922.4,699.3,922.4z"/>
		<path class="st3" d="M644.3,999.4c-1.3-0.4-2.4-0.8-2.9-1.4c-0.7-0.4-0.5-2.4-0.5-5.1c0.1-1.9-2.8-1.5-2.8,0.1
			c0.2,2.3-0.5,5.2,1.2,7c1.5,1.4,3.7,1.9,5.6,2.5c0.5,0.1,1.2-0.1,1.5-0.6C647.5,1000.3,645.6,999.7,644.3,999.4z"/>
		<path class="st3" d="M648.2,992.1c-1-0.4-1.8-1.1-2.9-1.3c-1.4-0.2-2.3,1.9-1,2.6c1.5,0.5,3.8,2.6,5.3,1.6
			C651.1,993.8,649.6,992.6,648.2,992.1z"/>
		<path class="st3" d="M1471.8,1064.9c-0.6-1.1-2.3-0.6-2.6,0.5c-7.8,18.1-19.3,37.2-34.3,51.1c-9.1,9-19.3,15.1-27.7,23.8
			c-2.7,3.2-2,6-3.2,9.5c-2.1,6.1-10.7,12.5-17.2,14.9c-1.6,1.1-8,2.1-5.3,4.6c2.3,0.3,5.5-2.1,7.9-2.9c7.3-3.2,15.2-9.3,17.6-17.1
			c1-4.3,0.7-6.1,3.3-8.5c9.6-8.5,21.6-16.8,31.3-27c9.7-10.4,17.9-22.4,24.4-35.1c2.1-4.2,4.1-8.5,6-12.8
			C1472,1065.6,1472,1065.2,1471.8,1064.9z"/>
		<path class="st3" d="M1417,1153.6c-3.9,4.4-8.1,8.5-12.7,12.3c-0.6,0.5-1.4,0.9-1.5,1.8c0.8,3.8,4.9-1.7,6.4-2.6
			c3.4-3.4,7.6-6.6,10-10.6C1419.4,1153.2,1417.8,1152.7,1417,1153.6z"/>
		<path class="st3" d="M1519.7,1220c-6.6,15.2-15.3,29-25.8,40.7c-8.2,9.1-18,16.7-26.8,25.1c-2.1,1.8-2.8,7.2-3.3,8.2
			c-2.3,4.8-8.1,8.8-12.3,11.7c-1.2,0.8-4.1,1.5-2.7,3.4c1.5,1.1,3.3-0.9,4.7-1.5c4.8-3.7,10.4-7.3,12.9-13c0.6-1.1,1.5-5.4,1.5-5.2
			c1.3-2.6,3.5-4.3,6.3-6.6c19.7-16.1,36.7-35.8,46.8-59.4c0.4-1.1,1.3-2.1,1.2-3.3C1521.9,1219,1520.2,1219,1519.7,1220z"/>
		<path class="st3" d="M1481.5,1291.3c-1.6,2.1-3.4,4.1-5.3,6c-0.3,0.3-0.4,0.6-0.5,1c0.9,4.5,6.4-3.9,7.6-5.1
			C1484.7,1291.9,1482.8,1290,1481.5,1291.3z"/>
		<path class="st3" d="M1637.8,1039.4c-0.1-2.2,0.8-4.7,0-6.7c-0.9-0.8-2.4,0-2.4,1.1c-1.1,17.5-1.5,35.1-3.8,52.5
			c-1,6.7-2,13.7-3.2,19.3c-0.8,3.5-2.1,7-2.3,10.7c0.2,2.8,2.7,4.7,3.6,7.3c2.4,4.6,1.3,10.5,1.2,16.9c0.2,0.7,1,0.9,1.6,0.7
			c2-1,1-4.6,1.5-6.5c0.4-5.4-0.2-10.9-3.3-15.4c-2.5-3.4-1.8-3.9-0.8-8C1635.8,1087.7,1636.4,1063.4,1637.8,1039.4z"/>
		<path class="st3" d="M1643.5,1120.6c-1-3.8-2-7.5-3-11.2c-0.4-1.8-3.1-0.8-2.7,0.8c1.1,3.7,2.1,7.5,3,11.2c0.2,0.9,1.3,1.2,2,0.7
			C1643.3,1121.9,1643.7,1121.2,1643.5,1120.6z"/>
		<path class="st3" d="M1059.9,1374.4c-22.1,0.9-44.8-0.4-66.5,2.8c-0.9,0.8-0.4,2.4,0.9,2.3c21.1-2,42.3-1.8,63.4-2.3
			c1-0.1,2.3,0.3,3.1-0.5C1061.6,1375.9,1061.2,1374.3,1059.9,1374.4z"/>
		<path class="st3" d="M1040.5,1392c-4-0.3-8.1-0.9-12.2-1c-0.9,0.1-1.6,1.3-1.1,2.1c0.4,0.8,1.3,0.6,2.1,0.7
			c3.6,0.2,7.3,0.8,10.9,0.9C1041.5,1394.6,1042,1392.3,1040.5,1392z"/>
		<path class="st3" d="M1070.9,1174.5c-21.1,0.8-42.4,1.9-63,7.2c-1,0.4-2.4,0.3-3,1.2c-0.5,0.7-0.1,1.8,0.7,2
			c18.1-4.5,36.4-6.6,55.8-7.3c3.3-0.3,6.7-0.1,9.9-0.5c0.4-0.1,0.7-0.4,0.8-0.8C1072.5,1175.5,1071.8,1174.4,1070.9,1174.5z"/>
		<path class="st3" d="M1054.8,1192.8c-4.2,0.3-8.4,0.6-12.6,1c-0.9,0-1.6,0.9-1.4,1.8c0.1,0.6,0.7,1,1.3,1c4.2-0.4,8.4-0.7,12.6-1
			C1056.3,1195.6,1056.7,1192.8,1054.8,1192.8z"/>
	</g>
</g>
</svg>
