<?xml version="1.0" encoding="utf-8"?>
<!-- Generator: Adobe Illustrator 23.0.0, SVG Export Plug-In . SVG Version: 6.00 Build 0)  -->
<svg version="1.1" id="Layer_1" xmlns="http://www.w3.org/2000/svg" xmlns:xlink="http://www.w3.org/1999/xlink" x="0px" y="0px"
	 viewBox="0 0 1080 1080" style="enable-background:new 0 0 1080 1080;" xml:space="preserve">
<style type="text/css">
	.st0{fill:#FFBE55;}
	.st1{fill:#FFFFFF;}
	.st2{fill:#F0EDE6;}
	.st3{fill:#0B4870;}
	.st4{opacity:0.5;clip-path:url(#SVGID_2_);}
	.st5{fill:#D3D3D3;}
	.st6{opacity:0.4;fill:#2A94F4;}
	.st7{fill:none;stroke:#4D4D4D;stroke-miterlimit:10;}
</style>
<g>
	<g>
		<g>
			<g>
				<path class="st0" d="M573.1,680.5h-57.5c-15.6,0-28.4-12.8-28.4-28.4V471.9c0-15.6,12.8-28.4,28.4-28.4h57.5
					c15.6,0,28.4,12.8,28.4,28.4v180.2C601.5,667.7,588.7,680.5,573.1,680.5z"/>
				<g>
					<polygon class="st1" points="596.1,471.9 492.6,471.9 492.6,590.6 596.1,487.8 					"/>
					<polygon class="st1" points="492.6,590.6 492.6,652.3 596.1,652.3 596.1,487.8 					"/>
				</g>
			</g>
			<g>
				
					<ellipse transform="matrix(0.3827 -0.9239 0.9239 0.3827 -279.095 913.9402)" class="st2" cx="544.4" cy="665.8" rx="8.3" ry="8.3"/>
				<g>
					<g>
						<path class="st2" d="M553.4,459.6h-18.2c-0.4,0-0.8-0.3-0.8-0.8l0,0c0-0.4,0.3-0.8,0.8-0.8h18.2c0.4,0,0.8,0.3,0.8,0.8l0,0
							C554.2,459.3,553.9,459.6,553.4,459.6z"/>
						<path class="st2" d="M545.4,451.2c0-0.6-0.5-1.1-1.1-1.1c-0.6,0-1.1,0.5-1.1,1.1s0.5,1.1,1.1,1.1
							C545,452.2,545.4,451.8,545.4,451.2z"/>
					</g>
					<circle class="st2" cx="526.4" cy="458.8" r="2"/>
				</g>
			</g>
		</g>
	</g>
	<g>
		<path class="st3" d="M570.9,541c0,0.4,0,0.7,0,1c0,12.6,0,25.2,0,37.7c0,2.3-0.7,4.3-2.9,5.3c-0.8,0.4-1.8,0.5-2.7,0.6
			c-1.5,0.1-3,0.1-4.5,0c-0.6,0-0.8,0.2-0.8,0.8c0,4.1,0,8.2,0,12.2c0,3-1.5,5.1-4.1,5.9c-3.7,1.2-7.5-1.4-7.6-5.3
			c-0.1-3.1,0-6.3,0-9.4c0-1.2,0-2.5,0-3.7c0-0.2-0.2-0.6-0.4-0.6c-2.4,0-4.9,0-7.4,0c0,0.3,0,0.6,0,0.9c0,4.1,0,8.3,0,12.4
			c0,4.2-4,7-8,5.5c-2.2-0.8-3.6-2.5-3.7-4.8c-0.1-2.8-0.1-5.6-0.1-8.5c0-1.6,0-3.2,0-4.7c0-0.6-0.2-0.8-0.8-0.8
			c-1.8,0-3.7,0.1-5.5-0.1c-2.5-0.2-4.3-2.2-4.5-4.7c0-0.4-0.1-0.8-0.1-1.2c0-12.5,0-25,0-37.5c0-1.1,0-1.1,1-1.1c17,0,34,0,51,0
			C570.2,541,570.5,541,570.9,541z"/>
		<path class="st3" d="M571.1,538.7c-0.4,0-0.7,0-1,0c-17.1,0-34.3,0-51.4,0c-0.7,0-1-0.1-1-0.9c-0.1-5.9,2-10.9,6-15.1
			c1.9-2.1,4.2-3.7,6.7-5c0.2-0.1,0.5-0.3,0.8-0.4c-0.4-0.7-0.8-1.3-1.2-1.9c-1-1.6-2.1-3.2-3.1-4.8c-0.3-0.5-0.4-1,0.1-1.4
			c0.5-0.4,1-0.3,1.5,0.4c1.3,1.9,2.5,3.9,3.8,5.8c0.9,1.3,0.5,1.2,2,0.6c4.9-1.7,9.9-2.2,15-1.3c2,0.4,4,1,6,1.6
			c0.5,0.1,0.7,0.1,1-0.3c1.3-2,2.6-4,3.9-6c0.1-0.2,0.3-0.4,0.4-0.6c0.3-0.4,0.8-0.5,1.2-0.2c0.4,0.3,0.6,0.8,0.3,1.2
			c-0.5,0.8-1,1.6-1.6,2.5c-0.9,1.5-1.9,2.9-2.9,4.4C566.1,521.8,571.3,528.5,571.1,538.7z M532,529.5c1.4,0,2.5-1.2,2.5-2.5
			c0-1.4-1.2-2.5-2.5-2.5c-1.4,0-2.6,1.2-2.5,2.6C529.5,528.4,530.6,529.5,532,529.5z M559.2,527c0-1.4-1.1-2.5-2.5-2.5
			c-1.4,0-2.6,1.2-2.6,2.6c0,1.4,1.2,2.5,2.6,2.5C558.1,529.5,559.2,528.4,559.2,527z"/>
		<path class="st3" d="M515.1,558.4c0,4,0,8.1,0,12.1c0,4.3-3.8,7.1-7.9,5.7c-2.1-0.7-3.3-2.3-3.7-4.5c-0.1-0.4-0.1-0.9-0.1-1.3
			c0-8,0-16,0-24c0-2.4,0.9-4.2,3-5.4c3.9-2.2,8.6,0.5,8.7,5c0,1.9,0,3.9,0,5.9C515.1,554,515.1,556.2,515.1,558.4z"/>
		<path class="st3" d="M573.6,558.3c0-4.1,0-8.2,0-12.2c0-4.3,3.9-7,7.9-5.6c2.2,0.8,3.4,2.4,3.7,4.7c0.1,0.4,0.1,0.7,0.1,1.1
			c0,8,0,16,0,24c0,2.4-0.9,4.3-3,5.5c-3.9,2.1-8.5-0.5-8.7-4.9c-0.1-1.7,0-3.5,0-5.3C573.6,563.2,573.6,560.8,573.6,558.3z"/>
	</g>
	<g>
		<defs>
			<rect id="SVGID_1_" x="262.1" y="298.1" width="563.5" height="417.7"/>
		</defs>
		<clipPath id="SVGID_2_">
			<use xlink:href="#SVGID_1_"  style="overflow:visible;"/>
		</clipPath>
		<g class="st4">
			<g>
				<path class="st0" d="M436.9,438.3c-0.2,0-0.3,0-0.5-0.1c-18.5-12-17.6-23.3-17.5-24.3c0-5,4.2-9,9.4-9c3.8,0,7.1,2.2,8.5,5.3
					c1.5-3.1,4.8-5.3,8.5-5.3c5.2,0,9.4,4.1,9.4,9.1c0,0,0,0.1,0,0.1c0.2,2.2,0,12.8-17.5,24.2C437.2,438.3,437.1,438.3,436.9,438.3
					z M428.4,406.5c-4.2,0-7.7,3.3-7.7,7.4c0,0,0,0.1,0,0.1c0,0.1-1.3,10.8,16.2,22.4c16.3-10.8,16.4-20.5,16.2-22.4
					c0,0,0-0.1,0-0.1c0,0,0-0.1,0-0.1c0-4.1-3.5-7.4-7.7-7.4s-7.7,3.3-7.7,7.4c0,0.5-0.4,0.8-0.8,0.8c-0.5,0-0.8-0.4-0.8-0.8
					C436.1,409.8,432.6,406.5,428.4,406.5z"/>
			</g>
			<g>
				<g>
					<path class="st0" d="M672,490c-9.8,0-17.8-8-17.8-17.8s8-17.8,17.8-17.8c9.8,0,17.8,8,17.8,17.8S681.8,490,672,490z M672,456
						c-8.9,0-16.1,7.2-16.1,16.1s7.2,16.1,16.1,16.1s16.1-7.2,16.1-16.1S680.9,456,672,456z"/>
				</g>
				<g>
					<path class="st0" d="M672,473h-9.5c-0.5,0-0.8-0.4-0.8-0.8s0.4-0.8,0.8-0.8h8.7v-11c0-0.5,0.4-0.8,0.8-0.8s0.8,0.4,0.8,0.8
						v11.8C672.8,472.6,672.4,473,672,473z"/>
				</g>
			</g>
			<g>
				<g>
					<path class="st0" d="M691.6,539.2h-44.4c-0.5,0-0.8-0.4-0.8-0.8v-30.9c0-0.5,0.4-0.8,0.8-0.8h44.4c0.5,0,0.8,0.4,0.8,0.8v30.9
						C692.5,538.8,692.1,539.2,691.6,539.2z M648.1,537.5h42.7v-29.2h-42.7V537.5z"/>
				</g>
				<g>
					<g>
						<path class="st0" d="M669.4,526c-1.4,0-2.8-0.5-3.9-1.5L646.7,508c-0.4-0.3-0.4-0.8-0.1-1.2c0.3-0.4,0.8-0.4,1.2-0.1
							l18.8,16.4c1.6,1.4,4,1.4,5.6,0l18.8-16.4c0.4-0.3,0.9-0.3,1.2,0.1c0.3,0.4,0.3,0.9-0.1,1.2l-18.8,16.4
							C672.2,525.5,670.8,526,669.4,526z"/>
					</g>
					<g>
						<g>
							<path class="st0" d="M691.6,539.2c-0.2,0-0.4-0.1-0.6-0.2l-17.5-15.2c-0.4-0.3-0.4-0.8-0.1-1.2c0.3-0.4,0.8-0.4,1.2-0.1
								l17.5,15.2c0.4,0.3,0.4,0.8,0.1,1.2C692.1,539.1,691.9,539.2,691.6,539.2z"/>
						</g>
						<g>
							<path class="st0" d="M647.2,539.2c-0.2,0-0.5-0.1-0.6-0.3c-0.3-0.4-0.3-0.9,0.1-1.2l17.5-15.2c0.4-0.3,0.9-0.3,1.2,0.1
								c0.3,0.4,0.3,0.9-0.1,1.2L647.8,539C647.6,539.1,647.4,539.2,647.2,539.2z"/>
						</g>
					</g>
				</g>
			</g>
			<g>
				<path class="st0" d="M676,593.2c-0.2,0-0.3-0.1-0.5-0.2l-11.2-8.1l-11.2,8.1c-0.3,0.2-0.7,0.2-1,0c-0.3-0.2-0.4-0.6-0.3-0.9
					l4.3-13.2l-11.2-8.1c-0.3-0.2-0.4-0.6-0.3-0.9s0.4-0.6,0.8-0.6h13.8l4.3-13.2c0.1-0.3,0.4-0.6,0.8-0.6l0,0
					c0.4,0,0.7,0.2,0.8,0.6l4.3,13.2h13.8c0.4,0,0.7,0.2,0.8,0.6s0,0.7-0.3,0.9l-11.2,8.1l4.3,13.2c0.1,0.3,0,0.7-0.3,0.9
					C676.3,593.1,676.2,593.2,676,593.2z M664.3,583c0.2,0,0.3,0.1,0.5,0.2l9.6,7l-3.7-11.3c-0.1-0.3,0-0.7,0.3-0.9l9.6-7h-11.8
					c-0.4,0-0.7-0.2-0.8-0.6l-3.7-11.3l-3.7,11.3c-0.1,0.3-0.4,0.6-0.8,0.6H648l9.6,7c0.3,0.2,0.4,0.6,0.3,0.9l-3.7,11.3l9.6-7
					C664,583,664.1,583,664.3,583z"/>
			</g>
			<g>
				<g>
					<path class="st0" d="M395.8,520.9h-41.7c-2.6,0-4.7-2.1-4.7-4.7v-22.9c0-2.6,2.1-4.7,4.7-4.7h41.7c2.6,0,4.7,2.1,4.7,4.7v22.9
						C400.5,518.8,398.4,520.9,395.8,520.9z M354.1,490.4c-1.6,0-3,1.3-3,3v22.9c0,1.6,1.3,3,3,3h41.7c1.6,0,3-1.3,3-3v-22.9
						c0-1.6-1.3-3-3-3H354.1z"/>
				</g>
				<g>
					<path class="st0" d="M374.9,516.2c-6.3,0-11.4-5.1-11.4-11.4s5.1-11.4,11.4-11.4c6.3,0,11.4,5.1,11.4,11.4
						S381.2,516.2,374.9,516.2z M374.9,495.1c-5.3,0-9.7,4.3-9.7,9.7c0,5.3,4.3,9.7,9.7,9.7s9.7-4.3,9.7-9.7
						C384.6,499.5,380.3,495.1,374.9,495.1z"/>
				</g>
				<g>
					<path class="st0" d="M387.3,490.4h-23.7c-0.3,0-0.6-0.2-0.8-0.5c-0.1-0.3-0.1-0.7,0.2-0.9l5.3-5.5c0.2-0.2,0.4-0.3,0.6-0.3
						h13.3c0.2,0,0.5,0.1,0.6,0.3l5.1,5.5c0.2,0.2,0.3,0.6,0.2,0.9C387.9,490.2,387.6,490.4,387.3,490.4z M365.6,488.7h19.7
						l-3.5-3.8h-12.6L365.6,488.7z"/>
				</g>
				<g>
					<path class="st0" d="M360.8,490.4h-5.3c-0.5,0-0.8-0.4-0.8-0.8v-4c0-0.5,0.4-0.8,0.8-0.8h5.3c0.5,0,0.8,0.4,0.8,0.8v4
						C361.6,490,361.3,490.4,360.8,490.4z M356.4,488.7h3.6v-2.4h-3.6V488.7z"/>
				</g>
			</g>
			<g>
				<g>
					<path class="st0" d="M736.6,753.2c-0.2,0-0.4-0.1-0.5-0.2l-8.3-6.7h-7.2c-0.5,0-0.8-0.4-0.8-0.8v-10.5c0-0.2,0.1-0.4,0.2-0.6
						c0.2-0.2,0.4-0.2,0.6-0.2c0,0,0,0,0,0l7.7,0l7.8-6.7c0.3-0.2,0.6-0.3,0.9-0.1c0.3,0.1,0.5,0.4,0.5,0.8v24.3
						c0,0.3-0.2,0.6-0.5,0.8C736.9,753.1,736.8,753.2,736.6,753.2z M721.4,744.6h6.7c0.2,0,0.4,0.1,0.5,0.2l7.2,5.8v-20.7l-6.6,5.7
						c-0.2,0.1-0.3,0.2-0.6,0.2h0l-7.2,0V744.6z"/>
				</g>
				<g>
					<g>
						<path class="st0" d="M744.3,748.1c-0.2,0-0.4-0.1-0.5-0.2c-0.4-0.3-0.4-0.8-0.1-1.2c5.1-6.4,0.2-12.8,0-13.1
							c-0.3-0.4-0.2-0.9,0.1-1.2s0.9-0.2,1.2,0.1c0.1,0.1,5.9,7.7,0,15.2C744.8,748,744.5,748.1,744.3,748.1z"/>
					</g>
					<g>
						<path class="st0" d="M751,751.4c-0.2,0-0.3-0.1-0.5-0.2c-0.4-0.3-0.5-0.8-0.2-1.2c7.1-9.7,0.3-19.3,0-19.7
							c-0.3-0.4-0.2-0.9,0.2-1.2c0.4-0.3,0.9-0.2,1.2,0.2c0.1,0.1,7.8,11,0,21.7C751.5,751.2,751.3,751.4,751,751.4z"/>
					</g>
					<g>
						<path class="st0" d="M757,756.6c-0.2,0-0.3-0.1-0.5-0.2c-0.4-0.3-0.5-0.8-0.2-1.2c10.6-14.9,0.1-30,0-30.2
							c-0.3-0.4-0.2-0.9,0.2-1.2c0.4-0.3,0.9-0.2,1.2,0.2c0.1,0.2,11.3,16.3,0,32.2C757.6,756.5,757.3,756.6,757,756.6z"/>
					</g>
				</g>
			</g>
			<g>
				<path class="st0" d="M471.1,403.2c-0.1,0-0.2,0-0.3-0.1c-0.3-0.1-0.5-0.4-0.5-0.8v-14l-7.1,6.4c-0.3,0.3-0.9,0.3-1.2-0.1
					c-0.3-0.3-0.3-0.9,0.1-1.2l8.3-7.5v-0.7l-8.3-7.7c-0.3-0.3-0.4-0.9,0-1.2c0.3-0.3,0.9-0.4,1.2,0l7.1,6.6v-12.5
					c0-0.3,0.2-0.6,0.5-0.8c0.3-0.1,0.7-0.1,0.9,0.2l8.5,8.1c0.2,0.2,0.3,0.4,0.3,0.6c0,0.2-0.1,0.5-0.3,0.6l-7.1,6.4l7.1,6.6
					c0.3,0.3,0.4,0.8,0,1.2l-8.5,9.4C471.6,403.1,471.4,403.2,471.1,403.2z M472,387v13.2l6.5-7.1L472,387z M472,372.6v12l6.5-5.8
					L472,372.6z"/>
			</g>
			<g>
				<g>
					<path class="st0" d="M546.1,419.4c-0.2,0-0.4-0.1-0.6-0.2l-6.5-6.5c-0.3-0.3-0.3-0.9,0-1.2c1.9-1.9,4.4-2.9,7.1-2.9
						c2.7,0,5.2,1,7.1,2.9c0.3,0.3,0.3,0.9,0,1.2l-6.5,6.5C546.5,419.4,546.3,419.4,546.1,419.4z M540.8,412.1l5.3,5.3l5.3-5.3
						c-1.5-1.2-3.3-1.9-5.3-1.9C544.1,410.2,542.3,410.9,540.8,412.1z"/>
				</g>
				<g>
					<path class="st0" d="M556.9,408.6c-0.2,0-0.4-0.1-0.6-0.2c-2.7-2.7-6.4-4.3-10.3-4.3c-3.9,0-7.5,1.5-10.3,4.3
						c-0.3,0.3-0.9,0.3-1.2,0l-4.3-4.3c-0.3-0.3-0.3-0.9,0-1.2c4.2-4.2,9.8-6.5,15.8-6.5c6,0,11.6,2.3,15.8,6.5
						c0.3,0.3,0.3,0.9,0,1.2l-4.3,4.3C557.4,408.5,557.2,408.6,556.9,408.6z M546.1,402.4c4,0,7.9,1.5,10.8,4.2l3.1-3.1
						c-3.8-3.5-8.8-5.5-14-5.5s-10.2,1.9-14,5.5l3.1,3.1C538.2,403.9,542.1,402.4,546.1,402.4z"/>
				</g>
				<g>
					<path class="st0" d="M565.3,400.3c-0.2,0-0.4-0.1-0.6-0.2c-5-5-11.6-7.7-18.6-7.7c-7,0-13.6,2.7-18.6,7.7
						c-0.3,0.3-0.9,0.3-1.2,0l-4.3-4.3c-0.2-0.2-0.2-0.4-0.2-0.6c0-0.2,0.1-0.4,0.2-0.6c6.4-6.4,15-10,24.1-10
						c9.1,0,17.7,3.6,24.1,10c0.3,0.3,0.3,0.9,0,1.2l-4.3,4.3C565.7,400.2,565.5,400.3,565.3,400.3z M523.8,395.1l3.1,3.1
						c5.2-4.9,12-7.6,19.2-7.6s13.9,2.7,19.2,7.6l3.1-3.1c-6.1-5.8-13.9-8.9-22.3-8.9S529.8,389.3,523.8,395.1z"/>
				</g>
			</g>
			<g>
				<g>
					<path class="st0" d="M439.2,653.9h-32.6c-2.5,0-4.5-2-4.5-4.5v-47.3c0-2.5,2-4.5,4.5-4.5h32.6c2.5,0,4.5,2,4.5,4.5v47.3
						C443.7,651.9,441.7,653.9,439.2,653.9z M406.6,599.2c-1.6,0-2.8,1.3-2.8,2.8v47.3c0,1.6,1.3,2.8,2.8,2.8h32.6
						c1.6,0,2.8-1.3,2.8-2.8v-47.3c0-1.6-1.3-2.8-2.8-2.8H406.6z"/>
				</g>
				<g>
					<g>
						<path class="st0" d="M437.7,613h-29.7c-0.5,0-0.8-0.4-0.8-0.8v-6.9c0-0.5,0.4-0.8,0.8-0.8h29.7c0.5,0,0.8,0.4,0.8,0.8v6.9
							C438.6,612.6,438.2,613,437.7,613z M408.9,611.3h28v-5.2h-28V611.3z"/>
					</g>
					<g>
						<g>
							<path class="st0" d="M415.8,626h-7.7c-0.5,0-0.8-0.4-0.8-0.8v-7.7c0-0.5,0.4-0.8,0.8-0.8h7.7c0.5,0,0.8,0.4,0.8,0.8v7.7
								C416.6,625.7,416.3,626,415.8,626z M408.9,624.3h6v-6h-6V624.3z"/>
						</g>
						<g>
							<path class="st0" d="M426.8,626H419c-0.5,0-0.8-0.4-0.8-0.8v-7.7c0-0.5,0.4-0.8,0.8-0.8h7.7c0.5,0,0.8,0.4,0.8,0.8v7.7
								C427.6,625.7,427.2,626,426.8,626z M419.9,624.3h6v-6h-6V624.3z"/>
						</g>
						<g>
							<path class="st0" d="M415.8,637.1h-7.7c-0.5,0-0.8-0.4-0.8-0.8v-7.7c0-0.5,0.4-0.8,0.8-0.8h7.7c0.5,0,0.8,0.4,0.8,0.8v7.7
								C416.6,636.7,416.3,637.1,415.8,637.1z M408.9,635.4h6v-6h-6V635.4z"/>
						</g>
						<g>
							<path class="st0" d="M426.8,637.1H419c-0.5,0-0.8-0.4-0.8-0.8v-7.7c0-0.5,0.4-0.8,0.8-0.8h7.7c0.5,0,0.8,0.4,0.8,0.8v7.7
								C427.6,636.7,427.2,637.1,426.8,637.1z M419.9,635.4h6v-6h-6V635.4z"/>
						</g>
						<g>
							<path class="st0" d="M415.8,648.4h-7.7c-0.5,0-0.8-0.4-0.8-0.8v-7.7c0-0.5,0.4-0.8,0.8-0.8h7.7c0.5,0,0.8,0.4,0.8,0.8v7.7
								C416.6,648,416.3,648.4,415.8,648.4z M408.9,646.7h6v-6h-6V646.7z"/>
						</g>
						<g>
							<path class="st0" d="M426.8,648.4H419c-0.5,0-0.8-0.4-0.8-0.8v-7.7c0-0.5,0.4-0.8,0.8-0.8h7.7c0.5,0,0.8,0.4,0.8,0.8v7.7
								C427.6,648,427.2,648.4,426.8,648.4z M419.9,646.7h6v-6h-6V646.7z"/>
						</g>
						<g>
							<path class="st0" d="M437.7,626H430c-0.5,0-0.8-0.4-0.8-0.8v-7.7c0-0.5,0.4-0.8,0.8-0.8h7.7c0.5,0,0.8,0.4,0.8,0.8v7.7
								C438.6,625.7,438.2,626,437.7,626z M430.9,624.3h6v-6h-6V624.3z"/>
						</g>
						<g>
							<path class="st0" d="M437.9,648.4h-8c-0.5,0-0.8-0.4-0.8-0.8v-19c0-0.5,0.4-0.8,0.8-0.8h8c0.5,0,0.8,0.4,0.8,0.8v19
								C438.7,648,438.3,648.4,437.9,648.4z M430.7,646.7h6.3v-17.3h-6.3V646.7z"/>
						</g>
					</g>
				</g>
			</g>
			<g>
				<g>
					<g>
						<path class="st0" d="M439.5,524.7c0,0-0.1,0-0.1,0c-0.5-0.1-0.8-0.5-0.7-0.9c0-0.1,1-8.5-2.7-12.8c-1.4-1.6-3.4-2.4-5.9-2.4
							c-2.7,0-4.9,0.9-6.4,2.6c-3.8,4.3-2.7,12.5-2.7,12.6c0.1,0.5-0.3,0.9-0.7,1c-0.5,0.1-0.9-0.3-1-0.7c0-0.4-1.2-9,3.1-13.9
							c1.9-2.1,4.4-3.2,7.7-3.2c3,0,5.4,1,7.2,3c4.3,4.8,3.2,13.7,3.1,14.1C440.2,524.4,439.9,524.7,439.5,524.7z"/>
					</g>
					<g>
						<path class="st0" d="M445.3,546.4h-30.9c-0.5,0-0.8-0.4-0.8-0.8v-23.3c0-0.5,0.4-0.8,0.8-0.8h30.9c0.5,0,0.8,0.4,0.8,0.8v23.3
							C446.1,546,445.7,546.4,445.3,546.4z M415.2,544.7h29.2V523h-29.2V544.7z"/>
					</g>
				</g>
				<g>
					<path class="st0" d="M429.8,541.7c-1.2,0-2.2-1-2.2-2.2v-5.4c0,0,0,0,0,0c-1.3-0.8-2.1-2.2-2.1-3.7c0-2.4,1.9-4.3,4.3-4.3
						c2.4,0,4.3,1.9,4.3,4.3c0,1.5-0.8,2.9-2.1,3.7c0,0,0,0,0,0v5.4C432,540.7,431,541.7,429.8,541.7z M429.8,527.7
						c-1.5,0-2.7,1.2-2.7,2.6c0,1.1,0.7,2.1,1.7,2.5c0.4,0.2,0.6,0.7,0.5,1.1c0,0.1,0,0.1,0,0.2v5.4c0,0.3,0.2,0.5,0.5,0.5
						c0.3,0,0.5-0.2,0.5-0.5v-5.4c0-0.1,0-0.1,0-0.2c-0.2-0.4,0.1-0.9,0.5-1.1c1-0.4,1.7-1.4,1.7-2.5
						C432.4,528.9,431.2,527.7,429.8,527.7z"/>
				</g>
			</g>
			<g>
				<g>
					<g>
						<path class="st0" d="M721.3,589.6c-13,0-23.6-10.6-23.6-23.6s10.6-23.6,23.6-23.6s23.6,10.6,23.6,23.6
							S734.3,589.6,721.3,589.6z M721.3,544.1c-12.1,0-21.9,9.8-21.9,21.9c0,12.1,9.8,21.9,21.9,21.9c12.1,0,21.9-9.8,21.9-21.9
							C743.2,553.9,733.3,544.1,721.3,544.1z"/>
					</g>
					<g>
						<g>
							<path class="st0" d="M721.3,549c-0.5,0-0.8-0.4-0.8-0.8v-2c0-0.5,0.4-0.8,0.8-0.8s0.8,0.4,0.8,0.8v2
								C722.1,548.7,721.8,549,721.3,549z"/>
						</g>
						<g>
							<path class="st0" d="M718.2,549.3c-0.4,0-0.8-0.3-0.8-0.7l-0.3-2c-0.1-0.5,0.2-0.9,0.7-1c0.5-0.1,0.9,0.2,1,0.7l0.3,2
								c0.1,0.5-0.2,0.9-0.7,1C718.3,549.3,718.3,549.3,718.2,549.3z"/>
						</g>
						<g>
							<path class="st0" d="M715.2,550.1c-0.3,0-0.7-0.2-0.8-0.6l-0.7-1.9c-0.2-0.4,0.1-0.9,0.5-1.1c0.4-0.2,0.9,0.1,1.1,0.5
								l0.7,1.9c0.2,0.4-0.1,0.9-0.5,1.1C715.4,550.1,715.3,550.1,715.2,550.1z"/>
						</g>
						<g>
							<path class="st0" d="M712.4,551.5c-0.3,0-0.6-0.2-0.7-0.4l-1-1.7c-0.2-0.4-0.1-0.9,0.3-1.2c0.4-0.2,0.9-0.1,1.2,0.3l1,1.7
								c0.2,0.4,0.1,0.9-0.3,1.2C712.7,551.4,712.6,551.5,712.4,551.5z"/>
						</g>
						<g>
							<path class="st0" d="M709.9,553.2c-0.2,0-0.5-0.1-0.6-0.3l-1.3-1.5c-0.3-0.4-0.3-0.9,0.1-1.2c0.4-0.3,0.9-0.3,1.2,0.1
								l1.3,1.5c0.3,0.4,0.3,0.9-0.1,1.2C710.3,553.2,710.1,553.2,709.9,553.2z"/>
						</g>
						<g>
							<path class="st0" d="M707.7,555.4c-0.2,0-0.4-0.1-0.5-0.2l-1.5-1.3c-0.4-0.3-0.4-0.8-0.1-1.2c0.3-0.4,0.8-0.4,1.2-0.1
								l1.5,1.3c0.4,0.3,0.4,0.8,0.1,1.2C708.2,555.3,708,555.4,707.7,555.4z"/>
						</g>
						<g>
							<path class="st0" d="M706,558c-0.1,0-0.3,0-0.4-0.1l-1.7-1c-0.4-0.2-0.5-0.8-0.3-1.2c0.2-0.4,0.8-0.5,1.2-0.3l1.7,1
								c0.4,0.2,0.5,0.8,0.3,1.2C706.5,557.8,706.3,558,706,558z"/>
						</g>
						<g>
							<path class="st0" d="M704.7,560.8c-0.1,0-0.2,0-0.3-0.1l-1.9-0.7c-0.4-0.2-0.7-0.6-0.5-1.1c0.2-0.4,0.6-0.7,1.1-0.5l1.9,0.7
								c0.4,0.2,0.7,0.6,0.5,1.1C705.3,560.6,705,560.8,704.7,560.8z"/>
						</g>
						<g>
							<path class="st0" d="M703.9,563.8c0,0-0.1,0-0.1,0l-2-0.3c-0.5-0.1-0.8-0.5-0.7-1c0.1-0.5,0.5-0.8,1-0.7l2,0.3
								c0.5,0.1,0.8,0.5,0.7,1C704.6,563.5,704.3,563.8,703.9,563.8z"/>
						</g>
						<g>
							<path class="st0" d="M703.6,566.9h-2c-0.5,0-0.8-0.4-0.8-0.8s0.4-0.8,0.8-0.8h2c0.5,0,0.8,0.4,0.8,0.8
								S704.1,566.9,703.6,566.9z"/>
						</g>
						<g>
							<path class="st0" d="M701.9,570.3c-0.4,0-0.8-0.3-0.8-0.7c-0.1-0.5,0.2-0.9,0.7-1l2-0.3c0.5-0.1,0.9,0.2,1,0.7
								c0.1,0.5-0.2,0.9-0.7,1l-2,0.3C702,570.3,702,570.3,701.9,570.3z"/>
						</g>
						<g>
							<path class="st0" d="M702.8,573.6c-0.3,0-0.7-0.2-0.8-0.6c-0.2-0.4,0.1-0.9,0.5-1.1l1.9-0.7c0.4-0.2,0.9,0.1,1.1,0.5
								c0.2,0.4-0.1,0.9-0.5,1.1l-1.9,0.7C703,573.6,702.9,573.6,702.8,573.6z"/>
						</g>
						<g>
							<path class="st0" d="M704.3,576.7c-0.3,0-0.6-0.2-0.7-0.4c-0.2-0.4-0.1-0.9,0.3-1.2l1.7-1c0.4-0.2,0.9-0.1,1.2,0.3
								c0.2,0.4,0.1,0.9-0.3,1.2l-1.7,1C704.6,576.7,704.5,576.7,704.3,576.7z"/>
						</g>
						<g>
							<path class="st0" d="M706.3,579.5c-0.2,0-0.5-0.1-0.6-0.3c-0.3-0.4-0.3-0.9,0.1-1.2l1.5-1.3c0.4-0.3,0.9-0.3,1.2,0.1
								c0.3,0.4,0.3,0.9-0.1,1.2l-1.5,1.3C706.7,579.4,706.5,579.5,706.3,579.5z"/>
						</g>
						<g>
							<path class="st0" d="M708.7,581.9c-0.2,0-0.4-0.1-0.5-0.2c-0.4-0.3-0.4-0.8-0.1-1.2l1.3-1.5c0.3-0.4,0.8-0.4,1.2-0.1
								s0.4,0.8,0.1,1.2l-1.3,1.5C709.2,581.8,709,581.9,708.7,581.9z"/>
						</g>
						<g>
							<path class="st0" d="M711.6,583.9c-0.1,0-0.3,0-0.4-0.1c-0.4-0.2-0.5-0.8-0.3-1.2l1-1.7c0.2-0.4,0.8-0.5,1.2-0.3
								c0.4,0.2,0.5,0.8,0.3,1.2l-1,1.7C712.1,583.7,711.9,583.9,711.6,583.9z"/>
						</g>
						<g>
							<path class="st0" d="M714.7,585.3c-0.1,0-0.2,0-0.3-0.1c-0.4-0.2-0.7-0.6-0.5-1.1l0.7-1.9c0.2-0.4,0.6-0.7,1.1-0.5
								c0.4,0.2,0.7,0.6,0.5,1.1l-0.7,1.9C715.4,585.1,715,585.3,714.7,585.3z"/>
						</g>
						<g>
							<path class="st0" d="M718,586.2c0,0-0.1,0-0.1,0c-0.5-0.1-0.8-0.5-0.7-1l0.3-2c0.1-0.5,0.5-0.8,1-0.7c0.5,0.1,0.8,0.5,0.7,1
								l-0.3,2C718.8,585.9,718.4,586.2,718,586.2z"/>
						</g>
						<g>
							<path class="st0" d="M721.4,586.5c-0.5,0-0.8-0.4-0.8-0.8v-2c0-0.5,0.4-0.8,0.8-0.8c0.5,0,0.8,0.4,0.8,0.8v2
								C722.3,586.1,721.9,586.5,721.4,586.5z"/>
						</g>
						<g>
							<path class="st0" d="M724.9,586.2c-0.4,0-0.8-0.3-0.8-0.7l-0.3-2c-0.1-0.5,0.2-0.9,0.7-1c0.5-0.1,0.9,0.2,1,0.7l0.3,2
								c0.1,0.5-0.2,0.9-0.7,1C725,586.2,724.9,586.2,724.9,586.2z"/>
						</g>
						<g>
							<path class="st0" d="M728.2,585.3c-0.3,0-0.7-0.2-0.8-0.6l-0.7-1.9c-0.2-0.4,0.1-0.9,0.5-1.1c0.4-0.2,0.9,0.1,1.1,0.5
								l0.7,1.9c0.2,0.4-0.1,0.9-0.5,1.1C728.4,585.3,728.3,585.3,728.2,585.3z"/>
						</g>
						<g>
							<path class="st0" d="M731.3,583.8c-0.3,0-0.6-0.2-0.7-0.4l-1-1.7c-0.2-0.4-0.1-0.9,0.3-1.2c0.4-0.2,0.9-0.1,1.2,0.3l1,1.7
								c0.2,0.4,0.1,0.9-0.3,1.2C731.6,583.8,731.4,583.8,731.3,583.8z"/>
						</g>
						<g>
							<path class="st0" d="M734.1,581.8c-0.2,0-0.5-0.1-0.6-0.3l-1.3-1.5c-0.3-0.4-0.3-0.9,0.1-1.2c0.4-0.3,0.9-0.3,1.2,0.1
								l1.3,1.5c0.3,0.4,0.3,0.9-0.1,1.2C734.5,581.8,734.3,581.8,734.1,581.8z"/>
						</g>
						<g>
							<path class="st0" d="M736.5,579.4c-0.2,0-0.4-0.1-0.5-0.2l-1.5-1.3c-0.4-0.3-0.4-0.8-0.1-1.2c0.3-0.4,0.8-0.4,1.2-0.1
								l1.5,1.3c0.4,0.3,0.4,0.8,0.1,1.2C737,579.3,736.8,579.4,736.5,579.4z"/>
						</g>
						<g>
							<path class="st0" d="M738.5,576.6c-0.1,0-0.3,0-0.4-0.1l-1.7-1c-0.4-0.2-0.5-0.8-0.3-1.2c0.2-0.4,0.8-0.5,1.2-0.3l1.7,1
								c0.4,0.2,0.5,0.8,0.3,1.2C739.1,576.4,738.8,576.6,738.5,576.6z"/>
						</g>
						<g>
							<path class="st0" d="M739.9,573.4c-0.1,0-0.2,0-0.3-0.1l-1.9-0.7c-0.4-0.2-0.7-0.6-0.5-1.1c0.2-0.4,0.6-0.7,1.1-0.5l1.9,0.7
								c0.4,0.2,0.7,0.6,0.5,1.1C740.6,573.2,740.3,573.4,739.9,573.4z"/>
						</g>
						<g>
							<path class="st0" d="M740.8,570.1c0,0-0.1,0-0.1,0l-2-0.3c-0.5-0.1-0.8-0.5-0.7-1c0.1-0.5,0.5-0.8,1-0.7l2,0.3
								c0.5,0.1,0.8,0.5,0.7,1C741.6,569.8,741.2,570.1,740.8,570.1z"/>
						</g>
						<g>
							<path class="st0" d="M741.1,566.7h-2c-0.5,0-0.8-0.4-0.8-0.8s0.4-0.8,0.8-0.8h2c0.5,0,0.8,0.4,0.8,0.8
								S741.6,566.7,741.1,566.7z"/>
						</g>
						<g>
							<path class="st0" d="M738.8,563.6c-0.4,0-0.8-0.3-0.8-0.7c-0.1-0.5,0.2-0.9,0.7-1l2-0.3c0.5-0.1,0.9,0.2,1,0.7
								c0.1,0.5-0.2,0.9-0.7,1l-2,0.3C738.9,563.6,738.9,563.6,738.8,563.6z"/>
						</g>
						<g>
							<path class="st0" d="M738,560.6c-0.3,0-0.7-0.2-0.8-0.6c-0.2-0.4,0.1-0.9,0.5-1.1l1.9-0.7c0.4-0.2,0.9,0.1,1.1,0.5
								c0.2,0.4-0.1,0.9-0.5,1.1l-1.9,0.7C738.2,560.6,738.1,560.6,738,560.6z"/>
						</g>
						<g>
							<path class="st0" d="M736.7,557.8c-0.3,0-0.6-0.2-0.7-0.4c-0.2-0.4-0.1-0.9,0.3-1.2l1.7-1c0.4-0.2,0.9-0.1,1.2,0.3
								c0.2,0.4,0.1,0.9-0.3,1.2l-1.7,1C737,557.8,736.8,557.8,736.7,557.8z"/>
						</g>
						<g>
							<path class="st0" d="M734.9,555.3c-0.2,0-0.5-0.1-0.6-0.3c-0.3-0.4-0.3-0.9,0.1-1.2l1.5-1.3c0.4-0.3,0.9-0.3,1.2,0.1
								c0.3,0.4,0.3,0.9-0.1,1.2l-1.5,1.3C735.3,555.2,735.1,555.3,734.9,555.3z"/>
						</g>
						<g>
							<path class="st0" d="M732.7,553.1c-0.2,0-0.4-0.1-0.5-0.2c-0.4-0.3-0.4-0.8-0.1-1.2l1.3-1.5c0.3-0.4,0.8-0.4,1.2-0.1
								c0.4,0.3,0.4,0.8,0.1,1.2l-1.3,1.5C733.2,553,732.9,553.1,732.7,553.1z"/>
						</g>
						<g>
							<path class="st0" d="M730.2,551.4c-0.1,0-0.3,0-0.4-0.1c-0.4-0.2-0.5-0.8-0.3-1.2l1-1.7c0.2-0.4,0.8-0.5,1.2-0.3
								c0.4,0.2,0.5,0.8,0.3,1.2l-1,1.7C730.7,551.2,730.5,551.4,730.2,551.4z"/>
						</g>
						<g>
							<path class="st0" d="M727.4,550.1c-0.1,0-0.2,0-0.3-0.1c-0.4-0.2-0.7-0.6-0.5-1.1l0.7-1.9c0.2-0.4,0.6-0.7,1.1-0.5
								c0.4,0.2,0.7,0.6,0.5,1.1l-0.7,1.9C728,549.9,727.7,550.1,727.4,550.1z"/>
						</g>
						<g>
							<path class="st0" d="M724.4,549.3c0,0-0.1,0-0.1,0c-0.5-0.1-0.8-0.5-0.7-1l0.3-2c0.1-0.5,0.5-0.8,1-0.7
								c0.5,0.1,0.8,0.5,0.7,1l-0.3,2C725.1,549,724.8,549.3,724.4,549.3z"/>
						</g>
					</g>
				</g>
				<g>
					<g>
						<path class="st0" d="M706.9,579.6c-0.2,0-0.5-0.1-0.6-0.3c-0.3-0.3-0.3-0.7,0-1.1l11.7-16c0.1-0.1,0.2-0.2,0.3-0.2l17.1-8.9
							c0.3-0.2,0.8-0.1,1,0.2c0.3,0.3,0.3,0.7,0,1L725.2,570c-0.1,0.1-0.2,0.2-0.3,0.3l-17.6,9.2C707.1,579.6,707,579.6,706.9,579.6
							z M719.2,563.4l-9.5,12.9l14.2-7.5l9-12.7L719.2,563.4z"/>
					</g>
					<g>
						<path class="st0" d="M724.5,570.3c-0.2,0-0.5-0.1-0.6-0.3l-5.9-6.8c-0.3-0.4-0.3-0.9,0.1-1.2c0.4-0.3,0.9-0.3,1.2,0.1l5.9,6.8
							c0.3,0.4,0.3,0.9-0.1,1.2C724.9,570.3,724.7,570.3,724.5,570.3z"/>
					</g>
				</g>
			</g>
			<g>
				<g>
					<path class="st0" d="M702,780.2c-0.1,0-0.2,0-0.3,0c-11.5-3.7-24.1,0-24.2,0c-0.3,0.1-0.5,0-0.7-0.1c-0.2-0.2-0.3-0.4-0.3-0.7
						v-37.1c0-0.4,0.2-0.7,0.6-0.8c0.5-0.2,13.2-3.9,25.2,0c0.3,0.1,0.6,0.4,0.6,0.8v37.1c0,0.3-0.1,0.5-0.3,0.7
						C702.4,780.1,702.2,780.2,702,780.2z M678.1,742.9v35.3c3.3-0.8,13.3-2.8,23.1,0v-35.3C691.3,739.9,680.7,742.2,678.1,742.9z"
						/>
				</g>
				<g>
					<path class="st0" d="M652.5,780.2c-0.2,0-0.4-0.1-0.5-0.2c-0.2-0.2-0.3-0.4-0.3-0.7v-37.1c0-0.4,0.2-0.7,0.6-0.8
						c12-3.9,24.7-0.2,25.2,0c0.4,0.1,0.6,0.4,0.6,0.8v37.1c0,0.3-0.1,0.5-0.3,0.7c-0.2,0.2-0.5,0.2-0.7,0.1c-0.1,0-12.8-3.7-24.2,0
						C652.7,780.1,652.6,780.2,652.5,780.2z M664.3,776.7c5.5,0,10.1,1,12.2,1.5v-35.3c-2.6-0.7-13.2-3-23.1,0v35.3
						C657.1,777.1,660.9,776.7,664.3,776.7z"/>
				</g>
			</g>
			<g>
				<g>
					<path class="st0" d="M360.2,462.4c-8.6,0-15.6-7-15.6-15.6s7-15.6,15.6-15.6s15.6,7,15.6,15.6S368.8,462.4,360.2,462.4z
						 M360.2,433c-7.7,0-13.9,6.2-13.9,13.9c0,7.7,6.2,13.9,13.9,13.9s13.9-6.2,13.9-13.9C374.1,439.2,367.9,433,360.2,433z"/>
				</g>
				<g>
					<g>
						<path class="st0" d="M360.2,454.1c-0.5,0-0.8-0.4-0.8-0.8v-13.1c0-0.5,0.4-0.8,0.8-0.8s0.8,0.4,0.8,0.8v13.1
							C361.1,453.7,360.7,454.1,360.2,454.1z"/>
					</g>
					<g>
						<path class="st0" d="M366.7,447.5h-13.1c-0.5,0-0.8-0.4-0.8-0.8c0-0.5,0.4-0.8,0.8-0.8h13.1c0.5,0,0.8,0.4,0.8,0.8
							C367.6,447.2,367.2,447.5,366.7,447.5z"/>
					</g>
				</g>
			</g>
			<g>
				<g>
					<path class="st0" d="M358.2,754.4c-8.6,0-15.6-7-15.6-15.6c0-8.6,7-15.6,15.6-15.6c8.6,0,15.6,7,15.6,15.6
						C373.7,747.4,366.8,754.4,358.2,754.4z M358.2,725c-7.7,0-13.9,6.2-13.9,13.9c0,7.7,6.2,13.9,13.9,13.9
						c7.7,0,13.9-6.2,13.9-13.9C372,731.2,365.8,725,358.2,725z"/>
				</g>
				<g>
					<g>
						<path class="st0" d="M364.7,739.5h-13.1c-0.5,0-0.8-0.4-0.8-0.8s0.4-0.8,0.8-0.8h13.1c0.5,0,0.8,0.4,0.8,0.8
							S365.2,739.5,364.7,739.5z"/>
					</g>
				</g>
			</g>
			<g>
				<g>
					<g>
						<path class="st0" d="M593,417.8c-0.5,0-0.8-0.4-0.8-0.8v-29.4c0-0.5,0.4-0.8,0.8-0.8s0.8,0.4,0.8,0.8V417
							C593.8,417.4,593.4,417.8,593,417.8z"/>
					</g>
					<g>
						<g>
							<path class="st0" d="M584.9,396.5c-0.2,0-0.4-0.1-0.6-0.2c-0.3-0.3-0.3-0.9,0-1.2l8-8c0.3-0.3,0.9-0.3,1.2,0s0.3,0.9,0,1.2
								l-8,8C585.4,396.4,585.2,396.5,584.9,396.5z"/>
						</g>
						<g>
							<path class="st0" d="M601,396.5c-0.2,0-0.4-0.1-0.6-0.2l-8-8c-0.3-0.3-0.3-0.9,0-1.2s0.9-0.3,1.2,0l8,8
								c0.3,0.3,0.3,0.9,0,1.2C601.4,396.4,601.2,396.5,601,396.5z"/>
						</g>
					</g>
				</g>
				<g>
					<g>
						<path class="st0" d="M608.6,417.8c-0.5,0-0.8-0.4-0.8-0.8v-29.4c0-0.5,0.4-0.8,0.8-0.8c0.5,0,0.8,0.4,0.8,0.8V417
							C609.4,417.4,609.1,417.8,608.6,417.8z"/>
					</g>
					<g>
						<g>
							<path class="st0" d="M608.6,417.8c-0.2,0-0.4-0.1-0.6-0.2c-0.3-0.3-0.3-0.9,0-1.2l8-8c0.3-0.3,0.9-0.3,1.2,0
								c0.3,0.3,0.3,0.9,0,1.2l-8,8C609,417.7,608.8,417.8,608.6,417.8z"/>
						</g>
						<g>
							<path class="st0" d="M608.6,417.8c-0.2,0-0.4-0.1-0.6-0.2l-8-8c-0.3-0.3-0.3-0.9,0-1.2s0.9-0.3,1.2,0l8,8
								c0.3,0.3,0.3,0.9,0,1.2C609,417.7,608.8,417.8,608.6,417.8z"/>
						</g>
					</g>
				</g>
			</g>
			<g>
				<path class="st0" d="M723.2,514.9c-8.9,0-16.1-7.2-16.1-16.1c0-6.8,4.3-12.8,10.6-15.2c0.3-0.1,0.7,0,1,0.3
					c0.2,0.3,0.2,0.7,0.1,1c-1.5,2.3-2.3,5-2.3,7.8c0,8,6.5,14.5,14.5,14.5c1.7,0,3.3-0.3,4.9-0.9c0.3-0.1,0.7,0,0.9,0.3
					c0.2,0.3,0.2,0.7,0.1,1C733.8,512.1,728.7,514.9,723.2,514.9z M716.1,486.2c-4.4,2.5-7.3,7.3-7.3,12.5c0,8,6.5,14.5,14.5,14.5
					c4.1,0,8-1.7,10.7-4.7c-1,0.2-2,0.3-3,0.3c-8.9,0-16.1-7.2-16.1-16.1C714.7,490.4,715.2,488.3,716.1,486.2z"/>
			</g>
			<g>
				<path class="st0" d="M378.1,596c-0.3,0-0.6-0.1-0.9-0.2c-0.7-0.4-0.9-1.2-0.7-1.9l6.3-19.2h-17v2.2c0,0.9-0.4,1.7-1.1,2.3
					c-0.7,0.6-1.6,0.8-2.4,0.7c-1.4-0.2-2.5-1.6-2.5-3.1v-14.7c0-0.9,0.4-1.7,1.1-2.3c0.7-0.6,1.6-0.8,2.4-0.7
					c1.4,0.2,2.5,1.6,2.5,3.1v2.1h17l-6.3-19c-0.2-0.8,0-1.5,0.7-2c0.7-0.4,1.5-0.3,2.1,0.3l20.1,20.7h13.2c2.5,0,4.7,1.7,5.2,4.1
					c0.3,1.5-0.1,3.1-1,4.4c-1,1.2-2.5,1.9-4,1.9h-13.4l-20.2,20.8C378.9,595.8,378.5,596,378.1,596z M365,573H384
					c0.3,0,0.5,0.1,0.7,0.4c0.2,0.2,0.2,0.5,0.1,0.8l-6.6,20l20.3-20.9c0.2-0.2,0.4-0.3,0.6-0.3h13.7c1.1,0,2-0.5,2.7-1.3
					c0.7-0.8,0.9-1.9,0.7-2.9c-0.3-1.6-1.8-2.7-3.6-2.7h-13.6c-0.2,0-0.4-0.1-0.6-0.3l-20.4-20.9l6.7,20.1c0.1,0.3,0,0.5-0.1,0.8
					c-0.2,0.2-0.4,0.4-0.7,0.4H365c-0.5,0-0.8-0.4-0.8-0.8v-3c0-0.7-0.5-1.3-1.1-1.4c-0.4-0.1-0.8,0-1.1,0.3c-0.3,0.2-0.5,0.6-0.5,1
					v14.7c0,0.7,0.5,1.3,1.1,1.4c0.4,0.1,0.8,0,1.1-0.3c0.3-0.2,0.5-0.6,0.5-1v-3.1C364.1,573.3,364.5,573,365,573z"/>
			</g>
			<g>
				<g>
					<path class="st0" d="M501.4,420.5c-6,0-10.8-4.9-10.8-10.8c0-6,4.9-10.8,10.8-10.8c0.5,0,0.8,0.4,0.8,0.8
						c0,0.5-0.4,0.8-0.8,0.8c-5,0-9.1,4.1-9.1,9.1s4.1,9.1,9.1,9.1c5,0,9.1-4.1,9.1-9.1c0-0.5,0.4-0.8,0.8-0.8
						c0.5,0,0.8,0.4,0.8,0.8C512.2,415.6,507.4,420.5,501.4,420.5z"/>
				</g>
				<g>
					<polygon class="st0" points="501.4,395.8 501.4,405.2 508.9,400.5 					"/>
				</g>
			</g>
			<g>
				<g>
					<path class="st0" d="M450,894.1c-0.5,0-0.8-0.4-0.8-0.8c0-0.5,0.4-0.8,0.8-0.8c5,0,9.1-4.1,9.1-9.1c0-5-4.1-9.1-9.1-9.1
						s-9.1,4.1-9.1,9.1c0,0.5-0.4,0.8-0.8,0.8c-0.5,0-0.8-0.4-0.8-0.8c0-6,4.9-10.8,10.8-10.8s10.8,4.9,10.8,10.8
						C460.8,889.2,456,894.1,450,894.1z"/>
				</g>
				<g>
					<polygon class="st0" points="436.2,883.2 445.6,883.2 440.9,890.7 					"/>
				</g>
			</g>
			<g>
				<path class="st0" d="M710.3,454.1c-0.2,0-0.5-0.1-0.6-0.3l-9.2-9.7c-0.3-0.3-0.3-0.9,0-1.2c0.3-0.3,0.9-0.3,1.2,0l8.5,8.9
					l14.4-21.5c0.3-0.4,0.8-0.5,1.2-0.2c0.4,0.3,0.5,0.8,0.2,1.2l-15,22.4C710.9,453.9,710.6,454.1,710.3,454.1
					C710.4,454.1,710.3,454.1,710.3,454.1z"/>
			</g>
			<g>
				<g>
					<path class="st0" d="M659.2,722.2c-0.2,0-0.3,0-0.4-0.1c-6.3-3.9-10.1-10.6-10.1-18c0-11.6,9.5-21.1,21.1-21.1
						c11.6,0,21.1,9.5,21.1,21.1c0,7.4-3.8,14.1-10.1,18c-0.4,0.2-0.9,0.1-1.2-0.3c-0.2-0.4-0.1-0.9,0.3-1.2
						c5.8-3.6,9.3-9.7,9.3-16.5c0-10.7-8.7-19.4-19.4-19.4c-10.7,0-19.4,8.7-19.4,19.4c0,6.8,3.5,12.9,9.3,16.5
						c0.4,0.2,0.5,0.8,0.3,1.2C659.8,722,659.5,722.2,659.2,722.2z"/>
				</g>
				<g>
					<path class="st0" d="M678.4,719c-0.3,0-0.6-0.1-0.7-0.4c-0.2-0.4-0.1-0.9,0.3-1.2c4.7-2.9,7.5-7.9,7.5-13.3
						c0-8.6-7-15.7-15.7-15.7c-8.6,0-15.7,7-15.7,15.7c0,5.5,2.8,10.5,7.5,13.3c0.4,0.2,0.5,0.8,0.3,1.2c-0.2,0.4-0.8,0.5-1.2,0.3
						c-5.2-3.2-8.3-8.7-8.3-14.8c0-9.6,7.8-17.3,17.3-17.3s17.3,7.8,17.3,17.3c0,6.1-3.1,11.6-8.3,14.8
						C678.7,719,678.5,719,678.4,719z"/>
				</g>
				<g>
					<path class="st0" d="M676.4,715.8c-0.3,0-0.6-0.1-0.7-0.4c-0.2-0.4-0.1-0.9,0.3-1.2c3.6-2.2,5.7-6,5.7-10.2
						c0-6.6-5.3-11.9-11.9-11.9c-6.6,0-11.9,5.3-11.9,11.9c0,4.2,2.1,8,5.7,10.2c0.4,0.2,0.5,0.8,0.3,1.2c-0.2,0.4-0.8,0.5-1.2,0.3
						c-4.1-2.5-6.5-6.8-6.5-11.6c0-7.5,6.1-13.6,13.6-13.6c7.5,0,13.6,6.1,13.6,13.6c0,4.8-2.4,9.1-6.5,11.6
						C676.8,715.8,676.6,715.8,676.4,715.8z"/>
				</g>
				<g>
					<path class="st0" d="M676.4,715.8c-0.3,0-0.6-0.1-0.7-0.4c-0.2-0.4-0.1-0.9,0.3-1.2c3.6-2.2,5.7-6,5.7-10.2
						c0-6.6-5.3-11.9-11.9-11.9c-6.6,0-11.9,5.3-11.9,11.9c0,4.2,2.1,8,5.7,10.2c0.4,0.2,0.5,0.8,0.3,1.2c-0.2,0.4-0.8,0.5-1.2,0.3
						c-4.1-2.5-6.5-6.8-6.5-11.6c0-7.5,6.1-13.6,13.6-13.6c7.5,0,13.6,6.1,13.6,13.6c0,4.8-2.4,9.1-6.5,11.6
						C676.8,715.8,676.6,715.8,676.4,715.8z"/>
				</g>
				<g>
					<path class="st0" d="M674.5,712.6c-0.3,0-0.6-0.1-0.7-0.4c-0.2-0.4-0.1-0.9,0.3-1.2c2.5-1.5,3.9-4.1,3.9-7
						c0-4.5-3.7-8.2-8.2-8.2c-4.5,0-8.2,3.7-8.2,8.2c0,2.8,1.5,5.4,3.9,7c0.4,0.2,0.5,0.8,0.3,1.2c-0.2,0.4-0.8,0.5-1.2,0.3
						c-3-1.8-4.7-5-4.7-8.4c0-5.4,4.4-9.9,9.9-9.9c5.4,0,9.9,4.4,9.9,9.9c0,3.4-1.8,6.6-4.7,8.4
						C674.8,712.6,674.6,712.6,674.5,712.6z"/>
				</g>
				<g>
					<path class="st0" d="M672.5,709.5c-0.3,0-0.6-0.1-0.7-0.4c-0.2-0.4-0.1-0.9,0.3-1.2c1.3-0.8,2.1-2.2,2.1-3.8
						c0-2.5-2-4.5-4.5-4.5s-4.5,2-4.5,4.5c0,1.5,0.8,3,2.1,3.8c0.4,0.2,0.5,0.8,0.3,1.2c-0.2,0.4-0.8,0.5-1.2,0.3
						c-1.8-1.1-2.9-3.1-2.9-5.2c0-3.4,2.8-6.1,6.1-6.1c3.4,0,6.1,2.8,6.1,6.1c0,2.1-1.1,4.1-2.9,5.2
						C672.9,709.4,672.7,709.5,672.5,709.5z"/>
				</g>
				<g>
					<path class="st0" d="M672.5,709.5c-0.3,0-0.6-0.1-0.7-0.4c-0.2-0.4-0.1-0.9,0.3-1.2c1.3-0.8,2.1-2.2,2.1-3.8
						c0-2.5-2-4.5-4.5-4.5s-4.5,2-4.5,4.5c0,1.5,0.8,3,2.1,3.8c0.4,0.2,0.5,0.8,0.3,1.2c-0.2,0.4-0.8,0.5-1.2,0.3
						c-1.8-1.1-2.9-3.1-2.9-5.2c0-3.4,2.8-6.1,6.1-6.1c3.4,0,6.1,2.8,6.1,6.1c0,2.1-1.1,4.1-2.9,5.2
						C672.9,709.4,672.7,709.5,672.5,709.5z"/>
				</g>
				<g>
					<path class="st0" d="M671.9,704c0-1.2-0.9-2.1-2.1-2.1c-1.2,0-2.1,0.9-2.1,2.1c0,1.2,0.9,2.1,2.1,2.1
						C671,706.2,671.9,705.2,671.9,704z"/>
				</g>
			</g>
			<g>
				<path class="st0" d="M645.5,442.7c-0.4,0-0.7-0.3-0.8-0.6c-0.1-0.4,0.1-0.8,0.5-1c1.4-0.5,3.3-3.2,4.4-5.2
					c-8.9-4.3-14.4-12.2-14.4-20.7c0-13.2,13.1-24,29.2-24s29.2,10.8,29.2,24c0,13.2-13.1,24-29.2,24c-2.4,0-4.9-0.3-7.2-0.8
					c-4.4,3.3-11.2,4.3-11.5,4.3C645.6,442.7,645.5,442.7,645.5,442.7z M664.3,392.8c-15.1,0-27.5,10-27.5,22.3
					c0,8.1,5.5,15.6,14.3,19.6c0.2,0.1,0.4,0.3,0.5,0.5c0.1,0.2,0.1,0.5,0,0.7c-0.2,0.4-1.4,2.6-2.9,4.5c2.3-0.6,5.5-1.7,7.7-3.5
					c0.2-0.2,0.5-0.2,0.7-0.2c2.4,0.5,4.8,0.8,7.3,0.8c15.1,0,27.5-10,27.5-22.3C691.8,402.8,679.4,392.8,664.3,392.8z"/>
			</g>
			<g>
				<g>
					<g>
						<path class="st0" d="M424.9,774c-0.1,0-0.3,0-0.4-0.1c-0.3-0.2-0.4-0.5-0.4-0.8c0.1-1.1,0.1-2.1,0.2-2.9c0-0.3,0-0.6,0-0.9
							c0-0.3,0.1-0.5,0.3-0.7c2.6-2.5,4-5.8,4-9.3c0-7.1-5.8-12.9-12.9-12.9s-12.9,5.8-12.9,12.9c0,3.6,1.4,6.9,4,9.3
							c0.2,0.2,0.3,0.4,0.3,0.7c0,0.3,0,0.6,0,0.9c0,0.8,0.1,1.8,0.2,2.9c0,0.3-0.1,0.6-0.4,0.8c-0.3,0.2-0.6,0.2-0.9,0
							c-4.9-3.3-7.8-8.7-7.8-14.6c0-9.7,7.9-17.6,17.6-17.6s17.6,7.9,17.6,17.6c0,5.8-2.9,11.3-7.8,14.6
							C425.2,773.9,425.1,774,424.9,774z M425.9,769.5c0,0.2,0,0.4,0,0.7c0,0.4,0,0.7-0.1,1.1c3.5-3,5.6-7.4,5.6-12.1
							c0-8.7-7.1-15.9-15.9-15.9s-15.9,7.1-15.9,15.9c0,4.7,2.1,9.1,5.6,12.1c0-0.4,0-0.8-0.1-1.1c0-0.2,0-0.4,0-0.7
							c-2.7-2.8-4.3-6.4-4.3-10.3c0-8,6.5-14.6,14.6-14.6s14.6,6.5,14.6,14.6C430.2,763.1,428.7,766.8,425.9,769.5z"/>
					</g>
					<g>
						<path class="st0" d="M407.4,783.9c-0.1,0-0.2,0-0.3,0c-10.5-3.6-17.6-13.5-17.6-24.6c0-14.4,11.7-26.1,26.1-26.1
							s26.1,11.7,26.1,26.1c0,11.1-7.1,21-17.6,24.6c-0.3,0.1-0.6,0-0.8-0.1c-0.2-0.2-0.3-0.5-0.3-0.8c0.1-0.9,0.3-2.1,0.4-3.3
							c0-0.3,0.2-0.6,0.5-0.7c8-3.4,13.1-11.1,13.1-19.7c0-11.8-9.6-21.4-21.4-21.4s-21.4,9.6-21.4,21.4c0,8.6,5.1,16.4,13.1,19.7
							c0.3,0.1,0.5,0.4,0.5,0.7c0.1,1.2,0.3,2.4,0.4,3.3c0,0.3-0.1,0.6-0.3,0.8C407.7,783.8,407.6,783.9,407.4,783.9z M415.6,734.9
							c-13.4,0-24.4,10.9-24.4,24.4c0,9.9,6,18.8,15.1,22.5c-0.1-0.5-0.1-0.9-0.2-1.5c-8.3-3.7-13.7-12-13.7-21.1
							c0-12.7,10.4-23.1,23.1-23.1c12.7,0,23.1,10.4,23.1,23.1c0,9.1-5.3,17.4-13.7,21.1c-0.1,0.5-0.1,1-0.2,1.5
							c9.1-3.7,15.1-12.6,15.1-22.5C440,745.8,429,734.9,415.6,734.9z"/>
					</g>
				</g>
				<g>
					<g>
						<path class="st0" d="M415.6,764.2c-3.7,0-6.8-3-6.8-6.8c0-3.7,3-6.8,6.8-6.8c3.7,0,6.8,3,6.8,6.8
							C422.4,761.2,419.3,764.2,415.6,764.2z M415.6,752.4c-2.8,0-5.1,2.3-5.1,5.1s2.3,5.1,5.1,5.1s5.1-2.3,5.1-5.1
							S418.4,752.4,415.6,752.4z"/>
					</g>
					<g>
						<path class="st0" d="M415.6,790c-3.9,0-5.1-3.1-5.2-4.8c0-0.3-1.4-9.9-1.6-15.2c-0.1-1.7,0.4-3,1.5-3.9
							c1.8-1.5,4.6-1.2,5.3-1.1c0.7-0.1,3.5-0.4,5.3,1.1c1,0.9,1.5,2.2,1.5,3.9c-0.2,5.3-1.5,14.9-1.6,15.3
							C420.7,786.9,419.5,790,415.6,790z M414.2,766.6c-0.9,0-2,0.1-2.8,0.8c-0.6,0.6-0.9,1.4-0.9,2.6c0.2,5.2,1.6,15,1.6,15.1
							c0,0.4,0.3,3.2,3.5,3.2s3.5-2.8,3.5-3.2c0-0.2,1.4-10,1.6-15.2c0-1.2-0.2-2-0.9-2.6c-1.4-1.2-4-0.7-4-0.7c-0.1,0-0.2,0-0.3,0
							C415.4,766.7,414.9,766.6,414.2,766.6z"/>
					</g>
				</g>
			</g>
			<g>
				<path class="st0" d="M654.8,666.8c-3,0-7.4-1.4-8.3-6.8c-1.3-8,8.1-9.5,11.2-10c0.8-0.1,1.4-0.8,1.4-1.7
					c0.2-6.9,0-27.7-0.1-32.3c0-0.9,0.6-1.7,1.5-1.9l31.6-6.9c0.5-0.1,1,0,1.4,0.4c0.4,0.3,0.6,0.8,0.6,1.3v44.2
					c0,0.1-0.5,7.7-8.5,7.8c-2.8,0.3-8.3-0.6-9.3-6.7c-1.2-7.9,7.9-9.4,10.8-9.9c1-0.2,1.7-1,1.7-2v-19.8l-24.8,5.1V659
					c0,0.1-0.5,7.7-8.5,7.8C655.5,666.8,655.1,666.8,654.8,666.8z M692.5,608.9l-31.6,6.8c-0.1,0-0.2,0.1-0.2,0.2
					c0.1,4.6,0.3,25.5,0.1,32.4c0,1.6-1.2,3-2.9,3.3c-7.5,1.2-10.5,3.7-9.8,8c1,6,7.2,5.3,7.5,5.3c0,0,0.1,0,0.1,0
					c6.4,0,6.8-5.9,6.8-6.1l0-32.1c0-0.4,0.3-0.7,0.7-0.8l26.4-5.5c0.2-0.1,0.5,0,0.7,0.2c0.2,0.2,0.3,0.4,0.3,0.7v20.8
					c0,1.8-1.3,3.4-3.1,3.7c-7.1,1.2-10.1,3.7-9.4,8c1,6.1,7.2,5.3,7.5,5.3c0,0,0.1,0,0.1,0c6.4,0,6.8-5.9,6.8-6.1L692.5,608.9z"/>
			</g>
			<g>
				<path class="st0" d="M433.6,481.2c-0.1,0-0.2,0-0.3,0c-22.8-3.5-41.6-30.1-43.1-39.9c-1.4-9.2,6-12,8.3-12.7
					c0.8-0.2,1.6,0.1,2,0.7l8.7,11.9c0.4,0.6,0.5,1.4,0.1,2l-3.6,6.4c0,0.1,0,0.1,0,0.2c4.9,8.2,13.8,14.7,15.5,15.9
					c0.1,0,0.1,0,0.2,0l6.9-2.8c0.6-0.2,1.2-0.2,1.7,0.1l12.2,7.4c0.7,0.4,1,1.1,0.9,1.9c-1.2,8-8.5,8.8-9.4,8.9
					C433.6,481.2,433.6,481.2,433.6,481.2z M398.9,430.2C398.9,430.2,398.9,430.2,398.9,430.2c-2.6,0.7-8.3,3.2-7.1,10.8
					c1.4,9.5,19.6,35.1,41.7,38.5c1.2-0.1,6.9-0.8,7.9-7.4c0-0.1,0-0.1-0.1-0.2l-12.2-7.4c-0.1,0-0.1,0-0.2,0l-6.9,2.8
					c-0.6,0.2-1.3,0.2-1.8-0.2c-2.5-1.8-11.1-8.1-16-16.4c-0.3-0.6-0.4-1.3,0-1.9l3.6-6.4c0-0.1,0-0.2,0-0.2l-8.7-11.9c0,0,0,0,0,0
					C399,430.3,399,430.2,398.9,430.2z"/>
			</g>
			<g>
				<g>
					<path class="st0" d="M559.9,363.6c-8.2,0-14.9-6.7-14.9-14.9s6.7-14.9,14.9-14.9s14.9,6.7,14.9,14.9S568.1,363.6,559.9,363.6z
						 M559.9,335.5c-7.3,0-13.2,5.9-13.2,13.2c0,7.3,5.9,13.2,13.2,13.2c7.3,0,13.2-5.9,13.2-13.2
						C573.1,341.4,567.2,335.5,559.9,335.5z"/>
				</g>
				<g>
					<path class="st0" d="M586.4,374.2h-25.8c-4.8,0-8.8-3.9-8.8-8.8c0-4.2,3.1-7.9,7.2-8.6c-0.1-0.5-0.1-1.1-0.1-1.6
						c0-8,6.5-14.5,14.5-14.5c5.7,0,10.8,3.3,13.2,8.5c6.8,0.1,12.3,5.6,12.3,12.5C598.9,368.6,593.3,374.2,586.4,374.2z
						 M573.4,342.4c-7,0-12.8,5.7-12.8,12.8c0,0.7,0.1,1.4,0.2,2.2c0,0.2,0,0.5-0.2,0.7c-0.1,0.2-0.4,0.3-0.6,0.3
						c-3.7,0.3-6.5,3.4-6.5,7.1c0,3.9,3.2,7.1,7.1,7.1h25.8c5.9,0,10.8-4.8,10.8-10.8c0-5.9-4.8-10.8-10.8-10.8c-0.1,0-0.1,0-0.2,0
						l-0.2,0c-0.4,0-0.7-0.2-0.8-0.5C583.3,345.6,578.6,342.4,573.4,342.4z"/>
				</g>
			</g>
			<g>
				<g>
					<g>
						<path class="st0" d="M656.9,842.2h-9.3c-0.5,0-0.8-0.4-0.8-0.8c0-0.1-0.1-9-7.3-14.1c-4.7-3.4-6.6-12.2-4.3-19.4
							c1.4-4.2,5.4-11.3,17.1-11.3c11.7,0,15.7,7.1,17.1,11.3c2.3,7.1,0.3,16-4.3,19.4c-7.2,5.2-7.3,14-7.3,14.1
							C657.8,841.8,657.4,842.2,656.9,842.2z M648.4,840.5h7.7c0.2-2.5,1.3-9.9,7.9-14.6c3.6-2.6,6-10.4,3.7-17.5
							c-1.2-3.8-4.9-10.2-15.5-10.2s-14.3,6.4-15.5,10.2c-2.3,7.1,0.1,14.9,3.7,17.5C647.1,830.6,648.2,838,648.4,840.5z"/>
					</g>
					<g>
						<g>
							<path class="st0" d="M659.6,820.2H645c-0.5,0-0.8-0.4-0.8-0.8c0-0.5,0.4-0.8,0.8-0.8h14.5c0.5,0,0.8,0.4,0.8,0.8
								C660.4,819.8,660,820.2,659.6,820.2z"/>
						</g>
						<g>
							<path class="st0" d="M652.3,838.8c-0.5,0-0.8-0.4-0.8-0.8v-18.6c0-0.5,0.4-0.8,0.8-0.8c0.5,0,0.8,0.4,0.8,0.8V838
								C653.1,838.4,652.8,838.8,652.3,838.8z"/>
						</g>
					</g>
				</g>
				<g>
					<g>
						<path class="st0" d="M657.1,845.4h-9.9c-0.5,0-0.8-0.4-0.8-0.8c0-0.5,0.4-0.8,0.8-0.8h9.9c0.5,0,0.8,0.4,0.8,0.8
							C657.9,845.1,657.6,845.4,657.1,845.4z"/>
					</g>
					<g>
						<path class="st0" d="M655.9,849.1h-7.5c-0.5,0-0.8-0.4-0.8-0.8c0-0.5,0.4-0.8,0.8-0.8h7.5c0.5,0,0.8,0.4,0.8,0.8
							C656.7,848.7,656.4,849.1,655.9,849.1z"/>
					</g>
					<g>
						<path class="st0" d="M654.3,852.6H650c-0.5,0-0.8-0.4-0.8-0.8s0.4-0.8,0.8-0.8h4.4c0.5,0,0.8,0.4,0.8,0.8
							S654.8,852.6,654.3,852.6z"/>
					</g>
				</g>
			</g>
			<g>
				<g>
					<path class="st0" d="M751,477.2c-4.4,0-8-3.6-8-8v-19.4c0-4.4,3.6-8,8-8s8,3.6,8,8v19.4C759,473.6,755.4,477.2,751,477.2z
						 M751,443.5c-3.5,0-6.3,2.8-6.3,6.3v19.4c0,3.5,2.8,6.3,6.3,6.3c3.5,0,6.3-2.8,6.3-6.3v-19.4
						C757.3,446.3,754.4,443.5,751,443.5z"/>
				</g>
				<g>
					<g>
						<path class="st0" d="M751,480.8c-6.4,0-11.6-5.2-11.6-11.6v-9.3c0-0.5,0.4-0.8,0.8-0.8c0.5,0,0.8,0.4,0.8,0.8v9.3
							c0,5.5,4.4,9.9,9.9,9.9c5.5,0,9.9-4.4,9.9-9.9v-9.7c0-0.5,0.4-0.8,0.8-0.8c0.5,0,0.8,0.4,0.8,0.8v9.7
							C762.6,475.6,757.4,480.8,751,480.8z"/>
					</g>
					<g>
						<path class="st0" d="M751,488.1c-0.5,0-0.8-0.4-0.8-0.8v-7.4c0-0.5,0.4-0.8,0.8-0.8c0.5,0,0.8,0.4,0.8,0.8v7.4
							C751.8,487.8,751.4,488.1,751,488.1z"/>
					</g>
					<g>
						<path class="st0" d="M757.4,488.1h-12.8c-0.5,0-0.8-0.4-0.8-0.8c0-0.5,0.4-0.8,0.8-0.8h12.8c0.5,0,0.8,0.4,0.8,0.8
							C758.2,487.8,757.9,488.1,757.4,488.1z"/>
					</g>
				</g>
			</g>
			<g>
				<g>
					<path class="st0" d="M475,817.4h-11.3c-0.5,0-0.8-0.4-0.8-0.8v-11.3c0-0.3,0.2-0.7,0.5-0.8c0.3-0.1,0.7-0.1,0.9,0.2l11.3,11.3
						c0.2,0.2,0.3,0.6,0.2,0.9C475.6,817.2,475.3,817.4,475,817.4z M464.5,815.7h8.4l-8.4-8.4V815.7z"/>
				</g>
				<g>
					<path class="st0" d="M475,853.5h-36.1c-0.5,0-0.8-0.4-0.8-0.8v-47.4c0-0.5,0.4-0.8,0.8-0.8h24.8c0.2,0,0.4,0.1,0.6,0.2
						l11.3,11.3c0.2,0.2,0.2,0.4,0.2,0.6v36.1C475.8,853.1,475.4,853.5,475,853.5z M439.7,851.8h34.4v-34.9l-10.8-10.8h-23.6V851.8z
						"/>
				</g>
			</g>
			<g>
				<g>
					<path class="st0" d="M750.2,809.3c-10.5,0-19-8.5-19-19c0-10.5,8.5-19,19-19c10.5,0,19,8.5,19,19
						C769.2,800.8,760.6,809.3,750.2,809.3z M750.2,773c-9.5,0-17.3,7.8-17.3,17.3c0,9.5,7.8,17.3,17.3,17.3
						c9.5,0,17.3-7.8,17.3-17.3C767.5,780.8,759.7,773,750.2,773z"/>
				</g>
				<g>
					<g>
						<g>
							<path class="st0" d="M750.2,809.3c-0.5,0-0.8-0.4-0.8-0.8v-36.3c0-0.5,0.4-0.8,0.8-0.8c0.5,0,0.8,0.4,0.8,0.8v36.3
								C751,808.9,750.6,809.3,750.2,809.3z"/>
						</g>
						<g>
							<path class="st0" d="M747.6,809.1c-0.2,0-0.4-0.1-0.6-0.2c-0.3-0.2-6.2-5.6-6.2-18.6c0-13,6-18.4,6.2-18.6
								c0.4-0.3,0.9-0.3,1.2,0.1c0.3,0.4,0.3,0.9-0.1,1.2c-0.1,0-5.7,5.1-5.7,17.3c0,12.2,5.6,17.3,5.7,17.3
								c0.3,0.3,0.4,0.8,0.1,1.2C748.1,809,747.8,809.1,747.6,809.1z"/>
						</g>
						<g>
							<path class="st0" d="M753,809.1c-0.2,0-0.5-0.1-0.6-0.3c-0.3-0.4-0.3-0.9,0.1-1.2c0.1-0.1,5.7-5.1,5.7-17.3
								c0-12.2-5.6-17.3-5.7-17.3c-0.3-0.3-0.4-0.8-0.1-1.2c0.3-0.4,0.8-0.4,1.2-0.1c0.3,0.2,6.2,5.6,6.2,18.6c0,13-6,18.4-6.2,18.6
								C753.4,809,753.2,809.1,753,809.1z"/>
						</g>
					</g>
					<g>
						<g>
							<path class="st0" d="M768.3,791.2H732c-0.5,0-0.8-0.4-0.8-0.8c0-0.5,0.4-0.8,0.8-0.8h36.3c0.5,0,0.8,0.4,0.8,0.8
								C769.2,790.8,768.8,791.2,768.3,791.2z"/>
						</g>
						<g>
							<path class="st0" d="M764.3,802.7c-0.1,0-0.3,0-0.4-0.1c-2.6-1.4-7.1-3-13.7-3c-6.4,0-10.8,1.6-13.4,2.9
								c-0.4,0.2-0.9,0.1-1.1-0.4c-0.2-0.4-0.1-0.9,0.4-1.1c2.7-1.4,7.4-3.1,14.2-3.1c7,0,11.7,1.8,14.5,3.2
								c0.4,0.2,0.6,0.7,0.3,1.1C764.9,802.5,764.6,802.7,764.3,802.7z"/>
						</g>
						<g>
							<path class="st0" d="M750.5,783.6c-7,0-11.7-1.8-14.5-3.2c-0.4-0.2-0.6-0.7-0.3-1.1c0.2-0.4,0.7-0.6,1.1-0.3
								c2.6,1.4,7.1,3,13.7,3c6.4,0,10.8-1.6,13.4-2.9c0.4-0.2,0.9-0.1,1.1,0.4c0.2,0.4,0.1,0.9-0.4,1.1
								C761.9,781.9,757.3,783.6,750.5,783.6z"/>
						</g>
					</g>
				</g>
			</g>
			<g>
				<g>
					<path class="st0" d="M407.1,840.5c-8.7,0-15.8-7.1-15.8-15.8c0-8.7,7.1-15.8,15.8-15.8c8.7,0,15.8,7.1,15.8,15.8
						C422.9,833.4,415.8,840.5,407.1,840.5z M407.1,810.6c-7.8,0-14.1,6.3-14.1,14.1s6.3,14.1,14.1,14.1s14.1-6.3,14.1-14.1
						S414.9,810.6,407.1,810.6z"/>
				</g>
				<g>
					<path class="st0" d="M412.6,834.1c-0.2,0-0.4-0.1-0.6-0.2l-5-4.5l-5.1,4.5c-0.3,0.2-0.7,0.3-1,0.1c-0.3-0.2-0.5-0.6-0.3-1
						l5.7-18.1c0.1-0.4,0.4-0.6,0.8-0.6c0,0,0,0,0,0c0.4,0,0.7,0.2,0.8,0.6l5.5,18.1c0.1,0.4,0,0.8-0.4,1
						C412.9,834,412.8,834.1,412.6,834.1z M407.1,818l-4,12.7l3.4-3c0.3-0.3,0.8-0.3,1.1,0l3.3,2.9L407.1,818z"/>
				</g>
			</g>
			<g>
				<g>
					<g>
						<path class="st0" d="M734.7,636.5c-0.5,0-0.8-0.4-0.8-0.8v-20.9c0-0.5,0.4-0.8,0.8-0.8s0.8,0.4,0.8,0.8v20.9
							C735.5,636.1,735.1,636.5,734.7,636.5z"/>
					</g>
					<g>
						<path class="st0" d="M737.4,629.2c0-1.5-1.2-2.7-2.7-2.7c-1.5,0-2.7,1.2-2.7,2.7c0,1.5,1.2,2.7,2.7,2.7
							C736.2,631.9,737.4,630.6,737.4,629.2z"/>
						<path class="st0" d="M734.7,632.7c-2,0-3.6-1.6-3.6-3.6c0-2,1.6-3.6,3.6-3.6c2,0,3.6,1.6,3.6,3.6
							C738.2,631.1,736.6,632.7,734.7,632.7z M734.7,627.3c-1,0-1.9,0.8-1.9,1.9c0,1,0.8,1.9,1.9,1.9c1,0,1.9-0.8,1.9-1.9
							C736.5,628.1,735.7,627.3,734.7,627.3z"/>
					</g>
				</g>
				<g>
					<g>
						<path class="st0" d="M734.7,649.2c-11,0-20-9-20-20c0-11,9-20,20-20s20,9,20,20C754.7,640.2,745.7,649.2,734.7,649.2z
							 M734.7,610.8c-10.1,0-18.3,8.2-18.3,18.3c0,10.1,8.2,18.3,18.3,18.3c10.1,0,18.3-8.2,18.3-18.3
							C753,619,744.8,610.8,734.7,610.8z"/>
					</g>
					<g>
						<g>
							<path class="st0" d="M736.8,610.3c-0.5,0-0.8-0.4-0.8-0.8v-2.1c0-0.6-0.5-1.1-1.1-1.1c-0.6,0-1.1,0.5-1.1,1.1v2.1
								c0,0.5-0.4,0.8-0.8,0.8s-0.8-0.4-0.8-0.8v-2.1c0-1.6,1.3-2.8,2.8-2.8c1.6,0,2.8,1.3,2.8,2.8v2.1
								C737.6,609.9,737.3,610.3,736.8,610.3z"/>
						</g>
						<g>
							<g>
								<path class="st0" d="M752.2,615.3c-0.5,0-0.9-0.2-1.3-0.5l0,0l-1.8-1.8c-0.7-0.7-0.7-1.8,0-2.5l0.7-0.7
									c0.7-0.7,1.8-0.7,2.5,0l1.8,1.8c0.7,0.7,0.7,1.8,0,2.5l-0.7,0.7C753.1,615.1,752.6,615.3,752.2,615.3z M752.1,613.5
									c0,0,0.1,0,0.2,0l0.7-0.7c0,0,0-0.1,0-0.2l-1.8-1.8c0,0-0.1,0-0.2,0l-0.7,0.7c0,0,0,0.1,0,0.2L752.1,613.5z"/>
							</g>
							<g>
								<path class="st0" d="M748.2,616.4c-0.2,0-0.4-0.1-0.6-0.2c-0.3-0.3-0.3-0.9,0-1.2l2.4-2.4c0.3-0.3,0.9-0.3,1.2,0
									c0.3,0.3,0.3,0.9,0,1.2l-2.4,2.4C748.7,616.4,748.4,616.4,748.2,616.4z"/>
							</g>
						</g>
					</g>
				</g>
			</g>
			<g>
				<g>
					<g>
						<path class="st0" d="M594.3,881.1h-11.2c-0.5,0-0.8-0.4-0.8-0.8v-8.8c0-0.5,0.4-0.8,0.8-0.8h11.2c0.5,0,0.8,0.4,0.8,0.8v8.8
							C595.2,880.7,594.8,881.1,594.3,881.1z M584,879.4h9.5v-7.1H584V879.4z"/>
					</g>
					<g>
						<path class="st0" d="M608,881.1h-11.2c-0.5,0-0.8-0.4-0.8-0.8v-19.9c0-0.5,0.4-0.8,0.8-0.8H608c0.5,0,0.8,0.4,0.8,0.8v19.9
							C608.9,880.7,608.5,881.1,608,881.1z M597.6,879.4h9.5v-18.2h-9.5V879.4z"/>
					</g>
					<g>
						<path class="st0" d="M621.7,881.1h-11.2c-0.5,0-0.8-0.4-0.8-0.8v-42.6c0-0.5,0.4-0.8,0.8-0.8h11.2c0.5,0,0.8,0.4,0.8,0.8v42.6
							C622.5,880.7,622.2,881.1,621.7,881.1z M611.3,879.4h9.5v-40.9h-9.5V879.4z"/>
					</g>
					<g>
						<path class="st0" d="M635.4,881.1h-11.2c-0.5,0-0.8-0.4-0.8-0.8v-29.7c0-0.5,0.4-0.8,0.8-0.8h11.2c0.5,0,0.8,0.4,0.8,0.8v29.7
							C636.2,880.7,635.8,881.1,635.4,881.1z M625,879.4h9.5v-28H625V879.4z"/>
					</g>
				</g>
				<g>
					<path class="st0" d="M635.4,884.3h-52.3c-0.6,0-1.1-0.5-1.1-1.1c0-0.6,0.5-1.1,1.1-1.1h52.3c0.6,0,1.1,0.5,1.1,1.1
						C636.4,883.8,636,884.3,635.4,884.3z"/>
				</g>
			</g>
			<g>
				<g>
					<g>
						<path class="st0" d="M514,848.8c-11,0-20-9-20-20s9-20,20-20c11,0,20,9,20,20S525,848.8,514,848.8z M514,810.5
							c-10.1,0-18.3,8.2-18.3,18.3c0,10.1,8.2,18.3,18.3,18.3c10.1,0,18.3-8.2,18.3-18.3C532.3,818.7,524.1,810.5,514,810.5z"/>
					</g>
					<g>
						<path class="st0" d="M514,841.6c-7.1,0-12.8-5.8-12.8-12.8c0-7.1,5.8-12.8,12.8-12.8s12.8,5.8,12.8,12.8
							C526.8,835.9,521,841.6,514,841.6z M514,817.6c-6.1,0-11.1,5-11.1,11.1c0,6.1,5,11.1,11.1,11.1c6.1,0,11.1-5,11.1-11.1
							C525.1,822.6,520.1,817.6,514,817.6z"/>
					</g>
					<g>
						<path class="st0" d="M514,835.5c-3.7,0-6.7-3-6.7-6.7s3-6.7,6.7-6.7c3.7,0,6.7,3,6.7,6.7S517.7,835.5,514,835.5z M514,823.8
							c-2.8,0-5,2.3-5,5c0,2.8,2.3,5,5,5c2.8,0,5-2.3,5-5C519,826,516.7,823.8,514,823.8z"/>
					</g>
				</g>
				<g>
					<path class="st0" d="M514,829.6c-0.2,0-0.4-0.1-0.6-0.2c-0.3-0.3-0.3-0.9,0-1.2l13.6-13.6c0.3-0.3,0.9-0.3,1.2,0s0.3,0.9,0,1.2
						l-13.6,13.6C514.4,829.6,514.2,829.6,514,829.6z"/>
				</g>
			</g>
			<g>
				<g>
					<g>
						<path class="st0" d="M367,834.6h-22.2c-1.1,0-2.1-0.9-2.1-2.1c0-1.1,0.9-2.1,2.1-2.1h9v-20.1c0-0.5,0.4-0.8,0.8-0.8h2.5
							c0.5,0,0.8,0.4,0.8,0.8v20.1h9c1.1,0,2.1,0.9,2.1,2.1C369.1,833.7,368.2,834.6,367,834.6z M344.8,832.2
							c-0.2,0-0.4,0.2-0.4,0.4s0.2,0.4,0.4,0.4H367c0.2,0,0.4-0.2,0.4-0.4s-0.2-0.4-0.4-0.4h-9.9c-0.5,0-0.8-0.4-0.8-0.8v-20.1h-0.8
							v20.1c0,0.5-0.4,0.8-0.8,0.8H344.8z"/>
					</g>
					<g>
						<g>
							<path class="st0" d="M380.1,804.5h-48.4c-0.2,0-0.4-0.1-0.6-0.3c-0.2-0.2-0.2-0.4-0.2-0.6l0.6-18.1c0-2.4,1.9-4.3,4.3-4.3
								H376c2.4,0,4.3,1.9,4.3,4.3l0.6,18.1c0,0.2-0.1,0.5-0.2,0.6C380.6,804.4,380.3,804.5,380.1,804.5z M332.6,802.8h46.7
								l-0.6-17.2c0-1.5-1.2-2.7-2.6-2.7h-40.2c-1.5,0-2.6,1.2-2.6,2.6L332.6,802.8z"/>
						</g>
						<g>
							<path class="st0" d="M378.7,809.5h-47c-1.8,0-3.1-2.5-3.3-3c-0.1-0.3-0.1-0.6,0.1-0.8c0.2-0.2,0.4-0.4,0.7-0.4h52
								c0.3,0,0.6,0.1,0.7,0.4c0.2,0.2,0.2,0.5,0.1,0.8C381.8,807,380.6,809.5,378.7,809.5z M330.7,807c0.4,0.5,0.8,0.8,1,0.8h47
								c0.3,0,0.7-0.4,1-0.8H330.7z"/>
						</g>
					</g>
				</g>
				<g>
					<g>
						<path class="st0" d="M336.6,782.9c-0.5,0-0.8-0.4-0.8-0.8v-2.8c0-2.4,1.9-4.3,4.3-4.3h5.4c0.5,0,0.8,0.4,0.8,0.8
							c0,0.5-0.4,0.8-0.8,0.8h-5.4c-1.4,0-2.6,1.2-2.6,2.6v2.8C337.5,782.5,337.1,782.9,336.6,782.9z"/>
					</g>
					<g>
						<path class="st0" d="M352.8,778.9h-5c-1.8,0-3.2-1.5-3.2-3.2c0-1.8,1.5-3.2,3.2-3.2h5c1.8,0,3.2,1.5,3.2,3.2
							C356.1,777.4,354.6,778.9,352.8,778.9z M347.8,774.1c-0.9,0-1.5,0.7-1.5,1.5c0,0.9,0.7,1.5,1.5,1.5h5c0.9,0,1.5-0.7,1.5-1.5
							c0-0.9-0.7-1.5-1.5-1.5H347.8z"/>
					</g>
				</g>
			</g>
			<g>
				<g>
					<path class="st0" d="M353.1,703.9h-26.1c-3.4,0-6.1-2.7-6.1-6.1v-21.1c0-3.4,2.7-6.1,6.1-6.1h26.1c3.4,0,6.1,2.7,6.1,6.1v21.1
						C359.2,701.2,356.4,703.9,353.1,703.9z M326.9,672.3c-2.4,0-4.4,2-4.4,4.4v21.1c0,2.4,2,4.4,4.4,4.4h26.1c2.4,0,4.4-2,4.4-4.4
						v-21.1c0-2.4-2-4.4-4.4-4.4H326.9z"/>
				</g>
				<g>
					<g>
						<path class="st0" d="M372.7,701.1c-0.1,0-0.2,0-0.4-0.1l-14.4-6.8c-0.3-0.1-0.5-0.4-0.5-0.8v-11.8c0-0.3,0.2-0.6,0.5-0.7
							l14.4-7.6c0.3-0.1,0.6-0.1,0.8,0c0.3,0.2,0.4,0.4,0.4,0.7v26.2c0,0.3-0.1,0.6-0.4,0.7C373,701,372.9,701.1,372.7,701.1z
							 M359.2,692.9l12.7,6v-23.5l-12.7,6.7V692.9z"/>
					</g>
					<g>
						<path class="st0" d="M370,699.8c-0.5,0-0.8-0.4-0.8-0.8v-23.5c0-0.5,0.4-0.8,0.8-0.8s0.8,0.4,0.8,0.8v23.5
							C370.9,699.4,370.5,699.8,370,699.8z"/>
					</g>
				</g>
			</g>
			<g>
				<g>
					<path class="st0" d="M532.3,897.3h-50c-0.5,0-0.8-0.4-0.8-0.8v-10.8c0-0.5,0.4-0.8,0.8-0.8c1.6,0,2.9-1.3,2.9-2.9
						c0-1.6-1.3-2.9-2.9-2.9c-0.5,0-0.8-0.4-0.8-0.8v-10.8c0-0.5,0.4-0.8,0.8-0.8h50c0.5,0,0.8,0.4,0.8,0.8v10.8
						c0,0.5-0.4,0.8-0.8,0.8c-1.6,0-2.9,1.3-2.9,2.9c0,1.6,1.3,2.9,2.9,2.9c0.5,0,0.8,0.4,0.8,0.8v10.8
						C533.1,897,532.8,897.3,532.3,897.3z M483.2,895.6h48.3v-9.2c-2.1-0.4-3.8-2.3-3.8-4.5c0-2.3,1.6-4.1,3.8-4.5v-9.2h-48.3v9.2
						c2.1,0.4,3.8,2.3,3.8,4.5c0,2.3-1.6,4.1-3.8,4.5V895.6z"/>
				</g>
				<g>
					<g>
						<path class="st0" d="M525.8,894.8c-0.5,0-0.8-0.4-0.8-0.8v-24.1c0-0.5,0.4-0.8,0.8-0.8c0.5,0,0.8,0.4,0.8,0.8V894
							C526.6,894.4,526.3,894.8,525.8,894.8z"/>
					</g>
					<g>
						<path class="st0" d="M489.2,894.8c-0.5,0-0.8-0.4-0.8-0.8v-24.1c0-0.5,0.4-0.8,0.8-0.8c0.5,0,0.8,0.4,0.8,0.8V894
							C490,894.4,489.6,894.8,489.2,894.8z"/>
					</g>
				</g>
			</g>
			<g>
				<g>
					<path class="st0" d="M588,849.4h-32.5c-0.5,0-0.8-0.4-0.8-0.8v-16.8l-1.5,0c-0.8,0-1.4-0.5-1.7-1.1c-0.3-0.7-0.1-1.5,0.4-2
						l19.5-19.7c0.2-0.2,0.4-0.2,0.6-0.3c0.2,0,0.4,0.1,0.6,0.3l18.9,19.7c0.5,0.5,0.7,1.3,0.4,2s-1,1.1-1.7,1.1h-1.3v16.8
						C588.8,849,588.4,849.4,588,849.4z M556.3,847.7h30.8v-16.8c0-0.5,0.4-0.8,0.8-0.8h2.1c0.1,0,0.1,0,0.2-0.1c0-0.1,0-0.1,0-0.2
						l-18.3-19l-18.9,19c0,0-0.1,0.1,0,0.2c0,0.1,0.1,0.1,0.2,0.1l2.4,0c0.5,0,0.8,0.4,0.8,0.8V847.7z"/>
				</g>
				<g>
					<path class="st0" d="M558.7,823.6c-0.1,0-0.2,0-0.3-0.1c-0.3-0.1-0.5-0.4-0.5-0.8v-7c-0.4-0.1-0.7-0.4-0.7-0.8v-2.1
						c0-0.5,0.4-0.8,0.8-0.8h6.1c0.5,0,0.8,0.4,0.8,0.8v2.1c0,0.4-0.3,0.8-0.7,0.8v2.4c0,0.2-0.1,0.4-0.2,0.6l-4.6,4.7
						C559.1,823.5,558.9,823.6,558.7,823.6z M558.8,814.1c0.4,0.1,0.7,0.4,0.7,0.8v5.8l2.9-3v-2.8c0-0.4,0.3-0.8,0.7-0.8v-0.4h-4.4
						V814.1z"/>
				</g>
				<g>
					<g>
						<path class="st0" d="M576.7,849.4h-9.9c-0.5,0-0.8-0.4-0.8-0.8v-14.7c0-0.5,0.4-0.8,0.8-0.8h9.9c0.5,0,0.8,0.4,0.8,0.8v14.7
							C577.5,849,577.1,849.4,576.7,849.4z M567.6,847.7h8.3v-13h-8.3V847.7z"/>
					</g>
					<g>
						<path class="st0" d="M572.8,831.5h-2.1c-1.2,0-2.2-1-2.2-2.2v-2.1c0-1.2,1-2.2,2.2-2.2h2.1c1.2,0,2.2,1,2.2,2.2v2.1
							C574.9,830.5,574,831.5,572.8,831.5z M570.6,826.7c-0.3,0-0.5,0.2-0.5,0.5v2.1c0,0.3,0.2,0.5,0.5,0.5h2.1
							c0.3,0,0.5-0.2,0.5-0.5v-2.1c0-0.3-0.2-0.5-0.5-0.5H570.6z"/>
					</g>
				</g>
			</g>
			<g>
				<g>
					<path class="st0" d="M756.5,420.5c-0.2,0-0.5-0.1-0.6-0.3l-9-10c-0.3-0.3-0.3-0.9,0.1-1.2c0.3-0.3,0.9-0.3,1.2,0.1l7.5,8.3
						v-21.7c0-0.5,0.4-0.8,0.8-0.8c0.5,0,0.8,0.4,0.8,0.8v23.9c0,0.3-0.2,0.7-0.5,0.8C756.7,420.5,756.6,420.5,756.5,420.5z"/>
				</g>
				<g>
					<path class="st0" d="M756.5,420.5c-0.2,0-0.4-0.1-0.6-0.2c-0.4-0.3-0.4-0.8-0.1-1.2l8.5-9.8c0.3-0.4,0.8-0.4,1.2-0.1
						c0.4,0.3,0.4,0.8,0.1,1.2l-8.5,9.8C756.9,420.4,756.7,420.5,756.5,420.5z"/>
				</g>
			</g>
			<g>
				<g>
					<path class="st0" d="M560.7,909.7c-0.5,0-0.8-0.4-0.8-0.8v-28.1c0-0.3,0.2-0.7,0.5-0.8c0.3-0.1,0.7,0,0.9,0.2l10.6,11.7
						c0.3,0.3,0.3,0.9-0.1,1.2c-0.3,0.3-0.9,0.3-1.2-0.1l-9.1-10.1v25.9C561.5,909.3,561.2,909.7,560.7,909.7z"/>
				</g>
				<g>
					<path class="st0" d="M550.7,893.1c-0.2,0-0.4-0.1-0.6-0.2c-0.4-0.3-0.4-0.8-0.1-1.2l10-11.5c0.3-0.4,0.8-0.4,1.2-0.1
						c0.4,0.3,0.4,0.8,0.1,1.2l-10,11.5C551.2,893,551,893.1,550.7,893.1z"/>
				</g>
			</g>
			<g>
				<g>
					<path class="st0" d="M775.1,597.5c-0.2,0-0.5-0.1-0.6-0.3c-0.3-0.3-0.3-0.9,0.1-1.2l10.2-9.3h-26.2c-0.5,0-0.8-0.4-0.8-0.8
						s0.4-0.8,0.8-0.8H787c0.3,0,0.7,0.2,0.8,0.5c0.1,0.3,0,0.7-0.2,0.9l-11.9,10.7C775.5,597.4,775.3,597.5,775.1,597.5z"/>
				</g>
				<g>
					<path class="st0" d="M787,586.7c-0.2,0-0.4-0.1-0.6-0.2l-11.6-10.1c-0.4-0.3-0.4-0.8-0.1-1.2c0.3-0.4,0.8-0.4,1.2-0.1
						l11.6,10.1c0.4,0.3,0.4,0.8,0.1,1.2C787.4,586.6,787.2,586.7,787,586.7z"/>
				</g>
			</g>
			<g>
				<g>
					<path class="st0" d="M372.3,649.3h-19.9c-3.9,0-7-3.1-7-7v-19.9c0-3.9,3.1-7,7-7h19.9c3.9,0,7,3.1,7,7v19.9
						C379.3,646.2,376.2,649.3,372.3,649.3z M352.4,617.1c-2.9,0-5.3,2.4-5.3,5.3v19.9c0,2.9,2.4,5.3,5.3,5.3h19.9
						c2.9,0,5.3-2.4,5.3-5.3v-19.9c0-2.9-2.4-5.3-5.3-5.3H352.4z"/>
				</g>
				<g>
					<path class="st0" d="M376.5,623.6c-3.1,0-5.7-2.6-5.7-5.7c0-3.1,2.6-5.7,5.7-5.7c3.1,0,5.7,2.6,5.7,5.7
						C382.2,621.1,379.7,623.6,376.5,623.6z M376.5,613.9c-2.2,0-4,1.8-4,4s1.8,4,4,4s4-1.8,4-4S378.7,613.9,376.5,613.9z"/>
				</g>
			</g>
			<g>
				<g>
					<path class="st0" d="M706,865.4c-0.1,0-0.1,0-0.2,0l-31.2-7c-0.5-0.1-0.7-0.6-0.6-1c0.1-0.5,0.6-0.7,1-0.6l31.2,7
						c0.5,0.1,0.7,0.6,0.6,1C706.7,865.2,706.4,865.4,706,865.4z"/>
				</g>
				<g>
					<g>
						<path class="st0" d="M710.3,896.4h-36.3c-2.3,0-4.2-1.9-4.2-4.2v-24.3c0-2.3,1.9-4.2,4.2-4.2h36.3c2.3,0,4.2,1.9,4.2,4.2v24.3
							C714.5,894.5,712.6,896.4,710.3,896.4z M674.1,865.4c-1.4,0-2.5,1.1-2.5,2.5v24.3c0,1.4,1.1,2.5,2.5,2.5h36.3
							c1.4,0,2.5-1.1,2.5-2.5v-24.3c0-1.4-1.1-2.5-2.5-2.5H674.1z"/>
					</g>
					<g>
						<g>
							<path class="st0" d="M706.6,874.3c-1.7,0-3.1-1.4-3.1-3.1c0-1.7,1.4-3.1,3.1-3.1c1.7,0,3.1,1.4,3.1,3.1
								C709.7,872.9,708.3,874.3,706.6,874.3z M706.6,869.7c-0.8,0-1.4,0.6-1.4,1.4s0.6,1.4,1.4,1.4s1.4-0.6,1.4-1.4
								S707.3,869.7,706.6,869.7z"/>
						</g>
						<g>
							<path class="st0" d="M706.6,882.4c-1.7,0-3.1-1.4-3.1-3.1c0-1.7,1.4-3.1,3.1-3.1c1.7,0,3.1,1.4,3.1,3.1
								C709.7,881,708.3,882.4,706.6,882.4z M706.6,877.9c-0.8,0-1.4,0.6-1.4,1.4c0,0.8,0.6,1.4,1.4,1.4s1.4-0.6,1.4-1.4
								C708,878.5,707.3,877.9,706.6,877.9z"/>
						</g>
					</g>
				</g>
			</g>
			<g>
				<g>
					<g>
						<path class="st0" d="M711.3,838.3h-11.8c-4.6,0-8.3-3.7-8.3-8.3c0-4.6,3.7-8.3,8.3-8.3h11.8c4.6,0,8.3,3.7,8.3,8.3
							C719.6,834.6,715.9,838.3,711.3,838.3z M699.4,823.4c-3.7,0-6.6,3-6.6,6.6c0,3.7,3,6.6,6.6,6.6h11.8c3.7,0,6.6-3,6.6-6.6
							c0-3.7-3-6.6-6.6-6.6H699.4z"/>
					</g>
					<g>
						<path class="st0" d="M711.1,838.5c-4.7,0-8.5-3.8-8.5-8.5s3.8-8.5,8.5-8.5s8.5,3.8,8.5,8.5S715.8,838.5,711.1,838.5z
							 M711.1,823.2c-3.7,0-6.8,3-6.8,6.8c0,3.7,3,6.8,6.8,6.8c3.7,0,6.8-3,6.8-6.8C717.9,826.2,714.9,823.2,711.1,823.2z"/>
					</g>
				</g>
				<g>
					<g>
						<path class="st0" d="M711.3,817.3h-11.8c-4.6,0-8.3-3.7-8.3-8.3c0-4.6,3.7-8.3,8.3-8.3h11.8c4.6,0,8.3,3.7,8.3,8.3
							C719.6,813.6,715.9,817.3,711.3,817.3z M699.4,802.3c-3.7,0-6.6,3-6.6,6.6c0,3.7,3,6.6,6.6,6.6h11.8c3.7,0,6.6-3,6.6-6.6
							c0-3.7-3-6.6-6.6-6.6H699.4z"/>
					</g>
					<g>
						<path class="st0" d="M699.6,817.4c-4.7,0-8.5-3.8-8.5-8.5s3.8-8.5,8.5-8.5s8.5,3.8,8.5,8.5S704.2,817.4,699.6,817.4z
							 M699.6,802.2c-3.7,0-6.8,3-6.8,6.8c0,3.7,3,6.8,6.8,6.8c3.7,0,6.8-3,6.8-6.8C706.3,805.2,703.3,802.2,699.6,802.2z"/>
					</g>
				</g>
			</g>
			<g>
				<g>
					<path class="st0" d="M398.2,399.7h-8c-0.5,0-0.8-0.4-0.8-0.8s0.4-0.8,0.8-0.8h7.1v-17.9H365V398h7.3c0.5,0,0.8,0.4,0.8,0.8
						s-0.4,0.8-0.8,0.8h-8.1c-0.5,0-0.8-0.4-0.8-0.8v-19.6c0-0.5,0.4-0.8,0.8-0.8h34.1c0.5,0,0.8,0.4,0.8,0.8v19.6
						C399.1,399.3,398.7,399.7,398.2,399.7z"/>
				</g>
				<g>
					<path class="st0" d="M394,408.4h-25.4c-0.3,0-0.6-0.2-0.8-0.5s-0.1-0.7,0.1-0.9l12.6-14.4c0.2-0.2,0.4-0.3,0.6-0.3c0,0,0,0,0,0
						c0.2,0,0.5,0.1,0.6,0.3l12.8,14.4c0.2,0.2,0.3,0.6,0.1,0.9C394.6,408.2,394.3,408.4,394,408.4z M370.5,406.7h21.6l-10.9-12.3
						L370.5,406.7z"/>
				</g>
			</g>
			<g>
				<g>
					<path class="st0" d="M326.5,436.1c-0.5,0-0.8-0.4-0.8-0.8v-49.8c0-0.5,0.4-0.8,0.8-0.8c0.5,0,0.8,0.4,0.8,0.8v49.8
						C327.4,435.7,327,436.1,326.5,436.1z"/>
				</g>
				<g>
					<path class="st0" d="M324,421.7c-0.5,0-0.8-0.4-0.8-0.8v-21c0-0.5,0.4-0.8,0.8-0.8c0.5,0,0.8,0.4,0.8,0.8v21
						C324.8,421.4,324.4,421.7,324,421.7z"/>
				</g>
				<g>
					<path class="st0" d="M321.4,417.1c-0.5,0-0.8-0.4-0.8-0.8v-11.7c0-0.5,0.4-0.8,0.8-0.8s0.8,0.4,0.8,0.8v11.7
						C322.3,416.7,321.9,417.1,321.4,417.1z"/>
				</g>
				<g>
					<path class="st0" d="M318.9,413.3c-0.5,0-0.8-0.4-0.8-0.8v-4.1c0-0.5,0.4-0.8,0.8-0.8c0.5,0,0.8,0.4,0.8,0.8v4.1
						C319.7,412.9,319.4,413.3,318.9,413.3z"/>
				</g>
				<g>
					<path class="st0" d="M329,427.7c-0.5,0-0.8-0.4-0.8-0.8v-32.9c0-0.5,0.4-0.8,0.8-0.8c0.5,0,0.8,0.4,0.8,0.8v32.9
						C329.9,427.3,329.5,427.7,329,427.7z"/>
				</g>
				<g>
					<path class="st0" d="M331.6,420.9c-0.5,0-0.8-0.4-0.8-0.8v-19.3c0-0.5,0.4-0.8,0.8-0.8s0.8,0.4,0.8,0.8V420
						C332.4,420.5,332.1,420.9,331.6,420.9z"/>
				</g>
				<g>
					<path class="st0" d="M334.1,414.1c-0.5,0-0.8-0.4-0.8-0.8v-5.8c0-0.5,0.4-0.8,0.8-0.8c0.5,0,0.8,0.4,0.8,0.8v5.8
						C335,413.7,334.6,414.1,334.1,414.1z"/>
				</g>
				<g>
					<path class="st0" d="M336.7,417.5c-0.5,0-0.8-0.4-0.8-0.8v-12.5c0-0.5,0.4-0.8,0.8-0.8c0.5,0,0.8,0.4,0.8,0.8v12.5
						C337.5,417.1,337.1,417.5,336.7,417.5z"/>
				</g>
				<g>
					<path class="st0" d="M339.2,415.8c-0.5,0-0.8-0.4-0.8-0.8v-9.2c0-0.5,0.4-0.8,0.8-0.8s0.8,0.4,0.8,0.8v9.2
						C340,415.4,339.7,415.8,339.2,415.8z"/>
				</g>
				<g>
					<path class="st0" d="M341.7,413.3c-0.5,0-0.8-0.4-0.8-0.8v-4.1c0-0.5,0.4-0.8,0.8-0.8c0.5,0,0.8,0.4,0.8,0.8v4.1
						C342.6,412.9,342.2,413.3,341.7,413.3z"/>
				</g>
			</g>
			<g>
				<g>
					<g>
						<path class="st0" d="M437.9,705.2h-39.8c-3.1,0-5.5-2.5-5.5-5.5v-17.4c0-3.1,2.5-5.5,5.5-5.5h39.8c3.1,0,5.5,2.5,5.5,5.5v17.4
							C443.5,702.7,441,705.2,437.9,705.2z M398.2,678.4c-2.1,0-3.9,1.7-3.9,3.9v17.4c0,2.1,1.7,3.9,3.9,3.9h39.8
							c2.1,0,3.9-1.7,3.9-3.9v-17.4c0-2.1-1.7-3.9-3.9-3.9H398.2z"/>
					</g>
					<g>
						<path class="st0" d="M433.7,678.4h-31.3c-0.5,0-0.8-0.4-0.8-0.8V674c0-0.5,0.4-0.8,0.8-0.8h31.3c0.5,0,0.8,0.4,0.8,0.8v3.5
							C434.6,678,434.2,678.4,433.7,678.4z M403.3,676.7h29.6v-1.8h-29.6V676.7z"/>
					</g>
				</g>
				<g>
					<path class="st0" d="M433.7,718.6h-31.3c-0.5,0-0.8-0.4-0.8-0.8V691c0-0.5,0.4-0.8,0.8-0.8h31.3c0.5,0,0.8,0.4,0.8,0.8v26.8
						C434.6,718.3,434.2,718.6,433.7,718.6z M403.3,716.9h29.6v-25.1h-29.6V716.9z"/>
				</g>
			</g>
			<g>
				<g>
					<path class="st0" d="M722.2,699.3c-0.3,0-0.5-0.1-0.8-0.2c-0.5-0.3-0.7-0.8-0.7-1.3v-18c0-0.5,0.3-1,0.7-1.3
						c0.5-0.3,1-0.3,1.5,0l16.3,9c0.5,0.3,0.8,0.8,0.8,1.3c0,0.6-0.3,1.1-0.8,1.3l-16.3,9C722.7,699.3,722.5,699.3,722.2,699.3z
						 M722.4,680.1v17.4l15.8-8.7L722.4,680.1z"/>
				</g>
				<g>
					<path class="st0" d="M740.1,709.4h-22.2c-5.3,0-9.5-4.3-9.5-9.5v-22.2c0-5.3,4.3-9.5,9.5-9.5h22.2c5.3,0,9.5,4.3,9.5,9.5v22.2
						C749.7,705.2,745.4,709.4,740.1,709.4z M717.9,669.9c-4.3,0-7.8,3.5-7.8,7.8v22.2c0,4.3,3.5,7.8,7.8,7.8h22.2
						c4.3,0,7.8-3.5,7.8-7.8v-22.2c0-4.3-3.5-7.8-7.8-7.8H717.9z"/>
				</g>
			</g>
			<g>
				<g>
					<path class="st0" d="M782,537.3h-24c-4.5,0-8.2-3.7-8.2-8.2c0-4,2.9-7.3,6.7-8.1c-0.1-0.5-0.1-1-0.1-1.4
						c0-7.4,6.1-13.5,13.5-13.5c5.3,0,10.1,3.1,12.3,7.9c6.4,0.1,11.5,5.3,11.5,11.6C793.6,532.1,788.4,537.3,782,537.3z
						 M769.9,507.8c-6.5,0-11.8,5.3-11.8,11.8c0,0.6,0.1,1.3,0.2,2c0,0.2,0,0.5-0.2,0.7c-0.1,0.2-0.4,0.3-0.6,0.3
						c-3.4,0.3-6,3.1-6,6.5c0,3.6,2.9,6.5,6.5,6.5h24c5.5,0,10-4.5,10-10c0-5.5-4.5-10-10-10c-0.1,0-0.1,0-0.2,0l-0.2,0
						c-0.3,0-0.7-0.2-0.8-0.5C779,510.7,774.7,507.8,769.9,507.8z"/>
				</g>
				<g>
					<path class="st0" d="M780.9,540.2c-0.4-0.4-0.9-0.4-1.3,0l-7.1,7.1v-21.4c0-0.5-0.4-0.9-0.9-0.9s-0.9,0.4-0.9,0.9v21.4
						l-7.1-7.1c-0.4-0.4-0.9-0.4-1.3,0c-0.4,0.4-0.4,0.9,0,1.3l8.7,8.7c0.1,0.1,0.2,0.2,0.3,0.2c0.1,0,0.2,0.1,0.4,0.1
						c0.1,0,0.2,0,0.4-0.1c0.1,0,0.2-0.1,0.3-0.2l8.7-8.7C781.2,541.2,781.2,540.6,780.9,540.2z"/>
				</g>
			</g>
			<g>
				<g>
					<path class="st0" d="M330.2,564.2h-24c-4.5,0-8.2-3.7-8.2-8.2c0-4,2.9-7.3,6.7-8.1c-0.1-0.5-0.1-1-0.1-1.4
						c0-7.4,6.1-13.5,13.5-13.5c5.3,0,10.1,3.1,12.3,7.9c6.4,0.1,11.5,5.3,11.5,11.6C341.9,558.9,336.6,564.2,330.2,564.2z
						 M318.1,534.6c-6.5,0-11.8,5.3-11.8,11.8c0,0.6,0.1,1.3,0.2,2c0,0.2,0,0.5-0.2,0.7c-0.1,0.2-0.4,0.3-0.6,0.3
						c-3.4,0.3-6,3.1-6,6.5c0,3.6,2.9,6.5,6.5,6.5h24c5.5,0,10-4.5,10-10c0-5.5-4.5-10-10-10c-0.1,0-0.1,0-0.2,0l-0.2,0
						c-0.3,0-0.7-0.2-0.8-0.5C327.2,537.5,322.9,534.6,318.1,534.6z"/>
				</g>
				<g>
					<path class="st0" d="M310.4,559.6c0.4,0.4,0.9,0.4,1.3,0l7.1-7.1v21.4c0,0.5,0.4,0.9,0.9,0.9s0.9-0.4,0.9-0.9v-21.4l7.1,7.1
						c0.4,0.4,0.9,0.4,1.3,0c0.4-0.4,0.4-0.9,0-1.3l-8.7-8.7c-0.1-0.1-0.2-0.2-0.3-0.2c-0.1,0-0.2-0.1-0.4-0.1c-0.1,0-0.2,0-0.4,0.1
						c-0.1,0-0.2,0.1-0.3,0.2l-8.7,8.7C310.1,558.7,310.1,559.2,310.4,559.6z"/>
				</g>
			</g>
			<g>
				<g>
					<path class="st0" d="M770,833.2V867h-26.3v-33.8H770 M771.7,831.5H770h-26.3H742v1.7V867v1.7h1.7H770h1.7V867v-33.8V831.5
						L771.7,831.5z"/>
				</g>
				<g>
					<path class="st0" d="M764.6,838.6v33.8h-26.3v-33.8H764.6 M766.3,836.9h-1.7h-26.3h-1.7v1.7v33.8v1.7h1.7h26.3h1.7v-1.7v-33.8
						V836.9L766.3,836.9z"/>
				</g>
			</g>
			<g>
				<g>
					<path class="st0" d="M323.7,642.2l-18-2.9l-18,2.9v-43.5h36V642.2z M305.6,637.6l16.3,2.6v-39.8h-32.7v39.8L305.6,637.6z"/>
				</g>
				<g>
					<path class="st0" d="M312.1,629.8c-0.2,0-0.3-0.1-0.5-0.2l-6-4.3l-6,4.3c-0.3,0.2-0.7,0.2-1,0c-0.3-0.2-0.4-0.6-0.3-0.9l2.3-7
						l-6-4.3c-0.3-0.2-0.4-0.6-0.3-0.9c0.1-0.3,0.4-0.6,0.8-0.6h7.4l2.3-7c0.1-0.3,0.4-0.6,0.8-0.6c0.4,0,0.7,0.2,0.8,0.6l2.3,7h7.4
						c0.4,0,0.7,0.2,0.8,0.6c0.1,0.3,0,0.7-0.3,0.9l-6,4.3l2.3,7c0.1,0.3,0,0.7-0.3,0.9C312.5,629.8,312.3,629.8,312.1,629.8z
						 M305.6,623.5c0.2,0,0.3,0.1,0.5,0.2l4.4,3.2l-1.7-5.1c-0.1-0.3,0-0.7,0.3-0.9l4.4-3.2h-5.4c-0.4,0-0.7-0.2-0.8-0.6l-1.7-5.1
						L304,617c-0.1,0.3-0.4,0.6-0.8,0.6h-5.4l4.4,3.2c0.3,0.2,0.4,0.6,0.3,0.9l-1.7,5.1l4.4-3.2
						C305.3,623.5,305.5,623.5,305.6,623.5z"/>
				</g>
			</g>
			<g>
				<g>
					<polygon class="st0" points="329.9,500.9 301.5,500.9 301.5,473.8 318,473.8 318,475.5 303.1,475.5 303.1,499.2 328.3,499.2 
						328.3,489.2 329.9,489.2 					"/>
				</g>
				<g>
					<g>
						<path class="st0" d="M317.6,489.8c-0.4,0-0.8-0.3-0.8-0.7c0-0.1-0.6-3.7,2-6.8c2.4-2.8,6.5-4.2,12.3-4.2
							c0.5,0,0.8,0.4,0.8,0.8s-0.4,0.8-0.8,0.8c-5.3,0-9,1.2-11,3.6c-2.1,2.5-1.7,5.4-1.7,5.4c0.1,0.5-0.2,0.9-0.7,1
							C317.7,489.8,317.6,489.8,317.6,489.8z"/>
					</g>
					<g>
						<path class="st0" d="M327.3,484.8c-0.2,0-0.5-0.1-0.6-0.3c-0.3-0.4-0.3-0.9,0.1-1.2l5.2-4.4l-5.3-5c-0.3-0.3-0.4-0.9,0-1.2
							c0.3-0.3,0.9-0.4,1.2,0l6,5.7c0.2,0.2,0.3,0.4,0.3,0.6c0,0.2-0.1,0.5-0.3,0.6l-6,5C327.7,484.8,327.5,484.8,327.3,484.8z"/>
					</g>
				</g>
			</g>
			<g>
				<g>
					<path class="st0" d="M293.8,787.9c-1.7,0-3.1-1.4-3.1-3.1c0-1.7,1.4-3.1,3.1-3.1c1.7,0,3.1,1.4,3.1,3.1
						C296.9,786.5,295.5,787.9,293.8,787.9z M293.8,783.4c-0.8,0-1.4,0.6-1.4,1.4s0.6,1.4,1.4,1.4c0.8,0,1.4-0.6,1.4-1.4
						S294.6,783.4,293.8,783.4z"/>
				</g>
				<g>
					<path class="st0" d="M301.4,787.9c-1.7,0-3.1-1.4-3.1-3.1c0-1.7,1.4-3.1,3.1-3.1c1.7,0,3.1,1.4,3.1,3.1
						C304.5,786.5,303.1,787.9,301.4,787.9z M301.4,783.4c-0.8,0-1.4,0.6-1.4,1.4s0.6,1.4,1.4,1.4c0.8,0,1.4-0.6,1.4-1.4
						S302.2,783.4,301.4,783.4z"/>
				</g>
				<g>
					<path class="st0" d="M309,787.9c-1.7,0-3.1-1.4-3.1-3.1c0-1.7,1.4-3.1,3.1-3.1c1.7,0,3.1,1.4,3.1,3.1
						C312.1,786.5,310.7,787.9,309,787.9z M309,783.4c-0.8,0-1.4,0.6-1.4,1.4s0.6,1.4,1.4,1.4c0.8,0,1.4-0.6,1.4-1.4
						S309.8,783.4,309,783.4z"/>
				</g>
			</g>
			<g>
				<g>
					<path class="st0" d="M634.8,382.7C634.7,382.7,634.7,382.7,634.8,382.7c-0.5,0-0.8-0.3-0.8-0.7l-2.9-14.3l-14.3-4
						c-0.4-0.1-0.6-0.4-0.6-0.8c0-0.4,0.2-0.7,0.6-0.8l30.1-10.3c0.3-0.1,0.7,0,0.9,0.2c0.2,0.2,0.3,0.6,0.2,0.9l-12.3,29.2
						C635.4,382.5,635.1,382.7,634.8,382.7z M619.8,362.9l12.1,3.4c0.3,0.1,0.5,0.3,0.6,0.6l2.5,12.1l10.5-24.9L619.8,362.9z"/>
				</g>
				<g>
					<path class="st0" d="M631.7,367.9c-0.2,0-0.4-0.1-0.6-0.3c-0.3-0.3-0.3-0.9,0-1.2l15.3-14.4c0.3-0.3,0.9-0.3,1.2,0
						c0.3,0.3,0.3,0.9,0,1.2l-15.3,14.4C632.2,367.8,632,367.9,631.7,367.9z"/>
				</g>
			</g>
			<g>
				<g>
					<g>
						<path class="st0" d="M433,381.7c-6.6,0-12.6-4.2-14.9-10.4c-0.2-0.4,0.1-0.9,0.5-1.1c0.4-0.2,0.9,0.1,1.1,0.5
							c2,5.6,7.4,9.3,13.3,9.3c7.8,0,14.2-6.4,14.2-14.2c0-0.4,0-0.9-0.1-1.3c0-0.5,0.3-0.9,0.8-0.9c0.5,0,0.9,0.3,0.9,0.8
							c0,0.5,0.1,1,0.1,1.5C448.8,374.6,441.7,381.7,433,381.7z"/>
					</g>
					<g>
						<path class="st0" d="M452.9,367.5c-0.2,0-0.4-0.1-0.5-0.2l-4.4-3.7l-4.2,3.7c-0.3,0.3-0.9,0.3-1.2-0.1
							c-0.3-0.4-0.3-0.9,0.1-1.2l4.7-4.2c0.3-0.3,0.8-0.3,1.1,0l4.9,4.2c0.4,0.3,0.4,0.8,0.1,1.2
							C453.4,367.4,453.1,367.5,452.9,367.5z"/>
					</g>
				</g>
				<g>
					<g>
						<path class="st0" d="M418,366.7c-0.5,0-0.8-0.4-0.8-0.8c0-8.7,7.1-15.9,15.9-15.9c6.1,0,11.6,3.4,14.2,8.9
							c0.2,0.4,0,0.9-0.4,1.1c-0.4,0.2-0.9,0-1.1-0.4c-2.4-4.9-7.3-7.9-12.7-7.9c-7.8,0-14.2,6.4-14.2,14.2
							C418.8,366.3,418.4,366.7,418,366.7z"/>
					</g>
					<g>
						<path class="st0" d="M418.1,368.2c-0.2,0-0.4-0.1-0.5-0.2l-4.9-4.2c-0.4-0.3-0.4-0.8-0.1-1.2c0.3-0.4,0.8-0.4,1.2-0.1l4.4,3.7
							l4.2-3.7c0.4-0.3,0.9-0.3,1.2,0.1c0.3,0.4,0.3,0.9-0.1,1.2l-4.7,4.2C418.5,368.1,418.3,368.2,418.1,368.2z"/>
					</g>
				</g>
			</g>
			<g>
				<g>
					<path class="st0" d="M715.7,387.9c-4.3,0-7.9-3.5-7.9-7.9c0-4.3,3.5-7.9,7.9-7.9c4.3,0,7.9,3.5,7.9,7.9
						C723.5,384.4,720,387.9,715.7,387.9z M715.7,373.9c-3.4,0-6.2,2.8-6.2,6.2c0,3.4,2.8,6.2,6.2,6.2c3.4,0,6.2-2.8,6.2-6.2
						C721.8,376.7,719.1,373.9,715.7,373.9z"/>
				</g>
				<g>
					<path class="st0" d="M715.7,407.8c-0.8,0-1.5-0.5-1.7-1.3c-0.7-2.4-1.9-5.8-4.3-8.6c-2.8-3.3-5.1-6.8-6.5-9.1
						c-0.5-0.8-1-1.6-1.5-2.5c-0.9-2-1.3-4.1-1.3-6.2c0-8.4,6.9-15.3,15.3-15.3c8.4,0,15.3,6.9,15.3,15.3c0,2.1-0.4,4.2-1.3,6.2
						c0,0,0,0,0,0l-0.8-0.4l0.7,0.4c-0.4,0.9-0.9,1.7-1.5,2.6c-1.4,2.3-3.6,5.7-6.4,9c-2.4,2.8-3.7,6.2-4.3,8.6
						C717.1,407.3,716.5,407.8,715.7,407.8z M703.3,385.6c0.4,0.8,0.8,1.6,1.3,2.3c1.4,2.3,3.6,5.7,6.4,8.9c2.6,3,4,6.7,4.7,9.3
						l0.9,0.2l-0.8-0.2c0.7-2.5,2.1-6.2,4.7-9.3c2.8-3.3,5-6.6,6.3-8.9c0.6-0.8,1-1.6,1.4-2.4l0.8,0.3l-0.8-0.3
						c0.8-1.8,1.2-3.6,1.2-5.5c0-7.5-6.1-13.6-13.6-13.6s-13.6,6.1-13.6,13.6C702.1,382,702.5,383.8,703.3,385.6
						C703.3,385.6,703.3,385.6,703.3,385.6z"/>
				</g>
			</g>
			<g>
				<g>
					<path class="st0" d="M504.1,364.4c-15,0-21-12.2-21.1-12.3l-0.2-0.4l0.2-0.4c0.1-0.1,5.8-12.3,20.8-12.3
						c15,0,21,12.2,21.1,12.3l0.2,0.4l-0.2,0.4C524.8,352.2,519.1,364.4,504.1,364.4z M484.7,351.7c1.1,2,6.7,11,19.4,11
						c12.5,0,18.1-9.1,19.1-11c-1.1-2-6.7-11-19.4-11C491.3,340.7,485.8,349.8,484.7,351.7z"/>
				</g>
				<g>
					<g>
						<path class="st0" d="M504,356.5c-2.6,0-4.8-2.2-4.8-4.8c0-2.6,2.2-4.8,4.8-4.8c2.6,0,4.8,2.2,4.8,4.8
							C508.8,354.4,506.6,356.5,504,356.5z M504,348.6c-1.7,0-3.1,1.4-3.1,3.1c0,1.7,1.4,3.1,3.1,3.1s3.1-1.4,3.1-3.1
							C507.1,350,505.7,348.6,504,348.6z"/>
					</g>
					<g>
						<path class="st0" d="M504,359.9c-4.5,0-8.2-3.7-8.2-8.2c0-4.5,3.7-8.2,8.2-8.2c4.5,0,8.2,3.7,8.2,8.2
							C512.1,356.2,508.5,359.9,504,359.9z M504,345.2c-3.6,0-6.5,2.9-6.5,6.5s2.9,6.5,6.5,6.5s6.5-2.9,6.5-6.5
							S507.5,345.2,504,345.2z"/>
					</g>
				</g>
			</g>
			<g>
				<g>
					<path class="st0" d="M311.6,746.2c-2.5,0-5.3-0.3-8.5-1.3c-10-3.1-16-0.1-16.1-0.1c-0.3,0.1-0.6,0.1-0.8,0
						c-0.3-0.2-0.4-0.4-0.4-0.7v-21.6c0-0.3,0.2-0.6,0.5-0.7c0.3-0.1,6.6-3.3,17.3-0.1c10,3.1,16.8-0.6,16.9-0.6
						c0.3-0.1,0.6-0.1,0.8,0c0.3,0.2,0.4,0.4,0.4,0.7v21.6c0,0.3-0.2,0.6-0.4,0.7C321.1,744.3,317.5,746.2,311.6,746.2z
						 M294.3,741.8c2.6,0,5.7,0.4,9.3,1.5c8.6,2.6,14.8,0.3,16.5-0.4v-19.7c-2.5,1-8.7,2.7-17,0.2c-8.5-2.6-14-0.9-15.6-0.3v19.7
						C288.8,742.4,291.1,741.8,294.3,741.8z"/>
				</g>
				<g>
					<path class="st0" d="M286.6,763.8c-0.5,0-0.8-0.4-0.8-0.8v-25.2c0-0.5,0.4-0.8,0.8-0.8s0.8,0.4,0.8,0.8V763
						C287.5,763.4,287.1,763.8,286.6,763.8z"/>
				</g>
			</g>
			<g>
				<g>
					<path class="st0" d="M775.4,675.9c-7.3,0-13.3-5.9-13.3-13.3c0-7.3,5.9-13.3,13.3-13.3c7.3,0,13.3,5.9,13.3,13.3
						C788.6,669.9,782.7,675.9,775.4,675.9z M775.4,651.1c-6.4,0-11.6,5.2-11.6,11.6c0,6.4,5.2,11.6,11.6,11.6
						c6.4,0,11.6-5.2,11.6-11.6C786.9,656.3,781.7,651.1,775.4,651.1z"/>
				</g>
				<g>
					<path class="st0" d="M794.4,682.9c-0.3,0-0.6-0.1-0.9-0.4l-10.3-10.3c-0.5-0.5-0.5-1.3,0-1.8s1.3-0.5,1.8,0l10.3,10.3
						c0.5,0.5,0.5,1.3,0,1.8C795.1,682.8,794.7,682.9,794.4,682.9z"/>
				</g>
			</g>
			<g>
				<g>
					<path class="st0" d="M413.3,891.8H366c-0.5,0-0.8-0.4-0.8-0.8v-20.6c0-0.5,0.4-0.8,0.8-0.8h15.9c0.5,0,0.8,0.4,0.8,0.8
						c0,3.8,3.1,6.8,6.8,6.8c3.8,0,6.8-3.1,6.8-6.8c0-0.5,0.4-0.8,0.8-0.8h15.9c0.5,0,0.8,0.4,0.8,0.8V891
						C414.1,891.5,413.7,891.8,413.3,891.8z M366.8,890.2h45.6v-18.9h-14.3c-0.4,4.3-4.1,7.7-8.5,7.7c-4.4,0-8.1-3.4-8.5-7.7h-14.3
						V890.2z"/>
				</g>
				<g>
					<path class="st0" d="M413.3,871.2c-0.2,0-0.5-0.1-0.6-0.3l-9.6-11.2h-25.9L366.6,871c-0.3,0.3-0.9,0.4-1.2,0
						c-0.3-0.3-0.4-0.9,0-1.2l10.7-11.5c0.2-0.2,0.4-0.3,0.6-0.3h26.7c0.2,0,0.5,0.1,0.6,0.3l9.9,11.5c0.3,0.4,0.3,0.9-0.1,1.2
						C413.7,871.2,413.5,871.2,413.3,871.2z"/>
				</g>
			</g>
			<g>
				<g>
					<g>
						<g>
							<path class="st0" d="M314.8,868.5c-5.7,0-10.3-4.6-10.3-10.3s4.6-10.3,10.3-10.3c5.7,0,10.3,4.6,10.3,10.3
								S320.5,868.5,314.8,868.5z M314.8,849.6c-4.7,0-8.6,3.9-8.6,8.6s3.9,8.6,8.6,8.6c4.7,0,8.6-3.9,8.6-8.6
								S319.5,849.6,314.8,849.6z"/>
						</g>
						<g>
							<path class="st0" d="M339.8,868.5c-5.7,0-10.3-4.6-10.3-10.3s4.6-10.3,10.3-10.3c5.7,0,10.3,4.6,10.3,10.3
								S345.4,868.5,339.8,868.5z M339.8,849.6c-4.7,0-8.6,3.9-8.6,8.6s3.9,8.6,8.6,8.6c4.7,0,8.6-3.9,8.6-8.6
								S344.5,849.6,339.8,849.6z"/>
						</g>
					</g>
					<g>
						<path class="st0" d="M324.1,857.4c-0.2,0-0.4-0.1-0.6-0.3c-0.3-0.3-0.3-0.9,0-1.2c1.3-1.2,4.6-2.8,7.4,0
							c0.3,0.3,0.3,0.9,0,1.2c-0.3,0.3-0.9,0.3-1.2,0c-2.5-2.4-5-0.1-5.1,0C324.5,857.3,324.3,857.4,324.1,857.4z"/>
					</g>
				</g>
				<g>
					<g>
						<path class="st0" d="M305.5,859.5h-2.1c-0.7,0-1.3-0.6-1.3-1.3l0,0c0-0.7,0.6-1.3,1.3-1.3h2.1V859.5z"/>
					</g>
					<g>
						<path class="st0" d="M349.2,857h2.1c0.7,0,1.3,0.6,1.3,1.3l0,0c0,0.7-0.6,1.3-1.3,1.3h-2.1V857z"/>
					</g>
				</g>
			</g>
		</g>
	</g>
	<path class="st5" d="M1004.2,727.1H124.6c-3.9,0-7.1-3.2-7.1-7.1v-8.2c0-3.9,3.2-7.1,7.1-7.1h879.7c3.9,0,7.1,3.2,7.1,7.1v8.2
		C1011.4,723.9,1008.2,727.1,1004.2,727.1z"/>
	<g>
		<path class="st6" d="M899.6,625.8c0,0-36,47,0,63.4c36,16.4,44.9-22.7,44.3-39.7s68-48.6,26.2-97
			C928.3,504.2,869.4,599.1,899.6,625.8z"/>
		<path class="st6" d="M846.2,644.6c0,0-8,34.1,15.3,34.2c23.4,0.1,18.7-23.1,14.3-32.1s24.9-42.6-9.3-58.6
			C832.3,572.1,823.5,637.5,846.2,644.6z"/>
		<line class="st7" x1="856.5" y1="613" x2="866.8" y2="706.7"/>
		<polyline class="st7" points="869.2,634.2 860.3,647.8 848.4,637.7 		"/>
		<line class="st7" x1="940.5" y1="577.9" x2="889.2" y2="711.1"/>
		<polyline class="st7" points="950.4,601.5 928.1,610.1 918.8,590.4 		"/>
		<polyline class="st7" points="939.2,629.4 916.9,638 907.7,618.3 		"/>
	</g>
	<g>
		<path class="st6" d="M179.1,625.8c0,0,36,47,0,63.4c-36,16.4-44.9-22.7-44.3-39.7s-68-48.6-26.2-97
			C150.4,504.2,209.4,599.1,179.1,625.8z"/>
		<path class="st6" d="M232.5,644.6c0,0,8,34.1-15.3,34.2c-23.4,0.1-18.7-23.1-14.3-32.1c4.5-9-24.9-42.6,9.3-58.6
			C246.4,572.1,255.2,637.5,232.5,644.6z"/>
		<line class="st7" x1="222.2" y1="613" x2="211.9" y2="706.7"/>
		<polyline class="st7" points="209.5,634.2 218.4,647.8 230.3,637.7 		"/>
		<line class="st7" x1="138.2" y1="577.9" x2="189.5" y2="711.1"/>
		<polyline class="st7" points="128.3,601.5 150.6,610.1 159.9,590.4 		"/>
		<polyline class="st7" points="139.5,629.4 161.8,638 171.1,618.3 		"/>
	</g>
</g>
</svg>
