<?xml version="1.0" encoding="utf-8"?>
<!-- Generator: Adobe Illustrator 23.0.0, SVG Export Plug-In . SVG Version: 6.00 Build 0)  -->
<svg version="1.1" id="Fast_Loading" xmlns="http://www.w3.org/2000/svg" xmlns:xlink="http://www.w3.org/1999/xlink" x="0px"
	 y="0px" viewBox="0 0 1920 1080" style="enable-background:new 0 0 1920 1080;" xml:space="preserve">
<style type="text/css">
	.st0{opacity:0.1;fill:#2A94F4;}
	.st1{fill:#CCE9FF;}
	.st2{opacity:0.15;fill:#0E538C;}
	.st3{fill:#FFBE55;}
	.st4{fill:#FFFFFF;}
	.st5{fill:#FCD2B1;}
	.st6{fill:#0E538C;}
	.st7{fill:#FFE3CA;}
	.st8{fill:#2A94F4;}
	.st9{fill:#B1DFFC;}
	.st10{fill:#1C4454;}
	.st11{opacity:0.1;fill:#F7F7F7;}
</style>
<ellipse class="st0" cx="961.5" cy="743.2" rx="874.7" ry="36.6"/>
<ellipse class="st0" cx="453.9" cy="860.8" rx="82" ry="6.1"/>
<path class="st1" d="M1655.4,735.8H251.6c-98.3,0-178-79.7-178-178v0c0-98.3,79.7-178,178-178h1403.8c98.3,0,178,79.7,178,178v0
	C1833.4,656.1,1753.7,735.8,1655.4,735.8z"/>
<path class="st2" d="M1651.2,697.1H255.8c-76.9,0-139.3-62.4-139.3-139.3v0c0-76.9,62.4-139.3,139.3-139.3h1395.5
	c76.9,0,139.3,62.4,139.3,139.3v0C1790.6,634.7,1728.2,697.1,1651.2,697.1z"/>
<path class="st3" d="M1490.2,697.1H255.8c-76.9,0-139.3-62.4-139.3-139.3v0c0-76.9,62.4-139.3,139.3-139.3h1234.5
	c28,0,50.6,22.7,50.6,50.6v177.3C1540.9,674.4,1518.2,697.1,1490.2,697.1z"/>
<g>
	<path class="st4" d="M1455.4,580.4c-0.2,0.6-7-17-6.1-23.4c0.9-6.4,11-23.4,11-23.4s4.1,8.2,2.2,16
		C1460.8,557.5,1458.6,572.9,1455.4,580.4z"/>
	<path class="st4" d="M1469.2,608.3c0,0,30.7-13.1,34.5-18.1c3.7-5,6.1-7.3,6.1-7.3s-0.1,16-5.8,20
		C1498.4,607,1469.2,608.3,1469.2,608.3z"/>
	<path class="st4" d="M1388.1,634.8l-3.7,19l-17-3.5l-5.8,23.4l3.6,9.1l-13.3-12.9c0,0,5-24,10.2-28.4c0,0,11.3,3,15.7,1.5
		c4.5-1.5,14.7-16.6,14.7-16.6L1388.1,634.8z"/>
	<path class="st4" d="M1460.3,574c0,0,6-7.1,8.4-20c2.4-12.9,1.5-20,1.5-20s-12.9,14.3-14.4,24.7c-1.5,10.4,0.9,17.1,0.9,17.1
		s-4.5,3.8-6.3,10.9c-1.7,7.1-1.8,11.4-14.9,17.9c-13.2,6.5-48.8,18.8-48.8,18.8s-3.8,12.6-4.3,18.1c-0.6,5.5-1.4,6.9-1.4,6.9
		l-16.6-1.8c0,0-7.2,22.9-7.6,25c-0.4,2.1,7.9,15.4,8.3,16.6c0.4,1.2,9.7-1.5,9.7-3.4c0-1.9-7-9.9-7-9.9s1-16.2,1.6-16.9
		c0.6-0.8,24.6,12.6,36.4,5.7c11.9-6.8,9.9-14.7,9.9-14.7s28.8-5.4,41.2-15.3c12.5-9.9,9.6-12.8,9.6-12.8l16.6-0.2l29.6-19.6
		l2.7-11.4c0,0-6.2,5.7-9.8,7.7c-3.5,2-29.5,10.1-31.2,8.6c-1.7-1.5,0.5-11.5,0.5-11.5s7.3-1.7,8.8-4.8c1.5-3.1,7.6-9.7-0.5-12.1
		C1475,575.2,1469.6,569,1460.3,574z"/>
	<path class="st4" d="M1465.3,617.4c-1.2,2.3-2.7,4.5-4.4,6.5c-6.3,7.3-15.7,11.8-24.8,14.6c-4.7,1.5-9.5,3-14.3,3.6
		c-2.6,0.3-5.4,0.7-8,0.3c-0.6-0.1-1.1-0.2-1.7-0.3c-0.9,4.8-2.8,10.2-7,13c-5.7,3.8-11.9,5.1-18.4,2.4c-1.9-0.8-3.7-1.8-5.5-2.6
		c-0.7-0.3-2.7-0.7-2-0.7c-0.3,0-0.5-0.1-0.8-0.1c1.3,0.2-4.9,1.3-2.7,0.4c-0.6,0.3-0.9,0.4-1.1,0.4c-0.1,0.2-0.3,0.4-0.6,0.7
		c-0.2,0.3-1.4,2.5-1.1,1.9c-0.2,0.5-0.4,0.9-0.6,1.4c6.9,2.8,24,10.2,33.5,4.8c11.9-6.8,9.9-14.7,9.9-14.7s28.8-5.4,41.2-15.3
		c7.9-6.3,9.6-9.7,9.9-11.4C1466,620.8,1465.5,619.1,1465.3,617.4z"/>
	<path class="st4" d="M1375.9,625c-0.9-6,3.2-11.5,9.1-12.5c6-0.9,11.5,3.2,12.5,9.1c0.9,6-3.2,11.5-9.1,12.5
		C1382.4,635.1,1376.8,631,1375.9,625z"/>
</g>
<g>
	<g>
		<g>
			<polygon class="st5" points="462.9,795.1 482.7,848.2 514.1,850.9 530.2,848.5 496.5,837.8 480.9,788.7 			"/>
			<path class="st6" d="M343.1,682.2l74.4,2.5l58.9,150.6l19.5-4.6l-52.2-179.9c0,0-3.7-9.9-26.2-11.3
				c-21.8-1.4-109.7-9.4-119.9-7.1C273.5,638,348.4,661.4,343.1,682.2z"/>
			<path class="st6" d="M321.4,447.7c-6.9,12.9-28.9,7.8-28.9,7.8c-12.3-7.3-16.7-23.6-9.7-36.5l4.7-8.8
				c6.9-12.9,22.5-17.5,34.8-10.2l5.6,3.3c12.3,7.3,18.2,27.6,3.7,41.1L321.4,447.7z"/>
			<path class="st7" d="M336.4,420c-1.2,2.1-2.5,4.2-4.1,6.3C322,439.9,307.2,446.2,297,442c-3.9,6.6-8.5,12-12.9,16.2
				c-4.9,4.9-14.9,7.2-14.9,7.2c-7.2,9.5-5.1,38.4,18.6,42.8c14.2,2.7,12.2-13.4,7.7-23.6c-2.1-4.8-2-7.5-1.4-10
				c2.3-9,6.3-13,11.6-15.8c3-1.2,5.8-1.3,8.2-1.1c5.4,0.6,10.6-1.9,13.3-6.6l8.3-14.4C338.4,431.4,338.5,425.2,336.4,420z"/>
			<polygon class="st5" points="389,801.8 388.1,838.1 394.7,847.2 412.7,859.7 410,842 403.4,837.3 403.7,799.2 			"/>
			<path class="st6" d="M252.9,601.9l7.7,22.8l15.3,2.9l123.8,16c0,0,11.3-2.9,17.4,16c8.6,26.9-10.5,173.8-10.5,173.8l-18.4-1.4
				L383.7,691c0,0-120.6,14.5-154.4,1.3c-13-5.1-21.7-30.2-18.4-54.7c2.6-19.3,15.9-36.3,15.9-36.3L252.9,601.9z"/>
			<path class="st8" d="M310.9,597.6c1.1-32.9-1.3-118.4-16.5-118.4c-1.5,0-2.9,0.4-4.1,1.2c-4.7-1-12.2-6.4-18.8-15.6
				c0,0-0.1,0-0.1,0l0,0c0,0-24.7,6.3-34,10.2c-6.4,2.7-7.3,90-8.1,94.6c-2.8,16.4-10.4,34.9-15.3,47.7c-3.9,10.2-4,28.9-4,28.9
				s18.4-14.3,39.7-18.1c9.7-2.2,42.7,0.9,45,2.1c2.1,1.1-0.5-10.7-0.8-16.1c2.3,3.5,7.6,5.1,12.5,6.5c13.9,3.9,74.9,15.5,74.9,15.5
				l10.5-3.8L310.9,597.6z"/>
			<g>
				<path class="st5" d="M306.9,606.5c16.2,3.3,19.4,14.2,25.3,17.9c6,3.7,13.9,6.8,13.9,6.7c2.5-1.7-5.6-6.6-7.8-9.3
					c-2.2-2.7-1.2-3.5,4-0.7c5,2.7,7.2,8.3,10.8,12.2c3.1,3.4,4.3,0.9,4.3,0.9s0.2-9.2-4.3-14.7c-5.4-6.7-15.8-10-17.6-11.1
					c-3.2-2-13.9-4.5-21.8-5.1C304.8,602.6,295.3,604.2,306.9,606.5z"/>
			</g>
			<path class="st8" d="M240.4,581.8l13.6-77.7c0,0,4.6-18,0.1-23.9c-5.4-7-16.4-5.7-16.4-5.7s-13.2,7-17.6,69.8
				c-3.1,43-5.2,55.8,12.3,58.8c16.4,2.8,85.5,11.1,85.5,11.1l3.9-11.1L240.4,581.8z"/>
		</g>
		<g>
			<polygon class="st1" points="338.1,632.6 446.5,639.3 446.6,637 338.2,630.3 			"/>
			<path class="st1" d="M386,633.1c-0.1,1.8,1.1,3.3,2.6,3.4l55.6,3.5c1.5,0.1,3.6-0.9,5.7-5.4l30.4-51c0.1-2.3-1.5-3.8-3-3.5
				l-57.1-1.7c-1.5,0.3-2.8,1.4-3.8,3.8L386,633.1z"/>
			<path class="st9" d="M392.6,636l-0.6,0l-54.3-3.4c1.9,1.2,5.1,2.1,8.8,2.3l45.4,2.8l0.6,0l45.4,2.8c3.7,0.2,7-0.3,9-1.2
				L392.6,636z"/>
		</g>
		<path class="st6" d="M316.2,405.7c0.4,0.1,19.5-19.4-3.2-25.4C293.8,375.2,286.5,401.4,316.2,405.7z"/>
	</g>
	<path class="st10" d="M388.1,838.1c0,0,2.2,5.6,21.9,3.9c0,0,7.6,7.5,17.7,6.7c10.1-0.8,10.8,8.5,10.8,8.5l0.1,5.8l-54.7-3.2v-17.4
		C383.9,840,385.8,838.1,388.1,838.1L388.1,838.1z"/>
	<path class="st10" d="M479.7,840.3c0,0,3.4,5,22.3-0.9c0,0,9,5.7,18.7,2.8c9.7-3,12.4,6,12.4,6l1.3,5.7l-54.1,8.4l-3.7-17
		C476,843,477.5,840.8,479.7,840.3L479.7,840.3z"/>
</g>
<path class="st11" d="M240.4,581.8l13.6-77.7c0,0,4.6-18,0.1-23.9c-5.4-7-16.4-5.7-16.4-5.7s-13.2,7-17.6,69.8
	c-3.1,43-5.2,55.8,12.3,58.8c16.4,2.8,85.5,11.1,85.5,11.1l3.9-11.1L240.4,581.8z"/>
</svg>
