<?xml version="1.0" encoding="utf-8"?>
<!-- Generator: Adobe Illustrator 23.0.0, SVG Export Plug-In . SVG Version: 6.00 Build 0)  -->
<svg version="1.1" id="Layer_1" xmlns="http://www.w3.org/2000/svg" xmlns:xlink="http://www.w3.org/1999/xlink" x="0px" y="0px"
	 viewBox="0 0 1080 1080" enable-background="new 0 0 1080 1080" xml:space="preserve">
<path opacity="0.17" fill="#FFBE55" d="M799.582,732.532c0,0,56.494-120.34-7.225-110.384s-53.763-73.066-17.921-134.6
	c35.842-61.534-36.837-170.055-133.411-90.406s-121.464-80.644-241.932-79.648s-67.776,95.412-6.011,148.76
	s-134.075,89.671-112.611,133.519c21.465,43.848-53.497,144.99,64.92,142.922C463.808,740.626,799.582,732.532,799.582,732.532z"/>
<g opacity="0.55">
	<path fill="#00AEF0" d="M762.253,726.217l16.019-1.833c8.614-4.741,16.035-10.106,21.546-14.77
		c-4.608-3.963-18.288-3.818-18.288-3.818c14.075-1.228,18.358-0.092,22.967-0.475c7.589-7.512,11.373-18.056,15.686-26.549
		c-16.541,5.139-20.764,5.393-20.764,5.393c9.952-2.221,16.69-6.579,22.541-9.064c9.97-21.514,6.558-31.645,6.558-31.645
		c-7.048,1.025-22.57,5.352-28.568,6.814c-6.28,9.325-12.312,21.938-12.312,21.938c1.502-6.345,5.486-14.887,8.589-20.983
		c-8.669,2.32-7.241,2.037-14.025,5.275c-6.746,9.35-14.083,27.583-14.083,27.583c1.297-7.691,5.976-18.77,8.723-24.841
		c-11.514,6.3-20.544,14.029-28.5,23.007c-3.169,9.27-5.389,19.008-5.389,19.008c0.015-4.343,0.925-9.904,2.028-15.071
		c-8.655,10.518-16.21,22.59-24.695,35.957l-4.032,12.988l17.361,1.894c13.765,0.198,27.307-4.022,39.089-9.756L762.253,726.217z"/>
</g>
<g opacity="0.55">
	<path fill="#00AEF0" d="M752.037,703.366l13.534-8.764c5.608-8.077,9.87-16.181,12.733-22.81
		c-5.89-1.501-18.078,4.711-18.078,4.711c12.061-7.358,16.402-8.245,20.361-10.637c3.458-10.103,2.159-21.23,2.247-30.754
		c-12.532,11.957-16.201,14.062-16.201,14.062c7.926-6.414,12.025-13.314,16.161-18.141c-0.635-23.704-8.195-31.261-8.195-31.261
		c-5.857,4.052-17.837,14.829-22.559,18.805c-1.479,11.144-1.275,25.124-1.275,25.124c-1.476-6.351-1.705-15.774-1.635-22.614
		c-6.733,5.933-5.58,5.044-10.218,10.961c-1.886,11.374-0.352,30.968-0.352,30.968c-2.258-7.466-2.993-19.47-3.231-26.129
		c-7.512,10.763-12.164,21.7-15.299,33.279c1.283,9.712,3.624,19.422,3.624,19.422c-1.917-3.897-3.575-9.283-4.885-14.401
		c-3.076,13.27-4.476,27.441-6.133,43.188l2.163,13.427l16.393-6.022c12.418-5.943,22.671-15.743,30.676-26.118L752.037,703.366z"/>
</g>
<g opacity="0.55">
	<path fill="#00AEF0" d="M323.59,724.654c11.783,5.734,25.324,9.954,39.089,9.756l17.361-1.894l-4.032-12.988
		c-8.485-13.368-16.04-25.439-24.695-35.957c1.102,5.167,2.013,10.729,2.028,15.071c0,0-2.22-9.739-5.389-19.008
		c-7.957-8.978-16.986-16.707-28.5-23.007c2.747,6.071,7.426,17.15,8.723,24.841c0,0-7.337-18.233-14.083-27.583
		c-6.785-3.238-5.357-2.955-14.025-5.275c3.103,6.096,7.088,14.639,8.589,20.983c0,0-6.032-12.613-12.312-21.938
		c-5.998-1.462-21.52-5.788-28.568-6.814c0,0-3.412,10.13,6.558,31.645c5.851,2.485,12.59,6.843,22.541,9.064
		c0,0-4.223-0.254-20.764-5.393c4.314,8.492,8.097,19.037,15.686,26.549c4.609,0.383,8.892-0.753,22.967,0.475
		c0,0-13.68-0.146-18.288,3.818c5.512,4.665,12.932,10.029,21.546,14.77l16.019,1.833L323.59,724.654z"/>
</g>
<g opacity="0.55">
	<path fill="#00AEF0" d="M334.429,697.047c8.005,10.375,18.258,20.175,30.676,26.118l16.393,6.022l2.163-13.427
		c-1.657-15.747-3.058-29.918-6.133-43.188c-1.31,5.118-2.967,10.505-4.885,14.401c0,0,2.341-9.71,3.624-19.422
		c-3.135-11.58-7.787-22.517-15.299-33.279c-0.239,6.659-0.974,18.663-3.231,26.129c0,0,1.534-19.594-0.352-30.968
		c-4.638-5.917-3.484-5.028-10.218-10.961c0.07,6.84-0.16,16.263-1.635,22.614c0,0,0.205-13.98-1.275-25.124
		c-4.723-3.976-16.703-14.753-22.559-18.805c0,0-7.56,7.557-8.195,31.261c4.136,4.827,8.235,11.727,16.161,18.141
		c0,0-3.67-2.105-16.201-14.062c0.088,9.525-1.211,20.652,2.247,30.754c3.958,2.392,8.299,3.279,20.361,10.637
		c0,0-12.189-6.213-18.078-4.711c2.863,6.629,7.125,14.733,12.733,22.81l13.534,8.764L334.429,697.047z"/>
</g>
<ellipse fill="#E2E2E2" cx="540.138" cy="746.065" rx="309.301" ry="24.852"/>
<path opacity="0.61" fill="#FFBE55" d="M379.36,432.684c0.11-0.992,0.171-1.998,0.171-3.019c0-14.968-12.134-27.103-27.103-27.103
	c-11.867,0-21.945,7.63-25.615,18.249c-1.122-0.337-2.311-0.52-3.543-0.52c-4.892,0-9.117,2.853-11.102,6.987
	c-1.406-0.319-2.866-0.492-4.369-0.492c-10.878,0-19.695,8.818-19.695,19.695c0,10.847,8.769,19.644,19.605,19.693v0.08h68.434
	c9.355,0,16.939-7.584,16.939-16.939C393.083,441.059,387.176,434.187,379.36,432.684z"/>
<path opacity="0.61" fill="#FFBE55" d="M810.624,519.793c0.071-0.644,0.111-1.297,0.111-1.96c0-9.716-7.876-17.592-17.592-17.592
	c-7.702,0-14.244,4.952-16.626,11.845c-0.728-0.219-1.5-0.338-2.3-0.338c-3.175,0-5.917,1.852-7.206,4.535
	c-0.912-0.207-1.861-0.32-2.836-0.32c-7.06,0-12.784,5.724-12.784,12.784c0,7.041,5.692,12.75,12.725,12.782v0.052h44.419
	c6.072,0,10.995-4.923,10.995-10.995C819.531,525.229,815.698,520.769,810.624,519.793z"/>
<g>
	<g>
		<path fill="#FFBE55" d="M605.868,714.692h-36.325V610.339c0-5.812-4.755-10.567-10.567-10.567s-10.567,4.755-10.567,10.567
			v104.352h-36.325c-11.672,0-21.135,9.462-21.135,21.135h136.054C627.003,724.154,617.54,714.692,605.868,714.692z"/>
		<path fill="#FFBE55" d="M360.034,663.638V444.191c0-4.122,3.342-7.464,7.464-7.464h382.956c4.122,0,7.463,3.341,7.463,7.463
			v219.447c0,4.122-3.341,7.464-7.464,7.464H367.497C363.376,671.102,360.034,667.76,360.034,663.638z"/>
		
			<rect x="452.388" y="363.095" transform="matrix(-1.836970e-16 1 -1 -1.836970e-16 1111.5592 -6.3918)" fill="#FFFFFF" width="213.175" height="378.978"/>
	</g>
	<g>
		<g>
			<path fill-rule="evenodd" clip-rule="evenodd" fill="#FFBE55" d="M546.997,522.524l-13.948,10.33l5.124,2.251
				c-0.776,1.934-1.02,3.974-1.051,6.09c0.105,2.689,0.466,5.413,1.347,8.05c0.842,2.457,2.317,4.961,3.901,6.964
				c1.711,2.164,3.776,3.9,6.064,5.272c2.45,1.308,4.981,2.351,7.532,2.744c2.639,0.543,5.394,0.598,8.052,0.09
				c5.142-0.915,9.983-3.766,13.126-7.732c3.57-3.982,5.164-9.15,5.159-14.181c-0.035-2.513-0.536-5.188-1.52-7.545
				c-0.722-2.31-2.164-4.414-3.779-6.416c-3.254-3.755-7.904-6.285-12.768-7.011c-2.455-0.232-4.973-0.225-7.361,0.343
				c-2.359,0.332-4.618,1.461-6.664,2.667c2.046-1.205,4.339-1.935,6.848-2.356c2.334-0.318,4.701-0.236,6.982,0.099
				c4.653,1.051,8.883,3.61,11.749,7.392c1.408,1.705,2.461,3.836,3.238,5.895c0.747,2.295,1.056,4.647,0.901,6.836
				c-0.259,4.583-2.078,9.026-5.033,12.227c-2.94,3.226-7.199,5.298-11.559,5.769c-4.273,0.621-8.751-0.534-12.236-2.911
				c-1.811-1.248-3.298-2.688-4.61-4.231c-1.101-1.868-2.208-3.749-2.747-5.748c-0.797-3.122-0.787-6.701,0.133-9.76l5.266,2.15
				L546.997,522.524z"/>
		</g>
	</g>
</g>
<g>
	<path fill="#FAB9AF" d="M363.823,723.643l0.029,7.896c0.006,1.606-0.212,3.206-0.649,4.752l-0.686,2.432
		c-0.564,1.997,0.937,3.979,3.012,3.971c5.378-0.019,14.57-0.005,16.939-0.001c0.388,0.001,0.768-0.261,0.801-0.647
		c0.2-2.305-6.459-3.849-11.474-5.791c-3.82-1.479-3.617-8.345-3.146-12.355c0.178-1.515-1.086-2.804-2.606-2.678l0,0
		C364.785,721.326,363.818,722.381,363.823,723.643z"/>
	<path fill="#FAB9AF" d="M326.859,721.428l-2.721,9.033c-0.12,0.399-0.3,0.778-0.533,1.124l-1.929,2.864
		c-1.224,1.818-0.343,4.302,1.754,4.942c0,0,3.889,1.368,7.898,2.685c4.104,1.348,9.265,0.221,9.265-0.861
		c0-2.406-2.243-0.496-6.001-3.009c-1.259-0.842-2.559-1.723-3.717-2.632c-3.234-2.539-0.41-8.965,1.57-12.585
		c0.712-1.301-0.044-2.917-1.495-3.226l-0.937-0.2C328.637,719.269,327.265,720.081,326.859,721.428z"/>
	<path fill="#0B4870" d="M354.65,615.769l29.806-2.502c0,0,3.001,21.693-4.532,60.963c-3.533,18.415-10.895,53.606-10.895,53.606
		c-1.825,0.799-3.68,0.999-5.57,0.528c0,0-0.559-15.523-0.901-32.239c-0.328-16.032-0.416-33.163-1.438-38.768
		C359.034,645.908,354.65,615.769,354.65,615.769z"/>
	<path fill="#0B4870" d="M360.802,616.147c3.077,16.515,9.952,41.211-3.29,64.411c-13.242,23.2-27.15,47.32-27.15,47.32
		c-1.792,0.073-3.417-0.577-4.927-1.723c0,0,2.322-10.518,5.678-22.799c3.839-14.049,8.703-30.575,7.317-39.191
		c-2.597-16.148-5.579-37.654-4.676-48.098C334.659,605.624,359.184,607.463,360.802,616.147z"/>
	<g>
		<g>
			<g>
				<polygon fill="#0B4870" points="383.18,557.715 406.669,570.628 430.257,533.508 401.727,523.597 				"/>
			</g>
		</g>
	</g>
	<g>
		<g>
			<g>
				<polygon fill="#E3F2FF" points="384.666,556.597 406.633,568.67 428.692,533.959 402.012,524.69 				"/>
			</g>
		</g>
	</g>
	<g>
		<g>
			<g>
				<path fill="#FAB9AF" d="M376.622,550.105c0,0,4.088-1.955,5.883-2.978c1.794-1.021,6.41-2.425,6.783-2.758
					c0.372-0.334,13.683-1.155,14.491-1.85c0.807-0.696,1.592,1.632-1.858,2.388c-3.45,0.756-8.25,2.604-8.513,3.952
					c-0.262,1.349,3.543,1.668,3.929,2.778c0.386,1.11-0.108,0.863-0.653,1.099c-0.546,0.239-4.528-1.966-6.279-1.34
					c-1.751,0.627-4.427-0.241-5.769,0.219c-1.342,0.459-7.867,2.655-7.867,2.655L376.622,550.105z"/>
			</g>
		</g>
	</g>
	<g>
		<g>
			<g>
				<path fill="#EAD8CF" d="M384,552.992l2.106-0.778c0,0-2.626-6.164-3.772-6.014c-1.321,0.174-2.968,0.609-2.968,0.609
					L384,552.992z"/>
			</g>
		</g>
	</g>
	<g>
		<g>
			<g>
				<path fill="#DA9B5B" d="M384.481,554.058c-0.27-0.201-4.476-8.273-4.476-8.273l-8.989,1.219l4.858,9.561L384.481,554.058z"/>
			</g>
		</g>
	</g>
	<g>
		<g>
			<g>
				<path fill="#FAB9AF" d="M407.811,565.966c0,0,3.434-3.09,5.096-4.385c1.662-1.293,4.782-5.096,5.241-5.317
					c0.459-0.223,6.416-12.448,7.388-12.936c0.97-0.491-0.919-2.138-2.975,0.82c-2.055,2.958-5.665,6.761-7.039,6.485
					c-1.373-0.279-0.192-3.99-1.088-4.784c-0.897-0.798-0.854-0.237-1.291,0.185c-0.437,0.424,0.09,5.034-1.182,6.44
					c-1.272,1.404-1.497,4.267-2.452,5.35c-0.955,1.085-5.565,6.382-5.565,6.382L407.811,565.966z"/>
			</g>
		</g>
	</g>
	<g>
		<g>
			<g>
				<path fill="#FAB9AF" d="M353.051,489.681c0,0,10.307-3.85,15.059,3.997c4.751,7.845,4.294,23.549-0.902,25.482
					c-5.194,1.931-12.999,0.921-15.658-3.988c-2.659-4.909-5.061-12.004-4.945-16.748C346.72,493.68,350.344,491.05,353.051,489.681
					z"/>
			</g>
		</g>
	</g>
	<g>
		<g>
			<g>
				<path fill="#FAB9AF" d="M366.09,519.519c0,0-0.832,7.397-0.123,8.77c0.709,1.369-12.866,0-12.866,0s-1.226-10.665-3.389-16.967
					C347.548,505.025,366.09,519.519,366.09,519.519z"/>
			</g>
		</g>
	</g>
	<g>
		<g>
			<g>
				<path fill="#0B4870" d="M349.712,511.322c0,0,0.499,7.94,4.461,7.318c3.961-0.62,9.265-12.229,10.919-12.806
					c1.654-0.58,1.67-1.551,1.67-1.551l1.035,1.513l1.757,0.112c0,0-1.602-4.715,0.815-6.639
					c2.418-1.922-2.509-15.261-15.213-10.821c0,0-9.758,2.691-9.404,8.239C346.108,502.238,347.529,508.56,349.712,511.322z"/>
			</g>
		</g>
	</g>
	<g>
		<g>
			<g>
				<path fill="#E2D2CA" d="M367.577,529.94c0,0-0.045-2.617-1.232-2.871c-1.187-0.25-13.104-1.395-14.561-0.822v3.052
					C351.784,529.298,354.592,531.025,367.577,529.94z"/>
			</g>
		</g>
	</g>
	<g>
		<g>
			<g>
				<path fill="#EEA886" d="M366.499,502.265c-0.222-0.932-2.589-3.591-3.495-0.742c-0.906,2.847,1.37,6.679,2.639,6.349
					C366.913,507.546,367.063,504.625,366.499,502.265z"/>
			</g>
		</g>
	</g>
	<g>
		<g>
			<g>
				<g>
					<path fill="#00AEF0" d="M333.945,615.007c0,0,4.377,14.174,15.101,15.786c21.969,3.302,36.889-10.857,37.058-12.13
						c0.171-1.275-12.076-27.99-11.736-30.366c0.339-2.376,3.379-35.714,3.379-35.714c0.134,2.321,6.741,27.669,9.594,32.834
						c1.03,1.866,4.488,7.715,6.155,6.384c8.068-6.44,20.561-30.714,21.354-30.919c-0.667-0.29-5.921-2.708-6.659-2.954
						c-0.645-0.216-6.466,5.945-9.993,9.766c-1.573,1.703-2.688,2.94-2.688,2.94c-1.019-2.292-4.728-16.726-5.881-21.722
						c-2.6-11.266-2.2-11.734-2.2-11.734c-7.885-2.385-19.853-7.241-19.853-7.241l-15.793-0.642c0,0-14.494,3.19-20.202,5.767
						c-0.542,0.245-0.544,12.932-2.03,16.257l4.733,9.985c0,0,9.815,19.522,10.382,28.319
						C344.928,593.663,333.945,615.007,333.945,615.007z"/>
				</g>
			</g>
		</g>
	</g>
	<g>
		<g>
			<g>
				<g>
					<path fill="#00AEF0" d="M328.896,567.794c0.412,1.331,2.285,2.454,3.501,2.947c0.779,0.314,1.651,0.417,2.529,0.254
						l0.619-0.114v-0.002l10.823-2.009c0,0,2.367-27.272-14.785-33.806C331.128,535.214,325.109,555.582,328.896,567.794z"/>
				</g>
			</g>
		</g>
	</g>
	<g>
		<g>
			<g>
				<path fill="#3A3F47" d="M350.116,490.606c0,0-12.969,1.315-0.231,21.004L350.116,490.606z"/>
			</g>
		</g>
	</g>
	<g>
		<g>
			<g>
				<polygon fill="#0B4870" points="419.396,531.511 420.768,529.153 409.954,525.421 408.581,527.769 				"/>
			</g>
		</g>
	</g>
</g>
<g>
	<path opacity="0.5" fill="#00AEF0" d="M650.297,580.253H465.054c-1.961,0-3.565-1.604-3.565-3.565l0,0
		c0-1.961,1.604-3.565,3.565-3.565h185.243c1.961,0,3.565,1.604,3.565,3.565l0,0C653.862,578.649,652.258,580.253,650.297,580.253z"
		/>
	<path fill="#00AEF0" d="M560.632,580.253h-95.578c-1.961,0-3.565-1.604-3.565-3.565l0,0c0-1.961,1.604-3.565,3.565-3.565h95.578
		c1.961,0,3.565,1.604,3.565,3.565l0,0C564.197,578.649,562.592,580.253,560.632,580.253z"/>
</g>
<rect x="369.486" y="445.996" fill="#7EDEFC" width="378.978" height="20.257"/>
<g>
	<g>
		<path fill="#FFFFFF" d="M708.762,456.125c0-2.674-2.168-4.842-4.842-4.842c-2.674,0-4.842,2.168-4.842,4.842
			c0,2.674,2.168,4.842,4.842,4.842C706.594,460.967,708.762,458.799,708.762,456.125z"/>
	</g>
	<g>
		<path fill="#FFFFFF" d="M723.777,456.125c0-2.674-2.168-4.842-4.842-4.842c-2.674,0-4.842,2.168-4.842,4.842
			c0,2.674,2.168,4.842,4.842,4.842C721.609,460.967,723.777,458.799,723.777,456.125z"/>
	</g>
	<g>
		<path fill="#FFFFFF" d="M738.792,456.125c0-2.674-2.168-4.842-4.842-4.842c-2.674,0-4.842,2.168-4.842,4.842
			c0,2.674,2.168,4.842,4.842,4.842C736.625,460.967,738.792,458.799,738.792,456.125z"/>
	</g>
</g>
<path fill="#0B4870" d="M353.462,488.737c0,0-14.707-0.497-9.179,17.092s10.539,37.232,3.968,40.851c0,0,11.509-1.679,11.43-14.462
	c-0.079-12.783,5.123-20.609,5.123-20.609l4.75-5.702c0,0-7.055-17.835-15.307-17.171"/>
</svg>
