<?xml version="1.0" encoding="utf-8"?>
<!-- Generator: Adobe Illustrator 23.0.0, SVG Export Plug-In . SVG Version: 6.00 Build 0)  -->
<svg version="1.1" id="Layer_1" xmlns="http://www.w3.org/2000/svg" xmlns:xlink="http://www.w3.org/1999/xlink" x="0px" y="0px"
	 viewBox="0 0 1080 1080" enable-background="new 0 0 1080 1080" xml:space="preserve">
<path opacity="0.09" fill="#2A94F4" d="M271,661.5C271,500.509,401.509,370,562.5,370S854,500.509,854,661.5"/>
<g>
	<g>
		<polygon fill="#FFE3CA" points="614.237,446.537 622.085,391.393 643.257,388.487 654.27,446.139 		"/>
		<path fill="#FFE3CA" d="M630.602,531.984l-0.023,6.215c-0.005,1.264,0.167,2.523,0.511,3.74l0.54,1.914
			c0.444,1.572-0.738,3.132-2.371,3.126c-4.234-0.015-11.469-0.004-13.334-0.001c-0.305,0.001-0.604-0.205-0.63-0.51
			c-0.157-1.815,5.084-3.03,9.032-4.558c3.007-1.164,2.847-6.569,2.476-9.725c-0.14-1.192,0.854-2.207,2.051-2.108l0,0
			C629.845,530.16,630.606,530.99,630.602,531.984z"/>
		<path fill="#FFE3CA" d="M659.698,530.24l2.142,7.111c0.095,0.314,0.236,0.612,0.419,0.885l1.518,2.255
			c0.964,1.431,0.27,3.387-1.38,3.89c0,0-3.061,1.077-6.217,2.114c-3.23,1.061-7.293,0.174-7.293-0.678
			c0-1.894,1.766-0.391,4.723-2.369c0.991-0.663,2.014-1.356,2.926-2.072c2.546-1.998,0.323-7.057-1.235-9.906
			c-0.56-1.024,0.035-2.296,1.177-2.54l0.738-0.157C658.299,528.541,659.378,529.18,659.698,530.24z"/>
		<path fill="#0B4870" d="M637.822,447.071l-23.462-1.969c0,0-2.363,17.076,3.567,47.987c2.781,14.496,8.576,42.196,8.576,42.196
			c1.436,0.629,2.897,0.786,4.384,0.416c0,0,0.44-12.219,0.709-25.377c0.258-12.62,0.328-26.104,1.132-30.516
			C634.371,470.795,637.822,447.071,637.822,447.071z"/>
		<path fill="#0B4870" d="M632.979,447.369c-2.422,13-7.833,32.439,2.59,50.701c10.423,18.262,21.371,37.248,21.371,37.248
			c1.41,0.057,2.69-0.454,3.878-1.356c0,0-1.828-8.279-4.47-17.946c-3.022-11.059-6.85-24.067-5.76-30.849
			c2.044-12.711,4.392-29.639,3.68-37.86C653.558,439.085,634.253,440.533,632.979,447.369z"/>
		<path fill="#F7F7F7" d="M613.426,445.133l8.658-53.74l21.173-2.906l11.379,56.745c0.214,1.066-0.477,2.102-1.545,2.305
			c-3.942,0.747-13.45,2.308-24.092,2.308c-7.944,0-12.408-1.545-14.439-2.523C613.737,446.926,613.281,446.035,613.426,445.133z"/>
		<path fill="#FFBE55" d="M636.643,391.834c0,3.871,0.704,7.705,2.026,11.344c2.587,7.118,6.467,20.578,4.161,32.437
			c-3.32,17.076-7.589,23.979-2.056,27.959c5.534,3.98,16.147-2.661,16.454-4.874c0.306-2.214-2.065-29.406-4.753-41.187
			c-2.688-11.781-10.217-28.717-10.217-28.717l-3.19,0.341C637.689,389.283,636.643,390.447,636.643,391.834L636.643,391.834z"/>
		<path fill="#FFBE55" d="M627.829,390.605c0,0-3.672,7.936-2.391,19.338c1.281,11.402,4.248,46.122-6.127,51.365
			c-3.285,1.66-10.788-5.692-10.788-8.42s2.504-11.858,4.877-20.159c2.373-8.301,8.091-41.254,8.091-41.254L627.829,390.605z"/>
		<g>
			<path fill="#FFE3CA" d="M630.785,366.009c4.725,0,6.488,3.364,6.579,9.586c0.034,2.33-1.014,4.639-1.858,6.113
				c-0.627,1.095-0.799,2.392-0.441,3.602l1.038,3.512c0.705,3.258-0.842,5.045-3.126,5.694c-1.131,0.321-2.487,0.072-3.475-0.566
				c-1.175-0.759-1.271-2.392-1.053-3.773l0.268-1.001c0.361-1.349-0.421-2.803-1.785-3.101c-3.638-0.796-4.16-4.588-5.134-10.479
				C620.78,369.456,626.059,366.009,630.785,366.009z"/>
			<path fill="#0B4870" d="M619.781,363.276l2.71,0.824c0.996,0.303,2.058,0.31,3.057,0.02l5.41-1.57c3.277,0,8.69,1.851,8.006,6.58
				l-0.604,3.345c-0.241,1.336-1.355,2.336-2.708,2.452c0,0,0,0,0,0c-0.125,0.462-0.545,0.783-1.024,0.783
				c-0.586,0-1.06-0.475-1.06-1.06l0,0c0-1.509-1.059-2.796-2.531-3.126c-1.805-0.405-3.733-0.502-5.751,0.04
				c-3.761,1.01-7.726-1.32-8.101-5.196c-0.024-0.245-0.036-0.495-0.036-0.747C617.149,364.057,618.441,362.907,619.781,363.276z"/>
			<path fill="#FFE3CA" d="M634.758,375.71c0,1.443,0.537,2.612,1.926,2.612s2.281-1.984,2.281-3.427
				c0-1.443-0.892-1.798-2.281-1.798S634.758,374.267,634.758,375.71z"/>
		</g>
	</g>
	<path fill="#FFBE55" d="M635.333,382.043c0,0-3.529,4.852-7.921,4.194c0,0,0.912,0.436,1.134,1.145
		C628.546,387.382,632.717,387.074,635.333,382.043z"/>
</g>
<g>
	<g>
		<g>
			<path fill="#FFBE55" d="M420.969,633.152c1.983-2.513,3.776-5.844,2.867-10.559c-0.982-5.066-4.676-9.482-8.121-13.419
				c-4.52-5.16-8.244-9.76-9.262-16.29c-0.734-4.705-0.43-9.327-2.603-14.335c-2.527-5.826-7.548-9.948-12.101-12.339
				c-5.31-2.782-10.667-3.77-15.947-7.795c-3.194-2.437-5.67-5.563-7.389-9.546c-1.24-2.883-2.081-5.801-3.344-8.677
				c-4.072-9.281-12.451-14.774-17.926-12.693c-5.741,0.494-9.006,6.472-6.618,15.238c1.911,7.013,7.013,12.359,11.174,18.363
				c4.504,6.492,5.27,12.025,5.447,18.271c0.118,4.248,0.109,8.721,1.99,13.463c1.888,4.768,5.392,8.524,8.918,11.817
				c4.305,4.028,9.579,8.102,11.893,14.183c1.237,3.26,1.512,6.448,2.861,9.727c0.921,2.23,2.221,4.369,3.725,6.296
				c8.097,10.387,18.239,11,24.591,7.37C414.923,640.063,418.169,636.703,420.969,633.152z"/>
		</g>
		<path fill="#FAFAFA" d="M366.537,593.9c6.358,2.067,12.717,4.134,19.075,6.2c-6.526-9.534-12.646-19.345-18.348-29.397
			c-0.152,0.15-0.373,0.229-0.63,0.129c-2.938-1.144-5.877-2.287-8.815-3.431c-0.736-0.287-0.262-1.416,0.471-1.13
			c2.765,1.076,5.529,2.152,8.294,3.228c-4.034-7.167-7.846-14.461-11.445-21.865c-0.001,0-0.002,0-0.003-0.001
			c-3.05-1.385-6.099-2.769-9.149-4.154c-0.718-0.326-0.247-1.457,0.471-1.13c2.613,1.187,5.227,2.373,7.84,3.56
			c-1.166-2.428-2.314-4.866-3.431-7.319c-0.327-0.717,0.812-1.169,1.139-0.452c2.784,6.109,5.725,12.142,8.806,18.099
			c0.52-3.218,0.783-6.46,0.738-9.727c-0.011-0.78,1.205-0.933,1.216-0.144c0.054,3.87-0.266,7.708-0.981,11.513
			c-0.009,0.049-0.034,0.084-0.051,0.126c5.236,10.002,10.878,19.782,16.917,29.31c0.876-6.253,1.139-12.534,0.721-18.846
			c-0.052-0.783,1.164-0.933,1.216-0.144c0.457,6.899,0.155,13.772-0.911,20.604c6.033,9.42,12.447,18.594,19.231,27.494
			c0.194-5.262,0.389-10.525,0.583-15.787c0.029-0.788,1.242-0.612,1.213,0.169c-0.211,5.715-0.422,11.43-0.633,17.144
			c6.843,8.891,14.044,17.513,21.607,25.823c0.53,0.583-0.451,1.317-0.977,0.738c-5.674-6.235-11.143-12.649-16.414-19.215
			c-0.101,0.024-0.208,0.033-0.326-0.001c-5.839-1.641-11.679-3.282-17.518-4.923c-0.759-0.213-0.278-1.341,0.471-1.13
			c5.392,1.516,10.785,3.031,16.177,4.546c-5.694-7.161-11.137-14.514-16.339-22.034c-6.896-2.241-13.791-4.483-20.687-6.724
			C365.314,594.786,365.792,593.658,366.537,593.9z"/>
	</g>
	<g>
		<g>
			<path fill="#2A94F4" d="M315.738,623.43c23.777,23.841,58.1,35.856,91.551,32.081c1.026-0.116-0.583-1.9-0.701-2.07
				c-20.009-28.791-56.881-41.559-90.407-31.323C315.652,622.279,315.273,622.969,315.738,623.43z"/>
		</g>
		<path fill="#FAFAFA" d="M325.609,623.801c21.256,8.033,42.511,16.066,63.767,24.098c-5.001-4.939-10.001-9.879-15.002-14.818
			c-0.51-0.504,0.225-1.349,0.738-0.841c5.613,5.544,11.226,11.088,16.839,16.633c6.541,2.472,13.083,4.944,19.625,7.416
			c0.675,0.255,0.181,1.26-0.488,1.007c-6.429-2.43-12.858-4.859-19.287-7.289c-0.142,0.027-0.296-0.006-0.435-0.143
			c-0.012-0.012-0.023-0.023-0.035-0.035c-22.07-8.34-44.14-16.681-66.21-25.021C324.446,624.553,324.94,623.548,325.609,623.801z"
			/>
		<path fill="#FAFAFA" d="M350.637,625.361c-0.537-0.48,0.2-1.322,0.738-0.841c4.989,4.459,9.977,8.917,14.966,13.376
			c0.537,0.48-0.2,1.322-0.738,0.841C360.614,634.278,355.626,629.82,350.637,625.361z"/>
		<path fill="#FAFAFA" d="M333.951,634.343c4.063-0.499,8.126-0.997,12.19-1.496c-4.681-3.69-9.362-7.381-14.042-11.071
			c-0.566-0.446,0.174-1.286,0.738-0.841c4.946,3.899,9.891,7.798,14.837,11.698c0.54,0.426-0.108,1.197-0.658,0.882
			c-0.056,0.202-0.212,0.378-0.477,0.41l-12.514,1.535C333.307,635.548,333.238,634.431,333.951,634.343z"/>
		<path fill="#FAFAFA" d="M351.205,643.139l13.398-4.161c0.687-0.213,1.044,0.848,0.354,1.062l-13.398,4.161
			C350.872,644.415,350.514,643.354,351.205,643.139z"/>
		<path fill="#FAFAFA" d="M376.271,650.297c4.304-0.165,8.521-0.867,12.646-2.112c0.688-0.208,1.046,0.853,0.354,1.062
			c-4.214,1.272-8.528,1.998-12.927,2.167C375.624,651.442,375.549,650.325,376.271,650.297z"/>
	</g>
	<g>
		<g>
			<path fill="#2A94F4" d="M402.574,641.044c1.228-2.366,2.173-5.371,0.691-9.085c-1.596-3.99-5.309-7.023-8.744-9.703
				c-4.505-3.513-8.271-6.692-10.126-11.873c-1.337-3.733-1.812-7.561-4.374-11.317c-2.979-4.369-7.731-6.954-11.83-8.197
				c-4.779-1.444-9.315-1.413-14.263-3.878c-2.994-1.493-5.508-3.662-7.538-6.65c-1.466-2.164-2.611-4.419-4.094-6.573
				c-4.783-6.953-12.497-10.133-16.649-7.574c-4.618,1.303-6.352,6.703-3.026,13.499c2.661,5.436,7.671,9.01,12.015,13.268
				c4.7,4.604,6.193,9.01,7.316,14.09c0.762,3.456,1.455,7.115,3.736,10.7c2.291,3.604,5.745,6.128,9.145,8.268
				c4.152,2.62,9.103,5.126,11.948,9.738c1.522,2.473,2.246,5.037,3.863,7.508c1.103,1.679,2.501,3.226,4.032,4.566
				c8.249,7.227,16.64,6.14,21.267,2.177C398.712,647.643,400.84,644.386,402.574,641.044z"/>
		</g>
		<path fill="#FAFAFA" d="M329.86,576.736c6.627,6.336,13.225,12.703,19.793,19.1c-1.204-3.558-2.408-7.117-3.612-10.675
			c-0.231-0.683,0.86-0.938,1.089-0.26l4.161,12.297c0.034,0.099,0.033,0.186,0.018,0.266c5.507,5.371,10.987,10.769,16.453,16.182
			c-1.022-6.221-2.045-12.441-3.067-18.662c-0.116-0.708,0.972-0.972,1.089-0.26c1.091,6.639,2.182,13.278,3.273,19.917
			c0.017,0.101,0.004,0.19-0.022,0.271c5.062,5.019,10.093,10.07,15.121,15.124c-1.046-5.14-2.092-10.28-3.138-15.42
			c-0.144-0.705,0.945-0.967,1.089-0.261c1.161,5.705,2.322,11.409,3.483,17.114c3.366,3.388,6.724,6.783,10.076,10.185
			l-3.315-15.501c-0.151-0.704,0.938-0.966,1.089-0.261c1.117,5.226,2.235,10.451,3.352,15.677c0.075,0.352-0.162,0.577-0.434,0.64
			c0.014,0.054,0.023,0.11,0.022,0.168c3.862,3.921,7.714,7.852,11.549,11.799c0.503,0.518-0.316,1.281-0.818,0.764
			c-3.879-3.992-7.775-7.968-11.681-11.934c-5.361,0.377-10.717,0.43-16.085,0.151c-0.719-0.037-0.683-1.156,0.038-1.119
			c5.007,0.261,10.003,0.222,15.002-0.088c-3.123-3.168-6.249-6.333-9.384-9.489c-0.2-0.024-0.382-0.151-0.435-0.411
			c-0.002-0.01-0.004-0.02-0.006-0.03c-0.147-0.148-0.296-0.296-0.444-0.444c-5.427-0.236-10.854-0.472-16.28-0.708
			c-0.719-0.031-0.683-1.15,0.038-1.119c5.024,0.218,10.047,0.437,15.071,0.655c-4.97-4.998-9.946-9.99-14.951-14.953
			c-5.855-0.316-11.71-0.631-17.566-0.947c-0.718-0.039-0.683-1.157,0.038-1.119c5.445,0.293,10.891,0.587,16.336,0.881
			c-5.557-5.502-11.128-10.989-16.727-16.448c-0.081,0.047-0.174,0.081-0.292,0.077l-8.446-0.318
			c-0.72-0.027-0.683-1.146,0.038-1.119c2.536,0.096,5.072,0.191,7.608,0.286c-6.617-6.446-13.264-12.861-19.941-19.245
			C328.521,577.002,329.341,576.24,329.86,576.736z"/>
	</g>
	<g>
		<g>
			<path fill="#2A94F4" d="M715.218,646.99c-2.562-1.92-5.15-4.679-5.482-9.469c-0.352-5.148,2.085-10.365,4.404-15.054
				c3.044-6.148,5.462-11.55,4.769-18.122c-0.498-4.736-1.979-9.125-1.165-14.523c0.947-6.279,4.741-11.552,8.528-15.033
				c4.418-4.052,9.342-6.382,13.411-11.627c2.461-3.176,4.052-6.832,4.69-11.123c0.458-3.104,0.522-6.141,1.005-9.245
				c1.552-10.015,8.241-17.476,14.067-16.869c5.675-0.996,10.366,3.943,10.308,13.028c-0.047,7.268-3.605,13.745-6.086,20.616
				c-2.687,7.43-2.006,12.975-0.574,19.057c0.976,4.136,2.134,8.456,1.534,13.523c-0.6,5.093-3.023,9.623-5.586,13.71
				c-3.127,4.999-7.178,10.289-7.853,16.761c-0.358,3.468,0.195,6.62-0.268,10.136c-0.318,2.391-1.025,4.793-1.983,7.041
				c-5.159,12.117-14.804,15.314-21.875,13.436C722.835,652.117,718.836,649.702,715.218,646.99z"/>
		</g>
		<path fill="#FAFAFA" d="M757.749,595.079c-5.615,3.63-11.23,7.26-16.844,10.89c3.86-10.89,7.255-21.943,10.186-33.122
			c0.186,0.106,0.42,0.125,0.642-0.037c2.546-1.86,5.093-3.72,7.639-5.579c0.638-0.466-0.11-1.436-0.746-0.972
			c-2.396,1.75-4.791,3.5-7.187,5.249c2.059-7.962,3.87-15.991,5.448-24.07c0.001-0.001,0.002-0.001,0.003-0.002
			c2.592-2.121,5.184-4.242,7.776-6.363c0.61-0.499-0.135-1.471-0.746-0.971c-2.221,1.818-4.443,3.635-6.664,5.453
			c0.504-2.646,0.987-5.297,1.437-7.954c0.132-0.777-1.085-0.921-1.216-0.144c-1.122,6.62-2.416,13.205-3.865,19.753
			c-1.329-2.977-2.415-6.043-3.21-9.212c-0.19-0.757-1.405-0.593-1.212,0.173c0.942,3.754,2.236,7.382,3.904,10.875
			c0.022,0.045,0.054,0.073,0.082,0.108c-2.493,11.011-5.434,21.912-8.826,32.671c-2.452-5.818-4.319-11.822-5.535-18.029
			c-0.151-0.77-1.365-0.603-1.212,0.173c1.329,6.786,3.385,13.35,6.17,19.68c-3.412,10.653-7.256,21.167-11.528,31.51
			c-1.539-5.036-3.078-10.072-4.616-15.108c-0.23-0.754-1.357-0.273-1.129,0.475c1.671,5.469,3.342,10.938,5.013,16.407
			c-4.331,10.35-9.077,20.531-14.253,30.505c-0.363,0.699,0.773,1.157,1.134,0.462c3.884-7.483,7.522-15.085,10.931-22.785
			c0.104-0.002,0.209-0.022,0.315-0.084c5.222-3.085,10.444-6.17,15.667-9.255c0.678-0.401-0.075-1.367-0.746-0.971
			c-4.823,2.849-9.645,5.698-14.468,8.547c3.665-8.382,7.038-16.887,10.134-25.49c6.089-3.937,12.178-7.873,18.267-11.81
			C759.158,595.621,758.407,594.653,757.749,595.079z"/>
	</g>
	<g>
		<g>
			<path fill="#2A94F4" d="M808.531,632.517c-25.299,22.22-60.339,31.944-93.468,25.971c-1.016-0.184,0.707-1.858,0.836-2.019
				c21.865-27.408,59.499-37.716,92.277-25.29C808.692,631.374,809.026,632.088,808.531,632.517z"/>
		</g>
		<path fill="#FAFAFA" d="M798.657,632.236c-21.739,6.613-43.479,13.226-65.218,19.839c5.316-4.599,10.631-9.197,15.947-13.796
			c0.542-0.469-0.135-1.361-0.681-0.888c-5.966,5.162-11.933,10.324-17.899,15.485c-6.69,2.035-13.381,4.07-20.071,6.105
			c-0.69,0.21-0.263,1.246,0.421,1.037c6.575-2,13.15-4,19.726-6c0.14,0.036,0.296,0.014,0.444-0.114
			c0.012-0.011,0.025-0.022,0.037-0.032c22.572-6.866,45.144-13.732,67.716-20.599C799.767,633.063,799.341,632.028,798.657,632.236
			z"/>
		<path fill="#FAFAFA" d="M773.58,632.141c0.567-0.443-0.113-1.333-0.681-0.888c-5.272,4.12-10.544,8.239-15.816,12.359
			c-0.567,0.443,0.112,1.333,0.681,0.888C763.037,640.381,768.308,636.261,773.58,632.141z"/>
		<path fill="#FAFAFA" d="M789.638,642.205c-4.021-0.766-8.043-1.531-12.065-2.297c4.914-3.374,9.828-6.747,14.742-10.121
			c0.594-0.408-0.089-1.295-0.681-0.888c-5.192,3.564-10.384,7.129-15.576,10.693c-0.567,0.389,0.028,1.201,0.599,0.923
			c0.042,0.206,0.186,0.391,0.449,0.441l12.386,2.358C790.2,643.449,790.344,642.339,789.638,642.205z"/>
		<path fill="#FAFAFA" d="M771.841,649.844l-13.094-5.036c-0.671-0.258-1.098,0.777-0.423,1.036l13.094,5.036
			C772.089,651.138,772.516,650.103,771.841,649.844z"/>
		<path fill="#FAFAFA" d="M746.357,655.332c-4.284-0.449-8.446-1.427-12.479-2.942c-0.673-0.253-1.1,0.782-0.423,1.036
			c4.12,1.548,8.377,2.556,12.755,3.015C746.927,656.517,747.076,655.407,746.357,655.332z"/>
	</g>
	<g>
		<g>
			<path fill="#FFBE55" d="M720.722,644.364c-1.069-2.442-1.814-5.503-0.091-9.11c1.856-3.876,5.761-6.657,9.365-9.105
				c4.727-3.208,8.695-6.131,10.887-11.179c1.581-3.637,2.307-7.425,5.111-11.003c3.261-4.163,8.173-6.429,12.345-7.399
				c4.863-1.125,9.388-0.795,14.488-2.928c3.086-1.293,5.738-3.291,7.96-6.138c1.605-2.062,2.896-4.237,4.519-6.289
				c5.232-6.622,13.139-9.287,17.112-6.459c4.522,1.605,5.896,7.108,2.129,13.669c-3.014,5.249-8.249,8.485-12.864,12.447
				c-4.994,4.284-6.774,8.582-8.23,13.577c-0.989,3.398-1.921,7.004-4.433,10.43c-2.523,3.445-6.137,5.735-9.67,7.647
				c-4.316,2.341-9.421,4.515-12.564,8.928c-1.682,2.367-2.573,4.878-4.35,7.236c-1.211,1.603-2.708,3.054-4.325,4.29
				c-8.708,6.667-17.009,5.029-21.364,0.769C724.141,651.203,722.232,647.813,720.722,644.364z"/>
		</g>
		<path fill="#FAFAFA" d="M797.52,584.994c-7.031,5.885-14.034,11.803-21.01,17.752c1.436-3.471,2.873-6.942,4.309-10.414
			c0.276-0.666-0.796-0.992-1.069-0.332l-4.963,11.996c-0.04,0.097-0.045,0.183-0.035,0.264
			c-5.849,4.996-11.674,10.021-17.485,15.061c1.43-6.14,2.861-12.279,4.292-18.419c0.163-0.699-0.906-1.034-1.069-0.332
			c-1.527,6.553-3.054,13.105-4.58,19.658c-0.023,0.1-0.016,0.189,0.004,0.272c-5.383,4.674-10.735,9.382-16.086,14.093
			c1.383-5.06,2.766-10.12,4.148-15.179c0.19-0.694-0.879-1.027-1.069-0.332c-1.535,5.616-3.069,11.231-4.604,16.847
			c-3.582,3.158-7.157,6.325-10.726,9.498l4.33-15.249c0.197-0.693-0.872-1.025-1.069-0.332c-1.46,5.141-2.919,10.281-4.379,15.422
			c-0.098,0.347,0.123,0.586,0.391,0.668c-0.017,0.053-0.03,0.108-0.033,0.166c-4.112,3.658-8.215,7.326-12.302,11.011
			c-0.536,0.483,0.23,1.299,0.766,0.816c4.134-3.728,8.284-7.438,12.443-11.138c5.325,0.729,10.665,1.137,16.04,1.212
			c0.719,0.01,0.758-1.109,0.036-1.119c-5.013-0.07-9.996-0.439-14.964-1.078c3.325-2.955,6.653-5.906,9.99-8.849
			c0.201-0.011,0.391-0.125,0.461-0.381c0.003-0.01,0.005-0.02,0.008-0.029c0.157-0.138,0.315-0.275,0.472-0.414
			c5.43,0.123,10.861,0.245,16.292,0.368c0.72,0.016,0.757-1.102,0.036-1.119c-5.027-0.114-10.054-0.227-15.081-0.341
			c5.289-4.659,10.583-9.312,15.905-13.934c5.863,0.071,11.727,0.143,17.59,0.214c0.719,0.009,0.758-1.11,0.036-1.119
			c-5.453-0.066-10.906-0.133-16.359-0.199c5.907-5.124,11.829-10.231,17.776-15.309c0.078,0.053,0.168,0.093,0.287,0.096
			l8.448,0.24c0.72,0.02,0.757-1.098,0.036-1.119c-2.537-0.072-5.073-0.144-7.61-0.216c7.028-5.995,14.084-11.958,21.167-17.888
			C798.839,585.346,798.071,584.532,797.52,584.994z"/>
	</g>
</g>
<path fill="#F7F7F7" d="M747.02,433v228.243H591.965c-1.703-9.109-9.952-16.714-19.243-17.375
	c-6.249-0.463-13.094,1.769-18.516-1.372c-5.604-3.24-6.96-10.614-7.34-17.061c-0.397-6.464-0.711-13.656-5.373-18.136
	c-4.464-4.265-11.292-4.48-17.458-4.613c-10.217-0.232-21.608-1.488-28.237-9.258c-5.356-6.315-6.084-15.557-3.918-23.542
	c2.166-7.985,6.828-15.011,11.407-21.905c4.116-6.183,8.25-12.366,12.366-18.549c4.827-7.241,9.87-15.887,7.125-24.153
	c-3.621-10.928-18.731-14.449-22.814-25.228c-2.629-6.91,0.05-15.177-3.34-21.756c-2.364-4.579-7.258-7.357-12.217-8.795
	c-9.804-2.844-20.814-1.256-29.411,4.265c-5.406,3.472-9.787,8.332-15.094,11.953c-5.307,3.621-12.201,5.952-18.136,3.538
	c-6.167-2.513-9.407-9.192-14.565-13.408c-5.423-4.414-12.845-5.869-19.806-5.125c-3.257,0.364-6.414,1.141-9.506,2.215V433H747.02z
	"/>
<g>
	<path fill="#2A94F4" d="M728.013,447.269c-0.075,0.092-0.375,0.192-0.6,0.192h-0.581c-0.525,0-0.824-0.238-0.618-0.466l2.549-2.616
		l-2.549-2.616c-0.206-0.229,0.075-0.466,0.618-0.466h0.581c0.225,0,0.525,0.101,0.6,0.192l1.781,1.811
		c0.58-0.604,1.18-1.207,1.761-1.811c0.075-0.1,0.375-0.192,0.6-0.192h0.581c0.525,0,0.824,0.238,0.6,0.466l-2.512,2.616
		l2.549,2.616c0.226,0.229-0.055,0.466-0.6,0.466h-0.58c-0.226,0-0.525-0.091-0.619-0.192l-1.761-1.82L728.013,447.269z"/>
</g>
<g>
	<path fill="#2A94F4" d="M720.115,439.484h-6.119c-0.822,0-1.494,0.672-1.494,1.494v2.414h1.326v-2.414
		c0-0.088,0.071-0.168,0.168-0.168h6.119c0.097,0,0.177,0.08,0.177,0.168v3.05c0,0.097-0.08,0.177-0.177,0.177h-3.422v1.326h3.422
		c0.831,0,1.503-0.672,1.503-1.503v-3.05C721.618,440.156,720.946,439.484,720.115,439.484z"/>
</g>
<g>
	<path fill="#2A94F4" d="M716.516,442.066h-6.119c-0.822,0-1.494,0.672-1.494,1.494v3.05c0,0.831,0.672,1.503,1.494,1.503h6.119
		c0.831,0,1.503-0.672,1.503-1.503v-3.05C718.019,442.738,717.347,442.066,716.516,442.066z M716.693,446.61
		c0,0.097-0.08,0.177-0.177,0.177h-6.119c-0.088,0-0.168-0.08-0.168-0.177v-3.05c0-0.088,0.08-0.168,0.168-0.168h6.119
		c0.097,0,0.177,0.08,0.177,0.168V446.61z"/>
</g>
<path fill="#2A94F4" d="M704.309,444.379h-7.666c-0.241,0-0.439-0.198-0.439-0.439v-0.993c0-0.242,0.198-0.439,0.439-0.439h7.666
	c0.242,0,0.439,0.198,0.439,0.439v0.993C704.748,444.181,704.551,444.379,704.309,444.379z"/>
<g>
	<g opacity="0.66">
		
			<rect x="542.717" y="462.21" transform="matrix(0.9841 0.1774 -0.1774 0.9841 100.5738 -103.5302)" fill="#2A94F4" width="173.371" height="97.205"/>
	</g>
</g>
<path fill="#F7F7F7" d="M881.426,705h-667c-12.15,0-22-9.85-22-22l0,0c0-12.15,9.85-22,22-22h667c12.15,0,22,9.85,22,22l0,0
	C903.426,695.15,893.576,705,881.426,705z"/>
<g>
	<line fill="none" x1="724.21" y1="619.64" x2="724.171" y2="619.64"/>
	<rect x="687.657" y="654.091" fill="#FFBE55" width="49.745" height="6.028"/>
	<polygon fill="#F7F7F7" points="727.166,630.718 697.893,630.718 700.888,619.64 724.171,619.64 	"/>
	<polygon fill="#FFBE55" points="733.481,654.091 691.578,654.091 697.893,630.718 727.166,630.718 	"/>
	<line fill="none" x1="727.252" y1="630.718" x2="727.166" y2="630.718"/>
	<path fill="#FFBE55" d="M724.171,619.64h-23.282l6.024-22.302c0,0,0.298,4.571,5.621,4.571c5.316,0,5.614-4.571,5.614-4.571
		L724.171,619.64z"/>
	<path opacity="0.72" fill="#FFBE55" d="M664.17,615.12c0,0-0.219,3.359-4.125,3.359c-3.911,0-4.13-3.359-4.13-3.359H664.17z"/>
	<line fill="none" x1="668.626" y1="631.508" x2="668.597" y2="631.508"/>
	<rect x="641.766" y="656.823" fill="#FFBE55" width="36.553" height="4.43"/>
	<polygon fill="#F7F7F7" points="670.798,639.648 649.288,639.648 651.489,631.508 668.597,631.508 	"/>
	<polygon fill="#FFBE55" points="675.438,656.823 644.647,656.823 649.288,639.648 670.798,639.648 	"/>
	<line fill="none" x1="670.861" y1="639.648" x2="670.798" y2="639.648"/>
	<path fill="#FFBE55" d="M668.597,631.508h-17.108l4.426-16.388c0,0,0.219,3.359,4.13,3.359c3.907,0,4.125-3.359,4.125-3.359
		L668.597,631.508z"/>
	<path opacity="0.74" fill="#FFBE55" d="M718.147,597.339c0,0-0.298,4.571-5.614,4.571c-5.323,0-5.621-4.571-5.621-4.571H718.147z"
		/>
</g>
<path fill="#FFBE55" d="M591.965,661.243H377.889V452.938c3.092-1.075,6.249-1.852,9.506-2.215
	c6.96-0.744,14.383,0.711,19.806,5.125c5.158,4.216,8.398,10.895,14.565,13.408c5.935,2.414,12.829,0.083,18.136-3.538
	c5.307-3.621,9.688-8.481,15.094-11.953c8.597-5.522,19.607-7.109,29.411-4.265c4.96,1.438,9.853,4.216,12.217,8.795
	c3.389,6.58,0.711,14.846,3.34,21.756c4.083,10.779,19.194,14.3,22.814,25.228c2.744,8.266-2.298,16.912-7.125,24.153
	c-4.117,6.183-8.25,12.366-12.366,18.549c-4.579,6.894-9.242,13.92-11.407,21.905c-2.166,7.985-1.438,17.227,3.918,23.542
	c6.629,7.77,18.02,9.026,28.237,9.258c6.167,0.132,12.994,0.347,17.458,4.613c4.662,4.48,4.976,11.672,5.373,18.136
	c0.38,6.448,1.736,13.821,7.34,17.061c5.422,3.141,12.267,0.909,18.516,1.372C582.012,644.529,590.262,652.134,591.965,661.243z"/>
<text transform="matrix(0.9862 0.1657 -0.1657 0.9862 572.3504 492.5907)"><tspan x="0" y="0" fill="#FFFFFF" font-family="'MS-UIGothic'" font-size="32.1106px">SERVER</tspan><tspan x="14.111" y="38.533" fill="#FFFFFF" font-family="'MS-UIGothic'" font-size="32.1106px">DOWN</tspan></text>
<path fill="#FFE3CA" d="M592.354,463.78c0.023-1.424,0.203-2.85,0.153-3.415c-0.021-0.236-0.267-0.849-0.326-1.032
	c-0.173-0.537-0.526-1.34-0.389-1.888l0.539-2.31c0.279-1.112-0.047-2.09-1.159-2.369l0,0c-1.204-0.302-2.009,0.588-2.17,1.82
	l-0.404,1.61c-0.129,0.985-0.689,1.818-1.203,2.669c-1.046,1.73-1.123,4.066-1.01,5.946c0.071,1.179,1.295,2.197,2.998,3.462
	c0.837,0.621,2.32,1.335,2.002,0.061c-0.267-1.068-2.718-3.151-1.137-5.906c0.078-0.135,0.302-0.468,0.489-0.427
	c0.558,0.122,0.351,1.376,0.466,2.042c0.161,0.935,0.666,1.423,1.049,1.424C592.657,465.467,592.337,464.797,592.354,463.78z"/>
<path fill="#FFBE55" d="M619.311,392.206c0,0-23.918,19.562-27.261,33.032c-2.014,8.119-3.175,25.381-3.422,29.366
	c-0.032,0.508,0.272,0.977,0.75,1.152c0.306,0.112,0.662,0.231,0.997,0.315c0.34,0.085,0.792,0.147,1.215,0.191
	c0.7,0.072,1.34-0.393,1.497-1.079c1.16-5.069,5.827-25.044,8.162-28.689c2.679-4.182,23.048-22.213,24.545-26.943
	C627.292,394.821,624.677,389.525,619.311,392.206z"/>
<path fill="#FFE3CA" d="M655.331,465.933c0.324-1.387,0.497-2.814,0.682-3.35c0.077-0.224,0.465-0.759,0.567-0.922
	c0.299-0.479,0.836-1.172,0.836-1.737l0.04-2.372c0-1.147,0.554-2.016,1.7-2.016l0,0c1.242,0,1.806,1.059,1.662,2.293v1.66
	c-0.115,0.987,0.226,1.931,0.518,2.881c0.594,1.933,0.101,4.217-0.466,6.013c-0.356,1.127-1.79,1.816-3.75,2.629
	c-0.963,0.399-2.575,0.731-1.957-0.428c0.518-0.971,3.403-2.396,2.54-5.452c-0.043-0.15-0.179-0.528-0.371-0.534
	c-0.571-0.017-0.675,1.25-0.949,1.868c-0.384,0.867-0.992,1.219-1.364,1.126C654.627,467.496,655.1,466.923,655.331,465.933z"/>
<path fill="#FFBE55" d="M646.592,389.952c0,0,18.442,24.792,18.408,38.67c-0.021,8.365-3.093,25.391-3.823,29.316
	c-0.093,0.501-0.501,0.881-1.007,0.935c-0.324,0.034-0.698,0.063-1.044,0.063c-0.35,0-0.804-0.05-1.225-0.11
	c-0.697-0.1-1.205-0.707-1.19-1.41c0.108-5.199,0.439-25.709-0.939-29.812c-1.581-4.708-16.953-27.152-17.255-32.104
	C638.215,390.547,642.04,386.046,646.592,389.952z"/>
<circle fill="#F7F7F7" cx="564.238" cy="461.499" r="5.961"/>
<circle fill="#F7F7F7" cx="710.23" cy="486.957" r="5.961"/>
<g>
	<g>
		<polygon fill="#FFE3CA" points="408.146,571.118 400.839,519.773 381.125,517.068 370.871,570.747 		"/>
		<path fill="#FFE3CA" d="M392.908,650.676l0.021,5.787c0.004,1.177-0.156,2.349-0.475,3.482l-0.503,1.782
			c-0.413,1.464,0.687,2.916,2.208,2.911c3.942-0.014,10.679-0.004,12.415-0.001c0.284,0,0.563-0.191,0.587-0.474
			c0.146-1.69-4.734-2.821-8.41-4.244c-2.8-1.084-2.651-6.116-2.306-9.055c0.13-1.11-0.796-2.055-1.91-1.963l0,0
			C393.613,648.978,392.905,649.751,392.908,650.676z"/>
		<path fill="#FFE3CA" d="M365.817,649.053l-1.994,6.621c-0.088,0.293-0.22,0.57-0.39,0.824l-1.414,2.099
			c-0.897,1.333-0.251,3.153,1.285,3.622c0,0,2.85,1.003,5.788,1.968c3.008,0.988,6.791,0.162,6.791-0.631
			c0-1.763-1.644-0.364-4.398-2.205c-0.923-0.617-1.875-1.263-2.724-1.929c-2.37-1.861-0.301-6.571,1.15-9.224
			c0.522-0.954-0.032-2.138-1.095-2.365l-0.687-0.146C367.12,647.471,366.115,648.065,365.817,649.053z"/>
		<path fill="#0B4870" d="M386.185,571.614l21.845-1.833c0,0,2.2,15.899-3.321,44.68c-2.589,13.497-7.985,39.288-7.985,39.288
			c-1.337,0.585-2.697,0.732-4.082,0.387c0,0-0.41-11.377-0.66-23.628c-0.24-11.75-0.305-24.305-1.054-28.413
			C389.399,593.704,386.185,571.614,386.185,571.614z"/>
		<path fill="#0B4870" d="M390.695,571.892c2.255,12.104,7.294,30.204-2.411,47.207s-19.898,34.681-19.898,34.681
			c-1.313,0.054-2.504-0.423-3.611-1.263c0,0,1.702-7.708,4.162-16.709c2.814-10.297,6.378-22.408,5.363-28.723
			c-1.903-11.835-4.089-27.597-3.427-35.251C371.534,564.179,389.509,565.527,390.695,571.892z"/>
		<path fill="#F7F7F7" d="M408.9,569.81l-8.062-50.037l-19.714-2.706l-10.595,52.835c-0.199,0.993,0.444,1.957,1.439,2.146
			c3.67,0.696,12.524,2.149,22.431,2.149c7.396,0,11.553-1.438,13.444-2.349C408.611,571.479,409.036,570.65,408.9,569.81z"/>
		<path fill="#2A94F4" d="M387.283,520.184c0,3.604-0.655,7.174-1.886,10.562c-2.408,6.628-6.022,19.16-3.875,30.201
			c3.092,15.899,7.066,22.327,1.914,26.032c-5.153,3.706-15.035-2.478-15.32-4.539c-0.285-2.061,1.923-27.38,4.426-38.349
			c2.503-10.969,9.513-26.738,9.513-26.738l2.97,0.317C386.309,517.809,387.283,518.893,387.283,520.184L387.283,520.184z"/>
		<path fill="#2A94F4" d="M395.49,519.039c0,0,3.419,7.389,2.226,18.006c-1.192,10.616-3.956,42.944,5.705,47.825
			c3.059,1.546,10.045-5.3,10.045-7.839s-2.332-11.041-4.541-18.77c-2.209-7.729-7.534-38.412-7.534-38.412L395.49,519.039z"/>
		<g>
			<path fill="#FFE3CA" d="M392.738,496.139c-4.4,0-6.041,3.132-6.125,8.926c-0.031,2.17,0.945,4.319,1.73,5.692
				c0.584,1.02,0.744,2.227,0.411,3.354l-0.966,3.27c-0.657,3.033,0.784,4.697,2.91,5.301c1.053,0.299,2.316,0.067,3.235-0.527
				c1.094-0.707,1.184-2.227,0.98-3.513l-0.25-0.932c-0.336-1.256,0.392-2.61,1.662-2.888c3.388-0.741,3.873-4.272,4.781-9.757
				C402.053,499.348,397.138,496.139,392.738,496.139z"/>
			<path fill="#0B4870" d="M402.983,493.594l-2.523,0.767c-0.927,0.282-1.916,0.288-2.847,0.018l-5.038-1.462
				c-3.051,0-8.091,1.723-7.454,6.126l0.562,3.114c0.225,1.244,1.262,2.175,2.522,2.283c0,0,0,0,0,0
				c0.117,0.43,0.507,0.729,0.953,0.729c0.545,0,0.987-0.442,0.987-0.987l0,0c0-1.405,0.986-2.603,2.357-2.911
				c1.681-0.377,3.476-0.467,5.355,0.038c3.502,0.941,7.193-1.229,7.543-4.838c0.022-0.228,0.034-0.461,0.034-0.696
				C405.434,494.321,404.231,493.25,402.983,493.594z"/>
			<path fill="#FFE3CA" d="M389.038,505.171c0,1.343-0.5,2.432-1.793,2.432s-2.124-1.847-2.124-3.191
				c0-1.343,0.83-1.674,2.124-1.674S389.038,503.828,389.038,505.171z"/>
		</g>
	</g>
	<path fill="#FFBE55" d="M388.503,511.068c0,0,3.286,4.518,7.375,3.905c0,0-0.849,0.406-1.056,1.066
		C394.823,516.039,390.939,515.752,388.503,511.068z"/>
</g>
<path fill="#FFE3CA" d="M460.736,517.953c-1.183,0.6-2.435,1.071-2.879,1.358c-0.185,0.119-0.583,0.589-0.708,0.717
	c-0.367,0.376-0.875,1.016-1.386,1.141l-2.136,0.56c-1.037,0.254-1.701,0.947-1.447,1.984l0,0c0.275,1.123,1.358,1.399,2.441,0.996
	l1.501-0.367c0.867-0.322,1.796-0.223,2.72-0.169c1.879,0.109,3.836-0.842,5.335-1.752c0.94-0.571,1.247-2.021,1.548-3.973
	c0.148-0.959,0.091-2.491-0.82-1.675c-0.764,0.684-1.414,3.608-4.37,3.503c-0.145-0.005-0.517-0.045-0.565-0.217
	c-0.142-0.513,0.981-0.887,1.479-1.271c0.7-0.539,0.883-1.167,0.717-1.482C461.994,516.97,461.581,517.525,460.736,517.953z"/>
<path fill="#2A94F4" d="M398.447,531.128c0,0,18.138,6.923,30.683,3.823c7.561-1.869,22.28-8.414,25.669-9.942
	c0.432-0.195,0.686-0.648,0.623-1.118c-0.041-0.301-0.097-0.646-0.174-0.958c-0.077-0.317-0.223-0.716-0.371-1.084
	c-0.245-0.608-0.906-0.933-1.539-0.764c-4.679,1.247-23.155,6.083-27.171,5.745c-4.608-0.389-20.23-7.802-24.775-6.98
	C396.846,520.672,401.225,527.383,398.447,531.128z"/>
<path fill="#FFE3CA" d="M369.883,589.177c-0.302-1.292-0.462-2.62-0.635-3.119c-0.072-0.208-0.433-0.706-0.528-0.858
	c-0.278-0.446-0.779-1.091-0.779-1.617l-0.037-2.208c0-1.068-0.516-1.877-1.583-1.877l0,0c-1.156,0-1.681,0.986-1.548,2.135v1.546
	c0.107,0.919-0.211,1.798-0.482,2.682c-0.553,1.8-0.094,3.927,0.434,5.598c0.331,1.049,1.667,1.691,3.492,2.448
	c0.896,0.372,2.398,0.68,1.822-0.398c-0.483-0.904-3.169-2.23-2.365-5.076c0.04-0.14,0.167-0.491,0.345-0.497
	c0.532-0.016,0.629,1.164,0.883,1.739c0.357,0.808,0.924,1.135,1.27,1.049C370.539,590.632,370.098,590.099,369.883,589.177z"/>
<path fill="#2A94F4" d="M378.02,518.431c0,0-17.171,23.083-17.139,36.006c0.019,7.789,2.88,23.641,3.559,27.296
	c0.087,0.466,0.466,0.82,0.938,0.87c0.302,0.032,0.65,0.059,0.972,0.059c0.326,0,0.749-0.047,1.141-0.103
	c0.649-0.093,1.122-0.658,1.108-1.313c-0.1-4.841-0.409-23.937,0.875-27.758c1.472-4.383,15.784-25.281,16.066-29.892
	C385.82,518.986,382.259,514.795,378.02,518.431z"/>
<g>
	<path fill="#F7F7F7" d="M483.971,458.102c1.568,0.239,2.652,1.713,2.414,3.268c-0.119,0.778-0.544,1.441-1.138,1.89
		c-0.592,0.436-1.353,0.643-2.143,0.523l-19.19-2.929c-1.568-0.239-2.652-1.713-2.412-3.281c0.119-0.778,0.544-1.441,1.136-1.877
		c0.592-0.436,1.352-0.643,2.143-0.523L483.971,458.102z"/>
	<path fill="#2A94F4" d="M471.758,469.374l-8.558,56.068c-0.04,0.264-0.298,0.453-0.562,0.413l-1.344-0.205
		c-0.264-0.04-0.453-0.298-0.413-0.562l8.558-56.068c0.042-0.277,0.298-0.453,0.562-0.413l1.344,0.205
		C471.608,468.852,471.8,469.097,471.758,469.374z"/>
	<g>
		<path fill="#0B4870" d="M470.299,468.748c-0.181-0.028-0.307-0.198-0.279-0.38l0.451-2.958l-12.776-1.95
			c-0.181-0.028-0.307-0.198-0.279-0.38l0.949-6.221c0.028-0.181,0.198-0.307,0.38-0.279l2.577,0.393
			c0.181,0.028,0.307,0.198,0.279,0.38c-0.028,0.181-0.198,0.307-0.38,0.279l-2.247-0.343l-0.849,5.562l12.776,1.95
			c0.181,0.028,0.307,0.198,0.279,0.38l-0.502,3.287C470.652,468.65,470.481,468.776,470.299,468.748z"/>
	</g>
</g>
<path fill="#0B4870" d="M400.04,510.54c0,0-1.018-1.707-4.162-1.065c-3.144,0.642-4.102,2.206-4.836,0.706s-0.806-6.712-0.806-6.712
	l-1.292,0.774c0,0,0.563,2.236-0.441,3.161c-1.003,0.926-1.961,3.479-0.301,5.298c1.66,1.819,1.508,3.574,1.508,3.574l0.152-1.883
	l0.734,2.043l0.16-1.308l3.447,3.351l3.926-3.926l-0.255,1.197C397.872,515.75,400.517,512.113,400.04,510.54z"/>
<path opacity="0.09" fill="#2A94F4" d="M415.945,373.098h-70.386c-4.492,0-8.134-3.642-8.134-8.134l0,0
	c0-4.492,3.642-8.134,8.134-8.134h70.386c4.492,0,8.134,3.642,8.134,8.134l0,0C424.079,369.456,420.437,373.098,415.945,373.098z"/>
<path opacity="0.09" fill="#2A94F4" d="M474.398,402.791h-70.386c-4.492,0-8.134-3.642-8.134-8.134v0
	c0-4.492,3.642-8.134,8.134-8.134h70.386c4.492,0,8.134,3.642,8.134,8.134v0C482.532,399.149,478.89,402.791,474.398,402.791z"/>
<path opacity="0.09" fill="#2A94F4" d="M747.008,373.098h-70.386c-4.492,0-8.134-3.642-8.134-8.134l0,0
	c0-4.492,3.642-8.134,8.134-8.134h70.386c4.492,0,8.134,3.642,8.134,8.134l0,0C755.142,369.456,751.5,373.098,747.008,373.098z"/>
<path opacity="0.09" fill="#2A94F4" d="M805.461,402.791h-70.386c-4.492,0-8.134-3.642-8.134-8.134v0
	c0-4.492,3.642-8.134,8.134-8.134h70.386c4.492,0,8.134,3.642,8.134,8.134v0C813.595,399.149,809.953,402.791,805.461,402.791z"/>
</svg>
