<?xml version="1.0" encoding="utf-8"?>
<!-- Generator: Adobe Illustrator 23.0.0, SVG Export Plug-In . SVG Version: 6.00 Build 0)  -->
<svg version="1.1" id="Slow_Loading" xmlns="http://www.w3.org/2000/svg" xmlns:xlink="http://www.w3.org/1999/xlink" x="0px"
	 y="0px" viewBox="0 0 1920 1080" style="enable-background:new 0 0 1920 1080;" xml:space="preserve">
<style type="text/css">
	.st0{opacity:0.1;fill:#2A94F4;}
	.st1{fill:#CCE9FF;}
	.st2{opacity:0.15;fill:#0E538C;}
	.st3{fill:#FFBE55;}
	.st4{fill:#679B46;}
	.st5{fill:#B57400;}
	.st6{fill:#FCAD00;}
	.st7{fill:#0B4870;}
	.st8{fill:#B97A59;}
	.st9{fill:#AA6B4F;}
	.st10{fill:#0E538C;}
	.st11{fill:#89D5DA;}
	.st12{fill:#D3D3D3;}
	.st13{fill:#F7F7F7;}
</style>
<ellipse class="st0" cx="960" cy="744.7" rx="874.7" ry="36.6"/>
<ellipse class="st0" cx="1494.4" cy="907.1" rx="56.7" ry="13.6"/>
<ellipse class="st0" cx="1653.1" cy="910.8" rx="29.9" ry="7.2"/>
<path class="st1" d="M1655.4,735.8H251.6c-98.3,0-178-79.7-178-178v0c0-98.3,79.7-178,178-178h1403.8c98.3,0,178,79.7,178,178v0
	C1833.4,656.1,1753.7,735.8,1655.4,735.8z"/>
<path class="st2" d="M1651.2,697.1H255.8c-76.9,0-139.3-62.4-139.3-139.3v0c0-76.9,62.4-139.3,139.3-139.3h1395.5
	c76.9,0,139.3,62.4,139.3,139.3v0C1790.6,634.7,1728.2,697.1,1651.2,697.1z"/>
<path class="st3" d="M515.9,697.1H255.8c-76.9,0-139.3-62.4-139.3-139.3v0c0-76.9,62.4-139.3,139.3-139.3h260.1
	c28,0,50.6,22.7,50.6,50.6v177.3C566.5,674.4,543.9,697.1,515.9,697.1z"/>
<g>
	<path class="st4" d="M401.7,697.1h4.6c4.8,0,8.7-3.9,8.7-8.7V675c0-4.8-3.9-8.7-8.7-8.7h-4.6c-4.8,0-8.7,3.9-8.7,8.7v13.4
		C393,693.2,396.9,697.1,401.7,697.1z"/>
	<path class="st4" d="M459.6,697.1h3.3c4.8,0,8.7-3.9,8.7-8.7V675c0-4.8-3.9-8.7-8.7-8.7h-3.3c-4.8,0-8.7,3.9-8.7,8.7v13.4
		C450.9,693.2,454.8,697.1,459.6,697.1z"/>
	<path class="st4" d="M464.4,649.9c0,0,27.7-0.6,33-18.8c0,0,0-0.1,0-0.1c0-1.1,0-16.5,16.5-18.2c0,0,0,0,0.1,0
		c0.9-0.3,20.7-5.9,23,18.3c0,0,3.5,40.7-64.9,45.4"/>
	<path class="st5" d="M487,681.7c0.2,0,0.4-0.2,0.4-0.4c0.2-6,2.3-67.3-49-73.3c0,0-64.7-9.6-63.7,71.9c0,0.2,0.2,0.4,0.4,0.4
		L487,681.7z"/>
	<path class="st6" d="M375.2,682.3h111.2c0.2,0,0.4-0.2,0.4-0.4v-6.2c0-0.2-0.2-0.4-0.4-0.4H375.2c-0.2,0-0.4,0.2-0.4,0.4v6.2
		C374.7,682.1,374.9,682.3,375.2,682.3z"/>
	<g>
		<path class="st6" d="M459,674.8c0.3-4.6,2.5-42.7-19.9-54.7c-0.2-0.1-0.5,0-0.6,0.2l0,0c-0.1,0.2,0,0.5,0.2,0.6
			c21.9,11.7,19.8,49.4,19.5,53.8c0,0.2,0.2,0.4,0.4,0.5l0,0C458.8,675.3,459,675.1,459,674.8z"/>
	</g>
	<g>
		<path class="st6" d="M402.4,675.2L402.4,675.2c0.2,0,0.4-0.2,0.4-0.5c-0.3-4.4-2.5-42.1,19.5-53.8c0.2-0.1,0.3-0.4,0.2-0.6l0,0
			c-0.1-0.2-0.4-0.3-0.6-0.2c-22.4,11.9-20.3,50.1-19.9,54.7C402,675.1,402.2,675.3,402.4,675.2z"/>
	</g>
	<g>
		<path class="st6" d="M397,620.9h68.7c0.2,0,0.4-0.2,0.4-0.4v-0.1c0-0.2-0.2-0.4-0.4-0.4H397c-0.2,0-0.4,0.2-0.4,0.4v0.1
			C396.6,620.7,396.8,620.9,397,620.9z"/>
	</g>
	<g>
		<path class="st6" d="M379.9,649.3h103c0.2,0,0.4-0.2,0.4-0.4v-0.3c0-0.2-0.2-0.4-0.4-0.4h-103c-0.2,0-0.4,0.2-0.4,0.4v0.3
			C379.4,649.1,379.6,649.3,379.9,649.3z"/>
	</g>
</g>
<g>
	<path class="st7" d="M1805,303.2c40.7-1.4,39.8,20.4,39.2,48.9c-3,152-132.2,87.7-94,37.1c18.5-24.5,15.3,0.8,12.9-52.7
		C1762.2,317.4,1792.2,303.6,1805,303.2z"/>
	<g>
		<path class="st8" d="M1802.6,417c-8.5-1.4-53,42.1-64.7,53.9c-11.7,11.9-23.7,28.2-11.3,28.2c12.4,0,25.3-11.6,35.1-19.4
			c9.8-7.8,23-19.2,30.3-24.4C1799.2,450.2,1811,418.4,1802.6,417z"/>
		<path class="st8" d="M1738.2,510.1c0,0-5.4-35.5-23.1-61.8c-17.7-26.4-26.6-46.9-26.6-46.9l-7.6,3.5c0,0,26.6,70.2,32.8,81.7
			C1719.9,497.9,1720.3,496.4,1738.2,510.1z"/>
		<g>
			<g>
				<path class="st8" d="M1688.4,411c0,0-12.6-4.6-24.9-14.6c-12.3-10-12.2-10.3-14.3-15c-2.1-4.7,1.6-13.5,6.1-9.8
					c4.4,3.7,8.2,11.9,11.7,14.3c8.9,6.2,6.6,0.6,6-1c-0.6-1.6-1.6-3.9-0.1-5c1.5-1.1,2.7,2.5,3.6,3.7c0.9,1.2,7.5,6.8,8.8,8.1
					c1.3,1.2,1,5.4,2.9,8.9c2,3.6,7.2,18.7,4.7,20.8C1692.8,421.4,1692.2,412.8,1688.4,411z"/>
			</g>
		</g>
	</g>
	<g>
		<path class="st8" d="M1507.6,795.8c0,0-8.1,22.1-13.6,32.3c-5.5,10.1-10.2,16.9-12.5,26c-2.3,9.1,30.6-2.1,34.3-8
			c3.7-5.9,4.5-26,17.6-41.1C1546.7,789.9,1507.6,795.8,1507.6,795.8z"/>
		<path class="st7" d="M1648.5,597c0,0-98.8,44.3-108.7,57.4c-9.8,13.1-26.7,114.3-33.8,141.5c-1.5,5.7,22.3,13.6,29,9.5
			c6.7-4.1,35.9-63.7,40.8-79.1c5.3-17.1,3.4-37.5,7.6-39.4c8.8-4.1,96.8-28.3,109.3-37.6c12.6-9.3,49-42.1,45.2-53
			C1734.1,585.5,1648.5,597,1648.5,597z"/>
		<path class="st7" d="M1523.6,821c0,0,6.5,8.9,8.1,12.8c1.6,3.9,5.6,7.7,2.5,11.8c-3.1,4-15,12.5-24.2,26.5
			c-9.1,14-25.2,30.1-35.8,35.4c-10.6,5.3-26.2,3.7-26.3-2.2c-0.1-5.9,8.5-14.1,12.8-17.2c4.3-3.2,21.7-41.6,24-47.6
			c2.3-6,5.6-8.9,10-6.1c4.4,2.8,9.9,4.6,17.2-1.2C1519.2,827.5,1523.6,821,1523.6,821z"/>
	</g>
	<path class="st3" d="M1807.3,508.9c0,0-15.9,17.9-20.8,35.1c-5,17.2,6.6,63.3-21.4,96.7c-14.2,17-96.9,8-96.9,8
		c67.1-119.3,71.1-138.5,67.1-152.4c-4-13.9-0.3-20.6,12.7-31.4c12.9-10.8,22.4-20.5,25.2-33.1
		C1776,419.4,1877.9,396.7,1807.3,508.9z"/>
	<path class="st9" d="M1834.8,428.4c0,0-5.2-4.5-6.2-23.8c-1-19.3-1.3-29.3,2.3-36.2c3.6-6.8-33.6-8.2-34.5,5.9
		c-0.8,14.1-3,16.1,0.8,31c3.9,14.9-9.5,19-12.4,20.2C1779,428,1762.2,449.9,1834.8,428.4z"/>
	<path class="st8" d="M1805.4,348.5c6.7,1.6,13.3,2.3,19.4,0.7c-5,33.1-32.5,37.5-33.5,37.6c-1,0.1-2,0.2-3.3-1.2
		c-1.3-1.4-18-22.7-9.4-56C1779.2,327.2,1783.2,343.1,1805.4,348.5z"/>
	<path class="st8" d="M1820,438c-11.9,2.5-48.6,75.2-59.2,95c-10.6,19.8-19.7,45.2-3.2,39c16.5-6.2,28.8-26.3,38.7-40.3
		c9.8-14.1,22.6-34.2,30.2-43.9S1831.9,435.5,1820,438z"/>
	<g>
		<path class="st8" d="M1632.7,764.6c0,0,12.6,21.3,13.3,29.1c0.7,7.8,1.6,13.1,7.7,11.5c6.1-1.6,15.5-19.6,14.1-25.3
			c-1.4-5.7-15.7-19.2-17.9-28.3c-2.1-9.1-17.3,16.6-17.3,16.6L1632.7,764.6z"/>
		<path class="st7" d="M1658,764.2c0,0,8.4,4.3,13.5,4.8c5.1,0.6,12.2,5.7,11.5,16.5c-0.7,10.8-2.9,32.4-2.7,46
			c0.2,13.6-11.4,36.1-14.5,40.6c-5,7.3-16.4,7.3-19,0.9c-2.6-6.4,0.5-24.4,0.7-33.6c0.2-9.2-3.5-39.4-3.8-43.1
			c-0.3-3.7,9.4-11.7,12.8-7.3c3.4,4.4,6.6-0.7,6.7-4C1663.2,781.7,1658,764.2,1658,764.2z"/>
		<path class="st10" d="M1703.4,593.9c-20.9,0.2-117.1-7.7-130.7,5c-13.6,12.8,8.8,49.2,79,66.3c70.2,17.1,83.6,12.3,106-12.2
			C1780.1,628.5,1719,593.7,1703.4,593.9z"/>
		<path class="st10" d="M1602.5,628.7c0,0,37.3,33.9,40.2,71.4c2.8,37.5,10.2,55,10.2,55l-20.3,13c0,0-62.3-105-66.8-126.1
			c-4.5-21.1-3-43.9,10.7-40.5C1590.2,604.9,1602.5,628.7,1602.5,628.7z"/>
		<g>
			<path class="st11" d="M1632.5,767.9c0.1,0.1,0.1,0.2,0.1,0.2l17.7-11.3L1632.5,767.9z"/>
		</g>
	</g>
	<g>
		<path class="st8" d="M1752.7,573.1c-22.2,1.7-57.5,2.5-57.5,2.5s-49,7.4-2.8-11.1c10-4,36.1-17.1,72.9-21.9c4-0.5,2,0.6,6.2,2.3
			C1778.8,547.8,1770.7,571.7,1752.7,573.1z"/>
		<path class="st8" d="M1653.7,584.4l-0.1-2.6l5.7-6.1c0,0,13.5-5.4,19.2-5.4c5.7,0,26.2-8.9,28.9-9.2c2.7-0.3,9.7,11.3,9.7,11.3
			s-22.5,3.3-31.4,5.5c-8.8,2.2-20.4,10-23.9,11c-5.9,1.7-8.7,2.9-8.7,2.9s-0.4-3.6,8.7-6.8c2.4-0.9,0.2-3.3,0.2-3.3L1653.7,584.4z"
			/>
	</g>
	<g>
		<path class="st12" d="M1705.4,593.9c0,0,0-0.1,0.1-0.1l-0.1-3.5h-130v3.5c0,0,0,0.1,0,0.1l0.3,0.6c1.7,3,4.7,3.5,8.1,3.5H1697
			c3.4,0,6.4-0.5,8.1-3.5L1705.4,593.9z"/>
		<path class="st13" d="M1674.1,594.5C1674.1,594.5,1674,594.5,1674.1,594.5l0.3,0.6c0.5,0.8,1.2,1.3,1.9,1.8h19.8
			c3.3,0,6.2-0.4,7.8-2.9l0.3-0.5c0,0,0-0.1,0.1-0.1l0-1.7h-30.1V594.5z"/>
		<g>
			<path class="st13" d="M1673.3,590.2l-16.9-70.4c-0.4-1.9-2.2-3.4-3.9-3.4h-91.2c-1.7,0-2.7,1.5-2.2,3.4l16.9,70.4H1673.3z"/>
			<path class="st12" d="M1621.8,553.3c0.9,3.6-1.1,6.5-4.3,6.5c-3.3,0-6.6-2.9-7.5-6.5c-0.9-3.6,1.1-6.5,4.3-6.5
				C1617.6,546.8,1620.9,549.7,1621.8,553.3z"/>
		</g>
	</g>
	<path class="st7" d="M1795.4,307.1c3.4-1.5,37.6-7.7,53.9,9c16.3,16.7,20.7,41.6,12.9,64.7c-7.8,23.1,2.3,20.9,11.7,40.4
		c19.5,40.1-31.7,65.7-60,43.2c-15.2-12.1-15.7-49.7-11.8-75.5c3.9-25.8,27.7-33.9,13.6-39.2
		C1799.2,343.5,1765.7,320.5,1795.4,307.1z"/>
</g>
</svg>
