<?xml version="1.0" encoding="utf-8"?>
<!-- Generator: Adobe Illustrator 23.0.0, SVG Export Plug-In . SVG Version: 6.00 Build 0)  -->
<svg version="1.1" id="Layer_1" xmlns="http://www.w3.org/2000/svg" xmlns:xlink="http://www.w3.org/1999/xlink" x="0px" y="0px"
	 viewBox="0 0 1080 1080" style="enable-background:new 0 0 1080 1080;" xml:space="preserve">
<style type="text/css">
	.st0{opacity:7.000000e-02;fill:#2A94F4;}
	.st1{fill:#D3D3D3;}
	.st2{fill:#F2F2F2;}
	.st3{fill:#FFBE55;}
	.st4{opacity:0.42;}
	.st5{fill:#2A94F4;}
	.st6{fill:#DBA17B;}
	.st7{fill:#0B4870;}
	.st8{fill:#C98E6D;}
	.st9{opacity:0.4;fill:#2A94F4;}
</style>
<path class="st0" d="M837.5,698.5c0,0,80.5-150-19.7-203S702.2,385,739,331.1s-201-162.7-215.3-18.8s-116.1,74.5-197.5,16.3
	s-120,38.5-38.2,113s-155.8,182.1-64.4,267.9L837.5,698.5z"/>
<path class="st1" d="M922.8,716.8H169.6c-3.9,0-7.1-3.2-7.1-7.1V700c0-3.9,3.2-7.1,7.1-7.1h753.2c3.9,0,7.1,3.2,7.1,7.1v9.7
	C930,713.6,926.8,716.8,922.8,716.8z"/>
<g>
	<g>
		<polygon class="st2" points="657.4,610.8 294.9,662.6 294.9,377.3 655.1,438.6 		"/>
	</g>
	<g>
		<polygon class="st3" points="655.4,459.6 294.9,412.1 294.9,377.3 655.1,438.6 		"/>
	</g>
	<g class="st4">
		<polygon class="st3" points="397.7,487.3 294.9,481.6 294.9,438.1 397.6,448.7 		"/>
	</g>
	<g>
		<polygon class="st3" points="319.7,472.2 305.4,471.2 305.4,450.9 319.7,452.2 		"/>
	</g>
	<g class="st4">
		<polygon class="st3" points="397.8,531.4 294.9,531.3 294.9,487.8 397.7,492.8 		"/>
	</g>
	<g>
		<polygon class="st3" points="319.7,520.5 305.4,520.4 305.4,500.1 319.7,500.6 		"/>
	</g>
	<g class="st4">
		<polygon class="st3" points="397.9,575.5 294.9,581 294.9,537.5 397.8,536.9 		"/>
	</g>
	<g>
		<polygon class="st3" points="319.7,568.9 305.4,569.5 305.4,549.2 319.7,548.9 		"/>
	</g>
	<g class="st4">
		<polygon class="st3" points="398.1,647.9 294.9,662.6 294.9,619.1 398,609.3 		"/>
	</g>
	<g>
		<polygon class="st3" points="319.8,648.3 305.4,650.2 305.4,629.9 319.8,628.3 		"/>
	</g>
	<g class="st4">
		<polygon class="st3" points="336.3,604.2 300.9,607.2 300.9,590.7 336.3,588.4 		"/>
	</g>
	<g>
		<path class="st3" d="M625.6,544.4l-188.3,4.1l-0.3-79.2l187.9,15.3L625.6,544.4z M440.2,544.8l182.4-3.1l-0.6-54.7l-182-14
			L440.2,544.8z"/>
	</g>
	<g>
		<polygon class="st3" points="623.7,544.4 438,472.9 438.9,469.5 624.6,541.8 		"/>
	</g>
	<g>
		<polygon class="st3" points="439.2,548.3 438.3,545 623,484.5 623.9,487.2 		"/>
	</g>
	<g>
		<polygon class="st3" points="529.1,569.6 438.9,574.6 438.8,562.6 529,559 		"/>
	</g>
	<g>
		<polygon class="st3" points="624.5,576.5 438.9,590.7 438.9,584.7 624.5,572 		"/>
	</g>
	<g>
		<polygon class="st3" points="624.6,585.2 439,602.1 439,596.1 624.6,580.6 		"/>
	</g>
	<g>
		<polygon class="st3" points="624.7,593.8 439,613.5 439,607.5 624.7,589.2 		"/>
	</g>
</g>
<g>
	<path class="st5" d="M753.9,475.6c-44.9,0-81.7-37-81.7-82.1c0-45.2,36.9-81.9,82.4-81.9c44.6,0,81.6,37.3,81.6,82.2
		C836.1,438.9,799.2,475.6,753.9,475.6z M803.5,338.9c-1.1-1-2-1.7-2.9-2.4c-10.5-8.4-22.2-14-35.6-15.8c-13.6-1.8-26.9-0.4-39.6,5
		c-13,5.6-23.6,14.3-31.7,25.9c-0.2,0.3-0.5,0.9-0.3,1.1c0.1,0.3,0.7,0.4,1.1,0.4c5.1-0.1,10.2-0.2,15.2-0.4
		c2.6-0.1,5.1-0.3,7.7-0.2c1.7,0,2.7,1.1,2.8,2.6c0.1,1.4-0.8,2.7-2.4,3c-1.9,0.4-3.8,0.5-5.7,0.8c-2.9,0.3-3,0.2-2,3.2
		c8.3,24.9,16.7,49.7,25.1,74.6c0.1,0.4,0.4,0.8,0.8,1.4c0.3-0.7,0.6-1.1,0.7-1.5c0.8-2.4,1.6-4.8,2.4-7.2
		c4.1-12.2,8.2-24.4,12.2-36.7c0.4-1.1,0.5-2.6,0.2-3.7c-3.3-9.4-6.8-18.8-10.2-28.2c-0.4-1.2-1.1-1.8-2.4-1.9
		c-2.2-0.2-4.4-0.4-6.6-0.9c-1.4-0.3-2.1-1.4-2.1-2.8c0-1.4,0.8-2.5,2.2-2.7c1.1-0.2,2.2-0.1,3.3-0.1c9.9,0.6,19.8,1,29.7,0.2
		c2.3-0.2,4.5-0.3,6.8-0.3c2.7,0,4.1,2.2,2.9,4.4c-0.6,1.1-1.8,1.4-2.9,1.6c-1.9,0.2-3.7,0.4-5.6,0.6c-1.9,0.2-2.1,0.5-1.5,2.3
		c3,8.8,5.9,17.6,8.9,26.4c5.4,16,10.8,32,16.2,48c0.2,0.5,0.5,1,0.7,1.4c0.5-0.6,0.7-1,0.9-1.5c3.6-12,7.2-23.9,10.7-35.9
		c2.1-7.1,2-14.2-0.4-21.3c-1.5-4.3-3.8-8.2-6.1-12.1c-2-3.3-3.9-6.7-4.8-10.5c-1.8-7.7,2.4-14.6,10.2-16.3
		C801.9,339.4,802.5,339.2,803.5,338.9z M755.8,401c-0.1,0-0.3,0-0.4,0c-0.3,0.6-0.6,1.1-0.8,1.7c-1.1,3-2.1,6.1-3.1,9.1
		c-5.8,16.7-11.5,33.4-17.3,50.1c-0.7,2.1-0.5,2.7,1.5,3.1c3,0.6,5.9,1.3,8.9,1.7c10.7,1.5,21.1,0.4,31.4-2.6c2.2-0.7,2.4-1,1.6-3.2
		c-6.2-16.9-12.3-33.8-18.5-50.7C758,407,756.9,404,755.8,401z M721.2,459.5c0.1-0.1,0.2-0.2,0.3-0.3c-0.3-0.9-0.5-1.9-0.9-2.8
		c-7-19.1-14-38.2-20.9-57.3c-4.1-11.2-8.2-22.4-12.2-33.7c-0.1-0.3-0.4-0.6-0.7-0.9c-0.3,0.2-0.6,0.4-0.8,0.7
		c-2.6,6.4-4.5,13.1-5.2,20c-1.2,11.8,0.2,23.4,4.3,34.5c5.8,15.4,16,27.2,29.6,36.2C716.8,457.3,719.1,458.3,721.2,459.5z
		 M791.6,456.6c2.8-0.6,4.8-2,6.7-3.4c6.8-5.2,12.1-11.9,16.9-18.9c7.8-11.2,11.9-23.7,12.6-37.3c0.7-13-2.3-25.2-8-36.9
		c-0.1-0.2-0.3-0.4-0.6-0.8c-0.1,0.7-0.1,1-0.1,1.4c0.9,9.4-0.7,18.5-3.8,27.3c-7.7,22.4-15.5,44.7-23.3,67.1
		C791.9,455.4,791.8,455.9,791.6,456.6z"/>
</g>
<g>
	<path class="st6" d="M679.4,667.5c0,0,3.4,9.9,4,11.5c0.6,1.4,1.8,2.3,3,3.2c0.4,0.3,0.7,0.9,1.1,1.5c0.3,0.4,0.2,1,0,1.4
		c-3.5,8.2-13,11-13.2,10.4c-0.3-1.2,1.2-3.3,3.2-4.4c2-1,3.3-3.2,3.5-5.4l0,0c0.2-1.8-0.1-3.6-0.9-5.3l-3.4-7.4L679.4,667.5z"/>
	<path class="st6" d="M665.3,678.9l-2.9,10.2c-0.9,3.1-0.6,6.5,0.7,9.4c0,0,0,0,0,0c0.8,1.6-0.1,3.6-1.8,4.1
		c-5.6,1.7-16.6,4.8-17,4.4c-2.3-2.2,4.3-5.2,9.3-8.6c3.3-2.2,5.2-13.4,6-22l5,1.6C664.9,678.2,665.2,678.5,665.3,678.9z"/>
	<path class="st7" d="M654.5,701.5c-2.3,0.6-4.9,0.7-7.2,0.9c-0.3,0-0.5,0.1-0.7,0.3c-2.3,1.6-3.5,3.2-2.3,4.4
		c0.5,0.5,13.3-3.3,18.3-4.8c1-0.3,1.6-1.5,1.1-2.5l-0.8-1.8C660.2,699.5,657.4,700.7,654.5,701.5z"/>
	<path class="st7" d="M667.3,563.4c6,1.2,10.8,8.5,9.3,16.2c-0.9,4.5-5.9,20.4-11.3,32.8c-2,4.8-1.6,10.4,1.5,14.6
		c0.5,0.7,0.9,1.4,1.3,2.1c1.7,3.6,8,25,11.5,39.1c-0.4,1.8-1.7,4.1-3.1,4.8c-7-12.3-18.2-34.6-20-38.4c-1-2.2-2.1-4.6-2.9-7
		c-4.6-6.8-1.6-43.3-0.2-50.5C654.9,569.4,661.3,562.3,667.3,563.4z"/>
	
		<ellipse transform="matrix(5.507481e-02 -0.9985 0.9985 5.507481e-02 112.5522 1157.9437)" class="st7" cx="668.1" cy="519.5" rx="12.1" ry="9.4"/>
	<path class="st7" d="M670.2,520.9c0.5-6.7,6.2-12,12.9-12c5.9,0,10.9,3.9,12.5,9.2c0.6,1.9,2.3,3.1,4.2,3.2c0.8,0,1.6,0.2,2.5,0.4
		c4.8,1.3,8.4,5.6,8.7,10.6c0.2,4.5-2.1,8.4-5.6,10.5c-1.5,0.9-2.4,2.5-2.7,4.2c-1.5,7.9-9.1,13.4-17.4,12
		c-7.1-1.2-12.4-7.3-12.6-14.5c-0.1-4.4,1.6-8.3,4.4-11.1C672.7,531,669.8,526.2,670.2,520.9z"/>
	<path class="st7" d="M668.9,503.5c0,0-5.5,3-5.1,7.5c0,0-2.7-2.1-3-9.1C660.7,497.1,668.9,503.5,668.9,503.5z"/>
	<path class="st6" d="M664.1,530.5c-0.1,1.6-0.5,3.3-1.4,5c-0.5,0.9-1.1,1.7-1.9,2.4c-0.8,0.7-1.7,1.2-2.5,1.5
		c-1.8,0.7-3.5,0.8-5,0.8c-1.5-0.1-2.9-0.3-4.3-0.6c-2.7-0.7-5.2-1.6-7.5-2.7c-2.4-1.1-4.7-2.2-6.9-3.5c-4.4-2.5-8.7-5.3-12.8-8.2
		c-4.1-2.9-8.1-6-11.9-9.4c-0.4-0.4-0.4-1-0.1-1.4c0.3-0.4,0.9-0.4,1.3-0.1l0,0c2,1.4,4.1,2.8,6.2,4.1c2.1,1.3,4.2,2.6,6.3,3.8
		c4.3,2.5,8.6,4.8,13.1,6.8c4.4,2,9,3.8,13.4,4.6c1.1,0.2,2.2,0.3,3.1,0.2c1,0,1.8-0.2,2.3-0.5c0.5-0.3,0.8-0.5,1-1
		c0.2-0.5,0.4-1.3,0.4-2.2c0-1.9,1.6-3.5,3.6-3.4c1.9,0,3.5,1.6,3.4,3.6C664.1,530.3,664.1,530.4,664.1,530.5L664.1,530.5z"/>
	<path class="st3" d="M660.3,553.5c-1.8-6.5-5.3-20.2-4.7-24.6c0.4-2.8,2.9-4.8,5.7-4.7l18.4,1c3,0.2,5.4,2.7,5.3,5.8
		c-0.1,5.3-3.3,17.3-5,23.5L660.3,553.5z"/>
	<path class="st7" d="M659.5,678.7c-0.3-0.2-0.4-0.5-0.4-0.9c1.1-13.5,2.9-30.6,3.4-33.9c0.1-0.4,0.1-0.7,0.2-1.1
		c-2-16.1-0.6-50.4-0.5-56.5c0.1-7.9,5.3-16.6,11.5-16.5c6.2,0,12.5,6.8,14,14.1c1,4.8-5.4,30-11.9,48.1c-1.4,3.8-1.8,7.9-1.4,11.9
		c0.2,2.8,0.2,5.6-0.1,7.8c-0.5,3.2-4.8,16.2-8.9,27.4c-0.1,0.3-0.4,0.6-0.7,0.6C662.9,680.1,661,679.8,659.5,678.7z"/>
	<path class="st3" d="M681.6,562.8c-0.8-2.7-0.9-5.6-0.4-8.4c1.3-6.5,3.6-18.6,3.7-23.8c0.1-2.8-2.1-5.1-4.9-5.3l-2.7-0.2
		c-1.2,2.3-3.5,4.1-6.9,3.9c-3.4-0.2-5.5-2.2-6.4-4.6l-2.6-0.1c2.4,6.1,1,13.9-4,18.2c0.7,3.2,1.3,6.4,1.7,9c0.6,3.5,0,7.1-1.5,10.3
		c-2.7,5.5-5,14.4-4.7,18c19,6.5,32.9-2.4,32.9-2.4L681.6,562.8z"/>
	<g>
		<polygon class="st6" points="667.7,525.9 676.1,525.5 674,516.3 668.5,516.6 		"/>
	</g>
	<path class="st8" d="M668.5,516.6l5.4-0.4l0.7,2.9c-1.3,1.3-3,4.1-5,4c-0.6,0-1.2-0.2-1.7-0.6L668.5,516.6z"/>
	<path class="st6" d="M668.1,521c1.8,0.1,3.9-0.7,6.7-2.9c1.6-1.3,2.9-3.6,3-5.2l0.5-8.9l-13.7-0.8c0,0-1.3,4.7-0.5,9.4
		C664.6,516.2,666.7,520.9,668.1,521z"/>
	<path class="st6" d="M675.6,511.1c-0.1,1.7,0.7,3.2,1.7,3.2c1,0.1,2.3-2.2,2.4-3.9c0.1-1.7-1-2.3-2-2.4
		C676.6,508,675.7,509.3,675.6,511.1z"/>
	<path class="st7" d="M680,505.1c0.2-2.8-2-5.2-4.8-5.3l-4.6-0.3c-1.3-0.1-2.6-0.5-3.7-1.2c-1.6-1-3.7-0.8-4.9,0.6
		c-1.3,1.6-1.9,3.7,1,5.9c1.5,1.1,3.7,0.1,5.2,0.7c0.1,0,0.2,0,0.3,0l4.1,0.2c1.4,0.1,2.4,1.3,2.4,2.7c0,0.9,0.7,1.7,1.6,1.7l0.2,0
		l0.8-2.1l2.1,3.2L680,505.1z"/>
	<path class="st6" d="M606.4,513.2c0,0,2.9,3.9,4.4,3.4c1.5-0.5,2.4-1.1,1.7-3.3c-0.6-2.2-2.5-4.9-4-6.2c-1.5-1.4-4.9-2.7-5.4-2.5
		c-1.7,0.4,1.2,2.6,2.6,3.7c1.4,1.1,2.8,2.6,2,3.1c-0.7,0.5-3.2-1.9-4.2-1.6C602.6,510.1,606.4,513.2,606.4,513.2z"/>
	<path class="st6" d="M650.5,565.7c0,0,4.8-0.5,5.5,0.9c0.6,1.4,0.8,2.5-1.2,3.5c-2,1-5.3,1.4-7.3,1.3c-2-0.1-5.3-1.8-5.5-2.2
		c-0.8-1.5,2.8-0.9,4.5-0.6c1.8,0.2,3.8,0.3,3.6-0.6c-0.1-0.9-3.5-1-4-2C645.6,565.1,650.5,565.7,650.5,565.7z"/>
	<path class="st7" d="M665.6,503.1c0.3,2.1-0.4,3.1,6.1,6.7c6.5,3.5,8.7,2.3,10.6,5.8c0,0-0.6-5.7-4.2-7.9
		c-3.6-2.1-9.9-3.8-11.7-8.4C666.5,499.4,665.4,501.7,665.6,503.1z"/>
	<path class="st6" d="M684.2,529.4c0.9,1.4,1.7,2.7,2.4,4c0.8,1.4,1.5,2.7,2.1,4.1c1.3,2.8,2.4,5.7,3.3,8.8c0.8,3.1,1.3,6.3,1.1,9.8
		c-0.1,0.9-0.2,1.7-0.4,2.6c-0.2,0.9-0.4,1.7-0.7,2.6l-0.5,1.3c-0.2,0.4-0.5,0.8-0.7,1.2c-0.2,0.4-0.4,0.8-0.7,1.1l-0.9,1
		c-2.5,2.7-5.7,4.2-8.8,5l-1.2,0.3c-0.4,0.1-0.8,0.1-1.2,0.2c-0.8,0.1-1.6,0.2-2.3,0.3l-2.3,0.1l-1.2,0.1l-1.2,0
		c-6.1-0.1-12.1-1.2-17.8-2.6c-0.5-0.1-0.9-0.7-0.7-1.2c0.1-0.5,0.6-0.8,1.1-0.8l0,0c5.8,0.6,11.7,1,17.4,0.6l1.1-0.1l1-0.2l2.1-0.3
		l2-0.5c0.3-0.1,0.7-0.1,1-0.2l0.9-0.3c2.5-0.9,4.7-2.2,6.1-4c1.4-1.8,2-4,2-6.5c0-2.5-0.6-5.1-1.4-7.7c-0.8-2.6-1.9-5.2-3.2-7.6
		c-0.6-1.2-1.3-2.5-2-3.7c-0.7-1.2-1.5-2.5-2.2-3.5l-0.1-0.1c-1.1-1.6-0.6-3.8,1-4.8C681,527.4,683.2,527.9,684.2,529.4z"/>
	<path class="st7" d="M666.9,503.6c0,0-0.6,6.8-6.8,9.8c0,0,2.9-5,2.9-8.4C663,501.5,667.4,501.2,666.9,503.6z"/>
	<path class="st7" d="M689.5,687.6c0.4-0.4,0.5-1.1,0.1-1.6c-0.3-0.4-1.1-1.5-1.7-2.3c-0.3-0.4-0.8-0.3-1,0.1
		c-2.4,4.3-6.1,7.6-10.8,8c-1.6,0.9-2.6,3.2-2.4,4.1c0.1,0.2,2.1,0.4,4.3-0.8C688.1,690.2,689.5,687.6,689.5,687.6z"/>
</g>
<g>
	<path class="st9" d="M787.6,674.1c0,0,74.4-67.8,148.8-17c0,0-36.5-46.7-89-39.7C795,624.4,787.6,674.1,787.6,674.1z"/>
	<path class="st9" d="M789.9,676.9c0,0,9.7-100.2,98.9-112.4c0,0-58.4-10.1-92.6,30.2S789.9,676.9,789.9,676.9z"/>
	<path class="st7" d="M789.3,676.4c0,0,34.9-94.4,124.3-83.6c0,0-53.9-24.7-97.3,5.7C772.9,628.9,789.3,676.4,789.3,676.4z"/>
	<path class="st3" d="M757.2,676.2c0,10.5,8.5,19,19,19h29.3c10.5,0,19-8.5,19-19l0,0c0-10.5-8.5-19-19-19h-29.3
		C765.7,657.2,757.2,665.7,757.2,676.2L757.2,676.2z"/>
</g>
<g>
	<path class="st9" d="M270,674.1c0,0-74.4-67.8-148.8-17c0,0,36.5-46.7,89-39.7C262.7,624.4,270,674.1,270,674.1z"/>
	<path class="st9" d="M267.8,676.9c0,0-9.7-100.2-98.9-112.4c0,0,58.4-10.1,92.6,30.2S267.8,676.9,267.8,676.9z"/>
	<path class="st7" d="M268.4,676.4c0,0-34.9-94.4-124.3-83.6c0,0,53.9-24.7,97.3,5.7S268.4,676.4,268.4,676.4z"/>
	<path class="st3" d="M300.5,676.2c0,10.5-8.5,19-19,19h-29.3c-10.5,0-19-8.5-19-19l0,0c0-10.5,8.5-19,19-19h29.3
		C292,657.2,300.5,665.7,300.5,676.2L300.5,676.2z"/>
</g>
</svg>
