<svg xmlns="http://www.w3.org/2000/svg" data-name="Layer 1" viewBox="0 0 512 512"><path d="M258.08887,491.28223a3.50042,3.50042,0,0,0-4.793,1.23632l-.05127.08692a3.50008,3.50008,0,1,0,6.0293,3.55664l.05127-.08691A3.50011,3.50011,0,0,0,258.08887,491.28223Zm48.88672-9.19239c-8.68311,2.73682-9.86621,13.44287-9.91211,13.896a16.96481,16.96481,0,0,0,.27734,5.21289,6.49593,6.49593,0,0,0,5.74316,5.124q.35157.03516.69678.03516a6.30539,6.30539,0,0,0,5.86719-3.85449,2.70217,2.70217,0,0,1,.96728-1.30322h.00049a3.78843,3.78843,0,0,1,2.03369-.15284,8.44792,8.44792,0,0,0,6.42774-1.644c3.60791-2.99805,4.31836-9.12891,1.55127-13.38818C317.57861,481.32227,311.41309,480.69092,306.97559,482.08984Zm7.62744,11.92969a4.12022,4.12022,0,0,1-1.52149.04151,9.8327,9.8327,0,0,0-5.98925,1.09033,8.88908,8.88908,0,0,0-3.10108,3.08935,9.80277,9.80277,0,0,1,.03565-1.53857c.00683-.06543.83837-6.60742,5.05322-7.936a8.06865,8.06865,0,0,1,2.2876-.3247,3.90535,3.90535,0,0,1,3.39062,1.38769C315.67139,491.23389,315.30762,493.43457,314.603,494.01953Zm-64.79785,11.2666a3.51629,3.51629,0,1,0,1.21972,4.81543l.02539-.043A3.47887,3.47887,0,0,0,249.80518,505.28613ZM350.58105,160.061a3.49581,3.49581,0,0,0-4.29736,2.45556l-.02637.09668a3.4998,3.4998,0,1,0,6.75293,1.8418l.02637-.09668A3.49953,3.49953,0,0,0,350.58105,160.061Zm45.40821,306.05419a6.33614,6.33614,0,0,0-6.56446,3.81885,2.70217,2.70217,0,0,1-.96728,1.30322l-.00049.00049a3.77115,3.77115,0,0,1-2.03418.15235,8.458,8.458,0,0,0-6.42822,1.64453c-3.60742,2.99853-4.31738,9.12939-1.55029,13.38721,2.13525,3.2871,5.80029,4.58154,9.32959,4.58154a14.53349,14.53349,0,0,0,4.32226-.65528c8.66992-2.73242,9.86621-13.439,9.91309-13.89648a16.95448,16.95448,0,0,0-.27783-5.21191A6.49483,6.49483,0,0,0,395.98926,466.11523Zm-.94287,9.61768c-.00733.06543-.83985,6.61084-5.05371,7.93848-1.35059.4248-4.51758.72558-5.67872-1.06348-.91259-1.4043-.54882-3.605.15528-4.18994a1.14555,1.14555,0,0,1,.5664-.08252c.28321,0,.62989.02148.95508.0415a9.83556,9.83556,0,0,0,5.98926-1.09082,8.88215,8.88215,0,0,0,3.10156-3.08935A9.82975,9.82975,0,0,1,395.04639,475.73291Zm-54.39649-21.062a8.4549,8.4549,0,0,0,6.42774-1.64453c3.60742-2.998,4.31738-9.1294,1.55078-13.38819-3.04981-4.6914-9.21436-5.32275-13.65283-3.92529-8.68457,2.73731-9.86621,13.44385-9.91211,13.89649a16.96165,16.96165,0,0,0,.27734,5.2124,6.496,6.496,0,0,0,5.74316,5.124q.35157.03516.69678.03516a6.305,6.305,0,0,0,5.86719-3.854,2.70222,2.70222,0,0,1,.96728-1.30322l.00049-.00049A3.77394,3.77394,0,0,1,340.6499,454.6709Zm-5.55713-5.896a8.88226,8.88226,0,0,0-3.10156,3.08936,9.80154,9.80154,0,0,1,.03565-1.53858c.00683-.06591.83837-6.60791,5.05273-7.936a8.06676,8.06676,0,0,1,2.2876-.3252,3.90629,3.90629,0,0,1,3.39111,1.3877c.91309,1.40478.54883,3.606-.15527,4.19092a4.11078,4.11078,0,0,1-1.521.041A9.8366,9.8366,0,0,0,335.09277,448.7749Zm52.43116-13.6206a16.97625,16.97625,0,0,0-.27735-5.21387,6.49531,6.49531,0,0,0-5.74219-5.124,6.32942,6.32942,0,0,0-6.56543,3.81982,2.69727,2.69727,0,0,1-.96679,1.30225l-.00049.00048a3.78112,3.78112,0,0,1-2.03418.15235,8.45608,8.45608,0,0,0-6.42773,1.64453c-3.60694,2.998-4.31739,9.12891-1.5503,13.38818,2.13574,3.28614,5.79981,4.58057,9.3291,4.58057a14.53465,14.53465,0,0,0,4.32276-.65527C386.29639,446.312,387.478,435.60547,387.52393,435.1543Zm-12.01612,7.21826c-1.3501.42627-4.51513.72656-5.67871-1.0625-.9126-1.40479-.54883-3.606.15528-4.19092a1.1455,1.1455,0,0,1,.5664-.08252c.2832,0,.62988.02149.95459.0415a9.83652,9.83652,0,0,0,5.98926-1.09082,8.88483,8.88483,0,0,0,3.10156-3.08886,9.79637,9.79637,0,0,1-.03564,1.53808C380.55371,434.50244,379.72266,441.04443,375.50781,442.37256ZM349.5083,142.49951l-.00488.10254a3.47769,3.47769,0,0,0,3.332,3.62207c.05566.00293.11084.00391.166.00391a3.52476,3.52476,0,0,0,3.49659-3.34619l.00341-.07373a3.5,3.5,0,0,0-6.99316-.3086Zm9.63721,266.69776a14.53344,14.53344,0,0,0,4.32226-.65528c8.6836-2.73681,9.8667-13.44336,9.9126-13.895a16.97984,16.97984,0,0,0-.27734-5.21435,6.49542,6.49542,0,0,0-5.74219-5.12354,6.32536,6.32536,0,0,0-6.56543,3.81934,2.69649,2.69649,0,0,1-.9668,1.30273l-.00049.00049a3.77105,3.77105,0,0,1-2.03417.15234,8.45692,8.45692,0,0,0-6.42725,1.644c-3.60791,2.998-4.31836,9.1289-1.55127,13.38818C351.95117,407.90283,355.61621,409.19727,359.14551,409.19727Zm-3.30469-12.58545a1.14557,1.14557,0,0,1,.56641-.08252c.28271,0,.62988.02148.95459.0415a9.836,9.836,0,0,0,5.98925-1.09082,8.87821,8.87821,0,0,0,3.10157-3.08936,9.80016,9.80016,0,0,1-.03565,1.53858c-.00683.06543-.83838,6.60791-5.05273,7.936-1.35156.4253-4.51709.7251-5.67871-1.063C354.773,399.39746,355.13623,397.19678,355.84082,396.61182Zm-6.86523,85.478c-8.68311,2.73682-9.86621,13.44287-9.91211,13.896a16.96481,16.96481,0,0,0,.27734,5.21289,6.49593,6.49593,0,0,0,5.74316,5.124q.35157.03516.69678.03516a6.30539,6.30539,0,0,0,5.86719-3.85449,2.70217,2.70217,0,0,1,.96728-1.30322h.00049a3.787,3.787,0,0,1,2.03369-.15284,8.44749,8.44749,0,0,0,6.42774-1.644c3.60791-2.99805,4.31836-9.12891,1.55127-13.38818C359.5791,481.32227,353.4126,480.69092,348.97559,482.08984Zm7.62744,11.92969a4.121,4.121,0,0,1-1.52149.04151,9.83116,9.83116,0,0,0-5.98925,1.09033,8.88908,8.88908,0,0,0-3.10108,3.08935,9.80277,9.80277,0,0,1,.03565-1.53857c.00683-.06543.83837-6.60742,5.05322-7.936a8.06865,8.06865,0,0,1,2.2876-.3247,3.90535,3.90535,0,0,1,3.39062,1.38769C357.67139,491.23389,357.30762,493.43457,356.603,494.01953ZM221.07129,438.356l-2.19483,2.72754,2.14161-2.76856a3.5002,3.5002,0,0,0-4.28321,5.53711l.103.0791a3.50016,3.50016,0,1,0,4.2334-5.57519ZM158.61035,146.40771a3.543,3.543,0,0,0,3.314-3.6997,3.5,3.5,0,1,0-6.99317.30859c.00049.01709.00684.13379.00781.15088a3.45326,3.45326,0,0,0,3.48292,3.24512C158.48438,146.4126,158.54736,146.41064,158.61035,146.40771ZM209.89453,427.918a3.45705,3.45705,0,0,0-4.88281-.24756,3.54186,3.54186,0,0,0-.30322,4.94873,3.49977,3.49977,0,1,0,5.2998-4.57226C209.99268,428.02832,209.91064,427.936,209.89453,427.918Zm38.26563,24.16846c-.01563-.00489-.12647-.03809-.14209-.04248a3.45866,3.45866,0,0,0-4.28711,2.36767,3.54259,3.54259,0,0,0,2.3706,4.36524,3.5,3.5,0,0,0,2.0586-6.69043Zm-50.168-34.66748,3.01953-1.77a3.50007,3.50007,0,1,0-6.03906,3.54c.00781.0127.06543.11036.07324.123a3.49982,3.49982,0,1,0,5.99316-3.61621Zm-3.48291-15.436c-.00537-.01514-.0459-.123-.05176-.13818a3.45909,3.45909,0,0,0-4.47656-1.98731,3.54283,3.54283,0,0,0-2.04688,4.52588,3.49983,3.49983,0,0,0,6.5752-2.40039Zm-29.333-239.32617a3.5,3.5,0,0,0-6.71973,1.96094l3.38721-.88282-3.37646.9209a3.49979,3.49979,0,1,0,6.75292-1.8418C165.21484,162.79346,165.18213,162.67676,165.17627,162.65674Zm2.79834,17.44678a3.50016,3.50016,0,0,0-1.44141,4.73535l.04688.08789a3.42246,3.42246,0,0,0,3.03662,1.81982,3.51825,3.51825,0,0,0,3.09326-5.20166A3.50015,3.50015,0,0,0,167.97461,180.10352ZM478.1825,246.22858a18.543,18.543,0,0,0,5.6173-13.24274V210.59375a13.51539,13.51539,0,0,0-13.5-13.5h-17.064c-.07935,0-.15356.01819-.23169.02338a9.382,9.382,0,0,0-5.24011,1.84631,16.5609,16.5609,0,0,1,.23694-10.04156,27.98612,27.98612,0,0,1,2.38379-4.4004A31.69358,31.69358,0,0,0,455.031,173.958a32.56886,32.56886,0,0,0,6.53637-9.254,32.616,32.616,0,0,0,15.56641,3.96692q1.35938,0,2.72656-.11328a3.49948,3.49948,0,0,0,3.209-3.55323,32.709,32.709,0,0,0-5.06226-16.8366,47.36494,47.36494,0,0,0,8.00659-7.0882A46.38681,46.38681,0,0,0,497.82715,105.793a3.48414,3.48414,0,0,0-3.562-3.20215,46.80538,46.80538,0,0,0-8.69873,1.01709,47.22405,47.22405,0,0,0-5.36573-16.55713,3.49953,3.49953,0,0,0-4.54834-1.49365,46.72257,46.72257,0,0,0-9.89355,6.22546A54.32691,54.32691,0,0,0,454.334,76.42139a3.49953,3.49953,0,0,0-4.78808-.00049,54.29578,54.29578,0,0,0-11.10059,14.74591,47.04607,47.04607,0,0,0-9.11279-5.60724,3.50217,3.50217,0,0,0-4.55225,1.48926,47.14622,47.14622,0,0,0-5.404,16.79132,46.83764,46.83764,0,0,0-9.76147-1.24933,3.50663,3.50663,0,0,0-3.562,3.20215A46.82584,46.82584,0,0,0,425.87305,148.168a32.7141,32.7141,0,0,0-5.0625,16.83588,3.50065,3.50065,0,0,0,3.20459,3.55371q1.38207.11645,2.75927.11621A32.52829,32.52829,0,0,0,442.314,164.707a32.53607,32.53607,0,0,0,5.73047,8.42322,26.2625,26.2625,0,0,1-3.61767,7.71692,34.07063,34.07063,0,0,0-2.9458,5.52734c-2.08057,5.31622-1.78955,11.58008.85656,18.67175a13.51213,13.51213,0,0,0-12.33606,13.441v13.91553a18.407,18.407,0,0,0,11.57178,17.15467l.03418,25.725a3.32147,3.32147,0,0,0,.00208,1.52271l.032,23.952a2.42635,2.42635,0,0,0,.00134.96924l.03736,28.04608a6.52508,6.52508,0,0,1-1.95752,4.65527l-42.8252,41.87806A63.51777,63.51777,0,0,0,380.33154,365.915l-.82763-.35541-32.932-90.40289a21.692,21.692,0,0,0-4.85584-20.8927,16.87176,16.87176,0,0,0,4.1189-9.60047c.00684-.07421.01172-.14892.01367-.22363,0-.00683.17969-6.25976.479-14.15039a16.97784,16.97784,0,0,0-5.42127-13.02972,116.65962,116.65962,0,0,0,5.17078-153.35749A116.97543,116.97543,0,0,0,282.2627,24.07361c-.34424-.78522-.71021-1.564-1.12354-2.32654a30.42946,30.42946,0,0,0-8.49316-9.86475L257.81689.70508a3.49883,3.49883,0,0,0-4.21337,0L238.77539,11.88184a30.42146,30.42146,0,0,0-8.49365,9.86523c-.41333.76251-.77905,1.5412-1.12341,2.32636A116.56807,116.56807,0,0,0,139.1001,137.60986a115.728,115.728,0,0,0,31.37,79.60407,16.68339,16.68339,0,0,0-5.30749,12.811c.30517,7.90674.48584,14.31543.4873,14.31494a3.88657,3.88657,0,0,0,.022.4043l.00292.0332a16.77992,16.77992,0,0,0,4.02588,9.49915,21.69725,21.69725,0,0,0-4.85034,20.85419l-33.59558,92.26123a63.17948,63.17948,0,0,0-15.39429,9.65893L72.27881,334.42969a6.53078,6.53078,0,0,1-1.959-4.665l.03736-28.04144a3.46177,3.46177,0,0,0,.04956-.4776L70.48,276.05078a3.49279,3.49279,0,0,0-.0874-.75867l.03418-25.73437a18.40718,18.40718,0,0,0,11.57178-17.15491V218.4873a13.51213,13.51213,0,0,0-12.33606-13.441c2.64611-7.09161,2.93737-13.35485.858-18.66833a34.08359,34.08359,0,0,0-2.94727-5.53076,26.2625,26.2625,0,0,1-3.61767-7.71692A32.53488,32.53488,0,0,0,69.686,164.707a32.52793,32.52793,0,0,0,15.53955,3.9668q1.37622,0,2.75927-.11621a3.50065,3.50065,0,0,0,3.20459-3.55371,32.71416,32.71416,0,0,0-5.0625-16.836A46.824,46.824,0,0,0,105.94727,105.793a3.49631,3.49631,0,0,0-3.562-3.20215,46.84159,46.84159,0,0,0-9.76147,1.24927,47.14592,47.14592,0,0,0-5.404-16.79126,3.50123,3.50123,0,0,0-4.55225-1.48926,47.04607,47.04607,0,0,0-9.11279,5.60724A54.29578,54.29578,0,0,0,62.4541,76.4209a3.49953,3.49953,0,0,0-4.78808.00049,54.32607,54.32607,0,0,0-11.42481,15.3612,46.72257,46.72257,0,0,0-9.89355-6.22546,3.49937,3.49937,0,0,0-4.54834,1.49365,47.22405,47.22405,0,0,0-5.36573,16.55713,46.80538,46.80538,0,0,0-8.69873-1.01709,3.52065,3.52065,0,0,0-3.562,3.20215,46.38745,46.38745,0,0,0,11.81494,35.28808,47.35509,47.35509,0,0,0,8.005,7.08686,32.70976,32.70976,0,0,0-5.06214,16.83648,3.49948,3.49948,0,0,0,3.209,3.55323q1.366.11426,2.72656.11328A32.62289,32.62289,0,0,0,50.43262,164.704a32.56942,32.56942,0,0,0,6.53637,9.254,31.69358,31.69358,0,0,0,4.64624,10.56347,27.996,27.996,0,0,1,2.38526,4.40381,16.5569,16.5569,0,0,1,.23559,10.03827,9.38128,9.38128,0,0,0-5.24023-1.84643c-.07813-.00519-.15234-.02338-.23169-.02338H41.7002a13.51539,13.51539,0,0,0-13.5,13.5v22.39209a18.54246,18.54246,0,0,0,5.6173,13.24268L16.979,345.9165a33.49836,33.49836,0,0,0,9.604,29.53614L93.23,440.61285v21.71308c0,.00995-.00293.0191-.00293.029V508.5a3.49986,3.49986,0,0,0,3.5,3.5l.00147-.00012L96.73,512a3.49985,3.49985,0,0,0,3.5-3.5V486.855h48.91211V508.5a3.5,3.5,0,0,0,7,0V487.14465c8.5343,13.66639,24.011,22.91169,41.93457,24.65955q.17358.01685.34424.01709a3.50023,3.50023,0,0,0,.33545-6.98389c-17.99268-1.75488-33.11084-11.9834-39.45557-26.69433-5.563-12.89893-2.749-25.82715.59131-34.40137a3.5,3.5,0,1,0-6.52246-2.541A61.12013,61.12013,0,0,0,149.272,458.855H100.23V425.5498a56.86169,56.86169,0,0,1,40.35059-54.146l25.99951-7.75629V386.23a83.87573,83.87573,0,0,0,43.24609,73.353l34.56909,19.11725-16.51782,28.0224a3.5,3.5,0,1,0,6.03027,3.55468l18.36768-31.16046c.00855-.01507.01941-.02795.02783-.04315l.00659-.01532,56.334-95.57007.01721-.02929,7.29944-12.38337a26.55822,26.55822,0,0,1,22.58252-13.031,3.48337,3.48337,0,0,0,.44873.029c.114,0,.22729-.01086.34033-.02191a26.31539,26.31539,0,0,1,9.83472,2.09918L262.54248,506.53857a3.5,3.5,0,1,0,6.02441,3.56446l87.08643-147.1684,21.91553,9.412a56.43991,56.43991,0,0,1,34.2041,51.93213l-.02149,84.22021a3.49987,3.49987,0,0,0,3.499,3.501h.001a3.5,3.5,0,0,0,3.5-3.499l.01734-67.87732,66.6477-65.17054A33.49816,33.49816,0,0,0,495.021,345.917ZM463.864,157.96265a32.75561,32.75561,0,0,0,.5503-3.25745,46.02536,46.02536,0,0,0,7.56494-2.95477,25.67921,25.67921,0,0,1,3.78247,9.88434A25.60553,25.60553,0,0,1,463.864,157.96265Zm11.70581-64.48413a40.1376,40.1376,0,0,1,3.18872,12.11218,46.89974,46.89974,0,0,0-7.69335,3.71857,54.32286,54.32286,0,0,0-2.47559-10.71839A39.7077,39.7077,0,0,1,475.56982,93.47852Zm-4.1029,24.00091a39.95128,39.95128,0,0,1,19.53454-7.66986,39.38214,39.38214,0,0,1-10.19335,26.58984,40.00773,40.00773,0,0,1-9.36158,7.68518c-.05957.02985-.11621.06556-.17456.09906a39.16711,39.16711,0,0,1-10.55957,4.26728A54.50005,54.50005,0,0,0,471.46692,117.47943ZM442.83521,98.20105c.02783-.06476.05749-.128.08129-.19391a46.93038,46.93038,0,0,1,9.02344-14.074A46.914,46.914,0,0,1,461.2124,98.6012a3.46,3.46,0,0,0,.19177.50439,47.25426,47.25426,0,0,1,3.10071,16.91931,46.7716,46.7716,0,0,1-12.56494,32.0918,47.388,47.388,0,0,1-9.10473-49.91565Zm-13.429-4.72058a39.76871,39.76871,0,0,1,6.14355,4.36059,54.34387,54.34387,0,0,0-2.7351,11.46857,46.9011,46.9011,0,0,0-6.64221-3.30945A40.06227,40.06227,0,0,1,429.40625,93.48047Zm-1.28857,68.1582a25.68047,25.68047,0,0,1,3.78308-9.88806,46.02444,46.02444,0,0,0,7.56482,2.95465,32.72044,32.72044,0,0,0,.55078,3.25946A25.51042,25.51042,0,0,1,428.11768,161.63867Zm4.48767-17.45642c-.05725-.03284-.1128-.06781-.17127-.09717a39.99609,39.99609,0,0,1-9.36035-7.6842,39.381,39.381,0,0,1-10.19531-26.59131,39.99143,39.99143,0,0,1,19.53454,7.66876,54.49741,54.49741,0,0,0,10.75452,30.9726A39.16316,39.16316,0,0,1,432.60535,144.18225Zm14.20007,12.04089a48.26133,48.26133,0,0,0,4.89868.356c.02539.00049.05029.001.07569.001.03417,0,.06689-.00885.101-.00983.01989.00031.03943.00543.0592.00543s.03931-.00512.05908-.00543c.03418.001.0669.00983.10108.00983.0249,0,.05029-.00049.07568-.001a48.26112,48.26112,0,0,0,4.89868-.356,25.36777,25.36777,0,0,1-5.13452,10.74659A25.368,25.368,0,0,1,446.80542,156.22314ZM71.98364,157.96466a32.7569,32.7569,0,0,0,.55078-3.2594,46.02375,46.02375,0,0,0,7.5647-2.95471,25.67939,25.67939,0,0,1,3.7832,9.88812A25.51453,25.51453,0,0,1,71.98364,157.96466ZM82.59375,93.48047a40.06227,40.06227,0,0,1,3.23376,12.51971,46.9011,46.9011,0,0,0-6.64221,3.30945,54.3431,54.3431,0,0,0-2.7351-11.4685A39.76439,39.76439,0,0,1,82.59375,93.48047ZM79.587,117.47833a39.99143,39.99143,0,0,1,19.53454-7.66876,39.38112,39.38112,0,0,1-10.19385,26.58984,40.00755,40.00755,0,0,1-9.345,7.67871c-.08606.04255-.16735.09528-.25061.14551a39.16993,39.16993,0,0,1-10.49279,4.218A54.49821,54.49821,0,0,0,79.587,117.47833ZM50.5957,99.106a3.45567,3.45567,0,0,0,.1919-.505,46.91286,46.91286,0,0,1,9.27246-14.66784,46.93038,46.93038,0,0,1,9.02344,14.074c.0238.06592.05346.12915.08129.19391A47.18238,47.18238,0,0,1,72.625,116.0249a46.76983,46.76983,0,0,1-12.56494,32.0918,46.7716,46.7716,0,0,1-12.56494-32.0918A47.25263,47.25263,0,0,1,50.5957,99.106ZM36.43018,93.47852a39.7077,39.7077,0,0,1,6.98022,5.11236,54.32286,54.32286,0,0,0-2.47559,10.71839,46.89974,46.89974,0,0,0-7.69335-3.71857A40.1376,40.1376,0,0,1,36.43018,93.47852Zm-.1919,68.15625a25.68049,25.68049,0,0,1,3.78247-9.88428,46.03583,46.03583,0,0,0,7.56494,2.95471,32.75561,32.75561,0,0,0,.5503,3.25745A25.5989,25.5989,0,0,1,36.23828,161.63477Zm4.49048-17.4505c-.05872-.03382-.116-.06977-.176-.09986a39.99723,39.99723,0,0,1-9.35937-7.68353,39.38285,39.38285,0,0,1-10.19482-26.59131,39.95128,39.95128,0,0,1,19.53454,7.66986,54.50005,54.50005,0,0,0,10.75452,30.9715A39.1672,39.1672,0,0,1,40.72876,144.18427Zm19.3313,22.78546a25.36777,25.36777,0,0,1-5.13452-10.74659,48.26112,48.26112,0,0,0,4.89868.356c.02539.00049.05029.001.07568.001.03418,0,.0669-.00885.10095-.00983.0199.00031.03943.00543.05921.00543s.03955-.00512.05932-.00549c.03382.001.06543.00989.09937.00989.02539,0,.05127-.00049.07715-.001a48.26133,48.26133,0,0,0,4.89868-.356A25.368,25.368,0,0,1,60.06006,166.96973Zm-24.85986,43.624a6.50753,6.50753,0,0,1,6.5-6.5H58.59033a2.50009,2.50009,0,0,1,2.39453,3.21924l-3.395,11.29736a2.48482,2.48482,0,0,1-2.394,1.78076H35.2002Zm0,16.79736H55.1958A9.44275,9.44275,0,0,0,64.294,220.625l2.5957-8.6377h1.60889a6.50753,6.50753,0,0,1,6.5,6.5v13.91553a11.44853,11.44853,0,0,1-8.0835,10.981l-8.28369,2.57715a3.49975,3.49975,0,1,0,2.0791,6.68359l2.71338-.84411-.02759,20.74011H36.47241l3.75452-22.22766c.02649.00994.05163.02252.07825.03234l1.49316.5503a3.5,3.5,0,0,0,2.41895-6.56885l-1.49268-.5498a11.54353,11.54353,0,0,1-7.52441-10.791Zm.34912,52.14942H63.38684l-.02429,18.19482H32.41846Zm-4.07325,90.90674A26.49639,26.49639,0,0,1,23.88135,347.083l7.15307-42.34766H63.35327l-.03345,25.01172a13.567,13.567,0,0,0,4.063,9.68555L79.06372,350.8562,55.94849,394.37384ZM61.165,399.474l23.11475-43.51654,8.89147,8.69556-23.1112,43.51745Zm87.977,66.381v14H100.23v-14ZM93.23,425.5498v5.27375L75.27734,413.27136l23.11072-43.51654,12.38172,12.10907A63.69707,63.69707,0,0,0,93.23,425.5498ZM281.13916,50.94043a30.52965,30.52965,0,0,0,3.36816-19.089,109.58885,109.58885,0,0,1,80.8125,105.75848A108.82815,108.82815,0,0,1,329.2,218.93921l5.56275-44.11157a71.74242,71.74242,0,0,0,.07861-17.25818,81.56961,81.56961,0,0,0-38.84107-90.90235A18.034,18.034,0,0,0,280.99487,51.2066Zm16.65576,296.56274a74.1996,74.1996,0,0,1-83.94165-.20489,23.60283,23.60283,0,0,0,8.06665-17.6684v-7.48169a70.02642,70.02642,0,0,0,32.08789,7.70874h1.70362A71.24868,71.24868,0,0,0,289.5,321.42078v8.2091A23.61686,23.61686,0,0,0,297.79492,347.50317Zm-6.77466-35.13665a64.15863,64.15863,0,0,1-35.30883,10.49041h-1.70362a62.83782,62.83782,0,0,1-58.04541-38.31567c-.00488-.01233-.0061-.02509-.01123-.03735-.00818-.01966-.02124-.03559-.02978-.055a62.3713,62.3713,0,0,1-4.8291-24.16766l.00048-26.17a3.50248,3.50248,0,0,0,0-.652v-.47052a36.77972,36.77972,0,0,1,15.37061-29.87012l.49219-.35156a44.594,44.594,0,0,1,25.97754-8.34473,45.076,45.076,0,0,1,6.02294.40479l16.28711,2.19336a3.48171,3.48171,0,0,0,.93457,0l16.28711-2.19336a44.61225,44.61225,0,0,1,32.00049,7.93945l.49317.352a36.77789,36.77789,0,0,1,15.36962,29.86963l.001,25.24561a64.4601,64.4601,0,0,1-5.36816,25.83014c-.00782.01611-.01929.029-.02686.04535-.0105.0227-.01391.04656-.02392.06933a64.56616,64.56616,0,0,1-13.50684,19.75,65.2201,65.2201,0,0,1-10.3125,8.39313C291.06738,312.3371,291.04321,312.35071,291.02026,312.36652ZM309.023,197.41943l-.48926-.34912a51.58861,51.58861,0,0,0-37.00293-9.18066L255.71045,190.02l-15.82031-2.13037a51.59975,51.59975,0,0,0-37.00342,9.18164l-.49219.35156a43.69205,43.69205,0,0,0-13.781,16.26685l-5.011-39.73706a64.71814,64.71814,0,0,1-.01428-16.06488c.00378-.0246.00525-.04932.00842-.074a64.28873,64.28873,0,0,1,29.19971-46.22351,17.92236,17.92236,0,0,0,11.79834,4.43274h62.23193a17.92157,17.92157,0,0,0,11.79761-4.43225,64.2881,64.2881,0,0,1,29.199,46.22265c.00318.02491.00464.04987.00855.07459a64.71909,64.71909,0,0,1-.01441,16.06421l-5.01074,39.735A43.70406,43.70406,0,0,0,309.023,197.41943ZM184.09253,250.8457,184.09241,253h-1.85218a9.63627,9.63627,0,0,1-9.58984-8.80713l-.00488-.06494c-.02588-.89844-.20313-6.98633-.4878-14.37012a9.64569,9.64569,0,0,1,3.26539-7.57116q3.85986,3.6524,8.08789,6.99206l.57885,4.58972v17.05139C184.08984,250.82867,184.09241,250.83685,184.09253,250.8457Zm-8.73315,7.65766A16.58476,16.58476,0,0,0,182.24023,260h1.85206v.28125a69.55066,69.55066,0,0,0,3.97314,23.25787,14.97466,14.97466,0,0,1-2.35547.20111,14.73476,14.73476,0,0,1-10.35058-25.23687ZM291.7959,80.704a18.06437,18.06437,0,0,0,3.51257-6.3042,74.60424,74.60424,0,0,1,35.01135,63.21008c0,.62427-.01428,1.24781-.02978,1.87116a71.2438,71.2438,0,0,0-27.36328-33.43683A17.9546,17.9546,0,0,0,291.7959,80.704Zm6.04639,17.30286A11.02829,11.02829,0,0,1,286.82666,109.023H224.59473a11.01587,11.01587,0,1,1,0-22.03174h62.23193A11.02787,11.02787,0,0,1,297.84229,98.00684Zm-91.26368,0a17.87885,17.87885,0,0,0,1.91529,8.0368,71.24431,71.24431,0,0,0-27.364,33.43744c-.0155-.62341-.02978-1.24689-.02978-1.87122a74.57446,74.57446,0,0,1,35.01343-63.20807,18.06662,18.06662,0,0,0,3.51184,6.30219A18.03609,18.03609,0,0,0,206.57861,98.00684ZM335.95007,222.23059a9.93367,9.93367,0,0,1,3.38245,7.79675c-.27637,7.28711-.45117,13.186-.47754,14.0918a9.85567,9.85567,0,0,1-4.14734,7.08594c-.08069.04669-.15466.10492-.23181.15838A9.8637,9.8637,0,0,1,329.02,253h-1.69116l-.00074-19.36743c.01246-.067.03528-.12952.04395-.198l.53662-4.2558Q332.10968,225.86274,335.95007,222.23059ZM327.28613,260H329.02a16.91954,16.91954,0,0,0,7.0199-1.52625A14.7354,14.7354,0,0,1,322.769,283.439,71.48851,71.48851,0,0,0,327.28613,260ZM236.436,25.083a23.46977,23.46977,0,0,1,6.55273-7.61084l12.72168-9.58936,12.72266,9.58936A23.63314,23.63314,0,0,1,274.98486,47.605L273.167,50.95947H238.25452l-1.81848-3.355A23.55275,23.55275,0,0,1,236.436,25.083Zm38.8081,32.87646.00391.00049.00732-.00049h2.894a11.01587,11.01587,0,1,1,0,22.03174H233.27148a11.01587,11.01587,0,0,1,0-22.03174Zm-129.144,79.65039A109.58871,109.58871,0,0,1,226.91394,31.85107a30.53212,30.53212,0,0,0,3.3678,19.08936l.14429.26617a18.0333,18.0333,0,0,0-15.00538,15.46424,81.56364,81.56364,0,0,0-38.842,90.89868,71.74539,71.74539,0,0,0,.07862,17.2586l5.5625,44.111q-2.12182-1.91317-4.1283-3.92108l-.00378-.00373A108.79071,108.79071,0,0,1,146.1001,137.60986Zm22.86084,218.0224-29.14014,8.69312,29.51294-81.04895a21.58659,21.58659,0,0,0,21.45264,6.84619A69.48448,69.48448,0,0,0,204.5166,309.4834a70.26331,70.26331,0,0,0,10.40332,8.5448v11.60168A16.58152,16.58152,0,0,1,203.13965,345.436L168.98889,355.6239Zm78.99048,117.03516L213.21533,453.458a76.87308,76.87308,0,0,1-39.63525-67.228V361.55927l.49756-.14844a111.68711,111.68711,0,0,0,8.28857,8.11285,3.47741,3.47741,0,0,0-1.14648,2.78345c.001.01758.0083.13281.00976.1499a3.49771,3.49771,0,0,0,3.48584,3.23731c.08692,0,.17432-.00342.26221-.00977a3.49153,3.49153,0,0,0,2.74963-1.71051,111.62479,111.62479,0,0,0,15.203,9.93219V386.23a47.50255,47.50255,0,0,0,24.4956,41.54248l26.58984,14.71a3.5006,3.5006,0,0,0,3.38917,0l12.37634-6.84894Zm-63.238-100.56879.62121-.03705.00928.00782Zm92.06689,51.66077-21.0708,11.66052-24.894-13.772a40.48634,40.48634,0,0,1-20.845-34.23053,111.188,111.188,0,0,0,32.44116,9.15,17.49777,17.49777,0,1,0,26.65405.06214,111.53565,111.53565,0,0,0,27.85962-7.046Zm-31.56933-15.84729a10.49951,10.49951,0,1,1,10.49951,10.49951A10.51127,10.51127,0,0,1,245.21094,407.91211ZM309.93018,367.521l-6.84754,11.61682a104.12769,104.12769,0,0,1-121.48743-19.96967l23.542-7.02313a22.98818,22.98818,0,0,0,2.30285-.83661,81.18581,81.18581,0,0,0,96.87073.1452c.64258.25641,1.29688.49073,1.968.69043l14.32666,4.275A33.29394,33.29394,0,0,0,309.93018,367.521Zm42.0791-13.76954a33.37937,33.37937,0,0,0-21.439-1.6643l-22.29248-6.65161A16.58638,16.58638,0,0,1,296.5,329.62988V317.10413A71.81657,71.81657,0,0,0,319.93542,289.966a21.7613,21.7613,0,0,0,22.14856-6.67828l28.58863,78.47906ZM479.7832,297.73535H448.63745l-.02429-18.19482H476.71Zm-28.37988-92.6333a2.47682,2.47682,0,0,1,2.00635-1.0083H470.2998a6.50753,6.50753,0,0,1,6.5,6.5v9.79736H456.8042a2.48482,2.48482,0,0,1-2.394-1.78076l-3.395-11.29687A2.47673,2.47673,0,0,1,451.40332,205.10205Zm-14.40186,27.30078V218.4873a6.50753,6.50753,0,0,1,6.5-6.5h1.60889l2.5957,8.6377a9.44275,9.44275,0,0,0,9.09815,6.76611h19.9956v5.59473a11.54265,11.54265,0,0,1-7.52392,10.79053l-1.49317.55029a3.5,3.5,0,1,0,2.41895,6.56885l1.49365-.5503c.02649-.00976.05139-.02227.07788-.03216l3.7544,22.22748H448.60376l-.02759-20.74018,2.71338.84418a3.49975,3.49975,0,1,0,2.0791-6.68359l-8.2832-2.57715A11.44837,11.44837,0,0,1,437.00146,232.40283ZM418.77124,430.83124l.00171-6.55048a63.42071,63.42071,0,0,0-16.84717-43.10156l11.68506-11.42651,23.114,43.52282Zm23.17065-22.65711-23.11413-43.52295,8.89172-8.69506,23.117,43.52069Zm38.58155-37.72638-24.47071,23.92841-23.11694-43.521,11.68286-11.4245a13.55924,13.55924,0,0,0,4.06153-9.67578l-.03345-25.01953h32.31885l7.15307,42.34815A26.4962,26.4962,0,0,1,480.52344,370.44775ZM348.38477,122.292a3.5,3.5,0,1,0,6.91015-1.11816l-.01758-.10645a3.4615,3.4615,0,0,0-4.0083-2.83838A3.54347,3.54347,0,0,0,348.38477,122.292ZM233.99561,446.46143c-.01368-.00733-.11524-.0586-.12891-.06543a3.45742,3.45742,0,0,0-4.6416,1.5664,3.54243,3.54243,0,0,0,1.55761,4.71778,3.49984,3.49984,0,1,0,3.2129-6.21875ZM314.1709,400.0166a3.49888,3.49888,0,0,0,3.01806-1.72217l.05127-.08691a3.50007,3.50007,0,1,0-6.02929-3.55664l-.05127.08691a3.50072,3.50072,0,0,0,3.01123,5.27881Zm-8.27344,13.981a3.49784,3.49784,0,0,0,3.01367-1.71485l.05127-.08642a3.5,3.5,0,1,0-6.02051-3.57129l-.05127.08643a3.50075,3.50075,0,0,0,3.00684,5.28613Zm16.54688-27.96192a3.49942,3.49942,0,0,0,3.01074-1.70947l.05176-.08691a3.50025,3.50025,0,1,0-6.01465-3.582l-.05176.08691a3.50061,3.50061,0,0,0,3.00391,5.2915Zm8.27392-13.981a3.49892,3.49892,0,0,0,3.01807-1.72217l.05127-.08691a3.50008,3.50008,0,0,0-6.0293-3.55665l-.05127.08692a3.50072,3.50072,0,0,0,3.01123,5.27881Zm-57.915,97.86719a3.49781,3.49781,0,0,0,3.01367-1.71485l.05127-.08642a3.5,3.5,0,1,0-6.0205-3.57129l-.05127.08642a3.50075,3.50075,0,0,0,3.00683,5.28614Zm-10.04834,13.4956a3.499,3.499,0,0,0,4.793-1.23633l.05127-.08691a3.50008,3.50008,0,0,0-6.0293-3.55664l-.05127.08691A3.50011,3.50011,0,0,0,262.75488,483.41748Zm18.32178-27.47656a3.49891,3.49891,0,0,0,3.01807-1.72217l.05127-.08691a3.50008,3.50008,0,0,0-6.0293-3.55664l-.05127.08691a3.50072,3.50072,0,0,0,3.01123,5.27881ZM297.624,427.979a3.4989,3.4989,0,0,0,3.01807-1.72216l.05127-.08692a3.50008,3.50008,0,1,0-6.0293-3.55664l-.05127.08692a3.50072,3.50072,0,0,0,3.01123,5.2788ZM289.3501,441.96a3.49942,3.49942,0,0,0,3.01074-1.70947l.05176-.08692a3.50025,3.50025,0,1,0-6.01465-3.582l-.05176.08692a3.50061,3.50061,0,0,0,3.00391,5.2915Zm-99.07569-54.706-.03027-.14649a3.45638,3.45638,0,0,0-4.11523-2.65478,3.543,3.543,0,0,0-2.72266,4.15381,3.5,3.5,0,0,0,6.86816-1.35254Zm113.73926-330.166a3.49988,3.49988,0,0,0,3.69141-5.94727l-.146-.08837a3.5,3.5,0,0,0-3.54541,6.03564Zm-76.6333,178.5376a16.06468,16.06468,0,0,1-9.1084,2.63965,15.81,15.81,0,0,1-8.36279-2.63868,3.49979,3.49979,0,0,0-3.86914,5.833,22.79716,22.79716,0,0,0,12.06738,3.80371c.17822.0044.35449.00635.53028.00635a23.11,23.11,0,0,0,12.60986-3.80908,3.50007,3.50007,0,1,0-3.86719-5.835Zm28.3302-14.46588a3.5,3.5,0,1,0-3.5-3.5A3.5,3.5,0,0,0,255.71057,221.15961Zm11.65222,68.2691a21.33578,21.33578,0,0,1-12.14843,3.52051,21.07618,21.07618,0,0,1-11.1543-3.51953,3.50007,3.50007,0,0,0-3.87012,5.833,28.06956,28.06956,0,0,0,14.85938,4.68457c.21923.00537.436.00781.65185.00781A28.457,28.457,0,0,0,271.23,295.26367a3.50007,3.50007,0,1,0-3.86719-5.835Zm39.00147-52.81885a3.4988,3.4988,0,0,0-4.85059-.98437,15.755,15.755,0,0,1-17.47119.001,3.50007,3.50007,0,0,0-3.87012,5.833,22.7926,22.7926,0,0,0,12.06739,3.80371q.26733.0066.53027.00635a23.1118,23.1118,0,0,0,12.60986-3.80908A3.49949,3.49949,0,0,0,306.36426,236.60986Zm36.57129-133.83545a3.50006,3.50006,0,1,0,6.48535-2.63476l-3.27979,1.22461,3.25342-1.291a3.5002,3.5002,0,1,0-6.50683,2.582C342.8916,102.66406,342.93213,102.76562,342.93555,102.77441Zm-4.12842,78.58936-.05811.10937a3.5002,3.5002,0,1,0,6.19922,3.252l.03565-.06739a3.50009,3.50009,0,0,0-6.17676-3.29394ZM322.61768,70.36182a3.5,3.5,0,0,0,2.42334-6.02588l-.09864-.09326a3.47206,3.47206,0,0,0-4.92383.17529,3.52838,3.52838,0,0,0,.17676,4.96973A3.48782,3.48782,0,0,0,322.61768,70.36182ZM158.98047,125.39307a3.49547,3.49547,0,0,0,4.02051-2.88672l.01757-.10645a3.5,3.5,0,1,0-6.91015-1.11816l3.439.65771-3.45361-.56689A3.49932,3.49932,0,0,0,158.98047,125.39307ZM333.38428,84.86279a3.50017,3.50017,0,0,0,5.77734-3.95312l-2.94482,1.894,2.896-1.96533a3.4999,3.4999,0,1,0-5.792,3.93066ZM188.68652,70.43994a3.57,3.57,0,0,0,2.44776-.96631,3.49992,3.49992,0,1,0-4.79395-5.10058l-.09814.09326a3.483,3.483,0,0,0,2.44433,5.97363ZM173.10645,85.9458a3.46571,3.46571,0,0,0,1.92968.58447,3.5284,3.5284,0,1,0-2.812-5.56738l-.09619.1416A3.48722,3.48722,0,0,0,173.10645,85.9458Zm-9.20606,18.94385a3.45988,3.45988,0,0,0,1.2627.23877,3.53342,3.53342,0,1,0-3.19385-4.91162l-.062.15527A3.48546,3.48546,0,0,0,163.90039,104.88965Zm41.499-47.17481a3.4824,3.4824,0,0,0,1.80469-.5039c.00537-.00293.0957-.05762.10059-.06055a3.50016,3.50016,0,0,0-3.64649-5.97559l1.7378,3.03956-1.80811-2.99659a3.50032,3.50032,0,0,0,1.81152,6.49707Zm92.311,95.791a10.5,10.5,0,1,0,10.5,10.5A10.51211,10.51211,0,0,0,297.71045,153.50586Zm0,14a3.5,3.5,0,1,1,3.5-3.5A3.50424,3.50424,0,0,1,297.71045,167.50586Zm-42-26.66553a15.97437,15.97437,0,1,0,15.97461,15.97412A15.99228,15.99228,0,0,0,255.71045,140.84033Zm0,24.94873a8.97437,8.97437,0,1,1,8.97461-8.97461A8.98452,8.98452,0,0,1,255.71045,165.78906Zm0-121.69775a11.12525,11.12525,0,1,0-11.125-11.12549A11.1379,11.1379,0,0,0,255.71045,44.09131Zm0-15.25049a4.12525,4.12525,0,1,1-4.125,4.125A4.12993,4.12993,0,0,1,255.71045,28.84082Zm-42,124.665a10.5,10.5,0,1,0,10.5,10.5A10.51211,10.51211,0,0,0,213.71045,153.50586Zm0,14a3.5,3.5,0,1,1,3.5-3.5A3.50424,3.50424,0,0,1,213.71045,167.50586Z"/></svg>