<svg xmlns="http://www.w3.org/2000/svg" data-name="Layer 1" viewBox="0 0 512 512"><path d="M379.54761,360.01349A21.13575,21.13575,0,0,0,378.439,355.543c-2.71435-7.45508-7.75292-10.09131-11.80175-12.209-3.7334-1.95361-6.68262-3.49609-8.46875-8.40136-1.78565-4.90576-.51953-7.98389,1.08349-11.88135,1.7378-4.22559,3.90088-9.48438,1.18653-16.93848-2.71387-7.45508-7.75244-10.09082-11.80127-12.209-3.7334-1.95313-6.68262-3.4961-8.47559-8.42041l-.00214-.00653a21.7099,21.7099,0,0,0,1.84192-31.20716,16.87268,16.87268,0,0,0,4.1236-9.60614c.00732-.07812.01221-.15625.01416-.23437,0-.00928.04-1.56445.12939-4.09961.07959-2.5542.19971-6.08594.34913-10.04a16.978,16.978,0,0,0-5.40564-13.01587A116.70642,116.70642,0,0,0,349.292,67.63916,117.53408,117.53408,0,0,0,291.1153,26.40869a52.84579,52.84579,0,0,0-6.23932-5.53418L258.106.70459a3.49957,3.49957,0,0,0-4.21192,0l-26.7705,20.16992a52.249,52.249,0,0,0-6.21454,5.51886,115.41109,115.41109,0,0,0-39.50708,21.606,238.47877,238.47877,0,0,0-30.545-6.205,9.417,9.417,0,0,0-10.00976,5.7793c-6.91748,16.97559-21.69678,58.729-9.55518,79.75879a53.7867,53.7867,0,0,0,8.10376,10.66846,115.539,115.539,0,0,0,31.34912,79.22815,16.70109,16.70109,0,0,0-5.29223,12.79577c.30468,7.90674.48584,14.31543.4873,14.31494a3.8893,3.8893,0,0,0,.022.4043l.00293.0332a16.78073,16.78073,0,0,0,4.02588,9.49915,21.72429,21.72429,0,0,0,4.06934,32.87872c-.06806.21375-.11926.418-.19873.63776-1.78565,4.9043-4.73682,6.44726-8.47315,8.40039-4.05078,2.11816-9.09228,4.75391-11.80664,12.2085-2.71435,7.45019-.54883,12.70947,1.19141,16.936,1.606,3.89941,2.874,6.979,1.08838,11.88379-1.78565,4.90039-4.73682,6.44336-8.47315,8.39648-3.2055,1.67615-7.02716,3.68671-9.82983,8.14173L114.6767,268.36926c-.00232-.00885-.002-.01764-.00434-.02649l-8.541-31.87548c-.00281-.01044-.00836-.01929-.01123-.02973L93.58105,189.644a3.50012,3.50012,0,0,0-6.70263-.19726c-1.0874,3.27392-4.53272,11.40576-13.01758,16.18506a27.46775,27.46775,0,0,1-12.102,3.48339,3.50013,3.50013,0,0,0-3.18945,4.40039l7.8974,29.47675A76.82858,76.82858,0,0,0,28.03644,261.308l-15.03351,7.51178a7.49955,7.49955,0,0,0-.39844,13.20411l10.72412,6.1914a7.49993,7.49993,0,0,0,11.23682-6.94678l-.93726-15.53576a69.69636,69.69636,0,0,1,29.91346-15.03552,96.51939,96.51939,0,0,0-13.824,47.28009l-13.56775,6.779a7.50037,7.50037,0,0,0-.39746,13.20459l10.72461,6.19189A7.49976,7.49976,0,0,0,57.71289,317.206L56.674,299.97681a89.7181,89.7181,0,0,1,12.8363-45.62458L105.48706,388.635A63.399,63.399,0,0,0,93.52,425.5498V508.5a3.5,3.5,0,0,0,7,0V425.5498a56.86169,56.86169,0,0,1,40.35059-54.146l25.88916-7.72333V386.23a83.87536,83.87536,0,0,0,43.24609,73.35254L238.78125,475.501a22.31822,22.31822,0,1,0,34.36737-.08142l28.62775-15.83808a83.3377,83.3377,0,0,0,18.84131-14.25537V508.5a3.5,3.5,0,0,0,7,0V354.78125a2.50011,2.50011,0,0,1,3.21435-2.396l17.78565,5.30542V508.5a3.5,3.5,0,0,0,7,0V359.77881l15.51611,4.62842A56.85049,56.85049,0,0,1,411.4834,418.5498V508.5a3.5,3.5,0,0,0,7,0V418.5498A63.9488,63.9488,0,0,0,379.54761,360.01349ZM27.3418,282.146a.45787.45787,0,0,1-.5127.00732L16.104,275.96143a.45715.45715,0,0,1-.249-.44727.46379.46379,0,0,1,.27637-.43262l10.72461-5.3584.72216,11.96729A.464.464,0,0,1,27.3418,282.146Zm23.148,35.93652a.46694.46694,0,0,1-.51319.00781l-10.72412-6.19189a.49992.49992,0,0,1,.02637-.88037l10.7251-5.3584.72168,11.96728v.00049A.45778.45778,0,0,1,50.48975,318.08252ZM66.38086,215.62305a34.01956,34.01956,0,0,0,10.917-3.89356,34.435,34.435,0,0,0,11.94434-11.2334l9.21869,34.40277-25.1128,6.729Zm8.78076,32.76611,25.11109-6.72876,6.72955,25.11371-25.11115,6.72882Zm35.78967,133.59131L83.69977,280.26526l25.11438-6.72937,24.90716,92.94971A63.39214,63.39214,0,0,0,110.95129,381.98047ZM326,283.74023a14.79415,14.79415,0,0,1-2.94165-.30133A71.4927,71.4927,0,0,0,327.57526,260h1.7348a16.91856,16.91856,0,0,0,7.01245-1.52295A14.73389,14.73389,0,0,1,326,283.74023ZM238.0791,405.62256l14.65967,9.76953a5.89645,5.89645,0,0,0,3.27734.99365,5.986,5.986,0,0,0,3.29493-.99316l14.66015-9.77051a9.24048,9.24048,0,0,0,4.105-7.53711,8.97906,8.97906,0,0,0-3.727-7.45947,12.30388,12.30388,0,0,1-5.12891-9.97559,11.917,11.917,0,0,1,.14112-1.84131,1.35394,1.35394,0,0,1,1.08935-1.15039,83.72377,83.72377,0,0,0,31.21924-12.32592V386.23a40.49943,40.49943,0,0,1-20.88428,35.41748l-24.8955,13.77246-24.895-13.772a40.49972,40.49972,0,0,1-20.88526-35.418V365.175a83.77962,83.77962,0,0,0,31.48047,12.48321,1.36557,1.36557,0,0,1,1.10156,1.17139,11.84657,11.84657,0,0,1,.13819,1.82031,12.30394,12.30394,0,0,1-5.12744,9.97461,8.98262,8.98262,0,0,0-3.73194,7.47119A9.2263,9.2263,0,0,0,238.0791,405.62256Zm31.16895-34.86035a8.33747,8.33747,0,0,0-6.80616,6.98828,18.87788,18.87788,0,0,0-.22168,2.89941,19.32,19.32,0,0,0,8.05225,15.666,1.94425,1.94425,0,0,1,.80469,1.65185,2.22588,2.22588,0,0,1-.98828,1.82959l-14.06348,9.373-14.06787-9.37549a2.21385,2.21385,0,0,1-.98828-1.82129,1.94945,1.94945,0,0,1,.81055-1.65869,19.32165,19.32165,0,0,0,8.05029-15.665,18.80865,18.80865,0,0,0-.21875-2.87842,8.34585,8.34585,0,0,0-6.82031-7.00927,76.78343,76.78343,0,0,1-32.68116-14.13031v-6.48151a23.41731,23.41731,0,0,0,4.09424-2.9071,66.86369,66.86369,0,0,0,83.61322.02014,23.42491,23.42491,0,0,0,3.8526,2.76849V356.813A76.80258,76.80258,0,0,1,269.24805,370.76221ZM256.023,354.93506a59.82412,59.82412,0,0,1-37.30847-13.05084A23.4025,23.4025,0,0,0,222.21,329.62988v-7.48126a70.02488,70.02488,0,0,0,32.08692,7.70831h1.70361A71.2503,71.2503,0,0,0,289.79,321.42041v8.20947a23.40678,23.40678,0,0,0,3.50976,12.27954A59.82355,59.82355,0,0,1,256.023,354.93506Zm35.35284-42.61048c-.02087.01374-.04248.02582-.063.04a64.15855,64.15855,0,0,1-35.31225,10.49237h-1.70361a62.83024,62.83024,0,0,1-58.00379-38.22326c-.01715-.04651-.02338-.0943-.0426-.14051-.03089-.07409-.07666-.13641-.11194-.20721a62.38406,62.38406,0,0,1-4.75671-24.0047l.00048-27.29248a36.77784,36.77784,0,0,1,15.36914-29.86914l.49366-.35254a44.594,44.594,0,0,1,25.97754-8.34473,45.07629,45.07629,0,0,1,6.023.40479l16.2871,2.19336a3.4826,3.4826,0,0,0,.93458,0l16.2871-2.19336a44.61346,44.61346,0,0,1,32.00049,7.93945l.49268.352a36.7788,36.7788,0,0,1,15.37012,29.86914l.00048,25.2461a64.45359,64.45359,0,0,1-5.36962,25.83429c-.007.01464-.01758.02636-.02442.0412-.00958.02062-.01276.04235-.02185.063a64.94726,64.94726,0,0,1-23.82648,28.15216Zm17.94013-114.90222-.49268-.352a51.60027,51.60027,0,0,0-37.00293-9.18066L256,190.02l-15.82031-2.13037a51.60079,51.60079,0,0,0-37.00244,9.18066l-.49366.35254a43.69044,43.69044,0,0,0-13.78228,16.26972l-5.00873-39.74042a64.275,64.275,0,0,1,.61517-20.0528,53.63025,53.63025,0,0,0,20.45905-6.82562q.81792-.47223,1.60516-.98187A53.68416,53.68416,0,0,0,228.46307,119.27h56.47687a13.51292,13.51292,0,0,0,9.65137-4.002,13.69135,13.69135,0,0,0,2.98736-4.50971,64.6417,64.6417,0,0,1,30.52875,63.19428l-5.00873,39.73986A43.69216,43.69216,0,0,0,309.31592,197.42236ZM184.51813,229.73993c-.08081,1.0777-.13581,2.15967-.13581,3.24884L184.382,253h-1.85217a9.63581,9.63581,0,0,1-9.58936-8.80713l-.00488-.06494c-.02588-.89795-.20362-6.98584-.4878-14.37012a9.66264,9.66264,0,0,1,3.25391-7.56091Q179.88919,226.15464,184.51813,229.73993ZM175.14941,139.084a21.90755,21.90755,0,0,0,3.9466,4.994c-.10785-.02765-.21631-.04962-.324-.07849a29.71147,29.71147,0,0,1-18.16015-13.93506c-4.45411-7.71435-2.2876-24.727,5.79541-45.50879a3.38667,3.38667,0,0,1,3.1665-2.17578,3.4419,3.4419,0,0,1,.53076.041c22.03955,3.3916,37.856,10.02148,42.30908,17.73535a29.71257,29.71257,0,0,1,2.98829,22.69482c-.02881.10749-.064.21216-.09394.31916a21.90814,21.90814,0,0,0-2.35138-5.91388h-.00049c-3.1499-5.45606-11.21484-9.44043-23.96923-11.84375a10.668,10.668,0,0,0-12.10987,6.9917C172.58105,124.65186,172,133.62842,175.14941,139.084Zm8.333-24.36279a3.7029,3.7029,0,0,1,3.50244-2.49609,3.82421,3.82421,0,0,1,.70557.0664c10.05859,1.895,17.2373,5.05957,19.2041,8.46485H206.894A14.8276,14.8276,0,1,1,181.21191,135.584C179.24561,132.17871,180.09473,124.37939,183.48242,114.72119Zm47.074-2.45117a54.16744,54.16744,0,0,0,1.33722-13.29h53.04632a6.64674,6.64674,0,0,1,4.688,11.35205,6.56158,6.56158,0,0,1-4.688,1.938ZM293.25433,94.8316a21.36043,21.36043,0,0,0,6.16364-7.04547,52.53609,52.53609,0,0,0,3.52185-8.12066,74.75745,74.75745,0,0,1,27.67,57.94439c0,.67237-.014,1.34388-.032,2.01508a71.47581,71.47581,0,0,0-32.25122-36.50073A13.65052,13.65052,0,0,0,293.25433,94.8316Zm42.9972,127.40845a9.93465,9.93465,0,0,1,3.371,7.78778c-.15039,3.96875-.27051,7.51709-.35059,10.06934-.07519,2.145-.11572,3.602-.12744,4.02588a9.85472,9.85472,0,0,1-4.198,7.11688l-.01336.00915A9.85843,9.85843,0,0,1,329.31006,253h-1.692l-.00036-20.01221c0-1.08886-.055-2.17053-.13575-3.24792Q332.07588,226.17289,336.25153,222.24005Zm7.44378-150.39679a109.67172,109.67172,0,0,1-10.04388,143.16223,3.468,3.468,0,0,0-.44763.43695q-1.81239,1.78895-3.71216,3.50745l2.90014-23.01019a3.48874,3.48874,0,0,0,4.44758-1.08863c1.59863-2.25439,3.1206-4.603,4.52343-6.98a3.4999,3.4999,0,1,0-6.02832-3.55761c-.59466,1.00744-1.2182,2.00665-1.8551,2.99743l1.57336-12.48327a71.08082,71.08082,0,0,0,.0622-17.21033,81.51528,81.51528,0,0,0-30.23749-85.31989A52.25438,52.25438,0,0,0,299.418,37.78418c-.19684-.36365-.41235-.71326-.61688-1.07117A110.7253,110.7253,0,0,1,343.69531,71.84326Zm-124.956-30.729a45.54443,45.54443,0,0,1,12.59668-14.64893L256,7.88232l24.66064,18.58057a45.543,45.543,0,0,1,18.09913,36.3169,45.68484,45.68484,0,0,1-5.49756,21.67333A14.38707,14.38707,0,0,1,280.62012,91.98h-49.3573A53.61511,53.61511,0,0,0,224.708,73.39893a37.57554,37.57554,0,0,0-11.4289-11.69574A45.47783,45.47783,0,0,1,218.73926,41.11426Zm-5.50763-4.45777c-.21515.37519-.44232.74439-.64765,1.12427a52.46838,52.46838,0,0,0-6.06549,19.83112,111.79953,111.79953,0,0,0-17.00793-7.13843A108.26217,108.26217,0,0,1,213.23163,36.65649Zm-75.87714,87.176c-4.4751-7.751-4.87793-21.00684-1.16455-38.334a221.68161,221.68161,0,0,1,11.13965-35.28321,2.42224,2.42224,0,0,1,2.24219-1.50879,2.46442,2.46442,0,0,1,.332.02246,221.65255,221.65255,0,0,1,36.12549,7.99463c16.86279,5.44776,28.14111,12.42432,32.61621,20.1753a46.78334,46.78334,0,0,1,4.68933,35.5191,36.76173,36.76173,0,0,0-4.85877-15.76178c-7.64892-13.24854-32.92236-18.94043-47.30712-21.1543a10.34546,10.34546,0,0,0-11.28565,6.5166c-5.27588,13.56348-12.9834,38.29639-5.334,51.5459a36.7621,36.7621,0,0,0,11.21942,12.088A46.783,46.783,0,0,1,137.35449,123.83252Zm9.22681,20.33588a54.25943,54.25943,0,0,0,30.76349,10.09607,71.28819,71.28819,0,0,0-.39752,20.56317l1.82159,14.45227a3.48608,3.48608,0,0,0-3.73517,5.391c1.59375,2.25781,3.30274,4.47558,5.0791,6.59131.05731.06823.12775.11706.189.17981l2.20672,17.508q-2.03421-1.8316-3.96124-3.75061c-.0722-.07055-.13879-.14752-.21619-.21106A108.44043,108.44043,0,0,1,146.5813,144.1684ZM171.25,268.98a14.77467,14.77467,0,0,1,4.39935-10.47656A16.58309,16.58309,0,0,0,182.52979,260h1.85205v.28125a69.55385,69.55385,0,0,0,3.97229,23.25562A14.669,14.669,0,0,1,171.25,268.98Zm-2.39978,86.77185-27.53,8.21277a13.70265,13.70265,0,0,1,.83844-3.74634c1.78565-4.90039,4.73682-6.44336,8.47315-8.39648,4.05078-2.11817,9.09228-4.75391,11.80664-12.20459,2.71484-7.45557.54834-12.71729-1.19287-16.94483-1.6045-3.897-2.87207-6.97509-1.08692-11.875,1.78565-4.90429,4.73682-6.44726,8.47315-8.40039,4.05078-2.11816,9.09228-4.7539,11.80908-12.21484.01849-.05109.03265-.09985.05072-.1507a21.3986,21.3986,0,0,0,10.58215.08728,69.48255,69.48255,0,0,0,13.73236,19.36469A70.25741,70.25741,0,0,0,215.21,318.02875v11.60113a16.59382,16.59382,0,0,1-9.73566,15.03119,3.46472,3.46472,0,0,0-.8366.36054c-.39539.15234-.79737.29242-1.208.41443L169.47278,355.5661A3.45923,3.45923,0,0,0,168.85022,355.75183ZM256,505a15.3169,15.3169,0,1,1,15.31689-15.31689A15.33419,15.33419,0,0,1,256,505Zm64.61768-70.13031a76.17208,76.17208,0,0,1-22.23194,18.58783l-30.90368,17.09735a22.27194,22.27194,0,0,0-23.06916.062L213.39551,453.458a76.87314,76.87314,0,0,1-39.63574-67.228V361.59216l29.35009-8.7558V386.23a47.50256,47.50256,0,0,0,24.49561,41.54248l26.59033,14.71a3.49963,3.49963,0,0,0,3.38867,0L284.17529,427.772a47.50225,47.50225,0,0,0,24.49463-41.542v-33.4588l11.94776,3.56836ZM332.833,345.67725a9.418,9.418,0,0,0-8.39209,1.48681,9.54545,9.54545,0,0,0-2.23175,2.34552l-13.64228-4.07452A16.58055,16.58055,0,0,1,296.79,329.62988V317.10376a71.814,71.814,0,0,0,23.43481-27.13788,21.7698,21.7698,0,0,0,13.87372-.79632c2.80127,6.49072,7.485,8.94415,11.294,10.93689,3.7334,1.95312,6.68262,3.49609,8.46875,8.40087,1.78564,4.90577.51953,7.98389-1.0835,11.88135-1.73779,4.22559-3.90088,9.48438-1.18652,16.93848,2.71387,7.45508,7.75244,10.09131,11.80127,12.209,3.54724,1.8562,6.38446,3.34735,8.19122,7.70044ZM199.0459,504.8374c-17.99268-1.75488-33.11133-11.9834-39.45606-26.69385-5.563-12.90039-2.74853-25.82812.5918-34.40185a3.5,3.5,0,1,0-6.52246-2.541,59.27383,59.27383,0,0,0-4.21759,21.60694c-.001.03357-.01.06482-.01.09863V508.5a3.5,3.5,0,0,0,7,0V487.14532c8.53461,13.666,24.01129,22.911,41.93457,24.65888q.17358.01685.34424.01709a3.50023,3.50023,0,0,0,.33545-6.98389Zm-1.61853-22.63421a3.5,3.5,0,1,0-3.5,3.5A3.5,3.5,0,0,0,197.42737,482.20319Zm-82.427-116.04432a5,5,0,1,0,3.53552-6.12371A5,5,0,0,0,115.00037,366.15887Zm-8.45807-70.203a5,5,0,1,0-3.53553,6.12372A5,5,0,0,0,106.5423,295.95587ZM256,395.11151a3.5,3.5,0,1,0,3.5,3.5A3.5,3.5,0,0,0,256,395.11151ZM105.94171,332.35144a5,5,0,1,0,3.53552-6.12372A5,5,0,0,0,105.94171,332.35144Zm200.71161-95.74206a3.50063,3.50063,0,0,0-4.85107-.98389,16.0832,16.0832,0,0,1-9.1084,2.63965,15.81,15.81,0,0,1-8.3628-2.63868,3.49979,3.49979,0,0,0-3.86914,5.833,22.79723,22.79723,0,0,0,12.06739,3.80371c.17822.0044.35449.00635.53027.00635a23.11,23.11,0,0,0,12.60986-3.80908A3.5,3.5,0,0,0,306.65332,236.60938ZM337.82422,95.417A3.49984,3.49984,0,0,0,344.043,92.2041c-1.26758-2.45361-2.65674-4.88525-4.1294-7.228a3.5,3.5,0,0,0-5.92675,3.72461C335.35547,90.87793,336.64648,93.1377,337.82422,95.417ZM323.39209,74.92041a3.50014,3.50014,0,1,0,5.124-4.76953c-1.88427-2.02393-3.87549-3.9917-5.918-5.84863a3.50016,3.50016,0,1,0-4.708,5.18066C319.78906,71.2085,321.64014,73.03809,323.39209,74.92041ZM305,152.1543a11.66016,11.66016,0,1,0,11.66016,11.66015A11.67366,11.67366,0,0,0,305,152.1543Zm0,16.32031a4.66016,4.66016,0,1,1,4.66016-4.66016A4.66518,4.66518,0,0,1,305,168.47461Zm-49-27.63428a15.97437,15.97437,0,1,0,15.97461,15.97412A15.99239,15.99239,0,0,0,256,140.84033Zm0,24.94873a8.97437,8.97437,0,1,1,8.97461-8.97461A8.98463,8.98463,0,0,1,256,165.78906Zm88.2998-54.24756c.72559,2.46143,1.355,4.98487,1.87012,7.50049a3.49987,3.49987,0,0,0,6.85742-1.40429c-.55468-2.7085-1.23193-5.42579-2.01367-8.07569a3.4998,3.4998,0,1,0-6.71387,1.97949Zm7.18458,21.23047a3.49939,3.49939,0,0,0-3.44971,3.54932q.00879.64525.00879,1.292c0,2.14307-.07471,4.31055-.22168,6.44287a3.49989,3.49989,0,0,0,3.251,3.73242c.082.00586.16309.00831.24414.00831a3.50027,3.50027,0,0,0,3.48829-3.25928c.1582-2.29151.23828-4.6211.23828-6.92432q0-.69652-.00977-1.3916a3.49959,3.49959,0,0,0-3.49853-3.4502ZM207,152.1543a11.66016,11.66016,0,1,0,11.66016,11.66015A11.67366,11.67366,0,0,0,207,152.1543Zm0,16.32031a4.66016,4.66016,0,1,1,4.66016-4.66016A4.66518,4.66518,0,0,1,207,168.47461Zm60.65234,120.9541a21.3701,21.3701,0,0,1-12.14843,3.52051,21.0781,21.0781,0,0,1-11.15479-3.51953,3.50007,3.50007,0,0,0-3.87012,5.833,28.06994,28.06994,0,0,0,14.85987,4.68457c.21924.00537.436.00781.65185.00781a28.457,28.457,0,0,0,15.52881-4.69141,3.50007,3.50007,0,1,0-3.86719-5.835ZM249.70215,72.12305a8.501,8.501,0,0,0,12.5957,0l15.34229-16.92481v-.00049a8.47218,8.47218,0,0,0,0-11.417L262.29785,26.856a8.501,8.501,0,0,0-12.5957,0L234.35986,43.78125a8.47218,8.47218,0,0,0,0,11.417ZM239.54639,48.48193l15.34228-16.9248a1.50075,1.50075,0,0,1,2.22266,0l15.34228,16.92432a1.4967,1.4967,0,0,1,0,2.01611v-.00049L257.11133,67.42188a1.50077,1.50077,0,0,1-2.22266,0L239.54639,50.49756A1.49608,1.49608,0,0,1,239.54639,48.48193ZM227.66992,235.62549a16.059,16.059,0,0,1-9.10888,2.63965,15.7972,15.7972,0,0,1-8.36182-2.63868,3.50007,3.50007,0,0,0-3.87012,5.833,22.79259,22.79259,0,0,0,12.06738,3.80371c.17823.0044.3545.00635.53028.00635a23.11052,23.11052,0,0,0,12.61035-3.80908,3.50007,3.50007,0,1,0-3.86719-5.835ZM256,242a12.51408,12.51408,0,0,0,12.5-12.5v-22a3.5,3.5,0,0,0-7,0v22a5.5,5.5,0,0,1-11,0v-22a3.5,3.5,0,0,0-7,0v22A12.51408,12.51408,0,0,0,256,242Zm93.27393-83.2915a3.50145,3.50145,0,0,0-4.27881,2.48877c-.65723,2.48584-1.42823,4.97021-2.29,7.38427a3.49984,3.49984,0,1,0,6.5918,2.3545c.92822-2.59864,1.75781-5.27295,2.46582-7.94874A3.50062,3.50062,0,0,0,349.27393,158.7085Zm-180.05127,9.66992a3.5,3.5,0,1,0-6.59766,2.33887c.92334,2.60449,1.9707,5.20312,3.11279,7.7246a3.49991,3.49991,0,1,0,6.376-2.88867C171.05322,173.21143,170.08008,170.79736,169.22266,168.37842Z"/></svg>