<svg xmlns="http://www.w3.org/2000/svg" data-name="Layer 1" viewBox="0 0 512 512"><path d="M321.61523,432.044A11.9341,11.9341,0,1,0,309.68066,443.957,11.93728,11.93728,0,0,0,321.61523,432.044Zm-16.86816,0a4.93412,4.93412,0,1,1,4.93359,4.91308A4.92891,4.92891,0,0,1,304.74707,432.044ZM99.65283,479.29932h-.1001a3.5,3.5,0,1,0,0,7h.1001a3.5,3.5,0,1,0,0-7Zm32.19971,0h-.1001a3.5,3.5,0,0,0,0,7h.1001a3.5,3.5,0,1,0,0-7Zm-16.19971,0a3.5,3.5,0,0,0,0,7h.09961a3.4577,3.4577,0,0,0,3.4502-3.5A3.54272,3.54272,0,0,0,115.65283,479.29932ZM284.1123,467.98047A11.91359,11.91359,0,1,0,296.0459,479.894,11.93708,11.93708,0,0,0,284.1123,467.98047Zm0,16.82715a4.91362,4.91362,0,1,1,4.9336-4.91358A4.92891,4.92891,0,0,1,284.1123,484.80762ZM181.0481,476.0238a3.93568,3.93568,0,1,0-3.93567,3.92633A3.931,3.931,0,0,0,181.0481,476.0238Zm14.77954,28.79212c-20.35523-1.9809-37.46729-13.51764-44.68592-30.117-.01379-.03393-.02966-.06616-.04455-.09954-10.15088-23.50061,4.20044-46.79663,5.8706-49.3758a3.50009,3.50009,0,1,0-5.876-3.80468c-1.86316,2.8775-17.73511,28.68634-6.68555,55.29541l.04395,31.79052a3.49944,3.49944,0,0,0,3.5,3.49512h.00488a3.49987,3.49987,0,0,0,3.49512-3.50488l-.02735-19.74481c9.92554,12.77038,25.71851,21.28033,43.727,23.0324q.17286.01686.34326.01709a3.50018,3.50018,0,0,0,.33448-6.98388Zm163.76611-30.64307a11.91359,11.91359,0,1,0,11.93359,11.91358A11.93707,11.93707,0,0,0,359.59375,474.17285Zm0,16.82715a4.91362,4.91362,0,1,1,4.93359-4.91357A4.92891,4.92891,0,0,1,359.59375,491ZM294.44238,195.78857a9.55164,9.55164,0,0,0,1.75782-7.35888,10.527,10.527,0,0,0-9.52759-8.39344,9.61486,9.61486,0,0,0,.18384-3.66125,10.51911,10.51911,0,0,0-11.585-8.84375,193.36743,193.36743,0,0,1-38.54394-.00049,10.50542,10.50542,0,0,0-11.5835,8.84473,9.629,9.629,0,0,0,.18408,3.65838,10.52568,10.52568,0,0,0-9.52832,8.39484,9.55144,9.55144,0,0,0,1.75538,7.35693,11.61909,11.61909,0,0,0,7.84668,4.562A227.022,227.022,0,0,0,256,202.419a227.02385,227.02385,0,0,0,30.59863-2.07129A11.62033,11.62033,0,0,0,294.44238,195.78857Zm-62.36914-18.42089a3.54545,3.54545,0,0,1,3.57569-2.89063c.126,0,.25341.00635.38134.019a200.43541,200.43541,0,0,0,39.9375.00049,3.5884,3.5884,0,0,1,3.96,2.874,2.80824,2.80824,0,0,1-.61035,2.1372,3.89572,3.89572,0,0,1-2.667,1.41229c-.16284.01636-.32593.02955-.48852.04554q-2.02406.19857-4.05323.3554-.5764.04515-1.15307.08783c-1.53907.11158-3.07959.21167-4.62183.2887l-.02344.001c-1.55493.07751-3.11157.13232-4.6687.17468q-.46069.01263-.92187.02332-4.71644.10738-9.43506.00006-.46692-.01062-.9336-.02368c-1.543-.04206-3.085-.09656-4.626-.1731l-.06739-.00281c-1.53588-.07678-3.07006-.17651-4.603-.28753q-.58887-.04276-1.17774-.08966-2.00574-.15684-4.00757-.35145c-.1726-.0169-.34594-.03094-.51879-.04834a3.89659,3.89659,0,0,1-2.66651-1.41131A2.814,2.814,0,0,1,232.07324,177.36768Zm53.582,16.04345a219.96137,219.96137,0,0,1-59.31152,0,4.60117,4.60117,0,0,1-3.12842-1.74316,2.6179,2.6179,0,0,1-.52588-1.999,3.73737,3.73737,0,0,1,3.87159-2.70459,4.95427,4.95427,0,0,1,.66455.04492q3.70239.5038,7.41723.87536c.01221.00129.02417.00428.03638.0055.12646.01269.25366.02087.38013.03332q2.1632.21322,4.32934.3797.55775.04349,1.11524.0849,4.834.35184,9.677.483.46362.01264.92749.0235,4.88745.112,9.77612.00012.47278-.0108.94556-.024c1.61084-.044,3.22168-.10041,4.83154-.18091l.02246-.00092c1.59693-.08,3.19287-.18329,4.78809-.29925q.58557-.04248,1.1709-.08917,2.11888-.16572,4.2351-.3714c.14771-.01447.29566-.02411.44312-.03888.01416-.00141.02808-.00489.04224-.00635q3.71044-.37326,7.40991-.87451c2.17968-.29444,4.2207.897,4.53711,2.65771a2.62162,2.62162,0,0,1-.52735,2.002,4.599,4.599,0,0,1-3.127,1.74218ZM419.74219,478.873h-.11255a3.92634,3.92634,0,1,0,0,7.85266h.11255a3.92634,3.92634,0,1,0,0-7.85266Zm-195.352-260.42621a18.19193,18.19193,0,0,1-20.13379.001,3.50021,3.50021,0,1,0-3.86328,5.83789,25.24012,25.24012,0,0,0,13.33593,4.19385c.19629.0044.39014.00684.5835.00684a25.59472,25.59472,0,0,0,13.938-4.19971,3.50022,3.50022,0,0,0-3.86035-5.83984Zm83.35986.00049a18.19148,18.19148,0,0,1-20.13281.00048,3.50021,3.50021,0,0,0-3.86328,5.83789,25.24782,25.24782,0,0,0,13.33593,4.19385q.29444.0066.584.00684a25.58489,25.58489,0,0,0,13.9375-4.2002,3.50008,3.50008,0,1,0-3.86133-5.83886Zm153.96582-46.63819a3.50037,3.50037,0,0,0-4.374,3.85547,25.79678,25.79678,0,0,1-29.78955,28.95526,8.34439,8.34439,0,0,0-1.09522-3.57391,8.43158,8.43158,0,0,0-1.23291-1.62543l6.48389-24.18884,4.62988-6.15253a12.74247,12.74247,0,0,0,.04981-15.166l-6.84864-9.22852a3.50193,3.50193,0,0,0-4.20117-1.126L414.792,148.126a12.74264,12.74264,0,0,0-7.541,13.16015l.93383,7.64807-6.48852,24.19385a8.38228,8.38228,0,0,0-5.77832,5.87341l-12.5459,46.82422a8.33568,8.33568,0,0,0,.83691,6.3628,8.42771,8.42771,0,0,0,1.22779,1.62036L371.63135,305.341c-.28223-.217-.56568-.43481-.84229-.64618-4.50586-3.44482-8.06445-6.16552-9.46484-11.71728-1.48731-5.92285.64648-10.47217,3.34668-16.23193,2.499-5.32715,5.33008-11.36524,5.90039-19.68409.06641-.95361.09863-1.91259.09863-2.93164,0-11.34759-4.6123-23.19995-13.71045-35.24377.06079-2.00153.19483-6.27106.38379-11.48554.36377-9.954.93067-23.41333,1.57764-31.45379l1.9668-14.41162a87.35553,87.35553,0,0,0-46.80762-89.57874V58.35986a27.23533,27.23533,0,0,0-23.61426-26.95593V27.19824A27.22916,27.22916,0,0,0,263.26758,0H248.73193a27.22874,27.22874,0,0,0-27.19775,27.19824v4.20569a27.23533,27.23533,0,0,0-23.61426,26.95593V72.00159a87.36055,87.36055,0,0,0-46.71777,89.53405l1.97705,14.41114c.61816,7.81982,1.15039,20.42871,1.41309,27.26806.00927.24183.01831.47956.02746.71906l-.00012.01092c.25732,6.73743.439,12.50617.51294,14.93787-9.8844,13.07733-14.46362,25.91589-13.6145,38.17688.5708,8.3208,3.40234,14.35889,5.90039,19.686,2.70117,5.75976,4.83447,10.30908,3.34716,16.23144-1.396,5.55322-4.95556,8.27393-9.4624,11.71777a51.52716,51.52716,0,0,0-10.00927,9.30811c-8.70166,11.11523-10.80494,27.63672-6.29725,49.11841l-.58508.17407A70.82984,70.82984,0,0,0,73.73,431.1499V508.5a3.5,3.5,0,0,0,7,0V484.97394a3.47845,3.47845,0,0,0,2.72266,1.32538h.10009a3.5,3.5,0,0,0,0-7h-.10009A3.47847,3.47847,0,0,0,80.73,480.62469V431.1499a64.22875,64.22875,0,0,1,45.67822-61.14551l63.14624-18.7871a171.66476,171.66476,0,0,0-2.95117,17.23516,11.19826,11.19826,0,0,0-8.46167,10.72821l-.00342.22266a11.09636,11.09636,0,0,0,3.23194,8.0166,11.35849,11.35849,0,0,0,4.06958,2.63983c.04248,5.15308.33227,10.33838.866,15.49134a11.26331,11.26331,0,0,0-3.69726,3.26873,11.08994,11.08994,0,0,0-1.96875,8.34034l.00635.04.00586.04052a11.37371,11.37371,0,0,0,9.27392,9.40479c1.18067,4.87286,2.59912,9.70978,4.23975,14.453a11.179,11.179,0,0,0-4.22168,13.13294l.05469.15039a11.30281,11.30281,0,0,0,12.92578,7.19543c2.12744,4.13477,4.4458,8.196,6.938,12.13971a11.219,11.219,0,0,0-2,15.2796l.17579.24121a11.30438,11.30438,0,0,0,15.24536,2.77845c2.41382,2.85339,4.93652,5.62365,7.6018,8.3656q-2.17712,3.02975-4.40234,6.02392a3.49991,3.49991,0,1,0,5.6084,4.18848,415.97692,415.97692,0,0,0,44.227-74.229,415.31983,415.31983,0,0,0,29.88476-91.11718c.23487.15387.481.28943.72071.43554.16772.1026.33423.20581.50439.30475.38648.22357.78028.43274,1.17774.63611.21484.11054.42724.22455.646.32922.373.17792.75391.33857,1.13575.4986.24365.10254.48291.21265.731.30792.41992.16107.84888.30011,1.27759.43921.2002.06513.39331.14453.596.2049l64.35571,19.14758a237.63244,237.63244,0,0,1,9.6853,85.97546,235.87522,235.87522,0,0,1-10.36328,53.918,3.49962,3.49962,0,1,0,6.67383,2.10938,241.83281,241.83281,0,0,0,1.97852-139.63025l.26855.07995a64.23413,64.23413,0,0,1,45.68945,61.14551V508.5a3.5,3.5,0,0,0,7,0V431.1499a70.84,70.84,0,0,0-50.69238-67.85449l-.49438-.14709q3.349-15.9733,1.821-28.23029l20.04639-74.80463a8.43184,8.43184,0,0,0,4.27-2.86255,25.92754,25.92754,0,0,1,16.95947,24.319,25.33944,25.33944,0,0,1-4.01831,13.7035c-.02393.03625-.04419.07452-.0669.11175-.42114.65381-.86743,1.29608-1.35131,1.91962a3.50008,3.50008,0,0,0,1.86035,5.52636,67.82123,67.82123,0,1,0,35.10156-131.022ZM417.57324,154.5498l7.999-3.46435,5.19433,6.99951a5.701,5.701,0,0,1-.02246,6.78565l-3.62451,4.8161-12.189-3.26563-.73046-5.98309A5.69971,5.69971,0,0,1,417.57324,154.5498Zm-3.3584,18.92627,9.99805,2.6792-5.439,20.28955-10.00049-2.67962ZM228.53418,27.19824A20.22089,20.22089,0,0,1,248.73193,7h14.53565a20.221,20.221,0,0,1,20.19824,20.19824v3.96192H228.53418ZM204.91992,58.35986a20.223,20.223,0,0,1,20.2002-20.1997h61.75976a20.22265,20.22265,0,0,1,20.2002,20.1997V68.75562a87.738,87.738,0,0,0-32.98047-6.4358H237.99023a87.73751,87.73751,0,0,0-33.07031,6.47242ZM177.18848,96.94092a80.65726,80.65726,0,0,1,60.80175-27.6211h36.10938a80.45615,80.45615,0,0,1,79.85254,91.26709l-1.97949,14.50977q-.01319.09522-.02051.19043c-.3086,3.80829-.59839,8.82422-.85742,14.11249a18.09929,18.09929,0,0,0-11.87207-4.38056h-3.12305V180.6665a42.718,42.718,0,0,0-17.90723-34.71875,53.32765,53.32765,0,0,0-47.62011-7.14355,46.44979,46.44979,0,0,1-29.13916,0,53.32716,53.32716,0,0,0-47.61963,7.14355,42.71715,42.71715,0,0,0-17.90772,34.71875V185.019h-3.03662a18.09724,18.09724,0,0,0-11.86768,4.377c-.25122-5.12891-.53991-10.176-.85253-14.10358-.00489-.06641-.01221-.13232-.021-.19824L158.1377,160.585A80.23779,80.23779,0,0,1,177.18848,96.94092Zm173.146,110.59137c-.24682,6.77655-.39673,11.82538-.41162,12.32629A11.2578,11.2578,0,0,1,338.7002,230.1582h-2.60059V192.019h3.12305a11.24788,11.24788,0,0,1,11.25488,11.65967Q350.40137,205.67566,350.33447,207.53229Zm.105,30.85052c0,5.52149-4.499,7.12647-7.15722,7.2041-3.10035.09089-6.83033-1.52148-7.18262-6.3341V237.1582h2.60059a18.18074,18.18074,0,0,0,11.58789-4.14557ZM218.15918,276.83057c10.73144,6.87451,26.11377,7.64892,36.57617,1.84033a2.62681,2.62681,0,0,1,2.5293,0,33.559,33.559,0,0,0,16.18555,3.88672,38.30441,38.30441,0,0,0,20.39062-5.72754,32.64168,32.64168,0,0,0,11.70361-13.338,35.462,35.462,0,0,0,23.30127-13.91639l-.03515,2.23389a75.516,75.516,0,0,1-32.8252,60.09143l-.02441.01679c-.34229.23388-.68067.47174-1.02735.70037l-35.35547,23.313a6.473,6.473,0,0,1-7.16064-.00293l-35.3706-23.33008c-.33179-.21875-.65577-.44659-.98316-.67016-.02515-.01734-.04956-.03443-.07519-.05121a75.52265,75.52265,0,0,1-32.82886-60.00323l-.0376-2.32862a35.47577,35.47577,0,0,0,23.333,13.9469A32.64207,32.64207,0,0,0,218.15918,276.83057Zm-7.80713-22.8501a24.50212,24.50212,0,0,0,6.05225,3.38769c10.0791,3.85938,19.88818-.27636,27.77-3.59668,4.00341-1.687,7.78466-3.28027,10.46093-3.31q1.36377-.01612,2.731,0c2.67481.02978,6.45606,1.623,10.459,3.31,7.88281,3.32129,17.6914,7.45264,27.76953,3.59717a24.52175,24.52175,0,0,0,6.05371-3.38818c-1.52735,5.71338-4.75977,12.58252-11.585,16.956-8.54981,5.478-21.18946,6.17286-29.40137,1.61377a9.67745,9.67745,0,0,0-9.32422.00049c-8.21,4.5586-20.8501,3.86475-29.40234-1.61426C215.10986,266.5625,211.87842,259.69385,210.35205,253.98047ZM325.18359,242.397a28.48786,28.48786,0,0,1-16.75219,13.30719c.25146-.94928.46582-1.87268.6438-2.75494v-.001a6.16505,6.16505,0,0,0-10.19629-5.76611,18.203,18.203,0,0,1-5.78614,3.64892c-7.45312,2.85157-15.47265-.52783-22.54882-3.51025-4.6543-1.96142-9.05079-3.814-13.09864-3.85937q-1.44653-.01685-2.88916,0c-4.04931.04541-8.4458,1.89843-13.1001,3.85937-7.07617,2.98193-15.09521,6.36279-22.54931,3.51025a18.19161,18.19161,0,0,1-5.78467-3.64892,6.16533,6.16533,0,0,0-10.19678,5.7666c.178.88214.39209,1.80542.64356,2.7547a28.45972,28.45972,0,0,1-16.70606-13.21222l-3.957-6.96368v-54.861A35.70293,35.70293,0,0,1,197.876,151.64893a46.30726,46.30726,0,0,1,41.34814-6.20215,53.51655,53.51655,0,0,0,33.55713,0,46.29883,46.29883,0,0,1,41.34863,6.20215,35.70247,35.70247,0,0,1,14.96973,29.01757v54.786ZM173.3916,230.1582A11.25892,11.25892,0,0,1,162.166,219.83649c-.02259-.76514-.2284-7.70606-.55115-16.16919A11.247,11.247,0,0,1,172.86914,192.019h3.03662V230.1582Zm2.51416,7v2.04847c-.33118,4.85125-4.08813,6.48748-7.18847,6.38024-2.64991-.07763-7.12793-1.67236-7.15723-7.15087l.1814-5.48053a18.15678,18.15678,0,0,0,11.65014,4.20269Zm-44.1853,123.96271c-3.92163-19.08307-2.21826-33.47382,5.08667-42.805a45.15666,45.15666,0,0,1,8.74658-8.05908c4.9209-3.76075,10.00879-7.64893,12.001-15.57422,2.09472-8.3418-.90137-14.73047-3.79834-20.90918-2.34717-5.0044-4.77344-10.1792-5.25489-17.19532-.53808-7.77032,1.574-15.93939,6.2616-24.38446l-.20105,6.07343c-.00146.03857-.00195.07715-.00195.11572,0,9.05518,7.019,13.99854,13.95215,14.20117q.21753.0066.43506.00635a14.77223,14.77223,0,0,0,7.19335-1.85412l.021,1.29748a82.55727,82.55727,0,0,0,34.4082,64.59534v6.92077a18.82787,18.82787,0,0,1-13.5581,18.14551Zm53.41675,18.38837.00341-.22266a4.21326,4.21326,0,0,1,4.28614-4.18115c.02392,0,.04809.00067.07226.001.042.00329.0835.00457.12549.0064a4.39749,4.39749,0,0,1,3.04053,1.30024,4.14674,4.14674,0,0,1,1.21435,2.99267l-.00341.22461a4.32507,4.32507,0,0,1-4.36719,4.17871v.03205c-.02173-.00373-.04443-.004-.06641-.00733l-.00049-.02521a4.40114,4.40114,0,0,1-3.09033-1.30664A4.1476,4.1476,0,0,1,185.13721,379.50928Zm10.27343,38.54736a4.3906,4.3906,0,0,1-7.83691-1.86182c-.00439-.02783-.00879-.05566-.01367-.08349-.00391-.02783-.0083-.05615-.01318-.084a4.14,4.14,0,0,1,.73828-3.11132,4.39124,4.39124,0,0,1,7.86035,1.77441l.041.26611A4.13422,4.13422,0,0,1,195.41064,418.05664Zm9.17823,34.2915a4.26591,4.26591,0,0,1-2.45313,2.21,4.40445,4.40445,0,0,1-1.478.25683,4.337,4.337,0,0,1-4.07861-2.81885l-.06494-.1792a4.14361,4.14361,0,0,1,.11963-3.20654,4.26568,4.26568,0,0,1,2.43408-2.231,4.41073,4.41073,0,0,1,1.51367-.26806,4.32187,4.32187,0,0,1,4.0625,2.7749l.09375.25488A4.14882,4.14882,0,0,1,204.58887,452.34814ZM221.418,483.209a4.19962,4.19962,0,0,1-1.69434,2.77442,4.42718,4.42718,0,0,1-2.60254.8501,4.2115,4.2115,0,0,1-3.43164-1.72657l-.15869-.21728a4.20593,4.20593,0,0,1-.74365-3.17188,4.24831,4.24831,0,0,1,1.75342-2.78418,4.35,4.35,0,0,1,1.21728-.60479c.022-.00611.04444-.009.06641-.01563A4.406,4.406,0,0,1,221.418,483.209Zm48.54687-49.78027a408.68786,408.68786,0,0,1-34.97656,61.13971c-2.5332-2.64813-4.9165-5.33618-7.21728-8.10437a11.42291,11.42291,0,0,0,.56152-2.16376,11.39738,11.39738,0,0,0-11.79785-13.14593c-2.71411-4.20862-5.22608-8.56323-7.50269-13.00672a11.27813,11.27813,0,0,0,1.88892-2.81512,11.1095,11.1095,0,0,0,.39014-8.59766l-.1045-.28369a11.34054,11.34054,0,0,0-10.31592-7.32434c-1.5393-4.41815-2.87915-8.922-4.00146-13.4624a11.26438,11.26438,0,0,0,4.148-3.44275,11.069,11.069,0,0,0,2.07568-8.27686c-.00586-.042-.05761-.376-.06006-.39111a11.32191,11.32191,0,0,0-9.85009-9.34772c-.457-4.59082-.71143-9.20471-.761-13.79351a11.31466,11.31466,0,0,0,8.43335-10.67664l.00342-.22461a11.0941,11.0941,0,0,0-3.2334-8.01709,11.37566,11.37566,0,0,0-4.04395-2.63055,164.4277,164.4277,0,0,1,3.69629-19.94995l1.71192-.50934c.43945-.131.86426-.29138,1.29272-.44446a88.06038,88.06038,0,0,0,9.52905,7.31891,12.56743,12.56743,0,0,0,2.26758,9.12359l.21143.291a12.562,12.562,0,0,0,10.23389,5.17725,12.84263,12.84263,0,0,0,7.55419-2.45118,12.71182,12.71182,0,0,0,1.74634-1.52984,84.1298,84.1298,0,0,0,10.97144,2.712,12.69334,12.69334,0,0,0,2.09277,4.64154l.209.2876a12.56093,12.56093,0,0,0,10.23437,5.17725,12.83714,12.83714,0,0,0,7.55322-2.45069,12.5339,12.5339,0,0,0,4.83106-7.07244,82.82647,82.82647,0,0,0,8.99756-1.65723c.04321.06256.07885.12866.12353.19061l.209.2876a12.56072,12.56072,0,0,0,10.23437,5.17773,12.78656,12.78656,0,0,0,5.22119-1.11712A407.78174,407.78174,0,0,1,269.96484,433.42871Zm-53.18652-77.36426a5.667,5.667,0,0,1,2.33789-3.71533,5.8571,5.8571,0,0,1,9.15137,5.687,5.61176,5.61176,0,0,1-2.26465,3.70655,5.88649,5.88649,0,0,1-3.459,1.12793,5.62208,5.62208,0,0,1-4.57862-2.30274l-.19385-.26709A5.61745,5.61745,0,0,1,216.77832,356.06445Zm32.80762,8.83741a5.66834,5.66834,0,0,1,2.33838-3.71485,5.85788,5.85788,0,0,1,9.15185,5.687,5.61172,5.61172,0,0,1-2.2666,3.70655,5.88279,5.88279,0,0,1-3.45752,1.12744,5.62291,5.62291,0,0,1-4.58105-2.30518l-.1919-.26367A5.624,5.624,0,0,1,249.58594,364.90186Zm43.43847-3.55225a5.61279,5.61279,0,0,1-2.2666,3.70654,5.87787,5.87787,0,0,1-3.457,1.12744,5.62272,5.62272,0,0,1-4.581-2.30566l-.19141-.26367a5.6659,5.6659,0,0,1,1.34473-7.95215,5.85775,5.85775,0,0,1,9.15136,5.6875Zm4.41114-8.69989a12.8397,12.8397,0,0,0-17.61231-2.69757,12.65025,12.65025,0,0,0-5.34961,10.92975c-2.28393.53241-4.59277.96014-6.91064,1.27813a12.66389,12.66389,0,0,0-1.87061-3.72888,12.84636,12.84636,0,0,0-17.81738-2.9541,12.61444,12.61444,0,0,0-4.62207,6.10248,77.0196,77.0196,0,0,1-8.166-1.99451c.02979-.15326.0708-.30249.09522-.45758a12.68637,12.68637,0,0,0-2.29785-9.53418,12.78683,12.78683,0,0,0-20.14868-.808c-2.22681-1.52924-4.1587-3.01508-5.79419-4.36279a26.08054,26.08054,0,0,0,10.62841-20.87269v-2.22094L248.55908,341.769a13.46047,13.46047,0,0,0,14.87744.00293l30.99317-20.43664v2.21447a25.88922,25.88922,0,0,0,5.72973,16.1485Q298.903,346.19791,297.43555,352.64972Zm82.93457,8.498-65.37989-19.45533c-.15234-.04529-.30029-.10193-.45117-.15106-.27881-.09051-.55737-.18182-.82959-.28387-.28613-.10816-.56762-.22718-.84765-.349-.114-.049-.22828-.09711-.34082-.14814a19.04213,19.04213,0,0,1-6.03955-4.377,3.50767,3.50767,0,0,0-.37842-.35065,18.83169,18.83169,0,0,1-4.67334-12.48285v-6.91528a82.55407,82.55407,0,0,0,34.37988-64.67016l.01953-1.24677a14.766,14.766,0,0,0,7.22363,1.87274c.14454,0,.29-.00195.43457-.00635,6.9336-.20263,13.95215-5.146,13.95118-14.29931l-.17456-6.21381c4.25146,7.61756,6.406,15.00543,6.406,22.059,0,.856-.02637,1.65674-.082,2.4502-.48047,7.01416-2.90723,12.189-5.25391,17.19336-2.89746,6.17871-5.89355,12.56738-3.79785,20.91308,1.998,7.92139,7.084,11.80909,12.001,15.56885a45.2063,45.2063,0,0,1,8.74609,8.06055C382.58545,327.65454,384.28955,342.05481,380.37012,361.14771Zm4.90576-39.69459a36.44585,36.44585,0,0,0-4.479-7.44873,37.68994,37.68994,0,0,0-3.26465-3.63806l14.35351-53.57806,10.001,2.6795Zm22.71045-69.03173a1.3881,1.3881,0,0,1-1.69629.979L391.11328,249.334h-.001a1.38384,1.38384,0,0,1-.97851-1.69677l12.5459-46.82422a1.38644,1.38644,0,0,1,1.33789-1.02637,1.36973,1.36973,0,0,1,.3584.04736l15.17773,4.0669a1.38583,1.38583,0,0,1,.97949,1.69629l-.21484.80212c-.00708.02472-.02.046-.02637.07092-.00561.02149-.00488.04291-.01.06446Zm27.02588,40.83374a32.26006,32.26006,0,0,0,2.17822-11.68531,32.94131,32.94131,0,0,0-21.49512-30.87158L426.20166,211.489a32.784,32.784,0,0,0,37.97314-27.20562,60.79674,60.79674,0,0,1-29.16259,108.97174Zm67.897-40.19068a60.91107,60.91107,0,0,1-56.7168,45.03217,67.74848,67.74848,0,0,0,30.11695-112.39319,60.68948,60.68948,0,0,1,26.59985,67.361ZM401.6377,478.873h-.11231a3.92634,3.92634,0,1,0,0,7.85266h.11231a3.92634,3.92634,0,1,0,0-7.85266Zm-84.04395,9.29986a11.91359,11.91359,0,1,0,11.93359,11.91358A11.93707,11.93707,0,0,0,317.59375,488.17285Zm0,16.82715a4.91362,4.91362,0,1,1,4.93359-4.91357A4.92891,4.92891,0,0,1,317.59375,505Zm19.73437-59.16406a11.91359,11.91359,0,1,0,11.9336,11.91357A11.93708,11.93708,0,0,0,337.32812,445.83594Zm0,16.82715a4.91362,4.91362,0,1,1,4.9336-4.91358A4.92892,4.92892,0,0,1,337.32812,462.66309Zm-8.68652-71.481A11.91359,11.91359,0,1,0,316.708,379.26855,11.93708,11.93708,0,0,0,328.6416,391.18213Zm0-16.82715a4.91362,4.91362,0,1,1-4.93359,4.91357A4.92892,4.92892,0,0,1,328.6416,374.355Zm29.68652,46.30811a11.91359,11.91359,0,1,0-11.93359-11.91358A11.93708,11.93708,0,0,0,358.32812,420.66309Zm0-16.82715a4.91362,4.91362,0,1,1-4.93359,4.91357A4.92891,4.92891,0,0,1,358.32812,403.83594Z"/></svg>