<svg xmlns="http://www.w3.org/2000/svg" data-name="Layer 1" viewBox="0 0 512 512"><path d="M174.74878,480.954a3.5,3.5,0,1,0,3.5-3.5A3.5001,3.5001,0,0,0,174.74878,480.954ZM485.96069,200.64874a11.76735,11.76735,0,0,0,1.12525-2.72833,11.71436,11.71436,0,0,0-6.27246-13.6098l-.61914-7.61676A18.0381,18.0381,0,0,0,447.376,167.8999l-4.34693,6.29145a11.677,11.677,0,0,0-12.623,11.56933,70.94139,70.94139,0,0,0-56.91675,51.33356A69.97868,69.97868,0,0,0,397.061,309.96039a11.6756,11.6756,0,0,0,2.82739,14.52191l-4.50708,22.51886c-.064-.02863-.126-.06012-.18994-.08856l-15.189-6.74677-.03491-.0155-12.93823-5.747a14.11192,14.11192,0,0,0-13.4668,1.06885c-.26611.17291-.50537.374-.75708.56225L309.9563,319.28467a38.83568,38.83568,0,0,0,6.39429-24.36084c-.06372-.92517-.16993-1.8382-.29712-2.74451A21.74216,21.74216,0,0,0,339.978,256.18976a16.80829,16.80829,0,0,0,6.10693-11.53107c.00684-.07275.01074-.14551.01367-.21826,0-.00635.17969-6.25977.47852-14.14355a16.94158,16.94158,0,0,0-5.41187-13.03992c.45-.47907.917-.945,1.35791-1.43061a24.30034,24.30034,0,0,0,11.39673,2.85871,24.646,24.646,0,0,0,6.38086-.84522,24.49967,24.49967,0,0,0,6.73316-44.38592,115.875,115.875,0,0,0,3.01245-11.35761,24.499,24.499,0,0,0-.02881-48.96344,115.521,115.521,0,0,0-3.03687-11.32324A24.49647,24.49647,0,0,0,342.45,59.43536q-3.92762-4.33932-8.27222-8.27258a24.47968,24.47968,0,0,0-42.34252-24.52191,115.61807,115.61807,0,0,0-11.35816-3.048,24.49362,24.49362,0,0,0-48.9541,0,115.56755,115.56755,0,0,0-11.35767,3.04786A24.48048,24.48048,0,0,0,177.82251,51.1626q-4.33923,3.9278-8.27222,8.27258a24.49632,24.49632,0,0,0-24.53076,42.37354,115.607,115.607,0,0,0-3.03711,11.32415,24.499,24.499,0,0,0-.02856,48.96344,115.858,115.858,0,0,0,3.012,11.35675,24.492,24.492,0,0,0,24.51074,42.37311c.417.45923.85913.89948,1.28418,1.35285a16.63655,16.63655,0,0,0-5.33886,12.84149c.28613,7.66064.47265,13.83838.48828,14.38428a4.12636,4.12636,0,0,0,.03613.4956,16.71235,16.71235,0,0,0,6.02685,11.33252A21.753,21.753,0,0,0,186,294.60986a21.4772,21.4772,0,0,0,9.94482-2.41974c-.12622.90217-.23193,1.811-.29541,2.73176a38.83938,38.83938,0,0,0,6.39405,24.363l-75.147,29.37531A63.10685,63.10685,0,0,0,86.51953,407.7998v61.659a15.3624,15.3624,0,0,0,0,25.77771V508.5a3.5,3.5,0,0,0,7,0V497.67072c.45874.04132.92114.07049,1.39063.07049h57.002c.47168,0,.93652-.02905,1.39746-.0708V508.5a3.5,3.5,0,0,0,7,0V495.23236a15.49114,15.49114,0,0,0,3.19214-2.78564c8.99756,10.74786,22.83569,17.87176,38.04809,19.3565.11524.01123.23047.01709.34375.01709a3.50022,3.50022,0,0,0,.33594-6.98388c-14.53491-1.41858-27.58105-8.61432-35.25195-19.3332a15.35311,15.35311,0,0,0-6.77442-16.105c-1.86962-10.92511,1.1272-21.10485,4.06446-27.83868a3.5,3.5,0,0,0-6.416-2.79883c-3.00854,6.8971-6.06616,17.02851-5.02466,28.23975-.30444-.018-.606-.04639-.91479-.04639h-57.002c-.46949,0-.93189.02918-1.39063.0705V407.7998a56.1493,56.1493,0,0,1,35.92481-52.62011l38.76464-15.153A201.96712,201.96712,0,0,0,201.2998,379.6886v77.6112a54.7002,54.7002,0,0,0,109.4004,0V380.58612c.958-.88312,1.90283-1.765,2.80468-2.632a187.99726,187.99726,0,0,0,30.3479-37.90338l4.42115,1.72827a14.14807,14.14807,0,0,0-1.15479,5.56671V482.26929c-7.2876,12.57245-21.16943,20.99243-37.34766,22.56714a3.50018,3.50018,0,0,0,.335,6.98388q.16992,0,.34277-.01709c14.66211-1.42676,27.7041-7.87469,36.66992-17.75891V508.5a3.5,3.5,0,0,0,7,0V347.3457a7.16167,7.16167,0,0,1,10.06836-6.54492l10.93262,4.85614V508.5a3.5,3.5,0,0,0,7,0V348.76624l10.22949,4.54382a56.54764,56.54764,0,0,1,33.56445,51.63525V508.5a3.5,3.5,0,0,0,7,0V404.94531a63.35571,63.35571,0,0,0-4.90381-24.4433l15.02344-44.45739a11.65965,11.65965,0,0,0,9.70606-11.16083,69.97234,69.97234,0,0,0,56.8413-51.32764A70.914,70.914,0,0,0,485.96069,200.64874Zm-99.35034-63.03888A17.52139,17.52139,0,0,1,371.333,154.96277a118.507,118.507,0,0,0,1.27734-17.35291,117.02627,117.02627,0,0,0-1.2915-17.34491A17.51513,17.51513,0,0,1,386.61035,137.60986ZM140.667,154.96277a17.48834,17.48834,0,0,1,.01416-34.69782,117.02627,117.02627,0,0,0-1.2915,17.34491A118.507,118.507,0,0,0,140.667,154.96277ZM94.91016,473.9541h57.002a8.39356,8.39356,0,0,1,0,16.78711h-57.002a8.39356,8.39356,0,1,1,0-16.78711ZM201.2998,369.99963a194.95014,194.95014,0,0,1-26.44311-32.57153l13.32886-5.2102a77.71877,77.71877,0,0,0,13.11425,16.95959Zm0-31.11828a70.74326,70.74326,0,0,1-6.50659-9.24634l6.50659-2.54346ZM340.75,272.85986a14.73359,14.73359,0,0,1-21.97314,12.8487A70.93207,70.93207,0,0,0,327.08032,260h2.2a17.16261,17.16261,0,0,0,3.324-.32764A14.6875,14.6875,0,0,1,340.75,272.85986ZM183.89258,173.95215a64.893,64.893,0,0,1,33.78271-65.03577,17.44807,17.44807,0,0,0,16.78858,12.80383h43.07226a17.44807,17.44807,0,0,0,16.78858-12.80383,64.893,64.893,0,0,1,33.78271,65.03577l-5.00928,39.72473a43.51847,43.51847,0,0,0-13.71826-16.20667c-.1123-.08447-.22754-.166-.34375-.24707l-.21093-.15087a51.56026,51.56026,0,0,0-37.002-9.18116L256,190.01855l-15.82227-2.12744a51.56,51.56,0,0,0-37.00195,9.18067l-.49023.3501a43.71024,43.71024,0,0,0-13.78223,16.26245Zm.4873,59.10046V253H182.5a9.63692,9.63692,0,0,1-9.59375-8.852c-.02441-.79541-.209-6.8833-.48926-14.39649a9.61329,9.61329,0,0,1,3.29248-7.59332q3.86023,3.65882,8.08985,7.0036l.398,3.15613A3.48625,3.48625,0,0,0,184.37988,233.05261ZM231.4707,87.04639l.043.07934a17.46555,17.46555,0,0,0-14.21484,14.15186,70.88368,70.88368,0,0,0-31.60254,29.32251,72.3725,72.3725,0,0,0-4.27612,8.928c-.01636-.639-.03052-1.27826-.03052-1.91828a75.19,75.19,0,0,1,46.87622-69.24945A29.4397,29.4397,0,0,0,231.4707,87.04639Zm43.27637,6.81006.00391.00048.00732-.00048h2.77783a10.43188,10.43188,0,0,1,0,20.86376H234.46387a10.43188,10.43188,0,0,1,0-20.86376ZM237.625,62.22852a22.392,22.392,0,0,1,6.249-7.25879L256,45.83057l12.126,9.13916a22.54236,22.54236,0,0,1,6.249,28.74072l-1.70508,3.146H239.33008l-1.70508-3.146A22.46486,22.46486,0,0,1,237.625,62.22852Zm46.10913,6.13183a75.19051,75.19051,0,0,1,46.87622,69.24951c0,.64-.01416,1.27924-.03052,1.91828a72.3725,72.3725,0,0,0-4.27612-8.928,70.88457,70.88457,0,0,0-31.60229-29.32245,17.46582,17.46582,0,0,0-14.21509-14.15192l.043-.07934A29.44014,29.44014,0,0,0,283.73413,68.36035Zm52.47974,153.87183a9.90857,9.90857,0,0,1,3.36914,7.79516c-.27735,7.29541-.45215,13.19873-.47852,14.09424A9.82871,9.82871,0,0,1,329.28027,253h-1.69336c.01441-.5896.03321-1.17853.03321-1.77V233.62177c.0122-.06556.03442-.12659.043-.19355l.53808-4.26678Q332.38806,225.85438,336.21387,222.23218Zm32.90527-19.31177a17.47088,17.47088,0,0,1-21.89453,7.3902,115.28216,115.28216,0,0,0,17.37744-30.01435A17.52184,17.52184,0,0,1,369.11914,202.92041ZM358.48926,64.15186a17.49054,17.49054,0,0,1,6.05395,30.83258,116.6653,116.6653,0,0,0-17.405-30.03046A17.35489,17.35489,0,0,1,358.48926,64.15186ZM308.02734,22.752a17.48878,17.48878,0,0,1,20.63111,23.72193,116.66378,116.66378,0,0,0-30.0188-17.40131A17.35355,17.35355,0,0,1,308.02734,22.752ZM256,7a17.51538,17.51538,0,0,1,17.345,15.29138,117.12883,117.12883,0,0,0-34.68994,0A17.51538,17.51538,0,0,1,256,7ZM190.69043,24.50146a17.4681,17.4681,0,0,1,22.6709,4.57068,116.66168,116.66168,0,0,0-30.019,17.40131A17.5227,17.5227,0,0,1,190.69043,24.50146ZM141.13574,85.58838a17.48562,17.48562,0,0,1,23.72608-20.63452,116.66285,116.66285,0,0,0-17.4043,30.02887A17.37109,17.37109,0,0,1,141.13574,85.58838Zm12.375,125.48974A17.492,17.492,0,0,1,147.397,180.294a115.29168,115.29168,0,0,0,17.37793,30.01605A17.35958,17.35958,0,0,1,153.51074,211.07812Zm-.84033-36.69128a3.48205,3.48205,0,0,0-.24756-.77405c-.01074-.02313-.0271-.04156-.03808-.06433a109.61034,109.61034,0,1,1,207.231-.00043c-.01147.02289-.02783.04151-.03857.06476a3.48917,3.48917,0,0,0-.24756.7732,108.40722,108.40722,0,0,1-19.85718,34.31317,3.49489,3.49489,0,0,0-.50659.56061c-.02686.03741-.04224.079-.06738.11706a110.83574,110.83574,0,0,1-9.40332,9.524l5.55761-44.0727a71.78922,71.78922,0,0,0,.093-17.31854,81.65506,81.65506,0,0,0-54.0813-97.54992c-.17529-.35621-.345-.71418-.53515-1.06513a29.32691,29.32691,0,0,0-8.19043-9.51465l-14.23242-10.727a3.49812,3.49812,0,0,0-4.2129,0l-14.23242,10.727a29.33359,29.33359,0,0,0-8.19043,9.51367c-.19043.35132-.36035.70972-.53564,1.06629a82.4126,82.4126,0,0,0-40.09815,28.56457,81.49639,81.49639,0,0,0-13.98266,68.98517,71.78922,71.78922,0,0,0,.093,17.31854l5.55786,44.07233a110.87077,110.87077,0,0,1-9.40674-9.52911c-.02417-.03626-.03858-.07593-.06421-.11157a3.49744,3.49744,0,0,0-.50732-.561A108.42011,108.42011,0,0,1,152.67041,174.38684ZM186,287.60986a14.75428,14.75428,0,0,1-6.67334-27.911A16.82734,16.82734,0,0,0,182.5,260h2.21289a68.85628,68.85628,0,0,0,7.86987,26.04767A14.55226,14.55226,0,0,1,186,287.60986Zm12.61816-5.12872a62.10748,62.10748,0,0,1-7.23828-29.20135V232.98a36.7733,36.7733,0,0,1,15.374-29.86182l.49121-.35058a44.58027,44.58027,0,0,1,31.998-7.939l16.29,2.18994a3.47452,3.47452,0,0,0,.9336,0l16.291-2.18994a44.55091,44.55091,0,0,1,31.93262,7.89112c.1123.08447.22754.166.34375.24707l.21191.15136a36.76813,36.76813,0,0,1,15.334,28.54023v21.7124a64.15783,64.15783,0,0,1-7.5586,28.29071,39.16105,39.16105,0,0,0-55.26855-17.8949,3.47215,3.47215,0,0,1-3.50586,0,39.164,39.164,0,0,0-55.62891,18.71454ZM303.7002,457.2998a47.7002,47.7002,0,0,1-95.4004,0V326.57251a39.17434,39.17434,0,0,0,7,5.0968V457.2998a40.7002,40.7002,0,0,0,81.4004,0V331.66968a39.15279,39.15279,0,0,0,7-5.097ZM256.041,371.58057c.07714,0,.15527-.00049.23242-.00049a78.14712,78.14712,0,0,0,33.42676-7.68366v24.85212a182.88457,182.88457,0,0,1-33.66114,19.38574A194.60994,194.60994,0,0,1,222.2998,388.02V363.89514A78.18571,78.18571,0,0,0,256.041,371.58057ZM222.2998,356.04834v-21.253a39.00949,39.00949,0,0,0,31.9629-3.19476,3.43577,3.43577,0,0,1,3.47363,0,39.013,39.013,0,0,0,31.96387,3.19494V356.0498a71.14635,71.14635,0,0,1-33.45118,8.53028c-.07031,0-.13964.00049-.21093.00049A71.19547,71.19547,0,0,1,222.2998,356.04834Zm45.49512,71.21728A11.79492,11.79492,0,1,1,256,415.47119,11.808,11.808,0,0,1,267.79492,427.26562Zm-21.44531-16.09747a18.79521,18.79521,0,1,0,19.47827.10785,189.96506,189.96506,0,0,0,23.87232-13.95416v59.978a33.7002,33.7002,0,0,1-67.4004,0V396.65619A201.68741,201.68741,0,0,0,246.34961,411.16815Zm54.4541-91.5495a32.2372,32.2372,0,0,1-8.88379,6.72077,3.45418,3.45418,0,0,0-.51513.26062,32.27217,32.27217,0,0,1-30.16553-1.06,10.49961,10.49961,0,0,0-10.47949,0,32.2706,32.2706,0,0,1-30.16236,1.06116,3.4604,3.4604,0,0,0-.51831-.262,32.23336,32.23336,0,0,1-8.88379-6.721c-.30615-.32812-.59887-.665-.88965-1.00293l-.001-.00109a32.1461,32.1461,0,0,1,40.44238-48.785,10.53545,10.53545,0,0,0,10.50586-.00049,32.14828,32.14828,0,0,1,39.55078,49.79Zm9.89649,7.47278,6.50488,2.54273a70.82774,70.82774,0,0,1-6.50488,9.23809Zm0,43.78186V349.16785A77.814,77.814,0,0,0,323.813,332.21716l13.41968,5.24579A181.04515,181.04515,0,0,1,310.7002,370.87329ZM453.13477,171.87988a11.03843,11.03843,0,0,1,20.083,5.38086l.39942,4.91333-23.28394-6.239Zm-15.57715,12.76953a4.71942,4.71942,0,0,1,5.78418-3.34033l33.64258,9.01465a4.7242,4.7242,0,0,1-1.51758,9.27771c-.00684,0-.01368-.00189-.02051-.00183a4.73756,4.73756,0,0,1-.90625-.15137l-23.57227-6.31592-.02246-.006-10.04785-2.6922a4.72283,4.72283,0,0,1-3.33984-5.78467Zm14.82129,73.585c-5.83692,21.78857-13.63208,41.20941-20.6587,51.63073l-8.96044-2.40088c-.86451-12.537,2.10156-33.25079,7.9414-55.038,5.904-22.0285,13.75952-41.549,20.81836-51.8988l8.762,2.34771C461.23926,215.34546,458.28809,236.1806,452.37891,258.23438Zm-13.97559-61.25727c.22607.07538.44946.1565.68164.21869l5.3291,1.42786c-7.13379,11.40069-14.75122,30.63653-20.47461,51.99011-5.667,21.144-8.6936,41.503-8.27392,54.94958l-5.24073-1.40417c-.313-.08368-.6267-.144-.94018-.20105-8.65845-14.06195-10.39307-36.22583-4.4436-58.41174C411.0415,223.15564,423.74243,204.72626,438.40332,196.97711ZM380.251,238.90674a63.88907,63.88907,0,0,1,51.779-46.32129c-14.99878,9.44165-27.677,28.48621-33.75073,51.14795-6.07715,22.66192-4.5835,45.54907,3.72509,61.23077A63.03432,63.03432,0,0,1,380.251,238.90674Zm43.30957,132.89941a63.50357,63.50357,0,0,0-21.71338-21.44537l4.60205-22.99286,29.46069,7.89429Zm22.03418-46.08642a4.729,4.729,0,0,1-5.78418,3.34033L406.168,320.04541a4.72312,4.72312,0,0,1,2.44433-9.12451l33.64258,9.01416A4.7283,4.7283,0,0,1,445.59473,325.71973Zm-.56543-12.2356c-.3147-.114-.63282-.22253-.96192-.31079l-5.25146-1.4071c7.09619-11.43378,14.6604-30.5766,20.3247-51.72034,5.72657-21.37219,8.74219-41.83936,8.25049-55.26575l5.33643,1.42981c.21362.05713.42944.08331.644.1283,8.85449,14.03851,10.67383,36.34948,4.66748,58.76574C472.10156,287.27393,459.53979,305.62177,445.0293,313.48413Zm57.79-41.74a63.03073,63.03073,0,0,1-51.79786,46.33093c15.00928-9.44079,27.71607-28.52282,33.7793-51.15954,6.08179-22.69959,4.5835-45.54431-3.72632-61.22357A63.86392,63.86392,0,0,1,502.81934,271.74414ZM335.74878,480.954a3.5,3.5,0,1,0-3.5,3.5A3.49991,3.49991,0,0,0,335.74878,480.954ZM249.70215,178.6333a8.49889,8.49889,0,0,0,12.59473,0L277.63965,161.709a8.46868,8.46868,0,0,0,0-11.41748l-15.3418-16.9248a8.49889,8.49889,0,0,0-12.59473,0L234.36035,150.291a8.46868,8.46868,0,0,0,0,11.41748ZM239.5459,154.99268l15.34375-16.92481a1.49866,1.49866,0,0,1,2.22168,0l15.34277,16.92529a1.49357,1.49357,0,0,1,0,2.01368v.00048l-15.34375,16.92481a1.49866,1.49866,0,0,1-2.22168,0L239.5459,157.00684A1.49419,1.49419,0,0,1,239.5459,154.99268ZM275.21484,294.771a35.18189,35.18189,0,0,1-20.03418,5.80273,34.76323,34.76323,0,0,1-18.39355-5.80176,3.49979,3.49979,0,1,0-3.86914,5.833,41.755,41.755,0,0,0,22.09863,6.9668c.3252.00781.64746.01123.96875.01123a42.3367,42.3367,0,0,0,23.09473-6.97656,3.49973,3.49973,0,1,0-3.86524-5.83545Zm26.29493-118.51368a12.25147,12.25147,0,1,0-12.252-12.25146A12.26537,12.26537,0,0,0,301.50977,176.25732Zm0-17.50293a5.25147,5.25147,0,1,1-5.252,5.25147A5.2572,5.2572,0,0,1,301.50977,158.75439Zm-55.19629,75.83008,4.71875,3.39893a8.49127,8.49127,0,0,0,9.93457,0l4.7207-3.39942a8.52226,8.52226,0,0,0,3.53125-6.897V204.75244a3.5,3.5,0,1,0-7,0V227.687a1.5045,1.5045,0,0,1-.62207,1.2168l-4.7207,3.39892a1.49681,1.49681,0,0,1-1.75293,0l-4.71875-3.39843a1.50435,1.50435,0,0,1-.62305-1.21729V204.75244a3.5,3.5,0,1,0-7,0V227.687A8.52212,8.52212,0,0,0,246.31348,234.58447Zm-27.38575,10.68506a23.11253,23.11253,0,0,0,12.60938-3.80908,3.50007,3.50007,0,0,0-3.86719-5.835,15.97088,15.97088,0,0,1-9.1084,2.63965,15.81036,15.81036,0,0,1-8.36328-2.63868,3.49979,3.49979,0,1,0-3.86914,5.833,22.79722,22.79722,0,0,0,12.06738,3.80371C218.5752,245.26758,218.752,245.26953,218.92773,245.26953ZM256,80.54639A10.81836,10.81836,0,1,0,245.18164,69.728,10.83084,10.83084,0,0,0,256,80.54639Zm0-14.63672a3.81836,3.81836,0,1,1-3.81836,3.81836A3.82266,3.82266,0,0,1,256,65.90967Zm24.46191,175.5498a22.79723,22.79723,0,0,0,12.06739,3.80371q.26659.0066.53027.00635a23.11346,23.11346,0,0,0,12.61035-3.80908,3.50007,3.50007,0,0,0-3.86719-5.835,16.08773,16.08773,0,0,1-9.10937,2.63965,15.80655,15.80655,0,0,1-8.36231-2.63868,3.49979,3.49979,0,1,0-3.86914,5.833Zm-69.97168-65.20215a12.25147,12.25147,0,1,0-12.25195-12.25146A12.26559,12.26559,0,0,0,210.49023,176.25732Zm0-17.50293a5.25147,5.25147,0,1,1-5.25195,5.25147A5.258,5.258,0,0,1,210.49023,158.75439Z"/></svg>