<svg xmlns="http://www.w3.org/2000/svg" data-name="Layer 1" viewBox="0 0 512 512"><path d="M301.80273,235.62549a16.05028,16.05028,0,0,1-9.10937,2.63965,15.80655,15.80655,0,0,1-8.36231-2.63868,3.49979,3.49979,0,1,0-3.86914,5.833,22.79723,22.79723,0,0,0,12.06739,3.80371q.26659.0066.53027.00635a23.11346,23.11346,0,0,0,12.61035-3.80908,3.50007,3.50007,0,0,0-3.86719-5.835ZM423.7793,276.15723c7.40918-7.77344,15.80761-16.584,19.082-30.03125,3.36426-13.84961.41113-29.41455-8.78125-46.26563a9.76554,9.76554,0,0,0-16.49121-1.00488c-6.292,8.74219-13.373,14.15967-21.04688,16.10156-6.74511,1.707-12.1582.3252-18.42676-1.2749-6.85449-1.749-14.62207-3.73145-25.5166-2.1875-2.71045.38422-5.20166.87836-7.53125,1.44195q2.74365-3.22759,5.23535-6.6275a25.19862,25.19862,0,0,0,4.9336.50244,25.47049,25.47049,0,0,0,14.45508-4.48291,3.501,3.501,0,0,0,1.49707-2.59521,25.43789,25.43789,0,0,0-6.65918-19.24866,116.10836,116.10836,0,0,0,7.42285-30.45489,25.29706,25.29706,0,0,0,16.18945-13.56842,3.49605,3.49605,0,0,0,.001-3.001,25.1916,25.1916,0,0,0-16.94995-13.76837,117.10188,117.10188,0,0,0-8.31446-28.63617A25.44431,25.44431,0,0,0,371.18848,70.186a3.49729,3.49729,0,0,0-1.499-2.59522,25.32668,25.32668,0,0,0-22.81518-3.03918c-.17237-.21412-.33325-.43628-.50708-.6493A116.83954,116.83954,0,0,0,326.228,44.56311a25.22991,25.22991,0,0,0-2.85791-23.29163,3.50038,3.50038,0,0,0-2.59766-1.50048,25.2188,25.2188,0,0,0-21.81811,9.42913A115.36187,115.36187,0,0,0,282.552,24.07281c-.34424-.78491-.7102-1.56341-1.12329-2.32574a30.42934,30.42934,0,0,0-8.49316-9.86475L258.10645.70508a3.49812,3.49812,0,0,0-4.2129,0l-14.8291,11.17724a30.42934,30.42934,0,0,0-8.49316,9.86475c-.41309.76233-.77881,1.54083-1.12305,2.32581a115.36225,115.36225,0,0,0-16.4021,5.12719,25.2078,25.2078,0,0,0-21.8186-9.42907,3.50134,3.50134,0,0,0-2.59815,1.50048,25.231,25.231,0,0,0-2.85717,23.29163,116.84569,116.84569,0,0,0-20.13941,19.33923c-.17383.213-.33471.435-.507.64911a25.32123,25.32123,0,0,0-22.81579,3.03937,3.49879,3.49879,0,0,0-1.49854,2.59473,25.44191,25.44191,0,0,0,8.31055,20.8706,117.09931,117.09931,0,0,0-8.31421,28.63568,25.18936,25.18936,0,0,0-16.95044,13.76862,3.50117,3.50117,0,0,0,.001,3.001A25.2981,25.2981,0,0,0,140.04834,150.03a116.10916,116.10916,0,0,0,7.42261,30.45453,25.43823,25.43823,0,0,0-6.65943,19.24884,3.49807,3.49807,0,0,0,1.49707,2.59521,25.28022,25.28022,0,0,0,19.3888,3.98035q2.48839,3.3999,5.23572,6.628c-2.32984-.56378-4.82129-1.058-7.53223-1.44232-10.89356-1.543-18.66309.439-25.51563,2.1875-6.26953,1.6001-11.6831,2.98193-18.42675,1.2749-7.67432-1.94189-14.75586-7.35937-21.04737-16.10107a9.76579,9.76579,0,0,0-16.49365,1.00781c-9.18994,16.84717-12.14355,32.41162-8.77832,46.26416C72.41309,259.57324,80.811,268.3833,88.2207,276.15674c7.52442,7.894,14.023,14.71142,14.64551,24.90478.52881,8.7417-3.42578,17.97266-11.75635,27.43994a9.75112,9.75112,0,0,0,6.36621,16.15137c3.499.34522,7.31055.56494,11.34815.56494,16.48633,0,36.72412-3.66113,54.67139-17.37695,11.79077-9.01355,21.64978-21.69513,28.32836-36.25336a69.414,69.414,0,0,0,10.60083,15.36945c-3.04248,7.47717-4.97094,15.25287-5.269,21.24152l-8.73022,3.41223-.00074.00018-.24145.09448L126.896,355.65967A63.10851,63.10851,0,0,0,86.52,414.7998v57.16626c-.00012.0116-.00342.02234-.00342.03394s.0033.02234.00342.03394v27.93212c-.00012.0116-.00342.02234-.00342.03394s.0033.02234.00342.03394V508.5a3.5,3.5,0,0,0,7,0v-3.66986l.01562.01117a12.21255,12.21255,0,0,0,15.21387.00049,5.29436,5.29436,0,0,1,7.04541.00049,12.2178,12.2178,0,0,0,15.21631-.00049,5.29685,5.29685,0,0,1,7.04785.001,12.22671,12.22671,0,0,0,15.22071,0l.02636-.0188V508.5a3.5,3.5,0,0,0,7,0V488.21643c8.66309,13.07593,23.791,21.88605,41.24121,23.58777q.1736.01685.34375.01709a3.50023,3.50023,0,0,0,.33594-6.98389c-17.99267-1.75488-33.11084-11.9834-39.45557-26.69433-5.93408-13.75879-2.46289-27.49268,1.49366-36.59131a3.49993,3.49993,0,1,0-6.41895-2.792c-2.81726,6.47821-6.43506,17.78173-4.75744,30.28625a13.38354,13.38354,0,0,0-3.893,2.11121,5.30183,5.30183,0,0,1-7.05273,0,12.22077,12.22077,0,0,0-15.21778.001,5.29436,5.29436,0,0,1-7.04541-.00049,12.2178,12.2178,0,0,0-15.21631.00049,5.28931,5.28931,0,0,1-7.041,0A13.213,13.213,0,0,0,93.52,468.99036V414.7998a56.15052,56.15052,0,0,1,35.92383-52.62011L166.033,347.87848a57.5321,57.5321,0,0,0,1.35766,9.01214,82.48145,82.48145,0,0,0,20.728,35.94727A18.52132,18.52132,0,0,1,193.46,405.8501v8.4497a55.97824,55.97824,0,0,0,40.4751,53.71088,24.41556,24.41556,0,1,0,29.57617.35687,55.987,55.987,0,0,0,41.729-54.06775v-.66992a18.73321,18.73321,0,0,1,9.11231-15.95849c2.00049-1.23011,3.93677-2.548,5.77832-3.932a39.4092,39.4092,0,0,1,8.22192,5.91663,214.0621,214.0621,0,0,1-10.21216,45.04467,215.49448,215.49448,0,0,1-33.32128,61.66016,3.50024,3.50024,0,0,0,5.541,4.27832,222.46423,222.46423,0,0,0,34.39844-63.65869,220.83123,220.83123,0,0,0,9.75391-40.42035A82.74565,82.74565,0,0,1,344.90918,425.771a6.4792,6.4792,0,0,0,5.8291,4.0913c.06738.002.13477.00293.20117.00293a6.50067,6.50067,0,0,0,5.8877-3.74218l5.14355-10.96973a3.50392,3.50392,0,0,1,3.77539-1.96094l13.18164,2.3169a6.49566,6.49566,0,0,0,7.58887-7.09668,70.25774,70.25774,0,0,0-7.15527-24.20362,72.73969,72.73969,0,0,0-33.78662-32.34393q.35193-1.89789.67138-3.8789l36.31055,14.19354a56.14982,56.14982,0,0,1,35.92383,52.62011v54.1897a13.22417,13.22417,0,0,0-4.10742,2.16773,5.30184,5.30184,0,0,1-7.05274,0,12.22076,12.22076,0,0,0-15.21777.001,5.295,5.295,0,0,1-7.0459-.00049,12.2171,12.2171,0,0,0-15.21582.00049,5.28932,5.28932,0,0,1-7.041,0,13.36457,13.36457,0,0,0-3.88867-2.11145c1.67749-12.50427-1.93994-23.80829-4.75683-30.2865a3.50018,3.50018,0,0,0-6.41992,2.791c3.957,9.09961,7.42773,22.834,1.49414,36.5918-6.34473,14.71093-21.4629,24.93994-39.45606,26.69433a3.50023,3.50023,0,0,0,.33594,6.98389c.11328,0,.22851-.00586.34375-.01709,17.44287-1.701,32.56592-10.50391,41.23047-23.57025V508.5a3.5,3.5,0,0,0,7,0v-3.68054l.03125.02234a12.212,12.212,0,0,0,15.21289,0,5.295,5.295,0,0,1,7.0459.00049,12.2171,12.2171,0,0,0,15.21582-.00049,5.29685,5.29685,0,0,1,7.04785.001,12.2267,12.2267,0,0,0,15.2207,0l.02344-.01672V508.5a3.5,3.5,0,0,0,7,0v-8.471c0-.01.00293-.0191.00293-.029s-.00293-.0191-.00293-.029v-27.9419c0-.01.00293-.0191.00293-.029s-.00293-.0191-.00293-.029V414.7998a63.10738,63.10738,0,0,0-40.376-59.13964L307.2666,325.2334a15.95047,15.95047,0,0,1-3.4043-1.82611,12.27093,12.27093,0,0,0,1.6504-4.51764,12.148,12.148,0,0,0-1.32789-7.69361,71.58386,71.58386,0,0,0,15.61207-20.43615c6.668,14.89886,16.66064,27.87243,28.708,37.08093,17.94824,13.7168,38.1836,17.37744,54.66992,17.37695,4.03614,0,7.85059-.21972,11.34766-.56445a9.752,9.752,0,0,0,6.36524-16.15527c-8.32813-9.46387-12.28223-18.69483-11.75489-27.43457C409.75586,290.86816,416.25488,284.05078,423.7793,276.15723ZM381.02051,134.958a18.30464,18.30464,0,0,1-8.51856,7.46936c.06446-1.60065.1084-3.2052.1084-4.81751q0-5.16567-.46338-10.28906A18.21187,18.21187,0,0,1,381.02051,134.958Zm-241.52185,7.46966A18.29744,18.29744,0,0,1,130.98,134.958a18.2102,18.2102,0,0,1,8.87354-7.63733q-.45594,5.11917-.46338,10.28918C139.39014,139.22229,139.4342,140.8269,139.49866,142.42767Zm-45.963,334.41364a12.21255,12.21255,0,0,0,15.21387.00049,5.29436,5.29436,0,0,1,7.04541.00049,12.2178,12.2178,0,0,0,15.21631-.00049,5.29685,5.29685,0,0,1,7.04785.001,12.22671,12.22671,0,0,0,15.22071,0l.02636-.0188v20.16468a13.21349,13.21349,0,0,0-4.11035,2.16858,5.30183,5.30183,0,0,1-7.05273,0,12.22077,12.22077,0,0,0-15.21778.001,5.29436,5.29436,0,0,1-7.04541-.00049,12.2178,12.2178,0,0,0-15.21631.00049,5.28931,5.28931,0,0,1-7.041,0A13.213,13.213,0,0,0,93.52,496.99036V476.83014ZM418.48047,496.9895a13.22417,13.22417,0,0,0-4.10742,2.16773,5.30184,5.30184,0,0,1-7.05274,0,12.22076,12.22076,0,0,0-15.21777.001,5.295,5.295,0,0,1-7.0459-.00049,12.2171,12.2171,0,0,0-15.21582.00049,5.28932,5.28932,0,0,1-7.041,0,13.18389,13.18389,0,0,0-4.11718-2.17193V476.81946l.03125.02234a12.212,12.212,0,0,0,15.21289,0,5.295,5.295,0,0,1,7.0459.00049,12.2171,12.2171,0,0,0,15.21582-.00049,5.29685,5.29685,0,0,1,7.04785.001,12.2267,12.2267,0,0,0,15.2207,0l.02344-.01672Zm-63.74634-297.202a115.05393,115.05393,0,0,0,6.61231-11.99225,18.4193,18.4193,0,0,1,2.92309,9.67444A18.47049,18.47049,0,0,1,354.73413,199.78754Zm9.5354-127.33783a18.44283,18.44283,0,0,1-4.55932,11.877,116.1905,116.1905,0,0,0-8.34961-13.79889A18.34192,18.34192,0,0,1,364.26953,72.44971ZM318.50977,26.68848a18.2429,18.2429,0,0,1,1.7373,13.64013,117.20617,117.20617,0,0,0-14.5625-8.18872A18.22664,18.22664,0,0,1,318.50977,26.68848Zm-37.08106,24.252a30.53,30.53,0,0,0,3.36817-19.08911,109.58982,109.58982,0,0,1,80.81347,105.75854q0,4.71644-.39306,9.35981l-.00342.04644a109.1714,109.1714,0,0,1-7.83472,32.45679,3.45218,3.45218,0,0,0-.40478.99432A108.17958,108.17958,0,0,1,346.23,199.94958a3.45707,3.45707,0,0,0-.55493.78486,110.04339,110.04339,0,0,1-16.18433,18.2008l5.562-44.1076a71.74174,71.74174,0,0,0,.07813-17.25672,81.55931,81.55931,0,0,0-38.84058-90.89923,18.03324,18.03324,0,0,0-15.00586-15.465ZM292.08545,80.704a18.06557,18.06557,0,0,0,3.51172-6.30194,74.57412,74.57412,0,0,1,35.01318,63.20782c0,.62561-.01416,1.25043-.02978,1.87513a71.28559,71.28559,0,0,0-27.36084-33.448,17.9542,17.9542,0,0,0-11.13428-25.333Zm-83.30518,25.33307a71.28775,71.28775,0,0,0-27.36035,33.44549c-.01562-.6239-.02978-1.24786-.02978-1.87268A74.574,74.574,0,0,1,216.40332,74.402a18.064,18.064,0,0,0,3.51147,6.30188,17.95425,17.95425,0,0,0-11.13452,25.33313Zm16.10352-19.04584h62.23242a11.01587,11.01587,0,0,1,0,22.03174H224.88379a11.01587,11.01587,0,0,1,0-22.03174Zm11.8418-61.9082a23.47281,23.47281,0,0,1,6.55175-7.61084L256,7.88281l12.72266,9.58936a23.63277,23.63277,0,0,1,6.55175,30.13232l-1.81836,3.355H238.54346l-1.81787-3.355A23.55275,23.55275,0,0,1,236.72559,25.083Zm-.27051,32.87646.00732.00049.00391-.00049h41.97217a11.01587,11.01587,0,1,1,0,22.03174H233.561a11.01587,11.01587,0,0,1,0-22.03174Zm-42.96485-31.271a18.22972,18.22972,0,0,1,12.82471,5.45178,117.2298,117.2298,0,0,0-14.562,8.18854A18.24519,18.24519,0,0,1,193.49023,26.68848ZM147.73,72.44971a18.33276,18.33276,0,0,1,12.90955-1.92206A116.21186,116.21186,0,0,0,152.28979,84.327,18.44212,18.44212,0,0,1,147.73,72.44971Zm.00049,125.02a18.42018,18.42018,0,0,1,2.92334-9.67481,115.0515,115.0515,0,0,0,6.61255,11.99262A18.47584,18.47584,0,0,1,147.73047,197.46973Zm18.59448,3.2644a3.45272,3.45272,0,0,0-.55456-.78412A108.17373,108.17373,0,0,1,155.027,180.46954a3.45315,3.45315,0,0,0-.40637-.99823,109.17749,109.17749,0,0,1-7.83436-32.459l-.00256-.036q-.38928-4.6441-.39355-9.3664A109.58895,109.58895,0,0,1,227.20337,31.85114a30.53178,30.53178,0,0,0,3.36792,19.0888l.14453.26666a18.03347,18.03347,0,0,0-15.00561,15.46454,81.56367,81.56367,0,0,0-38.84131,90.89942,71.736,71.736,0,0,0,.07837,17.25756l5.56213,44.10743A110.03786,110.03786,0,0,1,166.325,200.73413ZM159.24512,322.2793c-20.53076,15.68994-44.54883,17.0415-61.08252,15.40722a2.75166,2.75166,0,0,1-1.79492-4.56445c9.59277-10.90088,14.12988-21.83008,13.48584-32.48535-.77881-12.74756-8.80469-21.167-16.56592-29.30957-7.13672-7.48682-14.51612-15.229-17.34668-26.85352-2.94092-12.106-.2085-25.98681,8.12012-41.2539a2.76532,2.76532,0,0,1,4.668-.27539c7.28125,10.1167,15.69678,16.4414,25.01221,18.79882,8.46729,2.14209,14.98.48047,21.87451-1.27832,6.52881-1.6665,13.27979-3.38818,22.80323-2.03955,9.21484,1.30658,15.74011,3.82746,20.3496,6.55353,1.62879,1.43616,3.31092,2.82623,5.03028,4.1825l.58105,4.6073v26.51117a69.5236,69.5236,0,0,0,3.64746,22.25341C181.93481,298.63281,171.75366,312.71667,159.24512,322.2793Zm38.6792,13.13409a6.71843,6.71843,0,0,0,3.1289,3.81024,5.45529,5.45529,0,0,0,2.59864.65821c4.11938,0,9.27441-4.49164,17.73608-12.8844a113.95838,113.95838,0,0,0,2.218,14.60754c5.689,25.813,16.53466,42.50049,32.23535,49.59814,9.4292,4.26215,17.87768,4.31232,25.57446,3.17139a46.247,46.247,0,0,0-4.17554,19.25537v.66992a27.89014,27.89014,0,1,1-55.78027,0v-8.4497a46.44113,46.44113,0,0,0-13.3081-32.5874,53.59587,53.59587,0,0,1-13.7334-23.66846c-.23267-.85791-.7041-4.42029-1.10425-12.37891Zm6.12719-5.37909c-.02465-4.57757,1.53125-13.06567,5.5398-22.15973a3.46426,3.46426,0,0,0,.22192-.50152,71.64783,71.64783,0,0,1,3.44068-6.70069,63.76218,63.76218,0,0,1,11.65283-14.52588,120.55329,120.55329,0,0,0-3.959,31.39148c-6.29736,6.329-13.624,13.6186-16.61718,15.0802a8.02457,8.02457,0,0,1-.25318-1.73541A3.44838,3.44838,0,0,0,204.05151,330.0343Zm61.85279,157.556a17.40992,17.40992,0,1,1-17.40967-17.40967A17.42922,17.42922,0,0,1,265.9043,487.59033Zm44.77929-95.87988a25.6851,25.6851,0,0,0-12.44336,21.91943v.66992a48.89014,48.89014,0,1,1-97.78027,0v-8.4497a25.47731,25.47731,0,0,0-7.33447-17.90381,75.47865,75.47865,0,0,1-18.978-32.88378,59.97047,59.97047,0,0,1-1.31738-9.834l13.61865-5.32813c.25928,4.47461.6582,9.47656,1.2124,11.52246a60.50711,60.50711,0,0,0,15.4834,26.731A39.47618,39.47618,0,0,1,214.46,405.8501v8.4497a34.89014,34.89014,0,1,0,69.78027,0v-.66992a39.17273,39.17273,0,0,1,6.08667-21.00775c.30982-.07013.62256-.14026.92994-.21,7.13086-1.61945,13.92675-3.15045,20.937-1.66248C311.69482,391.07465,311.19287,391.39716,310.68359,391.71045Zm15.48218-51.57367,13.40576,5.2403-.00219.00866q-.28346,1.871-.60059,3.67377a82.34815,82.34815,0,0,0-8.33594-2.62347c-1.72314-.44159-3.4751-.79108-5.24414-1.07575Q325.80249,342.8696,326.16577,340.13678Zm-21.43042-8.377,14.7251,5.75592c-.00562.03582-.01953.06823-.02393.10443q-.45556,3.685-1.00781,6.92321c-2.87305-.23858-5.752-.38714-8.5918-.52819-16.65136-.82721-29.17138-1.464-31.63232-18.21527l5.41064,3.57659a12.33133,12.33133,0,0,0,13.91993-.249l1.16357-.83166A22.8478,22.8478,0,0,0,304.73535,331.75977ZM277.792,317.13586a120.4874,120.4874,0,0,1,3.3523-24.03765l16.49731,20.79144a5.2807,5.2807,0,0,1-1.19629,7.4126l-2.9834,2.13232a5.295,5.295,0,0,1-5.98242.10547Zm42.82813-83.80957-.09278.73572a3.48207,3.48207,0,0,0,.09278,1.32977V258.23a64.45629,64.45629,0,0,1-20.6399,47.34515l-16.52807-20.8305c-.03711-.04682-.08154-.08673-.1211-.13153.83057-2.965,1.68457-5.80158,2.5127-8.44806a3.49964,3.49964,0,1,0-6.67969-2.09082c-3.88672,12.41882-8.35254,28.737-8.4082,44.85821-.00049.01972-.00586.038-.00586.0578,0,.0163.00586.03156.00586.04786-.06055,30.03967,20.54907,31.06506,38.73437,31.96826,6.57227.32666,13.36915.66406,19.4043,2.21094,19.34766,4.958,35.87988,17.72851,44.22461,34.16113a63.18336,63.18336,0,0,1,6.36133,21.1206L366.957,406.29785a10.52875,10.52875,0,0,0-11.32422,5.8833l-4.65332,9.92334q-6.75879-16.58734-16.53442-26.29822c-.06079-.058-.116-.1206-.18067-.17419a46.10285,46.10285,0,0,0-12.85107-9.079c-.02222-.01215-.04517-.02191-.06763-.03363-.91064-.42346-1.83154-.82068-2.76855-1.17712-10.39063-3.95167-19.78418-1.81836-28.87012.24365-10.0293,2.27734-19.50293,4.42773-30.98242-.76172-13.5791-6.13867-23.09473-21.18652-28.28272-44.72608a112.48712,112.48712,0,0,1,7.127-69.05175,3.49994,3.49994,0,0,0-6.40528-2.82325c-.84912,1.92615-1.62646,3.879-2.37109,5.84284a72.71444,72.71444,0,0,0-21.58643,23.08148c-.53857.92377-1.05542,1.87695-1.56054,2.84345a62.0722,62.0722,0,0,1-14.26563-39.71112V235.39307a3.47909,3.47909,0,0,0,.09278-1.33106l-.09278-.73566v-.33612a36.78308,36.78308,0,0,1,15.376-29.873l.48926-.34961a44.599,44.599,0,0,1,31.99853-7.939l16.29,2.18994a3.46726,3.46726,0,0,0,.93262,0l16.2915-2.18994a44.55207,44.55207,0,0,1,31.93262,7.89112c.1123.08447.22754.166.34375.24707l.21191.15136a36.7827,36.7827,0,0,1,15.374,29.87207Zm-11.24024-35.85608c-.1123-.08447-.22754-.166-.34375-.24707l-.21093-.15087a51.56026,51.56026,0,0,0-37.002-9.18116L256,190.01855l-15.82275-2.12744a51.56544,51.56544,0,0,0-37.00293,9.18164l-.48828.34913A43.70259,43.70259,0,0,0,188.90332,213.687l-5.01074-39.73437a64.71152,64.71152,0,0,1-.01367-16.06775c.00341-.02185.00463-.04383.00756-.06574a64.32279,64.32279,0,0,1,29.19385-46.23394,17.92074,17.92074,0,0,0,11.80347,4.43774h62.23242a17.92093,17.92093,0,0,0,11.80347-4.43781,64.32415,64.32415,0,0,1,29.19458,46.24372c.0022.01678.00317.03363.00561.05035a64.71119,64.71119,0,0,1-.01245,16.07294l-5.00976,39.727A43.511,43.511,0,0,0,309.37988,197.47021Zm106.249,135.64844a2.75173,2.75173,0,0,1-1.793,4.56836c-16.53418,1.63037-40.55176.28125-61.08106-15.40771-12.56982-9.6081-23.11474-24.34522-29.08545-40.564A71.66229,71.66229,0,0,0,327.62012,258.23V233.76862l.58105-4.60688c1.72022-1.35705,3.40332-2.748,5.03321-4.18506,4.60937-2.72522,11.13378-5.24511,20.34667-6.55139,9.52442-1.34912,16.27442.374,22.80274,2.03955,6.89551,1.75879,13.40918,3.4209,21.875,1.27832,9.31543-2.35742,17.73047-8.68212,25.01172-18.79931a2.76646,2.76646,0,0,1,4.667.27246c8.33008,15.271,11.0625,29.15185,8.12207,41.25537-2.83105,11.62646-10.21094,19.36865-17.34766,26.85547-7.76074,8.14258-15.78711,16.562-16.56543,29.312C401.502,311.29248,406.04,322.22119,415.62891,333.11865Zm-7.69922-72.06592c7.32324-7.68261,11.89648-12.86962,13.65722-20.10546a27.83976,27.83976,0,0,0,.64942-8.55811,3.5,3.5,0,0,0-5.37207-2.7041,51.16581,51.16581,0,0,1-14.95313,6.49805,46.7984,46.7984,0,0,1-11.61523,1.45654c-6.834,0-12.79785-1.52051-17.59278-2.74365-4.335-1.10547-8.0791-2.06055-12.41015-2.06055a32.68686,32.68686,0,0,0-4.626.33838c-12.49316,1.77-17.23535,5.96875-18.69531,7.69238-3.01172,3.55811-4.25586,10.7876-3.32715,19.33789,2.03223,18.74268,13.34473,38.93457,28.14844,50.24414a61.16865,61.16865,0,0,0,23.33008,10.86133,3.50108,3.50108,0,0,0,4.1582-4.40088,49.76712,49.76712,0,0,1-1.998-17.17773C388.38965,281.55615,399.68262,269.70654,407.92969,261.05273Zm-27.63281,38.25391a56.14632,56.14632,0,0,0,.833,13.582,52.90384,52.90384,0,0,1-15.08691-8.00293c-13.377-10.21924-23.60059-28.479-25.43945-45.437-.9502-8.75293.91308-13.11719,1.71093-14.05957.32032-.37842,3.44532-3.74219,14.335-5.28467a25.73107,25.73107,0,0,1,3.64356-.269c3.45215,0,6.48437.77344,10.68457,1.84473,5.1709,1.31836,11.60547,2.95947,19.31836,2.95947a53.69337,53.69337,0,0,0,13.33105-1.67041,57.35512,57.35512,0,0,0,11.26758-4.15479q-.05127.24024-.1084.47657c-1.376,5.65283-5.42675,10.11669-11.9248,16.93408C393.87012,265.65869,381.55762,278.57861,380.29688,299.30664ZM335.74878,480.954a3.5,3.5,0,1,0-3.5,3.5A3.49991,3.49991,0,0,0,335.74878,480.954Zm-161,0a3.5,3.5,0,1,0,3.5-3.5A3.5001,3.5001,0,0,0,174.74878,480.954ZM156.33057,233.17334a32.668,32.668,0,0,0-4.624-.33789c-4.33056,0-8.0747.95508-12.41064,2.06055-4.792,1.22216-10.75537,2.74316-17.59033,2.74365h-.00537a46.7491,46.7491,0,0,1-11.61182-1.457,51.12829,51.12829,0,0,1-14.95264-6.49756,3.50005,3.50005,0,0,0-5.37207,2.70312,27.84977,27.84977,0,0,0,.64844,8.55762c1.76074,7.23486,6.334,12.42236,13.65723,20.10693,8.24707,8.65186,19.541,20.50147,20.64648,38.67823a49.72077,49.72077,0,0,1-1.99707,17.17773,3.50052,3.50052,0,0,0,4.15723,4.40088A61.16275,61.16275,0,0,0,150.207,310.44824c14.8042-11.30908,26.11621-31.501,28.14893-50.24414.92724-8.55029-.3169-15.77978-3.32813-19.33838C173.56934,239.14307,168.82861,234.94385,156.33057,233.17334Zm15.0664,26.27588c-1.83935,16.958-12.0625,35.21728-25.43945,45.43652a52.90008,52.90008,0,0,1-15.0874,8.00293,56.13318,56.13318,0,0,0,.833-13.58252c-1.26074-20.73-13.57519-33.6499-22.5664-43.083-6.49658-6.8164-10.54785-11.28125-11.92285-16.93212q-.05787-.23658-.10889-.47657a57.31787,57.31787,0,0,0,11.26709,4.1543,53.64693,53.64693,0,0,0,13.32764,1.6709h.00634c7.71338-.00049,14.14893-1.6416,19.31934-2.96045,4.19678-1.07031,7.22949-1.84375,10.68115-1.84375a25.79263,25.79263,0,0,1,3.64258.26855c10.89307,1.54346,14.01514,4.90577,14.335,5.28418C170.48242,246.33105,172.34619,250.6958,171.397,259.44922ZM256,44.09131a11.12525,11.12525,0,1,0-11.125-11.12549A11.13747,11.13747,0,0,0,256,44.09131Zm0-15.25049a4.12525,4.12525,0,1,1-4.125,4.125A4.12983,4.12983,0,0,1,256,28.84082Zm-42,124.665a10.5,10.5,0,1,0,10.5,10.5A10.51211,10.51211,0,0,0,214,153.50586Zm0,14a3.5,3.5,0,1,1,3.5-3.5A3.50424,3.50424,0,0,1,214,167.50586Zm13.66992,68.11963a15.75419,15.75419,0,0,1-17.4707.001,3.50007,3.50007,0,0,0-3.87012,5.833,22.79259,22.79259,0,0,0,12.06738,3.80371c.17823.0044.3545.00635.53028.00635a23.11052,23.11052,0,0,0,12.61035-3.80908,3.50007,3.50007,0,1,0-3.86719-5.835ZM298,153.50586a10.5,10.5,0,1,0,10.5,10.5A10.5118,10.5118,0,0,0,298,153.50586Zm0,14a3.5,3.5,0,1,1,3.5-3.5A3.50424,3.50424,0,0,1,298,167.50586Zm-40.00977-41.251a3.50108,3.50108,0,0,0-3.98,0,30.79421,30.79421,0,0,0,0,50.7168,3.50076,3.50076,0,0,0,3.98,0,30.79548,30.79548,0,0,0,0-50.7168ZM256,169.67773a23.78387,23.78387,0,0,1,0-36.1289,23.78478,23.78478,0,0,1,0,36.1289Z"/></svg>