<svg xmlns="http://www.w3.org/2000/svg" data-name="Layer 1" viewBox="0 0 512 512"><path d="M181.81543,78.70947a3.492,3.492,0,0,0,2.67383-1.23926l.06445-.07617a3.45739,3.45739,0,0,0-.44336-4.89453,3.54214,3.54214,0,0,0-4.96484.44922,3.5,3.5,0,0,0,2.66992,5.76074Zm119.69434,73.04492a12.25147,12.25147,0,1,0,12.252,12.25147A12.2656,12.2656,0,0,0,301.50977,151.75439Zm0,17.50293a5.25147,5.25147,0,1,1,5.252-5.25146A5.258,5.258,0,0,1,301.50977,169.25732ZM171.77441,89.50684a3.49717,3.49717,0,0,0-4.73535,1.4414c-.01855.03369-.082.15625-.09863.19092a3.49209,3.49209,0,0,0,3.13281,5.01465,3.545,3.545,0,0,0,3.13184-1.89258l-3.07813-1.666,3.08789,1.647A3.4998,3.4998,0,0,0,171.77441,89.50684ZM256,237.74756a3.50017,3.50017,0,0,0,3.5-3.5V215.75244a3.5,3.5,0,1,0-7,0v18.49512A3.50017,3.50017,0,0,0,256,237.74756Zm-45.50977-85.99317a12.25147,12.25147,0,1,0,12.252,12.25147A12.26559,12.26559,0,0,0,210.49023,151.75439Zm0,17.50293a5.25147,5.25147,0,1,1,5.252-5.25146A5.258,5.258,0,0,1,210.49023,169.25732Zm51.80762-35.89062a8.49889,8.49889,0,0,0-12.59473,0L234.36035,150.291a8.46868,8.46868,0,0,0,0,11.41748l15.3418,16.9248a8.49889,8.49889,0,0,0,12.59473,0L277.63965,161.709a8.46868,8.46868,0,0,0,0-11.41748Zm10.15625,23.64014v.00048l-15.34375,16.92481a1.49866,1.49866,0,0,1-2.22168,0L239.5459,157.00684a1.49419,1.49419,0,0,1,0-2.01416l15.34375-16.92481a1.49866,1.49866,0,0,1,2.22168,0l15.34277,16.92529A1.49357,1.49357,0,0,1,272.4541,157.00684ZM256,80.54639A10.81836,10.81836,0,1,0,245.18164,69.728,10.83084,10.83084,0,0,0,256,80.54639Zm0-14.63672a3.81836,3.81836,0,1,1-3.81836,3.81836A3.82266,3.82266,0,0,1,256,65.90967ZM159.167,136.561a3.52412,3.52412,0,0,0,3.4961-3.34473l-3.49219-.229,3.49414.20557a3.50018,3.50018,0,0,0-6.98828-.41113l-.00879.2041a3.47661,3.47661,0,0,0,3.35742,3.57227C159.07324,136.56006,159.12012,136.561,159.167,136.561ZM504.53125,347.23682,487.157,244.38782l4.04614-3.78675a30.92252,30.92252,0,0,0,7.90528-33.32763,25.546,25.546,0,0,0-2.31421-4.6897c.09766-22.04614-9.3125-41.66687-25.3147-52.63989a52.92667,52.92667,0,0,0-17.00049-7.61609,3.42988,3.42988,0,0,0-.32568-.11047c-.08691-.02009-.17261-.01978-.25928-.03315a68.11061,68.11061,0,0,0-27.73486-.62506,3.50065,3.50065,0,0,0-1.94238,1.0791c-2.47266,2.70411-14.61426,17.16651-10.85254,36.39112.72265,3.709,3.957,16.41748,15.21972,24.23584,7.08887,4.9209,13.55664,5.23291,19.81153,5.53466.833.04029,1.68164.08259,2.5393.1344a15.49618,15.49618,0,0,0,2.90308,6.67322,1.24382,1.24382,0,0,1-.418,1.85254l-.93164.48633a16.925,16.925,0,0,0-9.05859,16.07617l.62988,9.85254.13086,87.20508a6.48246,6.48246,0,0,1-1.95605,4.666l-2.65674,2.59491A15.206,15.206,0,0,0,418.782,358.67334l-10.40552,10.171a62.83684,62.83684,0,0,0-21.24658-11.1485L356.544,348.57434a55.71086,55.71086,0,0,0,3.35034-26.85345c6.7749-6.31012,17.0354-18.61426,18.78833-36.39179l.084-.7749c1.63086-14.71631.22559-35.09375-15.72558-48.59619-11.093-9.38611-21.21363-11.19794-29.65943-11.13074a116.35263,116.35263,0,0,0,9.09619-9.02521,24.30291,24.30291,0,0,0,11.44214,2.883,24.646,24.646,0,0,0,6.38086-.84522,24.4987,24.4987,0,0,0,6.63281-44.44732,116.78148,116.78148,0,0,0,3.04859-11.29456,24.49866,24.49866,0,0,0,.0354-48.96509,115.521,115.521,0,0,0-3.03687-11.32324A24.49647,24.49647,0,0,0,342.45,59.43536q-3.92762-4.33932-8.27222-8.27258a24.47968,24.47968,0,0,0-42.34252-24.52191,115.61807,115.61807,0,0,0-11.35816-3.048,24.49362,24.49362,0,0,0-48.9541,0,115.56755,115.56755,0,0,0-11.35767,3.04786A24.48048,24.48048,0,0,0,177.82251,51.1626q-4.33923,3.9278-8.27222,8.27258a24.49632,24.49632,0,0,0-24.53076,42.37354,115.607,115.607,0,0,0-3.03711,11.32415,24.49866,24.49866,0,0,0,.0354,48.96509,116.76285,116.76285,0,0,0,3.04834,11.2937A24.49141,24.49141,0,0,0,169.522,215.80188a116.3858,116.3858,0,0,0,10.1958,9.99091c-12.00219,1.10278-22.35571,5.68188-30.30273,13.509-13.1709,12.97217-17.26758,32.17773-16.71,45.82519.72973,17.85364,12.52,30.8935,18.803,36.61066a55.41349,55.41349,0,0,0,3.991,28.394l-29.43359,8.14527a63.08525,63.08525,0,0,0-21.94385,11.05548L93.21777,358.67346A15.20407,15.20407,0,0,0,72.42236,338.341l-2.65381-2.592a6.48678,6.48678,0,0,1-1.959-4.67187l-.02734-35.28046a3.51,3.51,0,0,0,.08105-.7337l.04-27.65088a3.47681,3.47681,0,0,0-.1438-.93976l-.01831-23.49725L67.741,242.972q.07983-6.07506.14575-12.14923l.01367-1.21337a3.57139,3.57139,0,0,0-.0166-.38233,91.845,91.845,0,0,0-3.50391-17.63135,91.86323,91.86323,0,0,0-5.66308-14.26758l-5.8667-15.86755c18.74341-1.38525,35.4458-7.26233,35.4458-17.28772,0-11.561-22.209-17.60986-44.14844-17.60986C22.209,146.563,0,152.61182,0,164.17285c0,9.8797,16.22095,15.72992,34.62988,17.22376V188.73a1.52846,1.52846,0,0,1-1.26074,1.4751,24.35044,24.35044,0,0,0-8.33691,3.26513C14.18262,200.31738,11.48047,214.32129,13.5625,224.436A31.52284,31.52284,0,0,0,25.14355,242.846a3.50493,3.50493,0,0,0-.10449.3811L7.46875,347.23633A33.50163,33.50163,0,0,0,17.084,376.773l15.89258,15.5357a15.177,15.177,0,0,0,5.9502,15.27192l-.001-.00049a15.112,15.112,0,0,0,8.94336,2.92969,15.41894,15.41894,0,0,0,2.38281-.186c.31861-.0498.62842-.12543.94043-.19421l28.32715,27.69336V508.5a3.5,3.5,0,0,0,7,0V419.48a56.66725,56.66725,0,0,1,41.41406-54.457l21.44825-5.93561V508.5a3.5,3.5,0,0,0,7,0V357.15015l2.39624-.66315c.20385.33978.39306.67987.60669,1.01935a61.46016,61.46016,0,0,0,17.99511,18.254V508.5a3.5,3.5,0,0,0,7,0V440.14648a83.35082,83.35082,0,0,0,28.89551,26.436l24.9978,13.82819-.41284.4555a8.46868,8.46868,0,0,0,0,11.41748l15.3418,16.92481a8.49889,8.49889,0,0,0,12.59473,0l15.34277-16.92432a8.46868,8.46868,0,0,0,0-11.41748l-.64331-.70966,24.54858-13.575a84.31873,84.31873,0,0,0,29.5752-27.5199V508.5a3.5,3.5,0,0,0,7,0V369.84a59.17187,59.17187,0,0,0,10.40136-12.33368c.53028-.84265,1.0254-1.68634,1.49585-2.53015l9.10083,2.71417V508.5a3.5,3.5,0,0,0,7,0V359.778l15.51075,4.62579a56.86182,56.86182,0,0,1,40.35156,54.146V508.5a3.5,3.5,0,0,0,7,0V437.82288l28.32715-27.69336c.312.06878.62182.14441.94043.19421a15.41894,15.41894,0,0,0,2.38281.186,15.20212,15.20212,0,0,0,14.89258-18.20112L494.916,376.77344A33.50251,33.50251,0,0,0,504.53125,347.23682ZM371.31885,120.265a17.48888,17.48888,0,0,1-.02124,34.70325,115.67326,115.67326,0,0,0,1.31274-17.35834A117.02627,117.02627,0,0,0,371.31885,120.265Zm-245.9292,17.34491a17.51513,17.51513,0,0,1,15.2915-17.34491,117.02627,117.02627,0,0,0-1.2915,17.34491,115.67326,115.67326,0,0,0,1.31274,17.35834A17.522,17.522,0,0,1,125.38965,137.60986ZM7,164.17285C7,160.57178,20.11133,153.563,44.14746,153.563s37.14844,7.00879,37.14844,10.60986-13.11231,10.60986-37.14844,10.60986S7,167.77393,7,164.17285Zm13.418,58.85156c-1.66211-8.07714.67285-18.78955,8.3457-23.63134A17.36074,17.36074,0,0,1,34.71,197.07568a8.5404,8.5404,0,0,0,6.91992-8.3457v-6.97687c.83887.0177,1.67823.0296,2.51758.0296.45117,0,.90234-.00653,1.35352-.01165l6.71582,18.163a3.79784,3.79784,0,0,0,.15234.35156,84.8063,84.8063,0,0,1,5.31152,13.34082,84.72579,84.72579,0,0,1,3.21778,16.09766l-.01172,1.01953q-.06885,6.09522-.14649,12.18946c0,.01049.00269.0202.00269.0307l-.00171.01715.01611,20.92627H28.645l2.89014-17.10889a35.90783,35.90783,0,0,0,5.55175,2.13379,3.50017,3.50017,0,1,0,1.94532-6.72461C29.415,239.42578,22.28223,232.07471,20.418,223.02441Zm7.0459,47.88282H60.76294l.01587,20.65088H23.97461Zm8.65625,114.68554L21.97656,371.7666a26.49839,26.49839,0,0,1-7.60547-23.36377l8.42017-49.84472H60.78442l.02515,32.522a13.61216,13.61216,0,0,0,4.06543,9.67383l2.314,2.25994Zm13.05176,17.81494a8.1589,8.1589,0,0,1-6.11915-1.48193l-.001-.00049a8.23148,8.23148,0,0,1-2.93653-9.30951c.02784-.06543.05225-.13092.07569-.19757a8.25393,8.25393,0,0,1,1.064-1.98755l31.79395-43.57275a8.1731,8.1731,0,0,1,5.375-3.27881,8.33312,8.33312,0,0,1,1.28808-.10058,8.22817,8.22817,0,0,1,6.62891,13.07763L54.54688,400.12891A8.17307,8.17307,0,0,1,49.17188,403.40771ZM79.51953,419.48v8.55389L57.81934,406.81909a15.32078,15.32078,0,0,0,2.38183-2.56421l28.98975-39.72949,9.63476,9.41852A63.5973,63.5973,0,0,0,79.51953,419.48ZM369.11914,202.92041a17.47466,17.47466,0,0,1-21.97021,7.36017,117.441,117.441,0,0,0,17.34375-30.072A17.52429,17.52429,0,0,1,369.11914,202.92041ZM358.48926,64.15186a17.49054,17.49054,0,0,1,6.05395,30.83258,116.6646,116.6646,0,0,0-17.405-30.03034A17.35624,17.35624,0,0,1,358.48926,64.15186ZM308.02734,22.752a17.48878,17.48878,0,0,1,20.63111,23.72193,116.66378,116.66378,0,0,0-30.0188-17.40131A17.35355,17.35355,0,0,1,308.02734,22.752ZM256,7a17.51538,17.51538,0,0,1,17.345,15.29138,117.12883,117.12883,0,0,0-34.68994,0A17.51538,17.51538,0,0,1,256,7ZM190.69043,24.50146a17.4681,17.4681,0,0,1,22.6709,4.57068,116.66168,116.66168,0,0,0-30.019,17.40131A17.5227,17.5227,0,0,1,190.69043,24.50146ZM141.13574,85.58838A17.48568,17.48568,0,0,1,164.86182,64.9538a116.6642,116.6642,0,0,0-17.4043,30.02893A17.37109,17.37109,0,0,1,141.13574,85.58838Zm12.375,125.48974a17.49494,17.49494,0,0,1-6.00439-30.87194,117.445,117.445,0,0,0,17.34424,30.07391A17.361,17.361,0,0,1,153.51074,211.07812Zm-7.12109-73.46826a109.61035,109.61035,0,1,1,181.0437,83.12043l7.59985-45.76691c.00684-.04492.01368-.09033.01953-.13526a71.77539,71.77539,0,0,0,.09351-17.31536A81.6579,81.6579,0,0,0,281.064,59.95911c-.1748-.356-.34448-.71381-.53466-1.06458a29.32691,29.32691,0,0,0-8.19043-9.51465l-14.23242-10.727a3.49812,3.49812,0,0,0-4.2129,0l-14.23242,10.727a29.33359,29.33359,0,0,0-8.19043,9.51367c-.19043.35114-.3601.70936-.53515,1.06574a82.41687,82.41687,0,0,0-40.09864,28.56512,81.51362,81.51362,0,0,0-13.98339,68.99018,71.78485,71.78485,0,0,0,.09375,17.31353c.00585.04493.01269.09034.01953.13526l7.60156,45.76819A110.03949,110.03949,0,0,1,146.38965,137.60986ZM308.82324,204.0708a51.60465,51.60465,0,0,0-37.00293-9.18115L256,197.02l-15.82031-2.13037a51.58948,51.58948,0,0,0-37.00293,9.18115,44.80825,44.80825,0,0,0-12.11719,13.0174l-7.17578-43.20295a64.894,64.894,0,0,1,33.7915-64.96887,17.44814,17.44814,0,0,0,16.78858,12.80383h43.07226a17.44814,17.44814,0,0,0,16.78858-12.80383,64.89471,64.89471,0,0,1,33.7915,64.96936l-7.1748,43.20374A44.81035,44.81035,0,0,0,308.82324,204.0708Zm11.79492,36.51611V265.2334A64.62166,64.62166,0,0,1,256.001,329.85693h-1.7041a62.67575,62.67575,0,0,1-44.54981-18.332,62.0349,62.0349,0,0,1-18.36523-44.24365V240.58887a37.95452,37.95452,0,0,1,15.86328-30.82178,44.59509,44.59509,0,0,1,25.97754-8.34473,45.08876,45.08876,0,0,1,6.02343.40479l16.28711,2.19336a3.47534,3.47534,0,0,0,.9336,0l16.28711-2.19336a44.60686,44.60686,0,0,1,32.001,7.93994A37.95227,37.95227,0,0,1,320.61816,240.58691ZM231.4707,87.04639l.043.07934a17.46555,17.46555,0,0,0-14.21484,14.15186,70.88368,70.88368,0,0,0-31.60254,29.32251,72.3725,72.3725,0,0,0-4.27612,8.928c-.01636-.639-.03052-1.27826-.03052-1.91828a75.19,75.19,0,0,1,46.87622-69.24945A29.4397,29.4397,0,0,0,231.4707,87.04639Zm46.06543,6.81006a10.43188,10.43188,0,0,1,0,20.86376H234.46387a10.43188,10.43188,0,0,1,0-20.86376ZM237.625,62.22852a22.392,22.392,0,0,1,6.249-7.25879L256,45.83057l12.126,9.13916a22.54236,22.54236,0,0,1,6.249,28.74072l-1.70508,3.146H239.33008l-1.70508-3.146A22.46486,22.46486,0,0,1,237.625,62.22852Zm46.10913,6.13183a75.19051,75.19051,0,0,1,46.87622,69.24951c0,.64-.01416,1.27924-.03052,1.91828a72.3725,72.3725,0,0,0-4.27612-8.928,70.88457,70.88457,0,0,0-31.60229-29.32245,17.46582,17.46582,0,0,0-14.21509-14.15192l.043-.07934A29.44014,29.44014,0,0,0,283.73413,68.36035Zm-7.78,419.22168v.00049l-15.34375,16.9248a1.49864,1.49864,0,0,1-2.22168,0L243.0459,487.582a1.49419,1.49419,0,0,1,0-2.01416l3.25781-3.59344c.04028-.04.07642-.08466.115-.12683l11.971-13.20453a1.49864,1.49864,0,0,1,2.22168,0l15.34277,16.92529A1.49355,1.49355,0,0,1,275.9541,487.582Zm58.666-63.08636A77.2435,77.2435,0,0,1,301.65625,460.457L275.6665,474.829l-9.86865-10.88709a8.49889,8.49889,0,0,0-12.59473,0L243.103,475.083,216.665,460.458a76.43223,76.43223,0,0,1-32.28516-34.46015V379.895c.93555.48364,1.85547.94037,2.74268,1.35394a26.19424,26.19424,0,0,0,3.26318,7.97571c3.96436,6.374,10.1167,10.11676,16.86865,12.97253A47.75191,47.75191,0,0,0,230.876,434.77246l26.58984,14.71a3.49963,3.49963,0,0,0,3.38867,0L287.44531,434.772a47.2931,47.2931,0,0,0,24.20606-36.50934,28.66615,28.66615,0,0,0,9.2207-9.038,26.16254,26.16254,0,0,0,3.24561-7.89978,72.63716,72.63716,0,0,0,10.50244-5.95813ZM215.21533,405.19788q1.01148.35174,2.021.69909c10.39453,3.583,21.14258,7.28858,28.09863,16.76807a34.04982,34.04982,0,0,1,4.23828,7.70264,6.49755,6.49755,0,0,0,12.11133.00146,34.10343,34.10343,0,0,1,4.23828-7.7041c6.957-9.47949,17.70508-13.18457,28.09863-16.76807,3.31788-1.14374,6.66993-2.303,9.88916-3.6596a40.31311,40.31311,0,0,1-19.855,26.41009l-24.8955,13.77246-24.89551-13.77246A40.73621,40.73621,0,0,1,215.21533,405.19788ZM350.19141,301.2583a3.50058,3.50058,0,0,0-1.71289,4.64356c1.96,4.24951,11.05273,26.52929-2.38086,47.876a52.5879,52.5879,0,0,1-10.4065,11.95947c-.01489.01429-.03271.02509-.04736.03962a62.01338,62.01338,0,0,1-10.75318,7.33093,52.49114,52.49114,0,0,0-3.81542-17.11176,3.5,3.5,0,0,0-6.53125,2.51856c4.36425,11.31885,4.49316,20.40723.38476,27.01269a22.71406,22.71406,0,0,1-8.29639,7.63514c-.019.01068-.03808.02038-.05664.03143-4.229,2.42364-9.32275,4.18481-14.83545,6.08539-10.8789,3.75049-23.21,8.00146-31.46,19.24414a41.03472,41.03472,0,0,0-4.65136,8.16357,41.05136,41.05136,0,0,0-4.65039-8.16357c-8.25-11.24268-20.58106-15.49365-31.46094-19.24414-9.9961-3.44629-18.62988-6.42237-23.18848-13.75147a19.43639,19.43639,0,0,1-2.57226-6.738,3.47935,3.47935,0,0,0-.14673-.92969c-.79029-5.44037.23657-11.90808,3.10376-19.34552a3.5,3.5,0,0,0-6.53125-2.51856,52.58276,52.58276,0,0,0-3.81324,17.0315,56.44064,56.44064,0,0,1-21.06079-19.24976c-13.4375-21.353-4.34179-43.627-2.38183-47.875a3.49972,3.49972,0,1,0-6.35547-2.93262,60.16106,60.16106,0,0,0-3.56641,10.43561c-5.59887-5.91833-12.78857-15.90844-13.30566-28.565-.4961-12.1499,3.085-29.18359,14.62793-40.55225,7.88818-7.76922,18.23706-11.70513,30.78955-11.75854a44.67809,44.67809,0,0,0-.73486,8.05884v26.69238a69.64636,69.64636,0,0,0,69.915,69.57568h1.7041a71.62095,71.62095,0,0,0,71.61718-71.62353v-24.647a44.65713,44.65713,0,0,0-.801-8.36853c8.73169-.80945,19.43555-1.29389,31.70141,9.08337,10.918,9.2417,15.38965,23.53516,13.29,42.48242l-.09179.853c-1.2732,12.91156-7.748,22.56781-13.34082,28.67078a60.07918,60.07918,0,0,0-3.54-10.33631A3.4994,3.4994,0,0,0,350.19141,301.2583Zm137.83471-9.70019h-36.895l-.031-20.65088h33.4375Zm-32.24926-141.5766a45.34526,45.34526,0,0,1,11.74365,5.73529c12.22558,8.3836,20.0603,22.652,21.86328,39.17132a25.57494,25.57494,0,0,0-13.55078-4.33825c-1.82544-2.67353-3.77783-5.30463-5.835-7.835a119.29962,119.29962,0,0,0-21.043-20.22766c.32763-.39886.65649-.81384.98437-1.24939A38.5343,38.5343,0,0,0,455.77686,149.98151Zm-27.15674-1.74713a61.81932,61.81932,0,0,1,20.34668.05706,31.55722,31.55722,0,0,1-4.61914,8.73639,29.51479,29.51479,0,0,1-5.59668,5.69434,27.25327,27.25327,0,0,1-18.90284,5.40014A38.84794,38.84794,0,0,1,428.62012,148.23438Zm23.62011,51.32373a15.64127,15.64127,0,0,0-.90747,2.38793c-.88208-.05291-1.74975-.09686-2.59936-.13793-5.98828-.28907-10.71778-.51709-16.15723-4.293-9.09668-6.31446-11.74609-16.77051-12.34179-19.82764-.16871-.86212-.2959-1.71216-.39014-2.551.822.05927,1.644.09937,2.46435.09937a34.246,34.246,0,0,0,20.667-6.93262c.27758-.21008.61987-.483.99072-.78943a112.38476,112.38476,0,0,1,20.59814,19.61365c.959,1.18018,1.88916,2.38629,2.79859,3.60455l-1.59351.04535A15.44347,15.44347,0,0,0,452.24023,199.55811Zm3.48536,24.59375.93164-.48584a8.24243,8.24243,0,0,0,2.76855-12.27491,8.50055,8.50055,0,0,1,6.543-13.6167l8.59473-.24462A18.61283,18.61283,0,0,1,492.54,209.69189a23.9362,23.9362,0,0,1-6.12012,25.79786l-5.23926,4.9038-5.98046,2.84278a3.50022,3.50022,0,1,0,3.00585,6.32226l2.52247-1.19921,2.62646,15.54785H451.08984l-.011-7.35248.00219-.023-.01855-12.73145c0-.07324-.00293-.146-.00684-.21826l-.63964-10.00635A9.91953,9.91953,0,0,1,455.72559,224.15186Zm-23.24512,203.882V418.5498a63.74033,63.74033,0,0,0-18.86719-45.036l9.1958-8.98858,28.98975,39.72967a15.32077,15.32077,0,0,0,2.38183,2.56415Zm39.74707-31.48358a8.17329,8.17329,0,0,1-3.2793,5.375l-.001.00049a8.22669,8.22669,0,0,1-11.49415-1.79687l-31.79394-43.57276a8.22957,8.22957,0,0,1,6.62891-13.07763,8.33312,8.33312,0,0,1,1.28808.10058,8.1731,8.1731,0,0,1,5.375,3.27881l31.79395,43.57275a8.25393,8.25393,0,0,1,1.064,1.98755c.02344.06665.04785.13214.07569.19757A8.19008,8.19008,0,0,1,472.22754,396.55029Zm3.65234-10.95746-31.06884-42.579,2.31689-2.26287a13.61264,13.61264,0,0,0,4.0625-9.67627l-.04883-32.5166h38.0669l8.42041,49.84521a26.49928,26.49928,0,0,1-7.60547,23.36377ZM47.648,164.17285a3.5,3.5,0,1,0-3.5,3.5A3.5001,3.5001,0,0,0,47.648,164.17285ZM285.207,280.30225a3.49989,3.49989,0,0,0,0,4.95019,7.80319,7.80319,0,0,1,0,11.02149l-7.48144,7.48144a7.76575,7.76575,0,0,1-8.50879,1.68359L259.5,301.39014v-5.11481a6.4834,6.4834,0,0,0,1.876-1.81244l9.18261-13.51221a6.49917,6.49917,0,0,0-5.375-10.15332H246.81641a6.49917,6.49917,0,0,0-5.375,10.15332l9.18261,13.51221a6.4834,6.4834,0,0,0,1.876,1.81244v5.11481l-9.71582,4.04882a7.76979,7.76979,0,0,1-8.50977-1.68359l-7.48144-7.481a7.80377,7.80377,0,0,1,0-11.022,3.5,3.5,0,1,0-4.94922-4.95019,14.81184,14.81184,0,0,0,0,20.92187l7.48145,7.48145a14.75019,14.75019,0,0,0,16.15136,3.19531L256,307.51575l10.52441,4.38513a14.74861,14.74861,0,0,0,16.15039-3.19531l7.48145-7.48194a14.81125,14.81125,0,0,0,0-20.92138A3.5005,3.5005,0,0,0,285.207,280.30225Zm-37.44531-2.50489h16.47656L256,289.91992Zm54.041-42.17187a16.04184,16.04184,0,0,1-9.10937,2.63965,15.80655,15.80655,0,0,1-8.36231-2.63868,3.49979,3.49979,0,1,0-3.86914,5.833,22.79723,22.79723,0,0,0,12.06739,3.80371q.26659.0066.53027.00635a23.11346,23.11346,0,0,0,12.61035-3.80908,3.50007,3.50007,0,0,0-3.86719-5.835ZM169.459,172.91406a3.46232,3.46232,0,0,0-4.55468-1.86279,3.53656,3.53656,0,0,0,1.3584,6.7915,3.50172,3.50172,0,0,0,3.24121-4.81836Zm49.46875,72.35547a23.11253,23.11253,0,0,0,12.60938-3.80908,3.50007,3.50007,0,0,0-3.86719-5.835,16.0623,16.0623,0,0,1-9.1084,2.63965,15.81036,15.81036,0,0,1-8.36328-2.63868,3.49979,3.49979,0,1,0-3.86914,5.833,22.79722,22.79722,0,0,0,12.06738,3.80371C218.5752,245.26758,218.752,245.26953,218.92773,245.26953Zm-55.00683-91.6792-.03418-.20654a3.54131,3.54131,0,1,0,.03418.20654ZM273.61719,45.83252l.11816.02246a3.45193,3.45193,0,0,0,4.05567-2.78809,3.53542,3.53542,0,0,0-2.82032-4.10253,3.50013,3.50013,0,0,0-1.35351,6.86816Zm19.43847,5.978,1.45215-3.18506-1.39746,3.209a3.50007,3.50007,0,1,0,2.79492-6.418c-.01269-.00537-.11621-.05029-.1289-.05517a3.49981,3.49981,0,0,0-2.72071,6.44922ZM325.8125,75.5083a3.40873,3.40873,0,0,0,2.54492,1.13525,3.54929,3.54929,0,1,0-2.66308-1.26806C325.71191,75.395,325.79492,75.48926,325.8125,75.5083Zm-15.18262-13.708.12989.09424a3.45482,3.45482,0,0,0,2.01464.64844,3.57,3.57,0,1,0-2.14453-.74268ZM259.5,483.0752a3.5,3.5,0,1,0,3.5,3.5A3.49989,3.49989,0,0,0,259.5,483.0752ZM197.04,64.16309a3.483,3.483,0,0,0,2.11328-.71241l.11133-.08593A3.45754,3.45754,0,0,0,199.85156,58.5a3.54087,3.54087,0,0,0-4.93066-.62451,3.5,3.5,0,0,0,2.11914,6.2876Zm17.99512-10.93067a3.48714,3.48714,0,0,0,1.48046-.33056l.09083-.04248a3.49987,3.49987,0,0,0-2.96485-6.34083l-.09082.04249a3.50068,3.50068,0,0,0,1.48438,6.67138Zm19.93457-6.77a3.53258,3.53258,0,0,0,.71-.07226c.02343-.00489.14355-.03125.167-.03662a3.45723,3.45723,0,0,0,2.59668-4.14307,3.544,3.544,0,0,0-4.17578-2.67676,3.50042,3.50042,0,0,0,.70215,6.92871ZM349.1709,130.50391c.00195.03418.01269.16748.01562.20166a3.50078,3.50078,0,0,0,3.48243,3.19384c.10253,0,.207-.00439.31152-.01367a3.55032,3.55032,0,1,0-3.80957-3.38183Zm-11.583-38.46729a3.47042,3.47042,0,0,0,3.02832,1.76367,3.55525,3.55525,0,1,0-3.1084-1.9082Zm-176.10449,23.627a3.49514,3.49514,0,0,0,4.29785-2.45556l.02637-.09668a3.50027,3.50027,0,0,0-6.75391-1.8418l-.02637.09668A3.49944,3.49944,0,0,0,161.4834,115.66357Zm190.93652,32.22705a3.51547,3.51547,0,0,0-3.91894,3.01124l3.459.53564-3.46289-.50928a3.50014,3.50014,0,1,0,6.92578,1.01856l.02637-.19336A3.48018,3.48018,0,0,0,352.41992,147.89062Zm-8.9707,22.7085a3.50021,3.50021,0,1,0,6.55469,2.458l.03515-.09375a3.5002,3.5002,0,0,0-6.55468-2.458Zm2.05859-59.88818a3.50006,3.50006,0,0,0,6.69922-2.03028l-.0332-.11035a3.50046,3.50046,0,0,0-6.69141,2.0586Z"/></svg>