<svg id="Layer_1" data-name="Layer 1" xmlns="http://www.w3.org/2000/svg" viewBox="0 0 700 550"><title>listening to gramophone</title><path d="M379.92156,418.78419a2.46333,2.46333,0,0,0-1.655-.753,2.55017,2.55017,0,0,0-1.56173.688,17.44242,17.44242,0,0,0-2.66794,3.47683c-.86473,1.30146-1.74761,2.62159-2.74262,3.93235a13.45141,13.45141,0,0,1-3.82068,3.42106,9.91289,9.91289,0,0,1-4.07171,1.18066c.23241.02786.4739.05578.70631.07439.85519.05577,1.71084.065,2.566.10224.85519.04647,1.70131-.03722,2.5565-.04647.41807-.01861.88288.00925,1.25465-.04652.40944-.06509.8275-.13942,1.23649-.24166a18.25191,18.25191,0,0,0,2.42668-.73445,15.4994,15.4994,0,0,0,7.79026-6.17281v-.00925c.20449-.36257.409-.73445.58556-1.13419A12.6607,12.6607,0,0,0,379.92156,418.78419Zm1.97071,5.00146a13.74,13.74,0,0,1-3.012,3.9324,16.45819,16.45819,0,0,1-4.46208,2.78892,15.86178,15.86178,0,0,1-2.50112.85525,12.49512,12.49512,0,0,1-1.30141.28818c-.48342.07439-.88288.05578-1.32909.09294a46.98332,46.98332,0,0,1-5.24328-.00925,34.62837,34.62837,0,0,1-10.20741-2.24976,24.45789,24.45789,0,0,1-8.75711-5.56852,23.14754,23.14754,0,0,0,4.29458,2.854,29.09906,29.09906,0,0,0,4.30457,1.89644,40.58619,40.58619,0,0,0,8.655.23241,9.61818,9.61818,0,0,0,7.06488-4.27631c.94825-1.162,1.83159-2.46356,2.77984-3.73716.49251-.64145.94825-1.255,1.49659-1.90575a8.61315,8.61315,0,0,1,1.92441-1.77558,4.08111,4.08111,0,0,1,2.83544-.74375,3.75426,3.75426,0,0,1,2.352,1.52462,10.05751,10.05751,0,0,1,1.74761,4.52733,17.38208,17.38208,0,0,0,.88312-2.2311s3.3747-8.85017-14.52106-18.98324a11.65853,11.65853,0,0,1-.60417-3.49539c.07444-5.31756-6.42349-8.61776-7.96683-7.84615a15.062,15.062,0,0,1-5.63366,2.27757c-.28824-.26027-.57649-.5206-.84612-.77156a27.72536,27.72536,0,0,1-3.2442,2.12885c-1.0876.63215-2.16613,1.21782-3.23512,1.79419-1.07852.56707-2.11983,1.14344-3.133,1.76634a10.73848,10.73848,0,0,0-2.86335,2.29618,5.38138,5.38138,0,0,1,1.63639-3.74641,11.76023,11.76023,0,0,1,3.207-2.445A16.75927,16.75927,0,0,1,349.894,391.834a12.451,12.451,0,0,1,3.951-.37182,14.91612,14.91612,0,0,1-3.31864-4.109c-1.38538-2.90977-4.611-4.09037-7.16747-4.2577-1.32-1.66409-3.68133-2.91908-7.084,1.692-2.222,3.012-4.03448,4.31347-5.41033,4.7876l-.05583.02791a14.60566,14.60566,0,0,1-7.00951-2.95624s-6.07986-6.05195-7.753,3.16074c-.66,3.68138-1.71992,5.65221-2.74261,6.68409a6.60877,6.60877,0,0,0,.47389,10.04008c.13981.1023.28825.20455.43713.3161,6.89784,4.91777,17.99766,5.96826,27.00625,14.18628a44.66391,44.66391,0,0,0,4.01587,3.24443,39.0437,39.0437,0,0,0,7.13025,11.67625,46.4393,46.4393,0,0,0,8.19017,4.34139,9.647,9.647,0,0,0,8.22738-.71584c1.36632-.63214,2.73308-1.413,4.14615-2.13815.72492-.35327,1.40354-.70654,2.17521-1.0505a8.902,8.902,0,0,1,2.51928-.7437,4.01217,4.01217,0,0,1,2.86336.58568,3.8066,3.8066,0,0,1,1.45029,2.40779,9.87549,9.87549,0,0,1-.44621,4.85268,19.05128,19.05128,0,0,0,1.79414-1.62687S388.7345,436.79127,381.89227,423.78565Zm-31.93292-22.99923a10.07629,10.07629,0,0,1,2.85382-2.68667,11.54873,11.54873,0,0,1,3.56967-1.52456,10.19536,10.19536,0,0,1,2.76122-.251c-.35315-.26033-.71584-.502-1.05991-.77162a16.21375,16.21375,0,0,1-2.90966-2.90046c1.07852.846,2.21243,1.57109,3.33725,2.30548,1.12483.72514,2.2778,1.42237,3.43984,2.1103,2.30549,1.39445,4.64819,2.72383,6.93507,4.22059-.66-.20455-1.31094-.44627-1.95233-.69723-1.8965,1.74767-3.84883,3.0771-5.6895,4.518-.94825.74369-1.91511,1.46878-2.77938,2.27762a18.46745,18.46745,0,0,0-2.53789,2.7703,6.44122,6.44122,0,0,1,1.05991-3.96957,11.3229,11.3229,0,0,1,2.798-2.99341,14.37057,14.37057,0,0,1,3.48614-1.97082,12.10422,12.10422,0,0,1,3.25373-.80878,41.50829,41.50829,0,0,1-5.05718-2.54726c-.57648-.35327-1.153-.71578-1.71992-1.097-.9201.55782-1.813,1.05981-2.67724,1.57109-1.0227.58568-1.99863,1.17136-2.95642,1.785-.95732.60423-1.86835,1.26429-2.77938,1.96152-.94825.67862-1.76667,1.49671-2.82613,2.31479A7.603,7.603,0,0,1,349.95935,400.78642ZM333.95078,405.416a40.52468,40.52468,0,0,1-3.68132-2.68661,38.68967,38.68967,0,0,1-3.33726-3.0864,23.22367,23.22367,0,0,1-2.90966-3.62561,23.3043,23.3043,0,0,1,4.10893,2.15677,40.59153,40.59153,0,0,1,3.68133,2.68666,41.90959,41.90959,0,0,1,3.33725,3.09571,23.14658,23.14658,0,0,1,2.90966,3.61625A24.27618,24.27618,0,0,1,333.95078,405.416Zm45.71022,32.1562a2.584,2.584,0,0,0-1.71039-.07439,17.49427,17.49427,0,0,0-3.93235,1.943c-1.34815.78087-2.724,1.5804-4.1929,2.31479a13.53684,13.53684,0,0,1-4.936,1.39446,10.13658,10.13658,0,0,1-5.039-1.11558,10.64894,10.64894,0,0,1-1.44076-.77156c6.78617,4.88985,15.48791,8.30166,23.083,2.2311a12.91136,12.91136,0,0,0-.67862-4.518A2.52,2.52,0,0,0,379.661,437.57219Z"/><path d="M381.89227,348.80109l-5.28959,51.63206-2.98432-36.386C376.491,358.93411,379.252,353.8211,381.89227,348.80109Z" fill="#020202"/><path d="M240.7083,348.52221c-.251-4.8713-.43713-9.73334-.62279-14.60463-.27916-9.73328-.48343-19.47593-.67907-29.20921l-.50159-29.19065-.10258-3.63485a27.85705,27.85705,0,0,0-.2601-3.48615,21.13611,21.13611,0,0,0-2.08261-6.50746,21.67235,21.67235,0,0,0-9.5937-9.49162c-.52065-.23241-1.0413-.48343-1.56195-.70654l-1.61734-.595-1.64547-.45551-1.78484-.41829-7.11209-1.66409-14.21374-3.33737c-.61371-.14877-1.13436-.26033-1.82251-.44626a10.1633,10.1633,0,0,1-1.93326-.753,10.579,10.579,0,0,1-3.25374-2.5472,10.44069,10.44069,0,0,1-2.00816-3.58839,9.286,9.286,0,0,1-.27871-.99471l-.19564-.90178-.38084-1.78489q-1.534-7.13961-2.98411-14.29784c-3.87651-19.08543-8.07849-38.10584-11.221-57.34q1.65932,7.11178,3.25373,14.23276c1.08806,4.75043,2.27779,9.473,3.41215,14.20489l6.63729,28.44689c1.11574,4.74119,2.222,9.48232,3.28187,14.23275l.409,1.77564.19519.88311c.07444.251.13027.51135.22287.753a7.97832,7.97832,0,0,0,4.06263,4.611,7.56286,7.56286,0,0,0,1.4689.54851c.493.13011,1.16205.26958,1.729.39974l14.24234,3.25373,4.778,1.097-12.33631-39.47244c-22.01353-33.0207-6.15386-47.55094-6.15386-47.55094s-35.89364-1.26435-43.02389,5.37328c0,0,14.00993,145.26521,14.62319,152.71161,0,0,57.28439,34.00617,70.2344,45.02236C241.19173,358.26479,240.95932,353.38419,240.7083,348.52221Zm-73.869-169.42649v-.01861l-.18611-2.77961A.28106.28106,0,0,1,166.91376,176a.285.285,0,0,1,.29732.24172l.34407,2.7703a.36036.36036,0,0,1-.71584.08369Zm.39946,5.56852c-.00908-.0093-.00908-.0093-.00908-.01861L167.025,181.866a.43451.43451,0,0,1,.86473-.08369l.32546,2.77036a.50524.50524,0,0,1-.43713.54845A.49087.49087,0,0,1,167.23877,184.66424Zm.3999,5.54061-.20472-2.77961a.55116.55116,0,0,1,1.09714-.10225l.32546,2.7703a.61531.61531,0,0,1-.53926.67868.60672.60672,0,0,1-.66954-.53921A.03472.03472,0,0,1,167.63867,190.20485Zm.41807,5.56857-.21335-2.77966a.66775.66775,0,0,1,1.3291-.13011l.31593,2.77031a.71389.71389,0,0,1-.63187.79017.70659.70659,0,0,1-.79028-.63215A.02833.02833,0,0,0,168.05674,195.77342Zm.45574,5.55922-.22333-2.77961a.73915.73915,0,0,1,.68815-.80878.747.747,0,0,1,.80889.66931l.29732,2.77036a.78988.78988,0,0,1-.69722.86456.77871.77871,0,0,1-.86473-.69723A.02915.02915,0,0,1,168.51248,201.33264Zm.23241,2.77961a.8218.8218,0,0,1,1.63594-.158l.29778,2.7703a.86023.86023,0,1,1-1.71039.18594v-.01861Zm.45574,5.55921a.8916.8916,0,0,1,1.7753-.16732l.29777,2.77035a.93023.93023,0,1,1-1.85019.19519v-.01855Zm.4739,5.55928a.94309.94309,0,1,1,1.87788-.17664l.27871,2.77031a.96142.96142,0,0,1-.85519,1.0598.97567.97567,0,0,1-1.05991-.86456v-.00931Zm.493,5.54991a.97541.97541,0,1,1,1.9428-.17664l.27871,2.77036a.99528.99528,0,0,1-1.98.2045v-.01862Zm.51112,5.55927a.98989.98989,0,1,1,1.97094-.18594l.2601,2.7703a.99249.99249,0,0,1-.89242,1.08766,1.00252,1.00252,0,0,1-1.07852-.89241Zm.79936,8.32952-.26963-2.77961a.98856.98856,0,0,1,.88334-1.07836.97764.97764,0,0,1,1.07807.88312v.0093l.25147,2.77961a.9664.9664,0,0,1-.88334,1.0598A.98262.98262,0,0,1,171.478,234.66944Zm.28824,2.77036a.95327.95327,0,1,1,1.8965-.19525c0,.00931.00908.00931.00908.01861l.24194,2.77961a.93863.93863,0,0,1-1.86881.17663Zm.56695,5.54991a.91025.91025,0,0,1,.81843-1.004.923.923,0,0,1,1.00363.81809v.01861l.24194,2.7703a.89679.89679,0,0,1-1.78483.17664Zm.55788,5.54991a.87827.87827,0,0,1,1.74761-.17658v.00925l.24194,2.77966a.85478.85478,0,0,1-1.70131.16733Zm.86472,8.32027-.29777-2.77031a.83672.83672,0,0,1,1.66409-.17663v.01861l.23241,2.77961a.80288.80288,0,0,1-1.59873.14872Zm.5951,5.55-.29778-2.77036a.76695.76695,0,0,1,1.52474-.16732v.01861l.23241,2.77961a.73308.73308,0,0,1-1.45937.13946Zm.61325,5.54061-.31593-2.7703a.697.697,0,1,1,1.38492-.158V265.05l.2138,2.77961a.64441.64441,0,0,1-1.28279.12086Zm.63232,5.55-.31593-2.77961a.58917.58917,0,1,1,1.17112-.13016v.02786l.2138,2.77966a.53729.53729,0,0,1-1.069.10225Zm.62278,5.54066-.30685-2.77036a.48388.48388,0,0,1,.4276-.53921.496.496,0,0,1,.53926.42766v.01861l.2138,2.77961a.43818.43818,0,0,1-.39991.47412A.443.443,0,0,1,176.21921,279.04109Zm.62279,5.5406-.30685-2.7703a.3881.3881,0,0,1,.77167-.08369v.0093l.22333,2.77961a.3456.3456,0,0,1-.31639.37188A.3373.3373,0,0,1,176.842,284.58169Zm.55787,5.55-.27916-2.77036a.32712.32712,0,1,1,.65093-.06508l.251,2.77966a.31213.31213,0,0,1-.28825.33466A.304.304,0,0,1,177.39987,290.13166Zm.55788,5.54991-.27917-2.7703a.29481.29481,0,0,1,.586-.06508v.0093l.25056,2.77961a.27974.27974,0,0,1-.26009.29749A.27143.27143,0,0,1,177.95775,295.68157Zm.502,5.55922-.251-2.77961a.28936.28936,0,1,1,.576-.05578l.27916,2.77961a.29574.29574,0,0,1-.26963.32541A.303.303,0,0,1,178.45979,301.24079Zm.45528,5.56857v-.0093l-.22287-2.77961a.334.334,0,0,1,.30685-.36257.34443.34443,0,0,1,.36223.29749l.29777,2.7703a.37545.37545,0,0,1-.335.409A.36693.36693,0,0,1,178.91507,306.80936Zm.95778,6.00543a.49024.49024,0,0,1-.53926-.4276.03367.03367,0,0,1-.00953-.02792l-.20427-2.7796a.42992.42992,0,0,1,.8552-.0837l.31593,2.77967A.48713.48713,0,0,1,179.87285,312.81479Zm5.13162,2.696a.59893.59893,0,0,1-.81842.24172c0-.00931-.00908-.00931-.01861-.01862l-2.389-1.44092a.54373.54373,0,0,1,.54834-.93895l2.44529,1.348A.59538.59538,0,0,1,185.00447,315.51076Zm4.9269,2.84469a.70609.70609,0,0,1-.96686.27888.03339.03339,0,0,1-.01861-.00931l-2.389-1.44092a.658.658,0,0,1,.65048-1.14344l2.44529,1.348A.70854.70854,0,0,1,189.93137,318.35545Zm4.89921,2.83538a.80466.80466,0,0,1-1.0876.3068l-.00954-.00931-2.40761-1.42237a.7686.7686,0,0,1,.77167-1.32937l2.42623,1.36659A.79887.79887,0,0,1,194.83058,321.19083Zm4.85291,2.80753a.82646.82646,0,0,1-1.13436.30674h-.00953l-2.40762-1.40371a.82279.82279,0,0,1,.82751-1.42237l2.41715,1.38515A.83492.83492,0,0,1,199.68349,323.99836Zm4.81523,2.78891a.831.831,0,0,1-1.12482.29749l-2.41715-1.3759a.8389.8389,0,0,1,.8275-1.45954l.00908.00931,2.40807,1.40376A.83088.83088,0,0,1,204.49872,326.78727Zm4.80616,2.77961a.80023.80023,0,0,1-1.07807.28818l-2.42669-1.38515a.80782.80782,0,0,1,.79982-1.40376h.00908l2.40762,1.41307A.80086.80086,0,0,1,209.30488,329.56688Zm4.76893,2.761a.73768.73768,0,0,1-.99455.26963l-2.42623-1.3666a.772.772,0,1,1,.75306-1.348l.00908.00931,2.40807,1.42237A.73734.73734,0,0,1,214.07381,332.32788Zm4.76939,2.75174a.66547.66547,0,0,1-.89242.24172l-2.44529-1.35729a.71348.71348,0,0,1-.26963-.96681.70319.70319,0,0,1,.96686-.26957.02848.02848,0,0,1,.01861.00925l2.38946,1.43168A.66579.66579,0,0,1,218.8432,335.07962Zm4.73171,2.73314a.55547.55547,0,0,1-.74353.20449l-2.44529-1.34792a.61182.61182,0,1,1,.59509-1.06911c.00953,0,.00953.0093.01861.0093l2.38946,1.44093A.54915.54915,0,0,1,223.57491,337.81276Zm4.74124,2.74244a.45646.45646,0,0,1-.60417.158l-2.43576-1.348a.50345.50345,0,1,1,.48343-.88317c.00908,0,.00908.00931.01861.00931l2.389,1.441A.45242.45242,0,0,1,228.31615,340.5552Zm4.69449,2.70523a.296.296,0,0,1-.38084.10224l-2.46391-1.32007a.38764.38764,0,0,1-.14843-.51129.37907.37907,0,0,1,.502-.14871.02849.02849,0,0,0,.01861.00924l2.37993,1.46885A.2955.2955,0,0,1,233.01064,343.26043Zm4.6668,2.68666a.09381.09381,0,0,1-.12074.03717l-2.473-1.30146a.20244.20244,0,0,1-.08353-.27888.20823.20823,0,0,1,.26963-.08369c.00908.0093.00908.0093.01862.0093l2.36131,1.4874A.10194.10194,0,0,1,237.67744,345.94709Z" fill="#020202"/><path d="M242.84628,306.09352c-.43667.22311-.88334.45552-1.3014.71584l.00908-2.1196q.07012-9.17554.03722-18.36034c1.54334,1.39445,10.31907,8.66423,32.63991,15.85961-2.98456.26033-5.96866.49274-8.95276.71584-1.05946.06509-2.14706.158-3.16975.17664-1.0227.05577-2.16613-.00931-3.23513-.00931a56.98868,56.98868,0,0,0-6.5356.42766,34.76747,34.76747,0,0,0-6.433,1.36654c-.52066.16732-1.04131.35326-1.55243.5392C243.85036,305.638,243.33924,305.8332,242.84628,306.09352Z" fill="#020202"/><path d="M241.46136,331.138l.08352-23.91956a26.13562,26.13562,0,0,1,4.63866-1.255,55.62683,55.62683,0,0,1,6.32181-.78086c1.05991-.10231,2.1289-.11155,3.18882-.18594l3.1979-.06508c1.07807-.01861,2.10076.0093,3.23512-.04647,1.1339-.02792,2.19382-.12086,3.28142-.19525,4.05309-.316,8.088-.68792,12.113-1.07835a123.95363,123.95363,0,0,0,6.9169,23.0457c-.7812.12086-1.57148.251-2.35223.38112-2.3704.39049-4.74125.79954-7.12117,1.24574-1.18974.22311-2.3704.45552-3.57875.7344a13.37864,13.37864,0,0,0-1.95233.56712c-.567.24166-1.07852.45551-1.6364.66a50.95947,50.95947,0,0,1-13.56327,3.14218c-1.17112.08369-2.33317.16732-3.50475.18594-1.162,0-2.32409-.02792-3.48614-.13947a16.66451,16.66451,0,0,1-3.40217-.64145,5.991,5.991,0,0,1-1.54334-.71579A2.39544,2.39544,0,0,1,241.46136,331.138Z" fill="#020202"/><path d="M304.10932,361.156a362.272,362.272,0,0,1-62.22037,1.93367c-.22333-2.42635-.28824-4.862-.335-7.29764-.05583-2.4264-.10214-4.862-.11121-7.29769-.03723-4.862-.01861-9.73328.00907-14.59532l.00954-2.259a2.57786,2.57786,0,0,0,.50158.79948,5.96642,5.96642,0,0,0,1.50613,1.18066,13.874,13.874,0,0,0,3.50475,1.348,22.47555,22.47555,0,0,0,3.67225.63215,29.04687,29.04687,0,0,0,3.709.14877A37.3246,37.3246,0,0,0,268.774,332.5882c.55787-.251,1.14343-.54851,1.66408-.79947a11.42612,11.42612,0,0,1,1.50567-.437c1.13436-.27888,2.30594-.5206,3.47707-.753,2.3427-.47412,4.69449-.90172,7.0558-1.33868.93917-.17663,1.87789-.344,2.82614-.502A129.64482,129.64482,0,0,0,297.31361,350.586C299.50789,353.80254,301.82245,357.456,304.10932,361.156Z" fill="#020202"/><path d="M317.41249,290.55s13.1729,3.15149,25.147,5.68013l-23.68716,2.0173C318.34213,295.46777,317.84962,292.87405,317.41249,290.55Z" fill="#020202"/><path d="M325.09154,321.93453c9.34267-1.60825,18.68581-3.14218,28.00034-4.90846a140.66112,140.66112,0,0,0-6.46071,33.82023l-1.77575.57637a121.02665,121.02665,0,0,1-13.18243,4.41578c-.38084-1.15274-.74353-2.24976-1.09668-3.263-.158-.4462-.32547-.99471-.51112-1.65478-.05583-.16733-.10259-.344-.14889-.52059-.14889-.5299-.30685-1.11552-.46482-1.757-.11166-.409-.2138-.82739-.32546-1.27359-.06491-.26033-.13028-.52066-.19519-.79954-.12074-.48337-.24194-.98541-.37176-1.51531-.06537-.26957-.13028-.53915-.18611-.82733q-.29278-1.19931-.58556-2.51c-.19519-.87386-.39991-1.77564-.61371-2.71452-.86427-3.93241-1.82205-8.404-2.78891-13.08932-.23241-1.15274-.4739-2.31479-.71584-3.48614a2.15929,2.15929,0,0,0-.0463-.24172Z" fill="#020202"/><path d="M360.80815,299.28857s-3.93235,6.1635-7.71627,17.71889l-28.18645,3.73717c-.51112.07433-1.0227.13941-1.53381.21379-.29778-1.45953-.60418-2.93763-.90195-4.41578-.4739-2.37987-.94825-4.75974-1.41307-7.09314-.12074-.63214-.251-1.26429-.37176-1.89644-.02769-.13947-.05584-.28818-.08353-.42765L320.378,305.982c-.08352-.38118-.158-.76231-.22287-1.13418-.08353-.38113-.14889-.753-.22334-1.12483-.22287-1.12488-.43667-2.22185-.64139-3.3002-.08352-.437-.1675-.87386-.251-1.30152,7.837-.92964,15.6831-1.85,23.52011-2.89116C350.70288,297.94058,358.28887,299.35365,360.80815,299.28857Z" fill="#020202"/><polyline points="249.828 363.086 243.188 427.886 237.601 359.75" fill="#020202"/><polyline points="181.912 324.22 175.28 370.019 171.652 318.066" fill="#020202"/><path d="M265.81751,133.15135c-1.9521-.22311-11.65746,6.35874-11.65746,6.35874s-2.67748.89242-5.6895-3.012a36.06234,36.06234,0,0,1-4.68541-8.47835s-1.33862-7.80893-1.45006-9.14761c-.11166-1.33868-3.12368-3.79293-3.12368-2.008s1.33862,15.84107,2.45414,17.96061c1.11575,2.1196,3.56989,8.58985,9.70559,12.04813,6.13548,3.45822,12.829-.78092,15.28319-6.6934S267.76984,133.37445,265.81751,133.15135Zm-.29732,5.82884a5.68174,5.68174,0,0,1-.39037.79017,2.442,2.442,0,0,1-1.52474,1.0598,2.51466,2.51466,0,0,1-1.81274-.409,3.05751,3.05751,0,0,1-1.13413-1.2736,4.77674,4.77674,0,0,0,2.7703.76231,2.37945,2.37945,0,0,0,1.15274-.61359c.17658-.158.34385-.35327.539-.53915a6.69287,6.69287,0,0,1,.55788-.61359A6.65534,6.65534,0,0,1,265.52019,138.98019Z"/><path d="M239.329,118.87633a8.39228,8.39228,0,0,0-2.04788-.01209,3.13252,3.13252,0,0,0-1.732.6643,2.07128,2.07128,0,0,0-.62482,1.57883,7.19986,7.19986,0,0,0,.049.94271c.06559.32817.11121.66048.19156.98468a13.48789,13.48789,0,0,0,1.39967,3.73806,9.92812,9.92812,0,0,0,1.14775,1.64563,3.21108,3.21108,0,0,0,1.61665,1.15934,1.76343,1.76343,0,0,1-1.02882-.24466,5.1601,5.1601,0,0,1-.90308-.58553,8.00566,8.00566,0,0,1-1.44507-1.58622,10.98532,10.98532,0,0,1-1.6945-3.9272c-.07853-.34967-.1212-.70579-.1827-1.05806a6.353,6.353,0,0,1-.0261-1.1284,2.73612,2.73612,0,0,1,1.04879-2.08325,3.38065,3.38065,0,0,1,2.16681-.553A6.53472,6.53472,0,0,1,239.329,118.87633Z"/><path d="M254.47325,150.729a7.506,7.506,0,0,1-1.52132,2.20488,9.09994,9.09994,0,0,1-2.10826,1.598,10.1956,10.1956,0,0,1-2.362.92357c-.91034-.03149-1.82386.02848-2.71673-.07853a14.61513,14.61513,0,0,1-2.6684-.49211,12.59763,12.59763,0,0,1-4.751-2.40013,15.81163,15.81163,0,0,1-3.53562-4.0431,19.29429,19.29429,0,0,1-1.24875-2.42873,15.839,15.839,0,0,1-.687-1.83635,2.88,2.88,0,0,0,.46346-.40774,5.74635,5.74635,0,0,0,.66568-1.00941,16.29378,16.29378,0,0,0,.84408-2.00715,39.31058,39.31058,0,0,0,1.16386-4.041A71.23143,71.23143,0,0,0,237.479,128.513c-.82546,2.64814-1.64071,5.2893-2.52155,7.89188-.45211,1.29624-.91375,2.587-1.44053,3.82687a14.98073,14.98073,0,0,1-.88152,1.75822,4.266,4.266,0,0,1-.49682.70091.90013.90013,0,0,1-.187.153.16863.16863,0,0,1,.155.00494l-1.0724.95a18.6488,18.6488,0,0,0,2.22037,5.58072,15.76739,15.76739,0,0,0,3.965,4.53925,15.39827,15.39827,0,0,0,2.58147,1.62255,14.56534,14.56534,0,0,0,2.88174.96567,15.13109,15.13109,0,0,0,2.98092.413,21.218,21.218,0,0,0,2.389-.08892c.4142-.07807.82251-.155,1.23649-.233a10.27241,10.27241,0,0,0,2.13753-1.11813,9.08341,9.08341,0,0,0,2.14842-2.00811,7.50072,7.50072,0,0,0,1.3291-2.57852,8.82981,8.82981,0,0,0,.3586-2.812A9.98744,9.98744,0,0,1,254.47325,150.729Z"/><path d="M251.9252,122.1035l17.29126.89245s1.22712,7.25117-2.90047,6.24717a7.81036,7.81036,0,0,1-3.56981-5.13861h-2.59369s-.96217,8.12274-4.60171,6.40756-3.62558-8.06-3.62558-8.40857"/><path d="M252.20408,120.80665a5.32,5.32,0,0,1,1.68407-.8983,6.64651,6.64651,0,0,1,1.89354-.35591,5.37449,5.37449,0,0,1,1.93962.29819,3.37424,3.37424,0,0,1,1.55265,1.16519,9.28287,9.28287,0,0,0-1.73717-.46365,11.4523,11.4523,0,0,0-1.72559-.07112c-.58125.00619-1.16682.07724-1.76441.13235Z"/><path d="M262.16047,121.39233a3.687,3.687,0,0,1,1.37244-.82732,4.81229,4.81229,0,0,1,1.59759-.2801,3.98823,3.98823,0,0,1,1.61188.35012,2.86468,2.86468,0,0,1,1.23786,1.05013,13.24177,13.24177,0,0,0-1.45846-.359,8.87374,8.87374,0,0,0-1.39809-.11216C264.1793,121.20284,263.23309,121.32132,262.16047,121.39233Z"/><path d="M256.011,126.80282a1.3953,1.3953,0,0,0,0-2.78892,1.3953,1.3953,0,0,0,0,2.78892Z"/><path d="M265.67454,127.012a1.39529,1.39529,0,0,0,0-2.78891,1.39529,1.39529,0,0,0,0,2.78891Z"/><path d="M264.53109,130.74994a2.47605,2.47605,0,0,1-.18475,1.32714,2.579,2.579,0,0,1-.86858,1.11831,1.9393,1.9393,0,0,1-2.628-.38247,6.71092,6.71092,0,0,0,1.20154-.02349,1.98434,1.98434,0,0,0,.897-.35748A9.87635,9.87635,0,0,0,264.53109,130.74994Z"/><path d="M236.851,118.666a28.41778,28.41778,0,0,1,.97616-7.87176,17.58013,17.58013,0,0,1,1.50454-3.73531,8.15446,8.15446,0,0,1,2.78891-3.00539,6.02264,6.02264,0,0,1,1.97-.70168,18.05991,18.05991,0,0,1,2.01656-.09778c1.32592.02108,2.64888.05375,3.96526.18358a27.63742,27.63742,0,0,1,7.73829,1.72182,13.58958,13.58958,0,0,1,3.46367,2.05322,9.89958,9.89958,0,0,1,2.53925,3.18816,20.13893,20.13893,0,0,1,1.30186,3.81913,18.81368,18.81368,0,0,1,.65592,3.99467,5.01928,5.01928,0,0,1-.09805,1.10125,6.01118,6.01118,0,0,0-.09056.87942c-.01134.63212.01362,1.27893.04608,1.92762.06945,1.2979.20472,2.60173.36949,3.89822.08579.64794.16909,1.29687.27281,1.93859.05334.317.10872.64722.18634.935l.02859.10829c.01113.03253.00227.00058-.01089.01409-.04766-.01374.05016.069.09555.13434a.60246.60246,0,0,1,.08035.15127,3.79253,3.79253,0,0,1,.17022.49995c.35043,1.29367.54493,2.59216.76713,3.89308a.04654.04654,0,0,1-.0379.05368.0473.0473,0,0,1-.05288-.03453c-.34068-1.26785-.702-2.54482-1.12347-3.76689a3.416,3.416,0,0,0-.17612-.42281c-.01158-.01852-.03995-.08548-.037-.06436-.00476.00044.03677.02211-.04652-.06637a.8333.8333,0,0,1-.12483-.20383l-.04449-.12726c-.11734-.34037-.19065-.65675-.27008-.98347-.15093-.64869-.28824-1.297-.3956-1.95013-.22287-1.30524-.416-2.61365-.544-3.93937a19.71445,19.71445,0,0,1-.10531-2.01435,6.67133,6.67133,0,0,1,.09669-1.08232,4.15714,4.15714,0,0,0,.05311-.86137,20.53343,20.53343,0,0,0-.60554-3.78155,19.33251,19.33251,0,0,0-1.14616-3.66515l-.43032-.83858-.54266-.77222a4.80493,4.80493,0,0,0-.603-.72841,6.43917,6.43917,0,0,0-.66432-.67946,14.21665,14.21665,0,0,0-3.18565-2.14317,20.5816,20.5816,0,0,0-7.55557-1.86537,26.477,26.477,0,0,0-3.92032.01277,18.51009,18.51009,0,0,0-1.9142.21923,5.75872,5.75872,0,0,0-1.68883.71936,7.03805,7.03805,0,0,0-1.39446,1.21658,13.00613,13.00613,0,0,0-1.091,1.54169,16.81846,16.81846,0,0,0-1.52791,3.53174,40.12142,40.12142,0,0,0-1.56626,7.66876.04655.04655,0,0,1-.04971.04315A.04836.04836,0,0,1,236.851,118.666Z"/><path d="M200.05131,163.15631a11.386,11.386,0,0,1,4.3334-2.70195,14.13323,14.13323,0,0,1,5.111-.82571,16.06057,16.06057,0,0,1,5.059,1.0457,20.48236,20.48236,0,0,1,2.33091,1.07692c.72718.45018,1.44121.9164,2.13049,1.405-.79755-.30782-1.54584-.68893-2.32591-.99342l-1.18157-.41775a8.842,8.842,0,0,0-1.18383-.38274l-1.19768-.32213c-.39787-.10852-.81094-.147-1.21425-.22431a17.08632,17.08632,0,0,0-2.44348-.2586,16.87805,16.87805,0,0,0-4.86448.5853A15.92177,15.92177,0,0,0,200.05131,163.15631Z"/><path d="M259.51205,147.32427a22.16723,22.16723,0,0,1,11.92846.49615,22.99593,22.99593,0,0,1,5.51223,2.57459,24.31862,24.31862,0,0,1,4.56489,3.98088,49.19158,49.19158,0,0,1,6.60415,9.9272,48.273,48.273,0,0,1,4.23807,11.16191.83712.83712,0,0,1-.40286.92252l-.02587.01428-5.96094,3.35258q-2.999,1.64181-6.0431,3.19958l-.03472.01772a.92894.92894,0,0,1-1.2492-.40683l-.03337-.07307q-1.54561-3.8236-2.97616-7.69623l-1.40171-3.885c-.43895-1.307-.89991-2.60465-1.308-3.92489a.0934.0934,0,0,1,.1709-.07293c.67045,1.20836,1.28779,2.43932,1.92714,3.66092l1.8334,3.70082q1.80572,3.71268,3.49409,7.47537l-1.31706-.46211q2.97581-1.68462,6.00474-3.27058l6.08713-3.11763-.42873.93653a59.65209,59.65209,0,0,0-3.229-11.22418,25.64311,25.64311,0,0,0-6.72194-9.45651,31.33568,31.33568,0,0,0-4.66362-3.36684,28.04014,28.04014,0,0,0-5.14365-2.483,30.22194,30.22194,0,0,0-11.38965-1.79878l-.00885.00037a.09292.09292,0,0,1-.02678-.18288Z"/><path d="M219.01606,248.52249c-1.59645-3.43936-3.0043-6.94822-4.33362-10.4833-1.3384-3.53225-2.56445-7.10265-3.75554-10.68407-1.15865-3.59211-2.28552-7.19437-3.29958-10.83233-1.02451-3.63441-1.97843-7.29137-2.74148-11.0062,1.50135,3.48216,2.83975,7.01343,4.12277,10.5623,1.29459,3.545,2.4959,7.11944,3.684,10.69793,1.15479,3.58954,2.30435,7.18022,3.36018,10.80293C217.12161,241.19826,218.14657,244.83125,219.01606,248.52249Z"/><path d="M248.09864,254.89836c3.55151.846,7.80887,1.61757,12.34585,2.31479a53.57064,53.57064,0,0,1-8.79434-.4462,9.32531,9.32531,0,0,0-2.7703-.07439,5.75414,5.75414,0,0,0-2.44529.94825,9.56357,9.56357,0,0,0-3.28143,4.44364,26.42164,26.42164,0,0,0-1.48751,5.75446,53.98666,53.98666,0,0,0-.57648,6.02409,94.188,94.188,0,0,0,.335,12.2154.09425.09425,0,0,1-.18611.02791,72.199,72.199,0,0,1-1.25511-12.25262,35.42828,35.42828,0,0,1,1.6364-12.36417,11.1273,11.1273,0,0,1,3.75578-5.38264A7.64529,7.64529,0,0,1,248.09864,254.89836Z"/><path d="M307.196,235.34811a18.974,18.974,0,0,1-3.83975,4.88985,39.96406,39.96406,0,0,1-4.34134,3.57914c-.31593-.05578-.64139-.10225-.96686-.15808.04676-.02786.084-.05578.13028-.08364a41.58176,41.58176,0,0,0,4.76893-3.765,16.47357,16.47357,0,0,0,3.60734-4.54594c-1.61778-1.83142-3.1516-3.72786-4.6205-5.68938a37.28668,37.28668,0,0,1-3.98818-6.4796c-.27871-.56707-.48343-1.23638-.71584-1.78489-.22287-.56707-.42759-1.12489-.69723-1.692-.4925-1.13413-1.00408-2.26832-1.52473-3.39314l-3.14207-6.79565c-2.09168-4.52734-4.2392-9.03611-6.30274-13.5913-2.09169-4.53664-4.17429-9.08258-6.16339-13.675a.08514.08514,0,0,1,.0463-.12085.10151.10151,0,0,1,.12074.03716c2.46345,4.3507,4.80616,8.77578,7.10256,13.21948,2.31457,4.43433,4.52745,8.91519,6.69312,13.43328,1.08806,2.259,2.11983,4.53663,3.12391,6.83281.48343,1.162.99455,2.30549,1.43168,3.49545.23241.57637.43668,1.19921.63187,1.8128.21379.61354.35315,1.15275.59509,1.71981a35.91519,35.91519,0,0,0,3.52336,6.4703,60.85463,60.85463,0,0,0,4.48069,5.95895l.00954.00931A.30381.30381,0,0,1,307.196,235.34811Z"/><path d="M235.521,200.63257q4.73182,9.32927,9.35312,18.71139l2.30616,4.6932a23.00571,23.00571,0,0,0,2.71765,4.30889,22.7178,22.7178,0,0,0,7.896,6.25811,22.33788,22.33788,0,0,0,4.77393,1.66367c1.69109.3756,3.39671.73523,5.10007,1.08273q5.11345,1.043,10.253,1.97516c6.85585,1.22752,13.706,2.46535,20.58481,3.61367l5.15476.84092,2.56082.43208a17.83145,17.83145,0,0,0,2.50385.19321,17.43336,17.43336,0,0,0,2.50861-.16437c.85384-.10651,1.7399-.26132,2.61915-.33a30.91713,30.91713,0,0,1,5.32295-.12141,14.73419,14.73419,0,0,1,5.27006,1.21212c.10645.05.21244.11221.31957.17159.11166.06566.232.14951.30776.2018l.53222.36423,1.07853.7191c.72469.47432,1.45959.93482,2.19858,1.38941,2.96141,1.8106,6.01678,3.48068,9.13183,5.02694l1.18543.59226a3.46134,3.46134,0,0,1,1.07716.95547,3.02353,3.02353,0,0,1,.56219,1.34094,4.196,4.196,0,0,1-.09079,1.42,3.54779,3.54779,0,0,1-.59918,1.30053,3.14054,3.14054,0,0,1-1.12142.89828,5.4115,5.4115,0,0,1-2.704.44144c-.22469-.01721-.45006-.03019-.6709-.06532l-.33386-.046a2.30264,2.30264,0,0,1-.36382-.10249,8.81956,8.81956,0,0,1-1.2197-.58844c-.76985-.43463-1.512-.89916-2.24919-1.3719l-1.096-.72238a3.09264,3.09264,0,0,0-1.07625-.52739,2.13493,2.13493,0,0,0-2.10644.588,3.26435,3.26435,0,0,0-.76463,2.20109,4.29881,4.29881,0,0,0,.59872,2.31858,1.53634,1.53634,0,0,0,.79324.68881,4.2054,4.2054,0,0,0,1.19291.10141,17.87023,17.87023,0,0,0,2.54289-.30709,80.79987,80.79987,0,0,0,10.02424-2.75624l.01793-.00592a.34831.34831,0,0,1,.13641-.01577,2.22183,2.22183,0,0,1,1.428.53384,1.995,1.995,0,0,1,.53314,1.446,4.98757,4.98757,0,0,1-.1961,1.34313,7.88777,7.88777,0,0,1-.456,1.23449l-.29619-.68236a3.10525,3.10525,0,0,1,1.43463.87978,2.9589,2.9589,0,0,1,.64956,1.56392,4.91967,4.91967,0,0,1-.08193,1.57582,7.40069,7.40069,0,0,1-.45438,1.47406l-.268-.72875a1.85261,1.85261,0,0,1,.98615.9636,2.1465,2.1465,0,0,1,.06174,1.321,6.95909,6.95909,0,0,1-.91149,1.96517l-.12324.20493c-.03177.04855-.084.16043-.05651.09623a.47437.47437,0,0,0,.0236-.15791l-.00385-.04559a.60507.60507,0,0,0-.04608-.18031.57658.57658,0,0,0-.3266-.30377.517.517,0,0,0-.33658-.01953l-.03541.0092c.00431-.00275-.05765.02552.00295.00043a.983.983,0,0,1,.13641-.04227.973.973,0,0,1,.29028-.02216.82561.82561,0,0,1,.50772.32114,1.63361,1.63361,0,0,1,.13413.28642,4.00306,4.00306,0,0,1,.06151,1.20543,20.377,20.377,0,0,1-.26305,2.0448.59544.59544,0,0,1-.05583.16446,14.01875,14.01875,0,0,1-3.33771,4.1649,15.04818,15.04818,0,0,1-4.58169,2.73309,9.667,9.667,0,0,1-5.42508.47035,12.49843,12.49843,0,0,1-4.81524-2.44561,59.65612,59.65612,0,0,1-7.495-7.12951c-1.16046-1.25931-2.28778-2.54345-3.41125-3.82165l-1.6827-1.90187c-.27984-.31715-.56286-.6122-.8418-.90774a9.81287,9.81287,0,0,0-.87358-.78276,17.88135,17.88135,0,0,0-8.81249-3.76646,18.89279,18.89279,0,0,0-2.42873-.195c-.78529-.02264-1.72945-.01935-2.56422-.059-1.71674-.06522-3.42123-.16683-5.12322-.29521-6.80728-.49675-13.58982-1.16873-20.36329-1.96643-6.77028-.81746-13.53444-1.73982-20.24118-3.11774a73.09032,73.09032,0,0,1-9.97931-2.64968,16.35858,16.35858,0,0,1-2.42781-1.127c-.37585-.23772-.76282-.4635-1.12778-.71254l-1.06559-.77834a41.36967,41.36967,0,0,1-3.84678-3.50091,119.6633,119.6633,0,0,1-12.48-16.26433c-3.74148-5.70213-7.21264-11.56817-10.48022-17.5429a.093.093,0,0,1,.037-.12616.09438.09438,0,0,1,.12528.03542c3.46867,5.85036,7.18245,11.55523,11.06669,17.12526a120.2744,120.2744,0,0,0,12.73485,15.782c2.397,2.3257,4.92736,4.618,8.00361,5.637a71.71811,71.71811,0,0,0,9.77436,2.4287c3.32272.62976,6.67564,1.13956,10.03264,1.61831q5.03515.72575,10.09574,1.30733c6.74487.77169,13.51129,1.41918,20.27931,1.89033,1.69155.11663,3.38378.21835,5.0658.304.86473.04669,1.62233.0483,2.53744.08021a20.79672,20.79672,0,0,1,2.65251.23662,19.74947,19.74947,0,0,1,9.68993,4.247,11.6227,11.6227,0,0,1,1.01656.92914c.30255.32493.60509.64738.88538.97031l1.68248,1.93514c1.11166,1.28689,2.2181,2.56966,3.35268,3.82217a61.19322,61.19322,0,0,0,7.19812,7.005,10.99176,10.99176,0,0,0,4.15749,2.22485,8.15878,8.15878,0,0,0,4.60756-.34424,13.62922,13.62922,0,0,0,4.16908-2.40779,12.79013,12.79013,0,0,0,3.09758-3.67533l-.05561.16411c.12324-.62413.2306-1.27587.28893-1.89512a3.6506,3.6506,0,0,0,.00544-.77625.07937.07937,0,0,0,.03246.0594.43777.43777,0,0,0,.31071.18686.324.324,0,0,0,.168.00012.309.309,0,0,0,.07535-.03114c.03972-.02282-.0404.01728-.0556.02111l-.09306.03265a.70922.70922,0,0,1-.39854-.01655.6471.6471,0,0,1-.34476-.32819.63714.63714,0,0,1-.05288-.19358l-.00136-.061a.766.766,0,0,1,.03495-.21881,1.70008,1.70008,0,0,1,.175-.34331l.13822-.21833a5.97225,5.97225,0,0,0,.80912-1.60481c.12233-.54769.0438-.79726-.39514-1.02214l-.01748-.009a.55291.55291,0,0,1-.25057-.72,6.425,6.425,0,0,0,.40649-1.22751,3.88945,3.88945,0,0,0,.09851-1.24656,1.93392,1.93392,0,0,0-.38879-1.03084,2.13194,2.13194,0,0,0-.94825-.59512l-.03246-.01267a.49052.49052,0,0,1-.27893-.63522l.015-.03471a5.48685,5.48685,0,0,0,.59872-2.13688,1.11435,1.11435,0,0,0-.246-.81843,1.38294,1.38294,0,0,0-.82819-.296l.15411-.02167a87.472,87.472,0,0,1-10.17881,2.601,18.48747,18.48747,0,0,1-2.64593.29818,4.76938,4.76938,0,0,1-1.399-.13893,2.16883,2.16883,0,0,1-1.1473-.96857,4.91661,4.91661,0,0,1-.68088-2.67714,3.86714,3.86714,0,0,1,.9512-2.60853,2.7379,2.7379,0,0,1,2.69154-.73888,3.68048,3.68048,0,0,1,1.25556.61849l1.08147.72424c.72515.47514,1.45869.94073,2.21357,1.35054a8.35532,8.35532,0,0,0,1.13662.5374,1.78824,1.78824,0,0,0,.26464.07413l.31389.03988c.2104.03166.42034.041.63028.05525a4.8258,4.8258,0,0,0,2.39581-.40292,2.51976,2.51976,0,0,0,1.36768-1.78879,3.59869,3.59869,0,0,0,.06877-1.17551,2.35641,2.35641,0,0,0-.45075-1.04079,2.78654,2.78654,0,0,0-.87176-.75776l-1.1591-.56387c-3.13571-1.54015-6.24124-3.14479-9.27777-4.88894-.75669-.44008-1.51043-.8867-2.25578-1.34857l-1.11461-.70388-.5556-.36056c-.10531-.06889-.16523-.10748-.2424-.15067-.08488-.04321-.16772-.09057-.25987-.13062a13.76877,13.76877,0,0,0-4.892-.98174,29.73016,29.73016,0,0,0-5.11482.24092c-.85746.08778-1.68724.25488-2.55968.38539a18.7959,18.7959,0,0,1-2.69972.242,19.25394,19.25394,0,0,1-2.7097-.14389l-2.60508-.3753-5.1736-.799c-6.88105-1.10639-13.773-2.23491-20.62135-3.58121q-5.14035-.99143-10.26528-2.07807c-1.70857-.36547-3.41079-.74105-5.11891-1.13738a23.76867,23.76867,0,0,1-5.06353-1.81808,23.39947,23.39947,0,0,1-8.2208-6.78859,24.15327,24.15327,0,0,1-2.74579-4.58261l-2.197-4.74517q-4.37027-9.50177-8.65975-19.04206a.093.093,0,0,1,.16773-.08006Z"/><path d="M291.60929,175.606c1.38265,2.28809,2.72423,4.59865,4.07715,6.903,1.36155,2.29954,2.68179,4.62182,4.00815,6.94064q3.99442,6.94829,7.9076,13.941l-.04335-.07007c4.5776,6.46981,9.20786,12.90669,13.74007,19.40715,2.2669,3.24967,4.5506,6.489,6.90488,9.6679a55.25572,55.25572,0,0,0,3.67815,4.5919l.2483.24.21924.16447c.21584.10729.43169.19931.65888.28881.44825.18178.91193.33777,1.3763.48927.93258.29641,1.88628.53563,2.845.75329a54.4355,54.4355,0,0,0,11.77912,1.02087,47.84977,47.84977,0,0,1,5.96207.54206,42.07067,42.07067,0,0,1,5.86766,1.25754,22.26884,22.26884,0,0,1,10.445,6.01235,13.90608,13.90608,0,0,1,1.82569,2.53785,7.10518,7.10518,0,0,1,.83567,3.17283,6.67546,6.67546,0,0,1-.7551,3.25486,2.37292,2.37292,0,0,1-.30617.44106,1.26789,1.26789,0,0,1-.78643.44816,1.10134,1.10134,0,0,1-.63413-.10915,1.464,1.464,0,0,1-.35928-.27376,2.39053,2.39053,0,0,1-.33976-.48677,7.71318,7.71318,0,0,1-.54244-1.59241l1.58465-.02011a14.07592,14.07592,0,0,1-.36836,1.44355,5.93692,5.93692,0,0,1-.65615,1.48463,2.44368,2.44368,0,0,1-.35247.421,1.42046,1.42046,0,0,1-.776.37077,1.30934,1.30934,0,0,1-.91783-.25392,1.88124,1.88124,0,0,1-.428-.43756,5.62853,5.62853,0,0,1-.70745-1.49984l1.65865-.08073a10.75635,10.75635,0,0,1-.64185,1.951,5.46913,5.46913,0,0,1-.55107.97242,2.376,2.376,0,0,1-1.13935.9035,1.72465,1.72465,0,0,1-.94348.04855,2.14069,2.14069,0,0,1-.734-.3413,3.72038,3.72038,0,0,1-.8527-.88286,10.68193,10.68193,0,0,1-.998-1.802l1.74965-.34233a7.86872,7.86872,0,0,1-.32115,2.04261,2.95818,2.95818,0,0,1-.62278,1.14461,1.70863,1.70863,0,0,1-.80754.50133,1.75981,1.75981,0,0,1-.9664-.01727,2.98541,2.98541,0,0,1-1.1162-.68054,6.79589,6.79589,0,0,1-.719-.76436,16.45491,16.45491,0,0,1-1.113-1.57751.824.824,0,0,1-.076-.151l-.00795-.02178a6.59778,6.59778,0,0,0-.62528-1.38912,4.58717,4.58717,0,0,0-2.13367-1.786c-.39446-.15959-1.00794-.31121-1.54766-.47333l1.12369-1.46287a14.7071,14.7071,0,0,1,1.62959,3.78432,4.71651,4.71651,0,0,1,.13913,1.19523,2.355,2.355,0,0,1-.53994,1.52276,2.15449,2.15449,0,0,1-1.52882.6927,4.32211,4.32211,0,0,1-1.227-.11495,14.19579,14.19579,0,0,1-1.95256-.64954c-.60848-.23522-1.20267-.48394-1.79845-.73286q-1.77507-.76006-3.51746-1.56451c-4.64864-2.14464-9.18812-4.47136-13.724-6.81427-2.21674-1.04959-4.633-2.07552-6.91236-3.17326q-3.46129-1.63483-6.89126-3.33628c-2.28551-1.13657-4.55854-2.30205-6.783-3.56251-1.11325-.62805-2.21924-1.27068-3.29867-1.961-.5379-.34837-1.07285-.70226-1.58215-1.09713a5.44562,5.44562,0,0,1-1.38652-1.37.09234.09234,0,0,1,.153-.10328l.00954.013a5.3033,5.3033,0,0,0,1.409,1.20146c.52519.34837,1.074.66631,1.62278.98186,1.1044.62214,2.23694,1.19815,3.37629,1.75943,2.28347,1.11424,4.59485,2.176,6.9135,3.221,4.65931,2.0959,9.308,3.99516,14.06645,6.048q6.8521,3.35225,13.80748,6.4706,1.73524.77731,3.483,1.50178c.58216.23537,1.16614.47191,1.74829.6892a12.67864,12.67864,0,0,0,1.6734.54418,1.81312,1.81312,0,0,0,.84975.03523,1.84325,1.84325,0,0,0-.04653-.95014,12.95394,12.95394,0,0,0-1.38992-3.20874l-.01929-.03337a.98341.98341,0,0,1,1.143-1.42961c.55878.17279,1.069.28172,1.74421.54458a6.49613,6.49613,0,0,1,1.73285,1.04945,6.42346,6.42346,0,0,1,1.31344,1.5394,8.4871,8.4871,0,0,1,.77553,1.752l-.084-.17247a14.64757,14.64757,0,0,0,.95006,1.391,4.97009,4.97009,0,0,0,.50863.5609,1.38131,1.38131,0,0,0,.39559.28634c.01226-.00677-.01293.00106-.07512.00848-.05288.01386-.07921.05229-.05584.02477a1.24324,1.24324,0,0,0,.219-.43931,6.17063,6.17063,0,0,0,.25624-1.518l.00114-.02435a.91326.91326,0,0,1,1.74852-.318,9.01752,9.01752,0,0,0,.78824,1.48611,2.063,2.063,0,0,0,.42532.47544c.14163.08938.09737.05887.08126.06583a.72479.72479,0,0,0,.28415-.26805,3.77135,3.77135,0,0,0,.377-.652,9.14747,9.14747,0,0,0,.55038-1.59675l.00568-.02257a.86027.86027,0,0,1,1.65319-.05817,4.28021,4.28021,0,0,0,.44485,1.03c.03313.05418.06808.08151.04811.06647a.45433.45433,0,0,0-.27076-.05139c-.14571.02729-.16319.06036-.16319.06036a.91771.91771,0,0,0,.0926-.11408,4.84614,4.84614,0,0,0,.47639-1.05656,12.6502,12.6502,0,0,0,.3527-1.25082l.00591-.02534a.80912.80912,0,0,1,1.57875.00522,6.5005,6.5005,0,0,0,.37221,1.23116l.07467.128a.2341.2341,0,0,0-.07126-.043.46485.46485,0,0,0-.2744-.046c-.19178.02951-.2079.11385-.17408.0611a.88456.88456,0,0,0,.11825-.16716,5.21819,5.21819,0,0,0,.62233-2.4672,5.6728,5.6728,0,0,0-.60508-2.54261,13.282,13.282,0,0,0-1.56332-2.33449,20.95332,20.95332,0,0,0-9.724-6.02482,42.47621,42.47621,0,0,0-11.58711-2.01632,65.35086,65.35086,0,0,1-11.88579-1.03341c-.9798-.19738-1.95687-.4172-2.92169-.69816-.48184-.1442-.96232-.29288-1.43758-.47206-.23672-.08547-.47821-.18547-.71153-.28793a4.25853,4.25853,0,0,1-.39264-.25643l-.298-.26439a55.44906,55.44906,0,0,1-3.94552-4.532c-2.4959-3.0971-4.90329-6.25471-7.30092-9.41953-4.78006-6.34154-9.30977-12.85657-13.81-19.39541l-.00545-.00786-.03813-.06253q-3.7939-7.05805-7.48726-14.17117c-1.23944-2.36655-2.485-4.72963-3.689-7.11546-1.21289-2.381-2.43713-4.75584-3.62028-7.1531a.093.093,0,0,1,.163-.08929Z"/><path d="M328.00679,266.3461a12.289,12.289,0,0,0,3.81455,1.041,11.45327,11.45327,0,0,0,3.90807-.21437,11.20731,11.20731,0,0,0,3.57965-1.47677,13.12841,13.12841,0,0,0,1.57262-1.13054c.49591-.41335.93713-.89382,1.40694-1.33362l.04766-.04451a.46474.46474,0,0,1,.63527.67851l-.01884.01669c-.525.44064-1.0177.91511-1.56649,1.321a13.87235,13.87235,0,0,1-1.729,1.09658,12.092,12.092,0,0,1-7.86788,1.31717A12.40218,12.40218,0,0,1,328.00679,266.3461Z"/><path d="M328.00679,270.36213a11.77015,11.77015,0,0,0,3.95595,1.81176,10.14266,10.14266,0,0,0,4.29072.1748,6.76861,6.76861,0,0,0,1.0438-.244,4.962,4.962,0,0,0,1.01316-.34213c.32728-.1433.6616-.26828.98116-.42439l.92215-.54484a5.27165,5.27165,0,0,0,.87971-.60708l.845-.65681c.52973-.47967,1.024-1.00166,1.5363-1.49674l.04267-.04126a.46476.46476,0,1,1,.64594.66842l-.0168.01557c-.56672.4957-1.11189,1.01192-1.69359,1.484l-.92623.64546a5.72353,5.72353,0,0,1-.9596.58945l-1.00068.52073c-.34566.14716-.70653.2622-1.05787.39365a5.36586,5.36586,0,0,1-1.08352.303,7.19581,7.19581,0,0,1-1.10621.197,10.49174,10.49174,0,0,1-4.41828-.41109A11.88465,11.88465,0,0,1,328.00679,270.36213Z"/><path d="M328.00679,274.71284a12.29,12.29,0,0,0,3.96412,1.66869,10.08254,10.08254,0,0,0,4.24079.07535,5.70955,5.70955,0,0,0,1.02451-.26192,5.315,5.315,0,0,0,.99114-.36078l.9562-.44507.88719-.57394.4419-.2857.4024-.344.80345-.68456c.5034-.49232.96119-1.03506,1.4428-1.54611l.04358-.0462a.46468.46468,0,0,1,.67634.6374l-.01634.01642c-.53722.516-1.047,1.05636-1.60439,1.545l-.8872.67853-.4428.33755-.4848.27951-.96867.55387-1.03654.41778a5.75714,5.75714,0,0,1-1.06445.32416,6.10885,6.10885,0,0,1-1.089.21669,10.434,10.434,0,0,1-4.37311-.30867A12.40322,12.40322,0,0,1,328.00679,274.71284Z"/><path d="M348.97561,248.27394l6.6652,4.31051a.46561.46561,0,1,1-.50567.782.53162.53162,0,0,1-.044-.03224Z"/><path d="M355.366,248.27394a17.40956,17.40956,0,0,1,3.49205.59521,9.55583,9.55583,0,0,1,3.25146,1.50889,4.706,4.706,0,0,1,1.23558,1.38562,3.10292,3.10292,0,0,1,.37517.8762,7.30279,7.30279,0,0,1,.21879.87952l.75284,3.45566a.465.465,0,1,1-.90876.198l-.00545-.03006-.52428-3.49766a6.6934,6.6934,0,0,0-.15207-.84651,2.53516,2.53516,0,0,0-.268-.76007,4.18227,4.18227,0,0,0-1.01861-1.30137,9.22169,9.22169,0,0,0-3.02654-1.64659A17.29634,17.29634,0,0,0,355.366,248.27394Z"/><path d="M360.80443,246.43325l4.51043,3.00674a11.89008,11.89008,0,0,1,2.096,1.79462,5.79838,5.79838,0,0,1,1.37562,2.4889.2521.2521,0,0,1,.007.04981l.00091.02642.08851,2.58994a.46509.46509,0,1,1-.92964.03178c-.00045-.01025-.00022-.02167,0-.03178l.08852-2.58994.00772.07586a5.14355,5.14355,0,0,0-1.074-2.27721,11.42262,11.42262,0,0,0-1.889-1.85177Z"/><path d="M364.61127,246.43325l3.74647,2.65388c.61757.45684,1.259.836,1.88265,1.35721a3.25345,3.25345,0,0,1,1.14321,2.1897l.00046.00517.00091.02736.09169,2.30076a.46519.46519,0,0,1-.92964.037c-.00045-.01209-.00045-.02511,0-.037l.09147-2.30076.00136.03216a2.57452,2.57452,0,0,0-.78506-1.843c-.51135-.50575-1.15592-.96606-1.72923-1.468Z"/><path d="M317.43057,290.46346c7.46365,1.23967,14.85264,2.76971,22.23936,4.28882,3.69336.75979,7.36947,1.58849,11.0424,2.43259q2.75724.62361,5.52789,1.15921c.92328.15578,1.85065.35883,2.77779.448l1.39219.1627,1.36132.0071-.167.50757a11.82552,11.82552,0,0,1-3.13662-8.7454,13.81552,13.81552,0,0,1,1.22469-4.61045c.31116-.73712.7517-1.4028,1.12618-2.111l1.37789-1.94907-.03858.05044a19.499,19.499,0,0,0,2.55582-9.36289c.00159-.38409.02292-.8582.0463-1.32716a10.63842,10.63842,0,0,1,.17454-1.378c.079-.45494.21606-.89121.32387-1.33787.1498-.42758.286-.86438.45438-1.28287a25.84132,25.84132,0,0,1,2.5363-4.66391l1.453-2.12359a17.29684,17.29684,0,0,0,1.25306-2.03348c.074-.16038.10939-.28236.17453-.44262l.18112-.63409c.1246-.42429.26418-.84711.40966-1.26838a20.47455,20.47455,0,0,1,1.06627-2.47271,12.62766,12.62766,0,0,1,3.45891-4.22854,9.87577,9.87577,0,0,1,5.11459-1.97626l-.05832,1.39521-6.76507-1.62813c-1.12891-.26432-2.24965-.56862-3.37493-.851-1.12483-.285-2.24852-.57446-3.369-.88071a.09318.09318,0,0,1,.037-.18224c1.15116.1534,2.29913.32363,3.4462.49827,1.14661.1773,2.29754.33267,3.44052.528l6.86561,1.12983a.70287.70287,0,0,1-.015,1.38938l-.04312.0059a8.46907,8.46907,0,0,0-4.2367,1.88584,11.04872,11.04872,0,0,0-2.835,3.75937,18.5822,18.5822,0,0,0-.91466,2.25112c-.12506.38916-.24557.78027-.35338,1.17836l-.15842.60168c-.07944.24091-.17022.5295-.27235.75739a15.4511,15.4511,0,0,1-1.41126,2.33945l-1.44847,2.10288c-1.87267,2.77386-3.49636,5.65308-3.43508,8.93562a19.1457,19.1457,0,0,1-.92623,5.24673,18.4144,18.4144,0,0,1-2.28891,4.81975l-.02769.03691-.01112.01384-1.42215,1.74784c-.38765.635-.85383,1.23694-1.18588,1.90509a12.9519,12.9519,0,0,0-1.39673,4.233,10.33452,10.33452,0,0,0,2.81184,8.24986l.02905.02978a.28131.28131,0,0,1-.19609.4779l-1.46958.02576-1.42646-.10261c-.95506-.05989-1.887-.20356-2.83544-.286-1.88266-.22365-3.76168-.47322-5.63185-.762q-5.6231-.81077-11.15724-2.05467c-7.37923-1.63693-14.70988-3.4766-21.93727-5.72489a.09317.09317,0,0,1,.04335-.18081Z"/><path d="M339.82948,383.85427l-4.70084-15.17879c-1.57013-5.05411-3.17838-10.10328-4.94324-15.07262-.42147-1.22815-.85066-2.56465-1.18565-3.84489-.35429-1.27865-.68044-2.57985-1.00159-3.861-.62551-2.60476-1.246-5.14912-1.81819-7.75332-1.14435-5.17434-2.276-10.36156-3.2896-15.55565l-.01157-.073-1.26917-6.40788-1.19178-6.49646-2.31729-13.00089-2.293-13a27.4981,27.4981,0,0,0-1.97366-6.20776,24.42546,24.42546,0,0,0-3.51111-5.475,21.59925,21.59925,0,0,0-4.86017-4.27671,15.40008,15.40008,0,0,0-6.0229-2.16,19.55271,19.55271,0,0,0-12.29478,2.91874,21.98237,21.98237,0,0,0-8.428,9.39933,23.67546,23.67546,0,0,0-2.14434,12.44284,118.5752,118.5752,0,0,0,5.05377,25.64022,126.92617,126.92617,0,0,0,10.20627,24.08726c2.07239,3.85513,4.39512,7.54471,6.803,11.22377,2.3368,3.74315,4.73806,7.45058,6.9918,11.2352l6.73488,11.35368c1.12619,1.88779,2.26531,3.76738,3.45777,5.61068a32.47462,32.47462,0,0,0,3.95006,5.232l.005.005a.0928.0928,0,0,1-.12778.13456,32.68113,32.68113,0,0,1-4.23444-5.09369c-1.2837-1.79487-2.51292-3.62538-3.72854-5.46332-2.40829-3.69027-4.73965-7.425-7.10982-11.13021l-7.2292-11.01179c-2.48342-3.636-4.92849-7.35454-7.10075-11.21333a120.58706,120.58706,0,0,1-15.38895-50.5,24.843,24.843,0,0,1,2.512-13.21318,22.648,22.648,0,0,1,9.18176-9.75206,22.6087,22.6087,0,0,1,6.28345-2.42772,18.18557,18.18557,0,0,1,6.72308-.28916,16.88616,16.88616,0,0,1,6.26711,2.39519,22.23651,22.23651,0,0,1,4.97252,4.45487,25.21966,25.21966,0,0,1,3.54561,5.6367,28.09405,28.09405,0,0,1,2.096,6.318l1.23786,6.488c.41125,2.16088.87879,4.31166,1.31547,6.4678l5.46866,25.8997-.01135-.07268,1.667,7.76682,1.61484,7.77283c.53336,2.57625,1.1364,5.18632,1.71719,7.73905.30754,1.29164.6103,2.56343.9478,3.84151.32183,1.28551.68815,2.478,1.10984,3.75977,1.64888,5.06027,3.096,10.15816,4.52359,15.26441,1.39514,5.11449,2.739,10.24105,3.98069,15.39435a.093.093,0,0,1-.1793.04885Z"/><path d="M343.3,383.09142c-.15206-4.77477-.14593-9.55925.1321-14.33088.26009-4.77149.65569-9.54261,1.36585-14.27313.72719-4.7287,1.70767-9.413,2.69359-14.084.97549-4.67369,1.94484-9.34545,3.02723-14.00474A120.03469,120.03469,0,0,1,354.523,312.6014c.81888-2.25652,1.70131-4.49329,2.677-6.69624a55.79712,55.79712,0,0,1,3.3116-6.46525c.1675-.27009.31117-.50865.52134-.81182l.53722-.72957,1.09486-1.43117q1.1044-1.42169,2.24284-2.815c1.53722-1.84231,3.11279-3.6552,4.77779-5.38894a59.85361,59.85361,0,0,1,5.273-4.92936,25.90785,25.90785,0,0,1,2.92918-2.12993,13.3862,13.3862,0,0,1,3.26735-1.55864.093.093,0,0,1,.11552.06321.09595.09595,0,0,1-.0522.11161,22.10654,22.10654,0,0,0-5.61164,4.24187c-1.69972,1.637-3.25305,3.425-4.7973,5.21489-1.52224,1.81113-3.017,3.64756-4.45142,5.5326q-1.08942,1.40236-2.14729,2.8288l-1.04493,1.43313-.5143.716c-.13028.18594-.29868.45543-.44507.69181a88.41053,88.41053,0,0,0-6.08259,12.72671c-.86473,2.20281-1.704,4.42072-2.465,6.668q-1.18713,3.35566-2.22446,6.77083a110.54335,110.54335,0,0,0-3.32341,13.87642c-.79074,4.69636-1.269,9.43786-1.75555,14.165-1.10009,9.44314-1.92555,18.90435-2.86971,28.41055a.09316.09316,0,0,1-.18589-.00553Z"/><path d="M407.169,296.12782q-5.02392,12.80463-10.77708,25.30951c-3.80933,8.34373-7.85721,16.57843-12.07348,24.72678q-1.58443,3.05391-3.2526,6.06415l-3.30707,6.03516-3.33975,6.01617c-1.13232,1.99443-2.29709,3.97139-3.475,5.93983-4.68836,7.88723-9.67609,15.60023-15.01651,23.05555,4.73625-7.85208,9.29343-15.79235,13.75936-23.78007l3.31138-6.01217,3.21583-6.064c2.138-4.04538,4.38174-8.03246,6.45572-12.11213,4.23852-8.11062,8.34722-16.28955,12.41756-24.49109Z"/><path d="M381.48956,247.34144a55.40332,55.40332,0,0,1,13.54375,2.97245,36.41893,36.41893,0,0,1,12.00971,6.80652,22.78356,22.78356,0,0,1,7.18291,11.62307,22.11133,22.11133,0,0,1-1.14435,13.477,21.20214,21.20214,0,0,0-6.6441-24.39461,35.27314,35.27314,0,0,0-11.85174-6.19131,53.91877,53.91877,0,0,0-13.18334-2.43584l-.04834-.00271a.92987.92987,0,0,1,.10372-1.85685Z"/><path d="M231.87779,143.72089a217.72774,217.72774,0,0,0-21.10137,10.62065,57.917,57.917,0,0,0-9.50291,6.72947,13.60413,13.60413,0,0,0-3.3999,4.35881l-.23876.61485-.21812.71332-.43667,1.423c-.29641.94135-.586,1.88188-.84975,2.82124a27.35363,27.35363,0,0,0-1.01974,11.54572c.14957.96518.36132,1.92239.5438,2.88395l.81026,2.82785a54.98966,54.98966,0,0,0,2.23263,5.44975c3.33952,7.1375,8.02811,13.53232,12.70535,19.84607l-1.02042-.22946,14.14338-7.84519,7.09734-3.8751c2.36381-1.29521,4.75622-2.538,7.13275-3.80964l-.43872,1.16373c-1.005-2.7255-2.00022-5.47164-3.04425-8.1915-1.03676-2.72444-2.12187-5.42944-3.22377-8.1264-1.09328-2.70049-2.23059-5.38359-3.47638-8.01189-.61689-1.31706-1.25442-2.62436-1.96187-3.8909a13.67649,13.67649,0,0,0-2.517-3.49127l-.0084-.00734a.09269.09269,0,0,1,.11644-.144,12.813,12.813,0,0,1,2.87743,3.35684c.80821,1.23079,1.56082,2.49547,2.26485,3.78356,1.39991,2.58107,2.68928,5.21544,3.93508,7.86811,1.23467,2.65792,2.38855,5.35,3.52881,8.047,1.13027,2.70286,2.25555,5.40114,3.29072,8.15027a.9428.9428,0,0,1-.42941,1.15884l-.00953.00515c-2.3645,1.29419-4.71333,2.61714-7.09053,3.88772l-7.12617,3.82226-14.30316,7.5495-.01884.00983a.78129.78129,0,0,1-1.002-.23934,121.02178,121.02178,0,0,1-12.01879-20.5149,55.551,55.551,0,0,1-2.17-5.54657l-.84611-2.86247-.60872-2.92846a29.93577,29.93577,0,0,1,.48389-11.93864c.2206-.97608.46345-1.93789.71152-2.89566l.35974-1.43129.17884-.71421.25329-.78255a10.361,10.361,0,0,1,1.59328-2.7528,17.16355,17.16355,0,0,1,2.08805-2.26764,37.19846,37.19846,0,0,1,4.76009-3.7253c1.66363-1.11543,3.36063-2.16848,5.10574-3.12788a115.42641,115.42641,0,0,1,10.70672-5.21644q5.44914-2.379,11.09574-4.24467a.093.093,0,0,1,.11756.05912A.09528.09528,0,0,1,231.87779,143.72089Z"/><path d="M313.26342,212.78518a299.12542,299.12542,0,0,1-11.57119-46.22064s.61453-12.206-21.09867-12.39109c0,0,8.625,9.78815,10.93421,21.47718l14.5342,26.54073Z" fill="#020202"/><path d="M234.46561,117.75279a77.34979,77.34979,0,0,1,8.84223,1.7246,76.43522,76.43522,0,0,1,8.61731,2.62611,76.43821,76.43821,0,0,1-8.842-1.7246A77.35175,77.35175,0,0,1,234.46561,117.75279Z"/><path d="M353.49179,316.95169c-.13028.02791-.26963.04647-.39991.07438v-.01861Z" fill="#fff"/><path d="M470.558,298.01915c10.10913-.70525,20.21191-1.48538,30.22026-2.85683a102.44177,102.44177,0,0,0,14.78388-2.87062,23.92052,23.92052,0,0,0,3.41692-1.28892,6.09106,6.09106,0,0,0,1.38379-.8898,1.52794,1.52794,0,0,0,.35542-.462c.03495-.13107.0749-.20188.01362-.33391a2.59784,2.59784,0,0,0-.98366-.95892,11.05332,11.05332,0,0,0-1.5699-.80226,29.89243,29.89243,0,0,0-3.50225-1.18009,116.8678,116.8678,0,0,0-14.81452-2.888q-3.75441-.528-7.52925-.935c-2.51678-.26146-5.03924-.46887-7.56306-.66165-10.0962-.78038-20.2346-.94833-30.3569-.82864-10.12365.155-20.23959.53129-30.329,1.19479-5.044.33743-10.0803.77076-15.0939,1.34852-5.00724.59728-10.022,1.21845-14.91551,2.28063a34.00822,34.00822,0,0,0-7.02993,2.1621,5.8455,5.8455,0,0,0-1.36768.87125,1.31288,1.31288,0,0,0-.34294.43024c-.05561.111-.02133.14568-.00658.24816a2.47043,2.47043,0,0,0,.90853.8965,10.60794,10.60794,0,0,0,1.5438.80407,41.57662,41.57662,0,0,0,7.11663,2.10873c2.45051.53969,4.93439.9737,7.42621,1.3611q7.48021,1.14618,15.04442,1.87649c5.03652.48831,10.08258.94011,15.13907,1.27179l-.00749.18576a271.66705,271.66705,0,0,1-30.38209-1.8949c-2.52245-.335-5.042-.71729-7.55171-1.2117a43.05783,43.05783,0,0,1-7.48159-2.04649,12.33707,12.33707,0,0,1-1.84-.91284,3.90628,3.90628,0,0,1-1.66886-1.80824,2.66962,2.66962,0,0,1-.13731-.80731,2.299,2.299,0,0,1,.175-.79377,3.09606,3.09606,0,0,1,.78869-1.077,7.5817,7.5817,0,0,1,1.8098-1.18789,35.55321,35.55321,0,0,1,7.45095-2.34847c10.02606-2.1577,20.18149-2.907,30.31649-3.5024,10.14091-.55781,20.29588-.66942,30.43792-.46706,10.14318.1814,20.27364.61323,30.398,1.20435,2.53108.15153,5.0599.34246,7.58871.54284,2.53018.18673,5.059.40473,7.58531.6686a111.39173,111.39173,0,0,1,15.09277,2.42895,31.37218,31.37218,0,0,1,3.70788,1.20682,12.57172,12.57172,0,0,1,1.81843.90847,3.98689,3.98689,0,0,1,1.635,1.715,2.28137,2.28137,0,0,1,.1523.7601,2.676,2.676,0,0,1-.15.75618,3.05993,3.05993,0,0,1-.74443,1.06534,7.574,7.574,0,0,1-1.77848,1.19212,22.26017,22.26017,0,0,1-3.69563,1.36347,103.72868,103.72868,0,0,1-15.06735,2.72057,275.88068,275.88068,0,0,1-30.39343,1.62755Z" fill="#020202"/><path d="M410.24614,407.57289c6.805-.577,13.61-.87892,20.41481-1.084,3.40262-.12848,6.805-.157,10.2074-.23263l10.20764-.077,10.2074.07322c3.40239.07777,6.80479.10254,10.20741.23224,6.80478.20427,13.60979.50763,20.41481,1.08815-6.805.58051-13.61.88387-20.41481,1.08817-3.40262.12971-6.805.15447-10.20741.23221l-10.2074.07325-10.20764-.077c-3.40239-.07558-6.80478-.10412-10.2074-.23261C423.85616,408.45183,417.05115,408.14994,410.24614,407.57289Z" fill="#020202"/><path d="M442.46,233.38a59.12576,59.12576,0,0,1,10.74417-3.13689,73.28677,73.28677,0,0,1,11.16564-1.35366l2.82364-.0732c.94189-.011,1.88379.04843,2.827.06978a55.11083,55.11083,0,0,1,5.64932.4386c.94417.0728,1.87267.26807,2.80662.42566l2.80072.49225c.924.21329,1.8393.4696,2.756.71561.91057.2683,1.84656.44773,2.73512.79031.89673.31476,1.78779.64736,2.6743.98821l1.33113.50573c.44349.16826.8611.40243,1.29255.60049.8586.40738,1.70381.84262,2.5522,1.26561.42442.21824.8452.4131,1.27144.65036.43055.24376.85043.5051,1.26373.77527a18.91427,18.91427,0,0,1,7.26869,9.05156,12.31858,12.31858,0,0,1,.579,5.83725,12.11412,12.11412,0,0,1-2.23217,5.35045,22.57129,22.57129,0,0,1-9.1316,6.64646l.40785-.607c.02065,1.45914.066,2.91828.1221,4.37743l-.75283-.77739a14.80294,14.80294,0,0,0,5.975-1.7198,15.1212,15.1212,0,0,0,4.7535-3.95084,20.98364,20.98364,0,0,0,3.01882-5.41015,22.27646,22.27646,0,0,0,1.33681-6.02922,15.98212,15.98212,0,0,0-.682-5.96018,14.08993,14.08993,0,0,0-1.1684-2.73687,10.67089,10.67089,0,0,0-1.65615-2.31083,32.23225,32.23225,0,0,0-4.8983-3.90615,53.25332,53.25332,0,0,0-5.529-3.29357c-1.90013-.9733-3.91782-1.91088-5.94346-2.92821-2.02609-1.02211-4.03925-2.12959-5.9943-3.35088a50.35542,50.35542,0,0,1-10.43119-8.99154,64.44067,64.44067,0,0,1-7.8066-11.13671l-1.60735-2.97161-1.4319-3.05282c-.98184-2.01654-1.75987-4.12588-2.60031-6.19389l.33772-.15582c4.35291,7.76667,9.17382,15.2824,15.31973,21.42817a51.35242,51.35242,0,0,0,10.17177,7.90663c1.85224,1.09314,3.76939,2.089,5.74487,3.02531,1.98048.93006,4.03222,1.81161,6.08237,2.89872a42.79314,42.79314,0,0,1,11.31634,8.15859,14.29687,14.29687,0,0,1,2.1423,3.16089,17.67441,17.67441,0,0,1,1.3477,3.43855,19.35476,19.35476,0,0,1,.61348,7.25577,24.11961,24.11961,0,0,1-1.86336,6.89151,22.01566,22.01566,0,0,1-3.89921,5.95056,17.47455,17.47455,0,0,1-5.80048,4.08769,16.99747,16.99747,0,0,1-3.3545,1.09305,14.62123,14.62123,0,0,1-3.54379.3586l-.78212-.01925.02906-.75831c.05583-1.45915.10145-2.91829.1221-4.37743l.00636-.43966.40172-.1676a24.31613,24.31613,0,0,0,4.81115-2.46672,14.60344,14.60344,0,0,0,3.87651-3.64225,9.86175,9.86175,0,0,0,1.01226-9.88583,16.47411,16.47411,0,0,0-7.10438-7.37c-.37812-.20775-.75987-.40748-1.14956-.59079-.397-.18286-.83023-.34561-1.24308-.51929-.83386-.34467-1.67089-.67709-2.49454-1.03735-.41648-.1688-.818-.37344-1.24625-.51293l-1.2837-.41969c-.85678-.27608-1.709-.56041-2.55537-.86258a75.1306,75.1306,0,0,0-21.356-3.27093,98.62652,98.62652,0,0,0-21.82947,2.10492Z"/><path d="M440.20653,237.912c1.23037-4.46045,2.71493-8.81523,4.28891-13.13282.76305-2.16877,1.61824-4.29915,2.43009-6.44759l2.57375-6.38783,2.71265-6.3301c.95347-2.08956,1.85792-4.19946,2.85927-6.26906,1.95188-4.16037,3.99522-8.28269,6.29458-12.29855-1.22741,4.46178-2.71061,8.81713-4.28528,13.13443-.76168,2.16923-1.62051,4.29815-2.43031,6.44743l-2.57739,6.38636-2.716,6.32868c-.95143,2.09038-1.85928,4.19883-2.8595,6.2689C444.54446,229.77194,442.50248,233.89483,440.20653,237.912Z"/><path d="M466.87968,266.93719a5.36426,5.36426,0,0,1,.79029,2.7796,5.2015,5.2015,0,0,1-.77168,2.77961,6.30711,6.30711,0,0,1-1.9521,1.98013,10.86347,10.86347,0,0,1-4.75985,1.70126,7.83166,7.83166,0,0,1-2.62165-.13017,5.52886,5.52886,0,0,1-2.45414-1.255,5.76124,5.76124,0,0,1-1.78483-5.07585,7.5292,7.5292,0,0,1,2.39831-4.46225,7.00065,7.00065,0,0,1,4.46231-1.68264,7.52886,7.52886,0,0,1,2.39853.344,9.076,9.076,0,0,1,2.34271,1.0598A6.14852,6.14852,0,0,1,466.87968,266.93719Z"/><path d="M491.5337,255.47474H428.82037a1.85871,1.85871,0,0,0-1.85928,1.85927v25.73237a1.8528,1.8528,0,0,0,1.85928,1.85927H491.5337a1.8587,1.8587,0,0,0,1.85927-1.85927V257.334A1.86469,1.86469,0,0,0,491.5337,255.47474Zm-25.32333,20.25678a6.72014,6.72014,0,0,1-2.63095,2.16607,6.80691,6.80691,0,0,1-3.39308.60429,8.86817,8.86817,0,0,1-5.70811-3.0771,10.23515,10.23515,0,0,1-2.68655-5.708,7.85475,7.85475,0,0,1,2.07307-6.33083,8.444,8.444,0,0,1,6.32159-2.78891,8.14187,8.14187,0,0,1,3.43961.82739,7.15309,7.15309,0,0,1,2.603,2.2404,10.36434,10.36434,0,0,1,1.71992,6.05195A10.531,10.531,0,0,1,466.21037,275.73152Z"/><path d="M436.39356,284.92788c.22265.75961.37,1.5192.55765,2.27881q.2441,1.13939.41852,2.27879a5.49432,5.49432,0,0,1,.27871,2.27882,4.38218,4.38218,0,0,1-.41353,1.1394,4.05694,4.05694,0,0,1-.84135,1.13941h-.27893a4.05264,4.05264,0,0,1-.84135-1.13941,4.375,4.375,0,0,1-.41375-1.1394,5.49814,5.49814,0,0,1,.27893-2.27882q.17431-1.13937.41829-2.27879c.18793-.75961.33523-1.5192.55788-2.27881Z"/><path d="M484.23269,284.92788c.22265.75961.37,1.5192.55765,2.27881q.24442,1.13939.41851,2.27879a5.49415,5.49415,0,0,1,.27871,2.27882,4.37415,4.37415,0,0,1-.41352,1.1394,4.05283,4.05283,0,0,1-.84135,1.13941h-.27894a4.05283,4.05283,0,0,1-.84135-1.13941,4.38335,4.38335,0,0,1-.41375-1.1394,5.49831,5.49831,0,0,1,.27894-2.27882q.1743-1.13937.41829-2.27879c.18792-.75961.33522-1.5192.55787-2.27881Z"/><path d="M414.74226,273.71645a28.77591,28.77591,0,0,1,3.012-.66175c1.00386-.15794,2.00794-.30644,3.012-.41121l-1.07308,1.07286a64.98315,64.98315,0,0,1-.01952-12.71725l.02043-.20963a.98167.98167,0,0,1,1.07217-.883c1.032.09912,2.06377.25437,3.09577.41169a29.26317,29.26317,0,0,1,3.09554.6808,29.26323,29.26323,0,0,1-3.09554.68081c-1.032.15732-2.06377.31257-3.09577.41168l1.0926-1.09239a64.98392,64.98392,0,0,1-.01952,12.71725l-.02134.21509a.95715.95715,0,0,1-1.04652.85851l-.00522-.00054c-1.00408-.10478-2.00816-.25329-3.012-.41121A28.77845,28.77845,0,0,1,414.74226,273.71645Z"/><path d="M459.94182,239.74739c.22355,1.31064.37176,2.62133.56037,3.932q.24546,1.966.421,3.9321a16.06193,16.06193,0,0,1,.28166,3.93218,11.5171,11.5171,0,0,1-.41239,1.96646,8.08438,8.08438,0,0,1-.84,1.96675l-.27893.00019a8.09353,8.09353,0,0,1-.84271-1.96561,11.53858,11.53858,0,0,1-.41489-1.96591,16.05114,16.05114,0,0,1,.27621-3.93256q.17295-1.96629.41557-3.93265c.187-1.31092.33341-2.6218.55515-3.93274Z"/><path d="M449.21331,226.3607a24.21654,24.21654,0,0,1,5.534-1.86884,34.35772,34.35772,0,0,1,5.80774-.78946,35.41366,35.41366,0,0,1,5.85563.18652c.97208.09049,1.93235.27755,2.89286.43272.9537.201,1.89922.44106,2.83453.70038-1.94166-.1576-3.85609-.36985-5.781-.42-1.92078-.08612-3.84065-.05727-5.75485.02827-1.91625.07878-3.8216.3005-5.72445.56136-.95347.12471-1.89808.30628-2.84157.50166C451.08779,225.87228,450.15134,226.10346,449.21331,226.3607Z"/><path d="M459.08594,204.27251c.971,1.61086,2.00794,3.16384,3.06082,4.69845,1.06808,1.52456,2.17566,3.01562,3.35405,4.44646a50.56938,50.56938,0,0,0,3.7392,4.109,47.0213,47.0213,0,0,0,4.23671,3.64693,23.041,23.041,0,0,1-4.72468-3.11008,31.56625,31.56625,0,0,1-3.96957-4.0566A35.05488,35.05488,0,0,1,459.08594,204.27251Z"/><path d="M454.7353,214.98193a64.29673,64.29673,0,0,1,7.64069,3.00844,63.5615,63.5615,0,0,1,7.25213,3.85229,63.54529,63.54529,0,0,1-7.64092-3.00844A64.29546,64.29546,0,0,1,454.7353,214.98193Z"/><path d="M432.26,407.57691c22.64608-60.77042,2.74239-104.50062.24172-109.56715,6.47024.26032,13.34039.39979,20.47064.39979,6.07986,0,11.97362-.1023,17.58867-.29749-2.69586,5.5313-22.19964,49.08486.29755,109.46485Z" fill="#020202"/><path d="M335.90871,182.12091c3.21038.485,6.372,1.14689,9.51653,1.871,3.14774.7129,6.26643,1.53065,9.37967,2.36869,3.10394.87155,6.20152,1.76563,9.27051,2.764,3.07216.98721,6.12662,2.03809,9.13228,3.26712-3.21106-.48279-6.3731-1.14371-9.51744-1.8683-3.14751-.7134-6.2662-1.53113-9.37876-2.37137-3.10326-.87376-6.20107-1.76783-9.27005-2.76671C341.96951,184.39764,338.91482,183.3477,335.90871,182.12091Z"/><path d="M391.65338,150.969c3.36495,2.73041,6.60211,5.59243,9.79434,8.50075,3.20017,2.9,6.32476,5.878,9.4346,8.87116,3.08578,3.01808,6.155,6.05292,9.14907,9.1654,3.002,3.10415,5.95822,6.25567,8.78549,9.53979-3.36653-2.72874-6.60438-5.59-9.79615-8.49876-3.19994-2.90037-6.3243-5.87838-9.43278-8.87315-3.084-3.01972-6.1534-6.05455-9.147-9.16739C397.43911,157.40226,394.48247,154.25143,391.65338,150.969Z"/><path d="M371.01184,212.78517c3.71537.37814,7.39352.93587,11.05851,1.55679,3.66749.60957,7.31273,1.32561,10.95389,2.06225,3.63389.7707,7.263,1.56426,10.87036,2.46377,3.60961.88814,7.2056,1.841,10.76437,2.97468-3.71606-.37585-7.39421-.93262-11.0592-1.55407-3.66725-.61006-7.31272-1.32608-10.9532-2.065-3.63344-.77294-7.26279-1.56647-10.86991-2.46649C378.16728,214.86849,374.57084,213.91664,371.01184,212.78517Z"/><path d="M354.5582,150.969q6.5709,4.76355,12.9153,9.8c4.24578,3.33785,8.42212,6.75932,12.58506,10.197,4.1407,3.46438,8.26642,6.94672,12.32292,10.51227q6.11028,5.31793,11.98951,10.91347-6.57328-4.76107-12.91711-9.79791c-4.24555-3.33825-8.42189-6.7597-12.58347-10.1991-4.13911-3.46615-8.26483-6.94847-12.3211-10.5144Q360.44005,156.56136,354.5582,150.969Z"/><path d="M340.49609,126.20351c-1.11952-1.53934-2.71457-1.595-4.5338-.97958a1.35379,1.35379,0,0,0-.27988.11279c-.41982-.8125-.89534-1.76353-1.34371-2.63173a6.48611,6.48611,0,0,0,1.428-3.27433,1.81948,1.81948,0,0,0-1.932-1.93062,3.111,3.111,0,0,0-1.11953.16709,2.045,2.045,0,0,0-1.45509,2.32329,7.80483,7.80483,0,0,0,1.06383,2.51894l-.08425.08424.05569-.05569c-.39127.47551-.81109.97958-1.20376,1.51079a7.26334,7.26334,0,0,0-1.25946,2.54749,4.58743,4.58743,0,0,0,1.53934,4.98077,5.08522,5.08522,0,0,0,2.82736,1.14807,7.26218,7.26218,0,0,0,3.16294-.61546c.1114-.02855.16709.47552.19564.53122a3.455,3.455,0,0,1,.02854.92389c-.08425.58831-.55976.784-.95243.53121-.307-.19563-.33558-.447-.447-.55976a.74534.74534,0,0,0-.55977-.33558.54862.54862,0,0,0-.55976.44837,1.01245,1.01245,0,0,0,.1114.69971,1.96731,1.96731,0,0,0,.72825.72684c1.48225.8682,3.27432-.33557,3.02159-2.54608-.02714-.22418-.05569-.47551-.08284-.6997-.02854-.13995-.02854-.30843-.0571-.44836v-.02716c2.40754-1.67929,2.60318-3.86264,1.70784-5.15066Zm-6.94134-7.3326c.92389.05569.05571,1.65073-.16709,2.01486a2.29857,2.29857,0,0,1-.13994-.27989c-.13994-.33558-.6997-1.79068.307-1.735Zm.92389,12.23053a3.3323,3.3323,0,0,1-2.79881-4.28247,7.24256,7.24256,0,0,1,1.48365-2.686c.72685,1.34371,1.03528,1.90348,1.06383,1.95917a2.6646,2.6646,0,0,0-1.00814,1.62359.50662.50662,0,0,0,.44838.58691.75309.75309,0,0,0,.83964-.39127,1.72067,1.72067,0,0,1,.39127-.61546c.72825,1.25947,1.00814,1.53935,1.93062,3.24579a5.72984,5.72984,0,0,1-2.35044.55976Zm3.667-1.3994c-1.11953-2.01487-1.34371-2.26621-1.79209-3.10585.02856,0,.0557-.02855.08425-.02855,1.091-.27989,1.87493-.30843,2.40754.644a2.06741,2.06741,0,0,1-.6997,2.49039Zm0,0"/><path d="M445.95683,187.08256c-1.88515-.26283-3.03255.84656-3.85249,2.58325a1.35371,1.35371,0,0,0-.11311.27975c-.87626-.26187-1.8909-.57982-2.82706-.85981a6.48616,6.48616,0,0,0-1.36547-3.30089,1.81947,1.81947,0,0,0-2.73083.05036,3.111,3.111,0,0,0-.65693.92179,2.045,2.045,0,0,0,.66209,2.6602,7.80473,7.80473,0,0,0,2.55158.983l.00215.11912-.00142-.07874c.07063.61172.142,1.26383.25175,1.91524a7.2634,7.2634,0,0,0,.95927,2.675,4.58744,4.58744,0,0,0,4.65363,2.34974,5.08527,5.08527,0,0,0,2.78915-1.238,7.26227,7.26227,0,0,0,1.75276-2.70385c.05678-.1.45826.20985.51817.228a3.45516,3.45516,0,0,1,.68481.62083c.365.469.17566.94712-.27885,1.0543-.35395.08518-.55467-.06875-.71319-.06688a.74539.74539,0,0,0-.63014.16994.54862.54862,0,0,0-.06586.71417,1.01237,1.01237,0,0,0,.581.40556,1.9674,1.9674,0,0,0,1.02873-.01958c1.6539-.46417,2.03154-2.58972.265-3.94238-.1802-.13609-.38092-.29-.56113-.42611-.12054-.07661-.24182-.19357-.36236-.27016l-.01954-.01885c.46264-2.89866-.97306-4.55519-2.52169-4.80491Zm-10.09655-.09422c.68145-.62633,1.22682,1.10586,1.33424,1.519a2.29706,2.29706,0,0,1-.2986-.09358c-.33869-.13224-1.77462-.73949-1.03564-1.42543Zm9.44454,7.8256a3.33229,3.33229,0,0,1-5.02536-.95844,7.24243,7.24243,0,0,1-.90334-2.93256c1.47174.40966,2.08876.57625,2.14867.59437a2.66456,2.66456,0,0,0,.46875,1.85275.50661.50661,0,0,0,.7337.08471.75308.75308,0,0,0,.30127-.876,1.72085,1.72085,0,0,1-.17136-.70889c1.41209.35016,1.80784.343,3.67648.86366a5.72974,5.72974,0,0,1-1.22881,2.08037Zm1.53844-3.61088c-2.22743-.593-2.564-.60607-3.47959-.86623.01983-.02055.01812-.05991.03794-.08047.55592-.97954,1.0796-1.56362,2.13489-1.28579a2.06743,2.06743,0,0,1,1.30676,2.23249Zm0,0"/><path d="M430.81873,155.93626c-1.20833.58676-3.06239.841-3.68557-.24166-.62543-1.08975.64831-2.39378,1.8779-2.99054a3.86213,3.86213,0,0,1,3.03855-.31836v-5.7974l-8.56786,3.44488c-.00614,6.89391.01771,6.50113-.01869,6.60166.19752,1.05753-.97923,2.10474-2.01776,2.61322-1.20833.58773-3.06238.842-3.68556-.24167-.628-1.09137.65218-2.39539,1.88178-2.98957a3.63909,3.63909,0,0,1,3.19578-.23523v-9.57738a.32.32,0,0,1,.204-.2958l9.20844-3.703a.332.332,0,0,1,.29966.03286.32449.32449,0,0,1,.14468.26809c0,9.79361.0087,10.39036-.00257,10.42289l.00644.01031c.63317,1.091-.65347,2.39379-1.87919,2.99666Z"/><path d="M327.93991,168.12358c-1.20833.58676-3.06239.841-3.68556-.24167-.62544-1.08974.6483-2.39377,1.8779-2.99053a3.86207,3.86207,0,0,1,3.03854-.31836v-5.79741l-8.56786,3.44488c-.00613,6.89392.01771,6.50114-.01869,6.60167.19752,1.05753-.97923,2.10474-2.01776,2.61322-1.20833.58773-3.06238.84195-3.68556-.24167-.628-1.09137.65218-2.39539,1.88178-2.98957a3.63909,3.63909,0,0,1,3.19578-.23523v-9.57738a.32.32,0,0,1,.204-.2958l9.20843-3.703a.332.332,0,0,1,.29967.03285.32452.32452,0,0,1,.14468.26809c0,9.79361.0087,10.39036-.00258,10.4229l.00645.01031c.63316,1.091-.65347,2.39378-1.8792,2.99666Z"/><path d="M355.30062,217.4174c-.87709.933-2.39936,1.69677-3.2712.88215-.87218-.808-.21424-2.3929.66248-3.32414a3.15761,3.15761,0,0,1,2.65573-1.187l-2.261-6.56938a1.0777,1.0777,0,0,1,.292-1.144l3.21011-2.94816a.30721.30721,0,1,1,.416.4522l-3.214,2.94821a.46733.46733,0,0,0-.12291.49174c2.63136,7.6746,2.50318,7.20588,2.495,7.32667.46525.75405.12824,2.01366-.86212,3.07175Z"/><path d="M404.43677,205.62863c-1.23064.354-2.92946.2329-3.26278-.9128-.337-1.14018,1.03827-2.16652,2.26769-2.51919a3.15758,3.15758,0,0,1,2.88943.33627l1.41233-6.80253a1.07766,1.07766,0,0,1,.83543-.8343l4.26572-.89449a.3072.3072,0,1,1,.12656.60123l-4.26907.89255a.46735.46735,0,0,0-.35688.35995c-1.65859,7.94182-1.52933,7.4734-1.59805,7.57307.01474.8859-.91846,1.79658-2.31038,2.20024Z"/><path d="M374.32625,133.77828c-1.23064.354-2.92945.23289-3.26278-.9128-.337-1.14018,1.03827-2.16653,2.26769-2.51919a3.15761,3.15761,0,0,1,2.88944.33627l1.41233-6.80253a1.07766,1.07766,0,0,1,.83542-.8343l4.26572-.8945a.30721.30721,0,1,1,.12656.60124l-4.26907.89255a.46731.46731,0,0,0-.35687.35994c-1.6586,7.94182-1.52933,7.4734-1.59805,7.57307.01473.88591-.91847,1.79659-2.31039,2.20025Z"/></svg>