<svg id="Layer_1" data-name="Layer 1" xmlns="http://www.w3.org/2000/svg" viewBox="0 0 700 550"><title>crosssing road</title><path d="M344.02825,115.25125a14.52149,14.52149,0,0,0,3.0896-.29529,4.47418,4.47418,0,0,0,2.60278-1.32855,2.27623,2.27623,0,0,0-.00024-2.61158,4.67423,4.67423,0,0,0-2.27563-1.73583,13.0663,13.0663,0,0,0-5.97095-.72657,13.45388,13.45388,0,0,0-2.96265.61377,11.63,11.63,0,0,0-2.69116,1.33942c-.8623.55047-1.67749,1.1875-2.55518,1.79486a7.22774,7.22774,0,0,1-3.00439,1.32581,6.32472,6.32472,0,0,1-3.24292-.45392,13.96316,13.96316,0,0,1-1.46411-.65491l-1.37866-.76868a10.92574,10.92574,0,0,0-8.9253-1.01654,14.57084,14.57084,0,0,0-1.4541.53858l-.71509.314a3.10984,3.10984,0,0,1-.80542.28607.15771.15771,0,0,1-.1792-.13269l-.00024-.00189-.00268-.02063a32.05638,32.05638,0,0,1-.20289-6.64557A21.38325,21.38325,0,0,1,313.342,98.543a12.65222,12.65222,0,0,1,4.07862-5.38581,13.24785,13.24785,0,0,1,6.33935-2.41888,19.18058,19.18058,0,0,1,12.92993,3.13617,16.91681,16.91681,0,0,1,4.63135,4.91833,20.43394,20.43394,0,0,1,1.46411,3.03943c.43262,1.04639.75708,2.09564,1.07642,3.14832l-.26465-.23389a17.24312,17.24312,0,0,1,2.74683.93988,12.74529,12.74529,0,0,1,2.52221,1.41937,7.74947,7.74947,0,0,1,2.00611,2.08728,5.49784,5.49784,0,0,1,.79956,2.74671.05163.05163,0,0,1-.05054.05291.055.055,0,0,1-.05322-.05047,5.30328,5.30328,0,0,0-.93018-2.59357,7.38069,7.38069,0,0,0-2.0332-1.86609,12.53421,12.53421,0,0,0-2.4834-1.25586,16.67345,16.67345,0,0,0-2.6648-.78759.35189.35189,0,0,1-.26293-.22809l-.002-.00605a28.91706,28.91706,0,0,0-2.63891-5.92822,16.98268,16.98268,0,0,0-4.4563-4.53961,18.6245,18.6245,0,0,0-12.21509-2.95483,12.24481,12.24481,0,0,0-5.897,2.14428,12.00592,12.00592,0,0,0-3.90992,4.9339,21.18126,21.18126,0,0,0-1.633,6.2627,28.1598,28.1598,0,0,0,.01367,6.53717l-.18189-.155c.38062-.09424.91968-.371,1.38868-.55371a14.90842,14.90842,0,0,1,1.4917-.53144,13.42582,13.42582,0,0,1,3.12207-.54681,12.16159,12.16159,0,0,1,6.137,1.4386l1.39136.70068a13.39554,13.39554,0,0,0,1.42163.56519,5.64514,5.64514,0,0,0,2.91015.30066c1.90284-.39044,3.39649-1.98731,5.18848-3.12934a11.08492,11.08492,0,0,1,2.89966-1.45495,14.34044,14.34044,0,0,1,3.17383-.60614,13.61456,13.61456,0,0,1,6.34546.89654,5.34359,5.34359,0,0,1,2.52587,2.11512,2.59268,2.59268,0,0,1,.31885.79516,2.81558,2.81558,0,0,1,.11206.84906,3.18613,3.18613,0,0,1-.13134.86066,2.701,2.701,0,0,1-.45411.74628,4.7674,4.7674,0,0,1-2.93676,1.32507,12.86764,12.86764,0,0,1-3.1565.07867.05211.05211,0,0,1-.04712-.05639A.05449.05449,0,0,1,344.02825,115.25125Z"/><path d="M339.29314,103.227c-1.293-1.94361-2.469-3.89533-3.78491-5.7345a21.81493,21.81493,0,0,0-2.12817-2.59107,5.80836,5.80836,0,0,0-2.80274-1.76171,4.53984,4.53984,0,0,1,3.31665,1.17456,12.85986,12.85986,0,0,1,2.42676,2.59607A19.55629,19.55629,0,0,1,339.29314,103.227Z"/><path d="M326.46844,92.26809,324.978,95.775c-.47608,1.16657-.94312,2.32959-1.35718,3.50928-.4187,1.17816-.77124,2.37207-1.093,3.57995a33.15731,33.15731,0,0,0-.6665,3.72278,12.33994,12.33994,0,0,1-.10059-3.86615,20.12487,20.12487,0,0,1,.91773-3.76928A21.53011,21.53011,0,0,1,326.46844,92.26809Z"/><path d="M339.29314,105.21743a26.73735,26.73735,0,0,0-4.53588.26447c-1.5.19141-2.99732.40222-4.49146.656-2.99487.47052-5.97241,1.06555-9.0271,1.44525a39.41583,39.41583,0,0,1,4.36792-1.4527c1.48023-.40479,2.98316-.7226,4.49927-.979a34.79586,34.79586,0,0,1,4.59668-.445A13.85339,13.85339,0,0,1,339.29314,105.21743Z"/><path d="M326.96639,91.67663a.77868.77868,0,0,0,0-1.55642.77868.77868,0,0,0,0,1.55642Z"/><path d="M342.77947,109.45089a34.88247,34.88247,0,0,1,1.32691,3.98273,8.57525,8.57525,0,0,1,.19922,1.05725,3.32912,3.32912,0,0,1,.02221.57428l-.02246.50983a16.06354,16.06354,0,0,0,.10547,2.04394,10.408,10.408,0,0,1-.03271,2.152l-.18677,2.08026c-.12744,1.37988-.24707,2.76123-.31275,4.13782a42.05145,42.05145,0,0,1-.31591,4.21857,6.21488,6.21488,0,0,1-.77051,2.10949,8.60969,8.60969,0,0,1-1.42481,1.65827,11.978,11.978,0,0,1-3.51342,2.42279,12.89216,12.89216,0,0,1-4.10157.94372,12.60449,12.60449,0,0,0,7.041-3.92108,9.99527,9.99527,0,0,0,1.21484-1.564,5.27252,5.27252,0,0,0,.58594-1.81421c.19165-1.30457.17334-2.71.24878-4.10877q.1311-2.1046.374-4.18432a35.61006,35.61006,0,0,0,.40064-4.085,16.75693,16.75693,0,0,1,.03637-2.12811l.05957-.53076a2.69654,2.69654,0,0,0,.01221-.468,9.94893,9.94893,0,0,0-.11523-1.00537C343.41668,112.16781,343.07952,110.81277,342.77947,109.45089Z"/><path d="M331.82684,136.78152a8.68982,8.68982,0,0,1-3.48-.86261,11.30366,11.30366,0,0,1-3.01758-2.01868,11.64621,11.64621,0,0,1-2.23731-2.85351,11.13827,11.13827,0,0,1-1.25073-3.35468c.64722,1.00806,1.22583,2.00507,1.92944,2.91291a18.08579,18.08579,0,0,0,2.26416,2.53527,17.01855,17.01855,0,0,0,2.69312,2.06788A18.88529,18.88529,0,0,0,331.82684,136.78152Z"/><path d="M324.15484,111.44413s-2.458,6.10009-2.31349,8.03005l-1.16287-.31129s.23833-7.00678-3.37231-6.17264a3.17444,3.17444,0,0,0-2.30878,2.42417,6.57057,6.57057,0,0,0,2.19472,6.92356l.4358,3.05057s-3.54862,2.2344-5.35407-13.69986A12.13473,12.13473,0,0,1,324.15484,111.44413Z"/><path d="M319.74456,121.77768a1.35093,1.35093,0,0,1-.23706.88153,1.5399,1.5399,0,0,1-.75488.60223,1.2489,1.2489,0,0,1-1.06006-.11517,1.053,1.053,0,0,1-.50049-.80829,4.85857,4.85857,0,0,0,.76782.07519,1.58049,1.58049,0,0,0,.467-.09655C318.74822,122.21475,319.13616,121.98544,319.74456,121.77768Z"/><path d="M343.46429,114.92947c-1.02686.0863-1.92017.07184-2.8208.13007-.44971.00879-.89087.06091-1.34522.10052-.4602.03565-.90845.12579-1.437.16284a3.725,3.725,0,0,1,2.7312-1.26147,4.8389,4.8389,0,0,1,1.51538.17053A3.4334,3.4334,0,0,1,343.46429,114.92947Z"/><path d="M333.75237,114.93521c-1.23681.1225-2.37036.12243-3.50195.1997-.56494.02826-1.11841.09638-1.68213.15973-.5625.08026-1.11377.197-1.73413.31964a3.8864,3.8864,0,0,1,1.52808-1.07232,6.21945,6.21945,0,0,1,1.8247-.40448,7.25517,7.25517,0,0,1,1.84229.13782A5.14482,5.14482,0,0,1,333.75237,114.93521Z"/><path d="M338.895,120.84384a2.18162,2.18162,0,0,1,.84277,1.07623,1.802,1.802,0,0,1-.08764,1.54315,1.83255,1.83255,0,0,1-1.312.82379,2.51184,2.51184,0,0,1-1.34839-.20587,4.37712,4.37712,0,0,1,.593-.28711l.529-.25384a1.75739,1.75739,0,0,0,.67724-.58435A3.93807,3.93807,0,0,0,338.895,120.84384Z"/><path d="M339.91575,118.5092a.77867.77867,0,0,0,0-1.55641.77867.77867,0,0,0,0,1.55641Z"/><path d="M331.07532,118.57146a.77868.77868,0,0,0,0-1.55642.77868.77868,0,0,0,0,1.55642Z"/><path d="M338.20159,126.44693a2.32211,2.32211,0,0,1-1.08056,1.03363,4.00827,4.00827,0,0,1-1.43555.40924,4.66225,4.66225,0,0,1-1.46387-.10376,3.76616,3.76616,0,0,1-1.34082-.592,9.57688,9.57688,0,0,1,1.40308-.18579c.44677-.05323.88232-.057,1.3081-.11341A12.90144,12.90144,0,0,0,338.20159,126.44693Z"/><path d="M318.22683,140.24362c.99,2.22,1.87988,4.47,2.73,6.74,1.34009-.78,2.71-1.5,4.05982-2.24,1.45019-.76,2.90014-1.52,4.39013-2.22C324.38674,144.14364,318.52688,140.43362,318.22683,140.24362Zm74.98,43.79c-28.1101-65.73-37.42993-46.39-40.28-50.83a4.04448,4.04448,0,0,1,.43994,1.89,3.74334,3.74334,0,0,1-.7998,2.25,8.34,8.34,0,0,1-4.17017,2.25,17.002,17.002,0,0,1-2.31.42l-1.1399.14c-.35009.06-.73.14-1.09009.22a27.0016,27.0016,0,0,0-4.30981,1.37,18.34264,18.34264,0,0,0-3.90015,2.17l-.86987.7-.8.77-1.4602,1.76a11.37826,11.37826,0,0,1-1.93994,1.73,24.40638,24.40638,0,0,0,.51,4.98,25.25381,25.25381,0,0,0,1.56,5.12c.67994,1.65,1.65992,3.11,2.44,4.84a18.37753,18.37753,0,0,1,1.34008,5.39,29.90763,29.90763,0,0,1-.05,5.52,35.01623,35.01623,0,0,0-.3999,5.31,22.39951,22.39951,0,0,0,1.12988,5.23c.53,1.72,1.17994,3.41,1.79,5.12-1.57983-3.24-3.23-6.56-3.71-10.25a10.939,10.939,0,0,1-.01-2.8l.22-2.7a29.66726,29.66726,0,0,0,0-5.33,17.81484,17.81484,0,0,0-1.21-5.11c-.65014-1.59-1.67993-3.18-2.28-4.93a22.79788,22.79788,0,0,1-1.37011-10.36,10.58271,10.58271,0,0,1-1.80982,1.06,8.92239,8.92239,0,0,1-4.57007.73,9.35079,9.35079,0,0,0,4.3501-1.19,10.94092,10.94092,0,0,0,3.3999-2.87l.66016-.91.73975-.95.83007-.86.91016-.78a19.003,19.003,0,0,1,4.09985-2.35,26.50909,26.50909,0,0,1,4.5-1.37c.3899-.07.76-.14,1.17994-.2l1.15014-.1c.77-.04,1.5-.18,2.24-.29a7.88834,7.88834,0,0,0,3.97-1.81,3.41143,3.41143,0,0,0,.90992-1.94,4.46886,4.46886,0,0,0-.35987-2.21c-2.61011-5.73-9.40014-6.42-9.40014-6.42-.11988,1.89-.62989,5.03-.62989,5.03-1.99,4.78-7.96,5.69-7.96,5.69-1.33008,3.11-3.27,4.69-5.34009,5.36-1.37011.91-2.78,1.75-4.17993,2.59-1.42016.81-2.83008,1.66-4.27,2.44h-.01a.24459.24459,0,0,1-.33008-.1l-.01-.03c-.85986-2.37994-1.68994-4.76-2.38989-7.19a13.51086,13.51086,0,0,1-.46-9.71c.56006-1.49-.13013-5.14-.13013-5.14-4.23.1-5.59008,5.23-5.59008,5.23a4.75344,4.75344,0,0,0,.08007,2.4,11.17849,11.17849,0,0,0,.81006,2.25,24.26273,24.26273,0,0,0,2.51,4.12,23.45112,23.45112,0,0,1,2.46,4.37,10.24291,10.24291,0,0,1,.98,4.89,14.57764,14.57764,0,0,0-1.71-4.54c-.31006-.58-.65014-1.14-.99-1.7a48.24477,48.24477,0,0,0-1.52,5.11,36.451,36.451,0,0,0-.98,5.85,23.32209,23.32209,0,0,0,.18994,5.85c.36011,1.92.87012,3.89,1.29,5.84a63.87222,63.87222,0,0,1,1.53,11.95,25.98829,25.98829,0,0,1-.60009,6.03,15.23312,15.23312,0,0,1-2.16993,5.07.78019.78019,0,1,1-.40014-.12.79685.79685,0,0,1,.3601.09,16.05579,16.05579,0,0,0,1.71-5.14,25.3141,25.3141,0,0,0,.3-5.9,70.239,70.239,0,0,0-1.75-11.77c-.37988-1.96-.85009-3.88-1.2-5.89a21.06862,21.06862,0,0,1-.05-6.09,37.1488,37.1488,0,0,1,3.24-10.96q-.72-1.2-1.53-2.34a17.56316,17.56316,0,0,1-2.41993-4.42,9.115,9.115,0,0,1-.56006-2.48,4.46356,4.46356,0,0,1,.41993-2.47c-28.50977,2.62-26.0398,24.66-26.0398,24.66-10.45,72.46,11.57984,83.55,11.57984,83.55,1.25-.5,3.62011-5.98,3.62011-5.98a69.294,69.294,0,0,0,2.24-11.37,46.09188,46.09188,0,0,0-.08008-11.5c-.30981-1.87-.76-3.77-1.11987-5.68-.36011-1.91-.70019-3.83-.98-5.76q-.85511-5.745-1.15015-11.57l-2.59008-12.82-1.36988-6.41c-.47-2.13-.95-4.26-1.55-6.36.75,2.05,1.34008,4.17005,1.91992,6.27.58008,2.11,1.1101,4.24,1.62011,6.36,1.03,4.25,2.01,8.52,2.89014,12.8l.00977.06v.02c.22021,3.84.69018,7.69,1.23,11.51q.39038,2.865.92016,5.72c.32984,1.9.76,3.78,1.06006,5.74a34.88455,34.88455,0,0,1,.28,5.86,47.2361,47.2361,0,0,1-.51025,5.83,50.46881,50.46881,0,0,1-1.12989,5.73,51.76754,51.76754,0,0,1-1.68994,5.57c9.96,19.05,33.60987,13.82,36.73,11.07995,2.3-2.02,10.83985-6.35,15.15992-8.49a119.59918,119.59918,0,0,1-11.7,4.72,61.8326,61.8326,0,0,1-14.08007,3.32c-.59986.07-1.23.02-1.83985.04-.3,0-.61011.02-.91992-.01l-.93018-.1-.91992-.11c-.3-.06006-.60009-.15-.8999-.22a15.34358,15.34358,0,0,1-1.76025-.5,34.07749,34.07749,0,0,1-6.60987-3.02,62.242,62.242,0,0,1-11.49-8.7c1.88013,1.5,3.79,2.94,5.78,4.27a65.83889,65.83889,0,0,0,6.08985,3.74c4.19018,2.19,8.72021,4.12,13.42016,3.57a66.72888,66.72888,0,0,0,13.91992-3.03c2.29-.69,4.56006-1.46,6.81006-2.26,2.25-.77,4.46-1.61,6.67993-2.46.02-.01.05-.02.07007-.03.57007-.28.8999-.44.8999-.44l3.49-9.63c1.13012-3.21,2.28-6.42,3.3601-9.65,1.09009-3.22,2.11988-6.47,3.11011-9.72.46973-1.64.98-3.27,1.37988-4.92.45-1.55.78-3.13,1.17993-4.71-1.2-1.69-2.34985-3.43-3.42993-5.2a60.424,60.424,0,0,1-4.7-9.21c-.59009-1.66-1.12012-3.21-1.84009-4.75a48.17971,48.17971,0,0,0-2.35986-4.5c-.8501-1.47-1.78027-2.9-2.76025-4.3-.95-1.42-1.98-2.78-3.0398-4.13a49.07247,49.07247,0,0,1,6.48,8.01,37.6403,37.6403,0,0,1,2.57007,4.5,49.56356,49.56356,0,0,1,1.91992,4.8,83.13939,83.13939,0,0,0,4.41992,9.18c.81006,1.5,1.66016,2.98,2.53,4.45.84986,1.49,1.74,2.95,2.63013,4.42-.83008-1.05-1.62012-2.14-2.40015-3.23a76.09941,76.09941,0,0,1-1.81,9.8c-.80982,3.32-1.82984,6.59-2.89991,9.84-1.10009,3.24-2.29,6.45-3.60009,9.61-1.30982,3.16-2.67994,6.29-4.23,9.34,3.23,8.47,15.94019,17.43,15.94019,17.43C404.03665,200.84366,393.20681,184.03366,393.20681,184.03366Zm-54.04,6.57a.78046.78046,0,0,1,0,1.56A.78046.78046,0,0,1,339.16677,190.60366Zm11.27,34.72c1.81006-.46,3.63013-.85,5.48-1.13a14.849,14.849,0,0,1-2.72-3.59,15.76682,15.76682,0,0,1-1.04-2.29,17.78412,17.78412,0,0,1-.58007-2.45,17.10892,17.10892,0,0,1-.04-5,18.04592,18.04592,0,0,1,1.33007-4.79,18.54558,18.54558,0,0,0-1.15991,4.82,16.90691,16.90691,0,0,0,.16992,4.92,16.31231,16.31231,0,0,0,.6399,2.37,16.04174,16.04174,0,0,0,1.06006,2.21,16.50617,16.50617,0,0,0,3.09008,3.78.27154.27154,0,0,1,0,.39.25975.25975,0,0,1-.15991.09,55.01318,55.01318,0,0,0-5.90015,1.3c-1.95.54-3.87988,1.15-5.77,1.85a67.76022,67.76022,0,0,0-10.91993,5.18h-.01a.37131.37131,0,0,1-.10986.05,45.84082,45.84082,0,0,1-6.86011.96,51.5473,51.5473,0,0,1-6.92016-.03,42.78788,42.78788,0,0,1-6.84986-1.05,37.18628,37.18628,0,0,1-6.58007-2.22.47375.47375,0,0,1-.3-.48v-.01l1.31006-24.78a.44744.44744,0,0,1,.47021-.42.43817.43817,0,0,1,.0498.01c3.46.59,6.98,1.03,10.49,1.33s7.04.47,10.57007.44a86.66712,86.66712,0,0,0,10.55-.69,51.862,51.862,0,0,0,10.27-2.51,47.53674,47.53674,0,0,1-10.22,2.83,79.98225,79.98225,0,0,1-10.59009.95c-3.55.09-7.10009-.03-10.63989-.26995-3.37012-.25-6.73-.58-10.08008-1.13l-1.14013,23.93a38.05234,38.05234,0,0,0,6.08007,2.03,39.70056,39.70056,0,0,0,6.67994,1.06,48.08418,48.08418,0,0,0,6.79.07,43.39848,43.39848,0,0,0,6.65015-.89c1.75977-.99,3.52979-1.97,5.37988-2.78a60.63663,60.63663,0,0,1,5.67994-2.28C346.50686,226.42361,348.46682,225.83365,350.43679,225.32364Zm7.17993-84.64a12.30042,12.30042,0,0,0-2.54,1.68,11.202,11.202,0,0,0-2.02979,2.26,16.54475,16.54475,0,0,0-1.49023,2.71c.14013-.5.27-1.01.45019-1.51a11.66826,11.66826,0,0,1,.7-1.42,9.13718,9.13718,0,0,1,2.04-2.43,9.59219,9.59219,0,0,1,5.78-2.34A13.28989,13.28989,0,0,0,357.61672,140.68362Z"/><path d="M371.63641,251.64029c.36718,5.12658.71533,10.254.98388,15.38427.27979,5.12989.5835,10.25891.7898,15.39154l.6709,15.396c.19726,5.133.32714,10.26849.417,15.40552l.00049.03888a.59393.59393,0,0,1-.22779.47564,49.02877,49.02877,0,0,1-8.8706,5.422,43.22072,43.22072,0,0,1-9.8,3.33521,27.527,27.527,0,0,1-10.33106.13513,23.34015,23.34015,0,0,1-9.459-4.16809l.28149.06616a93.85782,93.85782,0,0,1-11.03369,1.32013,74.25093,74.25093,0,0,1-11.13989-.07562,43.72605,43.72605,0,0,1-10.99414-2.26368,21.74493,21.74493,0,0,1-9.48584-6.28436.87364.87364,0,0,1-.197-.6543l.00244-.02221c.66528-5.94031,1.24268-11.911,1.77417-17.875.55347-5.96479,1.00561-11.93769,1.44165-17.91236.40308-5.977.67627-11.95984.91333-17.947.16821-5.9881.23633-11.97918.11475-17.97918a.0897.0897,0,0,1,.08691-.09235.09092.09092,0,0,1,.092.08173,275.78654,275.78654,0,0,1,.42749,36.02838c-.25683,6.00427-.67285,12-1.16479,17.98846-.5232,5.98816-1.13745,11.95892-1.91529,17.93054l-.19433-.67614a20.05247,20.05247,0,0,0,8.675,5.876,43.76182,43.76182,0,0,0,10.564,2.39887,80.91273,80.91273,0,0,0,10.95191.41528,89.55492,89.55492,0,0,0,10.95043-.96613l.01685-.00256a.34886.34886,0,0,1,.26514.06879,21.98057,21.98057,0,0,0,9.13647,4.18,24.6805,24.6805,0,0,0,10.093-.19635,36.70205,36.70205,0,0,0,9.52368-3.52026,48.55312,48.55312,0,0,0,8.44678-5.59174l-.2273.51422c-.29516-5.12933-.55029-10.26013-.738-15.39349l-.48389-15.403c-.17871-5.13366-.26-10.271-.365-15.40747-.11646-5.136-.15332-10.275-.1709-15.41473a.08959.08959,0,0,1,.179-.00671Z"/><path d="M326.83514,259.69339a24.30972,24.30972,0,0,1-4.48145-.66693,27.25032,27.25032,0,0,1-4.3269-1.39783,19.127,19.127,0,0,1-4.00049-2.217,10.20456,10.20456,0,0,1-3.05493-3.37146,15.79555,15.79555,0,0,0,3.48681,2.72143,30.31342,30.31342,0,0,0,3.95533,1.94556c1.354.5871,2.7517,1.08368,4.15673,1.57269C323.9804,258.75332,325.395,259.23849,326.83514,259.69339Z"/><path d="M336.02605,318.168l-1.26733-7.52314-1.29394-7.513c-.88746-5.003-1.77564-10.005-2.823-14.97369-.47071-2.4953-1.01856-4.97327-1.5437-7.45691-.5752-2.47131-1.14991-4.94336-1.77344-7.40216-.58569-2.47-1.29712-4.90521-2.02-7.33685l-1.15112-3.62946L322.82342,258.76a84.9094,84.9094,0,0,1,5.24414,14.33941c1.40918,4.89984,2.51587,9.87659,3.55347,14.86139.968,4.99964,1.87329,10.01062,2.5996,15.04883C334.94939,308.04678,335.6,313.09573,336.02605,318.168Z"/><path d="M327.17693,319.19058c-.759-4.4187-1.34033-8.86334-1.85644-13.31543-.51612-4.45252-.88989-8.92029-1.22363-13.39252-.252-4.47693-.47266-8.96136-.40674-13.45355.04248-2.24524.12451-4.492.33691-6.73169a22.48458,22.48458,0,0,1,1.46875-6.56067,24.44251,24.44251,0,0,0-.97974,6.5968c-.11206,2.22748-.10742,4.46149-.05688,6.69361q.14026,6.69671.63452,13.39019c.24927,4.465.63721,8.92218.989,13.38349Z"/><path d="M371.7282,270.93393a83.658,83.658,0,0,1-8.6709.87847l.66382-.70678c.07422,1.46936.155,2.9386.13623,4.41089-.01513,1.47223-.09131,2.94635-.13989,4.41961a61.4918,61.4918,0,0,0,.27271,8.82184c.123,1.4679.29077,2.93433.39917,4.40265.10888,1.46832.18335,2.93774.26562,4.40686.19312,2.93744.271,5.87842.2666,8.82208l-.66943-.74463c.77637.12854,1.61157.20612,2.42261.26178a24.12455,24.12455,0,0,0,2.44531.01642,8.694,8.694,0,0,0,2.35766-.4411,3.12846,3.12846,0,0,0,1.84327-1.42828.08083.08083,0,0,1,.15014.05639,3.33359,3.33359,0,0,1-1.707,1.98755,8.81722,8.81722,0,0,1-2.50537.86359,16.05993,16.05993,0,0,1-2.59936.29217,20.087,20.087,0,0,1-2.62012-.07031.729.729,0,0,1-.66577-.6792l-.00415-.06561c-.18921-2.9375-.29639-5.87762-.28833-8.82135-.01-1.47137-.02832-2.94257-.01172-4.41479.01587-1.47229.09106-2.94635.12158-4.41907a61.4569,61.4569,0,0,0-.282-8.82154c-.14112-1.46728-.30982-2.93371-.41724-4.40209-.11133-1.46827-.123-2.93958-.14136-4.41077l-.00024-.02948a.66919.66919,0,0,1,.66089-.67755h.00342a83.681,83.681,0,0,1,8.709.33185.08092.08092,0,0,1,.00488.1604Z"/><path d="M372.04412,277.18692a18.0239,18.0239,0,0,1-4.28418,1.36047,17.81977,17.81977,0,0,1-4.479.38019,17.82167,17.82167,0,0,1,4.28418-1.36048A18.02131,18.02131,0,0,1,372.04412,277.18692Z"/><path d="M372.88982,313.99875q.55226,2.08419,1.0337,4.18688a13.12586,13.12586,0,0,0,.58471,2.02137,9.77926,9.77926,0,0,0,1.11133,1.75378c.42651.56641.83667,1.19946,1.25659,1.73493.41187.55358.8877,1.09826,1.344,1.64434.92846,1.089,1.87036,2.17853,2.78,3.296a102.95642,102.95642,0,0,1,9.97778,14.1615c1.48779,2.48493,2.79541,5.07422,4.03223,7.69318.61035,1.31329,1.16626,2.65228,1.74365,3.98016l1.52392,4.069,1.3208,4.135q.59692,2.053,1.27881,4.08307c.89307,2.7113,1.92041,5.37585,3.02832,8.01459l-.01172-.02265.05225.11664.01172.02222,1.43677,3.31891c.49975,1.09918.92822,2.23364,1.35742,3.36023-1.09937-2.149-2.28589-4.24414-3.41065-6.38422l.01148.02185-.06152-.11127-.01221-.023a74.86222,74.86222,0,0,1-3.58838-7.88415q-.78113-2.02268-1.47656-4.07746l-1.43042-4.02758a108.70651,108.70651,0,0,0-7.32715-15.40363c-1.39746-2.481-2.94678-4.87366-4.50806-7.25891-1.59326-2.365-3.26367-4.68011-4.97876-6.971l-2.5979-3.43225a32.47828,32.47828,0,0,1-2.41577-3.61615,10.33165,10.33165,0,0,1-1.0227-1.97516,13.52437,13.52437,0,0,1-.43555-2.15735Z"/><path d="M392.66668,396.20852c-1.98828-3.19378-3.94751-6.39776-6.00024-9.54309-2.00806-3.17114-4.05372-6.31634-6.17359-9.40661-2.14306-3.082-4.25342-6.16169-6.54736-9.11078a62.998,62.998,0,0,0-7.34937-8.302c-1.30175-1.17475-2.94629-2.3111-4.3081-3.64039-.718-.63507-1.39478-1.30883-2.05469-1.99847-.67993-.67133-1.31519-1.38165-1.93774-2.1026a66.40678,66.40678,0,0,1-6.69971-9.20337,73.5503,73.5503,0,0,1-5.13233-10.1225,47.31709,47.31709,0,0,1-3.02124-10.889,53.28317,53.28317,0,0,0,3.82593,10.53766,73.786,73.786,0,0,0,5.49048,9.73455,76.40922,76.40922,0,0,0,6.80444,8.816c.62622.68286,1.23951,1.37683,1.90479,2.01843.64429.6637,1.30322,1.31031,1.99853,1.91517,1.33985,1.29022,2.824,2.27349,4.32471,3.60174a62.3398,62.3398,0,0,1,7.50391,8.61554c2.23877,3.0462,4.365,6.17847,6.345,9.3786q2.98791,4.79992,5.77514,9.70935C389.21893,389.52121,391.03094,392.81875,392.66668,396.20852Z"/><path d="M332.35564,318.284a2.77773,2.77773,0,0,0-1.34472.94471,6.32933,6.32933,0,0,0-.89575,1.39416,14.54961,14.54961,0,0,0-1.115,3.12976,27.67964,27.67964,0,0,0-.57837,3.28772c-.06153.55438-.13916,1.10529-.18726,1.66046l-.09741,1.67163a102.16661,102.16661,0,0,0,.259,13.39753l1.26319,13.42c.37231,4.48938.66064,8.98852.82275,13.501a120.01249,120.01249,0,0,1-.25781,13.57837,60.73318,60.73318,0,0,1-.99756,6.75872q-.34974,1.67176-.7732,3.31507a28.98608,28.98608,0,0,0-.63085,3.22772,123.8863,123.8863,0,0,0-.855,13.38238c-.15772,4.48871-.1504,8.98371-.17383,13.48334a170.33665,170.33665,0,0,1-.33838-27.03625,30.484,30.484,0,0,1,.53906-3.40961c.24756-1.09051.488-2.17664.69263-3.26715a59.09963,59.09963,0,0,0,.84692-6.59522,123.7567,123.7567,0,0,0,.15894-13.38012c-.12622-4.47522-.40723-8.95252-.72-13.42865-.2898-4.47675-.72657-8.94458-.9458-13.465a100.85592,100.85592,0,0,1,.24-13.55475l.1997-1.68725c.08228-.56079.19458-1.11872.29053-1.67707a28.21656,28.21656,0,0,1,.78809-3.31,14.65805,14.65805,0,0,1,1.33471-3.13385,6.50768,6.50768,0,0,1,1.03321-1.35547A2.84,2.84,0,0,1,332.35564,318.284Z"/><path d="M299.40105,314.98446a19.10755,19.10755,0,0,0-.93188,4.94593,31.51638,31.51638,0,0,0,.07544,5.02374,44.99081,44.99081,0,0,0,.76074,4.96c.16553.81946.38013,1.62964.56738,2.44379l.69214,2.41205a.68325.68325,0,0,1,.01831.08966l1.42676,11.0747L303.34,357.02243c.82178,7.39843,1.75415,14.79089,2.39307,22.20153.67944,7.41425,1.25927,14.84015,1.63378,22.28156.1753,3.721.37964,7.44226.38477,11.17212.01514,1.86377.0044,3.72913-.06518,5.59344a30.34767,30.34767,0,0,1-.58106,5.5586,35.58948,35.58948,0,0,0,.18115-5.56159c-.04028-1.85583-.13891-3.71106-.26343-5.56457-.26562-3.70593-.51269-7.4126-.84887-11.11444-.67871-7.40271-1.41724-14.8006-2.16333-22.199l-.561-5.55273-.62134-5.54321L301.634,357.20437l-1.12817-11.098-1.03149-11.11127.01855.08924-.61767-2.48474c-.16211-.83881-.35059-1.67121-.48975-2.51331a37.95383,37.95383,0,0,1-.50439-5.0918,32.07157,32.07157,0,0,1,.22192-5.10144A17.635,17.635,0,0,1,299.40105,314.98446Z"/><path d="M364.90325,330.50711a9.334,9.334,0,0,1,1.2544,2.24432,11.14287,11.14287,0,0,1,.68261,2.49872,6.67122,6.67122,0,0,1-.10351,2.64606,3.16482,3.16482,0,0,1-1.53467,2.11236,4.35107,4.35107,0,0,0,.7666-2.25,10.29252,10.29252,0,0,0-.11792-2.36951C365.63055,333.78775,365.21771,332.19613,364.90325,330.50711Z"/><path d="M313.05608,328.06167a12.119,12.119,0,0,1-.4309,5.4206,7.3163,7.3163,0,0,1-1.3396,2.47528,2.75688,2.75688,0,0,1-2.54248,1.07135,3.238,3.238,0,0,0,1.92187-1.54444,11.2509,11.2509,0,0,0,1.00952-2.31024C312.19939,331.53042,312.56219,329.816,313.05608,328.06167Z"/><path d="M373.82269,312.1672a37.01463,37.01463,0,0,1,.63916,6.0799,36.59114,36.59114,0,0,1-.25562,6.108,36.59268,36.59268,0,0,1-.63916-6.0799A37.01207,37.01207,0,0,1,373.82269,312.1672Z"/><path d="M428.82669,395.23361a9.19036,9.19036,0,0,0-6.29-5.35c-3.3899-.86-6.36988-5.02-6.36988-5.02s-3.75-7.85-7.61987-5.73c-2.42017,1.32-2.3,5.1-1.86011,7.75a9.74462,9.74462,0,0,1-1.67016,7.5c-3.3899,4.4-8.21973,3.26-10.32984,2.47a4.33355,4.33355,0,0,0-3.09008-.07c-4.73,1.78-.17994,8.85-.17994,8.85a6.86353,6.86353,0,0,1,2.03-2.16,7.71,7.71,0,0,1,2.77-1.24,7.55148,7.55148,0,0,1,3.03-.09,5.71866,5.71866,0,0,1,2.74,1.18,18.24534,18.24534,0,0,0-5.43994.37,16.90333,16.90333,0,0,0-2.53027.81c-.85987.32-1.66992.75-2.59986,1.13,0,0-.95,2.92-2.3,7a9.27043,9.27043,0,0,1,2.51-1.48,12.16667,12.16667,0,0,1,2.8-.81,8.257,8.257,0,0,1,3.01.07995,3.04648,3.04648,0,0,1,2.36011,1.84,4.06767,4.06767,0,0,0-2.52-.68,21.669,21.669,0,0,0-2.62012.25l-2.71.44c-.91015.15-1.84009.29-2.83008.36-.72,2.2-1.56,4.73-2.42993,7.33a8.08519,8.08519,0,0,1,2.42993-1.72,9.2608,9.2608,0,0,1,2.88013-.88,7.4225,7.4225,0,0,1,3.07007.2,4.89258,4.89258,0,0,1,2.50977,1.71,11.87414,11.87414,0,0,0-2.72-.56,15.7975,15.7975,0,0,0-2.65991.13c-1.78.24-3.55.73-5.51,1.12-1.45,4.36-2.98,8.9-4.17993,12.32-3.23,9.24.50977,10.63.50977,10.63a3.41812,3.41812,0,0,1-.69971-2.98,3.2876,3.2876,0,0,1,2.50977-1.91,4.52068,4.52068,0,0,1,1.64013-.01,7.75659,7.75659,0,0,1,1.52.48,6.988,6.988,0,0,0,2.86987.35,9.78835,9.78835,0,0,0,5.25-2.38,23.329,23.329,0,0,0,3.95-4.39l.04-.06c1.87011-3.29,3.88012-6.5,5.99-9.66,1.07006-1.58,2.17993-3.14,3.35009-4.66.59009-.76,1.2-1.51,1.86011-2.23.32983-.36.7-.7,1.0398-1.05.38012-.32.84008-.69,1.17016-.94a28.9288,28.9288,0,0,0,3.93994-3.89c1.22-1.42,2.37012-2.92,3.45-4.46a56.49561,56.49561,0,0,0,2.99-4.8,14.15748,14.15748,0,0,0,1.8501-5.3,13.09267,13.09267,0,0,1-1.41015,5.52,39.03433,39.03433,0,0,1-2.71,5.06q-1.53,2.415-3.2998,4.7a25.03245,25.03245,0,0,1-4.01025,4.24,20.81481,20.81481,0,0,0-3.72,4.03c-1.1399,1.5-2.21,3.05-3.26,4.61-2.10987,3.14-4.11988,6.36005-6.07984,9.58l-.01.03-.03.03a23.05861,23.05861,0,0,1-4.3601,4.58,10.88668,10.88668,0,0,1-5.93995,2.35,7.89364,7.89364,0,0,1-3.18994-.55,7.61137,7.61137,0,0,0-1.38012-.55,3.8336,3.8336,0,0,0-1.42994-.1,2.89583,2.89583,0,0,0-2.32006,1.49,3.37727,3.37727,0,0,0,.42993,2.87c8.03027,8.53,19.7102-6.79,26.8601-20.04,7.15015-13.25,12.65992-15.56,12.65992-15.56C430.09671,403.47366,430.2969,398.78366,428.82669,395.23361Zm-13.52979,6.6c-.23,3.69-4.20019,5.04-5.73,4.07-1.53027-.96-1.4502-4.35.17993-7.56,1.62988-3.21,4.2-5.03,5.73-4.07S415.55667,397.54367,415.2969,401.83365Z"/><path d="M333.6968,442.65365c-1.91992-3.25-1.41992-8.5-1.41992-8.5s2.30982-8.49-1.89014-9.99c-2.62011-.95-4.96,1.84-6.35009,4.06a8.17316,8.17316,0,0,1-6.04981,4.02c-5.32007.49-8.12012-4.06-9.15014-6.26a5.21027,5.21027,0,0,0-2.21-2.46c-4.6101-2.4-5.84008,6.14-5.84008,6.14a7.129,7.129,0,0,1,3.08007.13,7.9332,7.9332,0,0,1,2.84009,1.31994,8.28647,8.28647,0,0,1,2.16992,2.25,6.60867,6.60867,0,0,1,1.13013,2.87,24.08305,24.08305,0,0,0-4.17016-3.9,15.861,15.861,0,0,0-2.37989-1.44c-.83008-.45-1.73-.78-2.67016-1.23,0,0-2.56983,1.33-6.17994,3.18a10.86536,10.86536,0,0,1,2.90015.96,13.74847,13.74847,0,0,1,2.58985,1.63,8.82072,8.82072,0,0,1,2.07006,2.35,3.56547,3.56547,0,0,1,.49,3.09,5.255,5.255,0,0,0-1.42993-2.4,23.51668,23.51668,0,0,0-2.08008-1.88l-2.26-1.8a29.13137,29.13137,0,0,1-2.28-1.95c-1.93994,1-4.18994,2.13995-6.49,3.32a8.75294,8.75294,0,0,1,3.02.74,10.66064,10.66064,0,0,1,2.69,1.64,8.7003,8.7003,0,0,1,2.03,2.48,5.7434,5.7434,0,0,1,.65015,3.1,16.81188,16.81188,0,0,0-1.63013-2.45,21.07505,21.07505,0,0,0-2.02-1.99c-1.46-1.23-3.05981-2.28-4.74-3.52h-.01c-3.86987,1.97-7.91992,4-11,5.5-8.32006,4.05-6.48,7.93-6.48,7.93a4.48981,4.48981,0,0,1,.3899-1.52,2.207,2.207,0,0,1,1.12011-1.17,2.45994,2.45994,0,0,1,1.64991-.02,4.2211,4.2211,0,0,1,1.4602.75,6.37607,6.37607,0,0,1,1.87988,2.64,8.41451,8.41451,0,0,0,1.76,2.38,9.20577,9.20577,0,0,0,2.44,1.65,12.81794,12.81794,0,0,0,2.85009.85,19.78025,19.78025,0,0,0,5.95.01h.02q5.31006-1.305,10.72-2.21c1.81006-.29,3.62012-.54,5.46-.71.92016-.08,1.85009-.12,2.79-.13.47.01.9502.05,1.41993.07.47021.07,1.04.16,1.43017.23a24.79415,24.79415,0,0,0,5.27.3,48.42381,48.42381,0,0,0,5.37988-.48,45.69216,45.69216,0,0,0,5.3-1.09,19.20366,19.20366,0,0,0,2.54-.91,7.60359,7.60359,0,0,0,2.27-1.46,10.97046,10.97046,0,0,1-4.65991,2.83,33.57868,33.57868,0,0,1-5.30029,1.47,47.96984,47.96984,0,0,1-5.46973.76,22.90764,22.90764,0,0,1-5.6001-.12,17.67264,17.67264,0,0,0-5.24-.03c-1.78.18-3.57007.44-5.3501.73-3.55981.61-7.12988,1.32-10.65991,2.11h-.02l-.05.01a20.2052,20.2052,0,0,1-6.43994-.18,13.1441,13.1441,0,0,1-3.08008-1.09,10.27439,10.27439,0,0,1-2.62988-1.95,9.50211,9.50211,0,0,1-1.81006-2.72,11.12926,11.12926,0,0,0-.6101-1.39,5.00474,5.00474,0,0,0-.90992-1.15,3.773,3.773,0,0,0-1.24-.76,2.15367,2.15367,0,0,0-1.40991-.11005,3.08773,3.08773,0,0,0-1.62012,2.41c.38013,12.29,18.79,10.48,32.55005,6.63,13.77-3.85,19.29-1.21,19.29-1.21,8.01,3.14,11.16992-.02,12.37989-3.69A10.64126,10.64126,0,0,0,333.6968,442.65365Zm-13,2.85c-2.54,2.44-6.31006.32-6.81006-1.55-.5-1.88,1.74-4.21,5.01-5.23,3.26-1.01,6.31006-.31,6.81006,1.56S323.65676,442.67361,320.6968,445.50363Z"/><path d="M359.83782,261.60586a8.25715,8.25715,0,0,1-2.56836-.81293,9.83348,9.83348,0,0,1-2.26269-1.51995,7.72739,7.72739,0,0,1-1.66529-2.20606,5.15818,5.15818,0,0,1-.47631-2.6828,10.92944,10.92944,0,0,0,1.15332,2.29456,12.70857,12.70857,0,0,0,1.66333,1.8573,21.37713,21.37713,0,0,0,1.98486,1.58868C358.36761,260.62265,359.08807,261.10781,359.83782,261.60586Z"/><path d="M306.79534,245.03292a6.5564,6.5564,0,0,1-.17895,2.244,7.35747,7.35747,0,0,1-.85254,2.11566,5.29566,5.29566,0,0,1-1.59619,1.70588,3.40068,3.40068,0,0,1-2.22852.54644,6.28021,6.28021,0,0,0,1.74585-1.15979,8.10273,8.10273,0,0,0,1.22363-1.60962A40.33784,40.33784,0,0,0,306.79534,245.03292Z"/><path d="M420.3188,373.65088q-8.67693-.07-17.35386-.07783c.20747.45136.41494.90271.62773,1.34888,5.57715-.01552,11.149-.0311,16.72613-.07784l35.1594-.21785c11.71971-.1297,23.43968-.20235,35.15939-.37872-11.71971-.17644-23.43968-.249-35.15939-.37872Z"/><path d="M350,373.46931l-20.34231.04148c.00532.50323.01039.99613.01571,1.47339L350,375.02573l29.795-.06232c-.3164-.48245-.64344-.95971-.96491-1.4371Z"/><path d="M209.36241,374.24752c11.72.17637,23.43968.25421,35.15939.38391l35.1594.21266c8.25426.06751,16.50853.07784,24.76254.09342-.04661-.46175-.09323-.9183-.13477-1.38-8.21272.01558-16.42012.026-24.62777.09341l-35.1594.21273C232.80209,373.99331,221.08237,374.07108,209.36241,374.24752Z"/></svg>