<svg id="Layer_1" data-name="Layer 1" xmlns="http://www.w3.org/2000/svg" viewBox="0 0 700 550"><title>walking with kid</title><path d="M341.96656,77.99736c.07345,2.16511.04538,4.32251-.054,6.47383-.06292,1.07413-.10362,2.15084-.19344,3.22264l-.12047,1.60934a14.46014,14.46014,0,0,0-.10175,1.491,6.728,6.728,0,0,0,.85028,2.7354c.46385.93052,1.10267,1.79156,1.55506,2.87762a5.00475,5.00475,0,0,1,.27673,1.7132,3.37584,3.37584,0,0,1-.39976,1.69073,2.50764,2.50764,0,0,1-1.36022,1.11461,5.37939,5.37939,0,0,1-1.69144.25029l.27789-.15275a21.55912,21.55912,0,0,0-1.72255,5.25724,26.79731,26.79731,0,0,0-.38876,2.726,25.66393,25.66393,0,0,1-.46713,2.8809,9.5721,9.5721,0,0,1-1.12092,2.87435,6.22361,6.22361,0,0,1-2.38289,2.22944,9.32635,9.32635,0,0,1-6.0963.33614l-.08467-.01989-.03649-.01426a6.20455,6.20455,0,0,0-1.94033-.37941,6.47356,6.47356,0,0,0-2.05377.20374,7.38841,7.38841,0,0,0-1.94383.84022,10.35941,10.35941,0,0,0-1.73448,1.3532l-.13076-.1055a8.48642,8.48642,0,0,1,1.49144-1.75226,6.76151,6.76151,0,0,1,2.00231-1.25846,7.34821,7.34821,0,0,1,4.83573-.30573l-.12094-.03391a8.49279,8.49279,0,0,0,4.996-.46854,5.999,5.999,0,0,0,2.73353-3.91175,25.43417,25.43417,0,0,0,.56724-2.6788,19.01141,19.01141,0,0,1,.65052-2.83247,25.87392,25.87392,0,0,1,2.41657-5.24672l.09638-.16.182.007a4.1688,4.1688,0,0,0,1.49144-.138,1.82731,1.82731,0,0,0,1.0856-.86782,3.301,3.301,0,0,0-.106-2.84558c-.49356-.85028-1.25706-1.65027-1.88442-2.57142a6.51352,6.51352,0,0,1-1.33191-3.26242,6.71505,6.71505,0,0,1,.01965-.92162l.07251-.80233.17474-1.60185c.10713-1.069.26315-2.13307.39718-3.19949.29427-2.13049.65988-4.25444,1.127-6.3709Z"/><path d="M304.82554,99.60665a9.22964,9.22964,0,0,1-.51227,2.58687,12.57514,12.57514,0,0,1-1.10852,2.40511,11.07817,11.07817,0,0,1-1.61425,2.10758,8.4423,8.4423,0,0,1-2.09892,1.60325c.54806-.69637,1.1118-1.32864,1.599-2.02734a24.53931,24.53931,0,0,0,1.39344-2.11413A44.9289,44.9289,0,0,0,304.82554,99.60665Z"/><path d="M313.45934,92.95762a21.55959,21.55959,0,0,1,1.79226,2.17845c.27111.36233.55274.70479.84326,1.0318a2.49748,2.49748,0,0,0,1.083.77168,1.64242,1.64242,0,0,1-1.49448-.261,4.48805,4.48805,0,0,1-1.09917-1.03274A5.63516,5.63516,0,0,1,313.45934,92.95762Z"/><path d="M329.49047,89.02457a9.94368,9.94368,0,0,1,2.374-1.73026,11.21817,11.21817,0,0,1,2.7754-1.0594,8.58176,8.58176,0,0,1,2.9995-.128,5.92143,5.92143,0,0,1,2.71084,1.18969,10.3432,10.3432,0,0,0-2.77423-.53706,12.23029,12.23029,0,0,0-2.75225.29473,19.52425,19.52425,0,0,0-2.68581.8332C331.25442,88.23067,330.37631,88.60938,329.49047,89.02457Z"/><path d="M335.56627,93.33681a1.17044,1.17044,0,0,0,0-2.33948,1.17044,1.17044,0,0,0,0,2.33948Z"/><path d="M336.82955,96.94306a6.10289,6.10289,0,0,0,.60233,1.4877,2.865,2.865,0,0,0,.4428.55929c.17872.19135.3993.36514.63929.6166a1.66575,1.66575,0,0,1-1.68442-2.66359Z"/><path d="M337.83983,107.52982a8.05181,8.05181,0,0,1-1.87553-.804,11.03873,11.03873,0,0,1-1.67343-1.164,8.89876,8.89876,0,0,1-1.40933-1.49635,4.8928,4.8928,0,0,1-.88069-1.8622,24.43017,24.43017,0,0,0,2.83341,2.71833C335.82278,105.77405,336.85341,106.57755,337.83983,107.52982Z"/><path d="M301.65272,116.22023c-2.67318-2.35693-5.26-4.81912-7.79919-7.37745,3.07551-3.97608,9.23637-4.88624,9.23637-4.88624s-.53661,1.80114,5.78705,8.11521c6.31383,6.31406,12.0913,7.60738,13.91186,9.71519,1.82991,2.108,5.90191,7.57884,6.45745,9.54279a40.7037,40.7037,0,0,1-5.2025-1.22618,46.58425,46.58425,0,0,1-4.9342-1.92606,60.93848,60.93848,0,0,1-9.12128-5.35571A99.94514,99.94514,0,0,1,301.65272,116.22023Z"/><path d="M341.884,192.71626c-2.56769-7.15709-5.05888-29.56755-6.96552-36.68628-1.90664-7.10915-5.10683-22.73607-5.67221-24.70025a24.47389,24.47389,0,0,1-5.41326-.37356,33.23634,33.23634,0,0,1-5.26-1.48513,41.74181,41.74181,0,0,1-4.97256-2.28979,53.66456,53.66456,0,0,1-4.63737-2.89353,60.69384,60.69384,0,0,1-8.26842-7.06142,54.12518,54.12518,0,0,1-6.84108-8.38352c-1.60957,2.08863-16.53708,22.487-16.53708,22.487-6.36179,19.08582-4.75222,42.732-5.61443,47.54181C266.81554,205.96708,274.1069,247.53,274.1069,247.53l27.49787,10.69248c-1.69588-3.9569-3.24791-7.96176-4.82894-11.96662q-2.28523-6.022-4.44555-12.11071-2.17016-6.07921-3.98591-12.30205-.91965-3.10452-1.57121-6.32366c-.14386-1.09238-.33544-2.2133-.39274-3.29586-.05755-1.08279-.163-2.17494-.18222-3.25774-.19158-8.65181.23952-17.24608.81449-25.83075.316-4.29234.64186-8.57509,1.01542-12.85784.43134-4.28275.82408-8.56573,1.37028-12.8293l-1.00607,25.76386c-.25871,8.57509-.63227,17.16936-.40234,25.69673.01919,1.073.10527,2.11739.15322,3.18077.05754,1.06361.22035,2.06968.35461,3.11388.40234,2.05985.91017,4.12953,1.47554,6.18939,1.11133,4.12953,2.41423,8.21111,3.65983,12.32147,1.284,4.09117,2.61564,8.17275,3.96673,12.25433l4.00486,12.2541c-.03836,2.62547,3.411,14.97547,5.65279,17.21755,2.25166,2.25143,2.25166,8.987,2.25166,8.987,7.10915,1.49472,21.56719-2.99879,21.56719-2.99879l-2.80744-9.35122c7.62679-2.43365,9.37063-17.60069,9.37063-17.60069-1.92606-3.71738-3.69843-7.51171-5.50916-11.28663q-2.63015-5.70553-5.11643-11.47821c-1.6767-3.84205-3.21937-7.74165-4.6949-11.67937-.71859-1.97378-1.39881-3.96673-2.00231-5.99782a23.26624,23.26624,0,0,1-1.22642-6.41932c.19158-8.36433.37356-16.72867.6994-25.08364l.49824-12.54158c.22994-4.17726.39275-8.36433.68023-12.54182.12467,4.18708.12467,8.37392.19157,12.561l.0096,12.55141c0,8.37368-.14363,16.74784-.28749,25.11217a22.86656,22.86656,0,0,0,1.11157,5.87314c.57473,1.98336,1.24536,3.94754,1.92582,5.91149,1.36045,3.938,2.88394,7.828,4.36883,11.73692,1.50431,3.8996,3.06616,7.77042,4.647,11.64124l4.7045,11.641h6.25629V242.87371S347.30684,207.83535,341.884,192.71626Zm-25.0261-49.05547a16.49376,16.49376,0,0,0-3.42053-1.5808,17.72566,17.72566,0,0,0-3.65025-.86244,18.823,18.823,0,0,0-3.74638-.182,28.48692,28.48692,0,0,0-7.40621,1.34127,34.68068,34.68068,0,0,0-3.56416,1.32232,33.40085,33.40085,0,0,0-3.43949,1.66711,27.3206,27.3206,0,0,1,6.79289-3.60252,24.62979,24.62979,0,0,1,7.5882-1.56185,18.11076,18.11076,0,0,1,7.64574,1.26478,17.47133,17.47133,0,0,1,6.32366,4.36906A22.24114,22.24114,0,0,0,316.85789,143.66079Z"/><path d="M276.69213,248.49024q1.80453,11.20861,3.26311,22.46987c.98946,7.50469,1.851,15.02833,2.516,22.57349.66338,7.54423,1.18712,15.1088,1.22992,22.70566a79.93032,79.93032,0,0,1-.63087,11.41364c-.14643.95063-.31812,1.9008-.55274,2.847a21.981,21.981,0,0,1-.92232,2.774,56.73118,56.73118,0,0,1-2.48184,5.17864c-3.63223,6.69816-7.80785,13.03164-12.04077,19.31623q-6.38834,9.40128-13.10883,18.55975-13.42929,18.32325-27.57436,36.09448l.08164-.571a87.60883,87.60883,0,0,0,4.6528,9.49741,67.57935,67.57935,0,0,0,5.857,8.80082,32.47687,32.47687,0,0,0,7.61838,7.19312,15.844,15.844,0,0,0,4.74567,2.09751,11.75017,11.75017,0,0,0,5.13911.10246l-.19111.12093,14.30975-18.80278c4.77163-6.26658,9.45881-12.59679,14.17805-18.90243l14.08355-18.97168,6.981-9.52782c2.28628-3.18592,4.675-6.37769,6.73909-9.63706l.75273-1.18852.14316,1.37963,7.8958,76.02189-.5876-.69192c3.2685.82338,6.63477,1.462,9.99145,1.967a96.25042,96.25042,0,0,0,10.13577.99109,60.363,60.363,0,0,0,10.11588-.34806,30.92622,30.92622,0,0,0,9.58607-2.63786l-.4959.87508-4.41889-51.92655c-1.491-17.30737-2.82429-34.6283-4.24415-51.94175l-.00327-.0414.00163-.03977c.28117-6.83335.37707-13.69314.35976-20.54264-.02362-6.8516-.18011-13.70367-.52069-20.54639-.35508-6.84107-.851-13.67747-1.65448-20.48065a127.77486,127.77486,0,0,0-3.82919-20.16721l.1607-.04913a128.12789,128.12789,0,0,1,4.21749,20.14546c.94759,6.80342,1.55694,13.65011,1.9602,20.50452.41006,6.85487.63555,13.71911.72818,20.58474.08608,6.86751.05942,13.72871-.15462,20.60464l-.00163-.0807c1.55249,17.302,3.19153,34.59672,4.67292,51.90479l4.49818,51.92.05333.61543-.549.25988a32.62631,32.62631,0,0,1-10.15261,2.75926,62.015,62.015,0,0,1-10.4036.31438,97.905,97.905,0,0,1-10.30746-1.05332c-3.41516-.53052-6.78681-1.18314-10.15916-2.04839l-.5352-.13731-.05286-.55484-7.264-76.085.8959.19088c-2.1857,3.37328-4.54731,6.47616-6.872,9.67308l-7.0488,9.48572L283.285,402.33773l-14.26063,18.84209-14.21571,18.876-.07228.0959-.11929.02526a12.53282,12.53282,0,0,1-5.42917-.07508,16.55284,16.55284,0,0,1-4.9859-2.12582,33.2574,33.2574,0,0,1-7.90726-7.271,68.49148,68.49148,0,0,1-6.05348-8.84877,88.35333,88.35333,0,0,1-4.83549-9.57391l-.12866-.30058.21029-.27064c4.64041-5.96834,9.20011-12.00615,13.75982-18.03882q6.8385-9.05145,13.51654-18.2194c4.43058-6.12623,8.85578-12.2562,13.12216-18.49238,4.24836-6.24131,8.44363-12.54322,12.05925-19.13611a55.436,55.436,0,0,0,2.44651-5.03946,21.71459,21.71459,0,0,0,1.41963-5.32133,83.9259,83.9259,0,0,0,.71719-11.227c.04023-7.53884-.39813-15.09172-.97777-22.62635q-1.84629-22.60146-5.02472-45.09436Z"/><path d="M280.09021,249.85677c1.44045,4.71853,2.78055,9.46326,4.17655,14.19326l4.01959,14.23442c2.68277,9.48853,5.24157,19.0098,7.817,28.5264,2.53705,9.52689,5.076,19.05307,7.52458,28.60358l7.37393,28.64663c-1.60208-4.66637-3.01656-9.39379-4.47128-14.10647l-4.14965-14.20028c-2.74336-9.47332-5.32578-18.98991-7.89954-28.50861-2.53494-9.529-5.05233-19.06243-7.43826-28.63073l-3.56791-14.35512C282.347,259.45874,281.16458,254.67191,280.09021,249.85677Z"/><path d="M396.66612,468.08949c-3.7181-1.46371-8.60777-3.44935-13.28407-5.37476l-.00863.002-2.94578,1.798c-.94993.607-1.90573,1.18815-2.77757,1.85906a17.44945,17.44945,0,0,0-2.48721,2.13758,12.80345,12.80345,0,0,0-1.933,2.73675,6.29717,6.29717,0,0,1,1.07147-3.41078,10.62943,10.62943,0,0,1,2.52-2.58957,14.20918,14.20918,0,0,1,3.12189-1.70207,11.80066,11.80066,0,0,1,3.43021-.829c-2.79345-1.14894-5.5081-2.27048-7.85457-3.24956-1.82272,1.43252-3.70455,2.60636-5.48786,3.89367a24.15717,24.15717,0,0,0-2.54065,2.02266,4.81575,4.81575,0,0,0-1.683,2.67984,2.802,2.802,0,0,1,.00857-1.78927,5.73157,5.73157,0,0,1,.84806-1.609,11.52011,11.52011,0,0,1,2.55549-2.43422,18.34,18.34,0,0,1,3.01056-1.713,13.96657,13.96657,0,0,1,3.28879-1.05075c-4.36763-1.80524-7.47956-3.1173-7.47956-3.1173-.54151.25061-1.08734.40255-1.61746.62354-.52153.21881-1.05288.39467-1.55124.63543-.25347.12146-.50028.23233-.75775.33655l-.72865.38417a15.85722,15.85722,0,0,0-1.42167.8056,19.56832,19.56832,0,0,0-2.63986,1.94565,23.26494,23.26494,0,0,0-2.40419,2.38173,7.789,7.789,0,0,1,1.62363-3.13782,11.06016,11.06016,0,0,1,2.67866-2.37178,11.23231,11.23231,0,0,1,3.30614-1.37208,9.83856,9.83856,0,0,1,3.51239-.231s-1.49318-8.83952-7.04995-6.20027a5.97994,5.97994,0,0,0-2.67711,2.6166c-1.24666,2.32592-4.61016,7.14022-11.03928,6.7946a9.80015,9.80015,0,0,1-7.316-3.98964c-1.67871-2.26536-4.50893-5.084-7.67785-4.02456-5.06544,1.69248-2.25959,10.44054-2.25959,10.44054s.61179,5.45761-1.70662,8.89013A9.82139,9.82139,0,0,0,326.944,479.935c1.45922,3.76706,5.2836,6.96657,14.95605,3.44159,0,0,6.66507-2.9106,23.294.666,16.6376,3.57437,38.87152,4.88162,39.31468-7.91088a2.92668,2.92668,0,0,0-2.15212-2.51113,3.07436,3.07436,0,0,0-1.68685.24029,4.84242,4.84242,0,0,0-1.48745.87489,5.54861,5.54861,0,0,0-1.52451,2.06293c-.12986.26554-.24987.574-.40759.83683a10.16784,10.16784,0,0,1-2.38675,2.89489,15.104,15.104,0,0,1-6.764,3.03308,28.8331,28.8331,0,0,1-7.38449.31713l-.01726.00394-.047-.00742c-4.272-.71151-8.57326-1.35254-12.87091-1.85864-2.15313-.25207-4.30706-.46763-6.46041-.6016a26.31352,26.31352,0,0,0-6.34337.18826,30.29077,30.29077,0,0,1-6.63823.328,63.69785,63.69785,0,0,1-6.54656-.58191,46.57589,46.57589,0,0,1-6.43287-1.31551,23.9982,23.9982,0,0,1-3.104-1.078,10.13917,10.13917,0,0,1-1.45859-.74627,6.51219,6.51219,0,0,1-1.29894-1.00045,9.18858,9.18858,0,0,0,2.85884,1.51495,23.8328,23.8328,0,0,0,3.119.86594,60.94172,60.94172,0,0,0,6.40786.96752,64.73334,64.73334,0,0,0,6.47015.327,35.00765,35.00765,0,0,0,6.37531-.48568c.504-.097,1.12407-.20231,1.67907-.27461.55618-.02739,1.11315-.09107,1.67328-.1012l1.65852-.0068,1.65512.05732c2.18786.12608,4.36561.32712,6.54261.56465q6.507.78583,12.95024,1.96743a29.66778,29.66778,0,0,0,7.01425-.15082,14.11012,14.11012,0,0,0,6.43095-2.58492,9.5003,9.5003,0,0,0,2.2946-2.58348c.15964-.25418.27422-.50715.42992-.77859a6.88117,6.88117,0,0,1,.495-.81161,5.78855,5.78855,0,0,1,1.31486-1.35261,5.26784,5.26784,0,0,1,1.67365-.85408,3.5287,3.5287,0,0,1,1.87156-.1465,2.33539,2.33539,0,0,1,1.5057,1.07126,4.1813,4.1813,0,0,1,.59146,1.71554S406.72057,472.034,396.66612,468.08949Zm-44.42764,3.51786c-.59376,1.96814-5.144,4.28688-8.22633,1.83409-3.57387-2.85763-6.6453-3.31718-6.04978-5.27664.60426-1.96145,4.28106-2.78324,8.22638-1.83388C350.13615,467.28889,352.84269,469.64613,352.23848,471.60735Z"/><path d="M385.68526,486.8912a104.20255,104.20255,0,0,1-20.57329-2.46827c-16.26457-3.49562-22.99009-.71578-23.05652-.68864-10.18372,3.71176-14.03584.058-15.47582-3.65843a10.15673,10.15673,0,0,1,1.41-9.41648c2.2119-3.27668,1.6477-8.57626,1.64209-8.62959-.10293-.29567-2.84535-9.05906,2.52347-10.85272,3.33095-1.11624,6.25114,1.64863,8.115,4.16181a9.38712,9.38712,0,0,0,7.02306,3.83247c6.03688.29941,9.28081-3.98966,10.67588-6.58986a6.32563,6.32563,0,0,1,2.85282-2.78358,4.16275,4.16275,0,0,1,3.854-.10854c2.55341,1.32957,3.50966,5.39127,3.708,6.38213.72794.306,3.44977,1.44934,7.07358,2.94827l.00094-.00094.21146.088.00093.00094,1.24163.51274-.00749.00187c2.00793.83461,4.22825,1.75156,6.50284,2.68722l.12257.04491c5.17607,2.13143,9.89179,4.03924,13.27794,5.37162h0c4.52018,1.77308,7.22985,3.81188,8.05229,6.0584a3.31831,3.31831,0,0,1,.02339,2.4664,8.85536,8.85536,0,0,1-3.50966,6.878C397.73749,485.964,391.84,486.8912,385.68526,486.8912Zm-30.97034-4.84484a81.77632,81.77632,0,0,1,10.56173,1.61494c6.27828,1.34829,27.40641,5.25373,35.6187-1.148a8.1125,8.1125,0,0,0,3.22241-6.36342c-.00374-.03462-.00936-.06831-.014-.102a2.50718,2.50718,0,0,0-1.79927-2.04067,2.71049,2.71049,0,0,0-1.48021.21239,4.46343,4.46343,0,0,0-1.38759.81215,5.196,5.196,0,0,0-1.05074,1.21262,5.09053,5.09053,0,0,0-.36959.70829l-.13193.28444a5.78511,5.78511,0,0,1-.30034.59976,10.59864,10.59864,0,0,1-2.47015,2.99224,15.36866,15.36866,0,0,1-6.93791,3.11575,28.85107,28.85107,0,0,1-7.42072.32935l-.01684.00468-.101-.00842c-4.76813-.79438-8.972-1.40162-12.90369-1.86477-2.486-.291-4.53233-.48093-6.43827-.59976l-.24608-.01123a25.06588,25.06588,0,0,0-5.99664.19275C354.94042,482.008,354.8272,482.02764,354.71492,482.04636Zm-21.03644-30.33971a4.0054,4.0054,0,0,0-1.27624.20959c-4.64087,1.55132-2.0388,9.86747-2.01166,9.95168.0421.30409.6166,5.71594-1.7553,9.22747a9.3945,9.3945,0,0,0-1.32864,8.6979c1.91249,4.93373,6.777,6.01722,14.45969,3.21679a15.00871,15.00871,0,0,1,3.70615-.85706c-1.28747-.10292-2.52441-.2414-3.73609-.41637a46.97719,46.97719,0,0,1-6.48413-1.32583,24.23623,24.23623,0,0,1-3.1541-1.09566,10.60266,10.60266,0,0,1-1.51765-.77846,5.56542,5.56542,0,0,1-1.15928-.8711l-.18152-.16187.50807-.59134a8.836,8.836,0,0,0,2.73961,1.44653,23.03484,23.03484,0,0,0,3.0699.85239,60.33618,60.33618,0,0,0,6.36623.96092,64.06685,64.06685,0,0,0,6.42985.32374,35.04534,35.04534,0,0,0,6.30074-.47813c.5118-.09824,1.13963-.2049,1.702-.27789.24982-.014.46783-.03087.68677-.04771.34339-.02527.68584-.05147,1.03017-.058l1.6636-.00655,1.67015.058c1.993.11415,4.07854.29473,6.57208.567,4.44812.53706,8.813,1.20045,12.97947,1.97143a29.14219,29.14219,0,0,0,6.88458-.15345,13.623,13.623,0,0,0,6.25021-2.50663,9.21229,9.21229,0,0,0,2.19974-2.47576c.09169-.14689.16467-.28724.24046-.4304.058-.11228.11789-.22456.18433-.34152a7.12932,7.12932,0,0,1,.51648-.8449,6.1,6.1,0,0,1,1.40349-1.44091,5.6159,5.6159,0,0,1,1.79366-.91321,3.90387,3.90387,0,0,1,2.06126-.15438,2.742,2.742,0,0,1,1.61775,1.04139c-.52958-1.38571-2.27739-3.46943-7.58633-5.55221H396.523c-3.3506-1.31928-8.00083-3.2-13.11047-5.30332l-3.27481,2.01261c-.79437.50338-1.54477.9787-2.25026,1.52138a16.98226,16.98226,0,0,0-2.4402,2.09494,12.50631,12.50631,0,0,0-1.87319,2.6526l-.713,1.34548-.02152-1.52232a6.69636,6.69636,0,0,1,1.13308-3.62662,11.09109,11.09109,0,0,1,2.61049-2.68815,14.69617,14.69617,0,0,1,3.2168-1.75623,14.29964,14.29964,0,0,1,2.108-.64748c-2.24371-.92443-4.40508-1.818-6.3288-2.62078-1.08817.844-2.19974,1.60372-3.27668,2.34008-.68958.47158-1.37355.93941-2.04348,1.42314a23.81342,23.81342,0,0,0-2.50383,1.992,4.45819,4.45819,0,0,0-1.56348,2.45611l-.22831,1.39975-.51929-1.31928a3.17685,3.17685,0,0,1-.00187-2.04348,6.08121,6.08121,0,0,1,.9104-1.731,11.78064,11.78064,0,0,1,2.63669-2.516,18.94511,18.94511,0,0,1,3.083-1.75437,16.30113,16.30113,0,0,1,2.17073-.80092c-3.22616-1.33612-5.58683-2.32886-6.19875-2.58617-.26947.116-.538.2124-.80654.30784-.22362.08046-.44631.16-.66619.25169-.19929.08327-.40139.16187-.6035.23953-.31438.12163-.62782.2414-.92817.38643-.26105.12537-.51555.23952-.78034.34713l-.69426.36771c-.51555.25263-.99461.54175-1.39694.79157a19.28735,19.28735,0,0,0-2.59459,1.91342,22.77718,22.77718,0,0,0-2.3616,2.33915l-1.01519,1.16677.34151-1.50922a8.12337,8.12337,0,0,1,1.701-3.29726,11.39809,11.39809,0,0,1,2.7733-2.45611,11.74079,11.74079,0,0,1,3.43574-1.42408,10.09848,10.09848,0,0,1,3.10265-.28163c-.28912-1.24817-1.21542-4.48462-3.23645-5.5363a3.42774,3.42774,0,0,0-3.15785.1207,5.56,5.56,0,0,0-2.50008,2.44769c-1.19484,2.22593-4.67924,7.36083-11.40476,7.0006a10.1621,10.1621,0,0,1-7.60785-4.1459C338.19024,453.84183,336.06067,451.70665,333.67848,451.70665ZM380.74124,483.491a28.10247,28.10247,0,0,0,7.285-.31064,14.6053,14.6053,0,0,0,6.58611-2.94826,9.9509,9.9509,0,0,0,1.31554-1.33331,10.15558,10.15558,0,0,1-1.35577,1.28,14.36859,14.36859,0,0,1-6.6095,2.66195,29.86048,29.86048,0,0,1-7.11008.15532c-4.18614-.77379-8.53509-1.43437-12.96263-1.96863-2.47576-.2704-4.54824-.44911-6.51874-.56327l-1.64583-.05707-1.643.00748c-.32467.00562-.65215.03088-.97963.05614-.22643.01685-.451.03369-.67649.04492-.51648.0683-1.12747.17309-1.62524.26759a35.6406,35.6406,0,0,1-6.44669.4931,65.10256,65.10256,0,0,1-6.51219-.32842c-.17965-.01965-.35743-.03836-.53146-.058.17684.0262.35462.05053.53333.07485a62.97011,62.97011,0,0,0,6.50938.57918,30.2754,30.2754,0,0,0,6.55243-.32281,25.64087,25.64087,0,0,1,6.18-.20584l.25169.01216c1.92653.11977,3.98591.31158,6.48693.6035,3.94194.46409,8.15521,1.0732,12.88123,1.86009Zm.655-20.02405c-.41731.11789-.85239.26479-1.31273.44257a13.8415,13.8415,0,0,0-3.03341,1.65424,10.0293,10.0293,0,0,0-2.42055,2.48418,6.89315,6.89315,0,0,0-.64655,1.27437,13.23684,13.23684,0,0,1,.89356-1.07508,17.6266,17.6266,0,0,1,2.54312-2.1885c.72607-.55766,1.527-1.06572,2.30079-1.556Zm-7.7351-3.10265q-.61614.21614-1.27156.50994a18.02738,18.02738,0,0,0-2.94827,1.6767,11.03129,11.03129,0,0,0-2.46265,2.3457,5.41007,5.41007,0,0,0-.67836,1.1939,9.62323,9.62323,0,0,1,.91976-.98806,24.50738,24.50738,0,0,1,2.58616-2.06032c.6718-.48467,1.36045-.95624,2.05564-1.43156C372.455,461.20547,373.05853,460.79284,373.6611,460.36431Zm-7.6406-3.64814a8.70842,8.70842,0,0,0-1.39507.2414,11.03948,11.03948,0,0,0-3.21025,1.33332,10.56027,10.56027,0,0,0-2.57025,2.2802,9.13017,9.13017,0,0,0-.8,1.14338c.32841-.31532.66806-.62409,1.02454-.92911a19.94707,19.94707,0,0,1,2.69564-1.98641,16.38563,16.38563,0,0,1,1.44747-.81964l.71858-.37894c.28444-.11789.524-.22456.771-.34338.31812-.15345.65028-.28257.98525-.41169C365.79875,456.80319,365.90916,456.76015,366.0205,456.71617Zm-18.88629,18.17145a5.34676,5.34676,0,0,1-3.36557-1.1415,27.92076,27.92076,0,0,0-3.5237-2.33541c-1.81237-1.05823-3.12229-1.82266-2.65633-3.359.67461-2.18851,4.48929-3.112,8.69228-2.09962,2.8154.683,5.1246,2.094,6.02658,3.68089a2.61651,2.61651,0,0,1,.30315,2.08839,5.29171,5.29171,0,0,1-3.50872,2.85657A6.59216,6.59216,0,0,1,347.13421,474.88762Zm-4.145-8.55661c-2.37938,0-4.276.71953-4.6549,1.949-.27509.90666.50713,1.40817,2.30453,2.457a28.60662,28.60662,0,0,1,3.61632,2.4,4.94065,4.94065,0,0,0,4.61374.69613,4.58193,4.58193,0,0,0,2.996-2.33821l.00094-.00281a1.83309,1.83309,0,0,0-.23672-1.47366c-.78689-1.38478-2.95856-2.68347-5.53162-3.30849A13.41753,13.41753,0,0,0,342.98923,466.331Z"/><path d="M262.12,475.17287a4.99406,4.99406,0,0,0-4.222.34984c-1.26082.74253-2.5095,1.68231-3.81629,2.44974q-1.9545,1.1794-4.02219,2.18551a27.57215,27.57215,0,0,1-8.7952,2.73622,13.972,13.972,0,0,1-3.13123-.01c9.6791,2.89825,19.94413,2.217,24.76349-3.91944.00678-.00528.00828-.01734.01507-.02262a4.02922,4.02922,0,0,0,.46242-2.145A1.9428,1.9428,0,0,0,262.12,475.17287Zm-2.737-6.67254c-5.66662-1.36535-9.0363,1.2807-10.93087-2.1301-.39424-.71587-.79389-1.43868-1.18822-2.15448l-3.33375-.10257c-1.08741-.0129-2.16277-.02431-3.226.06378a20.22535,20.22535,0,0,0-3.12557.48613,15.84065,15.84065,0,0,0-3.02642,1.21421A6.64785,6.64785,0,0,1,237.2189,463.67a10.55981,10.55981,0,0,1,3.39034-.84483,13.66676,13.66676,0,0,1,3.43937.23818,10.62285,10.62285,0,0,1,3.21,1.14558c-1.34794-2.4435-2.65892-4.83954-3.78382-6.91288-2.23942.1988-4.38863.16393-6.50908.29186a21.13689,21.13689,0,0,0-3.12113.352,5.45641,5.45641,0,0,0-2.80492,1.30315,2.959,2.959,0,0,1,.9787-1.42615,5.65888,5.65888,0,0,1,1.5176-.888,10.862,10.862,0,0,1,3.34689-.69117,16.92512,16.92512,0,0,1,3.36094.17944,12.86114,12.86114,0,0,1,3.231.879c-2.10333-3.84655-3.59606-6.60185-3.59606-6.60185-1.1072-.24778-2.12246-.54536-3.17462-.69465a17.08269,17.08269,0,0,0-3.09968-.26308,17.80646,17.80646,0,0,0-3.11822.23013,30.6985,30.6985,0,0,0-3.17353.676,7.791,7.791,0,0,1,2.91465-1.69308,10.14039,10.14039,0,0,1,6.745.025,8.628,8.628,0,0,1,2.90644,1.7197s4.33089-8.16107-1.389-8.95194a5.87585,5.87585,0,0,0-3.581.75368c-2.34037,1.25674-7.7842,3.46142-12.30549-.276a8.63343,8.63343,0,0,1-2.93478-7.24784c.1504-2.78331-.20142-6.64474-3.18922-7.46283-4.77432-1.30943-8.07539,7.4753-8.07539,7.4753s-2.90525,4.8634-6.72134,6.475a11.338,11.338,0,0,0-6.57136,6.79365c-1.24078,3.92633-.37709,8.64052,8.8989,10.89543,0,0,6.70193,1.15766,16.76092,13.05383a34.57228,34.57228,0,0,0,12.50009,8.89617,10.58767,10.58767,0,0,1-.95448-.73655l-.016-.02051-.02777-.02167c-2.71134-2.89453-5.49569-5.7431-8.36182-8.47324-1.42644-1.37037-2.88661-2.71446-4.40025-3.97335a19.99392,19.99392,0,0,0-4.79375-3.22079,25.79076,25.79076,0,0,1-5.11819-3.31618,53.688,53.688,0,0,1-4.48533-4.02665,36.8575,36.8575,0,0,1-3.93145-4.54514,20.59872,20.59872,0,0,1-1.61087-2.54348,7.39786,7.39786,0,0,1-.90539-2.85351,7.47875,7.47875,0,0,0,1.123,2.72762,20.05326,20.05326,0,0,0,1.74553,2.395,46.75853,46.75853,0,0,0,4.11344,4.26179,52.63833,52.63833,0,0,0,4.56516,3.77982,28.52959,28.52959,0,0,0,4.9771,3.02328l.70283.30152c.24935.11055.47837.23694.71417.358.45125.25806.88731.53858,1.30474.823.85212.57714,1.65673,1.191,2.42743,1.8313,1.56039,1.27694,3.04468,2.624,4.50052,4.00418,2.882,2.75048,5.6422,5.59605,8.31509,8.55294l.04375.04219a9.27252,9.27252,0,0,0,3.66334,1.97909,13.0983,13.0983,0,0,0,4.30528.358,26.35857,26.35857,0,0,0,8.54549-2.40013,81.84175,81.84175,0,0,0,7.96438-4.3199,5.39229,5.39229,0,0,1,4.55891-.15492,2.31635,2.31635,0,0,1,.91687.744,2.10854,2.10854,0,0,1,.3689,1.1166,4.16921,4.16921,0,0,1-.57995,2.10583C263.45341,478.12852,268.16342,470.608,259.383,468.50033Zm-40.51834-13.58571c-1.649,1.306-6.43113.79707-7.18348-2.89379-.87851-4.30013-2.87152-6.3284-1.21569-7.63973,1.64376-1.31282,4.86007-.01964,7.18361,2.894C219.96727,450.18193,220.50856,453.602,218.86466,454.91462Z" stroke="#000" stroke-miterlimit="10" stroke-width="0.77983"/><rect x="213.69132" y="420.95372" width="16.4237" height="0.77968" transform="translate(-241.08902 309.94498) rotate(-48.69765)"/><rect x="233.10867" y="438.35729" width="9.60819" height="0.78002" transform="translate(-253.14795 349.52261) rotate(-51.23286)"/><rect x="333.37509" y="443.18064" width="0.77896" height="10.89913" transform="translate(-53.24889 45.03582) rotate(-7.15064)"/><rect x="357.83674" y="440.90355" width="0.77943" height="13.30129" transform="translate(-90.77989 91.14957) rotate(-12.88466)"/><path d="M301.30489,329.34341c-1.67343,4.67081-3.64931,9.22677-5.64975,13.76917q-3.0947,6.77219-6.52365,13.38952a251.81161,251.81161,0,0,1-15.24377,25.60971c-2.82639,4.09234-5.75945,8.1124-8.84035,12.02019-3.12955,3.86778-6.34611,7.67054-9.79074,11.26417-3.46358,3.57446-7.05792,7.02072-10.84874,10.2415a111.37526,111.37526,0,0,1-12.07516,8.71263,138.27021,138.27021,0,0,0,21.97654-19.83341c3.27715-3.69329,6.45933-7.46751,9.48689-11.3678q4.52837-5.85993,8.70444-11.9837c5.56765-8.16106,10.69413-16.6241,15.49734-25.2717q3.61152-6.48166,6.918-13.13339Q298.28434,336.1404,301.30489,329.34341Z"/><path d="M309.58337,284.39665a73.4736,73.4736,0,0,1,2.94757,8.33533c.19555.72209.382,1.42056.52092,2.19037a21.81192,21.81192,0,0,1,.18269,2.25611c.06082,1.48139.07836,2.94967.0938,4.41538.0531,2.92675.0779,5.85443.39532,8.715a18.11368,18.11368,0,0,0,.84817,4.10778,3.483,3.483,0,0,0,.93754,1.48,1.305,1.305,0,0,0,1.39881.08421l.56747-.225.29567.50736a23.13287,23.13287,0,0,0,2.43412,3.4472,7.864,7.864,0,0,0,3.16627,2.44254,1.42434,1.42434,0,0,0,1.48162-.57332,1.59326,1.59326,0,0,0,.31228-.81146,1.721,1.721,0,0,0-.02433-.4442l-.11625-.52584c-.33333-1.41285-.644-2.83107-.99578-4.23924l-.33146-1.32794.81005,1.10549a30.37281,30.37281,0,0,0,2.60394,3.15387,13.85,13.85,0,0,0,1.4898,1.36817c.502.38385,1.1635.79437,1.61846.672.21474-.05614.33544-.24444.466-.58385a6.35526,6.35526,0,0,0,.34128-.9249,7.87843,7.87843,0,0,0,.25544-1.95156,9.40181,9.40181,0,0,0-.85262-3.81164l-1.36887-2.93446,2.13354,2.44979a34.37357,34.37357,0,0,0,2.98709,3.05469,12.14869,12.14869,0,0,0,1.63834,1.25075,2.92673,2.92673,0,0,0,.79391.36022.379.379,0,0,0,.2159.0117c.02152-.00632.00561-.0014.03836-.04655a1.57922,1.57922,0,0,0,.11977-.70385,6.77109,6.77109,0,0,0-.06971-.98221c-.08772-.69613-.20725-1.396-.34573-2.09517q-.41893-2.09647-.94548-4.1962c-.68958-2.8002-1.48489-5.57771-2.14828-8.43849-.16186-.71811-.32069-1.43951-.42993-2.196a10.60832,10.60832,0,0,1-.11111-1.18595,4.13235,4.13235,0,0,1,.03672-.69683,2.16957,2.16957,0,0,1,.10737-.44163,1.52317,1.52317,0,0,1,.33122-.52958,2.19259,2.19259,0,0,1,1.61823-.65263,4.37639,4.37639,0,0,1,1.34852.21006,9.29813,9.29813,0,0,1,2.16745,1.03086,11.8171,11.8171,0,0,1,1.85284,1.44653c.14667.1317.28257.29216.42292.43812.1186.11392.18667.19439.29988.291a4.68336,4.68336,0,0,0,.75578.50573,7.5765,7.5765,0,0,0,1.81144.69332,6.14463,6.14463,0,0,0,.927.157,1.97759,1.97759,0,0,0,.676-.04047c.00982-.00748-.02527.003-.0138.02573-.055.01755-.06339.10386-.07392.131-.03228.0096.0145.1055-.00538.04585a.65476.65476,0,0,1-.0269-.12163,5.23572,5.23572,0,0,0-.41707-.81988c-.34994-.57613-.763-1.1546-1.19156-1.72348-.85637-1.1518-1.77495-2.236-2.66336-3.46381a4.17555,4.17555,0,0,1-.34877-.58877l-.203-.49028q-.207-.47122-.44233-.93169c-.32046-.61215-.70408-1.204-1.09308-1.83038a11.45759,11.45759,0,0,1-1.02853-2.02477,10.09419,10.09419,0,0,1-.33145-1.09495l-.117-.55485a4.002,4.002,0,0,0-.12655-.46549,8.69183,8.69183,0,0,0-2.26734-3.43574,4.33173,4.33173,0,0,0-3.84626-1.16326l-.04515-.16187a4.2022,4.2022,0,0,1,2.21728-.08819,5.31067,5.31067,0,0,1,2.01892.99367,8.8516,8.8516,0,0,1,2.72324,3.5658,4.85933,4.85933,0,0,1,.18947.57263l.13614.50151a9.13755,9.13755,0,0,0,.35391.96537,10.4427,10.4427,0,0,0,1.0435,1.78594c.40912.58174.851,1.18244,1.24115,1.83342.19392.32631.3752.66175.53777,1.00654l.23064.50572c.03322.05918.13216.203.2255.33146.84864,1.09121,1.84067,2.18921,2.75434,3.33048.46269.57239.916,1.15741,1.34174,1.80442a6.56473,6.56473,0,0,1,.59555,1.09847c.0414.13029.07836.26806.11064.40373a1.646,1.646,0,0,1-.00678.58432,1.55752,1.55752,0,0,1-.31626.60865,2.30219,2.30219,0,0,1-.46151.33005,3.16752,3.16752,0,0,1-1.45916.23228,6.64606,6.64606,0,0,1-1.218-.16935,9.249,9.249,0,0,1-2.24722-.82058,6.366,6.366,0,0,1-1.05519-.687c-.16561-.13333-.34432-.32023-.48561-.458-.11391-.11158-.21192-.22924-.3373-.33707a10.08406,10.08406,0,0,0-1.58711-1.19578,8.17446,8.17446,0,0,0-1.74337-.8346c-.57356-.2-1.1401-.138-1.14081-.04281.10854-.23275-.01988.1207.01287.39578a8.96794,8.96794,0,0,0,.09123.97613c.09473.67765.22479,1.37659.37028,2.07366.59017,2.79645,1.334,5.60741,1.97471,8.446.3193,1.421.63485,2.84815.86479,4.3024.11789.72631.21754,1.4594.28537,2.20325a8.10662,8.10662,0,0,1,.03953,1.18524,2.68012,2.68012,0,0,1-.37636,1.38361,1.87986,1.87986,0,0,1-.33591.36187,1.50039,1.50039,0,0,1-.47555.21754,1.65382,1.65382,0,0,1-.85589-.02363,4.04619,4.04619,0,0,1-1.16279-.55976,13.27944,13.27944,0,0,1-1.74009-1.47319,35.72881,35.72881,0,0,1-2.91926-3.31247l.7649-.48467a10.16647,10.16647,0,0,1,.75531,4.22333,8.54163,8.54163,0,0,1-.37543,2.11553,7.12872,7.12872,0,0,1-.39836.99951,1.34729,1.34729,0,0,1-.86034.88537,1.7154,1.7154,0,0,1-1.18992-.211,6.14435,6.14435,0,0,1-.90689-.59578,14.29553,14.29553,0,0,1-1.53659-1.43413,38.2059,38.2059,0,0,1-2.66663-3.19458l.47836-.22245c.35251,1.40793.74572,2.80557,1.11647,4.20906l.14316.53122a2.42639,2.42639,0,0,1,.07181.636,2.34234,2.34234,0,0,1-.38853,1.21846,2.27023,2.27023,0,0,1-2.3029,1.01309,8.57336,8.57336,0,0,1-3.82825-2.55272,24.32542,24.32542,0,0,1-2.77774-3.51363l.86291.28233-.63882.21544a6.24525,6.24525,0,0,1-.71788.08585,2.60979,2.60979,0,0,1-1.42431-.48,4.56578,4.56578,0,0,1-1.48676-2.11669,17.58006,17.58006,0,0,1-.94128-4.48907,76.17854,76.17854,0,0,1-.22058-8.87683l.07883-4.39035a21.23579,21.23579,0,0,0-.07228-2.13682c-.07953-.68116-.22456-1.41471-.371-2.11927-.6049-2.84674-1.4-5.67594-2.228-8.49064Z"/><path d="M316.42936,304.63825a23.162,23.162,0,0,0-.43952,6.0612,17.34783,17.34783,0,0,0,.458,2.97633,12.56431,12.56431,0,0,0,1.07624,2.76137l-.69215.35882a14.40462,14.40462,0,0,1-1.23156-6.08342A23.33533,23.33533,0,0,1,316.42936,304.63825Z"/><path d="M321.85689,304.63825a34.29269,34.29269,0,0,0,.61286,5.60974,16.53918,16.53918,0,0,0,.74665,2.68675,6.2634,6.2634,0,0,0,1.353,2.28675l-.55859.54386a6.88538,6.88538,0,0,1-1.34758-2.64161,16.96524,16.96524,0,0,1-.578-2.81212A34.4495,34.4495,0,0,1,321.85689,304.63825Z"/><path d="M327.75529,301.99243a28.64478,28.64478,0,0,0,.87016,5.75829,11.54454,11.54454,0,0,0,2.49985,5.04367l-.56958.53216a9.26263,9.26263,0,0,1-1.51062-2.63108,16.483,16.483,0,0,1-.79952-2.8575A28.82644,28.82644,0,0,1,327.75529,301.99243Z"/><path d="M348.33209,71.96492c-4.13913-.17239-13.41175-4.14988-13.41175-4.14988l-.00187.00117c-4.47737-3.99082-11.31564-6.76506-21.10919-2.74031-20.494,8.4221-8.98374,34.53075-8.98374,34.53075s9.96618-4.63221,8.56246-7.72036-.14035-5.755,2.52675-5.19361c2.66686.56139,9.12385-3.64954,15.58084-7.86072q.46514-.3033.91232-.55508a9.62857,9.62857,0,0,1,7.65294-.61312C347.85541,80.11521,352.12457,72.123,348.33209,71.96492Z"/><path d="M317.178,84.03724s1.14588,4.484.801,6.89843,1.58556,2.217,2.242-1.03477C321.94554,81.35773,317.36,81.37468,317.178,84.03724Z"/><path d="M340.35023,101.61537a6.95236,6.95236,0,0,1,1.4283,3.97947,13.16535,13.16535,0,0,1-3.01689.19087c-2.58809-.91923-4.62887-4.17034-4.62887-4.17034S339.65029,100.49286,340.35023,101.61537Z"/><path d="M436.467,467.228l-18.18373,8.84608s-6.97554,5.28841,1.781,6.58179c1.07861.15931,27.72321-.69931,27.72321-.69931l.78107-11.133a3.57774,3.57774,0,0,0-3.65785-3.80138Z"/><path d="M470.124,467.228l-18.18372,8.84608s-6.97555,5.28841,1.781,6.58179c1.07861.15931,27.72321-.69931,27.72321-.69931l.78107-11.133a3.57774,3.57774,0,0,0-3.65785-3.80138Z"/><path d="M460.83488,409.21787l.85145,7.44341.75484,7.17908a132.59747,132.59747,0,0,0,2.21378,14.51536c1.04466,4.78637,2.0126,9.63332,2.92814,14.46764l1.39414,7.25558,1.508,7.23054-.073-.13076a21.2253,21.2253,0,0,0,5.27385,3.67714,5.89571,5.89571,0,0,0,2.99832.65216,2.57118,2.57118,0,0,0,1.32279-.51859,3.53222,3.53222,0,0,0,.87742-1.14969,9.76623,9.76623,0,0,0,.69028-3.0437c.14362-1.07133.22432-2.156.31883-3.23528.16116-2.16442.26759-4.334.34268-6.50354.11368-4.34052.09006-8.6876-.197-13.00567-.1635-2.15459-.36046-4.30988-.71835-6.42167a25.86946,25.86946,0,0,0-1.57027-6.09675l-.0793-.182.00234-.18643.11158-8.73228.18222-8.732.53216.67086c-3.211-.775-6.41255-1.64606-9.6759-2.50756Zm-.10947-.12725L470.609,410.994c3.36089.65473,6.78353,1.3001,10.19658,2.04161l.52584.11415.00655.55672.10339,8.73345.03252,8.733-.077-.36819a27.39593,27.39593,0,0,1,1.68887,6.54939c.34338,2.1974.49426,4.399.62361,6.5971a118.99618,118.99618,0,0,1-.10035,13.16918c-.14011,2.18921-.32046,4.37608-.6035,6.55406-.14877,1.08864-.283,2.17728-.48233,3.26124a10.75727,10.75727,0,0,1-.91086,3.27224,4.29543,4.29543,0,0,1-1.15788,1.37893,3.28594,3.28594,0,0,1-1.70782.59555,6.94036,6.94036,0,0,1-3.31106-.78619,22.95963,22.95963,0,0,1-5.38262-3.8451l-.0545-.04982-.01848-.08093-1.65822-7.19757L466.54989,453.05c-1.18033-4.78754-2.37119-9.54911-3.37071-14.3956a113.20424,113.20424,0,0,1-1.88138-14.724c-.13146-2.50336-.24444-5.06472-.33731-7.55171Z"/><path d="M429.87273,409.69085l.30175,7.48575.22479,7.2151a132.54274,132.54274,0,0,0,1.14034,14.63887c.68981,4.85022,1.29846,9.75519,1.85588,14.64377l.85683,7.33838.97215,7.322-.06316-.13567a21.22093,21.22093,0,0,0,4.98917,4.05491,5.89275,5.89275,0,0,0,2.94219.87087,2.56994,2.56994,0,0,0,1.35717-.41964,3.53008,3.53008,0,0,0,.95975-1.08209,9.77192,9.77192,0,0,0,.91227-2.98476c.222-1.058.38222-2.13377.556-3.20323.31976-2.1464.58549-4.3024.81987-6.46073.43274-4.32018.72888-8.65719.76022-12.98485-.00467-2.16068-.04234-4.32462-.2442-6.457a25.86887,25.86887,0,0,0-1.11742-6.19571l-.066-.18736.01614-.18573.75344-8.70047.82432-8.69508.48139.70829c-3.14545-1.00911-6.2743-2.11319-9.46536-3.21235Zm-.09965-.1352,9.71683,2.62522c3.30358.90011,6.66962,1.79554,10.01881,2.78593l.516.15251-.03439.55579-.53941,8.7173-.60981,8.71193-.04983-.37286a27.38885,27.38885,0,0,1,1.20279,6.65582c.18082,2.21681.16936,4.42333.13661,6.62517a119.03431,119.03431,0,0,1-1.06852,13.12614c-.30082,2.17283-.64163,4.34052-1.084,6.49184-.2283,1.07484-.44256,2.15038-.72092,3.2168a10.75571,10.75571,0,0,1-1.14923,3.19644,4.29228,4.29228,0,0,1-1.25589,1.29005,3.286,3.286,0,0,1-1.74734.46829,6.93593,6.93593,0,0,1-3.24417-1.02759,22.95756,22.95756,0,0,1-5.08507-4.23035l-.05053-.0538-.01286-.08234-1.1242-7.3-1.23951-7.28341c-.825-4.86146-1.66244-9.69765-2.3029-14.60472a113.21017,113.21017,0,0,1-.7932-14.82225c.0531-2.5064.12865-5.06894.21918-7.55639Z"/><path d="M482.82005,413.02953c-35.89271,12.98114-62.67081-8.82725-62.67081-8.82725,3.3192-19.60158,14.90957-42.2442,14.90957-42.2442,14.08432,10.49594,42.79131,5.80416,42.79131,5.80416A128.80172,128.80172,0,0,1,482.82005,413.02953Z"/><path d="M434.98307,361.99419a24.92647,24.92647,0,0,1-1.64512-7.20505,49.25224,49.25224,0,0,1-.12-7.40247,80.33406,80.33406,0,0,1,2.12558-14.63419c.244-1.21051.5607-2.40137.88841-3.58942l.95929-3.57142c.745-2.3471,1.44349-4.71291,2.26195-7.03569.86455-2.305,1.69378-4.6252,2.625-6.90283l2.93282-6.77184.54315.83017a12.60709,12.60709,0,0,1-4.74473-1.42618,17.66953,17.66953,0,0,1-3.967-2.78031,23.70079,23.70079,0,0,1-3.18148-3.59925c-.484-.63555-.90338-1.31671-1.34337-1.981-.38736-.69613-.82221-1.36676-1.16911-2.08325a50.53421,50.53421,0,0,1-3.43106-8.87052,83.07223,83.07223,0,0,1-1.9815-9.29344,127.42892,127.42892,0,0,1-1.31553-18.94711c-.004-1.585.01777-3.16908.08725-4.75128.05543-1.5829.09169-3.16768.20584-4.74684l.15018-2.371.07765-1.18524a4.48862,4.48862,0,0,1,.23743-1.36256,3.885,3.885,0,0,1,1.92138-2.16956,4.73427,4.73427,0,0,1,1.33074-.40421l1.16045-.232,9.28525-1.857a3.97257,3.97257,0,0,1,2.90663.48795,3.94291,3.94291,0,0,1,1.88114,3.1527l.003.38035-.0117.29754-.04538,1.17121-.04748,2.3443c-.01638,3.1272.08631,6.25605.34385,9.37156a91.277,91.277,0,0,0,1.28911,9.27754,53.31408,53.31408,0,0,0,6.49839,17.42713,32.94727,32.94727,0,0,0,13.61314,12.52685l-.03438-.00726.00889.00024v.16818l-.00889.00024-.01521.00047-.01941-.008a30.4268,30.4268,0,0,1-8.11428-4.93981,34.72549,34.72549,0,0,1-6.32973-7.16271,42.6014,42.6014,0,0,1-4.38661-8.51427,63.09089,63.09089,0,0,1-2.76113-9.16573,85.45848,85.45848,0,0,1-1.87881-18.98991l.05217-2.38851.048-1.19437.01216-.29356-.0021-.21146a2.08427,2.08427,0,0,0-.06269-.41263,2.20527,2.20527,0,0,0-2.60839-1.60559l-9.30794,1.73612a11.95893,11.95893,0,0,0-2.09658.47157,2.31061,2.31061,0,0,0-1.15718,1.27367,10.83058,10.83058,0,0,0-.25731,2.13541l-.19017,2.35131c-.149,1.56653-.22058,3.1368-.3111,4.7066-.1048,1.56981-.16187,3.14054-.19369,4.71222a122.44268,122.44268,0,0,0,.70315,18.83366,74.7166,74.7166,0,0,0,1.83951,9.24128,42.30284,42.30284,0,0,0,3.44136,8.73672,24.51294,24.51294,0,0,0,5.71922,7.31265,16.7393,16.7393,0,0,0,3.85772,2.49774,11.71706,11.71706,0,0,0,4.30146,1.153l.85987.03041-.31672.8-2.69984,6.82c-.86736,2.284-1.66805,4.59152-2.52628,6.8778l-2.3036,6.94962-.99882,3.51948c-.341,1.17145-.67157,2.3457-.92887,3.537l-.83531,3.56042-.68233,3.58989c-.262,1.19273-.38456,2.40394-.56865,3.60837-.196,1.20443-.3069,2.41588-.40327,3.62966-.35087,4.8245-.509,9.81952.98315,14.47442Z"/><path d="M487.22423,297.5801c2.20839,2.218,4.35971,4.48789,6.54166,6.73a40.58963,40.58963,0,0,1,5.7356,7.53674,39.81391,39.81391,0,0,1,5.33069,18.12093c.75882,12.50813.45192,25.0434.38525,37.55013q-.02,4.69257-.11719,9.38513c-.00959.39976.00608.7628-.02432,1.19273a4.03044,4.03044,0,0,1-.28515,1.24233,4.22184,4.22184,0,0,1-1.60582,1.96441,4.34734,4.34734,0,0,1-2.44652.69847l-2.345.043-4.69022.09193-1.17262.02293a4.90513,4.90513,0,0,1-1.33285-.15673,4.48391,4.48391,0,0,1-3.25142-3.98988l-.20491-2.33635-.40209-4.67315L485.813,352.304q-.7263-9.35216-1.31951-18.7139l1.60676.11228c-1.33074,5.68647-2.60652,11.38464-3.9824,17.06106-1.356,5.68085-2.73236,11.357-4.18568,17.01684l-.16421-.03579c1.0318-5.7515,2.14056-11.48616,3.2692-17.21637,1.10922-5.73443,2.31833-11.44733,3.47247-17.17193l1.12279-5.56788.4842,5.68039q.79683,9.34724,1.47975,18.7029l1.273,18.71858.29778,4.6811.14479,2.34079a3.146,3.146,0,0,0,.6566,1.79577,3.24,3.24,0,0,0,1.57846,1.1001,3.67235,3.67235,0,0,0,.98361.15251l1.17262.02292,4.69022.09193,2.345.043a3.44849,3.44849,0,0,0,3.38522-2.05868,5.5083,5.5083,0,0,0,.334-2.17494c.11883-3.12277.1869-6.2474.24327-9.372.174-12.50626-.71461-24.99264-1.37636-37.45867a40.35229,40.35229,0,0,0-10.14512-25.21065c-2.025-2.38476-4.08088-4.74146-6.07968-7.15031Z"/><path d="M462.51893,284.96947a20.83708,20.83708,0,0,1,1.94663,3.67817,5.75,5.75,0,0,1-7.87651-8.37871,4.82484,4.82484,0,0,1,.84322-.65486,9.86572,9.86572,0,0,0,.49344.96871A11.55772,11.55772,0,0,0,462.51893,284.96947Z"/><path d="M465.99955,286.27941a.01221.01221,0,0,1,0,.01774,6.06839,6.06839,0,0,1-.69078-.19711A6.04323,6.04323,0,0,0,465.99955,286.27941Z"/><circle cx="454.66916" cy="291.31521" r="5.75152"/><path d="M455.59468,303.73513c-2.29592,2.19517-8.358,2.64382-8.358,2.64382s-1.88738-8.7629.40853-10.95807a5.75153,5.75153,0,0,1,7.94943,8.31425Z"/><path d="M457.35586,279.64864a11.33059,11.33059,0,0,1-1.36185-5.45255,15.61149,15.61149,0,0,1,1.07835-5.59852,19.523,19.523,0,0,1,2.792-4.97444,21.14542,21.14542,0,0,1,3.96111-4.0755,30.39389,30.39389,0,0,1,9.98794-5.08016,26.23207,26.23207,0,0,1,11.10113-1.07414,15.29376,15.29376,0,0,1,5.41817,1.829,11.60149,11.60149,0,0,1,4.20229,4.04439,12.13035,12.13035,0,0,1,1.76,5.61209,15.02212,15.02212,0,0,1-.81917,5.78027,20.39153,20.39153,0,0,1-2.67435,5.10005,2.94607,2.94607,0,0,0-.28888.45122,1.60848,1.60848,0,0,0-.13661.44374,1.85975,1.85975,0,0,0,.11906.967,2.50077,2.50077,0,0,0,.11041.23391l.16491.38058a3.64791,3.64791,0,0,1,.277.793,3.83767,3.83767,0,0,1-.007,1.65354,4.9958,4.9958,0,0,1-1.6077,2.64277,6.96521,6.96521,0,0,1-2.58452,1.44209,6.06318,6.06318,0,0,1-5.51081-.8049l.09591-.138a5.88193,5.88193,0,0,0,5.12882.14245,4.99669,4.99669,0,0,0,3.18732-3.52884,2.48168,2.48168,0,0,0-.0559-1.09332,2.26189,2.26189,0,0,0-.2138-.49707l-.11743-.25122a3.886,3.886,0,0,1-.208-.38082,3.3674,3.3674,0,0,1-.3111-1.73635,3.16268,3.16268,0,0,1,.2159-.89,4.57749,4.57749,0,0,1,.40584-.74362,20.80233,20.80233,0,0,0,2.31178-4.756,12.25349,12.25349,0,0,0-.6-10.0146,12.83557,12.83557,0,0,0-8.43076-5.777,20.20428,20.20428,0,0,0-10.76617.68865,27.11114,27.11114,0,0,0-9.25087,5.62893c-.69753.57169-1.28957,1.25144-1.94219,1.86664-.58619.67718-1.20817,1.3249-1.73986,2.04442a21.07977,21.07977,0,0,0-2.77026,4.567,14.18118,14.18118,0,0,0-.76771,10.48594Z"/><path d="M464.5436,288.61671a11.21545,11.21545,0,0,1,1.28279,4.07831,6.19689,6.19689,0,0,1-.2035,2.243,5.1025,5.1025,0,0,1-.44889,1.07928,5.39093,5.39093,0,0,0-.39625.86057,4.11812,4.11812,0,0,0,.247,3.4568,3.963,3.963,0,0,0,.51437.70946c.23415.22947.45427.47391.69707.69216a10.70086,10.70086,0,0,0,1.5263,1.20957,10.02863,10.02863,0,0,0,3.56813,1.51086,11.52985,11.52985,0,0,0,3.99738-.02105,18.11546,18.11546,0,0,0,7.35943-3.585c.54713-.42315,1.09449-.84232,1.60091-1.31717l.774-.68958.38455-.34666.18971-.17193a1.26882,1.26882,0,0,0,.11579-.13871,1.06906,1.06906,0,0,0-.02223-1.27882,14.21557,14.21557,0,0,1-1.18945-1.80675,18.27123,18.27123,0,0,1-2.1574-8.38l-.01427-.54385a1.07812,1.07812,0,0,0-.03345-.28748.72624.72624,0,0,0-.25543-.385.73915.73915,0,0,0-.43766-.163.77811.77811,0,0,0-.23415.02947l-.45145.14549c-.59181.16866-1.30969.43953-1.97775.67157a19.63249,19.63249,0,0,1-2.06735.62105,22.33206,22.33206,0,0,1-8.569.418l-.16772-.05029a.33378.33378,0,0,0,.18339.04234l-.05169-.00257a14.0442,14.0442,0,0,1-1.56022-.34643c-.49824-.15438-.98244-.32514-1.4629-.51414a15.79223,15.79223,0,0,1-2.80721-1.31414l.08491-.145a11.83392,11.83392,0,0,0,1.43623.46666c.48889.13334.98245.25216,1.47741.36327l1.48115.31743a13.03106,13.03106,0,0,0,1.45472.15883l-.05146-.00258a.73189.73189,0,0,1,.27274.06035l-.16725-.05029a26.24953,26.24953,0,0,0,4.054-.16725,25.58461,25.58461,0,0,0,3.96416-.85262,19.24525,19.24525,0,0,0,1.91857-.6456c.64327-.24374,1.22127-.49286,1.96535-.72888l.545-.17287a2.58184,2.58184,0,0,1,.8-.09543,2.54109,2.54109,0,0,1,2.353,1.89658,2.85194,2.85194,0,0,1,.07275.7497l-.00538.50245a17.91368,17.91368,0,0,0,1.63366,7.76948,14.35357,14.35357,0,0,0,.99531,1.75834,2.20734,2.20734,0,0,1-.21684,2.61961,2.29337,2.29337,0,0,1-.24748.23672l-.215.15953-.42666.31439-.84794.63227c-.55321.43531-1.14922.81589-1.74173,1.19764a28.75331,28.75331,0,0,1-7.58,3.72627,12.299,12.299,0,0,1-4.31036.47321,9.71594,9.71594,0,0,1-4.2128-1.38642,11.93071,11.93071,0,0,1-1.76489-1.36278c-.26994-.25427-.51111-.53544-.76654-.8021a5.444,5.444,0,0,1-.68514-.99952,5.29409,5.29409,0,0,1-.1345-4.62824,6.51454,6.51454,0,0,1,.564-.99531,4.015,4.015,0,0,0,.42549-.81589,5.72327,5.72327,0,0,0,.3759-1.879,13.188,13.188,0,0,0-.58923-4.0362Z"/><path d="M492.53667,381.63416c-.09263.811-.34222,1.76348-.50713,2.63645-.1738.89473-.38993,1.77612-.57823,2.66406-.40117,1.76582-.82151,3.53515-1.16092,5.276l.01637-.15813a7.28214,7.28214,0,0,0,.15345,1.30361,2.27911,2.27911,0,0,0,.17029.509c.07392.14339.09894.05029-.11322.015-.16888.007-.04725.01357.06714-.09731a2.93767,2.93767,0,0,0,.39531-.42292,9.72913,9.72913,0,0,0,.79157-1.11133c.25052-.39812.50877-.80443.7504-1.22173a2.3772,2.3772,0,0,1,.64093-.76724,2.03,2.03,0,0,1,.9518-.39041,2.00391,2.00391,0,0,1,1.80231.67765,1.88536,1.88536,0,0,1,.19181,2.22313l-.19836.31672-.39742.63181-.83344,1.24021a11.99193,11.99193,0,0,1-1.97868,2.28559,1.9592,1.9592,0,0,0-.68514,1.05542,1.77757,1.77757,0,0,0,.14713,1.185c.33473.61356,1.36092.51532,2.21611.28117a16.72392,16.72392,0,0,0,2.62289-1.04911,14.139,14.139,0,0,0,2.38991-1.40045,7.574,7.574,0,0,0,2.71856-4.42894c.76513-3.52557.05941-7.47359-1.10782-11.03658l.68373.45333c-1.45893-.05731-2.937-.18175-4.45234-.28725C495.72353,381.91766,494.15794,381.76445,492.53667,381.63416Zm-.1062-.1448c1.4463-.13029,2.94827-.2835,4.50544-.38268,1.55226-.1055,3.14148-.22994,4.75011-.28725l.47555-.01684.20818.4704a23.48554,23.48554,0,0,1,1.7422,5.85115,14.99289,14.99289,0,0,1-.18713,6.21956,9.33585,9.33585,0,0,1-3.57282,5.27175,13.12736,13.12736,0,0,1-2.79551,1.38968,15.53954,15.53954,0,0,1-2.96394.81941,5.60328,5.60328,0,0,1-1.62852.033,1.88471,1.88471,0,0,1-1.48793-1.01917,2.62747,2.62747,0,0,1-.08561-1.698,2.65531,2.65531,0,0,1,.95133-1.33916,8.96875,8.96875,0,0,0,1.86524-2.16395c.27134-.40186.51508-.82338.74619-1.25144l.341-.64537.15977-.32819a1.15377,1.15377,0,0,0,.07836-.26151,1.02959,1.02959,0,0,0-.32678-.93683.9386.9386,0,0,0-.8835-.20725.82551.82551,0,0,0-.37356.21848,1.10322,1.10322,0,0,0-.23625.4021c-.20421.45917-.4021.92513-.64982,1.375a10.69517,10.69517,0,0,1-.83741,1.34548,4.45372,4.45372,0,0,1-.607.65589,1.74064,1.74064,0,0,1-1.24958.4793,1.344,1.344,0,0,1-.81215-.385,1.89245,1.89245,0,0,1-.36491-.5242,3.80752,3.80752,0,0,1-.27882-.89285,8.74084,8.74084,0,0,1-.14176-1.62805l-.00023-.08819.01684-.07017c.43368-1.80957.99227-3.54171,1.58875-5.2687.313-.858.61122-1.71881.96163-2.56324C491.69715,383.196,491.97878,382.41146,492.43047,381.48936Z"/><ellipse cx="477.98977" cy="264.43774" rx="1.72546" ry="1.31135" transform="translate(-65.13948 206.0241) rotate(-22.81406)" fill="#1c1c1c"/><ellipse cx="471.7545" cy="258.15707" rx="1.72546" ry="1.31135" transform="translate(-63.192 203.11508) rotate(-22.81406)" fill="#1c1c1c"/><path d="M499.93751,278.58649c1.65656-1.10425,8.28242-5.93556-3.58908-17.39255,0,0,1.51876-12.69941-6.07355-14.07982,0,0-3.04614-.41414-5.66391,3.5889,0,0-4.80566-11.75524-7.9911,3.30189l5.55719-.48847s12.65335,11.81852,6.7176,12.92277S483.394,277.0681,483.394,277.0681s7.268-2.37287,7.41969-.0131a3.48562,3.48562,0,0,1,1.51314,1.94769c.64443,2.19445-1.14618,4.65233-3.9991,5.48979a5.87028,5.87028,0,0,1-4.945-.59669,19.2944,19.2944,0,0,0,1.52476,10.3945c2.71737-.19921,23.15587-2.16094,15.03-15.7038Z"/><circle cx="487.16171" cy="292.52818" r="5.75152"/><circle cx="488.06644" cy="301.54657" r="5.75152"/><path d="M497.683,309.46066c0,3.17648-3.865,7.86809-3.865,7.86809s-7.638-4.69161-7.638-7.86809a5.75153,5.75153,0,0,1,11.50305,0Z"/><path d="M441.4715,337.57381a29.12591,29.12591,0,0,0,.56191,7.6845,22.52909,22.52909,0,0,0,2.74165,7.10395,19.21391,19.21391,0,0,0,4.98965,5.71411,29.22686,29.22686,0,0,0,6.64583,3.88448c-1.21214-.44475-2.469-.82827-3.64416-1.39264a21.79274,21.79274,0,0,1-3.35986-2.02317,18.80074,18.80074,0,0,1-5.29083-5.79293,21.72389,21.72389,0,0,1-2.65932-7.38472A23.04429,23.04429,0,0,1,441.4715,337.57381Z"/><path d="M446.50689,344.568a18.98164,18.98164,0,0,0,2.61006,6.10468,22.87955,22.87955,0,0,0,4.32816,4.97945,28.68354,28.68354,0,0,0,5.50371,3.69025c.96795.54819,2.01578.938,3.02349,1.42079l3.14241,1.19771c-1.0918-.25826-2.18291-.544-3.2719-.84445-1.04676-.41589-2.1347-.75086-3.15437-1.24416a26.33725,26.33725,0,0,1-5.74508-3.641,21.5528,21.5528,0,0,1-4.32957-5.2553A15.56255,15.56255,0,0,1,446.50689,344.568Z"/><path d="M485.30554,333.52537a10.1266,10.1266,0,0,1,.05841-2.91125,11.483,11.483,0,0,1,.30576-1.413,7.58224,7.58224,0,0,1,.51019-1.38139,7.58162,7.58162,0,0,1,.07319,1.47076,11.46841,11.46841,0,0,1-.1316,1.43979A10.12,10.12,0,0,1,485.30554,333.52537Z"/><path d="M480.97316,326.5312c.67521,1.26105,1.23641,2.51858,1.906,3.71277a11.42358,11.42358,0,0,0,2.42639,3.2814,4.265,4.265,0,0,1-1.8219-1.16112,7.62724,7.62724,0,0,1-1.27723-1.75294,10.2073,10.2073,0,0,1-.82616-1.98094A8.85386,8.85386,0,0,1,480.97316,326.5312Z"/><path d="M447.94386,433.03407a7.31853,7.31853,0,0,1-.3522,2.444,8.22507,8.22507,0,0,1-.44369,1.14,5.56922,5.56922,0,0,1-.64108,1.07878,5.57265,5.57265,0,0,1,.07741-1.2526,8.25312,8.25312,0,0,1,.2748-1.19208A7.3209,7.3209,0,0,1,447.94386,433.03407Z"/><path d="M480.5738,431.16924a3.12155,3.12155,0,0,1-.24876,1.57208,3.34828,3.34828,0,0,1-.38246.67767.44269.44269,0,1,1-.54327-.23011,3.35734,3.35734,0,0,1,.21956-.74593A3.1247,3.1247,0,0,1,480.5738,431.16924Z"/><path d="M432.16178,439.26119a7.42708,7.42708,0,0,0,1.86975-.90849,4.9337,4.9337,0,0,0,1.35992-1.40249,6.30031,6.30031,0,0,0,.74136-1.83176,18.736,18.736,0,0,0,.30787-2.08438c.10767.34552.17136.703.25263,1.06471a10.61561,10.61561,0,0,1,.02288,1.10693,4.681,4.681,0,0,1-.67908,2.15757A4.20732,4.20732,0,0,1,432.16178,439.26119Z"/><path d="M465.393,439.26119a7.42708,7.42708,0,0,0,1.86975-.90849,4.929,4.929,0,0,0,1.35992-1.40249,6.30059,6.30059,0,0,0,.74136-1.83176,18.81963,18.81963,0,0,0,.30822-2.08438c.10767.34552.171.703.25228,1.06471a10.61235,10.61235,0,0,1,.02322,1.10693,4.68121,4.68121,0,0,1-.67943,2.15757A4.20731,4.20731,0,0,1,465.393,439.26119Z"/><path d="M474.84054,254.43636a2.83708,2.83708,0,0,1,3.27691,2.29821,2.59805,2.59805,0,0,1-.12772,1.42244c-.20678-.4421-.342-.8449-.53823-1.20677a4.45436,4.45436,0,0,0-.64888-.97542A7.63474,7.63474,0,0,0,474.84054,254.43636Z" fill="#020202"/><path d="M479.83556,260.273a2.83707,2.83707,0,0,1,3.27691,2.29822,2.59811,2.59811,0,0,1-.12772,1.42243c-.20654-.4421-.342-.8449-.53823-1.20676a4.4465,4.4465,0,0,0-.64888-.97543A7.631,7.631,0,0,0,479.83556,260.273Z" fill="#020202"/><path d="M464.46556,275.8641c3.46342,0,3.46915-5.38256,0-5.38256-3.46342,0-3.46916,5.38256,0,5.38256Z"/><path d="M485.33193,283.66881a1.34645,1.34645,0,0,0,0-2.69128,1.34645,1.34645,0,0,0,0,2.69128Z"/><path d="M466.89959,268.02752a7.35985,7.35985,0,0,1-1.38337-1.65729,3.109,3.109,0,0,1-.50128-2.243,1.43026,1.43026,0,0,1,.26573-.59625,1.48458,1.48458,0,0,1,.44163-.4697,3.29285,3.29285,0,0,1,1.08115-.54643c.37146-.08.74713-.16,1.11765-.204.36795-.02409.7373-.03018,1.10525-.043l-.04187.00164c1.12864-.10176,2.27272-.23485,3.39995-.40187.56116-.09567,1.12513-.18549,1.67577-.32374a3.44925,3.44925,0,0,0,1.53308-.69589,3.10562,3.10562,0,0,1-1.39928,1.07226,11.04179,11.04179,0,0,1-1.67086.59064,21.53007,21.53007,0,0,1-3.4617.636l-.04258.00164c-.338.01778-.67484.0421-1.01308.04842-.32959.03251-.65052.09614-.96958.15321a1.75909,1.75909,0,0,0-1.30992.9773,2.79266,2.79266,0,0,0,.21169,1.83693A10.51354,10.51354,0,0,0,466.89959,268.02752Z"/><path d="M430.97166,239.71328a26.8552,26.8552,0,0,1-8.48947-1.92605,10.52818,10.52818,0,0,1-2.02571-1.07508,2.58828,2.58828,0,0,1-.94571-1.11554,2.62822,2.62822,0,0,1-.0655-.272l-.018-.09731-.05217-.21052c-.04187-.14994-.0945-.30924-.14923-.46853-.47087-1.28794-1.04163-2.61354-1.60887-3.92112q-.86631-1.96383-1.67273-3.97117a27.02374,27.02374,0,0,1-1.382-4.21258,2.82618,2.82618,0,0,1-.03929-.35485,1.34573,1.34573,0,0,1,.01941-.27531.88772.88772,0,0,1,.07649-.23065.70083.70083,0,0,1,.31813-.31438.68862.68862,0,0,1,.4187-.06222.91436.91436,0,0,1,.21825.06667,1.22749,1.22749,0,0,1,.2159.13356c.11836.08983.15321.1324.23392.20094.28256.24818.54549.50315.80443.76139.51789.51555,1.01566,1.04139,1.50454,1.57378l2.89844,3.21-.48537.29287c-.23626-.70105-.44164-1.40116-.62619-2.1146a13.277,13.277,0,0,1-.433-2.1871,2.50868,2.50868,0,0,1,.12561-1.23531.752.752,0,0,1,.73754-.42572,1.60315,1.60315,0,0,1,.64583.21731,7.30361,7.30361,0,0,1,1.74033,1.5029,19.79545,19.79545,0,0,1,2.46266,3.72837,30.89357,30.89357,0,0,1,1.81307,4.06778l-.90361-.46011a16.79974,16.79974,0,0,1,1.709-.4966,12.342,12.342,0,0,1,1.76489-.29731,8.49053,8.49053,0,0,1,1.87413.01778,4.194,4.194,0,0,1,1.97728.7525l-1.41238.50573c-.00982.03111.003-.13053-.01427-.2145a2.04349,2.04349,0,0,0-.06853-.31953,2.799,2.799,0,0,0-.31228-.6442,4.60037,4.60037,0,0,0-1.14642-1.12794c-.2304-.16584-.47718-.3214-.731-.46993a4.85972,4.85972,0,0,1-.97894-.71368,3.70021,3.70021,0,0,1-1.12513-2.31178,4.45629,4.45629,0,0,1,.03205-1.21519c.03134-.193.06877-.38292.116-.56724a3.31771,3.31771,0,0,1,.2276-.67321,1.77024,1.77024,0,0,1,1.71717-.94408,1.79707,1.79707,0,0,1,.93472.352,2.0707,2.0707,0,0,1,.5352.63111,13.50448,13.50448,0,0,0,2.32582,2.7906c.90244.81075,2.01962,1.48068,3.0961,2.32278a7.205,7.205,0,0,1,2.94358,4.28485c.05427.34081.12982.70034.16117,1.02127.07275.65029.1497,1.30244.19345,1.96348a7.52506,7.52506,0,0,1-.047,2.04466,1.19586,1.19586,0,0,1-.70315.86595,3.36683,3.36683,0,0,1-1.00607.19157.09012.09012,0,0,1-.09754-.08163.09319.09319,0,0,1,.07111-.09591,3.14233,3.14233,0,0,0,.87952-.31227.8098.8098,0,0,0,.39789-.65777,7.18022,7.18022,0,0,0-.20748-1.85869l-.39719-1.913c-.06362-.32607-.15555-.6-.229-.89963a6.61123,6.61123,0,0,0-.35158-.82643,7.08015,7.08015,0,0,0-2.45493-2.577c-1.02291-.71531-2.20278-1.32746-3.30639-2.20043a13.15189,13.15189,0,0,1-2.821-3.08792c-.13964-.22362-.07321-.10034-.08046-.12116a.07433.07433,0,0,0,.0283.01777c.00491.01123.06807-.00725.098-.0559.02947-.07719-.04164.14853-.06222.26081-.03041.13334-.0517.2648-.06994.39509a3.27543,3.27543,0,0,0-.01427.7394,1.75954,1.75954,0,0,0,.54409,1.14151,2.89564,2.89564,0,0,0,.60256.43531,8.3957,8.3957,0,0,1,.91016.60093,6.41169,6.41169,0,0,1,1.5663,1.67179,4.58365,4.58365,0,0,1,.4966,1.13449,3.79134,3.79134,0,0,1,.11275.64233,2.69828,2.69828,0,0,1-.03509.76279.86435.86435,0,0,1-1.40583.51158l-.00678-.00585a4.08319,4.08319,0,0,0-2.63739-.528,15.44427,15.44427,0,0,0-3.14476.51345l-.0414.01146a.70814.70814,0,0,1-.86268-.47158,41.03706,41.03706,0,0,0-1.462-4.01748,17.68069,17.68069,0,0,0-2.06758-3.70873,6.14535,6.14535,0,0,0-1.45238-1.44115,1.03819,1.03819,0,0,0-.37028-.15555c-.09263.00094-.08538-.0124-.149.07719a1.91613,1.91613,0,0,0-.09637.9111,17.45769,17.45769,0,0,0,1.03624,4.15269.28953.28953,0,0,1-.48163.29708l-.004-.00421c-.98992-1.03134-2.01424-2.03787-3.07761-2.99248-.52959-.47929-1.06572-.94993-1.61-1.4-.27181-.22479-.54643-.44654-.82268-.64865-.06012-.0428-.15766-.12187-.18666-.13473-.02293-.01661-.0241-.00866-.0138-.00561a.24024.24024,0,0,0,.09.0276.47293.47293,0,0,0,.28819-.04538.50983.50983,0,0,0,.22689-.22082.47338.47338,0,0,0,.03953-.10222c.00585-.03509.00726-.01614.00866-.00678l.03977.17731a16.03853,16.03853,0,0,0,.73917,1.90547l.85917,1.95436c.57215,1.30945,1.15437,2.62148,1.69331,3.95737.53753,1.3415,1.10127,2.65751,1.53144,4.097.05286.18315.10432.36748.14947.56584l.06058.31555.02176.16889c.00327-.004.0014-.00819-.00492-.00959a1.466,1.466,0,0,0,.44187.495,9.80322,9.80322,0,0,0,1.70618,1.05823,37.11739,37.11739,0,0,0,8.00831,2.83458.08979.08979,0,0,1,.07111.1055A.093.093,0,0,1,430.97166,239.71328Z" fill="#020202"/><path d="M423.27071,232.71361a.44706.44706,0,0,1-.44724-.42011c-.08234-1.31367-1.6-3.83433-2.17728-4.69514a.44842.44842,0,1,1,.74478-.49964c.09076.13473,2.21377,3.316,2.327,5.13864a.44753.44753,0,0,1-.41918.47532Z" fill="#020202"/></svg>