<svg id="Layer_1" data-name="Layer 1" xmlns="http://www.w3.org/2000/svg" viewBox="0 0 700 550"><title>going with the luggage</title><path d="M230.72162,316.66165a.47116.47116,0,0,1,.00968.11612l.00969-.17419Zm0,0a.47116.47116,0,0,1,.00968.11612l.00969-.17419Zm0,0a.47116.47116,0,0,1,.00968.11612l.00969-.17419Zm0,0a.47116.47116,0,0,1,.00968.11612l.00969-.17419Zm60.30184-13.71331s-51.18545.97746-57.25334.10644a7.61874,7.61874,0,0,0-8.24543,3.90015s-26.67179,82.42509-26.246,94.78355c0,0,15.83272,15.18428,21.26191,15.18428,0,0,54.21453-4.77105,55.52111-5.85495l24.06848-103.67737S300.7593,301.9225,291.02346,302.94834ZM245.78983,324.878c-1.82911,7.01634-3.73559,14.02306-5.62275,21.02q-2.81622,10.539-5.75826,21.03934-2.88878,10.51-5.87438,21.00066-2.94681,10.49546-6.04857,20.95228,2.65656-10.56811,5.44856-21.11679,2.74365-10.55357,5.62275-21.0684,2.81622-10.539,5.73888-21.03935c1.93554-7.00666,3.85177-14.023,5.85506-21.01034a.30117.30117,0,0,1,.04838-.09675l.029-.03875a2.90741,2.90741,0,0,0,.1355-2.53556,8.50465,8.50465,0,0,0-1.413-2.48718,23.79216,23.79216,0,0,0-4.25816-4.04528l-1.171-.9-1.22909-.842-1.07421-.73551h-.00969a12.38138,12.38138,0,0,0-1.35484.24194,5.3472,5.3472,0,0,0-2.33236,1.2194,2.90494,2.90494,0,0,0-.91934,2.22587v.03874a.5706.5706,0,0,1-.01937.13545l-5.87438,21.21359-5.96145,21.18448-6.04857,21.15553-6.17439,21.1361,5.64206-21.28129,5.77763-21.23291,5.855-21.22322,5.92276-21.12647a3.75423,3.75423,0,0,1,1.2-2.83557,6.05526,6.05526,0,0,1,2.71944-1.42259,4.2797,4.2797,0,0,1,.48388-.09682l-.329-.20319c-1.67429-1.06459-3.42595-1.99361-5.14856-2.97107,1.76135.9,3.5614,1.76135,5.26468,2.7775l.571.31938a14.23863,14.23863,0,0,1,2.11942-.18387,28.44433,28.44433,0,0,1,2.87431.14513h.05806l19.63607-.72583,19.69413-.61939-19.67476,1.13233-19.6845,1.02584h-.05806a27.7838,27.7838,0,0,0-2.83557-.12582,7.95914,7.95914,0,0,0-.95808.05807l.813.51289,1.2581.80326,1.2194.871a22.50975,22.50975,0,0,1,4.442,4.03559,8.77033,8.77033,0,0,1,1.55809,2.63237A3.51758,3.51758,0,0,1,245.78983,324.878Zm36.56244-5.18724-4.655.271c-3.10651.18388-6.213.28063-9.31953.38707-3.11631.07744-6.22294.15488-9.32945.15488-3.1162.01931-6.2227.00969-9.339-.09681,3.10657-.29032,6.21308-.4742,9.3099-.63871,3.10663-.18388,6.22282-.28063,9.32945-.38713,3.10651-.07738,6.213-.15482,9.32921-.1645h4.66473c1.5581.03869,3.1162.03869,4.66472.10644C285.45878,319.47789,283.91036,319.565,282.35227,319.69078Zm-51.61128-3.0872-.01937.05807a.47116.47116,0,0,1,.00968.11612Zm-.01937.05807a.47116.47116,0,0,1,.00968.11612l.00969-.17419Zm0,0a.47116.47116,0,0,1,.00968.11612l.00969-.17419Zm0,0a.47116.47116,0,0,1,.00968.11612l.00969-.17419Zm0,0a.47116.47116,0,0,1,.00968.11612l.00969-.17419Z" fill="#020202"/><path d="M460.848,422.99071s-14.9714,48.80477-165.9244-16.91663c0,0-9.23955,2.25839,19.32909-144.79452l.75217.23848a55.762,55.762,0,0,0,10.22941.98714c17.916.466,33.14752-11.47058,41.84644-26.43952,6.38344-10.54267,10.66334-22.23861,13.89707-34.10427.77426-2.84525,1.4904-5.71956,2.14842-8.6035a101.50651,101.50651,0,0,0,12.64884-1.67423s54.8146,199.55446,63.8923,227.99734l-5.59374-2.19686a.05829.05829,0,0,0-.03875-.00968.10735.10735,0,0,0-.10633.10644l-.11624,12.3874-10.35511-7.76154a.30582.30582,0,0,0-.09675-.04832.27391.27391,0,0,0-.34839.19362l-4.32591,14.17776-8.76807-10.95512a.4331.4331,0,0,0-.7452.11613l-4.80011,12.26159L416.766,425.352a.45632.45632,0,0,0-.18382-.17413.49536.49536,0,0,0-.67739.19351l-6.9776,12.523-6.08732-13.63586a.4322.4322,0,0,0-.15487-.19351.46975.46975,0,0,0-.66783.116l-8.48737,12.04883-6.09689-13.94563a.44713.44713,0,0,0-.15488-.17413.37635.37635,0,0,0-.52263.116l-7.27755,11.46819L373.139,419.24544a.30841.30841,0,0,0-.10656-.11613.24245.24245,0,0,0-.3387.09687l-6.426,11.39057L359.5708,415.8873a.15252.15252,0,0,0-.06781-.06775.13977.13977,0,0,0-.19351.06775l-5.826,10.97449-6.34864-14.565a.26824.26824,0,0,0-.10644-.12581.27971.27971,0,0,0-.36776.1065l-5.85506,10.13254L335.39589,408.871a.4665.4665,0,0,0-.11625-.15487.371.371,0,0,0-.52263.06775l-6.997,8.768c-1.50967-4.25816-3.09683-8.497-4.64524-12.74554a.40512.40512,0,0,0-.6872-.10644l-6.47433,8.26475-3.14526-13.8875a.29107.29107,0,0,0-.52263-.12582l-7.87756,9.55191c-1.34534-4.15172-2.73887-8.29381-4.1324-12.42622a.13289.13289,0,0,0-.04844-.07738.15008.15008,0,0,0-.20319.029l-5.84538,7.94542c-.01938.01932-.00969.04838.00968.06775a.05967.05967,0,0,0,.06781-.00968l5.82589-7.60668c1.33553,4.21947,2.64212,8.44863,4.00659,12.65841a.1924.1924,0,0,0,.0775.11613.24575.24575,0,0,0,.34826-.029l7.839-9.368,3.06776,14.04237a.40408.40408,0,0,0,.12593.2032.356.356,0,0,0,.50314-.05807l6.55184-8.23574c1.54841,4.2679,3.05819,8.53575,4.626,12.78428a.505.505,0,0,0,.1355.18394.41751.41751,0,0,0,.59033-.06781l6.98728-8.9132,5.52606,13.50043a.37682.37682,0,0,0,.13538.16456.32848.32848,0,0,0,.43545-.12581l5.826-10.28742,6.41645,14.39076a.18853.18853,0,0,0,.09663.09675.19672.19672,0,0,0,.26132-.08706l5.78725-11.10032,6.639,14.84559a.21276.21276,0,0,0,.08707.09675.19358.19358,0,0,0,.271-.0775l6.45508-11.26475,6.26146,14.594a.29053.29053,0,0,0,.116.14519.31141.31141,0,0,0,.43556-.09675l7.3163-11.29394,6.01962,14.07144a.56127.56127,0,0,0,.15488.18382.43731.43731,0,0,0,.61927-.10645l8.50675-11.97133,6.097,13.8295a.45488.45488,0,0,0,.22257.24194.50718.50718,0,0,0,.69677-.19351l7.03571-12.68759,7.69374,12.68759a.50264.50264,0,0,0,.24194.2032.48637.48637,0,0,0,.62908-.28069l4.79054-12.51322,8.83564,10.80993a.32746.32746,0,0,0,.17425.12581.36883.36883,0,0,0,.45494-.25163l4.26779-14.47782,10.452,7.67448a.23176.23176,0,0,0,.13539.04832.225.225,0,0,0,.22257-.22257l-.116-12.67779,5.56468,2.07093A23.36047,23.36047,0,0,0,460.848,422.99071Z" fill="#020202"/><path d="M396.60993,169.36554l8.71143-.18164-.272.27734q-.36767-9.17349-.50927-18.35479l-.125-9.18158-.03491-4.56977c-.02344-.749-.06958-1.50537-.124-2.2619a17.23075,17.23075,0,0,0-.29931-2.18176,16.22478,16.22478,0,0,0-15.56177-13.02454l-4.5791-.10937c-3.04493-.04615-6.12037-.11212-9.1106.04138l-.01611.00085a.76557.76557,0,0,1-.2378-.02624,6.60858,6.60858,0,0,1-4.06152-3.20111,6.46973,6.46973,0,0,1-.73071-2.52777,7.267,7.267,0,0,1,.25073-2.58924l.00391-.01373a.66085.66085,0,0,1,.55688-.47485,6.40029,6.40029,0,0,0,4.45581-2.97675,17.13145,17.13145,0,0,0,2.26367-5.38538,37.69244,37.69244,0,0,0,.97437-5.90814,50.3739,50.3739,0,0,0,.19018-6.01153l.39454.36731a6.86977,6.86977,0,0,1-3.77222-1.07654A7.8595,7.8595,0,0,1,372.441,87.0426a14.26132,14.26132,0,0,1-1.25586-3.62567,20.004,20.004,0,0,1-.43921-3.79535l.56909.1272a24.18127,24.18127,0,0,1-2.89844,4.354,23.14826,23.14826,0,0,1-3.72363,3.66181,17.84513,17.84513,0,0,1-4.54761,2.59717,16.28375,16.28375,0,0,1-5.137,1.08013.31108.31108,0,0,1-.20166-.05987l-.0127-.00928c-.83325-.6112-2.07348-1.055-2.78637-.385a4.573,4.573,0,0,0-.96167,2.99353,6.63108,6.63108,0,0,0,.41284,3.20819,1.11081,1.11081,0,0,0,1.03589.6576,2.759,2.759,0,0,0,1.38208-.48188l.00561-.00366a.44859.44859,0,0,1,.60865.11469,17.57854,17.57854,0,0,1,2.42944,4.81042,15.87057,15.87057,0,0,1,.79785,5.374,18.85,18.85,0,0,1-1.2749,5.26966,38.426,38.426,0,0,1-2.24072,4.87079.64669.64669,0,0,1-.55665.33691l-.03.00037a173.765,173.765,0,0,0-20.96509,1.45642c-1.72852.2398-3.44849.5296-5.1377.90564-.855.16015-1.67138.41931-2.5083.62481a15.90308,15.90308,0,0,0-2.33349.88935,20.79307,20.79307,0,0,0-7.52979,6.62341,45.5972,45.5972,0,0,0-4.97388,9.04913,83.81668,83.81668,0,0,0-3.4707,9.84772,165.48029,165.48029,0,0,0-4.366,20.53876l-.6665-1.01306L326.431,173.7334l-.83936.37359a17.4417,17.4417,0,0,0,1.51294-5.2619,50.758,50.758,0,0,1,1.14624-5.67431,60.24883,60.24883,0,0,0,2.20557-11.12812,66.13484,66.13484,0,0,0,.17016-11.36718,68.497,68.497,0,0,0-1.7622-11.272.09037.09037,0,0,1,.1748-.04584,65.43885,65.43885,0,0,1,2.36694,22.77094,61.39107,61.39107,0,0,1-1.95581,11.3631,55.33776,55.33776,0,0,0-.98559,5.5722,18.75067,18.75067,0,0,1-1.56714,5.71741.72683.72683,0,0,1-.82788.37689l-.01172-.00317-24.85352-6.34a.90069.90069,0,0,1-.66821-1.00409l.00147-.00921a167.33182,167.33182,0,0,1,4.34961-20.78925c1.97314-6.79925,4.48071-13.60364,8.78149-19.46625a22.55344,22.55344,0,0,1,8.25659-7.10644,17.641,17.641,0,0,1,2.606-.968c.87427-.20868,1.74365-.47265,2.62231-.63006,1.75244-.37409,3.51172-.65424,5.2732-.88349a169.37638,169.37638,0,0,1,21.19189-1.17236l-.58618.3371a37.49473,37.49473,0,0,0,2.26123-4.63861,17.76513,17.76513,0,0,0,1.314-4.89692,14.87585,14.87585,0,0,0-.63452-5.00445,16.62268,16.62268,0,0,0-2.20849-4.59662l.614.1109a3.57374,3.57374,0,0,1-1.89087.6026,1.9119,1.9119,0,0,1-1.05273-.317,2.1221,2.1221,0,0,1-.69751-.80725,7.25061,7.25061,0,0,1-.43872-3.64575,8.745,8.745,0,0,1,.29956-1.79394,3.44766,3.44766,0,0,1,.96484-1.66242,2.16634,2.16634,0,0,1,1.93359-.42413,4.54731,4.54731,0,0,1,1.69922.81024l-.21386-.06909a15.64966,15.64966,0,0,0,4.94384-1.00244,17.2502,17.2502,0,0,0,4.41553-2.48047,21.86817,21.86817,0,0,0,3.65186-3.55152,23.6918,23.6918,0,0,0,2.781-4.26184.30035.30035,0,0,1,.56909.1272,19.43651,19.43651,0,0,0,.46119,3.65961,13.62458,13.62458,0,0,0,1.22949,3.44781,7.17429,7.17429,0,0,0,2.33154,2.675,5.90043,5.90043,0,0,0,3.37256.88873.38932.38932,0,0,1,.39477.3675,51.121,51.121,0,0,1-.04174,6.12915,38.61992,38.61992,0,0,1-.8523,6.09094,18.19416,18.19416,0,0,1-2.29419,5.81158,8.86492,8.86492,0,0,1-2.20825,2.38343,7.07751,7.07751,0,0,1-3.07031,1.26776l.5603-.48834a5.91228,5.91228,0,0,0-.147,2.07812,5.01028,5.01028,0,0,0,.61255,1.95087,5.129,5.129,0,0,0,3.16235,2.4425l-.25342-.02539c3.11988-.1831,6.168-.13635,9.239-.11426l4.59619.075a17.78284,17.78284,0,0,1,16.90552,14.37421,48.71152,48.71152,0,0,1,.36376,9.29157L405.6197,151.1l-.02613,18.3504-.00024.01153a.26635.26635,0,0,1-.26685.26612l-.00512-.00006-8.71143-.18171a.09038.09038,0,0,1,0-.18072Z" fill="#020202"/><path d="M337.12019,261.03192a2.53991,2.53991,0,0,1,.28344.54016c.02661.08881.03321.16693-.03857.07251-.07422-.09576-.2041-.35736-.23316-.40515-.03466-.05658-.00854.03809.02344.20538a1.02465,1.02465,0,0,1,.02735.364c-.01075.07061-.02857.14843-.06153.12494-.0664-.07532-.15137-.27759-.16723-.85755l-.00074-.0553.00074-.12548a1.91033,1.91033,0,0,0-.10914-.87207c-.02343-.02588-.03149.04949-.03247.11773a1.31921,1.31921,0,0,0,.0564.35669c.0415.16486.07739.25708.05249.19806a3.72479,3.72479,0,0,0-.2041-.41235c-.06226-.09693-.04614-.02118-.00952.06524a3.38966,3.38966,0,0,0,.31225.53284l.06226.09229Z" fill="#020202"/><path d="M345.835,257.5509a2.2936,2.2936,0,0,1,.18628.59424c.00464.10089-.00073.18665-.09766.10736-.0979-.08105-.27783-.31482-.343-.34216-.07031-.03619-.06274.07062-.02319.24121a.98565.98565,0,0,1,.04566.38153c-.0105.08026-.0188.16687-.073.163-.12134-.03351-.29785-.17524-.63013-.65815a.64094.64094,0,0,1-.07886-.16259,1.906,1.906,0,0,1-.16552-.90015c.02319-.04413.09228.00214.15942.04211a1.15345,1.15345,0,0,1,.27783.26056c.11695.13025.20215.19672.20923.12024a3.93157,3.93157,0,0,0-.11084-.46319c-.01953-.11957.05249-.07416.13452-.01355a2.95011,2.95011,0,0,1,.41846.4732A.76431.76431,0,0,1,345.835,257.5509Z" fill="#020202"/><path d="M346.95734,256.93164a2.89459,2.89459,0,0,1,.21.58588c.01343.09771.01734.17987-.07177.098-.09033-.08374-.26514-.31873-.32349-.34833-.06323-.03839-.04687.06519.00366.23126a1.15588,1.15588,0,0,1,.07788.36866c0,.07641.00245.15875-.0437.1521-.106-.03864-.27051-.18366-.60962-.66041a.77062.77062,0,0,1-.08569-.15911,2.05469,2.05469,0,0,1-.23218-.8733c.0166-.04211.08228.0047.14478.0456a1.24069,1.24069,0,0,1,.26684.26221c.11328.13061.19287.19873.19239.12481.00439-.06506-.10743-.33551-.13477-.45477-.02612-.11737.04053-.07074.11694-.00848a3.22731,3.22731,0,0,1,.39844.47943A.91232.91232,0,0,1,346.95734,256.93164Z" fill="#020202"/><path d="M351.51618,253.93433a1.97383,1.97383,0,0,1,.24024.58331c.01025.10583.0083.198-.10669.1391a4.257,4.257,0,0,0-.41138-.27252c-.08276-.01966-.06885.09161-.0144.26153a.90125.90125,0,0,1,.07324.39063c-.00708.08728-.01148.18048-.074.19055-.14111-.0036-.35229-.10651-.7666-.52454a.50748.50748,0,0,1-.10132-.14978c-.23852-.54541-.27392-.77575-.23925-.9068.02539-.05359.10913-.02411.18969-.00055a.98934.98934,0,0,1,.33716.19953c.14233.1062.24414.15375.24927.07037a3.46737,3.46737,0,0,0-.14771-.46368c-.0271-.12256.05884-.09418.157-.05207a2.3913,2.3913,0,0,1,.5039.39222A.60483.60483,0,0,1,351.51618,253.93433Z" fill="#020202"/><path d="M372.534,225.97076a1.84532,1.84532,0,0,1,.47412.43244c.05542.09747.09375.18793-.03833.19812a3.58869,3.58869,0,0,0-.50146-.02081c-.08594.03076-.02466.13116.10059.26312a.88029.88029,0,0,1,.24023.3327c.032.08807.06958.17944.01587.22626-.13281.08075-.375.10827-.95044-.03552a.428.428,0,0,1-.16162-.08082c-.46582-.376-.59839-.58074-.62158-.73223.00122-.06934.0935-.09412.18042-.1222a.89568.89568,0,0,1,.40478-.01568c.17993.01581.29614.00012.26489-.08527-.02172-.08111-.25756-.26251-.33667-.3692-.07739-.106.01587-.13165.12623-.15033a1.99094,1.99094,0,0,1,.63867.08411A.50741.50741,0,0,1,372.534,225.97076Z" fill="#020202"/><path d="M391.004,134.53674a9.46876,9.46876,0,0,0,.52832,1.68763l.63843,1.65356c.43726,1.09827.89185,2.19025,1.35449,3.27875.48243,1.06836.88892,2.22467,1.40406,3.20849.26635.5033.56738.9953.88135,1.4892a8.21437,8.21437,0,0,1,.457.80725,5.58435,5.58435,0,0,1,.408.86151,12.839,12.839,0,0,1,.81738,3.65674,21.26711,21.26711,0,0,1-.08521,3.68262,30.12487,30.12487,0,0,1-1.67187,7.104l.05249-.44452c.53979,3.60968,1.011,7.229,1.49829,10.846l.67529,5.43335c.23267,1.81006.41773,3.62677.62891,5.43982l.00464.04016a.61181.61181,0,0,1-.20752.53009,9.7169,9.7169,0,0,1-3.32178,1.75958,22.60622,22.60622,0,0,1-3.50928.85975,49.6632,49.6632,0,0,1-7.09521.64636,70.52518,70.52518,0,0,0,6.925-1.41577,28.32981,28.32981,0,0,0,3.29785-1.09913,9.34335,9.34335,0,0,0,2.813-1.7099l-.20264.56989c-.2937-1.80151-.61377-3.59937-.88574-5.40393l-.83936-5.41046c-.52246-3.61212-1.061-7.222-1.53076-10.84149a.91674.91674,0,0,1,.0481-.43335l.00464-.0116a33.45317,33.45317,0,0,0,1.71215-6.65564,15.06323,15.06323,0,0,0-.35009-6.68414,4.50163,4.50163,0,0,0-.31177-.75708c-.11768-.24817-.21436-.49286-.36987-.76233-.28394-.527-.56348-1.06745-.81128-1.63025-.49439-1.15857-.804-2.26624-1.17212-3.405-.35279-1.13318-.69678-2.26935-1.02368-3.41107A18.52153,18.52153,0,0,1,391.004,134.53674Z" fill="#020202"/><path d="M302.78327,168.31805c-1.69385,7.31183-3.48584,14.59754-5.31616,21.87311-1.78345,7.2879-3.735,14.53113-5.59888,21.79773-.92627,3.63483-1.90637,7.25525-2.89734,10.8728-.98425,3.61933-1.95593,7.24207-2.99719,10.84626-2.03088,7.222-4.13769,14.42395-6.119,21.65924a.33934.33934,0,0,1-.38684.24438l-.00793-.00146a9.05651,9.05651,0,0,0-2.79444-.05438,6.879,6.879,0,0,0-2.62768.89093,5.76979,5.76979,0,0,0-1.93921,1.95184,8.26638,8.26638,0,0,0-.97766,2.63287.3848.3848,0,0,1-.01319.04633,10.67293,10.67293,0,0,0-.55114,2.18139,3.93788,3.93788,0,0,0-.01087,1.07416.87949.87949,0,0,0,.43115.71839.28044.28044,0,0,1,.17066.26715l-.00073.019a11.48589,11.48589,0,0,0,.40674,3.73608,3.56958,3.56958,0,0,0,.86962,1.53052,1.83326,1.83326,0,0,0,1.53553.45679.33284.33284,0,0,1,.364.25769l.00305.014a3.8029,3.8029,0,0,0,1.6947,2.59936,3.22282,3.22282,0,0,0,2.98243-.41247.4108.4108,0,0,1,.61132.29284l.00464.03131a5.01431,5.01431,0,0,0,1.2417,2.83924,2.23247,2.23247,0,0,0,2.686.10089,5.874,5.874,0,0,0,2.3269-2.10718,6.82041,6.82041,0,0,0,.70044-1.43237l.56653-1.63428,2.28491-6.54889a5.94654,5.94654,0,0,1,2.26807-3.11731,5.35339,5.35339,0,0,1,1.83838-.80926,4.20849,4.20849,0,0,1,1.05883-.11164,2.126,2.126,0,0,1,1.26563.437.76265.76265,0,0,1,.28589.64563l-.00147.02039-.38769,5.53394-1.204-.80024a2.60323,2.60323,0,0,0,.6073-.58294,3.54474,3.54474,0,0,0,.47217-.83655,4.82174,4.82174,0,0,0,.28735-2.02271,9.13882,9.13882,0,0,0-.37061-2.16027c-.12231-.35743-.22412-.71857-.36035-1.07331l-.438-1.05853-.00854-.02069a.88842.88842,0,0,1-.02759-.60321c2.20264-7.08594,4.37988-14.17981,6.66236-21.24042,2.27636-7.06244,4.47338-14.15008,6.81518-21.19183,2.32886-7.0459,4.60156-14.1095,6.98755-21.13727,2.34228-7.04157,4.75879-14.05975,7.18433-21.07495a.09044.09044,0,0,1,.17236.05462c-2.05786,7.13178-4.125,14.26062-6.26587,21.366-2.09741,7.1192-4.30811,14.20258-6.46265,21.30365-2.1416,7.10523-4.428,14.16455-6.63476,21.249-2.20117,7.08643-4.50708,14.13953-6.78809,21.20057l-.03589-.62354.47022,1.1695c.14721.395.26172.808.39258,1.2113a10.82752,10.82752,0,0,1,.4104,2.57434,6.48433,6.48433,0,0,1-.42994,2.69952,5.21232,5.21232,0,0,1-.72021,1.24317,3.94377,3.94377,0,0,1-1.16138,1.02569.80423.80423,0,0,1-1.20715-.764l.00317-.03632.47974-5.52673.2843.66571a1.4062,1.4062,0,0,0-1.01245-.04218,3.84207,3.84207,0,0,0-1.32727.55335,4.47445,4.47445,0,0,0-1.7666,2.36578l-2.45337,6.48773-.62024,1.624a7.97256,7.97256,0,0,1-.87158,1.64947,6.95615,6.95615,0,0,1-2.829,2.403,4.27094,4.27094,0,0,1-1.89429.44384,2.71858,2.71858,0,0,1-1.87256-.80084,5.82,5.82,0,0,1-1.43066-3.42743l.61572.324a5.64617,5.64617,0,0,1-1.7793.63,3.0646,3.0646,0,0,1-1.94751-.29345,3.53559,3.53559,0,0,1-1.35131-1.38337,5.97025,5.97025,0,0,1-.65491-1.75445l.36682.27142a2.49986,2.49986,0,0,1-2.0564-.64557,4.17728,4.17728,0,0,1-1.02587-1.81488,12.04818,12.04818,0,0,1-.39527-3.96136l.1698.28583a1.45027,1.45027,0,0,1-.75366-1.16224,4.47183,4.47183,0,0,1,.02014-1.237,11.44148,11.44148,0,0,1,.60278-2.30181l-.01306.04589a8.81941,8.81941,0,0,1,1.01758-2.82714,6.36554,6.36554,0,0,1,2.11523-2.1745,7.50032,7.50032,0,0,1,2.855-1.00666,9.66007,9.66007,0,0,1,3.02355.02985l-.3944.2428c1.87976-7.26233,3.634-14.55811,5.46423-21.83362.88928-3.64465,1.84827-7.27075,2.79455-10.90021.93958-3.63122,1.89-7.25964,2.89441-10.87359,1.9972-7.23108,3.90674-14.48548,5.98426-21.69513,2.031-7.222,4.10034-14.434,6.26733-21.61975a.09037.09037,0,0,1,.17456.0465Z" fill="#020202"/><path d="M272.61422,257.1851l-4.38628-.92938a5.04071,5.04071,0,0,0-5.79618,3.24364C258.022,271.912,246.69369,302.27288,246.873,305.32171c.21688,3.687,8.83716,3.8107,8.83716,3.8107l13.40865-43.8142h1.73506" fill="#020202"/><path d="M294.92792,267.59548l-8.45844,44.56947c-2.60259,5.639-7.374,2.38571-7.374,2.38571l9.21545-44.34353s2.5142-9.96532,7.05078-8.14216Z" fill="#020202"/><path d="M230.72162,316.66165l.01937-.05807-.00969.17419A.47116.47116,0,0,0,230.72162,316.66165Z" fill="#fff"/><ellipse cx="199.60783" cy="401.84609" rx="4.87987" ry="2.27727" transform="translate(-227.81466 538.35095) rotate(-81.29696)" fill="#020202"/><ellipse cx="220.4286" cy="417.299" rx="4.87987" ry="2.27727" transform="matrix(0.15131, -0.98849, 0.98849, 0.15131, -225.41934, 572.04667)" fill="#020202"/><ellipse cx="269.47127" cy="413.37388" rx="4.87987" ry="2.27727" transform="translate(-179.91755 617.19347) rotate(-81.29696)" fill="#020202"/><path d="M390.74274,124.124c-.05444,7.99054-.33007,15.96717-.719,23.95136-.39795,7.99017-1.04834,15.96313-1.99585,23.91528a217.5472,217.5472,0,0,1-4.10449,23.69684c-.93921,3.90478-1.971,7.78479-3.15747,11.62652-.59522,1.91962-1.23731,3.82844-1.9021,5.72858-.322.95538-.67066,1.89557-1.03443,2.82623l-.54467,1.39216-.27222.69616-.13623.348-.06812.17408-.03588.09155a1.999,1.999,0,0,1-.16065.3252l.11475-.22291c-.84986,2.08759-1.75757,4.168-2.698,6.19324-.95068,2.029-1.97461,4.05463-3.03784,6.024l.05175-.12262a1.23786,1.23786,0,0,1-.18945.35156l.07569-.12018c-1.002,1.84308-2.07447,3.655-3.18238,5.42084l-.0415.06641a.32178.32178,0,0,1-.07031.07837.63214.63214,0,0,0,.042-.04847.70016.70016,0,0,0,.155-.44567l-.113.39148-1.2356,1.87963.04248-.07409-.04077.05963-.04126.07159a80.25522,80.25522,0,0,1-5.9978,7.76966,57.8359,57.8359,0,0,1-7.083,6.79779,48.85375,48.85375,0,0,1-8.22534,5.35675,41.66972,41.66972,0,0,1-9.21362,3.44745l.03735-.01-.439.10559.0415-.00818a39.6787,39.6787,0,0,1-5.1355.89673,49.60035,49.60035,0,0,1-5.19116.356,56.67741,56.67741,0,0,1-10.37109-.8443l.13916.01287-.00952.00013a.7508.7508,0,0,1-.762-.73938l.0022-.07013.00171-.02185c.67285-8.40021,1.33276-16.79718,2.18579-25.17908l1.28833-12.57214,1.46069-12.55616c1.02588-8.36615,2.11817-16.7279,3.42847-25.07013.67969-4.16784,1.40479-8.33142,2.23779-12.48663a110.008,110.008,0,0,1,3.1438-12.41675,1.48743,1.48743,0,0,1,.44678-.66327q6.57751-5.57519,13.25806-11.00335,6.68956-5.42625,13.51269-10.6897,6.82544-5.25979,13.75708-10.38367c2.31763-1.69867,4.65283-3.375,7.02979-4.99469,1.19287-.80371,2.3833-1.61133,3.60278-2.37982a19.42557,19.42557,0,0,1,3.86865-2.01861l-.08252.04419a2.52862,2.52862,0,0,1,.94654-.32038,8.10954,8.10954,0,0,1,.91186-.10181,17.95474,17.95474,0,0,1,1.80737.00721,35.11849,35.11849,0,0,1,3.56372.41339.17153.17153,0,0,1,.14478.16571Zm-.29052-.00085-.04566-4.87329.14453.16546a34.78635,34.78635,0,0,0-3.52856-.36914,15.3101,15.3101,0,0,0-1.76.01825,4.38559,4.38559,0,0,0-1.59131.36859l-.05029.02906-.03272.01532a19.20565,19.20565,0,0,0-3.68213,2.06457q-1.779,1.19129-3.49218,2.48853c-2.28662,1.72168-4.53247,3.5003-6.76075,5.30133-4.45825,3.59991-8.8352,7.304-13.189,11.03381L330.3819,162.78406l.44678-.663a119.17013,119.17013,0,0,0-2.94482,12.07813c-.82837,4.09747-1.55469,8.22742-2.23633,12.36676-1.376,8.27893-2.59961,16.59564-3.72412,24.92773q-1.66187,12.50181-3.19873,25.02869c-.9895,8.35333-2.061,16.70392-2.97144,25.06555l-.75805-.83118.00952.00013.023.00036a.68943.68943,0,0,1,.11694.01258,55.30674,55.30674,0,0,0,10.092,1.12982,41.4187,41.4187,0,0,0,5.08106-.21417,38.61258,38.61258,0,0,0,5.00708-.81684l.042-.0083.29614-.06854.03784-.01007a40.7338,40.7338,0,0,0,9.02466-3.26489,42.691,42.691,0,0,0,8.0564-5.26844,50.58673,50.58673,0,0,0,6.83593-6.793,68.39091,68.39091,0,0,0,5.64209-7.83221l-.041.07129.03638-.05615.04248-.07447,1.1455-1.89435-.113.39112a.75231.75231,0,0,1,.16919-.47742l.06591-.07452-.11132.14453c1.03662-1.7992,2.0166-3.608,2.93383-5.45661l.07569-.12048a.43914.43914,0,0,0-.07324.139l.052-.123c.98242-1.9967,1.90307-3.98956,2.77246-6.03546.86523-2.05646,1.668-4.098,2.42724-6.17346l.11475-.22327a.47812.47812,0,0,0-.08472.15424l.0293-.0838.062-.17688.12378-.3537.24756-.70746.49487-1.415.9458-2.82348c.616-1.88,1.20972-3.76734,1.759-5.67127,1.10644-3.80444,2.14306-7.63812,3.04931-11.49982,1.86743-7.71777,3.35962-15.53057,4.70118-23.36639,1.32934-7.85022,2.35424-15.765,3.115-23.69757.37548-3.96857.6892-7.94989.896-11.93463.12451-1.99121.165-3.98517.22754-5.97931C390.38972,128.1109,390.43635,126.11682,390.45222,124.12311Z" fill="#020202"/><path d="M390.70051,186.041a19.44634,19.44634,0,0,1,1.44262,3.34363,32.49552,32.49552,0,0,1,.94166,3.45136,31.94029,31.94029,0,0,1,.56176,3.5329,19.16664,19.16664,0,0,1,.05591,3.64172,19.18735,19.18735,0,0,1-1.44531-3.34314,31.94009,31.94009,0,0,1-.939-3.45184,32.49343,32.49343,0,0,1-.55957-3.53345A19.4463,19.4463,0,0,1,390.70051,186.041Z" fill="#020202"/><path d="M399.98005,212.0285c2.9873,3.90216,5.9541,7.81861,8.85766,11.78l4.37256,5.93c1.4646,1.97156,2.87842,3.97919,4.32007,5.967a.66662.66662,0,0,1,.08545.15943l.00488.01416c1.49829,4.10821,3.05884,8.19519,4.50635,12.3219l1.08545,3.09485.53272,1.55346.47045,1.58454a7.15057,7.15057,0,0,0,1.23877,2.68054,2.539,2.539,0,0,0,1.08155.73321,3.74765,3.74765,0,0,0,1.35058.28583.6939.6939,0,0,0,.70777-.53741,3.75214,3.75214,0,0,0,.0813-1.41065,18.2896,18.2896,0,0,0-.6587-3.11718c-.29614-1.03968-.6311-2.076-.98315-3.10767-.17163-.51892-.37476-1.01379-.52832-1.5802a2.22445,2.22445,0,0,1-.08691-.96607.64323.64323,0,0,1,.20239-.34942.58327.58327,0,0,1,.40161-.13629,1.30281,1.30281,0,0,1,.52368.149,13.93958,13.93958,0,0,1,2.604,2.13318c.78785.76813,1.54541,1.561,2.29151,2.36341q2.24157,2.40344,4.40015,4.87548a25.725,25.725,0,0,0,4.61792,4.52649,19.10182,19.10182,0,0,0,2.74438,1.65808,9.2592,9.2592,0,0,0,1.45728.56934,3.11213,3.11213,0,0,0,1.374.14758,1.02783,1.02783,0,0,0,.72754-.77514.94726.94726,0,0,0-.03809-.53186,1.06154,1.06154,0,0,0-.12622-.24091l-.2456-.32819-1.96412-2.62536-3.91992-5.25531c-5.20654-7.0199-10.34668-14.08325-15.4978-21.13788a.95839.95839,0,0,1-.05493-.08563c-1.36646-2.45764-2.74365-4.91046-4.07056-7.39038-1.2666-2.51172-2.6084-4.986-3.803-7.53388-2.43091-5.0747-4.72632-10.21741-6.73828-15.47485-2.02978-5.24787-3.89184-10.56488-5.395-15.98871-.73926-2.71436-1.46972-5.43158-2.02246-8.1908a71.3958,71.3958,0,0,1-1.32739-8.32727.09008.09008,0,0,1,.082-.09777.09483.09483,0,0,1,.09766.07989,83.36109,83.36109,0,0,0,1.81713,8.18646c.72144,2.70117,1.52,5.38037,2.37476,8.04059,1.74487,5.31006,3.7229,10.53858,5.8584,15.69928l1.644,3.85321,1.73657,3.81262c1.1167,2.55976,2.37745,5.05414,3.5857,7.5716,1.22949,2.50726,2.53589,4.97741,3.79443,7.471l3.98291,7.37524-.05444-.08533c5.05884,7.13684,10.12866,14.265,15.13232,21.43665l3.73755,5.3883,1.8645,2.69635.23316.337a2.13567,2.13567,0,0,1,.23364.49194,1.98028,1.98028,0,0,1-1.42212,2.52735,3.79714,3.79714,0,0,1-1.84863-.21112,10.09546,10.09546,0,0,1-1.572-.67218,19.85078,19.85078,0,0,1-2.804-1.81983,28.15811,28.15811,0,0,1-4.65405-4.69763c-1.41895-1.65778-2.84619-3.30987-4.33814-4.899-.74878-.79168-1.50805-1.57293-2.29126-2.32391a12.40331,12.40331,0,0,0-2.47412-1.9812.75816.75816,0,0,0-.25708-.07764c-.03979.02478.07788-.0661.03247-.01117a1.817,1.817,0,0,0,.09912.64862c.14209.48633.36646,1.00037.55372,1.51306.39209,1.023.78711,2.04718,1.13794,3.095a19.13481,19.13481,0,0,1,.84716,3.25451,4.72387,4.72387,0,0,1-.04223,1.84357,1.90545,1.90545,0,0,1-.59546.96582,1.9784,1.9784,0,0,1-1.06372.42731,4.80985,4.80985,0,0,1-1.8562-.2732,3.8633,3.8633,0,0,1-1.64844-1.01251,8.37412,8.37412,0,0,1-1.677-3.13269c-.62525-2.06818-1.49659-4.09192-2.20093-6.15533-1.501-4.10236-2.88892-8.24445-4.33911-12.36524l.09009.17316c-1.39771-2.019-2.82349-4.01813-4.19825-6.05341l-4.146-6.09039c-2.77539-4.05225-5.48731-8.14941-8.1792-12.26086a.09043.09043,0,0,1,.14746-.1045Z" fill="#020202"/><path d="M273.99873,271.39093a9.19725,9.19725,0,0,1-.37391-2.67029,13.01557,13.01557,0,0,1,.255-2.62439,10.55106,10.55106,0,0,1,.83154-2.54541,6.1768,6.1768,0,0,1,.73767-1.18524,2.24892,2.24892,0,0,1,1.15222-.84283,3.64051,3.64051,0,0,0-.35192,1.22644c-.08558.39489-.11829.82269-.18274,1.22961-.1239.81952-.24451,1.651-.41553,2.47443a25.49713,25.49713,0,0,1-.62524,2.47467A12.95625,12.95625,0,0,1,273.99873,271.39093Z" fill="#020202"/><path d="M279.20393,273.88507a12.37426,12.37426,0,0,1-.19983-3.06006,18.45181,18.45181,0,0,1,.39245-2.98169,15.39892,15.39892,0,0,1,.91272-2.89361,9.81176,9.81176,0,0,1,.73706-1.37653,5.22877,5.22877,0,0,1,.50257-.63422,1.299,1.299,0,0,1,.6914-.44024,3.51515,3.51515,0,0,0-.36828,1.39953l-.19764,1.44629c-.14025.963-.302,1.92566-.512,2.88141a29.347,29.347,0,0,1-.76513,2.85364A15.6866,15.6866,0,0,1,279.20393,273.88507Z" fill="#020202"/><path d="M270.84809,265.43318s1.95776-6.44524,2.77107-7.13656" fill="none" stroke="#020202" stroke-linecap="round" stroke-linejoin="round" stroke-width="0.90368"/><path d="M294.9781,406.15051c.113,2.16516.32617,4.11072.42163,5.99744l-.08472-.26965,6.544,8.28222,6.62939,8.195a70.775,70.775,0,0,0,7.09912,7.77087,24.69763,24.69763,0,0,0,4.19751,3.11682,9.58344,9.58344,0,0,0,2.36035.97364,3.25057,3.25057,0,0,0,2.29834-.18311l-.0852.057a4.565,4.565,0,0,0,.95019-1.81885,7.4735,7.4735,0,0,0,.25708-2.13672,14.07718,14.07718,0,0,0-.8352-4.30835,28.63308,28.63308,0,0,0-1.87989-4.07507c-.39086-.64722-.74072-1.31409-1.16259-1.94421l-1.26685-1.88794.0791.099a15.92511,15.92511,0,0,1-1.42065-1.83239,14.55783,14.55783,0,0,1-1.13281-2.00354,10.59384,10.59384,0,0,1-1.06714-4.60254l.59155.90478c-1.83691-.80017-3.675-1.56677-5.50073-2.41406l-5.51856-2.53467Zm-.10035-.15039,11.43775,4.13721,5.9375,2.22668c1.99316.73975,3.97363,1.56031,5.95532,2.34742a.93539.93539,0,0,1,.5896.83679l.002.06824a8.87035,8.87035,0,0,0,.23511,1.89562,10.86577,10.86577,0,0,0,.65942,1.86585,17.36893,17.36893,0,0,0,.96631,1.78015,14.33518,14.33518,0,0,0,1.18042,1.6261l.04615.05395.0332.04529,1.26025,2.00122c.41822.66761.77,1.38245,1.157,2.0708.38379.69092.6814,1.43665,1.01832,2.1543.29126.74255.56567,1.49561.79834,2.262a13.80328,13.80328,0,0,1,.62011,4.80372,6.86717,6.86717,0,0,1-1.85107,4.57373.28218.28218,0,0,1-.07788.05383l-.00757.00342a4.01521,4.01521,0,0,1-2.86817.07666,10.57679,10.57679,0,0,1-2.47631-1.13587,32.76325,32.76325,0,0,1-4.28931-3.18127,102.21585,102.21585,0,0,1-7.72534-7.3208,89.59143,89.59143,0,0,1-6.846-8.12757c-2.14014-2.82226-4.187-5.70617-6.0918-8.69958l-.02185-.03418a.40365.40365,0,0,1-.063-.23584C294.55146,409.98621,294.76472,407.8833,294.87775,406.00012Z" fill="#020202"/><path d="M293.74355,409.9792h0a7.13821,7.13821,0,0,0-4.02081,6.42151v14.833h7.15714l.86753-7.83233s21.47142,36.89466,40.12336,38.8466S323.533,427.225,323.533,427.225s5.01177,7.63322,1.10788,13.195c0,0-4.13573,3.01755-14.08216-8.78987,0,0,8.00943-8.687,10.612-8.22873,0,0-.27278-2.7387-1.97989-2.87526,0,0-10.71944,4.76688-11.20159,8.27944C307.98929,428.80559,296.68,414.75063,293.74355,409.9792Z" fill="#020202"/><path d="M432.38581,439.50159c.61548,1.52307,1.16675,3.06616,1.7478,4.60009q.84925,2.3075,1.6543,4.629,1.61865,4.64045,3.11157,9.31983l-.37158-.45667c3.09473,1.64148,6.219,3.27075,9.30811,4.95545,3.11279,1.6405,6.23364,3.286,9.46655,4.68347a61.44889,61.44889,0,0,0,9.96313,3.41369,26.72669,26.72669,0,0,0,5.1333.7782,9.41753,9.41753,0,0,0,2.467-.19836,2.99412,2.99412,0,0,0,1.81152-1.04187l-.08618.14856a4.436,4.436,0,0,0,.05883-1.89966,7.66858,7.66858,0,0,0-.646-1.9773,13.04191,13.04191,0,0,0-2.54346-3.49584c-.52344-.519-1.08008-1.01465-1.646-1.49549-.60206-.44678-1.16309-.93725-1.79493-1.34912-.63525-.40564-1.2312-.863-1.88134-1.25012l-1.94947-1.163-.033-.01965a.90144.90144,0,0,1-.10449-.07385c-1.89184-1.56775-3.65161-3.22168-5.3938-4.92078q-2.57556-2.57812-4.936-5.3678a43.77531,43.77531,0,0,1-4.27686-5.92614,24.1126,24.1126,0,0,1-1.668-3.26355l-.61035-1.73157-.34765-1.8a.09028.09028,0,0,1,.17627-.03882l.002.00879a19.31025,19.31025,0,0,0,3.23926,6.30982,54.71968,54.71968,0,0,0,4.572,5.481q2.44042,2.61475,5.0935,5.03113c1.741,1.6283,3.55323,3.21106,5.36988,4.71875l-.13721-.09326,2.02978,1.2196c.67481.40931,1.31666.8844,1.9668,1.33667.65137.45154,1.24732.995,1.87183,1.48841.59668.53405,1.18359,1.08569,1.74023,1.66931a14.71767,14.71767,0,0,1,2.76856,4.04919,8.42288,8.42288,0,0,1,.68725,2.445,5.64422,5.64422,0,0,1-.27246,2.68359.48748.48748,0,0,1-.07641.13684l-.00977.012a4.268,4.268,0,0,1-2.71533,1.4624,10.6143,10.6143,0,0,1-2.8042.03271,29.59862,29.59862,0,0,1-5.2583-1.14856c-3.40357-1.03967-6.69922-2.32092-9.98584-3.62609-3.28443-1.30872-6.5791-2.60926-9.81152-4.05481a100.59232,100.59232,0,0,1-9.50611-4.744l-.01-.00574a.78011.78011,0,0,1-.36181-.45129q-1.42639-4.70015-2.73243-9.43787-.65954-2.36664-1.26733-4.74963c-.39307-1.59241-.81567-3.17566-1.17432-4.77881a.09069.09069,0,0,1,.17261-.05371Z" fill="#020202"/><path d="M436.12632,456.85866h0a7.1382,7.1382,0,0,0-.78907,7.53526l-.72656,13.46966H446.0954l-.47313-10.70864s35.5028,23.70208,53.11436,17.25709-28.2725-25.15645-28.2725-25.15645,7.85679,4.65346,6.79485,11.36509c0,0-2.38848,4.52825-16.51242-1.70559,0,0,3.376-11.32336,5.91512-12.05564,0,0-1.44878-2.34007-3.04218-1.71239,0,0-7.53321,8.99334-6.42238,12.36033C457.19712,467.50739,440.86109,459.8538,436.12632,456.85866Z" fill="#020202"/><path d="M378.744,90.68249c8.171.78293-.7712-29.99221-25.48375-14.31428-11.0734,7.02508-2.50837,19.93705-2.50837,19.93705s-1.4303-8.44149,4.24343-5.189c0,0,9.23733.23615,16.04934-11.4948C371.04465,79.62145,370.21635,89.86538,378.744,90.68249Z" fill="#020202"/><path d="M349.84145,79.62145s-9.4373-5.47629,0-12.95876,10.86967,6.64769,10.86967,6.64769" fill="#020202"/><path d="M373.10505,98.21918a1.8542,1.8542,0,0,1,.93848.47839,1.77512,1.77512,0,0,1,.57153.98792,1.22724,1.22724,0,0,1-.45361,1.18811,1.38291,1.38291,0,0,1-1.0564.27349,5.97111,5.97111,0,0,0,.53491-.74835.7943.7943,0,0,0,.08472-.56164A12.91132,12.91132,0,0,0,373.10505,98.21918Z" fill="#020202"/><path d="M365.62258,96.64677a1.35633,1.35633,0,0,0,0-2.711,1.35633,1.35633,0,0,0,0,2.711Z" fill="#020202"/><path d="M352.772,97.03108a.72626.72626,0,0,0,0-1.45165.72626.72626,0,0,0,0,1.45165Z" fill="#020202"/><path d="M370.56839,91.54348a1.35633,1.35633,0,0,0,0-2.711,1.35633,1.35633,0,0,0,0,2.711Z" fill="#b21919"/><path d="M375.8703,96.48411a1.35633,1.35633,0,0,0,0-2.711,1.35633,1.35633,0,0,0,0,2.711Z" fill="#020202"/><path d="M361.31208,92.93268a3.55683,3.55683,0,0,1,1.5625-.99323,5.47011,5.47011,0,0,1,5.26929.99323c-.62134-.05969-1.1897-.17047-1.75952-.23853-.5669-.07507-1.12452-.11908-1.68018-.13891A12.59561,12.59561,0,0,0,361.31208,92.93268Z" fill="#020202"/><path d="M373.10505,92.517a2.89734,2.89734,0,0,1,1.30322-.80622,4.718,4.718,0,0,1,1.521-.22509,4.55233,4.55233,0,0,1,2.81958,1.03131c-.52149.01361-.99463-.03375-1.46387-.061-.46777-.02942-.9231-.05615-1.3772-.06744A19.80263,19.80263,0,0,0,373.10505,92.517Z" fill="#020202"/><path d="M395.52106,159.83105a10.56521,10.56521,0,0,1-.802,3.27454,12.6671,12.6671,0,0,1-1.68017,2.93921,7.96384,7.96384,0,0,1-2.67041,2.29236,4.29785,4.29785,0,0,1-1.79077.45874,2.72968,2.72968,0,0,1-1.69141-.53577,4.11743,4.11743,0,0,0,2.72119-1.12305,15.30617,15.30617,0,0,0,2.00488-2.20135C392.8802,163.31531,394.02229,161.54315,395.52106,159.83105Z" fill="#020202"/><path d="M359.84162,136.33679a12.82383,12.82383,0,0,1-2.87988-4.1897,41.49,41.49,0,0,1-1.82666-4.72613c-.48779-1.61041-.94483-3.22876-1.30078-4.8692-.38037-1.63611-.67334-3.28382-.90186-4.957l-.011-.08a.56129.56129,0,0,1,.0603-.34021,60.899,60.899,0,0,1,3.31958-5.64905,60.95442,60.95442,0,0,1-2.04785,6.224l.04931-.41986c.4231,1.59662.84937,3.20532,1.24683,4.81134l1.22974,4.80713c.41137,1.599.83544,3.19153,1.28833,4.77606A21.73127,21.73127,0,0,0,359.84162,136.33679Z" fill="#020202"/><path d="M384.46174,187.07709c-.24854.01861-.43384-.19489-.55518-.48688a1.88324,1.88324,0,0,1-.06909-1.00647.90308.90308,0,0,1,1.7749.33386l-.00293.01691a1.25573,1.25573,0,0,1-.30981.6156,1.986,1.986,0,0,1-.8125.52966l-.01587.01288A.027.027,0,0,1,384.46174,187.07709Zm0,0a.0147.0147,0,0,0,.00976-.01557l-.01562.01264a1.87981,1.87981,0,0,1-.56079-.78638,1.29973,1.29973,0,0,1-.05835-.70038l1.772.35077c-.02026.10639-.12866.16712-.33032.30963A3.435,3.435,0,0,0,384.46174,187.07709Z" fill="#020202"/><path d="M361.03937,161.64648a8.02755,8.02755,0,0,1-.80224,2.81293A9.77237,9.77237,0,0,1,358.576,166.883a6.35541,6.35541,0,0,1-2.54078,1.71417,3.27463,3.27463,0,0,1-3.0205-.30237,5.01626,5.01626,0,0,0,2.39575-.97412,12.68158,12.68158,0,0,0,1.856-1.6825l1.791-1.96234A27.98846,27.98846,0,0,1,361.03937,161.64648Z" fill="#020202"/><path d="M368.14387,103.4762a7.23606,7.23606,0,0,0,2.13647,1.7796,3.6185,3.6185,0,0,0,1.23706.3548c.45264.069.93042.043,1.47559.07208a2.82837,2.82837,0,0,1-1.4541.6828,2.76565,2.76565,0,0,1-1.67627-.23737,3.063,3.063,0,0,1-1.24878-1.1203A2.82557,2.82557,0,0,1,368.14387,103.4762Z" fill="#020202"/><path d="M320.18334,258.01714a1.45253,1.45253,0,0,0,0-2.90332,1.45253,1.45253,0,0,0,0,2.90332Z" fill="#020202"/><path d="M329.00942,257.78487a1.45252,1.45252,0,0,0,0-2.90331,1.45252,1.45252,0,0,0,0,2.90331Z" fill="#020202"/><path d="M338.53229,255.46222a1.45253,1.45253,0,0,0,0-2.90332,1.45253,1.45253,0,0,0,0,2.90332Z" fill="#020202"/><path d="M346.89384,251.04918a1.45252,1.45252,0,0,0,0-2.90331,1.45252,1.45252,0,0,0,0,2.90331Z" fill="#020202"/><path d="M354.79086,244.31349a1.45253,1.45253,0,0,0,0-2.90332,1.45253,1.45253,0,0,0,0,2.90332Z" fill="#020202"/><path d="M361.52655,236.18421a1.45253,1.45253,0,0,0,0-2.90332,1.45253,1.45253,0,0,0,0,2.90332Z" fill="#020202"/><path d="M366.40412,227.35813a1.45252,1.45252,0,0,0,0-2.90331,1.45252,1.45252,0,0,0,0,2.90331Z" fill="#020202"/><path d="M371.04942,218.29979a1.45253,1.45253,0,0,0,0-2.90332,1.45253,1.45253,0,0,0,0,2.90332Z" fill="#020202"/><path d="M374.76566,208.31239a1.45253,1.45253,0,0,0,0-2.90332,1.45253,1.45253,0,0,0,0,2.90332Z" fill="#020202"/><path d="M377.55284,198.78951a1.45252,1.45252,0,0,0,0-2.90331,1.45252,1.45252,0,0,0,0,2.90331Z" fill="#020202"/><path d="M379.8755,188.80211a1.45253,1.45253,0,0,0,0-2.90332,1.45253,1.45253,0,0,0,0,2.90332Z" fill="#020202"/><path d="M381.96588,177.88565a1.45253,1.45253,0,0,0,0-2.90332,1.45253,1.45253,0,0,0,0,2.90332Z" fill="#020202"/><path d="M384.05627,166.96918a1.45252,1.45252,0,0,0,0-2.90331,1.45252,1.45252,0,0,0,0,2.90331Z" fill="#020202"/><path d="M385.44986,156.74951a1.45252,1.45252,0,0,0,0-2.90331,1.45252,1.45252,0,0,0,0,2.90331Z" fill="#020202"/><path d="M386.37892,146.76211a1.45252,1.45252,0,0,0,0-2.90331,1.45252,1.45252,0,0,0,0,2.90331Z" fill="#020202"/><path d="M387.07572,136.31018a1.45253,1.45253,0,0,0,0-2.90332,1.45253,1.45253,0,0,0,0,2.90332Z" fill="#020202"/><path d="M387.54025,125.626a1.45253,1.45253,0,0,0,0-2.90332,1.45253,1.45253,0,0,0,0,2.90332Z" fill="#020202"/><path d="M306.1313,166.33045a1.45252,1.45252,0,0,0,0-2.90331,1.45252,1.45252,0,0,0,0,2.90331Z" fill="#020202"/><path d="M311.93793,168.07244a1.45252,1.45252,0,0,0,0-2.90331,1.45252,1.45252,0,0,0,0,2.90331Z" fill="#020202"/><path d="M317.86069,169.6983a1.45253,1.45253,0,0,0,0-2.90332,1.45253,1.45253,0,0,0,0,2.90332Z" fill="#020202"/><path d="M323.31892,170.91769a1.45252,1.45252,0,0,0,0-2.90331,1.45252,1.45252,0,0,0,0,2.90331Z" fill="#020202"/><path d="M309.73151,158.72375a94.74334,94.74334,0,0,1,9.8855,2.40363,93.60171,93.60171,0,0,1,9.61255,3.33154,93.63264,93.63264,0,0,1-9.8855-2.40362A94.70389,94.70389,0,0,1,309.73151,158.72375Z" fill="#020202"/><path d="M402.231,167.49178a1.45253,1.45253,0,0,0,0-2.90332,1.45253,1.45253,0,0,0,0,2.90332Z" fill="#020202"/><path d="M397.35345,167.666a1.45253,1.45253,0,0,0,0-2.90332,1.45253,1.45253,0,0,0,0,2.90332Z" fill="#020202"/><path d="M397.35334,161.64648a14.97606,14.97606,0,0,1,3.99829-.48358,14.80642,14.80642,0,0,1,3.998.48358,14.80373,14.80373,0,0,1-3.998.48365A14.97331,14.97331,0,0,1,397.35334,161.64648Z" fill="#020202"/><path d="M427.28645,247.307l12.31835,22.6181q6.14173,11.315,12.45093,22.53351c4.2312,7.46313,8.41358,14.95318,12.832,22.29583,2.20337,3.67347,4.45288,7.31867,6.80738,10.88105,1.1792,1.77881,2.38647,3.53692,3.6521,5.23474.63916.84057,1.283,1.68048,1.96411,2.46362a13.49784,13.49784,0,0,0,2.10937,2.07953l.0105.00763a.95848.95848,0,0,1-.8064,1.70227,27.0987,27.0987,0,0,0-6.51806-.877,13.92648,13.92648,0,0,0-6.25537,1.21807,7.29586,7.29586,0,0,0-2.39942,1.88105,7.94737,7.94737,0,0,0-1.41333,2.72735,10.33425,10.33425,0,0,0-.35327,1.55213c-.05908.535-.12353,1.05841-.16455,1.66967a23.85917,23.85917,0,0,1-.603,3.47181,39.02958,39.02958,0,0,1-5.92236,12.48846,52.76892,52.76892,0,0,1-4.28345,5.39185,32.486,32.486,0,0,1-2.43139,2.434,16.40908,16.40908,0,0,1-1.3396,1.08142,5.82141,5.82141,0,0,1-.73218.45508,1.82639,1.82639,0,0,1-.4043.154c-.13428.04065-.32641.0022-.35791-.15381a.25505.25505,0,0,0,.35059.12366,1.78122,1.78122,0,0,0,.38183-.17835,5.71893,5.71893,0,0,0,.68677-.49914,16.29017,16.29017,0,0,0,1.2439-1.1626q1.18651-1.22332,2.26416-2.54614a52.138,52.138,0,0,0,3.93872-5.54749,40.25052,40.25052,0,0,0,5.312-12.33929,22.49972,22.49972,0,0,0,.46069-3.28589c.01953-.52851.06153-1.14142.10376-1.74323a11.90939,11.90939,0,0,1,.32764-1.798,8.78076,8.78076,0,0,1,1.64087-3.34345,8.98959,8.98959,0,0,1,2.91113-2.35882,15.63084,15.63084,0,0,1,7.03589-1.50562,28.83289,28.83289,0,0,1,7.03223.84839l-.79566,1.70978a23.87884,23.87884,0,0,1-4.52978-4.979c-1.28736-1.75286-2.49781-3.54345-3.67749-5.35028-2.35376-3.61639-4.58765-7.2948-6.77368-10.99829q-6.53028-11.12593-12.63721-22.47162-6.09156-11.355-11.97754-22.81225C434.87775,262.71173,430.993,255.05383,427.28645,247.307Z" fill="#020202"/><path d="M446.47754,366.60111a1.45252,1.45252,0,0,0,0-2.90331,1.45252,1.45252,0,0,0,0,2.90331Z" fill="#020202"/><path d="M450.48411,361.37514a1.45252,1.45252,0,0,0,0-2.90331,1.45252,1.45252,0,0,0,0,2.90331Z" fill="#020202"/><path d="M454.31649,355.62658a1.45252,1.45252,0,0,0,0-2.90331,1.45252,1.45252,0,0,0,0,2.90331Z" fill="#020202"/><path d="M456.75527,347.43923a1.45252,1.45252,0,0,0,0-2.90331,1.45252,1.45252,0,0,0,0,2.90331Z" fill="#020202"/><path d="M459.01986,338.72929a1.45253,1.45253,0,0,0,0-2.90332,1.45253,1.45253,0,0,0,0,2.90332Z" fill="#020202"/><path d="M464.42,334.02592a1.45253,1.45253,0,0,0,0-2.90332,1.45253,1.45253,0,0,0,0,2.90332Z" fill="#020202"/><path d="M469.73218,333.00734a1.45252,1.45252,0,0,0,0-2.90331,1.45252,1.45252,0,0,0,0,2.90331Z" fill="#020202"/><path d="M375.27213,124.41372c.0215-.19705.0482-.39345.06875-.59056.13444-1.58243.23226-3.16965.25919-4.76331h-.947l-.51531-.19717c-.24052,1.59206-.42694,3.18926-.59517,4.78942-.06214.71779-.117,1.43653-.1687,2.15557Z" fill="#020202"/></svg>