<svg id="Layer_1" data-name="Layer 1" xmlns="http://www.w3.org/2000/svg" viewBox="0 0 700 550"><title>chilling-exploring on the phone</title><path d="M273.44061,248.75768a94.37627,94.37627,0,0,0-9.16882-10.84652,34.3818,34.3818,0,0,0-5.359-4.50912,11.87117,11.87117,0,0,0-3.03329-1.46556c-.26128-.07044-.52438-.122-.78449-.17038l-.82093-.06915a10.25833,10.25833,0,0,1-1.88611-.24392,7.33555,7.33555,0,0,1-3.49218-1.72784,7.92235,7.92235,0,0,1-2.07839-3.31583,16.3953,16.3953,0,0,1-.32631-7.43455c.742-4.86847,2.69862-9.30127,3.728-13.81691a20.18155,20.18155,0,0,0,.511-6.78354,31.247,31.247,0,0,0-1.50226-6.74625c-.36046-1.09367-.7763-2.234-1.12554-3.39659-.34748-1.15762-.66443-2.32246-.93221-3.49764a56.514,56.514,0,0,1-1.16934-7.12365,39.351,39.351,0,0,1-.08865-7.23034,18.75407,18.75407,0,0,1,.65449-3.59959,9.05444,9.05444,0,0,1,.71561-1.7306,4.57936,4.57936,0,0,1,1.23115-1.501,3.13913,3.13913,0,0,1,1.89155-.65259l.49994.02669.45912.09483a5.73351,5.73351,0,0,1,.90712.22546,8.13237,8.13237,0,0,1,3.17457,1.89449,13.78686,13.78686,0,0,1,3.62259,6.26729l-.60707.02424a16.85108,16.85108,0,0,1,3.62972-7.02023,19.78252,19.78252,0,0,1,2.82276-2.78091l.77409-.6202.81244-.5677,1.57782-1.11843a26.3979,26.3979,0,0,0,8.43783-12.52419,17.351,17.351,0,0,0,.4738-1.81572,5.958,5.958,0,0,0,.10345-.85228,4.464,4.464,0,0,1,.21614-1.13487,30.85762,30.85762,0,0,1,1.48179-3.7153,54.63541,54.63541,0,0,1,3.82626-6.92216,28.86105,28.86105,0,0,1,5.16122-6.15485,8.5391,8.5391,0,0,1,3.81924-2.0159,4.54228,4.54228,0,0,1,2.38553.137,3.9606,3.9606,0,0,1,2.0288,1.448,7.51335,7.51335,0,0,1,1.13379,4.28135,24.97371,24.97371,0,0,1-.34813,4.05205,73.77879,73.77879,0,0,1-1.76418,7.71619c-1.37905,5.05274-3.01645,9.99835-4.36223,14.97547a49.48672,49.48672,0,0,0-1.51758,7.45807c-.21461,2.5314-.32906,5.14191-.39549,7.71718-.066,2.58455-.05666,5.172-.03047,7.76073.02772,2.60911.14316,5.13212.215,7.82436a.8939.8939,0,0,1-.76537.90844l-.04175.00594a2.1748,2.1748,0,0,0-.90748.36116.97338.97338,0,0,0-.41063.637,13.07077,13.07077,0,0,0,.53051,2.50075c.50339,1.87293,1.06566,3.74791,1.63291,5.6161,1.14934,3.735,2.30435,7.47358,3.53679,11.18637,1.22607,3.71515,2.53733,7.40022,3.889,11.06926.68093,1.83272,1.39852,3.65086,2.16822,5.44525.41.88317.76894,1.7981,1.23232,2.652.22608.42982.43234.87537.67549,1.29422l.79455,1.21589.01082.01661a.10206.10206,0,0,1-.16748.11652l-.88432-1.1956c-.27234-.41233-.5042-.84587-.75876-1.26881-.52573-.83958-.91636-1.74059-1.37519-2.61239-.85841-1.76864-1.66436-3.56124-2.4333-5.368-1.55009-3.60934-2.94235-7.28046-4.31386-10.95757-1.34776-3.68574-2.68189-7.37759-3.89731-11.1128-.61005-1.86825-1.21285-3.73457-1.76641-5.63431-.1455-.46812-.26965-.96-.40081-1.44422a6.49243,6.49243,0,0,1-.184-.81043l-.07386-.46391a3.87325,3.87325,0,0,1,.02293-.50833,2.79477,2.79477,0,0,1,1.0708-1.81237,3.9044,3.9044,0,0,1,1.78033-.75093l-.80689.91417c-.12175-2.50783-.2959-5.18192-.3776-7.77615-.09479-2.61382-.10772-5.23161-.07146-7.85013.04368-2.627.13006-5.21959.32959-7.87539a47.39806,47.39806,0,0,1,1.57062-7.8268c1.36156-5.07451,3.03575-10.004,4.46976-14.97252a71.90617,71.90617,0,0,0,1.8039-7.47456,23.11119,23.11119,0,0,0,.36742-3.71122,5.77108,5.77108,0,0,0-.72169-3.174,2.03174,2.03174,0,0,0-1.07963-.78276,2.66594,2.66594,0,0,0-1.45858-.09459,6.96469,6.96469,0,0,0-3.01651,1.5684,27.28286,27.28286,0,0,0-4.94151,5.67754,59.54673,59.54673,0,0,0-3.88509,6.63831,29.75155,29.75155,0,0,0-1.52057,3.48378,3.41086,3.41086,0,0,0-.18707.76832,7.00773,7.00773,0,0,1-.159,1.07917,18.51056,18.51056,0,0,1-.57041,1.94247,27.49229,27.49229,0,0,1-9.11367,12.76032l-1.61741,1.12293-.79291.542-.75455.59284a19.07621,19.07621,0,0,0-2.7547,2.6602,16.13726,16.13726,0,0,0-3.54563,6.67631l-.00122.00526a.31353.31353,0,0,1-.6059.019,13.15154,13.15154,0,0,0-3.505-5.8915,7.39212,7.39212,0,0,0-2.91821-1.69294,5.03143,5.03143,0,0,0-.823-.19222l-.41467-.08178-.39081-.01445a2.33131,2.33131,0,0,0-1.40507.50675,3.4836,3.4836,0,0,0-.97461,1.26264,8.18573,8.18573,0,0,0-.5904,1.58,17.81113,17.81113,0,0,0-.50268,3.42657,38.26249,38.26249,0,0,0,.32233,7.009,55.1248,55.1248,0,0,0,1.36408,6.90543c.2973,1.13457.6418,2.25491,1.01378,3.36323.36936,1.10434.81186,2.183,1.20993,3.34285a31.58628,31.58628,0,0,1,1.69483,7.12136,21.95087,21.95087,0,0,1-.52672,7.37432c-1.15829,4.73838-3.13949,9.096-3.88147,13.65452a21.72994,21.72994,0,0,0-.29631,3.41115,12.15063,12.15063,0,0,0,.47432,3.28244,6.54428,6.54428,0,0,0,1.61519,2.68768,5.87382,5.87382,0,0,0,2.78276,1.47039,8.88383,8.88383,0,0,0,1.63706.26348l.95314.1114c.32111.0674.64151.14248.94981.23681a13.06114,13.06114,0,0,1,3.31861,1.722,34.6431,34.6431,0,0,1,5.38894,4.83149,84.71986,84.71986,0,0,1,8.64965,11.39774.10281.10281,0,0,1-.03158.1419A.10593.10593,0,0,1,273.44061,248.75768Z"/><path d="M259.23069,171.25789q3.897,8.39735,7.89077,16.75354,2.00146,4.17495,4.0524,8.3255c.688,1.38127,1.3818,2.7597,2.09559,4.12764.358.68332.71777,1.366,1.0953,2.03851a9.04918,9.04918,0,0,0,1.26981,1.921,9.06617,9.06617,0,0,1-1.32542-1.88886c-.39666-.6628-.7756-1.33574-1.15273-2.00956-.75216-1.34887-1.48448-2.7085-2.211-4.07112q-2.17515-4.0902-4.28427-8.21453-4.23187-8.24187-8.35726-16.53754a.514.514,0,0,1,.92017-.45846Z"/><path d="M285.91606,189.6686c0,1.83957,10.79792,35.57484,15.2819,40.84448a92.84309,92.84309,0,0,0-14.64-12.76211,5.00811,5.00811,0,0,1,2.51985.64192s1.58085,1.31261,1.58085-2.10787c0-3.43-13.71063-11.33446-15.02324-11.86147-1.32221-.52695-5.14508-9.15-5.14508-9.15a49.12094,49.12094,0,0,1,16.058-7.05172Z"/><path d="M274.56235,317.40458c-.45987.90063-.87186,1.82039-1.303,2.721,0,0-2.10787-53.50114.26824-71.42751l2.36658-.52695c1.94494,2.87435,3.9762,5.68162,5.95945,8.52719q3.01812,4.2253,6.08407,8.41229,5.90676,8.06252,11.97644,15.99095c-2.36657,2.91265-4.64689,5.87325-6.92715,8.84339q-3.65047,4.78581-7.138,9.68653-3.49231,4.88643-6.73558,9.974c-1.08267,1.69588-2.09827,3.43007-3.10428,5.16425Z"/><path d="M334.67452,312.7481s-1.38922,4.39777-2.98932,11.17166v.00959c0,.00953-.00959.01912-.00959.02871-2.1174,5.18344-3.96655,10.45307-5.71033,15.7706-1.75337,5.31753-3.3151,10.70214-4.77146,16.11552-1.4084,5.43249-2.74019,10.88418-3.63123,16.45082-.20123,1.39887-.4024,2.79769-.57485,4.19656l-.15333,2.127-.06708,1.054.01919,1.08267.04789,1.07309.01918.53654a3.27591,3.27591,0,0,0,.13415.58444,2.79075,2.79075,0,0,0,3.59293,2.02161,7.70281,7.70281,0,0,0,1.96413-.80479,7.93211,7.93211,0,0,1-2.012.49818,2.62979,2.62979,0,0,1-1.84921-.37362,2.42771,2.42771,0,0,1-.92935-1.54261,3.97711,3.97711,0,0,1-.05748-.4407l.0383-.51742.06708-1.0156.05748-1.02519.15333-1.02513.30655-2.04079.81443-4.09117c.32573-1.35092.63233-2.71149.92934-4.0624l1.00607-4.0624c.68982-2.7019,1.36051-5.40379,2.10781-8.09609l4.32111-16.19218c1.36051-5.06841,2.70189-10.156,3.94743-15.27236-3.68872,15.93346-8.23977,43.72841.05749,59.78643,0,0-3.16177,64.56743-9.48531,66.94354,0,0-38.478,5.79658-52.44724-5.53794-5.52835-4.484-10.89383-12.81-14.85079-23.19594a90.57475,90.57475,0,0,1,2.74978-70.13408c4.599-9.95483,10.77881-23.05226,15.78973-32.643a118.793,118.793,0,0,1,6.73552-9.92607q3.53548-4.82887,7.20505-9.58115c2.42406-3.16177,4.88643-6.32354,7.34873-9.46619l6.841-8.64222,2.18453,1.6384-1.39887-3.27674a.81354.81354,0,0,0-.10538-.24912l-.05748-.13415a1.10873,1.10873,0,0,0-.34491-.44075.03535.03535,0,0,1-.02877-.00954q-6.16544-7.97637-12.48422-15.85686c-2.15576-2.70183-4.35947-5.3846-6.56312-8.05772-2.23243-2.654-4.4169-5.33671-6.69722-7.95235-2.36658-3.94743-1.17846-12.38843-1.17846-12.38843,3.60246-15.43528,8.77631-18.02215,11.8327-18.03174A91.06642,91.06642,0,0,0,301.198,230.51308c4.484,5.26963,34.26222,33.20826,39.0049,47.97285C340.20286,278.48593,344.4186,289.28385,334.67452,312.7481Z"/><path d="M343.42639,386.23648a12.503,12.503,0,0,1-3.07575.41441,20.40949,20.40949,0,0,1-3.018-.16623,20.04838,20.04838,0,0,1-2.96142-.60417,12.34611,12.34611,0,0,1-2.86862-1.18586,12.72887,12.72887,0,0,1,3.09329-.41494,19.8701,19.8701,0,0,1,3.00049.16676,20.2303,20.2303,0,0,1,2.94388.6047A12.89124,12.89124,0,0,1,343.42639,386.23648Z"/><path d="M375.41747,388.09189l7.63966-.21736c2.54266-.08254,5.0911-.216,7.61867-.34649l-.39128.15243a23.81767,23.81767,0,0,1,3.93527-2.81052,21.81815,21.81815,0,0,1,2.18751-1.08455,20.84606,20.84606,0,0,1,2.32962-.76993,19.57646,19.57646,0,0,1,9.7432-.03,30.63791,30.63791,0,0,1,8.88573,3.86589,41.06888,41.06888,0,0,1,7.5203,6.08354l-.98589-.36807,3.16616-.37549c1.0546-.10611,2.07851-.28836,3.30007-.30274a11.76337,11.76337,0,0,1,6.63295,2.00947,11.54671,11.54671,0,0,1,2.57774,2.352c.70619.90531,1.27735,1.7305,1.92261,2.59961l3.7662,5.15206a.85342.85342,0,0,1-.18245,1.193.88054.88054,0,0,1-.31462.14409,5.7776,5.7776,0,0,0-2.5316,1.25045,7.76841,7.76841,0,0,0-1.71764,2.4352,12.8648,12.8648,0,0,0-.9501,2.98721,17.75987,17.75987,0,0,0-.3538,3.1549l-.001.065a.38112.38112,0,0,1-.046.17435,4.01785,4.01785,0,0,1-1.04145,1.16785c-.36058.29833-.72414.57511-1.0935.84122a15.69109,15.69109,0,0,1-2.34879,1.471,6.11891,6.11891,0,0,1-2.81348.514l-1.32688-.05991a4.43191,4.43191,0,0,0-1.23489.05319,3.31929,3.31929,0,0,0-1.96044,1.26343,3.78193,3.78193,0,0,0-.70362,2.29664,9.41834,9.41834,0,0,0,1.18688,4.92964,21.16427,21.16427,0,0,0,7.44236,7.21528,48.02734,48.02734,0,0,0,9.54168,4.46573.69685.69685,0,0,1,.43391.8849.78538.78538,0,0,1-.04467.1028c-.62924,1.19-1.31045,2.29775-2.00407,3.40575q-1.04253,1.65612-2.11722,3.284c-1.434,2.17161-2.8795,4.32742-4.38082,6.45488a.96767.96767,0,0,1-.7218.40812l-.03117.00211q-14.94813,1.01946-29.91655,1.65863c-4.99561.21134-9.98057.42257-15.02155.405-.62578.00725-1.26817-.01322-1.91009-.03345l-.96163-.02848-1.06694-.10526-.52222-.06088-.42286-.06819c-.2783-.04813-.56309-.093-.86911-.12356-.59543-.07293-1.19881-.14129-1.81278-.19678-2.44441-.23456-4.92514-.386-7.4016-.51239-2.47821-.13094-4.96127-.19766-7.44-.26813-2.4743-.05947-4.967-.10175-7.39125.00655-.60584.02006-1.20448.07789-1.731.14561-.26356.02556-1.29741.33082-1.87407.36485-1.31928.16351-2.57452.22035-3.8417.26087-2.52628.07252-5.03777.05913-7.54873-.03116q-3.76494-.14746-7.5189-.51778a58.89407,58.89407,0,0,1-7.48539-1.15863,18.00385,18.00385,0,0,0-7.20663-.77561,8.95476,8.95476,0,0,0-1.74863.43462c-.58894.18684-1.08385.48964-1.79056.6718a.84391.84391,0,0,1-.3007.02082.65116.65116,0,0,1-.34087-.10018c-.09889-.02339-.269-.27795-.22363-.398a.68458.68458,0,0,1,.10766-.33684,3.32941,3.32941,0,0,1,.69245-.72882,15.04608,15.04608,0,0,1,1.53922-1.10519.12858.12858,0,0,1,.1776.0386.13228.13228,0,0,1-.03339.17409,14.74446,14.74446,0,0,0-1.4146,1.18875,3.00162,3.00162,0,0,0-.54894.66146c-.01427.04327-.04719.11233-.03053.103-.00906.0093-.00281.00468-.00275-.0179-.013-.01643-.02643-.01269.00024-.01275a.201.201,0,0,0,.10637.00954.388.388,0,0,0,.16082-.02456c.495-.15591,1.07788-.52245,1.66389-.75438a9.67085,9.67085,0,0,1,1.846-.5821,18.41071,18.41071,0,0,1,7.60855.34748,57.66079,57.66079,0,0,0,7.34429.79654q3.70881.20088,7.43288.17515c2.478-.00655,4.95894-.043,7.41808-.188,1.22437-.07176,2.46319-.167,3.61563-.34316.66929-.08894.82537-.18672,1.78565-.40274a20.015,20.015,0,0,1,1.99-.23c5.09326-.32444,10.07483-.243,15.09728-.06643,2.50827.09632,5.01169.21655,7.53767.42643q.94421.07158,1.90881.19508c.31491.03228.64636.08369.98279.14217l.5004.08339c.15708.02327.27047.02637.4076.04146l.79508.07842.90876.02783c.605.02,1.20951.04129,1.83149.03527,4.93953-.00012,9.93156-.12579,14.90957-.25421,9.96331-.28544,19.93452-.69368,29.90193-1.05595l-.75268.41011,4.58643-6.25512q1.13164-1.57384,2.23-3.1651c.726-1.06057,1.44992-2.13459,2.07353-3.21493l.38918.98747a49.13893,49.13893,0,0,1-9.64221-4.93578c-2.97551-2.00927-5.87214-4.39181-7.63551-7.6689a10.31445,10.31445,0,0,1-1.21928-5.36145,4.579,4.579,0,0,1,.83432-2.73242,4.1304,4.1304,0,0,1,2.42634-1.59272,5.16566,5.16566,0,0,1,1.42735-.08436l1.34735.03664a5.222,5.222,0,0,0,2.38991-.50289,15.11263,15.11263,0,0,0,2.13833-1.43007c.34719-.265.68835-.53613,1.0008-.82341a3.39092,3.39092,0,0,0,.71842-.82633l-.04685.239a18.81443,18.81443,0,0,1,.22638-3.4068,14.1802,14.1802,0,0,1,.90109-3.32729,9.21836,9.21836,0,0,1,1.93986-3.00013,7.3709,7.3709,0,0,1,3.24148-1.77729l-.497,1.33691-3.9789-4.98c-.65677-.81066-1.34021-1.70293-1.97506-2.44648a9.78415,9.78415,0,0,0-2.16383-1.87513,9.98968,9.98968,0,0,0-5.42261-1.5462c-.906.007-1.98623.18646-3.04382.30219l-3.16627.374a1.149,1.149,0,0,1-.96578-.34649l-.02047-.02169a39.03013,39.03013,0,0,0-6.99944-5.779,29.70761,29.70761,0,0,0-8.1962-3.78033,18.6657,18.6657,0,0,0-8.85485-.28546,19.46881,19.46881,0,0,0-8.01808,4.01833l-.02994.02375a.59334.59334,0,0,1-.36163.1288c-2.5654.03514-5.11291-.04588-7.66557-.11266-2.551-.073-5.10011-.18322-7.64609-.34842a.12864.12864,0,0,1,.00479-.257Z"/><path d="M363.41992,429.15265a3.33379,3.33379,0,0,0-1.39893,1.432,2.85747,2.85747,0,0,0-.21123,1.82682,6.05159,6.05159,0,0,0,.66789,1.79026,12.92836,12.92836,0,0,0,1.12595,1.6053,43.61235,43.61235,0,0,0,5.97845,5.61595c2.139,1.749,4.39755,3.36171,6.703,4.91859,2.317,1.54495,4.70111,2.994,7.16476,4.42222a33.25171,33.25171,0,0,1-7.98165-3.04148,44.14737,44.14737,0,0,1-7.17709-4.701,29.79318,29.79318,0,0,1-5.97711-6.27044,11.47643,11.47643,0,0,1-1.06081-2.00225,6.94263,6.94263,0,0,1-.44473-2.26442,3.496,3.496,0,0,1,.73777-2.20886A3.2335,3.2335,0,0,1,363.41992,429.15265Z"/><path d="M388.98436,406.48726a3.25838,3.25838,0,0,1,2.29471-1.335,4.863,4.863,0,0,1,2.72166.60794,13.57118,13.57118,0,0,1,4.028,3.6372c2.15038,2.70935,4.28819,5.44785,6.30658,8.30337a60.06062,60.06062,0,0,1,5.35549,9.06584,27.5081,27.5081,0,0,1,1.76617,5.01625,12.74261,12.74261,0,0,1,.1928,5.2763c-.20052-3.50679-1.75769-6.58716-3.38819-9.5639-.87081-1.46776-1.73372-2.94061-2.70283-4.35772-.92905-1.439-1.90828-2.85411-2.90628-4.258-1.95453-2.83643-4.01948-5.6242-5.9215-8.54951a14.50414,14.50414,0,0,0-3.25206-3.71211,4.295,4.295,0,0,0-2.18424-.89926A3.21525,3.21525,0,0,0,388.98436,406.48726Z"/><path d="M394.519,453.11811a45.50438,45.50438,0,0,0,4.60824-1.28273,25.83068,25.83068,0,0,0,4.168-1.88272c.67689-.34081,1.27811-.79788,1.91846-1.20244.59-.47046,1.22109-.90168,1.77985-1.42934a42.64842,42.64842,0,0,0,3.33856-3.40937,11.32662,11.32662,0,0,1-2.16524,4.50345,12.18778,12.18778,0,0,1-3.86188,3.32779,13.65188,13.65188,0,0,1-4.80338,1.6463A11.563,11.563,0,0,1,394.519,453.11811Z"/><path d="M365.00124,432.5788c2.02447-2.15891,4.158-4.174,6.3274-6.14371,2.15973-1.981,4.38245-3.882,6.60587-5.7801,2.24763-1.86962,4.48965-3.74127,6.78371-5.55379l6.90166-5.45135a48.82685,48.82685,0,0,1-5.83606,6.65055c-2.09266,2.07085-4.29169,4.021-6.52506,5.9255-2.25891,1.87448-4.54514,3.71446-6.9178,5.44578A84.00076,84.00076,0,0,1,365.00124,432.5788Z"/><path d="M391.49643,388.81721a6.83946,6.83946,0,0,0-.98466,1.15133,8.57839,8.57839,0,0,0-.79672,1.40381,8.08146,8.08146,0,0,0-.73069,3.2551,8.60717,8.60717,0,0,1-.26052-3.52726,9.85544,9.85544,0,0,1,.398-1.79907,8.6248,8.6248,0,0,1,.77665-1.77743l.01129-.01921a1.04295,1.04295,0,0,1,1.79834,1.05685A1.07062,1.07062,0,0,1,391.49643,388.81721Z"/><path d="M389.7133,411.56c-3.0544-4.60845-6.0267-9.26763-9.04333-13.89946l-8.90941-13.98221a.706.706,0,0,1,.08509-.86709l.01193-.01223c5.6001-5.84568,11.35879-11.5213,17.21088-17.117,2.93153-2.79157,5.8991-5.54989,8.97777-8.19617,1.5408-1.32185,3.08984-2.63786,4.70537-3.88515a40.18374,40.18374,0,0,1,5.12291-3.49437l.724-.36546.8087-.30386a5.699,5.699,0,0,1,.95935-.16716l.82.01424a9.38434,9.38434,0,0,1,3.19668.73938,8.86712,8.86712,0,0,0,2.60716.93492,4.43666,4.43666,0,0,0,2.47745-.75674c.4193-.21181.81374-.51727,1.22344-.77069l1.18331-.88578c.81157-.62841,1.63489-1.239,2.48-1.81521,1.69056-1.15147,3.44592-2.19122,5.22765-3.16656,1.77968-.97911,3.59743-1.8767,5.372-2.81783a15.42827,15.42827,0,0,0,2.47254-1.56887,1.07809,1.07809,0,0,0,.21877-.22663,1.277,1.277,0,0,0,.19292-.26421c.128-.21321.25315-.4271.36912-.64259a5.32486,5.32486,0,0,0,.54473-1.29194.77125.77125,0,0,0-.00445-.49035.45193.45193,0,0,0-.3604-.19078,6.17814,6.17814,0,0,0-1.40688.04956c-.98718.109-1.97735.27643-2.95645.47888a27.98565,27.98565,0,0,0-2.89628.75236,7.28718,7.28718,0,0,0-2.56576,1.273l-.00994.009a.3127.3127,0,0,1-.49783-.3533q1.75718-4.17675,3.37259-8.41647a69.97507,69.97507,0,0,0,2.797-8.57193,9.02286,9.02286,0,0,0,.16561-1.06849,2.5116,2.5116,0,0,0,.00281-.48093c-.00983-.0669-.02626-.09558-.03421-.14868a.57077.57077,0,0,0-.08614-.12757c-.1569-.2702-.94385.00982-1.4894.40511a16.29486,16.29486,0,0,0-3.12849,3.072,47.99865,47.99865,0,0,0-4.89075,7.50858.61887.61887,0,0,1-.563.32427l-.02064-.00079c-1.61179-.05053-3.24048-.06611-4.85222-.02634a24.84886,24.84886,0,0,0-4.69175.4399,14.90635,14.90635,0,0,1-2.42066.83373,5.515,5.515,0,0,1-1.40361-.14207c-.17731-.02831-.35134-.04167-.52853-.053a4.46547,4.46547,0,0,0-.49549.018,9.88736,9.88736,0,0,0-4.16129,1.49945,3.71325,3.71325,0,0,0-.39163.30959l-.43573.42555a11.89823,11.89823,0,0,1-1.04221.82411c-.69092.49388-1.38536.94192-2.08114,1.38361-1.37279.87767-2.82955,1.72178-4.06842,2.58759l-.19088.14953c-.115.083-.2749.18824-.404.26409l-.56554.30438-1.09747.56435-2.1819,1.1094-4.34117,2.23629c-5.76571,3.01566-11.44985,6.181-16.97545,9.588A141.20352,141.20352,0,0,0,355.96218,364.217a55.14959,55.14959,0,0,0-6.89926,6.6583c-.49146.61812-1.03192,1.20732-1.46454,1.8607l-.6838.95952c-.21806.32471-.40484.66409-.60969.99522a14.57132,14.57132,0,0,0-1.77852,4.20939,22.54824,22.54824,0,0,0,.14988,9.32075,55.384,55.384,0,0,0,2.7519,9.22271,124.4691,124.4691,0,0,0,8.5604,17.46q4.89591,8.44255,10.57232,16.43a.1028.1028,0,0,1-.02141.1438.10489.10489,0,0,1-.14146-.01836c-2.04237-2.55184-3.97877-5.18344-5.85746-7.858-1.87734-2.675-3.7089-5.38627-5.42747-8.17123a120.72493,120.72493,0,0,1-9.15812-17.40207,57.02413,57.02413,0,0,1-3.00949-9.45642,24.33206,24.33206,0,0,1-.31819-10.1,16.55982,16.55982,0,0,1,1.91536-4.80318c.2176-.36617.41742-.74719.6511-1.10086l.72654-1.04c.466-.71119,1.0249-1.3344,1.54372-1.9962a57.22015,57.22015,0,0,1,7.1054-6.98046c10.20454-8.42422,21.73228-14.819,33.35259-20.79987l4.38269-2.20067,2.19172-1.086,1.08426-.54341.51473-.26982a.8262.8262,0,0,1,.1145-.06018l.29257-.22529c1.44419-.992,2.83534-1.74988,4.22567-2.60552.68917-.41987,1.37343-.84513,2.01775-1.28852a10.411,10.411,0,0,0,.89028-.67408l.44736-.42114a5.42048,5.42048,0,0,1,.574-.43938,10.1492,10.1492,0,0,1,2.40944-1.1446,11.351,11.351,0,0,1,2.58289-.56154,5.93163,5.93163,0,0,1,.72678-.01015c.22947.0179.462.04158.68695.08132a4.7601,4.7601,0,0,0,1.01688.15,3.06839,3.06839,0,0,0,.91625-.27891c.18842-.07526.30257-.15131.55905-.24739a3.67279,3.67279,0,0,1,.7114-.22164,25.72609,25.72609,0,0,1,5.04554-.35049c1.65062.005,3.28493.0655,4.9321.16242l-.58338.32333a50.62517,50.62517,0,0,1,5.20636-7.5556,17.13424,17.13424,0,0,1,3.414-3.18182,4.4387,4.4387,0,0,1,1.143-.542,1.84785,1.84785,0,0,1,.73578-.06909,1.17128,1.17128,0,0,1,.76093.40558,1.32069,1.32069,0,0,1,.31572.74911,3.29553,3.29553,0,0,1-.01415.65213,9.8049,9.8049,0,0,1-.20853,1.16887,78.35711,78.35711,0,0,1-2.92985,8.64918q-1.65033,4.23976-3.45632,8.41106l-.50772-.34421a8.22118,8.22118,0,0,1,2.80482-1.44024,28.63147,28.63147,0,0,1,2.957-.80584c.99642-.2181,1.99822-.4,3.01757-.525a6.53591,6.53591,0,0,1,1.612-.06126,1.17024,1.17024,0,0,1,.88894.56312,1.44817,1.44817,0,0,1,.08461.99037,5.96364,5.96364,0,0,1-.602,1.50162c-.1207.23061-.24819.45429-.37748.67554a2.82,2.82,0,0,1-.54631.67169,15.82994,15.82994,0,0,1-2.60845,1.71082c-1.76746,1.00195-3.5455,1.94892-5.27712,2.969-1.73255,1.01633-3.42633,2.08953-5.04162,3.26142-.8076.58642-1.58852,1.20293-2.35664,1.83424l-1.21548.96519c-.43947.292-.83987.62017-1.31437.88139a5.76722,5.76722,0,0,1-3.221,1.024,5.25192,5.25192,0,0,1-1.70816-.38245c-.50122-.19581-.96081-.40832-1.40238-.574a7.77946,7.77946,0,0,0-2.68973-.544l-.695.0074a5.09923,5.09923,0,0,0-.52485.11359l-.60239.24737-.62046.333a38.778,38.778,0,0,0-4.82215,3.40972q-2.33436,1.8834-4.61286,3.86355-4.53837,3.97227-8.96678,8.098c-5.90881,5.48744-11.66563,11.15406-17.395,16.8317l.097-.879,8.51982,14.22294c2.79318,4.7699,5.63057,9.51244,8.38591,14.30571a.10285.10285,0,0,1-.17491.10807Z"/><path d="M432.49283,392.71016a46.36967,46.36967,0,0,1-3.26726-7.94258A44.00665,44.00665,0,0,1,427.455,376.294a30.48752,30.48752,0,0,1,.28508-8.75872c.54953-2.827,1.14741-5.56931,1.64852-8.37184.54426-2.78435,1.0363-5.579,1.49922-8.377.13783-.71929.19058-1.33791.41058-2.19822a6.59715,6.59715,0,0,1,1.10612-2.20886,6.52406,6.52406,0,0,1,1.83635-1.63c.7621-.42233,1.36916-.62279,2.02483-.92978,1.29612-.56865,2.57628-1.1737,3.85825-1.77737l1.91506-.92353.95122-.47543.468-.23926a1.13343,1.13343,0,0,0,.26175-.19632,1.22023,1.22023,0,0,0-.10865-1.43682,1.75024,1.75024,0,0,0-1.50717-.8335,8.09629,8.09629,0,0,0-4.01135,1.08075,7.80669,7.80669,0,0,1,3.977-1.64963,2.28687,2.28687,0,0,1,1.20794.16839,2.72789,2.72789,0,0,1,.97057.75558,2.58983,2.58983,0,0,1,.551,1.14132,1.79333,1.79333,0,0,1-.27438,1.383,1.97813,1.97813,0,0,1-.53882.50081l-.46274.28426-.92057.55389-1.85723,1.08194c-1.24455.7111-2.51494,1.37478-3.79042,2.03044-.61794.32862-1.34489.646-1.80962.94949a4.88973,4.88973,0,0,0-1.29636,1.23753,4.75838,4.75838,0,0,0-.74,1.61535c-.122.52313-.19444,1.32937-.29754,2.01287-.40847,2.83143-.88887,5.65025-1.40442,8.46278-.54035,2.798-1.162,5.62177-1.76425,8.372a31.80006,31.80006,0,0,0-.59455,8.25331A61.737,61.737,0,0,0,432.49283,392.71016Z"/><path d="M456.89233,339.18H444.22162a.51368.51368,0,0,1,0-1.02736H456.242l-1.337-5.61863h-23.9398a.51368.51368,0,0,1,0-1.02736h24.34587a.51251.51251,0,0,1,.49964.39485l1.58127,6.646a.51266.51266,0,0,1-.49964.63251Z"/><path d="M442.83667,332.02a2.72785,2.72785,0,0,0-.574-1.37118,3.022,3.022,0,0,0-1.01647-.738,9.50974,9.50974,0,0,0-2.67681-.63213c-.484-.06693-.973-.13093-1.48244-.16318-.25181-.02828-.50432-.05009-.75794-.0893-.25637-.01763-.51508-.037-.77432-.06409a21.56743,21.56743,0,0,1-3.20978-.5328,10.39947,10.39947,0,0,1,3.14692-1.08247,8.68493,8.68493,0,0,1,1.65711-.18032c.28058-.00848.55859-.01854.84221-.00962l.8549.08529a6.19447,6.19447,0,0,1,3.32545,1.34992,3.34847,3.34847,0,0,1,1.01742,1.66931A2.23565,2.23565,0,0,1,442.83667,332.02Z"/><path d="M420.48154,350.37533c-.932,2.99829-2.01448,5.91919-3.135,8.81953-1.10542,2.90584-2.29371,5.77255-3.4244,8.64915-.58789,1.42826-1.14782,2.86625-1.66506,4.29924-.26561.7154-.51269,1.42674-.7021,2.12468a7.60264,7.60264,0,0,0-.18275.951c-.01181.35777-.0166.72139.00269,1.09525.17445,2.99861.74649,6.08436,1.19981,9.17932a35.9065,35.9065,0,0,1-2.79715-9.03058c-.06216-.40026-.10117-.81359-.12988-1.23373a8.035,8.035,0,0,1,.14935-1.35372c.16754-.81771.38508-1.59071.61432-2.35088.48239-1.51351,1.03782-2.98133,1.60279-4.44283,1.18419-2.89987,2.46031-5.74846,3.87105-8.53383A87.25708,87.25708,0,0,1,420.48154,350.37533Z"/><path d="M428.29693,370.27863a5.97773,5.97773,0,0,1-1.38876,2.17646,6.56227,6.56227,0,0,1-2.18324,1.49238,6.96451,6.96451,0,0,1-1.29753.36853,5.56541,5.56541,0,0,1-1.34331.0214,5.15867,5.15867,0,0,1-2.43991-.88191,13.13309,13.13309,0,0,0,2.44985.07985,6.8748,6.8748,0,0,0,2.24248-.53894A13.62489,13.62489,0,0,0,428.29693,370.27863Z"/><path d="M373.03745,384.0837c-.84941.4962-1.70378.98356-2.56944,1.45039a23.3952,23.3952,0,0,1-2.65558,1.27466,22.98411,22.98411,0,0,0,2.018-2.081c.63923-.72458,1.2611-1.46434,1.875-2.21009a1.04429,1.04429,0,1,1,1.61249,1.32741A1.07238,1.07238,0,0,1,373.03745,384.0837Z"/><path d="M439.16292,419.05305c1.323,1.58,2.50084,3.18607,3.804,4.68067a26.04409,26.04409,0,0,0,2.02325,2.15184,14.29532,14.29532,0,0,0,2.37079,1.81758,6.603,6.603,0,0,1-2.87306-1.19215,12.18411,12.18411,0,0,1-2.30009-2.10769,16.34657,16.34657,0,0,1-1.77822-2.53A13.05775,13.05775,0,0,1,439.16292,419.05305Z"/><path d="M444.594,440.73553a.51386.51386,0,0,1-.51367-.495c-.00562-.1628-.044-4.01211,8.972-5.92366a.51766.51766,0,0,1,.60818.3911,4.37781,4.37781,0,0,0,2.95575,2.91833c.42479.14128.86829.33871,1.29682.52958,1.18642.52771,2.41213,1.07039,3.3637.53426,1.148-.64373,1.96956-2.81072,2.44113-6.44108,2.2119-16.99158,13.71771-23.02846,16.57241-24.27663-3.50872-4.3321-12.16451-4.52485-15.8192-4.40415l-.24327.00655c-.5642,0-.98057-.50806-1.66922-1.35109a17.60721,17.60721,0,0,0-2.47856-2.5871c-.39017-.32093-.5876-.24421-.655-.218-.73824.28818-1.34455,2.42149-1.5401,3.84369a.51117.51117,0,0,1-.54362.4435,33.50094,33.50094,0,0,0-12.56965,1.28747.514.514,0,0,1-.35555-.96466,33.615,33.615,0,0,1,12.52474-1.3773c.203-1.16021.78876-3.6734,2.10991-4.18988a1.61192,1.61192,0,0,1,1.68232.38175,18.566,18.566,0,0,1,2.62172,2.73025,5.08444,5.08444,0,0,0,.9132.9787l.16749-.01122c3.96719-.13287,13.5811.11508,17.088,5.37443a.51458.51458,0,0,1-.262.77192c-.14035.04771-14.09385,5.01887-16.52376,23.69464-.53145,4.08042-1.47085,6.37-2.95762,7.20458-1.40536.78877-2.9361.10854-4.28438-.49122-.42573-.18994-.82713-.36865-1.20513-.494a5.50288,5.50288,0,0,1-3.47411-3.1803c-7.6041,1.72629-7.70983,4.75128-7.7089,4.78215a.51364.51364,0,0,1-.495.53239Z"/><path d="M444.59368,440.22179s-.13178-3.55794,8.56541-5.4028a4.911,4.911,0,0,0,3.29439,3.29439c2.76729.92243,6.44942,4.38605,7.77476-5.79812,2.50373-19.23924,16.86727-24.11493,16.86727-24.11493,14.36354,3.55794,20.29344,13.57288,24.11493,17.65792s16.472,9.48785,29.91306,15.6813,13.30933,11.59417,13.30933,11.59417l-112.53634-.01647S442.74882,443.648,444.59368,440.22179Z"/><path d="M452.22818,403.16932a5.65086,5.65086,0,0,1,.56695,2.5447,5.21523,5.21523,0,0,1-.56695,2.55047,6.87606,6.87606,0,0,1-.46035-2.54433A6.37676,6.37676,0,0,1,452.22818,403.16932Z"/><path d="M464.75534,410.53285a1.54279,1.54279,0,0,0,0-3.08374,1.54279,1.54279,0,0,0,0,3.08374Z"/><path d="M467.39084,405.42958a2.24067,2.24067,0,0,1,1.48021,1.03,3.37329,3.37329,0,0,1,.53684,1.66612,3.54279,3.54279,0,0,1-.32327,1.66831,2.97235,2.97235,0,0,1-1.16665,1.30536,7.12708,7.12708,0,0,1-.42743-1.57352,10.64443,10.64443,0,0,1-.13514-1.29513c-.02392-.4099-.01789-.81013-.00807-1.24828C467.3606,406.53594,467.38856,406.07545,467.39084,405.42958Z"/><path d="M166.29529,137.38423c-.07666-1.46595-.09579-2.93183-.06707-4.39778.02877-.81437.03836-1.62881.10543-2.44318l.115-1.77249c1.69583.13409,3.39171.26824,5.08759.32572l5.672.17246c1.89705.06707,3.78457.07666,5.68162.03836,1.58091-.02877,3.16177-.09585,4.74268-.16292.0862,1.16893.19164,2.357.3162,3.5834l.25865,2.43359c-.00959.51736-.02871,1.03478-.04789,1.55215l-5.26964.15327c-1.121.03836-2.242.115-3.3534.20122-.91023-.05748-1.81086-.09578-2.7019-.12456a51.79181,51.79181,0,0,0-5.46127.03837C169.70618,137.07762,168.01036,137.26926,166.29529,137.38423Z"/><path d="M182.88986,138.8693l5.672.17245c1.88752.05748,3.78457.06707,5.67208.02877,1.58086-.02877,3.16177-.08626,4.75222-.16292.07667,1.17852.182,2.357.3066,3.59293l.53655,5.05888c-2.10787-.22994-4.08158-.39286-6.00735-.53654-1.92582-.13415-3.80375-.25871-5.64331-.30661a51.84628,51.84628,0,0,0-5.46127.02878c-1.66712.10537-3.35341.297-5.078.412-.07667-1.46595-.08626-2.94142-.06708-4.40737.02871-.81437.04789-1.62881.10538-2.44318l.10538-1.52343c.68987-.01912,1.37969-.05749,2.06-.0862C180.85866,138.76392,181.87426,138.831,182.88986,138.8693Z"/><path d="M188.96434,136.68482c-.00959-.38327-.03836-.76654-.03836-1.14975.08625-.74736.16292-1.51384.24912-2.2995.14374-1.43717.25871-2.93183.3449-4.43608,1.57133.12456,3.14265.23953,4.714.297l5.672.17246c1.89705.06707,3.78457.07666,5.68162.03836,1.58092-.02877,3.16177-.09585,4.74269-.16292.08619,1.16893.182,2.357.31619,3.5834l.52695,5.05882c-2.09827-.22035-4.072-.38321-6.0074-.53654-1.61922-.115-3.20008-.20123-4.76181-.26824a1.0428,1.0428,0,0,0-.39286-.115H199.906c-1.88752-.09579-3.78457-.17246-5.672-.20117C192.48061,136.62728,190.71765,136.63687,188.96434,136.68482Z"/><path d="M201.41025,257.35944c-.12456-1.22636-.22994-2.41442-.3066-3.58335-1.59051.07667-3.17136.13415-4.75228.16287-1.88746.03836-3.78457.02877-5.672-.03831l-5.672-.17245c-1.69589-.05749-3.4013-.19164-5.09719-.32579l-.115,1.77255c-.05749.81438-.07667,1.62881-.10538,2.44319-.01918,1.46594-.00959,2.93183.067,4.39777,1.72466-.115,3.41089-.297,5.07806-.40245a51.8424,51.8424,0,0,1,5.46122-.0383c.89109.02871,1.79167.06707,2.70189.12456,1.121-.08626,2.23242-.16287,3.3534-.20123l5.26964-.15327c.01918-.51742.03836-1.03478.04789-1.55214Zm11.35365,9.77279c-.13415-1.236-.22994-2.41447-.3162-3.59294-1.58085.07667-3.16177.13415-4.74262.16287-1.89711.03836-3.78457.03836-5.68162-.02872l-5.67209-.17245c-1.0156-.03836-2.0312-.10538-3.03721-.17245-.68981.02871-1.3701.06707-2.0695.08619l-.09585,1.52343c-.06707.81438-.07666,1.62881-.10538,2.44319-.02877,1.47547-.00959,2.94142.06708,4.4073,1.715-.115,3.4013-.3066,5.06841-.412a51.8599,51.8599,0,0,1,5.46127-.02871c1.83957.04789,3.71749.17245,5.64331.3066,1.93536.14368,3.90907.30655,6.00735.53654Zm11.34411-9.77279c-.12456-1.22636-.22994-2.41442-.31619-3.58335-1.58092.07667-3.16177.13415-4.74269.16287-1.88746.03836-3.78456.02877-5.672-.03831l-5.672-.17245c-1.58092-.0479-3.15224-.17246-4.72351-.297-.08625,1.50424-.20122,2.9989-.345,4.43607-.07661.78567-.16286,1.55215-.24912,2.29945.00959.38327.02877.76654.03836,1.14975,1.7629-.0479,3.51627-.05749,5.27923-.01912,1.88746.02871,3.775.10537,5.672.20116h.09578a1.04293,1.04293,0,0,1,.39286.115c1.56174.06708,3.14259.15333,4.76181.2683,1.82044.14368,3.68878.297,5.65291.49818.04789-.86227.07666-1.72459.08619-2.59645Zm11.59318-7.0709a23.6004,23.6004,0,0,0-.297-2.44319c-.13415-.81437-.27783-1.6288-.33531-2.44318-.03837-.45988-.05749-.92934-.08626-1.38928-1.533.06708-3.05639.12456-4.58935.15333q-2.83128.05746-5.672-.02877l-5.67209-.182c-1.69582-.05749-3.3917-.19164-5.08759-.32573l-.12456,1.77249c-.05748.81438-.0766,1.62881-.09579,2.44318-.02877,1.236-.00959,2.472.03831,3.70791,1.75337-.05749,3.51632-.05749,5.26963-.02872,1.88752.03831,3.78457.10538,5.67209.20117l.10538.00959a.9337.9337,0,0,1,.3928.115c.5749.01918,1.14975.03836,1.73419.07667.98688-.07667,1.97371-.15328,2.9606-.19164l5.20256-.17245c.20123-.00959.40239-.00959.60362-.00959C235.73,251.13168,235.72037,250.71011,235.70119,250.28854Zm9.15958,7.06131c-.12456-1.21677-.22994-2.3857-.31619-3.545-1.40841.06708-2.8264.115-4.23486.14369-1.73419.01918-3.46837.00959-5.193-.0479l-5.20256-.182c-.88145-.02872-1.77255-.0862-2.66359-.15327-.52695.01912-1.0539.04789-1.58085.06707-.08626,1.43717-.19164,2.86476-.33538,4.23485-.07661.78567-.16286,1.55215-.24912,2.29945.00959.61321.03836,1.236.06708,1.84921,1.56173-.115,3.08516-.3066,4.599-.40245a43.12933,43.12933,0,0,1,4.98215-.0383c1.6767.05748,3.39177.17245,5.15467.3066,1.77255.15327,3.58334.3162,5.53793.53654Zm-3.65042-13.337a30.252,30.252,0,0,1-4.0624.16287c-.01918.412-.04789.824-.07666,1.22641-.05749.81438-.20117,1.62881-.33532,2.44318-.0383.22994-.06708.46947-.10538.69947-.05748.60356-.12456,1.20718-.19163,1.79167-.01919.40239-.02878.79519-.01919,1.19764,1.303-.02877,2.59652-.03836,3.88995-.01918,1.73419.03831,3.45878.0862,5.193.18205l.10544.00959a.97422.97422,0,0,1,.73771.40239v-9.035A27.74511,27.74511,0,0,1,241.21035,244.01289Zm-66.93394,110.4899c-.12456-1.236-.22994-2.41447-.31619-3.59293-1.58086.07666-3.16177.13415-4.74269.16286q-2.84557.05754-5.672-.02871l-5.68161-.18205c-1.69589-.05748-3.39171-.19163-5.0876-.32578l-.115,1.77255c-.06707.81437-.07666,1.62881-.10537,2.44318-.02878,1.46589-.00959,2.93183.06707,4.40731,1.29343-.09579,2.57728-.21076,3.842-.30661.20122-.02871.412-.0383.62279-.05748.20123-.00953.412-.0383.61321-.04789h.17246a.3925.3925,0,0,1,.10537-.00959c.115-.00954.23953-.00954.3545-.00954,1.59051-.07666,3.19054-.08625,4.82894-.00959,1.13057.02872,2.28026.0862,3.4396.16287.87192-.05749,1.74378-.115,2.61564-.14374l5.49-.17246Zm0,19.63178c-.12456-1.236-.22994-2.41441-.31619-3.58334-1.58086.06707-3.16177.13415-4.74269.15333-1.89705.0383-3.78451.0383-5.672-.02877l-.62274-.01918a31.56233,31.56233,0,0,1-5.21215-.06708c-.6228-.04789-1.236-.115-1.84921-.20117-1.02513-.05748-2.05992-.13415-3.08511-.21081l-.115,1.77255c-.06707.81437-.07666,1.62881-.10537,2.44318-.02878,1.46589-.00959,2.93183.06707,4.39772,1.715-.115,3.41089-.30655,5.078-.40239a49.34745,49.34745,0,0,1,5.46127-.03831c1.83957.05749,3.70791.17246,5.63367.30661,1.93541.14368,3.90913.3066,6.017.53654Zm11.34406-9.77279c-.1245-1.22636-.22994-2.41441-.30655-3.58334-1.58091.07666-3.17136.13415-4.75227.16292-1.88752.0383-3.78457.02871-5.672-.03836l-5.67209-.17246c-1.29343-.0383-2.57733-.13415-3.87076-.22994-.412.01918-.81438.03831-1.236.0479l-.10544,1.62881c-.01912.31619-.0383.64192-.04789.95811.03836.49824.09584.98683.17245,1.48507.115.81443.25871,1.62881.345,2.44318.04789.412.0766.83356.10538,1.2456,1.54255-.02877,3.09469-.03836,4.63724-.00959,1.88752.02871,3.78457.10538,5.67209.20117l.10538.00959a.92277.92277,0,0,1,.3928.10537c1.55214.06708,3.13306.16293,4.76186.2779,1.92583.14368,3.89954.3066,6.00741.52695Zm15.78978-107.00234c-.12456-1.22636-.22994-2.41442-.3066-3.58335-1.59051.07667-3.17136.13415-4.75228.16287-1.88746.03836-3.78457.02877-5.672-.03831l-5.672-.17245c-1.69589-.05749-3.4013-.19164-5.09719-.32579l-.115,1.77255c-.05749.81438-.07667,1.62881-.10538,2.44319-.01918,1.46594-.00959,2.93183.067,4.39777,1.72466-.115,3.41089-.297,5.07806-.40245a51.8424,51.8424,0,0,1,5.46122-.0383c.89109.02871,1.79167.06707,2.70189.12456,1.121-.08626,2.23242-.16287,3.3534-.20123l5.26964-.15327c.01918-.51742.03836-1.03478.04789-1.55214Zm11.35365,9.77279c-.13415-1.236-.22994-2.41447-.3162-3.59294-1.58085.07667-3.16177.13415-4.74262.16287-1.89711.03836-3.78457.03836-5.68162-.02872l-5.67209-.17245c-1.0156-.03836-2.0312-.10538-3.03721-.17245-.68981.02871-1.3701.06707-2.0695.08619l-.09585,1.52343c-.06707.81438-.07666,1.62881-.10538,2.44319-.02877,1.47547-.00959,2.94142.06708,4.4073,1.715-.115,3.4013-.3066,5.06841-.412a51.8599,51.8599,0,0,1,5.46127-.02871c1.83957.04789,3.71749.17245,5.64331.3066,1.93536.14368,3.90907.30655,6.00735.53654Zm11.34411-9.77279c-.12456-1.22636-.22994-2.41442-.31619-3.58335-1.58092.07667-3.16177.13415-4.74269.16287-1.88746.03836-3.78456.02877-5.672-.03831l-5.672-.17245c-1.58092-.0479-3.15224-.17246-4.72351-.297-.08625,1.50424-.20122,2.9989-.345,4.43607-.07661.78567-.16286,1.55215-.24912,2.29945.00959.38327.02877.76654.03836,1.14975,1.7629-.0479,3.51627-.05749,5.27923-.01912,1.88746.02871,3.775.10537,5.672.20116h.09578a1.04293,1.04293,0,0,1,.39286.115c1.56174.06708,3.14259.15333,4.76181.2683,1.82044.14368,3.68878.297,5.65291.49818.04789-.86227.07666-1.72459.08619-2.59645Zm11.59318-7.0709a23.6004,23.6004,0,0,0-.297-2.44319c-.13415-.81437-.27783-1.6288-.33531-2.44318-.03837-.45988-.05749-.92934-.08626-1.38928-1.533.06708-3.05639.12456-4.58935.15333q-2.83128.05746-5.672-.02877l-5.67209-.182c-1.69582-.05749-3.3917-.19164-5.08759-.32573l-.12456,1.77249c-.05748.81438-.0766,1.62881-.09579,2.44318-.02877,1.236-.00959,2.472.03831,3.70791,1.75337-.05749,3.51632-.05749,5.26963-.02872,1.88752.03831,3.78457.10538,5.67209.20117l.10538.00959a.9337.9337,0,0,1,.3928.115c.5749.01918,1.14975.03836,1.73419.07667.98688-.07667,1.97371-.15328,2.9606-.19164l5.20256-.17245c.20123-.00959.40239-.00959.60362-.00959C235.73,251.13168,235.72037,250.71011,235.70119,250.28854Zm9.15958,7.06131c-.12456-1.21677-.22994-2.3857-.31619-3.545-1.40841.06708-2.8264.115-4.23486.14369-1.73419.01918-3.46837.00959-5.193-.0479l-5.20256-.182c-.88145-.02872-1.77255-.0862-2.66359-.15327-.52695.01912-1.0539.04789-1.58085.06707-.08626,1.43717-.19164,2.86476-.33538,4.23485-.07661.78567-.16286,1.55215-.24912,2.29945.00959.61321.03836,1.236.06708,1.84921,1.56173-.115,3.08516-.3066,4.599-.40245a43.12933,43.12933,0,0,1,4.98215-.0383c1.6767.05748,3.39177.17245,5.15467.3066,1.77255.15327,3.58334.3162,5.53793.53654Zm-70.58436,97.15294c-.12456-1.236-.22994-2.41447-.31619-3.59293-1.58086.07666-3.16177.13415-4.74269.16286q-2.84557.05754-5.672-.02871l-5.68161-.18205c-1.69589-.05748-3.39171-.19163-5.0876-.32578l-.115,1.77255c-.06707.81437-.07666,1.62881-.10537,2.44318-.02878,1.46589-.00959,2.93183.06707,4.40731,1.29343-.09579,2.57728-.21076,3.842-.30661.20122-.02871.412-.0383.62279-.05748.20123-.00953.412-.0383.61321-.04789h.17246a.3925.3925,0,0,1,.10537-.00959c.115-.00954.23953-.00954.3545-.00954,1.59051-.07666,3.19054-.08625,4.82894-.00959,1.13057.02872,2.28026.0862,3.4396.16287.87192-.05749,1.74378-.115,2.61564-.14374l5.49-.17246Zm0,19.63178c-.12456-1.236-.22994-2.41441-.31619-3.58334-1.58086.06707-3.16177.13415-4.74269.15333-1.89705.0383-3.78451.0383-5.672-.02877l-.62274-.01918a31.56233,31.56233,0,0,1-5.21215-.06708c-.6228-.04789-1.236-.115-1.84921-.20117-1.02513-.05748-2.05992-.13415-3.08511-.21081l-.115,1.77255c-.06707.81437-.07666,1.62881-.10537,2.44318-.02878,1.46589-.00959,2.93183.06707,4.39772,1.715-.115,3.41089-.30655,5.078-.40239a49.34745,49.34745,0,0,1,5.46127-.03831c1.83957.05749,3.70791.17246,5.63367.30661,1.93541.14368,3.90913.3066,6.017.53654Zm11.34406-9.77279c-.1245-1.22636-.22994-2.41441-.30655-3.58334-1.58091.07666-3.17136.13415-4.75227.16292-1.88752.0383-3.78457.02871-5.672-.03836l-5.67209-.17246c-1.29343-.0383-2.57733-.13415-3.87076-.22994-.412.01918-.81438.03831-1.236.0479l-.10544,1.62881c-.01912.31619-.0383.64192-.04789.95811.03836.49824.09584.98683.17245,1.48507.115.81443.25871,1.62881.345,2.44318.04789.412.0766.83356.10538,1.2456,1.54255-.02877,3.09469-.03836,4.63724-.00959,1.88752.02871,3.78457.10538,5.67209.20117l.10538.00959a.92277.92277,0,0,1,.3928.10537c1.55214.06708,3.13306.16293,4.76186.2779,1.92583.14368,3.89954.3066,6.00741.52695Zm15.78978-107.00234c-.12456-1.22636-.22994-2.41442-.3066-3.58335-1.59051.07667-3.17136.13415-4.75228.16287-1.88746.03836-3.78457.02877-5.672-.03831l-5.672-.17245c-1.69589-.05749-3.4013-.19164-5.09719-.32579l-.115,1.77255c-.05749.81438-.07667,1.62881-.10538,2.44319-.01918,1.46594-.00959,2.93183.067,4.39777,1.72466-.115,3.41089-.297,5.07806-.40245a51.8424,51.8424,0,0,1,5.46122-.0383c.89109.02871,1.79167.06707,2.70189.12456,1.121-.08626,2.23242-.16287,3.3534-.20123l5.26964-.15327c.01918-.51742.03836-1.03478.04789-1.55214Zm11.35365,9.77279c-.13415-1.236-.22994-2.41447-.3162-3.59294-1.58085.07667-3.16177.13415-4.74262.16287-1.89711.03836-3.78457.03836-5.68162-.02872l-5.67209-.17245c-1.0156-.03836-2.0312-.10538-3.03721-.17245-.68981.02871-1.3701.06707-2.0695.08619l-.09585,1.52343c-.06707.81438-.07666,1.62881-.10538,2.44319-.02877,1.47547-.00959,2.94142.06708,4.4073,1.715-.115,3.4013-.3066,5.06841-.412a51.8599,51.8599,0,0,1,5.46127-.02871c1.83957.04789,3.71749.17245,5.64331.3066,1.93536.14368,3.90907.30655,6.00735.53654Zm10.271,182.5402c-.13415-1.236-.22994-2.41447-.3162-3.59293-1.58091.07666-3.16177.13415-4.75227.16286q-2.83119.05745-5.672-.02871l-5.672-.182c-1.69588-.05748-3.39176-.19163-5.08759-.32578l-.115,1.77249c-.06707.81443-.07666,1.62881-.10544,2.44324-.02871,1.46589-.00953,2.93183.06708,4.40731,1.71506-.12456,3.4013-.30661,5.06847-.412a49.41274,49.41274,0,0,1,5.46121-.02877c1.83962.048,3.71749.17252,5.64332.30661,1.82044.13415,3.67919.28742,5.64331.49824.05749-.86233.07667-1.73419.08626-2.59652Zm1.07308-192.313c-.12456-1.22636-.22994-2.41442-.31619-3.58335-1.58092.07667-3.16177.13415-4.74269.16287-1.88746.03836-3.78456.02877-5.672-.03831l-5.672-.17245c-1.58092-.0479-3.15224-.17246-4.72351-.297-.08625,1.50424-.20122,2.9989-.345,4.43607-.07661.78567-.16286,1.55215-.24912,2.29945.00959.38327.02877.76654.03836,1.14975,1.7629-.0479,3.51627-.05749,5.27923-.01912,1.88746.02871,3.775.10537,5.672.20116h.09578a1.04293,1.04293,0,0,1,.39286.115c1.56174.06708,3.14259.15333,4.76181.2683,1.82044.14368,3.68878.297,5.65291.49818.04789-.86227.07666-1.72459.08619-2.59645ZM234.379,439.708c-.12456-1.23594-.22994-2.41441-.31613-3.59293-1.58092.07667-3.16183.13415-4.74269.16286-1.88751.03837-3.78456.02878-5.67208-.02871l-5.672-.182c-1.70542-.05749-3.4013-.19164-5.09718-.32579l-.115,1.77255c-.05749.81438-.07667,1.62881-.10538,2.44318-.01918,1.303,0,2.60611.04789,3.89954,1.75337-.04789,3.50674-.05748,5.26005-.01918.642.00959,1.27431.02877,1.90664.04789,1.121-.01912,2.242-.01912,3.39177.03837,1.38928.0383,2.81686.12456,4.254.21075.60362-.02871,1.19765-.0766,1.80126-.09578l5.49958-.16287Zm1.32221-189.41946a23.6004,23.6004,0,0,0-.297-2.44319c-.13415-.81437-.27783-1.6288-.33531-2.44318-.03837-.45988-.05749-.92934-.08626-1.38928-1.533.06708-3.05639.12456-4.58935.15333q-2.83128.05746-5.672-.02877l-5.67209-.182c-1.69582-.05749-3.3917-.19164-5.08759-.32573l-.12456,1.77249c-.05748.81438-.0766,1.62881-.09579,2.44318-.02877,1.236-.00959,2.472.03831,3.70791,1.75337-.05749,3.51632-.05749,5.26963-.02872,1.88752.03831,3.78457.10538,5.67209.20117l.10538.00959a.9337.9337,0,0,1,.3928.115c.5749.01918,1.14975.03836,1.73419.07667.98688-.07667,1.97371-.15328,2.9606-.19164l5.20256-.17245c.20123-.00959.40239-.00959.60362-.00959C235.73,251.13168,235.72037,250.71011,235.70119,250.28854Zm9.15958,7.06131c-.12456-1.21677-.22994-2.3857-.31619-3.545-1.40841.06708-2.8264.115-4.23486.14369-1.73419.01918-3.46837.00959-5.193-.0479l-5.20256-.182c-.88145-.02872-1.77255-.0862-2.66359-.15327-.52695.01912-1.0539.04789-1.58085.06707-.08626,1.43717-.19164,2.86476-.33538,4.23485-.07661.78567-.16286,1.55215-.24912,2.29945.00959.61321.03836,1.236.06708,1.84921,1.56173-.115,3.08516-.3066,4.599-.40245a43.12933,43.12933,0,0,1,4.98215-.0383c1.6767.05748,3.39177.17245,5.15467.3066,1.77255.15327,3.58334.3162,5.53793.53654Zm.87192,192.32258c-.13415-1.236-.23-2.41447-.3162-3.59293-1.58091.07666-3.16177.13415-4.75227.16286q-2.83119.05745-5.672-.02871l-5.672-.182c-1.56173-.048-3.133-.17251-4.69479-.28748h-.01918c-.0862,1.50425-.20116,2.99891-.34491,4.43608q-.12928,1.17849-.25865,2.2995c.00954.61321.03831,1.22636.07661,1.84916,1.71506-.12456,3.4013-.30661,5.06847-.412a49.41275,49.41275,0,0,1,5.46121-.02877c1.83963.048,3.71749.17252,5.64332.30661,1.92582.14374,3.89953.3066,6.0074.52695Zm.61315-355.84416H151.87566V349.30982a.58557.58557,0,0,1,.22994-.06707h.08626c1.89705-.14375,3.78457-.30661,5.672-.37368l5.68161-.17246c1.88752-.06707,3.775-.06707,5.672-.02871,1.88752.02871,3.78457.10538,5.67209.20117h.10538a.96314.96314,0,0,1,.90063.95811v.03836c-.09585,1.75331-.22994,3.47791-.39286,5.14508-.1245,1.236-.26824,2.40482-.3928,3.545,1.81085-.05748,3.63123-.05748,5.45168-.02871q2.84557.05745,5.672.20122l.10538.00954a.94567.94567,0,0,1,.90063.939v.05748c-.08619,1.74378-.22034,3.478-.3928,5.13549-.16286,1.65752-.3545,3.23843-.52695,4.71391-1.6767.22994-3.48755.39286-5.33671.53654-1.6767.12456-3.4013.22041-5.14508.28743-.08625,1.43717-.20122,2.86481-.33537,4.23491-.17246,1.65752-.364,3.23843-.53654,4.71391-1.67671.22035-3.4875.38327-5.33666.52695s-3.76544.25871-5.71039.3162c-1.92582.07666-3.90913.07666-5.88284-.03831s-3.92825-.32578-5.84448-.44075h-.0479a.39317.39317,0,0,1-.2683-.12456v75.21208H200.5c.10538-1.62881.115-3.25762.08626-4.88637-.02878-.81443-.03837-1.62881-.10544-2.44324l-.16286-2.44319a.5936.5936,0,0,1,.54613-.62274h.0862c1.88751-.14374,3.78456-.3066,5.67208-.37367l5.26005-.16287c.05748-1.30308.07666-2.6061.04789-3.91872-.01918-.81437-.0383-1.6288-.09579-2.44318l-.16292-2.44318a.59288.59288,0,0,1,.53654-.6228h.08626c1.89705-.14374,3.78457-.30661,5.68162-.37368l5.672-.17245c1.88752-.06708,3.78457-.06708,5.67208-.02872,1.88746.02872,3.78457.10538,5.672.20117h.10538a.96144.96144,0,0,1,.90063.94852v.048c-.09579,1.75331-.22035,3.478-.3928,5.14507-.12456,1.27426-.2683,2.48149-.412,3.65042,1.83-.05748,3.65041-.06707,5.4708-.02877,1.89711.02877,3.78457.10538,5.68162.20123V310.59234c-2.68271.21081-5.36543.33537-8.05773.40245v.08619c-.68028.00959-1.36051,0-2.04079,0a7.88322,7.88322,0,0,1,.33532,2.33781,7.22541,7.22541,0,0,1-.50777,2.836,7.23782,7.23782,0,0,1-.51736-2.836,7.88321,7.88321,0,0,1,.33531-2.33781c-.68028,0-1.36051.00959-2.04079,0v-.08619c-2.71148-.06708-5.4325-.19164-8.144-.412,2.71148-.2204,5.4325-.345,8.144-.42157v-.07666c1.47548-.01919,2.9606-.01919,4.43608,0v.07666c2.6923.07661,5.375.20117,8.05773.412v-54.9096q-.10053,1.12095-.20117,2.21325c-.182,1.65752-.38327,3.23843-.56531,4.70432-1.51384.22035-3.16177.38327-4.85766.53654-1.69582.13415-3.4396.24912-5.23127.3066a50.91879,50.91879,0,0,1-5.40379-.0383c-1.82044-.10544-3.61211-.32578-5.36542-.44075h-.05754a.39915.39915,0,0,1-.364-.30661c-1.54261.19164-3.16183.34491-4.82894.47906-1.67671.115-3.4013.22035-5.15467.27789-.0862,1.44671-.19163,2.87435-.32573,4.24445-.17245,1.65752-.36408,3.23843-.53654,4.71391-1.6767.22035-3.48755.38327-5.33671.52695-1.85875.13415-3.76539.25871-5.71039.3066a57.41432,57.41432,0,0,1-5.88284-.02877c-1.97372-.115-3.92825-.32572-5.84449-.44069l-.05748-.00959a.42016.42016,0,0,1-.3928-.42158v-.01918c.10538-1.62875.115-3.25756.0862-4.88636-.02872-.81438-.03831-1.62881-.10538-2.44319l-.09585-1.49466c-1.62875.03831-3.28633.03831-4.94385-.05748-1.97372-.10544-3.92825-.32578-5.84448-.44075h-.048a.418.418,0,0,1-.39281-.412v-.02877c.09579-1.62875.115-3.25756.07667-4.88636-.01918-.81438-.03836-1.62881-.09585-2.44319l-.16286-2.44318a.5928.5928,0,0,1,.53654-.6228l.08626-.00959c1.897-.14368,3.78451-.3066,5.68162-.36409l5.672-.17245c1.88746-.06708,3.78457-.07667,5.672-.03831s3.78457.10538,5.67209.20117l.10538.00959a.9764.9764,0,0,1,.6611.30661c1.63834-.12456,3.27674-.24912,4.91514-.30661l5.26963-.16286c.03831-1.24554.05749-2.48155.03831-3.72709-.02872-.81437-.0479-1.6288-.10538-2.44318l-.16286-2.44318a.59278.59278,0,0,1,.53654-.6228h.09579c1.88746-.14368,3.78456-.3066,5.672-.37368l5.67209-.17245c1.89705-.06708,3.78451-.06708,5.672-.02872,1.70541.02872,3.4013.0862,5.09718.17246a1.11976,1.11976,0,0,1,.43111-.12456l.15333-.00959a29.69133,29.69133,0,0,1,5.13548.10538,28.55783,28.55783,0,0,1,5.13549.939ZM174.995,193.6927v.0862c-.68029.00959-1.3701,0-2.05038,0a8.17353,8.17353,0,0,1,.3449,2.3378,7.2691,7.2691,0,0,1-.51736,2.83605,7.2691,7.2691,0,0,1-.51736-2.836,8.17319,8.17319,0,0,1,.34491-2.3378h-2.05038v-.0862c-2.71149-.07667-5.42291-.19163-8.1344-.412,2.71149-.22994,5.42291-.34491,8.1344-.42157v-.0862c1.48506-.00959,2.9606-.00959,4.44567,0v.0862c2.71148.07666,5.42291.20122,8.13439.42157C180.41791,193.50107,177.70648,193.616,174.995,193.6927Zm37.26113-65.59261c-.08626,1.74377-.22041,3.478-.38327,5.13548-.17246,1.65752-.36409,3.23844-.53655,4.71391-1.6767.22041-3.48755.38327-5.33671.53655-1.6767.115-3.40129.2204-5.14507.27789-.0862,1.44676-.19164,2.87434-.33532,4.24444-.16292,1.65752-.36409,3.23844-.527,4.71391-1.6767.22041-3.4875.38327-5.33665.527-1.85875.13415-3.76545.25871-5.71039.3066a57.60608,57.60608,0,0,1-5.89244-.02871c-1.97371-.115-3.92825-.32579-5.84448-.44076l-.04789-.00959a.4114.4114,0,0,1-.39286-.412v-.02871c.09584-1.62881.115-3.25762.07666-4.88643-.01918-.81437-.0383-1.62881-.09579-2.44318l-.10543-1.49466c-1.62875.0383-3.27674.0383-4.93426-.05748-1.97372-.10538-3.92831-.32579-5.84454-.44076h-.05749a.42389.42389,0,0,1-.3928-.44069v-.00959c.10538-1.61922.115-3.248.0862-4.87684-.02871-.81437-.0383-1.62881-.10538-2.44318l-.15327-2.44318a.57922.57922,0,0,1,.53654-.6228l.0862-.00959c1.88752-.14369,3.78457-.30655,5.67208-.364l5.672-.17252c1.89705-.067,3.78457-.0766,5.68162-.0383q2.83128.05745,5.672.20123l.10544.00959a.95337.95337,0,0,1,.65151.30654c1.63834-.12456,3.27674-.24906,4.91513-.30654l5.672-.17252c1.89705-.067,3.78457-.0766,5.68162-.0383q2.83128.05745,5.672.20123l.09585.00959a.94562.94562,0,0,1,.90063.93893Zm17.4952,133.51338a43.12933,43.12933,0,0,1,4.98215-.0383c1.6767.05748,3.39177.17245,5.15467.3066,1.77255.15327,3.58334.3162,5.53793.53654l-.56531-5.06846c-.12456-1.21677-.22994-2.3857-.31619-3.545-1.40841.06708-2.8264.115-4.23486.14369-1.73419.01918-3.46837.00959-5.193-.0479l-5.20256-.182c-.88145-.02872-1.77255-.0862-2.66359-.15327-.52695.01912-1.0539.04789-1.58085.06707-.08626,1.43717-.19164,2.86476-.33538,4.23485-.07661.78567-.16286,1.55215-.24912,2.29945.00959.61321.03836,1.236.06708,1.84921C226.71406,261.90089,228.23749,261.70932,229.75133,261.61347Zm-4.92473-9.87817a.9337.9337,0,0,1,.3928.115c.5749.01918,1.14975.03836,1.73419.07667.98688-.07667,1.97371-.15328,2.9606-.19164l5.20256-.17245c.20123-.00959.40239-.00959.60362-.00959.00959-.42158,0-.84315-.01918-1.26472a23.6004,23.6004,0,0,0-.297-2.44319c-.13415-.81437-.27783-1.6288-.33531-2.44318-.03837-.45988-.05749-.92934-.08626-1.38928-1.533.06708-3.05639.12456-4.58935.15333q-2.83128.05746-5.672-.02877l-5.67209-.182c-1.69582-.05749-3.3917-.19164-5.08759-.32573l-.12456,1.77249c-.05748.81438-.0766,1.62881-.09579,2.44318-.02877,1.236-.00959,2.472.03831,3.70791,1.75337-.05749,3.51632-.05749,5.26963-.02872,1.88752.03831,3.78457.10538,5.67209.20117Zm-11.35371,9.7632a1.04293,1.04293,0,0,1,.39286.115c1.56174.06708,3.14259.15333,4.76181.2683,1.82044.14368,3.68878.297,5.65291.49818.04789-.86227.07666-1.72459.08619-2.59645l-.25865-2.42406c-.12456-1.22636-.22994-2.41442-.31619-3.58335-1.58092.07667-3.16177.13415-4.74269.16287-1.88746.03836-3.78456.02877-5.672-.03831l-5.672-.17245c-1.58092-.0479-3.15224-.17246-4.72351-.297-.08625,1.50424-.20122,2.9989-.345,4.43607-.07661.78567-.16286,1.55215-.24912,2.29945.00959.38327.02877.76654.03836,1.14975,1.7629-.0479,3.51627-.05749,5.27923-.01912,1.88746.02871,3.775.10537,5.672.20116Zm-17.294,9.87817a51.8599,51.8599,0,0,1,5.46127-.02871c1.83957.04789,3.71749.17245,5.64331.3066,1.93536.14368,3.90907.30655,6.00735.53654l-.52695-5.05887c-.13415-1.236-.22994-2.41447-.3162-3.59294-1.58085.07667-3.16177.13415-4.74262.16287-1.89711.03836-3.78457.03836-5.68162-.02872l-5.67209-.17245c-1.0156-.03836-2.0312-.10538-3.03721-.17245-.68981.02871-1.3701.06707-2.0695.08619l-.09585,1.52343c-.06707.81438-.07666,1.62881-.10538,2.44319-.02877,1.47547-.00959,2.94142.06708,4.4073C192.82551,271.67369,194.51181,271.48205,196.17892,271.37667Zm.17245-9.87817,5.26964-.15327c.01918-.51742.03836-1.03478.04789-1.55214l-.25865-2.43365c-.12456-1.22636-.22994-2.41442-.3066-3.58335-1.59051.07667-3.17136.13415-4.75228.16287-1.88746.03836-3.78457.02877-5.672-.03831l-5.672-.17245c-1.69589-.05749-3.4013-.19164-5.09719-.32579l-.115,1.77255c-.05749.81438-.07667,1.62881-.10538,2.44319-.01918,1.46594-.00959,2.93183.067,4.39777,1.72466-.115,3.41089-.297,5.07806-.40245a51.8424,51.8424,0,0,1,5.46122-.0383c.89109.02871,1.79167.06707,2.70189.12456C194.119,261.61347,195.23039,261.53686,196.35137,261.4985Zm-31.0046,99.0021c-.412.01918-.81438.03831-1.236.0479l-.10544,1.62881c-.01912.31619-.0383.64192-.04789.95811.03836.49824.09584.98683.17245,1.48507.115.81443.25871,1.62881.345,2.44318.04789.412.0766.83356.10538,1.2456,1.54255-.02877,3.09469-.03836,4.63724-.00959,1.88752.02871,3.78457.10538,5.67209.20117l.10538.00959a.92277.92277,0,0,1,.3928.10537c1.55214.06708,3.13306.16293,4.76186.2779,1.92583.14368,3.89954.3066,6.00741.52695l-.5366-5.05888c-.1245-1.22636-.22994-2.41441-.30655-3.58334-1.58091.07666-3.17136.13415-4.75227.16292-1.88752.0383-3.78457.02871-5.672-.03836l-5.67209-.17246C167.9241,360.69224,166.6402,360.59639,165.34677,360.5006ZM152.623,378.791c1.715-.115,3.41089-.30655,5.078-.40239a49.34745,49.34745,0,0,1,5.46127-.03831c1.83957.05749,3.70791.17246,5.63367.30661,1.93541.14368,3.90913.3066,6.017.53654l-.53654-5.05888c-.12456-1.236-.22994-2.41441-.31619-3.58334-1.58086.06707-3.16177.13415-4.74269.15333-1.89705.0383-3.78451.0383-5.672-.02877l-.62274-.01918a31.56233,31.56233,0,0,1-5.21215-.06708c-.6228-.04789-1.236-.115-1.84921-.20117-1.02513-.05748-2.05992-.13415-3.08511-.21081l-.115,1.77255c-.06707.81437-.07666,1.62881-.10537,2.44318C152.52717,375.85917,152.54636,377.32511,152.623,378.791Zm21.3372-27.88114c-1.58086.07666-3.16177.13415-4.74269.16286q-2.84557.05754-5.672-.02871l-5.68161-.18205c-1.69589-.05748-3.39171-.19163-5.0876-.32578l-.115,1.77255c-.06707.81437-.07666,1.62881-.10537,2.44318-.02878,1.46589-.00959,2.93183.06707,4.40731,1.29343-.09579,2.57728-.21076,3.842-.30661.20122-.02871.412-.0383.62279-.05748.20123-.00953.412-.0383.61321-.04789h.17246a.3925.3925,0,0,1,.10537-.00959c.115-.00954.23953-.00954.3545-.00954,1.59051-.07666,3.19054-.08625,4.82894-.00959,1.13057.02872,2.28026.0862,3.4396.16287.87192-.05749,1.74378-.115,2.61564-.14374l5.49-.17246-.43116-4.0624C174.15185,353.26684,174.04647,352.08832,173.96022,350.90986Zm70.90055-93.56c-.12456-1.21677-.22994-2.3857-.31619-3.545-1.40841.06708-2.8264.115-4.23486.14369-1.73419.01918-3.46837.00959-5.193-.0479l-5.20256-.182c-.88145-.02872-1.77255-.0862-2.66359-.15327-.52695.01912-1.0539.04789-1.58085.06707-.08626,1.43717-.19164,2.86476-.33538,4.23485-.07661.78567-.16286,1.55215-.24912,2.29945.00959.61321.03836,1.236.06708,1.84921,1.56173-.115,3.08516-.3066,4.599-.40245a43.12933,43.12933,0,0,1,4.98215-.0383c1.6767.05748,3.39177.17245,5.15467.3066,1.77255.15327,3.58334.3162,5.53793.53654Zm-9.15958-7.06131a23.6004,23.6004,0,0,0-.297-2.44319c-.13415-.81437-.27783-1.6288-.33531-2.44318-.03837-.45988-.05749-.92934-.08626-1.38928-1.533.06708-3.05639.12456-4.58935.15333q-2.83128.05746-5.672-.02877l-5.67209-.182c-1.69582-.05749-3.3917-.19164-5.08759-.32573l-.12456,1.77249c-.05748.81438-.0766,1.62881-.09579,2.44318-.02877,1.236-.00959,2.472.03831,3.70791,1.75337-.05749,3.51632-.05749,5.26963-.02872,1.88752.03831,3.78457.10538,5.67209.20117l.10538.00959a.9337.9337,0,0,1,.3928.115c.5749.01918,1.14975.03836,1.73419.07667.98688-.07667,1.97371-.15328,2.9606-.19164l5.20256-.17245c.20123-.00959.40239-.00959.60362-.00959C235.73,251.13168,235.72037,250.71011,235.70119,250.28854Zm-11.59318,7.0709c-.12456-1.22636-.22994-2.41442-.31619-3.58335-1.58092.07667-3.16177.13415-4.74269.16287-1.88746.03836-3.78456.02877-5.672-.03831l-5.672-.17245c-1.58092-.0479-3.15224-.17246-4.72351-.297-.08625,1.50424-.20122,2.9989-.345,4.43607-.07661.78567-.16286,1.55215-.24912,2.29945.00959.38327.02877.76654.03836,1.14975,1.7629-.0479,3.51627-.05749,5.27923-.01912,1.88746.02871,3.775.10537,5.672.20116h.09578a1.04293,1.04293,0,0,1,.39286.115c1.56174.06708,3.14259.15333,4.76181.2683,1.82044.14368,3.68878.297,5.65291.49818.04789-.86227.07666-1.72459.08619-2.59645Zm-11.34411,9.77279c-.13415-1.236-.22994-2.41447-.3162-3.59294-1.58085.07667-3.16177.13415-4.74262.16287-1.89711.03836-3.78457.03836-5.68162-.02872l-5.67209-.17245c-1.0156-.03836-2.0312-.10538-3.03721-.17245-.68981.02871-1.3701.06707-2.0695.08619l-.09585,1.52343c-.06707.81438-.07666,1.62881-.10538,2.44319-.02877,1.47547-.00959,2.94142.06708,4.4073,1.715-.115,3.4013-.3066,5.06841-.412a51.8599,51.8599,0,0,1,5.46127-.02871c1.83957.04789,3.71749.17245,5.64331.3066,1.93536.14368,3.90907.30655,6.00735.53654Zm-11.35365-9.77279c-.12456-1.22636-.22994-2.41442-.3066-3.58335-1.59051.07667-3.17136.13415-4.75228.16287-1.88746.03836-3.78457.02877-5.672-.03831l-5.672-.17245c-1.69589-.05749-3.4013-.19164-5.09719-.32579l-.115,1.77255c-.05749.81438-.07667,1.62881-.10538,2.44319-.01918,1.46594-.00959,2.93183.067,4.39777,1.72466-.115,3.41089-.297,5.07806-.40245a51.8424,51.8424,0,0,1,5.46122-.0383c.89109.02871,1.79167.06707,2.70189.12456,1.121-.08626,2.23242-.16287,3.3534-.20123l5.26964-.15327c.01918-.51742.03836-1.03478.04789-1.55214ZM185.62047,364.36178c-.1245-1.22636-.22994-2.41441-.30655-3.58334-1.58091.07666-3.17136.13415-4.75227.16292-1.88752.0383-3.78457.02871-5.672-.03836l-5.67209-.17246c-1.29343-.0383-2.57733-.13415-3.87076-.22994-.412.01918-.81438.03831-1.236.0479l-.10544,1.62881c-.01912.31619-.0383.64192-.04789.95811.03836.49824.09584.98683.17245,1.48507.115.81443.25871,1.62881.345,2.44318.04789.412.0766.83356.10538,1.2456,1.54255-.02877,3.09469-.03836,4.63724-.00959,1.88752.02871,3.78457.10538,5.67209.20117l.10538.00959a.92277.92277,0,0,1,.3928.10537c1.55214.06708,3.13306.16293,4.76186.2779,1.92583.14368,3.89954.3066,6.00741.52695Zm-11.34406,9.77279c-.12456-1.236-.22994-2.41441-.31619-3.58334-1.58086.06707-3.16177.13415-4.74269.15333-1.89705.0383-3.78451.0383-5.672-.02877l-.62274-.01918a31.56233,31.56233,0,0,1-5.21215-.06708c-.6228-.04789-1.236-.115-1.84921-.20117-1.02513-.05748-2.05992-.13415-3.08511-.21081l-.115,1.77255c-.06707.81437-.07666,1.62881-.10537,2.44318-.02878,1.46589-.00959,2.93183.06707,4.39772,1.715-.115,3.41089-.30655,5.078-.40239a49.34745,49.34745,0,0,1,5.46127-.03831c1.83957.05749,3.70791.17246,5.63367.30661,1.93541.14368,3.90913.3066,6.017.53654Zm0-19.63178c-.12456-1.236-.22994-2.41447-.31619-3.59293-1.58086.07666-3.16177.13415-4.74269.16286q-2.84557.05754-5.672-.02871l-5.68161-.18205c-1.69589-.05748-3.39171-.19163-5.0876-.32578l-.115,1.77255c-.06707.81437-.07666,1.62881-.10537,2.44318-.02878,1.46589-.00959,2.93183.06707,4.40731,1.29343-.09579,2.57728-.21076,3.842-.30661.20122-.02871.412-.0383.62279-.05748.20123-.00953.412-.0383.61321-.04789h.17246a.3925.3925,0,0,1,.10537-.00959c.115-.00954.23953-.00954.3545-.00954,1.59051-.07666,3.19054-.08625,4.82894-.00959,1.13057.02872,2.28026.0862,3.4396.16287.87192-.05749,1.74378-.115,2.61564-.14374l5.49-.17246Zm70.58436-97.15294c-.12456-1.21677-.22994-2.3857-.31619-3.545-1.40841.06708-2.8264.115-4.23486.14369-1.73419.01918-3.46837.00959-5.193-.0479l-5.20256-.182c-.88145-.02872-1.77255-.0862-2.66359-.15327-.52695.01912-1.0539.04789-1.58085.06707-.08626,1.43717-.19164,2.86476-.33538,4.23485-.07661.78567-.16286,1.55215-.24912,2.29945.00959.61321.03836,1.236.06708,1.84921,1.56173-.115,3.08516-.3066,4.599-.40245a43.12933,43.12933,0,0,1,4.98215-.0383c1.6767.05748,3.39177.17245,5.15467.3066,1.77255.15327,3.58334.3162,5.53793.53654Zm-9.15958-7.06131a23.6004,23.6004,0,0,0-.297-2.44319c-.13415-.81437-.27783-1.6288-.33531-2.44318-.03837-.45988-.05749-.92934-.08626-1.38928-1.533.06708-3.05639.12456-4.58935.15333q-2.83128.05746-5.672-.02877l-5.67209-.182c-1.69582-.05749-3.3917-.19164-5.08759-.32573l-.12456,1.77249c-.05748.81438-.0766,1.62881-.09579,2.44318-.02877,1.236-.00959,2.472.03831,3.70791,1.75337-.05749,3.51632-.05749,5.26963-.02872,1.88752.03831,3.78457.10538,5.67209.20117l.10538.00959a.9337.9337,0,0,1,.3928.115c.5749.01918,1.14975.03836,1.73419.07667.98688-.07667,1.97371-.15328,2.9606-.19164l5.20256-.17245c.20123-.00959.40239-.00959.60362-.00959C235.73,251.13168,235.72037,250.71011,235.70119,250.28854Zm-11.59318,7.0709c-.12456-1.22636-.22994-2.41442-.31619-3.58335-1.58092.07667-3.16177.13415-4.74269.16287-1.88746.03836-3.78456.02877-5.672-.03831l-5.672-.17245c-1.58092-.0479-3.15224-.17246-4.72351-.297-.08625,1.50424-.20122,2.9989-.345,4.43607-.07661.78567-.16286,1.55215-.24912,2.29945.00959.38327.02877.76654.03836,1.14975,1.7629-.0479,3.51627-.05749,5.27923-.01912,1.88746.02871,3.775.10537,5.672.20116h.09578a1.04293,1.04293,0,0,1,.39286.115c1.56174.06708,3.14259.15333,4.76181.2683,1.82044.14368,3.68878.297,5.65291.49818.04789-.86227.07666-1.72459.08619-2.59645Zm-11.34411,9.77279c-.13415-1.236-.22994-2.41447-.3162-3.59294-1.58085.07667-3.16177.13415-4.74262.16287-1.89711.03836-3.78457.03836-5.68162-.02872l-5.67209-.17245c-1.0156-.03836-2.0312-.10538-3.03721-.17245-.68981.02871-1.3701.06707-2.0695.08619l-.09585,1.52343c-.06707.81438-.07666,1.62881-.10538,2.44319-.02877,1.47547-.00959,2.94142.06708,4.4073,1.715-.115,3.4013-.3066,5.06841-.412a51.8599,51.8599,0,0,1,5.46127-.02871c1.83957.04789,3.71749.17245,5.64331.3066,1.93536.14368,3.90907.30655,6.00735.53654Zm-11.35365-9.77279c-.12456-1.22636-.22994-2.41442-.3066-3.58335-1.59051.07667-3.17136.13415-4.75228.16287-1.88746.03836-3.78457.02877-5.672-.03831l-5.672-.17245c-1.69589-.05749-3.4013-.19164-5.09719-.32579l-.115,1.77255c-.05749.81438-.07667,1.62881-.10538,2.44319-.01918,1.46594-.00959,2.93183.067,4.39777,1.72466-.115,3.41089-.297,5.07806-.40245a51.8424,51.8424,0,0,1,5.46122-.0383c.89109.02871,1.79167.06707,2.70189.12456,1.121-.08626,2.23242-.16287,3.3534-.20123l5.26964-.15327c.01918-.51742.03836-1.03478.04789-1.55214ZM185.62047,364.36178c-.1245-1.22636-.22994-2.41441-.30655-3.58334-1.58091.07666-3.17136.13415-4.75227.16292-1.88752.0383-3.78457.02871-5.672-.03836l-5.67209-.17246c-1.29343-.0383-2.57733-.13415-3.87076-.22994-.412.01918-.81438.03831-1.236.0479l-.10544,1.62881c-.01912.31619-.0383.64192-.04789.95811.03836.49824.09584.98683.17245,1.48507.115.81443.25871,1.62881.345,2.44318.04789.412.0766.83356.10538,1.2456,1.54255-.02877,3.09469-.03836,4.63724-.00959,1.88752.02871,3.78457.10538,5.67209.20117l.10538.00959a.92277.92277,0,0,1,.3928.10537c1.55214.06708,3.13306.16293,4.76186.2779,1.92583.14368,3.89954.3066,6.00741.52695Zm-11.34406,9.77279c-.12456-1.236-.22994-2.41441-.31619-3.58334-1.58086.06707-3.16177.13415-4.74269.15333-1.89705.0383-3.78451.0383-5.672-.02877l-.62274-.01918a31.56233,31.56233,0,0,1-5.21215-.06708c-.6228-.04789-1.236-.115-1.84921-.20117-1.02513-.05748-2.05992-.13415-3.08511-.21081l-.115,1.77255c-.06707.81437-.07666,1.62881-.10537,2.44318-.02878,1.46589-.00959,2.93183.06707,4.39772,1.715-.115,3.41089-.30655,5.078-.40239a49.34745,49.34745,0,0,1,5.46127-.03831c1.83957.05749,3.70791.17246,5.63367.30661,1.93541.14368,3.90913.3066,6.017.53654Zm0-19.63178c-.12456-1.236-.22994-2.41447-.31619-3.59293-1.58086.07666-3.16177.13415-4.74269.16286q-2.84557.05754-5.672-.02871l-5.68161-.18205c-1.69589-.05748-3.39171-.19163-5.0876-.32578l-.115,1.77255c-.06707.81437-.07666,1.62881-.10537,2.44318-.02878,1.46589-.00959,2.93183.06707,4.40731,1.29343-.09579,2.57728-.21076,3.842-.30661.20122-.02871.412-.0383.62279-.05748.20123-.00953.412-.0383.61321-.04789h.17246a.3925.3925,0,0,1,.10537-.00959c.115-.00954.23953-.00954.3545-.00954,1.59051-.07666,3.19054-.08625,4.82894-.00959,1.13057.02872,2.28026.0862,3.4396.16287.87192-.05749,1.74378-.115,2.61564-.14374l5.49-.17246ZM163.076,362.17731l-.10538-1.6c-.6228.01912-1.24554.0383-1.87793.0383-.10538.01918-.22035.03831-.33532.0479a14.94744,14.94744,0,0,1-2.77856.06707,27.4714,27.4714,0,0,1-2.77855-.25871c-.47906-.07661-.96765-.16286-1.44671-.26824-.51742-.0383-1.04437-.08626-1.56173-.115l-.0479-.00959a.3842.3842,0,0,1-.2683-.115v8.98713a.58557.58557,0,0,1,.22994-.06707l.08626-.0096c1.22635-.08619,2.44318-.182,3.66954-.25871.61321-.0766,1.22641-.15327,1.84921-.20116a31.96773,31.96773,0,0,1,4.79058-.08626c.02871-.42157.05749-.84314.10538-1.26472.0862-.81437.22994-1.62875.34491-2.44318.07666-.49824.13415-.98683.17245-1.48507C163.11434,362.81923,163.09522,362.4935,163.076,362.17731Z"/><path d="M246.34174,454.8054c6.13606-.71122,12.27574-1.11829,18.41671-1.41823,3.07014-.17871,6.14161-.24689,9.21245-.36707l9.21449-.195,9.21643-.02889c3.07288.04935,6.14506.04011,9.21859.1469,6.14635.15263,12.294.41479,18.44536.98338-6.13606.71507-12.27568,1.12372-18.41671,1.42284-3.07007.18-6.14161.244-9.21239.3666l-9.21455.19088-9.21654.02468c-3.07283-.0469-6.14506-.04187-9.21859-.14731C258.64064,455.63065,252.493,455.37013,246.34174,454.8054Z"/><path d="M246.34584,252.109v3.55463c.07666-.95811.14374-1.945.19163-2.93183A.946.946,0,0,0,246.34584,252.109Zm0-9.265v.22994a.1217.1217,0,0,0,.07666-.07667A.12552.12552,0,0,0,246.34584,242.844Z" fill="#fff"/><path d="M151.56906,369.50691l.15333,2.44319c.067.81437.07661,1.62881.10538,2.44318.02871,1.61922.01912,3.248-.08626,4.87678v.01918a.39839.39839,0,0,0,.13415.3066V368.95119A.56915.56915,0,0,0,151.56906,369.50691Zm0-19.64137.15333,2.44319c.067.81437.07661,1.62881.10538,2.44318.02871,1.62881.01912,3.25762-.08626,4.88637v.01918a.41328.41328,0,0,0,.13415.3066V349.30982A.58684.58684,0,0,0,151.56906,349.86554Z" fill="#fff"/><path d="M246.43209,310.5828a.26647.26647,0,0,0-.08625.00954v-.01913A.26515.26515,0,0,0,246.43209,310.5828Z" fill="#fff"/></svg>