<svg id="Layer_1" data-name="Layer 1" xmlns="http://www.w3.org/2000/svg" viewBox="0 0 700 550"><title>riding scooter</title><path d="M212.25883,314.23337a1.43875,1.43875,0,0,0,0-2.87577,1.43875,1.43875,0,0,0,0,2.87577Z" fill="#fff"/><path d="M218.70056,315.61374a1.43875,1.43875,0,0,0,0-2.87577,1.43875,1.43875,0,0,0,0,2.87577Z" fill="#fff"/><path d="M358.28035,396.89946a85.77713,85.77713,0,0,1-2.01354,8.759,75.91957,75.91957,0,0,1-2.90856,8.4745,54.34243,54.34243,0,0,1-9.1604,15.43514,37.30171,37.30171,0,0,1-3.21185,3.2136,29.69212,29.69212,0,0,1-3.67554,2.71323,20.09191,20.09191,0,0,1-8.65746,2.99221,18.97085,18.97085,0,0,1-9.04731-1.49061,25.47428,25.47428,0,0,1-7.52749-5.115,48.60723,48.60723,0,0,1-10.0483-14.84387,86.24167,86.24167,0,0,1-3.33031-8.31188c-.9504-2.82982-1.73759-5.70731-2.47992-8.595a132.16566,132.16566,0,0,1-3.48243-35.5273.59559.59559,0,0,1,.89012-.49874l.01554.00911c5.00236,2.88345,10.21513,5.40612,15.47159,7.81851a.737.737,0,0,1,.42958.67691l-.00023.00712a87.69528,87.69528,0,0,0,1.92755,19.88047,59.43528,59.43528,0,0,0,2.88216,9.51007,26.68777,26.68777,0,0,0,5.06545,8.30148,9.76928,9.76928,0,0,0,3.84844,2.539,6.49653,6.49653,0,0,0,4.39544-.161,10.698,10.698,0,0,0,3.76912-2.75774,22.26693,22.26693,0,0,0,2.863-3.94635,44.38468,44.38468,0,0,0,3.79143-9.17267,73.44284,73.44284,0,0,0,2.20853-9.77013l.002-.01215a.45717.45717,0,0,1,.52339-.37981.46506.46506,0,0,1,.15713.05573C346.84448,390.09513,352.5859,393.55851,358.28035,396.89946Zm-.146.06635c-5.9433-3.21173-11.83975-6.301-17.61049-9.46182l.68227-.33611c-.88509,6.69567-2.43423,13.41821-5.70029,19.49855a23.668,23.668,0,0,1-2.98158,4.26237,12.17952,12.17952,0,0,1-4.26938,3.21314,7.91613,7.91613,0,0,1-5.481.24522,11.36855,11.36855,0,0,1-4.52149-2.93146,28.25309,28.25309,0,0,1-5.447-8.8091,56.20456,56.20456,0,0,1-2.97749-9.7935,89.26893,89.26893,0,0,1-1.76376-20.26133l.42923.6838c-5.26792-2.47057-10.45218-5.135-15.46038-8.12554l.90542-.48962a120.90974,120.90974,0,0,0,2.77105,35.35124,82.537,82.537,0,0,0,5.928,16.73533A47.89483,47.89483,0,0,0,312.882,431.02014a26.33542,26.33542,0,0,0,7.24815,4.72817,17.57191,17.57191,0,0,0,8.39167,1.31245,19.27452,19.27452,0,0,0,8.08337-2.73063,28.34328,28.34328,0,0,0,3.52354-2.54312,35.99527,35.99527,0,0,0,3.1254-3.06056,56.90294,56.90294,0,0,0,9.29195-14.9385c1.18674-2.70879,2.23575-5.48253,3.16839-8.2981C356.64137,402.69053,357.41933,399.75988,358.13432,396.96581Z"/><path d="M316.269,375.94427c.10528,11.69526,4.0675,21.10315,8.93893,21.10315,3.82824,0,7.09181-5.81892,8.3647-14.00177l-1.01448-19.89726-.51682-.43067-6.43143-5.45524c-.1627-.134-.3254-.27755-.4881-.4211Z"/><path d="M394.15513,215.84691a2.81265,2.81265,0,0,1-.98579,1.68444,3.84751,3.84751,0,0,1-3.14877.99538,1.38639,1.38639,0,0,1-.32536-.06706s-1.63654,6.2592-5.57961,5.19676c0,0-2.79466,7.1207-7.30237,5.58931,0,0-6.75677,4.03876-8.68047-.96664L357.25089,233.763c-7.31183,1.73233-5.57961-7.21626-5.57961-7.21626l8.18241-5.83281-8.18241,5.24913c-4.98624-.21052-11.2646-6.22088-15.88715-11.56134,0,0-7.58941,25.16111-7.48427,40.36891l.02874,1.05262a24.17255,24.17255,0,0,0,3.39761,1.3017,1.43415,1.43415,0,1,1,1.17716.354c11.24544,3.15834,40.95258,5.8954,63.52-42.47416Zm-54.47571,42.38818a1.4365,1.4365,0,0,1,0-2.87118A1.4365,1.4365,0,0,1,339.67942,258.23509Zm7.45541-1.07179a1.43637,1.43637,0,0,1,0-2.87117A1.43637,1.43637,0,0,1,347.13483,257.1633Zm7.30236-1.51223a1.4365,1.4365,0,0,1,0-2.87117A1.4365,1.4365,0,0,1,354.43719,255.65107Zm8.14458-2.90949a1.4365,1.4365,0,0,1,0-2.87118A1.4365,1.4365,0,0,1,362.58177,252.74158Zm6.48889-5.082a1.4365,1.4365,0,0,1,0-2.87118A1.4365,1.4365,0,0,1,369.07066,247.65954Zm5.25424-5.92414a1.43649,1.43649,0,0,1,0-2.87117A1.43649,1.43649,0,0,1,374.3249,241.7354Zm5.27341-6.54613a1.43637,1.43637,0,0,1,0-2.87118A1.43637,1.43637,0,0,1,379.59831,235.18927Zm5.48393-7.159a1.43637,1.43637,0,0,1,0-2.87117A1.43637,1.43637,0,0,1,385.08224,228.03025Zm30.53966-93.86817a1.42476,1.42476,0,0,1-1.29189,1.99053,1.44373,1.44373,0,0,1-1.06244-2.37349l-5.75193-.94748c-9.66627,1.74191-49.901,55.12668-49.901,55.12668l-2.06739,2.50738V192.466s7.93405,11.24544,18.21285,15.98284a2.06657,2.06657,0,0,0,1.50265-1.311,3.9115,3.9115,0,0,1,4.211-2.52677,1.586,1.586,0,0,0,1.65581-1.45474v-.00958c.09568-1.14843,2.41169-3.943,5.58919,1.3496a23.59814,23.59814,0,0,0,2.986,4.07708l10.83385-3.16792c6.8909-17.543,12.89167-40.6271,17.1697-70.899Zm-20.92118,72.48763a1.43637,1.43637,0,0,1,0-2.87118A1.43637,1.43637,0,0,1,394.70072,206.64971Zm3.00507-7.61838a1.43638,1.43638,0,0,1,0-2.87118A1.43638,1.43638,0,0,1,397.70579,199.03133Zm3.19666-6.57488a1.43649,1.43649,0,0,1,0-2.87117A1.43649,1.43649,0,0,1,400.90245,192.45645Zm2.38306-7.20668a1.43637,1.43637,0,0,1,0-2.87117A1.43637,1.43637,0,0,1,403.28551,185.24977Zm2.17255-7.62773a1.4365,1.4365,0,0,1,0-2.87118A1.4365,1.4365,0,0,1,405.45806,177.622Zm2.182-7.62773a1.4365,1.4365,0,0,1,0-2.87118A1.4365,1.4365,0,0,1,407.64006,169.99431Zm1.761-7.62773a1.4365,1.4365,0,0,1,0-2.87118A1.4365,1.4365,0,0,1,409.401,162.36658Zm1.78023-8.25a1.43637,1.43637,0,0,1,0-2.87118A1.43637,1.43637,0,0,1,411.18125,154.11662Zm1.56947-8.88153a1.4365,1.4365,0,0,1,0-2.87118A1.4365,1.4365,0,0,1,412.75072,145.23509Z"/><path d="M406.27594,89.64689a14.30775,14.30775,0,0,0-2.34358-5.98582,16.04186,16.04186,0,0,0-4.61753-4.38306,18.20456,18.20456,0,0,0-12.2379-2.45223,22.14454,22.14454,0,0,0-6.15709,1.60791,18.96627,18.96627,0,0,0-5.39689,3.27412,20.82409,20.82409,0,0,0-4.07942,4.85422,20.01645,20.01645,0,0,0-1.40988,2.86884,7.18727,7.18727,0,0,0-.51639,3.05951c-.12605,4.38445-.13365,8.769-.17921,13.1536l.02,3.28837a6.74513,6.74513,0,0,0,.70669,3.05261,5.54509,5.54509,0,0,0,2.06682,2.28236,2.35012,2.35012,0,0,0,1.37215.37853,2.18413,2.18413,0,0,0,1.26969-.57071,7.45743,7.45743,0,0,0,1.71551-2.56579,21.16109,21.16109,0,0,0,1.04246-3.03964,22.77432,22.77432,0,0,0,.639-3.15262l.42409-3.252c.27069-2.16915.51334-4.34157.70214-6.51272a54.60171,54.60171,0,0,0,.29207-6.46306.78143.78143,0,0,1,.70284-.79806l8.56259-.838,8.56691-.78882a.90056.90056,0,0,1,.14849-.00047c1.23687.11122,2.44137.27221,3.658.45656,1.21326.18938,2.42454.41019,3.63465.70425a12.49583,12.49583,0,0,1,3.63465,1.36233,3.06626,3.06626,0,0,1,.894.83556,1.69887,1.69887,0,0,1,.12664,1.58408,3.95689,3.95689,0,0,1-1.634,1.547l.05877-.0389a8.6971,8.6971,0,0,1-1.73946.82107c-.56861.218-1.14352.38214-1.7189.54033a30.57721,30.57721,0,0,1-3.47787.70109,51.72607,51.72607,0,0,1-7.00141.508c-2.33272.02009-4.66087-.03879-6.97933-.21695-1.158-.10609-2.31648-.1895-3.47074-.31392l-3.45743-.40306a.08022.08022,0,0,1-.07033-.08891.08254.08254,0,0,1,.08587-.0708l3.46981.17046c1.15625.04685,2.3139.05245,3.46887.08061l3.464-.00479c1.15275-.03692,2.30585-.05947,3.4545-.13015a60.8331,60.8331,0,0,0,6.831-.77574,29.26723,29.26723,0,0,0,3.31233-.76476c.53612-.16379,1.0733-.33389,1.58045-.54582a7.93846,7.93846,0,0,0,1.38605-.6831l.05853-.03867.00059-.00035a2.87807,2.87807,0,0,0,.99082-.888c.01344-.094.01951-.0486-.02138-.1437a1.71185,1.71185,0,0,0-.452-.3645,12.25258,12.25258,0,0,0-3.17107-1.09048,54.74031,54.74031,0,0,0-7.05819-1.03627l.148-.00047-8.57031.75156-8.57474.70249.70272-.79782a88.29847,88.29847,0,0,1-1.29387,13.20676c-.16788,1.0865-.33974,2.17184-.53414,3.2546a23.871,23.871,0,0,1-.8039,3.25812,22.29253,22.29253,0,0,1-1.22214,3.12808,8.19111,8.19111,0,0,1-2.02966,2.77818,2.90335,2.90335,0,0,1-1.71037.67912,3.0078,3.0078,0,0,1-1.73549-.52981,6.42371,6.42371,0,0,1-2.24684-2.56976,7.29672,7.29672,0,0,1-.72188-3.30508l.01986-3.28837c-.04545-4.38457-.053-8.76915-.1791-13.1536a8.14581,8.14581,0,0,1,.427-3.39854,21.06028,21.06028,0,0,1,1.35392-3.09047,19.5505,19.5505,0,0,1,4.17195-5.30892,20.275,20.275,0,0,1,5.74177-3.5927,23.52313,23.52313,0,0,1,6.55-1.59425,19.631,19.631,0,0,1,6.74346.277,17.79565,17.79565,0,0,1,6.18093,2.692,15.733,15.733,0,0,1,4.62629,4.84032,13.90226,13.90226,0,0,1,1.965,6.31481.0803.0803,0,0,1-.15947.01729Z"/><path d="M407.51105,92.52659a53.19652,53.19652,0,0,1,.40084,6.932,52.60953,52.60953,0,0,1-.40084,6.932,52.59083,52.59083,0,0,1-.401-6.932A53.21594,53.21594,0,0,1,407.51105,92.52659Z"/><path d="M378.62767,106.10171a35.93748,35.93748,0,0,0,.61031,4.144,18.12414,18.12414,0,0,0,1.24878,3.91189,9.726,9.726,0,0,0,2.32594,3.26162,8.758,8.758,0,0,0,3.70977,1.68c-.34955-.013-.70425-.03341-1.06092-.06472a4.13137,4.13137,0,0,1-.53519-.057l-.51942-.14615a7.32156,7.32156,0,0,1-1.97265-.92458,8.65958,8.65958,0,0,1-2.67643-3.41513,13.616,13.616,0,0,1-1.12575-4.14414A16.38165,16.38165,0,0,1,378.62767,106.10171Z"/><path d="M401.98857,94.3691a48.51534,48.51534,0,0,1,.92072,8.05941,41.15417,41.15417,0,0,1-.504,8.13348,24.1455,24.1455,0,0,1-1.10333,3.95768,12.0893,12.0893,0,0,1-2.02709,3.60194,8.26128,8.26128,0,0,1-3.32728,2.43751,8.99682,8.99682,0,0,1-4.03362.46568,9.54261,9.54261,0,0,0,3.87988-.82773,7.80747,7.80747,0,0,0,2.99793-2.45971,17.15475,17.15475,0,0,0,2.82515-7.319,46.099,46.099,0,0,0,.67807-7.98313c.02278-1.34189-.0035-2.68612-.06461-4.03C402.1929,97.05919,402.09675,95.71578,401.98857,94.3691Z"/><path d="M383.44158,99.45861a8.75348,8.75348,0,0,1,2.06074-.752,11.33791,11.33791,0,0,1,2.17593-.31556,8.8175,8.8175,0,0,1,2.21168.16964,4.92284,4.92284,0,0,1,2.024.89794,15.7207,15.7207,0,0,0-4.20091-.26648C386.30914,99.24423,384.9086,99.4016,383.44158,99.45861Z"/><path d="M395.1874,99.1163a4.40889,4.40889,0,0,1,1.52157-.68216,6.52218,6.52218,0,0,1,1.65523-.21052,5.76138,5.76138,0,0,1,3.17762.89268c-.56627.00666-1.09141-.04276-1.61843-.05689-.52409-.02278-1.04211-.03774-1.56-.03388C397.32326,99.01548,396.29961,99.0739,395.1874,99.1163Z"/><path d="M397.26134,104.85013a1.84121,1.84121,0,0,1,.22595,1.29528,2.05069,2.05069,0,0,1-.71231,1.21338,2.55786,2.55786,0,0,1-1.26852.5096,2.83016,2.83016,0,0,1-1.28184-.16344c.40446-.18015.77866-.302,1.13043-.444a4.19609,4.19609,0,0,0,.9136-.524A3.10375,3.10375,0,0,0,397.26134,104.85013Z"/><path d="M391.914,112.60053a18.56973,18.56973,0,0,0,2.9012-.03061,4.87515,4.87515,0,0,0,1.29423-.35866,5.57323,5.57323,0,0,0,1.192-.81418,2.424,2.424,0,0,1-.85775,1.34364,3.27041,3.27041,0,0,1-1.52006.62375,4.29,4.29,0,0,1-1.59342-.10409A3.77233,3.77233,0,0,1,391.914,112.60053Z"/><path d="M387.29266,103.35783a1.20419,1.20419,0,0,0,0-2.40694,1.20419,1.20419,0,0,0,0,2.40694Z"/><path d="M398.26834,102.78017a1.2042,1.2042,0,0,0,0-2.40695,1.2042,1.2042,0,0,0,0,2.40695Z"/><path d="M371.413,114.1457a21.57248,21.57248,0,0,1-5.89131,7.90064,6.56048,6.56048,0,0,1-2.3104,1.12074,4.60878,4.60878,0,0,1-.64746.1291l-.66943.00806-1.17623.00876a12.32955,12.32955,0,0,0-4.452,1.62415,23.96771,23.96771,0,0,0-4.01061,2.70388,28.082,28.082,0,0,0-3.47553,3.38288,20.5424,20.5424,0,0,0-2.72327,4.009,13.15726,13.15726,0,0,0-1.319,4.66987,12.39176,12.39176,0,0,1,.96185-4.83483,20.79992,20.79992,0,0,1,2.60434-4.23679,23.858,23.858,0,0,1,3.485-3.55181,24.51829,24.51829,0,0,1,4.09507-2.84665,13.02647,13.02647,0,0,1,4.76625-1.64529l1.28465.00736.56078.00315a3.91133,3.91133,0,0,0,.55692-.10491,6.71623,6.71623,0,0,0,2.11635-.94958,16.52134,16.52134,0,0,0,3.45578-3.36419A32.889,32.889,0,0,0,371.413,114.1457Z"/><path d="M402.47563,99.1163a40.87029,40.87029,0,0,1,6.14062,8.87581,49.01133,49.01133,0,0,1,3.858,10.12634l1.14386,5.25974a23.46214,23.46214,0,0,0,1.93316,4.925,13.37062,13.37062,0,0,0,3.32331,4.06668,9.37415,9.37415,0,0,0,4.81111,2.13387,9.15524,9.15524,0,0,1-5.04863-1.82042,13.78465,13.78465,0,0,1-3.62121-4.0731l-.67258-1.19668-.5387-1.25918c-.38144-.83263-.5887-1.72368-.89093-2.584l-1.21677-5.25716a52.61531,52.61531,0,0,0-3.63-10.0462A51.48778,51.48778,0,0,0,402.47563,99.1163Z"/><path d="M394.87453,120.736c-.20982.99724-.45049,1.9848-.70178,2.969a12.98323,12.98323,0,0,0-.60191,2.88566,2.72112,2.72112,0,0,0,1.14516,2.3069,5.96611,5.96611,0,0,0,2.6166.98521l.02617.00351a.36944.36944,0,0,1,.29371.22875,30.44232,30.44232,0,0,1,1.252,3.89669,26.70308,26.70308,0,0,1,.74373,4.00617q-.59057-1.9494-1.2496-3.85242c-.45528-1.26292-.93346-2.528-1.456-3.74529l.31964.232a6.22565,6.22565,0,0,1-3.02083-1.12692,3.56847,3.56847,0,0,1-1.07-1.30509,3.45317,3.45317,0,0,1-.2902-1.64974,12.29133,12.29133,0,0,1,.87282-2.99677C394.11013,122.62231,394.477,121.67425,394.87453,120.736Z"/><path d="M386.36194,151.39249a27.30969,27.30969,0,0,1-8.58993-6.52779,28.79691,28.79691,0,0,1-3.29339-4.34053,19.47236,19.47236,0,0,1-2.29276-4.988,8.71722,8.71722,0,0,1-.30375-2.798,4.19115,4.19115,0,0,1,1.0976-2.67339,5.82217,5.82217,0,0,1,1.13849-.87656c.36556-.24628.74537-.47339,1.10029-.73486l1.04375-.81452.98825-.88358a18.46109,18.46109,0,0,0,3.25554-4.19215,18.87975,18.87975,0,0,0,2.061-4.94009,18.36431,18.36431,0,0,1-4.8798,9.56836l-.9858.9566-1.07.86289a19.60893,19.60893,0,0,0-2.1181,1.55253,3.44407,3.44407,0,0,0-.8664,2.22956,8.0409,8.0409,0,0,0,.31345,2.5374,25.18094,25.18094,0,0,0,5.27317,9.12886,32.8966,32.8966,0,0,0,3.76374,3.804A26.74311,26.74311,0,0,0,386.36194,151.39249Z"/><path d="M374.03257,129.76567c-3.30111,1.31549-6.61413,2.59885-9.94783,3.82286q-4.99022,1.86651-10.00682,3.65848l-5.01825,1.76587a13.53591,13.53591,0,0,0-4.47675,2.27663,12.65019,12.65019,0,0,0-2.96418,4.03467,40.3952,40.3952,0,0,0-2.03375,4.82911,32.88124,32.88124,0,0,0-1.31841,5.09232,49.798,49.798,0,0,1-1.33324,5.18847c-1.011,3.41735-2.37863,6.716-3.42623,10.088a81.817,81.817,0,0,0-3.4656,20.79769l-.77212-.71745,13.75573-1.38266q6.87951-.67364,13.76976-1.22845l-.70693.57468,2.26343-7.29419,2.18143-7.32129c.72585-2.44055,1.43278-4.8874,2.0702-7.34956a40.524,40.524,0,0,0,1.503-7.443l.00082-.01285a.07974.07974,0,0,1,.15912-.00105,17.98692,17.98692,0,0,1-.27583,3.84261c-.19066,1.26688-.40913,2.5291-.6644,3.78173-.50891,2.507-1.087,4.99617-1.68455,7.48018-.59957,2.48377-1.26771,4.94815-1.92709,7.415-.6727,2.46379-1.33,4.92911-2.06424,7.37935a.81065.81065,0,0,1-.69431.57374l-.01285.00105q-6.87775.69256-13.76555,1.27484l-13.77945,1.1205-.03528.00292a.683.683,0,0,1-.736-.62538.73939.73939,0,0,1-.00106-.0951,80.253,80.253,0,0,1,4.33785-20.94992c1.16209-3.37365,2.50889-6.65081,3.464-10.06068a39.17543,39.17543,0,0,0,1.11887-5.16732,33.64657,33.64657,0,0,1,1.07809-5.27142,41.49164,41.49164,0,0,1,1.84566-5.07865,12.97454,12.97454,0,0,1,3.18556-4.56052,13.9475,13.9475,0,0,1,4.94383-2.53459l5.05341-1.69261q5.05085-1.67935,10.13429-3.265c3.38-1.08381,6.78061-2.10828,10.19328-3.10062a.08026.08026,0,0,1,.09977.0542A.08112.08112,0,0,1,374.03257,129.76567Z"/><path d="M401.73225,202.15387c2.45293-.45189,4.91275-.83754,7.36895-1.24632l7.38017-1.12378-.48845.68754a15.19262,15.19262,0,0,1-.19721-3.47424c.039-1.13628.13225-2.26075.24709-3.38067.23751-2.2382.56732-4.45642.93545-6.66588.35539-2.2118.83777-4.39789,1.30123-6.58516.46872-2.18773.97435-4.362,1.55569-6.5279l.00362-.01379a.59386.59386,0,0,1,1.14165-.01893,5.93526,5.93526,0,0,0,1.14422,1.91214,18.97575,18.97575,0,0,0,1.67158,1.73875,45.30931,45.30931,0,0,0,3.81083,3.10227,87.14266,87.14266,0,0,0,8.32952,5.3317l-.0437-.01881a2.18178,2.18178,0,0,0,1.51293-.1812,7.33446,7.33446,0,0,0,1.43395-.85437,20.77455,20.77455,0,0,0,2.53355-2.2861,52.53271,52.53271,0,0,0,4.38819-5.30156c2.74138-3.69,5.21744-7.58882,7.611-11.5l.21532.88346a21.6659,21.6659,0,0,1-3.39165-2.59616c-1.04958-.93989-2.02288-1.94578-2.96557-2.97457-1.89029-2.05945-3.64353-4.20384-5.32843-6.44274l-.03914-.059-.01507-.02664a74.221,74.221,0,0,0-7.49092-11.18352,31.80923,31.80923,0,0,0-4.66707-4.72256,18.11476,18.11476,0,0,0-2.69885-1.812,9.40651,9.40651,0,0,0-1.43688-.63134,3.51835,3.51835,0,0,0-.67526-.15678l-.85589-.08867c-4.54276-.48484-9.06636-1.13885-13.54065-2.051a94.89234,94.89234,0,0,1-13.211-3.54259.08019.08019,0,0,1-.04883-.10246.08426.08426,0,0,1,.10094-.0493,119.472,119.472,0,0,0,13.329,2.73635c4.48551.66312,8.98715,1.21408,13.5035,1.56282l.84315.063a4.91253,4.91253,0,0,1,.99094.19218,10.87764,10.87764,0,0,1,1.70429.6866,17.44742,17.44742,0,0,1,3.00063,1.91739,33.427,33.427,0,0,1,4.97537,4.89768,67.33832,67.33832,0,0,1,7.59373,11.50913l-.054-.08541c1.59868,2.19673,3.309,4.35946,5.11989,6.39519.90682,1.01875,1.83888,2.01378,2.81627,2.94747a20.43992,20.43992,0,0,0,3.09946,2.52057l.02243.01414a.6268.6268,0,0,1,.19627.86441l-.00327.00514c-2.5138,3.90535-5.22994,7.65157-8.10474,11.28785-1.45241,1.805-2.95565,3.57227-4.58155,5.23591a21.26964,21.26964,0,0,1-2.633,2.30993,7.81554,7.81554,0,0,1-1.54623.89093,2.81944,2.81944,0,0,1-1.85511.20363l-.03669-.01483-.00736-.00409c-2.92036-1.58595-5.73686-3.33207-8.51481-5.16464a46.132,46.132,0,0,1-4.02673-2.983,19.78816,19.78816,0,0,1-1.84577-1.758,6.93769,6.93769,0,0,1-1.46514-2.27127l1.14515-.03271-1.36643,6.52931c-.45247,2.1778-.82913,4.36892-1.25006,6.54917-.40306,2.18318-.76721,4.373-1.03872,6.56623a26.84565,26.84565,0,0,0-.2048,6.48141l.00782.05666a.55775.55775,0,0,1-.47642.62865l-.02.00234-7.43917.752c-2.48342.21648-4.96334.45609-7.45015.62947a.08032.08032,0,0,1-.08575-.07454A.08141.08141,0,0,1,401.73225,202.15387Z"/><path d="M335.712,214.46456a23.969,23.969,0,0,1-2.3118-2.14427,16.1214,16.1214,0,0,1-1.90687-2.57829,15.91327,15.91327,0,0,1-1.35837-2.92714,13.45868,13.45868,0,0,1-.74642-3.14338,21.97887,21.97887,0,0,1,.42035-6.34262,48.19908,48.19908,0,0,0,.44839-6.18864l.00269-.35247.41918-.06835c2.05536-.33541,4.10523-.73158,6.16983-.96663,2.06459-.23471,4.12287-.53858,6.19272-.71628,2.06822-.19487,4.14449-.30048,6.22287-.3839,2.08-.06472,4.16283-.1,6.25535-.0278l.36228.01261-.03353.28764c-.06.51357-.12313,1.02715-.20573,1.54061h-.19137c-.08248-.51346-.14568-1.027-.20561-1.54061l.32852.3c-2.04508.44874-4.1.78988-6.15756,1.10146-2.05934.29312-4.12066.56393-6.19.74548-2.06787.19861-4.1473.27116-6.2203.413-2.07312.14136-4.16085.12162-6.24308.16263l.42175-.4207a48.168,48.168,0,0,0-.70471,6.164,21.35435,21.35435,0,0,0,.04147,3.06231c.09849,1.004.28285,1.98737.4769,2.95833a26.20007,26.20007,0,0,0,1.79133,5.65053,26.922,26.922,0,0,0,1.40767,2.65621c.51848.85962,1.14153,1.71119,1.65838,2.62058Z"/><path d="M347.62618,195.54384a7.65465,7.65465,0,0,1,1.555-1.61714,9.33687,9.33687,0,0,1,1.92253-1.19,7.3687,7.3687,0,0,1,2.2042-.61136,4.55045,4.55045,0,0,1,2.24147.33763,9.9912,9.9912,0,0,0-2.135.27934,13.54137,13.54137,0,0,0-1.97943.72457c-.649.28179-1.27226.631-1.90453.97669Z"/><path d="M506.618,190.69721a8.06772,8.06772,0,0,1,2.09824-2.08913,2.14673,2.14673,0,0,1,1.50861-.24476,3.60905,3.60905,0,0,1,1.35708.72726,14.18425,14.18425,0,0,0,2.18271,1.89613,2.8406,2.8406,0,0,0,1.223.42537,1.53,1.53,0,0,0,.57549-.06507c.13412-.0465.46171-.19172.70623-.25165a3.5529,3.5529,0,0,1,1.69986-.06893,4.87188,4.87188,0,0,1,1.53056.67632l.31976.22536a2.32729,2.32729,0,0,0,.24312.149,2.16686,2.16686,0,0,0,.53625.19545,2.83479,2.83479,0,0,0,1.16466-.0021,4.92771,4.92771,0,0,0,.6345-.188,4.88827,4.88827,0,0,1,.83509-.18646,4.10212,4.10212,0,0,1,1.74273.12045,5.35246,5.35246,0,0,1,2.70107,1.95466l-.26123-.2027a1.27259,1.27259,0,0,0,.53916.07886,1.0203,1.0203,0,0,0,.51814-.19662,3.75957,3.75957,0,0,1,.45808-.30761,2.72671,2.72671,0,0,1,.56113-.21695,2.89542,2.89542,0,0,1,1.15672-.07045,2.38816,2.38816,0,0,1,1.84554,1.34049,4.21823,4.21823,0,0,1,.391,2.0209,18.3033,18.3033,0,0,1-.63975,3.7086,20.19091,20.19091,0,0,0-.42561,3.6079,13.28676,13.28676,0,0,0,.0826,1.80465,10.81869,10.81869,0,0,1,.12875,1.8737,8.496,8.496,0,0,1-.89187,3.671,3.65737,3.65737,0,0,1-3.22926,2.135,4.352,4.352,0,0,1-2.84652-1.02774,3.37269,3.37269,0,0,1-.74011-.84829l.77305.22571A12.5313,12.5313,0,0,1,523.132,212.609a9.26025,9.26025,0,0,1-2.17511.6269,4.96046,4.96046,0,0,1-2.413-.15666,4.02677,4.02677,0,0,1-1.99029-1.58712l.94515.27548a16.0049,16.0049,0,0,1-2.5006.92131,11.53534,11.53534,0,0,1-2.66661.43741,6.24589,6.24589,0,0,1-2.83216-.46755,4.78754,4.78754,0,0,1-2.2181-2.05571l.574.43343a14.39391,14.39391,0,0,1-2.54862-.86161,9.08824,9.08824,0,0,1-2.33014-1.45989,5.15159,5.15159,0,0,1-1.63642-2.468,4.89375,4.89375,0,0,1,.29126-2.96593.75359.75359,0,0,1,.73356-.48168c1.54459.068,3.08825.16765,4.63179.27688l-.4908.22946a10.58549,10.58549,0,0,0,1.725-2.85389,4.745,4.745,0,0,0,.25107-3.227,3.74754,3.74754,0,0,0-.84491-1.41981,4.774,4.774,0,0,1-.85238-1.61142,9.42283,9.42283,0,0,1-.44021-1.72976A2.31758,2.31758,0,0,1,506.618,190.69721Zm.11718.10947a2.18494,2.18494,0,0,0-.19475,1.62753,7.2718,7.2718,0,0,0,.48647,1.66656,4.55871,4.55871,0,0,0,.85811,1.44657,4.29146,4.29146,0,0,1,1.08218,1.49435,4.58794,4.58794,0,0,1,.36042,1.83923,7.45392,7.45392,0,0,1-.28647,1.83935,11.55023,11.55023,0,0,1-1.58337,3.34188.51344.51344,0,0,1-.41311.22793l-.07792.00164c-1.54705.03306-3.09385.05666-4.63985.04848l.73334-.48157a3.62638,3.62638,0,0,0-.14709,1.96226,3.52942,3.52942,0,0,0,1.16221,1.61912,8.37947,8.37947,0,0,0,1.93491,1.16864,12.81864,12.81864,0,0,0,2.20491.757.89633.89633,0,0,1,.56159.41217l.01273.02138a3.31673,3.31673,0,0,0,1.40031,1.335,4.64081,4.64081,0,0,0,2.1.38449,9.96165,9.96165,0,0,0,2.31543-.32151,14.65017,14.65017,0,0,0,2.2563-.762.76842.76842,0,0,1,.94538.2756,2.7273,2.7273,0,0,0,1.21946,1.04853,3.62655,3.62655,0,0,0,1.76212.17817,8.00263,8.00263,0,0,0,1.9036-.459,12.72413,12.72413,0,0,0,1.8307-.81909.56534.56534,0,0,1,.76383.20924l.00958.01648a2.70133,2.70133,0,0,0,.44325.55306,3.37916,3.37916,0,0,0,2.186.95192,2.93667,2.93667,0,0,0,2.679-1.594,7.41833,7.41833,0,0,0,.92516-3.39935,10.27768,10.27768,0,0,0-.10456-1.79741,13.77592,13.77592,0,0,1-.115-1.87031,26.71556,26.71556,0,0,1,.29429-3.71514,17.7721,17.7721,0,0,0,.356-3.57238c-.02512-1.15357-.55038-2.20351-1.44575-2.20105a1.681,1.681,0,0,0-.66359.09206,1.43605,1.43605,0,0,0-.28681.13645,2.97222,2.97222,0,0,0-.28588.23132,2.372,2.372,0,0,1-1.163.49664,2.55724,2.55724,0,0,1-1.26922-.1548.54191.54191,0,0,1-.22-.15409l-.04148-.04884a4.1914,4.1914,0,0,0-2.00232-1.43792,3.08919,3.08919,0,0,0-1.17576-.09615,3.47564,3.47564,0,0,0-.60482.11823,6.28575,6.28575,0,0,1-.78486.20457,3.84222,3.84222,0,0,1-1.7571-.0944,3.44967,3.44967,0,0,1-.82352-.36252,3.562,3.562,0,0,1-.36929-.26006l-.26976-.2166a2.719,2.719,0,0,0-2.31718-.68894c-.23821.03914-.36427.091-.7026.17793a2.36367,2.36367,0,0,1-.88673.01542,3.58011,3.58011,0,0,1-1.48746-.66487,14.30641,14.30641,0,0,1-2.0771-2.15653,2.91771,2.91771,0,0,0-1.1698-.73532,1.89622,1.89622,0,0,0-1.34364.15187A7.83966,7.83966,0,0,0,506.73522,190.80668Z"/><path d="M512.49732,197.63752a10.478,10.478,0,0,1,.89748,3.54913,9.12373,9.12373,0,0,1-.45248,3.66888,9.35108,9.35108,0,0,1-1.86528,3.23136,12.42628,12.42628,0,0,1-1.32811,1.33021c-.48157.399-1.00145.74864-1.50382,1.12588a.401.401,0,0,1-.48156-.64139l.01542-.0111.0465-.03131c.49068-.33074,1.00554-.636,1.4829-.9886a11.83149,11.83149,0,0,0,1.32238-1.18721,8.92688,8.92688,0,0,0,2.56369-6.48761A10.38079,10.38079,0,0,0,512.49732,197.63752Z"/><path d="M519.04707,199.144a20.61887,20.61887,0,0,1,.57982,3.09864,17.88907,17.88907,0,0,1,.09464,3.16956,12.52715,12.52715,0,0,1-.5956,3.1518,8.52031,8.52031,0,0,1-1.66211,2.82117.40156.40156,0,0,1-.59735-.53682l.016-.01683.01425-.0139a7.82992,7.82992,0,0,0,1.667-2.46835,12.03206,12.03206,0,0,0,.75833-2.97481,17.57812,17.57812,0,0,0,.10479-3.11569A20.51054,20.51054,0,0,0,519.04707,199.144Z"/><path d="M525.47054,200.53253l-.07874,10.869a.40144.40144,0,0,1-.80285-.00584l.00128-.02956Z"/><path d="M532.03828,199.45747c1.93819-.16613,3.877-.30994,5.81689-.40785l2.90962-.16005a4.49876,4.49876,0,0,1,2.95657.87411,4.66414,4.66414,0,0,1,1.69367,2.58,7.62606,7.62606,0,0,1,.39441,3.01861,4.17629,4.17629,0,0,1-1.37811,2.7984,6.07,6.07,0,0,1-2.78869,1.26747l-.008.00163a.27766.27766,0,0,1-.05421.00573l-5.042.01507c-.84023.00794-1.68128-.01741-2.522-.02629-.8407-.01051-1.68151-.0243-2.52268-.05362.83836-.07559,1.67708-.13552,2.5159-.19218.83895-.055,1.67731-.12665,2.51672-.16485l5.03519-.26193-.0618.00736a5.37948,5.37948,0,0,0,2.44253-1.146,3.40776,3.40776,0,0,0,1.08616-2.32173,7.834,7.834,0,0,0-.35107-2.72351,3.7914,3.7914,0,0,0-3.89471-3.01873l-2.914-.00128C535.92633,199.55584,533.98266,199.51776,532.03828,199.45747Z"/><path d="M351.66985,226.54532a8.86519,8.86519,0,0,1,3.36092-.74326,5.732,5.732,0,0,1,1.78876.22852,3.01365,3.01365,0,0,1,2.25,2.88192,5.58342,5.58342,0,0,1-.24429,1.79192,10.09969,10.09969,0,0,1-1.57123,3.06172,29.15055,29.15055,0,0,0,.84316-3.22821,3.67747,3.67747,0,0,0-.4186-2.8568,3.84248,3.84248,0,0,0-2.68-1.13581A20.05325,20.05325,0,0,0,351.66985,226.54532Z"/><path d="M422.56019,353.95705a12.97409,12.97409,0,0,1-7.27011,5.19618,22.5601,22.5601,0,0,1-4.46542.91056c-1.51492.17174-3.04549.13868-4.51449.19966l-2.22359.13283c-.75413.06075-1.50966.11064-2.26729.1388a44.34239,44.34239,0,0,1-4.55082-.06368,39.384,39.384,0,0,1-8.95537-1.68127,43.06224,43.06224,0,0,1-8.33747-3.71106,42.52369,42.52369,0,0,1-7.28869-5.48428,46.87337,46.87337,0,0,1-10.61083-14.6962.5044.5044,0,0,1,.15328-.60891l.03037-.0229a12.59028,12.59028,0,0,0,2.31578-2.65586c.71534-.99316,1.38033-2.034,2.0376-3.07808,1.29925-2.09988,2.55644-4.235,3.74038-6.40991,2.366-4.3514,4.68132-8.73714,6.8472-13.19648,2.178-4.45327,4.32838-8.92091,6.38328-13.43329q3.10494-6.75682,6.09727-13.5639l.54606.79315c-5.20109.34289-10.30672-.545-15.314-1.55592-5.00879-1.06688-9.9421-2.42863-14.80567-3.98175-4.86684-1.54436-9.69817-3.19982-14.44806-5.06265-4.75971-1.84378-9.47514-3.767-14.15085-5.84563l-.01122-.0049a.73063.73063,0,0,1-.19347-.12735,11.95329,11.95329,0,0,1-3.29619-6.171,30.60976,30.60976,0,0,1-.71418-6.74241,74.05723,74.05723,0,0,1,1.34084-13.28339,165.44173,165.44173,0,0,1,7.07373-25.57189.0803.0803,0,0,1,.1027-.04836.08191.08191,0,0,1,.04895.10094c-1.31572,4.2126-2.45375,8.48046-3.47845,12.76748-1.04141,4.28258-1.942,8.59928-2.60551,12.94413a75.44859,75.44859,0,0,0-1.05566,13.069,29.169,29.169,0,0,0,.79408,6.38818,10.85842,10.85842,0,0,0,2.86346,5.33369l-.20433-.132c4.6326,2.03679,9.3513,3.93958,14.0887,5.75217,4.74417,1.80383,9.51661,3.52962,14.33438,5.11055,4.81287,1.59587,9.69081,2.9901,14.62132,4.10476a58.65241,58.65241,0,0,0,14.94038,1.83468l.02231-.00082a.55635.55635,0,0,1,.577.53484.56467.56467,0,0,1-.05316.25936q-3.18907,6.73072-6.46365,13.41051l-6.5806,13.34952c-2.24544,4.42394-4.4139,8.88749-6.76215,13.26318-1.1788,2.18481-2.33108,4.38586-3.5892,6.53539-.63134,1.07389-1.26981,2.14439-1.97242,3.18579a12.95464,12.95464,0,0,1-2.49,2.98369l.18353-.63158a43.78714,43.78714,0,0,0,4.68389,7.50132,46.08228,46.08228,0,0,0,12.97661,11.88789,41.72618,41.72618,0,0,0,8.01431,3.67892,39.63735,39.63735,0,0,0,8.65746,1.745,43.2061,43.2061,0,0,0,4.43259.18763c.74069-.00643,1.48162-.03435,2.22289-.07278l2.26729-.07115c1.52613-.01893,2.99852.05584,4.46974-.0694a23.61949,23.61949,0,0,0,4.36483-.70424,12.93252,12.93252,0,0,0,7.30751-4.70632.08025.08025,0,0,1,.13306.08961Z"/><path d="M424.45585,152.97341c.26941.89187.54524,1.7897.76838,2.70084a24.03772,24.03772,0,0,1,.4512,2.78227,21.40951,21.40951,0,0,1-.10585,5.65672,19.49065,19.49065,0,0,1-1.67567,5.42785,15.81854,15.81854,0,0,1-3.276,4.66332l.0507-.05946a16.27322,16.27322,0,0,1-2.50211,2.77117,7.87022,7.87022,0,0,1-1.5488,1.0462,3.55852,3.55852,0,0,1-1.78957.44406,3.84235,3.84235,0,0,0,1.68595-.62748,7.58521,7.58521,0,0,0,1.3892-1.14983,16.22086,16.22086,0,0,0,2.25246-2.8186l.02313-.03014.0278-.02968a16.91706,16.91706,0,0,0,2.995-4.53668,22.87161,22.87161,0,0,0,1.64822-5.22095,23.64858,23.64858,0,0,0,.28961-2.73612c.02092-.45879.07232-.91851.06881-1.37893l-.03726-1.38348a10.1012,10.1012,0,0,0-.10433-1.38185l-.13984-1.38453C424.79641,154.80937,424.5957,153.90068,424.45585,152.97341Z"/><path d="M406.14711,359.80786c-.67947.00935-1.34949.04767-2.02908.09557a40.5887,40.5887,0,0,1-17.64811-2.44055c-.80389,1.17716-2.81369,4.88109-1.92369,11.724l-.11485,11.07324,6.25921,2.3639,3.31138-7.2256s3.88572,13.62827,16.44232,18.93041a80.894,80.894,0,0,0,7.03436-16.1742C411.62146,372.35477,407.33385,365.02379,406.14711,359.80786Zm-15.95421,4.87128a1.37893,1.37893,0,0,1,0-2.75622A1.37893,1.37893,0,0,1,390.1929,364.67914Z"/><path d="M328.69754,259.71226s-22.93386,14.75457,23.85026,30.13944l29.70411,9.281c4.01727-7.67491,7.93847-16.97109,7.93847-16.97109-18.81556,1.15533-58.35376-16.62373-58.35376-16.62373-1.85283-1.03541-2.86613-3.50037-3.29073-6.8186"/><path d="M291.4,328.03772a.40122.40122,0,0,1-.401-.39068c-1.14912-45.00793,33.11433-59.33671,33.46061-59.476a.40109.40109,0,0,1,.3.744c-.34114.13739-34.09288,14.27737-32.95871,58.71144a.401.401,0,0,1-.39067.41124Z"/><path d="M288.75519,308.27178c-.30435-1.66194-.01448-4.1291,2.4698-7.2427a4.86583,4.86583,0,0,1,4.88362-1.772c2.08849.50631,4.26579,2.53625,3.95633,8.93184,0,0,1.24224,7.63093-8.88042,3.13023A4.18944,4.18944,0,0,1,288.75519,308.27178Z"/><path d="M397.11179,395.61177c-4.23982,13.8582-27.5346,7.50343-32.92285,4.62267-1.17716-.63169-3.33055-1.828-5.98162-3.30181-5.1394-2.87117-12.13544-6.81437-17.45674-9.829-3.35929-1.895-6.04868-3.41676-7.17794-4.05792-.38273-.22022-.58379-.33506-.58379-.33506-6.34531-2.42139-11.88672-4.67992-16.71979-6.76636-2.70844-1.1677-5.1873-2.2778-7.46511-3.34024-6.89078-3.18685-11.90587-5.87624-15.4661-7.97214a68.1272,68.1272,0,0,1-6.58445-4.30677,23.77481,23.77481,0,0,0-2.11518-1.39738c-2.45-1.47379-8.28817-6.76635-3.63676-22.43352,0,0,8.18279-17.51411,18.50949-4.1057a71.91773,71.91773,0,0,0,8.83363,9.695c4.259,3.82823,10.30754,9.2069,16.77727,14.75777.16274.14358.32537.28716.488.42117,2.11518,1.81843,4.27815,3.65591,6.43153,5.4553q.25848.2152.51673.43063c10.566,8.81448,20.88309,16.77727,25.27607,18.21286Z"/><path d="M320.48144,352.82673c2.73553,1.0184,5.39911,2.17792,8.03756,3.38709,2.643,1.20018,5.2435,2.48413,7.83569,3.7842,2.57852,1.32682,5.148,2.67163,7.67516,4.09962,2.53167,1.41912,5.03753,2.889,7.47118,4.50117-2.73636-1.01664-5.40051-2.17535-8.03873-3.385-2.64278-1.20064-5.24315-2.48447-7.83452-3.78629-2.5777-1.32858-5.14711-2.67339-7.67411-4.10185C325.42223,355.90621,322.916,354.437,320.48144,352.82673Z"/><path d="M374.33165,374.46932c6.78925,1.8716,13.4417,4.058,20.11973,6.1488q4.99758,1.59822,10.02166,3.07481c1.67754.48028,3.3573.95321,5.054,1.34318a18.96606,18.96606,0,0,0,5.16195.69151,15.16669,15.16669,0,0,1-5.29688.0847c-1.75944-.2131-3.50194-.52433-5.22481-.90507-3.45239-.74163-6.83984-1.71528-10.19889-2.75984-3.35005-1.07482-6.67207-2.22745-9.94736-3.505C380.74366,377.37286,377.49758,376.018,374.33165,374.46932Z"/><path d="M488.15167,218.53019A47.47094,47.47094,0,0,1,504.415,223.387a30.13048,30.13048,0,0,1,6.912,5.06732,31.26136,31.26136,0,0,1,5.19466,6.85082,31.9539,31.9539,0,0,1,3.11967,8.02612l2.0299,8.26234c1.34084,5.51162,2.57454,11.04847,3.77379,16.59245,2.38739,11.09017,4.63178,22.21411,6.5827,33.39284,1.91353,11.18469,3.60988,22.40864,4.99068,33.67476l-.10725-.29289a76.09312,76.09312,0,0,1,5.11405,9.684,62.26619,62.26619,0,0,1,3.59668,10.3385,31.38408,31.38408,0,0,1,.922,10.93106,15.30885,15.30885,0,0,1-4.81345,9.75038l.0868-.28856a23.88508,23.88508,0,0,1,.47281,4.53972,20.00423,20.00423,0,0,1-.43168,4.52768,13.49053,13.49053,0,0,1-1.704,4.20162,10.82752,10.82752,0,0,1-3.24607,3.1129,10.73906,10.73906,0,0,0,3.09583-3.20706,13.85029,13.85029,0,0,0,1.53291-4.17393,19.61785,19.61785,0,0,0,.29289-4.44918,23.41562,23.41562,0,0,0-.58777-4.40969.30543.30543,0,0,1,.08681-.289,14.87422,14.87422,0,0,0,4.352-9.41112,30.44914,30.44914,0,0,0-1.08919-10.57485,61.12847,61.12847,0,0,0-3.71129-10.08019,87.06533,87.06533,0,0,0-5.13017-9.445l-.00432-.00689a.72.72,0,0,1-.103-.28635c-1.44389-11.23072-3.20286-22.42113-5.17878-33.57264q-2.92479-16.73429-6.40991-33.36937c-1.15508-5.54526-2.3972-11.07172-3.60836-16.60541l-1.88036-8.28653a30.91069,30.91069,0,0,0-2.88239-7.82751,30.16175,30.16175,0,0,0-11.538-11.8873A49.10975,49.10975,0,0,0,488.15167,218.53019Z"/><path d="M438.14336,222.99105a81.77935,81.77935,0,0,0-11.70388,3.85113,42.25854,42.25854,0,0,0-10.52986,6.20768,27.94587,27.94587,0,0,0-4.28072,4.31144,22.72415,22.72415,0,0,0-3.14806,5.15517,25.01347,25.01347,0,0,0-1.95991,11.81148,39.15512,39.15512,0,0,0,2.81159,11.7679c1.58653,3.76538,3.15975,7.62282,4.55106,11.5055a155.92643,155.92643,0,0,1,6.61167,23.89563,179.46766,179.46766,0,0,1,2.96347,49.36365,127.69459,127.69459,0,0,1-4.58131,24.35067,93.5162,93.5162,0,0,1-4.27335,11.638,60.84553,60.84553,0,0,1-6.07613,10.80161.18525.18525,0,0,1-.18249.07114L397.113,395.6092l11.29649,1.73829-.18225.071a60.40011,60.40011,0,0,0,5.71466-10.856,101.76476,101.76476,0,0,0,4.01154-11.61789,128.64154,128.64154,0,0,0,4.148-24.19985,182.175,182.175,0,0,0-3.14935-48.953,154.42007,154.42007,0,0,0-6.41879-23.70824c-1.36631-3.87777-2.88262-7.65659-4.47137-11.48833a39.3504,39.3504,0,0,1-2.71977-12.20121,26.09274,26.09274,0,0,1,2.25222-12.27938,23.64554,23.64554,0,0,1,3.35847-5.30027,26.9769,26.9769,0,0,1,4.49159-4.34345,42.82293,42.82293,0,0,1,10.84168-6.00159A74.693,74.693,0,0,1,438.14336,222.99105Z"/><path d="M408.37745,397.53477a13.01625,13.01625,0,0,0,2.46812,6.10861,11.1827,11.1827,0,0,0,2.32792,2.32021,11.96892,11.96892,0,0,0,2.86008,1.601,17.99222,17.99222,0,0,0,6.45734,1.12144,31.85217,31.85217,0,0,0,3.30532-.15118c1.09409-.1666,2.196-.27443,3.27727-.52736a68.89631,68.89631,0,0,0,12.66853-4.075c4.10827-1.722,8.08464-3.74739,12.03742-5.81818l.00642-.00338a.28416.28416,0,0,1,.23939-.01063,55.86778,55.86778,0,0,0,7.21182,2.43038,26.06983,26.06983,0,0,0,3.73582.71581,8.65291,8.65291,0,0,0,3.77087-.24569,8.34815,8.34815,0,0,1-3.787.4374,26.33837,26.33837,0,0,1-3.80113-.56428,51.946,51.946,0,0,1-7.34688-2.249l.24558-.014a124.489,124.489,0,0,1-12.01827,6.01632,61.58347,61.58347,0,0,1-12.82227,4.1036c-1.10006.24709-2.22827.34955-3.34468.509a32.56124,32.56124,0,0,1-3.39013.12653,18.34588,18.34588,0,0,1-6.6431-1.32414,12.43879,12.43879,0,0,1-2.92691-1.73782,10.75563,10.75563,0,0,1-2.31577-2.479A12.71406,12.71406,0,0,1,408.37745,397.53477Z"/><path d="M534.55045,379.773q1.77539-1.04322,3.49749-2.1653c.57117-.37654,1.13639-.76067,1.68642-1.15917a10.49872,10.49872,0,0,0,1.50417-1.27367l.01507-.01659a.40206.40206,0,0,1,.59606.53975.38843.38843,0,0,1-.02863.02862,10.94911,10.94911,0,0,1-1.756,1.22471c-.59886.35049-1.2045.68076-1.81376,1.00216Q536.4194,378.90874,534.55045,379.773Z"/><path d="M536.32627,335.3358s-9.23564-15.78189-17.90665-21.84973c-6.90994-4.84254-36.38728-8.37426-51.70022,8.37427-12.48966,13.66683-15.55221,53.67193-16.26042,67.9416-.00958.18178-.00958.37338-.00958.55516a10.94925,10.94925,0,0,0,3.46443,8.00089s11.29334,4.68972,14.83441,2.64172l.02874-3.46466h-.02874s-16.3561-.64116.95706-15.79148c18.49044-16.1742,84.91981-28.22365,64.12294-7.27374l.7178,5.30215C559.55411,369.26349,536.32627,335.3358,536.32627,335.3358Zm-67.779,4.99582c-.40189,3.12-.68906,6.24-.83264,9.37922-.21052,3.13919-.22968,6.28795-.31579,9.43647.00958,1.57929-.01916,3.15834-.03832,4.74721,0,1.579.00958,3.15811-.05748,4.75632-.29662-1.55989-.50715-3.139-.72737-4.71823-.1722-1.57906-.31579-3.16769-.43063-4.747-.07652-1.58863-.14346-3.18684-.153-4.77571.01916-1.59821.01916-3.18708.1243-4.7853.07664-1.58863.23927-3.18708.41159-4.76613.22968-1.58863.44032-3.16792.79431-4.73739a30.368,30.368,0,0,1,3.15835-9.01566A52.90321,52.90321,0,0,0,468.5473,340.33162Z"/><path d="M313.15874,285.85248c2.36146.96921,4.65819,2.03328,6.94534,3.111l6.8271,3.26828q3.399,1.6492,6.82022,3.2268a41.10822,41.10822,0,0,0,7.05539,2.63168,21.85982,21.85982,0,0,1-7.51722-1.46783,71.19206,71.19206,0,0,1-7.05527-2.9463c-2.28084-1.1267-4.531-2.31-6.7146-3.61059A65.324,65.324,0,0,1,313.15874,285.85248Z"/><path d="M307.99049,315.12093c2.05407,1.07634,4.02509,2.25829,5.9753,3.46782,1.95653,1.19948,3.867,2.46192,5.78477,3.70942l5.69632,3.81679c1.914,1.24971,3.76386,2.57034,5.8121,3.64025a24.51779,24.51779,0,0,1-6.45489-2.56567c-2.04906-1.07645-4.00371-2.30117-5.93734-3.55322-1.91307-1.28277-3.79494-2.60831-5.61232-4.023A61.67183,61.67183,0,0,1,307.99049,315.12093Z"/><path d="M415.08446,205.10706a.40065.40065,0,0,1-.39909-.3645c-.10328-1.14772-.1902-2.54125-.25842-4.14321a.40121.40121,0,0,1,.38413-.41777.43021.43021,0,0,1,.41778.38413c.06729,1.58886.15328,2.96931.25562,4.10395a.40045.40045,0,0,1-.36357.43553A.23811.23811,0,0,1,415.08446,205.10706Z"/><path d="M406.83613,211.11906c2.20736-.39535,4.41811-.76371,6.63422-1.089q3.3205-.51767,6.652-.94818a.36911.36911,0,0,1,.27163.07547c1.45265,1.13511,2.92679,2.24276,4.36156,3.40053l4.31693,3.45718c1.43991,1.15123,2.84547,2.34592,4.27,3.51678q2.12535,1.77047,4.20571,3.59831-2.2652-1.593-4.48423-3.24456c-1.47227-1.11022-2.96335-2.19649-4.42009-3.32622l-4.37312-3.38581c-1.462-1.12319-2.8845-2.29649-4.32861-3.44235l.27139.07536q-3.334.41041-6.67978.72667C411.30587,210.76635,409.0727,210.9562,406.83613,211.11906Z"/><path d="M452.81853,167.816c2.09707,1.34481,4.20957,2.66089,6.35465,3.92252q3.19871,1.92206,6.46319,3.72718c4.34882,2.40958,8.75851,4.71017,13.29181,6.73936a104.57325,104.57325,0,0,0,13.89417,5.30764,55.91792,55.91792,0,0,0,7.23706,1.69494,38.15148,38.15148,0,0,0,7.41779.58508,43.14041,43.14041,0,0,1-14.82261-1.68607,96.4838,96.4838,0,0,1-14.05809-5.172c-4.531-2.10175-8.96647-4.40257-13.2647-6.93541A144.75845,144.75845,0,0,1,452.81853,167.816Z"/><path d="M502.786,207.3219a34.49116,34.49116,0,0,1-3.96843.02465c-1.32226-.04638-2.63822-.18085-3.95043-.33974-1.30988-.17769-2.61673-.38156-3.9078-.66966a35.27446,35.27446,0,0,1-3.83454-1.02108c1.32355.09825,2.62957.26076,3.93571.41229l3.90908.4832,3.90348.52316C500.17507,206.91732,501.47958,207.08847,502.786,207.3219Z"/><path d="M439.36293,184.7608c2.71241,1.76213,5.48942,3.40649,8.30452,4.97935,2.82106,1.56048,5.651,3.10647,8.56575,4.48387q4.32639,2.15548,8.7869,4.03339c2.95541,1.29434,5.97426,2.4326,8.9868,3.61678-1.55429-.4443-3.11045-.89456-4.64861-1.39961-1.52882-.531-3.06359-1.0511-4.57056-1.64541-3.0331-1.14188-5.98022-2.49744-8.90794-3.88583-2.90062-1.44529-5.75333-2.98976-8.52217-4.67267A75.1796,75.1796,0,0,1,439.36293,184.7608Z"/><ellipse cx="469.70649" cy="227.89322" rx="14.63423" ry="15.78957"/><path d="M490.35809,228.28653a24.488,24.488,0,0,1-5.72681,15.91286,20.30468,20.30468,0,0,1-6.95235,5.27971,19.67594,19.67594,0,0,1-8.58222,1.80348,20.54735,20.54735,0,0,1-8.47614-2.03959,22.6758,22.6758,0,0,1-6.87956-5.2088,24.46557,24.46557,0,0,1-6.26469-15.74766,23.10092,23.10092,0,0,1,5.90147-16.08342,22.0452,22.0452,0,0,1,7.0832-5.22843,20.4504,20.4504,0,0,1,24.18828,5.38229A24.49071,24.49071,0,0,1,490.35809,228.28653Zm-.1604,0a21.69,21.69,0,0,0-6.324-15.21282,20.79814,20.79814,0,0,0-14.77693-6.25978,20.12249,20.12249,0,0,0-14.61045,6.41365,22.99893,22.99893,0,0,0-6.13139,15.059,22.49392,22.49392,0,0,0,1.36245,8.25592A21.1678,21.1678,0,0,0,454.123,243.681a19.92375,19.92375,0,0,0,14.97367,6.266,21.40964,21.40964,0,0,0,14.79493-6.43117A21.69575,21.69575,0,0,0,490.19769,228.28653Z"/><path d="M400.53873,205.40544c.81651-.3291,1.64436-.61977,2.46812-.92434.82142-.312,1.65756-.57457,2.48681-.86033a.29551.29551,0,0,1,.343.11683l.01612.02465c1.33605,2.03457,2.60481,4.109,3.85113,6.19658a.47281.47281,0,0,1-.16356.64817.533.533,0,0,1-.07874.03762c-2.14357.80588-4.29648,1.58641-6.469,2.31437l-3.26629,1.0719c-1.10064.32572-2.191.67877-3.303.97388,1.03346-.50551,2.08854-.95308,3.13346-1.428l3.17-1.32986c2.11833-.87318,4.25641-1.69343,6.4029-2.49078l-.24219.68555c-1.22915-2.09778-2.436-4.20887-3.57541-6.35968l.35878.14136c-.85192.20866-1.69694.44068-2.55668.62305C402.25681,205.03638,401.40338,205.24013,400.53873,205.40544Z"/><path d="M469.09671,205.95816a25.96134,25.96134,0,0,1,8.26492-6.30477,41.96821,41.96821,0,0,1,9.88474-3.42576l2.57711-.47946c.865-.11613,1.73444-.20048,2.60107-.30212a24.29807,24.29807,0,0,1,2.6068-.21286c.87107-.04066,1.74273-.06729,2.61345-.08821,1.74168-.00771,3.48161.12045,5.218.17782,1.72859.20643,3.45532.40376,5.17246.64209-1.73806-.0576-3.46537-.17642-5.193-.24932-1.73046.02267-3.4594-.03586-5.18286.04638-1.71889.162-3.45064.1284-5.15424.41-.85389.11227-1.71025.20725-2.56123.33342l-2.53085.50611a44.62487,44.62487,0,0,0-9.7817,3.19385,32.86823,32.86823,0,0,0-4.5056,2.51041A22.95143,22.95143,0,0,0,469.09671,205.95816Z"/><path d="M476.40585,207.32388c2.4902-.68052,5.00785-1.242,7.53392-1.76154,2.52688-.51743,5.07-.94864,7.6178-1.36058,2.55819-.34091,5.11533-.70716,7.69806-.87061a25.02991,25.02991,0,0,1,7.72622.35283,16.93136,16.93136,0,0,0-3.839-.08167c-1.27892.04919-2.55714.1999-3.831.34336-2.55014.2888-5.09641.64711-7.63533,1.04854-2.54826.34417-5.083.78637-7.62773,1.17272C481.50448,206.55936,478.96206,206.96767,476.40585,207.32388Z"/><path d="M406.77456,205.87953a97.31042,97.31042,0,0,1,12.66024-2.22745,92.32064,92.32064,0,0,1,12.87029-.55832,64.87548,64.87548,0,0,1,12.77286,1.77252,32.85806,32.85806,0,0,1,11.81591,5.0686.33333.33333,0,0,1-.053.56732l-.02325.0111c-2.18048,1.0469-4.32335,2.20292-6.40722,3.4323a69.184,69.184,0,0,0-6.06679,3.9314,21.04473,21.04473,0,0,0-5.07047,4.81509,5.89193,5.89193,0,0,0-.71511,1.42565,3.40667,3.40667,0,0,0-.14276.712l-.01823.34674.027.4422a16.32462,16.32462,0,0,0,.46778,3.44235,13.70384,13.70384,0,0,0,1.246,3.17972,17.78276,17.78276,0,0,0,2.012,2.839,33.031,33.031,0,0,0,5.20961,4.87724,128.22481,128.22481,0,0,0,12.07808,8.10766.08035.08035,0,0,1,.02734.11028.08132.08132,0,0,1-.103.0312,82.24567,82.24567,0,0,1-12.7766-7.21381,34.419,34.419,0,0,1-5.64492-4.85983,15.47984,15.47984,0,0,1-3.7121-6.65315,18.00857,18.00857,0,0,1-.50739-3.78279l-.018-.47.0368-.56475a5.07129,5.07129,0,0,1,.24067-1.06734,7.49356,7.49356,0,0,1,.95261-1.81038,22.38108,22.38108,0,0,1,5.57518-5.08636,76.02363,76.02363,0,0,1,13.03653-6.80888l-.07628.5783a25.73758,25.73758,0,0,0-11.52315-4.99336,59.23357,59.23357,0,0,0-6.31469-.77411c-2.11682-.146-4.23831-.17489-6.35734-.2062-4.23982-.0375-8.48771.07-12.73243.36509-2.12371.127-4.248.28705-6.36832.50178q-3.184.2923-6.36646.67655a.08047.08047,0,0,1-.091-.06823A.08213.08213,0,0,1,406.77456,205.87953Z"/><path d="M451.35129,213.20748a.404.404,0,0,1-.20843-.05794c-9.57619-5.83489-41.483-2.58332-41.804-2.54967a.41362.41362,0,0,1-.44067-.357.40174.40174,0,0,1,.35749-.44114c1.3225-.13833,32.497-3.31139,42.305,2.66182a.40137.40137,0,0,1-.20935.744Z"/><path d="M530.39147,363.27167a99.91712,99.91712,0,0,1,6.09424,26.7904,120.66985,120.66985,0,0,1-.548,27.53892,103.293,103.293,0,0,1-7.39852,26.487,64.10793,64.10793,0,0,1-6.79217,11.971,32.7466,32.7466,0,0,1-10.12833,9.34487,19.88974,19.88974,0,0,1-6.612,2.302,17.87366,17.87366,0,0,1-7.04055-.31835,25.11737,25.11737,0,0,1-11.86066-7.30389,49.44738,49.44738,0,0,1-7.99457-11.37932,76.67026,76.67026,0,0,1-5.23287-12.83443,110.09408,110.09408,0,0,1-4.54731-27.19837,115.82563,115.82563,0,0,1,1.86411-27.42116.0803.0803,0,0,1,.15831.02664,133.63747,133.63747,0,0,0-.75308,27.3208,116.68094,116.68094,0,0,0,4.91731,26.76027,80.527,80.527,0,0,0,5.07257,12.579,47.88959,47.88959,0,0,0,7.60332,11.10735,24.28566,24.28566,0,0,0,11.08655,7.11638,17.47211,17.47211,0,0,0,6.579.4693,18.87283,18.87283,0,0,0,6.3501-1.99578,30.55869,30.55869,0,0,0,10.08779-8.91285,54.73717,54.73717,0,0,0,6.73212-11.85482,79.553,79.553,0,0,0,4.23258-12.98829,114.535,114.535,0,0,0,2.35935-13.44894c.57585-4.51624.84152-9.06484.97271-13.61379a129.19179,129.19179,0,0,0-.33833-13.6493,118.80384,118.80384,0,0,0-5.01451-26.84006.08023.08023,0,0,1,.051-.1014A.08157.08157,0,0,1,530.39147,363.27167Z"/><path d="M514.13268,380.42851a61.25,61.25,0,0,1,2.77725,10.61515,86.22916,86.22916,0,0,1,.87972,10.96587,73.66111,73.66111,0,0,1-2.06845,21.92508,51.29531,51.29531,0,0,1-3.891,10.36923,28.20443,28.20443,0,0,1-3.00273,4.67746,14.57271,14.57271,0,0,1-4.16668,3.70557,7.78983,7.78983,0,0,1-5.4955.89152,10.15659,10.15659,0,0,1-4.83237-2.79209,28.68872,28.68872,0,0,1-5.92788-9.33272,57.24643,57.24643,0,0,1-3.25543-10.57123,79.10044,79.10044,0,0,1-1.52507-10.95056A98.16861,98.16861,0,0,1,483.457,398.875a46.71367,46.71367,0,0,1,1.63011-11.03083,37.48981,37.48981,0,0,1,4.56694-10.22705,22.30428,22.30428,0,0,1,8.25452-7.59852,10.92164,10.92164,0,0,1,5.54036-1.24656,8.57844,8.57844,0,0,1,5.12888,2.24158,16.13959,16.13959,0,0,1,3.358,4.38224A31.73156,31.73156,0,0,1,514.13268,380.42851Zm-.1805.06356c-1.23511-3.38639-2.88589-6.82162-5.697-9.09043a7.89971,7.89971,0,0,0-4.84044-1.78888,9.76567,9.76567,0,0,0-4.9395,1.46387,22.60609,22.60609,0,0,0-7.30272,7.511,38.598,38.598,0,0,0-4.13467,9.79549,48.862,48.862,0,0,0-1.56843,10.59365,96.241,96.241,0,0,0-.02944,10.83946,75.7424,75.7424,0,0,0,3.97708,21.23533,35.3619,35.3619,0,0,0,2.234,4.91673,19.20244,19.20244,0,0,0,3.162,4.32954,9.5242,9.5242,0,0,0,4.48341,2.69325,6.86211,6.86211,0,0,0,5.06312-.83848,13.16031,13.16031,0,0,0,3.86737-3.63371,26.84448,26.84448,0,0,0,2.6735-4.66964,50.847,50.847,0,0,0,3.28545-10.28534,111.67585,111.67585,0,0,0,2.38132-21.5524,82.80847,82.80847,0,0,0-.16321-10.90138A45.67528,45.67528,0,0,0,513.95218,380.49207Z"/><path d="M507.98632,392.252c1.71988,4.88473,1.70671,7.953,1.70671,12.69771,0,11.91638-3.99832,21.57606-8.93074,21.57606-4.93678,0-8.9351-9.65968-8.9351-21.57606,0-1.39026.05409-2.75.15807-4.06716a22.09617,22.09617,0,0,1,2.92668-9.55881C497.50711,386.94815,504.30446,381.79485,507.98632,392.252Z"/><path d="M330.00623,200.74329a110.02609,110.02609,0,0,1-21.70124,18.935,78.571,78.571,0,0,1-12.80674,6.69976,54.95961,54.95961,0,0,1-13.88845,3.8821l.06788-.5755c2.77327.93463,5.48229,2.01108,8.163,3.18428a62.17582,62.17582,0,0,1,7.80367,4.06212,27.03549,27.03549,0,0,1,6.841,5.75264,9.62275,9.62275,0,0,1,2.03457,4.26155,9.9767,9.9767,0,0,1,.09533,1.23967l-.01706,1.06769c-.001.7102.01122,1.41947.0597,2.12055a15.80427,15.80427,0,0,0,.716,4.03818,3.37345,3.37345,0,0,0,2.29031,2.447,4.60073,4.60073,0,0,0,1.80079-.10117,10.20358,10.20358,0,0,0,1.8744-.73532,21.41753,21.41753,0,0,0,3.535-2.30327,108.02865,108.02865,0,0,0,12.397-12.11266.08022.08022,0,0,1,.11333-.006.08172.08172,0,0,1,.01051.108c-1.74822,2.32746-3.54691,4.6243-5.48,6.81379a56.11317,56.11317,0,0,1-6.22146,6.22006,22.75573,22.75573,0,0,1-3.67145,2.58261,7.387,7.387,0,0,1-4.66134,1.12179,4.16729,4.16729,0,0,1-2.31215-1.3107,6.68111,6.68111,0,0,1-1.26082-2.14077,15.78461,15.78461,0,0,1-.83988-4.51331c-.04965-.74934-.06063-1.49459-.05771-2.23762l.02056-1.11232a9.00786,9.00786,0,0,0-.055-.93206,8.02522,8.02522,0,0,0-1.63454-3.54446,26.60151,26.60151,0,0,0-6.33339-5.55344,84.54561,84.54561,0,0,0-15.40652-7.85636l-.01262-.00491a.29624.29624,0,0,1,.0805-.57071,40.86469,40.86469,0,0,0,13.66869-3.92836,93.05521,93.05521,0,0,0,12.30076-7.2492c3.95663-2.64862,7.78615-5.49608,11.50351-8.4918q2.80844-2.2226,5.50893-4.58528,2.72381-2.33459,5.35787-4.78132a.08028.08028,0,0,1,.11356.0014A.08222.08222,0,0,1,330.00623,200.74329Z"/><path d="M375.561,374.93115a17.26618,17.26618,0,0,1-.72165-5.40449,22.92421,22.92421,0,0,1,.69851-5.44175c.20994-.894.52375-1.76107.818-2.629a22.23382,22.23382,0,0,1,1.15777-2.496,18.01857,18.01857,0,0,1,3.23509-4.39065c-.72433,1.67719-1.5065,3.2511-2.09578,4.9103a40.44748,40.44748,0,0,0-1.55931,4.99418,45.49286,45.49286,0,0,0-1.01033,5.14443C375.839,371.36122,375.66606,373.11855,375.561,374.93115Z"/><path d="M394.20254,215.85353a2.61588,2.61588,0,0,1-.60027,1.31467,4.25356,4.25356,0,0,1-1.10017.946,3.98476,3.98476,0,0,1-1.37017.4922,3.69682,3.69682,0,0,1-1.4683-.05187l.12828-.0694a10.92179,10.92179,0,0,1-1.80792,3.86843,4.54131,4.54131,0,0,1-1.69541,1.41152,3.651,3.651,0,0,1-2.25526.197l.37689-.18985a12.96592,12.96592,0,0,1-2.74185,4.38621,5.8623,5.8623,0,0,1-2.23645,1.49436,4.4812,4.4812,0,0,1-2.75189-.01449l.34581-.03669a13.93113,13.93113,0,0,1-2.3729,1.051,8.58227,8.58227,0,0,1-2.56941.47526,4.66068,4.66068,0,0,1-2.59348-.63543,4.52468,4.52468,0,0,1-1.59844-2.12044.25233.25233,0,0,1,.06951-.286c1.17307-1.0066,2.35923-1.99847,3.5163-3.023l-.0597.1486a11.42327,11.42327,0,0,0-.56077-2.58191,6.60814,6.60814,0,0,0-1.26011-2.29626,3.8802,3.8802,0,0,0-2.19217-1.27168,5.29189,5.29189,0,0,0-2.56357.245l.04988-.02512a13.48959,13.48959,0,0,1-2.77549,1.55686,4.25025,4.25025,0,0,1-1.62567.34347l-.45364-.0771a2.87878,2.87878,0,0,1-.43052-.22864,2.28134,2.28134,0,0,1-.32314-.36894l-.1909-.43028a.23161.23161,0,0,1,.05246-.26193l.03738-.03516a18.73311,18.73311,0,0,0,2.5256-2.80377,3.23356,3.23356,0,0,0,.40609-.7581.81235.81235,0,0,0,.055-.34184l-.03154-.46054a7.75925,7.75925,0,0,1,.01659-2.03095,2.58245,2.58245,0,0,1,1.22669-1.85453,3.79858,3.79858,0,0,1,2.116-.37338,12.53029,12.53029,0,0,0,1.868.05677,3.35221,3.35221,0,0,0,1.60277-.46976,1.51376,1.51376,0,0,0,.49337-.52421,4.374,4.374,0,0,1,.60061-.89549,4.73027,4.73027,0,0,1,1.79005-1.19177,3.19986,3.19986,0,0,1,1.11232-.23,3.00894,3.00894,0,0,1,.56043.054.63205.63205,0,0,0,.27817-.01449,1.731,1.731,0,0,0,1.00472-1.00753,4.953,4.953,0,0,1,1.21455-1.74939,4.13825,4.13825,0,0,1,1.934-.96593,5.43738,5.43738,0,0,1,1.058-.11076l.51124.01881a1.02675,1.02675,0,0,0,.3214-.03458,1.13615,1.13615,0,0,0,.8074-.97925l-.002.04322.00012-.00946v-.01916l.00163-.0208a2.57851,2.57851,0,0,1,1.00671-1.66235,2.26886,2.26886,0,0,1,1.86879-.44044,3.49951,3.49951,0,0,1,1.58466.85787,6.98188,6.98188,0,0,1,1.1198,1.269c.64747.91862,1.118,1.87545,1.69939,2.76264a20.47487,20.47487,0,0,0,1.90886,2.55212l-.02582-.0229a16.67847,16.67847,0,0,1,3.07119,3.24748,8.10533,8.10533,0,0,1,1.04935,1.97277A4.91582,4.91582,0,0,1,394.20254,215.85353Zm-.09475-.0132a5.96581,5.96581,0,0,0-1.37425-4.06084,14.291,14.291,0,0,0-3.13884-3.05542.25932.25932,0,0,1-.02616-.02313,21.92972,21.92972,0,0,1-2.08726-2.49978c-.64618-.877-1.18838-1.82778-1.82884-2.63051a4.36585,4.36585,0,0,0-2.28025-1.7314,1.38049,1.38049,0,0,0-1.15123.31334,1.71936,1.71936,0,0,0-.6144,1.03381l.00163-.0396v.00946c0,.01262-.00093.031-.002.04346a2.09767,2.09767,0,0,1-1.50195,1.82521,1.99536,1.99536,0,0,1-.63333.071l-.45352-.01473a4.472,4.472,0,0,0-.85776.0944,3.36365,3.36365,0,0,0-2.43342,2.15,2.687,2.687,0,0,1-1.67544,1.59517,1.64153,1.64153,0,0,1-.67819.03715,1.93647,1.93647,0,0,0-.3985-.04007,2.36155,2.36155,0,0,0-.769.156,3.79081,3.79081,0,0,0-1.41374.90086,3.39459,3.39459,0,0,0-.47994.69829,2.46151,2.46151,0,0,1-.82013.86371,6.36583,6.36583,0,0,1-4.04846.514,2.97317,2.97317,0,0,0-1.64261.23868,1.753,1.753,0,0,0-.83742,1.25241,7.042,7.042,0,0,0-.05187,1.8175l.02137.50306a1.62755,1.62755,0,0,1-.10841.60143,3.91386,3.91386,0,0,1-.51942.9282,18.55969,18.55969,0,0,1-2.73472,2.82924l.08972-.29674a.89179.89179,0,0,0,.86418.72994,3.78727,3.78727,0,0,0,1.42683-.26263,13.10233,13.10233,0,0,0,2.72444-1.41409l.01659-.01075a.10949.10949,0,0,1,.03364-.0146,5.81522,5.81522,0,0,1,2.74267-.21544,4.19893,4.19893,0,0,1,2.35339,1.40031,7.603,7.603,0,0,1,1.33383,2.38681,11.73068,11.73068,0,0,1,.62165,2.659.16886.16886,0,0,1-.05468.14417l-.00526.00479c-1.15239,1.02984-2.2757,2.09228-3.4122,3.14011l.06939-.28564a3.36083,3.36083,0,0,0,3.68127,2.22336,11.22674,11.22674,0,0,0,4.54521-1.51994.43794.43794,0,0,1,.3374-.03925l.00876.00257a3.629,3.629,0,0,0,2.20876-.01577,5.07579,5.07579,0,0,0,1.95045-1.25135,10.37773,10.37773,0,0,0,1.53022-1.88924,17.04514,17.04514,0,0,0,1.18487-2.15607l.00479-.01051a.32.32,0,0,1,.37234-.17945,3.07159,3.07159,0,0,0,1.88724-.06566,4.05538,4.05538,0,0,0,1.58163-1.19352,10.53246,10.53246,0,0,0,1.93152-3.65719.10608.10608,0,0,1,.12851-.06963,3.55145,3.55145,0,0,0,1.37893.06951,3.82251,3.82251,0,0,0,1.3225-.44839A3.24123,3.24123,0,0,0,394.10779,215.84033Z"/><path d="M371.50312,217.01387a10.48063,10.48063,0,0,1,3.07843,1.98106,9.12682,9.12682,0,0,1,2.17359,2.99023,9.35282,9.35282,0,0,1,.84245,3.63465,12.425,12.425,0,0,1-.06274,1.87883c-.07956.62013-.2208,1.23056-.33039,1.84916a.4011.4011,0,0,1-.78988-.14007l.00374-.01858.01262-.05468c.13283-.57666.30083-1.15122.4089-1.73466a11.81559,11.81559,0,0,0,.15608-1.77019,8.92689,8.92689,0,0,0-2.55457-6.49122A10.37963,10.37963,0,0,0,371.50312,217.01387Z"/><path d="M377.318,213.64407a20.61714,20.61714,0,0,1,2.5388,1.86891,17.87914,17.87914,0,0,1,2.23259,2.25175,12.52851,12.52851,0,0,1,1.71609,2.70983,8.52016,8.52016,0,0,1,.7109,3.19631.40149.40149,0,1,1-.80284.01543c-.00023-.00783-.00012-.01554.00023-.02325l.00082-.01986a7.82618,7.82618,0,0,0-.4665-2.94175,12.03722,12.03722,0,0,0-1.47636-2.69172,17.582,17.582,0,0,0-2.0501-2.34861A20.52268,20.52268,0,0,0,377.318,213.64407Z"/><path d="M382.96013,210.27439l7.36136,7.997a.40141.40141,0,0,1-.59068.54372l-.01928-.02255Z"/><path d="M332.297,188.2938a1.20419,1.20419,0,0,0,0-2.40694,1.20419,1.20419,0,0,0,0,2.40694Z"/><path d="M337.496,187.71614a1.2042,1.2042,0,0,0,0-2.40695,1.2042,1.2042,0,0,0,0,2.40695Z"/><path d="M342.88753,187.331a1.2042,1.2042,0,0,0,0-2.40695,1.2042,1.2042,0,0,0,0,2.40695Z"/><path d="M348.47165,187.04219a1.20419,1.20419,0,0,0,0-2.40694,1.20419,1.20419,0,0,0,0,2.40694Z"/><path d="M354.24832,186.65708a1.20419,1.20419,0,0,0,0-2.40694,1.20419,1.20419,0,0,0,0,2.40694Z"/><path d="M449.90036,167.931a1.20419,1.20419,0,0,0,0-2.40694,1.20419,1.20419,0,0,0,0,2.40694Z"/><path d="M447.012,171.54146a1.2042,1.2042,0,0,0,0-2.40695,1.2042,1.2042,0,0,0,0,2.40695Z"/><path d="M443.83485,175.2963a1.2042,1.2042,0,0,0,0-2.40695,1.2042,1.2042,0,0,0,0,2.40695Z"/><path d="M440.08,179.34a1.2042,1.2042,0,0,0,0-2.40695,1.2042,1.2042,0,0,0,0,2.40695Z"/><path d="M437.04726,182.95038a1.20419,1.20419,0,0,0,0-2.40694,1.20419,1.20419,0,0,0,0,2.40694Z"/><path d="M289.1645,231.61883a1.20419,1.20419,0,0,0,0-2.40694,1.20419,1.20419,0,0,0,0,2.40694Z"/><path d="M294.94117,233.35184a1.2042,1.2042,0,0,0,0-2.407,1.2042,1.2042,0,0,0,0,2.407Z"/><path d="M300.57342,236.24017a1.2042,1.2042,0,0,0,0-2.40695,1.2042,1.2042,0,0,0,0,2.40695Z"/><path d="M306.20568,240.42826a1.2042,1.2042,0,0,0,0-2.40695,1.2042,1.2042,0,0,0,0,2.40695Z"/><path d="M309.38285,247.07143a1.2042,1.2042,0,0,0,0-2.40695,1.2042,1.2042,0,0,0,0,2.40695Z"/><path d="M310.39376,254.43668a1.20419,1.20419,0,0,0,0-2.40694,1.20419,1.20419,0,0,0,0,2.40694Z"/><path d="M368.52858,340.27675a1.377,1.377,0,0,0,0-2.75228,1.377,1.377,0,0,0,0,2.75228Z"/><path d="M376.60277,345.33272a1.377,1.377,0,0,0,0-2.75228,1.377,1.377,0,0,0,0,2.75228Z"/><path d="M384.493,349.73313a1.377,1.377,0,0,0,0-2.75229,1.377,1.377,0,0,0,0,2.75229Z"/><path d="M393.52935,353.77039a1.377,1.377,0,0,0,0-2.75228,1.377,1.377,0,0,0,0,2.75228Z"/><path d="M403.1741,355.973a1.377,1.377,0,0,0,0-2.75228,1.377,1.377,0,0,0,0,2.75228Z"/><path d="M413.45084,357.16641a1.377,1.377,0,0,0,0-2.75228,1.377,1.377,0,0,0,0,2.75228Z"/><path d="M188.96821,335.37361q9.89473,2.94461,19.66632,6.23327c6.52335,2.1674,13.009,4.4403,19.48746,6.73364,6.46634,2.327,12.92461,4.67676,19.34551,7.13133q9.64484,3.64347,19.16477,7.63707-9.89561-2.94128-19.66714-6.23046c-6.52323-2.168-13.00885-4.44088-19.48652-6.73633-6.46563-2.32932-12.92391-4.679-19.34457-7.134Q198.48955,339.36324,188.96821,335.37361Z"/><path d="M151.45459,341.76915q9.89456,2.9446,19.6662,6.23315c6.52335,2.16752,13.00909,4.44042,19.48758,6.73376,6.46634,2.327,12.92461,4.67664,19.34551,7.13121q9.64482,3.64365,19.16477,7.63719-9.8956-2.94144-19.66714-6.23046c-6.52323-2.168-13.009-4.44088-19.48652-6.73644-6.46564-2.32921-12.92391-4.67887-19.34457-7.1339Q160.97593,345.75878,151.45459,341.76915Z"/><path d="M191.8603,371.8c3.80358.81067,7.54911,1.80114,11.27441,2.85482,3.72882,1.04234,7.42329,2.19123,11.11121,3.3608,3.67683,1.20357,7.34641,2.43,10.98164,3.76246,3.639,1.3211,7.257,2.70692,10.8168,4.27371-3.8044-.80846-7.55027-1.79788-11.27535-2.85214-3.7287-1.04281-7.42316-2.1917-11.11039-3.36349-3.67612-1.20579-7.34559-2.43225-10.9807-3.76515C199.03906,374.74936,195.42065,373.36459,191.8603,371.8Z"/><path d="M546.25164,391.75807a98.46772,98.46772,0,0,1,2.27932,23.29524,91.82536,91.82536,0,0,1-3.292,23.28193,74.601,74.601,0,0,1-4.17312,11.05548,58.16359,58.16359,0,0,1-6.12158,10.10858,52.41311,52.41311,0,0,1-8.064,8.59437l-2.2854,1.85454c-.79292.57655-1.60709,1.124-2.40737,1.6856l-1.20392.836-1.26443.74338-2.53974,1.45253a61.32347,61.32347,0,0,0,16.55542-16.04312,69.63978,69.63978,0,0,0,9.66463-20.81229,104.06548,104.06548,0,0,0,3.64435-22.80935c.1965-3.86317.24674-7.74141.10888-11.61918A115.636,115.636,0,0,0,546.25164,391.75807Z"/><path d="M281.57954,374.46932c.173,5.36827.6387,10.69845,1.26923,15.98973a118.02359,118.02359,0,0,0,2.93706,15.654,59.5579,59.5579,0,0,0,5.81713,14.66606,32.1385,32.1385,0,0,0,4.69346,6.32007,26.97012,26.97012,0,0,0,6.2418,4.91567,26.25809,26.25809,0,0,1-12.20414-10.44773,44.947,44.947,0,0,1-3.80358-7.23613,69.6406,69.6406,0,0,1-2.59336-7.72621,87.74345,87.74345,0,0,1-2.56929-16.00106A91.20527,91.20527,0,0,1,281.57954,374.46932Z"/><path d="M456.20364,415.31758q.85395,7.40979,2.39078,14.64211a103.09822,103.09822,0,0,0,4.013,14.16242,59.90666,59.90666,0,0,0,2.87317,6.73749,47.626,47.626,0,0,0,3.6704,6.3133,37.54167,37.54167,0,0,0,4.67641,5.61139,35.13819,35.13819,0,0,0,5.805,4.552,27.31526,27.31526,0,0,1-6.42954-3.84973,32.66333,32.66333,0,0,1-5.25658-5.43077,49.24049,49.24049,0,0,1-7.13425-13.27335,80.802,80.802,0,0,1-4.60841-29.46484Z"/><path d="M373.00378,411.95923a38.89347,38.89347,0,0,1-2.65259,12.16067,37.67034,37.67034,0,0,1-6.33456,10.86459,32.3885,32.3885,0,0,1-4.556,4.41646,29.38446,29.38446,0,0,1-5.36979,3.364,29.876,29.876,0,0,1-12.10191,2.95927,41.36136,41.36136,0,0,0,11.4041-4.2799,34.14491,34.14491,0,0,0,9.16355-7.696,44.68443,44.68443,0,0,0,6.42464-10.20917A61.92008,61.92008,0,0,0,373.00378,411.95923Z"/></svg>