<svg id="Layer_1" data-name="Layer 1" xmlns="http://www.w3.org/2000/svg" viewBox="0 0 700 550"><title>girls taking selfie</title><path d="M353.9829,78.25119s-6.23949,24.958-34.88441,29.49576c0,0-5.38865-1.98529-2.26891,4.82142s3.97059,13.61343,5.95588,10.21007c0,0,0,21.83821-11.06091,28.07769,0,0,9.35923-13.32981-5.38865-20.13652,0,0,.56723-8.5084-8.792-9.92646,0,0,9.92645-16.44956,11.06091-25.52518s14.18065-39.70583,38.28776-28.36131c0,0,16.166-3.687,24.67434,15.88234s7.65755,22.40543,8.22478,31.19743-.85084,40.55667,5.105,45.3781a66.43451,66.43451,0,0,0-39.70583,3.11974l1.70168-12.19536s20.70375,4.53781,26.65963-29.77937c0,0,1.13445-14.18066-1.70168-19.56931s-1.70168-13.32981-2.83613-15.03149S353.9829,78.25119,353.9829,78.25119Z"/><path d="M331.8611,110.29946a8.62988,8.62988,0,0,1,4.34719-2.89727,19.44383,19.44383,0,0,1,5.142-1.01426c.86853-.06736,1.73553-.0552,2.60172-.04865.86233.07438,1.72664.08748,2.58055.21988.8532.12351,1.704.26245,2.54382.45146.8366.22081,1.67027.436,2.48675.73636-.86922.12164-1.72114.15813-2.57014.2007-.8477.03228-1.69167.09965-2.5292.10526l-2.50278.10058c-.827.06644-1.65787.07486-2.47867.1455a47.6102,47.6102,0,0,0-4.89128.54268A15.26954,15.26954,0,0,0,331.8611,110.29946Z"/><path d="M362.775,107.24453a6.68164,6.68164,0,0,1,1.9436-1.57471,8.88334,8.88334,0,0,1,2.28921-.8814,7.03274,7.03274,0,0,1,2.5154-.15625,3.44672,3.44672,0,0,1,2.32734,1.12934,10.86905,10.86905,0,0,0-2.27365.3766l-2.137.51649c-.72315.16888-1.46326.31531-2.23.43414A12.7293,12.7293,0,0,1,362.775,107.24453Z"/><path d="M343.77283,114.87549c3.699,0,3.70513-5.74869,0-5.74869-3.699,0-3.70514,5.74869,0,5.74869Z"/><path d="M367.59632,113.741c3.699,0,3.70514-5.7487,0-5.7487-3.699,0-3.70513,5.7487,0,5.7487Z"/><path d="M361.07322,116.96416a9.09726,9.09726,0,0,1,3.57621,4.6348,5.51706,5.51706,0,0,1,.1807.81729,2.99266,2.99266,0,0,1-.04363.9904,3.13878,3.13878,0,0,1-.90583,1.56817,4.45826,4.45826,0,0,1-2.80745,1.207A13.31057,13.31057,0,0,0,362.704,124.034a2.22818,2.22818,0,0,0,.29017-.92911,1.43444,1.43444,0,0,0-.03485-.4028,4.25392,4.25392,0,0,0-.14246-.54549c-.23918-.76865-.57929-1.60232-.89812-2.45611A20.04733,20.04733,0,0,1,361.07322,116.96416Z"/><path d="M352.28118,120.65113c-.15918.66385-.33883,1.18548-.47333,1.67015a6.30236,6.30236,0,0,0-.25766,1.23086,2.4299,2.4299,0,0,0,.11579,1.07134,5.10617,5.10617,0,0,0,.25181.70221,8.98552,8.98552,0,0,1,.36339.85613,3.017,3.017,0,0,1-.98479-.14971,2.71459,2.71459,0,0,1-.86665-.54736,2.50831,2.50831,0,0,1-.78876-2.08933,3.05391,3.05391,0,0,1,.90537-1.88863A2.9174,2.9174,0,0,1,352.28118,120.65113Z"/><path d="M349.30332,132.13776a69.81457,69.81457,0,0,0,8.02165.56046,15.90392,15.90392,0,0,0,3.75994-.49871,12.68732,12.68732,0,0,0,3.53352-1.76372,6.54538,6.54538,0,0,1-2.96475,3.14663,9.8508,9.8508,0,0,1-4.284,1.03109,13.29193,13.29193,0,0,1-4.2576-.61145A11.99093,11.99093,0,0,1,349.30332,132.13776Z"/><path d="M329.734,137.668c2.471,1.77447,4.761,3.51106,7.09932,5.26028,1.17542.85893,2.32067,1.76184,3.49059,2.65165,1.16022.90619,2.33213,1.8063,3.449,2.86546a18.84772,18.84772,0,0,1-4.247-1.60091,25.8941,25.8941,0,0,1-3.84369-2.385,24.93606,24.93606,0,0,1-3.35469-3.04884A14.72379,14.72379,0,0,1,329.734,137.668Z"/><path d="M345.19086,162.48448a1.57638,1.57638,0,0,1-.05625,1.19952,2.86868,2.86868,0,0,1-.754.98571,4.49317,4.49317,0,0,1-2.13155.93052,5.63614,5.63614,0,0,1-4.16895-.97262,9.42422,9.42422,0,0,1,2.02185-.611c.64315-.1221,1.25109-.23017,1.84512-.30783.58046-.1062,1.14162-.18526,1.6698-.33216A2.89966,2.89966,0,0,0,345.19086,162.48448Z"/><path d="M297.55128,120.88879a14.52188,14.52188,0,0,0-2.98827.65075,17.03314,17.03314,0,0,0-2.79937,1.22244,20.994,20.994,0,0,0-4.873,3.62989.3105.3105,0,0,1-.26046.08936l-.02117-.00281c-.93531-.12585-1.86676-.2807-2.80031-.38409l-1.40723-.036a7.69094,7.69094,0,0,0-1.40069.03181l-1.39191.13942c-.462.0538-.90677.20023-1.36021.29426l-.67649.15953c-.22034.06877-.43274.16281-.64923.24234a13.32163,13.32163,0,0,0-1.28033.52116,12.69194,12.69194,0,0,0-4.31363,3.37539,14.11436,14.11436,0,0,0-2.63423,4.77467.604.604,0,0,1-.48409.4159l-.03309.00468c-1.18818.182-2.39635.26573-3.56405.5221a20.11125,20.11125,0,0,0-3.40791,1.0704,15.98452,15.98452,0,0,0-5.832,3.93023,18.23921,18.23921,0,0,0-3.807,5.934,22.40634,22.40634,0,0,0-1.56173,6.89628.80894.80894,0,0,1-.47777.69426l-.03018.01357c-1.05367.4697-2.13295.89215-3.166,1.39506l-1.48232.87064-.74186.43367c-.23637.15907-.45063.3476-.6773.51929l-1.344,1.05122c-.40713.39251-.78618.81309-1.182,1.21589a7.66534,7.66534,0,0,0-.57274.62268l-.49145.68724a9.20829,9.20829,0,0,0-.92245,1.40911,15.19935,15.19935,0,0,0-1.97085,6.40973c-.02783.56561-.05473,1.13215-.06631,1.69869.0352.56655.01941,1.13589.088,1.70056a16.914,16.914,0,0,0,.59414,3.30429l.01123.0393a.84434.84434,0,0,1-.27181.88045,26.69391,26.69391,0,0,0-5.22414,5.7094,17.85571,17.85571,0,0,0-1.792,3.38849,15.76768,15.76768,0,0,0-1.01823,3.6748,18.01541,18.01541,0,0,0,.48935,7.60037,21.61156,21.61156,0,0,0,3.35738,6.91265.703.703,0,0,1-.098.945l-.00936.00795c-.91.80093-1.8767,1.549-2.74663,2.39108l-1.23062,1.33612c-.20269.225-.41743.4407-.61076.67274l-.5228.73917c-.34549.495-.70654.98151-1.04244,1.483l-.84349,1.60092a19.75335,19.75335,0,0,0-1.25051,3.38615,18.32279,18.32279,0,0,0-.427,7.21066,21.1064,21.1064,0,0,0,2.16208,6.93l-.263-.181c5.98881.9815,12.03235,1.72956,18.08607,2.2395a115.91584,115.91584,0,0,0,18.19028.26993,35.4989,35.4989,0,0,0,8.86117-1.6388,13.47666,13.47666,0,0,0,6.85745-5.38753,18.45772,18.45772,0,0,0,2.73037-8.38913,30.12538,30.12538,0,0,0-.50877-8.90327.58713.58713,0,0,1,.191-.56514l.00853-.007a22.81726,22.81726,0,0,0,4.48158-5.27806,16.087,16.087,0,0,0,2.3581-6.40319,13.2557,13.2557,0,0,0-.02585-3.38194,13.92776,13.92776,0,0,0-.91437-3.2589,19.34977,19.34977,0,0,0-3.84826-5.6542.77738.77738,0,0,1-.02-1.05308l.02573-.02854a25.50889,25.50889,0,0,0,3.23821-4.64789,23.9217,23.9217,0,0,0,2.11108-5.24905,17.09324,17.09324,0,0,0,.56748-5.548l-.12129-1.38806-.29532-1.36091c-.05239-.226-.08865-.45614-.15356-.67882l-.23544-.65637-.46631-1.3146-.01462-.04117a.91941.91941,0,0,1,.55906-1.17379,1.06751,1.06751,0,0,1,.12281-.03415c1.61015-.32982,3.252-.75835,4.84344-1.2477a39.5337,39.5337,0,0,0,4.66812-1.73705,17.59193,17.59193,0,0,0,4.12229-2.48418,4.224,4.224,0,0,0,1.82126-3.55083.97082.97082,0,0,1,1.59658-.865l.04094.03555a18.7079,18.7079,0,0,0,3.43633,2.34242,12.23011,12.23011,0,0,0,3.83433,1.353,7.10446,7.10446,0,0,0,3.77012-.40888l.85286-.41778.76619-.5904a3.36681,3.36681,0,0,0,.70888-.676l.66934-.73637.048-.05239a1.013,1.013,0,0,1,1.76173.72326,49.35909,49.35909,0,0,0,.71566,11.95493c.10234.47859.24491.93706.36713,1.40442a11.78391,11.78391,0,0,0,.512,1.2987l.30105.603.36806.50292c.09205.146.31345.40794.47918.62174a6.16668,6.16668,0,0,1,.49777.68163,23.61777,23.61777,0,0,1,2.627,5.84133A35.74677,35.74677,0,0,1,328.439,188.66a22.5749,22.5749,0,0,1-.43964,3.178l-.40362,1.55226c-.14105.4711-.2676.95624-.39192,1.44279-.485,1.9574-.90151,3.96626-1.35215,5.969a79.38649,79.38649,0,0,1-3.42884,11.92592,27.922,27.922,0,0,1-2.91563,5.59805,12.66132,12.66132,0,0,1-4.81128,4.30918,9.27552,9.27552,0,0,1-3.20054.84911c-1.03824.10526-2.02863.12865-3.03505.269a34.49431,34.49431,0,0,0-5.91852,1.13215,17.54806,17.54806,0,0,0-5.372,2.4795,7.42815,7.42815,0,0,0-3.20674,4.59081l-.18152-.46736a10.93283,10.93283,0,0,0,3.09212,1.27156c.56362.1338,1.12373.283,1.70127.36912q.85683.16913,1.73085.25778a41.81714,41.81714,0,0,0,7.03932.1745c1.17764-.04959,2.35225-.18152,3.52884-.27883,1.17028-.16,2.3464-.28631,3.514-.47344,1.16431-.20678,2.33494-.38456,3.49586-.6152l3.476-.73356a.09577.09577,0,0,1,.11614.06971.09923.09923,0,0,1-.07052.11649l-3.46043.83788c-1.15694.26573-2.32593.47906-3.4893.7214-1.16712.22222-2.3457.38455-3.51925.5801-1.182.13334-2.36219.30129-3.55095.3869a42.50947,42.50947,0,0,1-7.16563.03275,23.12,23.12,0,0,1-3.57224-.56467,11.43323,11.43323,0,0,1-3.47153-1.37916.42768.42768,0,0,1-.18842-.4276l.00667-.04023a8.46439,8.46439,0,0,1,3.51726-5.3197,18.69213,18.69213,0,0,1,5.67174-2.76862,35.77827,35.77827,0,0,1,6.11009-1.30056c1.02045-.16374,2.08126-.2138,3.078-.33637a8.04525,8.04525,0,0,0,2.6926-.756,11.18,11.18,0,0,0,4.17421-3.86333,26.4035,26.4035,0,0,0,2.67727-5.31315,77.82049,77.82049,0,0,0,3.20347-11.71072c.42373-1.99857.813-4.006,1.28781-6.03126l.746-2.95154a22.67615,22.67615,0,0,0,.37169-2.90616,33.865,33.865,0,0,0-1.56173-11.76358,21.80559,21.80559,0,0,0-2.398-5.32718,4.57065,4.57065,0,0,0-.4083-.55625l-.45941-.59367-.53683-.73824-.39169-.76771a13.6353,13.6353,0,0,1-.61766-1.5546c-.14081-.52116-.3014-1.04326-.41485-1.56536a38.48641,38.48641,0,0,1-.77788-6.25862c-.1069-2.08746-.11333-4.14638-.01591-6.25068l1.80957.6704-.80923.90525a4.73754,4.73754,0,0,1-.88326.84256l-.98712.75321-1.12654.56327a8.92389,8.92389,0,0,1-4.885.53894,14.20391,14.20391,0,0,1-4.45269-1.59343,20.48052,20.48052,0,0,1-3.82626-2.65634l1.6374-.82946a5.06154,5.06154,0,0,1-.64841,3.03247,8.075,8.075,0,0,1-1.86769,2.19506,19.37193,19.37193,0,0,1-4.60146,2.74663,41.4352,41.4352,0,0,1-4.90262,1.78758c-1.66407.49683-3.32043.91928-5.04555,1.26033l.66713-1.24911.51052,1.461.25286.73075c.07029.248.11158.50432.1683.756l.31473,1.51717.1269,1.54337a18.858,18.858,0,0,1-.6642,6.0977,24.669,24.669,0,0,1-2.3395,5.60881,26.93318,26.93318,0,0,1-3.55656,4.92906l.00573-1.08163a20.84065,20.84065,0,0,1,4.05749,6.17536,15.356,15.356,0,0,1,.95683,3.62474,14.62463,14.62463,0,0,1-.02749,3.74826,17.37732,17.37732,0,0,1-2.643,6.88271,23.90547,23.90547,0,0,1-4.83035,5.50823l.1993-.57216a30.96516,30.96516,0,0,1,.39087,9.26444,19.36781,19.36781,0,0,1-3.014,8.75356,14.38287,14.38287,0,0,1-7.32224,5.5873,36.12961,36.12961,0,0,1-9.0497,1.6243,130.01068,130.01068,0,0,1-18.28829-.31391q-9.11936-.69543-18.16361-2.1029l-.00959-.0014a.352.352,0,0,1-.2538-.17965A22.3352,22.3352,0,0,1,223.44609,224.5a19.29619,19.29619,0,0,1,.29906-7.5868,20.87463,20.87463,0,0,1,1.25238-3.61352l.86162-1.71412c.34257-.53754.71169-1.05917,1.06794-1.58922l.53976-.79157c.19871-.24889.41813-.48.62643-.72046l1.26828-1.43015c.89461-.90151,1.88419-1.7015,2.82511-2.5567l-.10737.953a22.91414,22.91414,0,0,1-3.75761-7.34726,18.70455,18.70455,0,0,1-.63624-8.25627,17.37259,17.37259,0,0,1,1.09027-4.03362,19.49757,19.49757,0,0,1,1.92208-3.69212,28.37129,28.37129,0,0,1,5.51314-6.10752l-.26046.91976a19.93008,19.93008,0,0,1-.70023-7.395,16.88192,16.88192,0,0,1,2.23611-7.07452,10.61834,10.61834,0,0,1,1.03391-1.556l.55262-.75461a8.75713,8.75713,0,0,1,.63368-.68256c.43683-.44163.86-.89917,1.31039-1.32349l1.46676-1.13355c.24725-.18433.484-.38549.74011-.55485l.79683-.46128,1.59507-.91882c1.10033-.52677,2.23938-.96513,3.35738-1.44887l-.50771.70783a23.76764,23.76764,0,0,1,1.72711-7.42306,19.47266,19.47266,0,0,1,4.16392-6.36529,17.33844,17.33844,0,0,1,6.37254-4.13,21.431,21.431,0,0,1,3.638-1.06806c1.23508-.24654,2.49611-.31344,3.74066-.47578l-.517.42011a15.10923,15.10923,0,0,1,2.94873-5.14613,13.68255,13.68255,0,0,1,4.70766-3.54475,12.76094,12.76094,0,0,1,1.38127-.52864c.23356-.07813.46327-.16983.69964-.23672l.72233-.14924c.4828-.087.95858-.225,1.44559-.26854l1.46267-.10386a8.12459,8.12459,0,0,1,1.45869.00936l1.45531.08047c.95893.1338,1.9098.31953,2.86241.47765l-.28128.08655a21.46113,21.46113,0,0,1,5.11385-3.58732,16.882,16.882,0,0,1,2.90359-1.1415,14.81723,14.81723,0,0,1,3.06545-.54549.09579.09579,0,0,1,.02082.1904Z"/><path d="M314.816,148.34994a22.97371,22.97371,0,0,1,5.89349-.09731,17.24487,17.24487,0,0,1,5.76753,1.65471,11.15485,11.15485,0,0,1,4.5535,4.14451,12.52538,12.52538,0,0,1,1.68711,5.93769l-.538-.75928a15.26237,15.26237,0,0,1,2.709,1.51249,15.77589,15.77589,0,0,1,2.368,1.949,13.26355,13.26355,0,0,1,3.28417,5.14847,11.58284,11.58284,0,0,1,.37426,6.00366l-.11251.74338c-.05766.2428-.14292.47859-.2131.71765l-.44373,1.42922c-.36386.9235-.80923,1.81331-1.2118,2.72183l-.0076.0131-.033.04492a10.56832,10.56832,0,0,0-1.525,3.52042,23.634,23.634,0,0,0-.62865,3.8769,46.76561,46.76561,0,0,0,.17064,7.87545c.151,1.30946.30058,2.6161.52666,3.91667.21357,1.27156.34666,2.68581.50339,4.05375a22.47992,22.47992,0,0,1-1.11051,8.253,28.32839,28.32839,0,0,1-3.96007,7.23874c-1.57951,2.22219-3.36159,4.23573-5.09174,6.2619a85.91492,85.91492,0,0,0-9.59952,12.68989.096.096,0,0,1-.13122.03508.097.097,0,0,1-.04024-.1207,61.99424,61.99424,0,0,1,8.50258-13.63771c3.2672-4.21234,6.62377-8.35684,8.39684-13.14789a21.59234,21.59234,0,0,0,1.18993-7.48855c-.152-2.5085-.61228-5.24858-.72537-7.94a41.31411,41.31411,0,0,1,.36584-8.10889,24.50039,24.50039,0,0,1,.91121-3.96814,12.13837,12.13837,0,0,1,1.79413-3.71363l-.04046.05754c.39356-.879.85741-1.73378,1.1967-2.63341l.40374-1.38384c.06386-.23111.143-.45941.19438-.69239l.08562-.71251a9.827,9.827,0,0,0-.70689-5.5391,12.09839,12.09839,0,0,0-3.33586-4.41912,19.61712,19.61712,0,0,0-4.69667-2.96511l-.00912-.00421a.88688.88688,0,0,1-.52911-.75508,11.487,11.487,0,0,0-1.3808-5.18542,10.10376,10.10376,0,0,0-3.80253-3.76791,18.00015,18.00015,0,0,0-5.26179-1.94523,27.37172,27.37172,0,0,0-5.72437-.62362h-.005a.096.096,0,0,1-.014-.19087Z"/><path d="M321.67726,231.12167s-2.721,6.3812-11.18113,30.53526c-1.10186-.211-2.23248-.43134-3.40136-.661-19.28687-3.78475-31.38787,4.53186-36.303,7.933a62.03418,62.03418,0,0,1-11.4878,5.89232,130.71312,130.71312,0,0,0-18.56828,12.95374,208.782,208.782,0,0,0-16.70948,15.32049c-5.0397,5.29817-9.974,10.70208-14.46764,16.46995.45987-1.46571.86244-2.95107,1.22641-4.436.59415-2.51038,1.07321-5.03011,1.466-7.569q.5749-3.80907.85274-7.66493a55.41374,55.41374,0,0,0,.04783-7.78,54.98277,54.98277,0,0,0-2.2802,7.44458c-.59415,2.50055-1.0732,5.03011-1.46595,7.569-.39286,2.52956-.68022,5.08765-.86232,7.65557-.12456,2.05985-.20129,4.11971-.12456,6.21792-2.127,2.66336-4.08159,5.46145-6.0936,8.21089-2.15576,3.08533-4.19656,6.26611-6.18951,9.46653,2.51037-2.82662,4.84812-5.76787,7.31054-8.60385l3.66954-4.27316c1.20724-1.42782,2.45272-2.83646,3.70791-4.22544q1.88277-2.09821,3.72708-4.20626l3.81328-4.12954,1.88746-2.06967,1.945-2.03085c1.29344-1.34127,2.5774-2.71155,3.88989-4.04346l3.938-3.99527c1.30291-1.35109,2.69224-2.59645,4.01445-3.92836,1.3222-1.32209,2.68277-2.60582,4.05281-3.88018,1.36057-1.2842,2.72113-2.57728,4.11035-3.83247,5.53794-5.03993,11.17155-9.98349,17.10234-14.64026a58.82869,58.82869,0,0,0-1.0539,12.65713c0,.08608.00959.17216.00959.25824a34.35433,34.35433,0,0,0,1.39881,8.10563,19.555,19.555,0,0,0,5.34636,8.84385.12238.12238,0,0,1,.03825.02854,12.76078,12.76078,0,0,0,5.74869,3.17142c-7.18587,41.9751-42.35825,111.17-65.04648,127.05558s-50.29148-3.78428-57.47735-40.84436C141.08206,357.047,170.19921,278.38559,178.89886,254.567c8.69976-23.82845,47.27351-23.0715,47.27351-23.0715l37.05984,2.69236s21.17445,52.33239,41.21815-.51742C309.35591,233.77567,313.1789,233.21053,321.67726,231.12167Z"/><path d="M269.5,306.78006c1.55975-1.53495,3.13762-3.05025,4.71854-4.56228,1.58231-1.51015,3.14826-3.03855,4.75022-4.52719a.48219.48219,0,0,1,.682.02526l.003.00281.04187.04632a13.32084,13.32084,0,0,0,3.47481,2.35458c1.29028.68023,2.63622,1.27952,3.98123,1.87086,2.70488,1.1532,5.44893,2.25961,8.2089,3.26638a.773.773,0,0,1,.50549.6559l.00105.014.55929,6.17395a22.79768,22.79768,0,0,0,1.336,5.803,6.54012,6.54012,0,0,0,1.49085,2.25166,4.71835,4.71835,0,0,0,2.38325,1.0718c.46841.09076.973.16234,1.48945.23579l.79531.12631.40877.08421.2042.04258.10059.02058.03274-.0014a.2124.2124,0,0,0,.17895-.01918c.0331-.0103.07134-.072.11859-.09731l.13918-.19883a4.65052,4.65052,0,0,0,.43532-1.23086,28.95028,28.95028,0,0,0,.46409-6.01676c-.00351-2.05565-.08924-4.12112-.17895-6.19126l-.12058-3.11809a11.56286,11.56286,0,0,0-.24-2.99084,9.94583,9.94583,0,0,0-3.28709-4.89116l-.01614-.01356a.32065.32065,0,0,1-.03719-.45193.32437.32437,0,0,1,.287-.11041l2.259.30222.01158.00141a.2213.2213,0,0,1,.05321.014,14.64192,14.64192,0,0,1,4.48076,2.74523,8.3469,8.3469,0,0,1,1.6677,2.08511,6.125,6.125,0,0,1,.68923,2.61845,27.3171,27.3171,0,0,0,1.68512,9.98489,10.7813,10.7813,0,0,0,1.18618,2.16465,5.71911,5.71911,0,0,0,1.7422,1.58594,1.89472,1.89472,0,0,0,.51953.247,5.5307,5.5307,0,0,0,.53262.189,1.65152,1.65152,0,0,0,.95858-.03649,2.98153,2.98153,0,0,0,1.44712-1.52,16.09971,16.09971,0,0,0,1.34255-4.74239,40.37575,40.37575,0,0,0,.4607-5.03338.77569.77569,0,0,1,1.50887-.23017l.00584.01777a12.46257,12.46257,0,0,0,1.72033,3.46709,6.0957,6.0957,0,0,0,2.8623,2.15342,7.55351,7.55351,0,0,0,1.81869.36678c.31906.02947.645.04538.98186.05567l.12538.00421a.21486.21486,0,0,0-.105.00936.28606.28606,0,0,0-.13906.06082c-.02608.02994.03415-.04772.076-.1338a6.65738,6.65738,0,0,0,.43-1.72021c.09216-.648.154-1.316.19719-1.98968.16608-2.69985.12211-5.454.04-8.19732-.09649-2.74429-.23426-5.50168-.415-8.23614a1.02314,1.02314,0,0,1,1.86839-.64093,5.50509,5.50509,0,0,0,1.67214,1.62711,4.59922,4.59922,0,0,0,1.0449.47064,3.94164,3.94164,0,0,0,1.03507.18479,1.1174,1.1174,0,0,1,.207.02012l.14947.03041c.33567.06783.3669.07579.57929-.10105a3.03859,3.03859,0,0,0,.58491-1.08864,14.284,14.284,0,0,0,.54829-3.17844,54.14084,54.14084,0,0,0-.02292-6.81394c-.12678-2.28863-.34842-4.58053-.63531-6.8612-.14667-1.13963-.31041-2.27786-.50257-3.40533-.09731-.56233-.19965-1.12513-.3207-1.67015a4.77087,4.77087,0,0,0-.20479-.75976,1.98229,1.98229,0,0,0-.30128-.57777,6.76991,6.76991,0,0,0-2.4505-1.84325,26.90386,26.90386,0,0,0-3.141-1.25752c-2.16628-.728-4.403-1.31507-6.64552-1.87226-4.49444-1.09472-9.02385-2.102-13.54262-3.15037a.09585.09585,0,0,1,.03661-.18806c4.58122.73355,9.1594,1.47647,13.71993,2.38265,2.27844.4669,4.55491.9628,6.81441,1.6187a28.11948,28.11948,0,0,1,3.36287,1.18969,7.89972,7.89972,0,0,1,3.079,2.24792,3.47072,3.47072,0,0,1,.51519.945,6.11481,6.11481,0,0,1,.27135.909c.14526.58338.26467,1.15835.37976,1.73565.22689,1.15273.42268,2.30546.60139,3.46054.35076,2.31154.63508,4.63151.82455,6.96879a49.35334,49.35334,0,0,1,.131,7.08388,16.08007,16.08007,0,0,1-.60279,3.66358,4.85958,4.85958,0,0,1-1.08373,1.92278,3.14451,3.14451,0,0,1-.55438.42151,2.81384,2.81384,0,0,1-.70221.26152,3.17263,3.17263,0,0,1-.72806.03789c-.218-.03462-.43731-.07813-.65122-.131l.35613.051a5.66864,5.66864,0,0,1-1.71413-.27789,6.65819,6.65819,0,0,1-1.49892-.67742,6.94544,6.94544,0,0,1-1.28455-1.0063,8.28,8.28,0,0,1-1.02454-1.23647l1.86839-.64046c.1883,2.78218.30982,5.54846.356,8.33158.04281,2.78219.05053,5.5639-.16234,8.38211-.05555.705-.13029,1.41331-.243,2.13237a8.0086,8.0086,0,0,1-.63988,2.26991,2.18824,2.18824,0,0,1-.53718.69332,1.5381,1.5381,0,0,1-.59543.29754,1.961,1.961,0,0,1-.36257.03415l-.13357-.00655c-.35368-.01543-.71835-.03836-1.08677-.07766a9.30461,9.30461,0,0,1-2.22815-.48841,7.66545,7.66545,0,0,1-3.61387-2.81961,14.03633,14.03633,0,0,1-1.8629-3.97375l1.5146-.21286a40.43564,40.43564,0,0,1-.61415,5.23127,17.26688,17.26688,0,0,1-1.66945,5.09093,4.07856,4.07856,0,0,1-2.16441,1.99716,2.76562,2.76562,0,0,1-1.5822.00983,6.16634,6.16634,0,0,1-.67391-.26339,2.61168,2.61168,0,0,1-.63052-.327,6.70287,6.70287,0,0,1-1.98933-1.92465,11.67235,11.67235,0,0,1-1.21484-2.39295,22.70074,22.70074,0,0,1-1.20583-5.10637,39.22925,39.22925,0,0,1-.32561-5.19572,5.49886,5.49886,0,0,0-.587-2.3354,7.75843,7.75843,0,0,0-1.52161-1.94477A13.6327,13.6327,0,0,0,304.52814,297.3l.06433.01544-2.26278-.27274.23357-.57543a10.8999,10.8999,0,0,1,3.68708,5.18121,12.345,12.345,0,0,1,.39742,3.17282l.24631,3.091c.17544,2.06734.34409,4.14169.42994,6.232a30.08107,30.08107,0,0,1-.25415,6.377,5.82427,5.82427,0,0,1-.57414,1.69775c-.08714.14784-.19673.29754-.29988.4421a2.68054,2.68054,0,0,1-.4635.41263,1.84905,1.84905,0,0,1-1.304.2821l-.1607-.02059-.09029-.01637-.17719-.03228-.35427-.0655-.74268-.10152c-.51063-.06456-1.03636-.11742-1.58547-.22362a6.43207,6.43207,0,0,1-3.20171-1.46009,8.06323,8.06323,0,0,1-1.9415-2.86921,24.32939,24.32939,0,0,1-1.39682-6.29324c-.19392-2.08419-.32105-4.14638-.46807-6.22214l.50643.66993c-2.78137-1.09-5.52191-2.23342-8.2131-3.52744-1.34256-.65262-2.68219-1.31039-3.98615-2.06219-.65017-.38128-1.30138-.756-1.92652-1.20326a8.0753,8.0753,0,0,1-1.78852-1.58126l.72666.07391c-1.6429,1.44326-3.32171,2.84675-4.98414,4.268-1.664,1.42033-3.33083,2.83692-5.016,4.23339a.0959.0959,0,0,1-.12842-.14222Z"/><path d="M312.00816,287.08489a13.45868,13.45868,0,0,1,6.09371,1.82407,7.56944,7.56944,0,0,1,2.35915,2.27926,6.98987,6.98987,0,0,1,.74877,1.50361,12.23589,12.23589,0,0,1,.383,1.62477c.6428,4.20533,1.15554,8.41813,1.582,12.66041a.95895.95895,0,0,1-1.90828.19181c-.00246-.02339-.00386-.04678-.00456-.0697l-.00024-.01123c-.10456-4.21421-.29812-8.44807-.62069-12.66088a6.61576,6.61576,0,0,0-2.80862-5.1218A13.22625,13.22625,0,0,0,312.00816,287.08489Z"/><path d="M321.27283,278.17787a12.80288,12.80288,0,0,1,2.65142-.82478,7.56506,7.56506,0,0,1,2.82359-.07111,3.76905,3.76905,0,0,1,2.45692,1.57518,2.27027,2.27027,0,0,1,.36737.65824,3.72,3.72,0,0,1,.26748.70081c.10327.47625.22678.98244.27543,1.42127q.38842,2.72066.99262,5.39969c.39824,1.77822.85812,3.56907,1.393,5.27431l.006.01918a.95936.95936,0,0,1-1.83085.574c-.00819-.02573-.01556-.0538-.0214-.08-.41076-1.86056-.711-3.68275-.96163-5.53536q-.374-2.76978-.53122-5.55829c-.0131-.48327-.08667-.88-.13567-1.3132a2.94,2.94,0,0,0-.17321-.60537,1.70762,1.70762,0,0,0-.25357-.56841,3.15681,3.15681,0,0,0-1.963-1.49612A9.84221,9.84221,0,0,0,321.27283,278.17787Z"/><path d="M251.25062,366.65106c-.48537,19.08605-.63964,38.18614-.105,57.2474a284.677,284.677,0,0,0,2.06173,28.44874c.32245,2.34242.70993,4.67268,1.23051,6.95055a21.37164,21.37164,0,0,0,2.28909,6.32552,4.27011,4.27011,0,0,0,.43847.58292c.14375.182.398.39719.59134.59414l1.24525,1.20794c.85437.78128,1.77974,1.49051,2.66429,2.24044.93332.69332,1.90477,1.3394,2.854,2.0126.95542.66479,2.00511,1.1925,3.00194,1.79647.51029.28257.996.60865,1.52606.8566l1.58677.749c1.06782.47719,2.09166,1.04934,3.1941,1.44981a65.82861,65.82861,0,0,0,6.64787,2.28722l3.39059.95343c1.13566.29661,2.30442.46924,3.45458.71064l3.463.677c1.16455.16935,2.34.27836,3.50919.421a125.15147,125.15147,0,0,0,28.29751.10386l3.54007-.31531c1.17788-.12679,2.34687-.341,3.52077-.50713l7.03745-1.06385c1.1787-.14362,2.33564-.41964,3.50065-.64794l3.49142-.71017c2.32523-.48561,4.66251-.92022,6.97967-1.447,4.59818-1.2098,9.22186-2.33681,13.80543-3.61445l13.64379-4.23292.04456-.014.01158-.00327c10.70359-2.75739,21.42824-5.43572,32.11465-8.25767l32.07652-8.40176-.31953.47906a59.76762,59.76762,0,0,1,.029-12.10182,64.03616,64.03616,0,0,1,2.2961-11.86838c.50713-1.95693,1.27086-3.83152,1.94395-5.73606.84771-1.833,1.56162-3.73235,2.58441-5.48109a58.90722,58.90722,0,0,1,6.72681-10.07987l.19076.945c-1.45343-.69-2.9782-1.31975-4.4997-1.90734-1.52677-.58573-3.06745-1.13823-4.6252-1.63694a89.05663,89.05663,0,0,0-9.47566-2.50195.75484.75484,0,0,1-.48947-1.135l.02058-.03275a39.5518,39.5518,0,0,0,3.77364-8.217,48.17862,48.17862,0,0,0,2.47236-17.916,44.79414,44.79414,0,0,0-.43286-4.51736c-.18971-1.5008-.56619-2.97259-.83753-4.45936l-.007-.03789a1.06546,1.06546,0,0,1,2.05494-.53988q5.34186,15.42717,11.28628,30.66859c3.97235,10.14162,8.07,20.236,12.57422,30.13152,2.25353,4.945,4.6018,9.845,7.14271,14.6253a99.9063,99.9063,0,0,0,8.48994,13.66484,32.44686,32.44686,0,0,0,2.59353,2.887,10.32222,10.32222,0,0,0,1.40372,1.20794,9.07217,9.07217,0,0,0,1.55156,1.02127,65.90852,65.90852,0,0,0,7.226,3.374,75.08235,75.08235,0,0,0,15.37242,4.43877,41.66719,41.66719,0,0,0,15.69253-.094,23.88327,23.88327,0,0,0,13.12532-7.5854,33.70441,33.70441,0,0,0,6.809-13.95068c.58409-2.6105,1.08291-5.26543,1.62138-7.89791.33754-2.67084.76689-5.33279,1.03285-8.01392a139.82268,139.82268,0,0,0-.97566-32.33032c-.81952-5.3487-1.78266-10.68758-3.13153-15.93663a140.8067,140.8067,0,0,0-4.74415-15.49967l.95882.60022a76.42543,76.42543,0,0,1-13.03409-.7518,56.78752,56.78752,0,0,1-12.64743-3.21305,35.61532,35.61532,0,0,1-5.86577-2.95669,23.31415,23.31415,0,0,1-5.07607-4.20719,21.21194,21.21194,0,0,1-3.62229-5.51478,23.65307,23.65307,0,0,1-1.64419-6.36015l.04456.146L490.5566,325.911a.1437.1437,0,0,1,.25555-.13146l9.89461,18.58875a.38956.38956,0,0,1,.04128.12351l.00328.02292a22.72375,22.72375,0,0,0,1.73167,6.03454,20.10187,20.10187,0,0,0,3.564,5.11946,23.0712,23.0712,0,0,0,4.91187,3.87878,34.21939,34.21939,0,0,0,5.68156,2.73259,55.2454,55.2454,0,0,0,12.34614,2.89025,74.68634,74.68634,0,0,0,12.68977.50058l.02573-.0014a.95519.95519,0,0,1,.93332.60163,151.83338,151.83338,0,0,1,8.4489,31.82506,142.40413,142.40413,0,0,1,1.36349,32.93476c-.24082,2.74756-.648,5.4825-.966,8.22632-.53274,2.71435-1.04431,5.424-1.64325,8.13556a36.572,36.572,0,0,1-7.40844,15.18342,26.86061,26.86061,0,0,1-14.68272,8.55567,44.60118,44.60118,0,0,1-16.8331.16608,78.07018,78.07018,0,0,1-16.0247-4.58052,67.24921,67.24921,0,0,1-7.57007-3.59247,11.75515,11.75515,0,0,1-1.85272-1.23413,13.04661,13.04661,0,0,1-1.68524-1.46384,35.30252,35.30252,0,0,1-2.85143-3.21165,102.46529,102.46529,0,0,1-8.68269-14.15326c-2.5492-4.87058-4.88624-9.82958-7.125-14.826-4.45749-10.0008-8.55544-20.13961-12.40674-30.36637q-5.77026-15.34575-10.972-30.888l2.04792-.57777c.26047,1.55554.6228,3.0947.7952,4.66193a46.75549,46.75549,0,0,1,.37169,4.712,49.99737,49.99737,0,0,1-2.8761,18.54524,41.51387,41.51387,0,0,1-4.09258,8.5248l-.46876-1.16724a90.32888,90.32888,0,0,1,9.59495,2.68441c1.57367.52912,3.12827,1.112,4.66941,1.72957,1.54314.62315,3.05809,1.273,4.57164,2.01868a.60857.60857,0,0,1,.27707.815.60053.60053,0,0,1-.07123.11182l-.015.01824a55.913,55.913,0,0,0-6.71581,9.78466c-1.01426,1.70945-1.7229,3.57235-2.567,5.36788-.67028,1.86852-1.433,3.70662-1.94149,5.63034a63.07888,63.07888,0,0,0-2.32523,11.68077,59.00478,59.00478,0,0,0-.097,11.89037l.0014.014a.43676.43676,0,0,1-.321.46549l-32.01992,8.61509c-10.679,2.85-21.31994,5.84366-31.98178,8.75871l.0559-.01731-13.63677,4.50146c-4.58848,1.36653-9.22479,2.58429-13.83829,3.88392-2.32687.57263-4.67783,1.05356-7.01663,1.585l-3.51329.77894c-1.1732.24935-2.33587.553-3.52732.713l-7.1178,1.11765c-1.18805.1745-2.36932.39718-3.56311.53285l-3.59094.341c-2.39576.20491-4.78438.50386-7.18715.63111l-7.223.20912c-.60209.008-1.20372.05567-1.80641.0304l-1.80792-.07391-3.61645-.14877c-1.20419-.07532-2.41447-.04351-3.61375-.20678l-3.59983-.43976c-1.1987-.15439-2.40161-.276-3.59633-.45848l-3.56077-.72c-1.18314-.25637-2.3809-.44444-3.55141-.75835l-3.4968-1.0077a68.33047,68.33047,0,0,1-6.86832-2.41822c-1.13858-.42432-2.20687-1.026-3.31294-1.53074l-1.64524-.7925c-.54912-.26245-1.05812-.60584-1.58887-.90478-1.04-.63812-2.12675-1.19812-3.12639-1.9022-.99379-.71251-2.0064-1.39834-2.98241-2.13471-.9318-.79718-1.89822-1.55179-2.79856-2.38687l-1.31577-1.294c-.22211-.23018-.43169-.39859-.66362-.68023a6.43968,6.43968,0,0,1-.63379-.84771,15.63155,15.63155,0,0,1-1.59191-3.51621,36.80977,36.80977,0,0,1-.965-3.562c-.52654-2.38032-.9049-4.76719-1.21717-7.15593-.61415-4.77841-.92993-9.56525-1.17788-14.34787-.23988-4.78356-.36748-9.56666-.43848-14.34788q-.18859-14.34437.24351-28.67142c.28736-9.55028.664-19.09494,1.27425-28.62885a.14375.14375,0,0,1,.28713.014Z"/><path d="M317.25627,332.638q1.73682,11.42021,2.68032,22.93209c.63917,7.67007,1.09577,15.35792,1.30536,23.0584.20573,7.70141-.091,15.41873-.57192,23.1122l-.45661,5.76553-.60537,5.75384c-.19122,1.91857-.56057,3.82124-.82162,5.73279a26.92278,26.92278,0,0,1-.57847,2.84534l-.653,2.83692-.61531-.55952c9.54969-3.79831,19.22348-7.25371,29.09469-10.12244,9.86057-2.89025,19.87388-5.27057,29.9755-7.18727,5.037-1.03858,10.14232-1.701,15.2254-2.45845l7.66212-.88c2.55026-.31813,5.116-.50058,7.68013-.6807,2.56535-.1628,5.12192-.42011,7.69077-.50478l7.70423-.2124c1.28349-.02339,2.56441-.09637,3.84872-.07953l3.85211.08234c2.56663.05941,5.1308.10853,7.69182.20491a.14366.14366,0,0,1,.13825.14923.14845.14845,0,0,1-.13825.138c-10.23144.6821-20.42288,1.32116-30.55081,2.64886-5.07712.51087-10.11167,1.36559-15.16564,2.03365-2.52008.38643-5.03058.83789-7.54575,1.25332l-3.77456.61239-3.75925.70362-3.76077.69613c-1.25671.2166-2.51154.443-3.75843.71016l-7.49744,1.53027-7.46037,1.709-7.44048,1.803c-4.9466,1.25987-9.88864,2.55061-14.80588,3.94474-4.893,1.45542-9.79659,2.94827-14.55886,4.76017a.4661.4661,0,0,1-.61918-.54455l.00374-.015.66608-2.77376a26.2715,26.2715,0,0,0,.59555-2.79248c.25134-1.89518.57964-3.77773.74864-5.68413l.40292-5.72858.10713-5.74729c.03614-7.66633-.29824-15.32424-.515-22.98589q-.35772-11.49317-.812-22.99758l-.89461-23.03454a.14393.14393,0,0,1,.28608-.02807Z"/><path d="M317.49826,425.42031a32.73453,32.73453,0,0,0-4.8659,2.57307,33.94918,33.94918,0,0,0-4.43865,3.36791,25.90713,25.90713,0,0,0-3.73656,4.15947,22.299,22.299,0,0,0-2.659,4.96555,22.54943,22.54943,0,0,1,2.25763-5.22707,26.62314,26.62314,0,0,1,3.4651-4.58,35.1578,35.1578,0,0,1,4.28883-3.86428,34.14619,34.14619,0,0,1,4.91853-3.14943.95966.95966,0,0,1,.88268,1.70431q-.03563.01824-.07193.03368Z"/><path d="M432.26009,335.99a156.93994,156.93994,0,0,1,6.78727,14.80308,80.68059,80.68059,0,0,1,4.65643,15.72657.95876.95876,0,0,1-1.89015.3228c-.003-.01778-.00561-.03556-.0076-.05333l-.00222-.02106A79.38152,79.38152,0,0,0,438.146,351.1177,156.489,156.489,0,0,0,432.26009,335.99Z"/><path d="M500.32723,344.56387a199.23981,199.23981,0,0,0-8.45228,21.47994c-1.23858,3.63878-2.4512,7.28832-3.59879,10.95751l-1.7326,5.50168-1.642,5.53162c-2.2457,7.35944-4.27678,14.78577-6.40272,22.19526-.99344,3.72252-2.06629,7.4282-3.10955,11.14417-1.03425,3.71831-2.06055,7.4413-3.21528,11.14044.53064-3.83387,1.18958-7.64434,1.84045-11.459q1.08313-5.69746,2.30862-11.37107c.83742-3.77679,1.77834-7.52926,2.70371-11.28733,1.02747-3.73142,1.99132-7.4806,3.12253-11.18535,2.20991-7.42072,4.72064-14.76331,7.63311-21.951C492.72406,358.1038,495.90869,350.953,500.32723,344.56387Z"/><path d="M315.6846,262.54066c3.7541-1.07928,7.50808-2.11178,11.201-3.35715,3.70124-1.20934,7.38166-2.47107,11.03272-3.81468q5.47852-2.00769,10.88769-4.18848c3.59422-1.46805,7.19335-2.97914,10.70512-4.56649l-.70491.87063a19.732,19.732,0,0,0,.38561-3.20089,24.40026,24.40026,0,0,0-.09859-3.26077,27.5009,27.5009,0,0,0-.49789-3.25142,26.83475,26.83475,0,0,0-.87461-3.12464l.329.47672a11.056,11.056,0,0,1-2.45143-3.77445,22.24919,22.24919,0,0,1-1.23612-4.01726,55.84833,55.84833,0,0,1-1.06689-8.0972,123.73361,123.73361,0,0,1,.13953-16.13171l.00047-.00795a.5459.5459,0,0,1,.58034-.50806l.05182.00608a23.64115,23.64115,0,0,0,10.22676-.38269,20.09231,20.09231,0,0,0,4.77268-1.9209,23.33329,23.33329,0,0,0,4.23784-2.93611,32.26531,32.26531,0,0,0,6.56342-7.95123,41.87948,41.87948,0,0,0,4.20041-9.38982.86346.86346,0,0,1,1.6284-.07625l.01859.04678a31.03673,31.03673,0,0,0,2.8816,5.45116,32.60919,32.60919,0,0,0,3.86357,4.799,23.49034,23.49034,0,0,0,4.76193,3.77492l1.31016.75415,1.37729.61285.68817.30409.71508.23392,1.42688.472.07556.02526a1.29141,1.29141,0,0,1,.87882,1.10221,55.9205,55.9205,0,0,1-.07649,12.51445,66.407,66.407,0,0,1-2.9078,12.12615,50.58443,50.58443,0,0,1-5.51209,11.27657,30.11377,30.11377,0,0,1-9.07379,8.944l.65695-.91975a24.58578,24.58578,0,0,0-.49064,3.09937,6.13153,6.13153,0,0,0,.00655,1.34033c.01485.066.03029.12772.035.16468-.0062-.03322.01474.02947-.09824-.123-.19018-.109-.023-.05895.0007-.06971a.39782.39782,0,0,1,.14245.03836c2.07576.52585,4.32228.9628,6.498,1.41846l13.20146,2.61751,13.20883,2.64324c4.39561.93285,8.80081,1.79413,13.19011,2.785a.1441.1441,0,0,1,.10865.17216.14627.14627,0,0,1-.16163.11041l-13.35725-1.78664-13.33373-1.956c-4.44708-.647-8.8745-1.40068-13.313-2.14079-2.23178-.39578-4.40883-.741-6.70389-1.24489-.22093-.06129-.443-.13287-.6608-.21286a1.54853,1.54853,0,0,1-.7352-.43181,2.35535,2.35535,0,0,1-.542-.82806,5.23473,5.23473,0,0,1-.18631-.64607,8.51464,8.51464,0,0,1-.10258-2.01729,23.10274,23.10274,0,0,1,.46947-3.56018,1.391,1.391,0,0,1,.61847-.8959l.03872-.02432a27.15935,27.15935,0,0,0,8.033-8.18562,48.37832,48.37832,0,0,0,5.18039-10.58044,64.82783,64.82783,0,0,0,2.97061-11.517,53.36594,53.36594,0,0,0,.27929-11.83l.95414,1.127a23.834,23.834,0,0,1-6.11465-2.81868,25.85868,25.85868,0,0,1-5.09631-4.30122,31.06516,31.06516,0,0,1-3.94509-5.29116,32.663,32.663,0,0,1-2.798-5.97606l1.64687-.02947a44.64074,44.64074,0,0,1-4.77712,9.57928,36.53318,36.53318,0,0,1-7.03359,7.99334,24.99129,24.99129,0,0,1-9.38678,4.9866,24.66669,24.66669,0,0,1-2.61552.58292,25.77342,25.77342,0,0,1-2.66674.255,28.70146,28.70146,0,0,1-5.3466-.22222l.63251-.50947c-.10035,2.64558-.04912,5.31689.0462,7.969.1021,2.65447.29075,5.30286.58888,7.92785a53.83883,53.83883,0,0,0,1.40314,7.72481,24.91167,24.91167,0,0,0,1.2498,3.59059,8.71905,8.71905,0,0,0,1.92887,2.86733l.00713.00655a1.23043,1.23043,0,0,1,.322.47064,25.57535,25.57535,0,0,1,1.02057,3.498,30.057,30.057,0,0,1,.56478,3.555,23.077,23.077,0,0,1,.08445,3.62334,22.2566,22.2566,0,0,1-.48631,3.62849,1.209,1.209,0,0,1-.69192.865l-.01322.00561c-3.61621,1.59437-7.2413,3.046-10.91962,4.41257-3.66743,1.381-7.3765,2.64839-11.11014,3.83434-3.72883,1.2-7.50188,2.26523-11.29856,3.22381-3.79807.953-7.62749,1.78337-11.48066,2.45a.14375.14375,0,0,1-.16631-.11743A.147.147,0,0,1,315.6846,262.54066Z"/><path d="M341.146,171.68857a23.22244,23.22244,0,0,1,2.88744-3.08113,30.329,30.329,0,0,1,10.96582-6.3812,28.5448,28.5448,0,0,1,8.43345-1.44419,30.15514,30.15514,0,0,1,4.29082.15485,16.96682,16.96682,0,0,1,2.11845.32888l2.10687.39859-.33052-.01122a33.508,33.508,0,0,1,7.126-.17871,22.27182,22.27182,0,0,1,6.95476,1.55413,16.84886,16.84886,0,0,1,1.61238.80466c.487.35228,1.02618.66011,1.46548,1.04093.9256.72373,1.803,1.5022,2.65926,2.30031a52.806,52.806,0,0,1,4.79256,5.12274,46.70907,46.70907,0,0,1,7.13488,12.08545c.46935,1.08443.805,2.21658,1.18723,3.33563.31684,1.13636.63251,2.27927.86619,3.43761.47672,2.33915.79975,4.61327,1.15975,6.91406l2.19868,13.76028c.7476,4.57865,1.43215,9.18444,2.25412,13.71958.106.56046.21193,1.12607.33649,1.6505.13895.58386.27275,1.20279.35275,1.79553a30.5033,30.5033,0,0,1,.29555,3.57282,38.59237,38.59237,0,0,1-.43661,7.07686,25.47442,25.47442,0,0,1-1.9402,6.82892,9.68021,9.68021,0,0,1-2.0622,2.9389,4.56291,4.56291,0,0,1-3.27212,1.32583.0962.0962,0,0,1-.093-.09871.098.098,0,0,1,.08924-.0931,4.36569,4.36569,0,0,0,2.90136-1.50734,9.02574,9.02574,0,0,0,1.678-2.89587,25.11966,25.11966,0,0,0,1.43379-6.65675,45.77762,45.77762,0,0,0,.09812-6.843,28.8584,28.8584,0,0,0-.40713-3.36042c-.09766-.55625-.2311-1.06993-.38116-1.61168-.16748-.60069-.29637-1.17378-.42865-1.75062-1.89834-9.16665-3.13388-18.37121-4.37175-27.59962-.3255-2.29751-.549-4.64274-.92443-6.87523a45.05371,45.05371,0,0,0-1.6691-6.64786,39.02585,39.02585,0,0,0-2.719-6.32319,36.58121,36.58121,0,0,0-3.7782-5.78191,37.66763,37.66763,0,0,0-4.7135-5.06,33.50691,33.50691,0,0,0-2.688-2.17119,14.27958,14.27958,0,0,0-1.42408-.90572,16.08539,16.08539,0,0,0-1.54945-.65684c-4.28076-1.45729-9.03812-1.20606-13.46251-.58478a.918.918,0,0,1-.26069-.00047l-.07018-.01076c-1.34665-.20164-2.67528-.53847-4.02918-.655a30.01149,30.01149,0,0,0-4.06662-.20257,29.28918,29.28918,0,0,0-8.0469,1.15694,29.66742,29.66742,0,0,0-7.54294,3.19528,32.10722,32.10722,0,0,0-6.58272,5.01046l-.00479.00514a.09575.09575,0,0,1-.14374-.12584Z"/><path d="M385.83908,241.97486a7.02364,7.02364,0,0,1-1.8712.42479,7.729,7.729,0,0,1-1.81121-.02947,7.34715,7.34715,0,0,1-3.21586-1.2304,6.854,6.854,0,0,0,3.21154.27228,6.5199,6.5199,0,0,0,1.49039-.41263,5.36022,5.36022,0,0,0,1.25694-.69472.9716.9716,0,1,1,1.22174,1.51109.98141.98141,0,0,1-.259.15017Z"/><path d="M373.27106,197.99183a4.2868,4.2868,0,0,1,1.92033-1.1677,6.84465,6.84465,0,0,1,2.15482-.3069,7.08514,7.08514,0,0,1,2.12746.36631,5.34682,5.34682,0,0,1,1.92512,1.10829,9.683,9.683,0,0,1-2.1188.386,18.74222,18.74222,0,0,1-1.96816.05474c-.64643-.00889-1.28852-.05146-1.94723-.117C374.70064,198.24353,374.03948,198.15136,373.27106,197.99183Z"/><path d="M397.68,195.72473a17.01576,17.01576,0,0,0-3.66837.49356,6.33567,6.33567,0,0,0-2.96616,1.55553,3.27558,3.27558,0,0,0-.45145.618c-.058.11274-.12421.21894-.18854.32607a3.78573,3.78573,0,0,0-.12959.35836c-.04011.123-.08713.23205-.12514.36351l-.09567.43367c-.07053.28678-.11591.58058-.16339.87251a18.98769,18.98769,0,0,0-.27368,3.55738,29.98872,29.98872,0,0,0,.21426,3.62427c.08994,1.23086.35742,2.41307.366,3.79317a6.34673,6.34673,0,0,1-1.073,3.92977,2.792,2.792,0,0,1-1.83389,1.03016,4.13147,4.13147,0,0,1-1.922-.31017,4.71716,4.71716,0,0,0,1.8015-.20725,2.13511,2.13511,0,0,0,1.17811-1.04466,5.96784,5.96784,0,0,0,.35637-3.31037c-.16164-1.11951-.46795-2.38687-.67169-3.64159a27.66135,27.66135,0,0,1-.33076-3.86053,18.90621,18.90621,0,0,1,.41333-3.90825c.076-.3214.15064-.64233.2517-.95811l.14163-.47438c.0593-.16562.14058-.34292.21181-.51228a4.5899,4.5899,0,0,1,1.315-1.77494,6.72551,6.72551,0,0,1,3.82744-1.38384A11.18786,11.18786,0,0,1,397.68,195.72473Z"/><path d="M304.44662,202.37914c1.41741,1.28934,2.79026,2.55388,4.23012,3.66311a9.7062,9.7062,0,0,0,4.47877,2.21471,2.95,2.95,0,0,0,2.00173-.54269,19.82809,19.82809,0,0,0,2.04827-1.70149,9.21679,9.21679,0,0,0,2.74383-4.57912,5.39945,5.39945,0,0,1-.20187,2.92113,9.43289,9.43289,0,0,1-1.41332,2.639,14.06152,14.06152,0,0,1-2.06231,2.152,4.73709,4.73709,0,0,1-1.53179.83742,4.627,4.627,0,0,1-1.74582.18245,6.80234,6.80234,0,0,1-3.01423-1.10361,12.42663,12.42663,0,0,1-2.29763-1.91108A16.64479,16.64479,0,0,1,304.44662,202.37914Z"/><path d="M378.94081,222.421c1.39425.52725,2.70172,1.11484,3.999,1.67343a29.70148,29.70148,0,0,0,3.84638,1.41565,5.824,5.824,0,0,0,1.78618.23953,1.74761,1.74761,0,0,0,1.3029-.56233,25.21733,25.21733,0,0,1,3.05715-3.14428,25.21705,25.21705,0,0,1-1.823,3.98871,3.17164,3.17164,0,0,1-2.31927,1.519,6.08305,6.08305,0,0,1-2.48722-.18667,13.52265,13.52265,0,0,1-4.08333-1.96582A14.89272,14.89272,0,0,1,378.94081,222.421Z"/><path d="M315.71547,176.47587a7.29342,7.29342,0,0,1,2.30044-1.32022,10.49917,10.49917,0,0,1,2.53236-.58338,9.62168,9.62168,0,0,1,2.62219.09778,5.99347,5.99347,0,0,1,2.47389,1.03671c-.90385.22455-1.70583.34432-2.51178.4697-.80385.12865-1.59413.226-2.39541.30222-.80057.08233-1.6084.1352-2.43669.1511A14.944,14.944,0,0,1,315.71547,176.47587Z"/><path d="M288.915,173.96081a18.24145,18.24145,0,0,1,4.58813-.54268,26.24787,26.24787,0,0,1,4.59444.37473,22.863,22.863,0,0,1,4.46017,1.26782,13.44673,13.44673,0,0,1,3.9672,2.429l-4.40532-.99929-4.354-.81075-4.38988-.77753C291.90176,174.63683,290.424,174.35052,288.915,173.96081Z"/><path d="M314.088,179.12285c.10257,1.57472.09988,3.10312.17614,4.5866a16.41515,16.41515,0,0,0,.22725,2.13c.04549.15579.08.312.11473.46783.05322.12959.09661.27509.14936.38783.08152.10807.0559.13474.21.349.12035.1759.23649.35274.33848.52864a11.60385,11.60385,0,0,1,1.59682,4.60953,3.99168,3.99168,0,0,1-.47345,2.59552,2.07679,2.07679,0,0,1-1.11168.807,2.23522,2.23522,0,0,1-.62817.08655l-.59953-.06316a2.0136,2.0136,0,0,0,1.4994-1.25425,3.65078,3.65078,0,0,0-.159-1.91062,18.62007,18.62007,0,0,0-1.771-3.89141c-.08678-.15766-.17883-.30222-.27157-.44444a6.3031,6.3031,0,0,1-.35836-.64794c-.09521-.23859-.15193-.46549-.22058-.69847-.03883-.21941-.07825-.43929-.10573-.65917a10.82807,10.82807,0,0,1,.07462-2.45518A15.24261,15.24261,0,0,1,314.088,179.12285Z"/><path d="M306.525,191.60174a12.00823,12.00823,0,0,1,.12385,2.06594l-.06619.73449c-.047.30316-.0241.64982-.05766,1.20607a1.63484,1.63484,0,0,1-1.32326-.603,2.0262,2.0262,0,0,1-.46643-1.42782,2.19823,2.19823,0,0,1,.52643-1.32489A1.8458,1.8458,0,0,1,306.525,191.60174Z"/><path d="M298.58381,185.58968c3.699,0,3.70514-5.74869,0-5.74869-3.699,0-3.70514,5.74869,0,5.74869Z"/><path d="M319.76025,185.40061c3.699,0,3.70514-5.7487,0-5.7487-3.699,0-3.70513,5.7487,0,5.7487Z"/><path d="M373.64674,204.6863c3.699,0,3.70513-5.7487,0-5.7487-3.699,0-3.70514,5.7487,0,5.7487Z"/><path d="M394.445,204.11907c3.699,0,3.70514-5.74869,0-5.74869-3.699,0-3.70514,5.74869,0,5.74869Z"/><path d="M447.38614,182.52626c3.7815-.94538,4.15966-12.10082,4.15966-12.10082,9.501-20.13653-1.89076-14.36973-1.89076-14.36973-5.29411.79229-24.76887-11.15545-24.76887-11.15545s-16.59851,19.36264-28.17224,18.34031l.394,10.71863L384.89672,163.224s6.47187-16.34984,13.26218-27.59a30.42566,30.42566,0,0,1,13.82287-12.32379c6.31039-2.72977,14.88969-3.79332,23.96531,2.87159,18.15123,13.32981,19.85291,35.46207,21.8382,38.7184s7.09033,14.979,14.74788,17.62606Z"/><path d="M405.03321,193.49271a40.69627,40.69627,0,0,1,4.14427,2.33775c1.329.8318,2.62651,1.69448,3.9045,2.574l3.80966,2.64324a18.97882,18.97882,0,0,0,4.02392,2.27693,5.7322,5.7322,0,0,1-2.44651-.15486,14.68558,14.68558,0,0,1-2.30173-.81355,26.81006,26.81006,0,0,1-4.17012-2.37284,34.96935,34.96935,0,0,1-3.72252-2.96838A23.92452,23.92452,0,0,1,405.03321,193.49271Z"/><path d="M416.049,201.43366a13.38589,13.38589,0,0,1,.35953,1.51343c.06362.51321.09637,1.033.11158,1.55834a10.05044,10.05044,0,0,1-.53,3.13727,8.33909,8.33909,0,0,1-1.6539,2.83411,6.5317,6.5317,0,0,1-1.26911,1.09659,5.1796,5.1796,0,0,1-1.57682.75742l.11872-.0524a20.8396,20.8396,0,0,1-3.61142,1.17145,20.80326,20.80326,0,0,1,2.9085-2.4402l.11918-.05287a8.483,8.483,0,0,0,.993-.7504,8.839,8.839,0,0,0,.89332-.96,10.82924,10.82924,0,0,0,1.38618-2.28067l.28865-.62549.23123-.65824c.19882-.42853.28362-.8987.44946-1.353.138-.46316.23988-.93941.3938-1.418C415.75856,202.42639,415.89376,201.93657,416.049,201.43366Z"/><path d="M413.65742,155.66633a3.41662,3.41662,0,0,1,1.36138-.55017,3.9816,3.9816,0,0,1,1.27881-.01263,3.91179,3.91179,0,0,1,1.21624.39391,3.38212,3.38212,0,0,1,1.13285.9366,3.38783,3.38783,0,0,1-1.36185.5525,3.91267,3.91267,0,0,1-1.27846.0103,3.98317,3.98317,0,0,1-1.21589-.39672A3.41737,3.41737,0,0,1,413.65742,155.66633Z"/><path d="M430.74747,155.66633a9.09429,9.09429,0,0,1,2.3229-1.48583,13.05137,13.05137,0,0,1,2.54558-.86081,11.33616,11.33616,0,0,1,2.695-.30409,6.238,6.238,0,0,1,2.73552.57216c-.891.35836-1.69413.65169-2.52009.91882-.82151.25824-1.64629.49075-2.48581.68116a24.06,24.06,0,0,1-2.5664.43929A12.81685,12.81685,0,0,1,430.74747,155.66633Z"/><path d="M411.46181,163.65694c3.699,0,3.70514-5.74869,0-5.74869-3.699,0-3.70513,5.74869,0,5.74869Z"/><path d="M437.17607,162.90064c3.699,0,3.70513-5.7487,0-5.7487-3.699,0-3.70514,5.7487,0,5.7487Z"/><path d="M419.78107,171.55991a3.86109,3.86109,0,0,1,3.2361-.42713,6.66348,6.66348,0,0,1,1.46606.71251,2.21873,2.21873,0,0,0,.92666.31765,1.37887,1.37887,0,0,0,.80712-.27976c.17076-.09684.3476-.23906.53567-.36958l.28982-.21942a4.32474,4.32474,0,0,1,.39566-.26666,3.25473,3.25473,0,0,1,3.30931.036,4.45975,4.45975,0,0,0-2.41119,1.17379l-.431.51181a5.48021,5.48021,0,0,1-.60923.59648,2.89825,2.89825,0,0,1-1.94956.73215,3.39391,3.39391,0,0,1-1.84875-.71063c-.51765-.39859-.69777-.61379-1.07893-.85707A6.69444,6.69444,0,0,0,419.78107,171.55991Z"/><path d="M416.73234,181.28937a36.04132,36.04132,0,0,1,4.77549,2.12488c.76537.37333,1.54525.85333,2.24921,1.21776a5.625,5.625,0,0,0,2.065.65824,3.368,3.368,0,0,0,1.93857-.342,3.0567,3.0567,0,0,0,.8297-.59415c.25356-.24935.57134-.6063.86642-.90057.59017-.62783,1.21075-1.23928,1.85-1.8367.33075-.28959.65379-.58619,1.00536-.85847a3.14834,3.14834,0,0,1,1.15332-.67414,1.43348,1.43348,0,0,0-.41087.4842c-.12094.17591-.23544.36023-.34725.54456l-.67671,1.105c-.46129.72888-.91765,1.46337-1.41121,2.17588a11.93278,11.93278,0,0,1-.78526,1.0877,4.66412,4.66412,0,0,1-4.20076,1.71507,6.41212,6.41212,0,0,1-2.78815-1.00163c-.77086-.52724-1.43822-.98431-2.13529-1.52278A36.01675,36.01675,0,0,1,416.73234,181.28937Z"/><path d="M411.25756,211.644c3.69188,1.30619,7.18388,2.79576,10.76547,3.94194a33.97149,33.97149,0,0,0,5.39888,1.35437,10.42722,10.42722,0,0,0,5.49992-.43228,5.94641,5.94641,0,0,1-2.58558,1.513,10.5876,10.5876,0,0,1-3.01551.41123,19.13409,19.13409,0,0,1-5.88752-1.02362,30.1163,30.1163,0,0,1-5.38613-2.38219A25.43989,25.43989,0,0,1,411.25756,211.644Z"/><path d="M499.05333,278.1746C488.696,274.649,482.2,282.314,474.95658,284.29709c-7.24329,1.9836-20.427,3.1237-19.009-5.10683,0,0,17.07357-12.46486,28.32184-17.99321a11.39948,11.39948,0,0,1,4.29245-1.14992c4.81923-.28725,16.38376-.86221,19.28687.14362,1.26478.43134,2.90312,1.11157,4.5031,1.811l-.067-2.654a37.60382,37.60382,0,0,0-20.12042-7.29113,7.73116,7.73116,0,0,0-4.1486.90993c-5.308,2.81727-20.657,10.15612-24.26915,2.87435-4.39771-8.84292,9.6387-8.97719,18.003-15.93335,8.36433-6.94634,9.78233-8.78585,13.47117-8.78585,3.6886,0,8.38351-.85285,16.39322,5.672.01918.01918.048.03837.06714.05755l-.06714-2.66336V192.33717a9.62159,9.62159,0,0,0-9.629-9.61952H442.57234a9.58152,9.58152,0,0,0-8.23018,4.647,5.29621,5.29621,0,0,1,1.89705-.20117,7.61816,7.61816,0,0,1,3.35341,1.025,7.64985,7.64985,0,0,1,.88139.64186.82134.82134,0,0,1,.54619-.23953q8.508-.2442,17.02573-.40233l17.01615-.34479c5.68156-.12445,11.35364-.20117,17.02573-.27789l17.03521-.20117-17.016.83367c-5.66261.26807-11.33458.5366-17.00655.74713l-17.01614.69q-8.09148.34455-16.20189.59414l-.01906,34.5207-.20129,35.30665c-.01918,11.77528-.21075,23.55056-.29695,35.316l-.16292,17.65824-.00959,4.407c-.00959.73777-.00959,1.47553.01918,2.204a10.82874,10.82874,0,0,0,.16292,2.16511,14.0068,14.0068,0,0,0,4.781,7.15733h55.81023a13.00151,13.00151,0,0,1-1.51378-5.52834s-19.68932,4.81911-21.68228,4.254c-1.98325-.56514-5.52823-3.68884-2.97-7.09,2.54851-3.40159,20.27365-12.61831,21.83538-12.61831s10.0698-1.84933,8.50807-4.54169-10.35729-2.836-16.30715-1.13074c-5.95945,1.69635-10.7788,10.2043-20.99223,8.36479-10.20407-1.84933-.56537-9.92641,1.28385-12.05316,1.83962-2.12723,9.495-9.78233,11.62194-10.9229,2.127-1.13027,25.10259-2.27038,26.09906-2.27038C508.83565,285.42783,509.40091,281.70063,499.05333,278.1746Zm.709-83.58576c3.6982,0,3.6982,5.74869,0,5.74869C496.0543,200.33753,496.06389,194.58884,499.76232,194.58884Zm-56.7301,131.26184a11.10216,11.10216,0,0,1-2.012-3.96673,10.88867,10.88867,0,0,1-.24912-2.21331c-.05754-.74712-.07672-1.48489-.0959-2.2133l-.134-4.41678q-.23-8.83848-.30666-17.6676c-.12444-11.76545-.27789-23.54073-.25871-35.316l-.01918-35.31648.24912-35.14338a6.54912,6.54912,0,0,1-1.05379.03837,7.80524,7.80524,0,0,1-3.3534-1.03484,5.41385,5.41385,0,0,1-1.45636-1.236,9.46886,9.46886,0,0,0-1.38934,5.01092l.48865,127.00787a9.61759,9.61759,0,0,0,9.61952,9.58115h3.0947A16.57868,16.57868,0,0,1,443.03222,325.85068Z"/><path d="M360.17078,247.71513c1.08618,1.59062,1.9643,3.21259,2.86358,4.80929.86221,1.61448,1.77039,3.16861,2.53622,4.79339a16.51257,16.51257,0,0,0,2.70909,4.66286,5.14205,5.14205,0,0,0,1.01578.86455,5.69687,5.69687,0,0,0,1.14934.62923,3.95459,3.95459,0,0,0,2.43938.16608,7.78282,7.78282,0,0,0,3.81562-2.82289,34.92121,34.92121,0,0,0,2.8616-4.36812c1.86793-3.04792,3.53668-6.318,5.67244-9.49648a.14789.14789,0,0,1,.20444-.04351.15138.15138,0,0,1,.06666.13941,30.65856,30.65856,0,0,1-3.27469,10.91728,18.90064,18.90064,0,0,1-3.55831,4.71994c-.39041.33824-.75017.69566-1.165,1.00723-.44958.28538-.87273.59555-1.34442.836a6.61541,6.61541,0,0,1-3.15739.68022,6.867,6.867,0,0,1-2.97259-.85005,14.73983,14.73983,0,0,1-2.38184-1.69728,26.22185,26.22185,0,0,1-4.13175-4.10427,18.93466,18.93466,0,0,1-2.53587-5.13724,19.93908,19.93908,0,0,1-1.08724-5.62145.14918.14918,0,0,1,.14573-.15251A.15777.15777,0,0,1,360.17078,247.71513Z"/><path d="M474.87027,182.67181a38.01908,38.01908,0,0,0,3.12089-10.99728,20.25213,20.25213,0,0,0-.22982-5.63922c-.3069-1.89-.66689-3.78287-1.019-5.67665a192.18441,192.18441,0,0,1-3.33388-22.95641,42.61007,42.61007,0,0,1-.00514-5.89279,15.42117,15.42117,0,0,1,.50911-3.01282,6.89412,6.89412,0,0,1,.629-1.52326,3.55543,3.55543,0,0,1,1.313-1.33846,3.62314,3.62314,0,0,1,3.60416.24936,8.16754,8.16754,0,0,1,2.24839,2.27692,26.09208,26.09208,0,0,1,2.71786,5.30426,76.48734,76.48734,0,0,1,3.25551,11.19891c.43636,1.88676.74888,3.81515,1.12852,5.679a54.57807,54.57807,0,0,0,1.40548,5.54846,11.6922,11.6922,0,0,0,1.08677,2.545,1.7729,1.7729,0,0,0,.37356.42993c.14467.11462.14795.07673.24537.04585a2.25364,2.25364,0,0,0,.60444-.99133,20.48167,20.48167,0,0,0,.83344-5.58589c.17438-3.83293.17321-7.69019.13672-11.54417-.01941-3.85492-.02994-7.71592.20339-11.58019a46.87739,46.87739,0,0,1,.62666-5.79595,16.24,16.24,0,0,1,.77882-2.86733,4.78023,4.78023,0,0,1,1.9084-2.52394,2.67054,2.67054,0,0,1,1.71681-.29193c.26526.06316.53649.11509.7973.19509.24807.11041.50842.20631.74514.33684a6.59623,6.59623,0,0,1,2.22453,2.19833,18.98927,18.98927,0,0,1,2.24851,5.51712,61.79185,61.79185,0,0,1,1.6181,11.57037c.11848,1.93821.18082,3.87737.20877,5.81465.027,1.941.00059,3.85586.06772,5.76039a43.59732,43.59732,0,0,0,.49309,5.63174,16.59212,16.59212,0,0,0,.66409,2.62827,3.63453,3.63453,0,0,0,1.22595,1.81237l-1.34279.44724a18.73553,18.73553,0,0,1,1.85658-3.20557,10.72973,10.72973,0,0,1,2.72055-2.71154,5.46338,5.46338,0,0,1,1.95483-.81355,4.5564,4.5564,0,0,1,2.21038.12678,7.18943,7.18943,0,0,1,3.25656,2.356.94814.94814,0,0,1,.10666.153c.29719.53754.54058,1.04139.7828,1.57612.23719.53052.46046,1.06852.65309,1.62664a9.99417,9.99417,0,0,1,.66607,3.6458l-1.45541-.94314a11.87517,11.87517,0,0,1,4.30216-1.18969,5.88959,5.88959,0,0,1,1.17191.01356,5.53015,5.53015,0,0,1,1.19519.22269,6.81043,6.81043,0,0,1,1.1587.4945,5.07313,5.07313,0,0,1,1.742,1.79693c.17614.35929.36245.72093.51579,1.08537a10.33417,10.33417,0,0,1,.46689,2.22453,13.30876,13.30876,0,0,1,.09123,2.12535l-.00421,2.05564-.79134-.94876a2.35555,2.35555,0,0,1,.74865.31017,3.0409,3.0409,0,0,1,.52163.40561,3.99082,3.99082,0,0,1,.73683.96794,6.4449,6.4449,0,0,1,.65087,2.07062,14.1462,14.1462,0,0,1-.09778,3.9438,37.77041,37.77041,0,0,1-1.95611,7.29441c-1.74138,4.69654-4.13375,8.99028-5.021,13.73782-.49473,2.39155-.88279,4.81584-1.3167,7.24575a33.94066,33.94066,0,0,1-1.85846,7.24669,11.81974,11.81974,0,0,1-2.19856,3.0975c-.83929.91928-1.72162,1.78991-2.63892,2.62265a30.01627,30.01627,0,0,1-2.88943,2.33868,10.8395,10.8395,0,0,1-1.609.95484,3.3317,3.3317,0,0,1-.9097.29474.85554.85554,0,0,1-.91578-.34854.09592.09592,0,0,1,.1655-.09684.64508.64508,0,0,0,.71367.21333,3.08363,3.08363,0,0,0,.82455-.313,10.50019,10.50019,0,0,0,1.51565-.99929,29.53928,29.53928,0,0,0,2.73435-2.43412c.86525-.86268,1.69483-1.76231,2.47213-2.698a11.28886,11.28886,0,0,0,1.92875-2.98008,33.23492,33.23492,0,0,0,1.56232-7.0778c.353-2.4271.66385-4.87525,1.087-7.31826a34.61187,34.61187,0,0,1,2.09576-7.20832c.90537-2.31342,1.88582-4.55667,2.67634-6.84435a36.10447,36.10447,0,0,0,1.72781-6.97254,12.37572,12.37572,0,0,0,.03006-3.41142,5.04439,5.04439,0,0,0-.45532-1.43109,2.08046,2.08046,0,0,0-.37461-.49449,1.119,1.119,0,0,0-.20316-.16047c-.042-.03415-.185-.08-.09274-.05848l-.79169-.94876-.00421-2.02757-.002-1.01379a8.95541,8.95541,0,0,0-.08713-.93332,8.455,8.455,0,0,0-.36818-1.76091l-.36374-.75508a6.995,6.995,0,0,0-.47368-.63063,3.61653,3.61653,0,0,0-2.98031-.92069,9.99632,9.99632,0,0,0-3.51574.98852l-.01053.00515a1.01179,1.01179,0,0,1-1.3477-.47906,1.025,1.025,0,0,1-.09742-.46923,8.1977,8.1977,0,0,0-.569-2.86593c-.17158-.49216-.37684-.98057-.59508-1.46384-.21754-.47672-.4621-.97262-.70444-1.4063l.10644.15252a5.48821,5.48821,0,0,0-2.30547-1.731,2.84905,2.84905,0,0,0-2.50125.42666,8.85252,8.85252,0,0,0-2.21892,2.18944,16.96126,16.96126,0,0,0-1.67892,2.81961l-.03041.06456a.91136.91136,0,0,1-1.21262.43742,1.01514,1.01514,0,0,1-.1-.05473,5.30262,5.30262,0,0,1-2.04523-2.82476,18.30973,18.30973,0,0,1-.72256-2.97587,45.293,45.293,0,0,1-.45286-5.88249c-.064-3.90544.09415-7.71451-.09088-11.54183a64.64827,64.64827,0,0,0-1.32466-11.33037,17.83269,17.83269,0,0,0-1.93249-5.20788,5.5016,5.5016,0,0,0-1.78337-1.89144c-.1807-.1062-.37578-.17918-.56209-.27508-.19673-.065-.4007-.10667-.60081-.16562a1.63643,1.63643,0,0,0-1.084.15018,3.89717,3.89717,0,0,0-1.51869,1.98827,15.391,15.391,0,0,0-.80057,2.68488,44.54544,44.54544,0,0,0-.75391,5.67478c-.26748,3.82872-.2938,7.68129-.31052,11.532-.0407,3.853.08713,7.70656-.06211,11.576a21.0218,21.0218,0,0,1-.80642,5.81606,2.83683,2.83683,0,0,1-.91893,1.40536.9717.9717,0,0,1-1.092-.05848,2.493,2.493,0,0,1-.60034-.625,12.36933,12.36933,0,0,1-1.274-2.71435,55.5265,55.5265,0,0,1-1.61249-5.60647c-.45064-1.89939-.811-3.76791-1.30045-5.62332a84.19879,84.19879,0,0,0-3.48826-10.89763,24.5942,24.5942,0,0,0-2.582-4.94028,6.61451,6.61451,0,0,0-1.78582-1.80723,2.24015,2.24015,0,0,0-.98864-.34666,1.24428,1.24428,0,0,0-.48608.02245.88678.88678,0,0,0-.41087.13427,3.20824,3.20824,0,0,0-1.14092,1.86009,13.81343,13.81343,0,0,0-.47929,2.67225,41.09176,41.09176,0,0,0-.06035,5.65934c.1883,3.80766.6435,7.62328,1.17179,11.42674.54491,3.803,1.10467,7.61113,1.71261,11.41739.29614,1.905.60035,3.8086.85461,5.73138a19.34954,19.34954,0,0,1,.01579,5.87829,36.24357,36.24357,0,0,1-3.72439,10.98838.09569.09569,0,0,1-.17287-.08187Z"/><path d="M485.29574,178.50859c2.86475-1.95693,5.74507-3.85071,8.48234-5.88343a33.04883,33.04883,0,0,0,3.82416-3.23925l.3849-.44538.43614-.48607c.16444-.17825.32023-.36444.49461-.5338l.55532-.48139a7.79464,7.79464,0,0,1,2.61049-1.34689,9.595,9.595,0,0,1,5.641.30643,10.37323,10.37323,0,0,1,1.29718.56982,5.61386,5.61386,0,0,1,.644.39064,2.74125,2.74125,0,0,1,.64257.6325,5.4173,5.4173,0,0,1,.95823,2.82944,10.874,10.874,0,0,1-4.27444,9.43613,11.79946,11.79946,0,0,0,2.79166-9.24292,4.43181,4.43181,0,0,0-.78479-1.9719,1.07518,1.07518,0,0,0-.28421-.25871,3.98084,3.98084,0,0,0-.47508-.2531,8.474,8.474,0,0,0-1.09413-.41215,7.94339,7.94339,0,0,0-4.54486-.182,5.88551,5.88551,0,0,0-1.97459.97542l-.42923.35789c-.13626.12819-.25848.27415-.38994.40936l-.921.9815a27.27111,27.27111,0,0,1-4.26672,3.19388A55.89661,55.89661,0,0,1,485.29574,178.50859Z"/><path d="M509.45576,160.34463c-.25649.50572-.50444,1.07273-.73052,1.62524-.22643.55812-.43672,1.12513-.62385,1.70056a13.55122,13.55122,0,0,0-.71016,3.57375,14.014,14.014,0,0,1-.2324-3.74544c.03485-.63064.09544-1.26081.17532-1.88957.08327-.63391.17555-1.24583.31415-1.90079a.96638.96638,0,1,1,1.89132.39812A1.01783,1.01783,0,0,1,509.45576,160.34463Z"/><path d="M512.948,182.52631a2.75216,2.75216,0,0,0,2.193-1.47366,9.31872,9.31872,0,0,0,1.08232-2.52722c.47146-1.7698.74712-3.6589,1.17016-5.483.794-3.67433,1.66138-7.32434,2.57809-10.97528a.95907.95907,0,0,1,1.86044.46689c-.00654.0262-.01415.05193-.02257.07672l-.00245.007c-1.21437,3.53165-2.388,7.0909-3.48616,10.66559l-.80034,2.68862c-.26128.89028-.49379,1.81751-.84291,2.70546A9.65,9.65,0,0,1,515.335,181.193,2.86376,2.86376,0,0,1,512.948,182.52631Z"/><path d="M516.91858,182.71532a12.68765,12.68765,0,0,0,.26292,2.36955,6.91588,6.91588,0,0,0,.82175,2.19085,2.55345,2.55345,0,0,0,1.73705,1.2711,3.94513,3.94513,0,0,0,2.16114-.4276.34225.34225,0,0,1,.11052-.02246l.04959-.00093a2.59128,2.59128,0,0,0,1.867-1.12747,7.06373,7.06373,0,0,0,1.05625-2.17775,33.00927,33.00927,0,0,0,.79344-5.03525,29.38176,29.38176,0,0,1,1.23565-5.156,21.79787,21.79787,0,0,1,2.32944-4.8949.95909.95909,0,0,1,1.6008,1.05683c-.011.01684-.02245.03321-.03427.04865l-.03988.05287a20.37845,20.37845,0,0,0-2.36967,4.29748,27.96187,27.96187,0,0,0-1.48057,4.81631,33.47664,33.47664,0,0,1-1.15109,5.11478,7.89492,7.89492,0,0,1-1.34946,2.371,3.19338,3.19338,0,0,1-2.5333,1.2346l.15976-.02293a4.44181,4.44181,0,0,1-2.49423.3186,2.93678,2.93678,0,0,1-1.9098-1.56443,7.13326,7.13326,0,0,1-.70935-2.31669A12.77183,12.77183,0,0,1,516.91858,182.71532Z"/><path d="M521.74,213.44987c.34444,2.32745.53473,4.64181.68759,6.95476.16585,2.312.25122,4.62075.3497,6.92622l.22374,6.90751a62.71643,62.71643,0,0,0,.51029,6.90142,21.46872,21.46872,0,0,1-1.99857-6.75686,63.28349,63.28349,0,0,1-.64923-6.98143c-.06117-2.33166-.06538-4.66192.0745-6.98938A51.342,51.342,0,0,1,521.74,213.44987Z"/><path d="M501.33482,349.31749a44.26835,44.26835,0,0,1-.80759-4.76251,36.25963,36.25963,0,0,1-.26211-4.83128,20.79056,20.79056,0,0,1,.55017-4.82894,10.71854,10.71854,0,0,1,2.10547-4.44111l.01228.44538a8.99032,8.99032,0,0,1-1.21039-1.65706,11.90113,11.90113,0,0,1-.85859-1.83529,14.25832,14.25832,0,0,1-.82993-3.94615l.5159.38128q-6.91867,1.77121-13.904,3.26592a60.01289,60.01289,0,0,1-7.12271,1.199,3.28731,3.28731,0,0,1-1.08408-.10713,5.001,5.001,0,0,1-.91659-.40467,6.95943,6.95943,0,0,1-1.55612-1.16069,5.22984,5.22984,0,0,1-1.69518-3.56861,5.05969,5.05969,0,0,1,1.68255-3.60275,25.73919,25.73919,0,0,1,2.88955-2.2643c1.98313-1.36981,4.02486-2.61564,6.09676-3.80767q3.11084-1.781,6.3-3.417c1.06338-.54689,2.13412-1.07835,3.22767-1.5836.54035-.26011,1.10338-.4945,1.66735-.73449.31649-.11041.55309-.22456.93613-.32982a5.30727,5.30727,0,0,1,.60549-.109c.10257-.0014.2428-.01544.37484-.03088a21.97748,21.97748,0,0,0,3.34943-.73168,13.98688,13.98688,0,0,0,3.10511-1.273,2.72522,2.72522,0,0,0,.98162-.88466.3861.3861,0,0,0,.03111-.30409c-.01193-.10854-.162-.26152-.27649-.4145a5.84229,5.84229,0,0,0-2.796-1.19764,24.84653,24.84653,0,0,0-6.86716-.24561,31.4848,31.4848,0,0,0-3.43808.4856,16.27248,16.27248,0,0,0-3.23855.938,38.217,38.217,0,0,0-5.80811,3.81,24.66215,24.66215,0,0,1-6.43793,3.54147,15.38359,15.38359,0,0,1-7.4234.6442,10.91423,10.91423,0,0,1-3.6775-1.09659,4.48552,4.48552,0,0,1-1.61027-1.45121,3.47365,3.47365,0,0,1-.50128-2.2119,7.93449,7.93449,0,0,1,1.5608-3.61679,25.23051,25.23051,0,0,1,2.358-2.82476c.82782-.89121,1.697-1.694,2.45809-2.55716.82116-.89776,1.65729-1.7436,2.50172-2.59131,1.69063-1.68886,3.40709-3.345,5.18356-4.952.89051-.80326,1.78641-1.59576,2.75716-2.34616a5.03843,5.03843,0,0,1,1.73787-.989,14.41422,14.41422,0,0,1,1.8512-.35555c4.77537-.61987,9.51285-.8711,14.269-1.15694l7.13032-.35321,1.7857-.06971.45064-.015.23216-.00514.116-.00281c.01965-.00468-.01041-.00749-.01041-.00749-.05532.05521.06644-.066.0524-.26947a2.57843,2.57843,0,0,0-.57882-1.33939,7.393,7.393,0,0,0-1.184-1.18455,15.51116,15.51116,0,0,0-2.93318-1.847c-.52245-.26292-1.04724-.5221-1.59284-.74291-.53707-.23719-1.07987-.46362-1.63671-.65824a17.09771,17.09771,0,0,0-6.81791-1.25893,18.88184,18.88184,0,0,0-6.758,1.65986c-2.16535.92022-4.21983,2.11132-6.34471,3.20136a24.82848,24.82848,0,0,1-6.73476,2.501,43.11884,43.11884,0,0,1-7.10833.9815,18.02389,18.02389,0,0,1-7.15756-.872,5.552,5.552,0,0,1-2.89119-2.313,5.47221,5.47221,0,0,1-.51765-3.67527.32808.32808,0,0,1,.13006-.20959c4.64683-3.37867,9.38408-6.61745,14.18-9.779a136.3784,136.3784,0,0,1,14.90915-8.73625,12.3747,12.3747,0,0,1,4.34555-.91087l4.30334-.24093c2.87119-.13427,5.74483-.23485,8.63321-.20819a39.5583,39.5583,0,0,1,4.3638.23345,7.90362,7.90362,0,0,1,2.19623.574l2.02044.79858,2.0181.80467,1.96992.88139,3.94065,1.76372-.942.83648c.03263.08561-.01778-.02573-.04363-.05427-.0276-.04584-.074-.10292-.10994-.15438-.08409-.1076-.17415-.21661-.27216-.32608-.19274-.21847-.40595-.43321-.62291-.64514-.43707-.42385-.90829-.82852-1.38256-1.22852-.96022-.79531-1.95412-1.54711-2.98405-2.29236a41.77263,41.77263,0,0,0-6.3902-3.83948,35.62434,35.62434,0,0,0-7.00155-2.48512c-1.2029-.30268-2.42745-.51274-3.65421-.698-.61731-.06783-1.231-.16187-1.85086-.20818-.61016-.03977-1.26828-.12491-1.8029-.11181a7.01911,7.01911,0,0,0-3.24346.88373q-1.70051.90454-3.438,1.72489a61.86273,61.86273,0,0,1-7.15428,2.89025,26.875,26.875,0,0,1-7.71522,1.4877,9.91387,9.91387,0,0,1-4.10357-.74525,6.163,6.163,0,0,1-3.10171-3.06663,6.94031,6.94031,0,0,1-.75672-4.25632,6.13436,6.13436,0,0,1,2.42687-3.64813,33.61039,33.61039,0,0,1,6.93277-3.65329,58.74645,58.74645,0,0,0,6.70845-3.2996,23.7011,23.7011,0,0,0,2.98276-2.09448l2.90371-2.44487c1.9567-1.622,3.817-3.31037,6.00354-4.84111a8.94412,8.94412,0,0,1,3.89515-1.63179,16.10671,16.10671,0,0,1,2.01693-.0945c.62994-.01029,1.26946-.03181,1.92933-.02246a18.8153,18.8153,0,0,1,3.98089.41684,19.37712,19.37712,0,0,1,3.79573,1.28513,31.36869,31.36869,0,0,1,6.59641,4.23994l.07461.06737.0669.05754-.076-.0683a30.80544,30.80544,0,0,0,3.93375,2.69891,23.87214,23.87214,0,0,0,4.34883,1.88442c1.51214.501,3.1044.81776,4.76906,1.36419a10.31021,10.31021,0,0,1,2.45868,1.19484c.35789.26572.7849.61473,1.04992.85472.2917.26292.59929.5221.911.77988a27.17566,27.17566,0,0,1,3.77328,3.45352,9.01463,9.01463,0,0,1,2.1195,4.99408,16.31433,16.31433,0,0,1-.54982,5.19431c-.36911,1.63226-.86911,3.27154-1.36314,4.81865a3.98309,3.98309,0,0,0-.30818,1.912c.09649.44585.64748.90151,1.27987,1.66641a10.15167,10.15167,0,0,1,2.07061,4.92766,10.49617,10.49617,0,0,1-.62759,5.272,10.20011,10.20011,0,0,1-.54245,1.21168l-.55508,1.083a11.95253,11.95253,0,0,0-.81847,2.1464,4.78135,4.78135,0,0,0-.10234,2.09447,6.94487,6.94487,0,0,0,.86186,2.03226,20.9816,20.9816,0,0,1,1.19812,2.24979,15.09751,15.09751,0,0,1,.85753,2.4519,11.37948,11.37948,0,0,1,.18806,5.24016,9.55438,9.55438,0,0,1-2.52452,4.6404l.12713-.17917a10.87,10.87,0,0,0-.78712,3.8086,15.84747,15.84747,0,0,0,.35637,4.01772c.15075.63765.27555,1.39039.40783,2.09822l.28841,2.10664c.18082,1.40115.32573,2.79856.48316,4.1983.58642,5.59431,1.08407,11.19049,1.56687,16.78808.48468,5.59758.90806,11.19984,1.34,16.8007l1.24,16.80679a.09581.09581,0,0,1-.191.01544q-1.57-16.77732-3.30323-33.53685c-.56818-5.58636-1.15157-11.17272-1.82185-16.74129a80.887,80.887,0,0,0-1.28583-8.25627,17.175,17.175,0,0,1-.4504-4.3452,13.71293,13.71293,0,0,1,.22432-2.19974,9.70118,9.70118,0,0,1,.64806-2.2016.53589.53589,0,0,1,.10339-.15486l.024-.02479a8.09085,8.09085,0,0,0,2.10418-3.94708,9.88208,9.88208,0,0,0-.21684-4.54731,13.58126,13.58126,0,0,0-.79355-2.2016,19.43674,19.43674,0,0,0-1.147-2.09869,8.46808,8.46808,0,0,1-1.06337-2.49728,6.38555,6.38555,0,0,1,.09263-2.80276,13.50209,13.50209,0,0,1,.91192-2.47576,20.98338,20.98338,0,0,0,1.01846-2.16933,8.79941,8.79941,0,0,0,.49087-4.44111,8.42343,8.42343,0,0,0-1.74582-4.06591,6.72623,6.72623,0,0,1-1.62267-2.2788,3.66108,3.66108,0,0,1-.0393-1.636c.09427-.46221.21123-.88887.33239-1.28934.49286-1.59717.94034-3.11808,1.28525-4.705a14.51919,14.51919,0,0,0,.46713-4.59737,7.19006,7.19006,0,0,0-1.70781-3.95409,25.72651,25.72651,0,0,0-3.52545-3.19247c-.32362-.26667-.6469-.53754-.96806-.82572-.34678-.31158-.56865-.47485-.8656-.706a8.39625,8.39625,0,0,0-1.97916-.94782c-1.4684-.48234-3.1189-.81449-4.73958-1.34408a25.85238,25.85238,0,0,1-4.71245-2.03132,32.74442,32.74442,0,0,1-4.21737-2.87949l-.07637-.06877-.0669-.05707.07426.0669a29.42968,29.42968,0,0,0-6.17325-3.95972,16.20083,16.20083,0,0,0-6.96949-1.50828c-.60818-.00795-1.23648.014-1.87424.0262a14.57424,14.57424,0,0,0-1.7801.07906,6.9415,6.9415,0,0,0-3.0389,1.31133c-1.97039,1.381-3.88241,3.10405-5.82273,4.72368l-2.92581,2.44394A25.66929,25.66929,0,0,1,479.157,242.933a60.58838,60.58838,0,0,1-6.95113,3.37961,32.34764,32.34764,0,0,0-6.52412,3.36182,4.25064,4.25064,0,0,0-1.752,2.49821,5.11506,5.11506,0,0,0,.589,3.09564,4.25652,4.25652,0,0,0,2.17015,2.17728,8.10542,8.10542,0,0,0,3.325.59975,25.16346,25.16346,0,0,0,7.17417-1.36091,60.0752,60.0752,0,0,0,6.95932-2.77q1.70419-.793,3.37037-1.66922a8.65536,8.65536,0,0,1,4.03468-1.06057,37.822,37.822,0,0,1,7.72434,1.15273,37.2081,37.2081,0,0,1,7.28189,2.67786,43.27853,43.27853,0,0,1,6.58961,4.06217c1.016.7532,2.0374,1.5429,3.0209,2.377.49.42292.97694.85051,1.44536,1.31507.2338.23345.465.47157.689.73075.11216.12819.2228.26479.33169.40842.05473.07859.10807.14549.163.23485a1.76459,1.76459,0,0,1,.1883.35976.66735.66735,0,0,1-.89543.85847l-.04667-.02153-3.89211-1.79553-1.9464-.89823-1.96875-.81028-1.97061-.80607a6.68663,6.68663,0,0,0-1.9415-.53707,38.52634,38.52634,0,0,0-4.22029-.27228c-2.8471-.05848-5.7094.00842-8.56854.10947l-4.28918.18948a11.35472,11.35472,0,0,0-4.04041.78922,136.55492,136.55492,0,0,0-14.85992,8.47708c-4.8266,3.083-9.55308,6.333-14.20659,9.66958l.12982-.20912a4.82924,4.82924,0,0,0,.42666,3.24533,4.92812,4.92812,0,0,0,2.56839,2.05144,17.466,17.466,0,0,0,6.89862.85893,38.83482,38.83482,0,0,0,7.00341-.967,24.19162,24.19162,0,0,0,6.57383-2.48745c2.09763-1.09145,4.15866-2.30406,6.36693-3.25937a19.57855,19.57855,0,0,1,6.99874-1.75764,17.85457,17.85457,0,0,1,7.11113,1.26314c.56724.19415,1.12642.41309,1.68009.64935.56046.21707,1.1056.47531,1.6491.73917a16.31117,16.31117,0,0,1,3.11563,1.90126,8.22389,8.22389,0,0,1,1.34735,1.31367,3.38759,3.38759,0,0,1,.7911,1.88582,1.37918,1.37918,0,0,1-.12187.6297.94371.94371,0,0,1-.614.54362,1.41375,1.41375,0,0,1-.22772.04023l-.10666.00421-.21345.00842-.44011.02105-1.77635.09638-7.11043.45941c-4.72847.356-9.49356.683-14.1411,1.3553a13.86331,13.86331,0,0,0-1.64313.33309,3.80244,3.80244,0,0,0-1.316.79485c-.90033.71671-1.77623,1.51249-2.639,2.31435-1.72641,1.60793-3.4092,3.279-5.0576,4.97444-.8208.84817-1.64407,1.70664-2.4147,2.57446-.797.93426-1.67261,1.753-2.45973,2.60675a23.73414,23.73414,0,0,0-2.198,2.65353,6.48318,6.48318,0,0,0-1.264,2.84722,2.06549,2.06549,0,0,0,1.28969,2.08558,9.41516,9.41516,0,0,0,3.12861.894,13.69207,13.69207,0,0,0,6.63277-.603,23.03947,23.03947,0,0,0,5.98776-3.34639,37.33492,37.33492,0,0,1,6.12284-3.95877,17.79144,17.79144,0,0,1,3.59948-1.03063,33.17259,33.17259,0,0,1,3.62264-.49075,30.8228,30.8228,0,0,1,3.65609-.095,20.44366,20.44366,0,0,1,3.68159.41028,10.66636,10.66636,0,0,1,1.84348.55017,5.147,5.147,0,0,1,1.77425,1.12934,2.77561,2.77561,0,0,1,.64993,1.0863,1.9921,1.9921,0,0,1-.14315,1.42642,4.09633,4.09633,0,0,1-1.585,1.52653,15.37951,15.37951,0,0,1-3.48054,1.41612,23.42722,23.42722,0,0,1-3.616.7649c-.163.01731-.31895.03368-.51368.03742a1.948,1.948,0,0,0-.26783.06129c-.18971.04865-.49953.17824-.744.26245-.53029.22269-1.06689.44163-1.59916.69426-1.06724.48561-2.12979,1.00537-3.18323,1.53963q-3.16417,1.59927-6.25687,3.34686c-2.05109,1.17425-4.0934,2.37143-6.04016,3.67854a24.56368,24.56368,0,0,0-2.75107,2.08746,3.791,3.791,0,0,0-1.3277,2.647,4.00634,4.00634,0,0,0,1.28595,2.71107,5.76234,5.76234,0,0,0,1.27858.98292,3.8333,3.8333,0,0,0,.70572.3256.78209.78209,0,0,0,.32631.05193,1.55824,1.55824,0,0,0,.3511.00936,59.96407,59.96407,0,0,0,6.94751-1.07788c4.65362-.91741,9.288-1.97986,13.91853-3.03247l.01087-.00234a.414.414,0,0,1,.49543.312.44754.44754,0,0,1,.00983.072,13.467,13.467,0,0,0,.69473,3.74451,11.17334,11.17334,0,0,0,.7649,1.7422,8.46113,8.46113,0,0,0,1.06431,1.54149l.01088.01217a.32636.32636,0,0,1,.0014.43368,10.14737,10.14737,0,0,0-2.071,4.14029,20.32541,20.32541,0,0,0-.64795,4.70824,35.89612,35.89612,0,0,0,.14643,4.78824,44.0133,44.0133,0,0,0,.69,4.75081.09575.09575,0,0,1-.07134.11509A.09807.09807,0,0,1,501.33482,349.31749Z"/><path d="M503.16333,330.667a24.3116,24.3116,0,0,1,2.88616,1.05683l2.66394,1.18127c.87122.39392,1.73015.75087,2.6,1.04981a6.05791,6.05791,0,0,0,2.81634.39906,3.69461,3.69461,0,0,1-3.06347,1.08724,8.60217,8.60217,0,0,1-3.1334-.78689,12.36053,12.36053,0,0,1-2.66535-1.64863A9.47668,9.47668,0,0,1,503.16333,330.667Z"/><path d="M449.30886,418.60918a7.2119,7.2119,0,0,1,3.01633-1.46337,15.50058,15.50058,0,0,1,3.25236-.46877,17.84565,17.84565,0,0,1,3.25352.168,12.995,12.995,0,0,1,3.19282.86081,17.50578,17.50578,0,0,1-3.21364.6456c-1.05917.12679-2.109.2007-3.15575.23953-1.04677.04117-2.08792.0524-3.13528.04351C451.46637,418.63117,450.4306,418.576,449.30886,418.60918Z"/><path d="M442.277,451.19213a18.94046,18.94046,0,0,1,5.99.34479,6.41992,6.41992,0,0,1,1.49858.58011,3.15933,3.15933,0,0,1,.70724.552c.10035.102.23532.27742.3007.32748l.20771.18666a16.55134,16.55134,0,0,0,2.31412,1.5401,58.88968,58.88968,0,0,0,10.66232,4.59034,53.40033,53.40033,0,0,0,11.32639,2.444,37.54535,37.54535,0,0,0,11.64206-.62175,27.25817,27.25817,0,0,1-11.73013,2.11459,42.14834,42.14834,0,0,1-11.83165-2.116A56.82641,56.82641,0,0,1,457.768,458.93a43.44025,43.44025,0,0,1-5.25887-2.94124,14.828,14.828,0,0,1-2.44395-1.95507l-.29368-.35648-.18011-.23485c-.07521-.15064-.2738-.26433-.41426-.4014a5.805,5.805,0,0,0-1.19975-.61426A24.921,24.921,0,0,0,442.277,451.19213Z"/><path d="M359.75406,233.75368a4.90017,4.90017,0,0,0,.58993.97964,8.22216,8.22216,0,0,0,.83753.95952,11.43629,11.43629,0,0,0,2.0829,1.607,14.9844,14.9844,0,0,0,2.441,1.17238c.42572.16608.86712.28865,1.30442.43648l1.34279.34011-1.38934-.10526c-.45894-.07064-.92677-.11742-1.38664-.21a15.68842,15.68842,0,0,1-2.73388-.77333,12.65331,12.65331,0,0,1-2.57588-1.35857,9.75522,9.75522,0,0,1-1.1677-.945,6.52717,6.52717,0,0,1-1.05554-1.23881.96327.96327,0,1,1,1.62021-1.04233A1.072,1.072,0,0,1,359.75406,233.75368Z"/><path d="M342.84089,268.632c2.77425,0,2.77885-4.31152,0-4.31152-2.77426,0-2.77886,4.31152,0,4.31152Z"/><path d="M353.87838,258.97417c2.77426,0,2.77885-4.31152,0-4.31152-2.77426,0-2.77885,4.31152,0,4.31152Z"/><path d="M362.61639,269.09187c2.77426,0,2.77886-4.31152,0-4.31152-2.77425,0-2.77885,4.31152,0,4.31152Z"/><path d="M352.95859,279.66947c2.77425,0,2.77885-4.31152,0-4.31152-2.77426,0-2.77886,4.31152,0,4.31152Z"/><path d="M364.456,288.86738c2.77426,0,2.77886-4.31152,0-4.31152-2.77425,0-2.77885,4.31152,0,4.31152Z"/><path d="M373.65388,279.66947c2.77426,0,2.77886-4.31152,0-4.31152-2.77425,0-2.77885,4.31152,0,4.31152Z"/><path d="M384.69138,269.09187c2.77425,0,2.77885-4.31152,0-4.31152-2.77426,0-2.77886,4.31152,0,4.31152Z"/><path d="M386.531,287.48769c2.77426,0,2.77885-4.31152,0-4.31152-2.77426,0-2.77885,4.31152,0,4.31152Z"/><path d="M396.64866,277.82988c2.77426,0,2.77885-4.31152,0-4.31152-2.77426,0-2.77885,4.31152,0,4.31152Z"/><path d="M405.84657,268.632c2.77426,0,2.77885-4.31152,0-4.31152-2.77426,0-2.77885,4.31152,0,4.31152Z"/><path d="M409.52573,286.5679c2.77426,0,2.77886-4.31152,0-4.31152-2.77425,0-2.77885,4.31152,0,4.31152Z"/><path d="M394.34918,257.13459c2.77426,0,2.77885-4.31152,0-4.31152-2.77426,0-2.77885,4.31152,0,4.31152Z"/><path d="M418.26375,275.9903c2.77425,0,2.77885-4.31152,0-4.31152-2.77426,0-2.77886,4.31152,0,4.31152Z"/><path d="M424.70228,265.8726c2.77426,0,2.77886-4.31152,0-4.31152-2.77425,0-2.77885,4.31152,0,4.31152Z"/><path d="M429.76113,283.80853c2.77426,0,2.77886-4.31152,0-4.31152-2.77425,0-2.77885,4.31152,0,4.31152Z"/><path d="M414.58458,257.13459c2.77426,0,2.77886-4.31152,0-4.31152-2.77425,0-2.77885,4.31152,0,4.31152Z"/><path d="M329.044,264.033c2.77426,0,2.77885-4.31152,0-4.31152-2.77426,0-2.77885,4.31152,0,4.31152Z"/><path d="M345.59344,311.14778c2.77426,0,2.77885-4.31152,0-4.31152-2.77426,0-2.77885,4.31152,0,4.31152Z"/><path d="M356.63093,301.49c2.77426,0,2.77885-4.31152,0-4.31152-2.77426,0-2.77885,4.31152,0,4.31152Z"/><path d="M365.36894,311.60768c2.77426,0,2.77886-4.31152,0-4.31152-2.77425,0-2.77885,4.31152,0,4.31152Z"/><path d="M355.71114,322.18527c2.77426,0,2.77885-4.31152,0-4.31152-2.77426,0-2.77885,4.31152,0,4.31152Z"/><path d="M367.20853,331.38318c2.77425,0,2.77885-4.31152,0-4.31152-2.77426,0-2.77886,4.31152,0,4.31152Z"/><path d="M376.40644,322.18527c2.77425,0,2.77885-4.31152,0-4.31152-2.77426,0-2.77886,4.31152,0,4.31152Z"/><path d="M387.44393,311.60768c2.77426,0,2.77885-4.31152,0-4.31152-2.77426,0-2.77885,4.31152,0,4.31152Z"/><path d="M389.28351,330.0035c2.77426,0,2.77885-4.31152,0-4.31152-2.77426,0-2.77885,4.31152,0,4.31152Z"/><path d="M399.40121,320.34569c2.77426,0,2.77885-4.31152,0-4.31152-2.77426,0-2.77885,4.31152,0,4.31152Z"/><path d="M408.59912,311.14778c2.77426,0,2.77885-4.31152,0-4.31152-2.77426,0-2.77885,4.31152,0,4.31152Z"/><path d="M412.27828,329.08371c2.77426,0,2.77886-4.31152,0-4.31152-2.77425,0-2.77885,4.31152,0,4.31152Z"/><path d="M397.10173,299.6504c2.77426,0,2.77886-4.31152,0-4.31152-2.77425,0-2.77885,4.31152,0,4.31152Z"/><path d="M421.0163,318.50611c2.77426,0,2.77885-4.31152,0-4.31152-2.77426,0-2.77885,4.31152,0,4.31152Z"/><path d="M427.45484,308.38841c2.77425,0,2.77885-4.31152,0-4.31152-2.77426,0-2.77886,4.31152,0,4.31152Z"/><path d="M432.51369,326.32433c2.77425,0,2.77885-4.31152,0-4.31152-2.77426,0-2.77886,4.31152,0,4.31152Z"/><path d="M417.33713,299.6504c2.77426,0,2.77886-4.31152,0-4.31152-2.77425,0-2.77885,4.31152,0,4.31152Z"/><path d="M341.0013,296.2257c2.77426,0,2.77886-4.31152,0-4.31152-2.77425,0-2.77885,4.31152,0,4.31152Z"/><path d="M375.03357,300.36476c2.77426,0,2.77885-4.31152,0-4.31152-2.77426,0-2.77885,4.31152,0,4.31152Z"/><path d="M337.782,326.57881c2.77425,0,2.77885-4.31152,0-4.31152-2.77426,0-2.77886,4.31152,0,4.31152Z"/><path d="M332.26329,339.91578c2.77426,0,2.77885-4.31152,0-4.31152-2.77426,0-2.77885,4.31152,0,4.31152Z"/><path d="M316.167,327.4986c2.77426,0,2.77885-4.31152,0-4.31152-2.77426,0-2.77885,4.31152,0,4.31152Z"/><path d="M343.76068,349.57358c2.77426,0,2.77885-4.31152,0-4.31152-2.77426,0-2.77886,4.31152,0,4.31152Z"/><path d="M357.09765,357.3918c2.77425,0,2.77885-4.31152,0-4.31152-2.77426,0-2.77886,4.31152,0,4.31152Z"/><path d="M364.91587,344.05483c2.77426,0,2.77885-4.31152,0-4.31152-2.77426,0-2.77885,4.31152,0,4.31152Z"/><path d="M375.95336,350.03348c2.77426,0,2.77885-4.31152,0-4.31152-2.77426,0-2.77885,4.31152,0,4.31152Z"/><path d="M386.99085,356.93191c2.77426,0,2.77886-4.31152,0-4.31152-2.77425,0-2.77885,4.31152,0,4.31152Z"/><path d="M395.72887,345.89442c2.77426,0,2.77885-4.31152,0-4.31152-2.77426,0-2.77885,4.31152,0,4.31152Z"/><path d="M404.92678,338.07619c2.77426,0,2.77885-4.31152,0-4.31152-2.77426,0-2.77885,4.31152,0,4.31152Z"/><path d="M380.55232,339.91578c2.77425,0,2.77885-4.31152,0-4.31152-2.77426,0-2.77886,4.31152,0,4.31152Z"/><path d="M349.73932,335.77672c2.77426,0,2.77885-4.31152,0-4.31152-2.77426,0-2.77885,4.31152,0,4.31152Z"/><path d="M373.194,367.5095c2.77426,0,2.77885-4.31152,0-4.31152-2.77426,0-2.77885,4.31152,0,4.31152Z"/><path d="M397.10855,368.4293c2.77426,0,2.77886-4.31152,0-4.31152-2.77425,0-2.77885,4.31152,0,4.31152Z"/><path d="M408.60594,358.77149c2.77426,0,2.77885-4.31152,0-4.31152-2.77426,0-2.77885,4.31152,0,4.31152Z"/><path d="M418.26375,348.65379c2.77425,0,2.77885-4.31152,0-4.31152-2.77426,0-2.77886,4.31152,0,4.31152Z"/><path d="M429.30124,337.6163c2.77426,0,2.77885-4.31152,0-4.31152-2.77426,0-2.77885,4.31152,0,4.31152Z"/><path d="M382.85179,380.84647c2.77426,0,2.77886-4.31152,0-4.31152-2.77425,0-2.77885,4.31152,0,4.31152Z"/><path d="M322.60549,356.01212c2.77425,0,2.77885-4.31152,0-4.31152-2.77426,0-2.77886,4.31152,0,4.31152Z"/><path d="M332.26329,366.58971c2.77426,0,2.77885-4.31152,0-4.31152-2.77426,0-2.77885,4.31152,0,4.31152Z"/><path d="M345.14036,375.78762c2.77426,0,2.77886-4.31152,0-4.31152-2.77425,0-2.77885,4.31152,0,4.31152Z"/><path d="M361.6966,385.44543c2.77426,0,2.77885-4.31152,0-4.31152-2.77426,0-2.77885,4.31152,0,4.31152Z"/><path d="M382.3919,398.3225c2.77426,0,2.77885-4.31152,0-4.31152-2.77426,0-2.77885,4.31152,0,4.31152Z"/><path d="M398.02835,389.58449c2.77425,0,2.77885-4.31152,0-4.31152-2.77426,0-2.77886,4.31152,0,4.31152Z"/><path d="M411.82521,379.92668c2.77426,0,2.77885-4.31152,0-4.31152-2.77426,0-2.77885,4.31152,0,4.31152Z"/><path d="M425.62207,368.88919c2.77426,0,2.77886-4.31152,0-4.31152-2.77425,0-2.77885,4.31152,0,4.31152Z"/><path d="M435.27988,361.53086c2.77426,0,2.77885-4.31152,0-4.31152-2.77426,0-2.77885,4.31152,0,4.31152Z"/><path d="M358.47733,370.72877c2.77426,0,2.77886-4.31152,0-4.31152-2.77425,0-2.77885,4.31152,0,4.31152Z"/><path d="M290.94935,309.18816c2.77425,0,2.77885-4.31152,0-4.31152-2.77426,0-2.77886,4.31152,0,4.31152Z"/><path d="M344.22057,363.37045c2.77426,0,2.77886-4.31152,0-4.31152-2.77425,0-2.77885,4.31152,0,4.31152Z"/><path d="M368.595,403.84125c2.77426,0,2.77886-4.31152,0-4.31152-2.77425,0-2.77885,4.31152,0,4.31152Z"/><path d="M347.89974,394.64334c2.77425,0,2.77885-4.31152,0-4.31152-2.77426,0-2.77886,4.31152,0,4.31152Z"/><path d="M329.044,382.22616c2.77426,0,2.77885-4.31152,0-4.31152-2.77426,0-2.77885,4.31152,0,4.31152Z"/><path d="M330.42371,401.54177c2.77426,0,2.77885-4.31152,0-4.31152-2.77426,0-2.77885,4.31152,0,4.31152Z"/><path d="M344.22057,412.57926c2.77426,0,2.77886-4.31152,0-4.31152-2.77425,0-2.77885,4.31152,0,4.31152Z"/><path d="M326.28465,419.93759c2.77426,0,2.77885-4.31152,0-4.31152-2.77426,0-2.77885,4.31152,0,4.31152Z"/><path d="M408.14605,402.00167c2.77425,0,2.77885-4.31152,0-4.31152-2.77426,0-2.77886,4.31152,0,4.31152Z"/><path d="M425.62207,392.34386c2.77426,0,2.77886-4.31152,0-4.31152-2.77425,0-2.77885,4.31152,0,4.31152Z"/><path d="M438.49915,381.30637c2.77426,0,2.77885-4.31152,0-4.31152-2.77426,0-2.77885,4.31152,0,4.31152Z"/><path d="M414.12469,391.884c2.77425,0,2.77885-4.31152,0-4.31152-2.77426,0-2.77886,4.31152,0,4.31152Z"/><path d="M427.00176,378.547c2.77426,0,2.77885-4.31152,0-4.31152-2.77426,0-2.77885,4.31152,0,4.31152Z"/><path d="M354.33827,403.38135c2.77426,0,2.77886-4.31152,0-4.31152-2.77425,0-2.77885,4.31152,0,4.31152Z"/><path d="M335.94245,390.04438c2.77426,0,2.77886-4.31152,0-4.31152-2.77425,0-2.77885,4.31152,0,4.31152Z"/><path d="M373.65388,387.74491c2.77426,0,2.77886-4.31152,0-4.31152-2.77425,0-2.77885,4.31152,0,4.31152Z"/><path d="M258.29677,313.88109c2.77425,0,2.77885-4.31152,0-4.31152-2.77426,0-2.77886,4.31152,0,4.31152Z"/><path d="M267.03478,323.99879c2.77426,0,2.77885-4.31152,0-4.31152-2.77426,0-2.77885,4.31152,0,4.31152Z"/><path d="M257.377,334.57639c2.77426,0,2.77886-4.31152,0-4.31152-2.77425,0-2.77885,4.31152,0,4.31152Z"/><path d="M268.87436,343.7743c2.77426,0,2.77885-4.31152,0-4.31152-2.77426,0-2.77885,4.31152,0,4.31152Z"/><path d="M278.07227,334.57639c2.77426,0,2.77885-4.31152,0-4.31152-2.77426,0-2.77885,4.31152,0,4.31152Z"/><path d="M289.10976,323.99879c2.77426,0,2.77886-4.31152,0-4.31152-2.77425,0-2.77885,4.31152,0,4.31152Z"/><path d="M290.94935,342.39461c2.77425,0,2.77885-4.31152,0-4.31152-2.77426,0-2.77886,4.31152,0,4.31152Z"/><path d="M301.06705,332.73681c2.77425,0,2.77885-4.31152,0-4.31152-2.77426,0-2.77886,4.31152,0,4.31152Z"/><path d="M310.265,323.5389c2.77425,0,2.77885-4.31152,0-4.31152-2.77426,0-2.77886,4.31152,0,4.31152Z"/><path d="M313.94412,341.47482c2.77426,0,2.77885-4.31152,0-4.31152-2.77426,0-2.77885,4.31152,0,4.31152Z"/><path d="M276.69941,312.75588c2.77425,0,2.77885-4.31152,0-4.31152-2.77426,0-2.77886,4.31152,0,4.31152Z"/><path d="M258.76348,369.78292c2.77426,0,2.77886-4.31152,0-4.31152-2.77425,0-2.77885,4.31152,0,4.31152Z"/><path d="M266.58171,356.446c2.77425,0,2.77885-4.31152,0-4.31152-2.77426,0-2.77886,4.31152,0,4.31152Z"/><path d="M277.6192,362.42459c2.77426,0,2.77885-4.31152,0-4.31152-2.77426,0-2.77885,4.31152,0,4.31152Z"/><path d="M288.65669,369.323c2.77426,0,2.77885-4.31152,0-4.31152-2.77426,0-2.77885,4.31152,0,4.31152Z"/><path d="M297.3947,358.28553c2.77426,0,2.77886-4.31152,0-4.31152-2.77425,0-2.77885,4.31152,0,4.31152Z"/><path d="M306.59261,350.46731c2.77426,0,2.77886-4.31152,0-4.31152-2.77425,0-2.77885,4.31152,0,4.31152Z"/><path d="M282.21815,352.30689c2.77426,0,2.77886-4.31152,0-4.31152-2.77425,0-2.77885,4.31152,0,4.31152Z"/><path d="M274.85982,379.90062c2.77426,0,2.77886-4.31152,0-4.31152-2.77425,0-2.77885,4.31152,0,4.31152Z"/><path d="M298.77439,380.82041c2.77426,0,2.77885-4.31152,0-4.31152-2.77426,0-2.77885,4.31152,0,4.31152Z"/><path d="M310.27178,371.16261c2.77425,0,2.77885-4.31152,0-4.31152-2.77426,0-2.77886,4.31152,0,4.31152Z"/><path d="M284.51763,393.23759c2.77426,0,2.77885-4.31152,0-4.31152-2.77426,0-2.77885,4.31152,0,4.31152Z"/><path d="M263.36244,397.83654c2.77425,0,2.77885-4.31152,0-4.31152-2.77426,0-2.77886,4.31152,0,4.31152Z"/><path d="M299.69418,401.9756c2.77426,0,2.77885-4.31152,0-4.31152-2.77426,0-2.77885,4.31152,0,4.31152Z"/><path d="M313.491,392.3178c2.77425,0,2.77885-4.31152,0-4.31152-2.77426,0-2.77886,4.31152,0,4.31152Z"/><path d="M260.14317,383.11989c2.77426,0,2.77885-4.31152,0-4.31152-2.77426,0-2.77885,4.31152,0,4.31152Z"/><path d="M275.31972,400.136c2.77426,0,2.77885-4.31152,0-4.31152-2.77426,0-2.77885,4.31152,0,4.31152Z"/><path d="M446.64606,344.01418c2.77426,0,2.77885-4.31152,0-4.31152-2.77426,0-2.77885,4.31152,0,4.31152Z"/><path d="M455.21513,361.93137c2.77425,0,2.77885-4.31152,0-4.31152-2.77426,0-2.77886,4.31152,0,4.31152Z"/><path d="M460.66193,350.11886c2.77426,0,2.77885-4.31152,0-4.31152-2.77426,0-2.77885,4.31152,0,4.31152Z"/><path d="M467.35724,336.37533c2.77426,0,2.77885-4.31152,0-4.31152-2.77426,0-2.77885,4.31152,0,4.31152Z"/><path d="M475.44888,352.99807c2.77425,0,2.77885-4.31152,0-4.31152-2.77426,0-2.77886,4.31152,0,4.31152Z"/><path d="M481.5995,340.43579c2.77426,0,2.77886-4.31152,0-4.31152-2.77425,0-2.77885,4.31152,0,4.31152Z"/><path d="M496.70473,344.178c2.77426,0,2.77886-4.31152,0-4.31152-2.77425,0-2.77885,4.31152,0,4.31152Z"/><path d="M454.729,389.83194c2.77426,0,2.77885-4.31152,0-4.31152-2.77426,0-2.77885,4.31152,0,4.31152Z"/><path d="M457.449,374.61351c2.77426,0,2.77885-4.31152,0-4.31152-2.77426,0-2.77885,4.31152,0,4.31152Z"/><path d="M469.87347,376.40336c2.77425,0,2.77885-4.31152,0-4.31152-2.77426,0-2.77886,4.31152,0,4.31152Z"/><path d="M482.61619,379.05618c2.77426,0,2.77886-4.31152,0-4.31152-2.77425,0-2.77885,4.31152,0,4.31152Z"/><path d="M486.995,365.67688c2.77425,0,2.77885-4.31152,0-4.31152-2.77426,0-2.77886,4.31152,0,4.31152Z"/><path d="M492.91918,355.15882c2.77425,0,2.77885-4.31152,0-4.31152-2.77426,0-2.77886,4.31152,0,4.31152Z"/><path d="M470.68716,365.31931c2.77425,0,2.77885-4.31152,0-4.31152-2.77426,0-2.77886,4.31152,0,4.31152Z"/><path d="M473.332,393.75457c2.77426,0,2.77885-4.31152,0-4.31152-2.77426,0-2.77885,4.31152,0,4.31152Z"/><path d="M496.08738,386.34212c2.77426,0,2.77886-4.31152,0-4.31152-2.77425,0-2.77885,4.31152,0,4.31152Z"/><path d="M503.53246,373.30241c2.77426,0,2.77885-4.31152,0-4.31152-2.77426,0-2.77885,4.31152,0,4.31152Z"/><path d="M487.00827,402.92558c2.77426,0,2.77885-4.31152,0-4.31152-2.77426,0-2.77885,4.31152,0,4.31152Z"/><path d="M468.75148,414.561c2.77426,0,2.77885-4.31152,0-4.31152-2.77426,0-2.77885,4.31152,0,4.31152Z"/><path d="M504.27091,405.872c2.77426,0,2.77886-4.31152,0-4.31152-2.77425,0-2.77885,4.31152,0,4.31152Z"/><path d="M513.8734,392.03662c2.77426,0,2.77886-4.31152,0-4.31152-2.77425,0-2.77885,4.31152,0,4.31152Z"/><path d="M460.63854,401.86752c2.77425,0,2.77885-4.31152,0-4.31152-2.77426,0-2.77886,4.31152,0,4.31152Z"/><path d="M480.76575,412.58067c2.77426,0,2.77885-4.31152,0-4.31152-2.77426,0-2.77885,4.31152,0,4.31152Z"/><path d="M455.51528,334.397c2.77426,0,2.77885-4.31152,0-4.31152-2.77426,0-2.77885,4.31152,0,4.31152Z"/><path d="M478.05016,431.435c2.77426,0,2.77885-4.31152,0-4.31152-2.77426,0-2.77885,4.31152,0,4.31152Z"/><path d="M491.38713,423.61675c2.77426,0,2.77885-4.31152,0-4.31152-2.77426,0-2.77885,4.31152,0,4.31152Z"/><path d="M518.06107,374.86783c2.77426,0,2.77885-4.31152,0-4.31152-2.77426,0-2.77885,4.31152,0,4.31152Z"/><path d="M533.69751,379.00689c2.77426,0,2.77886-4.31152,0-4.31152-2.77425,0-2.77885,4.31152,0,4.31152Z"/><path d="M529.55846,397.40271c2.77425,0,2.77885-4.31152,0-4.31152-2.77426,0-2.77886,4.31152,0,4.31152Z"/><path d="M543.35532,402.46156c2.77426,0,2.77885-4.31152,0-4.31152-2.77426,0-2.77885,4.31152,0,4.31152Z"/><path d="M522.66,411.65947c2.77426,0,2.77886-4.31152,0-4.31152-2.77425,0-2.77885,4.31152,0,4.31152Z"/><path d="M516.22149,429.5954c2.77425,0,2.77885-4.31152,0-4.31152-2.77426,0-2.77886,4.31152,0,4.31152Z"/><path d="M502.42462,441.55268c2.77426,0,2.77885-4.31152,0-4.31152-2.77426,0-2.77885,4.31152,0,4.31152Z"/><path d="M488.16786,450.29069c2.77426,0,2.77885-4.31152,0-4.31152-2.77426,0-2.77885,4.31152,0,4.31152Z"/><path d="M509.783,462.248c2.77426,0,2.77885-4.31152,0-4.31152-2.77426,0-2.77885,4.31152,0,4.31152Z"/><path d="M524.4996,450.29069c2.77426,0,2.77886-4.31152,0-4.31152-2.77425,0-2.77885,4.31152,0,4.31152Z"/><path d="M535.0772,434.19435c2.77426,0,2.77885-4.31152,0-4.31152-2.77426,0-2.77885,4.31152,0,4.31152Z"/><path d="M541.97563,418.5579c2.77426,0,2.77886-4.31152,0-4.31152-2.77425,0-2.77885,4.31152,0,4.31152Z"/><path d="M530.47825,464.54745c2.77425,0,2.77885-4.31152,0-4.31152-2.77426,0-2.77886,4.31152,0,4.31152Z"/><path d="M541.51574,454.42975c2.77426,0,2.77885-4.31152,0-4.31152-2.77426,0-2.77885,4.31152,0,4.31152Z"/><path d="M505.64389,419.47769c2.77426,0,2.77885-4.31152,0-4.31152-2.77426,0-2.77885,4.31152,0,4.31152Z"/><path d="M257.76022,410.27979c2.77426,0,2.77885-4.31153,0-4.31153-2.77426,0-2.77885,4.31153,0,4.31153Z"/><path d="M272.93677,417.63811c2.77426,0,2.77885-4.31152,0-4.31152-2.77426,0-2.77885,4.31152,0,4.31152Z"/><path d="M285.354,413.03916c2.77426,0,2.77885-4.31152,0-4.31152-2.77426,0-2.77885,4.31152,0,4.31152Z"/><path d="M309.26852,415.79853c2.77425,0,2.77885-4.31152,0-4.31152-2.77426,0-2.77886,4.31152,0,4.31152Z"/><path d="M300.07061,429.5954c2.77425,0,2.77885-4.31152,0-4.31152-2.77426,0-2.77886,4.31152,0,4.31152Z"/><path d="M283.51437,432.81466c2.77426,0,2.77885-4.31152,0-4.31152-2.77426,0-2.77885,4.31152,0,4.31152Z"/><path d="M260.0597,431.435c2.77426,0,2.77885-4.31152,0-4.31152-2.77426,0-2.77885,4.31152,0,4.31152Z"/><path d="M273.39667,445.23184c2.77426,0,2.77885-4.31152,0-4.31152-2.77426,0-2.77885,4.31152,0,4.31152Z"/><path d="M295.93155,449.8308c2.77425,0,2.77885-4.31152,0-4.31152-2.77426,0-2.77886,4.31152,0,4.31152Z"/><path d="M261.43938,463.16777c2.77426,0,2.77886-4.31152,0-4.31152-2.77425,0-2.77885,4.31152,0,4.31152Z"/><path d="M282.59458,467.76672c2.77425,0,2.77885-4.31152,0-4.31152-2.77426,0-2.77886,4.31152,0,4.31152Z"/><path d="M302.37008,477.42453c2.77426,0,2.77886-4.31152,0-4.31152-2.77425,0-2.77885,4.31152,0,4.31152Z"/><path d="M308.34872,464.08756c2.77426,0,2.77886-4.31152,0-4.31152-2.77425,0-2.77885,4.31152,0,4.31152Z"/><path d="M314.78726,443.85216c2.77426,0,2.77885-4.31152,0-4.31152-2.77426,0-2.77885,4.31152,0,4.31152Z"/><path d="M336.40235,426.836c2.77426,0,2.77885-4.31152,0-4.31152-2.77426,0-2.77885,4.31152,0,4.31152Z"/><path d="M330.8836,447.99122c2.77426,0,2.77886-4.31152,0-4.31152-2.77425,0-2.77885,4.31152,0,4.31152Z"/><path d="M324.44507,470.52609c2.77425,0,2.77885-4.31152,0-4.31152-2.77426,0-2.77886,4.31152,0,4.31152Z"/><path d="M343.76068,460.40839c2.77426,0,2.77885-4.31152,0-4.31152-2.77426,0-2.77886,4.31152,0,4.31152Z"/><path d="M349.73932,442.01257c2.77426,0,2.77885-4.31152,0-4.31152-2.77426,0-2.77885,4.31152,0,4.31152Z"/><path d="M361.23671,420.39749c2.77425,0,2.77885-4.31152,0-4.31152-2.77426,0-2.77886,4.31152,0,4.31152Z"/><path d="M372.73409,434.65425c2.77426,0,2.77886-4.31152,0-4.31152-2.77425,0-2.77885,4.31152,0,4.31152Z"/><path d="M380.55232,449.8308c2.77425,0,2.77885-4.31152,0-4.31152-2.77426,0-2.77886,4.31152,0,4.31152Z"/><path d="M363.99608,453.96986c2.77426,0,2.77885-4.31152,0-4.31152-2.77426,0-2.77885,4.31152,0,4.31152Z"/><path d="M357.09765,476.50474c2.77425,0,2.77885-4.31152,0-4.31152-2.77426,0-2.77886,4.31152,0,4.31152Z"/><path d="M382.85179,467.76672c2.77426,0,2.77886-4.31152,0-4.31152-2.77425,0-2.77885,4.31152,0,4.31152Z"/><path d="M335.02266,481.10369c2.77426,0,2.77886-4.31152,0-4.31152-2.77425,0-2.77885,4.31152,0,4.31152Z"/><path d="M383.31169,417.63811c2.77426,0,2.77885-4.31152,0-4.31152-2.77426,0-2.77885,4.31152,0,4.31152Z"/><path d="M393.88929,431.89487c2.77425,0,2.77885-4.31152,0-4.31152-2.77426,0-2.77886,4.31152,0,4.31152Z"/><path d="M401.24761,449.3709c2.77426,0,2.77886-4.31152,0-4.31152-2.77425,0-2.77885,4.31152,0,4.31152Z"/><path d="M408.60594,459.9485c2.77426,0,2.77885-4.31152,0-4.31152-2.77426,0-2.77885,4.31152,0,4.31152Z"/><path d="M417.80385,442.93236c2.77426,0,2.77885-4.31152,0-4.31152-2.77426,0-2.77885,4.31152,0,4.31152Z"/><path d="M412.745,427.29592c2.77426,0,2.77885-4.31152,0-4.31152-2.77426,0-2.77885,4.31152,0,4.31152Z"/><path d="M397.56845,412.57926c2.77426,0,2.77885-4.31152,0-4.31152-2.77426,0-2.77885,4.31152,0,4.31152Z"/><path d="M421.02312,410.27979c2.77426,0,2.77885-4.31153,0-4.31153-2.77426,0-2.77885,4.31153,0,4.31153Z"/><path d="M430.221,429.1355c2.77426,0,2.77885-4.31152,0-4.31152-2.77426,0-2.77885,4.31152,0,4.31152Z"/><path d="M441.71842,412.11937c2.77425,0,2.77885-4.31152,0-4.31152-2.77426,0-2.77886,4.31152,0,4.31152Z"/><path d="M438.03925,445.23184c2.77426,0,2.77886-4.31152,0-4.31152-2.77425,0-2.77885,4.31152,0,4.31152Z"/><path d="M427.92155,453.51c2.77426,0,2.77885-4.31152,0-4.31152-2.77426,0-2.77885,4.31152,0,4.31152Z"/><path d="M386.301,195.82477a1.438,1.438,0,0,0,0-2.87435,1.438,1.438,0,0,0,0,2.87435Z" fill="#b21919"/><path d="M311.453,175.47439a1.438,1.438,0,0,0,0-2.87434,1.438,1.438,0,0,0,0,2.87434Z" fill="#b21919"/><path d="M356.98267,105.45531a1.438,1.438,0,0,0,0-2.87435,1.438,1.438,0,0,0,0,2.87435Z" fill="#b21919"/><path d="M425.62207,155.46894a1.438,1.438,0,0,0,0-2.87435,1.438,1.438,0,0,0,0,2.87435Z" fill="#b21919"/></svg>