<svg id="Layer_1" data-name="Layer 1" xmlns="http://www.w3.org/2000/svg" viewBox="0 0 700 550"><title>on phone thinking</title><path d="M489.94894,330.27912s-22.15231,2.35168-48.84346-21.70711c0,0-3.89041,16.26824-6.49371,20.41027a24.84641,24.84641,0,0,1-8.47769,9.69709c-15.85211,10.24867-38.87537-2.86463-46.124-6.668-3.34851-1.75167-3.85177-1.85811-16.24893-8.52607-3.46458-1.86779-21.891-12.44553-21.891-12.44553-4.56786-2.013-12.38747-1.67428-12.38747-1.67428l-5.73888,9.46483a29.36383,29.36383,0,0,1-8.75832,9.16477c3.842-.31932,7.65505-.56126,11.47776-.80321,3.813-.271,7.626-.50326,11.41969-.85164,1.90654-.14519,3.80334-.33876,5.6905-.56132,1.88717-.19357,3.76465-.4742,5.64213-.77421a48.60631,48.60631,0,0,0,5.53562-1.20971,13.328,13.328,0,0,0,5.06149-2.45812,11.541,11.541,0,0,1-4.73242,3.34845,34.54085,34.54085,0,0,1-5.56469,1.8,75.59714,75.59714,0,0,1-11.45844,1.78073c-3.85171.31938-7.70342.47419-11.55519.42582a99.53933,99.53933,0,0,1-11.51645-.69683h-.00969a29.19684,29.19684,0,0,1-11.381,4.54854l-43.4336,7.46154s10.27773,13.21011-.33869,40.84966c0,0,21.53292-2.17748,35.00428,1.87748,13.46168,4.04528,34.12364,4.04528,55.99525-3.85177s33.4075-5.87438,47.99182-3.03882,67.63752,28.55895,86.26712-18.8328C485.081,357.009,491.36185,341.62137,489.94894,330.27912ZM268.00986,352.8185a1.45258,1.45258,0,0,1,0-2.90332A1.45258,1.45258,0,0,1,268.00986,352.8185Zm-.929-10.80031a1.45245,1.45245,0,0,1,0,2.90332A1.45245,1.45245,0,0,1,267.08084,342.01819Zm-2.78719,37.27852a1.45258,1.45258,0,0,1,0-2.90331A1.45258,1.45258,0,0,1,264.29365,379.29671Zm2.32261-7.897a1.45258,1.45258,0,0,1,0-2.90331A1.45258,1.45258,0,0,1,266.61626,371.39972Zm1.62585-9.75515a1.45258,1.45258,0,0,1,0-2.90332A1.45258,1.45258,0,0,1,268.24211,361.64457Z" fill="#020202"/><path d="M407.4561,284.039a11.50378,11.50378,0,0,0,2.31293,2.48718c-.329-.08707-2.99039-.842-2.87426-1.8V284.668A1.1639,1.1639,0,0,1,407.4561,284.039Z" fill="#020202"/><path d="M489.21342,286.77777a126.87915,126.87915,0,0,0-6.11632-31.772c-6.07758-18.30053-11.91327-25.31688-11.91327-25.31688s-2.38074,3.10651-5.48724.9-11.80683-5.18724-11.80683-5.18724c-15.14565-4.026-20.65227,2.40974-20.65227,2.40974a119.3844,119.3844,0,0,1-8.83576,10.70356,21.08948,21.08948,0,0,1,4.17115-2.30331,19.62013,19.62013,0,0,1,6.34858-1.52909,14.85278,14.85278,0,0,1,3.33876.18388,12.10629,12.10629,0,0,1,3.20333,1.06458,10.15929,10.15929,0,0,1,4.53885,4.63561,13.58888,13.58888,0,0,0-10.9745-3.95822,29.2356,29.2356,0,0,0-5.97113,1.02584c-1.80979.49357-3.62915,1.0839-5.45825,1.742l-.00969.00962c-10.67455,11.19713-18.50379,14.42951-18.50379,14.42951-3.40657,14.14882-1.55809,22.68457.75484,27.47505,0-.35807.02906-.7162.04843-1.07427a34.786,34.786,0,0,1,.8129-4.81948,82.89363,82.89363,0,0,1,2.84525-9.2809c1.13227-3.0195,2.35168-6.00988,3.70658-8.93257a89.13249,89.13249,0,0,1,4.46141-8.58413c-1.88716,6.18407-4.17109,12.17458-6.34858,18.18441-1.113,3.00012-2.19686,6.00019-3.20332,9.01964-.49357,1.50972-.97746,3.02912-1.33553,4.56791a14.14633,14.14633,0,0,0-.37744,2.09036,16.6585,16.6585,0,0,0,1.00652,1.57747,11.222,11.222,0,0,1,3.37751-1.0839c8.23575-1.68391,56.05332,7.9938,33.59131,13.14236l-1.23871,4.81948c31.20095,10.7423,48.17564-3.242,48.17564-3.242C490.13282,296.05867,489.51343,291.336,489.21342,286.77777ZM411.1433,279.655a1.45258,1.45258,0,0,1,0-2.90332A1.45258,1.45258,0,0,1,411.1433,279.655Zm7.83893.52257a1.45258,1.45258,0,0,1,0-2.90331A1.45258,1.45258,0,0,1,418.98223,280.17756Zm8.18737,1.3936a1.45258,1.45258,0,0,1,0-2.90332A1.45258,1.45258,0,0,1,427.1696,281.57116Zm8.53575,1.56778a1.45257,1.45257,0,0,1,0-2.90331A1.45257,1.45257,0,0,1,435.70535,283.13894Zm18.55217-15.78435c-.12582,2.03229-.22257,4.07434-.42582,6.097l-.36776,3.03881c-.11613,1.00647-.25163,2.013-.4452,3.01945-.35807,1.9936-.68708,4.00659-1.142,5.98082-.4742,1.98392-.9484,3.95821-1.50972,5.90344.1355-2.03236.35807-4.04534.571-6.04857.23225-2.013.35807-4.026.58064-6.02926.36776-4.01622.65808-8.0228.80326-12.02939a100.92926,100.92926,0,0,0-.26131-11.981c-.12582-.98709-.18388-1.99361-.36776-2.97107l-.23226-1.48066c-.09675-.48388-.21288-.96777-.31938-1.45165a17.40765,17.40765,0,0,0-2.10005-5.59375,9.50728,9.50728,0,0,1,1.771,2.49687,12.27814,12.27814,0,0,1,.66777,1.39359,14.23722,14.23722,0,0,1,.57095,1.43228,34.35644,34.35644,0,0,1,1.50009,5.9712A66.61313,66.61313,0,0,1,454.25752,267.35459Z" fill="#020202"/><path d="M405.085,253.81547a13.89269,13.89269,0,0,0-.54195,1.48066c.03869-.41613.06776-.83227.08707-1.25809C404.92054,253.90254,405.085,253.81547,405.085,253.81547Z" fill="#020202"/><path d="M409.9239,285.95519l-3.5517,16.8295-1.8001,9.881-2.11943-.51295c-18.03921-3.80333-47.7885-16.78112-47.7885-16.78112l-6.84216-8.83576c4.26785,1.00646,5.57438-3.77433,5.57438-3.77433,4.96467,1.24846,5.14855-3.842,5.14855-3.842,4.3646.44514,3.60008-5.77763,3.60008-5.77763,4.655.51295,3.15495-4.93561,3.15495-4.93561a24.10841,24.10841,0,0,1-7.19054-16.70375,4.44632,4.44632,0,0,0-.813,0s13.76174-23.5749,26.28471-19.036l12.53259,4.53885a22.16241,22.16241,0,0,0-2.29361,9.43578c1.142,10.59711,8.05187,8.73894,10.45192,7.75186a40.27793,40.27793,0,0,0-1.62585,5.89369,49.02722,49.02722,0,0,0-.91939,7.239c-.029,1.21934-.029,2.43874.02906,3.66783a26.10021,26.10021,0,0,0,.50326,3.66783,14.08942,14.08942,0,0,0,1.21934,3.54208,7.51687,7.51687,0,0,0,1.771,2.29361,3.26482,3.26482,0,0,0,.28063.23226l.00969.00969C406.44958,281.58084,409.9239,285.95519,409.9239,285.95519Z" fill="#020202"/><path d="M373.99682,179.56494a54.07965,54.07965,0,0,0,.73675,5.60681,35.19058,35.19058,0,0,0,1.41846,5.38753,20.31139,20.31139,0,0,0,1.07391,2.51365,7.36931,7.36931,0,0,1,.86884,3.01792,13.44321,13.44321,0,0,1-.903,5.98074l-.02252.046-.02728.04929a5.15743,5.15743,0,0,0-.55359,1.53787,1.5259,1.5259,0,0,0,.16339,1.1701,1.9212,1.9212,0,0,0,1.09259.57575c.28131.02478.54956.07724.84064.09091l.89831-.00378.05616-.00025a.94353.94353,0,0,1,.84259.51294c.367.71726.802,1.45468,1.24395,2.14826a14.00949,14.00949,0,0,0,1.44385,1.95382,5.88561,5.88561,0,0,0,.83679.77491,10.25281,10.25281,0,0,1,1.05646.91619,9.70686,9.70686,0,0,1,1.70215,2.26432l-.04675-.07733a12.41171,12.41171,0,0,0,1.93841,2.17279,9.21922,9.21922,0,0,0,2.46143,1.57806,6.138,6.138,0,0,0,2.88116.4754,7.95727,7.95727,0,0,0,2.92438-.84356,7.36962,7.36962,0,0,1-2.85284,1.34195,6.489,6.489,0,0,1-3.2461-.12754,9.6076,9.6076,0,0,1-2.92023-1.484,11.801,11.801,0,0,1-2.3767-2.288l-.04694-.07767a8.40124,8.40124,0,0,0-1.534-1.75448,9.569,9.569,0,0,0-.93194-.73908,7.70133,7.70133,0,0,1-1.10071-.93619,15.71189,15.71189,0,0,1-1.7229-2.13458,24.6519,24.6519,0,0,1-1.38788-2.30884l.89838.51252-1.08875.01968c-.36957-.01157-.75751-.07162-1.13483-.11142a3.72793,3.72793,0,0,1-2.29229-1.3161,3.41073,3.41073,0,0,1-.47583-2.63474,6.94077,6.94077,0,0,1,.81775-2.172l-.04956.095a12.89158,12.89158,0,0,0,.91375-5.12738,6.33368,6.33368,0,0,0-.57458-2.42667,21.75311,21.75311,0,0,1-.97089-2.77241,29.1625,29.1625,0,0,1-.93182-5.69579A32.7434,32.7434,0,0,1,373.99682,179.56494Z" fill="#020202"/><path d="M374.3333,179.944c2.72419,1.39844,5.53748,2.78693,8.35028,4.06522a45.43386,45.43386,0,0,0,8.63947,3.14506,5.68636,5.68636,0,0,0,1.05878.10427c.32214-.00911.62048-.10239.64563-.188.00537-.05268.01233.01518.056-.11762l.11206-.30723a3.34973,3.34973,0,0,1,.28076-.5967,4.058,4.058,0,0,1,.84192-1.03807,4.8324,4.8324,0,0,1,2.37915-1.05546,5.98587,5.98587,0,0,1,1.29211-.07059,3.5383,3.5383,0,0,1,1.34277.46817,6.10543,6.10543,0,0,1,2.66626,4.2664,16.66052,16.66052,0,0,1,.09,4.85373l.00507-.12475a17.96376,17.96376,0,0,1-.1175,3.17132,6.44575,6.44575,0,0,1-.41339,1.66168,2.01473,2.01473,0,0,1-.23193.44684c-.04968.0762-.09216.15021-.15088.22574-.07428.07816-.15259.15466-.23346.22772a1.51323,1.51323,0,0,1-.63611.33893,2.01979,2.01979,0,0,1-.72638.00559l.84314-.38669a28.56411,28.56411,0,0,0-2.57507,15.099c.15039,1.24063.42975,2.62921.57367,3.95742.163,1.34351.27869,2.69681.3161,4.05512a40.65889,40.65889,0,0,1-.09332,4.07965c-.1023,1.369-.29193,2.6955-.471,4.02148a57.265,57.265,0,0,1-1.56909,7.95722,11.42929,11.42929,0,0,1-.78009,1.99692l-.52289.87106a6.74741,6.74741,0,0,0-.39154.808,7.86345,7.86345,0,0,0-.51642,3.58262c.31964,2.45043,1.08356,5.11856,2.76929,6.88424a5.32924,5.32924,0,0,0,3.15277,1.63223,8.82091,8.82091,0,0,0,3.71863-.34826,24.74211,24.74211,0,0,0,6.93817-3.58484,61.36064,61.36064,0,0,0,6.13965-5.033,125.71556,125.71556,0,0,0,10.98883-11.5397c1.74072-2.03009,3.38177-4.06653,5.099-6.16a10.58078,10.58078,0,0,1,3.34527-2.38818,18.74955,18.74955,0,0,1,1.899-.76788c.66034-.16254,1.31177-.38532,1.98267-.49634.67285-.09146,1.34393-.23129,2.02069-.28116l2.03558-.08868a29.99281,29.99281,0,0,1,4.04224.34921c.66577.11255,1.34069.19058,2,.33261l1.96405.48663a39.35171,39.35171,0,0,1,3.86261,1.18582c1.29626.38477,2.50329.98114,3.75445,1.47687,1.25788.48633,2.45166,1.10034,3.65381,1.69956l1.80542.896.45148.22416c.13635.06188.25415.126.38592.17959a3.80665,3.80665,0,0,0,.80628.23227,3.61582,3.61582,0,0,0,3.075-.84961,4.47468,4.47468,0,0,0,.95593-1.39181,3.73438,3.73438,0,0,0,.30365-.8125l.11615-.41629.04785-.43006a6.86468,6.86468,0,0,0-.646-3.44943,20.02139,20.02139,0,0,0-4.79383-5.87341,71.4903,71.4903,0,0,0-13.1-8.72293,69.8688,69.8688,0,0,1-13.20832-9.33408,66.69248,66.69248,0,0,1-5.68316-5.77611,65.83609,65.83609,0,0,1-4.97553-6.39461,68.34536,68.34536,0,0,1-4.19586-6.93063c-.61529-1.203-1.23511-2.40366-1.77533-3.64271-.28027-.61384-.56494-1.23053-.824-1.84342l-.8479-1.75519-.8382-1.7613-1.01379-1.6554c-.35065-.5425-.65033-1.12462-1.04206-1.63631l-1.19256-1.523-.59558-.76323-.67853-.68433-1.35889-1.36966-1.507-1.196a10.60307,10.60307,0,0,0-1.58563-1.08315,20.97088,20.97088,0,0,0-14.75989-2.87655l.15119-.05878c-2.48053,1.31008-4.93384,2.72949-7.33527,4.20607-2.40033,1.48369-4.755,3.04242-7.01813,4.72141a43.62129,43.62129,0,0,0-6.35516,5.52624,13.41634,13.41634,0,0,0-2.34107,3.442A4.08651,4.08651,0,0,0,374.3333,179.944Zm-.12939.14392a4.32429,4.32429,0,0,1-.35016-4.19826,13.839,13.839,0,0,1,2.27478-3.65559,44.28028,44.28028,0,0,1,6.22809-5.87109c2.2417-1.7629,4.57483-3.39992,6.95392-4.96314,2.38562-1.55856,4.80151-3.04771,7.29608-4.45448l.00671-.00378a.53487.53487,0,0,1,.14484-.05513,21.49061,21.49061,0,0,1,8.24432-.128,21.88988,21.88988,0,0,1,7.70685,2.89191,11.86445,11.86445,0,0,1,1.72748,1.13765l1.64221,1.26164,1.48175,1.44.73828.72361.64911.79929,1.29688,1.60208c.42535.539.75268,1.14212,1.13342,1.711l1.1,1.73459.91218,1.83025.90246,1.83636c.26172.61287.53815,1.20417.81311,1.80084.52875,1.20212,1.13593,2.36608,1.73743,3.53267a66.36238,66.36238,0,0,0,4.09991,6.71677,63.83025,63.83025,0,0,0,4.85425,6.192,64.65,64.65,0,0,0,5.538,5.58789,70.18736,70.18736,0,0,0,12.76545,9.17111,73.196,73.196,0,0,1,13.35748,9.09025,21.03661,21.03661,0,0,1,5.1272,6.51177,8.4834,8.4834,0,0,1,.7135,4.31946l-.07752.56089c-.04522.1828-.10394.36288-.15661.544a5.19053,5.19053,0,0,1-.41217,1.04691,5.96514,5.96514,0,0,1-1.33741,1.84607,5.11578,5.11578,0,0,1-4.37091,1.15411,5.26435,5.26435,0,0,1-1.10333-.33881c-.17541-.07412-.35046-.17068-.51392-.25311l-.43768-.23089-1.75122-.92417c-1.16687-.61874-2.32745-1.25378-3.54535-1.75888-1.21173-.515-2.38775-1.13464-3.64068-1.539a38.28468,38.28468,0,0,0-3.74134-1.25241l-1.90271-.51874c-.6383-.15225-1.28845-.24033-1.93261-.36423a29.06111,29.06111,0,0,0-3.90143-.42437l-1.95771.04275c-.65087.03339-1.29193.15479-1.93975.22684a12.156,12.156,0,0,0-6.85566,3.31293c-1.67651,2.01162-3.39617,4.10961-5.13989,6.10955a159.80256,159.80256,0,0,1-10.99866,11.63446,62.28648,62.28648,0,0,1-6.15625,5.158,25.56586,25.56586,0,0,1-7.10083,3.90305,9.84458,9.84458,0,0,1-4.15789.48865,6.48944,6.48944,0,0,1-3.85523-1.86832,10.1943,10.1943,0,0,1-2.26227-3.5672,17.25582,17.25582,0,0,1-1.062-4.03308,9.32954,9.32954,0,0,1,.50837-4.269,8.27668,8.27668,0,0,1,.45245-1.00077l.48413-.85382a11.77933,11.77933,0,0,0,.63934-1.73166,55.9263,55.9263,0,0,0,1.45038-7.72177,48.24283,48.24283,0,0,0-.32641-15.69021,27.26186,27.26186,0,0,1,.353-8.197,32.04767,32.04767,0,0,1,2.54126-7.78849l.84345-.38684c.04608-.034-.0036.03366.04565-.02383a.12486.12486,0,0,1,.044-.03208l.05591-.09234a.76937.76937,0,0,0,.11767-.22525,5.07808,5.07808,0,0,0,.3216-1.27887,18.21883,18.21883,0,0,0,.1455-2.89725l-.00042-.02905a.73532.73532,0,0,1,.00555-.0961,15.34957,15.34957,0,0,0,.03809-4.42957,4.8872,4.8872,0,0,0-1.9834-3.47816,2.607,2.607,0,0,0-.82684-.33522,4.87335,4.87335,0,0,0-1.03095.03212,3.73381,3.73381,0,0,0-1.85126.75337,2.99459,2.99459,0,0,0-.63525.74722,2.38118,2.38118,0,0,0-.225.44977l-.09472.23738a2.63005,2.63005,0,0,1-.20746.40086,1.77406,1.77406,0,0,1-1.45807.58011,6.5938,6.5938,0,0,1-1.253-.1508,24.944,24.944,0,0,1-4.48291-1.54719c-1.437-.61965-2.84619-1.28844-4.23951-1.98545C379.62481,183.16566,376.91912,181.693,374.20391,180.0879Z" fill="#020202"/><path d="M383.423,211.5404a15.74358,15.74358,0,0,1,.7746,5.53726,11.85235,11.85235,0,0,1-1.45679,5.62116,14.91879,14.91879,0,0,0-1.38232,2.1625,7.31872,7.31872,0,0,0-.54651,2.34549,17.40954,17.40954,0,0,0,.58588,5.25992,9.7722,9.7722,0,0,1-2.09625-5.24725,7.44427,7.44427,0,0,1,.34564-3.01434,11.27747,11.27747,0,0,1,1.43512-2.50309,15.24678,15.24678,0,0,0,1.61932-4.78613C383.02837,215.182,383.22558,213.39019,383.423,211.5404Z" fill="#020202"/><path d="M341.42864,278.9042a10.64855,10.64855,0,0,1-.91339-1.77768,8.39873,8.39873,0,0,1-.53912-1.95346,3.14693,3.14693,0,0,1,.38043-2.17239,3.05521,3.05521,0,0,1,1.96911-1.22827l-.13836.03823a1.7168,1.7168,0,0,0,.7334-.67861.59442.59442,0,0,0,.058-.33881.79013.79013,0,0,0-.05151-.18356l-.12244-.30237a3.66018,3.66018,0,0,1,.38489-3.43482,3.80092,3.80092,0,0,1,1.35565-1.1712,8.20917,8.20917,0,0,1,1.452-.52573,1.09646,1.09646,0,0,0,.63477-.43084.38308.38308,0,0,0,.02155-.2146.96027.96027,0,0,0-.10645-.30457.66705.66705,0,0,1-.11133-.2496l-.00439-.02149a6.25222,6.25222,0,0,1,.03155-2.8367,4.02163,4.02163,0,0,1,.67322-1.38977,3.457,3.457,0,0,1,1.24371-.98254,5.69811,5.69811,0,0,1,1.29926-.40216,3.12052,3.12052,0,0,0,.9154-.3501,1.22564,1.22564,0,0,0,.53071-.55292,1.1374,1.1374,0,0,0,.04187-.72262l-.044-.16117a.35155.35155,0,0,1-.00824-.14251,8.01325,8.01325,0,0,1,.769-2.39261,5.73922,5.73922,0,0,1,1.56561-1.9559,4.47981,4.47981,0,0,1,2.29444-.96485,6.75433,6.75433,0,0,1,1.2265-.052c.40442.0246.8.10773,1.19922.1604a.27679.27679,0,0,1,.24011.29056l-.00183.02975a16.52681,16.52681,0,0,0,.42377,4.56372,19.23468,19.23468,0,0,0,1.52331,4.3346,20.333,20.333,0,0,0,2.41394,3.869,26.72331,26.72331,0,0,0,3.08692,3.318.82129.82129,0,0,1,.21637.33768,8.82233,8.82233,0,0,1,.44513,2.1672,4.612,4.612,0,0,1-.41565,2.399,6.10046,6.10046,0,0,1-.39789.587c-.17346.16815-.355.33529-.54358.48611-.20484.11374-.41651.22208-.63019.32217a4.33758,4.33758,0,0,1-.63782.16962,5.5708,5.5708,0,0,1-1.22326.08087c-.37677-.04034-.74683-.09677-1.12073-.14944l1.15729-1.11457a12.00218,12.00218,0,0,1,.17608,2.28785,7.12852,7.12852,0,0,1-.42267,2.38308,3.683,3.683,0,0,1-1.87774,2.088,4.55709,4.55709,0,0,1-2.68366.19809l1.24811-.99753a7.07065,7.07065,0,0,1-.47156,2.21072,4.54729,4.54729,0,0,1-1.41076,1.96915,3.64059,3.64059,0,0,1-2.38538.76269,6.148,6.148,0,0,1-1.14825-.14114c-.35291-.09808-.69342-.21561-1.03736-.3262l1.20331-.74186a8.13954,8.13954,0,0,1-.75146,2.31968,4.4707,4.4707,0,0,1-1.73664,1.93325,3.38564,3.38564,0,0,1-2.64367.26352,7.69636,7.69636,0,0,1-1.1391-.45456l-.98761-.61965a.58019.58019,0,0,1-.243-.31217,10.20286,10.20286,0,0,0-.86957-1.845c-.35272-.60919-.762-1.18854-1.1792-1.7673a20.73044,20.73044,0,0,0-1.37409-1.65305C342.48925,279.9349,341.962,279.41363,341.42864,278.9042Zm.1485-.12414a19.2444,19.2444,0,0,1,1.74664,1.30844,21.38051,21.38051,0,0,1,1.62354,1.51239,15.567,15.567,0,0,1,1.4295,1.72448,11.04851,11.04851,0,0,1,1.17035,2.00138l-.24274-.31189.89112.4498a6.53917,6.53917,0,0,0,.89489.262,1.95666,1.95666,0,0,0,1.52942-.22278,2.90511,2.90511,0,0,0,1.00788-1.31372,6.50522,6.50522,0,0,0,.47686-1.80832.891.891,0,0,1,1.09815-.76867l.10541.02667.80273.20254a4.3115,4.3115,0,0,0,.75281.04694,1.78839,1.78839,0,0,0,1.17743-.40161,2.57859,2.57859,0,0,0,.73944-1.13651,5.25086,5.25086,0,0,0,.29162-1.52646,1.04484,1.04484,0,0,1,1.07447-1.01437l.09442.00693.07941.00973a2.5915,2.5915,0,0,0,1.41973-.05468,1.62437,1.62437,0,0,0,.8042-.9552,5.51373,5.51373,0,0,0,.33881-1.70167,10.20369,10.20369,0,0,0-.08038-1.87451.9958.9958,0,0,1,1.14605-1.11688l.01136.00217.84314.14151a3.85175,3.85175,0,0,0,.75274-.02344,1.12662,1.12662,0,0,0,.95331-.57809,4.9685,4.9685,0,0,0,.01465-3.19794l.21612.33734a23.39527,23.39527,0,0,1-3.05487-3.7373,22.90909,22.90909,0,0,1-2.2008-4.26249,24.38618,24.38618,0,0,1-1.29559-4.58227,21.40743,21.40743,0,0,1-.379-4.74683l.23809.32007a5.95742,5.95742,0,0,0-2.19482-.03973,3.55239,3.55239,0,0,0-1.881.92572,4.83157,4.83157,0,0,0-1.15766,1.76135,7.04775,7.04775,0,0,0-.46984,2.07065l-.05219-.30329a2.36605,2.36605,0,0,1,.10175,1.66507,2.59431,2.59431,0,0,1-.97425,1.30857,10.93957,10.93957,0,0,1-2.30493,1.01828,1.996,1.996,0,0,0-.9859,1.34854,4.95231,4.95231,0,0,0-.01166,2.00326l-.11548-.27072a2.5564,2.5564,0,0,1,.356,1.04331,2.08853,2.08853,0,0,1-.20642,1.17926,2.69054,2.69054,0,0,1-1.60913,1.24423,8.23346,8.23346,0,0,0-1.25885.40277,2.2134,2.2134,0,0,0-.836.64059,2.2384,2.2384,0,0,0-.32019,2.0358l.11829.3739a2.12917,2.12917,0,0,1,.084.51844,1.93654,1.93654,0,0,1-.27154,1.03781,2.89787,2.89787,0,0,1-1.41681,1.1521.50864.50864,0,0,1-.12616.03662l-.01258.00174a1.98358,1.98358,0,0,0-1.3255.61981,2.47043,2.47043,0,0,0-.4356,1.55343,7.77584,7.77584,0,0,0,.25579,1.84446A16.60177,16.60177,0,0,0,341.57714,278.78006Z" fill="#020202"/><path d="M349.8059,264.86874a32.39949,32.39949,0,0,1,1.54657,3.93689c.22455.6698.40747,1.35193.58276,2.04373.09125.32965.14014.74988.23651.9708a3.668,3.668,0,0,0,.4336.82174,24.73624,24.73624,0,0,0,2.61523,3.14618l2.88837,3.05405a24.93413,24.93413,0,0,1-3.4126-2.51041,16.21531,16.21531,0,0,1-2.9071-3.17074,4.55168,4.55168,0,0,1-.51465-1.04514,8.32808,8.32808,0,0,1-.233-1.076c-.11872-.6785-.27961-1.3555-.4159-2.03982C350.32628,267.63745,350.04839,266.26123,349.8059,264.86874Z" fill="#020202"/><path d="M345.42626,270.85034a16.81215,16.81215,0,0,1,1.28516,3.37768c.08062.29132.15557.58475.21685.88129a2.821,2.821,0,0,0,.3.69934,8.61451,8.61451,0,0,0,.97882,1.37106c.73084.89621,1.54969,1.74543,2.35712,2.6099.81464.85983,1.63922,1.71762,2.436,2.62558a20.2791,20.2791,0,0,1-2.95208-2.07425,19.99608,19.99608,0,0,1-2.589-2.548,8.58988,8.58988,0,0,1-1.04407-1.56765,3.68791,3.68791,0,0,1-.3197-.96973l-.12049-.87436Z" fill="#020202"/><path d="M354.66625,261.021c1.16376,2.07968,2.16638,4.18738,3.27435,6.23508q.80475,1.54819,1.7201,3.02191a16.77864,16.77864,0,0,0,2.09344,2.79254,8.50268,8.50268,0,0,1-2.70758-2.35306,18.57093,18.57093,0,0,1-1.95929-3.00616,26.20566,26.20566,0,0,1-1.45337-3.25864A20.23689,20.23689,0,0,1,354.66625,261.021Z" fill="#020202"/><path d="M446.09392,289.59628c-.70581,3.53336-1.52087,7.04123-2.367,10.54224-.84772,3.50048-1.722,6.99572-2.67377,10.47q-1.41824,5.21388-2.93109,10.40268c-.532,1.73315-.97357,3.44287-1.58575,5.194a24.65824,24.65824,0,0,1-2.32984,5.01855,22.76943,22.76943,0,0,1-7.77905,7.85013,28.47093,28.47093,0,0,1-10.40991,3.68634,40.67693,40.67693,0,0,1-10.98468.17938c-.91089-.101-1.81867-.22787-2.7237-.38745a27.99754,27.99754,0,0,1-2.73285-.70679l-2.56945-.967-2.50422-1.06485c-13.16833-5.99725-25.68127-13.12182-38.28979-20.08389-3.14349-1.75622-6.25482-3.56821-9.36169-5.39523-.773-.46567-1.55542-.90778-2.31647-1.40311a26.25026,26.25026,0,0,0-2.285-1.36621,17.815,17.815,0,0,0-5.07-1.46817,64.432,64.432,0,0,0-10.7284-.28821c-.45483.00089-.91107-.00216-1.377-.033a4.70807,4.70807,0,0,1-1.46478-.269,1.35819,1.35819,0,0,1-.41687-.25873l-.25733-.23941-.48974-.462-.97925-.92395-3.91541-3.69443-.03314-.03436a7.888,7.888,0,0,1-.79962-1.07209,5.648,5.648,0,0,1-.56751-1.25116,4.57224,4.57224,0,0,1-.19348-1.39831,3.53011,3.53011,0,0,1,.32978-1.46008l.08679.679a5.54766,5.54766,0,0,1-1.01392-1.62549,10.52606,10.52606,0,0,1-.55737-1.7236,19.16006,19.16006,0,0,1-.49225-3.51581l.11121.35355a6.41106,6.41106,0,0,1-.98255-2.85608,10.10658,10.10658,0,0,1-.04937-1.46457,9.42,9.42,0,0,1,.16613-1.47281l.6911.887a11.24984,11.24984,0,0,1-4.30285-1.04089,15.99872,15.99872,0,0,1-1.92377-1.03464,14.99165,14.99165,0,0,1-1.78235-1.30542.57459.57459,0,0,1-.0733-.07571l-.01013-.013a6.09262,6.09262,0,0,1-1.23676-2.23825,2.88773,2.88773,0,0,1,.00055-1.5279,2.69371,2.69371,0,0,1,.88165-1.31625,3.19186,3.19186,0,0,1,2.83887-.55194l2.16333.528,8.64655,2.13822-1.08594,1.15658a10.39587,10.39587,0,0,1-.47937-3.69467,8.67516,8.67516,0,0,1,.35742-1.89557,4.078,4.078,0,0,1,1.10474-1.86251,3.10734,3.10734,0,0,1,2.25006-.76841,5.79262,5.79262,0,0,1,1.96844.508,16.38261,16.38261,0,0,1,3.09168,1.88211c.93841.69849,1.82721,1.44492,2.69208,2.15576l.63629.50522a4.24434,4.24434,0,0,0,.57391.345,7.19769,7.19769,0,0,0,1.40479.499,25.97378,25.97378,0,0,0,6.47094.5882l.04346-.00049a.86063.86063,0,0,1,.18231.01853,17.04083,17.04083,0,0,1,6.34259,3.02728,39.062,39.062,0,0,1,5.0827,4.5329,59.51978,59.51978,0,0,1,4.35706,5.153,5.79373,5.79373,0,0,0,2.16394,1.80506l2.995,1.36608q6.03762,2.71107,12.15344,5.22159a73.36284,73.36284,0,0,0,12.40021,4.10855l.05291.01038.043.01038q10.10661,2.90249,20.1911,5.88446l-.73828.44735L406.9489,298.205l3.3136-14.32a.0968.0968,0,0,1,.18939.04l-2.76178,14.43665-2.8294,14.42233a.58366.58366,0,0,1-.68506.46036l-.035-.008-.0185-.00488q-10.16811-2.68314-20.311-5.45614l.09552.02066a44.57061,44.57061,0,0,1-6.55023-1.72995c-2.11683-.70792-4.20447-1.47721-6.27961-2.27326-4.14856-1.59451-8.22973-3.33581-12.27881-5.14575l-3.04693-1.37744a7.79186,7.79186,0,0,1-2.89368-2.38779,57.53084,57.53084,0,0,0-4.22436-4.96133,37.0841,37.0841,0,0,0-4.82123-4.27448,15.10127,15.10127,0,0,0-5.54053-2.65606l.2254.018a27.3,27.3,0,0,1-7.04638-.7088,9.11092,9.11092,0,0,1-1.78852-.66153,6.32975,6.32975,0,0,1-.87493-.5426c-.2472-.1893-.46827-.37415-.692-.55924-.88153-.7384-1.72577-1.45953-2.6026-2.1246a14.6181,14.6181,0,0,0-2.69177-1.68448,3.98252,3.98252,0,0,0-1.30359-.36655,1.19916,1.19916,0,0,0-.89429.272,4.16355,4.16355,0,0,0-.87769,2.48107,8.6024,8.6024,0,0,0,.36548,3.025l.00379.012a.90485.90485,0,0,1-1.08985,1.14472l-8.6253-2.22254-2.15466-.56222a1.52389,1.52389,0,0,0-1.382.19888,1.04507,1.04507,0,0,0-.35053,1.168,4.59649,4.59649,0,0,0,.89771,1.63165l-.08319-.08841a13.65916,13.65916,0,0,0,1.55194,1.17,14.47006,14.47006,0,0,0,1.71863.96008,9.7805,9.7805,0,0,0,3.70605.96921l.00537.00024a.7353.7353,0,0,1,.70105.768.7908.7908,0,0,1-.0152.11889,8.90825,8.90825,0,0,0-.16076,1.2244,8.70366,8.70366,0,0,0,.01123,1.25159,5.075,5.075,0,0,0,.70129,2.26086l.007.01111a.68683.68683,0,0,1,.10431.3428,17.96857,17.96857,0,0,0,.37836,3.26529,6.48391,6.48391,0,0,0,1.20324,2.83029l.004.00458a.61052.61052,0,0,1,.08276.67474,2.54,2.54,0,0,0-.21655.94071,3.45465,3.45465,0,0,0,.12073,1.05057,4.56391,4.56391,0,0,0,.43158,1.01168,6.63247,6.63247,0,0,0,.661.9281l-.03284-.034,3.85858,3.79678.96418.94888.482.47437c.07648.07336.16937.17093.23236.22436a.52544.52544,0,0,0,.15509.09125,8.45586,8.45586,0,0,0,2.49542.28452,73.70609,73.70609,0,0,1,10.82532.43936,18.45506,18.45506,0,0,1,5.24768,1.56714,26.84407,26.84407,0,0,1,2.33527,1.41842c.74353.49244,1.5249.94214,2.28955,1.41086,3.08661,1.839,6.23474,3.58127,9.38611,5.31412q9.44439,5.21892,19.10986,10.02292c6.43244,3.20614,12.89783,6.385,19.48609,9.17554l2.47125,1.02789,2.4898.915,1.23261.336a8.70821,8.70821,0,0,0,1.26147.28869c.86823.146,1.74433.26132,2.6225.35156a43.399,43.399,0,0,0,10.54358-.17334,26.83461,26.83461,0,0,0,9.8479-3.37106,21.22408,21.22408,0,0,0,7.33356-7.26038c1.899-2.94573,2.83942-6.37976,3.96344-9.81326q1.63266-5.139,3.1756-10.30731c2.0484-6.8927,4.03619-13.80826,5.82617-20.77728a.0968.0968,0,0,1,.11706-.071A.09809.09809,0,0,1,446.09392,289.59628Z" fill="#020202"/><path d="M409.82323,314.32415l-5.68048-1.19894a.48558.48558,0,0,1,.20056-.95023.52384.52384,0,0,1,.07758.02329Z" fill="#020202"/><path d="M319.22649,282.41519a28.91183,28.91183,0,0,1,5.23468.63635c.85443.18222,1.70685.36813,2.551.593.85125.20431,1.67352.49209,2.54254.66546a8.11728,8.11728,0,0,1-2.67139.07868,24.9753,24.9753,0,0,1-2.61383-.3891A22.9901,22.9901,0,0,1,319.22649,282.41519Z" fill="#020202"/><path d="M314.26494,287.2464a9.59474,9.59474,0,0,1,3.86774,1.14886,8.07994,8.07994,0,0,1,1.68012,1.17508,3.50459,3.50459,0,0,1,1.13507,1.72632A8.648,8.648,0,0,0,319.359,290.174c-.55322-.31592-1.10736-.63291-1.68274-.926A33.12143,33.12143,0,0,1,314.26494,287.2464Z" fill="#020202"/><path d="M314.97375,292.51172a8.75519,8.75519,0,0,1,2.67865,1.49328,8.65757,8.65757,0,0,1,2.08038,2.25321,8.65756,8.65756,0,0,1-2.67865-1.49326A8.756,8.756,0,0,1,314.97375,292.51172Z" fill="#020202"/><path d="M316.79638,298.99212a6.56654,6.56654,0,0,1,2.36737,1.18375,6.49308,6.49308,0,0,1,1.78412,1.9552,6.49267,6.49267,0,0,1-2.36744-1.18372A6.56661,6.56661,0,0,1,316.79638,298.99212Z" fill="#020202"/><path d="M324.89684,306.08007a1.8872,1.8872,0,0,1-1.05627-1.58126,4.48464,4.48464,0,0,1,.23327-1.96247l-.01245.03778a4.92368,4.92368,0,0,0,.10706-.97961,1.191,1.191,0,0,0-.12952-.70465,3.08262,3.08262,0,0,1-.59131-1.111,3.73564,3.73564,0,0,1-.19916-1.19657,2.774,2.774,0,0,1,.25965-1.22909,9.35741,9.35741,0,0,0,.53491-.90738,4.7963,4.7963,0,0,0,.22278-2.06088,3.58172,3.58172,0,0,1,.358,2.22528,5.59431,5.59431,0,0,1-.39734,1.04351,2.33422,2.33422,0,0,0-.089.89438,3.41177,3.41177,0,0,0,.6297,1.71945,1.95936,1.95936,0,0,1,.32654,1.36887,5.74267,5.74267,0,0,1-.23175,1.15994l-.00525.01764-.00732.02054c-.111.26788-.22706.53351-.31031.80908a4.2863,4.2863,0,0,0-.16284.8338A1.95,1.95,0,0,0,324.89684,306.08007Z" fill="#020202"/><path d="M316.1643,281.64206c-1.39661-1.18067-2.74836-2.40427-4.092-3.63569-1.33484-1.23983-2.6717-2.47772-3.973-3.74963-2.62762-2.5199-5.18859-5.10367-7.71917-7.71649a.94752.94752,0,0,1,.02142-1.33994l.04742-.043.01581-.01327c1.22388-1.02927,2.4693-2.0321,3.71643-3.0329l.00953-.00766a.94589.94589,0,0,1,1.28717.10016c2.34661,2.57382,4.63287,5.203,6.88482,7.86371q1.692,1.99269,3.3313,4.03381c1.09442,1.35932,2.17572,2.73068,3.21845,4.13742-1.31257-1.159-2.58655-2.35351-3.84748-3.56q-1.8879-1.81288-3.73456-3.66364c-2.45861-2.471-4.883-4.97342-7.247-7.53122l1.29644.09247c-1.228,1.02426-2.45758,2.04645-3.7088,3.04224l.08472-1.39591c2.50152,2.64072,4.97265,5.31049,7.37713,8.04416,1.21473,1.35489,2.39393,2.74377,3.5752,4.13071C313.88054,278.79275,315.04485,280.196,316.1643,281.64206Z" fill="#020202"/><path d="M309.70843,257.44329a36.08824,36.08824,0,0,1-2.08722-5.91638,35.67706,35.67706,0,0,1-1.153-6.16687,35.671,35.671,0,0,1,2.08722,5.91635A36.09,36.09,0,0,1,309.70843,257.44329Z" fill="#020202"/><path d="M318.55144,261.426a16.124,16.124,0,0,1,2.59449-3.27838,15.94158,15.94158,0,0,1,3.27838-2.59448,15.9359,15.9359,0,0,1-2.59449,3.27838A16.12083,16.12083,0,0,1,318.55144,261.426Z" fill="#020202"/><path d="M325.63939,270.53909a13.897,13.897,0,0,1,3.84778-.48358,13.74,13.74,0,0,1,3.84772.48358,13.73893,13.73893,0,0,1-3.84772.48361A13.89588,13.89588,0,0,1,325.63939,270.53909Z" fill="#020202"/><path d="M258.54021,343.37616a11.08974,11.08974,0,0,1,.47687-1.85144,4.76061,4.76061,0,0,1,.43524-.88224,1.51187,1.51187,0,0,1,.84424-.69729,1.17749,1.17749,0,0,1,1.10083.39624,4.14624,4.14624,0,0,1,.62848.82138,12.35835,12.35835,0,0,1,.84564,1.77273,38.09854,38.09854,0,0,1,1.905,7.45948,68.28273,68.28273,0,0,1,.07929,15.31085c-.26716,2.53769-.61579,5.06878-1.13758,7.58175-.272,1.25452-.57727,2.50486-.96856,3.7468a12.28869,12.28869,0,0,1-1.6944,3.67734,2.87674,2.87674,0,0,1-.98908.83645,1.62136,1.62136,0,0,1-.84045.13813,1.7223,1.7223,0,0,1-.75415-.29386,4.17652,4.17652,0,0,1-1.27142-1.84771,21.31622,21.31622,0,0,1-1.03388-3.75763,64.93884,64.93884,0,0,1-.86627-7.56943c.56677,2.46939,1.05572,4.9509,1.78876,7.34741a21.09888,21.09888,0,0,0,1.26519,3.45236,3.32655,3.32655,0,0,0,.89093,1.21143c.14753.06174.10572.045.19812.00586a1.66738,1.66738,0,0,0,.40021-.42429,12.61468,12.61468,0,0,0,1.28015-3.2568c.32593-1.18079.5777-2.39743.79676-3.62043.45214-2.44525.78-4.92712,1.01049-7.41659.26227-2.487.41584-4.98673.48908-7.484a67.35912,67.35912,0,0,0-.13812-7.46725c-.08631-1.23975-.29731-2.43992-.508-3.6843-.21527-1.23172-.468-2.45566-.79687-3.64691a11.60678,11.60678,0,0,0-.59162-1.72858c-.23236-.51236-.60449-1.11514-.99066-1.05975-.43591.06683-.83423.68185-1.11267,1.19873A10.942,10.942,0,0,0,258.54021,343.37616Z" fill="#020202"/><path d="M441.19512,308.5429l5.40057,4.09855,2.79071,1.95126c.93457.64178,1.8313,1.33511,2.80805,1.912,1.92688,1.19033,3.795,2.46695,5.79651,3.52011.99511.53335,1.9497,1.14105,2.96344,1.63617l3.03125,1.50152a92.70916,92.70916,0,0,0,12.59662,4.87125,42.07982,42.07982,0,0,0,13.33,1.94217l-.27374.30432c.025-2.634.01031-5.2681-.0246-7.90213-.02386-2.634-.11767-5.2681-.17688-7.90213l-.22369-7.90213-.14691-7.90213,1.441.6741a26.62223,26.62223,0,0,1-5.4444,3.1756l-1.4278.62164-1.45947.535c-.96484.38668-1.97241.62683-2.96283.9302a47.14291,47.14291,0,0,1-12.24914,1.53745l-3.084-.07007c-1.02521-.05634-2.04358-.20294-3.06421-.30042-2.04938-.15081-4.04846-.62554-6.06415-.96106-2.0036-.39981-3.96814-.97253-5.93847-1.48782l-5.77851-1.97265.59028-.31247C442.847,303.48639,442.04015,305.96594,441.19512,308.5429Zm-.18573.05457c.5423-2.52243,1.12274-5.14227,1.73224-7.79648l.10223-.445.48834.13239,5.81952,1.57754,2.94745.59986c.9834.18561,1.94824.47055,2.94477.57464,1.98346.2486,3.94885.63758,5.94421.70313.99426.06076,1.98694.14691,2.97974.18765l2.98028.0134a53.05664,53.05664,0,0,0,11.75043-1.49353c.94775-.26908,1.91839-.47492,2.84015-.82324l1.399-.4773,1.3648-.55942a25.25233,25.25233,0,0,0,5.07917-2.79358l1.47393-1.09265-.03283,1.76685-.14692,7.90213-.22363,7.90213c-.0592,2.634-.15307,5.2681-.17688,7.90213-.035,2.634-.04962,5.2681-.02466,7.90213l.00275.28482-.27667.01971a41.67013,41.67013,0,0,1-6.90625-.18l-1.71625-.18481-1.705-.2667c-1.1441-.15081-2.26055-.42956-3.39025-.66a59.88649,59.88649,0,0,1-13.01807-4.57681l-3.07129-1.58173c-1.02783-.51919-1.99078-1.154-2.98126-1.73779-1.99988-1.14038-3.86261-2.4917-5.74085-3.81-.95562-.63626-1.8363-1.37485-2.72949-2.09384L446.05,313.32742C444.30755,311.7575,442.60338,310.12844,441.00939,308.59747Z" fill="#020202"/><path d="M472.62084,226.5133a39.26712,39.26712,0,0,1,5.57025,4.61673,67.44373,67.44373,0,0,1,4.89569,5.3396,89.90179,89.90179,0,0,1,8.20014,11.94367A117.96464,117.96464,0,0,1,502.41179,275.107a189.50087,189.50087,0,0,1,5.40931,28.36176q1.78957,14.315,2.15747,28.76126a282.92206,282.92206,0,0,1-.62818,28.859c-.06372,1.22311-.17431,2.358-.12494,3.5068a21.58214,21.58214,0,0,0,.36036,3.423,21.27585,21.27585,0,0,0,2.3822,6.41513,20.59529,20.59529,0,0,0,4.34985,5.24115c.43677.36438.89038.71048,1.34821,1.04776l.712.47164.35724.23737a2.93727,2.93727,0,0,1,.30219.2074c.12115.144-.01606-.10257.30688.37292.83606.4256-1.08941,1.995-.87982,1.52585a1.22434,1.22434,0,0,1-.26959-.01254l-.1178-.02017-3.52289-.97828a60.7347,60.7347,0,0,0-13.98462-2.063,45.61437,45.61437,0,0,0-13.985,1.70218c-2.26618.6419-4.43354,1.56393-6.73981,2.39447-1.12616.44647-2.316.73407-3.46869,1.10733-1.17157.31933-2.36078.59173-3.55395.82425a21.86409,21.86409,0,0,1-7.29609.21575,13.43776,13.43776,0,0,1-1.79309-.41006,10.45487,10.45487,0,0,1-1.69494-.72214,6.33023,6.33023,0,0,1-2.65424-2.49292.09626.09626,0,0,1,.16693-.09567l.00843.01361a6.16235,6.16235,0,0,0,2.6726,2.193,9.99064,9.99064,0,0,0,1.64759.59845,12.84427,12.84427,0,0,0,1.73327.29718,22.45891,22.45891,0,0,0,7.0174-.55725c1.15014-.2727,2.296-.58325,3.42486-.93976,1.115-.41214,2.25629-.73358,3.34577-1.21728,2.17822-.88,4.39666-1.94544,6.74414-2.65708a47.302,47.302,0,0,1,14.45263-2.119,59.61962,59.61962,0,0,1,14.47706,1.9302c.59075.14868,1.17834.3096,1.76129.47791.55987.15726,1.21728.363,1.65515.47037l-.0069-.00123a1.066,1.066,0,0,0-.15771-.00305c.24511-.4595-1.62836,1.078-.83008,1.46976.30505.4426.13214.17734.22735.29477.04145.0321-.02783-.01767-.07135-.04327l-.39276-.26056-.78784-.52463c-.50745-.3736-1.00928-.75845-1.49206-1.1633a21.563,21.563,0,0,1-4.76624-5.81686,23.24339,23.24339,0,0,1-2.51465-7.0618,23.48253,23.48253,0,0,1-.34277-3.736c-.03577-1.25222.10339-2.51379.17938-3.6853q1.23055-14.31673,1.38355-28.70312a200.48927,200.48927,0,0,0-1.72016-28.693c-.35235-2.37115-.74878-4.73571-1.13183-7.10049-.48926-2.34659-.93634-4.70007-1.45911-7.03607-1.095-4.66089-2.27185-9.30094-3.74054-13.84821-1.37781-4.57467-3.01239-9.06192-4.77106-13.49466a112.021,112.021,0,0,0-6.10357-12.9292,99.73789,99.73789,0,0,0-7.70252-12.04266,59.28682,59.28682,0,0,0-9.77655-10.42429l-.0061-.00482a.09662.09662,0,0,1,.11334-.15628Z" fill="#020202"/><path d="M262.66167,343.83889a67.03607,67.03607,0,0,1-9.37066-.15673,75.2335,75.2335,0,0,1-9.30161-1.32184,63.468,63.468,0,0,1-9.07611-2.53491,52.525,52.525,0,0,1-8.53626-4.0712c-.66992-.41834-1.38357-.77869-2.01815-1.24607l-1.91736-1.38528c-1.27771-.93918-2.56137-1.79428-3.84168-2.6955l-7.67138-5.36022L195.645,314.27154l.13849.081a6.61591,6.61591,0,0,0-1.17966-.39118,2.42478,2.42478,0,0,0-1.008-.05133c-.2132.083-.18466.04593-.25354.28876-.05139.08017-.00244.30023-.02121.44586l.0964.57547.00119.00717a1.05756,1.05756,0,0,1-.13824.72241,2.3632,2.3632,0,0,0-.20481.53757,2.95945,2.95945,0,0,0-.088.67072,3.72376,3.72376,0,0,0,.27393,1.38766l-.31748,1.09741c.11746-.09555.05948-.05041.0774-.066l-.0134.02652a.52581.52581,0,0,0-.03867.12439,1.30508,1.30508,0,0,0-.00506.43018,3.96575,3.96575,0,0,0,.35037,1.12567l.02395.72131c.03251-.10086-.00939.06806.00141.13742a1.9847,1.9847,0,0,0,.02618.31083,3.22281,3.22281,0,0,0,.1977.69668,6.58249,6.58249,0,0,0,.7875,1.41361l.05823,1.01147a.56707.56707,0,0,0,.049-.10769c.00266-.01117.00348-.00922.00348-.00922a.15484.15484,0,0,1-.003.03256,1.44176,1.44176,0,0,0,.01169.15738,2.30119,2.30119,0,0,0,.13217.44565,5.549,5.549,0,0,0,.55627.99866,10.24492,10.24492,0,0,0,.763.97592c.27375.31534.62235.64914.92984.97281l3.80649,3.91278,7.61337,7.82611L223.492,356.44323l.02341.02411a.61378.61378,0,0,1,.04767.056c1.29214,1.73859,2.50314,3.50067,3.65558,5.324a40.57483,40.57483,0,0,1,3.08822,5.72467,8.317,8.317,0,0,0,1.69654,2.37906,14.05477,14.05477,0,0,0,8.215,3.75274,10.05978,10.05978,0,0,0,5.87775-1.27258l.66437-.38678.59778-.48663c.39563-.31751.80157-.65158,1.22027-1.0156a10.32953,10.32953,0,0,1,1.28559-1.00162,10.60994,10.60994,0,0,1,1.37982-.86212,18.38808,18.38808,0,0,1,12.51043-1.7529,18.63518,18.63518,0,0,0-12.23138,2.235,10.08715,10.08715,0,0,0-1.29657.87952,9.76938,9.76938,0,0,0-1.19641,1.00665c-.37347.349-.77625.70877-1.19775,1.0755l-.62342.54456-.69989.44625a10.67631,10.67631,0,0,1-6.36072,1.59842,14.59423,14.59423,0,0,1-6.29489-1.92361,11.09847,11.09847,0,0,1-4.7467-4.70764,39.33628,39.33628,0,0,0-3.1062-5.44635c-1.16522-1.75418-2.411-3.47946-3.69992-5.13306l.07083.0798-15.38165-15.55609L199.3023,334.241l-3.84391-3.892c-.32189-.33423-.63717-.62656-.9645-.99518a12.11793,12.11793,0,0,1-.92752-1.16809,6.831,6.831,0,0,1-.75931-1.38868,4.15314,4.15314,0,0,1-.23886-.86608,3.10831,3.10831,0,0,1-.0282-.52369,2.32966,2.32966,0,0,1,.036-.30636,1.43076,1.43076,0,0,1,.04175-.17548,1.29833,1.29833,0,0,1,.10721-.26791l.05819,1.01111a8.45954,8.45954,0,0,1-.99792-1.83805,5.09466,5.09466,0,0,1-.29492-1.09234,3.85434,3.85434,0,0,1-.04407-.61508,2.38153,2.38153,0,0,1,.12213-.78107l.024.72092a5.77408,5.77408,0,0,1-.49515-1.69175,3.14339,3.14339,0,0,1,.04071-1.03863,2.36505,2.36505,0,0,1,.19977-.57175,2.12688,2.12688,0,0,1,.17639-.28961,1.59081,1.59081,0,0,1,.32745-.33627l-.31741,1.0971a5.58111,5.58111,0,0,1-.39075-2.11,4.8042,4.8042,0,0,1,.154-1.10013,3.80345,3.80345,0,0,1,.47419-1.1127l-.137.72922c-.04721-.28183-.09771-.55848-.13318-.8461a3.5575,3.5575,0,0,1,.06305-.98511,2.07011,2.07011,0,0,1,1.60373-1.66318,4.10374,4.10374,0,0,1,1.84479.05331,8.28542,8.28542,0,0,1,1.54593.52854.73252.73252,0,0,1,.12521.07126l.01364.01,15.2277,10.92959,7.58413,5.50235c1.25153.92407,2.54538,1.8313,3.76194,2.76911l1.84591,1.4c.6117.47324,1.29245.83334,1.93564,1.25632a51.35229,51.35229,0,0,0,8.24906,4.16687,74.74248,74.74248,0,0,0,18.04141,4.42654A76.40357,76.40357,0,0,0,262.66167,343.83889Z" fill="#020202"/><path d="M192.52108,315.42941a1.6768,1.6768,0,0,1,1.21686-.37933,2.84368,2.84368,0,0,1,1.24951.35644,4.05312,4.05312,0,0,1,1.01309.76737c.13763.16006.28113.31179.40955.47543.11126.18069.23495.34659.33.53519-.71518-.44266-1.33017-.93525-2.01477-1.28061a4.62549,4.62549,0,0,0-1.04523-.427A2.58777,2.58777,0,0,0,192.52108,315.42941Z" fill="#020202"/><path d="M192.3929,318.889c.033-.22647.27588-.36862.49051-.43307a2.07845,2.07845,0,0,1,.66968-.02014,3.81338,3.81338,0,0,1,1.22089.39044,6.27486,6.27486,0,0,1,1.96612,1.531,10.6299,10.6299,0,0,1-1.136-.49346l-1.07731-.53257a9.74392,9.74392,0,0,0-1.06671-.47482,1.88112,1.88112,0,0,0-.546-.128A.58853.58853,0,0,0,192.3929,318.889Z" fill="#020202"/><path d="M192.45357,321.67355a1.53348,1.53348,0,0,1,1.65857-.42355,4.75527,4.75527,0,0,1,1.60446.73745,7.94841,7.94841,0,0,1,1.32132,1.11942,8.959,8.959,0,0,1,1.086,1.33435c-.48779-.31451-.91717-.67972-1.3721-1.00971-.449-.33554-.889-.67584-1.34811-.97695a7.51882,7.51882,0,0,0-1.41443-.79172,2.197,2.197,0,0,0-.76486-.17841A1.12192,1.12192,0,0,0,192.45357,321.67355Z" fill="#020202"/><path d="M193.5674,325.11627a.80484.80484,0,0,1,.373-.6622,1.22617,1.22617,0,0,1,.80194-.12769,3.31087,3.31087,0,0,1,1.38959.60208,7.35272,7.35272,0,0,1,1.99206,2.11167c-.427-.24768-.78915-.55573-1.17779-.826-.38147-.27808-.74884-.56739-1.13065-.8209a4.94261,4.94261,0,0,0-1.16278-.64547A.81252.81252,0,0,0,193.5674,325.11627Z" fill="#020202"/><path d="M254.84842,367.41058a12.29268,12.29268,0,0,0-6.60264,3.87855c-6.48035,6.37916-16.606,1.11384-18.52988-3.44271s-6.7842-10.83444-6.7842-10.83444c-1.15975-1.14271-2.71723-2.705-4.49623-4.5033,7.01294-5.9209,4.64331-19.72334,4.64331-19.72334-4.81464-9.30826-16.21807-11.63119-16.21807-11.63119,1.44631,11.59724-4.461,14.97513-4.46141,14.97533-4.07618-4.18818-7.05991-7.26674-7.05991-7.26674-2.37952-2.63266-1.772-3.74647-1.772-3.74647-1.5695-2.22765-1.11381-3.44275-1.11381-3.44275-.96191-2.12636-.0607-2.78452-.0607-2.78452a3.8287,3.8287,0,0,1,.1282-3.4596l-.0675-.675-8.35171,7.87542a8.05521,8.05521,0,0,0-2.22755,8.05259c2.13794,7.57187,8.0131,21.64215,22.73007,25.72211,0,0,19.44118,9.9231,4.65774,16.201l20.25127,20.25126s.8438-4.219,4.64091-5.15658a16.734,16.734,0,0,0,8.89269-5.83081c.7993-.988,1.66618-2.14151,2.59513-3.48693a29.52529,29.52529,0,0,1,4.95968-5.59082c1.66618-1.43919,3.5225-2.69223,4.69818-2.41377Z" fill="#020202"/><path d="M250.7185,343.175s-.092.3989-.22583,1.09772" fill="none" stroke="#020202" stroke-linecap="round" stroke-linejoin="round" stroke-width="1.68761"/><path d="M250.13067,346.38516c-.774,5.073-1.60932,14.86832,2.38214,19.76138" fill="none" stroke="#020202" stroke-linecap="round" stroke-linejoin="round" stroke-width="1.68761" stroke-dasharray="2.1466 2.1466"/><path d="M253.24688,366.9371a7.627,7.627,0,0,0,.87311.7103" fill="none" stroke="#020202" stroke-linecap="round" stroke-linejoin="round" stroke-width="1.68761"/><path d="M253.00487,359.30716a6.70814,6.70814,0,0,0,1.92566,1.4168,2.34008,2.34008,0,0,0,1.08631.167,4.41109,4.41109,0,0,0,1.17327-.30948,2.20511,2.20511,0,0,1-1.09106.73431,2.0637,2.0637,0,0,1-1.3786-.07031,2.87886,2.87886,0,0,1-1.0799-.80484A3.07665,3.07665,0,0,1,253.00487,359.30716Z" fill="#020202"/><path d="M378.76525,192.673a6.13742,6.13742,0,0,1,1.24115-1.5931,8.375,8.375,0,0,1,1.62573-1.20932,7.06945,7.06945,0,0,1,1.92066-.71986,4.24646,4.24646,0,0,1,2.04345.07956,18.79291,18.79291,0,0,0-1.82293.64271c-.56842.2639-1.12488.53414-1.67017.84235C381.00323,191.3238,379.95281,192.01916,378.76525,192.673Z" fill="#020202"/><path d="M382.81548,197.70205a1.68862,1.68862,0,0,0,0-3.37521,1.68862,1.68862,0,0,0,0,3.37521Z" fill="#020202"/><path d="M396.92388,194.59686a3.853,3.853,0,0,0,1.25073.65106c.17023-.01266.15589-.00329.23273-.14a.82745.82745,0,0,0,.11188-.22062,1.10444,1.10444,0,0,0,.09271-.29876,4.33207,4.33207,0,0,0,.15973-.68067c.07129-.23051.084-.48285.14636-.72792a9.74936,9.74936,0,0,1,.40222-1.51948,5.08289,5.08289,0,0,1,.35156,1.5653,4.57788,4.57788,0,0,1-.13269,1.638,1.82817,1.82817,0,0,1-.16491.42518,1.4841,1.4841,0,0,1-.513.62249,2.29443,2.29443,0,0,1-.31458.1279.95463.95463,0,0,1-.60162-.07492,1.606,1.606,0,0,1-.68457-.61154A2.3456,2.3456,0,0,1,396.92388,194.59686Z" fill="#020202"/><path d="M395.37127,190.24284a3.42514,3.42514,0,0,1-.38825-1.54744,2.43045,2.43045,0,0,1,.52527-1.67812,1.60679,1.60679,0,0,1,.93-.47787,1.92132,1.92132,0,0,1,.92286.14549,3.5441,3.5441,0,0,1,.70892.43172,4.80245,4.80245,0,0,1,.54138.5948,5.9301,5.9301,0,0,1-.75818-.172c-.24048-.044-.47516-.09723-.68933-.12558a1.0044,1.0044,0,0,0-.93768.25142,2.74042,2.74042,0,0,0-.49555,1.1133Z" fill="#020202"/><path d="M380.04778,205.12753a7.54109,7.54109,0,0,1,1.45868-.72183c.21753-.08133.41724-.16675.62476-.259a4.12028,4.12028,0,0,0,.68426-.43679,1.10306,1.10306,0,0,1-.16119.98153,1.77,1.77,0,0,1-.78882.61234,2.07975,2.07975,0,0,1-.92688.1366A1.6673,1.6673,0,0,1,380.04778,205.12753Z" fill="#020202"/><path d="M383.585,208.16522a28.7257,28.7257,0,0,1,5.04511-2.27777.47945.47945,0,0,1,.60516.63943,15.1814,15.1814,0,0,1-1.36151,2.55454,7.19848,7.19848,0,0,1-.93054,1.143,2.59249,2.59249,0,0,1-.61853.45212.91648.91648,0,0,1-.39118.09668.48465.48465,0,0,1-.33728-.17789.46982.46982,0,0,0,.57758-.14492,2.624,2.624,0,0,0,.3977-.53128,13.00055,13.00055,0,0,0,.6416-1.217c.38971-.83694.77344-1.69546,1.13074-2.54367l.605.63932A28.72207,28.72207,0,0,1,383.585,208.16522Z" fill="#020202"/><path d="M466.79221,385.44252a1.45253,1.45253,0,0,0,0-2.90332,1.45253,1.45253,0,0,0,0,2.90332Z" fill="#020202"/><path d="M474.62324,382.17847a1.45252,1.45252,0,0,0,0-2.90331,1.45252,1.45252,0,0,0,0,2.90331Z" fill="#020202"/><path d="M482.42284,378.39277a1.45252,1.45252,0,0,0,0-2.90331,1.45252,1.45252,0,0,0,0,2.90331Z" fill="#020202"/><path d="M492.066,376.24115a1.45252,1.45252,0,0,0,0-2.90331,1.45252,1.45252,0,0,0,0,2.90331Z" fill="#020202"/><path d="M500.79164,376.239a1.45252,1.45252,0,0,0,0-2.90331,1.45252,1.45252,0,0,0,0,2.90331Z" fill="#020202"/><path d="M508.72116,377.5064a1.45253,1.45253,0,0,0,0-2.90332,1.45253,1.45253,0,0,0,0,2.90332Z" fill="#020202"/></svg>