<svg id="Layer_1" data-name="Layer 1" xmlns="http://www.w3.org/2000/svg" viewBox="0 0 700 550"><title>takine selfie</title><rect x="359.22782" y="289.11233" width="142.78542" height="0.64935" fill="#020202"/><rect x="224.99713" y="289.11233" width="61.23051" height="0.64935" fill="#020202"/><rect x="318.65013" y="307.17852" width="183.36312" height="0.64935" fill="#020202"/><rect x="224.99713" y="307.17852" width="59.85041" height="0.64935" fill="#020202"/><path d="M431.504,133.25344s-19.31645,8.16061-29.34158,1.63734c0,0,1.74107-9.12224,6.88688-14.502,0,0,1.1697-6.78318-1.637-11.46125,0,0,5.37963.2339,5.37963-7.95268s-5.61376-4.21024-6.08138-2.57295c0,0-18.85518,8.65441-23.1111-11.24682.2925,2.98227.05869,9.47307-4.72355,19.90123,0,0,5.37994,22.22077,15.43775,21.519,0,0,1.87114,7.01712-4.21024,6.54929-.24048-.01947-.481-.026-.71477-.03248l-.065-4.17776-16.73689.43531a100.54374,100.54374,0,0,1,1.84513-15.17118c2.5729-11.69514-3.50848-17.07492-.93558-22.45466s3.27467-11.69514,14.73568-12.163c11.46132-.46778,17.30889-2.80684,24.56,11.22735,0,0,3.97642,17.30878,9.59018,18.24439C427.99554,111.96828,433.8431,125.06686,431.504,133.25344Z"/><path d="M392.74175,134.71464a14.60147,14.60147,0,0,0,2.79248,6.02989,4.37468,4.37468,0,0,0,2.7906,1.49852,5.98465,5.98465,0,0,0,3.1382-.65505,18.81027,18.81027,0,0,0,5.2149-4.08679,44.01734,44.01734,0,0,0,4.21562-5.20569.46868.46868,0,0,1,.39391-.20014l20.23856.52619.06807.006.00935.00152a23.10669,23.10669,0,0,1,8.319,3.03932,26.48491,26.48491,0,0,1,6.68132,5.79723,42.05515,42.05515,0,0,1,4.80765,7.37683,64.08182,64.08182,0,0,1,3.35481,8.10018,89.85737,89.85737,0,0,1,3.69141,17.04679,127.72434,127.72434,0,0,1,.98338,17.3745,151.73734,151.73734,0,0,1-1.135,17.34429,119.93748,119.93748,0,0,1-3.28042,17.05828,63.2482,63.2482,0,0,1-6.56225,16.06715,33.81385,33.81385,0,0,1-5.40858,6.82719,16.55222,16.55222,0,0,1-7.53627,4.407.27932.27932,0,0,1-.31532-.38653l.0124-.02725a21.83828,21.83828,0,0,0,1.37659-4.648,46.10286,46.10286,0,0,0,.67484-4.84261l.0007.0578a4.74875,4.74875,0,0,0-1.49-3.26326,4.54845,4.54845,0,0,0-3.49515-.689,14.44157,14.44157,0,0,0-3.6713,1.0834,24.96917,24.96917,0,0,0-3.42709,1.79.42663.42663,0,0,1-.58806-.13482.43539.43539,0,0,1-.04678-.35,42.67021,42.67021,0,0,0,1.46267-9.1928,80.67988,80.67988,0,0,0,.02012-9.35747l.74665.49411a8.65023,8.65023,0,0,1-1.752.28164c-.55765.052-1.10595.0726-1.65635.0997-1.098.0412-2.19179.05866-3.2844.06556-2.18477.01248-4.36509-.017-6.54447-.0595-4.35878-.086-8.71263-.23064-13.06532-.39669-8.70632-.32415-17.4-.80906-26.09789-1.30645a.77383.77383,0,0,1-.68912-.52479l-.1097-.326-.81262-2.41034-.93-2.65514-1.90079-5.30607-3.8589-10.59711,1.74711-.02067c-1.78594,5.233-3.668,10.41708-5.6977,15.56543-1.02735,2.57032-2.08465,5.12864-3.30826,7.64908a20.17816,20.17816,0,0,1-2.21306,3.71109,7.10721,7.10721,0,0,1-3.8072,2.63733,6.14784,6.14784,0,0,1-4.60064-.91683,13.61755,13.61755,0,0,1-3.264-2.95037c-.47064-.54613-.87134-1.13384-1.2994-1.70462-.38035-.59605-.79063-1.17785-1.14221-1.78793-.3373-.62535-.72654-1.18934-1.01987-1.865a19.407,19.407,0,0,1-.833-2.02932,21.78516,21.78516,0,0,1-.80186-8.49354,45.18828,45.18828,0,0,1,1.51764-8.26208,65.33644,65.33644,0,0,1,2.73868-7.8901c.53028-1.28887,1.11086-2.54827,1.75483-3.80723a29.36924,29.36924,0,0,0,1.50781-3.73589c1.80489-5.18174,3.45072-10.45017,5.19105-15.67955.86548-2.61748,1.74991-5.23031,2.67528-7.83086q.69087-1.95141,1.44676-3.88284a25.28869,25.28869,0,0,1,1.76606-3.7872,20.72186,20.72186,0,0,1,5.58683-6.1512,25.10076,25.10076,0,0,1,7.3475-3.81106l.04935.1678a24.82689,24.82689,0,0,0-7.15171,3.962,20.20323,20.20323,0,0,0-5.28507,6.14369,24.58788,24.58788,0,0,0-1.61823,3.73907q-.69472,1.938-1.35133,3.89345c-.8725,2.60757-1.70524,5.23061-2.52,7.86042-1.64021,5.25867-3.18054,10.54141-4.90122,15.80067a29.96706,29.96706,0,0,1-1.5401,3.93754c-.59625,1.20034-1.15717,2.45129-1.65962,3.71627a63.82511,63.82511,0,0,0-2.588,7.74469,43.64974,43.64974,0,0,0-1.37425,7.98422,20.17984,20.17984,0,0,0,.81613,7.8503,17.997,17.997,0,0,0,.75438,1.77936c.25613.58818.65964,1.1639.9815,1.74647.34479.57806.73029,1.12332,1.09122,1.6879.40023.52809.778,1.08206,1.20864,1.57714a11.91551,11.91551,0,0,0,2.83341,2.56707,4.3842,4.3842,0,0,0,3.27317.69786,5.37076,5.37076,0,0,0,2.82312-2.0269,18.58476,18.58476,0,0,0,1.99249-3.38291c1.17729-2.43979,2.22149-4.97958,3.23176-7.52738,2.00325-5.107,3.85773-10.293,5.63455-15.48737l.00327-.00921a.92373.92373,0,0,1,1.74407-.01146l3.79363,10.6315,1.86969,5.32811.91741,2.6752.44842,1.348.21777.68964.10877.35581a5.37808,5.37808,0,0,1,.11158.57307l-.79859-.85061c8.68012.573,17.37123,1.04941,26.05789,1.51919,4.3438.22708,8.68877.43263,13.03258.57959,2.17166.07307,4.34356.13292,6.51149.15108,1.08372.00842,2.16652.00625,3.24393-.01895.53683-.01889,1.07624-.03167,1.60325-.07365a8.33124,8.33124,0,0,0,1.47062-.19836l.06176-.01565a.55031.55031,0,0,1,.66876.39824.59706.59706,0,0,1,.01637.11167,81.58744,81.58744,0,0,1-.15344,9.49692,43.323,43.323,0,0,1-1.63834,9.37691l-.63462-.48475a25.72026,25.72026,0,0,1,3.58124-1.80422,15.17418,15.17418,0,0,1,3.88556-1.07955,5.22987,5.22987,0,0,1,4.00743.89169,5.45922,5.45922,0,0,1,1.70337,3.72.32155.32155,0,0,1,.0007.05815,46.58213,46.58213,0,0,1-.7118,4.9135,22.38866,22.38866,0,0,1-1.44676,4.77551l-.30292-.41364a12.297,12.297,0,0,0,3.86568-1.61141,21.28979,21.28979,0,0,0,3.37773-2.60645,31.39517,31.39517,0,0,0,5.28811-6.73208,62.517,62.517,0,0,0,6.37372-15.95226,119.11333,119.11333,0,0,0,2.94054-16.99346,151.28789,151.28789,0,0,0,.815-17.22792c-.11929-11.47587-1.32372-23.036-4.79525-33.94158a62.61136,62.61136,0,0,0-3.21142-7.91414,40.6358,40.6358,0,0,0-4.57865-7.13928,25.10593,25.10593,0,0,0-6.297-5.546,22.54182,22.54182,0,0,0-7.81627-2.94525l.07719.00742-20.22616-.87718.39345-.2a40.76483,40.76483,0,0,1-4.421,5.23279,19.4305,19.4305,0,0,1-5.52929,4.06822,6.49361,6.49361,0,0,1-3.43387.603,4.80172,4.80172,0,0,1-3.00885-1.7181,14.83889,14.83889,0,0,1-2.68464-6.239Z"/><path d="M346.59735,190.32572l12.38135-13.56867.38526-.42213.19228.55646a82.85676,82.85676,0,0,0,4.51362,10.706,38.26631,38.26631,0,0,0,2.97025,4.9206,10.623,10.623,0,0,0,3.95363,3.63744l1.12139.4795-.91133.82811-3.68112,3.34458-1.15157-1.31595,3.8037-3.20457.21005,1.30737a8.49724,8.49724,0,0,1-2.5623-1.9188,17.596,17.596,0,0,1-1.88208-2.38564,39.41906,39.41906,0,0,1-2.8795-5.19519,83.70952,83.70952,0,0,1-4.16088-10.9995l.57754.1343Z"/><polygon points="425.746 222.853 440.159 170.21 427.439 223.291 425.746 222.853"/><path d="M399.66306,142.45687q-1.92033,10.02276-3.92884,20.00564c-.63788,3.33367-1.32138,6.65748-1.90009,9.99433a90.36389,90.36389,0,0,0-1.41659,9.957,34.31434,34.31434,0,0,0,.25053,4.9614c.167,1.67758.386,3.35583.58759,5.0368.41052,3.36358.90665,6.72044,1.35484,10.08568q1.43716,10.08276,2.75037,20.20326-2.3112-9.94127-4.098-19.9892c-.61005-3.34717-1.13846-6.70836-1.64793-10.07775q-.36069-2.53177-.64631-5.081a35.466,35.466,0,0,1-.29754-5.20455,85.7867,85.7867,0,0,1,1.5408-10.1984c.676-3.34185,1.39671-6.66757,2.19389-9.97583Q396.744,152.23934,399.66306,142.45687Z"/><path d="M426.64281,229.84036a16.44417,16.44417,0,0,1,7.35709-2.63414,10.60065,10.60065,0,0,1,3.99223.36166,9.56781,9.56781,0,0,1,3.53866,1.95137,11.49064,11.49064,0,0,1,2.49143,3.14885,17.44828,17.44828,0,0,1,1.51437,3.66709,30.40612,30.40612,0,0,1,1.112,7.74566,44.98615,44.98615,0,0,0-1.752-7.539,19.896,19.896,0,0,0-1.59155-3.4599,10.907,10.907,0,0,0-2.349-2.90458,9.68381,9.68381,0,0,0-6.91452-2.303,16.1792,16.1792,0,0,0-3.76931.61549A20.779,20.779,0,0,0,426.64281,229.84036Z"/><path d="M332.00644,321.69855c1.16887-.91981,2.3761-1.79167,3.6217-2.59651s2.53891-1.55214,3.86124-2.23237a26.299,26.299,0,0,1,4.14848-1.79167c4.05281-2.50072,25.87894-15.59815,28.68616-15.59815-4.25422-.81437-8.4986-1.68629-12.76217-2.46236q-6.381-1.22157-12.78135-2.36652c-4.254-.74736-8.51754-1.50425-12.7907-2.14617-4.27316-.68028-8.54632-1.26472-12.8293-1.72465l-3.21914-.33532-1.52348-.0479a13.07317,13.07317,0,0,0-1.51367.10538,12.46729,12.46729,0,0,0-5.59548,2.13658c-3.37258,2.31868-5.62425,6.08407-7.253,9.974a60.34442,60.34442,0,0,0-3.43948,12.36924,97.86677,97.86677,0,0,0-1.447,12.87708s-10.29974,74.848-7.176,82.96326c3.11387,8.10562,37.1078,8.41222,37.1078,8.41222s12.005-97.82358,16.29732-103.90765a28.318,28.318,0,0,1-3.104,2.78815q-1.75367,1.394-3.62194,2.59646c-1.24537.81443-2.53892,1.5522-3.861,2.242a26.30074,26.30074,0,0,1-4.14872,1.79168A26.3233,26.3233,0,0,1,332.00644,321.69855Zm111.06468-73.4204c-4.206,4.0624-7.5882,4.50316-7.5882,4.50316L428.92,256.33594c.364.709.75671,1.4084,1.17846,2.08868a26.84211,26.84211,0,0,0,4.59877,5.81577,16.28411,16.28411,0,0,1-5.83477-4.97262,30.42947,30.42947,0,0,1-3.83247-6.69728c-.49823-1.17846-.93893-2.3857-1.35109-3.59293-.364-1.22636-.74712-2.44319-1.01566-3.68872a37.25349,37.25349,0,0,1-1.06337-7.55955l2.40488,6.88885.94852-2.836c2.33775-7.48288,1.63834-18.712,1.63834-18.712-3.97609,1.40846-52.15976-1.6384-52.15976-1.6384s-22.21864,31.34958-26.195,32.51845c3.938-.69941,7.87568-1.236,11.82323-1.74378,3.94755-.52695,7.89486-.96765,11.83282-1.4467l11.83259-1.351,11.86159-1.38928a87.05981,87.05981,0,0,1-11.64124,2.85523c-3.91878.7473-7.87569,1.303-11.83259,1.78208q-5.93571.68981-11.90955,1.04437c-3.98567.22035-7.97135.34491-11.96685.24906-3.97609,1.16893-52.32256-2.80727-63.85831,19.33477s-33.67791,73.28631-32.43231,78.27805,15.90481,14.96576,19.651,15.90476l25.572-39.60853a81.08629,81.08629,0,0,1,.527-13.02076,56.31639,56.31639,0,0,1,2.97025-12.77169,29.089,29.089,0,0,1,2.97-5.95951,18.7948,18.7948,0,0,1,4.62777-4.95345,14.09271,14.09271,0,0,1,6.40038-2.51025c.57473-.03831,1.1497-.14374,1.72442-.13415l1.71507.04789,3.2575.31619c8.6614.9773,17.21754,2.50067,25.70632,4.31152,8.49859,1.78209,16.92047,3.89954,25.256,6.29483C375.13123,299.47985,459.46458,337.18168,443.07112,248.27815Zm-63.08218-14.228c-.66128,1.418-1.37,2.80727-2.15576,4.15819q-1.1642,2.02646-2.52,3.94743A28.52345,28.52345,0,0,1,372.324,245.835a30.35444,30.35444,0,0,1,1.69588-4.42649c.661-1.418,1.37-2.80727,2.15576-4.15825q1.16384-2.02638,2.51973-3.94743a29.33258,29.33258,0,0,1,2.98943-3.67913A30.40986,30.40986,0,0,1,379.98894,234.05016Zm26.645,19.9a49.6585,49.6585,0,0,1-1.6-5.97863c-.4407-2.00243-.76654-4.0241-1.06338-6.0553-.2683-2.0312-.51742-4.0624-.65169-6.11278a51.02861,51.02861,0,0,1-.11485-6.1798,49.1375,49.1375,0,0,1,1.59039,5.97863c.4407,2.00243.76654,4.0241,1.0732,6.04571.26807,2.0312.5076,4.0624.65146,6.11278A51.18684,51.18684,0,0,1,406.634,253.95018Z"/><line x1="428.91984" y1="256.33591" x2="424.00471" y2="244.61815" fill="none"/><path d="M343.63786,315.078a2.79808,2.79808,0,0,1-.23953.23953A.938.938,0,0,1,343.63786,315.078Z" fill="#fff"/><path d="M379.22685,104.48341a2.77519,2.77519,0,0,1,1.12255-1.6726,5.27621,5.27621,0,0,1,1.83015-.89874,9.405,9.405,0,0,1,.98712-.20736c.33333-.02512.66409-.067.99648-.06231a7.16254,7.16254,0,0,1,1.964.2681c-.64794.17967-1.27624.28841-1.89658.41084-.6159.13766-1.22642.25078-1.8112.431a9.06073,9.06073,0,0,0-1.70267.6304A4.63508,4.63508,0,0,0,379.22685,104.48341Z"/><path d="M390.45429,100.624a6.4091,6.4091,0,0,1,1.76279-1.24811,9.976,9.976,0,0,1,2.02336-.758,9.089,9.089,0,0,1,4.28345-.099c-.70244.1943-1.38594.31754-2.06172.47333-.676.145-1.34314.30333-2.00629.47248-.66713.15667-1.32209.35508-1.98664.54233Z"/><path d="M383.43711,108.49875a.97518.97518,0,0,0,0-1.94919.97518.97518,0,0,0,0,1.94919Z"/><path d="M396.41871,105.575a.97518.97518,0,0,0,0-1.94919.97518.97518,0,0,0,0,1.94919Z"/><path d="M387.88123,108.69368c.0821.59873.11462,1.17276.14877,1.73951.04374.56414.055,1.12434.13684,1.65682a3.9661,3.9661,0,0,0,.39812,1.4512,1.48378,1.48378,0,0,0,1.30455.64918,1.65476,1.65476,0,0,1-.90806.22973,1.406,1.406,0,0,1-.92513-.44757,3.15588,3.15588,0,0,1-.73637-1.77269,6.36653,6.36653,0,0,1,.05146-1.80293A5.75666,5.75666,0,0,1,387.88123,108.69368Z"/><path d="M386.82861,118.40062a9.84951,9.84951,0,0,0,5.78753,1.27943,4.22987,4.22987,0,0,0,.72256-.11708,3.88608,3.88608,0,0,0,.7111-.18385l.705-.22854c.22222-.11.44888-.213.67859-.31368a14.46619,14.46619,0,0,0,1.32934-.73361c.43063-.27675.83671-.59485,1.29331-.87218a13.98324,13.98324,0,0,1-1.02688,1.20893,8.67889,8.67889,0,0,1-1.262.99191,7.04348,7.04348,0,0,1-3.05235,1.11627,7.06839,7.06839,0,0,1-5.88624-2.1476Z"/><path d="M393.80957,128.69963a12.46105,12.46105,0,0,0,3.31738-.38125,7.24331,7.24331,0,0,0,2.99809-1.51594,7.4045,7.4045,0,0,1-2.90054,1.82585,12.90861,12.90861,0,0,1-3.41493.7211Z"/><path d="M387.64736,100.4291a.97518.97518,0,0,0,0-1.94919.97518.97518,0,0,0,0,1.94919Z"/><path d="M408.69861,107.68009a.97518.97518,0,0,0,0-1.94919.97518.97518,0,0,0,0,1.94919Z"/><polygon points="381.332 166.622 381.285 165.973 389.539 165.383 389.482 161.511 390.132 161.502 390.197 165.988 381.332 166.622"/><path d="M389.68448,153.99637c-.1738-3.84513-.3359-7.69048-.44186-11.53675-.11205-3.84614-.24749-7.69188-.30409-11.53911l.39742.38154-8.965.27643-8.96806.20146.393-.41186c.09871,4.33035.17613,8.66119.20841,12.99251q.08491,6.49627.04562,12.9931-.36281-6.49136-.61005-12.9824c-.18643-4.32716-.32772-8.65482-.44748-12.98292l-.01123-.40049.4042-.01161,8.96386-.2571,8.96666-.19175.39228-.0084.00538.39015c.05239,3.84676.04117,7.69477.04982,11.54244C389.77851,146.29919,389.73735,150.14768,389.68448,153.99637Z"/><path d="M380.27942,135.63147a.97518.97518,0,0,0,0-1.94919.97518.97518,0,0,0,0,1.94919Z"/><path d="M359.192,176.96877q5.45853-8.55006,11.052-16.9979c.86619-1.39623,1.56162-2.964,2.32044-4.46508l2.23716-4.55269c.7614-1.51123,1.5408-3.01434,2.35249-4.50459.40724-.74458.822-1.48574,1.26641-2.216.2262-.36379.44818-.72917.70642-1.08258a6.656,6.656,0,0,1,.41193-.5262,2.36118,2.36118,0,0,1,.25613-.25929,1.86724,1.86724,0,0,1,.16164-.12836,1.39564,1.39564,0,0,1,.25848-.11278,1.11774,1.11774,0,0,1,.86852.16345,1.33814,1.33814,0,0,1,.46456.67622,3.72323,3.72323,0,0,1,.14339,1.37168,11.65165,11.65165,0,0,1-.46152,2.55587,37.34535,37.34535,0,0,1-1.83693,4.76043c-1.36794,3.09262-2.83365,6.14977-4.03012,9.29365l-.189.59443a1.31821,1.31821,0,0,0-.05919.52219c.04047.087.24117.112.43345.06468a3.07363,3.07363,0,0,0,.57964-.17173,14.57435,14.57435,0,0,0,2.21915-1.159c.71835-.43958,1.40583-.91291,2.08933-1.41445.69215-.49184,1.39343-.96487,2.09892-1.43331,1.41168-.93473,2.84066-1.84325,4.30146-2.70567.73262-.42795,1.47016-.84908,2.232-1.23609.38221-.19219.76981-.3759,1.17846-.5345a3.99145,3.99145,0,0,1,.64841-.20041,1.25873,1.25873,0,0,1,.39789-.02964.53432.53432,0,0,1,.48584.37157l-.02479-.06415a2.26235,2.26235,0,0,1,.2152.81873,2.83306,2.83306,0,0,1-.05544.8161,3.58757,3.58757,0,0,1-.7132,1.42334l-.12468-.485a3.10466,3.10466,0,0,1,1.00724.68911,2.06107,2.06107,0,0,1,.57566,1.13157,3.03876,3.03876,0,0,1-.8,2.25315,13.97392,13.97392,0,0,1-3.55013,2.7259c-1.26384.74868-2.55575,1.43215-3.84252,2.11275l-1.91576,1.02768c-.31345.17535-.62549.35274-.92162.53838-.146.09345-.29006.18874-.4145.28491a1.3735,1.3735,0,0,0-.15134.1328c-.03065.02647-.01685.02395-.019.01851-.01146.0103.011-.01719.02339-.07388a.52755.52755,0,0,0-.01357-.14813.258.258,0,0,0-.08023-.12441l-.0007-.00717c-.01778-.004.0283.01211.051.021a1.75111,1.75111,0,0,0,.203.0628c.15719.03795.32538.0698.49754.0974.34549.05351.69987.09582,1.05682.131.71368.07123,1.436.12,2.15881.16444l4.35292.23012c.72818.03915,1.45495.07672,2.19248.13619l.56444.05722c.09427.01082.1993.02825.31368.05176a1.01894,1.01894,0,0,1,.43438.22415,1.36042,1.36042,0,0,1,.26666,1.51708,2.04894,2.04894,0,0,1-.89285,1.046,2.4387,2.4387,0,0,1-.625.24038l-.5373.12549-2.12231.49564c-2.82032.68569-5.635,1.4-8.39544,2.26348a31.39354,31.39354,0,0,0-4.024,1.5362,13.2167,13.2167,0,0,0-3.39692,2.54418,24.993,24.993,0,0,0-2.82452,3.25832,14.57239,14.57239,0,0,0-1.14244,1.81456,4.60764,4.60764,0,0,0-.38268.95718l-.20608,1.07049-1.71717,8.55877-.08608-.01529,1.39764-8.62354.18432-1.07706a4.971,4.971,0,0,1,.3993-1.075,14.99949,14.99949,0,0,1,1.141-1.901,25.51363,25.51363,0,0,1,2.81727-3.39048,13.83367,13.83367,0,0,1,3.50592-2.734,32.04037,32.04037,0,0,1,4.09071-1.66252c2.77306-.94578,5.59454-1.70653,8.43123-2.38863l2.127-.5047.52514-.12459a1.51585,1.51585,0,0,0,.39041-.14792,1.14829,1.14829,0,0,0,.4952-.58163c.10058-.23578.04678-.49116-.01521-.51616a.11736.11736,0,0,0-.04421-.02371c-.06386-.01164-.13824-.02529-.22479-.03471l-.52163-.05076c-.713-.055-1.44-.09026-2.16488-.12658-1.45191-.06994-2.9078-.134-4.36556-.239-.72935-.05167-1.45869-.10748-2.19225-.18751-.36678-.03968-.73473-.0867-1.10782-.1481-.1869-.03175-.3759-.06874-.57192-.11824a2.52695,2.52695,0,0,1-.31626-.10293.88348.88348,0,0,1-.19368-.09707l-.11438-.08257a.66234.66234,0,0,1-.15532-.23643.58434.58434,0,0,1,.05006-.47541.90537.90537,0,0,1,.14806-.19569,2.16453,2.16453,0,0,1,.25825-.22681c.16467-.12453.32584-.228.487-.3293.32233-.19771.6449-.37681.96794-.5537l1.94079-1.01824c1.29191-.66814,2.57961-1.33471,3.82708-2.05815a13.66929,13.66929,0,0,0,3.39925-2.4886,2.39916,2.39916,0,0,0,.69356-1.71345,1.881,1.881,0,0,0-1.156-1.33905l-.38245-.17827.25778-.307a2.9855,2.9855,0,0,0,.61707-1.16241,2.25025,2.25025,0,0,0,.05637-.64046,1.77267,1.77267,0,0,0-.13544-.59636l-.025-.06448c-.00467.06053.07907.04843-.00514.04389a.75947.75947,0,0,0-.23041.01743,3.50346,3.50346,0,0,0-.5642.1638c-.38222.1395-.763.31-1.13917.49-.7525.36368-1.49308.76443-2.22453,1.18063-1.4622.83575-2.89961,1.72132-4.31924,2.63286-.70923.4566-1.41589.919-2.10827,1.39653-.68608.48882-1.39858.9651-2.1284,1.39749a14.84021,14.84021,0,0,1-2.28628,1.15206,3.33224,3.33224,0,0,1-.636.17734.64675.64675,0,0,1-.71578-.21292,1.29906,1.29906,0,0,1,.0428-.71625l.18854-.61537c1.15951-3.19545,2.64183-6.23448,3.90123-9.36984a37.0646,37.0646,0,0,0,1.6884-4.739,11.12471,11.12471,0,0,0,.37824-2.43354c.04187-.77358-.17731-1.734-.71672-1.52539-.015.01182-.01427.0212-.02783.02082l-.08211.07313a1.76825,1.76825,0,0,0-.18268.19675,5.93075,5.93075,0,0,0-.356.48108c-.23158.33572-.45122.69165-.66666,1.04811-.42853.7171-.83367,1.45454-1.23133,2.196-.79578,1.48357-1.552,2.99238-2.31108,4.5002l-2.2809,4.5264c-.781,1.50495-1.472,3.03446-2.40067,4.50377q-5.70659,8.39168-11.5554,16.68258Z"/><polygon points="378.252 164.908 390.718 156.046 391.204 156.773 378.252 164.908"/><path d="M364.21816,184.24426a11.0787,11.0787,0,0,1,.97192-1.21776,7.769,7.769,0,0,0,.89917-1.19923,1.33008,1.33008,0,0,1,.01777.87078,2.1854,2.1854,0,0,1-.42666.75432A2.28465,2.28465,0,0,1,364.21816,184.24426Z"/><path d="M264.50147,376.6477c.02951.02308,10.20343-17.92171,10.18454-17.8904-.889,1.47377-11.92257,20.94833-12.70252,22.47461a31.36884,31.36884,0,0,0-2.02988,4.66777,9.80723,9.80723,0,0,0-.2998,1.19719c-.03987.20157-.05781.39118-.082.59635-.028.2242-.04456.45184-.08609.6734a12.25167,12.25167,0,0,1-.7116,2.59337,15.49647,15.49647,0,0,1-2.74432,4.59036,10.83924,10.83924,0,0,1-2.029,1.83673,6.04418,6.04418,0,0,1-2.6438,1.0855,4.161,4.161,0,0,1-1.50922-.05976,4.0059,4.0059,0,0,1-.72579-.2304l-.60649-.28676a12.337,12.337,0,0,0-2.35334-.70829,19.04335,19.04335,0,0,1-4.83565-2.17143c-1.501-.89325-2.92621-1.88232-4.32206-2.90427-2.78676-2.05045-5.48955-4.19134-8.20254-6.32091q-2.03159-1.60069-4.03259-3.23944c-1.35353-1.06888-2.68845-2.16018-4.0279-3.24681-5.36648-4.33669-10.57651-8.86057-15.714-13.46l-.02066-.0185a.68879.68879,0,0,1-.13652-.85783,2.07829,2.07829,0,0,1,.32882-.43732,3.20439,3.20439,0,0,1,.32544-.301,4.09085,4.09085,0,0,1,.69191-.451,4.42209,4.42209,0,0,1,.72019-.3208,5.09154,5.09154,0,0,1,.73112-.22592,11.00612,11.00612,0,0,1,2.91738-.31379,26.524,26.524,0,0,1,5.6067.76457c.904.23182,1.80506.4738,2.69318.74694.87745.28995,1.77916.564,2.63568.86753,1.7301.59428,3.45267,1.20595,5.188,1.77117a66.13881,66.13881,0,0,0,10.54352,2.70151,16.6674,16.6674,0,0,0,5.35423-.01755c3.96226-.016,15.19134-17.55586,16.33431-18.98309a2.96017,2.96017,0,0,1,.55809.31554c.02948.02371-12.21522,16.0601-12.23536,16.09135a7.71915,7.71915,0,0,1-4.52582,3.13028,16.33671,16.33671,0,0,1-5.58258.34045,57.29815,57.29815,0,0,1-10.83636-2.31926c-1.76567-.52116-3.52479-1.05632-5.26895-1.63023-.87562-.296-1.73285-.53937-2.59958-.81187-.86691-.25186-1.74135-.47182-2.61474-.68191a25.62882,25.62882,0,0,0-5.26432-.73011,10.23826,10.23826,0,0,0-2.53611.22693,3.777,3.777,0,0,0-.584.16713,3.04993,3.04993,0,0,0-.5385.22584,2.64134,2.64134,0,0,0-.46443.28593,1.80013,1.80013,0,0,0-.18264.1605c-.04794.04017-.11533.13808-.097.09969l-.15714-.87608q7.58351,7.01241,15.23714,13.94756c1.288,1.14178,2.57229,2.289,3.87545,3.41378,1.30914,1.11773,2.63678,2.21318,3.96983,3.30159a97.21838,97.21838,0,0,0,8.29978,6.1214c1.43669.938,2.90007,1.83488,4.40434,2.6275a18.825,18.825,0,0,0,4.65992,1.8274,13.24285,13.24285,0,0,1,2.60206.718l.31929.15316.24346.10954a2.69964,2.69964,0,0,0,.50365.15652,2.85768,2.85768,0,0,0,1.05772.03352,7.02874,7.02874,0,0,0,3.90375-2.4593,15.19062,15.19062,0,0,0,2.63428-4.17754,13.34411,13.34411,0,0,0,.74667-2.35489c.04863-.20009.07233-.4019.10872-.60344.03679-.22117.07339-.45893.1287-.67789a10.72351,10.72351,0,0,1,.39374-1.29,27.09062,27.09062,0,0,1,2.35916-4.67437c.91694-1.47194,12.1662-20.812,13.227-22.17886" fill="#020202"/><path d="M254.7489,381.352a3.95166,3.95166,0,0,1-.72477,1.71141,4.13122,4.13122,0,0,1-1.4439,1.25622,3.662,3.662,0,0,1-1.87717.41753,3.9367,3.9367,0,0,1-1.79373-.49706,11.18393,11.18393,0,0,0,1.76416-.07271,4.55351,4.55351,0,0,0,1.57088-.49679A7.46362,7.46362,0,0,0,254.7489,381.352Z" fill="#020202"/><path d="M251.52661,397.68368s2.487,3.62893-3.84176,8.33723c0,0-1.3969,2.459-9.133-3.90489L197.98676,372.2593s1.89373-8.84442,9.08376-5.54666l9.47879,8.45021s1.9371-7.92285,4.10213-9.37866a11.65377,11.65377,0,0,1,13.72191,3.83752s-7.58838,9.40648-2.55056,18.25415C231.82279,387.87586,243.24722,395.4509,251.52661,397.68368Z" fill="#020202"/><path d="M321.373,433.678c.03665.00776,1.28544-20.58264,1.28225-20.54622-.15052,1.71452-1.49894,24.05688-1.52846,25.77064a31.36968,31.36968,0,0,0,.22893,5.08489,9.808,9.808,0,0,0,.257,1.20709c.05281.19857.12.37676.18858.57166.07342.21367.15862.42542.21873.64268a12.25142,12.25142,0,0,1,.501,2.64214,15.49631,15.49631,0,0,1-.4468,5.32945,10.83943,10.83943,0,0,1-1.01487,2.54172,6.04443,6.04443,0,0,1-1.89738,2.13729,4.16137,4.16137,0,0,1-1.38182.60983,4.00684,4.00684,0,0,1-.75318.11214l-.6708.00907a12.33676,12.33676,0,0,0-2.42511.39844,19.0434,19.0434,0,0,1-5.2979.17561c-1.74087-.1424-3.45579-.40419-5.15879-.70842-3.40445-.6165-6.77325-1.35115-10.14623-2.07116q-2.52843-.54454-5.04614-1.13671c-1.68563-.365-3.3644-.75828-5.04519-1.1454-6.7266-1.53581-13.395-3.30854-20.03144-5.181l-.02669-.00753a.68876.68876,0,0,1-.49975-.71046,2.0784,2.0784,0,0,1,.10307-.53735,3.20366,3.20366,0,0,1,.16-.41346,4.091,4.091,0,0,1,.42318-.70927,4.42254,4.42254,0,0,1,.50582-.60476,5.09063,5.09063,0,0,1,.55736-.52434,11.00548,11.00548,0,0,1,2.48236-1.56442,26.5244,26.5244,0,0,1,5.37194-1.77819c.91387-.18922,1.82956-.368,2.74733-.51313.91557-.12534,1.846-.27559,2.7487-.37955,1.8152-.22685,3.63129-.43477,5.4384-.69a66.13863,66.13863,0,0,0,10.65762-2.20887,16.66727,16.66727,0,0,0,4.80132-2.36968c3.55178-1.7563,5.92631-22.44691,6.32544-24.2313a2.95931,2.95931,0,0,1,.64.038c.0369.00834-3.91082,19.79505-3.91518,19.832a7.7191,7.7191,0,0,1-2.6888,4.80125,16.33644,16.33644,0,0,1-4.86446,2.76009,57.29849,57.29849,0,0,1-10.75259,2.68095c-1.815.30816-3.63028.60087-5.44915.85219-.91657.11914-1.79353.27738-2.69181.41366-.88937.15491-1.77147.34179-2.64829.53706a25.62822,25.62822,0,0,0-5.04926,1.65862,10.23746,10.23746,0,0,0-2.17811,1.31879,3.77665,3.77665,0,0,0-.4511.40687,3.05046,3.05046,0,0,0-.38438.43959,2.64112,2.64112,0,0,0-.29143.461,1.7986,1.7986,0,0,0-.09349.22445c-.0254.05716-.04288.17473-.04325.13216l-.5263-.71779q9.89423,2.9644,19.81748,5.82857c1.65885.45925,3.31669.925,4.98166,1.3624,1.66723.42837,3.34128.8286,5.01711,1.22012A97.21614,97.21614,0,0,0,303.576,458.9787c1.70278.21088,3.41144.37307,5.111.42365a18.82545,18.82545,0,0,0,4.98882-.40734,13.2437,13.2437,0,0,1,2.65277-.49906l.35412-.0028.26683-.00865a2.69874,2.69874,0,0,0,.52117-.08084,2.85759,2.85759,0,0,0,.96476-.4349,7.02872,7.02872,0,0,0,2.42506-3.92512,15.19026,15.19026,0,0,0,.52944-4.91029,13.3433,13.3433,0,0,0-.36464-2.44337c-.04429-.20109-.11173-.39277-.16765-.58979-.06418-.21482-.13584-.44446-.18243-.66545a10.7232,10.7232,0,0,1-.21349-1.33175,27.0909,27.0909,0,0,1,.06392-5.23558c.17646-1.72518,1.77768-24.04157,2.12959-25.7356" fill="#020202"/><path d="M314.68165,442.19091a3.95163,3.95163,0,0,1,.10142,1.85578,4.13139,4.13139,0,0,1-.7446,1.7631,3.662,3.662,0,0,1-1.50246,1.20028,3.93667,3.93667,0,0,1-1.82962.34215,11.18382,11.18382,0,0,0,1.55256-.8409,4.55332,4.55332,0,0,0,1.19252-1.13682A7.4636,7.4636,0,0,0,314.68165,442.19091Z" fill="#020202"/><path d="M318.96745,458.27626s3.82918,2.166.21476,9.17728c0,0-.1736,2.8227-9.91975.5079l-49.5607-8.9827s-2.18741-8.7764,5.72031-8.97543l12.22864,3.42255s-1.74332-7.96773-.43876-10.22713a11.65377,11.65377,0,0,1,14.0118-2.58588s-2.68027,11.78481,5.73432,17.51677C296.95807,458.12962,310.54949,459.91074,318.96745,458.27626Z" fill="#020202"/></svg>