<svg id="Layer_1" data-name="Layer 1" xmlns="http://www.w3.org/2000/svg" viewBox="0 0 700 550"><title>painting</title><path d="M401.487,229.18569c-12.2812,24.90075-28.15256,42.27226-47.60487,34.443H359.147l-4.32591-21.99743c.91933-6.17439,2.1-13.08429,3.59039-21.01034a57.92583,57.92583,0,0,0,9.79373,4.684,65.11833,65.11833,0,0,0,21.833,4.64529A47.38581,47.38581,0,0,0,401.487,229.18569Z" fill="#020202"/><path d="M466.79168,287.7165c4.07428,18.72636,8.01312,33.29137,12.15521,41.469a76.94578,76.94578,0,0,1-5.37112,5.55506,37.24222,37.24222,0,0,1-5.97119,4.60654,20.32829,20.32829,0,0,1-6.83247,2.7485,17.57156,17.57156,0,0,1-3.71621.26132,21.88009,21.88009,0,0,1-3.726-.53227c-2.0323-7.80992-2.65169-9.42614-3.0872-18.88123-.41613-8.7777,1.142-36.76563,1.142-36.76563-1.88711-57.38891-21.08773-76.20239-21.08773-76.20239,16.8005-8.9422,19.22962-21.63936,19.22962-21.63936S460.68505,259.6705,466.79168,287.7165Z" fill="#020202"/><path d="M478.94689,329.18549a27.02943,27.02943,0,0,1-4.28722,6.60021,26.31971,26.31971,0,0,1-6.04857,5.2163,21.54129,21.54129,0,0,1-3.65821,1.75167,15.99767,15.99767,0,0,1-3.98721.84195,13.72018,13.72018,0,0,1-4.03559-.3,13.20816,13.20816,0,0,1-3.59046-1.43229c.61939,2.39037,1.37422,5.36144,2.29362,9.31,14.30369,9.84222,33.08811-14.88433,33.572-15.53272C485.5471,338.06969,482.17922,335.57282,478.94689,329.18549Zm-20.1587,20.46839a1.45258,1.45258,0,0,1,0-2.90331A1.45258,1.45258,0,0,1,458.78819,349.65388Zm6.73571-.46451a1.45258,1.45258,0,0,1,0-2.90331A1.45258,1.45258,0,0,1,465.5239,349.18937Zm7.43248-3.484a1.45258,1.45258,0,0,1,0-2.90332A1.45258,1.45258,0,0,1,472.95638,345.70536Zm5.57438-5.34206a1.45258,1.45258,0,0,1,0-2.90332A1.45258,1.45258,0,0,1,478.53076,340.3633Z" fill="#020202"/><path d="M453.33963,341.86333c-.029-.01937-.06775-.03869-.09675-.05806.029.00969.05806.00969.08707.01937A.073.073,0,0,1,453.33963,341.86333Z" fill="#fff"/><path d="M380.09478,76.397a8.91084,8.91084,0,0,0-3.07483,3.7052,13.67781,13.67781,0,0,0-.7702,2.27973l-.23584,1.20929a8.74063,8.74063,0,0,1-.324,1.28094,10.98892,10.98892,0,0,1-2.72382,4.54328,7.63579,7.63579,0,0,1-2.2705,1.60888,4.34616,4.34616,0,0,1-1.49994.35962,2.83994,2.83994,0,0,1-1.70386-.45233.71875.71875,0,0,1-.31036-.4126l-.00238-.00836a3.82724,3.82724,0,0,1-.14722-1.14813,5.45134,5.45134,0,0,1,.10992-1.037,6.573,6.573,0,0,1,.70777-1.87811,9.41088,9.41088,0,0,1,1.125-1.57807,12.59768,12.59768,0,0,1,1.357-1.30847l-.15655.17584a13.061,13.061,0,0,0,1.569-3.40136c.09228-.31916.13159-.56128.2251-.94922a5.656,5.656,0,0,1,.37365-1.08527,9.848,9.848,0,0,1,1.11713-1.84485,9.65857,9.65857,0,0,1,3.19794-2.7738,5.0346,5.0346,0,0,1,4.20611-.34052l-.18029-.01373a70.54076,70.54076,0,0,1,9.14276-1.05322,37.6034,37.6034,0,0,1,9.25128.51349,18.24892,18.24892,0,0,1,4.50586,1.4754,12.38122,12.38122,0,0,1,3.91668,2.88544c.25641.32452.53626.63336.77045.9754.21814.34772.47046.69708.6568,1.04767.37366.69971.74963,1.3999,1.0542,2.12848a30.12861,30.12861,0,0,1,1.56763,4.44616A55.9122,55.9122,0,0,1,412.882,104.171a30.8813,30.8813,0,0,0,1.1543,8.82324,29.27478,29.27478,0,0,0,1.60284,4.1897,5.22228,5.22228,0,0,0,1.28131,1.73407,5.9169,5.9169,0,0,0,1.95874,1.01794.0969.0969,0,0,1,.06329.12159.0987.0987,0,0,1-.11108.066,5.75116,5.75116,0,0,1-2.19757-.822,5.81055,5.81055,0,0,1-1.62384-1.75628,24.36406,24.36406,0,0,1-2.0415-4.1919,27.85332,27.85332,0,0,1-1.78071-9.16662c-.04113-1.59058.02625-3.07727-.024-4.58362-.02912-1.5044-.07434-3.00818-.20057-4.50354a54.44959,54.44959,0,0,0-1.35974-8.84265,28.18517,28.18517,0,0,0-1.358-4.21436c-.265-.68829-.59533-1.34058-.92151-1.9964a10.53448,10.53448,0,0,0-1.15716-1.74151,14.34534,14.34534,0,0,0-7.38825-4.25251,40.05933,40.05933,0,0,0-17.96069-.10351.33022.33022,0,0,1-.16943-.01l-.01123-.00379a4.10835,4.10835,0,0,0-3.56226.49756,9.26542,9.26542,0,0,0-3.50848,4.37183,4.31311,4.31311,0,0,0-.22272.84051c-.048.27057-.09229.69812-.16565,1.0326a12.55981,12.55981,0,0,1-1.59418,3.99847.56261.56261,0,0,1-.09717.12091l-.05963.05524a15.38925,15.38925,0,0,0-1.15277,1.15106,7.69247,7.69247,0,0,0-.90289,1.28674,5.29259,5.29259,0,0,0-.55274,1.38977,3.75462,3.75462,0,0,0-.09.70685,2.68446,2.68446,0,0,0,.04437.5932l-.31244-.42065a1.83416,1.83416,0,0,0,1.6106-.03333A6.10265,6.10265,0,0,0,371.918,88.314a10.26834,10.26834,0,0,0,2.59723-3.85327c.301-.73047.46161-1.49444.72143-2.35815a11.92745,11.92745,0,0,1,1.06482-2.38141,8.7166,8.7166,0,0,1,3.71149-3.49957.09636.09636,0,0,1,.09271.16821Z" fill="#020202"/><path d="M372.48229,88.82709a45.25177,45.25177,0,0,0,.24963,8.225,27.96613,27.96613,0,0,0,.77973,3.963c.13855.65613.38714,1.27466.58191,1.90888.2384.61627.49127,1.22772.77417,1.8183a15.77468,15.77468,0,0,0,2.10669,3.28821,15.13477,15.13477,0,0,0,2.77954,2.71685,10.74612,10.74612,0,0,0,3.37665,1.70905,8.12249,8.12249,0,0,0,1.85369.315,6.45682,6.45682,0,0,0,1.8064-.10882l.10992-.02405a.70124.70124,0,0,1,.83515.53491.73618.73618,0,0,1,.01623.15881,39.39889,39.39889,0,0,1-.40545,5.19934,15.59416,15.59416,0,0,1-.58972,2.56293,4.13378,4.13378,0,0,1-.60962,1.20307.99512.99512,0,0,1-.60309.36346.889.889,0,0,1-.61273-.247.82238.82238,0,0,0,.58795.111.79965.79965,0,0,0,.401-.3855,4.00224,4.00224,0,0,0,.34222-1.1715,18.51694,18.51694,0,0,0,.18048-2.51435c.03119-1.68811-.051-3.39819-.15142-5.07434l.96106.6695a8.5303,8.5303,0,0,1-4.549.09259,11.05385,11.05385,0,0,1-4.05365-1.86756,14.90713,14.90713,0,0,1-3.16546-3.03552c-.22125-.288-.45477-.564-.66474-.86237l-.59429-.92858a15.86475,15.86475,0,0,1-1.03083-1.93372A22.71488,22.71488,0,0,1,371.456,97.148,28.42852,28.42852,0,0,1,372.48229,88.82709Z" fill="#020202"/><path d="M428.77776,122.30035c1.91553.45545,3.80554,1.01441,5.692,1.58,1.8808.58942,3.75512,1.181,5.61139,1.88471l-.061-.01716a13.57771,13.57771,0,0,1,6.14392,3.24177,21.52268,21.52268,0,0,1,4.31616,5.46594,38.23654,38.23654,0,0,1,4.15027,13.18194,74.78461,74.78461,0,0,1,.54169,13.76258,123.58169,123.58169,0,0,1-1.42822,13.65393l-.001.00641a.94943.94943,0,0,1-.94171.79962l-11.86963-.05609-11.86963-.13288-.02185-.00024a.75364.75364,0,0,1-.74072-.69946q-.50675-7.3873-.62793-14.77527-.041-3.69708.072-7.39594a51.2313,51.2313,0,0,1,.64093-7.363,66.80213,66.80213,0,0,0-.11823,7.36463q.11033,3.68161.37275,7.35705c.30627,4.89985.7185,9.801,1.18542,14.68116l-.76239-.69947,11.86963-.13287,11.86963-.05609-.94251.80585c.65747-4.46778,1.20771-8.95044,1.43848-13.448a79.90746,79.90746,0,0,0-.32245-13.45221,52.66631,52.66631,0,0,0-1.23907-6.581,32.25963,32.25963,0,0,0-2.35413-6.22767,20.67713,20.67713,0,0,0-3.863-5.36486,12.925,12.925,0,0,0-5.58184-3.40357l-.04712-.01233-.01435-.00488c-1.7959-.76257-3.6524-1.43036-5.50225-2.09033C432.5205,123.51343,430.66607,122.85455,428.77776,122.30035Z" fill="#020202"/><path d="M381.34881,75.63342a7.22254,7.22254,0,0,1,4.916,3.79077,12.70339,12.70339,0,0,1,1.16376,2.97632,20.843,20.843,0,0,0,.983,2.77558,14.81521,14.81521,0,0,0,3.24445,4.73364,6.1578,6.1578,0,0,0,4.77673,2.09076l-.42145.24164a14.00575,14.00575,0,0,1,2.29407-1.98127,4.74031,4.74031,0,0,1,2.98792-1.01269,2.20411,2.20411,0,0,1,1.46215.85553,4.5078,4.5078,0,0,1,.67688,1.408,12.28394,12.28394,0,0,1,.42237,2.9273,10.10453,10.10453,0,0,1-1.119,5.80646,5.42635,5.42635,0,0,1-5.58228,2.50928l.86847-.46088c-.43579,1.74311-.83667,3.5246-1.16522,5.30133-.35345,1.77436-.6427,3.55835-.84009,5.3415a36.64779,36.64779,0,0,0-.21551,5.30255,8.33218,8.33218,0,0,0,1.25091,4.57269l-.98248-.30505c1.58026-.36335,3.12-.584,4.6842-.80146,1.56128-.19378,3.124-.35742,4.69171-.44256a65.29351,65.29351,0,0,1,9.39014.08655.09721.09721,0,0,1,.08832.10522.09881.09881,0,0,1-.08832.08832c-1.55365.16015-3.10132.27514-4.64117.47937-1.54193.15625-3.0763.372-4.60346.60968-1.5274.236-3.04895.49377-4.56042.78967-1.50684.28064-3.02967.62482-4.475.98975l-.00506.00122a.98011.98011,0,0,1-.97779-.3064,7.04064,7.04064,0,0,1-1.42187-2.85058,13.23785,13.23785,0,0,1-.41376-2.91614,29.36677,29.36677,0,0,1,.35211-5.64795,62.43135,62.43135,0,0,1,2.60407-10.80371l.01275-.03809a.67282.67282,0,0,1,.85157-.42444l.00439.00153a4.06189,4.06189,0,0,0,2.40692-.12494,4.48678,4.48678,0,0,0,2.04627-1.54559,8.23765,8.23765,0,0,0,1.24792-5.28943,9.89248,9.89248,0,0,0-.42749-2.76612c-.278-.86029-.8435-1.6513-1.61084-1.65393a3.93227,3.93227,0,0,0-2.26184,1.092,13.14246,13.14246,0,0,0-1.88476,1.98682.62584.62584,0,0,1-.37159.23169l-.05017.01013a5.81519,5.81519,0,0,1-3.43084-.34149,8.82717,8.82717,0,0,1-2.77247-1.86755,14.73748,14.73748,0,0,1-3.49035-5.38764,18.0549,18.0549,0,0,1-.87244-3.05249,13.39152,13.39152,0,0,0-.80768-2.80438,8.99962,8.99962,0,0,0-1.54925-2.43988,6.51452,6.51452,0,0,0-2.41956-1.65027l-.01349-.00494a.09629.09629,0,0,1,.04853-.18543Z" fill="#020202"/><path d="M428.45885,138.73572a18.74733,18.74733,0,0,1,1.21149-4.4765,17.54427,17.54427,0,0,1,2.26141-4.09943,11.52891,11.52891,0,0,1,3.49268-3.18671,7.87692,7.87692,0,0,1,4.55383-.959,10.21941,10.21941,0,0,0-4.15576,1.60077,13.69429,13.69429,0,0,0-3.11615,3.12414,25.02447,25.02447,0,0,0-2.35132,3.83191C429.67626,135.92145,429.0274,137.30212,428.45885,138.73572Z" fill="#020202"/><path d="M396.31243,123.45911a12.48066,12.48066,0,0,1-.00562,4.85052,14.51515,14.51515,0,0,1-1.59124,4.57556,39.314,39.314,0,0,1,.63928-4.74646C395.64873,126.58508,395.91308,125.04932,396.31243,123.45911Z" fill="#020202"/><path d="M352.182,160.04089c.16583-1.67889.43835-3.34668.76373-5.0036.32239-1.6579.68036-3.31207,1.10687-4.95068a67.48291,67.48291,0,0,1,3.288-9.63257,47.015,47.015,0,0,1,2.26416-4.596,35.6541,35.6541,0,0,1,2.7868-4.33838,25.30427,25.30427,0,0,1,7.66962-7.03277l-.08289.05267a7.08424,7.08424,0,0,1,1.01557-.54278c.32171-.14753.6441-.27088.96649-.39515.64618-.22949,1.29455-.43536,1.9469-.60162a29.01416,29.01416,0,0,1,3.93536-.74664c1.31647-.17731,2.63477-.27356,3.95136-.35028,1.31677-.06574,2.63256-.07087,3.94574-.05506l.0238.00031a.7499.7499,0,0,1,.74091.75891l-.00226.05c-.24549,3.10736-.41144,6.2514-.48859,9.38537-.116,3.13971-.05719,6.27747.13721,9.4267a69.73977,69.73977,0,0,1-1.09418-9.4137c-.1488-3.16259-.18841-6.31836-.07013-9.4978l.76221.80908q-1.9293.07251-3.84662.21088c-1.27539.11206-2.54822.24243-3.803.44934a35.54316,35.54316,0,0,0-3.70642.779c-.60559.16022-1.195.355-1.77142.56531-.28272.11273-.56647.224-.83435.35046a6.04533,6.04533,0,0,0-.70313.37287c-.02478.0169-.0578.03766-.08325.053a24.89614,24.89614,0,0,0-7.12213,6.49847,47.48173,47.48173,0,0,0-5.10523,8.46332,83.05172,83.05172,0,0,0-3.76391,9.26568A100.70055,100.70055,0,0,0,352.182,160.04089Z" fill="#020202"/><path d="M339.6397,115.91052a9.24992,9.24992,0,0,1,2.58142,2.52954,14.07877,14.07877,0,0,1,1.60645,3.27881,21.21461,21.21461,0,0,1,.87768,3.55243,22.9467,22.9467,0,0,1,.30329,3.67047l-.01227-.13629,7.915,30.51843q.99361,3.81052,2.03881,7.60169l.52411,1.89361.28559.83374c.126.27668.238.55567.37286.83179a23.56171,23.56171,0,0,0,1.9801,3.22559,52.52962,52.52962,0,0,0,4.9646,5.91754l5.63459,5.49951-1.403.215,6.223-11.44532.47876,1.22217-11.17486-3.85565-.04871-.01684a.58848.58848,0,0,1-.2157-.13318,9.70634,9.70634,0,0,1-2.24823-3.57032,13.40457,13.40457,0,0,1-.82306-3.98565,19.92622,19.92622,0,0,1,1.30127-7.81745c.44147-1.24676.98548-2.41681,1.49073-3.59784l1.49756-3.5614c.48785-1.19165.96478-2.38775,1.41723-3.59289a26.63586,26.63586,0,0,0,1.20123-3.66559,48.19857,48.19857,0,0,1-2.08471,7.45776c-.80121,2.44159-1.75525,4.89337-2.53894,7.28711a19.30208,19.30208,0,0,0-.91571,7.38855,11.97044,11.97044,0,0,0,.84924,3.53436,8.37274,8.37274,0,0,0,1.90717,2.88172l-.2641-.14984,11.204,3.77014a.85774.85774,0,0,1,.48376,1.21356l-.00488.00885L368.87481,186.189a.88841.88841,0,0,1-1.20331.36181.9482.9482,0,0,1-.19989-.14673l-5.67749-5.48974a50.43566,50.43566,0,0,1-5.2182-6.10346,25.39025,25.39025,0,0,1-2.16065-3.47558c-.15558-.31293-.29315-.64276-.43927-.96411-.1289-.33448-.24609-.69086-.35894-1.02857l-.52662-1.90655q-1.03317-3.81729-1.99633-7.64423c-1.304-5.09937-2.49384-10.22394-3.68531-15.34686q-1.75113-7.69354-3.37048-15.41565l-.00342-.01636a.47713.47713,0,0,1-.00891-.1203,23.36414,23.36414,0,0,0-.07623-3.52411,20.56553,20.56553,0,0,0-.63135-3.49048A11.10089,11.10089,0,0,0,339.6397,115.91052Z" fill="#020202"/><path d="M329.88457,112.65881a4.49333,4.49333,0,0,1,4.11316-1.33227,5.17847,5.17847,0,0,1,2.07013.88568,6.08212,6.08212,0,0,1,.8335.72607,7.30844,7.30844,0,0,1,.64795.88184c-.34009-.15387-.63465-.34259-.94019-.50714-.31885-.142-.60492-.32642-.91839-.44653a8.03875,8.03875,0,0,0-1.86-.58729,6.69947,6.69947,0,0,0-1.93347-.06536A9.73926,9.73926,0,0,0,329.88457,112.65881Z" fill="#020202"/><path d="M337.54931,120.55579a3.13921,3.13921,0,0,1,.05737,1.98132,3.056,3.056,0,0,1-1.259,1.69617,3.82552,3.82552,0,0,1-2.00623.51477,7.099,7.099,0,0,1-.98382-.13245,7.25779,7.25779,0,0,1-.9181-.34357,8.47063,8.47063,0,0,1,.94709-.13073l.89184-.14582a5.22255,5.22255,0,0,0,1.55011-.5783A4.4595,4.4595,0,0,0,337.54931,120.55579Z" fill="#020202"/><path d="M333.71691,130.48456a16.772,16.772,0,0,1,2.34515.26489l1.13105.208c.3648.06921.75628.132,1.05291.15667l.061.00507a.39434.39434,0,0,1,.15924.04913,5.846,5.846,0,0,1,1.54974,1.24537,3.15954,3.15954,0,0,1,.55243.85217,1.52629,1.52629,0,0,1,.1164.99365,2.87309,2.87309,0,0,0-1.14991-1.32886,13.69919,13.69919,0,0,0-1.50891-.922l.21991.05413a5.37683,5.37683,0,0,1-1.25305-.1903c-.38879-.0918-.76324-.223-1.13666-.34882A10.56816,10.56816,0,0,1,333.71691,130.48456Z" fill="#020202"/><path d="M353.88213,263.7738c-10.12927.25348-20.2586.385-30.38794.56147l-30.38794.33911-30.388.16168c-10.12933.02576-20.25863.14441-30.388.06738l-.0144-.00012a1.26984,1.26984,0,0,1-1.24277-1.06293l-3.46478-21.033-3.3021-21.06042L221.014,200.68488l-1.64966-10.5304-1.72107-10.51843-3.46069-21.03369L210.56609,137.595c-2.42142-14.00323-4.95639-27.9873-7.46274-41.9762a.89507.89507,0,0,1,.72318-1.03887.91416.91416,0,0,1,.13077-.01374l.02282-.00043,30.42237-.749,30.424-.64264,30.42474-.59161L325.677,92.059a1.54874,1.54874,0,0,1,1.54633,1.25208l7.18262,37.02435,7.00433,37.05939c2.36181,12.34777,4.59149,24.72162,6.88025,37.0838,2.303,12.35937,4.44336,24.75073,6.673,37.12457a.14517.14517,0,0,1-.28485.056c-2.62378-12.29626-5.33685-24.575-7.88721-36.88574-2.56457-12.30786-5.18829-24.60419-7.67987-36.92645l-7.55578-36.95093-7.37757-36.986,1.54609,1.25195-30.42762.40552-30.42859.3374-30.42944.28644-30.431.18011.87662-1.05292c2.21637,14.03779,4.40414,28.08033,6.70544,42.10376l3.46759,21.03254,3.62339,21.00628,1.821,10.50159,1.89239,10.4895,3.79184,20.97791,3.782,20.97955,3.61932,21.007-1.257-1.06287c10.12934-.077,20.25864.04163,30.388.06738l30.388.16169,30.38794.33911c10.12934.17651,20.25867.308,30.38794.5614a.14522.14522,0,0,1,0,.29034Z" fill="#020202"/><path d="M213.57525,105.73785l53.08459-1.34826,26.7489-.66083,26.8313-.58966a.96276.96276,0,0,1,.96454.77032l.00238.01258,7.557,37.21161,7.41919,37.23864,14.809,74.48322a1.44555,1.44555,0,0,1-1.13593,1.69971,1.53465,1.53465,0,0,1-.28479.02777L238.413,254.36414h-.01092a1.2197,1.2197,0,0,1-1.2012-1.025L225.24325,179.2337Zm0,0,13.16964,73.90125,12.88,73.29163-1.21192-1.02479,111.15848-.21881-1.42059,1.7273L333.64336,178.872l-7.23907-37.27417L319.303,104.29651l.96667.78271-26.50848.22474-26.59094.1535Z" fill="#020202"/><path d="M417.3471,187.91187c1.74975-.532,3.4967-.91443,5.223-1.30866a46.10471,46.10471,0,0,0,4.99664-1.33795l-.62616.8064c.09149-.93927.20423-1.87635.32819-2.81226.15063-.93323.26715-1.86987.44879-2.79987.163-.93188.36041-1.86029.5708-2.78729.23273-.92468.45587-1.8504.77344-2.76636.124.96149.15356,1.91321.19275,2.866.01678.95044.02063,1.89954-.00989,2.84509-.0119.94751-.08893,1.88825-.1319,2.83252-.06958.94153-.15033,1.882-.25244,2.82013l-.00207.01923a.944.944,0,0,1-.62433.78741,15.715,15.715,0,0,1-2.73181.6836,25.55649,25.55649,0,0,1-2.71985.3081A27.46224,27.46224,0,0,1,417.3471,187.91187Z" fill="#020202"/><path d="M410.91033,199.81769a38.52763,38.52763,0,0,1,3.79321-3.97113q1.99265-1.8761,4.08167-3.63123c1.37695-1.18963,2.80835-2.31006,4.23034-3.44195,1.43842-1.11139,2.88269-2.21363,4.36536-3.26953l.05841-.04163a.72277.72277,0,0,1,.35419-.13013c1.63788-.13983,3.27289-.24157,4.91876-.2724.82147-.02624,1.64612-.01666,2.47131.00159a14.50875,14.50875,0,0,1,2.472.23846c-.8197.07972-1.61688.25916-2.42157.40577l-2.40833.45391c-1.60394.30616-3.21429.58271-4.81811.84986l.41229-.17151c-1.382,1.17786-2.79767,2.31537-4.21551,3.44848-1.43433,1.11249-2.85559,2.24122-4.32422,3.30958q-2.18271,1.62844-4.43018,3.174C413.96288,197.81787,412.42193,198.7854,410.91033,199.81769Z" fill="#020202"/><path d="M414.07665,219.447l13.06909-8.38934c2.1568-1.42133,4.32459-2.81964,6.44794-4.28022l3.18426-2.18536a34.13508,34.13508,0,0,0,2.94428-2.348,31.48787,31.48787,0,0,0,8.49762-12.27686,30.96728,30.96728,0,0,0,1.74585-15.06128,26.59658,26.59658,0,0,1-.3194,15.5578,30.08143,30.08143,0,0,1-8.6391,13.22626,36.07908,36.07908,0,0,1-3.15295,2.45477c-1.0802.72748-2.15289,1.46582-3.25427,2.15815-2.20142,1.38641-4.40693,2.76153-6.66944,4.03845C423.43035,214.93414,418.811,217.31433,414.07665,219.447Z" fill="#020202"/><path d="M391.30272,429.15247c-.27954.54577-.58142,1.07617-.83789,1.62536a17.27839,17.27839,0,0,0-.64019,1.69446,11.06455,11.06455,0,0,0-.52491,3.51721,10.55756,10.55756,0,0,0,.66132,3.4336,9.4462,9.4462,0,0,0,1.73218,2.94421l.00848.00952a.68023.68023,0,0,1,.076.10462,30.96519,30.96519,0,0,1,3.60437,9.0216,18.30808,18.30808,0,0,1,.43689,4.95142,11.88835,11.88835,0,0,1-1.34381,4.93652,10.31007,10.31007,0,0,1-3.55713,3.73743,13.37465,13.37465,0,0,1-4.69592,1.88012,14.82487,14.82487,0,0,1-5.00281.13147,22.34056,22.34056,0,0,1-2.39722-.495c-.75567-.179-1.51849-.337-2.2865-.46765a36.33138,36.33138,0,0,0-18.53326,1.33557c-.72638.29663-1.46314.56775-2.18012.88415-.70452.34424-1.42425.65735-2.11553,1.02588l-2.05768,1.15052a23.856,23.856,0,0,1-2.1532,1.10229,30.07783,30.07783,0,0,1-9.31427,2.4375,35.52207,35.52207,0,0,1-9.67017-.2699,26.4475,26.4475,0,0,1-4.75482-1.25439,10.83653,10.83653,0,0,1-4.35516-2.78137,4.67555,4.67555,0,0,1-1.19892-2.71241,4.17132,4.17132,0,0,1,.21253-1.53247,4.95906,4.95906,0,0,1,.62445-1.31665,12.40262,12.40262,0,0,1,3.85052-3.45153,54.42087,54.42087,0,0,1,8.805-4.01966c5.87292-2.35412,11.85681-4.49853,17.48962-7.1571a22.80848,22.80848,0,0,0,7.42566-5.25061,33.85789,33.85789,0,0,0,4.8479-7.9032l-.03912.12927c.35-1.80835.73578-3.61072,1.11181-5.41467l1.15259-5.40784a.10647.10647,0,0,1,.20978.0354l-.68793,5.48633c-.23749,1.82739-.46521,3.65637-.7287,5.47937a.43434.43434,0,0,1-.02795.10291l-.01123.02673a34.68585,34.68585,0,0,1-4.60413,8.50549,24.53234,24.53234,0,0,1-7.76666,5.934c-2.85187,1.50843-5.77631,2.783-8.71259,4.0011q-4.40222,1.82319-8.828,3.546a62.32514,62.32514,0,0,0-8.50781,3.74768,10.52709,10.52709,0,0,0-3.249,2.7417,2.96649,2.96649,0,0,0-.40766.80823,2.15837,2.15837,0,0,0-.14148.79736,2.68355,2.68355,0,0,0,.686,1.546,9.48187,9.48187,0,0,0,3.54284,2.33606,24.71307,24.71307,0,0,0,4.37781,1.31165,37.28092,37.28092,0,0,0,9.25263.68017,28.50375,28.50375,0,0,0,9.08923-1.93481,17.42815,17.42815,0,0,0,2.097-1.012l2.10791-1.1333c.71161-.36438,1.45136-.67261,2.17518-1.011.73632-.31043,1.49176-.575,2.2362-.86414a40.77548,40.77548,0,0,1,9.33814-2.08911,41.87937,41.87937,0,0,1,9.60742.03882c.79968.09216,1.59668.21289,2.39105.35632a20.7716,20.7716,0,0,0,2.27588.34632,14.73726,14.73726,0,0,0,4.44678-.31177,10.67874,10.67874,0,0,0,6.9776-4.76648c1.40722-2.505,1.42981-5.65979.88476-8.63733a29.443,29.443,0,0,0-1.22479-4.44446,32.20451,32.20451,0,0,0-1.831-4.255l.08429.11377a10.52458,10.52458,0,0,1-1.82648-3.46717,10.19829,10.19829,0,0,1-.47949-3.81359,11.78582,11.78582,0,0,1,.85724-3.69141,13.91452,13.91452,0,0,1,.81414-1.69031c.32233-.53345.68659-1.03979,1.02521-1.55591a.106.106,0,0,1,.18323.10608Z" fill="#020202"/><path d="M426.27428,430.42542a18.40982,18.40982,0,0,1,.488,10.34838,11.3781,11.3781,0,0,1-.96588,2.516c-.3808.73975-.72864,1.512-1.05084,2.2876a35.02772,35.02772,0,0,0-1.57593,4.76782c-.78729,3.20179-1.0199,6.65.2536,9.5033,1.27386,2.83887,4.196,4.66309,7.3078,5.39417a14.82239,14.82239,0,0,0,4.82117.27917c.40515-.04321.80835-.10657,1.21026-.18091l1.289-.22961q1.29356-.20838,2.5943-.33753a43.66411,43.66411,0,0,1,10.39142.24988,40.995,40.995,0,0,1,9.99256,2.733c.7821.3711,1.59173.68933,2.35223,1.10535.75769.40222,1.53931.84082,2.2782,1.2146a21.5333,21.5333,0,0,0,4.70617,1.78272,27.934,27.934,0,0,0,4.97089.84924,34.269,34.269,0,0,0,5.03925.08032,29.83843,29.83843,0,0,0,9.73126-1.96326,8.74461,8.74461,0,0,0,3.72326-2.56714,2.22579,2.22579,0,0,0,.45911-1.66809,3.5538,3.5538,0,0,0-.931-1.71069,14.10118,14.10118,0,0,0-3.81231-2.77307c-.73176-.37708-1.47553-.74646-2.23206-1.09131-.77753-.32153-1.52777-.65564-2.32678-.96838-6.372-2.54627-12.77979-4.98548-19.01715-8.04871a46.4267,46.4267,0,0,1-4.57117-2.577,20.63478,20.63478,0,0,1-4.01947-3.48632,31.01187,31.01187,0,0,1-5.05237-9.121l-.0097-.024a.22621.22621,0,0,1-.01386-.05371l-.5816-4.7356a.10648.10648,0,0,1,.20978-.0354l1.00634,4.66382-.02343-.07752c1.54925,3.04041,3.12219,6.11475,5.44866,8.4701a27.62435,27.62435,0,0,0,8.39051,5.33862c3.08331,1.40369,6.28686,2.60522,9.47674,3.84924,3.18628,1.25171,6.40418,2.44641,9.58954,3.723,3.21045,1.31567,6.5531,2.673,9.18067,5.55908a5.6044,5.6044,0,0,1,1.3659,2.80468,4.30916,4.30916,0,0,1-.87451,3.15491,10.55792,10.55792,0,0,1-4.66162,3.17517,25.03,25.03,0,0,1-5.16327,1.32691,34.85208,34.85208,0,0,1-15.59412-1.08264,22.45137,22.45137,0,0,1-4.805-2.08436l-2.23755-1.25366c-.73749-.42065-1.52447-.74463-2.28485-1.12243a32.849,32.849,0,0,0-9.80292-2.6521,37.98963,37.98963,0,0,0-10.1372.27734c-.83441.13306-1.66443.28748-2.48737.46887l-1.23065.29163c-.43646.10693-.87665.20166-1.32135.2749a15.00438,15.00438,0,0,1-5.41351-.0603,13.35754,13.35754,0,0,1-5.05646-2.11206,10.11518,10.11518,0,0,1-3.58118-4.28443,12.74024,12.74024,0,0,1-.97882-5.41162,21.7644,21.7644,0,0,1,.85706-5.27649,30.83778,30.83778,0,0,1,1.89148-4.9115c.37976-.7893.77972-1.56274,1.2265-2.3258a10.19473,10.19473,0,0,0,.99609-2.22754,17.95746,17.95746,0,0,0,.83923-4.921,23.17225,23.17225,0,0,0-.47863-5.05945.10656.10656,0,0,1,.2055-.05517Z" fill="#020202"/><path d="M423.36475,461.64655c4.95493,8.87938,19.29971,1.07789,28.62469,3.87887,1.33721.40165,1.59628.27978,1.59628.27978s5.92932-16.62379,13.84392-16.10741c0,0,13.02093,2.55885,14.80811,6.3885,0,0-10.37,9.46828-9.54282,16.88577,19.91342,2.074,22.67855-5.269,22.67855-5.269,3.93821,7.65935-11.38051,11.77625-21.81636,8.61673-8.77588-2.65689-25.85027-8.61673-25.85027-8.61673v4.97856l-6.319,2.68079H423.31255l2.75669-5.99983C420.83531,465.14987,423.36475,461.64655,423.36475,461.64655Z" fill="#020202"/><path d="M321.19582,467.703s2.7652,7.34308,22.67868,5.269c.82707-7.41749-9.54288-16.88577-9.54288-16.88577,1.78724-3.82965,14.80811-6.3885,14.80811-6.3885,7.91459-.51638,13.84392,16.10741,13.84392,16.10741s.25906.12187,1.59628-.27978c9.325-2.801,23.66982,5.00051,28.62469-3.87887,0,0,2.52944,3.50332-2.70443,7.716l2.75663,5.99983H375.18148l-6.319-2.68079V467.703s-17.07446,5.95984-25.85027,8.61673C332.57633,479.47926,317.25775,475.36236,321.19582,467.703Z" fill="#020202"/><path d="M369.39721,126.01294c.257-2.98486.42157-5.935.54455-8.8858.09766-2.95.187-5.89331.145-8.83863-.00525-1.47192-.01691-2.94561-.07458-4.4176l-.05823-2.21124-.10108-2.21167c-.11285-2.95539-.35156-5.90326-.45562-8.906a52.74479,52.74479,0,0,1,1.95941,8.76508,66.51412,66.51412,0,0,1,.66449,8.97149,65.20563,65.20563,0,0,1-.58057,8.98108A41.58985,41.58985,0,0,1,369.39721,126.01294Z" fill="#020202"/><path d="M389.57671,111.71686a10.95518,10.95518,0,0,0,1.89929-1.258,21.14976,21.14976,0,0,0,1.66956-1.49109c.551-.50708,1.05536-1.06744,1.59808-1.6037.52552-.55352,1.05127-1.11376,1.64783-1.64849a9.61049,9.61049,0,0,1-1.05737,2.11938,11.23423,11.23423,0,0,1-1.5177,1.82959,8.60509,8.60509,0,0,1-1.92987,1.42481A4.57265,4.57265,0,0,1,389.57671,111.71686Z" fill="#020202"/><path d="M377.65374,97.639c-.07569.51123-.18543.97058-.27234,1.41717a4.75424,4.75424,0,0,0-.115,1.234,1.028,1.028,0,0,0,.43585.8335,5.706,5.706,0,0,0,1.229.57995,2.147,2.147,0,0,1-1.56823.09479.95391.95391,0,0,1-.40546-.20758,1.24477,1.24477,0,0,1-.34393-.33868,1.75118,1.75118,0,0,1-.31122-.88276,2.963,2.963,0,0,1,.37207-1.57049A3.3653,3.3653,0,0,1,377.65374,97.639Z" fill="#020202"/><path d="M377.85094,105.30371a29.71331,29.71331,0,0,1,3.0838.28363,6.42641,6.42641,0,0,0,1.39106.04108,1.1917,1.1917,0,0,0,1.01849-.78925,2.7992,2.7992,0,0,1,.0542.42749,1.81331,1.81331,0,0,1-.12445.45075,2.71869,2.71869,0,0,1-.31055.38092c-.12695.09143-.26843.168-.41034.25024a3.53022,3.53022,0,0,1-1.72.20062,5.87764,5.87764,0,0,1-1.58246-.41064A4.8462,4.8462,0,0,1,377.85094,105.30371Z" fill="#020202"/><path d="M451.53325,286.18829c-.14294,6.04529-.31451,12.08857-.40631,18.13111-.06952,6.03308-.24871,12.10248.01136,18.07336.50647,11.98084,4.6831,23.40167,7.459,35.22809,1.4552,5.90369,2.7002,11.83923,3.7959,17.80957,1.09216,5.96924,2.08771,11.96118,2.84259,17.99219.74561,6.03137,1.32434,12.09424,1.56445,18.18994a111.35992,111.35992,0,0,1-.59759,18.35461l-.008.06165a1.32251,1.32251,0,0,1-.83069,1.061,23.09668,23.09668,0,0,1-3.52508,1.01722c-1.15.25817-2.30042.45007-3.45178.61682-2.30268.3208-4.60755.51843-6.90992.61718a107.06028,107.06028,0,0,1-13.75775-.35144c-9.08343-.91992-18.03723-1.83923-27.09222-2.42321q-6.7772-.4455-13.56873-.65345c-2.26349-.06225-4.52746-.11621-6.79229-.13781-2.25635-.012-4.56458-.06165-6.83661-.22425a77.2846,77.2846,0,0,1-13.51813-2.12219,80.49587,80.49587,0,0,1-12.915-4.50366.45036.45036,0,0,1-.26648-.43738l.00061-.00818c.79706-13.24707.99494-26.535.99561-39.8009-.04816-13.26734-.31592-26.52881-1.08313-39.73786l-.309-4.95153c-.11164-1.64948-.29566-3.28974-.43976-4.93524-.25348-3.29834-.72388-6.55811-1.14575-9.82752-.1695-1.645-.5437-3.24042-.82526-4.85925-.3053-1.61695-.58154-3.2171-.95495-4.871a95.54671,95.54671,0,0,1-1.50171-9.94825,171.92222,171.92222,0,0,1-.51-20.00689c.15142-6.65241.44989-13.31086,1.187-19.9209a.14525.14525,0,0,1,.28949.02191c-.2721,6.63611-.34888,13.26581-.1557,19.89606.08374,3.31207.15851,6.6372.2854,9.94165.13879,3.29461.40857,6.58166.84076,9.84424.42541,3.26355,1.0191,6.49975,1.73266,9.70428.38636,1.57953.70752,3.24683,1.04676,4.88751.31671,1.64673.72753,3.28577.92828,4.94446l.727,4.96613c.25964,1.65521.36279,3.31976.55176,4.97937.15924,1.66119.35846,3.3211.48462,4.9837l.35211,4.989c.86871,13.3089.85937,26.63422.42584,39.92743-.4082,13.29712-1.1701,26.5658-2.01257,39.83484l-.26563-.44519a72.246,72.246,0,0,0,26.12122,6.38062c2.25683.13232,4.48846.09936,6.76843.05871,2.2721-.03808,4.545-.04394,6.81793-.04126q6.81849.02967,13.63593.26856c4.54413.16052,9.08685.38379,13.62359.69446,4.52442.29443,9.09595.74938,13.56141,1.06579a117.54363,117.54363,0,0,0,13.4422.13306c2.22918-.121,4.447-.338,6.63409-.668,1.09143-.17078,2.17822-.365,3.23895-.61633a21.44768,21.44768,0,0,0,3.00141-.88526l-.83844,1.12244a108.56954,108.56954,0,0,0,.37078-17.86389q-.45374-8.97383-1.59759-17.93433c-1.50855-11.92944-3.6134-23.819-6.18189-35.572-1.30462-5.88287-2.82861-11.71143-4.21521-17.6311-.67907-2.96241-1.31213-5.95832-1.7257-8.99555a81.63444,81.63444,0,0,1-.70832-9.149c-.04492-6.11853.28473-12.14007.62976-18.18817.38129-6.03924.77649-12.07416,1.29029-18.10211a.14524.14524,0,0,1,.28991.01611Z" fill="#020202"/><line x1="331.58139" y1="123.49085" x2="349.57155" y2="98.54868" fill="none" stroke="#020202" stroke-linecap="round" stroke-linejoin="round" stroke-width="2.90331"/><path d="M379.35354,210.55609c-.56132-.66777-1.48072-1.76135-1.16134-3.01944a2.88355,2.88355,0,0,1,2.43875-1.9743c1.06458-.09675,1.50972.5807,3.01944,1.3936,3.03882,1.64522,4.61629.7452,5.45825,2.09042a3.26753,3.26753,0,0,1-.69677,3.94846c-.88071.70652-1.99361.48389-3.8324.11619A8.4432,8.4432,0,0,1,379.35354,210.55609Z" fill="none"/><path d="M414.832,121.44366c-18.63929.43551-51.73709,49.04666-51.73709,49.04666l-.05806.55164-.98709,8.85513s-.53372,3.983,1.529,14.41976l-.00969.07744c1.09359-.40645,2.17748-.78389,3.24207-1.142a44.75661,44.75661,0,0,1,14.6327-2.09042c5.66144-.08707,7.18437.68387,12.35223,1.642,6.06795,1.13227,17.11417,7.01377,17.11417,7.01377a38.28851,38.28851,0,0,1,3.59181-3.04533,421.97475,421.97475,0,0,0,18.19494-73.28672C425.6517,115.8596,414.832,121.44366,414.832,121.44366Zm-21.68773,52.76293a5.49309,5.49309,0,0,1-1.80979-.69683,4.00711,4.00711,0,0,1-1.37422-1.32584,15.594,15.594,0,0,0,3.36783,1.07421,12.36332,12.36332,0,0,0,1.713.21294c.5807.05807,1.171.029,1.81942.07744A5.07138,5.07138,0,0,1,393.14429,174.20659Z" fill="#020202"/><path d="M203.99682,95.47119a17.72036,17.72036,0,0,1,2.94909,2.04932,29.34339,29.34339,0,0,1,2.54755,2.424,28.82424,28.82424,0,0,1,2.24359,2.70758,17.49156,17.49156,0,0,1,1.8382,3.08575,17.49634,17.49634,0,0,1-2.951-2.04754,28.83739,28.83739,0,0,1-2.5456-2.42578,29.35058,29.35058,0,0,1-2.2417-2.70935A17.72458,17.72458,0,0,1,203.99682,95.47119Z" fill="#020202"/><path d="M349.57152,253.13507a18.123,18.123,0,0,1,2.95478,2.11279,30.04055,30.04055,0,0,1,2.54907,2.4831,29.502,29.502,0,0,1,2.24206,2.76324,17.88318,17.88318,0,0,1,1.83252,3.137,17.88842,17.88842,0,0,1-2.95666-2.11108,29.52869,29.52869,0,0,1-2.54718-2.4848,30.05847,30.05847,0,0,1-2.24011-2.765A18.1253,18.1253,0,0,1,349.57152,253.13507Z" fill="#020202"/><path d="M320.255,104.10913a12.92753,12.92753,0,0,1,.68914-2.97339,20.87116,20.87116,0,0,1,1.17658-2.7204,20.5059,20.5059,0,0,1,1.54547-2.52887,12.76551,12.76551,0,0,1,2.0376-2.27343,12.768,12.768,0,0,1-.68683,2.97467,20.49749,20.49749,0,0,1-1.1789,2.71917,20.8686,20.8686,0,0,1-1.54785,2.52765A12.92737,12.92737,0,0,1,320.255,104.10913Z" fill="#020202"/><path d="M375.961,96.15246a1.61423,1.61423,0,0,0,0-3.22652,1.61423,1.61423,0,0,0,0,3.22652Z" fill="#020202"/><path d="M384.75375,96.71192a1.61422,1.61422,0,0,0,0-3.22651,1.61422,1.61422,0,0,0,0,3.22651Z" fill="#020202"/><path d="M372.5275,90.90875a6.7797,6.7797,0,0,1,5.60928.2333" fill="none" stroke="#020202" stroke-linecap="round" stroke-linejoin="round" stroke-width="1.0755"/><path d="M383.64935,91.37133a6.19918,6.19918,0,0,1,4.73888.1971" fill="none" stroke="#020202" stroke-linecap="round" stroke-linejoin="round" stroke-width="1.0755"/><path d="M380.6494,90.36385a1.45253,1.45253,0,0,0,0-2.90332,1.45253,1.45253,0,0,0,0,2.90332Z" fill="#b21919"/><line x1="380.8919" y1="78.02777" x2="381.0888" y2="74.91017" fill="none" stroke="#b21919" stroke-linecap="round" stroke-linejoin="round" stroke-width="1.93554"/><path d="M411.48369,210.69958a5.34336,5.34336,0,0,0,3.21564-4.45733,6.66531,6.66531,0,0,0-2.39191-5.02985,10.48462,10.48462,0,0,0-2.40216-1.57715c-.86407-.45556-1.74054-.8955-2.62469-1.31225q-2.652-1.25519-5.40076-2.266a65.3102,65.3102,0,0,0-22.799-4.08191,42.82356,42.82356,0,0,0-11.48907,1.51965,43.98006,43.98006,0,0,0-5.49433,1.97839,25.48028,25.48028,0,0,0-5.10333,2.783,11.886,11.886,0,0,0-3.69684,4.34571,14.52174,14.52174,0,0,0-1.35107,5.57153,12.07652,12.07652,0,0,0,1.04,5.58276,11.83985,11.83985,0,0,0,3.60241,4.3277,46.23406,46.23406,0,0,0,10.17273,5.5683,70.52317,70.52317,0,0,0,11.07831,3.59052,63.50116,63.50116,0,0,0,11.491,1.66357,82.6273,82.6273,0,0,0,11.63025-.2674c3.81115-.39215,7.72766-1.06689,10.902-2.8811a7.52687,7.52687,0,0,0,1.993-1.68951,5.56649,5.56649,0,0,0,1.11853-2.24585,1.99683,1.99683,0,0,0-.62592-1.978,6.50583,6.50583,0,0,0-2.29706-1.30719,28.25432,28.25432,0,0,0-5.63434-1.25018c-.96514-.14118-1.93786-.17517-2.96716-.42053a2.66717,2.66717,0,0,1-1.43066-.82453,2.73135,2.73135,0,0,1-.60822-1.50964,3.2659,3.2659,0,0,1,.23108-1.56452,2.08963,2.08963,0,0,1,1.0705-1.16894,9.73682,9.73682,0,0,1,2.916-.70911c.99134-.10461,1.976-.1264,2.9599-.15051A13.59484,13.59484,0,0,0,411.48369,210.69958Zm.077.17756a13.31869,13.31869,0,0,1-2.96484.296,29.36219,29.36219,0,0,0-2.92975.201,9.47676,9.47676,0,0,0-2.7713.772,2.38178,2.38178,0,0,0-.40857,3.47839,2.00074,2.00074,0,0,0,1.12512.54553c.89917.16156,1.90729.148,2.89526.22944a29.99093,29.99093,0,0,1,5.94605.92865,7.79875,7.79875,0,0,1,2.88281,1.42932,3.64366,3.64366,0,0,1,1.07837,1.48236,3.751,3.751,0,0,1,.17017,1.84259,7.14551,7.14551,0,0,1-1.32093,3.06646,9.32346,9.32346,0,0,1-2.41168,2.189,19.44561,19.44561,0,0,1-5.72943,2.31775,44.0205,44.0205,0,0,1-5.94867,1.03668,75.172,75.172,0,0,1-11.95233.22815,67.50045,67.50045,0,0,1-23.0752-5.86139,56.36038,56.36038,0,0,1-5.30853-2.72906,32.76118,32.76118,0,0,1-4.92615-3.43122,12.77894,12.77894,0,0,1-3.68908-4.81109,13.93833,13.93833,0,0,1-.95575-5.94757,15.14578,15.14578,0,0,1,1.49493-5.80194,13.0764,13.0764,0,0,1,3.854-4.5824,28.13431,28.13431,0,0,1,5.15509-3.00794,44.95869,44.95869,0,0,1,5.50519-2.28326,43.02515,43.02515,0,0,1,11.76587-2.1,52.72691,52.72691,0,0,1,23.292,4.56543q2.72718,1.203,5.3357,2.632c.86981.47467,1.72528.96924,2.57348,1.48261a11.07256,11.07256,0,0,1,2.41413,1.80181,7.27665,7.27665,0,0,1,2.307,5.41034A5.61624,5.61624,0,0,1,411.56072,210.87714Z" fill="#020202"/><path d="M388.41187,212.99483c-.88071.70652-1.99361.48389-3.8324.11619a8.4432,8.4432,0,0,1-5.22593-2.55493c-.56132-.66777-1.48072-1.76135-1.16134-3.01944a2.88355,2.88355,0,0,1,2.43875-1.9743c1.06458-.09675,1.50972.5807,3.01944,1.3936,3.03882,1.64522,4.61629.7452,5.45825,2.09042A3.26753,3.26753,0,0,1,388.41187,212.99483Z" fill="#020202"/><path d="M359.4403,208.23591c3.73629,0,3.74248-5.80663,0-5.80663-3.73628,0-3.74247,5.80663,0,5.80663Z" fill="#020202"/><path d="M362.05329,217.12005c3.73629,0,3.74248-5.80663,0-5.80663-3.73629,0-3.74248,5.80663,0,5.80663Z" fill="#020202"/><path d="M372.15682,222.52022c3.73629,0,3.74248-5.80663,0-5.80663-3.73629,0-3.74247,5.80663,0,5.80663Z" fill="#020202"/><path d="M384.00235,225.6558c3.73629,0,3.74248-5.80663,0-5.80663-3.73629,0-3.74248,5.80663,0,5.80663Z" fill="#020202"/><path d="M396.19627,226.1784c3.73629,0,3.74248-5.80663,0-5.80663-3.73629,0-3.74248,5.80663,0,5.80663Z" fill="#020202"/><path d="M368.15025,201.79055c3.73629,0,3.74248-5.80663,0-5.80663-3.73629,0-3.74248,5.80663,0,5.80663Z" fill="#020202"/><path d="M380.69257,200.397c3.73629,0,3.74248-5.80663,0-5.80663-3.73629,0-3.74248,5.80663,0,5.80663Z" fill="#020202"/><path d="M393.40909,202.31315c3.73629,0,3.74248-5.80663,0-5.80663-3.73629,0-3.74248,5.80663,0,5.80663Z" fill="#020202"/><path d="M407.1708,208.75851c3.73629,0,3.74248-5.80663,0-5.80663-3.73629,0-3.74248,5.80663,0,5.80663Z" fill="#020202"/><path d="M313.32445,473.60718c-4.90655-32.09094-9.3396-64.23682-13.8009-96.37952l-6.4743-48.23913c-2.16291-16.07917-4.17322-32.176-6.26734-48.26313l-3.11151-24.13415-3.00378-24.14667-5.979-48.29657L263.186,87.50183l10.602-.34058-5.24579,96.66486-2.85382,48.32056-1.44013,24.15967-1.54974,24.154c-1.05267,16.10162-2.02258,32.20752-3.14325,48.30572l-3.35187,48.295c-2.3811,32.1892-4.73266,64.37988-7.562,96.54614.47589-32.28687,1.42957-64.54932,2.35364-96.81323l1.606-48.38453c.53192-16.12835,1.21466-32.249,1.81457-48.3739l.9292-24.18579,1.03876-24.18017,2.104-48.35907,4.66992-96.6944,10.60205-.34058,10.9242,96.71314,5.23395,48.383,2.60266,24.19318,2.49493,24.20563c1.64349,16.1394,3.37085,32.2691,4.94556,48.4165l4.73858,48.44049C307.71349,408.93787,310.75573,441.24512,313.32445,473.60718Z" fill="#020202"/><rect x="258.74925" y="81.79474" width="19.51028" height="12.68801" rx="3.87109" fill="#020202"/><path d="M358.16088,408.40344c8.85925,1.67591,17.75915,3.15894,26.68127,4.35767,4.45594.62536,8.92707,1.1438,13.38929,1.46655,1.11578.0813,2.2312.16126,3.34051.17542,1.11243.04126,2.22241.072,3.31085.00988.541-.03088,1.10712-.00561,1.62622-.08166l1.557-.21472a23.20081,23.20081,0,0,1,3.53992-.39966,63.68958,63.68958,0,0,1,6.89593.17407c2.27295.1532,4.5315.35584,6.78418.57361q6.75165.70861,13.42322,1.63354c4.45074.60828,8.89722,1.17041,13.34521,1.52466a65.56011,65.56011,0,0,0,6.66822.22156,19.3719,19.3719,0,0,0,6.52124-1.07446l.00836-.00318a.14538.14538,0,0,1,.12817.2594,17.9704,17.9704,0,0,1-6.5379,2.1377,50.19965,50.19965,0,0,1-6.84973.50012,128.949,128.949,0,0,1-13.61462-.6814c-4.50959-.41662-8.97858-1.06457-13.43293-1.66394a100.63251,100.63251,0,0,0-13.28076-1.27978,20.73845,20.73845,0,0,0-3.18512.25268l-1.8006.19251c-.59985.0636-1.16693.01916-1.7514.03332-1.16687.02723-2.30945-.04174-3.44928-.12036-1.14551-.05237-2.27643-.17-3.40674-.28894-4.52124-.47387-8.99725-1.14062-13.451-1.91235-8.9002-1.58716-17.73254-3.452-26.52087-5.50842a.14521.14521,0,0,1,.06134-.28382Z" fill="#020202"/><path d="M363.09439,420.089c3.73629,0,3.74247-5.80663,0-5.80663-3.73629,0-3.74248,5.80663,0,5.80663Z" fill="#020202"/><path d="M372.84952,422.17937c3.73629,0,3.74248-5.80663,0-5.80663-3.73628,0-3.74247,5.80663,0,5.80663Z" fill="#020202"/><path d="M383.766,424.26976c3.73629,0,3.74248-5.80663,0-5.80663-3.73629,0-3.74248,5.80663,0,5.80663Z" fill="#020202"/><path d="M395.61151,425.19882c3.73629,0,3.74248-5.80663,0-5.80663-3.73629,0-3.74247,5.80663,0,5.80663Z" fill="#020202"/><path d="M408.61836,424.73429c3.73629,0,3.74248-5.80663,0-5.80663-3.73629,0-3.74247,5.80663,0,5.80663Z" fill="#020202"/><path d="M421.62521,426.59241c3.73629,0,3.74248-5.80663,0-5.80663-3.73629,0-3.74247,5.80663,0,5.80663Z" fill="#020202"/><path d="M434.86433,428.45053c3.73629,0,3.74248-5.80663,0-5.80663-3.73629,0-3.74248,5.80663,0,5.80663Z" fill="#020202"/><path d="M447.17438,427.986c3.73629,0,3.74248-5.80663,0-5.80663-3.73628,0-3.74247,5.80663,0,5.80663Z" fill="#020202"/><path d="M459.7167,426.59241c3.73629,0,3.74248-5.80663,0-5.80663-3.73628,0-3.74247,5.80663,0,5.80663Z" fill="#020202"/><path d="M431.45777,172.78462a1.45252,1.45252,0,0,0,0-2.90331,1.45252,1.45252,0,0,0,0,2.90331Z" fill="#020202"/><path d="M437.49667,172.66849a1.45252,1.45252,0,0,0,0-2.90331,1.45252,1.45252,0,0,0,0,2.90331Z" fill="#020202"/><path d="M444.11623,172.66849a1.45252,1.45252,0,0,0,0-2.90331,1.45252,1.45252,0,0,0,0,2.90331Z" fill="#020202"/><path d="M450.0777,172.66849a1.45252,1.45252,0,0,0,0-2.90331,1.45252,1.45252,0,0,0,0,2.90331Z" fill="#020202"/><line x1="369.31158" y1="266.72803" x2="220.56198" y2="266.72803" fill="none" stroke="#020202" stroke-linecap="round" stroke-linejoin="round" stroke-width="7.74217"/><path d="M260.52532,263.87236l1.32832-.876a12.40758,12.40758,0,0,1-1.69312.02,19.55723,19.55723,0,0,1-4.70938-.97917,35.65738,35.65738,0,0,1-5.594-2.60986l.38111,1.9369a17.023,17.023,0,0,0,4.58108,2.50195,13.095,13.095,0,0,0,5.08884.67089Z" fill="#020202"/></svg>