<svg id="Layer_1" data-name="Layer 1" xmlns="http://www.w3.org/2000/svg" viewBox="0 0 700 550"><title>looking at a photoframe</title><path d="M369.36088,183.37761l-11.64014,6.71-.02-.03-1.93994-3.36987a37.4999,37.4999,0,0,0-1.37988-6.20007c.92993-4.31995.7-6.98.27978-8.52991a3.433,3.433,0,0,0-2.7998-2.56006,2.65355,2.65355,0,0,0-2.6001,1.26c-.91992-2.63.43994-6.17,4.07007-6.17,4.13989,0,5.3,4.55993,3.54,7.19006a6.70789,6.70789,0,0,1,7.53979,3.11987l4.86011,8.42005Z"/><path d="M342.22074,212.47759c2.39014,7.86,19.97,49.84,21.71,53.9801l-.6499,13.45c-34.87012,2.54-82.19995-28.4-84.54-29.94006a42.85491,42.85491,0,0,0,8.2-1.93006,53.59373,53.59373,0,0,0,7.83008-3.37988c1.28-.63,2.47-1.43,3.68994-2.16,1.16016-.83,2.36011-1.61,3.46021-2.53a43.9587,43.9587,0,0,0,6.0498-5.68006c1.47.23011,2.91992.44007,4.38013.62012l4.63989.6499c3.09009.44007,6.16016,1,9.27,1.40015a73.29255,73.29255,0,0,0,9.37012.5199,62.43069,62.43069,0,0,0,9.35986-.77991.08587.08587,0,0,0,.06006-.07007.07521.07521,0,0,0-.07007-.07007c-3.12988-.01-6.23-.04992-9.32983-.17993l-9.3-.51c-3.1001-.15-6.22-.3-9.3-.73-3.08008-.43994-6.1499-1.04-9.16016-1.78a.3656.3656,0,0,0-.25.03,2.2219,2.2219,0,0,1-1.11987-1.33008,9.35062,9.35062,0,0,1-.53-2.25,26.43609,26.43609,0,0,1-.10986-4.71,25.90758,25.90758,0,0,0-.24024,4.74,10.35488,10.35488,0,0,0,.38013,2.39,3.86314,3.86314,0,0,0,.57007,1.15,2.4248,2.4248,0,0,0,.48.48,59.83658,59.83658,0,0,1-5.97,5.04,64.26,64.26,0,0,1-7.03,4.47,73.08239,73.08239,0,0,1-15.43018,6.47.08394.08394,0,0,0-.05981.08008.035.035,0,0,0,.01.02c-1.3501.47-25.41016,9.22-27.68018,22.7-1.65991,9.84-2.98,21.36-2.52978,29.55005l-.09009.35986c-22.72-22.57995-21.43994-40.10986-21.43994-40.10986s39.93994-52.13013,60.49-64.41c0,0,6.26-7.52,26.06006-5.76,4.11987.36,9.02,1.05993,14.2,1.94006a8.02323,8.02323,0,0,1,.01.98,13.52327,13.52327,0,0,0,5.92993,11.52991C335.0308,207.72759,342.22074,212.47759,342.22074,212.47759Z"/><path d="M371.1309,203.54753c-4.12012,5.82007-4.90015,15.62012-4.90015,15.62012l-.05,1.09a92.35786,92.35786,0,0,1-10.21-20.29C364.81083,201.95769,371.1309,203.54753,371.1309,203.54753Z"/><path d="M357.70072,190.05754l-1.61987.96009a20.34514,20.34514,0,0,1-.78,5.86l37.92993-21.53-17.55-37.81006-44.98,23.40015-1.12988,2.5,9.36987,17.16992a9.6976,9.6976,0,0,0,3.09009.91c-2.02-2.95008-3.79-6.04-5.51-9.16a106.86227,106.86227,0,0,1-4.82007-9.91992,107.98175,107.98175,0,0,1,5.7002,9.43994c1.68994,3.15,3.31982,6.34,4.71,9.65a4.43174,4.43174,0,0,0,2.82983-.52l-.01-.01-8.08984-17.55994,37.08984-20.42,13.73,29.31994-18.38989,10.88Z"/><path d="M168.03826,304.2138s1.67087,19.71629,41.60471-8.35436c0,0,10.02523-6.34931,18.2125-5.84805,0,0,3.17465,8.35436,3.17465,15.372l-15.87328,5.5584s1.67088-10.90519-8.35435-5.72549c0,0-23.89347,25.23017-54.8046,13.53406C151.99789,318.75038,143.81062,314.90738,168.03826,304.2138Z"/><path d="M168.03825,304.21375q7.04067-5.16742,14.28631-10.0127c4.81562-3.25354,9.694-6.40845,14.58448-9.54419,4.91064-3.10425,9.83471-6.18726,14.82128-9.172q7.45707-4.51319,15.12262-8.69861-7.03884,5.17035-14.28472,10.01526c-4.81586,3.25306-9.69422,6.408-14.58606,9.54163-4.91193,3.10217-9.836,6.1853-14.82288,9.16956Q175.70149,300.02459,168.03825,304.21375Z"/><path d="M227.85545,290.01135a67.05835,67.05835,0,0,1,3.85687-6.20495c1.36487-2.00806,2.82208-3.94434,4.297-5.86634,1.50415-1.8988,3.028-3.782,4.642-5.59143a65.90308,65.90308,0,0,1,5.07465-5.23376,66.81707,66.81707,0,0,1-3.8606,6.21448c-1.36444,2.00671-2.819,3.93957-4.29327,5.85693-1.50354,1.894-3.02466,3.7738-4.63818,5.58191A67.10165,67.10165,0,0,1,227.85545,290.01135Z"/><path d="M257.76408,266.78625a1.511,1.511,0,0,0-.85248,1.43934,2.99754,2.99754,0,0,0,.68347,1.59191,12.53228,12.53228,0,0,0,2.56476,2.47754,48.16537,48.16537,0,0,0,6.10931,3.82666c4.2204,2.32776,8.62525,4.3263,13.03681,6.28931,8.84442,3.89124,17.89618,7.31641,26.88513,10.96912l13.44641,5.52063c4.47119,1.85827,8.954,3.68506,13.4566,5.42431,2.25168.87024,4.52179,1.6814,6.809,2.41419a40.72076,40.72076,0,0,0,6.9578,1.67773,16.69428,16.69428,0,0,0,3.52835.11145,9.29415,9.29415,0,0,0,3.35788-.96313,14.01889,14.01889,0,0,0,5.02115-5.02234,21.93449,21.93449,0,0,1-1.98459,3.06152,10.87383,10.87383,0,0,1-2.78015,2.42468,9.94208,9.94208,0,0,1-3.51727,1.2483,17.53291,17.53291,0,0,1-3.72455.11486,40.98344,40.98344,0,0,1-7.2295-1.39575c-2.36019-.64038-4.67428-1.40857-6.97222-2.20508-9.18177-3.22216-18.128-6.95239-27.121-10.55944l-13.45843-5.49988c-4.47437-1.8855-8.93976-3.80115-13.3219-5.90772a137.89217,137.89217,0,0,1-12.88092-6.861,48.879,48.879,0,0,1-5.95227-4.261,12.73144,12.73144,0,0,1-2.48029-2.71862,3.207,3.207,0,0,1-.58368-1.75721A1.588,1.588,0,0,1,257.76408,266.78625Z"/><path d="M363.27961,318.834c.518,3.203.83884,6.41236,1.09024,9.624.26389,3.21118.41086,6.42627.53522,9.64209.087,3.21692.14883,6.43481.09436,9.65637-.042,3.22119-.155,6.4447-.46665,9.67456-.5205-3.20288-.84237-6.41223-1.09323-9.6239-.26333-3.2113-.41034-6.42639-.53222-9.64221-.08451-3.217-.1464-6.43482-.09137-9.6565C362.8585,325.28723,362.97047,322.06384,363.27961,318.834Z"/><path d="M391.35026,232.36633a26.22334,26.22334,0,0,1,4.12445-6.55151,42.665,42.665,0,0,1,5.502-5.51868,54.7993,54.7993,0,0,1,13.3877-7.98254,89.26042,89.26042,0,0,1,30.40231-6.45777,88.3721,88.3721,0,0,0,15.15393-1.903,52.3972,52.3972,0,0,0,14.18607-5.31885,35.90647,35.90647,0,0,0,11.36261-9.91345,31.27053,31.27053,0,0,0,3.8052-6.61047,28.27507,28.27507,0,0,0,2.0774-7.38892,25.5278,25.5278,0,0,1-1.58371,7.58179,32.0307,32.0307,0,0,1-3.49588,6.98022,35.629,35.629,0,0,1-11.37512,10.69654,42.86942,42.86942,0,0,1-7.05829,3.46045,60.276,60.276,0,0,1-7.48746,2.35681,87.922,87.922,0,0,1-15.4838,2.055,94.8227,94.8227,0,0,0-29.91134,5.89917,57.44382,57.44382,0,0,0-13.37509,7.30945,41.93729,41.93729,0,0,0-5.709,5.10034A29.12037,29.12037,0,0,0,391.35026,232.36633Z"/><path d="M377.63926,195.16394a23.20364,23.20364,0,0,1,2.2995-6.21155,36.96071,36.96071,0,0,1,3.62164-5.58288,46.7238,46.7238,0,0,1,9.67182-9.0896c.9187-.61878,1.82669-1.25342,2.76773-1.83289l2.89908-1.60547,1.44793-.79614,1.49909-.6958c.99627-.46826,2.001-.91443,2.98474-1.40015,2.01044-.88037,4.05054-1.68383,6.05008-2.58386q3.09127-1.11676,6.14792-2.34387a.3398.3398,0,0,1,.18319-.01953l.05176.009a47.2423,47.2423,0,0,0,8.70984.62708,36.47036,36.47036,0,0,0,8.55573-1.02686,17.90767,17.90767,0,0,0,7.41317-3.717,13.8731,13.8731,0,0,0,2.601-3.12988,15.73308,15.73308,0,0,0,1.59024-3.79822l.02545-.08679a.94633.94633,0,0,1,.893-.67847,26.90663,26.90663,0,0,1,5.99579.69678,39.54709,39.54709,0,0,1,5.657,1.73205,47.69068,47.69068,0,0,1,5.30194,2.537,46.67616,46.67616,0,0,1,4.87774,3.21338.10018.10018,0,0,1,.02.14026.10358.10358,0,0,1-.12964.027l-2.5624-1.34961c-.87656-.40259-1.72086-.86084-2.61542-1.21375a46.58807,46.58807,0,0,0-5.35871-2.024,45.399,45.399,0,0,0-5.53024-1.30859,27.51725,27.51725,0,0,0-5.5292-.43066l.91824-.765a17.79391,17.79391,0,0,1-1.71857,4.38965,15.24851,15.24851,0,0,1-3.03625,3.65332,19.25781,19.25781,0,0,1-8.36514,3.96179,33.75343,33.75343,0,0,1-9.03028.70349,49.78457,49.78457,0,0,1-8.88022-1.28955l.23456-.0105q-3.10877.98694-6.19342,2.07691c-1.00458.41882-2.00067.85962-2.99481,1.30322-.99121.4491-2.00034.86231-2.9548,1.38525-.95829.51551-1.89545,1.07056-2.84113,1.60364l-1.41385.80591-1.35608.90015-2.70358,1.79638-2.58868,1.94373a62.64652,62.64652,0,0,0-9.52729,8.65662,45.59789,45.59789,0,0,0-3.89926,5.134,28.51028,28.51028,0,0,0-2.99417,5.73791l-.00357.00953a.09979.09979,0,0,1-.19159-.05335Z"/><path d="M419.7151,163.97437c-1.22666-1.038-2.60328-2.16687-4.13465-1.74146a14.91605,14.91605,0,0,0-2.27478.73877l-2.31317.84936A22.68594,22.68594,0,0,1,406.109,165.095a11.91372,11.91372,0,0,1-2.61548.03809,9.68793,9.68793,0,0,1-2.57242-.6919,11.63034,11.63034,0,0,1-4.18787-3.13684,22.95492,22.95492,0,0,1-2.88421-4.20312c-.8086-1.458-1.52021-2.89124-2.35358-4.27906-.40079-.696-.81348-1.3861-1.25745-2.02392a8.48719,8.48719,0,0,0-.68222-.88562,2.451,2.451,0,0,0-.30612-.306c-.04751-.04322-.05215-.03113.01047-.02625a.58885.58885,0,0,0,.65176-.41845l-.575.51489a3.7843,3.7843,0,0,1-2.69739-.59412,2.8558,2.8558,0,0,1-.98-1.08325,2.42077,2.42077,0,0,1-.23846-1.46973c.32812-1.91247,1.90576-2.86682,2.70938-3.87463a9.06226,9.06226,0,0,0,1.82446-3.80054,12.19948,12.19948,0,0,0,.20358-4.30322l.11255.19128a7.66657,7.66657,0,0,1-2.14828-3.28711,13.02262,13.02262,0,0,1-.70587-3.81811,23.827,23.827,0,0,1,.1159-3.8573,29.19034,29.19034,0,0,1,.602-3.82178.46355.46355,0,0,1,.74072-.25781l.02652.02148c3.00321,2.42249,6.12284,4.71888,9.26224,6.94324,1.57245,1.108,3.16715,2.18286,4.79785,3.1604.81467.488,1.63523.95813,2.46476,1.35681a6.094,6.094,0,0,0,2.27816.72852l-.89471.91943a11.83254,11.83254,0,0,1,.50583-2.89514,5.93759,5.93759,0,0,1,1.64956-2.71887,3.056,3.056,0,0,1,.74222-.50855l.41291-.20459.44268-.11755c.1485-.035.29856-.07385.4469-.09875l.43878-.01124a2.98093,2.98093,0,0,1,.84913.06495,5.35507,5.35507,0,0,1,2.89587,1.442,7.90791,7.90791,0,0,1,1.76956,2.48853,13.08966,13.08966,0,0,1,.94217,2.74988,15.199,15.199,0,0,1,.35748,2.84875,12.02033,12.02033,0,0,1-.05087,1.48108,7.388,7.388,0,0,1-.15088.81274l-.14541.454a3.18149,3.18149,0,0,1-.39811.616l-.24145-1.63635c2.07785,1.11572,4.19375,2.21216,6.31619,3.24646,1.06549.50659,2.13623,1.0072,3.21695,1.44348a12.80805,12.80805,0,0,0,3.13764.94214l.09414.00879a.7402.7402,0,0,1,.33228.11621c2.65936,1.74206,5.33886,3.50049,8.09561,5.10156,1.38208.79431,2.7659,1.58789,4.18857,2.29846a23.38808,23.38808,0,0,0,2.17379.959,4.43345,4.43345,0,0,0,2.24833.40417l.02017-.00427a.09908.09908,0,0,1,.05093.19128,4.49087,4.49087,0,0,1-2.45544-.1654,23.89478,23.89478,0,0,1-2.30277-.78675c-1.50525-.59411-2.97311-1.26867-4.4114-1.9956-2.87439-1.46143-5.70313-2.98828-8.46033-4.67285l.426.12488a13.38945,13.38945,0,0,1-3.75183-.91748c-1.1513-.41419-2.26425-.88343-3.37463-1.35975-2.21686-.96118-4.3768-1.99707-6.51862-3.1184l-.24151-1.6366c-.03684-.00574-.06134.03638-.0517.04492a1.88955,1.88955,0,0,1,.04843-.186c.03879-.12561.05084-.33863.082-.50257a10.02821,10.02821,0,0,0,.017-1.19128,15.15922,15.15922,0,0,0-.33914-2.44763,8.23693,8.23693,0,0,0-2.07315-4.15442,3.41346,3.41346,0,0,0-1.79434-.94092,1.89135,1.89135,0,0,0-1.66385.359c-.95755.78393-1.44013,2.608-1.563,4.14368l-.00623.07775a.91961.91961,0,0,1-.8887.84192,4.9159,4.9159,0,0,1-1.79236-.34326,14.00239,14.00239,0,0,1-1.42794-.63489,28.58066,28.58066,0,0,1-2.58753-1.50634c-1.65256-1.07789-3.22952-2.23084-4.78-3.41309-3.09652-2.37134-6.03375-4.91077-8.95532-7.47766l.767-.23621a24.28048,24.28048,0,0,0-.95242,7.39636,12.389,12.389,0,0,0,.60287,3.648,6.67274,6.67274,0,0,0,1.97263,2.99353l.01315.011a.28793.28793,0,0,1,.09955.18066,13.98332,13.98332,0,0,1-.072,4.5719,10.27277,10.27277,0,0,1-1.764,4.28016,9.45883,9.45883,0,0,1-.75607.9132c-.24594.28662-.47757.52576-.69425.799a3.40865,3.40865,0,0,0-.77569,1.665,1.2199,1.2199,0,0,0,.6904,1.19532,2.33194,2.33194,0,0,0,1.57681.27233l-.57474.51465a1.015,1.015,0,0,1,1.17276-.63257,1.6356,1.6356,0,0,1,.55676.24573,3.42555,3.42555,0,0,1,.60511.51416,9.96573,9.96573,0,0,1,.85486,1.03113c.51541.692.96728,1.39685,1.4082,2.1073.86209,1.42029,1.6369,2.9126,2.4057,4.32861,1.4917,2.78138,3.40927,5.46826,6.13348,6.75135a8.92534,8.92534,0,0,0,4.43015.74755,21.51619,21.51619,0,0,0,4.67682-.94384,35.67246,35.67246,0,0,1,4.81738-1.25855,3.61242,3.61242,0,0,1,2.52975.60059,10.97688,10.97688,0,0,1,1.84522,1.68884.10009.10009,0,0,1-.00409.14148A.1024.1024,0,0,1,419.7151,163.97437Z"/><path d="M413.65641,141.26208a17.76612,17.76612,0,0,1,1.51328-1.44641l.75061-.6372a9.896,9.896,0,0,1,.869-.67334,2.60211,2.60211,0,0,1-.96511,2.06579,3.12008,3.12008,0,0,1-1.00064.58094A2.18086,2.18086,0,0,1,413.65641,141.26208Z"/><path d="M436.15535,147.75519s5.82232,3.908,11.58683-6.49315-8.27081-11.02775-8.27081-11.02775,5.7645-27.6947-16.188-31.07822-34.69007,20.92767-34.69007,20.92767,15.034,12.86711,19.17326,12.78217c0,0,.2399-8.05,6.15788-4.76714,0,0,4.135,2.55463,2.86482,10.40633,0,0,12.04735,5.745,13.15812,5.51388S436.15535,147.75519,436.15535,147.75519Z"/><path d="M393.22718,154.06458a22.605,22.605,0,0,0,2.58475-.58826,5.41438,5.41438,0,0,0,1.10885-.49512,11.24149,11.24149,0,0,0,1.113-.78125,2.34633,2.34633,0,0,1-.60754,1.37586,2.97094,2.97094,0,0,1-1.29837.84863,3.61076,3.61076,0,0,1-1.50846.1477A2.90012,2.90012,0,0,1,393.22718,154.06458Z"/><path d="M390.47306,134.495a4.96136,4.96136,0,0,1,1.502-1.46351,6.40574,6.40574,0,0,1,1.94812-.84545,5.58812,5.58812,0,0,1,2.13288-.12085,4.60142,4.60142,0,0,1,1.97775.71716c-.71081.02441-1.35669-.01135-1.99972.06286a10.72638,10.72638,0,0,0-1.87314.31153A21.36186,21.36186,0,0,0,390.47306,134.495Z"/><path d="M393.773,145.23035a1.41139,1.41139,0,0,1,.7569.647,1.6376,1.6376,0,0,1,.21124,1.03845,1.44339,1.44339,0,0,1-.54694.95154,1.31361,1.31361,0,0,1-.967.28711c.14267-.33106.28531-.562.36762-.78674a2.02147,2.02147,0,0,0,.15692-.59266A10.75533,10.75533,0,0,0,393.773,145.23035Z"/><path d="M415.22285,159.43274a45.73,45.73,0,0,0,3.07248-6.16577,33.74928,33.74928,0,0,0,1.13861-3.22058c.35147-1.09229.59335-2.21155.90594-3.354a13.013,13.013,0,0,1-.14624,3.53223,15.99618,15.99618,0,0,1-.972,3.41748,16.75861,16.75861,0,0,1-1.665,3.13562A12.2556,12.2556,0,0,1,415.22285,159.43274Z"/><path d="M394.692,139.94623a1.56738,1.56738,0,0,0,0-3.13289,1.56738,1.56738,0,0,0,0,3.13289Z"/><path d="M413.6564,138.5821a1.04492,1.04492,0,0,0,0-2.08859,1.04492,1.04492,0,0,0,0,2.08859Z"/><path d="M278.74076,249.96758c-.03,0-.05.01-.08008.01a.0568.0568,0,0,1-.06982-.03992l.06006-.03Z" fill="#fff"/><path d="M366.1576,220.40308q-1.89706-2.57959-3.57052-5.32422c-1.11463-1.82569-2.19166-3.68006-3.15952-5.59217q-1.45839-2.86413-2.72711-5.82544c-.85526-1.96789-1.59336-3.989-2.28992-6.04663a.64383.64383,0,0,1-.00232-.40795l.0159-.04859a20.95646,20.95646,0,0,0,.73444-8.18408,37.40879,37.40879,0,0,0-.58683-4.15527,35.80958,35.80958,0,0,0-1.03469-4.04651.94176.94176,0,0,1-.02674-.472,27.48866,27.48866,0,0,0,.62155-4.979,12.799,12.799,0,0,0-.17053-2.423,5.63119,5.63119,0,0,0-.271-1.06616,2.96427,2.96427,0,0,0-.52836-.84119,2.29389,2.29389,0,0,0-1.67535-.78308,1.89773,1.89773,0,0,0-1.55426.8667,14.34365,14.34365,0,0,0-1.87274,4.51453l-.70471,2.50757c-.13022.432-.22766.81518-.4057,1.29431a4.45595,4.45595,0,0,1-.75681,1.28686,4.08612,4.08612,0,0,1-2.60663,1.349,7.10622,7.10622,0,0,1-2.77014-.24743,14.02948,14.02948,0,0,1-4.7399-2.46656,10.83172,10.83172,0,0,1-1.88949-1.89795c-.53131-.67834-1.089-1.33886-1.65335-1.99328-2.2548-2.62317-4.65366-5.12769-7.09885-7.58154l-1.83753-1.82532a8.431,8.431,0,0,0-2.03851-1.42322,7.03775,7.03775,0,0,0-2.36108-.70105,2.951,2.951,0,0,0-2.16516.37158,2.10892,2.10892,0,0,0-.42591,1.99158,11.37418,11.37418,0,0,0,.30127,1.17285c.146.38477.316.76587.47437,1.14758a24.98309,24.98309,0,0,0,2.74945,4.26966,71.03715,71.03715,0,0,0,6.94177,7.57409.805.805,0,0,1,.16748.93116l-.00665.01318a8.65243,8.65243,0,0,0-.62579,4.27722,11.63658,11.63658,0,0,0,.38238,2.20093c.18463.72449.475,1.406.7442,2.23718a15.54431,15.54431,0,0,1,.82269,5.04505,11.94327,11.94327,0,0,0,.68219,4.373,12.80368,12.80368,0,0,0,2.15186,3.87757,12.66045,12.66045,0,0,0,1.55792,1.57666,15.622,15.622,0,0,0,1.84641,1.3363l8.01507,5.29895a1.06545,1.06545,0,0,1,.42545.55554l.00851.026c1.49823,4.52881,3.30793,9.10694,5.05619,13.64051l5.303,13.6344,5.31434,13.63745c1.776,4.54333,3.51257,9.10937,5.24395,13.66736l.002.00537a.09992.09992,0,0,1-.18411.07739q-3.07608-6.65589-6.02384-13.35132c-1.95392-4.47229-3.945-8.93-5.83359-13.43078L346.459,226.53894c-1.82168-4.54565-3.68579-9.01611-5.26172-13.75l.43375.5813-8.01587-5.33911a17.63251,17.63251,0,0,1-2.02148-1.51453,14.26805,14.26805,0,0,1-4.21762-6.39172,13.881,13.881,0,0,1-.71363-5.08765,13.79255,13.79255,0,0,0-.67114-4.41431c-.20886-.69873-.54132-1.50134-.73016-2.33935a13.39084,13.39084,0,0,1-.3739-2.5415,10.22625,10.22625,0,0,1,.92083-5.10877l.16077.94409a63.90038,63.90038,0,0,1-6.84619-7.98926,26.70218,26.70218,0,0,1-2.703-4.57434c-.16137-.4237-.33081-.84265-.47644-1.27307a11.92335,11.92335,0,0,1-.29852-1.35571,4.32853,4.32853,0,0,1,.02985-1.44946,2.2663,2.2663,0,0,1,.80133-1.35926,3.70731,3.70731,0,0,1,2.82586-.47412,8.58836,8.58836,0,0,1,2.585.83374,9.14975,9.14975,0,0,1,2.19336,1.571l1.83142,1.86438c2.40875,2.50281,4.79455,5.027,7.10559,7.62866l1.70025,1.98511a10.09876,10.09876,0,0,0,1.81665,1.7351,12.44556,12.44556,0,0,0,4.51,2.1532c1.58036.38892,3.36621.23584,4.26114-.93a5.33653,5.33653,0,0,0,.83328-2.173l.60193-2.5293a15.44353,15.44353,0,0,1,1.931-5.10913,4.07942,4.07942,0,0,1,1.15433-1.11328,3.19267,3.19267,0,0,1,1.65027-.47522,3.9968,3.9968,0,0,1,2.94351,1.27124,4.69834,4.69834,0,0,1,.88092,1.33032,6.6187,6.6187,0,0,1,.40619,1.44006,14.55222,14.55222,0,0,1,.21,2.75855,26.38842,26.38842,0,0,1-.66513,5.3313l-.0267-.47168a37.32642,37.32642,0,0,1,1.05228,4.28784,38.25233,38.25233,0,0,1,.56661,4.35913,22.479,22.479,0,0,1-1.006,8.80676l.01361-.45617c.59983,2.00293,1.241,4.017,2.01105,5.99157q1.1299,2.96722,2.46851,5.85572c.89453,1.92187,1.80914,3.83874,2.81564,5.71008,1.00372,1.87256,2.06885,3.71313,3.17767,5.53393a.10009.10009,0,0,1-.16641.111Z"/><path d="M342.22074,181.79753c-.06006-.08984-.12988-.18994-.18994-.2799a.11938.11938,0,0,0,.08008.01C342.14066,181.6176,342.1807,181.70769,342.22074,181.79753Z" fill="#fff"/><path d="M276.93406,328.34753a10.5251,10.5251,0,0,1,1.21362,3.86194,10.00245,10.00245,0,0,1-.30029,4.17346,5.37164,5.37164,0,0,1-2.87183,3.41834,5.06721,5.06721,0,0,1-4.17871-.165,8.10962,8.10962,0,0,0,3.42591-1.20215,5.12857,5.12857,0,0,0,1.71844-2.65454,18.84559,18.84559,0,0,0,.652-3.54492Z"/><path d="M297.11308,338.13245a14.811,14.811,0,0,1,.79992,2.839c.17511.9364.29352,1.86584.37879,2.78942.0877.92322.13525,1.84107.18719,2.74866.02857.45374.04053.90906.10163,1.35034a2.54243,2.54243,0,0,0,.40417,1.30042,1.99219,1.99219,0,0,1-1.30939-.91968,6.33054,6.33054,0,0,1-.7304-1.38489,10.98841,10.98841,0,0,1-.64423-2.91211,13.94681,13.94681,0,0,1,.04571-2.92529A9.95557,9.95557,0,0,1,297.11308,338.13245Z"/><path d="M255.90778,336.2184l-5.83413,17.41885c-12.01636-4.42092-14.52962-16.50688-14.52962-16.50688S238.14083,331.40068,255.90778,336.2184Z"/><path d="M300.20677,371.38329l-11.529,3.843-10.19232-3.843,3.67593-5.681s-4.3443-6.76012-17.04988-9.51007l4.38607-11.93282c3.16071,2.193,13.99353,9.57968,16.841,9.57968,0,0,6.68347-8.18728,13.86823-3.84294C300.20677,349.99615,304.21687,365.7023,300.20677,371.38329Z"/><path d="M275.61015,327.64124c-1.30811,4.35241-2.68286,8.68029-4.08985,12.99621q-2.103,6.4768-4.2995,12.91907c-1.4732,4.29162-2.9273,8.59033-4.45141,12.86328-1.50354,4.28052-3.01074,8.55969-4.57147,12.81909a1.45935,1.45935,0,0,1-1.3603.95728l-.011-.00025-7.41431.03284a1.4918,1.4918,0,0,1-1.1-.483l-5.6626-6.19885-.00513-.00574a1.466,1.466,0,0,1-.306-1.45532q2.23636-6.61982,4.55731-13.21143c1.52619-4.40137,3.09992-8.787,4.68415-13.16907q2.36435-6.57714,4.84259-13.116c1.649-4.36036,3.32239-8.71253,5.0755-13.038-1.20966,4.50769-2.49909,8.98853-3.81281,13.46118-1.32226,4.46985-2.65326,8.93677-4.03711,13.38587-1.37426,4.45239-2.75952,8.90112-4.19622,13.33264q-2.11093,6.66211-4.32807,13.2887l-.31109-1.4607,5.69909,6.16529-1.09967-.48291,7.41431.03283-1.371.95679c1.56891-4.25647,3.19146-8.49329,4.81762-12.72864,1.60572-4.243,3.28089-8.46045,4.938-12.68457q2.50856-6.32775,5.09253-12.62768C272.02885,335.99109,273.78617,331.80383,275.61015,327.64124Z"/><path d="M269.66526,324.364c-1.30017,4.67542-2.78528,9.28186-4.33545,13.864-1.53845,4.58667-3.18652,9.13232-4.85577,13.67016-1.70435,4.52491-3.43225,9.0409-5.26917,13.51624-1.82525,4.47974-3.7171,8.93469-5.79516,13.32019,1.29785-4.67615,2.782-9.283,4.33264-13.865,1.539-4.58643,3.187-9.1322,4.85864-13.66919,1.70661-4.52393,3.43445-9.03992,5.27191-13.51514C265.69871,333.20581,267.58952,328.75049,269.66526,324.364Z"/><path d="M370.30241,369.92578c.62054,6.1698,1.09707,12.34741,1.6344,18.52173.5292,6.17468.97662,12.35388,1.43179,18.53259.42828,6.18018.88437,12.35889,1.26053,18.54187.39508,6.182.79758,12.36353,1.13483,18.54859l-.54526-1.06031,8.79452,6.98938-1.43875-.23962,9.78232-3.48682-.97293,1.44666c-.25769-6.47827-.50668-12.95691-.69971-19.438q-.336-9.71961-.56082-19.44385-.25814-9.72289-.38525-19.45117c-.055-6.48694-.18366-12.97058-.15311-19.46106.57541,6.465.99164,12.93665,1.48144,19.40515q.67918,9.70515,1.2493,19.41492.58063,9.70917,1.0737,19.42224c.35184,6.47437.64768,12.95105.93482,19.4281a1.46772,1.46772,0,0,1-.96485,1.44434l-.00827.00256-9.76651,3.53076a1.49191,1.49191,0,0,1-1.43908-.23962l-8.7493-7.04578-.00434-.00354a1.46519,1.46519,0,0,1-.5411-1.05713c-.33023-6.18542-.59525-12.37451-.86768-18.563-.29132-6.18762-.50274-12.37951-.74194-18.56994-.21234-6.19177-.43241-12.38318-.57068-18.5791C370.54029,382.31958,370.34934,376.12659,370.30241,369.92578Z"/><path d="M381.57823,370.532q.76716,10.0686,1.15252,20.14429c.28461,6.71655.45227,13.43542.59732,20.15466.10764,6.71985.19016,13.44019.15628,20.16272q-.00833,10.08308-.4049,20.17334-.77061-10.0686-1.15552-20.14428c-.28406-6.71656-.45175-13.43543-.59433-20.15467-.10517-6.72-.18772-13.44031-.15329-20.16284Q381.186,380.62213,381.57823,370.532Z"/><path d="M470.81086,322.34863c2.38623,5.05884,4.658,10.16394,6.93036,15.26868,2.24573,5.11548,4.48483,10.23364,6.66357,15.3761,2.2118,5.12927,4.34052,10.29187,6.49646,15.4436l6.3469,15.50379a1.49358,1.49358,0,0,1-.7172,1.89392l-8.03036,3.98938-.00879.00427a1.46191,1.46191,0,0,1-1.12964.07l-6.50693-2.28235-.01687-.006a1.42,1.42,0,0,1-.82181-.75489q-5.5366-12.32794-10.89673-24.73706c-1.75623-4.15027-3.54507-8.28564-5.26126-12.45434q-2.6126-6.23548-5.08862-12.5337,3.15627,5.98572,6.18972,12.02808c2.04328,4.01856,4.01389,8.07044,6.01709,12.1073q5.92407,12.15015,11.66,24.3866l-.83838-.76062,6.52548,2.22876-1.13806.07434,8.00964-4.03076-.71707,1.89367L488.29905,369.486c-2.01947-5.20679-4.06616-10.40246-6.02975-15.63171-1.99668-5.21594-3.933-10.45618-5.86261-15.699C474.50367,332.90161,472.6,327.64819,470.81086,322.34863Z"/><path d="M463.44956,332.82349c2.41184,4.47436,4.64292,9.02807,6.81043,13.60949,2.17892,4.57642,4.25073,9.19983,6.30176,13.8324,2.01681,4.64746,4.01059,9.305,5.89773,14.00928,1.89862,4.69934,3.73215,9.42712,5.38364,14.23462-2.41413-4.47339-4.64618-9.02661-6.81317-13.6084-2.17844-4.57666-4.25025-9.20007-6.299-13.8335-2.01452-4.64856-4.00833-9.306-5.895-14.01062C466.93781,342.3573,465.10331,337.63,463.44956,332.82349Z"/><path d="M507.35853,259.17651q.49356,4.91748.88791,9.80262c.265,3.26135.55487,6.514.74042,9.77868.15557,3.26648.2485,6.55274.65023,9.8053a69.07574,69.07574,0,0,0,1.92432,9.62659c.87888,3.15356,1.779,6.2893,2.77722,9.38244q1.52385,4.63184,3.43747,9.08716c2.57648,5.895,5.70639,11.6272,10.56162,16.08374a.10051.10051,0,0,1-.11905.16077,26.9677,26.9677,0,0,1-7.30551-6.76477,45.48357,45.48357,0,0,1-5.08924-8.61987,68.55615,68.55615,0,0,1-3.28662-9.40455,75.71454,75.71454,0,0,1-2.04736-9.69909c-.52225-3.25782-.94107-6.51856-1.4946-9.75928q-.41514-2.43109-.87778-4.86084c-.27881-1.6239-.55972-3.25012-.78824-4.88342a86.73893,86.73893,0,0,1-.63122-9.86023,75.75011,75.75011,0,0,1,.46048-9.87891.10045.10045,0,0,1,.11163-.08789A.10252.10252,0,0,1,507.35853,259.17651Z"/><path d="M493.56065,259.17029a70.94319,70.94319,0,0,1,.6947,9.59753,81.22277,81.22277,0,0,1-.40787,9.60486c-.37594,3.18823-.96756,6.34705-1.45035,9.50855-.48553,3.16137-.84115,6.33911-1.28488,9.51916a73.10246,73.10246,0,0,1-4.91965,18.66126,44.04472,44.04472,0,0,1-4.82537,8.45752,28.301,28.301,0,0,1-6.91626,6.78076.10047.10047,0,0,1-.13925-.02832.10164.10164,0,0,1,.01293-.12671c4.49845-4.5614,7.49753-10.13184,9.90445-15.91687,1.18686-2.90564,2.286-5.85962,3.23478-8.87561q1.356-4.5423,2.57345-9.16077a66.85675,66.85675,0,0,0,1.71646-9.392c.33548-3.16992.34537-6.36914.43338-9.54748.11359-3.17774.32947-6.34571.51862-9.5221q.27983-4.76385.655-9.551a.10055.10055,0,0,1,.10626-.09449A.10274.10274,0,0,1,493.56065,259.17029Z"/><path d="M531.63874,332.72522a7.79122,7.79122,0,0,1,4.14252,1.47986,3.57677,3.57677,0,0,1,1.34048,2.08166,4.15433,4.15433,0,0,1-.3081,2.48731,11.05274,11.05274,0,0,1-2.74182,3.61731,22.65542,22.65542,0,0,1-3.46915,2.64734,44.45644,44.45644,0,0,1-8.03369,3.175c-.66452.25439-1.36054.41271-2.03119.64746-.67291.22985-1.3519.43835-2.03632.63049-.68362.1947-1.365.40027-2.04409.62231-.68561.19349-1.37919.358-2.07056.5387a43.82413,43.82413,0,0,1-8.4675,1.4198c-1.42972.15222-2.86807.10107-4.30533.1604a15.26609,15.26609,0,0,1-2.15378-.063l-2.15048-.15564a51.5205,51.5205,0,0,1-16.46164-4.58789.10057.10057,0,0,1-.04828-.13367.10368.10368,0,0,1,.11509-.05493,119.40334,119.40334,0,0,0,16.58279,2.65161,81.59823,81.59823,0,0,0,8.32877.3042c2.77816-.11157,5.56961-.249,8.35165-.61572a34.808,34.808,0,0,0,8.17352-1.9751c.651-.26489,1.29987-.5343,1.94052-.81921l1.8722-.95874a32.37171,32.37171,0,0,0,3.50781-2.1665c1.09579-.828,2.18292-1.68641,3.20392-2.57349a13.78212,13.78212,0,0,0,1.42016-1.41065,7.17551,7.17551,0,0,0,1.10691-1.54284,3.057,3.057,0,0,0,.39346-1.62439,2.60821,2.60821,0,0,0-.73566-1.51807,9.30056,9.30056,0,0,0-3.45981-2.06726l-.00689-.00256a.10036.10036,0,0,1,.04449-.19385Z"/><path d="M278.68437,250.009a80.45478,80.45478,0,0,0-8.72895,3.93555,65.09238,65.09238,0,0,0-8.1474,4.99048,35.12709,35.12709,0,0,0-6.93963,6.44751,16.14008,16.14008,0,0,0-3.65015,8.48523,190.28805,190.28805,0,0,0-2.11548,19.01758,81.37,81.37,0,0,0-.02649,9.51587,34.16045,34.16045,0,0,0,.58978,4.65942,15.11334,15.11334,0,0,0,.64362,2.19128,5.06593,5.06593,0,0,0,1.078,1.83435,24.04472,24.04472,0,0,0,3.48963,3.05884c1.25238.9541,2.57208,1.838,3.88769,2.724,2.653,1.74756,5.3866,3.39026,8.14862,4.98462,5.52747,3.18567,11.16706,6.193,16.85175,9.11243,11.37018,5.84253,22.93,11.32275,34.51489,16.74524,11.58643,5.42871,23.24625,10.6759,34.94663,15.88684,11.24493,6.17651,24.39337,7.20825,36.96579,5.641,12.63879-1.57178,24.85019-5.87586,36.25433-11.56751a189.6518,189.6518,0,0,0,32.11545-20.80383l.02685-.01917a30.18679,30.18679,0,0,0,5.17289-4.92932c.81451-.88281,1.503-1.87414,2.25784-2.808.70163-.97583,1.38223-1.96838,2.0618-2.96a76.00175,76.00175,0,0,0,6.60238-12.82691,110.17347,110.17347,0,0,0,4.50446-13.73c.57165-2.34167,1.07852-4.70043,1.61108-7.0509l1.24259-7.12707.001-.006a.66838.66838,0,0,1,.02033-.08227q5.80692-18.02528,11.005-36.25073c3.46479-12.142,6.74659-24.33911,9.57514-36.63123.66662-3.08057,1.43222-6.14221,2.03009-9.23437l.946-4.62891c.3111-1.54358.55326-3.09705.83338-4.6449.59439-3.0935.96722-6.20764,1.394-9.31616a30.395,30.395,0,0,0-8.27661-25.23828,26.01554,26.01554,0,0,0-3.47046-2.9115,20.52138,20.52138,0,0,0-3.96265-2.07251,18.19188,18.19188,0,0,0-4.32214-1.0083,18.87206,18.87206,0,0,0-4.45441.15015,25.49089,25.49089,0,0,0-8.51489,2.99609,30.50366,30.50366,0,0,0-3.80545,2.529c-1.1893.91919-2.36734,2.00672-3.615,3.01343A127.09025,127.09025,0,0,1,451.77937,173.035a121.4698,121.4698,0,0,1-17.12271,8.47693,97.616,97.616,0,0,1-18.39509,5.25c-1.58117.235-3.14685.57776-4.74026.72071l-4.77872.43225c-1.59454.11169-3.19867.06421-4.797.10315l-2.38865.0216c-.76745-.0177-1.53472-.00415-2.30142.02686a29.64361,29.64361,0,0,0-17.00988,6.16321,33.1012,33.1012,0,0,0-10.71055,14.765,44.99207,44.99207,0,0,0-2.25344,9.00806,62.1563,62.1563,0,0,0-.5419,9.33154l.00009.02918-.00052.021q-.93329,18.11536-2.03543,36.21753-.58581,9.05-1.262,18.09473c-.2315,3.01452-.47723,6.0282-.75674,9.03943q-.20709,2.25842-.46286,4.51355a27.05772,27.05772,0,0,1-.76993,4.49755.103.103,0,0,1-.19742-.059l.00885-.03076a27.63754,27.63754,0,0,0,.66342-4.43921q.21373-2.2542.37467-4.51428c.22082-3.01257.408-6.0282.5809-9.0448q.51462-9.05.91062-18.1073.85478-18.11022,1.54031-36.22888l-.00043.0498a63.6158,63.6158,0,0,1,.42893-9.57836,45.2668,45.2668,0,0,1,2.2496-9.36206,34.81392,34.81392,0,0,1,11.13763-15.604,31.513,31.513,0,0,1,18.0066-6.69385c.81131-.03967,1.62347-.06042,2.43563-.04846l2.34946-.04138c1.5582-.05176,3.12012-.01587,4.67416-.13794l4.65659-.45984c1.55215-.15051,3.07941-.50183,4.62009-.741a95.50543,95.50543,0,0,0,17.98428-5.1676,119.3385,119.3385,0,0,0,16.79785-8.35412,124.92125,124.92125,0,0,0,15.35883-10.793c1.21017-.978,2.35223-2.04163,3.65948-3.05969a32.68271,32.68271,0,0,1,4.07581-2.71827q1.07177-.6015,2.19342-1.11474c.74969-.33472,1.51938-.61621,2.27884-.9253.77612-.26843,1.56784-.50427,2.35824-.7362.81284-.1604,1.60834-.39649,2.438-.4823a21.06412,21.06412,0,0,1,4.99359-.14173,20.35577,20.35577,0,0,1,4.876,1.16028,22.66583,22.66583,0,0,1,4.40613,2.32862,28.12011,28.12011,0,0,1,3.76645,3.1864,31.53445,31.53445,0,0,1,8.63232,17.24548,33.10783,33.10783,0,0,1,.11615,9.72c-.44595,3.14893-.84067,6.30884-1.453,9.42029-.2894,1.5592-.54169,3.12732-.86176,4.67908l-.97284,4.6521c-.61633,3.10937-1.39322,6.17773-2.10064,9.26391-2.96186,12.30994-6.37067,24.4939-9.961,36.61841q-5.40359,18.18366-11.38205,36.18384l.02127-.08789-1.327,7.16321c-.56131,2.36328-1.097,4.73291-1.69787,7.0852a111.0666,111.0666,0,0,1-4.68634,13.791,76.74425,76.74425,0,0,1-6.718,12.92553c-.69156,1.00122-1.38428,2.00293-2.09872,2.98816-.769.945-1.46979,1.94409-2.30091,2.83911a30.67508,30.67508,0,0,1-5.33777,5.03516l.02652-.01892-3.821,2.91687-1.91043,1.45825-1.95475,1.39893-3.90652,2.80176-3.99194,2.68017a174.53684,174.53684,0,0,1-16.59851,9.71167c-11.4502,5.73584-23.65244,10.29785-36.44745,12.04773a79.13621,79.13621,0,0,1-9.63532.78137,67.42088,67.42088,0,0,1-9.67679-.44848,54.85967,54.85967,0,0,1-9.52252-1.9618,34.374,34.374,0,0,1-4.57611-1.76428l-4.39242-1.89331q-17.60193-7.64245-35.0477-15.72522-17.42277-8.1-34.51795-16.906c-5.6867-2.95655-11.33093-6.00232-16.87817-9.23633-2.77246-1.619-5.51947-3.28784-8.20307-5.07471-1.33636-.90405-2.66607-1.81872-3.94714-2.8208a25.33789,25.33789,0,0,1-3.67212-3.31091,6.58305,6.58305,0,0,1-1.3128-2.28418,16.49031,16.49031,0,0,1-.67859-2.4159,35.47032,35.47032,0,0,1-.558-4.8634,82.60908,82.60908,0,0,1,.14362-9.67163,191.382,191.382,0,0,1,2.36127-19.10547l.206-1.18579.28174-1.21252a16.20928,16.20928,0,0,1,.87366-2.315,20.12934,20.12934,0,0,1,2.64807-4.11462,35.81221,35.81221,0,0,1,7.21466-6.43677,65.60294,65.60294,0,0,1,8.31354-4.86,80.7399,80.7399,0,0,1,8.84509-3.7699.10437.10437,0,0,1,.13324.0636A.1072.1072,0,0,1,278.68437,250.009Z"/><path d="M278.69938,250.05212a80.37622,80.37622,0,0,0-8.68951,3.99939,64.951,64.951,0,0,0-8.11322,5.00806,34.94668,34.94668,0,0,0-6.88379,6.43933,19.08,19.08,0,0,0-2.41376,3.95325,15.0781,15.0781,0,0,0-.7558,2.15735l-.23022,1.11218-.17981,1.1814a190.03407,190.03407,0,0,0-2.06189,18.99829,81.082,81.082,0,0,0-.00092,9.48193,33.83327,33.83327,0,0,0,.59674,4.61487,14.7743,14.7743,0,0,0,.636,2.14233,4.73587,4.73587,0,0,0,1.02673,1.73621,23.80452,23.80452,0,0,0,3.44983,3.00378c1.24609.94373,2.56366,1.82093,3.87476,2.703,2.6463,1.73889,5.37695,3.37585,8.13672,4.96484,5.52313,3.175,11.16174,6.17407,16.846,9.08545,11.3675,5.83081,22.93592,11.28284,34.51416,16.7102,11.57819,5.4408,23.23169,10.68567,34.9246,15.922,11.18881,6.18591,24.22573,7.23914,36.78308,5.71839,12.60473-1.533,24.81811-5.78077,36.21222-11.46277a187.24982,187.24982,0,0,0,32.10064-20.76795l.03849-.02759a30.0867,30.0867,0,0,0,5.13693-4.90612c.81088-.88037,1.4967-1.86988,2.24844-2.8014.69882-.97375,1.37677-1.96423,2.05374-2.95373a75.83549,75.83549,0,0,0,6.57718-12.80542,109.97971,109.97971,0,0,0,4.46475-13.71655c.56528-2.33948,1.06586-4.6958,1.59217-7.04346l1.22412-7.11914a1.0644,1.0644,0,0,1,.0307-.12671q5.75858-18.03333,10.87244-36.28c3.44467-12.14294,6.72213-24.33581,9.53643-36.62048.66379-3.07788,1.42566-6.13843,2.0195-9.22669l.94013-4.624c.30911-1.54175.5491-3.092.82718-4.63745.59048-3.08948.95852-6.19373,1.3811-9.29334a29.94728,29.94728,0,0,0-8.17364-24.86145,25.54388,25.54388,0,0,0-3.40592-2.85156,20.04643,20.04643,0,0,0-3.86587-2.0166,17.71365,17.71365,0,0,0-4.2013-.9751,18.39141,18.39141,0,0,0-4.33673.152,25.10648,25.10648,0,0,0-8.35049,2.93884,30.01188,30.01188,0,0,0-3.74646,2.48767c-.605.46546-1.154.93494-1.76264,1.45545-.61477.51513-1.21557,1.05078-1.84262,1.54785a127.54407,127.54407,0,0,1-15.709,10.99023,121.94811,121.94811,0,0,1-17.19361,8.50379,98.08127,98.08127,0,0,1-18.48471,5.26794c-1.59.234-3.16406.575-4.76648.71631l-4.80536.42615c-1.60336.10937-3.2167.05932-4.82376.09546l-2.39721.01733c-.75766-.0188-1.51517-.00684-2.2721.02222a29.23654,29.23654,0,0,0-16.79242,6.04736,32.72692,32.72692,0,0,0-10.61737,14.582,44.93575,44.93575,0,0,0-2.25427,8.93079,61.83029,61.83029,0,0,0-.56659,9.27771l0,.04992-.00061.0221c-.65851,12.07678-1.35165,24.14734-2.14346,36.21509q-.62412,9.04852-1.33869,18.09192c-.24426,3.014-.50281,6.02722-.79507,9.0382q-.21675,2.25825-.48212,4.51343a26.98994,26.98994,0,0,1-.79318,4.51038.14791.14791,0,0,1-.28342-.0846l.01258-.04443a27.83112,27.83112,0,0,0,.64019-4.42651q.204-2.25385.35541-4.51441c.208-3.01282.38239-6.02893.54254-9.0459q.47627-9.05127.834-18.1101.79513-18.1117,1.43225-36.23133l-.00058.07154a63.91689,63.91689,0,0,1,.40423-9.63208,45.33635,45.33635,0,0,1,2.24878-9.43934,35.18626,35.18626,0,0,1,11.23081-15.7871,31.92,31.92,0,0,1,18.22409-6.80945c.821-.04175,1.643-.06409,2.4649-.05335l2.34094-.04565c1.54941-.05457,3.10212-.02112,4.64734-.14551l4.63-.46582c1.54315-.15222,3.062-.50537,4.59387-.74536a95.053,95.053,0,0,0,17.89465-5.14966,118.87355,118.87355,0,0,0,16.727-8.32739A124.44821,124.44821,0,0,0,465.72907,160.023c.61-.48572,1.187-1.00391,1.7818-1.5044.59037-.50769,1.24088-1.06677,1.88742-1.56555a33.184,33.184,0,0,1,4.1348-2.75952q1.08843-.61139,2.22876-1.13367c.762-.34069,1.5433-.62719,2.31509-.94091.78931-.27356,1.59549-.51429,2.40052-.75025.8294-.1654,1.64019-.40271,2.48852-.49084a21.54886,21.54886,0,0,1,5.11127-.14,20.83422,20.83422,0,0,1,4.99689,1.19361,23.12847,23.12847,0,0,1,4.50289,2.3844,28.56886,28.56886,0,0,1,3.831,3.24646A31.98762,31.98762,0,0,1,510.15,175.06274a33.54826,33.54826,0,0,1,.10947,9.84168c-.45014,3.15784-.84964,6.32764-1.46591,9.443-.29145,1.56177-.5459,3.13306-.868,4.68653l-.97867,4.6571c-.62039,3.11328-1.401,6.18286-2.11127,9.27161-5.99722,24.62463-13.49261,48.792-21.51434,72.78369l.03058-.12634-1.34543,7.17114c-.56757,2.366-1.10956,4.738-1.7168,7.09265a111.25457,111.25457,0,0,1-4.726,13.80432,76.904,76.904,0,0,1-6.7432,12.94714c-.69415,1.0033-1.38952,2.00708-2.10678,2.99427-.77209.94738-1.47555,1.94824-2.3103,2.84582a30.78252,30.78252,0,0,1-5.37375,5.05835l.03815-.02722-3.82587,2.91541-1.91284,1.45764-1.95718,1.39807-3.90729,2.80615-3.99182,2.68665a174.64373,174.64373,0,0,1-16.603,9.73938c-11.46021,5.7456-23.66046,10.36389-36.48956,12.15258a79.34907,79.34907,0,0,1-9.66507.81092,67.70822,67.70822,0,0,1-9.71945-.42432,55.16905,55.16905,0,0,1-9.58548-1.94849,34.74808,34.74808,0,0,1-4.62494-1.76928l-4.3909-1.87805c-11.74213-5.06959-23.43695-10.32935-35.06977-15.69q-17.43273-8.09253-34.51867-16.941c-5.68714-2.96472-11.33234-6.01867-16.88385-9.2633-2.77478-1.62439-5.52472-3.29895-8.215-5.09448-1.34082-.908-2.67273-1.82935-3.96008-2.8418a25.6595,25.6595,0,0,1-3.712-3.366,6.91731,6.91731,0,0,1-1.364-2.38232,16.789,16.789,0,0,1-.68622-2.46485,35.745,35.745,0,0,1-.551-4.908,82.85718,82.85718,0,0,1,.16913-9.70556,191.588,191.588,0,0,1,2.415-19.12464l.2099-1.18676.29-1.23084a16.40052,16.40052,0,0,1,.89288-2.34424,20.30824,20.30824,0,0,1,2.6872-4.14709,35.95947,35.95947,0,0,1,7.27057-6.445,73.67369,73.67369,0,0,1,17.23217-8.54858.15.15,0,0,1,.10419.28125Z"/><path d="M491.02726,258.59246,502.236,218.09471c.21582-.007.43164-.007.64746-.007,25.64788,0,46.45023,9.21764,46.45023,20.59349,0,11.36889-20.80235,20.58653-46.45023,20.58653A103.11624,103.11624,0,0,1,491.02726,258.59246Z"/><path d="M379.7747,165.67668a6.71615,6.71615,0,0,0-7.54395-3.12817c1.76172-2.6261.59619-7.19092-3.54-7.19092-5.791,0-5.80053,9,0,9a4.83423,4.83423,0,0,0,.49927-.04956,6.71606,6.71606,0,0,0-1.05322,8.08777l4.94824,8.57056,11.63794-6.71912Z"/></svg>