<svg id="Layer_1" data-name="Layer 1" xmlns="http://www.w3.org/2000/svg" viewBox="0 0 700 550"><title>talking on the phone</title><path d="M283.58751,136.62656c2.71049-.18286,5.42092-.27257,8.13135-.407,2.71044-.10778,5.42092-.20649,8.13136-.26918,5.42086-.152,10.84178-.223,16.26264-.25871l.55619-.00363.33865.50023a57.56413,57.56413,0,0,0,8.11936,9.56326,29.87914,29.87914,0,0,0,10.47512,6.74236,17.09643,17.09643,0,0,0,12.2834-.34935,27.55382,27.55382,0,0,0,9.91157-7.72562l.19719-.23444.33063.065,11.93674,2.34781.74578.14666-.06392.836a64.30562,64.30562,0,0,0,.017,7.9762c.14825,2.68347.35088,5.36958.62941,8.05007.27386,2.68119.62075,5.35718,1.00121,8.02849l1.17864,8.05451c.34824,2.71259.64567,5.434.783,8.18281a58.43024,58.43024,0,0,1-.03438,8.28281,39.26521,39.26521,0,0,1-1.52366,8.19971,57.51739,57.51739,0,0,1-3.00792,7.67674l-.03731.08175-.02274.033c-1.45039,2.10161-2.87453,4.22-4.34649,6.30781-1.47414,2.08641-2.92651,4.18673-4.42883,6.255l-.20146-.12888c1.24793-2.2312,2.54587-4.43035,3.822-6.64348,1.27841-2.21172,2.60453-4.39281,3.90445-6.59073l-.05988.1145a75.59838,75.59838,0,0,0,2.52365-7.61925,37.16047,37.16047,0,0,0,1.13776-7.82726,99.29527,99.29527,0,0,0-1.04092-15.9913c-.36479-2.65886-.7711-5.34777-1.0987-8.06229-.32508-2.70809-.61625-5.42127-.834-8.14369-.21018-2.72271-.39549-5.45057-.43146-8.18989a63.53139,63.53139,0,0,1,.31736-8.28574l.68169.98245-11.78732-3.00932.52753-.16929a32.08127,32.08127,0,0,1-10.4495,7.66679,19.72773,19.72773,0,0,1-12.89486.769,31.15009,31.15009,0,0,1-11.4282-6.3874,45.80372,45.80372,0,0,1-8.62129-9.88911l.89455.49643c-5.42086-.03573-10.84178-.10667-16.26264-.25865-2.71044-.06275-5.42092-.16146-8.13136-.26918-2.71043-.13438-5.42086-.22415-8.13135-.407Z"/><path d="M353.99813,210.984a15.21191,15.21191,0,0,0,3.62194,1.94968,11.61326,11.61326,0,0,0,3.82843.71847,11.10331,11.10331,0,0,0,1.94927-.14626,14.11806,14.11806,0,0,0,1.95594-.39736c.65619-.15748,1.28782-.424,1.95945-.614.64712-.2497,1.28916-.52911,1.99108-.74519a18.84748,18.84748,0,0,1-1.62419,1.43676,14.763,14.763,0,0,1-1.89986,1.09127,10.5418,10.5418,0,0,1-4.35561.96806,9.16968,9.16968,0,0,1-4.33321-1.1908A7.83133,7.83133,0,0,1,353.99813,210.984Z"/><path d="M323.18826,210.984a15.21058,15.21058,0,0,0,3.62194,1.94968,11.61291,11.61291,0,0,0,3.82837.71847,11.10338,11.10338,0,0,0,1.94927-.14626,14.11887,14.11887,0,0,0,1.956-.39736c.65613-.15748,1.28776-.424,1.95944-.614.64713-.2497,1.28917-.52911,1.991-.74519a18.83765,18.83765,0,0,1-1.62413,1.43676,14.767,14.767,0,0,1-1.89986,1.09127,10.54183,10.54183,0,0,1-4.35561.96806,9.17,9.17,0,0,1-4.33328-1.1908A7.83115,7.83115,0,0,1,323.18826,210.984Z"/><path d="M294.77093,247.48154a8.46714,8.46714,0,0,1-3.21861-2.14541c-.74947-1.05244-1.479-2.10775-2.152-3.20189L287.56816,238.76l-1.63015-3.46726c-2.06547-4.66871-3.88574-9.43929-5.552-14.25443-1.71817-4.80075-3.23084-9.66747-4.67491-14.55354-1.41665-4.89368-2.78908-9.80069-4.03193-14.74436q-1.93261-7.39841-3.32621-14.94553c-.21141-1.26606-.46538-2.51324-.6114-3.80182a37.217,37.217,0,0,1-.39491-3.89375l-.0545-.99279.00871-.95186.02965-1.90974c.02228-1.27525.05293-2.561.1376-3.84889a37.07212,37.07212,0,0,1,1.18525-7.6923,23.88783,23.88783,0,0,1,3.24639-7.1037,26.94871,26.94871,0,0,1,5.18478-5.76811c.94642-.8828,2.02845-1.58659,3.04552-2.3733,1.04548-.7466,2.15681-1.3922,3.23153-2.092l.137-.08918.15561.032a18.70779,18.70779,0,0,1,5.53273,2.21429,22.84716,22.84716,0,0,1,4.68859,3.59276,29.39631,29.39631,0,0,1,6.59576,9.70437c1.5684,3.62013,2.35892,7.49376,3.35615,11.22336.97835,3.75615,2.01372,7.49545,3.14119,11.20394,1.12332,3.7151,2.38055,7.36148,3.67194,11.03751,1.28518,3.67018,2.51774,7.35832,3.75094,11.04751,1.22566,3.69182,2.44973,7.38505,3.60755,11.10517.57432,1.86231,1.14812,3.72375,1.685,5.60583.27006.9411.53456,1.88267.77882,2.84294.12082.48117.24836.95449.35041,1.45811.05222.25251.11146.48742.15742.75455l.11918.83426-.99379-1.06022c10.02156,1.319,20.048,2.6026,30.06035,3.98913l15.01611,2.09728,15.007,2.16418L395.18,228.33584a49.18354,49.18354,0,0,1,14.6974,4.47637,63.04582,63.04582,0,0,1,6.68582,3.74363,34.341,34.341,0,0,1,6.00518,4.80233,15.12375,15.12375,0,0,1,3.99567,6.58073,9.2868,9.2868,0,0,1,.1748,3.87094,11.05087,11.05087,0,0,1-1.34537,3.59165l-.21017-.11415a10.7042,10.7042,0,0,0,1.1049-3.54252,8.90106,8.90106,0,0,0-.33742-3.63615,14.33543,14.33543,0,0,0-4.076-6.0498,46.3929,46.3929,0,0,0-12.64076-7.86645,50.88313,50.88313,0,0,0-14.316-3.93375l-15.04319-1.901-15.03681-1.94816-15.02763-2.01506c-10.01688-1.35507-20.01967-2.81312-30.02725-4.23556l-.86566-.1231-.1283-.93741-.0834-.609c-.03327-.21187-.08976-.44958-.13327-.67321-.08479-.45017-.20456-.91689-.31508-1.37928-.22392-.92554-.47415-1.85833-.72941-2.78785-.50765-1.86138-1.05729-3.72083-1.60688-5.57876q-1.65717-5.57422-3.38662-11.13932l-3.48732-11.11891c-1.17238-3.69562-2.33546-7.43762-3.347-11.19734-1.03121-3.75866-1.97208-7.53837-2.85177-11.32961a67.63011,67.63011,0,0,0-3.13353-11.1416,28.00567,28.00567,0,0,0-6.34628-9.50127,22.0831,22.0831,0,0,0-4.58228-3.41809,18.00815,18.00815,0,0,0-5.26519-2.04137l.29216-.05708c-1.04467.70128-2.12822,1.34882-3.14013,2.092a30.47008,30.47008,0,0,0-2.90739,2.38237,25.79478,25.79478,0,0,0-4.78883,5.69,22.56873,22.56873,0,0,0-2.84393,6.80183,35.44987,35.44987,0,0,0-.89315,7.38376c-.04222,1.25045-.03234,2.50775-.01386,3.77364l.03135,1.90278.01333.95431.06941.9094a35.49653,35.49653,0,0,0,.44175,3.68036c.157,1.23636.44356,2.47623.65648,3.7158.95134,4.95683,2.06471,9.90332,3.25312,14.83091,1.17407,4.9318,2.479,9.83413,3.82784,14.72337.71081,2.43365,1.37706,4.882,2.12453,7.30446.71789,2.43172,1.42472,4.86812,2.20886,7.27844,1.4953,4.847,3.20347,9.6201,5.04327,14.33588l1.4474,3.509,1.64483,3.41165c.60093,1.1,1.282,2.16763,1.93811,3.22762a8.12142,8.12142,0,0,0,2.94265,2.23Z"/><path d="M311.52374,220.16758a12.73016,12.73016,0,0,1,4.07094-1.58734,16.694,16.694,0,0,1,2.2064-.31479,19.24,19.24,0,0,1,2.249-.03562l-.21608,1.57963a17.86512,17.86512,0,0,0-2.04729-.3483,15.69046,15.69046,0,0,0-2.0947-.08971A12.34394,12.34394,0,0,0,311.52374,220.16758Z"/><path d="M378.82867,244.55509a8.405,8.405,0,0,1-.8663-1.22344c-.24561-.40923-.46427-.82671-.66631-1.24781a18.45023,18.45023,0,0,1-.98314-2.5836,18.04885,18.04885,0,0,0,1.64734,2.14272c.3.32854.60935.64374.93133.93607a7.0724,7.0724,0,0,0,.97011.76157.80811.80811,0,1,1-1.0211,1.22841Z"/><path d="M412.16126,237.96091a31.533,31.533,0,0,1,4.51356,3.08651,33.48809,33.48809,0,0,1,3.95492,3.80018,27.06881,27.06881,0,0,1,3.22972,4.45836,25.08876,25.08876,0,0,1,2.239,5.06239l-.7666.21853a24.39829,24.39829,0,0,0-1.99477-4.99,26.56975,26.56975,0,0,0-3.01119-4.49122,33.18256,33.18256,0,0,0-3.77965-3.90592A31.43729,31.43729,0,0,0,412.16126,237.96091Z"/><path d="M325.71478,270.15193a232.83412,232.83412,0,0,1-4.80017,24.68107c-3.97621,16.29756-8.39311,32.48008-12.95374,48.62437-4.49357,16.1634-9.1883,32.26932-13.816,48.42314a56.14141,56.14141,0,0,1-7.07089-1.82039c-2.0791-1.14975,16.98737-76.04563,16.98737-76.04563,1.36056-4.12947,2.539-8.29731,3.64088-12.48427,1.121-4.187,2.13658-8.3931,3.133-12.60878.94853-4.21573,1.88752-8.441,2.71149-12.695.83355-4.2445,1.6-8.50807,2.18453-12.81959-1.36057,4.12948-2.539,8.29726-3.64089,12.48422-1.121,4.187-2.13658,8.3931-3.12347,12.59924-.95811,4.22526-1.88745,8.45059-2.71142,12.70462-.83356,4.24445-1.60963,8.50807-2.19412,12.81959-22.60192.75689-30.53514-18.28086-32.99751-36.40839l.048.0862c7.40621-3.957,14.822-7.87568,22.34326-11.57406,7.52118-3.66,15.09985-7.31042,22.97559-9.89729a25.75061,25.75061,0,0,1,5.94986-1.29349,4.8419,4.8419,0,0,1,2.68277.45035,1.63532,1.63532,0,0,1,.709.92934l.22035.68028.12456.73777A51.09129,51.09129,0,0,1,325.71478,270.15193Z"/><path d="M370.92825,390.06012c-15.28195,12.73334-59.12533,5.672-76.59176,1.86828,5.77741-15.78013,10.90336-31.77109,15.5885-47.91531,2.31868-8.077,4.44567-16.20177,6.48646-24.35534s3.89954-16.355,5.52835-24.59481c1.64793-8.24936,3.20966-16.49872,4.39772-24.82475.3066-2.07915.54613-4.17743.74735-6.27571a34.65133,34.65133,0,0,0,.09579-6.39061l-.115-.81437-.22035-.83356a2.8626,2.8626,0,0,0-1.11144-1.55214,6.05039,6.05039,0,0,0-3.39171-.78567,25.95354,25.95354,0,0,0-6.37143,1.11139,88.33488,88.33488,0,0,0-11.85195,4.52234c-3.842,1.74372-7.617,3.61206-11.33446,5.57618-7.41581,3.94749-14.68793,8.144-21.73006,12.695a130.2821,130.2821,0,0,1-.02877-31.47407s9.64823,1.11145,23.79,1.351a25.74563,25.74563,0,0,0,6.07442,1.70542c-1.02519.47906-2.04079.96771-3.05639,1.47548a149.18687,149.18687,0,0,0-16.78615,9.7153l.10538.16287q4.26835-2.28507,8.60386-4.40731c2.87435-1.45636,5.79659-2.79768,8.71889-4.13907q2.6875-1.22155,5.40372-2.39529c15.13828,1.7246,40.15466-1.06349,57.20911-3.478.63239,1.90664,1.14016,3.86123,1.58091,5.82536a145.984,145.984,0,0,1,2.606,19.191q.79043,9.70092,1.09226,19.4498c.21076,6.496.297,13.00163.45029,19.51681h.09585V310Z"/><path d="M425.29172,255.349a1.1225,1.1225,0,0,1-2.012-.14368c-1.58091-3.89953-5.80623-12.03393-14.03641-13.66274-10.90336-2.14616-14.39092,5.86367-22.82232,5.02052-3.53545-.34491-7.023-3.43966-7.023-3.43966s-6.81219,1.22642-16.66158,2.64441a51.01244,51.01244,0,0,1,1.68623,5.6529,122.95681,122.95681,0,0,1,2.89353,19.44974c.47906,6.52476.58443,13.05912.54613,19.58388q-.115,9.75838-.85274,19.49763l8.22065-2.82639s7.75113,79.2074,6.02653,82.93448c0,0,45.0602,17.79222,67.15435-.86232ZM380.931,252.331a32.463,32.463,0,0,0-3.51632,7.07089,47.58879,47.58879,0,0,0-2.00243,7.65534,62.26991,62.26991,0,0,0-.92941,7.89486,59.3987,59.3987,0,0,0,0,7.94276c.13415,2.6923.297,5.375.39286,8.06737q.37368,8.06253.36409,16.16341-1.121-8.01945-1.84915-16.058c-.27789-2.68271-.47906-5.36548-.71859-8.0386a57.0329,57.0329,0,0,1-.09585-8.19188,49.32872,49.32872,0,0,1,3.44925-15.98136,29.4995,29.4995,0,0,1,4.15819-7.08049,21.39691,21.39691,0,0,1,6.24694-5.20256A23.584,23.584,0,0,0,380.931,252.331Z"/><polygon points="367.01 309.952 367.01 310 366.914 310 366.914 309.99 367.01 309.952" fill="#fff"/><path d="M271.05429,277.50066a.32788.32788,0,0,0,.00953.09585l-.04789-.07667A.0727.0727,0,0,1,271.05429,277.50066Z" fill="#fff"/><path d="M294.3269,391.9284v.00959l-.07667-.02871A.22671.22671,0,0,1,294.3269,391.9284Z" fill="#fff"/><path d="M334.29155,121.63465s-6.96515-.71437-4.33077-12.3235a3.26645,3.26645,0,0,1,2.3936-2.52819c1.2197-.26307,2.79814.21525,4.23309,3.1808,0,0,20.47189,1.148,28.31626-12.24487,0,0,4.01785,12.05354,6.88774,10.33161,0,0,2.10459-19.70659-13.2015-20.66322,0,0-6.12244-8.227-16.07139-6.31376s-19.51527,8.227-19.13261,21.61985c0,0-12.79631,8.98866-16.64538,34.056s25.829,35.39535,27.16831,25.25506,3.06122-14.92343.95663-23.72443A43.6414,43.6414,0,0,1,334.29155,121.63465Z"/><path d="M358.20726,144.78516c-1.19975-.58087-2.38453-1.18729-3.56557-1.80021-1.17992-.61473-2.37365-1.206-3.54211-1.84032a.43426.43426,0,0,1,.3228-.80023l.05251.01462c3.54422.98145,7.58347.96145,10.68506-.89431a5.62108,5.62108,0,0,0,.579-.33953l.52806-.417a5.87044,5.87044,0,0,0,1.01683-.8752l.92309-.98466.76086-1.13016c.125-.18947.26029-.37181.37748-.56648l.29556-.62216.60478-1.237c.34029-.85689.60263-1.75354.91139-2.62844,1.00847-3.68744,1.87805-7.41587,2.54237-11.18248a58.711,58.711,0,0,0,1.09209-11.43107,42.87039,42.87039,0,0,1,.03058,11.59264,81.96711,81.96711,0,0,1-2.16675,11.42277c-.31666.94455-.58871,1.90436-.9487,2.83651l-.65584,1.36139-.33473.67707c-.13222.21549-.2848.4211-.42666.6318l-.86964,1.25355-1.06151,1.11291a7.12832,7.12832,0,0,1-1.17624.99057l-.62291.455a6.85809,6.85809,0,0,1-.67579.37017,12.24261,12.24261,0,0,1-5.85763,1.47285,16.16488,16.16488,0,0,1-5.86121-1.05221l.37532-.78554c1.12741.7049,2.22956,1.453,3.34545,2.17751C356.00009,143.29384,357.11113,144.02669,358.20726,144.78516Z"/><polygon points="345.388 136.749 351.543 140.437 351.096 141.097 345.388 136.749"/><path d="M350.17164,115.51223a10.37544,10.37544,0,0,1,2.69212-1.31613,13.80033,13.80033,0,0,1,2.89926-.6704,11.28834,11.28834,0,0,1,3.01-.00333,6.18182,6.18182,0,0,1,2.85844,1.0332c-1.0232.02433-1.94535.11883-2.88066.21082l-2.79353.34134A39.919,39.919,0,0,1,350.17164,115.51223Z"/><path d="M371.88935,113.24506a9.80471,9.80471,0,0,0-4.21994,1.24993,3.59051,3.59051,0,0,0-1.583,3.459,25.8429,25.8429,0,0,0,.56549,4.43064,12.76782,12.76782,0,0,1,.297,2.34008,2.04806,2.04806,0,0,1-.36678,1.21864,1.54969,1.54969,0,0,1-1.10443.4745,1.55027,1.55027,0,0,0,.82923-.65935,1.72663,1.72663,0,0,0,.0562-.99361,21.13611,21.13611,0,0,0-.61707-2.15611,16.66438,16.66438,0,0,1-.85431-4.62544,8.42618,8.42618,0,0,1,.07543-1.25208,5.70883,5.70883,0,0,1,.16217-.633,2.017,2.017,0,0,1,.24818-.60923,3.98192,3.98192,0,0,1,1.82734-1.79921A7.21215,7.21215,0,0,1,371.88935,113.24506Z"/><path d="M360.69459,123.32452a11.47173,11.47173,0,0,1,.3452,1.13741,6.01816,6.01816,0,0,0,.24123.7056,1.41478,1.41478,0,0,0,.29286.48567c.17918.21239.47625.41882.84256.76461a1.5769,1.5769,0,0,1-1.32624.38169,1.6309,1.6309,0,0,1-1.27139-.99753,1.9175,1.9175,0,0,1-.0114-1.47144A1.822,1.822,0,0,1,360.69459,123.32452Z"/><path d="M357.63334,120.3432a1.1965,1.1965,0,0,0,0-2.39157,1.1965,1.1965,0,0,0,0,2.39157Z"/><path d="M368.53893,120.15188a1.19651,1.19651,0,0,0,0-2.39158,1.19651,1.19651,0,0,0,0,2.39158Z"/><path d="M358.58994,130.053a23.14312,23.14312,0,0,0,3.38691,1.20648,7.28,7.28,0,0,0,1.60706.20286c.57362.03246,1.16332-.05632,1.89377-.07006a3.23941,3.23941,0,0,1-1.66547,1.29308,3.67242,3.67242,0,0,1-2.19208.1276,4.24517,4.24517,0,0,1-1.90751-.99951A3.57171,3.57171,0,0,1,358.58994,130.053Z"/><path d="M371.95555,105.85014a29.84682,29.84682,0,0,1,3.79036,2.77019,20.177,20.177,0,0,1,3.30182,3.44206c.482.695.85344,1.32858,1.29706,1.93337a15.68438,15.68438,0,0,0,1.39671,1.71945c.25128.2649.51081.51946.78244.75694a8.10436,8.10436,0,0,1,.92075.872,11.9792,11.9792,0,0,1,1.37805,2.08219,8.29049,8.29049,0,0,0,.55315.87637c.22286.28356.45117.563.69338.82344a16.97835,16.97835,0,0,0,1.62525,1.49173,4.63122,4.63122,0,0,1,.97431,1.0977,3.33486,3.33486,0,0,1,.33865.74181l.17614.55689c.11006.34245.23561.65426.38631,1.0308a8.68975,8.68975,0,0,1,.40017,1.24689,18.18418,18.18418,0,0,1,.37321,2.42967l.10415,1.1794c.03357.406.04971.83765.05146,1.23975.01018,1.62466-.16251,3.177-.29888,4.73116-.34123,3.09587-.74567,6.15875-.91941,9.22222a26.79084,26.79084,0,0,0,.06573,4.55181,7.5971,7.5971,0,0,0,.57491,2.12026c.30871.69929.639,1.40308.98344,2.09576,2.71341,5.575,5.68536,11.02669,8.641,16.48779,2.97686,5.45121,5.86091,10.9547,8.57573,16.54609,2.72879,5.58448,5.40782,11.202,7.73609,16.99649,1.13513,2.90891,2.27132,5.826,3.12411,8.877a27.76108,27.76108,0,0,1,.98169,4.75227,8.45977,8.45977,0,0,1,.01339,1.33712,12.0777,12.0777,0,0,1-.223,1.26109c-.16772.77292-.34251,1.54536-.55543,2.31442a20.09714,20.09714,0,0,1-1.76489,4.50368,8.98167,8.98167,0,0,1-3.40884,3.60188,8.80676,8.80676,0,0,1-4.76286.98262,19.14076,19.14076,0,0,1-4.63222-.86344l.0548-.23275a21.90421,21.90421,0,0,0,4.574.34046,8.36519,8.36519,0,0,0,4.15257-1.24214,7.63318,7.63318,0,0,0,2.66318-3.28686,21.26665,21.26665,0,0,0,1.33724-4.24737c.1683-.73449.30239-1.48267.43-2.23207.05573-.36339.13608-.79794.14058-1.03537a6.59489,6.59489,0,0,0-.06117-.985,25.938,25.938,0,0,0-1.11121-4.30169c-.98963-2.87435-2.09886-5.74753-3.30007-8.584q-3.5767-8.526-7.43557-16.98877l-7.731-16.91328c-2.577-5.64454-5.25671-11.23856-8.12556-16.74416l-1.0642-2.08213a8.52549,8.52549,0,0,1-.74718-2.32284,28.01146,28.01146,0,0,1-.42631-4.72859c-.05848-3.14136.12667-6.26.25052-9.349.08953-1.53852.14848-3.08306.14222-4.56129-.00538-.37338-.02052-.71689-.05362-1.08361l-.10977-1.13712c-.087-.74829-.1628-1.504-.30859-2.16979a6.49719,6.49719,0,0,0-.293-.97127c-.13117-.34573-.28778-.75695-.40719-1.15554l-.16421-.55526a1.29161,1.29161,0,0,0-.13433-.31713,2.64825,2.64825,0,0,0-.56285-.63479,15.87848,15.87848,0,0,1-1.73466-1.72044c-.27274-.31965-.52216-.65157-.76432-.98858a9.9356,9.9356,0,0,1-.64812-1.114,12.0165,12.0165,0,0,0-1.09168-1.851c-.34157-.4555-1.06606-1.04315-1.561-1.68139a16.34214,16.34214,0,0,1-1.41571-1.9819c-.42005-.68455-.78069-1.42109-1.13612-2.03172a30.71454,30.71454,0,0,0-6.16881-6.72278Z"/><path d="M371.88689,204.76534c2.49629,4.418,4.81444,8.85842,7.43014,13.104a57.0884,57.0884,0,0,0,4.22544,6.11109,20.602,20.602,0,0,0,2.54107,2.66072,8.85434,8.85434,0,0,0,3.18236,1.86144,7.453,7.453,0,0,1-3.64253-1.22811,16.25676,16.25676,0,0,1-3.00545-2.46149,30.60587,30.60587,0,0,1-2.508-2.9323c-.76174-1.03151-1.46746-2.09857-2.15044-3.177a57.40786,57.40786,0,0,1-3.51463-6.771A48.15853,48.15853,0,0,1,371.88689,204.76534Z"/><path d="M393.004,224.11116a6.07514,6.07514,0,0,1-2.65967-1.48525,14.147,14.147,0,0,1-2.00716-2.28324,24.53384,24.53384,0,0,1-2.81523-5.32426,48.2159,48.2159,0,0,1-2.86008-11.547c-.41508-3.94813-.4435-7.84492-.93109-11.72815a111.90826,111.90826,0,0,0-2.10764-11.52627c-.90232-3.80644-1.79535-7.6089-2.60019-11.428-.83724-3.813-1.72484-7.61417-2.5167-11.43529l-1.14758-5.74126-.56333-2.87277a3.67387,3.67387,0,0,0-.11672-.51619,1.298,1.298,0,0,0-.19988-.365,1.431,1.431,0,0,0-.70917-.48531,17.07521,17.07521,0,0,1-5.52659-2.58377,12.65572,12.65572,0,0,1-3.92767-4.52777l.20228-.12754a15.46022,15.46022,0,0,0,9.675,5.40378,3.38465,3.38465,0,0,1,1.7808.97543,3.34219,3.34219,0,0,1,.59689.85852,4.55193,4.55193,0,0,1,.30321.88531l.746,2.84441c.4949,1.89658.92852,3.807,1.38,5.71349.8587,3.82293,1.553,7.6806,2.23073,11.53967.70192,3.85468,1.23612,7.74141,1.6829,11.638.467,3.89369.93232,7.78053,1.5853,11.641.63262,3.857,1.43881,7.73767,2.13032,11.53136a106.7089,106.7089,0,0,0,2.63692,11.22494c.28263.91378.62414,1.8005.954,2.69563.37555.87128.74514,1.74787,1.19589,2.58078a16.583,16.583,0,0,0,1.532,2.379,6.508,6.508,0,0,0,2.10576,1.83184Z"/><path d="M383.12756,132.16545a6.83849,6.83849,0,0,0-2.29821,2.03927,6.24648,6.24648,0,0,0-.71631,1.291,8.6482,8.6482,0,0,1-.66642,1.52968,4.50024,4.50024,0,0,1-2.95792,2.15255,2.72837,2.72837,0,0,1-2.09009-.46064,2.995,2.995,0,0,1-1.08916-1.80963l1.083.57462a2.48148,2.48148,0,0,1-2.72429-.96865,5.90441,5.90441,0,0,1-.995-2.135,10.97819,10.97819,0,0,1-.38175-2.15593,19.49161,19.49161,0,0,1-.09286-2.13728l.0366.14713a9.16151,9.16151,0,0,1-.41069-1.90512,4.36627,4.36627,0,0,1,.173-1.90968,5.14,5.14,0,0,0,.336,1.80073,11.79831,11.79831,0,0,0,.71835,1.65466l.01321.02579.02345.12175c.13041.67648.23351,1.35507.38684,2.0129a9.48763,9.48763,0,0,0,.24719.97542,9.60474,9.60474,0,0,0,.292.93958,5.28325,5.28325,0,0,0,.84268,1.59057,1.52718,1.52718,0,0,0,.53035.41958.695.695,0,0,0,.24783.06216c.0552.01211.20485-.01959.14672-.00438l1.0832.57467c.18731.801.61228,1.17829,1.39794,1.08115a3.362,3.362,0,0,0,2.14-1.3501,9.07077,9.07077,0,0,0,.7649-1.30606,7.14231,7.14231,0,0,1,1.06349-1.33606A5.72414,5.72414,0,0,1,383.12756,132.16545Z"/><path d="M383.12756,126.41781a6.89107,6.89107,0,0,0-3.71246.55,5.176,5.176,0,0,0-2.39377,2.72476,27.69756,27.69756,0,0,0-1.34917,3.54469c-.381,1.20846-.7187,2.44423-1.00735,3.6672l-.00228.00959a.59852.59852,0,1,1-1.165-.275c.0035-.01473.00795-.03058.01245-.04479.39853-1.24607.83332-2.45623,1.31811-3.66013a28.3944,28.3944,0,0,1,1.66518-3.52194,8.78082,8.78082,0,0,1,1.15-1.61015,4.51281,4.51281,0,0,1,1.65115-1.10771A7.03561,7.03561,0,0,1,383.12756,126.41781Z"/><path d="M370.05464,129.94952a17.52428,17.52428,0,0,1,1.10308-3.13756,12.58754,12.58754,0,0,1,1.71969-2.8185,7.71647,7.71647,0,0,1,2.54423-2.08109,6.24527,6.24527,0,0,1,3.18581-.469,6.09464,6.09464,0,0,0-3.04721.734,7.26977,7.26977,0,0,0-2.20331,2.17331,11.85512,11.85512,0,0,0-1.36846,2.7992,16.582,16.582,0,0,0-.75607,3.00668l-.00316.02164a.599.599,0,0,1-1.1853-.17362C370.04663,129.98618,370.05037,129.96718,370.05464,129.94952Z"/><path d="M370.589,120.28111a10.79236,10.79236,0,0,1,1.55512-1.85272,9.03858,9.03858,0,0,1,1.91711-1.42086,5.97949,5.97949,0,0,1,2.26921-.67286,5.37572,5.37572,0,0,1,2.277.37333,5.22,5.22,0,0,0-2.23746-.077,5.53351,5.53351,0,0,0-1.99582.886,8.299,8.299,0,0,0-1.57045,1.519,9.84325,9.84325,0,0,0-1.16378,1.81553l-.00848.0176a.59976.59976,0,1,1-1.08156-.51871A.65553.65553,0,0,1,370.589,120.28111Z"/><path d="M383.59451,137.12714l-2.62522-3.63124a32.46776,32.46776,0,0,1-3.43961,4.51275,1.88161,1.88161,0,0,1-3.20972-.57491c-.23953-1.006-.62274-.62274-.62274-.62274-2.51985-.63239-2.82645-4.73309-3.02768-6.46728-.20122-1.7246-1.10185-2.06956-1.10185-2.06956-.87186,7.30083-4.79058,10.18477-4.79058,10.18477l5.44215,7.80867a1.58378,1.58378,0,0,0,2.19406.412l10.78839-7.29125A1.60019,1.60019,0,0,0,383.59451,137.12714Zm-7.85656,4.52233a1.43808,1.43808,0,0,1,0-2.87434A1.43808,1.43808,0,0,1,375.738,141.64947Z"/><path d="M333.9089,119.33874a1.19651,1.19651,0,0,0,0-2.39158,1.19651,1.19651,0,0,0,0,2.39158Z"/><path d="M364.61674,113.62287a1.79475,1.79475,0,0,0,0-3.58736,1.79475,1.79475,0,0,0,0,3.58736Z" fill="#b21919"/><path d="M290.90777,419.92213c-.05133.00143,3.33393-28.06631,3.32928-28.01641-.21915,2.34859-3.90139,32.80288-4.28347,35.12067a42.99212,42.99212,0,0,1-1.56044,6.79917,13.44192,13.44192,0,0,1-.64372,1.56413c-.12008.25473-.25461.47841-.395.7243-.15159.27-.31858.53451-.4531.81263a16.79157,16.79157,0,0,0-1.32589,3.43885,21.23775,21.23775,0,0,0-.70961,7.29524,14.85576,14.85576,0,0,0,.74256,3.67663,8.28374,8.28374,0,0,0,2.03192,3.34861,5.70309,5.70309,0,0,0,1.71286,1.16236,5.491,5.491,0,0,0,.98785.33661l.90215.17737a16.90692,16.90692,0,0,1,3.17148,1.13419,26.09919,26.09919,0,0,0,7.09948,1.541c2.38214.23658,4.75866.30581,7.12957.31488,4.7417.00692,9.46443-.15422,14.18918-.29459q3.54294-.11172,7.08313-.29029c2.36244-.07711,4.72261-.19409,7.084-.30223,9.447-.41467,18.87383-1.16308,28.28216-2.05376l.03784-.00358a.944.944,0,0,0,.84867-.83483,2.84828,2.84828,0,0,0-.00668-.74984,4.39255,4.39255,0,0,0-.11387-.59682,5.60661,5.60661,0,0,0-.39593-1.06042,6.061,6.061,0,0,0-.53308-.93987,6.97773,6.97773,0,0,0-.62236-.84413,15.08361,15.08361,0,0,0-2.96164-2.72029,36.35155,36.35155,0,0,0-6.80478-3.71983c-1.18551-.48008-2.376-.94656-3.57767-1.36815-1.20354-.39437-2.42092-.826-3.61241-1.18838-2.39144-.7527-4.78873-1.4801-7.16227-2.26909a90.64369,90.64369,0,0,1-13.825-5.60172,22.84228,22.84228,0,0,1-5.88986-4.37681c-4.35621-3.24224-2.464-31.72222-2.56285-34.22622a4.05552,4.05552,0,0,0-.87221-.10625c-.0518.00215.39953,27.65076.39631,27.70161a10.57911,10.57911,0,0,0,2.44312,7.13505,22.38938,22.38938,0,0,0,5.87888,4.91872,78.52754,78.52754,0,0,0,13.83682,6.26156c2.37115.86228,4.74648,1.70379,7.13685,2.49039,1.2064.38626,2.34978.81549,3.5273,1.22037,1.16093.4278,2.30419.8969,3.43826,1.376a35.12337,35.12337,0,0,1,6.39918,3.4792,14.03135,14.03135,0,0,1,2.61191,2.31421,5.17661,5.17661,0,0,1,.508.65961,4.17893,4.17893,0,0,1,.41.68729,3.619,3.619,0,0,1,.27943.69326,2.46619,2.46619,0,0,1,.07078.32562c.02017.08332.0148.24613.02578.18884l.88628-.83817q-14.06936,1.56092-28.15313,2.97954c-2.34955.2108-4.69933.43066-7.05174.61043-2.35325.1671-4.70876.29458-7.06451.40989a133.23883,133.23883,0,0,1-14.134-.00454c-2.34764-.13488-4.69121-.33684-6.995-.687a25.79973,25.79973,0,0,1-6.62574-1.77732,18.15,18.15,0,0,0-3.45365-1.32589l-.47674-.09095-.35761-.07735a3.70052,3.70052,0,0,1-.68276-.23729,3.91646,3.91646,0,0,1-1.19363-.82385,9.63291,9.63291,0,0,1-2.30323-5.8889,20.81829,20.81829,0,0,1,.495-6.75047,18.28773,18.28773,0,0,1,1.09312-3.20442c.10922-.26022.24733-.502.37122-.7539.13942-.27382.29256-.56578.40978-.85226a14.69762,14.69762,0,0,0,.61567-1.74294,37.12786,37.12786,0,0,0,1.20271-7.07442c.1868-2.36936,3.52181-32.85086,3.4644-35.22141" fill="#020202"/><path d="M297.83346,433.04659a5.41572,5.41572,0,0,0-.59359,2.477,5.662,5.662,0,0,0,.56984,2.56034,5.01878,5.01878,0,0,0,1.73017,1.98811,5.39506,5.39506,0,0,0,2.38249.9117,15.32684,15.32684,0,0,1-1.88618-1.51591,6.24054,6.24054,0,0,1-1.32792-1.82626A10.22893,10.22893,0,0,1,297.83346,433.04659Z" fill="#020202"/><path d="M288.09541,453.67805s-5.6958,1.97763-2.54879,12.32009c0,0-.46083,3.84835,13.24893,3.12679l69.02989.09012s5.10967-11.294-5.50266-13.509l-17.32941,1.60392s4.31186-10.31306,3.10925-13.68037a15.97159,15.97159,0,0,0-18.25436-6.93572s.71243,16.54828-12.04335,22.20472C317.80491,458.89857,299.04227,457.954,288.09541,453.67805Z" fill="#020202"/><path d="M444.33791,419.92213c.05133.00143-3.33393-28.06631-3.32928-28.01641.21915,2.34859,3.90139,32.80288,4.28347,35.12067a42.99323,42.99323,0,0,0,1.56044,6.79917,13.44367,13.44367,0,0,0,.64372,1.56413c.12008.25473.25461.47841.395.7243.15159.27.31858.53451.4531.81263a16.79157,16.79157,0,0,1,1.32589,3.43885,21.23775,21.23775,0,0,1,.70961,7.29524,14.85576,14.85576,0,0,1-.74256,3.67663,8.28374,8.28374,0,0,1-2.03192,3.34861,5.70309,5.70309,0,0,1-1.71286,1.16236,5.491,5.491,0,0,1-.98785.33661l-.90215.17737a16.90717,16.90717,0,0,0-3.17148,1.13419,26.09919,26.09919,0,0,1-7.09948,1.541c-2.38213.23658-4.75866.30581-7.12957.31488-4.7417.00692-9.46443-.15422-14.18918-.29459q-3.54294-.11172-7.08313-.29029c-2.36244-.07711-4.72261-.19409-7.084-.30223-9.447-.41467-18.87383-1.16308-28.28216-2.05376l-.03784-.00358a.944.944,0,0,1-.84867-.83483,2.84828,2.84828,0,0,1,.00668-.74984,4.391,4.391,0,0,1,.11388-.59682,5.60591,5.60591,0,0,1,.39592-1.06042,6.061,6.061,0,0,1,.53308-.93987,6.97773,6.97773,0,0,1,.62236-.84413,15.08361,15.08361,0,0,1,2.96164-2.72029,36.35155,36.35155,0,0,1,6.80478-3.71983c1.18551-.48008,2.376-.94656,3.57767-1.36815,1.20354-.39437,2.42093-.826,3.61241-1.18838,2.39144-.7527,4.78873-1.4801,7.16227-2.26909a90.6438,90.6438,0,0,0,13.825-5.60172,22.8424,22.8424,0,0,0,5.88985-4.37681c4.35621-3.24224,2.464-31.72222,2.56285-34.22622a4.0556,4.0556,0,0,1,.87221-.10625c.0518.00215-.39953,27.65076-.39631,27.70161a10.57911,10.57911,0,0,1-2.44312,7.13505,22.38938,22.38938,0,0,1-5.87888,4.91872,78.52754,78.52754,0,0,1-13.83682,6.26156c-2.37115.86228-4.74648,1.70379-7.13685,2.49039-1.2064.38626-2.34978.81549-3.5273,1.22037-1.16093.4278-2.30419.8969-3.43826,1.376a35.12337,35.12337,0,0,0-6.39918,3.4792,14.03135,14.03135,0,0,0-2.61191,2.31421,5.17661,5.17661,0,0,0-.508.65961,4.17963,4.17963,0,0,0-.41.68729,3.619,3.619,0,0,0-.27943.69326,2.46619,2.46619,0,0,0-.07078.32562c-.02017.08332-.0148.24613-.02578.18884l-.88627-.83817q14.06934,1.56092,28.15312,2.97954c2.34955.2108,4.69933.43066,7.05174.61043,2.35325.1671,4.70876.29458,7.06451.40989a133.23883,133.23883,0,0,0,14.134-.00454c2.34764-.13488,4.69122-.33684,6.995-.687a25.79962,25.79962,0,0,0,6.62574-1.77732,18.15024,18.15024,0,0,1,3.45365-1.32589l.47674-.09095.35761-.07735a3.70052,3.70052,0,0,0,.68276-.23729,3.91634,3.91634,0,0,0,1.19363-.82385,9.63291,9.63291,0,0,0,2.30323-5.8889,20.81829,20.81829,0,0,0-.495-6.75047,18.28773,18.28773,0,0,0-1.09312-3.20442c-.10922-.26022-.24732-.502-.37122-.7539-.13942-.27382-.29256-.56578-.40978-.85226a14.69762,14.69762,0,0,1-.61567-1.74294,37.12786,37.12786,0,0,1-1.20271-7.07442c-.1868-2.36936-3.52181-32.85086-3.4644-35.22141Z" fill="#020202"/><path d="M437.41222,433.04659a5.41572,5.41572,0,0,1,.59359,2.477,5.66214,5.66214,0,0,1-.56983,2.56034,5.01886,5.01886,0,0,1-1.73017,1.98811,5.39515,5.39515,0,0,1-2.38249.9117,15.32747,15.32747,0,0,0,1.88617-1.51591,6.24054,6.24054,0,0,0,1.32792-1.82626A10.22893,10.22893,0,0,0,437.41222,433.04659Z" fill="#020202"/><path d="M447.15027,453.67805s5.6958,1.97763,2.54879,12.32009c0,0,.46083,3.84835-13.24893,3.12679l-69.02989.09012s-5.10967-11.294,5.50266-13.509l17.32941,1.60392s-4.31186-10.31306-3.10924-13.68037a15.97157,15.97157,0,0,1,18.25435-6.93572s-.71243,16.54828,12.04335,22.20472C417.44077,458.89857,436.20341,457.954,447.15027,453.67805Z" fill="#020202"/><rect x="435.66527" y="313.61432" width="46.63048" height="0.79718"/><rect x="217.97841" y="313.61432" width="86.08351" height="0.79718"/><rect x="445.08642" y="369.52233" width="37.20932" height="0.79718"/><rect x="354.80742" y="369.52233" width="37.20932" height="0.79718"/><rect x="217.97841" y="369.52233" width="72.55761" height="0.79718"/><rect x="445.08642" y="422.63506" width="37.20932" height="0.79718"/><rect x="317.6243" y="422.63506" width="99.99677" height="0.79718"/><rect x="217.97841" y="422.63506" width="72.55761" height="0.79718"/><rect x="214.57723" y="331.2256" width="24.88303" height="0.79754" transform="translate(-165.82864 246.87082) rotate(-43.4313)"/><rect x="214.57723" y="342.9031" width="24.88303" height="0.79754" transform="translate(-173.85674 250.06813) rotate(-43.4313)"/><rect x="227.27027" y="341.56792" width="24.88235" height="0.79754" transform="translate(-169.46355 258.42858) rotate(-43.4313)"/><rect x="242.0585" y="337.4075" width="24.88303" height="0.79754" transform="translate(-162.55421 267.45637) rotate(-43.4313)"/><rect x="238.49351" y="385.6679" width="24.88235" height="0.79754" transform="translate(-196.70866 278.21899) rotate(-43.4313)"/><rect x="238.49351" y="397.34587" width="24.88235" height="0.79754" transform="translate(-204.73708 281.41642) rotate(-43.4313)"/><rect x="251.18586" y="396.01068" width="24.88303" height="0.79754" transform="translate(-200.3439 289.77688) rotate(-43.4313)"/><rect x="265.97396" y="391.85027" width="24.88303" height="0.79754" transform="translate(-193.43469 298.80434) rotate(-43.4313)"/><polygon points="442.788 408.481 442.52 408.194 442.118 408.198 442.118 408.017 445.669 404.664 446.218 405.243 442.788 408.481"/><rect x="443.18522" y="417.33385" width="3.19703" height="0.79717" transform="translate(-165.38716 422.67575) rotate(-43.66778)"/><rect x="448.92537" y="418.7685" width="11.25613" height="0.79754" transform="matrix(0.7262, -0.68748, 0.68748, 0.7262, -163.71384, 427.26664)"/><rect x="444.46298" y="427.78133" width="1.11121" height="0.79643" transform="translate(-172.45701 418.02312) rotate(-42.95289)"/><rect x="458.48505" y="416.68783" width="17.31256" height="0.79754" transform="matrix(0.7262, -0.68748, 0.68748, 0.7262, -158.83684, 435.35094)"/><rect x="441.29882" y="335.7294" width="24.88303" height="0.79754" transform="translate(-106.84839 403.97149) rotate(-43.4313)"/><rect x="441.29882" y="347.4069" width="24.88303" height="0.79754" transform="translate(-114.87649 407.1688) rotate(-43.4313)"/><rect x="453.99105" y="346.07218" width="24.88303" height="0.79754" transform="translate(-110.48375 415.52906) rotate(-43.4313)"/><path d="M271.02377,246.01723c.08941-7.85182.63168-15.65908,1.25407-23.459.33456-3.89772.68584-7.79393,1.09642-11.68469.37777-3.89474.88554-7.77317,1.28922-11.67551.21579,3.92392.12193,7.854-.04842,11.7665-.15824,3.91615-.4421,7.82183-.74923,11.72528C273.19163,230.49136,272.36188,238.27915,271.02377,246.01723Z"/><path d="M376.0214,157.68709c-.67327.45081-1.341.88759-1.96746,1.35337a6.08516,6.08516,0,0,0-1.54694,1.51946c-.15777.282-.14344.43444-.05678.521a1.37152,1.37152,0,0,0,.65467.40239,11.29988,11.29988,0,0,0,2.15716.44193,22.199,22.199,0,0,0,4.72415.1938,21.93318,21.93318,0,0,0,4.672-.965c1.51887-.48467,3.01353-1.01145,4.48959-1.55279a32.71256,32.71256,0,0,0,4.22392-1.94857,7.01673,7.01673,0,0,0,1.71758-1.24588.99815.99815,0,0,0,.26385-.50187c.01737-.08959-.16491-.31561-.46157-.46882a7.153,7.153,0,0,0-2.12634-.66268c-.77145-.14123-1.56431-.24526-2.36623-.33731l-.005-.14362a13.97634,13.97634,0,0,1,2.43348-.24339,7.14149,7.14149,0,0,1,2.54283.3614,1.94125,1.94125,0,0,1,1.21554,1.14232,2.03485,2.03485,0,0,1-.40088,1.71384,7.38111,7.38111,0,0,1-2.03845,1.70863,21.51819,21.51819,0,0,1-4.55988,1.90459,27.70792,27.70792,0,0,1-4.75549,1.04174l-4.7918.6604a32.20748,32.20748,0,0,1-4.86315.53637,7.18389,7.18389,0,0,1-2.54242-.45274,2.446,2.446,0,0,1-1.2449-.98139,1.41352,1.41352,0,0,1-.15614-.96905,1.92967,1.92967,0,0,1,.33935-.76081,5.55735,5.55735,0,0,1,2.08471-1.56782,11.70324,11.70324,0,0,1,2.30675-.8311Z"/><path d="M376.99583,162.87562c-.6256.46824-1.251.91811-1.80278,1.41425a5.92189,5.92189,0,0,0-.72812.77461,1.10177,1.10177,0,0,0-.28146.69256c.00795.21994.64619.57286,1.32741.69783.68876.13935,1.42489.21824,2.16769.296a24.52636,24.52636,0,0,0,4.572.10561,21.22324,21.22324,0,0,0,4.4993-.97227c1.46138-.48064,2.89984-.998,4.32193-1.52442a33.82652,33.82652,0,0,0,4.07614-1.88167,7.70932,7.70932,0,0,0,1.6884-1.18967,2.19373,2.19373,0,0,0,.26456-.31686c.02924-.08649.098-.18333.08035-.22269.05666-.08637-.03883-.25777-.29082-.43561a5.79823,5.79823,0,0,0-1.9812-.71818c-.73818-.15537-1.5005-.273-2.27254-.37841l-.00275-.14368a12.86265,12.86265,0,0,1,2.355-.20053,6,6,0,0,1,2.4685.46128,2.11127,2.11127,0,0,1,.63233.46965,1.36924,1.36924,0,0,1,.37152.87449,1.82741,1.82741,0,0,1-.16427.892,3.40525,3.40525,0,0,1-.40344.62532,7.88,7.88,0,0,1-1.97822,1.60986,21.35794,21.35794,0,0,1-4.401,1.83208,26.889,26.889,0,0,1-4.58725,1.01373c-1.5463.22742-3.08487.4187-4.61824.66794a38.34324,38.34324,0,0,1-4.67193.62754,9.39206,9.39206,0,0,1-2.426-.25468,4.71524,4.71524,0,0,1-1.24191-.501,1.73913,1.73913,0,0,1-.89888-1.39957,1.97124,1.97124,0,0,1,.66812-1.362,4.88965,4.88965,0,0,1,1.00367-.757,9.33127,9.33127,0,0,1,2.19068-.92555Z"/></svg>