<svg id="Layer_1" data-name="Layer 1" xmlns="http://www.w3.org/2000/svg" viewBox="0 0 700 550"><title>doing yoga</title><path d="M340.49079,146.66523a18.348,18.348,0,0,0,2.70947-2.39282,21.44356,21.44356,0,0,0,2.1941-2.85022,24.19014,24.19014,0,0,0,1.717-3.155,26.20321,26.20321,0,0,0,1.24194-3.34229l.10913-.38153.39917.05561a2.17168,2.17168,0,0,0,1.69434-.49347,4.99641,4.99641,0,0,0,1.229-1.56443,15.55233,15.55233,0,0,0,1.35718-3.99389l-.00586.12921a18.42419,18.42419,0,0,0-.45679-3.01306,4.99407,4.99407,0,0,0-1.26782-2.50412,2.19021,2.19021,0,0,0-2.50952-.05832,8.80847,8.80847,0,0,0-2.37964,1.82812l-.0376.03949-.02539.0152a10.267,10.267,0,0,1-7.32226,1.11136,22.97423,22.97423,0,0,1-6.92139-2.74075,46.08592,46.08592,0,0,1-6.14331-4.22211,54.70776,54.70776,0,0,1-5.48926-5.07062l.84717-.14255a59.408,59.408,0,0,0-2.92578,10.67347,38.062,38.062,0,0,0-.56421,10.96908,17.2101,17.2101,0,0,0,4.07837,9.89752,17.93279,17.93279,0,0,0,9.62768,5.02036l-.0188.11322a21.83955,21.83955,0,0,1-5.44458-1.43417,15.324,15.324,0,0,1-4.73706-3.15125,17.808,17.808,0,0,1-4.64721-10.308,38.59306,38.59306,0,0,1,.51416-11.32413,59.3777,59.3777,0,0,1,3.18066-10.84473l.30444-.75522.543.61268a62.69538,62.69538,0,0,0,5.22241,5.161,43.15447,43.15447,0,0,0,5.88331,4.41241,20.83535,20.83535,0,0,0,6.75634,2.78009,9.34679,9.34679,0,0,0,6.9502-1.23706l-.06275.05444a9.392,9.392,0,0,1,2.48-2.09762,4.06324,4.06324,0,0,1,1.64234-.52072,2.54383,2.54383,0,0,1,1.74121.542,5.3833,5.3833,0,0,1,1.65991,2.93225,19.42023,19.42023,0,0,1,.53247,3.179l.00611.0635-.01221.0661a14.36861,14.36861,0,0,1-1.50147,4.29059,5.91661,5.91661,0,0,1-1.51171,1.83252,3.09969,3.09969,0,0,1-2.41675.63489l.50781-.32574a20.728,20.728,0,0,1-1.39917,3.45,24.87958,24.87958,0,0,1-1.91235,3.16531,17.80374,17.80374,0,0,1-2.41944,2.786,16.01491,16.01491,0,0,1-2.9353,2.20535Z"/><path d="M320.8933,129.496a.8614.8614,0,0,0,0-1.72177.8614.8614,0,0,0,0,1.72177Z"/><path d="M331.84375,128.463a.8614.8614,0,0,0,0-1.72177.8614.8614,0,0,0,0,1.72177Z"/><path d="M322.75275,136.79633a7.52679,7.52679,0,0,0,3.94776,2.256,10.18032,10.18032,0,0,0,2.28442.17664,20.94375,20.94375,0,0,0,2.34229-.26321c-.363.16388-.73975.30236-1.11817.44455-.3916.08535-.781.20724-1.18384.2583a7.192,7.192,0,0,1-2.44506-.05545,6.13366,6.13366,0,0,1-2.24317-.99945A4.8809,4.8809,0,0,1,322.75275,136.79633Z"/><path d="M318.09382,123.51014a3.81289,3.81289,0,0,1,1.12793-.44174,5.14844,5.14844,0,0,1,1.20044-.14637,4.44081,4.44081,0,0,1,2.33056.58811c-.41162.01572-.79492-.01758-1.18139-.01337l-1.14527-.00116-1.14892.00873C318.89,123.50785,318.50227,123.52113,318.09382,123.51014Z"/><path d="M328.33137,123.51014a3.85289,3.85289,0,0,1,1.10205-.503,4.90724,4.90724,0,0,1,1.19824-.205,4.21027,4.21027,0,0,1,1.22168.13419,2.69586,2.69586,0,0,1,1.08276.57382,11.57275,11.57275,0,0,0-1.15478-.13828c-.37866-.00415-.75049-.01483-1.12744.00342-.37744.00965-.75489.047-1.14087.064C329.12727,123.46461,328.73981,123.49937,328.33137,123.51014Z"/><path d="M323.9925,130.90787a2.78867,2.78867,0,0,0,.32544,2.16025,2.41431,2.41431,0,0,0,.8855.58463c.363.13711.75415.22458,1.165.35431-.20557.0542-.416.07122-.63086.10724-.21265-.00046-.42945-.01621-.64893-.03525a2.06066,2.06066,0,0,1-1.2102-.64237,1.72911,1.72911,0,0,1-.3711-1.33468A2.33766,2.33766,0,0,1,323.9925,130.90787Z"/><path d="M353.64134,128.63515c6.92151-17.35543-4.44216-23.76041-4.44216-23.76041-25.10339-7.748-28.237,8.8499-28.237,8.8499S335.976,130.87345,346.3066,124.744c0,0,4.69119-6.068,6.73611.40951Z"/><path d="M304.51447,248.15021q1.25757-7.48068,2.36792-14.98446c.72168-5.0026,1.43457-10.01337,1.89868-15.03452a37.55759,37.55759,0,0,0,.17847-3.75183,6.4494,6.4494,0,0,0-.07031-.8974,1.2416,1.2416,0,0,0-.10816-.36938,3.4573,3.4573,0,0,0-.20776-.38278,18.10019,18.10019,0,0,0-1.09058-1.50327,20.04317,20.04317,0,0,1-3.7207-6.70911,20.55093,20.55093,0,0,1-.73974-7.6568,35.11655,35.11655,0,0,1,1.5371-7.51223l.31861.56668a267.25871,267.25871,0,0,0-31.07862-4.20032c-10.432-.92358-20.89489-1.49451-31.36438-1.88171-10.4746-.38071-20.95959-.78238-31.42626-1.4314-10.46619-.67294-20.93384-1.34244-31.33411-2.89288l.16553-.04663a12.85617,12.85617,0,0,1-4.511,1.85668,33.80473,33.80473,0,0,1-4.775.784,65.12251,65.12251,0,0,1-9.64759.175c-1.59009-.04691-3.19555-.01614-4.78735.06824a24.10346,24.10346,0,0,0-4.70044.62478,7.33232,7.33232,0,0,0-1.09839.40912,1.65933,1.65933,0,0,1-1.40662-.043,2.75245,2.75245,0,0,1-1.26611-2.27215,4.01558,4.01558,0,0,1,.62085-2.486,4.37019,4.37019,0,0,1,1.97705-1.62464l.08533.6229-14.67822-1.78882-.25257-.03076-.07177-.231a3.70171,3.70171,0,0,1-.14283-1.67227,2.71165,2.71165,0,0,1,.778-1.54,4.66255,4.66255,0,0,1,3.03882-1.06476c1.95776-.1333,3.95-.3594,5.92614-.5657l11.87976-1.31852,11.88892-1.28274c3.97229-.39975,7.91882-.83887,11.94055-1.07492,3.97315-.11444,7.93811-.44565,11.9137-.72238l11.9187-.892,23.83716-1.83844c15.87732-1.3949,31.82141-2.17719,47.72314-3.15219,15.91492-.91269,31.82007-1.94275,47.74854-2.67838l-.0105.00086a5.28241,5.28241,0,0,0,3.98511-2.92569,8.31958,8.31958,0,0,0,.29614-5.12567l.11206-.02445a8.47272,8.47272,0,0,1-.22241,5.23435,5.19156,5.19156,0,0,1-1.66944,2.07754,5.87619,5.87619,0,0,1-2.4663,1.05505l-.00171.00031-.009.00061-47.70959,3.215-23.85413,1.63464c-3.984.27261-7.94092.5314-11.91235.89032L228.4,164.72163l-23.83826,1.87948-11.92627.86948c-3.97522.25894-7.95837.57376-11.95349.67139-3.93591.21337-7.91711.63586-11.87524,1.01708l-11.88928,1.22446L145.0207,171.588c-1.98889.18784-3.95972.39392-5.97937.5119a3.888,3.888,0,0,0-2.50537.80487,2.32259,2.32259,0,0,0-.45935,2.35788l-.3241-.26153,14.66028,1.93017,1.18286.15573-1.09741.46729a3.72621,3.72621,0,0,0-1.7024,1.36584,3.39573,3.39573,0,0,0-.5382,2.09842,2.18394,2.18394,0,0,0,.92932,1.78937,1.06065,1.06065,0,0,0,.91894.02533,7.97761,7.97761,0,0,1,1.15723-.42026,24.56116,24.56116,0,0,1,4.82776-.61276c1.61243-.07428,3.21863-.09451,4.8352-.036a64.65622,64.65622,0,0,0,9.58472-.10819,33.38066,33.38066,0,0,0,4.72-.74176,12.69325,12.69325,0,0,0,4.35071-1.73556l.08423-.06058.08166.01382c5.14893.8715,10.38636,1.31614,15.60242,1.75638q7.83453.6232,15.6864,1.01685c10.47.51575,20.944.77945,31.42713,1.04083q15.73077.41542,31.42639,1.7449a267.7906,267.7906,0,0,1,31.20019,4.35889l.46436.09986-.14527.46707a34.27952,34.27952,0,0,0-1.53222,7.31488,19.73924,19.73924,0,0,0,.6289,7.3616,19.29781,19.29781,0,0,0,3.53,6.51138,18.53286,18.53286,0,0,1,1.11719,1.57865,4.08,4.08,0,0,1,.23877.45315,1.92,1.92,0,0,1,.15405.53772,7.1093,7.1093,0,0,1,.06885.99249,38.12051,38.12051,0,0,1-.22144,3.82059c-.50683,5.0488-1.30981,10.04523-2.12695,15.03851q-1.24218,7.487-2.63867,14.9448Z"/><path d="M226.55122,395.82023a49.37009,49.37009,0,0,0-.90772,26.37131l.91785,3.22223a22.08672,22.08672,0,0,1,.54138,3.35752,14.95071,14.95071,0,0,1-.79395,6.766,8.35136,8.35136,0,0,1-1.92065,2.91562,8.155,8.155,0,0,1-2.99255,1.81735,15.3786,15.3786,0,0,1-6.83033.51588l.06165.00382-33.19544.162c-11.06506.07727-22.13049.03-33.19567.05042l-.37378.00069-.1084-.32367a5.19219,5.19219,0,0,1,.23718-3.88322,7.13744,7.13744,0,0,1,2.5282-2.82276,11.89312,11.89312,0,0,1,1.61206-.92772c.56189-.23933,1.13257-.50192,1.682-.70089l3.312-1.30458c4.40417-1.76826,8.7633-3.654,13.02612-5.73739a103.67539,103.67539,0,0,0,12.366-7.00164,48.23212,48.23212,0,0,0,5.59094-4.35431,18.80329,18.80329,0,0,0,4.34192-5.51707l-.01294.0532q.20124-3.1625.27295-6.33569c.01977-1.05693.025-2.11415.00317-3.17108a19.80169,19.80169,0,0,0-.27014-3.15607,19.84011,19.84011,0,0,1,.34522,3.15338c.047,1.05765.06677,2.11636.07214,3.175q.00567,3.17631-.12329,6.35106l-.0011.0273-.012.02627a19.16784,19.16784,0,0,1-4.293,5.73454,44.32522,44.32522,0,0,1-5.56824,4.51633,104.35516,104.35516,0,0,1-12.35535,7.21538q-6.38946,3.21789-13.01562,5.925l-3.3208,1.325a14.11138,14.11138,0,0,0-3.07959,1.53267,6.13665,6.13665,0,0,0-2.17127,2.42124,4.21252,4.21252,0,0,0-.2052,3.06336l-.48193-.32279c11.06519-.03737,22.13013-.14245,33.19544-.123l33.1958-.01136h.03064l.03137.00385a14.50046,14.50046,0,0,0,6.42151-.386,7.18389,7.18389,0,0,0,4.47607-4.20664,14.2359,14.2359,0,0,0,.82642-6.41533,21.43552,21.43552,0,0,0-.48084-3.258l-.87488-3.23353A47.776,47.776,0,0,1,223.987,408.9528,49.32156,49.32156,0,0,1,226.55122,395.82023Z"/><path d="M521.10065,392.78893l9.4148,10.28739c1.56006,1.71769,3.15332,3.42023,4.64966,5.2098q2.25073,2.67505,4.35718,5.4656,4.21581,5.57434,7.99926,11.45575c1.259,1.97245,2.49927,3.90048,3.69532,5.958a6.42764,6.42764,0,0,1-3.8335,9.18576c-.30884.07149-.62036.13979-.93237.19429l-.94165.061-1.74244.01471-6.96948.04946-13.9397.03217-6.97.01607-1.74267.004a3.88876,3.88876,0,0,1-1.92676-.37181A3.40842,3.40842,0,0,1,510.39,436.982a3.77628,3.77628,0,0,1,.25464-.96478c.11377-.27411.22632-.54875.35132-.81784.24072-.54251.51318-1.07.79468-1.592a21.59238,21.59238,0,0,1,1.97168-2.95722,20.44591,20.44591,0,0,1,5.292-4.68881l.01977-.01217.02979-.01362a3.56737,3.56737,0,0,0,1.95215-1.83977,1.99075,1.99075,0,0,0-.0896-1.27159c-.11377-.2-.21729-.40733-.34766-.60213l-.45752-.55487a16.86609,16.86609,0,0,0-2.34936-1.84229c-.8396-.5808-1.65943-1.18717-2.47242-1.80115-3.24218-2.469-6.34546-5.10757-9.32153-7.87945,3.09717,2.63349,6.26563,5.18582,9.56836,7.54361.82739.58619,1.66064,1.1641,2.51025,1.71447a15.98258,15.98258,0,0,1,2.48877,1.85285l.52393.61192c.156.222.28906.46938.42505.7094a2.62564,2.62564,0,0,1,.14184,1.70772,4.18978,4.18978,0,0,1-2.2976,2.30021l.04931-.0256a19.66778,19.66778,0,0,0-5.00757,4.60428,20.70934,20.70934,0,0,0-1.83862,2.87142c-.2605.50573-.51245,1.016-.73315,1.54033-.11524.26-.218.52522-.32227.78964a2.79537,2.79537,0,0,0-.17749.71755,2.43971,2.43971,0,0,0,1.31812,2.38813,2.85753,2.85753,0,0,0,1.46045.25367l1.7434-.01475,6.97412-.059,13.94825-.118,6.97461-.02561,1.7434-.00406.79786-.04643.77392-.15612a5.3637,5.3637,0,0,0,3.22608-7.64947c-1.1272-1.96572-2.38843-3.95964-3.61866-5.91136-2.49853-3.90712-5.04077-7.79-7.783-11.53021q-2.05077-2.80827-4.23315-5.51616c-1.46-1.79827-3.00146-3.53012-4.50732-5.30543Z"/><path d="M348.84309,135.046a59.62616,59.62616,0,0,0,.00634,9.51864,35.356,35.356,0,0,0,.69922,4.69416,16.9831,16.9831,0,0,0,1.5647,4.42752,7.95341,7.95341,0,0,0,1.34668,1.87344,5.198,5.198,0,0,0,1.854,1.28067,5.38065,5.38065,0,0,0,1.08057.31839c.38184.05216.77393.08145,1.16016.12381a9.23887,9.23887,0,0,0,1.17114.04486c.39209-.00354.78271.02176,1.17651-.01526,3.146-.1647,6.28443-.72906,9.44092-1.15942a84.48236,84.48236,0,0,1,19.12329-.80209,87.22028,87.22028,0,0,1,9.51025,1.26165c3.115.59974,6.24732,1.08322,9.39722,1.41178a93.669,93.669,0,0,0,9.48194.51291l9.54565.14346,19.09106.31039,38.18067.72562-.01587.0004c5.67017-.28272,11.34106-.36972,17.01318-.2952,5.67017.07623,11.34424.26672,16.99707.79617a81.2342,81.2342,0,0,1,16.74805,3.05039,22.63647,22.63647,0,0,1,3.99268,1.57892,9.345,9.345,0,0,1,1.83667,1.19723,2.50617,2.50617,0,0,1,.72143.96005,1.05009,1.05009,0,0,1,.01563.71647,1.32539,1.32539,0,0,1-.40186.55508,5.17036,5.17036,0,0,1-2.103.81619,19.15844,19.15844,0,0,1-2.13867.30091c-1.42627.12912-2.85132.16912-4.27466.18075l.03467-.0018-8.98315.972.16723-.70124a11.11433,11.11433,0,0,1,1.52564,1.20474,5.05554,5.05554,0,0,1,1.21387,1.61738,1.97491,1.97491,0,0,1,.14013,1.14746,1.75681,1.75681,0,0,1-.615.99875,4.68415,4.68415,0,0,1-1.83716.88433,18.436,18.436,0,0,1-3.79028.54352c-1.27515.07849-2.5105.0412-3.76514.05924l.26587-.08643a5.21444,5.21444,0,0,1-1.97851.62521,11.55945,11.55945,0,0,1-1.93872.09967,22.52029,22.52029,0,0,1-3.7876-.45962c-1.23828-.26056-2.45874-.58389-3.65991-.96036-1.20215-.37445-2.38135-.80752-3.55518-1.254l.24243.03391-58.17676,5.86145-29.0957,2.857-29.1062,2.74991.05-.00809a21.17988,21.17988,0,0,0-6.08374,2.54963,10.07588,10.07588,0,0,0-4.249,4.79425,10.6202,10.6202,0,0,0-.47168,3.2247c-.03516,1.14425-.16822,2.27191-.30372,3.39438-.27832,2.2449-.61035,4.47131-.85717,6.70629a53.75782,53.75782,0,0,0,.01538,13.4332,42.35208,42.35208,0,0,0,3.9209,12.8483l-.10254.05133a42.58676,42.58676,0,0,1-4.17725-12.84656,51.78253,51.78253,0,0,1-.22168-13.54532c.22608-2.25.5376-4.488.792-6.72085.124-1.11588.24414-2.2331.26685-3.34293a11.35228,11.35228,0,0,1,.47925-3.43957,10.79575,10.79575,0,0,1,4.49463-5.20313,21.92566,21.92566,0,0,1,6.31494-2.717l.01831-.00482.032-.00333,29.07788-3.03525,29.08862-2.92816,58.1919-5.7088.12256-.012.12011.046c1.15284.441,2.30567.88061,3.47852,1.25714,1.17114.3793,2.35693.70492,3.55273.96857a21.594,21.594,0,0,0,3.61329.47457,10.64849,10.64849,0,0,0,1.78711-.0736,4.76867,4.76867,0,0,0,1.574-.44352l.14771-.086.1184-.00058c1.24048-.00592,2.50244.04181,3.72-.02289a17.66467,17.66467,0,0,0,3.61231-.47916,3.94793,3.94793,0,0,0,1.52075-.69363.9613.9613,0,0,0,.27515-1.22974,6.91731,6.91731,0,0,0-2.41309-2.48273l-.86059-.59991,1.02758-.10144,8.9917-.88754.01856-.00183h.0166c1.41016.0018,2.8208-.025,4.2185-.13831a17.84649,17.84649,0,0,0,2.07081-.27365,4.72256,4.72256,0,0,0,1.8374-.67328.50152.50152,0,0,0,.20825-.609,1.97677,1.97677,0,0,0-.54932-.71341,8.8092,8.8092,0,0,0-1.71045-1.12671,22.095,22.095,0,0,0-3.89209-1.56695,80.75932,80.75932,0,0,0-16.62158-3.13806c-5.63208-.552-11.29516-.82224-16.95849-.87687-5.66309-.04663-11.332.06852-16.98291.37818l-.00806.00042-.00806-.00006-38.18676-.28451-19.09253-.19467c-6.35059-.13324-12.74366.07428-19.11939-.67255-3.17895-.34668-6.34009-.85013-9.47168-1.46851a86.31744,86.31744,0,0,0-9.40039-1.29211,87.6987,87.6987,0,0,0-18.9563.63373c-3.15161.39172-6.29931.92319-9.51587,1.05511-.3999.03266-.80591.00309-1.209.00177a9.7,9.7,0,0,1-1.21094-.06067c-.40381-.04858-.80615-.08361-1.21045-.14422a5.95309,5.95309,0,0,1-1.199-.36731A5.63439,5.63439,0,0,1,352.074,155.929a8.45858,8.45858,0,0,1-1.39135-2.01376,17.41023,17.41023,0,0,1-1.51954-4.57352,35.64948,35.64948,0,0,1-.614-4.75412,59.83145,59.83145,0,0,1,.17969-9.5534Z"/><path d="M323.786,157.8708a43.9539,43.9539,0,0,0,1.03979,6.6155,26.30678,26.30678,0,0,0,2.1958,6.23447,11.06369,11.06369,0,0,0,4.238,4.69711,8.49127,8.49127,0,0,0,6.13721.60868,17.48723,17.48723,0,0,0,5.90429-2.60825,23.68936,23.68936,0,0,0,4.65381-4.592,30.96926,30.96926,0,0,0,3.366-5.71112,37.56959,37.56959,0,0,0,2.32056-6.27606A31.70475,31.70475,0,0,1,348.67,169.34437a22.48833,22.48833,0,0,1-4.73486,4.95657,18.30049,18.30049,0,0,1-6.28858,2.84522,9.53009,9.53009,0,0,1-6.91357-.78107,11.51393,11.51393,0,0,1-4.49854-5.25348A31.02585,31.02585,0,0,1,323.786,157.8708Z"/><path d="M364.0843,157.113c-.39942,1.67783-.749,3.36-.99976,5.05774-.2832,1.69013-.50049,3.38922-.62646,5.09214a44.06472,44.06472,0,0,0,.26074,10.16482,24.36321,24.36321,0,0,0,3.35571,9.4444,20.46654,20.46654,0,0,0,7.46875,6.78171,19.73244,19.73244,0,0,1-4.54663-2.5131,19.46547,19.46547,0,0,1-3.65259-3.7727,22.61272,22.61272,0,0,1-3.759-9.766,36.8624,36.8624,0,0,1-.001-10.43177A44.163,44.163,0,0,1,364.0843,157.113Z"/><path d="M304.9842,189.48246a137.23686,137.23686,0,0,1,5.16626-16.24176c1.04468-2.64465,2.11133-5.28366,3.37207-7.843a28.28461,28.28461,0,0,1,4.57129-7.20706,20.93518,20.93518,0,0,0-2.05835,3.69568c-.61621,1.26642-1.14282,2.58133-1.696,3.87875-1.083,2.60843-2.09814,5.25022-3.11889,7.88867l-3.061,7.92612Q306.63129,185.54736,304.9842,189.48246Z"/><path d="M427.28575,335.64059c.01938.00963.03875.029.058.03869.01937.029.04843.05807.06769.08713Z"/><path d="M490.93611,353.94113c-12.39721-12.38747-50.82738-32.22678-50.82738-32.22678a17.52154,17.52154,0,0,1,2.44849,3.60008,17.0846,17.0846,0,0,1,1.587,4.04528,19.51158,19.51158,0,0,1-4.03553-7.64536l-59.09219-73.96678-4.684-15.01015a136.99626,136.99626,0,0,1-25.95558,6.097c6.66784,7.868,13.17124,15.8521,19.64569,23.87491,6.45508,8.04218,12.91,16.10373,19.13287,24.34917,6.25176,8.21637,12.40678,16.50049,18.80385,24.61042q9.58072,12.09234,19.38438,24.01041,10.931,7.96959,21.76529,16.065c7.25829,5.38081,14.50689,10.781,21.69736,16.26824,7.20017,5.45824,14.32307,11.03262,21.48449,16.54893,7.11321,5.57437,14.23588,11.13906,21.2716,16.82956a.0934.0934,0,0,1,.00969.13544.09158.09158,0,0,1-.1257.01938c-7.4036-5.19693-14.71989-10.51-22.03618-15.81342-7.27766-5.37112-14.59407-10.68418-21.8233-16.10367-7.25828-5.3905-14.43907-10.87775-21.6201-16.37474q-10.78572-8.21634-21.48448-16.53918l-.01938-.01938a.55311.55311,0,0,1-.10632-.10644q-9.33423-12.35363-18.85229-24.562c-6.37758-8.11962-12.99722-16.05536-19.52-24.05879-6.54214-7.97442-12.8616-16.14242-19.17149-24.31041-6.29052-8.18737-12.5424-16.40375-18.6296-24.74593a.05328.05328,0,0,1-.01938-.04838c-28.6557,3.63877-43.10447-5.54537-43.10447-5.54537l-2.48723,14.84564-77.27654,23.5459c-22.30713,8.68089-21.37811,13.56812-28.51058,24.17492-7.39379,11.01324-6.38727,99.93211-6.38727,99.93211h.04838s23.7104,7.72279,34.09458,0q-.07257.27581-.1742.55163l.18388-.55163c12.823-39.79477,10.10354-61.79226,9.29059-71.34416-.63871-7.42279,2.14848-10.27773,3.47432-11.19712a9.48817,9.48817,0,0,1-2.00329.64845,7.42092,7.42092,0,0,1-2.85494.07737,7.44635,7.44635,0,0,1,2.66137-1.02583,7.6167,7.6167,0,0,1,2.85494-.07738s38.14948-8.33256,69.76674-12.04877c31.60734-3.726,50.19819,13.01654,50.19819,13.01654L506.014,410.13963s15.08753-10.74224,15.08753-17.35213C521.10148,392.7875,503.3332,366.33828,490.93611,353.94113ZM219.36,295.4587a9.69937,9.69937,0,0,1-.571,1.40328l-.71615,1.35484a12.07482,12.07482,0,0,1-.85164,1.26778,18.27017,18.27017,0,0,1-1.98392,2.342,21.88534,21.88534,0,0,1-2.40974,1.92586,19.42387,19.42387,0,0,1-5.54531,2.57424,18.18237,18.18237,0,0,1-6.01957.71614,28.43822,28.43822,0,0,0,5.78725-1.43228,22.98772,22.98772,0,0,0,5.23568-2.66137,19.7879,19.7879,0,0,0,2.32267-1.79035,22.12263,22.12263,0,0,0,2.01293-2.1388,26.80205,26.80205,0,0,0,3.24207-4.99368C219.70837,294.50061,219.53418,294.9845,219.36,295.4587Z"/><line x1="492.85209" y1="401.46664" x2="224.96208" y2="401.46664" fill="none" stroke="#000" stroke-miterlimit="10" stroke-width="0.57392"/><polyline points="534.439 401.467 590.779 452.706 109.221 452.706 192.495 401.467" fill="none" stroke="#000" stroke-miterlimit="10" stroke-width="0.57392"/><path d="M346.2288,104.04666s5.65633-13.11824,16.8134-2.78763-6.46346,18.02818-7.32568,14.46564"/><polygon points="150.372 176.967 158.017 177.254 150.372 177.541 150.372 176.967"/><polygon points="522.076 170.738 513.502 170.164 522.076 169.59 522.076 170.738"/><path d="M309.11628,213.03626a3.06944,3.06944,0,0,0,.91479.77463,3.56176,3.56176,0,0,0,1.07984.4422,6.29817,6.29817,0,0,0,2.32959.08685,14.38837,14.38837,0,0,0,2.33471-.5188c.7754-.23043,1.5293-.52984,2.31861-.78488-.33911.23483-.69751.4379-1.04932.65946-.36059.20208-.74512.35836-1.11938.54068a12.2214,12.2214,0,0,1-1.17749.42443,11.0636,11.0636,0,0,1-1.23828.24854,5.32519,5.32519,0,0,1-2.53-.237A3.12437,3.12437,0,0,1,309.11628,213.03626Z"/><path d="M341.27937,213.03626a3.06932,3.06932,0,0,0,.91479.77463,3.55663,3.55663,0,0,0,1.07983.4422,6.29818,6.29818,0,0,0,2.32959.08685,14.38825,14.38825,0,0,0,2.33472-.5188c.77539-.23043,1.5293-.52984,2.3186-.78488-.33911.23483-.69751.4379-1.04931.65946-.3606.20208-.74512.35836-1.11939.54068a12.20074,12.20074,0,0,1-1.17773.42443,11.07032,11.07032,0,0,1-1.238.24854,5.32491,5.32491,0,0,1-2.53-.237A3.123,3.123,0,0,1,341.27937,213.03626Z"/><path d="M239.95414,312.90759a4.8973,4.8973,0,0,1-.60965.34844A3.3858,3.3858,0,0,1,239.95414,312.90759Z" fill="#fff"/><path d="M350.32854,238.786c.00968.01938.02906.029.04843.04838a1.61059,1.61059,0,0,1-.213.02906.07828.07828,0,0,1,.03875-.08712A.09055.09055,0,0,1,350.32854,238.786Z" fill="#fff"/><path d="M427.41145,335.76641l-.1257-.12582c.01938.00963.03875.029.058.03869C427.36313,335.70829,427.39219,335.73735,427.41145,335.76641Z" fill="#fff"/></svg>