<svg id="Layer_1" data-name="Layer 1" xmlns="http://www.w3.org/2000/svg" viewBox="0 0 700 550"><title>booking cab-  on phone</title><path d="M406.12114,188.336l.71614-2.071-.07749-.05807a2.2771,2.2771,0,0,0-3.213.4742L402.608,187.949c.09687-.4452-.56106.92413-.44493.508l-.097-1.4274s-.73552-2.18717-2.40006-1.05489a5.47133,5.47133,0,0,0-1.95491,2.58393l-.4162,1.084s-1.33541-6.57121-4.70324-.94846l-1.73235,4.22916a6.4325,6.4325,0,0,0-.24194-1.84842c-1.50978-5.34212-3.01956,0-3.01956,0a23.75812,23.75812,0,0,1-2.66137,5.54531h-.00957l-4.23884-9.02932,25.03624-9.54222,7.36473,7.63574Z" fill="#020202"/><path d="M359.22988,96.30786a31.54544,31.54544,0,0,1,3.73365,5.75305,34.88014,34.88014,0,0,1,2.4038,6.45935,26.72346,26.72346,0,0,1,.9021,6.86408,31.41474,31.41474,0,0,1-.80835,6.88794,13.30925,13.30925,0,0,1-1.24951,3.305,11.48828,11.48828,0,0,1-2.1792,2.79547,10.07724,10.07724,0,0,1-6.35058,2.892,12.3487,12.3487,0,0,1-11.25879-6.91089,13.34069,13.34069,0,0,0,4.82519,4.65576,11.02961,11.02961,0,0,0,6.37378,1.51313,9.68287,9.68287,0,0,0,5.79834-2.78351,11.01033,11.01033,0,0,0,3.10108-5.69385,30.54431,30.54431,0,0,0,.86914-6.66364,29.59417,29.59417,0,0,0-.74317-6.68573A35.66189,35.66189,0,0,0,359.22988,96.30786Z" fill="#020202"/><path d="M357.83633,96.30786a4.61627,4.61627,0,0,0-2.78223,1.71893,7.09888,7.09888,0,0,0-1.35327,2.96686,27.53655,27.53655,0,0,0-.405,3.33515,14.002,14.002,0,0,1-.80249,3.46276,10.99984,10.99984,0,0,1-4.44067,5.67121,6.57068,6.57068,0,0,1-3.72412.977,7.42548,7.42548,0,0,1-3.65577-1.25208.90925.90925,0,0,1-.26367-1.25836l.03272-.04675.03393-.04517a5.78738,5.78738,0,0,0,.93238-1.96045,3.01439,3.01439,0,0,0-.12281-1.93725,2.07025,2.07025,0,0,0-1.08667-1.156,1.04418,1.04418,0,0,0-.59741.13556,2.687,2.687,0,0,0-.69482.63056,5.01424,5.01424,0,0,0-.93433,1.9403,5.54182,5.54182,0,0,0-.13477,1.07459c.01246.18182.00635.33685.02686.54132l.06567.62414a8.41479,8.41479,0,0,0,.49732,2.26075,2.11628,2.11628,0,0,0,1.39355,1.21484l.03711.01367a.8073.8073,0,0,1,.49219.98957,11.29315,11.29315,0,0,1-.48828,1.33123,8.76759,8.76759,0,0,1-.67944,1.27368,3.8625,3.8625,0,0,1-1.13868,1.1803,1.95914,1.95914,0,0,1-.9978.29132,2.08965,2.08965,0,0,1-.99463-.289l1.05835-.69732a16.3274,16.3274,0,0,1-.2124,3.97412,15.61106,15.61106,0,0,1-1.11865,3.76641,12.8718,12.8718,0,0,1-2.08106,3.29859,11.83333,11.83333,0,0,1-2.949,2.46411,13.79231,13.79231,0,0,0,2.58227-2.75012,12.22575,12.22575,0,0,0,1.65283-3.32184,17.06326,17.06326,0,0,0,.75879-3.61133,17.57055,17.57055,0,0,0-.032-3.63989.70165.70165,0,0,1,.94409-.74139l.11451.04394a.409.409,0,0,0,.489-.042,2.533,2.533,0,0,0,.61011-.74683,9.9875,9.9875,0,0,0,.8728-2.21722l.5293,1.003a4.4578,4.4578,0,0,1-1.40455-.73078,3.72991,3.72991,0,0,1-1.02343-1.3172,9.91177,9.91177,0,0,1-.72827-2.75763l-.09107-.66253c-.02588-.225-.032-.5033-.04492-.75269a7.37125,7.37125,0,0,1,.17041-1.49475,6.87644,6.87644,0,0,1,1.27612-2.70325,4.55307,4.55307,0,0,1,1.21778-1.09741,2.69535,2.69535,0,0,1,3.51269.55853,4.559,4.559,0,0,1,.8916,1.36506,4.92444,4.92444,0,0,1,.19483,3.14361,7.54112,7.54112,0,0,1-1.31616,2.67517l-.197-1.35a5.92476,5.92476,0,0,0,2.699,1.01745,4.85354,4.85354,0,0,0,2.80737-.65606,9.73866,9.73866,0,0,0,4.03491-4.72291,12.82069,12.82069,0,0,0,.96509-3.11706l.28418-1.68573a12.38854,12.38854,0,0,1,.44458-1.70886,7.68054,7.68054,0,0,1,1.7771-3.03748A4.55664,4.55664,0,0,1,357.83633,96.30786Z" fill="#020202"/><path d="M364.67922,107.368s3.34782-.434,2.21553-5.48576-2.70008-10.62614-7.05506-8.62285c0,0-11.58422-9.58094-20.38127-2.613s-12.01972,18.98768-3.04848,28.74281c1.91619,1.1323,3.13558-3.39687,3.13558-3.39687-1.742-.6097-2.26458-1.65489-2.613-4.87757s2.613-7.05506,4.70337-4.44208-.4355,5.74857-.4355,5.74857c5.31307,3.65817,11.06163-1.91619,11.67133-8.97124.37785-4.37234,2.19421-6.06838,3.52093-6.726a2.36991,2.36991,0,0,1,2.40412.18651,10.53484,10.53484,0,0,1,3.37654,3.62142A23.92805,23.92805,0,0,1,364.67922,107.368Z" fill="#020202"/><path d="M316.27749,184.20569a22.62184,22.62184,0,0,1-4.91528.92023,25.10965,25.10965,0,0,1-5.03907-.12238,23.93033,23.93033,0,0,1-4.928-1.13141,20.55661,20.55661,0,0,1-4.55054-2.26605l-.03809-.02509a.52079.52079,0,0,1-.14966-.72107l.02-.02825,1.41871-1.87568c.43774-.64837.86157-1.30725,1.26245-1.98a21.37824,21.37824,0,0,0,1.87524-4.27356,23.1358,23.1358,0,0,0,.51733-2.26092c.13331-.76459.209-1.54621.42579-2.39093a4.86812,4.86812,0,0,1,1.36645-2.33112,11.16066,11.16066,0,0,1,.98779-.84558l1.033-.69812-.4226.60632c.35546-2.09246.7976-4.11779,1.33837-6.14465a53.41792,53.41792,0,0,1,2.03467-5.93933,46.05982,46.05982,0,0,1,2.82813-5.6214,27.77111,27.77111,0,0,1,3.83593-4.97052l-.02124.06085.001-.00958a.09753.09753,0,0,1,.1936,0l.00123.00958a.06249.06249,0,0,1-.00831.03955l-.01318.02173a54.49256,54.49256,0,0,0-2.82251,5.45795q-1.20227,2.8136-2.20557,5.69244c-.66186,1.925-1.261,3.87073-1.8435,5.82355-.58618,1.9455-1.14966,3.93-1.57568,5.89307l-.00684.031a.89125.89125,0,0,1-.41577.57569l-.96362.56878a9.798,9.798,0,0,0-.85547.63147,3.623,3.623,0,0,0-1.187,1.5766c-.50732,1.34338-.84814,3.02484-1.49633,4.47919-.59742,1.49383-1.3523,2.89361-2.0691,4.31262L297.58,181.44672l-.16772-.77417a31.83259,31.83259,0,0,0,4.5017,1.58984,40.782,40.782,0,0,0,4.657,1.11761,36.85926,36.85926,0,0,0,4.78051.56751c1.61475.13013,3.2356.076,4.89332.06744a.0976.0976,0,0,1,.10253.09235A.103.103,0,0,1,316.27749,184.20569Z" fill="#020202"/><path d="M337.43594,198.89789c2.8457-.301,5.66919-.36139,8.48071-.52558q2.109-.10089,4.20264-.29333a20.768,20.768,0,0,0,4.14624-.7392,11.491,11.491,0,0,1-4.03345,1.4859,30.25356,30.25356,0,0,1-4.2644.51245A40.95673,40.95673,0,0,1,337.43594,198.89789Z" fill="#020202"/><path d="M328.75576,133.80011c6.46973-2.46088,13.70459-2.62561,20.51807-1.41553l1.2893.25214a9.34672,9.34672,0,0,1,1.31568.32385,26.19758,26.19758,0,0,1,2.47973.89325,32.5484,32.5484,0,0,1,4.68482,2.36414,28.897,28.897,0,0,1,7.79468,6.941,22.45666,22.45666,0,0,1,4.2688,9.41864,26.0505,26.0505,0,0,1,.35644,2.58136l.124,2.58313c.05494.8479.06348,1.69769.15552,2.54028l.29883,2.52167a37.4989,37.4989,0,0,0,2.80493,9.63745,27.50238,27.50238,0,0,0,2.42237,4.32861,17.43147,17.43147,0,0,0,3.196,3.57446l.00513.00434a1.00959,1.00959,0,0,1,.15527,1.41955,1.0316,1.0316,0,0,1-.30957.25727c-2.8811,1.54809-5.78589,3.04693-8.69946,4.5307-.75464.37-1.40576.72924-2.24561,1.10827a13.34008,13.34008,0,0,1-2.49975.85608,22.62535,22.62535,0,0,1-5.08106.54022,34.11413,34.11413,0,0,1-5.02368-.34314,17.02187,17.02187,0,0,0-4.69507.04963,15.16985,15.16985,0,0,0-8.52368,4.08783.09694.09694,0,0,1-.145-.12812,14.624,14.624,0,0,1,8.459-5.08868,16.8243,16.8243,0,0,1,5.09009-.40228,32.54488,32.54488,0,0,0,4.78931.10461,21.47451,21.47451,0,0,0,4.65137-.70166,11.38747,11.38747,0,0,0,2.12719-.77722c.65039-.3031,1.43018-.74677,2.13916-1.11328,2.90992-1.525,5.82862-3.035,8.771-4.49573l-.14893,1.68091a14.5495,14.5495,0,0,1-1.9519-1.97687,22.507,22.507,0,0,1-1.5918-2.15167,26.743,26.743,0,0,1-2.44946-4.6944,34.27209,34.27209,0,0,1-2.35791-10.17371l-.14355-2.595c-.04224-.86371-.00025-1.72918-.00391-2.59167.01147-.87116.0105-1.70825-.00073-2.55109a19.98042,19.98042,0,0,0-.27637-2.51135,18.28913,18.28913,0,0,0-4.323-8.99475,28.01794,28.01794,0,0,0-7.93628-6.0954,43.37328,43.37328,0,0,0-4.53711-2.13983c-.77612-.30939-1.5625-.59619-2.34717-.857a7.87847,7.87847,0,0,0-1.17041-.30926l-1.22631-.26318a48.33661,48.33661,0,0,0-20.1521-.04346.097.097,0,0,1-.05689-.18506Z" fill="#020202"/><path d="M343.46523,192.81061l.0066-.01929v-.00091l.78442-7.96149a27.404,27.404,0,0,0,.10059-3.84351c-.05787-.53937-.17627-1.23938-.27955-1.90039-.10229-.6687-.19531-1.34332-.27246-2.02148a37.78032,37.78032,0,0,1-.166-4.096,34.45493,34.45493,0,0,1,.36279-4.07544,30.83287,30.83287,0,0,1,2.25073-7.78571c-.32324,2.681-.61767,5.31183-.74829,7.93512a51.94218,51.94218,0,0,0,.22534,7.82428c.05909.65015.13379,1.30048.21875,1.95386.07789.66174.20215,1.27673.23462,2.07105a21.02983,21.02983,0,0,1-.43359,4.13989,42.00094,42.00094,0,0,1-2.27124,7.76129v-.00055Z" fill="#020202"/><path d="M316.26113,184.11035c-.07934-1.09173-.12329-2.17865-.22363-3.2644q-.09741-1.62864-.24194-3.25189c-.19654-2.16333-.39136-4.32258-.657-6.473-.2417-2.15393-.5913-4.28955-.94213-6.42828-.198-1.06458-.38746-2.13373-.647-3.187-.18676-1.07489-.51489-2.10883-.74341-3.18317a36.99338,36.99338,0,0,1,2.11841,6.21454,54.21205,54.21205,0,0,1,1.17432,6.46826,64.30334,64.30334,0,0,1,.437,6.552A50.41512,50.41512,0,0,1,316.26113,184.11035Z" fill="#020202"/><path d="M338.21035,206.64972c3.01343-.33215,6.00415-.46436,8.991-.66736,2.99048-.17761,5.95874-.41363,8.98047-.62945a35.4371,35.4371,0,0,1-8.91968,1.59472A45.45026,45.45026,0,0,1,338.21035,206.64972Z" fill="#020202"/><path d="M384.37271,304.6358c1.00146,9.45966,1.43408,18.96857,1.71362,28.4679.312,9.50171.43164,19.00659.4187,28.50873-.01782,9.50219-.07837,19.00439-.37915,28.5011-.29468,9.49719-.72363,18.98791-1.17212,28.48083l-.00147.03308a.6758.6758,0,0,1-.21093.4585,18.61206,18.61206,0,0,1-6.26294,3.76123,33.17184,33.17184,0,0,1-6.97266,1.74743,67.00053,67.00053,0,0,1-14.23877.40259,75.7983,75.7983,0,0,1-14.06958-2.2008,33.99877,33.99877,0,0,1-3.43066-1.10486,10.6625,10.6625,0,0,1-1.688-.79736,12.7,12.7,0,0,0-1.48755-.79749,4.87916,4.87916,0,0,0-3.04663-.41492,3.94418,3.94418,0,0,0-2.34937,1.69141l-.009.0144a.78461.78461,0,0,1-.19873.21155,17.90046,17.90046,0,0,1-5.61157,2.61,33.00283,33.00283,0,0,1-6.01563,1.07483,60.75822,60.75822,0,0,1-12.08471-.26563,113.84784,113.84784,0,0,1-11.85889-2.0166c-3.91943-.86768-7.76465-1.89746-11.62036-3.14539a1.3239,1.3239,0,0,1-.91528-1.21972l-.00025-.01758a143.69217,143.69217,0,0,1,3.27222-33.31128c1.0957-5.46668,2.46118-10.87012,3.99316-16.22217,1.53052-5.35254,3.23877-10.65344,5.16626-15.87939.96118-2.61408,1.97608-5.20929,3.06885-7.7818.54224-1.28675,1.10132-2.56952,1.71411-3.8396.28784-.63758.59961-1.27332.946-1.90546l.50122-.94916c.17383-.32367.27-.56323.41186-.848a29.00447,29.00447,0,0,0,1.30567-3.73706c.36181-1.31256.718-2.63086,1.02978-3.96918q.96606-4.001,1.80322-8.06152c1.12159-5.40466,2.10889-10.84564,3.08277-16.29016,1.00122-5.441,1.9082-10.89984,2.86719-16.35315a.14524.14524,0,0,1,.28759.03979c-1.16284,11.0152-2.54028,22.00531-4.35962,32.95508-.4624,2.73682-.93042,5.47589-1.52368,8.2027-.28369,1.36426-.616,2.72644-.95727,4.08984a30.91279,30.91279,0,0,1-1.33911,4.12195c-.155.33985-.32837.73847-.47461,1.02814l-.44556.89752c-.30566.58893-.58838,1.20215-.855,1.83276-.56079,1.23664-1.07691,2.50324-1.57886,3.77936-1.01,2.546-1.95,5.13031-2.83618,7.73242a265.58243,265.58243,0,0,0-8.77808,31.78394,146.88683,146.88683,0,0,0-3.58838,32.59094l-.91528-1.23706c3.68115,1.24817,7.5022,2.31433,11.30908,3.26721a111.49746,111.49746,0,0,0,11.56226,2.24768,62.83441,62.83441,0,0,0,11.67676.64624c3.8396-.23364,7.78735-.91662,10.93408-3.02624l-.20728.22559a5.2774,5.2774,0,0,1,3.30982-2.26429,6.13532,6.13532,0,0,1,3.83032.6034,14.01115,14.01115,0,0,1,1.60352.922,9.60383,9.60383,0,0,0,1.48852.75635,28.10536,28.10536,0,0,0,3.29053,1.11414A74.87775,74.87775,0,0,0,357.33,424.1073a59.41733,59.41733,0,0,0,14.01636-.5061,31.32808,31.32808,0,0,0,6.698-1.85083,17.31847,17.31847,0,0,0,5.66992-3.69153l-.2124.49133.16113-28.482.35571-28.47266.31006-28.46887c.0166-9.48926.06494-18.979-.24585-28.46985a.14536.14536,0,0,1,.2898-.02094Z" fill="#020202"/><path d="M301.65225,183.0741a70.17781,70.17781,0,0,0-1.02515,9.166,29.39236,29.39236,0,0,0,.84082,8.90112,13.142,13.142,0,0,0,4.55,7.21393,13.74527,13.74527,0,0,0,3.86963,2.14649,27.61913,27.61913,0,0,0,4.43188,1.24731,17.43167,17.43167,0,0,1-4.70337-.33655,16.34811,16.34811,0,0,1-2.311-.68689,13.51762,13.51762,0,0,1-2.16333-1.14007,12.44158,12.44158,0,0,1-3.5315-3.44495,16.06062,16.06062,0,0,1-2.00708-4.48541,24.44209,24.44209,0,0,1-.47534-9.5401A31.72191,31.72191,0,0,1,301.65225,183.0741Z" fill="#020202"/><path d="M310.87051,197.4115c.47558-.14966.91723-.25586,1.34985-.35541.429-.11047.85156-.1889,1.249-.31842a8.72393,8.72393,0,0,0,1.16333-.41626,7.24194,7.24194,0,0,0,1.12793-.70911,2.167,2.167,0,0,1-.69433,1.32734,3.43309,3.43309,0,0,1-1.33032.72778,4.18357,4.18357,0,0,1-1.46338.13916A3.33539,3.33539,0,0,1,310.87051,197.4115Z" fill="#020202"/><path d="M373.4877,184.39722a97.80342,97.80342,0,0,1,7.85986,19.93115,188.84844,188.84844,0,0,1,4.50635,20.9967c.56958,3.53589,1.05468,7.08618,1.40649,10.652.19116,1.78131.34766,3.56635.48682,5.35535l.0957,1.34436c.03979.45495.04517.96112.04761,1.38068l.06347,2.66119c.11695,3.54852.32471,7.09741.7168,10.60754.10547.87561.21314,1.75074.34937,2.6175.12695.88513.29785,1.68292.45044,2.64074a38.995,38.995,0,0,1,.352,5.47791c-.022,3.62189-.29737,7.20666-.65845,10.77789q-.27686,2.6781-.63428,5.34552l-.19116,1.35938-.24268,1.3114c-.14672.86-.25952,1.72534-.34741,2.59277a48.17978,48.17978,0,0,0-.18066,5.27191,46.17387,46.17387,0,0,1-.33911,5.44245,17.37907,17.37907,0,0,1-.55249,2.751,7.34037,7.34037,0,0,1-.54834,1.39331,3.23473,3.23473,0,0,1-1.15137,1.32129c-.155.083-.31543.16095-.4751.228a4.0623,4.0623,0,0,1-.47681.099,2.02267,2.02267,0,0,1-1.08032-.17041,2.592,2.592,0,0,1-1.22168-1.41791,9.20354,9.20354,0,0,1-.53906-2.87225,25.015,25.015,0,0,1,.02271-2.75843c.02685-.45581.06323-.9096.10986-1.36456l.03735-.34271.01026-.08728s.00341-.026.00146-.00086l.00244-.04089.01026-.1651.03735-.66357c.08984-1.77.16089-3.551.12036-5.30017-.01343-.43451-.0332-.871-.08179-1.27961a3.0847,3.0847,0,0,0-.10083-.53131c-.00952-.02539-.01709-.03936-.00879-.02948a.39622.39622,0,0,0,.33057.16553c.26245-.01727.26856-.08856.29321-.09863a.21227.21227,0,0,0-.02783.03839,5.61969,5.61969,0,0,0-.449,1.09295l-.40821,1.27656a33.62972,33.62972,0,0,1-2.09155,5.00878,24.12258,24.12258,0,0,1-2.98779,4.54871,12.33365,12.33365,0,0,1-1.98291,1.8985,3.80311,3.80311,0,0,1-1.28565.65478,1.55734,1.55734,0,0,1-1.49487-.35736,2.67084,2.67084,0,0,1-.54126-2.73809,4.05281,4.05281,0,0,1,.69629-1.20368,13.21563,13.21563,0,0,0,.73364-1.10126,16.60549,16.60549,0,0,0,1.9878-4.92285,16.75087,16.75087,0,0,1-1.73389,5.06806,12.51378,12.51378,0,0,1-.70142,1.157,3.65544,3.65544,0,0,0-.59717,1.1242,2.22018,2.22018,0,0,0,.50489,2.24054c.55469.522,1.42138.10694,2.05835-.41857a11.72156,11.72156,0,0,0,1.79907-1.87427,23.37019,23.37019,0,0,0,2.6958-4.49878,33.97126,33.97126,0,0,0,1.9021-4.91474l.37549-1.2832a6.2985,6.2985,0,0,1,.54907-1.38415,1.41047,1.41047,0,0,1,.17432-.22736.73041.73041,0,0,1,1.175.1037,1.46761,1.46761,0,0,1,.13574.27173,3.97708,3.97708,0,0,1,.17822.77551c.06836.47632.09912.93189.12476,1.38861.08715,1.81867.05883,3.60907.01294,5.40515l-.02124.67365-.00635.16913-.01587.20416-.0271.32342c-.03369.43384-.05786.87055-.07251,1.30616a23.6032,23.6032,0,0,0,.04224,2.593,7.85253,7.85253,0,0,0,.48364,2.35919c.35327.69312.52563.71363.97925.48822a3.47462,3.47462,0,0,0,.96-1.79681,15.77683,15.77683,0,0,0,.4768-2.497,44.4928,44.4928,0,0,0,.2815-5.24139c.00732-.87085-.02564-1.767-.00562-2.6911.01612-.91339.06958-1.8255.14991-2.73474.08447-.90882.19531-1.81525.3413-2.71589l.2334-1.32293.16992-1.29322q.33363-2.6401.584-5.2929c.33032-3.5326.56494-7.07715.56592-10.59577a37.21234,37.21234,0,0,0-.28785-5.20221c-.11987-.80584-.30981-1.75763-.42822-2.64038-.13379-.8977-.23657-1.795-.33716-2.6922-.37109-3.58862-.55053-7.17407-.63964-10.76056l-.042-2.69195c-.00024-.4729.00049-.85919-.03369-1.29431l-.08374-1.32666c-.12329-1.77063-.26391-3.54322-.43921-5.3125q-.5138-5.30905-1.2102-10.602a191.18386,191.18386,0,0,0-3.95142-20.96851A105.16011,105.16011,0,0,0,373.4877,184.39722Z" fill="#020202"/><path d="M374.12661,293.1554a8.676,8.676,0,0,1-2.26269,3.43829,16.09132,16.09132,0,0,1-3.37354,2.45654.17024.17024,0,0,1-.04224.01624l-.01025.00238a7.3581,7.3581,0,0,1-1.79028.26123,2.53339,2.53339,0,0,1-1.83594-.62323,2.49227,2.49227,0,0,1-.66724-1.86359,5.75116,5.75116,0,0,1,.33814-1.85388l.27051.59143a6.10148,6.10148,0,0,1-1.47412-.65765,2.94284,2.94284,0,0,1-1.17139-1.30249,2.80793,2.80793,0,0,1-.13208-1.79377,4.36948,4.36948,0,0,1,.73193-1.55542l.03028-.03527.03515-.03345a25.44809,25.44809,0,0,0,3.4585-4.373c1.03442-1.572,1.998-3.22015,2.87329-4.87542l-.07129.5169a29.71431,29.71431,0,0,1-.7019-5.24841,28.87308,28.87308,0,0,1,.24731-5.29126,30.84855,30.84855,0,0,1,1.12939-5.176,26.32134,26.32134,0,0,1,2.04468-4.95257l-.12866.44379a56.08545,56.08545,0,0,0-.64331-9.34272,89.69819,89.69819,0,0,0-1.84277-9.248c-.38916-1.52088-.80957-3.04371-1.30738-4.50928-.12939-.35547-.25268-.7348-.39184-1.052-.03076-.0705-.07447-.19287-.094-.221a.31136.31136,0,0,1-.04052-.10095c-.125-.23761-.24561-.48432-.35669-.73249-.33643-.84387-.58326-1.538-.85938-2.309-1.07129-3.00757-2.093-6.0177-3.12353-9.02948q-3.04248-9.04779-5.96753-18.131c-1.92676-6.06415-3.85376-12.12781-5.68116-18.225,2.281,5.94239,4.478,11.91291,6.68921,17.87824l6.52271,17.93072c1.07959,2.98859,2.15307,5.98426,3.2666,8.95044l.833,2.15045a2.88916,2.88916,0,0,1,.12768.35737c.08765.136.17115.2774.24829.42089.07715.14545.09449.21405.14454.32489.18066.41126.30371.789.44848,1.17963.53345,1.54346.96753,3.087,1.37549,4.64417a70.22973,70.22973,0,0,1,2.52124,19.12457.89335.89335,0,0,1-.10889.40863l-.01977.03546a26.99518,26.99518,0,0,0-1.92163,4.55273,29.07946,29.07946,0,0,0-1.14893,4.87238,27.20394,27.20394,0,0,0-.31738,4.99341,29.44494,29.44494,0,0,0,.5332,4.97857l.00879.04993a.70207.70207,0,0,1-.08032.46741c-.96045,1.70007-1.97656,3.33038-3.08887,4.92407a25.51181,25.51181,0,0,1-3.81811,4.46649l.06518-.06848a3.32587,3.32587,0,0,0-.57055,1.10742,1.75078,1.75078,0,0,0,.02758,1.12677,3.22881,3.22881,0,0,0,1.981,1.51465l.00855.00318a.45276.45276,0,0,1,.26464.5827l-.00244.0058c-.36474.93316-.61548,2.21283.00806,2.88494a1.89544,1.89544,0,0,0,1.35205.50623,6.815,6.815,0,0,0,1.65259-.15442l-.05225.01843a15.83034,15.83034,0,0,0,3.39844-2.20794A8.532,8.532,0,0,0,374.12661,293.1554Z" fill="#020202"/><path d="M382.25332,163.2002a41.48485,41.48485,0,0,1,3.11475,5.96252,41.00794,41.00794,0,0,1,2.22729,6.34753,41.004,41.004,0,0,1-3.11474-5.96252A41.47891,41.47891,0,0,1,382.25332,163.2002Z" fill="#020202"/><path d="M395.37637,169.93591a60.68851,60.68851,0,0,1,1.446-8.011,60.03037,60.03037,0,0,1,2.38623-7.783,59.98632,59.98632,0,0,1-1.44629,8.011A60.69038,60.69038,0,0,1,395.37637,169.93591Z" fill="#020202"/><path d="M404.55068,173.07147a51.56537,51.56537,0,0,1,5.31372-5.29931,50.96944,50.96944,0,0,1,5.95118-4.572,50.96453,50.96453,0,0,1-5.31372,5.29937A51.54222,51.54222,0,0,1,404.55068,173.07147Z" fill="#020202"/><path d="M375.944,189.64551a14.00413,14.00413,0,0,1,3.66675-5.37,8.26659,8.26659,0,0,1,2.92652-1.65887,8.81279,8.81279,0,0,1,3.34716-.2887,11.47445,11.47445,0,0,0,5.94239-1.49231l1.44043-.731a3.86869,3.86869,0,0,1,1.64428-.50354,1.5319,1.5319,0,0,1,1.37989,1.02631,3.95106,3.95106,0,0,1,.24609,1.61853,4.67971,4.67971,0,0,0-.47559-1.50445,1.15855,1.15855,0,0,0-1.13989-.66608,3.53161,3.53161,0,0,0-1.36523.5675l-1.37256.84571a11.00037,11.00037,0,0,1-6.34155,1.80566,8.13944,8.13944,0,0,0-3.04371.19788,8.48872,8.48872,0,0,0-2.72583,1.36242,12.38762,12.38762,0,0,0-2.25024,2.18872A24.66911,24.66911,0,0,0,375.944,189.64551Z" fill="#020202"/><path d="M380.6874,203.62866a14.18291,14.18291,0,0,0,3.62207-.15668,5.58142,5.58142,0,0,0,3.13111-1.51049.21064.21064,0,0,1,.23877-.05l.02758.01227a2.66328,2.66328,0,0,0,1.62622.09063,4.52118,4.52118,0,0,0,1.55957-.72027,8.18149,8.18149,0,0,0,1.3313-1.152,16.34126,16.34126,0,0,0,1.1355-1.37585.34735.34735,0,0,1,.35425-.12916l.01831.00434a4.56486,4.56486,0,0,0,2.17358-.01117,2.44612,2.44612,0,0,0,1.54248-1.266l.01123-.01923a.41749.41749,0,0,1,.53492-.16778,4.74954,4.74954,0,0,0,2.21167.51513,2.45678,2.45678,0,0,0,1.01806-.27221,1.972,1.972,0,0,0,.72217-.71863,42.22142,42.22142,0,0,0,1.96631-4.5036c.6145-1.546,1.311-3.09906,1.95581-4.59723a5.75318,5.75318,0,0,0,.34717-1.08783.73084.73084,0,0,0-.00855-.34918c-.01562-.038-.04272-.07941-.18579-.1222a2.05944,2.05944,0,0,0-.989.0271,2.146,2.146,0,0,0-.89038.5354l-.093.06263a.391.391,0,0,0,.09277-.0625l-.00561.00525-.01148.01086-.02685.02637-.0564.05871-.114.1275-.22315.27546c-.14575.18951-.2854.38855-.41894.59277-.2688.40778-.51709.83466-.75049,1.27118a.429.429,0,0,1-.80713-.2168l.00073-.01941c.01172-.33319.04688-.68219.04248-1.00287a2.93072,2.93072,0,0,0-.19531-.90753,1.85885,1.85885,0,0,0-.4751-.71643.80042.80042,0,0,0-.66845-.20105,2.54591,2.54591,0,0,0-1.50928.98267,4.92492,4.92492,0,0,0-.89893,1.76172l-.00537.0177-.00512.01495-.429,1.06964a.31142.31142,0,0,1-.4043.17462.31664.31664,0,0,1-.18554-.20721,7.13321,7.13321,0,0,0-1.22339-2.665,1.1,1.1,0,0,0-1.10767-.47437,2.35474,2.35474,0,0,0-1.09375.851A12.69678,12.69678,0,0,0,392.078,190.086l-1.21924,2.83911c.35669-.967.65747-1.95215,1.029-2.91736a12.96228,12.96228,0,0,1,1.38477-2.79938,2.729,2.729,0,0,1,1.26513-1.06414,1.27581,1.27581,0,0,1,.91651.046,2.14007,2.14007,0,0,1,.69971.51855,7.6207,7.6207,0,0,1,1.44067,2.85748l-.58984-.03265.39331-1.08325-.0105.03229a5.61894,5.61894,0,0,1,.96435-2.045,3.2694,3.2694,0,0,1,1.96753-1.32074,1.58908,1.58908,0,0,1,1.314.366,2.66678,2.66678,0,0,1,.71509,1.03015,3.76938,3.76938,0,0,1,.26635,1.16645c.01148.38964-.02173.75146-.03222,1.12884l-.8064-.23614c.23828-.45752.49341-.90833.77612-1.3479.14087-.2201.28907-.437.44922-.64979l.25049-.3164.137-.15637.07422-.0788.04028-.04053.02271-.02185.01147-.01105a.54318.54318,0,0,1,.1106-.07843l-.09277.06232a3.04458,3.04458,0,0,1,1.2351-.73627,2.90426,2.90426,0,0,1,1.48438-.03778,1.15818,1.15818,0,0,1,.77026.614,1.564,1.564,0,0,1,.09131.87829,6.50439,6.50439,0,0,1-.38965,1.29749c-.64306,1.57843-1.33154,3.06085-1.96972,4.60663l-.96436,2.30914a15.74823,15.74823,0,0,1-1.12988,2.32062,2.84572,2.84572,0,0,1-1.05176,1.0011,3.30777,3.30777,0,0,1-1.38135.35888,5.56669,5.56669,0,0,1-2.60962-.62072l.54566-.18689a3.26259,3.26259,0,0,1-.8645,1.05261,3.38153,3.38153,0,0,1-1.21607.58349,4.75966,4.75966,0,0,1-1.29346.12366,5.56758,5.56758,0,0,1-1.27124-.19177l.37207-.12476a17.01813,17.01813,0,0,1-1.23828,1.40357,8.7764,8.7764,0,0,1-1.46875,1.18762,5.05372,5.05372,0,0,1-1.76758.74261,2.9386,2.9386,0,0,1-1.95019-.22021l.26611-.03766a5.89707,5.89707,0,0,1-3.40771,1.44666A12.91355,12.91355,0,0,1,380.6874,203.62866Z" fill="#020202"/><path d="M395.14834,195.79565l.89233-2.96289c.28955-.97906.50415-1.98755.76123-2.9837a17.9777,17.9777,0,0,1,1.009-2.96075,15.21953,15.21953,0,0,1,1.54419-2.7179,54.875,54.875,0,0,0-1.85352,5.87012,23.45835,23.45835,0,0,1-.92724,2.97522A15.93282,15.93282,0,0,1,395.14834,195.79565Z" fill="#020202"/><path d="M402.608,187.949c-.058.31932-.13539.64839-.22257.96777a18.38336,18.38336,0,0,1-.75489,2.23555,16.17847,16.17847,0,0,1-2.38068,4.0259,26.74573,26.74573,0,0,0,1.85816-4.21947,22.649,22.649,0,0,0,.6097-2.20654c.13551-.56127.23226-1.142.34839-1.72261.058.27095.09675.55164.1355.79358l-.09675.8129Z" fill="#020202"/><path d="M362.10439,114.55518a3.22494,3.22494,0,0,1,1.396,2.37194,1.89527,1.89527,0,0,1-.14185.81708,1.36162,1.36162,0,0,1-.5852.64594,1.66882,1.66882,0,0,1-1.45288.04095,3.47729,3.47729,0,0,0,1.00073-.64587,1.09113,1.09113,0,0,0,.21289-.817C362.50308,116.27362,362.23062,115.47479,362.10439,114.55518Z" fill="#020202"/><path d="M339.45842,90.64638s-6.56149-14.19721-17.94248-3.74528,6.88431,22.48673,9.552,16.3747" fill="#020202"/><path d="M374.12656,285.02613a24.40234,24.40234,0,0,1-5.67113,7.71311,27.17821,27.17821,0,0,1-3.70652,2.85494,4.5263,4.5263,0,0,1,.14507-.43551c-.2032-.06775-.3967-.13551-.571-.21289a43.662,43.662,0,0,0,3.47427-2.92268A56.66821,56.66821,0,0,0,374.12656,285.02613Z" fill="#020202"/><path d="M370.13809,297.678a35.60852,35.60852,0,0,0,3.97143-5.17481,36.38987,36.38987,0,0,0,2.87915-5.854,16.08231,16.08231,0,0,1-6.85058,11.02881Z" fill="#020202"/><path d="M385.31143,281.77161a2.36,2.36,0,0,1-1.59986,1.57019,3.035,3.035,0,0,1-2.32739-.47126,2.87444,2.87444,0,0,0-1.72363-.54858,1.79609,1.79609,0,0,0-1.30493.94983l-.04566.07794a.31112.31112,0,0,1-.13452.12341,3.00512,3.00512,0,0,1-1.2229.29371,3.71856,3.71856,0,0,1-1.1814-.13685,4.07212,4.07212,0,0,1-1.04907-.47882,4.55353,4.55353,0,0,1-.85937-.71753,8.48971,8.48971,0,0,0,1.0061.40748,5.24517,5.24517,0,0,0,1.01318.21533,4.06712,4.06712,0,0,0,.99048-.043,2.91233,2.91233,0,0,0,.86475-.29511l-.17993.201a2.55635,2.55635,0,0,1,2-1.55865,3.426,3.426,0,0,1,2.30346.785,2.76528,2.76528,0,0,0,1.74658.62744A2.53052,2.53052,0,0,0,385.31143,281.77161Z" fill="#020202"/><path d="M350.95547,133.58643a1.685,1.685,0,0,1-.623-1.829,1.87088,1.87088,0,0,1,1.32959-1.39264,6.8329,6.8329,0,0,1-.19971.89038c-.07006.26019-.1333.4967-.19018.73169C351.15444,132.46106,351.06411,132.90735,350.95547,133.58643Z" fill="#020202"/><path d="M380.2327,457.82351a1.64573,1.64573,0,0,0-.18382.61939,1.45745,1.45745,0,0,1-.21312-.10644,31.428,31.428,0,0,0-17.20677-2.66137,37.51894,37.51894,0,0,0-4.3356.73552,14.08475,14.08475,0,0,1-4.6841.16444,12.18884,12.18884,0,0,1-4.4809-1.51935,9.95694,9.95694,0,0,1-3.21284-2.78718c-.10656-.15488-.22256-.31945-.31944-.49358a10.02365,10.02365,0,0,1-1.45165-4.59691,15.89245,15.89245,0,0,1,.40638-4.655,28.10554,28.10554,0,0,1,3.571-8.38082,20.09274,20.09274,0,0,0,.99706-2.4388,21.73013,21.73013,0,0,0,.70646-2.61294,11.62859,11.62859,0,0,0-.12593-5.38086.10635.10635,0,0,1,.06781-.12582.11041.11041,0,0,1,.116.058,10.18252,10.18252,0,0,1,.68731,2.72918,15.32013,15.32013,0,0,1-.0293,2.82581,18.1188,18.1188,0,0,1-.52239,2.78731,19.33807,19.33807,0,0,1-.93871,2.69032l-.02907.04843a29.38065,29.38065,0,0,0-3.00018,8.10993c-.542,2.78719-.48389,5.76788.98714,8.02287a10.267,10.267,0,0,0,6.82284,4.10334,13.2258,13.2258,0,0,0,4.19053.058,38.141,38.141,0,0,1,4.49035-.49357,39.17624,39.17624,0,0,1,11.04219,1.01621,37.029,37.029,0,0,1,6.52277,2.2258C380.14551,457.78477,380.19395,457.80414,380.2327,457.82351Z" fill="#020202"/><path d="M411.7434,459.09135a4.13,4.13,0,0,1-.29038.54189,5.76661,5.76661,0,0,1-1.38385,1.53873,12.50546,12.50546,0,0,1-4.31646,2.0421,29.17315,29.17315,0,0,1-9.07758.9484,30.88959,30.88959,0,0,1-8.88408-1.713,21.2293,21.2293,0,0,1-4.09365-1.9646l-1.30659-.77427a1.38252,1.38252,0,0,0,.36764-.57095l1.30659.73552a18.81987,18.81987,0,0,0,4.0067,1.72254q1.1901.36291,2.40951.60982a30.61926,30.61926,0,0,0,6.22294.59032,29.39831,29.39831,0,0,0,8.555-1.2194,11.22756,11.22756,0,0,0,3.66789-1.81941,3.80356,3.80356,0,0,0,1.09371-1.35491,2.14982,2.14982,0,0,0-.06781-1.471,7.48752,7.48752,0,0,0-2.68075-2.75812,29.26185,29.26185,0,0,0-3.76453-2.042c-1.9164-.871-3.91952-1.6936-5.9035-2.54524-.75489-.31944-1.50009-.64833-2.2453-.97746-2.72894-1.19034-5.45812-2.39037-8.13887-3.7259-1.48072-.73551-2.97112-1.50009-4.4131-2.36142a29.07155,29.07155,0,0,1-3.36782-2.33225,19.05068,19.05068,0,0,1-5.23556-7.47116,28.00969,28.00969,0,0,1-1.80016-8.79713c-.00969-.04844.03875-.09676.08718-.10644a.11617.11617,0,0,1,.10633.07738c.29038,1.46134.52263,2.93237.929,4.34528a25.52119,25.52119,0,0,0,1.53884,4.10334,17.95777,17.95777,0,0,0,5.29368,6.70671,29.98293,29.98293,0,0,0,4.42279,2.70012c1.04527.53221,2.11936,1.03547,3.20338,1.51935,1.00652.44514,2.02273.89039,3.04838,1.31628.49358.22256.99684.43545,1.5001.63864,1.2.51295,2.40974,1.02589,3.61945,1.52915,1.0259.42577,2.05156.85153,3.06776,1.27741,1.713.71614,3.426,1.45166,5.1583,2.23549a25.51,25.51,0,0,1,4.02585,2.27436l.94839.71614c.30976.25163.60014.55158.9002.83227a8.78736,8.78736,0,0,1,.81278.95808,7.61277,7.61277,0,0,1,.65825,1.171A4.03064,4.03064,0,0,1,411.7434,459.09135Z" fill="#020202"/><path d="M411.453,459.63324a5.03313,5.03313,0,0,0-.38725-1.0839s-2.67082,6.54215-20.56515,4.2001a5.06769,5.06769,0,0,1-.01937-.54189c-.02883-4.64535,4.46153-9.91,7.1229-12.61978.71614-.72583,1.2969-1.26784,1.6161-1.5581.18406-.17425.29038-.26132.29038-.26132-.64833-1.5-3.19369-2.84531-5.8742-3.89046a1.38586,1.38586,0,0,1-1.39377,1.37428,1.32342,1.32342,0,0,1-1.20972-.6677,1.61454,1.61454,0,0,1,.03875-1.60666c-2.59356-.84184-4.75167-1.32572-4.75167-1.32572a5.11581,5.11581,0,0,0-1.53884.09675,6.5514,6.5514,0,0,0-1.9743.77415c-4.84854,2.80656-8.52588,11.33257-9.22289,13.0166-.07726.18382-.116.29026-.116.29026s-.24194.10656-1.43228-.29026c-8.33262-2.74844-21.446,3.92909-25.69438-4.19041a3.05067,3.05067,0,0,0-.42577.91934c-.36787,1.2-.42576,3.46457,2.68075,6.097l-1.9646,3.9871a.96785.96785,0,0,0,.84183,1.39365l14.5747.38713a.96611.96611,0,0,0,.37756-.05812l4.98393-1.9646a.95736.95736,0,0,0,.60959-.8709l.10656-3.842s15.23271,5.77757,23.07176,8.38082C400.03327,468.711,412.96256,465.87544,411.453,459.63324Zm-26.7009-8.40031a1.45258,1.45258,0,0,1,0,2.90332A1.45258,1.45258,0,0,1,384.75212,451.23293Zm3.3097-2.14842a1.45245,1.45245,0,0,1,0-2.90332A1.45245,1.45245,0,0,1,388.06182,449.08451Zm-6.61941,10.97461a1.39176,1.39176,0,0,1-1.39353-1.61622,1.64573,1.64573,0,0,1,.18382-.61939,1.3451,1.3451,0,0,1,1.20971-.6677,1.43485,1.43485,0,0,1,1.316,1.98386,1.38252,1.38252,0,0,1-.36764.57095A1.33573,1.33573,0,0,1,381.44241,460.05912Z" fill="#020202"/><path d="M357.86538,440.641a9.307,9.307,0,0,0,.82324,4.3291,7.03663,7.03663,0,0,0,1.2168,1.77149c.22876.292.52808.5166.79346.79284.28027.25965.593.48267.88281.77137a5.46964,5.46964,0,0,1-2.18408-1.00525,5.20825,5.20825,0,0,1-1.5791-1.908,5.3308,5.3308,0,0,1-.54029-2.41638A4.86551,4.86551,0,0,1,357.86538,440.641Z" fill="#020202"/><path d="M291.80239,420.81079a31.997,31.997,0,0,1-.32007,8.603,16.62789,16.62789,0,0,1-1.303,4.17737,18.80747,18.80747,0,0,0-1.29395,3.97314,22.947,22.947,0,0,0-.36694,8.3042,9.331,9.331,0,0,0,1.34375,3.72058,4.57037,4.57037,0,0,0,2.97461,2.03211c.5913.12548,1.407.22082,2.09008.35766l2.12159.41113a38.74115,38.74115,0,0,0,4.14355.66639,13.79156,13.79156,0,0,0,4.01025-.19214,15.3186,15.3186,0,0,0,3.77686-1.38538c2.43408-1.2467,4.5188-3.125,6.93359-4.832a29.71,29.71,0,0,1,3.78247-2.31189,12.68876,12.68876,0,0,1,2.16846-.85327,5.909,5.909,0,0,1,1.271-.21423,3.34125,3.34125,0,0,1,.76147.05847,2.23085,2.23085,0,0,1,.43677.13049,1.54854,1.54854,0,0,1,.58667.41284l-.80981-.34228a27.16623,27.16623,0,0,0,4.69287-.93738,25.69729,25.69729,0,0,0,4.45874-1.74768,17.25439,17.25439,0,0,0,3.83227-2.72351,12.67174,12.67174,0,0,0,2.58814-3.81775l-.04981.19018a3.19264,3.19264,0,0,0-.21118-1.53308,1.84917,1.84917,0,0,0-.99341-.98315,3.79117,3.79117,0,0,0-1.646-.24023c-.30518.03808-.60889.04663-.91773.10375l-.92969.19361-.022.00451a.73244.73244,0,0,1-.82055-.42492,2.90305,2.90305,0,0,0-.7876-.97669,3.77406,3.77406,0,0,0-1.20557-.64734,5.335,5.335,0,0,0-1.42261-.24194c-.24731-.00757-.49878.00842-.74878.01062l-.75756.08679-.04517.00513a.56729.56729,0,0,1-.31592-.0542,9.27337,9.27337,0,0,0-1.11328-.44433,8.90821,8.90821,0,0,0-1.17017-.303,4.55475,4.55475,0,0,0-2.27685.08777l.03809-.01673-3.6875,1.642-1.84278.81958-.9209.40967a1.50028,1.50028,0,0,1-1.17407.09607,1.39656,1.39656,0,0,1-.8501-.82874c-.11206-.36279-.177-.66821-.251-1.00891a13.09906,13.09906,0,0,1-.27368-2.022,4.467,4.467,0,0,1,1.2373-3.73767,4.32441,4.32441,0,0,0-.93555,3.71472,12.7811,12.7811,0,0,0,.37574,1.94812c.08447.311.18457.65759.2854.93091a.89539.89539,0,0,0,.575.50122.93889.93889,0,0,0,.769-.1261l.89526-.45984,1.7898-.91931,3.57739-1.83582.03052-.01379.00806-.00317a5.54251,5.54251,0,0,1,2.80078-.24463,10.0097,10.0097,0,0,1,1.332.28711,10.27706,10.27706,0,0,1,1.29394.45935l-.36059-.04895.856-.1333c.292-.017.583-.04578.87818-.04847a6.6135,6.6135,0,0,1,1.78808.23328,5.04894,5.04894,0,0,1,1.67017.83643,4.13671,4.13671,0,0,1,1.25171,1.524l-.84229-.42028,1.04248-.24939c.35132-.0752.72388-.10291,1.08619-.15381a5.24656,5.24656,0,0,1,2.32324.29529,3.43126,3.43126,0,0,1,1.8518,1.735,4.62623,4.62623,0,0,1,.39356,2.41711.55806.55806,0,0,1-.041.16956l-.009.021a14.33582,14.33582,0,0,1-2.8894,4.43481,18.9948,18.9948,0,0,1-4.20679,3.109,25.28607,25.28607,0,0,1-4.78491,1.93665,28.81914,28.81914,0,0,1-5.06348,1.03552l-.8103-.34241c.17993.1897.11767.10461.13574.12854-.02222-.00037-.02759-.01465-.07788-.01685a1.54375,1.54375,0,0,0-.30615-.01757,4.11332,4.11332,0,0,0-.83887.15429,10.89956,10.89956,0,0,0-1.81543.73218,31.98927,31.98927,0,0,0-3.53833,2.16467c-1.17041.80225-2.22583,1.66053-3.426,2.537l-.8872.65625-.93238.60559a22.207,22.207,0,0,1-1.93237,1.12256,16.51026,16.51026,0,0,1-4.27417,1.522,15.59675,15.59675,0,0,1-4.53808.14441,40.2552,40.2552,0,0,1-4.3191-.76892l-2.08691-.44238c-.719-.15308-1.32739-.23035-2.13306-.41907a6.20363,6.20363,0,0,1-2.22339-1.00622,6.59375,6.59375,0,0,1-1.63183-1.77784,10.70587,10.70587,0,0,1-1.44556-4.33044,23.73833,23.73833,0,0,1,.71582-8.73987,18.17537,18.17537,0,0,1,1.57569-4.10071,15.97228,15.97228,0,0,0,1.46484-3.92749A35.79071,35.79071,0,0,0,291.80239,420.81079Z" fill="#020202"/><path d="M324.187,444.47336s5.63245.33461,9.77389-2.97273" fill="none" stroke="#020202" stroke-linecap="round" stroke-linejoin="round" stroke-width="0.96777"/><path d="M307.3478,437.41833a9.97556,9.97556,0,0,0,2.37964-.71765,4.19921,4.19921,0,0,0,.96094-.62231c.31885-.24768.592-.56421.9563-.89563a2.39751,2.39751,0,0,1-.38013,1.38391,2.64117,2.64117,0,0,1-1.11108,1.00244,2.98792,2.98792,0,0,1-1.44849.29334A2.50714,2.50714,0,0,1,307.3478,437.41833Z" fill="#020202"/><path d="M333.31851,432.27942a1.04969,1.04969,0,0,1,.45117-.87.56331.56331,0,1,1,.5271.81092A1.05008,1.05008,0,0,1,333.31851,432.27942Z" fill="#020202"/><path d="M340.4475,434.60668a14.16253,14.16253,0,0,1-7.13235,7.22923c-3.29057-11.69076-10.3166-12.62947-10.3166-12.62947a6.54681,6.54681,0,0,0-6.59034,3.07757q3.89034,6.09706,7.78068,12.1939c-2.8355.17425-4.76136,1.0839-10.45174,4.99373-4.83886,3.31951-5.93257,3.93878-8.91314,4.3936-3.90984.60982-7.28735-.67739-11.75857-1.37416a7.31381,7.31381,0,0,1-3.13557-1.62579s.2032,9.05821-1.20971,12.56166a.958.958,0,0,0,.9,1.316h23.38151a.96416.96416,0,0,0,.95809-1.045c-.242-3.13568-.45483-12.35846,5.46781-12.83266,7.14228-.58075,15.32959-2.09053,18.46516-6.38738S344.74459,435.47758,340.4475,434.60668ZM320.82107,432.884a1.45245,1.45245,0,0,1,0-2.90331A1.45245,1.45245,0,0,1,320.82107,432.884Zm3.83233,4.355a1.45245,1.45245,0,0,1,0-2.90331A1.45245,1.45245,0,0,1,324.6534,437.239Zm3.30994,5.226a1.45245,1.45245,0,0,1,0-2.90331A1.45245,1.45245,0,0,1,327.96334,442.465Z" fill="#020202"/><path d="M328.78581,133.891c-12.24222-3.87109-13.53888,8.27443-13.53888,8.27443,6.28059,58.05667-11.84575,139.49462-11.14875,142.8625.69677,3.36783,7.98412,5.23562,17.07139,5.06143s13.57786,5.07111,13.57786,5.07111C351.80913,272.77588,328.78581,133.891,328.78581,133.891ZM306.82713,285.51179a1.45245,1.45245,0,0,1,0-2.90331A1.45245,1.45245,0,0,1,306.82713,285.51179Zm6.27114,2.55487a1.45245,1.45245,0,0,1,0-2.90331A1.45245,1.45245,0,0,1,313.09827,288.06666Zm7.43265.69683a1.45245,1.45245,0,0,1,0-2.90332A1.45245,1.45245,0,0,1,320.53092,288.76349Zm7.54843.81289a1.45245,1.45245,0,0,1,0-2.90331A1.45245,1.45245,0,0,1,328.07935,289.57638Zm6.15513,3.36789a1.45245,1.45245,0,0,1,0-2.90332A1.45245,1.45245,0,0,1,334.23448,292.94427Z" fill="#020202"/><path d="M351.40322,107.15234a6.13918,6.13918,0,0,1,1.74292-1.02008,8.37332,8.37332,0,0,1,1.958-.52118,7.07025,7.07025,0,0,1,2.05078.04273,4.24738,4.24738,0,0,1,1.86865.83075,18.77978,18.77978,0,0,0-1.93139-.07819c-.62573.03461-1.24268.07953-1.86328.16388C353.98184,106.728,352.74844,106.98486,351.40322,107.15234Z" fill="#020202"/><path d="M355.8485,113.333a1.45253,1.45253,0,0,0,0-2.90332,1.45253,1.45253,0,0,0,0,2.90332Z" fill="#020202"/><path d="M368.71621,107.842c-1.35376-.06915-2.60254-.2356-3.85767-.30225-.62524-.03894-1.24389-.03881-1.87036-.02783a18.78273,18.78273,0,0,0-1.92065.21851,4.24653,4.24653,0,0,1,1.80322-.96454,7.07077,7.07077,0,0,1,2.04224-.19177,8.373,8.373,0,0,1,1.99072.37732A6.13556,6.13556,0,0,1,368.71621,107.842Z" fill="#020202"/><path d="M364.25671,113.333a1.45253,1.45253,0,0,0,0-2.90332,1.45253,1.45253,0,0,0,0,2.90332Z" fill="#020202"/><path d="M361.70132,123.053a3.20483,3.20483,0,0,1-2.67774,3.15918,3.14568,3.14568,0,0,1-2.48242-.67676,3.23778,3.23778,0,0,1-.00342-4.9682,3.14343,3.14343,0,0,1,2.48584-.67847A3.21008,3.21008,0,0,1,361.70132,123.053Zm0,0a2.28235,2.28235,0,0,0-.87866-1.7992,2.17324,2.17324,0,0,0-1.79908-.39221,2.26216,2.26216,0,0,0,0,4.38782,2.17664,2.17664,0,0,0,1.8003-.39606A2.28753,2.28753,0,0,0,361.70132,123.053Z" fill="#020202"/><path d="M381.79067,199.90271a9.13923,9.13923,0,0,0,1.561-1.63647,18.69874,18.69874,0,0,0,1.26391-1.85138.342.342,0,0,1,.27417-.16468l.03663-.00177.00952-.00042-.31079.16589a28.43306,28.43306,0,0,0,1.5559-3.03357c.23218-.52.4358-1.05243.64771-1.58215l.29541-.79254c.08716-.26288.18848-.57337.30542-.8476a4.24527,4.24527,0,0,1,1.08276-1.621,1.11191,1.11191,0,0,1,.65113-.2063.60811.60811,0,0,1,.34179.08246.774.774,0,0,1,.27393.16949,2.59943,2.59943,0,0,1,.5686.84088,7.03507,7.03507,0,0,1,.511,3.50147,8.79216,8.79216,0,0,0-1.07886-3.21558,2.3091,2.3091,0,0,0-.45117-.55444c-.16357-.07892-.17578-.07507-.31982.02631a3.70586,3.70586,0,0,0-.72583,1.31414c-.17823.49482-.34668,1.0915-.5586,1.64118-.19824.55554-.43652,1.09649-.68359,1.63318a17.51564,17.51564,0,0,1-1.794,3.06l-.02075.02808a.34344.34344,0,0,1-.29028.13806l-.00952-.00049.31054-.16626a12.69436,12.69436,0,0,1-1.54175,1.75275A7.214,7.214,0,0,1,381.79067,199.90271Z" fill="#020202"/><path d="M385.90811,201.64471a58.042,58.042,0,0,0,3.17236-5.2594,29.0426,29.0426,0,0,0,1.25244-2.76977,23.71262,23.71262,0,0,0,.87866-2.94171,10.17448,10.17448,0,0,1-.33935,3.11474,15.40879,15.40879,0,0,1-1.14746,2.92987A16.94653,16.94653,0,0,1,385.90811,201.64471Z" fill="#020202"/><path d="M347.73287,187.61252a1.45252,1.45252,0,0,0,0-2.90331,1.45252,1.45252,0,0,0,0,2.90331Z"/><path d="M353.82983,185.87054a1.45253,1.45253,0,0,0,0-2.90332,1.45253,1.45253,0,0,0,0,2.90332Z"/><path d="M361.40748,186.13183a1.45252,1.45252,0,0,0,0-2.90331,1.45252,1.45252,0,0,0,0,2.90331Z"/><path d="M368.28834,184.21565a1.45253,1.45253,0,0,0,0-2.90332,1.45253,1.45253,0,0,0,0,2.90332Z"/><path d="M373.9498,180.38327a1.45252,1.45252,0,0,0,0-2.90331,1.45252,1.45252,0,0,0,0,2.90331Z"/><path d="M301.83146,180.993a1.45253,1.45253,0,0,0,0-2.90332,1.45253,1.45253,0,0,0,0,2.90332Z"/><path d="M307.66713,182.29946a1.45253,1.45253,0,0,0,0-2.90332,1.45253,1.45253,0,0,0,0,2.90332Z"/><path d="M313.85119,182.735a1.45253,1.45253,0,0,0,0-2.90332,1.45253,1.45253,0,0,0,0,2.90332Z"/><path d="M289.11494,415.81307a1.45252,1.45252,0,0,0,0-2.90331,1.45252,1.45252,0,0,0,0,2.90331Z"/><path d="M296.2571,418.07766a1.45253,1.45253,0,0,0,0-2.90332,1.45253,1.45253,0,0,0,0,2.90332Z"/><path d="M304.27025,419.99384a1.45252,1.45252,0,0,0,0-2.90331,1.45252,1.45252,0,0,0,0,2.90331Z"/><path d="M313.32859,420.86484a1.45253,1.45253,0,0,0,0-2.90332,1.45253,1.45253,0,0,0,0,2.90332Z"/><path d="M322.38693,419.99384a1.45252,1.45252,0,0,0,0-2.90331,1.45252,1.45252,0,0,0,0,2.90331Z"/><path d="M331.27108,416.68407a1.45253,1.45253,0,0,0,0-2.90332,1.45253,1.45253,0,0,0,0,2.90332Z"/><path d="M340.32942,417.38086a1.45252,1.45252,0,0,0,0-2.90331,1.45252,1.45252,0,0,0,0,2.90331Z"/><path d="M348.691,420.86484a1.45253,1.45253,0,0,0,0-2.90332,1.45253,1.45253,0,0,0,0,2.90332Z"/><path d="M357.40091,422.08423a1.45252,1.45252,0,0,0,0-2.90331,1.45252,1.45252,0,0,0,0,2.90331Z"/><path d="M367.15605,422.08423a1.45252,1.45252,0,0,0,0-2.90331,1.45252,1.45252,0,0,0,0,2.90331Z"/><path d="M375.866,420.168a1.45252,1.45252,0,0,0,0-2.90331,1.45252,1.45252,0,0,0,0,2.90331Z"/><path d="M382.65975,416.68407a1.45253,1.45253,0,0,0,0-2.90332,1.45253,1.45253,0,0,0,0,2.90332Z"/><path d="M360.56754,105.29059a1.45253,1.45253,0,0,0,0-2.90332,1.45253,1.45253,0,0,0,0,2.90332Z" fill="#b21919"/><circle cx="298.97364" cy="100.52862" r="0.99319" fill="#fff"/></svg>