<svg id="Layer_1" data-name="Layer 1" xmlns="http://www.w3.org/2000/svg" viewBox="0 0 700 550"><title>video calling</title><path d="M401.38176,225.55168a68.84341,68.84341,0,0,1-7.214,14.12205,48.1816,48.1816,0,0,1-4.959,6.25956q-1.3776,1.45518-2.881,2.79165a20.56319,20.56319,0,0,1-3.269,2.42468,17.39263,17.39263,0,0,1-22.31159-3.5158,33.43806,33.43806,0,0,1-4.45807-6.62119,73.88362,73.88362,0,0,1-3.24954-7.2391,25.547,25.547,0,0,1-1.33328-3.75364c-.335-1.28556-.59928-2.58186-.85208-3.87965-1.00211-5.1915-1.76029-10.41737-2.48343-15.64658-1.387-10.46742-2.43628-20.9665-3.33029-31.48571l.35446.61041a8.95141,8.95141,0,0,1-1.95532-2.10266,12.43928,12.43928,0,0,1-1.291-2.43764,15.896,15.896,0,0,1-1.06339-5.30748,22.93306,22.93306,0,0,1,.45005-5.3152,44.78011,44.78011,0,0,1,1.41064-5.04538c.493-1.63255.96585-3.28551,1.28845-4.92943a11.77644,11.77644,0,0,0,.17472-1.20761,3.12192,3.12192,0,0,0,.006-.52672,4.06233,4.06233,0,0,1-.022-.76452,5.15611,5.15611,0,0,1,1.07074-2.68318,3.62356,3.62356,0,0,1,1.15155-.98357,2.54762,2.54762,0,0,1,1.56909-.27406,3.21469,3.21469,0,0,1,1.39221.58728,3.63385,3.63385,0,0,1,1.02957,1.0523,3.72173,3.72173,0,0,1,.33365,2.82129,19.40907,19.40907,0,0,0-.55011,2.45561l-.00891-.0787a32.99066,32.99066,0,0,1,.465,4.6124,36.69975,36.69975,0,0,1-.12674,4.60562l-.15464-.00989a36.4035,36.4035,0,0,0-.14816-4.56781,32.87768,32.87768,0,0,0-.722-4.48253l-.00968-.0403.0007-.03882a18.15166,18.15166,0,0,1,.45661-2.60453,2.86544,2.86544,0,0,0-.30722-2.173,2.78162,2.78162,0,0,0-1.7804-1.12093,1.88732,1.88732,0,0,0-1.68887.9267,4.17586,4.17586,0,0,0-.76486,2.07655,2.65507,2.65507,0,0,0,.03057.524,4.192,4.192,0,0,1,.01862.76329,12.92447,12.92447,0,0,1-.159,1.35364c-.2977,1.747-.73422,3.42368-1.19378,5.10132a43.43141,43.43141,0,0,0-1.24955,4.93686,22.11166,22.11166,0,0,0-.38806,4.96478,14.31427,14.31427,0,0,0,.97757,4.77461,10.83014,10.83014,0,0,0,1.13349,2.115,7.64185,7.64185,0,0,0,1.54232,1.6732l.3256.24278.029.36794c.8295,10.50034,1.73306,21.00485,2.78543,31.48691.52484,5.24031,1.07654,10.48495,1.95651,15.67113.23557,1.29255.48288,2.58392.79758,3.85391a25.01989,25.01989,0,0,0,1.26752,3.706,69.48231,69.48231,0,0,0,3.33093,7.13594,29.22243,29.22243,0,0,0,4.57172,6.31317,16.734,16.734,0,0,0,6.32446,4.239,17.20849,17.20849,0,0,0,7.48639.99017,18.28077,18.28077,0,0,0,7.19916-2.28112,29.0768,29.0768,0,0,0,5.94473-4.90024,59.9306,59.9306,0,0,0,5.02295-5.9913,84.89818,84.89818,0,0,0,7.88421-13.61177Z"/><path d="M365.936,149.16283v-13.45l-15.29-2.51v43.65l15.26-4.45.03-.00994v-.03l-.13995-6.2-2.3.44a1.06727,1.06727,0,0,1-.68-.41v3.11l-9.01,3.69v-36.07l9.01,2.07v11.56A5.35783,5.35783,0,0,1,365.936,149.16283Zm-2.88995,12.89c-.08-.07-.16-.15-.23-.22v1.13995a2.396,2.396,0,0,1,.23-.22,1.72546,1.72546,0,0,1,.68-.36Zm-.23-5.5v1.27a4.08937,4.08937,0,0,1,.4-.46A4.31525,4.31525,0,0,1,362.816,156.55285Zm0-2.59v.55a1.2063,1.2063,0,0,1,.3-.39A1.8133,1.8133,0,0,1,362.816,153.96282Z"/><path d="M362.306,164.65282a3.82465,3.82465,0,0,0,.18.93006l-8.68,3.91s.28-19.99,4.65-21.34c-4.5,0-4.49-6.97,0-6.97,4.4,0,4.47,6.68.25,6.95.74.03,2.9.96,3.76,10.23a2.70572,2.70572,0,0,0,.23,3.34c.03.43.04.88.06,1.35A2.27,2.27,0,0,0,362.306,164.65282Z"/><path d="M365.084,172.63772c1.94956,6.41829,3.60529,12.87694,5.28736,19.33164l2.47546,9.69229q1.25734,4.84252,2.43207,9.72845a122.654,122.654,0,0,1-6.407-19.034A149.39047,149.39047,0,0,1,365.084,172.63772Z"/><path d="M368.95693,220.50113a13.37072,13.37072,0,0,1,1.26376-2.95887,18.2977,18.2977,0,0,1,1.77817-2.65248,13.80765,13.80765,0,0,1,2.281-2.292,7.37865,7.37865,0,0,1,1.40609-.8879,2.85955,2.85955,0,0,1,1.63822-.31978,8.08929,8.08929,0,0,0-2.20478,2.07785l-1.91381,2.393c-.65012.79631-1.29792,1.60372-2.00183,2.37725A23.02818,23.02818,0,0,1,368.95693,220.50113Z"/><path d="M418.66979,197.48349c-2.40469,4.75064-4.82889,9.48492-7.08414,14.29063-1.15661,2.38851-2.234,4.81151-3.27322,7.24094a52.60129,52.60129,0,0,0-2.618,7.40254l-.15909.6389-.61545-.11766a56.05585,56.05585,0,0,1-8.44168-2.39771,67.05207,67.05207,0,0,1-7.99118-3.52568,56.57792,56.57792,0,0,1-7.36173-4.67962,36.05586,36.05586,0,0,1-6.148-6.222l-.12378-.15931.09134-.20694c2.87421-6.51215,5.859-12.97368,9.14609-19.29616,1.64072-3.162,3.308-6.31484,5.1337-9.3916.91614-1.53627,1.86279-3.0596,2.89606-4.54178q.77655-1.10977,1.65069-2.17658a10.79288,10.79288,0,0,1,2.08978-2.00766l-.07769.05759a60.41139,60.41139,0,0,1,6.11767-4.2244,70.26369,70.26369,0,0,1,6.48828-3.54808,66.39271,66.39271,0,0,1,6.81916-2.83238,57.76514,57.76514,0,0,1,7.09417-1.97682l.0376.15031a69.544,69.544,0,0,0-6.87585,2.49248,65.48266,65.48266,0,0,0-6.57459,3.14864c-2.13589,1.15471-4.23684,2.37442-6.25732,3.71683a69.56773,69.56773,0,0,0-5.83582,4.27737l-.078.05785a16.80255,16.80255,0,0,0-3.24085,3.80827c-.98858,1.44072-1.93334,2.929-2.83728,4.445q-2.72072,4.544-5.23956,9.23658-2.51284,4.68748-4.95636,9.42044c-1.622,3.15712-3.27286,6.30552-4.83172,9.49393l-.03238-.3659a30.36723,30.36723,0,0,0,5.85659,6.249,40.86971,40.86971,0,0,0,7.31046,4.55872,60.15874,60.15874,0,0,0,8.04831,3.09108,69.53413,69.53413,0,0,0,8.34235,2.0013l-.77427.5211a44.04707,44.04707,0,0,1,2.71125-7.62721c1.06894-2.45644,2.2445-4.85738,3.46847-7.22837,2.48566-4.72357,5.11279-9.36319,7.99194-13.85135Z"/><path d="M406.51671,169.49176a12.40238,12.40238,0,0,1,4.7363-.51157,12.0515,12.0515,0,0,1,4.707,1.30463,8.57807,8.57807,0,0,1,3.51431,3.497,8.67337,8.67337,0,0,1,.98783,4.697,15.25425,15.25425,0,0,0-2.01078-4.05234,9.59035,9.59035,0,0,0-3.22811-2.77959,16.49079,16.49079,0,0,0-4.14362-1.47473A36.702,36.702,0,0,0,406.51671,169.49176Z"/><path d="M413.48943,122.88293a13.95262,13.95262,0,0,0-1.1192,3.38557,23.80039,23.80039,0,0,0-.39853,3.51672,29.48869,29.48869,0,0,0,.10535,3.52565c.11029,1.17118.30041,2.33238.50927,3.48946l.05078.2813-.17425.24775c-.57822.822-1.14206,1.66828-1.69556,2.50877-.55246.83818-1.10721,1.6896-1.56308,2.54122-.11789.214-.21643.42146-.30728.62456l-.10055.27078c-.01185.03821.001.0309-.00782.04643l-.011.014a.1461.1461,0,0,0,.00451-.07273c-.07235-.195-.06616-.0635.12058.00386a3.07692,3.07692,0,0,0,.57.217,14.77335,14.77335,0,0,0,2.84585.44079l.54923.04018.13592.52106a39.62145,39.62145,0,0,0,1.31015,4.11678,30.544,30.544,0,0,0,1.77988,3.94262,15.696,15.696,0,0,0,2.47772,3.49669,6.41875,6.41875,0,0,0,3.75012,1.98415,6.2465,6.2465,0,0,1-4.16205-1.52289,14.29479,14.29479,0,0,1-2.978-3.41337,28.14,28.14,0,0,1-2.10425-3.98626,35.11874,35.11874,0,0,1-1.5192-4.25033l.68491.561a16.09864,16.09864,0,0,1-3.1918-.45786,4.53193,4.53193,0,0,1-.85764-.32055,2.1849,2.1849,0,0,1-.47894-.31276,1.36049,1.36049,0,0,1-.25571-.29027.99386.99386,0,0,1-.18689-.43322,1.92894,1.92894,0,0,1-.04034-.25848l.02-.17432a2.377,2.377,0,0,1,.06555-.32792c.05432-.148.10873-.31.16867-.44426.11975-.26117.24463-.51149.3757-.74253.51984-.93879,1.09317-1.78891,1.67252-2.64489.58633-.84932,1.19662-1.66964,1.82086-2.49353l-.12341.5287-.23526-1.8236c-.03348-.61369-.09458-1.22337-.104-1.83712a23.04993,23.04993,0,0,1,.1716-3.67191,18.24368,18.24368,0,0,1,.8115-3.57453A11.459,11.459,0,0,1,413.48943,122.88293Z"/><path d="M410.79331,121.58136s7.80946,10.41248,15.0611,11.62115c0,0,3.53285-7.15861,6.69382-2.32418s0,9.57588-1.95237,10.04073c0,0-9.48291,8.64618-8.92509,22.4057,0,0,17.94315,1.76642,29.84328-3.43988s17.4783-10.04073,17.4783-10.04073-13.01576-12.45794-16.5486-21.383-4.83443-18.77989-16.36267-17.47831S418.97465,113.95784,410.79331,121.58136Z"/><path d="M413.7882,149.07623a16.94614,16.94614,0,0,0,2.59729-.8419,4.78245,4.78245,0,0,0,1.06259-.68817,5.62463,5.62463,0,0,0,.87579-1.04892,2.37411,2.37411,0,0,1-.41788,1.44366,3.11785,3.11785,0,0,1-1.18978.99353A3.91267,3.91267,0,0,1,413.7882,149.07623Z"/><path d="M416.18556,137.06082a1.16282,1.16282,0,0,0,0-2.32425,1.16282,1.16282,0,0,0,0,2.32425Z"/><path d="M413.7882,133.48148a2.45863,2.45863,0,0,1,1.08154-1.08112,5.88747,5.88747,0,0,1,1.406-.56958,6.70371,6.70371,0,0,1,2.97784-.11573,19.85067,19.85067,0,0,1-2.78113.86461c-.45859.11382-.90832.24211-1.35876.37135A5.70761,5.70761,0,0,0,413.7882,133.48148Z"/><path d="M430.96774,138.44374a.87211.87211,0,0,0,0-1.74318.87211.87211,0,0,0,0,1.74318Z"/><path d="M463.00039,153.9843a29.912,29.912,0,0,1,7.58978,2.71286,33.7309,33.7309,0,0,1,6.75644,4.515,25.98158,25.98158,0,0,1,5.22564,6.269,20.24792,20.24792,0,0,1,2.59684,7.65068,32.05176,32.05176,0,0,0-3.61591-6.99988,33.44308,33.44308,0,0,0-5.22754-5.75551,49.01274,49.01274,0,0,0-6.32376-4.62828A68.363,68.363,0,0,0,463.00039,153.9843Z"/><path d="M352.52636,232.12369a71.65814,71.65814,0,0,0-18.62085-8.26609,60.35052,60.35052,0,0,0-20.05506-2.30731,48.64419,48.64419,0,0,0-19.31366,5.265c-5.989,3.01012-11.33258,7.29831-16.476,11.73991A245.31365,245.31365,0,0,0,249.965,268.3825c-8.558,10.6888-16.58886,21.81954-24.08038,33.25679l.0636-.11456a12.08263,12.08263,0,0,0-.58679,3.36191c.00793.59137-.03681,1.17932.00281,1.77057l.15576,1.7735c.09259.58767.22455,1.1719.33343,1.75747.06012.29206.10694.58643.17737.87635l.26575.8594.5282,1.71775c.20208.56445.46313,1.11108.691,1.6672l.70954,1.65927.872,1.59055.86944,1.5899c.30219.523.66877,1.01184.99671,1.52112l1.01111,1.51291a14.055,14.055,0,0,0,1.06408,1.47736l2.28394,2.85055c.74316.96393,1.64844,1.8002,2.4638,2.70657.8534.87424,1.63447,1.81458,2.54578,2.63468l2.7016,2.48892c.90021.82962,1.78375,1.67648,2.76135,2.42319l2.86286,2.31335c.961.76258,1.88458,1.57019,2.90515,2.26013l5.97326,4.32334.39325.28464.10895.43768c.596,2.39477,1.18231,4.78384,1.73816,7.193.26965,1.2124.53937,2.40222.768,3.673l.07953.50946.03009.35266.00555.08816a.69957.69957,0,0,0-.008-.20089.8192.8192,0,0,0-.08392-.24415c-.04352-.081-.099-.14456-.078-.12347.00677-.00653-.00763-.01724-.00116-.00571l.115.09284c.06329.06079.19812.1412.293.212a14.9968,14.9968,0,0,0,1.47192.84418,42.36422,42.36422,0,0,0,6.66583,2.61026A63.937,63.937,0,0,0,276.0634,364.12a71.06789,71.06789,0,0,0,14.47107,1.194,82.39341,82.39341,0,0,0,14.4892-1.59745l-.53442.9018-3.47461-12.90054-3.3841-12.92679.22321-.0647,4.05347,12.73276,3.96295,12.759.225.7243-.75958.17771c-2.41589.56524-4.85461,1.04364-7.3147,1.407-2.46252.34418-4.94409.55627-7.43139.66376a73.10254,73.10254,0,0,1-14.91028-.905,53.15675,53.15675,0,0,1-14.401-4.35733,17.247,17.247,0,0,1-1.73365-.97583c-.15362-.10983-.28662-.18414-.45593-.32514l-.24255-.19827a4.07912,4.07912,0,0,1-.31647-.34176,1.08231,1.08231,0,0,1-.1366-.22086,1.70644,1.70644,0,0,1-.129-.35025,1.94835,1.94835,0,0,1-.0481-.3082l-.00513-.02661-.01281-.10641-.06757-.40079c-.218-1.14749-.50177-2.35462-.77844-3.53952-.55127-2.38275-1.13007-4.77194-1.71942-7.15027l.502.72205-6.06128-4.40372c-1.02539-.71246-1.96149-1.54895-2.93127-2.338l-2.88935-2.39411c-.98394-.772-1.881-1.65075-2.79248-2.51126l-2.73327-2.58154c-.92035-.85013-1.71955-1.83075-2.58448-2.73975-.82965-.94424-1.74176-1.81085-2.50225-2.81885a49.40286,49.40286,0,0,1-7.93348-12.87182c-1.824-4.70462-3.03424-9.97235-1.20337-15.17438l.017-.04834.04676-.06659c3.95251-5.62976,8.02771-11.14111,12.17968-16.60486,4.163-5.452,8.33228-10.89853,12.67231-16.21064,8.63366-10.648,17.38-21.26806,27.44268-30.71593,2.50159-2.375,5.16315-4.58675,7.90192-6.71166a59.477,59.477,0,0,1,8.84076-5.56857,50.60484,50.60484,0,0,1,20.14679-5.20879,57.9,57.9,0,0,1,20.51971,2.91584c1.64933.5208,3.27,1.124,4.87217,1.767,1.59079.67224,3.16446,1.38029,4.7044,2.15517a57.75346,57.75346,0,0,1,8.8147,5.35934Z"/><path d="M539.466,188.89288c-3.35-15.62-30.12-13.76-30.12-13.76-64.71-1.86-80.7,16.88-80.7,16.88-14.13,11.68-31.61,61-31.61,61l-87.73,1.94a24.95072,24.95072,0,0,0-14.74,5.1c-11.8,9.13-9.47,21.06-9.47,21.06,2.97,21.86,13.3,59.9,13.3,59.9,15.9,10.81,141.5,7.41,141.5,7.41,43.23-8.18,62.01-17.47,63.12-24.54,1.12-7.07,17.48-61.73,26.78-88.51C539.09605,208.60284,542.806,204.51287,539.466,188.89288Zm-130.81,93.00994q-.63006,7.84508-1.07,15.71l-.92,15.73c-.28,5.25-.63,10.49-.99,15.75q-.345-7.88993-.21-15.79c.05-5.27.27-10.53.57-15.78.16-2.63.37-5.26.57995-7.88.27-2.62.48005-5.25.84-7.86005a110.67439,110.67439,0,0,1,2.87-15.54C409.526,271.44286,409.10606,276.68285,408.656,281.90282Zm29.36-76.89a106.62877,106.62877,0,0,0-9.09,14.11,156.43693,156.43693,0,0,0-7.17,15.22c-1.08,2.6-2.08,5.23-3.02,7.89-.97,2.64-1.85,5.32-2.68,8.02.49-2.79,1.23-5.52,1.96-8.26q1.2-4.065,2.63-8.07a114.07679,114.07679,0,0,1,6.92-15.54c1.38-2.49,2.83-4.93,4.4-7.3a77.34985,77.34985,0,0,1,5.13-6.82,72.88039,72.88039,0,0,1,5.92-6.13,53.006,53.006,0,0,1,6.82-5.06A67.79267,67.79267,0,0,0,438.016,205.01287Zm9.59,118.7-.02-.27,3.71-.46.06.41Zm7.48-.87994-.11-.55,3.65-.84.15.68Zm7.36-1.52-.2-.82,3.61005-.99.24.9Zm7.28-1.87-.28-.99,3.58-1.09.32,1.06Zm7.22-2.08-.35-1.14,3.55-1.17.4,1.22Zm7.18-2.21-.43-1.3,3.53-1.24.47,1.38Zm9.28-3.61-.04.5-.46.16-1.65.58-.5-1.41,1.17-.42.09-1.26,1.52.13Zm.51-5.09-1.54-.2.47-3.39,1.56.25Zm1.07-6.67-1.58-.28.63-3.35,1.59.31Zm1.35-6.62-1.62-.35.73-3.33,1.64.38Zm1.54-6.59-1.66-.41.81-3.3,1.68.42Zm1.68-6.57-1.69-.44.9-3.29,1.65.45Zm1.75-6.55-1.63-.46.94-3.27,1.6.46Zm1.84-6.53-1.57-.46.97-3.26,1.55.46Zm1.92-6.51-1.52-.46,1.01-3.24,1.49.46Zm1.98-6.48-1.47-.46,1.04-3.24,1.44.46Zm2.03-6.47-1.41-.46,1.08-3.22,1.36005.45Zm2.05-6.47-1.28-.42,1.11-3.21,1.21.4Zm2.08-6.45-1.13-.39,1.13-3.2,1.06.36Zm2.13-6.44-.98-.34,1.15-3.2.91.32Zm2.17-6.43-.84-.29,1.19-3.18.72.25Zm2.16-6.43-.61-.22,1.22-3.16.48.17Zm2.19-6.42-.36005-.13,1.23-3.16.25.09Z"/><path d="M256.83544,347.6837c3.25274-6.87375,6.91217-13.51343,10.67126-20.09577,3.79962-6.559,7.70136-13.05926,12.01337-19.32339-3.24951,6.87558-6.9093,13.515-10.6712,20.09579C265.04644,334.91771,261.14428,341.41774,256.83544,347.6837Z"/><path d="M353.03919,348.27352c-.02588,4.74806-.34112,9.46349-.72494,14.19071q-.32836,3.53723-.74573,7.07789-.47475,3.52794-1.06387,7.05989c-.39435,2.35324-.69132,4.75125-1.08167,7.15144a25.00529,25.00529,0,0,1-2.25751,6.95411,28.30106,28.30106,0,0,1-4.23553,6.36226c-.43591.49229-.93863.97086-1.41937,1.42633a18.63134,18.63134,0,0,1-1.62647,1.28549,7.87892,7.87892,0,0,1-4.00906,1.48323l-.4025-.805a12.95381,12.95381,0,0,0,1.15726-3.19089l.36606-1.60124.33365-1.613c.44207-2.14893.88156-4.31513,1.39968-6.48232a36.46486,36.46486,0,0,1,2.15638-6.36855c.93307-2.08764,1.89508-4.19735,2.64264-6.382q1.14326-3.26875,2.201-6.59216,1.12207-3.30639,2.17334-6.6525c1.45322-4.44884,2.82044-8.94156,4.24683-13.43861Z"/><path d="M406.1182,348.81106,420.83,393.69443c1.23883,3.72147,2.64429,7.39337,4.04856,11.04855a100.57269,100.57269,0,0,1,3.48889,11.14948c.95346,3.7691,1.794,7.5667,2.60052,11.36582.404,1.89605.78794,3.80926,1.21158,5.6876a27.10275,27.10275,0,0,0,1.59369,5.50857l-.59055.67915a10.34828,10.34828,0,0,1-1.41162-.90261c-.4003-.35088-.825-.71675-1.21643-1.09624a30.70974,30.70974,0,0,1-2.07785-2.40183,46.81053,46.81053,0,0,1-3.43307-5.15972,84.31775,84.31775,0,0,1-5.23557-10.89893,71.16638,71.16638,0,0,1-3.47436-11.40644c-.83756-3.88786-1.5636-7.79116-2.44171-11.6485l-2.50919-11.58983-2.25272-11.63543c-1.40634-7.7753-2.77374-15.54979-3.88836-23.37842Z"/><path d="M493.09318,333.20925q3.15142,12.18381,7.17306,24.071c1.3327,3.95714,2.69818,7.89634,4.19022,11.784l1.06833,2.92987,1.14047,2.90129c.77557,1.927,1.48019,3.87936,2.32416,5.77475.823,1.90375,1.65249,3.8026,2.52063,5.68285l2.77282,5.55238c.86377,1.87412,1.8302,3.69182,2.68189,5.55982.88077,1.853,1.59286,3.79234,2.429,5.66336,3.05851,7.66683,6.32123,15.14632,8.91141,23.50921l-.74.51229c-1.70395-1.38068-3.23727-2.90985-4.79169-4.44461-.75039-.78372-1.54626-1.54866-2.22619-2.383q-1.035-1.24278-2.033-2.51912c-.66544-.85045-1.32678-1.70671-1.96863-2.57663-.65549-.86239-1.292-1.73918-1.86066-2.64862-1.16406-1.80746-2.28088-3.64732-3.379-5.50116a60.37589,60.37589,0,0,1-2.88712-5.75087c-.44116-.97719-.86123-1.96381-1.26816-2.95546-.40942-.99109-.7218-2.01831-1.08685-3.0247l-1.98508-6.10741c-.59265-2.05521-1.22387-4.09183-1.86166-6.12355-.67361-2.01993-1.20245-4.0836-1.802-6.12243l-.87436-3.06437-.79846-3.08364c-1.04474-4.11616-1.95377-8.26025-2.82395-12.404a230.37869,230.37869,0,0,1-3.71463-25.09343Z"/><path d="M309.139,344.57983c-2.96533,7.48184-6.14721,14.85951-9.3609,22.23016l-4.94073,11.00124-5.15845,10.90562c-1.74774,3.624-3.37176,7.321-5.07574,10.98627a75.61815,75.61815,0,0,1-5.99,10.53267,90.46251,90.46251,0,0,1-7.541,9.68508,51.03031,51.03031,0,0,1-4.4809,4.416,28.1022,28.1022,0,0,1-2.60491,1.96283,11.88919,11.88919,0,0,1-1.51679.82742l-.42462.16369-.48023.12629a2.7273,2.7273,0,0,1-.54425.05191,1.8065,1.8065,0,0,1-.60046-.14555l.26843-.859a3.36618,3.36618,0,0,0,.67786-.81389,11.44865,11.44865,0,0,0,.69977-1.19439c.43756-.85366.87341-1.724,1.26751-2.62752l2.4303-5.41174c1.63037-3.61344,3.31122-7.21027,5.0979-10.7545a100.61093,100.61093,0,0,1,5.96845-10.31465c2.21142-3.32414,4.44781-6.64731,6.52044-10.065l12.4361-20.55094L308.3342,344.177Z"/><path d="M181.33272,320.82467s3.92073,9.40116-.73346,13.45747a37.81376,37.81376,0,0,1-16.9159-14.09816s-15.78233-.1315,12.73264,22.37284c0,0,36.16626,31.39689,38.92437,31.94738,6.92744,1.38264,5.14457-8.75645,5.14457-8.75645s-23.52047-16.36514-27.52979-20.96541c0,0,2.82441-12.6925-.82719-17.69942Z"/><path d="M163.68334,320.184a7.37426,7.37426,0,0,1,4.04974-1.30093,17.67849,17.67849,0,0,1,4.30908.26669,39.64816,39.64816,0,0,1,8.21839,2.57855l3.88251,1.79288c1.28643.58621,2.59588,1.11749,3.91961,1.60422a46.90513,46.90513,0,0,0,8.13855,2.19812,33.229,33.229,0,0,0,8.38233.42163,29.4069,29.4069,0,0,0,4.15936-.60883,33.35527,33.35527,0,0,0,4.06085-1.1181,37.529,37.529,0,0,0,7.61255-3.67136,54.21867,54.21867,0,0,0,6.86285-5.04336,41.14928,41.14928,0,0,1-14.19409,9.4881,32.54721,32.54721,0,0,1-17.06427,1.612c-5.72223-.90393-11.08783-3.29749-16.14691-5.81195a39.35686,39.35686,0,0,0-7.94745-2.85553,19.33976,19.33976,0,0,0-4.18017-.52,10.6408,10.6408,0,0,0-2.097.20965A5.174,5.174,0,0,0,163.68334,320.184Z"/><path d="M242.85735,336.81929q-3.39916,3.15678-6.5896,6.49643c-1.05566,1.118-2.07849,2.26519-3.03217,3.45822a22.13884,22.13884,0,0,0-2.54577,3.72812,10.43518,10.43518,0,0,0-.75391,2.08166,21.69612,21.69612,0,0,1-.79059,2.24,26.63131,26.63131,0,0,1-2.28235,4.129,29.6198,29.6198,0,0,1-6.378,6.79507,48.65032,48.65032,0,0,0,5.54023-7.33383,33.488,33.488,0,0,0,2.09527-4.02688c.26538-.70407.57355-1.39438.7732-2.11866a11.01955,11.01955,0,0,1,.86041-2.251,32.45019,32.45019,0,0,1,6.01587-7.19565A76.03581,76.03581,0,0,1,242.85735,336.81929Z"/><path d="M238.43323,400.72069s9.6723,3.19385,9.68969,9.36757a37.81372,37.81372,0,0,1-21.73241,3.55075s-10.43522,11.84084,25.24611,5.02969c0,0,47.41239-6.76964,49.63469-8.49347,5.58166-4.32969-3.24821-9.62243-3.24821-9.62243s-27.771,7.05729-33.87314,7.07448c0,0-7.74223-10.44676-13.91747-10.96621Z"/><path d="M226.39049,413.639a7.37445,7.37445,0,0,1,1.669-3.91241,17.675,17.675,0,0,1,3.02356-3.08179,39.64939,39.64939,0,0,1,7.33093-4.5221l3.89752-1.75991c1.28552-.58829,2.54456-1.22992,3.7793-1.9115a46.904,46.904,0,0,0,6.991-4.71091,33.22584,33.22584,0,0,0,5.80822-6.05853,29.403,29.403,0,0,0,2.26386-3.542,33.34584,33.34584,0,0,0,1.81451-3.80108,37.52944,37.52944,0,0,0,2.21094-8.15732,54.21991,54.21991,0,0,0,.68311-8.48923,41.14917,41.14917,0,0,1-2.12537,16.94043,32.5475,32.5475,0,0,1-9.95721,13.95145c-4.43061,3.73239-9.75336,6.21973-14.96674,8.39621a39.35725,39.35725,0,0,0-7.36273,4.13592,19.34151,19.34151,0,0,0-3.13062,2.81852,10.644,10.644,0,0,0-1.21484,1.722A5.17319,5.17319,0,0,0,226.39049,413.639Z"/><path d="M290.813,364.70039q.15957,4.63614.59393,9.23435c.15357,1.53.35065,3.05426.62769,4.55627a22.139,22.139,0,0,0,1.1502,4.36539,10.43206,10.43206,0,0,0,1.07941,1.933,21.6911,21.6911,0,0,1,1.175,2.06445,26.63037,26.63037,0,0,1,1.62567,4.42884,29.62189,29.62189,0,0,1,.95819,9.27008,48.651,48.651,0,0,0-1.914-8.98981,33.49208,33.49208,0,0,0-1.671-4.22061c-.35828-.66162-.6781-1.34662-1.09473-1.97183a11.02053,11.02053,0,0,1-1.13757-2.12442,32.448,32.448,0,0,1-1.49817-9.25867A76.0529,76.0529,0,0,1,290.813,364.70039Z"/><path d="M365.936,172.39284l-.27655-6.2268.16211.131-2.29013.49039a.16438.16438,0,0,1-.05664.00216l-.01083-.00155a1.25751,1.25751,0,0,1-.80655-.47422l.00894.0109a2.99338,2.99338,0,0,1-.58173-1.68375,2.49293,2.49293,0,0,1,.48288-1.73791l-.01178.01614.05887-.0805.01346-.01844.00592-.00686a2.76742,2.76742,0,0,1,.46106-.40338,1.85881,1.85881,0,0,1,.58218-.268l-.06555.47925-.684-.33154a.24087.24087,0,0,1-.05124-.03342l-.00488-.00427a3.67854,3.67854,0,0,1-.89527-1.12979,2.78542,2.78542,0,0,1-.26376-1.45221,3.60554,3.60554,0,0,1,.43707-1.38462c.116-.20764.24857-.40149.37336-.60266.14141-.19253.3124-.37191.46948-.55658l-.05307.40821a4.99757,4.99757,0,0,1-.66794-1.76349,2.45628,2.45628,0,0,1,.07074-1.00586,1.95294,1.95294,0,0,1,.56961-.91391l.08215.58883a3.11843,3.11843,0,0,1-.97149-.67037,1.92565,1.92565,0,0,1-.53748-1.109,2.76972,2.76972,0,0,1,.87531-2.11463,5.61385,5.61385,0,0,1,3.90033-1.79413,11.42761,11.42761,0,0,1,2.13629.018c.35333.035.704.08847,1.05337.15387l.52515.11267a1.92883,1.92883,0,0,1,.58075.2659,2.13972,2.13972,0,0,1,.8096.93115,2.24717,2.24717,0,0,1,.13031,1.22086,5.12783,5.12783,0,0,1-.96182,2.00094l-.13855-.53772a5.58349,5.58349,0,0,1,1.24222.84113,3.605,3.605,0,0,1,.92288,1.23248,2.335,2.335,0,0,1,.098,1.5904,3.71836,3.71836,0,0,1-.73526,1.3457l-.03034-.46076a7.78659,7.78659,0,0,1,1.18439,1.47409,4.49675,4.49675,0,0,1,.68741,1.80137,2.68486,2.68486,0,0,1-.48975,1.91647,4.26851,4.26851,0,0,1-1.48236,1.22269l.12409-.33786a8.68986,8.68986,0,0,1,.48419,2.56219,5.37639,5.37639,0,0,1-.496,2.56415,3.79207,3.79207,0,0,1-1.86191,1.81241,6.03048,6.03048,0,0,1-1.21771.44421c-.41941.09039-.84708.13492-1.26813.20361l.03439-.00961a5.2025,5.2025,0,0,0-1.60818,1.281l-.00437.00488s-.00222-.00238-.01315-.00321l-.01327.03754a5.13513,5.13513,0,0,0-1.12674,2.42246,5.19522,5.19522,0,0,1,1.03311-2.49738l-.013.0372a.25656.25656,0,0,1,.0466-.08285l-.00412.00454a5.352,5.352,0,0,1,1.61151-1.3988l.01462-.00549.02017-.00425c.408-.086.82171-.14718,1.22128-.25164a5.72874,5.72874,0,0,0,1.135-.47159,3.58352,3.58352,0,0,0,1.641-1.70322,4.93616,4.93616,0,0,0,.3924-2.36279,8.22019,8.22019,0,0,0-.50937-2.384.27411.27411,0,0,1,.11011-.32938l.014-.00876a3.72122,3.72122,0,0,0,1.25522-1.07895,2.069,2.069,0,0,0,.34628-1.50131,5.58984,5.58984,0,0,0-1.70181-2.8649.34763.34763,0,0,1-.03592-.45358l.00556-.00748A3.05545,3.05545,0,0,0,372,156.40643a1.64067,1.64067,0,0,0-.07691-1.14356,3.88836,3.88836,0,0,0-1.82654-1.69464l-.005-.0025a.36387.36387,0,0,1-.1619-.48847l.02823-.047a4.46731,4.46731,0,0,0,.81464-1.69406,1.32424,1.32424,0,0,0-.62137-1.40252,1.23558,1.23558,0,0,0-.35336-.16413l-.48633-.1c-.32828-.05994-.6604-.10358-.99252-.13953a10.68051,10.68051,0,0,0-1.992-.03381,4.8865,4.8865,0,0,0-3.43411,1.52462,2.1217,2.1217,0,0,0-.71573,1.561,1.69355,1.69355,0,0,0,1.06085,1.22381l.01221.00568a.34582.34582,0,0,1,.16721.4596.35137.35137,0,0,1-.09726.12378,1.42083,1.42083,0,0,0-.33417.56524,1.79141,1.79141,0,0,0-.05387.73169,2.99005,2.99005,0,0,0,.203.7673l.35751.73218a.37378.37378,0,0,1-.04779.40229l-.00531.00625c-.12967.15646-.27072.29913-.39526.46335-.11328.1759-.238.34759-.34433.52649a2.998,2.998,0,0,0-.39463,1.13959,2.46341,2.46341,0,0,0,.91507,2.12445l-.05578-.03748.67563.3483a.25663.25663,0,0,1,.1105.34564.26617.26617,0,0,1-.17609.13373,1.44226,1.44226,0,0,0-.40814.18326,2.29008,2.29008,0,0,0-.36825.30523l.0191-.025-.06091.07916-.012.01648a2.03405,2.03405,0,0,0-.42053,1.408,2.6328,2.6328,0,0,0,.44168,1.45l.00922.0112a.8892.8892,0,0,0,.55313.34562l-.06708.00061,2.30945-.38953.00592-.001a.13413.13413,0,0,1,.15457.10993l.00186.02224Z"/><path d="M369.03825,167.93792a2.89241,2.89241,0,0,0-1.04682-1.54855,1.29637,1.29637,0,0,0-.81851-.18549,4.82954,4.82954,0,0,0-.908.21655,15.49741,15.49741,0,0,1-1.99377.4816,3.36707,3.36707,0,0,1-1.10642-.011,1.18058,1.18058,0,0,1-.95087-.82791l.012.031a4.0738,4.0738,0,0,1-.22678-1.09738,3.36549,3.36549,0,0,1,.09885-1.09955,2.56806,2.56806,0,0,1,.48135-.98526,3.36841,3.36841,0,0,1,.81165-.72324l.0129.22013a3.39161,3.39161,0,0,1-1.20132-.96183,2.47058,2.47058,0,0,1-.51392-1.49478,3.49517,3.49517,0,0,1,.39277-1.54c.13147-.22277.25476-.4555.397-.67172l.46564-.61542.0372.50678a3.101,3.101,0,0,1-.89008-1.30841,2.19541,2.19541,0,0,1,.09189-1.63849,2.49833,2.49833,0,0,1,1.10046-1.18,5.737,5.737,0,0,1,1.4093-.47318,13.81181,13.81181,0,0,1,2.808-.40268,5.002,5.002,0,0,1,2.76059.58432.03837.03837,0,0,1,.01208.05292.04052.04052,0,0,1-.0473.01505,5.69363,5.69363,0,0,0-2.685-.14844,16.89891,16.89891,0,0,0-2.65173.61584,6.164,6.164,0,0,0-1.20477.45282,1.86156,1.86156,0,0,0-.75989.82266,1.7902,1.7902,0,0,0,.51886,2.064l.01422.01376a.36059.36059,0,0,1,.023.49332,9.411,9.411,0,0,0-.8526,1.1138,3.45187,3.45187,0,0,0-.45871,1.2641,1.9939,1.9939,0,0,0,.30142,1.28482,2.65756,2.65756,0,0,0,1.03412.92383l.00562.003a.126.126,0,0,1,.051.17062.12742.12742,0,0,1-.04367.04669,2.35369,2.35369,0,0,0-.7446.656,2.00214,2.00214,0,0,0-.37634.9025,3.40929,3.40929,0,0,0,.33655,1.90207l.00329.00775.00879.02362c.15762.42325.81229.40637,1.43582.32708a18.41369,18.41369,0,0,0,1.92819-.38464,3.73415,3.73415,0,0,1,1.05674-.16885,1.78063,1.78063,0,0,1,1.071.37851,2.683,2.683,0,0,1,.87659,1.87939.03827.03827,0,0,1-.03412.042A.0427.0427,0,0,1,369.03825,167.93792Z"/><path d="M363.36336,162.0057a18.24546,18.24546,0,0,1,2.26059-.64959c.38455-.0791.77985-.11827,1.16745-.173a8.34555,8.34555,0,0,1,1.18408.00028,4.67529,4.67529,0,0,1,2.24372.68095,3.54793,3.54793,0,0,1,1.44552,1.7753,3.45214,3.45214,0,0,0-1.54251-1.60763,4.38784,4.38784,0,0,0-2.16083-.46151,7.9416,7.9416,0,0,0-1.11038.09316c-.36514.0845-.73175.15117-1.09009.25708a17.6158,17.6158,0,0,0-2.09976.80014l-.01623.00713a.388.388,0,0,1-.31159-.71065Z"/><path d="M371.66187,157.71276a3.88777,3.88777,0,0,0-1.89239-1.13473,5.94335,5.94335,0,0,0-2.19553-.1619,10.08913,10.08913,0,0,0-2.15835.45422c-.347.12992-.69663.2461-1.03827.38529l-1.011.455-.02316.01044a.38345.38345,0,0,1-.31473-.69934l.03009-.012,1.0899-.38358c.36777-.11474.74421-.206,1.11414-.30914a10.55461,10.55461,0,0,1,2.29443-.28324,6.22794,6.22794,0,0,1,2.272.36237A3.981,3.981,0,0,1,371.66187,157.71276Z"/><path d="M368.183,129.08091a34.62852,34.62852,0,0,1,3.95767-2.36578c1.34983-.71777,2.7356-1.35235,4.1283-1.97083,1.40421-.59188,2.81613-1.16589,4.26383-1.65711a34.24243,34.24243,0,0,1,4.43627-1.25792,34.23618,34.23618,0,0,1-3.95675,2.36792c-1.35.71738-2.73575,1.352-4.12921,1.9687-1.405.59013-2.8169,1.16415-4.26474,1.655A34.62724,34.62724,0,0,1,368.183,129.08091Z"/><path d="M373.49431,135.49582a24.12625,24.12625,0,0,1,3.793-.60225c1.26438-.12361,2.52872-.15659,3.79306-.172,1.26438.01353,2.52872.04653,3.79306.16972a23.8603,23.8603,0,0,1,3.79306.60456,23.86036,23.86036,0,0,1-3.79306.60458c-1.26434.12318-2.52868.15617-3.79306.16971-1.26434-.01544-2.52868-.04843-3.79306-.172A24.12628,24.12628,0,0,1,373.49431,135.49582Z"/><path d="M373.49431,143.77013a15.03343,15.03343,0,0,1,3.01538.1364,24.39457,24.39457,0,0,1,2.91068.55345,24.05834,24.05834,0,0,1,2.8273.88534,14.87055,14.87055,0,0,1,2.7214,1.30687,14.87069,14.87069,0,0,1-3.016-.13416,24.058,24.058,0,0,1-2.91009-.55569,24.3958,24.3958,0,0,1-2.82672-.88758A15.03316,15.03316,0,0,1,373.49431,143.77013Z"/><path d="M228.956,303.62285a1.5009,1.5009,0,0,0,0-3,1.5009,1.5009,0,0,0,0,3Z"/><path d="M230.636,312.74285a1.5009,1.5009,0,0,0,0-3,1.5009,1.5009,0,0,0,0,3Z"/><path d="M235.916,321.86285a1.5009,1.5009,0,0,0,0-3,1.5009,1.5009,0,0,0,0,3Z"/><path d="M243.356,330.74285a1.5009,1.5009,0,0,0,0-3,1.5009,1.5009,0,0,0,0,3Z"/><path d="M250.316,336.74285a1.5009,1.5009,0,0,0,0-3,1.5009,1.5009,0,0,0,0,3Z"/><path d="M257.516,342.26285a1.5009,1.5009,0,0,0,0-3,1.5009,1.5009,0,0,0,0,3Z"/><path d="M262.316,351.62285a1.5009,1.5009,0,0,0,0-3,1.5009,1.5009,0,0,0,0,3Z"/><path d="M265.916,357.86285a1.5009,1.5009,0,0,0,0-3,1.5009,1.5009,0,0,0,0,3Z"/><path d="M273.836,361.22285a1.5009,1.5009,0,0,0,0-3,1.5009,1.5009,0,0,0,0,3Z"/><path d="M281.996,362.42285a1.5009,1.5009,0,0,0,0-3,1.5009,1.5009,0,0,0,0,3Z"/><path d="M290.876,362.90285a1.5009,1.5009,0,0,0,0-3,1.5009,1.5009,0,0,0,0,3Z"/><path d="M298.316,362.90285a1.5009,1.5009,0,0,0,0-3,1.5009,1.5009,0,0,0,0,3Z"/></svg>