<svg id="Layer_1" data-name="Layer 1" xmlns="http://www.w3.org/2000/svg" viewBox="0 0 700 550"><title>talking on the telephone</title><path d="M345.61584,376.86823s5.10018-30.21386,0-39.32056c-5.09025-9.09708-4.00623-29.8461-4.00623-29.8461s2.91276-6.91954,0-42.73677c-2.80692-34.57846-16.64586-51.49515-17.59426-52.62743-.00992,0-.02882-.01937-.03875-.02906a.11253.11253,0,0,0-.01937-.029.00933.00933,0,0,0-.00945.00969c-.51319.329-1.0552.629-1.626.91939-5.76788,2.85488-14.41025,3.70652-23.34276,3.57108l-51.92086,74.77c-.27076,19.14255.96777,34.13332,1.73235,35.81723,1.8193,4.00659,0,26.92342,0,26.92342s-5.826,22.57812-1.8193,40.41415c3.99679,17.836-4.37434,43.2884-4.37434,43.2884,26.21678,22.56844,46.96575,9.09708,53.51758,5.81632,3.03893-1.51941,4.75191-1.15165,5.70031-.329a21.94845,21.94845,0,0,0,9.51327,5.06143c24.93949,5.46787,45.93985-8.72932,45.93985-8.72932Zm-96.91231,61.35669a1.45258,1.45258,0,0,1,0-2.90332A1.45258,1.45258,0,0,1,248.70353,438.22492Zm6.27115,3.484a1.45257,1.45257,0,0,1,0-2.90331A1.45257,1.45257,0,0,1,254.97468,441.70893Zm6.27114,3.484a1.45258,1.45258,0,0,1,0-2.90332A1.45258,1.45258,0,0,1,261.24582,445.19289Zm8.01294,2.4388a1.45257,1.45257,0,0,1,0-2.90331A1.45257,1.45257,0,0,1,269.25876,447.63169Zm9.05821-.34838a1.45259,1.45259,0,0,1,0-2.90332A1.45259,1.45259,0,0,1,278.317,447.28331Zm9.05868-2.78719a1.45258,1.45258,0,0,1,0-2.90332A1.45258,1.45258,0,0,1,287.37565,444.49612Zm8.01294-3.8324a1.45257,1.45257,0,0,1,0-2.90331A1.45257,1.45257,0,0,1,295.38859,440.66372Zm8.70995.34839a1.45258,1.45258,0,0,1,0-2.90332A1.45258,1.45258,0,0,1,304.09854,441.01211Zm7.66467,4.18078a1.45259,1.45259,0,0,1,0-2.90332A1.45259,1.45259,0,0,1,311.76321,445.19289Zm8.70995,1.742a1.45258,1.45258,0,0,1,0-2.90331A1.45258,1.45258,0,0,1,320.47316,446.93486Zm8.70994,0a1.45258,1.45258,0,0,1,0-2.90331A1.45258,1.45258,0,0,1,329.1831,446.93486Zm9.75521-1.39359a1.45257,1.45257,0,0,1,0-2.90331A1.45257,1.45257,0,0,1,338.93831,445.54127Zm8.01342-3.48395a1.45258,1.45258,0,0,1,0-2.90332A1.45258,1.45258,0,0,1,346.95173,442.05732Zm6.6194-4.18078a1.45258,1.45258,0,0,1,0-2.90332A1.45258,1.45258,0,0,1,353.57113,437.87654Z" fill="#020202"/><path d="M257.43285,184.48488a20.08851,20.08851,0,0,1-.32936-5.27431,26.17322,26.17322,0,0,1,.29061-2.7485,1.49021,1.49021,0,0,1,.03875-.22257,18.62019,18.62019,0,0,1-3.52282-.50326,17.15541,17.15541,0,0,1-4.02608-1.45165l-4.73206,7.82929,1.79992,2.46781c2.34193-.69683,3.97741-1.10327,3.97741-1.10327s1.19034,3.9969,6.51308,5.2453A6.31684,6.31684,0,0,1,257.43285,184.48488Zm-9.078-1.63548a1.45259,1.45259,0,0,1,0-2.90332A1.45259,1.45259,0,0,1,248.3548,182.8494Zm5.92287,1.56778a1.45258,1.45258,0,0,1,0-2.90331A1.45258,1.45258,0,0,1,254.27767,184.41718Z" fill="#020202"/><path d="M257.50039,175.91045a3.29435,3.29435,0,0,0-.06775.329" fill="none"/><path d="M272.08457,160.9971a36.5752,36.5752,0,0,1,6.55184,1.8c-6.98705,5.50662-18.78413,18.649-18.78413,18.649a6.55568,6.55568,0,0,0-2.30365,2.7775c.21311-1.65491.43568-3.27107.72583-4.87761.17436-.871.31944-1.75166.52263-2.62262a26.21606,26.21606,0,0,1,.73575-2.53556c.52264-1.72266,1.06464-3.44526,1.52916-5.20661a54.63081,54.63081,0,0,0,1.19979-5.33244,44.326,44.326,0,0,0-2.32256,4.955c-.697,1.68391-1.29666,3.39689-1.858,5.13887-.19374.70645-.42576,1.413-.58075,2.16779a18.54935,18.54935,0,0,0-3.36783-1.1129,16.37507,16.37507,0,0,0-4.24865-.51294s-.90965-17.46827,11.82638-27.84281c0,0,4.72261-5.81626,19.77127-8.17768C280.80444,138.46729,275.33663,140.69321,272.08457,160.9971Z" fill="#020202"/><path d="M309.03408,161.90839c-.14409-.00758-.29576-.01517-.43986-.01517" fill="none" stroke="#020202" stroke-linecap="round" stroke-linejoin="round" stroke-width="0.75838"/><path d="M212.29588,138.97584a16.24576,16.24576,0,0,0-3.19116-1.87469c-1.12-.52545-2.26022-1.00641-3.40888-1.46662-2.30526-.89813-4.61648-1.79889-6.95578-2.58654l.17707.03112a6.64128,6.64128,0,0,0-1.08255.12439c-.31311.07892-.61243.22864-.623.32733a.79558.79558,0,0,0,.15463.58021,3.73839,3.73839,0,0,0,.62009.7788l3.63251,3.16077c2.429,2.09863,4.81241,4.24652,7.2203,6.36749a.75313.75313,0,0,1-.719,1.285l-.05472-.01709a6.99847,6.99847,0,0,0-3.0733-.1518c-1.04334.15827-2.17551.56366-2.37845,1.15985-.26331.575.27988,1.65668.92831,2.48584a15.49632,15.49632,0,0,0,2.33506,2.378l.00524.0044a.67077.67077,0,0,1,.08585.9447.68119.68119,0,0,1-.24383.1839,12.38564,12.38564,0,0,0-1.64817.825c-.46939.30493-.93545.71967-.91537,1.00354-.04514.27.32278.73114.81714,1.05164a7.5741,7.5741,0,0,0,1.63913.81506.50461.50461,0,0,1,.09069.90436l-.67431.41308a1.42029,1.42029,0,0,0-.47354.46869,1.55159,1.55159,0,0,0-.15573,1.28815,1.63387,1.63387,0,0,0,.89291.99713,13.18611,13.18611,0,0,0,1.578.4892,7.76446,7.76446,0,0,0,3.29785.218,2.60351,2.60351,0,0,0,1.4263-.75074,3.02153,3.02153,0,0,0,.69681-1.50873,3.11256,3.11256,0,0,1-.55963,1.62537,2.72014,2.72014,0,0,1-1.48172.95252,8.19133,8.19133,0,0,1-3.49963.04858,13.409,13.409,0,0,1-1.73081-.39563A2.35482,2.35482,0,0,1,203.6255,159.73a2.4183,2.4183,0,0,1,.15344-2.01709,2.33466,2.33466,0,0,1,.6886-.76867l.764-.51941.09067.90417a8.54728,8.54728,0,0,1-1.93189-.84894,3.93549,3.93549,0,0,1-.88891-.7243,1.83706,1.83706,0,0,1-.361-.55212,1.50929,1.50929,0,0,1-.15606-.72046,1.90284,1.90284,0,0,1,.16363-.71564,3.53932,3.53932,0,0,1,.3573-.54218,4.85319,4.85319,0,0,1,.85807-.76239,12.72077,12.72077,0,0,1,1.85159-.9942l-.15271,1.13281a16.77524,16.77524,0,0,1-2.62937-2.55072A7.40976,7.40976,0,0,1,201.4,148.41292a2.66492,2.66492,0,0,1,1.48272-3.81489,7.68019,7.68019,0,0,1,1.86335-.53845,8.02437,8.02437,0,0,1,3.86114.217l-.77374,1.26783c-2.38446-2.1579-4.7934-4.28888-7.15674-6.46912l-3.55609-3.25751a4.83547,4.83547,0,0,1-.82471-1.13855,2.3704,2.3704,0,0,1-.25238-.75128,1.453,1.453,0,0,1,.16019-.96039,1.98948,1.98948,0,0,1,1.40021-.83685,7.58357,7.58357,0,0,1,1.31323-.09168l.01025-.00012a.44691.44691,0,0,1,.16721.03131c2.32052.92841,4.61929,1.88,6.86041,2.97925,1.11835.55237,2.22708,1.12531,3.31226,1.74158A14.06191,14.06191,0,0,1,212.29588,138.97584Z" fill="#020202"/><path d="M205.46965,156.85756c1.75787.03277,3.47241.18219,5.17111.16754a9.939,9.939,0,0,0,2.47186-.2547,2.13325,2.13325,0,0,0,1.00788-.54877,1.48386,1.48386,0,0,0,.3587-1.13867,1.51653,1.51653,0,0,1-.055,1.35309,2.28085,2.28085,0,0,1-1.11118.89117,7.20781,7.20781,0,0,1-2.66632.45581A14.93563,14.93563,0,0,1,205.46965,156.85756Z" fill="#020202"/><path d="M205.46965,152.07979c1.092.16577,2.176.29614,3.25259.40423a19.79679,19.79679,0,0,0,3.20688.07623,5.64967,5.64967,0,0,0,2.90418-.88134,3.55984,3.55984,0,0,0,1.284-2.73883,4.26657,4.26657,0,0,1-.00552,1.68286,2.98651,2.98651,0,0,1-.89838,1.50958,5.41206,5.41206,0,0,1-3.22824,1.18359A14.49269,14.49269,0,0,1,205.46965,152.07979Z" fill="#020202"/><path d="M228.70206,139.41245c.01888-.51967-.55081-.56937-.481-.96428.20644-.05974,1.03923-.49764,1.23919-.57374l1.18793-.48477,1.18794-.48477.594-.24239a10.48194,10.48194,0,0,1,1.02389.81087,10.47138,10.47138,0,0,1-.16423,1.29563l-.594.24239-1.18793.48477-1.18793.48476c-.19607.0855-.95388.48481-1.14329.58664C228.85038,140.33425,229.07921,139.77054,228.70206,139.41245Z" fill="#020202"/><path d="M217.78806,143.38646a13.80314,13.80314,0,0,0,5.5-2.02,9.50709,9.50709,0,0,0-2.58984,2.58l-5.32032,2.13-4.85009,1.98-4.83985,1.97c-.7998.34-1.62011.65-2.41015,1-.93994.02-2.91992.71-3.90967.6.62988-.77,2.35986-2.08,3.04-2.72.80957-.31,1.60986-.66,2.41992-.98l4.8501-1.98,5.8999-2.41h.00977A18.95844,18.95844,0,0,0,217.78806,143.38646Z" fill="#020202"/><path d="M229.458,137.87645l-.27978,2.69-.40039.16a5.1053,5.1053,0,0,0-.92969-1.99006,1.70324,1.70324,0,0,0-.13037-.15Z" fill="#020202"/><path d="M207.65376,161.47676a15.06007,15.06007,0,0,1,8.24637,5.68194,16.59437,16.59437,0,0,1,1.32352,2.21668c.37091.79108.67935,1.56024,1.00714,2.335l1.94894,4.64459c2.599,6.19275,5.08725,12.42951,7.57507,18.66632l1.83683,4.689.918,2.34466a22.74019,22.74019,0,0,0,.98407,2.23609,24.9667,24.9667,0,0,0,5.89009,7.75354,14.067,14.067,0,0,0,8.87059,3.54968,16.208,16.208,0,0,0,4.89229-.60992,6.22616,6.22616,0,0,0,2.21381-1.03711c.66247-.49518,1.25169-1.10535,1.87458-1.66712-.57057.61682-1.09469,1.2721-1.73019,1.845a6.48488,6.48488,0,0,1-2.23807,1.24274,16.777,16.777,0,0,1-5.01466.96991,14.97792,14.97792,0,0,1-9.60594-3.38922,24.77989,24.77989,0,0,1-6.43088-8.00305,20.98352,20.98352,0,0,1-1.06979-2.35834l-.93439-2.33771-1.86791-4.67572c-2.45181-6.24945-4.90319-12.499-7.24383-18.79248l-1.7558-4.72015c-.29391-.7843-.57962-1.58557-.89151-2.32825a17.38392,17.38392,0,0,0-1.162-2.15662A15.27832,15.27832,0,0,0,207.65376,161.47676Z" fill="#020202"/><path d="M257.50039,175.91045a3.29435,3.29435,0,0,0-.06775.329" fill="none"/><path d="M321.50186,209.82287c-5.95329,2.14622-13.17307,2.99561-20.47627,3.10178,0,0,11.07488-22.4127,10.55665-24.76112,0,0,2.157,12.38056,9.91962,21.65934" fill="#020202"/><path d="M257.43285,184.48488c.03828-.08707.06758-.17419.11578-.26126-.02883.1645-.0482.329-.06758.49357A1.93353,1.93353,0,0,1,257.43285,184.48488Z" fill="#fff"/><path d="M257.50039,175.91045a3.29435,3.29435,0,0,0-.06775.329" fill="none"/><path d="M262.18271,198.61024c1.58879.23493,2.95028.53211,4.34091.686.691.09411,1.37628.12909,2.084.15991.71559.04071,1.42348-.02771,2.24956-.00794a4.58082,4.58082,0,0,1-2.09439,1.18134,6.00371,6.00371,0,0,1-2.42051.17212,6.82906,6.82906,0,0,1-2.29724-.69867A5.21824,5.21824,0,0,1,262.18271,198.61024Z" fill="#020202"/><path d="M291.80873,198.61024c1.58879.23493,2.95029.53211,4.34091.686.691.09411,1.37628.12909,2.084.15991.71559.04071,1.42348-.02771,2.24956-.00794a4.58076,4.58076,0,0,1-2.09439,1.18134,6.00374,6.00374,0,0,1-2.42052.17212,6.82894,6.82894,0,0,1-2.29723-.69867A5.21824,5.21824,0,0,1,291.80873,198.61024Z" fill="#020202"/><path d="M303.35748,144.89766a14.09986,14.09986,0,0,1-5.432,5.41894,5.63833,5.63833,0,0,1-3.93292.47589,5.9104,5.9104,0,0,1-3.274-2.29144,6.73814,6.73814,0,0,1-1.26143-3.78351,11.11609,11.11609,0,0,1,.60524-3.8988,5.28543,5.28543,0,0,1,2.5746-2.98456,5.98227,5.98227,0,0,1,3.86161-.47717l-.11657.043c.54378-.63929,1.08915-1.27729,1.64706-1.9054-.47792.69092-.96838,1.37207-1.46042,2.05194a.10983.10983,0,0,1-.10006.04486l-.01685-.00177a6.08609,6.08609,0,0,0-3.5854.67231,4.9125,4.9125,0,0,0-2.19174,2.78271,10.46962,10.46962,0,0,0-.50161,3.64508,6.50515,6.50515,0,0,0,1.14533,3.38342,5.20981,5.20981,0,0,0,2.84645,2.06842,5.43482,5.43482,0,0,0,3.53657-.32647C299.995,148.83467,301.76346,146.86732,303.35748,144.89766Z" fill="#020202"/><path d="M352.38312,183.363c.15074,2.1004.03028,4.2088-.02414,6.31085-.08478,2.10468-.17806,4.20074-.32141,6.30914A28.44645,28.44645,0,0,1,348.36,208.07393a18.40885,18.40885,0,0,1-4.1089,4.92065,14.42231,14.42231,0,0,1-5.74776,2.91974,17.18355,17.18355,0,0,1-6.44441.3291,21.31315,21.31315,0,0,1-6.218-1.78162.357.357,0,0,1-.06082-.03637l-1.10273-.84369-.55111-.42322-.27543-.21191-.13768-.106-.06885-.053s-.03943-.03241-.0179-.01178a.2962.2962,0,0,0,.08756.05463l-.15094-.10889a32.1933,32.1933,0,0,1-6.94753-8.86542,55.58248,55.58248,0,0,1-4.30638-10.4024,104.05729,104.05729,0,0,1-3.98889-22.04029q-.22654-2.79227-.33743-5.59222c-.08094-1.88214-.07587-3.70227-.293-5.49963a17.59143,17.59143,0,0,0-1.29256-5.15723A4.86191,4.86191,0,0,0,304.973,153.189a8.68522,8.68522,0,0,1-1.9256-2.34717,6.92142,6.92142,0,0,1-.87963-2.94623,7.70477,7.70477,0,0,1,.44944-3.02521c.17924-.45715.40771-.94629.6026-1.349a11.56892,11.56892,0,0,0,.53386-1.20391,8.20534,8.20534,0,0,0,.55439-2.49457,5.16012,5.16012,0,0,0-.075-1.20813,2.56878,2.56878,0,0,0-.45521-.98377,2.797,2.797,0,0,0-1.89463-1.06836l-5.53375-.566-.0351-.00361a.54526.54526,0,0,1-.28924-.1192,1.53388,1.53388,0,0,1-.614-1.08648,1.632,1.632,0,0,1,.34442-1.11194,3.49019,3.49019,0,0,1,.63109-.63617,5.373,5.373,0,0,1,.68379-.4466l.31639-.08459a.64486.64486,0,0,0-.644.644l.21779-.48273.46869-.45965.46352-.57208.93162-1.148a4.83451,4.83451,0,0,1,4.54849-1.70942l1.49218.2024,1.494.20581a3.99379,3.99379,0,0,1,1.65833.598,1.27483,1.27483,0,0,1,.42287.53455,1.118,1.118,0,0,1,.01844.77209,1.86545,1.86545,0,0,1-.66252.86572,2.25688,2.25688,0,0,1-.91925.3924,2.85293,2.85293,0,0,1-.90872.00116,24.52234,24.52234,0,0,0-2.88873-.24573,10.24,10.24,0,0,0-2.78247.42071,10.635,10.635,0,0,0-1.34478.49616l-1.29956.574.25415-.43438a.51941.51941,0,0,1-.50915.509l.33452-.13043a3.61229,3.61229,0,0,1-1.34369.81811,1.20941,1.20941,0,0,1-1.07218-.1759,1.53456,1.53456,0,0,1-.50669-.82989,3.03121,3.03121,0,0,1-.08155-.83082,7.13364,7.13364,0,0,1,.1281-.75018,10.53014,10.53014,0,0,1,.47206-1.34662,24.92092,24.92092,0,0,1,2.83542-4.71863,20.64591,20.64591,0,0,1,1.79585-2.1,6.56139,6.56139,0,0,1,1.11986-.9115l.34247-.186.3-.13507.60941-.28211c.81247-.37805,1.61825-.77234,2.41116-1.18811a14.2323,14.2323,0,0,1,2.49274-1.18219,7.318,7.318,0,0,1,5.462.48444,15.754,15.754,0,0,1,2.26534,1.552,16.8936,16.8936,0,0,1,2.00739,1.85321,9.94981,9.94981,0,0,1,1.57984,2.23584,5.17179,5.17179,0,0,1,.62709,2.65613l-.45079,5.397.26391-5.40027a5.07072,5.07072,0,0,0-.67946-2.52917,9.65,9.65,0,0,0-1.58821-2.128,18.14084,18.14084,0,0,0-4.23861-3.20868,6.7693,6.7693,0,0,0-5.061-.324,13.72532,13.72532,0,0,0-2.35339,1.19824c-.79337.44245-1.59766.862-2.41034,1.26587l-.61333.29633-.31447.14746-.24831.14319a5.86,5.86,0,0,0-.95707.81054,19.87953,19.87953,0,0,0-1.685,2.03626,24.088,24.088,0,0,0-2.65792,4.57819,4.04164,4.04164,0,0,0-.44,2.3012.62549.62549,0,0,0,.16754.31476c.02792.024.07266.0354.2169-.00012a2.78122,2.78122,0,0,0,.926-.61322l.33481-.13068a.49366.49366,0,0,0-.49426.49421l.25447-.43464,1.40707-.65283a11.5323,11.5323,0,0,1,1.43314-.55261,11.3253,11.3253,0,0,1,3.06789-.51312,11.54447,11.54447,0,0,1,1.55417.06091l1.47856.14417a1.6717,1.6717,0,0,0,.57026.00128,1.08626,1.08626,0,0,0,.43358-.19135.76247.76247,0,0,0,.23616-.29138c.00247-.0238-.00625.02142.00461.04608.00427.02313.01158.00464-.04423-.0296a7.71816,7.71816,0,0,0-2.5855-.52155l-1.45552-.17468a3.73631,3.73631,0,0,0-1.301.00781,3.54488,3.54488,0,0,0-2.11653,1.25989l-.935,1.16425-.469.58465-.58649.58612.21751-.48248a.67062.67062,0,0,1-.65884.65888l.31608-.08429a4.08616,4.08616,0,0,0-.51347.33722,2.29348,2.29348,0,0,0-.3761.37664c-.083.117-.1037.19648-.09334.21674-.019.00983.05948.11536.07161.12585l-.324-.12262,5.55519.53907a4.16286,4.16286,0,0,1,2.83434,1.5852,3.94791,3.94791,0,0,1,.71234,1.52136,6.42949,6.42949,0,0,1,.11315,1.56452,9.58608,9.58608,0,0,1-.62777,2.92651,12.95886,12.95886,0,0,1-.58747,1.34473c-.20688.43335-.3675.79053-.52862,1.19482a5.66594,5.66594,0,0,0,.36036,4.79016,7.25439,7.25439,0,0,0,1.59953,1.93006,4.31532,4.31532,0,0,1,.59082.527,5.56542,5.56542,0,0,1,.493.62738,8.81247,8.81247,0,0,1,.741,1.32092,19.00362,19.00362,0,0,1,1.4473,5.59778c.24541,1.89215.23171,3.796.29892,5.62365q.09615,2.76874.30513,5.53235a102.67378,102.67378,0,0,0,3.81854,21.75757c2.14264,7.00464,5.32376,13.86426,10.77944,18.84308l-.15065-.10858a.96411.96411,0,0,1,.15323.10712l.04835.04.06389.05024.12778.10052.25549.20123.51076.40314,1.021.809-.06049-.03619a18.60313,18.60313,0,0,0,11.92884,1.55163,13.5431,13.5431,0,0,0,5.44787-2.66339,18.33643,18.33643,0,0,0,4.024-4.64441A27.90124,27.90124,0,0,0,351.656,195.947c.19771-2.08429.33822-4.18927.48665-6.28454C352.2691,187.5652,352.46161,185.46473,352.38312,183.363Z" fill="#020202"/><path d="M319.94237,159.13783a46.85447,46.85447,0,0,1-1.55191-6.184,49.64394,49.64394,0,0,1-.72323-6.35455,54.19224,54.19224,0,0,1,.03473-6.40113l.3693-6.34137a.64943.64943,0,0,1,.624-.6112l.01129-.00031a51.36974,51.36974,0,0,1,6.01845.105,35.721,35.721,0,0,1,5.96876.97632,24.64732,24.64732,0,0,1,5.6653,2.17841,13.337,13.337,0,0,1,4.69924,3.9201l-.03949-.05316a36.77151,36.77151,0,0,1,4.43913,6.80579,43.73989,43.73989,0,0,1,2.91425,7.56115,58.93393,58.93393,0,0,1,1.63073,7.94556,52.00456,52.00456,0,0,1,.45662,8.13861l-.11227-.3819,7.21632,9.33.02281.02948a.54929.54929,0,0,1,.11448.30451,2.79638,2.79638,0,0,1-.64957,1.92364,5.28643,5.28643,0,0,1-1.27876,1.21253,5.19574,5.19574,0,0,1-3.37017.887,5.42092,5.42092,0,0,1-1.70126-.43482c-.55911-.2442-.942-.48352-1.38632-.6759a11.59958,11.59958,0,0,0-2.68915-.86633,5.82179,5.82179,0,0,0-2.633.082,2.72784,2.72784,0,0,0-1.04381.57806,15.10017,15.10017,0,0,1-1.3089.93891c-1.74324,1.12127-3.50458,2.12286-5.29164,3.12127l-.00929.00519a.76271.76271,0,0,1-1.00058-.23865l-4.41957-6.55822-4.39879-6.5727c-.70748-1.09875-1.53638-2.08947-2.25466-3.26068a29.05285,29.05285,0,0,1-1.84622-3.55688,45.47566,45.47566,0,0,1-2.47708-7.544l-.00145-.00628-.00134-.01435.0003-.00744a.0759.0759,0,0,1,.15168,0l.0003.00744-.00275-.02014a51.03535,51.03535,0,0,0,2.96315,7.28742,28.2705,28.2705,0,0,0,1.95856,3.368c.70941,1.0476,1.62329,2.0495,2.39736,3.1314l4.60894,6.42719,4.58815,6.44153-1.00956-.2334c1.74148-1.00354,3.4953-2.03436,5.15013-3.13147.40913-.27167.82751-.554,1.16485-.831a4.41615,4.41615,0,0,1,1.60161-.87781,7.39409,7.39409,0,0,1,3.39374-.12445,12.29537,12.29537,0,0,1,3.077,1.02649c.48244.22088.96623.51758,1.3367.68109a3.88432,3.88432,0,0,0,1.22753.33838,3.688,3.688,0,0,0,2.40826-.5968,3.83813,3.83813,0,0,0,.93446-.85309,1.65947,1.65947,0,0,0,.39752-.86225l.13717.33362-6.98032-9.50787-.0038-.00513a.56761.56761,0,0,1-.10858-.37713,49.909,49.909,0,0,0-.108-7.969,47.73648,47.73648,0,0,0-1.36642-7.89026,37.16378,37.16378,0,0,0-2.82637-7.48572l-.96157-1.75634c-.33578-.576-.73938-1.11-1.105-1.66638l-.56127-.82624c-.19625-.26837-.4215-.51513-.634-.77087l-1.28868-1.52045-.03971-.05347a12.7298,12.7298,0,0,0-4.54005-3.40454,24.46066,24.46066,0,0,0-5.5034-1.84234,42.36114,42.36114,0,0,0-5.77736-.85041c-1.95-.13824-3.91092-.19848-5.87389-.146l.6351-.61133-.49634,6.332c-.17559,2.103-.29455,4.18811-.27368,6.29193a59.89342,59.89342,0,0,0,.40441,6.29065,58.40726,58.40726,0,0,0,1.073,6.23639.07588.07588,0,0,1-.05716.09088A.0767.0767,0,0,1,319.94237,159.13783Z" fill="#020202"/><path d="M356.99708,180.19766l-7.10376-9.4164a29.76045,29.76045,0,0,0-4.76136.17419,36.718,36.718,0,0,0-4.57754.98714,83.80655,83.80655,0,0,0-8.95189,3.31945,18.19466,18.19466,0,0,1,3.97788-2.87431,23.02676,23.02676,0,0,1,4.55817-1.90648,18.75322,18.75322,0,0,1,4.9258-.70645,12.2217,12.2217,0,0,1,4.82894,1.00646s1.36471-18.436-9.14516-30.16543c0,0-3.12588-5.14849-14.65219-6.45508l-6.0774,24.95887v.00969a50.3053,50.3053,0,0,0,1.7711,5.23562,29.21252,29.21252,0,0,0,3.803,6.98734c.34826.44514.70645.89033,1.03581,1.36453l9.3389,13.481a69.96262,69.96262,0,0,0,6.56129-4.084c1.36471-1.18071,4.36489-1.36459,8.00349.63871a5.1766,5.1766,0,0,0,1.84859.6097C355.139,183.68167,357.14215,181.3203,356.99708,180.19766Zm-19.4523,2.65174a1.45258,1.45258,0,0,1,0-2.90332A1.45258,1.45258,0,0,1,337.54478,182.8494Zm6.61941-2.78719a1.45258,1.45258,0,0,1,0-2.90331A1.45258,1.45258,0,0,1,344.16419,180.06221Zm6.96814,1.04515a1.45257,1.45257,0,0,1,0-2.90331A1.45257,1.45257,0,0,1,351.13233,181.10736Z" fill="#020202"/><path d="M335.97175,186.19667a8.64009,8.64009,0,0,1,1.65441,1.67083,12.681,12.681,0,0,1,1.25276,1.92225,11.12281,11.12281,0,0,1,.88953,2.13354,4.49663,4.49663,0,0,1,.20756,2.38312c-.40274-.69013-.88016-1.24445-1.28061-1.88367a21.23445,21.23445,0,0,1-1.15457-1.91974,17.64848,17.64848,0,0,1-.94-2.05322A10.31335,10.31335,0,0,1,335.97175,186.19667Z" fill="#020202"/><path d="M304.54452,120.71815a7.09552,7.09552,0,0,1-1.12251-3.09057,5.55392,5.55392,0,0,1,.67847-3.27655,6.17571,6.17571,0,0,1,5.7505-3.07312,6.6033,6.6033,0,0,1,5.52171,3.55114,4.94346,4.94346,0,0,1-.2637,3.34418c-.37654,1.0351-.79288,2.0426-1.23007,3.0462.29672-1.05261.65485-2.08838.9222-3.14019a4.59244,4.59244,0,0,0,.10514-3.05628,5.91767,5.91767,0,0,0-2.13775-2.19543,6.36019,6.36019,0,0,0-2.95348-.89466,5.70561,5.70561,0,0,0-5.28107,2.67292A6.23986,6.23986,0,0,0,304.54452,120.71815Z" fill="#020202"/><path d="M293.1801,150.06172c.20386,1.76172.39885,3.51422.56192,5.26257l.00229.02466a.4351.4351,0,0,1-.86644.08081l-.00185-.03461c-.024-1.78344-.01608-3.5628.00072-5.33294a.15129.15129,0,0,1,.30157-.016Z" fill="#020202"/><path d="M294.52469,160.55244c.331,1.7323.62066,3.46765.93228,5.19806l.00538.02985a.86641.86641,0,1,1-1.70538.30713c-.00363-.02021-.00673-.04255-.00892-.06269-.18685-1.77112-.39563-3.53741-.56307-5.30664a.675.675,0,0,1,1.33449-.19324Z" fill="#020202"/><path d="M296.53033,170.91432l1.22029,5.12964.00855.03589a1.14554,1.14554,0,1,1-2.22888.53021c-.004-.0166-.00829-.03729-.01148-.0539l-.98506-5.25183a1.01693,1.01693,0,0,1,1.98821-.42535Z" fill="#020202"/><path d="M299.09662,181.13765l1.48929,5.04937.0117.03968a1.3015,1.3015,0,0,1-2.49666.73639l-.00911-.03247-1.379-5.16456a1.23229,1.23229,0,0,1,2.372-.66821Z" fill="#020202"/><path d="M302.20956,191.19417c.59828,1.64971,1.19037,3.30084,1.75937,4.96057l.0143.04168a1.35687,1.35687,0,0,1-2.56018.89966c-.60416-1.678-1.18521-3.36474-1.76009-5.05279a1.34191,1.34191,0,0,1,2.53127-.89148Z" fill="#020202"/><path d="M305.842,201.07112c.65748,1.626,1.33276,3.24518,1.97606,4.87964l.015.0382a1.22567,1.22567,0,0,1-2.254.96113c-.74477-1.619-1.45752-3.25324-2.1881-4.88068a1.32372,1.32372,0,0,1,2.41524-1.08423l.01753.04083Z" fill="#020202"/><path d="M309.90063,210.79237l2.24593,4.774.01324.02814a.90581.90581,0,0,1-1.61448.82l-2.56221-4.68823a1.06732,1.06732,0,0,1,1.87314-1.02374q.01478.02709.02784.05456Z" fill="#020202"/><path d="M314.55234,220.26838c.85954,1.53485,1.70076,3.08332,2.57774,4.61182l.01019.01776a.58723.58723,0,0,1-1.008.60236c-.93712-1.50678-1.91-2.99359-2.86457-4.494a.7413.7413,0,0,1,1.2509-.79584l.02018.03363Z" fill="#020202"/><path d="M319.91943,229.37123l2.99613,4.35827.00921.01337a.45894.45894,0,0,1-.753.52484L319.1,229.92122a.49343.49343,0,0,1,.8059-.56958l.00212.00305Z" fill="#020202"/><path d="M326.10673,237.94771l3.37053,4.07543.01219.01471a.53605.53605,0,1,1-.82615.68329l-.00748-.00921-3.30188-4.17749a.47707.47707,0,0,1,.74152-.60035Z" fill="#020202"/><path d="M333.02748,245.94044l3.70308,3.76831.01939.01972a.77823.77823,0,0,1-1.11014,1.09094l-.02661-.02844-3.54365-3.987a.64464.64464,0,0,1,.94044-.88129Z" fill="#020202"/><path d="M340.57129,253.3304l3.969,3.47351.02839.0249a1.07667,1.07667,0,1,1-1.41813,1.62042c-.0148-.01294-.03159-.02862-.0455-.04224l-3.81289-3.746a.92259.92259,0,0,1,1.25209-1.35419Z" fill="#020202"/><path d="M348.605,260.15693l4.16188,3.22.03526.02729a1.29749,1.29749,0,0,1-1.5879,2.05243l-.03839-.03095-4.103-3.43121a1.19589,1.19589,0,0,1,1.497-1.86475Z" fill="#020202"/><path d="M357.02751,266.46144l4.34543,2.9613.03977.0271a1.44153,1.44153,0,0,1-1.62357,2.38245l-.02567-.01789-4.35757-3.11029a1.38341,1.38341,0,0,1,1.58136-2.27014Z" fill="#020202"/><path d="M365.8144,272.23719l4.53081,2.66761.04293.02533a1.55671,1.55671,0,1,1-1.57964,2.68292l-.02893-.01746-4.55586-2.81726a1.49859,1.49859,0,0,1,1.54693-2.56689Z" fill="#020202"/><path d="M374.95766,277.42823l4.6671,2.42164.044.02276a1.61867,1.61867,0,1,1-1.491,2.87354l-.00376-.002-4.74882-2.47979a1.61167,1.61167,0,0,1,1.492-2.85724Z" fill="#020202"/><path d="M384.363,282.1327l4.78487,2.18927.0416.019a1.57468,1.57468,0,0,1-1.28477,2.87524l-4.90814-2.141a1.62229,1.62229,0,1,1,1.29728-2.97394l.01867.0083Z" fill="#020202"/><path d="M393.99287,286.37343l4.89289,1.94689.03679.01465a1.44948,1.44948,0,0,1-1.03193,2.70874l-5.02424-1.82989a1.52813,1.52813,0,1,1,1.04593-2.87171l.03553.01343Z" fill="#020202"/><path d="M403.83008,290.14583l4.986,1.72375.03016.01038a1.24792,1.24792,0,0,1-.76437,2.3753l-5.11918-1.52661a1.36287,1.36287,0,0,1,.779-2.61206l.05084.01623Z" fill="#020202"/><path d="M413.845,293.4795l5.05974,1.53125.0218.00666a.95527.95527,0,0,1-.495,1.8443l-5.19442-1.21936a1.12424,1.12424,0,1,1,.51384-2.189q.0333.00779.06563.01746Z" fill="#020202"/><path d="M423.99931,296.42415c1.70978.43176,3.42074.86261,5.12675,1.3247l.01266.00342a.59453.59453,0,0,1-.25514,1.16c-1.74934-.2976-3.49372-.62646-5.2393-.9544a.78771.78771,0,1,1,.29088-1.54834q.02286.00431.04515.00988Z" fill="#020202"/><path d="M434.27984,299.00026l4.21993.96588a.15176.15176,0,0,1,.11714.17987.155.155,0,0,1-.16774.1192l-4.3028-.549a.36475.36475,0,0,1,.09231-.72363l.03471.00616Z" fill="#020202"/><path d="M283.66424,449.31709a6.23148,6.23148,0,0,0,.19463,2.28839c.158.77649.38261,1.54309.60725,2.30609.464,1.52551,1.03955,3.01868,1.59549,4.51514a18.16225,18.16225,0,0,1,1.22432,4.83679,10.96075,10.96075,0,0,1-.72146,5.09412.77.77,0,0,1-.15685.24109l-.0235.024-.0097.01.1851-.27636-.15494.3775a.81582.81582,0,0,1-.74.506l-.04674.00061-.00981.00012.776-.48407a9.84992,9.84992,0,0,1-1.02294,1.69654,8.946,8.946,0,0,1-.64909.76544,6.22441,6.22441,0,0,1-.79965.72033l.39988-.71832c-.051,1.8935-.12876,3.78571-.20471,5.678-.08137,1.89209-.135,3.78546-.24214,5.67627a1.03157,1.03157,0,0,1-1.0175.97028c-3.35664.02807-6.74364.01629-10.11577-.07459l-10.1194-.22961-.03355-.0008a.51781.51781,0,0,1-.50481-.50415c-.031-1.29724-.05461-2.59485-.10818-3.89087-.05114-1.29608-.08207-2.59332-.15311-3.8883l.48035.32641-2.73588.89179.04216-.01721a81.51507,81.51507,0,0,1-8.04295,3.24743,84.05715,84.05715,0,0,1-8.31578,2.50031,58.216,58.216,0,0,1-8.59717,1.51648,45.24136,45.24136,0,0,1-8.79794-.0022l.122.0072-.0098.00013-.02279.00024a.64138.64138,0,0,1-.109-.00867,35.26963,35.26963,0,0,1-4.639-.91552,13.00981,13.00981,0,0,1-2.31583-.74537,6.43092,6.43092,0,0,1-2.292-1.53241,2.86405,2.86405,0,0,1-.47867-.71252c-.06552-.14032-.12692-.2832-.18356-.42645a3.82688,3.82688,0,0,1-.08911-.47431,3.19541,3.19541,0,0,1,.30035-1.74847,6.78869,6.78869,0,0,1,1.75809-2.11707,21.2855,21.2855,0,0,1,4.05429-2.618,37.31536,37.31536,0,0,1,8.82109-3.25067c1.55347-.3623,3.00615-.603,4.46173-.96753,1.44389-.34235,2.93208-.7254,4.306-1.15887l.35767-.06263a.80853.80853,0,0,0-.41118.09253l.47194-.1112.01979.00036-.33563.05481a44.773,44.773,0,0,0,6.56941-2.66253,28.49526,28.49526,0,0,0,5.80723-3.95459,17.58424,17.58424,0,0,0,4.18288-5.59479,13.77144,13.77144,0,0,0,1.29494-6.91327l-.00119-.01288a.11339.11339,0,0,1,.22374-.03442,13.65432,13.65432,0,0,1-.66664,7.3103,17.9522,17.9522,0,0,1-4.04,6.26276,26.31446,26.31446,0,0,1-5.92929,4.53674,46.69574,46.69574,0,0,1-6.76945,3.06494.84086.84086,0,0,1-.27606.0539l-.06.001-.01979.00037.47154-.11115a1.35146,1.35146,0,0,1-.53081.13239l.35729-.06244c-1.513.53937-2.9583.98718-4.46881,1.38605-1.49379.40265-3.04409.69342-4.45076,1.05078a40.0043,40.0043,0,0,0-8.271,3.102,22.49372,22.49372,0,0,0-3.64258,2.275,4.68878,4.68878,0,0,0-1.20279,1.32312c-.16681.43256-.16431.5094.09381.87824a4.42376,4.42376,0,0,0,1.47467.98114,11.2441,11.2441,0,0,0,2.01324.68817,33.20671,33.20671,0,0,0,4.29755.94806l-.13138-.00842.0098.00012.03268.00036a.763.763,0,0,1,.08969.0069,44.584,44.584,0,0,0,8.42817.31885,60.52835,60.52835,0,0,0,8.45986-1.00012,70.5128,70.5128,0,0,0,8.31511-2.07538,71.94309,71.94309,0,0,0,8.00266-3.08124l.0049-.00232.03763-.01507,2.72375-.92811a.36369.36369,0,0,1,.46153.22693.39766.39766,0,0,1,.019.09961c.07228,1.295.18467,2.58765.27687,3.88153.08976,1.29395.2095,2.58625.3218,3.879l-.53814-.50476,10.12043-.40686c3.37449-.14893,6.7341-.21991,10.124-.25732l-1.01731.97009c.0729-1.89246.19924-3.78241.29787-5.67359.104-1.891.20625-3.782.33527-5.67181l.00142-.02081a.92936.92936,0,0,1,.39865-.69782,4.73627,4.73627,0,0,0,.54983-.47088,7.13729,7.13729,0,0,0,.53646-.59052,8.09115,8.09115,0,0,0,.88177-1.356l.0156-.03015a.84172.84172,0,0,1,.76068-.4541l.00981.00018-.78643.50641.1449-.32214.01625-.03613a.79141.79141,0,0,1,.16907-.2406l.01-.00965-.18013.26471a9.592,9.592,0,0,0,.85887-4.33136,16.85619,16.85619,0,0,0-.87677-4.54278c-.49462-1.54181-.88152-3.11908-1.22441-4.70588-.15628-.79815-.31127-1.59558-.39942-2.40857a11.28137,11.28137,0,0,1-.0697-1.22741,3.15415,3.15415,0,0,1,.19157-1.26319.10774.10774,0,0,1,.20441.0647Z" fill="#020202"/><path d="M257.59765,450.78981a35.13292,35.13292,0,0,0,6.34191,2.36395,28.54026,28.54026,0,0,0,6.56952.98364,26.43,26.43,0,0,0,6.606-.52917,29.77455,29.77455,0,0,0,3.26014-.81519c1.09176-.29785,2.12071-.77276,3.23646-1.10187a26.59664,26.59664,0,0,1-2.96031,1.79352,19.8342,19.8342,0,0,1-3.24954,1.27185,20.453,20.453,0,0,1-3.43212.75275c-.57972.10254-1.17138.08319-1.75723.12988l-.88127.0459-.88126-.033a21.63621,21.63621,0,0,1-6.8693-1.37524A18.91153,18.91153,0,0,1,257.59765,450.78981Z" fill="#020202"/><path d="M272.688,482.25645l1.33985.35-11.41992.1-.42969-7.77-2.73.91s-16.13037,7.87-31.47022,6.75c-.66992-.05-1.33984-.12-2.01025-.2H225.958c-1-.12-2-.29-2.99023-.51a21.92954,21.92954,0,0,1-2.79981-.79c-.20019-.07-.37988-.14-.5498-.21a8.14261,8.14261,0,0,1-.93018-.44c-3.9497-2.14-.52-4.94,3.46-7.06a38.98644,38.98644,0,0,1,10.4502-3.71,64.25913,64.25913,0,0,0,6.52978-1.68c.26026-.08.51026-.16.76026-.25a.14311.14311,0,0,0,.06006-.01995h.01953a14.32035,14.32035,0,0,1,12.1001,7.78c13.80029-5.99,18.72021-3.37,19.81005-2.54a12.885,12.885,0,0,0-3.77,3.1,3.501,3.501,0,0,0,.5,4.5,5.51936,5.51936,0,0,0,1.32031.82A15.21579,15.21579,0,0,0,272.688,482.25645Z" fill="#020202"/><path d="M283.44822,468.99644c.71972-.21,1.43994-.41,2.15967-.62a7.66191,7.66191,0,0,1-2.21973,2.8l-.55029,11.35-4.21973.04c-1-.12-2.01025-.28-3-.47-.46-.09-.91016-.18-1.36035-.29l-1.33985-.38a14.18762,14.18762,0,0,1-2.60009-.87,4.157,4.157,0,0,1-1.06983-.67,2.57576,2.57576,0,0,1-.62988-.99,2.50766,2.50766,0,0,1,.31006-2.26,14.93254,14.93254,0,0,1,4.21972-3.38,40.03959,40.03959,0,0,1,4.99024-2.49A36.73983,36.73983,0,0,1,283.44822,468.99644Z" fill="#020202"/><path d="M286.58787,463.97649a10.03953,10.03953,0,0,1-.81006,4.04l-.00977.01a48.83047,48.83047,0,0,0-7.91015,2.02,31.23223,31.23223,0,0,0-5.16993,2.43006c-.08984.05-.18017.11-.27.16,3.37989-5.91,13.58008-12.56,13.58008-12.56.02979.12.06983.24.1001.36.10986.42.19971.82.27,1.21l.16992,1.28c.00977.13.02.25.02979.37Z" fill="#020202"/><path d="M309.07876,447.55073a12.99621,12.99621,0,0,1-.35153,6.3302,15.47519,15.47519,0,0,1-1.19926,2.99634,18.34206,18.34206,0,0,1-1.80626,2.68243,16.10289,16.10289,0,0,1-1.03853,1.24329l-1.15833,1.12921a22.02933,22.02933,0,0,1-2.49688,2.04645l-.64867.48328c-.22569.14465-.46051.27337-.69054.41076l-1.38876.81208a22.42529,22.42529,0,0,1-2.86462,1.44006,52.08308,52.08308,0,0,1-5.98375,2.23334c-2.0297.55481-4.14638,1.04351-6.14459,1.49182a38.88622,38.88622,0,0,0-11.40642,4.27673,10.852,10.852,0,0,0-2.34024,1.78491c-.64862.69678-.99391,1.48426-.47538,2.15638a5.4015,5.4015,0,0,0,2.36783,1.558,19.98363,19.98363,0,0,0,2.94113.89154,38.38313,38.38313,0,0,0,12.3501.55713,64.47785,64.47785,0,0,0,12.11876-2.65418,88.215,88.215,0,0,0,11.50516-4.50293,1.04427,1.04427,0,0,1,.10861-.04559l.01756-.006,2.71219-.93829a1.05627,1.05627,0,0,1,1.39792.92126l.0017.02893.52214,7.76343-1.15946-1.08661q5.05785-.11655,10.1164-.15369c3.37213-.05157,6.745-.01623,10.11753-.02545l-1.1396,1.09558c.09863-1.89074.24817-3.779.37117-5.66852l.38735-5.66766a.97854.97854,0,0,1,.39439-.721l.0107-.00781a6.993,6.993,0,0,0,1.666-1.86578,9.04418,9.04418,0,0,0,1.01915-2.42871,11.50487,11.50487,0,0,0-.02344-5.43317l-.36148-1.36115-.42412-1.40081c-.2711-.93927-.516-1.88691-.74382-2.83875-.218-.9552-.419-1.91492-.5589-2.88843a12.87877,12.87877,0,0,1-.1355-1.47314,3.71474,3.71474,0,0,1,.17876-1.51807.10928.10928,0,0,1,.20642.07056l-.0139.05066a3.8434,3.8434,0,0,0,.01521,1.36474c.06526.47126.16837.94056.27211,1.40784.22038.934.50093,1.856.79769,2.77173.3045.91461.63555,1.8205.9738,2.72388l.50918,1.35663.47988,1.42578a12.92419,12.92419,0,0,1,.403,6.09259,9.52,9.52,0,0,1-1.07448,2.97638,8.57986,8.57986,0,0,1-2.11624,2.51532l.40492-.72846-.161,5.67859c-.05975,1.89258-.093,3.7865-.1771,5.67786a1.14673,1.14673,0,0,1-1.12485,1.09558l-.015.00018c-3.37215.05048-6.7439.14557-10.11641.15363q-5.05838.05493-10.11754.02539l-.02922-.00019a1.14039,1.14039,0,0,1-1.13045-1.08661l-.34887-7.77319,1.39941.95014-2.73242.87756.12579-.05139a74.49359,74.49359,0,0,1-24.45408,6.14825,44.60766,44.60766,0,0,1-12.58316-.69006,26.389,26.389,0,0,1-3.076-.83252,6.52683,6.52683,0,0,1-2.85749-1.75147,2.43074,2.43074,0,0,1-.449-.87133,2.32819,2.32819,0,0,1-.01772-1.01075,3.81586,3.81586,0,0,1,.83239-1.61712,12.01125,12.01125,0,0,1,2.48573-2.17572,35.965,35.965,0,0,1,11.70586-5.0893c2.07461-.46942,4.01745-.97442,6.02825-1.46344a53.05781,53.05781,0,0,0,5.77984-2.04461,20.92789,20.92789,0,0,0,2.77166-1.27631l1.34121-.72345c.22242-.12244.45085-.23675.66876-.36584l.62249-.43146a20.5237,20.5237,0,0,0,2.45382-1.77692l1.14758-.99054a14.72677,14.72677,0,0,0,1.03441-1.1,16.261,16.261,0,0,0,3.19067-5.10846,13.56806,13.56806,0,0,0,.95767-6.00434l-.00106-.0122a.11344.11344,0,0,1,.22364-.035Z" fill="#020202"/><path d="M308.96747,450.78981a35.13282,35.13282,0,0,0,6.3419,2.36395,28.54035,28.54035,0,0,0,6.56952.98364,26.43017,26.43017,0,0,0,6.606-.52917,29.775,29.775,0,0,0,3.26013-.81519c1.09176-.29785,2.12071-.77276,3.23646-1.10187a26.59481,26.59481,0,0,1-2.96031,1.79352,19.8335,19.8335,0,0,1-3.24954,1.27185,20.45309,20.45309,0,0,1-3.43211.75275c-.57973.10254-1.17139.08319-1.75724.12988l-.88127.0459-.88124-.033a21.63639,21.63639,0,0,1-6.86932-1.37524A18.9116,18.9116,0,0,1,308.96747,450.78981Z" fill="#020202"/><path d="M290.59413,467.68638a14.38294,14.38294,0,0,1,12.84292,7.81535c15.99252-6.93961,20.05817-2.32659,20.05817-2.32659,3.044-6.036,13.8681-13.10122,13.8681-13.10122l-.00027.004c2.23555,7.76152-2.60331,11.10034-2.60331,11.10034l-.55163,11.352-20.22643.1742-.43549-7.77121-2.72912.90971s-19.86835,9.69707-36.47531,6.03889c-9.8616-2.17749-5.7776-5.855-.82261-8.497a38.78524,38.78524,0,0,1,10.45194-3.70657,61.68278,61.68278,0,0,0,7.35506-1.9549h.00968" fill="#020202"/><path d="M296.41748,129.2375q1.2181-.99893,2.51152-1.87421l.64715-.43683a4.52633,4.52633,0,0,1,.74532-.39386,4.44,4.44,0,0,1,1.65392-.31335,45.14137,45.14137,0,0,1,6.23965.379,45.16161,45.16161,0,0,1-6.23965.379,3.91012,3.91012,0,0,0-1.40059.22509,9.349,9.349,0,0,0-1.33922.66461Q297.86424,128.61415,296.41748,129.2375Z" fill="#020202"/><path d="M304.37947,121.48665a13.39681,13.39681,0,0,1,1.95512-.10291c.32445-.003.64624.021.96929.03229a4.25628,4.25628,0,0,1,1.03036.19757,4.379,4.379,0,0,1,.936.462c.26646.183.5403.3537.79954.54883a13.23055,13.23055,0,0,1,1.51242,1.24359,13.2358,13.2358,0,0,1-1.81486-.73486c-.29531-.13458-.576-.29364-.86411-.44037a4.1742,4.1742,0,0,0-.81112-.361,4.07559,4.07559,0,0,0-.85874-.20319c-.319-.05218-.63925-.09167-.95683-.1582A13.39616,13.39616,0,0,1,304.37947,121.48665Z" fill="#020202"/><path d="M299.16873,125.0962a16.40239,16.40239,0,0,1,1.99521-.85058,14.42655,14.42655,0,0,1,2.10525-.62433,4.3213,4.3213,0,0,1,1.16669.00775c.37753.07379.71079.13782,1.06514.2276a16.20482,16.20482,0,0,1,2.077.62549,16.20651,16.20651,0,0,1-2.16872-.04083,8.4076,8.4076,0,0,0-2.03454-.06946,9.10913,9.10913,0,0,0-1.00235.22034c-.35089.07458-.69843.16143-1.0531.2221A16.39883,16.39883,0,0,1,299.16873,125.0962Z" fill="#020202"/><path d="M444.14473,328.4409a24.22567,24.22567,0,0,1-.27077-5.64206,16.3095,16.3095,0,0,1,.26132-2.1388c-5.8553-.7742-11.71013-1.54841-17.565-2.4388l-8.79737-1.33547c-2.93214-.49357-5.86475-.93877-8.78744-1.48072l-.01937,9.76484,35.87559,6.06789A15.16322,15.16322,0,0,1,444.14473,328.4409Zm-5.671-28.32663-29.48821,15.29078c2.96144.22257,5.91342.53226,8.87486.79358l8.855.93871c5.826.6097,11.64208,1.34522,17.44871,2.071l8.00349-4.142c2.7488-1.39359,5.48719-2.81625,8.25536-4.17109l8.28418-4.09371c2.78707-1.31616,5.54484-2.68069,8.35176-3.95816Zm-8.555,11.70033a4.47539,4.47539,0,0,0,.97722,1.0839,9.93079,9.93079,0,0,0,2.74832,1.55815,19.93866,19.93866,0,0,0,6.46489,1.31616,19.58874,19.58874,0,0,0,6.6487-.82258,9.995,9.995,0,0,0,3.00019-1.5291,5.35723,5.35723,0,0,0,1.14167-1.23878,3.445,3.445,0,0,0,.45506-1.18065,3.14826,3.14826,0,0,1-.43569,1.2,5.00051,5.00051,0,0,1-1.13222,1.25809,10.6674,10.6674,0,0,1-2.96144,1.68391,20.54926,20.54926,0,0,1-6.71627,1.35491,20.19566,20.19566,0,0,1-6.89065-.86133,10.91084,10.91084,0,0,1-3.21283-1.65486,5.91221,5.91221,0,0,1-1.29667-1.42265,3.51528,3.51528,0,0,1,0-3.95821,5.76042,5.76042,0,0,1,1.30612-1.4226,10.50056,10.50056,0,0,1,3.20338-1.64522,19.96111,19.96111,0,0,1,6.89065-.86133,20.54089,20.54089,0,0,1,6.71627,1.34521,10.66768,10.66768,0,0,1,2.96144,1.68392,5.04375,5.04375,0,0,1,1.13222,1.26777,3.04741,3.04741,0,0,1,.43569,1.1904,3.52264,3.52264,0,0,0-.45506-1.18071,5.56008,5.56008,0,0,0-1.14167-1.23872,9.9924,9.9924,0,0,0-3.00019-1.52909,19.35026,19.35026,0,0,0-6.6487-.82258,19.68587,19.68587,0,0,0-6.46489,1.31615,9.69183,9.69183,0,0,0-2.74832,1.5581,4.47742,4.47742,0,0,0-.97722,1.0839,2.25205,2.25205,0,0,0,0,2.46781Zm39.11725-4.37429-8.09091,4.46141c-2.69965,1.5-5.42907,2.92269-8.13864,4.39366l-8.17786,4.29691c-.02882.01938-.06757.02906-.09687.04838a14.70894,14.70894,0,0,1,.465,2.10979,24.36337,24.36337,0,0,1,.27076,5.64207,13.7648,13.7648,0,0,1-.42576,2.84525l32.21716-14.19719v-14.1972C474.407,304.42087,471.70685,305.91121,469.036,307.44031Z" fill="#020202"/><path d="M441.38666,300.11567a21.40367,21.40367,0,0,1-.72621-3.06207.48322.48322,0,0,1,.39211-.55975l.0306-.0044.12158-.01312a37.89162,37.89162,0,0,1,7.28025-.07239l.10577.00891a.56134.56134,0,0,1,.512.60663l-.00018.00208a22.31457,22.31457,0,0,1-.61751,3.80243,22.31459,22.31459,0,0,1-.61752-3.80243l.61741.61743a37.89162,37.89162,0,0,1-7.28025-.07239l.54411-.577A21.40343,21.40343,0,0,1,441.38666,300.11567Z" fill="#020202"/><path d="M461.77192,301.30861a21.4051,21.4051,0,0,1-.7262-3.06208.48322.48322,0,0,1,.3921-.55975l.03061-.00439.12158-.01313a37.89656,37.89656,0,0,1,7.28026-.07238l.10576.009a.5613.5613,0,0,1,.512.60663l-.00018.002a22.31252,22.31252,0,0,1-.61752,3.80243,22.31348,22.31348,0,0,1-.61751-3.80243l.61742.61743a37.89655,37.89655,0,0,1-7.28026-.07233l.5441-.57708A21.40234,21.40234,0,0,1,461.77192,301.30861Z" fill="#020202"/><path d="M408.97973,317.70192c-4.01542.6687-8.00482,1.47259-11.94339,2.42016a60.74383,60.74383,0,0,0-11.42283,3.76825,11.8062,11.8062,0,0,0-4.50351,3.269,2.73391,2.73391,0,0,0-.54427,2.14118,4.87815,4.87815,0,0,0,1.20784,2.1806,14.07053,14.07053,0,0,0,4.55138,3.33569,37.00063,37.00063,0,0,0,5.57159,2.0196,97.86634,97.86634,0,0,0,11.83609,2.53735c4.0057.64276,8.047,1.11969,12.10134,1.43189a226.70159,226.70159,0,0,0,24.38973.38262q12.19257-.45648,24.33088-1.48632c4.04351-.35047,8.078-.78229,12.09287-1.31891,4.01271-.54315,8.01753-1.132,11.96216-1.94019,1.97277-.39355,3.93239-.838,5.84772-1.38251a29.12227,29.12227,0,0,0,5.46726-2.05975,5.97891,5.97891,0,0,0,1.99931-1.54828,1.42913,1.42913,0,0,0,.22725-.41107,4.21883,4.21883,0,0,0,.13679-.59668,2.247,2.247,0,0,0,.08-.63336,6.02763,6.02763,0,0,0,.00791-.63171,6.59113,6.59113,0,0,0-2.72221-4.41706c-3.01981-2.379-6.89124-3.83-10.73063-4.98108a93.0004,93.0004,0,0,0-11.87274-2.62536.11384.11384,0,0,1-.09783-.12787.11688.11688,0,0,1,.11906-.09863c2.04227.11138,4.07354.33392,6.09924.62335,2.02559.28723,4.04831.63373,6.04662,1.1159a49.72017,49.72017,0,0,1,5.9356,1.7638,22.12951,22.12951,0,0,1,5.60083,2.93182,10.66257,10.66257,0,0,1,2.33413,2.36835,7.09715,7.09715,0,0,1,1.26513,3.26275,6.945,6.945,0,0,1-.0536,1.773,5.996,5.996,0,0,1-.18045.893,3.44,3.44,0,0,1-.4545.94611A7.85775,7.85775,0,0,1,501,334.91115a27.63261,27.63261,0,0,1-5.8846,2.38629c-1.99325.60016-4.00149,1.08746-6.01556,1.522a184.62613,184.62613,0,0,1-24.37935,3.01617c-8.15336.56806-16.32491.73078-24.48473.59821q-12.24077-.18366-24.45128-.89215c-8.13575-.50586-16.31643-.96784-24.37928-2.87641a33.09858,33.09858,0,0,1-5.943-2.01532,16.38263,16.38263,0,0,1-2.81629-1.64123,15.195,15.195,0,0,1-2.39872-2.21253,6.79584,6.79584,0,0,1-1.62443-3.14892,4.71262,4.71262,0,0,1,.91517-3.61206,13.28877,13.28877,0,0,1,5.34041-3.7475,57.01426,57.01426,0,0,1,11.90925-3.33258c2.01126-.38873,4.03955-.66815,6.06784-.91522,2.02869-.24689,4.05957-.45471,6.10083-.56427a.11389.11389,0,0,1,.11984.1076A.1153.1153,0,0,1,408.97973,317.70192Z" fill="#020202"/><path d="M280.36883,139.6363c.06885-1.96588.3266-3.81567.53063-5.67694.115-.92749.19616-1.85254.29953-2.78405l.2252-2.85187a10.8989,10.8989,0,0,1,.72107,5.779,16.8108,16.8108,0,0,1-.60359,2.85394A11.25507,11.25507,0,0,1,280.36883,139.6363Z" fill="#020202"/><path d="M297.03459,126.73372a13.27531,13.27531,0,0,1-14.46477,3.45172,12.33191,12.33191,0,0,1-5.97421-5.12891,11.4934,11.4934,0,0,1-.88174-1.79968l-.31226-.90619c-.11409-.29-.241-.6153-.33565-.939a12.84116,12.84116,0,0,1-.39142-3.937,51.8346,51.8346,0,0,1,3.10614-15.13611,53.4112,53.4112,0,0,1,3.69152-6.83618,38.90036,38.90036,0,0,1,4.70074-6.2091.50823.50823,0,0,1,.85707.20495l.00466.01624a48.45682,48.45682,0,0,0,2.31221,6.238,38.76653,38.76653,0,0,0,3.14634,5.83728,19.67448,19.67448,0,0,0,4.39638,4.81519,9.27989,9.27989,0,0,0,5.99977,1.95465l-.27281.14191a8.26366,8.26366,0,0,1,2.0123-1.68537,3.40687,3.40687,0,0,1,1.29565-.44433,1.8446,1.8446,0,0,1,1.36518.38165,4.02988,4.02988,0,0,1,1.19075,2.31915,15.22938,15.22938,0,0,1,.30122,2.51178.05435.05435,0,0,1-.0515.05707.05538.05538,0,0,1-.05679-.04822,15.02968,15.02968,0,0,0-.48708-2.44244,3.70422,3.70422,0,0,0-1.191-1.9964,1.803,1.803,0,0,0-2.043.20514,7.61452,7.61452,0,0,0-1.73833,1.62354.37931.37931,0,0,1-.2583.14062l-.01483.00147a10.00709,10.00709,0,0,1-6.63236-1.90571,18.72543,18.72543,0,0,1-4.73834-5.00567,36.7185,36.7185,0,0,1-3.26576-6.0033,49.43318,49.43318,0,0,1-2.25468-6.43677l.86154.2212a41.70918,41.70918,0,0,0-4.76395,5.94909,49.94282,49.94282,0,0,0-3.93556,6.5597,38.85194,38.85194,0,0,0-2.92735,14.97241,12.26981,12.26981,0,0,0,.54528,3.68982c.10089.2893.22116.55822.35747.86029l.35954.90185a10.58143,10.58143,0,0,0,.83918,1.64655,12.495,12.495,0,0,0,2.41124,2.80285,11.00063,11.00063,0,0,0,3.11082,1.98163,12.94848,12.94848,0,0,0,7.342.6731,14.03478,14.03478,0,0,0,6.70788-3.37537.05442.05442,0,0,1,.07686.07685Z" fill="#020202"/><path d="M276.72075,106.16707a24.84277,24.84277,0,0,1-.12667-5.556,20.692,20.692,0,0,1,1.1682-5.49537,9.0035,9.0035,0,0,1,3.40634-4.58752,5.65,5.65,0,0,1,2.77394-.8479,7.818,7.818,0,0,1,2.75881.52392,9.42545,9.42545,0,0,0-2.70526.006,5.60068,5.60068,0,0,0-2.35292,1.02063,9.28842,9.28842,0,0,0-2.86554,4.26965,28.48068,28.48068,0,0,0-1.34589,5.21838C277.13191,102.51057,276.88928,104.32612,276.72075,106.16707Z" fill="#020202"/><path d="M281.5323,108.21606a1.63071,1.63071,0,0,0,0-3.25946,1.63071,1.63071,0,0,0,0,3.25946Z" fill="#020202"/><path d="M291.24479,110.08822a1.63071,1.63071,0,0,0,0-3.25946,1.63071,1.63071,0,0,0,0,3.25946Z" fill="#020202"/><path d="M278.22432,102.05549a3.45175,3.45175,0,0,1,1.58465-.66723,4.97667,4.97667,0,0,1,1.72547-.00269,4.503,4.503,0,0,1,2.90349,1.72669c-.5837-.09436-1.0866-.24463-1.59624-.35328-.50318-.119-.99686-.22143-1.49291-.30358-.49357-.10242-.99495-.15406-1.50792-.22315Z" fill="#020202"/><path d="M290.5444,104.15071a2.89245,2.89245,0,0,1,1.34238-.59314,4.14961,4.14961,0,0,1,1.46022-.01648,3.5702,3.5702,0,0,1,2.44682,1.50232c-.51169-.04224-.93965-.14343-1.37124-.21362-.42635-.0763-.83776-.15735-1.25385-.21766C292.33528,104.45735,291.51663,104.36348,290.5444,104.15071Z" fill="#020202"/><path d="M281.697,110.80305a5.06259,5.06259,0,0,0,2.20122,1.62836,12.35383,12.35383,0,0,0,1.30519.43805,14.16681,14.16681,0,0,1,1.46975.43329,3.77937,3.77937,0,0,1-1.558.40991,3.99387,3.99387,0,0,1-1.62949-.27686,3.1585,3.1585,0,0,1-1.35164-1.039A2.13084,2.13084,0,0,1,281.697,110.80305Z" fill="#020202"/><path d="M284.991,123.19453a3.26164,3.26164,0,0,0,2.62468-.666,3.56537,3.56537,0,0,0,1.16572-2.36457,3.43625,3.43625,0,0,0-.64456-2.402,3.33173,3.33173,0,0,0-4.31708-.73127,3.45223,3.45223,0,0,0-1.402,2.05274,3.562,3.562,0,0,0,.31605,2.61578A3.26238,3.26238,0,0,0,284.991,123.19453Zm0,0a3.68465,3.68465,0,0,1-2.38462-1.41162,3.99856,3.99856,0,0,1-.72674-2.79114,4.09048,4.09048,0,0,1,1.37071-2.70544,3.88857,3.88857,0,0,1,5.6658.9635,4.09408,4.09408,0,0,1,.39824,3.00494,4.0071,4.0071,0,0,1-1.607,2.39356A3.67884,3.67884,0,0,1,284.991,123.19453Z" fill="#020202"/><path d="M287.55287,102.61561a1.63071,1.63071,0,0,0,0-3.25947,1.63071,1.63071,0,0,0,0,3.25947Z" fill="#b21919"/><path d="M264.63727,144.84736a45.42765,45.42765,0,0,1,.526-11.31988c.33052-1.8642.80732-3.6994,1.19435-5.54511.20619-.92077.36128-1.85144.53837-2.77813.2067-.92023.34763-1.85541.52367-2.78412.34741-1.85736.73-3.71356,1.23016-5.5373l.74813-2.738c.25758-.91052.57721-1.80194.87-2.7016a70.21192,70.21192,0,0,1,4.54031-10.38922.05447.05447,0,0,1,.07373-.02246.05608.05608,0,0,1,.0258.06592c-1.149,3.60583-2.43042,7.12793-3.54075,10.71307-1.22423,3.54626-2.273,7.14569-3.36853,10.74689a50.08909,50.08909,0,0,0-1.2947,5.49047c-.17633.924-.2602,1.8642-.36694,2.79859-.11528.93335-.19087,1.87128-.278,2.80627-.42545,3.72956-.92015,7.43775-1.31293,11.19287a.05453.05453,0,0,1-.05754.05127A.05725.05725,0,0,1,264.63727,144.84736Z" fill="#020202"/><path d="M286.63536,88.33491a8.39994,8.39994,0,0,0-1.62787-2.68127,3.13889,3.13889,0,0,0-2.57863-1.08911,5.63177,5.63177,0,0,0-2.688,1.186,19.80333,19.80333,0,0,0-2.32144,2.09839,35.702,35.702,0,0,0-4.05063,4.96167c-.62288.87756-1.10129,1.84424-1.64044,2.77185a25.50832,25.50832,0,0,0-1.41059,2.89111,52.44156,52.44156,0,0,0-3.71371,12.19605,34.9043,34.9043,0,0,0-.0164,12.70172l.00134.00641a.05414.05414,0,0,1-.10353.03052A26.21529,26.21529,0,0,1,265.46,110.48536a38.66577,38.66577,0,0,1,4.32361-12.27349c.5098-.95752,1.04135-1.8993,1.61252-2.818.57306-.917,1.08716-1.86853,1.67664-2.77417a44.981,44.981,0,0,1,3.67886-5.38061,13.47825,13.47825,0,0,1,2.427-2.26929,6.03693,6.03693,0,0,1,3.20729-1.24622,3.75019,3.75019,0,0,1,3.05378,1.55872,7.16083,7.16083,0,0,1,1.301,3.026.05425.05425,0,0,1-.04311.0636A.05839.05839,0,0,1,286.63536,88.33491Z" fill="#020202"/><path d="M285.3033,85.63118a11.00358,11.00358,0,0,1,.18063-2.78748,8.79514,8.79514,0,0,1,.91885-2.6748,6.392,6.392,0,0,1,1.89133-2.17481,6.60715,6.60715,0,0,1,2.69431-1.10205,12.81092,12.81092,0,0,1,5.65368.59778,26.69529,26.69529,0,0,1,5.153,2.234,32.0598,32.0598,0,0,1,8.61389,7.06262,49.43453,49.43453,0,0,1,10.39813,19.491A35.655,35.655,0,0,1,322.1,117.40419a29.69045,29.69045,0,0,0,.22525,10.82361,13.72872,13.72872,0,0,0,2.2233,4.858,9.49049,9.49049,0,0,0,4.23835,3.27289l.00657.00225a.05412.05412,0,0,1-.03074.10364,9.20148,9.20148,0,0,1-4.69667-2.98785,13.062,13.062,0,0,1-2.64441-5.00067c-1.11648-3.64392-.89868-7.546-.46653-11.16932a35.91567,35.91567,0,0,0-1.03949-10.808A50.15974,50.15974,0,0,0,316.302,96.13521a36.6208,36.6208,0,0,0-6.20949-9.05848,34.31428,34.31428,0,0,0-8.737-6.53613,35.453,35.453,0,0,0-4.99138-2.165,11.98228,11.98228,0,0,0-5.25021-.67663,6.00208,6.00208,0,0,0-2.43324.86181,5.77065,5.77065,0,0,0-1.80339,1.88428,10.94413,10.94413,0,0,0-1.46544,5.18176.05436.05436,0,0,1-.05354.05518A.058.058,0,0,1,285.3033,85.63118Z" fill="#020202"/><path d="M288.84915,82.98591a9.753,9.753,0,0,1,4.31326,1.38208,13.51783,13.51783,0,0,1,3.5062,2.97083,15.6112,15.6112,0,0,1,2.30884,3.954,19.43043,19.43043,0,0,1,.70224,2.16186c.14138.74512.28111,1.48572.37,2.22937-.32817-.68481-.567-1.38537-.87436-2.058-.3392-.65845-.6037-1.34326-.96708-1.97644a19.92345,19.92345,0,0,0-1.11123-1.87,18.627,18.627,0,0,0-1.26556-1.74926,18.03422,18.03422,0,0,0-3.12849-2.95362A15.379,15.379,0,0,0,288.84915,82.98591Z" fill="#020202"/><path d="M269.12886,139.63307c.68883-2.16516,1.57042-4.198,2.41156-6.2431.4362-1.01551.84021-2.03785,1.24542-3.05921a15.90935,15.90935,0,0,0,.94846-3.16876,7.44158,7.44158,0,0,1-.13652,3.41284,20.545,20.545,0,0,1-1.05526,3.23328A24.073,24.073,0,0,1,269.12886,139.63307Z" fill="#020202"/><path d="M281.3923,135.01582a18.98551,18.98551,0,0,0,3.41474,4.25439,6.74951,6.74951,0,0,0,2.22688,1.23292,9.99883,9.99883,0,0,0,2.71725.38281,4.87681,4.87681,0,0,1-2.91478.57617,5.50858,5.50858,0,0,1-2.82986-1.22669,7.54558,7.54558,0,0,1-1.83873-2.39032A7.10875,7.10875,0,0,1,281.3923,135.01582Z" fill="#020202"/><path d="M301.70055,147.02138a.00743.00743,0,0,0-.00759.00759" fill="none" stroke="#020202" stroke-linecap="round" stroke-linejoin="round" stroke-width="0.75838"/><path d="M295.49119,150.70344A160.85527,160.85527,0,0,0,265.25358,176.302q-3.37156,3.63648-6.50189,7.483c-.97461,1.07673-.94487,2.63349-.70949,4.22846.23687,1.59473.56684,3.25293.74067,4.935a28.74343,28.74343,0,0,1,.1123,5.0885,31.18409,31.18409,0,0,1-.84319,5.01715c-.75064,3.223-1.6667,6.408-2.348,9.6499a308.45789,308.45789,0,0,0-6.23753,39.26215c-.67029,6.59918-1.10268,13.2207-1.41788,19.84423-.311,6.621-.52736,13.25806-.51423,19.87208l-1.04125-.377q9.6057-11.91211,18.694-24.25146c6.02845-8.23682,11.98169-16.53083,17.60006-25.04969,5.63341-8.50555,11.08391-17.13922,16.0154-26.06891,2.48053-4.45343,4.84364-8.98034,6.9891-13.60522a123.995,123.995,0,0,0,5.718-14.1886.07584.07584,0,0,1,.14511.04407c-2.816,9.85083-7.13809,19.21081-11.88446,28.27277-4.8095,9.04364-10.08852,17.83111-15.70325,26.39025-5.64036,8.54206-11.47745,16.95545-17.63776,25.127-6.14814,8.18042-12.41687,16.26568-19.03138,24.08386l-.01013.012a.58487.58487,0,0,1-1.03125-.389c.25619-13.30713,1.2622-26.55329,2.6078-39.76661.30984-3.306.761-6.59625,1.10174-9.89911.42571-3.29248.80756-6.5921,1.30474-9.87561.49211-3.28424.92837-6.57794,1.5105-9.84979.50976-3.28424,1.15345-6.545,1.7937-9.80786.29728-1.63623.66792-3.2572,1.0388-4.87854l1.11487-4.86414a29.91618,29.91618,0,0,0,.76852-4.79394,27.41806,27.41806,0,0,0-.14538-4.84924c-.17563-1.61963-.52452-3.21534-.74744-4.90644a10.00438,10.00438,0,0,1-.07388-2.6513,6.182,6.182,0,0,1,.35277-1.37458,4.58007,4.58007,0,0,1,.7628-1.20758q3.18867-3.847,6.626-7.48071a147.04143,147.04143,0,0,1,14.65436-13.55542,130.64527,130.64527,0,0,1,16.38528-11.34729.07585.07585,0,0,1,.07942.12921Z" fill="#020202"/><path d="M320.01544,159.12513l-.00082-.0075,0-.00037c.33-2.12994.75276-4.23236,1.18553-6.331.43723-2.09723.9126-4.18323,1.38628-6.26813l1.48553-6.23456c.4898-2.07239,1.01-4.15973,1.46415-6.21081l.232.54925a22.00172,22.00172,0,0,0-3.22258-2.01965,10.9304,10.9304,0,0,0-1.76194-.72986,5.46081,5.46081,0,0,0-1.8979-.27576h-.00037l-.00747-.00085.00747-.0008h0a6.82012,6.82012,0,0,1,3.93082.358,17.44167,17.44167,0,0,1,3.61079,1.74322.51813.51813,0,0,1,.23811.5033l-.006.04626c-.27588,2.16931-.69132,4.26337-1.14939,6.36676-.45013,2.10041-.97477,4.182-1.52,6.25653-.56354,2.07026-1.1639,4.12964-1.8165,6.174-.66273,2.04156-1.35841,4.07312-2.157,6.07446v-.00006Z" fill="#020202"/><path d="M347.90928,208.87172q1.25089,17.3962,2.68515,34.76c1.00235,11.57348,2.05213,23.13909,3.27511,34.68212.58975,5.774,1.27822,11.53571,1.99652,17.29151q1.04668,8.63818,2.41432,17.22485c.88426,5.72687,1.87964,11.43634,3.12191,17.08447a114.8287,114.8287,0,0,0,4.64529,16.64875l.01331.035a.64172.64172,0,0,1,.02359.38233,64.72852,64.72852,0,0,1-2.38127,7.61712,43.52974,43.52974,0,0,1-3.46885,7.17926,18.5319,18.5319,0,0,1-5.33286,5.92127,8.09087,8.09087,0,0,1-3.75543,1.34393,8.24854,8.24854,0,0,1-3.8791-.68121,7.64191,7.64191,0,0,0,7.371-1.05054,17.909,17.909,0,0,0,4.86415-5.95966,47.82594,47.82594,0,0,0,3.08189-7.16131,63.55319,63.55319,0,0,0,2.10943-7.50635l.03687.417c-4.3998-10.92474-6.62805-22.45294-8.603-33.921-1.90159-11.49914-3.30452-23.06164-4.44188-34.6427q-1.70549-17.37249-2.59979-34.80053C348.4346,232.12458,348.01245,220.5,347.90928,208.87172Z" fill="#020202"/><path d="M433.378,341.81314s-3.18313,105.444-52.32619,132.38166c0,4.69914,27.04042,8.50855,60.39646,8.50855s60.39646-3.80941,60.39646-8.50855c0,0-54.45172-14.79085-50.44747-132.65738" fill="#020202"/><path d="M349.74035,366.68792a1.45252,1.45252,0,0,0,0-2.90331,1.45252,1.45252,0,0,0,0,2.90331Z"/><path d="M355.08245,362.50715a1.45252,1.45252,0,0,0,0-2.90331,1.45252,1.45252,0,0,0,0,2.90331Z"/><path d="M358.79869,357.39732a1.45253,1.45253,0,0,0,0-2.90332,1.45253,1.45253,0,0,0,0,2.90332Z"/><path d="M361.12134,350.66163a1.45253,1.45253,0,0,0,0-2.90332,1.45253,1.45253,0,0,0,0,2.90332Z"/><path d="M404.4388,322.32527a1.45252,1.45252,0,0,0,0-2.90331,1.45252,1.45252,0,0,0,0,2.90331Z"/><path d="M395.49659,324.76406a1.45253,1.45253,0,0,0,0-2.90332,1.45253,1.45253,0,0,0,0,2.90332Z"/><path d="M386.55438,328.59643a1.45252,1.45252,0,0,0,0-2.90331,1.45252,1.45252,0,0,0,0,2.90331Z"/><path d="M390.03836,333.93853a1.45252,1.45252,0,0,0,0-2.90331,1.45252,1.45252,0,0,0,0,2.90331Z"/><path d="M400.258,337.42251a1.45252,1.45252,0,0,0,0-2.90331,1.45252,1.45252,0,0,0,0,2.90331Z"/><path d="M412.10355,339.28063a1.45252,1.45252,0,0,0,0-2.90331,1.45252,1.45252,0,0,0,0,2.90331Z"/><path d="M424.18134,339.8613a1.45253,1.45253,0,0,0,0-2.90332,1.45253,1.45253,0,0,0,0,2.90332Z"/><path d="M436.25913,340.09356a1.45252,1.45252,0,0,0,0-2.90331,1.45252,1.45252,0,0,0,0,2.90331Z"/><path d="M449.03371,339.28063a1.45252,1.45252,0,0,0,0-2.90331,1.45252,1.45252,0,0,0,0,2.90331Z"/><path d="M461.22764,338.35157a1.45252,1.45252,0,0,0,0-2.90331,1.45252,1.45252,0,0,0,0,2.90331Z"/><path d="M474.11835,337.53864a1.45252,1.45252,0,0,0,0-2.90331,1.45252,1.45252,0,0,0,0,2.90331Z"/><path d="M486.54454,335.216a1.45252,1.45252,0,0,0,0-2.90331,1.45252,1.45252,0,0,0,0,2.90331Z"/><path d="M496.64808,332.42881a1.45253,1.45253,0,0,0,0-2.90332,1.45253,1.45253,0,0,0,0,2.90332Z"/><path d="M496.29968,326.85445a1.45253,1.45253,0,0,0,0-2.90332,1.45253,1.45253,0,0,0,0,2.90332Z"/><path d="M488.75106,323.60273a1.45252,1.45252,0,0,0,0-2.90331,1.45252,1.45252,0,0,0,0,2.90331Z"/><path d="M477.71846,320.58329a1.45253,1.45253,0,0,0,0-2.90332,1.45253,1.45253,0,0,0,0,2.90332Z"/><path d="M242.59994,72.40339c2.108,3.06787,3.99579,6.24659,5.88848,9.42176l2.78531,4.79345,2.74743,4.83045A43.32347,43.32347,0,0,1,250.63405,87.02c-1.05146-1.53149-2.03052-3.10889-2.97856-4.70325A84.35276,84.35276,0,0,1,242.59994,72.40339Z"/><path d="M257.44882,67.29353a86.818,86.818,0,0,1,3.34262,9.14734,85.81038,85.81038,0,0,1,2.41881,9.43384,85.80775,85.80775,0,0,1-3.34262-9.14734A86.82209,86.82209,0,0,1,257.44882,67.29353Z"/><path d="M233.454,82.98591a78.7791,78.7791,0,0,1,7.07718,5.99695,77.854,77.854,0,0,1,6.41432,6.70117,77.86882,77.86882,0,0,1-7.0772-5.997A78.77266,78.77266,0,0,1,233.454,82.98591Z"/><path d="M220.52144,153.68449a9.70826,9.70826,0,0,1-.714-8.00845,9.27422,9.27422,0,0,1,3.80635-4.51966,13.717,13.717,0,0,1-5.82789,2.227c-.65826.08553-4.90076.63687-5.66959-1.03771a2.22815,2.22815,0,0,1,.23769-1.82367c2.0102-3.97239,12.16471-6.06925,15.4919-1.78539a6.34646,6.34646,0,0,1,1.10339,4.6066s.85484,9.13943-.9569,11.65774c0,.00012-.04489,1.227-.0619,2.21688-.12759,7.41966,18.69812,29.69241,22.99639,34.72235" fill="none"/><path d="M250.928,191.93647c-2.52039-2.69769-4.93346-5.49145-7.332-8.30059q-3.55433-4.24942-6.90053-8.6778a96.00513,96.00513,0,0,1-6.24843-9.20868,33.0847,33.0847,0,0,1-2.50364-5.06012,11.55852,11.55852,0,0,1-.72518-2.86511,11.94182,11.94182,0,0,1-.01532-1.46307l.03331-1.389a.722.722,0,0,1,.118-.3797l.02491-.0376a6.623,6.623,0,0,0,.7646-2.46435,26.479,26.479,0,0,0,.24283-2.85584,53.16652,53.16652,0,0,0-.16336-5.81988l-.00073-.00892a.78774.78774,0,0,1,.00009-.12048,7.74812,7.74812,0,0,0-.11017-2.29187,5.17122,5.17122,0,0,0-.34242-1.05524,3.85592,3.85592,0,0,0-.53672-.86688l-.03883-.04223a5.55635,5.55635,0,0,0-2.9566-1.71137,12.07185,12.07185,0,0,0-3.65091-.30286,14.33732,14.33732,0,0,0-3.65625.74262,9.5339,9.5339,0,0,0-3.22287,1.76508c-.19892.219-.43641.4151-.61.65057a6.71265,6.71265,0,0,0-.47244.7439,1.3947,1.3947,0,0,0-.05744,1.44274,2.41137,2.41137,0,0,0,1.47.74176,8.005,8.005,0,0,0,1.8769.1518,14.00164,14.00164,0,0,0,7.37326-1.8869,13.591,13.591,0,0,1-7.364,2.4079,8.52888,8.52888,0,0,1-1.99664-.04615,3.04111,3.04111,0,0,1-1.955-.90991,1.71421,1.71421,0,0,1-.36765-1.15942,3.0362,3.0362,0,0,1,.27063-1.08466,7.3574,7.3574,0,0,1,.53412-.91632,9.33011,9.33011,0,0,1,.689-.79095,10.462,10.462,0,0,1,3.47571-2.08191,15.43532,15.43532,0,0,1,3.91059-.94214,12.4855,12.4855,0,0,1,4.06961.215,6.87124,6.87124,0,0,1,3.687,2.0857l-.03856-.04193a4.92974,4.92974,0,0,1,.83,1.24463,6.57766,6.57766,0,0,1,.46231,1.33227,8.75745,8.75745,0,0,1,.17827,2.72876l-.00064-.129a54.54184,54.54184,0,0,1,.20563,6.00116,27.91138,27.91138,0,0,1-.24092,3.03723,7.52575,7.52575,0,0,1-1.04055,3.12122l.14278-.41693-.04143,1.376a10.682,10.682,0,0,0,.00186,1.30048,10.181,10.181,0,0,0,.62223,2.48157,35.854,35.854,0,0,0,2.34439,4.87079c1.79069,3.177,3.85388,6.22247,5.94171,9.24627,2.09943,3.01905,4.31137,5.96405,6.54324,8.89527C246.35979,186.14283,248.65678,189.02662,250.928,191.93647Z" fill="#020202"/><path d="M223.618,141.15645a16.02589,16.02589,0,0,0-2.164,2.74554,10.78966,10.78966,0,0,0-1.23938,3.04163,11.09418,11.09418,0,0,0-.27441,3.28155,19.49025,19.49025,0,0,0,.57782,3.4613,7.324,7.324,0,0,1-1.74631-3.27258,7.79111,7.79111,0,0,1-.03155-3.8241,7.70563,7.70563,0,0,1,1.77151-3.39648A6.88819,6.88819,0,0,1,223.618,141.15645Z" fill="#020202"/></svg>