<svg id="Layer_1" data-name="Layer 1" xmlns="http://www.w3.org/2000/svg" viewBox="0 0 700 550"><title>waiting- frustrated</title><path d="M304.57244,190.21761c.61517,3.20325,1.28027,6.39295,2.04132,9.55847.78174,3.16,1.556,6.31934,2.509,9.42395a84.92546,84.92546,0,0,0,3.29651,9.12537,23.85774,23.85774,0,0,0,5.04352,7.96668l-.20422-.12684a11.29283,11.29283,0,0,0,3.24676.415,23.13277,23.13277,0,0,0,3.40534-.24817,34.36644,34.36644,0,0,0,3.37207-.71435c.55621-.152,1.1195-.27759,1.67059-.45068l1.6394-.57349a62.67583,62.67583,0,0,0,12.42774-6.31372c1.00049-.60291,1.93609-1.31043,2.91083-1.9574.95623-.67419,1.95184-1.29553,2.87768-2.01416l2.78394-2.14941c.92535-.72071,1.87317-1.41492,2.74682-2.2002,1.75818-1.55444,3.62146-2.99609,5.35248-4.58765q2.58544-2.39868,5.20471-4.77417-2.42485,2.56732-4.9,5.09729c-.80292.86622-1.69415,1.6399-2.54627,2.45618l-2.5968,2.40784c-.85241.81885-1.78186,1.54919-2.68933,2.306l-2.73364,2.26c-.90991.75586-1.89411,1.41772-2.83856,2.13183-.96631.68384-1.87976,1.44556-2.89588,2.05982a63.95334,63.95334,0,0,1-12.63055,6.58826l-1.68781.61047c-.56921.18555-1.15539.32458-1.7326.48877a26.39621,26.39621,0,0,1-3.53235.74646,24.5282,24.5282,0,0,1-3.63269.22351,12.22558,12.22558,0,0,1-3.721-.549l-.11078-.037-.09375-.09021a24.97276,24.97276,0,0,1-5.28229-8.48157,72.56957,72.56957,0,0,1-3.08007-9.3507c-.83509-3.16541-1.57764-6.35083-2.15534-9.56665C305.45647,196.68417,304.92559,193.46187,304.57244,190.21761Z"/><path d="M279.39928,434.57113a157.77928,157.77928,0,0,1,14.99768-6.66968,144.91384,144.91384,0,0,1,15.60553-5.14416,125.23815,125.23815,0,0,1,16.17353-2.98914,54.475,54.475,0,0,1,8.22448-.42456c.68915.01782,1.37787.09827,2.06812.145.68707.08691,1.377.186,2.06347.30847,1.39118.314,2.66114.73669,3.976,1.05164,10.577,2.38635,21.45868,3.43335,32.2821,4.504,5.41815.52955,10.84235,1.04261,16.2757,1.42066,2.71661.1792,5.43329.39343,8.15283.49805,1.35931.04724,2.71936.11084,4.07745.11718.68012.00916,1.35688-.00744,2.03406-.03442a6.99865,6.99865,0,0,0,1.9646-.296l.02374-.00965a.09566.09566,0,0,1,.076.17554,12.99344,12.99344,0,0,1-4.07171.78858q-2.05362.18547-4.1095.23791c-2.73962.06885-5.48023.1023-8.217.03467-5.47284-.1366-10.9422-.40076-16.39581-.87683-5.45337-.47742-10.88758-1.16931-16.30134-2.01636a113.33454,113.33454,0,0,1-16.07745-3.52295c-1.32086-.39648-2.62128-.90491-3.87817-1.26086-.64838-.15137-1.306-.28638-1.96637-.40393-.66956-.06568-1.33637-.16577-2.01032-.20423a40.28043,40.28043,0,0,0-8.11145.39063,104.5011,104.5011,0,0,0-15.81506,3.91687c-10.40839,3.13293-20.6806,6.73816-30.96246,10.44043a.097.097,0,0,1-.125-.05628A.09849.09849,0,0,1,279.39928,434.57113Z"/><path d="M274.2752,454.047l7.58288-17.97046a.2626.2626,0,0,1,.34406-.13989.28406.28406,0,0,1,.10992.08691l7.18726,9.45471-.61273.09815,4.50659-13.52857a.39877.39877,0,0,1,.50445-.25232.40442.40442,0,0,1,.20264.15247l7.15051,10.26684-.74267.04651,6.8454-13.05774a.39781.39781,0,0,1,.53515-.17285.4196.4196,0,0,1,.14612.1283l7.08716,10.27392-.529.04346,5.99816-12.26562a.20092.20092,0,0,1,.26777-.09534.2112.2112,0,0,1,.0816.071l6.915,10.5022-.27118.01489c2.00439-3.82824,3.94824-7.68786,5.917-11.53454a.182.182,0,0,1,.24506-.0791.18741.18741,0,0,1,.07428.07019l6.31872,10.63977-.41162.01672,5.859-12.26269a.29984.29984,0,0,1,.3999-.14136.30844.30844,0,0,1,.144.14722l6.26831,13.48876-.69092-.0299,6.82117-12.163a.45067.45067,0,0,1,.61352-.17273.45856.45856,0,0,1,.19049.20789l6.455,14.0448-.89246-.01233,6.1131-12.50049a.50716.50716,0,0,1,.91949.01758l5.92042,13.38574-.8819-.03576,6.47119-11.79126a.44782.44782,0,0,1,.60651-.18286.45822.45822,0,0,1,.19543.20825l5.66705,12.38757-.63867-.04309,6.86432-10.56824a.28643.28643,0,0,1,.39514-.08935.30711.30711,0,0,1,.09155.09289l6.71827,10.99158-.34876.0199,5.7179-11.75342a.04836.04836,0,0,1,.08746.04126l-5.44568,11.88208a.19779.19779,0,0,1-.26208.09741.20885.20885,0,0,1-.08686-.07739l-6.869-10.89807.48645.00354-6.73359,10.652a.364.364,0,0,1-.50232.11316.37668.37668,0,0,1-.13659-.15625l-5.81928-12.31665.80182.02539-6.396,11.83228a.49131.49131,0,0,1-.882-.03589l-5.94837-13.37329.91931.01758L365.7824,440.358a.49313.49313,0,0,1-.89264-.01245L358.51128,426.266l.80383.03516-6.93139,12.10058a.38728.38728,0,0,1-.527.14905.398.398,0,0,1-.16412-.179l-6.10865-13.562.54383.00585-5.97949,12.20447a.23333.23333,0,0,1-.311.10962.23957.23957,0,0,1-.10077-.09289l-6.23028-10.69178.31915-.00891c-1.9906,3.83545-4.00617,7.658-5.96112,11.51184a.1571.1571,0,0,1-.21106.069.16544.16544,0,0,1-.06037-.05407L320.60491,427.409l.34918-.02417-5.80658,12.35754a.30626.30626,0,0,1-.40735.14685.32791.32791,0,0,1-.12194-.10339l-7.23749-10.16858.681-.04456L301.279,442.66305a.43392.43392,0,0,1-.5849.18591.43961.43961,0,0,1-.158-.13928l-7.09265-10.307.70691-.09973-4.5993,13.49731a.34932.34932,0,0,1-.441.22266.358.358,0,0,1-.17194-.12451l-7.04913-9.55811.45373-.053-7.97876,17.79822a.04838.04838,0,0,1-.08874-.03857Z"/><path d="M399.30492,357.32674c2.066-2.79944,4.06507-5.60608,5.903-8.50769a22.74652,22.74652,0,0,0,2.43646-4.53467,7.37693,7.37693,0,0,0,.37152-1.23168l.14557-.6261.06988-.636c.04957-.41614.08954-.848.12317-1.30969l.1366-.66272.20532-.6427a13.62354,13.62354,0,0,1,2.92194-4.43018,32.07813,32.07813,0,0,1,3.90228-3.542,47.69944,47.69944,0,0,1,8.97577-5.36816.04845.04845,0,0,1,.06421.02417.05.05,0,0,1-.01776.06079c-2.86548,1.97-5.699,3.95215-8.387,6.09668a46.416,46.416,0,0,0-3.88215,3.36035,16.01912,16.01912,0,0,0-3.088,4.00159l-.24267.57922-.17932.59985c-.07111.39954-.13581.8291-.19465,1.27393l-.09393.655-.16925.63684a10.704,10.704,0,0,1-.36468,1.26208,28.00781,28.00781,0,0,1-2.04053,4.84424,34.51173,34.51173,0,0,1-6.5249,8.1626.04852.04852,0,0,1-.06855-.00256A.05047.05047,0,0,1,399.30492,357.32674Z"/><path d="M400.75347,362.47481c.1189-1.55566.25513-3.109.41821-4.65881a.25251.25251,0,0,1,.37482-.19348l.01343.00769c1.20532.687,2.41967,1.359,3.61767,2.05811l-.55847.31494-.065-5.98511a.42907.42907,0,0,1,.42261-.43543.44415.44415,0,0,1,.1892.04078c1.37586.64807,2.766,1.26428,4.13,1.93835l-.51685.41248-.93292-5.3993-.00159-.009a.2021.2021,0,0,1,.16474-.23352.20691.20691,0,0,1,.05542-.00183l3.73761.3905-.15308.2096c-.37982-.93213-.79437-1.84973-1.18982-2.77539-.39477-.92591-.80523-1.8451-1.22339-2.76111a.21677.21677,0,0,1,.17756-.30591l.01318-.0011,4.251-.36877-.3075.41552-1.5216-5.81726a.44341.44341,0,0,1,.47607-.553l.01471.00171,4.82025.53492-.56091.52832c-.16016-2.16822-.25916-4.34009-.39179-6.51a.492.492,0,0,1,.46125-.52124.5012.5012,0,0,1,.23584.04406c1.54992.71045,3.08184,1.45984,4.61639,2.20386l-.59906.36328q.19235-2.98425.44049-5.96582l.0014-.01648a.26714.26714,0,0,1,.28858-.24365.27991.27991,0,0,1,.08008.01953c1.6676.69385,3.31524,1.43921,4.97094,2.16382a.04841.04841,0,0,1-.03491.09021c-1.7121-.57886-3.43225-1.137-5.13245-1.74658l.36988-.24048q-.03817,2.99176-.13959,5.98047a.41861.41861,0,0,1-.58423.37024l-.015-.00672c-1.56244-.68335-3.12744-1.36108-4.67438-2.078l.6969-.477c.13476,2.1698.3031,4.3374.41034,6.50891l.00055.01148a.49683.49683,0,0,1-.47168.52075.52307.52307,0,0,1-.09-.00379l-4.80755-.63879.4906-.551,1.304,5.87.00336.01489a.3295.3295,0,0,1-.25018.39307.3476.3476,0,0,1-.06079.00769l-4.26484.13757.19062-.30676c.36487.93848.7373,1.87378,1.12555,2.80249.38751.92895.75592,1.866,1.15911,2.78833a.1504.1504,0,0,1-.07757.198.1683.1683,0,0,1-.07562.01184l-3.74713-.28528.21838-.24426,1.26019,5.33239a.36536.36536,0,0,1-.49493.42176l-.022-.00916c-1.40631-.58056-2.78643-1.219-4.181-1.82568l.61163-.39441-.065,5.98511-.00007.00976a.365.365,0,0,1-.55853.3053c-1.1756-.73608-2.33484-1.49939-3.503-2.24768l.388-.18579c-.25366,1.53747-.5343,3.07141-.83227,4.6029a.04846.04846,0,0,1-.09589-.01294Z"/><path d="M334.97035,132.83763a35.21179,35.21179,0,0,1-17.96184-1.70329,11.45436,11.45436,0,0,0-15.03915,8.34219,32.28875,32.28875,0,0,0-.571,7.80029,17.17959,17.17959,0,0,1-.98709,6.40653,17.31669,17.31669,0,0,0-.93877,4.36466c-.50326,6.097-1.37422,22.65556,2.83557,32.33328l14.03269-1.04515s.34844-2.09042,3.213-1.78079l11.67133-.59989s-5.82595-2.9905-2.35168-6.83253c0,0,1.39359-.69676,3.65821,1.81942l10.7713-27.14592C341.96738,154.58343,334.97035,132.83763,334.97035,132.83763Zm-22.791,44.95294a90.31952,90.31952,0,0,1,9.98741-.74508,102.90765,102.90765,0,0,1-19.85869,2.43868A90.31069,90.31069,0,0,1,312.17934,177.79057Zm11.53582,2.27424c-1.01615,2.22592-1.98392,4.46153-3.03876,6.65839a.42723.42723,0,0,1-.56132.2032.4663.4663,0,0,1-.15488-.11625l-4.10334-4.99362c-1.30647,2.39037-2.66137,4.742-3.98721,7.12279a.41651.41651,0,0,1-.58064.16456.45613.45613,0,0,1-.14519-.12593c-.80327-1.13222-1.62585-2.25475-2.40974-3.40646l-2.11943-3.06788c-.65807,1.10328-1.32584,2.18718-2.013,3.27108-.76452,1.2194-1.51941,2.4388-2.29361,3.63883.64845-1.27741,1.32584-2.54525,1.9936-3.8034.66777-1.2774,1.35491-2.53544,2.042-3.7839a.29085.29085,0,0,1,.39676-.11613.22774.22774,0,0,1,.08712.07738l.00963.00969,2.52593,3.32908c.70645.92914,1.39359,1.86785,2.08067,2.80668,1.30653-2.40018,2.584-4.80992,3.91947-7.1906a.46418.46418,0,0,1,.4065-.24194.486.486,0,0,1,.23226.058.589.589,0,0,1,.14513.11625l4.055,5.09049c1.0452-2.14854,2.14848-4.268,3.22269-6.39708v-.00968a.27523.27523,0,0,1,.36776-.1257.41.41,0,0,1,.11613.10632c1.30652,2.26467,2.56462,4.53891,3.813,6.83253Q325.68948,183.13741,323.71516,180.06481Zm4.626.38713c-.05807-1.19034-.15488-2.36142-.32907-3.53239-.12582-1.18065-.29032-2.35162-.45483-3.52258l-.97745-7.026c-.3-2.35174-.63871-4.69379-.9-7.0551-.271-2.35161-.542-4.713-.72583-7.08415.571,2.31311,1.03552,4.63566,1.46134,6.97771.43551,2.33237.79358,4.6743,1.12259,7.02592.3,2.35185.6,4.71316.75489,7.08415A38.18057,38.18057,0,0,1,328.34114,180.45194Zm1.7226-45.64983a27.12864,27.12864,0,0,1-5.01305-.27088,34.51565,34.51565,0,0,1-9.56159-2.855c1.62585.36788,3.24207.70645,4.84855,1.04527,1.61616.30963,3.23238.63864,4.84854.85152a46.15518,46.15518,0,0,0,4.87755.47432,27.08791,27.08791,0,0,0,4.9163-.23237A15.11969,15.11969,0,0,1,330.06374,134.80211Z"/><path d="M312.45391,219.789a124.66041,124.66041,0,0,0-4.01044,14.27954c-1.07849,4.82947-2.05609,9.68189-2.84784,14.5669-1.6499,9.75745-2.89667,19.58057-3.8352,29.43164-.9878,9.85132-1.50385,19.72778-2.10944,29.61914-.32922,4.95325-.60168,9.91284-1.12256,14.848l-.70666,7.41028-.86127,7.39185c-.53833,4.9331-1.25067,9.84192-1.93115,14.75537-.69348,4.9115-1.51471,9.80261-2.26581,14.70459-.83948,4.887-1.64117,9.78088-2.52319,14.65979-.90082,4.87561-1.79749,9.752-2.77771,14.61169-3.822,19.45947-8.13745,38.8103-12.7995,58.08277l-.68238-.18616a4.98869,4.98869,0,0,1,1.31763-1.96692,12.3868,12.3868,0,0,1,1.78735-1.40955,29.6915,29.6915,0,0,1,3.93769-2.13415,75.43932,75.43932,0,0,1,8.32635-3.12708c5.65082-1.77417,11.39289-3.2207,17.1792-4.44848q8.68167-1.8327,17.48572-3.01026a144.534,144.534,0,0,1,17.7074-1.39526,35.52336,35.52336,0,0,1,8.92169.87366,67.69857,67.69857,0,0,0,8.63837,1.5664c5.83734.73291,11.726,1.136,17.614,1.45752,11.78131.59473,23.59454.814,35.38879.80884l-.75665,1.09595a197.44,197.44,0,0,1-7.27667-28.70178l-.67871-3.63453-.589-3.64892c-.37744-2.43482-.81342-4.86194-1.10834-7.30823l-.9715-7.32727-.77673-7.34924c-.28534-2.44776-.4715-4.90369-.65778-7.35987l-.56622-7.36779-.35925-7.37989c-.11676-2.4602-.25092-4.9198-.2699-7.38269-.06433-4.92419-.27142-9.848-.16229-14.77221.05932-4.92383.0263-9.84986.272-14.76844l.55988-14.744c.17138-4.903.44555-9.80419.48742-14.70935l.13526-7.35754c.06543-2.45288-.01831-4.9043-.02008-7.35681-.03284-2.45191-.01593-4.906-.08954-7.35681l-.27319-7.35083a278.61853,278.61853,0,0,0-2.72779-29.27014c-.8-4.83057-1.64917-9.66163-2.88806-14.39551-.288-1.18933-.59357-2.37342-.95782-3.53955-.34839-1.171-.67475-2.35035-1.09259-3.49634l-.59443-1.73108-.66937-1.69885a29.40132,29.40132,0,0,0-1.52423-3.26953l.42883.21289-36.72772,3.00476-.0177-.19275,36.66211-3.72132.291-.02954.13812.24256a29.83031,29.83031,0,0,1,1.62982,3.38659l.7005,1.7229.622,1.74817c.43664,1.15943.7793,2.34583,1.14447,3.526.38129,1.1764.70276,2.3678,1.00641,3.564,1.30237,4.76514,2.21,9.61645,3.06824,14.47082a279.98079,279.98079,0,0,1,3.06347,29.38733l.35492,7.379c.10071,2.46033.11078,4.92224.17059,7.38367.02875,2.46142.13941,4.92383.10077,7.385l-.055,7.38464c.03082,4.92578-.25482,9.84143-.4148,14.76123l-.53173,14.72241c-.236,4.901-.19348,9.807-.24366,14.71119-.1,4.905.116,9.80676.18879,14.70971.02325,2.45252.16156,4.90039.28241,7.349l.34887,7.34632.52826,7.33459c.17352,2.44531.34693,4.89075.6192,7.32678l.73743,7.316.93121,7.29261c.2815,2.43542.70362,4.84948,1.06714,7.27258l.56806,3.63122.65722,3.61512.65711,3.61535.74707,3.59644c.47613,2.4032,1.03589,4.786,1.60211,7.16736,1.16028,4.744,2.39874,9.5144,3.987,14.08105l.38519,1.10755-1.142-.01148c-11.83276-.11877-23.64947-.46179-35.46057-1.18164-5.90314-.38452-11.8056-.84985-17.68341-1.65027a68.51746,68.51746,0,0,1-8.76581-1.69348,34.76934,34.76934,0,0,0-8.65643-.9342,134.31567,134.31567,0,0,0-17.6134,1.22753q-8.7735,1.12885-17.4469,2.9303a164.82844,164.82844,0,0,0-17.122,4.41175,74.8285,74.8285,0,0,0-8.23694,3.1444,29.05071,29.05071,0,0,0-3.83374,2.10352,6.81223,6.81223,0,0,0-2.80731,3.01221l-.68238-.186c2.30976-9.6289,4.40943-19.31384,6.40625-29.01513,1.98536-9.70435,3.92255-19.41846,5.68348-29.16431,1.78839-9.74072,3.45135-19.50183,5.0542-29.27149,1.51159-9.78344,2.95874-19.577,4.17157-29.39758l.8977-7.36719.743-7.38208c.54541-4.91857.842-9.85363,1.19611-14.78564.359-4.93335.60718-9.89893.98858-14.8418l.63764-7.41406c.21625-2.47082.50677-4.9353.75653-7.40295,1.08258-9.86133,2.4126-19.70179,4.25769-29.45264.90009-4.87878,1.986-9.723,3.17212-14.53906a124.89672,124.89672,0,0,1,4.33386-14.23218Z"/><path d="M389.29412,162.74566c.69653-4.52934-3.07768-3.36783-3.07768-3.36783l-11.20687,10.80025c1.5679-5.80663-2.72895-4.18084-2.72895-4.18084a18.53162,18.53162,0,0,0,.23226-5.51625,16.58339,16.58339,0,0,0-.48389-2.73887,7.81469,7.81469,0,0,0-1.0937-2.5645c.17437.90965.25163,1.80961.35819,2.70012.07749.9.18382,1.79024.26131,2.69988.09664.89052.17414,1.79048.29015,2.70013a24.39341,24.39341,0,0,0,.43568,2.71949,4.05747,4.05747,0,0,1-1.16151,2.61294c-.83215.94839-3.29033,7.68428-4.76136,11.84551h-.00969c10.80025-32.275-.85153-44.17868-.85153-44.17868l.74521.10632s22.31663,2.65193,24.87168,25.646A6.31468,6.31468,0,0,0,389.29412,162.74566Z"/><path d="M393.591,180.45569h-9.92934l7.20016-6.03888a6.96079,6.96079,0,0,0,2.05155-1.51947l.09687.59044S393.465,179.32347,393.591,180.45569Z"/><path d="M322.1662,95.623s13.58751,8.18735,22.64586,9.23255l1.21939,3.83237a30.54014,30.54014,0,0,1,1.39359-3.484c1.21939-2.78718,5.74856-3.484,6.27116-.34839s-1.21939,9.40674-6.097,11.14872c0,0-1.21939,17.94249,2.43878,17.94249l16.2005,2.43878s-6.968-13.93591-6.44536-35.18817-22.12326-15.1553-22.12326-15.1553S327.04377,88.48083,322.1662,95.623Z"/><path d="M323.734,116.35262a3.84752,3.84752,0,0,1,1.55542-.32983,4.653,4.653,0,0,1,1.59161.23327,3.63175,3.63175,0,0,1,1.41638.86707,2.3065,2.3065,0,0,1,.66254,1.49414,5.93144,5.93144,0,0,0-1.137-.90649,7.31272,7.31272,0,0,0-1.25159-.53846C325.69341,116.86385,324.75353,116.68526,323.734,116.35262Z"/><path d="M324.83727,109.73312a10.912,10.912,0,0,0-.43811,1.699,1.53705,1.53705,0,0,0,.07184.67664,8.72378,8.72378,0,0,0,.36627.87609,1.44106,1.44106,0,0,1-1.00409-.47168,1.48907,1.48907,0,0,1-.39783-1.16162,1.86743,1.86743,0,0,1,.47382-1.0581A1.71509,1.71509,0,0,1,324.83727,109.73312Z"/><path d="M322.74686,109.79116a1.45252,1.45252,0,0,0,0-2.90331,1.45252,1.45252,0,0,0,0,2.90331Z"/><path d="M333.89559,109.44276a1.45252,1.45252,0,0,0,0-2.90331,1.45252,1.45252,0,0,0,0,2.90331Z"/><path d="M328.05993,103.8684a1.45253,1.45253,0,0,0,0-2.90332,1.45253,1.45253,0,0,0,0,2.90332Z" fill="#b21919"/><path d="M349.30252,113.754a1.45253,1.45253,0,0,0,0-2.90332,1.45253,1.45253,0,0,0,0,2.90332Z"/><path d="M321.46941,104.04256a4.60255,4.60255,0,0,1,2.71881-.178,3.93549,3.93549,0,0,1,1.30194.53907,1.76463,1.76463,0,0,1,.85682,1.14868,4.09287,4.09287,0,0,0-1.178-.46521c-.39325-.09534-.78449-.2002-1.1944-.2793A13.01213,13.01213,0,0,1,321.46941,104.04256Z"/><path d="M329.83092,105.55233a5.61162,5.61162,0,0,1,1.82148-1.17676,7.53289,7.53289,0,0,1,2.11712-.54236,6.721,6.721,0,0,1,2.191.11426,5.36436,5.36436,0,0,1,1.9997.85c-.73371-.02649-1.40638-.10987-2.08643-.09974a14.9308,14.9308,0,0,0-2.00342.09742A29.318,29.318,0,0,0,329.83092,105.55233Z"/><path d="M322.16619,95.623c-.19971,1.75732-.37323,3.51245-.4599,5.27331-.12305,1.757-.18591,3.5166-.17932,5.27356a54.67057,54.67057,0,0,0,.85406,10.45179c.1565.85656.37134,1.69982.55835,2.54992.273.82178.48059,1.67163.80585,2.4729a20.0163,20.0163,0,0,0,1.06287,2.34473,10.49415,10.49415,0,0,0,1.55023,2.00342,9.43468,9.43468,0,0,0,4.42907,2.46386,11.70372,11.70372,0,0,0,5.19855.20618,7.26914,7.26914,0,0,1-2.62.44226,16.47019,16.47019,0,0,1-2.67591-.18408,9.9905,9.9905,0,0,1-4.84259-2.38672,9.33508,9.33508,0,0,1-1.75665-2.11414,20.61031,20.61031,0,0,1-1.16608-2.45507c-.35168-.829-.58123-1.699-.877-2.54785-.20691-.87049-.4455-1.73719-.61639-2.61512a49.82684,49.82684,0,0,1-.64521-10.64892A58.67128,58.67128,0,0,1,322.16619,95.623Z"/><path d="M339.9345,127.61751a32.43594,32.43594,0,0,0,4.22058-2.43127,13.24574,13.24574,0,0,0,1.78485-1.54419,13.38713,13.38713,0,0,0,1.46631-1.94665,5.304,5.304,0,0,1-.87219,2.41284,7.572,7.572,0,0,1-1.81372,1.86279,9.46176,9.46176,0,0,1-2.286,1.17786A7.55741,7.55741,0,0,1,339.9345,127.61751Z"/><path d="M349.80578,132.14669c-.02619.77685.04907,1.52673.05536,2.28784.0249.75879.01342,1.5166-.00208,2.27588a21.67436,21.67436,0,0,1-.55652,4.56238,17.39329,17.39329,0,0,1-.41015-4.59363,18.71326,18.71326,0,0,1,.21826-2.29724A6.34083,6.34083,0,0,1,349.80578,132.14669Z"/><path d="M334.9795,128.895v3.94851a225.39654,225.39654,0,0,0,8.168,22.31681" fill="none" stroke="#000" stroke-miterlimit="10" stroke-width="0.96777"/><path d="M383.60814,180.36446l9.98316-.15185.15912-.00244.06384.14929a46.15115,46.15115,0,0,1,2.62408,8.04431,28.76085,28.76085,0,0,1,.7743,8.4718,14.40874,14.40874,0,0,1-.94916,4.22949,10.844,10.844,0,0,1-1.03449,1.95142c-.22766.29248-.44152.59839-.68963.875l-.38581.40393-.1936.20166a1.41628,1.41628,0,0,1-.37176.23279,6.56452,6.56452,0,0,1-2.2992.286c-.72119-.00232-1.43121-.04-2.13879-.0896-1.41437-.10107-2.81586-.2544-4.21375-.42615-5.5874-.70288-11.12146-1.656-16.64807-2.647-5.52252-1.01563-11.019-2.14063-16.51373-3.30151l.638-.27344a6.15066,6.15066,0,0,1-1.73108,1.82812,5.14743,5.14743,0,0,1-2.3858.85779,11.97129,11.97129,0,0,1-4.69965-.72314,7.86839,7.86839,0,0,0-1.02777-.25281.8924.8924,0,0,0-.35211.01184,2.73166,2.73166,0,0,0-.41468.20178,9.8577,9.8577,0,0,0-1.67211,1.36817,37.31166,37.31166,0,0,0-2.99073,3.37365l-.02728.03418-.01544.01392a8.53863,8.53863,0,0,1-1.26373.972,3.21663,3.21663,0,0,1-1.63947.46984,2.2358,2.2358,0,0,1-1.57172-.77856,3.996,3.996,0,0,1-.80755-1.44714l.6242.12048a9.54371,9.54371,0,0,1-2.12823,2.01111,3.56751,3.56751,0,0,1-1.44672.543,1.92037,1.92037,0,0,1-1.56787-.48291l.02551.02429a2.31577,2.31577,0,0,1-.66186-1.56348,6.8571,6.8571,0,0,1,.08795-1.57153,18.77989,18.77989,0,0,1,.76178-2.97,46.31172,46.31172,0,0,1,2.34308-5.61l.13214.333a2.7826,2.7826,0,0,0-1.83856.00049,4.27362,4.27362,0,0,0-1.60132,1.07165,11.01674,11.01674,0,0,0-2.19055,3.31922l.00848-.02393a11.78064,11.78064,0,0,1-.52307,1.41455,5.29151,5.29151,0,0,1-.82037,1.29859,2.656,2.656,0,0,1-1.33.87158,2.3017,2.3017,0,0,1-1.6181-.18494l-.09619-.04956-.01972-.11267a12.46059,12.46059,0,0,1-.23895-2.96289,10.39465,10.39465,0,0,1,.53082-2.92993,11.17657,11.17657,0,0,1,1.2898-2.68653,10.71752,10.71752,0,0,1,1.95514-2.27771l.2843.52808a4.84894,4.84894,0,0,1-1.65863.16968,14.029,14.029,0,0,1-1.592-.15454,27.88864,27.88864,0,0,1-3.10022-.65589l-.05872-.01574-.055-.04053a2.8212,2.8212,0,0,1-1.35242-2.13416,2.335,2.335,0,0,1,1.49731-2.10083,3.41914,3.41914,0,0,1,1.24494-.23242l1.13647-.06762,2.27295-.13538,9.09162-.54163-.17536.97986a6.32662,6.32662,0,0,1-3.03656-2.71863,6.906,6.906,0,0,1-.76684-1.93029,3.20987,3.20987,0,0,1,.33075-2.23816,2.28956,2.28956,0,0,1,.916-.88355,2.02872,2.02872,0,0,1,1.2868-.1499,4.97442,4.97442,0,0,1,1.94446.931,16.48532,16.48532,0,0,1,1.50012,1.27966,15.927,15.927,0,0,0,1.41968,1.1637,17.22506,17.22506,0,0,0,6.63935,2.975c2.44122.46912,4.97284.81751,7.46411,1.09961l-.204.00757,22.24652-4.17651,5.56592-1.021,2.783-.51037,1.39148-.25525.69574-.12769a3.95773,3.95773,0,0,0,.57544-.15014,3.90156,3.90156,0,0,0,1.04737-.54908c.29944-.23132.70666-.58642,1.05438-.87256l2.17065-1.81518,4.34137-3.63037.05866-.04907.06732-.036a6.28569,6.28569,0,0,0,1.87341-1.38794,1.43336,1.43336,0,0,0,.36194-.767.86139.86139,0,0,0-.21844-.61255l-.5578-.58789.58123-.50318a9.36428,9.36428,0,0,0,.98853-.93542,5.65818,5.65818,0,0,0,.37952-.49915,2.01954,2.01954,0,0,0,.202-.48327.77882.77882,0,0,0-.19012-.76319,2.44219,2.44219,0,0,0-.94678-.587l-.58856-.20288.12115-.587a9.23594,9.23594,0,0,0,.22736-1.741,1.86472,1.86472,0,0,0-.34619-1.29345,1.33963,1.33963,0,0,0-1.217-.15528,5.5555,5.5555,0,0,0-1.56836.61292l-1.07831.6095.1358-1.23719.07215-.65722c.01135-.21521-.00263-.42224.00073-.63428a2.221,2.221,0,0,0-.33661-1.028,1.28133,1.28133,0,0,0-.85541-.46351,3.03949,3.03949,0,0,0-1.16931.06934l.23383-.13782-11.30811,10.695-1.079,1.02051.35083-1.45093a11.40263,11.40263,0,0,0,.31384-1.57654,3.26354,3.26354,0,0,0-.11126-1.47375,1.19349,1.19349,0,0,0-.92334-.80432,3.02624,3.02624,0,0,0-1.45575.129l.235-.35791a4.33334,4.33334,0,0,1-.93249,2.426c-.11554.16821-.28437.34106-.38391.48047a4.13447,4.13447,0,0,0-.29.45581c-.18579.33911-.35865.6947-.52777,1.05273-.66395,1.44275-1.26526,2.92639-1.855,4.41187-1.18,2.97265-2.2832,5.97851-3.39025,8.9823l-.13721-.04737c1.01056-3.03869,2.017-6.0791,3.10358-9.09509.54364-1.5083,1.09722-3.01208,1.7246-4.49927.161-.37109.32612-.74133.51325-1.11047a4.15422,4.15422,0,0,1,.34119-.56372c.13281-.1864.24658-.30066.35522-.46484a3.73329,3.73329,0,0,0,.75092-1.9939l.0028-.27918.2323-.079a3.72845,3.72845,0,0,1,1.8595-.19935,1.99693,1.99693,0,0,1,1.52441,1.261,4.02814,4.02814,0,0,1,.2013,1.84387,12.17957,12.17957,0,0,1-.30359,1.73035l-.72809-.4303,11.10517-10.90552.10412-.10229.13-.03577a4.14574,4.14574,0,0,1,1.69555-.12658,2.4877,2.4877,0,0,1,1.62287.8905,3.372,3.372,0,0,1,.61084,1.66614c.00543.26941.02325.54528.01226.81067l-.07507.78125-.94238-.62757a6.74949,6.74949,0,0,1,1.95154-.79346,3.5762,3.5762,0,0,1,1.1513-.08532,2.09592,2.09592,0,0,1,1.22724.54223,3.0466,3.0466,0,0,1,.77826,2.233,10.48332,10.48332,0,0,1-.23182,2.03l-.46728-.78968a3.723,3.723,0,0,1,1.57263.95655,2.19171,2.19171,0,0,1,.53571,1.9945,3.74044,3.74044,0,0,1-.86347,1.59131,10.65769,10.65769,0,0,1-1.16015,1.13171l.02343-1.09082a2.26984,2.26984,0,0,1,.55457.81189,2.17938,2.17938,0,0,1,.1604.95484,2.83715,2.83715,0,0,1-.68225,1.60376,7.61965,7.61965,0,0,1-2.31269,1.75879l.12568-.08484-4.33008,3.64245-2.165,1.82117c-.38007.31348-.67908.58484-1.12384.93274a5.39091,5.39091,0,0,1-1.44653.76379,5.45588,5.45588,0,0,1-.79139.20935l-.69537.12964-1.39069.25928-2.78149.51856-5.56293,1.0371-22.26886,4.05579-.10663.01953-.09777-.012c-2.55048-.30933-5.051-.67053-7.592-1.17847a18.10387,18.10387,0,0,1-7.12-3.27453,17.15865,17.15865,0,0,1-1.50293-1.27381,15.34288,15.34288,0,0,0-1.37323-1.21509,3.90048,3.90048,0,0,0-1.43848-.7456.855.855,0,0,0-1.00482.4602,2.08559,2.08559,0,0,0-.22027,1.44629,5.921,5.921,0,0,0,.61432,1.60242,5.26427,5.26427,0,0,0,2.49548,2.31335l2.0224.88526-2.19776.09473-9.09991.39209-2.275.098-1.13745.049a2.60487,2.60487,0,0,0-.9842.15539,1.56292,1.56292,0,0,0-1.0412,1.36341,2.12508,2.12508,0,0,0,1.02131,1.556l-.11341-.056a27.27779,27.27779,0,0,0,3.00324.69018,13.40432,13.40432,0,0,0,1.51538.17432,4.30764,4.30764,0,0,0,1.44012-.1117l1.436-.43762-1.15167.96582a10.21256,10.21256,0,0,0-1.86615,2.10681,10.11,10.11,0,0,0-1.25238,2.546,9.876,9.876,0,0,0-.523,2.78687,11.96048,11.96048,0,0,0,.21057,2.839l-.11579-.16187a1.83784,1.83784,0,0,0,1.24738.14136,2.18391,2.18391,0,0,0,1.0982-.72021,6.77231,6.77231,0,0,0,1.25965-2.52478l.00555-.01746.00311-.00684a12.03045,12.03045,0,0,1,2.29566-3.45959,4.71717,4.71717,0,0,1,1.75836-1.191,3.25928,3.25928,0,0,1,2.16077-.01611l.25134.08508-.11908.24817a45.85934,45.85934,0,0,0-2.26672,5.561,18.26576,18.26576,0,0,0-.71527,2.88636,6.31953,6.31953,0,0,0-.07081,1.44128,1.71857,1.71857,0,0,0,.47382,1.158l.02582.02454a1.35635,1.35635,0,0,0,1.064.26806,2.94892,2.94892,0,0,0,1.16419-.47424,8.90639,8.90639,0,0,0,1.91931-1.90332l.40656-.51563.21789.63611a3.30952,3.30952,0,0,0,.66974,1.14038,1.46422,1.46422,0,0,0,1.05078.507,2.464,2.464,0,0,0,1.19635-.38892c.18634-.13806.381-.25756.56177-.40686l.52923-.47412-.04248.04773a37.76119,37.76119,0,0,1,2.99793-3.52954,10.66825,10.66825,0,0,1,1.8316-1.55224,3.62491,3.62491,0,0,1,.60822-.30286,1.88359,1.88359,0,0,1,.77722-.06763,8.5031,8.5031,0,0,1,1.1969.26123,11.00823,11.00823,0,0,0,4.28271.59668,4.403,4.403,0,0,0,3.22577-2.19189l.22345-.35926.41486.0857c5.48492,1.13293,10.99316,2.182,16.49927,3.21191,5.50457,1.03418,11.02166,2.03064,16.55853,2.77356,1.38373.18164,2.76965.34448,4.15161.45471.69049.0542,1.38117.09619,2.06213.10389a6.24239,6.24239,0,0,0,1.85767-.17432c.06549-.02063.04822-.02734.07782-.03406l.17334-.17493.34808-.34924c.22455-.23987.41785-.50842.62738-.76282a9.83612,9.83612,0,0,0,.96558-1.73889,13.46445,13.46445,0,0,0,.96094-3.92773,27.96435,27.96435,0,0,0-.59143-8.23474,50.34917,50.34917,0,0,0-2.34723-8.0066l.22265.14673-9.98254-.18908Z"/><path d="M332.53191,181.94759c1.1546-4.18286,2.519-8.291,3.97193-12.36535,1.44476-4.07813,3.01178-8.11,4.64636-12.11634,1.67615-3.98938,3.38452-7.96753,5.30829-11.85449.95788-1.94531,1.943-3.87695,3.01947-5.76623a39.68657,39.68657,0,0,1,3.57946-5.44385c-2.00091,3.8407-3.54657,7.857-5.22149,11.82971l-4.89759,11.97278c-1.66528,3.97949-3.30511,7.97156-5.0346,11.92981C336.18822,174.098,334.43535,178.04879,332.53191,181.94759Z"/><path d="M323.4201,191.66036a12.99047,12.99047,0,0,1,1.8493-.766,14.17836,14.17836,0,0,1,1.907-.48669,11.29313,11.29313,0,0,1,1.94562-.19031,9.83058,9.83058,0,0,1,1.92834.1698,9.69585,9.69585,0,0,0-1.91088.07153,10.926,10.926,0,0,0-1.84772.41895,13.583,13.583,0,0,0-1.7522.69043,12.27385,12.27385,0,0,0-1.60779.91369Z"/><path d="M331.70733,203.96187a46.618,46.618,0,0,1,2.30285-4.15429c.41791-.67066.86212-1.32642,1.34424-1.953a9.44621,9.44621,0,0,1,1.61871-1.71888,9.33256,9.33256,0,0,0-1.41973,1.85657c-.40943.66321-.77845,1.35071-1.12085,2.05139a45.94181,45.94181,0,0,0-1.83265,4.29224Z"/><path d="M385.22619,173.48983c1.201-.71826,2.42938-1.39465,3.69506-2.01111.63263-.30933,1.27588-.60107,1.93989-.8606a10.80764,10.80764,0,0,1,2.09362-.62878l.10462.96216a10.03278,10.03278,0,0,0-1.972.35632c-.66363.17432-1.32458.38611-1.97967.61743C387.79583,172.38607,386.501,172.91488,385.22619,173.48983Z"/><path d="M385.22619,170.093a26.69675,26.69675,0,0,1,3.59417-2.808,14.52123,14.52123,0,0,1,2.03034-1.11646,7.38763,7.38763,0,0,1,2.31775-.653l.02569.9674a6.58135,6.58135,0,0,0-2.08368.36341,13.89971,13.89971,0,0,0-2.04992.85876A26.45555,26.45555,0,0,0,385.22619,170.093Z"/><path d="M383.31,168.04623q1.26864-1.56062,2.6449-3.03968c.46258-.49048.93731-.97192,1.43762-1.43689a7.76377,7.76377,0,0,1,1.72125-1.27234l.35413.90064a7.12842,7.12842,0,0,0-1.61646.93408c-.5318.38648-1.05237.8-1.56427,1.2262C385.26739,166.21639,384.27392,167.11556,383.31,168.04623Z"/><path d="M396.18841,200.12691c2.36663,11.00782,4.45581,22.05408,6.63189,33.08509,2.20087,11.02368,3.86042,22.15674,6.13953,33.17151,1.1427,5.50573,2.43732,10.97863,3.82593,16.42675.67065,2.72986,1.44159,5.43421,2.16888,8.14844.73071,2.71375,1.4729,5.4231,2.24939,8.12171.78247,2.69653,1.4975,5.41357,2.31879,8.0957l2.44659,8.05017,2.6872,7.95874,2.97033,7.83044.30963.81641-.72717.45581a42.69775,42.69775,0,0,0-8.08569,6.59424,25.11366,25.11366,0,0,0-5.62634,8.65124l-.772,2.52735c-.1463.44128-.2503.89563-.43231,1.32324l-.54871,1.27917a19.7391,19.7391,0,0,1-3.06915,4.58155,21.2759,21.2759,0,0,1-4.19739,3.491,20.62205,20.62205,0,0,1-4.87951,2.34095l-.061-.18372a22.7024,22.7024,0,0,0,8.41236-6.27612,18.63581,18.63581,0,0,0,2.664-4.45435l.44842-1.21411c.14911-.40393.22126-.83374.33618-1.24768.19947-.80286.4444-1.75207.6872-2.64123a26.74329,26.74329,0,0,1,5.69427-9.418,36.1754,36.1754,0,0,1,3.94361-3.82239,41.04657,41.04657,0,0,1,4.43817-3.28406l-.41742,1.27185c-1.03558-2.6355-2.05255-5.28345-3.03162-7.93823l-2.5979-8.06543-2.31671-8.1366c-.79339-2.70605-1.40863-5.45691-2.11261-8.18445l-1.01843-4.10022-.915-4.1239c-.59418-2.75256-1.25134-5.48974-1.81451-8.24756-.56336-2.75793-1.17359-5.50427-1.79084-8.249-.59338-2.75-1.1607-5.50537-1.79223-8.24682-2.45465-10.97876-5.26178-21.89783-7.21082-32.98584-1.98333-11.07862-3.86786-22.178-5.14612-33.37085Z"/><path d="M352.42162,212.1191c-2.69873,8.67224-5.74121,17.23694-9.05408,25.69641Q338.422,250.51535,332.6032,262.867a203.2294,203.2294,0,0,1-13.15552,23.93078,72.72988,72.72988,0,0,1-8.44128,10.79431,26.06454,26.06454,0,0,1-5.36939,4.30127,8.38808,8.38808,0,0,1-6.5957,1.20044,6.65409,6.65409,0,0,0,3.32825-.1903,10.64514,10.64514,0,0,0,2.999-1.44715,25.37356,25.37356,0,0,0,4.94537-4.51294A80.6267,80.6267,0,0,0,318.174,285.986q3.51893-5.77862,6.64288-11.80236,3.14548-6.00568,6.03962-12.14771c3.90228-8.16577,7.54425-16.46155,11.11834-24.78979C345.51525,228.90316,349.01922,220.53768,352.42162,212.1191Z"/><path d="M308.99651,210.5046c-3.68872,8.86768-7.90259,17.475-12.243,26.01392-2.199,4.25463-4.41968,8.49792-6.73956,12.68786q-3.4434,6.30414-7.21674,12.4281,2.77807-6.65862,5.88287-13.13672c2.0467-4.33178,4.19263-8.6101,6.36011-12.87719C299.43291,227.11629,303.95208,218.68026,308.99651,210.5046Z"/><path d="M324.14043,199.38741a63.91963,63.91963,0,0,1,2.45447,9.56812c.33185,1.61816.52716,3.25439.79547,4.884.22339,1.63416.38452,3.27551.57868,4.9148a163.28538,163.28538,0,0,1,.61969,19.76672c-.13959,6.59436-.73261,13.165-1.51081,19.70215-.40295,3.26733-.95062,6.51562-1.44922,9.7655-.64489,3.22925-1.24267,6.4624-1.95282,9.67212.27716-3.28149.68763-6.53662,1.01276-9.8009l.887-9.79224c.18158-3.27112.56562-6.52429.66577-9.79639l.27478-4.89843.13886-4.90223c.1806-6.53393.15619-13.07434-.18628-19.60241l-.33343-4.89136c-.16-1.625-.2602-3.26135-.47333-4.88184A82.39579,82.39579,0,0,0,324.14043,199.38741Z"/><path d="M325.77915,311.48242c.04843-.01937.08718-.02906.13538-.04843l.03875-.11613Zm0,0c.04843-.01937.08718-.02906.13538-.04843l.03875-.11613Zm2.59356-10.13254-1.00652-22.05555A172.12047,172.12047,0,0,0,280.71,260.23885c.3485,5.45824-12.89055,42.85295-12.89055,42.85295s1.858,6.73565,12.89055,7.66479,15.18428,3.25158,15.18428,3.25158a156.19211,156.19211,0,0,0,28.82995,4.64536l9.75522-9.52284Zm-17.50684-13.99406-12.07777,6.76472a15.47889,15.47889,0,0,1-1.22909,3.8614c-.784,1.6936-3.29056.22268-2.50661-1.46135a9.9445,9.9445,0,0,0,.40639-1.0064l-.03851-.29038a11.85112,11.85112,0,0,0-1.18089-3.37751c-.542-1.113-1.14191-2.21624-1.75173-3.30982-1.24822-2.17749-2.57418-4.31623-3.89046-6.45508-2.68051-4.2581-5.45813-8.45832-8.23551-12.668,3.08714,3.9871,6.01951,8.09044,8.83564,12.281,1.41291,2.09031,2.75825,4.21947,4.03554,6.41622.63888,1.0937,1.24846,2.19686,1.81953,3.33888.3192.6872.64833,1.3549.90965,2.08073a13.12018,13.12018,0,0,0,.15476-2.05167,1.45257,1.45257,0,0,1,2.90331,0c0,.49357-.01937.97746-.06757,1.46135,1.36447-.75489,2.73887-1.5001,4.10334-2.25487,2.46786-1.34533,4.93549-2.70012,7.44211-4.00671,2.49692-1.30635,5.00354-2.58387,7.5196-3.85171,2.53544-1.22909,5.07112-2.46775,7.684-3.53227-2.51606,1.27741-4.99362,2.60325-7.45179,3.96784Q314.53352,285.28,310.86587,287.35582ZM325.91453,311.434l-1.858,5.27431-.21288.61938-.44514-.45482a8.16659,8.16659,0,0,1-1.79047-3.59051,31.9423,31.9423,0,0,1-.78372-3.78391,74.9578,74.9578,0,0,1-.71638-7.626c-.12569-2.54525-.13538-5.10018-.116-7.64542s.1257-5.09049.31921-7.62605l.27124,7.61636c.09663,2.54525.25139,5.07112.41607,7.5971.18382,2.52576.40639,5.05174.77427,7.54855a33.37616,33.37616,0,0,0,.7159,3.67746,9.0317,9.0317,0,0,0,1.07433,2.7195l1.87742-4.63567.05813-.12569.116-.03875c1.084-.32913,2.17748-.62908,3.2615-.929,1.09347-.30976,2.17749-.60982,3.28088-.90008-1.055.41619-2.1196.8032-3.184,1.2C327.96632,310.69847,326.94043,311.0856,325.91453,311.434Zm-.13538.04843c.04843-.01937.08718-.02906.13538-.04843l.03875-.11613Z"/><path d="M325.95328,311.31786l-.03875.11613c-.0482.01937-.087.02906-.13538.04843Z" fill="#fff"/><path d="M322.05353,117.47722s-3.25323,12.022-6.564,13.2296c0,0,17.04239,5.6787,19.48705,1.28018,0,0,.60291-2.75226-.70358-3.09634S324.728,130.53442,322.05353,117.47722Z"/><path d="M385.22619,203.9963a6.37975,6.37975,0,0,1,.98547,2.41479,6.30922,6.30922,0,0,1,.03772,2.60779,6.30878,6.30878,0,0,1-.98541-2.41479A6.37979,6.37979,0,0,1,385.22619,203.9963Z"/><path d="M393.28122,446.109c-.28069-1.59673-.42576-3.16451-.61927-4.75167a.1.1,0,0,1,.07726-.11613.10489.10489,0,0,1,.10656.07738c.36764,1.54853.658,3.13557,1.04527,4.655a26.06373,26.06373,0,0,0,1.6161,4.4034,17.56913,17.56913,0,0,0,5.78726,7.026,28.29073,28.29073,0,0,0,4.1324,2.34193c1.37416.658,2.80644,1.24846,4.229,1.83867.13562.04843.26132.10656.3967.155a1.56479,1.56479,0,0,0-.18382,1.96449c-.30952-.12581-.629-.2612-.93871-.40651-1.84836-.85152-3.71633-1.6936-5.50656-2.7a28.75578,28.75578,0,0,1-3.01933-1.9646,18.23426,18.23426,0,0,1-5.79718-7.8583A22.66439,22.66439,0,0,1,393.28122,446.109Z" fill="#020202"/><path d="M368.11827,467.58593c-.40639.44525-.83215.93883-1.26784,1.48072a1.82145,1.82145,0,0,1-.087-.2032,10.3495,10.3495,0,0,1-.6677-2.82581,13.887,13.887,0,0,1-.03875-2.19686v-.02907a14.48437,14.48437,0,0,1,.19351-1.58716,21.77178,21.77178,0,0,1,.79364-3.27107,21.02021,21.02021,0,0,1,.85152-2.29361c.155-.37745.33882-.74521.50326-1.113.155-.3387.30975-.68708.44514-1.05484a46.50152,46.50152,0,0,0,1.45166-4.48079,43.54619,43.54619,0,0,0,1.6936-9.31.097.097,0,0,1,.09687-.09675.10341.10341,0,0,1,.09687.08707,25.80751,25.80751,0,0,1-.13562,4.80991,46.63891,46.63891,0,0,1-.76458,4.75167,47.52572,47.52572,0,0,1-1.23877,4.67442c-.1257.387-.26132.77414-.41608,1.16128-.14507.36764-.30007.72582-.42576,1.09346-.26132.73552-.52264,1.46135-.72583,2.20655a20.58354,20.58354,0,0,0-.70646,3.55177c-.02906.31932-.05812.63876-.06781.95808-.00968.19363-.00968.38713-.00968.58064a10.08351,10.08351,0,0,0,.22257,2.29373C367.9732,467.05373,368.04077,467.315,368.11827,467.58593Z" fill="#020202"/><path d="M432.14619,475.11522a3.4274,3.4274,0,0,1-.46451,1.34534,5.431,5.431,0,0,1-.99707,1.2194,12.02275,12.02275,0,0,1-4.5291,2.40005,26.24819,26.24819,0,0,1-4.83886.9484,31.3534,31.3534,0,0,1-9.69686-.50326,26.09722,26.09722,0,0,1-4.64558-1.442l-1.10316-.52264c-.358-.17413-.70645-.3967-1.06441-.59032l-2.07116-1.1614a29.88554,29.88554,0,0,0-8.93251-2.971,33.36289,33.36289,0,0,0-4.70324-.36775,38.1234,38.1234,0,0,0-4.70347.31944c-.5517.06769-1.08379.15475-1.61634.26131-.61927.10633-1.22886.24195-1.84836.37733a2.4434,2.4434,0,0,0-.28046-.79364,3.13264,3.13264,0,0,0-.20343-.33858c-.01937-.02906-.03851-.04843-.05789-.07749.66771-.11613,1.3451-.22257,2.03218-.30976.61927-.08695,1.24847-.15476,1.85829-.1935a39.55391,39.55391,0,0,1,9.629.50326c.31944.05812.63888.12581.95832.1935a34.90386,34.90386,0,0,1,8.17762,2.797,35.29821,35.29821,0,0,0,4.24842,2.1,24.32307,24.32307,0,0,0,4.1324,1.10328c.12593.02894.26132.058.387.07738a31.99935,31.99935,0,0,0,9.31977.00968,24.21892,24.21892,0,0,0,4.49035-1.04515,10.78423,10.78423,0,0,0,3.80352-2.09042,2.513,2.513,0,0,0,.8709-1.50009,2.38051,2.38051,0,0,0-.49358-1.56767,9.88229,9.88229,0,0,0-3.37751-2.65168c-.64833-.38725-1.37416-.67751-2.06124-1.0259l-2.14866-.9-4.2581-1.66465-.19351-.07738c-2.19686-.90008-4.40341-1.7711-6.60027-2.70012a1.39256,1.39256,0,0,0,1.23878-1.60642q3.04862,1.20463,6.12607,2.38068l1.01621.3967,3.426,1.35491c.73528.29037,1.49985.62907,2.24506.94851.73551.36764,1.48071.69677,2.19686,1.13222a11.80585,11.80585,0,0,1,3.968,3.32908A4.17939,4.17939,0,0,1,432.14619,475.11522Z" fill="#020202"/><path d="M431.68168,476.46056a5.06784,5.06784,0,0,0-.426-1.1034s-2.40974,6.41645-19.80057,4.59692a5.077,5.077,0,0,1-.02906-.54189c-.14507-4.48079,4.03553-9.668,6.53246-12.35846.71614-.76446,1.28721-1.31616,1.58728-1.60654.15475-.15476.24194-.23225.24194-.23225-1.55822-3.34846-12.92953-5.58407-12.92953-5.58407a5.05923,5.05923,0,0,0-1.43229.11625,6.68351,6.68351,0,0,0-2.00335.85153c-4.6066,2.87425-7.926,11.15843-8.55495,12.81328-.06781.18394-.10656.29038-.10656.29038s-.22257.10656-1.39353-.25163c-3.16464-.9484-6.997-.49357-10.752-.04843-.658.07749-1.316.155-1.96437.23225a2.4434,2.4434,0,0,1,.28046.79364,2.18226,2.18226,0,0,1,.00968.43545,2.513,2.513,0,0,1-.8709,1.50009,10.78419,10.78419,0,0,1-3.80351,2.09042,24.21892,24.21892,0,0,1-4.49035,1.04515c-.79364.11625-1.59673.2032-2.40006.25163l-.24194.51295-.42577.93871-.38725.842h15.7941l5.51625-2.34205v-4.34529s14.91352,5.20674,22.57819,7.51961C420.8037,485.4897,433.20091,482.43163,431.68168,476.46056Zm-25.37518-9.852a1.45257,1.45257,0,0,1,0,2.90331A1.45257,1.45257,0,0,1,406.3065,466.60859Zm4.70347-5.226a1.35664,1.35664,0,0,1,1.39354,1.28721,1.39256,1.39256,0,0,1-1.23878,1.60642.77993.77993,0,0,1-.15476.00968,1.30207,1.30207,0,0,1-1.1419-.58064,1.56434,1.56434,0,0,1,.18382-1.9646A1.33964,1.33964,0,0,1,411.01,461.3826Zm-7.839,11.32288a1.45258,1.45258,0,0,1,0,2.90331A1.45258,1.45258,0,0,1,403.17093,472.70548Z" fill="#020202"/><path d="M344.55086,448.60494a15.64719,15.64719,0,0,1-.55791-4.6855c.05923-1.79769.19063-5.60224.27963-7.0989a.1.1,0,0,1,.07726-.11613.10491.10491,0,0,1,.10656.07738c.04692,1.6232.0365,5.0749.05512,6.711a15.68692,15.68692,0,0,0,.98787,5.28887c.22008.592.44867,1.16639.6514,1.5954a17.56919,17.56919,0,0,0,5.78725,7.026,28.29136,28.29136,0,0,0,4.13241,2.34193c1.37416.658,2.80644,1.24846,4.229,1.83867.13562.04843.26131.10656.3967.155a1.56479,1.56479,0,0,0-.18382,1.96449c-.30952-.12581-.629-.2612-.93871-.40651-1.84836-.85152-3.71633-1.6936-5.50657-2.7a28.75669,28.75669,0,0,1-3.01932-1.9646,18.23426,18.23426,0,0,1-5.79718-7.8583A20.93422,20.93422,0,0,1,344.55086,448.60494Z" fill="#020202"/><path d="M382.78984,475.11522a3.4274,3.4274,0,0,1-.46451,1.34534,5.431,5.431,0,0,1-.99707,1.2194,12.02279,12.02279,0,0,1-4.52911,2.40005,26.24809,26.24809,0,0,1-4.83885.9484,30.53153,30.53153,0,0,1-3.25159.17413,32.7535,32.7535,0,0,1-6.44527-.67739,26.09707,26.09707,0,0,1-4.64559-1.442l-1.10315-.52264c-.358-.17413-.70646-.3967-1.06441-.59032l-2.07116-1.1614q-.595-.30478-1.19034-.58052a.00949.00949,0,0,1-.00969-.00969c-.05812-.01937-.09664-.04843-.15476-.06781a29.87059,29.87059,0,0,0-7.57773-2.313,33.36287,33.36287,0,0,0-4.70323-.36775,38.12369,38.12369,0,0,0-4.70348.31944,42.79076,42.79076,0,0,0-4.64535.91933,13.634,13.634,0,0,1-5.013.10644,12.04087,12.04087,0,0,1-2.45818-.6872,10.52488,10.52488,0,0,1-1.15159-.56114,5.16576,5.16576,0,0,1-1.10339-.66783,9.17623,9.17623,0,0,1-2.05155-1.91628,7.56466,7.56466,0,0,1-1.20972-2.11937,11.82581,11.82581,0,0,1-.70645-5.05174,20.42244,20.42244,0,0,1,.98714-4.85823,21.02234,21.02234,0,0,1,.85153-2.29361c.155-.37745.33881-.74521.50326-1.113.155-.3387.30975-.68708.44514-1.05484a46.49869,46.49869,0,0,0,1.45165-4.48079A67.20218,67.20218,0,0,0,322.788,438.398a.09677.09677,0,0,1,.09663-.09675.10291.10291,0,0,1,.09688.08707,56.45115,56.45115,0,0,1-.29038,7.11321,46.64446,46.64446,0,0,1-.76458,4.75167,47.52578,47.52578,0,0,1-1.23878,4.67442c-.12569.387-.26131.77414-.41607,1.16128-.14507.36764-.30007.72582-.42576,1.09346-.26132.73552-.52264,1.46135-.72583,2.20655a19.66789,19.66789,0,0,0-.77427,4.50985,10.28523,10.28523,0,0,0,.64833,4.326,7.23789,7.23789,0,0,0,2.66138,3.26127,4.40179,4.40179,0,0,0,.92925.58075c.3289.15476.63865.36764.98691.50326a10.50644,10.50644,0,0,0,2.10968.66771,12.65536,12.65536,0,0,0,4.48091.1355,44.41827,44.41827,0,0,1,4.76159-.65813,39.554,39.554,0,0,1,9.62905.50326c.31944.05812.63888.12581.95832.1935a35.59686,35.59686,0,0,1,6.058,1.8486c.71638.29026,1.42283.59989,2.1196.9484.15476.07737.29983.15475.44514.23225h.01937a28.57956,28.57956,0,0,0,3.7839,1.86773,24.32343,24.32343,0,0,0,4.13241,1.10328c.12593.02894.26131.058.387.07738a31.22687,31.22687,0,0,0,6.91971.26131c.80333-.04843,1.60642-.13538,2.40006-.25163a24.21892,24.21892,0,0,0,4.49035-1.04515,10.78419,10.78419,0,0,0,3.80351-2.09042,2.513,2.513,0,0,0,.8709-1.50009,2.18226,2.18226,0,0,0-.00968-.43545,2.4434,2.4434,0,0,0-.28046-.79364,3.13264,3.13264,0,0,0-.20343-.33858c-.01937-.02906-.03851-.04843-.05789-.07749a9.9741,9.9741,0,0,0-3.31962-2.57419c-.64833-.38725-1.37416-.67751-2.06124-1.0259l-2.14866-.9-4.2581-1.66465-.19351-.07738q-.24668-.10172-.49357-.2032c-.60959-.24194-1.20972-.49357-1.8193-.73551-.80333-.32913-1.60665-.64845-2.41-.97746-.61927-.26132-1.24823-.52264-1.87742-.784a1.39256,1.39256,0,0,0,1.23878-1.60642c.68708.27089,1.355.54189,2.0421.79352h.00969q.4788.20325.95808.37745c.542.22256,1.09347.43545,1.63548.63864.49357.19363.98714.37756,1.48072.57107l1.0162.3967,3.426,1.35491c.73528.29037,1.49986.62907,2.24506.94851.73552.36764,1.48072.69677,2.19686,1.13222a11.80578,11.80578,0,0,1,3.968,3.32908,4.83653,4.83653,0,0,1,.3967.69676,2.74043,2.74043,0,0,1,.19351.49358,3.02049,3.02049,0,0,1,.16445.64856A3.90492,3.90492,0,0,1,382.78984,475.11522Z" fill="#020202"/><path d="M382.32533,476.46056a5.06835,5.06835,0,0,0-.426-1.1034s-1.72266,4.58723-12.76485,4.90667a53.32493,53.32493,0,0,1-7.03572-.30975,5.07439,5.07439,0,0,1-.02906-.54189c-.116-3.53239,2.45818-7.50992,4.78073-10.34554.43569-.54189.86145-1.03547,1.26784-1.48072.16445-.18382.32913-.36764.48389-.5322.71614-.76446,1.28721-1.31616,1.58727-1.60654.15476-.15476.24195-.23225.24195-.23225A5.91543,5.91543,0,0,0,367.77,462.9407c-.47443-.25163-.98714-.49358-1.51946-.71615a51.84589,51.84589,0,0,0-8.7487-2.59368,5.05919,5.05919,0,0,0-1.43228.11625,6.68351,6.68351,0,0,0-2.00335.85153c-4.6066,2.87425-7.926,11.15843-8.555,12.81328-.06781.18394-.10656.29038-.10656.29038s-.22257.10656-1.39354-.25163c-8.13887-2.4388-20.6717,4.37435-24.99761-3.3872a3.07289,3.07289,0,0,0-.3967.91934c-.31944,1.18077-.29038,3.35825,2.75824,5.826l.49334,5.23568h12.89078l5.51625-2.34205v-4.34529s14.91351,5.20674,22.57819,7.51961c5.1583,1.5679,11.68107,1.0937,15.74566-.83227C381.31881,480.76709,382.93491,478.85092,382.32533,476.46056Zm-19.27817-13.79075a1.39256,1.39256,0,0,1-1.23878,1.60642.77993.77993,0,0,1-.15476.00968,1.30206,1.30206,0,0,1-1.1419-.58064,1.56432,1.56432,0,0,1,.18382-1.9646,1.33962,1.33962,0,0,1,.95808-.35807A1.35664,1.35664,0,0,1,363.04716,462.66981Zm-6.097,6.84209a1.45245,1.45245,0,0,1,0-2.90331A1.45245,1.45245,0,0,1,356.95015,469.5119Zm-3.13557,3.19358a1.45258,1.45258,0,0,1,0,2.90331A1.45258,1.45258,0,0,1,353.81458,472.70548Z" fill="#020202"/><path d="M321.23714,273.422a1.45253,1.45253,0,0,0,0-2.90332,1.45253,1.45253,0,0,0,0,2.90332Z"/><path d="M347.01857,220.93005a1.45252,1.45252,0,0,0,0-2.90331,1.45252,1.45252,0,0,0,0,2.90331Z"/><path d="M343.07007,229.05933a1.45252,1.45252,0,0,0,0-2.90331,1.45252,1.45252,0,0,0,0,2.90331Z"/><path d="M339.35382,238.58221a1.45253,1.45253,0,0,0,0-2.90332,1.45253,1.45253,0,0,0,0,2.90332Z"/><path d="M334.47625,249.26641a1.45253,1.45253,0,0,0,0-2.90332,1.45253,1.45253,0,0,0,0,2.90332Z"/><path d="M329.83095,260.18287a1.45253,1.45253,0,0,0,0-2.90332,1.45253,1.45253,0,0,0,0,2.90332Z"/><path d="M362.81261,182.374a1.45252,1.45252,0,0,0,0-2.90331,1.45252,1.45252,0,0,0,0,2.90331Z"/><path d="M366.52885,172.15436a1.45252,1.45252,0,0,0,0-2.90331,1.45252,1.45252,0,0,0,0,2.90331Z"/><path d="M367.69018,161.70243a1.45252,1.45252,0,0,0,0-2.90331,1.45252,1.45252,0,0,0,0,2.90331Z"/><path d="M367.22565,151.01823a1.45252,1.45252,0,0,0,0-2.90331,1.45252,1.45252,0,0,0,0,2.90331Z"/><path d="M364.67073,141.72762a1.45252,1.45252,0,0,0,0-2.90331,1.45252,1.45252,0,0,0,0,2.90331Z"/><path d="M393.58774,210.82652a1.45253,1.45253,0,0,0,0-2.90332,1.45253,1.45253,0,0,0,0,2.90332Z"/><path d="M395.67813,219.53646a1.45252,1.45252,0,0,0,0-2.90331,1.45252,1.45252,0,0,0,0,2.90331Z"/><path d="M398.11692,230.33679a1.45252,1.45252,0,0,0,0-2.90331,1.45252,1.45252,0,0,0,0,2.90331Z"/><path d="M400.7299,242.18232a1.45253,1.45253,0,0,0,0-2.90332,1.45253,1.45253,0,0,0,0,2.90332Z"/><path d="M402.82029,252.98265a1.45253,1.45253,0,0,0,0-2.90332,1.45253,1.45253,0,0,0,0,2.90332Z"/><path d="M405.43327,263.95718a1.45253,1.45253,0,0,0,0-2.90332,1.45253,1.45253,0,0,0,0,2.90332Z"/><path d="M407.52366,273.88652a1.45253,1.45253,0,0,0,0-2.90332,1.45253,1.45253,0,0,0,0,2.90332Z"/><path d="M409.78824,284.33845a1.45253,1.45253,0,0,0,0-2.90332,1.45253,1.45253,0,0,0,0,2.90332Z"/><path d="M411.87863,294.26779a1.45253,1.45253,0,0,0,0-2.90332,1.45253,1.45253,0,0,0,0,2.90332Z"/><path d="M414.14321,304.19712a1.45252,1.45252,0,0,0,0-2.90331,1.45252,1.45252,0,0,0,0,2.90331Z"/><path d="M416.582,314.12646a1.45253,1.45253,0,0,0,0-2.90332,1.45253,1.45253,0,0,0,0,2.90332Z"/><path d="M419.71758,323.5332a1.45253,1.45253,0,0,0,0-2.90332,1.45253,1.45253,0,0,0,0,2.90332Z"/><path d="M283.02952,445.87889a1.45253,1.45253,0,0,0,0-2.90332,1.45253,1.45253,0,0,0,0,2.90332Z"/><path d="M288.02322,437.05281a1.45252,1.45252,0,0,0,0-2.90331,1.45252,1.45252,0,0,0,0,2.90331Z"/><path d="M294.875,441.93038a1.45253,1.45253,0,0,0,0-2.90332,1.45253,1.45253,0,0,0,0,2.90332Z"/><path d="M300.7978,432.40751a1.45253,1.45253,0,0,0,0-2.90332,1.45253,1.45253,0,0,0,0,2.90332Z"/><path d="M307.998,438.91093a1.45252,1.45252,0,0,0,0-2.90331,1.45252,1.45252,0,0,0,0,2.90331Z"/><path d="M313.80465,430.78165a1.45252,1.45252,0,0,0,0-2.90331,1.45252,1.45252,0,0,0,0,2.90331Z"/><path d="M320.65648,436.82054a1.45252,1.45252,0,0,0,0-2.90331,1.45252,1.45252,0,0,0,0,2.90331Z"/><path d="M327.1599,428.34287a1.45253,1.45253,0,0,0,0-2.90332,1.45253,1.45253,0,0,0,0,2.90332Z"/><path d="M333.89559,435.427a1.45252,1.45252,0,0,0,0-2.90331,1.45252,1.45252,0,0,0,0,2.90331Z"/><path d="M339.23769,427.18154a1.45253,1.45253,0,0,0,0-2.90332,1.45253,1.45253,0,0,0,0,2.90332Z"/><path d="M345.97338,434.49789a1.45252,1.45252,0,0,0,0-2.90331,1.45252,1.45252,0,0,0,0,2.90331Z"/><path d="M352.70907,429.27193a1.45253,1.45253,0,0,0,0-2.90332,1.45253,1.45253,0,0,0,0,2.90332Z"/><path d="M358.5157,436.356a1.45252,1.45252,0,0,0,0-2.90331,1.45252,1.45252,0,0,0,0,2.90331Z"/><path d="M365.59979,431.24618a1.45252,1.45252,0,0,0,0-2.90331,1.45252,1.45252,0,0,0,0,2.90331Z"/><path d="M371.52255,438.21414a1.45253,1.45253,0,0,0,0-2.90332,1.45253,1.45253,0,0,0,0,2.90332Z"/><path d="M377.90984,432.52364a1.45253,1.45253,0,0,0,0-2.90332,1.45253,1.45253,0,0,0,0,2.90332Z"/><path d="M383.71647,438.7948a1.45253,1.45253,0,0,0,0-2.90332,1.45253,1.45253,0,0,0,0,2.90332Z"/><path d="M390.45216,432.872a1.45253,1.45253,0,0,0,0-2.90332,1.45253,1.45253,0,0,0,0,2.90332Z"/><path d="M396.37493,439.37546a1.45252,1.45252,0,0,0,0-2.90331,1.45252,1.45252,0,0,0,0,2.90331Z"/><path d="M402.76222,433.1043a1.45252,1.45252,0,0,0,0-2.90331,1.45252,1.45252,0,0,0,0,2.90331Z"/><path d="M407.87205,440.07226a1.45253,1.45253,0,0,0,0-2.90332,1.45253,1.45253,0,0,0,0,2.90332Z"/><path d="M349.30254,79.77083a45.712,45.712,0,0,1,1.41132-6.92248,45.19309,45.19309,0,0,1,2.34356-6.665,45.19533,45.19533,0,0,1-1.41131,6.92261A45.71531,45.71531,0,0,1,349.30254,79.77083Z"/><path d="M354.91558,81.16451a34.80173,34.80173,0,0,1,3.57812-5.0144,34.40708,34.40708,0,0,1,4.31891-4.39234,34.40623,34.40623,0,0,1-3.57812,5.01429A34.80217,34.80217,0,0,1,354.91558,81.16451Z"/><path d="M344.22478,79.77083a36.16631,36.16631,0,0,1-1.90094-5.98645,35.75936,35.75936,0,0,1-.95929-6.20739,35.75259,35.75259,0,0,1,1.90094,5.98645A36.176,36.176,0,0,1,344.22478,79.77083Z"/></svg>