<svg id="Layer_1" data-name="Layer 1" xmlns="http://www.w3.org/2000/svg" viewBox="0 0 700 550"><title>couple walking in park</title><path d="M281.69579,439.24253a12.31368,12.31368,0,0,0,.39134,5.50443,14.75488,14.75488,0,0,0,2.481,4.87093,13.37686,13.37686,0,0,0,.84829,1.07636l.95929.9863a18.621,18.621,0,0,0,2.0781,1.80056l.52876.4393c.18678.13391.38421.25531.57567.38362l1.15542.7601a18.99546,18.99546,0,0,0,2.40511,1.373,48.154,48.154,0,0,0,5.06414,2.30547c1.7794.6011,3.4961,1.21127,5.33467,1.79962a32.64258,32.64258,0,0,1,10.1815,5.52677,10.90021,10.90021,0,0,1,2.07541,2.16354,3.46383,3.46383,0,0,1,.62478,1.52793,2.03061,2.03061,0,0,1-.57075,1.66477,5.92368,5.92368,0,0,1-2.72195,1.35771,23.95674,23.95674,0,0,1-2.847.50958,40.487,40.487,0,0,1-11.43142-.3707,67.60942,67.60942,0,0,1-21.6238-7.49177l.10959.05638-2.401-1.00946,1.34033-.74836-.92981,7.00038a1.03265,1.03265,0,0,1-1.10537.89338l-.02912-.0024q-4.57624-.37543-9.1456-.82268c-3.04862-.27386-6.08963-.62637-9.1345-.93853l-.01029-.00105a1.04359,1.04359,0,0,1-.93356-1.07975c.07334-1.7167.193-3.43165.28865-5.14753l.30328-5.147.30853.69069a7.787,7.787,0,0,1-1.71448-2.44154,8.63746,8.63746,0,0,1-.73625-2.77593,11.72868,11.72868,0,0,1,.846-5.47671c.70689-1.71541,1.52535-3.18925,2.20991-4.82326.34069-.8045.66724-1.61595.94034-2.443a6.92851,6.92851,0,0,0,.47894-2.48406l-.00573-.05538a.09715.09715,0,0,1,.18935-.039,3.3708,3.3708,0,0,1,.04164,1.38659,11.70826,11.70826,0,0,1-.23895,1.32127c-.20339.86911-.461,1.721-.73367,2.56733-.28117.84262-.57754,1.68-.89683,2.50786l-.49426,1.233-.43438,1.20215a10.44056,10.44056,0,0,0-.45064,4.9104,8.207,8.207,0,0,0,.72946,2.27646,6.34655,6.34655,0,0,0,1.35881,1.81863l.00609.00532a.896.896,0,0,1,.30256.6856l-.09777,5.155c-.03813,1.71811-.05228,3.43715-.11251,5.15438l-.94373-1.08057c3.04849.2749,6.10085.50952,9.1456.82273q4.571.43115,9.1345.93859l-1.13426.8908,1.08572-6.97791.00339-.02129a.95784.95784,0,0,1,1.09367-.79923.99508.99508,0,0,1,.24351.072l2.37809,1.06273.01041.00468a1.0278,1.0278,0,0,1,.09953.05193,80.07067,80.07067,0,0,0,10.0463,4.98069A58.51693,58.51693,0,0,0,298.963,472.162a34.835,34.835,0,0,0,11.21026.47245,18.12863,18.12863,0,0,0,2.72967-.57356,4.90218,4.90218,0,0,0,2.26394-1.22151c.522-.56665.27205-1.30594-.25929-1.98722a9.85037,9.85037,0,0,0-1.97483-1.79875,35.29479,35.29479,0,0,0-9.975-4.76841c-1.7712-.56321-3.64638-1.17238-5.43759-1.83442a47.27086,47.27086,0,0,1-5.23361-2.49225,20.36008,20.36008,0,0,1-2.47622-1.52846l-1.19145-.844c-.19707-.14246-.39929-.27737-.59192-.426l-.54818-.4883a19.9794,19.9794,0,0,1-2.09576-2.04757l-.95812-1.11256a14.6135,14.6135,0,0,1-.84069-1.20618,16.64736,16.64736,0,0,1-1.421-2.568,14.04746,14.04746,0,0,1-.84747-2.80388,11.79423,11.79423,0,0,1,.18257-5.75115.10294.10294,0,0,1,.19941.0493Z"/><path d="M296.61937,458.84874a13.05376,13.05376,0,0,0-12.2295,6.051c-13.91089-7.53845-17.95142-3.689-17.95142-3.689-2.27512-5.69793-11.50311-12.94147-11.50311-12.94147l-.00006.00361c-2.63474,6.84077,1.47634,10.242,1.47634,10.242l-.39854,10.30733,18.27368,1.75626,1.008-6.99181,2.39559,1.03822s17.19722,10.33793,32.50133,8.3431c9.08834-1.18925,5.68654-4.83706,1.41538-7.61746a35.20108,35.20108,0,0,0-9.157-4.17739,55.98321,55.98321,0,0,1-6.49546-2.34886l-.00875-.00077" fill="#020202" stroke="#000" stroke-miterlimit="10" stroke-width="0"/><path d="M311.65733,473.43744l-1.23906.21052,10.31726.99311,1.00266-6.99119,2.39635,1.03858s13.962,8.39054,27.91983,8.59042c.60966.0077,1.22089-.00258,1.83335-.02194l.00883.00077c.91362-.02945,1.8312-.10415,2.7439-.22476a19.90494,19.90494,0,0,0,2.59385-.49294c.18653-.04747.35453-.09657.51369-.14643a7.38808,7.38808,0,0,0,.87579-.3243c3.74023-1.62267.86064-4.42533-2.57023-6.65669a35.38357,35.38357,0,0,0-9.15516-4.18038,58.32317,58.32317,0,0,1-5.771-2.03508c-.229-.09292-.4487-.185-.66762-.28613a.12967.12967,0,0,1-.05272-.02279l-.01766-.00154a12.99692,12.99692,0,0,0-11.55509,6.07772c-12.00389-6.50658-16.65926-4.52664-17.71024-3.86233a11.69443,11.69443,0,0,1,3.16359,3.10079,3.17745,3.17745,0,0,1-.80777,4.0291,5.00977,5.00977,0,0,1-1.25856.637A13.80932,13.80932,0,0,1,311.65733,473.43744Z" fill="#020202" stroke="#000" stroke-miterlimit="10" stroke-width="0"/><path d="M401.11954,462.94291s-26.76022-15.89516-29.37585-17.85929c-2.60605-1.96412.44081-9.15,3.2672-10.67342,0,0,30.42017,17.56228,25.23674,4.42649.87191,1.40846,7.22422,8.86257,7.22422,8.86257a19.21,19.21,0,0,0-2.75937,3.20972,21.79883,21.79883,0,0,0-2.06,3.73662,20.76678,20.76678,0,0,0-1.25508,4.06246A14.65674,14.65674,0,0,0,401.11954,462.94291Z"/><path d="M428.59835,450.09455l1.64793,2.9223A12.91127,12.91127,0,0,1,428.59835,450.09455Z"/><path d="M456.03868,482.546c-.86221,1.31261-54.67-14.81249-55.65679-16.55627a2.42462,2.42462,0,0,1,.73765-3.0468,35.23468,35.23468,0,0,1,.99648-4.05281c.42163-1.31267.87192-2.61569,1.418-3.87082.55567-1.26472,1.14022-2.51026,1.81086-3.71749.661-1.21677,1.39881-2.39529,2.127-3.60253v-1.09221s25.59124,22.3145,22.81279,6.47688l-.03836-.06708c3.37259,4.65643,9.77273,8.45059,14.27595,10.71173a26.314,26.314,0,0,1,11.28651,10.75962C458.894,480.09315,456.67118,481.607,456.03868,482.546Z"/><path d="M363.05363,187.61883c-5.35583,5.33671-10.47226,6.77388-10.47226,8.1248s.32585,2.32821,3.26721,1.13057c2.5678-1.04431,5.308-2.58692,6.39067-2.309.43111-2.52944.90058-5.0397,1.38923-7.55Q363.36988,187.30267,363.05363,187.61883Zm12.07223,21.69169-12.37878-13.74893c-.14374,1.2839-1.811,3.478-6.08412,5.672-5.27923,2.72108-4.733,4.13907-6.69722,5.6625-1.8491,1.44676-9.30327,1.89705-10.12723,1.94494.44069,1.351.67075,2.18454.67075,2.18454a162.36672,162.36672,0,0,0,9.24572,14.75494v.00959a115.47325,115.47325,0,0,0,12.57047,10.1177,54.85391,54.85391,0,0,0,6.91769,4.11988,22.78924,22.78924,0,0,0,3.71737,1.44677,9.72578,9.72578,0,0,0,3.76545.38327,34.67311,34.67311,0,0,0,3.91866-3.86124,37.37781,37.37781,0,0,0,3.363-4.47438,28.41769,28.41769,0,0,0,2.51985-4.963,23.66584,23.66584,0,0,0,1.32221-5.18338ZM459.09513,246.428s-4.34977-74.49349-30.49678-118.4902c0,0-17.04491-16.01967-34.52093-15.579l-5.76788,2.39529-1.31261,5.3942q3.52117,23.78529,8.00983,47.41719,2.24208,11.81352,4.9535,23.51213a200.53045,200.53045,0,0,0,6.51512,23.02349l-1.71495.6228a205.69926,205.69926,0,0,1-6.132-23.34928q-2.50068-11.78483-4.52228-23.64628c-2.72113-15.80891-5.05888-31.6753-7.10926-47.58l-3.75586-4.51269-7.94269.32572c-19.73716-3.21925-32.73886,18.73115-32.73886,18.73115-11.26745,15.349-13.89267,53.9036-13.89267,53.9036a14.10112,14.10112,0,0,1,2.73072,2.68277c.69941-.8911,9.562-12.29264,10.18466-12.91544.65157-.65151,2.28991-.76648,1.84921,1.09226-.412,1.79168-1.96407,5.72952-2.06,5.97864.37368-.297,9.12128-7.16669,11.43025-8.70924.5366-.36409,3.69843-.21082,2.94148,3.05639l3.91878-1.96418a3.00892,3.00892,0,0,1,1.88746-.30661c1.06338.21082,2.23237,1.054.94852,4.11995a4.61721,4.61721,0,0,1,2.05986.78566q.87683-4.211,1.83-8.3931c1.58092-6.86974,3.40136-13.68192,5.57618-20.37914-2.0119,6.74511-3.59293,13.60525-5.07794,20.48451-.63239,2.96055-1.23589,5.93074-1.79167,8.91047.34491.6228.32584,1.51384-.51742,2.77856v.00959q-.83349,4.42642-1.56162,8.86257l12.762,14.03635,12.83878,14.22806.134.14368-.02877.182a28.764,28.764,0,0,1-.661,3.22885c2.94148-.22994,19.90967-1.533,20.5037-.72818.65157.88151,2.28991,4.963-2.94136,5.13554,0,0,6.04565,4.57018,1.3029,7.34873,0,0,2.94148,5.38461-2.606,6.69722,0,0,1.75342,5.22175-4.51269,5.72,0,0-.06713,7.023-8.23018,3.43,0,0-10.5967-10.61588-13.35619-12.63755q-.56034.50306-1.14969.9773l-.06714.05748-.08608.00959a10.31013,10.31013,0,0,1-4.12953-.45988,23.27982,23.27982,0,0,1-3.7941-1.533,52.13714,52.13714,0,0,1-6.9081-4.27321A115.68962,115.68962,0,0,1,349.755,225.79012c.22994.939,15.78973,63.58054,15.349,81.73684l2.77844-9.63864,7.56926,7.78948s37.903,12.63755,70.57471-4.35941L437.31718,246.428S453.87333,252.09041,459.09513,246.428Zm-67.413-123.00289a1.3613,1.3613,0,0,1,0,2.721A1.3613,1.3613,0,0,1,391.68213,123.42508Zm2.17494,14.91787a1.36132,1.36132,0,0,1,0-2.72107A1.36132,1.36132,0,0,1,393.85707,138.343Zm2.61564,12.20638a1.36629,1.36629,0,0,1,0-2.73066A1.36629,1.36629,0,0,1,396.47271,150.54933Zm38.08509,82.762-2.654-13.13578-5.16414-26.30029-4.9632-26.33859L419.37169,154.353l-2.31868-13.2028,2.74979,13.11661,2.654,13.13572,5.17384,26.30029,4.963,26.33859,2.40488,13.18368,2.30909,13.20286Z"/><path d="M312.98979,83.55566s-2.61385,15.84644-14.70288,17.97019c0,0-7.84154-1.14356-1.14356,8.33163,0,0-.16337,8.65837-5.39106,10.45539,0,0-12.90586,1.96038-19.93057,3.2673,0,0,14.53952-16.82663,15.02961-23.19788S291.42556,79.30817,312.98979,83.55566Z"/><path d="M296.63535,109.265a26.84224,26.84224,0,0,0,3.01189,4.19159,14.41682,14.41682,0,0,0,1.86442,1.79673,7.38235,7.38235,0,0,0,2.25319,1.276,7.49551,7.49551,0,0,1-2.38629-1.09219,14.754,14.754,0,0,1-2.05716-1.66464,27.4706,27.4706,0,0,1-3.4568-4.02831Z"/><path d="M312.98975,83.55567a106.5838,106.5838,0,0,0,7.03406,11.76895,11.33215,11.33215,0,0,1,1.2084,3.3663,32.35274,32.35274,0,0,1,.56654,3.44337,38.3602,38.3602,0,0,1,.15684,6.96486,23.3392,23.3392,0,0,1-.48291,3.4925,10.55964,10.55964,0,0,1-1.322,3.40935,3.92517,3.92517,0,0,1-1.47776,1.39643c-.58444.29859-1.033.47312-1.53858.75157a20.262,20.262,0,0,0-2.79774,1.77489,12.57612,12.57612,0,0,0-4.09877,4.96781,7.583,7.583,0,0,0-.42666,1.52056c-.10211.54564-.16877,1.09474-.21614,1.6432a9.69736,9.69736,0,0,0,.18456,3.16724l.14362.52809-.41648.1845a9.61087,9.61087,0,0,1-5.98016.48729,12.29978,12.29978,0,0,1-5.20531-2.714,17.248,17.248,0,0,1-2.07973-2.04027c-.60409-.75452-1.19133-1.52375-1.73916-2.31224-.49391-.82606-1.02888-1.62494-1.48431-2.46718l-1.26583-2.576,1.46817,2.4572c.50409.80661,1.08384,1.56361,1.61939,2.34449.58806.74142,1.21016,1.45735,1.84185,2.15283a21.72863,21.72863,0,0,0,2.1002,1.86365,11.45939,11.45939,0,0,0,4.942,2.35295,8.81592,8.81592,0,0,0,5.234-.57577l-.27275.71232a10.51,10.51,0,0,1-.31953-3.65093c.03907-.5932.09977-1.18391.19649-1.76632a8.91873,8.91873,0,0,1,.46643-1.7898,13.82208,13.82208,0,0,1,4.4873-5.55779,19.49648,19.49648,0,0,1,2.99318-1.90657c.49929-.27332,1.11811-.523,1.55249-.74618a2.60718,2.60718,0,0,0,.983-.94156,9.338,9.338,0,0,0,1.15285-2.9615,24.53451,24.53451,0,0,0,.51075-3.30125,42.04167,42.04167,0,0,0,.00936-6.76142,31.39,31.39,0,0,0-.42046-3.35388,10.674,10.674,0,0,0-.96841-3.11759,43.80514,43.80514,0,0,1-3.42884-5.97466C314.87686,87.73557,313.89629,85.66237,312.98975,83.55567Z"/><path d="M311.6107,121.53332a104.16038,104.16038,0,0,1,16.95556,3.68653,52.14638,52.14638,0,0,1,8.12223,3.19277c.66268.30857,1.287.70076,1.93272,1.04795a9.54105,9.54105,0,0,1,1.85834,1.2939,9.90866,9.90866,0,0,1,2.62827,3.72049l.117.29095-.191.27159a49.18938,49.18938,0,0,0-5.89618,12.48648c-.77063,2.188-1.38443,4.43323-2.03179,6.66541-.55321,2.26135-1.14981,4.51067-1.60676,6.797-.98115,4.5544-1.77226,9.15458-2.4085,13.77632-.64467,4.61631-1.1504,9.27116-1.52139,13.89779l-.37414-.79174a18.03575,18.03575,0,0,1,3.76147,4.18693c.51449.75932.97063,1.54638,1.44208,2.32511.42327.79967.87952,1.586,1.27437,2.39675a95.13908,95.13908,0,0,1,4.194,9.9239q.91788,2.5259,1.73307,5.08552c.26982.86815.54234,1.676.77941,2.60935l.52677,2.66072c.66584,3.5108,1.2035,7.03415,1.75577,10.5548q1.62086,10.566,3.07739,21.14808c.92548,7.06265,1.88289,14.11969,2.70522,21.1955l-3.56018-21.06565c-1.16747-7.02339-2.32407-14.04867-3.56955-21.05454l-1.9374-10.48459-.52829-2.57435c-.2048-.7895-.50339-1.67118-.769-2.4998q-.82051-2.52333-1.74957-5.0106a93.53367,93.53367,0,0,0-4.18836-9.71083c-.39029-.78692-.83531-1.538-1.24957-2.30892-.45614-.73891-.89952-1.49188-1.38817-2.2014a16.475,16.475,0,0,0-3.35387-3.71375l-.40865-.31488.03438-.47719c.33988-4.71306.93449-9.365,1.60314-14.0214.67578-4.65176,1.50758-9.2834,2.53295-13.87735.47859-2.30391,1.09928-4.57871,1.67646-6.86172.68386-2.25743,1.28876-4.53757,2.13787-6.74721a50.41929,50.41929,0,0,1,6.35746-12.6908l-.074.56218a8.77988,8.77988,0,0,0-2.25482-3.34636,8.51,8.51,0,0,0-1.66524-1.21131c-.61894-.34992-1.21215-.74356-1.853-1.05925a58.5558,58.5558,0,0,0-7.89556-3.391c-2.71377-.955-5.4811-1.77167-8.275-2.48946C317.27039,122.69708,314.45511,122.0462,311.6107,121.53332Z"/><path d="M257.89728,135.73009a12.297,12.297,0,0,1,5.46192-.23327,12.44567,12.44567,0,0,1,5.12706,2.12373,13.81,13.81,0,0,1,3.74112,4.08661,7.1074,7.1074,0,0,1,.66,1.21153l.57847,1.24775c.297.86661.56608,1.74011.80631,2.61161-.435-.805-.78268-1.63486-1.209-2.42259l-.6952-1.14689a7.65224,7.65224,0,0,0-.73133-1.11079l-.7959-1.05972c-.27461-.34368-.60151-.64188-.89811-.96449l-.449-.48051-.50374-.42036a11.44975,11.44975,0,0,0-1.02724-.81153A13.80683,13.80683,0,0,0,263.213,136.187,16.65431,16.65431,0,0,0,257.89728,135.73009Z"/><path d="M255.06376,218.59487l.00935.00862.02515.0231.00164.04164.00046.00886-.02011-.05708a11.98525,11.98525,0,0,0,4.65911,2.58868,27.79136,27.79136,0,0,0,5.27338,1.10619,43.00662,43.00662,0,0,0,5.39268.32944,37.79966,37.79966,0,0,0,5.375-.32933c7.18833-.84823,14.32378-2.37994,21.46462-3.762,7.141-1.41262,14.305-2.75365,21.44111-4.23676,7.1378-1.47474,14.2156-3.21922,21.29293-4.95388l.03836-.00941.041-.00027.05427-.00035-.31508.43061c-.62689-1.90363-1.38864-3.77506-2.16383-5.62793-.78291-1.85194-1.62466-3.67811-2.55108-5.4549a45.37926,45.37926,0,0,0-3.04428-5.147,20.363,20.363,0,0,0-3.83387-4.37628l.36783.157a68.774,68.774,0,0,0-10.8388-.14578c-3.63024.21113-7.25779.5768-10.87634,1.02995-3.61621.47652-7.23031.99245-10.83237,1.59133-3.5996.59508-7.21043,1.20966-10.77529,1.93187l-.99905.20239-.10269-1.01989c-.334-3.31779-.55087-6.651-1.00993-9.9596-.44011-3.30911-.9787-6.60506-1.59448-9.88889-.62057-3.28263-1.34068-6.549-2.18406-9.78529-.81613-3.2431-1.7553-6.46209-2.87914-9.6148l.167-.071a89.61523,89.61523,0,0,1,3.50288,9.4606c.99074,3.21619,1.85986,6.47069,2.63037,9.75007.78315,3.27761,1.36314,6.599,1.91366,9.92363.546,3.32612.8787,6.68239,1.27542,10.03232l-1.10151-.81739c3.60978-.76794,7.21149-1.45758,10.84068-2.06047,3.62872-.58827,7.26645-1.13475,10.92511-1.53849,3.65878-.40236,7.33078-.71721,11.01927-.876a63.12021,63.12021,0,0,1,11.11072.38736l.21614.02866.152.12845a20.674,20.674,0,0,1,3.9934,4.81227,46.527,46.527,0,0,1,2.90826,5.39572,94.79569,94.79569,0,0,1,4.39433,11.352l.13965.43368-.455-.00289-.05427-.00035.07918-.00962c-3.55047.829-7.10949,1.62112-10.65237,2.48017-3.54661.84373-7.07756,1.754-10.61669,2.63341-7.0792,1.75141-14.1563,3.53525-21.30427,5.0161q-5.36028,1.11433-10.768,2.00919c-3.60627.59253-7.21991,1.15563-10.87974,1.505a39.09666,39.09666,0,0,1-5.53992.11614,44.006,44.006,0,0,1-5.49677-.55871,26.18853,26.18853,0,0,1-5.33782-1.454,11.5289,11.5289,0,0,1-4.605-3.0164l-.0214-.02584.00128-.03161.00035-.00886.02667.06438-.00854-.00938Z"/><path d="M280.8068,200.03515a15.81963,15.81963,0,0,0,2.53365-3.42682,7.94006,7.94006,0,0,0,.74513-1.88141,4.20386,4.20386,0,0,0,.065-1.79574l1.80734-.16821a5.80652,5.80652,0,0,1-.59484,2.4345,9.08021,9.08021,0,0,1-1.27226,1.9214A16.26543,16.26543,0,0,1,280.8068,200.03515Z"/><path d="M350.535,269.94765c1.40735,14.77679,2.75423,29.56132,3.84322,44.36711,1.103,14.8046,2.11974,29.61878,2.67388,44.466.64046,14.84693.43789,29.74471-.38537,44.57468-.395,7.419-.91531,14.82919-1.5132,22.23236-.63566,7.40142-1.35238,14.79-2.19716,22.17584l-.07322.64093-.63718-.11936c-17.824-3.33861-35.89156-5.59507-53.808-8.68936-8.84643-2.45172-17.98876-1.59968-27.06314-1.4598-4.54274.11766-9.08982.22842-13.64285.15351-2.27658-.03679-4.55386-.1317-6.83032-.31041a36.95287,36.95287,0,0,1-6.79114-1.08969,10.3963,10.3963,0,0,1-3.22416-1.43489,4.24244,4.24244,0,0,1-1.25589-1.38864,3.29151,3.29151,0,0,1-.35766-1.88775,7.46835,7.46835,0,0,1,1.4656-3.27113,29.41669,29.41669,0,0,0,1.68255-2.89159,81.15161,81.15161,0,0,0,4.7459-12.66773,245.38321,245.38321,0,0,0,6.05781-26.49543q2.37838-13.394,3.70042-26.944a236.70026,236.70026,0,0,0,1.33448-27.11355c-.07333-4.50257-.45894-9.02494-.72034-13.57072q-.44437-6.804-.81016-13.61321c-.27193-4.53786-.49111-9.07885-.68865-13.621-.22292-4.54072-.37613-9.08516-.55683-13.62809-.31439-9.08806-.56514-18.17946-.68268-27.274q-.08071-6.82065-.09392-13.64081c-.00842-4.54207.06959-9.09973-.0462-13.60274-.03591-1.124-.087-2.24163-.20409-3.33109-.03883-.555-.17263-1.05265-.25041-1.58308-.12467-.5673-.24877-1.15118-.3483-1.71214-.40736-2.26269-.72958-4.51386-1.04408-6.77146-.61776-4.513-1.14817-9.03245-1.62512-13.558-.94911-9.05052-1.66594-18.12852-1.94886-27.23336-.11977-4.55232-.1752-9.11245.11263-13.67361a51.19743,51.19743,0,0,1,.796-6.82419c.1021-.56622.26257-1.12652.39146-1.68947.16643-.55508.34537-1.12024.55987-1.65614a31.47115,31.47115,0,0,1,1.50373-3.10618,39.56277,39.56277,0,0,1,3.84275-5.68936,58.71669,58.71669,0,0,1,4.64578-5.02613c1.64466-1.57817,3.352-3.09038,5.14169-4.49823q1.3377-1.06118,2.72-2.06339c.45766-.338.92911-.65714,1.39449-.98423l.70806-.47681.35765-.23327.17906-.11634.11369-.06784c.03836.05949.07883-.22317.1152.12122v-.18152c-.02.38189-.04152.1384-.0621.23613l-.06527.04768-.17578.11937-.35111.23929-.69555.48925c-.45718.33545-.92022.66278-1.36945,1.00888q-1.3584,1.02375-2.66722,2.11014c-1.75331,1.43769-3.42077,2.97663-5.02157,4.57632a58.23656,58.23656,0,0,0-4.49958,5.07017,38.89876,38.89876,0,0,0-3.66241,5.66618,30.75123,30.75123,0,0,0-1.40279,3.05252c-.1945.52125-.35029,1.046-.50373,1.57843-.116.54588-.26292,1.08177-.3545,1.63474a50.35558,50.35558,0,0,0-.68654,6.71547c-.22175,4.51431-.10374,9.05163.07906,13.57867.41637,9.05779,1.25367,18.1,2.259,27.11678.51414,4.50749,1.08185,9.00982,1.73518,13.495.33145,2.23956.6732,4.48456,1.09,6.69038.10421.55681.22117,1.083.34432,1.6241.09907.59078.2545,1.19882.30035,1.77776.13579,1.16966.19731,2.32075.24386,3.46767.23227,9.14142.11871,18.18984.28444,27.27758.13426,9.07856.40128,18.15542.73192,27.23042.34806,9.07473.78209,18.1463,1.251,27.217q.33491,6.80387.74409,13.60432c.238,4.52655.60432,9.06736.658,13.65382a238.29356,238.29356,0,0,1-1.47378,27.30779q-1.47384,13.58529-3.99574,27.01995a246.48543,246.48543,0,0,1-6.36623,26.56408,81.513,81.513,0,0,1-4.9473,12.777,30.25629,30.25629,0,0,1-1.77646,2.97523,6.68394,6.68394,0,0,0-1.35051,2.85844,2.703,2.703,0,0,0,1.25051,2.53189,9.66219,9.66219,0,0,0,2.96066,1.34612,36.28374,36.28374,0,0,0,6.63535,1.13695c2.25108.2083,4.51631.29608,6.78224.34689,4.53363.093,9.07462.00123,13.61572-.098,4.54181-.09678,9.08573-.23806,13.63912-.18637a55.59092,55.59092,0,0,1,6.83768.39339c1.151.17725,2.24523.42917,3.35972.64163l3.34779.60648c8.95263,1.508,17.94993,2.79452,26.95016,4.04556,8.99941,1.28127,18.00479,2.46043,26.981,4.07421l-.71028.52146c.74408-7.37125,1.362-14.76623,1.89857-22.16046.56572-7.39312,1.05378-14.79223,1.41658-22.19625.348-7.40452.61859-14.81126.7552-22.21864.14842-7.40815.00327-14.811-.2393-22.22233-.22958-7.41008-.61765-14.81784-.9863-22.22622-.37181-7.40873-.8056-14.81535-1.26-22.221-.9601-14.8077-1.88021-29.62185-2.99587-44.422Z"/><path d="M271.8262,223.23329c8.35894,0,32.34635-5.15514,49.51779-9.10311-9.938,37.2927-29.11529,66.19018-66.1447,36.621l-.19056-32.074C255.26277,218.99482,258.77512,223.23329,271.8262,223.23329Z"/><path d="M332.00812,126.83864a452.03561,452.03561,0,0,1-5.29118,61.55244c-15.02956-1.22528-41.65819,4.45622-41.65819,4.45622q-.29946-3.56681-.717-6.87946c.39042-1.13448,16.67244-49.11856,32.36463-63.51285C316.70636,122.455,328.70461,125.40464,332.00812,126.83864Z"/><path d="M254.99744,225.52188,316.91075,228.31a78.23413,78.23413,0,0,1-3.85164,9.677,68.33988,68.33988,0,0,1-5.07795,8.98707c-.9677,1.42764-2.012,2.77856-3.09481,4.10077a38.76486,38.76486,0,0,1-3.53539,3.66959,30.37787,30.37787,0,0,1-4.00486,3.0947c-.68981.47906-1.44676.84315-2.17494,1.26472-.76654.33532-1.49471.7473-2.28991,1.0156a24.07364,24.07364,0,0,1-4.82882,1.34138l-2.52956.28743-1.27425.14368-1.26466.01918a34.98254,34.98254,0,0,1-10.11776-1.0156,36.63768,36.63768,0,0,1-9.49484-3.81328,35.35628,35.35628,0,0,1-7.69369-5.85413C255.4765,234.72936,255.85965,228.98066,254.99744,225.52188Z"/><path d="M352.361,447.69926c-13.39444-2.61564-47.37877-6.86008-59.4606-9.47572-12.09141-2.61569-61.76021,4.896-51.9587-8.82426s19.93844-71.87785,17.97425-102.595c-2.39529-37.59644-3.04674-60.78285-3.23831-75.47072a33.73174,33.73174,0,0,0,16.79579,10.99914,34.4691,34.4691,0,0,0,10.54886,1.39887l1.34127-.00959,1.3222-.13415,2.35705-.24912q-2.14137,15.40654-4.0624,30.82257l-3.89,31.79032-3.84205,31.79027c-.67063,5.29835-1.30314,10.59676-2.0312,15.88552-.65157,5.2984-1.47554,10.55845-2.39529,15.82809,2.606-10.37641,4.29234-20.954,5.91162-31.51244,1.6-10.5584,2.95095-21.16474,4.254-31.7615q1.89717-15.90951,3.478-31.85734,1.55208-15.4784,2.64441-30.98549l.23952-.02871a25.18975,25.18975,0,0,0,5.22169-1.40846,26.0313,26.0313,0,0,0,2.47189-1.121,26.855,26.855,0,0,0,2.31869-1.37969,27.15718,27.15718,0,0,0,3.8038-2.9606c-.32584,4.15825-.51742,8.3069-.642,12.4555-.15333,4.58941-.19169,9.17877-.21087,13.76812.01918,4.58941.05754,9.17876.21087,13.76817.14374,4.58936.34491,9.17871.74724,13.75853.40246-4.57982.60374-9.16917.74736-13.75853.15333-4.58941.19158-9.17876.21076-13.76817-.01918-4.58935-.05743-9.17871-.21076-13.76812-.134-4.20608-.32572-8.41222-.661-12.61836.07661-.06708.15321-.13415.22035-.20123a41.46817,41.46817,0,0,0,6.64926-8.28766,58.83273,58.83273,0,0,0,5.29841-11.08541c.37368,5.7487.84315,11.4878,1.2456,17.2269l1.49471,18.10841c1.01555,12.06264,2.17483,24.11575,3.22873,36.17845l3.53551,36.15928,1.83962,18.07,1.91624,18.07005c-.22994-6.0553-.63239-12.101-.9773-18.14671L325.49543,344.242c-.91976-12.07224-2.04068-24.13494-3.0947-36.19758-1.21682-12.05311-2.34733-24.11581-3.66954-36.14974L316.7,253.83418c-.709-5.7391-1.37-11.48779-2.13658-17.23649a64.18553,64.18553,0,0,0,2.34734-8.28772s8.69976.64192,26.31941-5.078c2.96066,17.1407,7.21464,46.72732,7.21464,46.72732s5.50916,63.37931,6.16073,98.66672S352.361,447.69926,352.361,447.69926Z"/><path d="M339.85313,209.29274H339.768v-.90759h.073c2.76581-.15157,8.42094-.73262,9.84969-1.84605a6.92434,6.92434,0,0,0,1.352-1.4587c.84584-1.12,1.80489-2.38874,5.41654-4.2507,3.8072-1.95927,5.49045-3.91854,5.79641-5.09841a.87075.87075,0,0,0-.02994-.6718c-.27976-.41731-2.61611.64373-4.013,1.27717-.71671.32468-1.46056.66245-2.19131.96-1.585.6456-2.574.74291-3.20464.31812a2.10628,2.10628,0,0,1-.68771-1.87225c0-.85894,1.00958-1.47273,2.84254-2.58663a39.18952,39.18952,0,0,0,7.765-5.8577c1.64489-1.63694,2.35131-2.97166,2.04254-3.86053-.32467-.93286-1.79553-1.29589-2.3354-1.35718l-.60163-.0683.23391-.55859c.54643-1.3015.67368-2.29377.36678-2.8692a1.32045,1.32045,0,0,0-.98057-.6297,2.54063,2.54063,0,0,0-1.59717.269l-4.785,2.39295.21988-.94127a2.01011,2.01011,0,0,0-.50712-2.22594,2.12645,2.12645,0,0,0-1.7422-.342c-1.935,1.29449-8.4986,6.41208-11.23073,8.5524l-.16654.13052-.55766-.71578.16468-.12912c2.74055-2.1464,9.32572-7.28037,11.2878-8.594a2.85673,2.85673,0,0,1,2.69563.30409,2.552,2.552,0,0,1,1.06479,2.33166l3.15036-1.57565a3.39851,3.39851,0,0,1,2.17915-.3476,2.2093,2.2093,0,0,1,1.6056,1.09379,3.85813,3.85813,0,0,1-.12725,3.127,3.38292,3.38292,0,0,1,2.51786,1.85167c.44069,1.2594-.31906,2.87575-2.25775,4.80509a40.04548,40.04548,0,0,1-7.93346,5.99009c-1.18267.71905-2.40652,1.4629-2.40652,1.811,0,.64093.088.98618.28631,1.119.19182.12912.75228.24888,2.356-.40514.71952-.29286,1.45308-.626,2.15856-.946,2.57587-1.16957,4.436-2.01073,5.14333-.95437a1.67954,1.67954,0,0,1,.15344,1.40256c-.46034,1.77494-2.80043,3.89795-6.25956,5.67758-3.42732,1.76653-4.31994,2.9492-5.10777,3.99152a7.79,7.79,0,0,1-1.51857,1.62712c-1.93214,1.50641-8.988,1.96114-10.383,2.03693Z"/><path d="M331.68856,191.64854l-.64935-.63344.97589-1.26361c4.30591-5.5232,8.77088-11.234,9.24713-11.71025a1.82588,1.82588,0,0,1,2.05377-.39719c.334.18526.84958.68069.56046,1.91109a52.97949,52.97949,0,0,1-2.00418,5.8474l-.18526.35883-.32655-.334-.41169-.15252.07673-.19929a50.09508,50.09508,0,0,0,1.96769-5.72671c.0524-.226.1469-.76443-.11883-.9118a.96728.96728,0,0,0-.97028.24608c-.50057.50058-7.02774,8.87473-9.17321,11.62651Z"/><polygon points="346.589 188.708 355.42 179.453 356.054 180.103 346.589 188.708"/><polygon points="349.747 192.704 362.192 181.287 362.787 181.972 349.747 192.704"/><path d="M307.60982,95.75068a2.37406,2.37406,0,0,1,1.69869-.76489,2.53875,2.53875,0,0,1,.94759.15158,1.53524,1.53524,0,0,1,.77333.61331c-.67426.07336-1.13964.11625-1.68536.14147A6.08012,6.08012,0,0,1,307.60982,95.75068Z"/><path d="M316.09368,95.75068a2.42932,2.42932,0,0,1,1.84735-.80306,2.28482,2.28482,0,0,1,1.85471.80306,17.17248,17.17248,0,0,1-1.84337.10392A11.58883,11.58883,0,0,1,316.09368,95.75068Z"/><path d="M308.33387,100.92684a1.36219,1.36219,0,0,0,0-2.72275,1.36219,1.36219,0,0,0,0,2.72275Z"/><path d="M317.89075,100.27338a1.36219,1.36219,0,0,0,0-2.72275,1.36219,1.36219,0,0,0,0,2.72275Z"/><path d="M318.95259,106.59018a1.51876,1.51876,0,0,1-.51753,1.32684,2.91239,2.91239,0,0,1-1.2663.70132,4.09313,4.09313,0,0,1-1.38221.11981,3.70787,3.70787,0,0,1-1.32653-.351,8.76256,8.76256,0,0,1,1.27952-.35571c.41005-.09964.80911-.1763,1.18793-.28748a5.54406,5.54406,0,0,0,1.08326-.39067A2.51455,2.51455,0,0,0,318.95259,106.59018Z"/><path d="M315.60363,101.44417a1.97823,1.97823,0,0,1,.94479.4624,1.89052,1.89052,0,0,1,.61928.94783,1.23054,1.23054,0,0,1-.02994.70063,1.00886,1.00886,0,0,1-.44046.52994,1.34767,1.34767,0,0,1-1.09367.13641,4.96959,4.96959,0,0,0,.6242-.66666.5334.5334,0,0,0,.05837-.48658,3.83984,3.83984,0,0,0-.28854-.72069A7.84814,7.84814,0,0,1,315.60363,101.44417Z"/><path d="M384.70717,72.06564a10.29589,10.29589,0,0,1-5.55442,0c-2.83167-.87129-4.13859.98019-3.1584,3.04948s2.62131,8.495-.323,9.14846-10.24129.76237-10.24129-.70792,3.81186-4.302,2.50493-5.9356-5.88115-10.34647,1.30693-10.78212,7.40589.43565,10.45538,0,11.43557-1.0891,13.72269,1.85148,5.99006,6.97025,5.99006,11.54448-1.74256,14.21037-4.02968,15.16454c0,0,4.57423-14.07544-.21782-10.37249s-3.92077-2.50493-3.92077-2.50493S385.90518,85.35268,384.70717,72.06564Z"/><path d="M366.80913,84.423c.33485,1.75089.63309,3.50218,1.05578,5.22169.19076.86326.412,1.71626.658,2.55454a10.77541,10.77541,0,0,0,.93707,2.3365,1.53614,1.53614,0,0,0,.30713.389,5.33529,5.33529,0,0,1,.53952.55315,5.52351,5.52351,0,0,1,.732,1.2903,24.883,24.883,0,0,1,.86981,2.59309c.50444,1.67589.93788,3.44124,1.95951,4.58583a9.031,9.031,0,0,0,4.13339,2.62086,7.49651,7.49651,0,0,0,2.4209.35818l1.32326-.07193c.43777-.01851.86911-.03153,1.28606-.08562a9.31087,9.31087,0,0,0,4.63374-1.951,23.65894,23.65894,0,0,0,3.79422-3.67282,19.93233,19.93233,0,0,1-3.37013,4.1881,9.581,9.581,0,0,1-4.90368,2.48685c-.46093.0873-.91823.12822-1.36618.17415l-1.3353.12349a8.72006,8.72006,0,0,1-2.84324-.31172,10.18717,10.18717,0,0,1-4.79256-2.95751,7.73559,7.73559,0,0,1-1.39905-2.53624c-.31485-.874-.55789-1.74619-.7794-2.60678a23.97872,23.97872,0,0,0-.73344-2.48875,4.75859,4.75859,0,0,0-.53274-1.04658,3.46125,3.46125,0,0,0-.364-.4225,2.55683,2.55683,0,0,1-.48946-.67059,17.52453,17.52453,0,0,1-1.33858-5.31462C367.00656,87.98279,366.83919,86.20736,366.80913,84.423Z"/><path d="M395.38032,95.39845a4.75318,4.75318,0,0,0-.72314,1.97839c-.13041.69621-.22012,1.39824-.28444,2.10506-.13041,1.41223-.17731,2.83742-.19731,4.2636-.03158,1.42672-.02468,2.85766-.028,4.29253-.00374,1.43517-.00456,2.874-.074,4.32438a37.3684,37.3684,0,0,1-.63356-4.293,39.87578,39.87578,0,0,1-.17134-4.34065,26.33044,26.33044,0,0,1,.40561-4.34561,13.98975,13.98975,0,0,1,.5573-2.12645A4.25375,4.25375,0,0,1,395.38032,95.39845Z"/><path d="M373.81615,88.89227a1.3622,1.3622,0,0,0,0-2.72276,1.3622,1.3622,0,0,0,0,2.72276Z"/><path d="M383.9448,88.67444a1.36219,1.36219,0,0,0,0-2.72275,1.36219,1.36219,0,0,0,0,2.72275Z"/><path d="M376.97449,97.76844c.478.38988.91765.769,1.36759,1.10383a4.17285,4.17285,0,0,0,1.36746.7361,1.60887,1.60887,0,0,0,1.33075-.20961,4.29347,4.29347,0,0,0,.65811-.4765c.21076-.1932.40655-.41027.6545-.60926a5.28363,5.28363,0,0,1-.30023.87962,2.92592,2.92592,0,0,1-.586.77161,2.17436,2.17436,0,0,1-.9049.52682,3.843,3.843,0,0,1-.54748.06471c-.17836-.02025-.36291-.03459-.53753-.07072a3.33721,3.33721,0,0,1-1.61881-1.09945A4.25528,4.25528,0,0,1,376.97449,97.76844Z"/><path d="M377.51905,89.38236c-.11521,1.10947-.36047,2.1167-.41251,3.07945a1.704,1.704,0,0,0,1.39273,2.03932,1.70156,1.70156,0,0,1-1.71273-.32305,2.28348,2.28348,0,0,1-.58607-1.7575,4.96043,4.96043,0,0,1,.41145-1.64735A4.56774,4.56774,0,0,1,377.51905,89.38236Z"/><path d="M381.87548,82.73884a4.867,4.867,0,0,1,1.81272-.99747,6.61745,6.61745,0,0,1,2.0643-.32238,6.14113,6.14113,0,0,1,3.87983,1.31985c-.69227-.09088-1.32711-.23047-1.97237-.29539a14.51874,14.51874,0,0,0-1.90828-.11741A19.26292,19.26292,0,0,0,381.87548,82.73884Z"/><path d="M375.30387,106.04542a11.32329,11.32329,0,0,1,.62175,2.683,21.09089,21.09089,0,0,1,.149,2.73812,19.72809,19.72809,0,0,1-.77075,5.41567c-.10058-.92006-.12187-1.82543-.13485-2.72812-.0214-.90262-.00058-1.80044-.00129-2.69771C375.19557,109.65852,375.23241,107.881,375.30387,106.04542Z"/><path d="M367.967,297.86329l4.3231,12.5303,4.223,12.56237c1.40348,4.1888,2.81247,8.37582,4.1693,12.57957l4.11,12.59857.01029.03143.00982.04389c1.592,7.14648,3.057,14.32,4.555,21.48655l4.30193,21.54049c1.4001,7.18739,2.90195,14.35308,4.38754,21.52223q2.27015,10.74489,4.6583,21.46462l-.13321-.21451a40.69039,40.69039,0,0,0,6.19325,3.73586,32.46877,32.46877,0,0,0,6.758,2.48441,20.17211,20.17211,0,0,0,7.05792.507,16.09389,16.09389,0,0,0,3.39574-.82952,15.39939,15.39939,0,0,0,3.07867-1.61962l-.30993.58829-.23614-39.53431.01661-19.76716c.02011-6.58906.00081-13.1781.07859-19.76716l.05076.29-4.14521-11.799-.06888-.19605.037-.19307c1.32091-6.89894,2.7113-13.78511,4.08462-20.67437,1.35343-6.893,2.81715-13.76554,4.22286-20.64884l.17848.033c-1.14875,6.93081-2.2395,13.87236-3.44054,20.79349-1.18115,6.92482-2.34523,13.85279-3.57878,20.76793l-.03181-.38873,4.34953,11.72524.049.132.00187.15842c.07777,6.58906.05848,13.1781.07859,19.76716l.01661,19.76716-.23614,39.53431-.00234.38947-.30771.19912a16.777,16.777,0,0,1-3.4182,1.72506,16.98366,16.98366,0,0,1-3.72451.81444,21.34142,21.34142,0,0,1-7.46212-.72122,34.3039,34.3039,0,0,1-6.9019-2.72488,41.43461,41.43461,0,0,1-6.24669-3.96374l-.10632-.08234-.027-.13251q-2.19786-10.7602-4.49023-21.50035c-1.56383-7.15251-3.11142-14.30846-4.76087-21.44275l-4.84648-21.42454c-1.55156-7.15513-3.136-14.30322-4.59339-21.47842l.01988.075-3.97655-12.64135c-1.3387-4.20953-2.62511-8.43582-3.91726-12.66032l-3.86345-12.67752-3.76346-12.70962Z"/><path d="M384.05369,348.37088c-.58876,6.56757-1.229,13.1285-1.97155,19.67622l-1.08431,9.82539-1.16431,9.815c-.8104,6.53894-1.61437,13.07874-2.49389,19.60876q-1.27946,9.80018-2.69294,19.58307l-.43848-.76338a55.3126,55.3126,0,0,0,6.51921,2.2419,48.379,48.379,0,0,0,6.76272,1.45349,33.11876,33.11876,0,0,0,6.90248.3304,21.11071,21.11071,0,0,0,6.73172-1.59992,19.37,19.37,0,0,1-6.68143,2.09711,33.25614,33.25614,0,0,1-7.05909.088,49.44549,49.44549,0,0,1-6.967-1.17881,55.595,55.595,0,0,1-6.77476-2.09155l-.50432-.19468.06573-.56894q1.13367-9.819,2.37143-19.62459c.80865-6.53918,1.69273-13.06862,2.57049-19.59888l1.36782-9.78876,1.44782-9.77843C381.90647,361.38079,382.95441,354.87251,384.05369,348.37088Z"/><path d="M419.08959,309.45541c1.215,6.44886,2.0443,12.9019,2.9775,19.33807.43193,3.22221.90724,6.435,1.40092,9.64338.51415,3.20692,1.01777,6.40971,1.75378,9.6073a45.56659,45.56659,0,0,1-3.14312-9.33125c-.41742-1.5915-.695-3.20706-1.0284-4.81414-.27778-1.61487-.54678-3.23224-.77964-4.85286-.43871-3.24595-.79531-6.50047-.993-9.76788A93.972,93.972,0,0,1,419.08959,309.45541Z"/><polygon points="401.404 230.214 407.294 230.747 407.143 231.642 401.404 230.214"/><polygon points="400.185 251.64 395.513 247.048 400.775 250.95 400.185 251.64"/><polygon points="405.034 245.963 400.064 241.995 405.548 245.215 405.034 245.963"/><polygon points="407.794 239.215 402.779 236.037 408.22 238.413 407.794 239.215"/><path d="M442.18448,247.77c-.05848,3.17952-.15625,6.35614-.15052,9.51876a31.66536,31.66536,0,0,0,.273,4.63821,1.54709,1.54709,0,0,0,.12245.37847c-.00959-.01856.02749.04848-.03322-.02979-.04853-.05883-.18818-.06717-.08339-.04576l.28865.07213a4.74941,4.74941,0,0,0,1.041.17476,1.187,1.187,0,0,0,1.26256-.86978,4.30981,4.30981,0,0,0,.23625-1.00022l.09825-1.16685a10.57189,10.57189,0,0,1,.53449-2.45749,8.94588,8.94588,0,0,1,1.14864-2.25882,4.60237,4.60237,0,0,1,.92911-.97177,2.35931,2.35931,0,0,1,.669-.36377,2.93717,2.93717,0,0,1,.44058-.06927,1.978,1.978,0,0,1,.47157.0981,1.81021,1.81021,0,0,1,.92712,1.22782,6.07035,6.07035,0,0,1,.20468,1.26273,16.81992,16.81992,0,0,1-.03029,2.43412c-.1241,1.60325-.33111,3.18168-.59146,4.76064l-.00082.00485a.20376.20376,0,0,1-.06.11444,24.0391,24.0391,0,0,1-2.7037,2.22795,12.68607,12.68607,0,0,1-1.50337.91964c-.26.14041-.53473.256-.80923.372a4.78387,4.78387,0,0,0-.76292.29924,1.22878,1.22878,0,0,0-.54864,1.23922,1.26973,1.26973,0,0,0,.923.98738,7.763,7.763,0,0,0,3.267.27418.40945.40945,0,0,1,.40455.57464l-.00842.01869c-.35473.78774-.71987,1.56044-1.12478,2.33081a10.795,10.795,0,0,1-.68162,1.15168c-.18819.24909-.21006.26819-.24152.38512a.63427.63427,0,0,0,.01509.35508,1.49815,1.49815,0,0,0,.42818.79627.7707.7707,0,0,0,.70607.08334,5.74412,5.74412,0,0,0,1.91623-1.1892.62538.62538,0,0,1,1.01437.32357l.008.0333c.28537,1.1739.99647,2.51225,1.91167,2.69558.91238.20686,2.08687-.62421,2.97317-1.55852a30.28676,30.28676,0,0,0,2.68242-3.0842,13.82748,13.82748,0,0,0,1.09-1.66147,5.86859,5.86859,0,0,0,.38363-.84785,2.86368,2.86368,0,0,0,.10748-.39774,1.55775,1.55775,0,0,0,.01708-.16088.26846.26846,0,0,0,.0007-.05292c.007.00105-.01638-.0517.02456.0609l-.04983-.2602c.01369-2.33429.089-4.66844.132-7.00268q.06192-3.50131.19438-7.00254l.00679.07413a10.7324,10.7324,0,0,0-.54023-1.85545,15.66031,15.66031,0,0,0-.81824-1.79407,15.4309,15.4309,0,0,0-2.32955-3.2196.06816.06816,0,0,1,.00234-.09637.0691.0691,0,0,1,.09122-.00255,14.287,14.287,0,0,1,2.67891,3.05537,12.7159,12.7159,0,0,1,.99426,1.79816,11.32171,11.32171,0,0,1,.70724,1.96758l.00573.03953.00117.03494q.1193,3.5017.16538,7.00327c.03345,2.33438.09906,4.66882.103,7.00315l-.04971-.25985a1.14216,1.14216,0,0,1,.07041.31874,1.44256,1.44256,0,0,1,.0083.20917,2.79413,2.79413,0,0,1-.02935.36175,4.21027,4.21027,0,0,1-.15146.61906,7.20073,7.20073,0,0,1-.45883,1.07346,13.0179,13.0179,0,0,1-1.18758,1.86369,30.955,30.955,0,0,1-2.837,3.24136c-.27976.24944-.53578.51388-.8366.748a8.618,8.618,0,0,1-.96794.65008,3.44536,3.44536,0,0,1-2.50757.44672,3.35852,3.35852,0,0,1-1.97646-1.59653,7.07466,7.07466,0,0,1-.846-2.16046l1.02221.3568a6.41954,6.41954,0,0,1-2.45635,1.381,1.93257,1.93257,0,0,1-1.7105-.36973,2.56791,2.56791,0,0,1-.75508-1.41993,1.71012,1.71012,0,0,1,.026-.9068,1.97914,1.97914,0,0,1,.4228-.6951c.22877-.30672.45216-.66309.66876-1.01739.431-.715.83894-1.46205,1.22806-2.20754l.396.59315a8.61329,8.61329,0,0,1-3.566-.51207,2.39354,2.39354,0,0,1-.8111-.56619,1.68758,1.68758,0,0,1-.40818-.943,1.81013,1.81013,0,0,1,.84315-1.73,2.1392,2.1392,0,0,1,.45438-.194l.3959-.1302c.25929-.10465.52-.20784.77121-.33777a12.25493,12.25493,0,0,0,1.4677-.86122,18.29186,18.29186,0,0,0,2.63587-2.18269l-.0607.119a35.57109,35.57109,0,0,0,.378-4.71593,16.14167,16.14167,0,0,0-.11555-2.32629,5.38954,5.38954,0,0,0-.23907-1.073c-.11157-.307-.29859-.60145-.44993-.62423-.11439-.05751-.365.04129-.60666.25883a3.61408,3.61408,0,0,0-.65987.78987,8.83227,8.83227,0,0,0-.92315,2.01652,11.04517,11.04517,0,0,0-.4428,2.19538l-.0945,1.208a5.41942,5.41942,0,0,1-.335,1.30539,2.56626,2.56626,0,0,1-.93145,1.19779,2.45689,2.45689,0,0,1-1.48232.38269,5.702,5.702,0,0,1-1.30056-.23257l-.28678-.08193a1.04025,1.04025,0,0,1-.3455-.17953.81821.81821,0,0,1-.21262-.26181,2.415,2.415,0,0,1-.2448-.74847,25.61972,25.61972,0,0,1-.08526-4.87277q.23947-4.78485.91648-9.51084a.06816.06816,0,0,1,.07708-.05795A.06886.06886,0,0,1,442.18448,247.77Z"/><path d="M449.7266,263.067a7.88484,7.88484,0,0,1,.21123,3.79934,5.77569,5.77569,0,0,1-.66023,1.84693,2.36913,2.36913,0,0,1-1.51144,1.24218,3.63011,3.63011,0,0,0,.86888-1.54,13.18618,13.18618,0,0,0,.4111-1.71562C449.27246,265.52285,449.41772,264.3184,449.7266,263.067Z"/><path d="M448.50744,275.79307q1.36928-2.04858,2.87142-3.986c.49157-.65344,1.00817-1.286,1.513-1.92843a2.91624,2.91624,0,0,0,.58841-.891,9.85222,9.85222,0,0,0,.23041-1.12171,42.20434,42.20434,0,0,0,.59461-9.6727,22.50342,22.50342,0,0,1,.29836,9.83165,9.69813,9.69813,0,0,1-.29228,1.26916,3.49408,3.49408,0,0,1-.762,1.13414c-.54257.61084-1.07332,1.23153-1.6291,1.83135Q450.28045,274.08195,448.50744,275.79307Z"/><path d="M377.18981,427.92532a10.33505,10.33505,0,0,1,.049,3.41317,4.847,4.847,0,0,1-1.63156,3.10826l-.69812.49707a4.34524,4.34524,0,0,0-.58128.50994,9.79841,9.79841,0,0,0-.99858,1.24442,12.75423,12.75423,0,0,0-1.41858,2.90341c-.64747,1.96805-1.04864,4.49445.79824,5.31227,1.84828,1.20022,3.797,2.35225,5.71091,3.50943,3.85188,2.30114,7.72317,4.57555,11.54218,6.9371,3.82814,2.34634,7.6061,4.77882,11.41576,7.15715a.501.501,0,0,1,.16584.68888.5344.5344,0,0,1-.12.13409,2.3962,2.3962,0,0,0-.85,1.212,1.68661,1.68661,0,0,0-.02538.71081,2.09608,2.09608,0,0,0,.11672.35467l.07637.17187c.00281-.00976-.00234-.01742-.01052-.01737l.06093.0455a21.121,21.121,0,0,0,3.24569,1.46717c2.271.88911,4.59011,1.66782,6.90657,2.4471,4.65608,1.49244,9.33215,2.92862,14.0473,4.23106,4.706,1.33244,9.44,2.56593,14.15664,3.845,4.72392,1.22853,9.45368,2.53576,14.18636,3.5313.5876.11766,1.18151.23222,1.74559.30684.134.01351.28409.03778.40245.042a2.17473,2.17473,0,0,0,.24807.00853l-.02316.00614-.01076.00562a.73662.73662,0,0,1-.08292.02859.6835.6835,0,0,0-.3138.25807l.17029-.23339.27941-.35783a3.14614,3.14614,0,0,0,.62292-1.27074,4.11255,4.11255,0,0,0,.00795-1.468,10.99407,10.99407,0,0,0-1.12653-3.148,23.25834,23.25834,0,0,0-1.83249-3.00283,25.51552,25.51552,0,0,0-4.84649-5.11835,28.88636,28.88636,0,0,0-2.9044-2.03114c-.50514-.30906-1.02233-.59631-1.54548-.87683l-1.63354-.88227c-4.29211-2.42377-8.53217-5.18244-11.75551-9.06993a17.47107,17.47107,0,0,1-2.06688-3.165c-.5387-1.17846-.90373-2.31406-1.32-3.47311l-2.42839-6.931a.09084.09084,0,0,1,.169-.06631l2.93177,6.73353c.49543,1.11063.94455,2.286,1.47729,3.30949a16.4711,16.4711,0,0,0,2.08664,2.86593,42.63339,42.63339,0,0,0,11.69142,8.32936l1.62114.81221c.56421.28011,1.1256.56987,1.67413.88268a26.1134,26.1134,0,0,1,3.14745,2.10973,26.87833,26.87833,0,0,1,5.28156,5.43823,25.168,25.168,0,0,1,1.97962,3.26,12.80243,12.80243,0,0,1,1.30759,3.74106,5.982,5.982,0,0,1-.067,2.1774,5.06144,5.06144,0,0,1-.99671,1.98646l-.29134.3604-.103.13486a1.33016,1.33016,0,0,1-.48994.39888.59966.59966,0,0,1-.13567.04836l-.06748.01433-.13637.02362a2.9571,2.9571,0,0,1-.66689-.00251c-.18725-.013-.33918-.041-.509-.06175-.64713-.0976-1.25273-.22684-1.8622-.35936-4.82508-1.11027-9.51964-2.461-14.219-3.864-4.69958-1.38354-9.35379-2.91177-14.01279-4.41672-4.64871-1.539-9.31671-3.01048-13.95735-4.57263q-3.49434-1.131-6.96845-2.33909c-.57894-.20462-1.15624-.41508-1.73179-.64028a11.04622,11.04622,0,0,1-1.7526-.7918l-.12491-.08866a1.40323,1.40323,0,0,1-.16562-.18625l-.12432-.24017a2.92983,2.92983,0,0,1-.1924-.507,2.57005,2.57005,0,0,1-.01894-1.10776,3.3031,3.3031,0,0,1,1.13039-1.80074l.04585.82274c-3.91036-2.21342-7.84457-4.38584-11.71832-6.66154-3.88194-2.2622-7.70481-4.62275-11.51435-7.01049-1.90676-1.20291-3.80521-2.37143-5.70027-3.653a6.0334,6.0334,0,0,1-.73145-.5518l-.38222-.40111a4.1745,4.1745,0,0,1-.2697-.46174,3.70874,3.70874,0,0,1-.33134-.96414,7.70886,7.70886,0,0,1-.08082-.95274,9.9546,9.9546,0,0,1,.75613-3.48668,13.73719,13.73719,0,0,1,1.6746-3.061,9.27333,9.27333,0,0,1,1.17717-1.31957,5.13007,5.13007,0,0,1,.72479-.54789l.70782-.42987a4.26084,4.26084,0,0,0,1.59121-2.62506,11.04335,11.04335,0,0,0,.23637-3.29217l-.00035-.00509a.09071.09071,0,0,1,.17988-.022Z"/><path d="M397.10042,429.97225a5.5866,5.5866,0,0,0,.86654,4.8338c1.05741,1.3729,2.23751,2.72271,3.368,4.08912,1.15823,1.3501,2.27143,2.7395,3.41457,4.10591,1.11367,1.38969,2.2464,2.76827,3.33434,4.17772l-1.41822.51812q.07842-2.53057.27274-5.06116c.12246-1.687.285-3.3741.531-5.06121.246,1.68711.40853,3.37416.531,5.06121q.19455,2.53059.27274,5.06116a.79408.79408,0,0,1-1.37741.56292l-.04093-.0448c-1.21016-1.32366-2.35541-2.695-3.50534-4.067-1.119-1.39647-2.25225-2.78306-3.30428-4.23748a43.712,43.712,0,0,1-3.00814-4.515,4.97317,4.97317,0,0,1-.694-2.78429A5.81444,5.81444,0,0,1,397.10042,429.97225Z"/><path d="M304.52051,442.69377a2.86434,2.86434,0,0,1,.07345,1.15724,10.229,10.229,0,0,1-.16012,1.10425c-.144.72806-.34713,1.43677-.55145,2.14606-.43543,1.40764-.90993,2.80312-1.479,4.158a15.29972,15.29972,0,0,0-1.15179,4.038,8.70577,8.70577,0,0,0,.43414,3.984l-.14187-.25362.00831.00953a.70738.70738,0,0,1,.13321.22854l.0124.03631.10561.30269-.671-.52.00877.00058a.76293.76293,0,0,1,.6518.46988l.01182.02936a7.34857,7.34857,0,0,0,.69,1.29571,6.49922,6.49922,0,0,0,.43835.57625,4.29109,4.29109,0,0,0,.46.46923.8361.8361,0,0,1,.30537.66607l-.00047.01533-.14526,5.15455c-.06023,1.71775-.09543,3.43644-.17906,5.15326l-.84315-.95753c3.06195.30181,6.094.63157,9.1331,1.033l9.11812,1.16776-.52643.41385c.41672-2.3185.7952-4.64251,1.15472-6.9692l.00082-.00573a.33008.33008,0,0,1,.37661-.27579.34336.34336,0,0,1,.0828.02421L324.25966,468.4l.03251.01643.00456.00264a65.29692,65.29692,0,0,0,6.99195,3.41849,64.00028,64.00028,0,0,0,7.35394,2.53365,54.94021,54.94021,0,0,0,7.56984,1.5729,40.4634,40.4634,0,0,0,7.64539.37795.62216.62216,0,0,1,.07813.00052l.03309.00258.00889.00064-.11953-.00275a30.13674,30.13674,0,0,0,3.96053-.51753,10.20274,10.20274,0,0,0,1.87472-.463,4.01538,4.01538,0,0,0,1.41085-.77051c.26246-.3131.27088-.3824.15415-.7866a4.25266,4.25266,0,0,0-.98291-1.29139,20.41378,20.41378,0,0,0-3.11352-2.34482,36.307,36.307,0,0,0-7.23289-3.45849c-1.2436-.43426-2.6223-.81976-3.941-1.30185-1.33425-.48-2.60557-.99911-3.93094-1.60642l.31813.08474a1.22822,1.22822,0,0,1-.46947-.16164l.41754.13772-.01778-.00193-.051-.00544a.7814.7814,0,0,1-.24854-.0707A42.37739,42.37739,0,0,1,336.128,460.459a23.88434,23.88434,0,0,1-5.00227-4.57052,16.29167,16.29167,0,0,1-3.15762-5.98173,12.39159,12.39159,0,0,1-.02491-6.66219.10289.10289,0,0,1,.19953.04877l-.00211.01158a12.49885,12.49885,0,0,0,.62444,6.35283,15.95783,15.95783,0,0,0,3.3396,5.38911,25.859,25.859,0,0,0,4.938,4.03451,40.63319,40.63319,0,0,0,5.72916,2.92657l-.29906-.076.01789.00117.41789.13784a.73293.73293,0,0,0-.36444-.11608l.31848.08485c1.20794.50052,2.52312.96449,3.80159,1.38817,1.28723.44461,2.5816.77706,3.95749,1.22741a33.86433,33.86433,0,0,1,7.7186,3.63632,19.32,19.32,0,0,1,3.45867,2.68751,6.1605,6.1605,0,0,1,1.4222,2.05307,2.89988,2.89988,0,0,1,.13333,1.6046,2.65841,2.65841,0,0,1-.80677,1.39922,5.83626,5.83626,0,0,1-2.19354,1.20437,11.80441,11.80441,0,0,1-2.15272.49081,32.00224,32.00224,0,0,1-4.2666.46111.55117.55117,0,0,1-.09626-.00035l-.02351-.0024-.00889-.00088.11088.003a41.06136,41.06136,0,0,1-7.95475-.69338,52.83418,52.83418,0,0,1-7.65311-2.05062,76.27685,76.27685,0,0,1-7.32095-2.918,73.97274,73.97274,0,0,1-7.01523-3.57182l.03673.01889-2.40313-1.02256.46011-.25713c-.30912,2.33394-.59929,4.67058-.8511,7.01271a.467.467,0,0,1-.49344.41613l-.03333-.00216-9.16736-.59221c-3.0561-.18439-6.11934-.44146-9.152-.73216a.93635.93635,0,0,1-.84327-.9577c.05263-1.71805.1538-3.43411.22983-5.15122l.26373-5.14987.30468.681a5.64312,5.64312,0,0,1-.666-.71449,8.122,8.122,0,0,1-.52642-.74332,8.9432,8.9432,0,0,1-.79075-1.61478l.66326.499-.00877-.00093-.04164-.00433a.74108.74108,0,0,1-.62958-.51584l-.11029-.35357.1455.2645-.008-.00982-.01766-.02181a.70935.70935,0,0,1-.12444-.2321,9.94817,9.94817,0,0,1-.2497-4.66287,16.48537,16.48537,0,0,1,1.48933-4.27637c.62093-1.309,1.2594-2.61353,1.79939-3.95614.26339-.6721.52713-1.34747.73134-2.037a5.6545,5.6545,0,0,0,.35684-2.0536l-.0062-.052a.09773.09773,0,0,1,.18982-.0424Z"/><path d="M327.78826,446.18a17.16254,17.16254,0,0,1-5.68507,2.67991,19.63719,19.63719,0,0,1-6.31944.70046l-.79941-.03989-.7932-.11116c-.526-.08848-1.06244-.11778-1.57846-.25632a18.55388,18.55388,0,0,1-3.04359-.95186,18.00643,18.00643,0,0,1-2.8375-1.40676,24.14,24.14,0,0,1-2.53482-1.85565c.98279.38579,1.87553.89648,2.83914,1.25209a27.0232,27.0232,0,0,0,2.88312.99472,23.9865,23.9865,0,0,0,5.93092,1.00063,25.90814,25.90814,0,0,0,6.01746-.37A31.88719,31.88719,0,0,0,327.78826,446.18Z"/><path d="M281.17112,441.992a17.16385,17.16385,0,0,1-5.68507,2.67991,19.63726,19.63726,0,0,1-6.31956.70045l-.79929-.03988-.79321-.11117c-.52595-.08847-1.06244-.11777-1.57845-.25631a18.55966,18.55966,0,0,1-3.04359-.95186,17.99814,17.99814,0,0,1-2.8375-1.40682,24.13127,24.13127,0,0,1-2.53482-1.85559c.98279.38579,1.87553.89648,2.83914,1.25209a27.03653,27.03653,0,0,0,2.88312.99472,23.98975,23.98975,0,0,0,5.93091,1.00063,25.9085,25.9085,0,0,0,6.01746-.37A31.88729,31.88729,0,0,0,281.17112,441.992Z"/><path d="M302.9767,460.59806c-.63413-.24673-1.26949-.48449-1.90362-.73127a6.95366,6.95366,0,0,0,1.78561,2.707l-.3996,10.30548,3.812.36969c.91362-.02945,1.83967-.09423,2.74956-.18779.423-.045.83714-.09085,1.25287-.15471l1.24144-.23767a12.87663,12.87663,0,0,0,2.41961-.58107,3.77311,3.77311,0,0,0,1.02022-.5212,2.33758,2.33758,0,0,0,.64775-.8453,2.2759,2.2759,0,0,0-.10169-2.06786,13.55273,13.55273,0,0,0-3.548-3.38953,36.33846,36.33846,0,0,0-4.315-2.64573A33.34173,33.34173,0,0,0,302.9767,460.59806Z" fill="#020202" stroke="#000" stroke-miterlimit="10" stroke-width="0"/><path d="M300.53483,455.81116a9.11163,9.11163,0,0,0,.41307,3.71672l.008.00982a44.31839,44.31839,0,0,1,6.99219,2.45156,28.34684,28.34684,0,0,1,4.48224,2.60575c.07728.0523.15421.11368.23149.166-2.58873-5.61058-11.28547-12.42936-11.28547-12.42936-.03641.10613-.0821.21146-.119.31756-.13253.371-.24538.72561-.33978,1.07268l-.25481,1.14384c-.0191.11677-.03786.22445-.05617.33217Z" fill="#020202" stroke="#000" stroke-miterlimit="10" stroke-width="0"/><path d="M255.67767,251.22808v.10544c-.17252-.19164-.32585-.38327-.47906-.5845C255.35182,250.91194,255.51474,251.07481,255.67767,251.22808Z" fill="#fff"/><path d="M297.80129,113.39705c3.91238,0,3.91886-6.08029,0-6.08029-3.91237,0-3.91885,6.08029,0,6.08029Z" fill="#b21919"/><path d="M313.48437,94.56492a1.36219,1.36219,0,0,0,0-2.72275,1.36219,1.36219,0,0,0,0,2.72275Z" fill="#b21919"/></svg>