<svg id="Layer_1" data-name="Layer 1" xmlns="http://www.w3.org/2000/svg" viewBox="0 0 700 550"><title>with tea about to serve</title><path d="M366.527,89.28413a38.37771,38.37771,0,0,0-.35156,10.76636.331.331,0,0,1-.07959.25708l-.01221.01379c-.66064.74915-1.29565,1.5365-1.90747,2.32813a21.53521,21.53521,0,0,0-1.69092,2.45031,6.15448,6.15448,0,0,0-.58325,1.28284,1.02249,1.02249,0,0,0,.15381,1.02826,2.54812,2.54812,0,0,0,2.36255.48865.48638.48638,0,0,1,.56958.38531l.00732.05579.001.01318a17.03922,17.03922,0,0,0,.75781,3.979,13.6676,13.6676,0,0,0,1.77417,3.63788,10.51113,10.51113,0,0,0,2.87158,2.80493,11.534,11.534,0,0,0,3.73121,1.58722l-.03833-.005a9.30567,9.30567,0,0,1,1.99145.43616,6.42708,6.42708,0,0,1,1.80762.93036,3.42361,3.42361,0,0,1,1.40991,3.56079,3.89957,3.89957,0,0,0-.321-1.90442,3.58277,3.58277,0,0,0-1.27662-1.38794,6.04035,6.04035,0,0,0-1.75927-.74756,9.29611,9.29611,0,0,0-1.886-.3233l-.0061-.00037-.03247-.00464a12.19649,12.19649,0,0,1-4.02344-1.506,10.3005,10.3005,0,0,1-3.16651-2.94244,14.55569,14.55569,0,0,1-1.9497-3.84906,15.952,15.952,0,0,1-.83838-4.24133l.57764.45416a4.85474,4.85474,0,0,1-1.69141.01953,2.52235,2.52235,0,0,1-1.58765-.87866,1.85266,1.85266,0,0,1-.3872-.89331,1.24114,1.24114,0,0,1,.00146-.50342,2.18552,2.18552,0,0,1,.09473-.44067,6.94549,6.94549,0,0,1,.6875-1.47071,28.185,28.185,0,0,1,3.8396-4.81738l-.0918.27051a32.84868,32.84868,0,0,1,.05395-5.47547A29.89674,29.89674,0,0,1,366.527,89.28413Z" fill="#020202"/><path d="M379.34243,115.99464c.29907-.5177.56494-.99994.8208-1.48419.24536-.48779.49634-.96112.70093-1.45776.21631-.49018.42261-.98719.6106-1.502.20092-.51318.36718-1.04205.614-1.59491a5.34877,5.34877,0,0,1-.34033,3.48883,5.73812,5.73812,0,0,1-.97046,1.49939A3.82513,3.82513,0,0,1,379.34243,115.99464Z" fill="#020202"/><path d="M368.61746,101.88453a1.45253,1.45253,0,0,0,0-2.90332,1.45253,1.45253,0,0,0,0,2.90332Z" fill="#020202"/><path d="M364.02471,106.766a.72626.72626,0,0,0,0-1.45166.72626.72626,0,0,0,0,1.45166Z" fill="#020202"/><path d="M365.68838,97.64827a3.36337,3.36337,0,0,1,1.19165-.74012,4.562,4.562,0,0,1,1.36743-.2987,3.892,3.892,0,0,1,1.4187.1914,2.32311,2.32311,0,0,1,1.15772.84742c-.48584-.05957-.89234-.09119-1.30225-.1062-.41089.00231-.81323.00732-1.22339.03332A24.79555,24.79555,0,0,1,365.68838,97.64827Z" fill="#020202"/><path d="M392.43008,110.5915c.7915,1.6269,1.45923,3.23621,2.29736,4.73572a11.72526,11.72526,0,0,0,1.408,2.1048,5.12912,5.12912,0,0,0,2.0376,1.51428,3.62626,3.62626,0,0,1-2.56543-.97436,7.549,7.549,0,0,1-1.72632-2.176,12.2846,12.2846,0,0,1-1.02759-2.52759A10.39031,10.39031,0,0,1,392.43008,110.5915Z" fill="#020202"/><path d="M349.88589,166.88954c.43921-1.70221.96484-3.377,1.51587-5.04608q.813-2.50892,1.82446-4.95362c.66211-1.63391,1.39258-3.24524,2.217-4.8244a19.12267,19.12267,0,0,1,3.05615-4.49713l-.22094.4895a30.16957,30.16957,0,0,1,1.77929-7.89111,23.66086,23.66086,0,0,1,3.99805-7.05017,19.5121,19.5121,0,0,1,6.356-5.04639,22.43809,22.43809,0,0,1,7.73315-2.16333l-.196.077a80.33885,80.33885,0,0,1,9.1831-5.26673,30.53681,30.53681,0,0,1,4.94629-1.94714,10.40492,10.40492,0,0,1,5.41089-.34064l-.11182-.01947a14.11467,14.11467,0,0,1,6.57325,2.42316,19.22146,19.22146,0,0,1,5.00854,4.897,33.28375,33.28375,0,0,1,5.093,12.87812c.18725,1.13946.46533,2.27233.57568,3.41986l.38819,3.39026c.25024,2.26062.43261,4.52832.60522,6.799.17578,2.27087.272,4.549.32788,6.83575a45.81637,45.81637,0,0,1-.27051,6.93573l-1.05078-1.00793,7.16406-1.09028-.64331.80536c-.08642-1.64019-.28881-3.33105-.54443-4.98468a34.22375,34.22375,0,0,0-1.13257-4.90057,20.46875,20.46875,0,0,0-1.9812-4.59241,10.33141,10.33141,0,0,0-3.428-3.58825.09666.09666,0,0,1-.0376-.13172.10016.10016,0,0,1,.125-.04089,10.192,10.192,0,0,1,3.87842,3.40539,18.75629,18.75629,0,0,1,2.39649,4.61841,35.35037,35.35037,0,0,1,1.46606,4.98279,37.93181,37.93181,0,0,1,.80518,5.1485.7496.7496,0,0,1-.60376.79815l-.03955.00745-7.11988,1.34845a.89341.89341,0,0,1-1.05639-.93982l.00537-.0683A94.34271,94.34271,0,0,0,413.557,152.367c-.15454-2.25067-.36572-4.49952-.55957-6.75019l-.31714-3.37286c-.08349-1.11334-.3313-2.19391-.48779-3.294a27.82692,27.82692,0,0,0-.69214-3.25128c-.1416-.535-.24609-1.08356-.41724-1.60815l-.53759-1.566a27.00415,27.00415,0,0,0-2.84058-5.933,19.12851,19.12851,0,0,0-4.43726-4.777,12.93787,12.93787,0,0,0-5.92431-2.54462l-.061-.00787-.05127-.0116a8.92284,8.92284,0,0,0-4.9729.17944,29.92637,29.92637,0,0,0-4.87182,1.82373,51.15713,51.15713,0,0,0-4.60254,2.49506c-1.48.92407-2.95435,1.87988-4.33594,2.92822a.38.38,0,0,1-.16821.07276l-.02783.00445a21.49748,21.49748,0,0,0-7.22486,2.46839,19.66793,19.66793,0,0,0-5.66846,4.95007,26.03118,26.03118,0,0,0-3.71923,6.597,28.71217,28.71217,0,0,0-1.84473,7.383l-.00366.03564a.74988.74988,0,0,1-.21729.45423,21.36148,21.36148,0,0,0-2.96069,4.07757c-.87769,1.48047-1.68066,3.0221-2.41992,4.59693q-2.21557,4.72521-4.12256,9.631a.09695.09695,0,0,1-.18457-.05847Z" fill="#020202"/><path d="M366.97158,159.59181c.45313,3.15308.86939,6.31024,1.28931,9.46692q.6405,4.734,1.22656,9.47387a.52193.52193,0,0,1-.8186.48987l-.0166-.01178a115.90277,115.90277,0,0,0-12.86768-8.08062c-.55591-.29078-1.11938-.56263-1.68359-.82294l-1.75025-.7591a28.54016,28.54016,0,0,1-3.469-1.84783,74.689,74.689,0,0,1-6.21021-4.593,30.28313,30.28313,0,0,0-3.07934-2.10578c-1.09448-.65808-2.17627-1.31445-3.27124-1.91015a18.74581,18.74581,0,0,0-3.31958-1.51123,5.84988,5.84988,0,0,0-3.2937-.23011l-.928.26191a9.30039,9.30039,0,0,1-1.02808.19671c-.67065.08808-1.33008.14185-1.98364.16736-1.30737.05316-2.60108.04541-3.88892-.00049-2.5769-.1159-5.12549-.33569-7.68359-.63l.229-.01453-.90063.24219c-.30029.08087-.5603.214-.84473.31579a2.28934,2.28934,0,0,0-1.13672.94251c-.32641.713.58277,1.91,1.48609,2.60718l-.23658-.09894c1.62574.28729,3.27417.535,4.91626.71814.82129.08789,1.64527.16748,2.46094.19391a6.677,6.677,0,0,0,2.26392-.18884l.09228-.03528a.387.387,0,0,1,.46192.57336,3.642,3.642,0,0,1-1.04248,1.034,6.21667,6.21667,0,0,1-1.19165.66986,11.98418,11.98418,0,0,1-2.55469.78046,23.51825,23.51825,0,0,1-5.24072.27771c-.86988-.05268-1.74048-.0962-2.60157-.21821-.86523-.09069-1.72558-.20813-2.57861-.36834-1.71069-.22431-3.41992-.72907-5.07129-.91779a7.62359,7.62359,0,0,0-2.46191.13092,1.44625,1.44625,0,0,0-.86841.535,1.14825,1.14825,0,0,0,.03369.96563,7.0479,7.0479,0,0,0,3.41724,3.385,8.0439,8.0439,0,0,0,2.3645.714c.80713.10718,1.70556.12671,2.55371.1944l5.15869.33777a.48312.48312,0,0,1,.36865.75256l-.01269.01843a3.23718,3.23718,0,0,0-.68482,2.703,1.64621,1.64621,0,0,0,.946.818c.22632.085.47705.14508.71924.21088l.78125.11.042.00592a.45082.45082,0,0,1,.10742.0296,3.64318,3.64318,0,0,1,1.2854.84754,2.03321,2.03321,0,0,1,.5957,1.6369,2.23538,2.23538,0,0,1-.25244.82324c-.02563.05561-.071.13636-.082.1706a.28807.28807,0,0,1-.01343.06237.13842.13842,0,0,0-.02246.11982.99287.99287,0,0,0,.35694.66668,4.47853,4.47853,0,0,0,1.91528,1.08069,6.4464,6.4464,0,0,0,2.28906.26074,5.98916,5.98916,0,0,0,2.20313-.55017c.73-.342,1.46777-.76965,2.19018-1.1958,1.44873-.86413,2.86939-1.80188,4.27539-2.76l2.09644-1.45984a4.357,4.357,0,0,1,5.7749.34613l1.88257,1.7389q3.77783,3.46518,7.64868,6.826c5.16284,4.47442,10.44849,8.80743,15.90527,12.87481a96.02352,96.02352,0,0,0,8.44556,5.65357,37.83229,37.83229,0,0,0,4.46192,2.2655,12.23824,12.23824,0,0,0,4.551,1.11945h.00562c.05053-.00037.10254.00213.1521.00671a17.42879,17.42879,0,0,0,6.77636-.65155,9.754,9.754,0,0,0,5.32862-3.81531,12.04213,12.04213,0,0,0,1.78418-6.481c.0144-1.14917-.06617-2.35553-.1333-3.57464l-.16236-3.63526q-.30066-7.27029-.47363-14.53985-.13-7.27194-.176-14.543a.09687.09687,0,0,1,.19361-.00525q.37793,7.25922.84985,14.51239c.28223,4.83612.584,9.67065.93945,14.49908l.27759,3.61976c.08887,1.198.19727,2.41.20752,3.68353a13.61564,13.61564,0,0,1-1.91162,7.37372,11.49771,11.49771,0,0,1-6.15723,4.62268,18.85591,18.85591,0,0,1-7.58252.85864l.15723.00665a13.92134,13.92134,0,0,1-5.37524-1.24493,39.74824,39.74824,0,0,1-4.70581-2.36176,97.93987,97.93987,0,0,1-8.6521-5.73687c-5.57569-4.06421-10.82251-8.51819-15.96705-13.07q-3.85437-3.42-7.61108-6.94385L336.569,175.9084a2.64938,2.64938,0,0,0-1.73144-.82086,2.72946,2.72946,0,0,0-1.86279.57647l-2.14869,1.43579c-1.44311.9433-2.90087,1.86664-4.41162,2.729-.761.42859-1.51489.84924-2.34253,1.21948a7.46329,7.46329,0,0,1-2.76147.63641,7.81894,7.81894,0,0,1-2.77857-.39947,5.74678,5.74678,0,0,1-2.45483-1.51447,2.19922,2.19922,0,0,1-.65552-1.61016,1.13134,1.13134,0,0,1,.11255-.498l.102-.23724.0586-.118a1.03014,1.03014,0,0,0,.14038-.389c.12768-.43457-.44678-.99854-1.07715-1.2757l.14892.0354-.90722-.15515a8.46727,8.46727,0,0,1-.90918-.29761,2.719,2.719,0,0,1-1.49024-1.43585,2.98281,2.98281,0,0,1,.02442-2.01886,6.04727,6.04727,0,0,1,.863-1.65716l.356.77081-5.16845-.46991c-.87037-.09229-1.70191-.12525-2.60376-.2663a9.39934,9.39934,0,0,1-2.55909-.82947,7.68709,7.68709,0,0,1-3.73144-3.80267,1.77843,1.77843,0,0,1,.031-1.52637,2.04712,2.04712,0,0,1,1.26221-.8211,8.1852,8.1852,0,0,1,2.68579-.12738c1.77808.21338,3.39112.751,5.11157.95025.84644.14826,1.69776.25348,2.55127.3321.85132.1101,1.7063.14148,2.56055.18286a22.86456,22.86456,0,0,0,5.07691-.32947,11.26235,11.26235,0,0,0,2.37792-.75726,4.40878,4.40878,0,0,0,1.83252-1.38941l.5542.538a3.84865,3.84865,0,0,1-1.38134.32293,12.51029,12.51029,0,0,1-1.29151.046c-.853-.00109-1.69385-.05609-2.53393-.11926-1.68018-.13434-3.34131-.33063-5.0105-.57172a.53316.53316,0,0,1-.23706-.09906,6.66452,6.66452,0,0,1-1.533-1.54736,3.22387,3.22387,0,0,1-.509-1.08,2.29717,2.29717,0,0,1,.05419-1.33911,3.42057,3.42057,0,0,1,1.72583-1.66479,11.99914,11.99914,0,0,1,2.00147-.71283.5197.5197,0,0,1,.1853-.01843l.04419.00384c2.51831.21387,5.06275.35169,7.58545.39337,1.26172.033,2.52124.02729,3.762-.03509.62085-.02985,1.23316-.08728,1.82618-.17047a7.76631,7.76631,0,0,0,.8479-.16962l.91064-.26678a7.505,7.505,0,0,1,4.23682.21234,20.35448,20.35448,0,0,1,3.65234,1.61316c1.13867.63751,2.23023,1.31872,3.31421,1.988a32.0467,32.0467,0,0,1,3.20728,2.24933,73.67919,73.67919,0,0,0,6.03271,4.58008,27.0256,27.0256,0,0,0,3.2583,1.78619l1.75122.78455c.59009.2807,1.17285.57092,1.74317.87781a75.1368,75.1368,0,0,1,6.56616,4.05627c2.12256,1.44122,4.20019,2.92889,6.2456,4.482l-.8352.478q-.46729-4.753-.86377-9.51373c-.2771-3.17249-.55762-6.34454-.80127-9.52069a.09682.09682,0,0,1,.19238-.02118Z" fill="#020202"/><path d="M368.96586,178.59011s10.3013,7.54862,10.37661,10.3358" fill="none" stroke="#020202" stroke-linecap="round" stroke-linejoin="round" stroke-width="0.96777"/><path d="M405.12808,206.14589c3.19873-2.50287,6.50439-4.84522,9.8374-7.12934a10.53,10.53,0,0,0,3.55835-4.23913,10.15358,10.15358,0,0,0,.8164-2.63971,28.90951,28.90951,0,0,0,.21729-2.90851,107.01341,107.01341,0,0,0,.0061-11.99133,51.73111,51.73111,0,0,0-1.98706-11.84168,34.04259,34.04259,0,0,1,3.49,11.69367,68.15908,68.15908,0,0,1,.42285,12.23913,30.0021,30.0021,0,0,1-.28759,3.13062,11.06874,11.06874,0,0,1-1.03272,3.1131,11.49618,11.49618,0,0,1-4.394,4.712C412.28164,202.33357,408.75747,204.31831,405.12808,206.14589Z" fill="#020202"/><path d="M389.29992,389.21642q-2.52586-14.13912-3.91952-28.46214a239.24878,239.24878,0,0,1-1.09347-28.73314,113.65152,113.65152,0,0,1,3.90015-28.317c-1.04527-.1742-.66771-.67746-4.86792-2.96138-6.37747-3.455-32.13,2.71943-32.13,2.71943l.02906.96777s-7.25829,120.49726-9.523,123.28444c0,0,43.62722,3.92915,53.79851-4.43241v-6.03888C392.99687,408.01059,390.97438,398.64257,389.29992,389.21642ZM345.973,425.595a1.45257,1.45257,0,0,1,0-2.90331A1.45257,1.45257,0,0,1,345.973,425.595Zm7.31618.52258a1.45258,1.45258,0,0,1,0-2.90332A1.45258,1.45258,0,0,1,353.28918,426.11756Zm7.14227,0a1.45258,1.45258,0,0,1,0-2.90332A1.45258,1.45258,0,0,1,360.43145,426.11756Zm7.83881-.17419a1.45258,1.45258,0,0,1,0-2.90332A1.45258,1.45258,0,0,1,368.27026,425.94337Zm8.70995-.69677a1.45258,1.45258,0,0,1,0-2.90332A1.45258,1.45258,0,0,1,376.98021,425.2466Zm8.36167-.69683a1.45258,1.45258,0,0,1,0-2.90331A1.45258,1.45258,0,0,1,385.34188,424.54977Zm7.142-5.05174a1.45258,1.45258,0,0,1,0-2.90331A1.45258,1.45258,0,0,1,392.48393,419.498Z" fill="#020202"/><path d="M418.15893,299.233s-20.10063,5.06142-26.37177,4.70335c-2.11936-.11613-3.04839-.12581-3.5904-.23225A109.90011,109.90011,0,0,0,386.3,317.77557c-.37756,4.74205-.52264,9.50347-.50326,14.265.03875,4.76142.13538,9.52284.43545,14.28432.26132,4.75173.59989,9.50346,1.07433,14.25525.8709,9.48415,2.1,18.949,3.47415,28.39439.70645,4.72273,1.442,9.43577,2.23561,14.14887.7452,4.71305,1.60641,9.4164,2.47755,14.11976,0,0,33.65912,3.28076,35.39124-4.61629C430.885,412.62682,412.41043,324.78223,418.15893,299.233Zm-19.578,116.4326a1.45258,1.45258,0,0,1,0-2.90332A1.45258,1.45258,0,0,1,398.58093,415.66564Zm7.31641.34838a1.45258,1.45258,0,0,1,0-2.90332A1.45258,1.45258,0,0,1,405.89734,416.014Zm7.83881.17425a1.45258,1.45258,0,0,1,0-2.90331A1.45258,1.45258,0,0,1,413.73615,416.18827Zm7.31641-.871a1.45258,1.45258,0,0,1,0-2.90331A1.45258,1.45258,0,0,1,421.05256,415.31725Zm6.61965-2.78718a1.45258,1.45258,0,0,1,0-2.90332A1.45258,1.45258,0,0,1,427.67221,412.53007Z" fill="#020202"/><path d="M350.84683,193.40278l-3.35279.14539c-1.08935.04541-2.15234.10541-3.20044.12042l-.0437-.00287-.0415-.00653-5.71778-.88794a4.3215,4.3215,0,0,0-4.1604,2.07575,4.15833,4.15833,0,0,0-.4624,1.11438l-.06323.29663-.00806.037-.00415.01843-.00195.00928-.00122.00463c.75293.89685-1.02734-1.21624-.84131-.999l.09106-.001.18213-.00189.728-.00751,2.9126.00641c1.94165.01685,3.8833.07556,5.825.16321l.08569.00391a.65137.65137,0,0,1,.62134.68.70543.70543,0,0,1-.021.13739,6.854,6.854,0,0,1-5.71216,4.94452,12.67387,12.67387,0,0,1-3.7649-.02307c-.62158-.06915-1.20629-.16315-1.81152-.24372q-.90491-.0965-1.814-.15637a50.87546,50.87546,0,0,0-7.28711.09418c-2.42041.18665-4.84961.48883-7.21827.89349l.56226-.42779a1.88534,1.88534,0,0,0-.00391.26782,1.29662,1.29662,0,0,0,.1128.33826,1.91208,1.91208,0,0,0,.61206.63208,6.0572,6.0572,0,0,0,2.02929.83758,23.45738,23.45738,0,0,0,4.77784.602c.81714.03467,1.64184.01758,2.46411.0293.85132.00806,1.70239-.00745,2.55517.02075a47.64919,47.64919,0,0,1,5.10669.4281c1.69287.21369,3.36719.60736,4.96607.87372a10.20831,10.20831,0,0,0,4.574-.05542,24.27934,24.27934,0,0,0,4.43286-1.94666c.74854-.38,1.501-.75354,2.26416-1.10894l1.14576-.53607.58032-.26349.29712-.13019.15869-.0658.08935-.035.06324-.0224.06982-.02069.05249-.01123c-.22974.16833.74756-.483.57568.88562a.50086.50086,0,0,1-.99047.02276l-.03785-.22131c-.23461-1.369-.48413-2.73883-.69213-4.16095Zm.123-.14935,1.1875,4.11243c.41577,1.39776.79,2.84784,1.179,4.2987l-1.02808-.19854c-.17236,1.36389.7937.71319.55933.8833l.03345-.006c.02783-.007.04223-.01269.03247-.00848l-.01.0058-.05469.02747-.127.06585-.26758.14551-.54126.30353-1.08447.62457-2.17481,1.252a25.57528,25.57528,0,0,1-4.64966,2.31678,9.92864,9.92864,0,0,1-2.709.49127,15.35482,15.35482,0,0,1-2.66919-.18482l-4.95093-.78735c-1.627-.22845-3.26245-.35895-4.90552-.46265-.82129-.05133-1.647-.05975-2.47119-.0921-.85278-.03619-1.70556-.04394-2.56152-.105a23.73859,23.73859,0,0,1-5.15308-.82587,7.56987,7.56987,0,0,1-2.519-1.22564,3.40351,3.40351,0,0,1-1.02271-1.24085,2.31105,2.31105,0,0,1-.06713-1.83752.66043.66043,0,0,1,.55395-.42731l.00855-.00067c2.47656-.2428,4.92456-.32843,7.38647-.36731,2.45947-.01288,4.91553.05615,7.36816.22376,2.46021.12335,4.9021.80041,7.19361.24469a6.08647,6.08647,0,0,0,2.96289-1.59974,5.53744,5.53744,0,0,0,1.53222-2.81836l.6858.82105c-1.94165.08673-3.88331.14508-5.825.16217l-2.91235.00641-.728-.00751-.18213-.00189-.09106-.001c.18066.21857-1.6001-1.89715-.84521-1.00494l.00146-.00647.00293-.01294.00586-.02588.012-.05182.09741-.41363a5.85583,5.85583,0,0,1,.68213-1.55133,5.7814,5.7814,0,0,1,5.78174-2.64063c1.98218.42175,3.81177.86371,5.71826,1.32947l-.085-.0094c1.15259.07086,2.29.18671,3.40137.288Z" fill="#020202"/><path d="M341.65542,196.18422c-4.94507.32354-9.89014.53857-14.83521.68664-4.94531.13739-9.89038.23078-14.83544.25421-2.47242.00782-4.94507.0401-7.41748.0152l-.92725-.00488-.46362-.00244a2.13509,2.13509,0,0,0-.30152.024,1.71483,1.71483,0,0,0-1.0271.57087,1.79624,1.79624,0,0,0-.0747,2.26941,1.90032,1.90032,0,0,0,1.05566.67157,2.06471,2.06471,0,0,0,.32178.04962l.45678.01916.92725.036q1.85449.06244,3.70874.17169c1.23633.056,2.47266.15332,3.709.24652,1.23609.08948,2.47242.179,3.70875.31513-1.23633.13623-2.47266.22571-3.70875.31518-1.23632.09321-2.47265.1905-3.709.24653q-1.85412.10912-3.70874.17169l-.92725.036-.47045.01678a3.65893,3.65893,0,0,1-.59961-.04022,3.47775,3.47775,0,0,1-2.07862-1.1676,3.55242,3.55242,0,0,1-.03052-4.56165,3.59467,3.59467,0,0,1,2.12745-1.22986,4.02078,4.02078,0,0,1,.62085-.05829l.46362-.00244.92725-.00482c2.47241-.025,4.94506.00733,7.41748.0152,4.94506.02338,9.89013.11676,14.83544.25421C331.76528,195.64558,336.71035,195.86067,341.65542,196.18422Z" fill="#020202"/><path d="M305.55861,187.52316a8.657,8.657,0,0,0,8.65206,8.66157h3.9389a8.65713,8.65713,0,0,0,8.66151-8.66157Zm5.69062,6.59053a6.11416,6.11416,0,0,1-1.70328-1.3936,9.27275,9.27275,0,0,1-1.22909-1.78066,7.31474,7.31474,0,0,1-.75489-2.013c.98714,1.05483,1.80016,2.14842,2.7098,3.15494a12.09472,12.09472,0,0,0,1.40323,1.41291,5.60441,5.60441,0,0,0,1.72266,1.0549A3.18888,3.18888,0,0,1,311.24923,194.11369Zm8.90345-3.73559a19.90025,19.90025,0,0,1-4.57754-.48388,19.90026,19.90026,0,0,1,4.57754-.48389,18.85645,18.85645,0,0,1,4.56786.48389A19.35416,19.35416,0,0,1,320.15268,190.3781Z" fill="#020202"/><line x1="305.55746" y1="180.3321" x2="309.56403" y2="187.52696" fill="none" stroke="#020202" stroke-linecap="round" stroke-linejoin="round" stroke-width="0.96777"/><path d="M311.46084,158.60267c-12.70288.76105-25.40552.936-38.1084.96723l-2.33057-.00794c-.175-.04577-.7749.42267-1.116.95612a1.666,1.666,0,0,0-.21509,1.45367,1.44232,1.44232,0,0,0,.97876.98633,1.74583,1.74583,0,0,0,.3623.05951l.593.00861,1.19092.01709,2.38159.03424,4.76367.09271q9.527.18969,19.0542.75519-9.527.56424-19.0542.75519l-4.76367.09271-2.38159.03424-1.19092.01709-.59814.00848a3.5565,3.5565,0,0,1-.81421-.10022,3.25084,3.25084,0,0,1-2.2981-2.18176,3.5521,3.5521,0,0,1,.42749-3.09662,5.42551,5.42551,0,0,1,.95044-1.08478,2.77115,2.77115,0,0,1,1.6272-.71905l2.43286-.0152C286.05532,157.66676,298.758,157.84163,311.46084,158.60267Z" fill="#020202"/><path d="M275.13193,144.72833a13.8775,13.8775,0,0,0,13.87793,13.87781h6.30989a13.87789,13.87789,0,0,0,13.87793-13.87781ZM285.40978,155.49a11.74515,11.74515,0,0,1-3.15495-2.25493,15.70777,15.70777,0,0,1-2.35162-3.02913,14.90918,14.90918,0,0,1-1.55821-3.47432c.69676,1.05489,1.43228,2.06136,2.17748,3.0485a26.50812,26.50812,0,0,0,2.41943,2.76781,15.56634,15.56634,0,0,0,2.82582,2.2743,11.8582,11.8582,0,0,0,3.41626,1.33553A7.63268,7.63268,0,0,1,285.40978,155.49Zm14.05206-8.2745a33.20257,33.20257,0,0,1-6.097-.48388,38.65157,38.65157,0,0,1,12.19378,0A33.20157,33.20157,0,0,1,299.46184,147.21545Z" fill="#020202"/><line x1="275.13072" y1="133.19312" x2="281.55292" y2="144.72588" fill="none" stroke="#020202" stroke-linecap="round" stroke-linejoin="round" stroke-width="0.96777"/><path d="M401.58021,77.13789a11.84406,11.84406,0,0,0-7.9762,3.01053c-2.79587-1.47647-6.52968-2.108-11.51515-1.20009-18.17477,3.30976-16.40037,9.29058-16.40037,9.29058s9.86242,14.28432,13.654,9.87129c0,0,4.60448-7.0841,5.30125,1.742,0,0,.69682,5.92276-3.13557,6.38733,0,0,6.85184,7.66474,11.96164,3.71621,4.76561-3.68248,7.35752-7.89149,7.968-11.98816.0479.00053.09433.00661.14241.00661,6.268,0,11.34923-4.66431,11.34923-10.41813S407.84822,77.13789,401.58021,77.13789Z" fill="#020202"/><path d="M416.43618,418.03041a135.00823,135.00823,0,0,1,3.11572,17.12707c.34913,2.88849.54786,5.796.6648,8.71234.05688,1.45856.05469,2.92023.02661,4.38355-.01074.73157-.04224,1.46387-.07251,2.19623a20.17911,20.17911,0,0,1-.19751,2.28027,9.39946,9.39946,0,0,1-5.93506,7.06708,9.237,9.237,0,0,1-2.33227.53418c-.82569.07446-1.52466.04046-2.24951.05285l-4.34156-.0072q-8.68285-.0185-17.37329-.41284,8.66822-.73525,17.34375-1.09723l4.33789-.17828c.72046-.03278,1.47193-.03083,2.08594-.11054a7.44248,7.44248,0,0,0,1.87207-.49182,7.57259,7.57259,0,0,0,4.68848-5.70044,18.73216,18.73216,0,0,0,.19214-2.03961c.03662-.713.075-1.42578.09277-2.14093.0498-1.42926.04321-2.86212.03491-4.29639-.011-2.86969-.16724-5.74176-.33618-8.61694C417.66689,429.54414,417.07925,423.794,416.43618,418.03041Z" fill="#020202"/><path d="M396.22915,417.10139c.36792,2.25232.56372,4.5047.71338,6.75708q.11646,1.68933.165,3.3786c.01245.5705.0603,1.1095.04346,1.706a15.55686,15.55686,0,0,1-.12183,1.8042,13.06923,13.06923,0,0,1-2.884,6.5335,12.35489,12.35489,0,0,1-5.83106,3.88282l.03491-.01728a9.90544,9.90544,0,0,1-2.45971.80127,16.50276,16.50276,0,0,0,2.11572-1.41223l.0354-.01739A15.06927,15.06927,0,0,0,392.8,436.24067a14.10586,14.10586,0,0,0,2.34619-5.76977,13.69241,13.69241,0,0,0,.14307-1.56159l.06128-1.67224q.04833-1.68933.165-3.3786C395.66519,421.60609,395.861,419.35371,396.22915,417.10139Z" fill="#020202"/><path d="M419.05877,458.58976a1.99237,1.99237,0,0,1-.56138,1.39354,2.0125,2.0125,0,0,1-1.38385.60982l-30.45292.86121c.01926-.4742.123-1.16128.14232-1.68392.01926-.813,0-1.48072,0-2.40975l30.19447-.77425h.08707A2.00756,2.00756,0,0,1,419.05877,458.58976Z" fill="#020202"/><path d="M365.64126,162.23182a3.11331,3.11331,0,0,1-1.15064-.52862.84482.84482,0,0,1-.34106-.66565,1.07487,1.07487,0,0,1,.35571-.68878,6.76367,6.76367,0,0,1,2.30811-1.18824,33.23594,33.23594,0,0,1,4.86352-1.15386,92.86126,92.86126,0,0,1,9.83789-1.06653c3.28516-.17353,6.57642-.28815,9.88746-.14185a24.7373,24.7373,0,0,1,5.00463.60529,3.89063,3.89063,0,0,1,.66211.26159,1.25079,1.25079,0,0,1,.374.29883.60141.60141,0,0,1,.14477.31055.545.545,0,0,1-.04175.3551,1.2694,1.2694,0,0,1-.60668.56867,3.92329,3.92329,0,0,1-.60206.26245,13.61984,13.61984,0,0,1-2.42553.59216,20.90266,20.90266,0,0,0,2.196-1.07721,4.76109,4.76109,0,0,0,.47827-.32294c.145-.09723.27686-.26733.25464-.278.00928-.006-.01562.019-.01147.059.0249.03821-.00635.03656.00366.04791a1.14182,1.14182,0,0,1-.12573-.04712,3.25709,3.25709,0,0,0-.50977-.104,15.557,15.557,0,0,0-2.36841-.09155c-.80542.01214-1.61694.03064-2.42846.06964-3.24781.16119-6.5105.35632-9.772.56256-3.261.17908-6.51977.371-9.75976.62781-1.61548.14868-3.24024.27972-4.81372.57531a6.7672,6.7672,0,0,0-2.20508.68158c-.30225.19037-.41284.42627-.15063.74512A2.98134,2.98134,0,0,0,365.64126,162.23182Z" fill="#020202"/><path d="M364.351,158.60267a25.12255,25.12255,0,0,1-1.07007-6.18658,30.68184,30.68184,0,0,1,.251-6.30518,24.22629,24.22629,0,0,1,1.72339-6.12286,14.54372,14.54372,0,0,1,3.7107-5.1228,32.01134,32.01134,0,0,0-2.29322,5.64471,49.29961,49.29961,0,0,0-1.22656,5.88318C364.84951,150.38154,364.65273,154.42823,364.351,158.60267Z" fill="#020202"/><path d="M397.22207,155.33851c-.32593-2.6662-.64966-5.2904-1.06421-7.88812a60.81976,60.81976,0,0,0-1.66308-7.63336,25.21817,25.21817,0,0,0-1.30152-3.61237,17.46066,17.46066,0,0,0-1.84692-3.29535,10.22287,10.22287,0,0,0-6.27564-4.07391,8.422,8.422,0,0,1,4.0354.64014,10.06826,10.06826,0,0,1,3.40454,2.4718,18.89176,18.89176,0,0,1,3.83912,7.32159,37.74725,37.74725,0,0,1,.87231,16.06958Z" fill="#020202"/><path d="M388.21614,303.59769c-.00969.03869-.00969.06776-.01938.10645h-.00968C388.19676,303.66545,388.20645,303.63638,388.21614,303.59769Z" fill="#fff"/><path d="M368.61758,116.2599a2.39606,2.39606,0,0,0,1.93213-.92755,2.52757,2.52757,0,0,0,.39087-1.97656,2.48944,2.48944,0,0,0-.90332-1.49836,2.5085,2.5085,0,0,0-2.83521.00415,2.61294,2.61294,0,0,0-.51611,3.47083A2.39317,2.39317,0,0,0,368.61758,116.2599Zm0,0a3.25532,3.25532,0,0,1-2.127-.74573,3.54807,3.54807,0,0,1-1.16406-2.15716,3.44405,3.44405,0,0,1,.64893-2.63654,3.43932,3.43932,0,0,1,5.28076.00177,3.44254,3.44254,0,0,1,.647,2.63391,3.55055,3.55055,0,0,1-1.16064,2.1557A3.24382,3.24382,0,0,1,368.61758,116.2599Z" fill="#020202"/><path d="M383.88345,427.33058c1.56762,8.1438,3.26928,16.33142,3.60327,24.69354.11157,2.085.165,4.177.14429,6.27442.00293,1.05047-.02784,2.08831-.10474,3.14215l-.05127.78778-.10474.84918a10.18465,10.18465,0,0,1-.438,1.656,9.14015,9.14015,0,0,1-7.65894,5.91565c-1.15283.09406-2.127.02735-3.18188.03724-4.15064-.03-8.30176-.08081-12.45093-.03833-4.14942.03253-8.29663.17791-12.44458.28625-8.29419.3103-16.58594.738-24.88086,1.00018a.85031.85031,0,0,1-.71607-.35083l-.00952-.01361a8.68983,8.68983,0,0,1-1.73633-4.23272,6.86814,6.86814,0,0,1,1.23682-4.53009,8.4695,8.4695,0,0,1,3.5874-2.92463,11.46634,11.46634,0,0,1,2.14795-.69311c.65772-.15961,1.31494-.32923,1.971-.517,2.63306-.707,5.239-1.59119,7.83545-2.49524,2.60107-.89642,5.18506-1.85937,7.75635-2.85785,2.55517-.97778,5.20849-1.98108,7.65039-3.0354a12.76522,12.76522,0,0,0,6.93506-9.01758,13.7782,13.7782,0,0,0,.22656-1.98059l.06225-2.07336c.11231-2.76813.19165-5.53626.3335-8.30445a.09693.09693,0,0,1,.1936,0c.1416,2.76819.221,5.53632.33326,8.30445l.05688,2.07879a14.80673,14.80673,0,0,1-.12622,2.15192,13.8743,13.8743,0,0,1-1.25293,4.139,13.63245,13.63245,0,0,1-6.02026,6.18072c-2.59986,1.23047-5.09815,2.265-7.67749,3.35547a137.4715,137.4715,0,0,1-15.77124,5.53937c-.67823.18018-1.36426.34369-2.05494.49744a9.40707,9.40707,0,0,0-1.80932.54028,6.53367,6.53367,0,0,0-2.81641,2.1933,4.9942,4.9942,0,0,0-.98389,3.29492,6.93748,6.93748,0,0,0,1.33936,3.37439l-.72534-.36432c8.29883-.06219,16.60107.04114,24.90088.027,4.14917-.05389,8.29883-.07068,12.44629-.20038,4.14795-.11969,8.2937-.33276,12.43994-.5249,1.01758-.06043,2.12427-.06122,3.03491-.19a7.75282,7.75282,0,0,0,2.67578-.93628,7.92153,7.92153,0,0,0,3.53882-4.22107,8.50586,8.50586,0,0,0,.34863-1.35022l.082-.69544.04517-.76526c.0564-1.01611.12451-2.05188.13916-3.07592.0625-2.05127.053-4.10968-.01489-6.17023-.06641-2.06006-.19043-4.12012-.34668-6.17914-.13843-2.06061-.2876-4.12384-.53052-6.17889-.51221-4.10688-.95068-8.228-1.34741-12.36853l-.00073-.00659a.09668.09668,0,0,1,.19116-.02753Z" fill="#020202"/><path d="M384.47075,467.122l-33.54288.86133c.03875-1.63554.02906-10.29711-4.7323-12.76491-5.26486-2.72913-7.96474,2.87431-7.96474,2.87431s7.12267,4.31622,3.19346,10.13254l-16.24893.41613a2.11071,2.11071,0,1,0,.12594,4.21953l59.276-1.73234a2.004,2.004,0,0,0-.10656-4.00659Zm-40.41415-7.73249a1.45258,1.45258,0,0,1,0-2.90331A1.45258,1.45258,0,0,1,344.0566,459.38955Zm2.61293,1.97429a1.45258,1.45258,0,0,1,0,2.90332A1.45258,1.45258,0,0,1,346.66953,461.36384Zm.17437,7.60667a1.45257,1.45257,0,0,1,0-2.90331A1.45257,1.45257,0,0,1,346.8439,468.97051Z" fill="#020202"/><path d="M349.18032,185.96882l2.71948,10.58783c.89966,3.53089,1.8003,7.06159,2.66358,10.601a.49147.49147,0,0,1-.00733.261l-.00732.02411c-1.196,3.88757-2.13135,7.90228-2.968,11.91046-.83984,4.01355-1.5686,8.05139-2.23486,12.09894-1.31909,8.1-2.1897,16.26581-2.92188,24.43933-.33325,4.0907-.67626,8.18128-.85937,12.28339-.25513,4.09784-.4126,8.20086-.55908,12.30633-.1001,2.05213-.11206,4.10608-.136,6.16016l-.07788,6.16351q.0315,6.16306.166,12.32977l-.47339-.34344c6.73144-1.81464,13.543-3.25024,20.417-4.393a79.75974,79.75974,0,0,1,10.41016-1.056,32.06237,32.06237,0,0,1,5.26684.25574,12.8515,12.8515,0,0,1,2.60669.656,6.51965,6.51965,0,0,1,2.33521,1.46441,7.89316,7.89316,0,0,0,4.55,1.59058,29.39207,29.39207,0,0,0,5.11646.00476,81.65163,81.65163,0,0,0,10.22583-1.52893,197.29033,197.29033,0,0,0,20.05078-5.33942l-.58765.66956a88.92353,88.92353,0,0,0,1.16749-20.11078,100.68869,100.68869,0,0,0-3.19825-19.90558,116.29964,116.29964,0,0,0-6.875-18.99939A165.121,165.121,0,0,0,406.33,220.28065l-.01392-.02228a.80578.80578,0,0,1-.10913-.29358,63.804,63.804,0,0,1-.69409-6.417,29.19276,29.19276,0,0,1-.00586-3.27228,11.9691,11.9691,0,0,1,.22119-1.68835,4.48942,4.48942,0,0,1,.74121-1.78931l-.15307.31726,1.17187-5.15435c.39917-1.70032.76734-3.46277,1.26856-5.13471q1.389-5.07357,2.58472-10.20343c.782-3.42047,1.53417-6.84942,2.14355-10.30475a72.23818,72.23818,0,0,0,1.19849-10.444.09655.09655,0,0,1,.09716-.09619.0986.0986,0,0,1,.0962.09552,72.58336,72.58336,0,0,1-.79322,10.53827q-.71887,5.23838-1.79052,10.41828-1.05652,5.17894-2.31861,10.31378c-.46264,1.71167-.76391,3.40338-1.12256,5.13629l-1.0625,5.15454a.6749.6749,0,0,1-.09961.23889l-.05346.07874a5.92772,5.92772,0,0,0-.572,2.61383,27.75768,27.75768,0,0,0,.05786,3.0863,62.32236,62.32236,0,0,0,.77661,6.21722l-.1228-.31549a145.98345,145.98345,0,0,1,9.97583,17.92591,118.29628,118.29628,0,0,1,7.05908,19.29889,93.07242,93.07242,0,0,1,1.77295,40.85l-.00318.01648a.843.843,0,0,1-.585.65332,189.16876,189.16876,0,0,1-20.32226,5.03717,82.84615,82.84615,0,0,1-10.42017,1.296,31.32121,31.32121,0,0,1-5.2959-.12817,8.72412,8.72412,0,0,1-5.061-1.95044,7.86341,7.86341,0,0,0-4.44263-1.98645,27.5809,27.5809,0,0,0-5.12915-.32135,79.12184,79.12184,0,0,0-10.32837.96722c-3.43042.50519-6.83813,1.1745-10.2207,1.9488-3.38257.76794-6.75537,1.60846-10.08863,2.5465a.37159.37159,0,0,1-.45947-.25482.40031.40031,0,0,1-.01391-.08874l-.45069-12.3476c-.03052-4.11847-.1748-8.23962-.10742-12.36047.01807-8.244.40259-16.487,1.05811-24.70966q1.058-12.32822,3.12793-24.54535c.71191-4.06408,1.46752-8.12292,2.43725-12.13708.94507-4.02252,1.97485-8.00916,3.29688-11.95691l-.01465.28473c-.79541-3.55524-1.55347-7.1192-2.3125-10.683l-2.25659-10.69605a.0968.0968,0,0,1,.18847-.04407Z" fill="#020202"/><path d="M403.381,287.61978a13.90387,13.90387,0,0,1-4.01615-.58064c1.38384-21.81361,5.46781-91.41573,1.65485-101.26764-4.52911-11.71.56138-65.673.56138-65.673s7.413-1.81941,8.53558,9.11645c0,0,7.84873,115.51315,18.262,148.42707a16.18542,16.18542,0,0,0-8.24543-.44519,12.49925,12.49925,0,0,0-3.92921,1.59684,11.71445,11.71445,0,0,0-3.06776,2.9517L411.94592,283.41a5.98471,5.98471,0,0,1-.6292.76452c-.23225.23226-.44513.48389-.67739.71614a10.69479,10.69479,0,0,1-3.32908,2.07105A10.55054,10.55054,0,0,1,403.381,287.61978Z"/><path d="M428.37866,277.64205a19.96594,19.96594,0,0,0-4.084-.29032,16.723,16.723,0,0,0-3.98733.56133,13.48985,13.48985,0,0,0-3.60008,1.64516,10.945,10.945,0,0,0-2.78707,2.75819l-1.22909,1.66454a5.55924,5.55924,0,0,1-.68708.82264c-.25187.25163-.48389.52257-.75489.76451a10.39589,10.39589,0,0,1-3.69695,2.09042,11.68233,11.68233,0,0,1-8.18731-.61938c-.271,4.113-.43569,6.52277-.43569,6.52277s12.194,6.968,15.85222-1.3936,16.549-7.66473,16.549-7.66473A27.76619,27.76619,0,0,1,428.37866,277.64205Zm-26.13952,14.865a1.45258,1.45258,0,0,1,0-2.90331A1.45258,1.45258,0,0,1,402.23914,292.507Zm6.44527,1.56779a1.45258,1.45258,0,0,1,0-2.90332A1.45258,1.45258,0,0,1,408.68441,294.0748Zm4.355-4.00653a1.45258,1.45258,0,0,1,0-2.90332A1.45258,1.45258,0,0,1,413.03939,290.06827Zm5.2261-4.87761a1.45258,1.45258,0,0,1,0-2.90332A1.45258,1.45258,0,0,1,418.26549,285.19066Zm6.61941-2.26455a1.45258,1.45258,0,0,1,0-2.90332A1.45258,1.45258,0,0,1,424.8849,282.92611Z"/><path d="M367.57245,156.63487a1.45253,1.45253,0,0,0,0-2.90332,1.45253,1.45253,0,0,0,0,2.90332Z"/><path d="M374.01781,155.06708a1.45253,1.45253,0,0,0,0-2.90332,1.45253,1.45253,0,0,0,0,2.90332Z"/><path d="M382.37936,154.37028a1.45252,1.45252,0,0,0,0-2.90331,1.45252,1.45252,0,0,0,0,2.90331Z"/><path d="M389.86991,154.02188a1.45252,1.45252,0,0,0,0-2.90331,1.45252,1.45252,0,0,0,0,2.90331Z"/><path d="M395.79267,154.89288a1.45253,1.45253,0,0,0,0-2.90332,1.45253,1.45253,0,0,0,0,2.90332Z"/><path d="M418.61273,163.25442a1.45252,1.45252,0,0,0,0-2.90331,1.45252,1.45252,0,0,0,0,2.90331Z"/><polygon points="344.586 302.246 348.161 295.892 348.231 295.769 348.31 295.889 351.313 300.473 351.051 300.483 354.872 293.262 355.041 292.942 355.278 293.223 359.843 298.652 359.354 298.709 362.79 291.602 363.007 291.153 363.354 291.518 368.618 297.056 367.982 297.13 371.562 290.849 371.876 290.298 372.263 290.804 376.688 296.6 375.972 296.629 379.676 290.815 380.069 290.197 380.446 290.827 384.884 298.254 384.065 298.268 387.183 292.569 387.622 291.766 388.035 292.582 392.2 300.825 391.379 300.823 395.1 293.643 395.468 292.933 395.874 293.619 399.723 300.106 398.972 300.14 401.867 294.132 402.183 293.476 402.581 294.083 406.01 299.321 405.378 299.332 408.396 294.483 408.632 294.104 408.93 294.43 412.167 297.963 411.662 298.057 413.617 293.28 413.745 292.966 414.019 293.158 418.292 296.141 417.95 296.249 419.972 291.002 420.063 290.765 420.237 290.946 423.998 294.859 423.836 294.91 424.858 289.196 424.868 289.142 424.903 289.183 426.304 290.813 424.865 289.217 424.909 289.205 424.025 294.942 423.996 295.126 423.862 294.993 420.008 291.171 420.273 291.114 418.377 296.408 418.279 296.682 418.034 296.517 413.715 293.602 414.117 293.48 412.227 298.283 412.052 298.728 411.721 298.377 408.437 294.888 408.97 294.834 406.018 299.724 405.715 300.226 405.385 299.735 401.895 294.537 402.609 294.488 399.741 300.508 399.399 301.225 398.99 300.543 395.113 294.072 395.888 294.049 392.199 301.245 391.788 302.046 391.378 301.243 387.176 293.019 388.027 293.032 384.892 298.722 384.493 299.446 384.073 298.736 379.668 291.29 380.438 291.302 376.709 297.101 376.37 297.628 375.992 297.129 371.592 291.313 372.292 291.268 368.673 297.526 368.402 297.995 368.037 297.6 362.848 291.993 363.412 291.908 359.881 298.969 359.677 299.376 359.391 299.027 354.899 293.537 355.305 293.498 351.319 300.628 351.192 300.855 351.056 300.637 348.163 295.983 348.312 295.98 344.586 302.246"/></svg>