<svg id="Layer_1" data-name="Layer 1" xmlns="http://www.w3.org/2000/svg" viewBox="0 0 700 550"><title>lady driving car</title><path d="M553.66193,137.30131a13.66144,13.66144,0,0,0-3.23457,5.55781,12.67448,12.67448,0,0,0-.56467,3.134,15.96691,15.96691,0,0,0,.15134,3.16837l.00819.07076-.00632.05462a10.18443,10.18443,0,0,1-.9532,3.377,5.77729,5.77729,0,0,1-1.05753,1.505,4.64247,4.64247,0,0,1-.76186.5952l-.31439.21134a1.07138,1.07138,0,0,0-.24888.20164,2.38722,2.38722,0,0,0-.56608,2.40031,1.15066,1.15066,0,0,0,.59719.79052,5.63668,5.63668,0,0,0,.66549.01965l.82735.00444.62386.00339-.01006.62771a37.48219,37.48219,0,0,0,.178,4.37819,29.05615,29.05615,0,0,0,.72092,4.32673,14.672,14.672,0,0,0,1.64466,4.02181,6.44475,6.44475,0,0,0,3.316,2.74125,6.30811,6.30811,0,0,1-3.73562-2.44488,13.26745,13.26745,0,0,1-2.03553-4.08111,25.54984,25.54984,0,0,1-1.0042-4.43421,33.01743,33.01743,0,0,1-.31157-4.54193l.61355.63087-.82735.00445a4.53573,4.53573,0,0,1-.98478-.0524,2.31726,2.31726,0,0,1-1.48162-1.61015,3.577,3.577,0,0,1,.91835-3.69563,2.07488,2.07488,0,0,1,.39508-.31368l.37567-.24572a3.40532,3.40532,0,0,0,.54455-.41474,5.14586,5.14586,0,0,0,.85566-1.17916,9.1086,9.1086,0,0,0,.93145-2.93446l.00187.12491a15.31912,15.31912,0,0,1,.03462-3.39282,13.46961,13.46961,0,0,1,.80584-3.27832,12.21787,12.21787,0,0,1,1.603-2.93949A10.94351,10.94351,0,0,1,553.66193,137.30131Z" fill="#020202"/><path d="M550.74267,149.4864a5.821,5.821,0,0,1,1.82056-.98045,7.4053,7.4053,0,0,1,2.05284-.39286,6.03072,6.03072,0,0,1,2.09167.28584,4.40359,4.40359,0,0,1,1.77752,1.08747,13.38969,13.38969,0,0,0-1.93027-.443,11.02618,11.02618,0,0,0-1.90687-.08269A27.23523,27.23523,0,0,0,550.74267,149.4864Z" fill="#020202"/><path d="M553.53512,153.171a1.27377,1.27377,0,0,0,0-2.546,1.27377,1.27377,0,0,0,0,2.546Z" fill="#020202"/><path d="M550.02175,163.57533a1.40926,1.40926,0,0,1,1.38056-.81741,1.57386,1.57386,0,0,1,1.37121.81741,4.62918,4.62918,0,0,1-.76233.04164c-.22455-.00012-.42853-.00713-.6304-.01123C550.97214,163.59487,550.59952,163.5813,550.02175,163.57533Z" fill="#020202"/><path d="M553.53512,134.88966s9.90036,17.643,14.85054,16.37368c0,0,2.91934-3.42329,4.06169.06534s.25386,11.612-4.44247,10.34274c0,0-2.39758,6.47829-8.50416,9.39265s-10.11362,7.86952-8.10308,19.80073c0,0,22.33379-10.91473,36.16891-7.36075l-.64943-46.20276S576.25519,125.62394,553.53512,134.88966Z" fill="#020202"/><path d="M587.65141,183.50465c.0131,14.6391.10456,29.27879.05333,43.91742l-.123,43.91612-.0014.53964-.52678.10737a38.72085,38.72085,0,0,1-11.80147.34386,81.14377,81.14377,0,0,1-11.53458-2.1498c-3.78475-.96817-7.51171-2.13377-11.187-3.43679-3.67738-1.30981-7.29745-2.7271-10.86418-4.36614l-.40444-.18573-.026-.41473a16.69011,16.69011,0,0,1,.33614-3.85c.21263-1.22267.46409-2.42862.73589-3.62732.54245-2.39774,1.14993-4.77163,1.7829-7.13733q1.9077-7.09569,4.07527-14.10565l1.07811.775a106.44268,106.44268,0,0,1-22.348,11.64381,116.38722,116.38722,0,0,1-24.26259,6.6488,74.45269,74.45269,0,0,1-12.56638.89683,36.37308,36.37308,0,0,1-6.29746-.56022,38.04572,38.04572,0,0,1-6.07944-1.72922c-7.90446-2.98417-14.90039-7.80948-21.487-12.95947-3.29025-2.5981-6.45886-5.3466-9.53438-8.19229-1.53986-1.4222-3.03995-2.87844-4.55409-4.3224l-1.13378-1.07893a3.58572,3.58572,0,0,0-1.20443-.80794,30.51568,30.51568,0,0,0-2.9092-1.06174c-3.97281-1.26536-8.01977-2.32862-12.03492-3.54217-1.00467-.31088-2.00653-.616-3.00792-1.03613a3.10173,3.10173,0,0,1-1.38922-1.07472,5.79089,5.79089,0,0,1-.76233-1.501,23.75357,23.75357,0,0,1-.93753-6.30764c-.01988-.53672-.06175-1.02069-.05941-1.59389a5.24286,5.24286,0,0,1,.27625-1.67846c.18363-.54327.44538-1.00969.59415-1.45238a3.541,3.541,0,0,0,.18947-1.378,10.3807,10.3807,0,0,0-.21708-1.48758,5.85806,5.85806,0,0,1-.06619-1.69378,8.01429,8.01429,0,0,1,1.10337-3.11914c.53918-.94338,1.21028-1.7898,1.79366-2.62032a7.50238,7.50238,0,0,0,1.20162-2.67458,15.94566,15.94566,0,0,0,.34339-3.01329c.02012-.51321.022-1.03051.02246-1.54782a2.47755,2.47755,0,0,1,.65028-1.82231,2.75262,2.75262,0,0,1,1.77331-.70923,6.66715,6.66715,0,0,1,1.7015.12421,13.71957,13.71957,0,0,1,3.10171,1.02548,9.95622,9.95622,0,0,1,1.44817.79812,5.32088,5.32088,0,0,0,1.26594.61859,2.52425,2.52425,0,0,0,1.24584.12806,1.13695,1.13695,0,0,0,.79694-.62958,5.34284,5.34284,0,0,0,.28561-2.73961c-.09286-.97262-.33449-2.03681-.41122-3.11551a12.92051,12.92051,0,0,1,.08515-3.29212,5.90677,5.90677,0,0,1,.5366-1.66922,3.632,3.632,0,0,1,.52958-.78525,2.24694,2.24694,0,0,1,.92-.65122l.12725-.04947.17286.03239a6.1257,6.1257,0,0,1,3.87293,2.8795,16.233,16.233,0,0,1,1.86781,4.20813,32.92625,32.92625,0,0,1,.99437,4.40567,42.41875,42.41875,0,0,1,.48584,4.48274l-.23368-.5111a10.62222,10.62222,0,0,1,2.15109,3.11586,26.07091,26.07091,0,0,1,1.32372,3.385,48.56872,48.56872,0,0,1,1.61893,6.99651l-.24211-.46257c2.50593,2.278,5.04719,4.50754,7.69651,6.61184,2.65072,2.098,5.38355,4.09059,8.20316,5.94729a90.09368,90.09368,0,0,0,8.729,5.09631c1.502.75706,3.02265,1.47354,4.57211,2.09693a26.72552,26.72552,0,0,0,4.68461,1.49764l.07368.01672a11.40706,11.40706,0,0,0,1.6891.125c.611-.00094,1.23016-.01743,1.85425-.06176,1.24653-.0807,2.50242-.21169,3.75667-.37824,2.5064-.32771,5.02379-.753,7.50282-1.24115l-.46011,1.51554-17.59789-17.7152.469.24608a13.35341,13.35341,0,0,1-4.312-1.79635l.454.12643H477.048l-.20819-.1255a59.38615,59.38615,0,0,1-6.5847-4.94847c-2.12489-1.68021-4.25609-3.396-6.28413-5.2487a33.69926,33.69926,0,0,1-2.92908-2.97411,8.9592,8.9592,0,0,1-1.26712-1.86535,2.41129,2.41129,0,0,1-.24538-1.53495,2.27984,2.27984,0,0,1,.89145-1.336,3.91529,3.91529,0,0,1,2.5181-.5249,10.3236,10.3236,0,0,1,2.17541.427,11.36278,11.36278,0,0,1,2.04044.8249,5.70215,5.70215,0,0,1,.50291.30245l.41848.27754c.27461.17941.54408.35064.81449.50023a4.33242,4.33242,0,0,0,1.57144.5821,1.26558,1.26558,0,0,0,1.14969-.403,2.80027,2.80027,0,0,0,.451-.62946.73541.73541,0,0,0,.08234-.48865,4.14327,4.14327,0,0,0-.63227-1.52934,33.15366,33.15366,0,0,0-5.29139-5.84612l-3.00324-2.73458c-.25356-.23485-.50479-.46736-.76513-.73368a3.41961,3.41961,0,0,1-.7373-1.07366,2.11488,2.11488,0,0,1-.03907-1.53671,2.70368,2.70368,0,0,1,.8318-1.11835,6.081,6.081,0,0,1,2.05963-1.04887c.1766-.05544.35391-.10409.53051-.14842a1.99734,1.99734,0,0,1,.797-.03965,2.80158,2.80158,0,0,1,1.23624.5835,28.08042,28.08042,0,0,1,2.84628,3.08815A14.67518,14.67518,0,0,0,476.175,179.678a16.172,16.172,0,0,1,6.88038,4.74122,52.02472,52.02472,0,0,1,4.88087,6.60248,5.72268,5.72268,0,0,0,1.16747,1.4208c.49941.38257,1.0753.75157,1.6353,1.11379,1.13238.7235,2.28885,1.42466,3.44884,2.11868,9.31005,5.51981,18.78384,10.79974,28.24944,16.072l-.425.02737,29.33621-20.98077.09989.13719-28.96756,21.48673-.2014.14935-.22409-.12187c-9.52409-5.18508-19.04091-10.369-28.4326-15.81534-1.17215-.68607-2.34008-1.37869-3.49843-2.10313-.58058-.36865-1.15227-.72338-1.73355-1.1587a4.3422,4.3422,0,0,1-.46689-.398q-.19017-.21439-.35345-.42737c-.21683-.2835-.41847-.56619-.61332-.84841a50.98155,50.98155,0,0,0-4.83128-6.415,14.849,14.849,0,0,0-6.38775-4.32941,16.04779,16.04779,0,0,1-6.82377-4.87034,28.8991,28.8991,0,0,0-2.668-2.86955,1.41832,1.41832,0,0,0-.57379-.292.49049.49049,0,0,0-.20982.016c-.15135.03964-.30035.0821-.44655.12958a4.66554,4.66554,0,0,0-1.54033.78467c-.41122.377-.48233.59625-.35157.93227a1.94569,1.94569,0,0,0,.42432.57859c.215.21637.46268.4428.70853.66572l3.03411,2.70967a34.31275,34.31275,0,0,1,5.6329,6.13793,5.64665,5.64665,0,0,1,.88795,2.20745,2.45,2.45,0,0,1-.262,1.47893,4.47173,4.47173,0,0,1-.7256,1.01929,3.11064,3.11064,0,0,1-1.15741.7601,3.22025,3.22025,0,0,1-1.37987.147,5.93632,5.93632,0,0,1-2.2264-.78549c-.3228-.17836-.62572-.37052-.91835-.56128l-.429-.28338a3.97633,3.97633,0,0,0-.36772-.22059,9.743,9.743,0,0,0-1.72465-.69016,8.65583,8.65583,0,0,0-1.80512-.35544,2.39721,2.39721,0,0,0-1.40256.21661.54345.54345,0,0,0-.20841.31906,1.12912,1.12912,0,0,0,.13075.42631,7.44311,7.44311,0,0,0,1.02432,1.47869,32.15923,32.15923,0,0,0,2.77844,2.80768c1.97752,1.80033,4.07316,3.48358,6.20179,5.16087a58.1325,58.1325,0,0,0,6.40435,4.8073l-.45215-.12538h.25122l.21123.12643a11.71008,11.71008,0,0,0,3.7162,1.56419l.27532.05135.19415.195,17.62175,17.6911,1.193,1.19764-1.65307.31825c-2.53985.48876-5.06917.90478-7.63405,1.22969-1.28068.1642-2.56979.29391-3.8748.37286-.65122.04315-1.31086.05894-1.97775.0566a11.56178,11.56178,0,0,1-2.12676-.19415l.07322.01661a28.1523,28.1523,0,0,1-5.01958-1.6174c-1.60466-.65379-3.16183-1.39589-4.69444-2.17658a91.77222,91.77222,0,0,1-8.87006-5.22882c-2.8561-1.8981-5.6184-3.93059-8.29439-6.06705-2.6713-2.14032-5.23829-4.4114-7.75755-6.72155l-.19906-.18268-.043-.28023a47.09388,47.09388,0,0,0-1.53332-6.75465,25.03758,25.03758,0,0,0-1.21612-3.19656,9.24745,9.24745,0,0,0-1.79764-2.69026l-.22034-.20912-.01357-.30233a41.21864,41.21864,0,0,0-.42877-4.31456,31.585,31.585,0,0,0-.91226-4.228,14.93969,14.93969,0,0,0-1.66641-3.87094,4.84311,4.84311,0,0,0-2.97681-2.33213l.29965-.017a1.57963,1.57963,0,0,0-.33076.27134,2.34316,2.34316,0,0,0-.34736.51005,4.64277,4.64277,0,0,0-.4269,1.3042,11.707,11.707,0,0,0-.09777,2.96323c.08046,1.96547.97238,4.15152-.07018,6.51863a2.33748,2.33748,0,0,1-1.60746,1.21518,3.65045,3.65045,0,0,1-1.84231-.17719,6.46238,6.46238,0,0,1-1.53846-.76747,8.80061,8.80061,0,0,0-1.29028-.72584,12.63488,12.63488,0,0,0-2.83271-.96853,3.06169,3.06169,0,0,0-2.51341.2662,1.42787,1.42787,0,0,0-.3476,1.06232c-.00515.52854-.01193,1.05742-.03766,1.58911a16.91043,16.91043,0,0,1-.39976,3.20814,8.51752,8.51752,0,0,1-1.3801,3.00136c-.62736.87356-1.26712,1.66665-1.77495,2.53775a7.05443,7.05443,0,0,0-1.007,2.74078,4.93838,4.93838,0,0,0,.04725,1.42957,11.21828,11.21828,0,0,1,.22058,1.61541,4.45482,4.45482,0,0,1-.24888,1.70712c-.19368.54642-.45216.99729-.6028,1.44629a7.55684,7.55684,0,0,0-.18947,2.94253,23.06443,23.06443,0,0,0,.85075,6.074,3.11364,3.11364,0,0,0,1.69588,2.11272c.92583.39625,1.92582.71122,2.91692,1.024,3.98614,1.23332,8.02913,2.32336,12.02159,3.62346a31.0355,31.0355,0,0,1,2.97563,1.10946,4.31791,4.31791,0,0,1,1.378.93624l1.13215,1.09145c1.50431,1.45308,2.99692,2.921,4.52134,4.34731,3.04721,2.85645,6.18659,5.61524,9.44666,8.2241a102.30459,102.30459,0,0,0,10.20056,7.2468,62.62772,62.62772,0,0,0,11.16079,5.56519,37.43221,37.43221,0,0,0,5.98635,1.67214,35.73331,35.73331,0,0,0,6.19079.519,71.5064,71.5064,0,0,0,12.42977-1.0263,115.68873,115.68873,0,0,0,23.97932-6.88482,105.85353,105.85353,0,0,0,21.93959-11.747l1.67623-1.20069-.59812,1.97565c-1.41191,4.66344-2.76,9.35742-4.00719,14.06683-.62082,2.35552-1.21543,4.71748-1.7422,7.08668-.26386,1.18408-.5062,2.37132-.7076,3.55574a15.889,15.889,0,0,0-.3104,3.43119l-.43017-.60023c3.49656,1.57659,7.10025,3.01493,10.7264,4.32626,3.63247,1.307,7.31429,2.47692,11.04406,3.44931a79.74445,79.74445,0,0,0,11.32172,2.166,37.42178,37.42178,0,0,0,11.37762-.26865l-.52794.64677.52818-43.91308c.16584-14.6377.47438-29.27446.70455-43.9118Z" fill="#020202"/><path d="M564.07021,226.65845c-2.49517,1.2484-5.04929,2.30547-7.59849,3.37048l-3.83036,1.57132c-1.27226.5352-2.55365,1.04-3.80252,1.65846a19.17066,19.17066,0,0,1,3.52206-2.25833c1.23483-.64759,2.50406-1.22162,3.78708-1.75541A51.53777,51.53777,0,0,1,564.07021,226.65845Z" fill="#020202"/><path d="M498.593,222.16459c7.96645-3.12826,15.90061-6.40131,23.65442-10.07109-7.50142,4.176-15.20985,7.96913-22.99127,11.63353Z" fill="#020202"/><path d="M570.29492,184.05061a9.39132,9.39132,0,0,1,4.20275,2.35646,12.8594,12.8594,0,0,1,1.61331,1.8381l.71251,1.00069c.20771.34994.38783.71578.58221,1.07484a24.09586,24.09586,0,0,1,2.47576,9.32151,60.186,60.186,0,0,1-.58034,9.525c-.2,1.56886-.32117,3.14674-.59836,4.70286-.26736,1.55693-.3752,3.14335-.68373,4.70052a42.23927,42.23927,0,0,1-2.49213,9.23426,29.267,29.267,0,0,1-2.17307,4.34976,17.24363,17.24363,0,0,1-3.189,3.80112,10.3167,10.3167,0,0,1-4.53,2.32,8.41645,8.41645,0,0,1-2.592.14421,8.52951,8.52951,0,0,1-2.48254-.69789,8.12777,8.12777,0,0,1-3.65282-3.39656,5.9122,5.9122,0,0,1-.5352-4.77023l.16421.043a5.7961,5.7961,0,0,0,.13123,2.269,6.5562,6.5562,0,0,0,.96911,2.005,7.329,7.329,0,0,0,3.44,2.61681,6.874,6.874,0,0,0,4.1838.18479,9.05994,9.05994,0,0,0,3.71878-2.08629,22.0193,22.0193,0,0,0,5.07994-7.41171,60.25872,60.25872,0,0,0,3.05188-8.80351,53.40627,53.40627,0,0,0,1.64209-9.25753,47.8829,47.8829,0,0,0-.27883-9.34432,32.83176,32.83176,0,0,0-2.24886-8.8683l-.47625-1.03671-.57987-.97729a6.04305,6.04305,0,0,0-.63111-.94537c-.2304-.29976-.4442-.61929-.69075-.90829a10.49036,10.49036,0,0,0-3.59433-2.81938Z" fill="#020202"/><path d="M436.63229,182.10388a13.47133,13.47133,0,0,1-.02528-5.55885,32.08121,32.08121,0,0,0-7.58729,8.44431,13.03046,13.03046,0,0,1,3.174,1.43426,4.86,4.86,0,0,0,2.66495.942,25.47312,25.47312,0,0,1,1.96048-2.53752A11.75946,11.75946,0,0,0,436.63229,182.10388Zm26.21562-6.37354a1.52876,1.52876,0,0,1-.3141-1.952,25.01733,25.01733,0,0,0-13.61275-2.31686,24.3797,24.3797,0,0,0-9.819,3.39469c1.70584.83168,2.8939,2.80061,3.71709,5.04112a18.29038,18.29038,0,0,1,6.82336-2.215,17.858,17.858,0,0,1,2.11319-.12733,17.65423,17.65423,0,0,1,2.597.19523l-1.83306,27.9383q1.57821,1.38754,3.11456,2.64786l4.58276-28.77848a28.724,28.724,0,0,1,11.09221,10.00584,2.7248,2.7248,0,0,0,1.52765-1.45975C474.36426,185.15059,464.27363,177.34279,462.84791,175.73034ZM457.586,245.4997c-6.39033.75534-12.85731-1.94344-18.21249-7.59558-.13571-.14431-.27143-.29706-.39885-.44132l6.23783-9.68339c-1.61261-1.5276-2.86013-2.76663-3.65783-3.522l-6.399,8.16423a41.91647,41.91647,0,0,1-5.15979-12.54341c-2.631-.76378-5.1515-1.48518-6.79788-2.05378a46.57394,46.57394,0,0,0,11.63527,24.39085c5.97469,6.29719,13.2052,9.6664,20.6228,9.6664a24.60548,24.60548,0,0,0,14.8008-4.9138c-2.02844-1.11176-4.03119-2.33385-5.96619-3.62385A18.27818,18.27818,0,0,1,457.586,245.4997Zm26.86911-37.10395-3.14-3.15709a12.42269,12.42269,0,0,1-4.0142-1.68036,47.30158,47.30158,0,0,1,.89115,5.15145,44.98025,44.98025,0,0,1-.45,13.71454,30.093,30.093,0,0,0,5.97469,2.02834A51.03532,51.03532,0,0,0,484.45509,208.39575Z" fill="#020202"/><path d="M528.97408,271.40357l.24912,4.7714c-3.71738.19169-7.44458.31614-11.162.31614-4.00486,0-8.00036-.21076-11.99563-.47906-3.99527-.25871-8.00036-.41193-11.99562-.37356-3.6982.03836-7.39663.11485-11.09506.28736-.182-3.13294-.50759-6.35231-.79507-9.94524,8.52713.56537,16.54667.97729,24.43194,1.236l5.89232.14374,5.835.00948q5.23116-.05737,10.49132-.19158Q528.888,269.29085,528.97408,271.40357Z" fill="#020202"/><path d="M586.92113,229.95548H374.90905c-9.89718,145.71977,12.95374,157.38967,17.524,158.913,4.56064,1.52349,139.90406,12.95374,171.637-3.80369C595.80264,368.3074,586.92113,229.95548,586.92113,229.95548Zm-55.59971,35.92934c-.03813,1.83962-.10526,3.67913-.19158,5.51875l-.28748,5.51876-.04772.824-.73777-.03836c-4.00509-.22035-8.00036-.35438-11.99562-.35438-4.00486,0-8.00036.21076-11.99563.47906-3.99527.25859-8.00036.41192-11.99562.37356-3.99527-.048-8.00036-.115-11.99563-.31614l-1.00607-.05742.03836-.91028c.163-3.91866.54619-7.74153.86245-11.14289,7.46376-.55578,15.4447-.96771,23.54073-1.22642l6.1129-.14362,6.151-.01918q6.16553.07174,12.2831.22035l1.29355.02877Z" fill="#020202"/><path d="M374.82905,229.94554a145.56057,145.56057,0,0,1,3.74942-16.745c1.53869-5.5149,3.36136-10.95015,5.38659-16.309A189.66,189.66,0,0,1,398.98872,166a158.25545,158.25545,0,0,1,20.79457-27.35752l1.48045-1.56127,1.53892-1.50454c1.0297-.99847,2.04185-2.01506,3.08581-2.99774,2.15085-1.8981,4.21889-3.88813,6.47242-5.6646A152.63263,152.63263,0,0,1,446.18737,116.715l.07041-.04761.08585-.00619,34.04866-2.467c11.35142-.79192,22.70027-1.64091,34.06176-2.31821,11.36124-.67637,22.72787-1.3111,34.11392-1.63776,5.69349-.15122,11.39-.25286,17.09637-.19391,2.85376.03929,5.70823.0945,8.57158.28034a37.49839,37.49839,0,0,1,8.67684,1.254l.27228.08316.157.24982a3.65018,3.65018,0,0,1,.2828.5642,4.1128,4.1128,0,0,1,.18713.48046l.30643.9297c.156.61262.33473,1.22606.47064,1.83822.25847,1.22349.51788,2.447.69823,3.672l.30035,1.83693.23789,1.83916c.15555,1.22618.331,2.45166.43883,3.67971.25637,2.45447.49636,4.90953.66127,7.367l.27555,3.68509.20515,3.687c.56584,9.831.74151,19.67026.78969,29.50357.02971,4.91713.04585,9.83355-.01754,14.74916-.05006,4.91584-.11158,9.831-.24163,14.74459-.15953,9.82911-.58713,19.651-.93473,29.47224l-.16982-.00445c.06854-9.82782.14456-19.65365.14316-29.47808.029-4.91221-.01053-9.824-.06176-14.735-.00444-4.9114-.07812-9.82127-.17075-14.73033q-.246-14.72716-1.05847-29.4224l-.21427-3.67118-.284-3.66358c-.17052-2.44523-.41543-4.87946-.676-7.31136-.11041-1.21963-.287-2.42628-.44374-3.63667l-.23953-1.81495-.29941-1.79892c-.18058-1.20619-.43532-2.38523-.687-3.5651-.13193-.58643-.30011-1.15273-.44724-1.73027l-.27228-.81929a2.90857,2.90857,0,0,0-.1469-.37719l-.113-.26654.42923.33263a36.67263,36.67263,0,0,0-8.16924-1.20689c-2.81236-.2028-5.64811-.278-8.48176-.33695-5.6708-.09848-11.35306-.03743-17.03392.07345-11.36358.2276-22.73138.63367-34.09427,1.15285-11.36172.538-22.72577,1.09741-34.0786,1.83892-5.67595.3759-11.3533.73437-17.02526,1.16712l-17.0096,1.36793.156-.0538a145.16333,145.16333,0,0,0-13.55092,10.40138c-2.20067,1.80851-4.217,3.82509-6.3129,5.74834-1.01683.99531-2.00138,2.02383-3.00323,3.03353l-1.49612,1.52091-1.43764,1.57706a166.78568,166.78568,0,0,0-10.92828,13.0969l-2.52113,3.44182c-.82946,1.15507-1.60419,2.34886-2.42336,3.51141-.82362,1.15987-1.60021,2.35143-2.36465,3.5513-.75928,1.20279-1.5705,2.3733-2.28675,3.60323a204.3099,204.3099,0,0,0-15.26225,30.5252c-2.12769,5.28788-4.00135,10.677-5.69629,16.1227a161.19326,161.19326,0,0,0-4.2734,16.567Z" fill="#020202"/><path d="M586.30008,93.51149l-39.01256,1.8077-19.50711.90244-19.50991.83847L469.24975,98.737l-19.51155.81706a45.27278,45.27278,0,0,0-4.71362.30245,15.58491,15.58491,0,0,0-4.27877,1.61226,43.71605,43.71605,0,0,0-7.74609,5.52636,135.054,135.054,0,0,0-13.43561,13.93162c-4.1955,4.93736-8.20153,10.04489-12.08989,15.2433-7.78072,10.39682-15.08588,21.15457-22.2514,32.0005-14.29384,21.71959-27.75167,44.01145-40.7274,66.54389l-.23064.40035-.44092.06292-85.08423,12.14861-42.52386,6.19734L173.708,259.83016l.1179-.03532a45.40205,45.40205,0,0,0-7.97253,5.15712,40.93405,40.93405,0,0,0-6.71148,6.71032,30.2746,30.2746,0,0,0-4.66216,8.20059,26.375,26.375,0,0,0-1.64887,9.244l-.0021.33929-.324.136a78.85462,78.85462,0,0,0-13.139,7.17791,74.74414,74.74414,0,0,0-11.57177,9.48946,58.19906,58.19906,0,0,0-4.92906,5.61431,50.33116,50.33116,0,0,0-4.145,6.19372,46.79422,46.79422,0,0,0-5.25583,13.84963l-.74409-.91238,10.66161-.04211-.63367.31052a169.29946,169.29946,0,0,1,11.17388-12.79467,106.20992,106.20992,0,0,1,12.67889-11.37026,47.98307,47.98307,0,0,1,7.31335-4.55152,20.01385,20.01385,0,0,1,8.51521-2.26289c2.72277-.06117,5.51782-.40187,8.296-.745l8.36153-1.13144a287.59829,287.59829,0,0,1,33.75907-3.19879,122.67959,122.67959,0,0,1,17.037.72829,66.3016,66.3016,0,0,1,16.69474,4.0148,40.76553,40.76553,0,0,1,7.6923,4.058c.30245.20385.61566.39157.90876.60911l.862.67929c.5628.46421,1.17379.88291,1.69589,1.38653,1.03273,1.01578,2.10359,2.00594,3.10171,3.04768A115.46605,115.46605,0,0,1,271.193,323.3286c6.22775,9.4801,11.76288,19.3464,17.03065,29.33492,5.24133,10.00419,10.17506,20.15563,14.96166,30.37163,2.40184,5.10438,4.73047,10.2415,7.0495,15.38272a40.83505,40.83505,0,0,0,9.43285,13.25163c.96794.96478,2.05939,1.78793,3.11411,2.65341.54152.4145,1.11414.78748,1.66922,1.18408l.83858.58689.87812.52573a39.93018,39.93018,0,0,0,7.35967,3.554,43.42165,43.42165,0,0,0,7.92363,2.01553,56.72771,56.72771,0,0,0,8.24363.4352l33.8.08561,67.60025.22047,67.6.34748,67.6.49894v.25461l-67.6.49906-67.6.34748-67.60025.22047-33.8.08549a59.374,59.374,0,0,1-8.616-.45052,45.98677,45.98677,0,0,1-8.43076-2.13084,42.52607,42.52607,0,0,1-7.83452-3.76919l-.93425-.55929-.89379-.622c-.59157-.42035-1.20045-.81812-1.77729-1.25823-1.1256-.91683-2.28511-1.795-3.31878-2.81821a43.46469,43.46469,0,0,1-10.0539-14.07981c-2.3209-5.12554-4.65117-10.24723-7.05347-15.33417-4.78754-10.181-9.7208-20.29458-14.95114-30.24369-5.22566-9.94641-10.68079-19.78382-16.79814-29.15995a113.18824,113.18824,0,0,0-10.04968-13.30719c-.946-.99261-1.945-1.919-2.913-2.88452-.48841-.47719-1.04864-.8566-1.56863-1.29086l-.79367-.63274c-.27088-.20292-.56374-.37789-.8442-.56841a38.29273,38.29273,0,0,0-7.21067-3.83515,63.91245,63.91245,0,0,0-16.06083-3.9141,120.3335,120.3335,0,0,0-16.70082-.77262,302.20448,302.20448,0,0,0-33.51978,2.97446l-8.39451,1.0684a85.3363,85.3363,0,0,1-8.53415.69333,18.05917,18.05917,0,0,0-7.68832,2.00465,46.12753,46.12753,0,0,0-7.046,4.31316,104.48769,104.48769,0,0,0-12.54229,11.07482,167.74757,167.74757,0,0,0-11.15025,12.5645l-.25006.31228-.38409-.00152-10.66161-.0421-.94221-.00375.1979-.90887a48.25712,48.25712,0,0,1,5.53115-14.2432,51.60789,51.60789,0,0,1,4.304-6.31711,59.51227,59.51227,0,0,1,5.08181-5.6915,75.96682,75.96682,0,0,1,11.83866-9.54443,79.78519,79.78519,0,0,1,13.40614-7.17394l-.32561.4752a27.69268,27.69268,0,0,1,1.78056-9.57543,31.215,31.215,0,0,1,4.82824-8.43614,41.83985,41.83985,0,0,1,6.879-6.8371,46.17793,46.17793,0,0,1,8.1648-5.24145l.05169-.02549.06644-.00983,42.5138-6.26471,42.4979-6.37371,84.95908-12.99374-.67134.46315q9.52689-17.07995,19.65424-33.78551,10.12092-16.71678,20.79129-33.10153c7.13932-10.90453,14.57314-21.62415,22.41514-32.05606,3.9293-5.20975,7.98071-10.33366,12.23468-15.3a136.97712,136.97712,0,0,1,13.70882-14.09619A45.606,45.606,0,0,1,439.83,99.72264a17.47258,17.47258,0,0,1,4.83385-1.78466,45.315,45.315,0,0,1,5.01982-.316l19.51248-.66981,39.02731-1.29659,19.51412-.6483,19.51669-.58432,39.03549-1.16583Z" fill="#020202"/><path d="M392.23863,179.58915c.80233.05544,1.59016.16433,2.37728.2759.78525.11778,1.56232.266,2.33728.42269.77332.16175,1.54431.33274,2.30827.52888.767.18526,1.52887.38923,2.27716.64385l-.77472.27286c1.8636-2.3857,3.89632-4.64859,5.69887-7.07873,1.82617-2.41283,3.46334-4.963,5.09794-7.515,1.61869-2.56347,3.36627-5.03338,5.08859-7.52153,1.69939-2.50488,3.5134-4.92672,5.34963-7.3323l.15088,1.13659c-1.37238-1.19168-2.74336-2.38476-4.0727-3.62989-1.33846-1.23355-2.66522-2.48172-3.93936-3.79492l.10643-.13216c1.553.96782,3.05353,2.00067,4.54216,3.04815,1.498,1.03589,2.95411,2.12383,4.40883,3.21305l.6166.46175-.46549.67519c-1.71787,2.49155-3.45773,4.96695-5.31244,7.35932-1.83156,2.409-3.63785,4.83631-5.573,7.17-1.9195,2.34523-3.83643,4.69233-5.56413,7.17674-1.75156,2.467-3.27247,5.10134-4.963,7.61277l-.25591.38022-.519-.10725c-.774-.15988-1.534-.3704-2.2891-.59952-.75811-.21836-1.50921-.46186-2.25774-.71461-.74736-.25777-1.49238-.52409-2.229-.82069-.735-.30292-1.46922-.60853-2.189-.96759Z" fill="#020202"/><path d="M508.4815,166.73973c-.92561-.91963-1.8077-1.87354-2.68745-2.8292-.87461-.95963-1.72466-1.93868-2.56769-2.92335-.839-.98782-1.67062-1.98161-2.4816-2.99142-.81987-1.003-1.62431-2.01787-2.38781-3.06534l-.30923-.42432.25731-.39578c1.65027-2.538,3.47971-4.96812,5.06519-7.54516,1.61074-2.56172,3.02125-5.24379,4.42895-7.92762,1.40465-2.68546,2.91153-5.30975,4.41912-7.93357,1.47623-2.64254,3.07387-5.21209,4.69514-7.7675l.43765-.68981.66783.38409c1.7836,1.02606,3.56627,2.05365,5.31759,3.1403,1.7581,1.07356,3.50755,2.1636,5.2177,3.32733l-.07976.14982c-1.919-.77215-3.79878-1.61822-5.66963-2.48079-1.87787-.84934-3.72416-1.75775-5.56975-2.66768l1.10525-.30561c-1.49589,2.63073-3.01517,5.24742-4.65584,7.79112-1.60981,2.56242-3.21984,5.12449-4.9321,7.62516-1.70945,2.50254-3.4161,5.0066-4.92251,7.63113-1.53144,2.6092-2.81914,5.3653-4.28579,8.01345l-.05193-.81963c.84046.98653,1.63975,2.0057,2.42383,3.0368.793,1.02419,1.56536,2.06441,2.33026,3.11072.76093,1.04934,1.51483,2.10429,2.24395,3.17867.7242,1.07846,1.44606,2.15868,2.12441,3.27305Z" fill="#020202"/><path d="M395.03041,190.86221c-1.447.14094-2.894.2207-4.341.31754-1.447.10562-2.89377.16643-4.34076.23462v-1.10443c3.14849-.13614,6.297-.21041,9.44572-.26117,3.14849-.03029,6.297-.04339,9.44571-.00608,6.297.07871,12.59422.26491,18.89121.81952-6.297.5545-12.59422.7407-18.89121.81941-3.14872.03731-6.29722.02421-9.44571-.00608-3.14873-.05076-6.29723-.125-9.44572-.26117v-1.10443c1.447.06819,2.89376.129,4.34076.23462C392.13641,190.6414,393.58341,190.72116,395.03041,190.86221Z" fill="#020202"/><path d="M487.11149,190.7773c2.63646-.092,5.27291-.15193,7.90937-.21473l-.26175.15415c1.74664-3.36615,3.54194-6.70541,5.33-10.04875,1.793-3.34054,3.55879-6.69617,5.39057-10.01507,3.65352-6.64365,7.23172-13.32894,10.94793-19.93774,3.70217-6.61664,7.525-13.16637,11.30253-19.74114,1.89939-3.28147,3.78966-6.56809,5.63782-9.878,1.85424-3.30662,3.74124-6.595,5.54612-9.92875l.07369-.13591.15882-.00421,10.87-.29181,10.86839-.373.87367-.02994-.44677.76876q-5.8729,10.10567-11.84756,20.14944l-11.976,20.07165q-6.0178,10.01794-12.13551,19.97529l-12.31258,19.86815-.2035-.80876a42.31092,42.31092,0,0,1,4.912,3.6927,34.37773,34.37773,0,0,1,4.27549,4.39409,19.031,19.031,0,0,1,3.0561,5.3184,10.40646,10.40646,0,0,1,.40608,6.0522l-.16585-.0366a10.38583,10.38583,0,0,0-.69215-5.844,18.42243,18.42243,0,0,0-3.19271-5.00356,33.68464,33.68464,0,0,0-4.31081-4.13842,41.35964,41.35964,0,0,0-4.88625-3.42428l-.50409-.29859.30058-.51052,11.866-20.13809q5.98553-10.03741,12.04311-20.03119l12.20287-19.93458q6.12975-9.95,12.33106-19.857l.4269.7387-10.87447.07684-10.87284.158.23205-.13988c-1.87249,3.29633-3.66311,6.63827-5.48648,9.96185-1.82945,3.32031-3.61679,6.664-5.395,10.01273-3.5775,6.68576-7.10985,13.39655-10.7629,20.04043-3.63878,6.65161-7.4158,13.22672-11.11751,19.84371-1.84559,3.31118-3.75737,6.58587-5.642,9.87565-1.88979,3.28686-3.77187,6.57781-5.70284,9.84186l-.09357.15836-.16865-.004c-2.63646-.0628-5.27291-.12269-7.90937-.21473Z" fill="#020202"/><path d="M461.93967,190.86221a25.85371,25.85371,0,0,1-4.10754.65964c-1.36911.13544-2.73821.17158-4.10755.18842-1.3691-.01473-2.73844-.05087-4.10755-.18584a25.57713,25.57713,0,0,1-4.10754-.66222,25.56409,25.56409,0,0,1,4.10754-.66233c1.36911-.135,2.73845-.17111,4.10755-.18584,1.36934.01684,2.73844.053,4.10755.18842A25.84151,25.84151,0,0,1,461.93967,190.86221Z" fill="#020202"/><path d="M152.32237,289.02205c11.13108-.175,22.261-.14152,33.38972-.0372l16.69217.255c5.56437.08386,11.1257.29508,16.68819.45625l16.68048.72888,16.6765.7959c11.1161.58186,22.23665.93519,33.34995,1.92523,1.38946.1393,2.77844.2786,4.16883.48234.69543.1021,1.39086.21134,2.0898.35718a7.71275,7.71275,0,0,1,2.16348.69286c.62221.37847,1.17472.72537,1.77822,1.11554.59672.37567,1.18759.76455,1.75413,1.20373a16.70312,16.70312,0,0,1,1.654,1.35413l.80186.70806.73871.76373a86.82467,86.82467,0,0,1,10.06816,13.46216c5.96179,9.44665,11.33225,19.21868,16.49685,29.0872l3.82615,7.42458c1.27039,2.47716,2.5616,4.94438,3.76907,7.45265,2.4388,5.00438,4.94146,9.97752,7.32715,15.00623,2.3995,5.022,4.78777,10.04957,7.12763,15.09909l6.9344,15.18821-.15321.0731c-10.09437-19.84008-20.04674-39.74144-30.38064-59.42925-2.61961-4.90133-5.24554-9.8-7.943-14.65383-1.31671-2.44675-2.69821-4.85327-4.09023-7.25382-1.36-2.42149-2.81541-4.77947-4.26451-7.14248a90.96729,90.96729,0,0,0-9.68478-13.37642l-.69753-.74947-.75064-.68595a15.57093,15.57093,0,0,0-1.54828-1.31554c-1.04209-.84654-2.2388-1.585-3.37913-2.35038a7.09872,7.09872,0,0,0-1.78758-.5994c-.65894-.15673-1.33519-.28246-2.01284-.40082-1.35671-.2373-2.73259-.41368-4.10684-.58958-22.09842-2.43236-44.41016-2.61739-66.64424-2.96815-22.24578-.46783-44.48875-1.05659-66.73383-1.91Z" fill="#020202"/><path d="M386.42023,179.11933c-2.50476,4.34719-4.95431,8.72386-7.41533,13.09012q-3.65539,6.57078-7.209,13.18988c-4.67268,8.85566-9.23122,17.78116-13.037,27.01109-4.31223,9.15765-3.98428,19.45049-4.3941,29.42-.254,10.02513-.1359,20.05774.07322,30.08216.4407,20.0416,1.07156,40.10881,3.02522,60.01907.2669,2.48464.56935,4.964.93566,7.42937.3607,2.46535.76444,4.92368,1.32677,7.32926a31.76044,31.76044,0,0,0,1.01191,3.52814,15.0645,15.0645,0,0,0,.702,1.63378c.26011.47823.61239.992.97051,1.51343,1.40958,2.06125,2.85564,4.09456,4.40018,6.04342a41.4364,41.4364,0,0,0,10.76406,10.13694,29.75984,29.75984,0,0,0,6.75336,3.07212,35.21222,35.21222,0,0,0,7.34493,1.38384l-.01029.16947a31.19446,31.19446,0,0,1-14.50694-3.91679,42.20906,42.20906,0,0,1-11.34464-10.03939c-1.60887-1.95272-3.11083-3.98229-4.57187-6.03372a19.1642,19.1642,0,0,1-1.08653-1.63366,16.48621,16.48621,0,0,1-.81894-1.80419A33.23855,33.23855,0,0,1,358.2,367.06449a113.12669,113.12669,0,0,1-2.45844-14.94518c-1.0987-10.00758-1.69-20.043-2.02664-30.081q-.5421-15.05575-.46292-30.11655c.06129-10.03916.28023-20.07388.55976-30.10649.19111-5.01513.29847-10.03238.65449-15.0481a44.31581,44.31581,0,0,1,1.04607-7.50446,69.50022,69.50022,0,0,1,2.207-7.24458c.83648-2.38055,1.78734-4.71373,2.75364-7.0399q1.51156-3.46083,3.14756-6.86178c2.13962-4.55491,4.57047-8.95906,6.97675-13.36835,2.41-4.40872,4.96251-8.736,7.573-13.02532q3.89608-6.44553,8.10632-12.69387Z" fill="#020202"/><path d="M206.99,304.42309a76.1599,76.1599,0,1,0,76.1514,76.1599A76.16208,76.16208,0,0,0,206.99,304.42309Zm0,116.14087a39.981,39.981,0,1,1,39.98086-39.981A39.98625,39.98625,0,0,1,206.99,420.564Z" fill="#020202"/><circle cx="206.98576" cy="380.58269" r="12.94663" fill="#020202"/><path d="M503.01467,141.18008c-1.93822,2.48488-3.996,4.85269-6.09606,7.1792-2.09237,2.334-4.25585,4.59865-6.43289,6.84985-2.19974,2.229-4.41491,4.443-6.70073,6.588-2.2781,2.15249-4.59924,4.26275-7.04107,6.25512,1.93658-2.48628,3.99363-4.85479,6.094-7.18095,2.09283-2.33366,4.25631-4.5983,6.43476-6.848,2.20138-2.22757,4.41655-4.44169,6.7026-6.58634C498.25356,145.28482,500.57423,143.174,503.01467,141.18008Z"/><path d="M482.611,141.26628c-1.938,2.48476-3.996,4.85257-6.09582,7.1792-2.09237,2.334-4.25585,4.59854-6.4329,6.84973-2.2,2.229-4.41491,4.4431-6.70073,6.5881-2.27809,2.15237-4.59946,4.26263-7.0413,6.255,1.93658-2.48628,3.99386-4.85467,6.09418-7.18095,2.09284-2.33365,4.25609-4.5983,6.43477-6.848,2.20137-2.22757,4.41631-4.44158,6.70236-6.58634C477.8501,145.371,480.17077,143.26005,482.611,141.26628Z"/></svg>