<svg id="Layer_1" data-name="Layer 1" xmlns="http://www.w3.org/2000/svg" viewBox="0 0 700 550"><title>rushing for sale- running- in hurry</title><path d="M251.722,169.22465a18.76534,18.76534,0,0,1-1.38721,2.78427,15.833,15.833,0,0,1-1.8977,2.48956,14.80622,14.80622,0,0,1-2.38989,2.05408,10.98521,10.98521,0,0,1-2.85865,1.45544l-.04272.0087c-.76441.06174-1.52612.19794-2.29858.19406a11.34187,11.34187,0,0,1-2.31861-.21454,10.76638,10.76638,0,0,1-2.25244-.67474,11.06039,11.06039,0,0,1-2.021-1.22272,12.17064,12.17064,0,0,1-3.073-3.53143,15.4542,15.4542,0,0,1-1.69776-4.367l.99927.48792a4.77623,4.77623,0,0,1-2.3667.39938,11.50355,11.50355,0,0,1-2.18042-.31512.69873.69873,0,0,1-.51977-.84061l.02246-.07617.00854-.02332,1.6333-4.529-.00757.49573a20.77658,20.77658,0,0,1-.80273-8.10669,37.12245,37.12245,0,0,1,.56934-3.99362,32.94379,32.94379,0,0,1,1.02514-3.91251.74671.74671,0,0,1,1.113-.39407l.01172.00784c1.38232.90143,2.85205,1.74955,4.32446,2.544a43.83031,43.83031,0,0,0,4.55469,2.11652,23.076,23.076,0,0,0,4.77661,1.38195,9.30923,9.30923,0,0,0,4.79443-.24905l-.17822.142a6.85043,6.85043,0,0,1,2.9729-2.376,2.20985,2.20985,0,0,1,2.02051.26532,3.29149,3.29149,0,0,1,.72192.71182c.16113.27967.343.55.48145.8396a7.009,7.009,0,0,1,.4917,3.7128,3.84882,3.84882,0,0,1-.61328,1.84433,1.51421,1.51421,0,0,1-.90625.59455,2.17385,2.17385,0,0,1-1.03443-.10019l.35742-.28507a13.62741,13.62741,0,0,0,3.27979,7.06693,11.7374,11.7374,0,0,0,3.03833,2.4779,14.02579,14.02579,0,0,0,3.64722,1.45792l-.18335,0a18.71116,18.71116,0,0,1,3.47021-.55035,7.38948,7.38948,0,0,1,3.593.51861,2.78921,2.78921,0,0,1,1.39966,1.45792,3.67631,3.67631,0,0,1,.14892,1.96478,4.17569,4.17569,0,0,0,.688,2.88187,5.35594,5.35594,0,0,0,2.3147,1.95895,3.1845,3.1845,0,0,0,2.75366.018,4.00094,4.00094,0,0,0,1.74658-2.25113,11.4375,11.4375,0,0,0,.57739-3.15485l.09107.4136a32.0302,32.0302,0,0,1-2.7688-7.26315,21.76823,21.76823,0,0,1-.62671-7.82666,12.55005,12.55005,0,0,1,3.33447-7.30462c.957-.94251,1.87574-1.75272,2.856-2.60178.48706-.41724.97949-.82944,1.49658-1.23233.25684-.20261.52124-.40061.80567-.59787.146-.09815.27978-.19577.457-.29486.09033-.05045.15259-.09491.26709-.14893.12231-.055.24707-.10583.37256-.15167l-.28516,1.66888a16.06747,16.06747,0,0,0-7.03467-2.30587,16.81088,16.81088,0,0,0-7.43115,1.00027l-1.93213.661a18.83156,18.83156,0,0,1-2.05591.47363,13.04226,13.04226,0,0,1-4.25537-.07421,10.92748,10.92748,0,0,1-6.937-4.61615,11.50777,11.50777,0,0,0-5.95483-4.33838,10.716,10.716,0,0,0-7.36036.87994,34.43587,34.43587,0,0,0-3.37109,1.9986c-1.11206.72061-2.21631,1.4523-3.30542,2.20593-1.08374.75937-2.16357,1.52759-3.19409,2.35471-.51489.41363-1.022.83682-1.50684,1.28228a5.26267,5.26267,0,0,0-1.22412,1.456l-.02588.05862a.08067.08067,0,0,1-.15014-.05862,4.85423,4.85423,0,0,1,1.18945-1.66913c.46265-.48548.95215-.94159,1.45264-1.38382.999-.88779,2.04565-1.71436,3.0979-2.5333a58.4329,58.4329,0,0,1,6.6145-4.56607,11.817,11.817,0,0,1,8.09473-1.232,12.55321,12.55321,0,0,1,6.81835,4.688,9.37993,9.37993,0,0,0,6.06861,3.86877,11.3744,11.3744,0,0,0,3.67285-.02219c.60645-.13867,1.21875-.25918,1.81323-.459l1.83106-.64844a18.17728,18.17728,0,0,1,16.17236,1.44745.85479.85479,0,0,1,.06934,1.3931l-.35474.276a.18222.18222,0,0,1-.064.03293c-.0293.011-.09815.05719-.14551.08334-.10034.053-.2229.14121-.33936.21936-.23486.16242-.47778.34265-.71728.53134-.48072.37323-.959.77161-1.43238,1.17621-.93066.80441-1.92749,1.65234-2.77636,2.47412a10.77858,10.77858,0,0,0-2.908,6.2352,20.11108,20.11108,0,0,0,.5,7.21375,32.468,32.468,0,0,0,2.50512,6.92233l.02.04034a.71212.71212,0,0,1,.07105.37363,12.85834,12.85834,0,0,1-.74317,3.56607,5.37375,5.37375,0,0,1-2.48217,2.96118,4.45086,4.45086,0,0,1-3.88819-.07257,6.56751,6.56751,0,0,1-2.77929-2.50873,5.28053,5.28053,0,0,1-.73389-3.68454,1.98255,1.98255,0,0,0-.94556-2.40341,6.59393,6.59393,0,0,0-3.12817-.51523,17.97641,17.97641,0,0,0-3.32251.42823l-.02881.0064a.304.304,0,0,1-.15478-.0064,16.05051,16.05051,0,0,1-3.792-1.61768,12.35822,12.35822,0,0,1-3.16211-2.63583,13.71075,13.71075,0,0,1-2.21313-3.46183,15.20935,15.20935,0,0,1-1.15747-3.94961.26383.26383,0,0,1,.34155-.29053l.01611.00531a1.06184,1.06184,0,0,0,1.31128-.31967,3.33187,3.33187,0,0,0,.47657-1.56534,6.39168,6.39168,0,0,0-.48584-3.37424c-.45874-1.05581-1.395-1.8435-2.41553-1.42627a6.12414,6.12414,0,0,0-2.51929,2.19095.44526.44526,0,0,1-.17871.14228,10.18074,10.18074,0,0,1-5.25635.48571,23.95723,23.95723,0,0,1-5.04736-1.26626,45.09335,45.09335,0,0,1-4.76147-2.01386,47.88875,47.88875,0,0,1-4.52832-2.50833l1.12451-.38617a36.75161,36.75161,0,0,0-.91407,3.73206,35.60528,35.60528,0,0,0-.52954,3.81622,29.71538,29.71538,0,0,0-.0332,3.818,17.518,17.518,0,0,0,.68335,3.68995l.00757.02505a.72994.72994,0,0,1-.01538.471l-1.69531,4.50616-.48877-.93985a10.18039,10.18039,0,0,0,1.88134.29724,3.5654,3.5654,0,0,0,1.65552-.213.70126.70126,0,0,1,.94019.31525.76342.76342,0,0,1,.05932.17276,14.38869,14.38869,0,0,0,1.48413,3.96078,10.94,10.94,0,0,0,2.65113,3.26606,9.93775,9.93775,0,0,0,1.759,1.1492,9.72446,9.72446,0,0,0,2.00269.67044,10.36665,10.36665,0,0,0,2.11865.26819c.71606.02865,1.43872-.07886,2.16137-.10913l-.04248.00863a11.11006,11.11006,0,0,0,2.686-1.2189,14.168,14.168,0,0,0,2.38623-1.8432,15.36631,15.36631,0,0,0,1.96509-2.31635,18.86339,18.86339,0,0,0,1.54883-2.641.0883.0883,0,0,1,.11645-.04464A.09213.09213,0,0,1,251.722,169.22465Z"/><path d="M252.97424,163.14506a2.61945,2.61945,0,0,1,.22485,1.64312,2.83344,2.83344,0,0,1-.25928.78656,1.90917,1.90917,0,0,1-.24951.37259,1.28344,1.28344,0,0,1-.18286.16468.23746.23746,0,0,1-.25854.03946c.10034-.10267.03491-.236.0393-.36344-.00464-.12616-.01806-.2576-.01416-.38278a4.42463,4.42463,0,0,1,.05738-.76456A3.17423,3.17423,0,0,1,252.97424,163.14506Z"/><path d="M227.05725,159.91029a1.369,1.369,0,0,1,.89575-.3017,1.26776,1.26776,0,0,1,.37378.08823c.12866.04571.24414.12692.46142.21347a.65542.65542,0,0,1-.37719.46856.99915.99915,0,0,1-.50757.10849A.98791.98791,0,0,1,227.05725,159.91029Z"/><path d="M231.8529,158.754a12.99567,12.99567,0,0,1,2.43945-1.45551l1.23706-.58484a5.266,5.266,0,0,0,1.18457-.70731,2.12835,2.12835,0,0,1-.80127,1.27762,5.92072,5.92072,0,0,1-1.23559.80613A6.2894,6.2894,0,0,1,231.8529,158.754Z"/><path d="M234.49486,161.55447a1.32177,1.32177,0,0,0,0-2.642,1.32177,1.32177,0,0,0,0,2.642Z"/><path d="M234.83825,172.83561a4.14673,4.14673,0,0,1-.23755-1.83167,4.98414,4.98414,0,0,1,.49976-1.81756,4.16757,4.16757,0,0,1,1.20581-1.47305,3.62434,3.62434,0,0,1,1.70239-.74286,12.92977,12.92977,0,0,0-1.22827,1.24035,6.45616,6.45616,0,0,0-.89355,1.37067A13.63725,13.63725,0,0,0,234.83825,172.83561Z"/><path d="M220.017,123.03477a19.22033,19.22033,0,0,1,2.79517,3.34649,19.00213,19.00213,0,0,1,2.06592,3.83963,19.00066,19.00066,0,0,1-2.79493-3.34649A19.208,19.208,0,0,1,220.017,123.03477Z"/><path d="M234.818,118.59629a16.51907,16.51907,0,0,1,.43994,4.01578,16.32906,16.32906,0,0,1-.43994,4.01578,16.341,16.341,0,0,1-.44019-4.01578A16.5199,16.5199,0,0,1,234.818,118.59629Z"/><path d="M246.22521,127.896a17.57175,17.57175,0,0,1,.9585-4.056,17.3829,17.3829,0,0,1,1.78906-3.76422,17.38289,17.38289,0,0,1-.95874,4.056A17.58235,17.58235,0,0,1,246.22521,127.896Z"/><path d="M248.8634,173.63837a15.57037,15.57037,0,0,1,4.44507.82965,5.2517,5.2517,0,0,1,2.06079,1.225,1.70142,1.70142,0,0,1,.384.57816,1.63473,1.63473,0,0,1,.1023.36322l.02954.25351c.00537.03637.022.01526-.04444-.03058a.10351.10351,0,0,0-.07251-.02912c.0044-.00952-.00634-.00125.00977-.00488a1.40037,1.40037,0,0,0,.34643-.18069,10.05514,10.05514,0,0,0,1.57154-1.42948c.50976-.52377.97925-1.09076,1.45605-1.6524.468-.569.92383-1.14978,1.35449-1.74951a8.3997,8.3997,0,0,0,1.12134-1.90824,10.87146,10.87146,0,0,1-1.92724,4.07144,14.34609,14.34609,0,0,1-3.09034,3.4021,2.05513,2.05513,0,0,1-.65722.2988,1.28547,1.28547,0,0,1-.26807.01615.824.824,0,0,1-.33252-.12046.80418.80418,0,0,1-.30835-.50665l-.02539-.20718-.008-.09467a.78091.78091,0,0,0-.04541-.17474,1.08031,1.08031,0,0,0-.22486-.35086,5.12042,5.12042,0,0,0-1.69287-1.136A31.44947,31.44947,0,0,0,248.8634,173.63837Z"/><path d="M240.72839,177.75162a47.45574,47.45574,0,0,1,5.5918,6.60492,36.62161,36.62161,0,0,1,2.30468,3.68183,10.05933,10.05933,0,0,1,1.40479,4.11,7.541,7.541,0,0,0-.87036-1.94577c-.33838-.62195-.74268-1.21368-1.12476-1.81268-.78271-1.19019-1.61035-2.35727-2.43359-3.52618C243.95812,182.51932,242.27575,180.19874,240.72839,177.75162Z"/><path d="M277.15628,154.00917a13.22664,13.22664,0,0,0-1.4324,4.34535,12.9787,12.9787,0,0,1,.90008-3.80334Z"/><path d="M308.36691,163.14494s2.32256-4.18072,8.66151-7.1421c0,0,3.3872-25.35563-4.22927-29.3719,0,0-5.11943,1.05489-28.02663,19.65544l-1.79035,1.81941c2.64211,1.89685,18.05865,12.97785,38.6916,27.42667C315.70246,169.93872,310.20559,164.79985,308.36691,163.14494Zm6.58078-9.48415a1.45245,1.45245,0,0,1,0-2.90331A1.45245,1.45245,0,0,1,314.94769,153.66079Zm-.11613-8.01312a1.45245,1.45245,0,0,1,0-2.90331A1.45245,1.45245,0,0,1,314.83156,145.64767Zm-.813-7.20022a1.45245,1.45245,0,0,1,0-2.90332A1.45245,1.45245,0,0,1,314.01855,138.44745Zm-1.858-9.75516a1.45258,1.45258,0,0,1,0,2.90332A1.45258,1.45258,0,0,1,312.1605,128.69229Z"/><path d="M275.6465,159.91262c-.01938,6.37758,3.33876,12.523,3.33876,12.523-.71614,10.781-10.30667,5.63244-9.34858.39676.8709-4.80011-6.60027-3.26138-7.839-2.97106-.5999,1.73235-3.71621,5.53568-4.99362,6.82283-1.37427,1.37422-1.3549.14513-1.3549.14513s-1.32584,3.00976-2.83562,7.19054a14.0421,14.0421,0,0,1,4.29685-2.29361,17.06919,17.06919,0,0,1,4.82929-.9194,18.105,18.105,0,0,1,7.22922,1.20009c.75489.30963,1.48072.68708,2.19686,1.05484a35.05213,35.05213,0,0,0-4.66461-1.10328,23.07406,23.07406,0,0,0-9.39714.42582,22.5247,22.5247,0,0,0-4.49047,1.63554,81.94478,81.94478,0,0,0-3.75484,13.41336s-1.36471,8.66151-1.57759,31.91709l27.26217,2.32262,1.6936-13.52943a45.38684,45.38684,0,0,1,2.10979-12.46491,39.2523,39.2523,0,0,1-.61951,6.30989,40.41582,40.41582,0,0,1-1.49028,6.155s8.8745,2.32267,11.62294,1.90654a10.4252,10.4252,0,0,1,3.10651-.59039c.52264-.029,1.03546-.03869,1.5581-.01931.51295,0,1.02589.06775,1.57759.07738a3.48712,3.48712,0,0,1-1.50009.66776,8.74468,8.74468,0,0,1-1.57759.23232,9.76424,9.76424,0,0,1-2.18706-.11619c2.47743,1.48072,4.9453,9.0487,4.9453,9.0487s16.49087-9.6874,29.96217-19.32643C298.273,185.12305,276.982,163.59014,275.6465,159.91262Zm-25.15238,67.95689a1.45245,1.45245,0,0,1,0-2.90331A1.45245,1.45245,0,0,1,250.49412,227.86951Zm6.61953.23232a1.45245,1.45245,0,0,1,0-2.90332A1.45245,1.45245,0,0,1,257.11365,228.10183Zm7.43254.69676a1.45245,1.45245,0,0,1,0-2.90331A1.45245,1.45245,0,0,1,264.54619,228.79859Zm6.38727.46451a1.45245,1.45245,0,0,1,0-2.90331A1.45245,1.45245,0,0,1,270.93346,229.2631Zm7.76143-34.55908a14.59193,14.59193,0,0,1-.34827,1.46134c-.04844-.50326-.05812-.99683-.0775-1.48072-.06781-.48388-.08706-.96777-.14507-1.442a14.64825,14.64825,0,0,0-.61951-2.7775,9.9944,9.9944,0,0,0-3.16463-4.655,5.60411,5.60411,0,0,1,2.47755,1.71292,7.84,7.84,0,0,1,1.51947,2.66137,9.45271,9.45271,0,0,1,.4742,3.00982C278.81113,193.70718,278.74332,194.21044,278.69489,194.704Zm16.74249,30.959a1.45245,1.45245,0,0,1,0-2.90331A1.45245,1.45245,0,0,1,295.43738,225.663Zm6.73565-4.413a1.45245,1.45245,0,0,1,0-2.90332A1.45245,1.45245,0,0,1,302.173,221.25Zm8.47769-5.10987a1.45245,1.45245,0,0,1,0-2.90331A1.45245,1.45245,0,0,1,310.65072,216.14012Zm8.59394-5.57437a1.45245,1.45245,0,0,1,0-2.90332A1.45245,1.45245,0,0,1,319.24466,210.56575Z"/><path d="M314.308,127.82072a19.57526,19.57526,0,0,1,7.31518-3.14048,13.6468,13.6468,0,0,1,8.03443.92667,18.4121,18.4121,0,0,1,6.27978,5.1416c1.74292,2.044,3.26416,4.21845,4.7732,6.38635,2.99536,4.35285,5.71167,8.89078,8.31152,13.48468q3.86535,6.91229,7.55762,13.90381l-.01807-.02926,3.52564,4.8981c1.16455,1.64007,2.38037,3.244,3.57226,4.86487l-.49365-.14945a1.42175,1.42175,0,0,1,1.32275.264,2.75365,2.75365,0,0,1,.72583.89236,7.11388,7.11388,0,0,1,.64966,1.96051,21.69441,21.69441,0,0,1,.36157,3.94889,10.9448,10.9448,0,0,1-.5874,4.0477,2.83064,2.83064,0,0,1-.25366.51718,2.22574,2.22574,0,0,1-.3689.50693,1.87807,1.87807,0,0,1-1.29712.65692,2.27726,2.27726,0,0,1-1.343-.37406,5.20882,5.20882,0,0,1-.88111-.75412l1.269-.295a5.59412,5.59412,0,0,1-.76513,1.63477,2.57518,2.57518,0,0,1-3.73389.79217c-.25513-.17352-.50024-.35739-.72925-.548l-.61523-.60514,1.24048-.02209a4.72718,4.72718,0,0,1-1.1416.95874,3.37211,3.37211,0,0,1-1.51831.49332,2.76672,2.76672,0,0,1-1.6355-.40741,4.32185,4.32185,0,0,1-1.13745-1.0123l.895.30566a41.57152,41.57152,0,0,1-6.89087,1.18479,11.37811,11.37811,0,0,1-3.7085-.23893,4.51806,4.51806,0,0,1-1.0144-.4143,3.71941,3.71941,0,0,1-.85743-.76364,6.06805,6.06805,0,0,1-1.02465-1.71943,12.8,12.8,0,0,1-.231-7.19635,6.11249,6.11249,0,0,0-2.03125-5.365c-3.45874-2.92325-6.98535-5.83435-10.42432-8.814q-5.19617-4.437-10.31347-8.97138a.08817.08817,0,0,1,.11108-.13672q5.49683,4.06688,10.895,8.25544c3.62891,2.7644,7.17627,5.58984,10.78052,8.41678a7.68915,7.68915,0,0,1,2.26391,3.04867,7.917,7.917,0,0,1,.51026,3.78043l-.25171,1.6904a14.55119,14.55119,0,0,0-.08667,1.593,8.12834,8.12834,0,0,0,.52246,2.98682,4.215,4.215,0,0,0,.70654,1.206,2.12562,2.12562,0,0,0,.40088.38,2.72566,2.72566,0,0,0,.5647.21994,10.45188,10.45188,0,0,0,3.07568.19055,39.92282,39.92282,0,0,0,6.57617-1.00967.89819.89819,0,0,1,.88623.29461l.009.01114a2.64561,2.64561,0,0,0,.64746.60971,1.06637,1.06637,0,0,0,.67212.19187,1.70408,1.70408,0,0,0,.76587-.24427,3.20433,3.20433,0,0,0,.72436-.57672.85016.85016,0,0,1,1.20069-.06076c.0122.01108.02856.02707.04.03867l.47925.48938c.165.13971.3335.26932.498.39194a1.30659,1.30659,0,0,0,.87451.24694,1.31982,1.31982,0,0,0,.75928-.56713,4.17683,4.17683,0,0,0,.58056-1.13773l.01978-.06021a.72589.72589,0,0,1,1.24951-.2348c.34863.42279.80982.72811,1.03345.69641.199.05066.53589-.30167.75293-.80112a10.53573,10.53573,0,0,0,.63965-3.52982,20.66378,20.66378,0,0,0-.15747-3.74383,5.99135,5.99135,0,0,0-.47535-1.718c-.21557-.51572-.68017-.86905-.92822-.79593l-.041.01215a.40906.40906,0,0,1-.45288-.16168c-1.13306-1.66257-2.24195-3.34208-3.4021-4.98545l-3.44922-4.95221-.01831-.02957c-2.48731-4.63827-5.13819-9.18893-7.98828-13.61114-2.82618-4.4372-5.7898-8.77732-8.7146-13.13938-1.46875-2.17416-2.92212-4.35919-4.56324-6.356a18.57233,18.57233,0,0,0-5.70825-4.96423A12.66026,12.66026,0,0,0,321.7467,125.5a20.49121,20.49121,0,0,0-7.34717,2.47128.08822.08822,0,0,1-.09155-.15051Z"/><path d="M326.54064,145.967c-1.67334,1.67526-3.43115,3.20437-5.13012,4.78921-.8479.7901-1.69947,1.57971-2.48511,2.419a7.36652,7.36652,0,0,0-1.896,2.83117,3.40222,3.40222,0,0,1,.41285-1.7438,9.23861,9.23861,0,0,1,.95678-1.52921,20.47122,20.47122,0,0,1,2.41309-2.62261A28.73966,28.73966,0,0,1,326.54064,145.967Z"/><path d="M288.82754,220.2919a5.90393,5.90393,0,0,1-.96777-.24194A1.41341,1.41341,0,0,1,288.82754,220.2919Z" fill="#fff"/><path d="M248.95153,229.48188c.12159,3.19583.18628,6.39163.27417,9.58743l.00049.0181a.32381.32381,0,0,1-.22388.31668,17.05176,17.05176,0,0,1-5.23779.62128c-1.73608.01153-3.45923-.12689-5.179-.28751a94.321,94.321,0,0,1-10.1941-1.69263c-3.35351-.76879-6.688-1.61352-9.991-2.56161-1.64575-.49118-3.304-.94638-4.94019-1.46753l-4.89575-1.602a.76081.76081,0,0,1-.41895-.33548l-.00366-.006c-2.46631-4.16156-4.87353-8.35828-7.26977-12.56153l.07983.10563a8.75436,8.75436,0,0,0-1.96606-1.46387,8.33772,8.33772,0,0,0-2.33033-.86789,7.50271,7.50271,0,0,0-2.48339-.12906,9.48912,9.48912,0,0,0-2.44629.60638l.07226-.03958a2.02087,2.02087,0,0,0-.53076.77909,3.663,3.663,0,0,0-.251,1.05362,6.96767,6.96767,0,0,0,.16822,2.26519.3459.3459,0,0,1-.24781.40808l-.01269.00333a3.45075,3.45075,0,0,0-1.353.74362,3.69911,3.69911,0,0,0-.92651,1.27112,5.01691,5.01691,0,0,0-.36182,1.57275c-.019.273-.00268.55073-.00659.8263l.08984.83066.00367.03289a.24771.24771,0,0,1-.03931.16236,3.46124,3.46124,0,0,1-1.82275,1.57751,1.35689,1.35689,0,0,1-.3335.05142c-.136.00669-.13818.02155-.21607.02436a1.07066,1.07066,0,0,0-.3684.22525,2.45946,2.45946,0,0,0-.5708.82809,6.25888,6.25888,0,0,0-.15284,4.19858.28334.28334,0,0,1,.0083.1225,9.59257,9.59257,0,0,1-.416,1.66662,3.50611,3.50611,0,0,1-.949,1.53586,1.49157,1.49157,0,0,1-.45874.2565c-.16162.04013-.428.06781-.40722.06739a.83874.83874,0,0,0-.33789.43978,5.62551,5.62551,0,0,0-.34986,1.51835,11.6336,11.6336,0,0,0,.10816,3.21383,5.78412,5.78412,0,0,0,.446,1.483,1.61446,1.61446,0,0,0,.38745.52677,2.44238,2.44238,0,0,0,.61963.31018,11.19346,11.19346,0,0,0,3.14331.42056c1.08594.02243,2.17969-.02869,3.271-.11343,2.18433-.17194,4.36133-.49314,6.52295-.88352a.59568.59568,0,0,1,.41333.07532l.02319.014a210.08631,210.08631,0,0,0,23.4978,12.13534c4.04712,1.73883,8.14673,3.35962,12.32789,4.70114a86.202,86.202,0,0,0,12.72021,3.21827l3.23877.42257a10.49625,10.49625,0,0,0,1.62207.12323l1.624.052,1.62476.05964c.53833.00818,1.05347-.04328,1.58057-.07764a16.1161,16.1161,0,0,0,12.57226-8.58637,27.833,27.833,0,0,0,2.10132-6.12792,64.80173,64.80173,0,0,0,1.24561-6.47492,106.52867,106.52867,0,0,0,1.01635-13.20724.08818.08818,0,0,1,.17627-.00211,92.64871,92.64871,0,0,1-.34619,13.31528,65.81915,65.81915,0,0,1-1.02466,6.61273q-.33948,1.64259-.78979,3.26511a18.8967,18.8967,0,0,1-1.19068,3.21807A17.57793,17.57793,0,0,1,258.714,266.771a17.78865,17.78865,0,0,1-3.3916.78427c-.5747.053-1.16528.12092-1.73291.12549l-1.696-.03-1.697-.03765a11.25813,11.25813,0,0,1-1.68824-.11115l-3.354-.40274a79.4257,79.4257,0,0,1-13.02368-3.25116,128.2191,128.2191,0,0,1-12.44312-4.89514A183.69165,183.69165,0,0,1,196.222,246.27668l.43628.08926a66.93718,66.93718,0,0,1-6.66406.67823c-1.11817.04815-2.24.06567-3.36719.01165a11.90391,11.90391,0,0,1-3.39844-.56781,3.16963,3.16963,0,0,1-.83984-.46475,2.36658,2.36658,0,0,1-.57788-.8081,6.5039,6.5039,0,0,1-.4646-1.69989,13.36422,13.36422,0,0,1-.03491-3.407,6.20081,6.20081,0,0,1,.41821-1.70089,1.35,1.35,0,0,1,.72729-.77539l.41065-.06388a.88461.88461,0,0,0,.26074-.14709,5.1961,5.1961,0,0,0,1.17383-2.80542l.0083.1221a6.80052,6.80052,0,0,1,.22607-4.58142,3.14927,3.14927,0,0,1,.6897-1.00641,1.58745,1.58745,0,0,1,.58057-.35242c.293-.06219.4143-.03439.55713-.08609a2.95282,2.95282,0,0,0,1.457-1.33465l-.03565.19491-.10864-.88733c-.00171-.30041-.02246-.60052-.00561-.90207a5.63152,5.63152,0,0,1,.38745-1.7865,4.34894,4.34894,0,0,1,1.07275-1.515,4.0677,4.0677,0,0,1,1.6438-.91916l-.26.41119a8.54044,8.54044,0,0,1-.24268-2.483,4.41987,4.41987,0,0,1,.259-1.27511,2.66921,2.66921,0,0,1,.79638-1.17914.20107.20107,0,0,1,.05323-.032l.01953-.00776a10.37262,10.37262,0,0,1,2.65942-.7608,8.47866,8.47866,0,0,1,2.79077.04605,9.35732,9.35732,0,0,1,2.65479.88367,9.77521,9.77521,0,0,1,2.32471,1.6225.37082.37082,0,0,1,.05883.07153l.02124.03439c2.553,4.11,5.095,8.22647,7.57764,12.37818l-.42212-.34128c3.24951,1.04913,6.49,2.12271,9.7583,3.10342,3.26685.986,6.56128,1.86817,9.87256,2.67508,3.324.73709,6.65332,1.46417,10.01978,1.92932,1.6831.21387,3.3728.40638,5.062.451.845.03946,1.68872.02591,2.52588-.01745a11.542,11.542,0,0,0,2.41992-.33649l-.22339.3345c.08789-3.1958.15259-6.3916.27441-9.58743a.0882.0882,0,0,1,.17627,0Z"/><path d="M190.92224,221.41828l5.15869,1.271-5.30371-.31415a.48591.48591,0,1,1,.05761-.97012A.51667.51667,0,0,1,190.92224,221.41828Z"/><path d="M403.38232,318.0852a13.82077,13.82077,0,0,1-17.94252-5.50662c-6.85178-11.84552-15.70692-32.26553-13.01648-55.57912l-40.34646-38.85605c-3.96784,5.07111-30.688,18.6006-30.688,18.6006S207.13756,351.29913,181.55943,390.61c0,0,27.25236,47.34337,65.72128,35.93336s80.31536-23.24589,100.18374-20.71033,86.23811-1.6936,99.34178-23.25552c13.10355-21.5523,16.0553-77.7798,16.0553-79.04764V302.2621S450.358,295.64258,403.38232,318.0852Zm-214.43891,74.112a1.45245,1.45245,0,0,1,0-2.90332A1.45245,1.45245,0,0,1,188.94341,392.19717Zm5.226,6.96791a1.45245,1.45245,0,0,1,0-2.90332A1.45245,1.45245,0,0,1,194.1694,399.16508Zm5.57437,6.968a1.45245,1.45245,0,0,1,0-2.90331A1.45245,1.45245,0,0,1,199.74377,406.133Zm6.27126,6.27115a1.45245,1.45245,0,0,1,0-2.90332A1.45245,1.45245,0,0,1,206.015,412.40419Zm7.3163,5.57437a1.45245,1.45245,0,0,1,0-2.90332A1.45245,1.45245,0,0,1,213.33133,417.97856Zm9.05832,3.8324a1.45245,1.45245,0,0,1,0-2.90332A1.45245,1.45245,0,0,1,222.38965,421.811Zm9.75522,1.742a1.45245,1.45245,0,0,1,0-2.90331A1.45245,1.45245,0,0,1,232.14487,423.55293Zm10.10348-1.04521a1.45245,1.45245,0,0,1,0-2.90331A1.45245,1.45245,0,0,1,242.24835,422.50772Zm10.452-3.48395a1.45245,1.45245,0,0,1,0-2.90332A1.45245,1.45245,0,0,1,252.70033,419.02377Zm10.80024-3.8324a1.45245,1.45245,0,0,1,0-2.90331A1.45245,1.45245,0,0,1,263.50057,415.19137Zm11.14875-3.83234a1.45245,1.45245,0,0,1,0-2.90331A1.45245,1.45245,0,0,1,274.64932,411.359Zm11.14875-3.13557a1.45245,1.45245,0,0,1,0-2.90331A1.45245,1.45245,0,0,1,285.79807,408.22346Zm10.452-2.09042a1.45245,1.45245,0,0,1,0-2.90331A1.45245,1.45245,0,0,1,296.25005,406.133Zm11.497-2.09036a1.45245,1.45245,0,0,1,0-2.90331A1.45245,1.45245,0,0,1,307.74706,404.04268ZM294.8564,339.3568c-6.10658,8.11962-12.252,16.21018-18.55223,24.17492-6.3002,7.97449-12.65841,15.89085-19.19087,23.67171l9.31965-12.04876,9.29058-12.07778c6.1647-8.06155,12.31972-16.13273,18.35872-24.30073q9.14534-12.1649,17.89409-24.63948c2.94194-4.13241,5.77757-8.34219,8.5937-12.56166l4.14209-6.38733,3.93889-6.52277a281.9835,281.9835,0,0,1-16.0651,25.89758C306.86648,322.96275,300.905,331.18881,294.8564,339.3568Zm22.99426,63.64067a1.45245,1.45245,0,0,1,0-2.90331A1.45245,1.45245,0,0,1,317.85066,402.99747Zm4.78085-64.0568c-.40662,2.21617-.88082,4.42272-1.36471,6.61958-.50314,2.1968-1.0064,4.384-1.57735,6.56146l-.871,3.27108c-.329,1.0839-.61939,2.16779-.96777,3.242.1355-1.12259.3387-2.23555.50314-3.34845l.60982-3.31945c.40639-2.21624.88059-4.42273,1.36447-6.61959.50326-2.19686,1.00652-4.384,1.57759-6.56146.57084-2.18717,1.1516-4.36466,1.83868-6.51314C323.44429,334.51794,323.04759,336.73418,322.63151,338.94067Zm6.01951,62.66321a1.45245,1.45245,0,0,1,0-2.90331A1.45245,1.45245,0,0,1,328.651,401.60388Zm10.80025,0a1.45245,1.45245,0,0,1,0-2.90331A1.45245,1.45245,0,0,1,339.45127,401.60388Zm11.14875,0a1.45245,1.45245,0,0,1,0-2.90331A1.45245,1.45245,0,0,1,350.6,401.60388Zm9.40671.34838a1.45245,1.45245,0,0,1,0-2.90331A1.45245,1.45245,0,0,1,360.00673,401.95226Zm9.40671,0a1.45245,1.45245,0,0,1,0-2.90331A1.45245,1.45245,0,0,1,369.41344,401.95226Zm8.70995-.69676a1.45245,1.45245,0,0,1,0-2.90332A1.45245,1.45245,0,0,1,378.12339,401.2555Zm9.75521-.69683a1.45245,1.45245,0,0,1,0-2.90331A1.45245,1.45245,0,0,1,387.8786,400.55867Zm9.05833-1.04515a1.45245,1.45245,0,0,1,0-2.90332A1.45245,1.45245,0,0,1,396.93693,399.51352Zm8.36156-1.742a1.45245,1.45245,0,0,1,0-2.90331A1.45245,1.45245,0,0,1,405.29849,397.77148Zm-22.87814-35.54623a39.07248,39.07248,0,0,1-14.46825-2.44843,40.30338,40.30338,0,0,1-12.56166-7.63573,56.54939,56.54939,0,0,1-9.4744-11.23582,81.37309,81.37309,0,0,1-6.85178-12.96816,113.75074,113.75074,0,0,1-7.74218-28.17182,118.85146,118.85146,0,0,0,3.41615,14.1972,113.83729,113.83729,0,0,0,5.01311,13.67461c3.92921,8.83576,9.039,17.34245,16.27786,23.77816a38.48135,38.48135,0,0,0,26.38147,10.06479c1.20971-.00963,2.40974-.14513,3.61945-.2032.6-.04837,1.20972-.05806,1.80973-.14519l1.79047-.30969c1.19034-.22257,2.40006-.36776,3.571-.64839l3.52271-.9484c.58064-.16456,1.171-.29038,1.7516-.4742l1.713-.61938,3.43563-1.22909c1.14191-.42582,2.22593-.97746,3.34846-1.46135l3.33876-1.48066C401.74684,358.54773,392.282,361.86718,382.42035,362.22525Zm31.58808,33.45587a1.45245,1.45245,0,0,1,0-2.90331A1.45245,1.45245,0,0,1,414.00843,395.68112Zm8.01318-2.78718a1.45245,1.45245,0,0,1,0-2.90332A1.45245,1.45245,0,0,1,422.02161,392.89394Zm8.01318-2.78719a1.45245,1.45245,0,0,1,0-2.90332A1.45245,1.45245,0,0,1,430.03479,390.10675Zm7.66467-3.8324a1.45245,1.45245,0,0,1,0-2.90331A1.45245,1.45245,0,0,1,437.69946,386.27435Zm6.27115-7.31635a1.45245,1.45245,0,0,1,0-2.90331A1.45245,1.45245,0,0,1,443.97061,378.958Zm4.18083-8.3615a1.45245,1.45245,0,0,1,0-2.90332A1.45245,1.45245,0,0,1,448.15144,370.5965Zm2.09031-9.05839a1.45245,1.45245,0,0,1,0-2.90331A1.45245,1.45245,0,0,1,450.24175,361.53811Zm2.4388-9.40671a1.45245,1.45245,0,0,1,0-2.90331A1.45245,1.45245,0,0,1,452.68055,352.1314Zm1.39365-10.10354a1.45245,1.45245,0,0,1,0-2.90331A1.45245,1.45245,0,0,1,454.0742,342.02786Zm1.39354-9.75515a1.45245,1.45245,0,0,1,0-2.90332A1.45245,1.45245,0,0,1,455.46774,332.27271Zm1.39365-10.45192a1.45245,1.45245,0,0,1,0-2.90332A1.45245,1.45245,0,0,1,456.86139,321.82079Zm.69677-10.10354a1.45245,1.45245,0,0,1,0-2.90332A1.45245,1.45245,0,0,1,457.55816,311.71725Z"/><path d="M343.02624,173.866a3.317,3.317,0,0,1,2.51147.52466,2.31378,2.31378,0,0,1,.8003,1.1059,4.03933,4.03933,0,0,1,.20386,1.34454l-.00416-.0596a1.30685,1.30685,0,0,0,.80811.838,2.71878,2.71878,0,0,0,1.31982.04865c.97217-.12521,1.96973-.28165,2.98169-.36694a7.92392,7.92392,0,0,1,3.15137.231,1.94,1.94,0,0,1,.791.55036,1.54283,1.54283,0,0,1,.24951.47278,1.74085,1.74085,0,0,1,.05981.50433,2.65248,2.65248,0,0,1-.71167,1.61307,7.59131,7.59131,0,0,1-2.66577,1.67065,19.88186,19.88186,0,0,1-2.90088.90146c-.48584.12637-.99121.20834-1.42676.3613-.45166.1611-.90161.366-1.3496.57434-.89478.42541-1.75977.92227-2.62915,1.41577A24.93691,24.93691,0,0,1,346.671,183.863a9.44884,9.44884,0,0,1,1.34643-.71624c.49536-.20865.9751-.31485,1.44458-.47217a25.4074,25.4074,0,0,0,2.75488-1.03617,7.37873,7.37873,0,0,0,2.33643-1.53491,1.81386,1.81386,0,0,0,.47681-1.06054c.01757-.34455-.16993-.52616-.553-.69666a7.38153,7.38153,0,0,0-2.77295-.2084c-.97876.04608-1.95728.17422-2.96826.25744a3.35533,3.35533,0,0,1-1.63013-.19183,1.87289,1.87289,0,0,1-1.0918-1.32733.21125.21125,0,0,1-.00415-.05069l.00025-.00931a3.55208,3.55208,0,0,0-.0979-1.18237,1.991,1.991,0,0,0-.57666-1.00449A3.37648,3.37648,0,0,0,343.02624,173.866Z"/><path d="M363.31652,174.5a1.31486,1.31486,0,0,0-.88134.94073,5.69187,5.69187,0,0,0-.2981,1.327,21.09183,21.09183,0,0,0-.11987,2.78961c-.01709.46912.00805.94162.01855,1.41446-.00952.47351.02588.94678.02954,1.42349.00489.95337.052,1.90811-.01684,2.88388a19.34087,19.34087,0,0,1-.91138-5.72082,11.30613,11.30613,0,0,1,.3291-2.92694,4.62226,4.62226,0,0,1,.5896-1.39325C362.32824,174.83063,362.7987,174.388,363.31652,174.5Z"/><path d="M348.90222,178.01041a7.64932,7.64932,0,0,1,.23-2.2019,3.17853,3.17853,0,0,1,.47046-1.06094,1.34743,1.34743,0,0,1,1.11181-.601,2.34813,2.34813,0,0,1,1.18018.36835,2.52506,2.52506,0,0,1,.88794.8631,3.432,3.432,0,0,1,.38232,2.39157.399.399,0,0,1-.79272-.062v-.0199a5.48062,5.48062,0,0,1,.43481-2.3728,2.483,2.483,0,0,1,.84693-1.039,2.01222,2.01222,0,0,1,1.34912-.29718,2.77265,2.77265,0,0,1,2.15283,1.33212,4.55951,4.55951,0,0,1,.59546,2.35953h-.75855a6.26625,6.26625,0,0,1,.38672-1.96433,2.70989,2.70989,0,0,1,.53711-.904,1.434,1.434,0,0,1,.98779-.4978,2.47615,2.47615,0,0,1,1.81885.83264,2.41784,2.41784,0,0,1,.8457,1.69186,2.48048,2.48048,0,0,0-1.02514-1.48678,2.28884,2.28884,0,0,0-1.58472-.5579c-.51123.05835-.8269.5792-.98633,1.12873a6.36254,6.36254,0,0,0-.22143,1.75757.37918.37918,0,0,1-.75806.01175l-.00049-.01178a3.82494,3.82494,0,0,0-.55151-1.9104,1.89622,1.89622,0,0,0-1.51807-.91157,1.24876,1.24876,0,0,0-1.33935.83277,5.221,5.221,0,0,0-.40845,1.98807l-.793-.082a2.91863,2.91863,0,0,0-.20068-1.86295,1.87059,1.87059,0,0,0-.61817-.69687,1.82392,1.82392,0,0,0-.85571-.35428c-.58227-.07946-1.02295.60337-1.28345,1.23343A9.473,9.473,0,0,0,348.90222,178.01041Z"/><path d="M349.25183,183.03959l.44018,4.00934a.443.443,0,1,1-.88061.09671.47356.47356,0,0,1,0-.09671Z"/><path d="M352.81506,181.78794l1.03052,4.384a.44241.44241,0,1,1-.86133.20252.473.473,0,0,1-.01148-.08576Z"/><path d="M357.09045,186.21265l.28174-8.54226.59863,8.52591a.4409.4409,0,0,1-.87964.06176C357.09021,186.243,357.09,186.22745,357.09045,186.21265Z"/><path d="M448.55114,106.72871a39.03361,39.03361,0,0,0-16.73-5.03571,35.66087,35.66087,0,0,0-16.94751,3.25531,34.99491,34.99491,0,0,0-7.47827,4.52771,31.86014,31.86014,0,0,0-6.12158,6.3093,40.08211,40.08211,0,0,0-6.2583,16.394c-.529,2.88373-.28418,5.80539-.48706,8.85434a12.35893,12.35893,0,0,1-1.13892,4.56314,14.50106,14.50106,0,0,1-2.75488,3.80435,17.58719,17.58719,0,0,1-3.69238,2.86817,6.666,6.666,0,0,1-2.40552.93942l-2.20166.23483a14.8019,14.8019,0,0,0-4.09815.97412l-2.04614.79483a15.43759,15.43759,0,0,0-1.87183.93125,56.76027,56.76027,0,0,0-6.84155,5.401c-1.10229.965-2.136,1.98068-3.1665,3.04806a40.77543,40.77543,0,0,1-3.28882,3.1149,37.494,37.494,0,0,1-3.63892,2.68793,18.26062,18.26062,0,0,1-4.03662,2.12378,21.9182,21.9182,0,0,1-2.16406.6719,3.66151,3.66151,0,0,0-1.80395.94458,7.00351,7.00351,0,0,0-1.7356,3.88452.08809.08809,0,0,1-.10083.07315.08981.08981,0,0,1-.07422-.09323,7.05871,7.05871,0,0,1,1.50024-4.258,4.33487,4.33487,0,0,1,1.999-1.26648c.69409-.24393,1.38281-.4906,2.04761-.78354a17.20556,17.20556,0,0,0,3.70922-2.24207c1.178-.87341,2.30518-1.8121,3.39527-2.78292a39.31533,39.31533,0,0,0,3.07031-3.12662c.99439-1.1073,2.04321-2.21527,3.1416-3.24811,1.10279-1.04428,2.2107-2.00943,3.34961-2.99487a28.1962,28.1962,0,0,1,3.67871-2.76941,15.1999,15.1999,0,0,1,2.113-1.05673l2.11084-.81437a18.11778,18.11778,0,0,1,2.2417-.7004,18.815,18.815,0,0,1,2.3125-.33808l2.23535-.19327a5.37038,5.37038,0,0,0,1.71558-.67947,15.90843,15.90843,0,0,0,3.37671-2.51913,13.52435,13.52435,0,0,0,2.5332-3.32486,10.87164,10.87164,0,0,0,1.13745-3.99829,65.86911,65.86911,0,0,1,.92993-8.90094,53.62827,53.62827,0,0,1,2.61694-8.58619,40.40709,40.40709,0,0,1,4.12378-7.95922,36.58961,36.58961,0,0,1,13.43409-11.83085,32.8056,32.8056,0,0,1,17.68505-3.29483,34.43088,34.43088,0,0,1,16.72071,6.24875.08826.08826,0,0,1,.02075.123A.08972.08972,0,0,1,448.55114,106.72871Z"/><path d="M346.215,184.34907a29.29119,29.29119,0,0,0,5.16626,8.432,11.14447,11.14447,0,0,0,3.83545,2.8194,7.00282,7.00282,0,0,0,4.51172.29794,19.7935,19.7935,0,0,0,8.25781-4.88427,33.68111,33.68111,0,0,0,3.29541-3.6044,27.85546,27.85546,0,0,0,2.59741-4.12586l1.12476-2.25174a18.26412,18.26412,0,0,1,1.40454-2.19546,18.48868,18.48868,0,0,1,3.6272-3.67237,25.13537,25.13537,0,0,1,9.21557-4.24639c.81983-.20923,1.65772-.33542,2.48487-.50577.83716-.10367,1.678-.20728,2.50805-.331l2.47461-.34875c.82447-.11661,1.63306-.32208,2.45-.47842a34.31836,34.31836,0,0,0,9.28711-3.44257,23.54228,23.54228,0,0,0,7.38868-6.3154,19.47229,19.47229,0,0,0,3.66748-8.82581,17.06,17.06,0,0,0,.22412-2.40658,17.70671,17.70671,0,0,0-.03223-2.424c-.02075-.79532-.10522-1.645-.17871-2.48554-.082-.83859-.11987-1.68728-.1814-2.53088a43.56012,43.56012,0,0,1-.02124-5.12341,20.37081,20.37081,0,0,1,.8877-5.18,10.18477,10.18477,0,0,1,2.98657-4.56057,11.62911,11.62911,0,0,1,4.8147-2.3751,19.88059,19.88059,0,0,1,10.32031.14637c3.24634.80371,6.489,1.63394,9.75488,2.34988,1.6333.35428,3.2649.72052,4.90674,1.02481a23.33071,23.33071,0,0,0,4.9436.54535l.0127-.00058a.08764.08764,0,0,1,.01636.17432,21.0704,21.0704,0,0,1-5.05664-.15692q-2.50891-.28473-4.99268-.71235c-3.312-.5639-6.6145-1.17608-9.89624-1.8829a18.33843,18.33843,0,0,0-9.54932.14584,10.5114,10.5114,0,0,0-4.09033,2.10389,8.3325,8.3325,0,0,0-2.38843,3.79211c-.93969,2.98468-.91406,6.33539-.81518,9.623.0459.82809.06738,1.65438.134,2.48471.05738.82959.12525,1.64877.13648,2.52923a19.30955,19.30955,0,0,1-.01221,2.59571,18.6283,18.6283,0,0,1-.28784,2.58636,20.26176,20.26176,0,0,1-4.19946,9.42014,23.68561,23.68561,0,0,1-8.04053,6.3103,39.19519,39.19519,0,0,1-9.61035,3.1965c-3.30127.763-6.71192.71466-9.89624,1.64911a25.62109,25.62109,0,0,0-4.64844,1.70886,21.64156,21.64156,0,0,0-4.09912,2.70777,17.54424,17.54424,0,0,0-3.24048,3.62387,16.998,16.998,0,0,0-1.20068,2.09665c-.333.704-.63916,1.52832-1.02124,2.29214a25.55,25.55,0,0,1-2.66187,4.42212,28.28006,28.28006,0,0,1-3.49487,3.79056,21.2153,21.2153,0,0,1-8.97779,5.05826,7.87093,7.87093,0,0,1-5.30932-.54514,12.17155,12.17155,0,0,1-4.0586-3.272,21.77188,21.77188,0,0,1-2.75927-4.29321,28.35544,28.35544,0,0,1-1.8816-4.69443.08809.08809,0,0,1,.05957-.10935A.09189.09189,0,0,1,346.215,184.34907Z"/><path d="M460.44244,111.33047c-.96777.3-1.94523.58064-2.92269.85164l.75489.842a.36881.36881,0,0,1,.10656.23226c.03863.25163.06758.51294.10632.76457l.2807-.11613c.75489-.30969,1.50009-.59038,2.24529-.842C460.8102,112.49181,460.62626,111.91111,460.44244,111.33047Zm0,0c-.96777.3-1.94523.58064-2.92269.85164l.75489.842a.36881.36881,0,0,1,.10656.23226c.03863.25163.06758.51294.10632.76457l.2807-.11613c.75489-.30969,1.50009-.59038,2.24529-.842C460.8102,112.49181,460.62626,111.91111,460.44244,111.33047Zm0,0c-.96777.3-1.94523.58064-2.92269.85164l.75489.842a.36881.36881,0,0,1,.10656.23226c.03863.25163.06758.51294.10632.76457l.2807-.11613c.75489-.30969,1.50009-.59038,2.24529-.842C460.8102,112.49181,460.62626,111.91111,460.44244,111.33047Zm-2.90331,2.1678q-.479-.53711-.929-1.07421-.56616.15966-1.13221.29032c.15476.72582.29994,1.4904.49345,2.33236l1.684-.68714C457.61662,114.06928,457.57788,113.78859,457.53913,113.49827Zm2.90331-2.1678c-.96777.3-1.94523.58064-2.92269.85164l.75489.842a.36881.36881,0,0,1,.10656.23226c.03863.25163.06758.51294.10632.76457l.2807-.11613c.75489-.30969,1.50009-.59038,2.24529-.842C460.8102,112.49181,460.62626,111.91111,460.44244,111.33047Zm7.01635-21.79424-18.86186,13.15205c1.6936,1.65491,3.31939,3.36782,4.926,5.10017q1.75646,1.87262,3.46458,3.79365c1.2-.42582,2.40005-.83227,3.60977-1.2194a.42343.42343,0,0,1,.54189.28063l.00969.00969c.25163.84195.52263,1.68391.75489,2.53555v.01938a.39542.39542,0,0,1-.271.48388c-.96777.28064-1.95492.53227-2.913.75489-.058.00963-.116.029-.16445.03869.2807,2.1.5517,4.20979.77427,6.30989l.387,3.784c.09687,1.2581.22257,2.52587.30007,3.79365l19.49082.4742Zm-8.70026,13.32624a56.81825,56.81825,0,0,1-7.46148,1.09358,57.68431,57.68431,0,0,1,7.27766-1.95491,55.0397,55.0397,0,0,1,7.46148-1.10322A56.97893,56.97893,0,0,1,458.75853,102.86247Zm2.255,10.20029c-.20331-.57095-.38725-1.15165-.57107-1.73229-.96777.3-1.94523.58064-2.92269.85164l.75489.842a.36881.36881,0,0,1,.10656.23226c.03863.25163.06758.51294.10632.76457l.2807-.11613C459.52311,113.59508,460.26831,113.31439,461.01351,113.06276Zm-4.40341-.6387q-.56616.15966-1.13221.29032c.15476.72582.29994,1.4904.49345,2.33236l1.684-.68714c-.03875-.29032-.07749-.571-.11624-.86133Q457.06014,112.96117,456.6101,112.42406Zm3.83234-1.09359c-.96777.3-1.94523.58064-2.92269.85164l.75489.842a.36881.36881,0,0,1,.10656.23226c.03863.25163.06758.51294.10632.76457l.2807-.11613c.75489-.30969,1.50009-.59038,2.24529-.842C460.8102,112.49181,460.62626,111.91111,460.44244,111.33047Zm-2.90331,2.1678q-.479-.53711-.929-1.07421-.56616.15966-1.13221.29032c.15476.72582.29994,1.4904.49345,2.33236l1.684-.68714C457.61662,114.06928,457.57788,113.78859,457.53913,113.49827Zm2.90331-2.1678c-.96777.3-1.94523.58064-2.92269.85164l.75489.842a.36881.36881,0,0,1,.10656.23226c.03863.25163.06758.51294.10632.76457l.2807-.11613c.75489-.30969,1.50009-.59038,2.24529-.842C460.8102,112.49181,460.62626,111.91111,460.44244,111.33047Zm0,0c-.96777.3-1.94523.58064-2.92269.85164l.75489.842a.36881.36881,0,0,1,.10656.23226c.03863.25163.06758.51294.10632.76457l.2807-.11613c.75489-.30969,1.50009-.59038,2.24529-.842C460.8102,112.49181,460.62626,111.91111,460.44244,111.33047Zm-2.90331,2.1678q-.479-.53711-.929-1.07421-.56616.15966-1.13221.29032c.15476.72582.29994,1.4904.49345,2.33236l1.684-.68714C457.61662,114.06928,457.57788,113.78859,457.53913,113.49827Zm1.742,11.13906-.63876-3.74527c-.34838-2.071-.65814-4.15172-.93871-6.22277-.6.13551-1.17108.26132-1.73235.37745-.31932-.73552-.68708-1.56779-1.03546-2.43881a.24362.24362,0,0,1,.13538-.30969l.02906-.00969c.34851-.1355.69677-.27094,1.04527-.39676-1.055-1.20971-2.1001-2.42911-3.11619-3.66789-1.50978-1.81936-3.00019-3.64846-4.43247-5.53562,0,0-1.8968,20.449,11.41975,25.68463C459.736,127.1342,459.52311,125.88573,459.28116,124.63733Zm-1.742-11.13906q-.479-.53711-.929-1.07421-.56616.15966-1.13221.29032c.15476.72582.29994,1.4904.49345,2.33236l1.684-.68714C457.61662,114.06928,457.57788,113.78859,457.53913,113.49827Z"/><path d="M248.726,238.60542c.64721-.111,1.30395-.24387,1.94946-.39637a8.68049,8.68049,0,0,0,1.89038-.61911,8.886,8.886,0,0,1-1.72192,1.07276c-.60523.30929-1.21411.59665-1.84326.87072a.48756.48756,0,0,1-.38941-.894A.53256.53256,0,0,1,248.726,238.60542Z"/><path d="M189.28942,401.53582q-3.01794,6.53785-6.33056,12.91347l-.82129,1.59762a15.3563,15.3563,0,0,1-3.46143,4.44947,15.81684,15.81684,0,0,1-6.66382,3.40415c-4.61743,1.27868-9.24755,2.51588-13.91626,3.61186q-3.49878.83366-7.02954,1.54369c-1.18066.22147-2.3623.43706-3.54907.63a17.5525,17.5525,0,0,1-3.58887.34388,56.54177,56.54177,0,0,0,6.93189-1.81228l6.88306-2.03372c4.58691-1.364,9.18969-2.67147,13.79345-3.97824a16.19121,16.19121,0,0,0,3.22876-1.13466,14.1309,14.1309,0,0,0,2.82837-1.83754,13.64661,13.64661,0,0,0,2.324-2.46079,15.61719,15.61719,0,0,0,.93042-1.4357l.91113-1.54819Q185.37707,407.581,189.28942,401.53582Z"/><path d="M210.39636,420.6954a37.97,37.97,0,0,0-3.24463,3.9757,43.4715,43.4715,0,0,0-2.668,4.25986c-.38477.743-.80664,1.46967-1.13794,2.24243l-.54761,1.13845c-.15429.39179-.32373.77881-.49975,1.16527-.36377.76888-.62525,1.57793-.97119,2.36839-.32471.79783-.5896,1.61759-.96656,2.42731a22.52164,22.52164,0,0,1,.12818-2.63927,21.03844,21.03844,0,0,1,.508-2.59828,22.13176,22.13176,0,0,1,1.94312-4.95025,20.71939,20.71939,0,0,1,3.1626-4.2936A13.28993,13.28993,0,0,1,210.39636,420.6954Z"/><path d="M144.67789,429.98865s-23.1684-.871-22.62639,2.89363c0,0-4.12271,20.29414,56.12107,13.63586v12.04877l5.07111,1.89686h6.04858s9.59053-21.97812,12.44553-22.191C201.73779,438.27277,138.96813,435.88234,144.67789,429.98865ZM129.3678,435.7469a1.45245,1.45245,0,0,1,0-2.90331A1.45245,1.45245,0,0,1,129.3678,435.7469Zm7.66479,3.83234a1.45245,1.45245,0,0,1,0-2.90332A1.45245,1.45245,0,0,1,137.03259,439.57924Zm8.70994,2.78719a1.45245,1.45245,0,0,1,0-2.90332A1.45245,1.45245,0,0,1,145.74253,442.36643Z"/><path d="M459.6654,336.03008a7.4703,7.4703,0,0,1,4.39648,2.21863,24.97609,24.97609,0,0,1,2.70606,4.13283c1.62158,2.79794,3.14355,5.64882,4.63452,8.51669,1.46069,2.88316,2.89063,5.78377,4.197,8.74686q.98841,2.21877,1.87622,4.48594a22.95822,22.95822,0,0,1,1.42237,4.66448,39.82792,39.82792,0,0,0-2.20655-4.29944l-2.3247-4.24329c-1.55225-2.82823-3.04517-5.68728-4.53077-8.55123-1.45678-2.87867-2.91015-5.76011-4.28125-8.68544a33.47738,33.47738,0,0,0-2.16064-4.22518A8.10147,8.10147,0,0,0,459.6654,336.03008Z"/><path d="M462.48742,309.70513a6.73372,6.73372,0,0,0,1.58228.40317c.521.10225,1.05664.14923,1.57959.22285l3.17529.35987c1.06592.11305,2.13306.25795,3.21118.43156a21.31829,21.31829,0,0,1,3.26074.75578,16.19624,16.19624,0,0,1-6.675.56165,14.79367,14.79367,0,0,1-3.30738-.77,9.36454,9.36454,0,0,1-1.55957-.76138A3.60348,3.60348,0,0,1,462.48742,309.70513Z"/><path d="M500.54684,324.037l-1.24834-5.91307s-23.32328-4.80011-24.27167-7.55829c.24194,1.42265,10.54861,61.82125,3.67758,57.505,0,0,3.93866,22.84913,7.50979,21.54261,0,0,20.70065-.16451,1.73235-57.72755l11.78751-2.48718Zm-13.02617,58.75344a1.45245,1.45245,0,0,1,0-2.90332A1.45245,1.45245,0,0,1,487.52067,382.79041Zm1.39366-9.05833a1.45245,1.45245,0,0,1,0-2.90332A1.45245,1.45245,0,0,1,488.91433,373.73208Zm.34838-14.40045a1.45258,1.45258,0,0,1,0,2.90332A1.45258,1.45258,0,0,1,489.26271,359.33163Z"/><path d="M446.68029,176.7356c3.926-2.39938,7.90674-4.70016,11.8584-7.053l11.94751-6.892c7.96631-4.59256,15.99951-9.06408,24.03272-13.53515,8.05371-4.43439,16.10937-8.86566,24.23071-13.17771l12.18506-6.46255c4.093-2.09784,8.15649-4.24869,12.27539-6.29984-3.92529,2.40058-7.906,4.70142-11.85718,7.05527l-11.94727,6.89252c-7.96679,4.59137-15.99975,9.06348-24.03417,13.53247-8.05494,4.43231-16.11011,8.86417-24.23218,13.175l-12.18482,6.46307C454.86193,172.53242,450.79846,174.68333,446.68029,176.7356Z"/><path d="M423.371,226.9528c3.37011-1.957,6.792-3.81372,10.18652-5.72339l10.27075-5.55976c6.84839-3.70434,13.75977-7.28567,20.67163-10.86651,6.93091-3.54361,13.86353-7.084,20.8584-10.50327l10.49536-5.12326c3.52783-1.65048,7.02808-3.35486,10.58033-4.95785-3.36963,1.95813-6.79126,3.81494-10.18531,5.72561l-10.27051,5.56025c-6.84887,3.70309-13.76,7.285-20.67309,10.86377-6.93189,3.5415-13.86426,7.08251-20.85986,10.50051l-10.49488,5.12375C430.42272,223.64417,426.92272,225.34858,423.371,226.9528Z"/><path d="M494.94519,236.88654c3.37011-1.957,6.792-3.81372,10.18652-5.72339l10.27075-5.55975c6.84839-3.70434,13.75977-7.28567,20.67163-10.86652,6.93091-3.5436,13.86353-7.084,20.8584-10.50323l10.49536-5.12329c3.52783-1.65048,7.02808-3.35486,10.58032-4.95786-3.36963,1.95813-6.79126,3.815-10.1853,5.72562l-10.27051,5.56024c-6.84887,3.7031-13.76,7.285-20.67309,10.86377-6.93189,3.54151-13.86426,7.08252-20.85987,10.50052l-10.49487,5.12375C501.99694,233.57792,498.49694,235.28236,494.94519,236.88654Z"/><path d="M299.0885,226.15433a9.65153,9.65153,0,0,1,1.94018,1.93671,12.82882,12.82882,0,0,1,1.439,2.35162,10.57059,10.57059,0,0,1,.80615,2.66007,6.6202,6.6202,0,0,1-.16065,2.75775,19.57592,19.57592,0,0,0-.57617-2.5921,23.62773,23.62773,0,0,0-.948-2.4216C300.85827,229.26307,299.97839,227.75129,299.0885,226.15433Z"/><path d="M276.70544,154.58457a23.25518,23.25518,0,0,0-.42651,4.516,31.84074,31.84074,0,0,0,.49194,4.44947c.28711,1.4696.55957,2.95434.90356,4.44668a18.1174,18.1174,0,0,0,1.54517,4.31085.27981.27981,0,0,1,.03223.14582,17.09839,17.09839,0,0,1-.53247,3.4675,5.26816,5.26816,0,0,1-2.155,3.06689,4.40028,4.40028,0,0,1-3.94239.1626,6.69881,6.69881,0,0,1-3.01489-2.44235,5.35115,5.35115,0,0,1-.88257-3.89222l.08692-.71a4.75886,4.75886,0,0,0-.04346-.58072,1.592,1.592,0,0,0-.646-.87021,6.49508,6.49508,0,0,0-2.92968-.7431,24.695,24.695,0,0,0-3.37452.03531.08881.08881,0,0,1-.09668-.08035.09177.09177,0,0,1,.0564-.09113,14.29354,14.29354,0,0,1,3.38306-.87424,6.79508,6.79508,0,0,1,3.71728.42276,3.16138,3.16138,0,0,1,1.50757,1.6752,4.42581,4.42581,0,0,1,.19824,1.09943l-.064.99033a4.04751,4.04751,0,0,0,.65942,2.60248c.95362,1.63089,3.072,2.81744,4.75855,2.09045a4.11581,4.11581,0,0,0,2.00927-2.1514,9.275,9.275,0,0,0,.772-3.21258l.032.14544c-.71216-1.40216-1.41577-2.7854-2.07422-4.22281a18.11837,18.11837,0,0,1-1.4646-4.51437,18.4631,18.4631,0,0,1-.16333-4.78757,11.67511,11.67511,0,0,1,1.49365-4.52093.08925.08925,0,0,1,.12232-.03055A.09561.09561,0,0,1,276.70544,154.58457Z"/><path d="M261.81213,169.94816l-.15723.04587a.11562.11562,0,0,1-.05615.002,14.105,14.105,0,0,1-3.85352-1.364,11.78623,11.78623,0,0,1-3.30224-2.50785,13.38758,13.38758,0,0,1-2.3711-3.44708,14.0445,14.0445,0,0,1-1.27832-4.04269.66538.66538,0,0,1,.81665-.74506l.09058.023a1.23275,1.23275,0,0,0,.531.04987.52484.52484,0,0,0,.29931-.23264,3.04619,3.04619,0,0,0,.37622-1.34879,5.99249,5.99249,0,0,0-.4458-3.13678c-.1145-.22717-.26172-.42895-.38427-.64834-.15894-.14484-.291-.36789-.45606-.43582a1.0575,1.0575,0,0,0-1.02661-.12088,6.06549,6.06549,0,0,0-2.38525,1.969l-.03516.0444a.69194.69194,0,0,1-.28711.21219,10.04537,10.04537,0,0,1-5.39966.28073,23.73046,23.73046,0,0,1-4.98169-1.50756c-1.59033-.66028-3.13525-1.40458-4.64428-2.20786-1.50611-.81268-2.99024-1.64716-4.43409-2.57858l-.02539-.01645a.2118.2118,0,0,1-.09472-.20673.88757.88757,0,0,1,.12109-.3562,2.23408,2.23408,0,0,1,.145-.23593c.09863-.15222.21-.28241.31787-.41925.22217-.26267.45508-.51019.69458-.74814.48023-.47488.98-.92218,1.48389-1.36316,1.01123-.87832,2.06665-1.69443,3.11548-2.52014q1.58532-1.22081,3.21-2.38708a35.05975,35.05975,0,0,1,3.39233-2.23194,11.77634,11.77634,0,0,1,8.18652-1.26861,12.78013,12.78013,0,0,1,6.90039,4.74624,9.38819,9.38819,0,0,0,5.97339,3.83847,11.47841,11.47841,0,0,0,3.6377.02054,17.86482,17.86482,0,0,0,1.81445-.41965l1.83911-.62115a17.85122,17.85122,0,0,1,15.96509,1.75732.56585.56585,0,0,1-.14014,1.00666l-.03344.011a5.45709,5.45709,0,0,0-1.09278.642c-.39184.27225-.77954.56479-1.1643.86191-.771.594-1.52124,1.22217-2.28125,1.84l-1.13037.93915a10.03989,10.03989,0,0,0-.99024,1.02588,11.73526,11.73526,0,0,0-1.56616,2.43869.08825.08825,0,0,1-.16309-.06671,10.67645,10.67645,0,0,1,1.35059-2.66165,10.46152,10.46152,0,0,1,.95483-1.18357l1.04834-1.04437c.70288-.69272,1.43042-1.35913,2.17041-2.02.37232-.3287.74854-.65381,1.14356-.96918a5.62893,5.62893,0,0,1,1.40429-.90313l-.17358,1.01745a16.66912,16.66912,0,0,0-7.23169-2.1745,17.436,17.436,0,0,0-7.44287,1.176l-1.92456.689a19.56663,19.56663,0,0,1-2.05469.51368,12.92909,12.92909,0,0,1-4.2915-.03077,10.90612,10.90612,0,0,1-7.029-4.65353,11.31484,11.31484,0,0,0-5.8794-4.27628,10.76771,10.76771,0,0,0-7.27148.83673,33.58572,33.58572,0,0,0-3.3833,1.95221q-1.67139,1.07446-3.3064,2.201c-1.08691.75342-2.158,1.53287-3.17578,2.37033-.51148.41538-1.0083.84781-1.4751,1.30442-.23413.22781-.4585.46228-.668.70462-.09863.12323-.20483.24481-.2876.3713-.08593.09833-.17236.31427-.17871.29111l-.11987-.22287a41.95744,41.95744,0,0,0,9.09473,4.3981,23.05515,23.05515,0,0,0,4.84521,1.13864,9.36806,9.36806,0,0,0,4.65283-.45941l-.322.25635a6.9079,6.9079,0,0,1,3.10962-2.59326,2.6652,2.6652,0,0,1,2.41333.3045,3.717,3.717,0,0,1,.83277.81989c.178.30343.37524.60071.52514.91583a7.51054,7.51054,0,0,1,.52515,3.95136,4.18616,4.18616,0,0,1-.71265,2.06005,1.952,1.952,0,0,1-1.1709.74894,2.57334,2.57334,0,0,1-1.25219-.12409l.907-.72192a14.34031,14.34031,0,0,0,.99975,3.678,13.533,13.533,0,0,0,1.99634,3.31125,12.3206,12.3206,0,0,0,2.897,2.60574,15.96922,15.96922,0,0,0,3.58594,1.70825l-.05566.002.19092-.03153a.08779.08779,0,0,1,.03906.17087Z"/><path d="M275.70462,158.57709q-.05813.66778-.05812,1.33553A6.628,6.628,0,0,1,275.70462,158.57709Z" fill="none" stroke="#000" stroke-linecap="round" stroke-linejoin="round" stroke-width="0.96777"/><path d="M282.57566,147.80578s.13562.09676.40651.3l-5.82589,5.90338A19.05882,19.05882,0,0,1,282.57566,147.80578Z" fill="none" stroke="#000" stroke-linecap="round" stroke-linejoin="round" stroke-width="0.96777"/><path d="M323.81237,209.95463q11.38806,10.55374,22.647,21.235c7.5603,7.06562,15.00146,14.25434,22.53149,21.3508,3.77148,3.54135,7.48022,7.14838,11.21338,10.72986l5.59619,5.37631,5.55469,5.41977c7.42749,7.20392,14.77954,14.48915,22.292,21.6039l-.31494-.086a28.56468,28.56468,0,0,0,6.50146-2.61063,26.55051,26.55051,0,0,0,5.69141-4.11015,22.994,22.994,0,0,0,4.34253-5.48645,11.49429,11.49429,0,0,0,.81152-1.55288l.75147-1.59655.77124-1.63175c.24707-.55.59546-1.04172.88867-1.56547a49.90765,49.90765,0,0,1,9.22266-10.94048,87.65486,87.65486,0,0,1,11.31835-8.7933l.34058,1.267-1.31665-.14221c-.43677-.05475-.82959-.18738-1.24683-.27823a22.94531,22.94531,0,0,1-2.39721-.73941c-1.55908-.56451-3.08057-1.19714-4.57349-1.87875-2.98926-1.35742-5.91186-2.83121-8.79126-4.37537-5.762-3.08453-11.39233-6.38433-16.98242-9.74359-11.186-6.71011-22.123-13.80649-32.98926-20.99951-10.88867-7.16055-21.5852-14.60388-32.29-22.02805l-15.946-11.296c-5.29663-3.79151-10.55615-7.63544-15.82056-11.47071a.09675.09675,0,0,1,.11084-.15857l32.481,21.71869c10.79663,7.28009,21.69531,14.40479,32.55127,21.5867q8.15844,5.36188,16.38745,10.61008c5.48926,3.49255,10.96265,7.00925,16.50683,10.40784,5.53882,3.40573,11.12745,6.73,16.80787,9.86758,2.83374,1.58017,5.70581,3.08679,8.62353,4.46957,1.45752.69477,2.93555,1.33674,4.42822,1.90506.75025.25516,1.49781.56821,2.25269.74274.375.09091.75757.23056,1.1272.28323l1.10742.15207.07593.01041a.68206.68206,0,0,1,.26464,1.25668,85.54058,85.54058,0,0,0-11.34692,8.38416,48.72766,48.72766,0,0,0-9.28857,10.55389c-.28955.50849-.63648.98833-.8794,1.52039l-.7622,1.57989-.77662,1.61769a11.94817,11.94817,0,0,1-.84765,1.59076,23.62316,23.62316,0,0,1-4.50073,5.59592,30.493,30.493,0,0,1-12.45557,6.9557.31928.31928,0,0,1-.30322-.07493l-.012-.0112c-7.53906-7.08911-15.20605-14.04221-22.77929-21.09551l-5.69068-5.27862-5.64087-5.33109c-3.7583-3.55636-7.52783-7.10153-11.2351-10.71142-7.425-7.20871-14.9043-14.36151-22.242-21.661q-11.0515-10.90211-21.90527-22.00544a.09678.09678,0,0,1,.13525-.13839Z"/><path d="M414.46944,292.67152a1.45253,1.45253,0,0,0,0-2.90332,1.45253,1.45253,0,0,0,0,2.90332Z"/><path d="M420.04381,290.1166a1.45252,1.45252,0,0,0,0-2.90331,1.45252,1.45252,0,0,0,0,2.90331Z"/><path d="M424.92138,286.16809a1.45252,1.45252,0,0,0,0-2.90331,1.45252,1.45252,0,0,0,0,2.90331Z"/><path d="M428.86988,279.89693a1.45252,1.45252,0,0,0,0-2.90331,1.45252,1.45252,0,0,0,0,2.90331Z"/><path d="M431.88933,273.62577a1.45252,1.45252,0,0,0,0-2.90331,1.45252,1.45252,0,0,0,0,2.90331Z"/><path d="M436.7669,268.28367a1.45252,1.45252,0,0,0,0-2.90331,1.45252,1.45252,0,0,0,0,2.90331Z"/><path d="M442.109,264.1029a1.45252,1.45252,0,0,0,0-2.90331,1.45252,1.45252,0,0,0,0,2.90331Z"/><path d="M447.21883,260.61892a1.45252,1.45252,0,0,0,0-2.90331,1.45252,1.45252,0,0,0,0,2.90331Z"/></svg>