<svg id="Layer_1" data-name="Layer 1" xmlns="http://www.w3.org/2000/svg" viewBox="0 0 700 550"><title>having coffee</title><path d="M393.68518,315.48185a95.62177,95.62177,0,0,0,1.73235-20.20707,310.73836,310.73836,0,0,0-2.88394-37.44309c.30007,3.9679.45483,6.3002.45483,6.3002-42.45614,3.68721-51.58228-20.85546-57.1856-51.108a61.8965,61.8965,0,0,0-6.939,2.48719,24.98764,24.98764,0,0,0-3.813,3.86139c4.82918,5.96151,8.4002,11.03262,8.4002,11.03262l5.89526,9.53487a20.74844,20.74844,0,0,1,1.231,2.29855c.91089,1.99665,2.78626,6.24169,4.85479,11.85761,2.913,7.91637-1.36459,4.90661-1.36459,4.90661,2.06148,9.8326-.56126,9.73578-.56126,9.73578-2.59368,1.83879-4.57754-7.27766-4.80011-8.32281.74508,5.18724,1.43228,11.18744-1.56779,10.19061-2.7775-.9194-3.16463-6.997-3.21306-7.98412,0,.97746-.116,7.06472-2.94207,7.90674-3.07745.91933-2.47743-6.6099-2.47743-6.6099-.871,6.17439-2.47744,6.7744-3.784,5.52594-1.64517-1.56779-.75489-13.9165-.75489-13.9165-3.92909-3.82271-4.5-7.88737-4.89687-11.6907-.27088-2.63237.55-5.0618.8693-6.81347-.61927-.35813-2.72746-1.27709-3.3661-1.67391l-.745,1.79469a128.2435,128.2435,0,0,0-9.07,34.7198c-.709,6.26446-1.16932,13.16877-1.295,20.76792,0,0,2.26455,25.16206,2.17748,33.07842-.1355,11.13907-2.41943,17.29408-5.439,32.643-1.316,6.726-7.85818,42.39807-4.34528,64.02775,0,0,7.97443,3.18394,27.62992.54194a391.21855,391.21855,0,0,1,40.91742-3.47432,67.08985,67.08985,0,0,0,28.13318-6.96791S387.72379,345.74409,393.68518,315.48185ZM301.9405,420.46576a1.45258,1.45258,0,0,1,0-2.90332A1.45258,1.45258,0,0,1,301.9405,420.46576Zm8.36157.69676a1.45257,1.45257,0,0,1,0-2.90331A1.45257,1.45257,0,0,1,310.30207,421.16252Zm8.82595-.929a1.45258,1.45258,0,0,1,0-2.90331A1.45258,1.45258,0,0,1,319.128,420.2335Zm10.452-1.39359a1.45258,1.45258,0,0,1,0-2.90332A1.45258,1.45258,0,0,1,329.58,418.83991Zm10.21972-1.3936a1.45257,1.45257,0,0,1,0-2.90331A1.45257,1.45257,0,0,1,339.79972,417.44631Zm8.82608-.92908a1.45257,1.45257,0,0,1,0-2.90331A1.45257,1.45257,0,0,1,348.6258,416.51723Zm9.75509,0a1.45258,1.45258,0,0,1,0-2.90331A1.45258,1.45258,0,0,1,358.38089,416.51723Zm9.2907,0a1.45257,1.45257,0,0,1,0-2.90331A1.45257,1.45257,0,0,1,367.67159,416.51723Zm9.29047-1.39359a1.45258,1.45258,0,0,1,0-2.90332A1.45258,1.45258,0,0,1,376.96206,415.12364Zm8.36168-1.62585a1.45258,1.45258,0,0,1,0-2.90332A1.45258,1.45258,0,0,1,385.32374,413.49779Zm7.20016-5.92276a1.45245,1.45245,0,0,1,0,2.90332A1.45245,1.45245,0,0,1,392.5239,407.575Z" fill="#020202"/><path d="M378.22085,167.01872l-12.26343-9.94054c-4.09839-3.29664-8.17138-6.62092-12.31421-9.85209-4.14477-3.22637-8.30639-6.43186-12.54345-9.4941-2.12256-1.51842-4.27662-3.007-6.47-4.32721a18.17646,18.17646,0,0,0-3.26075-1.63539,3.22714,3.22714,0,0,0-.69238-.143c-.30176-.02651-.60767-.04466-.9187-.05243-.61914-.02252-1.251-.0136-1.884.00778a52.35242,52.35242,0,0,0-7.625.92127,30.95406,30.95406,0,0,0-7.21436,2.13855,6.79344,6.79344,0,0,0-1.36645.84887,1.28794,1.28794,0,0,0-.3025.35044c-.04589.07757-.01245-.00768-.02294.02911.01489.01753.0017.04909.06591.11249a.729.729,0,0,1,.05713.08954l.15845.19421.63647.78018,1.272,1.56026c.41967.523.856,1.03343,1.26123,1.5667l1.12744,1.66392L317.04653,143.5l.56055.83166.49927.86946c5.52978,9.18505,8.78369,19.41757,11.14868,29.677,2.42847,10.27547,3.969,20.70668,5.85327,31.0523,1.91968,10.31762,3.94971,20.70425,7.89331,30.32553a49.80523,49.80523,0,0,0,7.73413,13.26587,35.04789,35.04789,0,0,0,5.45947,5.28045,36.673,36.673,0,0,0,6.45948,3.96057,44.62186,44.62186,0,0,0,7.17724,2.54178,52.99479,52.99479,0,0,0,7.55933,1.29569,83.36936,83.36936,0,0,0,15.4624-.01178l-1.41162,1.64593-.459-6.28543-.0044-.117a.86167.86167,0,0,0,.03662.27966l-.042-.26047q-.80089-11.19048-1.75879-22.37213-.91186-11.18412-2.05932-22.34509c-.80176-7.435-1.5774-14.87479-2.63184-22.27538a175.60429,175.60429,0,0,0-4.17676-22.00605l-.00146-.00544a.14515.14515,0,0,1,.27685-.08685,97.75867,97.75867,0,0,1,3.09912,10.82993l.64356,2.74372.57324,2.7566c.39307,1.83683.73853,3.68211,1.06128,5.53013,1.31616,7.38959,2.50244,14.80344,3.44263,22.24539q1.43554,11.15973,2.60644,22.34787c.76758,7.45972,1.42749,14.92875,2.02515,22.40455l-.042-.26a2.42539,2.42539,0,0,1,.0559.4728l-.00439-.1166.45068,6.31457a1.54133,1.54133,0,0,1-1.40161,1.64527l-.01025.00085a78.48067,78.48067,0,0,1-16.05567-.10834,55.91046,55.91046,0,0,1-7.96386-1.47873,47.40151,47.40151,0,0,1-7.6438-2.826,36.66834,36.66834,0,0,1-12.668-10.145,51.44338,51.44338,0,0,1-7.76978-14.0831,107.85289,107.85289,0,0,1-4.25048-15.33753c-1.0857-5.175-1.91919-10.38278-2.7251-15.58609-1.648-10.39459-3.17066-20.81845-5.79077-30.98723a111.02366,111.02366,0,0,0-4.84449-14.92614c-.24511-.60474-.468-1.21872-.731-1.81528l-.81543-1.77713c-.56079-1.17548-1.041-2.39-1.68726-3.52027l-1.83764-3.43673L316.279,146.349l-.51392-.82387-.57275-.78325-1.14673-1.56384-1.14453-1.56264-1.24854-1.47787-1.25171-1.47357-.62524-.73673-.157-.18515-.23779-.30581a2.63742,2.63742,0,0,1-.40552-.74682,2.48616,2.48616,0,0,1,.085-1.87973,3.64447,3.64447,0,0,1,.89111-1.199,8.45035,8.45035,0,0,1,1.94238-1.277,33.19761,33.19761,0,0,1,7.86231-2.39138,51.36449,51.36449,0,0,1,8.03759-.9086c.68164-.01649,1.366-.01982,2.06128.01178q.51966.01839,1.0503.07045a6.09817,6.09817,0,0,1,1.23217.26256,20.07377,20.07377,0,0,1,3.77295,1.91026c2.304,1.41356,4.43677,2.98647,6.56519,4.56612,4.24487,3.1674,8.325,6.5112,12.35058,9.91579q12.10254,10.17771,23.58619,21.0298a.14525.14525,0,0,1-.19141.21826Z" fill="#020202"/><path d="M345.195,124.3303a8.35166,8.35166,0,0,1-2.27685-1.75468,11.58541,11.58541,0,0,1-1.72046-2.32472,11.3536,11.3536,0,0,1-1.09644-2.6774,9.38659,9.38659,0,0,1-.343-2.8524c.37134.89062.66992,1.76373,1.05567,2.60243a24.8,24.8,0,0,0,1.22583,2.45152,25.57914,25.57914,0,0,0,1.45971,2.323C344.02847,122.85293,344.58682,123.59027,345.195,124.3303Z" fill="#020202"/><path d="M348.40713,126.27192a10.93263,10.93263,0,0,0,5.3186,1.25536,6.1352,6.1352,0,0,0,4.53272-2.23407,12.71468,12.71468,0,0,0,2.31958-4.77727,30.68568,30.68568,0,0,0,.97168-5.42673c.19726-1.852.30151-3.69976.32983-5.57455.05835-1.87328.05249-3.752-.04248-5.625a38.9798,38.9798,0,0,0-.62866-5.58154,14.4763,14.4763,0,0,0-1.969-5.16645l.44873.03965c-2.64355,2.55958-5.314,5.07777-8.17334,7.41816-2.89135,2.31659-5.82153,4.56182-9.635,5.81832a6.67563,6.67563,0,0,1-3.14258-.00042,6.06612,6.06612,0,0,1-1.50244-.59118l-.56446-.336a.831.831,0,0,0-.31128-.10132c-.071-.00737-.0664.00515-.09448.0213a.62442.62442,0,0,0-.1543.18191,3.25155,3.25155,0,0,0-.35937.94892,13.06511,13.06511,0,0,0-.26318,2.52261c-.02564,1.7827-.11817,3.62752.51586,4.89839a1.68575,1.68575,0,0,0,.23975.39105.91785.91785,0,0,0,.26148.25991c.08081.09234.19824.07005.28564.14415.1272-.004.24121.02269.38061.02382a5.10251,5.10251,0,0,0,2.0376-.86319l.08521-.04973a.94763.94763,0,0,1,1.29638.34027.97915.97915,0,0,1,.10206.25114,34.54611,34.54611,0,0,1,.7019,3.84092,29.08406,29.08406,0,0,1,.25317,3.89627,13.35427,13.35427,0,0,1-.54077,3.9494,5.39648,5.39648,0,0,1-2.48852,3.30937l.23755-.60182q.57384,1.80192,1.10278,3.62475c.35986,1.21329.72388,2.42723,1.06274,3.65387l.00147.00536a.09675.09675,0,0,1-.18164.06515c-.51636-1.15985-1.00757-2.33236-1.50293-3.50553q-.75183-1.75683-1.46265-3.53466a.468.468,0,0,1,.18726-.57089l.05-.03123a4.24076,4.24076,0,0,0,1.7041-2.77153,14.1363,14.1363,0,0,0,.25854-3.56849,27.472,27.472,0,0,0-.42334-3.65365,36.70068,36.70068,0,0,0-.83179-3.58483l1.4834.54162a6.80859,6.80859,0,0,1-2.97192,1.25756,5.75691,5.75691,0,0,1-.98608-.05113,3.45076,3.45076,0,0,1-.95923-.41319,2.89169,2.89169,0,0,1-.73731-.66855,3.68219,3.68219,0,0,1-.49707-.76137,7.98587,7.98587,0,0,1-.72-3.05829c-.01367-.24655-.022-.5141-.01807-.75491l-.00292-.68883c-.00831-.45433.00317-.92857.02514-1.40666a14.89416,14.89416,0,0,1,.39844-2.92074,4.99648,4.99648,0,0,1,.68652-1.57422,2.40654,2.40654,0,0,1,.8252-.75753,2.00742,2.00742,0,0,1,1.22851-.22375,2.7099,2.7099,0,0,1,.98243.33069c.13134.07167.26513.16288.37182.23l.23413.151a4.22519,4.22519,0,0,0,1.03369.4404,4.893,4.893,0,0,0,2.29761.06151,21.4823,21.4823,0,0,0,4.78443-2.07506c1.56152-.88738,3.09008-1.86424,4.57934-2.90566a69.10459,69.10459,0,0,0,8.41431-6.96914l.00537-.00545a.28973.28973,0,0,1,.40967.00369l.03369.04143a17.58947,17.58947,0,0,1,2.196,5.33791,47.787,47.787,0,0,1,1.07056,5.64218,48.45092,48.45092,0,0,1,.29175,11.48651,30.48887,30.48887,0,0,1-1.14258,5.71632,13.38447,13.38447,0,0,1-2.87817,5.21863,7.42133,7.42133,0,0,1-2.53443,1.74626,7.237,7.237,0,0,1-3.00024.48671,10.61191,10.61191,0,0,1-5.42359-2.00624.09675.09675,0,0,1,.09912-.16534Z" fill="#020202"/><path d="M356.41958,148.28434c-.27148-1.7464-.43359-3.45391-.56177-5.16513-.12939-1.70982-.2417-3.41719-.293-5.12779q-.08936-2.56563-.032-5.14569a43.31518,43.31518,0,0,1,.37451-5.19675v-.0003l.00122-.00517.00122.00517v.00007a29.70277,29.70277,0,0,1,1.13135,5.10564,46.50792,46.50792,0,0,1,.45752,5.17287,43.242,43.242,0,0,1-.13647,5.20083A24.645,24.645,0,0,1,356.41958,148.28434Z" fill="#020202"/><path d="M380.47464,168.80639c.9.72583,2.70012,10.4326,2.70012,10.4326a39.81836,39.81836,0,0,0,10.82931-5.46793l3.08713-4.96467Zm5.02268,7.60673a1.45258,1.45258,0,0,1,0-2.90332A1.45258,1.45258,0,0,1,385.49732,176.41312Zm5.22587-2.78719a1.45258,1.45258,0,0,1,0-2.90331A1.45258,1.45258,0,0,1,390.72319,173.62593Z" fill="#020202"/><path d="M338.93308,128.606c-2.60776.38985-5.98294.76479-8.30622,1.28108,0,0,8.71047,4.66252,9.14571,5.79481l1.30623,1.50231Z" fill="#020202"/><path d="M378.31653,167.90637v-.70646C378.781,167.95474,378.31653,167.90637,378.31653,167.90637Z" fill="#020202"/><path d="M378.31653,162.88363v4.31628c-.87114-1.442-5.04205-5.79694-21.9008-18.91992-4.99361-3.88077-.32889-18.39735-.32889-18.39735s14.807-.08712,20.49734,5.03243c5.69038,5.12917,6.16482,9.01,6.16482,9.01-3.881.38707-4.42278,2.27424-4.42278,2.27424l-.00969,16.68437a17.76,17.76,0,0,0-.80333-3.87109,29.60262,29.60262,0,0,0-3.3097-7.055,17.72237,17.72237,0,0,0-2.45818-3.09688,23.666,23.666,0,0,0,1.11284,3.77433c.44514,1.20972.93895,2.40006,1.48072,3.56139.542,1.16134,1.14191,2.30331,1.79048,3.42589A23.96933,23.96933,0,0,0,378.31653,162.88363Z" fill="#020202"/><path d="M380.47427,168.80928a27.11083,27.11083,0,0,1,2.38672,6.20353,21.46361,21.46361,0,0,1,.57592,3.33446,10.48082,10.48082,0,0,1,.02588,1.72533,12.38718,12.38718,0,0,1-.12964,1.73741,10.307,10.307,0,0,1-1.1123,3.38957,7.17189,7.17189,0,0,1-2.46436,2.659,7.42351,7.42351,0,0,1-3.32788,1.143,8.35979,8.35979,0,0,1-3.3562-.31532,10.11873,10.11873,0,0,0,5.7981-2.0509,6.39928,6.39928,0,0,0,1.72656-2.28531,9.07779,9.07779,0,0,0,.82373-2.83133,23.4672,23.4672,0,0,0-.04-6.23546C381.1332,173.15423,380.75967,171.01075,380.47427,168.80928Z" fill="#020202"/><path d="M330.97085,190.58329a29.26851,29.26851,0,0,0,4.5647,1.18587,16.88619,16.88619,0,0,0,4.47143.1456,15.15585,15.15585,0,0,0,4.32227-1.05856,21.51373,21.51373,0,0,0,2.10766-.95113c.70874-.3441,1.3584-.79462,2.123-1.14545a14.43479,14.43479,0,0,1-1.56494,1.91459,11.34383,11.34383,0,0,1-1.98633,1.53094,10.84083,10.84083,0,0,1-4.81421,1.63545,11.55189,11.55189,0,0,1-5.0376-.61526A10.51641,10.51641,0,0,1,330.97085,190.58329Z" fill="#020202"/><path d="M321.79678,204.55935a28.45985,28.45985,0,0,1,2.24023,2.43305c.707.83651,1.373,1.6997,2.01221,2.58011a59.71025,59.71025,0,0,1,3.57373,5.45126l-.8169-.40976c1.22339-.0278,2.449-.021,3.678.03625a30.94763,30.94763,0,0,1,3.70044.36646,30.94578,30.94578,0,0,1-3.61718.86169c-1.21021.22229-2.42383.3942-3.63965.53147a.8301.8301,0,0,1-.76783-.34091l-.04907-.069a59.71331,59.71331,0,0,1-3.49634-5.50129c-.53906-.945-1.05151-1.90725-1.5227-2.89614A28.55524,28.55524,0,0,1,321.79678,204.55935Z" fill="#020202"/><path d="M388.5314,198.26434a55.92373,55.92373,0,0,1,.63842-10.0172,60.09259,60.09259,0,0,1,2.26685-9.82574,34.14668,34.14668,0,0,1,4.43823-9.15228,17.19542,17.19542,0,0,1,3.54492-3.7286,9.863,9.863,0,0,1,4.66333-1.98314c-3.16186,1.21991-5.30053,3.80249-6.94628,6.54178a33.483,33.483,0,0,0-2.15943,4.34424c-.63086,1.49715-1.21631,3.02039-1.70337,4.58289-1.03955,3.10258-1.853,6.29307-2.62622,9.50284C389.892,191.74548,389.21377,194.98822,388.5314,198.26434Z" fill="#020202"/><path d="M388.7875,217.23465A10.858,10.858,0,0,0,393.258,219.753a9.28441,9.28441,0,0,0,5.02612-.07611,8.74639,8.74639,0,0,0,4.22046-2.55561,13.15694,13.15694,0,0,0,2.56323-4.27688,27.16985,27.16985,0,0,0,1.4607-10.02066,25.63931,25.63931,0,0,0-.62476-5.02,46.64365,46.64365,0,0,1-.91162-5.23488c-.42529-3.49608-.66431-6.9894-.82275-10.48425l-.10376-2.62972a24.30225,24.30225,0,0,1,.07617-2.71609,23.81426,23.81426,0,0,1,1.06518-5.3288,23.06508,23.06508,0,0,1,2.29859-4.93423,18.68118,18.68118,0,0,1,1.61352-2.24152c.15186-.17615.3396-.3736.49732-.52769a3.09239,3.09239,0,0,0,.33105-.38106,2.88442,2.88442,0,0,0,.4458-.88083,3.21635,3.21635,0,0,0,.0022-1.946,3.92368,3.92368,0,0,0-.53833-.89454c-.03271-.04615-.03662-.03732-.154-.21074a1.4491,1.4491,0,0,1-.17481-.42425,1.692,1.692,0,0,1-.00781-.70078,2.9841,2.9841,0,0,1,.335-.87469,5.8219,5.8219,0,0,0,.55518-.9941,1.05612,1.05612,0,0,0,.01587-.718,2.06251,2.06251,0,0,0-.20093-.41443c-.09448-.16722-.21338-.308-.38428-.64982a3.165,3.165,0,0,1-.19116-1.80342.48744.48744,0,0,1,.01709-.07644l.00415-.01306a1.97273,1.97273,0,0,0-.50073-2.0198,3.93141,3.93141,0,0,1-1.00122-1.60784c-.06226-.21206-.05835-.23234-.09009-.30931a1.26521,1.26521,0,0,0-.10083-.20651,1.21418,1.21418,0,0,0-.30811-.33971c-.08716-.073-.353-.20395-.57251-.32814l-.6748-.36926-1.34961-.73854-1.34961-.73854-.66138-.35953a1.93383,1.93383,0,0,0-2.12524.21654l-.58374.48711-2.3689,1.96344-.59253.49054a5.74862,5.74862,0,0,0-.519.45379,1.88705,1.88705,0,0,0-.4895,1.05649,1.72362,1.72362,0,0,0,1.24023,1.82155.47806.47806,0,0,1,.30664.60269.52069.52069,0,0,1-.05517.11465,2.0731,2.0731,0,0,0-.26661.66062,1.5035,1.5035,0,0,0,.0127.702,1.56972,1.56972,0,0,0,.33691.63258,2.88089,2.88089,0,0,0,.59668.518l.01856.013a.3789.3789,0,0,1,.09253.528l-.00318.00445a4.4665,4.4665,0,0,0-.5747,1.13759,4.51318,4.51318,0,0,0-.25025,1.28246,4.958,4.958,0,0,0,.58618,2.55907l.0022.00448a.22415.22415,0,0,1-.031.2509,3.76621,3.76621,0,0,0-1.0564,2.77583,2.57032,2.57032,0,0,0,.61255,1.39814,4.68448,4.68448,0,0,0,.55444.56454c.21.16159.43213.30974.64942.46646-.2273-.1392-.46167-.27105-.68628-.41847a4.77984,4.77984,0,0,1-.60889-.53288,2.75373,2.75373,0,0,1-.76074-1.44182,3.14855,3.14855,0,0,1,.15552-1.65059,4.9758,4.9758,0,0,1,.8164-1.4561l-.02856.255a6.01983,6.01983,0,0,1-.58521-1.33287,4.96552,4.96552,0,0,1-.21484-1.45647,5.14709,5.14709,0,0,1,.20166-1.46812,5.094,5.094,0,0,1,.6123-1.3838l.10791.54515a3.65908,3.65908,0,0,1-.80517-.62554,2.37158,2.37158,0,0,1-.64429-2.02264,2.93392,2.93392,0,0,1,.35913-1.03368l.25122.71712a2.891,2.891,0,0,1-1.50073-1.02638,2.66607,2.66607,0,0,1-.52246-1.79813,3.00193,3.00193,0,0,1,.708-1.72023,6.43233,6.43233,0,0,1,.60986-.5881l.572-.51407,2.28906-2.055.58228-.51565a3.294,3.294,0,0,1,.81274-.5197,3.35742,3.35742,0,0,1,2.82984.04486l.70092.35457,1.36988.69844,1.37011.69841.68482.34921a7.14251,7.14251,0,0,1,.76855.42229,2.82886,2.82886,0,0,1,.74561.76732,2.78484,2.78484,0,0,1,.25122.47592,4.21423,4.21423,0,0,1,.13794.42435,2.29057,2.29057,0,0,0,.64648.952,3.90761,3.90761,0,0,1,.9729,1.67665,3.6677,3.6677,0,0,1-.03027,1.97751l.02124-.08909a1.53789,1.53789,0,0,0,.08008.76109,6.46941,6.46941,0,0,1,.67285,1.2195,2.86186,2.86186,0,0,1,.01856,1.84582,6.62,6.62,0,0,1-.66431,1.30828,1.28536,1.28536,0,0,0-.13477.33911.21637.21637,0,1,1-.00708-.05214c.00928-.05066-.14673-.25353-.00732-.07446a5.45,5.45,0,0,1,.81177,1.33331,4.1404,4.1404,0,0,1,.29052,1.62894,5.34037,5.34037,0,0,1-.22314,1.55993,4.76569,4.76569,0,0,1-.71948,1.444,4.99059,4.99059,0,0,1-.521.60768c-.15259.15163-.26367.27126-.39648.425a16.99274,16.99274,0,0,0-1.42261,2.00737,21.15151,21.15151,0,0,0-2.07886,4.53245,22.40177,22.40177,0,0,0-1.08594,7.40183l.08765,2.59384c.1521,3.46689.32935,6.93532.68091,10.36635a44.89388,44.89388,0,0,0,.7915,5.07391,25.66529,25.66529,0,0,1,.52613,5.3523,27.37866,27.37866,0,0,1-1.89136,10.48349,14.09436,14.09436,0,0,1-2.9668,4.50967,9.579,9.579,0,0,1-4.7395,2.52939,9.80529,9.80529,0,0,1-5.29492-.2117A10.605,10.605,0,0,1,388.7875,217.23465Z" fill="#020202"/><path d="M407.18081,150.02862c-.45605-.206-.88672-.44642-1.31836-.685l-.63623-.37367a2.46547,2.46547,0,0,0-.5835-.24989,2.19773,2.19773,0,0,0-1.20483.00755,2.28487,2.28487,0,0,0-.5437.23781,5.08659,5.08659,0,0,0-.52759.40791,31.4443,31.4443,0,0,1-4.88989,3.27889,31.44383,31.44383,0,0,1,4.28686-4.03522,5.82612,5.82612,0,0,1,.64966-.46454,2.73976,2.73976,0,0,1,2.48975-.13823,2.69305,2.69305,0,0,1,.69971.449l.5415.501C406.49722,149.30876,406.852,149.65146,407.18081,150.02862Z" fill="#020202"/><path d="M407.90786,153.97978a23.66714,23.66714,0,0,1-2.52881-1.25127,2.53534,2.53534,0,0,0-2.28149.05464c-.31128.16463-.71729.50725-1.09277.76537-.39014.26363-.76929.54187-1.17066.79117a20.8778,20.8778,0,0,1-2.47241,1.41021,20.89972,20.89972,0,0,1,2.01465-2.01077c.34668-.32087.71533-.61279,1.07275-.91932a11.36525,11.36525,0,0,1,1.18994-.88833,3.046,3.046,0,0,1,3.11841.1469A18.83078,18.83078,0,0,1,407.90786,153.97978Z" fill="#020202"/><path d="M407.18081,158.53152c-.43066-.12326-.83984-.2838-1.25049-.44232a4.60657,4.60657,0,0,0-1.147-.39128,2.45924,2.45924,0,0,0-1.08423.09363,2.81476,2.81476,0,0,0-.97143.56637,24.95282,24.95282,0,0,1-4.49244,2.70233,24.973,24.973,0,0,1,3.91968-3.48161,3.54944,3.54944,0,0,1,1.30567-.66914,2.8506,2.8506,0,0,1,1.49853.05694,3.81461,3.81461,0,0,1,1.20581.7124C406.50991,157.952,406.85586,158.22311,407.18081,158.53152Z" fill="#020202"/><path d="M378.41836,146.87881c-.019,3.34046.17432,6.68089.40576,10.02135.22974,3.34045.39185,6.68089.36157,10.02135-.00512.52278-.01269.59991.083.75514a.60183.60183,0,0,0,.40625.29715l2.38843.09839,5.0105.23617c3.34057.19237,6.68091.24165,10.02148.19158l-.22851.1009c.668-.7713,1.34936-1.53044,2.00439-2.31349l.02783.5482-1.32275-1.095.32666.11475a3.23063,3.23063,0,0,1-1.75562-.389,2.83784,2.83784,0,0,1-1.31421-1.34853,2.54608,2.54608,0,0,1-.16674-.97091l-.02857-.77236-.05762-1.54469-.12524-6.178-.02881-3.08877c-.00122-.53954-.01831-.97422-.0061-1.59984a3.29575,3.29575,0,0,1,.7998-2.00232,2.80087,2.80087,0,0,1,2.116-.96891l.15063.00451.0752.00332s.02051.0018.01074-.00021l-.09521-.00948a.81941.81941,0,0,0-.39063.08207l-.07763.0433.00415-.00346.01635-.01346.03369-.02512.26612-.21559.57251-.47937,2.3-2.022.44531,1.77912c-1.89087-.45826-3.864-.82535-5.81445-1.14075-1.95728-.31934-3.92139-.58566-5.89649-.78531a30.00877,30.00877,0,0,0-5.94775-.044q-.73608.09791-1.47168.23149c-.48633.10061-.95654.26006-1.43848.38765A2.198,2.198,0,0,0,378.41836,146.87881Zm-.1936,0a2.48055,2.48055,0,0,1,1.7517-2.36908c.479-.165.9524-.36339,1.44141-.502l1.47754-.39334a33.99536,33.99536,0,0,1,6.07617-.72473,40.33428,40.33428,0,0,1,6.11621.22642,59.65123,59.65123,0,0,1,6.0503,1.00581,1.02456,1.02456,0,0,1,.45361,1.77242l-.00806.00688-2.34741,2.04681-.61352.50943-.34083.26162-.125.08484-.063.0415-.01563.01027-.09961.05333a1.2457,1.2457,0,0,1-.47876.12138l-.13037-.00006-.02124-.00056-.04248-.00328a.77221.77221,0,0,0-.61084.25929,1.34356,1.34356,0,0,0-.3479.803l-.04175,1.48816-.0747,3.088-.2168,6.17551-.08032,1.54368a6.6442,6.6442,0,0,0-.01856,1.32031,2.16377,2.16377,0,0,0,1.93872,1.24625l.03784-.00038a.41119.41119,0,0,1,.28907.11526l1.23413,1.19405.02246.02176a.37009.37009,0,0,1,.00879.52334l-.00342.00338c-.719.72465-1.41211,1.47322-2.11841,2.20964l-.00879.00912a.29981.29981,0,0,1-.22.09192c-3.34057-.05008-6.68091-.00079-10.02148.19157l-5.0105.23618-1.25269.05823-.62646.01643a5.37137,5.37137,0,0,1-.74146-.00827,2.26879,2.26879,0,0,1-1.62719-1.02492,2.30364,2.30364,0,0,1-.33619-.9349c-.03588-.38967-.01416-.49365-.022-.73158-.03027-3.34046.13184-6.6809.36157-10.02135C378.05044,153.5597,378.2438,150.21927,378.22476,146.87881Z" fill="#020202"/><path d="M293.05874,178.47221c-.4939,3.266-.85718,6.54979-1.21045,9.82977-.32788,3.28313-.58911,6.57183-.73779,9.8622a79.0537,79.0537,0,0,0,.14184,9.85187,28.63719,28.63719,0,0,0,.81592,4.816,7.59378,7.59378,0,0,0,2.30933,4.07629l.01.00788.02832.02594c1.82837,2.01028,3.70874,3.97976,5.70776,5.82537,1.99072,1.85331,4.05078,3.6362,6.20264,5.30149q3.20983,2.5209,6.64136,4.73691,1.71019,1.11217,3.4602,2.15893c1.13818.68842,2.41919,1.14786,3.65967,1.80261a.28157.28157,0,0,1,.14551.2999l-.002.01016a37.72186,37.72186,0,0,0-.82666,4.85828,12.89767,12.89767,0,0,0,.105,2.41351c.095.81864.20484,1.63141.3523,2.43347a16.0867,16.0867,0,0,0,1.5166,4.58863,15.00514,15.00514,0,0,0,2.89746,3.83932.45375.45375,0,0,1,.13306.34961c-.12671,1.84311-.2085,3.70032-.241,5.55014a47.572,47.572,0,0,0,.1687,5.52191c.04956.45255.11524.90055.20655,1.3338a3.04722,3.04722,0,0,0,.41113,1.12046,1.28228,1.28228,0,0,0,.87012.49554,1.13024,1.13024,0,0,0,.81958-.56708,7.84558,7.84558,0,0,0,.998-2.44271,26.30741,26.30741,0,0,0,.53662-2.6995.33066.33066,0,0,1,.65674.07242,18.30578,18.30578,0,0,0,.1211,4.14563,4.21518,4.21518,0,0,0,.68554,1.84436,1.24057,1.24057,0,0,0,1.63306.24136,3.2814,3.2814,0,0,0,1.33691-1.43588,8.79422,8.79422,0,0,0,.72534-1.94482,19.38655,19.38655,0,0,0,.54615-4.17383.042.042,0,0,1,.04248-.04123.04255.04255,0,0,1,.04126.04123,19.58683,19.58683,0,0,1-.36939,4.23508,9.10227,9.10227,0,0,1-.66552,2.04745,3.59958,3.59958,0,0,1-1.46094,1.65335,2.11135,2.11135,0,0,1-1.14014.26608,1.59181,1.59181,0,0,1-1.06592-.57177,4.67362,4.67362,0,0,1-.85522-2.05762,17.51685,17.51685,0,0,1-.23364-4.30188l.65673.07242a27.02989,27.02989,0,0,1-.50048,2.78174,8.4767,8.4767,0,0,1-1.06641,2.71075,1.87536,1.87536,0,0,1-1.42261.91342,1.64837,1.64837,0,0,1-.87182-.235,2.34422,2.34422,0,0,1-.648-.53311,3.57514,3.57514,0,0,1-.59742-1.45609c-.10253-.4765-.17309-.94971-.2268-1.42154a48.34894,48.34894,0,0,1-.1958-5.62759c.02563-1.87043.1001-3.73194.22119-5.60123l.13281.34927a15.625,15.625,0,0,1-3.02759-4.09094,16.8958,16.8958,0,0,1-1.54565-4.83191c-.1438-.82959-.24707-1.66134-.33472-2.48987a12.26043,12.26043,0,0,1-.06128-2.54745,37.93418,37.93418,0,0,1,.959-4.91458l.14331.30975c-1.15405-.64334-2.44605-1.13931-3.62793-1.88684q-1.73254-1.08828-3.4231-2.2467-3.37206-2.32289-6.5852-4.86032c-2.12818-1.7063-4.22193-3.4556-6.241-5.29133-2.01025-1.84411-3.98975-3.72592-5.87476-5.70263l.03809.03354a8.12405,8.12405,0,0,1-2.63867-4.31156,26.208,26.208,0,0,1-.905-4.93026,65.67769,65.67769,0,0,1-.09985-9.95289c.168-3.31.501-6.60594.93481-9.88583.41626-3.2823.9729-6.54437,1.60815-9.78876a.04178.04178,0,0,1,.04908-.033A.04254.04254,0,0,1,293.05874,178.47221Z" fill="#020202"/><path d="M333.96719,262.48672c.36621,1.709.69238,3.3888,1.16137,5.00464a5.65975,5.65975,0,0,0,1.01661,2.28241,2.31564,2.31564,0,0,0,1.0122.68576,1.20283,1.20283,0,0,0,1.08521-.12292,3.267,3.267,0,0,0,.66064-2.18046,24.52989,24.52989,0,0,0-.05322-2.53875c-.062-1.71121-.20679-3.43967-.1853-5.19577a.04227.04227,0,0,1,.08276-.01187,25.46712,25.46712,0,0,1,.99194,5.15329,13.55541,13.55541,0,0,1-.05371,2.66491,5.1359,5.1359,0,0,1-.30835,1.343,2.04611,2.04611,0,0,1-.89135,1.153,1.68517,1.68517,0,0,1-1.42115.00382,3.41727,3.41727,0,0,1-1.11621-.76746,7.12649,7.12649,0,0,1-1.47778-2.2427,9.75059,9.75059,0,0,1-.60181-2.58954,10.87774,10.87774,0,0,1,.01441-2.6413.04233.04233,0,0,1,.0476-.03589A.04643.04643,0,0,1,333.96719,262.48672Z" fill="#020202"/><path d="M338.72646,260.30569a36.59546,36.59546,0,0,0,1.60279,5.09491,11.91139,11.91139,0,0,0,1.18847,2.33615,2.748,2.748,0,0,0,.8606.84928.83431.83431,0,0,0,.96094-.0828.26092.26092,0,0,1,.11767-.04571l.05982-.00727a1.11326,1.11326,0,0,0,.62036-.67163,4.30325,4.30325,0,0,0,.3-1.1553,12.00666,12.00666,0,0,0,.03955-2.50333,24.994,24.994,0,0,0-.303-2.52692c-.12207-.842-.31006-1.67645-.47241-2.51345a.37661.37661,0,0,1,.58179-.38294c.48632.33026,1.25195.64578,1.53051.4195a.87027.87027,0,0,0,.25464-.66672,4.45994,4.45994,0,0,0-.04126-.96567,24.08607,24.08607,0,0,0-1.13721-3.98578c-.9414-2.64728-1.91674-5.28582-2.99682-7.882-.55713-1.28833-1.07056-2.60568-1.71314-3.84866l-1.00146-1.843-1.11914-1.78857c-1.48413-2.39008-3.02149-4.74542-4.52612-7.12055-1.58521-2.297-3.34668-4.50967-5.07227-6.72128-1.73267-2.21237-3.49048-4.4046-5.29956-6.55206a116.05165,116.05165,0,0,0-11.53662-12.21109l-.00806-.00717a.37427.37427,0,0,1-.12353-.3122q.82617-8.85755,1.81567-17.70144a.04192.04192,0,0,1,.0835.00694q-.47645,8.8868-1.14576,17.75749l-.13134-.319a68.85944,68.85944,0,0,1,6.12109,5.87466c1.93042,2.0622,3.79736,4.18082,5.58032,6.36692,3.57105,4.37091,6.991,8.84366,10.13623,13.54211,1.45533,2.41229,2.87793,4.84436,4.35376,7.2417a48.70963,48.70963,0,0,1,3.87867,7.51025c1.13208,2.57947,2.24023,5.17136,3.2666,7.79734a20.42525,20.42525,0,0,1,1.27465,4.09066,5.10287,5.10287,0,0,1,.05787,1.1362,1.53811,1.53811,0,0,1-.54908,1.19806,1.49333,1.49333,0,0,1-1.33642.11063,4.10745,4.10745,0,0,1-1.04663-.515l.58178-.38285c.15308.85224.3313,1.69821.44434,2.55948a25.7568,25.7568,0,0,1,.27417,2.59387,12.64155,12.64155,0,0,1-.08154,2.64,4.77,4.77,0,0,1-.37207,1.32336,1.53363,1.53363,0,0,1-1.20313.984l.17725-.05289a1.4053,1.4053,0,0,1-1.55274.07651,3.21989,3.21989,0,0,1-1.00415-1.04056,12.09651,12.09651,0,0,1-1.15356-2.47052,36.70465,36.70465,0,0,1-1.31543-5.20721l-.00171-.0091a.04146.04146,0,0,1,.081-.01733Z" fill="#020202"/><path d="M298.92788,208.41726a13.06519,13.06519,0,0,1,2.87012-1.92318,17.27849,17.27849,0,0,1,3.19092-1.27817,13.46667,13.46667,0,0,1,3.426-.58393,6.88237,6.88237,0,0,1,3.44946.61319,25.10654,25.10654,0,0,0-3.26245.67728c-1.0498.28088-2.09424.58661-3.14575.89722A53.14356,53.14356,0,0,1,298.92788,208.41726Z" fill="#020202"/><path d="M328.50918,270.40307a42.516,42.516,0,0,1-.41748-6.31051,41.96456,41.96456,0,0,1,.41748-6.31052,41.93308,41.93308,0,0,1,.41748,6.31052A42.45142,42.45142,0,0,1,328.50918,270.40307Z" fill="#020202"/><path d="M335.09634,277.02264c-.312-1.81226-.53247-3.63153-.73926-5.45187-.21631-1.81961-.36694-3.64423-.51758-5.46891-.13086-1.82614-.25976-3.65246-.32446-5.4837-.073-1.8306-.13281-3.6622-.09985-5.50095.31323,1.81217.53344,3.63147.74072,5.45179.21557,1.81964.3667,3.64425.51611,5.469.12964,1.82626.259,3.65253.323,5.48383C335.06851,273.35238,335.12808,275.184,335.09634,277.02264Z" fill="#020202"/><path d="M340.08633,268.98269a69.51219,69.51219,0,0,1-1.46851-7.1849c-.18261-1.20526-.36621-2.40918-.5227-3.6171-.18408-1.20413-.26123-2.42313-.56006-3.608a13.29571,13.29571,0,0,1,1.20093,3.48846c.28881,1.19345.50879,2.39853.70654,3.60581A48.55789,48.55789,0,0,1,340.08633,268.98269Z" fill="#020202"/><path d="M344.76943,260.66461a17.07173,17.07173,0,0,1-1.02343-1.40045.16022.16022,0,0,1-.02637-.07569l-.00366-.0487a6.848,6.848,0,0,0-.81226-2.69437l.01465.0264a17.00682,17.00682,0,0,1-1.81226-3.81534,17.0084,17.0084,0,0,1,2.52051,3.38943l.00318.00525.01147.02152a6.10374,6.10374,0,0,1,.5332,1.48993,5.29806,5.29806,0,0,1,.08643,1.57718l-.03-.124A17.06917,17.06917,0,0,1,344.76943,260.66461Z" fill="#020202"/><path d="M324.63638,251.28091a7.03333,7.03333,0,0,0,1.91772.15909,2.38054,2.38054,0,0,0,.80444-.18729,1.55134,1.55134,0,0,0,.52857-.41711l-.04175.04748a1.90068,1.90068,0,0,1,1.95484-.66,4.17347,4.17347,0,0,0,1.14892.08124,2.85989,2.85989,0,0,0,1.86255-.9054l.04907-.05057a.42927.42927,0,0,1,.06079-.05136,1.61185,1.61185,0,0,1,.373-.2,2.51151,2.51151,0,0,1,.28638-.09439,2.80243,2.80243,0,0,1,.53515-.08722,5.16756,5.16756,0,0,1,.98658.02072c.33471.03372.58618.09165.83471.13126a5.16526,5.16526,0,0,0,.7522.06512,3.26646,3.26646,0,0,0,1.438-.25842,3.71571,3.71571,0,0,0,1.25854-1.00919,2.92268,2.92268,0,0,1-.85425,1.58634,3.49432,3.49432,0,0,1-1.72119.848,6.37331,6.37331,0,0,1-.938.10245c-.31543.01831-.62354-.00724-.8523-.00434a3.6379,3.6379,0,0,0-.70264.06693,2.755,2.755,0,0,0-.29345.079.87384.87384,0,0,0-.11377.04278c-.01465.00211-.08985.05478-.00171-.00528l.10962-.10165a4.29116,4.29116,0,0,1-1.3313,1.04678,4.17273,4.17273,0,0,1-1.66162.39255,4.44061,4.44061,0,0,1-1.59033-.25128.79883.79883,0,0,0-.59156.01147l-.042.04783a2.39417,2.39417,0,0,1-1.16284.55554,3.05043,3.05043,0,0,1-1.154-.04874A4.4418,4.4418,0,0,1,324.63638,251.28091Z" fill="#020202"/><path d="M359.48232,92.97393a15.27715,15.27715,0,0,0-6.21826-6.56825,12.58887,12.58887,0,0,0-8.6228-1.20769,14.838,14.838,0,0,0-7.58765,4.22492,20.9162,20.9162,0,0,0-4.33447,7.7218,43.3407,43.3407,0,0,0-1.293,4.37781c-.17627.742-.34082,1.48776-.48144,2.23457l-.09937.55779a5.11106,5.11106,0,0,0-.071.5227l-.14258,1.17273c-.426,3.11127-.94043,6.2058-1.67407,9.2608a53.17993,53.17993,0,0,1-2.86182,8.98526,22.10278,22.10278,0,0,1-2.33789,4.12377,10.47531,10.47531,0,0,1-1.6062,1.75184,5.85281,5.85281,0,0,1-2.08911,1.077,7.14467,7.14467,0,0,0,3.27075-3.11647,21.40772,21.40772,0,0,0,1.87988-4.18468,63.02015,63.02015,0,0,0,2.2666-8.94883c.54615-3.03669,1.01953-6.09427,1.33155-9.16349l.11547-1.14718c.0105-.15772.04761-.45969.07984-.63416l.09985-.59216c.13965-.784.303-1.55986.47876-2.33368a44.285,44.285,0,0,1,1.30884-4.5849,30.826,30.826,0,0,1,1.94922-4.40315,16.58043,16.58043,0,0,1,2.90454-3.95616,8.36657,8.36657,0,0,1,.91528-.83007c.32178-.25689.6167-.54847.96094-.77414a16.17744,16.17744,0,0,1,2.103-1.27971,15.09819,15.09819,0,0,1,4.64477-1.54254,14.2412,14.2412,0,0,1,2.4458-.16882,12.44354,12.44354,0,0,1,2.43579.2323,12.77745,12.77745,0,0,1,4.49024,1.81232A14.88443,14.88443,0,0,1,359.48232,92.97393Z" fill="#020202"/><path d="M353.98452,86.26028a6.11384,6.11384,0,0,1,3.9126,1.03949,9.33313,9.33313,0,0,1,1.59546,1.33406c.24389.24727.45874.51935.68994.77937l.61987.83475-.05688-.06883a15.12171,15.12171,0,0,1,3.39184,5.36813,19.84249,19.84249,0,0,1,1.27344,6.19879,23.23968,23.23968,0,0,1-.69507,6.25455c-.2229,1.02193-.59375,2.0056-.91479,2.99407-.39868.96316-.82276,1.91424-1.25781,2.8527l.90844-2.96547c.19483-1.01445.51319-1.99374.66382-3.00753a23.22482,23.22482,0,0,0,.34741-3.04027,22.96681,22.96681,0,0,0,.03052-3.04233,21.19452,21.19452,0,0,0-1.23755-5.908,16.62782,16.62782,0,0,0-3.01318-5.17238l-.032-.03612-.02515-.033-.53565-.82724c-.20166-.257-.38867-.52951-.60351-.77678A9.56036,9.56036,0,0,0,357.63,87.67964a7.15111,7.15111,0,0,0-1.69873-.99727A5.49489,5.49489,0,0,0,353.98452,86.26028Z" fill="#020202"/><path d="M364.1769,419.41522a12.15231,12.15231,0,0,1,2.34205,4.49057,9.53042,9.53042,0,0,1-.01416,5.16565,10.339,10.339,0,0,1-1.04029,2.42242,16.12174,16.12174,0,0,0-1.09375,2.14844,34.31307,34.31307,0,0,0-1.47314,4.65472,18.75954,18.75954,0,0,0-.53931,4.75827,9.529,9.529,0,0,0,1.10278,4.43467,9.92,9.92,0,0,0,7.59668,4.51251,13.4589,13.4589,0,0,0,4.71607-.31507,37.17827,37.17827,0,0,1,5.02759-.772,38.71493,38.71493,0,0,1,10.08691.46955,34.3348,34.3348,0,0,1,9.561,3.1582,22.868,22.868,0,0,0,9.40576,2.66974,33.32129,33.32129,0,0,0,9.74048-.7746,20.76527,20.76527,0,0,0,4.53369-1.579c1.37207-.69147,2.75-1.65039,3.1604-2.79736a2.05736,2.05736,0,0,0-.18579-1.66236,3.91121,3.91121,0,0,0-.616-.80984,4.90638,4.90638,0,0,0-.81445-.74106,18.038,18.038,0,0,0-4.12818-2.28906c-1.48608-.61484-3.04223-1.15463-4.62768-1.71189l-4.71973-1.67242c-3.13379-1.15778-6.28784-2.27209-9.386-3.60968a30.25319,30.25319,0,0,1-8.82055-5.20816,20.95546,20.95546,0,0,1-5.29468-8.7453,28.85879,28.85879,0,0,1-1.10522-4.94119l-.79273-4.94712a.09691.09691,0,0,1,.1897-.03881l1.21484,4.86068a33.71471,33.71471,0,0,0,1.415,4.73606,20.498,20.498,0,0,0,5.38843,7.95321,28.72423,28.72423,0,0,0,8.51294,4.60489c3.07959,1.19016,6.22046,2.30231,9.3706,3.3906l4.71607,1.6719c1.561.55136,3.16186,1.10422,4.7417,1.8067a19.86481,19.86481,0,0,1,4.53857,2.65265,6.63039,6.63039,0,0,1,1.011.9624,5.74054,5.74054,0,0,1,.85864,1.20051,3.92618,3.92618,0,0,1,.24487,3.158,5.54733,5.54733,0,0,1-1.81372,2.32629,10.89379,10.89379,0,0,1-2.31567,1.388,22.34026,22.34026,0,0,1-4.95142,1.54217,32.35728,32.35728,0,0,1-10.17163.32807,28.97289,28.97289,0,0,1-4.97192-1.0788,26.74246,26.74246,0,0,1-4.64014-2.04071,29.50772,29.50772,0,0,0-9.35254-3.14392,32.74824,32.74824,0,0,0-9.86108-.0177,36.76009,36.76009,0,0,0-4.81446,1.01294,14.43234,14.43234,0,0,1-5.19873.60761,11.97146,11.97146,0,0,1-5.09155-1.511,9.38586,9.38586,0,0,1-3.85205-3.79807,11.16305,11.16305,0,0,1-1.19971-5.20987,20.27636,20.27636,0,0,1,.68921-5.14541,27.60745,27.60745,0,0,1,1.74463-4.81207,17.31954,17.31954,0,0,1,1.29321-2.246,9.25307,9.25307,0,0,0,1.04175-2.11407,9.39442,9.39442,0,0,0,.3418-4.71967,12.91883,12.91883,0,0,0-1.85742-4.52246.09691.09691,0,0,1,.15722-.11279Z" fill="#020202"/><path d="M332.75308,421.805a20.32356,20.32356,0,0,0-.262,4.701,16.24839,16.24839,0,0,0,.98755,4.51437c.1438.35306.29224.70453.46729,1.03565.16186.33273.36816.61978.593.98816.42579.69454.81519,1.40411,1.18287,2.12765a25.58987,25.58987,0,0,1,1.82348,4.52988,18.14226,18.14226,0,0,1,.783,4.90341,10.82034,10.82034,0,0,1-1.07934,5.00076,9.47845,9.47845,0,0,1-3.5586,3.74335,12.52577,12.52577,0,0,1-4.76831,1.70611,14.2385,14.2385,0,0,1-5.00171-.20422,37.49591,37.49591,0,0,0-4.63623-.69873,33.24958,33.24958,0,0,0-9.39136.46344A30.62458,30.62458,0,0,0,301.071,457.892l-2.02295,1.22419-1.03809.63684c-.35254.20074-.71924.37359-1.0791.56177a24.3769,24.3769,0,0,1-4.55688,1.67767,32.03206,32.03206,0,0,1-9.64673,1.02441,29.58667,29.58667,0,0,1-4.864-.63818,15.12253,15.12253,0,0,1-4.70361-1.81879,6.24691,6.24691,0,0,1-2.01392-1.89844,3.67886,3.67886,0,0,1-.47973-3.01324,6.04188,6.04188,0,0,1,1.40747-2.45758l.94409-.91138,1.00659-.7818a47.00874,47.00874,0,0,1,8.68994-4.38717l8.75928-3.73978a71.63987,71.63987,0,0,0,8.45606-4.14514c5.47436-3.00269,8.56372-9.05792,9.57568-15.27939a.09682.09682,0,0,1,.11108-.08.101.101,0,0,1,.08081.10562,24.07246,24.07246,0,0,1-2.44238,9.28769,17.996,17.996,0,0,1-6.50976,7.24109A73.031,73.031,0,0,1,292.244,445.069c-2.8833,1.37515-5.80542,2.63638-8.709,3.93542a51.17326,51.17326,0,0,0-8.33887,4.13486,6.29617,6.29617,0,0,0-2.67358,2.99383c-.38086,1.04194.41723,2.12165,1.62646,2.89863a14.08677,14.08677,0,0,0,4.11841,1.68786,27.97633,27.97633,0,0,0,4.55981.76483,33.186,33.186,0,0,0,9.3-.52258A23.4337,23.4337,0,0,0,296.581,459.559c.35254-.164.71411-.31311,1.061-.48944l1.022-.56519,2.07959-1.20905a36.33059,36.33059,0,0,1,9.01978-3.29357,40.01937,40.01937,0,0,1,9.58179-.92518,37.803,37.803,0,0,1,4.82812.44471,13.32681,13.32681,0,0,0,4.48926-.05591,10.03176,10.03176,0,0,0,7.08057-4.64645c1.36523-2.55054,1.15844-5.77732.37182-8.718a31.79609,31.79609,0,0,0-1.54785-4.3823c-.314-.71273-.65234-1.41848-1.021-2.10131-.17114-.32065-.40649-.69773-.57324-1.09086-.17553-.38287-.31567-.7731-.45-1.1647a16.511,16.511,0,0,1,.04151-9.60046.097.097,0,0,1,.12036-.0658A.09808.09808,0,0,1,332.75308,421.805Z" fill="#020202"/><path d="M336.15651,449.78815c-4.18619,8.15069-17.34743,1.57092-25.65822,4.38341-1.19178.40331-1.42888.30161-1.42888.30161s-5.8568-14.78667-12.96847-14.0755c0,0-11.64683,2.70939-13.13723,6.21387,0,0,9.63342,8.20446,9.1192,14.91024-17.86914,2.4871-20.58773-4.03995-20.58773-4.03995-3.30848,7.02034,10.61529,10.25155,19.91536,7.08161,7.82076-2.66566,23.01229-8.564,23.01229-8.564l.15482,4.4836,5.77411,2.21776,16.2783-.56212-2.66921-5.3176C338.54342,452.86451,336.15651,449.78815,336.15651,449.78815Z" fill="#020202"/><path d="M428.35621,452.06519s-2.26193,6.699-20.26012,5.45048c-.97552-6.65433,8.069-15.50377,8.069-15.50377-1.72864-3.39332-13.53457-5.29285-13.53457-5.29285-7.14379-.21891-11.96664,14.93654-11.96664,14.93654s-.22953.11781-1.44629-.20232c-8.485-2.23251-21.16107,5.23946-25.89946-2.603,0,0-2.169,3.23368,2.6755,6.86476l-2.296,5.48906,16.27831-.56212,5.60736-2.61077-.15482-4.4836s15.56227,4.83632,23.54822,6.95616C418.47337,463.02457,432.141,458.84059,428.35621,452.06519Z" fill="#020202"/><path d="M291.92593,213.02536c.76538,9.12988,1.1372,18.2893,1.27661,27.4533.12842,9.16483-.00293,18.33927-.50708,27.50934-.22974,4.58661-.62354,9.16666-1.10254,13.74375-.48315,4.57684-1.10791,9.14825-2.00732,13.68908a69.6809,69.6809,0,0,1-3.82007,13.45063,23.03475,23.03475,0,0,1-3.72046,6.23614,9.82173,9.82173,0,0,1-3.09351,2.39542,7.06152,7.06152,0,0,1-4.03027.60452l.82056-2.17883a21.25058,21.25058,0,0,0,3.605,1.86175,27.63191,27.63191,0,0,0,12.26513,1.97919,28.4993,28.4993,0,0,0,4.17041-.61609c1.39746-.31857,2.83643-.65042,4.28076-.85178a18.13835,18.13835,0,0,1,4.39551-.15972,5.21478,5.21478,0,0,1,2.12012.6618,1.827,1.827,0,0,1,.937,1.87125,1.70722,1.70722,0,0,0-1.05469-1.66236,4.99485,4.99485,0,0,0-2.03711-.3967,17.51294,17.51294,0,0,0-4.2019.5441c-1.39258.32013-2.74243.72968-4.12793,1.16205a26.498,26.498,0,0,1-4.32446.95874,27.88494,27.88494,0,0,1-8.89136-.24072,28.76812,28.76812,0,0,1-4.324-1.18994,23.1542,23.1542,0,0,1-4.14966-1.93729,1.18256,1.18256,0,0,1,.7268-2.18841l.09375.00949a4.81855,4.81855,0,0,0,2.6482-.47544,7.33867,7.33867,0,0,0,2.24389-1.8424A20.55436,20.55436,0,0,0,283.258,307.834a72.47464,72.47464,0,0,0,3.52295-12.95309,250.6988,250.6988,0,0,0,3.217-27.06629c.66431-9.09326,1.06274-18.21832,1.35474-27.3518Q291.77566,226.76045,291.92593,213.02536Z" fill="#020202"/><path d="M359.28308,108.38861a1.45252,1.45252,0,0,0,0-2.90331,1.45252,1.45252,0,0,0,0,2.90331Z" fill="#020202"/><path d="M349.29293,108.982a1.45252,1.45252,0,0,0,0-2.90331,1.45252,1.45252,0,0,0,0,2.90331Z" fill="#020202"/><path d="M337.3609,113.25422a1.0894,1.0894,0,0,0,0-2.17749,1.0894,1.0894,0,0,0,0,2.17749Z" fill="#020202"/><path d="M363.20059,102.82965a27.28648,27.28648,0,0,0-3.1897-.07779c-.51294.01806-1.02637.05911-1.54785.123-.52637.05176-1.04883.1508-1.635.19292a4.77047,4.77047,0,0,1,3.14355-1.28232,5.21749,5.21749,0,0,1,1.719.21565A3.65391,3.65391,0,0,1,363.20059,102.82965Z" fill="#020202"/><path d="M350.56533,103.30182c-.98657.03552-1.83179.00657-2.6958.05012-.42944.00674-.85718.037-1.29614.06821-.44336.02342-.88452.08336-1.39185.08284a3.78788,3.78788,0,0,1,2.65528-1.11768,4.37924,4.37924,0,0,1,1.45239.19452A3.07218,3.07218,0,0,1,350.56533,103.30182Z" fill="#020202"/><path d="M358.56021,111.14494a2.20422,2.20422,0,0,1-.68116,1.50093,3.22911,3.22911,0,0,1-1.478.83987,4.15807,4.15807,0,0,1-1.65308.07442,4.06912,4.06912,0,0,1-1.51-.566c.54394-.10071,1.04321-.138,1.53027-.189a10.69847,10.69847,0,0,0,1.38526-.25451A4.77612,4.77612,0,0,0,358.56021,111.14494Z" fill="#020202"/><path d="M358.256,122.9776a3.9621,3.9621,0,0,1-2.72217.76748,4.35,4.35,0,0,1-2.68335-1.39206,4.241,4.241,0,0,1-1.16553-3.07428,4.18609,4.18609,0,0,1,5.14819-3.709,4.24374,4.24374,0,0,1,2.54908,2.08127,4.34471,4.34471,0,0,1,.46753,2.98947A3.97174,3.97174,0,0,1,358.256,122.9776Zm0,0a3.11452,3.11452,0,0,0,1.32934-2.37059,3.44713,3.44713,0,0,0-3.08081-3.39458,3.2161,3.2161,0,0,0-3.16724,2.27527,3.44449,3.44449,0,0,0,2.2483,3.999A3.11622,3.11622,0,0,0,358.256,122.9776Z" fill="#020202"/><path d="M353.98461,104.31291a1.45252,1.45252,0,0,0,0-2.90331,1.45252,1.45252,0,0,0,0,2.90331Z" fill="#b21919"/><path d="M364.48013,107.71261c.0188,4.06925-.07349,8.10831.05249,12.13494a55.74871,55.74871,0,0,0,.45117,5.99748,16.28028,16.28028,0,0,0,.66406,2.89879,3.57426,3.57426,0,0,0,1.741,2.29037,3.57642,3.57642,0,0,1-2.178-2.1056,13.47866,13.47866,0,0,1-.96973-2.94747,34.98734,34.98734,0,0,1-.67529-6.10388A59.25044,59.25044,0,0,1,364.48013,107.71261Z" fill="#020202"/><path d="M394.5562,146.19926c0,.65807-2.12905,1.20971-4.99373,1.36459-.50326.029-1.03547.03869-1.57736.03869-.22257,0-.43557,0-.65814-.00969-3.32919-.06775-5.92275-.66776-5.92275-1.39359,0-.7839,2.94206-1.413,6.58089-1.413.15476,0,.30964,0,.46451.00969a25.08087,25.08087,0,0,1,2.53544.14519C393.10454,145.17342,394.5562,145.64762,394.5562,146.19926Z" fill="#020202"/><path d="M310.7854,137.17962a47.0451,47.0451,0,0,0-4.47122,2.39042c-14.03269,8.14863-16.50055,45.69815-16.50055,45.69815a34.74781,34.74781,0,0,0,26.16858,11.75845l1.13245,3.542a5.59646,5.59646,0,0,0,5.78726,3.90015c2.78707-.22263,6.71627-.55164,11.25507-.97746C327.586,150.33166,310.7854,137.17962,310.7854,137.17962Zm-17.26513,48.466a1.45258,1.45258,0,0,1,0-2.90332A1.45258,1.45258,0,0,1,293.52027,185.64564Zm5.40024,3.83239a1.45258,1.45258,0,0,1,0-2.90331A1.45258,1.45258,0,0,1,298.92051,189.478Zm6.44527,3.13557a1.45258,1.45258,0,0,1,0-2.90331A1.45258,1.45258,0,0,1,305.36578,192.6136Zm6.61964,1.91617a1.45258,1.45258,0,0,1,0-2.90331A1.45258,1.45258,0,0,1,311.98542,194.52977Zm4.00647,2.50656c-.68708-2.95175-1.18065-5.92276-1.60641-8.89383-.43545-2.97106-.76458-5.95181-1.06464-8.94225-.27077-2.99039-.51272-5.98083-.63865-8.98089-.14507-3.00007-.22257-6.00989-.10656-9.02933.67763,2.94206,1.1712,5.91307,1.597,8.88414.44513,2.97106.76457,5.9615,1.07433,8.94226.26108,2.99038.51271,5.98082.63864,8.98089C316.03064,190.99738,316.10814,194.0072,315.99189,197.03633Z" fill="#020202"/><path d="M316.51675,138.61427a1.45253,1.45253,0,0,0,0-2.90332,1.45253,1.45253,0,0,0,0,2.90332Z" fill="#020202"/><path d="M321.04592,144.36283a1.45252,1.45252,0,0,0,0-2.90331,1.45252,1.45252,0,0,0,0,2.90331Z" fill="#020202"/><path d="M325.0525,151.67918a1.45252,1.45252,0,0,0,0-2.90331,1.45252,1.45252,0,0,0,0,2.90331Z" fill="#020202"/><path d="M328.71068,160.04073a1.45252,1.45252,0,0,0,0-2.90331,1.45252,1.45252,0,0,0,0,2.90331Z" fill="#020202"/><path d="M331.32366,169.09907a1.45252,1.45252,0,0,0,0-2.90331,1.45252,1.45252,0,0,0,0,2.90331Z" fill="#020202"/><path d="M333.58824,177.98322a1.45253,1.45253,0,0,0,0-2.90332,1.45253,1.45253,0,0,0,0,2.90332Z" fill="#020202"/><path d="M335.33023,187.39a1.45253,1.45253,0,0,0,0-2.90332,1.45253,1.45253,0,0,0,0,2.90332Z" fill="#020202"/><path d="M337.24642,199.23548a1.45252,1.45252,0,0,0,0-2.90331,1.45252,1.45252,0,0,0,0,2.90331Z" fill="#020202"/><path d="M338.29161,207.597a1.45253,1.45253,0,0,0,0-2.90332,1.45253,1.45253,0,0,0,0,2.90332Z" fill="#020202"/><path d="M339.8594,216.48117a1.45252,1.45252,0,0,0,0-2.90331,1.45252,1.45252,0,0,0,0,2.90331Z" fill="#020202"/><path d="M341.94979,225.36531a1.45252,1.45252,0,0,0,0-2.90331,1.45252,1.45252,0,0,0,0,2.90331Z" fill="#020202"/><path d="M344.38858,233.55266a1.45252,1.45252,0,0,0,0-2.90331,1.45252,1.45252,0,0,0,0,2.90331Z" fill="#020202"/><path d="M348.04675,241.74a1.45252,1.45252,0,0,0,0-2.90331,1.45252,1.45252,0,0,0,0,2.90331Z" fill="#020202"/><path d="M353.44692,249.75316a1.45253,1.45253,0,0,0,0-2.90332,1.45253,1.45253,0,0,0,0,2.90332Z" fill="#020202"/><path d="M360.41487,256.02432a1.45253,1.45253,0,0,0,0-2.90332,1.45253,1.45253,0,0,0,0,2.90332Z" fill="#020202"/><path d="M368.25382,259.8567a1.45253,1.45253,0,0,0,0-2.90332,1.45253,1.45253,0,0,0,0,2.90332Z" fill="#020202"/><path d="M377.31217,261.77288a1.45252,1.45252,0,0,0,0-2.90331,1.45252,1.45252,0,0,0,0,2.90331Z" fill="#020202"/><path d="M385.67371,261.59868a1.45252,1.45252,0,0,0,0-2.90331,1.45252,1.45252,0,0,0,0,2.90331Z" fill="#020202"/><path d="M286.38034,317.69073a1.45253,1.45253,0,0,0,0-2.90332,1.45253,1.45253,0,0,0,0,2.90332Z" fill="#020202"/><path d="M290.03852,310.37437a1.45252,1.45252,0,0,0,0-2.90331,1.45252,1.45252,0,0,0,0,2.90331Z" fill="#020202"/><path d="M292.8257,301.316a1.45252,1.45252,0,0,0,0-2.90331,1.45252,1.45252,0,0,0,0,2.90331Z" fill="#020202"/><path d="M294.39349,291.90929a1.45252,1.45252,0,0,0,0-2.90331,1.45252,1.45252,0,0,0,0,2.90331Z" fill="#020202"/><path d="M295.43869,282.67675a1.45252,1.45252,0,0,0,0-2.90331,1.45252,1.45252,0,0,0,0,2.90331Z" fill="#020202"/><path d="M295.96128,273.27a1.45253,1.45253,0,0,0,0-2.90332,1.45253,1.45253,0,0,0,0,2.90332Z" fill="#020202"/><path d="M295.96128,263.68907a1.45252,1.45252,0,0,0,0-2.90331,1.45252,1.45252,0,0,0,0,2.90331Z" fill="#020202"/><path d="M296.30968,254.10813a1.45252,1.45252,0,0,0,0-2.90331,1.45252,1.45252,0,0,0,0,2.90331Z" fill="#020202"/><path d="M295.96128,245.224a1.45253,1.45253,0,0,0,0-2.90332,1.45253,1.45253,0,0,0,0,2.90332Z" fill="#020202"/><path d="M295.26449,237.90763a1.45252,1.45252,0,0,0,0-2.90331,1.45252,1.45252,0,0,0,0,2.90331Z" fill="#020202"/><path d="M295.26449,230.71477a1.45252,1.45252,0,0,0,0-2.90331,1.45252,1.45252,0,0,0,0,2.90331Z" fill="#020202"/><path d="M294.97416,222.75969a1.45253,1.45253,0,0,0,0-2.90332,1.45253,1.45253,0,0,0,0,2.90332Z" fill="#020202"/><path d="M293.5225,317.69073a1.45253,1.45253,0,0,0,0-2.90332,1.45253,1.45253,0,0,0,0,2.90332Z" fill="#020202"/><path d="M301.01305,315.25194a1.45252,1.45252,0,0,0,0-2.90331,1.45252,1.45252,0,0,0,0,2.90331Z" fill="#020202"/><path d="M307.28421,317.16813a1.45252,1.45252,0,0,0,0-2.90331,1.45252,1.45252,0,0,0,0,2.90331Z" fill="#020202"/><path d="M274.53482,319.95531c3.73629,0,3.74248-5.80663,0-5.80663-3.73629,0-3.74248,5.80663,0,5.80663Z"/><path d="M395.67885,132.40851a28.64512,28.64512,0,0,1-1.8,6.91959,39.47653,39.47653,0,0,1-2.89375,5.61307c-.116.20325-.23225.41613-.33858.61938-.35819.66777-.71614,1.33553-1.084,2.0033-.50326.029-1.03547.03869-1.57736.03869-.22257,0-.43557,0-.65814-.00969.36776-.92908.74521-1.86779,1.12265-2.79687.02906-.07738.058-.14513.08707-.22257a48.82911,48.82911,0,0,1,2.71938-6.48408,28.59422,28.59422,0,0,1,4.15177-5.79695.15515.15515,0,0,1,.22257-.00968A.22789.22789,0,0,1,395.67885,132.40851Z" fill="#020202"/></svg>