<svg id="Layer_1" data-name="Layer 1" xmlns="http://www.w3.org/2000/svg" viewBox="0 0 700 550"><title>throwing ball</title><path d="M330.4909,188.09126h.14368q-.14369,3.77994-.14368,7.55966v16.07721H320.19116v-.14386L327.8848,195.21C328.75671,192.98733,329.52319,190.90829,330.4909,188.09126Z"/><path d="M393.33367,136.07536s-21.70128,11.641-23.55044,12.16778c-1.85875.52725-14.29513,2.11764-16.14428,2.64465,0,0-28.12067,13.83513-36.52336,7.1475a28.77085,28.77085,0,0,0-25.14095,7.94282s-10.57757,6.35219-16.40293,8.20129c0,0-5.82536,17.46666-1.32221,26.73156,0,0,21.70134-1.06361,23.2822-4.23479,0,0,8.738,24.87264,8.21106,44.18817,0,0-9.91648,25.7828-10.91295,31.67536,0,0,29.70158,1.66711,40.81576,5.6336,11.11411,3.97632,31.22495,4.5031,30.698,2.1174-.53654-2.37611,3.69831-52.974,6.084-60.61976,2.18453-7.01347,6.59184-30.10415,7.31043-33.85989l-9.69613,10.59658,9.59075-11.296a.26391.26391,0,0,1,.38327-.02877l.01912.01918c2.11746-2.0505,20.49411-19.96722,21.50012-24.94937C402.5891,154.86387,397.032,136.60213,393.33367,136.07536ZM312.0184,235.00079a25.90176,25.90176,0,0,1-1.27431,3.85141,37.35478,37.35478,0,0,1-1.83,3.60253c.36409-1.30291.88145-2.52933,1.20723-3.81329a36.72245,36.72245,0,0,0,.87186-3.86123,33.98844,33.98844,0,0,0,.527-7.81814,35.03576,35.03576,0,0,0-1.16893-7.76083,38.73028,38.73028,0,0,0-2.75938-7.44458,23.93782,23.93782,0,0,1,3.76539,7.13815c.20123.65146.43117,1.29332.594,1.9546l.45993,1.99272.297,2.02172c.09579.67064.10538,1.36045.15327,2.04068A26.7819,26.7819,0,0,1,312.0184,235.00079Zm.92941-35.77612a12.34615,12.34615,0,0,1-.85274-1.35086,29.08791,29.08791,0,0,1-1.38928-2.8554,59.84653,59.84653,0,0,1-2.14617-5.92109c-.61321-2.01213-1.15934-4.03363-1.61922-6.08412a58.403,58.403,0,0,1-1.09226-6.20857c.77607,1.96418,1.44676,3.94754,2.09827,5.93067.67069,1.98337,1.26472,3.97633,1.89711,5.95969.61315,1.993,1.21677,3.98568,1.84916,5.95945.14368.49824.33531.9773.48859,1.47554.15333.498.33537.98688.51742,1.46594l.25871.73777.31613.70876a10.50458,10.50458,0,0,0,.71859,1.37987A6.94487,6.94487,0,0,1,312.94781,199.22467Zm1.74377-13.31795c-.05748,2.16535.00954,4.3307-.01918,6.53442a37.40178,37.40178,0,0,1-1.03478-6.50564c-.115-1.10174-.09579-2.19389-.14368-3.29587.01912-1.102.02871-2.20371.0862-3.29586a51.69051,51.69051,0,0,1,.78566-6.544,35.81473,35.81473,0,0,1,1.69588-6.36179c-.47906,4.35924-.91022,8.66141-1.13057,12.98228C314.78737,181.576,314.72989,183.74161,314.69158,185.90672Zm24.21154,30.93759h-4.39771v13.11655H330.4909V216.84431H315.88923V212.552l14.02677-30.7556h4.58941v29.93176h4.39771Z"/><path d="M297.00644,305.96333A66.8621,66.8621,0,0,0,304.279,314.043a33.20039,33.20039,0,0,0,8.69719,6.07641,19.49766,19.49766,0,0,0,2.43195.97121c.83473.29263,1.7439.53,2.60617.81754,1.73933.57519,3.48229,1.138,5.19887,1.77939a90.09737,90.09737,0,0,1,10.11343,4.30614l-10.54547-2.97283-5.25665-1.48419c-.88116-.25286-1.73986-.47906-2.6347-.76934a20.74449,20.74449,0,0,1-2.66429-1.01753,26.82238,26.82238,0,0,1-4.82386-2.9347,35.20252,35.20252,0,0,1-4.11076-3.78568A37.75156,37.75156,0,0,1,297.00644,305.96333Z"/><path d="M356.613,340.19515a55.16857,55.16857,0,0,1,4.48532-12.32825,63.48827,63.48827,0,0,1,7.05733-11.13833,50.9143,50.9143,0,0,1,9.44747-9.22841l2.697-1.91273c.94812-.563,1.91746-1.09051,2.87336-1.63085l1.44419-.78783,1.52185-.63508q1.52155-.62875,3.04545-1.21378-1.41024.84876-2.8189,1.65705l-1.41028.8-1.32823.93566c-.88525.61941-1.78453,1.21168-2.65493,1.84115l-2.49722,2.04348a63.70289,63.70289,0,0,0-8.91613,9.25016,85.75611,85.75611,0,0,0-7.22879,10.67635A100.96951,100.96951,0,0,0,356.613,340.19515Z"/><path d="M284.78129,321.46347c3.40808,1.4201,6.72464,3.0161,10.00349,4.68181,3.28446,1.65635,6.51166,3.41843,9.714,5.22753,3.18779,1.8339,6.35172,3.71457,9.43,5.74261,1.54734.99882,3.06077,2.05729,4.55374,3.14405.72776.5759,1.48571,1.09543,2.18347,1.7146l1.05046.90829.94385,1.02315-1.11186-.81-1.17355-.71742c-.76876-.48771-1.58624-.91928-2.37406-1.37986l-4.79766-2.68371-9.5939-5.38261c-3.1761-1.83554-6.35986-3.66077-9.5011-5.56531C290.9612,325.47207,287.83552,323.53713,284.78129,321.46347Z"/><path d="M333.29776,294.367q8.43428-3.16628,16.76083-6.58026c2.76674-1.15156,5.52916-2.3188,8.22415-3.606.68134-.3083,1.34279-.64959,2.0084-.98315.67157-.32491,1.32624-.67461,1.97032-1.0346l.97391-.52982.92361-.58128a12.70921,12.70921,0,0,0,1.68436-1.25285l.063-.05006a.7008.7008,0,0,1,.90713.03l12.9366,11.76685,6.41237,5.94425c2.12933,1.99038,4.2838,3.95316,6.39249,5.966l.00783.00748a.71174.71174,0,0,1,.02345,1.00631.72462.72462,0,0,1-.21841.15578,46.42454,46.42454,0,0,0-10.53033,6.85816,72.82774,72.82774,0,0,0-8.76374,9.1966,105.02558,105.02558,0,0,0-7.28294,10.467,112.01355,112.01355,0,0,0-5.964,11.26885.3323.3323,0,0,1-.51766.11672l-.01146-.00982a21.63243,21.63243,0,0,0-3.00926-2.09c-1.05033-.65075-2.14-1.25028-3.22428-1.85237-2.17354-1.2-4.3862-2.33681-6.60453-3.45984-4.44105-2.2381-8.94157-4.3714-13.436-6.493l.88672-.2428L321.938,346.53588a.85782.85782,0,0,1-1.12173.28327l-.01106-.00608c-6.42769-3.487-12.89052-6.90985-19.28933-10.44968L282.286,325.8047l-.0055-.003a.89383.89383,0,0,1-.35338-1.21378l.02052-.03533c1.172-1.92067,2.31524-3.87924,3.40855-5.85068a61.16743,61.16743,0,0,0,2.98833-6.00763l.28613-.75976.2176-.74034.04339-.31555.02638-.15977.0145-.22783c.02245-.29824.03333-.62011.06819-.89683.11456-1.14571.25479-2.27435.39362-3.40486q.42445-3.387.92414-6.75827.97735-6.74729,2.0316-13.48006c.7552-4.483,1.43741-8.97017,2.39319-13.42858a.08956.08956,0,0,1,.176.03321l-.00169.01029c-.7466,4.4638-1.22765,8.99193-1.77729,13.496l-1.60284,13.52566-.7473,6.76365c-.11643,1.1256-.23433,2.25307-.32433,3.36908-.03011.28772-.02965.53426-.04678.80233l-.01012.19719-.0259.26269-.06544.52888-.24374.8987-.29766.84022a62.49,62.49,0,0,1-2.95393,6.24413c-1.07145,2.02126-2.1791,4.00836-3.33662,5.98611l-.3383-1.25191,19.2733,10.47916c6.43553,3.4727,12.80708,7.06259,19.21377,10.58792l-1.13255.27743,12.24094-17.97075.00708-.01029a.69483.69483,0,0,1,.87987-.23252c4.48134,2.19974,8.901,4.5045,13.29812,6.86307,2.1936,1.18829,4.38632,2.378,6.5426,3.64088a45.37929,45.37929,0,0,1,6.28114,4.18053l-.52888.10667a112.52158,112.52158,0,0,1,6.10331-11.285,109.23027,109.23027,0,0,1,7.20628-10.61084,80.98839,80.98839,0,0,1,8.61491-9.547,47.47651,47.47651,0,0,1,10.63266-7.37581l-.18707,1.16935c-2.18044-1.93471-4.31515-3.919-6.47494-5.87618l-6.45512-5.8977-12.79825-11.91726.96981-.02012a13.76414,13.76414,0,0,1-1.93254,1.41916l-.99.60584-1.01057.5352c-.66911.36935-1.35454.6959-2.04254,1.00934-.68631.31976-1.36952.64748-2.06512.9387-2.76213,1.22314-5.56753,2.31459-8.37737,3.39083-2.80722,1.0828-5.64589,2.07576-8.49047,3.04745-2.84423.97262-5.69624,1.91927-8.57018,2.80043a.08982.08982,0,0,1-.05766-.17006Z"/><path d="M328.96022,302.9863c5.96758-2.84511,11.98527-5.4273,17.88461-8.25135q4.44607-2.06735,8.7514-4.38754a60.68926,60.68926,0,0,0,8.29486-5.22332,32.4552,32.4552,0,0,1-7.57651,6.42681c-1.37255.94478-2.83692,1.72231-4.26935,2.56184-1.46688.76887-2.9361,1.53775-4.43187,2.24441-2.99821,1.40185-6.04565,2.68838-9.16017,3.79153A80.16586,80.16586,0,0,1,328.96022,302.9863Z"/><line x1="380.03504" y1="185.102" x2="379.73803" y2="185.81101" fill="none"/><path d="M351.36553,272.0983c-2.92394,0-4.9197-.19181-4.96742-.19649a.27527.27527,0,0,1-.247-.30128.26353.26353,0,0,1,.30128-.247c.11976.01217,11.87446,1.14057,20.28136-2.16792a.27557.27557,0,1,1,.2021.51274C361.87392,271.69035,355.6312,272.0983,351.36553,272.0983Z"/><path d="M349.81046,276.41543a41.19677,41.19677,0,0,1-11.00616-1.14992c-8.39661-2.53751-23.47851-2.443-23.63571-2.44582h-.00187a.276.276,0,0,1-.00187-.552c.14222.00562,15.3233-.09169,23.79851,2.47014,8.37977,2.53284,27.27822.01591,27.46816-.00935a.27576.27576,0,1,1,.07485.54642A144.77232,144.77232,0,0,1,349.81046,276.41543Z"/><path d="M317.11816,158.03669a8.12259,8.12259,0,0,0,3.54767-4.13678,9.97331,9.97331,0,0,0,.54292-2.69915c.05128-.46338.00432-.93191.01415-1.40278-.02345-.47017-.08515-.9387-.10228-1.42034.1393.4552.25543.92093.37081,1.38969.04585.47719.14146.956.14129,1.44139a7.935,7.935,0,0,1-.45093,2.8844,6.78914,6.78914,0,0,1-1.60431,2.44909A6.00961,6.00961,0,0,1,317.11816,158.03669Z"/><path d="M335.41054,144.30916a29.812,29.812,0,0,0,2.24664,3.38077,26.35442,26.35442,0,0,0,2.6716,3.03014,18.15321,18.15321,0,0,0,3.14937,2.45751,11.27025,11.27025,0,0,0,3.64223,1.38267l.01807.00327a.44926.44926,0,1,1-.15848.88444l-.0235-.00468a12.03629,12.03629,0,0,1-3.83867-1.69682,18.69069,18.69069,0,0,1-3.10984-2.71224,26.67146,26.67146,0,0,1-2.533-3.21329A29.911,29.911,0,0,1,335.41054,144.30916Z"/><path d="M330.8457,140.93507s1.14994,7.96221-9.547,8.39708c0,0-2.46044-9.38944-8.91074-12.3665s-6.05335-14.58759-.39694-20.14477c0,0-4.7633-11.61053,11.61053-13.1983s18.954-1.9847,20.641-.89311,5.65641,8.7327-1.58777,8.93118-15.08377-4.36636-14.38912,1.38929,5.35871,8.73271,6.64877,9.92353,6.83192,5.64186,4.06865,14.19065c0,0-3.87018.89312-3.57247-.19847s1.19082-7.64112-3.374-8.53424S326.28088,136.271,330.8457,140.93507Z"/><path d="M345.796,122.79905a3.5661,3.5661,0,0,1,1.45483-.065,5.1507,5.1507,0,0,1,1.39308.40724,4.00391,4.00391,0,0,1,2.07272,1.99132c-.46339-.197-.84742-.422-1.25414-.61169-.40128-.19157-.78811-.3918-1.19214-.56373C347.47412,123.57939,346.66612,123.25658,345.796,122.79905Z"/><path d="M344.22568,111.44107a28.01588,28.01588,0,0,1,4.141,4.24415,20.04622,20.04622,0,0,1,3.0199,5.15362,12.36557,12.36557,0,0,1,.67713,2.94195c.04684,1.026-.03416,1.99459-.04755,2.97656-.01444.98081.01263,1.96232.08614,2.93751a12.74766,12.74766,0,0,0,.48374,2.8575,3.00716,3.00716,0,0,0,.63291,1.16864,1.4307,1.4307,0,0,0,.5183.31813l.681.30549a9.09914,9.09914,0,0,1,2.60388,1.64349,1.74255,1.74255,0,0,1,.48391.82478,1.12282,1.12282,0,0,1-.03357.60537,1.47721,1.47721,0,0,1-.30415.45005,4.63871,4.63871,0,0,1-1.37927.88116c-.90935.429-1.9108.71017-2.64968,1.12747a.861.861,0,0,0-.18274.13123s-.038.03368-.00357-.01146a.06478.06478,0,0,0-.00257-.0524l.00994.04725a2.24818,2.24818,0,0,0,.06052.2835l.09047.34269.39994,1.41144c.26245.94993.51578,1.90688.73753,2.87318a21.26711,21.26711,0,0,1,.46362,2.948,7.31018,7.31018,0,0,1-.00544,1.50407,2.91217,2.91217,0,0,1-.46391,1.43063.04445.04445,0,0,1-.0776-.04281l.00357-.00795a5.00625,5.00625,0,0,0,.09251-2.82874,26.14267,26.14267,0,0,0-.69292-2.82873c-.27028-.93636-.57186-1.86524-.8849-2.79435-.15865-.46525-.31139-.92911-.4566-1.4091l-.107-.36748a2.71148,2.71148,0,0,1-.09567-.43555l-.01549-.13474a1.27378,1.27378,0,0,1,.04625-.23017.78733.78733,0,0,1,.186-.32,1.67263,1.67263,0,0,1,.39262-.3221,28.45221,28.45221,0,0,1,2.77447-1.16888,3.915,3.915,0,0,0,1.12139-.64654c.1383-.14082.142-.15532.126-.26269a.938.938,0,0,0-.25509-.425,9.52153,9.52153,0,0,0-2.30026-1.578l-.6473-.33356a2.08909,2.08909,0,0,1-.68432-.51181,3.52038,3.52038,0,0,1-.65619-1.45167,32.95716,32.95716,0,0,1-.38765-5.92741l-.02959-1.47647c-.00515-.49754-.0893-.96186-.12772-1.43834a12.4632,12.4632,0,0,0-.87572-2.72815,38.56393,38.56393,0,0,0-6.5274-9.60806.045.045,0,0,1,.00176-.06362A.04712.04712,0,0,1,344.22568,111.44107Z"/><path d="M349.20415,133.3465a.44922.44922,0,0,1-.44911-.44911v-3.77165a.44912.44912,0,0,1,.89823,0v3.77165A.44923.44923,0,0,1,349.20415,133.3465Z"/><path d="M351.72494,141.74592a11.64279,11.64279,0,0,0-2.20161,1.85752c-.335.33029-.63239.70058-.962,1.05917-.32076.36748-.63631.74806-1.0256,1.11811a4.85323,4.85323,0,0,1,1.33986-2.79832A4.57017,4.57017,0,0,1,350.164,142.04,2.7228,2.7228,0,0,1,351.72494,141.74592Z"/><path d="M274.2702,200.99471c-3.58732,1.13589-7.22844,2.07038-10.8688,3.00908-1.821.46619-3.64936.90244-5.4808,1.324a36.189,36.189,0,0,1-5.62244,1.04957,8.208,8.208,0,0,1-5.69577-1.6084,10.37747,10.37747,0,0,1-3.24-4.96344,32.6475,32.6475,0,0,1-1.22186-5.62121l-.20169-1.39483c-.06813-.46082-.093-.98736-.13859-1.47858-.02012-.97472-.0031-1.93845.05953-2.88838.52678-7.58984,2.04576-14.95956,3.3775-22.34894.35391-1.84675.71952-3.67153.94536-5.50916.23474-1.84465.40222-3.70849.54573-5.57419.28268-3.73235.46613-7.48224.58818-11.22722l.29145.36935a1.87265,1.87265,0,0,1-.9622-.87624,8.49916,8.49916,0,0,1-.526-.96467c-.30415-.65169-.55432-1.3153-.78923-1.98266-.46807-1.33495-.84958-2.69049-1.201-4.05234a69.15133,69.15133,0,0,1-1.578-8.28457,16.27959,16.27959,0,0,1-.09345-4.26942,4.45874,4.45874,0,0,1,.87748-2.04815,3.74571,3.74571,0,0,1,1.89991-1.19975,12.22385,12.22385,0,0,1,2.12073-.33941c.33088-.03813.67549-.11252.65666-.21965a5.16683,5.16683,0,0,1,.61865-.94244,5.05591,5.05591,0,0,1,1.71846-1.447,1.867,1.867,0,0,1,1.27074-.15158l.323.12678.23187.11813.46368.236a.38672.38672,0,0,1,.21128.33918l.00006.00842.00012.00889-.21111-.34737a13.81045,13.81045,0,0,0,1.43367.64093,3.07333,3.07333,0,0,0,.67817.17614c.08965.00865.17082-.0138.137-.004a.12635.12635,0,0,0-.04655.04445.22183.22183,0,0,0,.01485-.06924,6.01555,6.01555,0,0,0-.32748-1.4056,12.82493,12.82493,0,0,1-.38736-1.61237,5.25127,5.25127,0,0,1,.13-3.50054,3.05382,3.05382,0,0,1,1.38314-1.34244,4.309,4.309,0,0,1,.887-.30736,2.024,2.024,0,0,1,.58152-.06012,1.39472,1.39472,0,0,1,.633.26058,4.397,4.397,0,0,1,1.13408,1.49215c.26578.50619.48812,1.01542.69759,1.52652.20859.51134.40081,1.02432.58754,1.53378l.27818.75555a3.17986,3.17986,0,0,0,.27.61052.721.721,0,0,0,.114.14432.29974.29974,0,0,0-.18093-.066.48666.48666,0,0,0-.30082.0793c-.07339.07508-.00859-.00071.015-.076a2.84312,2.84312,0,0,0,.09269-.29847,10.5008,10.5008,0,0,0,.22906-1.49472,16.90143,16.90143,0,0,1,.44081-3.33633,4.45567,4.45567,0,0,1,.86414-1.71062,3.06962,3.06962,0,0,1,1.81518-1.02946,5.96493,5.96493,0,0,1,.93157-.0814l.21392-.00234a1.57624,1.57624,0,0,1,.40929.06059,1.647,1.647,0,0,1,.65736.371,3.5207,3.5207,0,0,1,.91431,1.8629,14.89582,14.89582,0,0,1-.59654,6.78471,33.484,33.484,0,0,0-.96747,6.22284c-.16164,2.119-.2276,4.27315-.21012,6.38915l-1.738-.34924a5.08563,5.08563,0,0,1,1.15185-1.58079,8.57793,8.57793,0,0,1,1.42022-1.08163,13.21107,13.21107,0,0,1,1.51126-.81215,15.4462,15.4462,0,0,1,1.59507-.63835l-.06316.02222,1.24426-.43134c.43028-.11228.86671-.21731,1.306-.30713a8.21388,8.21388,0,0,1,2.78248.00327,5.91041,5.91041,0,0,1,2.63259,1.21309,5.66277,5.66277,0,0,1,1.73694,2.39271.90987.90987,0,0,1-.96934,1.23157l-.08246-.0117a10.21234,10.21234,0,0,0-4.57842.37918,5.74183,5.74183,0,0,0-3.315,2.80393,12.6702,12.6702,0,0,1-3.73381,3.98732,17.02661,17.02661,0,0,1-4.84759,2.37166l.635-.727a11.92132,11.92132,0,0,0-.06544,1.43975c.00035.50947.01175,1.02572.02883,1.5429.03444,1.03508.08894,2.07553.15117,3.116l.002.05731c.16,2.64277.37836,5.46964.6038,8.20013l.71753,8.2593,1.51957,16.51954-.45467-.30082,10.9771-2.9499a.08988.08988,0,0,1,.0507.1724l-10.82658,3.46171a.34937.34937,0,0,1-.43935-.22643l-.01286-.055-.00275-.01942c-.39216-2.74031-.72233-5.48647-1.07455-8.23123l-1.01127-8.23966c-.33532-2.74733-.62034-5.50027-.90783-8.25439-.282-2.777-.55139-5.46027-.77478-8.33555l.002.05684c-.08368-1.04935-.15977-2.10033-.21608-3.15832-.028-.52935-.05041-1.06034-.0614-1.59834a13.12053,13.12053,0,0,1,.05081-1.69846.84349.84349,0,0,1,.57315-.70689l.062-.02035a16.54425,16.54425,0,0,0,4.27421-2.15225,10.85565,10.85565,0,0,0,3.19089-3.42078c.20579-.32467.48877-.81074.77192-1.17893a7.09765,7.09765,0,0,1,1.0194-1.051,7.67717,7.67717,0,0,1,2.50161-1.414,11.97461,11.97461,0,0,1,5.51437-.47672l-1.05168,1.21987a4.14693,4.14693,0,0,0-.46169-.81216,3.94794,3.94794,0,0,0-2.48149-1.52232,6.33679,6.33679,0,0,0-2.11465.01427l-1.09075.24819-1.08554.3628-.06356.02222a13.75041,13.75041,0,0,0-1.38127.53754,11.39237,11.39237,0,0,0-1.31542.68724,4.76009,4.76009,0,0,0-1.88,1.8105l-.01666.03556a.90321.90321,0,0,1-1.72144-.385c.00631-2.20277.09754-4.36929.28783-6.55476a35.02156,35.02156,0,0,1,1.10063-6.548,13.75142,13.75142,0,0,0,.64806-5.99688,2.24791,2.24791,0,0,0-.41368-1.03928.18463.18463,0,0,1-.03643-.03088c.00333-.00842.00667.00748.01117-.00351l-.19093-.00164a4.47194,4.47194,0,0,0-.68146.04234,1.54059,1.54059,0,0,0-.95747.51017,3.029,3.029,0,0,0-.59163,1.15367,16.01345,16.01345,0,0,0-.44993,3.06709,11.6838,11.6838,0,0,1-.2993,1.69822,4.05676,4.05676,0,0,1-.15982.46994,1.50084,1.50084,0,0,1-.417.59765.91435.91435,0,0,1-.66643.21052.99244.99244,0,0,1-.54151-.233,1.90069,1.90069,0,0,1-.39549-.48093,4.28928,4.28928,0,0,1-.37076-.87274l-.25894-.77262c-.16994-.50994-.342-1.01355-.52695-1.50782-.18532-.49379-.38233-.981-.60543-1.43787a3.5706,3.5706,0,0,0-.74812-1.1118c-.16953-.08187.02129-.07813-.31976-.03088a3.22873,3.22873,0,0,0-.64689.20164,1.97941,1.97941,0,0,0-.93017.8435,4.32606,4.32606,0,0,0-.118,2.84183,11.95373,11.95373,0,0,0,.329,1.54454,5.74758,5.74758,0,0,1,.31315,1.75319,1.0724,1.0724,0,0,1-.09.31976.76413.76413,0,0,1-.30918.34175,1.09853,1.09853,0,0,1-.65186.10456,3.79024,3.79024,0,0,1-.88162-.24514,14.51654,14.51654,0,0,1-1.505-.71789l-.0072-.00374a.38405.38405,0,0,1-.204-.34385l.00012-.00889.21116.34736-.46566-.25216-.23275-.12631c-.05754-.02176-.1097-.043-.16368-.06948a1.13439,1.13439,0,0,0-.7732.091,4.4022,4.4022,0,0,0-1.48922,1.207,4.351,4.351,0,0,0-.54292.80069,1.12529,1.12529,0,0,1-.27239.33333,1.63853,1.63853,0,0,1-.33281.1462,3.70115,3.70115,0,0,1-.57151.10315,11.73207,11.73207,0,0,0-2.02266.29918,3.11922,3.11922,0,0,0-1.60466.98408,3.8605,3.8605,0,0,0-.76473,1.76068,15.8537,15.8537,0,0,0,.05965,4.10006,58.6833,58.6833,0,0,0,1.63051,8.19076c.36485,1.34384.75987,2.68114,1.23489,3.98264.23778.64958.49081,1.29425.78672,1.90781a7.82327,7.82327,0,0,0,.48865.87157,1.43119,1.43119,0,0,0,.53011.542.38023.38023,0,0,1,.29163.36982c-.00293,3.76322-.06684,7.52083-.23175,11.28476-.08673,1.88184-.19743,3.76392-.37871,5.65091-.17468,1.89729-.49058,3.76837-.78654,5.61887-1.24349,7.3985-2.62084,14.80191-3.28615,22.19315-.07234.9235-.098,1.83694-.09135,2.73985.04.443.0455.85706.1083,1.32583l.18445,1.3946a31.33361,31.33361,0,0,0,1.09706,5.38636,9.45409,9.45409,0,0,0,2.72873,4.39666,7.00089,7.00089,0,0,0,4.8507,1.49238,35.55728,35.55728,0,0,0,5.45893-.86174l5.51472-1.12256c3.67457-.75718,7.34165-1.56138,10.98669-2.44932a.09006.09006,0,0,1,.10994.06385A.092.092,0,0,1,274.2702,200.99471Z"/><path d="M248.84423,192.4381a52.95667,52.95667,0,0,1,2.95072-4.58684,43.76024,43.76024,0,0,1,3.43206-4.25679,25.10532,25.10532,0,0,1,4.07755-3.69024,12.63419,12.63419,0,0,1,5.09157-2.30008.44925.44925,0,0,1,.15175.8856l-.0169.00257-.01257.00164a11.88109,11.88109,0,0,0-4.83432,1.96676,24.55372,24.55372,0,0,0-4.13252,3.44393,43.45722,43.45722,0,0,0-3.57679,4.08088A52.90085,52.90085,0,0,0,248.84423,192.4381Z"/><path d="M254.71321,116.12653c.34125,1.47265.74532,2.32594.51188,2.775-.24248.50272-1.58951-.09888-2.76591-.70947v-.009A16.33335,16.33335,0,0,1,254.71321,116.12653Z"/><path d="M261.48425,113.84552c-.3053,4.36447-.99679,3.673-1.39192,2.9725-.17961-.32339-.58373-1.66142-1.10454-2.98148a15.39369,15.39369,0,0,1,2.55932-.6915C261.52015,113.36955,261.50222,113.603,261.48425,113.84552Z"/><path d="M280.70185,129.12981A16.24428,16.24428,0,0,1,264.45668,145.366a16.69921,16.69921,0,0,1-3.3047-.33237v-.009a43.47018,43.47018,0,0,1-.17062-6.27713s5.6575-1.58052,8.136-6.1513c2.48753-4.562,8.7377-3.46644,8.7377-3.46644s-1.65233-4.96607-8.46831-2.29c0,0-4.13985,1.29309-5.12764,3.57409,0,0-.09883-8.23475,1.29314-12.89541a17.47379,17.47379,0,0,0,.7633-4.526A16.238,16.238,0,0,1,280.70185,129.12981Z"/><path d="M401.46414,160.09772q4.50758-5.97747,9.39461-11.6637a75.16867,75.16867,0,0,1,5.18362-5.46542,16.39549,16.39549,0,0,1,1.49436-1.23671,4.94636,4.94636,0,0,1,.91724-.53614,1.79,1.79,0,0,1,.69818-.15181,1.493,1.493,0,0,1,.25672.0372,1.24429,1.24429,0,0,1,.17269.061,1.56258,1.56258,0,0,1,.29432.142,11.882,11.882,0,0,1,1.51519,1.30338,14.08387,14.08387,0,0,0,1.39974,1.113,27.501,27.501,0,0,0,6.52483,3.19878,68.99994,68.99994,0,0,0,7.09727,2.07951c4.81613,1.13963,9.712,1.981,14.62079,2.74382,2.45634.37262,4.92122.69823,7.3892,1.00349q3.69942.48456,7.40914.8966a31.68171,31.68171,0,0,1,3.75966.57028,14.40044,14.40044,0,0,1,3.66661,1.26525,4.26661,4.26661,0,0,1,1.58735,1.37051,2.32765,2.32765,0,0,1,.15052,2.2016,14.27967,14.27967,0,0,1-1.99377,3.29142c-.762,1.003-1.57039,1.956-2.30243,2.94663a11.158,11.158,0,0,0-.98408,1.51717,2.44979,2.44979,0,0,0-.26941.771.77137.77137,0,0,0,.02275.32164.73333.73333,0,0,0,.18292.28608,8.394,8.394,0,0,0,2.95809,1.98687c.27859.124.563.24.84642.34385l.05287.01918.02491.00866c.31181.89636.07795.26175.14368.46783l-.05941.09216-.11877.18433c-.06608.13029-.14731.25333-.20216.38923a4.39946,4.39946,0,0,0-.41333,1.69612,4.30486,4.30486,0,0,0,.27374,1.72723,6.7501,6.7501,0,0,0,.91817,1.54079,25.83393,25.83393,0,0,0,2.331,2.86476,9.34661,9.34661,0,0,0,1.35887,1.19086,2.25064,2.25064,0,0,0,1.52793.51976,5.21879,5.21879,0,0,0,1.7-.41964,2.34491,2.34491,0,0,0,1.16759-1.04607l.00737-.01754a.34544.34544,0,0,1,.34947-.20749,9.81732,9.81732,0,0,0,3.1458-.1883,3.0991,3.0991,0,0,0,2.28979-1.62617.38751.38751,0,0,1,.25193-.23064l.02655-.00772a15.57407,15.57407,0,0,0,3.05738-1.22712,6.19329,6.19329,0,0,0,2.37272-2.00723.5042.5042,0,0,1,.20327-.18643l.0186-.00912a10.435,10.435,0,0,0,2.41213-1.63927,4.0499,4.0499,0,0,0,1.37788-2.2629l.13649.47391-2.26582-2.5506a.61462.61462,0,0,1,.45075-1.02268l.18842-.00234c.315-.004.37637-.00538.44818-.51087a5.19345,5.19345,0,0,0-.26842-1.64442,16.8083,16.8083,0,0,0-1.46851-3.37306,42.45071,42.45071,0,0,0-4.39129-6.11289,30.108,30.108,0,0,0-5.53115-5.00462,29.52548,29.52548,0,0,0-3.18639-1.94757l-3.4134-1.7153c-4.58018-2.28067-9.205-4.46941-13.82876-6.65465-4.6255-2.18172-9.28163-4.29678-13.98081-6.30283-4.70332-1.99389-9.44022-3.90638-14.23787-5.61958-2.401-.84864-4.823-1.63342-7.27055-2.29073a36.75571,36.75571,0,0,0-7.4-1.3298,14.60709,14.60709,0,0,0-1.822.03134c-.57438.05521-1.22665.19415-1.83705.29731-1.23723.2421-2.46347.54783-3.67925.89636a49.6786,49.6786,0,0,0-7.099,2.7195,61.689,61.689,0,0,0-12.92866,8.11614l-.00374.003a.08968.08968,0,0,1-.11725-.13567,60.322,60.322,0,0,1,12.66679-8.76432,50.6866,50.6866,0,0,1,7.15066-3.00487c1.235-.39766,2.48587-.75251,3.755-1.0435.64835-.13029,1.24624-.284,1.94512-.37683a14.26484,14.26484,0,0,1,2.01547-.09451,38.07,38.07,0,0,1,7.72925,1.22525c2.51441.62268,4.986,1.37074,7.43218,2.18149,4.89759,1.61,9.68338,3.50264,14.41612,5.50308,9.46852,3.99621,18.75465,8.38352,27.88909,13.063,1.14794.58924,2.27295,1.15391,3.43457,1.77378a31.26583,31.26583,0,0,1,3.3444,2.09494,30.85757,30.85757,0,0,1,5.7701,5.35432,43.81714,43.81714,0,0,1,4.43982,6.44295,18.14534,18.14534,0,0,1,1.52,3.69141,6.11954,6.11954,0,0,1,.27134,2.14009,1.93732,1.93732,0,0,1-.59133,1.28747,1.51363,1.51363,0,0,1-.736.35134,1.79319,1.79319,0,0,1-.75893-.02433l.639-1.02478,2.19892,2.60838.01345.01591a.5639.5639,0,0,1,.12316.45847,5.13652,5.13652,0,0,1-1.812,2.88932,10.35054,10.35054,0,0,1-1.30676.96911,11.7752,11.7752,0,0,1-1.42677.77332l.22164-.19532a7.09208,7.09208,0,0,1-2.80172,2.29331,16.39657,16.39657,0,0,1-3.27925,1.2201l.27824-.23813a3.11607,3.11607,0,0,1-1.23308,1.38665,5.23729,5.23729,0,0,1-1.64618.63788,10.99731,10.99731,0,0,1-3.39469.13006l.3566-.22456a2.89177,2.89177,0,0,1-1.52816,1.42408,5.84089,5.84089,0,0,1-1.91518.45894,2.8592,2.8592,0,0,1-1.93366-.64491,9.90715,9.90715,0,0,1-1.43828-1.28162,26.34575,26.34575,0,0,1-2.35839-2.9527,7.2651,7.2651,0,0,1-.969-1.673,5.14907,5.14907,0,0,1-.32169-1.93892,4.96881,4.96881,0,0,1,.44216-1.91764c.06105-.15391.1493-.29473.22333-.44257l.13134-.21052.0662-.10479c.06731.19274-.12725-.46853.15509.42549l-.03041-.01029-.05725-.01989c-.3031-.10666-.59748-.22268-.88987-.34853a8.94608,8.94608,0,0,1-3.21592-2.123,1.36229,1.36229,0,0,1-.30731-.49894,1.42358,1.42358,0,0,1-.05655-.6014,3.06311,3.06311,0,0,1,.32286-.993,11.738,11.738,0,0,1,1.02549-1.63062c.74449-1.01823,1.52155-1.99108,2.23318-2.99926a13.53232,13.53232,0,0,0,1.77887-3.138,1.37282,1.37282,0,0,0-.11029-1.36864,3.34087,3.34087,0,0,0-1.25864-.9918,13.48324,13.48324,0,0,0-3.41879-1.05309,30.37192,30.37192,0,0,0-3.64591-.43835q-3.73635-.29614-7.4651-.67344c-2.48289-.28257-4.96432-.586-7.441-.9373-2.47663-.34877-4.951-.73075-7.41434-1.18805-2.45944-.47906-4.91315-.99835-7.3482-1.61659a70.45582,70.45582,0,0,1-7.22359-2.21167,28.47942,28.47942,0,0,1-6.816-3.4603,15.39666,15.39666,0,0,1-1.48869-1.25753,13.0587,13.0587,0,0,0-1.266-1.185c-.06269-.05474-.2283-.099-.142-.08444a.744.744,0,0,0-.20807.05122,3.85765,3.85765,0,0,0-.70309.38971,15.32691,15.32691,0,0,0-1.417,1.10641c-1.84377,1.61261-3.565,3.41891-5.26022,5.23221-3.40095,3.62943-6.66851,7.39639-9.91817,11.17646a.08961.08961,0,0,1-.1266.01076A.09062.09062,0,0,1,401.46414,160.09772Z"/><path d="M477.317,166.8354a18.24167,18.24167,0,0,1,5.27139-1.85167,2.716,2.716,0,0,1,1.441.13895,1.70623,1.70623,0,0,1,.85695,1.20139,3.555,3.555,0,0,1-.74046,2.77306,4.61762,4.61762,0,0,1-1.04841,1.02712,4.452,4.452,0,0,1-1.338.60748,22.64346,22.64346,0,0,1-2.751.66548,10.88223,10.88223,0,0,1-5.74992-.18456.44931.44931,0,0,1,.31988-.83975l.01953.008.037.01638a10.26145,10.26145,0,0,0,5.26853.33473,22.04483,22.04483,0,0,0,2.69856-.53894,3.75714,3.75714,0,0,0,2.18734-1.3691,3.17538,3.17538,0,0,0,.76735-2.43061,1.40992,1.40992,0,0,0-.65086-1.0187,2.489,2.489,0,0,0-1.29706-.16725A18.16168,18.16168,0,0,0,477.317,166.8354Z"/><path d="M496.271,167.92709c-.77882-.72982-1.573-1.42712-2.39821-2.06594a10.48385,10.48385,0,0,0-2.58874-1.58805,2.89534,2.89534,0,0,0-1.33308-.22152,2.9404,2.9404,0,0,0-1.20291.55649,1.73487,1.73487,0,0,0-.66385,1.04887,2.29333,2.29333,0,0,0,.22608,1.30057l.0186.03672a.32343.32343,0,0,1-.14176.43485.3271.3271,0,0,1-.30619-.00725,5.26187,5.26187,0,0,0-1.58863-.61871,1.6873,1.6873,0,0,0-.83321.01544,1.32585,1.32585,0,0,0-.6835.51321,1.26558,1.26558,0,0,1,.59976-.7118,1.98263,1.98263,0,0,1,.94876-.21076,4.70609,4.70609,0,0,1,1.8636.43532l-.42924.46408a2.76989,2.76989,0,0,1-.46221-1.748,2.43025,2.43025,0,0,1,.90045-1.62594,3.54739,3.54739,0,0,1,1.644-.76912,3.74306,3.74306,0,0,1,1.76617.31017,9.04564,9.04564,0,0,1,2.66558,1.93518A14.71905,14.71905,0,0,1,496.271,167.92709Z"/><path d="M478.40859,173.782a35.51387,35.51387,0,0,1,2.51272,2.7078,17.85133,17.85133,0,0,1,1.12525,1.49424,6.016,6.016,0,0,1,.8718,1.76723.45026.45026,0,1,1-.86923.23532.43337.43337,0,0,1-.01146-.05614l-.00152-.011a5.32294,5.32294,0,0,0-.57181-1.59694,17.29486,17.29486,0,0,0-.9056-1.56793A35.30535,35.30535,0,0,0,478.40859,173.782Z"/><path d="M484.065,171.29686l4.64344,6.30869a.44979.44979,0,0,1-.72443.53333.45663.45663,0,0,1-.02819-.04328Z"/><path d="M489.32447,168.62181l5.11162,5.57139a.44981.44981,0,1,1-.66291.60818.511.511,0,0,1-.03368-.0414Z"/><path d="M479.69863,158.69821a11.6964,11.6964,0,0,0,1.5146,2.29587,8.51714,8.51714,0,0,0,1.99109,1.73916,7.16838,7.16838,0,0,0,1.16326.622l.61227.26362c.21473.06012.42783.12819.64163.20023.42362.1621.87917.20561,1.32536.33029.45239.08935.91414.1338,1.38536.2421a11.41249,11.41249,0,0,1-1.41811.19766,7.9071,7.9071,0,0,1-1.44489-.08608,6.969,6.969,0,0,1-2.749-1.014,6.67251,6.67251,0,0,1-2.07015-2.08231A5.96433,5.96433,0,0,1,479.69863,158.69821Z"/><path d="M181.82146,441.86277c6.85295-2.50663,13.70754-4.99853,20.52089-7.6013q10.24785-3.82521,20.41592-7.84855c13.5421-5.38285,27.06753-10.863,40.095-17.327,3.25212-1.61612,6.49582-3.25657,9.62455-5.07666a61.60759,61.60759,0,0,0,8.93736-6.01255l.97385-.89262.48777-.44584.42076-.48748.83969-.97636.81385-1.09964,3.25551-4.39853q3.24338-4.40732,6.54722-8.77041l13.15754-17.49309c4.43854-5.792,8.827-11.62,13.30848-17.37825-4.15422,6.00062-8.40141,11.93177-12.59854,17.89894l-12.74954,17.78409q-3.18039,4.45045-6.40629,8.868l-3.22124,4.42075-.80531,1.10525-.93157,1.10806-.471.549-.51713.48209-1.03589.96327a63.07755,63.07755,0,0,1-9.14356,6.25956c-3.16511,1.87038-6.4205,3.55387-9.6911,5.2004-6.58125,3.20954-13.27584,6.15009-20.017,8.966-6.74675,2.80206-13.52724,5.51665-20.38007,8.03661q-10.268,3.808-20.61329,7.38867C195.72022,437.4109,188.80377,439.73929,181.82146,441.86277Z"/><path d="M282.71658,325.01664a347.371,347.371,0,0,1-19.4864,33.69943c-1.80237,2.70733-3.67,5.37817-5.69864,7.94164a42.65078,42.65078,0,0,1-6.80546,7.19523,43.20073,43.20073,0,0,1-8.85538,4.46917c-3.03282,1.207-6.06447,2.32535-9.08028,3.50054a297.329,297.329,0,0,0-35.19479,16.24095c-2.85311,1.52676-5.72027,3.0299-8.52865,4.64157-2.82142,1.58805-5.65612,3.15481-8.43655,4.81655-2.79453,1.63717-5.63291,3.20533-8.39416,4.901q-4.15537,2.52173-8.34532,4.99432c5.36823-3.63761,10.78792-7.20294,16.286-10.65015,2.73505-1.74641,5.53928-3.37937,8.32486-5.04531,2.77353-1.68653,5.60957-3.26685,8.43293-4.87128,5.64261-3.2175,11.445-6.15243,17.30549-8.96526,5.85828-2.81867,11.849-5.37653,17.90578-7.7365,3.03435-1.1532,6.09454-2.25377,9.09508-3.41913a42.03161,42.03161,0,0,0,8.50562-4.18123,41.34643,41.34643,0,0,0,6.57131-6.85535c1.99933-2.51645,3.91392-5.11572,5.77764-7.754,3.71633-5.28695,7.20628-10.74465,10.60752-16.25569C276.14731,336.19544,279.44165,330.614,282.71658,325.01664Z"/><path d="M512.39164,443.64169a90.702,90.702,0,0,1-7.41651-9.00736c-2.33576-3.11551-4.54742-6.31664-6.78154-9.5042-4.362-6.44389-8.62082-12.95561-12.83667-19.4919-8.43328-13.07046-16.5303-26.355-25.02907-39.35385-2.10214-3.26217-4.22743-6.51172-6.44541-9.67519l-1.67846-2.35926c-.56567-.77894-1.18221-1.494-1.77009-2.24512a22.03839,22.03839,0,0,0-1.92343-2.11342l-1.0011-1.025-1.05963-.98549c-5.64963-5.26659-11.72978-10.12594-17.72455-15.058q-9.043-7.34973-18.26069-14.49477c-6.09541-4.8259-12.25744-9.56666-18.39057-14.34928,6.37559,4.45538,12.64462,9.05789,18.92395,13.64894q9.36093,6.9634,18.58747,14.114c3.076,2.38359,6.12518,4.80367,9.12385,7.29042,1.49372,1.25121,3.00885,2.47365,4.47474,3.76346l2.21441,1.91413,2.16915,1.97845,1.08233.993,1.04373,1.05308a23.29561,23.29561,0,0,1,2.01307,2.18079c.61671.77379,1.27431,1.53051,1.85629,2.3202l1.719,2.38009c2.26582,3.18756,4.42514,6.42915,6.55026,9.6918,4.21328,6.54845,8.32118,13.1535,12.41942,19.76183l12.26861,19.83576q6.10728,9.93249,12.40252,19.741c2.1181,3.25516,4.21573,6.52693,6.43687,9.71262,1.07309,1.62126,2.24172,3.16931,3.39235,4.7342C509.85085,440.70045,511.16791,442.12639,512.39164,443.64169Z"/><path d="M359.52472,342.28354c6.43383,3.00721,12.80725,6.13582,19.20172,9.2242l19.06495,9.5042c6.35044,3.18733,12.64135,6.464,18.87407,9.93273q1.16849.63965,2.32921,1.36419a9.62822,9.62822,0,0,1,2.25517,1.75694,24.192,24.192,0,0,1,3.13165,4.54146c1.751,3.13914,3.31294,6.30775,5.0214,9.40314A142.44837,142.44837,0,0,0,440.714,405.88431a179.97511,179.97511,0,0,0,13.68812,16.17218c2.41353,2.5864,4.93741,5.0694,7.48,7.53346l3.8748,3.62779q1.98129,1.78875,3.92387,3.613c2.57412,2.45213,5.11671,4.93818,7.5675,7.51592,1.22232,1.29145,2.42874,2.59973,3.567,3.9686.56514.68748,1.111,1.39226,1.61752,2.12489a6.00871,6.00871,0,0,1,1.13612,2.39154,5.95186,5.95186,0,0,0-1.24618-2.31225c-.53952-.70081-1.11659-1.37238-1.71272-2.02664-1.1863-1.31413-2.434-2.57306-3.70048-3.81164-2.53751-2.47388-5.1656-4.85537-7.82311-7.20084l-3.99708-3.50358-3.98234-3.55854c-2.612-2.41634-5.20818-4.85444-7.69855-7.402a150.372,150.372,0,0,1-25.58275-34.15111c-1.69788-3.13353-3.25353-6.34682-4.93818-9.42046a22.71514,22.71514,0,0,0-2.8561-4.23386,7.95745,7.95745,0,0,0-1.92173-1.50735q-1.09236-.69437-2.25471-1.34267c-6.13459-3.50615-12.457-6.75523-18.69694-10.12805Z"/><path d="M513.02157,443.9273v.00959c-.43122-.49824-.85285-1.025-1.284-1.55226Z"/><path d="M553.00372,468.15808c-6.78354-3.33422-23.6081-4.89607-39.98215-24.22119-12.379,23.90494-28.86814,11.4878-28.86814,11.4878.24912,5.59548-4.64684,17.38994,1.284,18.942s73.497,0,73.497,0S559.96924,471.57862,553.00372,468.15808Zm-56.13608-.479h-4.963a1.79648,1.79648,0,1,1,0-3.59294h4.963a1.79648,1.79648,0,0,1,0,3.59294Zm19.26781-6.51524a.90069.90069,0,0,1-1.80138,0v-3.98567a.90069.90069,0,1,1,1.80138,0Zm3.86111,0a.90063.90063,0,0,1-1.80126,0v-3.98567a.90063.90063,0,1,1,1.80126,0Zm3.67914-.45028a.90058.90058,0,0,1-1.80115,0v-3.98568a.90058.90058,0,0,1,1.80115,0Z"/><path d="M340.56556,151.16989a20.55,20.55,0,0,0-.12228,2.54967c.00637.41918.02263.83858.04661,1.26314.018.42619.06935.85028.07567,1.2994a4.67729,4.67729,0,0,1-.49461-1.23344,5.51072,5.51072,0,0,1-.17866-1.32255,5.3322,5.3322,0,0,1,.15216-1.32887A3.571,3.571,0,0,1,340.56556,151.16989Z"/><path d="M197.68645,464.71836c-4.61806-2.9796-17.39935,1.38946-17.179-4.77139.04795-1.37963.07666-3.03715.08625-4.80017l-6.132-2.24184a.56914.56914,0,0,1-.34491-.72818.57548.57548,0,0,1,.73777-.345l5.74869,2.1078c.00959-.94852.00959-1.90664,0-2.85516l-6.14155-2.25143a.57975.57975,0,0,1-.34491-.73777.57061.57061,0,0,1,.73777-.33544l5.74869,2.10781c-.01918-4.32087-.09584-8.00012-.09584-8.00012-23.82833-4.9728-19.05688-24.45113-19.05688-24.45113-4.77145.20117-19.74681,2.3857-20.427,5.95945-.68028,3.58334,27.22963,50.68422,27.22963,50.68422H202.525S202.30458,467.69821,197.68645,464.71836Zm-44.37033-32.13523a2.01447,2.01447,0,0,1-.6611.12468,1.796,1.796,0,0,1-1.66711-1.14011l-1.82039-4.61818a1.79613,1.79613,0,0,1,3.34382-1.31273l1.82038,4.60859A1.80659,1.80659,0,0,1,153.31612,432.58313Z" fill="#020202"/><path d="M180.11359,447.60281a.55577.55577,0,0,1-.19649-.03556l-6.51593-2.385a.57189.57189,0,0,1,.393-1.07414l6.51593,2.385a.57235.57235,0,0,1-.19649,1.10969Z" fill="#020202"/><path d="M180.60328,449.86767c0,.4024.00958.80481,0,1.2168" fill="none"/><path d="M180.60328,453.93966c.00958.412,0,.8144-.00958,1.20722" fill="none"/><path d="M203.72526,156.2821a35.12066,35.12066,0,0,1,1.49512-13.568,50.722,50.722,0,0,1,5.74449-12.5051,61.56837,61.56837,0,0,1,4.12427-5.52133c.76274-.85776,1.44822-1.78453,2.27313-2.58265q1.21007-1.22209,2.44564-2.41541a27.54387,27.54387,0,0,1,2.56943-2.27061l2.65868-2.1574c.90935-.68724,1.88869-1.28325,2.82634-1.92652q1.41332-.95718,2.85487-1.861c-1.68021,1.54478-3.45814,2.93938-5.11929,4.46544l-2.429,2.35084a31.63548,31.63548,0,0,0-2.37073,2.39108q-1.12622,1.25227-2.27014,2.48067c-.77637.80748-1.40928,1.73822-2.12032,2.59973a65.67868,65.67868,0,0,0-3.93282,5.41747,61.78648,61.78648,0,0,0-5.927,11.96709A46.29486,46.29486,0,0,0,203.72526,156.2821Z" fill="#020202"/><path d="M212.8549,198.98772A67.629,67.629,0,0,1,209.95,181.32129a79.844,79.844,0,0,1,1.31729-17.94081,83.62691,83.62691,0,0,1,2.21728-8.7421,76.69453,76.69453,0,0,1,3.27165-8.39755,68.8434,68.8434,0,0,1,9.59473-15.124,97.00673,97.00673,0,0,0-8.31048,15.68516,88.61813,88.61813,0,0,0-5.01,16.91509A96.26917,96.26917,0,0,0,211.346,181.297c-.00766,2.95248.08755,5.91173.3421,8.863A76.15416,76.15416,0,0,0,212.8549,198.98772Z" fill="#020202"/><path d="M297.00644,97.96617a80.1328,80.1328,0,0,1,10.715-5.27291c3.68335-1.52606,7.43739-2.8823,11.23465-4.10872a186.82028,186.82028,0,0,1,23.26962-5.5777A209.558,209.558,0,0,1,366.011,80.29272c3.98387-.27508,7.97527-.34993,11.966-.45917,3.99111.01474,7.98439-.033,11.97276.14128,3.99164.09521,7.97018.42643,11.95212.68187,1.98909.15274,3.9724.37309,5.95869.55625,1.98582.1897,3.97252.37052,5.94869.64373l5.93606.74946c1.9788.24819,3.943.59789,5.91512.89169,1.96734.32373,3.94667.57706,5.90384.95881l5.87278,1.13168,2.93546.56631,2.91832.64958,5.83519,1.2987c3.88369.89075,7.73364,1.92372,11.59814,2.886l11.48061,3.30756q5.69483,1.80243,11.36405,3.66966l-11.49493-3.21212-11.567-2.91178c-3.87937-.86712-7.73621-1.82734-11.62675-2.632l-5.8422-1.17378-2.92031-.58689-2.93592-.50362A322.00155,322.00155,0,0,0,389.888,81.76779c-3.9624-.20046-7.9286-.17941-11.89457-.22152-3.96433.08187-7.931.12866-11.88943.37544-7.92053.41379-15.81277,1.261-23.65482,2.44207a188.23154,188.23154,0,0,0-23.24015,5.05864A117.717,117.717,0,0,0,297.00644,97.96617Z" fill="#020202"/><path d="M432.76038,74.94356c3.90919.43859,7.7892,1.09168,11.66733,1.75272,3.86983.706,7.72469,1.49612,11.56809,2.34336,7.6872,1.69565,15.29517,3.75457,22.81571,6.10612a216.00594,216.00594,0,0,1,22.099,8.38515c1.79144.82244,3.55153,1.71623,5.32683,2.57.88127.44093,1.78067.84256,2.64616,1.31507l2.58792,1.43132c3.46814,1.8732,6.75359,4.06358,10.00536,6.26378q-2.59962-1.40383-5.15923-2.84581l-1.282-.71742-1.32256-.6442-2.64885-1.27577L508.43508,98.322c-.87741-.43227-1.78991-.79484-2.68265-1.1953-1.79892-.774-3.57878-1.58641-5.3894-2.32722-7.26247-2.92558-14.63676-5.55548-22.0949-7.943-7.46207-2.38009-15.01483-4.47222-22.59484-6.47991q-5.68466-1.51016-11.4233-2.82312C440.43987,76.60412,436.6022,75.78121,432.76038,74.94356Z" fill="#020202"/></svg>