<svg id="Layer_1" data-name="Layer 1" xmlns="http://www.w3.org/2000/svg" viewBox="0 0 700 550"><title>watching profit growth</title><path d="M471.83249,209.67426a21.17916,21.17916,0,1,0,21.18381,21.18392A21.17713,21.17713,0,0,0,471.83249,209.67426ZM473.49,241.05255v3.01808h-3.30545v-2.74978h-2.75949v-3.30551h4.40742a2.75459,2.75459,0,1,0,0-5.50917,6.03514,6.03514,0,0,1-1.64793-11.85188V217.6362H473.49V220.386h2.74991v3.30551h-4.40743a2.75458,2.75458,0,0,0,0,5.50916A6.03662,6.03662,0,0,1,473.49,241.05255Z" fill="#020202"/><path d="M272.23435,173.1007s-29.50407-29.93583-7.484-43.75237c0,0,3.16629-15.68753,19.86128-14.24831s29.0723,1.1087,31.95074-.0933,6.18866,24.12832-20.293,13.622c0,0-4.46159,1.2953-2.01491,9.49887s4.74943,25.76208-2.73452,19.4295c0,0,1.22672-8.77925-3.99216-6.76434s-6.0824,6.18866-3.92357,10.65025C283.60421,161.443,275.54456,172.81286,272.23435,173.1007Z" fill="#020202"/><path d="M306.19989,146.04331a10.16641,10.16641,0,0,1,2.62664-.788,15.9015,15.9015,0,0,1,2.62663-.21731,15.62113,15.62113,0,0,1,2.62663.21459,10.03916,10.03916,0,0,1,2.62663.7907,10.04033,10.04033,0,0,1-2.62663.79071,15.62217,15.62217,0,0,1-2.62663.21459,15.90366,15.90366,0,0,1-2.62663-.21731A10.16644,10.16644,0,0,1,306.19989,146.04331Z" fill="#020202"/><path d="M312.82043,154.46277a1.80011,1.80011,0,0,0,0-3.59806,1.80011,1.80011,0,0,0,0,3.59806Z" fill="#020202"/><path d="M216.02007,325.169a58.77912,58.77912,0,0,1-9.86957.66377,66.4873,66.4873,0,0,1-9.875-.92239,82.09268,82.09268,0,0,1-18.98757-5.74972l-.41661-.1792.058-.45158a247.88538,247.88538,0,0,1,9.13858-41.42221,214.2753,214.2753,0,0,1,16.2054-39.22815,158.07542,158.07542,0,0,1,11.3561-17.98911l3.24089-4.227c1.14291-1.36759,2.25447-2.73678,3.42358-4.10179,2.3857-2.6397,4.89467-5.13642,7.45347-7.58881a137.28407,137.28407,0,0,1,16.37287-13.54368,62.72317,62.72317,0,0,1,9.20432-5.3606,39.527,39.527,0,0,1,4.98683-1.91909,25.06419,25.06419,0,0,1,5.26613-.95824l-.054.0093a17.7624,17.7624,0,0,0,3.13914-1.26,13.6874,13.6874,0,0,0,2.82054-1.87661,8.979,8.979,0,0,0,2.10337-2.63728,7.32054,7.32054,0,0,0,.64654-3.324,7.40113,7.40113,0,0,1-.50994,3.3867,9.2046,9.2046,0,0,1-2.03833,2.79722,13.781,13.781,0,0,1-2.82593,2.02076,18.17891,18.17891,0,0,1-3.19224,1.40141l-.01824.00591-.03626.00345a24.46611,24.46611,0,0,0-5.09092,1.09943,38.73759,38.73759,0,0,0-4.81818,2.03722,69.208,69.208,0,0,0-8.93064,5.50306,135.98409,135.98409,0,0,0-15.94037,13.73034c-2.48979,2.47458-4.91455,5.02572-7.25745,7.62159l-3.33,4.04447-3.17,4.19176a156.20417,156.20417,0,0,0-11.10465,17.851,231.66849,231.66849,0,0,0-16.1682,38.85286c-2.11553,6.705-3.96486,13.49473-5.59244,20.33765-1.63623,6.83525-3.06615,13.7489-4.06684,20.68743l-.35859-.63051a88.29547,88.29547,0,0,0,18.622,6.15842A64.72959,64.72959,0,0,0,216.02007,325.169Z" fill="#020202"/><path d="M232.992,320.0701a71.965,71.965,0,0,0,8.99006-5.57785,76.89864,76.89864,0,0,0,8.04082-6.81824,82.54727,82.54727,0,0,0,6.97418-7.87878c1.06805-1.38814,2.10687-2.8019,3.05446-4.267.48046-.73774.92653-1.45533,1.356-2.22567l1.327-2.30965c3.5396-6.14547,7.11078-12.27121,10.96851-18.24218.95624-1.49936,1.94781-2.97411,2.99528-4.43567.25847-.36511.527-.72964.8187-1.09148a5.28788,5.28788,0,0,1,1.05028-1.0953,5.90872,5.90872,0,0,1,2.88838-.81031,29.49981,29.49981,0,0,1,5.42472.19549c1.7815.19816,3.53867.46923,5.29958.81014l-.49894.22815c3.13212-5.065,6.12646-10.21062,9.19636-15.31195,2.97868-5.155,6.00647-10.281,8.93462-15.46567l-.04117.34268-4.64461-14.61234-.03556-.11207.01193-.16073.3097-4.21267c.12889-1.40243.07743-2.80677.12562-4.20853.07321-1.405-.09685-2.79479-.142-4.19039a17.85069,17.85069,0,0,0-.21216-2.07506l-.27649-2.06307a23.99707,23.99707,0,0,0-2.68-7.66752l-.52421-.84874c-.19765-.263-.41332-.51008-.61753-.76671a10.92421,10.92421,0,0,0-1.36068-1.38811l-.775-.56172c-.26316-.17739-.549-.309-.82011-.46885-.2807-.13164-.56982-.25114-.85543-.35187a4.80776,4.80776,0,0,0-.79531-.19491l-.91858-.09771-.00515-.88107a25.929,25.929,0,0,1,.683-6.43009,9.99129,9.99129,0,0,1,1.342-3.18066l.27532-.38035a3.98658,3.98658,0,0,1,.392-.41581,3.286,3.286,0,0,1,.99484-.57616,5.12444,5.12444,0,0,1,1.93425-.26052,17.27464,17.27464,0,0,1,3.26545.53177l3.01493.75508a30.48256,30.48256,0,0,0,5.88717.97344,11.92087,11.92087,0,0,0,2.81025-.17886,3.0944,3.0944,0,0,0,1.87694-1.31443,12.31267,12.31267,0,0,0,1.70056-5.36548,49.89333,49.89333,0,0,0-.273-12.11021l-.1207-.93673.94291-.05048a6.175,6.175,0,0,0,2.01939-.3132,1.39338,1.39338,0,0,0,.58291-.391.90388.90388,0,0,0,.10784-.59549,4.09863,4.09863,0,0,0-.82221-1.76131l-.36093-.45841c-.12819-.16931-.2524-.33953-.36935-.51129-.23836-.34235-.45544-.69431-.66222-1.051a21.2341,21.2341,0,0,1-2.789-9.31615c-.08795-1.65856.00468-3.17881-.19227-4.72382a33.62524,33.62524,0,0,0-.91742-4.59376,43.74968,43.74968,0,0,0-3.50217-8.767l.17309-.10266a44.20268,44.20268,0,0,1,4.00977,8.66294,30.75326,30.75326,0,0,1,1.17706,4.67135c.26409,1.59826.23369,3.26152.3731,4.76222a19.94454,19.94454,0,0,0,2.93095,8.64185c.20164.32224.41637.63527.63578.93964.10948.15343.22246.3006.33661.44475l.38455.467a5.53923,5.53923,0,0,1,1.17847,2.49441,2.51975,2.51975,0,0,1-.33333,1.68628,2.93111,2.93111,0,0,1-1.28607,1.01643,7.63567,7.63567,0,0,1-2.636.5023l.82221-.987a51.59091,51.59091,0,0,1,.56233,12.60984,19.25836,19.25836,0,0,1-.5897,3.20455,10.21832,10.21832,0,0,1-1.40653,3.135,5.19535,5.19535,0,0,1-3.0816,2.15316,13.787,13.787,0,0,1-3.35621.26362,29.89545,29.89545,0,0,1-6.32833-1.01349,36.61642,36.61642,0,0,0-5.83805-1.235,3.08916,3.08916,0,0,0-1.12022.12678c-.30456.12541-.38222.17517-.66081.582a7.98806,7.98806,0,0,0-1.06782,2.49441,24.02212,24.02212,0,0,0-.69379,5.85884l-.9235-.97859c3.46826.61555,5.68109,3.04692,7.21815,5.60551a25.21136,25.21136,0,0,1,2.80253,8.34837l.24257,2.16207a18.9289,18.9289,0,0,1,.1724,2.16126c.01684,1.4403.15625,2.88481.051,4.31731-.08234,1.43214-.05637,2.87411-.22877,4.29538l-.45894,4.26658-.02386-.27242,4.18451,14.7507.05333.18813-.0945.15494c-3.10218,5.08241-6.10448,10.22345-9.1559,15.33561-2.96043,5.16574-5.99618,10.28717-8.89438,15.48932l-.157.28169-.34222-.05342c-1.72886-.27-3.4858-.47619-5.23221-.6059a28.69124,28.69124,0,0,0-5.18659-.00757,4.81542,4.81542,0,0,0-2.16442.62607,4.08276,4.08276,0,0,0-.73543.8504c-.25309.337-.49777.69432-.73847,1.06127-.97074,1.45068-1.88839,2.962-2.81937,4.46108L264.189,291.8439A66.42473,66.42473,0,0,1,250.86965,308.565a67.44285,67.44285,0,0,1-8.41976,6.60044,63.23682,63.23682,0,0,1-9.37227,5.08671Z" fill="#020202"/><path d="M263.59907,182.45566c2.61073,4.34458,5.17467,8.69309,7.8275,12.97178,1.345,2.127,2.67107,4.26111,4.09866,6.31629a53.556,53.556,0,0,0,4.51245,5.89632,12.63416,12.63416,0,0,0,2.595,2.319,2.2244,2.2244,0,0,0,1.19858.39564.60987.60987,0,0,0,.21988-.04965l.34035-.146a4.69674,4.69674,0,0,0,.65356-.39485,7.75485,7.75485,0,0,0,2.11833-2.60458,22.33664,22.33664,0,0,0,1.43132-3.335c.40608-1.17478.68818-2.34318,1.0187-3.60024a15.83939,15.83939,0,0,1,1.50782-3.62384,14.314,14.314,0,0,1,5.43595-5.3656,15.74133,15.74133,0,0,0-4.5583,5.81861,14.97484,14.97484,0,0,0-1.10221,3.47211c-.20748,1.21113-.46175,2.51479-.80069,3.75612a19.52078,19.52078,0,0,1-1.37191,3.69609,9.52736,9.52736,0,0,1-2.52909,3.3044,5.55488,5.55488,0,0,1-.94923.60721l-.52818.23287a2.54409,2.54409,0,0,1-.69776.16476,4.03589,4.03589,0,0,1-2.38406-.63455,14.2517,14.2517,0,0,1-3.08558-2.66049,70.90952,70.90952,0,0,1-8.475-12.77831A127.07856,127.07856,0,0,1,263.59907,182.45566Z" fill="#020202"/><path d="M305.11991,221.31466c-1.54875,4.12436-3.33282,8.14281-5.2149,12.11226-1.87506,3.97383-3.901,7.87364-5.99735,11.73753-2.13587,3.842-4.36532,7.63905-6.79686,11.31417l-1.86243,2.73181-1.97331,2.65865c-.6704.87548-1.40255,1.71173-2.11061,2.55479-.71438.8408-1.5394,1.59413-2.30968,2.37023a123.80411,123.80411,0,0,0,6.91944-11.1381c2.13915-3.81,4.27783-7.6206,6.37278-11.461l6.369-11.48575C300.65611,228.885,302.82357,225.07288,305.11991,221.31466Z" fill="#020202"/><path d="M250.67246,186.94539a20.49321,20.49321,0,0,1,5.69256-.99677,15.08371,15.08371,0,0,1,5.77817.88668,10.54788,10.54788,0,0,1,4.73373,3.58013,14.10553,14.10553,0,0,1,2.367,5.472,41.29649,41.29649,0,0,1,.792,11.69376,35.48558,35.48558,0,0,1-3.19364,11.31733c-.35952.915-.851,1.75676-1.27366,2.63751l-.66432,1.30451-.727,1.26423-1.46595,2.52119-1.57261,2.44561c-2.09587,3.26156-4.37654,6.38366-6.71218,9.45592-4.67316,6.14337-9.6387,12.03405-14.66858,17.8595l-.46338.53666-.58666-.3652q-7.20937-4.48683-14.38109-9.036L217.18122,242.93q-3.57714-2.28906-7.1213-4.63254,3.72626,2.04238,7.41487,4.14669l7.39031,4.18685q7.368,4.22424,14.69126,8.52243l-1.04981.1714c4.87923-5.92846,9.7215-11.88455,14.34366-17.989,4.555-6.135,9.04269-12.38313,12.28381-19.21617a34.4515,34.4515,0,0,0,3.2582-10.71871,41.357,41.357,0,0,0-.40982-11.25847,12.94941,12.94941,0,0,0-1.96091-5.11853,9.88357,9.88357,0,0,0-4.16251-3.50758,14.51528,14.51528,0,0,0-5.49373-1.15879A22.18205,22.18205,0,0,0,250.67246,186.94539Z" fill="#020202"/><path d="M241.73224,328.558l-.35836-.25637c-1.36045-.97121-8.18328-5.92273-8.90374-7.93814-.34713-.96373-2.91926-8.70163-5.47829-16.85684-6.93324-22.04789-6.43921-23.68623-6.27734-24.22517.40046-1.32957,3.08019-4.55386,7.41885-9.70373,4.28719-5.09,9.62232-11.42347,10.42418-13.90858l1.14151.36865c-.87391,2.70873-5.8432,8.60713-10.64875,14.31185-3.36182,3.99153-6.8378,8.11779-7.1868,9.278-.12912.4276-.058,3.388,6.27266,23.51968,2.68441,8.55474,5.18917,16.05031,5.46332,16.81007.44163,1.23787,5.0666,4.90753,8.11685,7.11382a59.56323,59.56323,0,0,1,8.71754-5.52882,17.82606,17.82606,0,0,0,7.20552-5.61208c1.04139-1.52794,2.021-1.52513,2.50757-1.39039.57917.16187,1.57284.82151,1.71412,3.42638.218,4.29655-7.29066,9.06374-8.14772,9.59332l-.63064-1.01987c2.16138-1.33518,7.7351-5.46612,7.58072-8.50982-.0917-1.68325-.56982-2.25962-.83835-2.33447-.21614-.05708-.66806.13941-1.19484.91133a19.10693,19.10693,0,0,1-7.71826,6.035c-3.12416,1.36326-8.77181,5.60835-8.828,5.65139Z" fill="#020202"/><path d="M253.333,326.96959l.01965-.01084.00819-.00369c3.38568-1.5246,6.80575-2.96239,10.208-4.44511l.03929-.01708.04258-.00716c.97215-.16328,1.94056-.36906,2.92136-.49617l1.48092-.13008.74174-.06453.74525.00044,1.49308.00438c.49707.02731.99321.08634,1.49074.12871a10.55391,10.55391,0,0,1,1.48466.202c.49075.097.989.16529,1.47507.28757a21.39843,21.39843,0,0,1,5.596,2.21225,17.90918,17.90918,0,0,1,4.78192,3.81117l1.23367,1.42689-2.11881-.06541c-.16912-.00521-.33379-.01807-.49987-.0395-.1869.00263-.40327.03909-.6035.05444a11.40356,11.40356,0,0,0-1.2746.243l-1.30174.37952-1.29917.45669c-1.72535.65476-3.42895,1.4132-5.11876,2.20126a103.83877,103.83877,0,0,0-9.84454,5.31741,90.82112,90.82112,0,0,1-9.74957,5.83451,49.79251,49.79251,0,0,1-10.58325,4.214,12.965,12.965,0,0,1-1.40957.2845,7.58115,7.58115,0,0,1-1.45683.14959,9.174,9.174,0,0,1-2.86756-.53479,21.79214,21.79214,0,0,1-5.0687-2.66672,67.70773,67.70773,0,0,1-8.635-7.39741l-2.00091-2.00676-.49613-.495a6.21286,6.21286,0,0,1-.51415-.56248c-.309-.37856-.59344-.75844-.88116-1.13869-1.13682-1.52273-2.22312-3.067-3.30685-4.61576-2.1836-3.08657-4.23035-6.255-6.30752-9.408l-6.1922-9.484q-3.04311-4.77837-6.00342-9.60938-2.9705-4.82927-5.73373-9.80018c-.91858-1.66776-1.80442-3.33815-2.58943-5.14447l-.28-.70382c-.08234-.2704-.149-.57911-.215-.8687a4.249,4.249,0,0,1-.07579-.83721,4.64987,4.64987,0,0,1,.00562-.80452,11.53894,11.53894,0,0,1,.1869-1.52171,13.5032,13.5032,0,0,1,.31321-1.45474,60.477,60.477,0,0,1,4.22146-10.68538q2.49155-5.12217,5.30636-10.04715c3.76135-6.56222,7.748-12.98014,12.01645-19.21085l.16958.10825c-1.88535,3.26656-3.766,6.53432-5.57723,9.8391q-2.76487,4.92872-5.35876,9.943c-1.71623,3.34653-3.42592,6.69511-4.959,10.11346a63.26569,63.26569,0,0,0-3.83855,10.42044,11.7417,11.7417,0,0,0-.266,1.31212,9.57021,9.57021,0,0,0-.14386,1.28436,3.03054,3.03054,0,0,0,.00351.60693,2.52786,2.52786,0,0,0,.05427.56651l.12421.50327.25076.607c.73589,1.64565,1.64816,3.296,2.53634,4.93687,1.7995,3.28463,3.73538,6.51412,5.63735,9.76062q2.87854,4.85643,5.83945,9.67052l5.99313,9.58191c1.98617,3.201,3.9658,6.4112,5.99548,9.58125,1.01566,1.58375,2.03716,3.16729,3.09563,4.71113.26572.383.53519.76634.80958,1.12849a4.96354,4.96354,0,0,0,.42245.49587l.48724.5212,1.92255,2.06821a56.03534,56.03534,0,0,0,8.362,7.48859,20.05552,20.05552,0,0,0,4.88508,2.63519,8.56133,8.56133,0,0,0,2.67271.47707,6.9908,6.9908,0,0,0,1.34969-.15353,10.41151,10.41151,0,0,0,1.35694-.29348,43.81983,43.81983,0,0,0,10.231-4.50818,91.10458,91.10458,0,0,0,9.40268-6.18641c1.57659-1.09694,3.21095-2.07173,4.86824-3.00777q2.48277-1.40892,5.06262-2.63747c1.71928-.82289,3.46779-1.59083,5.279-2.24743l1.37449-.46645,1.41776-.39655a12.99847,12.99847,0,0,1,1.50384-.26853c.26923-.01959.52233-.05708.80466-.0574.30292.02462.60748.05781.90759.09865l-.88513,1.36136a17.13687,17.13687,0,0,0-4.23456-3.4884,21.61047,21.61047,0,0,0-5.15011-2.20506c-.45052-.13339-.91531-.21441-1.37308-.32514a9.63152,9.63152,0,0,0-1.39179-.247c-.4683-.05851-.93566-.13465-1.4063-.18l-1.42033-.06084-.71157-.03024-.712.03392-1.42665.06681c-.94875.08424-1.89213.2462-2.84136.36479l.0814-.02415c-3.49586,1.24574-6.97417,2.53643-10.48664,3.74033l.00772-.00354-.02035.00918Z" fill="#020202"/><path d="M245.94715,395.32834c-8.98725-.69941-14.87-1.303-14.87-1.303l1.72465-18.13712c.95812.17245,1.93541.4311,2.9223.53654l2.95084.31613,5.91173.47906,3.727.20123a29.6574,29.6574,0,0,0-1.17847,3.957c-.35461,1.51384-.64186,3.0468-.85262,4.57976-.21075,1.54261-.35461,3.09475-.4311,4.6469A28.89714,28.89714,0,0,0,245.94715,395.32834Z" fill="#020202"/><path d="M244.61547,376.281a113.01015,113.01015,0,0,1-11.81364-.3928c-4.03363-.5845-22.74565-6.908-22.74565-6.908-32.51839-13.816-32.51839-50.37773-32.51839-50.37773a84.25527,84.25527,0,0,0,18.01262,5.80617A29.56791,29.56791,0,0,0,199.06662,340.16a31.53275,31.53275,0,0,0,11.2099,11.7944,40.605,40.605,0,0,0,7.36786,3.66c1.25518.53654,2.58686.891,3.88041,1.34138,1.32209.34491,2.63482.7473,3.97609,1.02519,1.3415.27783,2.67318.60362,4.03363.78561,1.35109.2204,2.70195.44075,4.06263.56531,2.7209.34491,5.42285.45988,8.144.68028a298.70387,298.70387,0,0,0,32.6143.30661l16.259-.6707a109.92037,109.92037,0,0,1,16.106.3545,35.32225,35.32225,0,0,1,3.92836.62274l1.945.42158,1.86827.60361a23.11649,23.11649,0,0,1,3.62171,1.51384c.59391.25871,1.17846.61321,1.77237.93894l1.763.99647c2.32816,1.36051,4.62777,2.75938,6.8123,4.29234a24.445,24.445,0,0,1,5.76788,5.23134,4.21473,4.21473,0,0,1,.92934,3.19048,3.02554,3.02554,0,0,1-.22034.78566l-.163.39286-.23953.37362c-.26807.45035-.78549,1.17852-1.10174,1.6767a12.8827,12.8827,0,0,1-5.78706,4.88643c-.58432.28742-1.22641.48865-1.82991.7473a15.4102,15.4102,0,0,1-1.86828.6611l-1.91623.54613a16.98964,16.98964,0,0,1-1.945.48865l-3.938.80484-4.00486.57485c-10.69249,1.39887-21.57678,1.47548-32.40354,1.36051-5.42285.02877-10.83634-.22994-16.25919-.37362l-15.95277-.73777c.26854-1.24554.50807-2.51026.68046-3.775.22035-1.54255.364-3.08516.4407-4.64684a31.583,31.583,0,0,0-.04795-4.14865l1.93541.10538,5.92109.22993c7.89486.26831,15.79931.37368,23.69418.4024,7.90445,0,15.79931-.0479,23.69441-.22994q11.84195-.24429,23.68436-.90063-11.85669-.44553-23.69418-.594c-7.89463-.12456-15.78014-.15327-23.675-.19163l-23.675.01918Z" fill="#020202"/><path d="M323.81322,395.46249c-19.66055,3.61206-57.075,1.47548-77.86607-.13415a30.11264,30.11264,0,0,0,1.37963-4.51275c.05754-.26824.10549-.53654.163-.79519,5.308.42157,10.61576.891,15.93335,1.22636,5.42308.28742,10.83634.68987,16.26878.80484,10.85553.3066,21.74918.3928,32.6047-.83355l4.072-.51742c1.35085-.22994,2.69236-.50778,4.04322-.7569a17.94861,17.94861,0,0,0,2.00254-.48864l2.00255-.55573a16.47777,16.47777,0,0,0,1.96395-.68981c.64186-.2683,1.31273-.47906,1.945-.78566l1.86828-.99642c.61332-.35456,1.17846-.81444,1.763-1.22642a19.40883,19.40883,0,0,0,1.5808-1.49466,18.82836,18.82836,0,0,0,1.27437-1.715c.42152-.642.69941-1.0156,1.1401-1.71507l.30666-.48865.23953-.54607a4.99619,4.99619,0,0,0,.33544-1.14975,5.8441,5.8441,0,0,0,.05731-1.22642,9.94774,9.94774,0,0,0-.22994-1.188c-.14363-.3545-.27789-.71859-.4407-1.07309l-.575-.9677a25.9641,25.9641,0,0,0-6.1798-5.71033c-2.25143-1.59051-4.57982-3.02768-6.92716-4.40737l-1.77237-1.0156c-.60373-.33532-1.16911-.68982-1.82056-.9773a25.38431,25.38431,0,0,0-3.87059-1.64793l-1.993-.65151-2.0409-.45034a33.07655,33.07655,0,0,0-4.09118-.67064,110.47124,110.47124,0,0,0-16.40281-.27789l-16.2592.74736c-5.41349.24912-10.82675.3545-16.24.38321-5.41349-.0383-10.81716-.12456-16.23066-.412a101.01442,101.01442,0,0,1-16.058-1.73419c-1.32209-.25871-2.60605-.63233-3.91855-.94852-1.26477-.42158-2.57727-.74736-3.82287-1.25513a40.87,40.87,0,0,1-7.253-3.4492,30.81424,30.81424,0,0,1-11.25786-11.23873,29.96638,29.96638,0,0,1-3.018-7.47329,27.398,27.398,0,0,1-.93893-8.03861,62.90114,62.90114,0,0,0,20.46522.757c3.58334,5.4804,6.32365,9.4566,6.99429,10.13682,2.29938,2.3091,12.66626,14.1035,19.57423,13.24117,6.908-.87186,17.37053-7.44452,21.01141-10.07934,4.86731-3.49714,18.1373-10.35728,21.58638-9.495,0,0-6.97511-8.92964-21.43293-6.01693l-10.34769,4.1007c.46946-.297,8.05766-5.08759,7.8565-9.0542-.16281-3.14259-1.72466-3.78457-3.12347-1.7246a18.4635,18.4635,0,0,1-7.46376,5.81577c-3.22873,1.4084-8.94865,5.71992-8.94865,5.71992s-7.99077-5.71033-8.69017-7.64574c19.26781-9.04461,28.83914-26.032,28.83914-26.032s.33543-.56531.92-1.56173c53.01237-18.85571,64.1362-14.55378,64.1362-14.55378,37.71153,9.79192-3.17142,63.33142-3.17142,63.33142-3.0947-1.4084-6.23734-2.64435-9.40876-3.80369-3.17119-1.17846-6.37138-2.25161-9.58116-3.29592-3.21914-1.0156-6.4481-2.012-9.7056-2.89353-1.69588-.46946-3.39176-.91975-5.09724-1.33179,2.14617-2.05033,4.17749-4.20609,6.15126-6.39062,2.09822-2.31862,4.11971-4.69473,6.11267-7.09,1.97377-2.42406,3.92837-4.85765,5.79665-7.35838,1.87786-2.50066,3.69842-5.03964,5.37513-7.70323-2.29,2.15577-4.4362,4.42649-6.53442,6.74512-2.09845,2.31868-4.11035,4.69479-6.1129,7.09967-1.964,2.41447-3.91854,4.84806-5.787,7.35832-1.782,2.37611-3.51621,4.79058-5.12578,7.31042-1.54267-.37367-3.0851-.71858-4.647-1.02519,3.0851,1.40846,6.23734,2.64441,9.40876,3.80375,3.17142,1.17847,6.37137,2.25155,9.58115,3.29592,3.21914,1.0156,6.4481,2.00243,9.7056,2.89347,3.25774.891,6.53442,1.73419,9.86864,2.3857l17.84981,11.7944C359.44549,364.94647,351.96278,390.27905,323.81322,395.46249Z" fill="#020202"/><path d="M231.29285,391.70944c-1.71811-.05085-3.41048-.08014-5.0907-.02775a27.96227,27.96227,0,0,0-4.9466.53929,9.71737,9.71737,0,0,0-4.35666,1.91749,5.74443,5.74443,0,0,0-1.45659,1.87176,9.11934,9.11934,0,0,0-.70478,2.40079,6.6808,6.6808,0,0,1,.15415-2.60985,5.67412,5.67412,0,0,1,1.36-2.33871,9.08928,9.08928,0,0,1,4.75268-2.41354,18.9381,18.9381,0,0,1,5.21654-.29938A20.97167,20.97167,0,0,1,231.29285,391.70944Z" fill="#020202"/><path d="M232.80183,423.23825c-4.38824-3.23843-16.55627,1.51384-16.33592-5.18344.21076-6.68762,0-19.64137,0-19.64137-22.66893-5.40372-18.13706-26.55893-18.13706-26.55893-4.53187.22035-18.77916,2.59651-19.43061,6.47687-.64187,3.88995,25.90748,55.05328,25.90748,55.05328h32.59511S237.19007,426.47669,232.80183,423.23825Zm-24.6523-21.80672a5.41427,5.41427,0,0,1,1.91624-.04789,7.87008,7.87008,0,0,1,1.72465.45028,7.773,7.773,0,0,1,1.57121.84315,5.2539,5.2539,0,0,1,1.37963,1.351,5.472,5.472,0,0,1-1.92582.04789,7.38457,7.38457,0,0,1-1.72466-.45988,7.51129,7.51129,0,0,1-1.57121-.83361A5.706,5.706,0,0,1,208.14953,401.43153Zm5.73911,11.03751a7.37855,7.37855,0,0,1-1.72466-.45993,7.54019,7.54019,0,0,1-1.5712-.84315,5.33667,5.33667,0,0,1-1.37028-1.34133,5.41291,5.41291,0,0,1,1.91623-.04789,7.361,7.361,0,0,1,1.72466.45029,7.1283,7.1283,0,0,1,1.57144.84314,5.3352,5.3352,0,0,1,1.37,1.34139A5.21164,5.21164,0,0,1,213.88864,412.469Zm0-4.42649a7.37855,7.37855,0,0,1-1.72466-.45993,7.49984,7.49984,0,0,1-1.5712-.83356,5.54374,5.54374,0,0,1-1.37028-1.35092,5.41291,5.41291,0,0,1,1.91623-.04789,7.86273,7.86273,0,0,1,1.72466.45029,7.55022,7.55022,0,0,1,1.57144.84314,5.3352,5.3352,0,0,1,1.37,1.34139A5.21164,5.21164,0,0,1,213.88864,408.04255Z" fill="#020202"/><path d="M198.15926,372.94233a29.43928,29.43928,0,0,1,5.76109-2.55032,29.099,29.099,0,0,1,6.13957-1.41308,29.11007,29.11007,0,0,1-5.76086,2.55032A29.44335,29.44335,0,0,1,198.15926,372.94233Z" fill="#020202"/><path d="M270.21185,396.84586a31.49061,31.49061,0,0,1,.59952,6.48889,31.12222,31.12222,0,0,1-.59952,6.48892,31.13747,31.13747,0,0,1-.59929-6.48892A31.48961,31.48961,0,0,1,270.21185,396.84586Z" fill="#020202"/><path d="M294.89151,397.43863a13.32829,13.32829,0,0,0,.5207,3.97735,11.21217,11.21217,0,0,0,1.69541,3.50141,10.50949,10.50949,0,0,0,1.27741,1.47293c.23813.22357.45286.47544.71134.679.26292.1981.52092.404.77823.61426.51087.42523,1.10759.73476,1.65846,1.12844.57683.35163,1.19016.63993,1.78009,1.01162-.66759-.15725-1.33-.35918-1.99553-.56824a14.38,14.38,0,0,1-1.88091-.92048,10.66848,10.66848,0,0,1-3.145-2.83055A9.28786,9.28786,0,0,1,294.89151,397.43863Z" fill="#020202"/><path d="M314.26084,418.70638c-6.47687.43111-12.77176-12.0148-12.77176-12.0148-14.05548,6.34272-33.2082,1.29349-33.2082,1.29349-3.23855,21.2414,0,25.39959,0,25.39959H336.058C336.25913,424.96285,320.73771,418.27522,314.26084,418.70638Zm-15.98154-3.89a5.48926,5.48926,0,0,1,1.19765-1.47548,7.46544,7.46544,0,0,1,1.45635-1.006,7.37532,7.37532,0,0,1,1.63857-.64192,5.31568,5.31568,0,0,1,1.89705-.14374,5.28816,5.28816,0,0,1-1.18805,1.47548,7.4593,7.4593,0,0,1-1.45635,1.00607,7.5412,7.5412,0,0,1-1.63834.63233A5.36444,5.36444,0,0,1,298.2793,414.81638Zm2.09845,2.82645a5.14956,5.14956,0,0,1,1.19765-1.47548,7.49373,7.49373,0,0,1,3.09469-1.648,5.31752,5.31752,0,0,1,1.897-.14369,5.1494,5.1494,0,0,1-1.19764,1.47548,7.33027,7.33027,0,0,1-3.0947,1.6384A5.3093,5.3093,0,0,1,300.37775,417.64283Zm8.08644,1.09227a7.33921,7.33921,0,0,1-1.44676.99642,7.4507,7.4507,0,0,1-1.64793.642,5.53861,5.53861,0,0,1-1.89705.15327,5.1957,5.1957,0,0,1,1.19764-1.48507,7.82088,7.82088,0,0,1,1.44677-1.006,7.42549,7.42549,0,0,1,1.64793-.63239,5.08374,5.08374,0,0,1,1.897-.15327A5.196,5.196,0,0,1,308.46419,418.7351Z" fill="#020202"/><path d="M292.09365,266.7941c2.305,2.39017,4.73374,4.65528,7.21394,6.85262a75.01959,75.01959,0,0,0,7.81533,6.10015,34.94334,34.94334,0,0,0,4.25655,2.462,14.20971,14.20971,0,0,0,4.56439,1.4105,5.004,5.004,0,0,0,2.22593-.24183,4.22711,4.22711,0,0,0,.96584-.49131,6.98108,6.98108,0,0,0,.78244-.78888,20.66566,20.66566,0,0,0,2.47014-4.141,93.21619,93.21619,0,0,0,3.69773-9.16335q1.64349-4.67771,3.07154-9.43724c1.90687-6.34056,3.70778-12.71889,5.31852-19.14679a353.83212,353.83212,0,0,0,7.78375-38.92035,62.58433,62.58433,0,0,0,.61567-9.77182,26.49448,26.49448,0,0,0-1.98711-9.34593,19.97281,19.97281,0,0,0-5.71852-7.49972,21.23516,21.23516,0,0,0-8.52245-4.04041l-.72537-.15115.00818-.69679a20.63473,20.63473,0,0,0-.11087-2.315,13.11307,13.11307,0,0,0-.41333-2.24115,3.82313,3.82313,0,0,0-.90759-1.7373c-.37286-.34728-.82081-.34863-1.44606-.08556l-.3186.134-.30011-.126a.81073.81073,0,0,0-.41-.03526.50773.50773,0,0,0-.30994.22248,2.87934,2.87934,0,0,0-.38151,1.3232,13.913,13.913,0,0,0,.27461,3.40158,7.791,7.791,0,0,0,1.11812,3.08072,1.59763,1.59763,0,0,0,1.04185.70034,2.23553,2.23553,0,0,0,1.32186-.38137l.804-.49051.11743.92736c.301,2.37769.67671,4.76762,1.174,7.11133a33.72394,33.72394,0,0,0,.90735,3.452,8.27576,8.27576,0,0,0,.672,1.56984,1.62479,1.62479,0,0,0,.43228.51019.36364.36364,0,0,0,.109.0438.4792.4792,0,0,0,.2021-.11625l.49-.442.21918.62247A24.29113,24.29113,0,0,0,331.90785,188.9a3.67319,3.67319,0,0,0,1.27343,1.479c.40327.21763.87321-.48567,1.09426-1.1118l.2442-.69134.29988.67944.4552,1.03037.03041.06894-.00094.05445v.00985l-.03134-.12658a10.47814,10.47814,0,0,0,.89472,1.48025,2.69841,2.69841,0,0,0,1.221,1.03793c.47508.16641.94946-.18789,1.26244-.64537a9.4519,9.4519,0,0,0,.79484-1.54106,16.9803,16.9803,0,0,0,1.43905-6.87218,17.13676,17.13676,0,0,1-1.15133,6.9899,9.58609,9.58609,0,0,1-.77917,1.63433,2.22234,2.22234,0,0,1-.67087.68868,1.23092,1.23092,0,0,1-1.0049.1588,3.09211,3.09211,0,0,1-1.495-1.15393,10.973,10.973,0,0,1-.99157-1.52381l-.03017-.05468-.00117-.07228-.00023-.00985.02947.123-.51017-1.06092.54409-.01193a3.33333,3.33333,0,0,1-.55111,1.07115l-.225.24646a2.83513,2.83513,0,0,1-.31719.1981,1.73352,1.73352,0,0,1-.39041.08362,2.60958,2.60958,0,0,1-.37987-.06474,4.091,4.091,0,0,1-1.67577-1.72263,24.98508,24.98508,0,0,1-1.89378-4.08448l.70923.18041a1.35094,1.35094,0,0,1-.574.33666,1.089,1.089,0,0,1-.7621-.111,2.38093,2.38093,0,0,1-.78806-.80613,9.14776,9.14776,0,0,1-.81636-1.73448,32.05723,32.05723,0,0,1-1.01706-3.54639c-.55462-2.38239-.97917-4.772-1.33449-7.19029l.92116.43675a3.43055,3.43055,0,0,1-2.08769.59421,2.85028,2.85028,0,0,1-1.93-1.15378,8.91163,8.91163,0,0,1-1.43437-3.60384,15.15241,15.15241,0,0,1-.36888-3.769,4.15555,4.15555,0,0,1,.62993-2.093,1.98537,1.98537,0,0,1,1.13425-.78977,2.2245,2.2245,0,0,1,1.36209.10072l-.61847.008a3.41884,3.41884,0,0,1,1.51928-.35123,2.5316,2.5316,0,0,1,1.57448.62289,5.23305,5.23305,0,0,1,1.42384,2.4464,14.67953,14.67953,0,0,1,.51929,2.51455,22.21408,22.21408,0,0,1,.17005,2.52691l-.71694-.8477a22.76281,22.76281,0,0,1,9.35706,4.33257,21.78133,21.78133,0,0,1,6.29629,8.142,28.324,28.324,0,0,1,2.20675,10.00337,64.34667,64.34667,0,0,1-.56256,10.08995c-.78736,6.64105-2.02851,13.18953-3.39458,19.70438q-2.07049,9.76807-4.58637,19.42684c-1.68091,6.43667-3.46264,12.85035-5.51665,19.18477q-1.52945,4.75349-3.28042,9.43987a94.47974,94.47974,0,0,1-3.93749,9.22277,21.63668,21.63668,0,0,1-2.71528,4.33246,7.8616,7.8616,0,0,1-.99344.94829,5.30872,5.30872,0,0,1-1.25355.61315,6.05161,6.05161,0,0,1-2.68207.248,14.49649,14.49649,0,0,1-4.858-1.64264,35.73389,35.73389,0,0,1-4.27456-2.65921,75.57853,75.57853,0,0,1-7.67451-6.39935C296.60774,271.67242,294.29994,269.27547,292.09365,266.7941Z" fill="#020202"/><path d="M330.31638,186.40661c-.32186-.78434-.51287-1.35753-.51287-1.35753a.86354.86354,0,0,1-.46278.24133l.46278-10.89064Z" fill="#020202"/><rect x="324.69604" y="170.41394" width="2.80273" height="1.20006" transform="translate(17.8555 372.43945) rotate(-60.83692)" fill="#020202"/><path d="M335.03257,190.40893c-.30173-.59333-.48267-1.04586-.48267-1.04586a3.28388,3.28388,0,0,1-.4726.92519l.4726-10.56884Z" fill="#020202"/><path d="M319.75269,179.72113c.36655,1.06121.65426,2.12664.94712,3.18186l.4407,1.56553a7.67086,7.67086,0,0,0,.512,1.35124l.85145,1.418-1.54454-.53859c-.64935-.22648-1.29-.48014-1.9298-.73364-.6435-.24456-1.27109-.5309-1.90594-.79812-.62829-.28514-1.25589-.57119-1.87529-.87993l-1.85308-.95019a12.1993,12.1993,0,0,1,2.06781.353c.67672.15932,1.34314.3471,2.007.54063.65754.21143,1.32115.40631,1.96769.64605.65029.23055,1.2994.46286,1.93846.725l-.69309.87931a5.503,5.503,0,0,1-.58666-1.75225,16.55761,16.55761,0,0,1-.25169-1.66469A20.13181,20.13181,0,0,1,319.75269,179.72113Z" fill="#020202"/><path d="M307.66935,182.45566a50.07959,50.07959,0,0,0,4.01211,4.65011,44.89166,44.89166,0,0,0,4.52134,4.06629,31.15931,31.15931,0,0,0,5.08788,3.15621,20.212,20.212,0,0,0,5.60578,1.64559l.98524.12945-.19157.98065c-.71578,3.66165-1.55975,7.27555-2.45938,10.88646-.927,3.60165-1.91039,7.19216-3.06125,10.73667q-.84245,2.66444-1.83132,5.28516c-.65262,1.74852-1.35483,3.48206-2.15342,5.17733a31.27175,31.27175,0,0,1-2.76183,4.91262,9.396,9.396,0,0,1-1.94571,2.08416,2.92977,2.92977,0,0,1-1.31553.59437,1.84148,1.84148,0,0,1-1.35624-.33423,1.741,1.741,0,0,0,1.31553.143,2.85719,2.85719,0,0,0,1.117-.69561,9.50481,9.50481,0,0,0,1.60465-2.16634,36.72627,36.72627,0,0,0,2.25611-4.99683c1.28724-3.44133,2.34711-6.97447,3.36393-10.5196.9911-3.5534,1.945-7.12142,2.82944-10.70877.905-3.57983,1.75647-7.18475,2.57961-10.77564l.79344,1.1099a20.56076,20.56076,0,0,1-6.1026-2.0315,29.141,29.141,0,0,1-5.16531-3.63895,37.249,37.249,0,0,1-4.275-4.54842A35.828,35.828,0,0,1,307.66935,182.45566Z" fill="#020202"/><polygon points="321.372 185.587 328.076 188.644 320.964 186.715 321.372 185.587" fill="#020202"/><path d="M326.96757,195.90714a12.93363,12.93363,0,0,0,1.8112.41874,15.28414,15.28414,0,0,0,1.91155.1873,10.82991,10.82991,0,0,0,3.86241-.52885,11.33583,11.33583,0,0,1-3.76393,1.5296,16.53955,16.53955,0,0,1-2.05471.31967,14.60941,14.60941,0,0,1-2.14009.04974Z" fill="#020202"/><path d="M283.60418,161.443c.513.65372,1.01215,1.273,1.53074,1.85732a10.8255,10.8255,0,0,0,1.66617,1.55658,5.8275,5.8275,0,0,0,1.963.95253,7.23475,7.23475,0,0,0,2.32394.09515,3.96772,3.96772,0,0,1-2.43435.68176,4.76854,4.76854,0,0,1-2.44815-.91986,6.668,6.668,0,0,1-1.69986-1.90219A6.53991,6.53991,0,0,1,283.60418,161.443Z" fill="#020202"/><path d="M316.70642,168.49519a1.98866,1.98866,0,0,1,.436-1.39539,2.35257,2.35257,0,0,1,1.1939-.79632,2.17692,2.17692,0,0,1,1.53635.12445,1.61974,1.61974,0,0,1,.91718,1.21,9.69586,9.69586,0,0,0-1.18384.34877,7.26767,7.26767,0,0,1-.72724.25279,6.47348,6.47348,0,0,1-.86759.17519A8.92114,8.92114,0,0,1,316.70642,168.49519Z" fill="#020202"/><path d="M523.12864,345.97618l-4.28626,21.49956L514.347,389.41558c-1.55039,7.36528-3.11972,14.764-4.7728,22.16728-1.62384,7.40109-3.3099,14.8112-5.10566,22.16747l-.31345,1.28455-1.28863-.00971c-6.43571-.04848-12.87141-.25976-19.30734-.39l-19.30734-.45865q-9.65355-.19165-19.30734-.21023-9.65355-.01219-19.30734.10111l-.534.00684-.13473-.53894-5.43081-21.72859c-1.83038-7.23823-3.69913-14.46761-5.45653-21.72266-1.78922-7.24776-3.56791-14.4979-5.28718-21.76172l-5.20975-21.77952-.5766-2.41067,2.51762-.02845c4.95947-.056,9.92431-.04415,14.89056-.04293q7.45147-.00947,14.89664.07281l14.87208.16494,14.81172.25371,14.72565.31172,14.5998.36856Zm-.29988.23865-29.91983.74367-14.76354.36853-14.6377.31173-14.55161.25373-14.49127.16491q-7.24341.0936-14.46693.07281c-4.82146.00123-9.64432.01316-14.47279-.04289l1.941-2.43895,4.846,21.86327c1.63273,7.28379,3.206,14.58127,4.76906,21.88111,1.59437,7.29259,3.07762,14.61079,4.59924,21.92017l4.6252,21.91426-.66853-.532q9.65355.12367,19.30734.10111,9.65355-.0215,19.30734-.21017l19.30734-.45871c6.43593-.13017,12.87163-.34152,19.30734-.39l-1.60162,1.27472c1.556-7.19136,3.22218-14.32889,4.95034-21.47543,1.69869-7.14435,3.48159-14.29323,5.283-21.47556l5.56086-21.70307Z" fill="#020202"/><path d="M470.68771,241.77724a224.5757,224.5757,0,0,0-9.42116,51.78447l-.243,3.27914-.09217,3.286c-.04514,2.19091-.14151,4.38272-.14549,6.57406.07976,4.38176.05544,8.7738.407,13.15038.37567,8.789,1.74337,17.47672,3.05914,26.24675a134.57066,134.57066,0,0,1-5.40484-26.0486c-.63671-4.41593-.66923-8.87452-.91788-13.3244-.06058-2.22647.0421-4.4538.05544-6.68132l.05871-3.34133.21427-3.33437.24818-3.33214c.07439-1.11142.16257-2.22141.31321-3.3254l.80607-6.63137,1.13449-6.58117c.382-2.19192.91718-4.35576,1.389-6.528A123.5226,123.5226,0,0,1,470.68771,241.77724Z" fill="#020202"/><path d="M459.2343,313.97588a9.556,9.556,0,0,1,.21474-3.10259,9.04854,9.04854,0,0,1,.90829-2.36757,8.40233,8.40233,0,0,1,1.36629-1.85468,3.84251,3.84251,0,0,1,1.92629-1.171c1.58314-.40549,3.73679-.00968,5.09491-.62923a5.98564,5.98564,0,0,0,2.974-3.47881,16.65341,16.65341,0,0,1,1.18267-2.31816,10.53655,10.53655,0,0,1,1.592-1.81021,11.20844,11.20844,0,0,1,3.898-2.82034,11.44137,11.44137,0,0,1,5.18917-.59347,10.10876,10.10876,0,0,1,2.86007.731,6.72187,6.72187,0,0,1,2.61821,1.89925l-.05847,1.0039c-1.39765,1.66132-2.14337,2.8809-3.06335,3.9546a14.77375,14.77375,0,0,1-1.36186,1.46322,9.06426,9.06426,0,0,1-1.49027,1.20963,25.1847,25.1847,0,0,1-5.84156,1.79144c-.76186.08079-1.61331.049-2.45353.05877a5.0754,5.0754,0,0,0-4.13211,1.51893c-.97566,1.09539-1.12864,3.243-1.82477,4.62415a3.5854,3.5854,0,0,1-1.47109,1.53612,8.41034,8.41034,0,0,1-1.99155.90153,9.68812,9.68812,0,0,1-2.40792.43854,11.09044,11.09044,0,0,1-3.05259-.23991Z" fill="#020202"/><path d="M458.83407,290.82631a14.9744,14.9744,0,0,1-4.18193-2.30508,6.48579,6.48579,0,0,1-1.153-1.20589,2.318,2.318,0,0,1-.48794-1.52071,5.21321,5.21321,0,0,1,.1345-1.02622l.17965-1.12174a3.71519,3.71519,0,0,0-.11322-2.08988,2.53486,2.53486,0,0,0-1.21612-1.3144,5.673,5.673,0,0,0-1.978-.51613c-.75367-.044-1.50524-.039-2.134-.14a14.05013,14.05013,0,0,1-1.72793-.44265,9.08739,9.08739,0,0,1-3.04558-1.23762,10.62186,10.62186,0,0,1-2.33938-2.75935,15.46822,15.46822,0,0,1-1.09589-1.94123A15.25047,15.25047,0,0,1,438.66873,270.6l.323-.9523a9.83412,9.83412,0,0,1,2.55061-1.23445,9.56291,9.56291,0,0,1,2.44488-.533,11.5348,11.5348,0,0,1,2.305.10213,6.46087,6.46087,0,0,1,2.1478.5909,7.71046,7.71046,0,0,1,1.83483,1.21823,15.79916,15.79916,0,0,1,1.50828,1.69156,7.32491,7.32491,0,0,1,1.284,1.88845,15.02019,15.02019,0,0,1,.742,2.36216,5.78926,5.78926,0,0,0,1.93191,3.80428,8.41313,8.41313,0,0,0,2.15833.9677,7.85229,7.85229,0,0,1,2.3588,1.066,3.36118,3.36118,0,0,1,.83086.81554,4.71282,4.71282,0,0,1,.47953,1.02215,6.691,6.691,0,0,1,.38526,2.28012,6.90831,6.90831,0,0,1-.45123,2.47941,6.80617,6.80617,0,0,1-1.66968,2.53973Z" fill="#020202"/><polygon points="519.017 363.271 410.06 363.271 410.06 365.775 410.06 368.299 410.643 368.299 517.86 368.299 519.017 363.271" fill="#020202"/><path d="M451.29984,433.38132H426.401a12.88845,12.88845,0,0,1,24.89884,0Z" fill="#020202"/><path d="M477.08324,433.38132H452.18465a12.88829,12.88829,0,0,1,24.89859,0Z" fill="#020202"/><rect x="452.18457" y="432.94023" width="24.89884" height="0.88139" fill="#020202"/><rect x="477.96855" y="432.94023" width="24.89791" height="0.88139" fill="#020202"/><rect x="426.40153" y="432.94023" width="24.89791" height="0.88139" fill="#020202"/><path d="M502.86665,433.38132h-24.8986a12.88829,12.88829,0,0,1,24.8986,0Z" fill="#020202"/><rect x="418.2089" y="398.62771" width="92.08576" height="5.02824" fill="#020202"/><path d="M409.74492,356.68676h-2.01167a1.00584,1.00584,0,1,1,0-2.01167h2.01167a1.00584,1.00584,0,0,1,0,2.01167Z" fill="#020202"/><path d="M513.67239,356.68676h-3.99714a1.00584,1.00584,0,0,1,0-2.01167h3.99714a1.00584,1.00584,0,0,1,0,2.01167Zm-7.99521,0H501.68a1.00584,1.00584,0,1,1,0-2.01167h3.99714a1.00584,1.00584,0,0,1,0,2.01167Zm-7.99428,0h-3.99714a1.00584,1.00584,0,0,1,0-2.01167h3.99714a1.00584,1.00584,0,0,1,0,2.01167Zm-7.99428,0h-3.99714a1.00584,1.00584,0,0,1,0-2.01167h3.99714a1.00584,1.00584,0,1,1,0,2.01167Zm-7.99427,0h-3.99714a1.00584,1.00584,0,1,1,0-2.01167h3.99714a1.00584,1.00584,0,0,1,0,2.01167Zm-7.99428,0h-3.99714a1.00584,1.00584,0,0,1,0-2.01167h3.99714a1.00584,1.00584,0,0,1,0,2.01167Zm-7.99428,0h-3.99714a1.00584,1.00584,0,0,1,0-2.01167h3.99714a1.00584,1.00584,0,1,1,0,2.01167Zm-7.99427,0h-3.99714a1.00584,1.00584,0,1,1,0-2.01167h3.99714a1.00584,1.00584,0,0,1,0,2.01167Zm-7.99428,0H445.7201a1.00584,1.00584,0,0,1,0-2.01167h3.99714a1.00584,1.00584,0,0,1,0,2.01167Zm-7.99521,0h-3.99714a1.00584,1.00584,0,1,1,0-2.01167H441.722a1.00584,1.00584,0,0,1,0,2.01167Zm-7.99428,0h-3.99714a1.00584,1.00584,0,0,1,0-2.01167h3.99714a1.00584,1.00584,0,0,1,0,2.01167Zm-7.99428,0h-3.99714a1.00584,1.00584,0,0,1,0-2.01167h3.99714a1.00584,1.00584,0,1,1,0,2.01167Zm-7.99428,0h-3.99713a1.00584,1.00584,0,1,1,0-2.01167h3.99713a1.00584,1.00584,0,1,1,0,2.01167Z" fill="#020202"/><path d="M519.68026,356.68676h-2.01167a1.00584,1.00584,0,0,1,0-2.01167h2.01167a1.00584,1.00584,0,1,1,0,2.01167Z" fill="#020202"/><path d="M414.994,383.83212h-1.00584a1.00584,1.00584,0,0,1,0-2.01167H414.994a1.00584,1.00584,0,0,1,0,2.01167Z" fill="#020202"/><path d="M509.25233,383.83212h-1.96395a1.00584,1.00584,0,0,1,0-2.01167h1.96395a1.00584,1.00584,0,1,1,0,2.01167Zm-5.89091,0h-1.964a1.00584,1.00584,0,0,1,0-2.01167h1.964a1.00584,1.00584,0,0,1,0,2.01167Zm-5.89091,0h-1.964a1.00584,1.00584,0,1,1,0-2.01167h1.964a1.00584,1.00584,0,0,1,0,2.01167Zm-5.89185,0h-1.964a1.00584,1.00584,0,1,1,0-2.01167h1.964a1.00584,1.00584,0,0,1,0,2.01167Zm-5.89092,0h-1.964a1.00584,1.00584,0,0,1,0-2.01167h1.964a1.00584,1.00584,0,1,1,0,2.01167Zm-5.89091,0h-1.964a1.00584,1.00584,0,1,1,0-2.01167h1.964a1.00584,1.00584,0,0,1,0,2.01167Zm-5.89185,0h-1.963a1.00584,1.00584,0,0,1,0-2.01167h1.963a1.00584,1.00584,0,0,1,0,2.01167Zm-5.89092,0h-1.96394a1.00584,1.00584,0,1,1,0-2.01167h1.96394a1.00584,1.00584,0,1,1,0,2.01167Zm-5.89091,0h-1.964a1.00584,1.00584,0,0,1,0-2.01167h1.964a1.00584,1.00584,0,1,1,0,2.01167Zm-5.89091,0h-1.964a1.00584,1.00584,0,1,1,0-2.01167h1.964a1.00584,1.00584,0,0,1,0,2.01167Zm-5.89185,0h-1.964a1.00584,1.00584,0,1,1,0-2.01167h1.964a1.00584,1.00584,0,0,1,0,2.01167Zm-5.89092,0h-1.964a1.00584,1.00584,0,0,1,0-2.01167h1.964a1.00584,1.00584,0,1,1,0,2.01167Zm-5.89091,0h-1.964a1.00584,1.00584,0,0,1,0-2.01167h1.964a1.00584,1.00584,0,0,1,0,2.01167Zm-5.89185,0h-1.963a1.00584,1.00584,0,1,1,0-2.01167h1.963a1.00584,1.00584,0,0,1,0,2.01167Zm-5.89091,0h-1.964a1.00584,1.00584,0,1,1,0-2.01167h1.964a1.00584,1.00584,0,0,1,0,2.01167Zm-5.89092,0h-1.964a1.00584,1.00584,0,0,1,0-2.01167h1.964a1.00584,1.00584,0,1,1,0,2.01167Z" fill="#020202"/><path d="M514.18607,383.83212h-1.00584a1.00583,1.00583,0,0,1,0-2.01167h1.00584a1.00584,1.00584,0,0,1,0,2.01167Z" fill="#020202"/><path d="M421.988,414.18773h-1.0049a1.00584,1.00584,0,1,1,0-2.01167h1.0049a1.00584,1.00584,0,0,1,0,2.01167Z" fill="#020202"/><path d="M502.39208,414.18773h-2.06126a1.00584,1.00584,0,1,1,0-2.01167h2.06126a1.00584,1.00584,0,0,1,0,2.01167Zm-6.18471,0h-2.0622a1.00584,1.00584,0,0,1,0-2.01167h2.0622a1.00584,1.00584,0,0,1,0,2.01167Zm-6.18472,0h-2.06219a1.00584,1.00584,0,0,1,0-2.01167h2.06219a1.00584,1.00584,0,1,1,0,2.01167Zm-6.18564,0h-2.06126a1.00584,1.00584,0,1,1,0-2.01167H483.837a1.00584,1.00584,0,0,1,0,2.01167Zm-6.18471,0H475.591a1.00584,1.00584,0,1,1,0-2.01167h2.06126a1.00584,1.00584,0,0,1,0,2.01167Zm-6.18471,0h-2.06126a1.00584,1.00584,0,1,1,0-2.01167h2.06126a1.00584,1.00584,0,0,1,0,2.01167Zm-6.18472,0h-2.06219a1.00584,1.00584,0,0,1,0-2.01167h2.06219a1.00584,1.00584,0,1,1,0,2.01167Zm-6.18564,0H457.036a1.00584,1.00584,0,1,1,0-2.01167h2.06126a1.00584,1.00584,0,0,1,0,2.01167Zm-6.18471,0h-2.06126a1.00584,1.00584,0,1,1,0-2.01167h2.06126a1.00584,1.00584,0,0,1,0,2.01167Zm-6.18471,0h-2.06126a1.00584,1.00584,0,1,1,0-2.01167h2.06126a1.00584,1.00584,0,0,1,0,2.01167Zm-6.18472,0H438.4809a1.00584,1.00584,0,0,1,0-2.01167h2.06219a1.00584,1.00584,0,1,1,0,2.01167Zm-6.18471,0h-2.06219a1.00584,1.00584,0,1,1,0-2.01167h2.06219a1.00584,1.00584,0,1,1,0,2.01167Zm-6.18564,0h-2.06126a1.00584,1.00584,0,1,1,0-2.01167h2.06126a1.00584,1.00584,0,0,1,0,2.01167Z" fill="#020202"/><path d="M507.52043,414.18773h-1.0049a1.00584,1.00584,0,1,1,0-2.01167h1.0049a1.00584,1.00584,0,0,1,0,2.01167Z" fill="#020202"/></svg>