<svg id="Layer_1" data-name="Layer 1" xmlns="http://www.w3.org/2000/svg" viewBox="0 0 700 550"><title>reading newspaper_1</title><path d="M279.73956,249.57342c.0503-2.28.07031-4.55-.04-6.85a41.06428,41.06428,0,0,0-.98-7.04,27.79646,27.79646,0,0,0-1.00976-3.45,12.326,12.326,0,0,0-7.83008-7.62,12.93373,12.93373,0,0,0-3.7002-.63c-1.27,0-2.36963.06-3.56005.1-2.32959.1-4.66993.13-7,.17-2.32959.03-4.66993.03-7-.05a34.6506,34.6506,0,0,1-6.96-.68,16.73923,16.73923,0,0,0,3.40039.98c1.15967.22,2.31983.42005,3.48975.57,2.34033.29,4.7002.48,7.05029.58,2.34961.12,4.69971.12,7.05957.12,1.15039.01,2.40039-.06,3.47022-.03a11.33977,11.33977,0,0,1,8.46,4.23,10.7528,10.7528,0,0,1,1.6499,2.82c.41992,1.06.8003,2.14,1.12989,3.24a83.99072,83.99072,0,0,1,2.34033,13.54c-6.91992-.82995-20.54-1.87-41.58008-1.01-.54981-8.32-.93018-14.33-1.12988-16.4-.87012-8.9,6.73974-9.75,6.73974-9.75l38.24024-3.32c-1.91993,2.85-1.68994,4.7-1,6.24a5.10477,5.10477,0,0,1-.08008,3.47c-2.23,3-1,5.39-.4502,5.78.5503.38.53028,2.38.53028,2.38-1.54,3.86.62011,5.09,2.23,6.24a1.67611,1.67611,0,0,0,1.25.29l.6997,6.88995S283.39,250.01342,279.73956,249.57342Z"/><path d="M356.72091,134.62736s.6162-5.95662,5.54582-4.31342,11.70784-.16258,14.58345-.28669c0,0,1.8486,6.85951,3.28641,6.85951s1.2324,16.63746-6.162,18.07526c0,0-3.29324-.343-4.88884-1.98245a3.94625,3.94625,0,0,0-3.85521-1.07029,6.1704,6.1704,0,0,0-4.5043,4.696s3.59452,17.15095,16.63746.9243c0,0,2.87561-3.49181,4.82691-11.09164,0,0-.7189-9.65383,4.00532-10.88623,0,0,1.8486-.1027,1.7459,2.054,0,0,1.03855-1.11157.379-10.80451a7.0656,7.0656,0,0,0-4.42588-6.087c-2.41511-.96211-5.15519-2.08468-5.915-2.51888-1.43781-.8216-14.58345-.9243-18.89686,2.77291S356.72091,134.62736,356.72091,134.62736Z"/><path d="M356.72092,134.62736l.13305,5.66488c.03345.94005.05152,1.87958.127,2.80864a9.86254,9.86254,0,0,0,.41723,2.62859,33.68327,33.68327,0,0,1,1.96216,5.35941c.5398,1.81575,1.00489,3.6534,1.366,5.51634-.68018-1.76886-1.35669-3.5339-1.99976-5.30609a53.16047,53.16047,0,0,0-2.10351-5.20848,9.69367,9.69367,0,0,1-.449-2.94562c-.03027-.95718-.03076-1.9077.01465-2.8565A50.994,50.994,0,0,1,356.72092,134.62736Z"/><path d="M357.6196,142.45826a4.57924,4.57924,0,0,1,1.6123-.85674,5.75056,5.75056,0,0,1,1.83277-.26454,4.6744,4.6744,0,0,1,1.82739.42,3.55294,3.55294,0,0,1,1.42871,1.16338,11.64486,11.64486,0,0,0-1.6477-.53243,8.28306,8.28306,0,0,0-1.63282-.196A21.83963,21.83963,0,0,0,357.6196,142.45826Z"/><path d="M368.09494,142.3393a4.96229,4.96229,0,0,1,1.85986-1.0674,6.546,6.546,0,0,1,2.14356-.34766,6.277,6.277,0,0,1,4.00732,1.41506c-.708-.13564-1.36132-.31168-2.02929-.40129a12.22242,12.22242,0,0,0-1.98047-.15845A14.86481,14.86481,0,0,0,368.09494,142.3393Z"/><path d="M361.31675,146.36087a1.28452,1.28452,0,0,0,0-2.56751,1.28452,1.28452,0,0,0,0,2.56751Z"/><path d="M370.25168,146.20682a1.28452,1.28452,0,0,0,0-2.56751,1.28452,1.28452,0,0,0,0,2.56751Z"/><path d="M362.7031,149.46756a5.61122,5.61122,0,0,0,2.55981,1.5314,2.67362,2.67362,0,0,0,1.37085-.1226c.2417-.056.46411-.1926.71631-.279.23828-.117.47192-.25215.74487-.35959a5.17335,5.17335,0,0,1-.4956.69794,3.588,3.588,0,0,1-.68531.54681,2.55915,2.55915,0,0,1-1.79541.35945,2.89745,2.89745,0,0,1-1.58618-.87773A3.22625,3.22625,0,0,1,362.7031,149.46756Z"/><path d="M356.29962,248.05346a.09171.09171,0,0,1-.08008.11l-7.06006,1.33h-.07959c-3.76025-.47-7.54-.87-11.32031-1.28q-5.66967-.615-11.33984-1.09c-3.77979-.31-7.56983-.56-11.33985-.74a80.23014,80.23014,0,0,0-8.91015.02,3.64593,3.64593,0,0,0-.26026-1.74,86.2336,86.2336,0,0,1,9.25.14c3.81006.23,7.6001.6,11.39014,1.03,7.55029.86,15.06983,1.89,22.56983,3.15l7.07031-1.01A.08886.08886,0,0,1,356.29962,248.05346Z"/><path d="M400.71954,199.37347c.18994.82.38037,1.65.56006,2.47-.46973.04-.96973.06-1.48.07-.37012-1.49-.73975-2.97-1.1001-4.46l-4.68994-19.79c-1.48974-6.32-2.83984-12.67-4.23-19.01l-29.35986,7.89-15.06983,4.17-15.03027,4.31a.29488.29488,0,0,1-.1001.02c-4.33984,0-8.68994.08-13.04.12l-13.03955.17c-8.2705.12-16.5205.17-24.79.24,4.16993,11.43,8.41993,22.83,12.52979,34.28l.08984.26c-.65967.17-1.35009.34-2.0498.51l-.02-.05c-4.29981-11.84-8.46-23.73-12.7002-35.57995v-.01a.905.905,0,0,1,.54-1.16,1.11663,1.11663,0,0,1,.31006-.05c8.7002.08,17.39014.12,26.09033.26l13.03955.16c4.33008.04,8.67041.12,12.99024.13l15.02-4.2,15.02-4.35,29.96972-8.94a.82362.82362,0,0,1,1.02.55l.01026.05v.02l8.98974,39.64C400.3797,197.85345,400.54962,198.61346,400.71954,199.37347Z"/><path d="M409.79962,236.57342a.08824.08824,0,0,1-.02.11005.09629.09629,0,0,1-.13965,0c-.01025-.01-.0205-.03-.03027-.04-1.12012-2.98-2.06982-6.02-2.9502-9.08.23047,0,.4502-.01.67041-.02.75,3.02,1.56006,6.03,2.46,9C409.78986,236.55346,409.79962,236.56347,409.79962,236.57342Z"/><path d="M294.25852,251.83244c-5.50831-.76111-11.02417-1.45067-16.56421-1.88856-5.53467-.48668-11.085-.77106-16.63623-.91361-5.55127-.15115-11.10547-.13759-16.65357.00307-5.54272.14932-11.10425.43225-16.59375.97971l.08936-.01476a29.44674,29.44674,0,0,0-9.31153,3.848,22.22226,22.22226,0,0,0-3.822,3.2121,21.45542,21.45542,0,0,0-2.928,4.02232,25.32684,25.32684,0,0,0-2.8977,9.53624,32.80067,32.80067,0,0,0,.45337,10.024l.001.0051c.00586.028.01246.06433.01709.09231.77857,4.77472,2.75245,9.44794,4.8274,13.97357,2.11035,4.53525,4.4812,8.96567,6.95605,13.33725,4.96021,8.74228,10.36548,17.24262,15.87842,25.66886q8.27088,12.64146,17.01538,24.97833l8.78809,12.29968,2.2163,3.06064,1.10962,1.51743a6.67342,6.67342,0,0,0,1.13916,1.18655,6.56056,6.56056,0,0,0,2.971,1.37,10.74205,10.74205,0,0,0,1.74268.13333l1.88574.05175c5.02832.11954,10.062.15128,15.07519-.04092q1.87977-.07137,3.75147-.20438c.62842-.04415,1.25854-.09216,1.7854-.18209a6.07083,6.07083,0,0,0,1.57178-.56021,5.95294,5.95294,0,0,0,3.18945-5.52839,6.39,6.39,0,0,0-.30371-1.66623l-.59912-1.79409-1.19824-3.58817-2.39869-7.17575-4.81543-14.34567c-6.49951-19.10132-12.92431-38.23059-19.5437-57.28818a.42912.42912,0,0,1,.43628-.56857l.00806.00073c7.20581.55765,14.44434.87625,21.67627,1.02884,7.23413.12488,14.47168.0484,21.69092-.3078a178.1542,178.1542,0,0,0,21.51953-2.23694,78.2878,78.2878,0,0,0,10.46826-2.477,34.61038,34.61038,0,0,0,9.5603-4.47742.84633.84633,0,0,1,1.33618.65439l1.38941,29.98761.34473,7.4567.41772,7.48749c.28662,4.99279.52783,9.98284.89307,14.9674l1.00659,14.95917c.18017,2.4913.3081,4.99036.531,7.47522l.75855,7.43384.37915,3.71661.09473.92914c.03833.2977.08789.53757.13916.80713a7.47162,7.47162,0,0,0,5.293,5.497,8.405,8.405,0,0,0,1.6106.26282l1.86963.14471,3.73926.2894,7.47851.57883,7.47852.57885,3.73926.2894.46728.03619.37915.00611a5.07329,5.07329,0,0,0,2.18164-.44617,5.41227,5.41227,0,0,0,3.22559-4.676c.01514-.44791-.02588-1.12424-.05737-1.742l-.094-1.87326-.188-3.74649-1.50488-29.97195c-.98975-19.982-2.04517-39.96061-2.94434-59.94721a1.207,1.207,0,0,1,1.15162-1.26016,1.22369,1.22369,0,0,1,.12255.00061l.02832.00174a29.22783,29.22783,0,0,0,9.03418-.95779,23.0001,23.0001,0,0,0,8.13013-3.92177,19.7031,19.7031,0,0,0,5.60181-6.98708,27.58288,27.58288,0,0,0,2.39941-8.81518l.02832.3672c-2.55957-8.28745-7.9331-16.05383-15.37915-20.71517-.96484-.51382-1.90771-1.102-2.89038-1.56007a21.12738,21.12738,0,0,0-3.05273-1.14748,35.519,35.519,0,0,0-6.49024-1.24774,58.38347,58.38347,0,0,0-13.34131.26453,59.61929,59.61929,0,0,0-13.00683,3.09967,33.00685,33.00685,0,0,0-6.002,2.86191,16.41051,16.41051,0,0,0-2.60961,1.99525,8.28554,8.28554,0,0,0-1.927,2.55406,5.963,5.963,0,0,0-.47949,1.50226l-.25342,1.662c-.14233,1.11287-.28491,2.227-.3811,3.34747-.21191,2.23837-.35107,4.48682-.43189,6.73816q-.249,6.7533-.0039,13.52239a.12849.12849,0,0,1-.12183.13475.13.13,0,0,1-.13452-.1209q-.38671-6.76776-.28662-13.55119c.03271-2.26062.124-4.5219.28906-6.78113.073-1.13019.19263-2.25819.3125-3.38646l.22071-1.68977a6.81214,6.81214,0,0,1,.50732-1.72168,9.14608,9.14608,0,0,1,2.05566-2.86171,17.33313,17.33313,0,0,1,2.71167-2.1688,34.04109,34.04109,0,0,1,6.13233-3.08973,63.6002,63.6002,0,0,1,26.89795-3.84217,37.08616,37.08616,0,0,1,6.80322,1.2067,22.78454,22.78454,0,0,1,3.29492,1.18462c1.06885.47979,2.05689,1.07438,3.08911,1.60887a36.17644,36.17644,0,0,1,10.177,9.3379,41.70378,41.70378,0,0,1,6.28882,12.34026.82605.82605,0,0,1,.03321.3214l-.00489.04618a29.6678,29.6678,0,0,1-2.511,9.52645,21.89619,21.89619,0,0,1-6.15918,7.81744,25.26414,25.26414,0,0,1-8.896,4.40184,31.38594,31.38594,0,0,1-9.85058,1.11722l1.30224-1.25763c1.146,19.974,2.136,39.956,3.19116,59.9346l1.56324,29.969.19531,3.74613.09765,1.873c.02906.6311.08057,1.20285.06177,2.006a8.04382,8.04382,0,0,1-4.866,7.03283,7.76553,7.76553,0,0,1-3.28833.656l-.55835-.01636-.46753-.03854-3.73926-.30847-7.47876-.617-7.47852-.61694-3.73925-.30847-1.86963-.15424a11.05135,11.05135,0,0,1-2.08252-.356,9.99751,9.99751,0,0,1-7.05786-7.40448c-.06788-.34317-.13672-.71885-.17579-1.04078l-.09106-.93728-.36377-3.74893-.72705-7.49726c-.21118-2.49731-.32642-4.99591-.49438-7.49377l-.93262-14.98776c-.34717-4.994-.50806-10.00016-.74829-14.99665l-.3357-7.49841-.26562-7.53558L355.468,277.61472l1.33594.65426a36.12849,36.12849,0,0,1-10.08277,4.60712,79.759,79.759,0,0,1-10.69092,2.4079,178.62433,178.62433,0,0,1-21.70971,2.00491c-7.25586.27844-14.51441.25259-21.76465.06689-7.252-.18438-14.49243-.53381-21.72949-1.12512l.44384-.56766c6.45508,19.11857,13.07984,38.17383,19.67408,57.242l4.98462,14.28836,2.50293,7.14075,1.25048,3.57074.62525,1.78537a7.77149,7.77149,0,0,1,.40283,2.03662,7.40552,7.40552,0,0,1-3.8772,6.93176,7.5866,7.5866,0,0,1-1.96826.73224c-.71606.13272-1.3435.18079-1.97241.23645q-1.90028.163-3.80005.26117c-5.06543.26523-10.12524.30374-15.18286.25455l-1.89649-.02546a12.50891,12.50891,0,0,1-2.02587-.13485,8.46829,8.46829,0,0,1-3.85132-1.71109,8.62144,8.62144,0,0,1-1.49512-1.51413l-1.145-1.52054-2.26416-3.03607c-3.01978-4.04734-5.96948-8.14572-8.90186-12.2565q-8.78906-12.33805-17.17163-24.968c-5.55493-8.44144-10.88549-17.03851-15.85034-25.86438-2.47-4.42-4.83935-8.90457-6.9602-13.52823-2.08228-4.63449-4.08838-9.359-4.91675-14.57675l.01807.097a34.61577,34.61577,0,0,1-.43824-10.70368,26.47422,26.47422,0,0,1,3.231-10.223,23.25138,23.25138,0,0,1,3.24487-4.33295,23.95894,23.95894,0,0,1,4.17871-3.41812,31.06184,31.06184,0,0,1,9.89283-3.94269l.01684-.00368.07324-.01115c5.58936-.48117,11.15064-.68663,16.73-.7623q8.36244-.12153,16.71729.2905c5.56641.2608,11.126.66374,16.66333,1.26884,5.54468.5405,11.05176,1.39981,16.541,2.31321a.1283.1283,0,0,1,.10546.14769A.13081.13081,0,0,1,294.25852,251.83244Z"/><path d="M245.39377,268.13779l6.07739,4.93676c2.03565,1.62639,4.05469,3.26734,6.12158,4.84281,2.05518,1.59015,4.1543,3.11764,6.30787,4.55762a34.35164,34.35164,0,0,0,3.33789,1.97354,12.52023,12.52023,0,0,0,3.625,1.35373c-2.65943-.10636-5.08692-1.41877-7.366-2.672a60.58211,60.58211,0,0,1-6.51367-4.42047c-2.06934-1.609-4.0857-3.28128-6.01123-5.05414C249.0405,271.89142,247.154,270.07707,245.39377,268.13779Z"/><path d="M307.42478,252.11653a80.802,80.802,0,0,1,13.85888,2.76947,92.25315,92.25315,0,0,1,13.26367,4.98131,70.38693,70.38693,0,0,1,12.06934,7.44305A49.207,49.207,0,0,1,356.31,277.58621a58.70079,58.70079,0,0,0-4.813-5.13392l-1.27344-1.20771a11.96988,11.96988,0,0,0-1.31958-1.1531l-2.75464-2.17017a76.01167,76.01167,0,0,0-12.03393-7.15335,102.93716,102.93716,0,0,0-13.0542-5.14923q-3.34314-1.08891-6.76-1.94884C312.03439,253.053,309.737,252.55792,307.42478,252.11653Z"/><path d="M380.54733,259.511a8.394,8.394,0,0,1,3.10743.84819,17.35465,17.35465,0,0,1,2.75366,1.721,24.2558,24.2558,0,0,1,4.54248,4.60675c.67431.843,1.24316,1.75852,1.86108,2.63893.532.93366,1.11719,1.83617,1.59912,2.79459.46558.96651.96216,1.915,1.39869,2.89067.39013.99872.81,1.98041,1.16967,2.98587-1.09643-1.83911-2.11841-3.6955-3.23559-5.494l-1.72315-2.65712c-.62817-.844-1.1914-1.73825-1.8601-2.54736a32.42758,32.42758,0,0,0-4.23609-4.62485,17.39655,17.39655,0,0,0-2.502-1.886A9.55846,9.55846,0,0,0,380.54733,259.511Z"/><path d="M330.22434,174.68048q2.92381,9.17766,5.47754,18.44913c1.72949,6.17418,3.34545,12.37709,4.93945,18.58557,1.55786,6.21765,3.09131,12.44148,4.512,18.69392q2.172,9.36821,3.96777,18.83182-2.92712-9.1768-5.48071-18.44839c-1.72876-6.1743-3.34472-12.37722-4.93652-18.58629-1.55542-6.21828-3.08887-12.4421-4.509-18.69467Q332.02426,184.143,330.22434,174.68048Z"/><path d="M306.21237,246.40712a4.0148,4.0148,0,0,1-2.74243,3.31589,6.11754,6.11754,0,0,1-1.51.20343,18.40864,18.40864,0,0,1-5.83813-1.066,24.91583,24.91583,0,0,1-5.387-2.46579,14.49118,14.49118,0,0,1-2.36035-1.83437,6.04514,6.04514,0,0,1-.95923-1.179,2.67058,2.67058,0,0,1-.45629-1.49141l.3125.12718a5.771,5.771,0,0,1-2.59278,1.578,1.91838,1.91838,0,0,1-1.52856-.27226c-.407-.28416-.82251-.55927-1.21656-.877a4.14444,4.14444,0,0,1-1.63159-2.55013,6.27466,6.27466,0,0,1,.43457-3.0291l-.01855.09419a5.25938,5.25938,0,0,0-.35986-1.994.424.424,0,0,0-.0896-.10948,1.76511,1.76511,0,0,1-.24878-.23641,2.75342,2.75342,0,0,1-.34668-.52619,4.0087,4.0087,0,0,1-.36426-1.14232,4.87969,4.87969,0,0,1,.19238-2.34066,7.51523,7.51523,0,0,1,1.06543-2.05561l-.05224.09361a5.25712,5.25712,0,0,0,.28393-2.29871,3.21629,3.21629,0,0,0-.11938-.54289c-.0564-.16609-.12867-.33223-.22583-.5556a5.442,5.442,0,0,1-.05933-4.04644,10.44678,10.44678,0,0,1,1.229-2.35287.43847.43847,0,0,1,.07056-.08073l.00781-.00681a3.24016,3.24016,0,0,0,.43921-.50761,2.77358,2.77358,0,0,0,.32276-.60131,2.148,2.148,0,0,0,.07959-1.3092l.01562.045a6.388,6.388,0,0,1-.50342-2.91043,1.6424,1.6424,0,0,1,.31958-.79,1.41758,1.41758,0,0,1,.7124-.46976c.46143-.16084.90992-.278,1.36377-.39973,1.8086-.47985,3.63428-.85492,5.4585-1.24054a.04282.04282,0,0,1,.05078.03305.04331.04331,0,0,1-.02978.04989l-5.33521,1.64632c-.43774.14514-.88354.29175-1.29248.46254a.78946.78946,0,0,0-.42261.3,1.06674,1.06674,0,0,0-.16943.49861,5.79928,5.79928,0,0,0,.55054,2.52182l.01587.04539a2.94728,2.94728,0,0,1-.04126,1.79312,3.60089,3.60089,0,0,1-.39185.80059,3.52579,3.52579,0,0,1-.5852.68783l.07788-.08725a6.48958,6.48958,0,0,0-1.35865,4.45772,5.0245,5.0245,0,0,0,.31665,1.1216c.06861.16749.16407.393.23877.63046a4.05593,4.05593,0,0,1,.14014.70294,6.0611,6.0611,0,0,1-.38818,2.71044.34609.34609,0,0,1-.04639.08607l-.0061.00789a5.29821,5.29821,0,0,0-1.21338,3.79312,3.32341,3.32341,0,0,0,.26465.95214,2.119,2.119,0,0,0,.24023.39828.92553.92553,0,0,0,.14185.14751,1.04851,1.04851,0,0,1,.25293.31425,5.55722,5.55722,0,0,1,.32251,2.30963.23957.23957,0,0,1-.01856.09458,5.73087,5.73087,0,0,0-.54761,2.783,3.60216,3.60216,0,0,0,1.4419,2.378c.7771.55831,1.54077,1.42516,2.50244,1.09889a5.29915,5.29915,0,0,0,2.38818-1.55041.18141.18141,0,0,1,.312.1167l.00049.01054a3.56489,3.56489,0,0,0,1.418,2.27565,13.91108,13.91108,0,0,0,2.35474,1.62526,32.21173,32.21173,0,0,0,5.26123,2.37477,20.57464,20.57464,0,0,0,5.60644,1.21987,3.86072,3.86072,0,0,0,2.63526-.69886,3.37443,3.37443,0,0,0,1.531-2.29412.043.043,0,0,1,.04834-.03663A.04394.04394,0,0,1,306.21237,246.40712Z"/><path d="M305.86984,244.67911l-.23266-.42871a.07372.07372,0,0,1,.02954-.10015l.02466-.00821.00927-.00126c.39478-.05538.79078-.07149,1.17627-.13915a5.00693,5.00693,0,0,0,1.10205-.35835,2.99208,2.99208,0,0,0,1.59913-1.4966,4.80982,4.80982,0,0,0,.40087-2.1963,8.21049,8.21049,0,0,0-.37524-2.255.35792.35792,0,0,1,.23242-.44941.37446.37446,0,0,1,.0791-.01567,6.60592,6.60592,0,0,0,2.7146-.7594,3.43933,3.43933,0,0,0,1.70655-2.02678,2.89874,2.89874,0,0,0,.11767-1.33116,2.208,2.208,0,0,0-.64966-1.14382,10.72274,10.72274,0,0,0-2.324-1.78606l-.011-.00643a.16788.16788,0,0,1,.07886-.31206,3.60929,3.60929,0,0,0,2.89722-1.53025,5.07416,5.07416,0,0,0,.72217-3.2879,2.8377,2.8377,0,0,0-.20655-.796c-.0603-.11658-.12231-.19657-.16455-.18857a2.50567,2.50567,0,0,1-.46069-.18537c-.53882-.28434-1.03638-.604-1.53565-.92584-.99463-.64752-1.96093-1.32541-2.91381-2.03a.34692.34692,0,0,1,.17016-.624l.01978-.002a1.72629,1.72629,0,0,0,1.04907-.412,1.64525,1.64525,0,0,0,.37988-1.03511,5.52166,5.52166,0,0,0-.10351-1.30162,4.75163,4.75163,0,0,0-.30787-1.20464c-.16845-.29539-.46435-.41147-.93945-.62683-.426-.19919-.85522-.39586-1.2771-.61133a24.10355,24.10355,0,0,1-2.47729-1.43315c-1.55225-1.07423-3.073-2.11291-4.68531-3.02888a16.69188,16.69188,0,0,0-2.48388-1.18019,7.38157,7.38157,0,0,0-1.292-.36748,3.309,3.309,0,0,0-.6399-.04514,1.26083,1.26083,0,0,0-.498.11614l-.08936.05963a.1092.1092,0,0,1-.03662.01543c-1.55884.33039-3.12891.61406-4.69531.91561a.04275.04275,0,0,1-.0503-.03363.04326.04326,0,0,1,.03028-.04954c1.53344-.43842,3.06323-.89475,4.60449-1.30432l-.12549.07487a1.39174,1.39174,0,0,1,.81275-.32162,3.8301,3.8301,0,0,1,.76123.00282,6.92648,6.92648,0,0,1,1.42846.31635,17.37474,17.37474,0,0,1,2.63428,1.1258,42.014,42.014,0,0,1,4.8147,2.96866,23.22035,23.22035,0,0,0,2.39721,1.35909l1.24756.62343a2.60059,2.60059,0,0,1,1.29395.99145,2.326,2.326,0,0,1,.2605.79779l.12378.70658a6.28812,6.28812,0,0,1,.08105,1.49575,2.33817,2.33817,0,0,1-.645,1.51522,2.434,2.434,0,0,1-1.52588.56858l.18994-.62585c.92017.72542,1.84571,1.45439,2.78589,2.15286.47119.34563.949.69054,1.43994.98036a2.41817,2.41817,0,0,0,.34815.1666.66211.66211,0,0,1,.42358.42653,3.16877,3.16877,0,0,1,.19385.91867,5.48253,5.48253,0,0,1-.84277,3.46934,3.96476,3.96476,0,0,1-3.09058,1.72152l.06787-.31839a11.412,11.412,0,0,1,2.53833,1.71914,2.76349,2.76349,0,0,1,.87866,1.39,3.54233,3.54233,0,0,1-.042,1.64369,4.17707,4.17707,0,0,1-2.00928,2.49806,6.93,6.93,0,0,1-3.04052.80184l.31128-.46489a8.85065,8.85065,0,0,1,.35424,2.47352,5.07965,5.07965,0,0,1-.58618,2.44745,3.35665,3.35665,0,0,1-1.92261,1.59688,5.34434,5.34434,0,0,1-1.20507.27368c-.4065.03058-.81446.02123-1.217.02284l.06347-.10942.187.4711a.04254.04254,0,0,1-.0769.03607Z"/><path d="M289.37521,215.09306l11.1875.07878a11.07967,11.07967,0,0,1,5.438,1.59044,15.4011,15.4011,0,0,1,2.259,1.735l2.12036,1.82249a.428.428,0,1,1-.55811.64916l-.0122-.01091-2.04908-1.90228a14.739,14.739,0,0,0-2.1018-1.75016,10.5449,10.5449,0,0,0-5.11524-1.70624Z"/><path d="M286.75632,223.874l6.72949-.71921,3.365-.3596a13.043,13.043,0,0,1,3.41846-.06084,11.06775,11.06775,0,0,1,3.30542.97061,14.42021,14.42021,0,0,1,2.87353,1.8833l5.37549,4.112a.428.428,0,1,1-.52.67984l-.0105-.00839-5.24292-4.27988a13.84527,13.84527,0,0,0-2.71167-1.90687,10.58428,10.58428,0,0,0-3.13061-1.02713,12.65306,12.65306,0,0,0-3.32813-.04305l-3.37451.25305Z"/><path d="M286.21726,233.8102l12.53662-1.75068a6.75394,6.75394,0,0,1,4.7207.95905l1.33984.84148,5.36011,3.36589a.42795.42795,0,0,1-.45508.72488l-.0122-.00789-5.24317-3.54515a13.14221,13.14221,0,0,0-2.65332-1.57983,6.26986,6.26986,0,0,0-3.00488-.33368Z"/><path d="M287.14133,241.89784l4.79126-.56816c1.60547-.17586,3.176-.40909,4.80981-.53781a11.08327,11.08327,0,0,1,4.822.88687c1.49219.69942,2.89038,1.43566,4.34034,2.15167a.42808.42808,0,1,1-.37915.76764l-.01539-.008-.00585-.00321c-1.40088-.77138-2.81666-1.59549-4.20533-2.32356a10.547,10.547,0,0,0-4.54809-1.04353c-1.57617.054-3.2002.21893-4.79785.323Z"/><path d="M400.06882,199.98392a22.69709,22.69709,0,0,1,5.58862-4.62175,8.98661,8.98661,0,0,1,7.168-.94272,5.60838,5.60838,0,0,1,.87378.38081,7.485,7.485,0,0,1,.78174.537,9.41763,9.41763,0,0,1,3.2893,4.45034,10.42221,10.42221,0,0,1,.57789,3.68064c-.00513.312-.02637.62384-.05689.93438a5.03679,5.03679,0,0,0-.01269.83561,2.40547,2.40547,0,0,0,.51806,1.40022l.04224.04317a5.39971,5.39971,0,0,1,1.17383,4.32179,8.64356,8.64356,0,0,1-.60987,2.159c-.27685.70239-.74072,1.3038-.6311,1.82268a3.454,3.454,0,0,0,.32642.90748,10.89854,10.89854,0,0,1,.46582,1.00481,5.44442,5.44442,0,0,1,.26855,2.25845,3.72984,3.72984,0,0,1-.77734,2.18007,2.34514,2.34514,0,0,1-.25074.21309,1.56284,1.56284,0,0,0-.17724.14008,1.23859,1.23859,0,0,0-.2749.34805,1.51408,1.51408,0,0,0-.16724.86922l-.04785-.10889a3.58921,3.58921,0,0,1,.7456,2.10028,2.83813,2.83813,0,0,1-.94433,2.00913,3.37458,3.37458,0,0,1-2.00074.90887,4.63684,4.63684,0,0,1-1.07641-.15181c-.33569-.04671-.68506-.0638-1.03247-.07855-2.79785-.04764-5.61231.06091-8.42188.15687-2.811.09633-5.62549.16034-8.4436.07634a20.14938,20.14938,0,0,1-4.23169-.46692,4.55063,4.55063,0,0,1-1.98169-.98031,1.55983,1.55983,0,0,1-.5083-1.0965,1.89953,1.89953,0,0,1,.36719-1.15658l.15747.42759a27.52313,27.52313,0,0,1-2.91236-.72368,8.52755,8.52755,0,0,1-2.75585-1.3583,2.35913,2.35913,0,0,1-.88892-1.43244,2.315,2.315,0,0,1,.45361-1.63882,7.33524,7.33524,0,0,1,2.37769-2.01972l.06006.7065a23.4597,23.4597,0,0,1-2.25122-.86976,12.30833,12.30833,0,0,1-2.11866-1.22194,6.18689,6.18689,0,0,1-1.70654-1.85576,3.30937,3.30937,0,0,1-.36182-2.63765l-.03051.159a1.26058,1.26058,0,0,1,.62964-.9956,4.1368,4.1368,0,0,1,.80737-.425,11.62875,11.62875,0,0,1,1.61792-.5,32.3914,32.3914,0,0,1,3.24975-.59416c2.17334-.29048,4.344-.47565,6.531-.5966l.022.88369a16.31446,16.31446,0,0,1-4.90551-.74716,8.58379,8.58379,0,0,1-2.28077-1.118,4.887,4.887,0,0,1-.97046-.8736,2.53016,2.53016,0,0,1-.6455-1.28657,1.88808,1.88808,0,0,1,.488-1.40787,3.60228,3.60228,0,0,1,1.04981-.83317,9.3219,9.3219,0,0,1,2.34961-.8937,24.98148,24.98148,0,0,1,4.85888-.66c3.26734-.19367,6.48414.32627,9.65406-.18946a18.27289,18.27289,0,0,0,8.85254-3.45355l.00463-.00372a.04262.04262,0,0,1,.05445.06556,17.99056,17.99056,0,0,1-8.84766,3.812,27.0932,27.0932,0,0,1-4.86767.32345c-1.616-.016-3.21509-.05974-4.814.06911a24.34139,24.34139,0,0,0-4.707.73576,8.61153,8.61153,0,0,0-2.145.86147c-.6438.368-1.1792.93254-1.1123,1.47862a3.08742,3.08742,0,0,0,1.29516,1.55557,7.73524,7.73524,0,0,0,2.05493.99436,15.46612,15.46612,0,0,0,4.63379.68657.44221.44221,0,0,1,.02222.88371c-2.15308.12651-4.3169.3188-6.45166.612-1.06641.15047-2.13184.3138-3.16626.55665a10.80547,10.80547,0,0,0-1.49927.44664,3.32782,3.32782,0,0,0-.63647.32355c-.19483.11872-.28247.26787-.27027.28952a.062.062,0,0,1,.00489.04865l-.03565.11073a2.54279,2.54279,0,0,0,.29785,1.91606,5.37848,5.37848,0,0,0,1.46485,1.60919,11.51783,11.51783,0,0,0,1.96435,1.15435,22.81893,22.81893,0,0,0,2.15454.855.38818.38818,0,0,1,.24.49339.40008.40008,0,0,1-.17993.21326,6.66393,6.66393,0,0,0-2.1521,1.74457,1.63024,1.63024,0,0,0-.36206,1.13851,1.7047,1.7047,0,0,0,.63892,1.03165,7.98244,7.98244,0,0,0,2.51806,1.28963,26.98339,26.98339,0,0,0,2.83155.76256.271.271,0,0,1,.20556.32332.28663.28663,0,0,1-.04834.10447,1.16018,1.16018,0,0,0,.075,1.57916,4.06366,4.06366,0,0,0,1.74487.882,19.77087,19.77087,0,0,0,4.12842.51c2.80127.12238,5.61181.09763,8.42041.04019,2.8103-.03605,5.6145-.23829,8.43969-.19963.3545.01155.7085.02448,1.06958.07082a3.98549,3.98549,0,0,0,1.00367.131,3.00062,3.00062,0,0,0,1.74365-.85119,2.39831,2.39831,0,0,0,.76294-1.71789,3.10329,3.10329,0,0,0-.69605-1.78361l-.00586-.00763a.22682.22682,0,0,1-.04223-.10164,2.02045,2.02045,0,0,1,.19409-1.21747,1.7836,1.7836,0,0,1,.37524-.5018,2.10784,2.10784,0,0,1,.23951-.19908,1.853,1.853,0,0,0,.15429-.13933,3.21866,3.21866,0,0,0,.56861-1.82983,4.802,4.802,0,0,0-.281-1.97757,9.77372,9.77372,0,0,1-.86011-2.04483,2.13586,2.13586,0,0,1,.21607-1.24065c.16162-.358.31811-.64444.44677-.97a7.90561,7.90561,0,0,0,.54248-1.97452,4.77838,4.77838,0,0,0-1.00976-3.73982l.04224.04288c-1.07422-1.17-.71534-2.68752-.67237-3.75745a9.735,9.735,0,0,0-.50488-3.44028,8.45676,8.45676,0,0,0-1.74414-2.99238,9.4254,9.4254,0,0,0-1.27783-1.1989,4.61615,4.61615,0,0,0-1.47144-.86551,8.58355,8.58355,0,0,0-6.79956.74837,22.47545,22.47545,0,0,0-5.7019,4.34082.04282.04282,0,0,1-.06055.00072A.04351.04351,0,0,1,400.06882,199.98392Z"/><path d="M393.53171,208.55676a52.426,52.426,0,0,0,9.39819.23224,24.98173,24.98173,0,0,0,4.64673-.72487,9.62039,9.62039,0,0,0,4.19165-2.06,9.7214,9.7214,0,0,1-4.13208,2.26553,25.28959,25.28959,0,0,1-4.665.9453,53.02052,53.02052,0,0,1-9.52759.19312.42813.42813,0,1,1,.05518-.85448l.01758.00151Z"/><path d="M387.26877,217.28645a105.645,105.645,0,0,0,12.75293.70331,52.41078,52.41078,0,0,0,6.37427-.42042,16.22137,16.22137,0,0,0,6.09131-1.80872,16.32141,16.32141,0,0,1-6.05835,2.02014,52.72583,52.72583,0,0,1-6.39527.63675,106.23906,106.23906,0,0,1-12.85644-.28012.428.428,0,1,1,.06836-.85332l.01245.00116Z"/><path d="M390.8342,223.85715c3.23022.17721,6.47949.25445,9.7207.20437,1.62012-.038,3.24219-.09227,4.85547-.2505a14.313,14.313,0,0,0,4.7146-1.06679,14.40357,14.40357,0,0,1-4.68921,1.27924c-1.61377.23012-3.23877.356-4.86377.46562-3.25293.19307-6.50659.25887-9.77124.22325a.42807.42807,0,0,1,.00928-.85609l.01733.00052Z"/><path d="M388.04123,137.59474a22.66669,22.66669,0,0,1,.33154,2.79807,15.513,15.513,0,0,1-.106,2.85912,7.64178,7.64178,0,0,1-.96119,2.80949,3.92273,3.92273,0,0,1-2.5874,1.95866l.58936-.76428a19.96311,19.96311,0,0,0,.85522,2.94253,8.55906,8.55906,0,0,0,.62451,1.30721,1.73257,1.73257,0,0,0,.70826.73251l-.09546-.02728c3.81176.78017,7.62353,1.56575,11.41015,2.46249,3.78467.90712,7.54761,1.91448,11.32325,2.8653a229.0053,229.0053,0,0,0,22.885,4.53772l1.43066.194.72681.09716a2.52594,2.52594,0,0,1,.95825.37278,6.41125,6.41125,0,0,1,2.04516,2.58915,29.42384,29.42384,0,0,1,2.01123,5.65907,95.65491,95.65491,0,0,1,2.16285,11.58755,135.52063,135.52063,0,0,1,.89233,23.44007l-.0022.045a.64349.64349,0,0,1-.66528.61055c-3.9541-.14157-7.908-.30457-11.86182-.56752a.10023.10023,0,0,1,0-.2c3.95386-.26295,7.90772-.42593,11.86182-.5675l-.66748.65538c-.17676-7.74429-.761-15.47977-1.67139-23.15463A107.116,107.116,0,0,0,438.3862,171.436a32.51814,32.51814,0,0,0-1.67822-5.39752,5.12887,5.12887,0,0,0-1.39136-2.04287,1.20026,1.20026,0,0,0-.37109-.19768c-.21021-.05194-.47657-.09761-.71167-.14673l-1.4458-.30055-11.39722-2.62036c-3.80078-.84061-7.615-1.61667-11.45117-2.29046-3.834-.68592-7.67749-1.32864-11.49707-2.08251-3.81763-.76346-7.60864-1.64657-11.39673-2.54662l-.04492-.01064-.05078-.01678a3.1534,3.1534,0,0,1-1.51856-1.477,10.03612,10.03612,0,0,1-.69043-1.5994,19.85668,19.85668,0,0,1-.738-3.23812.67033.67033,0,0,1,.56446-.76127l.02514-.00325a2.21168,2.21168,0,0,0,.93848-.41354,3.56124,3.56124,0,0,0,.84033-.85,7.3174,7.3174,0,0,0,1.04-2.36183,14.84015,14.84015,0,0,0,.39722-2.68971c.05566-.9172.04321-1.84127.03369-2.77257a.1.1,0,0,1,.094-.10586A.105.105,0,0,1,388.04123,137.59474Z"/><path d="M311.55832,174.68048a5.88743,5.88743,0,0,1-.293-3.50714,4.68588,4.68588,0,0,1,.80762-1.67546,5.29623,5.29623,0,0,1,1.40845-1.24724c2.09472-1.18494,4.1936-2.0932,6.32177-3.04736,4.241-1.88565,8.53833-3.61153,12.80005-5.39171,2.13794-.868,4.27222-1.75388,6.34766-2.69817a37.55167,37.55167,0,0,1,6.64575-2.4174c4.47974-1.18547,8.98-2.30286,13.53711-3.22981-4.31885,1.72471-8.69434,3.259-13.09033,4.72519a43.24563,43.24563,0,0,0-6.28076,2.633c-2.11621,1.0265-4.25586,1.93-6.39673,2.83479-4.30127,1.7533-8.63184,3.40056-12.97974,4.9854-2.14868.81575-4.3894,1.55917-6.42895,2.4591a4.0707,4.0707,0,0,0-2.16651,2.23676A6.092,6.092,0,0,0,311.55832,174.68048Z"/><path d="M416.88132,198.50069a16.99062,16.99062,0,0,1,6.78857,1.883,40.80939,40.80939,0,0,1,6.09912,3.6035,58.6631,58.6631,0,0,1,5.488,4.45694c1.731,1.59266,3.38452,3.25505,5.0105,4.9544-.93335-.71579-1.82935-1.47238-2.74487-2.207-.90308-.74606-1.77442-1.5376-2.69825-2.25128-1.81372-1.46868-3.65258-2.906-5.55-4.25534a60.07154,60.07154,0,0,0-5.89819-3.71543,27.55754,27.55754,0,0,0-3.14746-1.49092A13.68383,13.68383,0,0,0,416.88132,198.50069Z"/><path d="M416.91306,227.34889a63.18741,63.18741,0,0,0,11.11132,8.71938,16.06425,16.06425,0,0,0,3.17286,1.45131,6.25415,6.25415,0,0,0,3.41821.20286,9.26611,9.26611,0,0,0,5.61865-3.91908,15.11641,15.11641,0,0,0,2.179-6.55151,31.01337,31.01337,0,0,0-.13037-7.00331c-.28638-2.35091-.365-4.74-.52637-7.11025q-.2-3.56294-.29883-7.13066a.04261.04261,0,0,1,.0415-.044.04308.04308,0,0,1,.04371.03691c.676,4.71106,1.126,9.42458,1.61743,14.15127a26.22022,26.22022,0,0,1,.05127,7.20328,14.32365,14.32365,0,0,1-2.596,6.72084,12.11261,12.11261,0,0,1-2.63892,2.46927,13.27623,13.27623,0,0,1-3.2854,1.4637,7.495,7.495,0,0,1-3.61816-.02931,15.58683,15.58683,0,0,1-3.38648-1.28792,30.91118,30.91118,0,0,1-5.85986-4.15318,44.11174,44.11174,0,0,1-4.97705-5.13214.04292.04292,0,0,1,.0061-.06028A.04442.04442,0,0,1,416.91306,227.34889Z"/><path d="M419.69846,192.75574a49.60722,49.60722,0,0,1-.57642-6.48018,50.12733,50.12733,0,0,1,.20654-6.52,26.82222,26.82222,0,0,1,1.35328-6.42276,11.1475,11.1475,0,0,1,1.552-2.93728,4.18071,4.18071,0,0,1,2.78271-1.67162,4.21875,4.21875,0,0,0-2.384,1.95668,10.75153,10.75153,0,0,0-1.22,2.89234,37.20487,37.20487,0,0,0-1.0896,6.28382c-.22827,2.128-.32886,4.27381-.43506,6.42353-.05249,1.07536-.082,2.15271-.10132,3.23126Z"/><path d="M383.47824,160.023a.42807.42807,0,0,1-.1167-.83984c2.01123-.56983,3.165-4.70313,3.43994-6.24756a.428.428,0,0,1,.84278.15039c-.04444.248-1.11572,6.08935-4.04932,6.92041A.42112.42112,0,0,1,383.47824,160.023Z"/><path d="M439.07907,235.4709c.15015,2.43192.2395,4.86385.29834,7.29576.07642,2.43192.11084,4.86385.11939,7.29576a.418.418,0,0,1-.14234.31417,49.60992,49.60992,0,0,1-7.65063,5.52252,18.99408,18.99408,0,0,1-4.37158,1.85821,4.88132,4.88132,0,0,1-2.40162.06725,2.33793,2.33793,0,0,1-1.65991-1.6,2.31013,2.31013,0,0,0,1.71485,1.35527,4.85126,4.85126,0,0,0,2.22729-.25861,18.45756,18.45756,0,0,0,4.12573-2.03927,65.76837,65.76837,0,0,0,7.46485-5.53334l-.14209.31382c.0083-2.43191.043-4.86384.11914-7.29576C438.83933,240.33475,438.92893,237.90282,439.07907,235.4709Z"/><path d="M271.48679,379.17783a10.934,10.934,0,0,1,1.13232,3.02633,10.80944,10.80944,0,0,1,.29834,3.21741,10.80156,10.80156,0,0,1-1.13208-3.02637A10.92585,10.92585,0,0,1,271.48679,379.17783Z"/><path d="M297.113,378.379a7.49789,7.49789,0,0,1,1.24756,2.35742,7.406,7.406,0,0,1,.43725,2.63113,7.41112,7.41112,0,0,1-1.24756-2.35742A7.48734,7.48734,0,0,1,297.113,378.379Z"/><path d="M305.36945,402.88342s-15.39991,2.46-18.68995,4.31c-3.28955,1.85-36.56005,5.55-44.77978,5.96a170.86862,170.86862,0,0,1-21.18018-.89,4.90614,4.90614,0,0,1-2.66992-1.22c-1.6001-1.49-2.14014-4.31,10.71-7.14a104.30957,104.30957,0,0,0,17.87012-5.95c1.48,1.04,2.93994,1.74,4.2998,2.56a18.75948,18.75948,0,0,1,1.96045,1.26,10.08912,10.08912,0,0,1,1.75,1.72,3.79288,3.79288,0,0,0-.78027-2.63,6.34189,6.34189,0,0,0-2.06982-1.83,8.1417,8.1417,0,0,0-2.49024-.96,6.73957,6.73957,0,0,0-2.6499-.12c3.43994-1.46,6.7998-3.02,9.91992-4.56.53027.54.9502,1.02,1.37988,1.5l1.19043,1.44,1.17969,1.49a14.95189,14.95189,0,0,0,1.3999,1.57,4.86761,4.86761,0,0,0-.21-2.19,5.87268,5.87268,0,0,0-1.04-1.94,5.35908,5.35908,0,0,0-1.71-1.43,3.47047,3.47047,0,0,0-2.18994-.44c8.78027-4.34,15.79981-8.56,18.2002-10.03,4.71972-2.87,7.18994-2.67,9.43994,0a7.04755,7.04755,0,0,0,9.4497.83c5.5503-3.7,9.4502-.21,9.66016,1.23C303.51984,386.86346,308.03986,395.28344,305.36945,402.88342Z"/><path d="M370.80905,379.96378a19.9627,19.9627,0,0,1,1.46778,5.1517,26.10434,26.10434,0,0,1,.27832,2.64822,14.36248,14.36248,0,0,1-.07764,2.70474,14.38238,14.38238,0,0,1-.91187-2.5476,26.10345,26.10345,0,0,1-.5559-2.6041A19.963,19.963,0,0,1,370.80905,379.96378Z"/><path d="M395.63938,381.94107a12.07922,12.07922,0,0,1,.64135,4.10043,15.55379,15.55379,0,0,1-.14062,2.05024,8.85944,8.85944,0,0,1-.50073,2.0502,8.84648,8.84648,0,0,1-.501-2.0502,15.55381,15.55381,0,0,1-.14063-2.05024A12.07367,12.07367,0,0,1,395.63938,381.94107Z"/><path d="M400.16974,417.59344s-14.68994,3.58-22.04,7.72c-7.3501,4.15-22.60986,10.08-40.12012,5,0,0-3.67969-.29,20.06006-21.48,0,0,.62012-.87,1.62988-2.26,2.91016-.03,5.75-.2,8.56006-.07995a20.94033,20.94033,0,0,1,4.13037.53,5.87824,5.87824,0,0,1,3.4795,2.09,3.94244,3.94244,0,0,0-1.21-1.88,6.80992,6.80992,0,0,0-1.96-1.16,13.5783,13.5783,0,0,0-4.37988-.86,22.92292,22.92292,0,0,0-4.39014.27,19.93244,19.93244,0,0,0-4.23,1.09c1.48-2.03,3.82032-5.16,6.3003-8.23a57.39816,57.39816,0,0,1,9.39013-.54,28.20956,28.20956,0,0,1,4.56983.62,22.75959,22.75959,0,0,1,4.39013,1.65,11.4269,11.4269,0,0,0-4.10009-2.6,17.47619,17.47619,0,0,0-4.8003-.95,22.46184,22.46184,0,0,0-4.84961.36,18.31511,18.31511,0,0,0-4.59033,1.45c3.93018-4.86,8.23-9.56,10.14014-9.56,3.54,0,7.52978,2.49,12.16992,6.04a18.80975,18.80975,0,0,1,2.18994,2.09c.78028.84.21,1.7,3.72022-6.44C394.2298,390.46344,398.75958,382.84344,400.16974,417.59344Z"/><path d="M360.48656,359.6695q-7.5101.17959-15.02.18826c-7.23177.03427-14.455-.0257-21.67818-.11137-7.22321-.11972-14.44663-.25658-21.66983-.49624-2.06249-.06-4.11662-.1285-6.17911-.214l-.36816-1.06979c2.191-.0257,4.37341-.04284,6.5644-.04284,7.22321-.03426,14.455.0257,21.67819.11116,7.22341.11137,14.44662.24823,21.66982.48789q7.47154.21845,14.95144.60761Z"/><path d="M360.43976,359.13342l-64.87012-1.17-8.21-23.98c2.31982.06,4.6499.1,6.98.14,8.08984.13995,16.16992.17,24.27.19,8.08984-.02,16.18018-.05,24.25977-.19q7.96508-.12,15.92041-.37006c-.01026-.2-.02-.38995-.04-.6q-7.93506-.255-15.88037-.37c-8.07959-.13-16.16993-.17-24.25977-.18-8.1001.01-16.18018.05-24.27.18-2.44971.04-4.8999.08-7.33984.14l-6.58008-19.19c2.94971.14,5.89013.26,8.83984.35,7.02.26,14.05029.41,21.07031.55,7.02979.1,14.06006.19,21.07959.17,5.76026,0,18.22022-.07,26.41016-.2-.00977-.11-.00977-.22-.00977-.34-8.16992-.35-20.62011-.6-26.38037-.79-7.02-.26-14.03955-.41-21.06982-.55-7.02979-.1-14.04981-.18-21.08008-.16-3.0498,0-6.10986.01-9.16015.06l.19042.58-9.45019-27.6s65.98,5.63,85.45019-8.22Z"/><path d="M413.59934,334.7373c3.125.03864,6.22314.0478,9.28051-.15386a35.88994,35.88994,0,0,0,4.50757-.56138,11.34891,11.34891,0,0,0,4.02954-1.44192,3.74151,3.74151,0,0,0,1.304-1.32111,3.24574,3.24574,0,0,0,.30322-.84808l.20947-1.12341c.28516-1.501.469-3.02536.6753-4.55246.3706-3.06024.6438-6.14655.9353-9.26044a51.61669,51.61669,0,0,1,.46045,9.37167c-.04224,1.57053-.19849,3.13736-.39307,4.70713l-.18432,1.17392a5.04647,5.04647,0,0,1-.45362,1.34588,5.45921,5.45921,0,0,1-1.876,2.00827,9.38346,9.38346,0,0,1-2.32764,1.05316,15.29,15.29,0,0,1-2.387.55555,28.0275,28.0275,0,0,1-4.76783.28759A40.73368,40.73368,0,0,1,413.59934,334.7373Z" fill="#fff"/><path d="M490.26984,258.72345c.63989,3.66-24.12012,66.32-26.71,76.57-2.58007,10.26-19.59033,23.6-19.59033,23.6-9.90967,7.79-42.63965,4.03-42.63965,4.03l-4.31-84.08c4.59961.08,9.21.11,13.81.15,2.31983-.01,4.56983.04,6.94-.03a19.83784,19.83784,0,0,0,6.98-1.56,20.36036,20.36036,0,0,0,10.2998-9.77,30.97408,30.97408,0,0,0,1.3501-3.3l1.21-3.22c.81006-2.15,1.62012-4.29,2.47021-6.42,1.69971-4.25,3.44971-8.49,5.48975-12.52.52-1,1.06006-1.98,1.64014-2.91a12.22021,12.22021,0,0,1,1.87011-2.44,2.21657,2.21657,0,0,1,.41993-.32c.0498-.00994.10009-.06.10986-.04.02,0,.02-.01.04-.02l.24023-.02,1.69971-.13,3.41992-.22c4.57031-.23,9.1499-.34,13.69019-.13a53.29284,53.29284,0,0,1,6.72.67,18.40735,18.40735,0,0,1,3.1499.82,4.01181,4.01181,0,0,1,2.16992,1.54l.02.03a1.0355,1.0355,0,0,0,.28.35,10.7984,10.7984,0,0,1,2.42017,2.96,12.88339,12.88339,0,0,1,1.40991,3.72,18.611,18.611,0,0,1-.09009,8.1c-.16992.67-.2998,1.35-.5,2.02-.21.66-.3999,1.33-.62988,1.99-.45,1.33-.91992,2.65-1.41992,3.97-.98,2.63-2.02,5.25-3.08008,7.86-2.12012,5.21-4.36011,10.38-6.66016,15.52l-7.02978,15.37q-3.56984,7.665-6.96,15.4c-2.26026,5.15-4.51026,10.34-6.58008,15.59-2.10987,5.23-4.02,10.57-5.91016,15.85a63.73469,63.73469,0,0,1-3.39013,7.65,24.2147,24.2147,0,0,1-2.27979,3.48,9.87609,9.87609,0,0,1-3.08984,2.7.1094.1094,0,0,0-.06006.15.11873.11873,0,0,0,.1499.06994,9.74049,9.74049,0,0,0,3.4502-2.54,25.07019,25.07019,0,0,0,2.56982-3.42,50.31674,50.31674,0,0,0,3.87988-7.6c2.12012-5.25,4.27-10.42,6.46-15.6,2.21-5.18,4.47022-10.32,6.76026-15.47q3.405-7.74,6.58984-15.57l6.34009-15.67,6.43994-15.63,3.2-7.82995a66.99054,66.99054,0,0,0,2.86011-8.03,20.31621,20.31621,0,0,0,.42993-8.65,14.82312,14.82312,0,0,0-1.40991-4.21,12.05873,12.05873,0,0,0-2.6001-3.46,4.13879,4.13879,0,0,0-1.30981-1.48,7.97525,7.97525,0,0,0-1.71021-.93,19.93608,19.93608,0,0,0-3.17993-.96,102.151,102.151,0,0,0,.81006-11.87c.08984-2.07-.05-4.14-.13013-6.21-.05981-2.08-.34985-4.14-.57983-6.21-.1001-1.04-.31006-2.06-.51-3.09-.22-1.02-.36011-2.05-.64014-3.06l-.85986-3.03c-.33008-.99-.74-1.97-1.12012-2.94-.40991-.97-.92993-1.9-1.3999-2.84l-.88013-1.32-.43994-.66-.52-.6a11.60593,11.60593,0,0,0-2.31982-2.16,6.1978,6.1978,0,0,0-2.87989-1.19,4.85353,4.85353,0,0,1,1.37989.65l.62988.43.56982.5a11.78512,11.78512,0,0,1,1.92017,2.3l.42993.61.36011.67005.72,1.31994c.35986.95.81006,1.85,1.13989,2.8a59.43787,59.43787,0,0,1,2.64014,11.85c.26,2.03.55981,4.04.65991,6.09.18018,2.03.3501,4.07.43018,6.12.25,3.93.27978,7.87.50976,11.83a1.89039,1.89039,0,0,0-.23-.05,52.03327,52.03327,0,0,0-6.98-.88c-4.6499-.28-9.29-.25-13.91992-.07995l-3.47022.16-1.73974.11-.18994.01c-.12012.02-.26026.04-.39014.06a2.75266,2.75266,0,0,0-.7002.24,4.53674,4.53674,0,0,0-.98.67005,13.37256,13.37256,0,0,0-2.37988,2.98c-.64014,1.02-1.19971,2.05-1.73975,3.09a125.86986,125.86986,0,0,0-5.54,12.79c-.82032,2.17-1.62012,4.33-2.37989,6.51l-1.13037,3.27a27.68449,27.68449,0,0,1-1.16992,3.12,18.47716,18.47716,0,0,1-3.71,5.35,18.9367,18.9367,0,0,1-5.35986,3.74,18.28,18.28,0,0,1-6.3501,1.73c-2.23.17005-4.58008.22-6.85987.34-4.60009.23-9.20019.46-13.80029.75l-.02978-.61s25.29.38995,26.29-21.77c0,0-.62989,6.98,15.81-6.16v-14.59s5.71973-2.97,3.52-16.22l-1.10009-13.25h1.08007s.02-19.32995-1.02-21.32995c32.12989,2.43,35.1399,6.88,35.1399,6.88,12.49,14.42,10.55,47.08,10.55,47.08C496.28961,239.85345,490.26984,258.72345,490.26984,258.72345Z"/><path d="M397.01984,278.84344a.13037.13037,0,0,1-.12012-.13.11081.11081,0,0,1,.10986-.11Z" fill="#fff"/><path d="M429.45334,362.9111c.66113,4.44016,1.19141,8.884,1.73242,13.32749l.7478,6.66708.646,6.67c.20752,2.22354.54,4.44358.83252,6.66471a35.46348,35.46348,0,0,1,.22217,6.68191,56.43253,56.43253,0,0,1-.80567,6.71088,35.1885,35.1885,0,0,1-1.86816,6.74084.37.37,0,0,1-.678.01911,35.2066,35.2066,0,0,1-2.24487-6.62488,56.481,56.481,0,0,1-1.18237-6.65485,35.44243,35.44243,0,0,1-.15455-6.68381c.16675-2.23406.37378-4.46929.45557-6.701l.26929-6.69577.37085-6.69861c.28979-4.46695.56885-8.9336.979-13.40393a.34157.34157,0,0,1,.678-.01914Z"/><path d="M459.21628,343.45078c.49585,4.15255.86084,8.30224,1.23633,12.451l.49951,6.22171.398,6.21952c.12451,2.0729.37475,4.14624.58423,6.219a30.6372,30.6372,0,0,1-.02613,6.21533,49.21909,49.21909,0,0,1-1.05444,6.21378,31.37062,31.37062,0,0,1-2.11719,6.21664l-.00268.00537a.373.373,0,0,1-.67554-.00537,30.81262,30.81262,0,0,1-1.99731-6.22357,48.99182,48.99182,0,0,1-.93457-6.22644,30.757,30.757,0,0,1,.094-6.22488c.24951-2.074.53955-4.1474.7041-6.22123l.51782-6.22073.61939-6.21854c.45581-4.14471.90039-8.28851,1.47632-12.42941a.34187.34187,0,0,1,.67822.00785Z"/><path d="M279.73956,249.57342v.22c-.00976-.07-.02-.15-.02978-.22Z" fill="#fff"/><path d="M365.35495,177.63541c1.42407-.534,2.87036-1.07849,4.353-1.608,1.48486-.52518,2.95605-1.08389,4.48022-1.594l4.55616-1.55859c1.53857-.48777,3.07177-.98777,4.614-1.44014l.02222-.00652a.37813.37813,0,0,1,.46923.25635l.00928.04.79566,4.46022c.25122,1.48973.564,2.96643.85229,4.44829.606,2.95751,1.29712,5.89707,2.01563,8.8308a.29592.29592,0,0,1-.19727.35211l-.02.00633c-2.802.887-5.61841,1.72208-8.43848,2.54456-2.81836.82832-5.63745,1.6549-8.47314,2.42169l-.00659.00181a.52525.52525,0,0,1-.64136-.36155c-.8147-2.83466-1.5542-5.68355-2.30249-8.49768Zm.08838.04678,2.76392,8.32664c.86938,2.72666,1.74731,5.41855,2.55,8.12468l-.6477-.3596c2.82153-.81786,5.65942-1.57591,8.498-2.33223,2.83691-.76218,5.67749-1.51173,8.53247-2.20938l-.217.3582c-.52954-2.97366-1.08667-5.94151-1.72876-8.8914-.3357-1.47184-.647-2.94884-1.02-4.41281l-1.07666-4.40088.50049.2897c-1.47071.52327-2.95093.99892-4.4253,1.4868l-4.4834,1.36835c-1.48925.46556-3.03125.88249-4.55957,1.333Z"/><polygon points="318.966 222.744 335.212 222.029 338.132 236.656 320.878 236.656 318.966 222.744"/><path d="M289.41452,183.07376l1.75318,5.66531c.53613,1.8254,1.051,3.61092,1.48388,5.43393l-.42627-.33168c2.24634.0448,4.49292.20539,6.7395.26636,2.24659.05484,4.49317-.00935,6.73951-.098l-.26392.33481q-.80419-2.77821-1.53223-5.57477c-.4707-1.86786-.97924-3.72668-1.41894-5.602l.51929.40939c-2.2.00725-4.39258-.07371-6.63819-.169Zm-.07886-.0614c2.13746-.11157,4.37622-.24149,6.67774-.3344,2.29883-.09527,4.65063-.17624,6.99512-.169a.53822.53822,0,0,1,.51953.40959c.459,1.87068.84912,3.75786,1.2771,5.636q.62328,2.82162,1.16333,5.66323l.00439.02295a.26279.26279,0,0,1-.20874.30757.2759.2759,0,0,1-.05981.00449c-2.24634-.08865-4.49292-.15285-6.73951-.098-2.24658.061-4.49316.22156-6.7395.26638a.42926.42926,0,0,1-.42285-.317l-.00391-.01485c-.51709-1.923-.95214-3.88351-1.366-5.80415C290.04538,186.6691,289.66647,184.78485,289.33566,183.01236Z"/><path d="M309.94089,184.67665a41.89946,41.89946,0,0,1,6.85522-.49971,41.41756,41.41756,0,0,1,6.85523.49971,41.41863,41.41863,0,0,1-6.85523.4997A41.89723,41.89723,0,0,1,309.94089,184.67665Z"/><path d="M311.28952,192.75574a34.13437,34.13437,0,0,1,6.18091-.4997,33.74625,33.74625,0,0,1,6.18091.4997,33.74714,33.74714,0,0,1-6.18091.49971A34.13348,34.13348,0,0,1,311.28952,192.75574Z"/><path d="M294.279,200.561c2.6189-.20623,5.2378-.30285,7.85669-.38285,2.6189-.09142,5.2378-.10428,7.85645-.11686,2.61889.01122,5.23779.02448,7.85669.1151l3.92822.1395c1.30957.08307,2.6189.13173,3.92822.24511-1.30932.11338-2.61865.162-3.92822.24511l-3.92822.13949c-2.6189.09062-5.2378.10388-7.85669.1151-2.61865-.01256-5.23755-.02544-7.85645-.11685C299.51682,200.86382,296.89792,200.7672,294.279,200.561Z"/><path d="M296.42307,206.00409c2.44018-.20624,4.88037-.30286,7.32055-.38286,2.44019-.09141,4.88037-.10428,7.32056-.11685,2.44019.01121,4.88037.02447,7.32056.1151l3.6604.13949c1.22.08307,2.44018.13173,3.66015.24512-1.22.11337-2.44018.162-3.66015.2451l-3.6604.1395c-2.44019.09062-4.88037.10388-7.32056.11509-2.44019-.01255-4.88037-.02543-7.32056-.11685C301.30344,206.30693,298.86325,206.21031,296.42307,206.00409Z"/><path d="M309.94089,211.96071a98.84588,98.84588,0,0,1,10.55249-.49971,97.68944,97.68944,0,0,1,10.55249.49971,97.692,97.692,0,0,1-10.55249.49969A98.84324,98.84324,0,0,1,309.94089,211.96071Z"/><path d="M316.79611,217.866a75.35271,75.35271,0,0,1,9.20777-.4997,74.47343,74.47343,0,0,1,9.20776.4997,74.47539,74.47539,0,0,1-9.20776.49971A75.35471,75.35471,0,0,1,316.79611,217.866Z"/><path d="M338.13205,183.04306a108.59839,108.59839,0,0,1,20.49024-3.63837,94.74137,94.74137,0,0,1-10.15113,2.31A96.17311,96.17311,0,0,1,338.13205,183.04306Z"/><path d="M339.67258,190.49634a102.09157,102.09157,0,0,1,10.43115-2.54447,100.90559,100.90559,0,0,1,10.62256-1.56355,100.90756,100.90756,0,0,1-10.43115,2.54447A102.09634,102.09634,0,0,1,339.67258,190.49634Z"/><path d="M343.88327,198.50064a87.60734,87.60734,0,0,1,9.59912-2.598,86.57665,86.57665,0,0,1,9.81128-1.6214,86.5807,86.5807,0,0,1-9.59888,2.598A87.60635,87.60635,0,0,1,343.88327,198.50064Z"/><path d="M346.04,205.94957c3.61914-.99806,7.26172-1.889,10.90771-2.76376,3.64356-.88588,7.30372-1.695,10.96412-2.50385,3.66528-.78558,7.33105-1.56918,11.01342-2.27719l5.52393-1.05852c1.84912-.31711,3.69116-.66781,5.54663-.9553-1.80737.50906-3.62866.95489-5.44238,1.43434l-5.46485,1.33113c-3.6438.88511-7.30395,1.69461-10.96435,2.50213-3.66577.78428-7.33154,1.56826-11.01392,2.27547C353.43039,204.6524,349.7468,205.35454,346.04,205.94957Z"/><path d="M348.37717,213.39851c2.88257-.818,5.78784-1.52876,8.69653-2.22323,2.90625-.70566,5.82861-1.33446,8.75122-1.96295,2.92725-.60523,5.85523-1.20845,8.79883-1.736l4.4165-.78781c1.47974-.22682,2.95215-.48729,4.43824-.68445-1.43921.419-2.89185.77476-4.33716,1.16414l-4.35889,1.0608c-2.90649.70488-5.82886,1.33407-8.75171,1.96123-2.92749.60391-5.85547,1.20752-8.79931,1.73427C354.28977,212.46245,351.34494,212.9841,348.37717,213.39851Z"/><path d="M350.19943,220.63889c2.49195-.665,5.00367-1.22223,7.51807-1.76308,2.5127-.55208,5.03931-1.02689,7.56616-1.50141,2.531-.45111,5.06226-.90022,7.60767-1.27322l3.8186-.556c1.2793-.14937,2.55249-.33256,3.8374-.45212-1.24414.34261-2.49975.62155-3.74926.93434l-3.76856.83046c-2.51269.55129-5.0393,1.02649-7.56616,1.49967-2.53125.4498-5.06274.89929-7.60815,1.27151C355.312,220.0125,352.7656,220.37961,350.19943,220.63889Z"/><path d="M351.58591,226.4348c2.72461-.6259,5.46582-1.14346,8.20947-1.64459,2.74194-.51241,5.49585-.94718,8.24951-1.38166,2.75757-.411,5.51538-.8199,8.28491-1.15237l4.15479-.49519c1.39038-.12891,2.77563-.29183,4.1709-.3908-1.36084.32311-2.73145.58223-4.09668.87537l-4.11255.771c-2.74219.51162-5.49585.94677-8.25,1.37991-2.75757.40964-5.51538.819-8.28491,1.15065C357.14328,225.89006,354.373,226.2166,351.58591,226.4348Z"/><path d="M353.58859,233.83159c2.99952-.716,6.01734-1.32391,9.03809-1.91545,3.01855-.6028,6.05029-1.12815,9.08228-1.65319,3.03588-.50158,6.072-1.00117,9.12084-1.42446l4.57422-.63144c1.53077-.17443,3.05591-.38277,4.5918-.5273-1.498.36812-3.00684.67244-4.51,1.01066l-4.52783.90653c-3.0188.602-6.05054,1.12773-9.08252,1.65144-3.03613.50028-6.072,1.00025-9.12134,1.42276C359.707,233.1049,356.657,233.52229,353.58859,233.83159Z"/></svg>