<svg id="Layer_1" data-name="Layer 1" xmlns="http://www.w3.org/2000/svg" viewBox="0 0 700 550"><title>telling to stop</title><path d="M323.91906,132.02169l-2.73427,23.75552a4.628,4.628,0,0,1-1.53634-1.77328,13.01025,13.01025,0,0,1-1.46181-3.98624c-2.26055-10.97774-6.21292-8.92687-6.21292-8.92687-4.06076,2.11151,1.719,15.83691,1.719,15.83691,1.665,5.21128.4738,6.85584-.8122,7.32279a2.49289,2.49289,0,0,1-2.57855-.6497,30.18074,30.18074,0,0,0-6.24-4.98788,4.64442,4.64442,0,0,0-2.15225-.6497,2.07084,2.07084,0,0,0-2.40934,2.01684,3.98614,3.98614,0,0,0,1.00842,2.99137l9.1097,10.60547c1.19785,3.20783,5.13676,7.93184,8.602,7.91168l-.31807,2.76137-.264,11.194-3.55317,38.80065c-19.49161,1.70553-18.27343-2.78831-18.27343-2.78831l-1.64457-62.50875c2.74783-22.90276,15.00447-35.085,15.00447-35.085S317.72647,135.981,323.91906,132.02169Z"/><path d="M314.7848,122.38141a8.31522,8.31522,0,0,0,3.218-1.6781,11.91878,11.91878,0,0,0,1.32092-1.25214,13.62312,13.62312,0,0,0,1.09929-1.449,18.10616,18.10616,0,0,0,2.54466-6.77839,14.06354,14.06354,0,0,0,.25815-1.808c.05781-.607.15611-1.21.18112-1.81958.00156-1.22186.1006-2.44232.02332-3.66345-.081-1.22009-.08268-2.44629-.22608-3.66266l-.43339-3.65082.19935.2124a21.40238,21.40238,0,0,1-5.67488-2.60852,24.3438,24.3438,0,0,1-9.58545-11.91888c-.37492-.96771-.61346-1.98267-.92673-2.97315l.229.126a12.66565,12.66565,0,0,0-4.05508,2.96662,19.12865,19.12865,0,0,0-2.92765,4.13372,26.51613,26.51613,0,0,0-1.90962,4.70771c-.24364.81286-.41928,1.64654-.63267,2.4682l-.43662,2.51373-.03061-.19843a10.51157,10.51157,0,0,1,.41432,4.64283q-.11952,1.14376-.35208,2.26556a20.1559,20.1559,0,0,0-.33139,2.19385,29.67063,29.67063,0,0,0,.44576,8.871,16.88426,16.88426,0,0,0,1.48626,4.1698,10.55528,10.55528,0,0,0,2.79712,3.3797,11.766,11.766,0,0,0,8.48407,1.94977l.00858.06714a15.10525,15.10525,0,0,1-4.52065.01727,9.54084,9.54084,0,0,1-4.20062-1.72925,10.98779,10.98779,0,0,1-2.99142-3.4527,17.41113,17.41113,0,0,1-1.63166-4.26922,27.63423,27.63423,0,0,1-.56941-9.072,20.87846,20.87846,0,0,1,.33373-2.26654q.22082-1.08976.33239-2.19214a10.56153,10.56153,0,0,0-.32821-4.27564l-.04447-.12365.01381-.07514.47022-2.5567c.22561-.83771.41363-1.68543.67086-2.51379a24.9755,24.9755,0,0,1,2.02529-4.79267,19.63655,19.63655,0,0,1,3.09767-4.17962,13.22322,13.22322,0,0,1,4.26681-2.98261l.17043-.06964.05885.19574c.29494.98077.51506,1.98852.8711,2.94983a23.19869,23.19869,0,0,0,1.21644,2.82464,20.34691,20.34691,0,0,0,3.496,5.04389,22.19419,22.19419,0,0,0,10.37457,6.25641l.177.0451.02255.16754.49479,3.675c.15482,1.22656.16976,2.46887.26,3.70325.0645,1.23651-.04808,2.47882-.06408,3.717-.03225.61889-.13831,1.23395-.20407,1.85083a14.46037,14.46037,0,0,1-.28341,1.84015l-.41108,1.82019c-.18131.59527-.40789,1.17816-.60976,1.76648a15.76048,15.76048,0,0,1-1.74048,3.299,13.2926,13.2926,0,0,1-1.1709,1.45624,12.18428,12.18428,0,0,1-1.41044,1.22247,8.45434,8.45434,0,0,1-3.34906,1.5603Z"/><path d="M309.5263,112.14691a3.82558,3.82558,0,0,1-.91563,2.52936,3.19934,3.19934,0,0,1-2.58093,1.07721,3.95106,3.95106,0,0,1-2.49735-1.16809,3.8222,3.8222,0,0,1-1.18136-2.43848,3.27593,3.27593,0,0,1,1.01153-2.62317,3.79165,3.79165,0,0,1,2.66718-1.07879,3.45036,3.45036,0,0,1,2.58932,1.16345A3.82508,3.82508,0,0,1,309.5263,112.14691Zm-.0814,0a2.64725,2.64725,0,0,0-1.18852-2.14422,3.87962,3.87962,0,0,0-2.22664-.68952,3.38135,3.38135,0,0,0-2.14882.77411,3.103,3.103,0,0,0-1.08421,2.05963,2.646,2.646,0,0,0,.91438,2.2442,3.19226,3.19226,0,0,0,2.31865.68482,4.4305,4.4305,0,0,0,2.235-.7757A2.65152,2.65152,0,0,0,309.4449,112.14691Z"/><path d="M301.9319,99.90271c-.34877.57477-.67056,1.13922-.95984,1.69745a4.68153,4.68153,0,0,0-.55068,1.6831,1.64693,1.64693,0,0,0,.56951,1.42456,4.38073,4.38073,0,0,0,.72314.55451c.27169.16949.57073.29272.85984.48218a8.47468,8.47468,0,0,1-1.01157-.1131,3.22735,3.22735,0,0,1-.96817-.42755,2.17022,2.17022,0,0,1-.77118-.83386,2.38016,2.38016,0,0,1-.21278-1.14814,3.84426,3.84426,0,0,1,.826-1.95819A5.41784,5.41784,0,0,1,301.9319,99.90271Z"/><path d="M299.67167,99.414a1.22177,1.22177,0,0,0,0-2.44208,1.22177,1.22177,0,0,0,0,2.44208Z"/><path d="M313.68508,99.699a1.22177,1.22177,0,0,0,0-2.44207,1.22177,1.22177,0,0,0,0,2.44207Z"/><path d="M297.30612,93.0415a5.99949,5.99949,0,0,1,3.2583-.65527,5.724,5.724,0,0,1,1.65718.38849,3.56341,3.56341,0,0,1,1.3678,1.00128,14.80452,14.80452,0,0,0-1.55206-.39337c-.512-.07916-1.018-.14911-1.53424-.18518C299.4677,93.11761,298.42689,93.12054,297.30612,93.0415Z"/><path d="M308.71258,93.776a8.0599,8.0599,0,0,1,3.66484-1.1206,7.54433,7.54433,0,0,1,3.7856.61492c-1.29413.07752-2.49867.08741-3.72485.19635C311.21206,93.54712,310.00126,93.69128,308.71258,93.776Z"/><path d="M292.89291,94.99072c4.1928.26288,8.40216.0788,12.60456.20075,4.20227.1181,8.38734.61566,12.57241,1.02429l.274.02673-.02127.24866a14.10064,14.10064,0,0,1-1.257,4.87976,5.34385,5.34385,0,0,1-1.60764,2.00037,3.87092,3.87092,0,0,1-2.46467.8584,6.35214,6.35214,0,0,1-2.58977-.44837,5.4486,5.4486,0,0,1-2.14866-1.60974,8.31374,8.31374,0,0,1-1.68161-4.99139l.57429.64544-4.63818-.35718.75117-.54834a17.737,17.737,0,0,1-1.24228,3.63068,8.95758,8.95758,0,0,1-2.35505,3.19385,3.97981,3.97981,0,0,1-1.98229.87408,3.916,3.916,0,0,1-2.12167-.34161,8.58875,8.58875,0,0,1-2.95478-2.52594l-.0233-.02856a7.74971,7.74971,0,0,1-.71922-1.61487,10.0275,10.0275,0,0,1-.38983-1.67365,13.42011,13.42011,0,0,1-.12276-1.69739,15.18,15.18,0,0,1,.10144-1.68774l.00743-.07617.07676.001Zm-.00383.13532-1.35412.017.084-.075a9.35228,9.35228,0,0,0,.78265,4.83106,6.66311,6.66311,0,0,0,.79915,1.3656l-.023-.02832a8.434,8.434,0,0,0,2.82463,1.95013,2.7,2.7,0,0,0,2.79666-.51343,8.13814,8.13814,0,0,0,1.90993-2.74023,19.47554,19.47554,0,0,0,1.17825-3.31641l.16354-.61181.58788.06329,4.62523.49768.56921.06122.00528.58447a7.57326,7.57326,0,0,0,1.23892,4.32807,4.7546,4.7546,0,0,0,1.68038,1.46856,5.39117,5.39117,0,0,0,2.22982.55939,3.89807,3.89807,0,0,0,3.69083-2.39642,10.77772,10.77772,0,0,0,1.10887-4.69544l.25249.27521c-4.20285-.06628-8.40569-.0437-12.59132-.40057C301.26275,95.99707,297.08421,95.33807,292.88908,95.126Z"/><path d="M318.05485,96.48318l4.9725.095h0" fill="none" stroke="#000" stroke-miterlimit="10" stroke-width="0.81402"/><path d="M306.20889,123.68744c.61705,1.65948,1.1713,3.33752,1.71317,5.01923l.78421,2.53088c.27121.84076.48874,1.69739.73574,2.54523l-.20179-.19367a25.86208,25.86208,0,0,0,4.87632.77478,16.438,16.438,0,0,0,4.92315-.40893,13.00514,13.00514,0,0,0,4.43727-1.97736,10.00858,10.00858,0,0,0,2.95062-3.73053l.55867.41534a1.65443,1.65443,0,0,1-1.87073-.18255,5.49108,5.49108,0,0,1-1.19079-1.14276,14.47763,14.47763,0,0,1-1.64385-2.70313,27.09258,27.09258,0,0,1-1.228-2.874c-.38982-.96387-.66509-1.96875-.98947-2.952a.03383.03383,0,0,1,.02153-.04272.03549.03549,0,0,1,.04213.01977c.42207.94684.82779,1.89814,1.27025,2.83008.42891.93769.89489,1.85736,1.38591,2.75458a16.94246,16.94246,0,0,0,1.66978,2.53308,4.85246,4.85246,0,0,0,1.04509.99188,1.7472,1.7472,0,0,0,.58147.26191.73922.73922,0,0,0,.44375-.03827l.03966-.02759a.35277.35277,0,0,1,.51909.443,10.2709,10.2709,0,0,1-3.25789,3.93244,12.56928,12.56928,0,0,1-4.71945,1.79888,25.36516,25.36516,0,0,1-4.99693.34839,27.86242,27.86242,0,0,1-5.00467-.47729.26228.26228,0,0,1-.19844-.18164l-.00361-.01227c-.25218-.84637-.53384-1.68408-.76181-2.53754l-.71333-2.55182c-.4565-1.70684-.90062-3.41729-1.28194-5.1463a.03392.03392,0,0,1,.06493-.0191Z"/><path d="M308.116,130.27979a117.99894,117.99894,0,0,0-9.94817,7.38293,45.46864,45.46864,0,0,0-4.48365,4.22754,13.97315,13.97315,0,0,0-1.8108,2.42145,4.79675,4.79675,0,0,0-.53878,1.3258c-.04993.40021-.05791.9867-.08118,1.49805-.27,4.15076-.677,8.25275-.99676,12.37683q-.49968,6.17889-.89419,12.362c-.54957,8.24133-.9187,16.4953-.92645,24.74542a175.65713,175.65713,0,0,0,1.47534,24.63892l.01453.1-.0097.05738a16.478,16.478,0,0,1-3.93512,7.84948,24.56646,24.56646,0,0,1-3.1363,3.03c-.5834.42975-1.15034.88483-1.75271,1.28583-.60785.385-1.21468.80487-1.82381,1.15967-4.86188,2.925-9.7675,5.7774-14.64976,8.66839l-.156-.84582a40.63246,40.63246,0,0,1,7.14749,2.22363,28.70486,28.70486,0,0,1,6.519,3.66284,15.388,15.388,0,0,1,4.751,5.75116,12.11875,12.11875,0,0,1,.944,3.62665,14.12487,14.12487,0,0,1-.21044,3.72431l-.00459.02716-.0141.01666a1.76038,1.76038,0,0,1-1.28982.62671,2.49812,2.49812,0,0,1-1.35064-.41461,7.752,7.752,0,0,1-1.95413-1.98072,7.70511,7.70511,0,0,0,2.00925,1.88764,2.36653,2.36653,0,0,0,1.28708.34564,1.58693,1.58693,0,0,0,1.12387-.5907l-.01856.04346a13.858,13.858,0,0,0,.10151-3.65149,11.74237,11.74237,0,0,0-1.01351-3.48065,14.85636,14.85636,0,0,0-4.748-5.41651,28.89,28.89,0,0,0-6.42781-3.44744,39.85665,39.85665,0,0,0-7.01332-2.04926l-1.17314-.22424,1.01715-.62171c4.841-2.9588,9.65867-5.95617,14.52008-8.881.61459-.3631,1.17136-.7572,1.76012-1.13348.57571-.38782,1.11384-.82672,1.67022-1.23993a23.3719,23.3719,0,0,0,2.959-2.89185,18.3943,18.3943,0,0,0,2.29991-3.401,12.58828,12.58828,0,0,0,1.3002-3.7774l.00482.15692a157.61552,157.61552,0,0,1-1.5181-24.839c.056-8.28961.47475-16.56525,1.07351-24.82166.60118-8.25207,1.56149-16.4934,2.30777-24.69891.03656-.52033.03575-.96973.12091-1.59534a5.4462,5.4462,0,0,1,.64326-1.52679,14.49186,14.49186,0,0,1,1.97092-2.47754,45.93344,45.93344,0,0,1,4.66583-4.1333A118.18887,118.18887,0,0,1,308.116,130.27979Z"/><path d="M265.47793,247.15784a10.36926,10.36926,0,0,1-1.91359-2.00763,2.14124,2.14124,0,0,1-.46792-1.42841.81172.81172,0,0,1,.16785-.41894l.141-.18689.1763-.12165a2.35508,2.35508,0,0,1,.74433-.31225l.11126.6676c-.39683.0592-.76045.172-.84379.47559a1.773,1.773,0,0,0,.26251,1.15307A10.21533,10.21533,0,0,0,265.47793,247.15784Z"/><path d="M283.50772,261.533a39.79936,39.79936,0,0,1,3.89487-2.49585c1.328-.77142,2.69078-1.4718,4.06034-2.15839,1.38071-.66388,2.76889-1.3125,4.19178-1.89032a39.34936,39.34936,0,0,1,4.359-1.54931,39.34892,39.34892,0,0,1-3.894,2.49768c-1.32811.77112-2.69093,1.47149-4.06122,2.15655-1.38144.66242-2.76962,1.311-4.19267,1.88855A39.79945,39.79945,0,0,1,283.50772,261.533Z"/><path d="M289.28522,221.35669c.20112,1.40137.29081,2.80908.40533,4.21814q.12467,2.11442.133,4.23663.00452,2.12265-.15439,4.25476a18.201,18.201,0,0,1-.78309,4.31183l-.02219.0636-.05624.08539a1.66009,1.66009,0,0,0-.2966,1.219,1.41438,1.41438,0,0,0,.92732.81006,10.906,10.906,0,0,0,3.48916.48816c1.25226.04395,2.50454.11615,3.75681.19562,1.25226.10455,2.50453.16992,3.75679.31415-1.25226.14422-2.50453.20959-3.75679.31408-1.25227.07953-2.50455.15174-3.75681.19568a10.4332,10.4332,0,0,1-3.93457-.34143,3.27058,3.27058,0,0,1-1.01132-.53747,2.17184,2.17184,0,0,1-.73-1.07923,2.42568,2.42568,0,0,1-.01051-1.26605,3.53761,3.53761,0,0,1,.46882-1.08051l-.07826.14862a19.87217,19.87217,0,0,0,.743-3.96734c.15544-1.37811.25984-2.77008.36083-4.16571l.26535-4.19965Z"/><path d="M300.5426,234.63324l-.26112,24.13239-.3398,24.13055-.38307,24.12964-.47887,24.12744-.00182-.077,1.902,25.98358,1.77983,25.99219c1.18982,17.32788,2.2143,34.66736,3.32135,52.0011l-.06936-.2262a1.86745,1.86745,0,0,0,.30852.2699,3.47834,3.47834,0,0,0,.4765.28638,6.7645,6.7645,0,0,0,1.09654.43652,14.75525,14.75525,0,0,0,2.39647.505,33.14794,33.14794,0,0,0,4.99278.22314,76.27894,76.27894,0,0,0,10.03984-.99792,200.76489,200.76489,0,0,0,19.78185-4.35279l-.02222.00684a7.737,7.737,0,0,0,3.38841-3.08191,12.09657,12.09657,0,0,0,1.59639-4.44324,20.83163,20.83163,0,0,0,.16213-4.78589c-.06443-.80065-.16-1.59777-.2822-2.394-.15236-.792-.27344-1.61914-.35721-2.421q-1.16357-9.68171-2.14123-19.38342c-.64524-6.46875-1.27822-12.94031-1.72983-19.43176-.22519-3.24585-.41449-6.49561-.49974-9.75672-.03755-1.6311-.05722-3.264.00018-4.90588.02742-.82093.07237-1.64368.16324-2.47351a8.98881,8.98881,0,0,1,.57106-2.55689l.31889-.7594.625.58081,27.27176,25.34632,27.23245,25.38806.12666.11816.09891.20423a13.95489,13.95489,0,0,0,6.98339,6.988c3.07107,1.25586,6.66287.62769,9.64654-.95715a30.63763,30.63763,0,0,0,7.97921-6.751,64.11527,64.11527,0,0,0,6.31232-8.61792c.93952-1.51794,1.83191-3.06677,2.64523-4.64782a28.86634,28.86634,0,0,0,2.03689-4.78553,4.10349,4.10349,0,0,0,.11138-.51794l.00858-.09094c.00929-.02918-.00113-.10681.017.07946.03918.151.01093.04236-.02019-.00366a9.96952,9.96952,0,0,0-.67552-.99426c-.52341-.69653-1.09011-1.3916-1.66255-2.08057-1.14841-1.37854-2.33555-2.74035-3.53023-4.09521-4.7921-5.41382-9.7144-10.73523-14.646-16.04285q-14.83638-15.8898-29.79464-31.6803l-29.97351-31.52148-.30033-.31586.16735-.39557c1.83143-4.32891,3.51857-8.746,5.08647-13.191,1.56815-4.448,2.98946-8.94744,4.23254-13.49407a89.61859,89.61859,0,0,0,2.76557-13.84034,33.40448,33.40448,0,0,0,.06746-7.03033c-.27539-2.29431-.91639-4.70184-2.62808-6.3313l.13643-.15039c1.81075,1.64862,2.51909,4.10992,2.85226,6.43549a33.83113,33.83113,0,0,1,.09385,7.1239,90.27,90.27,0,0,1-2.46946,14.00512c-1.13476,4.6048-2.52451,9.13977-4.02015,13.63532-1.50746,4.49493-3.12572,8.94079-4.90963,13.348l-.13292-.71106q15.26932,15.49677,30.33578,31.18762c10.075,10.43244,20.111,20.90308,30.0049,31.51471,4.94916,5.30506,9.88546,10.61939,14.71573,16.054,1.2056,1.36181,2.40385,2.73034,3.57862,4.13476.58711.704,1.16827,1.41248,1.73562,2.16394a11.51453,11.51453,0,0,1,.84645,1.25623,2.20823,2.20823,0,0,1,.24065.621,1.27622,1.27622,0,0,1,.01857.417l-.02123.24756a6.04975,6.04975,0,0,1-.1662.811,30.461,30.461,0,0,1-2.19048,5.21631q-1.26432,2.4655-2.7251,4.80554A66.21993,66.21993,0,0,1,427.806,407.119a32.588,32.588,0,0,1-8.59411,7.16272,16.16253,16.16253,0,0,1-5.51092,1.74377,11.90434,11.90434,0,0,1-5.82114-.74609,13.66753,13.66753,0,0,1-4.77741-3.31409,17.8303,17.8303,0,0,1-3.24529-4.75891l.22534.322-27.0192-25.61487-26.97988-25.65686.94364-.17846a8.13549,8.13549,0,0,0-.49221,2.181c-.09514.78405-.1486,1.58423-.18445,2.38647-.07415,1.60486-.0751,3.22254-.05748,4.83972.04514,3.23609.19414,6.4773.37931,9.71631q.5747,9.7176,1.517,19.42005.93219,9.69818,2.053,19.37866c.082.81506.193,1.59534.3434,2.40039.12065.81018.215,1.62671.27711,2.446a21.44888,21.44888,0,0,1-.19052,4.93213,13.02569,13.02569,0,0,1-1.66372,4.67578,8.31,8.31,0,0,1-3.70884,3.37415l-.00538.00232-.01721.00464a201.4395,201.4395,0,0,1-19.83016,4.48767,86.35553,86.35553,0,0,1-10.1376,1.11975,34.03139,34.03139,0,0,1-5.14128-.15369,15.71244,15.71244,0,0,1-2.571-.50317,7.78487,7.78487,0,0,1-1.26461-.48364,4.49187,4.49187,0,0,1-.61448-.3584,2.20689,2.20689,0,0,1-.61412-.59131l-.05848-.08289-.011-.14355c-1.32939-17.31812-2.74138-34.63037-3.988-51.95422L299.17132,357.187l-1.75264-25.99414-.00277-.04108.00093-.03637.61755-24.12427.71333-24.12207.75661-24.12116.83528-24.11932Z"/><path d="M321.21449,155.71631a.748.748,0,0,0,.8734-.14008,2.41339,2.41339,0,0,0,.50668-.84533,4.79994,4.79994,0,0,0,.29134-1.98993l-.1205-4.1955-.16341-8.391a6.255,6.255,0,0,1,1.23282-4.27765,2.78845,2.78845,0,0,1,.99745-.82037,1.73449,1.73449,0,0,1,1.46119.00384,4.313,4.313,0,0,1,1.68478,1.71289,8.55332,8.55332,0,0,1,1.16916,4.276l.16273,4.1919.15123,4.1925c.0352.68116.02314,1.437.06589,2.05835a4.00582,4.00582,0,0,0,.5734,1.755c.30317.50622.87962,1.03418,1.12168.92236a.52892.52892,0,0,0,.24437-.16168,1.17269,1.17269,0,0,0,.13013-.15448c.04506-.06622.01793-.02185.05673-.12171a9.542,9.542,0,0,0,.23505-.96484c.266-1.35657.48912-2.73639.65907-4.11645.18715-1.38685.35344-2.77582.513-4.16553l.24467-2.08393a7.30829,7.30829,0,0,1,.4312-2.10534,4.15484,4.15484,0,0,1,1.32175-1.74317,2.09086,2.09086,0,0,1,1.06621-.42944,1.87914,1.87914,0,0,1,1.12715.28259,4.4681,4.4681,0,0,1,1.93042,3.78852l0,.00866-.00067.00928c-.12453,1.73975-.20156,3.483-.30445,5.22431l-.14522,2.61267-.07347,1.30627a4.94008,4.94008,0,0,0,.06948,1.20862,3.9017,3.9017,0,0,0,.38078,1.116,2.13318,2.13318,0,0,0,.66353.81488c.31714.30468.91325-.42121,1.24534-1.15259.68119-1.52234,1.32428-3.22272,2.15526-4.782a14.37135,14.37135,0,0,1,1.44351-2.309,4.88251,4.88251,0,0,1,2.378-1.75146,3.79071,3.79071,0,0,1,1.57172-.06653,1.48607,1.48607,0,0,1,.95256.52826,1.836,1.836,0,0,1,.36947.91388,7.37116,7.37116,0,0,1-.40437,2.85248c-1.07469,3.42785-2.6573,6.55719-3.96582,9.74a56.78457,56.78457,0,0,0-2.4734,10.00238,18.17315,18.17315,0,0,1-4.72451,9.56305,14.00484,14.00484,0,0,1-4.37431,3.1679,8.30325,8.30325,0,0,1-2.65515.66407,19.3023,19.3023,0,0,1-2.66336.11895,42.05646,42.05646,0,0,1-5.23464-.56066,15.89734,15.89734,0,0,0-2.57937-.16407,7.5181,7.5181,0,0,0-1.281.1344,5.35046,5.35046,0,0,1-1.31166.16278v-.13531a5.17308,5.17308,0,0,0,1.26578-.23865,7.77657,7.77657,0,0,1,1.30754-.21942,16.25613,16.25613,0,0,1,2.64388.00421c1.75152.12354,3.47366.32892,5.18975.28784a18.51756,18.51756,0,0,0,2.5533-.22308,7.37675,7.37675,0,0,0,2.37192-.69769,13.74441,13.74441,0,0,0,3.95558-3.06208,17.2525,17.2525,0,0,0,4.19561-9.03381,57.80836,57.80836,0,0,1,2.49583-10.29651c1.299-3.28473,2.95581-6.37372,4.00655-9.60229a6.43883,6.43883,0,0,0,.39791-2.28125.6095.6095,0,0,0-.08911-.29077c-.027-.04444-.03022-.039-.168-.07569a2.52652,2.52652,0,0,0-1.02185.0221,3.69335,3.69335,0,0,0-1.76272,1.3081,13.62552,13.62552,0,0,0-1.38741,2.08252c-.85837,1.497-1.49722,3.05139-2.29213,4.68689a4.70242,4.70242,0,0,1-.839,1.18524,1.82647,1.82647,0,0,1-.7632.45081,1.256,1.256,0,0,1-.97078-.16956,2.90538,2.90538,0,0,1-.96126-1.19519,4.73121,4.73121,0,0,1-.41922-1.36432,5.734,5.734,0,0,1-.03737-1.39886l.11565-1.30322.233-2.60633c.14927-1.73791.3244-3.47406.452-5.21356l-.00062.01752a4.016,4.016,0,0,0-1.66581-3.41284,1.45839,1.45839,0,0,0-1.72479.10394,3.52194,3.52194,0,0,0-1.16331,1.57129,6.90161,6.90161,0,0,0-.36821,1.99615l-.21,2.08686c-.14351,1.39086-.28033,2.78241-.39629,4.17608-.11373,1.40241-.27888,2.79462-.49293,4.1933a9.889,9.889,0,0,1-.21954,1.08173,1.19714,1.19714,0,0,1-.16025.35193,1.995,1.995,0,0,1-.1976.254,1.38954,1.38954,0,0,1-.61534.41608,1.50854,1.50854,0,0,1-1.38193-.35718,4.13216,4.13216,0,0,1-.80054-.87488,5.01,5.01,0,0,1-.81148-2.16485c-.077-.77191-.10479-1.4162-.14245-2.13135l-.205-4.191-.19356-4.19153a7.37729,7.37729,0,0,0-.94252-3.74432,3.38523,3.38523,0,0,0-1.16212-1.28943.621.621,0,0,0-.56679-.01508,1.74508,1.74508,0,0,0-.60533.5011,5.30118,5.30118,0,0,0-1.068,3.60065l-.16341,8.391-.12048,4.1955a5.1619,5.1619,0,0,1-.44363,2.109,2.579,2.579,0,0,1-.6393.89215.93136.93136,0,0,1-1.07631.09588Z"/><path d="M320.0952,165.53656a12.448,12.448,0,0,1,3.42445,2.56726,8.20737,8.20737,0,0,1,2.1794,3.68628,24.94857,24.94857,0,0,0-2.66948-3.22009C322.07361,167.55725,321.06807,166.59253,320.0952,165.53656Z"/><path d="M322.53166,160.25757c.97511.298,1.95305.5423,2.92644.77508a29.05515,29.05515,0,0,0,2.94038.528,19.29244,19.29244,0,0,0,2.96256.11865,13.83716,13.83716,0,0,0,2.94682-.52838,7.98589,7.98589,0,0,1-2.891,1.05353,12.46533,12.46533,0,0,1-3.09911.02777A14.92688,14.92688,0,0,1,322.53166,160.25757Z"/><path d="M317.19159,182.13083s35.14606,34.815,59.51064,25.55642" fill="none" stroke="#000" stroke-miterlimit="10" stroke-width="0.67679"/><path d="M341.80606,170.823a47.29757,47.29757,0,0,0,8.58211,2.01373,31.83672,31.83672,0,0,0,4.337.25781c.72021-.02276,1.43773-.04541,2.14849-.13574.34138-.03827.74178-.06225,1.1368-.08594a7.43539,7.43539,0,0,1,1.1769-.026,17.09133,17.09133,0,0,1,4.52059.9,28.28811,28.28811,0,0,1,4.13766,1.8493,35.15471,35.15471,0,0,1,7.23235,5.26172,64.2411,64.2411,0,0,0-7.70758-4.31842,22.90576,22.90576,0,0,0-8.23691-2.34082,6.25009,6.25009,0,0,0-1.04108.00879c-.34467.01532-.68429.02594-1.0798.06531a19.26151,19.26151,0,0,1-2.2869.09991,26.46444,26.46444,0,0,1-4.50892-.49774A29.68337,29.68337,0,0,1,341.80606,170.823Z"/><path d="M341.80606,206.9563a37.6377,37.6377,0,0,0,4.5554,4.80548,44.44615,44.44615,0,0,0,10.99469,7.21814,53.89067,53.89067,0,0,0,6.1892,2.37677c-1.081-.24237-2.1771-.46179-3.244-.78143-1.05783-.34772-2.12889-.67-3.1528-1.11792a34.317,34.317,0,0,1-11.142-7.31787A26.46142,26.46142,0,0,1,341.80606,206.9563Z"/><path d="M346.27879,164.8056a23.464,23.464,0,0,1,1.36492,4.00074,23.19086,23.19086,0,0,1,.70932,4.16717,23.18895,23.18895,0,0,1-1.36492-4.00073A23.46271,23.46271,0,0,1,346.27879,164.8056Z"/><path d="M344.29735,138.00458a28.62346,28.62346,0,0,1,3.548-2.65448,32.26043,32.26043,0,0,1,3.90675-2.12537,17.59058,17.59058,0,0,1,4.28028-1.29993,9.104,9.104,0,0,1,2.25381-.04864,4.72843,4.72843,0,0,1,2.09176.76819,6.87481,6.87481,0,0,0-4.255-.20685,19.95006,19.95006,0,0,0-4.09808,1.40582,43.47951,43.47951,0,0,0-3.91466,1.95221C346.82605,136.49835,345.56355,137.24554,344.29735,138.00458Z"/><path d="M324.3777,188.3894c.07545,2.46668.06431,4.93073.09891,7.39618l-.04245,7.39173c-.03015,4.92779-.16658,9.85229-.30342,14.77673-.169,4.92346-.34079,9.8468-.61722,14.76691l-.4195,7.38c-.1893,2.45844-.33206,4.91834-.56236,7.37555-.07648-2.4668-.0654-4.93078-.10086-7.39624l.042-7.39178c.03124-4.9278.16713-9.8523.30579-14.77668.17084-4.9234.34209-9.8468.6196-14.76684l.41906-7.38C324.0057,193.30646,324.14841,190.84656,324.3777,188.3894Z"/><path d="M316.7453,239.541c2.84262-.35663,5.69144-.6269,8.537-.94275l8.54708-.80164c5.6982-.53259,11.404-.95917,17.10982-1.38531,5.70813-.394,11.41646-.78534,17.13228-1.07215l8.57407-.42541c2.86156-.09247,5.71979-.23133,8.58429-.28284-2.84255.35767-5.69136.62793-8.53684.9447l-8.54706.80207c-5.69828.53155-11.404.95861-17.11,1.38293-5.70825.39221-11.41655.78406-17.13244,1.06976l-8.574.42591C322.46795,239.34955,319.60972,239.48853,316.7453,239.541Z"/><path d="M320.90735,207.48421a1.0158,1.0158,0,0,0,0-2.03038,1.0158,1.0158,0,0,0,0,2.03038Z"/><path d="M318.95818,225.75765a1.0158,1.0158,0,0,0,0-2.03039,1.0158,1.0158,0,0,0,0,2.03039Z"/><path d="M317.25266,240.13275a1.0158,1.0158,0,0,0,0-2.03039,1.0158,1.0158,0,0,0,0,2.03039Z"/><path d="M321.88193,191.16a1.0158,1.0158,0,0,0,0-2.03038,1.0158,1.0158,0,0,0,0,2.03038Z"/><path d="M319.93277,247.73822c.66089,1.47693,1.36806,2.89215,2.137,4.25427a23.19545,23.19545,0,0,0,2.63341,3.80048,13.87231,13.87231,0,0,0,3.46432,2.89349,13.61613,13.61613,0,0,0,4.43488,1.38465,8.745,8.745,0,0,1-4.88542-.42933,11.24915,11.24915,0,0,1-4.0353-2.962,16.57729,16.57729,0,0,1-3.74885-8.94159Z"/><path d="M335.44488,247.4765c-1.36515,7.28229-2.40777,14.61737-3.37645,21.95691-.94693,7.343-1.81765,14.69525-2.49916,22.0661-1.3999,14.73548-2.47021,29.50757-2.85386,44.30487-.0627,1.84888-.168,3.69672-.20262,5.54639l-.09319,5.54944c-.03914,3.6997-.17581,7.39953-.135,11.09967l.0937,11.10095c.00471,1.85046.03236,3.70044.11147,5.54919l.16606,5.54847c.33435,14.80468,1.53015,29.56762,2.77908,44.33349l-1.27364-11.04089c-.4158-3.68237-.86528-7.36292-1.11738-11.06079l-.84444-11.08777c-.16179-1.84717-.24223-3.69873-.32461-5.55029l-.25948-5.55457c-.73944-14.81274-.66812-29.65594-.25125-44.47858q.74648-22.23395,3.17421-44.36657c.8091-7.37,1.792-14.71991,2.87851-22.05225C332.604,262.02283,333.86453,254.71588,335.44488,247.4765Z"/><path d="M346.49016,355.82385c.18687-2.35992.48045-4.70544.73208-7.05774l.93465-7.03058c.642-4.6853,1.43875-9.347,2.28032-14.00122.86732-4.6491,1.81773-9.28662,2.95637-13.8825.56386-2.29883,1.18546-4.58509,1.82169-6.865l1.08632-3.384c.38119-1.1217.81193-2.22711,1.23384-3.33014L356.646,303.703l-.78831,3.44989c-.50378,2.30487-1.00906,4.60657-1.44773,6.92493-.89512,4.63086-1.807,9.2583-2.64263,13.903l-2.58772,13.9228-1.30556,6.964Z"/><path d="M352.10054,335.82422c3.22986,2.82623,6.40039,5.71564,9.60225,8.57172l9.5054,8.67486c6.32724,5.79346,12.57114,11.67566,18.8608,17.50916,6.21463,5.91333,12.46925,11.78418,18.64632,17.73742l9.24706,8.94971c3.04846,3.01929,6.12881,6.00464,9.14917,9.05383-3.23056-2.82544-6.40113-5.71484-9.60359-8.57031l-9.50569-8.67444c-6.32477-5.79614-12.572-11.6748-18.85919-17.511-6.21216-5.9159-12.4701-11.78321-18.64469-17.73914l-9.24735-8.9494C358.202,341.858,355.12159,338.87268,352.10054,335.82422Z"/><path d="M270.905,244.98578a82.2766,82.2766,0,0,0-7.97739,4.05914c-2.58422,1.48914-5.10018,3.08808-7.586,4.72919q-3.6868,2.5275-7.21718,5.269-3.55018,2.71426-6.96991,5.607l.03769-.0387a10.06761,10.06761,0,0,0-.93431,1.2204,2.496,2.496,0,0,0-.29538.61151c-.03167.08887-.00394.14233-.033.09515-.01067-.00464-.01114-.01941-.01052-.00354a.33009.33009,0,0,1,.0979.01715l.87218.28485-.71966.36139a6.69739,6.69739,0,0,0-2.10648,1.60858,2.636,2.636,0,0,0-.63969,2.3852,1.71471,1.71471,0,0,0,.23576.56793,1.58507,1.58507,0,0,0,.449.40655,2.15183,2.15183,0,0,0,1.23119.22779,6.18935,6.18935,0,0,0,2.51716-.93891l.79872-.46044-.51045.77514a13.05534,13.05534,0,0,0-1.57339,3.12036,3.27592,3.27592,0,0,0-.16262,1.6247,1.22045,1.22045,0,0,0,1.01775.91931l.18356.12372a.78353.78353,0,0,0,.33591.07147,1.93832,1.93832,0,0,0,.52356-.08075,5.56292,5.56292,0,0,0,1.07039-.48669,13.76735,13.76735,0,0,0,1.97464-1.45862,35.2243,35.2243,0,0,1,4.07318-3.0741c2.83559-1.87121,5.768-3.546,8.77142-5.12518l2.64325-1.38983-1.83824,2.39019a18.35152,18.35152,0,0,0-2.38463,3.88623,3.24632,3.24632,0,0,0-.32728,1.83625.59985.59985,0,0,0,.36956.41009,2.597,2.597,0,0,0,.87711.16175l.558.28576a.71917.71917,0,0,0-.19343-.17578l-.057-.03192a.6141.6141,0,0,0-.11462-.04157.34507.34507,0,0,0-.07137-.01446l-.046-.00342c-.0225.0044.02308-.0058.03158-.00574a1.84138,1.84138,0,0,0,.179-.04779c.13512-.04016.28667-.09948.435-.1568.30188-.1242.60871-.262.91481-.41125.61211-.296,1.22512-.61878,1.83584-.94428,1.2129-.64794,2.43872-1.37841,3.63842-2.061a63.867,63.867,0,0,0,6.89-4.66382,49.53069,49.53069,0,0,0,6.13046-5.625,25.85659,25.85659,0,0,0,4.61379-6.91437l.12665.04773a23.56355,23.56355,0,0,1-4.184,7.3396,43.19894,43.19894,0,0,1-5.98642,6.01862,60.35658,60.35658,0,0,1-6.8892,4.97351c-1.22715.72278-2.40029,1.44714-3.65111,2.1405-.62108.34442-1.2441.6853-1.89739.99433-.32446.15716-.65767.3067-1.0046.44824-.17875.06866-.35392.13739-.55492.19751a3.159,3.159,0,0,1-.32965.084,1.73014,1.73014,0,0,1-.22878.02863,1.03735,1.03735,0,0,1-.17718-.0033,1.24515,1.24515,0,0,1-.13651-.02338.86412.86412,0,0,1-.14529-.0531l-.0723-.038a.7831.7831,0,0,1-.20654-.18555l.55762.28565a3.93534,3.93534,0,0,1-1.445-.29615,2.06574,2.06574,0,0,1-1.14825-1.3186,4.38363,4.38363,0,0,1,.42071-2.78223,15.25555,15.25555,0,0,1,1.208-2.18457,23.90156,23.90156,0,0,1,1.44852-1.98639l.805,1.00031c-2.97882,1.513-5.941,3.112-8.79339,4.849a40.17525,40.17525,0,0,0-4.11292,2.83392,14.89589,14.89589,0,0,1-2.15611,1.43762,6.20128,6.20128,0,0,1-1.24806.50153,2.56246,2.56246,0,0,1-.72446.07623,1.07778,1.07778,0,0,1-.81335-.36047l.18324.12353a2.32591,2.32591,0,0,1-.91567-.48645,1.66915,1.66915,0,0,1-.49374-.92138,4.06367,4.06367,0,0,1,.22455-1.88782,13.48109,13.48109,0,0,1,1.6849-3.222l.28821.31464a7.08453,7.08453,0,0,1-2.70215.97461,2.5673,2.5673,0,0,1-1.48042-.26868,2.01835,2.01835,0,0,1-.58742-.52081,2.28962,2.28962,0,0,1-.31616-.70929,3.13455,3.13455,0,0,1,.651-2.835,7.32485,7.32485,0,0,1,2.22374-1.88587l.15249.64612c-.09965-.0072-.20141-.01971-.30078-.037a.76183.76183,0,0,1-.33732-.22168.8024.8024,0,0,1-.12616-.675,3.084,3.084,0,0,1,.34474-.85688,10.689,10.689,0,0,1,.94984-1.38507l.01248-.01574.0255-.02326c1.10977-1.01184,2.20242-2.0459,3.32932-3.04187,1.14938-.96887,2.27105-1.97485,3.471-2.88336,2.34605-1.88684,4.846-3.57159,7.35265-5.23395a84.41479,84.41479,0,0,1,7.81982-4.5014,55.15509,55.15509,0,0,1,8.3033-3.50128Z"/><path d="M254.75752,261.43884q-3.30293,2.4267-6.50978,4.97559c-1.06415.85425-2.1198,1.7185-3.14851,2.60974a24.3662,24.3662,0,0,0-2.86661,2.82867l-.533-.41711a24.658,24.658,0,0,1,3.0744-2.80133c1.07286-.85461,2.16683-1.67706,3.268-2.48865Q251.355,263.72465,254.75752,261.43884Z"/><polygon points="239.834 266.608 250.616 260.085 240.2 267.178 239.834 266.608"/><path d="M312.867,437.01749s5.36021.67136-16.08062,12.12271-28.26291,12.66958-28.26291,19.248c0,0,7.553,10.72041,60.42415-3.65469h1.59715v1.94917l14.72712-.97458s.97458-19.248-3.1674-24.85187c0,0-1.7038-6.81545.00086-8.52429"/><path d="M421.667,411.48817s4.069-.073,2.2446,24.16568-4.4524,30.651,1.1013,34.177c0,0,13.09877-.63052,29.30091-52.97066l.856-1.34836,1.64555,1.04472,6.08354-11.14667s-19.79219-12.964-26.74315-12.47083"/><path d="M323.067,112.14688s11.08058-14.80881.1964-13.95392" fill="none" stroke="#000" stroke-miterlimit="10" stroke-width="0.81402"/><path d="M322.0382,115.41469c6.78841-3.26781,9.40124-9.18426,9.79172-15.76709a22.13313,22.13313,0,0,0-4.67957-15.17529,16.51238,16.51238,0,0,0-20.19572-5.18191,23.15651,23.15651,0,0,0,16.07272,17.28777l.236,1.61479s7.42622-1.71838,3.49149,7.55153a62.42114,62.42114,0,0,1-3.68789,6.40239Z"/><path d="M326.74959,128.34222q7.67793-.89125,15.39764-1.39331a115.82025,115.82025,0,0,1,15.4853-.079,23.17826,23.17826,0,0,1,3.871.614c.31924.09545.639.19256.9554.31127.31232.13807.63788.27723.90995.42194.5651.29144,1.14184.56854,1.72374.83923a12.47257,12.47257,0,0,1,3.39786,2.03632,10.82611,10.82611,0,0,1,2.29731,3.2489,54.358,54.358,0,0,1,2.80189,7.26062q1.18623,3.6892,2.22994,7.41236a301.84031,301.84031,0,0,1,7.045,30.11645c.44156,2.54126.82863,5.09338,1.11444,7.65961a46.28647,46.28647,0,0,1,.35811,7.74518,10.45292,10.45292,0,0,1-.32856,1.938,11.52575,11.52575,0,0,1-.70426,1.81861c-.52311,1.1806-1.083,2.346-1.699,3.48309a26.87377,26.87377,0,0,1-2.06284,3.28821,11.10718,11.10718,0,0,1-2.75618,2.758l.05943-.20166c4.29546,9.154,8.61135,18.29352,12.52263,27.63392.47188,1.18182.95021,2.33721,1.31733,3.60266l.10474.51672a.85589.85589,0,0,1-.11383.61517,1.674,1.674,0,0,1-.351.43933,2.84511,2.84511,0,0,1-.39289.3332,9.87309,9.87309,0,0,1-1.6941.98034,40.96024,40.96024,0,0,1-7.24848,2.41083,118.82367,118.82367,0,0,1-14.983,2.58868,264.3055,264.3055,0,0,1-30.328,1.50006c-5.06062-.02014-10.12292-.14929-15.17531-.34118l-1.86383-.0257a6.68934,6.68934,0,0,1-2.03436-.1972,4.51232,4.51232,0,0,1-2.857-2.91809,10.74825,10.74825,0,0,1-.52165-3.91053,26.21218,26.21218,0,0,1,.40724-3.83923l.48427.53491a.71423.71423,0,0,1-.24906-.10754.57446.57446,0,0,1-.22093-.32025.70777.70777,0,0,1-.01743-.26264l.01119-.222.02537-.43909.05556-.87189.11814-1.74011.24768-3.47723.513-6.95172,1.0654-13.8996,1.12573-13.8949c.42952-4.62781.78552-9.26,1.37973-13.87591a.04835.04835,0,0,1,.05411-.04175.0522.0522,0,0,1,.04144.05719c-.49024,4.61334-.74454,9.25891-1.07115,13.89172l-.94579,13.90595-.90053,13.909-.43048,6.95526-.20634,3.47748-.09731,1.738-.045.86755-.01979.43091-.00826.21313c-.01039.01215.01711.149-.02325-.045a.37586.37586,0,0,0-.22-.21136.352.352,0,0,0-.24817.00134l.48426.53528a25.29562,25.29562,0,0,0-.34894,3.69641,10.032,10.032,0,0,0,.476,3.56238,3.52644,3.52644,0,0,0,2.22684,2.3128,5.59572,5.59572,0,0,0,1.72185.15149l1.92677.02216c5.04961.18158,10.09467.3,15.14314.31006a274.34265,274.34265,0,0,0,30.2254-1.36573,125.06328,125.06328,0,0,0,14.906-2.42462,40.34107,40.34107,0,0,0,7.14525-2.28357,9.28066,9.28066,0,0,0,1.59226-.894,2.046,2.046,0,0,0,.57763-.56439c.12325-.115.00239-.42084-.04164-.69635-.32461-1.16364-.7953-2.35791-1.2485-3.52588-1.87039-4.68512-3.93271-9.30249-5.99073-13.91657q-3.09921-6.91736-6.28907-13.795a.16061.16061,0,0,1,.0595-.2019,10.56578,10.56578,0,0,0,2.68856-2.664,26.57531,26.57531,0,0,0,2.02-3.26348c.60419-1.13123,1.15369-2.29249,1.66684-3.46949a11.197,11.197,0,0,0,.67853-1.78167,10.13757,10.13757,0,0,0,.30356-1.86408,42.24648,42.24648,0,0,0-.43513-7.66754c-.32264-2.54889-.74642-5.08618-1.22464-7.61292-.95557-5.05407-2.099-10.073-3.34566-15.06475q-1.84953-7.49305-3.98093-14.91382c-.71046-2.4729-1.41672-4.94635-2.19608-7.39289A53.69971,53.69971,0,0,0,370.081,134.7a10.08022,10.08022,0,0,0-2.11253-3.04071,11.77881,11.77881,0,0,0-3.19465-1.92584c-.58427-.27588-1.16669-.55963-1.74462-.86182-.29607-.15936-.56458-.26983-.83945-.39587-.28478-.10828-.5825-.20056-.87848-.29144a23.25792,23.25792,0,0,0-3.74406-.64081,115.35376,115.35376,0,0,0-15.3965-.13428q-7.71332.31184-15.41063,1.02918a.04839.04839,0,0,1-.01052-.0962Z"/></svg>