<svg id="Layer_1" data-name="Layer 1" xmlns="http://www.w3.org/2000/svg" viewBox="0 0 700 550"><title>smoking ciggerette</title><path d="M218.914,262.01125c-.09567,0-.19158,0-.28748.00935v-5.32694c.00959.05731.00959.12444.01918.182l.32584,3.12347C218.9619,260.66974,218.93313,261.34038,218.914,262.01125Z"/><path d="M218.94272,274.93622c-.10526,0-.21076-.00959-.31625-.00959V265.01c.2683.00959.5366.00959.8049.01918q3.66486.11508,7.32972.03836c2.05027-.03836,4.09094-.11509,6.13185-.21076.11485,1.51367.23953,3.04674.41192,4.63737l.68023,6.53418c-2.7209-.29708-5.26964-.49824-7.7606-.68982C223.7333,275.16616,221.30924,275.00335,218.94272,274.93622Z"/><path d="M234.09058,252.41091c2.44325.0669,4.88649.08608,7.3295.03836,2.05049-.03836,4.09117-.11508,6.13208-.211.11485,1.5139.23952,3.047.41192,4.63736l.32561,3.12347c-.00936,1.12092-.04772,2.24208-.10526,3.363-2.54851-.2683-4.95338-.46947-7.301-.64187-2.09821-.15345-4.13889-.2683-6.151-.35461a1.298,1.298,0,0,0-.50783-.14363l-.134-.00959c-2.44324-.12467-4.88648-.22034-7.32949-.25871-2.27084-.048-4.54169-.02877-6.8123.02878-.00959-.48865-.03836-.96771-.048-1.45636.10549-.96771.22034-1.97377.32584-2.999.182-1.8491.32561-3.78451.4407-5.72952,2.03108.15345,4.0624.31626,6.09371.38339Q230.42561,252.32447,234.09058,252.41091Z"/><path d="M262.6233,244.25734l.53636,5.11642c-2.35692.05731-4.71385.14362-7.08037.2297-1.43717.048-2.88394.14386-4.3307.24936-.79508-.04819-1.57121-.07673-2.35693-.1055a1.29946,1.29946,0,0,0-.50783-.14386l-.134-.00935c-2.44324-.12468-4.88648-.22035-7.32972-.25871-2.27062-.048-4.54146-.02878-6.80248.02853a88.74085,88.74085,0,0,1,.22993-10.223c2.19413.1628,4.37842.345,6.57255.42151,2.44324.08631,4.88648.17263,7.32972.23017,2.44324.0669,4.88625.08608,7.32949.03813,2.05027-.03813,4.09117-.11485,6.13208-.21076C262.32622,241.13387,262.4509,242.65712,262.6233,244.25734Z"/><path d="M256.07929,252.181q3.66486.1435,7.32973.22994c2.443.0669,4.88625.08608,7.32949.03836,2.05026-.03836,4.09117-.11508,6.14143-.211.1055,1.5139.23953,3.047.40257,4.63736l.68982,6.53442c-2.72114-.29707-5.26964-.50783-7.77042-.68982-2.48137-.18222-4.90567-.33543-7.28178-.40256a64.05935,64.05935,0,0,0-7.0516.048c-2.15576.134-4.34029.37356-6.56318.527-.03836-.78572-.0669-1.5808-.08608-2.36652.11485-.96771.22035-1.97377.32561-2.999.182-1.77238.31625-3.61212.43134-5.47081.72794-.02877,1.45635-.05754,2.17494-.0959C253.46365,252.05629,254.77615,252.133,256.07929,252.181Z"/><path d="M278.48016,390.686c-1.16911-.0669-2.338-.12445-3.48768-.15322a61.98454,61.98454,0,0,0-7.06142.03836c-2.14594.134-4.33047.37357-6.55336.527a89.81785,89.81785,0,0,1,.20117-11.12382c2.18453.163,4.37865.345,6.57277.42175,2.44324.08608,4.88625.17239,7.32949.2297,2.44324.06714,4.88649.08632,7.32973.02877,2.05026-.02877,4.09094-.10526,6.13184-.20116.11486,1.51389.23953,3.03738.41193,4.62777l.32584,3.13306c-.00959.67063-.02877,1.33167-.05754,2.00254q-3.40627.086-6.81207.22035C281.37368,390.48482,279.92669,390.58072,278.48016,390.686Z"/><path d="M297.46984,380.39607c.9677.03813,1.93541.0669,2.90312.09567v9.75355c-.96771-.03836-1.93542-.05754-2.90312-.07672q-3.39153-.07158-6.80248.01918c-.01918-.47906-.04795-.96748-.05755-1.44653.11486-.9773.22035-1.97378.32585-2.999.182-1.85869.3352-3.78451.45028-5.7391C293.417,380.16589,295.43875,380.31934,297.46984,380.39607Z"/><path d="M297.46984,393.28244c.9677-.019,1.93541-.04772,2.90312-.07649v10.61576c-1.16888-.09567-2.309-.182-3.43972-.26806-2.491-.182-4.90543-.33544-7.28154-.40234a61.91558,61.91558,0,0,0-7.06142.04772c-2.14617.12468-4.33047.36421-6.55337.51742a88.6046,88.6046,0,0,1,.1724-10.81716c.90057-.01918,1.79179-.0669,2.67318-.10526,1.3125.08608,2.62523.17239,3.92837.22034,2.443.08609,4.88625.1724,7.32949.22994C292.58359,393.31145,295.02683,393.33063,297.46984,393.28244Z"/><path d="M218.90436,461.165a2.693,2.693,0,0,0-.27789.00959v-11.114A91.40384,91.40384,0,0,1,218.90436,461.165Z"/><path d="M219.43137,488.4905c1.3125.07673,2.64441.19158,3.98568.30666h-4.79058V476.52365h.07672a86.7968,86.7968,0,0,1,.15345,11.38253.53887.53887,0,0,0,.5076.57473Z"/><path d="M218.94272,474.09959c-.10526,0-.21076-.00959-.31625-.00959v-9.91636c.2683.00936.5366.00936.8049.01918,2.44324.0669,4.88648.08608,7.32972.02854,2.05027-.02854,4.09094-.10526,6.13185-.20117.11485,1.5139.23953,3.03715.41192,4.62777l.32585,3.13306c-.00959.67064-.03836,1.33168-.05755,2.00231q-3.40626.08633-6.81207.22035c-1.43717.04819-2.88417.14386-4.3307.24935C221.25193,474.1859,220.09241,474.12836,218.94272,474.09959Z"/><path d="M247.96408,455.905l.54619,5.25045q-3.53574.08632-7.09019.22035c-1.12092.03836-2.25144.11509-3.37259.19158-1.50407-.09567-2.9892-.1724-4.44555-.22035H233.506c-2.25143-.10526-4.4935-.19158-6.74494-.2297-2.27084-.04819-4.5321-.03837-6.80271.01894a90.965,90.965,0,0,1,.22994-10.34769c2.18453.17263,4.37865.345,6.57277.42175q3.66452.1435,7.32949.22994,3.66487.11508,7.3295.03836c2.05049-.03836,4.09117-.11509,6.13208-.211C247.667,452.78151,247.79168,454.31459,247.96408,455.905Z"/><path d="M240.88347,487.12046c-2.491-.18222-4.90543-.33543-7.28153-.40257a61.966,61.966,0,0,0-7.06143.048c-2.14617.12467-4.33047.37379-6.55336.51742a88.41743,88.41743,0,0,1,.1724-10.80758c.90057-.02853,1.782-.07672,2.67318-.11485,1.31249.09567,2.61563.1724,3.92836.22035,2.443.08631,4.88625.17239,7.32949.22994,2.44325.0669,4.88649.08608,7.3295.03836,2.05049-.03836,4.09117-.11509,6.13208-.211.11485,1.5139.23952,3.03738.41192,4.63736l.68022,6.52483C245.93276,487.5132,243.38426,487.30245,240.88347,487.12046Z"/><path d="M241.42008,463.96265c2.44324.08631,4.88648.17263,7.32972.23017,2.44324.0669,4.88625.08608,7.32949.02854,2.05027-.02854,4.09117-.10526,6.13208-.20117.11485,1.5139.23953,3.03715.41193,4.62777l.68022,6.53442c-2.71154-.28748-5.26-.49824-7.76083-.68982-2.09822-.14385-4.13912-.2683-6.151-.345a1.29929,1.29929,0,0,0-.50783-.14386l-.134-.00936c-2.44324-.12467-4.88648-.22034-7.32972-.25871q-3.40593-.07193-6.80248.02854c-.01919-.48841-.048-.97706-.05755-1.45612.11485-.9773.22035-1.97377.32585-2.999.182-1.81074.32561-3.6982.4311-5.60507.37356-.00936.73777-.02854,1.11133-.04772C238.09544,463.78066,239.753,463.90534,241.42008,463.96265Z"/><path d="M270.25945,88.41034l.33543,3.12323c-.01918,1.12115-.048,2.24207-.11508,3.363-2.53892-.2683-4.944-.46946-7.301-.64186-2.48137-.182-4.90543-.3352-7.28153-.40233a63.96717,63.96717,0,0,0-7.05184.048c-2.15576.134-4.34029.37356-6.56295.52678a89.89211,89.89211,0,0,1,.20117-11.13318c2.19412.17239,4.388.34479,6.58213.42151q3.66486.14351,7.32972.22994c2.44325.06713,4.88625.08631,7.32949.03836,2.04091-.03836,4.08159-.11509,6.13209-.21076C269.96238,85.28664,270.09664,86.81972,270.25945,88.41034Z"/><path d="M276.0561,81.2626c-1.85893-.12444-3.69843-.22994-5.49958-.27766-1.59062-.07672-3.15224-.0959-4.71409-.05754-.709-.01918-1.4084-.048-2.1174-.05755-2.27061-.048-4.53186-.02877-6.80248.02878a91.11323,91.11323,0,0,1,.22035-10.482c2.19412.17263,4.388.35462,6.58213.42175,2.44325.09567,4.88649.182,7.32973.23953,2.443.06714,4.88625.08632,7.32949.02877,2.04067-.02877,4.09117-.11508,6.13185-.20116.10549,1.51366.23953,3.03715.40256,4.62754l.56514,5.37513q-3.54976.08631-7.09955.22994C277.60812,81.16693,276.832,81.21465,276.0561,81.2626Z"/><path d="M271.61031,94.4271c-.03836-.78549-.07649-1.5808-.08632-2.36652.1055-.96771.211-1.97354.31626-2.99879.19181-1.8491.33543-3.78451.45028-5.72975h.02877c2.02173.15345,4.04322.31626,6.065.38339q3.66486.14351,7.32949.22994c2.44324.06713,4.88648.08631,7.32973.03836,2.04067-.03836,4.09117-.11509,6.13184-.21076.1055,1.51367.23953,3.04675.40257,4.63737l.68958,6.53418c-2.7209-.29708-5.26963-.50783-7.76059-.68982-2.4912-.182-4.91526-.3352-7.29137-.40233a63.97959,63.97959,0,0,0-7.0516.048C276.00814,94.03435,273.82361,94.27388,271.61031,94.4271Z"/><path d="M300.373,81.12856c-2.44324-.12467-4.88625-.22034-7.32949-.25871-2.35716-.048-4.7045-.02877-7.06143.02878.18222-1.49472.35462-3.07575.51742-4.70427.22035-2.1464.39274-4.38824.50783-6.63991v-.0669A1.229,1.229,0,0,0,285.848,68.2609h-.13427c-2.443-.12444-4.88625-.22034-7.32949-.26806-2.44324-.048-4.88648-.02877-7.32949.03836-2.44324.05731-4.88648.14362-7.32973.2297-2.44324.08632-4.88624.29708-7.32949.47906l-.13426.00983a.749.749,0,0,0-.68023.74712v.05754a91.85228,91.85228,0,0,1,.27789,11.36336c-2.26125.05731-4.53186.134-6.79312.22035-2.443.07649-4.88625.28748-7.32949.47905l-.13427.00959a.73117.73117,0,0,0-.68022.72818v.06713a89.59529,89.59529,0,0,1,.22994,12.6279.53065.53065,0,0,0,.50782.56514l.07673.00959c2.472.14386,4.99174.42152,7.54048.56537a72.12618,72.12618,0,0,0,7.60738.048c2.51014-.06714,4.98216-.22035,7.37745-.40234,2.15576-.163,4.254-.35461,6.23734-.60373a.5349.5349,0,0,0,.48865.38315l.06713.00959c2.47178.14386,4.99174.42152,7.54984.56537a71.9297,71.9297,0,0,0,7.59779.048c2.52-.06714,4.98215-.22035,7.37744-.40234,2.35716-.18222,4.65655-.38338,6.79313-.68046v58.09067c-.08632.1724-.1724.35439-.25871.53661a31.86759,31.86759,0,0,0-1.69589,4.75221,32.23245,32.23245,0,0,0-1.10174,8.87193c.048,5.69138.364,11.36335.6035,17.03556.32585,5.66237.6421,11.33434,1.04443,16.99672.40234,5.59548.8145,11.191,1.38923,16.77685a.12072.12072,0,0,0,.00959.05731l-.32561-8.36433-.393-8.508-.83344-17.00655c-.31625-5.66261-.62291-11.33458-.81449-16.997a33.33539,33.33539,0,0,1,.73777-8.38351,34.41684,34.41684,0,0,1,1.63834-5.4039V313.328c-1.37963-.05754-2.75926-.10549-4.14848-.163-1.59063-.048-3.181-.1055-4.78123-.15322v-.20117l-5.72951-.02877-5.7391.02877v.20117c-1.59039.04772-3.181.09567-4.7714.15322-2.71131.0959-5.42285.21075-8.1248.37356-2.71131.14386-5.42285.32584-8.1248.56537,2.702.23953,5.41349.42175,8.1248.56537,2.702.16281,5.41349.27789,8.1248.37357,1.59039.048,3.181.10549,4.7714.15321v.2014l5.25045.02877a17.54672,17.54672,0,0,0-.55555,2.33775,24.89483,24.89483,0,0,0-.28748,3.66966,23.52862,23.52862,0,0,0,.28748,3.65983,14.689,14.689,0,0,0,1.0442,3.66966,14.68,14.68,0,0,0,1.04443-3.66966,23.89688,23.89688,0,0,0-.00959-7.32949,17.52969,17.52969,0,0,0-.54619-2.33775l5.24086-.02877v-.2014c1.60022-.04772,3.1906-.10526,4.78123-.15321,1.38922-.05731,2.76885-.10527,4.14848-.16281v62.83306c-.96771.029-1.93542.05755-2.90312.09591-2.10781.07672-4.22521.23953-6.34261.41216a1.184,1.184,0,0,0-.85285-.40257l-.134-.00959c-2.44324-.12444-4.88649-.22035-7.32949-.25871-2.44324-.05755-4.88649-.03836-7.32973.02877-2.44324.05754-4.88625.14386-7.32949.22994-2.44324.08631-4.88648.29707-7.32972.47906l-.12445.00959a.74021.74021,0,0,0-.68022.73776v.06714a90.985,90.985,0,0,1,.22994,12.61831.54487.54487,0,0,0,.50783.575h.0669c2.472.15321,5.00133.4311,7.55007.57473,2.13658.12467,4.28275.14385,6.381.08631a86.79156,86.79156,0,0,1,.15345,11.3823.539.539,0,0,0,.5076.575l.06713.00959c2.472.14385,5.00134.42151,7.55007.56537a74.73879,74.73879,0,0,0,7.60739.04772c2.51014-.0669,4.97256-.22035,7.37744-.40234q1.193-.08631,2.35693-.20116v83.86388H240.67272c.4311-.02877.86244-.06713,1.29355-.0959,2.3857-.182,4.72344-.39274,6.88879-.68982.22994-1.897.46947-3.94755.68982-6.08412.182-1.77238.31625-3.62148.43134-5.48016,2.261-.07673,4.48391-.2014,6.64926-.36421,2.3857-.19158,4.72345-.40257,6.8888-.68981.22994-1.89705.46946-3.94755.68981-6.08413.22035-2.14617.38339-4.37842.50783-6.63968v-.05754a1.22386,1.22386,0,0,0-1.16887-1.22642l-.134-.00959c-2.44325-.12444-4.88649-.22035-7.32973-.25847-2.34734-.05755-4.69467-.03837-7.042.02853.1724-1.46571.34479-2.99879.5076-4.58941.211-2.13658.38338-4.37842.49824-6.63008v-.0669a1.2221,1.2221,0,0,0-1.15929-1.22665l-.134-.00936c-2.44324-.11508-4.88648-.211-7.32972-.25871-2.443-.048-4.88625-.02877-7.3295.03836q-3.66486.086-7.32949.22971c-2.44324.08631-4.88648.29707-7.32972.47906l-.12468.00982h-.00935a.76378.76378,0,0,0-.67087.6035V277.36963c.44069-.00935.872-.02853,1.30314-.04771,2.51014-.06714,4.97256-.22035,7.36785-.393,2.39529-.19158,4.73327-.40234,6.89839-.68982.23017-1.89705.4697-3.94731.69-6.09348.17239-1.77261.316-3.61212.4311-5.471,2.25143-.07649,4.48392-.21052,6.64927-.37356,2.14617-.1628,4.254-.35438,6.23734-.60373a.52326.52326,0,0,0,.47906.38338l.06713.00959c2.48137.14363,5.00134.42152,7.54984.56514a72.06567,72.06567,0,0,0,7.60738.04819c2.51038-.06714,4.9728-.22058,7.37744-.40257,2.38594-.182,4.72368-.39274,6.889-.68022.22994-1.90665.46947-3.94732.68982-6.09372.22035-2.14617.39274-4.37842.50783-6.63968v-.05754a1.23691,1.23691,0,0,0-1.16888-1.22642l-.12467-.00935c-2.44324-.12468-4.89584-.22035-7.33908-.25871-2.33775-.048-4.68532-.02878-7.02307.02853.16281-1.418.33544-2.9127.48865-4.45514.22035-2.14617.38339-4.37865.50783-6.63968v-.05754a1.22385,1.22385,0,0,0-1.16887-1.22641l-.134-.0096c-2.44325-.12444-4.88649-.22034-7.32973-.25871-2.44324-.0573-4.88625-.03812-7.32949.02878-2.44324.05754-4.88648.14362-7.32972.23953-2.443.07672-4.88625.28748-7.3295.47905l-.12467.00959a.73133.73133,0,0,0-.68023.72818v.06713a95.6845,95.6845,0,0,1,.28748,11.114q-3.40626.08633-6.81207.22035c-2.11763.06714-4.235.23953-6.35242.40257a1.23868,1.23868,0,0,0-.84327-.40257l-.134-.00935c-.2683-.00983-.5366-.029-.8049-.03837V144.69963c1.64816.08608,3.29609.15321,4.95361.22035,1.59039.04772,3.181.10526,4.781.15321v.19158l5.24087.03836a18.75923,18.75923,0,0,0-.54619,2.33775,23.89543,23.89543,0,0,0-.0096,7.32949,14.61205,14.61205,0,0,0,1.04443,3.66006,14.61091,14.61091,0,0,0,1.0442-3.66006,23.50247,23.50247,0,0,0,0-7.32949,18.71719,18.71719,0,0,0-.546-2.33775l5.24087-.03836v-.20117q2.38559-.07193,4.77139-.14362c2.71155-.1055,5.42286-.22035,8.12481-.3738,2.71154-.15321,5.42285-.32561,8.1248-.56514-2.702-.23953-5.41326-.42175-8.1248-.56537-2.70195-.163-5.41326-.2683-8.12481-.3738-1.59038-.04795-3.181-.10526-4.77139-.15321v-.20117l-5.73911-.03836-5.72951.03836v.20117c-1.6.048-3.1906.0959-4.781.14362-1.65752.06714-3.30545.13427-4.95361.22035V59.341H300.373Z"/><path d="M443.61194,251.7777a2.10946,2.10946,0,0,0,.37614,1.0973,2.47464,2.47464,0,0,0,.98875.81332,9.74184,9.74184,0,0,0,3.04254.55812,19.57812,19.57812,0,0,1,6.4081,2.12956,6.66923,6.66923,0,0,1,2.596,2.25822,2.72417,2.72417,0,0,1,.185.426l.12912.38759c.08374.25965.17287.517.27368.76888a12.11961,12.11961,0,0,0,.66923,1.48115c.9918,1.96114,3.0437,3.08534,4.54731,4.68672-.8166-.74361-1.69963-1.39741-2.57821-2.06851a8.81331,8.81331,0,0,1-2.28254-2.43459,12.50843,12.50843,0,0,1-.77473-1.4905c-.11813-.2538-.22386-.512-.32374-.77216l-.15391-.389a2.174,2.174,0,0,0-.16445-.32186,6.12119,6.12119,0,0,0-2.46733-1.87132,18.67005,18.67005,0,0,0-6.19524-1.65659,10.4867,10.4867,0,0,1-3.45094-.46759,3.66967,3.66967,0,0,1-2.3588-3.1347.7677.7677,0,0,1,1.53191-.10339l.00163.04445Z"/><path d="M326.51791,109.91722s-8.83774-25.59261,0-35.9033,32.03679-12.88836,39.76981-8.83773,12.88836,11.78364,6.99654,17.12311c0,0-11.96777-12.52013-18.78019,11.78365,0,0-1.52709,7.33-5.13756,3.35414a7.77285,7.77285,0,0,1-1.42042-2.30974c-.83864-2.05939-3.39939-7.154-7.06475-3.55121a8.47748,8.47748,0,0,0-2.44392,6.34484,17.99994,17.99994,0,0,0,.70452,4.73524S332.22561,110.28546,326.51791,109.91722Z"/><path d="M338.851,101.311a7.961,7.961,0,0,0,.94478,1.52536,10.2474,10.2474,0,0,0,1.2608,1.367,11.49067,11.49067,0,0,0,3.18288,2.03155,11.75,11.75,0,0,1-3.50077-1.63086,10.87812,10.87812,0,0,1-1.5174-1.25939,8.70776,8.70776,0,0,1-1.28513-1.57612Z"/><path d="M373.33383,82.28715a27.33707,27.33707,0,0,1,.95508,7.988,24.65194,24.65194,0,0,1-.44514,4.0355c-.10737.67087-.30222,1.32583-.46736,1.98594-.19228.64864-.45684,1.31249-.62549,1.88418a6.83794,6.83794,0,0,0,.06783,3.70989c.43064,1.2194.89847,2.52231,1.232,3.81609a17.67026,17.67026,0,0,1,.66619,3.98965,4.98226,4.98226,0,0,1-.34292,2.02945,2.20866,2.20866,0,0,1-1.62079,1.29565,11.56121,11.56121,0,0,1-2.0215.0248,1.952,1.952,0,0,0-1.54641.76771,3.79023,3.79023,0,0,0-.59648,1.73611,16.2922,16.2922,0,0,0-.117,1.95062c-.02058,1.32092.02129,2.66265-.07415,4.02568a9.06766,9.06766,0,0,1-1.10571,4.04836,5.03212,5.03212,0,0,1-3.64112,2.29237,29.7977,29.7977,0,0,1-4.08252.21052,21.86192,21.86192,0,0,1-4.06708-.3759,12.1631,12.1631,0,0,1-2.00021-.55718,4.857,4.857,0,0,1-1.88793-1.1518l.61965.00865c-.94058,1.12092-1.86735,2.27787-2.71342,3.48089-.42268.6028-.83905,1.20981-1.21706,1.84044a8.39832,8.39832,0,0,0-.92887,1.98828l-.10012-.02128a8.59145,8.59145,0,0,1,.74946-2.11577,20.27624,20.27624,0,0,1,1.06993-1.9712,44.48508,44.48508,0,0,1,2.527-3.701l.25918-.33941.36093.34807a4.494,4.494,0,0,0,1.55741.81379,11.28449,11.28449,0,0,0,1.87108.43835,25.48832,25.48832,0,0,0,3.90381.24889,38.28847,38.28847,0,0,0,3.90474-.21965,4.07011,4.07011,0,0,0,2.95622-1.76348,8.15484,8.15484,0,0,0,1.04162-3.584c.13474-1.29706.15392-2.62733.2262-3.97257a15.81143,15.81143,0,0,1,.243-2.03273,4.41025,4.41025,0,0,1,.821-1.95857,2.44357,2.44357,0,0,1,1.95038-.86525,9.00968,9.00968,0,0,0,1.96606.05146,1.85671,1.85671,0,0,0,1.39927-1.07694,4.00434,4.00434,0,0,0,.29965-1.88535,14.14865,14.14865,0,0,0-.79859-3.8575c-.41917-1.26781-.934-2.45025-1.47039-3.7162a6.96242,6.96242,0,0,1-.22338-4.17655c.204-.709.40514-1.2973.62057-1.91881.1731-.62876.37707-1.25214.49614-1.89681a25.884,25.884,0,0,0,.5387-3.90007,29.75037,29.75037,0,0,0,.06222-3.96111,33.93991,33.93991,0,0,0-.371-3.9658Z"/><path d="M326.51786,109.91718a19.844,19.844,0,0,1-.0269,5.36764,20.08142,20.08142,0,0,1-.531,2.6395,7.65715,7.65715,0,0,1-1.09917,2.48769c.14877-.89637.21754-1.76138.31532-2.63856.0821-.87648.19415-1.74758.30128-2.62242A33.59124,33.59124,0,0,1,326.51786,109.91718Z"/><path d="M364.44647,93.71459a6.91593,6.91593,0,0,1,2.2395-1.0456,7.46777,7.46777,0,0,1,2.49962-.283,5.58041,5.58041,0,0,1,2.46382.746,3.98315,3.98315,0,0,1,1.58945,1.94828,7.52244,7.52244,0,0,0-1.95272-1.23741,7.8784,7.8784,0,0,0-2.167-.43672,14.23862,14.23862,0,0,0-2.28909.04491C366.05323,93.52091,365.26728,93.61635,364.44647,93.71459Z"/><path d="M364.44647,98.87008c1.055-.02363,1.97144.07766,2.89119.11345.45707.025.90478.018,1.36513.0152.45987-.01988.91414-.07158,1.45144-.12865a2.7626,2.7626,0,0,1-1.29308.9111,4.44892,4.44892,0,0,1-1.56864.22362,5.17257,5.17257,0,0,1-1.52161-.32163A3.70516,3.70516,0,0,1,364.44647,98.87008Z"/><path d="M381.71711,243.00215l-.45052-7.94282a3.48332,3.48332,0,0,0,.56537-.35438c.05755.67064.09591,1.33168.134,1.99272.01918.72818.00982,1.45636-.00936,2.17494A35.65505,35.65505,0,0,1,381.71711,243.00215Z"/><path d="M382.36856,228.41007a27.25182,27.25182,0,0,0-1.14033-3.43972c-.45988-1.13051-.92911-2.27061-1.43717-3.41095-3.43949-3.2-3.92814-.24889-5.24063-17.92631-1.1787-16.01966-16.23066-43.82419-19.04746-48.90225,1.53284,2.16558,5.16414,3.34405,5.42285,3.42054-1.66712-2.97961-7.89487-22.45818-8.63263-24.85347-.73754-2.39529-28.53272-18.13706-28.53272-18.13706s-4.11971,9.66724-5.097,11.88054a89.68923,89.68923,0,0,1,10.42418,4.7714,109.45578,109.45578,0,0,1,9.83028,5.94986,78.97,78.97,0,0,1,8.9297,7.23382,43.90766,43.90766,0,0,1,7.20505,8.9297c-.60373-.74736-1.19764-1.49472-1.77261-2.24208l-.44069-.56537-.48865-.51718-.9773-1.04443-.95811-1.054c-.32585-.3352-.68023-.65146-1.02525-.98666-.68982-.64209-1.35086-1.32232-2.06945-1.93541a94.35265,94.35265,0,0,0-8.987-6.9847c-3.09493-2.19412-6.35243-4.15831-9.62911-6.09372-1.63834-.97706-3.29586-1.89705-4.98215-2.79762-1.65776-.92934-3.35341-1.80138-5.05888-2.66359-.86245,1.92582-11.87119,14.19934-17.57193,24.80574.14386-.27789.29708-.54619.45988-.81449a26.01843,26.01843,0,0,0-1.17846,2.57728,34.41684,34.41684,0,0,0-1.63834,5.4039,33.33539,33.33539,0,0,0-.73777,8.38351c.19158,5.66238.49824,11.33435.81449,16.997l.83344,17.00655.393,8.508.32561,8.36433.00959.14386c.97729,10.932,1.83974,18.84606,1.83974,18.84606,11.78463,32.65265,50.08049,46.65059,50.08049,46.65059,11.78486-10.80757,9.82068-28.72429,9.82068-28.72429-17.18854-6.14144-20.86779-19.89049-23.809-25.28457a5.78791,5.78791,0,0,1-.93894-2.71154,14.32589,14.32589,0,0,1-1.83015-3.39176,35.149,35.149,0,0,1-1.20723-3.67925,53.98217,53.98217,0,0,1-1.30291-7.62657c-.27789-2.55809-.32584-5.15455-.38339-7.71264l-.24888-7.68411c-.12468-5.126-.35462-10.24219-.60374-15.35862-.12467-2.55832-.27789-5.11642-.50782-7.66492-.09591-1.284-.22035-2.55833-.39275-3.82287-.07672-.63251-.19157-1.26478-.31625-1.8877a5.855,5.855,0,0,0-.49824-1.6,10.82982,10.82982,0,0,1,1.08279,3.43971c.24889,1.26478.45029,2.53892.62268,3.81329.32585,2.5485.575,5.10683.79532,7.66492.41192,5.12578.63227,10.25179.843,15.38739l.15345,7.6937c.01918,2.57727.08608,5.11619.22971,7.66492a54.6042,54.6042,0,0,0,1.01566,7.57861,22.83207,22.83207,0,0,0,2.54873,7.18587c.0669-1.75342,2.90289-.47906,2.90289-.47906,15.215-.49823,40.9978,8.34515,40.9978,8.34515a5.68553,5.68553,0,0,0,.5366-.65145,5.08835,5.08835,0,0,0-.6035-1.98336,2.40094,2.40094,0,0,0-1.48512-1.236c-.48865-.12444-.98689.19158-1.43718.71859a13.59557,13.59557,0,0,0-1.21682,1.79178l-.09591-.02877a4.76041,4.76041,0,0,1,.67064-2.23248,2.76969,2.76969,0,0,1,.9008-.92935,1.62313,1.62313,0,0,1,1.42759-.134,3.29157,3.29157,0,0,1,1.53307,1.89705c.23953.51742.4407,1.0442.65146,1.57121a5.04687,5.04687,0,0,0,.59391-1.945A10.34409,10.34409,0,0,0,382.36856,228.41007Zm-30.3149-73.81327a1.53366,1.53366,0,0,1,0-3.06592A1.53366,1.53366,0,0,1,352.05366,154.5968Zm8.096,16.93942a1.5339,1.5339,0,0,1,0-3.06592A1.5339,1.5339,0,0,1,360.14969,171.53622ZM366.78,186.26257a1.53377,1.53377,0,0,1,0-3.06592A1.53377,1.53377,0,0,1,366.78,186.26257Zm4.417,15.713a1.5339,1.5339,0,0,1,0-3.06592A1.5339,1.5339,0,0,1,371.197,201.97557Zm4.17725,19.89049a1.53873,1.53873,0,0,1,0-3.07551A1.53873,1.53873,0,0,1,375.37427,221.86606ZM299.0221,156.25433a11.91173,11.91173,0,0,0-.60374,2.28043,31.86759,31.86759,0,0,1,1.69589-4.75221Q299.49636,155.0471,299.0221,156.25433Z"/><path d="M408.26646,229.90478s-.48865,15.95253-1.47554,18.40537a9.75908,9.75908,0,0,1-2.45283,3.6886s-20.13-5.89232-22.58285-8.34515l-.019-.37356.04772.01918a9.42425,9.42425,0,0,0,1.26478-4.38824,11.881,11.881,0,0,0-.68023-4.52228c-.01918-.03836-.02877-.06713-.048-.10526a4.61672,4.61672,0,0,0,.41193-.45052,4.92994,4.92994,0,0,0,.8049-1.80115,8.63868,8.63868,0,0,0-.1724-3.87082,15.51275,15.51275,0,0,0-1.41822-3.5258,15.29392,15.29392,0,0,0-2.15576-3.07575C383.23078,224.75,408.26646,229.90478,408.26646,229.90478Z"/><path d="M345.16673,226.83a18.80773,18.80773,0,0,1,.96093,4.5445,18.59515,18.59515,0,0,1-.05661,4.64462,18.60633,18.60633,0,0,1-.96069-4.5445A18.81923,18.81923,0,0,1,345.16673,226.83Z"/><path d="M366.51428,230.71062a18.76335,18.76335,0,0,1,.51134,4.61117,18.55116,18.55116,0,0,1-.51134,4.61116,18.5617,18.5617,0,0,1-.51111-4.61116A18.77415,18.77415,0,0,1,366.51428,230.71062Z"/><path d="M340.7551,235.0067c6.8916,1.16162,13.78554,2.31623,20.65235,3.62615q5.15256.96737,10.29062,2.02594c1.71249.35415,3.42287.72537,5.12835,1.12466.85075.21848,1.70337.41193,2.55271.65122l1.27343.36982c.4262.1331.862.32725,1.291.49192l.131.0503.05942.17637q9.175,27.23647,17.80911,54.64955l8.71871,27.38489c2.94336,9.11636,5.87992,18.23507,8.71053,27.3891.71508,2.28628,1.43109,4.57233,2.11248,6.86984.68654,2.29611,1.39928,4.58287,2.02805,6.89979.31648,1.15858.66432,2.30243.95507,3.47364l.4035,1.77284a13.31917,13.31917,0,0,1,.34152,1.78056c.31976,2.39412.5104,4.78193.72982,7.1716.74946,9.55917,1.2884,19.12489,1.82781,28.69107q1.52,28.70277,2.51575,57.42589l.00655.19134-.13684.11134a13.73559,13.73559,0,0,1-4.6652,2.31482,39.60377,39.60377,0,0,1-4.99829,1.16794,91.79126,91.79126,0,0,1-10.15425,1.08513,199.83283,199.83283,0,0,1-20.3775-.02666l.00374-.10222c6.78541.17146,13.57876.06409,20.34078-.3855a91.23439,91.23439,0,0,0,10.07448-1.19858,38.9356,38.9356,0,0,0,4.897-1.20583,13.08149,13.08149,0,0,0,4.37982-2.22266l-.13029.30222-2.8175-57.40132c-.483-9.56478-.98829-19.13074-1.662-28.67751-.19087-2.38219-.35461-4.77233-.64186-7.13043a12.87365,12.87365,0,0,0-.31508-1.74687l-.374-1.734c-.27275-1.15578-.60865-2.309-.9097-3.46382-.59929-2.31318-1.28536-4.60812-1.94453-6.90867-.654-2.3022-1.34338-4.59526-2.03156-6.88857-2.7513-9.17344-5.61629-18.31437-8.48479-27.45342q-4.367-13.68894-8.91871-27.318-9.13917-27.2463-18.05309-54.56487l.19041.22643c-.38783-.14363-.74993-.31251-1.156-.44281l-1.24115-.36794c-.83063-.23906-1.68162-.43766-2.52161-.65871-1.69494-.4035-3.39083-.81028-5.09583-1.18431q-5.11116-1.13542-10.249-2.16909c-6.84856-1.3787-13.69782-2.76675-20.563-4.07176Z"/><path d="M324.91134,267.72018c.59812,3.24931,1.30758,6.47827,2.07646,9.68945.75812,3.21376,1.5843,6.41068,2.52675,9.5711.93753,3.16066,1.96278,6.29652,3.19036,9.34514a40.46194,40.46194,0,0,0,4.516,8.6766l.07368.10106.01169.12537c1.324,14.29922,2.25237,28.63377,3.51738,42.9386,1.25964,14.3053,2.75669,28.58908,4.16392,42.88059l2.07015,21.44064,1.9988,21.44649,1.95881,21.44953,1.01963,10.71986c.17825,1.78547.35275,3.57164.5628,5.35244.04538.44678.11252.88841.1731,1.33191a9.98905,9.98905,0,0,0,.2297,1.298c.0779.42245.55041.62222.92023.829a9.89335,9.89335,0,0,0,1.24279.491l-.03018.09777a10.01433,10.01433,0,0,1-1.2753-.4559,3.74866,3.74866,0,0,1-.6021-.33145c-.17123-.12889-.41356-.30854-.429-.549a9.48728,9.48728,0,0,1-.28935-1.34127c-.07579-.4435-.15813-.88724-.21825-1.33191-.2697-1.77729-.50362-3.55808-.74127-5.33864L350.31193,455.457c-.80374-7.137-1.5401-14.2805-2.27576-21.4238l-2.05261-21.44439L344.09376,391.13c-1.21121-14.31045-2.29447-28.63166-3.59386-42.93345-1.29332-14.3025-2.90195-28.57693-4.08743-42.88924l.08514.22619a41.23172,41.23172,0,0,1-4.548-8.90818,87.78166,87.78166,0,0,1-3.0837-9.45952,166.12891,166.12891,0,0,1-4.05562-19.42968Z"/><path d="M358.923,248.37518a76.44833,76.44833,0,0,1,10.65085,2.12581c1.74617.47859,3.48556.98783,5.19618,1.59343a37.041,37.041,0,0,1,5.01982,2.11109l-10.48173-2.71739C365.83031,250.53491,362.352,249.58077,358.923,248.37518Z"/><path d="M371.15562,240.89949q3.92346,18.66852,6.71453,37.55925c1.88395,12.58088,3.52416,25.20223,4.77443,37.86475.69,6.32483,1.16677,12.67,1.72887,19.00746l.65637,9.52127.31835,4.76134.23836,4.76625c.723,12.7072.84467,25.43895.8559,38.16393l-.02339-.1476a116.91109,116.91109,0,0,1,4.10684,19.65985,123.1562,123.1562,0,0,1,.82385,20.04159l-.11415,2.50687-.22175,2.50032c-.07813.833-.13848,1.66758-.23134,2.49868l-.3476,2.48581-.35766,2.48324-.422,2.4671-.84373,4.93467L385.43613,471.712l3.035-19.793A156.85618,156.85618,0,0,0,390.739,432.074a124.58058,124.58058,0,0,0-5.18075-39.3887l-.02339-.07462-.00024-.07322c-.04584-12.70673-.22853-25.4172-.96232-38.10615l-.22292-4.7604-.30292-4.756-.62526-9.51121c-.54128-6.33161-.99718-12.67117-1.66664-18.99132-1.24864-12.648-2.68184-25.28176-4.469-37.86873C375.50223,265.95763,373.58529,253.38353,371.15562,240.89949Z"/><path d="M375.11884,241.776a77.11852,77.11852,0,0,1,3.69866,8.525,87.156,87.156,0,0,1,2.7885,8.88011,66.92179,66.92179,0,0,1,1.68045,9.1683,39.1544,39.1544,0,0,1-.06059,9.30069q-.03368-1.16525-.03719-2.31857c.01825-.76911-.106-1.53846-.15181-2.30429l-.07555-1.14923-.14363-1.14454c-.10643-.76163-.1731-1.52606-.31134-2.28254-.48678-3.03365-1.14314-6.03688-1.8912-9.01836-.7387-2.98546-1.636-5.93091-2.53868-8.87778-.44982-1.47436-.93613-2.93843-1.44209-4.396C376.1628,244.68727,375.633,243.23723,375.11884,241.776Z"/><path d="M407.49968,244.0833a20.8044,20.8044,0,0,1,3.58077,4.74918c.99087,1.72348,1.85893,3.51364,2.67178,5.32227a4.3606,4.3606,0,0,0,.614,1.1684,3.674,3.674,0,0,0,1.14665.64771,12.00151,12.00151,0,0,0,2.78288.63321c.4793.05824.957.08865,1.44349.11251a15.26811,15.26811,0,0,1,1.52068.17357c.99134.1497,1.95881.35695,2.92558.552.96583.19461,1.9298.38151,2.89259.5235a11.63562,11.63562,0,0,0,2.82546.15766,1.7702,1.7702,0,0,0,1.10314-.6007c.39976-.3242.81052-.6035,1.2194-.8877.81964-.56,1.64091-1.10221,2.4409-1.6732a19.66608,19.66608,0,0,0,4.32275-3.94193,12.09164,12.09164,0,0,0,2.53634-5.20087,1.80616,1.80616,0,0,0-.12561-1.27787c-.18433-.26994-.694.08537-1.03835.36186a8.56569,8.56569,0,0,0-1.03554,1.02127c-.32982.36094-.66853.71111-.9904,1.07952-.6318.74876-1.23811,1.5263-1.80114,2.32184-.15345.20281-.23134.37754-.43649.63087a4.43877,4.43877,0,0,1-.57613.55672,6.37182,6.37182,0,0,1-1.31764.84513,3.76007,3.76007,0,0,1-1.585.40608,2.29772,2.29772,0,0,1-.4421-.04374l-.22292-.04936c-.08842-.03509-.17661-.07509-.26175-.11813a1.39325,1.39325,0,0,1-.57684-.83835,7.1533,7.1533,0,0,1,.18293-3.14639,2.19014,2.19014,0,0,1,1.00864-1.48185,2.47339,2.47339,0,0,1,.83882-.30385l.71461-.16211c.94969-.22572,1.89307-.47929,2.80557-.78993a7.67873,7.67873,0,0,0,2.44371-1.20606.64518.64518,0,0,0,.23041-.36842.60348.60348,0,0,0,.02058-.16725c-.01263-.01848-.00351-.01193-.01239-.02035a2.2766,2.2766,0,0,0-1.04046-.18175c-.462-.015-.95928.00912-1.46618.00725a4.848,4.848,0,0,1-1.62828-.19438,25.99438,25.99438,0,0,1-2.77259-1.25028c-3.5506-1.78758-6.96926-3.76907-10.387-5.7667l-.10643-.06222-.06082-.117a4.83421,4.83421,0,0,0-2.7644-1.77846,22.75953,22.75953,0,0,0-3.5382-.82268,59.785,59.785,0,0,0-7.31709-.67858l-.00117-.10246a50.98685,50.98685,0,0,1,7.39265.24538,23.33693,23.33693,0,0,1,3.67246.68607,9.1455,9.1455,0,0,1,1.78781.69356,3.54579,3.54579,0,0,1,1.51343,1.396l-.16725-.17894c3.4596,1.89307,6.94119,3.77024,10.44454,5.54612a25.61912,25.61912,0,0,0,2.63131,1.174,3.85619,3.85619,0,0,0,1.2994.13427c.48092-.00047.97144-.02831,1.49705-.01544a5.1645,5.1645,0,0,1,.81683.07321,1.77277,1.77277,0,0,1,.95859.44468,1.14358,1.14358,0,0,1,.30362.63531,1.73916,1.73916,0,0,1-.26784,1.06221,2.085,2.085,0,0,1-.324.37239,8.38086,8.38086,0,0,1-2.84183,1.39133c-.963.31134-1.93378.556-2.9092.77215l-.73286.15485a1.50041,1.50041,0,0,0-.5525.17965,1.28546,1.28546,0,0,0-.60935.89425,6.56562,6.56562,0,0,0-.2662,2.71014.61293.61293,0,0,0,.21029.37707.26092.26092,0,0,1,.07462.03673l.13825.03251a1.532,1.532,0,0,0,.29262.03766,3.18374,3.18374,0,0,0,1.27016-.29286,5.67591,5.67591,0,0,0,1.19975-.70338,3.81428,3.81428,0,0,0,.50783-.45005c.11672-.12164.27532-.386.42713-.57146.61262-.79273,1.25168-1.55062,1.9188-2.29026.34082-.36374.70175-.71227,1.051-1.06829a8.86524,8.86524,0,0,1,1.1097-1.01753,3.52208,3.52208,0,0,1,.66923-.41169,1.04542,1.04542,0,0,1,.44046-.10409.6471.6471,0,0,1,.45356.22479,2.04455,2.04455,0,0,1,.19789,1.58407,13.59831,13.59831,0,0,1-2.61,5.35689,23.02215,23.02215,0,0,1-4.29117,4.13959c-.78268.61146-1.58594,1.19437-2.37354,1.78314-.39017.29613-.785.59063-1.13986.90455a4.78283,4.78283,0,0,1-.59906.50923,1.17431,1.17431,0,0,1-.4138.19719,1.91692,1.91692,0,0,1-.41122.11064,10.53537,10.53537,0,0,1-3.07575-.06245c-.99367-.1331-1.9726-.30971-2.94569-.4924l-2.89914-.54244c-.48-.08632-.95648-.15088-1.41939-.1876-.49941-.03252-1.00748-.07345-1.50782-.14269a12.787,12.787,0,0,1-2.96978-.73145,4.37428,4.37428,0,0,1-1.39577-.83742,2.10893,2.10893,0,0,1-.473-.74783l-.27742-.68864c-.73356-1.82641-1.52-3.63036-2.42921-5.37186a22.74147,22.74147,0,0,0-3.21446-4.91572Z"/><path d="M414.77257,249.29563a15.69953,15.69953,0,0,1,2.41891-2.19412,7.42347,7.42347,0,0,1,1.4456-.84069,2.1644,2.1644,0,0,1,1.80676-.04725l-.44374.29426a21.12767,21.12767,0,0,1-.2407-3.13914,5.09841,5.09841,0,0,1,.08-.83952l.06292-.23391a.40394.40394,0,0,0,.003-.07462,1.89255,1.89255,0,0,0-.0297-.30526c-.07111-.46479-.20094-.96677-.324-1.46244a23.56828,23.56828,0,0,1-.6456-3.0844,3.91216,3.91216,0,0,1,.12374-1.76325,1.3119,1.3119,0,0,1,.86174-.81683,1.999,1.999,0,0,1,1.04022.04655l.15345.03789.10807.14409c1.01636,1.35507,1.9995,2.72348,2.9506,4.13773.236.356.46152.71741.6814,1.10922a2.58115,2.58115,0,0,1,.28069.68724c.06223.22222.09872.44023.13848.65918a13.89618,13.89618,0,0,1,.15953,2.59528,17.64024,17.64024,0,0,1-.23672,2.571,7.10177,7.10177,0,0,1-.33052,1.28139,4.65751,4.65751,0,0,1-.69075,1.14665,21.97786,21.97786,0,0,1-1.7546,1.85775c-.29871.2966-.59882.59134-.88186.89987a3.283,3.283,0,0,0-.72256,1.01589,6.61909,6.61909,0,0,1,1.39928-2.10523,22.67524,22.67524,0,0,0,1.5429-1.9712,4.141,4.141,0,0,0,.55391-1.04256,6.555,6.555,0,0,0,.23041-1.17893,18.18979,18.18979,0,0,0-.16281-4.90871c-.04117-.19415-.08023-.3918-.138-.57379a1.56864,1.56864,0,0,0-.21169-.47064c-.20163-.33777-.43508-.684-.6711-1.02595-.93823-1.37729-1.95226-2.726-2.949-4.07433l.26129.18175a1.08257,1.08257,0,0,0-.4821-.04818c-.08725.026-.1324.062-.20094.21567a3.10833,3.10833,0,0,0-.07251,1.29308,26.9678,26.9678,0,0,0,.54876,2.97586c.109.50737.2276,1.00771.29544,1.56419a2.57528,2.57528,0,0,1,.0124.46479,1.21444,1.21444,0,0,1-.06222.30479l-.04562.13661a4.3631,4.3631,0,0,0-.10362.69309,20.52813,20.52813,0,0,0,.06035,3.0285l.047.60443-.491-.31017a1.68471,1.68471,0,0,0-1.342-.00234,7.02024,7.02024,0,0,0-1.42571.66175A19.97335,19.97335,0,0,0,414.77257,249.29563Z"/><path d="M424.61126,236.64808a22.59,22.59,0,0,1,3.34125,3.82241,13.06575,13.06575,0,0,1,2.17283,4.70637l.08819.67858c.00772.23158-.0117.47017-.01918.70432a2.59347,2.59347,0,0,1-.134.70713,3.361,3.361,0,0,1-.21543.64233c-.32889.76162-.61847,1.541-.9242,2.31692l-1.75343,4.716a30.98263,30.98263,0,0,1,.99578-4.96671c.21918-.81777.49707-1.61846.77987-2.41938a3.03853,3.03853,0,0,0,.16631-.55462,1.70471,1.70471,0,0,0,.08913-.52467c-.00071-.18456.0145-.36654.00584-.55274l-.08514-.56771a15.65873,15.65873,0,0,0-1.84021-4.46357Q426.03428,238.74643,424.61126,236.64808Z"/><path d="M413.1768,238.00292a21.0418,21.0418,0,0,1,4.37561,2.44862,9.84471,9.84471,0,0,1,1.86524,1.745,4.80732,4.80732,0,0,1,1.11507,2.4133l-.76513.0559a4.156,4.156,0,0,0-.81122-2.12511,9.37351,9.37351,0,0,0-1.64489-1.79086A20.87486,20.87486,0,0,0,413.1768,238.00292Z"/><path d="M422.53808,238.15847a3.12237,3.12237,0,0,1-.50713-2.95013l.45847.22643a2.65659,2.65659,0,0,0,.45473,2.41306Z"/><path d="M437.987,242.34006a16.716,16.716,0,0,1-2.22483-.04092,1.89492,1.89492,0,0,1-.225-.05113l-1.24369-2.04881a.51144.51144,0,0,1,.17143-.70237l.87508-.5322a.51143.51143,0,0,1,.703.17166Z"/><path d="M443.35253,251.1749c-.08632-.02877-1.14969.82385-1.88746.83368l-1.37-2.25167-1.8491-3.03715-.94876-1.581a8.20845,8.20845,0,0,0,1.85893-.88139l.55554.92934,1.47554,2.41447Z"/><path d="M443.79323,252.62167a.49428.49428,0,0,1-.10527.09567l-.8718.527.8718-.53637A.46626.46626,0,0,0,443.79323,252.62167Z" fill="#fff"/><path d="M351.685,465.0424q4.47959.6228,8.99169.84233a80.48279,80.48279,0,0,0,9.00455.03579,52.84381,52.84381,0,0,0,8.87941-1.15344,25.51012,25.51012,0,0,0,8.188-3.27013l.13871-.09052.16866.00748c3.43878.15509,6.89534.29029,10.34629.313,3.45235.03321,6.90423-.03556,10.351-.18222a96.10862,96.10862,0,0,0,10.29951-.9111,43.5228,43.5228,0,0,0,5.06636-1.00209,18.72243,18.72243,0,0,0,4.7873-1.91249,17.2306,17.2306,0,0,1-4.70636,2.18781,41.32729,41.32729,0,0,1-5.06075,1.24419,96.73107,96.73107,0,0,1-10.34045,1.218c-3.46334.2311-6.93277.29707-10.40032.30806-3.46873-.00842-6.93254-.04678-10.40337-.26877l.30689-.0828a26.4302,26.4302,0,0,1-8.543,3.33,45.6095,45.6095,0,0,1-9.04876,1.00934,75.20336,75.20336,0,0,1-9.06725-.31438A83.07156,83.07156,0,0,1,351.685,465.0424Z"/><path d="M384.33275,484.543a17.11067,17.11067,0,0,0,1.35086,4.34988s-26.27146.98689-30.535-1.62875c-4.2638-2.61563,0-11.804,0-11.804,6.99406,2.16558,27.97693,3.181,30.28591-3.74615,0,0,.21076.00959.58432.02877.38338.01918.93917.03836,1.63857.06713h.01918c.09567.00959.182.00959.28748.01918a9.88015,9.88015,0,0,0-2.817,3.61188,14.14269,14.14269,0,0,0-1.08256,4.50333A18.913,18.913,0,0,0,384.33275,484.543Z"/><path d="M450.49044,489.87972c-5.40367,1.71507-62.10488.23953-64.80683-.98689-.2683-1.48489-.43111-2.9796-.56537-4.45514a30.9424,30.9424,0,0,1-.03837-4.41678,19.30616,19.30616,0,0,1,.81449-4.29234,14.99458,14.99458,0,0,1,2.06968-3.8996l.00936.00959c5.05888.45988,12.98251.02854,19.62219-.43134a85.45274,85.45274,0,0,0,16.47978-2.31856s13.1549,8.68058,18.80769,7.99077C448.52649,476.38,455.89435,488.15507,450.49044,489.87972Z"/><ellipse cx="379.44964" cy="238.25288" rx="3.06603" ry="7.54221"/><rect x="351.64838" y="237.12059" width="1.02248" height="3.06943" transform="translate(-16.25646 25.95282) rotate(-4.12544)"/><path d="M368.19309,468.05382l-.43228-5.99477,1.01987-.073.43227,5.99477Zm-.86455-11.99048-.43321-5.99571,1.01986-.073.43322,5.99571Zm-.86549-11.99142-.43227-5.9957,1.01986-.073.43228,5.9957Zm-.86455-11.99141-.43227-5.99571,1.01987-.073.43227,5.99571ZM364.733,420.09l-.43228-5.99571,1.01987-.073.43227,5.99571Zm-.86455-11.99142-.43228-5.9957,1.01987-.073.43228,5.99571Zm-.86455-11.99141-.43321-5.99571,1.01987-.073.43321,5.99571Zm-.86549-11.99048-.43227-5.99571,1.01987-.073.43227,5.99571Zm-.86455-11.99142-.43227-5.99571,1.01987-.073.43227,5.99571Zm-.86455-11.99141-.43321-5.99571,1.01987-.073.43321,5.99571Zm-.86548-11.99142-.43228-5.99477,1.01987-.073.43228,5.99477ZM358.6793,336.152l-.43228-5.99571,1.01987-.073.43228,5.99571Zm-.86549-11.99141-.43227-5.99571,1.01987-.073.43227,5.9957Zm-.86455-11.99142-.43227-5.99477,1.01987-.073.43227,5.99477Zm-.86455-11.99048-.43321-5.99571,1.01987-.073.43321,5.99571Zm-.86548-11.99142-.43228-5.9957,1.01987-.073.43228,5.9957Zm-.86455-11.99141-.43228-5.99571,1.01987-.073.43228,5.99571Zm-.86455-11.99048-.43321-5.99571,1.01987-.073.43321,5.99571Zm-.86549-11.99142-.43227-5.9957,1.01987-.073.43227,5.99571Z"/><rect x="368.73446" y="474.00906" width="1.02248" height="3.0685" transform="matrix(0.99741, -0.07196, 0.07196, 0.99741, -33.26379, 27.80462)"/><path d="M361.98685,255.343a33.36331,33.36331,0,0,1,.197,9.31146,34.60009,34.60009,0,0,1-2.2802,9.08736,35.955,35.955,0,0,1-2.058,4.23292c-.41309.66713-.87086,1.30759-1.30384,1.96115-.22526.32093-.42619.6594-.67087.96536l-.77.891c-.5228.58386-1.0021,1.20537-1.55858,1.7539l-1.72138,1.59085a14.112,14.112,0,0,1-1.84676,1.42852q-.95016.67753-1.91436,1.32232.86736-.78208,1.74454-1.53354a13.85924,13.85924,0,0,0,1.67483-1.58407l1.58875-1.66291c.51111-.56841.94291-1.20676,1.41682-1.80442l.6952-.909c.22409-.30807.41239-.6421.62034-.96139.4007-.64911.82572-1.28256,1.2063-1.94149a37.30875,37.30875,0,0,0,1.94875-4.13141,41.72732,41.72732,0,0,0,2.45259-8.81158,44.43232,44.43232,0,0,0,.5076-4.577A37.87622,37.87622,0,0,0,361.98685,255.343Z"/><path d="M300.373,488.8002c7.54212-.17286,15.08424-.24748,22.62612-.374l22.62636-.21356c15.08424-.12631,30.16824-.11462,45.25248-.17871,15.08424.05988,30.16825.0538,45.25249.17614l22.62612.214c7.54212.12748,15.08424.2021,22.62636.37613-7.54212.1738-15.08424.24842-22.62636.37591l-22.62612.214c-15.08424.12234-30.16825.11625-45.25249.17614-15.08424-.0641-30.16824-.0524-45.25248-.17872l-22.62636-.21356C315.4572,489.04745,307.91508,488.97283,300.373,488.8002Z"/><path d="M223.41705,488.79716c1.17846.09567,2.36675.19158,3.56439.25871a74.76955,74.76955,0,0,0,7.60738.048c2.05986-.05755,4.09118-.17263,6.0839-.30667Zm-4.79994-38.87081c0,.048.00936.08631.00936.13427v-.33544A1.4493,1.4493,0,0,0,218.61711,449.92635Z" fill="#fff"/><path d="M218.914,262.01125c-.09567,0-.19158,0-.28748.00935v-5.32694c.00959.05731.00959.12444.01918.182l.32584,3.12347C218.9619,260.66974,218.93313,261.34038,218.914,262.01125Z" fill="none"/><path d="M218.94272,274.93622c-.10526,0-.21076-.00959-.31625-.00959V265.01c.2683.00959.5366.00959.8049.01918q3.66486.11508,7.32972.03836c2.05027-.03836,4.09094-.11509,6.13185-.21076.11485,1.51367.23953,3.04674.41192,4.63737l.68023,6.53418c-2.7209-.29708-5.26964-.49824-7.7606-.68982C223.7333,275.16616,221.30924,275.00335,218.94272,274.93622Z" fill="none"/><path d="M234.09058,252.41091c2.44325.0669,4.88649.08608,7.3295.03836,2.05049-.03836,4.09117-.11508,6.13208-.211.11485,1.5139.23952,3.047.41192,4.63736l.32561,3.12347c-.00936,1.12092-.04772,2.24208-.10526,3.363-2.54851-.2683-4.95338-.46947-7.301-.64187-2.09821-.15345-4.13889-.2683-6.151-.35461a1.298,1.298,0,0,0-.50783-.14363l-.134-.00959c-2.44324-.12467-4.88648-.22034-7.32949-.25871-2.27084-.048-4.54169-.02877-6.8123.02878-.00959-.48865-.03836-.96771-.048-1.45636.10549-.96771.22034-1.97377.32584-2.999.182-1.8491.32561-3.78451.4407-5.72952,2.03108.15345,4.0624.31626,6.09371.38339Q230.42561,252.32447,234.09058,252.41091Z" fill="none"/><path d="M262.6233,244.25734l.53636,5.11642c-2.35692.05731-4.71385.14362-7.08037.2297-1.43717.048-2.88394.14386-4.3307.24936-.79508-.04819-1.57121-.07673-2.35693-.1055a1.29946,1.29946,0,0,0-.50783-.14386l-.134-.00935c-2.44324-.12468-4.88648-.22035-7.32972-.25871-2.27062-.048-4.54146-.02878-6.80248.02853a88.74085,88.74085,0,0,1,.22993-10.223c2.19413.1628,4.37842.345,6.57255.42151,2.44324.08631,4.88648.17263,7.32972.23017,2.44324.0669,4.88625.08608,7.32949.03813,2.05027-.03813,4.09117-.11485,6.13208-.21076C262.32622,241.13387,262.4509,242.65712,262.6233,244.25734Z" fill="none"/><path d="M256.07929,252.181q3.66486.1435,7.32973.22994c2.443.0669,4.88625.08608,7.32949.03836,2.05026-.03836,4.09117-.11508,6.14143-.211.1055,1.5139.23953,3.047.40257,4.63736l.68982,6.53442c-2.72114-.29707-5.26964-.50783-7.77042-.68982-2.48137-.18222-4.90567-.33543-7.28178-.40256a64.05935,64.05935,0,0,0-7.0516.048c-2.15576.134-4.34029.37356-6.56318.527-.03836-.78572-.0669-1.5808-.08608-2.36652.11485-.96771.22035-1.97377.32561-2.999.182-1.77238.31625-3.61212.43134-5.47081.72794-.02877,1.45635-.05754,2.17494-.0959C253.46365,252.05629,254.77615,252.133,256.07929,252.181Z" fill="none"/><path d="M278.48016,390.686c-1.16911-.0669-2.338-.12445-3.48768-.15322a61.98454,61.98454,0,0,0-7.06142.03836c-2.14594.134-4.33047.37357-6.55336.527a89.81785,89.81785,0,0,1,.20117-11.12382c2.18453.163,4.37865.345,6.57277.42175,2.44324.08608,4.88625.17239,7.32949.2297,2.44324.06714,4.88649.08632,7.32973.02877,2.05026-.02877,4.09094-.10526,6.13184-.20116.11486,1.51389.23953,3.03738.41193,4.62777l.32584,3.13306c-.00959.67063-.02877,1.33167-.05754,2.00254q-3.40627.086-6.81207.22035C281.37368,390.48482,279.92669,390.58072,278.48016,390.686Z" fill="none"/><path d="M297.46984,380.39607c.9677.03813,1.93541.0669,2.90312.09567v9.75355c-.96771-.03836-1.93542-.05754-2.90312-.07672q-3.39153-.07158-6.80248.01918c-.01918-.47906-.04795-.96748-.05755-1.44653.11486-.9773.22035-1.97378.32585-2.999.182-1.85869.3352-3.78451.45028-5.7391C293.417,380.16589,295.43875,380.31934,297.46984,380.39607Z" fill="none"/><path d="M297.46984,393.28244c.9677-.019,1.93541-.04772,2.90312-.07649v10.61576c-1.16888-.09567-2.309-.182-3.43972-.26806-2.491-.182-4.90543-.33544-7.28154-.40234a61.91558,61.91558,0,0,0-7.06142.04772c-2.14617.12468-4.33047.36421-6.55337.51742a88.6046,88.6046,0,0,1,.1724-10.81716c.90057-.01918,1.79179-.0669,2.67318-.10526,1.3125.08608,2.62523.17239,3.92837.22034,2.443.08609,4.88625.1724,7.32949.22994C292.58359,393.31145,295.02683,393.33063,297.46984,393.28244Z" fill="none"/><path d="M218.90436,461.165a2.693,2.693,0,0,0-.27789.00959v-11.114A91.40384,91.40384,0,0,1,218.90436,461.165Z" fill="none"/><path d="M219.43137,488.4905c1.3125.07673,2.64441.19158,3.98568.30666h-4.79058V476.52365h.07672a86.7968,86.7968,0,0,1,.15345,11.38253.53887.53887,0,0,0,.5076.57473Z" fill="none"/><path d="M218.94272,474.09959c-.10526,0-.21076-.00959-.31625-.00959v-9.91636c.2683.00936.5366.00936.8049.01918,2.44324.0669,4.88648.08608,7.32972.02854,2.05027-.02854,4.09094-.10526,6.13185-.20117.11485,1.5139.23953,3.03715.41192,4.62777l.32585,3.13306c-.00959.67064-.03836,1.33168-.05755,2.00231q-3.40626.08633-6.81207.22035c-1.43717.04819-2.88417.14386-4.3307.24935C221.25193,474.1859,220.09241,474.12836,218.94272,474.09959Z" fill="none"/><path d="M247.96408,455.905l.54619,5.25045q-3.53574.08632-7.09019.22035c-1.12092.03836-2.25144.11509-3.37259.19158-1.50407-.09567-2.9892-.1724-4.44555-.22035H233.506c-2.25143-.10526-4.4935-.19158-6.74494-.2297-2.27084-.04819-4.5321-.03837-6.80271.01894a90.965,90.965,0,0,1,.22994-10.34769c2.18453.17263,4.37865.345,6.57277.42175q3.66452.1435,7.32949.22994,3.66487.11508,7.3295.03836c2.05049-.03836,4.09117-.11509,6.13208-.211C247.667,452.78151,247.79168,454.31459,247.96408,455.905Z" fill="none"/><path d="M240.88347,487.12046c-2.491-.18222-4.90543-.33543-7.28153-.40257a61.966,61.966,0,0,0-7.06143.048c-2.14617.12467-4.33047.37379-6.55336.51742a88.41743,88.41743,0,0,1,.1724-10.80758c.90057-.02853,1.782-.07672,2.67318-.11485,1.31249.09567,2.61563.1724,3.92836.22035,2.443.08631,4.88625.17239,7.32949.22994,2.44325.0669,4.88649.08608,7.3295.03836,2.05049-.03836,4.09117-.11509,6.13208-.211.11485,1.5139.23952,3.03738.41192,4.63736l.68022,6.52483C245.93276,487.5132,243.38426,487.30245,240.88347,487.12046Z" fill="none"/><path d="M241.42008,463.96265c2.44324.08631,4.88648.17263,7.32972.23017,2.44324.0669,4.88625.08608,7.32949.02854,2.05027-.02854,4.09117-.10526,6.13208-.20117.11485,1.5139.23953,3.03715.41193,4.62777l.68022,6.53442c-2.71154-.28748-5.26-.49824-7.76083-.68982-2.09822-.14385-4.13912-.2683-6.151-.345a1.29929,1.29929,0,0,0-.50783-.14386l-.134-.00936c-2.44324-.12467-4.88648-.22034-7.32972-.25871q-3.40593-.07193-6.80248.02854c-.01919-.48841-.048-.97706-.05755-1.45612.11485-.9773.22035-1.97377.32585-2.999.182-1.81074.32561-3.6982.4311-5.60507.37356-.00936.73777-.02854,1.11133-.04772C238.09544,463.78066,239.753,463.90534,241.42008,463.96265Z" fill="none"/><path d="M270.25945,88.41034l.33543,3.12323c-.01918,1.12115-.048,2.24207-.11508,3.363-2.53892-.2683-4.944-.46946-7.301-.64186-2.48137-.182-4.90543-.3352-7.28153-.40233a63.96717,63.96717,0,0,0-7.05184.048c-2.15576.134-4.34029.37356-6.56295.52678a89.89211,89.89211,0,0,1,.20117-11.13318c2.19412.17239,4.388.34479,6.58213.42151q3.66486.14351,7.32972.22994c2.44325.06713,4.88625.08631,7.32949.03836,2.04091-.03836,4.08159-.11509,6.13209-.21076C269.96238,85.28664,270.09664,86.81972,270.25945,88.41034Z" fill="none"/><path d="M276.0561,81.2626c-1.85893-.12444-3.69843-.22994-5.49958-.27766-1.59062-.07672-3.15224-.0959-4.71409-.05754-.709-.01918-1.4084-.048-2.1174-.05755-2.27061-.048-4.53186-.02877-6.80248.02878a91.11323,91.11323,0,0,1,.22035-10.482c2.19412.17263,4.388.35462,6.58213.42175,2.44325.09567,4.88649.182,7.32973.23953,2.443.06714,4.88625.08632,7.32949.02877,2.04067-.02877,4.09117-.11508,6.13185-.20116.10549,1.51366.23953,3.03715.40256,4.62754l.56514,5.37513q-3.54976.08631-7.09955.22994C277.60812,81.16693,276.832,81.21465,276.0561,81.2626Z" fill="none"/><path d="M271.61031,94.4271c-.03836-.78549-.07649-1.5808-.08632-2.36652.1055-.96771.211-1.97354.31626-2.99879.19181-1.8491.33543-3.78451.45028-5.72975h.02877c2.02173.15345,4.04322.31626,6.065.38339q3.66486.14351,7.32949.22994c2.44324.06713,4.88648.08631,7.32973.03836,2.04067-.03836,4.09117-.11509,6.13184-.21076.1055,1.51367.23953,3.04675.40257,4.63737l.68958,6.53418c-2.7209-.29708-5.26963-.50783-7.76059-.68982-2.4912-.182-4.91526-.3352-7.29137-.40233a63.97959,63.97959,0,0,0-7.0516.048C276.00814,94.03435,273.82361,94.27388,271.61031,94.4271Z" fill="none"/><path d="M300.373,81.12856c-2.44324-.12467-4.88625-.22034-7.32949-.25871-2.35716-.048-4.7045-.02877-7.06143.02878.18222-1.49472.35462-3.07575.51742-4.70427.22035-2.1464.39274-4.38824.50783-6.63991v-.0669A1.229,1.229,0,0,0,285.848,68.2609h-.13427c-2.443-.12444-4.88625-.22034-7.32949-.26806-2.44324-.048-4.88648-.02877-7.32949.03836-2.44324.05731-4.88648.14362-7.32973.2297-2.44324.08632-4.88624.29708-7.32949.47906l-.13426.00983a.749.749,0,0,0-.68023.74712v.05754a91.85228,91.85228,0,0,1,.27789,11.36336c-2.26125.05731-4.53186.134-6.79312.22035-2.443.07649-4.88625.28748-7.32949.47905l-.13427.00959a.73117.73117,0,0,0-.68022.72818v.06713a89.59529,89.59529,0,0,1,.22994,12.6279.53065.53065,0,0,0,.50782.56514l.07673.00959c2.472.14386,4.99174.42152,7.54048.56537a72.12618,72.12618,0,0,0,7.60738.048c2.51014-.06714,4.98216-.22035,7.37745-.40234,2.15576-.163,4.254-.35461,6.23734-.60373a.5349.5349,0,0,0,.48865.38315l.06713.00959c2.47178.14386,4.99174.42152,7.54984.56537a71.9297,71.9297,0,0,0,7.59779.048c2.52-.06714,4.98215-.22035,7.37744-.40234,2.35716-.18222,4.65655-.38338,6.79313-.68046V313.328c-1.37963-.05754-2.75926-.10549-4.14848-.163-1.59063-.048-3.181-.1055-4.78123-.15322v-.20117l-5.72951-.02877-5.7391.02877v.20117c-1.59039.04772-3.181.09567-4.7714.15322-2.71131.0959-5.42285.21075-8.1248.37356-2.71131.14386-5.42285.32584-8.1248.56537,2.702.23953,5.41349.42175,8.1248.56537,2.702.16281,5.41349.27789,8.1248.37357,1.59039.048,3.181.10549,4.7714.15321v.2014l5.25045.02877a17.54672,17.54672,0,0,0-.55555,2.33775,24.89483,24.89483,0,0,0-.28748,3.66966,23.52862,23.52862,0,0,0,.28748,3.65983,14.689,14.689,0,0,0,1.0442,3.66966,14.68,14.68,0,0,0,1.04443-3.66966,23.89688,23.89688,0,0,0-.00959-7.32949,17.52969,17.52969,0,0,0-.54619-2.33775l5.24086-.02877v-.2014c1.60022-.04772,3.1906-.10526,4.78123-.15321,1.38922-.05731,2.76885-.10527,4.14848-.16281v62.83306c-.96771.029-1.93542.05755-2.90312.09591-2.10781.07672-4.22521.23953-6.34261.41216a1.184,1.184,0,0,0-.85285-.40257l-.134-.00959c-2.44324-.12444-4.88649-.22035-7.32949-.25871-2.44324-.05755-4.88649-.03836-7.32973.02877-2.44324.05754-4.88625.14386-7.32949.22994-2.44324.08631-4.88648.29707-7.32972.47906l-.12445.00959a.74021.74021,0,0,0-.68022.73776v.06714a90.985,90.985,0,0,1,.22994,12.61831.54487.54487,0,0,0,.50783.575h.0669c2.472.15321,5.00133.4311,7.55007.57473,2.13658.12467,4.28275.14385,6.381.08631a86.79156,86.79156,0,0,1,.15345,11.3823.539.539,0,0,0,.5076.575l.06713.00959c2.472.14385,5.00134.42151,7.55007.56537a74.73879,74.73879,0,0,0,7.60739.04772c2.51014-.0669,4.97256-.22035,7.37744-.40234q1.193-.08631,2.35693-.20116v83.86388H240.67272c.4311-.02877.86244-.06713,1.29355-.0959,2.3857-.182,4.72344-.39274,6.88879-.68982.22994-1.897.46947-3.94755.68982-6.08412.182-1.77238.31625-3.62148.43134-5.48016,2.261-.07673,4.48391-.2014,6.64926-.36421,2.3857-.19158,4.72345-.40257,6.8888-.68981.22994-1.89705.46946-3.94755.68981-6.08413.22035-2.14617.38339-4.37842.50783-6.63968v-.05754a1.22386,1.22386,0,0,0-1.16887-1.22642l-.134-.00959c-2.44325-.12444-4.88649-.22035-7.32973-.25847-2.34734-.05755-4.69467-.03837-7.042.02853.1724-1.46571.34479-2.99879.5076-4.58941.211-2.13658.38338-4.37842.49824-6.63008v-.0669a1.2221,1.2221,0,0,0-1.15929-1.22665l-.134-.00936c-2.44324-.11508-4.88648-.211-7.32972-.25871-2.443-.048-4.88625-.02877-7.3295.03836q-3.66486.086-7.32949.22971c-2.44324.08631-4.88648.29707-7.32972.47906l-.12468.00982h-.00935a.76378.76378,0,0,0-.67087.6035V277.36963c.44069-.00935.872-.02853,1.30314-.04771,2.51014-.06714,4.97256-.22035,7.36785-.393,2.39529-.19158,4.73327-.40234,6.89839-.68982.23017-1.89705.4697-3.94731.69-6.09348.17239-1.77261.316-3.61212.4311-5.471,2.25143-.07649,4.48392-.21052,6.64927-.37356,2.14617-.1628,4.254-.35438,6.23734-.60373a.52326.52326,0,0,0,.47906.38338l.06713.00959c2.48137.14363,5.00134.42152,7.54984.56514a72.06567,72.06567,0,0,0,7.60738.04819c2.51038-.06714,4.9728-.22058,7.37744-.40257,2.38594-.182,4.72368-.39274,6.889-.68022.22994-1.90665.46947-3.94732.68982-6.09372.22035-2.14617.39274-4.37842.50783-6.63968v-.05754a1.23691,1.23691,0,0,0-1.16888-1.22642l-.12467-.00935c-2.44324-.12468-4.89584-.22035-7.33908-.25871-2.33775-.048-4.68532-.02878-7.02307.02853.16281-1.418.33544-2.9127.48865-4.45514.22035-2.14617.38339-4.37865.50783-6.63968v-.05754a1.22385,1.22385,0,0,0-1.16887-1.22641l-.134-.0096c-2.44325-.12444-4.88649-.22034-7.32973-.25871-2.44324-.0573-4.88625-.03812-7.32949.02878-2.44324.05754-4.88648.14362-7.32972.23953-2.443.07672-4.88625.28748-7.3295.47905l-.12467.00959a.73133.73133,0,0,0-.68023.72818v.06713a95.6845,95.6845,0,0,1,.28748,11.114q-3.40626.08633-6.81207.22035c-2.11763.06714-4.235.23953-6.35242.40257a1.23868,1.23868,0,0,0-.84327-.40257l-.134-.00935c-.2683-.00983-.5366-.029-.8049-.03837V144.69963c1.64816.08608,3.29609.15321,4.95361.22035,1.59039.04772,3.181.10526,4.781.15321v.19158l5.24087.03836a18.75923,18.75923,0,0,0-.54619,2.33775,23.89543,23.89543,0,0,0-.0096,7.32949,14.61205,14.61205,0,0,0,1.04443,3.66006,14.61091,14.61091,0,0,0,1.0442-3.66006,23.50247,23.50247,0,0,0,0-7.32949,18.71719,18.71719,0,0,0-.546-2.33775l5.24087-.03836v-.20117q2.38559-.07193,4.77139-.14362c2.71155-.1055,5.42286-.22035,8.12481-.3738,2.71154-.15321,5.42285-.32561,8.1248-.56514-2.702-.23953-5.41326-.42175-8.1248-.56537-2.70195-.163-5.41326-.2683-8.12481-.3738-1.59038-.04795-3.181-.10526-4.77139-.15321v-.20117l-5.73911-.03836-5.72951.03836v.20117c-1.6.048-3.1906.0959-4.781.14362-1.65752.06714-3.30545.13427-4.95361.22035V59.341H300.373Z" fill="none"/><circle cx="365.10629" cy="116.45347" r="3.09167"/><path d="M381.73629,243.28l-.048-.00959c.00959-.08631.019-.182.02877-.2683Z" fill="#fff"/></svg>