<svg id="Layer_1" data-name="Layer 1" xmlns="http://www.w3.org/2000/svg" viewBox="0 0 700 550"><title>Artboard 1 copy 38</title><path d="M380.07648,255.76189q-2.81681.60386-5.66238,1.09215c.18222,4.647.32584,9.29391.46946,13.94086a4.79918,4.79918,0,0,0,3.6313-.49824,14.58239,14.58239,0,0,0,3.42054-2.63482,42.20554,42.20554,0,0,0,2.97961-3.26732c.91016-1.10174,1.82056-2.22266,2.71154-3.37259v-.00959c.134-3.64088.27789-6.151.44069-7.26235Zm-1.26455,15.18622a5.38187,5.38187,0,0,1-2.29938.4407,4.13285,4.13285,0,0,1-1.629-.45029c.09591,2.97961.182,5.96905.27789,8.95848l.60351,24.12528c.38338,16.08657.59414,32.17337.9008,48.26017.15322,16.09638.39274,32.18318.47906,48.27l.08631,24.14447c-.03836,8.04807-.00982,16.0868-.10549,24.13487a22.50647,22.50647,0,0,0,4.781-2.63481,18.10951,18.10951,0,0,0,3.88041-3.82288s.46947-145.27919,1.82992-181.26583a25.06728,25.06728,0,0,1-5.0397,7.20505A12.13517,12.13517,0,0,1,378.81193,270.94811ZM375.73642,400.5812c-.38339-16.0868-.60374-32.18319-.90057-48.27-.15345-16.0868-.40257-32.17337-.47906-48.27l-.08632-24.13488c.03836-7.6841.00959-15.35838.09567-23.04249-26.7601,4.57959-55.41725,1.57121-70.96745-1.102l-4.91526-.91016s1.70548,176.10169,10.271,188.65286c8.55614,12.561,33.09335,5.33677,33.09335,5.33677s21.10731,5.78706,35.27788-.00959c-.32585-8.03848-.527-16.0772-.79531-24.12528Zm-35.39274,37.34733c-.345-3.66007-.62291-7.32013-.872-10.98-.45029-7.32972-.76654-14.65921-1.054-21.99853-.546-14.66857-.78549-29.33738-1.10174-44.00618q-.2586-22.00322-.65145-43.9966c-.14386-7.32972-.25871-14.6688-.78573-21.95993-.06713-.9104-.15321-1.82056-.2683-2.72113-.0573-.44093-.12444-.891-.21075-1.32232-.09591-.41193-.20117-.91017-.41193-1.01566-1.49471-1.10174-2.89352-2.28021-4.30193-3.46826-2.80744-2.36652-5.53793-4.81935-8.23988-7.30072,2.82639,2.33775,5.672,4.65631,8.54631,6.92716,1.43718,1.13051,2.89353,2.25143,4.38825,3.27668a1.24807,1.24807,0,0,1,.345.33543,2.12066,2.12066,0,0,1,.1724.37356,5.32178,5.32178,0,0,1,.22034.69941c.11509.46947.20117.91975.27789,1.37963.15322.92.26831,1.83974.37357,2.7499.71858,7.3295.98688,14.66858,1.30314,21.9983.55578,14.6784.74736,29.3472,1.0732,44.01578q.273,22.0032.68022,43.99682c.11486,7.33908.27789,14.66858.546,21.98871.1055,3.66942.24912,7.32949.45052,10.98956.10526,1.82991.22971,3.65983.39274,5.48039.15322,1.82992.32585,3.65048.63228,5.46121A97.11083,97.11083,0,0,1,340.34368,437.92853Z"/><path d="M374.37573,255.76189c.01919.3642.02878.72818.03837,1.09215a.08477.08477,0,0,1-.048.00982C374.36614,256.49966,374.37573,256.12609,374.37573,255.76189Z" fill="#fff"/><path d="M387.71286,260.90708a1.78533,1.78533,0,0,1-.0959.19158.21124.21124,0,0,1,.00959-.07673v-.00959C387.65532,260.97422,387.68409,260.94521,387.71286,260.90708Z" fill="#fff"/><path d="M380.05308,255.67557a108.37032,108.37032,0,0,0,15.42085-4.711,80.37224,80.37224,0,0,0,14.3039-7.29487l-.22059.46268-3.19878-26.9456-3.08136-26.95893-.1069-.93706.96068.077a74.88891,74.88891,0,0,0,15.44284-.30737,41.98552,41.98552,0,0,0,7.49533-1.60957,19.5651,19.5651,0,0,0,6.62658-3.46264,10.42215,10.42215,0,0,0,3.69539-6.12343,16.27083,16.27083,0,0,0-.53731-7.41089,79.65828,79.65828,0,0,0-5.6584-14.42881,228.84061,228.84061,0,0,0-15.93241-26.86209q-4.407-6.462-9.14-12.69409c-1.57986-2.07366-3.18639-4.1279-4.86005-6.12366q-1.25366-1.49823-2.56441-2.94148a18.20834,18.20834,0,0,0-2.77774-2.60114l.09146.03111a64.20165,64.20165,0,0,0-11.69738-.52724,55.80037,55.80037,0,0,0-5.8329.54245,48.30581,48.30581,0,0,0-5.72016,1.204l-.18619.04865-.14971-.11625-4.01141-3.11014.13146.06948a93.31667,93.31667,0,0,0-32.79745-2.79435l-2.05517.19812-2.04208.30152-2.04114.30128-2.02594.41427a58.01532,58.01532,0,0,0-7.96433,2.05728,48.58042,48.58042,0,0,0-14.5039,7.4158,26.71348,26.71348,0,0,0-5.5487,5.85887c-1.63857,2.19061-3.16206,4.49889-4.64742,6.82517-2.96417,4.66239-5.787,9.42794-8.51825,14.24565q-4.09292,7.22939-7.98141,14.57454c-2.59061,4.8935-5.14028,9.81694-7.49066,14.80892-.604,1.2449-1.135,2.50289-1.68465,3.75761l-.69754,1.86641c-.19485.64163-.3759,1.30408-.55016,1.96676-.69426,2.65844-1.29776,5.35922-1.86477,8.06211-1.12373,5.41045-2.07226,10.86254-2.76043,16.33428-.34433,2.7347-.61614,5.47759-.73871,8.21533a32.94477,32.94477,0,0,0,.43158,8.06585c.27274,1.24092.79975,2.53307,1.61682,2.93283a1.59094,1.59094,0,0,0,.31368.11976l.48584.08468.97145.17193c.67274.05731,1.33986.13754,2.018.1773a75.74967,75.74967,0,0,0,8.23451-.07415c5.50823-.31391,11.03026-.86642,16.50176-1.61214l1.0166-.15228c.16818-.0262.34689-.05356.46736-.08l.10128-.01894.051-.00889c-.2407-.04445.79811-.04912.75788.27368a.79125.79125,0,0,1,.11228.41216c.00374.07368.00164.12561-.00023.18081a21.1705,21.1705,0,0,1-.3062,2.13962l-.78034,4.098c-.53286,2.72347-1.06431,5.44367-1.55857,8.17-.49567,2.72581-.95251,5.4577-1.34174,8.19638a64.34845,64.34845,0,0,0-.74829,8.23778,17.2826,17.2826,0,0,0,.09871,2.04324,4.79292,4.79292,0,0,0,.52911,1.8767,1.14205,1.14205,0,0,0,.6973.51158c.31322.11859.64467.21754.97309.31695.66058.19438,1.33051.368,2.00161.535,2.68768.66409,5.40788,1.21356,8.13369,1.723l-.03111.18082c-2.74078-.4421-5.47595-.92373-8.19217-1.52349-.67882-.15134-1.35647-.30877-2.03178-.48935-.33778-.09333-.67415-.18409-1.01309-.30269a1.64452,1.64452,0,0,1-.94969-.67928,5.22818,5.22818,0,0,1-.65847-2.07834,17.84535,17.84535,0,0,1-.15509-2.10851,104.83246,104.83246,0,0,1,1.74594-16.60235c.44888-2.74218.93472-5.47735,1.42057-8.20877l.70665-4.09188c.10293-.66782.2248-1.38711.25474-1.98219l-.00094-.07906c.01591.00116-.04444-.07065.06386.15882-.05941.27789.92724.27368.64607.24374l-.07649.018-.153.03556c-.21754.05193-.38175.077-.55578.10783l-1.03835.1738q-8.2641,1.29087-16.603,1.851a77.12392,77.12392,0,0,1-8.40316.16164c-.70665-.03369-1.41939-.11018-2.12932-.16515l-1.07976-.178-.53987-.09052a3.22237,3.22237,0,0,1-.66034-.23672,4.028,4.028,0,0,1-1.75413-1.85144,9.36607,9.36607,0,0,1-.75906-2.14313,34.386,34.386,0,0,1-.56139-8.50678c.09637-2.80768.34362-5.59455.66315-8.36854.65987-5.54543,1.621-11.03611,2.7361-16.49475.56607-2.72909,1.16677-5.44741,1.86828-8.16012.17707-.67906.36-1.35577.56654-2.04208l.75274-2.03412c.56-1.28841,1.10618-2.58781,1.71085-3.84136,4.76532-10.0843,10.04829-19.85633,15.582-29.50486,2.77073-4.82052,5.63384-9.59074,8.65158-14.27629,1.51437-2.34032,3.06335-4.66006,4.76111-6.9026a28.45308,28.45308,0,0,1,5.894-6.141,49.29333,49.29333,0,0,1,15.07371-7.50469,59.50676,59.50676,0,0,1,8.16691-1.99951l2.05681-.39274,2.08-.28046,2.07927-.27953,2.08979-.1752a93.99446,93.99446,0,0,1,33.15932,3.26311l.06923.01988.06246.04983,3.96883,3.16393-.33566-.0676a50.26567,50.26567,0,0,1,5.82471-1.14806,56.49039,56.49039,0,0,1,5.90285-.51952,64.78407,64.78407,0,0,1,11.82206.59367l.05824.00842.03345.02269a17.95407,17.95407,0,0,1,2.92254,2.738q1.31261,1.46383,2.566,2.97282c1.67086,2.01237,3.31177,4.047,4.90426,6.11922q4.78836,6.20729,9.24456,12.65994a242.86547,242.86547,0,0,1,16.40679,26.73274,80.90171,80.90171,0,0,1,5.99033,14.58951,17.1883,17.1883,0,0,1,.65309,8.06164,11.98668,11.98668,0,0,1-4.18123,7.03149,21.11992,21.11992,0,0,1-7.137,3.79433,43.60226,43.60226,0,0,1-7.784,1.71647,75.3061,75.3061,0,0,1-15.81616.22292l.85356-.85987,2.9085,26.97788,2.79107,26.991.03134.30339-.25192.15976a75.31391,75.31391,0,0,1-14.61243,7.049,108.7668,108.7668,0,0,1-15.59886,4.3176Z"/><path d="M374.37316,162.46328a92.833,92.833,0,0,0,6.28764,8.09626,99.08036,99.08036,0,0,0,7.0792,7.37861,75.92364,75.92364,0,0,0,7.89416,6.42331,53.86811,53.86811,0,0,0,8.78935,4.94192l-.753,1.673a55.44961,55.44961,0,0,1-8.84736-5.50332,77.09781,77.09781,0,0,1-7.72364-6.8778,99.80639,99.80639,0,0,1-6.79242-7.74375A93.06747,93.06747,0,0,1,374.37316,162.46328Z"/><path d="M291.62879,154.189a102.69647,102.69647,0,0,1,4.1955,15.48821,129.13277,129.13277,0,0,1,2.05518,15.94645c.06479,1.34034.16982,2.67856.19649,4.0203l.06058,4.02591c.022,1.3415-.07719,2.68394-.11017,4.025-.04164,1.34127-.08679,2.68207-.2407,4.01773a85.43913,85.43913,0,0,1-2.73283,15.81849q.20631-1.99962.46385-3.97819l.24491-1.97985.1338-1.99272.31017-3.97.15088-3.97749c.12865-5.29911.09122-10.6029-.30667-15.89031-.32982-5.28975-.89636-10.56757-1.63179-15.82832-.39555-2.62593-.789-5.2556-1.2622-7.87451C292.73123,159.40928,292.1806,156.80511,291.62879,154.189Z"/><path d="M287.8099,133.4625c7.1344-1.2601,14.33851-2.12558,21.55947-2.77q10.836-.927,21.72766-1.087c7.2558-.146,14.51769.12046,21.763.5787a203.26129,203.26129,0,0,1,21.60813,2.71155l-.62268.33917a64.80057,64.80057,0,0,1,4.55269-8.183,35.33545,35.33545,0,0,1,2.82592-3.73563,9.40524,9.40524,0,0,1,3.70615-2.79294,9.72391,9.72391,0,0,0-3.42709,3.02733,34.85461,34.85461,0,0,0-2.5471,3.84649,78.9974,78.9974,0,0,0-4.05515,8.293l-.16374.39111-.45917-.0517c-3.58826-.40467-7.1447-1-10.74629-1.25636-1.7967-.156-3.58591-.378-5.38566-.49332l-5.39875-.3469c-1.79647-.15134-3.60253-.17169-5.4032-.26385-1.80208-.07252-3.603-.16772-5.40765-.17684l-5.41069-.11322-5.41326-.00047q-10.82687.0572-21.65654.58666C302.238,132.32006,295.021,132.79093,287.8099,133.4625Z"/><path d="M420.5585,160.77792c-1.85354-2.43061-3.91551-4.6935-5.95875-6.96622q-3.07224-3.40523-6.2191-6.7433c-4.15526-4.48743-8.40152-8.893-12.60895-13.32988l-.0655-.069-.03157-.10105a45.36343,45.36343,0,0,0-3.42686-8.576c-.65964-1.40091-1.56138-2.66359-2.35646-3.99082-.92115-1.24162-1.78477-2.5319-2.8168-3.69071a46.3138,46.3138,0,0,0-6.65886-6.47781,43.71938,43.71938,0,0,0-7.835-4.97233l-.066-.03228-.02877-.06011a45.27379,45.27379,0,0,1-1.86267-4.46076,24.12061,24.12061,0,0,1-.70853-2.32161,11.19124,11.19124,0,0,1-.37192-2.43271l.032.12655c-.40888-.71859-.85566-1.42806-1.331-2.10524a8.76985,8.76985,0,0,0-1.59577-1.81284,1.29619,1.29619,0,0,0-.43812-.23649.63892.63892,0,0,1-.09053-.01824c-.00772-.00889-.15836-.01357-.229-.03345a.79255.79255,0,0,1-.42783-.31883,1.972,1.972,0,0,1-.12444-1.49121,3.09881,3.09881,0,0,1,1.71038-2.15108,3.30288,3.30288,0,0,1,2.74289.20819,11.84239,11.84239,0,0,1,2.17634,1.44255c1.33776,1.07718,2.47015,2.39646,3.63551,3.52369a4.37706,4.37706,0,0,0,.437.36117,1.58281,1.58281,0,0,0,.23041.12421c-.08889.05286.00912.00327.04608-.17193a3.00932,3.00932,0,0,0,.09263-.53871c.08094-.79741.08819-1.64629.1083-2.47645.025-1.67179.00959-3.35037-.01216-5.02824-.0414-3.356-.09965-6.71663-.19251-10.07261l-.00585-.21052.13918-.13287a4.38223,4.38223,0,0,1,1.47273-.94455,2.67007,2.67007,0,0,1,1.83529-.05894A3.37758,3.37758,0,0,1,381.188,75.617c.16538.23064.3228.46713.46853.706l.36748.7394-.44795-.27648a5.37937,5.37937,0,0,1,1.78314.28841,5.80353,5.80353,0,0,1,1.57916.80491,5.99994,5.99994,0,0,1,1.26782,1.22477,7.66727,7.66727,0,0,1,.8987,1.49145L386.7,80.36194a4.57252,4.57252,0,0,1,2.07085.41894,4.8281,4.8281,0,0,1,1.66056,1.25308,6.21873,6.21873,0,0,1,1.01051,1.77846c.1179.31648.19462.644.2924.96513l.1759.98315-.26034-.27439a5.24587,5.24587,0,0,1,3.27855,3.894,21.09274,21.09274,0,0,1,.45917,5.01934c-.00164,3.3375-.26128,6.65862-.59438,9.96782l-.09122-.00819c.218-3.315.3097-6.64154.23882-9.95308a20.69482,20.69482,0,0,0-.54034-4.87479,6.09257,6.09257,0,0,0-1.05519-2.1181,3.63768,3.63768,0,0,0-1.81939-1.28746l-.21707-.05731-.04351-.21731-.18339-.91507c-.09731-.29216-.17286-.59321-.28561-.87719a5.52444,5.52444,0,0,0-.91741-1.54711,4.07509,4.07509,0,0,0-1.418-1.02572,3.84684,3.84684,0,0,0-1.68606-.31765l-.27719.0152-.12818-.24888a6.84735,6.84735,0,0,0-.82315-1.30478,5.13526,5.13526,0,0,0-1.11086-1.0318,4.91555,4.91555,0,0,0-1.35647-.65683,4.79357,4.79357,0,0,0-1.45191-.23485l-.3076.00467-.14082-.28116-.32631-.65052c-.12491-.20093-.25707-.39648-.39087-.58619a2.472,2.472,0,0,0-1.00817-.77285,1.73057,1.73057,0,0,0-1.20654.0552,3.50211,3.50211,0,0,0-1.124.723l.13333-.34292c.09825,3.36417.18994,6.72552.2131,10.09226.00655,1.68372.00678,3.367-.03368,5.05607-.02924.84911-.04071,1.68372-.13684,2.55856a3.80348,3.80348,0,0,1-.1317.69941,1.67569,1.67569,0,0,1-.18035.40116.85535.85535,0,0,1-.51508.36982,1.18426,1.18426,0,0,1-.931-.26292,5.21235,5.21235,0,0,1-.53122-.4442c-1.23647-1.221-2.29073-2.47786-3.5679-3.52533a11.25888,11.25888,0,0,0-1.98922-1.3794,2.56443,2.56443,0,0,0-2.12207-.23672,2.40283,2.40283,0,0,0-1.33308,1.64372,1.43816,1.43816,0,0,0,.00935.96279c.087.08211-.05076.03345.3614.11181a1.88542,1.88542,0,0,1,.66058.35719,9.25124,9.25124,0,0,1,1.6926,1.98454c.47626.70829.91227,1.43132,1.32,2.182l.03251.05964-.00023.06714a10.32288,10.32288,0,0,0,.31672,2.31833,23.73366,23.73366,0,0,0,.66385,2.28745,44.9752,44.9752,0,0,0,1.78243,4.43971l-.09427-.09216a46.78469,46.78469,0,0,1,7.85089,5.10191,49.66752,49.66752,0,0,1,6.79008,6.43688c1.07133,1.14244,1.97729,2.42078,2.94218,3.65445a46.55014,46.55014,0,0,1,2.49073,3.9838,40.69486,40.69486,0,0,1,3.625,8.67287l-.09661-.16959c4.26685,4.39292,8.405,8.90374,12.5348,13.42414q3.061,3.42347,6.06214,6.901c1.9712,2.34266,3.92954,4.70427,5.69209,7.21277Z"/><path d="M385.4612,176.30168c-.09474,3.029-.21006,6.04858-.19462,9.06912-.02526,3.01727.02246,6.03243.18105,9.02818a53.19155,53.19155,0,0,0,1.12537,8.852c.63788,2.91037,1.46758,5.8287,2.15318,8.79825.66853,2.97423,1.20607,5.98658,1.58782,9.01157.37637,3.02686.60233,6.06378.73005,9.1007a155.81628,155.81628,0,0,1-.40725,18.18478c-.25333-6.05466-.53707-12.09177-1.02151-18.095a125.26489,125.26489,0,0,0-2.67645-17.79391c-.64-2.93259-1.4622-5.83945-2.06126-8.85134a48.30508,48.30508,0,0,1-.85543-9.16058A111.92863,111.92863,0,0,1,385.4612,176.30168Z"/><path d="M293.05544,244.0769a75.25952,75.25952,0,0,0,14.25431,4.19924c1.21706.23088,2.42289.51017,3.64322.71438l3.67434.5366c2.43833.42222,4.91806.54292,7.3751.80443a155.60436,155.60436,0,0,0,29.60989-.70478l7.35522-.98572c2.447-.36023,4.85888-.93683,7.29347-1.37963,4.89537-.79063,9.64151-2.24184,14.46249-3.39761,2.4257-.5331,4.74895-1.41613,7.12622-2.12325l7.10821-2.21915c4.6804-1.65331,9.304-3.47481,14.00472-5.13163q-3.39994,1.53261-6.82868,3.01821c-2.28839.98174-4.55666,2.02336-6.867,2.95785l-7.04341,2.51763-3.52978,1.24559c-1.16887.44164-2.37026.77847-3.57352,1.11016-4.80976,1.33028-9.58723,2.82312-14.509,3.7237l-3.672.75671c-1.22876.226-2.43927.55555-3.68417.69075l-7.4303,1.03742a138.68088,138.68088,0,0,1-29.95515.30362l-3.72439-.45707c-.61965-.08257-1.24256-.13778-1.85916-.243l-1.84512-.34222-3.686-.68888c-1.22244-.25777-2.43272-.57894-3.6465-.87273A68.09807,68.09807,0,0,1,293.05544,244.0769Z"/><path d="M317.7061,449.6886a11.18394,11.18394,0,0,1,.71858,2.66359,17.87768,17.87768,0,0,1,.19836,2.66359,17.56917,17.56917,0,0,1-.19578,2.66359,11.03837,11.03837,0,0,1-.72116,2.66336,11.03865,11.03865,0,0,1-.7214-2.66336,17.60016,17.60016,0,0,1-.19578-2.66359,17.90977,17.90977,0,0,1,.19836-2.66359A11.17341,11.17341,0,0,1,317.7061,449.6886Z"/><path d="M343.27277,449.6886a13.44681,13.44681,0,0,1,.71882,2.949,21.871,21.871,0,0,1,.19812,2.94873,21.49285,21.49285,0,0,1-.19578,2.949,13.27421,13.27421,0,0,1-.72116,2.949,13.28711,13.28711,0,0,1-.7214-2.949,21.4941,21.4941,0,0,1-.19555-2.949,21.871,21.871,0,0,1,.19813-2.94873A13.44624,13.44624,0,0,1,343.27277,449.6886Z"/><path d="M370.34538,450.72648a13.5999,13.5999,0,0,1,1.35039,2.38032c.36514.80607.67672,1.61986.95531,2.43693.28046.8166.5221,1.63834.75929,2.45447.12093.40748.226.8201.36771,1.214a2.65761,2.65761,0,0,0,.59508,1.13051,1.95609,1.95609,0,0,1-1.33846-.62175,6.3261,6.3261,0,0,1-.92677-1.10267,10.719,10.719,0,0,1-1.1932-2.48371,13.37083,13.37083,0,0,1-.6035-2.64137A9.43525,9.43525,0,0,1,370.34538,450.72648Z"/><path d="M334.52786,471.18468a14.16665,14.16665,0,0,1,1.3029-4.82894c-.94852,1.21683-6.11266-.709-8.8242-2.87434-2.85517-2.2802-7.41581-3.14265-7.41581-3.14265-3.95691-.12468-5.80624,4.84812-6.63009,10.36688a11.642,11.642,0,0,1,5.3749-1.88746,10.2819,10.2819,0,0,1,2.91271.17239,9.72541,9.72541,0,0,1,2.74031,1.054,21.03343,21.03343,0,0,0,2.43342,1.32209,9.6231,9.6231,0,0,0,2.63482.63251,8.50808,8.50808,0,0,0,2.73072-.23953,8.76634,8.76634,0,0,0,2.58687-1.054,8.14793,8.14793,0,0,1-5.33654,1.90664,8.99459,8.99459,0,0,1-2.88393-.54619,19.43824,19.43824,0,0,1-2.55833-1.33168,9.93274,9.93274,0,0,0-5.23128-1.31273,14.30422,14.30422,0,0,0-5.40367,1.284,67.27314,67.27314,0,0,0-.6325,9.514c1.65752.2683,3.30568.54619,4.95362.79531,1.64793.23953,3.29586.47906,4.94379.64186,1.65752.182,3.30545.30667,4.963.32585a10.79523,10.79523,0,0,0,1.2456-.00959c.41216-.01919.83367-.00959,1.236-.06714.41193-.03836.83368-.06713,1.2456-.12444.40234-.08631.81426-.163,1.22642-.23017a14.47144,14.47144,0,0,1-4.93444,1.04443,28.75546,28.75546,0,0,1-5.05888-.15322,41.53344,41.53344,0,0,1-4.98215-.83367,38.21892,38.21892,0,0,1-4.83853-1.38922c-.00936,2.90312.13427,4.94379.13427,4.94379a29.31322,29.31322,0,0,0,21.96952,1.71507c-.19158-1.74361-.29707-3.47785-.35438-5.23128-.06713-1.7436-.04795-3.48744.00936-5.23127A47.75679,47.75679,0,0,1,334.52786,471.18468Zm66.85733-4.465c-2.09845-.76631-12.36942.56537-16.3551-7.617-3.9955-8.17275-10.30933.38339-12.66626,3.43013-2.36652,3.03715-8.27825,14.89875-22.90869,1.33168,0,0-10.65413-6.46728-13.50929,2.28044-.01918.03836-.02877.06713-.048.10549a9.36941,9.36941,0,0,0-.527,2.41424c-.00959.12468-.02878.25871-.03837.38339a18.492,18.492,0,0,1,8.94889-.69,12.57193,12.57193,0,0,1,4.35947,1.65775c1.34127.82385,2.51973,1.72466,3.86123,2.43342a16.24637,16.24637,0,0,0,4.10053,1.74384,11.33861,11.33861,0,0,0,4.39784.24911,13.07807,13.07807,0,0,0,2.18453-.48864,18.7132,18.7132,0,0,0,2.079-.8814,26.18919,26.18919,0,0,0,3.89-2.36651,16.91446,16.91446,0,0,1-8.05767,4.34029,11.11535,11.11535,0,0,1-4.66613-.15345,16.8412,16.8412,0,0,1-4.32111-1.75319c-1.35086-.74736-2.59646-1.71507-3.84206-2.51038a13.55992,13.55992,0,0,0-4.11012-1.6767,17.49542,17.49542,0,0,0-4.47455-.40233,21.49176,21.49176,0,0,0-4.34989.51742c-.08608.72794-.1628,1.44653-.20116,2.17494q-.17229,2.601-.25871,5.2025l-.182,5.21209c-.07672,1.73425-.12468,3.47808-.25871,5.22169A35.87681,35.87681,0,0,0,368.1,490.49062s12.16826-3.4203,23.96271-2.472c11.79423.94876,32.528-4.56041,33.85966-12.74275a75.42,75.42,0,0,1-10.26138,5.13537,58.809,58.809,0,0,1-11.03751,3.23855,39.67786,39.67786,0,0,1-5.72951.6994,22.52276,22.52276,0,0,1-2.90312-.02877c-.94853-.03836-1.897-.05754-2.85517-.07672q-5.71992-.04281-11.42066.42151c-3.80369.28748-7.59779.73777-11.35376,1.37028l-2.81681.50783-2.79785.58432a47.37313,47.37313,0,0,1-5.70075.9008,34.4602,34.4602,0,0,1-11.46861-.78572,26.87306,26.87306,0,0,1-10.29974-4.93443,26.66714,26.66714,0,0,0,10.38605,4.56064,34.08578,34.08578,0,0,0,11.325.55578c3.76532-.38339,7.45393-1.49472,11.24826-2.10781q5.67676-.97753,11.41108-1.44676c3.82287-.28749,7.66492-.40257,11.49738-.345.95812.01918,1.91623.048,2.88394.09591a25.48378,25.48378,0,0,0,2.836.048,45.13253,45.13253,0,0,0,5.653-.62292,58.59472,58.59472,0,0,0,10.99915-2.99879,73.876,73.876,0,0,0,10.405-4.77139C427.25431,467.09351,403.47382,467.47667,401.38519,466.71972Zm-29.28007,15.65569c-2.32839,1.83974-5.22168,2.05026-6.45769.48865-1.236-1.57144-.345-4.3307,1.99272-6.17021,2.32839-1.83015,5.22192-2.0505,6.45793-.47906C375.33385,477.77641,374.44287,480.5359,372.10512,482.37541Zm37.29938-9.27449c-.37357.77613-.76654,1.53307-1.18806,2.2802l-.05754.10549-.134-.00959-6.6205-.38315-6.61114-.47906-6.6109-.55578c-2.20371-.182-4.39783-.40233-6.60155-.6325l-.28748-.02854.06713-.2683c.5462-2.338,1.1497-4.66614,1.763-6.9847-.38315,2.27061-.78572,4.54146-1.22641,6.80248,2.11739.12467,4.23479.23953,6.3426.40257l6.61114.48864,6.6109.57473,6.47687.65146c.4407-.68023.872-1.37,1.27437-2.05986.21076-.37356.42152-.74736.61309-1.12092a5.79541,5.79541,0,0,0,.49824-1.17846A9.67488,9.67488,0,0,1,409.4045,473.10092Z"/><path d="M335.94585,466.145c-.01918.03836-.02877.06713-.048.10549a.19939.19939,0,0,1-.05755.09567A2.02621,2.02621,0,0,1,335.94585,466.145Z" fill="#fff"/><path d="M340.88339,99.19492s-5.88508-30.41336,4.19641-38.7829,30.62491,0,35.951,5.32607c0,0,6.65759,4.75542-1.712,8.94019S368.096,78.02949,368.096,78.02949s-3.42391-.30774-3.99456,4.82811c0,0-10.02858,10.94571-10.055,16.88586Z"/><path d="M364.55715,82.909a11.13837,11.13837,0,0,0-.12046,3.14615,2.94192,2.94192,0,0,0,.52584,1.42829,1.403,1.403,0,0,0,1.4215.415,1.52425,1.52425,0,0,1-1.58548-.25473,3.25337,3.25337,0,0,1-.81028-1.49284,9.10064,9.10064,0,0,1-.28958-1.658,13.71385,13.71385,0,0,1-.05287-1.68676Z"/><path d="M368.09605,78.02957a36.91983,36.91983,0,0,1,1.93167,5.86869,36.50076,36.50076,0,0,1,1.04209,6.09021,36.48,36.48,0,0,1-1.93167-5.86892A36.90464,36.90464,0,0,1,368.09605,78.02957Z"/><polygon points="381.997 77.224 382.362 90.561 381.206 77.269 381.997 77.224"/><polygon points="387.133 80.748 387.118 89.42 386.341 80.783 387.133 80.748"/><polygon points="391.984 85.806 391.588 89.988 391.191 85.806 391.984 85.806"/></svg>