<svg id="Layer_1" data-name="Layer 1" xmlns="http://www.w3.org/2000/svg" viewBox="0 0 700 550"><title>practicing martial arts-karate</title><path d="M353.68945,156.59214a56.32961,56.32961,0,0,0-8.50094.39391l.221-.77671a38.99108,38.99108,0,0,1,4.73257,3.96755,11.15692,11.15692,0,0,1,1.98558,2.53809,3.00668,3.00668,0,0,1,.39988,1.91073,1.86212,1.86212,0,0,1-.58186,1.04619,2.69452,2.69452,0,0,1-.89169.53368,8.86539,8.86539,0,0,1-3.3203.35052,29.21849,29.21849,0,0,1-3.11318-.32772c-2.04687-.30771-4.04977-.74817-6.04155-1.22138-3.98346-.9449-7.88235-2.14419-11.76627-3.36873-3.88334-1.22817-7.72586-2.56757-11.556-3.93351l.74759.02807c-9.84314,3.33691-19.01155,10.65049-22.34577,20.77632a30.842,30.842,0,0,0-1.02911,3.83316,33.91811,33.91811,0,0,0-.49157,3.95937,35.08913,35.08913,0,0,0-.06772,4.00988c.05169,1.3387.20771,2.67763.34806,4.01527.24784,1.32337.39684,2.66944.72514,3.98112l.49368,1.96757.24678.98455.31029.96724.62314,1.93494a20.3188,20.3188,0,0,0,.67941,1.91693c.51847,1.254.97706,2.53365,1.54454,3.76779l1.72466,3.694,1.93225,3.593,1.96676,3.60346c.64736,1.20934,1.245,2.44512,1.87225,3.66592a99.89731,99.89731,0,0,1,5.88811,15.38131,87.79727,87.79727,0,0,1,3.11107,32.78107l-.84-1.27624c5.15759,1.51858,10.429,2.86359,15.713,3.97913a152.68827,152.68827,0,0,0,15.96937,2.57587,73.8907,73.8907,0,0,0,15.95757.1986,28.02417,28.02417,0,0,0,7.48855-1.84419,11.84049,11.84049,0,0,0,5.59606-4.47315l-.20023.72279.197-16.357c.08234-5.45209.10959-10.90441.23719-16.35673l.33929-16.35674c.16667-5.45232.28257-10.90453.492-16.35674h.27918c.20947,5.45221.32526,10.90442.49192,16.35674l.33941,16.35674c.1276,5.45232.15474,10.90464.23707,16.35673l.197,16.357.00456.38058-.20479.34245a14.67126,14.67126,0,0,1-6.84552,5.69069,30.27141,30.27141,0,0,1-8.28843,2.14874,73.91492,73.91492,0,0,1-16.6372-.25169,155.56482,155.56482,0,0,1-16.22773-2.8533c-5.34952-1.22548-10.63213-2.60183-15.87826-4.29818l-.95812-.30994.1179-.96677a89.12739,89.12739,0,0,0,.42911-16.16423,85.1648,85.1648,0,0,0-2.46651-16.01919,88.38632,88.38632,0,0,0-5.38835-15.34272c-2.24547-4.93537-5.25116-9.55192-7.4482-14.59957-1.10151-2.514-2.14559-5.05724-3.01072-7.67206a64.07024,64.07024,0,0,1-2.07588-8.00831c-.2014-1.36805-.41766-2.74207-.52783-4.12637a36.62567,36.62567,0,0,1-.10012-4.17655,35.01681,35.01681,0,0,1,.35088-4.18334,32.69735,32.69735,0,0,1,.93156-4.11269,29.56152,29.56152,0,0,1,3.472-7.71124,33.27331,33.27331,0,0,1,5.47162-6.46354,38.8284,38.8284,0,0,1,6.8288-4.96075,38.10716,38.10716,0,0,1,7.76446-3.4127l.36713-.11263.38081.1407c3.79772,1.403,7.6137,2.74967,11.43435,4.0714q5.7343,1.97137,11.54475,3.63644c1.93647.53871,3.88381,1.04408,5.83828,1.4139a27.59289,27.59289,0,0,0,2.92382.4221,7.62849,7.62849,0,0,0,2.70652-.14666c.38362-.13088.53929-.27859.58022-.46116a1.70954,1.70954,0,0,0-.22467-1.01017,11.3599,11.3599,0,0,0-1.64992-2.31868,38.02172,38.02172,0,0,0-4.35468-4.11176l-.86478-.70981,1.08583-.067a47.35487,47.35487,0,0,1,8.6.18924Z"/><path d="M370.61553,163.28222a12.65845,12.65845,0,0,1,3.50206,3.18335,17.31925,17.31925,0,0,1,2.36418,4.1341,19.67641,19.67641,0,0,1,1.2284,4.574,16.793,16.793,0,0,1,.06959,4.7073c-.55578-1.483-1.00455-2.94066-1.48279-4.37362q-.71577-2.14873-1.53962-4.20965c-.55789-1.37437-1.16186-2.72452-1.85483-4.0472C372.20919,165.92628,371.43505,164.63636,370.61553,163.28222Z"/><path d="M310.76161,197.4986c2.90663.7228,5.78518,1.52875,8.65392,2.36383,1.4346.41683,2.86885.83472,4.29514,1.27612,1.42735.43847,2.8602.86046,4.28041,1.32l-.98572,1.12162a20.96,20.96,0,0,1,1.62606-20.02534,27.33738,27.33738,0,0,1,7.15149-7.31838,39.04874,39.04874,0,0,1,8.92046-4.71993,56.79046,56.79046,0,0,0-8.21626,5.62741,29.82879,29.82879,0,0,0-6.41266,7.31019,23.13474,23.13474,0,0,0-2.01659,4.355,20.38988,20.38988,0,0,0-.953,4.68251,20.96165,20.96165,0,0,0,.14386,4.78707,19.24239,19.24239,0,0,0,1.21075,4.5914l.73414,1.72617-1.72-.60444c-1.40828-.495-2.80382-1.02735-4.205-1.54337-1.4022-.513-2.79634-1.04957-4.19024-1.587C316.29031,199.78757,313.51186,198.68467,310.76161,197.4986Z"/><path d="M421.42747,359.43008c-.067-.08632-.13415-.182-.20128-.2683l.01918-.345Z"/><path d="M436.35487,361.24081c-1.13051,27.97693-11.4878,94.75778-11.4878,94.75778a48.572,48.572,0,0,1-8.029.58432c.65157-8.12481,1.19764-16.26879,1.79167-24.40318l1.6001-24.41277c.54607-8.13439,1.00595-16.27837,1.485-24.42235l1.418-24.42236.01918-.345-.20117-.2683c-4.84812-6.60131-9.78232-13.13572-14.66881-19.7085-4.90543-6.55336-9.76314-13.14508-14.71652-19.66991l-14.8412-19.58382c-4.99186-6.48647-9.94536-13.01129-15.00424-19.45939,4.69491,6.7164,9.48548,13.35608,14.22811,20.03411l14.4005,19.90968c4.79058,6.63967,9.67695,13.21245,14.51536,19.81376,4.79058,6.50564,9.53332,13.04006,14.36215,19.51693L419.9903,383.2487c-.412,8.144-.84315,16.288-1.18806,24.44154l-1.07308,24.44154c-.29707,8.15357-.65157,16.29755-.8911,24.45113-8.11521.10526-18.09882-.58432-18.09882-.58432L393.987,387.0428a23.433,23.433,0,0,0-6.80259-14.94646L356.5342,341.44623a106.24152,106.24152,0,0,0,2.67318-12.71421c.68023-4.28275,1.06361-8.61345,1.33191-12.93456.22994-4.33071.26819-8.68059.07649-13.01129a87.11673,87.11673,0,0,0-1.39881-12.91538c.03836,4.3307,0,8.63263-.09579,12.93456-.05742,2.14617-.09578,4.30193-.19169,6.4481l-.12444,3.21937-.182,3.21914q-.34508,6.43851-.90069,12.86743l-1.18817,12.88684-31.474,39.8287a23.72915,23.72915,0,0,1-2.98943,3.14264l-76.06469,66.22507c-16.07721,0-22.77443-18.08935-22.77443-18.08935l57.94681-74.68506a23.45866,23.45866,0,0,0,3.60253-6.63009l27.54582-78.78582s7.39663,2.3761,17.16936,4.436c-1.39881,2.91271-2.836,5.76787-4.34977,8.57509a78.62781,78.62781,0,0,1-5.39419,8.73812,27.3892,27.3892,0,0,1-7.02307,7.10915,10.52334,10.52334,0,0,1-9.59074,1.1401,9.79579,9.79579,0,0,0,5.06847,1.52349,11.15809,11.15809,0,0,0,5.26963-1.37,23.95857,23.95857,0,0,0,7.82785-7.28178,51.54061,51.54061,0,0,0,5.18344-9.19777,55.22811,55.22811,0,0,0,3.1713-9.198c8.12492,1.70547,17.85929,3.20019,26.32911,2.94148-2.42406,1.10174-2.02172,5.49958,1.21671,5.49958,3.35341,0,3.66954-4.72345.93905-5.60507,7.43487-.51719,13.64356-2.57728,16.47955-7.31031l56.86413,73.545A23.34915,23.34915,0,0,1,436.35487,361.24081Z"/><path d="M329.84123,276.18887c-.05754.24912-.11508.48865-.1821.73777-.05743-.00959-.10538-.02877-.15333-.03836C329.62088,276.65834,329.72615,276.41881,329.84123,276.18887Z" fill="#fff"/><path d="M421.42747,359.43008c-.067-.08632-.13415-.182-.20128-.2683l.01918-.345Z" fill="#fff"/><path d="M315.67417,156.5553c.09579-2.1429.42772-4.15141.69146-6.17091.12806-1.007.28175-2.00758.39075-3.01645.10246-1.01087.18982-2.01565.25766-3.09423a8.3193,8.3193,0,0,1,.83145,3.10405,14.53075,14.53075,0,0,1-.09789,3.19774,17.21226,17.21226,0,0,1-.73029,3.09095A12.36137,12.36137,0,0,1,315.67417,156.5553Z"/><path d="M331.30527,111.22519a11.00486,11.00486,0,0,0,10.49516-1.78641c4.91262-4.01942,11.38835.61856,13.62136,1.20248s13.39807-8.34812-2.90291-11.92094-35.95148,3.12622-41.75731,9.82525-9.60194,14.068-2.90291,23.66992,9.636,10.98245,9.43251,14.51309c0,0,4.41216-8.26066,7.53837-9.37716,0,0-9.37864-17.41749,6.47573-11.16506,0,0,1.1326,1.78641,1.45951,9.82525s-1.88332,14.73787,1.90141,14.40292,14.27987,5.02427,17.40609,4.57767,4.01942-16.52428,2.00971-17.19418-7.14564.4466-9.37865,1.56311-7.81554,1.5631-8.48544-5.58253S337.781,118.14752,331.30527,111.22519Z"/><path d="M352.12093,126.94576a15.91131,15.91131,0,0,0-8.94023-2.5188l-.08047-1.39413a17.1708,17.1708,0,0,1,9.816,2.76581Z"/><path d="M324.82949,137.35147c1.03519.41215,1.78664.8518,2.55552,1.17261a9.00818,9.00818,0,0,0,1.15425.3959,11.77312,11.77312,0,0,0,1.42618.21789,2.19459,2.19459,0,0,1-1.42092.8711,3.03593,3.03593,0,0,1-1.70652-.2014,3.61879,3.61879,0,0,1-1.31659-.991A2.88349,2.88349,0,0,1,324.82949,137.35147Z"/><path d="M347.82952,107.92181a15.41464,15.41464,0,0,1,5.62683,6.57874,13.714,13.714,0,0,1,1.19928,4.32286,5.68419,5.68419,0,0,1,.07392,1.13063c-.00047.37813.00994.75742-.00187,1.13531-.08012.72712-.15743,1.55787-.24947,2.19962a15.53813,15.53813,0,0,0-.21333,4.01059,7.62688,7.62688,0,0,0,.36069,1.88266,7.2328,7.2328,0,0,0,.8635,1.67834c.3745.53333.86057,1.00525,1.34384,1.6229a3.33757,3.33757,0,0,1,.591,1.13917,2.49522,2.49522,0,0,1,.00222,1.31027,3.70266,3.70266,0,0,1-1.40805,1.86384A6.93518,6.93518,0,0,1,354.082,137.798a8.6907,8.6907,0,0,0,1.5877-1.38162,3.14521,3.14521,0,0,0,.86163-1.66828,1.71954,1.71954,0,0,0-.6214-1.46735c-.46175-.44584-1.03636-.93086-1.55226-1.51015a7.83564,7.83564,0,0,1-1.84325-4.27082,16.32711,16.32711,0,0,1,.12526-4.49023c.12632-.76444.178-1.35145.27532-2.03565a17.02986,17.02986,0,0,0-.00947-1.99553,14.36677,14.36677,0,0,0-.79215-3.94041A21.05707,21.05707,0,0,0,347.82952,107.92181Z"/><path d="M346.26645,130.26161a1.39647,1.39647,0,0,0,0-2.79127,1.39647,1.39647,0,0,0,0,2.79127Z"/><path d="M350.20189,138.169a4.17736,4.17736,0,0,1-.01965-5.26589l1.10034.85706-.55017-.42853.552.42666a2.84385,2.84385,0,0,0-.02152,3.505Z"/><path d="M344.70337,153.132a8.07627,8.07627,0,0,1,.14128,2.07775,13.18849,13.18849,0,0,1-.23859,2.00255,12.96156,12.96156,0,0,1-.54093,1.94254,7.98853,7.98853,0,0,1-.9249,1.86653,7.99175,7.99175,0,0,1-.14339-2.07822,12.976,12.976,0,0,1,.2407-2.00208,13.18891,13.18891,0,0,1,.54292-1.94219A8.06993,8.06993,0,0,1,344.70337,153.132Z"/><path d="M327.75179,203.1342c6.81686,1.2353,13.683,2.20757,20.5713,2.87317a153.55731,153.55731,0,0,0,20.69457.7835A63.9322,63.9322,0,0,0,379.2381,205.64a24.99165,24.99165,0,0,0,9.391-3.58019,39.41679,39.41679,0,0,0,7.50387-6.86891,86.928,86.928,0,0,0,6.251-8.186c1.94149-2.8444,3.76088-5.77676,5.519-8.74748,1.77073-2.9637,3.46814-5.975,5.12753-9.01029l4.92087-9.15672c.831-1.52758,1.64769-3.05949,2.59154-4.56192.24234-.37637.48105-.75052.767-1.12665a6.27912,6.27912,0,0,1,.48713-.57356,2.13617,2.13617,0,0,1,.40128-.31789l.1345-.07638.07064-.03333.14128-.06643a13.85425,13.85425,0,0,0,2.14676-1.22712,18.41176,18.41176,0,0,0,5.99629-7.88668,44.26776,44.26776,0,0,0,2.79388-9.855c.62806-3.4051,1.24443-6.81347,1.70279-10.23425a43.96275,43.96275,0,0,0,.43426-5.13033,9.41663,9.41663,0,0,0-.25263-2.47471,1.67035,1.67035,0,0,0-.52338-.89952,1.0159,1.0159,0,0,0-.93087-.04842l-.29906.09871-.135-.292a5.56535,5.56535,0,0,0-.90841-1.39518,1.588,1.588,0,0,0-2.61341-.05766,7.02971,7.02971,0,0,0-1.0097,1.36723l-1.54418,2.60955.95577-2.88089a14.88714,14.88714,0,0,0,.86572-4.44053,2.86825,2.86825,0,0,0-.563-1.96582,1.35985,1.35985,0,0,0-.8511-.3959.91839.91839,0,0,0-.7911.34491,6.42228,6.42228,0,0,0-1.13683,1.8891,22.0661,22.0661,0,0,0-.783,2.1595c-.45836,1.46945-.83706,2.969-1.1939,4.47386-.73122,3.01165-1.26677,6.054-2.123,9.0794a6.52815,6.52815,0,0,1-.44584,1.147,1.24641,1.24641,0,0,1-.24281.318c-.115.09825-.16959.129-.26011.19614a4.33223,4.33223,0,0,1-.535.33122,1.48243,1.48243,0,0,1-.7194.18831.89789.89789,0,0,1-.73882-.4676,2.91476,2.91476,0,0,1-.28187-1.28525,24.04441,24.04441,0,0,1,.5476-4.69408c.59063-3.07634,1.661-6.03793,2.44476-8.98994a6.42063,6.42063,0,0,0,.27052-2.11927.73371.73371,0,0,0-.1193-.32678.42368.42368,0,0,0-.08421-.07778l-.23134-.12491a4.03633,4.03633,0,0,0-.97086-.34549,1.96084,1.96084,0,0,0-1.7622.41228,3.4479,3.4479,0,0,0-.94057,1.76325c-.53894,2.99785-1.31577,6.0791-2.07986,9.06759q-1.16226,4.51327-2.40663,9.00035l-.0793.28713-.28467.13473a63.068,63.068,0,0,0-5.81209,3.069c-.45987.28421-.911.579-1.3284.89051a7.20932,7.20932,0,0,0-.57987.47859,1.69329,1.69329,0,0,0-.34632.409.34362.34362,0,0,0-.02538-.22327l.1855.39274.348.76327.68256,1.5222,5.36706,12.19165.19906.45192-.30771.39918-3.55773,4.61561-.23368.30315-.38736.02877-30.585,2.2698-.23684.01754-.22467-.09918c-6.47687-2.85762-12.93129-5.76554-19.3898-8.66421l1.27285-.46631c-1.27671,2.71049-2.46616,5.50729-3.46744,8.32714a37.05056,37.05056,0,0,0-1.25974,4.26076,12.34215,12.34215,0,0,0-.29848,2.08886,2.15768,2.15768,0,0,0,.25017,1.36735l-.0876-.0648a5.46438,5.46438,0,0,0,1.86267.75368,1.52365,1.52365,0,0,0,.73917-.02725.75921.75921,0,0,0,.41286-.35216,3.73,3.73,0,0,0,.315-1.84524,14.56484,14.56484,0,0,0-.26268-2.24745l-.07848-.42994.2676-.3331,1.97155-2.45365,1.91974-2.389-.26433,3.07563c-.109,1.26876.15193,2.83634.92455,3.40873a1.54292,1.54292,0,0,0,.68268.30958,8.51649,8.51649,0,0,0,1.00806.143c.72444.05544,1.47214.082,2.22629.08246,3.01785.002,6.08459-.18082,9.11823-.4131l.14924-.01146.12994.03369,17.61473,4.56859,1.3346.34619-1.02665.90443-19.5788,17.24807-.247.21766-.29356-.1331q-7.36728-3.34117-14.8184-6.52248c-4.97022-2.10383-9.9677-4.15164-15.06389-5.931l.05813-.17672c5.15186,1.64114,10.21168,3.55387,15.24482,5.52285q7.55166,2.95628,14.98951,6.19032l-.54023.08456,19.27541-17.58666.308,1.25039-17.66666-4.36333.27883.02222c-3.08195.27146-6.1453.49181-9.26573.52678-.78022.0083-1.56723-.00889-2.3733-.06164a10.06418,10.06418,0,0,1-1.27027-.17017,3.37259,3.37259,0,0,1-1.39355-.63181A4.32164,4.32164,0,0,1,358.246,161.07a8.19916,8.19916,0,0,1-.17871-2.608l1.6553.68666-1.96547,2.45868.18889-.76268a16.35529,16.35529,0,0,1,.302,2.56066,5.39769,5.39769,0,0,1-.57707,2.85587,2.67022,2.67022,0,0,1-1.40817,1.16572,3.36943,3.36943,0,0,1-1.65424.11286,7.2319,7.2319,0,0,1-2.60944-1.035l-.04176-.02526-.04608-.03988a2.65794,2.65794,0,0,1-.84057-1.53,5.9001,5.9001,0,0,1-.09719-1.36127,14.14907,14.14907,0,0,1,.33485-2.42628,38.877,38.877,0,0,1,1.31355-4.49362c1.02957-2.91891,2.21856-5.734,3.5279-8.53264l.40035-.85566.87273.38924c6.46553,2.883,12.93527,5.75664,19.38231,8.6807l-.461-.08152,30.59911-2.07085-.62081.33169,3.58767-4.59233-.10865.85074-5.20531-12.25012-.658-1.52466-.33181-.756-.16479-.36234a1.14346,1.14346,0,0,1-.10608-.58513,1.32181,1.32181,0,0,1,.12023-.44023,2.89288,2.89288,0,0,1,.69648-.87519,8.62659,8.62659,0,0,1,.71063-.57123c.47707-.34537.96081-.65051,1.44864-.94291a64.26536,64.26536,0,0,1,6.00038-3.06241l-.36362.42163q1.31034-4.45485,2.549-8.93578c.82034-3.00686,1.61449-5.93267,2.22851-9.02994a4.4069,4.4069,0,0,1,1.28326-2.24242,2.93884,2.93884,0,0,1,2.59786-.59473,4.966,4.966,0,0,1,1.207.4497l.27777.15625a1.31411,1.31411,0,0,1,.34058.31415,1.62734,1.62734,0,0,1,.28632.74853,7.0287,7.0287,0,0,1-.3262,2.46757c-.85835,3.02674-1.95436,5.90319-2.58417,8.91859a22.067,22.067,0,0,0-.57345,4.5245,2.384,2.384,0,0,0,.18468.97262c.072.10772.10456.13274.19017.13836a.87277.87277,0,0,0,.38994-.115c.26514-.15181.70268-.39625.76385-.5752a6.04829,6.04829,0,0,0,.39707-1.01694c.85168-2.94,1.41589-6.01407,2.16488-9.02514.36748-1.51016.7573-3.01762,1.23145-4.50673.23754-.74455.50245-1.48185.80771-2.21014a6.89676,6.89676,0,0,1,1.24337-2.07822,1.50682,1.50682,0,0,1,1.269-.52,1.95914,1.95914,0,0,1,1.21226.56362,3.418,3.418,0,0,1,.75087,2.3802,15.45637,15.45637,0,0,1-.86853,4.66192l-.58841-.27134a7.66467,7.66467,0,0,1,1.103-1.5105,2.24925,2.24925,0,0,1,3.58872.05614,6.2158,6.2158,0,0,1,1.04829,1.58477l-.43368-.19321a1.71712,1.71712,0,0,1,1.56325.132,2.33536,2.33536,0,0,1,.80666,1.278,10.05233,10.05233,0,0,1,.30163,2.67867,45.2473,45.2473,0,0,1-.345,5.2335c-.39824,3.45983-.95274,6.88774-1.51823,10.31132a45.18456,45.18456,0,0,1-2.68557,10.15682,19.7049,19.7049,0,0,1-6.30308,8.55474,15.30291,15.30291,0,0,1-2.33622,1.39273l-.15158.0745-.07579.03731c-.00725.00655-.0035.00924-.0035.00924.01356-.01836-.06129.05777-.10094.09134a5.02121,5.02121,0,0,0-.34385.42479c-.23369.318-.45626.67871-.67637,1.03484-.86654,1.45437-1.68863,2.97961-2.501,4.50345l-4.87245,9.19192a183.70651,183.70651,0,0,1-10.74067,17.89835,88.42651,88.42651,0,0,1-6.42412,8.28843,40.85229,40.85229,0,0,1-7.84925,7.073,23.30815,23.30815,0,0,1-2.32453,1.34478c-.80993.40724-1.64922.70092-2.47845,1.03238a35.46029,35.46029,0,0,1-5.12846,1.33554,65.19191,65.19191,0,0,1-10.44384.99519,147.30651,147.30651,0,0,1-20.822-1.17858c-6.89126-.86888-13.74777-1.98056-20.52265-3.48884Z"/><polygon points="411.024 141.371 412.126 129.919 413.048 130.046 411.024 141.371"/><path d="M358.06424,158.565a1.01263,1.01263,0,0,1,.127-.47614,1.21188,1.21188,0,0,1,.17122-.24947,1.37014,1.37014,0,0,1,.349-.28455,1.81163,1.81163,0,0,1,.59461-.2193,3.49515,3.49515,0,0,1,.94607-.046,8.85261,8.85261,0,0,1,1.61027.28526,26.37653,26.37653,0,0,1,2.938.99016,25.90537,25.90537,0,0,0-3.03352-.06468,7.681,7.681,0,0,0-1.41753.1814,1.91008,1.91008,0,0,0-.54584.20421c-.0635.03637-.11017.085-.0904.09719-.00644.009.03777.00059.06877-.0324a.3627.3627,0,0,0,.07041-.08982.53168.53168,0,0,0,.07274-.2959Z"/><polygon points="372.433 184.531 375.742 187.371 371.906 185.298 372.433 184.531"/><rect x="389.38662" y="160.32712" width="19.82711" height="1.86138" transform="translate(-12.49353 287.23658) rotate(-39.00165)"/><polygon points="429.113 115.261 424.868 128.866 428.216 115.013 429.113 115.261"/><polygon points="434.257 115.335 430.228 133.332 433.344 115.154 434.257 115.335"/><path d="M256.10469,486.0066c-4.7811-3.0851-18.0318,1.44676-17.79227-4.94379.22994-6.381-4.58941-22.11339-4.58941-22.11339-16.96819,1.6194-12.5417-17.74432-12.5417-17.74432-4.94391.20141-19.13366,1.71507-19.83306,5.42285-.709,3.69843,24.25955,49.05571,24.25955,49.05571h35.50782S260.88568,489.0917,256.10469,486.0066Zm-40.47091-26.23309c-3.7079,0-3.69831-5.7487,0-5.7487C219.34168,454.02481,219.33209,459.77351,215.63378,459.77351Z" fill="#020202"/><polygon points="232.699 460.952 231.847 460.19 241.176 449.784 242.027 450.546 232.699 460.952" fill="#020202"/><rect x="217.53525" y="440.01148" width="9.27033" height="1.14235" transform="translate(-199.47126 184.27997) rotate(-31.94569)" fill="#020202"/><path d="M444.24014,481.20643c-6.39055.43111-19.85213-12.86743-19.85213-12.86743-13.8639,6.24694-23.33009-1.61916-23.33009-1.61916-3.19048,20.94428-2.15576,28.96382-2.15576,28.96382h66.82857C465.932,487.38623,450.62122,480.78492,444.24014,481.20643Zm-33.43814,4.024c-3.708,0-3.69843-5.74869,0-5.74869C414.50979,479.48178,414.5002,485.23047,410.802,485.23047Z" fill="#020202"/><rect x="400.59465" y="456.14455" width="0.93005" height="14.98366"/><path d="M426.3122,471.49124c-5.09373-4.06731-4.61093-14.91067-4.58848-15.37008l.93.04678c-.00562.1076-.48187,10.82652,4.23854,14.59723Z"/><path d="M316.4896,233.14759A73.10473,73.10473,0,0,0,325.516,244.983a65.25713,65.25713,0,0,0,5.35466,5.09584,51.55731,51.55731,0,0,0,5.904,4.39947,49.49733,49.49733,0,0,0,13.33257,6.108,56.62506,56.62506,0,0,0,14.69313,2.03716,41.77918,41.77918,0,0,1-15.05441-.63063,43.56344,43.56344,0,0,1-7.25171-2.35389,48.58842,48.58842,0,0,1-6.73032-3.59971,51.59636,51.59636,0,0,1-11.32979-10.096A49.93857,49.93857,0,0,1,316.4896,233.14759Z"/><path d="M358.13441,279.76263c-.709.048-1.41811.08631-2.14617.10549a2.87492,2.87492,0,0,1,1.21671-.24912A2.82852,2.82852,0,0,1,358.13441,279.76263Z" fill="#fff"/><path d="M420.94081,156.31939c3.26826-.41555,6.54389-.71238,9.81566-1.07179a7.64611,7.64611,0,0,1,8.43707,5.03221,7.80424,7.80424,0,0,1-.03,5.36495c-.20257.40936-.37368.84233-.616,1.22911-.25625.36467-.51414.78607-.77929,1.09987-.53.65321-1.08057,1.29214-1.67109,1.90863a12.58906,12.58906,0,0,1-1.97307,1.73038l-2.02325,1.41016-4.04649,2.82031c-5.4211,3.72346-10.85576,7.42774-16.35194,11.04289q-8.22165,5.4552-16.64773,10.61249,7.80849-6.05079,15.81932-11.8051c5.32613-3.85726,10.71389-7.62551,16.1151-11.37458l4.07024-2.78406,2.03518-1.392a12.37537,12.37537,0,0,0,1.74956-1.49191c.56175-.556,1.10174-1.14922,1.62384-1.759.2731-.30841.43964-.59636.67028-.89332.20257-.30222.33789-.64058.51555-.95823a6.52615,6.52615,0,0,0,.17053-4.29445,6.79364,6.79364,0,0,0-2.62933-3.51773,6.94027,6.94027,0,0,0-4.38146-1.07554C427.52236,156.206,424.23538,156.32208,420.94081,156.31939Z"/><path d="M422.17062,246.46507a115.31865,115.31865,0,0,0,10.92055-4.21141c3.56954-1.56091,7.06224-3.28276,10.47541-5.13724A105.82858,105.82858,0,0,0,462.674,223.955a76.36839,76.36839,0,0,0,8.13954-8.23006,64.89609,64.89609,0,0,0,14.77454-31.13174l-.335,2.91762-.18479,1.46057-.28924,1.4422-.58958,2.88967-.78783,2.84581a55.183,55.183,0,0,1-4.58192,10.89915A67.70449,67.70449,0,0,1,463.9,225.35331a93.55365,93.55365,0,0,1-19.66289,13.045A98.88164,98.88164,0,0,1,422.17062,246.46507Z"/><path d="M452.3881,252.654a99.18273,99.18273,0,0,0,10.56278-8.15124,121.0711,121.0711,0,0,0,9.53636-9.27121,109.06729,109.06729,0,0,0,8.37123-10.28829,90.59626,90.59626,0,0,0,6.97219-11.24885,88.87809,88.87809,0,0,0,5.28075-12.11925,87.45938,87.45938,0,0,0,3.32907-12.8031,84.58925,84.58925,0,0,0,1.27367-13.20344c.12058-2.21951.00561-4.43725-.06725-6.66167-.00643-1.11495-.14643-2.2188-.24292-3.32814l-.2793-3.33469a79.943,79.943,0,0,1,.74935,26.7594l-.54736,3.33177c-.18959,1.10992-.4897,2.197-.72958,3.29726l-.38152,1.64606-.46666,1.62349c-.32479,1.07823-.6118,2.16968-.96852,3.23808a87.70235,87.70235,0,0,1-5.30437,12.42112A97.50427,97.50427,0,0,1,452.3881,252.654Z"/><path d="M297.8129,59.36422a115.37,115.37,0,0,0-10.75448,4.61924c-3.50825,1.69413-6.9337,3.54615-10.27471,5.52764a105.84009,105.84009,0,0,0-18.59893,13.87116,76.354,76.354,0,0,0-7.8241,8.53041,64.89874,64.89874,0,0,0-13.59292,31.66542l.225-2.92815.12971-1.46641.23473-1.45226.48046-2.90967.68022-2.87341a55.17552,55.17552,0,0,1,4.16872-11.06383,67.70422,67.70422,0,0,1,14.22062-18.85354,93.55256,93.55256,0,0,1,19.15811-13.77537A98.886,98.886,0,0,1,297.8129,59.36422Z"/><path d="M267.38384,54.31634a99.24168,99.24168,0,0,0-10.24864,8.54281,121.13907,121.13907,0,0,0-9.18069,9.62349,109.0547,109.0547,0,0,0-7.97837,10.596,90.565,90.565,0,0,0-6.544,11.50312,88.88732,88.88732,0,0,0-4.82122,12.30942,87.45611,87.45611,0,0,0-2.845,12.91912,84.58314,84.58314,0,0,0-.77613,13.242c-.03707,2.22255.16141,4.43445.31778,6.65442.04842,1.114.22982,2.21178.368,3.31668l.40467,3.32182a79.94111,79.94111,0,0,1-1.75553-26.71227l.42163-3.35c.14772-1.11624.40666-2.21377.605-3.32229l.31929-1.65928.40526-1.63986c.284-1.08969.52982-2.1912.84607-3.27235a87.67852,87.67852,0,0,1,4.83339-12.61176,97.50672,97.50672,0,0,1,35.62852-39.4611Z"/></svg>