<svg id="Layer_1" data-name="Layer 1" xmlns="http://www.w3.org/2000/svg" viewBox="0 0 700 550"><title>doing bhangra</title><path d="M235.44875,480.91375H212.32953s-2.35716-12.31182-.15345-19.97675c5.05888,4.94391,14.3046.50783,16.585-.709,0,0-.45988,4.85765.91016,6.53435-.81425-.25871-1.63834-.44075-2.48137-.63239-.84326-.115-1.70547-.15327-2.57751-.19157a12.05618,12.05618,0,0,0-5.13536,1.21676,8.489,8.489,0,0,0-3.7941,3.83247,7.60509,7.60509,0,0,0-.62292,5.12595,12.17866,12.17866,0,0,1,1.90664-4.37859,9.397,9.397,0,0,1,3.38218-2.87435,17.35716,17.35716,0,0,1,4.40742-1.43717c.79531-.08626,1.6-.23953,2.41447-.34491.81426-.08626,1.64793-.15333,2.50055-.3162C231.03173,468.44866,237.4417,471.93621,235.44875,480.91375Z"/><path d="M222.69617,146.98169a26.1639,26.1639,0,0,1-6.16061,4.20614c-5.0397-7.63621,10.09857-28.96381,20.81024-28.59019a1.05374,1.05374,0,0,0-.3352.28742c-1.59062,2.242-3.26733,4.44567-4.91526,6.65891-1.65752,2.21325-3.3534,4.38819-5.04928,6.57272-1.72466,2.15576-3.46826,4.30193-5.27923,6.381a35.39279,35.39279,0,0,1-5.94986,5.71992,20.12556,20.12556,0,0,0,1.80114-1.0635c.55579-.412,1.14993-.79525,1.66735-1.26472,1.08256-.87186,2.1174-1.82038,3.14241-2.76891,1.993-1.945,3.8996-3.98579,5.72952-6.07447,1.83974-2.08869,3.60275-4.23486,5.34636-6.4098,1.236-1.54255,2.43365-3.12347,3.61211-4.70432-.02877.16286-.05754.33532-.08608.50777a22.61088,22.61088,0,0,0-.2014,2.99891c0,.20122.01918.40239.01918.60361-1.29332,1.9929-2.7209,3.957-4.17725,5.87326-1.49472,1.99289-3.08511,3.90912-4.72345,5.787A59.35994,59.35994,0,0,1,222.69617,146.98169Z" fill="#020202"/><path d="M254.61106,147.72905c2.16535,1.6,4.32111,3.20966,6.57278,4.67561-1.763,1.84915-4.69491.88145-4.944.79519h-.00959a4.82318,4.82318,0,0,0-1.4084-.96771c-7.91405-2.70183-16.98737-14.67827-16.98737-14.67827-2.37611,6.02652-13.54765,14.98488-14.75489,15.943h-.33543l-2.62523.02878h-.1055a5.74239,5.74239,0,0,1-3.47784-2.33781,22.86,22.86,0,0,0,6.73558-3.478,46.889,46.889,0,0,0,5.75828-4.99181,73.0381,73.0381,0,0,0,5.05888-5.69121c1.06338-1.31261,2.05985-2.67312,3.03715-4.05281a12.204,12.204,0,0,0,.661,2.46237,12.01739,12.01739,0,0,0,.67064-2.51026,49.44163,49.44163,0,0,0,3.8231,4.26363c1.94477,1.90664,3.93773,3.73661,6.00741,5.4708C250.34749,144.42354,252.46489,146.09065,254.61106,147.72905Z" fill="#020202"/><path d="M255.39678,143.9636c2.29938,1.945,4.57982,3.90913,6.9847,5.73916a5.075,5.075,0,0,1-1.19764,2.7019c-1.98337-1.81086-4.01445-3.57381-5.969-5.40379-1.993-1.80126-3.97633-3.6217-5.92133-5.45168-1.93541-1.85875-3.89-3.68878-5.71033-5.63372a39.377,39.377,0,0,1-4.85748-5.88285c0-.19163.01895-.3928.01895-.594a22.61041,22.61041,0,0,0-.20117-2.99891c0-.00959-.00959-.01918-.00959-.02871a60.85793,60.85793,0,0,0,3.89,4.88636c2.03132,2.26114,4.11994,4.45526,6.30447,6.54395C250.89368,139.93956,253.12593,141.98035,255.39678,143.9636Z" fill="#020202"/><path d="M262.38148,149.70276c-2.09822-2.16535-4.254-4.26362-6.32366-6.44815-2.1078-2.13658-4.18707-4.31152-6.24693-6.48641-2.05026-2.18453-4.072-4.38818-5.98822-6.6685a44.39768,44.39768,0,0,1-5.19291-7.09961l-.01918-.02877a.96827.96827,0,0,0-.22035-.26825,5.8805,5.8805,0,0,1,.90057.22035c10.52009,3.37259,21.1265,10.18477,22.98519,22.33367A14.44219,14.44219,0,0,1,262.38148,149.70276Z" fill="#020202"/><path d="M256.2873,153.13535a.04559.04559,0,0,0-.04258-.01848l.06129.02567a3.2517,3.2517,0,0,1,1.261,2.33722,4.73555,4.73555,0,0,1-.68443,2.66494,11.92123,11.92123,0,0,1-1.61635,2.13845,22.78627,22.78627,0,0,1-1.93822,1.7812l.23742-.32631a27.465,27.465,0,0,1-2.20769,4.73543,25.488,25.488,0,0,1-3.13352,4.167,21.88206,21.88206,0,0,1-3.95527,3.375,11.17391,11.17391,0,0,1-4.8942,1.79618,9.45569,9.45569,0,0,1-2.65377-.11667,6.42362,6.42362,0,0,1-1.30618-.25783c-.425-.13011-.86946-.22117-1.284-.38847a13.90333,13.90333,0,0,1-4.48555-2.9057,20.03881,20.03881,0,0,1-5.38823-9.06923l.15742.31105c-.7242-.94127-1.37-1.90682-2.01377-2.8906a32.12136,32.12136,0,0,1-1.759-3.06721,15.74964,15.74964,0,0,1-.69871-1.66045,4.48182,4.48182,0,0,1-.31555-1.902,1.1572,1.1572,0,0,1,.6821-.96689,1.815,1.815,0,0,1,1.02548-.04666,6.43633,6.43633,0,0,1,1.67273.64244l-.09942.01123.11743-.072.10362.13345-.10222.0969-.03087.02924-.06877-.01795a7.8021,7.8021,0,0,0-1.65238-.30859,1.24124,1.24124,0,0,0-.67648.13c-.14012.09345-.16725.22345-.17614.43906a3.79262,3.79262,0,0,0,.45637,1.44758,14.66536,14.66536,0,0,0,.8332,1.44817,61.29284,61.29284,0,0,0,4.05164,5.47987l.08515.10532.07251.20608a23.04723,23.04723,0,0,0,4.84836,8.38567,14.10624,14.10624,0,0,0,3.86872,2.86809c.3614.1793.74455.3107,1.11881.47128a5.63378,5.63378,0,0,0,1.164.36871,8.10323,8.10323,0,0,0,2.41354.356,8.38938,8.38938,0,0,0,4.65046-1.49132,13.68679,13.68679,0,0,0,3.52112-3.53019,34.77522,34.77522,0,0,0,2.57143-4.29368c.76747-1.47168,1.52887-2.9871,2.13447-4.50357l.08351-.209.15415-.1176.98572-.752c.30877-.26812.63461-.52426.93192-.80285a11.87807,11.87807,0,0,0,1.636-1.77729,4.35653,4.35653,0,0,0,.89472-2.1136,3.08346,3.08346,0,0,0-.71531-2.21564l.061.0255a.14183.14183,0,0,1-.07626-.03538Z" fill="#020202"/><path d="M244.62757,163.21159a3.86093,3.86093,0,0,1-.40444.79817,6.04168,6.04168,0,0,1-.49075.702,7.742,7.742,0,0,1-1.18385,1.25776,5.41482,5.41482,0,0,1-3.18288,1.41343,5.85931,5.85931,0,0,1-3.32042-.88238,3.14772,3.14772,0,0,1-.72233-.45292c-.226-.1731-.46923-.32538-.70478-.49117-.429-.3725-.84771-.763-1.27507-1.15279l-.46526-.4242.68186-.098c.93636-.13462,1.88863-.24544,2.84862-.34064.95975-.10187,1.93354-.18321,2.87739-.215.9532-.04836,1.8643-.04549,2.77282-.07777Zm-.072.04432-2.93306.44608c-.92537.12865-1.8484.29233-2.72932.40491-.89028.129-1.75016.20859-2.62453.26759-.87414.06568-1.75577.11573-2.6533.142l.21637-.5221c.35018.41432.68327.85636,1.05309,1.26449a6.787,6.787,0,0,0,1.29261,1.00963,4.01848,4.01848,0,0,0,3.10593.50263,7.92088,7.92088,0,0,0,2.84323-1.33542A19.56788,19.56788,0,0,0,244.55553,163.25591Z" fill="#020202"/><path d="M239.0894,152.42261a7.80343,7.80343,0,0,1,.83227,1.93588,9.84146,9.84146,0,0,1,.38011,2.07266,4.19478,4.19478,0,0,1-.36327,2.23868,1.18006,1.18006,0,0,1-.5511.50672.99584.99584,0,0,1-.72-.025,2.07045,2.07045,0,0,1-.833-.74426,3.40057,3.40057,0,0,0,.9546.23187c.295-.01.31953-.1159.39719-.336a6.46812,6.46812,0,0,0,.04585-1.80512A32.643,32.643,0,0,1,239.0894,152.42261Z" fill="#020202"/><path d="M246.38263,146.76321a7.55327,7.55327,0,0,1-2.34382.33854,10.49452,10.49452,0,0,1-1.14081-.0707,5.32146,5.32146,0,0,1-1.20232-.26784,3.77055,3.77055,0,0,1,2.34383-.73338,4.57907,4.57907,0,0,1,1.20957.16813A2.97193,2.97193,0,0,1,246.38263,146.76321Z" fill="#020202"/><path d="M235.93085,146.76321a7.55337,7.55337,0,0,1-2.34383.33854,10.49419,10.49419,0,0,1-1.1408-.0707,5.32142,5.32142,0,0,1-1.20233-.26784,3.77057,3.77057,0,0,1,2.34383-.73338,4.57915,4.57915,0,0,1,1.20958.16813A2.972,2.972,0,0,1,235.93085,146.76321Z" fill="#020202"/><path d="M230.17116,152.10782a7.55327,7.55327,0,0,1,2.33517-.39438,10.48819,10.48819,0,0,1,1.142.04351,5.32069,5.32069,0,0,1,1.2084.23906,3.77086,3.77086,0,0,1-2.32582.789,4.58249,4.58249,0,0,1-1.21331-.13918A2.97316,2.97316,0,0,1,230.17116,152.10782Z" fill="#020202"/><path d="M242.76491,151.85852a7.55336,7.55336,0,0,1,2.33517-.39432,10.4793,10.4793,0,0,1,1.14221.04345,5.32214,5.32214,0,0,1,1.20817.23906,3.76939,3.76939,0,0,1-2.32559.78906,4.5797,4.5797,0,0,1-1.21331-.13918A2.97237,2.97237,0,0,1,242.76491,151.85852Z" fill="#020202"/><path d="M238.39023,122.70307a6.3274,6.3274,0,0,0-1.04443-.10543.96153.96153,0,0,1,.99648.06707A.20919.20919,0,0,1,238.39023,122.70307Z" fill="#fff"/><path d="M245.8734,127.19792a38.45235,38.45235,0,0,0-3.58872-5.80524,13.01256,13.01256,0,0,0-2.29-2.34862,4.50053,4.50053,0,0,0-2.76441-1.09215,4.43156,4.43156,0,0,0-2.7506,1.074,10.24144,10.24144,0,0,0-1.199,1.08589c-.34526.43041-.73543.82479-1.0601,1.283a53.09055,53.09055,0,0,0-3.6044,5.809,25.58784,25.58784,0,0,1,2.78289-6.382,11.41439,11.41439,0,0,1,2.32207-2.74558,5.572,5.572,0,0,1,3.52089-1.407,5.62809,5.62809,0,0,1,3.50545,1.42507,12.16662,12.16662,0,0,1,2.34921,2.71844A21.87685,21.87685,0,0,1,245.8734,127.19792Z" fill="#020202"/><path d="M231.74049,181.197l-.99367-.4042c1.21636-2.9871-.01122-8.08363-.02432-8.1351l1.04232-.2559C231.81909,172.6245,233.08784,177.88665,231.74049,181.197Z" fill="#020202"/><path d="M244.633,182.20987c-1.28372-2.43506-.6035-8.53743-.57356-8.79567l1.06478.12163c-.18994,1.67062-.48,6.39524.45754,8.17439Z" fill="#020202"/><path d="M283.80481,239.33447c-6.09348-20.80071-8.45041-45.52968-8.45041-45.52968,15.95253-14.16091,34.75088-38.133,34.75088-38.133a165.46384,165.46384,0,0,0,2.98919-31.9915c-.31625.02877-.63227.0479-.94852.06708a22.23787,22.23787,0,0,1-.22035,2.242,13.59768,13.59768,0,0,1-.93893,3.39171,13.59813,13.59813,0,0,1-.93894-3.39171,22.17418,22.17418,0,0,1-.22035-2.242,21.72006,21.72006,0,0,1-2.23248-.21076,14.00483,14.00483,0,0,1-3.40136-.94858,13.56056,13.56056,0,0,1,3.40136-.93894,22.16446,22.16446,0,0,1,2.24184-.21076,22.14486,22.14486,0,0,1,.211-2.242,13.59813,13.59813,0,0,1,.93894-3.39171,13.59768,13.59768,0,0,1,.93893,3.39171,22.21073,22.21073,0,0,1,.21076,2.242q.47437.0287.94852.05749a202.90736,202.90736,0,0,0-1.43717-23.70377c-5.14519,2.82639-10.55845,0-10.55845,0s-6.17021,39.89589-9.52362,44.01577c-.94852,1.17852-5.19291,4.56064-10.76921,8.80509.6131.03836,1.22642.09584,1.83951.19163a14.47347,14.47347,0,0,1,3.39177.939,13.60283,13.60283,0,0,1-3.39177.93894,22.18951,22.18951,0,0,1-2.24207.22035,22.07472,22.07472,0,0,1-.21076,2.242,13.59853,13.59853,0,0,1-.93893,3.39171,14.06111,14.06111,0,0,1-.94853-3.39171,22.21018,22.21018,0,0,1-.21076-2.242c-.09567-.00959-.19157-.00959-.28748-.01913h-.01918C263.80906,163.423,244.388,177.32519,244.388,177.32519v-.42157l-2.19412,13.452a3.70264,3.70264,0,0,1-6.83149,1.29343,3.92638,3.92638,0,0,1-.38315-.90063l-3.73656-13.42321a55.94769,55.94769,0,0,1-12.95374-1.86827c-6.99429-1.86834-36.63833-25.92661-39.72343-28.69558-1.77261-1.58091-4.17749-16.81491-5.90215-29.51954a11.98487,11.98487,0,0,1-.67063,2.0312,14.04989,14.04989,0,0,1-.94852-3.39176,22.1401,22.1401,0,0,1-.21076-2.242,19.73723,19.73723,0,0,1-2.24208-.22035,13.60347,13.60347,0,0,1-3.39176-.939,13.60631,13.60631,0,0,1,3.39176-.93894,19.71329,19.71329,0,0,1,2.24208-.21081,22.23371,22.23371,0,0,1,.22035-2.242,15.88934,15.88934,0,0,1,.3352-1.6c-.00936-.00959-.00936-.00959,0-.01918-.57473-4.62771-.92911-7.75118-.92911-7.75118-2.702,2.70189-11.20055-1.92576-11.20055-1.92576s-4.67549,28.3985-.9773,50.5406a11.65448,11.65448,0,0,1,.55578-1.59051,13.59813,13.59813,0,0,1,.93894,3.39171,22.21062,22.21062,0,0,1,.21075,2.242,22.18678,22.18678,0,0,1,2.24208.22034,13.561,13.561,0,0,1,3.40136.939,14.42465,14.42465,0,0,1-3.40136.93893,21.976,21.976,0,0,1-2.23249.21076c-.01918.3066-.03836.6228-.06713.9294v.02871c6.937,22.12292,36.01565,48.32736,36.01565,48.32736,2.836,16.288,9.16923,38.53544,11.33458,51.51789C215.06,301.909,220.0134,364.37814,220.0134,364.37814c33.98457,0,100.9088-37.41446,100.9088-37.41446C315.7197,313.83755,289.76427,259.704,283.80481,239.33447Zm-73.97606-57.40074a22.16171,22.16171,0,0,1-2.24184.21081,22.14364,22.14364,0,0,1-.211,2.242,13.55505,13.55505,0,0,1-.93893,3.40136,14.00154,14.00154,0,0,1-.94853-3.40136,22.02246,22.02246,0,0,1-.21075-2.23237,22.19281,22.19281,0,0,1-2.24184-.2204,13.59831,13.59831,0,0,1-3.39177-.93894,13.59828,13.59828,0,0,1,3.39177-.93893,22.19573,22.19573,0,0,1,2.24184-.22041,22.04655,22.04655,0,0,1,.22035-2.23236,13.55462,13.55462,0,0,1,.93893-3.4013,14.41532,14.41532,0,0,1,.93893,3.4013,22.14345,22.14345,0,0,1,.211,2.242,22.182,22.182,0,0,1,2.24184.21082,13.783,13.783,0,0,1,3.40135.93893A13.78306,13.78306,0,0,1,209.82875,181.93373ZM225.7621,232.024a22.152,22.152,0,0,1-2.24184.21076,19.76556,19.76556,0,0,1-.22035,2.242,13.59813,13.59813,0,0,1-.93894,3.39171,13.59768,13.59768,0,0,1-.93893-3.39171,19.73745,19.73745,0,0,1-.211-2.242,22.16419,22.16419,0,0,1-2.24184-.21076,13.6718,13.6718,0,0,1-3.40136-.93893,14.1247,14.1247,0,0,1,3.40136-.94859,22.16419,22.16419,0,0,1,2.24184-.21076,22.142,22.142,0,0,1,.211-2.242,14.02009,14.02009,0,0,1,.93893-3.39171,13.59813,13.59813,0,0,1,.93894,3.39171,22.24078,22.24078,0,0,1,.22035,2.242,22.17878,22.17878,0,0,1,2.24184.22035,13.59854,13.59854,0,0,1,3.39176.939A14.47208,14.47208,0,0,1,225.7621,232.024Zm15.41616,71.0826a19.34906,19.34906,0,0,1-2.23225.22035,22.2344,22.2344,0,0,1-.22035,2.242,13.60866,13.60866,0,0,1-.93917,3.39171,13.61819,13.61819,0,0,1-.93893-3.39171,22.2373,22.2373,0,0,1-.22035-2.242,22.22675,22.22675,0,0,1-2.23225-.21076,13.6988,13.6988,0,0,1-3.40136-.94853,13.66769,13.66769,0,0,1,3.40136-.939,22.15172,22.15172,0,0,1,2.24184-.21076,22.21073,22.21073,0,0,1,.21076-2.242,13.61819,13.61819,0,0,1,.93893-3.39171,13.60866,13.60866,0,0,1,.93917,3.39171,19.68424,19.68424,0,0,1,.21053,2.242,19.72049,19.72049,0,0,1,2.24207.22035,13.94415,13.94415,0,0,1,3.40136.9294A13.55737,13.55737,0,0,1,241.17826,303.10664ZM258.865,193.69942a19.69774,19.69774,0,0,1-2.24184-.21082,13.60109,13.60109,0,0,1-3.39177-.93893,14.05381,14.05381,0,0,1,3.39177-.94853,22.17545,22.17545,0,0,1,2.24184-.21082,22.20666,22.20666,0,0,1,.21076-2.242,14.49221,14.49221,0,0,1,.93893-3.39171,13.60866,13.60866,0,0,1,.93917,3.39171,22.2396,22.2396,0,0,1,.22035,2.242,22.20284,22.20284,0,0,1,2.24184.22041,13.59836,13.59836,0,0,1,3.39176.93894,14.01805,14.01805,0,0,1-3.39176.93893,22.14108,22.14108,0,0,1-2.24184.21082,22.21218,22.21218,0,0,1-.21076,2.242,14.25472,14.25472,0,0,1-.94876,3.40136,13.79942,13.79942,0,0,1-.93893-3.40136A22.20638,22.20638,0,0,1,258.865,193.69942Zm11.34417,58.263a22.15982,22.15982,0,0,1-2.24207.21076,19.65878,19.65878,0,0,1-.22035,2.242,13.66669,13.66669,0,0,1-.93894,3.4013,13.66623,13.66623,0,0,1-.93893-3.4013,19.5734,19.5734,0,0,1-.21076-2.23243,22.18662,22.18662,0,0,1-2.24207-.22035,13.788,13.788,0,0,1-3.40136-.93893,13.7856,13.7856,0,0,1,3.40136-.939,22.18662,22.18662,0,0,1,2.24207-.22035,21.76647,21.76647,0,0,1,.21076-2.23243,13.972,13.972,0,0,1,.93893-3.4013,13.55507,13.55507,0,0,1,.93894,3.4013,22.105,22.105,0,0,1,.22035,2.242,22.15982,22.15982,0,0,1,2.24207.21076,13.60366,13.60366,0,0,1,3.39177.939A13.606,13.606,0,0,1,270.20921,251.96242Zm17.21731,68.15077a22.1401,22.1401,0,0,1-.21076,2.242,13.5974,13.5974,0,0,1-.93893,3.39177,14.05032,14.05032,0,0,1-.94853-3.39177,22.143,22.143,0,0,1-.21075-2.242,22.16277,22.16277,0,0,1-2.24208-.21081,14.0512,14.0512,0,0,1-3.39177-.94853,13.60334,13.60334,0,0,1,3.39177-.93893,22.17724,22.17724,0,0,1,2.24208-.21082,22.17,22.17,0,0,1,.22034-2.242,13.59813,13.59813,0,0,1,.93894-3.39171,14.469,14.469,0,0,1,.93893,3.39171,22.1401,22.1401,0,0,1,.21076,2.242,22.17677,22.17677,0,0,1,2.24207.21082,14.47523,14.47523,0,0,1,3.39177.93893,13.60343,13.60343,0,0,1-3.39177.939A22.18633,22.18633,0,0,1,287.42652,320.11319Z" fill="#020202"/><path d="M286.0118,269.40961c4.6231,6.951,8.93041,14.10285,13.11561,21.32644,4.17164,7.23148,8.16621,14.571,11.87072,22.06163,7.406,14.959,14.13314,30.39561,18.09238,46.76661.12047.52847.28561.97361.36936,1.57062l.08514.9449c.01263.30532-.02433.566-.03485.85122l-.05217.83835-.11111.8011c-.08093.53058-.13613,1.07478-.24678,1.59033-.37777,2.09471-.85542,4.14357-1.371,6.17886-1.02923,4.07065-2.19623,8.08749-3.40066,12.09107-2.4016,8.00848-5.08086,15.91785-7.79311,23.81219-5.41349,15.79393-11.2237,31.43618-17.18573,47.026l-.00795.02088a.75613.75613,0,0,1-.47929.44865,47.06575,47.06575,0,0,1-5.44624,1.29916,40.73012,40.73012,0,0,1-5.55221.64075,26.44661,26.44661,0,0,1-5.62027-.28485A15.6827,15.6827,0,0,1,276.865,455.498a.5843.5843,0,0,1-.2807-.55894l4.20041-41.46586,2.16933-20.7275q.56173-5.18037,1.19413-10.35565c.47766-3.46147.80748-6.86938,1.61752-10.37249l.03579.37514c-3.68556-6.81411-7.22844-13.69583-10.57319-20.68849-1.66524-3.49925-3.28159-7.0247-4.763-10.621-.73754-1.79992-1.4484-3.61352-2.06758-5.47531a22.4,22.4,0,0,1-1.30711-5.894l1.66617.05935q-1.09191,16.82583-2.75739,33.60235c-.57192,5.59384-1.18735,11.18476-1.99576,16.76995-.4159,2.79283-.86408,5.58051-1.49729,8.3793a20.32134,20.32134,0,0,1-1.35671,4.26094l-1.83085,3.77848c-4.83712,10.11519-9.55823,20.3044-14.28121,30.48643L230.872,457.60436l-.00819.01789a1.29,1.29,0,0,1-.75788.6776,49.70223,49.70223,0,0,1-4.79853,1.33249,40.50859,40.50859,0,0,1-4.92649.81689,20.829,20.829,0,0,1-5.14776-.05924,10.62511,10.62511,0,0,1-2.65073-.74273,6.57081,6.57081,0,0,1-2.40862-1.76016,1.31992,1.31992,0,0,1-.28771-1.05624l6.781-40.32389c1.12513-6.72056,2.243-13.44315,3.30451-20.1692.51555-3.35949,1.06151-6.73441,1.47811-10.07759.34479-3.3134.46994-6.72546.59929-10.12138.4814-13.60385.75391-27.24045,1.05472-40.86862.13521-6.81529.331-13.63069.53216-20.446l.3476-10.22249c.17216-3.40855.23344-6.81178.65519-10.2222l.25029.04163c-.32748,3.36832-.30339,6.79447-.38572,10.19454l-.08141,10.22226-.05263,20.44849c-.07321,13.63444-.04467,27.2646-.35929,40.91535-.04257,1.70653-.08819,3.41352-.16865,5.12643-.055,1.701-.17193,3.44428-.33052,5.16706-.389,3.426-.89613,6.78728-1.37706,10.17062-.98946,6.75172-2.03366,13.4897-3.08557,20.227-2.08115,13.47806-4.35737,26.92051-6.59243,40.3726l-.28748-1.05589a5.53233,5.53233,0,0,0,3.46428,1.59372,18.30574,18.30574,0,0,0,4.49093.02971,37.91,37.91,0,0,0,4.59971-.77543c1.519-.34724,3.06545-.77484,4.50777-1.2608l-.76584.69526q7.03746-15.3048,14.21923-30.54017c4.7887-10.15893,9.57063-20.31563,14.48331-30.42877l1.86453-3.78808a18.36782,18.36782,0,0,0,1.19788-3.74357c.62268-2.67359,1.08583-5.43028,1.51273-8.18638.85355-5.51934,1.53191-11.08418,2.1602-16.65293,1.23531-11.14184,2.25635-22.32145,3.1899-33.4975a.8345.8345,0,0,1,1.66571.04392l.00047.01544a21.27072,21.27072,0,0,0,1.13589,5.40934c.57169,1.81834,1.24326,3.61925,1.94266,5.40922,1.40373,3.58054,2.95949,7.11318,4.57023,10.61974,3.23084,7.00967,6.67313,13.93618,10.25016,20.77983a.49571.49571,0,0,1,.04257.34854l-.00655.027c-.79976,3.2596-1.15928,6.78487-1.6498,10.19588q-.65157,5.16379-1.24677,10.337c-.77707,6.89932-1.56091,13.79976-2.22781,20.71241l-1.97541,20.74036q-.97578,10.37118-1.83108,20.7534l-.2807-.55864a14.484,14.484,0,0,0,4.96274,1.64068,25.14736,25.14736,0,0,0,5.34519.17385,39.32154,39.32154,0,0,0,5.35244-.71432,45.83893,45.83893,0,0,0,5.22262-1.34074l-.487.46929q4.27328-11.74721,8.3924-23.55815c2.73657-7.87422,5.52671-15.72856,8.18819-23.6253q4.00556-11.83922,7.74375-23.75266c1.22478-3.97433,2.41143-7.961,3.45352-11.96942.5221-2.0029,1.0042-4.01509,1.37987-6.02208.112-.50386.16257-.99876.2428-1.49794l.10971-.74683.04819-.72221c.01052-.23479.048-.49473.03742-.709l-.04748-.61321c-.04772-.43449-.22994-.98454-.33824-1.4712l-1.50759-6.02045-1.82313-5.94413c-.57169-1.99284-1.32-3.93182-2.007-5.8898-.70291-1.953-1.36934-3.91872-2.15833-5.84173l-2.2774-5.80232-2.45-5.736c-.79765-1.92073-1.67811-3.80579-2.5457-5.69659-.87788-1.88611-1.70805-3.79486-2.63716-5.65758q-10.84406-22.49453-23.88318-43.89256Z" fill="#020202"/><path d="M267.9248,329.71388c.1076-3.84252.1097-7.66645.10081-11.48306-.04-3.81685-.13309-7.62674-.35087-11.42786l-.15836-2.85107-.23883-2.84429c-.13777-1.89839-.37426-3.7872-.5787-5.68033-.24912-1.88728-.47649-3.78112-.81169-5.65986-.218-1.90653-.71086-3.75007-1.00185-5.6601a63.39732,63.39732,0,0,1,3.11715,11.11815,89.09339,89.09339,0,0,1,1.35928,11.48517,106.75816,106.75816,0,0,1-.02246,11.55346A81.07044,81.07044,0,0,1,267.9248,329.71388Z" fill="#020202"/><path d="M279.24043,271.68584a47.23194,47.23194,0,0,0,2.6002,7.56,26.28076,26.28076,0,0,0,4.12626,6.58845,15.88,15.88,0,0,0,2.82078,2.59049,15.30941,15.30941,0,0,0,3.33727,1.88887,22.61121,22.61121,0,0,0,7.73042,1.53313,15.96521,15.96521,0,0,1-8.17954-.29286,15.39807,15.39807,0,0,1-6.97651-4.60268,21.68784,21.68784,0,0,1-4.08065-7.22207A24.42222,24.42222,0,0,1,279.24043,271.68584Z" fill="#020202"/><path d="M301.56668,78.76724a9.82041,9.82041,0,0,1,.70151-2.5081c.32374-.80782.67905-1.60231,1.04864-2.38973.74408-1.57384,1.5836-3.09218,2.44511-4.60736a.30613.30613,0,0,1,.07626-.08889l.007-.00532a5.29509,5.29509,0,0,1,.756-.521,1.387,1.387,0,0,1,1.12724-.15251,1.26429,1.26429,0,0,1,.694.97338,3.36715,3.36715,0,0,1,.04538.97934l-.52257,3.32235L306.856,80.40833l-.97308-.35485A5.59365,5.59365,0,0,1,307.892,78.2573c.19322-.10678.392-.20151.59274-.29157l.65941-.22234a4.8821,4.8821,0,0,1,.74736-.09421,1.89415,1.89415,0,0,1,.81566.24485,1.8206,1.8206,0,0,1,.61286.58853,3.02262,3.02262,0,0,1,.2842.69362,5.02566,5.02566,0,0,1,.15462,1.34256,11.75582,11.75582,0,0,1-.3235,2.53248l-.57567-.55128a8.86955,8.86955,0,0,1,1.44185-.263,3.38045,3.38045,0,0,1,.79929.04257,2.471,2.471,0,0,1,.43064.14023,1.32574,1.32574,0,0,1,.40023.31906,1.29077,1.29077,0,0,1,.27157.9187,2.74761,2.74761,0,0,1-.16982.78145,5.96679,5.96679,0,0,1-.6842,1.30285l-.34362-.53245.64233-.049a1.62881,1.62881,0,0,1,.7097.11976,1.68666,1.68666,0,0,1,.96068,1.03309A1.6422,1.6422,0,0,1,315.167,87.688a9.30551,9.30551,0,0,1-.77168.96824,5.70986,5.70986,0,0,1-1.9291,1.49518,1.89728,1.89728,0,0,1-1.22221.12491,2.1708,2.1708,0,0,1-1.01168-.64285,2.10654,2.10654,0,0,0,1.03578.51958,1.81548,1.81548,0,0,0,1.10408-.21082,5.4131,5.4131,0,0,0,1.70336-1.55278,9.21819,9.21819,0,0,0,.64771-.95286,1.13966,1.13966,0,0,0,.05334-.93185,1.08188,1.08188,0,0,0-.64514-.63467,2.24688,2.24688,0,0,0-1.00911.01836l-.011.001a.35238.35238,0,0,1-.33286-.53362,5.28042,5.28042,0,0,0,.5394-1.15706c.13006-.3897.13029-.8011-.01193-.92864-.11228-.1635-.54689-.187-.93519-.14918a8.63731,8.63731,0,0,0-1.25729.26684.46818.46818,0,0,1-.57777-.54362l.00164-.00777a10.86933,10.86933,0,0,0,.23812-2.30986,4.123,4.123,0,0,0-.145-1.07291,2.07416,2.07416,0,0,0-.17426-.43309c-.08983-.089-.15485-.20976-.26152-.24146-.07509-.08842-.22807-.0531-.33894-.10286-.15345.032-.29754.02356-.45964.06859l-.49614.17187c-.17005.07848-.33824.16-.50058.25146a4.87905,4.87905,0,0,0-1.60816,1.41823l-.02222.03234a.5252.5252,0,0,1-.9511-.38719l1.16817-6.6112.60631-3.30282c.08163-.42315-.03813-1.07-.16842-1.07776-.04889-.04918-.277-.0007-.4821.09245a4.62753,4.62753,0,0,0-.64444.4028l.083-.09391c-.93285,1.44659-1.80138,2.94265-2.6678,4.43467-.42619.75034-.83882,1.5084-1.221,2.28184A11.34723,11.34723,0,0,0,301.56668,78.76724Z" fill="#020202"/><path d="M313.06383,85.5489a9.57312,9.57312,0,0,1-1.08887,1.47829,10.03649,10.03649,0,0,1-1.33145,1.27735,4.93277,4.93277,0,0,1-1.65307.908,1.67461,1.67461,0,0,1-.99227.00005,1.05745,1.05745,0,0,1-.61824-.71385,1.0997,1.0997,0,0,0,1.47975.3286,7.15856,7.15856,0,0,0,1.45752-.93865C311.25122,87.15952,312.12092,86.33257,313.06383,85.5489Z" fill="#020202"/><path d="M310.98643,82.94391a10.2877,10.2877,0,0,1-1.30033,1.91114,9.22651,9.22651,0,0,1-1.71156,1.59366,3.72571,3.72571,0,0,1-2.27552.74105,1.44889,1.44889,0,0,1-.60257-.13684l-.28794-.10889-.244-.184a3.0147,3.0147,0,0,1-.74876-.8984,2.58829,2.58829,0,0,0,1.89518.92144,3.96184,3.96184,0,0,0,1.96512-.77069A22.82644,22.82644,0,0,0,310.98643,82.94391Z" fill="#020202"/><path d="M313.88136,89.0171a23.91212,23.91212,0,0,0-1.159,4.41666,24.30137,24.30137,0,0,0-.17684,4.56269,7.40761,7.40761,0,0,1,1.33588-8.97935Z" fill="#020202"/><path d="M300.97464,95.50958l-1.07765-1.1163.0517.03293a5.06749,5.06749,0,0,1-1.82547-1.07256,14.929,14.929,0,0,1-1.49729-1.464,37.85272,37.85272,0,0,1-2.60582-3.2582l.04819.06105a6.03114,6.03114,0,0,1-1.11905-1.52793,4.57013,4.57013,0,0,1-.3483-.91765,3.40454,3.40454,0,0,1-.11158-1.0425l-.003.04158a4.82022,4.82022,0,0,1,1.07438-2.78043,8.63438,8.63438,0,0,1,2.11693-1.93915,9.0921,9.0921,0,0,1,5.41559-1.61881,6.623,6.623,0,0,1,.74619.13543,4.64431,4.64431,0,0,1,.71672.28456,2.26852,2.26852,0,0,1,.65426.51368,1.33525,1.33525,0,0,1,.32771.87829,2.22541,2.22541,0,0,1-.705,1.42718,6.04131,6.04131,0,0,1-1.0884.905,9.22012,9.22012,0,0,1-5.13163,1.79834,11.22931,11.22931,0,0,0,2.55739-.81964,8.73283,8.73283,0,0,0,1.1511-.65244l1.06221-.79573a5.455,5.455,0,0,0,.93776-.88706,1.5606,1.5606,0,0,0,.44421-.96256c-.00492-.25005-.24842-.475-.59953-.63549a3.69944,3.69944,0,0,0-1.14267-.26871,6.55239,6.55239,0,0,0-2.46734.42789,9.86593,9.86593,0,0,0-2.30055,1.13993,8.54809,8.54809,0,0,0-1.86734,1.70009,3.86585,3.86585,0,0,0-.89707,2.17851l-.0021.03257-.00094.00942a2.60747,2.60747,0,0,0,.06129.703,3.60241,3.60241,0,0,0,.25122.734,5.44227,5.44227,0,0,0,.90666,1.33483l.0166.01871.03182.04269a37.14334,37.14334,0,0,0,2.33283,3.34739c.42526.5301.86689,1.04483,1.32864,1.53875a4.8041,4.8041,0,0,0,1.58734,1.188l.01825.00719a.07584.07584,0,0,1,.03368.026Z" fill="#020202"/><path d="M296.34172,84.87909a4.80433,4.80433,0,0,1,2.57938-.24012,5.47084,5.47084,0,0,1,2.44254,1.0818,5.53154,5.53154,0,0,1,1.64559,2.09863,5.10514,5.10514,0,0,1,.47087,2.54359,9.58231,9.58231,0,0,0-2.76628-3.80849A8.519,8.519,0,0,0,296.34172,84.87909Z" fill="#020202"/><path d="M170.33455,79.83974a11.32214,11.32214,0,0,0-.9249-2.40962c-.38222-.7735-.79461-1.5315-1.2208-2.2819-.86642-1.492-1.73495-2.98808-2.668-4.43467l.083.094a4.63367,4.63367,0,0,0-.64443-.40286c-.20491-.0931-.43321-.14163-.48187-.09239-.13029.00772-.25029.65461-.16842,1.07776l.60608,3.30276,1.16817,6.6112a.52523.52523,0,0,1-.95087.38771l-.02222-.0328a4.8792,4.8792,0,0,0-1.60816-1.41829c-.16257-.09146-.33076-.173-.50058-.25146l-.49637-.17181c-.1621-.04509-.306-.03661-.45964-.06859-.11088.04976-.26386.01444-.33894.10286-.10644.0317-.17146.15245-.26152.24146a2.06136,2.06136,0,0,0-.174.43309,4.11267,4.11267,0,0,0-.14527,1.07291,10.90014,10.90014,0,0,0,.23813,2.30985l.00117.00556a.46778.46778,0,0,1-.36514.55175.47584.47584,0,0,1-.21193-.00591,8.62939,8.62939,0,0,0-1.25729-.26684c-.38853-.03783-.82291-.01433-.93543.14912-.142.1276-.142.539-.01169.92864a5.28079,5.28079,0,0,0,.53917,1.15712.35218.35218,0,0,1-.33263.53362l-.011-.001a2.248,2.248,0,0,0-1.00934-.01831,1.0819,1.0819,0,0,0-.64491.63462,1.13892,1.13892,0,0,0,.05334.93191,9.14365,9.14365,0,0,0,.64771.9528,5.4148,5.4148,0,0,0,1.70313,1.55278,1.81582,1.81582,0,0,0,1.10408.21088,2.10786,2.10786,0,0,0,1.036-.51964,2.17,2.17,0,0,1-1.01192.64291,1.89657,1.89657,0,0,1-1.222-.12491,5.71383,5.71383,0,0,1-1.92933-1.49518,9.37391,9.37391,0,0,1-.77168-.9683,1.64206,1.64206,0,0,1-.15111-1.37477,1.68616,1.68616,0,0,1,.96068-1.03309,1.62875,1.62875,0,0,1,.7097-.1197l.64233.049-.34385.53245a5.97673,5.97673,0,0,1-.6842-1.30285,2.74726,2.74726,0,0,1-.16959-.78145,1.29039,1.29039,0,0,1,.27134-.9187,1.32762,1.32762,0,0,1,.40046-.31906,2.4742,2.4742,0,0,1,.43041-.14023,3.38189,3.38189,0,0,1,.79952-.04263,8.875,8.875,0,0,1,1.44185.263l-.5759.55122a11.76968,11.76968,0,0,1-.3235-2.53243,5.02618,5.02618,0,0,1,.15461-1.34261,3.033,3.033,0,0,1,.28421-.69356,1.82142,1.82142,0,0,1,.61309-.58859,1.894,1.894,0,0,1,.81543-.24479,4.86,4.86,0,0,1,.74736.09421l.65964.22234c.2007.09006.39929.18479.59274.29151a5.59768,5.59768,0,0,1,2.00909,1.79624l-.97332.35485-1.08934-6.639-.52233-3.32229a3.367,3.367,0,0,1,.04538-.97934,1.26458,1.26458,0,0,1,.69379-.97344,1.38759,1.38759,0,0,1,1.12747.15251,5.28852,5.28852,0,0,1,.75578.521l.00585.00438a.30979.30979,0,0,1,.07742.08983c.86151,1.51518,1.70127,3.03352,2.44512,4.6073.36958.78748.72513,1.58191,1.04887,2.38979A9.8095,9.8095,0,0,1,170.33455,79.83974Z" fill="#020202"/><path d="M158.83763,86.62146c.94268.78361,1.81261,1.61062,2.74663,2.33973a7.15211,7.15211,0,0,0,1.45752.9387,1.0997,1.0997,0,0,0,1.47975-.32865,1.0571,1.0571,0,0,1-.61847.71385,1.67406,1.67406,0,0,1-.99227,0A4.93163,4.93163,0,0,1,161.258,89.377a10.00811,10.00811,0,0,1-1.33145-1.2773A9.54266,9.54266,0,0,1,158.83763,86.62146Z" fill="#020202"/><path d="M160.915,84.01641a22.8058,22.8058,0,0,0,3.31013,3.06849,3.96288,3.96288,0,0,0,1.96535.77069,2.58876,2.58876,0,0,0,1.89518-.92139,3.011,3.011,0,0,1-.749.89835l-.244.184-.28771.10883a1.449,1.449,0,0,1-.6028.13684,3.725,3.725,0,0,1-2.27529-.741,9.22033,9.22033,0,0,1-1.71179-1.59372A10.27289,10.27289,0,0,1,160.915,84.01641Z" fill="#020202"/><path d="M158.01986,90.08966a7.40756,7.40756,0,0,1,1.33589,8.97935,24.26323,24.26323,0,0,0-.17684-4.56275A23.89386,23.89386,0,0,0,158.01986,90.08966Z" fill="#020202"/><path d="M170.92659,96.58214l.91811-1.25226a.07743.07743,0,0,1,.03345-.02585l.01848-.00731a4.80068,4.80068,0,0,0,1.58735-1.18794c.462-.49391.90338-1.00864,1.32887-1.5388a37.17316,37.17316,0,0,0,2.33283-3.34739l.03065-.04134.01777-.02a5.43464,5.43464,0,0,0,.90642-1.33484,3.58948,3.58948,0,0,0,.25123-.734,2.58857,2.58857,0,0,0,.06128-.703l-.0007-.007-.0021-.035a3.86763,3.86763,0,0,0-.89707-2.17857,8.556,8.556,0,0,0-1.86757-1.7,9.87158,9.87158,0,0,0-2.30032-1.14,6.55309,6.55309,0,0,0-2.46734-.42783,3.70246,3.70246,0,0,0-1.14291.26865c-.3511.16059-.59437.38549-.59952.63555a1.56128,1.56128,0,0,0,.44444.96256,5.45378,5.45378,0,0,0,.93753.88706l1.06221.79572a8.73413,8.73413,0,0,0,1.15133.65239,11.22648,11.22648,0,0,0,2.55739.8197,9.22152,9.22152,0,0,1-5.13186-1.79834,6.03139,6.03139,0,0,1-1.08817-.905,2.22331,2.22331,0,0,1-.705-1.42723,1.33525,1.33525,0,0,1,.32771-.87829,2.26508,2.26508,0,0,1,.65426-.51362,4.6349,4.6349,0,0,1,.71672-.28462,6.6,6.6,0,0,1,.74619-.13537,9.09183,9.09183,0,0,1,5.41536,1.61875,8.635,8.635,0,0,1,2.11693,1.93921,4.81677,4.81677,0,0,1,1.07437,2.78043l-.00281-.04164a3.404,3.404,0,0,1-.11181,1.04256,4.55593,4.55593,0,0,1-.34806.91759,6.03146,6.03146,0,0,1-1.11905,1.528l.04819-.06111a37.94385,37.94385,0,0,1-2.60582,3.25826,14.96542,14.96542,0,0,1-1.49729,1.464,5.0703,5.0703,0,0,1-1.82547,1.07256l.05146-.03293Z" fill="#020202"/><path d="M175.55951,85.95164a8.51851,8.51851,0,0,0-4.37187,1.67542,9.58231,9.58231,0,0,0-2.76628,3.80849,5.10768,5.10768,0,0,1,.47063-2.54365,5.53659,5.53659,0,0,1,1.6456-2.09863,5.47092,5.47092,0,0,1,2.44277-1.08174A4.80243,4.80243,0,0,1,175.55951,85.95164Z" fill="#020202"/><path d="M305.87188,481.468c-10.37272,0-22.30051-.61332-24.3468-2.65961-2.70125-2.70266-2.54967-16.99486-.844-22.42028l1.11344.34994c-1.65986,5.28273-1.60279,19.08512.55578,21.24462,3.06242,3.06194,36.18664,2.49961,39.08532,1.673.86361-.247,1.702-1.75156,1.60746-3.84229-.059-1.30992-.70923-5.6715-6.602-6.79382-5.72718-1.091-15.8978-3.24253-19.65822-5.39174-3.33-1.90267-1.23132-7.8937-1.14057-8.14773l1.10034.39345c-.52678,1.47553-1.44092,5.563.62034,6.74,2.63856,1.50875,9.67192,3.42545,19.297,5.25888,5.3501,1.01893,7.40762,4.74286,7.54984,7.88854.11134,2.46921-.92069,4.57959-2.45424,5.01748C320.54958,481.12322,313.64815,481.468,305.87188,481.468Z" fill="#020202"/><path d="M295.98645,461.98083a14.54978,14.54978,0,0,1-15.73692.47662l-.0012-.006c-.52779,6.252-.06577,14.18825,1.68979,15.94382,3.3632,3.3632,36.71491,2.66253,39.6577,1.82173s3.7836-10.08959-5.04479-11.77119-16.53572-3.64346-19.47852-5.32506"/><path d="M235.91634,481.49561H211.80813l-.06175-.51461c-.073-.61613-1.77214-15.17079.4407-22.86144l1.12279.3228c-1.92091,6.67453-.74385,19.1988-.46035,21.88555h22.12462c1.31928-6.78868-2.38219-10.09249-4.61281-12.08358a10.85984,10.85984,0,0,1-1.14618-1.112c-1.46992-1.8091-.98338-9.0483-.92256-9.86794l1.164.08608c-.21427,2.91692-.22362,7.95218.66432,9.0455a10.76779,10.76779,0,0,0,1.018.97729c2.3092,2.06126,6.60856,5.89747,4.87946,13.66531Z"/><path d="M171.389,107.48819a22.681,22.681,0,0,1,1.112,4.81479,22.43284,22.43284,0,0,1,.16233,4.93882,22.434,22.434,0,0,1-1.112-4.81479A22.68043,22.68043,0,0,1,171.389,107.48819Z" fill="#020202"/><path d="M158.28208,148.33267a13.22764,13.22764,0,0,1,1.291,3.53515,13.07271,13.07271,0,0,1,.357,3.7465,13.08125,13.08125,0,0,1-1.291-3.53516A13.22735,13.22735,0,0,1,158.28208,148.33267Z" fill="#020202"/><path d="M275.54668,154.56129a23.29828,23.29828,0,0,1,3.68674-3.391,23.03419,23.03419,0,0,1,4.26473-2.62751,23.04342,23.04342,0,0,1-3.68673,3.391A23.30087,23.30087,0,0,1,275.54668,154.56129Z" fill="#020202"/><path d="M312.73846,116.88935a18.96618,18.96618,0,0,1,.52022,4.48532,18.73765,18.73765,0,0,1-.43718,4.49421,18.74849,18.74849,0,0,1-.52023-4.48532A18.9655,18.9655,0,0,1,312.73846,116.88935Z" fill="#020202"/><path d="M448.5338,173.47361c-.01918-.02877-.02877-.05748-.04795-.08626,3.22872,2.357,5.39407,3.93784,5.39407,3.93784v-.42157l2.20372,13.452a3.6705,3.6705,0,0,0,3.66966,3.10429,3.61351,3.61351,0,0,0,3.15223-1.81086,3.54612,3.54612,0,0,0,.38316-.90063l3.73655-13.42321a50.41959,50.41959,0,0,0,6.56319-.56525s-4.37866,23.82833-15.09991,24.84393C447.75767,202.61947,448.5338,173.47361,448.5338,173.47361Z"/><path d="M522.72062,166.23026a7.93254,7.93254,0,0,0-6.908-5.68162c-2.58687-5.69121-7.49253-4.50316-7.49253-4.50316-3.20019,2.4719-16.21124,13.27947-24.40318,17.706.62268,2.10787,8.70936,31.19624-12.98251,47.02433-22.51572,16.43165-43.76194-16.64268-34.89937-54.77567a1.07132,1.07132,0,0,1,1.327-.728c-7.205-5.2601-14.48658-10.58722-16.61357-12.18726-5.62425.45035-7.14774,5.84454-7.14774,5.84454-5.78682,1.3701-6.39056,6.25647-6.39056,6.25647-5.93068,1.96412-5.27922,6.96552-5.27922,6.96552s5.0301,7.49247,20.99246,21.65338c0,0-2.36675,24.729-8.45065,45.52968-5.969,20.36954-31.91488,74.50308-37.127,87.62921,0,0,66.93383,37.41446,100.9088,37.41446,0,0,4.963-62.46915,12.73316-108.88986,2.17494-12.98245,8.4986-35.22993,11.34418-51.51789a231.6978,231.6978,0,0,0,26.96127-31.25373C528.249,167.16919,522.72062,166.23026,522.72062,166.23026ZM412.21149,314.43157c-4.63713,0-4.62778-7.18586,0-7.18586S416.82967,314.43157,412.21149,314.43157ZM418.698,267.2635c-4.62778,0-4.61818-7.18587,0-7.18587C423.33531,260.07763,423.32572,267.2635,418.698,267.2635Zm9.7346-50.9334c-4.63736,0-4.62777-7.18586,0-7.18586C433.06009,209.14424,433.0505,216.3301,428.43255,216.3301Zm0-43.58467c-4.63736,0-4.62777-7.18586,0-7.18586C433.06009,165.55957,433.0505,172.74543,428.43255,172.74543Zm19.43038,137.75783c-4.62754,0-4.618-7.18586,0-7.18586C452.50029,303.3174,452.4907,310.50326,447.86293,310.50326Zm2.96066-57.439c-4.62777,0-4.62777-7.18587,0-7.18587S455.45137,253.06428,450.82359,253.06428Zm10.8843,97.57446c-4.62777,0-4.62777-7.18587,0-7.18587C466.33543,343.45287,466.33543,350.63874,461.70789,350.63874Zm14.48658-65.23806c-4.62777,0-4.62777-7.18587,0-7.18587S480.82225,285.40068,476.19447,285.40068Zm7.73206-59.92059c-4.62777,0-4.61818-7.18586,0-7.18586C488.56366,218.29423,488.55431,225.48009,483.92653,225.48009Zm17.476-31.24413c-4.63736,0-4.62777-7.18587,0-7.18587C506.03009,187.05009,506.02074,194.236,501.40255,194.236Z"/><circle cx="485.89943" cy="160.88075" r="5.51735" fill="#020202"/><circle cx="483.93068" cy="153.08921" r="5.51735" fill="#020202"/><circle cx="488.03621" cy="169.15191" r="5.51735" fill="#020202"/><circle cx="506.91888" cy="210.19377" r="5.51735" fill="#020202"/><circle cx="504.30851" cy="202.59311" r="5.51735" fill="#020202"/><circle cx="509.73661" cy="218.2584" r="5.51735" fill="#020202"/><path d="M521.25605,233.33411c-3.03657.2536-12.43037-5.33652-12.684-8.3731a5.51736,5.51736,0,0,1,5.039-5.95739C516.64769,218.75,524.29263,233.08051,521.25605,233.33411Z" fill="#020202"/><path d="M482.02181,470.65207l1.19221,5.466c2.20709,7.66577,2.73259,4.79384,2.73259,4.79384h-23.122c-1.9969-8.97425,4.4142-12.46614,5.7805-14.14774s10.85177,1.846,10.85177,1.846Z"/><path d="M478.26428,153.52479h-.11l-.33508-.00323a7.34605,7.34605,0,0,1-3.95243-1.24406.27743.27743,0,0,0-.03912-.02317c-1.459-.51039-11.01444-8.66947-13.38938-14.696,0,0-9.06932,11.96845-16.98924,14.6732a4.79288,4.79288,0,0,0-1.403.96358.02954.02954,0,0,1-.01692.00846c-.38877.13521-7.64092,2.52723-6.03507-7.9452,1.85968-12.146,13.401-20.04255,24.445-20.33625C476.03475,124.5074,491.91468,149.9241,478.26428,153.52479Z" fill="#020202"/><path d="M442.10582,153.25488a.14183.14183,0,0,1-.07626.03538l.06105-.0255a3.08348,3.08348,0,0,0-.71484,2.21564,4.35728,4.35728,0,0,0,.89472,2.11319,11.891,11.891,0,0,0,1.63577,1.77729c.29754.27859.62338.53473.93215.80279l.98548.75222.15415.11777.08351.209c.60584,1.51641,1.36723,3.03171,2.13331,4.50414a34.62649,34.62649,0,0,0,2.57025,4.29492,13.68606,13.68606,0,0,0,3.52276,3.52907,8.39159,8.39159,0,0,0,4.65117,1.48758,8.08593,8.08593,0,0,0,2.41236-.35666,5.62467,5.62467,0,0,0,1.1635-.36882c.37449-.15994.75671-.29327,1.119-.46994a14.13,14.13,0,0,0,3.86849-2.86674,23.06393,23.06393,0,0,0,4.8514-8.38392l.07274-.20614.08468-.10456a61.78132,61.78132,0,0,0,4.057-5.47735,14.70184,14.70184,0,0,0,.83367-1.44893,3.799,3.799,0,0,0,.45731-1.45127c-.00538-.21725-.03486-.35356-.17942-.44841a1.25547,1.25547,0,0,0-.68279-.13117,7.92988,7.92988,0,0,0-1.65682.30672l-.06877-.1545a6.36355,6.36355,0,0,1,1.66828-.64438,1.80693,1.80693,0,0,1,1.0194.04538,1.15655,1.15655,0,0,1,.679.95753,4.47485,4.47485,0,0,1-.31485,1.89828,15.799,15.799,0,0,1-.698,1.65969,31.78983,31.78983,0,0,1-1.75576,3.06884c-.64467.98291-1.28747,1.95056-2.01214,2.8916l.15719-.3104a20.02432,20.02432,0,0,1-5.38519,9.071,13.88524,13.88524,0,0,1-4.48555,2.907c-.41356.17-.85894.25918-1.284.38982a6.42793,6.42793,0,0,1-1.30665.25783,9.47635,9.47635,0,0,1-2.6547.116,11.16958,11.16958,0,0,1-4.8935-1.8,21.90321,21.90321,0,0,1-3.95386-3.3761,25.57342,25.57342,0,0,1-3.13447-4.16579,27.27759,27.27759,0,0,1-2.20885-4.73484l.23742.32642a22.64278,22.64278,0,0,1-1.93822-1.781,11.90392,11.90392,0,0,1-1.61682-2.13851,4.73645,4.73645,0,0,1-.6842-2.66529,3.25161,3.25161,0,0,1,1.2615-2.33722l.06129-.02567a.04535.04535,0,0,0-.04257.01848Z" fill="#020202"/><path d="M453.71806,163.25591a19.56708,19.56708,0,0,0,2.429,2.1798,7.921,7.921,0,0,0,2.84323,1.33542,4.01848,4.01848,0,0,0,3.10593-.50263,6.778,6.778,0,0,0,1.29238-1.00963c.37-.40813.70315-.85017,1.05332-1.26449l.21637.5221c-.89753-.02626-1.77916-.07631-2.6533-.142-.87437-.059-1.73424-.13859-2.62453-.26759-.88092-.11258-1.80395-.27626-2.72931-.40491Zm-.072-.04432,2.56909.03649c.90852.03228,1.81962.02941,2.77283.07777.94361.03182,1.91763.11316,2.87738.215.96.0952,1.91226.206,2.84862.34064l.68186.098-.46526.4242c-.42736.38976-.84607.78029-1.27507,1.15279-.23555.16579-.47882.31807-.70478.49117a3.14772,3.14772,0,0,1-.72233.45292,5.8598,5.8598,0,0,1-3.32042.88238,5.41482,5.41482,0,0,1-3.18288-1.41343,7.742,7.742,0,0,1-1.18385-1.25776,6.04168,6.04168,0,0,1-.49075-.702A3.86093,3.86093,0,0,1,453.646,163.21159Z" fill="#020202"/><path d="M459.18418,152.42261a32.643,32.643,0,0,1-.14269,4.07544,6.46812,6.46812,0,0,0,.04585,1.80512c.07766.22012.10222.326.39719.336a3.40057,3.40057,0,0,0,.9546-.23187,2.07038,2.07038,0,0,1-.833.74426.99584.99584,0,0,1-.72.025,1.18175,1.18175,0,0,1-.55133-.50672,4.19672,4.19672,0,0,1-.363-2.23868,9.84146,9.84146,0,0,1,.38011-2.07266A7.8038,7.8038,0,0,1,459.18418,152.42261Z" fill="#020202"/><path d="M451.891,146.76321a2.97193,2.97193,0,0,1,1.13355-.56525,4.57907,4.57907,0,0,1,1.20957-.16813,3.77053,3.77053,0,0,1,2.34383.73338,5.32146,5.32146,0,0,1-1.20232.26784,10.49452,10.49452,0,0,1-1.14081.0707A7.55232,7.55232,0,0,1,451.891,146.76321Z" fill="#020202"/><path d="M462.34273,146.76321a2.972,2.972,0,0,1,1.13356-.56525,4.579,4.579,0,0,1,1.20957-.16813,3.77055,3.77055,0,0,1,2.34383.73338,5.32142,5.32142,0,0,1-1.20233.26784,10.49419,10.49419,0,0,1-1.1408.0707A7.55243,7.55243,0,0,1,462.34273,146.76321Z" fill="#020202"/><path d="M468.10242,152.10782a2.97254,2.97254,0,0,1-1.14665.53806,4.57965,4.57965,0,0,1-1.21308.13918,3.77086,3.77086,0,0,1-2.32582-.789,5.32066,5.32066,0,0,1,1.20841-.23906,10.48791,10.48791,0,0,1,1.142-.04351A7.55327,7.55327,0,0,1,468.10242,152.10782Z" fill="#020202"/><path d="M455.50867,151.85852a2.9723,2.9723,0,0,1-1.14665.53807,4.5797,4.5797,0,0,1-1.21331.13918,3.7705,3.7705,0,0,1-2.32582-.78906,5.32636,5.32636,0,0,1,1.20841-.23906,10.479,10.479,0,0,1,1.1422-.04345A7.55332,7.55332,0,0,1,455.50867,151.85852Z" fill="#020202"/><path d="M466.53309,181.197c-1.34735-3.31036-.0786-8.57251-.02433-8.7952l1.04232.2559c-.0131.05147-1.24068,5.148-.02432,8.1351Z" fill="#020202"/><path d="M453.63969,182.21033l-.94875-.50058c.93846-1.77868.64841-6.5033.45847-8.17392l1.06478-.12163C454.24413,173.67244,454.92436,179.77481,453.63969,182.21033Z" fill="#020202"/><path d="M412.48213,269.53417q-10.08022,22.10145-18.63718,44.83349c-5.6191,15.16078-10.77576,30.52666-14.36495,46.24358l-.175.735a5.31066,5.31066,0,0,0-.0697.606,12.08364,12.08364,0,0,0,.00023,1.39922c.04772.96584.1469,1.953.27158,2.94072.24912,1.977.58408,3.96135.94127,5.94139.72373,3.96134,1.55741,7.91451,2.43295,11.85907q2.66418,11.827,5.54542,23.62395c1.91109,7.86434,3.94357,15.70008,5.91431,23.55243q2.9775,11.7723,6.07594,23.51523l-.50877-.5366a45.92829,45.92829,0,0,0,5.22262,1.34525,40.98344,40.98344,0,0,0,5.35385.7166,25.30154,25.30154,0,0,0,5.34706-.17287,13.65068,13.65068,0,0,0,4.95946-1.64851l-.2807.5587q-.84174-10.38222-1.83015-20.75375l-1.97471-20.74071c-.67227-6.91207-1.44536-13.81391-2.2271-20.71276-.39742-3.44861-.80373-6.89622-1.24887-10.33688-.22409-1.71991-.45426-3.43884-.70876-5.15162a47.08551,47.08551,0,0,0-.94128-5.04338l-.00327-.01275a.50153.50153,0,0,1,.05731-.39368c4.20228-6.77272,8.26234-13.64789,12.09129-20.63387,1.90852-3.49586,3.75761-7.0247,5.442-10.61828.839-1.79682,1.64114-3.61012,2.33587-5.44829.34549-.91864.66713-1.84406.9263-2.77142a10.95323,10.95323,0,0,0,.46643-2.71534l1.66781.01941c-.11111,11.20564-.091,22.42987.27275,33.6206.2028,5.59033.46689,11.19166,1.09566,16.70369.16,1.37507.34759,2.74475.6049,4.07719.12935.66432.27181,1.3249.454,1.94541.09052.30994.1897.61035.29918.88818.05426.14187.11461.25707.17262.39245l.23345.47374c1.25262,2.52523,2.47178,5.05607,3.68533,7.58983,4.843,10.13723,9.59075,20.30908,14.335,30.4845q7.13324,15.25506,14.09455,30.58777l-.76818-.70005c1.44232.486,2.98873.91362,4.50777,1.2608a37.891,37.891,0,0,0,4.59971.77549,18.30126,18.30126,0,0,0,4.4907-.02976,5.53235,5.53235,0,0,0,3.46451-1.59367l-.27368,1.1256c-2.97-13.36479-5.95407-26.72139-8.69509-40.13717-1.37963-6.70605-2.74475-13.41438-4.007-20.15271-.6056-3.38311-1.25565-6.72839-1.69331-10.19319a47.2747,47.2747,0,0,1-.30245-5.22134c-.02854-1.72278-.02877-3.43942-.02012-5.1549.14433-13.71291.74455-27.38079,1.22782-41.05856l.78666-20.50972.32116-10.255c.04024-1.70921.07322-3.41843.08515-5.12712a49.57986,49.57986,0,0,0-.14994-5.10438l.25005-.04163a49.58916,49.58916,0,0,1,.28655,5.14326c.03251,1.71226.044,3.424.048,5.1356l-.055,10.26735q-.10947,10.26564-.3076,20.52738c-.25567,13.67905-.55484,27.36811-.531,41.02388.01006,1.70548.02924,3.4099.07579,5.1073a45.29265,45.29265,0,0,0,.34385,5.01444c.45567,3.32019,1.14478,6.68973,1.7822,10.03337,1.33074,6.69786,2.76791,13.38415,4.21889,20.06581,2.94031,13.356,5.84764,26.72607,8.8773,40.06325a1.29784,1.29784,0,0,1-.26619,1.11671l-.00772.00924a6.56945,6.56945,0,0,1-2.40862,1.76016,10.62784,10.62784,0,0,1-2.65073.74279,20.832,20.832,0,0,1-5.14776.05918,40.52047,40.52047,0,0,1-4.92649-.81683,49.71992,49.71992,0,0,1-4.79853-1.33255,1.28029,1.28029,0,0,1-.75835-.67824l-.01006-.022-14.04074-30.6011c-4.6797-10.19975-9.36455-20.39961-14.13642-30.54842l-3.6224-7.57831-.22877-.47163c-.08234-.18579-.17871-.38526-.24889-.57134-.14573-.37579-.26315-.74321-.367-1.10718-.20772-.72777-.356-1.44162-.49052-2.15482-.26549-1.425-.44912-2.83891-.60514-4.25182-.58923-5.64875-.78548-11.27382-.93121-16.89994-.24982-11.25061-.15275-22.48221.16771-33.72048l.00071-.02509a.83385.83385,0,0,1,1.66711.04451,12.38584,12.38584,0,0,1-.57684,3.16329c-.294.9908-.64443,1.9471-1.01636,2.89066-.74689,1.88512-1.59085,3.71211-2.4692,5.51834-1.76489,3.60779-3.675,7.1271-5.63806,10.61313-3.94263,6.96365-8.1,13.78719-12.40942,20.52423l.054-.406a52.43927,52.43927,0,0,1,.93332,5.1987c.247,1.7236.46876,3.448.68443,5.17285.42783,3.4499.8166,6.90237,1.19624,10.35565l2.1684,20.72779,4.199,41.4664a.58272.58272,0,0,1-.27578.55613l-.00492.00286a14.86418,14.86418,0,0,1-5.37653,1.90349,26.6021,26.6021,0,0,1-5.62168.28374,42.40419,42.40419,0,0,1-5.55291-.643,47.12439,47.12439,0,0,1-5.44624-1.30366.75141.75141,0,0,1-.50151-.50947l-.00772-.02743c-4.41374-15.59563-8.69228-31.2246-12.60521-46.95749-1.96488-7.86375-3.90123-15.73779-5.58729-23.67757-.85192-3.968-1.6629-7.94708-2.367-11.95837-.34783-2.00729-.6739-4.02007-.91718-6.0629-.1214-1.02192-.21917-2.05155-.26409-3.10832a14.00632,14.00632,0,0,1,.0138-1.63583,7.13857,7.13857,0,0,1,.11813-.89964l.18175-.74116c1.8229-7.9386,4.14685-15.73159,6.64576-23.45716,2.57143-7.70311,5.406-15.30751,8.35755-22.86144q4.47257-11.31354,9.42513-22.421c3.31013-7.39885,6.70588-14.758,10.351-21.9976Z" fill="#020202"/><path d="M430.34878,329.71388a81.07044,81.07044,0,0,1-1.41448-11.44979,106.69941,106.69941,0,0,1-.02246-11.55346,89.09339,89.09339,0,0,1,1.35928-11.48517,63.37743,63.37743,0,0,1,3.11715-11.11815c-.291,1.91-.78384,3.75357-1.00185,5.6601-.33544,1.87874-.56257,3.77258-.81169,5.65986-.20467,1.89313-.44093,3.78194-.5787,5.68033l-.23883,2.84429-.15836,2.85107c-.21778,3.80112-.31087,7.611-.35087,11.42786C430.23908,322.04743,430.241,325.87136,430.34878,329.71388Z" fill="#020202"/><path d="M458.28244,292.85456c.7649,2.71546,1.48887,5.41343,2.27108,8.08521.79508,2.66482,1.607,5.31957,2.64347,7.8582a28.85722,28.85722,0,0,0,1.73027,3.68462,10.95341,10.95341,0,0,0,2.40207,3.05569,3.61814,3.61814,0,0,0,3.43949.72485,10.17851,10.17851,0,0,0,3.46615-2.11442,8.54045,8.54045,0,0,1-3.17774,2.89271,3.55286,3.55286,0,0,1-1.1015.34456,3.81569,3.81569,0,0,1-.58713.08181l-.6-.03029a4.51241,4.51241,0,0,1-1.16677-.27725,9.28181,9.28181,0,0,1-1.04232-.55075c-2.55763-1.82858-3.81305-4.57971-4.92953-7.18014a46.90542,46.90542,0,0,1-2.353-8.17673A49.80267,49.80267,0,0,1,458.28244,292.85456Z" fill="#020202"/><path d="M396.70667,78.76724a11.33366,11.33366,0,0,0-.92467-2.40968c-.38221-.77344-.79484-1.5315-1.221-2.28184-.86642-1.492-1.73495-2.98808-2.6678-4.43467l.0828.09391a4.61151,4.61151,0,0,0-.6442-.4028c-.20514-.09315-.43344-.14163-.4821-.09245-.13029.00772-.25.65461-.16842,1.07776l.60631,3.30282,1.16817,6.6112a.52534.52534,0,0,1-.9511.38765l-.02222-.0328a4.87905,4.87905,0,0,0-1.60816-1.41823c-.16257-.09146-.33052-.173-.50058-.25146l-.49637-.17187c-.1621-.045-.306-.0366-.45964-.06859-.11064.04976-.26362.01444-.33871.10286-.10667.0317-.17169.15246-.26152.24146a2.0747,2.0747,0,0,0-.17426.43309,4.123,4.123,0,0,0-.145,1.07291,10.86933,10.86933,0,0,0,.23812,2.30986l.00117.00561a.46791.46791,0,0,1-.36514.55169.475.475,0,0,1-.21216-.00591,8.63731,8.63731,0,0,0-1.25729-.26684c-.38853-.03783-.82291-.01432-.93543.14918-.142.12754-.14175.53894-.01169.92864a5.28,5.28,0,0,0,.53941,1.15706.35228.35228,0,0,1-.33287.53362l-.011-.001a2.24688,2.24688,0,0,0-1.00911-.01836,1.08188,1.08188,0,0,0-.64514.63467,1.13966,1.13966,0,0,0,.05334.93185,9.18187,9.18187,0,0,0,.64771.95286,5.413,5.413,0,0,0,1.70337,1.55278,1.81543,1.81543,0,0,0,1.10407.21082,2.1065,2.1065,0,0,0,1.03578-.51958,2.1708,2.1708,0,0,1-1.01168.64285,1.89712,1.89712,0,0,1-1.22221-.12491,5.70973,5.70973,0,0,1-1.92909-1.49518,9.30425,9.30425,0,0,1-.77169-.96824,1.6422,1.6422,0,0,1-.15134-1.37477,1.68665,1.68665,0,0,1,.96069-1.03309,1.62877,1.62877,0,0,1,.70969-.11976l.64233.049-.34362.53245a5.95688,5.95688,0,0,1-.6842-1.30285,2.73946,2.73946,0,0,1-.16982-.78145,1.28963,1.28963,0,0,1,.27157-.9187,1.32574,1.32574,0,0,1,.40023-.31906,2.4713,2.4713,0,0,1,.43064-.14023,3.38045,3.38045,0,0,1,.79929-.04257,8.86955,8.86955,0,0,1,1.44185.263l-.5759.55128a11.77,11.77,0,0,1-.32327-2.53248,5.01632,5.01632,0,0,1,.15462-1.34256,3.012,3.012,0,0,1,.28421-.69362,1.82048,1.82048,0,0,1,.61285-.58853,1.89415,1.89415,0,0,1,.81566-.24485,4.8821,4.8821,0,0,1,.74736.09421l.65941.22234c.2007.09006.39952.18479.59274.29157a5.5975,5.5975,0,0,1,2.00909,1.79618l-.97308.35485-1.08934-6.63892-.52257-3.32235a3.3675,3.3675,0,0,1,.04538-.97934,1.26428,1.26428,0,0,1,.694-.97338,1.38719,1.38719,0,0,1,1.12723.15251,5.29453,5.29453,0,0,1,.756.521l.00562.00438a.31435.31435,0,0,1,.07766.08983c.86151,1.51518,1.701,3.03352,2.44511,4.60736.36959.78742.7249,1.58191,1.04864,2.38973A9.81061,9.81061,0,0,1,396.70667,78.76724Z" fill="#020202"/><path d="M385.20975,85.5489c1.03858.69982,1.92091,1.49934,2.84417,2.21541a8.23216,8.23216,0,0,0,1.40068.94338,1.07771,1.07771,0,0,0,1.439-.209,1.029,1.029,0,0,1-.59648.78865,1.659,1.659,0,0,1-1.05473.04479,4.7568,4.7568,0,0,1-1.70992-.90332,8.80644,8.80644,0,0,1-1.323-1.31244A7.05992,7.05992,0,0,1,385.20975,85.5489Z" fill="#020202"/><path d="M387.28715,82.94391a38.04124,38.04124,0,0,0,3.39948,2.938,4.0482,4.0482,0,0,0,1.87226.7749,2.673,2.673,0,0,0,1.89892-.79513,2.3189,2.3189,0,0,1-1.87974,1.45442,3.75781,3.75781,0,0,1-2.36815-.73683,8.60271,8.60271,0,0,1-1.71437-1.63793A8.25023,8.25023,0,0,1,387.28715,82.94391Z" fill="#020202"/><path d="M384.39222,89.0171a16.50208,16.50208,0,0,1,2.21681,4.12819,7.80069,7.80069,0,0,1,.21426,4.70233l.007-.032c-.51063,4.80648-.76022,9.64513-.94384,14.47477q-.26,7.24824-.04211,14.49606c.1214,4.82947.48608,9.64572.942,14.4453.455,4.80327,1.23858,9.56168,2.15739,14.2853l-.15181-.32742c2.67155,3.35025,5.421,6.66044,8.19989,9.93343,2.78827,3.26756,5.56952,6.54108,8.427,9.74712a241.67651,241.67651,0,0,0,17.97169,18.40232l.01543.01392a.68565.68565,0,0,1,.219.58175c-.89075,7.70978-2.09284,15.35072-3.54218,22.95629-.7139,3.8034-1.58992,7.57551-2.49283,11.33622-.90946,3.76024-1.96067,7.48516-3.119,11.172.95835-3.745,1.85729-7.49989,2.63716-11.281q1.16315-5.67264,2.09751-11.38529c1.27367-7.60679,2.30219-15.27026,3.0133-22.93255l.23438.59532a239.37059,239.37059,0,0,1-18.236-18.38168c-2.8802-3.20932-5.73887-6.43805-8.50281-9.74683-2.767-3.30832-5.493-6.64-8.16246-10.03881l-.00795-.01a.745.745,0,0,1-.14386-.31777c-.89636-4.7921-1.65167-9.60958-2.07529-14.4587q-.6807-7.26664-.70877-14.5657-.05017-7.28824.36772-14.56209.43088-7.27034,1.44068-14.48711l.0007-.00555.00632-.0269a7.58618,7.58618,0,0,0-.04164-4.5141A16.39447,16.39447,0,0,0,384.39222,89.0171Z" fill="#020202"/><path d="M401.93186,84.87909a8.519,8.519,0,0,0-4.3721,1.67541,9.58231,9.58231,0,0,0-2.76628,3.80849,5.10525,5.10525,0,0,1,.47087-2.54359,5.53154,5.53154,0,0,1,1.64559-2.09863,5.46972,5.46972,0,0,1,2.44254-1.0818A4.80433,4.80433,0,0,1,401.93186,84.87909Z" fill="#020202"/><path d="M527.939,79.83974a9.8095,9.8095,0,0,1,.70128-2.508c.32374-.80788.67929-1.60231,1.04887-2.38979.74385-1.57378,1.58337-3.09212,2.44512-4.6073a.30354.30354,0,0,1,.07625-.08895l.00679-.00526a5.291,5.291,0,0,1,.756-.521,1.38721,1.38721,0,0,1,1.12724-.15251,1.26437,1.26437,0,0,1,.694.97344,3.367,3.367,0,0,1,.04538.97934l-.52256,3.32229-1.08935,6.639L532.255,81.126a5.59768,5.59768,0,0,1,2.00909-1.79624c.19345-.10672.392-.20145.59274-.29151l.65964-.22234a4.86,4.86,0,0,1,.74736-.09421,1.894,1.894,0,0,1,.81543.24479,1.82142,1.82142,0,0,1,.61309.58859,3.033,3.033,0,0,1,.28421.69356,5.02618,5.02618,0,0,1,.15461,1.34261,11.76968,11.76968,0,0,1-.3235,2.53243l-.5759-.55122a8.875,8.875,0,0,1,1.44185-.263,3.37937,3.37937,0,0,1,.79929.04263,2.47018,2.47018,0,0,1,.43064.14023,1.32762,1.32762,0,0,1,.40046.31906,1.29039,1.29039,0,0,1,.27134.9187,2.74726,2.74726,0,0,1-.16959.78145,5.96759,5.96759,0,0,1-.68443,1.30285l-.34362-.53245.64233-.049a1.62872,1.62872,0,0,1,.7097.1197,1.68611,1.68611,0,0,1,.96068,1.03309,1.6421,1.6421,0,0,1-.1511,1.37477,9.37531,9.37531,0,0,1-.77169.9683A5.71383,5.71383,0,0,1,538.8383,91.224a1.89657,1.89657,0,0,1-1.222.12491,2.17,2.17,0,0,1-1.01192-.64291,2.1069,2.1069,0,0,0,1.036.51964,1.81582,1.81582,0,0,0,1.10408-.21088,5.4148,5.4148,0,0,0,1.70313-1.55278,9.14535,9.14535,0,0,0,.64772-.9528,1.13892,1.13892,0,0,0,.05333-.93191,1.0819,1.0819,0,0,0-.64491-.63462,2.248,2.248,0,0,0-1.00934.01831l-.011.001a.35208.35208,0,0,1-.33263-.53356,5.29187,5.29187,0,0,0,.53917-1.15712c.13029-.38964.13029-.801-.01169-.92864-.11251-.16345-.54689-.187-.93543-.14912a8.62939,8.62939,0,0,0-1.25729.26684.46787.46787,0,0,1-.57122-.3338.46306.46306,0,0,1-.00632-.20988l.00164-.00772a10.88356,10.88356,0,0,0,.23789-2.30985,4.10271,4.10271,0,0,0-.145-1.07291,2.04976,2.04976,0,0,0-.17427-.43309c-.08982-.089-.15485-.20976-.26128-.24146-.07509-.08842-.22807-.0531-.339-.10286-.15368.032-.29754.0235-.45964.06859l-.49637.17181c-.16982.07848-.338.16-.50058.25146a4.8792,4.8792,0,0,0-1.60816,1.41829l-.022.03233a.52517.52517,0,0,1-.9511-.38724l1.16794-6.6112.60631-3.30276c.08163-.42315-.03813-1.07-.16842-1.07776-.04866-.04924-.277-.00071-.48187.09239a4.63367,4.63367,0,0,0-.64443.40286l.083-.094c-.93309,1.44659-1.80161,2.94265-2.668,4.43467-.42619.7504-.83858,1.5084-1.2208,2.2819A11.32214,11.32214,0,0,0,527.939,79.83974Z" fill="#020202"/><path d="M539.436,86.62146a7.0509,7.0509,0,0,1-.99975,1.56746,8.7956,8.7956,0,0,1-1.323,1.3125,4.75843,4.75843,0,0,1-1.70969.90332,1.65855,1.65855,0,0,1-1.05472-.04485,1.0292,1.0292,0,0,1-.59672-.78865,1.07773,1.07773,0,0,0,1.439.209,8.22663,8.22663,0,0,0,1.40068-.94338C537.515,88.12074,538.39737,87.32122,539.436,86.62146Z" fill="#020202"/><path d="M537.35855,84.01641a8.24069,8.24069,0,0,1-1.2084,1.9974,8.60293,8.60293,0,0,1-1.71436,1.63793,3.75706,3.75706,0,0,1-2.36816.73683,2.31939,2.31939,0,0,1-1.87974-1.45437,2.673,2.673,0,0,0,1.89892.79508,4.04706,4.04706,0,0,0,1.87226-.77484A38.00856,38.00856,0,0,0,537.35855,84.01641Z" fill="#020202"/><path d="M540.25349,90.08966a8.84109,8.84109,0,0,0-1.10011,3.76006,20.48539,20.48539,0,0,0,.0269,3.92744c.45076,2.60364.8297,5.23068,1.171,7.8562q1.03683,7.8806,1.42361,15.83558c.26666,5.29753.30923,10.61243.055,15.92464A90.33856,90.33856,0,0,1,539.773,153.2381a55.93586,55.93586,0,0,1-6.23336,14.78225,110.95126,110.95126,0,0,1-9.02233,13.17772c-3.28815,4.18117-6.77863,8.19123-10.40127,12.07276-3.632,3.87778-7.36715,7.63539-11.3023,11.23171l.22666-.4104c-.78478,4.3455-1.75483,8.64491-2.75551,12.932-1.00724,4.28585-2.06805,8.55555-3.1347,12.8221l-3.23457,12.7872c-1.04841,4.26854-2.07389,8.54245-2.926,12.85754.63625-4.35315,1.512-8.66965,2.425-12.97269.92209-4.30181,1.85331-8.60169,2.84464-12.88508,1.94992-8.57188,3.90334-17.14948,5.36437-25.78819a.70519.70519,0,0,1,.214-.39859l.0131-.01217A202.947,202.947,0,0,0,523.21231,180.179a124.90136,124.90136,0,0,0,8.92971-12.9717,54.42955,54.42955,0,0,0,6.16272-14.31776,97.27092,97.27092,0,0,0,2.178-15.57528c.35976-5.2504.4269-10.53009.26994-15.80482q-.25648-7.91174-.99952-15.80908c-.25239-2.63154-.54058-5.2542-.90431-7.87825a18.86058,18.86058,0,0,1,.12654-3.99387A8.92757,8.92757,0,0,1,540.25349,90.08966Z" fill="#020202"/><path d="M484.29121,173.38765c3.67433-2.38874,7.19873-4.98368,10.67775-7.63885,3.46381-2.675,6.9316-5.34332,10.34231-8.086,3.41984-2.73043,6.79289-5.52057,10.16033-8.30977l2.50874-2.105,1.21893-1.059a.87447.87447,0,0,1,.12374-.17181c.04936-.08134.10035-.19894.15181-.29573a5.81425,5.81425,0,0,0,.28538-.67923,50.66669,50.66669,0,0,0,1.574-6.24108c.8573-4.26807,1.53589-8.58982,2.189-12.9117q.9919-6.48359,1.8498-12.99292c.57449-4.32181,1.18665-8.70935,1.67483-12.98561a4.69484,4.69484,0,0,0-.02807-.66461l-.11322-.81344-.10994-.814a2.41407,2.41407,0,0,0-.14877-.63625,2.2423,2.2423,0,0,0-.75624-.9942,2.89034,2.89034,0,0,0-.27977-.18362l-.38666-.24211a6.62216,6.62216,0,0,1-.7125-.557,27.77823,27.77823,0,0,1-4.2086-5.244l.05988.07573a6.28259,6.28259,0,0,1-1.0849-1.57986,4.61887,4.61887,0,0,1-.3249-.9335,3.468,3.468,0,0,1-.08468-1.04618l-.00281.04093a4.79944,4.79944,0,0,1,1.11741-2.74171,8.82783,8.82783,0,0,1,2.12582-1.88787,10.75744,10.75744,0,0,1,2.54734-1.17355,7.28,7.28,0,0,1,2.79505-.36134,6.47172,6.47172,0,0,1,.71414.13438,5.11012,5.11012,0,0,1,.68233.26836,1.46781,1.46781,0,0,1,.89917,1.23776,2.0941,2.0941,0,0,1-.6545,1.32577,5.92781,5.92781,0,0,1-1.05916.89613,9.566,9.566,0,0,1-5.04906,1.90594,9.66927,9.66927,0,0,0,4.8535-2.16021,5.60547,5.60547,0,0,0,.96677-.896,1.718,1.718,0,0,0,.495-1.064c-.00421-.3442-.31392-.61742-.68233-.7897a3.60769,3.60769,0,0,0-1.20934-.2859,8.55364,8.55364,0,0,0-4.84087,1.65167,8.27921,8.27921,0,0,0-1.85846,1.75138,3.86273,3.86273,0,0,0-.854,2.21728l-.00281.04129a2.69329,2.69329,0,0,0,.08819.69935,3.59,3.59,0,0,0,.27462.71812,5.22788,5.22788,0,0,0,.94057,1.2829l.04117.049.01894.02713a26.8224,26.8224,0,0,0,4.1272,4.87005,5.37688,5.37688,0,0,0,.592.43778l.31485.185a4.18692,4.18692,0,0,1,.41379.25479,3.59394,3.59394,0,0,1,1.25285,1.55028,3.8278,3.8278,0,0,1,.25941.94987l.13287.81057a8.90077,8.90077,0,0,1,.18175,1.78454c-.44421,4.4297-.964,8.73362-1.50665,13.09935-1.1256,8.69748-2.30429,17.386-4.05468,26.02128a47.02018,47.02018,0,0,1-1.71764,6.46816,7.17568,7.17568,0,0,1-.36444.82759c-.07859.14368-.13988.27789-.23485.4276-.12187.16228-.25216.32122-.38666.47175l-1.27624,1.07706-2.555,2.08131c-3.42007,2.74944-6.90353,5.413-10.39846,8.06147-3.50638,2.63283-7.01347,5.26677-10.62816,7.75294C491.75777,168.78362,488.12507,171.25808,484.29121,173.38765Z" fill="#020202"/><path d="M448.48585,173.38735l5.49349,3.8103-.258.12907-.02737-.42047a.187.187,0,0,1,.36865-.05462l.00562.0241c.713,3.05732,1.39226,6.12021,1.97845,9.19829l.44724,2.30728.21287,1.15542a10.11637,10.11637,0,0,0,.22245,1.06,2.90657,2.90657,0,0,0,5.5253.04994c.41895-1.43349.84748-2.99458,1.30455-4.4762.89613-3.00194,1.81939-5.99635,2.81189-8.9714l.01357-.041a.45191.45191,0,0,1,.462-.30719c.51438.0386,1.06969.04281,1.61.05883.54455.01012,1.09121.00667,1.63834-.00462,1.09425-.02906,2.19084-.08918,3.29352-.1452-1.06806.28081-2.15155.49654-3.2444.67338a25.4966,25.4966,0,0,1-3.33095.36935l.47531-.348c-.68841,3.05978-1.44629,6.10021-2.23108,9.13321-.38689,1.53483-.78876,2.99422-1.22431,4.574a4.61243,4.61243,0,0,1-1.6519,2.29728,4.47875,4.47875,0,0,1-2.71716.82355,4.59094,4.59094,0,0,1-2.65821-.919,4.29877,4.29877,0,0,1-1.56442-2.33886,11.12483,11.12483,0,0,1-.21591-1.246l-.16608-1.16309-.3104-2.32967c-.42409-3.10458-.75531-6.2243-1.05238-9.34958l.374-.03053-.02667.42052-.0007.01216a.16041.16041,0,0,1-.17006.14983.15849.15849,0,0,1-.08748-.03287Z" fill="#020202"/><path d="M401.66052,84.85008a9.72521,9.72521,0,0,1-5.061-1.88945,7.26556,7.26556,0,0,1-1.05519-.9073,2.09835,2.09835,0,0,1-.65777-1.33331,1.48158,1.48158,0,0,1,.90642-1.2484,3.7467,3.7467,0,0,1,1.40091-.407,9.09665,9.09665,0,0,1,5.35385,1.53659,8.65522,8.65522,0,0,1,2.13213,1.89079,4.83313,4.83313,0,0,1,1.11788,2.75365l-.003-.04252a3.4759,3.4759,0,0,1-.08444,1.0528,4.63459,4.63459,0,0,1-.32538.93776,6.30191,6.30191,0,0,1-1.08747,1.58595l.06222-.07877a30.57335,30.57335,0,0,1-3.76462,4.83677,7.72643,7.72643,0,0,1-1.26244,1.04238l-.35251.21269a2.11241,2.11241,0,0,0-.23579.15585,1.92621,1.92621,0,0,0-.386.39409,2.00273,2.00273,0,0,0-.38128,1.01367l-.06573,1.46916-.00772-.14942q1.72734,10.313,3.64136,20.60119c1.33214,6.82628,2.58008,13.73648,4.567,20.31837a15.56685,15.56685,0,0,0,.90993,2.30465,7.43988,7.43988,0,0,0,1.58594,1.7267c1.28256,1.13981,2.643,2.23149,3.98241,3.33855,2.70475,2.192,5.45466,4.33983,8.21345,6.47541l8.28644,6.40208,8.27193,6.42909c-2.89914-1.94915-5.76413-3.94591-8.63076-5.94114q-4.31046-2.97874-8.54351-6.06723c-2.8285-2.05079-5.64834-4.11386-8.43661-6.232-1.392-1.06625-2.77376-2.13717-4.11807-3.29774-.33567-.30221-.66783-.59128-1.00279-.91724l-.50105-.52777a4.7122,4.7122,0,0,1-.43742-.65929,16.79507,16.79507,0,0,1-1.05776-2.54119,102.23613,102.23613,0,0,1-2.66266-10.21325q-1.12034-5.13274-2.072-10.28951-1.9147-10.31442-3.44065-20.686l-.00164-.01163a.70561.70561,0,0,1-.00608-.13813l.09333-1.52553A3.34835,3.34835,0,0,1,397.9277,93.833a3.49028,3.49028,0,0,1,.39719-.24485c.14456-.07322.19251-.11029.2945-.16591a6.46322,6.46322,0,0,0,1.06759-.8349,29.51807,29.51807,0,0,0,3.72463-4.50678l.01684-.024a.47435.47435,0,0,1,.04561-.055,5.21224,5.21224,0,0,0,.93823-1.27683,3.57359,3.57359,0,0,0,.27392-.7139,2.69026,2.69026,0,0,0,.08842-.69268l-.003-.04287c-.03369-1.56781-1.302-2.99879-2.701-3.95568a8.53791,8.53791,0,0,0-4.83174-1.652,3.16967,3.16967,0,0,0-1.20326.28362c-.36772.17093-.67344.44011-.67882.77765a1.70341,1.70341,0,0,0,.48981,1.05782,6.91325,6.91325,0,0,0,.956.90636A9.8947,9.8947,0,0,0,401.66052,84.85008Z" fill="#020202"/><path d="M522.71384,85.95164a4.80348,4.80348,0,0,1,2.57938-.24011,5.47082,5.47082,0,0,1,2.44277,1.08174,5.53659,5.53659,0,0,1,1.6456,2.09863,5.10768,5.10768,0,0,1,.47063,2.54365,9.58238,9.58238,0,0,0-2.76627-3.80849A8.51859,8.51859,0,0,0,522.71384,85.95164Z" fill="#020202"/><path d="M392.4017,481.468c-7.77721,0-14.6777-.34479-15.88376-.68958-1.53355-.43789-2.56558-2.54827-2.45424-5.01794.14129-3.14522,2.19974-6.86915,7.54891-7.88808,9.62513-1.83343,16.65942-3.75013,19.298-5.25888,2.06126-1.17706,1.14712-5.26449.62034-6.74l1.10034-.39345c.09076.254,2.18944,6.24506-1.14057,8.14773-3.76136,2.14921-13.932,4.30076-19.65915,5.39174-5.89185,1.12232-6.54213,5.4839-6.60108,6.79382-.0945,2.09073.74385,3.59527,1.60746,3.84229,2.89681.82712,36.021,1.38945,39.08532-1.67343,2.15857-2.159,2.21564-15.96142.55578-21.24415l1.11344-.34994c1.7057,5.42542,1.85728,19.71762-.844,22.41981C414.70221,480.85422,402.77255,481.468,392.4017,481.468Z" fill="#020202"/><path d="M398.6677,480.83531c-9.851.25255-20.39376-.16228-21.99-.61834-2.94279-.8408-3.78359-10.08959,5.0448-11.77119,3.31065-.6306,6.46365-1.30061,9.26686-1.98047"/><path d="M486.46451,481.49561H462.35724l-.102-.45707c-1.7291-7.76784,2.57026-11.60405,4.87947-13.66531a10.7687,10.7687,0,0,0,1.018-.97729c.88794-1.09379.87859-6.129.66432-9.0455l1.164-.08608c.06082.81964.54736,8.05884-.92256,9.86794a10.85885,10.85885,0,0,1-1.14618,1.112c-2.23061,1.99109-5.93208,5.2949-4.6128,12.08358h22.12367c.28351-2.68722,1.4615-15.21336-.46034-21.88555l1.12279-.3228c2.21377,7.69065.51368,22.24531.44069,22.86144Z"/><path d="M440.97788,166.84487c-.04842,3.72059.02713,7.41984.15345,11.10441.17052,3.68176.40444,7.35586.93332,10.97891a53.09226,53.09226,0,0,0,.97449,5.38841,38.12834,38.12834,0,0,0,1.53939,5.22385,23.90256,23.90256,0,0,0,2.44628,4.83233,14.20446,14.20446,0,0,0,3.79808,3.923,12.86481,12.86481,0,0,1-4.45585-3.41885,20.94983,20.94983,0,0,1-3.00533-4.82671,39.62222,39.62222,0,0,1-2.97026-10.888,72.19778,72.19778,0,0,1,.58643-22.3173Z"/><path d="M450.82289,203.7315a17.79167,17.79167,0,0,0,4.15082,1.70735,10.48788,10.48788,0,0,0,4.20228.25356,7.94989,7.94989,0,0,0,1.02993-.19848c.17076-.04093.34526-.06719.51368-.119.16538-.06286.32841-.13216.49753-.18672a9.1902,9.1902,0,0,0,1.00444-.37017c.31765-.16971.6442-.3262.97753-.47859a6.82145,6.82145,0,0,0,.95647-.54888l.96607-.57777c.61871-.43082,1.22361-.89414,1.90805-1.307a20.62827,20.62827,0,0,1-1.36045,1.93085,14.5651,14.5651,0,0,1-1.76442,1.61717,9.96086,9.96086,0,0,1-4.49842,1.91231,9.216,9.216,0,0,1-8.58351-3.63463Z"/><path d="M447.86667,213.2319a25.18814,25.18814,0,0,0,4.99385,3.75135,11.83646,11.83646,0,0,0,5.63782,1.61688,8.71581,8.71581,0,0,0,2.87271-.41444,12.30158,12.30158,0,0,0,2.73938-1.18308,29.815,29.815,0,0,0,4.99385-3.77071,15.44416,15.44416,0,0,1-4.2755,4.87707,10.51929,10.51929,0,0,1-6.34354,2.18061,11.126,11.126,0,0,1-6.32833-2.19652A14.265,14.265,0,0,1,447.86667,213.2319Z"/><path d="M463.41687,210.42574a14.26964,14.26964,0,0,0,4.41281-2.583,21.11259,21.11259,0,0,0,1.85611-1.72144c.5221-.668,1.11858-1.26284,1.593-1.95985a28.85235,28.85235,0,0,0,4.30006-9.10643c.12631-.40426.26994-.80338.38713-1.21086l.27789-1.24589.56374-2.49213c.24748-1.68968.53426-3.37861.73776-5.08309l.22175-2.5709c.06574-.85847.21217-1.71635.21193-2.58014.07041-1.72623.13614-3.45755.27789-5.20273.233,1.72377.39017,3.46141.552,5.20414.1076,1.743.05521,3.49533.0517,5.24969a24.97855,24.97855,0,0,1-.20047,2.626l-.27485,2.62675-.53262,2.59633-.27041,1.29829c-.11649.42707-.2566.84923-.38643,1.27349a25.59759,25.59759,0,0,1-4.886,9.4321c-.56257.6925-1.23133,1.3015-1.854,1.93465l-1.05145.83326a7.62159,7.62159,0,0,1-1.09168.76835A12.0498,12.0498,0,0,1,463.41687,210.42574Z"/><path d="M493.40523,244.19335l8.23287,20.98609,8.33229,20.89831q2.04313,5.23967,4.27947,10.40161c1.49238,3.43919,3.08043,6.84219,4.90216,10.11688a64.49419,64.49419,0,0,0,6.123,9.37736,25.8233,25.8233,0,0,0,3.85445,3.94842,7.58263,7.58263,0,0,0,4.62262,2.02109l.61309-.01719.13006.60671a13.82522,13.82522,0,0,1,.08936,5.387,11.61736,11.61736,0,0,1-2.18781,4.98864,8.02989,8.02989,0,0,1-.89449,1.04981,6.65393,6.65393,0,0,1-.99461.95022l-1.0732.85982-1.16653.702-.58806.34573c-.20187.09965-.411.17976-.61637.27029l-1.24045.526c-.832.33128-1.697.52134-2.54687.78554a38.46186,38.46186,0,0,0-9.19566,3.30832,23.82632,23.82632,0,0,0-3.98615,2.606,15.96409,15.96409,0,0,0-1.68161,1.60144c-.26058.2814-.49286.57572-.71859.87092a7.4619,7.4619,0,0,0-.52865.82648l-1.153,2.433-1.26618-2.32886-5.41747-9.96419-5.3094-10.0215c-1.78641-3.33089-3.46756-6.718-5.206-10.07308q-2.58627-5.04414-5.05022-10.14974l.22433-.11825q3.0403,4.80012,5.97652,9.65116c1.93752,3.24522,3.93188,6.45833,5.82121,9.72776l5.71782,9.77934,5.60951,9.83665-2.41891.104a8.93987,8.93987,0,0,1,.81612-1.30974c.28562-.3745.57824-.73912.89052-1.07613a18.6387,18.6387,0,0,1,1.97939-1.87611,22.8723,22.8723,0,0,1,4.49444-2.85862,40.96135,40.96135,0,0,1,9.85273-3.30042c.76139-.22263,1.55787-.37257,2.29541-.64877l1.09682-.43566c.18176-.07451.36959-.13924.5469-.22123l.50806-.28321,1.02548-.5559.92584-.68572a5.04152,5.04152,0,0,0,.86057-.75648,6.22,6.22,0,0,0,.77847-.83771,11.35872,11.35872,0,0,0,2.24442-8.76117l.74314.58935a6.689,6.689,0,0,1-3.00136-.89338,12.31969,12.31969,0,0,1-2.39973-1.73629,29.20483,29.20483,0,0,1-3.80206-4.30059,94.23754,94.23754,0,0,1-6.09395-9.55232c-3.71223-6.56073-7.20809-13.25257-10.37647-20.09885-3.145-6.85634-5.8067-13.91431-8.30164-21.01872-2.4816-7.11043-4.73163-14.301-6.613-21.59871Z"/><path d="M489.77417,255.53916q3.60873,11.89361,7.69885,23.6709c1.371,3.91726,2.80323,7.81218,4.32532,11.67294a86.41837,86.41837,0,0,0,5.22425,11.28932,86.70667,86.70667,0,0,1-5.80717-11.04008q-2.58207-5.68449-4.92812-11.47294-4.70379-11.57037-8.92292-23.33074Z"/><path d="M486.97842,281.43647c4.27222,7.40469,8.37135,14.87751,12.23843,22.48718,1.92489,3.8072,3.78591,7.64931,5.48227,11.5668.839,1.96249,1.63951,3.9438,2.32371,5.96752a31.09629,31.09629,0,0,1,.891,3.07686,9.09292,9.09292,0,0,1,.27883,3.17416,9.02105,9.02105,0,0,0-.43251-3.13551,30.88524,30.88524,0,0,0-1.03531-3.00727c-.77847-1.97412-1.67109-3.9024-2.6016-5.81074-1.87928-3.80965-3.91972-7.53872-6.02284-11.23125-4.22006-7.37446-8.68129-14.62775-13.27982-21.7559Z"/><path d="M459.52635,146.28292a1.5833,1.5833,0,0,0,0-3.16471,1.5833,1.5833,0,0,0,0,3.16471Z" fill="#b21919"/><path d="M442.1822,164.63112c4.89479,0,4.9029-7.60708,0-7.60708-4.8948,0-4.9029,7.60708,0,7.60708Z" fill="#020202"/><path d="M476.19431,165.84826c4.89479,0,4.9029-7.60709,0-7.60709-4.8948,0-4.9029,7.60709,0,7.60709Z" fill="#020202"/><path d="M397.632,481.57234c-1.40443,0-2.59085-.02339-3.43481-.04772a2.11317,2.11317,0,0,1,.05988-4.22544l.06082.00093c8.988.255,19.75552-.66619,21.50614-2.60019a2.11351,2.11351,0,0,1,3.13446,2.836C415.78384,481.04322,404.27335,481.57234,397.632,481.57234Z"/><path d="M539.23806,103.3786a9.74513,9.74513,0,0,1,3.41492.5235,1.3393,1.3393,0,0,1,.82666.74561.78343.78343,0,0,1-.21006.71572,1.7149,1.7149,0,0,1-.42689.329,5.65677,5.65677,0,0,1-1.702.55327,32.20407,32.20407,0,0,1-3.41164.27338l-3.38639.25216a29.26388,29.26388,0,0,1-6.81722-.20455,14.0623,14.0623,0,0,1-1.69167-.39515,8.16339,8.16339,0,0,1-.83672-.32262,2.00458,2.00458,0,0,1-.82338-.61719.68454.68454,0,0,1-.04163-.72472,1.11086,1.11086,0,0,1,.41777-.37877,3.59478,3.59478,0,0,1,.85028-.32321,9.16978,9.16978,0,0,1,1.70173-.2448.04255.04255,0,0,1,.04515.03989.043.043,0,0,1-.02994.04327c-.53918.1724-1.07508.34959-1.57846.56613a3.12314,3.12314,0,0,0-.6828.3793.53391.53391,0,0,0-.18011.20672c0,.04748.00935.00819.044.06368a1.565,1.565,0,0,0,.56491.31023,7.47393,7.47393,0,0,0,.7649.21667c.53169.10929,1.069.22093,1.61846.2904,2.1878.3438,4.42613.49163,6.66938.632a17.91742,17.91742,0,0,0,6.64693-.7487,8.9366,8.9366,0,0,0,1.494-.52122,1.0652,1.0652,0,0,0,.24912-.16883c.05871-.06386.04538-.05474.05707-.04275.02129-.02608-.1904-.23362-.41215-.333a18.31534,18.31534,0,0,0-3.14522-1.03162.04261.04261,0,0,1-.03065-.05193A.04386.04386,0,0,1,539.23806,103.3786Z" fill="#020202"/><path d="M539.82846,106.91183a10.2252,10.2252,0,0,1,1.6622.15151,4.04823,4.04823,0,0,1,1.66571.6021.81622.81622,0,0,1,.33122.57619,1.05175,1.05175,0,0,1-.09.38561,2.54057,2.54057,0,0,1-.19439.24813,2.86094,2.86094,0,0,1-.82408.47683,7.16241,7.16241,0,0,1-1.65354.42865c-1.11133.15871-2.22126.16006-3.32089.21515-1.09941.06-2.19553.14607-3.2975.226a28.6445,28.6445,0,0,1-6.63594-.21585,13.52083,13.52083,0,0,1-1.64629-.38871,8.03177,8.03177,0,0,1-.814-.31473,2.0829,2.0829,0,0,1-.8035-.57982.68588.68588,0,0,1-.10877-.69034.99344.99344,0,0,1,.39414-.41765,3.31515,3.31515,0,0,1,.82783-.33322,8.546,8.546,0,0,1,1.65658-.24958.04265.04265,0,0,1,.04538.0397.04319.04319,0,0,1-.02947.04334,15.94378,15.94378,0,0,0-1.5284.56911,2.86022,2.86022,0,0,0-.65005.38006.40147.40147,0,0,0-.142.19058c-.00421.01754.00609.01292.01942.02134,0,0,.00023.01819.04023.04474a1.59386,1.59386,0,0,0,.56421.30151,7.27962,7.27962,0,0,0,.745.20971c.51765.10514,1.039.21789,1.57424.28415,2.12816.33871,4.30544.49069,6.48834.64285a20.60222,20.60222,0,0,0,3.27948-.03649,22.43244,22.43244,0,0,0,3.20394-.63168,15.38911,15.38911,0,0,0,1.51787-.43549,2.284,2.284,0,0,0,.61192-.309.24754.24754,0,0,1,.06877-.0683c-.00444-.01287-.0007-.00509.01427-.0083.00936.01578.00328-.045-.07579-.11193a4.17412,4.17412,0,0,0-1.34571-.66578c-.5104-.1745-1.03461-.33509-1.56349-.497a.04266.04266,0,0,1,.0131-.0835Z" fill="#020202"/><path d="M437.202,165.2515a15.15788,15.15788,0,0,1,3.44487,1.06075,19.3802,19.3802,0,0,1,3.17563,1.7429,15.81289,15.81289,0,0,1,2.74359,2.38546,11.1231,11.1231,0,0,1,1.96535,3.03434,25.81355,25.81355,0,0,0-2.433-2.56908,26.91782,26.91782,0,0,0-2.75411-2.15436A49.46475,49.46475,0,0,0,437.202,165.2515Z" fill="#020202"/><path d="M484.48208,173.84249c-.95507.18328-1.89307.30778-2.82171.478-.92841.16544-1.84606.35257-2.75342.57637a27.65023,27.65023,0,0,0-5.31946,1.86553,8.25378,8.25378,0,0,1,2.37307-1.68308,13.86994,13.86994,0,0,1,2.74359-1.0025A14.34777,14.34777,0,0,1,484.48208,173.84249Z" fill="#020202"/><path d="M398.02384,102.95042a9.74529,9.74529,0,0,1,3.41493.52356,1.33894,1.33894,0,0,1,.82665.7456.78274.78274,0,0,1-.21005.71567,1.7157,1.7157,0,0,1-.4269.32906,5.65668,5.65668,0,0,1-1.702.55326,32.20431,32.20431,0,0,1-3.41165.27333l-3.38639.25222a29.261,29.261,0,0,1-6.81722-.20462,14.06005,14.06005,0,0,1-1.69167-.39508,8.17036,8.17036,0,0,1-.83648-.32263,2.00458,2.00458,0,0,1-.82361-.61718.68468.68468,0,0,1-.04164-.72479,1.11068,1.11068,0,0,1,.41777-.3787,3.59461,3.59461,0,0,1,.85028-.32327,9.16751,9.16751,0,0,1,1.70173-.24474.04261.04261,0,0,1,.01544.08316c-.5394.17239-1.0753.34953-1.57869.56607a3.12816,3.12816,0,0,0-.6828.3793.53433.53433,0,0,0-.18011.20678c0,.04742.00936.00813.044.06368a1.56517,1.56517,0,0,0,.5649.31023,7.4721,7.4721,0,0,0,.7649.21666c.53169.1093,1.06923.22088,1.61846.29035,2.18781.3438,4.42614.49169,6.66938.632a17.91792,17.91792,0,0,0,6.64693-.7487,8.94168,8.94168,0,0,0,1.494-.52123,1.06486,1.06486,0,0,0,.24912-.16888c.05872-.06386.04538-.05474.05708-.04269.02128-.02608-.19041-.23362-.41216-.333a18.32055,18.32055,0,0,0-3.14522-1.03162.04258.04258,0,0,1-.03064-.05193A.044.044,0,0,1,398.02384,102.95042Z" fill="#020202"/><path d="M398.61425,106.48365a10.22527,10.22527,0,0,1,1.66219.15157,4.04709,4.04709,0,0,1,1.66571.6021.81517.81517,0,0,1,.33123.57613,1.052,1.052,0,0,1-.09006.38567,2.55514,2.55514,0,0,1-.19438.24812,2.86039,2.86039,0,0,1-.82409.47678,7.15643,7.15643,0,0,1-1.65354.42871c-1.11133.15871-2.22126.16-3.32089.21508-1.0994.06006-2.19553.14608-3.2975.226a28.63721,28.63721,0,0,1-6.63593-.21584,13.51027,13.51027,0,0,1-1.6463-.38871,8.01939,8.01939,0,0,1-.814-.31467,2.08028,2.08028,0,0,1-.80326-.57988.68584.68584,0,0,1-.109-.69034.99365.99365,0,0,1,.39415-.4176,3.31515,3.31515,0,0,1,.82782-.33327,8.54659,8.54659,0,0,1,1.65659-.24953.04256.04256,0,0,1,.0159.083,16.00015,16.00015,0,0,0-1.5284.56911,2.85616,2.85616,0,0,0-.64981.38.4011.4011,0,0,0-.14222.19064c-.00421.01755.00608.01287.01941.02135,0,0,.00024.01813.04024.04474a1.59475,1.59475,0,0,0,.5642.30151,7.31179,7.31179,0,0,0,.745.20971c.51765.10514,1.03928.21783,1.57448.28409,2.12792.33871,4.3052.49075,6.4881.64291a20.61061,20.61061,0,0,0,3.27949-.03649,22.44035,22.44035,0,0,0,3.20393-.63169,15.38208,15.38208,0,0,0,1.51787-.43555,2.28732,2.28732,0,0,0,.61216-.30894.24313.24313,0,0,1,.06854-.06824c-.00445-.01287-.00071-.00509.01426-.00831.00936.01573.00328-.045-.07578-.11193a4.172,4.172,0,0,0-1.34572-.66578c-.5104-.17456-1.0346-.33514-1.56348-.497a.04279.04279,0,0,1-.02854-.05321A.04331.04331,0,0,1,398.61425,106.48365Z" fill="#020202"/></svg>