<svg id="Layer_1" data-name="Layer 1" xmlns="http://www.w3.org/2000/svg" viewBox="0 0 700 550"><title>Artboard 64 copy 21</title><path d="M400.55638,140.8862c.42589,1.471.6872,2.53556.72583,2.69037a8.87838,8.87838,0,0,0,.86133,2.1098c.09676.17419.18382.35807.271.54195q20.46832-.33395,40.94647-.79358c.5999-.68714,1.171-1.29684,1.70317-1.85817.64845-.68708,1.24846-1.2774,1.8-1.78066Q423.71037,141.25881,400.55638,140.8862Zm33.99783,272.13739c-34.30746-1.42265-68.60535-2.19686-102.90312-2.59362l-25.72332-.23232c-8.56488-.09675-17.13932-.10644-25.71376-.10644-8.57444.00969-17.14889-.04837-25.72345.00969l-25.71364.21294-25.72332.39676-6.426.09676-3.213.05806-1.39365.01937-.00969-1.20971-.07738-6.43571c-.2032-17.14888-.35819-34.28814-.7452-51.437l-1.33553-51.43709c-.40651-17.14888-.75489-34.29783-.75489-51.44671-.08707-8.57444.058-17.13926.08706-25.7137.14519-8.57444.242-17.14894.50326-25.72338l1.53884-50.25638a.20322.20322,0,0,1,.19351-.09675.08732.08732,0,0,1,.04844.00969h.01937l.23226.00962,1.60641.01938,6.426.05806,12.86172.11613,12.86161.10644,12.86172.02906c17.14889.07744,34.28808-.02906,51.43709-.10644l25.72332-.11613,25.71376-.24194q14.63265-.10163,29.26541-.30969c-.11613-.31938-.22257-.64845-.31945-.97746a11.91917,11.91917,0,0,1-.43545-2.14849,7.04213,7.04213,0,0,1,.30976-3.12588q-14.415-.20325-28.82027-.30969l-25.71376-.242-25.72332-.11612c-17.149-.07744-34.2882-.18388-51.43709-.10644l-12.86172.029-12.86161.1065-12.86172.11613-6.426.05806-1.60641.01931-.20331.00969-.36776.00969a8.12334,8.12334,0,0,0-2.28393.513,7.25388,7.25388,0,0,0-4.142,4.37428,6.812,6.812,0,0,0-.33882,1.50973,6.60924,6.60924,0,0,0-.04843.76457l.00968.26126v.20325l.03875,1.60654.08719,3.213.17413,6.4357.3967,12.852.77427,25.72333c.26131,8.57444.35819,17.14894.51294,25.72338.01938,8.57444.16445,17.13926.08719,25.7137,0,17.14888-.3485,34.29783-.75489,51.44671l-1.33565,51.43709c-.3967,17.14888-.55158,34.28814-.75477,51.437l-.06769,6.43571-.01938,1.60653v.19351l.00969.41613c.00969.2807.03863.56133.07738.85165a7.84314,7.84314,0,0,0,.44514,1.6646,8.02745,8.02745,0,0,0,4.79054,4.69367,7.76953,7.76953,0,0,0,1.68391.4065,8.37224,8.37224,0,0,0,.86121.06769l.50326.00969H193.463l3.213.00969,6.43582.00969,25.72321.00968,25.71376-.15487c8.57444-.07738,17.14888-.25163,25.72344-.37739,8.57432-.12582,17.1392-.26132,25.71364-.47426l25.72333-.61933c34.2882-.9,68.56671-2.16785,102.85479-4.09371a.4362.4362,0,0,0-.00968-.871Zm-40.598-272.24383c-.43545-.00969-.86133-.00969-1.29689-.01938-1.13222-.01937-2.26456-.02906-3.39689-.04837a7.695,7.695,0,0,0,.53232.66776c1.79047,2.042,3.842,1.35485,4.16146-.12581A1.52716,1.52716,0,0,0,393.95623,140.77976Z"/><path d="M453.77575,93.058c.01.054.06641.02155.0315.0578l-.06177.09544-.12085.19265c-.07739.13093-.15918.25819-.23071.39268-.15113.26361-.29053.53325-.42383.8058q-.3999.81745-.72461,1.66341a15.10079,15.10079,0,0,0-.85108,3.48981,13.11789,13.11789,0,0,0,.9983,6.9167l.00805.02006a.52194.52194,0,0,1,.02832.10059,7.65334,7.65334,0,0,1-.01806,3.40518,3.87663,3.87663,0,0,1-.39771.84841l-.384.66687-.74732,1.342c-.24414.44737-.47973.89817-.69067,1.34593-.10449.22305-.20337.44751-.28076.65782a2.76751,2.76751,0,0,0-.09107.28638c-.00659.03343-.01172.06941-.01172.06941-.01391.00346.04346-.03295-.08789-.28252a.63686.63686,0,0,0-.38183-.27473l.07568.01649.16162.03.34156.04643a6.95714,6.95714,0,0,0,.69946.0403,4.65757,4.65757,0,0,0,1.31177-.15593.78266.78266,0,0,1,.93579.43016l.0122.02724a30.36245,30.36245,0,0,0,2.19605,4.02674,22.307,22.307,0,0,0,2.81714,3.55,8.91,8.91,0,0,0,3.56054,2.33663,5.17374,5.17374,0,0,0,3.97-.39574l.0503-.02457a.73951.73951,0,0,1,.91772.22367,40.63161,40.63161,0,0,1,2.39282,3.59985,20.91719,20.91719,0,0,1,1.009,1.9447,5.96379,5.96379,0,0,1,.60254,2.27821l-.19629-.42585,5.79785,5.20189q2.91174,2.58581,5.87012,5.11729l5.95166,5.02173c1.97632,1.68281,3.99756,3.31319,6.00268,4.96234l-.77246.31552.72363-11.03848.812-11.03066.33984.77695c-1.30273-1.01009-2.51367-2.05818-3.71314-3.15466-1.19165-1.09758-2.35278-2.23235-3.447-3.44176a35.288,35.288,0,0,1-3.08593-3.83385,18.63094,18.63094,0,0,1-2.33448-4.48779l.48267.58339a54.26728,54.26728,0,0,1-4.6665-2.92714c-.7483-.54375-1.48487-1.11508-2.19727-1.74889a7.70373,7.70373,0,0,1-1.9541-2.44215.9286.9286,0,0,1,.1831-1.051l.0586-.0582a6.0487,6.0487,0,0,0,1.15893-1.73262,6.63853,6.63853,0,0,0,.54688-2.07627,7.03988,7.03988,0,0,0-.176-2.17225,8.52963,8.52963,0,0,0-.3501-1.06771,5.42776,5.42776,0,0,0-.45312-.96308,2.6445,2.6445,0,0,0-3.28394-1.12039c-1.12573.50047-1.615,2.08325-1.74926,3.61467l-.00367.04347a.68355.68355,0,0,1-.74072.62125.74838.74838,0,0,1-.09253-.01457,32.72421,32.72421,0,0,1-4.77636-1.51467,27.0997,27.0997,0,0,1-4.45948-2.23341,17.34855,17.34855,0,0,1-3.82422-3.20689A10.12145,10.12145,0,0,1,453.77575,93.058Zm.03711-.19a12.77584,12.77584,0,0,0,2.65527,4.08625,17.40324,17.40324,0,0,0,3.86426,2.815,26.08438,26.08438,0,0,0,4.40015,1.92537,31.59312,31.59312,0,0,0,4.62793,1.21164l-.83667.65a8.42511,8.42511,0,0,1,.51782-2.669,4.18409,4.18409,0,0,1,1.93457-2.27042,3.98482,3.98482,0,0,1,3.04443-.23608,4.70564,4.70564,0,0,1,2.40015,1.79584,6.93367,6.93367,0,0,1,.65918,1.263,10.27679,10.27679,0,0,1,.46509,1.28631,8.90588,8.90588,0,0,1,.3103,2.76938,8.06544,8.06544,0,0,1-.65845,2.73625,7.82521,7.82521,0,0,1-1.58837,2.3973l.24169-1.10884a6.23261,6.23261,0,0,0,1.46216,1.68278c.63941.55164,1.33155,1.075,2.04492,1.57739a52.68092,52.68092,0,0,0,4.46167,2.81112,1.06568,1.06568,0,0,1,.48291.58368,18.31693,18.31693,0,0,0,2.04908,3.99542,33.38062,33.38062,0,0,0,2.8518,3.67174c1.02735,1.17727,2.13257,2.29666,3.27,3.38223,1.13721,1.07834,2.32544,2.14169,3.5293,3.1096l.02344.01889a.86857.86857,0,0,1,.31665.75838l-1.13648,11.002-1.22485,10.99419-.002.01938a.46484.46484,0,0,1-.77051.29622c-1.9419-1.72321-3.86768-3.4652-5.83838-5.15473l-5.88892-5.09535q-2.96776-2.52024-5.97045-4.99976l-6.04273-4.91517a.52364.52364,0,0,1-.19238-.36725l-.00415-.05893a5.086,5.086,0,0,0-.59326-1.758,19.699,19.699,0,0,0-1.031-1.767,39.32706,39.32706,0,0,0-2.46484-3.34049l.96753.199a7.3475,7.3475,0,0,1-2.49927.86229,6.3987,6.3987,0,0,1-2.677-.19981,10.22364,10.22364,0,0,1-4.30982-2.73,21.14869,21.14869,0,0,1-3.00439-3.88272,31.83675,31.83675,0,0,1-2.24414-4.31668l.94751.45727a6.17654,6.17654,0,0,1-1.77393.18642,8.49,8.49,0,0,1-.85425-.066l-.42895-.06709-.22022-.04555-.114-.02741a1.03938,1.03938,0,0,1-.29663-.13578.832.832,0,0,1-.2378-.25014,1.01841,1.01841,0,0,1-.14184-.66013,2.02943,2.02943,0,0,1,.05615-.31353,4.21175,4.21175,0,0,1,.15137-.4535c.10791-.2749.22461-.52339.34473-.76832.24145-.48734.49658-.95242.75878-1.41179.25977-.46045.53321-.90975.81519-1.35333l.42554-.66417a2.43394,2.43394,0,0,0,.29565-.54135,6.54645,6.54645,0,0,0,.12012-2.7726l.03613.12025a14.25183,14.25183,0,0,1-.93628-5.62121,15.41391,15.41391,0,0,1,.24951-1.87914,15.76837,15.76837,0,0,1,1.15381-3.56589,16.02431,16.02431,0,0,1,.87818-1.64386c.16284-.26414.33129-.52415.51074-.77691.08569-.12879.18213-.251.27344-.3758l.14233-.18409.07251-.09113A.35292.35292,0,0,1,453.81286,92.868Z"/><path d="M472.97937,113.04736a16.14405,16.14405,0,0,1-1.01709,5.04848,12.5822,12.5822,0,0,1-1.136,2.34712,5.72976,5.72976,0,0,1-.835,1.04433,1.61441,1.61441,0,0,1-1.20874.55308,1.781,1.781,0,0,0,.83935-.852,9.88582,9.88582,0,0,0,.5376-1.10045c.31519-.76219.61206-1.53984.89526-2.32707A48.43472,48.43472,0,0,1,472.97937,113.04736Z"/><path d="M451.34509,105.49664a3.93566,3.93566,0,0,1,1.32495-.6994,5.61815,5.61815,0,0,1,1.46533-.268,4.908,4.908,0,0,1,1.50122.18231,2.88617,2.88617,0,0,1,1.30518.78513l-1.4209-.03885c-.45337.013-.89771.01569-1.34839.03789A22.54958,22.54958,0,0,1,451.34509,105.49664Z"/><path d="M454.86535,120.52626a27.26536,27.26536,0,0,0,2.42578-1.86992,6.55416,6.55416,0,0,0,.91919-1.08029,8.16742,8.16742,0,0,0,.67993-1.38114,2.65752,2.65752,0,0,1,.00586,1.69722,3.66338,3.66338,0,0,1-.9414,1.46785,4.62033,4.62033,0,0,1-1.44556.89324A3.734,3.734,0,0,1,454.86535,120.52626Z"/><path d="M454.99328,110.1059a1.406,1.406,0,0,0,0-2.81031,1.406,1.406,0,0,0,0,2.81031Z"/><path d="M483.32123,116.49468c15.12714-5.9557,2.6979-26.979,2.6979-26.979,2.39813,2.39813,13.93915-9.8923,0-13.03985s-9.8923,7.94382-9.8923,7.94382c-15.73775-4.64639-22.33262,8.54335-22.33262,8.54335s1.16691,6.80324,15.438,10.64171c0,0,.80617-7.59111,6.43536-2.97958a7.3411,7.3411,0,0,1-.7398,9.27468S481.811,117.0893,483.32123,116.49468Z"/><path d="M469.84118,132.92828a81.6719,81.6719,0,0,0-9.24585,1.9352,34.06765,34.06765,0,0,0-4.418,1.49748,7.54827,7.54827,0,0,0-3.46191,2.4922l-.25415-.90111a14.06052,14.06052,0,0,1,4.23193,3.99785,19.53816,19.53816,0,0,1,1.51538,2.46341c.40406.87068.7854,1.76114,1.10694,2.66487a25.46907,25.46907,0,0,1,.95752,11.32311c-.05152.47113-.083.94619-.15161,1.41385l-.28663,1.387-.59936,2.76673c-.59058,1.78332-1.10059,3.599-1.80615,5.33208-.76221,1.709-1.42969,3.45982-2.26783,5.12471l-2.60058,4.94473.00561-.4382q2.28,4.7811,4.64917,9.51713l-.16455-.14793a54.35077,54.35077,0,0,0,6.355,1.88255c2.15064.527,4.32569.94875,6.50977,1.30557a76.773,76.773,0,0,0,13.20972.83464l3.29882-.15255,3.27686-.35761a64.8294,64.8294,0,0,0,6.46191-1.17933l3.16455-.85822c1.04493-.31287,2.05176-.74155,3.07886-1.10526l1.53345-.56755c.49878-.21711.979-.47618,1.46948-.7118l2.92725-1.44336-.436.50535a134.69779,134.69779,0,0,0,3.87354-13.56859,93.26449,93.26449,0,0,0,2.2207-13.89517c.335-4.64293.26318-9.40727-1.19287-13.77032a15.04126,15.04126,0,0,0-3.39917-5.83342,13.06365,13.06365,0,0,0-5.87134-3.37369l-.0293-.00828a.3265.3265,0,0,1-.0769-.03344l-8.011-4.85309a.09689.09689,0,0,1,.09473-.16891l8.32617,4.28969-.106-.04155a13.93219,13.93219,0,0,1,6.5,3.33737,15.77438,15.77438,0,0,1,3.98315,6.18578c1.69434,4.64631,1.89038,9.59109,1.689,14.3887a84.55405,84.55405,0,0,1-2.11157,14.23944,113.40589,113.40589,0,0,1-4.08789,13.77759l-.01733.047a.82269.82269,0,0,1-.41895.45867l-3.07617,1.45791c-.51489.23694-1.02.497-1.54248.71421l-1.6023.56572c-1.07226.36145-2.12548.78662-3.21264,1.09321l-3.292.808a58.50887,58.50887,0,0,1-13.407,1.27756,83.35241,83.35241,0,0,1-13.33545-1.35233,85.75733,85.75733,0,0,1-12.96508-3.32.28063.28063,0,0,1-.15918-.13715l-.00562-.011q-2.41883-4.71069-4.94336-9.3678a.4466.4466,0,0,1-.01245-.39969l.01807-.03888,2.33911-4.99885c.75146-1.67527,1.32617-3.42086,1.99707-5.1225a27.01535,27.01535,0,0,0,.80078-2.61789l.76758-2.62305.51391-2.672.27-1.33234c.06324-.44687.08912-.89748.13575-1.34589a25.14555,25.14555,0,0,0-.74927-10.63749c-.283-.83893-.62036-1.66393-.97583-2.474a18.00145,18.00145,0,0,0-1.3501-2.28256,14.27594,14.27594,0,0,0-3.64941-3.71162l-.07251-.04853a.62619.62619,0,0,1-.18164-.85286,5.7241,5.7241,0,0,1,1.95263-1.79843,14.51005,14.51005,0,0,1,2.22925-1.06679,32.56594,32.56594,0,0,1,4.625-1.338,67.37991,67.37991,0,0,1,9.43994-1.26291.09677.09677,0,0,1,.1023.09087A.09934.09934,0,0,1,469.84118,132.92828Z"/><path d="M404.021,158.548c2.84525-.19355,5.70018-.3484,8.54542-.47421,5.14855-.24194,10.28742-.37743,15.436-.48388q3.063-.04356,6.126-.05807c-.42582.6097-.842,1.22907-1.27746,1.87748q-2.40975.07259-4.8195.11613c-5.13887.06774-10.28742.11613-15.436.05807-2.70008-.029-5.39049-.07742-8.09057-.15485Z"/><path d="M423.754,173.82912c-.12593.20326-.25163.40651-.36788.61939l-2.1.10644c-1.69361.08713-3.38721.15488-5.08081.21294-.26131-.29032-.52263-.59032-.79363-.9,1.95491-.03875,3.90014-.06775,5.85506-.05806Z"/><path d="M377.05383,156.36364c-2.62842.06444-5.25366.10651-7.86963.2439-1.30737.065-2.61255.16844-3.90357.28795-.644.06509-1.28686.14177-1.906.2561a7.18367,7.18367,0,0,0-.88452.21205,1.82693,1.82693,0,0,0-.34571.14188.27177.27177,0,0,0-.0642.04559.26652.26652,0,0,0,.0913-.2055l-.63061.58688a2.4746,2.4746,0,0,0-.55493.10771,1.17765,1.17765,0,0,0-.40918.212.33263.33263,0,0,0-.11182.22956,1.05445,1.05445,0,0,0,.062.40721.7528.7528,0,0,1-.29248.80317,5.23449,5.23449,0,0,0-.68286.58341,3.04353,3.04353,0,0,0-.50561.66188.91391.91391,0,0,0-.1316.545.803.803,0,0,0,.26514.42769.78046.78046,0,0,1,.04053,1.07815l-.03.03377c-.56177.63063-1.01514,1.61519-.80762,2.04716a1.2539,1.2539,0,0,0,.66309.6289,3.37629,3.37629,0,0,0,.55127.22088l.76416.19176q3.06848.74938,6.15258,1.43976c2.05542.45039,4.11768.866,6.17969,1.195,1.02906.17,2.05908.32172,3.07959.42031a12.53231,12.53231,0,0,0,2.90918.02453l.011-.00171a.94446.94446,0,0,1,.7456,1.6628,18.185,18.185,0,0,0-2.90356,3.06157,8.70689,8.70689,0,0,0-1.69605,3.64787,4.50815,4.50815,0,0,0,.94507,3.5226,1.36324,1.36324,0,0,0,1.31641.49037,2.29432,2.29432,0,0,0,1.3916-.92145,2.96022,2.96022,0,0,0,.42383-.80409,2.89334,2.89334,0,0,0,.1206-.44726l.1399-.629a4.72291,4.72291,0,0,1,1.40088-2.12784,8.096,8.096,0,0,1,4.39062-1.873,4.86765,4.86765,0,0,1,2.39111.18467,5.4705,5.4705,0,0,1,.5564.25346,2.30965,2.30965,0,0,0,.51245.24017,4.42242,4.42242,0,0,0,1.03345.26944,6.90481,6.90481,0,0,0,4.24756-.84569,6.72276,6.72276,0,0,1-4.29541,1.292c-.78052-.01737-1.54785-.40235-2.23047-.35092a17.98762,17.98762,0,0,0-2.07251.07562,6.953,6.953,0,0,0-3.71094,1.64892,3.49163,3.49163,0,0,0-1.01416,1.58446l-.09131.46819a4.20739,4.20739,0,0,1-.13037.6443,4.088,4.088,0,0,1-.55957,1.20073,3.69383,3.69383,0,0,1-2.21289,1.56813,2.89593,2.89593,0,0,1-2.74707-.85692,6.04945,6.04945,0,0,1-1.28589-2.25276,6.15355,6.15355,0,0,1-.20874-2.56955,10.40137,10.40137,0,0,1,1.90479-4.47566,18.39,18.39,0,0,1,3.21191-3.47l.75659,1.661a13.96869,13.96869,0,0,1-3.425.02607c-1.08813-.09671-2.15551-.24232-3.21582-.41192-2.1167-.35659-4.20337-.79637-6.27978-1.2701q-3.11608-.70521-6.1897-1.56135l-.771-.21489a4.94579,4.94579,0,0,1-.91235-.38611,2.91648,2.91648,0,0,1-1.4519-1.63066,2.99268,2.99268,0,0,1,.21045-2.137,5.6278,5.6278,0,0,1,1.05883-1.53374l.0105,1.11163a2.33611,2.33611,0,0,1-.67676-1.38877,2.4323,2.4323,0,0,1,.36377-1.44735,4.50959,4.50959,0,0,1,.79419-.96231,6.51006,6.51006,0,0,1,.937-.7281l-.29248.80287a2.35528,2.35528,0,0,1-.07446-1.058,1.71386,1.71386,0,0,1,.60694-1.03084,2.393,2.393,0,0,1,.915-.439,3.63972,3.63972,0,0,1,.91065-.1127l-.63037.58669a.96459.96459,0,0,1,.32593-.62557,1.57005,1.57005,0,0,1,.34619-.22348,3.01742,3.01742,0,0,1,.57519-.20108,8.31184,8.31184,0,0,1,1.04248-.18677c.67871-.08354,1.34448-.122,2.00952-.14958,1.32837-.05838,2.64869-.02293,3.96607.01123C371.81018,155.96484,374.43591,156.10493,377.05383,156.36364Z"/><path d="M374.95568,159.43626a46.61429,46.61429,0,0,1-6.77075-.70975c-1.11352-.197-2.2251-.4017-3.32959-.64727-1.10888-.23209-2.19873-.522-3.31421-.77881a16.53069,16.53069,0,0,1,3.428.03222c1.13477.09456,2.25757.25937,3.3772.44023A39.07623,39.07623,0,0,1,374.95568,159.43626Z"/><path d="M359.85485,159.099a37.21406,37.21406,0,0,1,6.66333.79885c1.09278.23118,2.18238.48372,3.25757.80285q.80749.2367,1.602.52839a5.32061,5.32061,0,0,1,1.51685.76723,9.43687,9.43687,0,0,0-1.63574-.30716l-1.64991-.25189c-1.10083-.16718-2.19213-.37795-3.28418-.59177A46.17136,46.17136,0,0,1,359.85485,159.099Z"/><path d="M358.61828,162.4714a45.85094,45.85094,0,0,1,7.97119.76051c1.31275.24094,2.62232.51484,3.91309.88341a10.12634,10.12634,0,0,1,3.68481,1.61605,6.9355,6.9355,0,0,0-1.89868-.535l-1.95264-.34446-3.91674-.66793C363.81091,163.70251,361.20056,163.21513,358.61828,162.4714Z"/><path d="M469.33386,131.03337c4.33569.16209,8.5437.57588,12.74756.68936a51.26171,51.26171,0,0,0,6.25659-.09792,17.04851,17.04851,0,0,0,6.08838-1.4324,11.0218,11.0218,0,0,1-5.85645,2.92488,26.36173,26.36173,0,0,1-6.54883.5389,40.08361,40.08361,0,0,1-6.4646-.76478A31.9078,31.9078,0,0,1,469.33386,131.03337Z"/><path d="M459.59436,189.46646a34.5546,34.5546,0,0,1,.48364,6.11844,34.14607,34.14607,0,0,1-.48364,6.11847,34.14392,34.14392,0,0,1-.4834-6.11847A34.5298,34.5298,0,0,1,459.59436,189.46646Z"/><path d="M502.99816,189.46646a22.13959,22.13959,0,0,1,.48365,4.88193,21.87808,21.87808,0,0,1-.48365,4.88189,21.89278,21.89278,0,0,1-.48364-4.88189A22.14018,22.14018,0,0,1,502.99816,189.46646Z"/><path d="M436.40775,440.2427c-.8993,11.6909-27.87831,23.3818-34.17341,24.50592s-2.6979,2.6979-2.6979,2.6979,29.00243,6.96958,62.72618-21.35837c0,0,2.24825-4.94615,0-7.86888s-.335-6.2121-.335-6.2121" fill="none" stroke="#000" stroke-linecap="round" stroke-linejoin="round" stroke-width="1.24903"/><path d="M462.26262,438.21927c5.3958,6.96958-1.7986,31.92515-1.7986,31.92515h-5.171V459.80247s-8.0937.44965-20.44029,8.40206c-9.651,6.21616-25.10589,6.09756-31.39439,5.74946a7.033,7.033,0,0,1-5.53559-3.08184c-3.122-4.78865,4.31156-6.12353,4.31156-6.12353s1.78184.61085,9.45613-.79849a98.42226,98.42226,0,0,0,44.55738-20.79949Z"/><path d="M420.23254,457.10458a4.73757,4.73757,0,0,1,2.51611,1.499,6.156,6.156,0,0,1,1.3916,2.5669,5.57971,5.57971,0,0,1,.00342,2.97662,4.32759,4.32759,0,0,1-1.66455,2.4491c-.30029-1.025-.40405-1.81543-.61523-2.56854-.1709-.74366-.33911-1.42341-.53052-2.118l-.56055-2.17865C420.58,458.95028,420.38854,458.13235,420.23254,457.10458Z"/><path d="M430.23376,450.10586a7.92494,7.92494,0,0,1,3.27808,1.99237,10.23732,10.23732,0,0,1,2.2041,3.171,8.658,8.658,0,0,1,.68945,3.91864,5.863,5.863,0,0,1-1.55273,3.60962,31.18832,31.18832,0,0,0-.72242-3.42431c-.31591-1.02033-.67309-1.97681-1.07959-2.95508-.42993-.96955-.89038-1.95014-1.37548-2.9773C431.19226,452.40786,430.69787,451.34506,430.23376,450.10586Z"/><path d="M505.69637,434.36068c-.8993,11.6909-27.8783,23.3818-34.1734,24.50593s-2.6979,2.6979-2.6979,2.6979,29.00242,6.96957,62.72617-21.35838c0,0,2.24825-4.94615,0-7.86887s-.335-6.2121-.335-6.2121" fill="none" stroke="#000" stroke-linecap="round" stroke-linejoin="round" stroke-width="1.24903"/><path d="M531.55124,432.33726c5.3958,6.96957-1.7986,31.92515-1.7986,31.92515h-5.171V453.92046s-8.0937.44965-20.44029,8.40206c-9.651,6.21616-25.10589,6.09755-31.39438,5.74946a7.033,7.033,0,0,1-5.5356-3.08184c-3.122-4.78866,4.31157-6.12353,4.31157-6.12353s1.78183.61085,9.45612-.79849a98.42221,98.42221,0,0,0,44.55739-20.7995Z"/><path d="M489.52111,451.22256a4.7392,4.7392,0,0,1,2.51636,1.499,6.1582,6.1582,0,0,1,1.39136,2.5669,5.57732,5.57732,0,0,1,.00342,2.97662,4.32768,4.32768,0,0,1-1.66455,2.4491c-.3003-1.025-.40406-1.81543-.61524-2.56854-.17065-.74359-.33911-1.4234-.53027-2.11805l-.56079-2.17865C489.86877,453.06826,489.67736,452.25039,489.52111,451.22256Z"/><path d="M499.52233,444.22384a7.92431,7.92431,0,0,1,3.27808,1.9924,10.233,10.233,0,0,1,2.2041,3.171,8.65481,8.65481,0,0,1,.6897,3.91864,5.86551,5.86551,0,0,1-1.55274,3.60962,31.241,31.241,0,0,0-.72265-3.42431c-.31592-1.02033-.6731-1.97681-1.07959-2.95508-.42993-.96951-.89038-1.95011-1.37549-2.9773C500.48083,446.52584,499.98645,445.463,499.52233,444.22384Z"/><path d="M159.27355,466.2225c-1.29223-11.59338-1.96313-23.18674-2.447-34.78009-.113-2.89835-.22143-5.79669-.29809-8.695l-.03223-1.08688-.01587-.54343c-.0039-.19-.01611-.32074-.00488-.64657a7.72343,7.72343,0,0,1,.79956-3.28775,7.9375,7.9375,0,0,1,5.20068-4.16791,8.66836,8.66836,0,0,1,1.68506-.22846l1.08765-.039,2.175-.06939,4.35034-.1388,8.70215-.20914,8.70337-.129c1.44873-.01615,2.90185-.01691,4.36279.01153l2.187.02789.56494.00858c.28784.01529.57642.0228.8628.06137a8.06791,8.06791,0,0,1,1.68457.40823,7.91094,7.91094,0,0,1,4.73852,4.69117,7.3933,7.3933,0,0,1,.41333,1.65768,8.38556,8.38556,0,0,1,.06543,1.50614l-.0647,2.17373c-.07739,2.89835-.18213,5.79669-.29785,8.695-.48193,11.59335-1.15478,23.18671-2.45532,34.78009-1.30054-11.59338-1.97363-23.18674-2.45532-34.78009-.11573-2.89835-.22046-5.79669-.2981-8.695l-.06445-2.17373a3.01286,3.01286,0,0,0-.05811-.66086,1.73879,1.73879,0,0,0-.13867-.43878,2.07454,2.07454,0,0,0-1.31836-1.15632,2.12623,2.12623,0,0,0-.4292-.076l-.22143-.00614-.52173.00546-2.1604.0279c-1.43775.00866-2.88281.04657-4.33154.09994l-8.6836.20389-16.75415.19971a2.11129,2.11129,0,0,0-1.43481,1.01928,2.32306,2.32306,0,0,0-.281.88547,3.76456,3.76456,0,0,0-.02344.43985l-.01587.54343-.03222,1.08688c-.07642,2.89835-.18506,5.79669-.2981,8.695C161.23645,443.03576,160.56579,454.62912,159.27355,466.2225Z"/><path d="M159.873,476.26466c14.46642,0,14.49038-22.4825,0-22.4825-14.46641,0-14.49037,22.4825,0,22.4825Z"/><path d="M201.84032,476.86419c14.46642,0,14.49038-22.4825,0-22.4825-14.46642,0-14.49038,22.4825,0,22.4825Z"/><path d="M203.93859,140.75081a23.68377,23.68377,0,0,1,.91846-4.4274,16.79606,16.79606,0,0,1,.84351-2.15183,6.3132,6.3132,0,0,1,1.44677-2.02318,2.64031,2.64031,0,0,1,1.37647-.67494,2.3732,2.3732,0,0,1,1.59741.35849,5.95018,5.95018,0,0,1,1.78125,1.93189,18.42313,18.42313,0,0,1,1.81348,4.33726,21.629,21.629,0,0,1,.68823,4.60092c.02612,1.57155-.043,3.0199-.11768,4.51833-.14184,2.977-.35229,5.954-.75537,8.931-.40283-2.977-.61328-5.954-.75512-8.931-.104-1.47786-.07349-3.00881-.20142-4.411a21.39881,21.39881,0,0,0-.72534-4.20116,17.91225,17.91225,0,0,0-1.52393-3.92125,4.46435,4.46435,0,0,0-1.10376-1.42268.79873.79873,0,0,0-.51513-.184,1.05924,1.05924,0,0,0-.6189.24292,5.54681,5.54681,0,0,0-1.28906,1.47183,16.98048,16.98048,0,0,0-1.0647,1.88167C205.06872,137.98419,204.50549,139.36073,203.93859,140.75081Z"/><path d="M234.88439,140.75081a23.68377,23.68377,0,0,1,.91846-4.4274,16.76085,16.76085,0,0,1,.84351-2.15183,6.3132,6.3132,0,0,1,1.44677-2.02318,2.6394,2.6394,0,0,1,1.37647-.67494,2.37353,2.37353,0,0,1,1.59741.35849,5.94928,5.94928,0,0,1,1.781,1.93189,18.42393,18.42393,0,0,1,1.81372,4.33726,21.61338,21.61338,0,0,1,.688,4.60092c.02612,1.57155-.04273,3.0199-.11768,4.51833-.1416,2.977-.35229,5.954-.75513,8.931-.40283-2.977-.61328-5.954-.75512-8.931-.104-1.47786-.07349-3.00881-.20142-4.411a21.41657,21.41657,0,0,0-.72534-4.20116,17.91337,17.91337,0,0,0-1.52417-3.92125,4.45748,4.45748,0,0,0-1.10376-1.42268.79773.79773,0,0,0-.51489-.184,1.05927,1.05927,0,0,0-.6189.24292,5.54681,5.54681,0,0,0-1.28906,1.47183,16.942,16.942,0,0,0-1.0647,1.88167C236.01428,137.98419,235.451,139.36073,234.88439,140.75081Z"/><path d="M269.89416,140.75081a23.68316,23.68316,0,0,1,.91821-4.4274,16.79917,16.79917,0,0,1,.84375-2.15183,6.30572,6.30572,0,0,1,1.44678-2.02318,2.63848,2.63848,0,0,1,1.37647-.67494,2.37353,2.37353,0,0,1,1.59741.35849,5.952,5.952,0,0,1,1.781,1.93189,18.42351,18.42351,0,0,1,1.81372,4.33726,21.628,21.628,0,0,1,.688,4.60092c.02613,1.57155-.043,3.0199-.11767,4.51833-.14185,2.977-.3523,5.954-.75513,8.931-.40283-2.977-.61353-5.954-.75537-8.931-.104-1.47786-.07349-3.00881-.20142-4.411a21.41622,21.41622,0,0,0-.7251-4.20116,17.91236,17.91236,0,0,0-1.52417-3.92125,4.45734,4.45734,0,0,0-1.10376-1.42268.79831.79831,0,0,0-.51513-.184,1.05927,1.05927,0,0,0-.6189.24292A5.54622,5.54622,0,0,0,272.754,134.795a16.98349,16.98349,0,0,0-1.06494,1.88167C271.024,137.98419,270.46081,139.36073,269.89416,140.75081Z"/><path d="M306.69592,140.75081a23.68374,23.68374,0,0,1,.91845-4.4274,16.76231,16.76231,0,0,1,.84351-2.15183,6.31308,6.31308,0,0,1,1.44678-2.02318,2.64031,2.64031,0,0,1,1.37646-.67494,2.37355,2.37355,0,0,1,1.59742.35849,5.95294,5.95294,0,0,1,1.78125,1.93189,18.42267,18.42267,0,0,1,1.81347,4.33726,21.62836,21.62836,0,0,1,.68823,4.60092c.02588,1.57155-.043,3.0199-.11792,4.51833-.1416,2.977-.35229,5.954-.75512,8.931-.40283-2.977-.61328-5.954-.75513-8.931-.104-1.47786-.07349-3.00881-.20142-4.411a21.41657,21.41657,0,0,0-.72534-4.20116,17.91286,17.91286,0,0,0-1.52417-3.92125,4.4606,4.4606,0,0,0-1.10351-1.42268.79877.79877,0,0,0-.51514-.184,1.05929,1.05929,0,0,0-.6189.24292,5.54681,5.54681,0,0,0-1.28906,1.47183,16.94364,16.94364,0,0,0-1.0647,1.88167C307.826,137.98419,307.26257,139.36073,306.69592,140.75081Z"/><path d="M198.54284,167.97879c2.20069-2.58223,4.5603-4.9878,6.95777-7.35179,1.21337-1.16549,2.4143-2.34517,3.65625-3.47913,1.23754-1.13884,2.46948-2.28386,3.739-3.38724l.01733-.01494a.94385.94385,0,0,1,1.33155.09325,1.00877,1.00877,0,0,1,.07617.10071q2.22912,3.39114,4.29468,6.89117c.696,1.16156,1.36035,2.34432,2.01977,3.53038.65381,1.18984,1.29443,2.38823,1.88892,3.61759-.90454-1.02292-1.7627-2.07679-2.60767-3.13921-.8396-1.06621-1.67407-2.13571-2.47656-3.22641q-2.43091-3.25689-4.69849-6.62239l1.42481.179c-1.22852,1.1489-2.49463,2.25613-3.75513,3.36955-1.25586,1.11832-2.55322,2.19091-3.83789,3.27768C203.97473,163.95752,201.3385,166.05648,198.54284,167.97879Z"/><path d="M227.69006,167.97879c2.20044-2.58223,4.5603-4.9878,6.95752-7.35179,1.21362-1.16549,2.4143-2.34517,3.65625-3.47913,1.23755-1.13884,2.46972-2.28386,3.73926-3.38724l.01709-.01494a.9438.9438,0,0,1,1.33154.09325,1.04941,1.04941,0,0,1,.07641.10071q2.22913,3.39114,4.29444,6.89117c.69629,1.16156,1.36059,2.34432,2.02,3.53038.65356,1.18984,1.29443,2.38823,1.88867,3.61759-.90454-1.02292-1.76245-2.07679-2.60767-3.13921-.83935-1.06621-1.67382-2.13571-2.47656-3.22641q-2.4309-3.25689-4.69849-6.62239l1.425.179c-1.22851,1.1489-2.49463,2.25613-3.75512,3.36955-1.25611,1.11832-2.55347,2.19091-3.83789,3.27768C233.1217,163.95752,230.48547,166.05648,227.69006,167.97879Z"/><path d="M262.69982,167.97879c2.20044-2.58223,4.56031-4.9878,6.95752-7.35179,1.21363-1.16549,2.41431-2.34517,3.65625-3.47913,1.23755-1.13884,2.46949-2.28386,3.739-3.38724l.01733-.01494a.94382.94382,0,0,1,1.33154.09325,1.04952,1.04952,0,0,1,.07642.10071q2.22912,3.39114,4.29443,6.89117c.69629,1.16156,1.3606,2.34432,2.01978,3.53038.65381,1.18984,1.29468,2.38823,1.88892,3.61759-.90455-1.02292-1.76246-2.07679-2.60767-3.13921-.83936-1.06621-1.67383-2.13571-2.47656-3.22641q-2.43091-3.25689-4.69849-6.62239l1.42481.179c-1.22852,1.1489-2.49439,2.25613-3.75489,3.36955-1.2561,1.11832-2.55346,2.19091-3.83789,3.27768C268.13146,163.95752,265.49523,166.05648,262.69982,167.97879Z"/><path d="M301.139,167.97879c2.20069-2.58223,4.56055-4.9878,6.95777-7.35179,1.21362-1.16549,2.4143-2.34517,3.65625-3.47913,1.23755-1.13884,2.46948-2.28386,3.739-3.38724l.01733-.01494a.94385.94385,0,0,1,1.33155.09325,1.04941,1.04941,0,0,1,.07641.10071q2.22913,3.39114,4.29444,6.89117c.69629,1.16156,1.36059,2.34432,2.01977,3.53038.65381,1.18984,1.29468,2.38823,1.88892,3.61759-.90454-1.02292-1.76245-2.07679-2.60767-3.13921-.8396-1.06621-1.67407-2.13571-2.47656-3.22641q-2.43092-3.25689-4.69849-6.62239l1.42481.179c-1.22852,1.1489-2.49439,2.25613-3.75488,3.36955-1.25611,1.11832-2.55347,2.19091-3.8379,3.27768C306.57092,163.95752,303.93469,166.05648,301.139,167.97879Z"/><path d="M205.80395,227.46307h-.23225a5.81478,5.81478,0,0,0,.43557,1.04515A4.25476,4.25476,0,0,1,205.80395,227.46307Zm0,0h-.23225a5.81478,5.81478,0,0,0,.43557,1.04515A4.25476,4.25476,0,0,1,205.80395,227.46307Zm0,0h-.23225a5.81478,5.81478,0,0,0,.43557,1.04515A4.25476,4.25476,0,0,1,205.80395,227.46307Zm0,0h-.23225a5.81478,5.81478,0,0,0,.43557,1.04515A4.25476,4.25476,0,0,1,205.80395,227.46307Zm0,0h-.23225a5.81478,5.81478,0,0,0,.43557,1.04515A4.25476,4.25476,0,0,1,205.80395,227.46307Zm18.82323,44.80781q-1.94517-9.39227-3.5227-18.85223c-1.07421-6.29052-2.042-12.61-2.98069-18.92961-.90977-6.31952-1.79036-12.64872-2.56462-18.98767q-1.19046-9.50835-2.0323-19.06506,1.94517,9.39219,3.5227,18.85217c1.07422,6.29052,2.042,12.61,2.9807,18.91993.90976,6.3292,1.79035,12.64878,2.56462,18.99736q1.205,9.50834,2.03229,19.06511h10.25836c7.25828-6.89053,9.59065-30.57193,7.42285-36.87213-.83227-2.41943-6.29052-16.78113-7.42285-18.88118s-3.06776-21.28134-1.56767-35.3721-19.791-13.17135-19.791-13.17135a19.7131,19.7131,0,0,1-.98715,8.92288,9.7633,9.7633,0,0,1-2.613,3.98721,6.92908,6.92908,0,0,1-4.69355,1.68392c-.155-.00969-.30975-.01938-.46451-.03875.30951,3.59045.48388,7.19059.60958,10.781.14519,3.91946.20319,7.839.26132,11.75845.02906,3.90977.04843,7.82924.02906,11.73907l-.00969,5.8647c-.00969.97745.01938,1.95485.03875,2.93231.01938.49358.02906.97746.07738,1.46135.00969.1355.01937.26132.02894.39682a16.0384,16.0384,0,0,1,2.43881.20319,9.24921,9.24921,0,0,1,2.11948.6,3.19209,3.19209,0,0,1,1.67422,1.442,4.07372,4.07372,0,0,0-1.91616-.52258,16.95,16.95,0,0,0-1.98387-.00969c-1.326.04838-2.66137.18388-4.01639.28069-1.3451.10645-2.70969.2032-4.084.26126a33.64583,33.64583,0,0,1-4.19041-.00968,17.68382,17.68382,0,0,1,3.96784-1.471,24.13406,24.13406,0,0,1,4.16147-.70651c.53232-.04838,1.05484-.06769,1.59673-.06769-.17414-.59039-.28058-1.20009-.40639-1.8001-.18382-.96777-.31944-1.94523-.45483-2.92263q-.36291-2.93238-.55169-5.88407c-.29038-3.91946-.3967-7.84861-.45483-11.76814-.01937-3.92915.00969-7.84861.16445-11.77776.14531-3.60008.33881-7.20022.72583-10.80031a7.0855,7.0855,0,0,1-3.89034-2.00329,13.22086,13.22086,0,0,1-2.64212-3.85171,24.52424,24.52424,0,0,1-2.21612-8.68094c-18.84248,11.78745-34.472,83.01547-35.372,95.00612a16.59817,16.59817,0,0,0,8.99052,16.42311c-.00969-4.73241.19363-9.44546.48389-14.1585.271-4.70336.67751-9.40677,1.142-14.10044.50326-4.69367,1.05484-9.3874,1.79035-14.05206.35807-2.33231.78384-4.66467,1.258-6.98728.25163-1.15166.513-2.313.8227-3.455.16445-.58064.329-1.15165.52264-1.713.10632-.28063.21288-.55164.33858-.83227.13562-.25163.26131-.571.542-.69677a1.37754,1.37754,0,0,0-.40639.75483c-.0775.28064-.13562.56133-.19363.85165-.11613.58064-.19362,1.16133-.28057,1.742-.155,1.16134-.29038,2.33237-.40663,3.50333-.25151,2.33237-.46451,4.67436-.69676,7.01635L173.016,251.338c-.50326,4.684-.98714,9.368-1.57747,14.05206-.571,4.67429-1.19046,9.34865-1.97429,14.01331,2.40017,11.33257-5.39044,72.61188-5.39044,72.61188C232.11773,411.06867,251.599,378.387,251.599,378.387,242.9084,369.09642,224.62718,272.27088,224.62718,272.27088Zm-3.01944-89.87694a12.13625,12.13625,0,0,1,2.23561-3.03882,8.75215,8.75215,0,0,1,3.25158-2.10974,5.41615,5.41615,0,0,1,3.82277,0,10.6122,10.6122,0,0,0-3.16452,1.37422,16.002,16.002,0,0,0-2.555,2.10974c-1.6161,1.57747-3.029,3.40657-4.771,5.20661A10.625,10.625,0,0,1,221.60774,182.39394Zm-15.80379,45.06913h-.23225a5.81478,5.81478,0,0,0,.43557,1.04515A4.25476,4.25476,0,0,1,205.80395,227.46307Zm-9.9486-59.47927a44.03671,44.03671,0,0,0,3.53239,7.95506,13.68728,13.68728,0,0,0,2.5645,3.22269,5.21724,5.21724,0,0,0,3.34857,1.471,5.15642,5.15642,0,0,0,3.45489-1.16133,9.06594,9.06594,0,0,0,2.40006-3.17432,30.83524,30.83524,0,0,0,2.37111-8.32281C205.60076,175.62922,196.24248,168.2935,195.85535,167.9838Zm9.9486,59.47927h-.23225a5.81478,5.81478,0,0,0,.43557,1.04515A4.25476,4.25476,0,0,1,205.80395,227.46307Zm0,0h-.23225a5.81478,5.81478,0,0,0,.43557,1.04515A4.25476,4.25476,0,0,1,205.80395,227.46307Zm0,0h-.23225a5.81478,5.81478,0,0,0,.43557,1.04515A4.25476,4.25476,0,0,1,205.80395,227.46307Z"/><path d="M206.00727,228.50822a5.81478,5.81478,0,0,1-.43557-1.04515h.23225A4.25476,4.25476,0,0,0,206.00727,228.50822Z" fill="#fff"/><path d="M206.00727,228.50822a5.81478,5.81478,0,0,1-.43557-1.04515h.23225A4.25476,4.25476,0,0,0,206.00727,228.50822Z" fill="#fff"/><path d="M225.672,169.75834c5.2146-.16758,10.426-.24832,15.63526-.36905l15.625-.22039.97631-.01377.2439-.00343a.9237.9237,0,0,1,.50049.15814c.22363.18512.15039.16039.20923.22626a1.183,1.183,0,0,1,.124.24834,3.93515,3.93515,0,0,1,.16089.58253c.14526.69035.21948,1.33876.29932,1.99651.1521,1.30961.27124,2.61143.38623,3.91412l.61767,7.80766c.37183,5.204.78516,10.40241,1.10034,15.60694l1.9253,31.22232c.32861,5.20352.68481,10.40564,1.13476,15.59976.429,5.19586.88013,10.39044,1.44922,15.57294,1.06592,10.37213,2.408,20.715,3.93286,31.02441,1.53565,10.30753,3.20313,20.59232,5.20215,30.80572a279.401,279.401,0,0,0,7.50513,30.22977,93.96715,93.96715,0,0,0,5.773,14.34122,41.86633,41.86633,0,0,0,4.05908,6.45352,16.39,16.39,0,0,0,5.58569,4.77222l.0586.02783a.82554.82554,0,0,1,.01806,1.48276,24.58346,24.58346,0,0,1-5.7998,1.97424c-.97412.25439-1.969.37689-2.95191.57065-.99121.12439-1.98217.2569-2.97461.35638a61.3971,61.3971,0,0,1-11.90283-.19714,86.96353,86.96353,0,0,1-11.67724-2.03189c-1.90869-.50189-3.80762-1.0376-5.70459-1.56711l-5.61231-1.84708a.09649.09649,0,0,1-.06152-.1221.101.101,0,0,1,.12231-.06167l5.67456,1.59018c1.91285.44259,3.82325.89038,5.73828,1.30352a98.62285,98.62285,0,0,0,11.61866,1.60691,62.41379,62.41379,0,0,0,11.65747-.14585c.96142-.11508,1.91821-.262,2.875-.39956.94189-.20581,1.90283-.34076,2.82788-.6026a23.42847,23.42847,0,0,0,5.31274-1.89771l.07666,1.51038a18.10506,18.10506,0,0,1-6.32129-5.16016,39.01561,39.01561,0,0,1-4.34545-6.71142,95.86952,95.86952,0,0,1-5.96094-14.62418,238.97594,238.97594,0,0,1-7.39746-30.50595c-3.84351-20.55823-5.91626-41.35394-7.9607-62.11133l-2.99853-31.15341-1.40918-15.58716c-.45264-5.19733-.79419-10.40253-1.17847-15.604-.38306-5.20154-.64429-10.41085-.98413-15.612l-.52661-7.79457c-.09912-1.29575-.20313-2.59209-.33716-3.87416-.06763-.63718-.1438-1.28525-.24658-1.87511a3.05431,3.05431,0,0,0-.083-.36314c-.01147-.043-.001.00276.02124.02757a1.75285,1.75285,0,0,0,.13623.13292c.104.13145.49683.11509.39112.11038l-.24488-.00343-.97925-.01377-15.66357-.2204c-5.22-.12072-10.438-.20146-15.65308-.369a.09681.09681,0,0,1,.00049-.19355Z"/><path d="M248.60388,181.55139c1.689,3.26988,3.09887,6.5305,4.83008,9.57756a25.74962,25.74962,0,0,0,2.8955,4.27177,8.20291,8.20291,0,0,0,4.26221,2.79053,5.15927,5.15927,0,0,1-2.81763-.23212,8.45843,8.45843,0,0,1-2.49194-1.46994,15.67472,15.67472,0,0,1-3.53345-4.40957,25.53543,25.53543,0,0,1-2.15014-5.109A22.02785,22.02785,0,0,1,248.60388,181.55139Z"/><path d="M230.9176,173.21489c4.82007.16464,9.52368.75541,14.22754,1.24,2.34692.26594,4.69287.50132,7.02978.66633a34.58969,34.58969,0,0,0,3.49341.079,9.03393,9.03393,0,0,0,1.71313-.1888,2.65462,2.65462,0,0,0,1.51954-.76169,2.5833,2.5833,0,0,1-1.33472,1.26544,8.315,8.315,0,0,1-1.75977.62531,20.45923,20.45923,0,0,1-3.63672.49116,46.058,46.058,0,0,1-7.23242-.25354,69.01514,69.01514,0,0,1-7.09765-1.17285A49.39974,49.39974,0,0,1,230.9176,173.21489Z"/><path d="M243.50793,169.85507a12.85061,12.85061,0,0,1,.30029,2.65791,24.96169,24.96169,0,0,1-.08984,2.53685c-.07422.83486-.17114,1.65589-.29346,2.47914-.12353.83289-.2771,1.63-.3667,2.56621a4.79847,4.79847,0,0,1-1.15454-2.52232,9.93209,9.93209,0,0,1-.11352-2.686,11.90593,11.90593,0,0,1,.51806-2.59776A8.45573,8.45573,0,0,1,243.50793,169.85507Z"/><path d="M248.11682,169.85507a9.27727,9.27727,0,0,1,.4956,2.68222,12.84923,12.84923,0,0,1-.1665,2.65109,19.15133,19.15133,0,0,1-.62305,2.47376,3.67014,3.67014,0,0,0-.18213,1.092c-.02441.4099.04541.85729.02637,1.34108a4.21792,4.21792,0,0,1-.93921-1.07669,3.331,3.331,0,0,1-.42163-1.48471,13.2637,13.2637,0,0,1,.23144-2.66621,22.42536,22.42536,0,0,1,.56836-2.50835A11.65107,11.65107,0,0,1,248.11682,169.85507Z"/><path d="M258.19645,169.85511V158.96163s1.7986,21.28343,32.67457,7.1944c0,0-1.19906,55.7566,17.0867,118.7076,0,0,2.37834,13.368-40.32851-5.45654"/><path d="M352.69236,212.91743a179.16279,179.16279,0,0,1-23.749,0,15.99942,15.99942,0,0,0,.76446-7.90668,32.07484,32.07484,0,0,0-.69677-3.94852c-.33869-1.27747-.69676-2.56462-1.13221-3.813a53.903,53.903,0,0,0-3.13557-7.27766,44.94642,44.94642,0,0,0-4.19053-6.70665c1.83879,4.94535,3.842,9.72609,5.49688,14.61338a66.18393,66.18393,0,0,1,2.16791,7.37442,25.0636,25.0636,0,0,1,.72583,7.66473s-6.426,4.99368-17.449.40645a14.54512,14.54512,0,0,0,.66783-1.95486c.12569-.66776.29026-1.3549.358-2.042.04843-.68708.09687-1.37422.13562-2.06136l-.02906-2.0613a56.899,56.899,0,0,0-1.00652-8.1293,78.85776,78.85776,0,0,0-2.02273-7.90668,57.051,57.051,0,0,0-2.90332-7.61636c.40663,2.70006.91946,5.35175,1.45166,7.99374l1.57759,7.89705q.784,3.94847,1.40322,7.897l.26132,1.984.17413,1.98392c.0775.66777.03875,1.31616.06781,1.99361a4.88106,4.88106,0,0,1-.05812.99677l-.07738,1.02584c-11.03262-4.59692-17.66183.76458-17.66183.76458L291.06473,178.726c2.88394-11.11,6.6969-15.87142,6.6969-15.87142s.30007,13.81975,35.072,5.10981C332.83367,167.96443,350.36011,200.62672,352.69236,212.91743Z"/><path d="M346.286,212.9606a59.13556,59.13556,0,0,0-3.1753,15.7373c-.05615,1.33823-.14209,2.67472-.14868,4.01212.03589,1.3381-.01587,2.6759.09058,4.00973a72.19418,72.19418,0,0,0,.77807,7.97275c.24244,1.31381.4441,2.63486.71827,3.94119l.94335,3.89353,2.32081,7.72705c.81933,2.60483,1.39306,5.25952,2.00268,7.90573.54028,2.65839,1.061,5.31912,1.5188,7.98779.42017,2.67514.896,5.33979,1.24023,8.02341l.58545,4.01382.54248,4.01862c.72974,5.35657,1.44361,10.71433,2.082,16.08264,1.34106,10.73071,2.52514,21.47882,3.269,32.28467a.8721.8721,0,0,1-.60108.8894l-.00634.00184a195.34824,195.34824,0,0,1-20.14869,5.297,153.484,153.484,0,0,1-20.64233,2.861,92.79349,92.79349,0,0,1-20.84961-.80277,51.61262,51.61262,0,0,1-10.07837-2.789,31.44991,31.44991,0,0,1-8.93164-5.33331.09665.09665,0,0,1-.00879-.13666.098.098,0,0,1,.13135-.01319,32.5547,32.5547,0,0,0,9.10547,4.69236,51.52335,51.52335,0,0,0,9.97705,2.29388,92.05239,92.05239,0,0,0,10.24219.64343c3.426.02475,6.85351-.1715,10.27026-.45709a183.7791,183.7791,0,0,0,20.37647-2.97717,202.44137,202.44137,0,0,0,20.00073-4.96237l-.60718.891c-.26685-5.37885-.61475-10.7702-.97388-16.15451-.3396-5.388-.78271-10.769-1.271-16.14664a278.8159,278.8159,0,0,0-4.82886-32.00366c-.56689-2.63443-1.19043-5.25586-1.834-7.8667-.73145-2.5863-1.33472-5.20963-2.19947-7.74225-.76074-2.54019-1.62524-5.16394-2.3374-7.79437l-.90088-3.99719c-.25879-1.34037-.44433-2.69519-.66943-4.04126a73.72306,73.72306,0,0,1-.66358-8.15845c-.05859-1.36353.04981-2.7294.0669-4.09152.06079-1.36179.20141-2.72.313-4.07648a51.42055,51.42055,0,0,1,4.126-15.71762.09655.09655,0,0,1,.17823.07388Z"/><path d="M452.22863,179.19911A151.498,151.498,0,0,1,441.691,192.57447a86.97139,86.97139,0,0,1-12.40455,11.77034,27.499,27.499,0,0,1-7.66015,4.14682,10.59576,10.59576,0,0,1-4.5437.43638,10.15611,10.15611,0,0,1-4.17725-1.89631,31.66666,31.66666,0,0,1-6.021-6.30236,79.86592,79.86592,0,0,1-4.68286-7.19873,148.74,148.74,0,0,1-7.675-15.247q-1.72887-3.89557-3.32617-7.84346l-1.5686-3.95845-.76172-1.9879c-.25952-.635-.48291-1.39653-.7605-1.91324a3.08959,3.08959,0,0,0-1.35742-1.27092c-.53686-.2569-1.31372-.37268-1.97949-.62981a29.16226,29.16226,0,0,1-3.93946-1.72323,22.39592,22.39592,0,0,1-3.66333-2.26275,17.09576,17.09576,0,0,1-2.99389-3.10232,24.28665,24.28665,0,0,1-4.22583-7.45159,10.52028,10.52028,0,0,1-.56665-4.3191,5.27064,5.27064,0,0,1,2.09619-3.91324l-.18408.32333c.00683-.74016-.03394-1.47731.02563-2.22267a12.68277,12.68277,0,0,1,.27368-2.24066,4.00763,4.00763,0,0,1,1.06275-2.18283,1.78787,1.78787,0,0,1,1.37012-.40721,2.534,2.534,0,0,1,1.23242.54562l-.76392.23175.19678-.60385a5.01007,5.01007,0,0,1,.30884-.59462,2.04783,2.04783,0,0,1,1.16528-.89842,2.33146,2.33146,0,0,1,1.43945.11008,4.13316,4.13316,0,0,1,1.14771.66976l-.7876.10448a4.22842,4.22842,0,0,1,2.79761-1.907,4.43371,4.43371,0,0,1,4.562,1.96547,3.96059,3.96059,0,0,1,.39917.7882c.12012.27906.17651.48481.2688.73042.3396.9431.70141,1.87718,1.09228,2.79542a25.20683,25.20683,0,0,0,2.80811,5.16677,3.65532,3.65532,0,0,0,1.91089,1.53467,1.03609,1.03609,0,0,0,1.35132-.7371,2.89915,2.89915,0,0,0-.05713-.46308c-.04-.21871-.09449-.45247-.15479-.68808l-.39648-1.43805c-.27881-.9704-.57129-1.95052-.82471-2.95322a24.05724,24.05724,0,0,1-.60425-3.10056,9.10228,9.10228,0,0,1-.04175-1.69155,3.48523,3.48523,0,0,1,.66822-1.90934,2.838,2.838,0,0,1,4.00683-.09179,9.63173,9.63173,0,0,1,2.09888,2.62892,34.34518,34.34518,0,0,1,2.52734,5.72024c.68409,1.94536,1.2732,3.909,1.79053,5.90013a9.57917,9.57917,0,0,0,1.08032,2.63268,9.20206,9.20206,0,0,1,.759,3.31143,18.08887,18.08887,0,0,1-.11451,3.21617c-.05883.51609-.14746,1.07433-.23144,1.54641a4.18324,4.18324,0,0,0-.021,1.21994,3.83752,3.83752,0,0,0,.36792,1.21211c.19849.43568.35279.87919.58423,1.3103l.6875,1.29488c.24024.42828.50977.84733.76294,1.27165a92.89871,92.89871,0,0,0,7.12109,9.6826c2.56568,3.10356,5.21363,6.16829,7.93189,9.13271l-1.42847.16781c4.48706-7.51544,9.073-14.9862,14.17945-22.11474a131.16662,131.16662,0,0,1,8.08154-10.37636,59.294,59.294,0,0,1,4.59936-4.71616,25.42407,25.42407,0,0,1,2.58179-2.05949,11.74837,11.74837,0,0,1,1.42749-.84531,3.55513,3.55513,0,0,1,1.6294-.44972.09494.09494,0,0,1-.002.18982l-.03369.00041a3.49678,3.49678,0,0,0-1.47241.49667,11.48044,11.48044,0,0,0-1.3523.88477,25.06282,25.06282,0,0,0-2.44628,2.1367,58.68913,58.68913,0,0,0-4.3379,4.86367c-2.72583,3.39158-5.26391,6.93576-7.67919,10.56239-4.81543,7.26422-9.30909,14.74527-13.6211,22.32861a.89366.89366,0,0,1-1.41943.178l-.00928-.01017c-2.82031-2.95768-5.542-5.97511-8.13721-9.126a94.69177,94.69177,0,0,1-7.31762-9.87268c-.26807-.4447-.54859-.8782-.80616-1.33247l-.74389-1.388c-.24927-.46141-.43872-.97642-.65918-1.463a5.72634,5.72634,0,0,1-.49927-1.68891,6.2224,6.2224,0,0,1,.02222-1.80962c.09057-.52638.15844-.97.21362-1.46117a16.09424,16.09424,0,0,0,.09277-2.85368,7.63345,7.63345,0,0,0-.55712-2.59024l-.13477-.27669-.18945-.3627q-.1875-.36939-.35059-.75992a9.64087,9.64087,0,0,1-.49878-1.59309c-.48144-1.93819-1.03857-3.8674-1.67993-5.75388a32.56131,32.56131,0,0,0-2.31836-5.417,7.97135,7.97135,0,0,0-1.63184-2.13319,1.59411,1.59411,0,0,0-.84423-.3976c-.31446-.00829-.50269.04638-.60523.1963a1.80348,1.80348,0,0,0-.28589.92847,7.40377,7.40377,0,0,0,.0232,1.34347,22.41007,22.41007,0,0,0,.53125,2.86954c.23022.96622.49609,1.93538.76025,2.918.13208.49148.26367.9877.38379,1.50074.0603.25656.11719.51767.16357.79831a3.11615,3.11615,0,0,1,.03858,1.04756,2.55437,2.55437,0,0,1-1.28174,1.73877,2.79944,2.79944,0,0,1-2.04932.2298,5.124,5.124,0,0,1-2.75927-2.15755,25.27021,25.27021,0,0,1-2.87769-5.55088c-.37671-.95813-.72046-1.92537-1.04053-2.89907a5.61839,5.61839,0,0,0-.5061-1.27589,2.90776,2.90776,0,0,0-.84839-.928,3.23717,3.23717,0,0,0-2.43872-.58292,3.11255,3.11255,0,0,0-2.1167,1.36862.53279.53279,0,0,1-.74.14137l-.0481-.03685a3.1553,3.1553,0,0,0-.82251-.5047,1.33839,1.33839,0,0,0-.81152-.102,1.05811,1.05811,0,0,0-.61426.47217,4.48673,4.48673,0,0,0-.23144.42021l-.17188.48761-.00659.019a.48109.48109,0,0,1-.61352.29372.49126.49126,0,0,1-.144-.08092,1.65393,1.65393,0,0,0-.73877-.34985.86957.86957,0,0,0-.67065.17851,3.27733,3.27733,0,0,0-.82349,1.69716,11.88847,11.88847,0,0,0-.30566,2.098c-.07544.71158-.05274,1.43855-.07739,2.15909a.39984.39984,0,0,1-.176.318l-.0083.00559a4.60422,4.60422,0,0,0-1.77344,3.3522,9.867,9.867,0,0,0,.50244,4.05,23.206,23.206,0,0,0,4.06617,7.2815,16.46718,16.46718,0,0,0,2.92675,2.96429,21.735,21.735,0,0,0,3.58374,2.152,28.46517,28.46517,0,0,0,3.86036,1.635c.33056.10671.66235.20772.99682.29392a5.42925,5.42925,0,0,1,1.07446.34535,4.00446,4.00446,0,0,1,1.73707,1.54747,6.90162,6.90162,0,0,1,.47314,1.02335l.40332.981.81836,1.95721,1.6814,3.89531q1.71386,3.88051,3.54052,7.70652,1.83143,3.8223,3.80689,7.56634c1.30762,2.4989,2.654,4.97568,4.09668,7.38965a81.0297,81.0297,0,0,0,4.64038,7.00548,30.11514,30.11514,0,0,0,5.604,6.02341,8.59862,8.59862,0,0,0,3.45825,1.6444,9.07218,9.07218,0,0,0,3.84278-.343,26.16235,26.16235,0,0,0,7.2605-3.8414,85.85739,85.85739,0,0,0,12.53588-11.25174c3.89161-4.094,7.57959-8.39577,11.09375-12.83509a.097.097,0,0,1,.13575-.01875A.09914.09914,0,0,1,452.22863,179.19911Z"/><path d="M521.98571,275.23611a307.93773,307.93773,0,0,0-1.03589,36.69c.30884,12.23774,1.13526,24.4603,2.41187,36.62986,1.293,12.166,3.04028,24.29034,5.51538,36.25375A177.285,177.285,0,0,0,533.4364,402.515a78.77193,78.77193,0,0,0,3.23486,8.4852,26.4233,26.4233,0,0,0,4.71191,7.45218l.01905.0195a.91445.91445,0,0,1-.01612,1.29309l-.0625.05563a80.00252,80.00252,0,0,1-11.55713,7.74,67.14374,67.14374,0,0,1-12.7871,5.51715,42.46459,42.46459,0,0,1-13.89087,1.99494,31.29475,31.29475,0,0,1-7.03052-1.05405c-.57593-.15069-1.14453-.33038-1.70947-.51919-.57666-.2049-1.11182-.3837-1.62525-.54923-1.03491-.37506-2.11572-.62176-3.18628-.89487a46.31069,46.31069,0,0,0-6.61352-.87063,64.10276,64.10276,0,0,0-6.72437.046,89.518,89.518,0,0,0-13.38916,1.94226,143.66526,143.66526,0,0,0-25.8042,8.39862l-.02368.01022a1.45584,1.45584,0,0,1-1.91284-.76159,1.50061,1.50061,0,0,1-.11328-.45127q-.75806-8.84422-1.34961-17.66583-.56176-8.83566-1.00049-17.67718c-.60986-11.78779-.9082-23.58963-1.14282-35.38947-.25611-11.80026-.16382-23.6076.07373-35.40671l.24414-8.84839c.06885-2.94925.26807-5.89593.39551-8.84292.24048-5.895.70263-11.78058,1.12231-17.6622a.145.145,0,0,1,.155-.13449.14763.14763,0,0,1,.13477.15127q-.50978,17.682-.41675,35.35031c-.00244,2.94486.07129,5.89048.103,8.83506.0371,2.94476.07983,5.88909.17016,8.83328l.20142,8.832.271,8.83026c.385,11.77319,1.00342,23.53665,1.62354,35.29819q.48962,8.82,1.07934,17.63339c.37159,5.87439.77149,11.75659,1.23926,17.61081l-2.04956-1.20252a138.2042,138.2042,0,0,1,13.03589-4.80413,135.12422,135.12422,0,0,1,13.418-3.51972,92.052,92.052,0,0,1,13.79809-1.84445,66.507,66.507,0,0,1,7.00708.03015,48.63837,48.63837,0,0,1,6.98365.99939c1.145.30408,2.29614.58,3.4143.99356.57422.19226,1.1233.38141,1.62378.56445.5188.17835,1.04151.349,1.57178.49237a29.05115,29.05115,0,0,0,6.51807,1.03382,40.32746,40.32746,0,0,0,13.196-1.789,65.13263,65.13263,0,0,0,12.44116-5.24381,78.2859,78.2859,0,0,0,11.31177-7.42859l-.05981,1.36795a28.04244,28.04244,0,0,1-5.01734-8.03094,80.51589,80.51589,0,0,1-3.23388-8.705A178.92721,178.92721,0,0,1,527.37,385.118a362.49515,362.49515,0,0,1-5.144-36.44864c-1.13843-12.21393-1.82447-24.46777-1.99195-36.72937a308.511,308.511,0,0,1,1.46289-36.73386.14519.14519,0,0,1,.28882.03Z"/><path d="M433.2987,300.90283a382.42416,382.42416,0,0,1,4.79956-42.19351,208.248,208.248,0,0,1,4.69556-20.75626,129.52115,129.52115,0,0,1,7.38208-20.02679l-.04859.11975c.60328-1.80985,1.281-3.54135,2.03516-5.27057a48.7507,48.7507,0,0,1,2.54761-5.06366,23.43469,23.43469,0,0,1,3.458-4.66767,9.838,9.838,0,0,1,2.498-1.85461,5.5906,5.5906,0,0,1,3.34717-.58374l-.24512-.01208,40.22168-2.82914.02857-.002a1.40518,1.40518,0,0,1,1.20752.54935,80.49831,80.49831,0,0,1,9.80884,17.75183l.959,2.336c.32446.77676.5647,1.58511.85083,2.37588.53564,1.5946,1.145,3.16452,1.57471,4.7915.45483,1.6182.96289,3.22132,1.37207,4.84992l1.114,4.91269c.3772,1.63522.57886,3.30588.876,4.95538l.41137,2.48053c.1189.82932.17359,1.66773.26319,2.50052l.48681,4.9993.18555,5.01553c.22363,3.33829-.05,6.68323-.1477,10.01343l-.04981,1.24878-.13061,1.24472-.261,2.48706-.55347,4.96118a.145.145,0,0,1-.28906-.01984l.00024-.01013.14917-4.97677.09009-2.482.04517-1.23974-.03565-1.24183-.14184-4.95907c-.0293-.8251-.0022-1.65152-.07764-2.47446l-.207-2.46814-.42285-4.92807-.71875-4.89029c-.12744-.813-.221-1.63086-.376-2.43872l-.48657-2.41931c-.34644-1.60742-.59668-3.2345-1.02075-4.82266a116.93809,116.93809,0,0,0-6.158-18.66678c-.60669-1.52228-1.314-2.99777-2.02222-4.47238-.67261-1.4931-1.48315-2.91284-2.23486-4.36325a75.75659,75.75659,0,0,0-5.145-8.21387l1.23584.54721-40.26538,2.117-.03418.0018a.939.939,0,0,1-.21118-.01392c-1.31568-.24481-2.78321.58951-3.9939,1.76971a21.44736,21.44736,0,0,0-3.19141,4.19217,46.71481,46.71481,0,0,0-2.51464,4.81552c-.75245,1.65229-1.4502,3.36249-2.04371,5.05628l-.00781.02222a.93808.93808,0,0,1-.04126.0979,127.85913,127.85913,0,0,0-7.57861,19.63681c-2.02442,6.74414-3.676,13.60931-5.05127,20.5321a381.728,381.728,0,0,0-5.64844,42.00025.14516.14516,0,0,1-.28955-.02106Z"/><path d="M512.578,314.44633c.03863-25.50076-.50326-62.39221-3.3292-107.00646-1.771-27.95894-1.3451-58.2018-3.15494-70.99577-.629-4.50979-9.32922-6.60021-9.8131-5.40981-3.98734,9.85191-5.10018,16.87794-13.6263,85.6671a96.38453,96.38453,0,0,0-.72583,13.56818q.82753,55.72916,1.67422,111.43892s14.41014-9.97772,21.03935-2.884c5.53562,5.91312,21.92,1.20008,27.23322-.52258C515.53931,342.986,512.578,314.44633,512.578,314.44633Zm-26.05246,22.99426a1.45245,1.45245,0,0,1,0-2.90332A1.45245,1.45245,0,0,1,486.52553,337.44059Zm7.20017-3.2517a1.45245,1.45245,0,0,1,0-2.90331A1.45245,1.45245,0,0,1,493.7257,334.18889Zm9.17457.46451a1.45245,1.45245,0,0,1,0-2.90331A1.45245,1.45245,0,0,1,502.90027,334.6534Zm7.084,4.18078a1.45245,1.45245,0,0,1,0-2.90331A1.45245,1.45245,0,0,1,509.98431,338.83418Zm9.17445,1.04521a1.45245,1.45245,0,0,1,0-2.90331A1.45245,1.45245,0,0,1,519.15876,339.87939Z"/><path d="M533.43339,337.76966c-.5322.21288-1.05483.38707-1.558.53226C532.65925,338.0406,533.20114,337.8471,533.43339,337.76966Z"/><path d="M459.23156,187.28434a1.45252,1.45252,0,0,0,0-2.90331,1.45252,1.45252,0,0,0,0,2.90331Z"/><path d="M466.66405,188.5618a1.45252,1.45252,0,0,0,0-2.90331,1.45252,1.45252,0,0,0,0,2.90331Z"/><path d="M474.90946,189.2586a1.45253,1.45253,0,0,0,0-2.90332,1.45253,1.45253,0,0,0,0,2.90332Z"/><path d="M483.15488,189.72313a1.45253,1.45253,0,0,0,0-2.90332,1.45253,1.45253,0,0,0,0,2.90332Z"/><path d="M468.6383,137.46346a1.45252,1.45252,0,0,0,0-2.90331,1.45252,1.45252,0,0,0,0,2.90331Z"/><path d="M474.21267,142.80556a1.45252,1.45252,0,0,0,0-2.90331,1.45252,1.45252,0,0,0,0,2.90331Z"/><path d="M480.83223,148.72832a1.45252,1.45252,0,0,0,0-2.90331,1.45252,1.45252,0,0,0,0,2.90331Z"/><path d="M487.56792,153.25749a1.45252,1.45252,0,0,0,0-2.90331,1.45252,1.45252,0,0,0,0,2.90331Z"/><path d="M441.231,433.71771a1.45253,1.45253,0,0,0,0-2.90332,1.45253,1.45253,0,0,0,0,2.90332Z"/><path d="M450.40549,430.58213a1.45253,1.45253,0,0,0,0-2.90332,1.45253,1.45253,0,0,0,0,2.90332Z"/><path d="M461.43808,428.14334a1.45252,1.45252,0,0,0,0-2.90331,1.45252,1.45252,0,0,0,0,2.90331Z"/><path d="M472.81908,426.74975a1.45252,1.45252,0,0,0,0-2.90331,1.45252,1.45252,0,0,0,0,2.90331Z"/><path d="M485.59366,426.63362a1.45252,1.45252,0,0,0,0-2.90331,1.45252,1.45252,0,0,0,0,2.90331Z"/><path d="M496.97466,429.53694a1.45253,1.45253,0,0,0,0-2.90332,1.45253,1.45253,0,0,0,0,2.90332Z"/><path d="M508.47178,430.93053a1.45253,1.45253,0,0,0,0-2.90332,1.45253,1.45253,0,0,0,0,2.90332Z"/><path d="M519.38825,427.67881a1.45252,1.45252,0,0,0,0-2.90331,1.45252,1.45252,0,0,0,0,2.90331Z"/><path d="M528.21433,423.14964a1.45252,1.45252,0,0,0,0-2.90331,1.45252,1.45252,0,0,0,0,2.90331Z"/><path d="M535.99521,417.57528a1.45253,1.45253,0,0,0,0-2.90332,1.45253,1.45253,0,0,0,0,2.90332Z"/><path d="M281.14223,338.25672a1.45253,1.45253,0,0,0,0-2.90332,1.45253,1.45253,0,0,0,0,2.90332Z"/><path d="M291.24577,342.61169a1.45253,1.45253,0,0,0,0-2.90332,1.45253,1.45253,0,0,0,0,2.90332Z"/><path d="M304.13649,344.52788a1.45253,1.45253,0,0,0,0-2.90332,1.45253,1.45253,0,0,0,0,2.90332Z"/><path d="M318.0724,343.83108a1.45252,1.45252,0,0,0,0-2.90331,1.45252,1.45252,0,0,0,0,2.90331Z"/><path d="M332.5309,341.3923a1.45253,1.45253,0,0,0,0-2.90332,1.45253,1.45253,0,0,0,0,2.90332Z"/><path d="M346.29262,338.77931a1.45252,1.45252,0,0,0,0-2.90331,1.45252,1.45252,0,0,0,0,2.90331Z"/><path d="M352.91218,325.0176a1.45252,1.45252,0,0,0,0-2.90331,1.45252,1.45252,0,0,0,0,2.90331Z"/><path d="M351.69278,311.08169a1.45253,1.45253,0,0,0,0-2.90332,1.45253,1.45253,0,0,0,0,2.90332Z"/><path d="M354.13157,335.46953a1.45252,1.45252,0,0,0,0-2.90331,1.45252,1.45252,0,0,0,0,2.90331Z"/><path d="M350.64759,299.41036a1.45252,1.45252,0,0,0,0-2.90331,1.45252,1.45252,0,0,0,0,2.90331Z"/><path d="M349.254,288.61a1.45252,1.45252,0,0,0,0-2.90331,1.45252,1.45252,0,0,0,0,2.90331Z"/><path d="M346.641,276.24191a1.45252,1.45252,0,0,0,0-2.90331,1.45252,1.45252,0,0,0,0,2.90331Z"/><path d="M342.80864,266.661a1.45252,1.45252,0,0,0,0-2.90331,1.45252,1.45252,0,0,0,0,2.90331Z"/><path d="M339.32466,255.51224a1.45252,1.45252,0,0,0,0-2.90331,1.45252,1.45252,0,0,0,0,2.90331Z"/><path d="M337.40847,243.14412a1.45252,1.45252,0,0,0,0-2.90331,1.45252,1.45252,0,0,0,0,2.90331Z"/><path d="M337.40847,229.73081a1.45253,1.45253,0,0,0,0-2.90332,1.45253,1.45253,0,0,0,0,2.90332Z"/><path d="M452.13049,138.62a3.5369,3.5369,0,0,0-1.46729.50688,11.78,11.78,0,0,0-1.345.89238,25.1399,25.1399,0,0,0-2.44067,2.13983,63.47616,63.47616,0,0,0-4.33862,4.85782c-2.72754,3.38876-5.27051,6.92579-7.69092,10.5522-1.229,1.79748-2.35645,3.66467-3.49073,5.52919l-3.44946,5.55868-3.458,5.55152-3.28808,5.64822-.0083.0143a.81852.81852,0,0,1-1.11914.29555.8402.8402,0,0,1-.19141-.15406l-4.12305-4.49464c-1.376-1.50778-2.66211-3.081-3.95727-4.65013a95.48979,95.48979,0,0,1-7.23218-9.88117,21.94382,21.94382,0,0,1-1.4646-2.74334l-.63867-1.44109a5.105,5.105,0,0,1-.47632-1.6071,5.878,5.878,0,0,1,.033-1.71329c.09717-.52342.17651-.97885.24121-1.4758a17.27856,17.27856,0,0,0,.15674-2.92059,7.91324,7.91324,0,0,0-.54053-2.7464,11.57452,11.57452,0,0,1-1.13476-2.91377c-.48511-1.95119-.9878-3.90378-1.62549-5.80977a30.81268,30.81268,0,0,0-2.322-5.52289,8.65635,8.65635,0,0,0-1.74829-2.30629,2.51875,2.51875,0,0,0-.5608-.37556l-.29492-.14129-.30591-.04786a1.219,1.219,0,0,0-1.10669.33807,3.74389,3.74389,0,0,0-.44067,2.65924,21.67787,21.67787,0,0,0,.52783,2.94382c.23511.97757.52075,1.94543.79566,2.92061l.40161,1.47369a5.48088,5.48088,0,0,1,.24194,1.61283,1.966,1.966,0,0,1-.91284,1.468,2.31617,2.31617,0,0,1-1.69678.2921,4.46346,4.46346,0,0,1-2.58032-1.8987,25.88747,25.88747,0,0,1-2.94507-5.39717c-.40137-.93889-.77051-1.88986-1.11548-2.849l-.25586-.71732a3.79981,3.79981,0,0,0-.292-.607,3.16571,3.16571,0,0,0-.89013-.98288,3.41023,3.41023,0,0,0-2.52027-.61235A3.18368,3.18368,0,0,0,378.9176,131.23l-.061.073-.02661.05066a.49972.49972,0,0,1-.69141.14638l-.04-.0289-.0459-.037a3.14765,3.14765,0,0,0-.832-.47579,1.26585,1.26585,0,0,0-.78223-.07177.99359.99359,0,0,0-.55176.46219,4.522,4.522,0,0,0-.209.40943l-.15283.47863a.614.614,0,0,1-.95166.3049l-.01514-.01161a1.51577,1.51577,0,0,0-.67774-.29207.69959.69959,0,0,0-.532.16544A3.1649,3.1649,0,0,0,372.64,134.017a11.69425,11.69425,0,0,0-.24243,2.06185c-.05591.70025-.01392,1.42288-.01978,2.13371a.74712.74712,0,0,1-.32177.609l-.04175.02844a3.55462,3.55462,0,0,0-1.0542,1.30863,5.21391,5.21391,0,0,0-.48731,1.78093,9.48747,9.48747,0,0,0,.55078,3.86064,22.93921,22.93921,0,0,0,4.06519,7.06711,15.821,15.821,0,0,0,2.82935,2.86747,21.38216,21.38216,0,0,0,3.49047,2.0959,27.59938,27.59938,0,0,0,3.77955,1.60276c.3208.10324.64062.2003.96362.28312a5.84143,5.84143,0,0,1,1.17187.38323,4.53086,4.53086,0,0,1,1.96973,1.77859,4.44951,4.44951,0,0,1,.30249.60357l.21167.50123.41187.97542.82373,1.95076,1.64721,3.90109c1.10547,2.5979,2.15943,5.21561,3.35938,7.76987,2.35571,5.12561,4.87231,10.18059,7.71289,15.02778a79.449,79.449,0,0,0,4.58813,7.0248,29.46014,29.46014,0,0,0,5.57056,6.02011,8.21241,8.21241,0,0,0,3.42285,1.667,9.32926,9.32926,0,0,0,3.8252-.33792,26.12545,26.12545,0,0,0,7.26928-3.81109,85.86225,85.86225,0,0,0,12.55225-11.23668c3.88623-4.09851,7.60571-8.37816,11.0791-12.849a.09689.09689,0,0,1,.1355-.02.09891.09891,0,0,1,.02124.13376,162.81422,162.81422,0,0,1-10.55273,13.362A86.95546,86.95546,0,0,1,429.285,204.34686a27.51227,27.51227,0,0,1-7.6521,4.17667,10.90576,10.90576,0,0,1-4.56519.46331,9.86662,9.86662,0,0,1-4.196-1.90924,31.165,31.165,0,0,1-6.0669-6.28985,79.49966,79.49966,0,0,1-4.7373-7.17871c-2.9104-4.92081-5.4707-10.01516-7.86792-15.1753-1.22729-2.56825-2.29639-5.20645-3.36792-7.8399L389.214,166.647l-.80859-1.97321-.4043-.98654-.197-.47944a2.50723,2.50723,0,0,0-.16919-.34717,2.61061,2.61061,0,0,0-1.127-1.03911c-.37744-.19812-1.23682-.34508-1.91528-.60187a29.4119,29.4119,0,0,1-4.02149-1.7527c-.64575-.33519-1.2727-.67972-1.905-1.05125a16.764,16.764,0,0,1-1.85205-1.26749,17.65963,17.65963,0,0,1-3.096-3.19459,24.3921,24.3921,0,0,1-4.21752-7.67063,10.99786,10.99786,0,0,1-.53833-4.50641,5.65705,5.65705,0,0,1,2.34057-4.17683l-.36328.63713c.02588-.74985.00415-1.49136.0835-2.24805a13.00468,13.00468,0,0,1,.33667-2.27676,4.22811,4.22811,0,0,1,1.17822-2.2665,1.958,1.958,0,0,1,1.50879-.4203,2.66536,2.66536,0,0,1,1.29346.60341l-.96656.29321.21558-.61282a5.11718,5.11718,0,0,1,.33154-.60541,2.1365,2.1365,0,0,1,1.22778-.90839,2.36815,2.36815,0,0,1,1.46851.14032,4.15806,4.15806,0,0,1,1.13843.69867l-.7771.08045.12793-.16193-.06079.0727a4.21613,4.21613,0,0,1,2.87549-1.73745,4.35894,4.35894,0,0,1,3.20776.85926,4.06663,4.06663,0,0,1,1.10156,1.2761,4.68214,4.68214,0,0,1,.34448.76792l.23682.71866c.31714.9539.6582,1.89959,1.03,2.83168a23.34776,23.34776,0,0,0,2.78369,5.276,3.83079,3.83079,0,0,0,2.16016,1.66618,1.47163,1.47163,0,0,0,1.85815-1.202,5.44006,5.44006,0,0,0-.21655-1.377l-.38379-1.45939c-.26953-.97451-.53638-1.95466-.78271-2.94361a22.28548,22.28548,0,0,1-.57789-3.02254,7.772,7.772,0,0,1-.02856-1.57955,2.73814,2.73814,0,0,1,.60229-1.58441,2.33091,2.33091,0,0,1,3.197.13584,9.28907,9.28907,0,0,1,1.939,2.47714,36.66722,36.66722,0,0,1,2.49194,5.60942c.70533,1.91551,1.27247,3.87083,1.82325,5.83315a10.56031,10.56031,0,0,0,1.1521,2.691,8.96667,8.96667,0,0,1,.73559,3.15506,18.52007,18.52007,0,0,1-.07544,3.14065c-.05029.50879-.1289,1.05356-.20361,1.52759a4.49976,4.49976,0,0,0,.01294,1.31227,3.88678,3.88678,0,0,0,.43286,1.2743l.63184,1.31695a20.61963,20.61963,0,0,0,1.46826,2.56789,98.85232,98.85232,0,0,0,7.21069,9.63118c2.5686,3.10708,5.27881,6.07748,7.97241,9.084l-1.3186.15576,3.37158-5.64184,3.53613-5.53475,3.54444-5.52755c1.189-1.83609,2.373-3.67763,3.66162-5.45327a129.39713,129.39713,0,0,1,8.06982-10.3845,64.14666,64.14666,0,0,1,4.60254-4.71846,23.44172,23.44172,0,0,1,2.5835-2.06012,12.10129,12.10129,0,0,1,1.4353-.83667,3.59844,3.59844,0,0,1,1.63452-.44071.09482.09482,0,0,1-.00146.18952Z"/><path d="M340.71825,218.05948a1.45252,1.45252,0,0,0,0-2.90331,1.45252,1.45252,0,0,0,0,2.90331Z"/><path d="M378.40295,131.03337c.40088,1.13577.72778,2.25972,1.13818,3.3537.40723,1.09306.84009,2.1697,1.34058,3.21563.48462,1.05321,1.03271,2.07651,1.6167,3.08591.58594,1.01032,1.22876,1.98813,1.8623,3.0099a16.08507,16.08507,0,0,1-4.35449-5.685A16.50275,16.50275,0,0,1,378.40295,131.03337Z"/><path d="M374.95568,132.08255c.19556,1.42421.26148,2.84233.53882,4.19485a18.73688,18.73688,0,0,0,1.24854,3.9355,18.93741,18.93741,0,0,0,2.08154,3.5658c.85864,1.08937,1.75366,2.22815,2.55713,3.4046a40.04187,40.04187,0,0,1-3.13941-2.92368,13.65716,13.65716,0,0,1-3.49218-7.87323A18.22118,18.22118,0,0,1,374.95568,132.08255Z"/><path d="M371.65808,138.22776a27.13944,27.13944,0,0,1,.99365,2.9415,19.43687,19.43687,0,0,0,1.10132,2.78118,26.56,26.56,0,0,0,1.50024,2.61952,24.975,24.975,0,0,1,1.46338,2.74917,25.01239,25.01239,0,0,1-2.08228-2.3161,12.90942,12.90942,0,0,1-1.751-2.62951,11.2009,11.2009,0,0,1-.96411-3.033A23.55054,23.55054,0,0,1,371.65808,138.22776Z"/></svg>