<svg id="Layer_1" data-name="Layer 1" xmlns="http://www.w3.org/2000/svg" viewBox="0 0 700 550"><title>superman-boss-leader</title><path d="M270.23159,408.51086,267.388,353.81c-.88353-4.84064-1.67484-9.68127-2.51243-14.5219l-2.365-14.54033c-1.57362-9.69969-3.02761-19.40836-4.49092-29.12648-1.42647-9.71811-2.84361-19.43622-4.15964-29.16332l-1.96928-14.60481c-.57068-4.64718-1.18719-9.28539-1.721-13.9328-.46934-.13817-.92948-.27612-1.38962-.4325l-.01842.14716-.11953,1.362c-.0829.90184-.11054,1.8129-.14727,2.724-.10122,1.81291-.12885,3.635-.18412,5.45715-.06437,3.63524-.0919,7.27948-.10111,10.92372q-.06909,10.91922.02753,21.85643c.08279,14.568.15648,29.13591.32207,43.70365l.30376,43.72207.11043,21.85643v21.85643C266.34807,409.54168,270.23159,408.51086,270.23159,408.51086ZM300.37046,255.2031a20.98994,20.98994,0,0,1-2.77-5.23628c-.71784-1.84054-1.33434-3.71793-1.89581-5.61374-1.1227-3.78242-2.01534-7.61987-2.82518-11.46654-.79142-3.86532-1.5-7.73041-2.07061-11.62314q-.8973-5.83909-1.38962-11.72424s-6.82845-4.02146-8.72415-5.91728c-1.33446-1.33434-3.77308-1.48173-5.10743-1.44488a2.76421,2.76421,0,0,1-2.1443-.84658,1.26926,1.26926,0,0,1,.26691-2.11667,2.70668,2.70668,0,0,1,1.75764-.48777c1.62889.09212,5.2364.40487,6.93887,1.51836a15.36521,15.36521,0,0,0-1.83133-1.26987c-19.60181-4.84984-51.8205-1.233-51.8205-1.233s-.57966,4.24232-1.4541,12.00014a46.62706,46.62706,0,0,1,2.93584-4.72088c.52462-.74547,1.049-1.49094,1.59205-2.22721a27.24933,27.24933,0,0,1,1.76685-2.19934,9.71706,9.71706,0,0,1-.79131,2.76081,14.26212,14.26212,0,0,1-1.38041,2.48468,14.76272,14.76272,0,0,1-1.83133,2.17194,9.87461,9.87461,0,0,1-2.29169,1.73c-3.30362,29.0438-10.90507,107.35893-8.65045,196.17427a59.98316,59.98316,0,0,0,30.323,5.181c-.28523-7.27926-.46935-14.568-.69942-21.84722l-.50608-21.85643c-.313-14.56773-.46935-29.1449-.64426-43.71286-.06437-14.57717-.13806-29.15411,0-43.73128.0828-7.28848.19323-14.56774.38656-21.85643q.16547-5.46636.42329-10.93271c.11043-1.81291.184-3.635.34049-5.45715.07358-.91128.13807-1.81313.2668-2.72419l.1657-1.35277.02764-.15637c-.41419-.13795-.82827-.27613-1.24234-.42329-1.23325-.46935-2.45717-.95712-3.65345-1.52779a27.65448,27.65448,0,0,1-3.50629-1.91424,30.052,30.052,0,0,1,3.90194.86523c1.27.3588,2.51232.79153,3.75478,1.2238,1.22392.46958,2.44784.94813,3.65345,1.49095,1.20549.53383,2.38346,1.1227,3.56133,1.77606a19.40917,19.40917,0,0,1-3.93868-.71784c-.35892-.09189-.70862-.20243-1.05833-.30353.82827,4.59214,1.58284,9.2027,2.38358,13.80406l2.365,14.54032c1.57362,9.69969,3.02761,19.40837,4.49092,29.12648,1.41726,9.71811,2.84361,19.43623,4.15964,29.17254l1.96007,14.6048c.60753,4.868,1.26088,9.73631,1.82223,14.623l9.07386,54.17644s29.29218,6.48773,48.7375.25748C325.19934,408.244,308.50573,315.51769,300.37046,255.2031Zm-52.49228-40.74961c-.11032,2.10745-.23928,4.2057-.46014,6.30372-.20243,2.09824-.46013,4.19649-.85579,6.27631-.20243-2.11667-.2577-4.22413-.26691-6.33136-.00921-2.10745.06448-4.21491.14727-6.31315.11964-2.10746.24838-4.20548.46014-6.304.21164-2.098.46935-4.187.86511-6.27608.19322,2.11644.24838,4.2239.25759,6.33135S247.97029,212.35524,247.87818,214.45349Zm-.11032-13.81327a1.0821,1.0821,0,0,1,0-2.16273A1.0821,1.0821,0,0,1,247.76786,200.64022Zm38.08991,17.16295a26.21617,26.21617,0,0,1-2.98167-.75446,17.92511,17.92511,0,0,1-5.46635-2.954,14.931,14.931,0,0,1-3.83757-4.92354,11.9423,11.9423,0,0,1-1.26077-5.98176,18.07267,18.07267,0,0,0,2.24541,5.45715,18.3249,18.3249,0,0,0,3.7732,4.34365,19.44734,19.44734,0,0,0,2.37426,1.64732,21.45582,21.45582,0,0,0,2.57669,1.362,12.52585,12.52585,0,0,0,1.36209.57068l1.38951.54281c.9479.30376,1.905.57989,2.87135.9387C287.89153,218.00583,286.87937,217.92293,285.85777,217.80317Zm10.169-6.09207c-.01843-1.408.00921-2.62286.092-3.635l-1.43556.92926a8.15119,8.15119,0,0,1-5.264.53383q1.31149,5.75619,2.4848,11.52181l2.38347,11.531q1.17331,5.75619,2.50311,11.47575c.46014,1.89581.92948,3.80061,1.47241,5.678a24.89748,24.89748,0,0,0,2.10746,5.45736C297.80287,236.16276,296.09118,220.35234,296.02681,211.7111Z"/><path d="M293.36721,196.131a11.34986,11.34986,0,0,0-3.43259-7.7212c-3.44192-1.93266-1.086,3.57054-.95712,3.88352-.046-.04606-.23928-.24849-.56135-.53361-.20243-1.00317-.38644-2.06162-.56135-3.14748l-.02764-.16558c-.49687-3.12883-.92027-6.55244-1.26076-10.13219a.37754.37754,0,0,0-.00922-.10133,63.1128,63.1128,0,0,1,2.34674-20.13542c1.362-5.26392,4.40813-5.43894,4.40813-5.43894l18.40542,20.476-17.63253,20.74294A3.98641,3.98641,0,0,0,293.36721,196.131Z"/><path d="M508.73809,304.53869s-14.51258,38.11755-41.47655,32.93653a33.97616,33.97616,0,0,0-8.31918-.52439c-5.47567-3.03717-10.88687-6.15679-16.30717-9.258-5.41131-3.12906-10.77644-6.304-16.05879-9.626-5.31-3.27621-10.50953-6.718-15.53417-10.3809-1.26077-.92027-2.54-1.81268-3.73636-2.80665-1.20549-.97554-2.46626-1.89581-3.635-2.91719l-3.5155-3.0922q-1.60114-1.68406-3.2761-3.34969c3.64434,5.135,8.40207,9.3775,13.28876,13.30708,1.22392.98453,2.44784,1.97849,3.73624,2.88034l3.81915,2.76081c2.60433,1.75786,5.20865,3.50629,7.87757,5.16282,5.33751,3.30363,10.77634,6.43268,16.344,9.313,5.55836,2.9082,11.20884,5.60453,16.99737,8.00654-24.86573,1.38939-51.10266,27.0835-53.90032,32.66961-3.11052,6.22081-64.8146-60.13978-78.95006-101.97526-4.18717-12.38681-15.14762-33.9397-29.88117-55.62111a2.16919,2.16919,0,0,1-.184-.313c-.313-.55225-.80064-1.55543-1.34356-2.70577l1.43556-.92926a7.75412,7.75412,0,0,0,2.089-2.64128c.47845.543.80063.865.80063.865s25.40867-18.66289,31.11441-25.40855c5.70564-6.73644,0-13.4821,0-13.4821s-16.85021-26.18166-25.40877-34.731a21.25693,21.25693,0,0,0-9.81922-5.22707c19.58339,3.80982,65.67051,19.795,114.29758,86.97479C473.48257,303.25962,508.73809,304.53869,508.73809,304.53869Z"/><path d="M211.89573,463.51547c.66256-.02741,1.32513-.04584,1.97849-.10111-8.48487.865-18.86555-.28534-21.976-10.01244a11.35577,11.35577,0,0,1,2.80665-3.2488,2.14226,2.14226,0,0,1,3.17511.28533,15.81642,15.81642,0,0,1,2.13487,3.58c.65335,1.30672,1.31615,2.64084,2.07982,3.96642a12.69192,12.69192,0,0,0,3.083,3.598,9.47082,9.47082,0,0,0,4.42634,1.73943A17.65238,17.65238,0,0,0,211.89573,463.51547Z"/><path d="M259.41841,437.49041c-.82827-1.08608-1.57363-3.03717-1.74854-6.55244-.44171-8.77021-6.82845-3.85588-6.82845-3.85588-10.86834,5.75169-13.85-3.15669-14.65985-4.56451-.80995-1.39883-7.59223-2.19036-10.28856,2.00613a13.95356,13.95356,0,0,1-3.58,3.42338,12.4819,12.4819,0,0,1,3.54313.97554,16.39124,16.39124,0,0,1,3.21174,1.78527,11.44646,11.44646,0,0,1,2.68712,2.60444,5.079,5.079,0,0,1,1.19639,3.56111,9.41368,9.41368,0,0,0-2.25462-2.604c-.85579-.727-1.76707-1.40827-2.70576-2.07061l-2.83428-2.02478c-.95712-.6902-1.905-1.39883-2.84372-2.21777a51.42064,51.42064,0,0,1-6.56142,3.88352,8.81251,8.81251,0,0,1,3.50628.70862,11.61239,11.61239,0,0,1,3.08277,1.859,9.81924,9.81924,0,0,1,2.32832,2.77924,7.7531,7.7531,0,0,1,1.05822,3.43259c-.80973-.91129-1.43545-1.8037-2.227-2.586a25.40182,25.40182,0,0,0-2.34673-2.218c-1.6471-1.40782-3.451-2.604-5.40187-3.97541-1.73023.87444-2.97246,1.41725-2.97246,1.41725-1.408.44171-2.724.90185-3.948,1.362a11.84406,11.84406,0,0,1,3.43259,1.40782,14.7298,14.7298,0,0,1,2.96325,2.26383,11.071,11.071,0,0,1,2.24541,3.06457,6.2045,6.2045,0,0,1,.65358,3.72737,15.52508,15.52508,0,0,0-1.87739-2.96347,27.14541,27.14541,0,0,0-2.3191-2.52131c-1.61048-1.64732-3.39575-3.1477-5.10755-4.97881-19.70292,7.408-17.48514,16.5833-17.48514,16.5833a18.30591,18.30591,0,0,0,.552,2.19957,9.46494,9.46494,0,0,1,2.23642-3.939,3.505,3.505,0,0,1,2.30989-1.07664,3.63379,3.63379,0,0,1,2.42942,1.01239,8.10075,8.10075,0,0,1,1.53678,1.859c.42351.66234.77311,1.29728,1.15034,1.95063.71806,1.30717,1.3804,2.61388,2.12588,3.82847a11.178,11.178,0,0,0,2.56759,3.16568c.26691.18424.5154.40487.80074.58011l.88342.47811a13.58867,13.58867,0,0,0,1.96007.65381,38.701,38.701,0,0,0,8.65989.6902,36.44892,36.44892,0,0,0,11.95431-5.63216c9.35908-6.56143,19.81335-6.21183,26.82581-9.95717.14727-.08313.29455-.16581.44171-.23951A6.20149,6.20149,0,0,0,259.41841,437.49041Zm-13.1415,1.15034c-1.13191.865-2.30067,1.68371-3.50617,2.43862-1.20561.75446-2.44795,1.4541-3.71793,2.089a25.49419,25.49419,0,0,1-3.99394,1.6563,26.29417,26.29417,0,0,1,3.23016-2.8709c1.13191-.86545,2.30067-1.68417,3.50617-2.43908,1.1964-.75446,2.43874-1.44466,3.71793-2.089a25.17578,25.17578,0,0,1,3.99394-1.65631A25.58337,25.58337,0,0,1,246.27691,438.64075Z"/><path d="M213.87422,463.41436c.22085-.01842.44171-.04628.66257-.06426-.12874.009-.2485.02742-.37723.04584C214.06744,463.40493,213.96633,463.41436,213.87422,463.41436Z" fill="#fff"/><path d="M216.73613,463.0095c-.11031.02741-.23006.04583-.34959.07369q-.35892.06875-.71784.11009C216.02751,463.138,216.38654,463.08319,216.73613,463.0095Z" fill="#fff"/><path d="M236.18338,422.52191c.078-1.89823.22007-3.75421.26647-5.61394a31.28839,31.28839,0,0,0-.26647-5.57487,12.263,12.263,0,0,1,.98588,5.59419A18.81782,18.81782,0,0,1,236.18338,422.52191Z"/><path d="M255.60916,425.99348c-.33712-1.30432-.57786-2.62477-.79715-3.94825-.22568-1.32291-.38644-2.65462-.527-3.98886-.122-1.336-.23378-2.674-.25748-4.01823a32.33978,32.33978,0,0,1,.11054-4.03043l.44216,3.99313.42093,3.98431c.122,1.33011.26366,2.65864.35824,3.99366C255.46391,423.31285,255.56614,424.64773,255.60916,425.99348Z"/><path d="M246.02877,93.63005a33.78754,33.78754,0,0,1-.76176,6.34057,16.92518,16.92518,0,0,0-.49552,3.07334,23.68828,23.68828,0,0,0,.01719,3.15691,10.52468,10.52468,0,0,1-.5791-3.16523,11.68925,11.68925,0,0,1,.3542-3.218C245.0165,97.75869,245.43361,95.68449,246.02877,93.63005Z"/><path d="M244.1,100.332s5.31973-1.57208,7.409,1.7597c0,0,2.34122-.46731,3.43943.66216a6.60876,6.60876,0,0,1,7.82532.1441s.33522,5.57864-4.08226,5.77486c0,0-4.5-.89225-3.83145-5.03381,0,0-.80151-1.54765-3.43927-.6638,0,0-1.90517,5.03621-5.11755,3.37692S244.1,100.332,244.1,100.332Z"/><path d="M251.04409,130.00987a44.4851,44.4851,0,0,1,5.06194.79523,39.57262,39.57262,0,0,1,5.10643,1.33966l.91353.32638-.65875.58409c-1.14618,1.01628-2.35,1.97642-3.42731,3.05962a45.3234,45.3234,0,0,0-3.06447,3.413l-.18266.21929-.3169-.14993c-.88938-.42083-1.78179-.83642-2.65207-1.29033l-2.59849-1.38361c-.86691-.45977-1.72966-.92691-2.57624-1.42192-.84949-.49013-1.683-1.0079-2.51558-1.52742l-1.13742-.70985,1.174-.52718A71.84794,71.84794,0,0,1,251.04409,130.00987Zm.01517.14323c-2.14026,1.45367-4.18953,2.68716-6.26081,3.84038l.03662-1.23686c.86691.45982,1.73281.92139,2.58287,1.4106.85276.48435,1.68945.99655,2.522,1.51613l2.5,1.55442c.829.52543,1.63609,1.08918,2.44615,1.6477l-.49911.06932a45.3716,45.3716,0,0,0,3.33-3.15436c1.05407-1.10591,1.98175-2.33489,2.96718-3.50772l.25467.9103a36.55545,36.55545,0,0,1-4.91747-1.25274C254.38985,131.43724,252.75511,130.87548,251.05926,130.1531Z"/><polygon points="261.076 132.674 254.681 139.241 259.473 144.599 269.86 136.756 261.076 132.674"/><path d="M248.18038,114.66844a20.89156,20.89156,0,0,1,1.69046,3.66625,26.42344,26.42344,0,0,1,1.08394,3.89992,23.6946,23.6946,0,0,1,.47092,4.02349,19.61174,19.61174,0,0,1-.2495,4.03158c-.06617-.67425-.03673-1.33974-.12189-2.005-.03673-.66481-.091-1.32671-.181-1.98523-.16143-1.3166-.35083-2.62758-.62437-3.92418-.25007-1.30087-.56428-2.58939-.904-3.87475C248.9991,117.21626,248.60524,115.94415,248.18038,114.66844Z"/><path d="M265.90018,114.92045c.07235,1.11282.20266,2.20812.35151,3.29172a21.113,21.113,0,0,0,.67953,3.18478,11.0903,11.0903,0,0,0,1.27908,2.93628,7.51978,7.51978,0,0,0,2.28933,2.26788,5.72688,5.72688,0,0,1-2.74677-1.94142,9.00325,9.00325,0,0,1-1.51173-3.05829,13.84279,13.84279,0,0,1-.54664-3.3353A14.233,14.233,0,0,1,265.90018,114.92045Z"/><path d="M244.505,133.43416c-1.69461.64415-3.37687,1.30087-5.00487,2.0769a52.46818,52.46818,0,0,0-4.799,2.4584,47.43374,47.43374,0,0,0-8.69786,6.24014,85.348,85.348,0,0,0-14.14017,16.2874,44.89187,44.89187,0,0,0-2.68622,4.68471,7.66286,7.66286,0,0,0-.4671,1.20987,9.78011,9.78011,0,0,0-.226,1.293,9.58046,9.58046,0,0,0,.07123,2.60332,9.94351,9.94351,0,0,0,.29544,1.26335c.06314.21119.13054.40261.20423.59921l.28557.61763,1.109,2.48289c.74683,1.65226,1.44354,3.3234,2.16565,4.98487,2.90034,6.64029,5.496,13.3956,7.891,20.24394l-.28039-.18783a14.88532,14.88532,0,0,1,2.05353.29747l1.98928.41947,1.98164.41947a14.87458,14.87458,0,0,0,1.9886.30488v.144a15.02779,15.02779,0,0,1-2.03511-.17457l-2.0077-.311-1.99984-.31117a14.59007,14.59007,0,0,0-1.9704-.18176l-.19075.00045-.08987-.18851c-3.12142-6.55378-6.04242-13.20013-8.65854-19.96174-.657-1.68933-1.33952-3.36856-1.97176-5.06688l-.95981-2.54265-.23142-.63875c-.07189-.23232-.14109-.47295-.19412-.69964a10.69906,10.69906,0,0,1-.16333-4.21334,10.39438,10.39438,0,0,1,.31207-1.3685,8.12131,8.12131,0,0,1,.5736-1.29638c.86657-1.619,1.825-3.15961,2.83136-4.67392,2.01871-3.01942,4.09538-5.99861,6.312-8.88817a59.88382,59.88382,0,0,1,7.34419-8.11213,41.04193,41.04193,0,0,1,4.33534-3.40518,45.61774,45.61774,0,0,1,4.749-2.76059,53.29336,53.29336,0,0,1,5.014-2.20541,47.12266,47.12266,0,0,1,5.22595-1.58127Z"/><path d="M238.67863,141.76185c-.66549,4.70247-1.45657,9.37793-2.28956,14.04467-.84837,4.6638-1.70967,9.32363-2.77878,13.94461-1.03,4.62809-2.07511,9.257-2.78665,13.94361-.38982,2.337-.71481,4.68515-.993,7.03576-.13828,1.17488-.26478,2.35144-.36487,3.52489a25.74964,25.74964,0,0,0-.13548,3.43362l-.589-.52111c4.33354-.1993,8.66563-.30136,13.00006-.4062,4.334-.11165,8.67023-.13225,13.007-.08533q6.5052.07071,13.01028.40117c2.16733.13294,4.33422.28585,6.49784.50548,1.08148.115,2.16116.25579,3.23656.43688a9.637,9.637,0,0,1,3.15231.91372l-.08021.11963a5.12083,5.12083,0,0,0-1.52622-.41682q-.79467-.1257-1.60092-.19317c-1.07271-.09886-2.15217-.14311-3.23072-.18882-2.15722-.09495-4.31973-.12376-6.48211-.13258-4.32411-.05509-8.65181-.00242-12.97917.02849l-25.9735.16917-.57606.00374-.013-.525a20.77292,20.77292,0,0,1,.3169-3.6551c.17266-1.18136.37925-2.3521.58124-3.52311l1.27-7.00582c.8841-4.66027,1.55521-9.35723,2.27608-14.04806.68548-4.69727,1.62676-9.34669,2.6096-13.98642,1.001-4.63622,2.06837-9.259,3.30026-13.84679Z"/><path d="M224.92241,233.5682a10.233,10.233,0,0,1-2.79856-3.30228,20.55612,20.55612,0,0,1-.95352-1.9677l-.4143-1.01464-.33185-1.03912a34.49618,34.49618,0,0,1-1.42938-8.56081c-.06112-1.44287-.03078-2.88439-.00854-4.323.12919-1.43253.16851-2.87113.37768-4.29153.20715-1.41927.40509-2.83855.69357-4.24008.32421-1.3968.64257-2.79091,1.04227-4.16525.004,1.43927-.07347,2.85877-.14514,4.27535L220.796,209.179l-.0674,4.2194c.03145,1.40063.0146,2.8044.10357,4.19761l.11346,2.09061c.038.69717.15795,1.382.21345,2.07667.04808.6974.15884,1.38153.27477,2.06612.10425.688.21479,1.37344.37319,2.04769A18.97051,18.97051,0,0,0,224.92241,233.5682Z"/><path d="M225.5342,224.49446a3.53352,3.53352,0,0,1-2.37617-1.00183,4.48681,4.48681,0,0,1-1.20718-2.15441,14.66945,14.66945,0,0,1-.142-4.66471l.57022-9.1589-.0811,9.17283a14.77012,14.77012,0,0,0,.33589,4.44947,3.72678,3.72678,0,0,0,1.07664,1.75494,2.70906,2.70906,0,0,0,1.77651.68346Z"/><path d="M278.54166,466.83752a15.96539,15.96539,0,0,1-2.30068.04628,9.45823,9.45823,0,0,1-4.58293-1.2793,12.62142,12.62142,0,0,1-3.42338-3.26678c-.902-1.24246-1.69338-2.50334-2.48479-3.73636a15.45689,15.45689,0,0,0-2.4848-3.34991,2.4081,2.4081,0,0,0-1.55521-.6902,2.4656,2.4656,0,0,0-1.62889.72705,11.647,11.647,0,0,0-2.46627,3.52471c4.086,9.32223,14.45742,9.44176,22.78592,7.74861C279.79322,466.66272,279.16738,466.74585,278.54166,466.83752Zm44.63313-30.70011c-.92948-1.00295-1.86817-2.87135-2.402-6.34057-1.33435-8.67809-7.18726-3.15646-7.18726-3.15646-10.22419,6.82834-14.0985-1.73023-15.0464-3.04615-.9387-1.31615-7.77625-1.408-10.031,3.03671a14.10486,14.10486,0,0,1-3.20252,3.764,12.405,12.405,0,0,1,3.6075.61673,16.8138,16.8138,0,0,1,3.37732,1.44467,11.65855,11.65855,0,0,1,2.94482,2.3191,5.14678,5.14678,0,0,1,1.55532,3.4236,9.62563,9.62563,0,0,0-2.51232-2.35594c-.92948-.63494-1.8957-1.224-2.89888-1.78528l-3.02772-1.73045c-1.02138-.58865-2.03377-1.19617-3.05525-1.92322a52.00664,52.00664,0,0,1-6.11983,4.52766,8.86271,8.86271,0,0,1,3.54314.35005,11.75615,11.75615,0,0,1,3.25768,1.54576,10.1226,10.1226,0,0,1,2.60432,2.52176,7.75687,7.75687,0,0,1,1.38962,3.31262c-.89263-.82816-1.61047-1.65631-2.47547-2.34651a25.18818,25.18818,0,0,0-2.55838-1.96951c-1.78527-1.233-3.6903-2.24541-5.77012-3.40473-1.63811,1.04878-2.816,1.71158-2.816,1.71158-1.35288.5891-2.62275,1.16876-3.80072,1.75786a11.92861,11.92861,0,0,1,3.57065,1.04878,14.88639,14.88639,0,0,1,3.17489,1.95108,10.81869,10.81869,0,0,1,2.54,2.82507,6.16023,6.16023,0,0,1,1.0307,3.63525,15.40487,15.40487,0,0,0-2.17183-2.76081,27.38692,27.38692,0,0,0-2.55826-2.26383c-1.77618-1.47252-3.69951-2.78822-5.58611-4.43554-18.84713,9.35908-15.70908,18.26746-15.70908,18.26746a16.60283,16.60283,0,0,0,.7731,2.13487,9.51419,9.51419,0,0,1,1.82212-4.15066,3.49465,3.49465,0,0,1,2.181-1.30671,3.69094,3.69094,0,0,1,2.53074.7639,8.30845,8.30845,0,0,1,1.71169,1.69315c.48777.61651.89264,1.21505,1.33435,1.82212.8559,1.224,1.64732,2.46649,2.51232,3.5984a11.14394,11.14394,0,0,0,2.87135,2.88978c.28523.15637.56136.34959.85579.497l.92949.38644a15.68174,15.68174,0,0,0,2.01534.4507,39.04052,39.04052,0,0,0,8.70583-.20221,36.53335,36.53335,0,0,0,11.30084-6.80991c8.65068-7.47271,19.08652-8.19077,25.67569-12.62631.14716-.09212.28523-.19322.41408-.28534A6.184,6.184,0,0,0,323.17479,436.13741Zm-12.95748,2.47548q-1.5597,1.46331-3.23937,2.77923c-1.12271.87444-2.28226,1.68417-3.48775,2.45705a25.91492,25.91492,0,0,1-3.80072,2.05219,26.76014,26.76014,0,0,1,2.91718-3.1841q1.56-1.46331,3.23937-2.77924,1.68406-1.311,3.48786-2.457a24.80222,24.80222,0,0,1,3.80994-2.06117A26.18632,26.18632,0,0,1,310.21731,438.61289Z"/><path d="M281.20114,466.39581c-.13795.02786-.28522.0647-.42328.10155-.10122.01842-.19322.03685-.29444.04583C280.7227,466.49736,280.962,466.45108,281.20114,466.39581Z" fill="#fff"/><path d="M279.17659,434.9318l-.00921.00944a.00909.00909,0,0,0-.00921-.00944Z" fill="#fff"/><path d="M285.30563,430.39493l-.00921.00921a.009.009,0,0,0-.00921-.00921Z" fill="#fff"/><path d="M296.7869,425.99348l.43351-3.74559c.13469-1.24515.28028-2.48514.38329-3.72686.12537-1.24055.17862-2.48222.20131-3.722a12.895,12.895,0,0,0-.39621-3.699,8.85245,8.85245,0,0,1,.9497,3.67688,21.98647,21.98647,0,0,1-.03786,3.80692,32.92661,32.92661,0,0,1-.55573,3.75121A28.486,28.486,0,0,1,296.7869,425.99348Z"/><path d="M318.22127,427.94417c-.437-1.43054-.78546-2.88-1.11641-4.33309-.33858-1.45174-.6146-2.9157-.87837-4.38215-.247-1.4693-.48552-2.94078-.64639-4.42448a43.02394,43.02394,0,0,1-.32567-4.46593c.31039,1.46249.59146,2.92148.87309,4.38162.289,1.45851.54563,2.92216.808,4.38527.24523,1.46609.5026,2.93039.71132,4.40426C317.86426,424.98205,318.07557,426.45592,318.22127,427.94417Z"/><path d="M244.04235,93.88873s1.843,1.9687,3.38211-3.23155c0,0,.899-2.30038,3.67594-.42962,0,0,1.98173,1.21771,2.9407-.72612a2.42,2.42,0,0,1,3.54662-.092s.63747.63729,2.10777-.04446,3.865-2.32286,4.85911-1.10818-.38154,1.90589.78613,3.29724,2.54336,1.01885,2.16177,2.606.85545,2.60306.66949,4.14606-.759,10.47275-1.98952,11.30593a19.43447,19.43447,0,0,0-3.29371,3.6228c-.51108.65007-4.12707,1.11755-5.14327-.19495a8.24812,8.24812,0,0,0-2.66025-2.08218s-2.07013-1.609-3.6035-.61482c0,0-3.143-1.71609-5.08.76744,0,0-1.4988.00966-1.663-1.21775a23.60853,23.60853,0,0,1,.05-3.69178s-.76364-.33121-.78825,4.3829,2.40607,12.60535,2.84472,12.99971,4.15282,2.773,11.91784.32972,8.98554-7.0061,9.35771-8.17995a55.91558,55.91558,0,0,0,.72476-7.25743c.02513-.88981-.26571-4.99806,2.32138-7.28919,0,0,1.69736-1.67888,2.562-.76394,0,0,1.81087-3.26585,1.3-9.09785a3.98113,3.98113,0,0,0-1.58007-2.83719c-.0818-.06122-.16443-.12227-.247-.18232a3.71158,3.71158,0,0,1-1.42853-2.36263,2.39207,2.39207,0,0,0-2.70395-2.04718c-3.44565.03833-5.567-1.05761-6.6236-.68921s-5.77735-2.14264-10.043,1.00067a20.79776,20.79776,0,0,1-6.47432,3.56011C245.12072,88.19631,241.29676,90.74635,244.04235,93.88873Z"/><path d="M273.7289,100.42267a2.15594,2.15594,0,0,1,.87893,1.37434,2.98606,2.98606,0,0,1-.22917,1.68484,28.76258,28.76258,0,0,0-.97554,3.005,8.4319,8.4319,0,0,1-1.59328,2.881,2.99374,2.99374,0,0,1-1.43826.90679,2.19356,2.19356,0,0,1-1.60913-.2777,2.24137,2.24137,0,0,0,1.50117-.05842,2.901,2.901,0,0,0,1.11731-.93352,10.43326,10.43326,0,0,0,1.34244-2.75475c.18547-.49429.30982-.97622.48282-1.51072a9.1587,9.1587,0,0,1,.66695-1.49813A2.417,2.417,0,0,0,273.7289,100.42267Z"/><path d="M248.63766,102.91638a.79325.79325,0,0,0,0-1.58555.79325.79325,0,0,0,0,1.58555Z"/><path d="M258.451,104.21508a.79325.79325,0,0,0,0-1.58555.79325.79325,0,0,0,0,1.58555Z"/><path d="M245.25218,98.235a7.55192,7.55192,0,0,1,3.45461-.03392,7.16917,7.16917,0,0,1,1.655.58483,4.26169,4.26169,0,0,1,1.36783,1.09709,16.83667,16.83667,0,0,0-3.17568-.97869C247.477,98.66683,246.38657,98.497,245.25218,98.235Z"/><path d="M255.20059,100.22945a9.49121,9.49121,0,0,1,3.80375-.45789,7.06252,7.06252,0,0,1,3.643,1.20156,30.692,30.692,0,0,0-3.69725-.48395C257.71752,100.39279,256.48349,100.35392,255.20059,100.22945Z"/><path d="M250.03507,107.27707a3.56653,3.56653,0,0,0,.59517.6529,4.2535,4.2535,0,0,0,.65088.45609c.45846.2804.9788.484,1.55622.82816a2.25719,2.25719,0,0,1-.97509.10537,2.45475,2.45475,0,0,1-.949-.31477,2.01486,2.01486,0,0,1-.72548-.73177A1.32112,1.32112,0,0,1,250.03507,107.27707Z"/><path d="M272.17078,100.43592a29.25,29.25,0,0,1-4.60731,1.579,28.90664,28.90664,0,0,1-4.78963.883,28.90189,28.90189,0,0,1,4.6073-1.579A29.227,29.227,0,0,1,272.17078,100.43592Z"/><path d="M259.47278,144.59905s-14.06609,28.51664-14.22487,35.51618l4.74205,6.69185,9.03807-5.65488S261.4128,150.56162,259.47278,144.59905Z"/><path d="M288.94425,192.307a6.95619,6.95619,0,0,1-1.16225-2.87225,2.38942,2.38942,0,0,1,.02775-.84388.953.953,0,0,1,.62067-.74008,1.33722,1.33722,0,0,1,.85545.12087c.24793.09976.47305.22333.70289.34151l.00865.00449.00742.00652a12.59173,12.59173,0,0,1,1.55981,1.56958A9.85,9.85,0,0,1,292.716,191.795a9.00723,9.00723,0,0,1,.69806,4.33241l-.00483-.0173.00315.07594h-.072l-.01516-.03415-.00484-.01752c-.10829-.35162-.19041-.701-.282-1.04564-.11369-.34083-.18862-.68594-.3032-1.02025-.20322-.67583-.47317-1.32065-.72267-1.97131a14.56967,14.56967,0,0,0-.91252-1.88952,6.53268,6.53268,0,0,0-1.2356-1.712l.01584.01078c-.40487-.23591-.97352-.44553-1.30368-.26691-.27085.14986-.19525.66661-.15334,1.11574.12008.94476.40542,1.91266.58752,2.92437Z"/><path d="M283.85265,196.8086c-1.15483-1.03912-2.28708-2.10364-3.47415-3.05986a7.02554,7.02554,0,0,0-.91061-.63718,1.44858,1.44858,0,0,0-.45082-.17637l-.55932-.10717a18.332,18.332,0,0,0-2.256-.2759c-.76064-.04606-1.54352-.01887-2.33146-.09953a1.35276,1.35276,0,0,1-1.103-.55068,1.22115,1.22115,0,0,1-.09291-1.21886,3.12625,3.12625,0,0,1,1.79437-1.54847,9.36478,9.36478,0,0,1,2.311-.56371l-.238.35072a2.32577,2.32577,0,0,1-.0683-1.08675,1.4931,1.4931,0,0,1,.61595-.98139,3.12229,3.12229,0,0,1,2.07712-.36038,12.73364,12.73364,0,0,1,3.73647,1.15057,19.35549,19.35549,0,0,1,3.30374,2.01062,18.34527,18.34527,0,0,1,2.80552,2.62286l-.051.05078a28.34384,28.34384,0,0,0-3.06042-2.23418,23.01974,23.01974,0,0,0-3.30464-1.772,16.32356,16.32356,0,0,0-3.51875-1.11327,2.5249,2.5249,0,0,0-1.61384.18244,1.2459,1.2459,0,0,0-.4006,1.37187l.077.33634-.31533.01482a8.67171,8.67171,0,0,0-2.23754.34218,2.61243,2.61243,0,0,0-1.70282,1.3166.97184.97184,0,0,0,1.0025,1.38333c.762.00315,1.52937-.10088,2.31922-.12829a10.192,10.192,0,0,1,2.36841.16491c.19626.02943.38757.08044.58045.1238a2.12243,2.12243,0,0,1,.61853.26467,7.55487,7.55487,0,0,1,.96734.72974,24.50106,24.50106,0,0,1,3.165,3.449Z"/><path d="M283.863,196.81893l-.01034-.00808.00641.00516a35.26865,35.26865,0,0,0-5.87246-2.02927,13.87059,13.87059,0,0,0-3.05738-.54573,7.03041,7.03041,0,0,0-1.549.07774,1.80276,1.80276,0,0,0-1.24785.60258c-.18513.3278.1147.79917.43071,1.09731a2.11188,2.11188,0,0,0,1.23144.51788,12.32359,12.32359,0,0,1,3.16591.46777,13.18657,13.18657,0,0,1,5.46882,3.21219l-.04493.05617a20.40065,20.40065,0,0,0-5.63284-2.52918,15.68931,15.68931,0,0,0-3.0302-.53338,2.564,2.564,0,0,1-1.56363-.78816,2.05708,2.05708,0,0,1-.45834-.76524,1.04772,1.04772,0,0,1,.10021-.94791,2.24262,2.24262,0,0,1,1.545-.641,12.90743,12.90743,0,0,1,1.58924-.06,18.28085,18.28085,0,0,1,3.179.19367,13.82086,13.82086,0,0,1,5.7864,2.551l.00618.00472.00056.00045.008.01033Z"/><path d="M298.241,205.44894a7.43323,7.43323,0,0,1-3.56751,3.86824,7.70552,7.70552,0,0,1-2.61915.71492,8.607,8.607,0,0,1-2.69105-.21164l-.05853-.01349-.03112-.02067-6.2344-4.15514c-.51608-.35185-1.03778-.6983-1.54487-1.07013-.511-.35836-.98667-.841-1.45129-1.14607a7.11984,7.11984,0,0,0-3.4272-.88118c-.30242-.01415-.60517-.01371-.9087-.00382a3.76569,3.76569,0,0,1-1.01868-.07864,2.80865,2.80865,0,0,1-1.75472-1.15011,1.66126,1.66126,0,0,1-.31657-1.14652,1.7297,1.7297,0,0,1,.59124-1.01149,2.91386,2.91386,0,0,1,1.93288-.76322,24.07807,24.07807,0,0,1,3.77129.48575,9.48942,9.48942,0,0,1,3.51437,1.3476l.01686.031c.00224-.01124-.018-.031-.02786-.02674v.07212c-.01978.00449-.04921-.02359-.04629-.04493l.01674.03055a11.08371,11.08371,0,0,0-3.55313-.94858,31.09311,31.09311,0,0,0-3.66109-.25815c-1.04721.04449-2.2918,1.01216-1.60351,1.8001a2.18027,2.18027,0,0,0,1.28908.86545,3.038,3.038,0,0,0,.83714.08605c.31938-.00112.6401.00764.9597.0319a7.15048,7.15048,0,0,1,3.67738,1.1427c.54427.42779.90432.8859,1.39186,1.27661.47721.39228.95712.78771,1.46466,1.14652a53.20567,53.20567,0,0,0,6.37618,3.87408l-.08931-.03415a8.769,8.769,0,0,0,4.965-.44823,7.73574,7.73574,0,0,0,2.11206-1.38782,8.64486,8.64486,0,0,0,1.62227-2.00118Z"/><path d="M276.85717,188.48708a20.03387,20.03387,0,0,1,2.61477.73387,17.92748,17.92748,0,0,1,2.47739,1.07067,9.21541,9.21541,0,0,1,3.92721,3.56345,9.039,9.039,0,0,0-4.08493-3.23973,17.47619,17.47619,0,0,0-2.48166-.87916,19.48863,19.48863,0,0,0-2.561-.53715Z"/><path d="M287.83087,188.85981l-.05224-.2285-.00135-.00629c-.37183-1.70574-.70469-3.42967-.95543-5.16417q-.19277-1.30053-.3387-2.60915l-.13256-1.30986-.10132-1.25167-.0091-.06156a59.5351,59.5351,0,0,1,.72379-13.92224c.39183-2.30562.9169-4.553,1.52532-6.82362a10.48981,10.48981,0,0,1,1.54622-3.31216,5.06432,5.06432,0,0,1,3.24173-2.13465l.26478-.04134.21928.24063c3.08985,3.39238,6.17734,6.78722,9.21653,10.22543l4.578,5.1399,4.53,5.183.28961.3314-.28062.32083-8.96444,10.24543-8.88007,10.31687.01179-.01527a4.27076,4.27076,0,0,0-.56528,3.25712,10.98729,10.98729,0,0,0,1.24156,3.251,26.44645,26.44645,0,0,0,4.27681,5.60206l-.37971-.029c7.27893-5.532,14.50483-11.15087,21.4928-17.02816,1.73921-1.47657,3.46629-2.968,5.14866-4.49508.84972-.75761,1.66956-1.53835,2.46806-2.33483.41655-.38756.77569-.80793,1.15427-1.21662.18322-.20715.38532-.40576.55326-.61988l.47969-.65223a9.91845,9.91845,0,0,0,1.44275-2.8372,9.4551,9.4551,0,0,0,.32915-3.13108,11.41337,11.41337,0,0,0-2.36392-5.84695l-.04314-.05527-.01607-.02472q-3.68017-5.68676-7.499-11.30162c-2.53737-3.74332-5.15327-7.43069-7.78242-11.10414-2.6505-3.6539-5.35-7.286-8.30816-10.664-.76727-.80681-1.49825-1.67967-2.31034-2.39953a17.05822,17.05822,0,0,0-2.64814-1.96074,24.29284,24.29284,0,0,0-6.13431-2.56984l.09616.01213-.01831-.00022-.05392-.00068-.04236-.01168a40.408,40.408,0,0,0-7.72962-1.255,46.63433,46.63433,0,0,0-7.87274.11818l-.02078-.14244a46.92828,46.92828,0,0,1,7.91588-.45609,36.90938,36.90938,0,0,1,7.89959.99374l-.096-.01214.01831-.00022.04381-.00068.05269.013a25.15424,25.15424,0,0,1,6.43055,2.47862,18.0456,18.0456,0,0,1,2.8618,1.99242c.904.76165,1.63957,1.62508,2.44818,2.44222,3.07142,3.38294,5.84571,6.98179,8.57732,10.60738,2.73374,3.62469,5.319,7.35295,7.894,11.08481q3.84533,5.61263,7.56134,11.31062l-.05886-.07976a12.82975,12.82975,0,0,1,2.65184,6.72543,10.889,10.889,0,0,1-.4216,3.653,11.31575,11.31575,0,0,1-1.67754,3.2342l-.54551.72323c-.18761.233-.39678.435-.59427.65381-.40228.42688-.79344.87174-1.21909,1.25976q-1.24408,1.21661-2.53984,2.35527c-1.71259,1.53925-3.49123,2.98886-5.26932,4.43689-7.14659,5.7463-14.48876,11.21243-21.90866,16.57745l-.20929.15144-.17064-.18042a33.784,33.784,0,0,1-2.32887-2.75564,23.70093,23.70093,0,0,1-1.96917-3.02391,11.44212,11.44212,0,0,1-1.26414-3.4072,4.72011,4.72011,0,0,1,.6683-3.587l.00607-.00854.00595-.007,8.75212-10.42584,8.668-10.49729.009.65178-4.67269-5.05474-4.62472-5.09789c-3.0958-3.38721-6.14353-6.81778-9.18867-10.25059l.48373.19928a3.11729,3.11729,0,0,0-1.27223.55068,5.27782,5.27782,0,0,0-1.10349,1.08092,9.37,9.37,0,0,0-1.39557,2.92842c-.622,2.187-1.1427,4.44969-1.6025,6.68971a60.26734,60.26734,0,0,0-1.09855,13.70588l-.0091-.06112a3.81591,3.81591,0,0,1,.024.39161l.011.32151.02865.65179.07672,1.30357q.08948,1.30323.22738,2.60376c.18513,1.73449.42733,3.46045.6993,5.19045l-.00124-.00584.03966.23142Z"/><path d="M270.52,126.67015c-1.4915,1.26775-2.9829,2.41039-4.49676,3.48191a51.184,51.184,0,0,1-4.63506,3.00646l-.06931-1.00743c1.41984.77521,2.811,1.61237,4.2494,2.34793a46.16316,46.16316,0,0,0,4.43756,1.94295l-.40127.08,2.15678-2.69155c.726-.89062,1.48577-1.75036,2.2445-2.611q2.25918-2.59764,4.6272-5.09544l.52989,1.20676Zm-.04055-.13818,8.68506-.64149,1.71494-.12666-1.18494,1.33356q-2.28612,2.57288-4.67673,5.05c-.79187.83026-1.58272,1.66142-2.40728,2.46171l-2.49525,2.38119-.2012.19207-.20029-.112a46.17332,46.17332,0,0,0-4.34635-2.13925c-1.4896-.62518-3.02649-1.14876-4.53451-1.73429l-.93757-.364.86814-.64361a54.19791,54.19791,0,0,1,4.78885-3.06635C267.17972,128.17012,268.82952,127.28848,270.47942,126.532Z"/><path d="M233.62072,167.17458a28.90192,28.90192,0,0,1-2.46694,1.93063,11.01451,11.01451,0,0,0-2.21912,1.97692,7.12822,7.12822,0,0,0-1.56351,2.5649,6.03128,6.03128,0,0,0-.16222,3.01717c.497,1.947,1.13776,3.98237,1.581,5.997a53.16185,53.16185,0,0,1,.98925,6.17139l-.08965.02089a53.16858,53.16858,0,0,1-1.85514-5.96827c-.24917-1.0088-.44868-2.02927-.65471-3.04818a20.66922,20.66922,0,0,1-.47181-3.12006,11.16667,11.16667,0,0,1,.37633-3.1522,8.888,8.888,0,0,1,1.2465-2.954,6.9649,6.9649,0,0,1,2.44132-2.10813,28.82742,28.82742,0,0,1,2.79946-1.40579Z"/></svg>