<svg id="Layer_1" data-name="Layer 1" xmlns="http://www.w3.org/2000/svg" viewBox="0 0 700 550"><title>taking selfie</title><path d="M334.13653,105.79381l-17.23607-.85164a1.92487,1.92487,0,0,0-2.02272,1.81941l-.84184,15.06815v.04844a21.18137,21.18137,0,0,1,.59989,5.20662c1.3451,3.34845,6.484-6.35827,8.23575-9.84228a5.83975,5.83975,0,0,1,2.15811-2.40975c1.83867-1.1129,2.00335.33876,1.86773,1.60654a6.56151,6.56151,0,0,1-.78371,2.39037c-2.85512,5.34211-2.53568,8.37124-2.53568,8.37124,2.555,6.27114,10.21973-8.1293,10.21973-8.1293.7934-.871,1.33541-1.16134,1.713-1.0839a.47057.47057,0,0,0,.00969-.11613l.45482-10.05516A1.93524,1.93524,0,0,0,334.13653,105.79381ZM319.33927,111.523a1.45244,1.45244,0,0,1,0-2.90331A1.45244,1.45244,0,0,1,319.33927,111.523Z" fill="#020202"/><path d="M389.88972,209.1905a86.46743,86.46743,0,0,0-9.1357-1.76135c-7.46149,39.25281-25.10394,79.24114-66.71812,52.49192a204.94579,204.94579,0,0,0-3.23244,28.00731s1.4129,25.46207,1.045,33.44619c-.5224,11.23587-3.0387,17.36182-6.61941,32.74941-1.5679,6.73571-9.40671,42.50452-6.61964,64.45357,0,0,7.93568,3.484,27.86218,1.50009a396.918,396.918,0,0,1,41.4013-2.08073,67.90581,67.90581,0,0,0,28.63645-6.03889s-4.55841-67.5795,2.51606-97.90943a96.42259,96.42259,0,0,0,2.44849-20.32321C401.81274,274.61189,400.66091,239.35592,389.88972,209.1905ZM303.63235,415.45167a1.45258,1.45258,0,0,1,0-2.90332A1.45258,1.45258,0,0,1,303.63235,415.45167Zm8.36145,1.742a1.45258,1.45258,0,0,1,0-2.90331A1.45258,1.45258,0,0,1,311.9938,417.19364Zm9.05844-.34838a1.45258,1.45258,0,0,1,0-2.90332A1.45258,1.45258,0,0,1,321.05224,416.84526Zm10.80025-1.39359a1.45258,1.45258,0,0,1,0-2.90332A1.45258,1.45258,0,0,1,331.85249,415.45167Zm10.452-1.04521a1.45258,1.45258,0,0,1,0-2.90332A1.45258,1.45258,0,0,1,342.30447,414.40646Zm10.45174,0a1.45258,1.45258,0,0,1,0-2.90332A1.45258,1.45258,0,0,1,352.75621,414.40646Zm10.80049.34844a1.45258,1.45258,0,0,1,0-2.90332A1.45258,1.45258,0,0,1,363.5567,414.7549Zm10.10347-.34844a1.45258,1.45258,0,0,1,0-2.90332A1.45258,1.45258,0,0,1,373.66017,414.40646Zm9.40672-1.742a1.45258,1.45258,0,0,1,0-2.90332A1.45258,1.45258,0,0,1,383.06689,412.66448Zm8.36168-2.78719a1.45257,1.45257,0,0,1,0-2.90331A1.45257,1.45257,0,0,1,391.42857,409.87729Z" fill="#020202"/><path d="M409.22939,289.3964a.489.489,0,0,1,.10425.18918l.02393.1513.03686.2526.07447.50513.1499,1.01007.27954,2.02183.571,4.04154,1.07862,8.08639c.72485,5.3887,1.3811,10.78388,2.167,16.15952.749,5.37957,1.377,10.77446,2.16992,16.14514.40235,2.68382.83863,5.36322,1.39917,8.01452a29.38712,29.38712,0,0,0,2.46533,7.64415l.01026.01879a.286.286,0,0,1-.05982.35025,34.48608,34.48608,0,0,1-5.64209,4.09059,25.1552,25.1552,0,0,1-6.4458,2.74892,13.32807,13.32807,0,0,1-7.12744-.01575,12.58867,12.58867,0,0,1-5.94238-4.09869.74685.74685,0,0,1-.17529-.50464l.001-.03311c.13574-4.23375.324-8.46479.50293-12.69628.18213-4.23134.34375-8.46374.57446-12.69255.002-.03685.0066-.0779.01221-.11359.60816-3.846,1.30127-7.678,1.95142-11.51707l2.08569-11.49507.73486-.645a2.11432,2.11432,0,0,0,.35352-.11352,2.86977,2.86977,0,0,0,.47607-.24845,5.5017,5.5017,0,0,0,.91529-.72222,10.418,10.418,0,0,0,.84521-.88627c.2544-.3302.50928-.66348.75513-1.00543a26.13258,26.13258,0,0,0,2.38525-4.56274c.64991-1.61,1.24536-3.25411,1.75733-4.92868Zm-.01025.19328c-.1748.90865-.23828,1.78612-.35986,2.57675-.10669.77883-.354,1.70128-.52491,2.54679a44.98853,44.98853,0,0,1-1.44067,5.12124,27.23175,27.23175,0,0,1-2.228,4.90717c-.24511.38661-.5039.76843-.76611,1.14879a11.77637,11.77637,0,0,1-.915,1.07539,6.75685,6.75685,0,0,1-1.12036.94509,4.3277,4.3277,0,0,1-.67969.38259,2.69946,2.69946,0,0,1-.905.25982l.73462-.64482-1.6914,11.55967c-.60889,3.84584-1.17481,7.69873-1.82569,11.53769l.01221-.1132c-.20923,4.22993-.48755,8.45626-.74536,12.68365-.261,4.22725-.5127,8.455-.81714,12.68l-.17407-.5374a11.69281,11.69281,0,0,0,5.11694,3.8603,12.00251,12.00251,0,0,0,6.51074.31363,21.83137,21.83137,0,0,0,6.313-2.42068,33.89856,33.89856,0,0,0,5.59082-3.9139l-.04931.36873a18.69525,18.69525,0,0,1-1.58619-3.83281c-.40283-1.30934-.78442-2.623-1.1123-3.94867q-1.02027-3.9681-1.83667-7.97924c-1.09863-5.34407-2.04028-10.718-2.731-16.12232-.64868-5.40942-1.28662-10.81772-1.76489-16.24223l-.65552-8.14121-.24389-4.07765-.114-2.03917-.04223-1.02086-.02051-.51043-.00977-.25527c.00049-.03308-.00854-.10722.00049-.10261A.121.121,0,0,0,409.21914,289.58968Z" fill="#020202"/><path d="M349.66274,137.87943a7.33387,7.33387,0,0,1,1.48413,3.88434,7.58806,7.58806,0,0,1-.01806,2.06271,16.46262,16.46262,0,0,1-.52661,2.01587l-.0625-.29113a9.684,9.684,0,0,0,2.24341,3.232c.97265.91849,1.80859,1.91724,2.66943,2.88638a38.43349,38.43349,0,0,1,2.44018,2.99088l2.38013,3.13919a.10152.10152,0,0,1-.01782.14242.10479.10479,0,0,1-.09229.01682,10.34646,10.34646,0,0,1-3.551-2.07028,14.03518,14.03518,0,0,1-2.70825-3.006,19.65849,19.65849,0,0,1-2.00049-3.49305,12.10891,12.10891,0,0,0-2.0979-3.3764.20222.20222,0,0,1-.054-.12738l-.00854-.16412c-.033-.64353-.15625-1.3104-.22095-1.95069a16.02207,16.02207,0,0,1-.05-1.91552l.0105-3.90665a.10234.10234,0,0,1,.09888-.10584A.11109.11109,0,0,1,349.66274,137.87943Z" fill="#020202"/><path d="M370.5541,147.56269l.00342-.91894.11621.17123a7.30151,7.30151,0,0,1-3.96143-3.03577,17.05483,17.05483,0,0,1-2.115-4.55334,31.66236,31.66236,0,0,1-1.09375-4.856,39.69722,39.69722,0,0,1-.42846-4.96234.82784.82784,0,0,1,.56225-.80649l.0398-.01318a4.46967,4.46967,0,0,0,1.39453-.91693,7.05259,7.05259,0,0,0,1.18018-1.39344,8.66924,8.66924,0,0,0,1.31054-3.476c.21192-1.24924.1543-2.58713-.59228-3.30225-.75122-.72708-2.23023-.68511-3.41333-.3374l-.0503.0156a8.50782,8.50782,0,0,1-5.47485-.80753,16.92718,16.92718,0,0,1-4.38184-3.30066,33.72694,33.72694,0,0,1-3.50341-4.20364,40.83482,40.83482,0,0,1-2.88013-4.684l1.22436.1047a32.06187,32.06187,0,0,0-2.71044,5.39063c-.39209.938-.76368,1.88412-1.10474,2.837a24.45985,24.45985,0,0,0-.86206,2.80332,36.328,36.328,0,0,0-.62549,5.97436,39.50023,39.50023,0,0,0,.312,5.97635,9.17658,9.17658,0,0,0,.75073,2.668c.09693.19754.19507.36817.34034.60785.19507.33765.25732.47119.37744.69293a7.882,7.882,0,0,0,.78638,1.14334,9.08109,9.08109,0,0,0,4.69824,3.01258,9.64481,9.64481,0,0,0,5.73242-.28046,11.07267,11.07267,0,0,0,4.88257-3.406.09706.09706,0,0,1,.15771.11234,10.84909,10.84909,0,0,1-11.09057,4.99368c-.27832-.04672-.52808-.12365-.79859-.18908-.292-.08713-.55688-.163-.81372-.26828a11.23364,11.23364,0,0,1-1.4978-.72413,10.84663,10.84663,0,0,1-2.61084-2.084,9.70922,9.70922,0,0,1-1.03565-1.34906c-.13794-.22418-.32153-.54395-.3955-.64572-.13208-.19464-.30957-.46-.44971-.72049a11.02182,11.02182,0,0,1-1.0166-3.23151,33.83875,33.83875,0,0,1,.41284-12.64972,25.11858,25.11858,0,0,1,1.0332-3.0784q.575-1.46548,1.22583-2.89019a32.07872,32.07872,0,0,1,3.13623-5.48664l.02295-.0314a.6952.6952,0,0,1,.97119-.15317.7041.7041,0,0,1,.23047.28931,37.54769,37.54769,0,0,0,2.43189,4.716,27.32658,27.32658,0,0,0,3.156,4.28733,13.98263,13.98263,0,0,0,4.15406,3.23016,7.12727,7.12727,0,0,0,5.0249.55191l-.05.0155a6.51018,6.51018,0,0,1,2.16772-.46042,3.47819,3.47819,0,0,1,2.27979.67041,3.5876,3.5876,0,0,1,1.21606,2.10508,10.71556,10.71556,0,0,1,.14356,1.14108l-.02808,1.10876a9.295,9.295,0,0,1-1.34765,4.23481,8.77787,8.77787,0,0,1-1.45606,1.75036,5.498,5.498,0,0,1-2.05029,1.27615l.60156-.81936c-.00073,1.56076.12891,3.1767.28833,4.757a37.826,37.826,0,0,0,.80347,4.7,18.12861,18.12861,0,0,0,1.6289,4.41486,6.916,6.916,0,0,0,3.26807,3.21179l.02832.01184a.14769.14769,0,0,1,.08838.15967l-.15161.91961a.09692.09692,0,0,1-.11133.07987A.10051.10051,0,0,1,370.5541,147.56269Z" fill="#020202"/><path d="M335.52871,117.89262c.51367.126.67774.65057.78345,1.04019a6.2627,6.2627,0,0,1,.16138,1.26562,17.09964,17.09964,0,0,1-.12256,2.52039l-.27173-.33924a2.525,2.525,0,0,1,1.18384.31116,1.87357,1.87357,0,0,1,.80542,1.00656,4.61269,4.61269,0,0,1,.03686,2.34278,12.40917,12.40917,0,0,1-.6499,2.13766,20.38805,20.38805,0,0,1-.92334,2.02l.0708-.26767.05151,2.36667a10.158,10.158,0,0,1-.15356,2.49094,8.51538,8.51538,0,0,1-2.40332,4.45828,9.102,9.102,0,0,1-.98633.83234l-.95874.69308-1.91772,1.3862-3.83545,2.77231-.95874.693a4.03229,4.03229,0,0,0-.75562.65683,3.499,3.499,0,0,0-.83008,1.69168,3.26725,3.26725,0,0,0-.05493.46946c-.00659.14944-.00244.30914.00147.52554l.01074,1.19827c.00683.79895-.02442,1.59442-.03516,2.39169-.10107,3.182-.36719,6.34351-.73071,9.48932-.70606,6.2941-1.71192,12.53513-2.70361,18.77243-.26856,1.55561-.45313,3.12186-.80542,4.68634a30.16614,30.16614,0,0,1-1.439,4.55915,28.467,28.467,0,0,1-5.082,8.06326l-.009.01032a.32754.32754,0,0,1-.084.06765l-2.22656,1.23813c-.7915.31891-1.574.67807-2.39575.93393a10.95052,10.95052,0,0,1-5.20972.32379,8.84148,8.84148,0,0,1-4.59155-2.6553,12.944,12.944,0,0,1-2.72656-4.54477l-.01026-.03632-.00439-.02185a35.77,35.77,0,0,1-.44409-10.69394,65.02888,65.02888,0,0,1,2.18725-10.40188,106.87653,106.87653,0,0,1,8.23609-19.42185c.79467-1.53647,1.69677-3.12957,2.40283-4.55865a33.38174,33.38174,0,0,0,1.38134-4.87247c.38379-1.68851.72974-3.39227,1.05958-5.10049a9.313,9.313,0,0,0-.21607-4.7956,9.95733,9.95733,0,0,1-.38867-5.47381,8.84028,8.84028,0,0,0,.17749-2.44712,3.6217,3.6217,0,0,0-.27075-1.10925,2.31238,2.31238,0,0,0-.27735-.46811,4.59168,4.59168,0,0,1-.39721-.61441,4.85762,4.85762,0,0,1-.4878-2.7846,2.64351,2.64351,0,0,1,1.77246-2.21479,2.40755,2.40755,0,0,1,2.57886.91577,6.3667,6.3667,0,0,1,1.05664,2.451.097.097,0,0,1-.07129.11686.09822.09822,0,0,1-.11523-.06528,6.13465,6.13465,0,0,0-1.17627-2.24161,1.91776,1.91776,0,0,0-2.09082-.6337,1.99177,1.99177,0,0,0-1.2146,1.74063,4.1812,4.1812,0,0,0,.53662,2.27524,3.679,3.679,0,0,0,.33594.46845,3.29875,3.29875,0,0,1,.41992.63568,4.60658,4.60658,0,0,1,.42114,1.40362,9.89173,9.89173,0,0,1-.062,2.76615,8.64786,8.64786,0,0,0,.57544,4.81607,10.50222,10.50222,0,0,1,.44214,5.5343c-.28174,1.72861-.58032,3.45639-.92017,5.183a34.45879,34.45879,0,0,1-1.33227,5.22867c-.77637,1.73169-1.59741,3.17951-2.38306,4.75537-1.58472,3.09369-3.05737,6.23069-4.45,9.39853-1.38208,3.17353-2.57861,6.415-3.65259,9.68982a63.18523,63.18523,0,0,0-2.28393,10.03439,36.2824,36.2824,0,0,0,.17187,10.15937l-.01465-.0578a12.06088,12.06088,0,0,0,2.2649,4.04336,7.54722,7.54722,0,0,0,3.83667,2.45017,9.70135,9.70135,0,0,0,4.67016-.1163c.77344-.2096,1.52759-.52381,2.29077-.79554l2.18824-1.11154-.09278.07773a26.21289,26.21289,0,0,0,5.106-7.78217,23.96164,23.96164,0,0,0,1.42114-4.45172c.32105-1.51971.51636-3.09094.72632-4.65338.82837-6.25232,1.44165-12.53415,1.89355-18.80975.20655-3.139.39917-6.27512.48267-9.40219.0061-.78031.0332-1.56229.02222-2.34107l-.01221-1.16827c.00049-.17789-.00342-.41309.01172-.65741a4.96985,4.96985,0,0,1,.09473-.70319,5.20186,5.20186,0,0,1,1.2727-2.48321,5.76234,5.76234,0,0,1,1.03687-.87943l.97143-.67627,3.88574-2.70511,1.94288-1.35253.97143-.67627a7.6464,7.6464,0,0,0,.83276-.67826,7.48768,7.48768,0,0,0,2.16016-3.67651,8.893,8.893,0,0,0,.22681-2.21451l.05127-2.36667.00048-.01443a.54006.54006,0,0,1,.07056-.25363,16.58663,16.58663,0,0,0,1.65625-3.81742,3.89658,3.89658,0,0,0,.124-1.92013,1.35544,1.35544,0,0,0-1.3274-.9606l-.01489-.00135a.28734.28734,0,0,1-.2605-.3118l.00366-.02633a16.77035,16.77035,0,0,0,.28394-2.42533,5.94047,5.94047,0,0,0-.0437-1.20468c-.06079-.378-.1853-.80224-.52124-.91162l-.0166-.00543a.09613.09613,0,0,1,.05273-.18475Z" fill="#020202"/><path d="M328.80239,132.60624c1.37769-1.87869,2.833-3.63275,4.17871-5.46076a33.59056,33.59056,0,0,0,1.908-2.79336,9.67473,9.67473,0,0,0,1.33545-3.101,6.25109,6.25109,0,0,1-.66455,3.44738,16.04657,16.04657,0,0,1-1.802,3.023,24.42,24.42,0,0,1-2.29,2.63654A18.93787,18.93787,0,0,1,328.80239,132.60624Z" fill="#020202"/><path d="M329.61538,137.18516c1.19409-1.7193,2.52441-3.27237,3.82349-4.84766.66455-.7749,1.30346-1.56537,1.94653-2.35226a23.23858,23.23858,0,0,0,1.80615-2.48,8.31949,8.31949,0,0,1-1.18554,2.91006,20.00549,20.00549,0,0,1-1.825,2.54236A23.21878,23.21878,0,0,1,329.61538,137.18516Z" fill="#020202"/><path d="M322.37466,161.27387a23.12472,23.12472,0,0,1,2.7583-9.02133,18.49075,18.49075,0,0,1,6.55835-7.0791,16.09332,16.09332,0,0,1,9.43872-2.13266,22.40629,22.40629,0,0,1,9.04077,2.73819,35.69145,35.69145,0,0,0-9.07959-1.2283,17.47952,17.47952,0,0,0-4.385.60165,15.315,15.315,0,0,0-4.02319,1.682,20.15177,20.15177,0,0,0-6.26221,6.19613A37.4128,37.4128,0,0,0,322.37466,161.27387Z" fill="#020202"/><path d="M382.24136,198.73862a41.48477,41.48477,0,0,1,4.32812-.68344c1.44434-.16772,2.89087-.27151,4.3396-.34335l-.79443,1.08676a36.57869,36.57869,0,0,1-1.18677-4.93643l-.02173-.12708a.51284.51284,0,0,1,.11475-.41711,16.64619,16.64619,0,0,0,3.62182-7.32779,22.56567,22.56567,0,0,0,.42774-4.06787,18.95206,18.95206,0,0,0-.03125-2.00769,11.75293,11.75293,0,0,0-.21167-1.97406,20.351,20.351,0,0,0-2.91211-7.28345,77.79106,77.79106,0,0,1-4.15967-7.32168.09821.09821,0,0,1,.04419-.13132.09922.09922,0,0,1,.11377.01929,77.67922,77.67922,0,0,1,5.49487,6.38137,19.6472,19.6472,0,0,1,1.23194,1.80805,9.98035,9.98035,0,0,1,1.0083,1.97961,9.88025,9.88025,0,0,1,.68725,2.11569c.07715.36283.19605.71711.23658,1.08515l.124,1.10171a13.4184,13.4184,0,0,1,.08813,2.19919,13.183,13.183,0,0,1-.20459,2.17444,25.27143,25.27143,0,0,1-1.14013,4.15167c-.52735,1.32376-1.02295,2.6398-1.592,3.93293-.56763,1.29852-1.07544,2.60488-1.78614,3.90225l.09278-.54383A36.54392,36.54392,0,0,1,391.755,198.33l.01074.04221a.839.839,0,0,1-.60742,1.01913.8772.8772,0,0,1-.19775.02564c-1.44825.014-2.89844.00244-4.35108-.07569a41.47885,41.47885,0,0,1-4.36206-.40917.0985.0985,0,0,1-.0061-.19346Z" fill="#020202"/><path d="M312.71963,197.86759a6.87121,6.87121,0,0,0,3.5852-1.58172,18.38913,18.38913,0,0,0,1.51563-1.26923c.45679-.48373.94385-.92593,1.38257-1.42209a50.568,50.568,0,0,0,4.7417-6.39477c.69946-1.13706,1.41723-2.25638,2.06787-3.42643.66284-1.16049,1.35058-2.30478,1.948-3.5058.60473-1.19528,1.29956-2.34088,1.86669-3.55868.58887-1.20541,1.18335-2.408,1.80079-3.60092l.029-.05615a.8806.8806,0,0,1,1.6626.41464c-.01612,1.44174-.00537,2.883-.04639,4.32519-.03589,1.442-.04834,2.8837-.10938,4.32611-.09008,2.88437-.23291,5.7695-.46948,8.65607-.32373-2.87808-.55371-5.7576-.731-8.63791-.1045-1.43994-.16065-2.88058-.24-4.32086-.08448-1.44022-.11719-2.88123-.177-4.32181l1.69165.35846c-1.11914,2.47672-2.28051,4.93585-3.58252,7.33148a69.35576,69.35576,0,0,1-4.28369,6.97815,37.45757,37.45757,0,0,1-5.36426,6.241c-.509.465-1.06054.89081-1.59252,1.32623a19.08225,19.08225,0,0,1-1.75123,1.12091A6.53826,6.53826,0,0,1,312.71963,197.86759Z" fill="#020202"/><path d="M386.26064,148.84028a18.1834,18.1834,0,0,1,10.2959,6.71307,43.32632,43.32632,0,0,1,4.60767,11.58237A101.76744,101.76744,0,0,1,403.48794,179.27c.54346,4.0791.91309,8.16406,1.05078,12.28735l.00122.03305a.69759.69759,0,0,1-.61108.71274q-1.79187.21637-3.58863.4013c-1.19824.121-2.39257.26752-3.59375.36762-2.40161.20679-4.79565.46313-7.20507.61478,2.3518-.54514,4.719-.9856,7.0791-1.47559,1.17944-.24829,2.36572-.4502,3.54834-.67758q1.77429-.33883,3.55322-.64389l-.60962.74557c-.3855-4.03549-.89477-8.08447-1.48486-12.1011-.61035-4.01575-1.304-8.0188-2.25977-11.94809-.46826-1.96527-.98022-3.92163-1.62378-5.82587-.3186-.95325-.62085-1.91479-1.02-2.83087a16.33946,16.33946,0,0,0-1.251-2.67435,16.08388,16.08388,0,0,0-3.95557-4.37393A26.17222,26.17222,0,0,0,386.26064,148.84028Z" fill="#020202"/><polyline points="382.244 198.845 388.419 198.642 389.009 198.622 389.89 209.191" fill="none" stroke="#020202" stroke-linecap="round" stroke-linejoin="round" stroke-width="0.96777"/><path d="M401.82339,191.88609c.5354,3.11129,1.02466,6.2294,1.51391,9.348l1.44654,9.36038,1.37231,9.37189.67237,4.68829c.1914,1.5661.28051,3.1424.42553,4.71317.54273,6.28692,1.03223,12.57968,1.5166,18.87286l1.353,18.88763.00073.01078.00171.05658L410.018,277.917l-.08179,5.36064a50.27871,50.27871,0,0,1-.27954,5.41,39.659,39.659,0,0,1-2.57031,10.50922,28.21641,28.21641,0,0,1-2.4148,4.83653,10.36183,10.36183,0,0,1-3.80883,3.75054,10.66773,10.66773,0,0,0,3.47314-3.95349,27.69527,27.69527,0,0,0,2.08569-4.8758,42.50308,42.50308,0,0,0,2.00489-10.37669c.12329-1.767.12353-3.50368.08618-5.30034l-.082-5.36064-.10791-10.72128.00244.06695-1.46631-18.85632c-.45508-6.28815-.90527-12.57672-1.30249-18.87113-.11206-1.57226-.1853-3.14868-.32959-4.71771l-.52881-4.69742-1.03-9.39956-.95605-9.411C402.40029,198.171,402.08877,195.0319,401.82339,191.88609Z" fill="#020202"/><path d="M404.34683,282.52509a68.79646,68.79646,0,0,1-.27954,10.92964,52.73082,52.73082,0,0,1-.82618,5.42072,24.26714,24.26714,0,0,1-.71386,2.66281,6.08813,6.08813,0,0,1-1.31617,2.4133,6.84536,6.84536,0,0,0,.85816-2.53693c.177-.88168.30469-1.77475.42773-2.6685q.34423-2.68613.60816-5.39065C403.48672,289.7524,403.81338,286.1404,404.34683,282.52509Z" fill="#020202"/><path d="M398.43522,453.34a1.599,1.599,0,0,0-.01937.67739,28.3455,28.3455,0,0,0-7.07447-2.32262,33.01337,33.01337,0,0,0-9.94872-.36775,37.80849,37.80849,0,0,0-4.897.85164,14.55264,14.55264,0,0,1-5.26462.43551,12.13518,12.13518,0,0,1-5.0808-1.70329,9.9103,9.9103,0,0,1-2.81613-2.45818,7.78633,7.78633,0,0,1-.93871-1.5,11.323,11.323,0,0,1-1.055-5.30337,20.516,20.516,0,0,1,.9-5.16793,28.18586,28.18586,0,0,1,1.93555-4.79042,17.0518,17.0518,0,0,1,1.37439-2.21623,9.28792,9.28792,0,0,0,1.63548-6.85178,12.96386,12.96386,0,0,0-1.72266-4.626.10711.10711,0,0,1,.03875-.1355.09407.09407,0,0,1,.12569.02906,12.247,12.247,0,0,1,2.20655,4.6066,9.66309,9.66309,0,0,1-.19351,5.21625,10.29753,10.29753,0,0,1-1.1419,2.40011,15.84825,15.84825,0,0,0-1.171,2.12905,32.43453,32.43453,0,0,0-1.6454,4.655,18.84619,18.84619,0,0,0-.69676,4.78073,9.70874,9.70874,0,0,0,.93871,4.50985,8.28857,8.28857,0,0,0,3.11643,3.242,11.16223,11.16223,0,0,0,4.39348,1.58716,13.91152,13.91152,0,0,0,4.77105-.15481,37.98328,37.98328,0,0,1,5.10018-.60971,39.15136,39.15136,0,0,1,10.02621.79358c.04844.00963.08719.01932.13539.029A33.32141,33.32141,0,0,1,398.43522,453.34Z" fill="#020202"/><path d="M403.91272,439.55889c-1.2194-.59039-2.45817-1.1904-3.6582-1.86785a22.86421,22.86421,0,0,1-5.06143-3.69684,21.13011,21.13011,0,0,1-5.03236-9.00032,28.33521,28.33521,0,0,1-.9484-5.02274l-.62919-5.02273a.09811.09811,0,0,1,.19374-.029l1.05472,4.9453a34.66277,34.66277,0,0,0,1.25815,4.82917,20.64219,20.64219,0,0,0,5.1583,8.21637,23.64017,23.64017,0,0,0,6.10646,3.90015h.00992c.76434.36776,1.53861.70646,2.31287,1.04521.86121.36776,1.73235.73552,2.61294,1.09359a1.56331,1.56331,0,0,0-.32889,1.97423Q405.4225,440.27016,403.91272,439.55889Z" fill="#020202"/><path d="M429.86843,453.70771c-.05813.14513-.12594.29032-.19375.42582v.00963a6.43081,6.43081,0,0,1-1.71274,1.84847,10.72886,10.72886,0,0,1-1.1712.73552,8.76009,8.76009,0,0,1-1.21916.58064,22.30915,22.30915,0,0,1-5.04229,1.3839,32.97685,32.97685,0,0,1-10.27761-.01931,29.50321,29.50321,0,0,1-4.97448-1.25815,26.61979,26.61979,0,0,1-4.60637-2.22586q-.13077-.07257-.26132-.14513a1.16083,1.16083,0,0,0,.53209-.47426l.05812.02906a21.55126,21.55126,0,0,0,7.58742,2.73881v.00963c.59989.1065,1.20971.20325,1.80961.271a33.65682,33.65682,0,0,0,9.86153-.43551,21.2301,21.2301,0,0,0,4.626-1.43228c1.41315-.65808,2.83574-1.57747,3.29057-2.71944a2.08976,2.08976,0,0,0-.12594-1.6936,4.282,4.282,0,0,0-.59021-.84195c-.12593-.13551-.23225-.271-.36787-.40651l-.43545-.3677a18.2454,18.2454,0,0,0-4.084-2.45818c-1.48072-.66776-3.029-1.26777-4.61629-1.88716l-2.52575-.99678-2.17749-.85164c-1.597-.65808-3.20338-1.29684-4.81-1.97423a1.42433,1.42433,0,0,0,1.0937-1.6936q2.23561.88548,4.48067,1.742l2.9905,1.18066,1.713.67745c1.54853.6097,3.14526,1.2194,4.71292,1.98392a19.77436,19.77436,0,0,1,4.4906,2.83556l.51294.46457c.16445.16451.30952.35807.4742.542a6.13145,6.13145,0,0,1,.82247,1.23872A3.95639,3.95639,0,0,1,429.86843,453.70771Z" fill="#020202"/><path d="M293.15131,440.817a1.58806,1.58806,0,0,0,.06757-1.99361c1.54853-.61938,3.08738-1.26777,4.57778-1.9936.78372-.36776,1.56767-.76458,2.32256-1.1904,5.6325-2.83557,8.95189-8.84539,10.19066-15.08753a.1005.1005,0,0,1,.11625-.07744.10905.10905,0,0,1,.07726.11613,24.27523,24.27523,0,0,1-2.79676,9.281,18.87368,18.87368,0,0,1-2.913,3.9969,19.17026,19.17026,0,0,1-3.90015,3.0775c-.39693.24195-.79364.46452-1.19034.68708-.00968.00969-.00968.00969-.00968,0A70.21779,70.21779,0,0,1,293.15131,440.817Z" fill="#020202"/><path d="M338.685,442.40408a10.82843,10.82843,0,0,1-1.27752,5.00342,10.13932,10.13932,0,0,1-.70646,1.06453,9.63911,9.63911,0,0,1-3.01956,2.58393,12.65814,12.65814,0,0,1-4.86768,1.55816,14.1865,14.1865,0,0,1-5.0326-.38713,39.7992,39.7992,0,0,0-4.655-.86133,33.55519,33.55519,0,0,0-9.49366.14519,30.937,30.937,0,0,0-9.0197,3.00006l-2.08061,1.16134-1.07433.6097c-.358.18388-.73552.34839-1.10316.52258a24.75774,24.75774,0,0,1-4.655,1.53878,32.447,32.447,0,0,1-9.7649.68714,28.16074,28.16074,0,0,1-4.88729-.813,15.37138,15.37138,0,0,1-4.68386-1.99361,6.27958,6.27958,0,0,1-1.95492-1.98392.39225.39225,0,0,1-.04844-.08713,3.647,3.647,0,0,1-.32913-2.96138,5.95044,5.95044,0,0,1,1.5001-2.42911l.98714-.88065,1.03559-.75489a47.38869,47.38869,0,0,1,8.92282-4.12266l.56138-.21294,7.69374-2.99038a1.37262,1.37262,0,0,0,1.40322,1.43229.1888.1888,0,0,0,.0775-.00969l-.05812.02906c-2.50662,1.09353-5.042,2.1-7.55836,3.1162l-1.36447.55163a52.38551,52.38551,0,0,0-8.56487,3.88078,6.40259,6.40259,0,0,0-2.79676,2.93231c-.426,1.04521.34827,2.1678,1.53884,3.00013a14.35721,14.35721,0,0,0,4.10311,1.83873,27.9167,27.9167,0,0,0,4.56809.93877,33.398,33.398,0,0,0,9.368-.20325.05823.05823,0,0,1,.03875-.00969,23.53561,23.53561,0,0,0,4.53879-1.25809c.36788-.15482.73552-.29032,1.09371-.45482l1.045-.54195,2.14843-1.142a36.2167,36.2167,0,0,1,8.3905-2.84525c.27124-.05806.5517-.11613.8227-.1645a40.64593,40.64593,0,0,1,9.69709-.6,39.45413,39.45413,0,0,1,4.85823.61939,13.69832,13.69832,0,0,0,4.52911.10644,10.08872,10.08872,0,0,0,7.30672-4.45172c1.45166-2.53556,1.34534-5.78732.67739-8.78739a31.01906,31.01906,0,0,0-1.40322-4.4711c-.29038-.73551-.60958-1.46134-.95808-2.15811a12.27567,12.27567,0,0,1-.542-1.12265c-.16445-.38707-.29038-.79358-.41608-1.19034a16.74809,16.74809,0,0,1,.37757-9.6874.09658.09658,0,0,1,.12569-.05806.11037.11037,0,0,1,.05813.11612,20.55963,20.55963,0,0,0-.42577,4.73242,16.20456,16.20456,0,0,0,.83216,4.58723c.13562.36776.271.72583.43545,1.06452.15475.33876.35818.63877.57107,1.01621.3967.71614.76457,1.442,1.11284,2.18712a27.63432,27.63432,0,0,1,1.6936,4.63566A18.12319,18.12319,0,0,1,338.685,442.40408Z" fill="#020202"/><path d="M301.04678,98.39686a8.77,8.77,0,0,1,2.25708,1.05465,13.503,13.503,0,0,1,1.88379,1.4578,13.265,13.265,0,0,1,1.6018,1.76294,8.66382,8.66382,0,0,1,1.22534,2.17,8.66277,8.66277,0,0,1-2.25878-1.05273,13.26437,13.26437,0,0,1-1.88208-1.45972,13.50462,13.50462,0,0,1-1.6001-1.76489A8.76853,8.76853,0,0,1,301.04678,98.39686Z" fill="#020202"/><path d="M314.8085,89.33851a8.82785,8.82785,0,0,1,1.46118,2.029,13.62464,13.62464,0,0,1,.93921,2.19958,13.3777,13.3777,0,0,1,.54394,2.32877,8.71857,8.71857,0,0,1,.01709,2.501,8.72663,8.72663,0,0,1-1.46362-2.02811,13.3775,13.3775,0,0,1-.93677-2.20044,13.623,13.623,0,0,1-.5415-2.32956A8.82611,8.82611,0,0,1,314.8085,89.33851Z" fill="#020202"/><path d="M326.13149,99.44205a13.54246,13.54246,0,0,1,.38086-3.103,21.96657,21.96657,0,0,1,.89356-2.90579,21.59771,21.59771,0,0,1,1.28149-2.7566,13.36973,13.36973,0,0,1,1.79907-2.55758,13.3681,13.3681,0,0,1-.37866,3.10391,21.56521,21.56521,0,0,1-.89575,2.90488,21.93246,21.93246,0,0,1-1.28418,2.75564A13.52969,13.52969,0,0,1,326.13149,99.44205Z" fill="#020202"/><path d="M363.93262,129.40427c-1.13229,6.79375,12.54232-5.31307,9.23254-15.32951s-4.26787-11.23582-15.5908-12.45522-9.66809,4.26782-9.66809,4.26782,6.41163,14.15546,15.50376,12.89077c0,0,6.00242-2.78087,4.702,5.23551,0,0-1.20535,3.62121-2.69239,4.50592Z" fill="#020202"/><path d="M367.79606,129.69266c6.82481,6.82084-2.35257,10.03964-2.35257,10.03964s-1.44805-8.23939-1.2303-8.97973Z" fill="#020202"/><path d="M350.33437,143.34s.34888.08484.94459.199" fill="none" stroke="#020202" stroke-linecap="round" stroke-linejoin="round" stroke-width="0.96777"/><path d="M353.34,143.86857c3.22876.41821,8.27832.61343,11.123-1.6008" fill="none" stroke="#020202" stroke-linecap="round" stroke-linejoin="round" stroke-width="0.96777" stroke-dasharray="2.08924 2.08924"/><path d="M365.22378,141.55488a5.17986,5.17986,0,0,0,.57031-.78409" fill="none" stroke="#020202" stroke-linecap="round" stroke-linejoin="round" stroke-width="0.96777"/><path d="M319.33779,131.31559a8.89456,8.89456,0,0,0,1.87671,1.32108c.31812.17636.657.32147,1.00757.48825a11.65791,11.65791,0,0,1,1.12231.54235,3.11589,3.11589,0,0,1-2.58544-.17739,3.03452,3.03452,0,0,1-1.02027-.897A1.96387,1.96387,0,0,1,319.33779,131.31559Z" fill="#020202"/><path d="M325.78311,135.32218a4.74684,4.74684,0,0,1,1.15332,1.36521c.13232.24008.26709.46441.38232.70266a2.75475,2.75475,0,0,0,.46753.7193,1.0701,1.0701,0,0,1-1.01587-.2,2.4029,2.4029,0,0,1-.665-.727A2.53389,2.53389,0,0,1,325.78311,135.32218Z" fill="#020202"/><path d="M346.22429,121.39945a1.45253,1.45253,0,0,0,0-2.90332,1.45253,1.45253,0,0,0,0,2.90332Z" fill="#020202"/><path d="M354.15034,121.57365a1.45253,1.45253,0,0,0,0-2.90332,1.45253,1.45253,0,0,0,0,2.90332Z" fill="#020202"/><path d="M343.00161,116.8122a2.35362,2.35362,0,0,1,1.11621-.96115,3.31246,3.31246,0,0,1,1.4104-.30347,2.99626,2.99626,0,0,1,2.52515,1.26462,8.32875,8.32875,0,0,1-1.35669.15692c-.407.012-.7915.03937-1.17358.02967A17.65792,17.65792,0,0,1,343.00161,116.8122Z" fill="#020202"/><path d="M353.018,116.8122a1.99383,1.99383,0,0,1,.93774-.87057,2.6915,2.6915,0,0,1,1.19385-.27817,2.39036,2.39036,0,0,1,2.13648,1.14874,6.13394,6.13394,0,0,1-1.1565.23773,8.57388,8.57388,0,0,1-.97485.06473A7.77253,7.77253,0,0,1,353.018,116.8122Z" fill="#020202"/><path d="M346.921,123.25758a4.353,4.353,0,0,0,1.96875.9436c.3357.09506.7.1124,1.07715.18024a9.49112,9.49112,0,0,1,1.22193.18264,2.88035,2.88035,0,0,1-1.17359.571,3.12464,3.12464,0,0,1-1.33764.00973,2.51127,2.51127,0,0,1-1.21949-.65634A1.67784,1.67784,0,0,1,346.921,123.25758Z" fill="#020202"/><path d="M351.18887,132.60624a2.39647,2.39647,0,0,0,1.93237-.92749,2.52771,2.52771,0,0,0,.39087-1.97659,2.48922,2.48922,0,0,0-.90332-1.49833,2.5085,2.5085,0,0,0-2.83521.00409,2.61266,2.61266,0,0,0-.51635,3.47083A2.39385,2.39385,0,0,0,351.18887,132.60624Zm0,0a3.25372,3.25372,0,0,1-2.12671-.74573,3.54773,3.54773,0,0,1-1.16406-2.15716,3.443,3.443,0,0,1,.64892-2.63651,3.439,3.439,0,0,1,5.28052.00177,3.4417,3.4417,0,0,1,.64722,2.63388,3.55051,3.55051,0,0,1-1.16065,2.15573A3.24363,3.24363,0,0,1,351.18887,132.60624Z" fill="#020202"/><path d="M336.701,448.472a3.22332,3.22332,0,0,0-.40639-.9194c-4.50027,8.08093-17.5555.98715-26.03319,3.53239-1.21941.36776-1.45166.25163-1.45166.25163s-.03875-.09681-.10656-.28069c-.63864-1.68391-4.14185-10.46161-9.00009-13.423-.00968.00969-.00968.00969-.00968,0a7.03161,7.03161,0,0,0-1.8968-.8032,5.1451,5.1451,0,0,0-1.58728-.14519s-11.84551,2.3323-13.4713,5.81631c0,0,.10656.09676.30006.29032.31921.3.88059.85165,1.558,1.57748,2.60349,2.79687,7.01635,8.24543,6.8519,12.9391a5.25945,5.25945,0,0,1-.02906.55164c-18.11665,1.88716-20.633-4.79049-20.633-4.79049a5.244,5.244,0,0,0-.42576,1.0839c-1.6936,6.26152,11.28413,9.47453,20.27477,6.75509,7.98412-2.41943,23.5169-7.839,23.5169-7.839v4.52917l5.7485,2.4388h13.53912l.39694-5.45824C337.059,451.985,337.0493,449.69143,336.701,448.472Zm-40.73359-4.21947a1.45245,1.45245,0,0,1,0,2.90331A1.45245,1.45245,0,0,1,295.96744,444.25256Zm3.83234,6.61952a1.45245,1.45245,0,0,1,0,2.90332A1.45245,1.45245,0,0,1,299.79978,450.87208ZM292.1351,438.3298a1.30523,1.30523,0,0,1,1.08378.49357,1.58806,1.58806,0,0,1-.06757,1.99361,1.2885,1.2885,0,0,1-.93871.40645.1888.1888,0,0,1-.0775.00969,1.45249,1.45249,0,0,1,0-2.90332Z" fill="#020202"/><path d="M350.229,116.16515a1.45252,1.45252,0,0,0,0-2.90331,1.45252,1.45252,0,0,0,0,2.90331Z" fill="#d13f3f"/><path d="M309.43545,147.48765a14.66836,14.66836,0,0,0-2.373.49829.91864.91864,0,0,0-.21948.11462c-.04492.02445-.00537.02472-.01831.0119a.06136.06136,0,0,0,.01147-.0747c-.00634-.01444.01-.01169.01-.01169a1.97578,1.97578,0,0,0,.43653.179,10.6237,10.6237,0,0,0,1.16308.26093c1.58911.28818,3.21021.49115,4.82617.70419,3.23584.41632,6.4773.83719,9.71338,1.32822l-.05395-.00146a7.64744,7.64744,0,0,0,1.17773-.10361c.35962-.05283.81958-.23322.7334-.35019-.09277-.25952-.50073-.52286-.82519-.72543-.35132-.2056-.7146-.40268-1.0835-.59067a9.9927,9.9927,0,0,1,1.18066.40014,4.80331,4.80331,0,0,1,.57056.28305,1.22391,1.22391,0,0,1,.519.48932.48617.48617,0,0,1-.03418.48859.93946.93946,0,0,1-.30346.27634,2.69843,2.69843,0,0,1-.63159.25616,7.839,7.839,0,0,1-1.26734.24194l-.02417.00065-.03027-.00211c-3.26953-.22412-6.53076-.5603-9.77442-1.06964a48.6111,48.6111,0,0,1-4.843-.981,11.08341,11.08341,0,0,1-1.199-.40167,1.575,1.575,0,0,1-.62817-.40109.43441.43441,0,0,1-.073-.13672.51094.51094,0,0,1,.01318-.22806.50456.50456,0,0,1,.19776-.19876,1.3083,1.3083,0,0,1,.34277-.12567A10.71759,10.71759,0,0,1,309.43545,147.48765Z"/><path d="M429.67468,454.14316v-.00963a5.28911,5.28911,0,0,0-.42576-1.06459s-2.51606,6.67765-20.63272,4.79049a4.55035,4.55035,0,0,1-.02906-.51295v-.00963c-.18406-4.69373,4.229-10.152,6.84221-12.95848.69653-.73551,1.25791-1.29684,1.57735-1.59684.18382-.18388.29038-.28064.29038-.28064-1.62579-3.484-13.47154-5.81631-13.47154-5.81631a4.92862,4.92862,0,0,0-1.46111.12581h-.00992a6.70167,6.70167,0,0,0-2.1.88065c-4.8098,2.99044-8.27449,11.652-8.92283,13.35529-.06781.18388-.10656.29032-.10656.29032s-.232.11613-1.45165-.25163c-8.47746-2.54524-21.53292,4.54854-26.033-3.53239a3.08208,3.08208,0,0,0-.40639.9c-.3485,1.20972-.36788,3.52271,2.86456,6.126v5.45824h13.93582l5.74851-2.4388v-4.52917s15.53278,5.41956,23.51689,7.839C418.39055,463.62737,431.37821,460.41436,429.67468,454.14316Zm-26.05233-6.29052a1.45258,1.45258,0,0,1,0-2.90331A1.45258,1.45258,0,0,1,403.62235,447.85264Zm4.52934-9.17446a1.34356,1.34356,0,0,1,1.38384,1.18072,1.42433,1.42433,0,0,1-1.0937,1.6936h-.00969a1.25125,1.25125,0,0,1-.28045.029,1.31772,1.31772,0,0,1-1.19034-.64839v-.00969a1.56331,1.56331,0,0,1,.32889-1.97423A1.42771,1.42771,0,0,1,408.15169,438.67818ZM399.79,455.169a1.33268,1.33268,0,0,1-1.37416-1.15165,1.599,1.599,0,0,1,.01937-.67739,1.31874,1.31874,0,0,1,1.35479-1.07427,1.456,1.456,0,0,1,1.15159,2.3033,1.16083,1.16083,0,0,1-.53209.47426A1.57331,1.57331,0,0,1,399.79,455.169Z" fill="#020202"/><path d="M314.03579,260.00822l-.00976.00042a.09369.09369,0,0,1-.09742-.0896l.00025-.01068.00049-.00769c.46875-6.01355,1.28613-11.99341,2.28833-17.94211.96337-5.95758,2.2666-11.85513,3.675-17.7276a164.92875,164.92875,0,0,1,5.24488-17.34732,147.16333,147.16333,0,0,1,7.36914-16.55691l.00635-.012a.3338.3338,0,0,1,.032-.04914l9.2019-11.45257c3.08911-3.79874,6.1626-7.61151,9.28711-11.3866,3.13135-3.76855,6.29077-7.52136,9.60889-11.14038a115.69618,115.69618,0,0,1,10.52344-10.37451.9131.9131,0,0,1,.584-.21692l.01318-.00009.00928-.00006-.47656.13156a13.18459,13.18459,0,0,1,8.22-1.4047,13.08592,13.08592,0,0,1,3.99707,1.30179,14.43287,14.43287,0,0,1,1.80078,1.066c.56885.39758,1.08838.85477,1.63281,1.28207a.90227.90227,0,0,1,.34546.7298l-.001.03583q-.16883,6.29622-.40088,12.59116c-.13843,4.19665-.50684,8.37463-.8877,12.55069-.39551,4.17434-.8352,8.34475-1.40429,12.49865-.582,4.15192-1.21094,8.29679-1.97608,12.417l.0044-.05889-.00025.00949-.00073.02716-.00391.03232-1.77295,8.543a.09662.09662,0,0,1-.11425.07507.1.1,0,0,1-.07569-.11157l1.20777-8.62507-.00464.05909-.00025-.00949.00147-.03492.00317-.02438c.51978-4.14679,1.00415-8.29535,1.3855-12.454.37964-4.15832.75684-8.31546,1.02026-12.48141q.20729-3.12347.35987-6.24964c.09521-2.084.23657-4.16678.25879-6.25043q.12816-6.25062.33886-12.49673l.34424.76532c-.48242-.37381-.94165-.78452-1.439-1.13321a14.50818,14.50818,0,0,0-1.55079-.93817,11.076,11.076,0,0,0-3.38354-1.163,10.77942,10.77942,0,0,0-3.57983-.02753,10.96176,10.96176,0,0,0-3.3711,1.07467l-.05615.02955a.90146.90146,0,0,1-.4209.10211l-.00928-.00006.59668-.21686a133.67185,133.67185,0,0,0-10.58471,10.013c-3.3667,3.53122-6.71729,7.09-9.96924,10.74136q-4.89149,5.465-9.56226,11.12778-4.69152,5.64066-9.10986,11.50156l.03833-.06076a143.02845,143.02845,0,0,0-6.61182,16.7196q-2.73888,8.56741-5.0603,17.26093c-1.52637,5.80465-2.80786,11.67123-4.07519,17.54535-1.21021,5.88534-2.33106,11.79577-3.30249,17.73641l-.09668-.10778.00976.00042a.09686.09686,0,0,1,0,.19355Z" fill="#020202"/><path d="M341.11245,187.23829a22.28506,22.28506,0,0,1,2.37671,1.76526l2.12012,1.81707c.687.60636,1.376,1.165,2.08813,1.68006a6.30356,6.30356,0,0,0,2.47339,1.183,3.62283,3.62283,0,0,1-3.137.18668,7.95584,7.95584,0,0,1-2.689-1.58518,11.34848,11.34848,0,0,1-1.99072-2.2756A8.78,8.78,0,0,1,341.11245,187.23829Z" fill="#020202"/><path d="M348.10736,106.30857c-2.08283.55355-5.74133,13.95449-5.74133,13.95449S339.25005,105.51034,348.10736,106.30857Z" fill="#020202"/><path d="M318.26823,258.32422a1.45252,1.45252,0,0,0,0-2.90331,1.45252,1.45252,0,0,0,0,2.90331Z" fill="#020202"/><path d="M325.58459,262.1566a1.45253,1.45253,0,0,0,0-2.90332,1.45253,1.45253,0,0,0,0,2.90332Z" fill="#020202"/><path d="M333.94613,265.29218a1.45253,1.45253,0,0,0,0-2.90332,1.45253,1.45253,0,0,0,0,2.90332Z" fill="#020202"/><path d="M343.35287,265.29218a1.45253,1.45253,0,0,0,0-2.90332,1.45253,1.45253,0,0,0,0,2.90332Z" fill="#020202"/><path d="M352.06282,261.1114a1.45252,1.45252,0,0,0,0-2.90331,1.45252,1.45252,0,0,0,0,2.90331Z" fill="#020202"/><path d="M359.37917,253.09825a1.45252,1.45252,0,0,0,0-2.90331,1.45252,1.45252,0,0,0,0,2.90331Z" fill="#020202"/><path d="M365.30193,243.34312a1.45253,1.45253,0,0,0,0-2.90332,1.45253,1.45253,0,0,0,0,2.90332Z" fill="#020202"/><path d="M370.1795,233.23958a1.45252,1.45252,0,0,0,0-2.90331,1.45252,1.45252,0,0,0,0,2.90331Z" fill="#020202"/><path d="M374.36027,221.74245a1.45252,1.45252,0,0,0,0-2.90331,1.45252,1.45252,0,0,0,0,2.90331Z" fill="#020202"/><path d="M376.79906,211.63892a1.45253,1.45253,0,0,0,0-2.90332,1.45253,1.45253,0,0,0,0,2.90332Z" fill="#020202"/><path d="M378.88945,201.53538a1.45252,1.45252,0,0,0,0-2.90331,1.45252,1.45252,0,0,0,0,2.90331Z" fill="#020202"/><path d="M380.63144,190.73505a1.45252,1.45252,0,0,0,0-2.90331,1.45252,1.45252,0,0,0,0,2.90331Z" fill="#020202"/><path d="M381.67663,180.28312a1.45253,1.45253,0,0,0,0-2.90332,1.45253,1.45253,0,0,0,0,2.90332Z" fill="#020202"/><path d="M382.37342,170.528a1.45253,1.45253,0,0,0,0-2.90332,1.45253,1.45253,0,0,0,0,2.90332Z" fill="#020202"/><path d="M382.37342,161.12124a1.45253,1.45253,0,0,0,0-2.90332,1.45253,1.45253,0,0,0,0,2.90332Z" fill="#020202"/><path d="M383.07022,152.0629a1.45253,1.45253,0,0,0,0-2.90332,1.45253,1.45253,0,0,0,0,2.90332Z" fill="#020202"/><path d="M395.26414,191.08345a1.45253,1.45253,0,0,0,0-2.90332,1.45253,1.45253,0,0,0,0,2.90332Z" fill="#020202"/><path d="M400.49011,190.03826a1.45253,1.45253,0,0,0,0-2.90332,1.45253,1.45253,0,0,0,0,2.90332Z" fill="#020202"/><path d="M324.10929,188.47827a1.45253,1.45253,0,0,0,0-2.90332,1.45253,1.45253,0,0,0,0,2.90332Z" fill="#020202"/><path d="M399.44492,355.5272a1.45252,1.45252,0,0,0,0-2.90331,1.45252,1.45252,0,0,0,0,2.90331Z"/><path d="M405.01928,357.61759a1.45253,1.45253,0,0,0,0-2.90332,1.45253,1.45253,0,0,0,0,2.90332Z"/><path d="M410.59364,355.8756a1.45253,1.45253,0,0,0,0-2.90332,1.45253,1.45253,0,0,0,0,2.90332Z"/><path d="M415.47121,352.74a1.45253,1.45253,0,0,0,0-2.90332,1.45253,1.45253,0,0,0,0,2.90332Z"/><path d="M320.03909,182.90522a1.58984,1.58984,0,0,0-.34378.0375l-.37083,2.68128a1.413,1.413,0,0,0,.71461.18453A1.45253,1.45253,0,0,0,320.03909,182.90522Z" fill="#020202"/></svg>