<svg id="Layer_1" data-name="Layer 1" xmlns="http://www.w3.org/2000/svg" viewBox="0 0 700 550"><title>thinking</title><path d="M408.4044,162.31269c-4.15178-.16456-21.28129,4.52911-21.28129,4.52911s4.79042-2.43881,4.96479-30.31056c.17413-27.87175,10.53893-22.47174,10.53893-22.47174a3.761,3.761,0,0,0-.48389,1.3647c-2.39036,1.08379-10.03567,6.16459-7.70342,26.333,0,0,.3485,13.76169,9.58108,16.02636a9.289,9.289,0,0,1,3.74515,1.40322C408.16245,161.15141,408.4044,162.31269,408.4044,162.31269Z" fill="#020202"/><path d="M448.95417,163.83216a25.05171,25.05171,0,0,0-3.53251.51283l-20.75865,9.0777c-24.19429,14.54564-50.37256,40.42384-50.37256,40.42384s4.03577,14.78758-1.0741,20.46828c0,0,24.17492,7.84873,27.01042,10.02621,41.98206,3.13557,61.86958-76.45395,61.86958-76.45395C456.93829,162.65139,448.95417,163.83216,448.95417,163.83216Zm-64.56969,59.42108c-.45507.05813-.91958.09687-1.38409.1355a11.1259,11.1259,0,0,1-2.76769-.25163,7.99858,7.99858,0,0,1-2.61294-1.06452,4.47768,4.47768,0,0,1-1.83891-2.09042,7.53535,7.53535,0,0,0,2.19686,1.4324,12.19051,12.19051,0,0,0,2.46787.77415c.84184.21288,1.713.30963,2.58387.44513.44538.02907.89051.09676,1.33565.14519.44514.03875.9.0775,1.36447.15476C385.28444,223.06942,384.82961,223.15649,384.38448,223.25324Zm33.01055,5.6905c-.45482.0677-.90965.10644-1.37416.13551a11.25378,11.25378,0,0,1-2.77762-.25163,7.80745,7.80745,0,0,1-2.60324-1.055,4.44777,4.44777,0,0,1-1.83868-2.1,7.28549,7.28549,0,0,0,2.19686,1.43228,12.11582,12.11582,0,0,0,2.45818.784,25.00066,25.00066,0,0,0,2.59356.43545c.44514.03874.88059.09687,1.33542.14519a13.2112,13.2112,0,0,1,1.355.16456C418.30468,228.75981,417.84986,228.85668,417.395,228.94374Z" fill="#020202"/><path d="M326.9877,399.477c.63012,3.76758,1.06225,7.564,1.44189,11.36389.3479,3.80371.68091,7.6073.67261,11.47278.01245.96411-.012,1.91809-.05176,2.88355-.02857.49-.02881.94787-.08106,1.46472a10.101,10.101,0,0,1-.27148,1.54455,9.31258,9.31258,0,0,1-3.50171,5.08069,9.47159,9.47159,0,0,1-2.80932,1.386,9.95312,9.95312,0,0,1-3.05445.36865c-1.906.01526-3.813-.032-5.71948-.04492-3.813-.02661-7.6272-.12439-11.43921-.103q-5.718.02893-11.43262.23291c-7.61865.29993-15.23486.74085-22.855.98255a.85955.85955,0,0,1-.72363-.35462l-.01-.01391a9.16664,9.16664,0,0,1-1.66309-3.65223,6.66126,6.66126,0,0,1,.573-4.12109,8.82363,8.82363,0,0,1,6.36035-4.64124,138.08344,138.08344,0,0,0,13.75245-4.34008q3.41674-1.2173,6.80419-2.53333l3.38257-1.32776a12.54578,12.54578,0,0,0,3.07959-1.58423,12.98534,12.98534,0,0,0,4.21973-5.47973,20.78649,20.78649,0,0,0,1.49731-6.99658.097.097,0,0,1,.10132-.09229.09858.09858,0,0,1,.09229.09241,20.00477,20.00477,0,0,1-.94727,7.28174,13.68015,13.68015,0,0,1-4.21338,6.16992,14.23261,14.23261,0,0,1-3.26855,1.93677l-3.34107,1.47021q-3.35082,1.45056-6.74218,2.81812a101.75816,101.75816,0,0,1-13.95484,4.59191,6.9408,6.9408,0,0,0-5.09961,3.48438,4.76191,4.76191,0,0,0-.48193,2.95764,7.39085,7.39085,0,0,0,1.28174,2.94226l-.7334-.36841c7.62378-.05627,15.25122.08667,22.876.08851q5.71837-.01191,11.43286-.21412c3.80981-.12756,7.61743-.37439,11.42627-.55,1.90454-.0874,3.80835-.2091,5.71338-.26831a8.09971,8.09971,0,0,0,4.87622-1.525,7.7494,7.7494,0,0,0,2.91943-4.11694,8.46737,8.46737,0,0,0,.24219-1.264c.05957-.4292.08032-.9259.12256-1.386.07055-.93677.127-1.88782.146-2.82959.156-3.75952-.05517-7.57214-.18579-11.37329-.15332-3.8042-.35229-7.60754-.62524-11.40991a.09687.09687,0,0,1,.19214-.02344Z" fill="#020202"/><path d="M326.04171,431.28628l-33.54093.86263c.04141-1.63513.03012-10.3013-4.73159-12.76846-5.26515-2.72794-7.96338,2.879-7.96338,2.879s7.114,4.3105,3.18973,10.1339l-16.2465.41785a2.10834,2.10834,0,1,0,.11967,4.215l59.2831-1.73554a2.00293,2.00293,0,0,0-.1101-4.00434Z" fill="#020202"/><path d="M264.8356,358.23556c-.36036,1.64123-.75171,3.26989-1.24976,4.89245-.50293,1.6449-1.23608,3.15247-1.80908,4.70935-.61377,1.57434-1.24951,3.13172-1.98169,4.66016a10.90536,10.90536,0,0,1-1.33911,2.30518,9.22908,9.22908,0,0,1-7.15943,3.5177,9.98388,9.98388,0,0,1-2.72949-.37378c-.91821-.28638-1.62353-.61817-2.41772-.92749-3.11206-1.23975-6.18433-2.57911-9.25342-3.9264l-9.21533-4.02111c-3.07886-1.32215-6.19117-2.56165-9.30762-3.79078-6.24-2.44018-12.56787-4.66125-18.83228-7.04016a.75519.75519,0,0,1-.46679-.52954l-.00635-.02722a8.926,8.926,0,0,1-.09009-4.17322,6.55627,6.55627,0,0,1,2.374-3.60132,8.02918,8.02918,0,0,1,3.9275-1.64526,9.55465,9.55465,0,0,1,2.11547-.056c.34619.02527.71.08045,1.03174.13318l.92432.144c4.95825.69763,10.03125.98,15.09228,1.21851,2.53394.09485,5.07056.21081,7.60987.2727,1.26416.02246,2.56933.09888,3.73144.01294a12.99766,12.99766,0,0,0,3.50293-.79052,12.64778,12.64778,0,0,0,5.75049-4.34388,16.95926,16.95926,0,0,0,1.843-3.2489l1.6643-3.44262a.09691.09691,0,0,1,.17823.07556l-1.31665,3.59a16.86384,16.86384,0,0,1-1.62647,3.536,13.79815,13.79815,0,0,1-5.96069,5.125,13.32636,13.32636,0,0,1-3.87695,1.06079c-1.37378.15125-2.62085.11609-3.90113.147-2.55273.02746-5.10791.05639-7.66333-.01856a108.96033,108.96033,0,0,1-15.343-1.23779l-.959-.17151c-.30518-.05652-.57031-.1029-.85864-.131a7.6466,7.6466,0,0,0-1.69507.006,6.16828,6.16828,0,0,0-3.06226,1.19727,4.88929,4.88929,0,0,0-1.82446,2.60864,7.30272,7.30272,0,0,0-.03857,3.39209l-.47315-.55652c6.17261,2.60852,12.28174,5.375,18.47876,7.92224,3.102,1.26465,6.2085,2.5188,9.3479,3.69043l9.44019,3.46008c3.14941,1.14637,6.2959,2.30079,9.4021,3.55481.76538.30066,1.595.64576,2.27173.874a8.28058,8.28058,0,0,0,2.22583.34057,7.89722,7.89722,0,0,0,4.29418-1.26672,7.608,7.608,0,0,0,1.70826-1.50086,10.619,10.619,0,0,0,1.25439-1.98315c.80127-1.45166,1.48389-2.9762,2.20435-4.47412.68725-1.54736,1.53051-3.00928,2.16357-4.51965.63233-1.5315,1.15918-3.12745,1.73462-4.702a.097.097,0,0,1,.186.05347Z" fill="#020202"/><path d="M254.93057,376.58663l-31.21774-12.296c.67627-1.48929,4.04807-9.47263.62684-13.60251-3.783-4.56647-8.45547-.45724-8.45547-.45724s4.86756,6.74507-1.01822,10.57513l-15.1212-5.95589a2.10834,2.10834,0,1,0-1.53482,3.92743l55.25918,21.53881a2.00293,2.00293,0,0,0,1.46143-3.72976Z" fill="#020202"/><path d="M408.027,163.00948a3.57474,3.57474,0,0,0,.6001-1.92273,2.02967,2.02967,0,0,0-.92773-1.58093,8.40684,8.40684,0,0,0-3.74952-1.20422l-.04492-.00818-.009-.0022a11.0957,11.0957,0,0,1-4.707-2.33643,14.50382,14.50382,0,0,1-3.16846-4.186,21.61245,21.61245,0,0,1-1.77954-4.86511,28.49162,28.49162,0,0,1-.76367-5.12195l.0061.08594c-.12329-1.25367-.22192-2.50989-.31934-3.76575-.02124-1.26379-.10571-2.52332-.07275-3.78943a39.34707,39.34707,0,0,1,.87451-7.55725,21.41174,21.41174,0,0,1,2.95435-7.04211,14.76337,14.76337,0,0,1,2.58691-2.81543,8.3157,8.3157,0,0,1,3.33277-1.73487,11.20444,11.20444,0,0,0-5.095,5.06079,22.61265,22.61265,0,0,0-2.2771,6.83985,43.45614,43.45614,0,0,0-.52393,7.26269c-.01709,1.2179.08179,2.44129.116,3.66089l.33618,3.65955.00146.016.0044.07031a26.78135,26.78135,0,0,0,.65332,4.74561,21.78112,21.78112,0,0,0,1.49072,4.54309,14.34535,14.34535,0,0,0,2.61572,3.88171,10.61845,10.61845,0,0,0,3.9834,2.37244l-.05371-.01026a10.29045,10.29045,0,0,1,2.09741.64356,6.455,6.455,0,0,1,1.88208,1.15613,2.48264,2.48264,0,0,1,.88306,2.0299A3.62365,3.62365,0,0,1,408.027,163.00948Z" fill="#020202"/><path d="M407.03188,158.75167c1.21753-.60437,2.37061-1.10681,3.481-1.70923.56421-.28174,1.094-.61474,1.63477-.94531.54565-.33167,1.04516-.71985,1.62353-1.099a4.96867,4.96867,0,0,1-1.14966,1.687,7.01447,7.01447,0,0,1-1.65429,1.21118,8.07335,8.07335,0,0,1-1.90869.71326A5.78485,5.78485,0,0,1,407.03188,158.75167Z" fill="#020202"/><path d="M375.067,225.46883q-4.57983-1.14258-9.115-2.42553-4.53589-1.27954-9.04248-2.65149a.79226.79226,0,0,1-.47119-1.12586l.0144-.02649,4.88916-9.16943,5.05274-9.08716c1.676-3.03406,3.33081-6.084,4.77539-9.23218a64.78709,64.78709,0,0,0,3.74927-9.67053,38.055,38.055,0,0,1,4.67334-9.45361,20.46365,20.46365,0,0,1,8.11792-7.05017,60.7857,60.7857,0,0,1,10.22-2.71985c3.43676-.65357,6.89648-1.11279,10.35766-1.50708a.97918.97918,0,0,1,.989,1.40661,46.49848,46.49848,0,0,0-2.41553,5.96106,58.81182,58.81182,0,0,0-1.69092,6.276,48.0667,48.0667,0,0,0-.98706,6.44507,53.90912,53.90912,0,0,0-.23828,6.55445.097.097,0,0,1-.09229.10132.10091.10091,0,0,1-.10034-.08387,44.6211,44.6211,0,0,1-.44433-6.61706,49.21211,49.21211,0,0,1,.53613-6.64,48.22584,48.22584,0,0,1,1.41479-6.52868,44.44159,44.44159,0,0,1,2.27784-6.34681l.989,1.4065q-5.13427.698-10.21948,1.59961a65.75945,65.75945,0,0,0-9.92408,2.41089c-.187.075-.38354.1466-.55859.22546a3.1052,3.1052,0,0,0-.50366.261l-1.07129.62707a11.40206,11.40206,0,0,0-1.01465.71131,10.38589,10.38589,0,0,0-.98266.76123,23.82942,23.82942,0,0,0-3.4751,3.62744,36.26636,36.26636,0,0,0-5.06226,8.86377c-.61987,1.57068-1.17261,3.28332-1.89331,4.85779-.656,1.61413-1.40185,3.18383-2.1062,4.77209l-4.32812,9.48315c-1.468,3.14966-2.93506,6.30262-4.52979,9.38843-1.60376,3.08216-3.28247,6.11975-5.00146,9.14343l-.45679-1.15222q4.46265,1.50952,8.8999,3.09717,4.43445,1.59687,8.82739,3.32288a.097.097,0,0,1-.05908.18432Z" fill="#020202"/><path d="M462.13516,167.80123a37.0383,37.0383,0,0,1,6.57129,2.84326l-.15284-.0603a9.68007,9.68007,0,0,1,3.967,2.24756,18.37857,18.37857,0,0,1,2.94654,3.36242,18.68642,18.68642,0,0,1,1.16968,1.89124,16.15093,16.15093,0,0,1,1.01342,1.97009c.29541.6742.66114,1.32581.898,2.021l.74243,2.076a59.65166,59.65166,0,0,1,2.843,17.20666c.18921,2.89734.08472,5.79541.09107,8.68628-.01465,2.8888-.074,5.769-.04468,8.65406.01977,5.7677.21313,11.5354.37622,17.30322a.65834.65834,0,0,1-.63941.67651l-.06787-.00158-.04272-.0033c-2.2439-.17151-4.48169-.39844-6.72266-.59485l-6.717-.64563c-4.4751-.45825-8.95654-.85681-13.426-1.36584l-.00562-.00074a1.03044,1.03044,0,0,1-.91162-.95922l-1.22876-19.63123-.6311-9.81494c-.24683-3.26843-.44312-6.54126-.82422-9.798a.09676.09676,0,0,1,.08325-.10876.09887.09887,0,0,1,.10718.07422c.36963,1.60412.66455,3.22522.93481,4.84778.27783,1.62195.51538,3.24914.73218,4.87854.43335,3.2583.85474,6.51892,1.17895,9.78759.68848,6.53467,1.29493,13.07276,1.709,19.63123l-.91724-.95972c4.47266.478,8.93335,1.06665,13.40039,1.59546l6.69629.83521c2.23.297,4.46338.5636,6.69043.88574l-.74951.67151c.16284-5.76782.3562-11.53552.376-17.30322a145.46737,145.46737,0,0,0-.70069-17.24634,90.30483,90.30483,0,0,0-3.18335-16.77832,34.21352,34.21352,0,0,0-3.41455-7.69507,17.09666,17.09666,0,0,0-2.575-3.26453,9.01874,9.01874,0,0,0-3.32641-2.24609l-.10083-.03418a.21011.21011,0,0,1-.05225-.02637,44.46671,44.46671,0,0,0-6.16455-3.42773.097.097,0,0,1,.07178-.17969Z" fill="#020202"/><path d="M385.72524,180.7795a59.01425,59.01425,0,0,1-1.61987,6.85462,30.49855,30.49855,0,0,1-1.24219,3.34692c-.52563,1.10962-1.09008,2.11047-1.61694,3.15588-1.0625,2.07984-2.18457,4.12427-3.27832,6.1847l-1.68188,3.06665a10.72113,10.72113,0,0,0-1.30591,2.95312,17.21241,17.21241,0,0,0,.04883,6.55921,27.06312,27.06312,0,0,0,.77465,3.3009,17.71326,17.71326,0,0,1,.71973,3.57312,18.13916,18.13916,0,0,1-.01514,3.62c-.10473,1.17188-.22509,2.3429-.38867,3.51038a35.20464,35.20464,0,0,1-.68628,3.47656,12.26078,12.26078,0,0,1-.5542,1.69336c-.25317.51453-.54931,1.14417-1.14135,1.31262a2.05435,2.05435,0,0,0,.866-1.41113,12.48607,12.48607,0,0,0,.32617-1.69348,34.54426,34.54426,0,0,0,.24488-3.46375q.06994-1.7373.06591-3.47985a18.60561,18.60561,0,0,0-.21533-3.37183,20.21707,20.21707,0,0,0-.83618-3.24695,28.863,28.863,0,0,1-.96142-3.4812,18.46,18.46,0,0,1-.12623-7.358,12.58646,12.58646,0,0,1,1.53785-3.41907l1.741-3.04565c1.18824-2.01453,2.34815-4.04505,3.56763-6.04l1.78857-2.96509a31.96163,31.96163,0,0,0,1.4834-3.102C384.164,185.18893,384.92373,182.981,385.72524,180.7795Z" fill="#020202"/><path d="M454.20376,218.39254c-.35645,1.5498-.7898,3.02307-1.23877,4.48535l-1.34937,4.35144-1.34008,4.333c-.43677,1.45581-.82544,2.91748-1.31617,4.43823a15.45055,15.45055,0,0,1-.16528-4.73242,23.9744,23.9744,0,0,1,.97559-4.61878,27.18183,27.18183,0,0,1,1.80322-4.34289A18.66965,18.66965,0,0,1,454.20376,218.39254Z" fill="#020202"/><path d="M480.92764,235.87508a30.88287,30.88287,0,0,1-.59839,10.65613,12.90632,12.90632,0,0,1-2.34424,4.934,7.82976,7.82976,0,0,1-2.14551,1.83521,20.46891,20.46891,0,0,1-2.5144,1.08606c-3.32349,1.26428-6.6521,2.47778-9.99024,3.67395L453.29312,261.557c-6.69581,2.32593-13.3982,4.63012-20.13916,6.81885-6.72,2.25183-13.4983,4.32751-20.25367,6.4729l.37525-.46607a100.204,100.204,0,0,1-1.759,10.10816,25.27136,25.27136,0,0,1-.69287,2.49523,8.83673,8.83673,0,0,1-.50439,1.23c-.23145.43762-.47778.74206-.63306,1.08667a2.56433,2.56433,0,0,0-.25195,1.08605l.01758,1.27222.05224,2.54895c.08106,3.39588.22437,6.80176.62818,10.15955a17.63766,17.63766,0,0,0,.43847,2.459,4.207,4.207,0,0,1,.20093,2.698,2.77619,2.77619,0,0,1-.77783,1.2124,2.70383,2.70383,0,0,1-1.30982.61963,6.16007,6.16007,0,0,1-2.68945-.266l.4773-.26575a5.53691,5.53691,0,0,1-.83423,1.74073,3.54656,3.54656,0,0,1-1.55152,1.25109,3.39648,3.39648,0,0,1-2.00879.12964,7.13566,7.13566,0,0,1-.93481-.29174l-.85327-.4292.69458-.26819a5.17616,5.17616,0,0,1-1.4314,2.24389,3.75123,3.75123,0,0,1-2.56006.95264,5.98828,5.98828,0,0,1-2.55639-.68762c-.3667-.21472-.75513-.40857-1.104-.64527l-1.02465-.73693.448.134a5.44133,5.44133,0,0,1-4.23413-1.77258,9.67709,9.67709,0,0,1-2.082-3.90845l-2.70581-7.82434a.81429.81429,0,0,1,1.46338-.69287,3.98866,3.98866,0,0,1,.62207,1.51758,1.83387,1.83387,0,0,1-.18262,1.15039,1.89178,1.89178,0,0,1-.86718.7727,3.46954,3.46954,0,0,1-1.69629.26477,4.1641,4.1641,0,0,1-1.57373-.421,2.92753,2.92753,0,0,1-1.30176-1.22632,4.03925,4.03925,0,0,1-.46558-1.59253,9.92706,9.92706,0,0,1,.249-2.85485,37.54025,37.54025,0,0,1,1.56762-5.12916,26.499,26.499,0,0,1,2.51-4.77673l-.1626.53162a40.68259,40.68259,0,0,1,2.27759-11.90515,37.12615,37.12615,0,0,1,5.8772-10.59021,33.03943,33.03943,0,0,1,4.24292-4.36951,24.86544,24.86544,0,0,1,5.06787-3.4281c3.59033-1.79138,7.13306-3.4115,10.70947-5.11011,7.13843-3.3573,14.25977-6.74939,21.427-10.04614,7.147-3.33875,14.33227-6.59729,21.51684-9.85693a.09683.09683,0,0,1,.08374.17456c-7.01514,3.61267-14.0293,7.22644-21.082,10.75976-7.03223,3.57544-14.11035,7.05567-21.17163,10.57068l-10.5708,5.236a22.89562,22.89562,0,0,0-4.69214,3.20374,31.03289,31.03289,0,0,0-3.96582,4.12072,35.35116,35.35116,0,0,0-5.50952,10.02454,38.90076,38.90076,0,0,0-2.2937,11.22058l-.002.04541a.94468.94468,0,0,1-.16064.48645,24.629,24.629,0,0,0-2.38135,4.408,36.01949,36.01949,0,0,0-1.532,4.81372c-.36768,1.57263-.45679,3.34314.55,3.74451a2.395,2.395,0,0,0,1.78.17261c.0935-.04.12109-.079.10986-.05445-.01343.0243.01758-.00207.00073-.11609a2.47059,2.47059,0,0,0-.36255-.87561l1.46363-.69275,2.56274,7.92273a8.502,8.502,0,0,0,1.666,3.41224,4.43981,4.43981,0,0,0,1.43383,1.08837,3.96044,3.96044,0,0,0,1.6897.3877l.03125-.00085a.65484.65484,0,0,1,.417.13513l.91871.70385c.31079.22535.644.4.96484.60523a4.91986,4.91986,0,0,0,2.05127.63342,2.68143,2.68143,0,0,0,1.87646-.63928,4.24732,4.24732,0,0,0,1.1897-1.757l.00317-.008a.49069.49069,0,0,1,.63184-.28736l.06006.02722.73535.395a6.44313,6.44313,0,0,0,.76416.26075,2.52288,2.52288,0,0,0,1.50586-.04749,3.64792,3.64792,0,0,0,1.96045-2.38867l.00781-.02381a.37315.37315,0,0,1,.46973-.24206,5.1543,5.1543,0,0,0,2.33935.28784,1.93861,1.93861,0,0,0,1.564-1.35156,3.57393,3.57393,0,0,0-.18652-2.297,18.13963,18.13963,0,0,1-.43482-2.56518c-.36255-3.40711-.47974-6.81067-.635-10.21521l-.08545-2.554-.03442-1.27978a3.26322,3.26322,0,0,1,.29834-1.38526c.19409-.43432.47827-.8053.634-1.12646a8.16335,8.16335,0,0,0,.4458-1.13465,24.54293,24.54293,0,0,0,.64014-2.42993,98.51548,98.51548,0,0,0,1.4126-10.05395.54634.54634,0,0,1,.36377-.46241l.01171-.0039c6.69336-2.32678,13.35791-4.741,20.07666-6.99158,6.697-2.31531,13.428-4.52893,20.15479-6.754l20.14673-6.73718a19.99722,19.99722,0,0,0,2.39136-.93994,6.80908,6.80908,0,0,0,1.91845-1.54456,12.77688,12.77688,0,0,0,2.3628-4.50891,32.31277,32.31277,0,0,0,1.13232-10.42981l-.00024-.00537a.09673.09673,0,0,1,.19287-.01343Z" fill="#020202"/><path d="M358.25625,219.97823c-1.66821,2.72986-3.27441,5.488-4.65454,8.35144a44.15637,44.15637,0,0,0-3.40479,8.77735c-.71093,2.947-.88427,6.31311,1.58252,7.87231a47.95994,47.95994,0,0,0,8.20337,4.47461c2.87354,1.338,5.80933,2.56812,8.75391,3.77844,2.937,1.23218,5.90918,2.385,8.86987,3.57386l17.833,7.02807q-9.27868-2.46771-18.35669-5.61133c-6.05371-2.08288-12.04492-4.35559-17.90918-7.012a47.29488,47.29488,0,0,1-8.52881-4.79907,10.99613,10.99613,0,0,1-.98266-.89075,6.07028,6.07028,0,0,1-.80982-1.16662,6.49549,6.49549,0,0,1-.74145-2.61487,13.54647,13.54647,0,0,1,.63134-5.017,39.81544,39.81544,0,0,1,4.02979-8.84241A70.85727,70.85727,0,0,1,358.25625,219.97823Z" fill="#020202"/><path d="M359.76943,238.0909a6.87691,6.87691,0,0,1,2.67774-2.863,11.38409,11.38409,0,0,1,3.7185-1.48719,22.08984,22.08984,0,0,1,7.97974-.01855,33.51891,33.51891,0,0,1,3.88159.88074c.63574.18457,1.27832.35351,1.90943.552l1.86645.66345c2.49707.89246,4.86426,1.88245,7.30249,2.81885,4.82568,1.94153,9.64185,3.90564,14.41773,5.975q7.17882,3.06555,14.22534,6.48316-7.4546-2.36408-14.78076-5.07862c-4.89307-1.78466-9.74537-3.67443-14.58863-5.58679-2.40625-.964-4.84009-1.98681-7.22339-2.90259l-1.78808-.70739c-.60254-.21277-1.21387-.39539-1.8208-.59522-1.21-.42615-2.44873-.70263-3.68384-1.02466a23.31778,23.31778,0,0,0-7.53442-.53015A9.01729,9.01729,0,0,0,359.76943,238.0909Z" fill="#020202"/><path d="M436.734,241.90621a33.37412,33.37412,0,0,1-5.0459-.25207c-1.6604-.19117-3.30761-.44727-4.93969-.77869-1.6333-.32483-3.25025-.73023-4.85474-1.19763a33.00083,33.00083,0,0,1-4.74731-1.72974,33.00258,33.00258,0,0,1,5.04638.24927c1.66016.19226,3.30762.44665,4.939.78149,1.63257.32825,3.25.73181,4.85425,1.20044A33.37124,33.37124,0,0,1,436.734,241.90621Z" fill="#020202"/><path d="M384.02358,300.41317l1.26612-9.19153-.30176,9.27344a.48451.48451,0,0,1-.96851-.0315A.49222.49222,0,0,1,384.02358,300.41317Z" fill="#020202"/><path d="M400.09365,313.0273l-2.39136-5.46289-.00781-.01745-.00439-.01209c-.3335-1.07385-.74756-2.11694-1.00513-3.247a12.90254,12.90254,0,0,1-.30713-3.40625c.04785-1.145.28-2.2478.42993-3.36145l.50171-3.33728-.3352,3.358c-.095,1.12048-.271,2.23986-.261,3.3468a12.49749,12.49749,0,0,0,.45972,3.27722c.29419,1.0531.76221,2.08875,1.14917,3.14417l-.012-.02918,2.66015,5.33728a.484.484,0,1,1-.86645.43176Z" fill="#020202"/><path d="M405.52114,311.14913l-2.39135-5.46289-.00782-.01746-.00439-.012c-.3335-1.074-.74756-2.11706-1.00513-3.24707a12.90172,12.90172,0,0,1-.30713-3.40613c.04785-1.14514.28-2.24792.42993-3.36157l.50171-3.33716-.3352,3.358c-.095,1.12049-.271,2.23975-.261,3.34668a12.49615,12.49615,0,0,0,.45972,3.27723c.29419,1.0531.76221,2.08886,1.14917,3.14416l-.012-.02917,2.66015,5.33728a.48406.48406,0,1,1-.86645.43188Z" fill="#020202"/><path d="M392.9103,314.04171l-2.11548-5.57568-.00683-.0177-.00391-.01233c-.27929-1.08924-.64062-2.15174-.84155-3.29322a12.91685,12.91685,0,0,1-.13648-3.41723c.10523-1.14136.39234-2.23108.59766-3.33582l.66773-3.308-.50245,3.337c-.15087,1.11438-.38256,2.22351-.428,3.32947a12.47922,12.47922,0,0,0,.29541,3.29614c.241,1.06653.65673,2.12439.99047,3.19776l-.01049-.02979,2.38989,5.46363a.484.484,0,1,1-.887.38794Z" fill="#020202"/><path d="M386.50894,288.7828c.84619.16125,1.51953.39026,2.19921.53943a8.61943,8.61943,0,0,0,1.01.16284,9.78585,9.78585,0,0,0,1.14576-.00549,1.85556,1.85556,0,0,1-1.05152.75476,2.78342,2.78342,0,0,1-1.31616.03161,3.31974,3.31974,0,0,1-1.158-.532A2.5175,2.5175,0,0,1,386.50894,288.7828Z" fill="#020202"/><path d="M393.73818,289.88558c.89185.18738,1.61768.42444,2.35035.55444a6.70767,6.70767,0,0,0,1.09008.10816,9.19126,9.19126,0,0,0,1.21949-.11047,2.01632,2.01632,0,0,1-1.07789.85229,2.86474,2.86474,0,0,1-1.404.10181,3.47448,3.47448,0,0,1-1.261-.52344A2.69628,2.69628,0,0,1,393.73818,289.88558Z" fill="#020202"/><path d="M401.22891,289.88558c.85449.07251,1.53955.20435,2.219.2323a5.84533,5.84533,0,0,0,1.00684-.02466c.35156-.02429.69018-.12976,1.12915-.20764a1.89386,1.89386,0,0,1-.89307.925,2.54275,2.54275,0,0,1-1.29126.27319,3.03734,3.03734,0,0,1-1.2356-.35022A2.36009,2.36009,0,0,1,401.22891,289.88558Z" fill="#020202"/><path d="M349.5082,236.68453a60.49224,60.49224,0,0,0-18.3518-6.30481,41.08769,41.08769,0,0,0-19.09278,1.488,53.39965,53.39965,0,0,0-16.79541,9.31592,92.83237,92.83237,0,0,0-7.24072,6.4508c-2.22437,2.36487-4.54395,4.63391-6.64185,7.12171-1.06738,1.22534-2.155,2.43213-3.20581,3.67224l-3.10449,3.76391q-1.57836,1.86018-3.06909,3.79456l-3.02051,3.83643q-5.91284,7.77594-11.58447,15.74243c-3.79077,5.30346-7.44678,10.70471-11.053,16.13928-3.59839,5.43848-7.12768,10.93115-10.47607,16.52356l.00317-.35523c3.08423,5.36243,6.405,10.61182,9.91235,15.72,3.53077,5.09424,7.1958,10.09815,11.10181,14.90809a171.00289,171.00289,0,0,0,12.467,13.74865,99.5768,99.5768,0,0,0,14.312,11.668.69751.69751,0,0,1,.30884.58814l-.24756,13.59-.03759-.26074a15.83663,15.83663,0,0,0,4.51538,5.91321,23.733,23.733,0,0,0,6.562,3.89538l1.791.71192c.60547.21472,1.2439.34167,1.864.51745l1.87207.49439a16.706,16.706,0,0,0,1.91357.3258l1.92481.28016a12.96645,12.96645,0,0,0,1.93432.20483l3.90235.15613a14.20435,14.20435,0,0,0,1.95434-.03577l1.95654-.1073,1.9563-.10657a14.57354,14.57354,0,0,0,1.95166-.18164l3.89161-.5459,1.94531-.27221c.64868-.09021,1.28491-.266,1.928-.39478l3.84814-.83825c1.28125-.28492,2.572-.525,3.82764-.92725l7.59057-2.1554-.71.93348q.60828-16.7082.88721-33.43531c.07544-5.57238.18457-11.14563.15015-16.71264-.00879-2.78308-.0376-5.56763-.13843-8.34034-.04468-1.38793-.09155-2.77551-.20361-4.14843-.06055-1.392-.24976-2.7273-.43116-4.0669l-.00708-.052a.76523.76523,0,0,1,.43311-.79443q6.59546-3.08991,13.1626-6.26258,3.27722-1.593,6.52319-3.24328c2.15991-1.10523,4.31616-2.22376,6.40771-3.43054a.49536.49536,0,0,1,.53247.02368,8.68163,8.68163,0,0,0,5.96021,1.60058,8.79165,8.79165,0,0,0,5.59424-2.77783,9.51094,9.51094,0,0,0,1.73022-2.71179l1.36524-3.0293,2.731-6.05847a.0967.0967,0,0,1,.17749.07678l-2.54223,6.14-1.27124,3.06994a10.07925,10.07925,0,0,1-1.74024,2.91565,9.49858,9.49858,0,0,1-12.573,1.56226l.53222.02368c-2.096,1.26929-4.23511,2.437-6.3811,3.59351q-3.2201,1.73052-6.47266,3.39209-6.49731,3.34222-13.07959,6.50659l.42578-.84619c.2168,1.42163.43213,2.8468.51075,4.24365.13281,1.40637.19824,2.80591.26171,4.20532.13819,2.80029.20362,5.59509.249,8.38977q.14025,8.38422.03711,16.75745-.21057,16.7503-.79444,33.4845l-.001.02587a.9799.9799,0,0,1-.70923.90784l-7.69287,2.19385c-1.2732.39673-2.59131.63367-3.897.91418l-3.92115.82386c-.65576.12622-1.30176.29895-1.96533.38684l-1.99072.26465-3.98047.52807a15.259,15.259,0,0,1-2.00171.17163l-2.01123.09558-2.011.09473a14.95264,14.95264,0,0,1-2.01342.02161l-4.03516-.19129a13.87641,13.87641,0,0,1-2.00952-.227l-2.00415-.30652a17.85239,17.85239,0,0,1-1.99536-.35656l-1.96558-.53272c-.65161-.1897-1.31714-.33-1.9563-.5614l-1.89575-.76709a24.96143,24.96143,0,0,1-6.978-4.259,17.22707,17.22707,0,0,1-4.91015-6.68848.54679.54679,0,0,1-.03931-.22058l.00146-.04053.44922-13.58472.30884.588a101.75153,101.75153,0,0,1-14.27856-12.09278,179.20945,179.20945,0,0,1-12.312-14.01782c-3.88916-4.85058-7.53247-9.88977-11.03906-15.01709-3.49048-5.14038-6.905-10.32764-10.03784-15.70825a.35326.35326,0,0,1,.00293-.35559c6.67969-11.23242,13.60059-22.3158,20.969-33.11768,1.82325-2.71264,3.70581-5.386,5.60352-8.04846,1.90576-2.65674,3.87671-5.26794,5.83032-7.89123,4.00611-5.17212,8.02759-10.34607,12.47144-15.17334,2.13281-2.488,4.502-4.77222,6.769-7.14258a94.47312,94.47312,0,0,1,7.42261-6.50781l1.94531-1.52955c.65088-.50659,1.37354-.91723,2.05688-1.38024a40.71387,40.71387,0,0,1,4.22974-2.57923l2.20606-1.13611c.36962-.18518.731-.387,1.10693-.55822l1.155-.45691a38.181,38.181,0,0,1,4.66846-1.67627l2.38964-.67224c.79395-.23316,1.625-.311,2.43531-.47364.81665-.13061,1.626-.31079,2.44726-.39966l2.47388-.184,1.23584-.09118,1.23926.02234,2.47632.05029c.82226.06409,1.64135.17041,2.46142.25464l1.22827.14038c.407.063.80957.15417,1.21436.22986a58.87224,58.87224,0,0,1,18.30322,6.96618.09679.09679,0,0,1,.03858.13135A.09833.09833,0,0,1,349.5082,236.68453Z" fill="#020202"/><path d="M336.94937,310.73189a20.0059,20.0059,0,0,1,2.36938,4.13587,28.94681,28.94681,0,0,1,1.55884,4.4884,25.1962,25.1962,0,0,1,.73047,4.72,14.64787,14.64787,0,0,1-.47779,4.77246l-1.01782-4.56189L339.0021,319.832q-.57276-2.22546-1.10889-4.48266C337.53188,313.84188,337.19375,312.32162,336.94937,310.73189Z"/><path d="M283.29629,374.48873c-.54688-7.808-.79956-15.63489-.80469-23.46228q-.03661-11.74238.67652-23.48193A198.19143,198.19143,0,0,1,285.8915,304.172a70.01949,70.01949,0,0,1,3.01807-11.41992,23.45686,23.45686,0,0,1,2.70508-5.28748,8.74918,8.74918,0,0,1,2.08935-2.13281,4.23284,4.23284,0,0,1,2.8313-.72974,4.08521,4.08521,0,0,0-2.65942.96643,8.45932,8.45932,0,0,0-1.83521,2.18177,22.77133,22.77133,0,0,0-2.23388,5.31066,80.57708,80.57708,0,0,0-2.42627,11.36512c-.56421,3.84484-1.032,7.7091-1.37818,11.588q-.55773,5.81415-.9038,11.65369c-.51563,7.78039-.81861,15.57959-1.10254,23.38305Z"/><path d="M399.13662,137.72823c-.32861,1.08618-.76269,2.0409-.96,2.97949a2.28345,2.28345,0,0,0,.00684,1.29419,2.90033,2.90033,0,0,0,.95312,1.11231,1.90049,1.90049,0,0,1-1.61108-.7417,2.33,2.33,0,0,1-.2959-1.86145,4.56753,4.56753,0,0,1,.70947-1.58716A4.31838,4.31838,0,0,1,399.13662,137.72823Z" fill="#020202"/><path d="M403.84184,112.95808s-5.6905,3.13558,1.62585,12.07779,10.21967,9.40674,10.21967,9.40674,4.87757,8.01315-4.06464,26.47823c0,0,11.49713,22.18133,33.91072,11.84552,0,0,.58066-23.92331-4.76144-36.11723,0,0-2.55491-8.01315-2.09038-11.96166s-2.43879-15.09724-11.14873-13.00685C427.53289,111.68062,423.35211,105.06106,403.84184,112.95808Z" fill="#020202"/><path d="M339.04946,232.70492q2.33094-6.81189,4.80127-13.51209L348.735,205.775c1.60229-4.47583,3.25244-8.92749,4.78345-13.41858,1.63037-4.45789,3.04858-8.9784,4.57422-13.4668l-.0669.365a7.36241,7.36241,0,0,1,.23828-1.17371,9.82865,9.82865,0,0,1,.334-1.02136,11.20748,11.20748,0,0,1,.91919-1.889,12.97366,12.97366,0,0,1,2.65014-3.14465,15.97666,15.97666,0,0,1,7.04053-3.41089l.9292-.23132.94067-.12988,1.87183-.25171c1.25293-.011,2.49756-.08728,3.73071-.02637,1.23218.09827,2.46167.17029,3.67212.35193,1.20972.204,2.41065.43384,3.60083.67114-1.22314.04163-2.4353.07593-3.63916.08423-1.20459.02734-2.40088.207-3.58862.26916-1.1853.11756-2.34815.36853-3.50708.54761l-1.69385.43909-.842.21557-.80469.307a14.72819,14.72819,0,0,0-5.645,3.39356c-.34131.40612-.71216.78662-1.01294,1.21313a11.71027,11.71027,0,0,0-.813,1.32324,7.884,7.884,0,0,0-.59814,1.40271,6.47192,6.47192,0,0,0-.19409.71472,4.52069,4.52069,0,0,0-.10132.60816,1.62054,1.62054,0,0,1-.04834.29687l-.0188.06861c-1.2439,4.64258-2.72339,9.2157-4.28027,13.75268-1.6416,4.50769-3.29712,9.00916-5.20435,13.40686q-1.37548,3.31971-2.89355,6.57764c-.99732,2.17761-2.01636,4.3446-3.096,6.48376C343.84438,224.39364,341.57119,228.61812,339.04946,232.70492Z" fill="#020202"/><path d="M471.67129,172.57906q4.07373-.51507,8.178-.63623a79.51941,79.51941,0,0,1,8.24536.13989,47.743,47.743,0,0,1,8.28735,1.2428,19.07563,19.07563,0,0,1,8.05713,3.7898,1.76715,1.76715,0,0,1,.60913,1.43786l-.009.14551c-.845,13.73157-1.99609,27.43213-3.24,41.12415-1.25391,13.69079-3.1521,27.32287-5.02954,40.95984q-2.83264,20.45379-4.4668,41.01611c-1.09448,13.7063-1.84668,27.44043-2.70825,41.16308a2.10551,2.10551,0,0,1-.96753,1.64405l-.09717.06128-18.95508,11.98364L450.65713,368.6766l-9.405,6.07605c-3.14746,2.00464-6.26709,4.04187-9.38281,6.08325-3.0857,2.077-6.22534,4.07971-9.27661,6.1698-3.07471,2.06738-6.06543,4.2168-8.85083,6.42566l.93017-2.96192a3.23181,3.23181,0,0,1,.07446.38343l.01929.21533a3.3465,3.3465,0,0,1-.4624,1.88891,4.3872,4.3872,0,0,1-.46045.61695,4.9401,4.9401,0,0,1-.42334.38562,2.84472,2.84472,0,0,1-.38818.27148l-.3606.20447a6.20341,6.20341,0,0,1-.59033.24451,7.85713,7.85713,0,0,1-1.7666.36328,18.36162,18.36162,0,0,1-2.7229.02539,46.11106,46.11106,0,0,1-4.8191-.59021c-3.11206-.52869-6.12915-1.20508-9.11987-1.95593-5.9685-1.53846-11.83374-3.26685-17.64258-5.16834-5.81469-1.874-11.5708-3.89709-17.3-5.98218-5.70678-2.15442-11.41381-4.28552-17.05249-6.608a.291.291,0,0,1,.18384-.5509l17.65259,4.67541q8.80993,2.35419,17.62866,4.58692c5.88745,1.436,11.761,2.91967,17.658,4.06775,2.94043.59191,5.885,1.14392,8.78955,1.51342a40.83969,40.83969,0,0,0,4.251.35511,12.8956,12.8956,0,0,0,1.83325-.08277,2.12525,2.12525,0,0,0,.46021-.10278c-.02564.0033-.01538.00281-.064.02649a.64063.64063,0,0,0-.11426.06079l-.15405.111a1.34371,1.34371,0,0,0-.20825.19873,1.74443,1.74443,0,0,0-.2898.38855,2.25835,2.25835,0,0,0-.26684.658,2.28157,2.28157,0,0,0-.06568.45374,2.32032,2.32032,0,0,0,.00025.30273l.01806.17981a2.66943,2.66943,0,0,0,.06861.34827l.93042-2.96228c3.022-2.51087,6.06933-4.78809,9.15674-6.965q4.61827-3.30158,9.334-6.38049,9.42663-6.19044,19.04443-12.012c6.39649-3.91149,12.84424-7.73022,19.29444-11.54162q9.68151-5.71033,19.49658-11.19116l-1.06445,1.70507c1.75879-13.65551,3.627-27.29968,5.15332-40.97155q2.26794-20.50965,3.39453-41.11866c.74292-13.74121,1.46509-27.48742,2.83179-41.1748,1.37646-13.68616,2.84594-27.36377,4.62133-41.0105l.59986,1.583a17.08084,17.08084,0,0,0-6.35645-3.47376,52.229,52.229,0,0,0-7.68017-1.8352c-2.62989-.4596-5.30469-.74036-7.98975-.99133-2.68555-.21936-5.39331-.39844-8.09692-.45545l-.00611-.00012a.29091.29091,0,0,1-.03027-.57947Z" fill="#020202"/><path d="M421.08828,271.53878a29.80609,29.80609,0,0,0-3.64624,6.5802,35.75184,35.75184,0,0,0-2.10474,7.15576,40.31789,40.31789,0,0,0-.64257,7.39832l.03418,7.56469.10839,15.16553-.02514,15.17114-.20386,15.17334c-.12988,5.05762-.21533,10.11634-.43164,15.17383q-.26916,7.587-.74805,15.17053a143.49527,143.49527,0,0,1-1.57373,15.11963c.26294-5.05481.177-10.10632.14868-15.16259l-.09228-15.16346-.052-15.16528.05151-15.167c.10571-10.11231.21362-20.225.56152-30.34424.09986-2.53211.16431-5.059.32959-7.60291a41.05833,41.05833,0,0,1,1.15186-7.64184,34.80081,34.80081,0,0,1,2.7627-7.18286A26.84753,26.84753,0,0,1,421.08828,271.53878Z" fill="#020202"/><path d="M357.15664,321.00008c4.80371.52075,9.55713,1.00879,14.31079,1.40735,2.37866.17615,4.74854.38355,7.124.49768,2.3728.1283,4.74414.26856,7.116.28614,2.38745.11059,4.699.04,7.1648.09545a63.7327,63.7327,0,0,1,7.293.55726,41.58228,41.58228,0,0,1,7.16528,1.58471,25.88364,25.88364,0,0,1,3.41015,1.37915,11.65483,11.65483,0,0,1,3.03052,2.04077,14.37245,14.37245,0,0,0-3.32153-1.2904,30.267,30.267,0,0,0-3.46191-.74573,59.68616,59.68616,0,0,0-7.03394-.71277c-4.71924-.25451-9.40869.08216-14.31738-.00769a99.385,99.385,0,0,1-14.45581-1.44592A78.60861,78.60861,0,0,1,357.15664,321.00008Z" fill="#020202"/><path d="M341.74868,349.404a98.38855,98.38855,0,0,1,18.02612.44214,89.02034,89.02034,0,0,1,8.95923,1.44275,68.91534,68.91534,0,0,1,8.79273,2.56372c1.41089.61133,2.88061,1.24512,4.146,1.83618,1.32325.579,2.68506,1.069,4.05811,1.53138A50.21845,50.21845,0,0,0,394.2167,359.21a42.66367,42.66367,0,0,0,8.73706.403,19.51913,19.51913,0,0,0,4.30273-.69007,7.56564,7.56564,0,0,0,1.97657-.85278,2.42889,2.42889,0,0,0,1.22827-1.69812,2.64489,2.64489,0,0,1-.9563,2.04236,8.01746,8.01746,0,0,1-1.95923,1.25964,18.91622,18.91622,0,0,1-4.40869,1.35266,36.43594,36.43594,0,0,1-9.16065.43616,43.90113,43.90113,0,0,1-9.05786-1.61633,42.67479,42.67479,0,0,1-4.36108-1.5492c-1.45361-.65234-2.74268-1.17211-4.07959-1.73925a99.71355,99.71355,0,0,0-17.0354-4.4795C353.6083,350.99728,347.70376,350.17428,341.74868,349.404Z" fill="#020202"/><path d="M480.505,192.66061a18.7808,18.7808,0,0,1-.2478-4.51282,30.4648,30.4648,0,0,1,.55957-4.34949,29.89865,29.89865,0,0,1,1.17065-4.22583,18.55919,18.55919,0,0,1,1.98584-4.061,18.54918,18.54918,0,0,1,.25171,4.51355,29.93363,29.93363,0,0,1-.56348,4.34875,30.43514,30.43514,0,0,1-1.17456,4.2251A18.78165,18.78165,0,0,1,480.505,192.66061Z" fill="#020202"/><polyline points="266.993 360.589 271.683 406.077 276.917 369.796" fill="#020202"/><polyline points="403.319 391.212 410.461 440.917 416.472 387.623" fill="#020202"/><polyline points="476.375 349.404 483.509 378.669 487.412 342.784" fill="#020202"/><path d="M333.46548,295.83785c5.67676,3.33106,11.1123,6.92151,16.63794,10.35962,2.74,1.75415,5.52466,3.42407,8.32593,5.059a63.84387,63.84387,0,0,0,8.7146,4.37769,31.96142,31.96142,0,0,1-9.40943-3.03662,79.15941,79.15941,0,0,1-8.65918-4.76148c-2.77319-1.7688-5.49292-3.6156-8.0957-5.62012A82.32271,82.32271,0,0,1,333.46548,295.83785Z"/><path d="M397.21148,134.06515a1.57578,1.57578,0,0,0,0-3.14968,1.57578,1.57578,0,0,0,0,3.14968Z" fill="#020202"/><path d="M405.81009,134.25413a1.57578,1.57578,0,0,0,0-3.14968,1.57578,1.57578,0,0,0,0,3.14968Z" fill="#020202"/><path d="M393.71523,129.08871a2.55322,2.55322,0,0,1,1.21119-1.04273,3.5048,3.5048,0,0,1,1.52978-.32922,3.24712,3.24712,0,0,1,2.7395,1.37195,9.04247,9.04247,0,0,1-1.47168.17016c-.44311.02344-.85791.03784-1.27319.03223-.416-.00928-.83032-.00989-1.27393-.04688A13.84558,13.84558,0,0,1,393.71523,129.08871Z" fill="#020202"/><path d="M404.58169,129.08871a2.1617,2.1617,0,0,1,1.01733-.94446,2.8412,2.8412,0,0,1,1.29517-.30176,2.77918,2.77918,0,0,1,1.30273.29871,2.19486,2.19486,0,0,1,1.0149.94751,6.65522,6.65522,0,0,1-1.25464.25781,8.19327,8.19327,0,0,1-1.05738.07031,8.0296,8.0296,0,0,1-1.06591-.07117A7.27827,7.27827,0,0,1,404.58169,129.08871Z" fill="#020202"/><path d="M401.57725,129.672a1.45252,1.45252,0,0,0,0-2.90331,1.45252,1.45252,0,0,0,0,2.90331Z" fill="#b21919"/><path d="M406.11929,143.96493a15.06066,15.06066,0,0,0-3.05982,3.03515,12.53952,12.53952,0,0,0-1.02807,1.74353c-.18286.31031-.30347.65906-.48706,1.00415a10.63464,10.63464,0,0,1-.54126,1.11133,5.2948,5.2948,0,0,1-.40259-1.2229,5.49692,5.49692,0,0,1-.03858-1.28869,5.06441,5.06441,0,0,1,.92579-2.47571,4.88907,4.88907,0,0,1,2.071-1.67029A3.91706,3.91706,0,0,1,406.11929,143.96493Z" fill="#020202"/><path d="M363.23449,218.32844a1.45252,1.45252,0,0,0,0-2.90331,1.45252,1.45252,0,0,0,0,2.90331Z" fill="#020202"/><path d="M368.34432,220.18656a1.45252,1.45252,0,0,0,0-2.90331,1.45252,1.45252,0,0,0,0,2.90331Z" fill="#020202"/><path d="M373.39609,222.10275a1.45252,1.45252,0,0,0,0-2.90331,1.45252,1.45252,0,0,0,0,2.90331Z" fill="#020202"/><path d="M458.92775,230.6385a1.45253,1.45253,0,0,0,0-2.90332,1.45253,1.45253,0,0,0,0,2.90332Z" fill="#020202"/><path d="M464.76341,230.9869a1.45253,1.45253,0,0,0,0-2.90332,1.45253,1.45253,0,0,0,0,2.90332Z" fill="#020202"/><path d="M471.81846,231.77079a1.45252,1.45252,0,0,0,0-2.90331,1.45252,1.45252,0,0,0,0,2.90331Z" fill="#020202"/><path d="M478.61222,232.55469a1.45253,1.45253,0,0,0,0-2.90332,1.45253,1.45253,0,0,0,0,2.90332Z" fill="#020202"/><path d="M239.26294,319.47993a1.45252,1.45252,0,0,0,0-2.90331,1.45252,1.45252,0,0,0,0,2.90331Z" fill="#020202"/><path d="M243.44372,325.40269a1.45252,1.45252,0,0,0,0-2.90331,1.45252,1.45252,0,0,0,0,2.90331Z" fill="#020202"/><path d="M247.97289,332.02225a1.45252,1.45252,0,0,0,0-2.90331,1.45252,1.45252,0,0,0,0,2.90331Z" fill="#020202"/><path d="M252.67626,338.29341a1.45252,1.45252,0,0,0,0-2.90331,1.45252,1.45252,0,0,0,0,2.90331Z" fill="#020202"/><path d="M257.728,345.08717a1.45253,1.45253,0,0,0,0-2.90332,1.45253,1.45253,0,0,0,0,2.90332Z" fill="#020202"/><path d="M263.47659,352.05512a1.45252,1.45252,0,0,0,0-2.90331,1.45252,1.45252,0,0,0,0,2.90331Z" fill="#020202"/><path d="M269.39935,358.84888a1.45252,1.45252,0,0,0,0-2.90331,1.45252,1.45252,0,0,0,0,2.90331Z" fill="#020202"/><path d="M275.84471,363.90065a1.45253,1.45253,0,0,0,0-2.90332,1.45253,1.45253,0,0,0,0,2.90332Z" fill="#020202"/><path d="M282.11587,369.475a1.45252,1.45252,0,0,0,0-2.90331,1.45252,1.45252,0,0,0,0,2.90331Z" fill="#020202"/><path d="M286.81924,387.9401a1.45253,1.45253,0,0,0,0-2.90332,1.45253,1.45253,0,0,0,0,2.90332Z" fill="#020202"/><path d="M292.04521,393.34026a1.45252,1.45252,0,0,0,0-2.90331,1.45252,1.45252,0,0,0,0,2.90331Z" fill="#020202"/><path d="M299.18736,396.82424a1.45253,1.45253,0,0,0,0-2.90332,1.45253,1.45253,0,0,0,0,2.90332Z" fill="#020202"/><path d="M306.50372,398.392a1.45253,1.45253,0,0,0,0-2.90332,1.45253,1.45253,0,0,0,0,2.90332Z" fill="#020202"/><path d="M314.69106,398.21783a1.45252,1.45252,0,0,0,0-2.90331,1.45252,1.45252,0,0,0,0,2.90331Z" fill="#020202"/><path d="M322.53,397.34684a1.45253,1.45253,0,0,0,0-2.90332,1.45253,1.45253,0,0,0,0,2.90332Z" fill="#020202"/><path d="M330.19477,396.12744a1.45252,1.45252,0,0,0,0-2.90331,1.45252,1.45252,0,0,0,0,2.90331Z" fill="#020202"/><path d="M337.51112,394.03706a1.45253,1.45253,0,0,0,0-2.90332,1.45253,1.45253,0,0,0,0,2.90332Z" fill="#020202"/><path d="M416.43521,372.6639l2.47241-1.52429a.15626.15626,0,1,1,.16406.266l-.00781.00452-2.55591,1.37951a.07266.07266,0,0,1-.07275-.12573Z" fill="#020202"/><path d="M421.39,369.63253l2.48242-1.50684a.28341.28341,0,1,1,.29419.4845l-.01074.0061-2.5459,1.397a.21991.21991,0,0,1-.22-.38074Z" fill="#020202"/><path d="M426.35537,366.61935l2.4939-1.48719a.38691.38691,0,0,1,.39624.66468l-.00952.00537-2.53443,1.41675a.34622.34622,0,0,1-.34619-.59961Z" fill="#020202"/><path d="M431.34316,363.6451l2.4939-1.48706a.46815.46815,0,0,1,.47949.8042l-.01147.00647-2.53443,1.41675a.4275.4275,0,0,1-.42749-.74036Z" fill="#020202"/><path d="M436.331,360.671l2.49585-1.48364a.54539.54539,0,0,1,.55737.93762l-.012.007-2.53272,1.42a.50865.50865,0,0,1-.50854-.881Z" fill="#020202"/><path d="M441.33267,357.72115l2.50586-1.46631a.5785.5785,0,1,1,.58422.99866l-.00561.0033-2.52246,1.4375a.5619.5619,0,0,1-.562-.97315Z" fill="#020202"/><path d="M446.34438,354.78866l2.50611-1.46631a.61159.61159,0,0,1,.61767,1.05578l-.0061.00354-2.52246,1.4375a.595.595,0,0,1-.59522-1.03051Z" fill="#020202"/><path d="M451.35635,351.85616l2.50586-1.46631a.64481.64481,0,0,1,.65136,1.113l-.00659.00366-2.52246,1.4375a.62812.62812,0,0,1-.62817-1.08789Z" fill="#020202"/><path d="M456.37539,348.93624l2.521-1.44031a.63332.63332,0,0,1,.6333,1.09693l-2.50733,1.4635a.64679.64679,0,1,1-.6521-1.11719Z" fill="#020202"/><path d="M461.41714,346.05562l2.521-1.4403a.60657.60657,0,0,1,.60669,1.05053l-2.50756,1.46351a.62.62,0,0,1-.625-1.07093Z" fill="#020202"/><path d="M466.46353,343.18294l2.5354-1.41552a.542.542,0,0,1,.542.93872l-2.49317,1.48828a.58411.58411,0,1,1-.59887-1.003Z" fill="#020202"/><path d="M471.53408,340.352l2.5354-1.4154a.45775.45775,0,0,1,.45777.79272l-2.49317,1.4884a.49992.49992,0,1,1-.51245-.85852Z" fill="#020202"/><path d="M476.60513,337.52206l1.81543-1.01221-.18994.29565.09008-.82007a.371.371,0,0,1,.73853.07l-.06543.82239a.37135.37135,0,0,1-.17822.28894l-.01172.007-1.78418,1.0664a.41459.41459,0,0,1-.4253-.71179Z" fill="#020202"/><path d="M478.63784,333.0992l.31323-2.88671a.28744.28744,0,0,1,.57227.05419l-.23389,2.89417a.32735.32735,0,0,1-.65258-.05273Z" fill="#020202"/><path d="M479.24185,327.32369l.29077-2.88867a.25284.25284,0,0,1,.50342.04761l-.25635,2.892a.2701.2701,0,1,1-.53809-.0476Z" fill="#020202"/><path d="M479.82339,321.54623l.29077-2.8888a.21826.21826,0,0,1,.43457.04114l-.25635,2.892a.23554.23554,0,0,1-.46924-.04151Z" fill="#020202"/><path d="M480.37563,315.76595l.26075-2.8916a.24329.24329,0,0,1,.48462.04358l-.00025.0022-.28638,2.88916a.23039.23039,0,0,1-.45874-.04334Z" fill="#020202"/><path d="M480.89712,309.98275l.26074-2.89172a.269.269,0,0,1,.53589.04834l-.00024.00244-.28638,2.88916a.25615.25615,0,0,1-.51-.04822Z" fill="#020202"/><path d="M481.401,304.19784l.23852-2.8938a.33487.33487,0,0,1,.66748.055l-.00073.00806-.30859,2.88708a.29969.29969,0,0,1-.59668-.05639Z" fill="#020202"/><path d="M481.87832,298.41036l.2373-2.8938a.40627.40627,0,0,1,.80982.06641l-.001.01013-.30957,2.887a.37.37,0,0,1-.73657-.0697Z" fill="#020202"/><path d="M482.349,292.6224l.2334-2.89429a.48705.48705,0,1,1,.97095.07837l-.00122.01343-.314,2.88659a.44661.44661,0,0,1-.88916-.0841Z" fill="#020202"/><path d="M482.81582,286.834l.24194-2.89344a.5592.5592,0,0,1,1.11451.09326l-.00123.01221-.30517,2.88733a.5274.5274,0,0,1-1.05-.09936Z" fill="#020202"/><path d="M483.30483,281.04769l.24707-2.89294a.61233.61233,0,1,1,1.22022.10424l-.001.01111-.3,2.88794a.58576.58576,0,0,1-1.16626-.11035Z" fill="#020202"/><path d="M483.799,275.2618l.25245-2.89233a.66021.66021,0,1,1,1.31543.11474l-.00074.00965-.29492,2.88843a.639.639,0,0,1-1.27222-.12049Z" fill="#020202"/><path d="M484.30972,269.47762l.25854-2.89184a.69073.69073,0,0,1,1.376.12292l-.00073.0072-.28882,2.889a.6755.6755,0,0,1-1.345-.12732Z" fill="#020202"/><path d="M484.82681,263.69393l.2583-2.89185a.72112.72112,0,0,1,1.43652.12842l-.00073.00757-.28882,2.88892a.70579.70579,0,0,1-1.40527-.13306Z" fill="#020202"/><path d="M485.34365,257.91036l.2583-2.89184a.75152.75152,0,1,1,1.49707.13378l-.00073.00782-.28857,2.88891a.73632.73632,0,0,1-1.46607-.13867Z" fill="#020202"/><path d="M485.8605,252.12667l.27319-2.8905a.76708.76708,0,0,1,1.52735.14441v.00024l-.27393,2.89026a.76671.76671,0,0,1-1.52661-.14441Z" fill="#020202"/><path d="M486.413,246.3464l.27954-2.8899a.75532.75532,0,0,1,1.50391.14234l-.26758,2.891a.7613.7613,0,0,1-1.51612-.14038Z" fill="#020202"/><path d="M486.97183,240.56673l.27954-2.88989a.74366.74366,0,0,1,1.48071.14014l-.26782,2.891a.74954.74954,0,0,1-1.49268-.13831Z" fill="#020202"/><path d="M487.53066,234.787l.27955-2.88977a.73189.73189,0,0,1,1.45727.13794l-.26758,2.89087a.73788.73788,0,0,1-1.46948-.136Z" fill="#020202"/><path d="M488.0895,229.00729l.29956-2.88794a.7.7,0,0,1,1.3938.13195l-.24756,2.89283a.72615.72615,0,0,1-1.447-.12378Z" fill="#020202"/><path d="M488.6896,223.23153l.30078-2.88782a.6456.6456,0,0,1,1.2854.12171l-.24634,2.89294a.67284.67284,0,0,1-1.34082-.11426Z" fill="#020202"/><path d="M489.29116,217.45589l.30054-2.88781a.59128.59128,0,0,1,1.17725.11132l-.24659,2.89307a.61845.61845,0,0,1-1.23242-.1051Z" fill="#020202"/><path d="M489.89248,211.68014l.30518-2.88733a.53219.53219,0,0,1,1.05957.10034l-.24195,2.89331a.564.564,0,1,1-1.124-.094Z" fill="#020202"/><path d="M490.51553,205.90658l.31762-2.88623a.44344.44344,0,0,1,.88282.08361l-.22925,2.89454a.48785.48785,0,0,1-.97266-.077Z" fill="#020202"/><path d="M491.151,200.13412l.31762-2.88623a.35465.35465,0,0,1,.70606.06689l-.22925,2.89453a.39907.39907,0,1,1-.79566-.063Z" fill="#020202"/><path d="M491.79458,194.36251l.33765-2.8844a.23781.23781,0,0,1,.47339.0448l-.20948,2.89648a.30218.30218,0,0,1-.60278-.04357Z" fill="#020202"/><path d="M492.46987,188.59383l.33765-2.88427a.109.109,0,0,1,.217.0205l-.20947,2.89649a.17343.17343,0,0,1-.346-.025Z" fill="#020202"/></svg>