<svg id="Layer_1" data-name="Layer 1" xmlns="http://www.w3.org/2000/svg" viewBox="0 0 700 550"><title>changing garments in changing room</title><path d="M283.86013,269.1803c-2.27084,1.14016-4.02427-3.57381-4.599-6.03617v-.00953l-3.21937-4.23492c-.91975.01918-1.72442,1.08268-1.782,4.39778-.15345,8.21106-2.01214,7.58826-2.01214,7.58826a1.98457,1.98457,0,0,1-1.8491.58444l-.00959.06707c-6.50564,5.09718-13.41362,16.59457-13.61478,16.95866.11485-.10538.22993-.21076.35438-.30661a29.109,29.109,0,0,1,15.60774-6.76429,20.46733,20.46733,0,0,1,8.89134,1.054,17.73686,17.73686,0,0,1,7.301,4.92467,26.359,26.359,0,0,0-7.74165-3.49708,22.10994,22.10994,0,0,0-4.11035-.642,24.12385,24.12385,0,0,0-4.15831.06707,36.73612,36.73612,0,0,0-8.22047,1.82044q-2.17014.733-4.30193,1.65753a7.03507,7.03507,0,0,1,4.733,1.69588c-7.05184,12.35012-18.42455,45.94165-26.13743,69.97121a305.07488,305.07488,0,0,0-9.8015,38.39164c-6.60155,36.19764-27.70863,48.64355-41.17979,51.1634-14.86038,2.788-19.50734,12.08182-19.50734,12.08182,10.12735,4.42649,44.40876,4.81935,65.22859,4.59888a28.91009,28.91009,0,0,0,26.463-17.78256c12.06276-29.12674,24.44177-81.58357,24.44177-81.58357-.68046-3.5258-1.24559-7.07078-1.86851-10.61588l-.20117-1.63839q-3.40626,12.35973-7.205,24.59492c-2.64441,8.58468-5.42285,17.131-8.26843,25.64866-2.87435,8.51766-5.80624,17.00655-8.95847,25.42843q-2.34243,6.32359-4.88649,12.58006c-.8718,2.06944-1.75319,4.139-2.68253,6.18939-.46947,1.02525-.94853,2.04079-1.46595,3.04674-.25871.49824-.527.99648-.82408,1.47554a5.57405,5.57405,0,0,1-1.00584,1.351,5.86112,5.86112,0,0,0,.8814-1.418c.24912-.50783.46946-1.01554.68981-1.533.4407-1.02525.85262-2.06957,1.25519-3.12347.79508-2.08874,1.54243-4.20614,2.27061-6.32366,1.49472-4.23479,2.9223-8.48877,4.35947-12.74286l8.55591-25.53381c2.87435-8.50807,5.72951-17.02573,8.6614-25.51462q4.16766-12.20158,8.60386-24.34569c-.35438-2.94142-.6994-5.902-.98688-8.86257l-.30667-5.3942c-.09567-1.79167-.2297-3.59293-.20116-5.39419l.00959-5.41332c-.00959-.90063.02877-1.80126.07672-2.70189l.14386-2.7019c.14362-3.60252.61309-7.18586,1.04419-10.76921l.91017-5.3463c.345-1.77249.78572-3.52586,1.18805-5.27922.4407-1.75337.9773-3.48756,1.48513-5.21216l.90057-2.55815c.29707-.85273.59414-1.70547.95812-2.52944l1.08279-2.49107,1.18805-2.42406a31.29833,31.29833,0,0,1,2.85517-4.57977ZM334.899,410.86638c14.95605-128.215,5.34613-142.72086,5.34613-142.72086a55.28953,55.28953,0,0,1-3.26709,4.80976,5.87145,5.87145,0,0,1-2.54874,2.13658c.77613,6.18945,1.102,12.4172,1.29355,18.64495.03836,1.0539.048,2.09828.06713,3.15218.5366.00959,1.08256.01918,1.63834.01918a15.21014,15.21014,0,0,1-1.62875.47906c.07673,5.49957-.04795,11.00874-.2683,16.50831a325.54088,325.54088,0,0,1-4.14871,40.09712c-1.13051,6.63979-2.32816,13.2411-3.5258,19.82347-1.17847,6.60131-2.29,13.20286-3.26709,19.833q-1.46595,9.93092-2.53915,19.91926c-.34479,3.33422-.68022,6.65885-.90057,10.00267-.21076,3.0851-.38316,6.20857-.35462,9.27461q7.3585-2.0984,14.74553-4.12c5.15455-1.418,10.31893-2.84557,15.48307-4.22532-5.08742,1.64793-10.19425,3.24814-15.30108,4.84812q-7.64551,2.42874-15.32026,4.7714l-.709.21076-.00959-.71859c-.25871-13.54765,1.36069-26.89425,3.181-40.21208.92935-6.65886,1.993-13.28906,3.13306-19.90967.5366-3.31505,1.19764-6.61091,1.81073-9.90689l1.80138-9.87817a389.6354,389.6354,0,0,0,4.63713-39.87676c.345-5.41338.54619-10.8267.63251-16.24966a15.16823,15.16823,0,0,1-4.65655.09584,21.63314,21.63314,0,0,1-6.97511-2.32821,28.327,28.327,0,0,1-5.85395-4.3307,24.95094,24.95094,0,0,1-4.50333-5.62414q2.68768,2.38568,5.471,4.49357a48.09254,48.09254,0,0,0,5.79664,3.78457,30.98774,30.98774,0,0,0,6.34261,2.539,23.0781,23.0781,0,0,0,4.38824.63239c.01895-1.03479.03813-2.06.03813-3.09476.048-6.20857-.10526-12.42673-.56514-18.6353-2.05986.6611-3.27668-1.54261-3.27668-1.54261-3.40136,3.30551-6.29489-1.1018-6.29489-1.1018-3.71761,4.26363-6.8123-1.58091-6.8123-1.58091-1.13051,2.89353-4.3307,1.14016-4.95338,0a16.25048,16.25048,0,0,1,.10526-4.79058L292.8951,281.21423a48.136,48.136,0,0,0-4.24439,9.82069c-.59414,1.6767-1.03484,3.41089-1.54267,5.10671-.39274,1.74378-.88139,3.45884-1.236,5.20262a135.67553,135.67553,0,0,0-2.673,21.17433c-.50806,7.1092-.32584,14.25677-.14386,21.40427l.64186,10.71179c.30667,3.56416.68982,7.12832.93917,10.71166l4.79058,85.55018a20.18484,20.18484,0,0,0,19.9478,19.05694c1.63834.01918,3.26732.03824,4.85771.067a25.34989,25.34989,0,0,0,21.73959-11.689l25.58164-40.0301Zm-1.27437,3.02768a25.28828,25.28828,0,0,1-1.71506,2.70184,22.698,22.698,0,0,1-2.05027,2.46242,14.48965,14.48965,0,0,1-2.4816,2.13658,15.163,15.163,0,0,1,1.26478-3.02756,24.47652,24.47652,0,0,1,3.76533-5.15479A14.93,14.93,0,0,1,334.899,410.876,15.43474,15.43474,0,0,1,333.6246,413.89406Z"/><path d="M343.56973,142.78565a13.00342,13.00342,0,0,0,3.00861,4.3786c.30643,1.85874-11.61247,1.24553-11.61247,1.24553s-.62268-15.17651.91975-21.37555c1.55226-6.18939-2.16511-13.31777-1.69588-25.08346.46011-11.76563,8.82444-5.57624,8.82444-5.57624s-7.89486-.61315-7.435,10.37641c.46947,10.99915,2.63482,19.51681,7.435,20.28329a24.82052,24.82052,0,0,0-.90081,5.23133,27.51907,27.51907,0,0,0,.11509,5.32712A20.41963,20.41963,0,0,0,343.56973,142.78565Z"/><path d="M380.79261,130.75172c-7.27218-1.38922-8.51777,3.25762-8.51777,3.25762-13.15491,20.74322-25.6965,13.15491-25.6965,13.15491a19.12645,19.12645,0,0,1-2.30921-4.64684,28.31572,28.31572,0,0,1-1.09214-5.0397,42.57364,42.57364,0,0,1-.31626-5.193c0-1.73419.01918-3.48755.15345-5.25051a11.41258,11.41258,0,0,0,1.70547-4.484c.30643-2.48148,5.57607-13.1645.6131-17.81133-4.95339-4.6469-2.31857-8.36439-2.31857-8.36439,3.0947-9.75361,16.56562-8.20147,20.7527-6.96546,4.17749,1.236,3.24814,13.1645,5.26,22.6115C371.03906,121.46758,380.79261,130.75172,380.79261,130.75172Z"/><path d="M337.87858,121.57933c.79741-.1138,1.48817-.09035,2.1305-.18929a3.92,3.92,0,0,0,.90829-.21526,3.67308,3.67308,0,0,0,.87741-.56877,1.5011,1.5011,0,0,1-.50455,1.127,2.22962,2.22962,0,0,1-1.16677.50912,2.92194,2.92194,0,0,1-1.20256-.09836A2.51351,2.51351,0,0,1,337.87858,121.57933Z"/><path d="M343.3231,112.44729a1.29117,1.29117,0,0,0,0-2.58079,1.29117,1.29117,0,0,0,0,2.58079Z"/><path d="M336.04528,113.68607a1.29117,1.29117,0,0,0,0-2.58079,1.29117,1.29117,0,0,0,0,2.58079Z"/><path d="M340.35667,108.05992a2.12894,2.12894,0,0,1,.88958-1.41366,3.04992,3.04992,0,0,1,1.6339-.5666,4.3068,4.3068,0,0,1,1.65845.24087,4.59765,4.59765,0,0,1,1.41683.81034c-.556-.0245-1.06338-.10058-1.56489-.15561a9.21263,9.21263,0,0,0-1.45425-.03766A3.71047,3.71047,0,0,0,340.35667,108.05992Z"/><path d="M332.79958,109.6278a2.12979,2.12979,0,0,1,.88958-1.41373,3.05117,3.05117,0,0,1,1.6339-.56654,4.30753,4.30753,0,0,1,1.65869.24082,4.60283,4.60283,0,0,1,1.41682.81034c-.556-.02445-1.06338-.10059-1.56489-.15556a9.21294,9.21294,0,0,0-1.45425-.03771A3.7106,3.7106,0,0,0,332.79958,109.6278Z"/><path d="M338.39857,115.96578c-.0255.35766-.07251.66368-.09824.94473a1.62564,1.62564,0,0,0,.04538.67952.85208.85208,0,0,0,.37754.44362c.22058.14894.4987.27532.80607.47333a1.63768,1.63768,0,0,1-1.04256.15491,1.23178,1.23178,0,0,1-.95344-.7907,1.48212,1.48212,0,0,1,.131-1.1667A1.7132,1.7132,0,0,1,338.39857,115.96578Z"/><path d="M344.72948,148.17236a97.25494,97.25494,0,0,0-.34456,11.021,10.58107,10.58107,0,0,0,.42175,2.52494,2.03185,2.03185,0,0,0,.21707.44771c.03954.03748.07462.11374.1041.1152a.19085.19085,0,0,1,.03812.03614l.1324.07544a7.16289,7.16289,0,0,0,1.12841.53613,13.38831,13.38831,0,0,0,5.076.89216,3.74283,3.74283,0,0,0,1.06665-.17205c.00094.0983.28351-.29391.49988-.66631.44654-.74613.84911-1.57647,1.26033-2.38979.8297-1.63331,1.58478-3.318,2.3871-4.98116,1.56957-3.34446,3.14078-6.69733,4.83877-10.00489-1.03274,3.57287-2.26009,7.07405-3.60486,10.53448-.66011,1.73676-1.39086,3.44311-2.15062,5.15262-.39064.8539-.79671,1.69073-1.283,2.54347-.1214.21193-.25754.43046-.41473.65519a3.15443,3.15443,0,0,1-.331.38865,1.89744,1.89744,0,0,1-.309.23029l-.23275.10556a5.1079,5.1079,0,0,1-1.6505.32175,14.5353,14.5353,0,0,1-5.77-1.10759,8.7177,8.7177,0,0,1-1.345-.71566l-.164-.10491-.22315-.19187a1.99777,1.99777,0,0,1-.338-.41526,3.53261,3.53261,0,0,1-.35883-.81,10.14979,10.14979,0,0,1-.33192-2.95727A47.12918,47.12918,0,0,1,344.72948,148.17236Z"/><path d="M339.83668,148.52136c-1.03273,4.13112-2.03085,8.25077-2.84885,12.38937-.38339,2.07272-.76841,4.142-.98431,6.219a26.29414,26.29414,0,0,0-.12585,6.13875,11.11947,11.11947,0,0,0,.28046,1.426l.22994.657.31813.70268a29.02051,29.02051,0,0,0,1.43647,2.7343,27.23344,27.23344,0,0,0,3.6996,4.94776,17.23517,17.23517,0,0,0,10.787,5.70466,13.26861,13.26861,0,0,1-6.31734-1.12255,19.20907,19.20907,0,0,1-5.41536-3.6292,25.4446,25.4446,0,0,1-4.14334-5.0501,26.55107,26.55107,0,0,1-1.571-2.87523l-.34783-.74367c-.1055-.27345-.215-.56052-.30736-.84122a12.25961,12.25961,0,0,1-.35485-1.69155,26.6378,26.6378,0,0,1,.21988-6.56254,58.54441,58.54441,0,0,1,1.29144-6.30928A81.192,81.192,0,0,1,339.83668,148.52136Z"/><path d="M389.24069,157.25253a81.75169,81.75169,0,0,1-2.9471,7.89358c-1.07788,2.591-2.171,5.176-3.30943,7.74007q-3.41959,7.69086-7.02914,15.29552c-2.42921,5.06174-4.90473,10.091-7.56528,15.05675-.6718,1.239-1.35086,2.472-2.09915,3.69165-.39883.63046-.72654,1.1646-1.05847,1.77015-.32163.606-.64233,1.21285-.93916,1.84243-1.2,2.50119-2.33869,5.05689-3.44768,7.6227-4.3452,10.3077-8.58468,20.70159-12.59655,31.15543l-2.98616,7.85246-1.47109,3.93521c-.25871.645-.46549,1.32922-.72,1.995-.25356.664-.54081,1.31173-.8449,1.95026a47.91314,47.91314,0,0,1-4.406,7.21142,8.39272,8.39272,0,0,1-3.08277,3.0002,2.68125,2.68125,0,0,1-2.269-.00281,3.95459,3.95459,0,0,1-1.64162-1.54659l.47181.07082a5.02541,5.02541,0,0,1-1.65495,1.08782,3.21031,3.21031,0,0,1-2.01681.12579,4.73284,4.73284,0,0,1-1.76489-.91788,7.029,7.029,0,0,1-1.35437-1.42525l.54175.03714c-.27041.26438-.51719.55122-.81192.79525a4.28,4.28,0,0,1-.99625.61385,3.12105,3.12105,0,0,1-2.37.09941,5.3255,5.3255,0,0,1-1.90828-1.30664,9.01729,9.01729,0,0,1-1.36419-1.80711l.78174-.04427a2.71728,2.71728,0,0,1-2.03693,1.83108,3.80321,3.80321,0,0,1-2.62265-.64584,3.6717,3.6717,0,0,1-1.02923-.94443l-.10971-.16789a1.22242,1.22242,0,0,1-.09263-.25532,2.51778,2.51778,0,0,1-.06268-.36812c-.02644-.22661-.03275-.43543-.04047-.64748-.01755-.83712.02526-1.6491.07789-2.46371a50.17207,50.17207,0,0,1,1.54758-9.65682,11.7031,11.7031,0,0,1,.94034-2.38582,2.77226,2.77226,0,0,1,1.08373-1.16033,1.50665,1.50665,0,0,1,.55485-.14644l.26362-.03567a3.01728,3.01728,0,0,0,.52186-.09491,39.334,39.334,0,0,0,4.49444-1.4667c2.99107-1.13344,5.96156-2.378,8.90515-3.64528l-.43205.46164,9.78794-28.269,9.95238-28.21236,10.10138-28.16178,5.11526-14.05852,5.19408-14.031.16257.05661-4.65327,14.2198-4.73234,14.19233-9.59355,28.3399-9.83168,28.2581-10.01039,28.19657-.11649.32836-.31578.13356c-2.98289,1.26157-5.97817,2.45915-9.03146,3.55955a40.23756,40.23756,0,0,1-4.71339,1.45,4.15864,4.15864,0,0,1-.66759.10777l-.33613.0362-.02573.007a1.647,1.647,0,0,0-.51509.60718,10.51837,10.51837,0,0,0-.854,2.09074,50.34755,50.34755,0,0,0-1.71764,9.36572c-.07064.79127-.13052,1.58881-.13263,2.36312.00492.35854.0117.83835.10994.90192a2.76323,2.76323,0,0,0,.73029.68765,2.87959,2.87959,0,0,0,1.94523.55356,1.81938,1.81938,0,0,0,1.38291-1.24606l.34128-.82169.44046.77742a6.27852,6.27852,0,0,0,2.77868,2.79347,2.361,2.361,0,0,0,1.81892-.0448,3.56431,3.56431,0,0,0,.83882-.494c.26081-.20654.49-.46519.73917-.6942l.31462-.28917.22736.32631a5.14826,5.14826,0,0,0,2.70359,2.10751,2.58368,2.58368,0,0,0,1.6491-.09251,4.42737,4.42737,0,0,0,1.45051-.94227l.28327-.245.18877.31579a3.3893,3.3893,0,0,0,1.36489,1.30758,2.0961,2.0961,0,0,0,1.79764.00819,7.93473,7.93473,0,0,0,2.87247-2.79382,41.9062,41.9062,0,0,0,4.3169-7.141c.29216-.62981.567-1.26735.80678-1.91553.23952-.64624.4318-1.30705.68747-1.96687l1.433-3.95761,2.82172-7.9331c1.84208-5.30964,3.82007-10.55226,5.78612-15.80915q2.947-7.88445,6.22073-15.65c1.098-2.58756,2.2-5.17408,3.4699-7.70656.3076-.63566.64748-1.26513.98946-1.89372.346-.62087.76022-1.27746,1.11624-1.82752.72958-1.16285,1.41636-2.37955,2.09237-3.59825,2.69306-4.88795,5.19268-9.9122,7.704-14.9157q3.775-7.50737,7.38586-15.099c1.20888-2.52757,2.41424-5.057,3.58194-7.60329,1.14782-2.55207,2.34617-5.09437,3.27434-7.72539Z"/><path d="M276.04082,258.81775a2.44792,2.44792,0,0,1,1.41332.48473,5.69162,5.69162,0,0,1,1.08887,1.01473,4.114,4.114,0,0,1,.79718,1.32746,1.50115,1.50115,0,0,1,.04421.24626l.0365.17175.07274.33105.13988.65607.00749.03456.00257.052.00024.00842-.01006-.08754a17.46011,17.46011,0,0,0,1.58922,3.87492,5.10059,5.10059,0,0,0,1.20092,1.49729,1.31012,1.31012,0,0,0,.65823.29379c.10082-.02508.1993.00521.2959-.04812a1.054,1.054,0,0,1,.14644-.05427s.05122-.02012.01192.00245l-.06923.04649-.01825.0172c-.00281-.00644-.00421.00707.00585-.017a2.24148,2.24148,0,0,0,.19906-.76549,7.15956,7.15956,0,0,0,.05146-.98659,16.9124,16.9124,0,0,0-.156-2.0674c-.168-1.39185-.43859-2.788-.74291-4.1772l-.1186-.54233.53146-.30491a5.59766,5.59766,0,0,0,1.73635-1.658,6.51491,6.51491,0,0,0,.95016-2.30383,9.1125,9.1125,0,0,0,.09754-2.58728c-.04491-.43917-.134-.87864-.19976-1.32062l-.34386-1.3111-.09029-.3442.18386-.224c2.32488-2.83078,4.69514-5.631,6.96458-8.50742q3.39611-4.32135,6.62728-8.76912l6.38845-8.94836,6.44506-8.90158q6.4192-8.91829,12.96708-17.7318c2.19014-2.93329,4.31105-5.914,6.46423-8.87134q1.59963-2.22813,3.13213-4.50017a34.04722,34.04722,0,0,0,2.80674-4.68327l.163.05549a29.50718,29.50718,0,0,1-2.36628,4.9983c-.89192,1.61155-1.86314,3.17171-2.82593,4.73718-1.92161,3.13405-4.00275,6.1584-6.05372,9.20181-4.13374,6.06553-8.49041,11.96785-12.95444,17.7856q-3.32,4.38424-6.73441,8.69591l-6.88459,8.57877q-3.42872,4.29872-6.72388,8.6986c-2.193,2.93668-4.29538,5.94225-6.4626,8.90186l.09356-.56783.46222,1.39572c.10619.4828.23391.9625.31578,1.45483a9.82415,9.82415,0,0,1,.00024,3.03715,7.466,7.466,0,0,1-1.14806,2.89306,6.484,6.484,0,0,1-2.34476,2.16828l.41262-.847c.288,1.43016.54713,2.86984.69637,4.34246a18.259,18.259,0,0,1,.08889,2.24447,8.46012,8.46012,0,0,1-.1041,1.16671,3.26012,3.26012,0,0,1-.43742,1.283,1.439,1.439,0,0,1-.15672.19795l-.06783.06292a.73223.73223,0,0,1-.12141.08942.66727.66727,0,0,1-.11415.04941l-.36373.12369a2.29224,2.29224,0,0,1-.77.058,2.52186,2.52186,0,0,1-1.272-.6069,6.15419,6.15419,0,0,1-1.40326-1.91447,16.97392,16.97392,0,0,1-1.38735-4.21574l-.01146-.05818.0014-.02971.00047-.00842.00983.0862-.1586-1.43027a3.65891,3.65891,0,0,0-.57613-1.17519,5.59988,5.59988,0,0,0-.9111-1.03508,2.20223,2.20223,0,0,0-1.19624-.59221Z"/><path d="M270.37657,271.55542a3.361,3.361,0,0,1-1.80208-1.39525,11.47959,11.47959,0,0,1-1.11928-1.98336,26.647,26.647,0,0,1-1.48068-4.26848,47.62558,47.62558,0,0,1-1.49706-8.91321l-.00584-.296.02643-.355a4.23084,4.23084,0,0,1,.13824-.66367,6.48294,6.48294,0,0,1,.50385-1.14607,13.184,13.184,0,0,1,1.349-1.93319,33.56028,33.56028,0,0,1,3.18475-3.268,62.54754,62.54754,0,0,1,7.11336-5.54847l-.22971.25175c4.74427-8.19684,9.75519-16.24077,14.26039-24.56943,4.60392-8.28316,8.86468-16.7186,13.768-24.88744.71415-1.11548,1.37706-1.941,1.97892-2.94358.61309-.98157,1.18361-2.01038,1.75507-3.034,1.13215-2.05973,2.20277-4.163,3.297-6.255l6.4778-12.6224c1.08958-2.10582,2.2657-4.21649,3.548-6.22056q1.89786-3.034,4.0348-5.89436a115.16167,115.16167,0,0,1,9.12478-10.92851l.12866.11415c-2.92558,3.71849-5.71525,7.5392-8.32246,11.4661a95.2775,95.2775,0,0,0-7.01886,12.21089c-2.06617,4.25959-4.14824,8.51445-6.34587,12.719q-1.63261,3.16224-3.41025,6.26126c-.60163,1.03168-1.19858,2.063-1.85845,3.07715-.636,1.01735-1.46384,2.03746-2.036,2.91-2.50687,3.9655-4.91034,8.06147-7.3737,12.097-2.43739,4.05708-4.90379,8.09983-7.23709,12.218-4.78895,8.16755-9.01883,16.64989-13.47912,24.99942l-.07532.14076-.15485.11129c-2.38289,1.71132-4.73818,3.51989-6.9557,5.43536a32.192,32.192,0,0,0-3.10756,3.058,11.8773,11.8773,0,0,0-1.23975,1.69647,5.20586,5.20586,0,0,0-.415.88391,2.99028,2.99028,0,0,0-.098.42479l-.02222.201v.26192a50.22118,50.22118,0,0,0,1.05191,8.73714,32.742,32.742,0,0,0,1.14876,4.25579,11.01851,11.01851,0,0,0,.92022,1.97915,3.16809,3.16809,0,0,0,1.51881,1.4494Z"/><path d="M380.80033,130.66441a16.10041,16.10041,0,0,1,8.78866,2.37324,19.46473,19.46473,0,0,1,6.32178,6.74447,29.301,29.301,0,0,1,3.27832,8.61878c.15274.75578.29543,1.51015.38081,2.28763.07041.81092.09708,1.51863.14784,2.28318l.27531,4.50783a85.77863,85.77863,0,0,0,3.05049,17.73666,58.04268,58.04268,0,0,0,3.10475,8.39182,32.9299,32.9299,0,0,0,2.09635,3.88065c.42058.59011.81636,1.19986,1.28045,1.73623.2152.28953.472.5166.70572.776a5.94255,5.94255,0,0,0,.69707.58028l1.13285.70917-1.08981.69391a41.79056,41.79056,0,0,1-9.72549,4.48859l-2.56207.74736c-.858.233-1.7305.39666-2.59458.59795-.86338.20649-1.73378.37064-2.60768.51286-.87251.14689-1.74337.31309-2.622.41169a90.81735,90.81735,0,0,1-10.54722.81987,85.07388,85.07388,0,0,1-10.54044-.36982l.00959-.17175c3.50194-.06182,6.99546-.26848,10.47026-.56725,3.4706-.34806,6.93862-.689,10.35378-1.331a86.22709,86.22709,0,0,0,10.088-2.4012,44.62643,44.62643,0,0,0,9.38935-4.11439l.043,1.40291a8.1136,8.1136,0,0,1-1.82431-1.78039,19.53688,19.53688,0,0,1-1.34056-1.94044,34.26566,34.26566,0,0,1-2.0222-4.15351,59.84305,59.84305,0,0,1-2.64511-8.7224c-1.33284-5.90682-2.2816-11.85837-3.22311-17.8308l-.58549-4.48772c-.09848-.734-.18643-1.52881-.29356-2.21336-.12632-.71379-.27485-1.43852-.45193-2.15208a33.85342,33.85342,0,0,0-3.10241-8.22328,19.67427,19.67427,0,0,0-5.63712-6.58851,17.275,17.275,0,0,0-8.20784-3.08136Z"/><path d="M387.78152,160.956a3.08362,3.08362,0,0,0,1.72349,1.14957,2.12367,2.12367,0,0,0,1.69518-.49l.389-.28175.36725-.35783.368-.34935c.11578-.129.222-.27561.33309-.41169.21474-.28316.466-.52438.67555-.8166l.61847-.8911c.45637-.55654.80116-1.22168,1.21659-1.825.44163-.59057.76911-1.26355,1.19437-1.8781.83578-1.24033,1.5698-2.55382,2.55084-3.7655a21.79269,21.79269,0,0,1-1.36115,4.3876,21.51236,21.51236,0,0,1-2.19459,4.07076,9.70571,9.70571,0,0,1-3.52042,3.29452,3.86431,3.86431,0,0,1-1.27764.37169,6.9604,6.9604,0,0,1-.69777-.0507,2.77228,2.77228,0,0,1-.65005-.21965A2.85659,2.85659,0,0,1,387.78152,160.956Z"/><path d="M320.393,204.91948s-1.37963,42.58825,4.04322,44.75355l6.92716-.92935,16.8821-48.1549Zm5.126,6.02653a1.438,1.438,0,0,1,0-2.87435A1.438,1.438,0,0,1,325.519,210.946Zm2.788,21.366a1.438,1.438,0,0,1,0-2.87435A1.438,1.438,0,0,1,328.307,232.312Zm8.97766-12.695a1.43808,1.43808,0,0,1,0-2.87434A1.43808,1.43808,0,0,1,337.28467,219.61694Zm6.18939-12.38842a1.43809,1.43809,0,0,1,0-2.87435A1.43809,1.43809,0,0,1,343.47406,207.22852Z"/><path d="M410.523,191.29505c-14.40051,9.29373-40.74869,7.80866-40.74869,7.80866-1.87786,3.60253-3.44931,6.4481-4.46473,7.99066-2.97025,4.49356-10.46278,23.5026-15.924,37.90305l14.8412-2.60605a18.26615,18.26615,0,0,1-.47906-4.35941,17.864,17.864,0,0,1,.47906-4.369,17.40979,17.40979,0,0,1,.47906,4.369,18.2549,18.2549,0,0,1-.47906,4.35941v40.88278c17.03532,11.76568,44.28407,0,44.28407,0s.92935-3.0947,12.38837-38.70784C432.35846,208.94358,410.523,191.29505,410.523,191.29505Zm-54.66054,50.31066a1.43809,1.43809,0,0,1,0-2.87435A1.43809,1.43809,0,0,1,355.86243,241.60571Zm6.8123-15.48312a1.43808,1.43808,0,0,1,0-2.87435A1.43808,1.43808,0,0,1,362.67473,226.12259Zm5.57607,55.74315a1.43808,1.43808,0,0,1,0-2.87434A1.43808,1.43808,0,0,1,368.2508,281.86574Zm2.17494-73.79408a1.43809,1.43809,0,0,1,0,2.87435A1.43809,1.43809,0,0,1,370.42574,208.07166Zm1.54267,28.9447a1.29434,1.29434,0,0,1,0,2.58692A1.29434,1.29434,0,0,1,371.96841,237.01636Zm2.16535,32.461a1.43809,1.43809,0,0,1,0-2.87435A1.43809,1.43809,0,0,1,374.13376,269.47732Zm4.34029-45.52968a1.43808,1.43808,0,0,1,0-2.87434A1.43808,1.43808,0,0,1,378.47405,223.94764Zm4.3307,30.3531a1.43808,1.43808,0,0,1,0-2.87435A1.43808,1.43808,0,0,1,382.80475,254.30074Zm2.48137,29.73036a1.43809,1.43809,0,0,1,0-2.87435A1.43809,1.43809,0,0,1,385.28612,284.0311Zm2.4816-78.66133a1.438,1.438,0,0,1,0-2.87435A1.438,1.438,0,0,1,387.76772,205.36977Zm3.40136,32.21184a1.43808,1.43808,0,0,1,0-2.87435A1.43808,1.43808,0,0,1,391.16908,237.58161Zm2.48137,29.73036a1.438,1.438,0,0,1,0-2.87435A1.438,1.438,0,0,1,393.65045,267.312Zm5.26005-45.52968a1.43808,1.43808,0,0,1,0-2.87434A1.43808,1.43808,0,0,1,398.9105,221.78229Zm5.883,26.2428a1.438,1.438,0,0,1,0,2.87435A1.438,1.438,0,0,1,404.79346,248.02509Zm1.552,33.84065a1.43808,1.43808,0,0,1,0-2.87434A1.43808,1.43808,0,0,1,406.34548,281.86574Zm.92958-78.66132a1.43808,1.43808,0,0,1,0-2.87435A1.43808,1.43808,0,0,1,407.27506,203.20442Zm4.024,62.862a1.43808,1.43808,0,0,1,0-2.87435A1.43808,1.43808,0,0,1,411.2991,266.06643Zm1.2456-31.27291a1.43784,1.43784,0,0,1,0-2.87435A1.43784,1.43784,0,0,1,412.5447,234.79352Zm7.74141-17.03532a1.438,1.438,0,0,1,0-2.87435A1.438,1.438,0,0,1,420.28611,217.7582Z"/><path d="M288.92954,246.702c.3097,2.57441.52537,5.15368.72654,7.73364.21122,2.57944.35485,5.16239.498,7.74533.123,2.58395.24421,5.16806.29895,7.75551.06315,2.5871.11321,5.17479.06713,7.76744-.31111-2.57429-.52631-5.15355-.72818-7.73352-.21029-2.5795-.35415-5.16238-.49637-7.74539-.12187-2.58406-.24327-5.16812-.2973-7.75563C288.93445,251.88229,288.88486,249.29455,288.92954,246.702Z"/><path d="M324.43174,249.67653a18.05469,18.05469,0,0,1-4.19058.42965l.42947-.42959a17.78047,17.78047,0,0,1-.42947,4.11346,17.78023,17.78023,0,0,1-.4297-4.11346l-.00468-.43321.43438.00351A18.04871,18.04871,0,0,1,324.43174,249.67653Z"/><path d="M364.31331,283.28549c-.55649,8.89152-1.08022,17.78479-1.51343,26.678-.21357,4.44573-.40655,8.89479-.46807,13.3359.00211,1.10788-.03228,2.22132-.00023,3.32405.0145.55128.01123,1.10647.04023,1.65419l.16842,1.62337c.0786,1.07659.31579,2.176.47485,3.26644q.24807,1.63884.57566,3.2744c1.66384,8.72766,3.6568,17.41263,5.64039,26.09222l5.93957,26.05485,2.85143,13.06029c.91437,4.36427,1.85775,8.71637,2.60043,13.13222.214,1.08957.32865,2.23143.44935,3.36557.054,1.12209.05707,2.23845.0545,3.35867a61.94621,61.94621,0,0,1-.37567,6.7109,31.78746,31.78746,0,0,1-.5635,3.33083,12.57369,12.57369,0,0,1-1.13916,3.22534c-.14035.255-.31953.49449-.47883.74127a7.0123,7.0123,0,0,1-.62455.65508,12.19739,12.19739,0,0,1-1.49168.87052l-2.90943,1.633q-5.80693,3.30434-11.66651,6.52681c-3.91152,2.13763-7.849,4.235-11.92522,6.07535-1.02291.45193-2.0526.893-3.11457,1.26852a15.82322,15.82322,0,0,1-1.61729.51462l-1.60068.37379a.79062.79062,0,0,0-.66432.8952,3.20622,3.20622,0,0,0,.625,1.33834,13.81991,13.81991,0,0,0,2.26968,2.31681,30.02364,30.02364,0,0,0,5.51127,3.59364,22.062,22.062,0,0,0,6.14307,2.17915,8.10653,8.10653,0,0,0,3.12815-.00655,19.19917,19.19917,0,0,0,3.02265-1.15659c2.00488-.91777,3.97374-1.95027,5.934-2.99423,3.919-2.09693,7.798-4.28544,11.70534-6.43231,3.91807-2.134,7.81393-4.29854,11.94907-6.12647a20.39924,20.39924,0,0,1,3.27107-1.167,5.34182,5.34182,0,0,1,.95765-.14819c.35555-.02924.54759-.02584.82923-.03953a7.27591,7.27591,0,0,0,1.48278-.2228,2.89579,2.89579,0,0,0,2.01846-1.60314,6.88785,6.88785,0,0,0,.52186-2.89727,29.99015,29.99015,0,0,0-.97075-6.40073l-.41145-1.59717c-.1317-.5414-.2393-1.125-.35883-1.68594a30.62512,30.62512,0,0,1-.48607-3.38849,114.78259,114.78259,0,0,1-.27766-13.46087c.10877-4.47269.38689-8.93205.7359-13.38251q.51753-6.67676,1.23343-13.33222c2.47435-17.58853,1.37448-35.59431-5.23244-52.31554a17.50647,17.50647,0,0,1-.15065-6.88973c.215-1.15408.54035-2.212.81426-3.28961l.85543-3.22949,3.42124-12.91818,6.93394-25.813.16655.04245-6.257,25.98538-3.17423,12.98111-.79344,3.24528c-.2552,1.08489-.56093,2.1678-.73192,3.20855a16.59588,16.59588,0,0,0,.2283,6.38138,19.83421,19.83421,0,0,0,1.00116,3.06919l1.18758,3.1609c.39509,1.05419.67859,2.14406,1.02291,3.215.353,1.06964.62409,2.16026.88678,3.25335a88.449,88.449,0,0,1,2.26312,13.27432,108.38993,108.38993,0,0,1,.45286,13.44964c-.07579,2.24325-.18128,4.48544-.39485,6.72564l-.73519,6.65079c-.913,8.84268-1.63086,17.71566-1.94126,26.58162a113.232,113.232,0,0,0,.18315,13.24263,29.054,29.054,0,0,0,.4393,3.22311c.11017.52842.19625,1.04268.324,1.58373l.41122,1.64068a31.41622,31.41622,0,0,1,.97285,6.79055,8.39643,8.39643,0,0,1-.71063,3.6065,4.41551,4.41551,0,0,1-1.25823,1.56652,6.47673,6.47673,0,0,1-.86057.52128,7.21732,7.21732,0,0,1-.9125.32292,8.80717,8.80717,0,0,1-1.81448.26573c-.27438.013-.64023.01088-.839.0345a3.86869,3.86869,0,0,0-.69029.10632,19.9966,19.9966,0,0,0-3.025,1.04361c-4.04134,1.71717-7.9779,3.8265-11.90931,5.89735-3.93047,2.08745-7.842,4.22181-11.80756,6.27207-1.9857,1.02128-3.97819,2.03132-6.03711,2.939a19.91589,19.91589,0,0,1-3.22709,1.17484,9.04021,9.04021,0,0,1-3.50732-.03018,22.90905,22.90905,0,0,1-6.3702-2.3609,30.79771,30.79771,0,0,1-5.60273-3.77574,14.47082,14.47082,0,0,1-2.35389-2.48289,3.794,3.794,0,0,1-.7235-1.67565,1.3774,1.3774,0,0,1,.27438-1.01893,2.52463,2.52463,0,0,1,.39906-.34783l.44538-.19708,1.65237-.37953a15.28652,15.28652,0,0,0,1.56583-.48923c1.03835-.3607,2.06243-.79215,3.07762-1.234,8.0965-3.65574,15.82949-8.11907,23.5405-12.56591l2.90475-1.65881a12.29914,12.29914,0,0,0,1.388-.81484,6.88959,6.88959,0,0,0,.52023-.55555c.13848-.22315.29543-.43133.42128-.6642a11.96012,11.96012,0,0,0,1.05145-3.06405,27.30664,27.30664,0,0,0,.51391-3.259,61.252,61.252,0,0,0,.24608-6.63043c-.018-1.10619-.04211-2.219-.116-3.31891-.13965-1.078-.26339-2.15143-.49941-3.24545-1.69659-8.71146-3.87527-17.36643-5.897-26.03567-4.04766-17.35111-8.18889-34.67935-11.48943-52.23011q-.31824-1.64233-.55742-3.30948c-.1586-1.11332-.3759-2.20032-.44117-3.3492l-.14409-1.70272c-.01988-.56385-.007-1.12355-.01193-1.68542-.01239-1.12431.04141-2.23769.05895-3.35674.13988-4.46567.41122-8.91485.70268-13.363.6035-8.89386,1.3691-17.77227,2.24278-26.64034Z"/><path d="M260.3863,286.8096c-1.21682.51742-2.41447,1.08267-3.61211,1.68629.11485-.10538.22993-.21076.35438-.30661A5.565,5.565,0,0,1,260.3863,286.8096Z" fill="#fff"/><path d="M334.42927,275.09186a.24064.24064,0,0,1-.0669.01918c-.03836-.48865-.07672-.9677-.11509-1.45635C334.31442,274.13374,334.372,274.6128,334.42927,275.09186Z" fill="#fff"/><ellipse cx="481.53303" cy="341.29457" rx="49.9641" ry="7.22621"/><polygon points="434.628 344.861 435.485 363.937 436.252 383.017 437.641 421.181 436.786 421.146 441.225 383.969 443.514 365.388 445.89 346.818 443.928 365.437 441.877 384.045 437.638 421.245 436.783 421.21 435.589 383.039 435.063 363.951 434.628 344.861"/><polygon points="478.092 344.861 478.949 363.937 479.716 383.017 481.105 421.181 480.25 421.146 484.689 383.969 486.978 365.388 489.354 346.818 487.392 365.437 485.342 384.045 481.103 421.245 480.248 421.21 479.053 383.039 478.527 363.951 478.092 344.861"/><polygon points="516.794 344.861 517.651 363.937 518.417 383.017 519.807 421.181 518.952 421.146 523.391 383.969 525.68 365.388 528.056 346.818 526.094 365.437 524.044 384.045 519.805 421.245 518.949 421.21 517.754 383.039 517.229 363.951 516.794 344.861"/><path d="M409.05328,141.16006l9.33321-7.573,4.737-3.89252,4.842-3.92655c3.23481-2.623,6.48623-5.2694,9.81928-7.84557,3.33-2.57926,6.72435-5.06116,10.06232-7.53949l.01895-.01409a.48532.48532,0,0,1,.58689.0069c2.63482,2.0536,5.26285,4.11638,7.92527,6.133q3.99048,3.02847,8.0565,5.95559c5.38776,3.94767,10.8871,7.74463,16.32469,11.6251a.66177.66177,0,0,1-.30994,1.19613l-.026.00286c-5.98027.65251-11.9968,1.2418-18.03484,1.814-6.03945.58554-12.10464,1.09361-18.10479,1.52846l-17.84326,1.26033Zm.16-.06316,18.22735-1.98284,17.77169-1.99149c5.8715-.64906,11.67774-1.225,17.51017-1.72331,5.83337-.51181,11.6885-1.00642,17.57988-1.43782l-.3359,1.19882c-5.29841-4.06831-10.53506-8.22018-15.88329-12.2213q-3.99363-3.02451-8.04761-5.96764c-2.7057-1.95775-5.44554-3.86942-8.17884-5.79021l.60561-.00713c-3.16558,2.58-6.27477,5.15642-9.44853,7.63551-3.17048,2.48218-6.4226,4.894-9.69133,7.32943l-4.91338,3.66094-5.01818,3.695Z"/><path d="M419.663,136.54486a7.41215,7.41215,0,0,1,.67391,2.04892,11.32226,11.32226,0,0,1,.186,2.04892,11.13241,11.13241,0,0,1-.18362,2.04892,7.328,7.328,0,0,1-.67625,2.04892,7.3213,7.3213,0,0,1-.67648-2.04892,11.13241,11.13241,0,0,1-.18362-2.04892,11.32136,11.32136,0,0,1,.186-2.04892A7.42086,7.42086,0,0,1,419.663,136.54486Z"/><path d="M464.87825,130.75371a11.22579,11.22579,0,0,1,.67414,2.59371,18.04578,18.04578,0,0,1,.186,2.59365,17.74607,17.74607,0,0,1-.18363,2.5937,11.07127,11.07127,0,0,1-.67648,2.59371,11.08233,11.08233,0,0,1-.67625-2.59371,17.74606,17.74606,0,0,1-.18362-2.5937,18.0472,18.0472,0,0,1,.186-2.59365A11.214,11.214,0,0,1,464.87825,130.75371Z"/><path d="M436.38648,101.48756a58.3941,58.3941,0,0,1,2.66522-5.67682,38.08775,38.08775,0,0,1,3.39037-5.3452,10.39613,10.39613,0,0,1,2.389-2.34078,2.79114,2.79114,0,0,1,2.058-.4631,2.47934,2.47934,0,0,1,.5876.24047c.15859.11789.31461.24526.46245.37771a3.8417,3.8417,0,0,1,.56093.84853,9.65993,9.65993,0,0,1,.74572,3.31662c.10643,1.07677.09988,2.15816.113,3.18891-.015,4.162-.0517,8.324-.18854,12.48608-.12608,4.162-.31321,8.324-.67133,12.486-.35813-4.162-.54526-8.324-.67134-12.486-.13661-4.162-.17333-8.324-.1883-12.48608.0007-1.0487.01871-2.05308-.06713-3.049a8.90144,8.90144,0,0,0-.53871-2.75856,2.41329,2.41329,0,0,0-.26573-.46514.63263.63263,0,0,1-.135-.12438c-.04374-.041-.08935-.02374-.12678-.05883a1.34356,1.34356,0,0,0-.894.23175,10.517,10.517,0,0,0-2.14453,1.91448,48.94638,48.94638,0,0,0-3.69633,4.92092C438.60188,97.95685,437.49734,99.719,436.38648,101.48756Z"/><path d="M454.97874,133.52554l9.333-7.57305L469.049,122.06l4.842-3.92662c3.23458-2.62294,6.48623-5.2694,9.81929-7.84556,3.33-2.57927,6.72435-5.06116,10.06232-7.53949l.01894-.014a.48524.48524,0,0,1,.58689.00685c2.63482,2.05365,5.26286,4.11637,7.925,6.133q3.99083,3.02847,8.0565,5.95554c5.388,3.94772,10.88734,7.74463,16.32493,11.6251a.66177.66177,0,0,1-.31018,1.19618l-.02573.00281c-5.98027.65251-11.99679,1.2418-18.03484,1.814-6.03945.58555-12.10463,1.09361-18.10478,1.52846l-17.84327,1.26033Zm.16-.06321,18.22735-1.98284,17.77169-1.99144c5.87126-.64911,11.67773-1.22495,17.50993-1.72336,5.83361-.51175,11.68873-1.00642,17.58012-1.43782l-.33591,1.19887c-5.2984-4.06836-10.53506-8.22018-15.88329-12.22129q-3.99363-3.02462-8.04761-5.96764c-2.70569-1.95781-5.44577-3.86942-8.17883-5.79022l.6056-.00719c-3.1658,2.58-6.27477,5.15648-9.44852,7.63551-3.17049,2.48219-6.42261,4.89409-9.69133,7.32949l-4.91339,3.66089-5.01818,3.695Z"/><path d="M510.80371,123.11914a11.22686,11.22686,0,0,1,.67414,2.5937,18.07905,18.07905,0,0,1,.186,2.59371,17.74448,17.74448,0,0,1-.18362,2.59365,11.08229,11.08229,0,0,1-.67648,2.59371,11.08229,11.08229,0,0,1-.67648-2.59371,17.77614,17.77614,0,0,1-.18339-2.59365,18.07871,18.07871,0,0,1,.18573-2.59371A11.22636,11.22636,0,0,1,510.80371,123.11914Z"/><path d="M482.31193,93.853a58.38767,58.38767,0,0,1,2.66523-5.67676,38.10813,38.10813,0,0,1,3.39013-5.34525,10.40362,10.40362,0,0,1,2.38921-2.34079,2.79119,2.79119,0,0,1,2.058-.46309,2.4786,2.4786,0,0,1,.58759.24047c.1586.11789.31462.24531.46245.37777a3.84068,3.84068,0,0,1,.56093.84847,9.6541,9.6541,0,0,1,.74549,3.31668c.10666,1.07676.10011,2.15815.11321,3.1889-.0152,4.162-.05169,8.324-.18853,12.486-.12608,4.162-.31321,8.324-.67134,12.486-.35812-4.162-.54525-8.324-.67133-12.486-.13661-4.162-.17333-8.324-.18831-12.486.00071-1.04876.01872-2.05307-.06713-3.049a8.89408,8.89408,0,0,0-.53894-2.75856,2.39886,2.39886,0,0,0-.26549-.46508.63143.63143,0,0,1-.135-.12445c-.04374-.04093-.08936-.02374-.12678-.05883a1.34347,1.34347,0,0,0-.894.23181,10.51088,10.51088,0,0,0-2.14453,1.91442,48.95477,48.95477,0,0,0-3.69632,4.92093C484.52734,90.32233,483.42256,92.08441,482.31193,93.853Z"/><polygon points="317.55 270.866 318.379 263.876 318.409 270.915 317.55 270.866"/><path d="M324.36438,272.50119c-.00445-1.03408.03134-2.053.11462-3.076.04631-.51069.10151-1.02063.19251-1.52606a3.94362,3.94362,0,0,1,.49145-1.44746,3.85138,3.85138,0,0,0-.27789,1.47115c-.01824.50256-.0014,1.00636.02409,1.50881.05989,1.00384.168,2.01266.31251,3Z"/><path d="M330.6616,273.61036c.00561-.84274.03275-1.675.084-2.5109a11.97843,11.97843,0,0,1,.34455-2.48,11.80956,11.80956,0,0,0,.08538,2.4702c.0917.81941.208,1.64121.34339,2.44921Z"/><path d="M335.58073,106.75235s8.55532-5.16158,8.09078-11.36746l-7.62623,2.52917S334.70327,103.0996,335.58073,106.75235Z"/></svg>