<svg id="Layer_1" data-name="Layer 1" xmlns="http://www.w3.org/2000/svg" viewBox="0 0 700 550"><title>having coffee at home</title><path d="M315.59756,101.08186s12.5277,14.3433,17.97452,12.89082c0,0,4.539-3.2681,3.63122,4.539s-4.90215,5.80994-4.90215,5.80994-5.75142,12.5277,5.02219,17.6114,8.05019,1.45248,22.39349,3.44965c0,0-13.07237-39.94337-22.05963-45.57175s-23.51212-1.63405-23.51212-1.63405-9.80429,3.81278-10.53053,16.70359,3.44966,34.67811,3.44966,34.67811,5.283-1.174,8.09834-4.14888a4.8707,4.8707,0,0,0-.83451-7.2525c-1.33378-.95785-3.12479-2.17242-5.0851-3.305C305.15782,132.49188,306.338,101.71733,315.59756,101.08186Z"/><path d="M309.8784,118.29988a1.51392,1.51392,0,0,0,0-3.026,1.51392,1.51392,0,0,0,0,3.026Z"/><path d="M320.4997,118.02754a1.51392,1.51392,0,0,0,0-3.026,1.51392,1.51392,0,0,0,0,3.026Z"/><path d="M315.74789,110.87332a1.31551,1.31551,0,0,0,0-2.62944,1.31551,1.31551,0,0,0,0,2.62944Z" fill="#b21919"/><path d="M310.96778,126.3188a21.76414,21.76414,0,0,0,2.01448,1.09861,6.32746,6.32746,0,0,0,2.02015.59607,3.36459,3.36459,0,0,0,1.9526-.38,9.12282,9.12282,0,0,0,1.81986-1.31472,4.18916,4.18916,0,0,1-1.40033,1.98076,3.41219,3.41219,0,0,1-2.46289.71789,4.87672,4.87672,0,0,1-2.32693-.92417A5.47343,5.47343,0,0,1,310.96778,126.3188Z"/><path d="M320.4997,135.39686a15.17787,15.17787,0,0,0,4.38906-1.914,11.67647,11.67647,0,0,0,1.83594-1.46384c.58918-.53937,1.0911-1.16633,1.6729-1.79667a6.38848,6.38848,0,0,1-1.07852,2.31266,7.013,7.013,0,0,1-1.879,1.79182,7.21112,7.21112,0,0,1-2.38739,1.01455A5.78787,5.78787,0,0,1,320.4997,135.39686Z"/><path d="M308.29133,112.07677a7.92992,7.92992,0,0,1,1.41407-.40645,7.56127,7.56127,0,0,1,1.48226-.175,4.47862,4.47862,0,0,1,2.9785.88025l.2214.17889-.10813.31192c-.34485.99534-.6635,2.02541-.91846,3.04993a13.74933,13.74933,0,0,0-.47637,3.07183,2.96676,2.96676,0,0,0,.26327,1.35694,1.26908,1.26908,0,0,0,1.07835.61672,6.94363,6.94363,0,0,0,1.55612.13318c.48338-.03289,1.09185-.18947,1.17694-.76765a.79971.79971,0,0,1-.33309.75227,2.10655,2.10655,0,0,1-.78391.36435,5.40974,5.40974,0,0,1-1.683.13667,2.32414,2.32414,0,0,1-.90935-.15971,1.80135,1.80135,0,0,1-.7808-.64417,3.45248,3.45248,0,0,1-.50555-1.7612,11.55028,11.55028,0,0,1,.42689-3.34548,21.68947,21.68947,0,0,1,1.07543-3.13271l.11321.49052a4.2545,4.2545,0,0,0-2.41979-.96124A12.52623,12.52623,0,0,0,308.29133,112.07677Z"/><path d="M318.321,112.49583a4.60061,4.60061,0,0,1,1.77237-.93928,6.7367,6.7367,0,0,1,1.99459-.28828,6.23276,6.23276,0,0,1,3.76785,1.22756c-.68046-.02111-1.3032-.10687-1.92851-.14339-.62081-.05029-1.23391-.07354-1.84524-.07611-.61251-.02076-1.22349.02064-1.84489.051C319.61457,112.36893,318.99007,112.42431,318.321,112.49583Z"/><path d="M333.39052,126.803c3.89419,0,3.90064-6.052,0-6.052-3.89419,0-3.90064,6.052,0,6.052Z" fill="#b21919"/><path d="M315.16258,145.40971a28.98564,28.98564,0,0,0,5.76366,1.23332,23.31172,23.31172,0,0,0,5.80285-.08386,21.3275,21.3275,0,0,0,2.83628-.57751,21.827,21.827,0,0,0,2.71674-1.01794,26.62841,26.62841,0,0,0,5.04122-3.03069c-.34192.35906-.69268.71423-1.05344,1.06148a9.57864,9.57864,0,0,1-1.11565,1.00949l-1.21648.899a11.78964,11.78964,0,0,1-1.30735.76657,17.76386,17.76386,0,0,1-2.786,1.22548,20.455,20.455,0,0,1-2.97628.66253,18.993,18.993,0,0,1-6.05553-.13874A18.12436,18.12436,0,0,1,315.16258,145.40971Z"/><path d="M307.08386,149.60667l-6.32933,3.28577-3.17873,1.61323a35.10332,35.10332,0,0,0-3.099,1.65758,14.45285,14.45285,0,0,0-4.13661,5.47934,42.0751,42.0751,0,0,0-2.43213,6.61362,115.14558,115.14558,0,0,0-2.95236,13.87747,139.08335,139.08335,0,0,0-1.51173,14.15048l-.02263-.089a3.82722,3.82722,0,0,0,2.272,1.59483,10.43152,10.43152,0,0,0,2.867.4109,23.50523,23.50523,0,0,0,5.80191-.68174l.26848-.06477.00339.27839.20327,16.46015-.423-.42294,15.2771-.10214,15.277.0181,15.277.18032,7.63855.09684,7.63855.17947v.10088l-7.63855.1795-7.63855.09684-15.277.18029-15.277.01813-15.2771-.10216-.4283-.00287.00521-.42026.20321-16.46015.27175.21347a26.404,26.404,0,0,1-5.91477.59865,10.75044,10.75044,0,0,1-2.9544-.45385,4.33032,4.33032,0,0,1-2.45231-1.73062l-.025-.04073.00234-.04857q.33754-7.13349,1.1839-14.22826a89.65588,89.65588,0,0,1,2.73973-14.03887,42.901,42.901,0,0,1,2.56622-6.71953,14.46372,14.46372,0,0,1,4.48117-5.68474c4.3024-2.22819,8.61567-4.07778,12.947-6.08393Z"/><path d="M365.21909,194.64992c.0652-.96291.12509-1.92319.15093-2.88382.0131-.96081.00521-1.92012-.04573-2.87464a22.60914,22.60914,0,0,0-.3049-2.8395,12.26972,12.26972,0,0,0-.74268-2.671l-.98911-2.2943,1.62559,1.87378,2.81353,3.243c.933,1.08519,1.88781,2.1517,2.79821,3.2561l-.42836-.14734c1.13618-.27388,2.283-.513,3.41241-.81478,1.11109-.35877,2.26482-.60216,3.35463-1.03072l1.65115-.60236c.5504-.20237,1.0746-.46567,1.61419-.69581a31.63181,31.63181,0,0,0,3.138-1.59337,30.31547,30.31547,0,0,0,5.60771-4.238,22.42669,22.42669,0,0,0,4.28736-5.49224l-.00052.2676c-.96824-1.66638-1.88664-3.35764-2.86868-5.00782l-1.58658-2.40547a26.29878,26.29878,0,0,0-1.64062-2.36321l-1.74267-2.28854c-.56958-.77165-1.25285-1.44945-1.873-2.17851-1.21688-1.4834-2.6154-2.79341-3.96345-4.15319a55.01865,55.01865,0,0,0-9.17467-6.87174,37.952,37.952,0,0,0-10.59758-4.4136l.01339-.1a33.93664,33.93664,0,0,1,10.966,3.83267,48.22516,48.22516,0,0,1,9.49789,6.79257,55.82938,55.82938,0,0,1,7.65492,8.8178,26.92569,26.92569,0,0,1,1.62267,2.42549l1.53477,2.48146c.95338,1.6934,1.80349,3.4439,2.69552,5.16537l.07339.14175-.074.1262a25.28289,25.28289,0,0,1-4.58146,5.47992,40.41092,40.41092,0,0,1-5.65735,4.30164,43.85087,43.85087,0,0,1-6.35792,3.20683,16.81393,16.81393,0,0,1-1.67074.62768l-1.69337.57151c-1.14513.32494-2.30786.58643-3.46206.88236l-.244.0626-.18462-.21c-.94478-1.07508-1.84506-2.18807-2.76733-3.28233l-2.752-3.29539.63648-.42052a11.15734,11.15734,0,0,1,.70339,2.91566,23.19139,23.19139,0,0,1,.17865,2.92291,28.90873,28.90873,0,0,1-.13941,2.90926q-.13922,1.44757-.388,2.87675Z"/><path d="M294.41549,170.13548l-.75542,3.4313-.29673,1.72738c-.10578.57367-.21391,1.14606-.27537,1.72652a56.56839,56.56839,0,0,0-.52842,6.95014,42.3484,42.3484,0,0,0,.51152,6.92073,28.36151,28.36151,0,0,0,1.74875,6.64409l-.08994-.12462a15.12878,15.12878,0,0,0,2.97645,2.10257,11.90613,11.90613,0,0,0,3.43691,1.25379,9.497,9.497,0,0,0,3.66322.0002,11.42787,11.42787,0,0,0,3.48487-1.3403,10.37366,10.37366,0,0,1-3.403,1.68889,4.51654,4.51654,0,0,1-.94028.21564c-.31935.04059-.63888.11345-.96185.12681l-.97251.00375c-.32455-.00255-.64431-.06377-.96776-.09357a12.60933,12.60933,0,0,1-3.70574-1.13995,13.75452,13.75452,0,0,1-3.239-2.1743l-.05772-.05155-.03245-.07339a27.59707,27.59707,0,0,1-1.92659-6.8852,43.286,43.286,0,0,1-.40455-7.09078c.06415-1.18124.10105-2.36506.28286-3.53451.12228-1.1756.3335-2.337.554-3.495.18157-1.165.54145-2.29406.81888-3.43486C293.66147,172.35943,294.04222,171.24576,294.41549,170.13548Z"/><path d="M284.59633,197.46806c-.3521,5.17175-.88069,10.32387-1.53267,15.46129-.66636,5.13571-1.38758,10.26658-2.45739,15.354-.26579,1.27121-.58766,2.53645-.91145,3.80123l-.54432,1.88413c-.153.60768-.35187,1.20051-.45163,1.83462a56.88561,56.88561,0,0,0-.93958,7.65148c-.33912,5.15653-.27281,10.32986-.30257,15.51265a60.3639,60.3639,0,0,1-.38579,7.83852,5.58348,5.58348,0,0,1-.20882,1.02513c-.096.3582-.19632.71634-.28544.9581-.17333.57252-.3245,1.1874-.451,1.80762-.25736,1.24051-.48508,2.49977-.6749,3.76506a114.53545,114.53545,0,0,0-1.138,15.32661,84.27664,84.27664,0,0,0,1.0608,15.29838,42.1,42.1,0,0,0,4.96227,14.46338l-.145.09842a37.14763,37.14763,0,0,1-6.162-14.29609,72.99128,72.99128,0,0,1-1.58571-15.5753,93.75935,93.75935,0,0,1,1.38-15.57955c.22953-1.28683.47216-2.57235.79642-3.8522.15866-.641.33959-1.27776.56824-1.934a9.02121,9.02121,0,0,0,.30415-.88893,4.469,4.469,0,0,0,.21058-.86538,73.97745,73.97745,0,0,0,.795-7.62412c.3345-5.15659.48742-10.3325.69408-15.50862.10515-2.5895.20877-5.18125.54555-7.78744.05971-.65163.22555-1.30431.34965-1.95927l.41479-1.87512c.24409-1.25873.46221-2.523.67174-3.79454,1.73776-10.15951,3.294-20.38873,5.249-30.56222Z"/><path d="M370.18622,189.748c1.41436,2.33432,2.73984,4.71458,4.10883,7.07238l.434.74742-.88069-.17008a111.81181,111.81181,0,0,1-10.87418-2.7078,62.08481,62.08481,0,0,1-10.499-4.13042c-.84788-.41856-1.67349-.95671-2.4747-1.455-.77847-.51487-1.55454-1.033-2.31874-1.56781l-4.5655-3.22867c-3.01153-2.19509-5.99588-4.41754-8.91976-6.73157l-.03245-.02568-.01135-.01023a23.66071,23.66071,0,0,0-3.27715-2.47368,9.37915,9.37915,0,0,0-3.70492-1.48168,3.96853,3.96853,0,0,0-.95554-.00573,8.71961,8.71961,0,0,0-.96624.27149,8.87029,8.87029,0,0,1-2.14647.39877,20.12323,20.12323,0,0,1-2.13938-.01246,4.5762,4.5762,0,0,0-1.03823.0326.76624.76624,0,0,0-.68847.65681.83154.83154,0,0,1,.65513-.78122,4.72905,4.72905,0,0,1,1.06689-.16576c.70987-.04479,1.41057-.0702,2.09477-.181a8.31231,8.31231,0,0,0,1.97231-.55356,9.31822,9.31822,0,0,1,1.04525-.39315,4.75087,4.75087,0,0,1,1.15355-.10275,10.01842,10.01842,0,0,1,4.212,1.34177,22.13263,22.13263,0,0,1,3.613,2.44634l-.04345-.03567,9.091,6.42964,4.57128,3.16853,2.2978,1.56085c.77245.48833,1.50127.9783,2.31769,1.39121a72.32814,72.32814,0,0,0,10.1408,4.25869c3.4896,1.21033,7.03715,2.30915,10.60219,3.30218l-.4466.57724C372.44806,194.70962,371.27269,192.25176,370.18622,189.748Z"/><path d="M320.81391,180.54809l.06742,1.033.0062.09567-.10661.06327a1.90313,1.90313,0,0,0-.62695.89853,4.21448,4.21448,0,0,0-.24631,1.15928,6.99224,6.99224,0,0,0,.0276,1.20317l.17135,1.24724a4.14149,4.14149,0,0,1-.09258,1.373,3.548,3.548,0,0,1-.65431,1.21115,1.12964,1.12964,0,0,0-.25187.88432,4.33028,4.33028,0,0,0,.29461,1.07224l-.22742-.26018a4.95833,4.95833,0,0,1,1.3315,1.03958,3.13409,3.13409,0,0,1,.80449,1.60606,16.9713,16.9713,0,0,1-.2421,3.1361,5.15987,5.15987,0,0,0,.04515,1.32378,2.60736,2.60736,0,0,0,.18087.57982c.115.25172.04918.15187.1948.26213a3.91472,3.91472,0,0,0,1.19735.34356c.465.07465.94922.12108,1.43957.15731,1.96564.13608,3.97872.1197,6.00571.1778,1.01565.03138,2.036.06535,3.07925.18471a11.817,11.817,0,0,1,1.6022.30312c.16363.06266.32754.13123.48789.20333l.36122.20377c.24871.13506.45152.27675.676.41544,3.40364,2.269,6.55523,4.71876,9.844,7.04929,3.27609,2.32888,6.57154,4.64093,10.00582,6.7323a89.634,89.634,0,0,0,21.79655,10.04624,40.00351,40.00351,0,0,0,11.68592,1.73462,17.19808,17.19808,0,0,0,10.69629-3.63065l.03281-.02637.04853-.03281c.12456-.08421.33871-.28666.5052-.426l.51052-.531a13.05429,13.05429,0,0,0,.90841-1.19309,15.16708,15.16708,0,0,0,.76666-1.31024c.2114-.46459.44385-.91876.64227-1.3896a18.33774,18.33774,0,0,0,.83244-2.97783c.08778-.51175.22854-1.01265.27538-1.53287l.12941-1.56451a42.68668,42.68668,0,0,0-1.46577-12.59939l-.95384-3.07724a30.14711,30.14711,0,0,0-1.04274-3.053l-1.16916-3.01692-.58374-1.51118-.67847-1.47243-1.35828-2.94836c-.45134-.9844-.89438-1.97412-1.41513-2.92516l-2.99663-5.78466.15012-.09049,3.439,5.55384a32.03184,32.03184,0,0,1,1.60319,2.84978l1.5229,2.89918.7621,1.45132.67016,1.497,1.31946,3.00817a31.08714,31.08714,0,0,1,1.16191,3.07715l1.07508,3.11768a40.74464,40.74464,0,0,1,1.81319,13.14237l-.11994,1.68535c-.0531.56076-.20362,1.11464-.3021,1.67206a20.19359,20.19359,0,0,1-.93157,3.28609c-.22251.5288-.48444,1.04493-.72712,1.56673a13.908,13.908,0,0,1-.89514,1.48931,10.40028,10.40028,0,0,1-2.479,2.61067l.08105-.05895a18.84347,18.84347,0,0,1-11.80329,3.8148,38.673,38.673,0,0,1-12.04632-2.223,85.67359,85.67359,0,0,1-11.15816-4.78578l-2.6944-1.38261-2.65827-1.44718c-1.73588-1.02837-3.49715-2.01082-5.24531-3.01841q-5.2359-3.03324-10.33267-6.30658l-5.06379-3.31255c-1.67266-1.11513-3.34013-2.27105-4.99426-3.339-.20438-.12471-.4166-.26959-.61209-.37213l-.29672-.1667a1.81309,1.81309,0,0,1-.20725-.09137,10.39969,10.39969,0,0,0-1.36507-.24684c-.95689-.11675-1.9498-.1797-2.94569-.22666-1.99664-.09684-4.01468-.1176-6.06512-.29883-.51263-.0481-1.03075-.10681-1.55835-.202a4.98229,4.98229,0,0,1-1.66945-.55309,1.77371,1.77371,0,0,1-.462-.40514,2.16792,2.16792,0,0,1-.25567-.49017,3.92889,3.92889,0,0,1-.24912-.86362,5.75063,5.75063,0,0,1,.00146-1.68611,18.67622,18.67622,0,0,0,.38877-2.85631,2.94117,2.94117,0,0,0-1.4867-1.93609l-.18257-.11195-.04509-.14848a5.159,5.159,0,0,1-.29368-1.35408,2.0441,2.0441,0,0,1,.4752-1.44384,3.1047,3.1047,0,0,0,.60654-.93492,3.44666,3.44666,0,0,0,.15216-1.10806l-.07789-1.24533a7.51821,7.51821,0,0,1,.0676-1.29823,4.64822,4.64822,0,0,1,.36888-1.26048,1.98707,1.98707,0,0,1,.91619-1.01005l-.10023.15869.03233-1.08788Z"/><path d="M384.71169,202.57434q-2.66671-1.45253-5.40443-2.75537a58.78631,58.78631,0,0,0-5.55337-2.3433l.3704-.93838a59.49147,59.49147,0,0,1,5.41811,2.83543Q382.17246,200.90718,384.71169,202.57434Z"/><path d="M324.07449,199.67848v2.89244a84.68422,84.68422,0,0,1-28.57335,0V175.82066a64.75963,64.75963,0,0,1,23.73515-.894.85185.85185,0,0,0-.00877.15776c0,1.83187-1.25337,3.76892,1.55139,3.76892,0,0-.04382.91152-.05259,1.6916H316.563v17.79258h4.05812a2.62361,2.62361,0,0,0,.15776.35934C321.06816,199.27533,322.35657,199.53827,324.07449,199.67848Z"/><path d="M322.97993,444.00538c.041.00114-2.66561-22.44009-2.66189-22.4002.17522,1.87779,3.11931,26.22716,3.4248,28.08033a34.374,34.374,0,0,0,1.24763,5.43619,10.74556,10.74556,0,0,0,.51468,1.25059c.096.20366.20356.38251.3158.5791.1212.21588.25471.42736.36227.64973a13.42573,13.42573,0,0,1,1.0601,2.74949,16.98049,16.98049,0,0,1,.56736,5.83283,11.87792,11.87792,0,0,1-.5937,2.9396,6.6233,6.6233,0,0,1-1.6246,2.67735,4.55993,4.55993,0,0,1-1.3695.92935,4.38965,4.38965,0,0,1-.78983.26913l-.7213.14182a13.51715,13.51715,0,0,0-2.53572.90683,20.86752,20.86752,0,0,1-5.67631,1.23207c-1.90461.18915-3.80473.2445-5.70036.25176-3.79118.00553-7.56718-.12331-11.3448-.23554q-2.83272-.08932-5.66324-.2321c-1.88886-.06165-3.7759-.15517-5.6639-.24164-7.55324-.33154-15.09036-.92992-22.61268-1.64206l-.03025-.00287a.75474.75474,0,0,1-.67855-.66747,2.27731,2.27731,0,0,1,.00535-.59953,3.51063,3.51063,0,0,1,.091-.47717,4.48293,4.48293,0,0,1,.31656-.84785,4.84519,4.84519,0,0,1,.42622-.75146,5.57988,5.57988,0,0,1,.4976-.67492,12.06021,12.06021,0,0,1,2.36794-2.175,29.0655,29.0655,0,0,1,5.44068-2.97415c.94787-.38384,1.89974-.7568,2.86049-1.09388.96228-.31532,1.93562-.66041,2.88826-.95016,1.912-.60181,3.82878-1.1834,5.72651-1.81422a72.47384,72.47384,0,0,0,11.05363-4.47879,18.264,18.264,0,0,0,4.70917-3.49943c3.483-2.5923,1.97007-25.36314,2.04909-27.36518a3.24241,3.24241,0,0,1,.69737-.08495c.04141.00172-.31944,22.10784-.31687,22.1485a8.45841,8.45841,0,0,1-1.95337,5.70475,17.901,17.901,0,0,1-4.70039,3.9327,62.78516,62.78516,0,0,1-11.06307,5.00636c-1.89583.68943-3.795,1.36225-5.70619,1.99117-.96456.30882-1.87874.652-2.82021.97573-.92821.342-1.84229.7171-2.749,1.10018a28.0837,28.0837,0,0,0-5.11639,2.78175,11.21836,11.21836,0,0,0-2.08832,1.85031,4.13811,4.13811,0,0,0-.40617.52737,3.34127,3.34127,0,0,0-.32782.54952,2.89348,2.89348,0,0,0-.22342.55429,1.97145,1.97145,0,0,0-.05659.26035c-.01613.06661-.01184.19678-.02062.151l-.7086-.67015q11.249,1.248,22.50951,2.38226c1.87855.16854,3.75729.34433,5.63813.48806,1.88151.1336,3.76484.23553,5.64835.32772a106.52778,106.52778,0,0,0,11.30071-.00363c1.877-.10784,3.7508-.26931,5.59281-.54932a20.628,20.628,0,0,0,5.29752-1.421,14.51171,14.51171,0,0,1,2.76133-1.06009l.38117-.07273.28593-.06184a2.9589,2.9589,0,0,0,.54589-.18972,3.13133,3.13133,0,0,0,.95435-.6587,7.70192,7.70192,0,0,0,1.84153-4.70841,16.64537,16.64537,0,0,0-.39577-5.39725,14.62159,14.62159,0,0,0-.874-2.56206c-.08733-.208-.19774-.40141-.29681-.60278-.11146-.21892-.23391-.45236-.32763-.6814a11.75344,11.75344,0,0,1-.49225-1.39355,29.68573,29.68573,0,0,1-.96161-5.65627c-.14936-1.8944-2.81583-26.26553-2.76992-28.16088" fill="#020202"/><path d="M317.44257,454.49889a4.33009,4.33009,0,0,1,.4746,1.98048,4.527,4.527,0,0,1-.45561,2.04709,4.01265,4.01265,0,0,1-1.38334,1.58957,4.31348,4.31348,0,0,1-1.90489.72894,12.255,12.255,0,0,0,1.50807-1.212,4.98955,4.98955,0,0,0,1.06172-1.46016A8.17842,8.17842,0,0,0,317.44257,454.49889Z" fill="#020202"/><path d="M325.22851,470.99454s4.554,1.58119,2.03786,9.85038c0,0,.36845,3.07691-10.593,2.5l-55.19206.07206s-4.08537-9.03,4.39959-10.801l13.85553,1.2824s-3.44749-8.24569-2.486-10.938A12.7699,12.7699,0,0,1,291.8455,457.415s-.56961,13.231,9.62912,17.75353C301.47462,475.16854,316.47608,474.41333,325.22851,470.99454Z" fill="#020202"/><path d="M374.42325,423.47328c-.17522,1.87779,6.72619,24.35906,6.4207,26.21223-.319,1.84648,3.63717,3.70213,3.03392,5.43619a10.74556,10.74556,0,0,1-.51468,1.25059c-.096.20366-.20356.38251-.3158.5791-.1212.21588-.25471.42736-.36227.64973a13.42573,13.42573,0,0,0-1.0601,2.74949,16.98049,16.98049,0,0,0-.56736,5.83283,11.87747,11.87747,0,0,0,.5937,2.9396,6.6233,6.6233,0,0,0,1.6246,2.67735,4.55981,4.55981,0,0,0,1.3695.92935,4.38982,4.38982,0,0,0,.78982.26913l.72131.14182a13.51715,13.51715,0,0,1,2.53572.90683,20.86752,20.86752,0,0,0,5.67631,1.23207c1.90461.18915,3.80473.2445,5.70036.25176,3.79118.00553,7.56718-.12331,11.3448-.23554q2.83272-.08932,5.66324-.2321c1.88886-.06165,3.7759-.15517,5.6639-.24164,7.55324-.33154,15.09036-.92992,22.61268-1.64206l.03025-.00287a.75474.75474,0,0,0,.67855-.66747,2.27731,2.27731,0,0,0-.00535-.59953,3.51063,3.51063,0,0,0-.091-.47717,4.48293,4.48293,0,0,0-.31656-.84785,4.84519,4.84519,0,0,0-.42622-.75146,5.57988,5.57988,0,0,0-.4976-.67492,12.06021,12.06021,0,0,0-2.36794-2.175,29.06526,29.06526,0,0,0-5.44069-2.97415c-.94786-.38384-1.89973-.7568-2.86048-1.09388-.96228-.31532-1.93563-.66041-2.88826-.95016-1.912-.60181-3.82878-1.1834-5.72651-1.81422a72.47384,72.47384,0,0,1-11.05363-4.47879,18.26382,18.26382,0,0,1-4.70917-3.49943c-3.48295-2.5923-14.55458-21.73514-14.6336-23.73719a3.24249,3.24249,0,0,0-.69737-.08495c-.04142.00172,13.55912,22.62194,14.85475,24.22526a17.901,17.901,0,0,0,4.70039,3.9327,62.78516,62.78516,0,0,0,11.06307,5.00636c1.89583.68943,3.795,1.36225,5.70618,1.99117.96457.30882,1.87875.652,2.82022.97573.9282.342,1.84229.7171,2.749,1.10018a28.0837,28.0837,0,0,1,5.11639,2.78175,11.21836,11.21836,0,0,1,2.08832,1.85031,4.13811,4.13811,0,0,1,.40617.52737,3.34127,3.34127,0,0,1,.32782.54952,2.89348,2.89348,0,0,1,.22342.55429,1.97145,1.97145,0,0,1,.05659.26035c.01613.06661.01183.19678.02062.151l.7086-.67015q-11.249,1.248-22.50951,2.38226c-1.87855.16854-3.75729.34433-5.63813.48806-1.88151.1336-3.76484.23553-5.64835.32772a106.52778,106.52778,0,0,1-11.30071-.00363c-1.877-.10784-3.75081-.26931-5.59281-.54932a20.62774,20.62774,0,0,1-5.29752-1.421,14.51156,14.51156,0,0,0-2.76134-1.06009L386.06,471.678l-.28593-.06184a2.9589,2.9589,0,0,1-.54589-.18972,3.13149,3.13149,0,0,1-.95436-.6587,7.70191,7.70191,0,0,1-1.84152-4.70841,16.64537,16.64537,0,0,1,.39577-5.39725,14.62159,14.62159,0,0,1,.874-2.56206c.08732-.208.19774-.40141.29681-.60278.11146-.21892.23391-.45236.32763-.6814a11.75344,11.75344,0,0,0,.49225-1.39355c.52642-1.87226-3.47445-3.76112-3.31994-5.65627" fill="#020202"/><path d="M391.42577,454.49889a4.33009,4.33009,0,0,0-.4746,1.98048,4.527,4.527,0,0,0,.45561,2.04709,4.01265,4.01265,0,0,0,1.38334,1.58957,4.31348,4.31348,0,0,0,1.90489.72894,12.255,12.255,0,0,1-1.50807-1.212,4.98936,4.98936,0,0,1-1.06172-1.46016A8.17842,8.17842,0,0,1,391.42577,454.49889Z" fill="#020202"/><path d="M383.63983,470.99454s-4.554,1.58119-2.03786,9.85038c0,0-.36845,3.07691,10.593,2.5l55.19205.07206s4.08538-9.03-4.39958-10.801l-13.85553,1.2824s3.44749-8.24569,2.486-10.938a12.7699,12.7699,0,0,0-14.59506-5.54538s.56961,13.231-9.62913,17.75353C407.39371,475.16854,392.39226,474.41333,383.63983,470.99454Z" fill="#020202"/><path d="M361.17113,217.45806c-1.94494-1.05391-3.82287-2.16535-5.65284-3.26715H343.561a24.84222,24.84222,0,0,0,2.88394,6.96546,17.39923,17.39923,0,0,0,2.25155,2.88394,16.83547,16.83547,0,0,0,2.74985,2.40487,27.79625,27.79625,0,0,0,6.55347,3.45879,48.26935,48.26935,0,0,0,7.3392,2.08868C363.806,225.85116,362.34007,220.70608,361.17113,217.45806Zm13.37532,70.3257c0-13.04-4.85765-38.41088-9.20748-55.79111a22.30659,22.30659,0,0,1-7.78948-.67063,21.25866,21.25866,0,0,1-7.22423-3.32469,16.58365,16.58365,0,0,1-5.193-6.11278,15.58567,15.58567,0,0,1-1.18806-3.4013l1.3318,20.79112.79519,11.77522.40245,5.88284.45988,5.87325c.297,3.92825.61321,7.847.9773,11.756l.52695,5.87326.594,5.86366c.86227,7.80866,1.78208,15.61733,3.05639,23.39722a205.25944,205.25944,0,0,1-4.54146-23.21518c-1.14016-7.8086-1.87793-15.66516-2.52944-23.52172q-.90543-11.79915-1.22642-23.61752-.33051-10.99442-.05748-21.99835a15.82592,15.82592,0,0,1-.17246-3.15218h-40.03a13.97541,13.97541,0,0,1-1.36057,4.254c-.90063,6.39062-1.73419,12.78123-2.57733,19.17185-.891,6.97511-1.74372,13.95016-2.48149,20.93486-.74736,6.98464-1.351,13.97887-1.87793,20.99229-.43116,7.00382-.77607,14.01723-.88145,21.06895a180.96616,180.96616,0,0,1-.61321-21.14556c.22994-7.05178.74736-14.0939,1.466-21.11691.78566-7.01341,1.72459-14.00764,2.91265-20.954,1.03478-6.1415,2.26114-12.24469,3.71749-18.3a19.83706,19.83706,0,0,1-3.00849,4.06241,23.63727,23.63727,0,0,1-3.90907,3.27673,17.15454,17.15454,0,0,1-4.57023,2.23243c-4.95345,19.93838-12.34054,58.51213-9.60993,103.17947,3.68878,60.3038,3.59293,104.837,3.72708,113.66126.00959.73771.02877,1.22636.0479,1.44676.182,2.39529,30.48724,4.56059,48.16449,2.14617l-.05749-.02877a5.32162,5.32162,0,0,1-1.5905-1.83,21.88555,21.88555,0,0,1-1.79168-4.49357,79.72888,79.72888,0,0,1-1.99283-9.45659c-.91982-6.36191-1.43718-12.78129-1.84916-19.19109-.73777-12.82918-.79525-25.66789-.73777-38.50667.22035-12.82912.58444-25.6583,1.21683-38.47789q.4742-9.60031,1.07308-19.21021.53175-7.847,1.1497-15.69394-1.83954-9.26977-3.56417-18.56828c-1.2839-7.01342-2.54856-14.03642-3.7079-21.07855a14.92257,14.92257,0,0,1-3.32469-1.21682c-1.15928-.56526-2.28032-1.16887-3.38212-1.82039q-3.30547-1.94023-6.39061-4.17742c2.19406,1.2839,4.4073,2.51984,6.66844,3.66,1.13057.57491,2.28032,1.09227,3.43966,1.57133a14.88184,14.88184,0,0,0,3.51627,1.0156l.37368.04789.07667.38327c1.56167,7.08049,3.03721,14.17051,4.484,21.27971q2.15575,10.64951,4.187,21.33726,2.05515,10.6638,3.94743,21.37555l3.68872,21.433c-1.88745-7.00382-3.45878-14.08431-5.0301-21.16474-1.533-7.08049-3.02762-14.18015-4.43608-21.28936-.13409-.6611-.25865-1.3222-.38321-1.99289l-.91982,34.16643c-.31619,12.81959-.6994,25.62959-.76648,38.4396q-.33051,19.215.28743,38.42041c.22994,6.39067.58443,12.79088,1.303,19.14319a80.4309,80.4309,0,0,0,1.56173,9.43741,21.68026,21.68026,0,0,0,1.55215,4.49357,5.11441,5.11441,0,0,0,1.42758,1.84915,1.36421,1.36421,0,0,0,.20122.115q.99167-.1293,1.92583-.28742a31.46268,31.46268,0,0,0,6.908-1.83s-8.34521-79.88768-3.6313-99.49075l25.42843,102.69083s35.93887,5.87325,55.18744-7.19546C418.72515,442.96013,374.54645,307.63589,374.54645,287.78376ZM320.7866,221.42467c-3.708,0-3.708-5.7487,0-5.7487C324.48491,215.676,324.48491,221.42467,320.7866,221.42467Zm-26.377-7.23376s-1.77249,5.24086-4.0624,14.47711l3.64082-3.4013c1.18806-1.121,2.33781-2.27073,3.4492-3.43007,1.13062-1.15934,2.16535-2.37611,3.19054-3.63124,1.02519-1.26472,1.90664-2.61569,2.90312-4.0145Z"/><path d="M334.57963,448.98531a1.7422,1.7422,0,0,1-.77227.36549,1.6282,1.6282,0,0,1-1.13057-.24912.944.944,0,0,0,.22993-.02877,1.43673,1.43673,0,0,0,.891.21082A1.70769,1.70769,0,0,0,334.57963,448.98531Z" fill="#fff"/><path d="M334.83255,448.78549a2.08879,2.08879,0,0,1-.25292.19982A1.97789,1.97789,0,0,0,334.83255,448.78549Z" fill="#fff"/><polygon points="456.507 437.803 336.714 437.803 336.714 429.18 447.884 429.18 447.884 75.206 260.984 75.206 260.984 429.18 316.046 429.18 316.046 437.803 252.361 437.803 252.361 66.583 456.507 66.583 456.507 437.803"/><polygon points="574.187 463.794 549.808 437.803 447.884 437.803 447.884 66.583 559.481 66.583 559.481 75.206 456.507 75.206 456.507 429.18 553.543 429.18 580.476 457.895 574.187 463.794"/><polygon points="124.546 464.35 119.524 457.34 158.829 429.18 252.361 429.18 252.361 75.206 152.273 75.206 152.273 66.583 260.984 66.583 260.984 437.803 161.598 437.803 124.546 464.35"/><path d="M551.4842,153.61964H489.879c-8.3167-.34125-15.09328-7.849-15.09328-17.063,0-8.53151,5.54447-15.698,12.9371-16.72176v-.34126c0-11.26159,8.31671-20.47562,18.48157-20.47562,6.46855,0,12.013,3.75387,15.40132,9.214a12.82239,12.82239,0,0,1,8.00867-2.73009c7.70066,0,13.86118,6.82521,13.86118,15.35672v.68253a14.85383,14.85383,0,0,1,7.70066-2.38883c8.3167,0,15.40131,7.50773,15.40131,17.063,0,9.214-6.77658,17.063-15.40131,17.063Zm0,0" fill-rule="evenodd"/><path d="M214.89907,121.74905H177.79718c-5.00876-.20552-9.09-4.72707-9.09-10.27624,0-5.13812,3.33917-9.45414,7.7914-10.07072v-.20552c0-6.78232,5.00876-12.33149,11.13057-12.33149a11.025,11.025,0,0,1,9.27547,5.54917,7.72228,7.72228,0,0,1,4.82324-1.6442c4.63774,0,8.34793,4.1105,8.34793,9.24862v.41105a8.94577,8.94577,0,0,1,4.63774-1.43868c5.00875,0,9.27547,4.52155,9.27547,10.27625,0,5.54916-4.08121,10.27624-9.27547,10.27624Zm0,0" fill-rule="evenodd"/><path d="M390.40286,103.7784H363.63011a7.18914,7.18914,0,0,1-6.55932-7.41534c0-3.70767,2.40955-6.82212,5.62228-7.267v-.1483c0-4.89413,3.61432-8.89841,8.03182-8.89841a7.95564,7.95564,0,0,1,6.69319,4.00428,5.57244,5.57244,0,0,1,3.48045-1.18646c3.3466,0,6.02387,2.96614,6.02387,6.67381v.29662a6.45526,6.45526,0,0,1,3.3466-1.03815c3.61431,0,6.69318,3.26275,6.69318,7.41534,0,4.00428-2.945,7.41535-6.69318,7.41535Zm0,0" fill-rule="evenodd"/><path d="M576.907,114.2316a32.13321,32.13321,0,0,1-1.623,9.92878,27.56739,27.56739,0,0,1-5.01514,9.0254,23.49591,23.49591,0,0,1-18.95413,8.29211,25.36373,25.36373,0,0,1-10.18418-2.661,29.68584,29.68584,0,0,1-8.26784-6.13325,29.31777,29.31777,0,0,1-8.151-18.452,25.60292,25.60292,0,0,1,7.15674-19.44626,27.135,27.135,0,0,1,8.83543-6.16763,26.62894,26.62894,0,0,1,10.61085-2.16462,25.94022,25.94022,0,0,1,10.53986,2.33543,24.12519,24.12519,0,0,1,8.45825,6.445,27.92894,27.92894,0,0,1,5.00531,9.05517A31.223,31.223,0,0,1,576.907,114.2316Zm-.45158,0a21.33138,21.33138,0,0,0-2.27575-9.47084,22.96,22.96,0,0,0-5.9894-7.40475,26.39817,26.39817,0,0,0-16.87556-6.07893,24.21322,24.21322,0,0,0-16.42737,6.52711,25.26756,25.26756,0,0,0-7.70271,16.42741,22.32952,22.32952,0,0,0,1.40431,9.41311,21.4258,21.4258,0,0,0,13.49619,12.87,25.79241,25.79241,0,0,0,9.22958,1.20364,28.89352,28.89352,0,0,0,16.91942-6.56728,23.27,23.27,0,0,0,5.97969-7.43446A20.923,20.923,0,0,0,576.45539,114.2316Z"/><path d="M182.92023,96.32175c-1.527,4.25594-3.16452,8.46641-4.74251,12.70138l-.82876-.34108C179.20888,104.56313,181.00926,100.41968,182.92023,96.32175Z"/><polygon points="168.501 133.602 163.521 145.833 158.452 158.027 156.869 157.375 161.851 145.145 166.922 132.952 168.501 133.602"/><path d="M148.02591,182.297c-1.861,4.11848-3.66153,8.26187-5.57373,12.3593,1.52571-4.25649,3.16312-8.467,4.74006-12.7024Z"/><path d="M540.91553,324.86036c-1.52688,4.256-3.1644,8.46644-4.74239,12.70141l-.82888-.34108C537.20423,333.10174,539.00468,328.95832,540.91553,324.86036Z"/><polygon points="526.497 362.14 521.516 374.371 516.448 386.566 514.864 385.914 519.847 373.684 524.918 361.491 526.497 362.14"/><path d="M506.02127,410.83557c-1.861,4.11849-3.66147,8.2619-5.57373,12.35932,1.52571-4.25649,3.16312-8.467,4.74-12.70241Z"/><polygon points="256.673 67.22 251.701 79.827 251.331 79.675 256.673 67.22"/><polygon points="241.806 104.646 231.821 129.427 230.541 128.9 240.891 104.269 241.806 104.646"/><polygon points="221.758 154.176 211.651 178.906 210.042 178.245 220.27 153.563 221.758 154.176"/><polygon points="201.485 203.613 191.257 228.294 189.766 227.681 199.873 202.95 201.485 203.613"/><polygon points="180.987 252.958 170.636 277.589 169.717 277.211 179.701 252.429 180.987 252.958"/><polygon points="160.195 302.182 154.852 314.637 159.824 302.029 160.195 302.182"/><polygon points="304.273 126.319 299.295 138.923 298.937 138.776 304.273 126.319"/><polygon points="288.981 164.772 278.573 190.582 277.296 190.057 288.07 164.397 288.981 164.772"/><polygon points="268.087 216.36 257.557 242.12 255.949 241.458 266.6 215.748 268.087 216.36"/><polygon points="246.968 267.856 236.316 293.566 234.826 292.952 245.356 267.192 246.968 267.856"/><polygon points="225.622 319.258 214.847 344.917 213.933 344.541 224.339 318.73 225.622 319.258"/><polygon points="203.979 370.538 198.642 382.994 203.619 370.389 203.979 370.538"/><path d="M326.93476,71.25215c-.26333,1.11271-.5811,2.203-.90806,3.28958-.33777,1.08206-.6735,2.165-1.05133,3.23063-.72607,2.14336-1.53267,4.25359-2.37476,6.34924l-1.64548-.67719c.87683-2.08131,1.78928-4.148,2.78213-6.18161.48163-1.02285,1.00542-2.02839,1.52711-3.03481C325.79688,73.22607,326.33863,72.2279,326.93476,71.25215Z"/><path d="M321.7284,86.24353c-.87677,2.08137-1.78782,4.1486-2.78073,6.18219-.48192,1.02274-1.00536,2.02843-1.52734,3.0347-.53339,1.00159-1.075,1.9998-1.67244,2.975.262-1.11329.57994-2.20354.906-3.29043.33749-1.0822.67356-2.165,1.051-3.23071.72613-2.14336,1.534-4.2531,2.37617-6.34869Z"/><path d="M283.283,362.49126c-.67005,2.16643-1.44822,4.28837-2.16891,6.434-.76181,2.12867-1.53285,4.25354-2.336,6.36517l-1.30385-.53657c.91578-2.06531,1.86366-4.11739,2.82078-6.16568C281.29328,366.55677,282.23408,364.50177,283.283,362.49126Z"/><path d="M268.59976,400.0301c-.916,2.06522-1.86383,4.11733-2.82095,6.16564-.99934,2.03092-1.94021,4.0859-2.99037,6.0959.66876-2.167,1.44688-4.28893,2.16646-6.435.76186-2.12864,1.533-4.25348,2.336-6.36522Z"/><path d="M391.08108,100.5493c-.66689,2.16775-1.44484,4.28976-2.16284,6.43646-.762,2.1286-1.53319,4.25342-2.33581,6.36526l-1.31648-.54174c.91631-2.06509,1.86407-4.11726,2.82108-6.16559C389.088,104.61345,390.029,102.55851,391.08108,100.5493Z"/><path d="M376.72975,137.29967c-.91659,2.065-1.86412,4.1172-2.8213,6.1655-1.00186,2.02986-1.94308,4.08472-2.9964,6.09343.66567-2.16827,1.44338-4.29038,2.1605-6.43746.7618-2.12865,1.53326-4.25336,2.33558-6.36535Z"/><polygon points="465.007 72.912 459.98 85.496 459.719 85.389 465.007 72.912"/><polygon points="449.527 111.67 438.961 137.798 437.837 137.335 448.722 111.339 449.527 111.67"/><polygon points="428.382 163.92 417.707 190.002 416.19 189.378 426.966 163.337 428.382 163.92"/><path d="M407.032,216.08512q-5.323,13.04729-10.72354,26.0626l-1.62191-.66745q5.31959-13.04868,10.72717-26.06113Z"/><polygon points="385.532 268.189 374.756 294.23 373.338 293.646 384.012 267.563 385.532 268.189"/><polygon points="363.886 320.232 353.001 346.228 352.191 345.895 362.757 319.767 363.886 320.232"/><polygon points="342.002 372.177 336.714 384.654 341.739 372.069 342.002 372.177"/><polygon points="512.516 114.078 507.49 126.663 507.229 126.556 512.516 114.078"/><polygon points="497.037 152.837 486.471 178.964 485.347 178.502 496.232 152.506 497.037 152.837"/><polygon points="475.892 205.086 465.217 231.169 463.7 230.545 474.476 204.504 475.892 205.086"/><path d="M454.54208,257.25169q-5.323,13.04727-10.72359,26.0626l-1.62185-.66744q5.31957-13.04866,10.7271-26.06115Z"/><polygon points="433.042 309.355 422.266 335.396 420.848 334.812 431.522 308.73 433.042 309.355"/><polygon points="411.396 361.398 400.511 387.395 399.701 387.061 410.267 360.934 411.396 361.398"/><polygon points="389.512 413.344 384.224 425.821 389.249 413.236 389.512 413.344"/><polygon points="558.173 141.148 553.192 153.752 552.84 153.607 558.173 141.148"/><polygon points="542.621 180.228 531.956 206.666 530.681 206.141 541.714 179.855 542.621 180.228"/><polygon points="521.213 233.071 510.425 259.458 508.817 258.796 519.726 232.459 521.213 233.071"/><polygon points="499.578 285.821 488.668 312.158 487.178 311.545 497.966 285.158 499.578 285.821"/><polygon points="477.714 338.477 466.681 364.763 465.77 364.388 476.434 337.95 477.714 338.477"/><polygon points="455.553 391.01 450.219 403.468 455.199 390.865 455.553 391.01"/></svg>