<svg id="Layer_1" data-name="Layer 1" xmlns="http://www.w3.org/2000/svg" viewBox="0 0 700 550"><title>drinking coffee- thinking</title><path d="M500.03005,403.129a45.44591,45.44591,0,0,1-6.18-20.71c-8.08-140.09-47.86-143.05-47.86-143.05-5.06006,17.22-14.42993,12.04-14.42993,12.04l-31.51,36.49,13.1,31.03.02991.06c3.54,3.07,6.97009,3.38,10.24,1.72h.01c4.21008-2.12,8.15015-7.5,11.72009-14.47-1.49011-7.94-5.78-33.8-.28-43.45,0,0,11.54993-14.48,19-7.69a19.44762,19.44762,0,0,0,1.85,1.78c9.33008,7.8,9.73,30.44,8.67,56.14l1.0199,20.42s1.28,14.34,1.8,32.7,3.75,22.15,6.24,24.85c0,0,10.61011,10.54,17.12012,14.04,6.51,3.49,9.28991,6.77,6.5,7.94,0,0-.25,2.04-1.8501,1.47,0,0-1.37,4.24006-4.1499,2.42005a2.47356,2.47356,0,0,1-.09009.36,38.44648,38.44648,0,0,0,4.25.99,48.20624,48.20624,0,0,0,22.42993-1.96C509.46,415.519,503.75,409.379,500.03005,403.129ZM407.64,294.309a7.49036,7.49036,0,0,1-2.54-.86005,11.647,11.647,0,0,1-2.17005-1.5,9.30722,9.30722,0,0,1-1.73-1.97c1.51.88,2.9,1.83,4.37012,2.59a9.18976,9.18976,0,0,0,4.68994,1.33A4.13859,4.13859,0,0,1,407.64,294.309Zm24.71,1.99a4.14443,4.14443,0,0,1-2.47.99,7.42836,7.42836,0,0,1-2.66-.27,10.63286,10.63286,0,0,1-2.45-.98,9.39467,9.39467,0,0,1-2.13-1.52c1.67005.52,3.23,1.13,4.83,1.54A9.17388,9.17388,0,0,0,432.35,296.299Z"/><path d="M361.44,207.849v.13l.02-.14C361.45,207.849,361.45,207.849,361.44,207.849Zm7.32007-14.76c-9.38-2.21-12.31006,6.57-12.31006,6.57l-.01.01c2.29.91,4.56006,1.73,5.97,2.22,0,0,2.34009-4.22,5.06006-.71l-2.43994,15.34s-3.82007-.06-4.58008-2.33l-.85-1.16c-.53992,1.78-.39,3.41-1.78992,3.13a12.40539,12.40539,0,0,1-1.03,2.78c.25,3.21,8.16992,4.22,8.16992,4.22a2.63188,2.63188,0,0,0-.02.28c0,1.82,2.8,3.48,4.64014,3.77l15.07995,2.4a3.52569,3.52569,0,0,0,4.04993-2.94l4.72-29.66Zm16.89,7.1a19.13744,19.13744,0,0,1-5.2301-.36,24.993,24.993,0,0,1-4.93994-1.67,23.28427,23.28427,0,0,1-4.45-2.66c1.57.73,3.15991,1.35,4.75,1.94a38.27591,38.27591,0,0,0,4.85,1.41,25.42,25.42,0,0,0,4.98.56,18.76965,18.76965,0,0,0,5-.8A12.35454,12.35454,0,0,1,385.65,200.189Z"/><path d="M418.74831,237.09744a108.33473,108.33473,0,0,0-3.3291,14.23773,53.91693,53.91693,0,0,0-.6565,7.23462,19.11293,19.11293,0,0,0,1.00049,7.01953,6.672,6.672,0,0,0,1.89771,2.77588,3.4325,3.4325,0,0,0,2.9143.87518,5.78183,5.78183,0,0,0,2.765-1.77276,17.52,17.52,0,0,0,2.14172-2.829,60.22692,60.22692,0,0,0,5.78516-13.309l.00293-.00922a.30764.30764,0,0,1,.38647-.19971l.02307.00837a8.603,8.603,0,0,0,3.84668.73571,7.12026,7.12026,0,0,0,3.65686-1.35608,15.75163,15.75163,0,0,0,4.772-6.386,41.98108,41.98108,0,0,0,2.59-7.68823,65.78234,65.78234,0,0,0,1.4054-7.99506l.255.39184a8.39029,8.39029,0,0,1-4.05542-3.23315,22.5848,22.5848,0,0,1-2.47338-4.47919,47.02181,47.02181,0,0,1-2.881-9.73382l1.11683.162a49.87947,49.87947,0,0,1-3.35523,5.71686,37.2376,37.2376,0,0,1-4.1748,5.17713,17.66214,17.66214,0,0,1-5.49805,3.93048,9.50534,9.50534,0,0,1-3.41272.74817,8.50487,8.50487,0,0,1-3.45557-.66742.62758.62758,0,0,1-.319-.29535l-.00927-.01837a9.82026,9.82026,0,0,0-1.70118-2.41785,2.30239,2.30239,0,0,0-2.22192-.84778,3.552,3.552,0,0,0-1.86267,1.8468,7.27426,7.27426,0,0,0-.625,2.87983,12.89227,12.89227,0,0,0,.78406,6.01037,4.99637,4.99637,0,0,0,1.83337,2.22272,6.08744,6.08744,0,0,0,2.80737.84674l.01892.00165a.39972.39972,0,0,1,.35743.318,21.93378,21.93378,0,0,0,1.13684,3.70239,22.2084,22.2084,0,0,0,1.76758,3.4657,15.11224,15.11224,0,0,0,2.51574,2.95923,11.428,11.428,0,0,0,3.34314,1.99225.06326.06326,0,0,1,.041.07953.06713.06713,0,0,1-.08057.04053,11.65474,11.65474,0,0,1-3.5072-1.86738,15.52509,15.52509,0,0,1-2.73474-2.9176,20.536,20.536,0,0,1-1.95484-3.49481,22.55964,22.55964,0,0,1-1.30615-3.80493l.37622.31946a6.92892,6.92892,0,0,1-3.26062-.87769,5.76763,5.76763,0,0,1-2.24487-2.567,13.87721,13.87721,0,0,1-1.00647-6.49707c.009-2.1.71265-4.81445,3.22522-5.84759a2.74538,2.74538,0,0,1,1.98389.092,4.98435,4.98435,0,0,1,1.5061,1.03418,11.01473,11.01473,0,0,1,1.9707,2.77008l-.328-.31348a7.42373,7.42373,0,0,0,5.85352-.11023,16.75372,16.75372,0,0,0,5.06176-3.657,35.96079,35.96079,0,0,0,4.08277-4.949,48.781,48.781,0,0,0,3.32776-5.52087l.00488-.00934a.593.593,0,0,1,1.11218.17139c.27417,1.61249.65894,3.24017,1.08167,4.8374a42.3302,42.3302,0,0,0,1.54431,4.71082,21.68083,21.68083,0,0,0,2.26159,4.35412,7.62551,7.62551,0,0,0,3.57788,3.03315l.01478.00494a.35784.35784,0,0,1,.24047.38721,65.43124,65.43124,0,0,1-1.63061,8.04473,46.99729,46.99729,0,0,1-2.72522,7.7331,17.26669,17.26669,0,0,1-4.88843,6.56958,7.59238,7.59238,0,0,1-3.87573,1.49078,9.50816,9.50816,0,0,1-4.11975-.66235l.41223-.20038q-.97924,3.56377-2.30408,7.00385a42.23919,42.23919,0,0,1-3.17444,6.69476,18.56008,18.56008,0,0,1-2.24926,3.02826,6.82805,6.82805,0,0,1-3.31775,2.12225,4.46337,4.46337,0,0,1-3.86084-1.13489,7.74106,7.74106,0,0,1-2.17224-3.23529,20.05356,20.05356,0,0,1-.98108-7.42419,48.1681,48.1681,0,0,1,.86267-7.34357,86.163,86.163,0,0,1,3.96875-14.15063.06331.06331,0,0,1,.0813-.0373A.06526.06526,0,0,1,418.74831,237.09744Z"/><path d="M413.04079,224.95052c3.53526-6.77377,7.22782.909,7.22782.909,9.973,4.24909,19.11125-14.5712,19.11125-14.5712s2.50548,15.14357,8.93781,17.191a35.03655,35.03655,0,0,0,.82348-8.63026,17.87649,17.87649,0,0,0-10.40041-15.85319,22.36573,22.36573,0,0,0-14.38622-1.24191C409.4833,206.12194,413.04079,224.95052,413.04079,224.95052Z"/><path d="M414.33706,235.14511a17.04757,17.04757,0,0,0-6.59644-.01251c-2.19922.32788-4.38147.78381-6.551,1.29351-4.33837,1.03015-8.61828,2.31073-12.89318,3.59937-4.27369,1.2984-8.499,2.75567-12.73743,4.17279-4.23547,1.42309-8.4574,2.90594-12.67285,4.37817l.363-.67248,2.42065,12.25342c.87134,4.07043,1.67615,8.15533,2.602,12.2138l-.36633-.1897,3.97522-1.65875,4.00683-1.58533,4.03479-1.52111c1.36145-.46271,2.71-.96582,4.08423-1.39588q4.09735-1.36669,8.33081-2.34186c1.4093-.32617,2.83985-.57629,4.28-.79107a24.50165,24.50165,0,0,1,4.46008-.2854.70284.70284,0,0,1,.66663.7373.73329.73329,0,0,1-.01038.0904l-.01135.06c-.77283,4.11786-1.50207,8.24878-1.87964,12.38788a40.10738,40.10738,0,0,0-.15735,6.1676,15.19655,15.19655,0,0,0,1.33057,5.77246,32.84911,32.84911,0,0,0,3.42749,5.077,37.05636,37.05636,0,0,1,3.2738,5.55743,92.81379,92.81379,0,0,1,4.6615,11.843l-.10717-.20557a8.34052,8.34052,0,0,0,2.33984,1.96112,18.835,18.835,0,0,0,2.96362,1.281,37.68832,37.68832,0,0,0,6.44055,1.48,108.96755,108.96755,0,0,0,13.34192,1.0174.08432.08432,0,0,1,.00171.16858,92.38788,92.38788,0,0,1-13.4613-.277,38.70771,38.70771,0,0,1-6.68726-1.24738,11.8976,11.8976,0,0,1-6.05273-3.5415.52276.52276,0,0,1-.09131-.15991l-.016-.046a96.44427,96.44427,0,0,0-4.85535-11.51282,35.33892,35.33892,0,0,0-3.183-5.2666,30.89281,30.89281,0,0,1-3.62207-5.35748,16.50014,16.50014,0,0,1-1.47437-6.4411,41.76381,41.76381,0,0,1,.25269-6.43036c.454-4.23493,1.23364-8.39234,2.09595-12.52466l.64477.88745a23.94072,23.94072,0,0,0-4.11792.17572c-1.40063.1734-2.80371.38153-4.19629.66742-2.78906.54285-5.56872,1.20148-8.31079,2.00427-1.37866.37445-2.73328.8346-4.10217,1.248l-4.06433,1.38006q-2.01673.73636-4.0188,1.51386l-3.98462,1.60583-.00647.00263a.26631.26631,0,0,1-.34644-.1474l-.01367-.045c-.8518-4.07464-1.82483-8.12286-2.7312-12.18554l-2.91272-12.14588a.57248.57248,0,0,1,.34058-.66363l.02258-.0091c4.1604-1.694,8.374-3.21826,12.611-4.69244,4.23609-1.47406,8.52844-2.78461,12.8346-4.04852,4.30517-1.26807,8.66491-2.36835,13.07849-3.236a57.85522,57.85522,0,0,1,6.67969-.98681,16.28483,16.28483,0,0,1,6.72534.46942.084.084,0,0,1-.0492.16046Z"/><path d="M464.4341,314.3973a.42189.42189,0,0,1-.04883-.84082c6.43311-.75488,11.4043-1.51367,13.12256-1.78515-2.25928-4.16309-3.50049-21.01758-3.55517-21.77442-2.94336-40.85449-27.8545-50.13867-28.106-50.22754a.42152.42152,0,0,1,.28076-.79492c.25635.09082,25.68066,9.52539,28.666,50.96192.38818,5.375,1.81787,19.78125,3.74218,21.86035a.42161.42161,0,0,1-.24023.70215c-.05713.00879-5.80811.95508-13.81152,1.8955A.43723.43723,0,0,1,464.4341,314.3973Z"/><path d="M362.93728,249.2084c-2.5929.65253-5.19568,1.25775-7.79505,1.87946a.32386.32386,0,0,1-.39026-.23957l-.00171-.00781-.00427-.02014c-.97314-4.66663-1.86377-9.348-2.79968-14.02136l-2.63452-14.05091a.67079.67079,0,0,1,.99341-.70532l.34814.20062a.09962.09962,0,0,1,.04846.05738c.00928.0025-.017-.03345-.03784-.01477-.05591-.0376-.06348.0025.01916-.04377a2.32337,2.32337,0,0,0,.62232-.54394,11.24925,11.24925,0,0,0,1.18823-1.71283l.00916-.01544a.75937.75937,0,0,1,1.04065-.26514l.07275.04907a1.295,1.295,0,0,0,1.10559.35175,2.0716,2.0716,0,0,0,1.03467-.87848,10.50763,10.50763,0,0,0,1.36536-3.22406l.00915-.03516a.69528.69528,0,0,1,.82434-.50305,1.11508,1.11508,0,0,0,.44739.03156c-.0188.02392.0415-.0102.12964-.23633.15893-.42816.28955-1.03839.47339-1.59387l-.02649.14434c.09863-1.05358.23559-2.0819.31469-3.09387a13.0158,13.0158,0,0,0,.04334-1.48626,3.31046,3.31046,0,0,0-.25293-1.26484l-.01416-.02868a.577.577,0,0,1-.05786-.285.6094.6094,0,0,1,.20935-.40155.603.603,0,0,1,.277-.13183l.07751-.009a.80608.80608,0,0,1,.11353-.00378l.14807.00629.25561.02191.48328.05566.47449.06214.23523.032.11584.01575.05481.00726.02564.00336s.01074.00116-.00025.00024a.47449.47449,0,0,0-.33386.10022l.244-.09607c.26806-.054.54773-.08685.80957-.15259a3.284,3.284,0,0,0,.72217-.29687,1.87882,1.87882,0,0,0,.94628-1.08765,4.72968,4.72968,0,0,0-.37426-3.2077l.22107.19281c-1.6659-.60449-3.30909-1.27924-4.97107-1.89563-1.66016-.62207-3.3158-1.25739-4.93543-1.98975-.81189-.36035-1.6195-.7323-2.4143-1.13745a14.71215,14.71215,0,0,1-2.329-1.38037,2.7442,2.7442,0,0,1-.5188-.52838,4.49071,4.49071,0,0,0-.39014-.48419,4.15061,4.15061,0,0,0-.96826-.77948,5.59591,5.59591,0,0,0-2.375-.74121l.08008-.00775a4.62586,4.62586,0,0,0-2.391,2.20568,10.18965,10.18965,0,0,0-1.00354,3.29724l-.56311,3.533a11.57159,11.57159,0,0,1-1.10572,3.52558,19.92181,19.92181,0,0,0-2.38208,6.50873,8.76263,8.76263,0,0,0,.12574,3.3125,9.08143,9.08143,0,0,0,.55761,1.55792c.24964.5459.49964,1.09143.736,1.65283a9.67586,9.67586,0,0,1,.9762,3.71008,23.21156,23.21156,0,0,1-.4779,3.658l-1.24622,7.048-2.51477,14.09381c-.41675,2.32867-.88721,4.73626-1.25977,7.00018a22.06359,22.06359,0,0,0,.1167,6.84839,21.249,21.249,0,0,0,6.44873,11.939,5.56347,5.56347,0,0,0,2.74781,1.63409,15.99588,15.99588,0,0,0,3.3789.54968,16.36,16.36,0,0,0,3.44519-.19623,29.98481,29.98481,0,0,0,3.41638-.8424c4.58753-1.30316,9.20459-2.50812,13.807-3.76245a.08427.08427,0,0,1,.04846.16137c-4.53076,1.4925-9.04675,3.03443-13.5924,4.47809a30.84216,30.84216,0,0,1-3.4889,1.00433,17.48532,17.48532,0,0,1-3.673.3537,15.54661,15.54661,0,0,1-3.68323-.48248,7.24383,7.24383,0,0,1-1.82751-.703,8.23729,8.23729,0,0,1-1.54053-1.1839,22.51957,22.51957,0,0,1-7.16968-12.6435,23.81375,23.81375,0,0,1-.20739-7.39331c.171-1.2478.40234-2.38848.61608-3.56628l.64881-3.51416,2.6571-14.04657,1.33972-7.02222a24.91317,24.91317,0,0,0,.51612-3.41674,8.34121,8.34121,0,0,0-.7865-3.17072c-.21338-.54279-.44727-1.087-.68067-1.63092a10.47713,10.47713,0,0,1-.60058-1.81934,9.75049,9.75049,0,0,1-.05127-3.79351,20.9463,20.9463,0,0,1,2.73254-6.77021,10.379,10.379,0,0,0,1.13-3.23584l.67236-3.51239a10.86691,10.86691,0,0,1,1.18469-3.47339,5.18556,5.18556,0,0,1,2.80713-2.468.18557.18557,0,0,1,.07227-.00855l.00818.0008a6.13545,6.13545,0,0,1,2.6405.85162,4.70121,4.70121,0,0,1,1.08118.89124,5.02642,5.02642,0,0,1,.43493.55334,2.24894,2.24894,0,0,0,.40662.4165,22.45876,22.45876,0,0,0,4.6283,2.42145c1.61767.702,3.27709,1.30976,4.94067,1.90405,1.66064.60242,3.31323,1.22162,5.001,1.75007a.36411.36411,0,0,1,.21753.18542l.00378.00769a7.07508,7.07508,0,0,1,.61719,1.83624,4.26,4.26,0,0,1-.06433,2.01325,2.84375,2.84375,0,0,1-1.31238,1.65082,4.26837,4.26837,0,0,1-.93848.43017c-.3208.09546-.64526.14819-.9696.22132l.24353-.09607a.59256.59256,0,0,1-.37818.09729l-.01489-.00135-.0332-.00305-.06287-.00592-.11914-.01166-.23511-.02307-.46643-.04346-.4591-.03564-.21668-.01056-.0885-.00061c-.01685-.0003-.02661.001-.00464.00018l.01856-.0039a.555.555,0,0,0,.25-.12122.53757.53757,0,0,0,.18347-.38721l-.07215-.31341a4.31582,4.31582,0,0,1,.45508,1.74835,14.14369,14.14369,0,0,1,.01526,1.63117c-.04382,1.0642-.14331,2.103-.20007,3.123a.57684.57684,0,0,1-.0199.12171l-.00659.02307c-.15259.538-.24939,1.05383-.474,1.70428a2.26805,2.26805,0,0,1-.28125.54615,1.43073,1.43073,0,0,1-.64014.50293,2.22053,2.22053,0,0,1-1.24536.04852l.83325-.53809a14.26466,14.26466,0,0,1-.60461,1.9162,9.43673,9.43673,0,0,1-.94312,1.82922,3.46885,3.46885,0,0,1-1.84362,1.4759,2.42129,2.42129,0,0,1-1.35254-.0235,3.56558,3.56558,0,0,1-1.07068-.56757l1.12231-.23144a11.18818,11.18818,0,0,1-1.40307,1.97839,3.59541,3.59541,0,0,1-1.10962.88275,1.55639,1.55639,0,0,1-1.07459.10547,1.88215,1.88215,0,0,1-.51538-.30872,4.059,4.059,0,0,1-.30762-.3811l1.34156-.50464,2.4104,14.09113c.74573,4.70739,1.53674,9.40667,2.24536,14.12072l-.396-.26733c2.63135-.46881,5.25916-.954,7.89685-1.392a.08436.08436,0,0,1,.03431.165Z"/><path d="M349.59475,200.8937l4.73657,1.96241c.78869.34454,1.58069.6148,2.36658,1.02148a6.48479,6.48479,0,0,1,2.00927,1.67957,6.772,6.772,0,0,1,1.41333,4.98474l-.3208,5.117a.42142.42142,0,1,1-.84118-.05273l.00146-.01728.53076-5.09948a6.23734,6.23734,0,0,0-1.11792-4.67591,6.11529,6.11529,0,0,0-1.83044-1.66082c-.71533-.41059-1.53345-.7331-2.29566-1.10364Z"/><path d="M347.96047,204.72946l3.45532,2.007,3.46179,2.02392a4.169,4.169,0,0,1,1.38147,1.57514c.31165.66436.45716,1.2807.68848,1.91577l1.26965,3.78882a.4215.4215,0,0,1-.79931.26788l-.00647-.02124-1.06824-3.85052c-.18958-.62671-.33032-1.32135-.56006-1.87531a3.69582,3.69582,0,0,0-1.151-1.45813Z"/><path d="M346.38747,210.11093l3.2251,1.25958a6.137,6.137,0,0,1,3.91711,5.51892l.046,3.47052a.42154.42154,0,0,1-.843.01117c-.00013-.00818.00012-.019.00048-.027l.16455-3.44983a5.64942,5.64942,0,0,0-.865-3.14361,5.79692,5.79692,0,0,0-2.50268-2.18634Z"/><path d="M343.779,214.278l2.56372,1.168a3.62679,3.62679,0,0,1,2.11194,1.93536,4.11911,4.11911,0,0,1,.31543,1.44123,9.996,9.996,0,0,0,.22143,1.35052,3.11588,3.11588,0,0,0,1.24927,2.082l.0083.00434a.42218.42218,0,1,1-.39245.74762.43317.43317,0,0,1-.03931-.02338,3.79019,3.79019,0,0,1-1.44531-2.68543,10.58989,10.58989,0,0,1-.12769-1.44415,3.63825,3.63825,0,0,0-.18115-1.317,3.30333,3.30333,0,0,0-1.80872-1.89978Z"/><path d="M425.53212,226.14938a7.68966,7.68966,0,0,1,2.25843-.51575,10.48611,10.48611,0,0,1,2.32617.05872,9.00893,9.00893,0,0,1,2.25439.61456A6.54765,6.54765,0,0,1,434.335,227.55c-.75061-.21618-1.44556-.45983-2.17041-.61877a21.35262,21.35262,0,0,0-2.16553-.405C428.54177,226.31216,427.07277,226.23739,425.53212,226.14938Z"/><path d="M440.59584,227.77938a6.76678,6.76678,0,0,1,2.01746-.29071,9.35214,9.35214,0,0,1,2.03455.21167,6.024,6.024,0,0,1,3.50171,2.04767c-.63343-.27356-1.2229-.52063-1.83374-.72418-.61524-.187-1.226-.36615-1.85389-.50207C443.20668,228.23513,441.93276,228.04684,440.59584,227.77938Z"/><path d="M439.27956,236.052a3.38427,3.38427,0,0,1-.13794,1.69842,2.64326,2.64326,0,0,1-1.10889,1.453,2.21268,2.21268,0,0,1-1.854.15759,4.01685,4.01685,0,0,1-.787-.38483,6.14537,6.14537,0,0,1-.63354-.57171,7.41782,7.41782,0,0,1,.80261.19409c.26355.03161.51294.10821.75647.11957a2.01557,2.01557,0,0,0,1.28821-.24048,2.85539,2.85539,0,0,0,.94128-1.00159A14.26313,14.26313,0,0,0,439.27956,236.052Z"/><path d="M430.7614,231.96735a1.2648,1.2648,0,0,0,0-2.52808,1.2648,1.2648,0,0,0,0,2.52808Z"/><path d="M442.39138,233.20343a1.2648,1.2648,0,0,0,0-2.52808,1.2648,1.2648,0,0,0,0,2.52808Z"/><path d="M431.803,243.46365a8.06579,8.06579,0,0,0,3.43274.78735,3.25007,3.25007,0,0,0,1.5636-.48877,8.84857,8.84857,0,0,0,1.43591-1.11828,3.55318,3.55318,0,0,1-1.04883,1.6499,3.42086,3.42086,0,0,1-.86816.56531,3.6117,3.6117,0,0,1-3.00037-.18189A4.163,4.163,0,0,1,431.803,243.46365Z"/><path d="M421.75352,203.56787S418.4853,189.12309,432.621,191.9866s6.11973,12.00927,6.11973,12.00927"/><path d="M413.18166,319.409a.4147.4147,0,0,1-.23389-.07226.42068.42068,0,0,1-.11572-.584c.91113-1.36035.41016-5.23535.14014-6.61425a.42144.42144,0,0,1,.82715-.16211c.04248.21582,1.02343,5.31836-.26709,7.24511A.42219.42219,0,0,1,413.18166,319.409Z"/><path d="M475.0093,332.78207a.43173.43173,0,0,1-.3833-.23437c-.43555-.84668-1.46289-15.28516-1.76758-19.68946a.42073.42073,0,0,1,.39111-.44922.4135.4135,0,0,1,.44971.39063c.5083,7.35058,1.37549,18.57715,1.68262,19.377a.41834.41834,0,0,1-.37256.60547Z"/><path d="M450.2,386.95a75.762,75.762,0,0,0-1.86987-17.44c-2.37012-10.19-6.96009-31.38-9.52-44.64A145.70255,145.70255,0,0,0,423.43,320.71h-.01c-4.7-.99-8.35986-1.54-10.2699-1.78-.95007-.13-1.47009-.18-1.47009-.18-61.52-59.6-72.17993-45.46-72.17993-45.46-28.82007,11.93-61.42993,93.04-61.42993,93.04l-19.77,3.53c-10.04,1.99-9.59009,7.4-7.84009,11.19a42.40612,42.40612,0,0,1,3.98,14.62c1.4502,19.48-6.10986,18.89-6.10986,18.89s47.00989,8.3,61.29992-1.72c14.28992-10.01,66.61-11.93,66.61-11.93,61.97,3.11,74.38-4.14,74.38-4.14.42005-.13.83-.28,1.24-.44C450.55007,393.74,450.19,390.14,450.2,386.95ZM336.37,294.73a9.43281,9.43281,0,0,0,3.67005,2.66,9.61841,9.61841,0,0,0,2.2.57,12.635,12.635,0,0,0,2.31006.16c.78-.01,1.55993-.13995,2.35986-.19.78-.14,1.56006-.31,2.37012-.43-.74.33-1.5.6-2.27.91a21.24258,21.24258,0,0,1-2.4.48,10.494,10.494,0,0,1-4.95007-.58,8.82261,8.82261,0,0,1-3.8999-3.1,9.89193,9.89193,0,0,1-1.78-4.54A14.21067,14.21067,0,0,0,336.37,294.73ZM257.96,393.1a1.501,1.501,0,0,1,0-3A1.501,1.501,0,0,1,257.96,393.1ZM256.52,372.58a1.501,1.501,0,0,1,0,3A1.501,1.501,0,0,1,256.52,372.58Zm-.96,8.16a1.501,1.501,0,0,1,0,3A1.501,1.501,0,0,1,255.56008,380.74Zm.72,32.28a1.501,1.501,0,0,1,0-3A1.501,1.501,0,0,1,256.28005,413.02Zm2.63989-9.12a1.501,1.501,0,0,1,0-3A1.501,1.501,0,0,1,258.91994,403.9ZM380.31008,347c-.55005.04-1.09009.13-1.64014.2-1.08984.14-2.16992.32-3.26.49Q372.155,348.23,368.9,348.83q-6.49492,1.17-12.9801,2.45L329.99,356.35l-25.94995,5.06-12.97,2.5-13,2.43c8.58984-1.99,17.2-3.85,25.81994-5.68,8.62-1.82,17.26-3.55,25.9-5.29,8.65991-1.65,17.30994-3.33,25.99-4.85q5.4-.93,10.82-1.81a6.82794,6.82794,0,0,1-1.5-1.12c-.58-.52-1.12-1.08-1.65-1.65-1.03-1.16-2-2.38-2.93994-3.6-1.89-2.46-3.63-5.03-5.32007-7.61-1.66992-2.6-3.30994-5.23-4.85-7.91s-3.04993-5.37-4.43006-8.14l2.57007,3.85,2.52,3.89,5.03,7.76q2.50488,3.885,5.1,7.71c.87,1.27,1.76,2.52,2.70008,3.73a22.77653,22.77653,0,0,0,1.46,1.79,8.57213,8.57213,0,0,0,1.3999,1.29c.71008-.12,1.42-.24,2.13013-.35q3.2699-.495,6.54992-.92a49.60718,49.60718,0,0,1,5.71009-.49Z"/><path d="M469.47683,384.07357c-1.12646-3.59241-2.02295-9.05959-2.2656-17.93832-.40612-14.3402-1.27926-26.229-1.64489-30.7414,4.09884-.07311,7.41592-.97032,9.43447-3.03836C475.00081,332.35549,485.49117,363.97521,469.47683,384.07357Z"/><path d="M381.1332,346.92957l-.05774.00518c.29419.00006.58813-.01147.88269.00415Z" fill="#fff"/><path d="M464.11232,305.80014c.39881,5.02661.72059,10.05652,1.07581,15.08172l.47205,7.54126c.1643,2.51325.28259,5.02954.55078,7.53119q1.292,15.08248,1.74792,30.22a88.23735,88.23735,0,0,0,1.41443,14.90284,22.337,22.337,0,0,0,2.42944,6.91009,15.69247,15.69247,0,0,0,2.23963,2.871c.88391.88959,1.78418,1.76789,2.69092,2.63776a97.91235,97.91235,0,0,0,11.48681,9.726c2.03491,1.42841,4.37085,2.46186,6.42639,3.98047a16.21591,16.21591,0,0,1,2.88733,2.53137,3.46018,3.46018,0,0,1,.86817,1.82984,1.50594,1.50594,0,0,1-.35169,1.06262,4.20305,4.20305,0,0,1-.41736.35284l-.46081.246.16809-.22193a2.59,2.59,0,0,1-.631,1.41565,1.3574,1.3574,0,0,1-.76795.38758,1.79929,1.79929,0,0,1-.81823-.09247l.3695-.18335a7.11535,7.11535,0,0,1-.62793,1.34924,4.33911,4.33911,0,0,1-.974,1.164,2.37653,2.37653,0,0,1-1.49072.564,2.90531,2.90531,0,0,1-1.4989-.49347l.47778-.21118a4.98324,4.98324,0,0,1-.62378,1.58624,3.35464,3.35464,0,0,1-1.23254,1.22,3.26113,3.26113,0,0,1-1.70752.38971,5.57766,5.57766,0,0,1-1.65967-.355.27371.27371,0,0,1-.08813-.048l-.01721-.01416c-4.89234-4.003-9.79529-7.99945-14.728-11.94489l-1.85266-1.46094a4.26236,4.26236,0,0,0-.877-.58825,7.80971,7.80971,0,0,0-1.01013-.40833,4.76842,4.76842,0,0,0-4.01574.25482A5.99738,5.99738,0,0,0,461.29921,409a13.06035,13.06035,0,0,1-2.14453,4.51318,5.67085,5.67085,0,0,1-4.7633,2.29309,2.30954,2.30954,0,0,1-.38513-.0567,1.44117,1.44117,0,0,1-.21644-.05469l-.12841-.04614-.06348-.02472a.57685.57685,0,0,1-.13245-.07166,1.08392,1.08392,0,0,1-.34558-.37561c.00135.00837.01782.03461-.00451-.00348l-.09229-.16809a3.09012,3.09012,0,0,1-.15588-.37408,5.03785,5.03785,0,0,1-.23511-1.38678,13.27022,13.27022,0,0,1,.17456-2.52033c.13159-.83477.28845-1.55938.37708-2.31719a21.28162,21.28162,0,0,0,.1549-2.27363,19.72087,19.72087,0,0,0-.45825-4.51379,18.57881,18.57881,0,0,0-1.504-4.27014,17.61576,17.61576,0,0,1-.99267-2.27088,16.67152,16.67152,0,0,1-.61841-2.41619,29.92468,29.92468,0,0,1-.439-4.86414c-.00671-1.61682-.0072-3.14386-.0769-4.71857a74.7631,74.7631,0,0,0-.94678-9.32153c-.50122-3.06726-1.31213-6.12372-1.98425-9.22137q-2.04255-9.26652-3.96838-18.559-1.93342-9.29113-3.54017-18.65063c-.542-3.11786-1.02978-6.24646-1.4364-9.38739-.2052-1.57-.38916-3.14355-.52795-4.72235a31.90058,31.90058,0,0,1-.144-4.75568.08414.08414,0,0,1,.08947-.07861.08729.08729,0,0,1,.07862.08935,31.7028,31.7028,0,0,0,.33361,4.70643c.2013,1.5642.44751,3.12335.71509,4.67895.53858,3.11066,1.14429,6.21039,1.75708,9.30853,1.23413,6.19471,2.636,12.35718,3.99634,18.52729q2.07256,9.24892,4.27942,18.4685c.69446,3.074,1.50928,6.13678,2.04553,9.30976a76.496,76.496,0,0,1,1.00391,9.53295c.07678,1.58368.08374,3.21875.09558,4.76288a28.17777,28.17777,0,0,0,.42676,4.56934,17.17314,17.17314,0,0,0,.54541,2.17676,15.75869,15.75869,0,0,0,.88965,2.07684,20.326,20.326,0,0,1,1.59289,4.66821,21.40459,21.40459,0,0,1,.45129,4.90442,22.88282,22.88282,0,0,1-.19067,2.45319c-.1029.81207-.28589,1.63342-.40576,2.35888a11.7755,11.7755,0,0,0-.17908,2.20063,3.539,3.539,0,0,0,.14136.94623,1.5438,1.5438,0,0,0,.06909.1737l.04981.092.067.12622a.56308.56308,0,0,0-.22815-.28576c-.07324-.042-.0802-.04108-.06726-.038l.00635.00012.01111.00366c-.0044.00458.04565.0105.07056.01655a.96.96,0,0,0,.20031.03009,4.148,4.148,0,0,0,3.42469-1.69465,11.9057,11.9057,0,0,0,1.93591-3.97912,7.35951,7.35951,0,0,1,2.94092-4.20917,5.43082,5.43082,0,0,1,2.58776-.73144,7.289,7.289,0,0,1,2.55652.42028,9.10059,9.10059,0,0,1,1.17762.49952,5.54934,5.54934,0,0,1,1.07861.74017l1.83349,1.52179,14.44727,12.30127-.105-.06189a4.8694,4.8694,0,0,0,1.42212.34033,2.56426,2.56426,0,0,0,1.35046-.27234,2.69493,2.69493,0,0,0,1.01355-.96716,4.18267,4.18267,0,0,0,.55371-1.34259.32358.32358,0,0,1,.47046-.2154l.00745.00416a2.305,2.305,0,0,0,1.16138.40307,1.76849,1.76849,0,0,0,1.11108-.42,5.14917,5.14917,0,0,0,1.42944-2.22339l.004-.01086a.28864.28864,0,0,1,.3656-.17261.90967.90967,0,0,0,.9961-.15125,2.07075,2.07075,0,0,0,.48059-1.0827l.00232-.01447a.27133.27133,0,0,1,.16589-.20776c.53931-.21765.964-.60522.90527-1.12781a2.99706,2.99706,0,0,0-.73571-1.52209,14.03312,14.03312,0,0,0-2.78357-2.43475c-2.02271-1.46442-4.35132-2.46228-6.46412-3.9068-2.10925-1.41333-4.08361-2.99768-6.04077-4.59638-1.9541-1.60345-3.85815-3.26507-5.73034-4.96173-.93543-.84961-1.863-1.70624-2.77979-2.57977a16.6798,16.6798,0,0,1-2.47949-3.012,23.49778,23.49778,0,0,1-2.764-7.21423,82.49936,82.49936,0,0,1-1.61865-15.14233c-.28662-10.06226-.74426-20.12464-1.4491-30.1684-.545-10.07794-.80456-20.16132-1.07446-30.23944a.08429.08429,0,0,1,.16833-.00842Z"/><path d="M476.38625,405.37893l14.94482,11.14337a.42146.42146,0,1,1-.5039.67572l-.015-.01171Z"/><path d="M480.62319,403.3652l14.85,10.74139a.42146.42146,0,1,1-.494.683l-.01551-.01172Z"/><path d="M485.26369,403.64279l12.063,8.99646a.42152.42152,0,0,1-.504.67578l-.01855-.01465Z"/><path d="M250.15847,374.49789a122.95947,122.95947,0,0,1-16.759,3.08044,146.45567,146.45567,0,0,1-17.042.97382,104.9462,104.9462,0,0,1-17.01855-1.4892l-4.19483-.825c-1.40039-.25653-2.76269-.69946-4.14355-1.03979-2.77246-.65338-5.44361-1.65973-8.15186-2.524l-.031-.01331-.01026-.00567a21.68,21.68,0,0,0-2.81152-1.30292,10.46151,10.46151,0,0,0-2.9773-.66894,2.11446,2.11446,0,0,0-2.30664,1.17706,5.31274,5.31274,0,0,0,.061,2.91772.30523.30523,0,0,1,.00659.10364l-.00195.018a4.99022,4.99022,0,0,0,.17749,2.12487,2.05279,2.05279,0,0,0,.50293.82343,1.69405,1.69405,0,0,0,.82788.374.4053.4053,0,0,1,.32251.47382l-.00122.00549-.002.01032a4.02126,4.02126,0,0,0-.06689,1.05535,3.04943,3.04943,0,0,0,.23486,1.00409,2.05161,2.05161,0,0,0,.58033.78247,2.70235,2.70235,0,0,0,.87182.48127.49948.49948,0,0,1,.29932.587l-.00635.02533a1.31549,1.31549,0,0,0,.04834.73767,1.3378,1.3378,0,0,0,.48.60657,3.85448,3.85448,0,0,0,1.75391.60852.55831.55831,0,0,1,.47387.49323l.00513.05023a2.94906,2.94906,0,0,0,.92627,1.877,2.76112,2.76112,0,0,0,.93188.51,8.64352,8.64352,0,0,1,1.28907.58105,21.92817,21.92817,0,0,0,4.62719,2.1092,22.49977,22.49977,0,0,0,4.94483,1.012,27.17863,27.17863,0,0,1,5.30591.8396,19.48767,19.48767,0,0,1,4.99072,2.19543,17.85285,17.85285,0,0,1,4.2251,3.496l.84546,1.00622a11.89214,11.89214,0,0,0,.83789.93427,23.0108,23.0108,0,0,0,1.83154,1.72583,25.27895,25.27895,0,0,0,4.16235,2.8186,19.86457,19.86457,0,0,0,4.67261,1.75342,15.63813,15.63813,0,0,0,4.92456.32092,10.98253,10.98253,0,0,0,1.21729-.20422,5.8823,5.8823,0,0,0,1.197-.30274c.39013-.1336.78686-.25238,1.17431-.39587l1.11768-.54431a6.22773,6.22773,0,0,0,1.075-.62872l1.04834-.692c.73145-.50336,1.4314-1.05536,2.18775-1.51611a63.03692,63.03692,0,0,1,19.47216-7.82428.08422.08422,0,0,1,.10108.06292.08776.08776,0,0,1-.06153.10089,75.53034,75.53034,0,0,0-9.7561,3.68219,55.57437,55.57437,0,0,0-9.04224,5.04316c-.72265.467-1.38037,1.01855-2.073,1.52221l-1.11377.7829a7.20666,7.20666,0,0,1-1.16065.72162l-1.21972.63342c-.42408.17231-.8606.31879-1.29175.47821a6.9586,6.9586,0,0,1-1.3252.37458,12.50349,12.50349,0,0,1-1.35449.26416,16.58959,16.58959,0,0,1-5.47852-.21949,21.58644,21.58644,0,0,1-5.12426-1.84716,24.02087,24.02087,0,0,1-6.48291-4.87122,13.4285,13.4285,0,0,1-.90674-1.01465l-.83618-.99914a18.17248,18.17248,0,0,0-8.30274-5.27356,25.59872,25.59872,0,0,0-5.00586-.86481,22.3997,22.3997,0,0,1-5.26562-1.187,23.32478,23.32478,0,0,1-4.81861-2.35,7.33562,7.33562,0,0,0-1.08154-.52148,3.90523,3.90523,0,0,1-1.31616-.79187,4.10074,4.10074,0,0,1-1.22534-2.76038l.479.54321a7.90856,7.90856,0,0,1-1.137-.30273,3.80154,3.80154,0,0,1-1.0918-.6084,2.36336,2.36336,0,0,1-.77759-1.10168,2.238,2.238,0,0,1-.00415-1.38166l.29273.612a3.674,3.674,0,0,1-1.15943-.7055,2.9496,2.9496,0,0,1-.77661-1.12946,3.90537,3.90537,0,0,1-.25879-1.2984,4.75818,4.75818,0,0,1,.134-1.29651l.31909.48938a2.45757,2.45757,0,0,1-1.22095-.61279,2.76681,2.76681,0,0,1-.65722-1.14343,5.71051,5.71051,0,0,1-.12671-2.44312l.00439.12122a5.839,5.839,0,0,1,.00464-3.27875,2.24878,2.24878,0,0,1,1.20972-1.25806,3.704,3.704,0,0,1,1.666-.2478,11.01666,11.01666,0,0,1,3.12769.739,22.16133,22.16133,0,0,1,2.91235,1.28907l-.04077-.01886a84.62706,84.62706,0,0,0,16.46924,3.79089,153.17859,153.17859,0,0,0,16.86181,1.12427c5.63941.10119,11.28174-.1698,16.91455-.60358q4.22461-.34011,8.43335-.88165c2.81226-.31751,5.6084-.76318,8.39917-1.24286a.0842.0842,0,0,1,.09986.06512A.08768.08768,0,0,1,250.15847,374.49789Z"/><path d="M174.4197,374.43161a29.5941,29.5941,0,0,1,3.01465.051,13.11116,13.11116,0,0,1,2.95239.4903,12.91149,12.91149,0,0,0-2.95239-.069,29.01255,29.01255,0,0,0-2.91944.365l-.00781.00134a.42265.42265,0,1,1-.14673-.83246A.45836.45836,0,0,1,174.4197,374.43161Z"/><path d="M176.09157,378.21121a12.43211,12.43211,0,0,1,2.6853-.30957,5.95879,5.95879,0,0,1,2.59937.50537,5.75347,5.75347,0,0,0-2.56665-.08527,11.83762,11.83762,0,0,0-2.45313.68952l-.01391.00555a.42323.42323,0,0,1-.31568-.7854A.45.45,0,0,1,176.09157,378.21121Z"/><path d="M177.92238,382.09134a14.36545,14.36545,0,0,1,2.32837-.3855,6.94287,6.94287,0,0,1,1.17725.00122,2.28542,2.28542,0,0,1,1.10962.342,2.18487,2.18487,0,0,0-1.11182-.13129,6.63356,6.63356,0,0,0-1.10644.2038,13.76461,13.76461,0,0,0-2.11231.763l-.00781.00342a.42346.42346,0,0,1-.3501-.77118A.45929.45929,0,0,1,177.92238,382.09134Z"/><path d="M180.35964,384.92923a2.03559,2.03559,0,0,1,1.08789-.578,4.82643,4.82643,0,0,1,1.05029-.12457,9.58049,9.58049,0,0,1,2.01514.20874,9.36953,9.36953,0,0,0-1.96436.2096,4.29657,4.29657,0,0,0-.89257.30279,1.46265,1.46265,0,0,0-.59351.44629.43379.43379,0,1,1-.72388-.443Z"/><path d="M233.04592,394.10305a14.30707,14.30707,0,0,0,3.1936.575,5.03391,5.03391,0,0,0,1.50708-.19477,7.18266,7.18266,0,0,0,1.49-.67511,2.942,2.942,0,0,1-1.23047,1.27936,3.59539,3.59539,0,0,1-1.78125.43256,4.68448,4.68448,0,0,1-1.74878-.405A4.092,4.092,0,0,1,233.04592,394.10305Z"/><path d="M355.48232,250.65731l2.305,10.72437-3.12158-10.51575a.42167.42167,0,0,1,.80847-.24Z"/><path d="M364.33352,217.0057c-1.2417,0-3.65381-.46972-5.12305-3.80859a.42151.42151,0,0,1,.77148-.33984c1.46387,3.32714,3.86963,3.37695,4.67676,3.2998l2.36475-14.86133a2.36747,2.36747,0,0,0-1.916-1.084c-1.32031.09961-2.32324,1.86719-2.333,1.88476a.42142.42142,0,1,1-.73632-.41015c.04931-.08887,1.23-2.17871,3.00293-2.31446a3.22825,3.22825,0,0,1,2.76074,1.54688.42281.42281,0,0,1,.083.32519l-2.4419,15.34668a.41985.41985,0,0,1-.31641.34278A3.78047,3.78047,0,0,1,364.33352,217.0057Z"/><path d="M435.61525,308.99984a.42037.42037,0,0,1-.41162-.334s-.18066-.8584-.46533-2.35059a.42155.42155,0,0,1,.82813-.1582c.17334.90918.30761,1.582.38574,1.96582l29.11914-2.84668a.40919.40919,0,0,1,.46045.37793.42125.42125,0,0,1-.37842.46l-29.49658,2.88379A.29581.29581,0,0,1,435.61525,308.99984Z"/><path d="M456.60207,204.40054a1.98607,1.98607,0,0,0,.8584,1.59644,5.65307,5.65307,0,0,0,1.698.79016c1.20569.33642,2.47339.65,3.67724.95556a4.346,4.346,0,0,0,3.54273-.42322,3.26171,3.26171,0,0,0,1.39111-3.18048c-.14075-.5158-.64355-.78387-1.21033-1.01117-.56714-.22259-1.19494-.389-1.81518-.61163a12.70643,12.70643,0,0,1-1.85889-.79016,7.1758,7.1758,0,0,1-.87671-.55383c-.25427-.15259-.48779-.33942-.74341-.45893a2.52065,2.52065,0,0,0-3.03906.37983A4.84239,4.84239,0,0,0,456.60207,204.40054Zm-.1,0a6.8778,6.8778,0,0,1,1.24048-3.754,3.09278,3.09278,0,0,1,1.79908-1.21222,3.35139,3.35139,0,0,1,2.19958.32465,7.66654,7.66654,0,0,1,.90674.56024c.2456.17273.49121.34485.75293.50122a11.72619,11.72619,0,0,0,1.674.81525c.59.23761,1.20032.4613,1.8147.77087a3.43859,3.43859,0,0,1,.88842.60486,1.82261,1.82261,0,0,1,.52893,1.0227,4.2802,4.2802,0,0,1-1.73706,3.54706,5.20791,5.20791,0,0,1-3.876.98175,11.95207,11.95207,0,0,1-3.77722-1.19653,6.27951,6.27951,0,0,1-1.63135-1.17529A2.58207,2.58207,0,0,1,456.50209,204.40054Z"/><path d="M465.695,183.95584a3.55123,3.55123,0,0,0,1.42956,2.77484,9.75428,9.75428,0,0,0,2.85645,1.47394c2.04187.67218,4.18469,1.22,6.27063,1.70434a7.65606,7.65606,0,0,0,6.1239-.912,5.88713,5.88713,0,0,0,2.47949-5.52111,2.24691,2.24691,0,0,0-.78064-1.18555,6.06779,6.06779,0,0,0-1.34387-.74365c-.97815-.40784-2.03674-.7099-3.078-1.09265a21.3044,21.3044,0,0,1-3.08814-1.3487,13.03279,13.03279,0,0,1-1.44373-.921,14.24577,14.24577,0,0,0-1.31738-.81347,4.58783,4.58783,0,0,0-2.856-.55988,4.96459,4.96459,0,0,0-2.63172,1.38062,8.554,8.554,0,0,0-1.83154,2.6181A8.12938,8.12938,0,0,0,465.695,183.95584Zm-.1,0a10.7573,10.7573,0,0,1,.63147-3.25037,9.39884,9.39884,0,0,1,1.60559-2.96051,5.16948,5.16948,0,0,1,2.94275-1.88147,5.39163,5.39163,0,0,1,3.50464.553,13.18657,13.18657,0,0,1,1.48071.91479c.42981.30256.86047.60334,1.32.86835a20.33022,20.33022,0,0,0,2.90307,1.37378c1.011.39771,2.05225.75714,3.07764,1.25183a5.79117,5.79117,0,0,1,1.4646.95294,2.869,2.869,0,0,1,.86694,1.59272,6.85623,6.85623,0,0,1-2.82544,5.88775,8.51941,8.51941,0,0,1-6.45715,1.47046,24.58335,24.58335,0,0,1-6.37073-1.94525,10.38112,10.38112,0,0,1-2.78955-1.85913A4.14579,4.14579,0,0,1,465.595,183.95584Z"/><path d="M470.14541,156.42636a6.13762,6.13762,0,0,0-.43128,2.41754,4.51822,4.51822,0,0,0,.77075,2.30756,10.31729,10.31729,0,0,0,3.736,3.1784,54.9042,54.9042,0,0,0,9.23877,3.69891c3.17029,1.01581,6.34937,2.0257,9.509,3.11683,3.18994,1.03472,6.20788,2.517,9.357,3.48169a31.85448,31.85448,0,0,0,9.6969,1.75061,13.17918,13.17918,0,0,0,9.11084-3.08515,11.93935,11.93935,0,0,0,2.85462-3.981,17.80362,17.80362,0,0,0,1.32019-4.76019,30.71468,30.71468,0,0,0-.3114-9.87219,30.52286,30.52286,0,0,0-3.99488-8.99988,39.57423,39.57423,0,0,0-6.29883-7.58569c-4.78466-4.47418-11.0996-7.50281-17.6538-7.28821a21.9743,21.9743,0,0,0-9.41834,2.30115,25.77845,25.77845,0,0,0-7.65979,6.07477C475.58645,144.16018,472.66506,150.28311,470.14541,156.42636Zm-.09278-.0373c1.21716-3.10516,2.54968-6.16723,4.057-9.14935A46.57646,46.57646,0,0,1,479.47,138.755a25.18492,25.18492,0,0,1,7.72607-6.49536,22.0898,22.0898,0,0,1,9.82105-2.48474,22.78018,22.78018,0,0,1,9.94543,1.9613,29.7946,29.7946,0,0,1,8.38257,5.67005,37.83106,37.83106,0,0,1,6.30933,7.86847,31.15406,31.15406,0,0,1,3.87732,9.28833,32.8537,32.8537,0,0,1,.12427,10.04077,15.063,15.063,0,0,1-4.28907,8.94452,14.1152,14.1152,0,0,1-9.33545,3.38617,31.89631,31.89631,0,0,1-9.95214-1.51624c-1.61158-.47827-3.18494-1.086-4.74012-1.6958-1.5404-.61542-3.10144-1.18323-4.66076-1.76056-3.12293-1.14453-6.29395-2.17358-9.42469-3.34015a55.96759,55.96759,0,0,1-9.16467-4.06616,11.152,11.152,0,0,1-3.74341-3.31641,4.66659,4.66659,0,0,1-.76367-2.38885A6.253,6.253,0,0,1,470.05263,156.38906Z"/><path d="M367.64,251.74a1.5009,1.5009,0,0,0,0-3,1.5009,1.5009,0,0,0,0,3Z"/><path d="M369.08,258.7a1.5009,1.5009,0,0,0,0-3,1.5009,1.5009,0,0,0,0,3Z"/><path d="M370.28,264.94a1.5009,1.5009,0,0,0,0-3,1.5009,1.5009,0,0,0,0,3Z"/><path d="M371.48,270.46a1.5009,1.5009,0,0,0,0-3,1.5009,1.5009,0,0,0,0,3Z"/><path d="M437.96,306.46a1.5009,1.5009,0,0,0,0-3,1.5009,1.5009,0,0,0,0,3Z"/><path d="M443.24,305.74a1.5009,1.5009,0,0,0,0-3,1.5009,1.5009,0,0,0,0,3Z"/><path d="M449.48,304.78a1.5009,1.5009,0,0,0,0-3,1.5009,1.5009,0,0,0,0,3Z"/><path d="M455.72,304.06a1.5009,1.5009,0,0,0,0-3,1.5009,1.5009,0,0,0,0,3Z"/><path d="M461.96,303.34a1.5009,1.5009,0,0,0,0-3,1.5009,1.5009,0,0,0,0,3Z"/><path d="M415.28,240.7a1.5009,1.5009,0,0,0,0-3,1.5009,1.5009,0,0,0,0,3Z"/><path d="M413.48,247.06a1.5009,1.5009,0,0,0,0-3,1.5009,1.5009,0,0,0,0,3Z"/><path d="M411.92,255.1a1.5009,1.5009,0,0,0,0-3,1.5009,1.5009,0,0,0,0,3Z"/><path d="M411.44,262.78a1.5009,1.5009,0,0,0,0-3,1.5009,1.5009,0,0,0,0,3Z"/><path d="M413.24,270.34a1.5009,1.5009,0,0,0,0-3,1.5009,1.5009,0,0,0,0,3Z"/></svg>