<svg id="Layer_1" data-name="Layer 1" xmlns="http://www.w3.org/2000/svg" viewBox="0 0 700 550"><title>women working at home</title><path d="M351.15063,261.93386a24.84675,24.84675,0,0,0,.63251,4.388l-170.39136,3.44931V247.00635l170.85124,1.8395a25.7118,25.7118,0,0,0-.86245,4.34989c-.182,1.45635-.28748,2.90311-.32584,4.35947A41.8345,41.8345,0,0,0,351.15063,261.93386Z"/><path d="M369.02922,247.00635V262.8728l-17.24608,3.44907a26.66442,26.66442,0,0,0,.86221-4.34965c.17239-1.45635.28748-2.90335.32561-4.35947.03836-1.45635,0-2.9223-.10526-4.37865a25.7697,25.7697,0,0,0-.62268-4.38825Z"/><path d="M210.4412,87.77249,211,119.81369c.19064,10.59892.34783,21.09469.44911,31.54367.09357,10.44874.19485,20.86451.08936,31.25244-.10807,10.38909-.30783,20.80977-.48467,31.284l-.6028-.68607q9.11742,1.36314,18.25145,2.59763L237.839,217.022l9.14654,1.1387c6.09723.76162,12.19375,1.53,18.30127,2.21307l18.31624,2.09821-1.0325.90713c-.16116-8.72363-.24-17.44725-.33286-26.17088l-.17871-26.17087c-.05216-8.72362-.12093-17.44725-.1076-26.17087-.02924-8.72362.04889-17.44725.08374-26.17087l.8835,1.33472L264.992,112.16608c-5.9798-2.65213-11.96335-5.268-17.97636-7.9903Zm-.15859-.23976,36.549,14.63957c6.17418,2.45142,12.37784,5.00952,18.58524,7.53112l18.63507,7.65721.87975.3614.004.97355c.03485,8.72362.113,17.44725.08374,26.17087.01333,8.72362-.05544,17.44725-.1076,26.17087l-.17895,26.17087c-.09263,8.72363-.17169,17.44725-.33262,26.17088l-.01942,1.05425-1.01332-.1469L265.1221,221.642c-6.07945-.89776-12.17036-1.71038-18.26011-2.52955l-9.13437-1.23273-9.14444-1.15461q-9.14794-1.127-18.31016-2.14523l-.59251-.06526-.01029-.62082c-.17684-10.56593-.37684-21.18544-.48491-31.83652-.10549-10.65249-.004-21.2769.08936-31.86834.10152-10.5912.25848-21.13562.44935-31.57711Z"/><polygon points="221.399 102.139 221.399 198.027 275.207 206.995 275.207 125.594 221.399 102.139"/><path d="M255.20178,213.319c3.699,0,3.70514-5.74869,0-5.74869-3.699,0-3.70514,5.74869,0,5.74869Z"/><path d="M236.49418,217.28371c.39649,2.64815.604,5.29607.74479,7.94422.153,2.64815.19368,5.2963.21286,7.94445l-.05029,3.97211a17.48906,17.48906,0,0,0,.00514,1.89144,17.17362,17.17362,0,0,0,.25895,1.84559,14.81568,14.81568,0,0,0,3.51223,6.76856,11.60231,11.60231,0,0,1-4.95549-6.37792,13.394,13.394,0,0,1-.63531-4.12767l-.05029-3.97211c.019-2.64815.05988-5.2963.21263-7.94445C235.89045,222.57978,236.0977,219.93186,236.49418,217.28371Z"/><path d="M252.86,219.40649c.23041,2.701.27275,5.385.24842,8.06422.00585,1.34056-.05708,2.67739-.08772,4.01538-.01731.66876-.06316,1.33659-.0931,2.00488l-.05076,1.00233-.02269.49777.02012.4428a12.46237,12.46237,0,0,0,2.47739,6.91827,14.29575,14.29575,0,0,0,1.24724,1.4339,14.70253,14.70253,0,0,0,1.49729,1.25682c1.03928.84631,2.084,1.68934,3.08417,2.60722-1.23554-.56327-2.42664-1.20115-3.62311-1.836a14.46234,14.46234,0,0,1-1.77588-1.0746,12.55908,12.55908,0,0,1-1.57519-1.42618,12.3282,12.3282,0,0,1-3.2458-7.81183l-.00936-.56209.03392-.5062.07321-1.00536c.0524-.66993.08936-1.34057.15462-2.01.1345-1.3387.23672-2.67856.40772-4.01492C251.92649,224.72875,252.29911,222.05908,252.86,219.40649Z"/><rect x="190.47165" y="266.5869" width="5.74869" height="195.88037"/><rect x="276.93223" y="266.5869" width="5.74869" height="195.88037"/><rect x="335.79833" y="266.5869" width="5.74869" height="195.88037"/><path d="M405.68346,116.51105c.17005,1.72278.23882,3.44884.25216,5.18332.00023.86689-.01684,1.73682-.08187,2.61213a11.27028,11.27028,0,0,1-.42947,2.70031,49.21577,49.21577,0,0,0-1.85986,4.69748,2.32374,2.32374,0,0,0,.15322,1.804,3.02646,3.02646,0,0,0,1.64582.9497l.2931.08818.138.16679a39.70864,39.70864,0,0,1,2.73446,3.79269,18.96418,18.96418,0,0,1,1.15227,2.07038,6.40745,6.40745,0,0,1,.42666,1.163,8.54548,8.54548,0,0,0,.30783,1.06361c1.01472,2.7602,3.18031,5.32741,6.0467,6.08506a6.24788,6.24788,0,0,0,1.07227.19789l.54034.05661c.18129.00421.36374-.00655.54479-.00865l1.16139-.01357a5.38362,5.38362,0,0,1,1.23577.10222,7.509,7.509,0,0,1,4.31362,2.39155,11.35188,11.35188,0,0,1,2.47857,4.246,10.81454,10.81454,0,0,1,.4718,4.98847l-.70361-1.13378a23.46375,23.46375,0,0,0,3.18826.389,30.69059,30.69059,0,0,0,3.28908-.05357,25.52224,25.52224,0,0,0,3.27106-.43134l1.61916-.34573,1.593-.46361c.53614-.14293,1.04139-.3752,1.56723-.55485a12.63028,12.63028,0,0,0,1.542-.63438l1.52419-.69706,1.46665-.82058c1.01191-.50479,1.8774-1.23179,2.84838-1.82454.93051-.64747,1.78407-1.39834,2.71294-2.07763l.13544.13544c-.775.84373-1.54477,1.71179-2.38429,2.50874-.43017.38666-.86619.77-1.3111,1.14431a12.88632,12.88632,0,0,1-1.381,1.06572,25.968,25.968,0,0,1-6.14541,3.39223,25.46013,25.46013,0,0,1-6.89254,1.6215,21.25768,21.25768,0,0,1-7.16224-.46058l-.87344-.21871.16959-.91531a10.17627,10.17627,0,0,0-2.182-7.82773,6.66165,6.66165,0,0,0-3.40417-2.28535,4.36342,4.36342,0,0,0-1.03624-.1883l-.53216-.04585-.60279-.03766c-.20164-.01473-.40327-.02128-.60327-.04351l-.59578-.11251a7.07012,7.07012,0,0,1-1.16233-.31859,9.78756,9.78756,0,0,1-3.91807-2.62055,14.51641,14.51641,0,0,1-2.58523-3.9155c-.15532-.35813-.30409-.74759-.43181-1.1104a5.59894,5.59894,0,0,0-.4704-.94735,18.20275,18.20275,0,0,0-1.283-1.82243c-.92514-1.18221-1.96442-2.30383-2.97119-3.407l.43087.25473a4.24954,4.24954,0,0,1-2.70476-1.574,2.396,2.396,0,0,1-.39251-.79577,2.85439,2.85439,0,0,1-.15532-.83625,5.31383,5.31383,0,0,1,.17053-1.52606,31.871,31.871,0,0,1,2.11623-4.80017,11.8452,11.8452,0,0,0,.55227-2.35061c.124-.83321.2435-1.6774.34058-2.52675.20842-1.698.37216-3.41.55812-5.12484Z"/><path d="M407.30519,123.40382l-.67555-.67929a9.44181,9.44181,0,0,1,8.50609-2.30921l-.22831.93005A8.61546,8.61546,0,0,0,407.30519,123.40382Z"/><path d="M410.53148,127.491a1.438,1.438,0,0,0,0-2.87435,1.438,1.438,0,0,0,0,2.87435Z"/><path d="M406.96742,134.81138v-.95811c.34713,0,.43976-.12912.4697-.17123a1.80787,1.80787,0,0,0-.00468-1.26782l.90946-.30315a2.66855,2.66855,0,0,1-.12725,2.13143A1.44352,1.44352,0,0,1,406.96742,134.81138Z"/><path d="M404.09294,114.90137s11.49739,8.72677,21.61509,6.9503c0,0,5.05885-6.97278,6.43854-1.21285s1.60963,12.77334-2.75937,11.6236c0,0-3.56419,13.107,2.41445,23.22472s11.26744,6.66849,12.41718,15.8664,33.80231,9.19791,24.83435-4.8289-12.18723-30.58305-12.18723-30.813-6.43853-30.583-12.87707-34.03227S406.96729,95.24083,404.09294,114.90137Z"/><path d="M422.14384,174.57281s-10.80754-8.27812-9.88775-15.63645-2.52943-17.01613-2.52943-17.01613c.57487,2.1845,3.44922,7.93319,9.42786,7.70325s8.968,6.89843,8.16315,11.03749Z"/><path d="M470.1055,173.13975a39.26722,39.26722,0,0,1,5.649,8.88035,71.101,71.101,0,0,1,3.76626,9.87542,126.89011,126.89011,0,0,1,4.16439,20.67995,212.74622,212.74622,0,0,1,.8021,42.03732l-.00843.095-.05169.05731a10.17432,10.17432,0,0,1-5.028,2.82289,10.72163,10.72163,0,0,0,4.62964-3.15552l-.05988.152c.00327-6.98727-.146-13.97455-.48818-20.94264-.32608-6.969-.86081-13.92309-1.6739-20.83808a162.58406,162.58406,0,0,0-3.66544-20.52229,87.045,87.045,0,0,0-3.19154-9.9077A44.02524,44.02524,0,0,0,470.1055,173.13975Z"/><path d="M413.452,215.96747c-.65076-2.34757-1.24116-4.70356-1.72185-7.104a22.23341,22.23341,0,0,1-.44865-7.45463,101.53255,101.53255,0,0,1,4.37725-14.01735c1.71881-4.55129,3.52814-9.0621,5.46987-13.51771,1.93307-4.45866,3.9562-8.87918,6.18728-13.20871-1.49425,4.635-3.12908,9.20712-4.79853,13.76308l-5.06449,13.633c-.86549,2.26173-1.68957,4.53585-2.51108,6.80763-.79835,2.26477-1.62992,4.56368-2.19763,6.8233a23.93229,23.93229,0,0,0-.08748,7.038C412.8733,211.13409,413.21645,213.54341,413.452,215.96747Z"/><path d="M416.411,248.887l-.95437-.07485c.10386-1.3146.18058-2.61985.22736-3.87925l.95812.03556C416.59442,246.24191,416.51676,247.56026,416.411,248.887Z"/><path d="M440.46778,164.30221a17.12962,17.12962,0,0,0-4.07269,2.92885c-.63274.54479-1.17706,1.19016-1.76559,1.77682-.53216.6456-1.07812,1.27624-1.593,1.9305-.48022.6842-.98127,1.35015-1.44231,2.04371l-1.31367,2.12956c-.76444,1.4863-1.5946,2.93447-2.21635,4.49281-.70876,1.51483-1.24512,3.10522-1.83576,4.67455-.33076.77239-.52374,1.59484-.78923,2.39225l-.78736,2.40161c-.41262,1.63436-.8594,3.26615-1.25308,4.91338-.32935,1.66033-.64514,3.32744-.93285,5.00063l-.10947-.28467a48.971,48.971,0,0,0,7.39171,5.22659,50.53425,50.53425,0,0,0,8.18632,3.79925,35.67544,35.67544,0,0,0,8.6455,2.03834,22.5652,22.5652,0,0,0,4.37.00912,19.49753,19.49753,0,0,0,4.2093-.93449l.85941.09707a.50827.50827,0,0,0-.36444-.09567c-.09474.00117-.185.07556-.19345.0683-.01053.00188-.01824.02223-.01824.02223a.1628.1628,0,0,1,.02035-.04094.37258.37258,0,0,0,.0676-.1345,3.988,3.988,0,0,0,.24748-.98665,16.26519,16.26519,0,0,0,.13146-2.43506c.00351-1.67951-.11789-3.38171-.283-5.105l-.13029-1.29939-.02994-.32491a3.81431,3.81431,0,0,1-.00421-.42339c.007-.24514.0255-.47976.048-.71414a15.60149,15.60149,0,0,1,.53731-2.71178,19.30078,19.30078,0,0,1,2.26523-4.92157l-.083.20328c.57519-2.06664,1.1387-4.14778,1.66033-6.23314l.78572-3.13025c.24631-1.04653.48935-2.0947.69121-3.15153l.19041.02152c-.04421,1.08443-.16538,2.16161-.29964,3.23551-.13778,1.07367-.273,2.14874-.45684,3.21376-.35485,2.13424-.73777,4.25818-1.15881,6.38447l-.01661.08328-.0669.12046a18.71471,18.71471,0,0,0-1.82734,4.62286,13.84141,13.84141,0,0,0-.37357,2.41c-.01029.19859-.01731.39742-.01427.58642a2.084,2.084,0,0,0,.00983.22737l.04351.32187.1628,1.28863a50.03837,50.03837,0,0,1,.40234,5.28625,18.10066,18.10066,0,0,1-.16468,2.75926,5.79632,5.79632,0,0,1-.41356,1.52278,1.99336,1.99336,0,0,1-.23977.436l-.16514.2269a2.36762,2.36762,0,0,1-.25848.24023,1.54681,1.54681,0,0,1-1.76582.14737l.85894.09707a21.44118,21.44118,0,0,1-4.69772.90806,24.41641,24.41641,0,0,1-4.73-.14035,27.49177,27.49177,0,0,1-4.57865-.97753,33.13565,33.13565,0,0,1-4.35807-1.59834,58.10333,58.10333,0,0,1-8.06539-4.42053,85.513,85.513,0,0,1-7.45183-5.3349l-.13309-.10806.02362-.17684c.226-1.69261.42409-3.3913.60888-5.09654.26105-1.69261.58245-3.37937.87578-5.07525.415-1.66829.78244-3.35715,1.32115-4.9976a42.51569,42.51569,0,0,1,1.89611-4.8266,34.74437,34.74437,0,0,1,5.52788-8.78163c.57684-.64959,1.1925-1.26735,1.80512-1.87974a24.48252,24.48252,0,0,1,2.00068-1.668,15.289,15.289,0,0,1,4.54988-2.462Z"/><path d="M415.93357,248.85s46.20992,14.48671,63.46558,8.738" fill="none"/><path d="M367.31416,324.38377c7.28153,14.295,15.48306,28.05365,24.08692,41.55335-14.06507,9.27473-22.38169,5.93092-22.38169,5.93092-1.37-4.599-35.40232-61.62606-34.952-81.86158.45987-20.23528,81.86157-41.16061,81.86157-41.16061s25.36129,7.95241,45.52967,9.73461A28.48452,28.48452,0,0,1,449.53947,278.375a35.561,35.561,0,0,1-5.08742,2.9892,40.40594,40.40594,0,0,1-5.52834,2.07927,53.25908,53.25908,0,0,1-11.65084,2.0119c-.98689.048-1.97354.14386-2.96043.14386l-2.97025.02877c-1.98336-.06713-3.9569-.10549-5.969-.211-4.00486-.182-8.01931-.28725-12.034-.24888a118.87092,118.87092,0,0,0-24.04856,2.20347,40.61369,40.61369,0,0,0-11.4878,4.235,18.5452,18.5452,0,0,0-4.84812,3.98568,13.884,13.884,0,0,0-1.763,2.67318,12.80723,12.80723,0,0,0-1.0442,3.03715,13.73148,13.73148,0,0,0-.2683,3.181,14.13676,14.13676,0,0,0,.45988,3.14265,50.14071,50.14071,0,0,0,1.93541,5.79665C363.76894,317.17872,365.50319,320.80043,367.31416,324.38377Z"/><path d="M432.14017,301.15906c-25.1793,0-36.90663,2.75926-45.18465,1.72465-8.26865-1.03484-7.3489,2.29939-7.3489,2.29939,0,9.65788,27.89085,46.44942,27.89085,46.44942a84.89554,84.89554,0,0,1-16.09639,14.3046c-3.9665-6.94633-7.92364-13.902-11.72733-20.93468-3.83246-7.01347-7.5882-14.0749-11.03751-21.27012-1.71506-3.60253-3.363-7.23382-4.81935-10.91307a48.70738,48.70738,0,0,1-1.82991-5.58589,12.759,12.759,0,0,1-.38316-2.788,11.72376,11.72376,0,0,1,.24889-2.77844c.73777-3.68884,3.5548-6.592,6.87944-8.47942a39.06864,39.06864,0,0,1,10.97037-3.94731,117.453,117.453,0,0,1,23.64623-2.33775c3.98591-.05754,7.97159.019,11.95727.1724,1.98336.07649,4.01444.12444,6.02658.15321l3.0278-.0959c1.01542-.01919,2.02149-.14363,3.02756-.21076a54.8348,54.8348,0,0,0,11.89972-2.32816,40.25181,40.25181,0,0,0,5.63384-2.27084,34.16523,34.16523,0,0,0,5.17373-3.2,28.46968,28.46968,0,0,0,11.36335-20.54194c7.0516.62268,13.46157.48841,17.9359-.99648h.00959C484.24262,298.85967,457.31948,301.15906,432.14017,301.15906Z"/><path d="M424.02426,200.4278c-.55414,1.11367-1.07741,2.24675-1.65986,3.34919-.61473,1.08373-1.17776,2.20068-1.84723,3.25446a69.38444,69.38444,0,0,1-4.18052,6.22378,66.60914,66.60914,0,0,1-4.912,5.68974,43.80893,43.80893,0,0,1-5.68882,5.01374l-.12233.088-.18456.02082q-11.92862,1.34489-23.87687,2.5099c-1.992.20117-3.98848.34784-5.988.50292l-3.00651.20725-1.52278.07134-.84023-.00678-.71648-.03859c-3.95246-.09848-7.97322-.14293-11.96475-.19532l-11.9982-.11673c-.98361.00258-2.03716-.04444-2.96674-.00631a13.62517,13.62517,0,0,0-2.79692.70782c-1.86617.66573-3.70568,1.443-5.54028,2.232l-2.75692,1.18759c-.46292.19508-.92677.38759-1.40512.56747l-.37123.12679c-.10783.04538-.33567.06923-.44186.09964a3.44661,3.44661,0,0,0-.47929.30152,39.62992,39.62992,0,0,0-4.26381,4.137c-1.34992,1.46454-2.67037,2.96651-3.88439,4.53093a12.45355,12.45355,0,0,0-.83648,1.1911c-.24935.38151-.38642.8442-.20912,1.0318.14269.236.63812.35648,1.0856.38362a6.42343,6.42343,0,0,0,1.41074-.06667l.2807-.04444.12631.29824a2.579,2.579,0,0,0,1.97986,1.34782,7.00517,7.00517,0,0,0,2.71108-.12608,14.714,14.714,0,0,0,5.1246-2.22266c.78783-.51906,1.53238-1.11437,2.33284-1.69378a9.04839,9.04839,0,0,1,2.71669-1.45589,6.37237,6.37237,0,0,1,3.171-.07883,26.90194,26.90194,0,0,1,2.86054.832c3.65586,1.2594,7.29534,2.43669,11.03728,2.55739a18.78511,18.78511,0,0,0,5.47291-.67344,18.4889,18.4889,0,0,0,4.97069-2.34406l.29239-.18363.31766.036c8.58281.97449,17.19485,1.76863,25.795,2.58265,8.60058.79157,17.22035,1.47951,25.823,1.78664,2.14874.07345,4.29982.1207,6.431.05872,1.06549-.02854,2.12582-.08679,3.163-.19977a7.47477,7.47477,0,0,0,2.81-.74268,17.51111,17.51111,0,0,0,4.43877-4.25795,62.32764,62.32764,0,0,0,3.69118-5.24133c2.30734-3.62568,4.37491-7.41768,6.36716-11.24663q2.99821-5.741,5.67689-11.65341l.17684.07345a172.80032,172.80032,0,0,1-11.151,23.48389,58.49858,58.49858,0,0,1-3.61048,5.47712,18.77384,18.77384,0,0,1-4.80251,4.74379c-.26245.14994-.55227.27438-.82946.40888a8.91527,8.91527,0,0,1-.86783.276,15.51083,15.51083,0,0,1-1.69143.31883c-1.1104.14386-2.2098.22526-3.30522.27719-2.19108.1076-4.3679.10316-6.54237.073-4.34941-.048-8.67848-.32795-13.00333-.60794q-6.48658-.43965-12.95608-1.02151c-8.62959-.75929-17.22643-1.76255-25.82725-2.80254l.60981-.14713a18.69705,18.69705,0,0,1-11.51586,3.1506,38.58017,38.58017,0,0,1-11.42511-2.88019c-1.8112-.64771-3.58288-1.37238-5.25046-.89519-1.672.44467-3.12954,1.82921-4.81373,2.8568a15.67135,15.67135,0,0,1-5.515,2.22125,7.80589,7.80589,0,0,1-3.04581.051,3.28292,3.28292,0,0,1-2.51669-1.92325l.40654.25356a7.89489,7.89489,0,0,1-1.58056.04983,2.08169,2.08169,0,0,1-1.60395-.70011,1.12126,1.12126,0,0,1-.18831-.50339,2.51808,2.51808,0,0,1,.03766-.48771,3.0186,3.0186,0,0,1,.34784-.77332,12.97087,12.97087,0,0,1,.89636-1.25449c1.25355-1.58337,2.592-3.07551,3.96626-4.53841a51.53337,51.53337,0,0,1,4.34263-4.20884c.09544-.0828.22316-.15461.3338-.23157a1.24619,1.24619,0,0,1,.48186-.20093c.13287-.04071.1593-.033.28585-.077l.33683-.12023c.4552-.17778.91251-.37427,1.36887-.57356l2.73774-1.221c1.82875-.81449,3.66569-1.61939,5.55852-2.32231a14.61815,14.61815,0,0,1,2.98359-.84162c1.06478-.07626,2.01494-.05755,3.0299-.0938l11.9996-.266c4.00743-.06667,7.9875-.18643,12.03235-.08842l.78128.03485.65964-.00468,1.47273-.08374,2.9768-.23509,5.96647-.53c7.96433-.67437,15.9268-1.44489,23.8888-2.18593l-.30643.10853a42.84308,42.84308,0,0,0,5.62659-4.67572,65.56554,65.56554,0,0,0,4.99736-5.44811c1.54033-1.92793,3.06381-3.88252,4.40929-5.96273,1.382-2.05635,2.62429-4.20345,3.84018-6.37091Z"/><path d="M338.67291,235.04908l-4.74239.77941a8.43717,8.43717,0,0,0-4.12205,2.182l-7.39476,6.15243-.59437-.75157,7.69206-5.77653a11.05291,11.05291,0,0,1,2.04394-1.33145,8.28516,8.28516,0,0,1,2.33471-.71086Z"/><path d="M481.38652,203.93676a19.58324,19.58324,0,0,1,6.98236-3.47013,38.10753,38.10753,0,0,1,7.68083-1.494c1.29846-.17075,2.60184-.18315,3.90638-.27087q1.95471-.03018,3.91176.00936c1.29916.07532,2.60511.10783,3.90264.21964l1.94406.193.97192.10082.48608.05053a2.91817,2.91817,0,0,1,.294.04187l.28631.06339a8.5889,8.5889,0,0,1,6.29793,5.74191,14.7334,14.7334,0,0,1-.105,8.29486,25.26934,25.26934,0,0,1-1.23086,3.82474l-.353.93566-.42362.89472-.85519,1.78454a36.87355,36.87355,0,0,1-1.89448,3.44978l-.99414,1.69354c-.31555.50877-.63438,1.06572-.94361,1.61191a111.83037,111.83037,0,0,0-6.54377,13.808,117.21833,117.21833,0,0,0-4.766,14.60144,126.55875,126.55875,0,0,0-2.76043,15.13219,113.57613,113.57613,0,0,1-2.6161,15.30131,41.32373,41.32373,0,0,1-6.54354,14.28074,39.50313,39.50313,0,0,1-11.86417,10.47588,63.02246,63.02246,0,0,1-14.56752,6.00016,107.74968,107.74968,0,0,1-15.36283,2.95691,191.76349,191.76349,0,0,1-31.04683.64046c-10.31705-.567-20.57843-1.70079-30.75911-3.28931l.032-.28561c10.27892.64584,20.54381,1.22057,30.79911,1.3284l3.84369.05918,3.84135-.04608,3.83878-.05684,3.832-.16608q7.66271-.31578,15.24892-1.22735a122.18032,122.18032,0,0,0,14.94131-2.80277,60.21019,60.21019,0,0,0,14.01572-5.45723,39.04847,39.04847,0,0,0,11.3947-9.51332,41.61851,41.61851,0,0,0,6.84458-13.33456,69.55137,69.55137,0,0,0,1.86641-7.41113c.5235-2.50476.92163-5.0411,1.29425-7.58539.77566-5.0942,1.63109-10.19448,2.82172-15.21827,2.3616-10.04431,5.39525-19.999,10.11331-29.33247.3083-.58221.61169-1.15133.95741-1.74641l.9118-1.6622c.58409-1.11788,1.276-2.18827,1.77051-3.33843l.80279-1.70009.39836-.85075.32093-.87251.6552-1.73962a15.85345,15.85345,0,0,0,.5111-1.76185,12.38007,12.38007,0,0,0,.25123-6.92412,6.28065,6.28065,0,0,0-4.49725-4.32836l-.18316-.04795a1.3242,1.3242,0,0,0-.18269-.03041l-.472-.06269-.94431-.12538-1.88863-.25964c-1.2601-.16468-2.52675-.25076-3.79176-.38082-1.26595-.08233-2.53447-.134-3.803-.18128-1.26571.01216-2.54055-.05193-3.80369.0407a42.79113,42.79113,0,0,0-7.54259.91274,27.34508,27.34508,0,0,0-3.65024,1.06033,14.83289,14.83289,0,0,0-3.3906,1.67975Z"/><path d="M381.8122,312.16335q13.41561,1.061,26.8497,1.21285,13.42473.1593,26.79846-.86361c4.45351-.34432,8.89649-.855,13.30017-1.61612a76.67941,76.67941,0,0,0,12.97409-3.30545,46.17115,46.17115,0,0,0,11.838-6.1108,25.30178,25.30178,0,0,0,8.27731-10.10886l-.02783.07461c1.712-6.38073,3.3127-12.80848,4.65725-19.2685.67507-3.2292,1.28512-6.47056,1.74617-9.72081l.30573-2.43763.22058-2.43528a41.01327,41.01327,0,0,1,.75133-5.04251c.301-1.67319.81824-3.27387,1.25449-4.90192.54151-1.58711,1.00934-3.207,1.64933-4.75315,1.1656-3.14265,2.56137-6.17746,3.97983-9.1959a172.87369,172.87369,0,0,1,9.81788-17.39345l-.02433.04164a20.119,20.119,0,0,0,1.80653-4.79222,12.47231,12.47231,0,0,0,.22362-5.06729,7.66541,7.66541,0,0,0-2.40909-4.36837,12.37,12.37,0,0,0-4.57631-2.43271l.04865-.18526a12.089,12.089,0,0,1,4.88228,2.20184,8.38143,8.38143,0,0,1,2.89867,4.60321,13.41037,13.41037,0,0,1,.00491,5.47314,21.24,21.24,0,0,1-1.71062,5.19713l-.0014.003-.02316.03883a187.44911,187.44911,0,0,0-9.219,17.49286c-1.34759,3.00136-2.69821,6.00623-3.79621,9.09508-.30058.76373-.56584,1.538-.818,2.31529l-.77566,2.32628c-.42245,1.57144-.93052,3.12955-1.2173,4.722a45.31042,45.31042,0,0,0-.76747,4.77327l-.26526,2.51155-.34994,2.48908c-.51952,3.305-1.18548,6.57021-1.91482,9.817q-2.2305,9.73249-5.24227,19.23412l-.015.04725-.0131.0276a26.68063,26.68063,0,0,1-8.93836,10.19472,50.14583,50.14583,0,0,1-12.05387,6.09769,118.05466,118.05466,0,0,1-26.329,5.89,183.30987,183.30987,0,0,1-26.98232.837,224.35979,224.35979,0,0,1-26.83964-2.52722Z"/><path d="M436.4007,378.99636c-2.71669-1.94524-5.301-4.03714-7.83615-6.18331-2.54359-2.13681-5.00672-4.362-7.44739-6.6123-2.41774-2.27459-4.81-4.57866-7.11054-6.98026a62.58321,62.58321,0,0,1-6.50588-7.588c2.47412,2.225,5.06028,4.29959,7.53791,6.50588,2.50383,2.17447,4.94683,4.41421,7.38446,6.66166,2.4112,2.27506,4.81654,4.55784,7.15125,6.918C431.91678,374.06988,434.21921,376.46587,436.4007,378.99636Z"/><path d="M389.16345,367.33547a23.89312,23.89312,0,0,1,5.34168,7.20013,11.57158,11.57158,0,0,1,1.18688,4.56626,15.3518,15.3518,0,0,1-.91624,4.60625,59.82889,59.82889,0,0,1-3.63176,8.16948,65.64,65.64,0,0,1-4.642,7.58422c1.03344-2.78779,2.163-5.50823,3.28885-8.22024,1.09846-2.719,2.247-5.41793,3.17-8.14491a14.63445,14.63445,0,0,0,.9221-4.00135,11.42731,11.42731,0,0,0-.75672-3.99667A42.751,42.751,0,0,0,389.16345,367.33547Z"/><path d="M421.45024,365.20352c-.46366,9.20194-14.427,16.5522-14.427,16.5522-19.02975,28.74347-20.52126,17.706-20.52126,17.706s-17.706,20.00545-14.48671,24.14451,12.41718,5.05885,26.90389-10.34764,14.9466-23.45467,16.55624-23.22473,5.2888,4.82891,5.2888,4.82891l15.63644-15.8664s-12.64225-11.05811-14.95036-14.15569"/><rect x="424.0992" y="319.82002" width="5.74806" height="140.1559" transform="translate(-12.56335 14.2197) rotate(-1.88032)"/><path d="M476.58237,433.98392l-2.574-18.75718a9.63266,9.63266,0,0,0-3.66872-6.34377l-45.1119-34.91227,2.34477-3.03154,45.1119,34.91227a13.4466,13.4466,0,0,1,5.12086,8.85415l2.574,18.75811Z"/><path d="M457.712,448.0815,456.28511,421.171a9.67812,9.67812,0,0,0-1.84887-5.19852l-29.51913-40.4439,3.09517-2.25868,29.51913,40.44389A13.48693,13.48693,0,0,1,460.112,420.968l1.42688,26.91145Z"/><path d="M395.15284,448.0815l-3.82685-.2021,1.42688-26.91051a13.48725,13.48725,0,0,1,2.58055-7.25511l29.51913-40.44389,3.09517,2.25868-29.51914,40.4439a9.67851,9.67851,0,0,0-1.84886,5.19946Z"/><path d="M320.23636,205.46132c-.49824,1.40863-1.06361,2.78826-1.629,4.16789l-2.25143,3.7941-4.32111,7.301h-1.66711l.25871-.43134,4.4935-7.59779,2.25143-3.8037C318.31031,207.74175,319.23988,206.58247,320.23636,205.46132Z"/><path d="M309.71627,210.23271l-.5366,4.69491-.661,5.79665h-1.447l.68046-5.95969.527-4.69467c.39274-1.54244.77589-3.08511,1.25495-4.60859C309.64914,207.06153,309.68727,208.64233,309.71627,210.23271Z"/><path d="M303.78541,220.72421h.91021l-.50781-3.55461-.412-2.85518-.63235-4.484c-.43115-1.45634-.85272-2.92226-1.36053-4.369-.06706,1.25513-.08623,2.50068-.07665,3.74623v.83356l.18205,1.236.46947,3.23843.89105,6.20859Z"/><path d="M300.74821,220.72427h-1.44677l-.90057-6.20857-.64186-4.47456c-.00983-1.52326-.00983-3.04675.07649-4.57982.50783,1.447.92934,2.91271,1.36068,4.36906l.63227,4.48415.61309,4.27316Z"/><path d="M301.88831,210.43411v.843l-.00959,3.56417v5.883h-1.43718V210.43411c.21076-1.46594.42152-2.93189.71859-4.40742.21076,1.06361.393,2.127.54619,3.181C301.77346,209.61962,301.831,210.02219,301.88831,210.43411Z"/><path d="M306.31491,211.17165l-.49823,4.37865-.58456,5.174h-1.44676l.40257-3.55458.20116-1.78219.48865-4.37866c.37356-1.43717.74736-2.87434,1.20724-4.29234C306.219,208.20163,306.267,209.68676,306.31491,211.17165Z"/><path d="M296.312,226.58781v5.174c.24935-.02877.49824-.048.74736-.07673l2.15576-4.83853C298.24742,226.77939,297.28,226.7029,296.312,226.58781Zm3.17142.345-2.309,4.74262c1.38923-.14386,2.788-.23953,4.17749-.29707Zm.30666-.048,1.97378,4.254,1.5712-4.11012C302.15661,227.00956,300.96855,226.952,299.79009,226.88488Zm4.04322.55579-1.61916,3.90895c1.025-.03836,2.04068-.05754,3.06593-.0669Zm2.04068-.3738c-.49824-.00959-1.00584-.01918-1.50408-.01918l1.466,3.61211,1.24559-3.61211C306.67889,227.05728,306.27655,227.05728,305.874,227.06687Zm1.84933.91016-1.25519,3.30569c.8049.00936,1.60957.01918,2.41447.04772C308.48027,230.20952,308.09688,229.09819,307.72332,227.977Zm.67063-.94829c.41193,1.1401.8049,2.2802,1.188,3.42031.51742-1.17847,1.02525-2.34734,1.55226-3.51621C310.22387,226.98056,309.3137,227.00956,308.394,227.02874Zm3.27668.4407c-.47906,1.3029-.97706,2.59645-1.4753,3.89936,1.10174.03836,2.20348.1055,3.29586.20117C312.85869,230.20952,312.26478,228.84907,311.67063,227.46944ZM296.312,220.72427v5.86354a81.86039,81.86039,0,0,1,9.562-.47906c.58455,0,1.1691.00959,1.75342.01919a.47408.47408,0,0,1,.25871,0c1.22642.01918,2.44324.06713,3.66007.134a.34864.34864,0,0,1,.09567-.01895.38489.38489,0,0,1,.14386.02877c1.21682.07649,2.43365.1724,3.65024.316v-5.86354Zm2.23248,4.28274a1.438,1.438,0,0,1,0-2.87434A1.438,1.438,0,0,1,298.54449,225.007Zm5.17374,0a1.438,1.438,0,0,1,0-2.87434A1.438,1.438,0,0,1,303.71823,225.007Zm5.00156-.17239a1.438,1.438,0,0,1,0-2.87435A1.438,1.438,0,0,1,308.71979,224.83462Zm4.915.17239a1.438,1.438,0,0,1,0-2.87434A1.438,1.438,0,0,1,313.63482,225.007Zm-1.54244,1.86828c.53637,1.56162,1.05379,3.12347,1.53284,4.7045.60374.05731,1.20724.10526,1.81074.182v-5.174C314.32463,226.71249,313.2133,226.80816,312.09238,226.87529Zm-12.60895.05755-2.309,4.74262c1.38923-.14386,2.788-.23953,4.17749-.29707Zm.30666-.048,1.97378,4.254,1.5712-4.11012C302.15661,227.00956,300.96855,226.952,299.79009,226.88488Zm4.04322.55579-1.61916,3.90895c1.025-.03836,2.04068-.05754,3.06593-.0669Zm2.04068-.3738c-.49824-.00959-1.00584-.01918-1.50408-.01918l1.466,3.61211,1.24559-3.61211C306.67889,227.05728,306.27655,227.05728,305.874,227.06687Zm1.84933.91016-1.25519,3.30569c.8049.00936,1.60957.01918,2.41447.04772C308.48027,230.20952,308.09688,229.09819,307.72332,227.977Zm.67063-.94829c.41193,1.1401.8049,2.2802,1.188,3.42031.51742-1.17847,1.02525-2.34734,1.55226-3.51621C310.22387,226.98056,309.3137,227.00956,308.394,227.02874Zm3.27668.4407c-.47906,1.3029-.97706,2.59645-1.4753,3.89936,1.10174.03836,2.20348.1055,3.29586.20117C312.85869,230.20952,312.26478,228.84907,311.67063,227.46944Zm-12.1872-.5366-2.309,4.74262c1.38923-.14386,2.788-.23953,4.17749-.29707Zm.30666-.048,1.97378,4.254,1.5712-4.11012C302.15661,227.00956,300.96855,226.952,299.79009,226.88488Zm4.04322.55579-1.61916,3.90895c1.025-.03836,2.04068-.05754,3.06593-.0669Zm2.04068-.3738c-.49824-.00959-1.00584-.01918-1.50408-.01918l1.466,3.61211,1.24559-3.61211C306.67889,227.05728,306.27655,227.05728,305.874,227.06687Zm1.84933.91016-1.25519,3.30569c.8049.00936,1.60957.01918,2.41447.04772C308.48027,230.20952,308.09688,229.09819,307.72332,227.977Zm.67063-.94829c.41193,1.1401.8049,2.2802,1.188,3.42031.51742-1.17847,1.02525-2.34734,1.55226-3.51621C310.22387,226.98056,309.3137,227.00956,308.394,227.02874Zm3.27668.4407c-.47906,1.3029-.97706,2.59645-1.4753,3.89936,1.10174.03836,2.20348.1055,3.29586.20117C312.85869,230.20952,312.26478,228.84907,311.67063,227.46944ZM296.312,237.36661v1.18806a9.562,9.562,0,0,0,19.124,0v-1.18806a95.66742,95.66742,0,0,1-19.124,0Zm13.47116-5.2025a.46141.46141,0,0,1-.42151.048.58851.58851,0,0,1-.05755-.03836c-1.1401.03836-2.28979.05754-3.43012.06713a86.27766,86.27766,0,0,1-9.562-.47905v5.60483a95.66742,95.66742,0,0,1,19.124,0v-5.60483C313.54873,231.98212,311.67063,232.097,309.78317,232.16411Zm-10.80757,3.88042a1.438,1.438,0,0,1,0-2.87435A1.438,1.438,0,0,1,298.9756,236.04453Zm4.39783-.08632a1.438,1.438,0,0,1,0-2.87435A1.438,1.438,0,0,1,303.37343,235.95821Zm4.82894,0a1.438,1.438,0,0,1,0-2.87435A1.438,1.438,0,0,1,308.20237,235.95821Zm4.82894-.17239a1.438,1.438,0,0,1,0-2.87435A1.438,1.438,0,0,1,313.03131,235.78582Zm.45988-4.21585c-.6325-1.36045-1.22641-2.7209-1.82056-4.10053-.47906,1.3029-.97706,2.59645-1.4753,3.89936C311.29707,231.40716,312.39881,231.4743,313.49119,231.57Zm-2.35693-4.63713c-.91039.04772-1.82056.07672-2.74031.0959.41193,1.1401.8049,2.2802,1.188,3.42031C310.09942,229.27058,310.60725,228.10171,311.13426,226.93284Zm-2.25166,4.3976c-.40233-1.12092-.78572-2.23225-1.15928-3.35341l-1.25519,3.30569C307.273,231.29208,308.0777,231.3019,308.8826,231.33044Zm-1.80115-4.28275c-.40256.00959-.8049.00959-1.20746.01918-.49824-.00959-1.00584-.01918-1.50408-.01918l1.466,3.61211Zm-1.80137,4.235-1.44677-3.84205-1.61916,3.90895C303.23917,231.31126,304.25483,231.29208,305.28008,231.28272Zm-1.945-4.254c-1.17846-.01918-2.36652-.07672-3.545-.14386l1.97378,4.254Zm-3.85164-.0959-2.309,4.74262c1.38923-.14386,2.788-.23953,4.17749-.29707Zm12.1872.5366c-.47906,1.3029-.97706,2.59645-1.4753,3.89936,1.10174.03836,2.20348.1055,3.29586.20117C312.85869,230.20952,312.26478,228.84907,311.67063,227.46944Zm-3.27668-.4407c.41193,1.1401.8049,2.2802,1.188,3.42031.51742-1.17847,1.02525-2.34734,1.55226-3.51621C310.22387,226.98056,309.3137,227.00956,308.394,227.02874Zm-.67063.94829-1.25519,3.30569c.8049.00936,1.60957.01918,2.41447.04772C308.48027,230.20952,308.09688,229.09819,307.72332,227.977Zm-1.84933-.91016c-.49824-.00959-1.00584-.01918-1.50408-.01918l1.466,3.61211,1.24559-3.61211C306.67889,227.05728,306.27655,227.05728,305.874,227.06687Zm-2.04068.3738-1.61916,3.90895c1.025-.03836,2.04068-.05754,3.06593-.0669Zm-4.04322-.55579,1.97378,4.254,1.5712-4.11012C302.15661,227.00956,300.96855,226.952,299.79009,226.88488Zm-.30666.048-2.309,4.74262c1.38923-.14386,2.788-.23953,4.17749-.29707Zm12.1872.5366c-.47906,1.3029-.97706,2.59645-1.4753,3.89936,1.10174.03836,2.20348.1055,3.29586.20117C312.85869,230.20952,312.26478,228.84907,311.67063,227.46944Zm-3.27668-.4407c.41193,1.1401.8049,2.2802,1.188,3.42031.51742-1.17847,1.02525-2.34734,1.55226-3.51621C310.22387,226.98056,309.3137,227.00956,308.394,227.02874Zm-.67063.94829-1.25519,3.30569c.8049.00936,1.60957.01918,2.41447.04772C308.48027,230.20952,308.09688,229.09819,307.72332,227.977Zm-1.84933-.91016c-.49824-.00959-1.00584-.01918-1.50408-.01918l1.466,3.61211,1.24559-3.61211C306.67889,227.05728,306.27655,227.05728,305.874,227.06687Zm-2.04068.3738-1.61916,3.90895c1.025-.03836,2.04068-.05754,3.06593-.0669Zm-4.04322-.55579,1.97378,4.254,1.5712-4.11012C302.15661,227.00956,300.96855,226.952,299.79009,226.88488Zm-.30666.048-2.309,4.74262c1.38923-.14386,2.788-.23953,4.17749-.29707Z"/><path d="M394.6794,377.69533a15.48658,15.48658,0,0,1,3.32042.302,25.3731,25.3731,0,0,1,3.15083.81847,24.9794,24.9794,0,0,1,3.022,1.20911,15.29215,15.29215,0,0,1,2.85049,1.73073,15.28561,15.28561,0,0,1-3.32136-.29941,24.92788,24.92788,0,0,1-3.14967-.82081,25.40569,25.40569,0,0,1-3.02124-1.21168A15.48053,15.48053,0,0,1,394.6794,377.69533Z"/></svg>