<svg id="Layer_1" data-name="Layer 1" xmlns="http://www.w3.org/2000/svg" viewBox="0 0 700 550"><title>enjoying cool breeze</title><path d="M276.28079,184.19955q1.01052,3.09751,1.85039,6.24834c.28245,1.05.54537,2.10664.78046,3.17469q.17841.80034.31566,1.618c.0372.27719.09427.54362.11392.83087l.03649.42572.05006.349a3.92894,3.92894,0,0,0,1.61448,2.31529,18.03292,18.03292,0,0,0,2.69295,1.64629,6.06049,6.06049,0,0,1,.77519.47578l.108.083a1.65678,1.65678,0,0,1,.16117.19017,1.08188,1.08188,0,0,1,.15637.29287,4.66762,4.66762,0,0,1,.15006.44654,3.51161,3.51161,0,0,1,.03333,1.95085,2.68151,2.68151,0,0,1-1.32829,1.59951,5.42525,5.42525,0,0,1-1.80348.523l.625-.72022c.08257,1.51273.08152,3.0016.05287,4.505-.03486,1.50033-.1138,3.00323-.27813,4.50964a21.98954,21.98954,0,0,1-.90338,4.52649,7.29,7.29,0,0,1-1.14887,2.23506,3.14118,3.14118,0,0,1-1.16993.91788,2.72816,2.72816,0,0,1-1.58173.18339l.186.0145-7.35768.26082.05743-1.70618a20.776,20.776,0,0,1,6.95885,2.41985,24.40023,24.40023,0,0,1,5.80238,4.38942c.43485.42268.80946.90291,1.21589,1.35132l.59648.68421.53134.735c.35005.49262.71566.974,1.05063,1.47483l.91379,1.55928.45426.7794.38.81753.75753,1.63273c.456,1.10712.81859,2.25026,1.23,3.37071l-.21146-.25309a42.87734,42.87734,0,0,1,8.71368,7.11709,38.11772,38.11772,0,0,1,6.46623,9.1669,33.14076,33.14076,0,0,1,2.02524,5.26051,34.53753,34.53753,0,0,1,1.05273,5.5494,35.34681,35.34681,0,0,1-.849,11.25411l-.082-.48373q4.15679,5.99606,8.24714,12.03562l8.17521,12.08358.00971.014a.88632.88632,0,0,1,.0497.90852,94.25888,94.25888,0,0,1-11.20113,16.495,103.82292,103.82292,0,0,1-14.09478,14.03256l-1.90991,1.59507-2.00021,1.48161c-1.34454.97145-2.64371,2.00536-4.02416,2.92347-2.79657,1.7843-5.52553,3.672-8.48128,5.18379a105.17849,105.17849,0,0,1-18.19718,7.83522l-.01684.00561a.26652.26652,0,0,1-.27778-.06784L258.97951,347.46a.09575.09575,0,0,1,.00292-.13544.09955.09955,0,0,1,.13427.00164l5.03619,4.68929-.29427-.06222,4.54567-1.89026a47.56173,47.56173,0,0,0,4.49374-1.98173l4.393-2.19342a22.89463,22.89463,0,0,0,2.14477-1.18923l2.10968-1.25167c2.87-1.57168,5.5246-3.48791,8.23345-5.30917,1.33788-.935,2.59377-1.98477,3.89375-2.97025l1.93284-1.5015,1.84161-1.61355c1.207-1.098,2.50254-2.09588,3.65726-3.25025l3.52042-3.39878,3.34487-3.57095c1.10981-1.19437,2.14184-2.45914,3.21691-3.68509a99.287,99.287,0,0,0,11.10944-16.00376l.05942.92232L314.377,290.85167q-3.97608-6.11571-7.90656-12.26206l-.01088-.01684a.588.588,0,0,1-.07122-.46713,33.60577,33.60577,0,0,0,1.17027-10.885,30.44254,30.44254,0,0,0-.88373-5.43174,32.466,32.466,0,0,0-1.92477-5.16765,34.08961,34.08961,0,0,0-6.33161-9.023,37.95224,37.95224,0,0,0-8.69169-6.75874.45072.45072,0,0,1-.19953-.22362l-.01228-.02971c-.444-1.07834-.83706-2.17728-1.31881-3.23364l-.79192-1.55109-.39473-.77449-.46584-.73309-.92993-1.4636c-.33813-.46713-.70479-.91368-1.05461-1.37121l-.52982-.68186-.5911-.62877c-.40163-.411-.7704-.854-1.19659-1.23811a24.7407,24.7407,0,0,0-5.5749-3.95854,20.87451,20.87451,0,0,0-6.37044-2.15366l-.04093-.00608a.85492.85492,0,0,1,.09836-1.70009l7.3585-.23719a.79032.79032,0,0,1,.1228.00561l.06351.00866a1.15707,1.15707,0,0,0,1.1532-.50737,5.755,5.755,0,0,0,.87473-1.70453,22.27946,22.27946,0,0,0,.88735-4.18077,63.47806,63.47806,0,0,0,.41017-8.769l-.00012-.00959a.70987.70987,0,0,1,.62538-.71087,4.179,4.179,0,0,0,1.31963-.31952,1.36051,1.36051,0,0,0,.73227-.80233,2.28126,2.28126,0,0,0,.00526-1.25683c-.02725-.11134-.05988-.22245-.097-.32771-.01473-.04374-.051-.13287-.03064-.06339a.0615.0615,0,0,0,.03345.032l-.05357-.04046a5.40552,5.40552,0,0,0-.59929-.38994,18.9861,18.9861,0,0,1-2.78382-1.84536A6.43851,6.43851,0,0,1,279.183,198.684a3.73007,3.73007,0,0,1-.68222-1.69869,41.01368,41.01368,0,0,0-.95191-6.399c-.45006-2.11553-.94163-4.22731-1.45215-6.33372a.09585.09585,0,0,1,.18409-.0531Z"/><path d="M218.903,219.3027a51.31874,51.31874,0,0,0-17.24807,10.14372A46.44314,46.44314,0,0,0,190.08454,245.548a45.61559,45.61559,0,0,0-1.74079,4.65935c-.451,1.56325-.94116,3.24908-1.46349,4.84929-1.04888,3.225-2.1774,6.40833-3.31692,9.58888q-3.43152,9.536-7.04926,18.99389l-.32958-1.11624a28.299,28.299,0,0,0,9.43332,4.07784,62.69941,62.69941,0,0,0,10.40465,1.61916,104.35528,104.35528,0,0,0,10.60173.24373c3.53434-.10619,7.093-.29145,10.59167-.67367l.0276-.003a.71179.71179,0,0,1,.73192.43017,151.5625,151.5625,0,0,0,8.98479,17.68537c3.31118,5.74378,6.99137,11.27377,10.80816,16.71346a188.14991,188.14991,0,0,1-11.59213-16.237,148.55364,148.55364,0,0,1-9.52653-17.58175l.7594.42689a104.02094,104.02094,0,0,1-10.73634.89075,106.03887,106.03887,0,0,1-10.778-.15649,64.44772,64.44772,0,0,1-10.72149-1.578,29.46927,29.46927,0,0,1-10.1077-4.31339.94223.94223,0,0,1-.33262-1.10969l.00292-.00679q3.67469-9.41706,7.19663-18.89845c1.163-3.16113,2.31587-6.32857,3.38077-9.51122.54619-1.60021.98221-3.15925,1.52092-4.821a48.20012,48.20012,0,0,1,14.2122-20.97047,49.84775,49.84775,0,0,1,13.07152-7.78282,24.99169,24.99169,0,0,1,2.38371-.86244Z"/><path d="M194.20624,259.92671c2.6126,1.69822,5.16718,3.49,7.6337,5.40881,1.23542.95718,2.43856,1.95974,3.59083,3.03154a16.50374,16.50374,0,0,1,3.09726,3.636l9.616,16.03112a.95851.95851,0,0,1-1.6429.98783l-.02468-.04351-8.783-16.505a15.686,15.686,0,0,0-2.76651-3.5941c-1.07355-1.10642-2.21389-2.16114-3.39118-3.17376C199.18453,263.67473,196.72773,261.75592,194.20624,259.92671Z"/><path d="M242.65178,258.66544q-.26982,4.322-.66385,8.62865-.38877,4.307-.85847,8.60386c-.29988,2.8664-.65063,5.72624-.98806,8.58772-.35531,2.85915-.73776,5.715-1.19285,8.56152l-.56139-.825c3.41937.9553,6.91979,1.76676,10.42535,2.472A87.32648,87.32648,0,0,0,259.451,296.093a63.21032,63.21032,0,0,0,10.687-.15134,38.53425,38.53425,0,0,0,5.20566-.91882,19.2676,19.2676,0,0,0,4.82883-1.81448l-.42468.578c.765-4.47222,1.59051-8.93064,2.40488-13.39327q1.24753-6.68868,2.72149-13.33643c.48853-2.217,1.01168-4.42707,1.55191-6.63921.27485-1.1008.57823-2.214.88677-3.31013.29777-1.06735.5697-2.14851.80069-3.24463.46654-2.19061.81379-4.42029,1.07168-6.66237.29426-2.23973.49075-4.49584.65426-6.75546a.09566.09566,0,0,1,.10023-.09146.09816.09816,0,0,1,.09135.09146,73.58141,73.58141,0,0,1-.60081,13.65291c-.15076,1.13823-.3752,2.27038-.63426,3.4-.25181,1.1001-.49017,2.1878-.71157,3.2989l-1.31928,6.65394c-.86631,4.44345-1.72688,8.89134-2.64207,13.32894l-2.745,13.31468-.00725.03508a.78954.78954,0,0,1-.41753.54292,26.78918,26.78918,0,0,1-10.7305,2.36862,83.27316,83.27316,0,0,1-10.818-.34081c-3.58557-.30853-7.15558-.73543-10.72056-1.22548-3.57258-.469-7.11838-1.04256-10.66933-1.792a.71813.71813,0,0,1-.56689-.77l.00526-.0552c.27088-2.86991.61438-5.73069.98514-8.588.38853-2.85493.76373-5.71173,1.1898-8.562q.613-4.27854,1.3194-8.54538.70245-4.2673,1.514-8.52082a.09606.09606,0,0,1,.19017.02433Z"/><path d="M276.57054,182.289s-29.88745-16.568-41.33857-2.06675c0,0-5.3314,7.24023-5.15147,14.07236s1.86731,10.995-16.76847,32.25934,24.07183,15.40636,27.43253,13.2142S254.75421,222.57,261.3028,221.60863s-.01059-10.3865-.01059-10.3865-7.46484,1.117-7.28868-7.17081,7.37141-4.6644,7.37141-4.6644S272.67087,203.95411,276.57054,182.289Z"/><path d="M265.24773,216.64005c.79075.53028,1.39518,1.09519,2.04009,1.5974.31473.25591.63613.48842.97074.71485a9.7633,9.7633,0,0,0,1.14174.60233,2.18585,2.18585,0,0,1-1.43085.087,3.61361,3.61361,0,0,1-1.27858-.65566,4.31907,4.31907,0,0,1-.93063-1.0456A3.28369,3.28369,0,0,1,265.24773,216.64005Z"/><path d="M262.86706,221.09823a13.58046,13.58046,0,0,1,3.81176-.0538,13.41607,13.41607,0,0,1,3.70474.898,13.41486,13.41486,0,0,1-3.81164.05357A13.55389,13.55389,0,0,1,262.86706,221.09823Z"/><path d="M278.30673,203.27976a13.56915,13.56915,0,0,0,.69929,1.21332,2.51017,2.51017,0,0,0,.35871.43531c.14853.15953.344.3069.57742.54339a1.19135,1.19135,0,0,1-.91017.12631,1.36792,1.36792,0,0,1-.8111-.557,1.50688,1.50688,0,0,1-.26233-.92069A1.25022,1.25022,0,0,1,278.30673,203.27976Z"/><path d="M273.34142,194.47006a3.12921,3.12921,0,0,1,2.01389-.76374,2.909,2.909,0,0,1,2.05915.65637,8.41127,8.41127,0,0,1-2.02371.30058A7.05774,7.05774,0,0,1,273.34142,194.47006Z"/><path d="M274.62427,199.34438a1.09593,1.09593,0,0,0,0-2.19054,1.09593,1.09593,0,0,0,0,2.19054Z"/><path d="M277.29715,209.88037a8.8475,8.8475,0,0,1,2.37.622c.74034.29474,1.3946.60374,2.194.98128a2.40846,2.40846,0,0,1-1.29812.20561,4.44834,4.44834,0,0,1-1.24512-.2952,5.18359,5.18359,0,0,1-1.10619-.60467A3.56867,3.56867,0,0,1,277.29715,209.88037Z"/><path d="M315.9792,313.73627c1.36068,1.13051,2.67318,2.29962,3.89,3.5258l-1.21683,1.63834c-1.03472,1.37986-1.99284,2.817-3.13306,4.11035l-3.27668,3.97632c-1.054,1.37-2.28991,2.56769-3.43972,3.83246l-1.74371,1.89706a25.23187,25.23187,0,0,1-1.79168,1.85868l-1.418,1.36069c-.79531-1.12116-1.56173-2.28044-2.28991-3.4589.69952,1.20723,1.42758,2.39529,2.18453,3.55457l-2.18453,2.10781A110.91075,110.91075,0,0,1,285.243,350.61413c-1.47553.872-2.9223,1.79179-4.45538,2.56792l-2.27061,1.22618-2.33786,1.09238a55.35,55.35,0,0,1-9.677,3.60253,68.21758,68.21758,0,0,1-2.54862-6.86985C290.59873,343.13119,307.35616,325.36769,315.9792,313.73627Z"/><path d="M323.12682,302.55513l4.39772,3.58335c-1.99284,2.84557-3.81328,5.77746-5.78706,8.60386l-1.27413,1.72465a26.95578,26.95578,0,0,0-4.48415-2.73072A82.57633,82.57633,0,0,0,323.12682,302.55513Z"/><path d="M433.63584,378.72533c-29.98906-1.65753-54.85211-3.04675-54.85211-3.04675a103.90862,103.90862,0,0,0,15.28189-20.59013,133.85634,133.85634,0,0,0,10.5298-23.464,162.29469,162.29469,0,0,0,6.30436-24.92083c.115-.68023.22035-1.36045.33543-2.04068.12445,3.56416.27778,7.13792.41193,10.71167.19157,4.72344.44069,9.45671.67063,14.18016l.77613,14.17056.85262,14.17057a.93735.93735,0,0,0,.79531.86221h.00959c4.37866.59415,8.78585,1.054,13.21245,1.27437,1.26467.0669,2.53892.11485,3.80369.15321C432.82147,362.30309,434.594,367.64945,433.63584,378.72533Z"/><path d="M439.92114,358.36537q-5.93553.1007-11.86148-.23953c-4.11035-.22994-8.22059-.59414-12.31176-1.12115l-.9773-13.38485-1.10185-14.161c-.39286-4.71385-.776-9.42771-1.21683-14.14156-.36409-3.83246-.709-7.66492-1.08267-11.49739a139.27687,139.27687,0,0,0,1.73424-22.65957c-.32584,4.254-.79531,8.489-1.45635,12.70462-.61321,4.20626-1.36045,8.40269-2.21331,12.56077-.8718,4.16789-1.82032,8.307-2.94136,12.39819-1.09227,4.11035-2.30909,8.17275-3.7079,12.17761-1.36045,4.024-2.86476,7.99077-4.551,11.88077-.79531,1.964-1.72466,3.88019-2.606,5.806-.94852,1.897-1.84921,3.81328-2.86475,5.68156a134.70882,134.70882,0,0,1-13.979,21.30871c-26.53017,20.79106-47.50333,26.90373-63.84873,25.30375.1724-2.27084.23953-4.54146.31614-6.80271a.4527.4527,0,0,0-.115-.30667l-.03836-.04771q-2.86-2.96067-5.79665-5.86378-2.94609-2.88874-5.94027-5.71034c-1.98336-1.90664-4.024-3.73655-6.04576-5.60506-2.04068-1.83951-4.09117-3.66943-6.17021-5.46122l-.048-.03813a.64983.64983,0,0,0-.83344-.01918c-2.88394,2.309-5.75829,4.63713-8.537,7.09956,3.0182-1.79179,5.95-3.71761,8.86257-5.66238,1.80138,1.82991,3.64088,3.62147,5.48051,5.41326,2.00243,1.88746,3.96661,3.80369,5.99781,5.65279q3.018,2.80277,6.11278,5.52834,3.018,2.6733,6.10319,5.27923c.1917,2.17494.37368,4.35947.65157,6.544-28.57107-2.788-43.04818-29.117-48.43279-41.87919a59.31274,59.31274,0,0,0,19.49763-7.205,92.93672,92.93672,0,0,0,16.85322-12.35983l1.96419-1.90664a71.881,71.881,0,0,0,7.11873,8.78607c4.01457,4.17726,8.59427,7.99054,14.046,10.28057a25.18262,25.18262,0,0,0,8.59438,1.993,23.18353,23.18353,0,0,0,8.72831-1.5139l2.05049-.86244c.65146-.3352,1.29332-.71859,1.93542-1.08256l.96759-.54619.90069-.64186,1.80114-1.29355c1.13063-.94853,2.24208-1.91623,3.31516-2.92207.99636-1.0732,2.06-2.09845,2.99891-3.21937.91975-1.14033,1.87787-2.26125,2.75937-3.43013l2.52944-3.58334c1.6-2.42406,3.16183-4.85748,4.72345-7.31031q4.67081-7.32972,9.20759-14.75512c6.07431-9.878,11.96686-19.86172,18.06993-29.6824,3.03727-4.92461,6.13208-9.8111,9.50455-14.458A63.69675,63.69675,0,0,1,409.501,266.779a23.51446,23.51446,0,0,1,3.14264-2.7499,8.64278,8.64278,0,0,1,3.545-1.66688,4.64365,4.64365,0,0,1,1.82044.03836,3.21077,3.21077,0,0,1,.87192.28725,3.076,3.076,0,0,1,.76642.41216,10.5382,10.5382,0,0,1,2.357,3.17118,49.27821,49.27821,0,0,1,3.14253,7.92364c1.71507,5.48039,3.03727,11.11423,4.27328,16.75743,2.41447,11.30581,4.29234,22.74566,5.99781,34.19509C437.11392,336.19444,438.56057,347.27031,439.92114,358.36537Z"/><path d="M467.467,337.29642c-.02877,2.127-.08631,4.254-.15333,6.381-.15333,4.08158-.30655,8.16317-.48865,12.23516-4.15819.709-8.34515,1.27437-12.5417,1.66711-4.34988.4311-8.72842.68981-13.09736.76654-.41216.00959-.82409.00959-1.22642.01918a675.42162,675.42162,0,0,0-9.1021-67.71019,168.78206,168.78206,0,0,0-4.12953-16.9586,51.992,51.992,0,0,0-3.21926-8.22047,11.97914,11.97914,0,0,0-2.80733-3.73679,4.44,4.44,0,0,0-1.13051-.63228,4.61943,4.61943,0,0,0-1.17846-.40233,6.41847,6.41847,0,0,0-2.4912-.05754,10.19974,10.19974,0,0,0-4.27315,1.93541,25.1481,25.1481,0,0,0-3.40136,2.95084,64.0114,64.0114,0,0,0-5.63361,6.77394c-3.4589,4.7045-6.592,9.60034-9.65788,14.52518-6.07442,9.89718-11.90931,19.89985-17.9263,29.79726q-4.49836,7.41569-9.12128,14.77406l-4.666,7.32014-2.42406,3.545c-.84315,1.15928-1.7629,2.261-2.63482,3.39177-.91016,1.10174-1.9257,2.1078-2.87435,3.17142-1.02513.99647-2.08874,1.94476-3.16171,2.87434l-1.71506,1.26455-.85274.6325-.91987.5366c-.61309.35438-1.21671.728-1.83951,1.06338l-1.93541.85285a22.15193,22.15193,0,0,1-8.259,1.56162,24.41234,24.41234,0,0,1-8.26854-1.7822c-5.33666-2.079-9.96431-5.72951-14.0363-9.77273a70.7721,70.7721,0,0,1-5.73911-6.48646c-.54619-.68982-1.0732-1.38922-1.60021-2.08863l1.63846-1.60021a25.80165,25.80165,0,0,0,1.80126-1.89705l1.74384-1.95436a100.89233,100.89233,0,0,0,6.563-8.125c1.09238-1.35085,2.01213-2.836,2.97025-4.28251l.98689-1.52349a25.88147,25.88147,0,0,1,2.1078,2.51014,17.26936,17.26936,0,0,1,2.28032,4.072,13.085,13.085,0,0,1,.99637,4.465,18.01164,18.01164,0,0,1-2.127,8.96783,37.61435,37.61435,0,0,1-5.51876,7.94282,24.09883,24.09883,0,0,0,6.8219-7.22423,17.17692,17.17692,0,0,0,2.73049-9.79191,15.41853,15.41853,0,0,0-4.01445-9.36081,21.42,21.42,0,0,0-2.63482-2.55809l1.21683-1.86828c.891-1.48513,1.68629-3.03715,2.52943-4.55105s1.66712-3.03715,2.4719-4.57023l7.1571,5.83477a21.60082,21.60082,0,0,0-5.42285,7.24341,18.83127,18.83127,0,0,0,3.09469-3.33422,19.24872,19.24872,0,0,0,2.32816-3.90919c57.54448-65.88963,78.45062-83.059,100.04647-75.33652,21.44263,7.66493,32.48973,93.13838,32.63336,94.27849v.00959C467.5341,333.0518,467.467,335.16919,467.467,337.29642Z"/><path d="M536.4321,384.14818c-2.0312.04795-33.50527-1.61916-67.80586-3.497-11.38241-10.05063-10.91283-19.25822-10.47213-21.95058q4.714-.66105,9.38946-1.62875l.02877-.00959a.62634.62634,0,0,0,.48865-.59391c.03824-4.26357.05742-8.51778-.02877-12.78135-.03825-2.13658-.0862-4.26357-.16292-6.40014a61.39924,61.39924,0,0,0-.50783-6.362l68.09334,16.0868C538.80821,354.62858,536.4321,384.14818,536.4321,384.14818Z"/><path d="M468.65794,380.61349c1.78582,1.44115,3.65317,2.7644,5.563,4.01866,1.91472,1.24793,3.90159,2.37844,5.90413,3.475,2.00606,1.09261,4.07,2.07482,6.14273,3.036,2.07085.96677,4.17573,1.85962,6.281,2.75856l.03812.01637a.288.288,0,0,1,.17462.26222,3.80441,3.80441,0,0,1-2.40359,3.33422,11.31848,11.31848,0,0,1-3.94334.90291,24.99731,24.99731,0,0,1-4.00614-.06432c-1.33133-.08842-2.65354-.26737-3.96931-.476a103.43541,103.43541,0,0,1-15.49733-3.8596c-5.06473-1.65167-10.05331-3.52439-14.96038-5.58331-1.23835-.50175-2.44757-1.0463-3.66942-1.46384a22.60578,22.60578,0,0,0-3.7865-.95531,23.66367,23.66367,0,0,0-3.904-.30386c-1.301.00562-2.63459.12889-3.9596.2007l-.01286.00071a.25852.25852,0,0,1-.27216-.24421.264.264,0,0,1,.00573-.06971,68.27168,68.27168,0,0,0,1.20559-6.8792.04791.04791,0,0,1,.09544.008,54.91667,54.91667,0,0,1-.78712,6.97511l-.2793-.31321c1.32349-.13287,2.63248-.31719,3.98825-.38643a23.78588,23.78588,0,0,1,4.04112.19579,23.47038,23.47038,0,0,1,3.95924.88069c1.30642.40537,2.51821.96911,3.7472,1.45,4.92181,1.98032,9.85578,3.93023,14.86541,5.664a107.104,107.104,0,0,0,15.27781,4.34521,30.01987,30.01987,0,0,0,7.88866.524,9.86059,9.86059,0,0,0,3.74662-.99063,4.29669,4.29669,0,0,0,1.42232-1.18946,2.58559,2.58559,0,0,0,.53648-1.63016l.21263.27813a83.528,83.528,0,0,1-12.545-5.75711,61.71442,61.71442,0,0,1-5.83747-3.70007,47.76707,47.76707,0,0,1-5.32589-4.388.04793.04793,0,0,1,.06339-.07181Z"/><path d="M456.65939,415.82353l-27.59378-1.21682,5.126-8.30679c1.78208.6035,3.60252,1.11133,5.43244,1.53284,1.83.43111,3.66965.80491,5.53793,1.09239a46.39617,46.39617,0,0,0,5.64332.54619,21.99416,21.99416,0,0,0,5.52834-.393,12.433,12.433,0,0,0-.2683,3.1906A12.06934,12.06934,0,0,0,456.65939,415.82353Z"/><path d="M463.74947,405.9549l-.25871,3.40135-6.83137,6.46728a12.42073,12.42073,0,0,0,.36409-3.59293,12.71059,12.71059,0,0,0-.49824-3.1906l.02877-.00959,3.61212-1.48513C461.36377,407.00892,462.57089,406.51068,463.74947,405.9549Z"/><path d="M525.251,415.32529c-7.94282,5.45163-34.08024.78572-42.93322-5.69115a22.91253,22.91253,0,0,0-18.56828-3.67924c-1.25507.345-2.50067.75694-3.74627,1.1401l-3.66954,1.21682a26.20935,26.20935,0,0,1-5.4901.22035q-2.788-.12912-5.557-.50783-2.77382-.34455-5.54741-.78549l-5.54752-.93893c-5.03011-8.16316-1.55226-20.64744-1.55226-20.64744l2.57739-.22035a23.12923,23.12923,0,0,1,10.91295,1.71483c47.68543,19.96722,46.29621,7.071,46.29621,7.071C523.79462,404.04825,533.18408,409.87367,525.251,415.32529Z"/><path d="M536.74309,355.34249a13.66015,13.66015,0,0,0,5.6942.07111,9.79752,9.79752,0,0,0,1.389-.31018c.456-.13263.92362-.214,1.36642-.38619l1.32337-.52046.66093-.2545.63016-.33169a31.279,31.279,0,0,0,8.9476-6.95523,24.16882,24.16882,0,0,0,1.871-2.17c.60058-.74525,1.24185-1.45729,1.8105-2.22921l1.66922-2.35084c.545-.792,1.16723-1.534,1.64477-2.37494l1.53109-2.461c.49836-.82829,1.05812-1.6236,1.48478-2.4947.90642-1.71179,1.83038-3.42054,2.708-5.15362l.02222-.04374a.28811.28811,0,0,1,.26971-.15742,3.4713,3.4713,0,0,1,2.87528,2.25868,7.80446,7.80446,0,0,1,.48233,1.73729,8.69623,8.69623,0,0,1,.18479,1.76746,33.19051,33.19051,0,0,1-.68431,6.99008c-.483,2.28324-1.01169,4.56532-1.70022,6.79312-.59882,2.2629-1.42688,4.44018-2.19844,6.642-1.60583,4.37678-3.46779,8.64736-5.38543,12.8859l-.7111,1.59437c-.23263.52-.46093,1.0056-.65356,1.52606a18.98293,18.98293,0,0,0-.91309,3.16814,21.46871,21.46871,0,0,0-.38724,3.27692c-.03205,1.07764.03064,2.26149.05134,3.41679a.98.98,0,0,1-.96.99952,1.04163,1.04163,0,0,1-.24608-.0262l-3.22078-.7642c-1.08571-.18339-2.16593-.4283-3.25937-.5635a47.06663,47.06663,0,0,0-6.59371-.49286,35.55974,35.55974,0,0,0-6.59441.59274,23.62413,23.62413,0,0,0-6.32869,2.00185l-.00912.00468a.09555.09555,0,0,1-.09614-.16468,21.93792,21.93792,0,0,1,6.23769-2.694,36.64541,36.64541,0,0,1,6.74564-1.0877,33.92679,33.92679,0,0,1,3.42463-.06035c1.14513-.00421,2.28044.11438,3.42042.2035,1.13882.09942,2.26149.30947,3.39493.46011,1.1208.21123,2.23775.44725,3.35457.68631l-1.20583.97309c-.04257-1.16163-.13041-2.29377-.12046-3.53493a19.93307,19.93307,0,0,1,.38163-3.62661,21.03083,21.03083,0,0,1,1.02057-3.50288c.21427-.56537.4711-1.13355.72607-1.665l.74315-1.56442c.97788-2.0912,2.01237-4.16088,2.94475-6.27173l1.38384-3.17282c.45906-1.0587.95882-2.10243,1.36806-3.1789a101.61942,101.61942,0,0,0,4.57876-13.0307,25.96566,25.96566,0,0,0,.89683-6.79032,8.17077,8.17077,0,0,0-.15719-1.68466,6.76521,6.76521,0,0,0-.45835-1.59763,4.03853,4.03853,0,0,0-.93788-1.28069,2.169,2.169,0,0,0-1.35449-.542l.29158-.20093c-.8297,1.76839-1.61332,3.56088-2.41436,5.3501-.37134.90923-.87753,1.75179-1.32735,2.62382l-1.38758,2.60114a25.06128,25.06128,0,0,1-1.5332,2.52394l-1.63366,2.46921c-.57976.799-1.23776,1.54477-1.85354,2.3195a22.31777,22.31777,0,0,1-1.9719,2.22383l-2.1222,2.0947c-.7573.64725-1.5629,1.24233-2.341,1.86314a25.07994,25.07994,0,0,1-5.18273,2.99013l-.68233.30994-.71649.23111-1.43483.4428c-.47777.14479-.98256.19812-1.47062.30034a8.20344,8.20344,0,0,1-1.48384.19532,12.9732,12.9732,0,0,1-5.86811-.719.09537.09537,0,0,1,.05684-.18152Z"/><path d="M583.96421,360.09938a9.53286,9.53286,0,0,0,3.12346-.43111l-2.242,24.00085-7.01347-4.82894h-.00959a46.77127,46.77127,0,0,0,1.6001-4.65631c.46946-1.57144.8815-3.16183,1.20723-4.781a39.67841,39.67841,0,0,0,.72818-4.89607,19.26987,19.26987,0,0,0-.10538-4.80976A10.142,10.142,0,0,0,583.96421,360.09938Z"/><path d="M581.74143,353.44052l5.34624,6.22775a10.44373,10.44373,0,0,0-5.87325-.20116v-.00959l-1.16888-3.21914c-.42151-1.054-.8049-2.12722-1.25518-3.17142Z"/><path d="M578.8479,374.04l-1.02525,4.80017c-7.33908,4.04345-18.06045.46946-18.06045.46946l-.0862-2.25143a20.23925,20.23925,0,0,1,1.96418-9.44712c19.44009-40.70073,8.144-40.04928,8.144-40.04928,9.91636-26.92291,15.38728-34.85613,19.80418-27.70863,4.40742,7.1571-.76654,29.73995-6.8026,37.18453a19.96824,19.96824,0,0,0-3.99538,16.02925c.22994,1.11133.5366,2.2133.79531,3.32463l.891,3.24791a22.80781,22.80781,0,0,1-.05754,4.78122c-.15322,1.60957-.38316,3.21914-.67064,4.81912C579.47058,370.84005,579.17363,372.44,578.8479,374.04Z"/><path d="M179.08153,285.28356c-1.49588,7.71592-3.07972,15.41406-4.888,23.06939-.45192,1.91436-.9111,3.82685-1.40852,5.73513a49.92162,49.92162,0,0,1-1.73892,5.74729c-1.725,3.56346-3.40569,7.06657-4.99841,10.6588-3.2154,7.14914-6.10881,14.43583-8.85485,21.76789q-1.0156,2.7554-1.96243,5.53373c-.662,1.84254-1.17367,3.75129-1.89471,5.58121l-4.19258,11.03213-.00819.02152a.58667.58667,0,0,1-.46057.37122,49.44947,49.44947,0,0,1-5.41712.52982,14.15689,14.15689,0,0,1-5.48741-.603,39.67964,39.67964,0,0,0-5.06333-1.60535,3.739,3.739,0,0,0-2.37154.1235,1.30459,1.30459,0,0,0-.6028.82011,3.10537,3.10537,0,0,0,.00386,1.18642,9.03631,9.03631,0,0,0,.88232,2.417c.10176.193.20515.385.315.57262l.16748.27368.06831.10386c.00351.00538-.00351.00024.00783.015.27392.10924-.15076.73356-.10994.54877l-.03122.01122-.05673.01591-.10292.01871-1.34876.1614c-1.778.20117-3.55036.42573-5.31291.70994a43.80073,43.80073,0,0,0-5.21525,1.13682,16.17113,16.17113,0,0,0-2.46979.91134c-.74747.36444-1.58138.88466-1.70559,1.54664a.33766.33766,0,0,1-.25064.26526,15.28465,15.28465,0,0,0-2.24079.74081,7.8043,7.8043,0,0,0-1.99588,1.15554,1.91428,1.91428,0,0,0-.83975,1.76653,3.39474,3.39474,0,0,0,1.20934,1.75833.38124.38124,0,0,1,.08912.44795l-.00783.01637a4.19635,4.19635,0,0,0-.45965,2.35576,1.82769,1.82769,0,0,0,1.51168,1.43039,15.61277,15.61277,0,0,0,5.17373-.27882c3.5458-.51953,7.0371-1.3663,10.70512-1.69636a19.16561,19.16561,0,0,1,2.78733-.04888c.95648.05637,1.85237.21567,2.732.33449,1.77319.25333,3.54521.476,5.32226.65029a77.40451,77.40451,0,0,0,10.66793.3504,44.5936,44.5936,0,0,0,10.433-1.55132c.83086-.24608,1.66231-.55719,2.45692-.84163a6.56894,6.56894,0,0,0,1.97-1.28325,7.04186,7.04186,0,0,0,1.41472-1.89472,10.1035,10.1035,0,0,0,.7794-2.35388,171.77581,171.77581,0,0,1,6.69828-20.6299,203.76131,203.76131,0,0,1,8.95005-19.748,186.03583,186.03583,0,0,1,11.21447-18.55133c4.04614-5.93419,8.05825-11.896,11.74709-18.05542,1.82734-3.08721,3.62486-6.19688,5.23069-9.40292q1.21647-2.3989,2.23353-4.88812c.31778-.836.63321-1.67389.88713-2.531a9.31329,9.31329,0,0,0,.46935-2.59669l-.00059-.02643a.09463.09463,0,0,1,.189-.00865,9.3031,9.3031,0,0,1-.3655,2.7113c-.22151.87929-.5049,1.73776-.79133,2.59623q-.92315,2.54872-2.04664,5.01654c-.73648,1.6498-1.54325,3.26358-2.35026,4.879-.84829,1.59109-1.6829,3.19294-2.57657,4.759-3.54077,6.28577-7.35183,12.41293-11.33845,18.41823a188.328,188.328,0,0,0-10.79774,18.563,201.82542,201.82542,0,0,0-8.79006,19.59038c-1.303,3.33469-2.49353,6.71242-3.615,10.11074-1.13378,3.39411-2.17576,6.82026-3.0899,10.27425a11.99371,11.99371,0,0,1-.95507,2.74148,8.92739,8.92739,0,0,1-1.82267,2.39061,8.42562,8.42562,0,0,1-2.54312,1.62056c-.89858.31672-1.76.62643-2.65435.8828a45.33218,45.33218,0,0,1-10.88055,1.50454,79.0109,79.0109,0,0,1-10.8829-.542c-1.80021-.21006-3.596-.45848-5.37829-.75625-.89881-.14643-1.77436-.3221-2.61329-.39134a17.86549,17.86549,0,0,0-2.60429-.02035c-3.51376.22409-7.06669.96958-10.64957,1.41706-.90174.11228-1.78161.23719-2.70721.30315a8.7271,8.7271,0,0,1-2.83833-.16608c-.23812-.08164-.47519-.18082-.71016-.27438a4.39111,4.39111,0,0,1-.6497-.45614,2.54994,2.54994,0,0,1-.73145-1.41612,4.93145,4.93145,0,0,1,.60057-2.85165l.08117.46385a4.14257,4.14257,0,0,1-1.40629-2.20792,2.18772,2.18772,0,0,1,.23286-1.3918,3.46926,3.46926,0,0,1,.86268-1.0208,8.45317,8.45317,0,0,1,2.18406-1.24747,15.89167,15.89167,0,0,1,2.35681-.75672l-.25029.265a2.17826,2.17826,0,0,1,.86478-1.28,6.24444,6.24444,0,0,1,1.21168-.72865,16.78935,16.78935,0,0,1,2.57447-.92747c1.74325-.4952,3.51656-.8166,5.28636-1.13379,1.772-.30619,3.55294-.5518,5.33315-.77308l1.31787-.17217.06234-.01146a.10255.10255,0,0,0-.01637.00491l-.01111.00515c.04795-.1862-.37427.42947-.09544.53426l-.04281-.05169a2.0317,2.0317,0,0,1-.12245-.17263l-.18643-.29707c-.11883-.1979-.23006-.39883-.33941-.60093a9.69263,9.69263,0,0,1-.978-2.60511,3.786,3.786,0,0,1-.01018-1.48232,2.0466,2.0466,0,0,1,.9311-1.287,2.91611,2.91611,0,0,1,1.47027-.36608,7.37478,7.37478,0,0,1,1.41156.11719,40.08406,40.08406,0,0,1,5.2204,1.49074,13.19724,13.19724,0,0,0,5.14063.40678,48.93863,48.93863,0,0,0,5.261-.66151l-.46853.39251,3.88264-11.10886c1.23074-3.7155,2.385-7.489,3.74919-11.18885,2.634-7.43031,5.73969-14.67746,9.01274-21.83713,1.63542-3.56931,3.37107-7.14446,5.13432-10.61623a50.15132,50.15132,0,0,0,1.804-5.48133c.54256-1.87974,1.05-3.77468,1.55015-5.671,1.97354-7.59475,3.87609-15.21827,5.76647-22.84437a.09586.09586,0,0,1,.18725.04094Z"/><path d="M139.75,378.81468l-8.80456.53567a.47971.47971,0,1,1-.05824-.95765.4862.4862,0,0,1,.05216-.00047Z"/><path d="M110.31382,389.208a78.20889,78.20889,0,0,1,8.803-1.75811,45.29307,45.29307,0,0,1,8.92807-.44935,45.0292,45.0292,0,0,0-8.84982.9221,77.52039,77.52039,0,0,0-8.60258,2.20207l-.01122.00351a.4794.4794,0,0,1-.29216-.9132Z"/><path d="M114.441,383.16784l9.97589-.79391-9.85425,1.7443a.47961.47961,0,1,1-.16714-.94454C114.41048,383.17111,114.42616,383.16924,114.441,383.16784Z"/><path d="M149.00955,374.38784l-2.25693,4.06708,1.37577-4.44321a.4816.4816,0,1,1,.9201.2849A.5044.5044,0,0,1,149.00955,374.38784Z"/><path d="M241.90758,293.78379a177.98315,177.98315,0,0,1-4.681,33.75229c-1.37191,5.51595-2.98207,10.96617-4.35526,16.44375a100.58642,100.58642,0,0,0-2.81026,16.63486c-.21707,2.81049-.36549,5.61233-.47379,8.453-.14456,2.84207-.15357,5.65489-.585,8.58936a8.72869,8.72869,0,0,1-.64689,2.24839,4.98082,4.98082,0,0,1-1.58665,1.91833,23.73825,23.73825,0,0,1-3.90977,2.03272c-1.29437.58245-2.50909,1.21426-3.82626,1.84629-1.30209.61216-2.6202,1.16818-3.94533,1.69916-5.30636,2.10313-10.71307,3.85024-16.107,5.61162-2.69049.88537-5.413,1.72746-8.018,2.76955a10.1108,10.1108,0,0,0-.92666.42807,1.33343,1.33343,0,0,0-.356.25122c-.12175.11813-.23976.2414-.35461.36748a7.91722,7.91722,0,0,0-1.17659,1.65472,2.996,2.996,0,0,0-.40362,1.83038,1.89677,1.89677,0,0,0,1.13963,1.33191.31975.31975,0,0,1,.14854.42713l-.008.01568-.00444.00795a7.44272,7.44272,0,0,0-.72151,1.80325,3.17756,3.17756,0,0,0,.00678,1.82992,1.92336,1.92336,0,0,0,1.28642,1.13472,5.4551,5.4551,0,0,0,1.91588.22689.29228.29228,0,0,1,.26923.42245l-.00479.00936a7.962,7.962,0,0,0-.82373,2.52464,2.06214,2.06214,0,0,0,.76139,2.16068,4.16027,4.16027,0,0,0,2.50055.352,15.27892,15.27892,0,0,0,2.65856-.56116c1.74875-.48491,3.44276-1.29753,5.16344-1.967l5.13385-2.12278a.40064.40064,0,0,1,.48514.59438l-.00924.01333a20.28594,20.28594,0,0,0-1.47343,2.51856,8.56151,8.56151,0,0,0-.88467,2.67388,1.99653,1.99653,0,0,0,.17684,1.16467,1.33485,1.33485,0,0,0,.90186.5766,5.67448,5.67448,0,0,0,2.69224-.22082,29.44176,29.44176,0,0,0,5.34812-2.36394c1.73483-.94034,3.436-1.95717,5.12227-3.00324,3.38206-2.08816,6.66529-4.31386,10.16126-6.34237a15.84177,15.84177,0,0,1,2.83306-1.32887,7.51617,7.51617,0,0,1,3.278-.43835,13.60659,13.60659,0,0,1,5.77478,2.54452c3.29831,2.18851,6.63067,4.39222,10.26126,5.47338a6.85792,6.85792,0,0,0,5.12274-.1345,4.36907,4.36907,0,0,0,.98045-.72654,4.72133,4.72133,0,0,0,.7621-.96186,1.33222,1.33222,0,0,0-.14866-1.70665,8.33068,8.33068,0,0,0-2.06886-1.63529c-.81531-.50035-1.68582-.97192-2.56277-1.4732a22.03842,22.03842,0,0,1-2.62745-1.69892,7.51878,7.51878,0,0,1-2.18383-2.59693,18.41,18.41,0,0,1-1.459-6.12225c-.24152-1.93144-.48573-3.941-1.514-5.03292l-.00631-.00655a.996.996,0,0,1-.22608-.97472l7.0523-22.83525,7.231-22.7798c2.40313-7.59569,4.89444-15.16377,7.375-22.73537q3.72048-11.35738,7.721-22.62518a.09583.09583,0,0,1,.12245-.058.09746.09746,0,0,1,.0586.12094c-2.427,7.58469-4.61877,15.24564-6.93991,22.86472L261.66286,341.545l-6.87628,22.88577-6.97464,22.85513-.23228-.98081a6.82483,6.82483,0,0,1,1.555,3.09657,26.329,26.329,0,0,1,.51532,3.064,16.8562,16.8562,0,0,0,1.26946,5.44835,5.43356,5.43356,0,0,0,1.61611,1.94524,20.20591,20.20591,0,0,0,2.37529,1.559c.84748.495,1.72536.9794,2.60359,1.52817a9.99279,9.99279,0,0,1,2.554,2.10429,3.4762,3.4762,0,0,1,.77683,1.86828,3.42878,3.42878,0,0,1-.49075,1.9712,6.54992,6.54992,0,0,1-1.09109,1.36887,6.25252,6.25252,0,0,1-1.41963,1.03367,6.7792,6.7792,0,0,1-3.32967.75508,11.57968,11.57968,0,0,1-3.18744-.52186c-4.03106-1.24981-7.413-3.5768-10.70933-5.79758a12.14929,12.14929,0,0,0-4.99934-2.35412,5.89457,5.89457,0,0,0-2.59821.3228,14.27479,14.27479,0,0,0-2.58336,1.16981c-3.42545,1.92044-6.77722,4.11807-10.22852,6.12646-1.7229,1.014-3.466,2.00255-5.25548,2.9195a30.48642,30.48642,0,0,1-5.62144,2.32464,6.60627,6.60627,0,0,1-3.20639.16842,2.29586,2.29586,0,0,1-1.49121-1.058,2.90272,2.90272,0,0,1-.26643-1.74032,9.37234,9.37234,0,0,1,1.02981-2.95669,21.06336,21.06336,0,0,1,1.59448-2.60277l.4759.60748-5.17841,2.03763c-1.7367.65987-3.40393,1.45074-5.23642,1.948a15.87872,15.87872,0,0,1-2.77867.563,4.72456,4.72456,0,0,1-2.89973-.4676,2.18728,2.18728,0,0,1-.94314-1.25893,3.71059,3.71059,0,0,1-.08223-1.5036,8.51988,8.51988,0,0,1,.91064-2.72909l.26432.43157a6.43281,6.43281,0,0,1-2.11635-.25894,2.523,2.523,0,0,1-1.66407-1.47156,3.76446,3.76446,0,0,1-.0497-2.18991,8.0464,8.0464,0,0,1,.77168-1.98266l.13614.45052a2.55336,2.55336,0,0,1-1.50922-1.78782,3.63677,3.63677,0,0,1,.44561-2.26219,8.60427,8.60427,0,0,1,1.26279-1.817c.12245-.13707.24853-.27134.38-.40163a2.12693,2.12693,0,0,1,.50269-.36818,10.56817,10.56817,0,0,1,.99823-.47485c2.65914-1.07694,5.34367-1.97073,8.01544-2.93423,5.3459-1.89331,10.69822-3.77726,15.89277-5.98027,1.29519-.55555,2.57845-1.134,3.82895-1.75927,1.226-.62432,2.51342-1.33168,3.7927-1.94407a26.3572,26.3572,0,0,0,3.60136-1.93845,3.35638,3.35638,0,0,0,1.08922-1.32911,7.20653,7.20653,0,0,0,.50175-1.83459c.37765-2.686.38128-5.56648.49929-8.38726.0821-2.8292.20608-5.69606.47286-8.53859a102.22783,102.22783,0,0,1,3.012-16.8627c1.43531-5.51712,3.0802-10.94067,4.605-16.39556a160.72233,160.72233,0,0,0,3.52954-16.5806c.94034-5.58425,1.65156-11.212,2.19424-16.85544a.09595.09595,0,0,1,.10222-.08912A.09845.09845,0,0,1,241.90758,293.78379Z"/><path d="M188.58643,401.60572l15.9123-7.14119-15.59944,7.80083a.36512.36512,0,1,1-.32666-.6531Z"/><path d="M191.33341,407.06833l19.52266-10.84289-19.15763,11.4754a.36523.36523,0,0,1-.37532-.62666Z"/><path d="M207.06946,408.01475l10.85856-9.52127-10.36348,10.05811a.36521.36521,0,0,1-.50865-.52421Z"/><path d="M453.04435,214.05505a9.04384,9.04384,0,0,1,4.86906-4.57514,13.8905,13.8905,0,0,1,6.78423-.70689c4.51035.58409,8.87672,1.81448,13.2769,2.675a33.33757,33.33757,0,0,0,3.29574.52327,9.47572,9.47572,0,0,0,3.22616-.11064,7.05492,7.05492,0,0,0,.72642-.25567c.22982-.10573.41976-.26783.63613-.39415.245-.16631.49356-.36374.7552-.51625a6.32376,6.32376,0,0,1,.83917-.36116,7.97125,7.97125,0,0,1,3.5024-.197,40.24843,40.24843,0,0,1,6.58682,1.72746l6.4033,2.19108c-2.191-.54221-4.35222-1.19741-6.52576-1.79178a40.37989,40.37989,0,0,0-6.539-1.47577,7.98728,7.98728,0,0,0-3.19212.24374,5.65837,5.65837,0,0,0-.70795.313c-.22105.1345-.41344.29474-.63449.44421a7.25292,7.25292,0,0,1-.79075.50572,7.52774,7.52774,0,0,1-.86186.31625,10.19987,10.19987,0,0,1-3.4975.17146,33.21462,33.21462,0,0,1-3.38744-.49917c-4.43432-.94151-8.77754-2.15108-13.19947-2.86359a13.4424,13.4424,0,0,0-6.54751.44842A9.09659,9.09659,0,0,0,453.04435,214.05505Z"/><path d="M150.17421,142.82795a9.04308,9.04308,0,0,1,4.86905-4.57514,13.8904,13.8904,0,0,1,6.78424-.70689c4.51035.58409,8.87672,1.81448,13.27689,2.675a33.33589,33.33589,0,0,0,3.29563.52327,9.47625,9.47625,0,0,0,3.22627-.11064,7.06429,7.06429,0,0,0,.72643-.25567c.22982-.10573.41976-.26783.63613-.39415.245-.16631.49356-.36374.75519-.51625a6.32489,6.32489,0,0,1,.83917-.36116,7.96714,7.96714,0,0,1,3.50229-.19673,40.24888,40.24888,0,0,1,6.58693,1.72723l6.40331,2.19108c-2.19108-.542-4.35234-1.19741-6.52576-1.79178a40.38413,40.38413,0,0,0-6.53909-1.47577,7.98674,7.98674,0,0,0-3.192.24374,5.65114,5.65114,0,0,0-.70794.313c-.221.1345-.41356.29474-.6345.44421a7.29184,7.29184,0,0,1-.79086.506,7.57253,7.57253,0,0,1-.86174.316,10.20026,10.20026,0,0,1-3.4975.17145,33.20886,33.20886,0,0,1-3.38744-.49917c-4.43433-.94151-8.77754-2.15108-13.19959-2.86359a13.44181,13.44181,0,0,0-6.54739.44842A9.09712,9.09712,0,0,0,150.17421,142.82795Z"/><path d="M109.89546,283.72826a9.04306,9.04306,0,0,1,4.86905-4.57515,13.89335,13.89335,0,0,1,6.78424-.70712c4.51035.58432,8.87672,1.81471,13.2769,2.67528a33.33228,33.33228,0,0,0,3.29562.52327,9.4818,9.4818,0,0,0,3.22627-.11064,7.06549,7.06549,0,0,0,.72643-.2559c.22982-.1055.41976-.26784.63613-.39392.245-.16631.49356-.36373.75519-.51625a6.29477,6.29477,0,0,1,.83917-.36116,7.97091,7.97091,0,0,1,3.50229-.197,40.24946,40.24946,0,0,1,6.58693,1.72747l6.40331,2.19108c-2.19108-.54222-4.35222-1.19765-6.52576-1.79179a40.357,40.357,0,0,0-6.53909-1.47577,7.98675,7.98675,0,0,0-3.192.24374,5.64974,5.64974,0,0,0-.70794.313c-.221.1345-.41345.29473-.6345.444a7.21655,7.21655,0,0,1-.79074.50595,7.49,7.49,0,0,1-.86186.316,10.19471,10.19471,0,0,1-3.4975.1717,33.14849,33.14849,0,0,1-3.38744-.49941c-4.43433-.94127-8.77754-2.15085-13.19959-2.86335a13.44191,13.44191,0,0,0-6.54739.44841A9.09617,9.09617,0,0,0,109.89546,283.72826Z"/><path d="M319.90055,179.87072a9.0431,9.0431,0,0,1,4.86906-4.57514,13.8905,13.8905,0,0,1,6.78423-.70689c4.51035.58409,8.87672,1.81448,13.2769,2.675a33.34058,33.34058,0,0,0,3.29563.52327,9.48208,9.48208,0,0,0,3.22627-.11064,7.0538,7.0538,0,0,0,.72642-.25591c.22982-.10549.41976-.26759.63613-.39391.245-.16631.49356-.36374.7552-.51625a6.32376,6.32376,0,0,1,.83917-.36116,7.97084,7.97084,0,0,1,3.50229-.197,40.24958,40.24958,0,0,1,6.58692,1.72746l6.40331,2.19108c-2.19108-.54221-4.35222-1.19764-6.52576-1.79178a40.357,40.357,0,0,0-6.53909-1.47577,7.9867,7.9867,0,0,0-3.192.24374,5.65063,5.65063,0,0,0-.70795.313c-.22105.1345-.41344.29474-.63449.44421a7.25292,7.25292,0,0,1-.79075.50572,7.49047,7.49047,0,0,1-.86186.316,10.19444,10.19444,0,0,1-3.4975.17169,33.21421,33.21421,0,0,1-3.38744-.49917c-4.43432-.94151-8.77754-2.15108-13.19947-2.86359a13.4423,13.4423,0,0,0-6.54751.44842A9.09663,9.09663,0,0,0,319.90055,179.87072Z"/><path d="M507.95436,143.33555c-9.9629,0-18.27624-8.056-18.38478-8.1627l-.51835-.51087.67555-.27321c17.14035-6.94821,27.5795,5.43993,27.68336,5.5653l.34807.42479-.46783.28725A17.55785,17.55785,0,0,1,507.95436,143.33555Zm-17.15719-8.33767c2.64137,2.32418,14.2632,11.56195,25.49205,5.148C514.34773,138.11737,505.07815,129.60568,490.79717,134.99788Z"/><path d="M503.4729,137.806c3.60709.57193,7.20692,1.19274,10.79658,1.88442,1.79413.35017,3.58709.7097,5.372,1.12864.893.20842,1.7843.42339,2.67247.68a14.754,14.754,0,0,1,2.67365.96677.47841.47841,0,1,1-.42678.85637l-.0069-.00351-.05532-.029a27.94712,27.94712,0,0,0-5.03548-1.77448c-1.75074-.49262-3.52194-.92934-5.2949-1.35647Q508.84494,138.8893,503.4729,137.806Z"/><path d="M154.35637,223.23809a34.53536,34.53536,0,0,1-10.86114-1.82267l-.68116-.25824.5062-.523c12.86812-13.29292,27.42325-6.18472,27.56828-6.10986l.49122.247-.31251.45286C166.66966,221.60068,160.02179,223.23809,154.35637,223.23809Zm-9.81039-2.4795c3.35715,1.05636,17.72233,4.80368,25.39568-5.60648C167.34614,214.08266,155.424,210.05183,144.546,220.75859Z"/><path d="M157.27458,218.19839q5.2952-1.40454,10.63588-2.64488c1.78243-.40561,3.56755-.80209,5.3694-1.141.90092-.17076,1.803-.33474,2.71914-.45941a14.76111,14.76111,0,0,1,2.8361-.19766.47851.47851,0,0,1-.04386.956l-.00771-.00047-.06223-.00421a27.94064,27.94064,0,0,0-5.323.4145c-1.80045.25777-3.5968.575-5.391.90151C164.41951,216.68473,160.8419,217.41735,157.27458,218.19839Z"/><path d="M534.75505,146.34627a83.19962,83.19962,0,0,1,12.30627,2.00208,47.98772,47.98772,0,0,1,11.72288,4.35947,18.59642,18.59642,0,0,1,5.00262,3.879,10.36958,10.36958,0,0,1,2.63435,5.81747c.04292.54034.01836,1.0863.01637,1.628-.08093.53333-.14175,1.07508-.24374,1.60138a16.24735,16.24735,0,0,1-.98992,3.04979,8.36626,8.36626,0,0,1-1.899,2.67365,5.95773,5.95773,0,0,1-2.98862,1.46617,10.32348,10.32348,0,0,1-6.31079-1.20489,11.52145,11.52145,0,0,1-4.6307-4.395,12.54519,12.54519,0,0,1-.19754-12.31211,13.52975,13.52975,0,0,1,4.37585-4.5707,36.48878,36.48878,0,0,1,5.52554-2.96113,61.54026,61.54026,0,0,1,11.93539-3.603,65.84977,65.84977,0,0,0-11.74276,4.03129c-3.666,1.77541-7.54154,3.82919-9.44584,7.45417a11.92306,11.92306,0,0,0,.29918,11.51633,10.62421,10.62421,0,0,0,4.29784,4.025,9.45957,9.45957,0,0,0,5.72179,1.07881,5.00586,5.00586,0,0,0,2.53657-1.2215,7.45265,7.45265,0,0,0,1.69518-2.36348,12.2646,12.2646,0,0,0,1.17812-5.81723,9.51759,9.51759,0,0,0-2.39026-5.3494,19.04739,19.04739,0,0,0-4.74567-3.78685,47.74366,47.74366,0,0,0-11.47423-4.54333A91.4697,91.4697,0,0,0,534.75505,146.34627Z"/><path d="M172.45975,369.3837a21.59522,21.59522,0,0,1,3.39528.8318,12.11567,12.11567,0,0,1,3.27212,1.54594,3.77838,3.77838,0,0,1,.77741.735,1.91648,1.91648,0,0,1,.32339.62386,1.42858,1.42858,0,0,1-.0007.89028,1.95092,1.95092,0,0,1-.9718,1.06571,4.61988,4.61988,0,0,1-.97215.38947,12.29564,12.29564,0,0,1-3.61831.37169,65.78736,65.78736,0,0,1-6.92775-.85285c-2.28207-.32655-4.573-.55578-6.87289-.81917a51.03487,51.03487,0,0,1-6.85324-1.16326,42.71678,42.71678,0,0,1-6.69862-2.06664,17.15685,17.15685,0,0,1-3.1996-1.74056,6.27985,6.27985,0,0,1-.76689-.66432,2.67824,2.67824,0,0,1-.684-1.07671,1.56118,1.56118,0,0,1,.00971-.9125,1.60961,1.60961,0,0,1,.46385-.70619,2.8823,2.8823,0,0,1,1.03753-.55672,7.56113,7.56113,0,0,1,1.85845-.29731,15.1428,15.1428,0,0,1,1.77869,0,25.93644,25.93644,0,0,1,3.468.42409l-.00948.19135c-1.15215.10526-2.29576.20654-3.41761.36373a12.815,12.815,0,0,0-3.149.73122,1.32858,1.32858,0,0,0-.44374.29894c-.03673.10456.0462-.06573.03193-.05637a1.54886,1.54886,0,0,0,.29847.31766,4.58568,4.58568,0,0,0,.57462.41169,18.90329,18.90329,0,0,0,2.92732,1.3822c2.06992.81613,4.21258,1.56232,6.38623,2.21518,2.18138.62759,4.37129,1.26688,6.58132,1.87342a38.0767,38.0767,0,0,0,6.74692,1.23273,43.49479,43.49479,0,0,0,6.81956-.124,22.32165,22.32165,0,0,0,3.20943-.4138,3.06535,3.06535,0,0,0,.63484-.21754c.17907-.07836.24807-.18456.215-.1193-.01684.08913.03977.06152-.05158-.09426a2.29251,2.29251,0,0,0-.43543-.47883,16.03493,16.03493,0,0,0-2.74534-1.767l-3.05224-1.58688Z"/><path d="M174.61469,362.92648a22.65242,22.65242,0,0,1,3.43083.81145,14.08774,14.08774,0,0,1,3.31434,1.46711,5.77388,5.77388,0,0,1,.79777.6283,2.19812,2.19812,0,0,1,.65941,1.18244,1.52959,1.52959,0,0,1-.17275.91554,1.845,1.845,0,0,1-.50935.58058,3.47383,3.47383,0,0,1-1.01168.51952,11.158,11.158,0,0,1-3.67457.462,63.48963,63.48963,0,0,1-6.99838-.825c-2.3043-.32187-4.61608-.55321-6.93734-.81683a51.44369,51.44369,0,0,1-6.91663-1.16958,43.02471,43.02471,0,0,1-6.76061-2.08254,17.12883,17.12883,0,0,1-3.22908-1.75928,6.22652,6.22652,0,0,1-.77332-.67905,2.55362,2.55362,0,0,1-.67285-1.13239,1.4686,1.4686,0,0,1,.06608-.92583,1.1678,1.1678,0,0,1,.223-.38526,1.26694,1.26694,0,0,1,.26912-.27532,2.97331,2.97331,0,0,1,1.04069-.524,11.57552,11.57552,0,0,1,3.66428-.27836,26.43372,26.43372,0,0,1,3.4982.43415l-.00995.19134c-1.1629.102-2.31739.2-3.45071.35392a13.32572,13.32572,0,0,0-3.19142.719,1.40354,1.40354,0,0,0-.47473.30292c-.06467.11649.03275-.02526.01965-.04327a1.74116,1.74116,0,0,0,.27509.29777,4.58578,4.58578,0,0,0,.57262.41637,18.7913,18.7913,0,0,0,2.95142,1.39741c2.0891.82361,4.25269,1.574,6.447,2.23084,2.20207.63134,4.41327,1.27273,6.64482,1.88a38.30742,38.30742,0,0,0,6.81113,1.23016,42.65428,42.65428,0,0,0,6.87792-.15135,18.0554,18.0554,0,0,0,3.19166-.47765,1.96509,1.96509,0,0,0,.54455-.23462c.11848-.10339.05532-.03321.07041.02644a.84443.84443,0,0,0-.17754-.30994,4.31215,4.31215,0,0,0-.52853-.491,42.82111,42.82111,0,0,0-5.93969-3.30358Z"/><path d="M250.85377,373.96679a20.83656,20.83656,0,0,1,3.33481.82853,11.33753,11.33753,0,0,1,3.21025,1.55928,3.42141,3.42141,0,0,1,.75578.77566l.16573.29309a2.98577,2.98577,0,0,1,.11719.38152,1.54308,1.54308,0,0,1-.1131.89449,2.1391,2.1391,0,0,1-.99063.93075,5.12735,5.12735,0,0,1-.94817.35929,12.32778,12.32778,0,0,1-3.55224.35508,66.18325,66.18325,0,0,1-6.80692-.83881c-2.24254-.31743-4.49339-.53918-6.75418-.78853a50.39811,50.39811,0,0,1-6.73757-1.1125,44.13959,44.13959,0,0,1-6.59055-1.97518,20.15593,20.15593,0,0,1-3.15727-1.60372,6.39784,6.39784,0,0,1-1.501-1.28279,1.97312,1.97312,0,0,1-.48151-1.33846,1.64036,1.64036,0,0,1,.83379-1.26571,4.68934,4.68934,0,0,1,1.89389-.5469,13.0879,13.0879,0,0,1,1.762-.0676,23.68059,23.68059,0,0,1,3.41937.357l-.00666.19157c-1.12993.12351-2.251.24585-3.3444.429-.54456.09544-1.08326.20234-1.59542.33731a3.89608,3.89608,0,0,0-1.28408.55016c-.13894.11532-.0952.16211-.06853.08071.004-.06527.04245.0435.17918.17216a4.95151,4.95151,0,0,0,1.15214.793,23.562,23.562,0,0,0,2.94979,1.29355c2.05026.77636,4.15842,1.49939,6.29722,2.1326l6.47114,1.8243a37.14912,37.14912,0,0,0,6.62985,1.20233,43.1278,43.1278,0,0,0,6.69956-.13778,23.27652,23.27652,0,0,0,3.15809-.40116,3.55951,3.55951,0,0,0,.64221-.20725,2.18392,2.18392,0,0,0,.2683-.15649c-.03883.061.04971.12655-.033-.03462a1.92283,1.92283,0,0,0-.38736-.46058,14.72512,14.72512,0,0,0-2.66219-1.76044l-2.98651-1.581Z"/><path d="M252.855,367.46092a18.8924,18.8924,0,0,1,3.22066.85425,11.82822,11.82822,0,0,1,1.56419.67508,5.63214,5.63214,0,0,1,1.51471,1.06736,1.96328,1.96328,0,0,1,.5614,1.18478,1.61951,1.61951,0,0,1-.68022,1.35694,4.81526,4.81526,0,0,1-1.8401.74478,13.69211,13.69211,0,0,1-3.41574.25357c-2.24055-.094-4.41023-.5628-6.581-.85894-2.1698-.31181-4.34883-.52233-6.53828-.75625a48.75127,48.75127,0,0,1-6.526-1.04957,44.79053,44.79053,0,0,1-6.389-1.85682,23.68561,23.68561,0,0,1-3.06967-1.4594,10.27885,10.27885,0,0,1-1.47425-1.02431,4.35678,4.35678,0,0,1-.694-.7511,1.82869,1.82869,0,0,1-.35719-1.36864,1.606,1.606,0,0,1,.86654-1.08864,3.71354,3.71354,0,0,1,.93238-.33543,8.38429,8.38429,0,0,1,1.7353-.19509,19.14551,19.14551,0,0,1,3.32884.25006l-.00234.19158c-1.089.15391-2.17283.29473-3.21036.53145a9.90113,9.90113,0,0,0-1.47367.43345,2.36641,2.36641,0,0,0-.56712.30923c-.15591.11485-.1607.21006-.12152.15392.02058-.05568.03076.0145.1497.14035a3.41256,3.41256,0,0,0,.47532.38946,8.64753,8.64753,0,0,0,1.28852.72631,30.31781,30.31781,0,0,0,2.91739,1.18548c1.999.72771,4.04368,1.41565,6.11617,2.0229l6.26529,1.763a35.69942,35.69942,0,0,0,6.41594,1.17051,43.81746,43.81746,0,0,0,6.48985-.11836c1.06022-.07625,2.12033-.15461,3.09973-.3214a3.53055,3.53055,0,0,0,1.2063-.38712c.11953-.091.0821-.05614.09485-.00188.02491.03135-.01427-.11625-.12667-.26385a9.73658,9.73658,0,0,0-2.38932-1.79039c-.92431-.54291-1.887-1.05542-2.85049-1.5967Z"/></svg>