<svg id="Layer_1" data-name="Layer 1" xmlns="http://www.w3.org/2000/svg" viewBox="0 0 700 550"><title>working</title><path d="M419.38924,439.02759c-10.41323,1.23878-25.15237,1.99361-45.97884,1.75167l.4742-8.89383s30.05905-1.1129,32.91393,2.1098c0,0,.45482-10.77131-3.63884-12.823,0,0,5.99045-.16456,13.481.3l.26131,14.023A3.84373,3.84373,0,0,0,419.38924,439.02759Z" fill="#020202"/><path d="M440.82529,433.65647v-7.326a12.35622,12.35622,0,0,1,3.29057,2.37106S445.32557,431.03379,440.82529,433.65647Z" fill="#020202"/><path d="M401.572,336.36642c-.70651,4.91624-1.60653,9.78416-2.57431,14.6327-.94839,4.84855-2.01292,9.67772-3.09688,14.50689-1.12259,4.8098-2.27424,9.61965-3.52264,14.41013-.22263.871-.45488,1.75167-.69683,2.62263,3.16464-.1355,6.35827-.329,9.51322-.629,1.742-.17419,3.48395-.35807,5.18724-.67745a24.77311,24.77311,0,0,0,2.53555-.6,4.59792,4.59792,0,0,0,2.17749-1.22909l.00969-.00969a.1714.1714,0,0,1,.04837-.03869ZM384.578,389.44867a26.18409,26.18409,0,0,1-8.50675,1.2,51.50062,51.50062,0,0,1-8.38087-.89033c-2.75819-.49358-5.47762-1.06459-8.20669-1.64523a114.42036,114.42036,0,0,1-16.21017-4.15172,100.18155,100.18155,0,0,1-15.26178-6.82278l-.00969-.00968c-2.90331,5.50662-5.12917,9.05833-6.03888,9.05833,0,0,57.65985,29.2654,63.931,17.41988l2.4388-9.40677c.36776-2.54518.79352-5.0808,1.24841-7.60667A13.86218,13.86218,0,0,1,384.578,389.44867Zm-56.52757-3.20332a1.45258,1.45258,0,0,1,0-2.90332A1.45258,1.45258,0,0,1,328.0504,386.24535Zm5.0518,2.4388a1.45258,1.45258,0,0,1,0-2.90331A1.45258,1.45258,0,0,1,333.1022,388.68415Zm5.57437,2.26456a1.45258,1.45258,0,0,1,0-2.90332A1.45258,1.45258,0,0,1,338.67657,390.94871Zm5.92276,2.4388a1.45258,1.45258,0,0,1,0-2.90332A1.45258,1.45258,0,0,1,344.59933,393.38751Zm6.09695,2.613a1.45258,1.45258,0,0,1,0-2.90331A1.45258,1.45258,0,0,1,350.69628,396.0005Zm7.14216,2.61294a1.45258,1.45258,0,0,1,0-2.90331A1.45258,1.45258,0,0,1,357.83844,398.61344Zm7.31635,2.4388a1.45258,1.45258,0,0,1,0-2.90331A1.45258,1.45258,0,0,1,365.15479,401.05224Zm7.49054,1.742a1.45258,1.45258,0,0,1,0-2.90331A1.45258,1.45258,0,0,1,372.64533,402.79422Zm7.49055.69683a1.45258,1.45258,0,0,1,0-2.90332A1.45258,1.45258,0,0,1,380.13588,403.491Zm31.0655-23.904a4.60268,4.60268,0,0,1-2.06136,1.60647,17.39406,17.39406,0,0,1-2.52593.96777c-1.7226.50326-3.46458.90008-5.21624,1.22909a91.92753,91.92753,0,0,1-10.05516,1.19034,5.29431,5.29431,0,0,1-.33876.47426c-.33869,1.25809-.68708,2.51618-1.05484,3.76459a1.2928,1.2928,0,0,1,.8129-.25157,1.45257,1.45257,0,0,1,0,2.90331,1.325,1.325,0,0,1-1.31616-.91939c-.35807,1.2194-.72583,2.43874-1.1129,3.64845,0,0,24.03942.34845,25.433-3.13557Zm-14.16819,11.01324a1.45258,1.45258,0,0,1,0-2.90331A1.45258,1.45258,0,0,1,397.03319,390.60032Zm6.09695-.871a1.45258,1.45258,0,0,1,0-2.90331A1.45258,1.45258,0,0,1,403.13014,389.7293Zm6.27114-1.21934a1.45258,1.45258,0,0,1,0-2.90331A1.45258,1.45258,0,0,1,409.40128,388.51Zm-7.48086-103.00961c-9.43577-6.60021-47.2853-13.83918-70.75376-17.83608a26.13151,26.13151,0,0,1-21.562-22.5297l-4.4711.39676c-23.37165,89.31568-56.43077,44.00461-56.43077,44.00461l.4742,2.24524c2.4775,10.40354,8.36156,18.99736,20.35227,21.591,0,0,26.8266,9.40671,80.82824,3.48395l5.57438-.34838s-17.84571,41.49805-27.83312,60.447l15.74566,5.3808c5.255,1.6936,10.38417,3.8614,15.77467,5.17756a52.212,52.212,0,0,0,8.18736,1.37422,57.187,57.187,0,0,0,8.23575.18388,27.28848,27.28848,0,0,0,7.87768-1.45166,11.97268,11.97268,0,0,0,5.97113-4.55817l.00969-.01937a1.10856,1.10856,0,0,1,.39676-.3387c.20325-1.04521.40644-2.08073.6097-3.12594.95808-4.84855,2.02267-9.67772,3.10657-14.50689,1.1129-4.80979,2.26455-9.62934,3.513-14.41013,1.23872-4.79048,2.55487-9.56159,4.04528-14.29395C401.572,336.36642,415.85636,295.25544,401.92042,285.50035Z" fill="#020202"/><path d="M328.09878,376.95477a1.566,1.566,0,0,1-.09676.17419.09215.09215,0,0,1-.029-.12582.11087.11087,0,0,1,.11613-.04837Z" fill="#fff"/><path d="M411.25944,379.5a.45528.45528,0,0,1-.05806.08713l-.04844-.23226a.14381.14381,0,0,1,.08713.01937A.11551.11551,0,0,1,411.25944,379.5Z" fill="#fff"/><path d="M320.37647,219.66282c.41631,1.25809.83239,2.51618,1.23878,3.784-.59045.00968-1.16128.00968-1.73235.00968-.3192-1.1129-.63864-2.22586-.9484-3.34845q-2.65629-9.36321-4.95487-18.82317Q317.36176,210.41575,320.37647,219.66282Z" fill="#020202"/><path d="M336.67383,275.68713q-3.36794-9.131-6.39707-18.378c-1.52916-4.626-3-9.27127-4.45161-13.91656q1.00157-.11616,1.91617-.23226c1.36447,4.55817,2.70981,9.12608,3.9871,13.70362Q334.38505,266.22717,336.67383,275.68713Z" fill="#020202"/><path d="M268.00987,204.74948l-3.57108,7.01635h.029a8.94238,8.94238,0,0,0,2.44849.571c1.27747.12581,2.7775.23225,4.42273.3C270.22605,210.00447,269.10346,207.38179,268.00987,204.74948Zm7.355.52258-3.34845,7.39379c2.21617.08706,4.684.13544,7.20985.13544Zm11.23587,7.44216-3.14525-7.20991L280.078,212.811c2.17749,0,4.39372-.01932,6.54215-.04838C286.6201,212.74323,286.61041,212.7336,286.60078,212.71422Zm3.77428-7.39379-2.942,7.38411a.2107.2107,0,0,1-.02906.04837c1.60654-.029,3.16463-.05806,4.626-.09675l2.18717.06775Zm7.27766-.52257-2.84525,7.90668c-.00969.00968-.00969.02906-.01938.03869l1.91617.05806s.00969-.09675.02906-.28063c3.15495-.09676,5.19693-.18388,5.19693-.18388Zm7.06472-9.18414c-2.78719-14.28432-2.09036-19.8587-2.09036-19.8587a36.23789,36.23789,0,0,0,.14513-4.88723c-.44514-1.27747.07744-6.52277.20325-5.78732.1643-.88306.37661-1.8862.59274-2.85546a6.06365,6.06365,0,0,0-2.85072-6.547l-20.3879-11.97563s-21.949,11.84552-23.691,31.70421-3.13557,45.64008-3.13557,45.64008l9.56159,1.54847,1.37422-10.82936,3.42589-7.51961a.18184.18184,0,0,1,.32907,0v.00969c1.18065,2.53556,2.3323,5.0808,3.48395,7.626l3.29045-7.72285a.41659.41659,0,0,1,.542-.21288.39843.39843,0,0,1,.19357.18387l.00968.00969,3.90978,7.49054,3.40657-7.50023a.47794.47794,0,0,1,.63871-.24194.50992.50992,0,0,1,.24194.25163l3.09688,7.23891,2.93232-7.20991h.00969a.411.411,0,0,1,.53226-.23225.4362.4362,0,0,1,.21294.20325l3.784,7.66474,2.95169-7.54861h.00969a.18985.18985,0,0,1,.25163-.11613.23308.23308,0,0,1,.09681.09675l4.142,8.10025S307.50463,209.898,304.71744,195.61372Zm-36.70757-17.41989a30.42123,30.42123,0,0,0-.32907,5.62275c.00969.93871.12582,1.8581.19357,2.8065.09681.97746.18388,1.9646.21294,2.96138a21.289,21.289,0,0,1-.6,6.01957,9.89812,9.89812,0,0,1-1.29684,2.89363,6.77724,6.77724,0,0,1-.52257.65807l-.48389.52258a13.044,13.044,0,0,0-.8807,1.0549,11.03734,11.03734,0,0,0-1.38391,2.35167,14.88107,14.88107,0,0,0-.89033,2.642,5.377,5.377,0,0,0,1.03552,5.23568,4.30774,4.30774,0,0,1-1.742-2.371,7.76,7.76,0,0,1-.23226-3.01945,15.67618,15.67618,0,0,1,.63876-2.93237,11.60165,11.60165,0,0,1,1.33553-2.76781c.27095-.42583.57095-.842.88065-1.23872l.4742-.571c.12581-.15482.24194-.329.35807-.50326a8.181,8.181,0,0,0,.93877-2.41943,21.1205,21.1205,0,0,0,.44513-5.49694c-.01931-.93871-.08706-1.88711-.1645-2.82587-.04838-.97746-.18388-1.98392-.14513-2.98076a27.05246,27.05246,0,0,1,.67739-5.92276,24.38059,24.38059,0,0,1,5.09049-10.51967A31.99621,31.99621,0,0,0,268.00987,178.19383Zm17.66183-19.77157c-1.0839.35807-2.13879.76452-3.17432,1.2-2.10005.85164-4.10334,1.86779-6.34858,2.89362a9.45153,9.45153,0,0,1,2.41943-2.79687,13.17059,13.17059,0,0,1,3.184-1.88717,11.85373,11.85373,0,0,1,3.60008-.9,9.12646,9.12646,0,0,1,3.68721.35807C287.85888,157.73512,286.74591,158.01575,285.6717,158.42226Z" fill="#020202"/><path d="M255.66434,216.67545c.38049,3.98093.468,7.96186.48364,11.94281-.01367,3.98093-.10083,7.96186-.48364,11.94281-.38282-3.981-.47-7.96188-.48352-11.94281C255.19644,224.63731,255.28384,220.65638,255.66434,216.67545Z" fill="#020202"/><path d="M326.70743,388.51752c-1.92347,5.199-3.94654,10.35619-5.94361,15.52427l-1.52807,3.87046a29.5878,29.5878,0,0,1-1.8573,3.80983,15.63418,15.63418,0,0,0-2.62976,7.38787,6.54947,6.54947,0,0,0,.81262,3.55075,10.45874,10.45874,0,0,0,2.61389,2.76143,62.68308,62.68308,0,0,0,6.79675,4.523c4.74207,2.76358,9.67359,5.27913,14.63355,7.649l-1.1322.26727c2.03711-2.54154,4.10461-5.05883,6.17456-7.57406l.20324,1.25a17.32355,17.32355,0,0,1-5.85864-7.76908,17.52192,17.52192,0,0,1-1.11767-4.72636,12.42186,12.42186,0,0,1,.444-4.86388,17.15031,17.15031,0,0,1,2.042-4.343l2.39233-4.03018c1.5929-2.688,3.18469-5.37648,4.8186-8.04171-1.39318,2.79855-2.82836,5.57385-4.26269,8.34965l-2.14819,4.16549c-.35267.70357-.74024,1.37648-1.03016,2.062a13.471,13.471,0,0,0-.71948,2.13015,11.26278,11.26278,0,0,0-.21557,4.42,16.12409,16.12409,0,0,0,1.16211,4.32887,16.51951,16.51951,0,0,0,2.26782,3.84085,15.00324,15.00324,0,0,0,3.15222,3.04348l.01074.00737a.86444.86444,0,0,1,.22229,1.20223l-.02978.04067c-1.99952,2.57165-4.00159,5.14124-6.03394,7.68658a.94334.94334,0,0,1-1.13245.26734,164.195,164.195,0,0,1-14.80236-7.745,56.1541,56.1541,0,0,1-6.96619-4.75962,20.18641,20.18641,0,0,1-1.59863-1.47274,8.322,8.322,0,0,1-1.37769-1.84035,8.19007,8.19007,0,0,1-.94629-4.45522,17.04491,17.04491,0,0,1,3.08045-8.02029,57.533,57.533,0,0,0,3.60534-7.37274C322.09268,398.5937,324.35013,393.53474,326.70743,388.51752Z" fill="#020202"/><path d="M306.46075,429.04427l4.52918-7.66475s27.175,12.89071,28.22022,17.07149c0,0,5.38113-9.34383,2.69056-13.05924,0,0,29.71043,14.45283,32.846,25.60156C374.74672,450.99333,374.74672,465.626,306.46075,429.04427Z" fill="#020202"/><path d="M348.68753,249.02528l.14307,1.01962a2.87934,2.87934,0,0,0,.22619.97937,2.66567,2.66567,0,0,0,1.34961,1.37985,2.56575,2.56575,0,0,0,.93347.22144c.30213.00943.72412-.01938,1.08033-.02719l2.23034-.07666q4.46064-.16925,8.92127-.25321c5.94751-.113,11.895-.30093,17.84253-.35257,11.89514-.14981,23.79016-.24682,35.68518-.05994l2.18225.04383a1.85361,1.85361,0,0,0,1.667-1.07425,2.65762,2.65762,0,0,0,.20654-.81l.365-2.20083,1.46326-8.80289,1.4668-8.8024,1.3695-8.81625c1.78028-11.76154,3.26966-23.56452,4.69776-35.37622a9.67815,9.67815,0,0,0,.15271-1.98954,2.05212,2.05212,0,0,0-.78223-1.3164,2.02063,2.02063,0,0,0-2.73877.24112,1.95479,1.95479,0,0,0-.37146.62747,3.34682,3.34682,0,0,0-.15149.8446l-.25647,2.216-.53589,4.4288c-.70959,5.90573-1.4248,11.8107-2.18969,17.70895-1.49842,11.80072-2.97864,23.60391-4.61963,35.38529l-.15735,1.104a5.91859,5.91859,0,0,1-.14.73206,4.24551,4.24551,0,0,1-.2948.79211,4.50081,4.50081,0,0,1-2.42175,2.2356,4.62625,4.62625,0,0,1-1.61108.30246l-1.11536.0162-2.23083.03238c-2.97437.04617-5.94873.08926-8.92371.09955l-17.84753.11673c-5.949.0408-11.89881-.01691-17.84729-.02054-1.47913-.01312-2.99244.013-4.44336-.03644l-4.35364-.16553Zm-.20532-.20533,8.89221-.34662,4.56763-.16552,4.47619-.20117c5.94385-.2565,11.88635-.56708,17.82971-.77915l17.82959-.64187c2.9712-.11615,5.943-.1995,8.9148-.27976l2.22888-.06241,1.11438-.03122a1.542,1.542,0,0,0,.56836-.109,1.45114,1.45114,0,0,0,.76514-.73306,1.20359,1.20359,0,0,0,.08874-.25256,2.8151,2.8151,0,0,0,.05921-.364l.14245-1.106c1.55628-11.79291,3.2732-23.564,4.97205-35.33753.83386-5.88888,1.71728-11.77106,2.60632-17.65246l.66309-4.41153.343-2.20423a5.30364,5.30364,0,0,1,.32837-1.32553,3.9858,3.9858,0,0,1,.82105-1.241,3.94134,3.94134,0,0,1,2.64172-1.18475,3.87868,3.87868,0,0,1,2.705.9259,3.81425,3.81425,0,0,1,1.32739,2.49085,4.49144,4.49144,0,0,1-.07068,1.33679l-.18139,1.10056c-1.92786,11.74051-3.79456,23.48971-5.37037,35.28036l-1.14746,8.8479-1.05029,8.86176-1.05371,8.86123-.2644,2.21521a4.82785,4.82785,0,0,1-.30506,1.35236,4.00563,4.00563,0,0,1-.82092,1.273,4.10057,4.10057,0,0,1-2.72547,1.25949l-2.27819.05527c-11.895.18692-23.79.08987-35.68518-.05994-5.94751-.05163-11.895-.2395-17.84253-.35257q-4.46064-.07887-8.92127-.2532l-2.23034-.07663c-.387-.019-.70936-.01163-1.1493-.05228a3.362,3.362,0,0,1-1.2008-.374,3.23357,3.23357,0,0,1-1.731-3.05194C348.373,249.6013,348.435,249.18876,348.48221,248.82Z" fill="#020202"/><path d="M332.068,125.4156s-16.89729.5226-21.07806-1.742c0,0,1.39359-6.097-3.13558-5.57436s-2.8164,9.40674-.53721,9.40674c0,0-6.60495,6.61956-12.35351,4.70337,0,0-9.06531-24.73625,10.53555-31.1816s23.95583,6.79375,23.95583,6.79375,19.51027,9.58094,2.613,17.59409" fill="#020202"/><path d="M294.87491,132.17069a6.38532,6.38532,0,0,1,2.25317-2.69757,11.27523,11.27523,0,0,1,3.19763-1.50879,21.33016,21.33016,0,0,1,3.46875-.71835,23.44134,23.44134,0,0,1,3.5597-.17243.43346.43346,0,0,1-.0188.86667l-.01831-.00021a1.89324,1.89324,0,0,1-1.38269-.72394,4.86458,4.86458,0,0,1-.72644-1.13788,9.1865,9.1865,0,0,1-.74891-2.47384,8.79951,8.79951,0,0,1-.04882-2.6203,4.78514,4.78514,0,0,1,1.12561-2.60672,3.64172,3.64172,0,0,1,1.28833-.8974,4.5721,4.5721,0,0,1,1.47546-.297,3.93422,3.93422,0,0,1,1.53882.23663,3.14212,3.14212,0,0,1,1.35779.99,4.99432,4.99432,0,0,1,.95373,2.79529,10.47875,10.47875,0,0,1-.19128,2.69006l-.49536-1.095a7.50073,7.50073,0,0,0,1.98657.57651c.73718.13031,1.504.214,2.27551.27811,1.54529.13461,3.11817.19766,4.69568.22772,3.16382.05633,6.32166.01929,9.56677.11941.40955.01822.82007.04093,1.25611.08878a5.64,5.64,0,0,1,.71386.11838,1.86253,1.86253,0,0,1,.56983.2326,1.197,1.197,0,0,1,.291.27347,1.04838,1.04838,0,0,1,.03845,1.19287l-.04357.06848a11.86232,11.86232,0,0,0-.86414,1.98389,21.72529,21.72529,0,0,0-1.11743,4.40738,2.73568,2.73568,0,0,0,.007.79315l.4591,1.09049.4646,1.1004.2356.56149a2.515,2.515,0,0,1-.28833,2.42981,2.4948,2.4948,0,0,1-1.33277.92478l-2.28686.69259.38733-.35733a36.37521,36.37521,0,0,1-3.03345,5.23425,18.44917,18.44917,0,0,1-1.93738,2.34961,7.83019,7.83019,0,0,1-2.53906,1.80106,6.28632,6.28632,0,0,1-3.103.2475,15.7709,15.7709,0,0,1-2.94458-.71894,34.93221,34.93221,0,0,1-5.48718-2.43994l.41834-.07983c-2.83716,3.71628-5.55872,7.5231-8.35071,11.27484a.6751.6751,0,0,1-.74951.23926l-.00586-.00214a28.39883,28.39883,0,0,1-5.40918-2.634c-1.70264-.98459-3.33863-2.06119-4.97473-3.13291q-4.86841-3.27762-9.47449-6.90249l-.03406-.02683a.572.572,0,0,1-.09582-.80334.586.586,0,0,1,.1322-.12222c2.54345-1.69605,5.05249-3.47251,7.49109-5.33017,1.22363-.92508,2.39477-1.91617,3.53527-2.93845A14.18489,14.18489,0,0,0,294.87491,132.17069Zm.17749.0773a14.72584,14.72584,0,0,1-2.95911,3.55841c-1.09363,1.08713-2.25854,2.0947-3.40405,3.12519-2.30884,2.04364-4.68567,3.99862-7.11682,5.909l.00219-.95214,9.74683,6.404c1.61292,1.07886,3.24963,2.11865,4.87964,3.15338.81641.51474,1.644,1.00806,2.47009,1.48813a16.99633,16.99633,0,0,0,2.4845,1.23926l-.75513.237c2.97193-3.61087,6.01416-7.16663,8.9408-10.813a.3286.3286,0,0,1,.4187-.0799,28.14494,28.14494,0,0,0,5.34814,2.42545,15.15489,15.15489,0,0,0,2.83606.64117,5.6316,5.6316,0,0,0,2.75989-.254,6.468,6.468,0,0,0,2.20422-1.71124,17.58707,17.58707,0,0,0,1.73279-2.322,33.39469,33.39469,0,0,0,2.65564-5.19638.62178.62178,0,0,1,.361-.34784l.02662-.00974,2.24511-.818a1.03907,1.03907,0,0,0,.74439-1.08569,1.00364,1.00364,0,0,0-.08777-.32489L330.34,135.983l-.5044-1.08273-.50793-1.09345a2.52271,2.52271,0,0,1-.18262-.8692,5.62713,5.62713,0,0,1,.00476-.69953,21.241,21.241,0,0,1,1.08777-4.86682,12.88347,12.88347,0,0,1,1.01123-2.40042c.00928-.01611.05749-.08841.03515-.05819a.75587.75587,0,0,0-.12182.401.82728.82728,0,0,0,.16113.515.6254.6254,0,0,0,.18152.17352c.1134.06809.05664.03055.01221.02628a4.09042,4.09042,0,0,0-.46558-.06317c-.35632-.03183-.74158-.04633-1.12768-.05509-3.12293-.04943-6.33558.11161-9.54029.03443-1.6062-.02942-3.21826-.08029-4.84546-.22968-.81372-.082-1.63037-.18383-2.45886-.34457a9.21015,9.21015,0,0,1-2.56238-.823.97482.97482,0,0,1-.50219-1.0654l.00659-.02987c.28528-1.3407.30969-3.05426-.29712-3.89469a1.60574,1.60574,0,0,0-1.39636-.6001,2.13055,2.13055,0,0,0-1.6167.54532,5.23765,5.23765,0,0,0-1.00269,3.95005,8.05427,8.05427,0,0,0,.47058,2.20361c.234.6756.71631,1.38562,1.13819,1.41562l-.03711.86642a22.78136,22.78136,0,0,0-3.43311-.08636,16.69487,16.69487,0,0,0-3.417.483,10.01791,10.01791,0,0,0-3.15808,1.34616A6.16111,6.16111,0,0,0,295.0524,132.248Z" fill="#020202"/><path d="M307.8544,130.119l-.21277,2.76532a25.76679,25.76679,0,0,0-.04687,2.70029,14.69571,14.69571,0,0,0,.31994,2.63654,10.68375,10.68375,0,0,0,.98487,2.524,5.4636,5.4636,0,0,1-1.70411-2.29376,8.79264,8.79264,0,0,1-.56726-2.83142,11.42545,11.42545,0,0,1,.26831-2.84A9.749,9.749,0,0,1,307.8544,130.119Z" fill="#020202"/><path d="M293.07759,116.3614s-14.83706-9.11686-1.94634-17.10282,14.36793,1.76918,14.36793,1.76918" fill="#020202"/><path d="M257.43692,170.80207a53.898,53.898,0,0,0-11.84851.05374,42.72878,42.72878,0,0,0-11.36218,2.81034l-1.3429.56106-1.29016.666c-.4242.231-.87171.42092-1.276.68429l-1.21826.77759a19.34713,19.34713,0,0,0-4.307,3.66461,19.90542,19.90542,0,0,0-4.64722,10.11185,20.36119,20.36119,0,0,0-.07312,5.61151c.2428,1.80533.74671,3.82062,1.11157,5.76126.78479,3.90976,1.56788,7.82,2.29615,11.741,1.48059,7.84738,2.76794,15.70019,4.32507,23.51135,3.035,15.65085,6.72717,31.16592,10.6781,46.61331q5.95826,23.16512,11.61817,46.39816l-1.15381-1.08155c4.14978.65942,8.32959,1.26863,12.50256,1.8518,4.173.59876,8.34778,1.18645,12.52783,1.73032q12.53046,1.70748,25.09949,3.04042c8.37817.88112,16.77844,1.52408,25.18115,1.80791a116.38136,116.38136,0,0,0,12.58069-.246,40.09621,40.09621,0,0,0,6.18945-.92508,18.00672,18.00672,0,0,0,2.94654-.97879,6.65232,6.65232,0,0,0,2.49377-1.7577.14525.14525,0,0,1,.20386-.02527.15031.15031,0,0,1,.0293.19824,7.05133,7.05133,0,0,1-2.48487,2.07022,17.269,17.269,0,0,1-2.98413,1.22107,41.01077,41.01077,0,0,1-6.26111,1.35352,103.70488,103.70488,0,0,1-12.72131.8901c-8.495.183-16.967-.32412-25.41394-.94224-8.45044-.61725-16.86719-1.56329-25.26416-2.62528-4.195-.55978-8.38684-1.13972-12.5708-1.77391-4.18335-.65364-8.35315-1.32995-12.53516-2.06379l-.016-.0028a1.42157,1.42157,0,0,1-1.13806-1.079q-5.38221-23.30661-10.27417-46.72382Q232.13236,260.29,226.415,237.06123c-.94349-3.87287-1.86426-7.76651-2.73194-11.66352-.86621-3.89038-1.77966-7.77084-2.60681-11.66833-.85254-3.8924-1.65027-7.79566-2.44617-11.69931-.38635-1.97229-.8186-3.84-1.09948-5.98636a22.88011,22.88011,0,0,1,.15515-6.30554,21.782,21.782,0,0,1,5.44507-11.21024,19.71111,19.71111,0,0,1,4.89795-3.88861l1.33752-.77316c.44373-.26068.92627-.44467,1.387-.66992l1.39661-.64457,1.43945-.53131a40.15872,40.15872,0,0,1,11.90247-2.33664,48.57409,48.57409,0,0,1,11.99792.83286.14511.14511,0,0,1-.04467.28638Z" fill="#020202"/><path d="M253.58475,306.29226c-2.09913-6.647-3.974-13.34752-5.71021-20.08087-1.735-6.7336-3.39624-13.48516-4.7926-20.298l-1.94141-10.25394c-.627-3.42248-1.25866-6.8435-1.97522-10.24524-1.40869-6.80941-3.10608-13.55142-4.70752-20.335-1.65051-6.75729-3.23-13.52634-4.68957-20.31912l-1.10462-5.09244a31.94641,31.94641,0,0,1-.85534-5.37994,22.43792,22.43792,0,0,1,2.1709-10.8468,21.51156,21.51156,0,0,1,7.25732-8.35053,33.0208,33.0208,0,0,1,9.89148-4.32794,46.15633,46.15633,0,0,1,21.00561-.25037.145.145,0,0,1-.04187.28635l-.01086-.00086a52.59224,52.59224,0,0,0-20.309,2.15876,33.2252,33.2252,0,0,0-8.925,4.44143,19.26427,19.26427,0,0,0-6.075,7.38077,20.70915,20.70915,0,0,0-1.94043,9.38529,28.90425,28.90425,0,0,0,.65088,4.92135l.9613,5.1272c1.29492,6.83343,2.46985,13.69061,3.57373,20.55954q1.64959,10.28078,4.06641,20.436l1.27039,5.05658L242.71634,255.3l2.72046,10.071c1.725,6.73407,3.207,13.52434,4.629,20.32934,1.421,6.80523,2.71752,13.63994,3.80151,20.52546a.14556.14556,0,0,1-.28259.06648Z" fill="#020202"/><path d="M238.871,288.30466c2.282,2.61475,4.49695,5.19806,6.75037,7.72728,2.25366,2.52649,4.57483,4.95952,6.98425,7.26862a55.04827,55.04827,0,0,0,7.72205,6.24268,25.48654,25.48654,0,0,0,9.20288,3.833,17.31123,17.31123,0,0,1-10.306-1.85408,34.4215,34.4215,0,0,1-8.61817-6.11754,51.43742,51.43742,0,0,1-6.75842-7.97664A44.62066,44.62066,0,0,1,238.871,288.30466Z" fill="#020202"/><path d="M248.84183,330.15119q-4.64923,14.38143-9.64051,28.62155l-4.98962,14.24088q-2.4831,7.12371-5.0957,14.19986c-3.49427,9.43081-7.11182,18.826-10.26526,28.37779-1.54505,4.78458-3.00794,9.59747-4.2688,14.45915-.61548,2.433-1.23108,4.86947-1.67774,7.32923a31.90853,31.90853,0,0,0-.78979,7.28636l-1.46143-.27094c4.10816-9.40455,8.22571-18.80609,12.43445-28.16271l12.5813-28.08735,12.79675-27.981c2.1062-4.67326,4.29444-9.31523,6.326-14.0186,2.08435-4.68669,4.12159-9.382,5.91785-14.18514l.00281-.0077a.14507.14507,0,0,1,.27563.08972c-.68884,2.47441-1.3872,4.96542-2.25061,7.385l-1.23852,3.65682-1.33814,3.61581q-1.33118,3.62086-2.74585,7.20525c-.93054,2.39519-1.84985,4.79669-2.83777,7.16681-3.83508,9.5345-7.93554,18.95074-12.07592,28.3479-4.18067,9.37932-8.57166,18.66082-12.94861,27.94743-4.37354,9.28851-8.90039,18.50363-13.509,27.68182l-.03161.063a.75506.75506,0,0,1-1.42981-.33394,32.61846,32.61846,0,0,1,1.14892-7.648c.585-2.466,1.23975-4.9018,1.92444-7.32945,1.36853-4.8537,2.82312-9.67558,4.28565-14.49539,2.89319-9.64844,5.75317-19.31461,8.877-28.89368,3.17566-9.56042,6.66394-19.01043,10.27881-28.40965,3.61914-9.39784,7.408-18.73131,11.474-27.95459a.14533.14533,0,0,1,.27112.10379Z" fill="#020202"/><path d="M272.80057,333.67191c.08447,6.10691-.10889,12.19042-.34168,18.27033q-.18346,4.55919-.44409,9.11212-.22779,4.55519-.62354,9.09885c-.51367,6.05893-1.31286,12.10453-1.68334,18.17459-.18482,3.03434-.29188,6.07289-.302,9.10891.01453,1.51758.01184,3.03537.10364,4.54389.04334.75334.09558,1.50558.17493,2.24342.0404.36759.0874.73425.15271,1.07756a4.21736,4.21736,0,0,0,.11364.474.70454.70454,0,0,0,.05823.14336c.00867.01813.00562-.00029-.01941-.03217a.52667.52667,0,0,0-.36352-.19424l.59912.46505c.02356.03666.11645.17012.15942.18371.056.02984.03845.01683.03015-.0009a2.20654,2.20654,0,0,0,.39051-.3451,8.66178,8.66178,0,0,0,1.06238-1.80546,37.75723,37.75723,0,0,0,1.55468-4.3116c.896-2.96346,1.67542-5.98949,2.39673-9.03142,1.42359-6.09267,2.62817-12.25365,3.84985-18.41344l3.76172-18.48486c1.27613-6.16413,2.56641-12.33158,4.01575-18.47954a.1456.1456,0,0,1,.287.04434q-.75221,9.4442-2.02759,18.82233-1.24475,9.38249-2.98413,18.69571c-1.20215,6.20015-2.59961,12.36905-4.27661,18.486-.845,3.05687-1.738,6.10878-2.89246,9.10136a33.83011,33.83011,0,0,1-2.01208,4.42844,10.03281,10.03281,0,0,1-1.53284,2.12214,2.34406,2.34406,0,0,1-1.62317.75282,1.54326,1.54326,0,0,1-1.03088-.43857,2.10378,2.10378,0,0,1-.5177-.77261l.59887.46479a.93776.93776,0,0,1-.59521-.34944,1.24271,1.24271,0,0,1-.1637-.27717,2.23129,2.23129,0,0,1-.12854-.39454,5.64175,5.64175,0,0,1-.10656-.64465c-.04664-.409-.06678-.80057-.0813-1.19138-.02625-.77962-.02295-1.54811-.01087-2.31537.036-1.53311.05481-3.0578.118-4.58179l.26514-9.13408c.13843-6.0876.0072-12.19235.21643-18.28q.145-4.566.5116-9.11809.32592-4.55427.76965-9.09973c.60083-6.05968,1.27649-12.11337,2.28162-18.13977a.14571.14571,0,0,1,.28943.02223Z" fill="#020202"/><path d="M359.57107,402.14184c1.60852,3.95875,2.9253,7.99138,4.18482,12.03854,1.2373,4.05309,2.432,8.11557,3.35644,12.25128.90516,4.14053,1.5857,8.34621,2.70948,12.4288q.819,3.06768,1.85376,6.06915c.33117,1.00324.726,1.98616,1.11,2.96374.19483.48757.39478.97243.60462,1.44143.10412.23424.21191.46729.32336.678.05554.11109.11353.20061.166.28775.02.02257.0581.07411.0581.07411a.09459.09459,0,0,0-.02978-.03986c-.01184-.01088.01208.01357-.02942-.0257a.63506.63506,0,0,0-.13745-.09424.65.65,0,0,0-.33081-.06921.10268.10268,0,0,0,.00939.20508l.528-.01242c.01977-.00047.15576.0184.087-.0115-.05933-.00916-.0918.00888-.03968-.06653a3.19357,3.19357,0,0,0,.23828-1.05629,17.15571,17.15571,0,0,0-.03357-2.84441c-.15454-1.96443-.45166-3.959-.78991-5.947-.71131-3.978-1.59656-7.94867-2.438-11.93406-.81677-3.99217-1.68982-7.98181-2.479-11.99839-.7992-4.01443-1.57789-8.04161-2.21253-12.11509a.146.146,0,0,1,.27979-.07747q2.29449,5.74174,4.12744,11.63014,1.85943,5.8806,3.29089,11.89108a113.67739,113.67739,0,0,1,2.17944,12.20037,52.60475,52.60475,0,0,1,.444,6.27314,16.473,16.473,0,0,1-.31958,3.28222,4.56866,4.56866,0,0,1-.76941,1.81833,1.87769,1.87769,0,0,1-1.29748.72637,1.69522,1.69522,0,0,1-.748-.11187,2.031,2.031,0,0,1-.59546-.3489l.537.19245a1.07329,1.07329,0,0,1-.60156-.23.38541.38541,0,0,1-.06348-.06091,2.34588,2.34588,0,0,1-.15674-.19268c-.07129-.10833-.09973-.17427-.14941-.2641-.06751-.14862-.13257-.294-.17969-.42712-.10559-.27233-.19324-.5319-.27661-.79283-.16772-.52062-.317-1.036-.46069-1.55206l-.83057-3.08772c-.55249-2.052-1.13013-4.09135-1.75574-6.11774-1.21655-4.06145-2.7959-8.02269-4.12219-12.05662-1.30493-4.03934-2.30713-8.16078-3.24548-12.29718-.91516-4.14263-1.755-8.30459-2.27649-12.54736a.14639.14639,0,0,1,.281-.07278Z" fill="#020202"/><path d="M440.97049,267.49976c.53625,15.11161.77344,30.22319.98,45.33478.1604,15.1116.2522,30.22319.08313,45.33479l-.4,22.66739c-.14978,7.55579-.28979,15.11159-.33752,22.66739-.05774,7.55579-.00659,15.11159.03979,22.66738l.03125,5.66685.04041,2.83343.01062.70835a5.087,5.087,0,0,1-.05957.808,4.47677,4.47677,0,0,1-.54993,1.53705,4.53877,4.53877,0,0,1-2.516,2.02979,5.11369,5.11369,0,0,1-1.59643.22237l-1.41663.02126-5.66687.08506-5.66687.09794-2.83337.049-.35779.00594q-.21862.00228-.43884-.015a4.62091,4.62091,0,0,1-.87891-.155,5.126,5.126,0,0,1-1.58057-.76244,4.855,4.855,0,0,1-1.90246-2.93959,5.22957,5.22957,0,0,1-.10413-.88237l-.02539-.708-.04956-1.416-.17-5.66445-.63965-22.65911c-.38526-15.107-.792-30.21361-1.03748-45.32325-.42395-30.22052-.65759-60.44461-.30627-90.67978a.14523.14523,0,0,1,.29028-.00549c1.49072,30.20047,2.39648,60.412,3.11206,90.62711.32434,15.10818.48743,30.2194.67188,45.3302l.21228,22.66766.041,5.66728.0033,1.41694.001.70849a3.125,3.125,0,0,0,.04187.52476,2.82167,2.82167,0,0,0,1.046,1.74752,3.19214,3.19214,0,0,0,.94153.49678,2.69573,2.69573,0,0,0,.51075.10913c.0885.0103.17822.01662.26843.019l.35071.00628,2.83337.049,5.66687.09794,5.66687.08506,1.41663.02126a3.72469,3.72469,0,0,0,1.20361-.12069,3.24728,3.24728,0,0,0,2.26977-2.49824,3.83825,3.83825,0,0,0,.063-.6014l.01062-.70835.04041-2.83343.03125-5.66685c.04651-7.55579.09765-15.11159.03979-22.66738-.0476-7.5558-.18774-15.1116-.3374-22.66739l-.40015-22.66739c-.16894-15.1116-.07727-30.22319.08326-45.33479.20654-15.11159.44372-30.22317.97986-45.33478a.14523.14523,0,0,1,.29028,0Z" fill="#020202"/><rect x="363.24959" y="253.05362" width="125.4232" height="15.17048" rx="3.87109" fill="#020202"/><path d="M323.6785,142.05247a2.573,2.573,0,0,1-2.31128,2.55194,2.54093,2.54093,0,0,1-1.928-.624,2.58084,2.58084,0,0,1-.00147-3.85743,2.53738,2.53738,0,0,1,1.92945-.625A2.57566,2.57566,0,0,1,323.6785,142.05247Zm0,0a2.12875,2.12875,0,0,0-.725-1.58634,2.05334,2.05334,0,0,0-1.5863-.48175,2.08527,2.08527,0,0,0,0,4.13864,2.054,2.054,0,0,0,1.58679-.48376A2.13086,2.13086,0,0,0,323.6785,142.05247Z" fill="#020202"/><path d="M326.19813,131.85869a1.08939,1.08939,0,0,0,0-2.17748,1.08939,1.08939,0,0,0,0,2.17748Z" fill="#020202"/><path d="M325.33267,126.33759a4.195,4.195,0,0,1,1.52661.227,5.68527,5.68527,0,0,1,1.38745.66168,4.66983,4.66983,0,0,1,1.1471,1.06672,2.66121,2.66121,0,0,1,.56885,1.46893,14.79187,14.79187,0,0,0-2.25061-1.72971A25.02777,25.02777,0,0,1,325.33267,126.33759Z" fill="#020202"/><path d="M265.34622,240.65784l-11.745.14356.22839-.16614a147.76922,147.76922,0,0,0-4.35462,20.321,101.15564,101.15564,0,0,0-1.05334,20.67416A53.54132,53.54132,0,0,0,249.937,291.807a36.031,36.031,0,0,0,3.75049,9.45515,22.78321,22.78321,0,0,0,6.77832,7.38355,26.81715,26.81715,0,0,0,9.23621,3.9396l.07165.01943.02478.00781a85.09215,85.09215,0,0,0,10.45032,2.45293c3.54419.63394,7.11548,1.13209,10.699,1.53174a212.84524,212.84524,0,0,0,21.60315,1.35447c1.80506.058,3.61109.052,5.41748.02931l5.41883-.04394,5.41821-.16687,2.70947-.08827,2.70654-.16078,5.414-.32151c1.8048-.10939,3.60791-.30371,5.4121-.4514l5.4126-.47049,5.43982-.29779.00879-.00049a.53.53,0,0,1,.55823.50026.53826.53826,0,0,1-.04419.24268q-3.92212,8.90146-7.9408,17.75349-3.975,8.8735-8.05359,17.70081-4.09642,8.819-8.33032,17.576c-1.4259,2.91239-2.87756,5.81311-4.40869,8.6767-.76758,1.43088-1.55249,2.85356-2.39343,4.25011-.42383.6967-.85962,1.38771-1.335,2.06123a12.15982,12.15982,0,0,1-.77234.98659,4.21033,4.21033,0,0,1-.46961.46467,1.34462,1.34462,0,0,1-.75549.35344l.16016-.66975c5.11291,2.54919,10.32348,4.92122,15.55969,7.21266,5.24219,2.28117,10.53467,4.446,15.89294,6.41966a135.28114,135.28114,0,0,0,16.32434,5.02674,44.06371,44.06371,0,0,0,8.35254,1.1803,14.09749,14.09749,0,0,0,4.04761-.40159,4.45426,4.45426,0,0,0,2.92688-2.05565l-.0636.16375,2.38342-9.42089a.807.807,0,0,1,.78394-.609l.01465.00025c4.3103.0135,8.64416-.10678,12.94153-.3759,2.14734-.14417,4.29419-.3275,6.397-.6465a27.3345,27.3345,0,0,0,3.08154-.62134,8.94925,8.94925,0,0,0,1.38489-.491,1.79619,1.79619,0,0,0,.767-.528l-.04346.53861-6.171-27.33261-6.11938-27.34413a1.00515,1.00515,0,0,1,.02587-.53611l.006-.01727a144.318,144.318,0,0,0,4.96521-19.19639,91.09867,91.09867,0,0,0,1.28918-9.80335,48.41878,48.41878,0,0,0-.15271-9.78207,26.70967,26.70967,0,0,0-1.03308-4.69284,15.182,15.182,0,0,0-2.11292-4.161,10.88321,10.88321,0,0,0-3.5227-2.94869,18.2775,18.2775,0,0,0-2.15259-1.09881l-1.10315-.52067-1.1466-.4523a156.50291,156.50291,0,0,0-18.998-5.80723c-12.91406-3.19419-25.983-5.83231-39.08289-8.26731l-4.9165-.8963c-.81983-.14883-1.63684-.28445-2.46863-.48129l-1.24133-.2753-1.21533-.37341a26.21573,26.21573,0,0,1-18.12342-22.14591c.19422-.0112.05774.01892.10291.02634l.00683.03833.01368.07666.02734.15329.05481.30652.1095.61279a12.38753,12.38753,0,0,0,.24658,1.21878,24.51828,24.51828,0,0,0,.69128,2.387l.41309,1.17141c.15076.3852.33252.75824.497,1.13767a21.68239,21.68239,0,0,0,1.12011,2.21185,25.53,25.53,0,0,0,6.41065,7.45654,25.01157,25.01157,0,0,0,8.68848,4.50773l1.17968.34286,1.20362.24628c.79333.17593,1.623.301,2.44531.43667l4.93494.81922c13.15026,2.23611,26.28369,4.632,39.281,7.74969a157.91676,157.91676,0,0,1,19.28027,5.69473l1.18311.45418,1.16345.53408a19.8097,19.8097,0,0,1,2.30628,1.15112,12.75591,12.75591,0,0,1,4.10034,3.39128,17.0523,17.0523,0,0,1,2.44787,4.68741,27.48951,27.48951,0,0,1,1.13587,5.05246,50.31333,50.31333,0,0,1,.18555,10.17837,93.05971,93.05971,0,0,1-1.29529,10.018,146.15694,146.15694,0,0,1-5.00391,19.50691l.03186-.553,6.07446,27.35412,6.02283,27.36565.01392.06319a.7234.7234,0,0,1-.0575.47578,3.09784,3.09784,0,0,1-1.69177,1.49637,10.66186,10.66186,0,0,1-1.67908.59012,29.02428,29.02428,0,0,1-3.29651.64868c-2.189.31947-4.37036.49248-6.55127.62738-4.36315.26077-8.71008.30183-13.07519.24577l.79834-.60855-2.494,9.39221-.00293.011a.72924.72924,0,0,1-.06079.15306,5.92559,5.92559,0,0,1-3.87976,2.75823,15.46862,15.46862,0,0,1-4.46875.40158,45.34032,45.34032,0,0,1-8.60925-1.31443,136.41618,136.41618,0,0,1-16.41724-5.26516c-10.717-4.11272-21.13611-8.9025-31.38489-14.03794a.3517.3517,0,0,1,.10694-.66253l.05322-.00736a2.09773,2.09773,0,0,0,.70227-.57913,11.47488,11.47488,0,0,0,.72851-.92313c.462-.64814.89441-1.32623,1.31568-2.01164.837-1.37581,1.62475-2.78764,2.39526-4.20856,1.538-2.84465,3.00061-5.73381,4.43762-8.6353,2.88147-5.80044,5.61145-11.67735,8.29566-17.57394q4.03033-8.84341,7.94055-17.74194,3.88275-8.90958,7.66467-17.86225l.52271.7423-5.40833.3802-5.40808.55336c-1.80432.175-3.602.39615-5.41186.53319l-5.431.40445-2.71607.20219-2.72058.12964-5.44311.24933c-1.81507.067-3.63257.06528-5.4491.09337-1.81665.0314-3.63342.046-5.45068-.00354a214.51208,214.51208,0,0,1-21.77576-1.26172q-5.426-.61071-10.807-1.60362a86.18644,86.18644,0,0,1-10.68188-2.58057l.09607.02712a28.402,28.402,0,0,1-9.78919-4.24807,24.31346,24.31346,0,0,1-7.16919-7.89537,36.4049,36.4049,0,0,1-3.83789-9.88121,54.85593,54.85593,0,0,1-1.40283-10.44052,102.25571,102.25571,0,0,1,1.36414-20.89035,142.0462,142.0462,0,0,1,4.84851-20.32446.23857.23857,0,0,1,.22876-.16632l11.745.14355a.09678.09678,0,0,1,0,.19354Z" fill="#020202"/><path d="M309.27078,222.76719c.429-2.99057.80383-5.94434,1.07422-8.9158.28162-2.96875.45825-5.94159.70422-8.91974.2721-2.97586.58265-5.97132.61634-8.97336a71.07674,71.07674,0,0,0-.5542-8.98248l-1.09143-8.93177-1.14209-8.91317-.52222-4.46366-.25867-2.23367-.12524-1.11823-.14917-1.061a7.45694,7.45694,0,0,0-1.62048-3.75735,4.19737,4.19737,0,0,0-1.70655-1.10318,5.54,5.54,0,0,0-2.14526-.22117l-.03906-.18957a4.795,4.795,0,0,1,4.55822.78512,8.20213,8.20213,0,0,1,2.45081,4.13959c.71936,3.04047,1.15637,5.95111,1.60974,8.95639.41052,2.98865.67163,5.996.8971,9.00406.24792,3.00623.3363,6.02628.33276,9.04456.012,3.01788.01636,6.02746.13513,9.03637.12061,3.00837.36646,6.02643.3667,9.0557a57.93115,57.93115,0,0,1-.83093,9.04248,42.27869,42.27869,0,0,1-2.37329,8.77109Z" fill="#020202"/><path d="M296.80228,212.80537l.15136,6.15493h-.49634l-.12438-6.15484.36047.37231c-5.38257-.04571-10.762-.18753-16.14307-.28033q-8.07147-.14013-16.14013-.37009l.7749-.62183a93.07313,93.07313,0,0,0-1.254,12.73786,61.2249,61.2249,0,0,0,.14185,6.3725,34.71809,34.71809,0,0,0,.96923,6.21823,13.51935,13.51935,0,0,0,2.62427,5.42926,6.80565,6.80565,0,0,0,2.287,1.73013,13.95055,13.95055,0,0,0,2.91211.83136,74.51962,74.51962,0,0,0,12.75183.80759c8.59412-.0474,17.2052-.59992,25.78186-1.40344,8.58362-.75666,17.13892-1.85,25.66907-3.04023a.37174.37174,0,0,1,.11206.00138l.008.00149c3.29627.56378,6.61744,1.0397,9.94043,1.42047a90.84115,90.84115,0,0,0,9.97864.67783c.82813.00464,1.65479-.0228,2.47144-.07614a9.68493,9.68493,0,0,0,2.32946-.35514,5.37976,5.37976,0,0,0,3.24756-2.88024,11.8735,11.8735,0,0,0,1.0586-4.57749,22.10181,22.10181,0,0,0-.28272-4.81946l-.00085-.005a.82459.82459,0,0,1,.43652-.87183l10.41565-5.3251.07678-.03394.04236-.01556a6.69237,6.69237,0,0,0,2.74561-1.70511.98673.98673,0,0,0,.257-.94372,1.39514,1.39514,0,0,0-.72106-.83661,1.78157,1.78157,0,0,0-1.20679-.13291l-1.8053.479-3.68262.94687c-2.46252.61145-4.92956,1.20068-7.44494,1.68759a27.70251,27.70251,0,0,1-3.91846.53311,5.1308,5.1308,0,0,1-.58691-.01553,2.91577,2.91577,0,0,1-.68091-.13712,6.9045,6.9045,0,0,1-1.03943-.41235,2.43136,2.43136,0,0,1-.65845-.47351,1.497,1.497,0,0,1-.36291-.60944,1.42061,1.42061,0,0,1,.01135-.84412,1.98891,1.98891,0,0,1,.525-.7966,4.7725,4.7725,0,0,1,.459-.39135A30.56347,30.56347,0,0,1,362.141,218.987c.57556-.31076,1.17188-.60129,1.75879-.86722.285-.13065.59729-.26663.783-.36807.04175-.022.07422-.04587.0498-.02793a.663.663,0,0,0-.21142.38178.65588.65588,0,0,0,.06823.49322c.03187.05588.04578.06333.03882.05585a2.23363,2.23363,0,0,0-.52881-.288,7.3,7.3,0,0,0-.78234-.2709,13.50524,13.50524,0,0,0-1.72059-.36264,17.42273,17.42273,0,0,0-10.481,1.72952,24.17458,24.17458,0,0,0-6.0282,4.03662l-.01221.01114a.93313.93313,0,0,1-.59619.24231q-8.12421.27772-16.24243.39789c-5.42078.04193-10.82568.15778-16.28919-.26047a17.21032,17.21032,0,0,1-2.0935-.28988,4.02887,4.02887,0,0,1-.58472-.17478c-.2799-.12744-.34814-.18268-.51452-.26993l-.87171-.482a28.13273,28.13273,0,0,0-3.63476-1.5983,20.26717,20.26717,0,0,0-7.78577-1.19562,26.57406,26.57406,0,0,0-7.80151,1.67737c-2.53833.89579-5.01893,2.00263-7.60181,2.83716a.0968.0968,0,0,1-.06262-.18317c2.533-.93142,4.957-2.13177,7.4823-3.13861a27.2458,27.2458,0,0,1,7.93091-2.033,20.921,20.921,0,0,1,8.18188,1.01612,29.26554,29.26554,0,0,1,3.83057,1.55969l.917.47433c.13354.06855.35571.18824.38684.1941a3.01962,3.01962,0,0,0,.39014.10043,16.21219,16.21219,0,0,0,1.92968.20834c5.33826.23191,10.76331.06235,16.15454-.08188q8.09692-.25319,16.19275-.67749l-.608.2533a25.57443,25.57443,0,0,1,6.49622-4.39807,19.39858,19.39858,0,0,1,11.6029-1.9375,15.48526,15.48526,0,0,1,1.98609.41244,9.277,9.277,0,0,1,1.00793.34641,3.90345,3.90345,0,0,1,1.10669.65216,1.9022,1.9022,0,0,1,.345.41525,1.28953,1.28953,0,0,1-.3136,1.70645,2.27817,2.27817,0,0,1-.34582.23133c-.36963.20013-.64026.31009-.92786.44561-.56262.25757-1.10156.523-1.6366.81421a29.00523,29.00523,0,0,0-3.07055,1.92838,2.82131,2.82131,0,0,0-.26209.22207c-.06274.05085-.079.12433-.015-.02893a.65139.65139,0,0,0,.001-.379.57147.57147,0,0,0-.11474-.212c-.04-.03516.02722.02341.116.06467a5.06656,5.06656,0,0,0,.72314.27743l.10278.03247.03138.00379a.475.475,0,0,0,.11035.015,3.16979,3.16979,0,0,0,.35937.01175,26.34345,26.34345,0,0,0,3.588-.46271c2.45057-.44955,4.90613-1.01,7.35291-1.59274l3.66687-.90506,1.86255-.47412a3.64993,3.64993,0,0,1,2.47864.31039,3.25485,3.25485,0,0,1,1.64428,1.98868,2.63152,2.63152,0,0,1,.00989,1.42578,3.23011,3.23011,0,0,1-.6123,1.16333,6.17169,6.17169,0,0,1-1.71766,1.40155,10.971,10.971,0,0,1-1.8916.86454l.11878-.04935-10.48792,5.18133.43555-.87652a23.57383,23.57383,0,0,1,.22144,5.21524,13.32485,13.32485,0,0,1-1.29993,5.14078,6.75563,6.75563,0,0,1-4.16321,3.49865,8.39881,8.39881,0,0,1-1.34778.26056l-1.29419.08445q-1.28649.05108-2.55993.01336a96.32389,96.32389,0,0,1-10.08313-.92975q-5.00446-.68733-9.95752-1.65081l.11975.00283c-8.5553,1.13706-17.13,2.04618-25.7074,2.97123-8.585.83834-17.17651,1.67416-25.82581,1.96087a75.62558,75.62558,0,0,1-13.046-.48474,14.00809,14.00809,0,0,1-3.30066-.90427,8.43714,8.43714,0,0,1-2.85168-2.11218,15.11866,15.11866,0,0,1-3.03332-6.074,44.23521,44.23521,0,0,1-1.1377-13.08643,94.53936,94.53936,0,0,1,1.416-12.96808.76088.76088,0,0,1,.77514-.622q8.06689.28093,16.13037.67112c5.37586.25421,10.7533.45947,16.12757.7608l.01635.00095a.36549.36549,0,0,1,.34436.37158l-.12451,6.15484-.00012.01111a.24816.24816,0,0,1-.49622-.01v-.0011l.15149-6.15493a.09677.09677,0,0,1,.19349,0Z" fill="#020202"/><path d="M395.42346,394.04684l-7.08923.15765-1.18237,4.56057c-.55908,11.29627-13.63157,7.163-13.63157,7.163l.63345,7.58175a73.43974,73.43974,0,0,1,.16186,8.36548c-.10505,3.43.53848,8.85608,5.34506,10.54289,7.20988,2.53022,27.14034,1.57828,27.14034,1.57828l2.03479-10.32358a14.93863,14.93863,0,0,1-11.84947-6.95191,12.9407,12.9407,0,0,1-1.95772-7.37053Z" fill="none" stroke="#020202" stroke-linecap="round" stroke-linejoin="round" stroke-width="0.96777"/><path d="M252.4481,289.74322a1.45252,1.45252,0,0,0,0-2.90331,1.45252,1.45252,0,0,0,0,2.90331Z" fill="#020202"/><path d="M258.37086,293.2272a1.45253,1.45253,0,0,0,0-2.90332,1.45253,1.45253,0,0,0,0,2.90332Z" fill="#020202"/><path d="M265.33882,296.01438a1.45252,1.45252,0,0,0,0-2.90331,1.45252,1.45252,0,0,0,0,2.90331Z" fill="#020202"/><path d="M273.352,294.96919a1.45253,1.45253,0,0,0,0-2.90332,1.45253,1.45253,0,0,0,0,2.90332Z" fill="#020202"/><path d="M281.01672,289.39482a1.45252,1.45252,0,0,0,0-2.90331,1.45252,1.45252,0,0,0,0,2.90331Z" fill="#020202"/><path d="M286.93948,282.77527a1.45253,1.45253,0,0,0,0-2.90332,1.45253,1.45253,0,0,0,0,2.90332Z" fill="#020202"/><path d="M290.77186,276.15571a1.45253,1.45253,0,0,0,0-2.90332,1.45253,1.45253,0,0,0,0,2.90332Z" fill="#020202"/><path d="M293.90744,268.491a1.45253,1.45253,0,0,0,0-2.90332,1.45253,1.45253,0,0,0,0,2.90332Z" fill="#020202"/><path d="M297.73981,260.82621a1.45253,1.45253,0,0,0,0-2.90332,1.45253,1.45253,0,0,0,0,2.90332Z" fill="#020202"/><path d="M299.8302,253.50985a1.45252,1.45252,0,0,0,0-2.90331,1.45252,1.45252,0,0,0,0,2.90331Z" fill="#020202"/><path d="M305.753,167.4556a1.45253,1.45253,0,0,0,0-2.90332,1.45253,1.45253,0,0,0,0,2.90332Z" fill="#020202"/><path d="M306.79815,174.772a1.45252,1.45252,0,0,0,0-2.90331,1.45252,1.45252,0,0,0,0,2.90331Z" fill="#020202"/><path d="M307.84335,182.4367a1.45252,1.45252,0,0,0,0-2.90331,1.45252,1.45252,0,0,0,0,2.90331Z" fill="#020202"/><path d="M308.54014,190.44985a1.45252,1.45252,0,0,0,0-2.90331,1.45252,1.45252,0,0,0,0,2.90331Z" fill="#020202"/><path d="M308.88854,197.06941a1.45252,1.45252,0,0,0,0-2.90331,1.45252,1.45252,0,0,0,0,2.90331Z" fill="#020202"/><path d="M308.88854,205.77936a1.45253,1.45253,0,0,0,0-2.90332,1.45253,1.45253,0,0,0,0,2.90332Z" fill="#020202"/><path d="M307.495,215.53449a1.45252,1.45252,0,0,0,0-2.90331,1.45252,1.45252,0,0,0,0,2.90331Z" fill="#020202"/><path d="M253.60107,240.56107h11.74521c2.1586,4.738,4.18431,4.52917,4.18431,4.52917C263.60783,253.10339,253.60107,240.56107,253.60107,240.56107Z" fill="#020202"/><path d="M307.85435,157.294s8.60481,38.21173,1.50972,65.49878l2.06337.668s2.9927-13.59688,4.44-15.9975c9.38177-15.56081,3.83238-20.90387,3.83238-20.90387-6.61956-5.226-11.84552-29.26541-11.84552-29.26541" fill="#020202"/><path d="M266.91763,212.34086c5.85767-.06107,11.66748-.41269,17.493-.65943l17.46-.77957-.51635.11948c-.06482.0296.11133-.07974.18664-.14032a3.76479,3.76479,0,0,0,.30225-.28259,5.76072,5.76072,0,0,0,.57654-.70121,7.81318,7.81318,0,0,0,.88537-1.77945,15.43412,15.43412,0,0,0,.76966-4.23419c.01965-.74392.07959-1.48639.03552-2.24417l-.0293-1.13281-.1-1.13873c-.04993-.76014-.15125-1.5203-.27076-2.28077l-.3302-2.32c-.49011-3.13989-.85022-6.30387-1.0476-9.48093a43.58335,43.58335,0,0,1,.2959-9.52713,69.171,69.171,0,0,0,1.162,9.35745c.54041,3.09061,1.18628,6.16046,1.86792,9.221a39.64483,39.64483,0,0,1,1.19824,9.67371,18.17385,18.17385,0,0,1-.85778,5.054,10.64676,10.64676,0,0,1-1.18921,2.45865,7.2729,7.2729,0,0,1-.91956,1.12628,6.58822,6.58822,0,0,1-.57422.51084,4.51727,4.51727,0,0,1-.80664.49921,1.19465,1.19465,0,0,1-.48095.11883l-.03577.00076c-2.933.084-5.85156.19434-8.77979.19233-2.926.01214-5.8529.01-8.78064-.08637-2.92712-.06174-5.85571-.225-8.78076-.43869A74.91,74.91,0,0,1,266.91763,212.34086Z" fill="#020202"/></svg>