<svg id="Layer_1" data-name="Layer 1" xmlns="http://www.w3.org/2000/svg" viewBox="0 0 700 550"><title>waiting at a buss stop-sitting in a metro</title><path d="M358.97119,276.12958c.15333.0383.31613.07667.47906.10538v.5749Z" fill="#020202"/><path d="M412.29034,233.5701c-.25871.0862-.527.17246-.78572.24912-.09567-.25871-.182-.51742-.27777-.77613Z" fill="#020202"/><path d="M421.0666,262.95549c-.50771-2.012-1.12092-4.0241-1.76278-6.017-2.45284-7.75113-5.10683-15.45435-7.7992-23.11928-2.28979.73771-4.5797,1.39881-6.908,1.99284-2.58687.6611-5.19291,1.2839-7.84691,1.70547-1.3318.20117-2.66359.4024-4.03363.48865-.68034.05749-1.37016.067-2.06009.05749l-1.97366-.01919c-2.63482-.01918-5.27922.0479-7.92352.16287-5.27922.25871-10.568.55572-15.8089,1.303a51.89681,51.89681,0,0,0-7.76083,1.60969,15.18473,15.18473,0,0,0-3.62171,1.55214,4.327,4.327,0,0,0-1.39881,1.33174,2.11016,2.11016,0,0,0-.27789.89109,2.38389,2.38389,0,0,0,.20117.92935,47.69709,47.69709,0,0,1,3.37258,7.27212,62.9079,62.9079,0,0,1,2.34746,7.68405,60.17229,60.17229,0,0,1,1.34138,7.95235c.1724,1.33179.21076,2.68277.28748,4.03369.05743,1.14975.01907,2.30909.00948,3.46837a26.8537,26.8537,0,0,0,5.57618.56531,43.30069,43.30069,0,0,0,6.1895-.39286,72.0601,72.0601,0,0,0,12.16814-2.86475,89.48675,89.48675,0,0,1,25.07381-3.20967c2.10781-.01918,4.21573.05749,6.29489-.05748a16.23188,16.23188,0,0,0,3.05633-.45994,5.76388,5.76388,0,0,0,2.606-1.3222,3.823,3.823,0,0,0,1.06361-2.55815A10.117,10.117,0,0,0,421.0666,262.95549Zm-23.5695-18.97068a47.57481,47.57481,0,0,1-11.8616,2.05038c-3.96649.01913-7.90445.21076-11.86136.47906q-5.9357.43115-11.87118.93894,5.835-1.26472,11.77528-1.945a108.08782,108.08782,0,0,1,11.93808-.76648,39.96674,39.96674,0,0,0,5.82542-.56525c1.945-.28748,3.86123-.73777,5.78706-1.16893q5.76308-1.40841,11.43025-3.28633A72.41914,72.41914,0,0,1,397.4971,243.98481Z" fill="#020202"/><path d="M427.62019,251.01735c-6.0074-11.03745-11.01833-22.05578-11.18113-22.41028a21.07713,21.07713,0,0,1-5.61466,1.11139c-13.2507,1.14016-43.623,0-43.623,0s.048-.53654.10549-1.44677c-2.17494.56532-6.57277,1.61922-14.44845,3.26721-9.17871,1.91623-13.95022,1.18806-16.50832.412a44.08748,44.08748,0,0,1,4.79058,12.77164l.28748,1.70548c.05743.57484.134,1.14975.16281,1.72459.05754,1.17847.048,2.2995.08631,3.42048.05743,2.242.20117,4.484.47906,6.7164a57.28708,57.28708,0,0,0,1.10174,6.63015,44.92408,44.92408,0,0,0,1.89705,6.41938,27.87937,27.87937,0,0,0,3.15224,5.89244,18.243,18.243,0,0,0,4.91513,4.54146,17.00313,17.00313,0,0,1-5.41337-4.14866,27.79092,27.79092,0,0,1-3.57375-5.89244,46.41418,46.41418,0,0,1-3.37259-13.29865,67.9255,67.9255,0,0,1-.42152-6.8409c0-1.14975.03837-2.2995.0096-3.38217-.03837-1.11139-.14375-2.21325-.28749-3.32464a43.292,43.292,0,0,0-1.52337-6.55353,61.00055,61.00055,0,0,0-2.28991-6.381c-.93893-.28742-1.58079-.5749-2.0312-.74735-3.2672-1.25513-2.06956-3.98574-2.78815-5.91156-.57484-1.533-.08619-3.65042.4407-5.193-.62268-1.0156-1.13051-2.06-1.64793-3.09475-.49824-1.03473-.99648-2.06951-1.47554-3.11388-.93893-2.10781-1.87787-4.19655-2.62522-6.4481a16.77738,16.77738,0,0,1,2.13669,2.81686,23.44754,23.44754,0,0,1,1.66711,3.0947,21.08677,21.08677,0,0,1,1.94489,6.74517q.21579-.60367.40257-1.06355c.6035-1.47548.47905-2.836,1.32208-6.92716.84315-4.10071,6.15115-4.666,12.2927-4.666,4.90543,0,16.04844,1.43717,20.37914,2.0312a9.11814,9.11814,0,0,0-.85285-2.0312s16.62339-6.132,20.97328-5.00134c0,0-1.40852-4.66607-3.07563-11.01832-12.7141.99641-37.769,5.24086-49.362,7.28165-6.61114,1.15934-11.74651,6.35231-12.12989,12.68544-.01919.36409-.02866.73777-.02866,1.13057,0,8.7859,1.52337,11.82317,3.0085,25.46673,1.48512,13.634,1.81073,29.9986,4.37853,39.09111,2.5774,9.0925,5.47092,10.60634,13.17409,10.913,7.71276.3066,59.77685-2.42406,64.27036-4.24445,4.50321-1.82044,21.2224-9.09251,23.1481-14.55378C431.79756,263.74115,433.72339,262.22731,427.62019,251.01735Zm-5.23127,14.98494a4.7365,4.7365,0,0,1-1.4084,3.08516,6.62152,6.62152,0,0,1-2.999,1.418,18.14422,18.14422,0,0,1-3.19049.3928c-2.127.08625-4.23491-.00959-6.33313-.01912a79.59431,79.59431,0,0,0-12.55129.79519,74.68673,74.68673,0,0,0-12.2065,2.90312l-2.9892,1.006c-1.00607.3449-2.01213.68028-3.04686.94852a47.48719,47.48719,0,0,1-6.2564,1.34139,40.73977,40.73977,0,0,1-6.40027.412,30.2938,30.2938,0,0,1-3.21925-.22035,17.19223,17.19223,0,0,1-3.229-.642l-.49813-.14368.01907-.53654a72.98608,72.98608,0,0,0,.05754-7.93323,59.47464,59.47464,0,0,0-.92934-7.90445,51.26946,51.26946,0,0,0-2.01214-7.71282,40.04768,40.04768,0,0,0-3.2575-7.29125,2.60274,2.60274,0,0,1-.22035-1.006,2.18563,2.18563,0,0,1,.28749-.98688,4.41142,4.41142,0,0,1,1.44676-1.4084,17.12448,17.12448,0,0,1,3.64077-1.66717,63.283,63.283,0,0,1,7.75112-1.95454,146.596,146.596,0,0,1,15.82809-2.08868c2.66359-.20123,5.31759-.36409,8.00024-.42158l2.00243.00959c.63239-.00959,1.27437-.01918,1.91623-.08625,1.284-.09579,2.57739-.297,3.86124-.50777a137.03754,137.03754,0,0,0,15.31066-3.83247l.8145-.24912.25871.77608c2.70183,7.99065,5.34624,15.98136,7.67451,24.09663.57473,2.0312,1.11133,4.072,1.56162,6.16067A11.14679,11.14679,0,0,1,422.38892,266.00229Z" fill="#020202"/><path d="M343.09884,145.53725c0-5.15258-4.17773-10.00207-4.17773-10.00207-15.42548,3.94021-11.24775-23.94435-11.24775-23.94435-1.60682-13.94229,15.42548-17.5794,15.42548-17.5794s-21.21-1.81856-18.63912,20.00414-2.57091,22.732-2.57091,22.732-4.82047,1.81856-3.535,10.00207Z" fill="#020202"/><path d="M343.09884,94.01143s-4.4991,13.33609,9.64092,22.42889c0,0,6.74865.30309,0,4.84948,0,0-5.78455,22.1258,5.78456,23.94436,0,0,7.30527-.49964,7.78732-6.8646,0,0,7.64176-1.897,14.14578.08289a18.37538,18.37538,0,0,0-9.52041-16.82167s-3.61535-1.81855-4.82047-9.54743S368.64729,92.42019,343.09884,94.01143Z" fill="#020202"/><path d="M327.67337,111.59083a1.95024,1.95024,0,0,1,.73812-.54271,2.151,2.151,0,0,1,.75613-.18228,2.1145,2.1145,0,0,1,.77028.10456,1.93454,1.93454,0,0,1,.78841.46888,1.93423,1.93423,0,0,1-.73812.54464,2.11313,2.11313,0,0,1-.75613.18032,2.15089,2.15089,0,0,1-.7704-.10649A1.94909,1.94909,0,0,1,327.67337,111.59083Z" fill="#020202"/><path d="M335.06473,111.43928a8.26,8.26,0,0,1,2.23436-.86686,11.2563,11.2563,0,0,1,2.35634-.33166,8.7103,8.7103,0,0,1,2.40265.2259,4.23541,4.23541,0,0,1,2.16559,1.12417,14.36015,14.36015,0,0,0-2.28687-.1167c-.7428.00454-1.48723.04123-2.2388.06594A30.56516,30.56516,0,0,1,335.06473,111.43928Z" fill="#020202"/><path d="M329.76223,116.84243a1.46382,1.46382,0,0,0,0-2.92589,1.46382,1.46382,0,0,0,0,2.92589Z" fill="#020202"/><path d="M338.11769,116.84243a1.46382,1.46382,0,0,0,0-2.92589,1.46382,1.46382,0,0,0,0,2.92589Z" fill="#020202"/><path d="M335.06473,118.562a1.04176,1.04176,0,0,1,.79087.85727,1.12328,1.12328,0,0,1-.15193.76616,1.84518,1.84518,0,0,1-.25275.299,3.30091,3.30091,0,0,1-.28865.1919,1.76753,1.76753,0,0,1-1.10723.15426,1.7972,1.7972,0,0,1-.9587-.46861,3.60972,3.60972,0,0,1,.84045-.53924l.62491-.29938c.15625-.0959.16444-.031.28373-.142A1.93019,1.93019,0,0,0,335.06473,118.562Z" fill="#020202"/><path d="M330.61731,126.29083a18.36162,18.36162,0,0,0,2.91422.22386,3.28333,3.28333,0,0,0,1.18081-.312,8.89892,8.89892,0,0,0,1.27635-.82115,2.34836,2.34836,0,0,1-.65355,1.62237,2.583,2.583,0,0,1-1.70092.80669,3.33612,3.33612,0,0,1-1.75062-.37535A3.03644,3.03644,0,0,1,330.61731,126.29083Z" fill="#020202"/><path d="M343.09889,145.53727a13.97163,13.97163,0,0,0,3.46943,2.94753,7.06183,7.06183,0,0,0,4.11082.92861,11.01243,11.01243,0,0,0,4.08684-1.47176c.61684-.43041,1.26677-.83446,1.89483-1.28136.6021-.48107,1.20677-.96885,1.86348-1.42612-.44221.65069-.93636,1.27092-1.43319,1.89787-.54643.57552-1.14408,1.11732-1.7532,1.64784a9.55568,9.55568,0,0,1-4.5383,1.92755,7.057,7.057,0,0,1-4.78286-1.37545A8.85631,8.85631,0,0,1,343.09889,145.53727Z" fill="#020202"/><path d="M386.36462,201.199c2.91773-.03985,5.82693-.1345,8.74409-.11435l8.732-.00807-8.63321,1.25466c-2.875.39464-5.73946.90382-8.60433,1.35735Z"/><path d="M318.39279,146.86842a14.26289,14.26289,0,0,0-3.552,2.987,36.87629,36.87629,0,0,0-2.86382,3.69729,63.60861,63.60861,0,0,0-4.57116,8.18691,157.85056,157.85056,0,0,0-6.80506,17.57537c-.5325,1.4846-1.01589,2.98859-1.5022,4.4924q-.75051,2.24957-1.41132,4.52994c-.93812,3.02455-1.753,6.08749-2.49634,9.16753a165.6578,165.6578,0,0,0-3.1609,18.734c-.69847,6.294-1.274,12.59544-1.58185,18.88483-.11567,3.14089-.20865,6.2914-.02654,9.3894.05333.77058.06573,1.5566.15157,2.31333l.26491,2.2682c.13415.72855.32573,1.41991.47836,2.13348.09508.33332.23754.56371.34572.85527.19041.24867.32386.5236.53193.76914a9.78783,9.78783,0,0,0,3.35024,2.43308,27.01458,27.01458,0,0,0,4.254,1.53206,57.50148,57.50148,0,0,0,9.17871,1.65822,168.01066,168.01066,0,0,0,18.92746.8998l.01976.24931a106.29692,106.29692,0,0,1-19.11143.79962,59.60611,59.60611,0,0,1-9.60911-1.27137,24.23549,24.23549,0,0,1-4.73888-1.54258,12.3034,12.3034,0,0,1-4.327-3.05889,10.74822,10.74822,0,0,1-.82432-1.18177,11.24236,11.24236,0,0,1-.54958-1.34437c-.18877-.83474-.41158-1.67905-.55883-2.5092l-.28081-2.45963c-.09228-.81951-.06795-1.62472-.107-2.43715-.10222-3.243.07965-6.44152.28257-9.63577a167.412,167.412,0,0,1,2.57587-18.948c1.16818-6.25755,2.45623-12.47714,3.723-18.70454.66514-3.10674,1.24736-6.23492,1.94068-9.34335l.50736-2.33506.56877-2.32184c.38549-1.54679.7339-3.1054,1.19741-4.63415a91.95432,91.95432,0,0,1,7.06341-17.83241,50.77,50.77,0,0,1,5.23127-8.10448,29.02111,29.02111,0,0,1,3.33715-3.51078,12.69239,12.69239,0,0,1,4.07-2.61832Z" fill="#020202"/><path d="M302.60693,224.03836c3.48849-.40447,6.98259-.76815,10.4898-1.06849,1.75447-.148,3.51094-.282,5.2825-.369.88665-.0426,1.77471-.07716,2.6809-.0778.45508.00231.91109.00807,1.391.04105.23906.01635.48514.03775.75519.08134a2.91748,2.91748,0,0,1,1.06841.35576l-1.39741,2.07424a.96338.96338,0,1,1-.17227-.05959c-.159-.0474-.34655-.08778-.54245-.12488-.38982-.07477-.8083-.13093-1.22782-.18313-.84373-.10038-1.7084-.17-2.57412-.23134-1.73354-.12114-3.48253-.19608-5.232-.25657C309.628,224.10313,306.11776,224.05008,302.60693,224.03836Z" fill="#020202"/><path d="M316.10429,168.345c-1.2401,2.09447-2.50769,4.16269-3.66066,6.29465-1.18232,2.11093-2.31587,4.24894-3.30556,6.42655a29.47325,29.47325,0,0,0-1.27753,3.30291,8.3282,8.3282,0,0,0-.33953,3.33375,44.05761,44.05761,0,0,0,1.12923,7.06075c.24058,1.198.45753,2.42365.58549,3.668.12713,1.24852.18993,2.45681.24245,3.67875.08257,2.43769.15274,4.8719.1207,7.30926-.01486,2.4366-.09813,4.87464-.28362,7.30958-.10889,1.21662-.24012,2.43269-.43544,3.6417a17.77955,17.77955,0,0,1-.3718,1.80121,3.13366,3.13366,0,0,1-.8366,1.61363,3.03379,3.03379,0,0,0,.5904-1.66682c.08971-.59408.14737-1.19393.17895-1.79682.06877-1.20463.07438-2.41429.05777-3.62346-.01017-2.41792-.10339-4.83747-.20058-7.25557-.12269-2.41751-.222-4.83678-.39625-7.248-.08655-1.20147-.1483-2.41944-.28526-3.58472-.13216-1.17019-.35321-2.33561-.59929-3.51562a43.14992,43.14992,0,0,1-1.06876-7.321,10.69089,10.69089,0,0,1,.06515-1.93489,4.51663,4.51663,0,0,1,.19169-.97987c.08947-.30956.15357-.636.2662-.92981a24.43787,24.43787,0,0,1,1.49822-3.42411A75.4515,75.4515,0,0,1,316.10429,168.345Z" fill="#020202"/><path d="M367.30686,228.27169c.22994-3.68872.65146-13.49028-.93893-18.79822,1.10174.14374,1.76278.23953,1.76278.23953l.9773,18.07964S368.6003,227.946,367.30686,228.27169Z" fill="#fff"/><path d="M292.80191,255.26409c-5.8343,3.6546-11.60522,7.40724-17.15368,11.46071a144.51757,144.51757,0,0,0-15.81288,13.11537c-4.836,4.78725-9.29964,10.09451-12.06,16.225a29.80774,29.80774,0,0,0-2.54932,9.62689,69.63584,69.63584,0,0,0,.13322,10.1666c.43636,6.85673.96735,13.7238,1.495,20.58617l1.50185,20.59942.7594,10.29994.69894,10.305,1.41928,20.60876-.39321-.56806a26.3885,26.3885,0,0,0,8.75415,2.05415,63.887,63.887,0,0,0,9.18666.15289q4.60467-.23042,9.19309-.82449c3.05247-.39328,6.10611-.8646,9.11753-1.46209l-.32514.43639c-.29918-4.82068-.30935-9.6184-.39005-14.42264-.04784-4.8026-.04772-9.60426-.03532-14.40574.064-9.60268.0635-19.20408.183-28.80806l.02853-2.28934,1.189,1.97389,18.60876,30.89482,18.4884,30.96387-1.06736-.58249,5.381-.4079c1.776-.24963,3.55341-.50265,5.32063-.79212a53.54176,53.54176,0,0,0,10.236-3.02361,35.725,35.725,0,0,0,9.08362-5.32406,28.47549,28.47549,0,0,0,3.68884-3.67715,19.88833,19.88833,0,0,0,1.53273-2.07069,14.47966,14.47966,0,0,0,1.16045-2.14671l.16573,1.20921a196.056,196.056,0,0,1-10.88371-17.60664c-3.268-6.06725-6.36857-12.22444-9.134-18.52791-2.8023-6.28676-5.33045-12.68905-7.69112-19.14728-2.34172-6.47119-4.51281-12.98-6.3998-19.62621l-.16269-.57315.42585-.40834a18.22022,18.22022,0,0,1,7.87006-4.36294,15.44125,15.44125,0,0,1,2.2388-.42934l2.12056-.28244c1.4139-.18841,2.82955-.36661,4.23854-.60167a170.592,170.592,0,0,0,16.79193-3.35929,111.60312,111.60312,0,0,0,16.22914-5.39666,62.08344,62.08344,0,0,0,7.61253-3.89132,27.149,27.149,0,0,0,6.62763-5.3193l.20526.143a27.42594,27.42594,0,0,1-6.54822,5.62445,62.75915,62.75915,0,0,1-7.56235,4.18261,102.37688,102.37688,0,0,1-16.2275,5.91119,172.07356,172.07356,0,0,1-16.855,3.76865c-1.41425.26863-2.83973.481-4.26369.70345l-2.13623.33339a13.8309,13.8309,0,0,0-1.97284.42349,16.29429,16.29429,0,0,0-6.97195,3.979l.26316-.98118c1.94687,6.51345,4.20333,12.98615,6.61441,19.36937,2.41283,6.39013,5.07467,12.68034,7.84878,18.91341,2.76008,6.242,5.84858,12.32733,9.096,18.31494a193.52331,193.52331,0,0,0,10.77587,17.31992l.41181.59421-.246.61534a16.27459,16.27459,0,0,1-1.41261,2.678A22.51864,22.51864,0,0,1,359.53,389.832a29.11912,29.11912,0,0,1-4.07246,4.02376,38.2886,38.2886,0,0,1-9.77846,5.642,56.02724,56.02724,0,0,1-10.75576,3.08976c-1.8353.28783-3.67738.53586-5.51689.77806l-5.54366.37728-.70058.04768-.367-.63031-18.1511-31.16908L286.61334,340.753l1.21741-.31542c-.26175,9.59239-.53122,19.18965-.606,28.78662-.04375,4.79839-.07521,9.59695-.05883,14.39429.02,4.79354.07731,9.6022.42245,14.36154l.02631.36362-.35169.073c-3.04487.63192-6.09816,1.13008-9.17052,1.55364q-4.6052.64018-9.25905.91219a69.25906,69.25906,0,0,1-9.3352.03164,27.54559,27.54559,0,0,1-9.24584-1.97675l-.35636-.15919-.03708-.40913-1.86489-20.5762-.919-10.28939-.83765-10.29609-1.6105-20.59887c-.47017-6.87321-.94362-13.74188-1.324-20.63288a71.31009,71.31009,0,0,1-.04105-10.46921,31.75469,31.75469,0,0,1,2.79739-10.22375c3.015-6.438,7.74457-11.73869,12.74766-16.51288a132.022,132.022,0,0,1,16.27358-12.85c5.70764-3.88424,11.58955-7.49118,17.59391-10.87089Z" fill="#020202"/><path d="M287.18152,340.4261c-1.8864-3.8966-3.61667-7.86407-5.31-11.85237-.82982-2.001-1.6125-4.02246-2.365-6.0595a57.73327,57.73327,0,0,1-1.98173-6.25154,13.50559,13.50559,0,0,1-.305-1.67979c-.095-.55188-.14047-.9782-.26585-1.51581-.23309-1.03424-.48783-2.12059-.63566-3.22661-.058-.5573-.15672-1.11111-.17906-1.67262l-.01486-1.691a12.7799,12.7799,0,0,1,.15766-1.68043,10.835,10.835,0,0,1,.26433-1.66538,26.44734,26.44734,0,0,1,2.35178-6.24868l1.65775-2.877,1.93506-2.67349c5.35046-7.00136,12.137-12.60431,19.13635-17.7047,3.45715-2.63085,7.15277-4.90726,10.75658-7.30994,1.81214-1.18658,3.72194-2.218,5.57641-3.33345q2.79505-1.65265,5.61572-3.25591c-3.55422,2.47668-7.21558,4.77457-10.741,7.27091-3.49831,2.53146-7.0999,4.918-10.43494,7.65208-3.43329,2.60765-6.69652,5.41191-9.89086,8.2794-1.51331,1.51671-3.10569,2.96059-4.571,4.51652l-2.11529,2.40488-1.058,1.20168c-.32514.4204-.62759.85715-.94443,1.28323l-1.88489,2.5681-1.59658,2.73447a8.67917,8.67917,0,0,0-.69076,1.41362l-.62186,1.44345c-.10117.24131-.21391.47932-.30608.72329l-.20876.75136-.42819,1.50063a9.58344,9.58344,0,0,0-.2697,1.528,11.44426,11.44426,0,0,0-.175,1.54106l-.01485,1.55248c.01029.51779.09567,1.03484.13848,1.553.11578,1.03917.34783,2.06567.55508,3.14662.10689.51847.16315,1.17183.23216,1.688a12.30769,12.30769,0,0,0,.2242,1.51716,56.7668,56.7668,0,0,0,1.72384,6.17325c.67134,2.04623,1.39051,4.081,2.13167,6.10908C284.0618,332.35634,285.64049,336.38187,287.18152,340.4261Z" fill="#020202"/><polygon points="319.961 314.966 326.717 309.28 327.666 310.651 319.961 314.966" fill="#020202"/><path d="M258.24858,400.22766a10.05128,10.05128,0,0,1,.48234,2.4451,16.06267,16.06267,0,0,1,.01041,2.4118,15.78469,15.78469,0,0,1-.34678,2.38659,9.91857,9.91857,0,0,1-.82327,2.353,9.92371,9.92371,0,0,1-.48455-2.44526,15.76807,15.76807,0,0,1-.00819-2.41164,16.04568,16.04568,0,0,1,.34912-2.38643A10.04018,10.04018,0,0,1,258.24858,400.22766Z" fill="#020202"/><path d="M285.74821,398.29551a11.2866,11.2866,0,0,1,.59005,2.58106,18.24519,18.24519,0,0,1,.11719,2.56945,17.91493,17.91493,0,0,1-.24081,2.56067,11.14294,11.14294,0,0,1-.71824,2.54894,11.14865,11.14865,0,0,1-.59239-2.58111,17.91313,17.91313,0,0,1-.11485-2.56939,18.22561,18.22561,0,0,1,.243-2.56061A11.28651,11.28651,0,0,1,285.74821,398.29551Z" fill="#020202"/><path d="M288.66466,422.42425c1.36057-7.023-2.67318-17.08321-2.67318-17.08321-11.69855,19.124-27.97693-.4407-27.97693-.4407-3.7079,6.30436-9.47566,10.01226-15.349,12.41714a5.63876,5.63876,0,0,1,2.01214.30661,7.51945,7.51945,0,0,1,1.8395.87191,6.02654,6.02654,0,0,1,1.54267,1.37963,3.547,3.547,0,0,1,.81426,1.92583,18.736,18.736,0,0,0-1.52337-1.19765c-.49812-.36409-1.02513-.68022-1.54255-1.02519a26.46616,26.46616,0,0,1-3.14265-2.26114h-.00959c-1.28384.52695-2.57727.98689-3.84205,1.39887a4.11134,4.11134,0,0,1,2.06009.42157,5.683,5.683,0,0,1,1.73412,1.236,5.20123,5.20123,0,0,1,1.50419,3.86124c-.46946-.54614-.824-1.07309-1.22641-1.56174-.38315-.50783-.80479-.94852-1.21683-1.39887a28.22665,28.22665,0,0,0-2.85516-2.55815h-.00959c-5.41326,1.7629-10.54887,2.654-13.84473,3.7079-7.66492,2.4336-21.19351,5.375-14.79325,14.06513,6.39056,8.69012,33.28493,2.48155,56.203-.00959,22.91817-2.50066,23.00437,1.62881,25.62959-2.21324C294.61452,430.41491,287.29462,429.44726,288.66466,422.42425Zm-20.02452.20123c-1.36057-4.714,9.07332-7.3775,10.42418-2.67318C280.42489,424.66621,269.991,427.3298,268.64014,422.62548Z" fill="#020202"/><path d="M336.72588,401.23829a8.8181,8.8181,0,0,1,1.51869,1.76493,13.87346,13.87346,0,0,1,1.08805,1.96051,13.639,13.639,0,0,1,.76187,2.10853,8.71188,8.71188,0,0,1,.32713,2.306,8.7071,8.7071,0,0,1-1.5208-1.764,13.62752,13.62752,0,0,1-1.086-1.96144,13.87321,13.87321,0,0,1-.75987-2.10948A8.81767,8.81767,0,0,1,336.72588,401.23829Z" fill="#020202"/><path d="M360.16907,386.73319a9.339,9.339,0,0,1,1.63155,1.75891,14.79807,14.79807,0,0,1,1.2104,1.97406,14.529,14.529,0,0,1,.89133,2.13689,9.21858,9.21858,0,0,1,.46607,2.35411,9.22743,9.22743,0,0,1-1.63366-1.75788,14.54164,14.54164,0,0,1-1.20829-1.97509,14.79757,14.79757,0,0,1-.88934-2.13792A9.33414,9.33414,0,0,1,360.16907,386.73319Z" fill="#020202"/><path d="M373.755,405.63805c-2.14617-6.82178-10.48173-13.73935-10.48173-13.73935-1.169,22.39116-24.81533,12.93457-24.81533,12.93457-.24912,7.31042-3.55457,13.31777-7.57861,18.23291a5.71831,5.71831,0,0,1,1.92582-.68023,7.18769,7.18769,0,0,1,2.03109-.115,5.99518,5.99518,0,0,1,2.01213.47906,3.50425,3.50425,0,0,1,1.62875,1.30308,17.28347,17.28347,0,0,0-1.90664-.32578c-.6035-.0862-1.22642-.10538-1.83951-.16287a25.88933,25.88933,0,0,1-3.85164-.49823c-.88151,1.07308-1.79179,2.09827-2.71154,3.066a4.15747,4.15747,0,0,1,2.01213-.61321,5.6801,5.6801,0,0,1,2.1174.2683,5.20117,5.20117,0,0,1,3.16183,2.67312c-.67075-.25871-1.2456-.55572-1.83-.78566a18.25507,18.25507,0,0,0-1.73413-.65151,28.77823,28.77823,0,0,0-3.7272-.891c-3.92825,4.12947-8.01931,7.35832-10.42419,9.859-5.56671,5.79664-16.058,14.82207-6.29488,19.41143,9.75355,4.59894,30.44894-13.66274,49.41008-26.77935s21.00182-9.5332,21.47129-14.16091C382.80911,409.8346,375.90113,412.46942,373.755,405.63805Zm-17.50479,9.7249c-3.43972-3.49715,4.46474-10.80758,7.89487-7.32C367.58475,411.54007,359.68977,418.8505,356.25017,415.363Z" fill="#020202"/><path d="M327.19536,309.89835c6.80272.187,13.60087.45111,20.39821.727l20.38592.92887,20.37516,1.10625q10.189.53048,20.36826,1.21931l-1.15426,1.08642c.04258-7.98139.223-15.96277.33848-23.94417l.01053-.72807.71484-.02159a87.05713,87.05713,0,0,0,20.34265-2.81543l4.92309-1.52425,4.77163-1.94888a66.34489,66.34489,0,0,0,9.02432-4.95262c.71555-.47378,1.47331-.88562,2.15412-1.40981l2.05588-1.552,2.05553-1.551,1.93085-1.704a46.12308,46.12308,0,0,0,3.72276-3.552l1.7719-1.86615.88537-.93229.81636-.995c1.07262-1.339,2.20816-2.62574,3.22721-4.00371l2.97283-4.19546,2.69949-4.37548c.90186-1.45565,1.64325-3.00788,2.47236-4.505a127.30244,127.30244,0,0,0,12.7348-38.8843,145.40509,145.40509,0,0,0,1.73156-20.44946l.07415-20.71033,1.22419,1.2827c-6.32365-.2759-12.71211-.30847-19.08851-.30107-6.38026.01231-12.76427.11043-19.14933.20792l-38.327.59888-.01053-.24988c6.37512-.4616,12.75433-.84078,19.13448-1.22l19.15085-.95837q9.58039-.39869,19.17284-.62625c6.39839-.13912,12.79269-.26675,19.237-.01687l1.21928.04725.00515,1.23565c.02819,6.92.09357,13.80008.02421,20.75279a134.96845,134.96845,0,0,1-1.93424,20.81267,131.77914,131.77914,0,0,1-5.11467,20.26317c-1.13472,3.29753-2.42862,6.53632-3.84907,9.71774-.35111.797-.68209,1.60246-1.04958,2.39189l-1.163,2.34132c-.78245,1.55673-1.513,3.13912-2.42394,4.629a83.8809,83.8809,0,0,1-27.91647,30.47381,76.67892,76.67892,0,0,1-9.15625,4.95693l-4.811,2.00388-4.95549,1.616a94.60088,94.60088,0,0,1-20.53633,3.46712l.72514-.74947c.11544,7.9814.2959,15.96278.33847,23.94417l.0062,1.1488-1.16068-.0622q-10.1881-.54584-20.36628-1.25225l-20.35948-1.36531-20.34873-1.54267c-6.78085-.548-13.561-1.10769-20.33633-1.74458Z" fill="#020202"/><path d="M244.07193,305.10541c-2.73785-.00826-5.47162-.08356-8.20678-.1378-2.73564-.04526-5.46788-.145-8.2013-.22781-5.4653-.1873-10.92733-.429-16.38819-.69176l-.98642-.04745-.00562-1.00658c-.0221-3.99069-.0731-7.98138-.06386-11.97207.00445-3.9907.04234-7.9814.15228-11.97209l.93566-.967-.33578.07209c10.85388-4.20873,22.13747-7.09561,32.90376-11.2809a43.05977,43.05977,0,0,0,14.52588-8.926,48.59566,48.59566,0,0,0,9.47379-14.04919l1.7029-3.93783.42971-.98189.372-1.0101.74385-2.01986c1.0194-2.68268,1.94781-5.39653,2.74581-8.15132a145.10238,145.10238,0,0,0,3.83492-16.75948q.73384-4.24063,1.20466-8.52456l1.02525-8.629c.70081-5.75085,1.36185-11.5058,2.14523-17.24807l.94736.83555-.17006.03459-.22046-1.52071c3.06756-.08427,6.13289-.20286,9.20174-.25892,3.069-.05581,6.13617-.1376,9.20678-.15859l.01415.2497c-3.05271.33313-6.10869.60546-9.163.90376-3.05423.298-6.11209.53356-9.16783.80341l-.22047-1.52074.16784-.04394,1.02583-.26854-.07836,1.10426c-.40982,5.78094-.94186,11.54926-1.43437,17.32166l-.76455,8.656c-.27274,2.90461-.63789,5.80948-1.09168,8.69745a119.40817,119.40817,0,0,1-4.03714,17.06529c-.86759,2.79453-1.86687,5.54543-2.95657,8.25817-.9994,2.74373-2.25517,5.40285-3.5086,8.05233a62.53859,62.53859,0,0,1-4.53784,7.5762,20.34243,20.34243,0,0,1-1.30711,1.78638l-1.4587,1.67586a19.10654,19.10654,0,0,1-1.49752,1.633l-1.63928,1.49743a37.83929,37.83929,0,0,1-7.239,5.02371c-1.27542.722-2.6388,1.26216-3.94147,1.92044-1.332.59194-2.69774,1.09817-4.04158,1.6561-5.43466,2.068-10.95763,3.82166-16.38527,5.83649-5.43455,1.99645-10.77471,4.21-16.075,6.49144l-.45637.19642.12023-.12425.93555-.96683c.10994,3.99069.14783,7.98139.15239,11.97209.00924,3.99069-.04187,7.98138-.064,11.97207l-.9918-1.05383c5.45244.39944,10.90371.81987,16.35159,1.29472,2.72335.24831,5.44764.47961,8.16866.76544,2.7216.27684,5.44437.53263,8.16316.85543Z" fill="#020202"/><path d="M408.82384,314.97088c.04386,5.83957.00316,11.67681-.01356,17.51472.00128,5.83841-.0848,11.6744-.15521,17.51082l-.212,17.50926-.32222,17.50623c-.26233,11.6695-.50736,23.33949-.87613,35.00606-.36105,11.66679-.90116,23.32865-1.4084,34.99141l-.04889,1.12343-1.08478-.12062L380.41008,453.311q-12.15089-1.30284-24.31663-2.44966L331.75214,448.673l-24.36107-1.98111q-24.36879-1.90073-48.713-4.05891l-48.68249-4.37951-1.61846-.1456.00994-1.63877c.06737-11.12449.21321-22.24828.37345-33.372.14233-11.12383.40631-22.24659.6035-33.36993.18385-11.12347.47952-22.24595.76981-33.36847.13661-5.56133.28374-11.12258.47391-16.68344l.56514-16.68265.33345.00293.2711,16.69c.09217,5.56334.14129,11.12632.18,16.6892.09427,11.12591.19392,22.25187.18175,33.37685.00117,11.12509.06912,22.25077.01556,33.37538-.03591,11.12476-.086,22.24941-.21462,33.37336l-1.6084-1.78416,48.63606,4.86854q24.31284,2.48933,48.60554,5.18915l24.29815,2.64291,24.31791,2.43572q12.16511,1.153,24.34271,2.17436l24.36657,1.92279-1.13343,1.00264c.13555-11.673.23812-23.34691.51976-35.01588.27391-11.66919.6718-23.335,1.052-35.00123l.642-17.49741.752-17.49439c.251-5.83146.48619-11.66334.80887-17.49282.30456-5.83.58526-11.66061.95052-17.48891Z" fill="#020202"/><path d="M408.65712,314.96628V291.02193h.00009c37.34263-1.23061,60.24775-23.63144,72.6202-55.14978a134.25125,134.25125,0,0,0,9.0062-49.13727v254.227L404.80075,454.981Z" fill="#020202"/><path d="M328.27747,105.4218s6.89214,5.14041,14.82137-11.41037c0,0-9.02753,1.05624-10.97831,3.83234S327.13548,103.84617,328.27747,105.4218Z" fill="#020202"/><polygon points="333.699 211.454 341.05 212.104 333.699 212.754 333.699 211.454"/><polygon points="332.687 217.179 339.965 217.332 332.775 218.476 332.687 217.179"/><polygon points="331.218 223.39 337.375 223.533 331.325 224.686 331.218 223.39"/><path d="M380.48013,138.32886c3.34721.48885,6.66424,1.13849,9.97741,1.843,1.6553.36125,3.30581.74882,4.94169,1.21779a44.68139,44.68139,0,0,1,4.88613,1.60711,11.87241,11.87241,0,0,1,1.20923.54,6.83189,6.83189,0,0,1,1.20594.71285,4.91688,4.91688,0,0,1,.5807.46535l.45672.55791a8.80592,8.80592,0,0,1,.78139,1.111c.48619.7309.92127,1.47177,1.33331,2.218.42667.7444.825,1.4979,1.20829,2.25613,1.57214,3.02058,3.00686,6.09393,4.35725,9.20619a164.68308,164.68308,0,0,1,7.01488,19.09536A99.737,99.737,0,0,1,422.32775,199.16c.0379.85332.03193,1.71132.04947,2.56481.01544.85663.03614,1.70709.00211,2.54474-.03813,1.68325-.06409,3.36808-.06351,5.05411-.00889,3.373.07544,6.747-.109,10.15147a17.14694,17.14694,0,0,1-.96549,5.08,8.14183,8.14183,0,0,1-1.35694,2.29888c-.30338.33038-.64818.62684-.97928.931-.3745.24254-.7366.51359-1.12092.7392a15.33019,15.33019,0,0,1-4.98064,1.56164c-1.70617.27848-3.39679.383-5.08858.52649-6.76517.49464-13.52742.619-20.287.643-6.761.02994-13.511-.10479-20.27376-.27467l-1.301-.03269.0924-1.33282c.25555-3.6834.30666-7.43186.21473-11.11894a54.02274,54.02274,0,0,0-.43181-5.4728,15.1748,15.1748,0,0,0-1.343-4.90054l-.75555-1.40513,1.43063-.509c1.73272-.61645,3.45024-1.19217,5.19-1.74521,1.73927-.546,3.48112-1.08723,5.25033-1.55594,1.77308-.46026,3.54978-.90695,5.37864-1.23715.91964-.156,1.834-.31707,2.79634-.38771a10.06556,10.06556,0,0,1,3.07937.12114l-1.30091,1.34884-2.34722-8.94666c-.77836-2.98233-1.42876-5.9953-2.08372-9.00573-.6435-3.013-1.24981-6.03574-1.73635-9.08052-.48678-3.04347-.92116-6.10015-1.12244-9.17686l.24865-.02667c.47321,3.03338,1.08268,6.0389,1.772,9.02692.70807,2.98409,1.4332,5.96256,2.22266,8.92605.79719,2.96081,1.58992,5.92443,2.50816,8.84982l2.59727,8.81591.47052,1.59708-1.77155-.24807a8.49388,8.49388,0,0,0-2.32137.0193c-.84046.08521-1.70583.26339-2.56324.43541-1.722.36373-3.44312.85069-5.15607,1.35065-3.42429,1.01411-6.85044,2.15208-10.19776,3.3937l.67508-1.9139a16.24924,16.24924,0,0,1,1.7284,5.88241,56.62068,56.62068,0,0,1,.44514,5.76235q.0807,2.86518-.02445,5.71378c-.07017,1.9031-.1766,3.78416-.34128,5.69992l-1.20852-1.3653c6.72494.30461,13.46824.47719,20.2023.66338q5.0515.12294,10.1022.17213c3.365.03337,6.73394.06094,10.0891-.04982,1.67331-.0767,3.35949-.11766,4.99443-.32117a14.31451,14.31451,0,0,0,4.68789-1.26314,6.2858,6.2858,0,0,0,3.10218-3.43679,16.3616,16.3616,0,0,0,.9759-4.8114c.26116-3.33162.13169-6.71342.1021-10.08574-.07251-3.37448-.01637-6.7776-.32444-10.07243a101.74584,101.74584,0,0,0-4.736-19.48076c-2.109-6.3638-4.42567-12.66957-7.00739-18.8672-1.318-3.08452-2.6299-6.179-4.10626-9.17944-.35871-.75721-.72993-1.50466-1.12431-2.2345-.37555-.74625-.75952-1.47986-1.17952-2.17319a7.49629,7.49629,0,0,0-.62537-.98808l-.3173-.44295a3.20945,3.20945,0,0,0-.39251-.33584,5.36038,5.36038,0,0,0-.94315-.61037,10.52194,10.52194,0,0,0-1.07741-.53906,77.36608,77.36608,0,0,0-9.4656-3.239c-3.2313-.93987-6.50073-1.76752-9.77238-2.59239Z"/><path d="M236.03223,280.14147l21.33348,1.0921c-.37511.38351-.73363.75867-1.08381,1.13378l-20.29964-1.4172c-8.21169-.63359-16.43162-1.21717-24.64321-1.90078C219.57557,279.35782,227.79561,279.783,236.03223,280.14147Z" fill="#020202"/><path d="M408.65936,291.0208c-7.73644-.29176-15.46454-.67527-23.19253-1.017.34183-.24179.66687-.47519.96708-.7003C393.83676,289.87034,401.25651,290.4039,408.65936,291.0208Z" fill="#020202"/><path d="M332.93511,110.68562a1.363,1.363,0,0,0,0-2.72433,1.363,1.363,0,0,0,0,2.72433Z" fill="#b21919"/></svg>