<svg id="Layer_1" data-name="Layer 1" xmlns="http://www.w3.org/2000/svg" viewBox="0 0 700 550"><title>women cycling</title><path d="M288.99515,116.29391a18.00848,18.00848,0,0,0-2.53736,6.29736,18.53732,18.53732,0,0,0-.33484,3.36523,17.45092,17.45092,0,0,0,.30921,3.35572l-.08338-.17237a3.10054,3.10054,0,0,1,.51709,1.81763,4.27715,4.27715,0,0,1-.38012,1.76929,6.4558,6.4558,0,0,1-.98059,1.44787c-.33814.42823-.66639.86341-.9762,1.30713a12.8831,12.8831,0,0,0-.84436,1.35877,4.53546,4.53546,0,0,0-.29919.68725.82726.82726,0,0,0-.04639.44544,2.12713,2.12713,0,0,0,1.12329.61731,5.68348,5.68348,0,0,0,1.50317.15905.47314.47314,0,0,1,.48548.46021l-.00086.04248a7.54771,7.54771,0,0,0,.02783,1.30676,2.93739,2.93739,0,0,0,.12415.57935.73329.73329,0,0,0,.1272.22888l.32141.36108a11.10593,11.10593,0,0,0,.40918,1.4043,4.7116,4.7116,0,0,0,.28821.63928,1.59651,1.59651,0,0,0,.34826.46375l.01953.015a.21622.21622,0,0,1,.0365.03589,5.14629,5.14629,0,0,1,1.01758,3.56336,3.98719,3.98719,0,0,0-.02014.76721,1.41012,1.41012,0,0,0,.23157.61108,2.69361,2.69361,0,0,0,1.13391.89356,8.521,8.521,0,0,0,3.17663.594,18.44962,18.44962,0,0,0,3.34339-.2157,5.04635,5.04635,0,0,1,1.81177-.03051,7.24994,7.24994,0,0,1,1.67895.62695,8.10409,8.10409,0,0,1,2.697,2.235,11.85573,11.85573,0,0,1,2.24683,6.44165,12.13329,12.13329,0,0,0-2.58179-6.16479,8.08835,8.08835,0,0,0-2.61572-1.99609,6.73716,6.73716,0,0,0-1.536-.51722,4.38513,4.38513,0,0,0-1.589.09156,12.72985,12.72985,0,0,1-6.98181-.283,3.53675,3.53675,0,0,1-1.5166-1.19373,2.2921,2.2921,0,0,1-.377-.96838,4.72225,4.72225,0,0,1,.00257-.93836,4.32592,4.32592,0,0,0-.806-2.87646l.05578.05066a2.438,2.438,0,0,1-.6001-.74121,5.63093,5.63093,0,0,1-.35559-.76136,9.95412,9.95412,0,0,1-.46118-1.55358l.32117.36071a1.26105,1.26105,0,0,1-.72644-.82483,3.83272,3.83272,0,0,1-.16455-.78894,8.43944,8.43944,0,0,1-.01465-1.49182l.48462.50257a6.54148,6.54148,0,0,1-1.77967-.20813,2.81741,2.81741,0,0,1-1.6593-1.04847,1.47819,1.47819,0,0,1-.0238-1.162,5.36014,5.36014,0,0,1,.36816-.82691,13.67961,13.67961,0,0,1,.91907-1.444c.32788-.45813.67041-.90124,1.02185-1.33581a5.931,5.931,0,0,0,.89673-1.26953,3.49218,3.49218,0,0,0,.36243-1.4347,2.65488,2.65488,0,0,0-.28186-1.34631l-.04151-.06323a.27833.27833,0,0,1-.042-.10938,17.68867,17.68867,0,0,1,.28674-6.9331A17.15584,17.15584,0,0,1,288.99515,116.29391Z" fill="#020202"/><path d="M297.33438,171.828a13.00885,13.00885,0,0,0,.82629-5.296,5.60006,5.60006,0,0,0-.74548-2.425c-.41614-.67126-1.101-1.40246-1.609-2.19519a10.07488,10.07488,0,0,1-1.22754-2.60266,5.97969,5.97969,0,0,1-.09643-2.92224,7.48224,7.48224,0,0,1,.47082-1.34411,4.67611,4.67611,0,0,0,.2981-1.25965,8.40712,8.40712,0,0,0-.17285-2.69775,7.26086,7.26086,0,0,1,.647,2.71631,5.08275,5.08275,0,0,1-.17053,1.44189,7.9403,7.9403,0,0,0-.33081,1.28491,7.01775,7.01775,0,0,0,1.39294,4.85572c.46448.76562,1.06409,1.37353,1.59448,2.27429a5.96264,5.96264,0,0,1,.70069,2.83386A10.236,10.236,0,0,1,297.33438,171.828Z" fill="#020202"/><path d="M288.31351,115.47286c.08239.58777.7539.859,1.27429,1.1648a10.89475,10.89475,0,0,1,1.60168,1.02685,9.37176,9.37176,0,0,1,2.41455,2.94165,22.24336,22.24336,0,0,1,1.33667,3.56592,28.75549,28.75549,0,0,1,.94446,3.696,11.06791,11.06791,0,0,0,.3595,1.7616,4.06487,4.06487,0,0,0,.98681,1.3346,14.39689,14.39689,0,0,0,3.05677,1.92236l1.66748.84863,1.72143.79492a5.23786,5.23786,0,0,1,2.29212,3.68763,19.81106,19.81106,0,0,1,.17883,3.93689,15.06277,15.06277,0,0,1-.17248,1.97937c-.09742.661-.27454,1.32824-.3949,1.889a6.32023,6.32023,0,0,0-.1322,1.66016,14.93881,14.93881,0,0,0,.168,1.7699,8.13858,8.13858,0,0,0,1.20411,3.18249,7.88569,7.88569,0,0,0,5.814,3.38709,5.40919,5.40919,0,0,0,1.70313-.07471,14.94447,14.94447,0,0,0,1.69934-.65967,8.22938,8.22938,0,0,1,3.93188-.371,14.35712,14.35712,0,0,1,3.63452,1.27722,10.90058,10.90058,0,0,0,3.531.95655,7.92915,7.92915,0,0,0,3.57117-.5752c1.16565-.41687,2.31164-.93115,3.46069-1.43713,2.30041-1.01221,4.59448-2.05225,6.76062-3.26538a16.4791,16.4791,0,0,0,2.99841-2.07178,4.3756,4.3756,0,0,0,1.00794-1.306,1.38172,1.38172,0,0,0,.04284-1.21863,5.96,5.96,0,0,0-1.248-1.05151l-1.53931-1.0951q-1.53534-1.12261-3.02246-2.31286a45.03693,45.03693,0,0,1-5.72974-5.10938,32.35746,32.35746,0,0,1-2.37488-3.07959,16.54677,16.54677,0,0,1-1.85424-3.53064,13.09373,13.09373,0,0,1-.852-3.96862c-.04566-1.37134.02356-2.52039-.13135-3.69581l-.00623-.108a.35082.35082,0,0,0,.00147.06983l-.0055-.0398-.012-.088-.02832-.183-.064-.37085-.15406-.74622c-.11682-.49609-.24035-.99255-.39318-1.4801a20.171,20.171,0,0,0-1.09571-2.84888,12.97344,12.97344,0,0,0-3.56531-4.70251,16.4312,16.4312,0,0,0-5.351-2.77027,31.31866,31.31866,0,0,0-6.09607-1.27466,40.13134,40.13134,0,0,0-6.30578-.29321,35.00716,35.00716,0,0,0-6.28333.83692,28.50472,28.50472,0,0,0-6.03467,2.0194,15.38069,15.38069,0,0,0-2.7456,1.605,7.17465,7.17465,0,0,0-1.17175,1.05627A2.00574,2.00574,0,0,0,288.31351,115.47286Zm-.19226.023a2.18841,2.18841,0,0,1,.62561-1.521,7.40335,7.40335,0,0,1,1.19152-1.10827,19.29766,19.29766,0,0,1,2.74646-1.70593,35.48893,35.48893,0,0,1,6.01026-2.37952,37.34725,37.34725,0,0,1,12.89209-1.45032,28.84374,28.84374,0,0,1,6.50989,1.0586,17.23707,17.23707,0,0,1,6.04516,2.98181,14.58059,14.58059,0,0,1,4.19483,5.37793,22.22449,22.22449,0,0,1,1.20153,3.14233c.16577.53467.30042,1.078.42725,1.6239l.1687.82666.07166.42041.03234.21387.0149.111.00793.05957.01355.16944-.00622-.10767a37.58666,37.58666,0,0,1,.07727,3.842,11.131,11.131,0,0,0,.66882,3.39014,14.64808,14.64808,0,0,0,1.59094,3.16113,30.64337,30.64337,0,0,0,2.17615,2.93274,48.75342,48.75342,0,0,0,5.38855,5.06763q1.42437,1.21344,2.89587,2.36657l1.48389,1.16175a6.4517,6.4517,0,0,1,1.51831,1.48376,1.95482,1.95482,0,0,1,.2544,1.27222,2.93635,2.93635,0,0,1-.32093,1.12365,5.45986,5.45986,0,0,1-1.34839,1.60853,17.82522,17.82522,0,0,1-3.28552,2.07446c-2.27441,1.15478-4.6239,2.06787-6.92981,3.07226-1.16.48938-2.31885.9889-3.52868,1.401a9.1139,9.1139,0,0,1-3.822.57374,11.51261,11.51261,0,0,1-3.7279-.96253,13.56415,13.56415,0,0,0-3.493-1.11865,7.1157,7.1157,0,0,0-3.4834.493,14.693,14.693,0,0,1-1.77857.79,6.44677,6.44677,0,0,1-2.04235.20666,9.1904,9.1904,0,0,1-6.98-3.64489,9.05679,9.05679,0,0,1-1.593-3.75867,16.47957,16.47957,0,0,1-.24414-1.97778,7.641,7.641,0,0,1,.14746-2.09046c.14111-.66894.286-1.21972.369-1.80456a17.19973,17.19973,0,0,0,.15417-1.77686,18.39585,18.39585,0,0,0-.08472-3.59021,5.50615,5.50615,0,0,0-.47046-1.54736,2.962,2.962,0,0,0-.90942-1.09729c-.459-.24292-1.129-.55237-1.66162-.87341l-1.63464-.97583a15.30965,15.30965,0,0,1-3.15772-2.31629,4.98268,4.98268,0,0,1-1.11084-1.76587,11.26553,11.26553,0,0,1-.28015-1.95,28.08834,28.08834,0,0,0-.6886-3.66455,17.40369,17.40369,0,0,0-1.12219-3.5542,8.41278,8.41278,0,0,0-2.2522-2.91333,10.66223,10.66223,0,0,0-1.55957-1.02283,8.09028,8.09028,0,0,1-.81543-.499A1.22617,1.22617,0,0,1,288.12125,115.49581Z" fill="#020202"/><path d="M316.29532,204.98446a23.183,23.183,0,0,0,2.47094,3.32739,14.25955,14.25955,0,0,0,3.02955,2.59107,18.03224,18.03224,0,0,0,3.55395,1.75585,15.89674,15.89674,0,0,0,3.88709.995l.11328.01147a.36814.36814,0,0,1,.2539.14173,47.49079,47.49079,0,0,0,5.8407,6.23718l-.39441-.15405c2.17578-.33582,4.31043-.83069,6.4386-1.30042,2.12732-.48889,4.21338-1.12719,6.2992-1.76025,4.18981-1.22681,8.306-2.7146,12.53259-4.1626a.09774.09774,0,0,1,.08825.17224,45.84671,45.84671,0,0,1-12.0028,5.96948,47.76512,47.76512,0,0,1-6.56616,1.54139,37.61879,37.61879,0,0,1-6.7168.51794l-.07727-.00024a.4093.4093,0,0,1-.31751-.15393,47.48957,47.48957,0,0,0-5.83032-6.24683l.36682.153a13.513,13.513,0,0,1-4.41382-.39721,11.73445,11.73445,0,0,1-3.99817-1.95594,11.95986,11.95986,0,0,1-3.04528-3.219,12.53526,12.53526,0,0,1-1.69214-3.99133.0976.0976,0,0,1,.17566-.07813Z" fill="#020202"/><path d="M345.05154,149.40035a24.992,24.992,0,0,1,4.89307,3.42114,38.97472,38.97472,0,0,1,4.21863,4.16163c1.27905,1.50854,2.3905,3.16259,3.66528,4.66076a57.9134,57.9134,0,0,0,4.08069,4.2688c1.4331,1.36084,2.83057,2.7572,4.1311,4.23572,1.32227,1.4602,2.64453,2.92175,3.87329,4.46008a76.69116,76.69116,0,0,1,6.66968,9.77722.098.098,0,0,1-.152.11988,102.488,102.488,0,0,1-8.11206-8.58582c-1.26416-1.49841-2.45544-3.05676-3.66992-4.5968-1.22839-1.52832-2.39307-3.11084-3.53894-4.714a40.88875,40.88875,0,0,0-3.7467-4.54334c-1.36084-1.41564-2.92566-2.63879-4.36377-3.968-2.83741-2.702-5.39759-5.62891-8.05823-8.538l-.00562-.0061a.09759.09759,0,0,1,.11548-.1532Z" fill="#020202"/><path d="M354.2937,207.95965a99.03565,99.03565,0,0,1-12.27147,4.49492q3.99792-2.0205,8.02529-3.94437l3.10978-1.50376Z" fill="#fff"/><path d="M337.43167,220.15426a14.0356,14.0356,0,0,1,1.06189,3.75036,13.88164,13.88164,0,0,1,.106,3.89637,13.87577,13.87577,0,0,1-1.062-3.75037A14.03471,14.03471,0,0,1,337.43167,220.15426Z" fill="#020202"/><path d="M400.8559,237.41175a308.80979,308.80979,0,0,1-31.94615-18.58129c-15.48435,4.45184-32.63329,8.981-32.63329,8.981a8.13552,8.13552,0,0,1-6.3002,9.22289c-24.40718,5.36149-35.29461,10.61643-39.369,13.04554-1.29678.76458-2.613,1.5001-3.97752,2.15811-4.24854,2.05179-13.95525,8.92283-11.681,28.09444,2.1678,18.25228,9.2132,50.55638,12.61009,65.63434l.00969-.05812a106.31812,106.31812,0,0,0,15.80366-.08707,58.05926,58.05926,0,0,0,7.8583-.94851,42.88431,42.88431,0,0,0,7.568-2.28381,52.58615,52.58615,0,0,0,7.0744-3.4647c1.15165-.629,2.21624-1.38385,3.30983-2.10968,1.03546-.79364,2.11936-1.52915,3.09682-2.4a47.93142,47.93142,0,0,0,10.21-11.91333l.03869.01938L328.15684,285.3455c31.57839-1.99355,41.0916-6.34852,41.0916-6.34852C397.12026,271.90314,402.23981,253.37029,400.8559,237.41175Zm-67.90858,97.98687a38.75735,38.75735,0,0,1-3.19363,2.44849c-1.13228.71614-2.24524,1.46123-3.43558,2.07105a40.6882,40.6882,0,0,1-7.33573,3.17432,88.72257,88.72257,0,0,1-15.53272,3.53227,52.97169,52.97169,0,0,1-15.8811-.61927c1.142,5.03236,1.86779,8.12919,1.86779,8.12919,33.81394,9.85185,56.32426-23.004,56.32426-23.004l-3.21295-8.35176A37.31271,37.31271,0,0,1,332.94732,335.39862Zm-39.06893,17.207a1.45259,1.45259,0,0,1-.00969-2.90332A1.45259,1.45259,0,0,1,293.87839,352.60563Zm6.2712.78383a1.45258,1.45258,0,0,1-.00969-2.90331A1.45258,1.45258,0,0,1,300.14959,353.38946Zm6.85178-.26131a1.45259,1.45259,0,0,1-.00969-2.90332A1.45259,1.45259,0,0,1,307.00137,353.12815Zm7.31635-1.53873a1.45248,1.45248,0,0,1-.01932-2.90331A1.45248,1.45248,0,0,1,314.31772,351.58942Zm7.41316-2.59368a1.45258,1.45258,0,0,1-.00969-2.90331A1.45258,1.45258,0,0,1,321.73088,348.99574Zm7.64536-4.55816a1.45259,1.45259,0,0,1-.00968-2.90332A1.45259,1.45259,0,0,1,329.37624,344.43758Zm6.48408-5.13881a1.45259,1.45259,0,0,1-.00968-2.90332A1.45259,1.45259,0,0,1,335.86032,339.29877Zm5.89376-6.64859a1.45258,1.45258,0,0,1-.00969-2.90331A1.45258,1.45258,0,0,1,341.75408,332.65018Z" fill="#020202"/><path d="M289.39993,191.24129a82.46286,82.46286,0,0,1-5.22717,8.57691q-1.44672,2.05811-3.016,4.03345c-.51526.66369-1.06421,1.30334-1.59729,1.95263-.50122.645-1.0315,1.26-1.48767,1.94348a59.28613,59.28613,0,0,0-4.97473,8.5199c-1.45423,2.96387-2.72474,6.04517-3.899,9.10889l-.00855.02221a.84576.84576,0,0,1-.14172.23951l-4.49133,5.302-.4712.64612a5.679,5.679,0,0,1-.66931.78247,4.44761,4.44761,0,0,1-1.79187,1.04358,6.47964,6.47964,0,0,1-3.84033-.20606,8.96889,8.96889,0,0,0-3.20093-.6261,9.11549,9.11549,0,0,0-3.18518.69336,8.35684,8.35684,0,0,0-4.40613,4.719l-.0061.01635a.35389.35389,0,0,1-.18469.19788l-1.07.48535c-.34326.18591-.692.36511-1.02685.56555a12.86836,12.86836,0,0,0-1.88379,1.37525,9.291,9.291,0,0,0-1.53919,1.72583,5.944,5.944,0,0,0-.90136,2.04907l-.00147.00806a.336.336,0,0,1-.09314.17663c-.48645.488-.975.97376-1.41077,1.50159a11.785,11.785,0,0,0-1.1759,1.65674,5.461,5.461,0,0,0-.65869,1.83655,2.12325,2.12325,0,0,0,.37073,1.66491.41986.41986,0,0,1,.1112.25171l.00135.01672a1.21933,1.21933,0,0,0,.53857.98938,1.70084,1.70084,0,0,0,1.21582.012,9.85115,9.85115,0,0,0,2.624-1.43067l2.58155-1.857a12.64632,12.64632,0,0,1,2.90832-1.6117,5.237,5.237,0,0,1,3.53211.0636,13.80142,13.80142,0,0,1,2.977,1.51416c1.80481,1.21167,3.42981,2.5044,5.20862,3.45728a8.183,8.183,0,0,0,5.47485,1.13354,9.46927,9.46927,0,0,0,4.75793-3.07055c2.864-3.0459,5.67371-6.20911,8.5083-9.3263l8.49854-9.37915,8.55383-9.33508q8.55818-9.3327,17.28394-18.521a.09686.09686,0,0,1,.14538.12781q-7.98743,9.83917-16.25378,19.436c-5.50073,6.4071-11.02356,12.7948-16.69385,19.05761-2.83362,3.13794-5.67895,6.24475-8.6571,9.29273a11.28888,11.28888,0,0,1-5.80078,3.51538,4.15507,4.15507,0,0,1-.88587.1029,6.88971,6.88971,0,0,1-.89087.02564,8.97557,8.97557,0,0,1-1.736-.26966,12.06948,12.06948,0,0,1-3.13244-1.29431c-1.91687-1.104-3.56836-2.50549-5.23389-3.69079a13.109,13.109,0,0,0-2.60486-1.43811,3.85579,3.85579,0,0,0-2.66345-.18128,11.60575,11.60575,0,0,0-2.66907,1.34241c-.88025.555-1.75561,1.14514-2.63415,1.73193a10.6522,10.6522,0,0,1-2.976,1.45948,2.49006,2.49006,0,0,1-1.85779-.16016,1.99665,1.99665,0,0,1-.87951-1.69263l.11243.26807a2.87406,2.87406,0,0,1-.53638-2.29981,6.1313,6.1313,0,0,1,.77112-2.07714,12.41988,12.41988,0,0,1,1.27087-1.74048c.46326-.54456.97314-1.0376,1.481-1.53211l-.09436.18433a6.41394,6.41394,0,0,1,1.02942-2.29395,10.29869,10.29869,0,0,1,1.62121-1.84838,13.48555,13.48555,0,0,1,1.96-1.4618l1.058-.60681,1.09362-.53528-.19067.21387a9.46938,9.46938,0,0,1,4.65356-5.39038,9.14251,9.14251,0,0,1,7.17261-.43188,5.14345,5.14345,0,0,0,3.01624.05554,2.94186,2.94186,0,0,0,1.15539-.74988,4.17547,4.17547,0,0,0,.43506-.56067l.5304-.779c1.46118-1.8512,2.92871-3.61865,4.42029-5.40906l-.15015.26135a85.66092,85.66092,0,0,1,4.088-9.24121,55.477,55.477,0,0,1,5.29981-8.63354c.50305-.68384,1.0913-1.31128,1.64489-1.95874.554-.61634,1.12-1.21863,1.65723-1.85q1.63641-1.87,3.1554-3.84729c2.06469-2.60315,3.99169-5.32373,5.8142-8.11389a.09675.09675,0,0,1,.13318-.03174A.09978.09978,0,0,1,289.39993,191.24129Z" fill="#020202"/><path d="M240.07327,244.36764a7.56594,7.56594,0,0,1,1.97046-2.05384,7.47738,7.47738,0,0,1,2.54443-1.27539,7.48157,7.48157,0,0,1-1.97045,2.05384A7.56447,7.56447,0,0,1,240.07327,244.36764Z" fill="#020202"/><path d="M237.14261,251.52242a22.4964,22.4964,0,0,1,3.66675-4.15942,22.89084,22.89084,0,0,1,2.1737-1.73181,8.78453,8.78453,0,0,1,2.49036-1.28687c-.70874.61218-1.34827,1.24744-2.01465,1.87341-.655.63477-1.3291,1.24671-2.00195,1.86377A37.49745,37.49745,0,0,1,237.14261,251.52242Z" fill="#020202"/><path d="M246.665,237.89383a31.6691,31.6691,0,0,1,9.72822,1.49668,4.88142,4.88142,0,0,0,5.88231-2.22461c1.28231-2.33273,3.21934-6.07877,6.10941-12.08217" fill="none" stroke="#020202" stroke-linecap="round" stroke-linejoin="round" stroke-width="0.96777"/><path d="M343.51932,325.31283a63.29562,63.29562,0,0,0,5.18689-8.05725,82.403,82.403,0,0,0,3.98608-8.656q1.71954-4.4436,3.051-9.02588a94.837,94.837,0,0,0,2.19152-9.24451l.88819,1.05469-5.85144-.23742c-1.9563-.13355-3.8783-.11963-5.87549-.4231a25.82776,25.82776,0,0,1-2.93469-.59265,9.1564,9.1564,0,0,1-2.8053-1.19483,3.08,3.08,0,0,1-.615-.50036l-.27869-.29077c-.07886-.11194-.14636-.23572-.21741-.35291a2.0715,2.0715,0,0,1-.21142-1.5824,4.54929,4.54929,0,0,1,1.76843-2.36828,4.70838,4.70838,0,0,0-1.36877,2.44177,1.99487,1.99487,0,0,0,1.30871,2.02673,9.513,9.513,0,0,0,2.65369.81006,24.75466,24.75466,0,0,0,2.83215.33521c1.87866.15283,3.86389.04992,5.80054.06152l5.83667.0293a.90543.90543,0,0,1,.90076.90991,1.05167,1.05167,0,0,1-.01245.145,75.1155,75.1155,0,0,1-2.17579,9.507,77.12736,77.12736,0,0,1-3.32641,9.14111,60.45379,60.45379,0,0,1-4.59729,8.57129l-1.37915,2.00317c-.459.66626-1.0044,1.274-1.50061,1.91114A39.7959,39.7959,0,0,1,343.51932,325.31283Z" fill="#020202"/><path d="M344.91385,332.27486a6.058,6.058,0,0,0,.63672-1.2185l.03723-.05042.01574-.03222a.19935.19935,0,0,1,.37842.09423l-.00354.098a61.38307,61.38307,0,0,1-.66577,6.70715c-.35388,2.21484-.78931,4.41748-1.34009,6.59741a49.94214,49.94214,0,0,1-2.0531,6.44385,24.60235,24.60235,0,0,1-1.46154,3.08545,7.52725,7.52725,0,0,1-2.19446,2.6239,10.10434,10.10434,0,0,0,1.363-2.99329c.34424-1.0426.61658-2.11218.90271-3.17675l1.58106-6.443,1.598-6.46838c.57446-2.15173,1.15564-4.30737,1.83423-6.44971l.37488.19226-.02246.02564.037-.05017A4.76531,4.76531,0,0,1,344.91385,332.27486Z" fill="#020202"/><path d="M378.23062,275.94405a11.01778,11.01778,0,0,1,3.82483,2.44544,5.22194,5.22194,0,0,1,1.28772,2.026,4.02637,4.02637,0,0,1-.04138,2.50793,8.28277,8.28277,0,0,1-3.00843,3.68006,25.147,25.147,0,0,1-3.93286,2.3728.6.6,0,0,1-.12768.04785l-.03931.0094c-1.5437.37476-3.08777.68787-4.64258.9917-1.5542.30237-3.11657.57422-4.70739.75879l.73547-.66016c-.76148,3.25464-1.65125,6.47937-2.52686,9.7074l-.14257-.54871c4.71984,5.67371,9.60339,11.19886,14.74438,16.48987,5.1283,5.30249,10.26978,10.59314,15.26,16.02112q7.58277,8.05353,14.84265,16.40063c4.84766,5.55762,9.65491,11.152,14.2832,16.90894a.097.097,0,0,1-.14331.13025c-5.28991-5.15564-10.401-10.47388-15.47168-15.82886q-7.62066-8.0191-14.91235-16.33716c-4.9281-5.48449-9.705-11.10656-14.49487-16.71655-4.77735-5.62158-9.81214-11.009-15.01062-16.24792a.55878.55878,0,0,1-.15259-.49854l.00989-.05054c.64489-3.28186,1.27551-6.567,2.03442-9.82226a.86277.86277,0,0,1,.72351-.65894l.01233-.00134c3.062-.40967,6.15784-.97339,9.21655-1.58118l-.16662.057a26.63349,26.63349,0,0,0,3.792-2.07129,7.43421,7.43421,0,0,0,2.78247-2.93994,3.51881,3.51881,0,0,0-.73926-3.67542,11.92223,11.92223,0,0,0-3.3678-2.73962l-.00561-.00317a.09676.09676,0,0,1,.08435-.17359Z" fill="#020202"/><path d="M346.81851,356.58993l3.83191-12.45887,3.86719-12.44335,3.8623-12.43787c1.26062-4.13562,2.59473-8.31738,3.587-12.43726l.00427-.01782a.91881.91881,0,0,1,1.57263-.40344l14.38062,15.796q7.16639,7.91967,14.27087,15.89538,7.10413,7.97627,14.13587,16.01807l6.9956,8.07471c2.32776,2.69519,4.65369,5.39209,6.94715,8.11853-2.49073-2.54749-4.949-5.12439-7.40528-7.703l-7.357-7.74683q-7.33082-7.77045-14.5691-15.62488-7.25409-7.84022-14.43408-15.74744l-14.32446-15.847,1.57678-.42127c-1.1112,4.31031-2.49072,8.3899-3.83008,12.54053q-2.06487,6.1875-4.20507,12.34277c-1.43812,4.10071-2.88013,8.19935-4.38,12.27808C349.8544,348.44637,348.3754,352.5317,346.81851,356.58993Z" fill="#020202"/><path d="M340.88394,356.83956a20.06973,20.06973,0,0,1,2.93872-.38184,22.33237,22.33237,0,0,1,2.97717.113,18.96179,18.96179,0,0,1,5.79712,1.50549,21.6105,21.6105,0,0,1,2.68445,1.39795,22.72759,22.72759,0,0,1,2.4281,1.82373,20.25132,20.25132,0,0,1,6.34912,10.25477,20.11256,20.11256,0,0,1,.61719,6.10656,19.26653,19.26653,0,0,1-1.22571,6.03015,19.87,19.87,0,0,1-2.95691,5.40589,20.43959,20.43959,0,0,1-22.05371,7.225,20.12486,20.12486,0,0,1-9.95056-6.69763,19.66007,19.66007,0,0,1-4.26684-10.97839,20.07385,20.07385,0,0,0,14.62133,16.2207,19.67235,19.67235,0,0,0,11.13745-.45227,19.04735,19.04735,0,0,0,8.97608-6.49292,19.2913,19.2913,0,0,0,1.40735-21.22156,18.60855,18.60855,0,0,0-3.503-4.46508,21.51486,21.51486,0,0,0-2.19422-1.83875,22.36278,22.36278,0,0,0-2.47168-1.4646,18.23616,18.23616,0,0,0-5.467-1.85388A20.68736,20.68736,0,0,0,340.88394,356.83956Z" fill="#020202"/><ellipse cx="434.31414" cy="376.50478" rx="14.9811" ry="15.56177" transform="translate(-1.61619 1.87247) rotate(-0.24656)" fill="#020202"/><path d="M363.71841,378.4742c9.21643-1.38659,18.47242-2.18823,27.738-2.84655,4.63513-.29676,9.27173-.56922,13.916-.72925q6.96367-.28107,13.95275-.18726-6.91278,1.03346-13.8507,1.69422c-4.62354.46716-9.25464.82177-13.88745,1.15222C382.31717,378.15365,373.03763,378.60628,363.71841,378.4742Z" fill="#020202"/><path d="M360.65665,387.20992c9.791-1.83569,19.64587-3.08862,29.51611-4.19873,4.93872-.5227,9.88013-1.02136,14.83374-1.408q7.42584-.62073,14.89258-.8678-7.344,1.37019-14.72852,2.36927c-4.92016.6925-9.85254,1.27307-14.7876,1.82947C380.50589,385.98214,370.61307,386.88741,360.65665,387.20992Z" fill="#020202"/><path d="M325.68973,384.25057c-1.34034,1.11377-2.75086,2.10144-4.1709,3.07166q-2.14654,1.42584-4.35852,2.73425c-1.47937.86365-2.97168,1.7041-4.48841,2.50049q-2.274,1.1966-4.615,2.27282l-.10058.04615a.62341.62341,0,0,1-.82666-.3064l-.02588-.066c-.56006-1.71-1.09546-3.43042-1.48816-5.21179,1.01514,1.51562,1.88745,3.09216,2.73511,4.67932l-.95276-.32629q2.14893-1.42164,4.36609-2.72046c1.47693-.86817,2.97839-1.69214,4.49267-2.49292q2.2815-1.18341,4.62268-2.25916C322.453,385.47811,324.03641,384.80135,325.68973,384.25057Z" fill="#020202"/><path d="M349.1295,395.63785l9.79265,20.90909-6.49537,1.88609,1.67811,6.03173,20.40787-1.24916-.03-6.96789-9.52678-.88808-9.15722-22.95506Z" fill="#020202"/><path d="M310.198,355.05013a13.88014,13.88014,0,0,1-1.00513,10.6615,16.16907,16.16907,0,0,1-3.47852,4.33606,22.49975,22.49975,0,0,1-4.5924,3.11914l.41821-.78174a2.2888,2.2888,0,0,0,.25745.57239,2.83357,2.83357,0,0,0,.46179.55493,3.90382,3.90382,0,0,0,1.3175.771,8.58445,8.58445,0,0,0,3.35376.364,20.96215,20.96215,0,0,0,3.53638-.574,34.44684,34.44684,0,0,0,3.50513-1.02674c2.31665-.79956,4.58288-1.78173,6.83032-2.81189,2.24548-1.04138,4.4613-2.15881,6.59839-3.37451a39.07458,39.07458,0,0,0,6.06079-4.10608c1.81164-1.54406,3.53979-3.40344,3.98779-5.61194a4.525,4.525,0,0,0-.56274-3.21606,22.672,22.672,0,0,1-1.8739-3.28381,16.2179,16.2179,0,0,1-1.16675-3.62574,19.062,19.062,0,0,1-.25623-3.76208l.24695,1.85828a17.33887,17.33887,0,0,0,.40039,1.811,15.65461,15.65461,0,0,0,1.42444,3.39075,26.78455,26.78455,0,0,0,2.0968,3.06567,5.68635,5.68635,0,0,1,.93884,3.95728,8.48768,8.48768,0,0,1-1.56225,3.71386,18.35279,18.35279,0,0,1-2.60339,2.91578,39.935,39.935,0,0,1-6.2096,4.4718c-2.18018,1.30444-4.43262,2.43835-6.70788,3.52673a62.30349,62.30349,0,0,1-7.03577,2.87341,27.49219,27.49219,0,0,1-7.56445,1.577,10.226,10.226,0,0,1-4.032-.57251,4.47065,4.47065,0,0,1-2.9563-3.26318.70345.70345,0,0,1,.38916-.76831l.02906-.01368a18.30286,18.30286,0,0,0,7.91394-6.57031,13.412,13.412,0,0,0,1.89184-4.864A14.30894,14.30894,0,0,0,310.198,355.05013Z" fill="#020202"/><path d="M301.28687,371.54958s-29.33888,14.00853-23.49532,19.625,15.90341,6.92919,37.35392-6.70983c0,0,10.8848-8.37744,13.21931-5.69655s1.36655,4.35386,1.36655,4.35386,17.30374-1.23259,14.74063-9.621c0,0-2.4429-17.20739-6.48144-18.30828,0,0,3.14192,5.97965-14.57417,14.84332S302.72051,374.854,301.28687,371.54958Z" fill="#020202"/><path d="M477.00833,296.94356l-21.21765.24353-21.44568.16114c-7.1626.07312-14.36755.082-21.57544.06775l-21.6272-.02893a.94027.94027,0,0,1-.93908-.94153V296.437l.01147-5.80664a.96306.96306,0,0,1,.965-.9613l.00732.00012,21.46472.20544,21.46436.23353,21.46362.37463c7.15466.12121,14.30859.33911,21.46289.50574l.00635.00012a.14463.14463,0,0,1,.14111.14795v.0011Zm0,0-.11462-5.80761.14721.14892c-7.15576.08313-14.31176.21765-21.46728.25525l-21.46656.12427-21.46569-.017-21.46558-.045.97217-.96094-.05579,5.80652-.93884-.94983,21.303.22156c7.10217.06921,14.20727.16162,21.35473.31811l21.48462.41162Z" fill="#020202"/><path d="M400.21683,296.49557c2.33654,5.51562,4.57409,11.06945,6.79663,16.62915,2.22461,5.55871,4.368,11.1488,6.556,16.72168,2.115,5.60107,4.2688,11.187,6.34717,16.80212,2.07751,5.61548,4.14086,11.23633,6.10339,16.896-2.33789-5.51526-4.57507-11.06922-6.7981-16.62854-2.22229-5.55982-4.36889-11.14856-6.55456-16.72242-2.11255-5.60192-4.26966-11.18676-6.34558-16.80273C404.2438,307.7756,402.18082,302.15462,400.21683,296.49557Z" fill="#020202"/><path d="M463.1022,297.00338c-1.58935,5.56128-3.27954,11.08984-4.98511,16.6134-1.70336,5.52442-3.48962,11.02185-5.23034,16.53418-1.81519,5.48816-3.5907,10.98914-5.44336,16.46521-1.85339,5.47571-3.72119,10.9469-5.69177,16.38477,1.58789-5.56165,3.27856-11.09009,4.98352-16.61389,1.70593-5.52356,3.48877-11.02222,5.23193-16.5337,1.81775-5.4873,3.59-10.98938,5.445-16.4646C459.26492,307.9128,461.13309,302.44173,463.1022,297.00338Z" fill="#020202"/><path d="M446.13968,366.96c4.16919-1.02453,8.35888-1.94482,12.55163-2.84948,4.19239-.90674,8.40161-1.72815,12.60157-2.59656,4.21508-.79138,8.422-1.6239,12.64465-2.37683,4.2229-.75208,8.44861-1.48938,12.69519-2.12073-4.16882,1.026-8.35864,1.94592-12.55127,2.85107-4.19287.9043-8.40137,1.72913-12.60181,2.595-4.21557.78894-8.422,1.62475-12.64514,2.37512C454.61185,365.59029,450.386,366.32723,446.13968,366.96Z" fill="#020202"/><circle cx="205.61689" cy="371.69227" r="13.07492" fill="#020202"/><path d="M239.42349,252.94405a6.34266,6.34266,0,0,0-.46094,3.97632,3.62166,3.62166,0,0,0,2.70581,2.5603,4.38322,4.38322,0,0,0,1.92249.01368,5.91969,5.91969,0,0,0,1.8064-.76661,13.87919,13.87919,0,0,1,3.98828-1.45044,8.56867,8.56867,0,0,1,2.17346-.129,7.16418,7.16418,0,0,1,1.09582.15539,4.01511,4.01511,0,0,1,.53968.13867l.26721.08277.06677.02075.03333.0105c.17077.07959.06628.03344.11291.05652l.13123.08068a3.39795,3.39795,0,0,1,1.56506,3.18714,4.15629,4.15629,0,0,1-.30188,1.15307l-2.91516,7.72742q-5.86781,15.44037-12.14478,30.72107c-4.2008,10.17969-8.48852,20.32642-13.04638,30.35828q-3.40723,7.52838-7.077,14.93969c-1.25989,2.45276-2.515,4.90711-3.86487,7.31336a46.26282,46.26282,0,0,1-4.48254,6.94275,28.97745,28.97745,0,0,0,2.14307-3.51734c.6687-1.19824,1.27587-2.43261,1.885-3.6632,1.21582-2.46351,2.33728-4.9751,3.462-7.4823,2.24768-5.01709,4.40271-10.07666,6.55078-15.139q6.40229-15.206,12.64038-30.48682l12.53528-30.54028,3.13867-7.6344a2.90067,2.90067,0,0,0,.261-.82459,2.167,2.167,0,0,0-.04187-.80542,2.24648,2.24648,0,0,0-.912-1.32336l-.08618-.05835c.02808.01233-.093-.04846.0575.02393l-.02784-.00965-.05578-.01941-.22327-.078a3.16616,3.16616,0,0,0-.45422-.13538,6.10776,6.10776,0,0,0-.93933-.16992,8.09438,8.09438,0,0,0-1.9408.0365,13.05,13.05,0,0,0-3.8064,1.16748,5.42946,5.42946,0,0,1-4.18945.59632,4.01343,4.01343,0,0,1-2.85535-2.98645A6.4803,6.4803,0,0,1,239.42349,252.94405Z" fill="#020202"/><path d="M216.44083,364.35641c2.13012-3.86756,4.2246-7.74585,6.203-11.68543,2.0144-3.91894,3.96069-7.87024,5.87219-11.83569,1.87268-3.98438,3.75623-7.96155,5.51648-11.994l2.62793-6.05188,1.26721-3.04517c.2251-.51928.39136-.989.66467-1.5487l.39331-.81482.47828-.77051a10.94813,10.94813,0,0,1,5.68078-4.28516,11.45884,11.45884,0,0,1,3.56214-.53967,11.26232,11.26232,0,0,1,3.541.66846,14.59449,14.59449,0,0,1,3.06568,1.71252l2.73706,1.85877,5.46057,3.738q10.91893,7.47949,21.62988,15.272-11.33606-6.85145-22.46545-14.0138l-5.56324-3.58349-2.7749-1.80188a12.7448,12.7448,0,0,0-2.719-1.46082,9.99944,9.99944,0,0,0-2.937-.52136,9.58608,9.58608,0,0,0-2.94593.4679,9.056,9.056,0,0,0-4.66394,3.56433l-.3999.63134-.32825.67322c-.22021.42713-.4331.99561-.65,1.48657l-1.29578,3.05494c-.88647,2.02648-1.76758,4.05578-2.6997,6.06152-1.86548,4.01074-3.79444,7.99109-5.83545,11.91333A236.15632,236.15632,0,0,1,216.44083,364.35641Z" fill="#020202"/><path d="M255.43338,251.44369l.16186,2.26391-.08545-.136,1.92273.82055a10.73762,10.73762,0,0,1,1.92334.963A6.66469,6.66469,0,0,1,261.941,258.915a6.89618,6.89618,0,0,1-.20117,4.4989l-1.54444,3.881-3.167,7.72864a18.31022,18.31022,0,0,0-1.31348,3.75012,11.90813,11.90813,0,0,0-.11731,3.83252,11.70557,11.70557,0,0,0,3.376,6.78711,13.73881,13.73881,0,0,0,1.48328,1.255l1.69909,1.21374,3.38111,2.45215q6.75989,4.90778,13.32263,10.101-7.18268-4.29566-14.16406-8.88257l-3.4906-2.2937-1.73682-1.15918a15.5265,15.5265,0,0,1-1.74634-1.38488,13.26532,13.26532,0,0,1-4.03162-7.83008,12.94936,12.94936,0,0,1,.16041-4.47107,12.45641,12.45641,0,0,1,.64245-2.14844c.26611-.71631.55164-1.2981.82654-1.95386l3.41125-7.6239,1.74463-3.79529a5.86679,5.86679,0,0,0,.408-3.67859,6.14478,6.14478,0,0,0-1.965-3.26245,10.162,10.162,0,0,0-1.71106-1.07715l-1.83094-1.00891-.01538-.00842a.13616.13616,0,0,1-.07007-.12781Z" fill="#020202"/><path d="M282.94217,324.77621c-3.16394-1.95838-6.25781-4.01661-9.38831-6.02259q-4.65729-3.06354-9.28064-6.17566c-6.16845-4.14379-12.27319-8.37829-18.364-12.63256a.96444.96444,0,0,1-.3772-1.04187l1.61987-5.9242.00135-.00488a.94383.94383,0,0,1,1.15942-.6615.96791.96791,0,0,1,.27088.12256q8.19378,5.40618,16.27368,10.98572,4.04352,2.78448,8.05188,5.62219c2.6604,1.91,5.34448,3.78393,7.97485,5.7395-2.83948-1.63721-5.62524-3.35632-8.43481-5.03918q-4.20246-2.54242-8.35779-5.1565-8.3194-5.215-16.54578-10.57165l1.43152-.54371-1.58081,5.93482-.37708-1.0415c6.06849,4.286,12.12305,8.59179,18.114,12.98828q4.504,3.282,8.95825,6.63476C277.04068,320.2524,280.0264,322.46444,282.94217,324.77621Z" fill="#020202"/><path d="M272.43082,371.39474a76.44883,76.44883,0,0,1-4.81568,26.53918A73.66119,73.66119,0,0,1,253.7128,421.123a67.98546,67.98546,0,0,1-21.72449,16.40466,65.15531,65.15531,0,0,1-53.74719.85364,69.37467,69.37467,0,0,1-22.67639-15.82007,73.24182,73.24182,0,0,1-14.99317-23.31531,76.17552,76.17552,0,0,1,13.71106-78.7915,70.2525,70.2525,0,0,1,22.73706-16.67224,66.41654,66.41654,0,0,1,13.50623-4.4231,65.37207,65.37207,0,0,1,28.194.20215A65.10914,65.10914,0,0,1,232.0441,304.196a68.95806,68.95806,0,0,1,22.04358,16.87951,74.41315,74.41315,0,0,1,13.77294,23.63709,76.013,76.013,0,0,1,3.45313,13.16565A75.06213,75.06213,0,0,1,272.43082,371.39474Zm-.67737.00293a74.19825,74.19825,0,0,0-1.46814-13.32532,69.27869,69.27869,0,0,0-3.99036-12.74707,67.45513,67.45513,0,0,0-14.84827-21.7677,65.19232,65.19232,0,0,0-46.76684-18.86109,63.78607,63.78607,0,0,0-45.47058,20.3086,67.58023,67.58023,0,0,0-13.772,21.61963,70.5419,70.5419,0,0,0-.292,50.83154,68.58522,68.58522,0,0,0,13.62818,22.08948,65.22822,65.22822,0,0,0,21.037,15.27051,63.7725,63.7725,0,0,0,51.13758.40234,66.59142,66.59142,0,0,0,21.71972-15.06091,68.29182,68.29182,0,0,0,14.32715-22.46033,70.35683,70.35683,0,0,0,3.6377-12.92041A74.32658,74.32658,0,0,0,271.75345,371.39767Z" fill="#020202"/><path d="M499.35184,370.41817a76.45339,76.45339,0,0,1-4.81568,26.53919,73.66454,73.66454,0,0,1-13.90234,23.18909,67.98188,67.98188,0,0,1-21.72449,16.40466,65.1563,65.1563,0,0,1-53.74731.85376,69.381,69.381,0,0,1-22.6764-15.82007,73.24369,73.24369,0,0,1-14.993-23.31531,76.17553,76.17553,0,0,1,13.71106-78.7915,70.24937,70.24937,0,0,1,22.73706-16.67224,66.41446,66.41446,0,0,1,13.50623-4.42322,65.36958,65.36958,0,0,1,28.194.20227,65.102,65.102,0,0,1,13.32422,4.63477,68.95726,68.95726,0,0,1,22.04358,16.87951,74.41206,74.41206,0,0,1,13.773,23.63709,76.02137,76.02137,0,0,1,3.45312,13.16552A75.06227,75.06227,0,0,1,499.35184,370.41817Zm-.67749.00293a74.20648,74.20648,0,0,0-1.468-13.32519,69.287,69.287,0,0,0-3.99036-12.74719,67.45306,67.45306,0,0,0-14.84839-21.76758,65.19136,65.19136,0,0,0-46.76672-18.86109,63.78539,63.78539,0,0,0-45.4707,20.3086,67.584,67.584,0,0,0-13.772,21.6195,70.54148,70.54148,0,0,0-.29187,50.83167,68.58559,68.58559,0,0,0,13.62806,22.08935,65.22792,65.22792,0,0,0,21.0371,15.27051,63.77179,63.77179,0,0,0,51.13758.40247,66.58982,66.58982,0,0,0,21.71972-15.061,68.29177,68.29177,0,0,0,14.32715-22.46032,70.361,70.361,0,0,0,3.6377-12.92041A74.33652,74.33652,0,0,0,498.67435,370.4211Z" fill="#020202"/><path d="M322.412,155.92782l1.3999,1.09106-.02637-.01684a18.65176,18.65176,0,0,1,5.64173,3.9436,16.12311,16.12311,0,0,1,2.08374,2.79468,15.441,15.441,0,0,1,1.36413,3.22143,18.13329,18.13329,0,0,1,.59107,6.94092,24.0988,24.0988,0,0,1-1.6554,6.7926l.00061-.47253a56.90631,56.90631,0,0,0,6.46582,10.39575,87.74291,87.74291,0,0,0,8.16638,9.183,154.74319,154.74319,0,0,0,19.05738,15.624,333.61449,333.61449,0,0,0,42.59643,25.12988q11.09546,5.52007,22.499,10.40308c7.61463,3.213,15.28028,6.30676,23.04,9.15539,1.92456.7218,3.90577,1.42285,5.793,2.18164a1.8004,1.8004,0,0,0,2.23462-.4436,5.29452,5.29452,0,0,0,.75562-2.65234,9.56582,9.56582,0,0,0-.28821-2.90149,11.07137,11.07137,0,0,0-.45654-1.39527l-.6272-1.41174-2.52271-5.6532-2.51159-5.65527a16.59157,16.59157,0,0,1-1.58033-6.28955,8.83411,8.83411,0,0,1,2.44043-6.18177,10.75808,10.75808,0,0,1,2.64661-2.037,12.79814,12.79814,0,0,1,3.09461-1.26026l.20471,1.73133a112.362,112.362,0,0,1-18.79834-1.63428,85.556,85.556,0,0,1-18.18238-5.14819l-2.18286-.9408c-.72094-.329-1.41259-.7251-2.12011-1.08472l-2.1106-1.10571-2.01575-1.28235c-.66723-.43493-1.34875-.84826-2.00329-1.30188l-1.87757-1.49c-1.27893-.99011-2.45556-1.99634-3.62451-3.00342-4.72827-4.00818-9.65246-7.83276-14.6084-11.60534-9.86926-7.60926-19.93408-14.979-29.995-22.3523L335.022,155.1921a.09673.09673,0,0,1-.02295-.135.09792.09792,0,0,1,.13294-.02429l15.532,10.4508,15.4021,10.64222q15.35523,10.71294,30.39441,21.8883c4.99145,3.75708,9.93286,7.58093,14.73718,11.62293,1.19739,1.02575,2.39551,2.04187,3.58948,2.955l1.79053,1.41455c.62756.4314,1.28393.82459,1.92395,1.23926l1.93444,1.22412,2.03821,1.05762c.6836.34448,1.34851.72473,2.04688,1.04028l2.11731.90357c11.33362,4.74963,23.8551,6.717,36.14868,6.92224a.87975.87975,0,0,1,.21484,1.72888l-.01.00244a10.76079,10.76079,0,0,0-4.91406,2.74207,7.18509,7.18509,0,0,0-2.066,5.03576,15.12926,15.12926,0,0,0,1.35864,5.6687l2.417,5.72742,2.40577,5.72962.59985,1.436a12.24984,12.24984,0,0,1,.47278,1.56055,10.7,10.7,0,0,1,.249,3.25268,6.28307,6.28307,0,0,1-1.031,3.20313,2.46387,2.46387,0,0,1-1.6189.96716,3.69,3.69,0,0,1-1.76135-.235c-1.93494-.8191-3.83972-1.53394-5.7721-2.30115-7.69262-3.04541-15.38025-6.10925-22.96972-9.405-7.60779-3.2522-15.1604-6.63562-22.62732-10.20789-14.94788-7.087-29.63636-14.90246-43.22547-24.47107a147.07369,147.07369,0,0,1-19.15661-15.93029c-5.87037-5.87793-11.15223-12.53614-14.57776-20.20337a.5767.5767,0,0,1-.00318-.46448l.00367-.00855a23.13135,23.13135,0,0,0,1.71-6.42211,18.16387,18.16387,0,0,0-.36719-6.62818,14.70939,14.70939,0,0,0-1.19055-3.10876,15.5264,15.5264,0,0,0-1.90406-2.7472,19.13771,19.13771,0,0,0-5.35876-4.06616l-.00623-.00329-.02038-.0138-1.34839-1.15405a.0968.0968,0,0,1,.12244-.1499Z" fill="#020202"/><path d="M290.20664,133.27745a1.45253,1.45253,0,0,0,0-2.90332,1.45253,1.45253,0,0,0,0,2.90332Z" fill="#020202"/><path d="M285.63806,138.17867a.72626.72626,0,0,0,0-1.45166.72626.72626,0,0,0,0,1.45166Z" fill="#020202"/><path d="M287.26578,129.05379a3.35982,3.35982,0,0,1,1.18835-.74524,4.563,4.563,0,0,1,1.36609-.30456,3.89488,3.89488,0,0,1,1.41943.1853,2.32417,2.32417,0,0,1,1.1615.84241c-.48633-.0575-.89282-.08728-1.30261-.10059-.41089.00415-.81348.01087-1.22351.03858A24.771,24.771,0,0,1,287.26578,129.05379Z" fill="#020202"/><path d="M287.80472,143.299c.52588-.19336,1.00146-.37878,1.47107-.57019.464-.20044.92212-.38611,1.3623-.61511.444-.21826.88635-.44543,1.328-.69665.45-.24219.88684-.51514,1.40174-.755a4.78642,4.78642,0,0,1-2.30567,2.3208,5.12938,5.12938,0,0,1-1.60119.47522A3.39428,3.39428,0,0,1,287.80472,143.299Z" fill="#020202"/><path d="M428.242,184.806c22.29285-1.53259,44.60584-2.47949,66.92383-3.28271,11.16016-.36914,22.32117-.714,33.48608-.94617q16.74573-.38946,33.50477-.40332-16.71992,1.14294-33.45264,1.91284c-11.15418.5398-22.31238.96692-33.47131,1.36987C472.9125,184.19735,450.58743,184.79452,428.242,184.806Z" fill="#020202"/><path d="M490.60293,201.65853c9.18531-1.031,18.38782-1.476,27.59461-1.77747,4.60425-.11828,9.20935-.21215,13.81763-.19348q6.91131-.013,13.83361.34949-6.88916.76685-13.7893,1.16028c-4.59925.28894-9.20191.46521-13.80518.61731C509.04568,202.05355,499.83292,202.149,490.60293,201.65853Z" fill="#020202"/><path d="M455.963,159.65475c9.68714-.84961,19.37964-1.113,29.07337-1.23279,4.84716-.02747,9.69458-.03052,14.543.0791q7.2724.12323,14.548.62231-7.26526.63062-14.53418.88794c-4.84558.19825-9.69226.28369-14.53906.34485C475.35977,160.41354,465.66409,160.32723,455.963,159.65475Z" fill="#020202"/><path d="M287.55887,345.9861c.00969.00969.00969.00969.00969.01938h-.00969Z" fill="#fff"/><path d="M342.567,322.74021c-.00968.00969-.00968.02906-.01931.03875l-.01938-.05812Z" fill="#fff"/><path d="M453.27259,231.37015a1.45253,1.45253,0,0,0-.0125-2.90329,1.45253,1.45253,0,0,0,.0125,2.90329Z" fill="#020202"/><path d="M451.67623,238.22891a1.45253,1.45253,0,0,0-.01249-2.90329,1.45253,1.45253,0,0,0,.01249,2.90329Z" fill="#020202"/><path d="M453.79509,244.83941a1.45253,1.45253,0,0,0-.0125-2.90329,1.45253,1.45253,0,0,0,.0125,2.90329Z" fill="#020202"/><path d="M457.65991,252.37146a1.45252,1.45252,0,0,0-.01249-2.90328,1.45252,1.45252,0,0,0,.01249,2.90328Z" fill="#020202"/><path d="M459.08747,260.26241a1.45253,1.45253,0,0,0-.01249-2.90329,1.45253,1.45253,0,0,0,.01249,2.90329Z" fill="#020202"/><path d="M454.31618,260.83746a50.21013,50.21013,0,0,1-4.44352-8.2141,47.90567,47.90567,0,0,1-2.9472-8.92724,31.3354,31.3354,0,0,1-.62026-4.73227l-.02315-1.20585c.00181-.40262.05463-.8116.08054-1.21574a16.611,16.611,0,0,1,.33926-2.36775,19.33717,19.33717,0,0,1,1.44036-4.54929,7.69266,7.69266,0,0,1,1.35537-2.008,2.6816,2.6816,0,0,1,2.12885-.98521,2.62274,2.62274,0,0,0-1.71226,1.32365,7.63864,7.63864,0,0,0-.89077,2.02587,24.19994,24.19994,0,0,0-.8285,4.42072c-.0577.75562-.14706,1.51468-.13944,2.241-.00078.36764-.02994.73045-.00921,1.09966l.08842,1.11011a32.93918,32.93918,0,0,0,.68256,4.4395,83.76629,83.76629,0,0,0,2.46156,8.79559C452.24232,255.00072,453.27787,257.901,454.31618,260.83746Z" fill="#020202"/><path d="M329.39562,161.53843c-.43551-.44514-.85165-.85153-1.26778-1.22909A8.73717,8.73717,0,0,1,329.39562,161.53843Z" fill="#020202"/><path d="M329.95694,162.1095a11.94361,11.94361,0,0,1,2.99038,7.77123,14.84293,14.84293,0,0,0-3.48395-8.26481Q329.71012,161.84806,329.95694,162.1095Z" fill="#020202"/><path d="M331.29247,180.45841a29.90534,29.90534,0,0,0,1.65485-10.57768A22.502,22.502,0,0,1,331.29247,180.45841Z" fill="#020202"/><path d="M359.69654,212.24968c-1.5194-1.13233-2.96138-2.27424-4.33559-3.40657-.271-.22257-.55164-.44514-.813-.66783-.08706-.07726-.17419-.14507-.25163-.21288-15.165-12.75516-21.44579-24.33936-22.74263-26.95229-.17419-.35819-.26126-.5517-.26126-.5517-.53232,1.0839-1.12265,2.12905-1.684,3.19369l-1.771,3.14526c-1.18071,2.0903-2.42912,4.142-3.67752,6.19364-1.26778,2.04211-2.53562,4.084-3.87109,6.08733-1.31621,2.00335-2.66137,3.9969-4.084,5.94213a14.20986,14.20986,0,0,0,13.04555,9.11645,26.91013,26.91013,0,0,1,4.15178-.44526l2.042-.11612a5.9111,5.9111,0,0,0,1.98392-.37745,3.21383,3.21383,0,0,1-1.84842,1.12265,10.738,10.738,0,0,1-2.11942.3387,11.74706,11.74706,0,0,1-4.20984-.52252l5.83569,6.24208a.27027.27027,0,0,0,.05806-.00969c1.12259-.21288,19.249-3.67758,25.00725-7.77123C359.99655,212.48194,359.85136,212.3755,359.69654,212.24968Zm-36.35918-19.76194c1.26778-2.04186,2.53555-4.084,3.8614-6.08732l2.00329-2.99995c.69683-.97746,1.36459-1.97429,2.09042-2.94206.00963-.01937.00963-.02906.01932-.04844v-.01937c.00968-.00969.00968-.00969.00968-.01937q.05813-.18855.11613-.37733c.08713-.271.16456-.542.24194-.8227.14519-.4742.271-.9484.38714-1.4226.05806-.22257.10644-.43545.1645-.658.10644-.50326.21294-.99683.3-1.4904.04837-.25163.08712-.50326.12581-.75489a2.79939,2.79939,0,0,0,.05807-.3967,1.92923,1.92923,0,0,0,.03869-.23226c.01937-.16456.03874-.32913.05812-.50326.00963-.11625.029-.24194.03869-.35819.00969-.06769.00969-.1257.01937-.19351.029-.271.04838-.53232.05807-.79363.00962-.14508.01931-.29027.01931-.43545.01938-.31933.02906-.629.02906-.93872,0-.34838-.00968-.70645-.02906-1.05483a.26261.26261,0,0,0,0-.08707.12282.12282,0,0,0-.00969-.05812.33064.33064,0,0,0-.00962-.09676,1.42941,1.42941,0,0,0-.00969-.20331c-.00969-.19351-.02906-.37733-.04838-.571-.00968-.058-.00968-.11613-.01937-.17425-.01938-.17413-.04838-.34827-.07744-.52252,0-.01937-.00969-.03863-.00969-.058-.00968-.05813-.01931-.12594-.029-.18394s-.01937-.10644-.02906-.15488c0-.00968,0-.00968-.00969-.01937-.01931-.16445-.05806-.30964-.08706-.46451-.00969-.02906-.00969-.06769-.01938-.09676a2.57541,2.57541,0,0,0-.06775-.26131q-.10162-.43539-.23226-.842a3.67979,3.67979,0,0,0-.14513-.42576,2.40584,2.40584,0,0,0-.1065-.28069c-.029-.08719-.06775-.17414-.10644-.26132-.06775-.16445-.1355-.31932-.21288-.46451-.00969-.01938-.00969-.03875-.01937-.05813v-.00968a.13456.13456,0,0,1-.02906-.03863,1.0766,1.0766,0,0,0-.08707-.18394c-.02906-.06769-.06775-.1257-.09681-.18382a.20046.20046,0,0,0-.05807-.09687c-.03869-.07726-.08706-.15476-.12581-.23226-.06769-.116-.14513-.24194-.22257-.358a4.96093,4.96093,0,0,0-.35807-.52264.759.759,0,0,0-.11613-.14519l-.02906-.02894a.42581.42581,0,0,1-.03869-.06781.00949.00949,0,0,1-.00969-.00969.09652.09652,0,0,0-.03869-.04843c-.05806-.07738-.11612-.15476-.18388-.23226-.11612-.13538-.23225-.26132-.34838-.387q-.24684-.26138-.49357-.49358c-.00969-.01937-.00969-.02906-.01938-.02906-.01931-.01937-.029-.03875-.04837-.04843a.25908.25908,0,0,0-.06775-.07738l-.00969-.00969c-.10644-.10644-.2032-.19362-.3-.29026-.15482-.16468-.31932-.30975-.4742-.46463a3.59536,3.59536,0,0,1-.27094-.27089l-.02906-.02906c-.03869-.02906-.06776-.05812-.08713-.06781-.00963-.00968-.029-.01937-.03869-.02906a20.41735,20.41735,0,0,0-4.03559-2.99038c-.11613-.06769-.23226-.12581-.35807-.18394-4.99374-2.50638-8.36156-.02894-13.994.43557-7.66473.61939-21.19416,32.76873-21.19416,32.76873.26126.29038.52257.58076.78389.86133,7.65505,8.20681,17.54565,11.67127,22.93614,13.036a35.60131,35.60131,0,0,0,3.94852.79352c1.0839-2.14854,2.26462-4.24853,3.455-6.339C320.84049,196.59109,322.089,194.53953,323.33736,192.48774ZM305.84,190.73614a61.34707,61.34707,0,0,1,6.91959,4.34528,69.20356,69.20356,0,0,1-14.31332-7.83892A62.24344,62.24344,0,0,1,305.84,190.73614Zm-12.42615.09675a1.45258,1.45258,0,0,1-.00969-2.90331A1.45258,1.45258,0,0,1,293.41388,190.83289Zm5.826,3.91953a1.45234,1.45234,0,0,1-.00969-2.90332A1.45234,1.45234,0,0,1,299.23988,194.75242Zm6.97759,3.45489a1.45259,1.45259,0,0,1-.00968-2.90332A1.45259,1.45259,0,0,1,306.21747,198.20731Zm6.28083,2.52587a1.45259,1.45259,0,0,1-.00963-2.90332A1.45259,1.45259,0,0,1,312.4983,200.73318Z" fill="#020202"/><path d="M376.95,184.77282c-3.63991-2.64907-33.06471-23.52133-33.06471-23.52133a15.52216,15.52216,0,0,0,6.47565-6.98111C356.35621,160.263,359.91885,162.35685,376.95,184.77282Z" fill="#020202"/></svg>