<svg id="Layer_1" data-name="Layer 1" xmlns="http://www.w3.org/2000/svg" viewBox="0 0 700 550"><title>couple talking- looking at eachother</title><path d="M442.6954,140.16906c.029,3.32475-.10526,6.62073-.27765,9.92618-.15345,3.29586-.393,6.59172-.59415,9.87811-.12444,1.63846-.21076,3.2768-.28748,4.90555-.10526,1.63834-.07649,3.229-.04772,4.89607l.16281,9.91636a67.06734,67.06734,0,0,1-1.65753-9.83028,41.71916,41.71916,0,0,1-.2683-5.03011c.01919-1.66711.09568-3.32463.19158-4.98215.23953-3.315.55578-6.6109,1.02525-9.89729.45029-3.28639.98689-6.54389,1.75319-9.78244v-.00959c-2.79762-15.45429-5.806-22.36227-7.54984-25.1696-2.01213-3.23844-6.381-7.74153-10.39564-11.55481a63.20161,63.20161,0,0,1-8.69953,5.56659c-3.00862,1.6767-6.08413,3.20007-9.17883,4.67561-3.12346,1.43717-6.25652,2.836-9.4373,4.11035-3.1906,1.29331-6.40038,2.50055-9.69624,3.51621,2.97961-1.74384,6.017-3.33423,9.08292-4.86719,3.04674-1.55214,6.14167-3.02768,9.23636-4.49362,3.10406-1.43717,6.199-2.88394,9.32245-4.27316,3.12323-1.4084,6.24693-2.77856,9.37017-4.23479-4.36883-4.14872-8.31638-7.48294-8.31638-7.48294-3.545,4.84812-27.747,19.03775-27.747,19.03775s-15.15746,99.36613-18.712,129.91086c-3.545,30.535-2.25166,33.33288,1.93541,35.68022,2.15576,1.20723,6.50565-1.0442,12.168-2.62523-.5462-3.77492-.99625-10.06021-1.14011-12.20638a6.82057,6.82057,0,0,1,.048-1.466c4.072-27.37343,21.1838-65.18063,21.1838-65.18063,0-6.51512-1.05379-20.06289-1.25495-22.54437a29.6566,29.6566,0,0,1-2.93189-2.20372,81.98229,81.98229,0,0,0,9.7056,4.26369c1.64793.61309,3.30545,1.18805,4.992,1.69588l2.51973.76642,2.53891.66116c.84326.23953,1.70547.40234,2.55833.6131.86221.20116,1.71483.39286,2.57727.5366l2.58687.49824,2.61563.40233c1.73425.30666,3.48768.45029,5.25046.68022,1.75343.22047,3.526.28749,5.308.527-1.77261.19158-3.56416.37368-5.34636.412-1.6-.00959-3.20955.03824-4.79994-.0862.55555,2.04067,1.61916,8.65181-1.47553,23.86657-3.34382,16.47019-22.63081,46.69855-27.76617,54.55528a4.11089,4.11089,0,0,0-.3738,3.85141c1.12092,2.69236,2.73072,7.6268,1.21683,10.97038.2683.11509.527.23953.79531.36421,14.18974,6.83148,46.13317-9.73437,46.13317-9.73437C450.1498,200.837,446.643,161.995,442.6954,140.16906Zm-45.94159,6.79312c-.00959,2.28991-.02878,4.57023-.09568,6.86-.02877,2.28043-.15344,4.56063-.22993,6.84107-.13427,2.2802-.22994,4.56064-.40257,6.84084-.15322,2.28991-.34479,4.57023-.55555,6.85055l-.06713.78561-.68023-.14363a37.03713,37.03713,0,0,1-4.3307-1.17846,17.41184,17.41184,0,0,1-2.079-.83367,6.39147,6.39147,0,0,1-1.87787-1.21671,7.79429,7.79429,0,0,0,2.03108.824q1.04911.273,2.127.48865c1.18805.21076,2.39529.41193,3.58334.54608,0-2.05038.02877-4.09106.08632-6.14156.03836-2.28979.1628-4.5797.24912-6.86961.134-2.28991.22993-4.57982.40233-6.86014.14386-2.127.32584-4.2541.51742-6.38108-2.58687-.843-5.15478-1.71495-7.6937-2.70184,2.86476.45029,5.71033,1.03472,8.53673,1.63846l.47906.10526Zm27.613-28.92545a22.29232,22.29232,0,0,0-8.21111,2.606,17.59691,17.59691,0,0,0-6.09349,5.80612,23.22308,23.22308,0,0,0-1.96418,3.78463,29.24027,29.24027,0,0,0-1.26478,4.11983,39.33963,39.33963,0,0,0-.99624,8.623c-.01918,1.45635.03813,2.91271.15321,4.37853a37.87155,37.87155,0,0,1,.06713,4.54146,70.61476,70.61476,0,0,1-3.17141,17.61988c.49823-2.94148.94852-5.87337,1.21682-8.82432a80.23855,80.23855,0,0,0,.46947-8.82421c-.00959-1.46595-.11509-2.91271-.24912-4.35936-.16281-1.49471-.2683-3.0182-.28748-4.532a39.6808,39.6808,0,0,1,.92934-9.06374,25.69443,25.69443,0,0,1,3.58335-8.46971,18.478,18.478,0,0,1,6.908-6.12249,21.82773,21.82773,0,0,1,8.82444-2.21318,36.068,36.068,0,0,1,8.92947.81437A41.92483,41.92483,0,0,0,424.36676,118.03673Z"/><path d="M402.08613,278.56413a4.6755,4.6755,0,0,1-1.47787,2.47786,12.80058,12.80058,0,0,1-2.44792,1.56536,12.43972,12.43972,0,0,1-5.69373,1.24069,14.772,14.772,0,0,1-5.63243-1.31344c-.43415-.20046-.86853-.39648-1.28069-.633-.20818-.11509-.41333-.233-.61356-.35555l-.30245-.18128a.81317.81317,0,0,1-.40421-.52748,9.80372,9.80372,0,0,1-.15976-2.88254,22.21629,22.21629,0,0,0,.96771,2.53424c.04093.08187.11976.11579.00421.011l.32561.11158c.21637.07672.43344.14666.65028.21239.43228.13825.85964.27789,1.29215.39672a20.51672,20.51672,0,0,0,5.1915.83672,15.3977,15.3977,0,0,0,5.134-.742,20.74751,20.74751,0,0,0,2.46219-.98665A5.67212,5.67212,0,0,0,402.08613,278.56413Z"/><path d="M385.71255,281.01884a34.72048,34.72048,0,0,0,.13988,8.3,23.33651,23.33651,0,0,0,2.46523,7.91638,13.90447,13.90447,0,0,0,5.82776,5.78776,17.78637,17.78637,0,0,0,8.20433,1.77331,18.01237,18.01237,0,0,1-8.39941-1.37,14.57951,14.57951,0,0,1-6.406-5.73793,24.43614,24.43614,0,0,1-3.01774-8.14773,36.15024,36.15024,0,0,1-.59648-8.70935Z"/><path d="M393.53163,290.92373a24.13362,24.13362,0,0,0,4.16813,4.726,7.85222,7.85222,0,0,0,2.63716,1.45659,7.087,7.087,0,0,0,3.08837.05473,5.07288,5.07288,0,0,1-3.23668.62853,6.74456,6.74456,0,0,1-3.04931-1.44138,10.43069,10.43069,0,0,1-2.20488-2.47482A11.15373,11.15373,0,0,1,393.53163,290.92373Z"/><path d="M378.95405,279.61l1.24583,21.55806,1.10876,21.56416,1.974,43.13835.81917,21.57632.6938,21.58146c.23017,7.19382.44443,14.38834.73613,21.57959.27812,7.192.52467,14.38507.87016,21.57421l-.22409-.27064c3.26335.73168,6.55336,1.37963,9.84969,1.963,3.29633.5883,6.6081,1.09005,9.93109,1.47179a97.376,97.376,0,0,0,9.98583.70292,41.25693,41.25693,0,0,0,4.96064-.22549,13.20065,13.20065,0,0,0,4.62426-1.24584l.22011-.11789.24117.08632a25.83907,25.83907,0,0,0,4.0493,1.05589,26.68155,26.68155,0,0,0,4.17445.41262,20.36889,20.36889,0,0,0,4.14754-.3359,17.386,17.386,0,0,0,3.927-1.24l-.38877.59578.46409-45.87049.56654-45.86814.62642-45.86651.28421-22.93349c.08866-7.64481.1621-15.28915.15018-22.93513l.17917-.00351c.50175,15.28822.6304,30.58508.70456,45.87844.00444,15.2936.02619,30.58766-.128,45.87961-.1628,15.292-.27321,30.58438-.57426,45.874-.26432,15.29031-.53777,30.5797-.93542,45.86814l-.01146.43976-.37731.15626a18.67219,18.67219,0,0,1-4.26146,1.27694,21.616,21.616,0,0,1-4.40205.29029,27.85722,27.85722,0,0,1-4.35573-.49754,26.74569,26.74569,0,0,1-4.23409-1.17706l.461-.03134a14.09928,14.09928,0,0,1-5.043,1.30127,41.84125,41.84125,0,0,1-5.08507.15064,98.15649,98.15649,0,0,1-10.06279-.872c-3.33212-.44818-6.6474-.99133-9.95168-1.58922-3.30381-.60513-6.592-1.273-9.8684-2.02827l-.21637-.04983-.008-.221c-.25824-7.19265-.61589-14.38132-.9415-21.57116-.31228-7.19031-.702-14.37759-1.07555-21.56532l-1.11811-21.56369-.9925-21.56906-1.6498-43.15193-.70292-21.581-.56584-21.58684Z"/><path d="M433.30723,275.9223l.04,44.867c.07111,7.47452.0304,14.95114.22058,22.41209.11064,3.73562.218,7.44083.62923,11.11494a55.78416,55.78416,0,0,1,.10924,5.72179c-.01614,1.88559-.127,3.75153-.186,5.62846-.39812,7.48481-.94571,14.94787-1.54688,22.40578-.61215,7.45674-1.20746,14.91371-1.96184,22.35618l-2.25447,22.32531c-.84,7.43289-1.63179,14.87-2.56418,22.29257l1.68934-22.37373,1.75576-22.36321c1.13309-14.90693,2.39272-29.8162,3.094-44.72617.07182-1.85963.196-3.72744.2248-5.58051.0297-1.85331.09356-3.7258-.05708-5.48718-.39461-3.76322-.47625-7.54142-.55976-11.27961q-.1656-11.23879.03486-22.45443.19088-11.22055.48888-22.43525C432.72384,290.8704,432.94419,283.39448,433.30723,275.9223Z"/><path d="M395.37418,494.4323c-2.02173.2014-4.06241.49824-6.07454.82408-1.82033.30643-3.65024.65146-5.4708,1.00607a23.85656,23.85656,0,0,0,5.41349-.163h.02877c2.8264-.68981,5.65279-1.31249,8.52714-1.84909C396.99333,494.28868,396.18867,494.35581,395.37418,494.4323Zm0,0c-2.02173.2014-4.06241.49824-6.07454.82408-1.82033.30643-3.65024.65146-5.4708,1.00607a23.85656,23.85656,0,0,0,5.41349-.163h.02877c2.8264-.68981,5.65279-1.31249,8.52714-1.84909C396.99333,494.28868,396.18867,494.35581,395.37418,494.4323Zm43.33555-12.532c-2.17495-3.68884-1.6-9.64829-1.6-9.64829s2.61563-9.6387-2.15576-11.34417c-2.97025-1.08256-5.62425,2.08886-7.21464,4.60859a10.69393,10.69393,0,0,1-1.945,2.32815,41.63166,41.63166,0,0,1-.37357,4.56064c-.19181,1.50431-.35461,2.97026-.62291,4.52252,2.472-.1055,4.4362.73753,4.84812,2.2802.39274,1.48512-.90057,2.2133-2.85517,3.61211a7.59878,7.59878,0,0,1,1.59039,3.05634,9.45956,9.45956,0,0,1,.32584,3.47784,10.17683,10.17683,0,0,1-.83343,3.14288c1.43717-.24935,2.87434-.56537,4.28251-.95811a23.02709,23.02709,0,0,0,2.88417-1.02525,8.85037,8.85037,0,0,0,2.57728-1.65776,12.51019,12.51019,0,0,1-5.29841,3.20978,35.54559,35.54559,0,0,1-4.97256,1.43718c-.14386.23953-.30667.47906-.45029.71858a14.66889,14.66889,0,0,1-1.102,1.32233c.21075-.5462.479-1.03484.68981-1.55226.03836-.1055.08632-.22035.12468-.32585a2.644,2.644,0,0,1-.29707.06714,52.61867,52.61867,0,0,1-6.20857.86244,26.35673,26.35673,0,0,1-6.37161-.13427,12.2788,12.2788,0,0,0-2.73049-.23953c-1.054.0096-2.127.11509-3.21937.21076-.80467.07673-1.60957.1724-2.41447.27789-1.18806.15322-2.36652.33544-3.55458.527a.493.493,0,0,0-.10526.01918q-4.12485.70421-8.23989,1.57121c-1.29354.25871-2.57727.5366-3.85164.82408h-.02877l-.05731.00959a23.14678,23.14678,0,0,1-7.31054-.20116,14.42492,14.42492,0,0,1-1.77238-.51742c-1.08279.23953-2.17494.46946-3.25773.709H377.17l-.05754.00959a24.15806,24.15806,0,0,1-5.94027.01919,16.22685,16.22685,0,0,0,6.60154,2.46242c7.50189,1.27413,17.68678-.43134,26.281-2.82663a69.94673,69.94673,0,0,1,8.18234-1.81074c7.24318-1.12115,11.325-.32584,12.93456.15322a5.56206,5.56206,0,0,1,.79508.27789c9.09274,3.56416,12.68568-.01918,14.05572-4.18708A12.0704,12.0704,0,0,0,438.70973,481.90031Zm-11.04711,4.12953a15.21876,15.21876,0,0,0-.8718-3.20978,25.74376,25.74376,0,0,0-2.836,2.31857c-2.88394,2.76908-7.16669.364-7.73206-1.76279a2.93954,2.93954,0,0,1,.45988-2.31879c-.96771,1.01565-2.96043,1.993-5.145,4.08158-2.88394,2.76908-7.16692.364-7.73206-1.76279-.56537-2.12722,1.98336-4.77139,5.69115-5.9405,3.69843-1.14969,7.1571-.34479,7.73206,1.77261a1.684,1.684,0,0,1-.08632,1.19764,10.25539,10.25539,0,0,1,4.76181-2.97025,10.75271,10.75271,0,0,1,2.89353-.50759,10.858,10.858,0,0,1-.32561-4.63737,13.01679,13.01679,0,0,1,1.32209-4.44579c-.14363.13427-.28749.25871-.4407.38339a8.54236,8.54236,0,0,1-4.47432,1.8491,8.95147,8.95147,0,0,1-7.16692-2.53915,8.80494,8.80494,0,0,1-4.3017,2.39529,9.94024,9.94024,0,0,1,1.13051,1.41823,7.53388,7.53388,0,0,1,1.27414,3.26709,26.953,26.953,0,0,0-4.74263-4.436c-.03813-.01918-.07649-.05754-.12444-.08631a16.93184,16.93184,0,0,0-2.56769-1.552c-.93893-.50806-1.96418-.88162-3.02779-1.399,0,0-.09591.05754-.29707.15321-.63228.33544-2.25144,1.16911-4.436,2.29a9.00324,9.00324,0,0,1,1.49472,1.763,9.24821,9.24821,0,0,1,.64186,1.11133,15.12106,15.12106,0,0,1,1.811,1.236,10.14518,10.14518,0,0,1,2.34734,2.67318,4.05686,4.05686,0,0,1,.55555,3.51621,6.01574,6.01574,0,0,0-1.62875-2.73072,25.33035,25.33035,0,0,0-2.35693-2.13658l-2.56769-2.05026a32.30653,32.30653,0,0,1-2.58709-2.21331c-1.81074.94853-3.88019,1.993-6.01676,3.08511a9.90424,9.90424,0,0,1,1.236,1.21682c.28725.09591.56514.20117.843.31626a12.09437,12.09437,0,0,1,3.05633,1.85868,10.09553,10.09553,0,0,1,2.29939,2.81681,6.48956,6.48956,0,0,1,.73777,3.51644,19.70676,19.70676,0,0,0-1.8491-2.77867,24.31479,24.31479,0,0,0-2.2898-2.261c-.43133-.3642-.88139-.71858-1.33191-1.054a3.38522,3.38522,0,0,1,.03836,2.41447,5.91962,5.91962,0,0,0-1.61915-2.73072,28.073,28.073,0,0,0-2.35693-2.13658l-.42152-.3352c-1.80137.91016-3.64088,1.8491-5.41349,2.73049a9.97672,9.97672,0,0,1,2.09822,2.63482,6.48956,6.48956,0,0,1,.73777,3.51644,18.94309,18.94309,0,0,0-1.85869-2.77867,22.21366,22.21366,0,0,0-2.2898-2.261c-.11508-.0959-.22034-.182-.33543-.28748-1.8491.92935-3.59293,1.79156-5.13537,2.53891-9.44712,4.599-7.3585,9.00643-7.3585,9.00643a5.40017,5.40017,0,0,1,.45029-1.72465,2.47215,2.47215,0,0,1,1.27437-1.33168,2.84029,2.84029,0,0,1,1.86828-.029,4.86983,4.86983,0,0,1,1.65752.85286,7.3212,7.3212,0,0,1,2.13658,2.99879,9.54639,9.54639,0,0,0,1.993,2.702,10.429,10.429,0,0,0,2.76909,1.86828,6.31781,6.31781,0,0,0,.661.2683c3.018-.68023,6.05512-1.28373,9.11169-1.79156,2.05986-.32584,4.11012-.61332,6.199-.81449,1.0442-.08608,2.10781-.134,3.17142-.14362.52678.00959,1.073.05754,1.61916.08608.52678.07672,1.16887.18222,1.61916.25871a20.81819,20.81819,0,0,0,2.09822.2683c1.284-.182,2.59645-.34479,3.90918-.46947,1.0442-.08608,2.09822-.134,3.17142-.14362.5366.00959,1.073.05754,1.60957.08608.24912.03836.51742.07672.77613.12468.17239-.01919.35438-.048.527-.07673A50.04806,50.04806,0,0,0,419.739,491.539a21.99887,21.99887,0,0,0,2.88394-1.02525,8.977,8.977,0,0,0,2.57751-1.65776,12.53559,12.53559,0,0,1-5.28882,3.20978,36.77567,36.77567,0,0,1-3.87083,1.17847,34.43307,34.43307,0,0,0,3.98568.07672,54.4577,54.4577,0,0,0,6.1129-.54619c.28725-.03813.57473-.08631.86221-.134a1.66338,1.66338,0,0,0,.06713-.20117c.07649-.25871.16281-.51742.24912-.77613l.182-.79531a11.31708,11.31708,0,0,0,.24912-1.6A13.093,13.093,0,0,0,427.66262,486.02984Zm-32.28844,8.40246c-2.02173.2014-4.06241.49824-6.07454.82408-1.82033.30643-3.65024.65146-5.4708,1.00607a23.85656,23.85656,0,0,0,5.41349-.163h.02877c2.8264-.68981,5.65279-1.31249,8.52714-1.84909C396.99333,494.28868,396.18867,494.35581,395.37418,494.4323Zm0,0c-2.02173.2014-4.06241.49824-6.07454.82408-1.82033.30643-3.65024.65146-5.4708,1.00607a23.85656,23.85656,0,0,0,5.41349-.163h.02877c2.8264-.68981,5.65279-1.31249,8.52714-1.84909C396.99333,494.28868,396.18867,494.35581,395.37418,494.4323Zm-19.64137-.42151a10.7532,10.7532,0,0,1-2.05027-3.0947,16.33668,16.33668,0,0,0-.69005-1.581,6.123,6.123,0,0,0-1.04419-1.3029,4.26245,4.26245,0,0,0-1.40841-.86222,2.40843,2.40843,0,0,0-1.59038-.12467,3.49613,3.49613,0,0,0-1.84934,2.74031,9.75734,9.75734,0,0,0,2.14617,6.14144q.41685.08631.83368.17239a22.47758,22.47758,0,0,0,6.75476,0h.01918c.39274-.09567.78549-.182,1.17846-.27789A11.60551,11.60551,0,0,1,375.73281,494.01079ZM394.991,470.43146c-.22034.1055-.4311.211-.66127.32584a12.54051,12.54051,0,0,1,1.61939.41193C395.63289,470.91052,395.31663,470.66163,394.991,470.43146Z"/><path d="M426.79269,482.82291c-.15227-.31374-.31374-.61829-.49292-.923a13.1397,13.1397,0,0,1-1.50547-4.97366,23.91744,23.91744,0,0,1-.10764-4.67785,24.38189,24.38189,0,0,0,.66336-4.02369c.224-2.85865-.10764-6.35353-2.805-7.32144-2.97527-1.07555-5.6368,2.09684-7.214,4.61506a10.80024,10.80024,0,0,1-1.62208,2.01633,8.78329,8.78329,0,0,1-4.30132,2.40183,7.96341,7.96341,0,0,1-.941.1433,9.57,9.57,0,0,1-1.51443.01794,9.09527,9.09527,0,0,1-5.89671-2.79608,15.23978,15.23978,0,0,1-2.98424-4.32823,5.92943,5.92943,0,0,0-2.50925-2.79608c-5.23335-2.72432-6.63139,6.972-6.63139,6.972a8.12973,8.12973,0,0,1,3.50407.15227,8.95811,8.95811,0,0,1,3.217,1.49672,9.69658,9.69658,0,0,1,2.4644,2.55388,8.07907,8.07907,0,0,1,.63623,1.11121,6.71736,6.71736,0,0,1,.65417,2.15067,32.06481,32.06481,0,0,0-3.459-3.44106c-.31374-.25992-.62726-.51087-.95894-.74388a3.74509,3.74509,0,0,0-.32271-.242,17.899,17.899,0,0,0-2.69719-1.64c-.95-.51065-1.97169-.887-3.038-1.39782,0,0-2.91248,1.51443-7.0169,3.61149a12.4054,12.4054,0,0,1,3.298,1.09327A16.00618,16.00618,0,0,1,388.151,473.7c.05361.04507.10743.0897.16125.14352a9.9104,9.9104,0,0,1,1.23657,1.21864,8.55624,8.55624,0,0,1,.95,1.30856,5.40964,5.40964,0,0,1,.51984,1.10224,3.3896,3.3896,0,0,1,.03588,2.41058,5.908,5.908,0,0,0-1.62208-2.72432,26.988,26.988,0,0,0-2.35676-2.14169l-.42138-.33168-2.15066-1.71156c-.86924-.69005-1.74744-1.398-2.59-2.21346-2.20448,1.13813-4.75837,2.42852-7.36629,3.77274a9.90261,9.90261,0,0,1,3.43231.84233,12.1262,12.1262,0,0,1,3.047,1.85508q.10731.09418.21484.18816a9.96135,9.96135,0,0,1,2.09706,2.63461,6.47607,6.47607,0,0,1,.7349,3.513,18.95883,18.95883,0,0,0-1.85508-2.77814,22.65476,22.65476,0,0,0-2.28521-2.2583c-.1164-.09846-.224-.18816-.34043-.28683-1.56826-1.27246-3.2621-2.40161-5.04542-3.70995h-.009c-4.4,2.24037-8.99734,4.5433-12.49222,6.24611-9.44541,4.59735-7.35732,9.00631-7.35732,9.00631a5.07551,5.07551,0,0,1,.4391-1.72972,2.51885,2.51885,0,0,1,1.27246-1.32627,2.79954,2.79954,0,0,1,1.873-.0267,4.77808,4.77808,0,0,1,1.658.8513,7.29632,7.29632,0,0,1,2.14169,3.002,9.34729,9.34729,0,0,0,1.99839,2.6974,10.25765,10.25765,0,0,0,2.76917,1.873,14.00237,14.00237,0,0,0,2.40161.79769c.27785.06257.55549.11639.83335.17022a22.47064,22.47064,0,0,0,6.757.00875h.01794c.39425-.09846.7885-.18816,1.183-.27764.62726-.1525,1.24555-.30477,1.873-.4391q4.52985-1.02162,9.11374-1.7923c2.061-.32271,4.11317-.60953,6.20126-.80644,1.04842-.0897,2.106-.13455,3.17239-.14352.52859.009,1.07533.05382,1.61311.08073.52858.08051,1.17378.17918,1.62185.2597a19.63552,19.63552,0,0,0,2.09706.26888,35.05414,35.05414,0,0,0,3.88936.07177,55.40824,55.40824,0,0,0,5.583-.475c.17021-.01794.3494-.04485.51983-.07176a51.22031,51.22031,0,0,0,6.02208-1.23658,22.138,22.138,0,0,0,2.88556-1.03048,8.906,8.906,0,0,0,2.57182-1.658,12.41173,12.41173,0,0,1-5.28717,3.20827,34.39644,34.39644,0,0,1-3.87141,1.18275q-1.07544.28224-2.15066.484c-.95894.18815-1.91788.35837-2.88557.49292-1.10246.16125-2.21345.28683-3.32488.37631-.77056.05382-1.54135.09868-2.31191.11662a21.3886,21.3886,0,0,1-4.04163-.25095,13.194,13.194,0,0,0-3.53076-.21507c-.79769.03588-1.60413.10764-2.41977.17919-2.02508.20609-4.05935.50189-6.07567.8246-1.81921.31352-3.64738.65417-5.46658,1.01254-1.12915.21507-2.25831.44807-3.38746.68108-1.0843.233-2.1686.466-3.25312.708h-.01772l-.0628.009a24.40922,24.40922,0,0,1-5.94134.01794c-.45726-.05382-.91408-.12558-1.37135-.224a14.8976,14.8976,0,0,1-3.49488-1.23679,11.69439,11.69439,0,0,1-2.98423-2.21345,10.63447,10.63447,0,0,1-2.052-3.09166,12.84662,12.84662,0,0,0-.699-1.57723,5.71334,5.71334,0,0,0-1.0307-1.30834,4.37385,4.37385,0,0,0-1.4068-.86026,2.485,2.485,0,0,0-1.60413-.12559,3.51335,3.51335,0,0,0-1.83714,2.74226c.30476,10.02782,11.19285,11.78423,23.08472,10.3595a93.93555,93.93555,0,0,0,13.87232-2.832c.61829-.17021,1.22761-.34043,1.81921-.48395a63.23207,63.23207,0,0,1,8.2445-1.577.43954.43954,0,0,1,.10764-.01794,30.16194,30.16194,0,0,1,10.42207.26867,8.54273,8.54273,0,0,1,1.30834.43013c5.87877,2.30316,9.45438,1.62208,11.623-.27786a7.54449,7.54449,0,0,0,1.62208-2.02508,10.09943,10.09943,0,0,0,.50189-1.03967c.1164-.27785.224-.55549.31374-.84232A11.89459,11.89459,0,0,0,426.79269,482.82291ZM411.54027,485.135c-2.88556,2.769-7.16917.36734-7.73363-1.75641-.56469-2.13294,1.98044-4.77653,5.69039-5.94156,3.7012-1.1471,7.1602-.3494,7.73385,1.77435a1.67135,1.67135,0,0,1-.0897,1.19194,2.47861,2.47861,0,0,1-.457.65417C415.71645,482.07007,413.72681,483.047,411.54027,485.135Z" stroke="#000" stroke-miterlimit="10" stroke-width="0.89615"/><path d="M386.43418,97.14122a10.54183,10.54183,0,0,1,2.46149,4.01469,18.6455,18.6455,0,0,1,1.025,4.61069,21.77719,21.77719,0,0,1-.08561,4.69351c-.09006.77519-.26456,1.54056-.41941,2.30113a22.48765,22.48765,0,0,1-.723,2.2312c-.102-.78771-.12-1.55471-.15251-2.31833-.0524-.7642-.07135-1.52091-.10246-2.2726-.07555-.75215-.03883-1.50068-.12935-2.24395l-.06035-1.11519-.11064-1.10793c-.12632-1.47683-.32444-2.94195-.58362-4.4045A30.87639,30.87639,0,0,0,386.43418,97.14122Z"/><path d="M377.75173,55.932A37.39642,37.39642,0,0,0,375.85,59.56758a29.8425,29.8425,0,0,0-1.39437,3.87211,20.95011,20.95011,0,0,0-.67508,3.99749,15.352,15.352,0,0,0,.32655,3.95784l.106.51824-.47157.25883a34.1489,34.1489,0,0,0-3.00253,1.85834,17.33294,17.33294,0,0,0-2.66991,2.18207,4.62962,4.62962,0,0,0-.90268,1.2408,2.15447,2.15447,0,0,0-.11812.29637,1.6615,1.6615,0,0,1-.05193.26152,3.14428,3.14428,0,0,0,.05777.68537,1.74215,1.74215,0,0,0,.66011,1.033,2.87644,2.87644,0,0,0,1.25051.51344l.63227.08117.073.5945a52.14,52.14,0,0,0,2.75412,12.20463,13.70642,13.70642,0,0,0,3.26381,5.22063,5.05451,5.05451,0,0,0,2.65962,1.32548,5.4819,5.4819,0,0,0,2.95458-.50924,21.36915,21.36915,0,0,0,10.042-7.05955c2.46639-3.29855,3.80369-7.3047,4.91993-11.31844l.12772-.45941.517-.14246a6.45769,6.45769,0,0,0,2.29868-1.23167,7.02243,7.02243,0,0,0,1.69542-2.0546,10.7,10.7,0,0,0,1.03016-5.38215c-.02129-.47321-.08421-.9456-.12234-1.41869a11.46471,11.46471,0,0,0-.28889-1.32817c-.22268-.86116-.66034-1.55869-1.17331-1.69881a2.66634,2.66634,0,0,0-2.09307.476,9.68594,9.68594,0,0,0-2.101,1.76606l-.5249.59753a1.84125,1.84125,0,0,1-1.16981.61158,1.91008,1.91008,0,0,1-1.255-.37029,3.90043,3.90043,0,0,1-.69215-.65953,15.57774,15.57774,0,0,1-1.67811-2.7237,52.68765,52.68765,0,0,0-2.83177-5.24484,6.91323,6.91323,0,0,0-2.113-1.84278,28.57967,28.57967,0,0,0-2.61938-1.41765C381.49086,57.38317,379.53626,56.638,377.75173,55.932Zm-.05614-.17017c1.094.23567,1.99365.509,2.98639.8132.96934.30234,1.93284.62923,2.88815.99051a24.17672,24.17672,0,0,1,2.80744,1.27508,10.92817,10.92817,0,0,1,1.34548.83437,5.65726,5.65726,0,0,1,1.20092,1.13133,39.33948,39.33948,0,0,1,3.20768,5.25326,14.394,14.394,0,0,0,1.581,2.37412,2.32162,2.32162,0,0,0,.41309.37157c.12421.0738.18573.06889.1607.06351-.03017.011.01965-.00842.11462-.12081l.06971-.08117.12584-.1586.25591-.32151a10.38163,10.38163,0,0,1,2.45891-2.19319c.24959-.14292.50385-.2821.764-.41415a6.98311,6.98311,0,0,1,.86221-.309,3.58017,3.58017,0,0,1,.97706-.13169,3.97765,3.97765,0,0,1,.52023.02269c.1766.04152.35391.0883.52888.13988a3.50075,3.50075,0,0,1,.953.51543,7.06957,7.06957,0,0,1,.68443.74865l.46292.81437.29286.82174a13.13426,13.13426,0,0,1,.35158,1.62957c.04491.53356.11181,1.06525.1345,1.60056a11.90624,11.90624,0,0,1-1.34034,6.35337,8.82342,8.82342,0,0,1-2.196,2.54242,8.01346,8.01346,0,0,1-3.05423,1.51366l.64444-.60163a46.123,46.123,0,0,1-2.19833,6.06811A23.51856,23.51856,0,0,1,392.30124,92.86a19.76174,19.76174,0,0,1-4.94941,4.20428,31.7815,31.7815,0,0,1-5.84507,2.65388,6.26148,6.26148,0,0,1-3.23785.49531,5.91258,5.91258,0,0,1-2.95317-1.44629,16.20866,16.20866,0,0,1-3.62545-5.33057,40.62907,40.62907,0,0,1-2.17541-6.04624,50.669,50.669,0,0,1-1.37355-6.28763l.705.67554a4.17154,4.17154,0,0,1-2.087-.77718,3.35839,3.35839,0,0,1-1.266-1.94,4.668,4.668,0,0,1-.10479-1.11133c.02784-.20982.06339-.42128.10573-.62947a3.18679,3.18679,0,0,1,.21286-.54209,6.14166,6.14166,0,0,1,1.225-1.662,18.78549,18.78549,0,0,1,2.95786-2.34886,33.75607,33.75607,0,0,1,3.21282-1.84477l-.36561.77683a15.1238,15.1238,0,0,1-.17263-4.362,19.31266,19.31266,0,0,1,.96654-4.18626,24.50107,24.50107,0,0,1,1.76606-3.86159A21.6679,21.6679,0,0,1,377.69559,55.76179Z"/><path d="M375.573,68.53623a4.31851,4.31851,0,0,1,1.695-.99,5.97676,5.97676,0,0,1,1.95974-.31368,5.72163,5.72163,0,0,1,3.65773,1.30372c-.65684-.08479-1.2573-.21766-1.86594-.28444a13.80921,13.80921,0,0,0-1.79741-.12362,13.15986,13.15986,0,0,0-1.7981.097C376.81887,68.29717,376.21327,68.39811,375.573,68.53623Z"/><path d="M378.58406,73.75184a1.345,1.345,0,0,0,0-2.68843,1.345,1.345,0,0,0,0,2.68843Z"/><path d="M369.2184,83.39435a4.756,4.756,0,0,1,4.20386-1.09327,20.16176,20.16176,0,0,0,7.52762,1.09327c4.3015-.0179,11.82913-2.76011,11.82913-4.61513V68.54534l2.36582.63616s.43015,10.75375,1.93568,11.82913c-3.01105,10.75375-7.04371,15.43163-16.29193,18.65775S369.2184,83.05875,369.2184,83.05875"/><path d="M377.72366,55.84681a24.01527,24.01527,0,0,1,6.152-4.84952,21.219,21.219,0,0,1,7.5061-2.5802,21.5874,21.5874,0,0,1,8.00878.49918c.64092.20257,1.27226.43788,1.90921.65706l.9539.3359.90175.447a20.99908,20.99908,0,0,1,3.526,2.00243,17.18741,17.18741,0,0,1,6.61,10.08185,26.32383,26.32383,0,0,1,.6449,3.98181,20.43921,20.43921,0,0,1-.87975,8.02118,19.79185,19.79185,0,0,1-3.98544,6.97955l.14268-.50864a30.30164,30.30164,0,0,0,.95063,4.078,34.45389,34.45389,0,0,0,1.50314,3.95293,24.46558,24.46558,0,0,0,2.0657,3.70592,24.20626,24.20626,0,0,0,2.70406,3.30709,19.87889,19.87889,0,0,1-3.0416-3.05762,25.05365,25.05365,0,0,1-2.41353-3.609,28.22184,28.22184,0,0,1-1.817-3.96053,27.16634,27.16634,0,0,1-1.22057-4.22415l-.05076-.26281.19368-.24619a19.3896,19.3896,0,0,0,3.46522-6.61535,19.86338,19.86338,0,0,0,.6559-7.41242,21.10139,21.10139,0,0,0-1.88419-7.18972,15.81921,15.81921,0,0,0-4.67058-5.64367,14.2519,14.2519,0,0,0-1.54337-1.02712l-1.66477-.88841-.83414-.44315-.87952-.33192c-.5876-.21778-1.17075-.45438-1.76279-.66011a20.75362,20.75362,0,0,0-7.44785-.76841A24.64818,24.64818,0,0,0,377.72366,55.84681Z"/><path d="M377.72376,55.84685s11.90694-12.78246,27.03113-3.74656a16.60619,16.60619,0,0,1,7.51033,9.88617c1.37677,5.0546,1.84209,12.43468-3.68605,19.02417-2.10981,1.13077-11.49866,0-11.49866,0s6.23717-1.29046,5.807-9.67838-5.592-4.94673-7.7427-2.15075-4.713-6.45225-7.41075-8.81808S377.72376,55.84685,377.72376,55.84685Z"/><path d="M394.78541,459.72049l-.89449-.04865c.00094-.01871.09918-1.93214-.00093-6.39149l.89636-.02059C394.8874,457.76122,394.79009,459.64283,394.78541,459.72049Z"/><rect x="420.31957" y="456.48311" width="0.89636" height="4.26099"/><rect x="434.51259" y="456.48311" width="0.89636" height="4.42193"/><path d="M309.55359,78.10628a10.36634,10.36634,0,0,1,1.4739,2.49564,14.87521,14.87521,0,0,1,.89145,2.78043,15.22541,15.22541,0,0,1,.31344,2.92089,17.358,17.358,0,0,1-.21333,2.94078l-.14432-.5214c.58549.61368,1.2084,1.21636,1.829,1.78887.31181.28467.629.56163.94852.80817l.53356.38994a3.46036,3.46036,0,0,1,.56865.60666,4.3949,4.3949,0,0,1,.9504,2.92861,3.81532,3.81532,0,0,1-1.58571,2.74418l.31344-.5669a36.32056,36.32056,0,0,1-1.054,5.97852,27.524,27.524,0,0,1-2.15365,5.68682,13.54253,13.54253,0,0,1-3.83012,4.78017,7.52,7.52,0,0,1-2.81985,1.2939,8.40628,8.40628,0,0,1-3.07528.05392l.27883-.11883a67.56265,67.56265,0,0,0-3.81843,6.12506l-.02409.03661-.02737.03427a3.89815,3.89815,0,0,0-.654,1.7684,7.53128,7.53128,0,0,0,.01731,1.99389,14.45648,14.45648,0,0,0,1.167,3.88451,31.90526,31.90526,0,0,0,1.9953,3.60053c.73192,1.16794,1.55857,2.27822,2.385,3.38627l.01754.02374a.761.761,0,0,1-.15509,1.0649.77608.77608,0,0,1-.28.13053,19.40221,19.40221,0,0,1-8.34679-.05649,25.8447,25.8447,0,0,1-7.69931-2.99727l-1.756-1.09028c-.57075-.38315-1.09589-.82853-1.64512-1.2401a37.01489,37.01489,0,0,1-3.086-2.70605c-.97777-.9525-1.83507-2.017-2.75435-3.01808l-2.45517-3.24417a.72528.72528,0,0,1,.10549-.98455c1.00841-.86654,1.98711-1.81681,2.95973-2.75072q1.45613-1.41261,2.78569-2.94382a31.6234,31.6234,0,0,0,2.4671-3.20066,11.51378,11.51378,0,0,0,1.705-3.63363.08982.08982,0,0,1,.1062-.06948.09163.09163,0,0,1,.07111.09638,10.89818,10.89818,0,0,1-1.34969,3.92041,24.36447,24.36447,0,0,1-2.24816,3.49188,49.06459,49.06459,0,0,1-5.51852,6.19033l.10549-.9842,2.51646,3.03715c.9242.92923,1.80863,1.898,2.75763,2.79131a35.12458,35.12458,0,0,0,2.98428,2.51155c.52444.381,1.03578.78256,1.56934,1.14735l1.64419,1.02712a26.63342,26.63342,0,0,0,7.11662,2.90885,18.51544,18.51544,0,0,0,7.5447.29134l-.41754,1.21893c-.804-1.17987-1.60489-2.3595-2.31342-3.6058a27.92769,27.92769,0,0,1-1.85518-3.88533,16.17664,16.17664,0,0,1-.98876-4.22976,6.13156,6.13156,0,0,1,1.03484-4.29328l-.05123.07053c1.2311-2.11752,2.59576-4.10392,3.92393-6.13384a.27312.27312,0,0,1,.273-.12011l.00631.001a6.455,6.455,0,0,0,5.30987-1.42758A12.65323,12.65323,0,0,0,311.126,108.562a32.64391,32.64391,0,0,0,1.74173-5.53606,50.51359,50.51359,0,0,0,.98852-5.73525l.00187-.01777a.80805.80805,0,0,1,.31181-.54947,2.24516,2.24516,0,0,0,1.00326-1.59846,3.07124,3.07124,0,0,0-.59461-1.945,2.23316,2.23316,0,0,0-.302-.36081,2.66878,2.66878,0,0,0-.2276-.177c-.10082-.0724-.18526-.14807-.2786-.2221-.35835-.29918-.6856-.60842-1.00489-.92256-.63929-.62888-1.22127-1.28384-1.80349-1.96056l-.01076-.0124a.6058.6058,0,0,1-.1338-.50947,19.00436,19.00436,0,0,0,.37123-2.73282,15.53172,15.53172,0,0,0-.07579-2.76745,14.18709,14.18709,0,0,0-.575-2.72885,12.35382,12.35382,0,0,0-1.1263-2.57049l-.004-.00632a.08952.08952,0,0,1,.146-.10292Z"/><path d="M310.061,79.09331s-9.93421,10.1977-18.32214,11.16554c0,0-2.5809-2.25829-3.06482,0s-1.45175,10.80752,3.71005,9.67838c0,0,5.1618,6.93617,4.51657,10.3236s-3.38743,6.29094-3.54874,12.098,3.06482,20.80851,3.87135,22.42157-14.84017,4.67788-17.905,2.41959-6.93617-4.67788-10.001-3.71-11.45274,1.92576-11.93666,4.51162-5.807.65018,3.38743-19.3518,7.25878-45.811,10.001-50.48886S298.86412,59.86245,310.061,79.09331Z"/><path d="M308.99874,87.194a29.25384,29.25384,0,0,0-4.06988-.54607,11.56741,11.56741,0,0,0-1.985.08385,13.82261,13.82261,0,0,0-2.0105.46222,4.53851,4.53851,0,0,1,1.84886-1.14256,6.26424,6.26424,0,0,1,2.18149-.29847,7.69831,7.69831,0,0,1,2.13962.41368A6.04783,6.04783,0,0,1,308.99874,87.194Z"/><path d="M305.44991,92.24829a1.345,1.345,0,0,0,0-2.68843,1.345,1.345,0,0,0,0,2.68843Z"/><path d="M311.56049,88.25092s-3.12641-1.78277-4.0136.55617v8.146s2.01633,3.38743,3.46809-.48392A16.79157,16.79157,0,0,0,311.56049,88.25092Z"/><line x1="294.51433" y1="89.63772" x2="308.99865" y2="88.71457" fill="#fff"/><polygon points="294.514 89.638 308.942 87.82 309.056 89.609 294.514 89.638"/><path d="M311.9828,102.27612a2.99422,2.99422,0,0,1-.992,1.26817,2.87423,2.87423,0,0,1-1.59366.60187,2.40973,2.40973,0,0,1-1.64536-.54409,2.824,2.824,0,0,1-.93074-1.32595,11.23047,11.23047,0,0,0,1.29542.72923,2.55712,2.55712,0,0,0,1.24279.246A6.3373,6.3373,0,0,0,311.9828,102.27612Z"/><path d="M291.255,98.9425a1.345,1.345,0,0,0,0-2.68843,1.345,1.345,0,0,0,0,2.68843Z"/><path d="M258.72481,207.58229q-.65052-7.832-.77028-15.68657c-.10386-5.23373-.05053-10.46956.10386-15.70493.20865-5.23373.50057-10.46933,1.08232-15.68575.31345-2.6071.65379-5.21034,1.15554-7.79346a41.63918,41.63918,0,0,1,2.1195-7.58154,52.70824,52.70824,0,0,0-1.25051,7.71136c-.29028,2.58581-.44,5.18858-.63133,7.7841-.29427,5.20286-.50853,10.41249-.68537,15.62622l-.50058,15.65312Q259.11673,199.737,258.72481,207.58229Z"/><path d="M303.19157,136.39238a147.5932,147.5932,0,0,1,9.642,16.33814,47.85263,47.85263,0,0,1,3.59457,8.91778,11.86261,11.86261,0,0,1,.3904,2.52979l-.02854,2.3857c-.03625,1.58758-.09964,3.17071-.1759,4.75174-.18082,3.15949-.41754,6.31232-.654,9.452l-.16771,2.33927a19.34594,19.34594,0,0,0,.08818,2.2533c.1345,1.55425.2959,3.12113.454,4.68637.68561,6.26061,1.37261,12.53667,1.96606,18.82617-1.28256-6.18751-2.43272-12.39562-3.35364-18.65027-.23462-1.56442-.45988-3.12861-.6297-4.7142l-.11485-1.20186c-.03065-.395-.05263-.8718-.04234-1.26618l.10666-2.38441c.186-3.15481.40795-6.29454.55859-9.43531.08959-1.569.16608-3.13739.2159-4.7031l.04866-2.34511a11.76206,11.76206,0,0,0-.3097-2.13868,52.31143,52.31143,0,0,0-3.20674-8.70889C308.9826,147.61188,306.11949,141.98786,303.19157,136.39238Z"/><path d="M292.72271,146.82464a27.55915,27.55915,0,0,1,2.08886,3.277,23.53689,23.53689,0,0,1,1.62618,3.57761,8.51421,8.51421,0,0,1,.46525,2.04816,3.05955,3.05955,0,0,1-.76513,2.34278,4.36962,4.36962,0,0,1-1.94594,1.20022,7.59536,7.59536,0,0,1-2.09424.31707l-1.88278.04748,1.44536-1.12349a6.04759,6.04759,0,0,0,1.49378-1.60758,1.30506,1.30506,0,0,0-.13216-1.78524,4.357,4.357,0,0,0-2.094-.80268,12.16165,12.16165,0,0,0-2.36278-.13041c-1.60676.05064-3.21867.14889-4.82379.24187l-4.80859.19894c-3.19691.18632-6.38845.30924-9.53718.588a27.66609,27.66609,0,0,0-4.60953.74514,4.05451,4.05451,0,0,0-1.86266.99554,1.20886,1.20886,0,0,0-.24023.90747,4.125,4.125,0,0,0,.14736.53169l.2655.52479-.13942.11263-.421-.4683a3.53086,3.53086,0,0,1-.31181-.58011,1.8246,1.8246,0,0,1,.07579-1.41682,4.52213,4.52213,0,0,1,2.07646-1.66583,19.03665,19.03665,0,0,1,4.79339-1.3698,51.562,51.562,0,0,1,9.73226-.64034c1.61916.0159,3.23621.04163,4.85023.15742l4.83385.40245c.81519.0745,1.62945.16105,2.4416.3131a5.6973,5.6973,0,0,1,2.36839.90829,1.87292,1.87292,0,0,1,.73145,1.21109,2.73467,2.73467,0,0,1-.19719,1.3856,6.87666,6.87666,0,0,1-1.46711,2.17061l-.43719-1.07589a5.39766,5.39766,0,0,0,2.90686-1.34653,1.66428,1.66428,0,0,0,.40538-1.20443,9.64071,9.64071,0,0,0-.30292-1.7084c-.31649-1.185-.73777-2.38149-1.164-3.57738l-1.30572-3.61609Z"/><path d="M266.07769,154.99143c-.25263,6.53745-.45871,13.07327-.50432,19.61061q-.126,9.80355.14877,19.60008c.11579,3.26241.2152,6.52576.43087,9.775.10012,1.62372.23579,3.24908.43438,4.83607l.352,2.42979.3083,2.44243c.7642,6.50646,1.512,13.00532,2.13752,19.51938.63414,6.51243,1.30969,13.02017,1.85682,19.54079l.83671,9.78068c.06269.83274.13754,1.59694.1876,2.491a7.79911,7.79911,0,0,1-.20117,1.31764l-.262,1.20607-1.10853,4.78637-2.2554,9.54911c-.16842.78923-.38105,1.61167-.48257,2.36558a10.74486,10.74486,0,0,0,.13052,2.35669,41.28225,41.28225,0,0,0,1.06268,4.7452,76.60561,76.60561,0,0,0,3.24768,9.21438,12.13234,12.13234,0,0,0,2.43411,4.0755,1.87821,1.87821,0,0,0,1.93238.56443,3.40453,3.40453,0,0,0,1.58032-1.51483l.23322-.40678.28888.37567.72163.93823c.243.30994.53356.56959.79671.85754a4.42289,4.42289,0,0,0,1.90852,1.14384,2.41693,2.41693,0,0,0,2.02032-.43111,4.99975,4.99975,0,0,0,1.40934-1.72863l.2138-.42736.34245.33076a9.98538,9.98538,0,0,0,1.88114,1.49541c.67438.382,1.42969.546,1.88442.09287a3.64389,3.64389,0,0,0,.82408-2.03389,12.18277,12.18277,0,0,0,.10643-2.403l-.03017-.596.58385.14853a5.91925,5.91925,0,0,0,2.30874.21824,1.99256,1.99256,0,0,0,1.61331-1.13308,4.10162,4.10162,0,0,0,.27368-2.19623,3.43964,3.43964,0,0,0-.92045-1.97471c-1.02689-1.16887-2.4664-2.13307-3.69-3.36276a12.75989,12.75989,0,0,1-2.95037-4.32906,26.32392,26.32392,0,0,1-1.30922-4.99853,25.55831,25.55831,0,0,1-.34339-2.56909,6.94667,6.94667,0,0,1,.24-2.79271,2.3936,2.3936,0,0,1,.4718-.76654,1.65513,1.65513,0,0,1,.39743-.31695.96309.96309,0,0,1,.30081-.13848,1.40846,1.40846,0,0,1,.26011-.04608,1.83952,1.83952,0,0,1,.20725.01965,1.92151,1.92151,0,0,1,.89777.47835,6.732,6.732,0,0,1,.50783.50479c.6042.673,1.10244,1.35413,1.611,2.03366,1.00466,1.359,1.97986,2.71131,3.0182,4.00041a28.55029,28.55029,0,0,0,3.32768,3.57867,4.63016,4.63016,0,0,0,1.76161,1.09214.55679.55679,0,0,0,.51415-.09707,1.62973,1.62973,0,0,0,.43531-.68,5.3697,5.3697,0,0,0,.27228-1.03507,3.359,3.359,0,0,0,.00421-1.00865,4.10841,4.10841,0,0,0-.81449-1.89728,13.65806,13.65806,0,0,1-2.229-4.842,39.55365,39.55365,0,0,1-1.01566-5.05584,32.65167,32.65167,0,0,0-.88794-4.82543,11.98376,11.98376,0,0,0-2.00839-4.1983,6.85074,6.85074,0,0,0-1.6063-1.49285,5.18772,5.18772,0,0,0-.9387-.47485,3.39676,3.39676,0,0,0-.89262-.22011l-.93916-.08678-.01006-.84771-.32047-26.89577c-.04654-4.483-.083-8.9662-.06128-13.45292.01357-2.25026.00678-4.47187.08444-6.76026.073-2.22851.14035-4.45772.17848-6.70271q.25859-13.44262.62759-26.8842c.20585-8.96175.51508-17.92233.78081-26.8842l.17941.00211c.01918,8.96538.08211,17.93215.04164,26.89765q-.01544,13.44911-.11158,26.89787c-.00608,2.23717-.04163,4.48895-.0835,6.7412-.04328,2.1926-.00609,4.45421.01286,6.68576l.167,13.43958.4028,26.88642-.949-.93449a7.01257,7.01257,0,0,1,4.919,2.92978,13.80008,13.80008,0,0,1,2.29564,4.85046,34.39641,34.39641,0,0,1,.90151,5.08625,37.89042,37.89042,0,0,0,.92864,4.83128,11.951,11.951,0,0,0,1.90852,4.279,5.81125,5.81125,0,0,1,1.12232,2.69821,5.04978,5.04978,0,0,1-.01942,1.50267,6.96151,6.96151,0,0,1-.38151,1.39437,3.22135,3.22135,0,0,1-.97051,1.37448,2.2448,2.2448,0,0,1-1.86618.40444,5.98831,5.98831,0,0,1-2.51014-1.48372,27.93939,27.93939,0,0,1-3.48954-3.83316c-1.04747-1.34759-2.01471-2.74008-2.98476-4.10077-.4856-.67461-.97332-1.35834-1.48325-1.94477a5.40564,5.40564,0,0,0-.37777-.39134c-.10386-.105-.27088-.17964-.17591-.1504.3345-.03532.11064-.02363.083.05286a.98849.98849,0,0,0-.18549.29848,5.83163,5.83163,0,0,0-.18971,2.19505,24.19768,24.19768,0,0,0,.28327,2.43132,25.23036,25.23036,0,0,0,1.15087,4.75993,11.5622,11.5622,0,0,0,2.62054,3.98521c1.12233,1.17963,2.50944,2.11857,3.69142,3.49352a4.48187,4.48187,0,0,1,1.11554,2.54663,5.03407,5.03407,0,0,1-.41356,2.72979,2.87441,2.87441,0,0,1-.97707,1.12373,3.35835,3.35835,0,0,1-1.37308.49145,6.776,6.776,0,0,1-2.67318-.28748l.55368-.44748a12.94572,12.94572,0,0,1-.16187,2.58991,4.33062,4.33062,0,0,1-1.12186,2.48394,1.8554,1.8554,0,0,1-1.45846.4407,3.60181,3.60181,0,0,1-1.31273-.47976,10.63212,10.63212,0,0,1-2.00254-1.64606l.556-.09661a5.84519,5.84519,0,0,1-1.64652,1.97,3.08163,3.08163,0,0,1-2.55623.52233,5.02841,5.02841,0,0,1-2.19108-1.31436c-.28-.30713-.5904-.593-.843-.91882l-.74665-.985.52186-.03087a3.96709,3.96709,0,0,1-1.919,1.788,2.07947,2.07947,0,0,1-1.38828.01053l-.32912-.11743-.28514-.18081a2.1527,2.1527,0,0,1-.52093-.40772,12.56613,12.56613,0,0,1-2.5478-4.2914,83.09882,83.09882,0,0,1-3.33774-9.25952,41.91761,41.91761,0,0,1-1.123-4.81444,11.27667,11.27667,0,0,1-.15649-2.52862c.11087-.86666.309-1.6332.473-2.444l2.05308-9.59753.996-4.79783.23134-1.19717a7.353,7.353,0,0,0,.15368-1.10361l-.23766-2.39716-1.05215-9.75332c-.73776-6.49979-1.37191-13.00988-2.076-19.51248l-2.05167-19.507-.28514-2.4278-.33029-2.429c-.19345-1.65975-.31391-3.2975-.4014-4.93888-.17614-3.2809-.28958-6.55711-.31882-9.83472-.055-6.55372.04608-13.10333.2697-19.64746.26386-6.54271.63227-13.08029,1.19741-19.6009Z"/><path d="M282.54437,288.02038l1.11975,4.09444.55976,2.04746a6.0207,6.0207,0,0,0,.81566,1.88044,5.79645,5.79645,0,0,0,1.39226,1.46829l1.74126,1.1946,3.50545,2.39365-.52467.72654-3.37446-2.5754-1.6926-1.29823a6.29342,6.29342,0,0,1-1.42782-1.673,6.41722,6.41722,0,0,1-.76139-2.03693l-.451-2.07389Z"/><path d="M285.727,304.90225l-2.89048-2.96791-1.44536-1.484a7.8513,7.8513,0,0,1-1.34548-1.64278,8.449,8.449,0,0,1-.78572-1.95974l-.62572-1.97471-1.25168-3.94942,1.46337,3.876.73145,1.938a8.059,8.059,0,0,0,.84864,1.833,7.3448,7.3448,0,0,0,1.35577,1.47835l1.52326,1.40372,3.04674,2.80721Z"/><path d="M278.256,304.0908l-1.61682-2.43014a28.3874,28.3874,0,0,1-1.578-2.4947,17.87754,17.87754,0,0,1-.83437-2.83154l-.71555-2.82967.93052,2.76628a17.74864,17.74864,0,0,0,1.01753,2.68932,28.58792,28.58792,0,0,0,1.72489,2.30686l1.79833,2.29869Z"/><path d="M289.69567,262.91032a1.345,1.345,0,0,0,0-2.68844,1.345,1.345,0,0,0,0,2.68844Z"/><path d="M285.17909,265.06107a1.345,1.345,0,0,0,0-2.68844,1.345,1.345,0,0,0,0,2.68844Z"/><path d="M280.01729,266.99675a1.345,1.345,0,0,0,0-2.68844,1.345,1.345,0,0,0,0,2.68844Z"/><path d="M275.07057,267.85705a1.345,1.345,0,0,0,0-2.68844,1.345,1.345,0,0,0,0,2.68844Z"/><path d="M270.98414,267.642a1.345,1.345,0,0,0,0-2.68844,1.345,1.345,0,0,0,0,2.68844Z"/><path d="M255.18264,437.779a20.681,20.681,0,0,1-4.08135-1.37987c1.29331-32.85358,5.74869-151.45875,3.53539-166.44358,1.20723,7.37745,2.3857,14.75489,3.14241,22.18988.9104,7.40621,1.55226,14.85079,2.1464,22.28578,1.16888,14.88915,1.97354,29.80684,2.53892,44.73436l.92934,22.40063c.15322,3.7272.30666,7.46376.50783,11.21014.22994,3.75574.51742,7.48294.78572,11.20031l1.64793,22.35291c.38315,4.56041.74736,9.12128,1.12092,13.68169-2.68277-.38315-5.38449-.81426-8.05767-1.32209C257.98049,438.4209,256.58145,438.12406,255.18264,437.779Z"/><path d="M267.619,441.9467c.18222,2.25167.3642,4.49374.56537,6.73558,0,0-10.32851,1.93541-17.41848-3.87059,0,0,.12445-3.07575.33544-8.41252a16.20408,16.20408,0,0,0,3.88018,2.01214c1.36045.527,2.7499.98689,4.14871,1.38946,2.71155.77589,5.45163,1.40816,8.23989,1.91623A2.82409,2.82409,0,0,0,267.619,441.9467Z"/><path d="M279.97879,446.29658c.00959,2.27038.00959,4.5314.03836,6.80178a24.084,24.084,0,0,1-11.83282-4.41608c-.06713-2.14617-.16281-4.29234-.24912-6.43851a17.35673,17.35673,0,0,0,7.49253,3.48768A30.63466,30.63466,0,0,0,279.97879,446.29658Z"/><path d="M304.17121,220.76585c-.35462,2.13658-.74736,4.2348-1.25519,6.28507a33.10673,33.10673,0,0,1-2.26126,6.53441,15.5936,15.5936,0,0,1-1.76278,2.87435,11.265,11.265,0,0,1-2.34734,2.32815,11.15051,11.15051,0,0,1-3.00861,1.48536,17.057,17.057,0,0,1-3.47785.64186c-.07672-6.74517-.15321-13.82577-.18222-19.04746,1.67671-.048,3.35341-.11485,5.03011-.22034,2.64464-.19158,5.28882-.40234,7.91428-.709C303.28023,220.88071,303.72092,220.82316,304.17121,220.76585Z"/><path d="M318.495,218.3322c-5.27923.43111-10.53927.78572-15.79932,1.12092-4.28275.23953-8.5559.45029-12.82906.5366-.00959-2.66358,0-4.63724.03836-5.52834.02854-.6035.05731-1.90664.09567-3.73656,14.54413-.38338,28.29318-1.84921,28.29318-1.84921S318.41826,212.31521,318.495,218.3322Z"/><path d="M263.53761,217.968a21.8897,21.8897,0,0,1-7.16669-3.11376c.68958-2.30909,1.4753-4.72356,2.34734-7.27207a22.42026,22.42026,0,0,0,7.272,2.17495c.2014,1.14969.59414,4.48391,1.08279,8.9966C265.885,218.543,264.70648,218.28425,263.53761,217.968Z"/><path d="M312.05648,325.44c-8.38351,56.77794-10.42442,123.2423-10.42442,123.2423s-10.44337,5.58589-21.61491,4.417c.134-2.26126.23953-4.52228.34479-6.79313a37.05,37.05,0,0,0,4.12954-.048,53.03131,53.03131,0,0,0,8.87216-1.34127,54.36616,54.36616,0,0,0,8.49859-2.68277c-2.89352.62292-5.80623,1.13051-8.70935,1.54267a77.03609,77.03609,0,0,1-8.73813.75695c-1.32209.02854-2.64441,0-3.9569-.07672.14362-3.20019.27789-6.40974.44069-9.61952l.67064-18.25215c.44069-12.17761.6994-24.35522,1.054-36.53284.20116-12.17761.47905-24.35545.6035-36.54242l.14386-18.27133c-.02878-6.09372.01918-12.1872-.05755-18.28092-.35438,6.08389-.58455,12.168-.88139,18.26174l-.68046,18.2615c-.4311,12.16826-.6994,24.34587-1.04419,36.52348-.19158,12.1872-.47906,24.36482-.60374,36.54266l-.14362,18.2711q.01439,4.81467.00959,9.60993a28.318,28.318,0,0,1-4.13913-.57473,15.78141,15.78141,0,0,1-7.46375-3.54522l-.22035-.19158-.24912-.03836a.10343.10343,0,0,1-.04772-.00959c-.19181-4.59877-.393-9.19777-.575-13.79677l-1.12092-22.41045c-.96771-14.87933-1.15929-29.826-1.77261-44.77273q-.50316-11.20967-1.21683-22.41022c-.48865-7.46376-1.00607-14.92751-1.7726-22.37209-.7759-7.44434-1.5808-14.88892-2.68254-22.28578q-1.6098-11.10931-4.072-22.0652c-2.3857-16.08679-6.60155-27.4022,1.73424-55.10135a20.24939,20.24939,0,0,0,6.87921,4.01456,41.07414,41.07414,0,0,0,3.96649,1.19765c1.73425,16.00048,4.51269,44.32244,4.51269,45.05061,0,.96771-3.65048,16.45077-4.08158,18.81729s1.50431,9.88782,4.83853,17.524,6.13185,2.36652,6.13185,2.36652c4.61818,6.66845,7.416.757,7.416.757,5.9115,5.9115,5.3749-3.12347,5.3749-3.12347,3.87083,1.0732,5.00134-.93893,4.83853-3.43972-.25871-4.0624-6.4481-4.51268-8.17275-12.04358-1.26478-5.52811-1.17846-8.06725,0-8.60385,1.18805-.53637,5.05888,7.205,9.57156,10.86511,2.56769,2.06945,3.53539.42175,3.89-1.39881a4.72688,4.72688,0,0,0-1.01566-3.85164c-.98689-1.236-2.33775-4.05281-3.0851-10.453-1.29355-10.97061-7.09-10.97061-7.09-10.97061s-.15344-9.88759-.28748-20.64721a10.6368,10.6368,0,0,0,3.66007.27789,10.053,10.053,0,0,0,3.62147-1.14033,12.74489,12.74489,0,0,0,5.03011-5.624,22.903,22.903,0,0,0,2.01213-7.09978,25.723,25.723,0,0,0,0-6.59173,137.84126,137.84126,0,0,0,14.113-2.40488C318.72493,237.37966,318.43745,282.27683,312.05648,325.44Z"/><path d="M295.18349,451.31921a27.02644,27.02644,0,0,0,.742,8.37321,21.63143,21.63143,0,0,0,3.35785,7.56247,20.60438,20.60438,0,0,0,5.94635,5.62776,25.77969,25.77969,0,0,0,7.6151,3.14312,67.78191,67.78191,0,0,1,16.21358,5.56647c2.52231,1.34267,5.08274,2.89868,6.77886,5.36087a5.58138,5.58138,0,0,1,.89,4.286,8.85282,8.85282,0,0,1-2.19974,3.76814l-.036.04023-.04585.01965a21.66233,21.66233,0,0,1-6.05208,1.49074,34.6788,34.6788,0,0,1-6.21091.18362,46.145,46.145,0,0,1-12.19188-2.38032l-5.78449-2.12862c-1.91786-.66315-3.84883-1.28443-5.80927-1.80442a79.62826,79.62826,0,0,0-11.96358-2.19225c-2.01869-.24936-4.05094-.42246-6.10144-.62105a32.52562,32.52562,0,0,1-6.25582-1.05262,4.12576,4.12576,0,0,1-.80022-.30409,7.68011,7.68011,0,0,1-.793-.39555l-.74829-.5518a6.89819,6.89819,0,0,1-.625-.6711,7.26859,7.26859,0,0,1-1.39741-3.14967,19.43259,19.43259,0,0,1-.08093-6.39781,62.49767,62.49767,0,0,1,3.00931-12.04474,25.95558,25.95558,0,0,0,1.2842-5.90448,12.19194,12.19194,0,0,0-.07439-3.00745,5.915,5.915,0,0,0-1.06034-2.76464l.12211-.13146a5.92778,5.92778,0,0,1,1.35975,2.8133,12.72547,12.72547,0,0,1,.2966,3.11925,24.02762,24.02762,0,0,1-.967,6.16343c-.541,1.98336-1.06081,3.94684-1.48022,5.9391a49.12646,49.12646,0,0,0-.97917,5.98144,17.92293,17.92293,0,0,0,.23813,5.84787,5.71552,5.71552,0,0,0,1.12022,2.39388,5.29544,5.29544,0,0,0,.42455.44865l.4952.35415a6.01275,6.01275,0,0,0,.58736.27719,2.87513,2.87513,0,0,0,.63812.23087,33.01838,33.01838,0,0,0,5.87384.8966c2.03249.2014,4.08907.38081,6.1419.63835a79.17077,79.17077,0,0,1,12.18791,2.44325q2.99225.85928,5.90448,1.96184l5.70027,2.29845a45.71739,45.71739,0,0,0,11.79189,2.82943,29.80935,29.80935,0,0,0,6.07688.03369,21.20312,21.20312,0,0,0,5.87875-1.34735l-.08164.05965a7.76645,7.76645,0,0,0,2.05424-3.50428,4.77849,4.77849,0,0,0-.88116-3.79832,10.99185,10.99185,0,0,0-3.0182-2.78639,26.84106,26.84106,0,0,0-3.67621-2.00325,56.33194,56.33194,0,0,0-7.929-2.85119c-2.71412-.80466-5.41467-1.44372-8.21837-2.09307a16.099,16.099,0,0,1-2.1029-.61683c-.69426-.22222-1.36957-.50058-2.04114-.7883-.68233-.26034-1.32045-.629-1.98079-.94057-.633-.368-1.284-.70642-1.88793-1.124a20.55288,20.55288,0,0,1-6.1929-6.16506,24.00748,24.00748,0,0,1-3.239-16.66012Z"/><path d="M281.66344,469.006a21.22933,21.22933,0,0,0,.90292,3.43715,6.73037,6.73037,0,0,0,.81472,1.46033,7.44271,7.44271,0,0,0,1.27648,1.232,3.17413,3.17413,0,0,1-1.778-.74479,4.3314,4.3314,0,0,1-1.14385-1.61284,5.61957,5.61957,0,0,1-.37239-1.89822A4.7703,4.7703,0,0,1,281.66344,469.006Z"/><path d="M263.67164,459.32752c.31415.97753.48655,1.89494.81847,2.70686a3.36484,3.36484,0,0,0,.622,1.08069,3.18975,3.18975,0,0,0,1.14034.72911,1.84889,1.84889,0,0,1-1.57659-.18269,2.63529,2.63529,0,0,1-1.01776-1.29542,4.16592,4.16592,0,0,1-.27673-1.537A3.77338,3.77338,0,0,1,263.67164,459.32752Z"/><path d="M270.21268,473.86538c-2.16944,4.69812,0,15.78778,0,15.78778l-2.02451,12.10068h19.35675v-9.19717s27.09945,9.03315,36.77783,9.19446,10.001-6.93617,10.001-6.93617-10.001,4.83919-27.09945-2.25829-29.68035-4.83919-34.19693-7.42009c-2.84461-1.62549-3.25779-6.06632-2.4485-11.46876"/><path d="M296.1629,462.20865c3.58053.34783,7.12458.89308,10.65248,1.52232,3.53048.621,7.03616,1.36349,10.53015,2.199,1.74243.44865,3.48019.88888,5.22168,1.45285.43579.14666.86713.2966,1.31882.48818a3.61456,3.61456,0,0,1,.34806.15719,2.56637,2.56637,0,0,1,.39742.22151c.07813.054.15883.11135.229.16842l.14643.15883a3.59915,3.59915,0,0,1,.27531.32374,5.8445,5.8445,0,0,1,1.061,2.85,5.29039,5.29039,0,0,1-.52864,2.959,5.74492,5.74492,0,0,1-2.00723,2.119,11.58677,11.58677,0,0,1-5.25958,1.45682,13.583,13.583,0,0,0,4.74637-2.1719,4.77578,4.77578,0,0,0,1.45519-1.89915,4.20189,4.20189,0,0,0,.20818-2.27506,4.91663,4.91663,0,0,0-.91437-2.07412,1.90311,1.90311,0,0,0-.16889-.17778l-.08234-.08655a.36831.36831,0,0,1-.04912-.01824,1.4812,1.4812,0,0,0-.19555-.08959,2.4134,2.4134,0,0,0-.26854-.1055c-.37894-.14058-.79975-.2669-1.21776-.385-1.67787-.49122-3.41328-.91835-5.14238-1.33308l-10.39846-2.577C303.05473,464.20722,299.59536,463.28325,296.1629,462.20865Z"/><path d="M314.50478,466.17077s-4.38306,5.63883-4.95222,9.68524c0,0-10.88106-3.56853-13.5878-14.27014Z"/><path d="M257.81,448.24346a34.81578,34.81578,0,0,1,.25356,6.15641,20.0702,20.0702,0,0,1-1.12349,6.16927,36.245,36.245,0,0,0-1.90056,5.62472,11.60422,11.60422,0,0,0-.1186,2.80347,16.28568,16.28568,0,0,0,.542,2.82826l-.35953-.47835a31.80016,31.80016,0,0,0,3.32744,1.83833c1.15039.56725,2.32535,1.09636,3.53,1.55367a48.61633,48.61633,0,0,0,7.4544,2.26663,25.76058,25.76058,0,0,1-3.94708-.28935,30.38967,30.38967,0,0,1-3.89305-.82853,35.00012,35.00012,0,0,1-3.77421-1.30665,30.38945,30.38945,0,0,1-3.62709-1.78687l-.26713-.15766-.09263-.32117a18.01323,18.01323,0,0,1-.65707-3.15644,11.26926,11.26926,0,0,1,.14924-3.283,28.222,28.222,0,0,1,2.18921-5.86893,23.32905,23.32905,0,0,0,1.5677-5.7129C257.39173,452.30539,257.61512,450.283,257.81,448.24346Z"/><path d="M270.21268,489.65316H252.21885c2.5809-2.90351,2.41959-17.58238,2.41959-17.58238a34.369,34.369,0,0,0,15.57424,4.93519Z"/><path d="M301.8663,490.57533l16.68149,5.30678c1.16121-7.966,9.17007-14.34505,9.17007-14.34505-4.5321-2.47646-14.2721-4.53109-14.2721-4.53109S306.5093,479.23823,301.8663,490.57533Z"/></svg>