<svg xmlns="http://www.w3.org/2000/svg" enable-background="new 0 0 512 512" viewBox="0 0 512 512"><path fill="#ebdee5" d="M256,507.1c92.6,0,173.5-50.1,217-124.7c-43.2-75-124.2-125.5-217-125.5S82.2,307.3,39,382.4
		C82.5,457,163.4,507.1,256,507.1z"/><path fill="#fff" d="M78.5,330.7c-15.3,15.4-28.6,32.7-39.5,51.7c10.9,18.7,24.2,35.9,39.5,51.2V330.7z"/><path fill="#c6bec3" d="M382,290.6v136c0,16.7-14,30.4-30.7,30.4h-246c42,31,94.2,50.2,150.7,50.2
		c92.6,0,173.7-50.2,217.3-124.8C451.3,344.4,419,312.6,382,290.6z"/><rect width="10" height="129" x="251" y="297" fill="#c6bec3"/><polygon fill="#f29f18" points="255.9 297.2 255.9 297.2 227.4 268.7 227.4 228.9 284.3 228.9 284.3 268.7"/><path fill="#f29f18" d="M324.6 155.1h24.5c13.5 0 24.5-11 24.5-24.5v0c0-13.5-11-24.5-24.5-24.5h-24.5V155.1zM187.3 155.1h-24.5c-13.5 0-24.5-11-24.5-24.5v0c0-13.5 11-24.5 24.5-24.5h24.5V155.1z"/><path fill="#f4bc62" d="M256,238.8L256,238.8c-44.4,0-80.4-36-80.4-80.4v-55.9c0-44.4,36-80.4,80.4-80.4h0
		c44.4,0,80.4,36,80.4,80.4v55.9C336.4,202.8,300.4,238.8,256,238.8z"/><path fill="#f29f18" d="M255.8,22h0.1c-4.2,0-8.2,0.4-12.2,1c38.6,5.9,68.3,39.3,68.3,79.5v55.9
		c0,40.3-29.6,73.7-68.2,79.6c4,0.6,8.1,1,12.2,1h-0.2c44.4,0,80.2-36.2,80.2-80.6v-55.9C336,58.1,300.2,22,255.8,22z"/><rect width="9.8" height="9.8" x="344.3" y="125.7" fill="#734b0b"/><rect width="9.8" height="9.8" x="157.9" y="125.7" fill="#734b0b"/><rect width="25" height="10" x="211" y="115" fill="#595959"/><rect width="10" height="19" x="231" y="135" fill="#595959"/><rect width="25" height="10" x="276" y="115" fill="#595959"/><rect width="10" height="19" x="271" y="135" fill="#595959"/><path fill="#ebdee5" d="M222.3 178.9l-7.9 5.8-27-36.9-30.1-41.1c1.8-.4 3.7-.7 5.6-.7h6.1l18.4 25.2L222.3 178.9zM354.8 106.7l-30.1 41.1-27 36.9-7.9-5.8 34.9-47.7 18.4-25.2h6.1C351.1 106 353 106.3 354.8 106.7z"/><path fill="#ebdee5" d="M176.7,172c6.3,38,39.4,67.2,79.3,67.2l0,0c39.9,0,73-29.2,79.3-67.2H176.7z"/><path fill="#115fa6" d="M272.5,429.5c-5-2.6-10.6-4-16.6-4c-5.9,0-11.5,1.4-16.5,3.9l-69.8-41.1l-19.9,33.8l69.7,41.1
		c0.4,12.5,7.1,23.4,17,29.6v13.5c6.5,0.5,13,0.8,19.6,0.8c6.6,0,13.1-0.3,19.6-0.8v-13.7c9.7-6.3,16.3-17,16.7-29.3l70-41.2
		l-19.9-33.8L272.5,429.5z"/><path fill="#1889f2" d="M256,336.4c-69.2,0-125.5,56.3-125.5,125.5c0,4,0.2,7.9,0.6,11.8c9.9,5.7,20.1,10.7,30.8,15
		c-2.4-8.5-3.7-17.5-3.7-26.8c0-54,43.9-98,98-98c54,0,98,43.9,98,98c0,9.3-1.3,18.3-3.7,26.8c10.6-4.3,20.9-9.3,30.8-15
		c0.4-3.9,0.6-7.8,0.6-11.8C381.5,392.7,325.2,336.4,256,336.4z"/><path fill="#3f3f3f" d="M318.4,46.8L318.4,46.8l0,40.8c0,10.2,8.3,18.5,18.5,18.5h12.4V77.7
		C349.2,60.6,335.4,46.8,318.4,46.8z"/><path fill="#999" d="M193.8,16.7H215v58c0,17.4-14.1,31.4-31.4,31.4h-21.2v-58C162.4,30.7,176.5,16.7,193.8,16.7
		z"/><path fill="#595959" d="M215,16.7L215,16.7l0,58.6c0,17-13.8,30.8-30.8,30.8h0V47.5C184.2,30.5,198,16.7,215,16.7z"/><path fill="#3f3f3f" d="M297.3,4.9h-70c-6.8,0-12.3,5.5-12.3,12.3v47.6c0,13.2,10.7,23.9,23.9,23.9h110.2v-32
		C349.2,28.1,326,4.9,297.3,4.9z"/><path fill="#595959" d="M266.5,4.9h-39.1c-6.8,0-12.3,5.5-12.3,12.3v47.6c0,13.2,10.7,23.9,23.9,23.9h56.4
		c12.7,0,23-10.3,23-23v-9C318.4,28.1,295.1,4.9,266.5,4.9z"/><line x1="334" x2="334" y1="269.2" y2="269.2" fill="none" stroke="#0d0d0d" stroke-linejoin="round" stroke-miterlimit="10" stroke-width="10"/><path fill="#fff" d="M255.9 297.2L234.1 319l-51.2-51.3c14.4-4.4 29-7.5 44.6-9.2v10.2L255.9 297.2 255.9 297.2zM328.8 267.6l-51.3 51.2L256 297.2l28.5-28.5v-10.2C299.1 260.1 314.5 263.2 328.8 267.6z"/><path fill="#0a3a66" d="M256,507.1c6.6,0,13.1-0.3,19.6-0.8v-34.9H256V507.1z"/><rect width="19.6" height="100.4" x="309" y="386.8" fill="#0a3a66" transform="rotate(-120 318.76 436.973)"/><path fill="#115fa6" d="M307.6,347.5c-0.6,9.8-2,19.5-4.1,28.8c30.1,16.7,50.5,48.9,50.5,85.7
		c0,9.3-1.3,18.3-3.7,26.8c10.6-4.3,20.9-9.3,30.8-15c0.4-3.9,0.6-7.8,0.6-11.8C381.5,411.1,351.2,367.3,307.6,347.5z"/><circle cx="256" cy="462" r="36.5" fill="#0a3a66"/><path fill="#c6bec3" d="M256,171.6l5.3,5.3c1.7,1.7,1.7,4.5,0,6.2l-3.8,3.8c-0.8,0.8-2,1.3-3.1,1.3H228
		c-2.4,0-4.4,2-4.4,4.4v1c0,2.4,2,4.4,4.4,4.4h55.9c2.4,0,4.4,2,4.4,4.4v0c0,2.4-2,4.4-4.4,4.4h-28h-28c-2.4,0-4.4,2-4.4,4.4v1
		c0,2.4,2,4.4,4.4,4.4h36c1.2,0,2.3,0.5,3.1,1.3l0.4,0.4c1.7,1.7,1.7,4.5,0,6.2L257.3,235c-0.8,0.8-1.3,1.9-1.3,3.1v0.7
		c39.9,0,73-29.1,79.3-67.2H256z"/></svg>