<svg xmlns="http://www.w3.org/2000/svg" enable-background="new 0 0 512 512" viewBox="0 0 512 512"><path fill="#115fa6" d="M256,507.1c92.6,0,173.5-50.1,217-124.7c-43.2-75-124.2-125.5-217-125.5S82.2,307.3,39,382.4
		C82.5,457,163.4,507.1,256,507.1z"/><path fill="#1889f2" d="M78,330.7c-15,15.4-28.6,32.7-39.5,51.7C49.5,401.1,63,418.3,78,433.6V330.7z"/><path fill="#0a3a66" d="M382,290.6v136c0,16.7-14,30.4-30.7,30.4h-246c42,31,94.2,50.2,150.7,50.2
			c92.6,0,173.7-50.2,217.2-124.8C451.3,344.4,419,312.6,382,290.6z"/><polygon fill="#f29f18" points="255.9 297.2 255.9 297.2 227.4 268.7 227.4 228.9 284.3 228.9 284.3 268.7"/><path fill="#e9f449" d="M162.8,238.6L162.8,238.6c-23,0-41.7-18.7-41.7-41.7v0c0-23,18.7-41.7,41.7-41.7h41.7v41.7
		C204.5,219.9,185.9,238.6,162.8,238.6z"/><path fill="#e2f200" d="M186 155v24.1c0 23-18.3 41.7-41.4 41.7l0 0c-6.9 0-13.3-1.7-19-4.7 6.9 13.4 21.2 22.5 37.3 22.5l0 0c23 0 42-18.7 42-41.7V155H186zM349.5 238.6L349.5 238.6c23 0 41.7-18.7 41.7-41.7v0c0-23-18.7-41.7-41.7-41.7h-41.7v41.7C307.8 219.9 326.4 238.6 349.5 238.6z"/><path fill="#6b7300" d="M370.5,160.9c3.6,6.2,5.7,13.4,5.7,21v0c0,23-18.7,41.7-41.7,41.7l0,0
		c-7.7,0-14.9-2.1-21-5.7c7.2,12.4,20.6,20.7,36,20.7h0c23,0,41.7-18.7,41.7-41.7v0C391.2,181.5,382.9,168.1,370.5,160.9z"/><path fill="#f29f18" d="M324.7 155.1h24.5c13.5 0 24.5-11 24.5-24.5v0c0-13.5-11-24.5-24.5-24.5h-24.5V155.1zM187.3 155.1h-24.5c-13.5 0-24.5-11-24.5-24.5v0c0-13.5 11-24.5 24.5-24.5h24.5V155.1z"/><path fill="#f4bc62" d="M256,238.8L256,238.8c-44.4,0-80.4-36-80.4-80.4v-55.9c0-44.4,36-80.4,80.4-80.4h0
		c44.4,0,80.4,36,80.4,80.4v55.9C336.4,202.8,300.4,238.8,256,238.8z"/><rect width="25" height="10" x="211" y="115" fill="#595959"/><path fill="#595959" d="M241,154h-10v-14h-7v-10h12.4c2.7,0,4.6,2.6,4.6,5.4V154z"/><rect width="25" height="10" x="276" y="115" fill="#595959"/><path fill="#595959" d="M281,154h-10v-18.6c0-2.7,1.9-5.4,4.6-5.4H288v10h-7V154z"/><rect width="9.8" height="9.8" x="344.3" y="125.7" fill="#734b0b"/><rect width="9.8" height="9.8" x="157.9" y="125.7" fill="#734b0b"/><path fill="#f22e24" d="M255.9,188.7c-1.3,0-2.5-0.5-3.5-1.4l-12.2-12.2l6.9-6.9l8.7,8.7l8.6-8.6l6.9,6.9
				l-12.1,12.1C258.4,188.3,257.2,188.7,255.9,188.7z"/><path fill="#f29f18" d="M255.8,22h0.1c-4.2,0-8.2,0.4-12.2,1c38.6,5.9,68.3,39.3,68.3,79.5v55.9
		c0,40.3-29.6,73.7-68.2,79.6c4,0.6,8.1,1,12.2,1h-0.2c44.4,0,80.2-36.2,80.2-80.6v-55.9C336,58.1,300.2,22,255.8,22z"/><line x1="334" x2="334" y1="269.2" y2="269.2" fill="none" stroke="#0d0d0d" stroke-linejoin="round" stroke-miterlimit="10" stroke-width="10"/><rect width="69.4" height="44.3" x="295.2" y="374" fill="#c6bec3"/><path fill="#ebdee5" d="M295.2,402.1H331c10.1,0,18.3-8.2,18.3-18.3V374h-54V402.1z"/><rect width="9" height="24" x="325" y="362" fill="#0a3a66"/><rect width="10" height="33" x="184" y="379" fill="#c6bec3"/><rect width="77.8" height="28.9" x="150" y="353.1" fill="#c6bec3"/><path fill="#ebdee5" d="M204.2,367.5H150v-14.4h63.4v5.1C213.5,363.4,209.3,367.5,204.2,367.5z"/><path fill="#c6bec3" d="M78,433.5c40,39.1,92,65.4,150,71.9V409H78V433.5z"/><path fill="#ebdee5" d="M78,433.5c22,21.4,47.1,39.5,75.1,52.5h2.8c21.1,0,38.1-18,38.1-39.2V409H78V433.5z"/><path fill="#e9f449" d="M193.2,16.7L193.2,16.7l0,71c0,10.2-8.3,18.5-18.5,18.5h-12.4V47.5
		C162.4,30.5,176.2,16.7,193.2,16.7z"/><path fill="#6b7300" d="M318.4,16.7L318.4,16.7l0,71c0,10.2,8.3,18.5,18.5,18.5h12.4V47.5
		C349.2,30.5,335.4,16.7,318.4,16.7z"/><path fill="#6b7300" d="M307.1,4.9h-34.2c-9.3,0-16.9,7.6-16.9,16.9v19.7c0,26.1,21.2,47.2,47.3,47.2h46.2V47.3
		C349.5,23.9,330.5,4.9,307.1,4.9z"/><path fill="#e9f449" d="M204.7,4.9h34.5c9.3,0,16.9,7.6,16.9,16.9v19.7c0,26.1-21.2,47.2-47.3,47.2h-46.5V47.3
		C162.3,23.9,181.3,4.9,204.7,4.9z"/><path fill="#0a3a66" d="M261,297h-10v210c2,0,3.4,0.1,5,0.1s3,0,5-0.1V297z"/><path fill="#e2f200" d="M222.8,4.9h16.3c9.3,0,16.9,7.6,16.9,16.9v19.7c0,26.1-21.2,47.2-47.3,47.2h-16.4
		c-6.6,0-11.9-5.3-11.9-11.9V47.3C180.5,23.9,199.4,4.9,222.8,4.9z"/><path fill="#e2f200" d="M289.1,4.9h-16.3c-9.3,0-16.9,7.6-16.9,16.9v19.7c0,26.1,21.2,47.2,47.3,47.2h16.4
		c6.6,0,11.9-5.3,11.9-11.9V47.3C331.5,23.9,312.6,4.9,289.1,4.9z"/><path fill="#1889f2" d="M255.9,297l-21.8,21.9l-51-51.2c14.4-4.4,28.9-7.5,44.9-9.2v10.2L255.9,297L255.9,297z"/><path fill="#1889f2" d="M328.6,267.6l-51.2,51.2l-21.7-21.6l28.3-28.5v-10.2C299,260.1,314.3,263.2,328.6,267.6z"/></svg>