<svg xmlns="http://www.w3.org/2000/svg" enable-background="new 0 0 512 512" viewBox="0 0 512 512"><path fill="#115fa6" d="M473,382.4C429.5,457,348.6,507.1,256,507.1c-13.7,0-27.1-1.1-40.2-3.2
		c-23.5-3.8-45.9-10.8-66.7-20.6C103,461.5,64.5,426.1,39,382.4c43.2-75,124.2-125.5,217-125.5S429.8,307.3,473,382.4z"/><path fill="#1889f2" d="M78,330.7c-15,15.4-28.6,32.7-39.5,51.7C49.5,401.1,63,418.3,78,433.6V330.7z"/><path fill="#0a3a66" d="M382 290.6v136c0 16.7-14 30.4-30.7 30.4h-246c42 31 94.2 50.2 150.7 50.2 92.6 0 173.7-50.2 217.2-124.8C451.3 344.4 419 312.6 382 290.6zM236.4 318.8h39.2c28.7 0 52-23.3 52-52v-37.3H184.4v37.3C184.4 295.5 207.7 318.8 236.4 318.8z"/><path fill="#115fa6" d="M236.4,318.8h7.8c28.7,0,52-23.3,52-52v-37.3H184.4v37.3
		C184.4,295.5,207.7,318.8,236.4,318.8z"/><rect width="10" height="112" x="251" y="238" fill="#0a3a66"/><path fill="#0a3a66" d="M291.7,213.2h-71.4c-45.3,0-82-36.7-82-82V86.9c0-45.3,36.7-82,82-82h71.4
		c45.3,0,82,36.7,82,82v44.3C373.7,176.5,337,213.2,291.7,213.2z"/><path fill="#115fa6" d="M254.4,180.2h-34.1c-45.3,0-82-36.7-82-82V86.9c0-45.3,36.7-82,82-82h34.1
		c45.3,0,82,36.7,82,82v11.3C336.4,143.5,299.7,180.2,254.4,180.2z"/><path fill="#f4bc62" d="M175.6,100c0,1,0.4,1.7,0.4,2.5v55.9c0,44.4,35.8,80.6,80.2,80.6h-0.3
		c44.4,0,80.1-36.2,80.1-80.6v-55.9c0-0.8,0.4-1.5,0.4-2.5H175.6z"/><path fill="#f29f18" d="M311.9,100c0,1,0.1,1.7,0.1,2.5v55.9c0,40.3-29.6,73.7-68.2,79.6c4,0.6,8.1,1,12.2,1h-0.2
		c44.4,0,80.2-36.2,80.2-80.6v-55.9c0-0.8,0.4-1.5,0.4-2.5H311.9z"/><rect width="160.9" height="32" x="175.6" y="68" fill="#115fa6"/><rect width="160.9" height="32" x="175.6" y="68" fill="#017068"/><path fill="#00bfb6" d="M305.9,163.8h-99.9c-16.8,0-30.5-13.7-30.5-30.5V100h160.9v33.3
		C336.4,150.1,322.8,163.8,305.9,163.8z"/><path fill="#fff" d="M254,130h-48.6c-16.5,0-29.9-13.4-29.9-29.9v0H284v0C284,116.6,270.6,130,254,130z"/><rect width="25" height="10" x="211" y="115" fill="#999"/><rect width="10" height="19" x="231" y="135" fill="#999"/><rect width="25" height="10" x="276" y="115" fill="#999"/><rect width="10" height="19" x="271" y="135" fill="#999"/><rect width="9.8" height="9.8" x="210.9" y="79.1" fill="#00bfb6"/><rect width="9.8" height="9.8" x="251.1" y="79.1" fill="#00bfb6"/><rect width="9.8" height="9.8" x="291.3" y="79.1" fill="#00bfb6"/><path fill="#595959" d="M223.6,181.5h64.7v0c0-9.8-7.9-17.7-17.7-17.7h-29.4C231.5,163.8,223.6,171.7,223.6,181.5
		L223.6,181.5z"/><path fill="#1889f2" d="M250.6,37.2h-49.4c-6.5,0-11.7-5.2-11.7-11.7v0c0-6.5,5.2-11.7,11.7-11.7h49.4
		c6.5,0,11.7,5.2,11.7,11.7v0C262.3,32,257,37.2,250.6,37.2z"/><path fill="#6b7300" d="M355,350H156v136.6c20,8.1,38.8,14,59.6,17.3c13.1,2.1,26.4,3.2,40,3.2
		c35.4,0,69.4-7.3,99.4-20.5V350z"/><path fill="#e2f200" d="M283.3,478.7H156.4v-129h175.1v80.8C331.5,457.1,309.9,478.7,283.3,478.7z"/><polygon fill="#fff" points="277.6 415.2 256 393.6 234.4 415.2 234.4 349.7 277.6 349.7"/><rect width="76" height="10" x="256" y="469" fill="#3f3f3f"/><g><rect width="39" height="10" x="293" y="447" fill="#3f3f3f"/></g></svg>