<svg xmlns="http://www.w3.org/2000/svg" enable-background="new 0 0 512 512" viewBox="0 0 512 512"><path fill="#00bfb6" d="M256,507.1c92.6,0,173.5-50.1,217-124.7c-43.2-75-124.2-125.5-217-125.5S82.2,307.3,39,382.4
		C82.5,457,163.4,507.1,256,507.1z"/><path fill="#ebdee5" d="M256,256.8c-27.8,0-54.4,4.5-79.4,12.9c6.2,38.3,39.4,67.6,79.4,67.6s73.2-29.3,79.4-67.6
		C310.4,261.3,283.7,256.8,256,256.8z"/><path fill="#fff" d="M176.6,269.7c5.2,32.4,29.8,58.3,61.5,65.6c11.6-4.4,19.9-15.6,19.9-28.7v-46.9
		c0-0.9-0.1-1.9-0.2-2.8c-0.6,0-1.2,0-1.8,0C228.3,256.8,201.5,261.3,176.6,269.7z"/><path fill="#3dcac3" d="M78.5,330.7c-15.3,15.4-28.6,32.7-39.5,51.7c10.9,18.7,24.2,35.9,39.5,51.2V330.7z"/><path fill="#017068" d="M382,290.6v136c0,16.7-14,30.4-30.7,30.4h-246c42,31,94.2,50.2,150.7,50.2
		c92.6,0,173.7-50.2,217.3-124.8C451.3,344.4,419,312.6,382,290.6z"/><path fill="#f29f18" d="M256,297.2L256,297.2c-15.7,0-28.4-12.7-28.4-28.4v-39.9h56.9v39.9
		C284.4,284.5,271.7,297.2,256,297.2z"/><path fill="#595959" d="M126,293.5V336h9v-48.2C132,289.6,129,291.5,126,293.5z"/><path fill="#fff" d="M170.8,418.8h-20.9V409h16v-32.3c0-19.5-15.9-35.4-35.4-35.4S95,357.2,95,376.7V409h16v9.8
				H90.1c-2.7,0-4.9-2.2-4.9-4.9v-37.2c0-24.9,20.3-45.2,45.2-45.2s45.2,20.3,45.2,45.2v37.2C175.7,416.6,173.5,418.8,170.8,418.8z"/><path fill="#f29f18" d="M324.6 155.1h24.5c13.5 0 24.5-11 24.5-24.5v0c0-13.5-11-24.5-24.5-24.5h-24.5V155.1zM187.3 155.1h-24.5c-13.5 0-24.5-11-24.5-24.5v0c0-13.5 11-24.5 24.5-24.5h24.5V155.1z"/><path fill="#f4bc62" d="M256,238.8L256,238.8c-44.4,0-80.4-36-80.4-80.4v-55.9c0-44.4,36-80.4,80.4-80.4h0
		c44.4,0,80.4,36,80.4,80.4v55.9C336.4,202.8,300.4,238.8,256,238.8z"/><path fill="#f29f18" d="M255.8,22h0.1c-4.2,0-8.2,0.4-12.2,1c38.6,5.9,68.3,39.3,68.3,79.5v55.9
		c0,40.3-29.6,73.7-68.2,79.6c4,0.6,8.1,1,12.2,1h-0.2c44.4,0,80.2-36.2,80.2-80.6v-55.9C336,58.1,300.2,22,255.8,22z"/><rect width="9.8" height="9.8" x="344.3" y="125.7" fill="#734b0b"/><rect width="9.8" height="9.8" x="157.9" y="125.7" fill="#734b0b"/><path fill="#595959" d="M193.2 16.7L193.2 16.7l0 71c0 10.2-8.3 18.5-18.5 18.5h-12.4V47.5C162.4 30.5 176.2 16.7 193.2 16.7zM318.4 16.7L318.4 16.7l0 71c0 10.2 8.3 18.5 18.5 18.5h12.4V47.5C349.2 30.5 335.4 16.7 318.4 16.7z"/><path fill="#017068" d="M201.4,4.9h108.8c21.5,0,39,17.5,39,39v44.9H162.4V43.9C162.4,22.4,179.9,4.9,201.4,4.9z"/><rect width="25" height="10" x="211" y="115" fill="#595959"/><rect width="10" height="19" x="231" y="135" fill="#595959"/><rect width="25" height="10" x="276" y="115" fill="#595959"/><rect width="10" height="19" x="271" y="135" fill="#595959"/><path fill="#ebdee5" d="M222.3 178.9l-7.9 5.8-27-36.9-30.1-41.1c1.8-.4 3.7-.7 5.6-.7h6.1l18.4 25.2L222.3 178.9zM354.8 106.7l-30.1 41.1-27 36.9-7.9-5.8 34.9-47.7 18.4-25.2h6.1C351.1 106 353 106.3 354.8 106.7z"/><path fill="#00bfb6" d="M176.7,171.6c6.3,38.1,39.4,67.2,79.3,67.2l0,0c39.9,0,73-29.1,79.3-67.2H176.7z"/><path fill="#595959" d="M376.6,287.8v101.6h9.8v-95.9C383.2,291.5,379.9,289.6,376.6,287.8z"/><circle cx="381.5" cy="407.5" r="26" fill="#fff"/><rect width="9.8" height="26" x="106.2" y="400.9" fill="#ebdee5"/><rect width="9.8" height="26" x="144.9" y="400.9" fill="#ebdee5"/><path fill="#ebdee5" d="M389.6,382.8c0.8,2.5,1.3,5.2,1.3,8.1c0,14.4-11.6,26-26,26c-2.8,0-5.5-0.5-8.1-1.3
		c3.4,10.4,13.2,18,24.7,18c14.4,0,26-11.6,26-26C407.5,396,400,386.2,389.6,382.8z"/><rect width="9.8" height="9.8" x="376.6" y="402.6" fill="#c6bec3"/><path fill="#00bfb6" d="M200.7,4.9h77c21.1,0,38.3,17.1,38.3,38.3v0c0,16.9-13.7,30.7-30.7,30.7H162.4V43.2
		C162.4,22,179.5,4.9,200.7,4.9z"/><path fill="#3dcac3" d="M250.6,37.2h-49.4c-6.5,0-11.7-5.2-11.7-11.7v0c0-6.5,5.2-11.7,11.7-11.7h49.4
		c6.5,0,11.7,5.2,11.7,11.7v0C262.2,32,257,37.2,250.6,37.2z"/><path fill="#017068" d="M256,171.6l5.3,5.3c1.7,1.7,1.7,4.5,0,6.2l-3.8,3.8c-0.8,0.8-2,1.3-3.1,1.3H228
		c-2.4,0-4.4,2-4.4,4.4v1c0,2.4,2,4.4,4.4,4.4h55.9c2.4,0,4.4,2,4.4,4.4v0c0,2.4-2,4.4-4.4,4.4h-28h-28c-2.4,0-4.4,2-4.4,4.4v1
		c0,2.4,2,4.4,4.4,4.4h36c1.2,0,2.3,0.5,3.1,1.3l0.4,0.4c1.7,1.7,1.7,4.5,0,6.2L257.3,235c-0.8,0.8-1.3,1.9-1.3,3.1v0.7
		c39.9,0,73-29.1,79.3-67.2H256z"/><rect width="10" height="27" x="251" y="33" fill="#f22e24"/><rect width="27" height="10" x="242" y="42" fill="#f22e24"/></svg>