<svg xmlns="http://www.w3.org/2000/svg" enable-background="new 0 0 512 512" viewBox="0 0 512 512"><path fill="#ebdee5" d="M256,507.1c92.6,0,173.5-50.1,217-124.7c-43.2-75-124.2-125.5-217-125.5S82.2,307.3,39,382.4
		C82.5,457,163.4,507.1,256,507.1z"/><path fill="#fff" d="M78.5,330.7c-15.3,15.4-28.6,32.7-39.5,51.7c10.9,18.7,24.2,35.9,39.5,51.2V330.7z"/><path fill="#c6bec3" d="M382,290.6v136c0,16.7-14,30.4-30.7,30.4h-246c42,31,94.2,50.2,150.7,50.2
		c92.6,0,173.7-50.2,217.2-124.8C451.3,344.4,419,312.6,382,290.6z"/><path fill="#00bfb6" d="M227.6,505.5c9.3,1.1,18.8,1.6,28.4,1.6c9.6,0,19.1-0.5,28.4-1.6V258.4
		c-9.3-1.1-18.8-1.6-28.4-1.6s-19.1,0.6-28.4,1.6V505.5z"/><path fill="#017068" d="M284,505.5V457h-56v48.5c9,1.1,18.4,1.6,28,1.6C265.6,507.1,275,506.5,284,505.5z"/><polygon fill="#f29f18" points="256 297.2 256 297.2 227.6 268.7 227.6 228.9 284.4 228.9 284.4 268.7"/><path fill="#f29f18" d="M324.7 155.1h24.5c13.5 0 24.5-11 24.5-24.5v0c0-13.5-11-24.5-24.5-24.5h-24.5V155.1zM187.3 155.1h-24.5c-13.5 0-24.5-11-24.5-24.5v0c0-13.5 11-24.5 24.5-24.5h24.5V155.1z"/><path fill="#f4bc62" d="M256,238.8L256,238.8c-44.4,0-80.4-36-80.4-80.4v-55.9c0-44.4,36-80.4,80.4-80.4h0
		c44.4,0,80.4,36,80.4,80.4v55.9C336.4,202.8,300.4,238.8,256,238.8z"/><path fill="#f29f18" d="M255.8,22h0.1c-4.2,0-8.2,0.4-12.2,1c38.6,5.9,68.3,39.3,68.3,79.5v55.9
		c0,40.3-29.6,73.7-68.2,79.6c4,0.6,8.1,1,12.2,1h-0.2c44.4,0,80.2-36.2,80.2-80.6v-55.9C336,58.1,300.2,22,255.8,22z"/><path fill="#999" d="M193.2,16.7L193.2,16.7l0,71c0,10.2-8.3,18.5-18.5,18.5h-12.4V47.5
		C162.4,30.5,176.2,16.7,193.2,16.7z"/><path fill="#3f3f3f" d="M317.8,16.7h-21.2v58c0,17.4,14.1,31.4,31.4,31.4h21.2v-58C349.2,30.7,335.1,16.7,317.8,16.7z
		"/><path fill="#595959" d="M296.8,16.7h-0.3v58c0,17.4,14.1,31.4,31.4,31.4h0.3v-58C328.3,30.7,314.2,16.7,296.8,16.7z"/><path fill="#999" d="M205.5,4.9h78.7c6.8,0,12.3,5.5,12.3,12.3v47.6c0,13.2-10.7,23.9-23.9,23.9h-79.5V17.2
		C193.1,10.4,198.7,4.9,205.5,4.9z"/><path fill="#595959" d="M223.2,4.9h61c6.8,0,12.3,5.5,12.3,12.3v47.6c0,13.2-10.7,23.9-23.9,23.9h-61.7V17.2
		C210.9,10.4,216.4,4.9,223.2,4.9z"/><rect width="25" height="10" x="211" y="115" fill="#595959"/><rect width="10" height="19" x="231" y="135" fill="#595959"/><rect width="25" height="10" x="276" y="115" fill="#595959"/><rect width="10" height="19" x="271" y="135" fill="#595959"/><path fill="#734b0b" d="M256,196.2c-13.5,0-24.5-11-24.5-24.5h9.8c0,8.1,6.6,14.7,14.7,14.7s14.7-6.6,14.7-14.7h9.8
			C280.5,185.2,269.5,196.2,256,196.2z"/><rect width="9.8" height="9.8" x="344.3" y="125.7" fill="#734b0b"/><rect width="9.8" height="9.8" x="157.9" y="125.7" fill="#734b0b"/><path fill="#fff" d="M227.6 258.4c-7.9.9-15.8 2.2-23.5 3.8l-33.3 74.2H206l-35.2 45.1 33.7 120.3c7.6 1.6 15.3 2.8 23.1 3.7V258.4zM284.4 505.5c7.8-.9 15.5-2.1 23.1-3.7l33.8-119.3L306 335.4h35.3l-33.3-73.2c-7.7-1.6-15.6-2.9-23.6-3.8V505.5z"/><path fill="#ebdee5" d="M191.9 457l12.8 44.8c7.6 1.6 15.3 2.8 23.3 3.7V457H191.9zM320.2 457H284v48.5c8-.9 15.7-2.2 23.3-3.7L320.2 457z"/><path fill="#595959" d="M376.6,287.8v101.6h9.8v-95.9C383.2,291.5,380,289.6,376.6,287.8z"/><circle cx="381.6" cy="407.5" r="26" fill="#3dcac3"/><path fill="#595959" d="M113.8,301.1v35.3h9.8v-41.7C120.3,296.8,117,298.9,113.8,301.1z"/><path fill="#3dcac3" d="M159,418.8h-20.9V409h16v-32.3c0-19.5-15.9-35.4-35.4-35.4s-35.4,15.9-35.4,35.4V409h16v9.8
				H78.4c-2.7,0-4.9-2.2-4.9-4.9v-37.2c0-24.9,20.3-45.2,45.2-45.2s45.2,20.3,45.2,45.2v37.2C163.9,416.6,161.7,418.8,159,418.8z"/><rect width="10" height="210" x="251" y="297" fill="#017068"/><rect width="9.8" height="26" x="94.4" y="400.9" fill="#00bfb6"/><rect width="9.8" height="26" x="133.1" y="400.9" fill="#00bfb6"/><polygon fill="#3dcac3" points="227.6 268.7 256 297.2 227.6 325.5"/><polygon fill="#3dcac3" points="284.4 268.7 256 297.2 284.4 325.7"/><path fill="#00bfb6" d="M389.6,382.8c0.8,2.5,1.3,5.2,1.3,8.1c0,14.4-11.6,26-26,26c-2.8,0-5.5-0.5-8.1-1.3
		c3.4,10.4,13.2,18,24.7,18c14.4,0,26-11.6,26-26C407.6,396,400,386.2,389.6,382.8z"/><rect width="9.8" height="9.8" x="376.7" y="402.6" fill="#017068"/></svg>