<svg xmlns="http://www.w3.org/2000/svg" enable-background="new 0 0 512 512" viewBox="0 0 512 512"><path fill="#3dcac3" d="M256,507.1c92.6,0,173.5-50.1,217-124.7c-43.2-75-124.2-125.5-217-125.5S82.2,307.3,39,382.4
		C82.5,457,163.4,507.1,256,507.1z"/><path fill="#00bfb6" d="M473,382.4c-38.7-67.2-107.8-114.8-188.6-123.9v10.3L256,297.2v34.3l-28.4,19.1v154.5
		l1.5,0.5c8.9,0.9,17.9,1.4,27,1.4C348.6,507.1,429.5,457,473,382.4z"/><path fill="#017068" d="M382,290.6v136c0,16.7-14,30.4-30.8,30.4h-246c42,31,94.2,50.2,150.7,50.2
		c92.6,0,173.7-50.2,217.3-124.8C451.3,344.4,419,312.6,382,290.6z"/><path fill="#595959" d="M338.8,230.9l-62.1,19.4c-13.5,4.2-27.9,4.2-41.4,0l-62.1-19.4
		c-35.8-11.2-56.2-48.8-46.1-84.9l11.2-39.9h235.4l11.2,39.9C395,182.1,374.6,219.7,338.8,230.9z"/><path fill="#999" d="M193.3,230.9c-27.1-11.2-42.5-48.8-34.9-84.9l8.5-39.9h-28.6L127.1,146
			c-10.1,36.1,10.3,73.7,46.1,84.9l62.1,19.4c6.7,2.1,13.7,3.2,20.7,3.2c-5.3,0-10.6-1.1-15.7-3.2L193.3,230.9z"/><path fill="#3f3f3f" d="M384.9,146l-11.2-39.9h-28.6l8.5,39.9c7.7,36.1-7.8,73.7-34.9,84.9l-47,19.4
			c-5.1,2.1-10.4,3.2-15.7,3.2c7,0,14-1.1,20.7-3.2l62.1-19.4C374.6,219.7,395,182.1,384.9,146z"/><polygon fill="#f29f18" points="255.9 297.2 255.9 297.2 227.4 268.7 227.4 228.9 284.3 228.9 284.3 268.7"/><path fill="#f29f18" d="M324.6 155.1h24.5c13.5 0 24.5-11 24.5-24.5v0c0-13.5-11-24.5-24.5-24.5h-24.5V155.1zM187.3 155.1h-24.5c-13.5 0-24.5-11-24.5-24.5v0c0-13.5 11-24.5 24.5-24.5h24.5V155.1z"/><path fill="#f4bc62" d="M256,238.8L256,238.8c-44.4,0-80.4-36-80.4-80.4v-55.9c0-44.4,36-80.4,80.4-80.4h0
		c44.4,0,80.4,36,80.4,80.4v55.9C336.4,202.8,300.4,238.8,256,238.8z"/><rect width="25" height="10" x="211" y="115" fill="#595959"/><path fill="#595959" d="M241,154h-10v-14h-7v-10h12.4c2.7,0,4.6,2.6,4.6,5.4V154z"/><rect width="25" height="10" x="276" y="115" fill="#595959"/><path fill="#595959" d="M281,154h-10v-18.6c0-2.7,1.9-5.4,4.6-5.4H288v10h-7V154z"/><rect width="9.8" height="9.8" x="344.3" y="125.7" fill="#734b0b"/><rect width="9.8" height="9.8" x="157.9" y="125.7" fill="#734b0b"/><path fill="#f22e24" d="M255.9,188.7c-1.3,0-2.5-0.5-3.5-1.4l-12.2-12.2l6.9-6.9l8.7,8.7l8.6-8.6l6.9,6.9l-12.1,12.1
				C258.4,188.3,257.2,188.7,255.9,188.7z"/><path fill="#f29f18" d="M255.8,22h0.1c-4.2,0-8.2,0.4-12.2,1c38.6,5.9,68.3,39.3,68.3,79.5v55.9
		c0,40.3-29.6,73.7-68.2,79.6c4,0.6,8.1,1,12.2,1h-0.2c44.4,0,80.2-36.2,80.2-80.6v-55.9C336,58.1,300.2,22,255.8,22z"/><path fill="#999" d="M227.7,16.7h28.2v34.1c0,30.5-24.7,55.3-55.3,55.3h-62.3v0C138.3,56.7,178.3,16.7,227.7,16.7z
		"/><path fill="#595959" d="M255.9,16.7L255.9,16.7l0,34.1c0,30.5-24.7,55.3-55.3,55.3h-34.1v0
		C166.4,56.7,206.5,16.7,255.9,16.7z"/><path fill="#3f3f3f" d="M284,16.7h-28.2v34.1c0,30.5,24.7,55.3,55.3,55.3h62.3v0C373.4,56.7,333.4,16.7,284,16.7z"/><path fill="#595959" d="M255.9,16.7L255.9,16.7l0,34.1c0,30.5,24.7,55.3,55.3,55.3h34.1v0
		C345.3,56.7,305.2,16.7,255.9,16.7z"/><path fill="#017068" d="M292.5,4.9h-73c-14.5,0-26.3,11.8-26.3,26.3v36.8h125.5V31.2C318.8,16.7,307,4.9,292.5,4.9z"/><path fill="#00bfb6" d="M267.2,4.9H219c-14.2,0-25.7,11.5-25.7,25.7v23H270c12.7,0,23-10.3,23-23v0
		C292.9,16.4,281.4,4.9,267.2,4.9z"/><rect width="9.8" height="9.8" x="243.7" y="360.5" fill="#017068"/><rect width="9.8" height="9.8" x="243.7" y="392.7" fill="#017068"/><path fill="#017068" d="M224.1 306.3l6.9-6.9-35.2-35.3c-3.7.9-7.3 1.9-10.9 2.9L224.1 306.3zM316 264.1l-35.2 35.3 6.9 6.9 39.1-39.3C323.3 266 319.7 265 316 264.1z"/><path fill="#595959" d="M126,293.5V336h9v-48.2C132,289.6,129,291.5,126,293.5z"/><path fill="#fff" d="M170.7,418.8h-20.9V409h16v-32.3c0-19.5-15.9-35.4-35.4-35.4S95,357.2,95,376.7V409h16v9.8
				H90.1c-2.7,0-4.9-2.2-4.9-4.9v-37.2c0-24.9,20.3-45.2,45.2-45.2s45.2,20.3,45.2,45.2v37.2C175.6,416.6,173.5,418.8,170.7,418.8z"/><rect width="9.8" height="26" x="106.2" y="400.9" fill="#ebdee5"/><rect width="9.8" height="26" x="144.9" y="400.9" fill="#ebdee5"/><path fill="#595959" d="M376.6,287.8v101.6h9.8v-95.9C383.2,291.5,379.9,289.6,376.6,287.8z"/><circle cx="381.5" cy="407.5" r="26" fill="#fff"/><path fill="#ebdee5" d="M389.6,382.8c0.8,2.5,1.3,5.2,1.3,8.1c0,14.4-11.6,26-26,26c-2.8,0-5.5-0.5-8.1-1.3
		c3.4,10.4,13.2,18,24.7,18c14.4,0,26-11.6,26-26C407.5,396,400,386.2,389.6,382.8z"/><rect width="9.8" height="9.8" x="376.6" y="402.6" fill="#c6bec3"/><path fill="#3dcac3" d="M250.5,37.2h-27.7c-6.5,0-11.7-5.2-11.7-11.7v0c0-6.5,5.2-11.7,11.7-11.7h27.7
		c6.5,0,11.7,5.2,11.7,11.7v0C262.2,32,257,37.2,250.5,37.2z"/><g><rect width="10" height="26" x="251" y="23" fill="#f22e24"/><rect width="27" height="10" x="242" y="31" fill="#f22e24"/></g></svg>