<svg xmlns="http://www.w3.org/2000/svg" enable-background="new 0 0 512 512" viewBox="0 0 512 512"><path fill="#595959" d="M327.4,217.3h-143c-23.7,0-41.4-21.9-36.3-45.1l14.3-66.1h186.8l14.6,66
		C368.8,195.3,351.2,217.3,327.4,217.3z"/><path fill="#00bfb6" d="M256,507.1c92.6,0,173.5-50.1,217-124.7c-43.2-75-124.2-125.5-217-125.5S82.2,307.3,39,382.4
		C82.5,457,163.4,507.1,256,507.1z"/><path fill="#ebdee5" d="M256,256.8c-27.8,0-54.4,4.5-79.4,12.9c6.2,38.3,39.4,67.6,79.4,67.6s73.2-29.3,79.4-67.6
		C310.4,261.3,283.7,256.8,256,256.8z"/><path fill="#fff" d="M176.6,269.7c5.2,32.4,29.8,58.3,61.5,65.6c11.6-4.4,19.9-15.6,19.9-28.7v-46.9
		c0-0.9-0.1-1.9-0.2-2.8c-0.6,0-1.2,0-1.8,0C228.3,256.8,201.5,261.3,176.6,269.7z"/><path fill="#f29f18" d="M256,297.2L256,297.2c-15.7,0-28.4-12.7-28.4-28.4v-39.9h56.9v39.9
		C284.4,284.5,271.7,297.2,256,297.2z"/><path fill="#3dcac3" d="M349.2,459L349.2,459c18.1,0,32.9-14.7,32.9-32.9V382h-65.7v44.2
		C316.3,444.3,331,459,349.2,459z"/><path fill="#3dcac3" d="M348.9,459L348.9,459c18,0,32.6-14.6,32.6-32.6V382h-65.2v44.5C316.3,444.4,330.9,459,348.9,459
		z"/><path fill="#017068" d="M369,382v44.4c0,15.8-11.4,29-26.3,32c2.1,0.4,4.4,0.6,6.6,0.6l0,0c18,0,32.8-14.6,32.8-32.6
		V382H369z"/><rect width="10" height="22" x="359" y="360" fill="#595959"/><rect width="65" height="16" x="317" y="382" fill="#ebdee5"/><rect width="13" height="16" x="369" y="382" fill="#c6bec3"/><path fill="#f29f18" d="M324.6 155.1h24.5c13.5 0 24.5-11 24.5-24.5v0c0-13.5-11-24.5-24.5-24.5h-24.5V155.1zM187.3 155.1h-24.5c-13.5 0-24.5-11-24.5-24.5v0c0-13.5 11-24.5 24.5-24.5h24.5V155.1z"/><path fill="#f4bc62" d="M256,238.8L256,238.8c-44.4,0-80.4-36-80.4-80.4v-55.9c0-44.4,36-80.4,80.4-80.4h0
		c44.4,0,80.4,36,80.4,80.4v55.9C336.4,202.8,300.4,238.8,256,238.8z"/><path fill="#f29f18" d="M255.8,22h0.1c-4.2,0-8.2,0.4-12.2,1c38.6,5.9,68.3,39.3,68.3,79.5v55.9
		c0,40.3-29.6,73.7-68.2,79.6c4,0.6,8.1,1,12.2,1h-0.2c44.4,0,80.2-36.2,80.2-80.6v-55.9C336,58.1,300.2,22,255.8,22z"/><rect width="9.8" height="9.8" x="344.3" y="125.7" fill="#734b0b"/><rect width="9.8" height="9.8" x="157.9" y="125.7" fill="#734b0b"/><path fill="#595959" d="M193.2 16.7L193.2 16.7l0 71c0 10.2-8.3 18.5-18.5 18.5h-12.4V47.5C162.4 30.5 176.2 16.7 193.2 16.7zM318.4 16.7L318.4 16.7l0 71c0 10.2 8.3 18.5 18.5 18.5h12.4V47.5C349.2 30.5 335.4 16.7 318.4 16.7z"/><path fill="#017068" d="M201.4,4.9h108.8c21.5,0,39,17.5,39,39v44.9H162.4V43.9C162.4,22.4,179.9,4.9,201.4,4.9z"/><path fill="#00bfb6" d="M200.7,4.9h77c21.1,0,38.3,17.1,38.3,38.3v0c0,16.9-13.7,30.7-30.7,30.7H162.4V43.2
		C162.4,22,179.5,4.9,200.7,4.9z"/><rect width="25" height="10" x="211" y="115" fill="#595959"/><rect width="25" height="10" x="276" y="115" fill="#595959"/><path fill="#3dcac3" d="M78.5,330.7c-15.3,15.4-28.6,32.7-39.5,51.7c10.9,18.7,24.2,35.9,39.5,51.2V330.7z"/><path fill="#017068" d="M382,290.6v136c0,16.7-14,30.4-30.7,30.4h-246c42,31,94.2,50.2,150.7,50.2
		c92.6,0,173.7-50.2,217.3-124.8C451.3,344.4,419,312.6,382,290.6z"/><path fill="#3dcac3" d="M250.6,37.2h-49.4c-6.5,0-11.7-5.2-11.7-11.7v0c0-6.5,5.2-11.7,11.7-11.7h49.4
		c6.5,0,11.7,5.2,11.7,11.7v0C262.2,32,257,37.2,250.6,37.2z"/><path fill="#595959" d="M241 154h-10v-14h-7v-10h12.4c2.7 0 4.6 2.6 4.6 5.4V154zM281 154h-10v-18.6c0-2.7 1.9-5.4 4.6-5.4H288v10h-7V154z"/><path fill="#f22e24" d="M255.9,188.7c-1.3,0-2.5-0.5-3.5-1.4l-12.2-12.2l6.9-6.9l8.7,8.7l8.6-8.6l6.9,6.9
				l-12.1,12.1C258.4,188.3,257.2,188.7,255.9,188.7z"/><rect width="10" height="27" x="251" y="33" fill="#f22e24"/><rect width="27" height="10" x="242" y="42" fill="#f22e24"/></svg>