<svg xmlns="http://www.w3.org/2000/svg" enable-background="new 0 0 512 512" viewBox="0 0 512 512"><path fill="#f22e24" d="M256,507.1c92.6,0,173.5-50.1,217-124.7c-43.2-75-124.2-125.5-217-125.5S82.2,307.3,39,382.4
		C82.5,457,163.4,507.1,256,507.1z"/><path fill="#f4756e" d="M78.5,330.7c-15.3,15.4-28.6,32.7-39.5,51.7c10.9,18.7,24.2,35.9,39.5,51.2V330.7z"/><path fill="#731611" d="M381.5,290.6v136c0,16.7-13.6,30.5-30.3,30.5h-246c42,31.4,94.2,50.1,150.7,50.1
			c92.6,0,173.5-50.2,217-124.8C451.1,344.4,419.5,312.6,381.5,290.6z"/><polygon fill="#f29f18" points="255.9 297.2 255.9 297.2 227.4 268.7 227.4 228.9 284.3 228.9 284.3 268.7"/><path fill="#f29f18" d="M324.6 155.1h24.5c13.5 0 24.5-11 24.5-24.5v0c0-13.5-11-24.5-24.5-24.5h-24.5V155.1zM187.3 155.1h-24.5c-13.5 0-24.5-11-24.5-24.5v0c0-13.5 11-24.5 24.5-24.5h24.5V155.1z"/><path fill="#f4bc62" d="M256,238.8L256,238.8c-44.4,0-80.4-36-80.4-80.4v-55.9c0-44.4,36-80.4,80.4-80.4h0
		c44.4,0,80.4,36,80.4,80.4v55.9C336.4,202.8,300.4,238.8,256,238.8z"/><path fill="#f29f18" d="M255.8,22h0.1c-4.2,0-8.2,0.4-12.2,1c38.6,5.9,68.3,39.3,68.3,79.5v55.9
		c0,40.3-29.6,73.7-68.2,79.6c4,0.6,8.1,1,12.2,1h-0.2c44.4,0,80.2-36.2,80.2-80.6v-55.9C336,58.1,300.2,22,255.8,22z"/><rect width="25" height="10" x="211" y="115" fill="#595959"/><rect width="10" height="19" x="231" y="135" fill="#595959"/><rect width="25" height="10" x="276" y="115" fill="#595959"/><rect width="10" height="19" x="271" y="135" fill="#595959"/><path fill="#734b0b" d="M256,196.2c-13.5,0-24.5-11-24.5-24.5h9.8c0,8.1,6.6,14.7,14.7,14.7s14.7-6.6,14.7-14.7h9.8
			C280.5,185.2,269.5,196.2,256,196.2z"/><rect width="9.8" height="9.8" x="344.3" y="125.7" fill="#734b0b"/><rect width="9.8" height="9.8" x="157.9" y="125.7" fill="#734b0b"/><path fill="#595959" d="M193.2 16.7L193.2 16.7l0 71c0 10.2-8.3 18.5-18.5 18.5h-12.4V47.5C162.4 30.5 176.2 16.7 193.2 16.7zM318.4 16.7L318.4 16.7l0 71c0 10.2 8.3 18.5 18.5 18.5h12.4V47.5C349.2 30.5 335.4 16.7 318.4 16.7z"/><path fill="#731611" d="M201.4,4.9h108.8c21.5,0,39,17.5,39,39v44.9H162.4V43.9C162.4,22.4,179.9,4.9,201.4,4.9z"/><path fill="#f22e24" d="M201.4,4.9h68.4c21.5,0,39,17.5,39,39v44.4H162.4V43.9C162.4,22.4,179.9,4.9,201.4,4.9z"/><path fill="#f22e24" d="M200.7,50h110.3c21.1,0,38.3,17.1,38.3,38.3v0H162.4v0C162.4,67.1,179.5,50,200.7,50z"/><path fill="#f4756e" d="M200.7,50h69.9c21.1,0,38.3,17.1,38.3,38.3v0H162.4v0C162.4,67.1,179.5,50,200.7,50z"/><path fill="#fff" d="M256,21.6c-15.7,0-28.4,11.4-28.4,28.4h56.9C284.4,33,271.7,21.6,256,21.6z"/><path fill="#f4756e" d="M255.9 297.2L234.1 319l-51.2-51.3c14.4-4.4 29-7.5 44.6-9.2v10.2L255.9 297.2 255.9 297.2zM328.8 267.6l-51.3 51.2L256 297.2l28.5-28.5v-10.2C299.1 260.1 314.5 263.2 328.8 267.6z"/><path fill="#ebdee5" d="M382,455H130v18.5c37,21.4,80.3,33.6,126,33.6s89-12.2,126-33.6V455z"/><rect width="251.1" height="52.5" x="130.4" y="402.1" fill="#ebdee5"/><rect width="251.1" height="52.5" x="130.4" y="349.7" fill="#ebdee5"/><path fill="#fff" d="M130 473.5c10 5.6 20.4 11.5 30.9 14.5h76.3c18.7 0 33.8-14 33.8-33H130V473.5zM237.2 436H130.4v-33.8H271v0C271 420.8 255.9 436 237.2 436zM237.2 383.5H130.4v-33.8H271v0C271 368.4 255.9 383.5 237.2 383.5z"/><path fill="#c6bec3" d="M291.6 349.7h-71.3v0c0 14.5 11.7 26.2 26.2 26.2h18.8C279.9 375.9 291.6 364.2 291.6 349.7L291.6 349.7zM291.6 454.6h-71.3v0c0 14.5 11.7 26.2 26.2 26.2h18.8C279.9 480.9 291.6 469.1 291.6 454.6L291.6 454.6zM291.6 402.1h-71.3v0c0 14.5 11.7 26.2 26.2 26.2h18.8C279.9 428.4 291.6 416.6 291.6 402.1L291.6 402.1z"/></svg>