<svg xmlns="http://www.w3.org/2000/svg" enable-background="new 0 0 512 512" viewBox="0 0 512 512"><path fill="#ebdee5" d="M256,507.1c92.6,0,173.5-50.2,217.1-124.8c-43.2-75-124.3-125.6-217.1-125.6
		S82.1,307.3,38.9,382.3C82.5,456.9,163.4,507.1,256,507.1z"/><path fill="#fff" d="M78.4,330.6c-15.3,15.4-28.6,32.7-39.5,51.7c10.9,18.8,24.2,36,39.5,51.2V330.6z"/><path fill="#c6bec3" d="M382,290.5v136c0,16.7-14,30.5-30.7,30.5h-246c42,32,94.2,50.2,150.8,50.2
		c92.6,0,173.7-50.2,217.3-124.8C451.4,344.3,420,312.5,382,290.5z"/><polygon fill="#f29f18" points="255.9 297.1 255.9 297.1 227.4 268.6 227.4 228.8 284.3 228.8 284.3 268.6"/><rect width="10" height="85" x="251" y="297" fill="#c6bec3"/><path fill="#fff" d="M255.9 297.1l-21.8 21.8-51.2-51.3c14.4-4.4 29-7.5 44.7-9.3v10.2L255.9 297.1 255.9 297.1zM328.8 267.5l-51.3 51.3L256 297.1l28.5-28.5v-10.3C299.2 260.1 314.5 263.2 328.8 267.5z"/><path fill="#115fa6" d="M413,312.1c-14.7-11.9-30.9-22.1-48.1-30.5v99.9H147.1v-99.9c-17.2,8.3-33.3,18.6-48.1,30.5
		V452c43,34.5,97.6,55.1,157,55.1s114-20.6,157-55.1V312.1z"/><path fill="#0a3a66" d="M105.6,457c41.9,32,94,50.1,150.4,50.1c59.4,0,114-20.6,157-55.1V312.1c0-0.3-0.9-0.7-1.3-1
		c-1.1-0.8-2.1-1.7-3.2-2.5c-0.8-0.6-1.6-1.2-2.4-1.8c-1.1-0.8-2.2-1.7-3.4-2.5c-0.8-0.6-1.7-1.2-2.5-1.8c-1-0.7-2.1-1.5-3.1-2.2
		c-0.8-0.5-1.5-1-2.3-1.5c-1.3-0.9-2.6-1.7-3.9-2.6c-0.6-0.4-1.2-0.8-1.8-1.2c-1.5-1-3-1.9-4.6-2.8c-0.6-0.3-0.9-0.7-1.5-1
		c-0.4-0.2-1-0.5-1-0.7v136c0,16.7-14,30.5-30.7,30.5H105.6z"/><path fill="#999" d="M162.8,238.5L162.8,238.5c-23,0-41.7-18.7-41.7-41.7v0c0-23,18.7-41.7,41.7-41.7h41.7v41.7
		C204.5,219.9,185.8,238.5,162.8,238.5z"/><path fill="#595959" d="M186.3 154.9V179c0 23-18.5 41.7-41.5 41.7l0 0c-6.9 0-13.4-1.7-19.1-4.7 7 13.4 21.2 22.5 37.3 22.5l0 0c23 0 42-18.7 42-41.7v-41.9H186.3zM349.5 238.5L349.5 238.5c23 0 41.7-18.7 41.7-41.7v0c0-23-18.7-41.7-41.7-41.7h-41.7v41.7C307.8 219.9 326.4 238.5 349.5 238.5z"/><path fill="#3f3f3f" d="M370.5,160.8c3.6,6.2,5.7,13.4,5.7,21.1v0c0,23-18.7,41.7-41.7,41.7l0,0
		c-7.7,0-14.9-2.1-21.1-5.7c7.2,12.4,20.7,20.7,36,20.7h0c23,0,41.7-18.7,41.7-41.7v0C391.2,181.5,382.9,168.1,370.5,160.8z"/><path fill="#f29f18" d="M324.7 155h24.5c13.5 0 24.5-11 24.5-24.5v0c0-13.5-11-24.5-24.5-24.5h-24.5V155zM187.3 155h-24.5c-13.5 0-24.5-11-24.5-24.5v0c0-13.5 11-24.5 24.5-24.5h24.5V155z"/><path fill="#f4bc62" d="M256,238.8L256,238.8c-44.4,0-80.5-36-80.5-80.5v-55.9c0-44.4,36-80.5,80.5-80.5h0
		c44.4,0,80.5,36,80.5,80.5v55.9C336.4,202.7,300.4,238.8,256,238.8z"/><rect width="25" height="10" x="211" y="115" fill="#595959"/><path fill="#595959" d="M241,154h-10v-14h-7v-10h12.4c2.7,0,4.6,2.5,4.6,5.3V154z"/><rect width="25" height="10" x="276" y="115" fill="#595959"/><path fill="#595959" d="M281,154h-10v-18.7c0-2.7,1.9-5.3,4.6-5.3H288v10h-7V154z"/><rect width="9.8" height="9.8" x="344.3" y="125.6" fill="#734b0b"/><rect width="9.8" height="9.8" x="157.9" y="125.6" fill="#734b0b"/><path fill="#f22e24" d="M255.9,188.6c-1.3,0-2.5-0.5-3.5-1.4L240.3,175l6.9-6.9l8.7,8.7l8.6-8.6l6.9,6.9l-12.1,12.1
				C258.4,188.2,257.2,188.6,255.9,188.6z"/><path fill="#f29f18" d="M255.8,22h0.1c-4.2,0-8.2,0.3-12.2,0.9c38.6,5.9,68.3,39.2,68.3,79.5v55.9
		c0,40.3-29.6,73.7-68.2,79.6c4,0.6,8.1,1,12.2,1h-0.2c44.4,0,80.2-36.3,80.2-80.7v-55.9C336,58,300.2,22,255.8,22z"/><path fill="#595959" d="M193.2 16.5L193.2 16.5l0 71c0 10.2-8.3 18.5-18.5 18.5h-12.4V47.4C162.4 30.3 176.2 16.5 193.2 16.5zM318.4 16.5L318.4 16.5l0 71c0 10.2 8.3 18.5 18.5 18.5h12.4V47.4C349.2 30.3 335.4 16.5 318.4 16.5z"/><ellipse cx="256.1" cy="45.8" fill="#ebdee5" rx="117.7" ry="41"/><path fill="#c6bec3" d="M352.9,22.5c0.2,0.9,0.3,1.8,0.3,2.7c0,22.7-52.7,41-117.7,41c-40.1,0-75.5-7-96.8-17.7
		c4,21.4,55,38.3,117.4,38.3c65,0,117.7-18.4,117.7-41C373.7,37.1,366,29.1,352.9,22.5z"/><rect width="186.8" height="25.9" x="162.4" y="62.7" fill="#ebdee5"/><rect width="10" height="26" x="200" y="63" fill="#c6bec3"/><rect width="10" height="26" x="251" y="63" fill="#c6bec3"/><rect width="10" height="26" x="302" y="63" fill="#c6bec3"/></svg>