<svg xmlns="http://www.w3.org/2000/svg" enable-background="new 0 0 512 512" viewBox="0 0 512 512"><path fill="#ebdee5" d="M256,507.1c92.6,0,173.5-50.1,217-124.7c-43.2-75-124.2-125.5-217-125.5S82.2,307.3,39,382.4
		C82.5,457,163.4,507.1,256,507.1z"/><path fill="#c6bec3" d="M236.4,318.8h39.2c28.7,0,52-23.3,52-52v-37.3H184.4v37.3
		C184.4,295.5,207.7,318.8,236.4,318.8z"/><path fill="#ebdee5" d="M236.4,318.8h12.7c28.7,0,52-23.3,52-52v-37.3H184.4v37.3
		C184.4,295.5,207.7,318.8,236.4,318.8z"/><path fill="#c6bec3" d="M291.7,238.8h-71.4c-45.3,0-82-36.7-82-82V86.9c0-45.3,36.7-82,82-82h71.4
		c45.3,0,82,36.7,82,82v69.9C373.7,202.1,337,238.8,291.7,238.8z"/><path fill="#ebdee5" d="M245.6,196.2h-25.3c-45.3,0-82-36.7-82-82V86.9c0-45.3,36.7-82,82-82h25.3
		c45.3,0,82,36.7,82,82v27.3C327.6,159.5,290.9,196.2,245.6,196.2z"/><path fill="#fff" d="M78.5,330.7c-15.3,15.4-28.6,32.7-39.5,51.7c10.9,18.7,24.2,35.9,39.5,51.2V330.7z"/><path fill="#c6bec3" d="M382,290.6v136c0,16.7-14,30.4-30.7,30.4h-246c42,31,94.2,50.2,150.7,50.2
		c92.6,0,173.7-50.2,217.2-124.8C451.3,344.4,419,312.6,382,290.6z"/><path fill="#ebdee5" d="M297.1,238.8h-82.2c-16.8,0-30.5-13.7-30.5-30.5V100h143.2v108.3
		C327.6,225.2,313.9,238.8,297.1,238.8z"/><path fill="#fff" d="M267.8,210.4h-52.9c-16.8,0-30.5-13.7-30.5-30.5V100h113.9v79.8
		C298.3,196.7,284.6,210.4,267.8,210.4z"/><path fill="#3dcac3" d="M297.1,170.7h-82.2c-16.8,0-30.5-13.7-30.5-30.5V100h143.2v40.1
		C327.6,157,313.9,170.7,297.1,170.7z"/><path fill="#fff" d="M254.3,130h-40c-16.5,0-29.9-13.4-29.9-29.9v0h99.8v0C284.2,116.6,270.8,130,254.3,130z"/><path fill="#f29f18" d="M214.3,70.1h83.4c16.5,0,29.9,13.4,29.9,29.9v0H184.4v0C184.4,83.5,197.8,70.1,214.3,70.1z"/><path fill="#f4bc62" d="M214.3,70.1h56.9c16.5,0,29.9,13.4,29.9,29.9v0H184.4v0C184.4,83.5,197.8,70.1,214.3,70.1z"/><circle cx="223.6" cy="206.3" r="13.1" fill="#00bfb6"/><rect width="10" height="16" x="209" y="54" fill="#c6bec3"/><rect width="10" height="16" x="251" y="54" fill="#c6bec3"/><rect width="10" height="16" x="292" y="54" fill="#c6bec3"/><rect width="65.7" height="9.8" x="316.3" y="377.1" fill="#00bfb6"/><rect width="25" height="10" x="276" y="115" fill="#999"/><path fill="#3dcac3" d="M149,483.2c21,9.9,43.6,17,67.2,20.7v-70.4H149V483.2z"/><path fill="#00bfb6" d="M171,492.2c14,5.3,29,9.2,45,11.7v-70h-45V492.2z"/><path fill="#3dcac3" d="M128.5,385.5h87.8v48.1H149l-8.5-8.4c-7.7-7.7-12.1-18.1-12.1-29V385.5z"/><path fill="#00bfb6" d="M150,385v11.2c0,10.9,4.4,21.5,12.1,29.2l8.5,8.6H216v-49H150z"/><path fill="#3dcac3" d="M136.1,359L136.1,359c-4.2,0-7.6,3.4-7.6,7.6v18.9h15.2v-18.9
		C143.7,362.4,140.3,359,136.1,359z"/><path fill="#00bfb6" d="M208.7,336.9L208.7,336.9c-4.2,0-7.6,3.4-7.6,7.6v40.9h15.2v-40.9
		C216.3,340.3,212.9,336.9,208.7,336.9z"/><path fill="#3dcac3" d="M193.5,332.5L193.5,332.5c-4.2,0-7.6,3.4-7.6,7.6v45.4h15.2v-45.4
		C201.1,335.9,197.7,332.5,193.5,332.5z"/><path fill="#00bfb6" d="M178.3,327.2L178.3,327.2c-4.2,0-7.6,3.4-7.6,7.6v50.7h15.2v-50.7
		C185.9,330.6,182.5,327.2,178.3,327.2z"/><path fill="#3dcac3" d="M163.1,332.5L163.1,332.5c-4.2,0-7.6,3.4-7.6,7.6v45.4h15.2v-45.4
		C170.7,335.9,167.3,332.5,163.1,332.5z"/><path fill="#00bfb6" d="M261,239h-10v268c2,0,3.4,0.1,5,0.1s3,0,5-0.1V239z"/><path fill="#fff" d="M250.6,37.2h-49.4c-6.5,0-11.7-5.2-11.7-11.7v0c0-6.5,5.2-11.7,11.7-11.7h49.4
		c6.5,0,11.7,5.2,11.7,11.7v0C262.3,32,257,37.2,250.6,37.2z"/><rect width="25" height="10" x="211" y="115" fill="#999"/><path fill="#999" d="M241 154h-10v-14h-7v-10h12.4c2.7 0 4.6 2.6 4.6 5.4V154zM281 154h-10v-18.6c0-2.7 1.9-5.4 4.6-5.4H288v10h-7V154z"/></svg>