<svg xmlns="http://www.w3.org/2000/svg" enable-background="new 0 0 512 512" viewBox="0 0 512 512"><path fill="#ebdee5" d="M256,507.1c92.6,0,173.5-50.1,217-124.7c-43.2-75-124.2-125.5-217-125.5S82.2,307.3,39,382.4
		C82.5,457,163.4,507.1,256,507.1z"/><path fill="#fff" d="M78.5,330.7c-15.3,15.4-28.6,32.7-39.5,51.7c10.9,18.7,24.2,35.9,39.5,51.2V330.7z"/><path fill="#c6bec3" d="M382,290.6v136c0,16.7-14,30.4-30.7,30.4h-246c42,31,94.2,50.2,150.7,50.2
		c92.6,0,173.7-50.2,217.3-124.8C451.3,344.4,419,312.6,382,290.6z"/><polygon fill="#f29f18" points="255.9 297.2 255.9 297.2 227.4 268.7 227.4 228.9 284.3 228.9 284.3 268.7"/><path fill="#f29f18" d="M324.6 155.1h24.5c13.5 0 24.5-11 24.5-24.5v0c0-13.5-11-24.5-24.5-24.5h-24.5V155.1zM187.3 155.1h-24.5c-13.5 0-24.5-11-24.5-24.5v0c0-13.5 11-24.5 24.5-24.5h24.5V155.1z"/><path fill="#f4bc62" d="M256,238.8L256,238.8c-44.4,0-80.4-36-80.4-80.4v-55.9c0-44.4,36-80.4,80.4-80.4h0
		c44.4,0,80.4,36,80.4,80.4v55.9C336.4,202.8,300.4,238.8,256,238.8z"/><path fill="#f29f18" d="M255.8,22h0.1c-4.2,0-8.2,0.4-12.2,1c38.6,5.9,68.3,39.3,68.3,79.5v55.9
		c0,40.3-29.6,73.7-68.2,79.6c4,0.6,8.1,1,12.2,1h-0.2c44.4,0,80.2-36.2,80.2-80.6v-55.9C336,58.1,300.2,22,255.8,22z"/><rect width="25" height="10" x="211" y="115" fill="#595959"/><rect width="10" height="19" x="231" y="135" fill="#595959"/><rect width="25" height="10" x="276" y="115" fill="#595959"/><rect width="10" height="19" x="271" y="135" fill="#595959"/><rect width="9.8" height="9.8" x="344.3" y="125.7" fill="#734b0b"/><rect width="9.8" height="9.8" x="157.9" y="125.7" fill="#734b0b"/><ellipse cx="256.1" cy="45.9" fill="#ebdee5" rx="117.6" ry="41"/><path fill="#c6bec3" d="M352.8,22.6c0.2,0.9,0.3,1.8,0.3,2.7c0,22.7-52.7,41-117.6,41c-40.1,0-75.5-7-96.8-17.7
		c4,21.4,55,38.3,117.4,38.3c65,0,117.6-18.4,117.6-41C373.7,37.3,366,29.2,352.8,22.6z"/><path fill="#e2f200" d="M162.4 67.8h30.8v19.8c0 10.2-8.3 18.5-18.5 18.5h-12.4V67.8zM349.2 67.8h-30.8v19.8c0 10.2 8.3 18.5 18.5 18.5h12.4V67.8z"/><path fill="#fff" d="M255.9 297.2L234.1 319l-51.2-51.3c14.4-4.4 29-7.5 44.6-9.2v10.2L255.9 297.2 255.9 297.2zM328.8 267.6l-51.3 51.2L256 297.2l28.5-28.5v-10.2C299.1 260.1 314.5 263.2 328.8 267.6z"/><path fill="#3f3f3f" d="M265.8 307.1l-9.8-9.9-9.8 9.7-18.6 198.6c9.3 1.1 18.8 1.6 28.4 1.6 9.5 0 18.9-.5 28.2-1.6L265.8 307.1zM310.9 106.1H200.7c-21.1 0-38.3-17.1-38.3-38.3v0l186.8 0v0C349.2 89 332 106.1 310.9 106.1z"/><path fill="#595959" d="M246.2,106.1h-45.5c-21.1,0-38.3-17.1-38.3-38.3v0h122v0C284.4,89,267.3,106.1,246.2,106.1z"/><path fill="#6b7300" d="M328.8,47.5H182.8c-11.2,0-20.4,9.1-20.4,20.4v0h186.8v0C349.2,56.6,340.1,47.5,328.8,47.5z"/><path fill="#e2f200" d="M264.1,47.5h-81.3c-11.2,0-20.4,9.1-20.4,20.4v0h122v0C284.4,56.6,275.3,47.5,264.1,47.5z"/><circle cx="256.3" cy="26.4" r="10.7" fill="#e2f200"/><path fill="#595959" d="M114.3,335.8l21.7-12.5l-15.4-26.7c-7.1,4.6-13.9,9.5-20.4,14.7L114.3,335.8z"/><path fill="#e2f200" d="M136,323.3l21.7-12.5l-15.4-26.7c-7.5,3.8-14.7,8-21.7,12.5L136,323.3z"/><path fill="#595959" d="M157.6 310.8l21.7-12.5-14.1-24.4c-7.9 3.1-15.5 6.5-23 10.3L157.6 310.8zM346.8 273.8l-14.1 24.4 21.7 12.5 15.4-26.7C362.3 280.3 354.6 276.9 346.8 273.8z"/><path fill="#e2f200" d="M369.7,284.1l-15.4,26.7l21.7,12.5l15.4-26.7C384.4,292.1,377.2,287.9,369.7,284.1z"/><path fill="#595959" d="M391.4,296.6L376,323.3l21.7,12.5l14.2-24.5C405.3,306.1,398.5,301.2,391.4,296.6z"/><rect width="65.7" height="9.8" x="316.3" y="377.1" fill="#c6bec3"/><rect width="65.7" height="9.8" x="130.4" y="377.1" fill="#c6bec3"/><path fill="#e2f200" d="M256.3,31.3c-0.8,0-1.5-0.2-2.3-0.5l-20.6-10.7l4.5-8.7l18.3,9.5l18.3-9.5l4.5,8.7
				l-20.6,10.7C257.8,31.2,257,31.3,256.3,31.3z"/><path fill="#595959" d="M223.6 181.5h64.7v0c0-9.8-7.9-17.7-17.7-17.7h-29.4C231.5 163.8 223.6 171.7 223.6 181.5L223.6 181.5zM243.4 457c12.4 0 22.6-10 22.6-22.3V307.1l-9.9-9.9-9.9 9.7L232.1 457H243.4z"/></svg>