<svg xmlns="http://www.w3.org/2000/svg" enable-background="new 0 0 512 512" viewBox="0 0 512 512"><path fill="#115fa6" d="M256,507.1c92.6,0,173.5-50.1,217-124.7c-43.2-75-124.2-125.5-217-125.5S82.2,307.3,39,382.4
		C82.5,457,163.4,507.1,256,507.1z"/><path fill="#1889f2" d="M78,330.7c-15,15.4-28.6,32.7-39.5,51.7C49.5,401.1,63,418.3,78,433.6V330.7z"/><path fill="#0a3a66" d="M382,290.6v136c0,16.7-14,30.4-30.7,30.4h-246c42,31,94.2,50.2,150.7,50.2
		c92.6,0,173.7-50.2,217.3-124.8C451.3,344.4,419,312.6,382,290.6z"/><path fill="#1889f2" d="M255.9,297l-21.8,21.9l-51-51.2c14.4-4.4,28.9-7.5,44.9-9.2v10.2L255.9,297L255.9,297z"/><path fill="#1889f2" d="M328.6,267.6l-51.2,51.2l-21.7-21.6l28.3-28.5v-10.2C299,260.1,314.3,263.2,328.6,267.6z"/><path fill="#3f3f3f" d="M265.8,307.1l-9.8-9.9l-9.8,9.7l-18.6,198.6c9.3,1.1,18.8,1.6,28.4,1.6
		c9.5,0,18.9-0.5,28.2-1.6L265.8,307.1z"/><rect width="65.7" height="9.8" x="130.4" y="377.1" fill="#0a3a66"/><path fill="#595959" d="M243.4,457c12.4,0,22.6-10,22.6-22.3V307.1l-9.9-9.9l-9.9,9.7L232.1,457H243.4z"/><polygon fill="#f29f18" points="255.9 297.2 255.9 297.2 227.4 268.7 227.4 228.9 284.3 228.9 284.3 268.7"/><path fill="#595959" d="M327.4,217.3h-143c-23.7,0-41.4-21.9-36.3-45.1l14.3-66.1h186.8l14.6,66
		C368.8,195.3,351.2,217.3,327.4,217.3z"/><path fill="#f29f18" d="M324.6 155.1h24.5c13.5 0 24.5-11 24.5-24.5v0c0-13.5-11-24.5-24.5-24.5h-24.5V155.1zM187.3 155.1h-24.5c-13.5 0-24.5-11-24.5-24.5v0c0-13.5 11-24.5 24.5-24.5h24.5V155.1z"/><path fill="#f4bc62" d="M256,238.8L256,238.8c-44.4,0-80.4-36-80.4-80.4v-55.9c0-44.4,36-80.4,80.4-80.4h0
		c44.4,0,80.4,36,80.4,80.4v55.9C336.4,202.8,300.4,238.8,256,238.8z"/><path fill="#f29f18" d="M255.8,22h0.1c-4.2,0-8.2,0.4-12.2,1c38.6,5.9,68.3,39.3,68.3,79.5v55.9
		c0,40.3-29.6,73.7-68.2,79.6c4,0.6,8.1,1,12.2,1h-0.2c44.4,0,80.2-36.2,80.2-80.6v-55.9C336,58.1,300.2,22,255.8,22z"/><rect width="9.8" height="9.8" x="344.3" y="125.7" fill="#734b0b"/><rect width="9.8" height="9.8" x="157.9" y="125.7" fill="#734b0b"/><rect width="25" height="10" x="211" y="115" fill="#595959"/><rect width="25" height="10" x="276" y="115" fill="#595959"/><path fill="#595959" d="M241 154h-10v-14h-7v-10h12.4c2.7 0 4.6 2.6 4.6 5.4V154zM281 154h-10v-18.6c0-2.7 1.9-5.4 4.6-5.4H288v10h-7V154z"/><path fill="#f22e24" d="M255.9,188.7c-1.3,0-2.5-0.5-3.5-1.4l-12.2-12.2l6.9-6.9l8.7,8.7l8.6-8.6l6.9,6.9l-12.1,12.1
				C258.4,188.3,257.2,188.7,255.9,188.7z"/><path fill="#6b7300" d="M349.2,427.6L349.2,427.6L349.2,427.6c-19.6-8.1-32.4-27.1-32.4-48.3v-16.4l32.4-13.3
		l32.4,13.3v16.4C381.5,400.5,368.8,419.6,349.2,427.6z"/><path fill="#e2f200" d="M130.4 315.2c14.6 0 26.5-11.9 26.5-26.5 0-3.7-.8-7.3-2.2-10.5-16.2 7.2-31.4 16-45.6 26.3C114 310.9 121.7 315.2 130.4 315.2zM357.2 278.2c-1.4 3.2-2.2 6.8-2.2 10.5 0 14.6 11.9 26.5 26.5 26.5 8.7 0 16.5-4.2 21.3-10.8C388.7 294.1 373.4 285.3 357.2 278.2z"/><ellipse cx="256.1" cy="45.9" fill="#115fa6" rx="117.6" ry="41"/><path fill="#0a3a66" d="M352.8,22.6c0.2,0.9,0.3,1.8,0.3,2.7c0,22.7-52.7,41-117.6,41c-40.1,0-75.5-7-96.8-17.7
		c4,21.4,55,38.3,117.4,38.3c65,0,117.6-18.4,117.6-41C373.7,37.3,366,29.2,352.8,22.6z"/><path fill="#595959" d="M162.4 67.8h30.8v19.8c0 10.2-8.3 18.5-18.5 18.5h-12.4V67.8zM349.2 67.8h-30.8v19.8c0 10.2 8.3 18.5 18.5 18.5h12.4V67.8z"/><path fill="#0a3a66" d="M310.9,106.1H200.7c-21.1,0-38.3-17.1-38.3-38.3v0l186.8,0v0C349.2,89,332,106.1,310.9,106.1z
		"/><path fill="#115fa6" d="M246.2,106.1h-45.5c-21.1,0-38.3-17.1-38.3-38.3v0h122v0C284.4,89,267.3,106.1,246.2,106.1z"/><path fill="#3f3f3f" d="M328.8,47.5H182.8c-11.2,0-20.4,9.1-20.4,20.4v0h186.8v0C349.2,56.6,340.1,47.5,328.8,47.5z"/><path fill="#595959" d="M264.1,47.5h-81.3c-11.2,0-20.4,9.1-20.4,20.4v0h122v0C284.4,56.6,275.3,47.5,264.1,47.5z"/><path fill="#e2f200" d="M256.3 37.9L256.3 37.9c-5.9 0-10.7-4.8-10.7-10.7V16.6h21.3v10.7C266.9 33.2 262.2 37.9 256.3 37.9zM348.5 399c9.7 0 17.5-8 17.5-17.7v-24.7l-16.8-7L317 362.9v16.4c0 6.8 1.1 12.7 3.6 19.7H348.5z"/></svg>