<svg id="Layer_1" data-name="Layer 1" xmlns="http://www.w3.org/2000/svg" viewBox="0 0 700 550"><title>reception at on office</title><path d="M433.71487,437.48648c14.83683-4.63823,28.1489-9.37688,44.16355-18.37029,16.51682-9.27644,89.88839-53.42173,99.42961-129.82458a145.73456,145.73456,0,0,0-6.08082-62.23253c-2.9491-8.64645-9.06644-26.01239-24.50588-43.1866-18.89985-21.03635-40.46575-29.18976-53.1113-33.80059a153.2473,153.2473,0,0,0-59.54821-8.84732c-11.46773.37434-31.70974,1.21434-54.71824,11.26686-15.01031,6.5556-24.34154,14.03337-38.09186,25.20893-21.785,17.722-24.652,25.09935-62.76209,61.69384-10.4634,10.04339-19.06419,17.95941-32.19365,25.75674-9.103,5.40517-16.462,8.42732-30.03888,13.94206-33.37147,13.55858-42.873,16.30386-53.793,23.93684-21.23722,14.8551-19.86166,31.05531-20.7747,34.54311a68.59354,68.59354,0,0,0-1.61607,27.36369c2.78476,18.32463,12.65468,30.30366,18.78115,37.55317a103.26268,103.26268,0,0,0,30.03888,24.14067,191.96377,191.96377,0,0,0,24.61545,10.856Z" fill="#ffe3cb"/><path d="M480.81912,424.53472l-.44726-.79687c21.82226-12.25782,93.76562-58.21192,103.33593-134.8877a151.845,151.845,0,0,0-6.3125-64.61719c-2.71777-7.97168-9.082-26.64062-25.42675-44.82519-20.01563-22.27246-42.86328-30.60547-55.1377-35.082a158.90018,158.90018,0,0,0-61.85644-9.19239c-10.53418.3418-32.45313,1.05274-56.82911,11.69629l-.36523-.83594c24.53613-10.71386,46.57422-11.42871,57.165-11.77246a159.74381,159.74381,0,0,1,62.19824,9.24707c12.34961,4.50391,35.33692,12.88672,55.50488,35.32911,16.46875,18.32324,22.875,37.11621,25.61036,45.14062a152.79,152.79,0,0,1,6.35546,65.02539C574.991,366.063,502.73514,412.2232,480.81912,424.53472Z" fill="#ffe3cb"/><path d="M571.81522,438.48687H115.29764a1,1,0,1,1,0-2H571.81522a1,1,0,0,1,0,2Z" fill="#ffe3cb"/><rect x="131.19532" y="116.649" width="143.45543" height="320.77625" fill="#a3716a"/><polygon points="285.069 111.513 285.069 437.049 273.899 437.049 273.899 125.591 131.946 125.591 131.946 437.049 120.777 437.049 120.777 111.513 285.069 111.513" fill="#935b50"/><circle cx="262.37859" cy="268.3708" r="7.67879" fill="#ffba55"/><rect x="169.50242" y="165.60798" width="66.84121" height="31.68005" fill="#e5e1e5"/><path d="M439.01712,172.28415H484.647a0,0,0,0,1,0,0v7.24443a0,0,0,0,1,0,0h-45.6299a3.11719,3.11719,0,0,1-3.11719-3.11719v-1.01005A3.11719,3.11719,0,0,1,439.01712,172.28415Z" fill="#fff"/><path d="M486.074,179.714a.65638.65638,0,0,1-.65637.65638h-47.3588c-1.80822,0-3.279-1.986-3.279-4.42761,0-2.441,1.47082-4.427,3.279-4.427h47.3588a.65638.65638,0,0,1,.65637.65638v.51665a.65638.65638,0,0,1-.65637.65638h-47.3588c-1.06111,0-1.92421,1.16541-1.92421,2.5976,0,1.4328.8631,2.59821,1.92421,2.59821h47.3588a.65637.65637,0,0,1,.65637.65637Z" fill="#f65b2b"/><path d="M431.898,163.42953h45.6299a0,0,0,0,1,0,0V170.674a0,0,0,0,1,0,0H431.898a3.11719,3.11719,0,0,1-3.11719-3.11719v-1.01005a3.11719,3.11719,0,0,1,3.11719-3.11719Z" fill="#fff"/><path d="M478.95488,170.8594a.65638.65638,0,0,1-.65638.65637H430.93971c-1.80822,0-3.279-1.986-3.279-4.4276,0-2.441,1.47083-4.427,3.279-4.427H478.2985a.65638.65638,0,0,1,.65638.65637v.51666a.65638.65638,0,0,1-.65638.65637H430.93971c-1.06112,0-1.92421,1.16541-1.92421,2.59761,0,1.43279.86309,2.5982,1.92421,2.5982H478.2985a.65638.65638,0,0,1,.65638.65638Z" fill="#ffba55"/><path d="M446.47057,154.57492h45.6299a0,0,0,0,1,0,0v7.24443a0,0,0,0,1,0,0h-45.6299a3.11719,3.11719,0,0,1-3.11719-3.11719V157.6921A3.11719,3.11719,0,0,1,446.47057,154.57492Z" fill="#fff"/><path d="M493.52746,162.00478a.65638.65638,0,0,1-.65638.65638h-47.3588c-1.80821,0-3.279-1.986-3.279-4.42761,0-2.441,1.47083-4.427,3.279-4.427h47.3588a.65638.65638,0,0,1,.65638.65638v.51665a.65638.65638,0,0,1-.65638.65638h-47.3588c-1.06111,0-1.9242,1.16541-1.9242,2.5976,0,1.4328.86309,2.59821,1.9242,2.59821h47.3588a.65638.65638,0,0,1,.65638.65637Z" fill="#f65b2b"/><path d="M356.5584,181.84914h6.77751a0,0,0,0,1,0,0V196.05a1.29949,1.29949,0,0,1-1.29949,1.29949h-4.17854A1.29949,1.29949,0,0,1,356.5584,196.05V181.84914A0,0,0,0,1,356.5584,181.84914Z" fill="#935b50"/><path d="M469.772,181.84914h6.77751a0,0,0,0,1,0,0V196.05a1.29949,1.29949,0,0,1-1.29949,1.29949h-4.17854A1.29949,1.29949,0,0,1,469.772,196.05V181.84914A0,0,0,0,1,469.772,181.84914Z" fill="#935b50"/><path d="M494.451,183.369H344.37081a1.51965,1.51965,0,0,1,0-3.03929H494.451a1.51965,1.51965,0,1,1,0,3.03929Z" fill="#d6694b"/><rect x="390.50355" y="176.63996" width="6.2915" height="0.75977" fill="#fff"/><rect x="390.50355" y="173.6009" width="6.2915" height="0.75977" fill="#fff"/><rect x="390.50355" y="146.24738" width="6.2915" height="0.75977" fill="#fff"/><rect x="390.50355" y="143.20734" width="6.2915" height="0.75977" fill="#fff"/><polygon points="473.919 153.747 464.734 153.747 461.639 137.481 477.014 137.481 473.919 153.747" fill="#e19974"/><polygon points="476.661 139.338 477.014 137.481 461.639 137.481 461.993 139.338 476.661 139.338" fill="#d6694b"/><rect x="464.09641" y="146.03631" width="2.74402" height="2.74402" transform="translate(240.56596 -285.96098) rotate(45)" fill="#d6694b"/><rect x="467.97704" y="146.03631" width="2.74402" height="2.74402" transform="translate(241.70257 -288.705) rotate(45)" fill="#d6694b"/><rect x="471.81298" y="146.03631" width="2.74402" height="2.74402" transform="translate(242.8261 -291.41742) rotate(45)" fill="#d6694b"/><path d="M472.90471,123.79215s.80657,11.39488-3.92082,13.80976C468.98389,137.60191,467.34729,133.28173,472.90471,123.79215Z" fill="#558031"/><path d="M457.65034,128.68689a16.67052,16.67052,0,0,1,11.33355,8.915S460.47938,134.71343,457.65034,128.68689Z" fill="#849f4c"/><path d="M460.39253,143.61266s3.93315-5.88415,8.59136-6.01075C468.98389,137.60191,468.28262,142.33974,460.39253,143.61266Z" fill="#a6b862"/><path d="M465.24414,125.41636s5.45727,4.98267,3.73975,12.18555C468.98389,137.60191,465.96077,134.39744,465.24414,125.41636Z" fill="#849f4c"/><path d="M468.98389,137.60191s1.91734-7.01857,11.60993-8.81832C480.59382,128.78359,478.41256,135.17412,468.98389,137.60191Z" fill="#a6b862"/><path d="M483.1614,135.76721a15.587,15.587,0,0,0-14.17751,1.8347S478.00029,138.68442,483.1614,135.76721Z" fill="#849f4c"/><path d="M483.09413,142.865s-3.57078-5.71956-14.11024-5.263Z" fill="#558031"/><path d="M453.66694,136.67611s9.71216-3.60123,15.44405.75361C469.111,137.42972,463.66841,140.42756,453.66694,136.67611Z" fill="#558031"/><path d="M461.63115,126.24842s8.6662,6.12935,7.423,11.35848C469.05417,137.6069,463.04183,132.78628,461.63115,126.24842Z" fill="#558031"/><path d="M476.83324,143.7027s-7.14429-1.21969-7.84935-6.10079A9.776,9.776,0,0,1,476.83324,143.7027Z" fill="#849f4c"/><path d="M353.29115,160.57355c-4.83838,0-15.12451-7.47265-16.35254-8.37792a.79475.79475,0,1,1,.94336-1.2793c4.709,3.46972,13.18164,8.708,15.89453,8.0166a.79478.79478,0,1,1,.39746,1.53906A3.52823,3.52823,0,0,1,353.29115,160.57355Z" fill="#8b9d36"/><path d="M353.215,161.16828a.79556.79556,0,0,1-.792-.7373l-1.919-26.31055a.7956.7956,0,0,1,.73535-.85059.81037.81037,0,0,1,.85059.73536l1.91895,26.31054a.79561.79561,0,0,1-.73536.85059C353.254,161.1673,353.23451,161.16828,353.215,161.16828Z" fill="#8b9d36"/><path d="M361.28725,161.8675a.85141.85141,0,0,1-.13965-.01172.79557.79557,0,0,1-.644-.92187c.08741-.49317,2.26856-12.13965,13.34961-17.31055a.79516.79516,0,0,1,.67188,1.44141C364.1852,149.89,362.089,161.099,362.069,161.21125A.79494.79494,0,0,1,361.28725,161.8675Z" fill="#8b9d36"/><path d="M360.33681,158.36086c-.64634-1.26583-4.11974-1.26759-6.33773.2876a6.07382,6.07382,0,0,0-2.13627,2.80327c-.37765.97277-.98208,2.52932-.14236,3.59392a3.15122,3.15122,0,0,0,3.48923.64676,17.00687,17.00687,0,0,0,2.99086-2.947C359.48725,161.11636,360.85779,159.3812,360.33681,158.36086Z" fill="#5e7c24"/><path d="M363.04294,158.21716c-.242.63564.23818,1.36429,1.13932,2.73132a13.12293,13.12293,0,0,0,3.13322,3.30652,3.73818,3.73818,0,0,0,4.41511.50305,3.57631,3.57631,0,0,0,1.6377-3.01892,4.55952,4.55952,0,0,0-2.20736-3.45022C368.24772,156.179,363.62825,156.68069,363.04294,158.21716Z" fill="#5e7c24"/><path d="M371.588,146.28537c.21229-.36189.76244-.178,1.9939-.35955a22.93227,22.93227,0,0,0,3.06214-.93436,11.78485,11.78485,0,0,1,2.63485-.64695c.3732.00176,2.48262.01131,3.20431,1.43761.75607,1.49415-.64365,3.29268-.712,3.37827-1.35316,1.6907-3.665,1.60822-4.4151,1.58132a6.81632,6.81632,0,0,1-4.77112-2.3C372.41615,148.25275,371.21926,146.91361,371.588,146.28537Z" fill="#5e7c24"/><path d="M352.14774,139.313c-.75163-.37846-.31178-2.783-.07128-4.097a24.38667,24.38667,0,0,1,1.353-4.09718c1.24614-3.28312,1.53048-3.63682,1.9939-3.80938a2.98012,2.98012,0,0,1,3.27579,1.50936c.82387,1.59418-.43908,3.60953-1.78026,5.75024C355.6308,136.62475,353.12537,139.80511,352.14774,139.313Z" fill="#5e7c24"/><path d="M351.86281,145.63842c.55286-.89965-.46438-2.659-1.49533-3.59393a6.63469,6.63469,0,0,0-3.27578-1.36566c-1.71265-.41278-3.5978-.86709-4.13018-.072-.50765.7581.48544,2.24738.71222,2.58762a6.295,6.295,0,0,0,2.91958,2.22827C348.11492,146.05256,351.14943,146.79915,351.86281,145.63842Z" fill="#c4ce6e"/><path d="M351.93409,152.61062c.02029-.71579-1.01453-.86417-3.13322-2.58762-1.68194-1.3682-1.72984-1.844-2.70613-2.15632-1.49456-.4781-3.44558-.02281-3.77416.93436-.08036.23437-.069.51417,1.2106,2.58762a9.63142,9.63142,0,0,0,1.9939,2.73132,4.67832,4.67832,0,0,0,3.56052.35935C349.9794,154.26778,351.90666,153.58066,351.93409,152.61062Z" fill="#5e7c24"/><path d="M352.71281,144.33777c-.69792-.79026.00434-2.7.8606-3.8a6.66054,6.66054,0,0,1,2.99423-1.91406c1.61678-.704,3.39641-1.47884,4.05636-.788.62927.65865-.09522,2.29816-.26064,2.67271a6.32456,6.32456,0,0,1-2.49634,2.702C356.47542,144.095,353.61336,145.35734,352.71281,144.33777Z" fill="#5e7c24"/><path d="M353.22923,151.76564c-.142-.70159.85214-1.02743,2.64556-3.09306,1.42371-1.63983,1.38983-2.11681,2.29833-2.594,1.39081-.73047,3.39033-.62072,3.87713.26514.1191.21692.15556.49453-.75159,2.75924a9.67275,9.67275,0,0,1-1.49874,3.0368,4.68517,4.68517,0,0,1-3.44621.97219C355.43719,153.05872,353.42156,152.71646,353.22923,151.76564Z" fill="#5e7c24"/><path d="M341.8222,155.48564c-.09987-.77993-1.38426-1.21045-2.91958-1.725a5.80653,5.80653,0,0,0-3.77416-.43131c-.22736.07117-2.24986.70467-2.4212,2.22827-.15377,1.36663,1.30429,2.36436,1.42424,2.44391a4.30772,4.30772,0,0,0,3.34688.35936C339.48078,157.97557,341.9692,156.63292,341.8222,155.48564Z" fill="#5e7c24"/><path d="M347.59027,159.07956c-1.07229-.76511-3.09614.5327-4.05909,1.15021a8.51251,8.51251,0,0,0-2.49229,2.44372c-.74177,1.11316-1.44762,2.17269-1.06823,3.09087.54551,1.31984,2.90045,1.30014,3.2045,1.29371a5.12153,5.12153,0,0,0,3.48924-1.58131,5.44783,5.44783,0,0,0,1.35316-2.73132C348.14718,162.14743,348.64846,159.83473,347.59027,159.07956Z" fill="#c4ce6e"/><path d="M339.045,151.748c-.60327-.87723-.392-1.499-.64094-3.01892-.39581-2.41623-1.23784-2.72566-.92567-3.95328.24571-.96614,1.07827-1.9974,1.9939-2.01261,1.28246-.02145,2.10749,1.96075,2.27864,2.372.62239,1.49513.39291,2.79859,0,5.03153-.25653,1.45769-.45221,2.50124-1.068,2.65957C340.08753,152.97933,339.37879,152.23333,339.045,151.748Z" fill="#8b9d36"/><path d="M366.31853,151.53236c.19027-.53835,1.19882-.61985,2.4212-.71871,1.5272-.12342,2.67193-.216,3.77416.50306.16961.11056,1.95412,1.30834,1.6377,2.73152-.24726,1.112-1.629,1.69537-2.63465,1.725-1.09122.03217-1.83319-.58475-3.2045-1.725C367.232,153.14994,366.08421,152.1953,366.31853,151.53236Z" fill="#8b9d36"/><path d="M368.09879,147.43538c-.27411-.06239-.29111-.44417-.64094-1.50956-.78176-2.38015-1.39373-2.59639-1.28169-3.59392.124-1.10361,1.03482-2.27877,1.85135-2.22827.89013.055,1.42251,1.55109,1.63789,2.15651a4.663,4.663,0,0,1,.28493,2.22827C369.75059,146.03365,368.69317,147.57089,368.09879,147.43538Z" fill="#5e7c24"/><path d="M350.43857,137.08491c-.41551.58924-2.7747-.10861-4.34383-1.50956-.40063-.3576-2.17374-1.94086-1.709-3.45022a1.77814,1.77814,0,0,1,1.42425-1.29371c.66528-.01638,1.09779.65943,2.20755,2.3C350.29948,136.50542,350.62073,136.82656,350.43857,137.08491Z" fill="#8b9d36"/><path d="M363.399,152.97c-1.195.32523-2.75847-2.19843-3.13322-2.80327a9.2731,9.2731,0,0,1-1.42425-5.17524c.05119-1.143.14449-3.227,1.353-3.73762,1.15786-.48921,2.72409.72572,3.48924,1.65306,1.50982,1.82953,1.2697,4.19642,1.06823,6.18155C364.59506,150.63505,364.38528,152.70148,363.399,152.97Z" fill="#c4ce6e"/><path d="M363.57218,180.43495h-11.7418l-3.77746-20.0406a.79655.79655,0,0,1,.77729-.94792h17.74214a.79653.79653,0,0,1,.77728.94792Z" fill="#e19974"/><path d="M367.07673,161.84238l.27295-1.448a.79655.79655,0,0,0-.77728-.94793H348.8302a.79654.79654,0,0,0-.77728.94793l.273,1.448Z" fill="#d6694b"/><polygon points="352.769 174.759 350.289 172.256 352.769 169.752 355.249 172.256 352.769 174.759" fill="#d6694b"/><polygon points="357.73 174.759 355.249 172.256 357.73 169.752 360.21 172.256 357.73 174.759" fill="#d6694b"/><polygon points="362.633 174.759 360.153 172.256 362.633 169.752 365.114 172.256 362.633 174.759" fill="#d6694b"/><path d="M405.52868,156.99266h39.3528a0,0,0,0,1,0,0v6.18771a0,0,0,0,1,0,0h-39.3528a.64316.64316,0,0,1-.64316-.64316v-4.9014a.64316.64316,0,0,1,.64316-.64316Z" transform="matrix(-0.13502, 0.99084, -0.99084, -0.13502, 640.87256, -239.29101)" fill="#7ca1b1"/><rect x="426.79849" y="140.19907" width="0.74704" height="6.18745" transform="translate(227.54552 547.22102) rotate(-82.24461)" fill="#fff"/><rect x="426.39493" y="143.16074" width="0.74704" height="6.18794" transform="translate(224.26588 549.38553) rotate(-82.24522)" fill="#fff"/><rect x="422.76236" y="169.81765" width="0.74704" height="6.18759" transform="translate(194.64439 568.80787) rotate(-82.23565)" fill="#fff"/><rect x="422.3588" y="172.77932" width="0.74704" height="6.18807" transform="translate(191.3648 570.97223) rotate(-82.23626)" fill="#fff"/><path d="M410.78927,140.9663l0,39.3528h-6.18772l0-39.35279a.64316.64316,0,0,1,.64316-.64316h4.9014A.64317.64317,0,0,1,410.78927,140.9663Z" fill="#f65b2b"/><rect x="404.6017" y="176.89582" width="6.1875" height="0.74805" fill="#fff"/><rect x="404.6017" y="173.90656" width="6.1875" height="0.74805" fill="#fff"/><rect x="404.6017" y="147.00324" width="6.1875" height="0.74805" fill="#fff"/><rect x="404.6017" y="144.01496" width="6.1875" height="0.74805" fill="#fff"/><path d="M410.78179,180.3191V142.75984a.64315.64315,0,0,1,.64315-.64315h7.05365a.64315.64315,0,0,1,.64316.64315V180.3191Z" fill="#ffba55"/><rect x="410.78187" y="175.61848" width="8.33984" height="0.74805" fill="#fff"/><rect x="406.0289" y="150.50149" width="17.84573" height="5.38062" transform="translate(568.14357 -261.75997) rotate(90)" fill="#fff"/><path d="M390.08525,140.9663l0,39.3528H396.273l0-39.35279a.64315.64315,0,0,0-.64315-.64316h-4.9014A.64317.64317,0,0,0,390.08525,140.9663Z" fill="#ffba55"/><rect x="390.0851" y="176.89582" width="6.18799" height="0.74805" fill="#fff"/><rect x="390.0851" y="173.90656" width="6.18799" height="0.74805" fill="#fff"/><rect x="390.0851" y="147.00324" width="6.18799" height="0.74805" fill="#fff"/><rect x="390.0851" y="144.01496" width="6.18799" height="0.74805" fill="#fff"/><path d="M390.09274,180.3191V142.75984a.64315.64315,0,0,0-.64316-.64315h-7.05365a.64316.64316,0,0,0-.64316.64315V180.3191Z" fill="#f65b2b"/><rect x="381.75258" y="175.61848" width="8.34033" height="0.74805" fill="#fff"/><rect x="376.99989" y="150.50149" width="17.84573" height="5.38062" transform="translate(539.11455 -232.73096) rotate(90)" fill="#fff"/><path d="M381.97921,157.04791h37.55926a0,0,0,0,1,0,0v8.34a0,0,0,0,1,0,0H381.97921a.64316.64316,0,0,1-.64316-.64316v-7.05365a.64316.64316,0,0,1,.64316-.64316Z" transform="translate(561.65515 -239.21937) rotate(90)" fill="#7ca1b1"/><rect x="396.26723" y="175.61848" width="8.33984" height="0.74805" fill="#fff"/><rect x="391.5144" y="150.50149" width="17.84573" height="5.38062" transform="translate(553.62906 -247.24546) rotate(90)" fill="#fff"/><polygon points="445.478 363.553 385.215 363.553 385.215 329.908 445.369 329.908 445.478 363.553" fill="#935b50"/><path d="M451.0217,326.33119H379.09091c-4.00466,0-5.25108-3.24643-5.25108-7.25109V261.79c0-4.00467,1.24642-7.25109,5.25108-7.25109H451.0217c4.00467,0,5.25109,3.24642,5.25109,7.25109V319.0801C456.27279,323.08476,455.02637,326.33119,451.0217,326.33119Z" fill="#d6694b"/><rect x="366.61904" y="353.59528" width="96.87453" height="9.95816" rx="1.61135" fill="#d6694b"/><rect x="373" y="363.55344" width="83.82257" height="6.28428" rx="1.61135" fill="#935b50"/><rect x="410.12557" y="369.83771" width="9.28139" height="32.6494" fill="#d6694b"/><polygon points="419.407 407.463 478.919 428.43 478.919 420.889 419.407 402.487 410.126 402.487 350.565 420.889 350.565 428.43 410.126 407.463 419.407 407.463" fill="#935b50"/><rect x="407.95024" y="400.16676" width="13.63204" height="9.86148" rx="1.61135" fill="#e19974"/><rect x="342.41652" y="420.72859" width="8.84633" height="15.66235" rx="2.01419" fill="#d6694b"/><rect x="478.22134" y="420.72859" width="8.84633" height="15.66235" rx="2.01419" transform="translate(965.289 857.11952) rotate(-180)" fill="#d6694b"/><path d="M337.46637,407.83907l-3.5076,10.08292a56.78058,56.78058,0,0,1-27.13756,12.87728s-4.99927,2.2956-4.99927,5.91961h49.28629V417.922l1.5209-9.645Z" fill="#f9977a"/><path d="M302.62791,434.26506h47.94886a1.22481,1.22481,0,0,1,1.2248,1.22481v.00421a1.22481,1.22481,0,0,1-1.22479,1.22481l-49.4317.00013S299.73363,435.23137,302.62791,434.26506Z" fill="#d6694b"/><path d="M316.85767,434.87891s.46581-2.52876-2.05162-6.02863a5.13884,5.13884,0,0,1,4.34287-1.55433,15.50759,15.50759,0,0,1,1.39979,3.06715c.60837,1.70539,1.03376,3.75442.30171,5.129Z" fill="#d6694b"/><path d="M328.16385,422.12789s4.798,6.92822,2.30252,12.81757h4.69152s1.90338-9.75537-3.14725-15.18466C332.01064,419.7608,328.86861,419.8425,328.16385,422.12789Z" fill="#d6694b"/><path d="M404.986,399.25344l-.24915,10.67269S395.68558,423.503,380.947,431.11256c0,0-4.05533,3.7171-2.94483,7.16677l46.91529-15.10281-5.75994-17.89264-1.50778-9.647Z" fill="#f9977a"/><path d="M378.01742,435.69658l45.64219-14.693a1.22481,1.22481,0,0,1,1.5412.79056l.00129.004a1.22479,1.22479,0,0,1-.79056,1.54119l-47.05364,15.1475S375.55848,437.50329,378.01742,435.69658Z" fill="#d6694b"/><path d="M391.75073,431.92047s-.33149-2.54985-3.80027-5.10994a5.1388,5.1388,0,0,1,3.65765-2.81034,15.50824,15.50824,0,0,1,2.27232,2.49066c1.10168,1.43693,2.13449,3.257,1.85886,4.78976Z" fill="#d6694b"/><path d="M399.42093,416.529s5.875,4.91393,5.30423,11.28466l4.46582-1.43762s-.36231-9.65859-6.83367-13.279C402.35731,413.09705,399.39147,414.13763,399.42093,416.529Z" fill="#d6694b"/><path d="M479.40065,268.13754s10.136-6.5679,9.67446-8.33783-5.72483.35865-5.72483.35865l-.9692-3.71684,5.95248-10.63664a1.19677,1.19677,0,0,0-.534-1.66692h0a1.195,1.195,0,0,0-1.19471.1005c-2.476,1.72569-14.3201,11.7712-14.69986,20.83246Z" fill="#f9977a"/><path d="M408.9585,266.67015a59.40957,59.40957,0,0,1-.98975,6.54c-.23975,1.17993-.52,2.40991-.85986,3.65991-1.18018,4.41015-4.73,17.71-15.5503,28.68017V294.90013a54.73311,54.73311,0,0,1-8.2998,10.99c1.31006-.02979,2.60986-.04981,3.91016-.06983l4.17968-.06c-.08984.08984-.17968.17993-.27.26a49.48906,49.48906,0,0,1-6.09961,5.15991c-4.96,3.56006-14.97021,9.3999-22.15039,9.21a8.21461,8.21461,0,0,1-5.1997-1.75c-3.41016-2.85987-3.69-8.92993-2.49024-12.92993,1.52-5.07007,5.7002-7.78,10.2002-10.68994a30.86559,30.86559,0,0,1,3.4497-1.97c3.89014-1.8601,5.38038-1.29,7.74024-3.75,1.33008-1.39013,2.37988-3.18994,3.83008-14.68994.21-1.62011.41992-3.42016.63965-5.45019,1.0205-9.33008.81-10.12989,1.74023-13.67993,1.03027-3.94,2.48-9.22,6.71973-14.16993,1.31054-1.53,4.60009-5.38012,8.08007-6.95a6.00687,6.00687,0,0,1,4.1001-.51025,5.30862,5.30862,0,0,1,2.75,1.97021,9.87773,9.87773,0,0,1,1,1.57984c.06983.14013.14014.28.21.42993.04.09009.08008.17017.12012.26025a18.55328,18.55328,0,0,1,.68018,1.73975,43.07171,43.07171,0,0,1,1.56982,7.05029c.25,1.68994.4502,3.34986.62988,4.86988.2002,1.66992.43018,3.72.5503,6.11987a.49462.49462,0,0,1,0,.12012A59.07921,59.07921,0,0,1,408.9585,266.67015Z" fill="#160b07"/><path d="M404.31244,256.32531c3.47476,3.64992,18.037.654,12.66309-2.15787,1.49508-.23355,2.7077-.35944,3.839-.654,7.51551-1.95637,15.35916-12.39371,12.96266-20.5277-2.08865-7.08918-11.19918-9.86069-13.41569-10.53511a17.26361,17.26361,0,0,0-16.59261,2.91117,19.67841,19.67841,0,0,0-6.0872,8.59571C396.38312,237.26576,396.39048,248.004,404.31244,256.32531Z" fill="#160b07"/><path d="M424.40189,259.58031l2.91675,2.20029-3.429,12.15147-17.87249-.815-5.02509-12.72942s10.26989-.94951,12.133-7.08172Z" fill="#f9977a"/><path d="M423.6228,254.73372s-4.85984,3.55052-10.43928-.92033c0,0,1.84948,7.82077,11.21837,5.76692A5.57071,5.57071,0,0,1,423.6228,254.73372Z" fill="#dd765e"/><path d="M428.5782,237.42745c-1.825-8.96726-8.2722-15.22559-14.40026-13.97845-4.7298.9626-7.88419,6.11632-8.23965,12.54057a1.748,1.748,0,0,0-1.46917-.21324c-1.331.49463-1.6113,3.045-.626,5.69622.83187,2.2385,2.29905,3.82726,3.53712,3.97189,2.58513,7.03059,8.11356,11.555,13.40651,10.47778C426.91484,254.675,430.40319,246.39466,428.5782,237.42745Z" fill="#f9977a"/><path d="M421.19805,236.703a5.09423,5.09423,0,0,0-.0176,3.24235,11.77569,11.77569,0,0,0,1.33122,3.00052c.2977.46961.75871.84127.68828,1.27172a1.85191,1.85191,0,0,1-.79371,1.17388,3.99628,3.99628,0,0,1-3.03665.40637,3.72294,3.72294,0,0,0,3.22506-.13185,2.06328,2.06328,0,0,0,.9973-1.41065,1.26043,1.26043,0,0,0-.258-.89167l-.46465-.66075a12.9342,12.9342,0,0,1-1.37534-2.86493A5.80584,5.80584,0,0,1,421.19805,236.703Z" fill="#dd765e"/><path d="M411.62528,238.92893a.43265.43265,0,0,1-.22973-.70145c.10836-.12772,2.6951-3.11507,6.20416-2.49837a.43274.43274,0,1,1-.14971.85243c-3.02638-.53176-5.37167,2.17906-5.3951,2.20653A.43285.43285,0,0,1,411.62528,238.92893Z" fill="#160b07"/><path d="M422.98979,235.72958a.43287.43287,0,0,1-.05408-.8263,8.35157,8.35157,0,0,1,5.232-.08247.43279.43279,0,0,1-.288.81627,7.55417,7.55417,0,0,0-4.63765.07611A.433.433,0,0,1,422.98979,235.72958Z" fill="#160b07"/><path d="M412.53943,240.82166a7.84875,7.84875,0,0,1,2.86887-1.45518,3.80272,3.80272,0,0,1,1.55647-.02874,5.20423,5.20423,0,0,1,1.51174.58254,3.36459,3.36459,0,0,0-1.42978-.90533,3.28431,3.28431,0,0,0-1.73132-.071,4.53415,4.53415,0,0,0-1.56578.70507A4.82445,4.82445,0,0,0,412.53943,240.82166Z" fill="#160b07"/><circle cx="416.44036" cy="240.02912" r="0.97066" fill="#160b07"/><circle cx="425.67742" cy="238.87475" r="0.97066" fill="#160b07"/><path d="M422.44408,239.87059a7.84891,7.84891,0,0,1,2.86887-1.45518,3.80289,3.80289,0,0,1,1.55647-.02873,5.2042,5.2042,0,0,1,1.51174.58253,3.36472,3.36472,0,0,0-1.42978-.90532,3.28329,3.28329,0,0,0-1.73132-.071,4.53418,4.53418,0,0,0-1.56578.70508A4.82459,4.82459,0,0,0,422.44408,239.87059Z" fill="#160b07"/><path d="M404.31247,238.87784a4.23331,4.23331,0,0,1,.68666-.86161.61805.61805,0,0,1,.79534-.10483,2.90437,2.90437,0,0,1,.72632.73229c.23273.28768.42236.6131.6729.91494a4.33827,4.33827,0,0,0-.39241-1.09424,2.23572,2.23572,0,0,0-.7925-.9288.90741.90741,0,0,0-.68989-.12072,1.00881,1.00881,0,0,0-.55735.37035A2.18265,2.18265,0,0,0,404.31247,238.87784Z" fill="#dd765e"/><path d="M405.90011,241.81481a2.14078,2.14078,0,0,0,.44866-1.01734,3.71636,3.71636,0,0,0,.03947-1.11691,4.72775,4.72775,0,0,0-.2469-1.07987l-.20946-.50958c-.0939-.16049-.17323-.32471-.27827-.47751.09431.7326.2384,1.41815.30438,2.11189a9.16744,9.16744,0,0,1,.06111,1.03778A4.56622,4.56622,0,0,1,405.90011,241.81481Z" fill="#dd765e"/><circle cx="405.40617" cy="244.21345" r="1.92667" fill="#ffcb33"/><path d="M416.56019,249.217s5.40571,3.38583,8.47319-.36619Z" fill="#dd2f22"/><path d="M418.97915,224.91724c-1.34756.32313-2.09306,1.35642-3.58408,3.42293-2.88013,3.99183-4.5863,9.4811-6.57965,10.45409a1.22969,1.22969,0,0,1-.72881.148c-.77969-.114-1.09385-1.12382-1.9606-2.54476-.655-1.07383-.94-1.25849-1.32179-1.86008a8.68081,8.68081,0,0,1-.39129-7.83134,9.19731,9.19731,0,0,1,5.05728-4.46257c4.54132-1.94482,8.93048-.246,10.04363.18482,6.6876,2.58842,9.54279,9.20922,9.30644,9.404C428.54243,232.06139,423.47051,223.84027,418.97915,224.91724Z" fill="#160b07"/><path d="M437.25494,315.78021c4.69363,6.6794,6.08259,16.16629,6.27041,24.15418A14.83535,14.83535,0,0,1,428.71029,355.154H413.85356l7.0163,54.99808H402.24234L387.987,355.19538h-12.65l-21.65844,53.44745H335.10606c4.61229-32.286,14.5274-60.153,20.2344-74.33385a15.93,15.93,0,0,1,14.78838-9.98541h19.209l3.7145-7.05755Z" fill="#8b9d36"/><path d="M480.769,268.20018l-.84033-.40992L472.019,263.9702l-.21045-.1001a1.9921,1.9921,0,0,0-2.62988.8501l-12.47021,23.25c-20.75-30.37012-29.38965-26.18995-29.38965-26.18995-5.48,9.2-12.82031,7.93995-18.36035,4.8899a33.73567,33.73567,0,0,1-7.96973-6.28c-6.00977-.92993-13.6499,5.3-20.62988,14.22021a112.9393,112.9393,0,0,0-11.57032,18.43994,89.48969,89.48969,0,0,0-5.81982,14.27979c-1.73975,5.8501-1.43018,10.05029-.14014,13.06006a11.27814,11.27814,0,0,0,1.23,2.16015,8.963,8.963,0,0,0,2.3003,2.22,9.73064,9.73064,0,0,0,11.37011-.45,9.41681,9.41681,0,0,0,1.04981-.95019l14.27-6.09985,8.60986-.29.24024-.01,35.35986-1.18995.91016-15.45019.00976-.23975.14014.09986,14.27,10.59008a9.19465,9.19465,0,0,0,13.96-3.82006l15.19971-36.18994A1.99542,1.99542,0,0,0,480.769,268.20018Zm-89.21045,26.7v10.65014q-.10473.10474-.21.21l-4.17968.06c-1.3003.02-2.6001.04-3.91016.06983A54.73311,54.73311,0,0,0,391.55859,294.90013Z" fill="#f73c4f"/><path d="M387.987,355.19535a54.52207,54.52207,0,0,1-1.51957-18.057,24.44064,24.44064,0,0,1,2.43427-8.75232,13.47515,13.47515,0,0,1,6.51047-6.2373,19.26366,19.26366,0,0,1,8.98617-1.2732c3.03085.091,6.05876.27161,9.08179.50818,3.02112.25989,6.03776.59,9.03229,1.07471a42.9834,42.9834,0,0,1,8.79928,2.23657,43.23859,43.23859,0,0,0-8.82672-2.06445c-2.99165-.46363-6.00555-.773-9.02353-1.01209-3.02014-.21582-6.04458-.376-9.0721-.44629a26.155,26.155,0,0,0-4.51338.122,16.484,16.484,0,0,0-4.32823,1.16321,13.16345,13.16345,0,0,0-6.3977,6.0603,24.19513,24.19513,0,0,0-2.45879,8.64514,47.76626,47.76626,0,0,0-.05544,9.05713A61.73543,61.73543,0,0,0,387.987,355.19535Z" fill="#5e7c24"/><path d="M375.337,355.19535a20.44693,20.44693,0,0,1,1.04065-3.236,13.24131,13.24131,0,0,1,1.63814-2.98072c-.46083,1.038-.90265,2.06482-1.31943,3.1128C376.24658,353.1243,375.842,354.17533,375.337,355.19535Z" fill="#5e7c24"/><path d="M413.85356,355.154a34.89724,34.89724,0,0,1-.74459-3.495,34.45778,34.45778,0,0,1-.4041-3.55066,34.46616,34.46616,0,0,1,.74459,3.49512A34.886,34.886,0,0,1,413.85356,355.154Z" fill="#5e7c24"/><path d="M355.80157,341.10428a8.92323,8.92323,0,0,0,3.09529-.04907,6.17006,6.17006,0,0,0,2.75517-1.26636,7.15119,7.15119,0,0,0,1.88872-2.38452,14.926,14.926,0,0,0,.60918-1.42688l.43788-1.50427c-.08086.51623-.1763,1.03418-.27565,1.55273a14.5751,14.5751,0,0,1-.53212,1.49378,7.03681,7.03681,0,0,1-1.91344,2.5393A6.76164,6.76164,0,0,1,355.80157,341.10428Z" fill="#5e7c24"/><path d="M393.39521,343.04142a8.92294,8.92294,0,0,0,3.09528-.04908,6.16994,6.16994,0,0,0,2.75517-1.26635,7.15139,7.15139,0,0,0,1.88872-2.38452,14.92714,14.92714,0,0,0,.60919-1.42688l.43787-1.5044c-.08086.51636-.1763,1.03418-.27565,1.55286a14.57816,14.57816,0,0,1-.53212,1.49377,7.03685,7.03685,0,0,1-1.91344,2.53931A6.76163,6.76163,0,0,1,393.39521,343.04142Z" fill="#5e7c24"/><path d="M439.5765,286.85355a17.06106,17.06106,0,0,1,.5176,3.33728,22.52979,22.52979,0,0,1-.1326,3.38477,28.24991,28.24991,0,0,1-1.619,6.57617l-.01126.02978-.02068.02063a9.77346,9.77346,0,0,1-2.71652,1.89746,8.41478,8.41478,0,0,1-6.44683.34668,10.61377,10.61377,0,0,1-1.50257-.65881c-.47834-.26233-.92552-.57959-1.38743-.86536.47748.26282.9376.5553,1.425.79126a10.48676,10.48676,0,0,0,1.51591.57471,8.19233,8.19233,0,0,0,3.18115.36609,9.086,9.086,0,0,0,5.67708-2.68335l-.03173.05a29.61,29.61,0,0,0,1.67147-6.47913A19.60736,19.60736,0,0,0,439.5765,286.85355Z" fill="#b02336"/><path d="M356.43373,409.143H332.01087a.5.5,0,0,1,0-1h24.42286a.5.5,0,0,1,0,1Z" fill="#5e7c24"/><path d="M423.7433,410.65226H399.32044a.5.5,0,0,1,0-1H423.7433a.5.5,0,0,1,0,1Z" fill="#5e7c24"/><path d="M406.3999,302.07249a11.42421,11.42421,0,0,1-2.94922.40381c-.1582.00293-.31591-.00586-.47363-.01172-.002.11035.00049.22437-.002.33447.15869.00879.31738.02076.47607.02222a10.62446,10.62446,0,0,0,3.02246-.49341,13.94762,13.94762,0,0,0,1.42432-.55151c.45361-.22949.895-.48316,1.33154-.73584A18.44308,18.44308,0,0,1,406.3999,302.07249Z" fill="#b02336"/><path d="M401.66938,318.41755s12.03991,5.91325,13.31467,4.60152-3.27272-4.7108-3.27272-4.7108l2.677-2.75462,12.18172-.41938a1.19678,1.19678,0,0,0,1.14913-1.32032h0a1.195,1.195,0,0,0-.70493-.9698c-2.75879-1.2237-16.13024-7.29429-24.07734-2.92458Z" fill="#f9977a"/><path d="M403.32861,307.76024c-.12988,1.18994-.33984,2.27-.50976,3.40991l-.91992,5.8-.15039.97c-.16993.97-.27979,1.94018-.48975,2.92016l-.06006.29981c-.00977.06006-.02978.12011-.04.18017a2.08675,2.08675,0,0,1-1.23,1.22,4.8474,4.8474,0,0,1-1.73.10987l-2.93994-.07984-.72022-.02-3.18994-.09008,3.34033.01h.79l2.71973.01a5.03449,5.03449,0,0,0,1.66016-.11011,1.88989,1.88989,0,0,0,1.10986-1.11987c.01025-.03.01025-.06006.02-.09009.02-.1001.04-.2.06006-.31006.19971-.96.2998-1.98975.47021-2.96l.13965-.92993.87988-5.84986c.15039-1.12011.36036-2.28027.48047-3.3601a1.8901,1.8901,0,0,0-.65039-1.3899,1.99,1.99,0,0,0-1.48974-.43017l-9.32032.07007h-.48l-4.5498.04-3.46.01978.01172-.012c-3.20411.01782-6.41016.03686-9.61182.02221q4.905-.1201,9.79-.20019c1.31006-.02979,2.60986-.04981,3.91016-.06983l4.17968-.06.21-.01,9.32032-.1399a2.26311,2.26311,0,0,1,1.6997.52A2.16021,2.16021,0,0,1,403.32861,307.76024Z" fill="#b02336"/><path d="M557.06068,314.805a.56578.56578,0,0,1-.06982-.00488.43738.43738,0,0,1-.36182-.501c.106-.66113,10.26319-66.50293-18.86035-96.74805-11.668-12.11718-28.16064-17.01562-49.01465-14.56054v18.55078a.43677.43677,0,0,1-.87353,0V202.60285a.43685.43685,0,0,1,.38428-.43359c21.32763-2.59571,38.19482,2.376,50.13427,14.77734,29.42481,30.55957,19.19922,96.8252,19.09229,97.49121A.436.436,0,0,1,557.06068,314.805Z" fill="#fec165"/><path d="M466.71522,241.29959h44.75037a22.53075,22.53075,0,0,0-44.75037,0Z" fill="#fec165"/><path d="M532.89905,313.04314h27.66863a0,0,0,0,1,0,0v.997a.87353.87353,0,0,1-.87353.87353H533.77258a.87353.87353,0,0,1-.87353-.87353v-.997A0,0,0,0,1,532.89905,313.04314Z" transform="translate(1093.46673 627.95684) rotate(-180)" fill="#fec165"/><polygon points="528.685 314.929 512.72 314.929 507.341 286.658 534.063 286.658 528.685 314.929" fill="#e19974"/><polygon points="533.449 289.885 534.064 286.658 507.341 286.658 507.955 289.885 533.449 289.885" fill="#d6694b"/><rect x="511.61154" y="301.5269" width="4.76931" height="4.76931" transform="translate(365.44392 -274.43656) rotate(45)" fill="#d6694b"/><rect x="518.35636" y="301.5269" width="4.76931" height="4.76931" transform="translate(367.41943 -279.20587) rotate(45)" fill="#d6694b"/><rect x="525.0235" y="301.5269" width="4.76931" height="4.76931" transform="translate(369.37219 -283.92025) rotate(45)" fill="#d6694b"/><path d="M526.921,262.86494s1.40188,19.80513-6.81465,24.00238C520.10635,286.86732,517.2618,279.35851,526.921,262.86494Z" fill="#558031"/><path d="M500.40781,271.37236s13.44186,2.31927,19.69854,15.495C520.10635,286.86732,505.32489,281.84693,500.40781,271.37236Z" fill="#849f4c"/><path d="M505.17394,297.31443s6.8361-10.22707,14.93241-10.44711C520.10635,286.86732,518.88749,295.102,505.17394,297.31443Z" fill="#a6b862"/><path d="M513.60638,265.68793s9.48513,8.66025,6.5,21.17939C520.10635,286.86732,514.85194,281.29771,513.60638,265.68793Z" fill="#849f4c"/><path d="M520.10635,286.86732s3.33247-12.19879,20.17889-15.32689C540.28524,271.54043,536.49405,282.64763,520.10635,286.86732Z" fill="#a6b862"/><path d="M544.74789,283.67846s-12.85334-5.29889-24.64154,3.18886C520.10635,286.86732,535.7775,288.74878,544.74789,283.67846Z" fill="#849f4c"/><path d="M544.631,296.01486s-6.20627-9.941-24.52461-9.14754Z" fill="#558031"/><path d="M493.48437,285.25821s16.88044-6.25921,26.84288,1.30982C520.32725,286.568,510.86765,291.77849,493.48437,285.25821Z" fill="#558031"/><path d="M507.32675,267.13412s15.06248,10.65325,12.90175,19.74185C520.2285,286.876,509.77862,278.49739,507.32675,267.13412Z" fill="#558031"/><path d="M533.74909,297.47092s-12.41731-2.11991-13.64274-10.6036C520.10635,286.86732,529.17932,287.31669,533.74909,297.47092Z" fill="#849f4c"/><path d="M491.88332,310.93852v.374a3.59762,3.59762,0,0,1-3.59631,3.59632H477.48369a3.59763,3.59763,0,0,1-3.59631-3.59632V296.75466a3.59763,3.59763,0,0,1,3.59631-3.59631H488.287a3.59762,3.59762,0,0,1,3.59631,3.59631v14.18386Z" fill="#f65b2b"/><path d="M497.83869,296.86963h-5.95534v2.15779h4.87645v9.75324h-4.87645v2.15779h5.95534a1.07738,1.07738,0,0,0,1.07889-1.0789v-11.911A1.07749,1.07749,0,0,0,497.83869,296.86963Z" fill="#4f66d0"/><rect x="482.88535" y="300.60448" width="4.46966" height="4.46966" rx="0.71926" fill="#ffba55"/><rect x="484.61391" y="293.15852" width="1.0127" height="7.44629" fill="#e5caf3"/><rect x="543.05136" y="321.92141" width="9.13711" height="114.93568" fill="#935b50"/><rect x="295.09997" y="314.9137" width="274.58175" height="7.00771" rx="1.57523" fill="#935b50"/><rect x="313.32212" y="321.92141" width="9.13711" height="114.93568" fill="#935b50"/><path d="M306.03326,321.92141H559.37319a0,0,0,0,1,0,0v18.15947a3.15046,3.15046,0,0,1-3.15046,3.15046h-247.039a3.15046,3.15046,0,0,1-3.15046-3.15046V321.92141A0,0,0,0,1,306.03326,321.92141Z" fill="#c38f86"/><path d="M358.35609,338.01984a4.96815,4.96815,0,0,1-.62109.1084,6.575,6.575,0,0,1-.83691.05371,3.74365,3.74365,0,0,1-.72852-.0625,1.2888,1.2888,0,0,1-.53125-.22558.9734.9734,0,0,1-.32422-.4502,2.18486,2.18486,0,0,1-.10742-.75586V333.8802h-3.45606v4.13964a5.03775,5.03775,0,0,1-.62109.1084,6.58635,6.58635,0,0,1-.83691.05371,3.7543,3.7543,0,0,1-.7295-.0625,1.29454,1.29454,0,0,1-.53125-.22558.965.965,0,0,1-.32324-.4502,2.18233,2.18233,0,0,1-.1084-.75586v-9.5039q.19776-.03516.62989-.09864a5.75212,5.75212,0,0,1,.82812-.06347,3.75639,3.75639,0,0,1,.72949.06347,1.30258,1.30258,0,0,1,.53028.22461.97659.97659,0,0,1,.32422.4502,2.19,2.19,0,0,1,.10839.75586v2.87988h3.45606v-4.21191q.19776-.03516.62988-.09864a5.74189,5.74189,0,0,1,.82813-.06347,3.74587,3.74587,0,0,1,.72851.06347,1.30691,1.30691,0,0,1,.53125.22461.9834.9834,0,0,1,.32422.4502,2.2161,2.2161,0,0,1,.10742.75586Z" fill="#e5e1e5"/><path d="M360.1559,332.62043a6.51155,6.51155,0,0,1,.4414-2.48438,5.01129,5.01129,0,0,1,3.00586-2.916,6.83153,6.83153,0,0,1,4.48145,0,5.21594,5.21594,0,0,1,1.80957,1.10742,5.08393,5.08393,0,0,1,1.21484,1.80859,6.53016,6.53016,0,0,1,.44141,2.48438,6.72437,6.72437,0,0,1-.43262,2.49316,5.02764,5.02764,0,0,1-1.19726,1.81739,5.09781,5.09781,0,0,1-1.8086,1.10742,6.6167,6.6167,0,0,1-2.26758.37793,6.46045,6.46045,0,0,1-2.26855-.3877,5.04889,5.04889,0,0,1-1.7998-1.125,5.1956,5.1956,0,0,1-1.18848-1.81738A6.615,6.615,0,0,1,360.1559,332.62043Zm3.24023,0a3.79225,3.79225,0,0,0,.666,2.44727,2.384,2.384,0,0,0,3.582,0,4.82628,4.82628,0,0,0,.00879-4.87793,2.18312,2.18312,0,0,0-1.791-.80957,2.22757,2.22757,0,0,0-1.791.80078A3.722,3.722,0,0,0,363.39613,332.62043Z" fill="#e5e1e5"/><path d="M378.3893,329.848a4.63619,4.63619,0,0,1,.62109-.207,3.19077,3.19077,0,0,1,.85449-.11719,3.08847,3.08847,0,0,1,1.26074.22559.98417.98417,0,0,1,.61133.65722q.19776.73829.36914,1.377t.333,1.22363q.1626.58447.31543,1.16113.15234.57569.29688,1.20606h.08984q.1626-1.09865.28809-2.09766.126-.999.23437-1.96191.10694-.96242.21582-1.90723.10841-.94629.21582-1.917a2.83472,2.83472,0,0,1,1.42188-.37891,2.22533,2.22533,0,0,1,1.15234.28809,1.039,1.039,0,0,1,.48535.97265,10.76264,10.76264,0,0,1-.08105,1.125q-.08057.728-.21582,1.62891-.13478.89942-.31446,1.88965-.18016.99023-.37793,1.89062-.19921.89941-.40527,1.62891a8.554,8.554,0,0,1-.38672,1.125,2.09376,2.09376,0,0,1-.88281.41406,4.91828,4.91828,0,0,1-1.25977.16113,3.99225,3.99225,0,0,1-1.43066-.22461,1.06159,1.06159,0,0,1-.71094-.63867q-.23437-.72071-.5039-1.71-.271-.99023-.57618-2.17871-.25194,1.17041-.52246,2.28613-.26952,1.11621-.48535,1.89063a2.04989,2.04989,0,0,1-.81055.41406,4.13754,4.13754,0,0,1-1.1875.16113,4.4942,4.4942,0,0,1-1.46679-.22461,1.36815,1.36815,0,0,1-.85547-.63867,6.19863,6.19863,0,0,1-.35059-.96289q-.189-.63867-.38769-1.458-.19776-.81883-.4043-1.77343-.208-.95362-.37793-1.90821-.17139-.95361-.31543-1.8623-.145-.90967-.21582-1.665a2.52583,2.52583,0,0,1,.70215-.43262,2.385,2.385,0,0,1,.97168-.19824,1.97158,1.97158,0,0,1,1.125.29785,1.38448,1.38448,0,0,1,.54883.999q.28857,1.83544.47754,3.05957.189,1.2246.30566,2.00683.1172.78369.1709,1.21485.0542.43212.1084.68457h.08984q.16113-.72071.30567-1.332.14355-.6123.29687-1.23339.15381-.62111.31543-1.332Q378.20863,330.76642,378.3893,329.848Z" fill="#e5e1e5"/><path d="M398.04555,329.3802a2.66635,2.66635,0,0,0-2.124.8457,3.52919,3.52919,0,0,0-.73828,2.39453,3.3249,3.3249,0,0,0,.81934,2.41211,2.92664,2.92664,0,0,0,2.2041.8457,3.48718,3.48718,0,0,0,1.251-.19824,8.39265,8.39265,0,0,0,.98144-.4502,1.78372,1.78372,0,0,1,.47656.60352,1.84269,1.84269,0,0,1,.17188.81836,1.47486,1.47486,0,0,1-.81934,1.251,4.77966,4.77966,0,0,1-2.49316.51367,7.36834,7.36834,0,0,1-2.26758-.3418,5.05732,5.05732,0,0,1-1.85449-1.05371,4.95227,4.95227,0,0,1-1.251-1.7998,6.67963,6.67963,0,0,1-.459-2.60059,6.448,6.448,0,0,1,.4414-2.47559,5.24707,5.24707,0,0,1,1.20606-1.80859,5.0648,5.0648,0,0,1,1.791-1.11621,6.29662,6.29662,0,0,1,2.19532-.37793,5.05028,5.05028,0,0,1,2.56543.54,1.59138,1.59138,0,0,1,.90918,1.38574,1.39942,1.39942,0,0,1-.23438.81055,1.93242,1.93242,0,0,1-.54.54,5.91458,5.91458,0,0,0-.999-.52246A3.26016,3.26016,0,0,0,398.04555,329.3802Z" fill="#e5e1e5"/><path d="M405.35316,327.50813a3.78035,3.78035,0,0,1,.92676-.3418,4.91986,4.91986,0,0,1,1.251-.16211,4.50585,4.50585,0,0,1,1.59277.26074,1.38954,1.38954,0,0,1,.8916.81934q.32373.936.70215,2.17773.37793,1.2422.75586,2.56543.37793,1.32276.73731,2.60938.36034,1.28758.63086,2.27734a1.49572,1.49572,0,0,1-.64844.40527,3.0919,3.0919,0,0,1-1.02637.15235,3.15521,3.15521,0,0,1-.72852-.07129,1.30054,1.30054,0,0,1-.48632-.2168,1.05955,1.05955,0,0,1-.30567-.37793,3.20246,3.20246,0,0,1-.207-.54l-.32422-1.24121h-3.25781q-.145.53907-.28809,1.11524c-.09668.38476-.19238.75586-.28808,1.11621a4.62984,4.62984,0,0,1-.53125.15332,3.11168,3.11168,0,0,1-.67481.0625,2.34988,2.34988,0,0,1-1.35839-.31446,1.01147,1.01147,0,0,1-.44141-.873,1.79638,1.79638,0,0,1,.07226-.50391q.07179-.252.16211-.59473.12451-.48486.35059-1.20507.22411-.72071.49512-1.55762.26952-.83643.57617-1.71875.30468-.88183.57617-1.665.26953-.78369.49414-1.39551Q405.22719,327.83284,405.35316,327.50813Zm2.16016,2.32226q-.25342.75586-.56738,1.68262-.31494.92724-.56739,1.88086H408.611q-.252-.97119-.5127-1.89844-.2622-.92724-.47754-1.665Z" fill="#e5e1e5"/><path d="M424.19887,337.71418a1.645,1.645,0,0,1-.72852.38672,4.247,4.247,0,0,1-1.14355.13476,3.96671,3.96671,0,0,1-1.25977-.19726,1.7455,1.7455,0,0,1-.97168-.9541l-1.78223-3.63575q-.26952-.55811-.48632-1.05371-.21534-.4951-.46778-1.14257l-.1084.01757q.07179.97266.08106,1.98047.00879,1.00782.00977,1.97949v2.79a5.01013,5.01013,0,0,1-.60352.1084,6.02624,6.02624,0,0,1-.80078.05371,4.06645,4.06645,0,0,1-.70215-.05371,1.08061,1.08061,0,0,1-.50391-.21582,1.03551,1.03551,0,0,1-.30566-.4414,2.04263,2.04263,0,0,1-.1084-.72852v-9a1.50417,1.50417,0,0,1,.77442-.54,3.39309,3.39309,0,0,1,1.11523-.18066,3.89213,3.89213,0,0,1,1.26953.207,1.72223,1.72223,0,0,1,.96289.94531l1.79981,3.63574c.18066.37207.34179.72364.48632,1.05371q.21534.49512.46778,1.14258l.08984-.01758q-.07177-.97264-.08984-1.94433-.01758-.97266-.01758-1.94434v-2.916a4.8364,4.8364,0,0,1,.60254-.10743,6.04179,6.04179,0,0,1,.80078-.05468,2.16324,2.16324,0,0,1,1.20605.27929,1.32186,1.32186,0,0,1,.41407,1.16114Z" fill="#e5e1e5"/><path d="M433.28871,338.01984a5.03775,5.03775,0,0,1-.62109.1084,6.5865,6.5865,0,0,1-.83692.05371,3.7542,3.7542,0,0,1-.72949-.0625,1.29448,1.29448,0,0,1-.53125-.22558.965.965,0,0,1-.32324-.4502,2.18209,2.18209,0,0,1-.1084-.75586v-9.5039q.19776-.03516.62988-.09864a5.75236,5.75236,0,0,1,.82813-.06347,3.75646,3.75646,0,0,1,.72949.06347,1.30254,1.30254,0,0,1,.53027.22461.97652.97652,0,0,1,.32422.4502,2.18969,2.18969,0,0,1,.1084.75586Z" fill="#e5e1e5"/><path d="M448.984,338.01984a4.96815,4.96815,0,0,1-.62109.1084,6.575,6.575,0,0,1-.83691.05371,3.74365,3.74365,0,0,1-.72852-.0625,1.2888,1.2888,0,0,1-.53125-.22558.9734.9734,0,0,1-.32422-.4502,2.18486,2.18486,0,0,1-.10742-.75586V333.8802h-3.45606v4.13964a5.03775,5.03775,0,0,1-.62109.1084,6.58635,6.58635,0,0,1-.83691.05371,3.7543,3.7543,0,0,1-.7295-.0625,1.29454,1.29454,0,0,1-.53125-.22558.965.965,0,0,1-.32324-.4502,2.18233,2.18233,0,0,1-.1084-.75586v-9.5039q.19776-.03516.62989-.09864a5.75212,5.75212,0,0,1,.82812-.06347,3.75639,3.75639,0,0,1,.72949.06347,1.30258,1.30258,0,0,1,.53028.22461.97659.97659,0,0,1,.32422.4502,2.19,2.19,0,0,1,.10839.75586v2.87988h3.45606v-4.21191q.19776-.03516.62988-.09864a5.74189,5.74189,0,0,1,.82813-.06347,3.74587,3.74587,0,0,1,.72851.06347,1.30691,1.30691,0,0,1,.53125.22461.9834.9834,0,0,1,.32422.4502,2.2161,2.2161,0,0,1,.10742.75586Z" fill="#e5e1e5"/><path d="M451.32387,328.85773a1.55415,1.55415,0,0,1,1.67383-1.67382h5.94042a2.15479,2.15479,0,0,1,.22461.52246,2.31,2.31,0,0,1,.09961.68359,1.31446,1.31446,0,0,1-.29785.97168,1.07367,1.07367,0,0,1-.78222.28809h-3.79786v1.6748h4.04981a2.194,2.194,0,0,1,.22461.5127,2.22421,2.22421,0,0,1,.09863.6748,1.34517,1.34517,0,0,1-.28711.97168,1.04571,1.04571,0,0,1-.77441.28809h-3.31153v1.89062h4.626a2.20733,2.20733,0,0,1,.22461.52149,2.34875,2.34875,0,0,1,.09863.68457,1.3489,1.3489,0,0,1-.29687.98047,1.05808,1.05808,0,0,1-.78321.29687H452.9977a1.55415,1.55415,0,0,1-1.67383-1.67383Z" fill="#e5e1e5"/><path d="M462.862,338.14582a1.55416,1.55416,0,0,1-1.67383-1.67383v-9.30566c.13184-.02442.3418-.05664.62989-.09961a5.74652,5.74652,0,0,1,.82812-.0625,3.7619,3.7619,0,0,1,.72949.0625,1.3035,1.3035,0,0,1,.53028.22558.96665.96665,0,0,1,.32422.4502,2.18237,2.18237,0,0,1,.1084.75586v7.10937h4.12207a2.44694,2.44694,0,0,1,.23339.53125,2.22877,2.22877,0,0,1,.1084.69336,1.38281,1.38281,0,0,1-.30664,1.01661,1.11166,1.11166,0,0,1-.80957.29687Z" fill="#e5e1e5"/><path d="M473.57191,338.01984a5.03775,5.03775,0,0,1-.62109.1084,6.58635,6.58635,0,0,1-.83691.05371,3.75423,3.75423,0,0,1-.7295-.0625,1.29454,1.29454,0,0,1-.53125-.22558.965.965,0,0,1-.32324-.4502,2.18233,2.18233,0,0,1-.1084-.75586v-8.47754a.7919.7919,0,0,1,.207-.585,1.4804,1.4804,0,0,1,.56739-.333,6.72169,6.72169,0,0,1,1.39453-.31542,12.65642,12.65642,0,0,1,1.57519-.09864,5.91652,5.91652,0,0,1,3.79786,1.06153,3.50861,3.50861,0,0,1,1.31445,2.87988,4.34187,4.34187,0,0,1-.2793,1.59375,3.30923,3.30923,0,0,1-.82812,1.22363,3.7188,3.7188,0,0,1-1.38575.792,6.107,6.107,0,0,1-1.93554.2793h-1.27735Zm.93555-5.77734a1.71892,1.71892,0,0,0,1.16113-.35156,1.34248,1.34248,0,0,0,.40528-1.07129,1.32558,1.32558,0,0,0-.42285-1.05274,1.82458,1.82458,0,0,0-1.2334-.36914c-.19239,0-.35059.00391-.47657.00977a2.863,2.863,0,0,0-.38769.04492v2.79Z" fill="#e5e1e5"/><path d="M490.20277,338.01984a4.97969,4.97969,0,0,1-.61132.1084,6.25046,6.25046,0,0,1-.81055.05371,2.23033,2.23033,0,0,1-1.24121-.27929,1.34325,1.34325,0,0,1-.41407-1.17871v-2.42969q-.45117-.66651-.97265-1.47656t-1.02539-1.65528q-.50538-.84668-.93653-1.665a15.42942,15.42942,0,0,1-.70214-1.50293,2.45235,2.45235,0,0,1,.63964-.59472,1.76163,1.76163,0,0,1,.999-.26953,2.05211,2.05211,0,0,1,1.14258.28808,2.70427,2.70427,0,0,1,.83691,1.08008l1.49414,3.00586h.1084q.252-.5581.44043-1.01758.189-.45849.36914-.918.18018-.45849.37793-.95312.19776-.49512.45019-1.14356a3.23647,3.23647,0,0,1,.71973-.252,3.43265,3.43265,0,0,1,.75586-.08984,1.72885,1.72885,0,0,1,1.07129.333,1.172,1.172,0,0,1,.44141.999,1.88114,1.88114,0,0,1-.09082.52148,5.79466,5.79466,0,0,1-.41309.92774q-.3252.62109-.94531,1.68261-.6211,1.062-1.6836,2.77246Z" fill="#e5e1e5"/><path d="M494.0016,332.62043a6.51155,6.51155,0,0,1,.44141-2.48438,5.01122,5.01122,0,0,1,3.00586-2.916,6.8315,6.8315,0,0,1,4.48144,0,5.21594,5.21594,0,0,1,1.80957,1.10742,5.084,5.084,0,0,1,1.21485,1.80859,6.53035,6.53035,0,0,1,.4414,2.48438,6.72457,6.72457,0,0,1-.43261,2.49316,5.02779,5.02779,0,0,1-1.19727,1.81739,5.09777,5.09777,0,0,1-1.80859,1.10742,6.6167,6.6167,0,0,1-2.26758.37793,6.46047,6.46047,0,0,1-2.26856-.3877,5.04889,5.04889,0,0,1-1.7998-1.125,5.19574,5.19574,0,0,1-1.18848-1.81738A6.615,6.615,0,0,1,494.0016,332.62043Zm3.24024,0a3.79231,3.79231,0,0,0,.666,2.44727,2.384,2.384,0,0,0,3.582,0,4.82628,4.82628,0,0,0,.00879-4.87793,2.18308,2.18308,0,0,0-1.791-.80957,2.2276,2.2276,0,0,0-1.791.80078A3.722,3.722,0,0,0,497.24184,332.62043Z" fill="#e5e1e5"/><path d="M516.861,334.05988a4.58279,4.58279,0,0,1-.333,1.77344,3.74889,3.74889,0,0,1-.96289,1.36816,4.34311,4.34311,0,0,1-1.53028.873,6.91813,6.91813,0,0,1-4.06738,0,4.34315,4.34315,0,0,1-1.53027-.873,3.74889,3.74889,0,0,1-.96289-1.36816,4.56477,4.56477,0,0,1-.333-1.77344v-6.876q.19776-.03516.62988-.09864a5.74189,5.74189,0,0,1,.82813-.06347,3.74587,3.74587,0,0,1,.72851.06347,1.30113,1.30113,0,0,1,.53125.22461.9834.9834,0,0,1,.32422.4502,2.19218,2.19218,0,0,1,.10742.75586v5.49023a1.841,1.841,0,0,0,.47754,1.34961,1.8171,1.8171,0,0,0,2.47461,0,1.861,1.861,0,0,0,.46778-1.34961v-6.82226q.19921-.03516.63086-.09864a5.72849,5.72849,0,0,1,.82714-.06347,3.74949,3.74949,0,0,1,.7295.06347,1.307,1.307,0,0,1,.53125.22461.97491.97491,0,0,1,.32324.4502,2.18993,2.18993,0,0,1,.1084.75586Z" fill="#e5e1e5"/><path d="M383.06877,306.08015l.17267-.20459.00143-.00171c.74894-.87793,1.48569-1.75781,2.17212-2.677q1.06435-1.3484,2.02991-2.76807c1.29181-1.887,2.52847-3.80933,3.68448-5.78272l-.06955.25415-.00006-.01-.00089-.13428.07041-.11988c.60016-1.02026,1.19485-2.04467,1.7594-3.08667.589-1.0288,1.12347-2.08715,1.69394-3.12866.56225-1.0459,1.09823-2.10644,1.62054-3.17456.5535-1.05517,1.05783-2.13257,1.5856-3.206a51.34367,51.34367,0,0,1-2.51047,6.718,62.88131,62.88131,0,0,1-3.28994,6.386l.06942-.2539-.00006.01-.00091.13965-.06876.11475a51.2987,51.2987,0,0,1-3.92355,5.73413q-1.0893,1.35608-2.26511,2.63647a32.27257,32.27257,0,0,1-2.5246,2.38111l.00116-.00122Z" fill="#b02336"/><path d="M391.55876,294.89021a29.45734,29.45734,0,0,1,.49585,5.56494,31.87076,31.87076,0,0,1-.3996,5.56494l-.01913.11181-.07721-.01538-.47989-.09619.47989-.09619-.09613.09595a31.87468,31.87468,0,0,1-.39963-5.56494A29.45982,29.45982,0,0,1,391.55876,294.89021Z" fill="#b02336"/><path d="M338.14868,335.86275c3.86071,0,3.86711-6,0-6-3.86072,0-3.86711,6,0,6Z" fill="#e5e1e5"/><path d="M527.34868,335.86275c3.86071,0,3.86711-6,0-6-3.86072,0-3.86711,6,0,6Z" fill="#e5e1e5"/><path d="M309.7704,307.88874h39.64115a0,0,0,0,1,0,0v6.29363a0,0,0,0,1,0,0H309.7704a2.70807,2.70807,0,0,1-2.70807-2.70807v-.87749a2.70807,2.70807,0,0,1,2.70807-2.70807Z" fill="#fff"/><path d="M350.65125,314.34347a.57023.57023,0,0,1-.57023.57023H308.93789c-1.5709,0-2.84869-1.72537-2.84869-3.8465,0-2.12062,1.27779-3.846,2.84869-3.846H350.081a.57023.57023,0,0,1,.57023.57023v.44885a.57023.57023,0,0,1-.57023.57022H308.93789c-.92185,0-1.67166,1.01246-1.67166,2.25669,0,1.24474.74981,2.2572,1.67166,2.2572H350.081a.57023.57023,0,0,1,.57023.57022Z" fill="#f65b2b"/><path d="M303.58563,300.19626h39.64115a0,0,0,0,1,0,0v6.29363a0,0,0,0,1,0,0H303.58563a2.70807,2.70807,0,0,1-2.70807-2.70807v-.87749A2.70807,2.70807,0,0,1,303.58563,300.19626Z" fill="#fff"/><path d="M344.46648,306.651a.57023.57023,0,0,1-.57023.57022H302.75311c-1.57089,0-2.84868-1.72536-2.84868-3.84649,0-2.12062,1.27779-3.846,2.84868-3.846h41.14314a.57023.57023,0,0,1,.57023.57023v.44885a.57023.57023,0,0,1-.57023.57022H302.75311c-.92185,0-1.67166,1.01246-1.67166,2.25669,0,1.24474.74981,2.25719,1.67166,2.25719h41.14314a.57023.57023,0,0,1,.57023.57023Z" fill="#ffba55"/><path d="M316.24561,292.50378h39.64115a0,0,0,0,1,0,0v6.29363a0,0,0,0,1,0,0H316.24561a2.70807,2.70807,0,0,1-2.70807-2.70807v-.87749a2.70807,2.70807,0,0,1,2.70807-2.70807Z" fill="#fff"/><path d="M357.12646,298.95851a.57023.57023,0,0,1-.57023.57022H315.41309c-1.57089,0-2.84868-1.72536-2.84868-3.8465,0-2.12061,1.27779-3.846,2.84868-3.846h41.14314a.57023.57023,0,0,1,.57023.57023v.44884a.57023.57023,0,0,1-.57023.57023H315.41309c-.92184,0-1.67166,1.01246-1.67166,2.25668,0,1.24475.74982,2.2572,1.67166,2.2572h41.14314a.57023.57023,0,0,1,.57023.57023Z" fill="#f65b2b"/></svg>