<svg id="Layer_1" data-name="Layer 1" xmlns="http://www.w3.org/2000/svg" viewBox="0 0 700 550"><title>news reporter at the site</title><path d="M277.92571,490.9301c-15.03244-4.69937-28.52-9.5005-44.74577-18.61247-16.73457-9.39874-91.07342-54.126-100.74043-131.5361a147.65587,147.65587,0,0,1,6.161-63.053c2.988-8.76044,9.186-26.35532,24.829-43.75594,19.149-21.31368,40.99922-29.57458,53.81148-34.2462a155.26745,155.26745,0,0,1,60.33325-8.96395c11.61891.37928,32.12778,1.23034,55.43961,11.4154,15.2082,6.642,24.66244,14.21836,38.594,25.54125,22.07224,17.95567,24.977,25.43026,63.5895,62.50717,10.60134,10.1758,19.31552,18.19619,32.61807,26.09631,9.223,5.47643,16.67906,8.53842,30.43489,14.12586,33.81141,13.73733,43.43825,16.5188,54.50212,24.25241,21.5172,15.05094,20.12351,31.46472,21.04858,34.9985a69.49787,69.49787,0,0,1,1.63738,27.72443C572.6169,435.99,562.61686,448.127,556.40962,455.47206A104.624,104.624,0,0,1,525.97473,479.931a194.49434,194.49434,0,0,1-24.94,10.99912Z" fill="#ffe3cb"/><path d="M230.20063,477.80727c-22.20507-12.47461-95.41406-59.24512-105.16308-137.3584a154.85473,154.85473,0,0,1,6.43847-65.88281c2.77247-8.13086,9.26465-27.17188,25.94825-45.73633,20.43164-22.73535,43.72265-31.23047,56.23632-35.79394a161.99355,161.99355,0,0,1,63.01758-9.36915c10.73242.34864,33.0625,1.07422,57.9209,11.92774l-.37109.84766c-24.69434-10.78223-46.08692-11.47754-57.5791-11.85157a161.10211,161.10211,0,0,0-62.67188,9.31446c-12.43652,4.53613-35.58691,12.97949-55.86523,35.54394-16.55664,18.42285-23.00586,37.33887-25.76075,45.416a153.88257,153.88257,0,0,0-6.3955,65.46875c9.69629,77.68359,82.58886,124.24609,104.69824,136.667Z" fill="#ffe3cb"/><path d="M140.37634,211.44916a22.68228,22.68228,0,0,1,0-45.36455,23.57045,23.57045,0,0,1,11.34115,3.17552v-.90729a20.54789,20.54789,0,0,1,32.2088-16.78488,27.18635,27.18635,0,0,1,49.901,14.9703v.45364c10.88749,1.36094,19.05311,10.88749,19.05311,22.22863a22.96032,22.96032,0,0,1-22.22863,22.68226H139.92269Zm-.45365.45363" fill="#efedef" fill-rule="evenodd"/><path d="M160.29719,321.89323a13.60936,13.60936,0,1,1,0-27.21872,14.14225,14.14225,0,0,1,6.80469,1.90531v-.54438a12.32873,12.32873,0,0,1,19.32528-10.07092,16.3118,16.3118,0,0,1,29.9406,8.98217v.27219a13.27242,13.27242,0,0,1,11.43186,13.33718,13.77618,13.77618,0,0,1-13.33717,13.60935H160.025Zm-.27219.27218" fill="#efedef" fill-rule="evenodd"/><path d="M321.90813,138.904a13.60937,13.60937,0,0,1,0-27.21873,14.14222,14.14222,0,0,1,6.80469,1.90531v-.54437a12.32873,12.32873,0,0,1,19.32528-10.07093,16.31181,16.31181,0,0,1,29.9406,8.98218v.27219a13.27241,13.27241,0,0,1,11.43187,13.33717,13.77619,13.77619,0,0,1-13.33718,13.60936H321.63594Zm-.27219.27218" fill="#efedef" fill-rule="evenodd"/><rect x="137.67889" y="301.03107" width="353.38952" height="188.46289" fill="#bfceb6"/><rect x="198.63897" y="104.12829" width="231.46936" height="386.80175" fill="#d5efc8"/><rect x="246.21387" y="59.0699" width="136.31908" height="45.05843" transform="translate(628.74682 163.19824) rotate(-180)" fill="#d5efc8"/><rect x="377.14115" y="120.0754" width="42.69701" height="59.49221" transform="translate(796.97931 299.64301) rotate(-180)" fill="#bfceb6"/><rect x="321.46283" y="120.0754" width="42.69701" height="59.49221" transform="translate(685.62268 299.64301) rotate(-180)" fill="#bfceb6"/><rect x="265.18575" y="120.0754" width="42.69701" height="59.49221" transform="translate(573.06851 299.64301) rotate(-180)" fill="#bfceb6"/><rect x="208.90866" y="120.0754" width="42.69701" height="59.49221" transform="translate(460.51434 299.64301) rotate(-180)" fill="#bfceb6"/><rect x="377.14115" y="194.24421" width="42.69701" height="59.49221" transform="translate(796.97931 447.98063) rotate(-180)" fill="#bfceb6"/><rect x="321.46283" y="194.24421" width="42.69701" height="59.49221" transform="translate(685.62268 447.98063) rotate(-180)" fill="#bfceb6"/><rect x="265.18575" y="194.24421" width="42.69701" height="59.49221" transform="translate(573.06851 447.98063) rotate(-180)" fill="#bfceb6"/><rect x="208.90866" y="194.24421" width="42.69701" height="59.49221" transform="translate(460.51434 447.98063) rotate(-180)" fill="#bfceb6"/><rect x="377.14115" y="270.28561" width="42.69701" height="59.49221" transform="translate(796.97931 600.06343) rotate(-180)" fill="#bfceb6"/><rect x="321.46283" y="270.28561" width="42.69701" height="59.49221" transform="translate(685.62268 600.06343) rotate(-180)" fill="#bfceb6"/><rect x="265.18575" y="270.28561" width="42.69701" height="59.49221" transform="translate(573.06851 600.06343) rotate(-180)" fill="#bfceb6"/><rect x="208.90866" y="270.28561" width="42.69701" height="59.49221" transform="translate(460.51434 600.06343) rotate(-180)" fill="#bfceb6"/><rect x="265.40933" y="342.78509" width="42.69701" height="59.49221" transform="translate(573.51566 745.06239) rotate(-180)" fill="#bfceb6"/><rect x="209.13224" y="342.78509" width="42.69701" height="59.49221" transform="translate(460.96149 745.06239) rotate(-180)" fill="#bfceb6"/><rect x="265.18575" y="419.01873" width="42.69701" height="59.49221" transform="translate(573.06851 897.52967) rotate(-180)" fill="#bfceb6"/><rect x="208.90866" y="419.01873" width="42.69701" height="59.49221" transform="translate(460.51434 897.52967) rotate(-180)" fill="#bfceb6"/><rect x="314.37341" y="339.0513" width="111.09247" height="27.02326" fill="#bfceb6"/><rect x="258.82718" y="68.08749" width="111.09247" height="27.02326" fill="#bfceb6"/><rect x="343.41865" y="375.57268" width="55.07101" height="115.35741" fill="#bfceb6"/><path d="M300.94451,275.38094c-.34038-1.37066-1.64556-1.0526-1.67676.40862-.11235,4.38821-.727,9.47748-2.13248,10.695,0,0-.20649-9.24989-7.99982-21.30834-5.95795-9.30181-3.21313-19.56743-1.3935-24.07518.47178-.99-.24012-2.27016-.98323-2.08907-2.6197.63841-6.88771,3.71066-8.30825,15.68563,0,0-7.079-16.29667-3.15674-33.53872.25226-1.21858-.65013-2.45228-1.33365-1.70725-4.62048,5.19031-13.59852,18.14659-11.78354,40.66554l2.78195,19.094s-6.89462-1.80559-8.262-18.33712c-.14989-1.41708-1.32429-1.70944-1.767-.44454a91.36555,91.36555,0,0,0,.2783,47.90132c6.04245,20.91028,15.87709,26.95324,22.43133,27.38817,6.37315.47906,12.75849-2.53071,17.62968-8.95368,6.40741-8.251,11.87645-23.52672,5.67576-51.38445Zm0,0" fill="#f73c4f"/><path d="M343.0688,282.25082c.134-1.91-1.51609-2.59272-2.11983-.87708-1.83492,5.13713-4.52957,10.70094-6.64609,11.00841,0,0,3.34933-11.18914-1.085-31.89609-3.35767-15.92946,3.83794-25.92812,7.71618-29.81893.93615-.79585.60042-2.90019-.339-3.2889-3.31194-1.3703-9.49664-1.1815-15.80688,11.93107,0,0-1.95344-25.17568,9.32758-42.529.76811-1.24672.19156-3.45071-.89713-3.119-7.41919,2.42574-22.94995,10.56-29.569,38.86751l-4.15848,25.01335s-7.36329-7.75969-2.5451-28.56921c.3748-1.81037-.88534-3.114-1.89419-1.967-5.80488,8.20772-17.14342,27.10172-18.26994,57.30044-1.04993,29.8296,8.10718,45.02963,15.60444,50.87931,7.26832,5.755,15.90529,7.36292,24.09626,3.67241,10.69741-4.61891,23.02432-18.37117,26.5862-56.60731Zm0,0" fill="#f73c4f"/><path d="M273.34532,283.25108c.13455-1.26031,1.53725-.91529,1.4027.345.194,3.548.58382,8.01355,1.896,9.20591,0,0,.25826-7.78455,6.81179-17.9885,5.16108-7.89388,2.61631-16.38977,1.30569-20.21244-.19564-.91773.18091-1.69459.73916-1.55727,2.247.55268,5.70158,3.1415,6.94892,13.05747,0,0,6.085-13.79748,2.72681-28.15664-.19564-.91773.49936-2.06206,1.01361-1.51177,3.84369,4.44574,11.35018,15.03154,9.92085,33.92016l-2.2978,16.02244s5.9281-1.59636,7.11016-15.28442c.13682-1.28162,1.02537-1.487,1.44907-.08937a77.16713,77.16713,0,0,1-.26236,40.15494c-5.03017,17.53525-13.34366,22.49084-18.84891,22.8758-5.23545.47318-10.709-2.18842-14.73438-7.5482-5.59131-7.06035-10.247-19.99956-5.18127-43.23313Zm0,0" fill="#ffba55"/><path d="M259.56987,307.79392a5.32459,5.32459,0,0,1-1.7395,4.09223l5.27537,3.10306V306.4508l-3.53587-1.62929v2.97241Zm-7.07141-58.184c0-2.67144-1.58757-4.84851-3.53586-4.84851h-3.53576v9.69716h7.07162v-4.84865Zm28.286,63.0325c-1.94818,0-3.53576,2.17707-3.53576,4.84881,0,2.67158,1.58758,4.84865,3.53576,4.84865a3.18917,3.18917,0,0,0,2.62355-1.64853,3.02967,3.02967,0,0,1,5.33191,0c1.13147,1.83749,3.07976,2.21584,4.54357.89211a2.74729,2.74729,0,0,1,3.24572-.417,4.68619,4.68619,0,0,1,2.12849,3.40847c.66123,3.93717,3.05138,6.91431,5.99314,7.40394,2.94175.514,5.78812-1.55161,7.1423-5.16857a12.55012,12.55012,0,0,0-1.07849-10.96777,6.28749,6.28749,0,0,1-.66468-5.14918,3.79469,3.79469,0,0,1,3.1362-2.97714c7.08565-.417,12.8455-8.00987,13.4394-17.70717.1379-2.44371,1.58757-4.33476,3.38383-4.45106,2.45727-.15049,5.194-.56732,7.84583-.96491A70.34938,70.34938,0,0,1,347.964,283.5505c9.10095.01953,17.18028-7.93722,20.09722-19.73391,2.92762-11.821.01414-24.86874-7.20942-32.44728a5.76488,5.76488,0,0,1-1.34-4.62078,4.72179,4.72179,0,0,1,2.3335-3.80606c9.833-4.62079,17.403-15.569,20.25994-29.281,2.84626-13.71216.62239-28.46646-5.95062-39.51177a6.21593,6.21593,0,0,1-.77431-3.57819,5.54908,5.54908,0,0,1,1.29753-3.27782c5.85524-6.41964,8.10749-17.21266,5.62184-26.92935-2.47151-9.69746-9.1576-16.19449-16.65695-16.214-9.80459,0-14.433-.49452-17.74948-3.67526a5.66735,5.66735,0,0,1-1.50276-4.39291c.09549-1.72606,1.68558-2.30054,2.01541-3.97578,4.06908-20.66744-11.34958-34.553-19.03287-31.69086-6.81812,2.53984-13.23083,6.6524-15.71648,15.72424-2.47151,9.09123-.77431,19.31693,4.33478,26.0226a6.02179,6.02179,0,0,1,.96886,4.6597,4.46093,4.46093,0,0,1-2.45748,3.486c-8.30194,3.18089-14.77934,12.04424-17.113,23.40946-2.33361,11.36048-.19444,23.579,5.66069,32.21437a6.19041,6.19041,0,0,1,.81672,4.5869,4.50029,4.50029,0,0,1-2.39016,3.36985c-15.10833,6.21115-24.61241,26.70637-22.33178,48.10833,2.2911,21.42135,15.674,37.2909,31.46112,37.31043,1.94829,0,3.53586,2.17707,3.53586,4.84851,0,2.67173-1.58757,4.84865-3.53586,4.84865-6.20161.01954-11.67153,5.55181-13.49239,13.67324-1.83866,8.12647.41359,16.93153,5.52279,21.72691a5.77032,5.77032,0,0,1,1.49208,4.7905,4.60273,4.60273,0,0,1-2.528,3.8836,7.20672,7.20672,0,0,0-3.36958,2.93349,3.138,3.138,0,0,1-3.05139,1.64853,3.72419,3.72419,0,0,1-2.7226-2.48248,3.6496,3.6496,0,0,0-2.68009-2.51637,3.08385,3.08385,0,0,0-3.023,1.66791,3.02988,3.02988,0,0,1-5.332,0,3.23859,3.23859,0,0,0-2.63769-1.68744Zm0,0" fill="#d6d6d6"/><path d="M486.22255,459.15456l-.22768,10.10177s-13.1832,10.60783-29.82459,13.49067c0,0-5.11918,2.40444-5.20428,6.18028l49.93692-.125.4414-19.5844.22767-10.10177Z" fill="#f9977a"/><path d="M451.81507,486.36868l49.08836-.12008a1.15672,1.15672,0,0,1,1.15926,1.18278l-.00548.24306a1.1567,1.1567,0,0,1-1.15359,1.13064l-50.62815.12408S448.89976,487.3827,451.81507,486.36868Z" fill="#84382a"/><path d="M471.79156,485.86881a5.26712,5.26712,0,0,0,.179-3.651c-.91014-2.741-3.9525-3.87117-4.296-3.99114a1.54714,1.54714,0,0,0-1.031,2.915,4.36478,4.36478,0,0,1,2.49206,2.14413,2.68768,2.68768,0,0,1-.49373,2.24139,1.53962,1.53962,0,0,0,.45466,2.11329,1.49448,1.49448,0,0,0,2.06795-.52169A7.9904,7.9904,0,0,0,471.79156,485.86881Z" fill="#84382a"/><path d="M502.73126,469.7606a1.54236,1.54236,0,0,0-.399-1.7249,1.47468,1.47468,0,0,0-2.11225.19613c-1.89707,2.27077-3.93724,3.44732-6.06577,3.49757-3.8661.09145-6.9951-3.47335-7.02666-3.50843a1.46571,1.46571,0,0,0-2.10975-.10136,1.57356,1.57356,0,0,0-.15672,2.17065c.16153.1898,4.02149,4.62814,9.26211,4.51712,3.04017-.0646,5.848-1.61363,8.34579-4.60449A1.5843,1.5843,0,0,0,502.73126,469.7606Z" fill="#84382a"/><path d="M502.73071,469.762a1.55387,1.55387,0,0,0-.2592-1.5874,1.464,1.464,0,0,0-2.1128-.08957c-.382.3532-9.35379,8.78076-7.21551,18.55138a1.45457,1.45457,0,0,0,1.78828,1.1174,1.58659,1.58659,0,0,0,1.13308-1.86766c-1.75085-8.00809,6.18653-15.462,6.26568-15.53648A1.58625,1.58625,0,0,0,502.73071,469.762Z" fill="#84382a"/><path d="M532.7346,457.21954l.654,10.08315s-12.208,11.71694-28.53467,16.03985c0,0-4.89,2.84165-4.64556,6.61053l49.73582-4.47875-1.268-19.5483-.654-10.08314Z" fill="#f9977a"/><path d="M500.83111,487.33018l48.89093-4.3999a1.15673,1.15673,0,0,1,1.258,1.07719l.01573.24261a1.15672,1.15672,0,0,1-1.0506,1.22694l-50.4245,4.53813S498.01533,488.59454,500.83111,487.33018Z" fill="#84382a"/><path d="M520.68793,485.09036a5.26709,5.26709,0,0,0-.14008-3.65273c-1.14568-2.65124-4.275-3.51179-4.62767-3.60135a1.54715,1.54715,0,0,0-.77287,2.99379,4.36477,4.36477,0,0,1,2.66953,1.91867,2.6877,2.6877,0,0,1-.29641,2.2759,1.53961,1.53961,0,0,0,.63719,2.0656,1.4945,1.4945,0,0,0,2.01459-.7A7.99185,7.99185,0,0,0,520.68793,485.09036Z" fill="#84382a"/><path d="M550.10523,466.34571a1.54237,1.54237,0,0,0-.54792-1.68354,1.47469,1.47469,0,0,0-2.08711.37956c-1.69185,2.42753-3.62166,3.7775-5.7377,4.01316-3.8434.4282-7.27131-2.85019-7.30581-2.88238a1.46571,1.46571,0,0,0-2.11055.083,1.57355,1.57355,0,0,0,.03314,2.176c.17746.175,4.40973,4.25987,9.62071,3.69231,3.02295-.32945,5.685-2.11741,7.91251-5.31467A1.58441,1.58441,0,0,0,550.10523,466.34571Z" fill="#84382a"/><path d="M550.10481,466.34716a1.55389,1.55389,0,0,0-.39663-1.55875,1.464,1.464,0,0,0-2.11257.095c-.3498.38517-8.55252,9.56293-5.57043,19.10988a1.45457,1.45457,0,0,0,1.8789.95722,1.5866,1.5866,0,0,0,.96591-1.95935c-2.44245-7.82492,4.81475-15.94259,4.88711-16.02364A1.58652,1.58652,0,0,0,550.10481,466.34716Z" fill="#84382a"/><path d="M500.61092,233.877s8.72135,25.22735,16.58987,43.1375,14.32933,42.58676,14.45092,52.88821,1.4531,17.49593,5.94429,23.58723,11.00648,21.92205,12.96635,25.47567,10.13979-9.12276,16.04256-6.64513,17.63408-2.62961,14.58044-6.08053-13.06958-20.57747-17.32431-30.60559-15.71392-45.52039-15.71392-45.52039L535.433,264.76189S511.9828,205.42491,500.61092,233.877Z" fill="#8b9d36"/><path d="M484.49359,295.89674,479.67547,461.47a4.20749,4.20749,0,0,0,3.99765,4.17974l17.56273.87669a4.20749,4.20749,0,0,0,4.41671-4.13532l2.35893-148.26686,19.274,149.94388a4.2925,4.2925,0,0,0,4.30011,3.745l15.10951-.15a4.29251,4.29251,0,0,0,4.2346-4.65425L537.01041,298.51826Z" fill="#8b9d36"/><path d="M507.908,193.34746c-2.04,0-2.74951-4.05957-2.7793-4.2334l.41211-.07031c.18457,1.08984.96729,3.88574,2.37012,3.88574.01513,0,.03027,0,.04541-.001a.65736.65736,0,0,0,.61914-.335c.70508-1.332-1.84863-5.99511-2.89209-7.67871l.35449-.2207c.397.64063,3.85107,6.31055,2.90674,8.09473a1.06779,1.06779,0,0,1-.9707.55761C507.952,193.34746,507.93,193.34746,507.908,193.34746Z" fill="#dd765e"/><path d="M505.87529,194.97051c-.03564,0-.07129-.001-.10791-.00391a1.60308,1.60308,0,0,1-1.374-1.09472l-.90869-2.543.39355-.14063.90869,2.543a1.18743,1.18743,0,0,0,1.00928.81934.74565.74565,0,0,0,.60059-.19532,2.43186,2.43186,0,0,0,.41064-1.76172l.417-.01367a2.74748,2.74748,0,0,1-.53808,2.07617A1.1283,1.1283,0,0,1,505.87529,194.97051Z" fill="#dd765e"/><path d="M504.325,196.25762a1.86475,1.86475,0,0,1-.73584-.17188l.18408-.375a1.02425,1.02425,0,0,0,.89307.03614c.23877-.16407.33594-.57715.28076-1.19239l.416-.03711c.07031.78614-.085,1.31641-.46143,1.5752A1.00785,1.00785,0,0,1,504.325,196.25762Z" fill="#dd765e"/><path d="M504.98865,167.30116a5.37111,5.37111,0,0,1-1.74489,3.50709c-1.19069.9846-2.07824.56362-3.99886,1.65513a6.26947,6.26947,0,0,0-2.985,2.88139c-.66529,1.65351.402,2.25157-.07791,4.39981a8.86665,8.86665,0,0,1-2.35788,4.01412c-1.39421,1.50563-2.00962,1.31589-2.54523,2.41443-.21382.43848-.58577,1.43256.09539,4.35948a36.406,36.406,0,0,0,1.64212,4.73225c.87258,2.63626.39311,3.67452.68375,7.69243.32455,4.48625,1.01042,4.40835,1.20357,7.5722.43367,7.10421-2.97712,8.26822-2.56541,15.747.19364,3.51661.61659,6.61245.61659,6.61245.51455,3.76653.91212,4.59254.45616,5.9193-.96554,2.8093-4.5133,4.24247-6.59731,4.62963-6.92981,1.28727-13.1848-6.88147-14.09618-8.05914a25.64245,25.64245,0,0,1-5.18014-14.5033c-.17767-6.13278,2.13545-6.175,5.26993-19.841,1.00539-4.38378,1.7677-7.7067,2.42053-12.42693.89911-6.50069.48681-7.66824,1.74135-10.62684,1.75245-4.13286,4.56836-6.59752,8.15455-9.73658,3.83669-3.35845,5.75512-5.03757,8.59683-5.45709C499.21428,161.976,503.783,166.13335,504.98865,167.30116Z" fill="#160b07"/><path d="M492.39737,212.4711v-3.55753s-11.4049.83807-11.75024-23.77211,20.28829-13.404,20.28829-13.404,8.71593,20.1,8.8938,31.66195a64.05835,64.05835,0,0,0,3.41942,19.99955S494.17613,253.02684,492.39737,212.4711Z" fill="#f9977a"/><path d="M503.42568,204.46667s-5.33628,3.91328-11.02831,4.4469v2.13452S497.73365,211.84525,503.42568,204.46667Z" fill="#dd765e"/><path d="M489.86931,184.30107a11.44975,11.44975,0,0,1,.13013,3.20411,8.2483,8.2483,0,0,1-.88123,3.16381,5.99587,5.99587,0,0,0-.74145,2.72486c-.01258.87793,1.14392,1.14038,2.1997,1.09521-.24987.08716-.50708.17749-.77331.24561a2.80534,2.80534,0,0,1-.84937.03271,1.54375,1.54375,0,0,1-.85852-.375,1.639,1.639,0,0,1-.48425-.84814,5.37993,5.37993,0,0,1,.6217-3.33887,11.113,11.113,0,0,0,.99952-2.82593C489.46794,186.37651,489.65764,185.34966,489.86931,184.30107Z" fill="#dd765e"/><path d="M483.79814,184.1707a3.00169,3.00169,0,0,1-1.18212-.21582.41316.41316,0,0,1,.34472-.751c.07276.03222,1.5669.65625,3.44873-.99024a.41281.41281,0,1,1,.54395.6211A4.76145,4.76145,0,0,1,483.79814,184.1707Z"/><path d="M484.09648,188.86732a1.24033,1.24033,0,0,0,0-2.47917,1.24033,1.24033,0,0,0,0,2.47917Z"/><path d="M497.57891,184.22734a3.94582,3.94582,0,0,1-3.58741-1.69824.41306.41306,0,0,1,.72315-.39941c.03857.0664.874,1.458,3.36328,1.25a.42207.42207,0,0,1,.4458.37793.41349.41349,0,0,1-.37744.44629C497.949,184.22051,497.76006,184.22734,497.57891,184.22734Z"/><path d="M495.42126,188.86732a1.24033,1.24033,0,0,0,0-2.47917,1.24033,1.24033,0,0,0,0,2.47917Z"/><path d="M492.39737,203.29541c3.81516,0,3.82147-5.9292,0-5.9292-3.81516,0-3.82148,5.9292,0,5.9292Z" fill="#dd2f22"/><path d="M515.55221,214.31861s17.13439-8.59521,28.55664,27.4751l7.55562,26.06843a11.96292,11.96292,0,0,1-1.93037,10.73734,11.56145,11.56145,0,0,1-5.02491,3.65175c-7.81531,3.00586-12.92517-3.30664-15.6305-6.012,2.58655,6.97632,6.34778,17.636,10.23414,30.86792,7.10022,24.17383,7.74,33.51587,13.68005,49.67993a176.29741,176.29741,0,0,0,18.72,36.72c-17.10986,15.85644-30.80054,18.9624-40.31995,18.72-10.49011-.26709-17.36-4.63062-33.84-5.04a99.65123,99.65123,0,0,0-24.24011,2.40015c2.04126-8.64112,3.47867-29.60431,6.36264-49.74676,9.49572-66.32077,1.39578-90.00861,1.61-96.52619,0,0-3.11653,17.24542-18.28572,17.12542,0,0-10.8712,2.11213-26.20109-43.2763l6.91351-6.3125L464.152,260.6089l5.52544-25.52214a27.94815,27.94815,0,0,1,5.00355-11.00927c3.40388-4.48237,9.02579-9.42686,17.42554-9.85824-.17737,6.59814,4.57837,12.03515,10.22,12.72412C508.8514,227.74024,515.56087,222.064,515.55221,214.31861Z" fill="#ffba55"/><path d="M483.38958,239.26738c-.22937.47534-.46338.94287-.70679,1.40161l-.35864.6897c-.10572.23682-.191.48364-.28724.72388l-.59631,1.42724-.44836,1.47779a26.98686,26.98686,0,0,0-1.02478,6.04761,36.54754,36.54754,0,0,0,.16418,6.15893c.11365,1.02637.26318,2.05176.47,3.06836.16284,1.02881.42127,2.03564.68384,3.05176a23.68087,23.68087,0,0,1-1.91455-6.00635,25.99019,25.99019,0,0,1-.40088-6.33447,21.07539,21.07539,0,0,1,1.295-6.22559A18.78877,18.78877,0,0,1,483.38958,239.26738Z" fill="#e6952a"/><path d="M465.05376,267.22173a12.58865,12.58865,0,0,1-1.08167-3.22,14.304,14.304,0,0,1-.251-1.69092,15.25134,15.25134,0,0,1-.06409-1.71558l.90064.29761c-.65516.98462-1.28345,2.03662-1.87952,3.0874-.601,1.05591-1.15869,2.1333-1.73242,3.24146a13.76621,13.76621,0,0,1,1.01147-3.59448,18.59466,18.59466,0,0,1,1.78906-3.30225l.95313-1.397-.05237,1.69458A42.77351,42.77351,0,0,0,465.05376,267.22173Z" fill="#e6952a"/><polygon points="525.828 247.315 524.363 235.084 524.777 235.035 526.242 247.266 525.828 247.315" fill="#e6952a"/><path d="M443.71217,230.85091s.22547-6.16206,0-8.04072,1.80348-4.73424,1.80348-4.73424.526-2.63013-1.42778-1.57808-3.607,6.36454-3.68218,7.05232-1.35264.3872-2.10411-1.41632-5.33541-9.01759-5.33541-9.01759-1.65322-1.65323-1.50293.60117,2.85557,7.00535,2.85557,7.9739-3.081,5.47734-3.53189,6.83.37575,4.5841,6.01174,8.64194Z" fill="#f9977a"/><path d="M509.66045,273.19121a9.54512,9.54512,0,0,1-5.66309-1.75l.26563-.32226c.0459.03906,4.65381,3.71972,11.3374-.02149l.2041.36524A12.50061,12.50061,0,0,1,509.66045,273.19121Z" fill="#e6952a"/><circle cx="492.32672" cy="209.26442" r="5.64123" fill="#160b07"/><polygon points="496.97 212.468 492.567 247.291 486.501 246.67 488.071 211.73 496.97 212.468" fill="#6c7fd8"/><polygon points="500.021 212.721 484.236 211.412 482.79 222.24 499.627 224.148 500.021 212.721" fill="#dd2f22"/><path d="M485.83571,226.39844c.2184-.96532,1.15816-1.30264,1.98146-1.85191,8.97671-5.98893,18.223,13.31083,18.223,13.31083h0l-4.36475,6.224h0s-4.07739-1.3451-7.12164-6.95046a9.20965,9.20965,0,0,0-2.45423-3.00126l-5.46471-3.27617C485.42029,229.58752,485.53779,227.71525,485.83571,226.39844Z" fill="#f9977a"/><path d="M494.09563,227.77324a4.41154,4.41154,0,0,0-1.77649-1.09424,12.579,12.579,0,0,0-2.02588-.57031c-.68823-.15649-1.3894-.25561-2.09314-.355l-2.12671-.28a15.4056,15.4056,0,0,1,2.15747-.04712,16.474,16.474,0,0,1,2.15052.26441,10.11,10.11,0,0,1,2.0686.688A3.51885,3.51885,0,0,1,494.09563,227.77324Z" fill="#dd765e"/><path d="M493.97771,230.16387a8.88326,8.88326,0,0,0-1.83362-1.29126,10.848,10.848,0,0,0-2.04919-.8562,12.96316,12.96316,0,0,0-2.17823-.47168c-.74047-.11109-1.4906-.13941-2.25244-.18726.37488-.05981.7544-.10376,1.13538-.14136.381.001.76575-.02929,1.14844.00147a10.58756,10.58756,0,0,1,2.27282.39111,9.21016,9.21016,0,0,1,2.09143.9834A5.84771,5.84771,0,0,1,493.97771,230.16387Z" fill="#dd765e"/><path d="M492.455,231.886c-1.09069-.52491-2.12463-1.1167-3.20776-1.60328a13.90643,13.90643,0,0,0-1.63061-.68823,4.87588,4.87588,0,0,0-1.72925-.34839,3.42014,3.42014,0,0,1,1.821.03272,9.89089,9.89089,0,0,1,1.72058.61767A13.13012,13.13012,0,0,1,492.455,231.886Z" fill="#dd765e"/><path d="M511.00821,214.90594s-4.87515,26.24336-6.87821,45.70293-21.2893,101.06878-21.34009,105.12669,13.32233-2.925,17.23144,2.14454,16.63224,6.42218,15.68123,1.91338-1.2022-24.3475.05059-35.16861,8.81671-47.34236,8.81671-47.34236l1.46488-28.32363S534.94783,195.78176,511.00821,214.90594Z" fill="#8b9d36"/><path d="M486.34958,170.49245a5.3712,5.3712,0,0,0,2.49029,3.02371c1.38194.691,2.1518.08082,4.269.71147a6.26947,6.26947,0,0,1,3.5575,2.13467c1.02077,1.46107.11568,2.28425,1.06733,4.26909a8.86662,8.86662,0,0,0,3.20176,3.37957c1.69763,1.15274,2.25446.82921,3.02383,1.77881.30713.379.89351,1.26372.88941,4.26885a36.40588,36.40588,0,0,1-.53355,4.98057c-.2561,2.76508.445,3.6686,1.06722,7.64866.6947,4.444.00892,4.52266.53366,7.64867,1.17832,7.01921,4.76368,7.38472,6.04778,14.76389.60376,3.4698.88929,6.58133.88929,6.58133.34741,3.78561.1462,4.68.8894,5.86986,1.57374,2.51947,5.3532,3.11635,7.47086,3.02395,7.04165-.30737,11.29506-9.67549,11.91763-11.02823a25.64253,25.64253,0,0,0,1.77881-15.29757c-1.20883-6.01509-3.472-5.535-9.60528-18.14322-1.96735-4.04449-3.45882-7.11017-5.1585-11.5619-2.34082-6.1309-2.20222-7.36132-4.09116-9.96114-2.63866-3.63169-5.93753-5.39843-10.13883-7.64866-4.49479-2.40753-6.74225-3.61118-9.6054-3.37957C490.7755,164.003,487.26106,169.083,486.34958,170.49245Z" fill="#160b07"/><polyline points="546.018 261.291 507.763 235.4 501.267 244.664 529.079 276.239" fill="#ffba55"/><path d="M546.01793,261.29106q-9.722-6.23839-19.33075-12.64477c-6.43548-4.22681-12.795-8.56592-19.19635-12.84326l.67066-.12354c-2.14423,3.10279-4.3338,6.17407-6.508,9.25586l-.03235-.58325c4.61292,5.28223,9.248,10.54492,13.80817,15.87353l6.85413,7.981,6.79528,8.03272-7.11078-7.75489-7.05181-7.80664c-4.71058-5.19629-9.346-10.45874-14.00385-15.70141a.47414.47414,0,0,1-.03235-.5835c2.15686-3.094,4.29846-6.19873,6.48517-9.272l.00366-.00488a.48384.48384,0,0,1,.6673-.11866c6.35022,4.353,12.74213,8.64429,19.05817,13.04761Q536.596,254.60894,546.01793,261.29106Z" fill="#e6952a"/><path d="M434.31877,221.69146a26.91475,26.91475,0,0,1,2.06971,2.94506,10.47883,10.47883,0,0,1,.85315,1.64966,2.07109,2.07109,0,0,1,.10681,1.12769,1.54243,1.54243,0,0,1-.77417,1.029l.27527-.37378a4.01017,4.01017,0,0,1-.39808,1.28442,1.91528,1.91528,0,0,1-.49194.617,1.21891,1.21891,0,0,1-.92041.26123l.54346-.425a3.19547,3.19547,0,0,1-.71655,1.7,1.14476,1.14476,0,0,1-1.104.3252,2.685,2.685,0,0,1-.819-.40625,7.96971,7.96971,0,0,1-1.22644-1.07813,11.9,11.9,0,0,1-1.03442-1.2229,20.44434,20.44434,0,0,0,2.61072,1.71069,2.03943,2.03943,0,0,0,.61938.23145.34332.34332,0,0,0,.32324-.14722,2.63271,2.63271,0,0,0,.38977-1.21679l.04895-.41651.49475-.00854a.23927.23927,0,0,0,.1792-.0691.97639.97639,0,0,0,.22461-.313,3.91913,3.91913,0,0,0,.30554-.96534l.04371-.25268.23181-.12109a.82867.82867,0,0,0,.22876-.99219c-.15723-.49658-.41065-1.05445-.64283-1.58887C435.2564,223.897,434.7697,222.806,434.31877,221.69146Z" fill="#dd765e"/><path d="M431.778,226.58184a5.06485,5.06485,0,0,1,2.00794,1.22485,5.00824,5.00824,0,0,1,1.318,1.948,5.01085,5.01085,0,0,1-2.00793-1.22486A5.067,5.067,0,0,1,431.778,226.58184Z" fill="#dd765e"/><path d="M433.04167,224.41069a5.68239,5.68239,0,0,1,2.02784,1.45508,5.61677,5.61677,0,0,1,1.29443,2.13379,5.61906,5.61906,0,0,1-2.02783-1.45483A5.681,5.681,0,0,1,433.04167,224.41069Z" fill="#dd765e"/><path d="M581.30593,490.9301H118.7698a1,1,0,1,1,0-2H581.30593a1,1,0,0,1,0,2Z" fill="#935b50"/></svg>