<svg id="Layer_1" data-name="Layer 1" xmlns="http://www.w3.org/2000/svg" viewBox="0 0 700 550"><title>scheduling in calendar</title><path d="M277.88779,479.06189c-15.03241-4.69934-28.52-9.50048-44.74572-18.61242-16.73456-9.39868-91.07343-54.126-100.74042-131.53614a147.65549,147.65549,0,0,1,6.161-63.053c2.988-8.76038,9.18591-26.35523,24.82892-43.75586,19.149-21.31372,40.9992-29.57459,53.81146-34.24622a155.27022,155.27022,0,0,1,60.33331-8.964c11.6189.37927,32.12769,1.23035,55.43958,11.41541,15.20825,6.64209,24.66247,14.21838,38.594,25.54126,22.07227,17.95569,24.977,25.43029,63.5896,62.5072,10.60132,10.17578,19.31543,18.19617,32.618,26.09631,9.2229,5.47644,16.67908,8.53845,30.43482,14.12586,33.81152,13.7373,43.43835,16.5188,54.5022,24.25244,21.51721,15.0509,20.12353,31.46472,21.04858,34.99841a69.499,69.499,0,0,1,1.63733,27.72449c-2.82141,18.56616-12.82153,30.70312-19.02869,38.04822a104.62523,104.62523,0,0,1-30.43493,24.459,194.49644,194.49644,0,0,1-24.94,10.999Z" fill="#ffe3cb"/><path d="M230.16277,465.93911c-22.20508-12.47461-95.41406-59.24511-105.16309-137.3584a154.85473,154.85473,0,0,1,6.43848-65.88281c2.77246-8.13086,9.26465-27.17187,25.94824-45.73633,20.43164-22.73535,43.72266-31.23046,56.23633-35.79394a161.99348,161.99348,0,0,1,63.01758-9.36914c10.73242.34863,33.0625,1.07422,57.9209,11.92773l-.3711.84766c-24.69433-10.78223-46.08691-11.47754-57.5791-11.85156a161.102,161.102,0,0,0-62.67187,9.31445c-12.43653,4.53613-35.58692,12.97949-55.86524,35.54394-16.55664,18.42286-23.00586,37.33887-25.76074,45.416a153.88251,153.88251,0,0,0-6.39551,65.46875c9.69629,77.68359,82.58887,124.24609,104.69824,136.667Z" fill="#ffe3cb"/><polygon points="446.464 374.716 385.593 374.716 385.593 340.732 446.353 340.732 446.464 374.716" fill="#935b50"/><rect x="372.08244" y="254.50105" width="87.30489" height="82.61738" rx="7.32424" fill="#d6694b"/><rect x="366.80899" y="364.65756" width="97.85179" height="10.05862" rx="1.62761" fill="#d6694b"/><rect x="373.25432" y="374.71617" width="84.66816" height="6.34767" rx="1.62761" fill="#935b50"/><rect x="410.7544" y="381.06385" width="9.37502" height="63.2814" fill="#d6694b"/><polygon points="420.129 449.372 480.242 470.55 480.242 462.933 420.129 444.345 410.754 444.345 350.593 462.933 350.593 470.55 410.754 449.372 420.129 449.372" fill="#935b50"/><rect x="408.55713" y="442.00149" width="13.76956" height="9.96096" rx="1.62761" fill="#e19974"/><rect x="545.02113" y="332.66417" width="9.22928" height="146.39777" fill="#935b50"/><rect x="294.56844" y="325.58576" width="277.35169" height="7.0784" rx="1.59112" fill="#935b50"/><rect x="312.97442" y="332.66417" width="9.22928" height="146.39777" fill="#935b50"/><path d="M305.612,332.66417H561.50762a0,0,0,0,1,0,0v18.34266a3.18224,3.18224,0,0,1-3.18224,3.18224H308.79427a3.18224,3.18224,0,0,1-3.18224-3.18224V332.66417A0,0,0,0,1,305.612,332.66417Z" fill="#c38f86"/><polygon points="530.509 325.601 514.384 325.601 508.951 297.045 535.943 297.045 530.509 325.601" fill="#e19974"/><polygon points="535.322 300.305 535.943 297.045 508.951 297.045 509.571 300.305 535.322 300.305" fill="#d6694b"/><rect x="513.26415" y="312.06392" width="4.81742" height="4.81742" transform="translate(373.40282 -272.52888) rotate(45)" fill="#d6694b"/><rect x="520.07701" y="312.06392" width="4.81742" height="4.81742" transform="translate(375.39826 -277.34629) rotate(45)" fill="#d6694b"/><rect x="526.81141" y="312.06392" width="4.81742" height="4.81742" transform="translate(377.37072 -282.10823) rotate(45)" fill="#d6694b"/><path d="M528.72805,273.012s1.416,20.00491-6.8834,24.2445C521.84465,297.25645,518.97141,289.6719,528.72805,273.012Z" fill="#558031"/><path d="M501.9474,281.60519s13.57746,2.34266,19.89725,15.65126C521.84465,297.25645,506.91409,292.18542,501.9474,281.60519Z" fill="#849f4c"/><path d="M506.76161,307.809s6.90506-10.33024,15.083-10.55251C521.84465,297.25645,520.6135,305.57421,506.76161,307.809Z" fill="#a6b862"/><path d="M515.27912,275.86342s9.58081,8.74761,6.56553,21.393C521.84465,297.25645,516.53723,291.63066,515.27912,275.86342Z" fill="#849f4c"/><path d="M521.84465,297.25645s3.36609-12.32184,20.38245-15.4815C542.2271,281.775,538.39767,292.9942,521.84465,297.25645Z" fill="#a6b862"/><path d="M546.73477,294.03543s-12.983-5.35235-24.89012,3.221C521.84465,297.25645,537.6739,299.1569,546.73477,294.03543Z" fill="#849f4c"/><path d="M546.61666,306.49628s-6.26888-10.04128-24.772-9.23983Z" fill="#558031"/><path d="M494.95412,295.63111s17.05073-6.32235,27.11366,1.323C522.06778,296.95415,512.51275,302.21717,494.95412,295.63111Z" fill="#558031"/><path d="M508.93613,277.32419s15.21444,10.76072,13.0319,19.941C521.968,297.2652,511.41274,288.80209,508.93613,277.32419Z" fill="#558031"/><path d="M535.625,307.967s-12.54257-2.14129-13.78037-10.71057C521.84465,297.25645,531.00915,297.71037,535.625,307.967Z" fill="#849f4c"/><path d="M493.33692,321.57048v.37779a3.63391,3.63391,0,0,1-3.63259,3.63259H478.792a3.63391,3.63391,0,0,1-3.63259-3.63259V307.24354A3.63391,3.63391,0,0,1,478.792,303.611h10.91231a3.63391,3.63391,0,0,1,3.63259,3.63259v14.32694Z" fill="#f65b2b"/><path d="M499.35236,307.35967H493.337v2.17956h4.92563v9.85163H493.337v2.17955h6.01541a1.08825,1.08825,0,0,0,1.08978-1.08978V308.44945A1.08836,1.08836,0,0,0,499.35236,307.35967Z" fill="#4f66d0"/><rect x="484.24817" y="311.1322" width="4.51475" height="4.51475" rx="0.72652" fill="#ffba55"/><rect x="485.99443" y="303.61066" width="1.02246" height="7.52148" fill="#e5caf3"/><path d="M445.101,321.03772H384.848a6.10353,6.10353,0,0,1-6.08524-5.63141L375.6408,275.1668a6.10354,6.10354,0,0,1,6.08525-6.57565h66.49686a6.10354,6.10354,0,0,1,6.08525,6.57565l-3.12195,40.23951A6.10353,6.10353,0,0,1,445.101,321.03772Z" fill="#a2aee6"/><ellipse cx="414.97448" cy="294.81444" rx="6.64064" ry="2.41576" fill="#4f66d0"/><rect x="380.29041" y="321.03772" width="69.36815" height="4.54804" rx="2.27402" fill="#4f66d0"/><rect x="342.36232" y="462.77073" width="8.93557" height="15.82035" rx="2.03451" fill="#d6694b"/><rect x="479.53711" y="462.77073" width="8.93557" height="15.82035" rx="2.03451" transform="translate(968.00979 941.36182) rotate(-180)" fill="#d6694b"/><path d="M347.71681,302.64826a1.5351,1.5351,0,0,0-1.1355-.55192c-.57566.07766-.548.83736-1.56024,1.79783-.82521.78307-2.41969,1.77336-3.69726,1.35689-1.06519-.34727-.91686-1.34824-2.17124-2.23878a5.24054,5.24054,0,0,0-2.412-.88079c1.11672,4.49045,3.18306,7.51561,5.5549,7.51561C344.575,309.6471,346.57322,306.85235,347.71681,302.64826Z" fill="#ffba55"/><path d="M341.62894,315.73276c-1.01477.04785-1.55767,1.13071-3.52795,4.40984-.968,1.61068-1.68723,2.76457-2.22166,3.62033-.00884.31912-.02062.636-.02062.9603h12.8736c0-.32022-.01214-.63308-.02024-.94815-.73356-.93011-1.84256-2.32362-3.48746-4.51456C343.28709,316.67962,342.62825,315.68565,341.62894,315.73276Z" fill="#ffba55"/><path d="M342.29534,310.40036c-4.03183,0-7.19061-6.98007-7.19061-15.89177v-.7538H349.486v.7538C349.486,303.42029,346.32717,310.40036,342.29534,310.40036Zm-5.67563-15.138c.16563,8.18586,3.01228,13.63035,5.67563,13.63035s5.51-5.44449,5.67563-13.63035Z" fill="#fff"/><path d="M349.486,325.47649H335.10473v-.75381c0-8.9117,3.15878-15.89177,7.19061-15.89177s7.19061,6.98007,7.19061,15.89177Zm-12.86624-1.50761H347.971c-.16563-8.18587-3.01228-13.63035-5.67563-13.63035S336.78534,315.783,336.61971,323.96888Z" fill="#fff"/><path d="M353.8816,323.96869h-2.26141V295.26221h2.26141a.75381.75381,0,1,0,0-1.50761H330.70942a.75381.75381,0,1,0,0,1.50761h2.26142v28.70648h-2.26142a.75381.75381,0,1,0,0,1.50761H353.8816a.75381.75381,0,1,0,0-1.50761Zm-19.40315-28.70648h15.63412v28.70648H334.47845Z" fill="#7ca1b1"/><rect x="449.10684" y="70.93806" width="86.86819" height="165.89276" rx="2.17879" fill="#a2aee6"/><rect x="453.22474" y="75.05596" width="37.25724" height="49.80705" rx="2.17879" fill="#e5e1e5"/><rect x="494.59989" y="75.05596" width="37.25724" height="49.80705" rx="2.17879" fill="#e5e1e5"/><rect x="453.22474" y="128.98092" width="37.25724" height="49.80705" rx="2.17879" fill="#e5e1e5"/><rect x="494.59989" y="128.98092" width="37.25724" height="49.80705" rx="2.17879" fill="#e5e1e5"/><rect x="453.22474" y="182.90587" width="37.25724" height="49.80705" rx="2.17879" fill="#e5e1e5"/><rect x="494.59989" y="182.90587" width="37.25724" height="49.80705" rx="2.17879" fill="#e5e1e5"/><path d="M457.24457,114.60089c1.84261-3.00541,3.78282-5.94193,5.73793-8.86821,1.94474-2.93333,3.95969-5.81732,5.97464-8.70131,2.03623-2.869,4.07432-5.7366,6.1813-8.5557l3.16365-4.22645c1.08727-1.38595,2.14368-2.79343,3.25781-4.16023-.91226,1.50909-1.882,2.97761-2.82109,4.46782l-2.91525,4.40145c-1.94553,2.93293-3.95995,5.81719-5.97623,8.70025-2.03756,2.868-4.07538,5.73607-6.18289,8.55464C461.56677,109.03889,459.45448,111.85427,457.24457,114.60089Z" fill="#a2aee6"/><path d="M462.18567,121.49138c1.84261-3.00541,3.78282-5.94206,5.73767-8.86821,1.945-2.93333,3.95968-5.81745,5.9749-8.70131,2.03623-2.869,4.07432-5.7366,6.1813-8.55583l3.16365-4.22645c1.087-1.38582,2.14341-2.7933,3.25754-4.16023-.912,1.50922-1.882,2.97774-2.82109,4.46781l-2.915,4.40159c-1.9458,2.9328-3.96022,5.81719-5.9765,8.70012-2.03729,2.86817-4.07512,5.73607-6.18289,8.55477C466.50787,115.92938,464.39558,118.74476,462.18567,121.49138Z" fill="#a2aee6"/><path d="M498.60028,114.60089c1.84261-3.00541,3.78282-5.94193,5.73793-8.86821,1.945-2.93333,3.95969-5.81732,5.97491-8.70131,2.03623-2.869,4.07432-5.7366,6.18129-8.5557l3.16366-4.22645c1.087-1.38595,2.14341-2.79343,3.25754-4.16023-.91226,1.50909-1.882,2.97761-2.8211,4.46782l-2.91524,4.40145c-1.94553,2.93293-3.95995,5.81719-5.97623,8.70025-2.03756,2.868-4.07512,5.73607-6.18289,8.55464C502.92274,109.03889,500.81045,111.85427,498.60028,114.60089Z" fill="#a2aee6"/><path d="M503.54138,121.49138c1.84261-3.00541,3.78282-5.94206,5.73793-8.86821,1.94474-2.93333,3.95969-5.81745,5.97464-8.70131,2.03623-2.869,4.07432-5.7366,6.18129-8.55583l3.16366-4.22645c1.08726-1.38582,2.14368-2.7933,3.2578-4.16023-.91226,1.50922-1.882,2.97774-2.82109,4.46781l-2.91524,4.40159c-1.94553,2.9328-3.95995,5.81719-5.97624,8.70012-2.03755,2.86817-4.07538,5.73607-6.18289,8.55477C507.86358,115.92938,505.75128,118.74476,503.54138,121.49138Z" fill="#a2aee6"/><path d="M457.24457,166.60584c1.84261-3.00541,3.78282-5.94206,5.73793-8.86821,1.94474-2.93333,3.95969-5.81745,5.97464-8.70131,2.03623-2.869,4.07432-5.73674,6.1813-8.55583l3.16365-4.22646c1.08727-1.38581,2.14368-2.79329,3.25781-4.16022-.91226,1.50922-1.882,2.97774-2.82109,4.46781l-2.91525,4.40159c-1.94553,2.9328-3.95995,5.81706-5.97623,8.70012-2.03756,2.86817-4.07538,5.73607-6.18289,8.55463C461.56677,161.04384,459.45448,163.85921,457.24457,166.60584Z" fill="#a2aee6"/><path d="M462.18567,173.49619c1.84261-3.00527,3.78282-5.94192,5.73767-8.8682,1.945-2.93333,3.95968-5.81732,5.9749-8.70118,2.03623-2.869,4.07432-5.73674,6.1813-8.55583l3.16365-4.22646c1.087-1.38594,2.14341-2.79343,3.25754-4.16022-.912,1.50908-1.882,2.97761-2.82109,4.46781l-2.915,4.40146c-1.9458,2.93293-3.96022,5.81719-5.9765,8.70025-2.03729,2.868-4.07512,5.73607-6.18289,8.55463C466.50787,167.93433,464.39558,170.7497,462.18567,173.49619Z" fill="#a2aee6"/><path d="M498.60028,166.60584c1.84261-3.00541,3.78282-5.94206,5.73793-8.86821,1.945-2.93333,3.95969-5.81745,5.97491-8.70131,2.03623-2.869,4.07432-5.73674,6.18129-8.55583l3.16366-4.22646c1.087-1.38581,2.14341-2.79329,3.25754-4.16022-.91226,1.50922-1.882,2.97774-2.8211,4.46781l-2.91524,4.40159c-1.94553,2.9328-3.95995,5.81706-5.97623,8.70012-2.03756,2.86817-4.07512,5.73607-6.18289,8.55463C502.92274,161.04384,500.81045,163.85921,498.60028,166.60584Z" fill="#a2aee6"/><path d="M503.54138,173.49619c1.84261-3.00527,3.78282-5.94192,5.73793-8.8682,1.94474-2.93333,3.95969-5.81732,5.97464-8.70118,2.03623-2.869,4.07432-5.73674,6.18129-8.55583l3.16366-4.22646c1.08726-1.38594,2.14368-2.79343,3.2578-4.16022-.91226,1.50908-1.882,2.97761-2.82109,4.46781l-2.91524,4.40146c-1.94553,2.93293-3.95995,5.81719-5.97624,8.70025-2.03755,2.868-4.07538,5.73607-6.18289,8.55463C507.86358,167.93433,505.75128,170.7497,503.54138,173.49619Z" fill="#a2aee6"/><path d="M457.24457,220.465c1.84261-3.0054,3.78282-5.94193,5.73793-8.86821,1.94474-2.93332,3.95969-5.81732,5.97464-8.70131,2.03623-2.869,4.07432-5.7366,6.1813-8.5557l3.16365-4.22645c1.08727-1.38594,2.14368-2.79343,3.25781-4.16022-.91226,1.50908-1.882,2.97761-2.82109,4.46781l-2.91525,4.40146c-1.94553,2.93293-3.95995,5.81718-5.97623,8.70025-2.03756,2.868-4.07538,5.73607-6.18289,8.55463C461.56677,214.9031,459.45448,217.71847,457.24457,220.465Z" fill="#a2aee6"/><path d="M462.18567,227.35545c1.84261-3.0054,3.78282-5.94206,5.73767-8.86821,1.945-2.93332,3.95968-5.81745,5.9749-8.70131,2.03623-2.869,4.07432-5.7366,6.1813-8.5557l3.16365-4.22658c1.087-1.38581,2.14341-2.7933,3.25754-4.16009-.912,1.50908-1.882,2.97761-2.82109,4.46768l-2.915,4.40159c-1.9458,2.93279-3.96022,5.81719-5.9765,8.70025-2.03729,2.868-4.07512,5.73593-6.18289,8.55463C466.50787,221.79346,464.39558,224.60883,462.18567,227.35545Z" fill="#a2aee6"/><path d="M498.60028,220.465c1.84261-3.0054,3.78282-5.94193,5.73793-8.86821,1.945-2.93332,3.95969-5.81732,5.97491-8.70131,2.03623-2.869,4.07432-5.7366,6.18129-8.5557l3.16366-4.22645c1.087-1.38594,2.14341-2.79343,3.25754-4.16022-.91226,1.50908-1.882,2.97761-2.8211,4.46781l-2.91524,4.40146c-1.94553,2.93293-3.95995,5.81718-5.97623,8.70025-2.03756,2.868-4.07512,5.73607-6.18289,8.55463C502.92274,214.9031,500.81045,217.71847,498.60028,220.465Z" fill="#a2aee6"/><path d="M503.54138,227.35545c1.84261-3.0054,3.78282-5.94206,5.73793-8.86821,1.94474-2.93332,3.95969-5.81745,5.97464-8.70131,2.03623-2.869,4.07432-5.7366,6.18129-8.5557l3.16366-4.22658c1.08726-1.38581,2.14368-2.7933,3.2578-4.16009-.91226,1.50908-1.882,2.97761-2.82109,4.46768l-2.91524,4.40159c-1.94553,2.93279-3.95995,5.81719-5.97624,8.70025-2.03755,2.868-4.07538,5.73593-6.18289,8.55463C507.86358,221.79346,505.75128,224.60883,503.54138,227.35545Z" fill="#a2aee6"/><path d="M236.7833,450.58118l.21778,9.6628s12.61034,10.14687,28.52859,12.90444c0,0,4.89672,2.3,4.97812,5.91173l-47.76693-.11954-.42222-18.73337-.21778-9.6628Z" fill="#f9977a"/><path d="M269.69562,476.61273l-46.95525-.11487a1.10646,1.10646,0,0,0-1.10888,1.13138l.00524.2325a1.10645,1.10645,0,0,0,1.10346,1.08152l48.42812.11868S272.48424,477.58269,269.69562,476.61273Z" fill="#84382a"/><path d="M250.5872,476.13458a5.03821,5.03821,0,0,1-.17118-3.49238c.87059-2.62193,3.78074-3.70295,4.10934-3.81771a1.47992,1.47992,0,0,1,.98617,2.78833,4.1751,4.1751,0,0,0-2.38377,2.051,2.57089,2.57089,0,0,0,.47228,2.144,1.47271,1.47271,0,0,1-.4349,2.02145,1.42954,1.42954,0,0,1-1.97809-.499A7.64368,7.64368,0,0,1,250.5872,476.13458Z" fill="#84382a"/><path d="M220.992,460.72634a1.47535,1.47535,0,0,1,.3817-1.64994,1.41061,1.41061,0,0,1,2.02047.18761c1.81464,2.17208,3.76615,3.29751,5.80219,3.34558,3.6981.08747,6.69112-3.32242,6.72131-3.356a1.402,1.402,0,0,1,2.01808-.097,1.50519,1.50519,0,0,1,.14991,2.07632c-.15451.18155-3.84674,4.427-8.85963,4.32084-2.90806-.0618-5.59385-1.54352-7.98313-4.40441A1.51559,1.51559,0,0,1,220.992,460.72634Z" fill="#84382a"/><path d="M220.99249,460.72769a1.48636,1.48636,0,0,1,.24794-1.51842,1.40034,1.40034,0,0,1,2.021-.08568c.36545.33785,8.94732,8.3992,6.902,17.74524a1.39137,1.39137,0,0,1-1.71057,1.06885,1.51766,1.51766,0,0,1-1.08384-1.78651c1.67477-7.6601-5.9177-14.79014-5.99341-14.86134A1.51758,1.51758,0,0,1,220.99249,460.72769Z" fill="#84382a"/><path d="M166.82736,449.5637l-4.27,10.68028s-12.61033,10.14687-28.52858,12.90444c0,0-4.89672,2.3-4.97813,5.91173l47.76693-.11954.42222-18.73337L181.198,449.5637Z" fill="#f9977a"/><path d="M129.86279,476.61273l46.95525-.11487a1.10645,1.10645,0,0,1,1.10887,1.13138l-.00524.2325a1.10644,1.10644,0,0,1-1.10346,1.08152l-48.42812.11868S127.07416,477.58269,129.86279,476.61273Z" fill="#84382a"/><path d="M148.9712,476.13458a5.03828,5.03828,0,0,0,.17119-3.49238c-.87059-2.62193-3.78074-3.70295-4.10935-3.81771a1.47992,1.47992,0,0,0-.98616,2.78833,4.17505,4.17505,0,0,1,2.38376,2.051,2.57092,2.57092,0,0,1-.47227,2.144,1.4727,1.4727,0,0,0,.4349,2.02145,1.42954,1.42954,0,0,0,1.97809-.499A7.6427,7.6427,0,0,0,148.9712,476.13458Z" fill="#84382a"/><path d="M178.56644,460.72634a1.47533,1.47533,0,0,0-.3817-1.64994,1.4106,1.4106,0,0,0-2.02046.18761c-1.81464,2.17208-3.76616,3.29751-5.80219,3.34558-3.69811.08747-6.69113-3.32242-6.72132-3.356a1.402,1.402,0,0,0-2.01807-.097,1.50518,1.50518,0,0,0-.14992,2.07632c.15451.18155,3.84675,4.427,8.85963,4.32084,2.90806-.0618,5.59385-1.54352,7.98313-4.40441A1.51559,1.51559,0,0,0,178.56644,460.72634Z" fill="#84382a"/><path d="M178.56591,460.72769a1.48636,1.48636,0,0,0-.24794-1.51842,1.40034,1.40034,0,0,0-2.021-.08568c-.36544.33785-8.94732,8.3992-6.902,17.74524a1.39138,1.39138,0,0,0,1.71058,1.06885,1.51765,1.51765,0,0,0,1.08383-1.78651c-1.67477-7.6601,5.9177-14.79014,5.99341-14.86134A1.51746,1.51746,0,0,0,178.56591,460.72769Z" fill="#84382a"/><path d="M186.04054,289.02864,160.412,452.103a2.22094,2.22094,0,0,0,1.98326,2.54761l17.283,1.65728a2.22093,2.22093,0,0,0,2.3898-1.77524l28.257-138.554,8.22139,137.10408a2.22094,2.22094,0,0,0,2.217,2.088H239.506a2.22094,2.22094,0,0,0,2.2205-2.2652l-3.26683-163.87683Z" fill="#6c7fd8"/><path d="M198.56512,143.83123c-8.06035,4.25325-11.62679,12.79288-12.10676,13.98548-.02585.06424-.14909.35355-.296.771-.7529,2.13889-1.7309,6.60405-1.58261,19.68529.14481,12.77579,1.26971,11.81082.83494,17.74261-1.08155,14.75606-7.84034,17.702-6.05338,26.30093,2.19662,10.57,14.416,15.7738,15.65532,16.28161,12.57829,5.15346,27.32333.02272,35.27664-8.97578,12.01658-13.59574,6.95121-34.23518,6.6796-35.27659-1.85167-7.09976-5.571-12.49349-6.05338-23.58734-.17064-3.92466,1.34044-6.32908.62621-10.85445-.26335-1.66866-1.38418-8.77012-7.09708-13.77665C217.20415,139.77864,206.07714,139.86729,198.56512,143.83123Z" fill="#1e1d22"/><path d="M165.823,212.47538s2.58553-17.48177,9.26513-19.98662A70.8289,70.8289,0,0,1,190.326,189.149a47.951,47.951,0,0,0,4.5491,5.98873,15.67356,15.67356,0,0,0,25.1499-2.39412q.07532-.12644.15047-.25481l11.48056,4.38349,15.65532,8.55824-6.12685,11.58493H166.008Z" fill="#f73943"/><rect x="142.52504" y="214.40621" width="176.3789" height="124.40759" fill="#efedef"/><path d="M288.75214,233.87375a2.90142,2.90142,0,0,1-2.90188-2.90188V203.114a2.90188,2.90188,0,0,1,5.80376,0v27.85788A2.90142,2.90142,0,0,1,288.75214,233.87375Z" fill="#a2aee6"/><path d="M307.33864,233.87375a2.90142,2.90142,0,0,1-2.90188-2.90188V203.114a2.90188,2.90188,0,0,1,5.80376,0v27.85788A2.90142,2.90142,0,0,1,307.33864,233.87375Z" fill="#a2aee6"/><path d="M223.81171,151.68936l-.65265,9.44629c-.26007,3.76418-1.6424,6.32124-1.13014,10.05946,1.06287,7.75625-3.89515,13.64416-6.18727,13.7378V190.491l4.33376,1.99779-5.03885,10.30289a9.6673,9.6673,0,0,1-17.17385.37709q-3.81838-7.00989-7.63676-14.01975h0a14.87829,14.87829,0,0,0,6.34452-15.14556l-.33452-1.75958s-7.97-1.46821-3.35582-9.33346a33.90038,33.90038,0,0,0,4.71915-15.10111l8.59924-6.50192Z" fill="#f9977a"/><path d="M204.30645,155.74445a.5829.5829,0,0,1-.28956-1.08886c3.17481-1.81348,6.6001-.08594,6.74366-.01172a.58264.58264,0,0,1-.53321,1.03613c-.02978-.01562-3.01611-1.50684-5.63232-.0127A.58406.58406,0,0,1,204.30645,155.74445Z" fill="#1e1d22"/><path d="M215.84209,155.74445a.5829.5829,0,0,1-.28955-1.08886c3.17432-1.81348,6.6001-.08594,6.74365-.01172a.58264.58264,0,0,1-.5332,1.03613c-.02979-.01562-3.01514-1.50684-5.63233-.0127A.584.584,0,0,1,215.84209,155.74445Z" fill="#1e1d22"/><path d="M219.51206,163.39983a1.74886,1.74886,0,0,0,0-3.49563,1.74886,1.74886,0,0,0,0,3.49563Z" fill="#1e1d22"/><path d="M207.557,163.295a1.74886,1.74886,0,0,0,0-3.49563,1.74886,1.74886,0,0,0,0,3.49563Z" fill="#1e1d22"/><path d="M214.37346,159.96113a12.36029,12.36029,0,0,1,1.48255,2.24475,14.15538,14.15538,0,0,1,1.03369,2.49914,6.93147,6.93147,0,0,1,.30835,2.75953,2.42416,2.42416,0,0,1-.57862,1.3479,1.64855,1.64855,0,0,1-1.30212.495,1.74581,1.74581,0,0,0,.96423-.75622,2.27306,2.27306,0,0,0,.23963-1.13514,9.67714,9.67714,0,0,0-.46546-2.46594C215.57244,163.29633,214.9135,161.67573,214.37346,159.96113Z" fill="#dd765e"/><ellipse cx="211.02533" cy="173.86927" rx="3.34815" ry="2.67416" fill="#dd2f22"/><path d="M215.84164,184.933s-6.29214-.32137-9.33335-3.20189c0,0,3.88016,7.71126,9.33335,8.76Z" fill="#dd765e"/><path d="M228.42594,148.858s-.10487-4.29964-7.65545-6.18728-9.01874-6.08241-13.37081-4.92885a14.30027,14.30027,0,0,0-7.07867,4.92885s-13.668-2.09114-7.04377,19.71852c0,0,4.94639,5.76468,5.47073.62609s1.67791-13.94759,4.50938-16.25472,7.236,0,8.91387,1.25843,12.16483,8.70414,13.21352,8.07493S230.6282,154.2063,228.42594,148.858Z" fill="#1e1d22"/><path d="M183.22734,203.137c-1.21289-4.70019-7.1333-7.71-7.19287-7.74023l.19434-.38867c.251.125,6.15674,3.12695,7.41943,8.01953Z" fill="#fffae6"/><rect x="230.60381" y="200.8382" width="0.43457" height="12.41992" fill="#fffae6"/><path d="M148.63062,214.40621s2.6614-5.6881,5.79246-1.93083c0,0,2.19175-2.20927,4.22694-.16531,0,0,2.03519-2.20051,3.75728,0,0,0,3.60072-3.74852,3.60072,2.04395s-2.50485,6.10557-2.50485,6.10557a2.958,2.958,0,0,1-1.25243-1.87863s-1.56553,5.0097-2.81795,2.71358l-.835-1.25242s-3.33981,3.02669-3.23544-1.56553c0,0-2.40048,1.524-3.13106-2.00377l-.73058-2.06661Z" fill="#f9977a"/><path d="M154.42314,212.47541a2.03219,2.03219,0,0,1,1.1764,1.18872,4.82642,4.82642,0,0,1,.39648,1.63037,6.23364,6.23364,0,0,1-.63367,3.18213,12.05358,12.05358,0,0,1-.15283-1.59546l-.08069-1.52759a12.65908,12.65908,0,0,0-.17053-1.47509A3.406,3.406,0,0,0,154.42314,212.47541Z" fill="#dd765e"/><path d="M158.65007,212.31013a6.67352,6.67352,0,0,1,.60071,1.8977,10.753,10.753,0,0,1,.16394,1.97437,9.36839,9.36839,0,0,1-.81689,3.85986c-.06494-.67163-.058-1.31518-.06336-1.95752l.01111-1.91186C158.56755,214.89875,158.56877,213.64118,158.65007,212.31013Z" fill="#dd765e"/><path d="M162.40728,212.31013a8.19,8.19,0,0,1,.50793,3.148,7.5219,7.5219,0,0,1-.66443,3.1228,16.32185,16.32185,0,0,1-.20471-3.13941A14.22564,14.22564,0,0,1,162.40728,212.31013Z" fill="#dd765e"/><path d="M151.50078,214.40632a.75346.75346,0,0,1-.65661-.39429.46508.46508,0,1,1,.79138-.35962A.75334.75334,0,0,1,151.50078,214.40632Z" fill="#dd765e"/><circle cx="219.63623" cy="248.0992" r="9.73618" fill="#a2aee6"/><circle cx="246.65113" cy="248.0992" r="9.73618" fill="#a2aee6"/><circle cx="163.42591" cy="272.13916" r="9.73618" fill="#a2aee6"/><circle cx="191.84002" cy="272.13916" r="9.73618" fill="#a2aee6"/><circle cx="219.63623" cy="272.13916" r="9.73618" fill="#a2aee6"/><circle cx="246.65113" cy="272.13916" r="9.73618" fill="#a2aee6"/><circle cx="163.42591" cy="296.17912" r="9.73618" fill="#a2aee6"/><circle cx="191.84002" cy="296.17912" r="9.73618" fill="#a2aee6"/><circle cx="219.63623" cy="296.17912" r="9.73618" fill="#a2aee6"/><circle cx="246.65113" cy="296.17912" r="9.73618" fill="#a2aee6"/><circle cx="270.58755" cy="248.0992" r="9.73618" fill="#a2aee6"/><circle cx="297.60246" cy="248.0992" r="9.73618" fill="#a2aee6"/><circle cx="270.58755" cy="272.13916" r="9.73618" fill="#a2aee6"/><circle cx="297.60246" cy="272.13916" r="9.73618" fill="#a2aee6"/><circle cx="163.82653" cy="319.95856" r="9.73618" fill="#a2aee6"/><circle cx="192.24064" cy="319.95856" r="9.73618" fill="#a2aee6"/><circle cx="220.03684" cy="319.95856" r="9.73618" fill="#a2aee6"/><circle cx="247.05175" cy="319.95856" r="9.73618" fill="#a2aee6"/><circle cx="270.98817" cy="319.95856" r="9.73618" fill="#a2aee6"/><circle cx="298.00308" cy="319.95856" r="9.73618" fill="#a2aee6"/><circle cx="270.58755" cy="296.17912" r="9.73618" fill="#a2aee6"/><circle cx="297.60246" cy="296.17912" r="9.73618" fill="#a2aee6"/><path d="M186.18193,286.65461a40.72588,40.72588,0,0,1,3.47705,4.3772q1.59742,2.27269,3.01441,4.65234c.94739,1.58472,1.824,3.21167,2.64612,4.87085a40.24091,40.24091,0,0,1,2.17871,5.14868,40.25886,40.25886,0,0,1-3.47962-4.376c-1.06384-1.51563-2.07324-3.06348-3.01184-4.65357q-1.41669-2.38-2.6438-4.87231A40.68968,40.68968,0,0,1,186.18193,286.65461Z" fill="#af2f2f"/><path d="M197.49822,286.65461a40.70775,40.70775,0,0,1-2.18115,5.14722q-1.23158,2.48987-2.64368,4.87231c-.9386,1.59009-1.94812,3.13794-3.012,4.65357a40.2577,40.2577,0,0,1-3.4795,4.376,40.22324,40.22324,0,0,1,2.17859-5.14868c.82215-1.65918,1.69873-3.28613,2.64624-4.87085q1.41247-2.38257,3.01441-4.65234A40.711,40.711,0,0,1,197.49822,286.65461Z" fill="#af2f2f"/><path d="M290.27068,272.83649a68.764,68.764,0,0,1,5.81421,4.61011l-1.03675.02442c1.02259-1.18482,2.05384-2.36182,3.12183-3.50391,1.05359-1.15576,2.14941-2.27173,3.2511-3.38232a74.34042,74.34042,0,0,1,7.01868-6.27833,74.35745,74.35745,0,0,1-5.84253,7.3855c-1.04187,1.16675-2.0896,2.32813-3.17945,3.44971-1.07556,1.135-2.18786,2.2356-3.30871,3.32788l-.05176.05054a.68761.68761,0,0,1-.97241-.01245l-.01294-.01368A68.76024,68.76024,0,0,1,290.27068,272.83649Z" fill="#af2f2f"/><path d="M240.61125,321.65656a68.76892,68.76892,0,0,1,5.81434,4.61035l-1.03687.02417c1.02258-1.18481,2.05383-2.36157,3.12183-3.5039,1.05371-1.15576,2.14953-2.27173,3.2511-3.38208a74.34285,74.34285,0,0,1,7.01867-6.27857,74.32969,74.32969,0,0,1-5.84253,7.3855c-1.04187,1.16675-2.08947,2.32813-3.17944,3.44971-1.07544,1.13525-2.18774,2.23559-3.30859,3.32812l-.05188.05054a.68768.68768,0,0,1-.97229-.01269l-.01307-.01368A68.74384,68.74384,0,0,1,240.61125,321.65656Z" fill="#af2f2f"/><path d="M240.61125,249.79743a68.714,68.714,0,0,1,5.81434,4.61011l-1.03687.02417c1.02258-1.18482,2.05383-2.36157,3.12183-3.50391,1.05371-1.15551,2.14953-2.27173,3.2511-3.38208a74.34136,74.34136,0,0,1,7.01867-6.27856,74.33084,74.33084,0,0,1-5.84253,7.3855c-1.04187,1.16674-2.08947,2.32812-3.17944,3.4497-1.07544,1.13526-2.18774,2.2356-3.30859,3.32813l-.05188.05054a.68767.68767,0,0,1-.97229-.01246l-.01307-.01367A68.82541,68.82541,0,0,1,240.61125,249.79743Z" fill="#af2f2f"/><path d="M297.60234,258.70539a10.60645,10.60645,0,1,1,10.606-10.60644A10.61766,10.61766,0,0,1,297.60234,258.70539Zm0-19.47266a8.86622,8.86622,0,1,0,8.8667,8.86622A8.87648,8.87648,0,0,0,297.60234,239.23273Z" fill="#af2f2f"/><path d="M219.636,330.56477A10.60645,10.60645,0,1,1,230.242,319.95832,10.61766,10.61766,0,0,1,219.636,330.56477Zm0-19.47266a8.86621,8.86621,0,1,0,8.86669,8.86621A8.87648,8.87648,0,0,0,219.636,311.09211Z" fill="#af2f2f"/><path d="M297.60234,330.56477a10.60645,10.60645,0,1,1,10.606-10.60645A10.61767,10.61767,0,0,1,297.60234,330.56477Zm0-19.47266a8.86621,8.86621,0,1,0,8.8667,8.86621A8.87648,8.87648,0,0,0,297.60234,311.09211Z" fill="#af2f2f"/><path d="M163.42607,306.78547A10.60645,10.60645,0,1,1,174.03154,296.179,10.61807,10.61807,0,0,1,163.42607,306.78547Zm0-19.47266a8.86621,8.86621,0,1,0,8.86622,8.86621A8.87658,8.87658,0,0,0,163.42607,287.31281Z" fill="#af2f2f"/><path d="M270.5877,282.74543A10.60645,10.60645,0,1,1,281.19316,272.139,10.61807,10.61807,0,0,1,270.5877,282.74543Zm0-19.47266a8.86622,8.86622,0,1,0,8.86621,8.86621A8.87658,8.87658,0,0,0,270.5877,263.27277Z" fill="#af2f2f"/><path d="M247.3113,205.43049l13.15047,5.42718s16.90774-8.767,21.29123-5.42718,12.31552,9.60193,7.51455,12.52425c0,0,1.20024,4.72846-.52184,7.37393l2.6614,7.81173s.46966,3.13107-2.03519,1.56553l-4.22693-7.82766s-3.44417-5.79246-4.07039-5.47936,1.56553,3.92976,1.56553,3.92976,1.87864,2.802.31311,3.27169-2.3483-2.00333-4.38349-3.27169-3.13106-5.42069-3.13106-5.42069l-.5344-5.50177h-32.431Z" fill="#f9977a"/><path d="M172.67685,233.87375a2.90143,2.90143,0,0,1-2.90189-2.90188V203.114a2.90189,2.90189,0,0,1,5.80377,0v27.85788A2.90142,2.90142,0,0,1,172.67685,233.87375Z" fill="#a2aee6"/><path d="M192.02273,233.87375a2.90142,2.90142,0,0,1-2.90188-2.90188V203.114a2.90188,2.90188,0,0,1,5.80376,0v27.85788A2.90142,2.90142,0,0,1,192.02273,233.87375Z" fill="#a2aee6"/><path d="M211.36861,233.87375a2.90142,2.90142,0,0,1-2.90188-2.90188V203.114a2.90188,2.90188,0,0,1,5.80376,0v27.85788A2.90142,2.90142,0,0,1,211.36861,233.87375Z" fill="#a2aee6"/><path d="M230.71449,233.87375a2.90142,2.90142,0,0,1-2.90188-2.90188V203.114a2.90188,2.90188,0,1,1,5.80376,0v27.85788A2.90142,2.90142,0,0,1,230.71449,233.87375Z" fill="#a2aee6"/><path d="M250.06037,233.87375a2.90142,2.90142,0,0,1-2.90188-2.90188V203.114a2.90189,2.90189,0,0,1,5.80377,0v27.85788A2.90143,2.90143,0,0,1,250.06037,233.87375Z" fill="#a2aee6"/><path d="M269.40626,233.87375a2.90143,2.90143,0,0,1-2.90189-2.90188V203.114a2.90189,2.90189,0,0,1,5.80377,0v27.85788A2.90142,2.90142,0,0,1,269.40626,233.87375Z" fill="#a2aee6"/><path d="M153.68973,233.87375a2.90143,2.90143,0,0,1-2.90189-2.90188V203.114a2.90189,2.90189,0,0,1,5.80377,0v27.85788A2.90142,2.90142,0,0,1,153.68973,233.87375Z" fill="#a2aee6"/><path d="M410.05133,449.13309l4.01534,20.89053s-13.00431,4.98786-20.72962-7.77581l-1.84226-11.5933Z" fill="#f9977a"/><path d="M411.90537,458.96515s9.47785,11.83882,4.22463,18.81667a2.91979,2.91979,0,0,1-2.34993,1.14752l-46.98848-.2551a1.53189,1.53189,0,0,1-1.50851-1.71208c.26968-2.43421,1.406-6.83645,6.00255-8.858,6.53554-2.87429,11.17215,2.305,22.07034-7.068C393.356,461.03621,407.48241,465.09583,411.90537,458.96515Z" fill="#5e7c24"/><path d="M352.72429,448.40238l-2.864,23.22388s-12.164,2.17386-17.64357-11.703l2.96061-11.98078Z" fill="#f9977a"/><path d="M351.56423,458.96515s9.47786,11.83882,4.22463,18.81667a2.91979,2.91979,0,0,1-2.34993,1.14752l-46.98848-.2551a1.53189,1.53189,0,0,1-1.50851-1.71208c.26968-2.43421,1.406-6.83645,6.00255-8.858,6.53554-2.87429,10.37409,1.19206,21.27227-8.18089C332.21676,459.92329,347.14127,465.09583,351.56423,458.96515Z" fill="#5e7c24"/><path d="M386.35614,244.175l-1.48076,17.47305,3.85,26.95h-55.973V233.21735s5.28663-38.79608,13.09119-38.79608h27.11073a14.63352,14.63352,0,0,1,12.377,6.82649S386.75486,245.83634,386.35614,244.175Z" fill="#8b9d36"/><path d="M386.6523,288.598l25.62851,163.07434a2.22093,2.22093,0,0,1-1.98325,2.54761l-17.283,1.65728a2.22094,2.22094,0,0,1-2.3898-1.77524l-28.257-138.554-8.22139,137.10408a2.22094,2.22094,0,0,1-2.21695,2.088H333.18682a2.221,2.221,0,0,1-2.2205-2.2652L334.23315,288.598Z" fill="#ffba55"/><path d="M392.57536,372.70554a27.80519,27.80519,0,0,1-3.85224.6767,20.69606,20.69606,0,0,1-3.87763.07048,14.27158,14.27158,0,0,1-3.76306-.81712,11.94985,11.94985,0,0,1-3.31474-2.003,9.55351,9.55351,0,0,0,3.178,2.33372,13.296,13.296,0,0,0,3.862.94943A18.04957,18.04957,0,0,0,392.57536,372.70554Z" fill="#e6952a"/><path d="M394.64843,380.1093c-1.50295-.04527-2.99838-.16971-4.48585-.32262a37.65522,37.65522,0,0,1-4.42195-.6954,21.08238,21.08238,0,0,1-4.2607-1.29157,11.17142,11.17142,0,0,1-3.71224-2.42888,9.64917,9.64917,0,0,0,3.56419,2.75476,19.23381,19.23381,0,0,0,4.31156,1.42007,32.5051,32.5051,0,0,0,9.005.56364Z" fill="#e6952a"/><path d="M353.77928,373.739a28.70109,28.70109,0,0,1-3.33567.34783,22.63733,22.63733,0,0,1-3.328-.07482,16.654,16.654,0,0,1-6.36708-1.82621,11.21538,11.21538,0,0,0,2.99506,1.57733,14.71232,14.71232,0,0,0,3.329.71193A16.99121,16.99121,0,0,0,353.77928,373.739Z" fill="#e6952a"/><path d="M353.77928,380.12232a23.90563,23.90563,0,0,1-3.89245.75206,29.02974,29.02974,0,0,1-3.94469.20116,30.974,30.974,0,0,1-3.94271-.2768c-1.31354-.14966-2.60853-.42022-3.91628-.67642a23.70777,23.70777,0,0,0,3.86227,1.03049,25.76169,25.76169,0,0,0,3.99175.38769,24.41813,24.41813,0,0,0,4.0002-.31341A15.77987,15.77987,0,0,0,353.77928,380.12232Z" fill="#e6952a"/><path d="M368.58694,310.80963c-1.52617,1.19533-3.11769,2.29875-4.72836,3.3634a53.91037,53.91037,0,0,1-4.98072,2.94264,36.65076,36.65076,0,0,1-5.28769,2.30769,22.81272,22.81272,0,0,1-5.65122,1.15927,18.85833,18.85833,0,0,0,5.75964-.81794,33.01494,33.01494,0,0,0,5.39472-2.23721,46.03332,46.03332,0,0,0,4.96584-3.05975A42.75293,42.75293,0,0,0,368.58694,310.80963Z" fill="#e6952a"/><path d="M379.54462,320.58263c-2.216-.35705-4.42632-.66883-6.59822-1.159a27.454,27.454,0,0,1-3.21429-.85779,8.09061,8.09061,0,0,1-2.92208-1.5372,6.622,6.622,0,0,0,2.79617,1.87229,21.89185,21.89185,0,0,0,3.24144.97708A32.29061,32.29061,0,0,0,379.54462,320.58263Z" fill="#e6952a"/><path d="M358.26294,318.80577a6.7076,6.7076,0,0,1-1.77052,3.62014,13.9485,13.9485,0,0,1-3.11408,2.62435c-.56289.38606-1.17028.709-1.76149,1.05381-.61809.29822-1.22748.61515-1.85273.90171-1.25213.575-2.54334,1.05706-3.83291,1.573.6721-.16728,1.3372-.36411,2.00857-.546.66363-.20415,1.30819-.46631,1.9651-.69757.65491-.238,1.27027-.572,1.90734-.85508.60948-.33916,1.23556-.65473,1.82-1.04052a13.15983,13.15983,0,0,0,3.13583-2.78783A6.08572,6.08572,0,0,0,358.26294,318.80577Z" fill="#e6952a"/><path d="M369.11807,194.90283l.74039-39.24032H340.68735v23.32343a9.25615,9.25615,0,0,0,9.25615,9.25615h.665l-.14808,6.66074Z" fill="#f9977a"/><polygon points="350.608 188.242 355.273 188.242 350.46 194.903 350.608 188.242" fill="#dd765e"/><path d="M369.24375,188.24209s-14.63719,2.36651-19.37565-14.6623c0,0,6.51538-3.55384,0-7.55191,0,0-3.55384-.74039-3.70191,1.48076l-5.47884-11.84613s-5.62691,1.33269-5.33076-5.33076c0,0-5.775-3.40576,1.33269-6.3673,0,0-.29615-8.29229,7.55191-2.22115,0,0,5.33076-12.29036,18.95382,5.18269,0,0,22.2115,1.925,11.698,20.43458Z" fill="#1e1d22"/><path d="M384.95709,234.44589l5.59518,12.809L367.05214,279.492s-4.77527,1.03082-6.35112,2.32157-6.15685.466-6.15685.466-1.1423,2.59677,7.58613,2.94031l-8.28042,9.99853s-.61792,2.89179,1.80254,1.70447l4.72757-3.87223-4.79591,7.39185s-.10611,3.02041,2.46815,1.6541c0,0,1.19991,2.58686,4.84092-2.37463,0,0-.69616,4.06919,2.77576,1.29611s9.02265-13.7365,9.02265-13.7365l31.571-33.82343a9.36654,9.36654,0,0,0,1.7493-10.1104l-7.128-16.47559Z" fill="#f9977a"/><path d="M358.05217,302.0965a22.29113,22.29113,0,0,1,2.42542-4.1643,22.0275,22.0275,0,0,1,3.17737-3.62329,22.02762,22.02762,0,0,1-2.4253,4.1643A22.28532,22.28532,0,0,1,358.05217,302.0965Z" fill="#dd765e"/><path d="M362.89312,299.722a3.81791,3.81791,0,0,1,.6654-1.84179,3.77581,3.77581,0,0,1,1.4375-1.32984,3.77628,3.77628,0,0,1-.66528,1.8418A3.81954,3.81954,0,0,1,362.89312,299.722Z" fill="#dd765e"/><path d="M390.55229,247.255a12.489,12.489,0,0,1,2.18653-3.93457,9.61467,9.61467,0,0,1,3.4917-2.85474l-2.77027,3.436A42.73963,42.73963,0,0,1,390.55229,247.255Z" fill="#dd765e"/><path d="M370.59961,194.525s12.86573-2.93144,22.31145,14.65715,12.05144,23.77716,12.05144,23.77716l-17.9143,6.84-11.4-21.17145Z" fill="#8b9d36"/><path d="M333.25353,237.89631,328.641,251.091l25.86595,30.37164s4.83944.66751,6.50821,1.83565,6.17445,0,6.17445,0,1.335,2.50315-7.34259,3.50442l9.01136,9.34512s.83439,2.83691-1.66877,1.83564l-5.00631-3.50442,5.34007,7.00884s.33375,3.00379-2.33628,1.83565c0,0-1.00127,2.67-5.00632-2.00252,0,0,1.00127,4.00505-2.67,1.50189s-10.03357-13.01642-10.03357-13.01642l-34.03355-31.34441a9.36651,9.36651,0,0,1-2.5073-9.94955l5.86427-16.96654Z" fill="#f9977a"/><path d="M365.18706,303.32355a22.29431,22.29431,0,0,1-3.44177-3.373,22.02824,22.02824,0,0,1-2.73267-3.96948,22.02848,22.02848,0,0,1,3.44177,3.373A22.29508,22.29508,0,0,1,365.18706,303.32355Z" fill="#dd765e"/><path d="M360.18071,301.32111a3.81953,3.81953,0,0,1-1.53381-1.21753,3.77781,3.77781,0,0,1-.80249-1.78637,3.7769,3.7769,0,0,1,1.53381,1.21753A3.8197,3.8197,0,0,1,360.18071,301.32111Z" fill="#dd765e"/><path d="M328.64092,251.09113a42.81494,42.81494,0,0,1-3.15271-3.12426l-3.02173-3.21705a9.61109,9.61109,0,0,1,3.69727,2.583A12.484,12.484,0,0,1,328.64092,251.09113Z" fill="#dd765e"/><path d="M359.01262,290.3072c-1.12878.02759-2.15088-.04395-3.18347-.05152-.51477-.02319-1.02466-.00268-1.54394,0-.52271.00367-1.03821.05249-1.6139.05152a4.8652,4.8652,0,0,1,3.17432-.97779,6.54694,6.54694,0,0,1,1.65527.25171A4.54871,4.54871,0,0,1,359.01262,290.3072Z" fill="#dd765e"/><path d="M358.89983,282.37946a7.76127,7.76127,0,0,1,2.00635.7605,3.43825,3.43825,0,0,0,1.95825.46045,18.83736,18.83736,0,0,0,4.13293-.60132l.27051-.06274.09863.2395a1.46258,1.46258,0,0,1-.1864,1.39746,3.15565,3.15565,0,0,1-.90527.85474,8.35891,8.35891,0,0,1-2.11292.9541,15.673,15.673,0,0,1-2.19848.52881c-.73682.1499-1.4773.22973-2.21692.33691l.3031-.82544,4.49805,4.67993,4.42163,4.75244.0863.09278.02722.10449a4.031,4.031,0,0,1,.1399.99146,1.87445,1.87445,0,0,1-.29358,1.1145,1.31555,1.31555,0,0,1-1.17017.51489,3.35272,3.35272,0,0,1-.994-.2373l-.05627-.02051-.04492-.03394-4.88257-3.67773.41687-.426c.7.97339,1.36816,1.97046,2.04773,2.95923.6792.98877,1.35656,1.979,2.01513,2.9834-.77624-.9165-1.53381-1.84692-2.2893-2.77881s-1.522-1.85547-2.25684-2.80273l-1.15564-1.48975,1.57251,1.06372,5.063,3.42529-.10083-.05444a2.63671,2.63671,0,0,0,.69763.15942c.22107.00733.30164-.04687.36548-.13012a1.91366,1.91366,0,0,0-.00891-1.28491l.11328.197-4.50073-4.67749-4.42432-4.75-.65454-.70264.95764-.12305c.72058-.09228,1.44837-.1582,2.15918-.291a20.36021,20.36021,0,0,0,2.10962-.45142,7.592,7.592,0,0,0,1.94678-.75659,2.446,2.446,0,0,0,.72912-.60791.84756.84756,0,0,0,.186-.69019l.369.17652a15.90847,15.90847,0,0,1-4.29407.34326,3.72469,3.72469,0,0,1-2.06848-.67774A8.82613,8.82613,0,0,0,358.89983,282.37946Z" fill="#dd765e"/><path d="M315.62624,231.81926l9.65458-24.84636a15.06977,15.06977,0,0,1,5.21278-6.78736c3.22845-2.32526,8.243-5.19966,13.95837-5.84381,9.9343-1.11964-10.26,44.64325-10.26,44.64325Z" fill="#8b9d36"/><path d="M334.19194,238.98493c.77381-2.41723,1.65247-4.781,2.55616-7.13232.89209-2.35572,1.85217-4.68067,2.78-7.01563l2.84314-6.97339c.24622-.57837.45984-1.16577.68946-1.74853.23572-.58179.46509-1.16553.66565-1.7561.22607-.58594.43615-1.17554.609-1.77442a12.62866,12.62866,0,0,0,.45117-1.8291,9.00736,9.00736,0,0,1-.05152,1.9104,17.23081,17.23081,0,0,1-.31359,1.88965c-.25989,1.24975-.59266,2.47705-.96705,3.68847-.7257,2.43384-1.62878,4.7981-2.5642,7.14649-.96094,2.33838-1.98267,4.64844-3.09327,6.918C336.69207,234.5799,335.51946,236.82087,334.19194,238.98493Z" fill="#5e7c24"/><path d="M386.37969,238.98493a13.22578,13.22578,0,0,1-.57178-2.69678,22.407,22.407,0,0,1-.16357-2.697,22.057,22.057,0,0,1,.16137-2.69677,13.07923,13.07923,0,0,1,.574-2.69678,13.0956,13.0956,0,0,1,.574,2.69678,22.057,22.057,0,0,1,.16138,2.69677,22.45644,22.45644,0,0,1-.16358,2.697A13.23447,13.23447,0,0,1,386.37969,238.98493Z" fill="#5e7c24"/><path d="M169.775,338.8138l-5.94843,20.24077s56.9653,33.02852,85.86929,0L247.3113,338.8138Z" fill="#f73943"/><path d="M581.26807,479.06194H118.73193a1,1,0,1,1,0-2H581.26807a1,1,0,0,1,0,2Z" fill="#935b50"/></svg>