<svg id="Layer_1" data-name="Layer 1" xmlns="http://www.w3.org/2000/svg" xmlns:xlink="http://www.w3.org/1999/xlink" viewBox="0 0 700 550"><defs><clipPath id="clip-path"><path d="M243.58741,202.93842l40.65041.18478,11.90094,13.091v-13.091h15.2481a3,3,0,0,0,3-3V161.693a3,3,0,0,0-3-3H243.60105a3,3,0,0,0-3,3v38.24542A3,3,0,0,0,243.58741,202.93842Z" fill="none"/></clipPath></defs><title>receiving messages</title><path d="M179.355,315.502c14.31909,66.51854,159.021,172.09771,203.9612,82.11816,23.65552-47.36344,95.99228-116.9596,152.10656-158.7671,54.56319-40.65221-105.6354-103.28394-203.96083-82.118S165.036,248.98345,179.355,315.502Z" fill="#ffe3cb"/><rect x="240.60105" y="230.80383" width="105.57569" height="63.24163" rx="3" fill="#6c7fd8"/><circle cx="294.27589" cy="289.03954" r="2.8099" fill="#e5e1e5"/><path d="M562.70452,222.49178c-1.98384,4.09886-5.4125,7.99533-10.25953,11.60565l-.59734-.8012c11.24412-8.37664,14.56125-17.8776,9.86013-28.23133-8.58683-18.91324-43.44868-38.90439-90.97969-52.16986-49.90991-13.92972-103.07464-17.21626-142.21581-8.78985C221.09267,167.22848,146.4122,245.089,162.039,317.67333l-.97828.21c-15.742-73.12183,59.28273-151.51657,167.24155-174.75644,39.2919-8.45762,92.63575-5.16683,142.6947,8.80465,47.808,13.34314,82.91545,33.54426,91.621,52.71891C565.427,210.8391,565.43161,216.85727,562.70452,222.49178Z" fill="#ffe3cb"/><path d="M164.9668,406.14672c-.98584-1.6416-24.18653-40.30664-27.93946-50.31445l.93653-.35157c3.7207,9.92285,27.61914,49.75,27.86035,50.15039Z" fill="#8b9d36"/><path d="M145.59536,334.59644a42.96044,42.96044,0,0,0-2.31006,7.74274,72.38536,72.38536,0,0,0-1.18066,7.85021,70.94385,70.94385,0,0,0-.3252,7.93152,42.37966,42.37966,0,0,0,.81543,8.04,42.41806,42.41806,0,0,0,2.31543-7.74231,71.0596,71.0596,0,0,0,1.1753-7.85071,72.38594,72.38594,0,0,0,.31982-7.932A42.92136,42.92136,0,0,0,145.59536,334.59644Z" fill="#8b9d36"/><path d="M154.41567,346.65644a40.977,40.977,0,0,0-2.99755,7.30029,68.81949,68.81949,0,0,0-1.88331,7.51428,67.77055,67.77055,0,0,0-1.03955,7.67633,40.52944,40.52944,0,0,0,.08594,7.8924,40.49085,40.49085,0,0,0,3.00293-7.29926,67.76787,67.76787,0,0,0,1.87793-7.51538,68.93077,68.93077,0,0,0,1.03418-7.67731A41.01553,41.01553,0,0,0,154.41567,346.65644Z" fill="#8b9d36"/><path d="M159.27554,360.69641a34.7688,34.7688,0,0,0-2.55176,6.78559,57.759,57.759,0,0,0-1.42774,6.946,56.79328,56.79328,0,0,0-.57763,7.06732,34.32978,34.32978,0,0,0,.55664,7.22925,34.332,34.332,0,0,0,2.55713-6.78485,56.69905,56.69905,0,0,0,1.42236-6.94672,57.76028,57.76028,0,0,0,.57227-7.06811A34.73569,34.73569,0,0,0,159.27554,360.69641Z" fill="#8b9d36"/><path d="M165.39565,374.71045a26.618,26.618,0,0,0-2.5874,5.7746,43.37626,43.37626,0,0,0-1.46875,5.96771,42.57473,42.57473,0,0,0-.62256,6.11383,26.30915,26.30915,0,0,0,.50635,6.30878,26.28867,26.28867,0,0,0,2.59277-5.77368,42.64324,42.64324,0,0,0,1.46387-5.96863,43.44554,43.44554,0,0,0,.61719-6.11475A26.61714,26.61714,0,0,0,165.39565,374.71045Z" fill="#8b9d36"/><path d="M170.79556,383.46973a23.964,23.964,0,0,0-2.73145,5.07031,41.32034,41.32034,0,0,0-1.71728,5.25977,47.21363,47.21363,0,0,0-1.03711,5.39392c-.11231.91553-.21534,1.82593-.28369,2.7539a20.49426,20.49426,0,0,1-.30176,2.81983,5.535,5.535,0,0,0,.66406-.41919l.53906-.54016a9.96665,9.96665,0,0,0,.94287-1.17932,18.889,18.889,0,0,0,1.44971-2.52307,28.09541,28.09541,0,0,0,1.90234-5.32019,31.49112,31.49112,0,0,0,.89551-5.53956A20.8539,20.8539,0,0,0,170.79556,383.46973Z" fill="#8b9d36"/><path d="M140.35073,361.84809a34.44868,34.44868,0,0,0-6.084-5.2757,56.38045,56.38045,0,0,0-6.72461-4.01,55.391,55.391,0,0,0-7.21-3.05194,34.055,34.055,0,0,0-7.85645-1.77411,34.04552,34.04552,0,0,0,6.08057,5.28174,55.39472,55.39472,0,0,0,6.728,4.00391,56.35484,56.35484,0,0,0,7.21289,3.04589A34.44637,34.44637,0,0,0,140.35073,361.84809Z" fill="#8b9d36"/><path d="M146.32681,373.01032a42.43558,42.43558,0,0,0-7.50391-4.91229,70.6533,70.6533,0,0,0-8.00293-3.58417,69.3886,69.3886,0,0,0-8.38037-2.5791,41.95341,41.95341,0,0,0-8.88379-1.23835,41.96106,41.96106,0,0,0,7.501,4.91864,69.40235,69.40235,0,0,0,8.00537,3.57782,70.63886,70.63886,0,0,0,8.38281,2.57276A42.437,42.437,0,0,0,146.32681,373.01032Z" fill="#8b9d36"/><path d="M153.36147,385.41754a36.18931,36.18931,0,0,0-6.76416-4.74267,59.47158,59.47158,0,0,0-7.28027-3.421,58.41715,58.41715,0,0,0-7.67041-2.42078,35.77111,35.77111,0,0,0-8.19092-1.08649,35.783,35.783,0,0,0,6.76172,4.749,58.42609,58.42609,0,0,0,7.28272,3.41473,59.47866,59.47866,0,0,0,7.67285,2.41449A36.18756,36.18756,0,0,0,153.36147,385.41754Z" fill="#8b9d36"/><path d="M158.921,394.96741a27.13022,27.13022,0,0,0-5.94091-3.91315,43.3282,43.3282,0,0,0-6.36475-2.55914,42.552,42.552,0,0,0-6.686-1.53455,26.84218,26.84218,0,0,0-7.11377-.16766,26.84021,26.84021,0,0,0,5.939,3.91956,42.54833,42.54833,0,0,0,6.36719,2.55273,43.30677,43.30677,0,0,0,6.6875,1.528A27.14433,27.14433,0,0,0,158.921,394.96741Z" fill="#8b9d36"/><path d="M163.30972,403.53638a35.68369,35.68369,0,0,0-6.53028-4.96179,58.56191,58.56191,0,0,0-7.09375-3.65979,57.54313,57.54313,0,0,0-7.5205-2.67456,35.2823,35.2823,0,0,0-8.08936-1.36011,35.26988,35.26988,0,0,0,6.52734,4.968,57.52182,57.52182,0,0,0,7.09668,3.65368,58.55265,58.55265,0,0,0,7.523,2.66822A35.68275,35.68275,0,0,0,163.30972,403.53638Z" fill="#8b9d36"/><path d="M138.40884,357.09644a25.11556,25.11556,0,0,0-.19483-8.01984,37.78919,37.78919,0,0,0-2.04345-7.2959,37.16923,37.16923,0,0,0-3.44385-6.74756,24.86525,24.86525,0,0,0-5.311-6.01672,24.85037,24.85037,0,0,0,.18555,8.02326,37.20273,37.20273,0,0,0,2.05225,7.29248,37.7933,37.7933,0,0,0,3.45312,6.74408A25.12018,25.12018,0,0,0,138.40884,357.09644Z" fill="#8b9d36"/><path d="M168.63867,407.78051c-.01074-.666-1.22558-66.874-13.96289-87.041l.8457-.5332c12.88721,20.40332,14.07276,84.82617,14.11719,87.55859Z" fill="#50661a"/><path d="M159.2394,329.40812a45.82741,45.82741,0,0,1-.2998-9.01807,81.07206,81.07206,0,0,1,.97461-8.748c.4668-2.88483,1.102-5.741,1.84912-8.57337.74609-2.85107,1.68848-5.59418,2.69531-8.516a12.49446,12.49446,0,0,1,.645,2.24207,19.97828,19.97828,0,0,1,.35254,2.27825,38.60921,38.60921,0,0,1,.20313,4.52259,58.06854,58.06854,0,0,1-.814,8.86358,64.41646,64.41646,0,0,1-2.05078,8.63025A40.57775,40.57775,0,0,1,159.2394,329.40812Z" fill="#50661a"/><path d="M143.39907,288.61271a32.40156,32.40156,0,0,1,5.64112,7.248A50.93808,50.93808,0,0,1,152.821,303.805a50.05587,50.05587,0,0,1,2.373,8.47125,32.0521,32.0521,0,0,1,.49512,9.17407,32.051,32.051,0,0,1-5.6499-7.24475,50.0081,50.0081,0,0,1-3.772-7.94763,50.93728,50.93728,0,0,1-2.36426-8.47455A32.38528,32.38528,0,0,1,143.39907,288.61271Z" fill="#50661a"/><path d="M132.779,305.03153a74.64353,74.64353,0,0,1,7.42871,6.845c2.29589,2.38,4.48681,4.81323,6.63037,7.25964l6.36865,7.30878c1.06836,1.19684,2.14795,2.37616,3.28857,3.49323a15.01633,15.01633,0,0,0,3.88623,2.93573,6.74558,6.74558,0,0,1-2.65966-.06745,12.45175,12.45175,0,0,1-2.5625-.806,24.74664,24.74664,0,0,1-4.564-2.61688,44.79419,44.79419,0,0,1-7.51807-6.95514,59.34989,59.34989,0,0,1-5.97412-8.16137A42.47565,42.47565,0,0,1,132.779,305.03153Z" fill="#50661a"/><path d="M132.779,321.45035a61.48143,61.48143,0,0,1,9.23486,5.67981,104.62126,104.62126,0,0,1,8.28564,6.73413,102.85292,102.85292,0,0,1,7.56739,7.53205,60.789,60.789,0,0,1,6.60888,8.59637,60.76673,60.76673,0,0,1-9.23974-5.6748,102.775,102.775,0,0,1-8.28125-6.73914,104.61242,104.61242,0,0,1-7.5625-7.53705A61.47205,61.47205,0,0,1,132.779,321.45035Z" fill="#50661a"/><path d="M133.859,334.33268a60.7939,60.7939,0,0,1,9.33008,5.39563,103.39469,103.39469,0,0,1,8.40918,6.4743,101.61559,101.61559,0,0,1,7.71143,7.29059,60.11185,60.11185,0,0,1,6.78076,8.37946,60.08182,60.08182,0,0,1-9.335-5.39045,101.548,101.548,0,0,1-8.4043-6.47943,103.39019,103.39019,0,0,1-7.707-7.29571A60.76538,60.76538,0,0,1,133.859,334.33268Z" fill="#50661a"/><path d="M134.57876,348.1027a56.52067,56.52067,0,0,1,9.3457,4.53375,95.71572,95.71572,0,0,1,8.49707,5.67047,94.12288,94.12288,0,0,1,7.8545,6.53088,55.852,55.852,0,0,1,6.99755,7.67853A55.90239,55.90239,0,0,1,157.924,367.988a94.11607,94.11607,0,0,1-8.49316-5.676,95.78118,95.78118,0,0,1-7.8501-6.53632A56.52007,56.52007,0,0,1,134.57876,348.1027Z" fill="#50661a"/><path d="M133.859,358.09269a62.88223,62.88223,0,0,1,9.77832,4.96484,107.11371,107.11371,0,0,1,8.92041,6.09479,105.22848,105.22848,0,0,1,8.27149,6.95A62.14468,62.14468,0,0,1,168.234,384.193a62.14979,62.14979,0,0,1-9.78222-4.95941,105.23206,105.23206,0,0,1-8.91651-6.10022,107.09627,107.09627,0,0,1-8.26709-6.95539A62.87827,62.87827,0,0,1,133.859,358.09269Z" fill="#50661a"/><path d="M131.339,367.45267a81.97623,81.97623,0,0,1,10.2212,5.67273c3.24511,2.0774,6.38476,4.2735,9.4458,6.56562,3.06982,2.27874,6.05468,4.65448,8.98681,7.10931,2.9624,2.43378,5.76074,4.96863,8.82569,7.479a24.71342,24.71342,0,0,1-5.72315-1.67016,55.96886,55.96886,0,0,1-5.31445-2.55854,87.227,87.227,0,0,1-9.7666-6.35546,100.70292,100.70292,0,0,1-8.87256-7.48731A63.78508,63.78508,0,0,1,131.339,367.45267Z" fill="#50661a"/><path d="M128.279,377.1727a84.30683,84.30683,0,0,1,11.09912,5.27448c3.54443,1.97455,6.98437,4.09467,10.34521,6.32635q5.042,3.34653,9.84082,7.03779,2.39868,1.85082,4.75147,3.76818a42.34093,42.34093,0,0,0,4.82324,3.69324,9.31658,9.31658,0,0,1-3.11817-.53552c-1.00488-.29761-1.98046-.65967-2.94531-1.03626-1.92431-.76391-3.78369-1.63769-5.60742-2.56359a106.415,106.415,0,0,1-10.51318-6.202,120.17788,120.17788,0,0,1-9.78565-7.25214A74.37964,74.37964,0,0,1,128.279,377.1727Z" fill="#50661a"/><path d="M162.34194,340.84354a49.751,49.751,0,0,1,1.43457-9.62585,83.59674,83.59674,0,0,1,2.76661-9.13855,82.28125,82.28125,0,0,1,3.77539-8.76978,49.21467,49.21467,0,0,1,5.12011-8.27783,49.21923,49.21923,0,0,1-1.42773,9.62817,82.28244,82.28244,0,0,1-2.77344,9.13623,83.71015,83.71015,0,0,1-3.78174,8.76746A49.74989,49.74989,0,0,1,162.34194,340.84354Z" fill="#50661a"/><path d="M164.47573,352.08335a50.83531,50.83531,0,0,1,2.7627-9.44586A85.60412,85.60412,0,0,1,171.256,333.853a84.18044,84.18044,0,0,1,4.96777-8.284,50.29353,50.29353,0,0,1,6.23486-7.61634,50.2942,50.2942,0,0,1-2.75635,9.449,84.28234,84.28234,0,0,1-4.02392,8.78131,85.70975,85.70975,0,0,1-4.97363,8.28082A50.90017,50.90017,0,0,1,164.47573,352.08335Z" fill="#50661a"/><path d="M166.09048,362.95267a55.6841,55.6841,0,0,1,4.04394-9.483,94.36226,94.36226,0,0,1,5.21924-8.68866,92.70452,92.70452,0,0,1,6.10938-8.0874,55.059,55.059,0,0,1,7.2959-7.28552,55.05548,55.05548,0,0,1-4.03858,9.48681,92.59379,92.59379,0,0,1-5.2251,8.68482,94.26007,94.26007,0,0,1-6.11474,8.08368A55.68638,55.68638,0,0,1,166.09048,362.95267Z" fill="#50661a"/><path d="M167.27358,374.94443a71.8038,71.8038,0,0,1,5.78955-10.17779q3.22779-4.81705,6.88819-9.27985,3.64819-4.4728,7.71924-8.60028a70.68881,70.68881,0,0,1,8.82812-7.69385,70.68152,70.68152,0,0,1-5.78418,10.18207q-3.22778,4.81677-6.89306,9.27557-3.657,4.46631-7.72461,8.596A71.7158,71.7158,0,0,1,167.27358,374.94443Z" fill="#50661a"/><path d="M168.234,387.37937a72.51091,72.51091,0,0,1,6.856-9.56689q3.731-4.47876,7.856-8.56006,4.11327-4.09269,8.61181-7.7981a71.41756,71.41756,0,0,1,9.6211-6.78162,71.41873,71.41873,0,0,1-6.85108,9.57166q-3.73095,4.4783-7.86035,8.5553-4.12134,4.08526-8.6167,7.79327A72.48383,72.48383,0,0,1,168.234,387.37937Z" fill="#50661a"/><path d="M168.81851,395.3527a63.19427,63.19427,0,0,1,7.44873-8.08765,107.66526,107.66526,0,0,1,8.3042-6.95593,105.76161,105.76161,0,0,1,8.95166-6.09949,62.4688,62.4688,0,0,1,9.81591-4.957,62.48606,62.48606,0,0,1-7.44482,8.093,105.84419,105.84419,0,0,1-8.30811,6.95056A107.74209,107.74209,0,0,1,178.63,390.3903,63.20772,63.20772,0,0,1,168.81851,395.3527Z" fill="#50661a"/><path d="M169.13882,402.01273a66.89654,66.89654,0,0,1,8.70215-7.23547q4.56445-3.24481,9.40674-6.00391,4.83471-2.77267,9.93994-5.072a66.11219,66.11219,0,0,1,10.65136-3.82873,66.12062,66.12062,0,0,1-8.69922,7.24127q-4.56444,3.24444-9.40966,5.998-4.83986,2.7638-9.94336,5.06617A66.90737,66.90737,0,0,1,169.13882,402.01273Z" fill="#50661a"/><path d="M168.89028,406.33268a72.24837,72.24837,0,0,1,10.18116-5.86426c3.49316-1.6864,7.05468-3.189,10.67431-4.53406q5.42871-2.01947,11.04737-3.52734a71.19406,71.19406,0,0,1,11.54589-2.18433,71.19541,71.19541,0,0,1-10.17871,5.87061q-5.24048,2.529-10.67676,4.52771c-3.62158,1.33984-7.30175,2.52234-11.0498,3.521A72.23758,72.23758,0,0,1,168.89028,406.33268Z" fill="#50661a"/><path d="M170.69043,406.14672l-.85742-.51563c.24121-.40039,24.13916-40.22754,27.86035-50.15039l.93652.35157C194.87646,365.84008,171.67627,404.50512,170.69043,406.14672Z" fill="#5e7c24"/><path d="M190.06178,334.59644a42.95963,42.95963,0,0,1,2.31006,7.74274,72.3854,72.3854,0,0,1,1.18067,7.85021,70.94624,70.94624,0,0,1,.32519,7.93152,42.37966,42.37966,0,0,1-.81543,8.04,42.41806,42.41806,0,0,1-2.31543-7.74231,71.05957,71.05957,0,0,1-1.17529-7.85071,72.381,72.381,0,0,1-.31982-7.932A42.92217,42.92217,0,0,1,190.06178,334.59644Z" fill="#5e7c24"/><path d="M181.24147,346.65644a40.97707,40.97707,0,0,1,2.99756,7.30029,68.81944,68.81944,0,0,1,1.8833,7.51428,67.76828,67.76828,0,0,1,1.03955,7.67633,40.52787,40.52787,0,0,1-.08594,7.8924,40.49231,40.49231,0,0,1-3.00293-7.29926,67.7701,67.7701,0,0,1-1.87793-7.51538,68.9331,68.9331,0,0,1-1.03417-7.67731A41.01472,41.01472,0,0,1,181.24147,346.65644Z" fill="#5e7c24"/><path d="M176.38161,360.69641a34.76944,34.76944,0,0,1,2.55176,6.78559,57.7609,57.7609,0,0,1,1.42773,6.946,56.79137,56.79137,0,0,1,.57764,7.06732,34.32978,34.32978,0,0,1-.55664,7.22925,34.33138,34.33138,0,0,1-2.55713-6.78485,56.69721,56.69721,0,0,1-1.42237-6.94672,57.76225,57.76225,0,0,1-.57226-7.06811A34.735,34.735,0,0,1,176.38161,360.69641Z" fill="#5e7c24"/><path d="M170.26149,374.71045a26.61751,26.61751,0,0,1,2.5874,5.7746,43.37626,43.37626,0,0,1,1.46875,5.96771,42.57187,42.57187,0,0,1,.62256,6.11383,26.30813,26.30813,0,0,1-.50635,6.30878,26.28914,26.28914,0,0,1-2.59277-5.77368,42.64463,42.64463,0,0,1-1.46387-5.96863,43.447,43.447,0,0,1-.61718-6.11475A26.61712,26.61712,0,0,1,170.26149,374.71045Z" fill="#5e7c24"/><path d="M164.86159,383.46973A23.964,23.964,0,0,1,167.593,388.54a41.32039,41.32039,0,0,1,1.71729,5.25977,47.21363,47.21363,0,0,1,1.03711,5.39392c.1123.91553.21533,1.82593.28369,2.7539a20.49426,20.49426,0,0,0,.30176,2.81983,5.535,5.535,0,0,1-.66406-.41919l-.53907-.54016a9.96868,9.96868,0,0,1-.94287-1.17932,18.89012,18.89012,0,0,1-1.44971-2.52307,28.09679,28.09679,0,0,1-1.90234-5.32019,31.49112,31.49112,0,0,1-.89551-5.53956A20.85429,20.85429,0,0,1,164.86159,383.46973Z" fill="#5e7c24"/><path d="M195.30641,361.84809a34.44874,34.44874,0,0,1,6.084-5.2757,56.37966,56.37966,0,0,1,6.72461-4.01,55.391,55.391,0,0,1,7.21-3.05194,34.055,34.055,0,0,1,7.85644-1.77411,34.04582,34.04582,0,0,1-6.08056,5.28174,55.39549,55.39549,0,0,1-6.728,4.00391,56.35544,56.35544,0,0,1-7.21289,3.04589A34.44633,34.44633,0,0,1,195.30641,361.84809Z" fill="#5e7c24"/><path d="M189.33034,373.01032a42.43558,42.43558,0,0,1,7.50391-4.91229,70.65316,70.65316,0,0,1,8.00292-3.58417,69.38875,69.38875,0,0,1,8.38038-2.5791,41.95341,41.95341,0,0,1,8.88378-1.23835,41.961,41.961,0,0,1-7.501,4.91864,69.40235,69.40235,0,0,1-8.00537,3.57782,70.639,70.639,0,0,1-8.38282,2.57276A42.43692,42.43692,0,0,1,189.33034,373.01032Z" fill="#5e7c24"/><path d="M182.29567,385.41754a36.18963,36.18963,0,0,1,6.76416-4.74267,59.47227,59.47227,0,0,1,7.28027-3.421,58.4181,58.4181,0,0,1,7.67041-2.42078,35.77118,35.77118,0,0,1,8.19092-1.08649,35.783,35.783,0,0,1-6.76172,4.749,58.426,58.426,0,0,1-7.28271,3.41473,59.47916,59.47916,0,0,1-7.67285,2.41449A36.18773,36.18773,0,0,1,182.29567,385.41754Z" fill="#5e7c24"/><path d="M176.7361,394.96741a27.13028,27.13028,0,0,1,5.94092-3.91315,43.32853,43.32853,0,0,1,6.36474-2.55914,42.55187,42.55187,0,0,1,6.686-1.53455,26.84217,26.84217,0,0,1,7.11377-.16766,26.84049,26.84049,0,0,1-5.939,3.91956,42.54822,42.54822,0,0,1-6.36718,2.55273,43.307,43.307,0,0,1-6.6875,1.528A27.14442,27.14442,0,0,1,176.7361,394.96741Z" fill="#5e7c24"/><path d="M172.34743,403.53638a35.68363,35.68363,0,0,1,6.53027-4.96179,58.56265,58.56265,0,0,1,7.09375-3.65979,57.54327,57.54327,0,0,1,7.52051-2.67456,35.2823,35.2823,0,0,1,8.08936-1.36011,35.27028,35.27028,0,0,1-6.52735,4.968,57.52111,57.52111,0,0,1-7.09668,3.65368,58.55212,58.55212,0,0,1-7.523,2.66822A35.68266,35.68266,0,0,1,172.34743,403.53638Z" fill="#5e7c24"/><path d="M197.24831,357.09644a25.11585,25.11585,0,0,1,.19482-8.01984,37.78922,37.78922,0,0,1,2.04346-7.2959,37.16923,37.16923,0,0,1,3.44385-6.74756,24.8652,24.8652,0,0,1,5.311-6.01672,24.85009,24.85009,0,0,1-.18555,8.02326,37.202,37.202,0,0,1-2.05224,7.29248,37.79335,37.79335,0,0,1-3.45313,6.74408A25.11992,25.11992,0,0,1,197.24831,357.09644Z" fill="#5e7c24"/><path d="M176.30925,434.32549h-18.0714l-5.81375-30.84381a1.22592,1.22592,0,0,1,1.19629-1.45891h27.30633a1.22592,1.22592,0,0,1,1.19629,1.45891Z" fill="#e19974"/><path d="M181.703,405.71031l.42009-2.2286a1.22594,1.22594,0,0,0-1.19629-1.45893H153.62038a1.22593,1.22593,0,0,0-1.19629,1.45893l.42009,2.2286Z" fill="#d6694b"/><polygon points="159.682 425.59 155.865 421.737 159.682 417.884 163.5 421.737 159.682 425.59" fill="#d6694b"/><polygon points="167.317 425.59 163.5 421.737 167.317 417.884 171.135 421.737 167.317 425.59" fill="#d6694b"/><polygon points="174.864 425.59 171.047 421.737 174.864 417.884 178.682 421.737 174.864 425.59" fill="#d6694b"/><rect x="112.47573" y="114.67451" width="79.74" height="152.28" rx="2" fill="#a2aee6"/><rect x="116.25573" y="118.45451" width="34.2" height="45.72" rx="2" fill="#e5e1e5"/><rect x="154.23573" y="118.45451" width="34.2" height="45.72" rx="2" fill="#e5e1e5"/><rect x="116.25573" y="167.95451" width="34.2" height="45.72" rx="2" fill="#e5e1e5"/><rect x="154.23573" y="167.95451" width="34.2" height="45.72" rx="2" fill="#e5e1e5"/><rect x="116.25573" y="217.45451" width="34.2" height="45.72" rx="2" fill="#e5e1e5"/><rect x="154.23573" y="217.45451" width="34.2" height="45.72" rx="2" fill="#e5e1e5"/><path d="M119.9457,154.75447c1.69141-2.75879,3.47242-5.45434,5.26709-8.1405,1.78516-2.69263,3.63477-5.34,5.48438-7.98731,1.86914-2.63354,3.74-5.26587,5.67407-7.85363l2.90405-3.87964c.998-1.27222,1.96778-2.56421,2.99048-3.81885-.8374,1.38525-1.72754,2.73328-2.5896,4.1012l-2.676,4.04028c-1.78589,2.69226-3.635,5.33984-5.48584,7.98633-1.87036,2.63269-3.741,5.26538-5.67554,7.85266C123.91323,149.64888,121.97427,152.23323,119.9457,154.75447Z" fill="#a2aee6"/><path d="M124.48135,161.07954c1.6914-2.75878,3.47241-5.45446,5.26684-8.1405,1.7854-2.69263,3.63477-5.34009,5.48462-7.9873,1.86914-2.63355,3.74-5.26587,5.67407-7.85376l2.90406-3.87964c.9978-1.2721,1.96753-2.56409,2.99023-3.81885-.83716,1.38538-1.72754,2.7334-2.5896,4.1012l-2.67578,4.0404c-1.78613,2.69214-3.63525,5.33985-5.48608,7.98621-1.87012,2.63281-3.74073,5.26538-5.67554,7.85278C128.44888,155.974,126.50991,158.5583,124.48135,161.07954Z" fill="#a2aee6"/><path d="M157.90786,154.75447c1.69141-2.75879,3.47241-5.45434,5.26709-8.1405,1.7854-2.69263,3.63477-5.34,5.48462-7.98731,1.86914-2.63354,3.74-5.26587,5.67407-7.85363l2.90406-3.87964c.9978-1.27222,1.96752-2.56421,2.99023-3.81885-.8374,1.38525-1.72754,2.73328-2.5896,4.1012l-2.676,4.04028c-1.78588,2.69226-3.635,5.33984-5.48584,7.98633-1.87036,2.63269-3.74072,5.26538-5.67553,7.85266C161.87563,149.64888,159.93667,152.23323,157.90786,154.75447Z" fill="#a2aee6"/><path d="M162.44351,161.07954c1.6914-2.75878,3.47241-5.45446,5.26709-8.1405,1.78515-2.69263,3.63476-5.34009,5.48437-7.9873,1.86914-2.63355,3.74-5.26587,5.67407-7.85376l2.90406-3.87964c.998-1.2721,1.96777-2.56409,2.99047-3.81885-.8374,1.38538-1.72753,2.7334-2.5896,4.1012l-2.676,4.0404c-1.78589,2.69214-3.635,5.33985-5.48584,7.98621-1.87036,2.63281-3.741,5.26538-5.67554,7.85278C166.411,155.974,164.47207,158.5583,162.44351,161.07954Z" fill="#a2aee6"/><path d="M119.9457,202.492c1.69141-2.75879,3.47242-5.45447,5.26709-8.1405,1.78516-2.69263,3.63477-5.34009,5.48438-7.98731,1.86914-2.63354,3.74-5.266,5.67407-7.85376l2.90405-3.87964c.998-1.27209,1.96778-2.56408,2.99048-3.81884-.8374,1.38537-1.72754,2.73339-2.5896,4.10119l-2.676,4.04041c-1.78589,2.69214-3.635,5.33972-5.48584,7.9862-1.87036,2.63282-3.741,5.26538-5.67554,7.85266C123.91323,197.38643,121.97427,199.97078,119.9457,202.492Z" fill="#a2aee6"/><path d="M124.48135,208.817c1.6914-2.75867,3.47241-5.45434,5.26684-8.1405,1.7854-2.69263,3.63477-5.34,5.48462-7.98718,1.86914-2.63355,3.74-5.266,5.67407-7.85376l2.90406-3.87964c.9978-1.27222,1.96753-2.56421,2.99023-3.81885-.83716,1.38525-1.72754,2.73328-2.5896,4.1012l-2.67578,4.04028c-1.78613,2.69226-3.63525,5.33984-5.48608,7.98633-1.87012,2.63269-3.74073,5.26538-5.67554,7.85266C128.44888,203.7115,126.50991,206.29585,124.48135,208.817Z" fill="#a2aee6"/><path d="M157.90786,202.492c1.69141-2.75879,3.47241-5.45447,5.26709-8.1405,1.7854-2.69263,3.63477-5.34009,5.48462-7.98731,1.86914-2.63354,3.74-5.266,5.67407-7.85376l2.90406-3.87964c.9978-1.27209,1.96752-2.56408,2.99023-3.81884-.8374,1.38537-1.72754,2.73339-2.5896,4.10119l-2.676,4.04041c-1.78588,2.69214-3.635,5.33972-5.48584,7.9862-1.87036,2.63282-3.74072,5.26538-5.67553,7.85266C161.87563,197.38643,159.93667,199.97078,157.90786,202.492Z" fill="#a2aee6"/><path d="M162.44351,208.817c1.6914-2.75867,3.47241-5.45434,5.26709-8.1405,1.78515-2.69263,3.63476-5.34,5.48437-7.98718,1.86914-2.63355,3.74-5.266,5.67407-7.85376l2.90406-3.87964c.998-1.27222,1.96777-2.56421,2.99047-3.81885-.8374,1.38525-1.72753,2.73328-2.5896,4.1012l-2.676,4.04028c-1.78589,2.69226-3.635,5.33984-5.48584,7.98633-1.87036,2.63269-3.741,5.26538-5.67554,7.85266C166.411,203.7115,164.47207,206.29585,162.44351,208.817Z" fill="#a2aee6"/><path d="M119.9457,251.93159c1.69141-2.75878,3.47242-5.45434,5.26709-8.1405,1.78516-2.69262,3.63477-5.34,5.48438-7.9873,1.86914-2.63355,3.74-5.26587,5.67407-7.85364l2.90405-3.87964c.998-1.27222,1.96778-2.56421,2.99048-3.81885-.8374,1.38526-1.72754,2.73328-2.5896,4.1012l-2.676,4.04028c-1.78589,2.69226-3.635,5.33985-5.48584,7.98633-1.87036,2.63269-3.741,5.26538-5.67554,7.85266C123.91323,246.82613,121.97427,249.41048,119.9457,251.93159Z" fill="#a2aee6"/><path d="M124.48135,258.25667c1.6914-2.75879,3.47241-5.45447,5.26684-8.1405,1.7854-2.69263,3.63477-5.34009,5.48462-7.98731,1.86914-2.63354,3.74-5.26587,5.67407-7.85364l2.90406-3.87976c.9978-1.27209,1.96753-2.56408,2.99023-3.81872-.83716,1.38525-1.72754,2.73327-2.5896,4.10107l-2.67578,4.04041c-1.78613,2.69213-3.63525,5.33984-5.48608,7.98632-1.87012,2.63269-3.74073,5.26526-5.67554,7.85267C128.44888,253.15108,126.50991,255.73543,124.48135,258.25667Z" fill="#a2aee6"/><path d="M157.90786,251.93159c1.69141-2.75878,3.47241-5.45434,5.26709-8.1405,1.7854-2.69262,3.63477-5.34,5.48462-7.9873,1.86914-2.63355,3.74-5.26587,5.67407-7.85364l2.90406-3.87964c.9978-1.27222,1.96752-2.56421,2.99023-3.81885-.8374,1.38526-1.72754,2.73328-2.5896,4.1012l-2.676,4.04028c-1.78588,2.69226-3.635,5.33985-5.48584,7.98633-1.87036,2.63269-3.74072,5.26538-5.67553,7.85266C161.87563,246.82613,159.93667,249.41048,157.90786,251.93159Z" fill="#a2aee6"/><path d="M162.44351,258.25667c1.6914-2.75879,3.47241-5.45447,5.26709-8.1405,1.78515-2.69263,3.63476-5.34009,5.48437-7.98731,1.86914-2.63354,3.74-5.26587,5.67407-7.85364l2.90406-3.87976c.998-1.27209,1.96777-2.56408,2.99047-3.81872-.8374,1.38525-1.72753,2.73327-2.5896,4.10107l-2.676,4.04041c-1.78589,2.69213-3.635,5.33984-5.48584,7.98632-1.87036,2.63269-3.741,5.26526-5.67554,7.85267C166.411,253.15108,164.47207,255.73543,162.44351,258.25667Z" fill="#a2aee6"/><rect x="451.85097" y="131.7247" width="121.64331" height="251.01797" fill="#935b50"/><path d="M492.04763,250.20362H470.26574V229.046a10.89094,10.89094,0,0,1,10.89093-10.89093h0A10.89094,10.89094,0,0,1,492.04763,229.046Z" fill="#ffba55"/><circle cx="481.53828" cy="229.56639" r="8.1508" fill="#fff"/><path d="M483.862,223.14977c-.55643,2.2177-1.31,4.36434-2.05445,6.51408l-.11952-.3418c2.0089,1.25989,4.02509,2.50885,5.91994,3.95549-2.15138-1.02741-4.18178-2.2525-6.21911-3.46666l-.20333-.12134.08345-.22082C482.07356,227.34084,482.86939,225.20969,483.862,223.14977Z" fill="#080200"/><path d="M490.01234,378.26743v.42158a4.05514,4.05514,0,0,1-4.05366,4.05366h-12.1772a4.05514,4.05514,0,0,1-4.05366-4.05366V362.27979a4.05514,4.05514,0,0,1,4.05366-4.05367h12.1772a4.05514,4.05514,0,0,1,4.05366,4.05367v15.98764Z" fill="#ffba55"/><path d="M496.72506,362.40938h-6.71269v2.43219H495.509v10.99358h-5.49659v2.4322h6.71269a1.21439,1.21439,0,0,0,1.2161-1.2161V363.62547A1.21451,1.21451,0,0,0,496.72506,362.40938Z" fill="#fff"/><rect x="479.87008" y="366.6192" width="5.03808" height="5.03808" rx="0.81073" fill="#fff"/><rect x="481.81869" y="358.22554" width="1.14128" height="8.39417" fill="#e5caf3"/><path d="M445.821,125.39628V434.32549h6.03v-7.61218H573.49428v7.61218h6.03V125.39628Zm6.03,6.32842h59.10536v61.94108H451.851Zm0,66.89628h59.10536v51.58264H451.851Zm0,56.956h59.10536v59.10518H451.851Zm0,64.47835h59.10536v62.68735H451.851ZM573.49428,421.60888H451.851V389.19061H573.49428Zm0-38.86621H514.7176V320.05532h58.77668Zm0-68.06052H514.7176V255.577h58.77668Zm0-64.47853H514.7176V198.621h58.77668Zm0-56.53784H514.7176V131.7247h58.77668Z" fill="#e19974"/><rect x="451.85097" y="387.69806" width="121.64331" height="33.91083" fill="#935b50"/><rect x="466.77653" y="403.34005" width="20.68683" height="4.1194" fill="#e19974"/><rect x="537.8819" y="403.34005" width="20.68683" height="4.1194" fill="#e19974"/><path d="M528.73737,187.53925H565.437a0,0,0,0,1,0,0v5.473a0,0,0,0,1,0,0H528.73737a2.42738,2.42738,0,0,1-2.42738-2.42738v-.61824a2.42738,2.42738,0,0,1,2.42738-2.42738Z" fill="#fff"/><path d="M566.5824,193.15234a.51207.51207,0,0,1-.52685.49588H528.04284c-1.45137,0-2.63194-1.50039-2.63194-3.345,0-1.84411,1.18057-3.34451,2.63194-3.34451h38.01271a.51207.51207,0,0,1,.52685.49588v.39032a.51207.51207,0,0,1-.52685.49587H528.04284a2.01928,2.01928,0,0,0,0,3.92532h38.01271a.51207.51207,0,0,1,.52685.49588Z" fill="#f65b2b"/><path d="M523.02317,180.84979h36.69965a0,0,0,0,1,0,0v5.473a0,0,0,0,1,0,0H523.02317a2.42738,2.42738,0,0,1-2.42738-2.42738v-.61824A2.42738,2.42738,0,0,1,523.02317,180.84979Z" fill="#fff"/><path d="M560.8682,186.46289a.51207.51207,0,0,1-.52685.49587H522.32864c-1.45137,0-2.63194-1.50039-2.63194-3.345,0-1.84411,1.18057-3.3445,2.63194-3.3445h38.01271a.51207.51207,0,0,1,.52685.49587v.39032a.51207.51207,0,0,1-.52685.49588H522.32864a2.01927,2.01927,0,0,0,0,3.92531h38.01271a.51207.51207,0,0,1,.52685.49588Z" fill="#ffba55"/><path d="M534.7199,174.16034h36.69965a0,0,0,0,1,0,0v5.473a0,0,0,0,1,0,0H534.7199a2.42738,2.42738,0,0,1-2.42738-2.42738v-.61824A2.42738,2.42738,0,0,1,534.7199,174.16034Z" fill="#fff"/><path d="M572.56493,179.77343a.51206.51206,0,0,1-.52684.49588H534.02537c-1.45137,0-2.63193-1.5004-2.63193-3.345,0-1.84411,1.18056-3.3445,2.63193-3.3445h38.01272a.51206.51206,0,0,1,.52684.49588v.39031a.51206.51206,0,0,1-.52684.49588H534.02537a2.01928,2.01928,0,0,0,0,3.92532h38.01272a.51206.51206,0,0,1,.52684.49587Z" fill="#f65b2b"/><path d="M525.4876,308.57318h36.69965a0,0,0,0,1,0,0v5.473a0,0,0,0,1,0,0H525.4876a2.42738,2.42738,0,0,1-2.42738-2.42738v-.61824A2.42738,2.42738,0,0,1,525.4876,308.57318Z" transform="translate(1085.24747 622.61936) rotate(180)" fill="#fff"/><path d="M521.91484,314.18627a.51207.51207,0,0,0,.52684.49588H560.4544c1.45137,0,2.63194-1.50039,2.63194-3.34495,0-1.84411-1.18057-3.34451-2.63194-3.34451H522.44168a.51207.51207,0,0,0-.52684.49588v.39032a.51206.51206,0,0,0,.52684.49587H560.4544a2.01928,2.01928,0,0,1,0,3.92532H522.44168a.51207.51207,0,0,0-.52684.49588Z" fill="#f65b2b"/><path d="M531.2018,301.88372h36.69965a0,0,0,0,1,0,0v5.473a0,0,0,0,1,0,0H531.2018a2.42738,2.42738,0,0,1-2.42738-2.42738v-.61824A2.42738,2.42738,0,0,1,531.2018,301.88372Z" transform="translate(1096.67587 609.24045) rotate(180)" fill="#fff"/><path d="M527.629,307.49682a.51206.51206,0,0,0,.52684.49587H566.1686c1.45137,0,2.63193-1.50039,2.63193-3.34495,0-1.84411-1.18056-3.3445-2.63193-3.3445H528.15588a.51206.51206,0,0,0-.52684.49587v.39032a.51207.51207,0,0,0,.52684.49588H566.1686a2.01927,2.01927,0,0,1,0,3.92531H528.15588a.51207.51207,0,0,0-.52684.49588Z" fill="#ffba55"/><path d="M519.50507,295.19427h36.69965a0,0,0,0,1,0,0v5.473a0,0,0,0,1,0,0H519.50507a2.42738,2.42738,0,0,1-2.42738-2.42738v-.61824A2.42738,2.42738,0,0,1,519.50507,295.19427Z" transform="translate(1073.2824 595.86153) rotate(180)" fill="#fff"/><path d="M515.93231,300.80736a.51207.51207,0,0,0,.52684.49588h38.01271c1.45137,0,2.63194-1.5004,2.63194-3.345,0-1.84411-1.18057-3.3445-2.63194-3.3445H516.45915a.51206.51206,0,0,0-.52684.49587V295.5a.51206.51206,0,0,0,.52684.49588h38.01271a2.01927,2.01927,0,0,1,0,3.92531H516.45915a.51207.51207,0,0,0-.52684.49588Z" fill="#f65b2b"/><path d="M483.71542,168.808h41.93622a0,0,0,0,1,0,0v6.59392a0,0,0,0,1,0,0H483.71542a.68538.68538,0,0,1-.68538-.68538v-5.22317A.68538.68538,0,0,1,483.71542,168.808Z" transform="matrix(-0.13502, 0.99084, -0.99084, -0.13502, 742.96676, -304.37952)" fill="#7ca1b1"/><rect x="506.38062" y="150.91115" width="0.79733" height="6.59399" transform="translate(285.53898 635.51691) rotate(-82.23797)" fill="#fff"/><rect x="505.95064" y="154.06826" width="0.79733" height="6.59399" transform="translate(282.03889 637.82158) rotate(-82.23797)" fill="#fff"/><rect x="502.08005" y="182.47492" width="0.79733" height="6.59399" transform="translate(250.54467 658.55654) rotate(-82.23797)" fill="#fff"/><rect x="501.6497" y="185.63093" width="0.79733" height="6.59327" transform="translate(247.03867 660.85578) rotate(-82.23712)" fill="#fff"/><path d="M489.32136,151.72956l0,41.93622H482.7274l0-41.93622a.68538.68538,0,0,1,.68538-.68538H488.636A.68537.68537,0,0,1,489.32136,151.72956Z" fill="#f65b2b"/><rect x="482.72783" y="190.01852" width="6.59378" height="0.79599" fill="#fff"/><rect x="482.72783" y="186.8327" width="6.59378" height="0.79599" fill="#fff"/><rect x="482.72783" y="158.16402" width="6.59378" height="0.79599" fill="#fff"/><rect x="482.72783" y="154.9782" width="6.59378" height="0.79599" fill="#fff"/><path d="M489.31338,193.66578V153.64084a.68538.68538,0,0,1,.68538-.68538h7.5167a.68537.68537,0,0,1,.68538.68538v40.02494Z" fill="#ffba55"/><rect x="489.31328" y="188.657" width="8.88735" height="0.79599" fill="#fff"/><rect x="484.24848" y="161.8907" width="19.01726" height="5.73385" transform="translate(658.51474 -328.99948) rotate(90)" fill="#fff"/><path d="M467.25816,151.72956l0,41.93622h6.59393l0-41.93622a.68539.68539,0,0,0-.68538-.68538h-5.22317A.68538.68538,0,0,0,467.25816,151.72956Z" fill="#ffba55"/><rect x="467.25781" y="190.01852" width="6.5947" height="0.79599" fill="#fff"/><rect x="467.25781" y="186.8327" width="6.5947" height="0.79599" fill="#fff"/><rect x="467.25781" y="158.16402" width="6.5947" height="0.79599" fill="#fff"/><rect x="467.25781" y="154.9782" width="6.5947" height="0.79599" fill="#fff"/><path d="M467.26614,193.66578V153.64084a.68537.68537,0,0,0-.68538-.68538h-7.5167a.68537.68537,0,0,0-.68538.68538v40.02494Z" fill="#f65b2b"/><rect x="458.3788" y="188.657" width="8.88735" height="0.79599" fill="#fff"/><rect x="453.31378" y="161.8907" width="19.01726" height="5.73385" transform="translate(627.58004 -298.06478) rotate(90)" fill="#fff"/><path d="M458.62,168.86689h40.02494a0,0,0,0,1,0,0v8.88746a0,0,0,0,1,0,0H458.62a.68538.68538,0,0,1-.68538-.68538v-7.5167A.68538.68538,0,0,1,458.62,168.86689Z" transform="translate(651.60038 -304.97914) rotate(90)" fill="#7ca1b1"/><rect x="473.84576" y="188.65719" width="8.88756" height="0.79584" fill="#fff"/><rect x="468.78113" y="161.8907" width="19.01726" height="5.73385" transform="translate(643.04739 -313.53213) rotate(90)" fill="#fff"/><path d="M504.53507,277.20822h29.31317a0,0,0,0,1,0,0v4.60911a0,0,0,0,1,0,0H504.53507a.47908.47908,0,0,1-.47908-.47908v-3.651A.47908.47908,0,0,1,504.53507,277.20822Z" transform="translate(725.83546 -272.42741) rotate(82.24012)" fill="#7ca1b1"/><polygon points="515.002 267.591 514.926 267.04 519.493 266.417 519.569 266.968 515.002 267.591" fill="#fff"/><polygon points="515.303 269.796 515.227 269.245 519.794 268.623 519.869 269.174 515.303 269.796" fill="#fff"/><polygon points="518.008 289.653 517.932 289.102 522.5 288.479 522.575 289.03 518.008 289.653" fill="#fff"/><polygon points="518.309 291.859 518.233 291.308 522.8 290.686 522.876 291.237 518.309 291.859" fill="#fff"/><path d="M529.45064,265.27049l0,29.31317h4.60911l0-29.31317a.47908.47908,0,0,0-.47908-.47907h-3.651A.47908.47908,0,0,0,529.45064,265.27049Z" fill="#f65b2b"/><rect x="529.45047" y="292.03425" width="4.60901" height="0.55639" fill="#fff"/><rect x="529.45047" y="289.80738" width="4.60901" height="0.55639" fill="#fff"/><rect x="529.45047" y="269.76814" width="4.60901" height="0.55639" fill="#fff"/><rect x="529.45047" y="267.54127" width="4.60901" height="0.55639" fill="#fff"/><path d="M529.45622,294.58366v-27.9772a.47908.47908,0,0,0-.47908-.47907H523.723a.47907.47907,0,0,0-.47907.47907v27.9772Z" fill="#ffba55"/><rect x="523.24409" y="291.08255" width="6.2122" height="0.55639" fill="#fff"/><rect x="519.7036" y="272.37307" width="13.29295" height="4.00793" transform="translate(800.72711 -251.97305) rotate(90)" fill="#fff"/><path d="M544.87269,265.27049l0,29.31317h-4.60912l0-29.31317a.47908.47908,0,0,1,.47908-.47907h3.651A.47908.47908,0,0,1,544.87269,265.27049Z" fill="#ffba55"/><rect x="540.26327" y="292.03425" width="4.60966" height="0.55639" fill="#fff"/><rect x="540.26327" y="289.80738" width="4.60966" height="0.55639" fill="#fff"/><rect x="540.26327" y="269.76814" width="4.60966" height="0.55639" fill="#fff"/><rect x="540.26327" y="267.54127" width="4.60966" height="0.55639" fill="#fff"/><path d="M544.86711,294.58366v-27.9772a.47908.47908,0,0,1,.47908-.47907h5.25413a.47908.47908,0,0,1,.47908.47907v27.9772Z" fill="#f65b2b"/><rect x="544.86711" y="291.08255" width="6.2122" height="0.55639" fill="#fff"/><rect x="541.32678" y="272.37307" width="13.29295" height="4.00793" transform="translate(822.35029 -273.59622) rotate(90)" fill="#fff"/><path d="M523.41261,277.24938h27.9772a0,0,0,0,1,0,0v6.21228a0,0,0,0,1,0,0h-27.9772a.47908.47908,0,0,1-.47908-.47908v-5.25413A.47908.47908,0,0,1,523.41261,277.24938Z" transform="translate(817.51719 -256.80614) rotate(90)" fill="#7ca1b1"/><rect x="534.05524" y="291.08238" width="6.21291" height="0.55679" fill="#fff"/><rect x="530.51519" y="272.37307" width="13.29295" height="4.00793" transform="translate(811.5387 -262.78463) rotate(90)" fill="#fff"/><path d="M488.40942,272.74593l0,41.93622h-6.59393l0-41.93621a.68538.68538,0,0,1,.68538-.68538H487.724A.68539.68539,0,0,1,488.40942,272.74593Z" fill="#f65b2b"/><rect x="481.81589" y="311.03489" width="6.59378" height="0.79599" fill="#fff"/><rect x="481.81589" y="307.84907" width="6.59378" height="0.79599" fill="#fff"/><rect x="481.81589" y="279.18039" width="6.59378" height="0.79599" fill="#fff"/><rect x="481.81589" y="275.99457" width="6.59378" height="0.79599" fill="#fff"/><path d="M488.40144,314.68215V274.65721a.68538.68538,0,0,1,.68538-.68538h7.5167a.68538.68538,0,0,1,.68538.68538v40.02494Z" fill="#ffba55"/><rect x="488.40134" y="309.67338" width="8.88735" height="0.79599" fill="#fff"/><rect x="483.33654" y="282.90708" width="19.01726" height="5.73385" transform="translate(778.61917 -207.07117) rotate(90)" fill="#fff"/><path d="M466.34622,272.74593l0,41.93622h6.59393l0-41.93621a.68538.68538,0,0,0-.68538-.68538H467.0316A.68539.68539,0,0,0,466.34622,272.74593Z" fill="#ffba55"/><rect x="466.34587" y="311.03489" width="6.5947" height="0.79599" fill="#fff"/><rect x="466.34587" y="307.84907" width="6.5947" height="0.79599" fill="#fff"/><rect x="466.34587" y="279.18039" width="6.5947" height="0.79599" fill="#fff"/><rect x="466.34587" y="275.99457" width="6.5947" height="0.79599" fill="#fff"/><path d="M466.3542,314.68215V274.65721a.68538.68538,0,0,0-.68538-.68538h-7.5167a.68538.68538,0,0,0-.68538.68538v40.02494Z" fill="#f65b2b"/><rect x="457.46686" y="309.67338" width="8.88735" height="0.79599" fill="#fff"/><rect x="452.40184" y="282.90708" width="19.01726" height="5.73385" transform="translate(747.68447 -176.13647) rotate(90)" fill="#fff"/><path d="M457.708,289.88326H497.733a0,0,0,0,1,0,0v8.88746a0,0,0,0,1,0,0H457.708a.68538.68538,0,0,1-.68538-.68538v-7.5167A.68538.68538,0,0,1,457.708,289.88326Z" transform="translate(771.70481 -183.05083) rotate(90)" fill="#7ca1b1"/><rect x="472.93457" y="309.67309" width="8.88672" height="0.79688" fill="#fff"/><rect x="467.86919" y="282.90708" width="19.01726" height="5.73385" transform="translate(763.15182 -191.60382) rotate(90)" fill="#fff"/><path d="M482.06264,289.88326h40.02494a0,0,0,0,1,0,0v8.88746a0,0,0,0,1,0,0H482.06264a.68538.68538,0,0,1-.68538-.68538v-7.5167A.68538.68538,0,0,1,482.06264,289.88326Z" transform="translate(796.05941 -207.40542) rotate(90)" fill="#7ca1b1"/><rect x="497.28906" y="309.67309" width="8.88672" height="0.79688" fill="#fff"/><rect x="492.22379" y="282.90708" width="19.01726" height="5.73385" transform="translate(787.50642 -215.95841) rotate(90)" fill="#fff"/><path d="M550.51914,340.80645l0,41.93622h-6.59393l0-41.93622a.68539.68539,0,0,1,.68538-.68538h5.22317A.68538.68538,0,0,1,550.51914,340.80645Z" fill="#f65b2b"/><rect x="543.92561" y="379.09541" width="6.59378" height="0.79599" fill="#fff"/><rect x="543.92561" y="375.90959" width="6.59378" height="0.79599" fill="#fff"/><rect x="543.92561" y="347.24091" width="6.59378" height="0.79599" fill="#fff"/><rect x="543.92561" y="344.05509" width="6.59378" height="0.79599" fill="#fff"/><path d="M550.51116,382.74267V342.71773a.68538.68538,0,0,1,.68538-.68538h7.5167a.68538.68538,0,0,1,.68538.68538v40.02494Z" fill="#ffba55"/><rect x="550.51106" y="377.73389" width="8.88735" height="0.79599" fill="#fff"/><rect x="545.44626" y="350.9676" width="19.01726" height="5.73385" transform="translate(908.78941 -201.12037) rotate(90)" fill="#fff"/><path d="M528.45594,340.80645l0,41.93622h6.59392l0-41.93622a.68538.68538,0,0,0-.68538-.68538h-5.22316A.68537.68537,0,0,0,528.45594,340.80645Z" fill="#ffba55"/><rect x="528.45559" y="379.09541" width="6.5947" height="0.79599" fill="#fff"/><rect x="528.45559" y="375.90959" width="6.5947" height="0.79599" fill="#fff"/><rect x="528.45559" y="347.24091" width="6.5947" height="0.79599" fill="#fff"/><rect x="528.45559" y="344.05509" width="6.5947" height="0.79599" fill="#fff"/><path d="M519.81776,357.94378H559.8427a0,0,0,0,1,0,0v8.88746a0,0,0,0,1,0,0H519.81776a.68538.68538,0,0,1-.68538-.68538v-7.5167A.68538.68538,0,0,1,519.81776,357.94378Z" transform="translate(901.87505 -177.10003) rotate(90)" fill="#7ca1b1"/><rect x="535.04395" y="377.73363" width="8.8877" height="0.79688" fill="#fff"/><rect x="529.97891" y="350.9676" width="19.01726" height="5.73385" transform="translate(893.32206 -185.65302) rotate(90)" fill="#fff"/><path d="M557.22319,150.9798a1.51976,1.51976,0,0,0-1.12415-.54641c-.56992.07689-.54259.829-1.54467,1.77988-.817.77525-2.39552,1.75565-3.66033,1.34334-1.05456-.34381-.90771-1.33478-2.14956-2.21643a5.18822,5.18822,0,0,0-2.38787-.872c1.10557,4.4456,3.15127,7.44055,5.49943,7.44055C554.11273,157.90874,556.091,155.1419,557.22319,150.9798Z" fill="#ffba55"/><path d="M551.19612,163.93362c-1.00463.04737-1.54211,1.11942-3.49271,4.3658-.95836,1.59459-1.67038,2.737-2.19948,3.58418-.00875.31593-.02041.62967-.02041.9507h12.745c0-.317-.012-.62676-.02-.93868-.72624-.92082-1.82415-2.30041-3.45263-4.46947C552.83771,164.871,552.18545,163.887,551.19612,163.93362Z" fill="#ffba55"/><path d="M551.85586,158.65448c-3.99156,0-7.11879-6.91036-7.11879-15.73306v-.74628h14.23759v.74628C558.97466,151.74412,555.84743,158.65448,551.85586,158.65448Zm-5.61894-14.98678c.164,8.10411,2.98219,13.49422,5.61894,13.49422s5.455-5.39011,5.619-13.49422Z" fill="#fff"/><path d="M558.97466,173.58H544.73707v-.74628c0-8.8227,3.12723-15.73306,7.11879-15.73306s7.1188,6.91036,7.1188,15.73306Zm-12.73774-1.49256h11.23789c-.164-8.10411-2.98219-13.49422-5.619-13.49422S546.40089,163.98337,546.23692,172.08748Z" fill="#fff"/><path d="M563.32642,172.08729h-2.23884V143.66751h2.23884a.74628.74628,0,1,0,0-1.49255H540.38566a.74628.74628,0,1,0,0,1.49255h2.23883v28.41978h-2.23883a.74628.74628,0,0,0,0,1.49256h22.94076a.74628.74628,0,0,0,0-1.49256ZM544.117,143.66751h15.478v28.41978H544.117Z" fill="#7ca1b1"/><path d="M540.00105,239.323c-.05284-1.18173-.02-2.34432.01567-3.506l.755-3.34021,1.49912-6.683,1.49875-6.683.74956-3.34131c.49484-1.05892.93248-2.13061,1.47761-3.17824.04519,1.18009-.01676,2.33595-.0215,3.50474l-.74919,3.34149-1.49912,6.683-1.49875,6.683-.74372,3.34259C541.02062,237.2119,540.55383,238.277,540.00105,239.323Z" fill="#fcfcfc"/><path d="M543.36367,242.51382q-1.28611-6.7348-2.44836-13.48748c-.40156-2.24867-.88839-4.4855-1.11322-6.7595a52.10134,52.10134,0,0,1-.30062-6.87519l.14758-.021a52.03636,52.03636,0,0,1,1.63066,6.6859c.41868,2.2463.57574,4.53.8177,6.80159q.7685,6.80832,1.41384,13.63469Z" fill="#f65b2b"/><path d="M549.90636,216.45513c-.13519,1.17517-.35128,2.31773-.571,3.45919l-1.27428,3.17842-2.53873,6.36122-2.53836,6.361-1.26919,3.1806c-.65663.9671-1.25825,1.95607-1.96262,2.904.14211-1.17244.38662-2.30388.5761-3.45718l1.26955-3.18061,2.53837-6.361,2.53836-6.36122,1.26408-3.18261C548.565,218.37785,549.19506,217.40037,549.90636,216.45513Z" fill="#ffba55"/><rect x="534.06101" y="216.75554" width="6.10592" height="21.82858" transform="translate(-37.54625 127.21784) rotate(-13.05567)" fill="#ffba55"/><path d="M549.279,245.96158v.39962a3.66327,3.66327,0,0,1-3.44955,3.84242H535.467a3.66327,3.66327,0,0,1-3.44955-3.84242V230.80705a3.66326,3.66326,0,0,1,3.44955-3.84242h10.36246a3.66326,3.66326,0,0,1,3.44955,3.84242v15.15453Z" fill="#7ca1b1"/><rect x="532.01755" y="232.86833" width="17.26132" height="1.49256" fill="#fcfcfc"/><rect x="532.01755" y="235.85344" width="17.26132" height="1.49256" fill="#fcfcfc"/><path d="M411.35025,288.87269a1.51979,1.51979,0,0,0-1.12416-.54641c-.56991.07688-.54258.829-1.54466,1.77988-.817.77524-2.39553,1.75565-3.66034,1.34333-1.05455-.3438-.9077-1.33477-2.14955-2.21642a5.18826,5.18826,0,0,0-2.38788-.872c1.10557,4.4456,3.15128,7.44055,5.49943,7.44055C408.23978,295.80163,410.21807,293.03479,411.35025,288.87269Z" fill="#ffba55"/><path d="M405.32318,301.82651c-1.00464.04737-1.54212,1.11942-3.49272,4.3658-.95835,1.59459-1.67038,2.737-2.19948,3.58418-.00874.31593-.0204.62967-.0204.9507h12.745c0-.317-.012-.62676-.02-.93868-.72624-.92082-1.82416-2.30042-3.45263-4.46947C406.96477,302.76391,406.3125,301.77987,405.32318,301.82651Z" fill="#ffba55"/><path d="M405.98292,296.54737c-3.99157,0-7.11879-6.91036-7.11879-15.73306V280.068h14.23758v.74628C413.10171,289.637,409.97449,296.54737,405.98292,296.54737ZM400.364,281.56059c.164,8.10411,2.9822,13.49422,5.61895,13.49422s5.455-5.39011,5.619-13.49422Z" fill="#fff"/><path d="M413.10171,311.47293H398.86413v-.74628c0-8.8227,3.12722-15.73306,7.11879-15.73306s7.11879,6.91036,7.11879,15.73306ZM400.364,309.98037h11.2379c-.164-8.10411-2.9822-13.49422-5.619-13.49422S400.52795,301.87626,400.364,309.98037Z" fill="#fff"/><path d="M417.45347,309.98018h-2.23883V281.5604h2.23883a.74628.74628,0,0,0,0-1.49256H394.51271a.74628.74628,0,0,0,0,1.49256h2.23884v28.41978h-2.23884a.74628.74628,0,0,0,0,1.49256h22.94076a.74628.74628,0,0,0,0-1.49256ZM398.2441,281.5604h15.478v28.41978h-15.478Z" fill="#7ca1b1"/><rect x="247.0449" y="237.24807" width="92.688" height="46.35316" rx="2" fill="#e5e1e5"/><rect x="320.0449" y="237.24807" width="19.688" height="46.35316" fill="#a5a5a5"/><rect x="256.57413" y="274.01837" width="57.61685" height="2.78555" fill="#a5a5a5"/><rect x="256.57413" y="261.02316" width="57.61685" height="2.78555" fill="#a5a5a5"/><rect x="256.57413" y="249.15316" width="57.61685" height="2.78555" fill="#a5a5a5"/><rect x="293.46143" y="294.04516" width="1.62891" height="14.13477" fill="#e5e1e5"/><polygon points="320.763 311.414 267.789 311.414 267.789 304.108 294.276 300.035 320.763 304.108 320.763 311.414" fill="#e5e1e5"/><polygon points="256.743 250.614 254.961 248.179 252.765 248.179 252.765 242.907 260.892 242.907 260.892 248.179 257.231 248.179 256.743 250.614" fill="#ffba55"/><polygon points="256.743 262.488 254.961 260.053 252.765 260.053 252.765 254.781 260.892 254.781 260.892 260.053 257.231 260.053 256.743 262.488" fill="#ffba55"/><polygon points="256.743 275.411 254.961 272.976 252.765 272.976 252.765 267.704 260.892 267.704 260.892 272.976 257.231 272.976 256.743 275.411" fill="#ffba55"/><path d="M304.07674,296.68894s-22.55493-15.30329-22.89334-15.15868-2.57151,1.33731,8.63717,9.69375c0,0-2.92861,1.71323-.738,7.84932a6.85583,6.85583,0,0,0,4.31932,4.19369c2.463.80913,5.80987,1.63213,7.32917.76663Z" fill="#f9977a"/><path d="M277.66389,404.9902l-3.4233,10.11185s-12.691,10.2565-29.029,13.12011c0,0-4.97993,2.33725-4.94968,5.96114l49.28458-.41149-.15693-18.79624,1.44031-9.65733Z" fill="#f9977a"/><path d="M241.04734,431.72283l47.94719-.40032a1.2248,1.2248,0,0,1,1.235,1.21453l0,.00422a1.2248,1.2248,0,0,1-1.21453,1.235l-49.43.41284S238.16123,432.71327,241.04734,431.72283Z" fill="#d6694b"/><path d="M255.28173,432.21785s.44468-2.53256-2.10187-6.01129a5.1388,5.1388,0,0,1,4.32974-1.59053,15.50816,15.50816,0,0,1,1.42534,3.05535c.62259,1.70026,1.06507,3.74566.34453,5.12626Z" fill="#d6694b"/><path d="M267.19622,419.81734s4.14053,6.44347,1.6943,12.35345l4.69135-.03917s2.537-9.32647-2.55876-14.71341C271.02311,417.41821,267.88187,417.52614,267.19622,419.81734Z" fill="#d6694b"/><path d="M267.38069,372.17181l-3.55186,10.06741s-12.82066,10.094-29.19385,12.74916c0,0-5.00931,2.27362-5.02523,5.89759l49.28582.21652.08257-18.79672,1.56325-9.63819Z" fill="#f9977a"/><path d="M230.42649,398.43572l47.9484.21064a1.22479,1.22479,0,0,1,1.21941,1.23017v.00422a1.2248,1.2248,0,0,1-1.23017,1.2194l-49.43122-.217S227.528,399.3893,230.42649,398.43572Z" fill="#d6694b"/><path d="M244.65342,399.11207s.47691-2.52669-2.02511-6.03759a5.13884,5.13884,0,0,1,4.34965-1.53524,15.50788,15.50788,0,0,1,1.3863,3.07327c.60087,1.70805,1.01726,3.75893.27918,5.13024Z" fill="#d6694b"/><path d="M256.725,386.86437s4.05808,6.4957,1.53675,12.374l4.69147.0206s2.65566-9.29338-2.37108-14.74481C260.58209,384.5142,257.43973,384.58209,256.725,386.86437Z" fill="#d6694b"/><path d="M326.6201,331.5785,294.08357,320.257a16.40739,16.40739,0,0,0-20.78453,9.80362,279.72,279.72,0,0,0-13.11526,47.268,2.00637,2.00637,0,0,0,1.42254,2.269l10.27,2.95652,1.01565,26.06826a2,2,0,0,0,1.99848,1.92213h14.72939a2,2,0,0,0,1.97468-1.68278l6.9999-43.57442,16.17627,1.45405s84.88,17.2668,71.43-44.89369l-36.35116,1.82086-4.24284,3.93426A18.8252,18.8252,0,0,1,326.6201,331.5785Z" fill="#6c7fd8"/><path d="M333.48791,368.825c-8.68682-4.19727-17.43391-8.2616-26.17808-12.33228l-13.1548-6.02124q-6.56979-3.02729-13.17751-5.97095l.06216.03406a3.64313,3.64313,0,0,0-2.95856-.2904,5.12836,5.12836,0,0,0-2.30727,1.70312,14.85722,14.85722,0,0,0-2.36255,4.89526,50.3226,50.3226,0,0,0-1.70206,10.51856,153.83219,153.83219,0,0,0,.16709,21.193c-.04115-3.53088-.11554-7.0592-.029-10.58532.08412-3.52442.20186-7.04822.54351-10.54944a54.51553,54.51553,0,0,1,1.85-10.32154,14.04169,14.04169,0,0,1,2.23313-4.57483,4.229,4.229,0,0,1,1.89292-1.39843,2.743,2.743,0,0,1,2.15807.20227l.047.027.01553.00721q6.57151,3.02361,13.17521,5.97607l13.19793,5.926C315.78486,361.15713,324.60625,365.05752,333.48791,368.825Z" fill="#065082"/><path d="M261.29268,371.49563a27.277,27.277,0,0,0,5.00951,2.36377,26.96326,26.96326,0,0,0,5.35273,1.42517,26.95531,26.95531,0,0,0-5.00952-2.36377A27.269,27.269,0,0,0,261.29268,371.49563Z" fill="#065082"/><path d="M292.49017,403.2864a87.09448,87.09448,0,0,0-9.903-.49963,86.09376,86.09376,0,0,0-9.903.49963,86.0669,86.0669,0,0,0,9.903.49976A87.12464,87.12464,0,0,0,292.49017,403.2864Z" fill="#065082"/><path d="M298.59444,365.28738a8.12129,8.12129,0,0,0,1.74423-2.43921,8.02874,8.02874,0,0,0,.84579-2.87683,8.02724,8.02724,0,0,0-1.74424,2.43909A8.12077,8.12077,0,0,0,298.59444,365.28738Z" fill="#065082"/><rect x="413.86719" y="317.13895" width="7.38773" height="117.18654" fill="#935b50"/><rect x="213.38817" y="311.47293" width="222.01078" height="5.66603" rx="1.27364" fill="#935b50"/><rect x="228.12153" y="317.13895" width="7.38773" height="117.18654" fill="#935b50"/><path d="M222.22819,317.139H427.06407a0,0,0,0,1,0,0v15.98553a2.54728,2.54728,0,0,1-2.54728,2.54728H224.77546a2.54728,2.54728,0,0,1-2.54728-2.54728V317.139a0,0,0,0,1,0,0Z" fill="#c38f86"/><path d="M243.58741,202.93842l40.65041.18478,11.90094,13.091v-13.091h15.2481a3,3,0,0,0,3-3V161.693a3,3,0,0,0-3-3H243.60105a3,3,0,0,0-3,3v38.24542A3,3,0,0,0,243.58741,202.93842Z" fill="#ffba55"/><g clip-path="url(#clip-path)"><polygon points="314.387 158.693 314.387 160.247 286.998 180.809 314.387 201.371 314.387 202.925 314.238 203.123 312.585 203.123 284.932 182.354 277.494 187.941 270.056 182.354 242.403 203.123 240.75 203.123 240.601 202.925 240.601 201.371 267.99 180.809 240.601 160.247 240.601 158.693 242.667 158.693 277.494 184.842 312.321 158.693 314.387 158.693" fill="#e5e1e5"/></g><path d="M369.11569,266.59393l.97124-35.0701-26.18616,1.4366,1.14861,20.93685a8.3215,8.3215,0,0,0,8.76485,7.85317l.59695-.03275.1951,5.98647Z" fill="#f9977a"/><polygon points="354.315 261.718 358.502 261.488 354.51 267.704 354.315 261.718" fill="#dd765e"/><path d="M345.60684,327.60271c2.70776-2.51074,2.95813-5.98316,2.98852-9.67578l1.34155-4.86426c-4.62963,10.55347-15.87683,8.39355-15.87683,8.39355-5.6344-.18188-35.30012-17.05569-35.30012-17.05569l3.20466-9.14211,30.43641,7.3687s5.3164-9.406,10.63281-19.90234c5.31628-10.49658,11.57251-15.02051,11.57251-15.02051l16.22412-2.43506c29.08105,2.54468,15.37036,56.57862,15.37036,56.57862,13.45,62.1604-71.43017,44.89355-71.43017,44.89355a35.37609,35.37609,0,0,1,4.02111-31.06958c4.62,0,11.23377.478,18.48474-2.42358A22.9468,22.9468,0,0,0,345.60684,327.60271Z" fill="#f73c4f"/><rect x="377.55726" y="365.42014" width="5" height="68.46191" fill="#c38f86"/><rect x="328.55726" y="365.42014" width="5" height="68.46191" fill="#c38f86"/><path d="M332.401,302.627a3.09833,3.09833,0,0,0,.13229,1.6803,3.04692,3.04692,0,0,0,.9546,1.38879A2.63437,2.63437,0,0,0,332.401,302.627Z" fill="#b02336"/><path d="M347.66851,317.1221a61.34549,61.34549,0,0,0,4.486-7.00379,60.61735,60.61735,0,0,0,3.61356-7.49133,60.62689,60.62689,0,0,0-4.486,7.00378A61.33394,61.33394,0,0,0,347.66851,317.1221Z" fill="#b02336"/><path d="M227.49061,306.32346h30.63375a0,0,0,0,1,0,0v4.5684a0,0,0,0,1,0,0H227.49061a2.02617,2.02617,0,0,1-2.02617-2.02617v-.51605A2.02617,2.02617,0,0,1,227.49061,306.32346Z" fill="#fff"/><path d="M259.08042,311.00879a.42743.42743,0,0,1-.43976.41392H226.91088a2.87246,2.87246,0,0,1,0-5.58379h31.72978a.42743.42743,0,0,1,.43976.41391v.32581a.42742.42742,0,0,1-.43976.41391H226.91088a1.68552,1.68552,0,0,0,0,3.27652h31.72978a.42743.42743,0,0,1,.43976.41392Z" fill="#f65b2b"/><path d="M222.72088,300.73967h30.63375a0,0,0,0,1,0,0v4.5684a0,0,0,0,1,0,0H222.72088a2.02617,2.02617,0,0,1-2.02617-2.02617v-.51605a2.02617,2.02617,0,0,1,2.02617-2.02617Z" fill="#fff"/><path d="M254.3107,305.425a.42743.42743,0,0,1-.43977.41392H222.14115a2.87246,2.87246,0,0,1,0-5.58379h31.72978a.42743.42743,0,0,1,.43977.41391v.32581a.42742.42742,0,0,1-.43977.41391H222.14115a1.68552,1.68552,0,0,0,0,3.27652h31.72978a.42743.42743,0,0,1,.43977.41392Z" fill="#ffba55"/><path d="M232.48432,295.15588h30.63375a0,0,0,0,1,0,0v4.5684a0,0,0,0,1,0,0H232.48432a2.02617,2.02617,0,0,1-2.02617-2.02617v-.51605a2.02617,2.02617,0,0,1,2.02617-2.02617Z" fill="#fff"/><path d="M264.07413,299.84121a.42742.42742,0,0,1-.43976.41392H231.90459a2.87246,2.87246,0,0,1,0-5.58379h31.72978a.42742.42742,0,0,1,.43976.41392v.3258a.42742.42742,0,0,1-.43976.41392H231.90459a1.68551,1.68551,0,0,0,0,3.27651h31.72978a.42742.42742,0,0,1,.43976.41392Z" fill="#f65b2b"/><path d="M339.7357,222.65618s-.67432-7.4292,6.66968-2.36573c0,0,4.18017-11.29516,17.26965,3.719,0,0,19.21338.61963,11.97107,16.75976a24.54848,24.54848,0,0,0,4.14917,6.47779c5.2561,6.07617,8.45959,5.373,12.96008,12.24,3.53321,5.39111,3.89,9.38134,3.96,10.43994a17.94326,17.94326,0,0,1-2.16,10.08008c-2.8617,5.05688-8.73755,9.19409-15.12,9-7.32348-.22266-11.02322-6.76853-15.48-10.8-9.54412-8.6335-9.89209-26.54419-10.93078-29.61475,0,0,4.80985-2.97648.85335-5.99927a3.76,3.76,0,0,0-3.11047-.72215,1.50667,1.50667,0,0,0-1.36507,1.45384l-5.50159-10.36425s-4.98548,1.47338-5.04785-4.52271C338.85289,228.43767,333.50108,225.66472,339.7357,222.65618Z" fill="#160b07"/><path d="M398.10575,354.29112s6.27057-18.81173,1.36317-57.25309c0,0-1.90844-12.9501-14.72223-13.90432S362.527,302.94988,358.71017,324.1902s-12.26852,40.22574-39.94084,40.75232c0,0-36.56513,6.25189,41.2879,9.79613C360.05723,374.73865,393.33466,375.01128,398.10575,354.29112Z" fill="#935b50"/><path d="M352.93181,253.68693c3.86071,0,3.86711-6,0-6-3.86072,0-3.86711,6,0,6Z" fill="#f73c4f"/><rect x="112.47573" y="433.50514" width="475.04854" height="1.82035" fill="#935b50"/></svg>