<svg id="Layer_1" data-name="Layer 1" xmlns="http://www.w3.org/2000/svg" xmlns:xlink="http://www.w3.org/1999/xlink" viewBox="0 0 700 550"><defs><clipPath id="clip-path"><rect x="392.35303" y="175.63622" width="97.04645" height="89.77618" rx="5.53835" transform="translate(881.7525 441.04861) rotate(-180)" fill="none"/></clipPath></defs><title>watching news on tv</title><path d="M254.44524,140.78756c-53.63614,41.86785-85.62963,218.11205,14.94063,219.3635,52.93813.65863,147.0964,35.4502,209.1743,67.7459,60.36229,31.40285,46.947-140.07995-14.94065-219.36306S308.08139,98.91972,254.44524,140.78756Z" fill="#ffe3cb"/><path d="M505.17258,445.32578c-4.55371,0-9.55469-1.38867-14.916-4.17871l.46094-.88672c12.43848,6.47168,22.43555,5.31836,29.707-3.42382,13.2832-15.96875,16.08984-56.05762,7.32324-104.62012-9.20507-50.99316-29.4082-100.2793-54.04492-131.83984-67.61133-86.61622-170.22949-119.917-228.75586-74.2295l-.61523-.78906c58.96-46.02539,162.209-12.64746,230.16015,74.40332,24.73047,31.68262,45.00782,81.13184,54.24024,132.27734,8.81738,48.84571,5.92871,89.24708-7.53809,105.43653C516.84738,442.69981,511.43234,445.32578,505.17258,445.32578Z" fill="#ffe3cb"/><rect x="421.66122" y="142.04403" width="39.49358" height="1.39929" transform="translate(65.11338 414.07214) rotate(-53.71392)" fill="#4f66d0"/><rect x="406.17758" y="134.77857" width="1.39884" height="24.3677" transform="translate(-14.72475 243.90989) rotate(-32.80959)" fill="#4f66d0"/><ellipse cx="454.34804" cy="125.28646" rx="2.49631" ry="2.58149" fill="#ffba55"/><ellipse cx="399.7044" cy="135.43464" rx="2.49631" ry="2.58149" fill="#ffba55"/><rect x="341.84926" y="168.46778" width="154.15201" height="103.43035" rx="8.39187" transform="translate(837.85053 440.3659) rotate(-180)" fill="#4f66d0"/><rect x="392.35303" y="175.63622" width="97.04645" height="89.77618" rx="5.53835" transform="translate(881.7525 441.04861) rotate(-180)" fill="#a2aee6"/><rect x="346.80061" y="175.63622" width="39.61079" height="89.77618" rx="5.59458" fill="#ffba55"/><rect x="462.00201" y="271.89812" width="17.49477" height="6.82709" transform="translate(941.49878 550.62333) rotate(-180)" fill="#4f66d0"/><rect x="358.84889" y="271.89812" width="17.49477" height="6.82709" transform="translate(735.19256 550.62333) rotate(-180)" fill="#4f66d0"/><path d="M402.58581,157.20309h32.67891a0,0,0,0,1,0,0v.18743a11.07726,11.07726,0,0,1-11.07726,11.07726H413.66307a11.07726,11.07726,0,0,1-11.07726-11.07726v-.18743A0,0,0,0,1,402.58581,157.20309Z" transform="translate(837.85053 325.67086) rotate(-180)" fill="#a2aee6"/><ellipse cx="366.60601" cy="200.68309" rx="10.02648" ry="10.36864" fill="#4f66d0"/><ellipse cx="366.60601" cy="229.12928" rx="10.02648" ry="10.36864" fill="#4f66d0"/><ellipse cx="377.60901" cy="250.18657" rx="2.88141" ry="2.97974" fill="#d5daf3"/><ellipse cx="366.60601" cy="250.18657" rx="2.88141" ry="2.97974" fill="#d5daf3"/><ellipse cx="355.60301" cy="250.18657" rx="2.88141" ry="2.97974" fill="#d5daf3"/><rect x="399.7044" y="183.34546" width="81.58677" height="6.96899" fill="#ffba55"/><rect x="399.7044" y="194.73829" width="21.8439" height="12.22645" fill="#f73c4f"/><rect x="399.7044" y="212.75377" width="21.8439" height="12.22645" fill="#f73c4f"/><rect x="399.7044" y="230.76926" width="21.8439" height="12.22645" fill="#f73c4f"/><g clip-path="url(#clip-path)"><path d="M466.40941,309.22908l.18532,5.37546s14.78839,4.1508,15.08145,2.38958c0,0,1.13659-.01928-6.5457-4.34372a7.43151,7.43151,0,0,1-3.17584-3.95777Z" fill="#f9977a"/><path d="M466.46149,310.73976v7.88316h4.7792l.00391-2.20978s11.26329,4.53567,10.46532.31c0,0-.7886.741-3.88838.226l1.313-2.45881-2.96142-1.29526-1.91658,2.82139-5.26067-1.13371a2.99611,2.99611,0,0,1-2.343-2.5676Z" fill="#376f92"/><path d="M467.19014,310.953c-.41617,0-.6934-.014-.73943-.01655a.19756.19756,0,0,1-.18581-.20787.20963.20963,0,0,1,.20745-.18581c.04879.003,4.851.24818,5.85323-1.42581a.19691.19691,0,0,1,.3381.20193C471.79,310.77863,468.644,310.953,467.19014,310.953Z" fill="#376f92"/><path d="M465.81643,196.18277c2.69731.01024,4.71926,4.41769,5.367,5.82969a18.51542,18.51542,0,0,1,1.42926,8.58051c-.04288,2.03758-.2761,2.43025-1.14821,7.56-1.53807,9.04694-1.24078,10.34351-.67079,11.42422,1.1034,2.09206,2.2094,1.44234,5.10075,4.7501,1.95508,2.23666,3.77348,4.3169,3.815,7.252.03278,2.31813-1.038,5.50963-3.29,6.52016-4.23044,1.89832-10.76608-4.73605-13.45865-8.133-6.80812-8.589-6.64367-18.68066-6.595-21.66617a34.89046,34.89046,0,0,1,3.01777-13.62412C460.83847,201.19068,462.93329,196.17181,465.81643,196.18277Z" fill="#160b07"/><path d="M465.5205,210.51685c-1.83084,2.11192-9.97613.82823-7.07148-.86842-.83435-.09077-1.50943-.1292-2.14383-.26315-4.21436-.88975-8.82959-6.46974-7.712-11.03812.97405-3.98157,5.95-5.75241,7.16056-6.18331a9.575,9.575,0,0,1,9.268,1.18426,10.91425,10.91425,0,0,1,3.59453,4.60505C469.42125,199.75245,469.69456,205.702,465.5205,210.51685Z" fill="#160b07"/><path d="M467.34849,237.19875s2.37249,20.45026,4.73612,71.85905l-5.6752.17128-5.85633-21.31094-3.93937-33.87859-5.71209,30.92406-2.95453,24.62106-5.51512-.78787-1.57575-30.72709s2.5606-34.86342,7.09087-42.93913Z" fill="#ffba55"/><path d="M453.65067,209.27082s.90338,4.46189-1.75118,5.10425S440.961,224.9573,440.961,224.9573l-4.3586,5.38443-8.61992-11.87633-3.06486,2.4902,7.72289,15.76757a3.02492,3.02492,0,0,0,4.37268,1.20178c2.90319-1.89921,7.1642-4.97095,8.78379-7.58322l1.724-1.14932v5.93817l18.868,2.01131,3.74679-13.2969a13.09506,13.09506,0,0,0-5.81141-11.0711s-2.18787-.84047-3.56706-4.3574C460.75731,208.41649,454.61227,209.50452,453.65067,209.27082Z" fill="#f9977a"/><path d="M476.48,230.55244l-6.34426-6.70745-5.81141-11.0711s4.91494-.97839,10.56961,5.77963a119.77022,119.77022,0,0,1,9.8382,13.79186s1.83891,2.3906-.73557,3.31-14.52743,1.28724-14.52743,1.28724l-1.26426-3.70081Z" fill="#f9977a"/><path d="M464.665,212.23991,457.57752,223.35l-5.93816-9.38613s-9.57769,5.3635-10.91857,10.727l5.26773,5.84239,1.53243-1.34088-1.53243,7.8537s-11.68478,39.46007-12.25944,51.91106c0,0,6.70438,3.63952,39.84318,3.25642,0,0,2.10709-25.09354-7.08749-54.97592l3.06486-9.9608,4.21418.38311,5.74661-4.78884S472.806,213.29345,464.665,212.23991Z" fill="#376f92"/><path d="M436.60239,230.34172c-.0528.429-.16336.83755-.2542,1.25085l-.15419.6138a4.99329,4.99329,0,0,0-.12413.62172,1.85,1.85,0,0,1-.021-.64712c.02311-.2145.07016-.42417.1135-.63395A5.79793,5.79793,0,0,1,436.60239,230.34172Z" fill="#dd765e"/><path d="M480.27281,230.34172a15.5996,15.5996,0,0,0-1.90486-.02262,9.10245,9.10245,0,0,0-.94454.08029c-.31568.03327-.62544.09932-.94337.15306a5.27019,5.27019,0,0,1,1.87865-.42446A5.80513,5.80513,0,0,1,480.27281,230.34172Z" fill="#dd765e"/><path d="M469.46918,236.94267s.80452,6.64309-1.47114,7.88436-1.58606-3.24109-2.2067-5.99947c0,0-.93413,2.5342-1.467,2.16357s.63946-5.88737,1.57041-6.64592c0,0,.44824-.72408,2.31014-1.10335Z" fill="#f9977a"/><path d="M468.96347,240.99978a15.2753,15.2753,0,0,1-.20636,1.82965c-.05942.30088-.11166.60314-.18213.90219a4.5107,4.5107,0,0,1-.27232.88234c.06048-.29911.0809-.60691.12743-.90909l.13845-.90784C468.68316,242.19543,468.78805,241.5921,468.96347,240.99978Z" fill="#dd765e"/><path d="M468.03252,240.6205a16.27775,16.27775,0,0,1-.10053,2.24369c-.05.3713-.09651.74367-.17547,1.11168a2.9743,2.9743,0,0,1-.37579,1.06019,1.96964,1.96964,0,0,0,.147-.53471q.05178-.27267.08356-.55032c.04806-.36836.09571-.7376.1306-1.10855C467.83718,242.10324,467.90471,241.36058,468.03252,240.6205Z" fill="#dd765e"/><path d="M467.06709,240.24122a11.33807,11.33807,0,0,1,.04116,2.13,9.60736,9.60736,0,0,1-.15107,1.05961,2.38393,2.38393,0,0,1-.41313.985,3.31676,3.31676,0,0,0,.26815-1.01133c.04479-.34778.08394-.69673.10529-1.04809C466.98007,241.65476,467.002,240.94988,467.06709,240.24122Z" fill="#dd765e"/><path d="M465.79134,238.82757a2.94134,2.94134,0,0,1-.0683-.7089,5.42575,5.42575,0,0,1,.0683-.70477,1.64933,1.64933,0,0,1,.123.70806A2.24212,2.24212,0,0,1,465.79134,238.82757Z" fill="#dd765e"/><path d="M427.98247,218.4654a29.905,29.905,0,0,0-2.05425-3.10836c-.1641-.192-.32388-.3865-.47822-.58647-.40662-.52683-1.16069-1.43354-1.55146-1.458-.55167-.03448,1.01907,2.57639,1.01907,2.57639l-4.77926-2.371a.978.978,0,0,0-.37275-.10443c-.22264-.01373-.45573.049.02986.51967.38675.37484,2.27566,1.62055,2.27566,1.62055l-2.79285-1.06887s-1.51711-.37928-.44824.48271a10.4082,10.4082,0,0,0,2.65494,1.41367l-2.48254-.49246s-1.37919-.404-.1724.458a6.47394,6.47394,0,0,0,2.24118,1.06887s.44824.44823-1.99982-.44824c0,0-1.70674-.431.48272.793a51.52326,51.52326,0,0,1,5.3635,3.19512Z" fill="#f9977a"/><path d="M424.62262,216.17443a2.903,2.903,0,0,0-.17748.47391,3.075,3.075,0,0,0-.10142.48385,8.38554,8.38554,0,0,0-.0659,1.00756,1.88645,1.88645,0,0,1-.1289-.50724,2.42661,2.42661,0,0,1,.00551-.52819A1.52748,1.52748,0,0,1,424.62262,216.17443Z" fill="#dd765e"/><path d="M423.89854,216.17443a3.30294,3.30294,0,0,1-.92238.72409,2.73707,2.73707,0,0,1-.5536.21633,1.20913,1.20913,0,0,1-.5928.01909,2.274,2.274,0,0,0,.54723-.15919,4.11166,4.11166,0,0,0,.50985-.24544C423.22823,216.56156,423.54716,216.35173,423.89854,216.17443Z" fill="#dd765e"/><path d="M447.915,309.22908l-.18532,5.37546s-14.78839,4.1508-15.08144,2.38958c0,0-1.13659-.01928,6.5457-4.34372a7.43151,7.43151,0,0,0,3.17584-3.95777Z" fill="#f9977a"/><path d="M447.86294,310.73976l-.05483,7.88316h-4.63918l-.22652-.9209s-12.06173,2.04616-10.3279-.97889c0,0,.78861.741,3.88839.226l-1.313-2.45881,2.96141-1.29526,1.91659,2.82139L445.253,314.899a3.10461,3.10461,0,0,0,2.4279-2.66059Z" fill="#376f92"/><path d="M447.13433,310.953c-1.45382,0-4.59986-.17436-5.47355-1.63411a.19691.19691,0,0,1,.33811-.20193c1.00286,1.67441,5.80444,1.42878,5.85322,1.42581a.201.201,0,0,1,.20745.18581.19741.19741,0,0,1-.18581.20787C447.82772,310.939,447.55028,310.953,447.13433,310.953Z" fill="#376f92"/><path d="M461.21361,209.43281c-2.204,2.34747-5.02955,3.36384-7.2821,2.327-.05825-.0268-.114-.0572-.17068-.08633a9.07554,9.07554,0,0,0-.11018-2.40266c.96161.23369,7.10666-.85432,7.10666-.85432C460.90159,208.7844,461.05505,209.1214,461.21361,209.43281Z" fill="#dd765e"/><path d="M451.58838,200.67368c.77945-5.01527,4.18974-8.64912,7.61709-8.11646,2.64532.41113,4.52607,3.185,4.889,6.735a.96945.96945,0,0,1,.80845-.15609c.75022.23966.97137,1.64537.494,3.13971-.40306,1.26168-1.17488,2.1798-1.85707,2.29191-1.25063,3.96194-4.19667,6.61138-7.15695,6.15132C452.95546,210.18639,450.80891,205.68893,451.58838,200.67368Z" fill="#f9977a"/><path d="M455.65849,200.08168a2.82548,2.82548,0,0,1,.09351,1.79591,6.53176,6.53176,0,0,1-.66,1.69677c-.15281.26786-.39862.48568-.34848.72235a1.02714,1.02714,0,0,0,.47006.62986,2.2165,2.2165,0,0,0,1.69289.1467,2.06486,2.06486,0,0,1-1.79018.01026,1.14441,1.14441,0,0,1-.589-.75578.69911.69911,0,0,1,.11993-.50068l.24036-.37808a7.17453,7.17453,0,0,0,.688-1.62278A3.22012,3.22012,0,0,0,455.65849,200.08168Z" fill="#dd765e"/><path d="M461.01959,201.06763a.24.24,0,0,0,.10916-.39456,4.02749,4.02749,0,0,0-3.50183-1.22391.24.24,0,1,0,.105.4684,3.59427,3.59427,0,0,1,3.046,1.08313A.24007.24007,0,0,0,461.01959,201.06763Z" fill="#160b07"/><path d="M454.64067,199.58866a.24009.24009,0,0,0,.00862-.4592,4.63206,4.63206,0,0,0-2.90083.08946.24.24,0,0,0,.18063.4448,4.18983,4.18983,0,0,1,2.57136-.07763A.2402.2402,0,0,0,454.64067,199.58866Z" fill="#160b07"/><path d="M460.562,202.13987a4.35335,4.35335,0,0,0-1.627-.73211,2.10919,2.10919,0,0,0-.86308.02429,2.88671,2.88671,0,0,0-.8225.36179,1.86614,1.86614,0,0,1,.76876-.53851,1.82169,1.82169,0,0,1,.95736-.08408,2.5149,2.5149,0,0,1,.88571.35019A2.67583,2.67583,0,0,1,460.562,202.13987Z" fill="#160b07"/><circle cx="458.38031" cy="201.80155" r="0.53836" fill="#160b07"/><circle cx="453.23288" cy="201.4006" r="0.53836" fill="#160b07"/><path d="M455.05,201.8688a4.35319,4.35319,0,0,0-1.627-.7321,2.10932,2.10932,0,0,0-.86307.02428,2.88647,2.88647,0,0,0-.8225.3618,1.86619,1.86619,0,0,1,.76875-.53852,1.82112,1.82112,0,0,1,.95737-.08407,2.51457,2.51457,0,0,1,.8857.35018A2.67587,2.67587,0,0,1,455.05,201.8688Z" fill="#160b07"/><path d="M465.06979,200.85042a2.34827,2.34827,0,0,0-.40269-.45962.3428.3428,0,0,0-.44335-.03753,1.611,1.611,0,0,0-.38349.42447c-.1215.1654-.21816.35059-.34917.52429a2.40657,2.40657,0,0,1,.18914-.61638,1.24,1.24,0,0,1,.41508-.53506.50332.50332,0,0,1,.3791-.0847.55952.55952,0,0,1,.31836.19079A1.21062,1.21062,0,0,1,465.06979,200.85042Z" fill="#dd765e"/><path d="M464.26606,202.51861a1.18741,1.18741,0,0,1-.27486-.55205,2.06136,2.06136,0,0,1-.05071-.61778,2.62218,2.62218,0,0,1,.10889-.60466l.10289-.28774c.04787-.09134.08758-.18437.14183-.27174-.03333.40832-.09545.79185-.11408,1.17791a5.085,5.085,0,0,0-.007.57654A2.53236,2.53236,0,0,0,464.26606,202.51861Z" fill="#dd765e"/><circle cx="464.60167" cy="203.83477" r="1.06859" fill="#ffcb33"/><path d="M458.55126,206.895s-2.90747,2.01549-4.70386.016" fill="#dd2f22"/><path d="M456.58338,193.49469c.75494.14422,1.19466.69743,2.07411,1.80382,1.6988,2.1372,2.78586,5.13435,3.91537,5.62193a.68215.68215,0,0,0,.40761.06318c.429-.08331.577-.65089,1.02049-1.46052.33516-.61186.48827-.72152.68427-1.06469a4.81467,4.81467,0,0,0,.01449-4.3489,5.10106,5.10106,0,0,0-2.91716-2.34176,7.44962,7.44962,0,0,0-5.5597.36183,9.04856,9.04856,0,0,0-4.91313,5.45052C451.46958,197.6998,454.06722,193.014,456.58338,193.49469Z" fill="#160b07"/><path d="M451.63936,213.96389s7.68658,17.45541,7.26635,30.45192,2.3079,27.68464,2.3079,27.68464-1.88106,1.86168-4.78713,0a4.34154,4.34154,0,0,0-5.12566,0s-2.934.62085-3.77067-1.24106,1.38242-22.55406.89349-27.41351.36644-22.16869-2.75066-25.30612C445.673,218.13976,447.06888,212.92545,451.63936,213.96389Z" fill="#ffba55"/></g><rect x="399.7044" y="253.76147" width="81.58677" height="6.96899" fill="#f73c4f"/><rect x="317.0558" y="278.72521" width="204.72822" height="166.60058" fill="#d6694b"/><rect x="338.33346" y="298.94373" width="162.17289" height="126.16353" rx="5.03711" fill="#935b50"/><path d="M491.5825,380.64051H347.25681a3.27352,3.27352,0,0,1-3.21337-3.323v-30.584a3.27351,3.27351,0,0,1,3.21337-3.323H491.5825a3.2736,3.2736,0,0,1,3.21388,3.323v30.584A3.27361,3.27361,0,0,1,491.5825,380.64051ZM347.25681,344.489a2.21094,2.21094,0,0,0-2.17042,2.24449v30.584a2.21093,2.21093,0,0,0,2.17042,2.24449H491.5825a2.211,2.211,0,0,0,2.17093-2.24449v-30.584a2.211,2.211,0,0,0-2.17093-2.24449Z" fill="#e19974"/><path d="M491.5825,420.60478H347.25681a3.27351,3.27351,0,0,1-3.21337-3.323v-30.584a3.27352,3.27352,0,0,1,3.21337-3.323H491.5825a3.27361,3.27361,0,0,1,3.21388,3.323v30.584A3.27361,3.27361,0,0,1,491.5825,420.60478ZM347.25681,384.4533a2.21093,2.21093,0,0,0-2.17042,2.24449v30.584a2.21094,2.21094,0,0,0,2.17042,2.2445H491.5825a2.211,2.211,0,0,0,2.17093-2.2445v-30.584a2.211,2.211,0,0,0-2.17093-2.24449Z" fill="#e19974"/><path d="M371.57553,357.17a1.79122,1.79122,0,0,0,.19572-.80384,1.70447,1.70447,0,1,0-3.407,0,1.79,1.79,0,0,0,.19573.80355,7.28714,7.28714,0,1,0,3.01557.00029Zm-1.508,12.34457a4.98115,4.98115,0,1,1,4.81465-4.97895A4.90455,4.90455,0,0,1,370.06753,369.5146Z" fill="#e19974"/><path d="M471.25322,357.16974a1.79,1.79,0,0,0,.19573-.80355,1.7044,1.7044,0,1,0-3.40689,0,1.79,1.79,0,0,0,.19573.80355,7.28669,7.28669,0,1,0,3.01543,0ZM469.7455,369.5146a4.98115,4.98115,0,1,1,4.81465-4.97895A4.90456,4.90456,0,0,1,469.7455,369.5146Z" fill="#e19974"/><path d="M491.5825,340.67623H347.25681a3.27352,3.27352,0,0,1-3.21337-3.323v-30.584a3.27352,3.27352,0,0,1,3.21337-3.323H491.5825a3.27361,3.27361,0,0,1,3.21388,3.323v30.584A3.27361,3.27361,0,0,1,491.5825,340.67623ZM347.25681,304.52475a2.21093,2.21093,0,0,0-2.17042,2.24449v30.584a2.21093,2.21093,0,0,0,2.17042,2.24449H491.5825a2.211,2.211,0,0,0,2.17093-2.24449v-30.584a2.211,2.211,0,0,0-2.17093-2.24449Z" fill="#e19974"/><path d="M371.57553,317.20575a1.79121,1.79121,0,0,0,.19572-.80383,1.70447,1.70447,0,1,0-3.407,0,1.79,1.79,0,0,0,.19573.80354,7.28714,7.28714,0,1,0,3.01557.00029Zm-1.508,12.34457a4.98115,4.98115,0,1,1,4.81465-4.97894A4.90454,4.90454,0,0,1,370.06753,329.55032Z" fill="#e19974"/><path d="M471.25322,317.20546a1.79,1.79,0,0,0,.19573-.80354,1.7044,1.7044,0,1,0-3.40689,0,1.79,1.79,0,0,0,.19573.80354,7.28669,7.28669,0,1,0,3.01543,0Zm-1.50772,12.34486a4.98115,4.98115,0,1,1,4.81465-4.97894A4.90455,4.90455,0,0,1,469.7455,329.55032Z" fill="#e19974"/><path d="M371.57581,394.52076a1.79012,1.79012,0,0,0,.19544-.803,1.70447,1.70447,0,1,0-3.407,0,1.79186,1.79186,0,0,0,.19531.803,7.28658,7.28658,0,1,0,3.01627,0Zm-1.50828,12.34573a4.98175,4.98175,0,1,1,4.81465-4.97895A4.90455,4.90455,0,0,1,370.06753,406.86649Z" fill="#e19974"/><path d="M471.25364,394.52076a1.79,1.79,0,0,0,.19531-.803,1.7044,1.7044,0,1,0-3.40689,0,1.79012,1.79012,0,0,0,.19545.803,7.28665,7.28665,0,1,0,3.01613,0Zm-1.50814,12.34573a4.98175,4.98175,0,1,1,4.81465-4.97895A4.90456,4.90456,0,0,1,469.7455,406.86649Z" fill="#e19974"/><path d="M230.61708,269.55833l20.47563-10.1057a1,1,0,0,1,1.33191.43947l1.08282,2.106a1,1,0,0,1-.4514,1.35627l-20.459,9.96608Z" fill="#4f66d0"/><path d="M221.60315,274.24478s8.87954-12.01261,11.02933-11.30813-.87856,7.03986-.87856,7.03986l4.51456,1.47941,13.58381-6.53844a1.48019,1.48019,0,0,1,2.01713.786h0a1.478,1.478,0,0,1-.215,1.46718c-2.3188,2.92514-15.6214,16.78169-26.83621,16.56067Z" fill="#f9977a"/><path d="M252.97139,408.10694l4.234,12.50653s15.69648,12.68544,35.90367,16.22721c0,0,6.15928,2.89076,6.12186,7.37285l-60.95613-.50894.1941-23.24755-1.78141-11.94438Z" fill="#f9977a"/><path d="M298.25945,441.17039l-59.302-.49513a1.51485,1.51485,0,0,0-1.52745,1.50216l0,.00521a1.51486,1.51486,0,0,0,1.50215,1.52746l61.136.51061S301.82905,442.39537,298.25945,441.17039Z" fill="#f73c4f"/><path d="M280.65408,441.78264s-.55-3.13233,2.59964-7.43489a6.3558,6.3558,0,0,0-5.35511-1.9672,19.18068,19.18068,0,0,0-1.76289,3.77892c-.77,2.10291-1.3173,4.6327-.42612,6.34026Z" fill="#f73c4f"/><path d="M265.918,426.44543s-5.12108,7.96941-2.09553,15.279l-5.80236-.04844s-3.13785-11.53516,3.16472-18.19783C261.18483,423.47815,265.07,423.61163,265.918,426.44543Z" fill="#f73c4f"/><path d="M265.68985,367.51652l4.393,12.45156s15.85685,12.48442,36.10753,15.76842c0,0,6.19561,2.812,6.2153,7.29425l-60.95767.26779-.10213-23.24815-1.93345-11.9207Z" fill="#f9977a"/><path d="M311.39552,400.00023l-59.30352.26052a1.51487,1.51487,0,0,0-1.50819,1.5215l0,.00522a1.51486,1.51486,0,0,0,1.52149,1.50819l61.1375-.26841S314.98044,401.17963,311.39552,400.00023Z" fill="#f73c4f"/><path d="M293.79938,400.83675s-.58985-3.12506,2.5047-7.4674a6.35581,6.35581,0,0,0-5.37974-1.89882,19.181,19.181,0,0,0-1.7146,3.80109c-.74317,2.11254-1.25817,4.64911-.3453,6.34516Z" fill="#f73c4f"/><path d="M278.86908,385.68856s-5.01912,8.034-1.90068,15.30445l-5.80251.02549s-3.28457-11.49425,2.9326-18.23668C274.09849,382.78182,277.985,382.86579,278.86908,385.68856Z" fill="#f73c4f"/><path d="M192.42138,317.30991l40.24183-14.00264a20.293,20.293,0,0,1,25.70671,12.12531c5.32014,14.3745,12.21587,35.65808,16.22121,58.462a2.48152,2.48152,0,0,1-1.75943,2.8063l-12.70214,3.65668-1.25618,32.24173a2.47363,2.47363,0,0,1-2.47176,2.37734H238.184a2.47363,2.47363,0,0,1-2.44233-2.0813l-8.65762-53.89369L207.077,360.80006s-104.9812,21.35592-88.34607-55.52539l44.95984,2.25207,5.24762,4.866A23.28337,23.28337,0,0,0,192.42138,317.30991Z" fill="#6c7fd8"/><path d="M183.92714,363.37708c10.744-5.19126,21.56261-10.2181,32.37757-15.2528l16.27011-7.44718q8.12565-3.74421,16.29821-7.385l-.07689.04212a4.5059,4.5059,0,0,1,3.6592-.35917,6.34292,6.34292,0,0,1,2.85369,2.10645,18.37594,18.37594,0,0,1,2.92205,6.05456,62.24023,62.24023,0,0,1,2.10514,13.00956,190.26357,190.26357,0,0,1-.20666,26.2119c.05088-4.36706.14289-8.731.03592-13.09213-.104-4.35907-.24966-8.71738-.67222-13.04776a67.42571,67.42571,0,0,0-2.28808-12.76587,17.36709,17.36709,0,0,0-2.762-5.65824,5.23046,5.23046,0,0,0-2.34119-1.72961,3.39255,3.39255,0,0,0-2.66915.25017l-.05812.03336-.01921.00891q-8.12777,3.73968-16.29536,7.39133l-16.32345,7.32942C205.82262,353.89334,194.91216,358.71742,183.92714,363.37708Z" fill="#4f66d0"/><path d="M273.21962,366.6802a33.73656,33.73656,0,0,1-6.19587,2.92356,33.34934,33.34934,0,0,1-6.62035,1.76268,33.339,33.339,0,0,1,6.19587-2.92356A33.72624,33.72624,0,0,1,273.21962,366.6802Z" fill="#4f66d0"/><path d="M234.634,405.99965a107.72235,107.72235,0,0,1,12.24828-.618,106.48227,106.48227,0,0,1,12.24827.618,106.45093,106.45093,0,0,1-12.24827.61811A107.75715,107.75715,0,0,1,234.634,405.99965Z" fill="#4f66d0"/><path d="M227.08408,359.00171a10.04424,10.04424,0,0,1-2.1573-3.01686,9.93,9.93,0,0,1-1.04609-3.55812,9.92825,9.92825,0,0,1,2.1573,3.01671A10.044,10.044,0,0,1,227.08408,359.00171Z" fill="#4f66d0"/><path d="M139.862,236.93573l-1.20125-43.37539,32.38756,1.77681-1.42063,25.89511a10.29219,10.29219,0,0,1-10.84054,9.713l-.73831-.0405-.2413,7.40418Z" fill="#f9977a"/><polygon points="158.167 230.905 152.989 230.621 157.926 238.309 158.167 230.905" fill="#dd765e"/><path d="M168.93787,311.96871c-3.78466-4.08151-3.65832-6.97622-3.69592-11.54333l-1.65926-6.01621c5.726,13.05274,19.63678,10.38131,19.63678,10.38131,6.96874-.22495,43.65989-21.09481,43.65989-21.09481l-3.9636-11.30714-37.64434,9.11375s-6.57543-11.63353-13.15087-24.61561c-6.57528-12.98237-14.3131-18.57765-14.3131-18.57765l-20.06631-3.01173c-35.968,3.1473-19.01037,69.97753-19.01037,69.97753C102.09561,382.156,207.077,360.80005,207.077,360.80005a44.34765,44.34765,0,0,0,1.5569-22.52787c-1.41286-7.285-5.3367-20.79329-7.46747-24.00522-5.71414,0-12.80988,7.02865-22.58137,2.82218C171.9092,314.21529,171.06549,314.2632,168.93787,311.96871Z" fill="#f73c4f"/><rect x="145.99469" y="359.16592" width="6.1841" height="84.67504" fill="#c38f86"/><path d="M185.27143,281.5021a3.83209,3.83209,0,0,1-.16361,2.07823,3.7685,3.7685,0,0,1-1.18068,1.71769,3.25825,3.25825,0,0,1,1.34429-3.79592Z" fill="#b02336"/><path d="M166.38831,299.43a75.87137,75.87137,0,0,1-5.54837-8.66242,74.97294,74.97294,0,0,1-4.46932-9.26543,74.98324,74.98324,0,0,1,5.54837,8.66242A75.86106,75.86106,0,0,1,166.38831,299.43Z" fill="#b02336"/><path d="M176.19976,182.59265s.834-9.18858-8.24919-2.926c0,0-5.17012-13.97009-21.35945,4.59972,0,0-23.76348.76637-14.806,20.72881a30.36216,30.36216,0,0,1-5.13177,8.01185c-6.50085,7.51513-10.463,6.64549-16.02929,15.13866-4.36993,6.66783-4.81124,11.603-4.89775,12.91232a22.19253,22.19253,0,0,0,2.67157,12.46724c3.5394,6.25445,10.80677,11.37143,18.7007,11.13137,9.05784-.27538,13.63375-8.37144,19.146-13.35771,11.80436-10.67808,12.23473-32.83037,13.51941-36.62809,0,0-5.94893-3.68138-1.05544-7.42a4.65053,4.65053,0,0,1,3.84708-.89318,1.86353,1.86353,0,0,1,1.68836,1.79815l6.80447-12.81872s6.16613,1.82232,6.24328-5.59377C177.29164,189.74331,183.91086,186.31368,176.19976,182.59265Z" fill="#160b07"/><path d="M104.00654,345.40132s-7.75557-23.26671-1.686-70.81173c0,0,2.36039-16.01694,18.20873-17.19714s27.4817,24.509,32.20248,50.77947,15.17394,49.752,49.39961,50.40326c0,0,45.22448,7.73246-51.06568,12.11605C151.06569,370.69123,109.90752,371.02842,104.00654,345.40132Z" fill="#ffba55"/><path d="M159.87855,220.97209c4.775,0,4.78292-7.42092,0-7.42092-4.775,0-4.78291,7.42092,0,7.42092Z" fill="#f73c4f"/><polygon points="122.371 443.841 175.802 443.841 149.087 418.31 122.371 443.841" fill="#c38f86"/><path d="M247.44708,263.31833a1.5009,1.5009,0,0,0,0-3,1.5009,1.5009,0,0,0,0,3Z" fill="#4f66d0"/><path d="M241.64208,265.97333a1.5009,1.5009,0,0,0,0-3,1.5009,1.5009,0,0,0,0,3Z" fill="#4f66d0"/><path d="M599.9998,446.3257h-500a1,1,0,1,1,0-2h500a1,1,0,0,1,0,2Z" fill="#935b50"/><path d="M554.90178,418.08107a116.95978,116.95978,0,0,1-1.61371-16.68115,123.00927,123.00927,0,0,1,.66083-16.76709,89.47242,89.47242,0,0,1,3.42835-16.4292,72.51786,72.51786,0,0,1,3.06018-7.8208,59.71513,59.71513,0,0,1,4.18762-7.26172,62.89243,62.89243,0,0,0-6.77448,15.2295c-.76941,2.67431-1.46325,5.3706-2.0028,8.102q-.78919,4.10009-1.25953,8.25293a131.462,131.462,0,0,0-.80694,16.68457q.03873,4.18139.323,8.35791C554.281,412.53176,554.51732,415.315,554.90178,418.08107Z" fill="#50661a"/><path d="M554.9018,376.24457s-29.38216,3.70052-42.16928-8.90756c-9.4892-9.35633-.46339-25.45988,12.5413-22.55062C533.98016,346.73407,544.7187,354.47285,554.9018,376.24457Z" fill="#5e7c24"/><path d="M554.90178,376.24465c-4.12451-1.25537-8.18408-2.72559-12.18036-4.353q-5.99148-2.44774-11.74847-5.44189-2.863-1.51758-5.61829-3.2334a56.55826,56.55826,0,0,1-5.33569-3.689,39.86492,39.86492,0,0,1-4.80048-4.36621,19.32343,19.32343,0,0,1-3.52765-5.41064,19.15834,19.15834,0,0,0,3.75782,5.19482,39.97226,39.97226,0,0,0,4.8706,4.188,82.216,82.216,0,0,0,10.95471,6.74756c3.78479,2.03662,7.69758,3.83154,11.63886,5.55615q2.95779,1.292,5.96033,2.48193C550.867,374.732,552.87365,375.51613,554.90178,376.24465Z" fill="#50661a"/><path d="M523.041,361.38723l.02875-4.33448c-.00806-1.44091.00037-2.87939-.0816-4.313a37.6748,37.6748,0,0,0-.38086-4.27442l-.19934-1.0498c-.07087-.34961-.19373-.68164-.28559-1.02637a7.57663,7.57663,0,0,0-.38745-.99268,8.68637,8.68637,0,0,0-.57709-.90625,7.29845,7.29845,0,0,1,1.936,3.88037,29.11581,29.11581,0,0,1,.53729,4.3418c.029,1.45508.03,2.9082-.0683,4.35645A36.45514,36.45514,0,0,1,523.041,361.38723Z" fill="#50661a"/><path d="M509.21306,361.38723c1.72711-.3003,3.4306-.54834,5.09577-.93164a15.37969,15.37969,0,0,0,2.41644-.76075,3.49357,3.49357,0,0,0,1.888-1.5913,3.03042,3.03042,0,0,1-1.65839,2.03857,9.86328,9.86328,0,0,1-2.4992.94043A15.88663,15.88663,0,0,1,509.21306,361.38723Z" fill="#50661a"/><path d="M514.525,368.91555a48.91116,48.91116,0,0,0,6.82074-1.3711,12.78408,12.78408,0,0,0,3.12921-1.34228,4.472,4.472,0,0,0,2.08179-2.59326,4.05091,4.05091,0,0,1-1.79468,3.00586,10.42531,10.42531,0,0,1-3.22992,1.54638A20.25288,20.25288,0,0,1,514.525,368.91555Z" fill="#50661a"/><path d="M530.95415,366.0801c.48969-1.43555.94263-2.87451,1.3493-4.32324.39789-1.45069.79035-2.90186,1.04993-4.3794a25.9645,25.9645,0,0,0,.40216-8.94336,15.06467,15.06467,0,0,1,.68659,4.50977,26.95989,26.95989,0,0,1-.457,4.55664,35.63626,35.63626,0,0,1-1.21125,4.40478A28.09482,28.09482,0,0,1,530.95415,366.0801Z" fill="#50661a"/><path d="M526.55669,374.58254c.93677-.24609,1.843-.55322,2.73077-.88135a15.27763,15.27763,0,0,0,2.54169-1.20752,9.3629,9.3629,0,0,0,2.14771-1.74219,7.58294,7.58294,0,0,0,1.34185-2.46386,5.45549,5.45549,0,0,1-.94488,2.77246,7.62722,7.62722,0,0,1-2.2135,1.98584,10.63291,10.63291,0,0,1-2.71839,1.13135A10.94077,10.94077,0,0,1,526.55669,374.58254Z" fill="#50661a"/><path d="M541.44487,355.04885a14.29365,14.29365,0,0,1,1.38147,3.84277,16.49507,16.49507,0,0,1,.32276,4.10205,13.37874,13.37874,0,0,1-.86151,4.03028,12.08755,12.08755,0,0,1-2.08326,3.51513,18.33679,18.33679,0,0,0,1.61487-3.67724,14.65228,14.65228,0,0,0,.68738-3.90479,18.862,18.862,0,0,0-.166-3.97949A24.13944,24.13944,0,0,0,541.44487,355.04885Z" fill="#50661a"/><path d="M539.545,376.24465c1.06793-.53516,2.11749-.99463,3.12439-1.53369a12.45184,12.45184,0,0,0,2.81915-1.94776,5.29022,5.29022,0,0,1-2.5169,2.51612A8.21174,8.21174,0,0,1,539.545,376.24465Z" fill="#50661a"/><path d="M548.84606,364.9634a14.38157,14.38157,0,0,1,1.00927,4.56689,10.26059,10.26059,0,0,1-.11322,2.36377,4.54715,4.54715,0,0,1-.89605,2.18311,7.20673,7.20673,0,0,0,.39648-2.23975,20.01824,20.01824,0,0,0-.03009-2.271C549.13365,368.04445,548.95018,366.52492,548.84606,364.9634Z" fill="#50661a"/><path d="M553.83389,376.09655s-22.8927-18.78641-22.533-36.74038c.2669-13.32346,18.165-17.84521,24.99628-6.40319C560.87049,340.61316,562.63709,353.73124,553.83389,376.09655Z" fill="#c4ce6e"/><path d="M553.83391,376.0967A125.60742,125.60742,0,0,1,548.49,364.30812q-2.386-6.02269-4.17206-12.272-.862-3.12891-1.50384-6.31689a53.82772,53.82772,0,0,1-.96875-6.4292,39.90265,39.90265,0,0,1-.08252-6.50781,18.597,18.597,0,0,1,1.58917-6.27637,19.94309,19.94309,0,0,0-1.09985,6.30566,39.95636,39.95636,0,0,0,.358,6.396,83.83793,83.83793,0,0,0,2.67,12.56055c1.10815,4.14648,2.497,8.21582,3.92651,12.2705q1.07245,3.04176,2.24988,6.04834C552.20946,372.10451,553.02269,374.09816,553.83391,376.0967Z" fill="#8b9d36"/><path d="M542.7094,342.74855c2.03107-2.08935,4.121-4.05664,6.11414-6.10937.994-1.02637,1.953-2.07813,2.853-3.17481a18.34068,18.34068,0,0,0,1.21112-1.73486,7.47318,7.47318,0,0,0,.48731-.939,10.05255,10.05255,0,0,0,.30664-1.0293,7.0226,7.0226,0,0,1-1.37012,4.15674,24.38815,24.38815,0,0,1-2.77045,3.417A33.58052,33.58052,0,0,1,542.7094,342.74855Z" fill="#8b9d36"/><path d="M533.19994,332.70949c1.50445.94629,2.86511,1.97949,4.27869,2.91016a18.67914,18.67914,0,0,0,2.16241,1.24853,3.71683,3.71683,0,0,0,2.40735.40772,2.941,2.941,0,0,1-2.66632.32861,9.11623,9.11623,0,0,1-2.45313-1.15039A13.0439,13.0439,0,0,1,533.19994,332.70949Z" fill="#8b9d36"/><path d="M531.38738,341.74318c1.94488,1.34229,3.79431,2.72608,5.77417,3.8545a13.84848,13.84848,0,0,0,3.06659,1.36718,4.65525,4.65525,0,0,0,3.28637-.13623,3.95381,3.95381,0,0,1-3.445.90039,10.01771,10.01771,0,0,1-3.40351-1.26318,17.53558,17.53558,0,0,1-2.88586-2.10352A15.78614,15.78614,0,0,1,531.38738,341.74318Z" fill="#8b9d36"/><path d="M544.74425,351.72072c1.359-.689,2.68372-1.40967,4.0047-2.12158,1.31091-.73047,2.615-1.46289,3.86792-2.27148a42.60809,42.60809,0,0,0,3.63715-2.5835,27.11091,27.11091,0,0,0,3.22772-3.125,13.7759,13.7759,0,0,1-2.70673,3.70605,23.18722,23.18722,0,0,1-3.62207,2.84571A27.36849,27.36849,0,0,1,544.74425,351.72072Z" fill="#8b9d36"/><path d="M535.54766,354.375c.87359.44629,1.72668.86719,2.584,1.25488a17.58974,17.58974,0,0,0,2.60608.96533,10.15357,10.15357,0,0,0,2.68054.394,8.64987,8.64987,0,0,0,2.725-.582,5.053,5.053,0,0,1-2.649,1.35888,7.32911,7.32911,0,0,1-3.02527-.20849,9.87843,9.87843,0,0,1-2.70935-1.24512A9.24555,9.24555,0,0,1,535.54766,354.375Z" fill="#8b9d36"/><path d="M559.96764,351.75051a14.11832,14.11832,0,0,1-4.48132,6.83691,15.66531,15.66531,0,0,1-1.694,1.22754c-.29914.17969-.6175.32764-.92444.49219a5.28506,5.28506,0,0,1-.956.42041,11.06081,11.06081,0,0,1-4.04333.7749,21.534,21.534,0,0,0,3.72125-1.48584,16.54494,16.54494,0,0,0,3.25189-2.19287,22.14833,22.14833,0,0,0,2.77539-2.80566A30.01882,30.01882,0,0,0,559.96764,351.75051Z" fill="#8b9d36"/><path d="M543.273,364.94777c1.19653.28662,2.24786.6958,3.31878,1.04493a21.02858,21.02858,0,0,0,3.296.876,3.64459,3.64459,0,0,1-1.803.39746,6.32911,6.32911,0,0,1-1.811-.32617,7.5183,7.5183,0,0,1-1.63367-.792A5.4248,5.4248,0,0,1,543.273,364.94777Z" fill="#8b9d36"/><path d="M557.85955,363.94191a9.50112,9.50112,0,0,1-1.04371,2.12549,12.7763,12.7763,0,0,1-1.44854,1.87012,9.19341,9.19341,0,0,1-1.83991,1.53223,4.14786,4.14786,0,0,1-2.28436.73974,8.90117,8.90117,0,0,0,1.81488-1.36328c.543-.50928,1.07422-1.03613,1.5824-1.59473C555.68682,366.16164,556.68059,365.01271,557.85955,363.94191Z" fill="#8b9d36"/><path d="M553.1459,407.56255s-29.59515,1.06406-41.20629-12.6347c-8.6165-10.16571,1.81019-25.39967,14.50342-21.34164C534.94086,376.303,544.94605,384.96906,553.1459,407.56255Z" fill="#c4ce6e"/><path d="M553.14592,407.56252a125.67622,125.67622,0,0,1-11.80725-5.30176c-3.84967-1.958-7.59936-4.11572-11.249-6.44043q-2.71656-1.77539-5.30756-3.74072a53.80612,53.80612,0,0,1-4.98059-4.17871,39.92136,39.92136,0,0,1-4.36834-4.82471,18.60412,18.60412,0,0,1-2.962-5.75732,19.94763,19.94763,0,0,0,3.34827,5.45556,40.02132,40.02132,0,0,0,4.50091,4.5586,83.83519,83.83519,0,0,0,10.31336,7.6499c3.5747,2.37549,7.309,4.50732,11.06372,6.60107q2.81708,1.57106,5.68933,3.04639C549.28643,405.64455,551.21526,406.60109,553.14592,407.56252Z" fill="#8b9d36"/><path d="M522.73784,389.92189c.14032-2.91064.4054-5.76855.54126-8.62646.06622-1.42725.08905-2.85059.03815-4.26807a18.32217,18.32217,0,0,0-.23993-2.102,7.49683,7.49683,0,0,0-.2561-1.02685,10.0414,10.0414,0,0,0-.45136-.97461,7.02274,7.02274,0,0,1,1.72363,4.02344,24.37478,24.37478,0,0,1,.1839,4.395A33.57543,33.57543,0,0,1,522.73784,389.92189Z" fill="#8b9d36"/><path d="M508.96508,388.688c1.75415-.28614,3.45788-.41211,5.13366-.64942a18.7741,18.7741,0,0,0,2.44751-.49511,3.71767,3.71767,0,0,0,2.07453-1.28711,2.93973,2.93973,0,0,1-1.78156,2.01025,9.10054,9.10054,0,0,1-2.60028.76123A13.04863,13.04863,0,0,1,508.96508,388.688Z" fill="#8b9d36"/><path d="M513.584,396.66018c2.34644-.28077,4.64881-.4668,6.87982-.93116a13.84666,13.84666,0,0,0,3.2038-1.00439,4.653,4.653,0,0,0,2.37372-2.27686,3.95436,3.95436,0,0,1-1.98706,2.95508,9.99991,9.99991,0,0,1-3.3877,1.30469,17.51757,17.51757,0,0,1-3.5556.333A15.75687,15.75687,0,0,1,513.584,396.66018Z" fill="#8b9d36"/><path d="M530.20073,395.30227c.563-1.416,1.07929-2.833,1.59857-4.24073.49927-1.41552.99237-2.82763,1.39667-4.26269a42.48735,42.48735,0,0,0,1.01734-4.34375,27.08436,27.08436,0,0,0,.35211-4.479,13.76961,13.76961,0,0,1,.42291,4.56983,23.18907,23.18907,0,0,1-.83228,4.53027A27.3772,27.3772,0,0,1,530.20073,395.30227Z" fill="#8b9d36"/><path d="M525.06218,403.378c.9502-.24365,1.86835-.49268,2.76782-.769a17.643,17.643,0,0,0,2.59253-1.001,10.17554,10.17554,0,0,0,2.27051-1.47852,8.656,8.656,0,0,0,1.65784-2.23925,5.05436,5.05436,0,0,1-1.08692,2.77148,7.33207,7.33207,0,0,1-2.40594,1.8457,9.8926,9.8926,0,0,1-2.85529.85938A9.25413,9.25413,0,0,1,525.06218,403.378Z" fill="#8b9d36"/><path d="M541.6339,385.25051a14.11915,14.11915,0,0,1,1.16449,8.09131,15.6803,15.6803,0,0,1-.45777,2.0415c-.10552.33252-.246.6543-.36743.98047a5.25791,5.25791,0,0,1-.4386.94775,11.06034,11.06034,0,0,1-2.51849,3.25684,21.54,21.54,0,0,0,1.8067-3.57666,16.56072,16.56072,0,0,0,.98694-3.7959,22.14347,22.14347,0,0,0,.22424-3.93994A30.026,30.026,0,0,0,541.6339,385.25051Z" fill="#8b9d36"/><path d="M537.85039,406.1924c1.08679-.57715,2.14569-.96582,3.17969-1.4126a20.99764,20.99764,0,0,0,3.05078-1.52441,3.64565,3.64565,0,0,1-1.08868,1.49121,6.32533,6.32533,0,0,1-1.57361.95361,7.512,7.512,0,0,1-1.74884.4878A5.44294,5.44294,0,0,1,537.85039,406.1924Z" fill="#8b9d36"/><path d="M548.1209,395.78566a9.50636,9.50636,0,0,1,.624,2.28418,12.75783,12.75783,0,0,1,.15149,2.36084,9.18869,9.18869,0,0,1-.36542,2.36621,4.14642,4.14642,0,0,1-1.22326,2.06641,8.91651,8.91651,0,0,0,.4588-2.22314c.06994-.74121.11944-1.4878.131-2.24268C547.96068,398.88771,547.94548,397.36867,548.1209,395.78566Z" fill="#8b9d36"/><path d="M554.894,378.23254s29.53662,2.14316,41.63983-11.12284c8.98168-9.84456-.88224-25.44881-13.71509-21.8566C574.22742,347.658,563.9127,355.95327,554.894,378.23254Z" fill="#5e7c24"/><path d="M554.894,378.23244c1.98688-.83447,3.94928-1.72363,5.8974-2.64062q2.93262-1.35205,5.82086-2.79346c3.84467-1.93066,7.65717-3.92969,11.3291-6.16357a82.17327,82.17327,0,0,0,10.58295-7.31641,40.00483,40.00483,0,0,0,4.64252-4.43945,19.16668,19.16668,0,0,0,3.47821-5.38623,19.31915,19.31915,0,0,1-3.23694,5.58935,39.84891,39.84891,0,0,1-4.56311,4.61377,56.5041,56.5041,0,0,1-5.13336,3.96582q-2.65842,1.85742-5.43964,3.52539-5.57849,3.29883-11.44458,6.05518C562.92266,375.07863,558.9464,376.76125,554.894,378.23244Z" fill="#50661a"/><path d="M585.9254,361.71291a36.45032,36.45032,0,0,1-.74914-4.28467c-.17475-1.44092-.25049-2.89258-.2984-4.34717a29.10967,29.10967,0,0,1,.30719-4.36377,7.30006,7.30006,0,0,1,1.72827-3.97753,8.64954,8.64954,0,0,0-.52838.936,7.5692,7.5692,0,0,0-.33454,1.01123c-.07348.34961-.17865.6875-.231,1.04l-.14362,1.05908a37.68389,37.68389,0,0,0-.15448,4.28858c-.0061,1.436.07831,2.87207.14636,4.311Z" fill="#50661a"/><path d="M599.73406,360.98244a15.8794,15.8794,0,0,1-5.25147-.02783,9.84669,9.84669,0,0,1-2.54535-.80713,3.0304,3.0304,0,0,1-1.76379-1.94727,3.49372,3.49372,0,0,0,1.96942,1.48877,15.31284,15.31284,0,0,0,2.45331.63184C596.27922,360.61623,597.99346,360.77346,599.73406,360.98244Z" fill="#50661a"/><path d="M594.82726,368.78078a20.25794,20.25794,0,0,1-7.03723-.3833,10.42922,10.42922,0,0,1-3.307-1.37353,4.05124,4.05124,0,0,1-1.95105-2.90723,4.47168,4.47168,0,0,0,2.21588,2.48,12.79315,12.79315,0,0,0,3.19574,1.17529A48.88758,48.88758,0,0,0,594.82726,368.78078Z" fill="#50661a"/><path d="M578.27123,366.8174a28.09852,28.09852,0,0,1-2.03772-4.07324,35.64808,35.64808,0,0,1-1.44226-4.33447,26.97164,26.97164,0,0,1-.69715-4.52637,15.06694,15.06694,0,0,1,.44745-4.53955,25.96264,25.96264,0,0,0,.874,8.90967c.33728,1.46142.80584,2.89013,1.27984,4.31738Q577.41943,364.70949,578.27123,366.8174Z" fill="#50661a"/><path d="M583.11168,375.07521a10.94761,10.94761,0,0,1-2.90259-.252,10.62066,10.62066,0,0,1-2.77441-.98633,7.61847,7.61847,0,0,1-2.31525-1.86621,5.45378,5.45378,0,0,1-1.09008-2.71875,7.58218,7.58218,0,0,0,1.47015,2.38965,9.359,9.359,0,0,0,2.23669,1.62647,15.25366,15.25366,0,0,0,2.60193,1.07128C581.242,374.62062,582.16326,374.87941,583.11168,375.07521Z" fill="#50661a"/><path d="M567.21239,356.35549a24.14342,24.14342,0,0,0-.68689,3.9707,18.86621,18.86621,0,0,0,.04437,3.98242,14.66112,14.66112,0,0,0,.89276,3.86328,18.34113,18.34113,0,0,0,1.80689,3.58692,12.09718,12.09718,0,0,1-2.26605-3.40039,13.37872,13.37872,0,0,1-1.07318-3.979,16.49513,16.49513,0,0,1,.10559-4.11377A14.293,14.293,0,0,1,567.21239,356.35549Z" fill="#50661a"/><path d="M570.2293,377.42141a8.21163,8.21163,0,0,1-3.47284-.78321,5.288,5.288,0,0,1-2.6463-2.37939,12.44731,12.44731,0,0,0,2.91809,1.7959C568.06218,376.54006,569.13457,376.94338,570.2293,377.42141Z" fill="#50661a"/><path d="M560.34532,366.647c-.02154,1.56494-.12445,3.09229-.12274,4.61621a20.01424,20.01424,0,0,0,.09,2.26953,7.20215,7.20215,0,0,0,.51422,2.21534,4.54678,4.54678,0,0,1-1.01013-2.13233,10.26392,10.26392,0,0,1-.238-2.355A14.38351,14.38351,0,0,1,560.34532,366.647Z" fill="#50661a"/><path d="M553.77044,407.2263s29.53662,2.14316,41.63983-11.12283c8.98168-9.84456-.88224-25.44881-13.71509-21.85661C573.10389,376.65176,562.78917,384.947,553.77044,407.2263Z" fill="#8b9d36"/><path d="M553.77043,407.22609c1.96442-.89013,3.92688-1.77588,5.86219-2.72021q2.9208-1.37477,5.79669-2.83643c3.82867-1.95508,7.63824-3.9497,11.29724-6.19336a83.76046,83.76046,0,0,0,10.58563-7.26855,39.94275,39.94275,0,0,0,4.66419-4.39111,19.94479,19.94479,0,0,0,3.5451-5.32959,18.60269,18.60269,0,0,1-3.17,5.6455A39.88635,39.88635,0,0,1,587.81,388.794a53.81645,53.81645,0,0,1-5.12977,3.99463q-2.65923,1.86694-5.44055,3.54444c-3.73193,2.18994-7.55786,4.20947-11.47644,6.02588A125.63316,125.63316,0,0,1,553.77043,407.22609Z" fill="#5e7c24"/><path d="M584.80187,390.70656a33.571,33.571,0,0,1-1.22547-8.62988,24.37336,24.37336,0,0,1,.34412-4.38525,7.02432,7.02432,0,0,1,1.86926-3.958,10.01358,10.01358,0,0,0-.48657.958,7.47632,7.47632,0,0,0-.29346,1.0166,18.30992,18.30992,0,0,0-.3164,2.09179c-.1026,1.415-.13172,2.83789-.11762,4.26661C584.60723,384.92775,584.76781,387.79348,584.80187,390.70656Z" fill="#5e7c24"/><path d="M598.61052,389.97609a13.05115,13.05115,0,0,1-5.28277.14746,9.11053,9.11053,0,0,1-2.5708-.85546,2.94026,2.94026,0,0,1-1.707-2.07422,3.71914,3.71914,0,0,0,2.02619,1.3623,18.67019,18.67019,0,0,0,2.42786.5835C595.17,389.4385,596.868,389.626,598.61052,389.97609Z" fill="#5e7c24"/><path d="M593.70372,397.77443a15.74788,15.74788,0,0,1-3.53851.25147,17.55445,17.55445,0,0,1-3.54108-.46192,10.0081,10.0081,0,0,1-3.33777-1.42822,3.95245,3.95245,0,0,1-1.87792-3.0249,4.65464,4.65464,0,0,0,2.289,2.36182,13.85324,13.85324,0,0,0,3.165,1.1206C589.07506,397.13869,591.36913,397.40871,593.70372,397.77443Z" fill="#5e7c24"/><path d="M577.14769,395.81105a27.3742,27.3742,0,0,1-3.65259-8.36425,23.20067,23.20067,0,0,1-.66644-4.55811,13.7679,13.7679,0,0,1,.58936-4.55127,27.08764,27.08764,0,0,0,.18847,4.48877,42.4773,42.4773,0,0,0,.85816,4.37793c.35168,1.44922.79291,2.87842,1.24023,4.311C576.17247,392.94094,576.63665,394.376,577.14769,395.81105Z" fill="#5e7c24"/><path d="M581.98815,404.06887a9.25236,9.25236,0,0,1-2.93824-.11817,9.90058,9.90058,0,0,1-2.822-.96289,7.32653,7.32653,0,0,1-2.337-1.93261,5.0518,5.0518,0,0,1-.98517-2.80909,8.66331,8.66331,0,0,0,1.57507,2.29834,10.16468,10.16468,0,0,0,2.215,1.56006,17.64349,17.64349,0,0,0,2.55432,1.09522C580.139,403.50881,581.04747,403.791,581.98815,404.06887Z" fill="#5e7c24"/><path d="M566.08885,385.34914a30.01964,30.01964,0,0,0-.54595,3.98828,22.144,22.144,0,0,0,.08032,3.94531,16.56324,16.56324,0,0,0,.84778,3.82959,21.54931,21.54931,0,0,0,1.675,3.64014,11.06229,11.06229,0,0,1-2.398-3.34668,5.27447,5.27447,0,0,1-.40374-.96289c-.10944-.33057-.2381-.65771-.33142-.99365a15.67556,15.67556,0,0,1-.383-2.05664A14.119,14.119,0,0,1,566.08885,385.34914Z" fill="#5e7c24"/><path d="M569.10576,406.41506a5.42447,5.42447,0,0,1-1.818-.0708,7.54308,7.54308,0,0,1-1.72986-.55078,6.33369,6.33369,0,0,1-1.53778-1.01075,3.648,3.648,0,0,1-1.03351-1.53027,20.92554,20.92554,0,0,0,2.9931,1.63477C566.99669,405.3716,568.04076,405.79885,569.10576,406.41506Z" fill="#5e7c24"/><path d="M559.22179,395.64064c.11755,1.58838.04694,3.106.055,4.6167-.01593.75489.00623,1.50293.04914,2.2461a8.91357,8.91357,0,0,0,.37731,2.23828,4.14679,4.14679,0,0,1-1.147-2.10938,9.18988,9.18988,0,0,1-.27887-2.37841,12.75663,12.75663,0,0,1,.23749-2.35352A9.5079,9.5079,0,0,1,559.22179,395.64064Z" fill="#5e7c24"/><path d="M563.6404,354.71523s-8.18919-28.45949,2.29519-43.03865c7.78036-10.81905,25.08358-4.3857,24.21547,8.91212C589.56988,329.49129,583.58045,341.29517,563.6404,354.71523Z" fill="#8b9d36"/><path d="M563.64037,354.71535a125.61528,125.61528,0,0,1,2.28937-12.73926c.96887-4.20849,2.15594-8.36865,3.5288-12.47216q1.06568-3.06519,2.34632-6.05469a53.85006,53.85006,0,0,1,2.85052-5.84326,39.89574,39.89574,0,0,1,3.625-5.40528,18.59731,18.59731,0,0,1,4.8703-4.2666,19.94929,19.94929,0,0,0-4.48407,4.56836,39.93489,39.93489,0,0,0-3.33471,5.46973,83.8184,83.8184,0,0,0-4.929,11.85693c-1.44055,4.043-2.60632,8.18213-3.7301,12.332q-.8431,3.1128-1.57977,6.25684C564.56816,350.50637,564.10649,352.60939,563.64037,354.71535Z" fill="#5e7c24"/><path d="M573.40441,320.94387c2.85778-.56787,5.695-1.00147,8.5011-1.561,1.40081-.28076,2.78735-.60254,4.15075-.99512a18.20635,18.20635,0,0,0,1.98163-.74121,7.46477,7.46477,0,0,0,.9342-.49658,10.03,10.03,0,0,0,.83661-.67383,7.02066,7.02066,0,0,1-3.487,2.64551,24.34776,24.34776,0,0,1-4.22015,1.24121A33.57679,33.57679,0,0,1,573.40441,320.94387Z" fill="#5e7c24"/><path d="M571.271,307.28127c.70185,1.63281,1.236,3.25586,1.87165,4.82422a18.73943,18.73943,0,0,0,1.072,2.25537,3.71747,3.71747,0,0,0,1.75091,1.70166,2.94069,2.94069,0,0,1-2.38183-1.24268,9.10277,9.10277,0,0,1-1.36725-2.33886A13.04726,13.04726,0,0,1,571.271,307.28127Z" fill="#5e7c24"/><path d="M564.65233,313.69094c.83972,2.209,1.57721,4.39795,2.56708,6.45068a13.85524,13.85524,0,0,0,1.74927,2.86572,4.65415,4.65415,0,0,0,2.78332,1.75293,3.95358,3.95358,0,0,1-3.34753-1.21386,9.99967,9.99967,0,0,1-2.08557-2.9712,17.53614,17.53614,0,0,1-1.18256-3.36962A15.7673,15.7673,0,0,1,564.65233,313.69094Z" fill="#5e7c24"/><path d="M569.98845,329.48635c1.50977.2041,3.00965.3623,4.50134.52539,1.49408.14209,2.98346.2793,4.47388.32471a42.47936,42.47936,0,0,0,4.46088-.06348,27.09712,27.09712,0,0,0,4.43091-.74121,13.76674,13.76674,0,0,1-4.33161,1.51513,23.21292,23.21292,0,0,1-4.59741.28809A27.38434,27.38434,0,0,1,569.98845,329.48635Z" fill="#5e7c24"/><path d="M560.90966,326.45314c.46618.8628.92974,1.69385,1.41558,2.49952a17.57733,17.57733,0,0,0,1.59821,2.27343,10.15324,10.15324,0,0,0,1.9834,1.84571,8.65885,8.65885,0,0,0,2.57409,1.06738,5.05264,5.05264,0,0,1-2.9522-.38477,7.3274,7.3274,0,0,1-2.37287-1.88818,9.88176,9.88176,0,0,1-1.52429-2.5625A9.25213,9.25213,0,0,1,560.90966,326.45314Z" fill="#5e7c24"/><path d="M582.50646,338.14943a14.1174,14.1174,0,0,1-7.56964,3.08643,15.64992,15.64992,0,0,1-2.09137.04932c-.34815-.022-.69452-.08008-1.04053-.11914a5.25822,5.25822,0,0,1-1.02564-.19629,11.05831,11.05831,0,0,1-3.76916-1.65625,21.56949,21.56949,0,0,0,3.90729.88818,16.54609,16.54609,0,0,0,3.922.03955,22.17382,22.17382,0,0,0,3.87732-.73486A30.08325,30.08325,0,0,0,582.50646,338.14943Z" fill="#5e7c24"/><path d="M561.27123,339.5425c.82251.915,1.45605,1.84814,2.13965,2.74365a20.94608,20.94608,0,0,0,2.21685,2.59131,3.64579,3.64579,0,0,1-1.71032-.69531,6.346,6.346,0,0,1-1.306-1.29639,7.5321,7.5321,0,0,1-.89588-1.5791A5.43166,5.43166,0,0,1,561.27123,339.5425Z" fill="#5e7c24"/><path d="M573.85247,346.99172a9.52208,9.52208,0,0,1-2.06549,1.15771,12.80183,12.80183,0,0,1-2.254.71778,9.19048,9.19048,0,0,1-2.38446.21777,4.14779,4.14779,0,0,1-2.30072-.6875,8.91183,8.91183,0,0,0,2.26782-.09228c.73614-.11133,1.47272-.24415,2.208-.415C570.80388,347.586,572.27416,347.20412,573.85247,346.99172Z" fill="#5e7c24"/><path d="M533.93513,410.51464V415.861a1.85289,1.85289,0,0,0,1.83439,1.87085h36.75276a1.85289,1.85289,0,0,0,1.83438-1.87085v-4.927a1.85338,1.85338,0,0,0-1.81386-1.87073L535.79,408.6439A1.8524,1.8524,0,0,0,533.93513,410.51464Z" fill="#d6694b"/><polygon points="535.689 417.732 536.997 445.326 570.431 445.326 572.602 417.732 535.689 417.732" fill="#e19974"/></svg>