<svg id="Layer_1" data-name="Layer 1" xmlns="http://www.w3.org/2000/svg" viewBox="0 0 700 550"><title>lost in space- 404</title><path d="M116.029,268.09614a22.68227,22.68227,0,1,1,0-45.36454,23.5703,23.5703,0,0,1,11.34114,3.17552v-.9073a20.54788,20.54788,0,0,1,32.20881-16.78487,27.18635,27.18635,0,0,1,49.901,14.97029v.45365c10.88749,1.36093,19.05311,10.88749,19.05311,22.22862a22.96032,22.96032,0,0,1-22.22863,22.68226H115.57532Zm-.45365.45363" fill="#efedef" fill-rule="evenodd"/><path d="M584.0507,357.48512H491.79519a23.34659,23.34659,0,0,1-22.6026-23.06387c0-11.53193,8.303-21.21876,19.37366-22.6026v-.46127a27.64373,27.64373,0,0,1,50.74053-15.22216,20.89359,20.89359,0,0,1,32.75069,17.06727v.92255a23.967,23.967,0,0,1,11.532-3.22894,23.06388,23.06388,0,0,1,0,46.12776Zm0,0" fill="#efedef" fill-rule="evenodd"/><path d="M350.1183,173.22269a13.60936,13.60936,0,1,1,0-27.21872,14.14225,14.14225,0,0,1,6.80469,1.90531v-.54438A12.32873,12.32873,0,0,1,376.24827,137.294a16.3118,16.3118,0,0,1,29.9406,8.98217v.27219a13.27242,13.27242,0,0,1,11.43187,13.33718,13.77619,13.77619,0,0,1-13.33718,13.60935H349.84611Zm-.27219.27218" fill="#efedef" fill-rule="evenodd"/><path d="M462.95575,188.6253a10.00515,10.00515,0,0,1,10-10.004,9.99572,9.99572,0,0,1-10-9.996,9.999,9.999,0,0,1-9.996,10,9.99893,9.99893,0,0,1,9.996,10Z" fill="#d6d6d6"/><path d="M168.0181,310.75758a10.00515,10.00515,0,0,1,10-10.004,9.99572,9.99572,0,0,1-10-9.996,9.999,9.999,0,0,1-9.996,10,9.99893,9.99893,0,0,1,9.996,10Z" fill="#d6d6d6"/><path d="M221.01909,394.99545a10.00514,10.00514,0,0,1,10-10.004,9.99571,9.99571,0,0,1-10-9.996,9.999,9.999,0,0,1-9.996,10,9.99893,9.99893,0,0,1,9.996,10Z" fill="#d6d6d6"/><path d="M275.62091,257.07173a10.00514,10.00514,0,0,1,10-10.004,9.99571,9.99571,0,0,1-10-9.996,9.999,9.999,0,0,1-9.996,10,9.99893,9.99893,0,0,1,9.996,10Z" fill="#d6d6d6"/><path d="M527.923,273.90824a10.00515,10.00515,0,0,1,10-10.004,9.99573,9.99573,0,0,1-10-9.996,9.999,9.999,0,0,1-9.996,10,9.99893,9.99893,0,0,1,9.996,10Z" fill="#d6d6d6"/><path d="M442.08478,347.43032a10.00515,10.00515,0,0,1,10-10.004,9.99572,9.99572,0,0,1-10-9.996,9.999,9.999,0,0,1-9.996,10,9.99893,9.99893,0,0,1,9.996,10Z" fill="#d6d6d6"/><path d="M301.60834,148.83417a10.00514,10.00514,0,0,1,10-10.004,9.99571,9.99571,0,0,1-10-9.996,9.999,9.999,0,0,1-9.996,10,9.99893,9.99893,0,0,1,9.996,10Z" fill="#d6d6d6"/><path d="M178.9324,252.46492c3.86071,0,3.8671-6,0-6-3.86072,0-3.86711,6,0,6Z" fill="#d6d6d6"/><path d="M272.5324,184.78492c3.86071,0,3.8671-6,0-6-3.86072,0-3.86711,6,0,6Z" fill="#d6d6d6"/><path d="M197.6524,180.46492c3.86071,0,3.8671-6,0-6-3.86072,0-3.86711,6,0,6Z" fill="#d6d6d6"/><path d="M386.2924,111.34492c3.86071,0,3.8671-6,0-6-3.86072,0-3.86711,6,0,6Z" fill="#d6d6d6"/><path d="M148.094,377.04757c3.86071,0,3.86711-6,0-6-3.86072,0-3.86711,6,0,6Z" fill="#d6d6d6"/><path d="M525.9724,145.90492c3.86071,0,3.8671-6,0-6-3.86072,0-3.86711,6,0,6Z" fill="#d6d6d6"/><path d="M408.3424,235.9482c3.86071,0,3.86711-6,0-6-3.86071,0-3.86711,6,0,6Z" fill="#d6d6d6"/><path d="M461.1724,132.94492c3.86071,0,3.8671-6,0-6-3.86072,0-3.86711,6,0,6Z" fill="#d6d6d6"/><path d="M457.25246,282.21533c3.86072,0,3.86711-6,0-6-3.86071,0-3.8671,6,0,6Z" fill="#d6d6d6"/><path d="M223.50908,282.21533c3.86071,0,3.86711-6,0-6-3.86071,0-3.86711,6,0,6Z" fill="#d6d6d6"/><path d="M309.00621,383.87193c3.86071,0,3.8671-6,0-6-3.86072,0-3.86711,6,0,6Z" fill="#d6d6d6"/><path d="M494.18058,215.56676c3.86071,0,3.86711-6,0-6-3.86071,0-3.86711,6,0,6Z" fill="#d6d6d6"/><path d="M347.97252,330.42794c3.86072,0,3.86711-6,0-6-3.86071,0-3.8671,6,0,6Z" fill="#d6d6d6"/><path d="M288.85913,281.30045a69.57309,69.57309,0,0,1-6.90191-8.14473c-.71459-1.02445-1.57632-.66966-1.66784.576a11.88966,11.88966,0,0,0,1.05345,3.77618c.76311,1.49929,1.83266,4.16393-1.46921,2.99668-3.03744-1.07376-7.87166-2.937-10.66675-4.02439a.90939.90939,0,0,0-.91894,1.53962,51.47249,51.47249,0,0,0,7.68633,4.9153c-7.23591-1.696-10.58332-3.13092-11.10655-1.64767-.25992.7368,7.7438,4.04841,7.7438,4.04841s-6.50379-1.58165-7.08847-.23921c-.79346,1.82184,10.96164,4.336,10.96164,4.336-5.69538,1.1651-7.59571,2.01971-6.54559,2.94363s13.3045-1.63173,20.21307.46534l46.2394,9.66241a9.52547,9.52547,0,0,0,7.42367-1.66582l23.1239-16.91532-8.69379-12.40664-20.16741,14.24459a9.52548,9.52548,0,0,1-6.124,1.7243l-36.58-3.16632A10.51988,10.51988,0,0,1,288.85913,281.30045Z" fill="#f9977a"/><path d="M277.72926,286.46137a7.02778,7.02778,0,0,1-2.65649-.1189,6.94955,6.94955,0,0,1-2.46124-1.00659,6.95045,6.95045,0,0,1,2.65646.1189A7.02887,7.02887,0,0,1,277.72926,286.46137Z" fill="#dd765e"/><path d="M283.21364,283.68073a5.66045,5.66045,0,0,1,.0021,1.77392,7.3473,7.3473,0,0,1-.4497,1.7165,5.48758,5.48758,0,0,1-.91831,1.5556,2.89119,2.89119,0,0,1-1.50668.999,9.94437,9.94437,0,0,0,1.58118-2.89245C282.34535,285.81488,282.68877,284.75647,283.21364,283.68073Z" fill="#dd765e"/><path d="M212.68209,400.99572l-7.26976,2.69415s-13.81777-6.802-22.75-19.65964c0,0-3.97686-3.33831-7.06867-1.87518l19.8985,42.04846,16.03652-7.58893,9.8959-4.294Z" fill="#f9977a"/><path d="M178.01251,381.852l19.35854,40.90743a1.156,1.156,0,0,1-.55044,1.53943l-.0036.0017a1.156,1.156,0,0,1-1.53943-.55044l-19.95732-42.17244S176.0196,379.77286,178.01251,381.852Z" fill="#d6694b"/><path d="M189.49964,392.051a3.23323,3.23323,0,0,1,1.05561,2.158,3.65911,3.65911,0,0,1-.66146,2.44243,3.18867,3.18867,0,0,1-2.39159,1.35927,2.72937,2.72937,0,0,1-2.292-.94866,16.1803,16.1803,0,0,0,1.54993-1.29276,5.94119,5.94119,0,0,0,.7-.87509c.20764-.28952.46842-.656.78487-1.13075C188.56984,393.28694,188.93706,392.74018,189.49964,392.051Z" fill="#d6694b"/><path d="M205.41241,403.68985c.0934,1.4966.17263,2.832.3329,4.08619a12.80292,12.80292,0,0,0,.85725,3.39776,8.22646,8.22646,0,0,0,1.87619,2.78358,16.56468,16.56468,0,0,0,1.39523,1.3035c.51127.44253,1.09305.80246,1.65474,1.35363a8.87554,8.87554,0,0,1-2.24476-.00248,7.32915,7.32915,0,0,1-2.18417-.73815,6.82787,6.82787,0,0,1-3.26161-3.53045,8.06592,8.06592,0,0,1-.44291-4.6836A7.78022,7.78022,0,0,1,205.41241,403.68985Z" fill="#d6694b"/><path d="M260.60465,416.82365l-1.55832.55274s-13.53716,7.34463-21.95247,20.54638c0,0-3.84133,3.4934-6.98874,2.154l18.21531-42.80451,16.12634,7.48866,3.41,1.24975Z" fill="#f9977a"/><path d="M232.5341,440.28371l17.721-41.643a1.156,1.156,0,0,0-.61106-1.51639l-.00367-.00155a1.156,1.156,0,0,0-1.51638.61105l-18.26916,42.93073S230.62521,442.44022,232.5341,440.28371Z" fill="#d6694b"/><path d="M243.60773,429.63717a3.23323,3.23323,0,0,0,.96919-2.19814,3.65909,3.65909,0,0,0-.7578-2.41428,3.18864,3.18864,0,0,0-2.44361-1.26335,2.72936,2.72936,0,0,0-2.25253,1.03881,16.17809,16.17809,0,0,1,1.6,1.23028,5.93991,5.93991,0,0,1,.73416.84664c.219.281.49408.63692.8291,1.09873C242.62964,428.43906,243.01826,428.97083,243.60773,429.63717Z" fill="#d6694b"/><path d="M259.04641,417.37639c.034-1.49912.06018-2.83664.17059-4.09617a12.80306,12.80306,0,0,1,.72182-3.42908,8.22642,8.22642,0,0,1,1.76432-2.8558c.35639-.50165,2.2043-1.66131,2.74369-2.23432-.739-.06415-3.53719-.07265-4.19756.374a6.82787,6.82787,0,0,0-3.119,3.657,8.06584,8.06584,0,0,0-.25682,4.69747A7.78011,7.78011,0,0,0,259.04641,417.37639Z" fill="#d6694b"/><path d="M467.20234,238.96213c1.93965-5.852-.93286-19.27941-12.57382-17.598-4.50753.65107-3.75575,3.9558-10.83776,5.25709q-.1537.02823-.30812.05492a16.16625,16.16625,0,0,1-11.91332-2.72808,18.62646,18.62646,0,0,0-1.81526-1.11276,21.84467,21.84467,0,0,0-9.718-2.47009c-2.80051-.13231-14.31136-.67665-19.57352,6.55467-6.038,8.29708-1.34031,23.38193,6.43069,28.66676,1.16966.79557,2.50056,1.432,4.10992,2.30595a35.98649,35.98649,0,0,0-14.12374,5.25021c1.14125,32.79526,50.082,5.51763,55.60569-.25132C459.46253,255.60448,465.26294,244.8142,467.20234,238.96213Z" fill="#160b07"/><polygon points="374.212 282.461 373.647 282.348 375.366 273.835 375.931 273.949 374.212 282.461" fill="#f73943"/><rect x="412.84632" y="296.09012" width="9.6924" height="0.57745" transform="translate(-4.59336 586.1755) rotate(-69.81821)" fill="#f73943"/><path d="M206.36228,403.72034l47.78581-21.26491s23.468,3.3008,21.21232,13.42551L216.924,414.27864A24.943,24.943,0,0,1,206.36228,403.72034Z" fill="#ffba55"/><path d="M284.44137,411.56823l31.32884,7.60287a17.75855,17.75855,0,0,1,3.18769-6.704c2.00511-2.48711,16.71218,1.13785,17.801,17.37595,0,0-8.73287,14.06525-18.61583,11.49925s-57.5384-24.51864-57.5384-24.51864.21559-9.9524,6.76237-11.24889Z" fill="#ffba55"/><path d="M416.6816,254.43926l-3.08968,8.50808a5.70172,5.70172,0,0,0,1.94024,6.509l9.53849,7.14718a.48162.48162,0,0,1,.25167.32652c.136,1.63011-14.44788,7.59663-26.52935,4.28457-12.72189-3.48761-22.52456-17.224-22.5248-17.22425h0s21.0734,1.29959,22.28069-9.5767Z" fill="#f9977a"/><path d="M398.54889,254.41366s4.096,6.02237,12.27287,3.19444c0,0-5.2871,8.16237-15.131,2.01305A6.74127,6.74127,0,0,0,398.54889,254.41366Z" fill="#dd765e"/><path d="M399.93546,232.67354c5.7252-9.47912,15.61772-13.9917,22.09559-10.07922,4.99978,3.01978,6.50025,10.17625,4.294,17.64314a2.11526,2.11526,0,0,1,1.76124.35415c1.31607,1.10484.59885,4.12563-1.60193,6.74705-1.85809,2.21331-4.1762,3.42781-5.64615,3.0894-5.8044,6.96269-13.94483,9.87235-19.53992,6.49307C394.82045,253.00858,394.21028,242.15259,399.93546,232.67354Z" fill="#f9977a"/><path d="M418.64825,241.27609a.52356.52356,0,0,0,.547-.70614c-.07159-.18962-1.80567-4.6461-6.056-5.36957a.52366.52366,0,1,0-.17585,1.03246c3.66564.62408,5.2369,4.66722,5.25244,4.70806A.52381.52381,0,0,0,418.64825,241.27609Z" fill="#160b07"/><path d="M406.99541,233.00992a.52383.52383,0,0,0,.39752-.91984,10.12788,10.12788,0,0,0-5.93-2.22076.52373.52373,0,0,0-.00355,1.04746,9.13238,9.13238,0,0,1,5.25508,1.97189A.5239.5239,0,0,0,406.99541,233.00992Z" fill="#160b07"/><path d="M399.9794,232.99863a5.82125,5.82125,0,0,0,.82808,1.86428,5.57936,5.57936,0,0,0,1.44307,1.49558,4.01846,4.01846,0,0,0,1.976.7035,4.06249,4.06249,0,0,0,2.01422-.375,6.31421,6.31421,0,0,1-1.96-.03014,4.52255,4.52255,0,0,1-1.73541-.73085,7.28816,7.28816,0,0,1-1.4117-1.307A12.79823,12.79823,0,0,1,399.9794,232.99863Z" fill="#160b07"/><path d="M410.67416,238.531a5.8196,5.8196,0,0,0,.82808,1.86428,5.58349,5.58349,0,0,0,1.443,1.49583,3.98566,3.98566,0,0,0,3.99026.32824,6.32253,6.32253,0,0,1-1.96008-.0299,4.527,4.527,0,0,1-1.73538-.7311,7.28874,7.28874,0,0,1-1.4117-1.307A12.77452,12.77452,0,0,1,410.67416,238.531Z" fill="#160b07"/><path d="M408.84137,250.99653s-7.53776,1.66184-9.50895-3.86163" fill="#dd2f22"/><path d="M415.96177,222.3162c1.40461.91608,1.83432,2.39686,2.69379,5.35836,1.66017,5.72065,1.37355,12.6709,3.25007,14.5902a1.4883,1.4883,0,0,0,.77053.465c.935.187,1.7036-.8363,3.26912-2.10359,1.18308-.9577,1.583-1.05234,2.2627-1.58284a10.50483,10.50483,0,0,0,3.62932-8.76716A11.12985,11.12985,0,0,0,427.887,223.134c-4.38568-4.06271-10.079-3.91053-11.52292-3.87195-8.67474.23188-14.62038,6.61771-14.43018,6.93585C402.15747,226.5718,411.28027,219.263,415.96177,222.3162Z" fill="#160b07"/><path d="M408.64183,234.84766a6.16451,6.16451,0,0,1-1.29788,3.70294,14.25523,14.25523,0,0,1-2.737,2.87891c-.53009.41424-1.20673.65039-1.30136,1.16967a2.2412,2.2412,0,0,0,.42749,1.66071,3.39445,3.39445,0,0,0,1.43954,1.152,6.76273,6.76273,0,0,0,1.85651.54553,4.50551,4.50551,0,0,1-3.62241-1.46118,2.49689,2.49689,0,0,1-.56344-2.01337,1.52522,1.52522,0,0,1,.65652-.91144l.79834-.56427a15.6371,15.6371,0,0,0,2.732-2.70636A7.02384,7.02384,0,0,0,408.64183,234.84766Z" fill="#dd765e"/><path d="M427.0042,244.19037a5.1168,5.1168,0,0,0-.43256-1.26123.74767.74767,0,0,0-.86374-.44269,3.51286,3.51286,0,0,0-1.12558.53943c-.38226.23334-.73068.52716-1.139.76923a5.2555,5.2555,0,0,1,.89215-1.08765,2.70621,2.70621,0,0,1,1.28092-.73645,1.09771,1.09771,0,0,1,.83539.14282,1.22112,1.22112,0,0,1,.48474.64862A2.64251,2.64251,0,0,1,427.0042,244.19037Z" fill="#dd765e"/><path d="M424.00066,246.89264a2.59191,2.59191,0,0,1-.09781-1.342,4.491,4.491,0,0,1,.40912-1.28906,5.7183,5.7183,0,0,1,.7203-1.13049l.44592-.49567c.17215-.14484.32944-.29974.51127-.43115-.40522.79669-.84815,1.51959-1.20539,2.28344a11.11282,11.11282,0,0,0-.49157,1.158A5.535,5.535,0,0,0,424.00066,246.89264Z" fill="#dd765e"/><path d="M394.13347,260.64375s-17.53251-9.06511-38.039,10.87393l10.08643,14.256-2.53365,11.332a32.38539,32.38539,0,0,1-15.82029,21.23161c-12.646,7.049-32.72526,19.08147-50.21855,33.29224-28.06657,22.8-55.30971,21.26339-55.30971,21.26339s29.29513,27.6312,71.22641,38.07079c0,0,12.76321-.25037,26.36778,24.09426,0,0,40.23191-28.77362,58.70939-100.12073a25.15427,25.15427,0,0,1,4.16559-8.6953l13.65169-18.361,16.73515,3.31743a168.50607,168.50607,0,0,0,.56251-20.14135,19.81265,19.81265,0,0,0-7.83165-14.81556l-12.38414-9.37959c-1.90791,6.2631-8.755,9.27454-14.00827,7.00953C394.841,271.86551,392.23348,266.06457,394.13347,260.64375Z" fill="#f73943"/><path d="M444.30911,379.85509a69.57348,69.57348,0,0,0,9.92471,3.93361c1.19921.34931,1.13875,1.27925-.01221,1.76448a11.88968,11.88968,0,0,1-3.91474.20995c-1.66463-.24337-4.5314-.40427-2.36919,2.35067,1.989,2.5343,5.30092,6.5184,7.22531,8.81875a.90939.90939,0,0,1-1.16474,1.36318,51.47264,51.47264,0,0,1-7.11592-5.70994c3.92173,6.31308,6.35209,9.02553,5.11419,9.99577-.61494.482-6.313-6.04172-6.313-6.04172s3.57917,5.656,2.49431,6.63943c-1.47225,1.33459-7.61484-8.99846-7.61484-8.99846.71813,5.76881.51638,7.84267-.69494,7.1433s-2.71026-13.12732-6.90725-19.002l-23.94709-40.71831a9.52551,9.52551,0,0,1-.79664-7.56646l8.62881-27.32007,14.53588,4.2679-7.04424,23.66456a9.52543,9.52543,0,0,0,.32544,6.35377l14.70225,33.64471A10.51985,10.51985,0,0,0,444.30911,379.85509Z" fill="#f9977a"/><path d="M442.98,392.05109a7.028,7.028,0,0,1,1.741,2.00989,6.94963,6.94963,0,0,1,.96247,2.47888,6.95014,6.95014,0,0,1-1.74106-2.01A7.02762,7.02762,0,0,1,442.98,392.05109Z" fill="#dd765e"/><path d="M443.86,385.9654c-.85129.84137-1.7442,1.50537-2.57376,2.23205a9.94453,9.94453,0,0,0-2.23465,2.42346,2.89127,2.89127,0,0,1,.46454-1.74713,5.48562,5.48562,0,0,1,1.18008-1.36767,7.346,7.346,0,0,1,1.48245-.97522A5.65983,5.65983,0,0,1,443.86,385.9654Z" fill="#dd765e"/><rect x="363.10993" y="281.72244" width="7.23549" height="0.95051" transform="translate(32.04788 601.75076) rotate(-81.25384)" fill="#d32a3b"/><path d="M379.66371,301.27094a5.23638,5.23638,0,0,1-1.94971-.38086c-4.27343-1.69727-6.44238-8.50684-6.53222-8.7959l.90722-.2832c.021.0664,2.125,6.667,5.97754,8.19629a4.71474,4.71474,0,0,0,4.19483-.43946l.46582.82813A6.2295,6.2295,0,0,1,379.66371,301.27094Z" fill="#d32a3b"/><path d="M401.568,311.00336a5.41694,5.41694,0,0,1-.66114-.041c-4.56494-.54882-8.40136-6.57714-8.562-6.834l.80469-.50586c.03711.05859,3.75781,5.90234,7.87256,6.39648a4.72606,4.72606,0,0,0,3.94385-1.49707l.66211.68164A5.74675,5.74675,0,0,1,401.568,311.00336Z" fill="#d32a3b"/><path d="M410.74288,233.75815a1.5009,1.5009,0,0,0,0-3,1.5009,1.5009,0,0,0,0,3Z" fill="#f73943"/><path d="M421.84288,253.55815c3.86071,0,3.86711-6,0-6-3.86071,0-3.86711,6,0,6Z" fill="#f73943"/></svg>