<svg id="Layer_1" data-name="Layer 1" xmlns="http://www.w3.org/2000/svg" viewBox="0 0 700 550"><title>sending message or mail</title><path d="M477.69414,365.26018c-11.14462,60.91953-139.79822,161.06289-183.22779,80.47661-22.86036-42.419-90.63689-103.68663-142.869-140.13285-50.78835-35.43909,93.17827-96.95,183.22744-80.4764S488.83875,304.34065,477.69414,365.26018Z" fill="#d5efc8"/><path d="M494.47738,366.92192c12.25806-67.00647-58.2389-136.24216-157.14957-154.33727-35.99556-6.58456-84.44472-2.08078-129.60071,12.05008-43.13654,13.498-74.52077,32.88459-81.90618,50.59572-4.1278,9.89818-.63019,19.09239,10.11417,26.5898l.60619-.86752c-10.43415-7.28053-13.71221-15.79833-9.74352-25.31519,7.26809-17.42936,38.39988-36.58575,81.24576-49.99309,44.99956-14.08108,93.26029-18.57508,129.09407-12.01807,98.33648,17.98933,168.45124,86.67216,156.29806,153.10533Z" fill="#d5efc8"/><rect x="112.47573" y="474.63215" width="475.04854" height="1.82035" fill="#d5efc8"/><path d="M552.61889,343.59148H247.38111a1.24262,1.24262,0,0,0-1.13989.74788l-5.13445,11.82979a1.24262,1.24262,0,0,0,1.13989,1.73736h3.07654a1.24262,1.24262,0,0,1,1.24262,1.24262V475.20989a1.24262,1.24262,0,0,0,1.24262,1.24262h7.35638a1.24262,1.24262,0,0,0,1.24262-1.24262V436.53965a1.24262,1.24262,0,0,1,1.24262-1.24262H542.34994a1.24262,1.24262,0,0,1,1.24262,1.24262v38.67024a1.24262,1.24262,0,0,0,1.24262,1.24262h7.35638a1.24262,1.24262,0,0,0,1.24262-1.24262V359.14913a1.24262,1.24262,0,0,1,1.24262-1.24262h3.07654a1.24262,1.24262,0,0,0,1.13989-1.73736l-5.13445-11.82979A1.24262,1.24262,0,0,0,552.61889,343.59148Zm-10.269,81.41661H257.65006a1.24262,1.24262,0,0,1-1.24262-1.24262V359.14913a1.24262,1.24262,0,0,1,1.24262-1.24262H542.34994a1.24262,1.24262,0,0,1,1.24262,1.24262v64.61634A1.24262,1.24262,0,0,1,542.34994,425.00809Z" fill="#935b50"/><path d="M266.22411,284.09474H531.564a3.10655,3.10655,0,0,1,3.10655,3.10655v85.306a.60888.60888,0,0,1-.60888.60888H263.72644a.60888.60888,0,0,1-.60888-.60888v-85.306A3.10655,3.10655,0,0,1,266.22411,284.09474Z" fill="#d6694b"/><rect x="280.56397" y="296.84404" width="236.66017" height="63.52283" rx="6.21311" fill="#e19974"/><path d="M492.96282,334.94069s.28542-6.74469,8.03742-10.34937a.612.612,0,0,1,.76547.22291l.54283.83114a.5676.5676,0,0,1-.127.75986l-.05694.04407a.56865.56865,0,0,0,.48917,1.00046l.04207-.01072a.5695.5695,0,0,1,.69528.43516l.41428,1.95842a.60471.60471,0,0,1-.41585.70744,16.03544,16.03544,0,0,0-8.15056,5.54687.56924.56924,0,0,1-.19044.17061C494.5306,336.517,492.75383,337.32949,492.96282,334.94069Z" fill="#d6694b"/><path d="M443.4534,322.96566s-6.2464-2.56024-12.76161,2.975a.612.612,0,0,0-.1175.78856l.52811.84057a.56762.56762,0,0,0,.74336.20232l.06384-.0333a.56865.56865,0,0,1,.70435.8626l-.02732.03374a.5695.5695,0,0,0,.10465.81352l1.60593,1.19505a.6046.6046,0,0,0,.81657-.08215,16.03532,16.03532,0,0,1,8.44616-5.08534.56917.56917,0,0,0,.23463-.10171C444.23,325.04875,445.71077,323.77439,443.4534,322.96566Z" fill="#d6694b"/><path d="M347.7119,332.42942s.28543-6.74469,8.03743-10.34937a.612.612,0,0,1,.76547.22291l.54282.83114a.56762.56762,0,0,1-.12695.75987l-.05694.04407a.56864.56864,0,0,0,.48917,1.00045l.04207-.01071a.5695.5695,0,0,1,.69528.43515l.41428,1.95843a.6047.6047,0,0,1-.41586.70743,16.0354,16.0354,0,0,0-8.15055,5.54688.56942.56942,0,0,1-.19044.1706C349.27968,334.00571,347.50292,334.81823,347.7119,332.42942Z" fill="#d6694b"/><path d="M299.33055,335.251s-5.03491-4.49688-13.02318-1.45142a.612.612,0,0,0-.37376.70423l.21754.96857a.56761.56761,0,0,0,.63332.43866l.07129-.01011a.56865.56865,0,0,1,.37634,1.04812l-.037.0227a.56949.56949,0,0,0-.17265.80185l1.11542,1.66222a.60459.60459,0,0,0,.79721.19488,16.03536,16.03536,0,0,1,9.6586-1.9773.56931.56931,0,0,0,.25512-.01764C299.368,337.47382,301.189,336.76626,299.33055,335.251Z" fill="#d6694b"/><path d="M489.43359,320.65689a65.7631,65.7631,0,0,0-6.97689.00782,18.20254,18.20254,0,0,0-3.2389.60132,20.85972,20.85972,0,0,0-3.24917,1.32861,6.65639,6.65639,0,0,1,2.6091-2.76514,9.07459,9.07459,0,0,1,3.69821-1.156,11.20292,11.20292,0,0,1,3.78769.34277A9.12362,9.12362,0,0,1,489.43359,320.65689Z" fill="#d6694b"/><path d="M478.94971,337.59684a65.806,65.806,0,0,0-.66989-6.94483,18.21745,18.21745,0,0,0-.90595-3.167,20.875,20.875,0,0,0-1.63095-3.10864,6.65983,6.65983,0,0,1,3.00015,2.335,9.07727,9.07727,0,0,1,1.50183,3.57178,11.20524,11.20524,0,0,1,.01822,3.80322A9.12617,9.12617,0,0,1,478.94971,337.59684Z" fill="#d6694b"/><path d="M463.47742,312.92911a9.12378,9.12378,0,0,1,3.72177.44336,11.20958,11.20958,0,0,1,3.37091,1.761,9.08015,9.08015,0,0,1,2.48474,2.97314,6.65744,6.65744,0,0,1,.69827,3.73706,20.86913,20.86913,0,0,0-2.01376-2.87524,18.217,18.217,0,0,0-2.39856-2.25806A65.82073,65.82073,0,0,0,463.47742,312.92911Z" fill="#d6694b"/><path d="M463.12933,332.84781a9.12577,9.12577,0,0,1,.79468-3.66284,11.20544,11.20544,0,0,1,2.07294-3.18872,9.079,9.079,0,0,1,3.19549-2.19141,6.65648,6.65648,0,0,1,3.78641-.34033,20.84294,20.84294,0,0,0-3.05337,1.73169,18.21685,18.21685,0,0,0-2.47547,2.17359A65.75569,65.75569,0,0,0,463.12933,332.84781Z" fill="#d6694b"/><path d="M445.50008,324.31364a4.773,4.773,0,0,0-2.38618-1.16107c-1.05419-.21062-2.03695.84816-2.11421,2.22338l-2.20978,39.33265a6.47722,6.47722,0,0,1-1.59513,3.96949,14.96041,14.96041,0,0,0-1.54677,2.03265c-.54028.85107-.09554,2.108.74578,2.15318,9.4023.50528,51.47844-.472,59.25869-.03055.68833.03906.85778-.89427.58219-1.6964a4.18251,4.18251,0,0,0-1.101-1.9387,3.80852,3.80852,0,0,1-1.154-3.10339c.39028-7.47389,1.65089-25.63735,3.52451-32.19853.5918-2.07241-.97172-4.08042-2.56444-3.2458a6.57626,6.57626,0,0,0-.95684.62649,4.02112,4.02112,0,0,1-4.55734.33033c-6.103-3.44656-22.306-11.00441-40.46955-6.37883A3.64353,3.64353,0,0,1,445.50008,324.31364Z" fill="#935b50"/><path d="M252.54285,385.19445H546.14a.60888.60888,0,0,1,.60888.60888v36.71947a2.48524,2.48524,0,0,1-2.48524,2.48524H254.4192a2.48524,2.48524,0,0,1-2.48524-2.48524V385.80333a.60888.60888,0,0,1,.60888-.60888Z" fill="#d6694b"/><path d="M545.27886,385.19445H253.32756a.60889.60889,0,0,1-.44678-1.02257l10.056-10.86051a.60889.60889,0,0,1,.44678-.19521H534.41834a.60888.60888,0,0,1,.43055.17834L545.7094,384.155A.60888.60888,0,0,1,545.27886,385.19445Z" fill="#e19974"/><path d="M341.52286,312.2587a65.77606,65.77606,0,0,0-5.03549,4.82935,18.21436,18.21436,0,0,0-1.92438,2.67358,20.86008,20.86008,0,0,0-1.429,3.2063,6.65657,6.65657,0,0,1-.02655-3.80151,9.07515,9.07515,0,0,1,1.87271-3.39209,11.20323,11.20323,0,0,1,2.97364-2.3711A9.1252,9.1252,0,0,1,341.52286,312.2587Z" fill="#d6694b"/><path d="M345.65982,331.74625a65.77853,65.77853,0,0,0-5.28528-4.55444,18.2184,18.2184,0,0,0-2.84427-1.66211,20.88014,20.88014,0,0,0-3.32742-1.11817,6.65629,6.65629,0,0,1,3.78192-.3872,9.07869,9.07869,0,0,1,3.55451,1.54223,11.20465,11.20465,0,0,1,2.64248,2.73535A9.12632,9.12632,0,0,1,345.65982,331.74625Z" fill="#d6694b"/><path d="M317.42664,324.62052a9.12924,9.12924,0,0,1,2.9956-2.25269,11.20548,11.20548,0,0,1,3.653-1.0581,9.074,9.074,0,0,1,3.85073.43017,6.65774,6.65774,0,0,1,3.08814,2.21729,20.86173,20.86173,0,0,0-3.44281-.68531,18.23657,18.23657,0,0,0-3.2941.02686A65.80068,65.80068,0,0,0,317.42664,324.62052Z" fill="#d6694b"/><path d="M330.94617,339.2526a9.127,9.127,0,0,1-1.95822-3.1958,11.20611,11.20611,0,0,1-.70676-3.73706,9.07679,9.07679,0,0,1,.79373-3.79248,6.65578,6.65578,0,0,1,2.50031-2.86377,20.8601,20.8601,0,0,0-1.00879,3.3623,18.213,18.213,0,0,0-.28589,3.28174A65.80783,65.80783,0,0,0,330.94617,339.2526Z" fill="#d6694b"/><path d="M345.96824,331.29794a4.92361,4.92361,0,0,1,2.35445-.86854,1.84634,1.84634,0,0,1,1.91062,1.98072l.00008,33.3679a5.08141,5.08141,0,0,0,1.31785,3.43272,12.72411,12.72411,0,0,1,1.37592,1.79246,1.1508,1.1508,0,0,1-.83246,1.78547c-9.0577-.0194-49.59847-.00042-57.09483.00329-.66321.00033-.77559-.797-.46762-1.46227a3.53139,3.53139,0,0,1,1.16207-1.58722,3.07267,3.07267,0,0,0,1.27579-2.56965c.02843-6.33908-.02077-24.604-1.46626-30.2417-.45657-1.78072,1.15346-3.40457,2.63816-2.62308a6.35061,6.35061,0,0,1,.88518.57528,4.28465,4.28465,0,0,0,4.35927.49587c6.04762-2.62474,22.01759-8.24646,39.21316-3.47173A3.87427,3.87427,0,0,0,345.96824,331.29794Z" fill="#935b50"/><path d="M151.95643,460.18838c0,.097,1.0101-.1405.99827-.03165,0,0-9.93944,16.29578-11.03033,16.29578a2.74859,2.74859,0,0,1-.31473-.02426,2.22459,2.22459,0,0,1-1.89013-2.508l7.75385-13.76348Z" fill="#935b50"/><path d="M202.65515,460.18838c0,.097-1.0101-.1405-.99827-.03165,0,0,9.93944,16.29578,11.03033,16.29578a2.74841,2.74841,0,0,0,.31473-.02426,2.22457,2.22457,0,0,0,1.89013-2.508l-7.75385-13.76348Z" fill="#935b50"/><path d="M218.17662,423.56009H136.11533V388.75544a2.42315,2.42315,0,0,1,2.42315-2.42315h77.215a2.42316,2.42316,0,0,1,2.42316,2.42315Z" fill="#d6694b"/><path d="M147.4736,460.78675h-8.92932a2.42315,2.42315,0,0,1-2.42315-2.42315V423.555h82.06008V458.3636a2.42316,2.42316,0,0,1-2.42316,2.42315h-6.15481" fill="#d6694b"/><rect x="139.68423" y="390.16647" width="74.92348" height="29.55943" rx="2.42315" fill="#e19974"/><ellipse cx="177.14597" cy="404.94619" rx="4.12577" ry="4.08451" fill="#935b50"/><rect x="139.68423" y="427.39428" width="74.92348" height="29.55943" rx="2.42315" fill="#e19974"/><ellipse cx="177.14597" cy="442.17399" rx="4.12577" ry="4.08451" fill="#935b50"/><polygon points="198.818 345.14 155.484 345.14 159.194 311.304 195.108 311.304 198.818 345.14" fill="#ffba55"/><polygon points="181.974 357.643 181.974 353.97 179.006 353.97 179.006 345.14 175.296 345.14 175.296 353.97 172.328 353.97 172.328 357.643 169.805 357.643 169.805 361.316 172.328 361.316 175.296 361.316 179.006 361.316 181.974 361.316 184.497 361.316 184.497 357.643 181.974 357.643" fill="#a2aee6"/><path d="M185.21473,376.74815l2.04032-13.1248a2,2,0,0,0-1.97626-2.30722h-16.282a2,2,0,0,0-1.97962,2.28474l1.87366,13.02635a7.62444,7.62444,0,0,0,4.84373,6.04075h-4.933a1,1,0,0,0-1,1v3.2296h18.69907V383.668a1,1,0,0,0-1-1h-5.03184A7.6218,7.6218,0,0,0,185.21473,376.74815Z" fill="#8795de"/><path d="M163.34947,311.98788a58.07554,58.07554,0,0,1-.99286,8.0315,57.39877,57.39877,0,0,1-1.97524,7.84787,57.39741,57.39741,0,0,1,.99286-8.0315A58.07432,58.07432,0,0,1,163.34947,311.98788Z" fill="#e6952a"/><path d="M168.39526,311.98788a38.912,38.912,0,0,1,.49969,6.604,38.469,38.469,0,0,1-.49969,6.604,38.468,38.468,0,0,1-.49971-6.604A38.91,38.91,0,0,1,168.39526,311.98788Z" fill="#e6952a"/><path d="M173.29263,311.98788a107.0256,107.0256,0,0,1,.49971,10.982,105.7731,105.7731,0,0,1-.49971,10.982,105.76755,105.76755,0,0,1-.4997-10.982A107.01992,107.01992,0,0,1,173.29263,311.98788Z" fill="#e6952a"/><path d="M176.40914,328.9061a27.74845,27.74845,0,0,1,.4997,5.56518,27.43344,27.43344,0,0,1-.4997,5.56522,27.43417,27.43417,0,0,1-.49971-5.56522A27.7492,27.7492,0,0,1,176.40914,328.9061Z" fill="#e6952a"/><path d="M179.37725,311.98788c.37883,2.38437.64835,4.77665.90128,7.17011.26431,2.39264.45028,4.79092.636,7.18924.162,2.4.32187,4.8002.40464,7.206l.12057,3.60886c.00371,1.20559.04175,2.40869.01523,3.61648-.19965-1.19146-.33476-2.38757-.50418-3.5812l-.39885-3.58878c-.26352-2.3927-.44988-4.79095-.63422-7.18939-.1606-2.40012-.3209-4.80026-.40286-7.20606C179.42146,316.80814,179.34469,314.402,179.37725,311.98788Z" fill="#e6952a"/><path d="M185.90708,311.98788c.83568,3.70084,1.37061,7.43741,1.83187,11.18274a112.377,112.377,0,0,1,.83943,11.30066,112.37,112.37,0,0,1-1.83187-11.18274C186.31733,319.5394,185.96185,315.78152,185.90708,311.98788Z" fill="#e6952a"/><path d="M188.57838,337.81042a9.15184,9.15184,0,0,1,.93989,3.04584,9.04887,9.04887,0,0,1-.04947,3.18717,9.04956,9.04956,0,0,1-.93989-3.04584A9.15215,9.15215,0,0,1,188.57838,337.81042Z" fill="#e6952a"/><path d="M189.4688,313.02673a105.07228,105.07228,0,0,1,2.34746,10.63709,103.85471,103.85471,0,0,1,1.36269,10.80746,103.85387,103.85387,0,0,1-2.34746-10.63708A105.08209,105.08209,0,0,1,189.4688,313.02673Z" fill="#e6952a"/><path d="M164.38831,328.9061a27.98708,27.98708,0,0,1-.02188,5.61163,27.669,27.669,0,0,1-1.017,5.51877,27.66922,27.66922,0,0,1,.02188-5.61163A27.987,27.987,0,0,1,164.38831,328.9061Z" fill="#e6952a"/><polygon points="404.512 207.831 417.925 215.54 420.57 232.523 407.654 233.642 396.467 227.438 404.512 207.831" fill="#f9977a"/><path d="M359.64054,137.23307a19.93558,19.93558,0,0,1,9.26888,1.19384c1.382.55739,6.43689,2.59581,8.73145,7.56171.87148,1.88593.99159,4.11512,1.23222,8.57359.15031,2.78472,1.13373,4.81651.988,8.199a28.60219,28.60219,0,0,1-1.67892,8.01463c-1.41812,4.03608-.7162,6.39333-1.36908,7.13126-2.631,2.974-10.11667.23359-10.40189,4.24846-.17618,2.47912,5.64837,8.64041,4.55209,11.33782-2.946,7.24867-13.48434,22.60322-20.82053,19.38338-5.44954-2.39181-7.22913-15.27034-3.57479-23.97655,1.86462-4.44243,4.21515-5.58537,5.18657-10.8307a26.79518,26.79518,0,0,0-1.27732-13.2674c-1.38988-3.90283-3.27457-6.75831-4.80618-12.18747a9.65771,9.65771,0,0,1,1.99114-9.23506A19.7275,19.7275,0,0,1,359.64054,137.23307Z" fill="#f9977a"/><ellipse cx="377.62046" cy="158.86913" rx="1.29694" ry="1.04295" transform="translate(202.81649 529.38254) rotate(-87.55963)" fill="#0a0709"/><ellipse cx="368.22531" cy="158.46872" rx="1.29694" ry="1.04295" transform="translate(194.22142 519.61255) rotate(-87.55963)" fill="#0a0709"/><path d="M369.70629,152.58565a.658.658,0,0,1,.68139,1.04676,6.99531,6.99531,0,0,1-7.41265,2.44231.65839.65839,0,0,1,.4199-1.248,5.58218,5.58218,0,0,0,5.9642-2.01505A.654.654,0,0,1,369.70629,152.58565Z" fill="#1e1d22"/><path d="M379.86825,155.32549a.65794.65794,0,0,1-.22526,1.22851,6.99528,6.99528,0,0,1-7.06087-3.32511.65853.65853,0,0,1,1.16277-.61855,5.56773,5.56773,0,0,0,5.71592,2.64044A.65389.65389,0,0,1,379.86825,155.32549Z" fill="#1e1d22"/><path d="M371.85671,156.56769a5.88545,5.88545,0,0,0,.43518,3.16279,13.10661,13.10661,0,0,0,1.5167,2.84234l.49936.64937a1.278,1.278,0,0,1,.29986.89208,2.09277,2.09277,0,0,1-.94942,1.47195,3.7745,3.7745,0,0,1-3.26106.27269,4.05131,4.05131,0,0,0,3.05837-.54269,1.87787,1.87787,0,0,0,.75327-1.22337c.05276-.439-.43034-.79555-.75209-1.25826a11.95057,11.95057,0,0,1-1.478-2.98187A5.16444,5.16444,0,0,1,371.85671,156.56769Z" fill="#dd765e"/><path d="M354.76433,156.27847a3.96543,3.96543,0,0,0-1.01913.45055,4.82146,4.82146,0,0,0-.86294.66081,15.68394,15.68394,0,0,0-1.5087,1.65885c.05024-.18892.12657-.36651.19079-.55315l.27481-.517a4.821,4.821,0,0,1,.749-.91362A2.73786,2.73786,0,0,1,354.76433,156.27847Z" fill="#dd765e"/><path d="M353.68752,161.64581a7.99619,7.99619,0,0,0,.07606-2.40756,5.38676,5.38676,0,0,0-.24076-1.1619c-.10336-.38866-.2731-.75463-.42232-1.15181a3.50859,3.50859,0,0,1,.73693,1.0295,4.21766,4.21766,0,0,1,.36129,1.23173A3.8088,3.8088,0,0,1,353.68752,161.64581Z" fill="#dd765e"/><path d="M359.8558,166.74668s-1.40852-7.52528-1.00162-9.64521c.56727-2.954.85094-4.43094.54646-5.65589-.48729-1.9607.46712-2.17263,1.76948-4.202,1.22231-1.9046,4.68408-.17317,5.57865-.46118,2.51076-.80846,2.4637-1.85317,4.13927-1.88586,1.71848-.03353,2.99556-.43272,4.05563.72028,1.08107,1.17683,3.02536,4.26539,3.5585,3.76667a9.77547,9.77547,0,0,0,2.12129-4.84232,10.836,10.836,0,0,0-.99815-5.11119c-.36723-.92006-1.73483-4.3442-4.84223-5.3752-1.78974-.59391-2.17454.26384-6.10355.32876-4.07518.06747-4.16263-.84681-6.31721-.33249-2.385.56945-2.34362,1.70478-6.46438,3.73292a41.73914,41.73914,0,0,1-4.19208,1.72012c-5.14688,1.92538-5.79346,1.55489-7.00407,2.62891-2.60992,2.31553-2.37812,6.498-2.32214,7.5082.15784,2.84526,1.22784,3.74385,3.44054,8.38519,3.50362,7.35019,2.61039,10.33793,3.96378,11.40528.66392.5236,4.38746-1.8915,4.42467-3.15818.049-1.66043-1.12436-2.235-2.43027-4.69365-.912-1.71824-2.22209-4.18516-1.31605-6.33219.54823-1.29782,1.08181-.91367,2.44286-.72873,1.84721.251,2.64944,2.87321,3.31225,4.80087a10.15769,10.15769,0,0,1,.49421,4.344C356.37543,166.93633,360.439,168.08012,359.8558,166.74668Z" fill="#1e1d22"/><path d="M375.69361,173.76828a10.8851,10.8851,0,0,0-3.49113-2.1742,4.80416,4.80416,0,0,0-1.91725-.25184,11.7617,11.7617,0,0,0-2.09049.35122,4.1582,4.1582,0,0,1,1.95914-1.15957,4.37869,4.37869,0,0,1,1.1855-.1543,5.306,5.306,0,0,1,1.18594.21695,4.99348,4.99348,0,0,1,1.98005,1.24726A4.763,4.763,0,0,1,375.69361,173.76828Z" fill="#dd765e"/><path d="M372.08237,166.06835c2.221.01784,2.68354-1.07258,6.29325,4.14026,0,0-4.2436-1.52669-12.86289.171C365.51273,170.37959,368.90238,166.0428,372.08237,166.06835Z" fill="#1e1d22"/><path d="M366.83052,183.82273c-3.97427-.4697-8.721-6.74146-8.721-6.74146a22.58234,22.58234,0,0,0,9.96589,3.019h0a2.22256,2.22256,0,0,0-1.66438,2.05522,3.80791,3.80791,0,0,0,.41945,1.66723Z" fill="#dd765e"/><path d="M335.74932,443.24487l-1.927,11.03688s-12.02041,16.47433-20.59956,2.3l2.83289-13.33683Z" fill="#f9977a"/><path d="M365.784,443.363l-4.45913,23.19945s14.72937,6.34132,23.30851-7.83305l-1.07792-14.83975Z" fill="#f9977a"/><path d="M391.40708,275.83,388.10667,446.142a2.43011,2.43011,0,0,1-2.4264,2.296H363.09519a2.43011,2.43011,0,0,1-2.42871-2.51264l-.20833-154.31151L337.45586,446.4375A2.4301,2.4301,0,0,1,335.064,448.438H314.82688a2.43012,2.43012,0,0,1-2.40823-2.75549L332.57694,275.83Z" fill="#6c7fd8"/><polygon points="376.146 273.609 376.293 317.316 376.371 361.024 376.306 404.731 376.272 426.584 376.171 448.438 376.064 426.584 376.023 404.731 375.946 361.024 376.011 317.316 376.146 273.609" fill="#065082"/><polygon points="348.774 273.609 342.842 317.336 336.84 361.053 330.698 404.75 327.625 426.599 324.486 448.438 327.419 426.57 330.418 404.711 336.419 360.994 342.562 317.297 348.774 273.609" fill="#065082"/><path d="M381.39774,275.83a41.20111,41.20111,0,0,0,.777,5.58911,27.87982,27.87982,0,0,0,1.63623,5.36524,14.73183,14.73183,0,0,0,2.98783,4.67968,9.71326,9.71326,0,0,0,4.811,2.72364,10.13579,10.13579,0,0,1-2.7124-.83277,9.92335,9.92335,0,0,1-2.32852-1.65771,14.42953,14.42953,0,0,1-3.14911-4.7461,25.9314,25.9314,0,0,1-1.56513-5.47045A29.949,29.949,0,0,1,381.39774,275.83Z" fill="#065082"/><path d="M341.926,279.12809a30.81381,30.81381,0,0,1-3.60306,7.95117,13.72333,13.72333,0,0,1-2.927,3.28442,5.9924,5.9924,0,0,1-1.96759,1.01831,3.915,3.915,0,0,1-2.18158-.04858,4.63358,4.63358,0,0,0,3.94635-1.22681,14.43787,14.43787,0,0,0,2.77511-3.262,34.30577,34.30577,0,0,0,2.14591-3.76C340.75955,281.78946,341.37161,280.47281,341.926,279.12809Z" fill="#065082"/><path d="M333.82232,454.28175s10.5254,13.14729,4.69156,20.89636a3.24252,3.24252,0,0,1-2.60965,1.27435l-52.18185-.28329a1.70119,1.70119,0,0,1-1.67523-1.90131c.29948-2.70326,19.07291-7.27727,31.17561-17.68616C313.22276,456.5817,328.91053,461.09,333.82232,454.28175Z" fill="#f73c4f"/><path d="M363.725,454.28175s-10.52539,13.14729-4.69156,20.89636a3.24252,3.24252,0,0,0,2.60965,1.27435l52.18185-.28329a1.70119,1.70119,0,0,0,1.67523-1.90131c-.29947-2.70326-19.07291-7.27727-31.17561-17.68616C384.32459,456.5817,368.63683,461.09,363.725,454.28175Z" fill="#f73c4f"/><path d="M404.60294,207.30233c-15.66139-9.45789-24.50922-13.83091-29.4414-15.83943-.81044-.33-1.47491-.60188-2.11342-.84209a18.31893,18.31893,0,0,0-2.90669-.89321c.03766.42633-2.91393,16.06249-21.91733-3.80474l-13.8993,7.18307c-8.80107,2.87048-18.60532,6.264-18.60532,6.264-4.67809,4.67809-1.22031,18.30549-1.22031,18.30549l14.67854,3.06128c6.79,25.16034,3.39927,55.09324,3.39927,55.09324l-.50891,4.28767c24.00066,9.96635,59.31433,0,59.31433,0s3.36311-28.882.9622-55.066l4.12267,2.38684A56.08,56.08,0,0,0,404.60294,207.30233Z" fill="#f73c4f"/><path d="M364.19767,196.113c1.17384,3.53712,2.29972,7.086,3.29345,10.67395q1.5687,5.357,2.89228,10.77839c1.77787,7.22156,3.33155,14.49638,4.49545,21.83576a200.55862,200.55862,0,0,1,2.33574,22.14888c.06256,3.71083.23628,7.42909-.00813,11.13964.01112,3.72811-.55516,7.407-.85985,11.1271a114.53069,114.53069,0,0,0,1.76765-22.29444,180.92969,180.92969,0,0,0-2.0813-22.30644c-1.26651-7.36239-2.81095-14.67637-4.78235-21.87648A191.17213,191.17213,0,0,0,364.19767,196.113Z" fill="#b02336"/><path d="M373.47093,195.95013a18.3458,18.3458,0,0,1,.0687,5.87428c-.20931.9411-.756,1.59921-1.57961,1.36593a6.72647,6.72647,0,0,1-2.4113-1.32909,35.58357,35.58357,0,0,1-4.22712-4.16425l-.86-.96166-.09531,1.30923a9.82164,9.82164,0,0,1-1.03266,3.88755,3.72383,3.72383,0,0,1-2.87684,2.14333,7.3113,7.3113,0,0,1-3.82838-.93752,20.60093,20.60093,0,0,1-3.52731-2.27976,86.70137,86.70137,0,0,1-11.65936-11.43024c1.71065,2.31062,2.94228,3.97329,4.85709,6.13077a56.12469,56.12469,0,0,0,6.18845,6.08373,21.57751,21.57751,0,0,0,3.66439,2.44077,8.32693,8.32693,0,0,0,4.4201,1.10767,4.7711,4.7711,0,0,0,3.78312-2.71559,10.88729,10.88729,0,0,0,1.10537-4.397l-.95507.34757a36.50066,36.50066,0,0,0,4.43094,4.23482,6.79626,6.79626,0,0,0,2.88727,1.43479,1.90279,1.90279,0,0,0,1.75291-.5424,3.01988,3.01988,0,0,0,.72638-1.55137,11.3327,11.3327,0,0,0,.08814-3.11429,25.05268,25.05268,0,0,0-.44828-3.01573C372.99205,188.82209,372.665,188.89274,373.47093,195.95013Z" fill="#b02336"/><circle cx="368.82499" cy="219.3917" r="1.22472" fill="#b02336"/><circle cx="365.15087" cy="205.1724" r="1.22472" fill="#b02336"/><circle cx="371.87757" cy="236.06307" r="1.22471" fill="#b02336"/><circle cx="374.38529" cy="253.65539" r="1.22471" fill="#b02336"/><circle cx="375.15407" cy="272.91932" r="1.22471" fill="#b02336"/><path d="M314.49917,217.67544s-18.25032,4.015-21.04011-8.52692a5.6497,5.6497,0,0,1,.6565-4.06091c2.80092-4.81155,18.39559-30.282,41.61259-46.79537,0,0,8.77144-12.02577,14.41562-12.55969s9.45787,1.678,8.69514,2.74583-8.15245,1.26955-8.83891,1.26955c0,0,5.86334,3.41242,5.71171,5.67125-.37259,5.55062-13.72913,9.00032-13.72913,9.00032l-23.19781,33.98987a37.80679,37.80679,0,0,0-3.99635,12.48521A37.29039,37.29039,0,0,0,314.49917,217.67544Z" fill="#f9977a"/><path d="M305.14294,215.59073a19.73514,19.73514,0,0,0,4.60291-3.17724,28.539,28.539,0,0,0,3.75607-4.135,34.91373,34.91373,0,0,0,2.97037-4.7439c.45963-.81543.81317-1.68457,1.22824-2.52539.37686-.85767.72089-1.73145,1.08423-2.59985-.29779.89038-.57773,1.79052-.89255,2.679-.37759.86206-.70086,1.7522-1.129,2.59326a31.72136,31.72136,0,0,1-2.92254,4.85059,26.45864,26.45864,0,0,1-3.88236,4.12646A16.826,16.826,0,0,1,305.14294,215.59073Z" fill="#dd765e"/><path d="M455.68575,152.23383l13.09325-2.42926s-.84628-10.13651-23.33931-8.09944c-11.83625,1.072-17.51765,5.76062-20.24428,9.96281a12.32559,12.32559,0,0,0-1.35284,10.50752,82.91688,82.91688,0,0,1,3.11533,13.19808c1.13571,7.51921,1.73425,11.482.41391,16.17607-1.96048,6.96983-6.175,8.52546-13.07168,17.284a89.15243,89.15243,0,0,0-10.7195,17.96105s-2.82559,6.46678-7.42177,32.7298h0l-13.20735-1.703c1.32142,2.16483,7.44384,11.66216,19.73114,14.86626a31.1359,31.1359,0,0,0,14.84959.20164,22.36382,22.36382,0,0,0,16.79083-17.0916,88.8197,88.8197,0,0,1,9.00048-23.98076c6.79619-12.26,12.76593-15.91867,17.003-26.76528,3.40972-8.72843,4.90975-20.09514,1.45368-34.94249Q458.733,161.1716,455.68575,152.23383Z" fill="#efedef"/><path d="M458.82855,197.13988s-2.33317.04608-2.01113,1.60884a1.85887,1.85887,0,0,0,1.58681,1.40375c2.37033.34535,8.26373.93464,6.89015-2.00571,0,0,3.36071-1.362,1.14984-3.03272,0,0,2.04226-1.33954.25377-2.73586,0,0,1.64855-1.12623-.46556-2.58041s-9.16761-.19466-6.91417,1.71056l.73891.33528a1.59128,1.59128,0,0,0-.70135,2.63554S457.09045,195.3954,458.82855,197.13988Z" fill="#f9977a"/><path d="M465.29437,198.14688a14.70544,14.70544,0,0,1-3.28332-.17993,14.53137,14.53137,0,0,1-3.1825-.82715,14.53231,14.53231,0,0,1,3.28333.17994A14.69137,14.69137,0,0,1,465.29437,198.14688Z" fill="#dd765e"/><path d="M466.44421,195.11393a17.3293,17.3293,0,0,1-3.57342.009,17.14339,17.14339,0,0,1-3.515-.6438,17.126,17.126,0,0,1,3.57343-.00879A17.32853,17.32853,0,0,1,466.44421,195.11393Z" fill="#dd765e"/><path d="M466.698,192.37809a17.10042,17.10042,0,0,1-6.64084-.53443,15.05239,15.05239,0,0,1,3.34671-.05932A15.22994,15.22994,0,0,1,466.698,192.37809Z" fill="#dd765e"/><path d="M424.77216,156.46622a16.19567,16.19567,0,0,1,2.88479-4.69287,7.20373,7.20373,0,0,1,4.8407-2.57788,6.42738,6.42738,0,0,1,2.76282.53076,10.9048,10.9048,0,0,1,2.38556,1.47022,21.32324,21.32324,0,0,1,3.72775,4.11206l-.20194-.07691c2.4137-.52368,4.82758-1.04639,7.248-1.53955,2.41644-.51123,4.84219-.98022,7.26593-1.45825-2.40012.5852-4.79819,1.17969-7.2056,1.73193-2.40344.57031-4.81335,1.11084-7.22351,1.65064l-.12469.02783-.07755-.105a22.97,22.97,0,0,0-3.66534-4.02661,7.47143,7.47143,0,0,0-4.8765-1.95581,6.96914,6.96914,0,0,0-4.68737,2.37549A16.69625,16.69625,0,0,0,424.77216,156.46622Z" fill="#d1d1d1"/><path d="M426.88092,264.97574a16.20206,16.20206,0,0,1-4.18484,3.582,7.20365,7.20365,0,0,1-5.39805.96924,6.42713,6.42713,0,0,1-2.46691-1.35254,10.90169,10.90169,0,0,1-1.8198-2.13086,21.32073,21.32073,0,0,1-2.28714-5.05713l.16861.13526c-2.458-.2417-4.91586-.48438-7.37091-.75733-2.45679-.25439-4.90945-.55175-7.363-.84008,2.464.17895,4.92881.34838,7.38953.56128,2.46249.19409,4.92212.41845,7.38168.644l.12723.01147.04163.12378a22.9648,22.9648,0,0,0,2.254,4.95655,7.47191,7.47191,0,0,0,4.04178,3.35717,6.97,6.97,0,0,0,5.19-.82373A16.69812,16.69812,0,0,0,426.88092,264.97574Z" fill="#d1d1d1"/><path d="M438.22971,164.41959c1.36441.8352,2.7575,1.61719,4.15518,2.38428,1.40457.75415,2.80929,1.50927,4.2633,2.15869a43.62558,43.62558,0,0,0,4.41132,1.81372,26.26,26.26,0,0,0,4.62625,1.16894,19.72117,19.72117,0,0,1-4.72665-.85888,36.87451,36.87451,0,0,1-4.48966-1.74A48.17593,48.17593,0,0,1,438.22971,164.41959Z" fill="#d1d1d1"/><path d="M432.33124,163.80924l2.81177,2.39038c.94342.78613,1.88,1.57934,2.85812,2.3186.9563.76636,1.94156,1.4961,2.956,2.18018a23.718,23.718,0,0,0,3.171,1.85693,15.31572,15.31572,0,0,1-3.3471-1.58276,33.70179,33.70179,0,0,1-3.04084-2.1211A43.69369,43.69369,0,0,1,432.33124,163.80924Z" fill="#d1d1d1"/><path d="M410.5014,247.47281c1.36441.83545,2.75751,1.61743,4.15519,2.38452,1.40457.75415,2.80929,1.509,4.2633,2.15845a43.62558,43.62558,0,0,0,4.41132,1.81372,26.23876,26.23876,0,0,0,4.62625,1.16895,19.70947,19.70947,0,0,1-4.72666-.85889,36.83227,36.83227,0,0,1-4.48965-1.74A48.1764,48.1764,0,0,1,410.5014,247.47281Z" fill="#d1d1d1"/><path d="M404.60294,246.86271l2.81176,2.39013c.94342.78613,1.88,1.57935,2.85813,2.31861.9563.76635,1.94156,1.49609,2.956,2.18017a23.68864,23.68864,0,0,0,3.171,1.85693,15.31489,15.31489,0,0,1-3.34711-1.58251,33.6569,33.6569,0,0,1-3.04083-2.12134A43.7116,43.7116,0,0,1,404.60294,246.86271Z" fill="#d1d1d1"/><path d="M443.12967,150.53482a16.71348,16.71348,0,0,1,4.19775-1.96972,28.598,28.598,0,0,1,4.53766-1.032,33.91,33.91,0,0,1,4.64206-.27613c.77478-.00122,1.54791.06958,2.32013.10327l2.30286.27637c-1.54477-.05957-3.08377-.10059-4.62036-.05371a40.04247,40.04247,0,0,0-4.58677.36938,32.70027,32.70027,0,0,0-4.50109.92334A21.472,21.472,0,0,0,443.12967,150.53482Z" fill="#d1d1d1"/><path d="M433.97693,147.41056a42.37961,42.37961,0,0,1,8.85712-2.92408,39.58572,39.58572,0,0,1,4.62664-.686,27.133,27.133,0,0,1,4.66922.02246,42.93994,42.93994,0,0,0-4.63656.302c-1.53272.20191-3.06345.427-4.57138.77539-1.51587.30786-3.01416.69824-4.50568,1.11548C436.9277,146.44254,435.44269,146.89273,433.97693,147.41056Z" fill="#d1d1d1"/><path d="M350,149.748a1.23407,1.23407,0,0,0-.878.18848,4.46648,4.46648,0,0,0-.7619.51928,12.11077,12.11077,0,0,0-1.3584,1.27759c-.44836.43628-.85941.91284-1.28046,1.38135-.43017.46216-.835.94726-1.28921,1.39892a14.7273,14.7273,0,0,1,1.03677-1.605,15.79891,15.79891,0,0,1,1.22885-1.46972,9.28694,9.28694,0,0,1,1.47351-1.24707,4.51184,4.51184,0,0,1,.87-.44556A1.20908,1.20908,0,0,1,350,149.748Z" fill="#dd765e"/><path d="M355.32166,156.92447a5.23336,5.23336,0,0,1-1.50473,2.35547,6.85435,6.85435,0,0,1-1.14371.83032,5.27442,5.27442,0,0,1-1.29965.53052,17.58665,17.58665,0,0,0,2.15557-1.67139A12.41588,12.41588,0,0,0,355.32166,156.92447Z" fill="#dd765e"/><path d="M243.10753,196.37276H169.4633a2,2,0,0,1-2-2V114.64538a2,2,0,0,1,2-2h87.28846a2,2,0,0,1,2,2v66.67506Z" fill="#ffba55"/><path d="M256.75178,196.37277a2,2,0,0,0,2-2V181.32046l-15.64422,15.05231Z" fill="#ffba55"/><path d="M183.10738,122.02517a1.49975,1.49975,0,0,1-1.5-1.5v-14.3999a1.5,1.5,0,0,1,3,0v14.3999A1.49976,1.49976,0,0,1,183.10738,122.02517Z" fill="#e6952a"/><path d="M173.10738,122.02517a1.49975,1.49975,0,0,1-1.5-1.5v-14.3999a1.5,1.5,0,0,1,3,0v14.3999A1.49976,1.49976,0,0,1,173.10738,122.02517Z" fill="#e6952a"/><path d="M193.10738,122.02517a1.49975,1.49975,0,0,1-1.5-1.5v-14.3999a1.5,1.5,0,0,1,3,0v14.3999A1.49976,1.49976,0,0,1,193.10738,122.02517Z" fill="#e6952a"/><path d="M203.10738,122.02517a1.49975,1.49975,0,0,1-1.5-1.5v-14.3999a1.5,1.5,0,0,1,3,0v14.3999A1.49976,1.49976,0,0,1,203.10738,122.02517Z" fill="#e6952a"/><path d="M213.10738,122.02517a1.49975,1.49975,0,0,1-1.5-1.5v-14.3999a1.5,1.5,0,0,1,3,0v14.3999A1.49976,1.49976,0,0,1,213.10738,122.02517Z" fill="#e6952a"/><path d="M223.10738,122.02517a1.49975,1.49975,0,0,1-1.5-1.5v-14.3999a1.5,1.5,0,0,1,3,0v14.3999A1.49976,1.49976,0,0,1,223.10738,122.02517Z" fill="#e6952a"/><path d="M233.10738,122.02517a1.49975,1.49975,0,0,1-1.5-1.5v-14.3999a1.5,1.5,0,0,1,3,0v14.3999A1.49976,1.49976,0,0,1,233.10738,122.02517Z" fill="#e6952a"/><path d="M243.10738,122.02517a1.49975,1.49975,0,0,1-1.5-1.5v-14.3999a1.5,1.5,0,0,1,3,0v14.3999A1.49976,1.49976,0,0,1,243.10738,122.02517Z" fill="#e6952a"/><path d="M253.10738,122.02517a1.49975,1.49975,0,0,1-1.5-1.5v-14.3999a1.5,1.5,0,0,1,3,0v14.3999A1.49976,1.49976,0,0,1,253.10738,122.02517Z" fill="#e6952a"/><polygon points="258.682 181.249 243.039 181.393 243.177 196.445 258.682 181.249" fill="#e6952a"/><circle cx="221.60738" cy="137.52501" r="6.48" fill="#e6952a"/><circle cx="239.58738" cy="137.52501" r="6.48" fill="#e6952a"/><circle cx="184.19612" cy="153.52501" r="6.48" fill="#e6952a"/><circle cx="203.10738" cy="153.52501" r="6.48" fill="#e6952a"/><circle cx="221.60738" cy="153.52501" r="6.48" fill="#e6952a"/><circle cx="239.58738" cy="153.52501" r="6.48" fill="#e6952a"/><circle cx="184.19612" cy="169.52501" r="6.48" fill="#e6952a"/><circle cx="203.10738" cy="169.52501" r="6.48" fill="#e6952a"/><circle cx="221.60738" cy="169.52501" r="6.48" fill="#e6952a"/><circle cx="239.58738" cy="169.52501" r="6.48" fill="#e6952a"/><circle cx="184.19612" cy="184.52501" r="6.48" fill="#e6952a"/><path d="M199.34155,163.186a37.70428,37.70428,0,0,1,4.32028,6.00976c.618,1.06226,1.222,2.13282,1.76139,3.2417a26.77582,26.77582,0,0,1,1.45,3.42676,26.81434,26.81434,0,0,1-2.31584-2.91235c-.71585-1.00415-1.36711-2.04663-2.00444-3.09742A37.72159,37.72159,0,0,1,199.34155,163.186Z" fill="#af2f2f"/><path d="M206.8732,163.186a37.723,37.723,0,0,1-3.21137,6.66845c-.63732,1.05079-1.2886,2.09327-2.00444,3.09742a26.81434,26.81434,0,0,1-2.31584,2.91235,26.77725,26.77725,0,0,1,1.45-3.42676c.53943-1.10888,1.14344-2.17944,1.76139-3.2417A37.70428,37.70428,0,0,1,206.8732,163.186Z" fill="#af2f2f"/><rect x="495.24047" y="73.54749" width="78.07461" height="152.28" rx="1.979" fill="#a2aee6"/><rect x="498.94152" y="77.32749" width="33.48572" height="45.72" rx="1.979" fill="#e5e1e5"/><rect x="536.1283" y="77.32749" width="33.48572" height="45.72" rx="1.979" fill="#e5e1e5"/><rect x="498.94152" y="126.82749" width="33.48572" height="45.72" rx="1.979" fill="#e5e1e5"/><rect x="536.1283" y="126.82749" width="33.48572" height="45.72" rx="1.979" fill="#e5e1e5"/><rect x="498.94152" y="176.32749" width="33.48572" height="45.72" rx="1.979" fill="#e5e1e5"/><rect x="536.1283" y="176.32749" width="33.48572" height="45.72" rx="1.979" fill="#e5e1e5"/><path d="M502.55443,113.62745c1.65608-2.75879,3.39989-5.45434,5.15708-8.1405,1.74787-2.69263,3.55885-5.34,5.36983-7.98731,1.83011-2.63354,3.66188-5.26586,5.55557-7.85363l2.8434-3.87964c.9772-1.27222,1.92668-2.56421,2.928-3.81885-.81991,1.38525-1.69145,2.73328-2.53551,4.1012L519.25268,90.089c-1.74859,2.69226-3.55909,5.33984-5.37126,7.98633-1.8313,2.63269-3.66284,5.26538-5.557,7.85266C506.43909,108.52186,504.54062,111.10621,502.55443,113.62745Z" fill="#a2aee6"/><path d="M506.99534,119.95253c1.65608-2.75879,3.39989-5.45447,5.15685-8.14051,1.74811-2.69262,3.55885-5.34009,5.37007-7.9873,1.8301-2.63355,3.66188-5.26587,5.55557-7.85376l2.8434-3.87964c.977-1.2721,1.92644-2.56409,2.92778-3.81885-.81967,1.38538-1.69146,2.7334-2.53551,4.1012l-2.6199,4.0404c-1.74883,2.69214-3.55933,5.33985-5.37151,7.98621-1.83106,2.63281-3.66259,5.26538-5.557,7.85278C510.88,114.84693,508.98154,117.43129,506.99534,119.95253Z" fill="#a2aee6"/><path d="M539.72373,113.62745c1.65609-2.75879,3.39989-5.45434,5.15709-8.1405,1.74811-2.69263,3.55885-5.34,5.37007-7.98731,1.8301-2.63354,3.66188-5.26586,5.55557-7.85363l2.8434-3.87964c.977-1.27222,1.92644-2.56421,2.92778-3.81885-.81991,1.38525-1.69146,2.73328-2.53551,4.1012L556.422,90.089c-1.74859,2.69226-3.55909,5.33984-5.37127,7.98633-1.83129,2.63269-3.66259,5.26538-5.557,7.85266C543.60864,108.52186,541.71017,111.10621,539.72373,113.62745Z" fill="#a2aee6"/><path d="M544.16465,119.95253c1.65608-2.75879,3.39989-5.45447,5.15709-8.14051,1.74787-2.69262,3.55885-5.34009,5.36983-7.9873,1.8301-2.63355,3.66188-5.26587,5.55557-7.85376l2.8434-3.87964c.9772-1.2721,1.92667-2.56409,2.928-3.81885-.81991,1.38538-1.69146,2.7334-2.53552,4.1012l-2.62013,4.0404c-1.74859,2.69214-3.55909,5.33985-5.37127,7.98621-1.8313,2.63281-3.66283,5.26538-5.557,7.85278C548.04932,114.84693,546.15085,117.43129,544.16465,119.95253Z" fill="#a2aee6"/><path d="M502.55443,161.365c1.65608-2.75879,3.39989-5.45447,5.15708-8.1405,1.74787-2.69263,3.55885-5.34009,5.36983-7.98731,1.83011-2.63354,3.66188-5.266,5.55557-7.85376l2.8434-3.87964c.9772-1.27209,1.92668-2.56408,2.928-3.81884-.81991,1.38537-1.69145,2.7334-2.53551,4.10119l-2.62014,4.04041c-1.74859,2.69214-3.55909,5.33972-5.37126,7.9862-1.8313,2.63282-3.66284,5.26539-5.557,7.85267C506.43909,156.25941,504.54062,158.84376,502.55443,161.365Z" fill="#a2aee6"/><path d="M506.99534,167.69c1.65608-2.75866,3.39989-5.45434,5.15685-8.1405,1.74811-2.69263,3.55885-5.34,5.37007-7.98718,1.8301-2.63355,3.66188-5.266,5.55557-7.85376l2.8434-3.87964c.977-1.27222,1.92644-2.56421,2.92778-3.81885-.81967,1.38525-1.69146,2.73328-2.53551,4.1012l-2.6199,4.04028c-1.74883,2.69226-3.55933,5.33984-5.37151,7.98633-1.83106,2.63269-3.66259,5.26538-5.557,7.85266C510.88,162.58448,508.98154,165.16883,506.99534,167.69Z" fill="#a2aee6"/><path d="M539.72373,161.365c1.65609-2.75879,3.39989-5.45447,5.15709-8.1405,1.74811-2.69263,3.55885-5.34009,5.37007-7.98731,1.8301-2.63354,3.66188-5.266,5.55557-7.85376l2.8434-3.87964c.977-1.27209,1.92644-2.56408,2.92778-3.81884-.81991,1.38537-1.69146,2.7334-2.53551,4.10119l-2.62014,4.04041c-1.74859,2.69214-3.55909,5.33972-5.37127,7.9862-1.83129,2.63282-3.66259,5.26539-5.557,7.85267C543.60864,156.25941,541.71017,158.84376,539.72373,161.365Z" fill="#a2aee6"/><path d="M544.16465,167.69c1.65608-2.75866,3.39989-5.45434,5.15709-8.1405,1.74787-2.69263,3.55885-5.34,5.36983-7.98718,1.8301-2.63355,3.66188-5.266,5.55557-7.85376l2.8434-3.87964c.9772-1.27222,1.92667-2.56421,2.928-3.81885-.81991,1.38525-1.69146,2.73328-2.53552,4.1012l-2.62013,4.04028c-1.74859,2.69226-3.55909,5.33984-5.37127,7.98633-1.8313,2.63269-3.66283,5.26538-5.557,7.85266C548.04932,162.58448,546.15085,165.16883,544.16465,167.69Z" fill="#a2aee6"/><path d="M502.55443,210.80458c1.65608-2.75879,3.39989-5.45435,5.15708-8.14051,1.74787-2.69262,3.55885-5.34,5.36983-7.9873,1.83011-2.63355,3.66188-5.26587,5.55557-7.85364l2.8434-3.87964c.9772-1.27221,1.92668-2.56421,2.928-3.81885-.81991,1.38526-1.69145,2.73328-2.53551,4.1012l-2.62014,4.04028c-1.74859,2.69226-3.55909,5.33985-5.37126,7.98633-1.8313,2.63269-3.66284,5.26538-5.557,7.85266C506.43909,205.69911,504.54062,208.28346,502.55443,210.80458Z" fill="#a2aee6"/><path d="M506.99534,217.12965c1.65608-2.75879,3.39989-5.45447,5.15685-8.1405,1.74811-2.69263,3.55885-5.34009,5.37007-7.98731,1.8301-2.63354,3.66188-5.26587,5.55557-7.85364l2.8434-3.87976c.977-1.27209,1.92644-2.56408,2.92778-3.81872-.81967,1.38525-1.69146,2.73327-2.53551,4.10107l-2.6199,4.04041c-1.74883,2.69214-3.55933,5.33984-5.37151,7.98633-1.83106,2.63269-3.66259,5.26525-5.557,7.85266C510.88,212.02406,508.98154,214.60841,506.99534,217.12965Z" fill="#a2aee6"/><path d="M539.72373,210.80458c1.65609-2.75879,3.39989-5.45435,5.15709-8.14051,1.74811-2.69262,3.55885-5.34,5.37007-7.9873,1.8301-2.63355,3.66188-5.26587,5.55557-7.85364l2.8434-3.87964c.977-1.27221,1.92644-2.56421,2.92778-3.81885-.81991,1.38526-1.69146,2.73328-2.53551,4.1012l-2.62014,4.04028c-1.74859,2.69226-3.55909,5.33985-5.37127,7.98633-1.83129,2.63269-3.66259,5.26538-5.557,7.85266C543.60864,205.69911,541.71017,208.28346,539.72373,210.80458Z" fill="#a2aee6"/><path d="M544.16465,217.12965c1.65608-2.75879,3.39989-5.45447,5.15709-8.1405,1.74787-2.69263,3.55885-5.34009,5.36983-7.98731,1.8301-2.63354,3.66188-5.26587,5.55557-7.85364l2.8434-3.87976c.9772-1.27209,1.92667-2.56408,2.928-3.81872-.81991,1.38525-1.69146,2.73327-2.53552,4.10107l-2.62013,4.04041c-1.74859,2.69214-3.55909,5.33984-5.37127,7.98633-1.8313,2.63269-3.66283,5.26525-5.557,7.85266C548.04932,212.02406,546.15085,214.60841,544.16465,217.12965Z" fill="#a2aee6"/></svg>