<svg id="Layer_1" data-name="Layer 1" xmlns="http://www.w3.org/2000/svg" viewBox="0 0 700 550"><title>time management</title><path d="M450.5245,486.81923c17.816-5.56956,33.80109-11.25972,53.03142-22.059,19.83334-11.13912,107.93764-64.14861,119.39471-155.89286a174.99775,174.99775,0,0,0-7.30182-74.72859c-3.54128-10.38263-10.887-31.23559-29.42658-51.85831-22.69486-25.26037-48.59112-35.05095-63.77585-40.58762-31.94823-11.65442-58.74351-11.04045-71.50526-10.62383-13.77041.44951-38.07693,1.45817-65.70546,13.52921-18.02433,7.87194-29.22923,16.85121-45.74056,30.27078-26.1594,21.28054-29.602,30.13921-75.36449,74.08173-12.5644,12.06007-22.89221,21.5656-38.658,30.9286-10.93081,6.49051-19.76755,10.1195-36.07058,16.74157-40.07232,16.2811-51.48178,19.57762-64.59437,28.74328-25.50157,17.83794-23.8498,37.29109-24.94617,41.47923a82.367,82.367,0,0,0-1.94058,32.85821c3.34393,22.00415,15.19569,36.38853,22.55233,45.0937a123.99753,123.99753,0,0,0,36.07058,28.988,230.50784,230.50784,0,0,0,29.55814,13.03584Z" fill="#ffe3cb"/><path d="M507.08711,471.26681l-.53707-.95688c26.20409-14.71914,112.59341-69.90065,124.0854-161.97264a182.33482,182.33482,0,0,0-7.58-77.59207c-3.26349-9.57237-10.90566-31.99-30.53235-53.82593-24.03469-26.74469-51.47007-36.75093-66.20914-42.12637-33.87324-12.3539-62.18342-11.43336-74.277-11.03818-12.64941.41043-38.96959,1.26412-68.24018,14.04486l-.43857-1.00379c29.4629-12.86517,55.92615-13.72355,68.64357-14.13633,12.151-.39753,40.616-1.32392,74.68741,11.10385,14.82937,5.40827,42.43243,15.47432,66.65006,42.42305,19.77561,22.00248,27.46821,44.569,30.75281,54.2047a183.4696,183.4696,0,0,1,7.63162,78.08224C620.16834,401.05424,533.40378,456.48318,507.08711,471.26681Z" fill="#ffe3cb"/><path d="M616.35488,488.0205H68.17029a1.2008,1.2008,0,1,1,0-2.40159H616.35488a1.2008,1.2008,0,0,1,0,2.40159Z" fill="#ffe3cb"/><path d="M548.68008,156.89206l-.25947-2.35176-11.77207-2.66106a34.99718,34.99718,0,0,0-2.701-6.65277l6.41655-10.08564-1.32383-1.82947a47.66694,47.66694,0,0,0-7.68069-7.68069l-1.86937-1.46687-10.17548,6.55958a35.00174,35.00174,0,0,0-6.65266-2.701l-2.66117-11.77208-2.222-.25946a42.95746,42.95746,0,0,0-10.65767,0l-2.35186.25946-2.66106,11.77208a35.00007,35.00007,0,0,0-6.65277,2.701l-10.08564-6.41654-1.82947,1.32383a47.65823,47.65823,0,0,0-7.68059,7.68069l-1.467,1.86947,6.45655,10.17537a35.98789,35.98789,0,0,0-2.72766,6.65267L456.34958,154.67l-.27266,2.32841a44.47225,44.47225,0,0,0,0,10.681l.27266,2.32526,11.77218,2.66431a36.17406,36.17406,0,0,0,2.72766,6.65287l-6.31351,9.97916,1.45367,1.85616a47.23407,47.23407,0,0,0,7.55085,7.6539l1.86937,1.467,10.212-6.45654a35.00426,35.00426,0,0,0,6.65277,2.69111l2.65122,11.78538,2.365.25947a44.14209,44.14209,0,0,0,10.641,0l2.365-.25947,2.66452-11.78538a35.26719,35.26719,0,0,0,6.65267-2.69111l10.21212,6.45654,1.85932-1.467a46.72742,46.72742,0,0,0,7.35473-7.68059l1.467-1.86937-6.45654-10.212a35.01073,35.01073,0,0,0,2.691-6.65277l11.78538-2.65122.25947-2.365a44.14209,44.14209,0,0,0,0-10.641ZM502.45,182.1793A19.95831,19.95831,0,1,1,522.40827,162.221,19.96567,19.96567,0,0,1,502.45,182.1793Zm0,0" fill="#c0d6f2"/><path d="M192.232,188.03548l-.335-3.03658-15.20008-3.436a45.18829,45.18829,0,0,0-3.48747-8.59l8.285-13.02255-1.70933-2.36221a61.54689,61.54689,0,0,0-9.91729-9.91728l-2.41372-1.894-13.13854,8.4697a45.19439,45.19439,0,0,0-8.58991-3.48747L142.2896,135.559l-2.86907-.335a55.468,55.468,0,0,0-13.76115,0l-3.03671.335-3.436,15.20007a45.1921,45.1921,0,0,0-8.59,3.48747l-13.02254-8.285-2.36221,1.70933a61.53557,61.53557,0,0,0-9.91716,9.91728L83.40062,160.002l8.33667,13.13842a46.468,46.468,0,0,0-3.522,8.58991l-15.2002,3.43609-.35206,3.00643a57.42281,57.42281,0,0,0,0,13.7913l.35206,3.00237,15.2002,3.44015a46.70935,46.70935,0,0,0,3.522,8.59017l-8.152,12.88505,1.877,2.39668a60.98835,60.98835,0,0,0,9.74964,9.88268l2.41372,1.89415,13.18573-8.33667a45.19843,45.19843,0,0,0,8.59,3.47476l3.42324,15.21724,3.05376.335a56.99505,56.99505,0,0,0,13.73965,0l3.05375-.335,3.44042-15.21724a45.53754,45.53754,0,0,0,8.5899-3.47476l13.18587,8.33667,2.40074-1.89415a60.33347,60.33347,0,0,0,9.49641-9.91715l1.89414-2.41372-8.33667-13.18574a45.20641,45.20641,0,0,0,3.47463-8.59l15.21724-3.42325.335-3.05375a56.99505,56.99505,0,0,0,0-13.73965Zm-59.6922,32.65081a25.77011,25.77011,0,1,1,25.77011-25.77011,25.77961,25.77961,0,0,1-25.77011,25.77011Zm0,0" fill="#c0d6f2"/><path d="M287.17664,159.38081l-.24836-2.25114-11.26843-2.54722a33.49988,33.49988,0,0,0-2.58541-6.36814l6.142-9.65414-1.2672-1.7512a45.62737,45.62737,0,0,0-7.35208-7.35208l-1.78939-1.40411-9.74014,6.27894a33.50469,33.50469,0,0,0-6.368-2.58541l-2.54731-11.26843-2.127-.24836a41.11978,41.11978,0,0,0-10.20169,0l-2.25124.24836-2.54722,11.26843a33.5032,33.5032,0,0,0-6.36814,2.58541l-9.65414-6.142-1.7512,1.2672a45.61913,45.61913,0,0,0-7.352,7.35208l-1.4042,1.78949,6.18031,9.74a34.44789,34.44789,0,0,0-2.611,6.368l-11.26853,2.54731-.261,2.22879a42.56983,42.56983,0,0,0,0,10.22405l.261,2.22578,11.26853,2.55032a34.62667,34.62667,0,0,0,2.611,6.36824l-6.0434,9.55221,1.39148,1.77676a45.2134,45.2134,0,0,0,7.2278,7.32643l1.78939,1.4042,9.77512-6.18031a33.50623,33.50623,0,0,0,6.36814,2.576l2.53779,11.28116,2.26387.24837a42.25272,42.25272,0,0,0,10.18576,0l2.26387-.24837,2.55052-11.28116a33.75765,33.75765,0,0,0,6.368-2.576l9.77521,6.18031,1.77977-1.4042a44.72769,44.72769,0,0,0,7.04007-7.352l1.40421-1.78939-6.18031-9.77511a33.51336,33.51336,0,0,0,2.57588-6.36814l11.28116-2.5378.24837-2.26387a42.25366,42.25366,0,0,0,0-10.18575Zm-44.25223,24.20537a19.10442,19.10442,0,1,1,19.10442-19.10442,19.11147,19.11147,0,0,1-19.10442,19.10442Zm0,0" fill="#c0d6f2"/><path d="M614.026,211.43764l-.19562-1.773-8.87521-2.00624a26.38533,26.38533,0,0,0-2.03631-5.01565l4.83756-7.60377-.99806-1.37928a35.93666,35.93666,0,0,0-5.79063-5.79063l-1.40935-1.1059-7.6715,4.9454a26.38923,26.38923,0,0,0-5.01558-2.03631L584.865,180.797l-1.67523-.19561a32.38689,32.38689,0,0,0-8.035,0l-1.77312.19561-2.00623,8.87521a26.38782,26.38782,0,0,0-5.01566,2.03631L558.756,186.871l-1.37927.99806a35.92969,35.92969,0,0,0-5.79055,5.79063l-1.106,1.40943,4.86772,7.67143a27.1316,27.1316,0,0,0-2.05644,5.01558l-8.87528,2.00631-.20557,1.75543a33.52824,33.52824,0,0,0,0,8.05263l.20557,1.75307,8.87528,2.00868a27.27266,27.27266,0,0,0,2.05644,5.01573l-4.75989,7.52349,1.096,1.3994a35.61023,35.61023,0,0,0,5.69274,5.77043l1.40935,1.106,7.69905-4.86772a26.39083,26.39083,0,0,0,5.01566,2.02889l1.99881,8.88523,1.78306.19562a33.27855,33.27855,0,0,0,8.02248,0l1.78307-.19562,2.00883-8.88523a26.58866,26.58866,0,0,0,5.01558-2.02889l7.69913,4.86772,1.40178-1.106a35.22863,35.22863,0,0,0,5.54488-5.79056l1.106-1.40935-4.86772-7.699a26.39645,26.39645,0,0,0,2.02881-5.01566l8.88523-1.99881.19562-1.78306a33.27957,33.27957,0,0,0,0-8.02248Zm-34.85383,19.06457a15.047,15.047,0,1,1,15.047-15.047,15.05252,15.05252,0,0,1-15.047,15.047Zm0,0" fill="#c0d6f2"/><path d="M210.67444,88.47046l-.1667-1.51093-7.56321-1.70966a22.4844,22.4844,0,0,0-1.73529-4.2742l4.12244-6.47973-.85052-1.17538a30.62465,30.62465,0,0,0-4.93462-4.93461l-1.201-.94242-6.53744,4.21433a22.48847,22.48847,0,0,0-4.27414-1.73528l-1.70972-7.56321-1.42759-.1667a27.59873,27.59873,0,0,0-6.84723,0l-1.511.1667-1.70965,7.56321a22.487,22.487,0,0,0-4.27421,1.73528l-6.47972-4.12244-1.17538.85053a30.61855,30.61855,0,0,0-4.93455,4.93461l-.94248,1.20108,4.14813,6.53738a23.121,23.121,0,0,0-1.75244,4.27414l-7.56327,1.70972-.17518,1.49593a28.5725,28.5725,0,0,0,0,6.86223l.17518,1.49391,7.56327,1.71175a23.24141,23.24141,0,0,0,1.75244,4.27427l-4.05624,6.41131.93394,1.19253a30.3464,30.3464,0,0,0,4.8512,4.9174l1.201.94248,6.56092-4.14814a22.48909,22.48909,0,0,0,4.27421,1.729l1.70333,7.57176,1.51947.1667a28.35974,28.35974,0,0,0,6.83654,0l1.51948-.1667,1.71187-7.57176a22.65783,22.65783,0,0,0,4.27414-1.729l6.561,4.14814,1.19455-.94248a30.021,30.021,0,0,0,4.7252-4.93455l.94248-1.201-4.14814-6.56092a22.49311,22.49311,0,0,0,1.7289-4.2742l7.57175-1.70333.1667-1.51948a28.35966,28.35966,0,0,0,0-6.83653ZM180.973,104.71676a12.82262,12.82262,0,1,1,12.82262-12.82262A12.82734,12.82734,0,0,1,180.973,104.71676Zm0,0" fill="#c0d6f2"/><path d="M387.31144,232.05749a2.41686,2.41686,0,0,0-1.19028.96632c-3.25661,5.35813-3.94153,13.99356-2.88278,27.21167.7201,8.99029,7.41078,24.66307,6.19409,30.832-5.23776,2.99493-.54937,11.38282-.1212,13.29384.42812,1.91084-2.36208,3.92546-.18539,6.06194,2.17693,2.13662,2.70449-4.46522,2.70449-4.46522l3.98541,17.786c1.49,1.8274,3.95343-.26837,3.96868-.88919.01519-.621-.36478-16.78145-.36478-16.78145-.925-8.48356-.24915-20.53438-.24915-20.53438l1.53433-33.00574,2.042-13.64873a5.734,5.734,0,0,0-1.11218-7.191,9.12921,9.12921,0,0,0-9.36281-1.60095Z" fill="#f9977a"/><path d="M336.48283,150.45154c-.70823,10.14034-.22151,40.58627,7.024,41.09232s24.15335-16.986,19.21438-39.25977c-2.12011-9.56129-4.59131-18.77095-11.83685-19.277S337.19105,140.31119,336.48283,150.45154Z" fill="#1e1d22"/><path d="M362.46131,153.13239c1.21161,10.09258,7.4159,39.90363,14.62731,39.0379s20.52758-21.22563,11.48751-42.173c-3.88056-8.9919-8.0398-17.57242-15.25121-16.7067S361.24971,143.03981,362.46131,153.13239Z" fill="#1e1d22"/><path d="M342.97645,137.45436l.76308,11.045a63.45271,63.45271,0,0,1-.68068,13.40686c-.80339,5.58642,6.57382,14.40979,9.26089,14.51952V187.5366h22.8665V161.55042s9.34329-1.72116,3.934-10.9416a39.74175,39.74175,0,0,1-5.53227-17.70307l-10.08088-7.6222Z" fill="#f9977a"/><path d="M365.84238,145.81023a.67692.67692,0,0,1-.33789-.08984c-3.06738-1.75488-6.56933-.00293-6.60351.01465a.68266.68266,0,0,1-.625-1.21387c.16992-.08594,4.18261-2.11133,7.90625.01367a.68267.68267,0,0,1-.33985,1.27539Z" fill="#1e1d22"/><path d="M352.31895,145.81023a.677.677,0,0,1-.3379-.08984c-3.06738-1.75488-6.56933-.00293-6.60351.01465a.68266.68266,0,0,1-.625-1.21387c.16992-.08594,4.18262-2.11133,7.90625.01367a.68267.68267,0,0,1-.33984,1.27539Z" fill="#1e1d22"/><path d="M348.01691,152.38337c2.63682,0,2.64119-4.09794,0-4.09794-2.63683,0-2.6412,4.09794,0,4.09794Z" fill="#1e1d22"/><path d="M362.03184,152.26043c2.63682,0,2.64119-4.09793,0-4.09793-2.63683,0-2.64119,4.09793,0,4.09793Z" fill="#1e1d22"/><path d="M354.04087,149.55291c-.709,1.96973-1.50147,3.86963-2.07544,5.81836a10.74345,10.74345,0,0,0-.52612,2.92725,2.663,2.663,0,0,0,.32263,1.35742,1.99192,1.99192,0,0,0,1.17248.85351,1.982,1.982,0,0,1-1.48425-.61279,2.80017,2.80017,0,0,1-.63672-1.55322,8.30633,8.30633,0,0,1,.38111-3.19873A18.04287,18.04287,0,0,1,354.04087,149.55291Z" fill="#dd765e"/><path d="M352.31974,176.42584s7.37628-.37674,10.94148-3.75357c0,0-4.54871,9.03991-10.94148,10.26929Z" fill="#dd765e"/><path d="M337.56717,134.13517s.12294-5.04046,8.97448-7.25334,10.57267-7.13041,15.6746-5.77809a16.76421,16.76421,0,0,1,8.29831,5.77809s16.023-2.45145,8.2574,23.116c0,0-5.79864,6.75793-6.41333.734s-1.967-16.35076-5.28633-19.05539-8.48273,0-10.44973,1.47525-14.26081,10.20386-15.49019,9.46623S334.98548,140.405,337.56717,134.13517Z" fill="#1e1d22"/><path d="M377.92815,162.16322c3.10392,0,3.10906-4.82386,0-4.82386-3.10393,0-3.10907,4.82386,0,4.82386Z" fill="#ffba55"/><path d="M355.02615,145.60417a1.3517,1.3517,0,0,0,0-2.70179,1.3517,1.3517,0,0,0,0,2.70179Z" fill="#f73c4f"/><path d="M361.42047,164.10136s-7.35039-3.3907-12.15052,2.41295" fill="#dd2f22"/><path d="M402.94675,219.93063c-.80268-11.35128-2.61839-23.58849-6.67049-27.134,0,0-15.289-7.35312-20.9583-10.47824,0,0-14.39424,4.97909-22.643-1.96712l-13.12719,1.96712s-17.01108,3.42361-21.67954,9.5529l-23.3918,34.92757,16.82082.89884h6.48426s6.933-9.10192,10.62328-17.56985l4.1967,25.07072a152.39172,152.39172,0,0,0,46.14542,7.32557l7.39929-20.495-1.57634,8.911-1.37779,8.6102a24.94089,24.94089,0,0,0,20.34713,2.197C403.9479,235.6043,403.53528,228.25294,402.94675,219.93063Z" fill="#f73c4f"/><path d="M391.89377,306.19207a13.06176,13.06176,0,0,1-.90319-3.30762,12.92142,12.92142,0,0,1-.10877-3.42724,12.92171,12.92171,0,0,1,.90332,3.30761A13.07815,13.07815,0,0,1,391.89377,306.19207Z" fill="#dd765e"/><path d="M365.30753,456.24576l.61073,17.71509s48.7359,13.67918,49.70169,7.875c0,0,3.74569-.06354-21.5717-14.315a24.491,24.491,0,0,1-10.46615-13.043Z" fill="#f9977a"/><path d="M365.47917,461.22426v25.97937h15.7501l.01286-7.28243s37.11875,14.94752,34.489,1.02157c0,0-2.59888,2.44208-12.81437.74484l3.66292-6.85931-9.09529-5.51244-6.31621,9.29806-17.33679-3.73621a9.87383,9.87383,0,0,1-7.72164-8.46167Z" fill="#f73c4f"/><path d="M367.88045,461.927c-1.37149,0-2.28512-.04614-2.43681-.05453a.651.651,0,0,1-.61234-.685.69078.69078,0,0,1,.68364-.61235c.16078.00979,15.98671.81786,19.28961-4.69885a.64893.64893,0,0,1,1.11425.66548C383.03951,461.35238,372.67157,461.927,367.88045,461.927Z" fill="#f73c4f"/><path d="M319.195,456.24576l-.61073,17.71509s-48.73589,13.67918-49.70169,7.875c0,0-3.74568-.06354,21.57171-14.315a24.491,24.491,0,0,0,10.46614-13.043Z" fill="#f9977a"/><path d="M319.02339,461.22426l-.18072,25.97937H303.554l-.74651-3.03486s-39.75,6.74321-34.03611-3.226c0,0,2.59889,2.44208,12.81437.74484l-4.41743-6.39406,9.8498-5.97769,6.31622,9.29806,17.08785-3.68257a10.23139,10.23139,0,0,0,8.00128-8.76809Z" fill="#f73c4f"/><path d="M316.62219,461.927c-4.79112,0-15.15906-.5746-18.03835-5.38529a.64893.64893,0,0,1,1.11425-.66548c3.305,5.51811,19.12883,4.70864,19.2896,4.69885a.6623.6623,0,0,1,.68365.61235.65058.65058,0,0,1-.61234.685C318.90731,461.88084,317.993,461.927,316.62219,461.927Z" fill="#f73c4f"/><path d="M350.9741,225.87322a18.37163,18.37163,0,0,1,4.052-.40136,18.169,18.169,0,0,1,4.05212.40136,18.14085,18.14085,0,0,1-4.05212.40186A18.34344,18.34344,0,0,1,350.9741,225.87322Z" fill="#dd765e"/><path d="M346.62461,225.8034c-11.76465,0-13.26172-8.04492-13.27637-8.12988l.793-.13379c.05664.332,1.51758,8.11425,13.97852,7.417l.04492.80273C347.6334,225.78875,347.11875,225.8034,346.62461,225.8034Z"/><path d="M328.40464,210.12811a15.98435,15.98435,0,0,0-1.01538-3.4751,20.66505,20.66505,0,0,0-1.65137-3.17188,24.79638,24.79638,0,0,0-2.17627-2.85351c-.793-.90723-1.65845-1.75391-2.53747-2.6211.53088.3086,1.04834.646,1.56127.99366a16.72866,16.72866,0,0,1,1.42652,1.19043,15.71192,15.71192,0,0,1,2.40246,2.85693,14.12581,14.12581,0,0,1,1.56446,3.39844A9.507,9.507,0,0,1,328.40464,210.12811Z" fill="#b02336"/><path d="M386.14622,222.02947a61.2793,61.2793,0,0,1-.48877-8.50976,55.14961,55.14961,0,0,1,.71728-8.521,24.3609,24.3609,0,0,1,2.774-8.12451,9.41931,9.41931,0,0,1,2.98-3.14014,6.80534,6.80534,0,0,1,4.14746-.9375,6.96955,6.96955,0,0,0-3.93079,1.2666,8.99423,8.99423,0,0,0-2.66333,3.124,25.34561,25.34561,0,0,0-2.5166,7.95117,63.95262,63.95262,0,0,0-.8927,8.3999C386.129,216.35955,386.09849,219.19109,386.14622,222.02947Z" fill="#b02336"/><polygon points="334.227 245.075 333.344 235.408 334.145 235.336 335.028 245.003 334.227 245.075"/><polyline points="377.605 247.644 377.605 242.307 358.243 240.205 358.243 253.702 377.605 247.644" fill="#f9977a"/><path d="M360.09739,210.12811a20.781,20.781,0,0,1-1.33045-4.12159,20.54118,20.54118,0,0,1-.54614-4.29687,20.54075,20.54075,0,0,1,1.33045,4.12158A20.78747,20.78747,0,0,1,360.09739,210.12811Z" fill="#dd765e"/><path d="M393.67144,304.37267c3.76255-33.57424-16.06676-56.72859-16.06676-56.72859-1.38841.2375-2.77957.43025-4.16748.58767a415.57975,415.57975,0,0,0,18.58939-57.49448l-15.914-8.419c-39.16969,20.53907-45.38342,41.69486-45.38342,41.69486l.04338.26028c1.78676,10.72648-5.26119,33.945-12.75655,74.65159-.35713,1.78265-10.483,48.536-10.81941,50.39085C298.363,398.01805,279.268,456.30959,279.268,456.30959s32.82021,5.44411,61.6757,2.43391c28.8554-3.01059,58.91695.57982,58.91695.57982C390.06611,431.79343,393.67144,304.37267,393.67144,304.37267Z" fill="#8b9d36"/><path d="M383.23835,260.23528c.72015,8.99014,7.41079,24.66323,6.19409,30.832-5.23772,2.995-.54931,11.38294-.12115,13.29436.4281,1.91025-2.36208,3.92487-.18542,6.06144,2.17695,2.13658,2.7045-4.46487,2.7045-4.46487L393.464,313.248c.115-5.59765.20749-8.87522.20749-8.87522,2.46169-21.96612-5.17455-39.46914-10.74956-48.94827Q383.03665,257.72258,383.23835,260.23528Z" fill="#f9977a"/><path d="M329.78311,240.2052s-34.09423,95.381-45.33369,107.48259,22.00965,9.34944,16.35186,31.86148C300.80128,379.54927,355.908,285.73238,329.78311,240.2052Z" fill="#8b9d36"/><path d="M363.63523,273.94061q.583,18.47094.96374,36.92871l.80616,36.91064c.14636,6.14941.26721,12.30127.47473,18.44727l.26562,9.22216.3274,9.21875c.28149,6.14063.501,12.28858.93493,18.41895.30982,6.14746.94715,12.24951,1.85266,18.34814-.62475-3.00634-1.4187-6.01171-1.78-9.07324-.45837-3.04931-.93469-6.10254-1.24523-9.16894-.71558-6.12891-1.1897-12.27588-1.63379-18.42481-.84681-12.30029-1.26575-24.61719-1.59583-36.9331q-.38745-18.47535-.27356-36.95215Q362.83109,292.40764,363.63523,273.94061Z" fill="#5e7c24"/><path d="M347.2645,310.78143c.19641,7.189.03259,14.37451-.3053,21.5498-.32995,7.17725-.908,14.3418-1.63342,21.49512-.79443,7.146-1.77612,14.28076-3.1593,21.35254l-1.13672,5.28515c-.4281,1.752-.91821,3.49219-1.379,5.2334-.22033.87256-.52112,1.728-.81616,2.58252l-.88306,2.55859c-.58435,1.70459-1.46753,3.30811-2.2008,4.93409l.81311-2.56934a21.89371,21.89371,0,0,0,.75366-2.56787c.37781-1.75244.89331-3.45459,1.18848-5.2207.32153-1.75879.68628-3.50342.9812-5.26319l.83276-5.29248c.45984-3.54492,1.02368-7.0708,1.39661-10.62988.46106-3.54443.83667-7.10254,1.22278-10.65869.76941-7.11475,1.447-14.24219,2.15783-21.37354C345.78611,325.06365,346.468,317.92645,347.2645,310.78143Z" fill="#5e7c24"/><path d="M352.95322,336.68816q.529,12.20289.61328,24.39893c.08887,8.13086.04163,16.26025-.02563,24.38916-.11353,8.12842-.24841,16.25586-.50977,24.38232-.11706,4.06348-.2716,8.12647-.43542,12.18946l-.55737,12.1914c-.5785-8.127-.77723-16.26611-.88123-24.39648-.12048-8.13281-.08789-16.26367-.01624-24.39356.11524-8.12988.26453-16.25878.55884-24.38623Q352.09043,348.872,352.95322,336.68816Z" fill="#5e7c24"/><path d="M373.43723,248.23162a270.47465,270.47465,0,0,1-8.04,27.6001A226.7566,226.7566,0,0,1,354.36094,302.446a126.49978,126.49978,0,0,1-7.18958,12.56543,54.43122,54.43122,0,0,1-9.43115,11.126,21.92677,21.92677,0,0,1-6.32886,3.89649,12.18045,12.18045,0,0,1-7.45959.46875,15.17109,15.17109,0,0,1-6.25415-3.832,28.78158,28.78158,0,0,1-4.42871-5.686,34.19259,34.19259,0,0,0,4.85388,5.2124,14.27661,14.27661,0,0,0,6.10535,3.16114,10.86722,10.86722,0,0,0,6.59948-.78614,21.01455,21.01455,0,0,0,5.67322-3.84033,56.44462,56.44462,0,0,0,8.76636-10.96338,131.48133,131.48133,0,0,0,6.94836-12.39844c2.15186-4.23632,4.11487-8.57519,6.00513-12.94726,1.90918-4.36572,3.66968-8.79834,5.4248-13.23633q2.58508-6.67529,5.02991-13.41553C370.3469,257.29021,371.87766,252.76141,373.43723,248.23162Z" fill="#5e7c24"/><path d="M300.80125,379.54949q2.9414-17.55981,6.33154-35.02637c2.22766-11.65087,4.59277-23.27343,6.9845-34.89013,2.43566-11.60791,4.90087-23.20947,7.50292-34.78272q3.85327-17.37011,8.16285-34.645-2.93719,17.56056-6.328,35.02686c-2.22827,11.65088-4.59326,23.27344-6.98791,34.88965-2.4386,11.60693-4.90381,23.20849-7.50647,34.78174Q305.10574,362.27289,300.80125,379.54949Z" fill="#5e7c24"/><path d="M305.96754,236.43762C330.5692,238.46364,341.857,224.078,341.857,224.078h4.77561c1.70724,5.53928,8.53823,3.82139,10.41953,3.82139s3.18375,3.039,5.64391,1.44716-3.61789-3.47318-3.61789-3.47318h17.5106c2.026-1.013.57886-3.76261,0-3.90732s-16.06344-1.013-16.06344-1.013c-7.81465-2.17074-18.66832-2.60488-18.66832-2.60488s-24.2233-3.34513-38.78867.36586a11.11078,11.11078,0,0,0-7.40715,6.18638,13.72483,13.72483,0,0,0-1.12621,3.57785C293.522,235.50738,305.96754,236.43762,305.96754,236.43762Z" fill="#f9977a"/><path d="M341.857,224.078v-5.72984a8.56258,8.56258,0,0,1,4.24727.28564l.52834,5.4442Z" fill="#1e1d22"/><path d="M342.48788,216.24221h2.944a1.2008,1.2008,0,0,1,1.2008,1.2008v1.237a0,0,0,0,1,0,0h-5.34556a0,0,0,0,1,0,0v-1.237A1.2008,1.2008,0,0,1,342.48788,216.24221Z" transform="translate(15.47783 -22.74146) rotate(3.87392)" fill="#1e1d22"/><path d="M348.69306,164.01745a.90113.90113,0,0,0,0-1.80119.90113.90113,0,0,0,0,1.80119Z" fill="#1e1d22"/><path d="M259.64883,486.8197H83.32389V315.54858a88.16239,88.16239,0,0,1,88.16239-88.16238h.00017a88.16238,88.16238,0,0,1,88.16238,88.16238Z" fill="#8795de"/><circle cx="174.57538" cy="319.76077" r="65.98094" fill="#fff"/><path d="M193.386,267.81809c-4.5043,17.95233-10.60444,35.32945-16.63083,52.73165l-.96753-2.76689c16.26211,10.19885,32.58322,20.3092,47.922,32.01981-17.41547-8.31689-33.85162-18.234-50.34381-28.06269l-1.646-.98227.6755-1.78756C178.90849,301.74492,185.35079,284.49317,193.386,267.81809Z" fill="#080200"/><path d="M562.7005,308.72485c-3.04666-2.92175-6.21106-4.66332-8.85858-4.30582-4.491.60589-4.27567,6.53267-12.1723,14.02585-6.4379,6.10912-18.87724,13.83489-28.84422,10.58579-8.31013-2.70926-7.15291-10.51831-16.939-17.46591a40.884,40.884,0,0,0-18.817-6.8715c8.71214,35.03231,24.83274,58.63318,43.3367,58.63318C538.18936,363.32644,553.77874,341.52313,562.7005,308.72485Z" fill="#ffba55"/><path d="M515.20587,410.80384c-7.91673.3733-12.15219,8.82125-27.52334,34.40346-7.55205,12.56569-13.163,21.56784-17.33238,28.24408-.06892,2.48959-.1608,4.962-.1608,7.49175H570.623c0-2.49821-.09476-4.939-.15793-7.397-5.7229-7.25628-14.37474-18.12778-27.20748-35.2204C528.142,418.19078,523.002,410.43629,515.20587,410.80384Z" fill="#ffba55"/><path d="M520.4048,369.203c-31.45442,0-56.09764-54.45515-56.09764-123.97994v-5.88083H576.50245v5.88083C576.50245,314.74787,551.85923,369.203,520.4048,369.203Zm-44.27854-118.0991c1.29217,63.86218,23.50036,106.33743,44.27854,106.33743s42.98638-42.47525,44.27855-106.33743Z" fill="#8795de"/><path d="M576.50245,486.8197H464.30716v-5.88083c0-69.52479,24.64322-123.97993,56.09764-123.97993s56.09765,54.45514,56.09765,123.97993ZM476.12626,475.058h88.55709c-1.29217-63.86219-23.50036-106.33743-44.27855-106.33743S477.41843,411.19585,476.12626,475.058Z" fill="#8795de"/><path d="M610.79527,475.05655h-17.6425V251.10243h17.6425a5.88083,5.88083,0,1,0,0-11.76166H430.01705a5.88083,5.88083,0,1,0,0,11.76166h17.6425V475.05655h-17.6425a5.88083,5.88083,0,1,0,0,11.76167H610.79527a5.88084,5.88084,0,1,0,0-11.76167Zm-151.374-223.95412H581.3911V475.05655H459.42122Z" fill="#8795de"/><rect x="64.78175" y="485.83463" width="570.43649" height="2.18587" fill="#935b50"/><rect x="520.23947" y="246.5273" width="7.7666" height="82.60008" transform="translate(428.97412 -302.50815) rotate(52.07013)" fill="#fbedda"/><path d="M497.92482,313.16711c-.62811-.53714-1.29212-1.07261-2.03851-1.60235a34.876,34.876,0,0,0-4.87589-2.85585l-1.85074,1.44236,4.77416,6.12609Z" fill="#ffd69b"/><polygon points="499.531 327.54 494.757 321.414 550.416 278.039 555.902 283.609 499.531 327.54" fill="#fbedda"/><polygon points="487.441 459.651 482.667 453.525 538.325 410.149 543.812 415.72 487.441 459.651" fill="#fbedda"/><path d="M527.814,418.341,482.66686,453.5248l4.77445,6.126L532.728,424.35822C530.92151,422.03065,529.305,420.03406,527.814,418.341Z" fill="#ffd69b"/><polygon points="488.162 441.207 483.387 435.081 539.046 391.705 544.532 397.276 488.162 441.207" fill="#fbedda"/><path d="M491.75374,438.40711l31.52032-24.56429c-2.74342-2.22393-5.23062-3.17283-8.06844-3.039q-.3773.01781-.74463.061L503.77578,419.192C500.65066,423.5186,496.92983,429.74436,491.75374,438.40711Z" fill="#ffd69b"/><path d="M501.1461,316.43534l-6.38861,4.97864,4.77387,6.126,5.99929-4.67529A60.49037,60.49037,0,0,0,501.1461,316.43534Z" fill="#ffd69b"/></svg>