<svg id="Layer_1" data-name="Layer 1" xmlns="http://www.w3.org/2000/svg" xmlns:xlink="http://www.w3.org/1999/xlink" viewBox="0 0 700 550"><defs><clipPath id="clip-path"><rect x="266.80431" y="176.89762" width="269.59337" height="225.41372" fill="none"/></clipPath></defs><title>annnouncement on megaphone</title><rect x="101.06914" y="454.11523" width="500" height="2" fill="#935b50"/><path d="M433.04674,448.86578c16.25-5.08,30.83-10.27,48.37-20.12,18.09-10.16,98.45-58.51,108.9-142.19a159.61541,159.61541,0,0,0-6.66-68.16c-3.23-9.47-9.93-28.49-26.84-47.3-20.7-23.04-44.32-31.97-58.17-37.02-29.14-10.63-53.58-10.07-65.22-9.69-12.56.41-34.73,1.33-59.93,12.34-16.44,7.18-26.66,15.37-41.72,27.61-23.86,19.41-27,27.49-68.74,67.57-11.46,11-20.88,19.67-35.26,28.21-9.97,5.92-18.03,9.23-32.9,15.27-36.55,14.85-46.95657,17.85677-58.91657,26.21677-23.26,16.27-21.75343,34.01323-22.75343,37.83323a75.12694,75.12694,0,0,0-1.77,29.97c3.05,20.07,13.86,33.19,20.57,41.13a113.09822,113.09822,0,0,0,32.9,26.44,210.24676,210.24676,0,0,0,26.96,11.89Z" fill="#efedef"/><path d="M484.638,434.67969l-.49024-.8711C508.04863,420.38184,586.845,370.04785,597.326,286.07227a166.31053,166.31053,0,0,0-6.91358-70.77247c-2.97705-8.73144-9.94873-29.17871-27.84814-49.09521-21.9209-24.3916-46.9458-33.51855-60.39014-38.42188a174.08528,174.08528,0,0,0-67.74756-10.06884c-12.42383.40429-35.55029,1.15674-62.24267,12.811l-.40039-.916c26.86865-11.73194,51.00927-12.51709,62.61084-12.89405a175.03214,175.03214,0,0,1,68.12255,10.12842c13.52637,4.93311,38.70362,14.11572,60.79151,38.69336C581.344,185.605,588.36211,206.188,591.35869,214.97754a167.34821,167.34821,0,0,1,6.95947,71.21777C587.7791,370.63672,508.64141,421.19531,484.638,434.67969Z" fill="#efedef"/><rect x="415.36669" y="116.13013" width="36.6599" height="16.19402" transform="translate(867.39328 248.45428) rotate(-180)" fill="#ddd"/><rect x="394.09149" y="94.88482" width="36.6599" height="16.19402" transform="translate(824.84288 205.96367) rotate(-180)" fill="#ddd"/><rect x="371.97606" y="116.13013" width="36.6599" height="16.19402" transform="translate(780.61202 248.45428) rotate(-180)" fill="#ddd"/><rect x="401.67333" y="137.37544" width="36.6599" height="16.19402" transform="translate(840.00656 290.9449) rotate(-180)" fill="#ddd"/><rect x="359.91333" y="137.37544" width="36.6599" height="16.19402" transform="translate(756.48656 290.9449) rotate(-180)" fill="#ddd"/><rect x="154.38415" y="346.3848" width="36.6599" height="16.19402" transform="translate(345.4282 708.96363) rotate(-180)" fill="#ddd"/><rect x="133.10896" y="325.13949" width="36.6599" height="16.19402" transform="translate(302.87781 666.47301) rotate(-180)" fill="#ddd"/><rect x="110.99352" y="346.3848" width="36.6599" height="16.19402" transform="translate(258.64695 708.96363) rotate(-180)" fill="#ddd"/><rect x="140.69079" y="367.63011" width="36.6599" height="16.19402" transform="translate(318.04148 751.45425) rotate(-180)" fill="#ddd"/><rect x="98.93079" y="367.63011" width="36.6599" height="16.19402" transform="translate(234.52148 751.45425) rotate(-180)" fill="#ddd"/><rect x="556.85315" y="299.10695" width="36.6599" height="16.19402" transform="translate(1150.36619 614.40792) rotate(-180)" fill="#ddd"/><rect x="535.57795" y="277.86164" width="36.6599" height="16.19402" transform="translate(1107.8158 571.9173) rotate(-180)" fill="#ddd"/><rect x="513.46252" y="299.10695" width="36.6599" height="16.19402" transform="translate(1063.58493 614.40792) rotate(-180)" fill="#ddd"/><rect x="543.15979" y="320.35226" width="36.6599" height="16.19402" transform="translate(1122.97947 656.89854) rotate(-180)" fill="#ddd"/><rect x="501.39979" y="320.35226" width="36.6599" height="16.19402" transform="translate(1039.45947 656.89854) rotate(-180)" fill="#ddd"/><path d="M433.21712,409.69806H222.04638V169.99941H433.21712ZM229.55,402.19567H425.71351V177.5018H229.55Z" fill="#d6694b"/><rect x="214.64149" y="409.76524" width="225.98073" height="11.23165" rx="2.02581" fill="#935b50"/><rect x="229.54999" y="249.82659" width="196.16352" height="8.98532" fill="#e19974"/><path d="M322.9738,176.27809s-19.6003,88.56565-87.14514,126.58515c0,0,48.52285,55.0382,54.4044,99.33243h-61.908V176.27809Z" fill="#ffba55"/><path d="M235.82866,302.95953a6.54832,6.54832,0,0,1-1.87585.61011,9.77678,9.77678,0,0,1-1.876.1745,9.6398,9.6398,0,0,1-1.87585-.17215,6.48333,6.48333,0,0,1-1.876-.61246,6.4823,6.4823,0,0,1,1.876-.61242,9.63747,9.63747,0,0,1,1.87585-.17215,9.77678,9.77678,0,0,1,1.876.1745A6.5482,6.5482,0,0,1,235.82866,302.95953Z" fill="#e6952a"/><path d="M244.3814,280.53915c2.56677-3.23565,5.11938-6.47592,7.58044-9.78707,1.255-1.63587,2.49988-3.27881,3.719-4.94126q1.85724-2.47183,3.64124-4.99667c2.40454-3.34659,4.77966-6.7132,7.0946-10.119l3.45826-5.11775,3.33947-5.19385c1.14673-1.71042,2.16932-3.49663,3.25769-5.24286,1.08277-1.75017,2.14954-3.50947,3.14844-5.30733,1.015-1.78836,2.06763-3.55783,3.05261-5.3628l2.88013-5.45629c.5-.90057.95227-1.82352,1.38025-2.75807l1.31824-2.78909,1.31933-2.79105c.40723-.94379.77124-1.90536,1.166-2.85521l1.18579-2.85164a28.44454,28.44454,0,0,0,1.09937-2.88527q.96569-2.93227,1.98559-5.86186-.77068,2.99512-1.59045,5.99182a28.66373,28.66373,0,0,1-.93714,2.95673l-1.02649,2.93027c-.35241.97337-.694,1.95237-1.06836,2.91751l-1.22766,2.85141-1.22888,2.85334c-.3988.95693-.82178,1.9022-1.29223,2.82415A205.01418,205.01418,0,0,1,274.53826,241.225c-4.43042,6.99205-9.22278,13.74439-14.25171,20.30638C255.24382,268.08167,250.01775,274.49585,244.3814,280.53915Z" fill="#e6952a"/><path d="M248.902,244.85287c2.91076-7.37126,6.24878-14.534,9.6914-21.64567,3.48523-7.09087,7.07776-14.12941,11.1012-20.95761-2.90735,7.37289-6.24585,14.53543-9.69141,21.64566C256.51506,230.98468,252.92217,238.023,248.902,244.85287Z" fill="#e6952a"/><path d="M233.778,244.85287c1.16016-9.72363,2.788-19.36128,4.53028-28.97789,1.78894-9.608,3.69519-19.19448,6.07312-28.69422-1.1565,9.7243-2.78479,19.36189-4.53028,28.97789C238.05889,225.76608,236.15227,235.35246,233.778,244.85287Z" fill="#e6952a"/><path d="M239.07964,328.78885c2.13086,2.59979,4.10071,5.32419,6.06994,8.04861q1.45917,2.05636,2.85206,4.15827,1.41961,2.08465,2.77661,4.21115A199.84544,199.84544,0,0,1,260.876,362.685a145.37085,145.37085,0,0,1,8.01489,18.54767c.611,1.57061,1.01013,3.21884,1.5177,4.82461l.72339,2.4216c.22155.81265.38781,1.64182.57727,2.46295l.52783,2.47217a21.22193,21.22193,0,0,1,.44714,2.48425q.334,2.5063.61353,5.00641-.53541-2.46862-1.02185-4.927a20.99758,20.99758,0,0,0-.61658-2.43146l-.69482-2.41067c-.23389-.802-.42408-1.615-.68079-2.40976l-.82043-2.36939c-.5719-1.57046-1.0326-3.1759-1.70643-4.70916q-.95306-2.31894-1.87084-4.64743l-2.04224-4.57651c-.6582-1.53482-1.39795-3.03412-2.13074-4.53613-.739-1.499-1.43481-3.01844-2.234-4.48819l-2.3042-4.45533-2.41906-4.39654c-1.62244-2.92618-3.30079-5.82279-5.00025-8.70862q-1.259-2.17428-2.58459-4.30917c-.86536-1.43506-1.75977-2.85172-2.6576-4.26706C242.76348,334.40054,240.92449,331.59644,239.07964,328.78885Z" fill="#e6952a"/><path d="M235.82866,354.751c.61719,7.90744.759,15.81488.78443,23.72232-.0221,7.90744-.16346,15.81491-.78443,23.72235-.621-7.90744-.76233-15.81491-.78442-23.72235C235.06963,370.56589,235.21147,362.65845,235.82866,354.751Z" fill="#e6952a"/><path d="M244.3814,364.52545a78.7119,78.7119,0,0,1,3.47412,9.0293,95.52722,95.52722,0,0,1,2.51343,9.35287,70.63588,70.63588,0,0,1,1.421,9.60178,36.88421,36.88421,0,0,1-.41321,9.68628,69.23975,69.23975,0,0,0-.80445-9.553c-.44934-3.15408-1.07214-6.286-1.73754-9.4072-.641-3.12814-1.40613-6.23385-2.15345-9.34869Z" fill="#e6952a"/><path d="M292.2667,416.63358h14.78669a15.4794,15.4794,0,0,1,15.4794,15.4794v10.20974a0,0,0,0,1,0,0H276.7873a0,0,0,0,1,0,0V432.113A15.4794,15.4794,0,0,1,292.2667,416.63358Z" transform="translate(599.32009 858.95629) rotate(-180)" fill="#d6694b"/><path d="M305.31226,412.05465a13.037,13.037,0,0,0,1.58425-3.53447,8.20637,8.20637,0,0,0,.29885-2.741,3.00615,3.00615,0,0,0-.99169-2.06792,14.05158,14.05158,0,0,1-1.75065-1.74194l-2.82766-3.81053a18.28168,18.28168,0,0,1-2.43791-4.18119l-.02144-.05483a.545.545,0,0,0-.97539-.08354,12.85168,12.85168,0,0,0-1.44934,5.52891,24.74757,24.74757,0,0,0,.20682,5.51483c.128.89208.06388,1.86166.11659,2.79539a3.59179,3.59179,0,0,0,1.03279,2.40195,7.68272,7.68272,0,0,0,2.46,1.66421,10.103,10.103,0,0,0,3.87765.8034.99457.99457,0,0,0,.859-.464Z" fill="#8b9d36"/><path d="M313.51918,393.89529l-3.16068,7.56925a10.34743,10.34743,0,0,1-1.00487,1.68185,4.05329,4.05329,0,0,0-.40047.81134,3.45067,3.45067,0,0,0-.13625.85935,7.255,7.255,0,0,0,.05316.91274,7.51216,7.51216,0,0,0,.17511.97516c.06187.30957.17891.68056.27852,1.08807.11771.39277.19544.79715.33749,1.38848l.0163.0679a.50942.50942,0,0,0,.4351.38629,4.13147,4.13147,0,0,0,1.62021-.1827,6.91489,6.91489,0,0,0,1.32359-.652,7.39342,7.39342,0,0,0,1.0252-.86773,7.08276,7.08276,0,0,0,.7737-.98388,3.86466,3.86466,0,0,0,.63589-2.21332c-.00849-.77728-.12062-1.548-.10721-2.27609-.00313-.73283-.02078-1.45627-.059-2.17368-.06477-.72222-.15076-1.43729-.24033-2.14688a29.82237,29.82237,0,0,0-.92558-4.21793.34029.34029,0,0,0-.4266-.2228A.34929.34929,0,0,0,313.51918,393.89529Z" fill="#5e7c24"/><path d="M334.75859,399.39405c-1.9242.514-3.78965,1.12805-5.66024,1.72619l-2.77652.94445-2.73094,1.013c-.90638.34352-1.86992.575-2.81337.84015a7.10733,7.10733,0,0,0-2.53529,1.31488,13.32249,13.32249,0,0,0-3.80864,5.01117l-.04578.101a.38776.38776,0,0,0,.1932.513l.01362.00581a8.53177,8.53177,0,0,0,3.56808.5528,12.13578,12.13578,0,0,0,3.05727-.51427,7.06237,7.06237,0,0,0,2.56924-1.40557c.75159-.6542,1.48374-1.34034,2.26615-1.92743l2.33361-1.78136,2.27463-1.87416c1.49357-1.28675,2.98647-2.56835,4.41259-3.96364a.3309.3309,0,0,0-.31761-.556Z" fill="#50661a"/><path d="M338.0573,414.94127c-1.69436-.56586-3.39319-1.00788-5.0918-1.46006l-2.54981-.618-2.55338-.52209c-.85165-.15713-1.69794-.46346-2.54691-.698a5.61392,5.61392,0,0,0-2.56745-.12207,10.35142,10.35142,0,0,0-2.60118.84852,9.54854,9.54854,0,0,0-2.63647,1.8515.47212.47212,0,0,0-.02234.64,9.545,9.545,0,0,0,2.50023,2.03163,10.35452,10.35452,0,0,0,2.53551,1.02843,5.61288,5.61288,0,0,0,2.56946.05807c.86349-.17455,1.72921-.42091,2.58979-.51807l2.58354-.34195,2.58689-.438c1.72608-.33224,3.45171-.6542,5.18159-1.1a.33382.33382,0,0,0,.2401-.40661A.33755.33755,0,0,0,338.0573,414.94127Z" fill="#5e7c24"/><path d="M325.66584,419.8153a8.66859,8.66859,0,0,0-2.7468,1.3695,8.89582,8.89582,0,0,0-1.82146,1.80314,4.79136,4.79136,0,0,0-.91977,2.2074c-.12418.81525-.18181,1.656-.369,2.44327l-.50679,2.38263-.37412,2.43769c-.09649.82082-.19119,1.64634-.23809,2.48682a10.45138,10.45138,0,0,0,.0985,2.6014.32036.32036,0,0,0,.59948.08186l.0411-.08186a38.17166,38.17166,0,0,1,2.49977-3.971l1.32851-1.976,1.283-1.99667a23.36966,23.36966,0,0,1,1.46744-1.9166,4.73741,4.73741,0,0,0,.95818-2.13493,9.29152,9.29152,0,0,0-.71763-5.47005A.49448.49448,0,0,0,325.66584,419.8153Z" fill="#8b9d36"/><path d="M351.73438,426.08787a18.5378,18.5378,0,0,0-3.95694-3.36483q-1.09823-.70307-2.2657-1.31131c-.78285-.38987-1.58849-.71987-2.40239-1.06-.82239-.28165-1.62513-.74634-2.46695-1.05289a4.87637,4.87637,0,0,0-2.60721-.32465,7.93941,7.93941,0,0,0-5.10721,2.77361.46824.46824,0,0,0,.00938.621l.01742.01887a10.818,10.818,0,0,0,2.36733,1.91884,11.0955,11.0955,0,0,0,2.20249,1.05132,4.91,4.91,0,0,0,2.20384.21476,14.0155,14.0155,0,0,1,2.301-.21286c.7565.03306,1.5264.05629,2.28781.13971q1.1629.05478,2.32691.21833a32.31677,32.31677,0,0,1,4.72036.893l.03216.0086a.33008.33008,0,0,0,.33771-.53147Z" fill="#8b9d36"/><path d="M334.28753,423.96812a6.8617,6.8617,0,0,0-3.05593.63053,7.77743,7.77743,0,0,0-2.22527,1.52171,4.83813,4.83813,0,0,0-1.28943,2.21847c-.23742.84863-.36764,1.73613-.59479,2.56243l-.29907,1.25268-.228,1.26775a24.08891,24.08891,0,0,0-.17668,2.56456,16.30607,16.30607,0,0,0,.74154,4.97074.33285.33285,0,0,0,.63187.01117l.00826-.02435a26.08066,26.08066,0,0,1,1.74082-4.24842,20.49021,20.49021,0,0,1,1.08662-1.90454l.5604-.91832.6131-.88448a11.10248,11.10248,0,0,1,1.473-1.59754,4.23928,4.23928,0,0,0,1.09488-1.76963,11.575,11.575,0,0,0,.37926-5.20783l-.00425-.03172A.4746.4746,0,0,0,334.28753,423.96812Z" fill="#50661a"/><path d="M352.99008,439.39239c-1.26195-1.08014-2.55785-2.06535-3.83544-3.06821l-1.92754-1.461-1.93871-1.39373a20.43335,20.43335,0,0,1-1.81877-1.5742,4.74631,4.74631,0,0,0-2.01868-1.08907,9.67075,9.67075,0,0,0-2.42942-.29539,13.34808,13.34808,0,0,0-1.37.0832,13.60532,13.60532,0,0,0-1.58582.28255l-.02524.00658a.48863.48863,0,0,0-.36406.50188,6.34814,6.34814,0,0,0,.36406,1.651,9.77521,9.77521,0,0,0,.64639,1.35208,8.69775,8.69775,0,0,0,1.71737,2.05083,4.90739,4.90739,0,0,0,2.20607,1.11488c.82239.18661,1.67225.29694,2.45533.53158l2.37.64125,2.40708.51829c1.62111.29673,3.23484.58642,4.90084.73841a.33542.33542,0,0,0,.36473-.30365A.34368.34368,0,0,0,352.99008,439.39239Z" fill="#50661a"/><path d="M306.51949,410.59279a7.97889,7.97889,0,0,0-1.65393,2.35907,7.51364,7.51364,0,0,0-.639,2.245,3.86626,3.86626,0,0,0,.34039,2.11662c.30845.67709.69083,1.34157.93116,2.02805l.78286,2.04927.91843,2.02538a17.72647,17.72647,0,0,0,2.40485,3.90713.32538.32538,0,0,0,.56777-.22726l-.00268-.07416a41.59086,41.59086,0,0,1,.16908-4.2378l.13624-2.13371.08131-2.12443a19.05044,19.05044,0,0,1,.28075-2.1538,3.78984,3.78984,0,0,0-.26936-2.07139,7.7334,7.7334,0,0,0-1.21572-1.94775,8.44492,8.44492,0,0,0-2.19646-1.8381A.52966.52966,0,0,0,306.51949,410.59279Z" fill="#50661a"/><path d="M299.0282,413.71338l-.37256.09549-.30956.11447-.61155.236a5.94971,5.94971,0,0,0-.94814.5595,4.35191,4.35191,0,0,0-1.25636,1.31846,2.07571,2.07571,0,0,0-.25172,1.5608c.11011.55336.31627,1.12336.37166,1.66175a15.011,15.011,0,0,0,.7661,3.28554,6.41469,6.41469,0,0,0,1.93269,2.98312.341.341,0,0,0,.54319-.26111l.00291-.07337a7.74437,7.74437,0,0,1,.72232-2.7209c.17578-.43956.34888-.86382.56352-1.29858l.55415-1.29a8.21277,8.21277,0,0,1,.79849-1.25178,1.68559,1.68559,0,0,0,.27562-1.33633,4.61522,4.61522,0,0,0-.63455-1.56013,7.29938,7.29938,0,0,0-.60395-.87208l-.43175-.47787-.216-.24178-.2774-.2601-.019-.01764A.64834.64834,0,0,0,299.0282,413.71338Z" fill="#8b9d36"/><path d="M297.60365,413.50365a9.01759,9.01759,0,0,0-.22157-3.06117,9.19616,9.19616,0,0,0-.94188-2.37191,4.818,4.818,0,0,0-1.643-1.70944c-.68882-.43778-1.42835-.82853-2.05887-1.32148l-1.92264-1.44889-1.9836-1.39407-4.05231-2.72123-.00827-.00547a.33383.33383,0,0,0-.49718.39857,41.90811,41.90811,0,0,0,2.1806,4.47334l1.22108,2.1261,1.30282,2.05229c.44827.67062.788,1.4432,1.182,2.16508a4.83315,4.83315,0,0,0,1.609,1.76707,9.09705,9.09705,0,0,0,2.31976,1.09555,8.85253,8.85253,0,0,0,3.0499.39679A.49175.49175,0,0,0,297.60365,413.50365Z" fill="#50661a"/><path d="M288.99313,416.38883a9.679,9.679,0,0,0-.78889-3.18145,10.86588,10.86588,0,0,0-1.44153-2.41882,5.9954,5.9954,0,0,0-2.06468-1.67392c-.81167-.40841-1.668-.76064-2.42942-1.22778l-2.31507-1.36157-2.37291-1.28473c-1.60592-.82429-3.20379-1.65494-4.87559-2.38654a.33121.33121,0,0,0-.40651.48971l.008.012c1.04172,1.52316,2.15738,2.94738,3.26477,4.37785l1.69726,2.0974,1.75534,2.02069c.59524.66012,1.09555,1.43538,1.64076,2.15436a5.88974,5.88974,0,0,0,2.0055,1.70821,10.844,10.844,0,0,0,2.62887.96344,9.944,9.944,0,0,0,3.2813.20068A.46568.46568,0,0,0,288.99313,416.38883Z" fill="#5e7c24"/><path d="M288.78831,425.343a8.09369,8.09369,0,0,0-.08309,2.83883,7.38634,7.38634,0,0,0,.66872,2.17413,3.67261,3.67261,0,0,0,1.39619,1.53075,20.95823,20.95823,0,0,1,1.82815,1.149l1.69615,1.26575,1.76807,1.20209c1.2088.7747,2.41,1.55622,3.70411,2.25565a.341.341,0,0,0,.47976-.42415c-.53583-1.36994-1.16434-2.6578-1.785-3.95247l-.97651-1.902-1.04842-1.83843a20.96038,20.96038,0,0,1-.91665-1.955,3.67312,3.67312,0,0,0-1.34816-1.57319,7.38262,7.38262,0,0,0-2.07585-.93,8.09622,8.09622,0,0,0-2.82767-.26523A.5351.5351,0,0,0,288.78831,425.343Z" fill="#5e7c24"/><path d="M290.06188,433.55638l-.39847.04712-.33994.08064-.67342.17589a5.85608,5.85608,0,0,0-1.08505.50924,4.907,4.907,0,0,0-1.55231,1.37966,2.777,2.777,0,0,0-.54833,1.8056c.01831.66447.13624,1.345.12708,1.98584a14.27816,14.27816,0,0,0,.5021,3.86972,9.49377,9.49377,0,0,0,1.75981,3.45975.3459.3459,0,0,0,.60462-.17835l.00313-.02345a13.64078,13.64078,0,0,1,.83422-3.21842,14.64748,14.64748,0,0,1,.63612-1.44745c.199-.46915.44871-.93831.67073-1.39507a7.85442,7.85442,0,0,1,.95394-1.29645,2.11033,2.11033,0,0,0,.49049-1.416,5.87891,5.87891,0,0,0-.33034-1.77711,9.066,9.066,0,0,0-.40852-1.04251l-.3147-.59055-.15456-.29985-.20929-.33146-.02367-.03752A.56508.56508,0,0,0,290.06188,433.55638Z" fill="#50661a"/><path d="M288.80707,417.476l-.379-.10476-.33347-.05952-.66247-.12285a7.77974,7.77974,0,0,0-1.12816-.059,5.45831,5.45831,0,0,0-1.82681.28891,2.19684,2.19684,0,0,0-1.21035.97661,9.55956,9.55956,0,0,1-.90459,1.39c-.35178.3845-.70423.79145-1.062,1.16669-.34709.41733-.70646.77917-1.081,1.15206a6.48968,6.48968,0,0,1-2.54177,1.77309l-.06343.02111a.33613.33613,0,0,0-.06991.60529,6.22918,6.22918,0,0,0,3.96878.52957,15.98955,15.98955,0,0,0,3.70164-.99192c.56643-.23865,1.23359-.35624,1.83575-.55849a2.653,2.653,0,0,0,1.44934-1.08081,5.064,5.064,0,0,0,.75338-1.86735,6.34393,6.34393,0,0,0,.13222-1.17194l-.03886-.68693-.025-.34486-.07192-.39187a.5822.5822,0,0,0-.41678-.4562Z" fill="#8b9d36"/><path d="M336.00322,441.46484a52.04312,52.04312,0,0,1-.665-8.42773c.0127-.64551.03809-1.15137.05957-1.59082a12.0585,12.0585,0,0,0-.05566-2.5127c-.18262-1.38086-.60986-4.6123-2.709-6.52832a4.21933,4.21933,0,0,0-2.67286-1.06347,29.12406,29.12406,0,0,1-5.06884-1.25586c-3.26514-1.09668-5.23584-1.75879-6.79493-3.65625a6.42269,6.42269,0,0,1-1.26074-2.40723,4.22989,4.22989,0,0,0-1.08349-1.93652A7.5298,7.5298,0,0,0,309.10381,410a5.79154,5.79154,0,0,0-3.01856,1.82422,7.90732,7.90732,0,0,1-3.999,2.3457,6.76353,6.76353,0,0,1-2.47559.11231c-.54541-.04883-1.2246-.09668-2.23486-.10059a24.95943,24.95943,0,0,0-7.37158,1.2334,1.08,1.08,0,0,0-.73535.88672,1.76358,1.76358,0,0,0,.27734,1.38965,2.41069,2.41069,0,0,1,.374,1.80468,49.89068,49.89068,0,0,0-.43457,7.83106c.09082,4.28027.65381,5.36035,1.22217,6.09863a4.73111,4.73111,0,0,0,1.08887,1.02149,8.40159,8.40159,0,0,1,1.2998,1.14257,10.481,10.481,0,0,1,2.5293,5.27539l-.89941.16993a9.5771,9.5771,0,0,0-2.30176-4.82422,7.517,7.517,0,0,0-1.17383-1.0293,5.63915,5.63915,0,0,1-1.26807-1.19726c-.80664-1.04883-1.32421-2.5254-1.4121-6.6377a50.91678,50.91678,0,0,1,.44335-7.97754,1.51057,1.51057,0,0,0-.25341-1.208,2.65933,2.65933,0,0,1-.39893-1.97851,1.99825,1.99825,0,0,1,1.36328-1.63867,25.83694,25.83694,0,0,1,7.64209-1.27637,21.63888,21.63888,0,0,1,2.32569.10351,5.93084,5.93084,0,0,0,2.187-.09179,6.95939,6.95939,0,0,0,3.5747-2.11719,6.69322,6.69322,0,0,1,3.459-2.05664,8.48457,8.48457,0,0,1,7.498,2.3457,5.12056,5.12056,0,0,1,1.29589,2.293,5.49144,5.49144,0,0,0,1.0962,2.10547c1.333,1.62207,3.01123,2.2373,6.3789,3.36914a28.42716,28.42716,0,0,0,4.92676,1.2207,5.07567,5.07567,0,0,1,3.14014,1.29c2.34619,2.14063,2.8042,5.60449,2.99951,7.083a12.99308,12.99308,0,0,1,.063,2.67969c-.02149.43066-.04639.92871-.0586,1.5625a50.97594,50.97594,0,0,0,.65235,8.25976Z" fill="#7e883b"/><path d="M294.19705,438.69307a7.19278,7.19278,0,0,0-1.95077,1.90912,6.28662,6.28662,0,0,0-.91017,1.95446,3.18878,3.18878,0,0,0,.09984,1.95513c.23407.64505.54923,1.28317.72188,1.92777.19342.64538.39333,1.28864.61,1.932.2506.64058.51237,1.27792.80162,1.91236a15.46645,15.46645,0,0,0,1.05892,1.87025,3.63008,3.63008,0,0,0,1.7674,1.55086.30771.30771,0,0,0,.37121-.42627l-.06611-.13669a3.64053,3.64053,0,0,1-.16417-1.60882c.03351-.59122.0927-1.195.1865-1.80381.073-.60685.17-1.219.27719-1.82983.07705-.60886.1693-1.22085.26735-1.83172a13.72594,13.72594,0,0,1,.50166-1.845,2.9444,2.9444,0,0,0-.031-1.822,6.66211,6.66211,0,0,0-.96645-1.82458,8.30557,8.30557,0,0,0-1.93447-1.87014l-.00871-.006A.56207.56207,0,0,0,294.19705,438.69307Z" fill="#8b9d36"/><path d="M353.928,448.86711c-1.262-1.08014-2.55785-2.06536-3.83544-3.06822l-1.92754-1.461-1.93872-1.39372a20.438,20.438,0,0,1-1.81877-1.5742,4.74613,4.74613,0,0,0-2.01867-1.08908,9.67076,9.67076,0,0,0-2.42942-.29538,13.34844,13.34844,0,0,0-1.37006.0832,13.60286,13.60286,0,0,0-1.58581.28254l-.02524.00659a.48862.48862,0,0,0-.36407.50187,6.34831,6.34831,0,0,0,.36407,1.651,9.77508,9.77508,0,0,0,.64639,1.35207,8.69777,8.69777,0,0,0,1.71737,2.05084,4.90749,4.90749,0,0,0,2.20606,1.11487c.82239.18661,1.67226.29695,2.45534.53158l2.37.64125,2.40709.51829c1.6211.29673,3.23484.58642,4.90083.73841a.33542.33542,0,0,0,.36474-.30365A.34365.34365,0,0,0,353.928,448.86711Z" fill="#8b9d36"/><path d="M335.57153,440.29259a7.97862,7.97862,0,0,0-1.65394,2.35907,7.5374,7.5374,0,0,0-.63142,2.18231,4.05576,4.05576,0,0,0,.33279,2.17933c.30845.6771.69084,1.34158.93117,2.02807l.02637.069a8.72543,8.72543,0,0,0,2.25041,3.299c.53116.48919,1.10453,1.0428,1.539,1.52816a.32538.32538,0,0,0,.56776-.22727l-.00268-.07415a9.53774,9.53774,0,0,1,.37784-2.54955,7.63749,7.63749,0,0,0,.25418-1.68466l.045-1.17615a19.18673,19.18673,0,0,1,.28155-2.15959,3.96238,3.96238,0,0,0-.29477-2.12253,7.75848,7.75848,0,0,0-1.19111-1.89082,8.44473,8.44473,0,0,0-2.19646-1.8381A.52965.52965,0,0,0,335.57153,440.29259Z" fill="#50661a"/><polygon points="228.663 443.507 250.546 443.305 257.561 404.484 220.932 404.823 228.663 443.507" fill="#e19974"/><polygon points="221.814 409.239 220.932 404.823 257.561 404.484 256.76 408.916 221.814 409.239" fill="#d6694b"/><rect x="245.3881" y="424.95011" width="6.53767" height="6.53767" transform="translate(728.43311 550.76102) rotate(134.47064)" fill="#d6694b"/><rect x="236.14283" y="425.03553" width="6.53767" height="6.53767" transform="translate(712.77208 557.5038) rotate(134.47064)" fill="#d6694b"/><rect x="227.00403" y="425.11997" width="6.53767" height="6.53767" transform="translate(697.2914 564.16893) rotate(134.47064)" fill="#d6694b"/><path d="M230.42077,372.11912s-1.67075,27.16509,9.645,32.81429C240.06575,404.93341,243.86974,394.6049,230.42077,372.11912Z" fill="#558031"/><path d="M266.87074,383.44466s-18.39568,3.3493-26.805,21.48875C240.06575,404.93341,260.26344,397.86465,266.87074,383.44466Z" fill="#849f4c"/><path d="M260.66625,419.06439s-9.49991-13.9319-20.6005-14.131C240.06575,404.93341,241.84076,416.20544,260.66625,419.06439Z" fill="#a6b862"/><path d="M248.70717,375.82s-12.89179,11.99092-8.64142,29.11337C240.06575,404.93341,247.19756,397.23248,248.70717,375.82Z" fill="#849f4c"/><path d="M240.06575,404.93341s-4.72238-16.67895-27.85376-20.75335C212.212,384.18006,217.54933,399.35693,240.06575,404.93341Z" fill="#a6b862"/><path d="M206.24866,400.87446s17.55125-7.4261,33.81709,4.05895C240.06575,404.93341,218.60878,407.71085,206.24866,400.87446Z" fill="#849f4c"/><path d="M206.56518,417.78275s8.38117-13.70494,33.50057-12.84934Z" fill="#558031"/><path d="M276.53671,402.39061s-23.21766-8.36585-36.77753,2.13536C239.75918,404.526,252.79164,411.54825,276.53671,402.39061Z" fill="#558031"/><path d="M257.33312,377.72283s-20.51156,14.79341-17.43469,27.224C239.89843,404.94682,254.1162,393.32976,257.33312,377.72283Z" fill="#558031"/><path d="M221.49964,419.64078s16.99383-3.06306,18.56611-14.70737C240.06575,404.93341,227.63492,405.66429,221.49964,419.64078Z" fill="#849f4c"/><g clip-path="url(#clip-path)"><path d="M331.44748,305.75936S299.688,453.9347,277.08488,474.94386c0,0,1.76511,19.20838,18.69372,21.60943s29.56563-15.00655,46.05708-6.00262S359.13854,306.88653,331.44748,305.75936Z" fill="#6c7fd8"/><path d="M340.00041,371.93271c1.95085-4.35189,3.44591-6.953,3.44591-6.953l54.87953-1.40061,1.54509,8.35364Z" fill="#f9977a"/><path d="M381.86309,280.943s15.00654-3.2014,29.21274,8.60375,25.211,28.61248,25.211,28.61248l-12.40541,22.81L403.47251,324.362s7.20315,18.80821-3.60157,27.21187l-.40017,12.00524-56.02445,1.40061-11.405-40.01746-.80035-36.616s11.43077-7.18409,23.52315-5.59292Z" fill="#ffba55"/><path d="M303.75643,304.63219l7.8832,25.94869L331.44748,349.573s-5.4832,22.80918-20.33726,22.27235a14.78165,14.78165,0,0,1-12.2127-7.68337c-2.58535-4.6054-7.998-17.97425-7.998-31.48015l-1.14114-25.079Z" fill="#f9977a"/><path d="M311.63958,330.58087c.65283,2.09152,1.21655,4.20334,1.76684,6.31821.55212,2.11447,1.03113,4.24557,1.55029,6.36752.45337,2.137.94178,4.26593,1.36231,6.41037.41968,2.14462.82666,4.29215,1.14282,6.46036-.654-2.09122-1.21741-4.20313-1.76819-6.3179-.54992-2.115-1.03186-4.24539-1.54883-6.36783-.45129-2.13745-.94262-4.26575-1.36084-6.41071C312.36382,334.89636,311.9572,332.74878,311.63958,330.58087Z" fill="#dd765e"/><path d="M304.60576,310.80771s1.00825-5.67918-5.71622-16.47833-13.16749-18.58105-10.29-10.08717l2.29993,6.43631s-8.53407-5.638-13.32395-9.44209a7.57432,7.57432,0,0,0-9.0015-.44851c-2.49413,1.74059-2.95064,4.13627,1.70458,9.57475,6.96252,8.134,10.87227,12.23249,13.17916,13.73774.79921.52148,9.8994,5.46347,9.8994,5.46347Z" fill="#f9977a"/><path d="M295.7786,294.49465a9.53208,9.53208,0,0,1-1.37783-.76372,15.35629,15.35629,0,0,1-1.25734-.8988c-.39774-.3251-.7956-.64913-1.16386-1.01255a11.59794,11.59794,0,0,1-1.08008-1.141,6.77618,6.77618,0,0,1,1.43974.6613,10.76568,10.76568,0,0,1,1.288.88162,11.398,11.398,0,0,1,1.15267,1.04862A7.83817,7.83817,0,0,1,295.7786,294.49465Z" fill="#dd765e"/><path d="M283.28051,289.97252a32.24724,32.24724,0,0,1-3.162-2.15415c-1.023-.76176-1.99561-1.58742-2.94338-2.44254a32.37035,32.37035,0,0,1-2.68716-2.73277,17.5662,17.5662,0,0,1-2.23951-3.11385c1.7356,1.87072,3.58056,3.56845,5.45163,5.27113C279.5577,286.5135,281.45658,288.18222,283.28051,289.97252Z" fill="#dd765e"/><path d="M280.344,292.34037a31.1573,31.1573,0,0,1-3.56744-2.20106,35.26532,35.26532,0,0,1-3.29323-2.60447,23.623,23.623,0,0,1-2.90767-3.05128,9.88986,9.88986,0,0,1-2.00161-3.6956,14.3354,14.3354,0,0,0,2.457,3.30568c.94864.99145,1.93262,1.95339,2.9719,2.861C276.05268,288.80265,278.21041,290.534,280.344,292.34037Z" fill="#dd765e"/><path d="M277.08488,293.88644a22.63524,22.63524,0,0,1-3.01414-1.79279,30.0245,30.0245,0,0,1-2.76829-2.15661,20.83044,20.83044,0,0,1-4.49814-5.36948c.82216.83755,1.62024,1.66681,2.45767,2.4602.85006.77986,1.68417,1.5708,2.55571,2.325Z" fill="#dd765e"/><path d="M348.752,280.92884h0a37.87613,37.87613,0,0,0-33.80638,28.60836c-1.20251,4.88391-2.33145,14.27305-3.30592,21.04368,0,0,10.07151,16.5072,19.80785,18.99208l4.903-10.21579Z" fill="#ffba55"/><path d="M336.35052,339.35724c.79236-3.864,1.57079-7.73112,2.42358-11.58157l2.50446-11.56317-.004.02485a41.683,41.683,0,0,0-.34743-8.4746,33.1535,33.1535,0,0,0-2.218-8.18017,22.68958,22.68958,0,0,0-4.73993-6.982,21.52885,21.52885,0,0,0-7.13291-4.56l1.97193.83277.98844.41752.91409.56032c.602.385,1.23257.73461,1.814,1.15145l1.6294,1.40626a23.0042,23.0042,0,0,1,4.891,7.02584,33.56361,33.56361,0,0,1,2.34487,8.2597,36.26727,36.26727,0,0,1,.3246,8.58864l-.001.01162-.00317.01393L339.0709,327.842C338.209,331.69023,337.27274,335.5222,336.35052,339.35724Z" fill="#e6952a"/><path d="M316.23445,482.8311c4.20183-84.03667,23.71035-110.89839,23.71035-110.89839h61.07106l38.72773,144.513S482.464,635.86117,496.1228,643.94719s-34.372,16.41764-61.905,13.768-75.19836-6.03753-99.88182,3.74243-67.53165-9.95429-67.53165-9.95429Z" fill="#6c7fd8"/><path d="M453.49434,269.73823c-2.201,3.20127-6.40274-3.40154-8.60381-4.20186-2.20087-.80032-2.80111,0,1.80091,6.20266s4.29677,11.55452,4.29677,11.55452l-8.69871,40.66837-6.00268-5.8029L423.8814,340.96926l10.58466,8.40984a18.5413,18.5413,0,0,0,30.05584-13.66278l.37741-51.25556,2.00094-5.71876Z" fill="#f9977a"/><path d="M436.28683,253.93123l4.00175,10.20445,2.9311-1.70074,24.5809,22.11923,4.702-14.716s-21.20925-8.10354-15.40672-16.90738l-3.60157-4.602s23.81039-17.00742,65.42854-4.40192l-27.612-67.02925s-16.80734,32.81432-42.21842,44.81956Z" fill="#f73c4f"/><path d="M372.85916,212.92175s15.40672-14.01453,24.81082,16.49879-4.00174,52.52291-4.00174,52.52291S350.64947,295.36614,372.85916,212.92175Z"/><path d="M461.898,262.43494s.87756-2.83517-1.13792-3.07143a2.36408,2.36408,0,0,0-2.32935,1.35425c-1.365,2.72347-4.43354,9.60266-.33438,9.12041,0,0,.30013,4.602,3.20139,2.60114,0,0,.80035,3.0013,3.2014,1.40061,0,0,.7003,2.44067,3.30144.47s3.9017-10.98984.70031-9.03137l-.70031.75795a2.02377,2.02377,0,0,0-2.90127-1.90083S464.69923,261.03433,461.898,262.43494Z" fill="#f9977a"/><path d="M458.09636,269.83817a18.69383,18.69383,0,0,1,1.53028-3.89191,18.47714,18.47714,0,0,1,2.27136-3.51132,18.47756,18.47756,0,0,1-1.53028,3.89193A18.69268,18.69268,0,0,1,458.09636,269.83817Z" fill="#dd765e"/><path d="M461.29778,272.4393a22.04806,22.04806,0,0,1,1.41858-4.31757,21.79209,21.79209,0,0,1,2.183-3.98605,21.79922,21.79922,0,0,1-1.41858,4.3176A22.05544,22.05544,0,0,1,461.29778,272.4393Z" fill="#dd765e"/><path d="M464.49919,273.8399a19.36505,19.36505,0,0,1,1.267-4.064,19.14082,19.14082,0,0,1,2.03443-3.73938,19.13948,19.13948,0,0,1-1.26709,4.064A19.3692,19.3692,0,0,1,464.49919,273.8399Z" fill="#dd765e"/><path d="M423.28116,241.926s-6.803-9.4041,5.40235-14.80646a172.9284,172.9284,0,0,0,19.0083-9.60419l10.40454,28.24243-21.80952,8.17346S427.08281,254.93167,423.28116,241.926Z" fill="#6c7fd8"/><path d="M491.31084,176.89762s.80035,35.81563,27.612,67.02925c0,0,10.70467,1.80078-4.90213-39.61729C514.02075,204.30958,501.61533,172.89587,491.31084,176.89762Z" fill="#b02336"/><path d="M487.7271,183.13057c1.25671,5.39624,2.75671,10.714,4.36011,15.98833,1.64441,5.26143,3.43029,10.4747,5.52722,15.55725a117.33417,117.33417,0,0,0,7.18713,14.81042,68.976,68.976,0,0,0,9.82294,13.22637,49.06652,49.06652,0,0,1-5.95886-5.8236,62.68926,62.68926,0,0,1-4.9726-6.72152,91.36865,91.36865,0,0,1-7.62121-14.86144,127.96121,127.96121,0,0,1-5.23133-15.83266A116.48956,116.48956,0,0,1,487.7271,183.13057Z" fill="#b02336"/><path d="M426.08232,236.72372a7.9653,7.9653,0,0,1,1.76026-1.40208,12.11747,12.11747,0,0,1,1.932-.97244,11.94791,11.94791,0,0,1,2.06885-.63057,7.88033,7.88033,0,0,1,2.24243-.19631,7.881,7.881,0,0,1-1.75927,1.40439,11.95252,11.95252,0,0,1-1.933.97016,12.11676,12.11676,0,0,1-2.0697.62823A7.96219,7.96219,0,0,1,426.08232,236.72372Z" fill="#065082"/><path d="M427.88311,240.72546a13.03608,13.03608,0,0,1,2.42236-1.60678,20.84412,20.84412,0,0,1,2.58581-1.17386,20.54385,20.54385,0,0,1,2.7157-.82934,12.88977,12.88977,0,0,1,2.88086-.39176,12.894,12.894,0,0,1-2.42151,1.60912,20.55345,20.55345,0,0,1-2.58654,1.17152,20.84022,20.84022,0,0,1-2.71668.827A13.0297,13.0297,0,0,1,427.88311,240.72546Z" fill="#065082"/><path d="M430.08416,245.32747a15.266,15.266,0,0,1,2.62133-1.75185,24.68452,24.68452,0,0,1,2.79395-1.32249,24.34107,24.34107,0,0,1,2.93127-.98082,15.10018,15.10018,0,0,1,3.10559-.54685,15.09907,15.09907,0,0,1-2.62048,1.75417,24.33735,24.33735,0,0,1-2.7948,1.32019,24.67775,24.67775,0,0,1-2.93225.9785A15.263,15.263,0,0,1,430.08416,245.32747Z" fill="#065082"/><polygon points="422.223 239.948 417.479 243.026 419.851 247.528 425.073 246.44 422.223 239.948" fill="#f73c4f"/><path d="M496.1228,202.325a120.47634,120.47634,0,0,0,8.79453,21.10108,7.07527,7.07527,0,0,0,1.78687-.37253c4.74735-1.65625,6.84014-8.03161,4.67408-14.23966-2.16587-6.20811-7.77012-9.898-12.51747-8.24172A7.20825,7.20825,0,0,0,496.1228,202.325Z" fill="#ffba55"/><path d="M395.37654,232.83049c.50685,11.18952.32268,38.42623-13.51345,38.10816v19.00829s-.80035,21.80952-4.602,24.01048-20.40891-25.211-22.81-32.014-4.06728-44.91481,15.34118-51.21756c9.48345-3.07967,15.73408-3.77117,19.647-3.673A6.06854,6.06854,0,0,1,395.37654,232.83049Z" fill="#f9977a"/><path d="M367.857,266.03651a23.62382,23.62382,0,0,0,14.00612,4.90214v5.00218S371.25846,274.24009,367.857,266.03651Z" fill="#dd765e"/><path d="M377.98271,237.73877a.82764.82764,0,0,1-.5205-.18262c-2.96778-2.37451-6.34912-.06836-6.4917.03174a.83388.83388,0,0,1-.96-1.36377c1.5542-1.09668,5.32861-2.50293,8.49365.03027a.83353.83353,0,0,1-.52149,1.48438Z" fill="#160b07"/><path d="M393.34209,237.73877a.82765.82765,0,0,1-.52051-.18262c-2.96777-2.37451-6.34912-.06836-6.4917.03174a.83388.83388,0,0,1-.96-1.36377c1.55371-1.09668,5.32862-2.50293,8.49365.03027a.83353.83353,0,0,1-.52148,1.48438Z" fill="#160b07"/><circle cx="378.48982" cy="259.39192" r="4.05235" fill="#b02336"/><path d="M382.54216,240.32529a12.86155,12.86155,0,0,1,2.01343,2.87341,14.62317,14.62317,0,0,1,1.30286,3.27371,6.71211,6.71211,0,0,1,.08178,3.75183,2.52147,2.52147,0,0,1-.5791.9515,1.93343,1.93343,0,0,1-1.00793.48767,2.86386,2.86386,0,0,1-1.811-.43335,3.83586,3.83586,0,0,0,1.56739-.34827,1.13806,1.13806,0,0,0,.57238-.98865,9.86778,9.86778,0,0,0-.43762-3.005C383.705,244.77364,382.96855,242.65158,382.54216,240.32529Z" fill="#dd765e"/><path d="M346.44768,349.573a26.39625,26.39625,0,0,0,2.56873,1.12481,27.79129,27.79129,0,0,0,2.63073.91172,28.10385,28.10385,0,0,0,5.42115,1.0433,20.55388,20.55388,0,0,0,5.48693-.21432l1.35938-.25971,1.32483-.41022a7.38392,7.38392,0,0,0,1.3125-.46722c.42834-.183.8634-.35773,1.305-.52786a15.74363,15.74363,0,0,1-5.17041,2.29269,16.96332,16.96332,0,0,1-5.69031.41675,21.39721,21.39721,0,0,1-5.55163-1.268A20.37069,20.37069,0,0,1,346.44768,349.573Z" fill="#e6952a"/><path d="M399.8709,351.57382a12.49762,12.49762,0,0,1-4.62525,1.85367,12.18038,12.18038,0,0,1-2.50988.20651,7.74866,7.74866,0,0,1-2.469-.47192,30.45812,30.45812,0,0,0,4.82337-.55316C396.67424,352.31125,398.2365,351.91931,399.8709,351.57382Z" fill="#e6952a"/><path d="M405.14924,330.59061s-26.5876-42.44445-47.99694-48.64716c0,0-15.10659-2.00087-20.50894,2.201s22.81,126.055,71.43116,124.25421c0,0-8.62718-44.11669-8.53724-46.81487S408.22659,345.22293,405.14924,330.59061Z" fill="#6c7fd8"/><path d="M389.45619,242.29276a1.87694,1.87694,0,0,0,0-3.75164,1.87694,1.87694,0,0,0,0,3.75164Z" fill="#160b07"/><path d="M374.53,242.46835a1.87694,1.87694,0,0,0,0-3.75164,1.87694,1.87694,0,0,0,0,3.75164Z" fill="#160b07"/><path d="M363.21086,371.93271c1.36658,2.25653,2.78235,4.47244,4.30445,6.61478q2.23938,3.23991,4.67578,6.323a90.92444,90.92444,0,0,0,10.63415,11.46906,54.80622,54.80622,0,0,0,6.1012,4.84,44.598,44.598,0,0,0,6.72278,3.89022,38.00959,38.00959,0,0,0,7.34668,2.53681,35.80778,35.80778,0,0,0,7.79773.8118,31.09676,31.09676,0,0,1-7.93958-.04544,34.14842,34.14842,0,0,1-7.70239-2.1666,47.3029,47.3029,0,0,1-13.38721-8.68375,74.3878,74.3878,0,0,1-10.5603-11.90805A79.70819,79.70819,0,0,1,363.21086,371.93271Z" fill="#065082"/><path d="M313.119,493.4624c.91906-3.5787,1.88635-7.14331,2.84411-10.71072l-.01123.07065c.04785-4.78067.29285-9.54792.57105-14.31589.29272-4.76621.61352-9.53323,1.082-14.28738.89172-9.512,2.12378-18.99753,3.76635-28.4177a223.41984,223.41984,0,0,1,6.57349-27.91992,132.741,132.741,0,0,1,4.99353-13.45758,67.94965,67.94965,0,0,1,7.00647-12.49115,74.32946,74.32946,0,0,0-6.34643,12.76935c-1.74671,4.42138-3.25074,8.935-4.55555,13.50677-1.271,4.58231-2.39172,9.20447-3.42248,13.8472q-1.49946,6.97549-2.70752,14.01267c-1.59583,9.38357-2.876,18.82342-3.91919,28.2926q-1.58991,14.19982-2.47644,28.47839l-.00269.04385-.00866.02717C315.38652,486.43079,314.27678,489.95364,313.119,493.4624Z" fill="#065082"/><path d="M370.4915,383.6095c1.6565,9.03183,3.30542,18.06274,5.04725,27.07654q2.54279,13.53282,5.23461,27.03561c3.58435,18.00336,7.24524,35.9917,11.32019,53.88611,3.96106,17.918,8.27564,35.76108,13.22681,53.42349,2.47949,8.82855,5.13294,17.61273,8.2124,26.24805,1.54139,4.31567,3.16394,8.60632,5.02906,12.79236l1.42883,3.1267c.45789,1.05231,1.05249,2.03357,1.57019,3.056a61.35588,61.35588,0,0,0,3.51257,5.91089,61.51549,61.51549,0,0,1-3.72278-5.79461c-.54907-1.00885-1.17028-1.9831-1.657-3.02436l-1.51452-3.09832c-1.98035-4.15094-3.71924-8.41114-5.37781-12.69941-3.23767-8.60791-6.02844-17.37225-8.65613-26.17852-2.6543-8.801-4.95361-17.70057-7.21143-26.6059-2.25427-8.90738-4.35876-17.85052-6.38989-26.80933q-5.92437-26.91393-10.96618-54.00409-2.48437-13.55-4.80164-27.12826C373.29167,401.75992,371.79473,392.69971,370.4915,383.6095Z" fill="#065082"/><path d="M357.15227,371.93271c-.4209,10.13183-1.05664,20.25271-1.69336,30.37356q-1.0373,15.17551-2.29687,30.33625-2.53528,30.31938-6.24939,60.53158c-1.28467,10.06278-2.67835,20.11277-4.24036,30.13846-1.57166,10.02307-3.24011,20.03681-5.3031,29.9765-2.0437,9.94062-4.32459,19.84418-7.23547,29.57733a151.43388,151.43388,0,0,1-5.08008,14.35975c-2.00452,4.64947-4.25806,9.28979-7.5918,13.13836a36.13432,36.13432,0,0,0,4.08337-6.38458,74.68121,74.68121,0,0,0,3.11829-6.913,150.84061,150.84061,0,0,0,4.72205-14.41883c2.749-9.74176,4.89038-19.64923,6.78381-29.596,3.77588-19.90057,6.69128-39.96368,9.1676-60.07562,2.58472-20.10083,4.66284-40.26611,6.61267-60.44308q1.47657-15.13212,2.7367-30.286C355.58416,392.14944,356.374,382.04257,357.15227,371.93271Z" fill="#065082"/><path d="M367.857,448.59531l1.27332,20.23492,1.174,20.23755,2.29956,40.47324q1.054,20.24074,2.37195,40.46337.29333,5.05848.65783,10.11072c.23841,3.36859.45435,6.74011.7511,10.103.26294,3.36645.49,6.738.8606,10.09308.18139,1.67761.30847,3.36493.53467,5.03625l.70983,5.01709-.9475-4.98248c-.29-1.66693-.47339-3.34717-.71534-5.02106-.49-3.34833-.83606-6.71081-1.21838-10.07068-.38184-3.36071-.66187-6.72882-.976-10.09478q-.479-5.04869-.87659-10.10285c-1.109-13.47546-1.91052-26.97027-2.73779-40.4621-.70349-13.499-1.40027-26.99752-1.93006-40.50375l-.73193-20.26141C368.18181,462.1087,367.9594,455.35428,367.857,448.59531Z" fill="#065082"/><path d="M353.90166,295.16068a112.61985,112.61985,0,0,1,13.07068,8.27978,117.58817,117.58817,0,0,1,11.93433,9.90619c1.85913,1.805,3.66113,3.67245,5.37792,5.61938a66.0429,66.0429,0,0,1,4.76612,6.16272,34.89851,34.89851,0,0,1,6.01819,14.22849,33.11642,33.11642,0,0,0-2.90491-7.09039,49.75582,49.75582,0,0,0-4.12488-6.41993,93.49766,93.49766,0,0,0-10.23157-11.35284c-3.68774-3.53772-7.58483-6.86432-11.585-10.07114C362.206,301.23688,358.12041,298.12,353.90166,295.16068Z" fill="#065082"/><path d="M357.15227,315.25089c1.33545,3.064,2.6626,6.12463,4.08875,9.14178.68457,1.52042,1.37878,3.03589,2.09558,4.541.69873,1.51315,1.42785,3.01178,2.16723,4.50512,2.95264,5.9729,5.93885,11.92743,9.22547,17.71387.78161,1.46927,1.65844,2.88254,2.483,4.32681l1.25549,2.15564,1.31775,2.11627c.88452,1.40656,1.72925,2.84128,2.6471,4.22611q1.4057,2.05737,2.7727,4.14426c.90442,1.39733,1.94531,2.69274,2.91248,4.04611l1.47778,2.01095,1.58887,1.92054,1.56884,1.94278a21.93887,21.93887,0,0,0,1.6305,1.89047q1.71331,1.81494,3.39856,3.67685-1.86237-1.67039-3.70276-3.38535a22.16178,22.16178,0,0,1-1.77173-1.77939l-1.715-1.83786-1.69116-1.86306-1.57556-1.9581c-1.03271-1.31873-2.14282-2.5849-3.11414-3.95041a158.8461,158.8461,0,0,1-10.86889-16.90583c-3.27442-5.84634-6.24219-11.85611-8.94361-17.97808-.67651-1.53009-1.34228-3.06437-1.97705-4.612-.64953-1.541-1.28979-3.08554-1.89489-4.64453C359.33977,321.56866,358.15288,318.44183,357.15227,315.25089Z" fill="#065082"/><path d="M372.85916,212.92175s-15.8069-10.19659-27.21188,10.50431-21.80951,70.72272-10.40454,95.33345,18.80821,26.41153,23.01,9.00393,11.405-26.41152,9.60419-32.214-6.00261-23.21013-4.00174-29.51288-7.85752-12.20256,6.63623-35.31062C382.04486,212.30576,372.85916,212.92175,372.85916,212.92175Z"/><path d="M381.92135,236.90567a1.58025,1.58025,0,0,0,0-3.1586,1.58025,1.58025,0,0,0,0,3.1586Z" fill="#f73c4f"/></g><path d="M429.32646,414.06152c-7.17285,0-22.42334-11.0791-24.24365-12.42089a1.17817,1.17817,0,1,1,1.39844-1.89649c6.98193,5.14453,19.55908,12.92285,23.56445,11.88477a1.17814,1.17814,0,1,1,.58985,2.28125A5.24735,5.24735,0,0,1,429.32646,414.06152Z" fill="#8b9d36"/><path d="M429.21318,414.94336a1.178,1.178,0,0,1-1.17382-1.09277l-2.84522-39.00782a1.17843,1.17843,0,1,1,2.35059-.17187l2.84521,39.00781a1.1791,1.1791,0,0,1-1.08935,1.26172C429.27129,414.94238,429.242,414.94336,429.21318,414.94336Z" fill="#8b9d36"/><path d="M441.18145,415.97852a1.25469,1.25469,0,0,1-.208-.01758,1.17907,1.17907,0,0,1-.9541-1.36621c.12988-.73047,3.36279-17.99707,19.791-25.66309a1.179,1.179,0,0,1,.99707,2.13672c-15.29394,7.13574-18.437,23.77246-18.46728,23.93945A1.1789,1.1789,0,0,1,441.18145,415.97852Z" fill="#8b9d36"/><path d="M439.772,410.78052c-.95825-1.87668-6.10781-1.87928-9.39613.42639a9.00485,9.00485,0,0,0-3.16717,4.156c-.55989,1.4422-1.456,3.74989-.21107,5.32825,1.01382,1.28523,3.11076,1.66045,5.173.95886a25.21488,25.21488,0,0,0,4.43416-4.36909C438.51248,414.86574,440.54441,412.29326,439.772,410.78052Z" fill="#5e7c24"/><path d="M443.784,410.56747c-.35884.94239.35312,2.02267,1.68912,4.04938a19.456,19.456,0,0,0,4.64523,4.90215,5.54209,5.54209,0,0,0,6.5457.74581,5.30208,5.30208,0,0,0,2.428-4.47576c-.02177-2.761-2.38075-4.4694-3.27257-5.1152C451.5005,407.54576,444.6518,408.28955,443.784,410.56747Z" fill="#5e7c24"/><path d="M456.45274,392.87776c.31474-.53652,1.13037-.26392,2.9561-.53305,1.44827-.21363,1.47491-.46484,4.53984-1.38525a17.47109,17.47109,0,0,1,3.90634-.95916c.5533.0026,3.68067.01677,4.75062,2.13136,1.12092,2.21519-.95425,4.88162-1.05563,5.00853-2.00615,2.50657-5.43365,2.38429-6.5457,2.3444a10.10568,10.10568,0,0,1-7.07352-3.40994C457.68049,395.79454,455.906,393.80917,456.45274,392.87776Z" fill="#5e7c24"/><path d="M427.63114,382.5407c-1.11434-.5611-.46223-4.126-.10567-6.07406a36.1551,36.1551,0,0,1,2.00586-6.07436c1.8475-4.86746,2.26906-5.39184,2.95611-5.64767,1.60778-.599,3.97421.53045,4.85658,2.23774,1.22145,2.36348-.651,5.35137-2.63936,8.52513C432.795,378.55521,429.08056,383.27033,427.63114,382.5407Z" fill="#5e7c24"/><path d="M427.20872,391.91861c.81964-1.3338-.68848-3.94213-2.21694-5.32825-1.283-1.16353-2.59582-1.47978-4.85658-2.02469-2.53912-.612-5.334-1.28552-6.12328-.10666-.75263,1.12392.7197,3.33188,1.05592,3.83632a9.33284,9.33284,0,0,0,4.32848,3.30356C421.6522,392.53261,426.15109,393.63948,427.20872,391.91861Z" fill="#c4ce6e"/><path d="M427.3144,402.25538c.03007-1.06119-1.50412-1.28118-4.64523-3.83632-2.49359-2.02845-2.56461-2.73379-4.012-3.19689-2.21579-.70882-5.10832-.03382-5.59546,1.38525-.11914.34747-.10225.76229,1.79479,3.83633,1.47577,2.39123,2.2284,3.5961,2.95611,4.04937a6.936,6.936,0,0,0,5.27872.53277C424.41643,404.71224,427.27373,403.69354,427.3144,402.25538Z" fill="#5e7c24"/><path d="M428.4689,389.9903c-1.03472-1.1716.00643-4.00291,1.2759-5.63374,1.06561-1.369,2.305-1.90843,4.43916-2.83774,2.397-1.04371,5.03542-2.19247,6.01383-1.16823.93294.9765-.14117,3.40718-.38642,3.96248a9.37661,9.37661,0,0,1-3.701,4.00585C434.04723,389.6304,429.804,391.50189,428.4689,389.9903Z" fill="#5e7c24"/><path d="M429.23453,401.00265c-.21047-1.04016,1.26336-1.52324,3.92223-4.58568,2.11075-2.43116,2.06051-3.13832,3.40743-3.84583,2.062-1.083,5.02641-.92025,5.74813.3931.17657.3216.23062.73317-1.11429,4.09076-1.04627,2.61183-1.58236,3.92941-2.222,4.50228a6.94617,6.94617,0,0,1-5.10925,1.44134C432.508,402.91972,429.51967,402.4123,429.23453,401.00265Z" fill="#5e7c24"/><path d="M412.3228,406.51781c-.14806-1.15631-2.05226-1.79458-4.32848-2.55746-2.05656-.68915-3.68926-1.23666-5.59546-.63943-.33708.10551-3.33557,1.04472-3.5896,3.30356-.228,2.02613,1.9337,3.50533,2.11155,3.62327a6.38645,6.38645,0,0,0,4.962.53277C408.85148,410.20931,412.54074,408.21873,412.3228,406.51781Z" fill="#5e7c24"/><path d="M420.87437,411.84606c-1.58974-1.13434-4.59024.78975-6.01789,1.70525a12.62065,12.62065,0,0,0-3.695,3.623c-1.09974,1.65034-2.1462,3.22117-1.58373,4.58243.80876,1.95676,4.30012,1.92756,4.7509,1.918a7.593,7.593,0,0,0,5.173-2.3444,8.07687,8.07687,0,0,0,2.00615-4.04938C421.7,416.39438,422.44321,412.96565,420.87437,411.84606Z" fill="#c4ce6e"/><path d="M408.20539,400.97651c-.89439-1.30055-.58108-2.22241-.95024-4.47576-.58681-3.58223-1.83518-4.041-1.37237-5.861.36428-1.43237,1.59862-2.9613,2.9561-2.98384,1.90134-.0318,3.1245,2.90694,3.37824,3.5166.92275,2.21664.58252,4.14911,0,7.45961-.38032,2.16113-.67043,3.70826-1.58344,3.943C409.751,402.802,408.70027,401.696,408.20539,400.97651Z" fill="#8b9d36"/><path d="M448.64034,400.65679c.28209-.79813,1.77733-.919,3.5896-1.06553,2.26419-.183,3.96133-.32029,5.59546.74582.25145.1639,2.89711,1.9397,2.428,4.04966-.36657,1.6486-2.41511,2.51352-3.906,2.55746-1.61781.04769-2.71783-.86694-4.75091-2.55746C449.99467,403.055,448.293,401.63965,448.64034,400.65679Z" fill="#8b9d36"/><path d="M451.2797,394.58273c-.40639-.0925-.43159-.65851-.95024-2.238-1.159-3.52875-2.0663-3.84934-1.90019-5.32825.18386-1.63617,1.53418-3.37843,2.74475-3.30356,1.31968.08152,2.109,2.2996,2.42829,3.19718a6.91331,6.91331,0,0,1,.42242,3.30356C453.72861,392.50457,452.16092,394.78364,451.2797,394.58273Z" fill="#5e7c24"/><path d="M425.09717,379.23743c-.616.87359-4.11368-.161-6.44-2.238-.594-.53016-3.22273-2.87746-2.53368-5.1152a2.63623,2.63623,0,0,1,2.11154-1.918c.98633-.02429,1.62755.97765,3.27285,3.40994C424.891,378.37829,425.36724,378.8544,425.09717,379.23743Z" fill="#8b9d36"/><path d="M444.31186,402.78815c-1.7716.48218-4.08963-3.25933-4.64523-4.156a13.748,13.748,0,0,1-2.11154-7.67265c.07589-1.69457.21422-4.78421,2.00586-5.5413,1.71662-.72529,4.03866,1.07594,5.173,2.45079,2.23842,2.71239,1.88244,6.22149,1.58373,9.16457C446.08518,399.32647,445.77416,402.39009,444.31186,402.78815Z" fill="#c4ce6e"/><path d="M444.56868,443.50691h-17.408l-5.60035-29.7116a1.18093,1.18093,0,0,1,1.15238-1.40536h26.304a1.18092,1.18092,0,0,1,1.15237,1.40536Z" fill="#e19974"/><path d="M449.76442,415.94213l.40467-2.14679a1.18093,1.18093,0,0,0-1.15238-1.40538h-26.304a1.18093,1.18093,0,0,0-1.15238,1.40538l.40467,2.14679Z" fill="#d6694b"/><polygon points="428.552 435.092 424.875 431.38 428.552 427.669 432.23 431.38 428.552 435.092" fill="#d6694b"/><polygon points="435.907 435.092 432.23 431.38 435.907 427.669 439.584 431.38 435.907 435.092" fill="#d6694b"/><polygon points="443.177 435.092 439.499 431.38 443.177 427.669 446.854 431.38 443.177 435.092" fill="#d6694b"/><rect x="202.70072" y="441.93131" width="265.25937" height="13.18387" rx="2.37793" fill="#935b50"/></svg>