<svg id="Layer_1" data-name="Layer 1" xmlns="http://www.w3.org/2000/svg" xmlns:xlink="http://www.w3.org/1999/xlink" viewBox="0 0 700 550"><defs><clipPath id="clip-path"><rect x="245.33945" y="113.83005" width="84.54545" height="78.24" fill="none"/></clipPath></defs><title>getting likes on social media</title><path d="M428.22068,481.77659c16.25-5.08,30.83-10.27,48.37-20.12,18.09-10.16,98.45-58.51,108.9-142.19a159.61541,159.61541,0,0,0-6.66-68.16c-3.23-9.47-9.93-28.49-26.84-47.3-20.7-23.04-44.32-31.97-58.17-37.02-29.14-10.63-53.58-10.07-65.22-9.69-12.56.41-34.73,1.33-59.93,12.34-16.44,7.18-26.66,15.37-41.72,27.61-23.86,19.41-27,27.49-68.74,67.57-11.46,11-20.88,19.67-35.26,28.21-9.97,5.92-18.03,9.23-32.9,15.27-36.55,14.85-46.95658,17.85676-58.91658,26.21676-23.26,16.27-21.75342,34.01324-22.75342,37.83324a75.12694,75.12694,0,0,0-1.77,29.97c3.05,20.07,13.86,33.19,20.57,41.13a113.09822,113.09822,0,0,0,32.9,26.44,210.24676,210.24676,0,0,0,26.96,11.89Z" fill="#efedef"/><path d="M479.81213,467.59137l-.49023-.87207c23.90039-13.42725,102.69726-63.76465,113.17773-147.73682a166.23923,166.23923,0,0,0-6.91406-70.77148c-2.97656-8.73193-9.94922-29.18018-27.84766-49.0957-21.91992-24.39112-46.94531-33.51856-60.38965-38.42188a174.11457,174.11457,0,0,0-67.74707-10.06885c-12.4248.4043-35.55078,1.15674-62.24316,12.81153l-.40039-.916c26.86816-11.73242,51.00879-12.51758,62.61035-12.89453A175.00279,175.00279,0,0,1,497.69006,159.754c13.52637,4.9331,38.7041,14.11621,60.792,38.69336,18.03516,20.06738,25.05371,40.65088,28.05078,49.44092a167.31529,167.31529,0,0,1,6.959,71.21826C582.95373,403.54352,503.816,454.10553,479.81213,467.59137Z" fill="#efedef"/><path d="M350.822,201.66668a81.74752,81.74752,0,1,0-15.88044,16.07422L353.55,233.51727Z" fill="#ffe3cb"/><path d="M542.05336,454.59832c-.98584-1.6416-24.186-40.30762-27.93945-50.31543l.93652-.35156c3.72119,9.92285,27.61914,49.751,27.86035,50.15137Z" fill="#8b9d36"/><path d="M522.682,383.04754a42.96058,42.96058,0,0,0-2.31006,7.74273,72.38554,72.38554,0,0,0-1.18066,7.85022,70.94385,70.94385,0,0,0-.3252,7.93152,42.37966,42.37966,0,0,0,.81543,8.04,42.41829,42.41829,0,0,0,2.31543-7.74231,71.05957,71.05957,0,0,0,1.17529-7.85071,72.38354,72.38354,0,0,0,.31983-7.932A42.92217,42.92217,0,0,0,522.682,383.04754Z" fill="#8b9d36"/><path d="M531.50235,395.10753a40.97821,40.97821,0,0,0-2.99756,7.3003,68.81886,68.81886,0,0,0-1.8833,7.51428,67.77055,67.77055,0,0,0-1.03955,7.67633,40.52933,40.52933,0,0,0,.08594,7.89239,40.49076,40.49076,0,0,0,3.00293-7.29925,67.76843,67.76843,0,0,0,1.87793-7.51538,68.93077,68.93077,0,0,0,1.03418-7.67731A41.01564,41.01564,0,0,0,531.50235,395.10753Z" fill="#8b9d36"/><path d="M536.36222,409.14751a34.76816,34.76816,0,0,0-2.55176,6.78559,57.759,57.759,0,0,0-1.42774,6.946,56.79121,56.79121,0,0,0-.57763,7.06732,34.32916,34.32916,0,0,0,.55664,7.22925,34.332,34.332,0,0,0,2.55713-6.78485,56.69905,56.69905,0,0,0,1.42236-6.94672,57.76242,57.76242,0,0,0,.57227-7.06811A34.73569,34.73569,0,0,0,536.36222,409.14751Z" fill="#8b9d36"/><path d="M542.48233,423.16155a26.61751,26.61751,0,0,0-2.5874,5.7746,43.37591,43.37591,0,0,0-1.46875,5.96771,42.57458,42.57458,0,0,0-.62256,6.11383,26.30915,26.30915,0,0,0,.50635,6.30878,26.28914,26.28914,0,0,0,2.59277-5.77368,42.64463,42.64463,0,0,0,1.46387-5.96863,43.447,43.447,0,0,0,.61719-6.11475A26.6171,26.6171,0,0,0,542.48233,423.16155Z" fill="#8b9d36"/><path d="M547.88224,431.92083a23.96379,23.96379,0,0,0-2.73145,5.07031,41.32094,41.32094,0,0,0-1.71729,5.25977,47.21535,47.21535,0,0,0-1.0371,5.39392c-.11231.91552-.21534,1.82592-.2837,2.7539a20.49421,20.49421,0,0,1-.30175,2.81983,5.53622,5.53622,0,0,0,.66406-.41919l.53906-.54016a9.96674,9.96674,0,0,0,.94287-1.17933,18.8884,18.8884,0,0,0,1.44971-2.52307,28.09491,28.09491,0,0,0,1.90234-5.32019,31.49086,31.49086,0,0,0,.89551-5.53955A20.85388,20.85388,0,0,0,547.88224,431.92083Z" fill="#8b9d36"/><path d="M517.43741,410.29918a34.44938,34.44938,0,0,0-6.084-5.27569,56.37912,56.37912,0,0,0-6.72461-4.01,55.38957,55.38957,0,0,0-7.21-3.05194,34.05512,34.05512,0,0,0-7.85645-1.77411,34.04552,34.04552,0,0,0,6.08057,5.28174,55.394,55.394,0,0,0,6.728,4.0039,56.3542,56.3542,0,0,0,7.2129,3.0459A34.44559,34.44559,0,0,0,517.43741,410.29918Z" fill="#8b9d36"/><path d="M523.41349,421.46142a42.43656,42.43656,0,0,0-7.50391-4.9123,70.65323,70.65323,0,0,0-8.00293-3.58416,69.39043,69.39043,0,0,0-8.38037-2.57911,41.95341,41.95341,0,0,0-8.88379-1.23834,41.96106,41.96106,0,0,0,7.501,4.91864,69.40235,69.40235,0,0,0,8.00537,3.57782,70.64072,70.64072,0,0,0,8.38281,2.57276A42.43767,42.43767,0,0,0,523.41349,421.46142Z" fill="#8b9d36"/><path d="M530.44815,433.86864A36.18931,36.18931,0,0,0,523.684,429.126a59.47158,59.47158,0,0,0-7.28027-3.421,58.41715,58.41715,0,0,0-7.67041-2.42078,35.77055,35.77055,0,0,0-8.19092-1.08649,35.78244,35.78244,0,0,0,6.76172,4.749,58.42473,58.42473,0,0,0,7.28272,3.41474,59.47866,59.47866,0,0,0,7.67285,2.41449A36.18756,36.18756,0,0,0,530.44815,433.86864Z" fill="#8b9d36"/><path d="M536.00772,443.41851a27.1301,27.1301,0,0,0-5.94091-3.91315,43.3282,43.3282,0,0,0-6.36475-2.55914,42.55187,42.55187,0,0,0-6.686-1.53455,26.84216,26.84216,0,0,0-7.11377-.16766,26.84009,26.84009,0,0,0,5.939,3.91955,42.54732,42.54732,0,0,0,6.36719,2.55274,43.30559,43.30559,0,0,0,6.6875,1.528A27.14432,27.14432,0,0,0,536.00772,443.41851Z" fill="#8b9d36"/><path d="M540.3964,451.98748a35.68369,35.68369,0,0,0-6.53028-4.96179,58.56265,58.56265,0,0,0-7.09375-3.65979,57.54279,57.54279,0,0,0-7.52051-2.67457,35.28266,35.28266,0,0,0-8.08935-1.3601,35.26988,35.26988,0,0,0,6.52734,4.968,57.52249,57.52249,0,0,0,7.09668,3.65368,58.55359,58.55359,0,0,0,7.523,2.66821A35.6822,35.6822,0,0,0,540.3964,451.98748Z" fill="#8b9d36"/><path d="M515.49552,405.54754a25.11585,25.11585,0,0,0-.19483-8.01984,37.78919,37.78919,0,0,0-2.04345-7.2959,37.16987,37.16987,0,0,0-3.44385-6.74756,24.86487,24.86487,0,0,0-5.311-6.01672,24.85,24.85,0,0,0,.18555,8.02325,37.20184,37.20184,0,0,0,2.05225,7.29248,37.79263,37.79263,0,0,0,3.45312,6.74408A25.11981,25.11981,0,0,0,515.49552,405.54754Z" fill="#8b9d36"/><path d="M545.72572,456.23113c-.01074-.666-1.22607-66.873-13.96289-87.041l.84571-.53321c12.88671,20.4043,14.07275,84.82618,14.11718,87.5586Z" fill="#50661a"/><path d="M536.32608,377.85922a45.82664,45.82664,0,0,1-.2998-9.01807,81.07253,81.07253,0,0,1,.97461-8.748c.46679-2.88482,1.102-5.741,1.84912-8.57336.74609-2.85108,1.68848-5.59418,2.69531-8.516a12.4946,12.4946,0,0,1,.645,2.24206,19.981,19.981,0,0,1,.35254,2.27826,38.607,38.607,0,0,1,.20312,4.52259,58.06727,58.06727,0,0,1-.814,8.86358,64.41646,64.41646,0,0,1-2.05078,8.63025A40.578,40.578,0,0,1,536.32608,377.85922Z" fill="#50661a"/><path d="M520.48575,337.06381a32.401,32.401,0,0,1,5.64111,7.248,50.93814,50.93814,0,0,1,3.78077,7.94428,50.05587,50.05587,0,0,1,2.373,8.47125,32.0521,32.0521,0,0,1,.49512,9.17407,32.05145,32.05145,0,0,1-5.6499-7.24475,50.00851,50.00851,0,0,1-3.772-7.94763,50.93686,50.93686,0,0,1-2.36426-8.47455A32.38528,32.38528,0,0,1,520.48575,337.06381Z" fill="#50661a"/><path d="M509.86563,353.48263a74.64011,74.64011,0,0,1,7.42871,6.845c2.2959,2.38,4.48682,4.81323,6.63038,7.25964l6.36865,7.30878c1.06836,1.19684,2.148,2.37616,3.28857,3.49322a15.01633,15.01633,0,0,0,3.88623,2.93573,6.74544,6.74544,0,0,1-2.65967-.06744,12.45214,12.45214,0,0,1-2.5625-.806,24.74688,24.74688,0,0,1-4.564-2.61688,44.79419,44.79419,0,0,1-7.51807-6.95514,59.34937,59.34937,0,0,1-5.97412-8.16138A42.47607,42.47607,0,0,1,509.86563,353.48263Z" fill="#50661a"/><path d="M509.86563,369.90145a61.48153,61.48153,0,0,1,9.23487,5.67981,104.62126,104.62126,0,0,1,8.28564,6.73413,102.85279,102.85279,0,0,1,7.56738,7.53205,60.7883,60.7883,0,0,1,6.60889,8.59637,60.76624,60.76624,0,0,1-9.23974-5.6748,102.775,102.775,0,0,1-8.28125-6.73914,104.61446,104.61446,0,0,1-7.5625-7.53705A61.47346,61.47346,0,0,1,509.86563,369.90145Z" fill="#50661a"/><path d="M510.94571,382.78378a60.7939,60.7939,0,0,1,9.33008,5.39563,103.39244,103.39244,0,0,1,8.40918,6.4743,101.61559,101.61559,0,0,1,7.71143,7.29059,60.11175,60.11175,0,0,1,6.78076,8.37945,60.08051,60.08051,0,0,1-9.335-5.39044,101.54632,101.54632,0,0,1-8.4043-6.47943,103.39019,103.39019,0,0,1-7.707-7.29571A60.76538,60.76538,0,0,1,510.94571,382.78378Z" fill="#50661a"/><path d="M511.66544,396.5538a56.51988,56.51988,0,0,1,9.3457,4.53375,95.71353,95.71353,0,0,1,8.49707,5.67047,94.12111,94.12111,0,0,1,7.85449,6.53088,55.85146,55.85146,0,0,1,6.99756,7.67853,55.90239,55.90239,0,0,1-9.34961-4.52832,94.1203,94.1203,0,0,1-8.49316-5.676,95.7795,95.7795,0,0,1-7.8501-6.53632A56.52066,56.52066,0,0,1,511.66544,396.5538Z" fill="#50661a"/><path d="M510.94571,406.54379a62.88267,62.88267,0,0,1,9.77832,4.96484,107.11371,107.11371,0,0,1,8.92041,6.09479,105.22848,105.22848,0,0,1,8.27149,6.95,62.144,62.144,0,0,1,7.40478,8.09064,62.149,62.149,0,0,1-9.78222-4.95942,105.232,105.232,0,0,1-8.91651-6.10021,107.09852,107.09852,0,0,1-8.26709-6.95539A62.87894,62.87894,0,0,1,510.94571,406.54379Z" fill="#50661a"/><path d="M508.42569,415.90377a81.97481,81.97481,0,0,1,10.22119,5.67273c3.24512,2.07739,6.38477,4.2735,9.4458,6.56561,3.06983,2.27875,6.05469,4.65448,8.98682,7.10932,2.9624,2.43377,5.76074,4.96863,8.82568,7.479a24.71349,24.71349,0,0,1-5.72314-1.67016,55.96769,55.96769,0,0,1-5.31445-2.55854,87.2257,87.2257,0,0,1-9.7666-6.35547,100.69963,100.69963,0,0,1-8.87256-7.4873A63.78508,63.78508,0,0,1,508.42569,415.90377Z" fill="#50661a"/><path d="M505.36563,425.6238a84.30436,84.30436,0,0,1,11.09912,5.27448c3.54444,1.97455,6.98438,4.09466,10.34522,6.32635q5.042,3.34653,9.84082,7.03778,2.39868,1.85084,4.75146,3.76819a42.341,42.341,0,0,0,4.82325,3.69324,9.317,9.317,0,0,1-3.11817-.53552c-1.00488-.29761-1.98047-.65967-2.94531-1.03626-1.92432-.76391-3.78369-1.63769-5.60742-2.5636a106.41372,106.41372,0,0,1-10.51318-6.202,120.18257,120.18257,0,0,1-9.78565-7.25214A74.38126,74.38126,0,0,1,505.36563,425.6238Z" fill="#50661a"/><path d="M539.42862,389.29464a49.75016,49.75016,0,0,1,1.43457-9.62585,83.59669,83.59669,0,0,1,2.7666-9.13855,82.28329,82.28329,0,0,1,3.77539-8.76978,49.215,49.215,0,0,1,5.12012-8.27783,49.21923,49.21923,0,0,1-1.42773,9.62817,82.28457,82.28457,0,0,1-2.77344,9.13623,83.71015,83.71015,0,0,1-3.78174,8.76746A49.74989,49.74989,0,0,1,539.42862,389.29464Z" fill="#50661a"/><path d="M541.56241,400.53445a50.83531,50.83531,0,0,1,2.7627-9.44586,85.60405,85.60405,0,0,1,4.01757-8.78449,84.18185,84.18185,0,0,1,4.96778-8.284,50.294,50.294,0,0,1,6.23486-7.61633,50.2942,50.2942,0,0,1-2.75635,9.449,84.28234,84.28234,0,0,1-4.02392,8.78131,85.711,85.711,0,0,1-4.97363,8.28082A50.90129,50.90129,0,0,1,541.56241,400.53445Z" fill="#50661a"/><path d="M543.17716,411.40377a55.6833,55.6833,0,0,1,4.04394-9.483,94.36226,94.36226,0,0,1,5.21924-8.68866,92.70452,92.70452,0,0,1,6.10938-8.0874,55.059,55.059,0,0,1,7.29589-7.28552A55.05467,55.05467,0,0,1,561.807,387.346a92.59379,92.59379,0,0,1-5.2251,8.68482,94.26007,94.26007,0,0,1-6.11474,8.08368A55.687,55.687,0,0,1,543.17716,411.40377Z" fill="#50661a"/><path d="M544.36026,423.39553a71.80325,71.80325,0,0,1,5.78955-10.17779q3.22779-4.81705,6.88819-9.27985,3.64819-4.4728,7.71924-8.60028a70.6881,70.6881,0,0,1,8.82812-7.69385,70.68152,70.68152,0,0,1-5.78418,10.18207q-3.22778,4.81677-6.89307,9.27557-3.657,4.46631-7.72461,8.596A71.715,71.715,0,0,1,544.36026,423.39553Z" fill="#50661a"/><path d="M545.32071,435.83047a72.51168,72.51168,0,0,1,6.856-9.5669q3.731-4.47876,7.856-8.56006,4.11327-4.09268,8.61181-7.79809a71.4163,71.4163,0,0,1,9.6211-6.78162,71.41873,71.41873,0,0,1-6.85108,9.57166q-3.731,4.4783-7.86035,8.5553-4.12134,4.08526-8.6167,7.79327A72.48476,72.48476,0,0,1,545.32071,435.83047Z" fill="#50661a"/><path d="M545.90518,443.8038a63.19507,63.19507,0,0,1,7.44874-8.08765,107.66284,107.66284,0,0,1,8.30419-6.95593,105.76247,105.76247,0,0,1,8.95166-6.09949,62.46934,62.46934,0,0,1,9.81592-4.957,62.48672,62.48672,0,0,1-7.44482,8.093,105.84638,105.84638,0,0,1-8.30811,6.95056,107.74286,107.74286,0,0,1-8.95605,6.094A63.207,63.207,0,0,1,545.90518,443.8038Z" fill="#50661a"/><path d="M546.2255,450.46383a66.89508,66.89508,0,0,1,8.70215-7.23547q4.56444-3.24481,9.40673-6.00391,4.83473-2.77267,9.93995-5.072a66.11317,66.11317,0,0,1,10.65136-3.82874,66.12135,66.12135,0,0,1-8.69922,7.24128q-4.56445,3.24444-9.40966,5.998-4.83986,2.7638-9.94336,5.06616A66.90713,66.90713,0,0,1,546.2255,450.46383Z" fill="#50661a"/><path d="M545.977,454.78378a72.24827,72.24827,0,0,1,10.18115-5.86426c3.49317-1.6864,7.05469-3.189,10.67432-4.53406q5.42871-2.01947,11.04736-3.52734a71.19439,71.19439,0,0,1,11.5459-2.18433A71.19636,71.19636,0,0,1,579.247,444.5444q-5.24047,2.529-10.67676,4.52771c-3.62158,1.33984-7.30175,2.52233-11.0498,3.521A72.23758,72.23758,0,0,1,545.977,454.78378Z" fill="#50661a"/><path d="M547.777,454.59832l-.85742-.51562c.24121-.4004,24.13965-40.22852,27.86035-50.15137l.93653.35156C571.96352,414.2907,548.76283,452.95672,547.777,454.59832Z" fill="#5e7c24"/><path d="M567.14846,383.04754a42.95977,42.95977,0,0,1,2.31006,7.74273,72.388,72.388,0,0,1,1.18067,7.85022,70.94624,70.94624,0,0,1,.32519,7.93152,42.37966,42.37966,0,0,1-.81543,8.04,42.41829,42.41829,0,0,1-2.31543-7.74231,71.05957,71.05957,0,0,1-1.17529-7.85071,72.38354,72.38354,0,0,1-.31983-7.932A42.92217,42.92217,0,0,1,567.14846,383.04754Z" fill="#5e7c24"/><path d="M558.32815,395.10753a40.97746,40.97746,0,0,1,2.99756,7.3003,68.81886,68.81886,0,0,1,1.8833,7.51428,67.76828,67.76828,0,0,1,1.03955,7.67633,40.52776,40.52776,0,0,1-.08594,7.89239,40.49149,40.49149,0,0,1-3.00293-7.29925,67.77065,67.77065,0,0,1-1.87793-7.51538,68.93546,68.93546,0,0,1-1.03418-7.67731A41.01564,41.01564,0,0,1,558.32815,395.10753Z" fill="#5e7c24"/><path d="M553.46829,409.14751A34.76876,34.76876,0,0,1,556.02,415.9331a57.759,57.759,0,0,1,1.42774,6.946,56.79313,56.79313,0,0,1,.57764,7.06732,34.32983,34.32983,0,0,1-.55664,7.22925,34.33138,34.33138,0,0,1-2.55713-6.78485,56.69721,56.69721,0,0,1-1.42237-6.94672,57.76241,57.76241,0,0,1-.57226-7.06811A34.735,34.735,0,0,1,553.46829,409.14751Z" fill="#5e7c24"/><path d="M547.34817,423.16155a26.61751,26.61751,0,0,1,2.5874,5.7746,43.37591,43.37591,0,0,1,1.46875,5.96771,42.57173,42.57173,0,0,1,.62256,6.11383,26.30864,26.30864,0,0,1-.50635,6.30878,26.28914,26.28914,0,0,1-2.59277-5.77368,42.64463,42.64463,0,0,1-1.46387-5.96863,43.44851,43.44851,0,0,1-.61719-6.11475A26.61762,26.61762,0,0,1,547.34817,423.16155Z" fill="#5e7c24"/><path d="M541.94827,431.92083a23.96419,23.96419,0,0,1,2.73144,5.07031,41.32094,41.32094,0,0,1,1.71729,5.25977,47.21756,47.21756,0,0,1,1.03711,5.39392c.1123.91552.21533,1.82592.28369,2.7539a20.49426,20.49426,0,0,0,.30176,2.81983,5.53709,5.53709,0,0,1-.66407-.41919l-.53906-.54016a9.96877,9.96877,0,0,1-.94287-1.17933,18.88949,18.88949,0,0,1-1.44971-2.52307,28.0963,28.0963,0,0,1-1.90234-5.32019,31.49086,31.49086,0,0,1-.89551-5.53955A20.85427,20.85427,0,0,1,541.94827,431.92083Z" fill="#5e7c24"/><path d="M572.39309,410.29918a34.44909,34.44909,0,0,1,6.084-5.27569,56.37833,56.37833,0,0,1,6.72461-4.01,55.389,55.389,0,0,1,7.21-3.05194,34.05491,34.05491,0,0,1,7.85644-1.77411,34.04582,34.04582,0,0,1-6.08056,5.28174,55.39489,55.39489,0,0,1-6.728,4.0039,56.35406,56.35406,0,0,1-7.21289,3.0459A34.4458,34.4458,0,0,1,572.39309,410.29918Z" fill="#5e7c24"/><path d="M566.417,421.46142a42.43649,42.43649,0,0,1,7.5039-4.9123,70.65323,70.65323,0,0,1,8.00293-3.58416,69.391,69.391,0,0,1,8.38037-2.57911,41.95359,41.95359,0,0,1,8.88379-1.23834,41.961,41.961,0,0,1-7.501,4.91864,69.40235,69.40235,0,0,1-8.00537,3.57782,70.64087,70.64087,0,0,1-8.38282,2.57276A42.43767,42.43767,0,0,1,566.417,421.46142Z" fill="#5e7c24"/><path d="M559.38235,433.86864a36.18963,36.18963,0,0,1,6.76416-4.74267,59.47227,59.47227,0,0,1,7.28027-3.421,58.41763,58.41763,0,0,1,7.67041-2.42078,35.77063,35.77063,0,0,1,8.19092-1.08649,35.78244,35.78244,0,0,1-6.76172,4.749,58.4246,58.4246,0,0,1-7.28271,3.41474,59.47965,59.47965,0,0,1-7.67285,2.41449A36.18773,36.18773,0,0,1,559.38235,433.86864Z" fill="#5e7c24"/><path d="M553.82278,443.41851a27.12992,27.12992,0,0,1,5.94092-3.91315,43.32853,43.32853,0,0,1,6.36474-2.55914,42.55187,42.55187,0,0,1,6.686-1.53455,26.84217,26.84217,0,0,1,7.11377-.16766,26.84009,26.84009,0,0,1-5.939,3.91955,42.5472,42.5472,0,0,1-6.36718,2.55274,43.30586,43.30586,0,0,1-6.6875,1.528A27.14441,27.14441,0,0,1,553.82278,443.41851Z" fill="#5e7c24"/><path d="M549.43411,451.98748a35.68363,35.68363,0,0,1,6.53027-4.96179,58.56265,58.56265,0,0,1,7.09375-3.65979,57.54331,57.54331,0,0,1,7.52051-2.67457,35.28275,35.28275,0,0,1,8.08935-1.3601,35.26988,35.26988,0,0,1-6.52734,4.968,57.52249,57.52249,0,0,1-7.09668,3.65368,58.55359,58.55359,0,0,1-7.52295,2.66821A35.68211,35.68211,0,0,1,549.43411,451.98748Z" fill="#5e7c24"/><path d="M574.335,405.54754a25.11557,25.11557,0,0,1,.19482-8.01984,37.78922,37.78922,0,0,1,2.04346-7.2959,37.1686,37.1686,0,0,1,3.44385-6.74756,24.86483,24.86483,0,0,1,5.311-6.01672,24.85,24.85,0,0,1-.18555,8.02325,37.20251,37.20251,0,0,1-2.05224,7.29248,37.79268,37.79268,0,0,1-3.45313,6.74408A25.12,25.12,0,0,1,574.335,405.54754Z" fill="#5e7c24"/><path d="M553.39593,482.77659h-18.0714l-5.81375-30.84381a1.22592,1.22592,0,0,1,1.19629-1.45891H558.0134a1.22592,1.22592,0,0,1,1.19629,1.45891Z" fill="#e19974"/><path d="M558.78967,454.1614l.42009-2.2286a1.22593,1.22593,0,0,0-1.19629-1.45892H530.70706a1.22592,1.22592,0,0,0-1.19629,1.45892l.42008,2.2286Z" fill="#d6694b"/><polygon points="536.769 474.041 532.952 470.188 536.769 466.335 540.587 470.188 536.769 474.041" fill="#d6694b"/><polygon points="544.404 474.041 540.587 470.188 544.404 466.335 548.222 470.188 544.404 474.041" fill="#d6694b"/><polygon points="551.951 474.041 548.134 470.188 551.951 466.335 555.769 470.188 551.951 474.041" fill="#d6694b"/><path d="M152.09434,235.85868a7.77059,7.77059,0,0,1,2.30891,1.951,7.77047,7.77047,0,0,1,1.56492-2.58618,5.71122,5.71122,0,0,1,3.35326-1.62054,6.22586,6.22586,0,0,1,4.44556.92379,5.40267,5.40267,0,0,1,2.397,3.634c.43495,2.65254-.54327,5.50636-2.228,8.46062a79.725,79.725,0,0,1-6.30376,8.87205l-.27192.34942-.36928-.24428a79.71141,79.71141,0,0,1-8.80707-6.39421c-2.54009-2.26149-4.37848-4.65345-4.81343-7.306a5.40285,5.40285,0,0,1,1.11086-4.20916,6.22606,6.22606,0,0,1,3.91773-2.29514,5.71128,5.71128,0,0,1,3.69526.4647Z" fill="#f73c4f"/><path d="M184.50711,87.319a7.77059,7.77059,0,0,1,2.30891,1.951,7.77047,7.77047,0,0,1,1.56492-2.58618,5.71122,5.71122,0,0,1,3.35326-1.62054,6.22586,6.22586,0,0,1,4.44556.92379,5.40267,5.40267,0,0,1,2.397,3.634c.43495,2.65254-.54327,5.50636-2.228,8.46063a79.72581,79.72581,0,0,1-6.30376,8.872l-.27192.34942-.36928-.24428a79.71141,79.71141,0,0,1-8.80707-6.39421c-2.54009-2.26149-4.37848-4.65345-4.81343-7.306a5.40285,5.40285,0,0,1,1.11086-4.20916,6.22606,6.22606,0,0,1,3.91773-2.29514,5.71128,5.71128,0,0,1,3.69526.4647Z" fill="#f73c4f"/><path d="M368.47364,69.24169a7.77046,7.77046,0,0,1,2.30891,1.951,7.77037,7.77037,0,0,1,1.56492-2.58618,5.71125,5.71125,0,0,1,3.35326-1.62054,6.22593,6.22593,0,0,1,4.44557.92378,5.40273,5.40273,0,0,1,2.397,3.634c.435,2.65253-.54326,5.50636-2.228,8.46062a79.72443,79.72443,0,0,1-6.30375,8.87205l-.27193.34942-.36927-.24428a79.71063,79.71063,0,0,1-8.80708-6.39421c-2.54008-2.26149-4.37847-4.65345-4.81343-7.306a5.40288,5.40288,0,0,1,1.11086-4.20917,6.22611,6.22611,0,0,1,3.91774-2.29513,5.71126,5.71126,0,0,1,3.69525.4647Z" fill="#f73c4f"/><path d="M260.78522,265.926a7.77044,7.77044,0,0,1,2.30891,1.951,7.77027,7.77027,0,0,1,1.56492-2.58618,5.71116,5.71116,0,0,1,3.35326-1.62054,6.2259,6.2259,0,0,1,4.44556.92378,5.40267,5.40267,0,0,1,2.397,3.634c.435,2.65254-.54327,5.50636-2.228,8.46063a79.72681,79.72681,0,0,1-6.30376,8.87205l-.27192.34942-.36928-.24428a79.71271,79.71271,0,0,1-8.80707-6.39421c-2.54009-2.26149-4.37848-4.65345-4.81343-7.306a5.40287,5.40287,0,0,1,1.11086-4.20917,6.22609,6.22609,0,0,1,3.91773-2.29513,5.71128,5.71128,0,0,1,3.69526.4647Z" fill="#f73c4f"/><path d="M514.7477,207.038a7.77051,7.77051,0,0,1,2.30891,1.951,7.77042,7.77042,0,0,1,1.56492-2.58619,5.71131,5.71131,0,0,1,3.35326-1.62054,6.22588,6.22588,0,0,1,4.44557.92379,5.40269,5.40269,0,0,1,2.397,3.634c.435,2.65254-.54326,5.50636-2.228,8.46063a79.72435,79.72435,0,0,1-6.30375,8.872l-.27193.34943-.36927-.24428a79.712,79.712,0,0,1-8.80708-6.39422c-2.54008-2.26149-4.37847-4.65345-4.81343-7.306a5.40287,5.40287,0,0,1,1.11086-4.20917,6.22607,6.22607,0,0,1,3.91774-2.29513,5.71126,5.71126,0,0,1,3.69525.46469Z" fill="#f73c4f"/><path d="M468.02744,102.72968a7.77039,7.77039,0,0,1,2.30891,1.951,7.77042,7.77042,0,0,1,1.56492-2.58619,5.71131,5.71131,0,0,1,3.35326-1.62054,6.22588,6.22588,0,0,1,4.44557.92379,5.40265,5.40265,0,0,1,2.397,3.634c.435,2.65254-.54326,5.50636-2.228,8.46063a79.72435,79.72435,0,0,1-6.30375,8.872l-.27193.34943-.36927-.24428a79.7129,79.7129,0,0,1-8.80708-6.39422c-2.54008-2.26149-4.37847-4.65345-4.81343-7.306a5.40287,5.40287,0,0,1,1.11086-4.20917,6.22607,6.22607,0,0,1,3.91774-2.29513,5.71126,5.71126,0,0,1,3.69525.46469Z" fill="#f73c4f"/><polygon points="423.232 396.035 312.436 391.684 371.32 389.633 468.963 395.366 475.751 398.243 423.232 396.035" fill="#a5716a"/><polygon points="480.591 423.811 418.846 439.158 420.653 395.801 478.751 398.243 480.591 423.811" fill="#d3a39c"/><path d="M433.11347,446.12683c-.10635,0-.21271-.00307-.32008-.00818l-116.60372-6.38731a5.75986,5.75986,0,0,1,.62993-11.50248l116.60372,6.38731a5.75963,5.75963,0,0,1-.30985,11.51066Z" fill="#935b50"/><path d="M310.36593,482.77659c-.2199-.6283,1.3299-111.42935,1.3299-111.42935a19.3281,19.3281,0,0,1,6.71235-14.31478,22.10234,22.10234,0,0,1,17.006-5.28819l41.80292,4.639A5.75773,5.75773,0,1,1,375.95,367.82876l-41.80292-4.62848a10.50554,10.50554,0,0,0-8.11555,2.47131,7.9302,7.9302,0,0,0-2.81688,5.8432s-1.78018,110.68586-1.98961,111.2618Z" fill="#935b50"/><path d="M418.96586,433.95726l-104.31878-4.82917a6.18608,6.18608,0,0,1-5.96639-6.178l.21747-25.152a6.24785,6.24785,0,0,1,6.538-6.11381l104.64938,3.86492a6.18585,6.18585,0,0,1,6.02516,6.25482l-.54807,26.11628A6.25124,6.25124,0,0,1,418.96586,433.95726Z" fill="#c38f86"/><path d="M468.963,395.3657l-97.64349-5.73282,6.69206-72.52264a8.37733,8.37733,0,0,1,8.369-7.60754l81.35222.26291a8.37735,8.37735,0,0,1,8.31453,9.15028Z" fill="#c38f86"/><path d="M481.78723,482.77659c.178-.46076,10.02139-116.05783,10.02139-116.05783l.6283-7.75951,3.6965-46.03348a5.76217,5.76217,0,0,0-11.48743-.9215l-3.51848,43.82395-.92151,11.4979s-9.51875,114.707-9.24648,115.45047Z" fill="#935b50"/><rect x="432.29607" y="428.10799" width="51.37525" height="12.56538" transform="translate(-72.65036 92.52546) rotate(-10.69356)" fill="#935b50"/><path d="M405.32491,301.64108c-1.657-5.0787-2.86756-12.47185-.78571-22.51066a31.523,31.523,0,0,1,10.10871-8.488c-1.5849-.24758-2.87038-.381-4.06968-.69325-7.967-2.07391-16.28191-13.1383-13.74144-21.761,2.21413-7.5151,11.872-10.45311,14.22168-11.168a18.30078,18.30078,0,0,1,17.58947,3.08606,20.86058,20.86058,0,0,1,6.4529,9.11213c1.37664,3.50695,1.266,3.805,4.25047,7.45326,3.30418,4.03916,5.731,5.57779,7.14728,9.65622.89679,2.58273.1552,6.49439-.57932,9.33754,4.93177,5.89878,6.28224,13.05489,6.63726,14.94236,1.52816,8.1257-.0677,17.37744-.48889,19.8192-.94046,5.45253-2.25163,8.9741-.59026,13.43963,1.47566,3.96655,3.71705,4.43151,5.84649,7.78523,3.965,6.24461,3.81634,16.63679-1.05565,22.36879-7.98929,9.39967-27.97367,5.43668-34.07429-3.95759-4.10941-6.32813,1.176-10.35474-1.79432-21.9215C417.18542,315.62489,409.40841,314.15669,405.32491,301.64108Z" fill="#160b07"/><path d="M429.35755,278.01116a7.85613,7.85613,0,0,1,11.27015,6.64916,284.92547,284.92547,0,0,0,22.97756,95.97821c10.3258,23.79064,18.83426,31.06,18.83426,31.06s-9.42036-6.93894-17.762,2.313-21.55866,7.49326-21.55866,7.49326l-14.175-143.29343Z" fill="#f73c4f"/><path d="M472.68455,321.1778c-3.85217-15.62842-18.39054-35.042-32.59684-40.53662l-2.31592,23.16748S454.368,320.6604,457.878,326.27635l-1.99983,10.04405L451.812,359.37213l7.28406,2.34229S474.85445,331.78861,472.68455,321.1778Z" fill="#f9977a"/><path d="M476.031,403.74676a18.1903,18.1903,0,0,0-4.52154-.18506,17.87129,17.87129,0,0,0-4.3155,1.06592,10.46764,10.46764,0,0,0-3.77539,2.48633c-.53152.54443-.9931,1.15283-1.54522,1.72412a16.20486,16.20486,0,0,1-1.74668,1.58007,21.92911,21.92911,0,0,1-4.03244,2.4087,23.34273,23.34273,0,0,1-4.41433,1.59033,23.74514,23.74514,0,0,1-4.63929.70117,12.31046,12.31046,0,0,1-4.631-.60059l.02649-.09619a15.41575,15.41575,0,0,0,4.54117-.04052,28.989,28.989,0,0,0,4.432-.95948,31.14951,31.14951,0,0,0,8.274-3.62744,17.293,17.293,0,0,0,1.82129-1.34424c.55347-.49853,1.12525-1.03369,1.67554-1.58349a24.39135,24.39135,0,0,1,3.72162-2.8418,10.16015,10.16015,0,0,1,9.15768-.37354Z" fill="#b02336"/><path d="M406.77539,276.38045l-2.65172,2.05175,3.19472,13.16224,18.94624-.864,8.45373-13.01814s-14.07559-.94464-16.05062-7.44527Z" fill="#f9977a"/><path d="M369.94411,273.37763l-11.03306.50312a1.27727,1.27727,0,0,1-1.32692-1.12856l-3.0376-26.14942a1.27727,1.27727,0,0,1,1.21055-1.42333l10.92085-.498a1.27727,1.27727,0,0,1,1.32628,1.12317l3.14981,26.1443A1.27726,1.27726,0,0,1,369.94411,273.37763Z" fill="#1e1d22"/><path d="M353.55,277.32579a50.8231,50.8231,0,0,1-3.38394-17.00854s1.20514-6.46354,11.09236-4.82093a3.10191,3.10191,0,0,1,2.529,2.38127c.37531,1.68794.51687,4.0864-1.04464,5.70194l-5.583,5.52.45091,3.88172a.84823.84823,0,0,0,1.01338.73617c1.17107-.24377,3.13691-.51023,3.74959.27389a1.242,1.242,0,0,1-.5965,2.06017Z" fill="#f9977a"/><path d="M353.202,259.5993a4.50136,4.50136,0,0,1,2.1142-1.77784,11.71484,11.71484,0,0,1,2.65268-.87158,17.929,17.929,0,0,1,2.75561-.32861c.46213-.00488.92249-.02881,1.38309-.01856.46136.03077.92105.042,1.37976.08936-1.827.24951-3.63742.42236-5.4075.79346a18.73647,18.73647,0,0,0-2.59751.72021A5.65645,5.65645,0,0,0,353.202,259.5993Z" fill="#dd765e"/><path d="M353.3416,262.66131a7.49433,7.49433,0,0,1,2.14041-2.00488,10.89029,10.89029,0,0,1,2.68329-1.25,12.34,12.34,0,0,1,2.91287-.48975c.49027-.0376.98288.00293,1.47079.00342.48789.05029.97361.10791,1.4535.18652-.97586.05762-1.93683.09033-2.88575.229a19.03013,19.03013,0,0,0-2.792.59424,15.54755,15.54755,0,0,0-2.62863,1.08643A11.40025,11.40025,0,0,0,353.3416,262.66131Z" fill="#dd765e"/><path d="M355.28371,264.8742a14.47308,14.47308,0,0,1,1.85272-1.3999,16.86773,16.86773,0,0,1,2.03216-1.13379,11.05431,11.05431,0,0,1,2.20667-.78272,4.37951,4.37951,0,0,1,2.33243-.0332,6.242,6.242,0,0,0-2.21637.438c-.70648.26123-1.40839.541-2.09162.874C358.02013,263.47332,356.677,264.19549,355.28371,264.8742Z" fill="#dd765e"/><path d="M369.87569,305.60134l-8.09846-29.54984L353.55,277.32578c1.89627,41.58423,8.65668,45.32445,8.65668,45.32445,4.79793,5.36622,31.81948-15.69526,31.81948-15.69526l.99848-25.20831C393.73,280.2714,369.87569,305.60134,369.87569,305.60134Z" fill="#f9977a"/><path d="M451.58989,315.76446l12.49148-9.33077a2.98593,2.98593,0,0,0,.612-4.16273,115.80732,115.80732,0,0,0-16.58107-18.56443,25.09712,25.09712,0,0,0-8.6209-4.92069c-3.13431-1.03993-7.31533-2.14781-10.68037-2.0496a14.81,14.81,0,0,1-13.42615,10.63639c-11.01014.809-8.60953-10.99218-8.60953-10.99218s-10.58191,2.2484-13.85072,4.5503c-2.70053,1.90172-14.79323,14.0115-18.57,17.81392a1.70152,1.70152,0,0,0-.05833,2.33623l10.66013,11.88371a3.62193,3.62193,0,0,0,5.10806.28351l2.8286-2.52489-.00061-.00413c.67084,3.69.03679,18.70119,3.01081,24.52444l42.818,2.92485s-1.48569-19.14423,2.732-29.94089l6.09251,7.09141A2.9803,2.9803,0,0,0,451.58989,315.76446Z" fill="#ffba55"/><polygon points="437.772 338.104 436.971 347.23 416.444 355.052 394.364 343.532 395.903 335.244 437.772 338.104" fill="#f9977a"/><path d="M407.60128,271.24268s5.15181,3.76383,11.06646-.97562c0,0-1.9606,8.29063-11.89235,6.11339A5.90542,5.90542,0,0,0,407.60128,271.24268Z" fill="#dd765e"/><path d="M426.38866,257.54754a3.11735,3.11735,0,0,1-.51719-2.26221,6.20483,6.20483,0,0,1,.26154-1.145,4.78977,4.78977,0,0,1,.51706-1.04638c-.08887.7788-.2709,1.5-.32275,2.23877a6.84977,6.84977,0,0,0-.06476,1.10009A4.84963,4.84963,0,0,0,426.38866,257.54754Z" fill="#dd765e"/><path d="M428.81106,276.73624c-13.41453,7.96277-30.64358,29.41181-35.184,35.234a4.2143,4.2143,0,0,0-.83969,3.26882c.28006,1.72115-.146,20.24774-.067,21.56724.39433,6.587-2.67094,8.19879-15.5458,19.25608,0,0,38.4845,15.79184,51.795-6.01512,8.65508-16.35155,11.66087-70.95353,11.66087-70.95353C438.413,274.207,428.81106,276.73624,428.81106,276.73624Z" fill="#f73c4f"/><path d="M366.60162,461.45308s.69227,8.91174-21.89975,17.36987a1.172,1.172,0,0,0-.78934,1.02952c-.03042,1.17211,1.76794,2.82483,14.84593-.11576a82.78336,82.78336,0,0,1,19.22747-2.00379h0a3.39114,3.39114,0,0,0,3.496-3.89491l-1.46687-12.08786Z" fill="#f9977a"/><path d="M381.99456,475.90957a.95466.95466,0,0,0-1.15922-.675,171.41927,171.41927,0,0,1-20.47685,4.079,12.13505,12.13505,0,0,0-3.29443-4.64684,2.56169,2.56169,0,0,0-2.74712-.35589l-5.148,2.44a.4188.4188,0,0,0,.0119.76093,3.07333,3.07333,0,0,1,1.52718,2.48953,21.40367,21.40367,0,0,1-6.04946-.58919.954.954,0,0,0-1.22156.54517.9359.9359,0,0,0,.55024,1.2126,19.26716,19.26716,0,0,0,5.75088.717c4.49456.09954,12.00415-.41981,23.80224-2.99082l-.07269,3.28212,8.05306-.44228S382.09566,476.29566,381.99456,475.90957Z" fill="#ffba55"/><path d="M326.291,461.45308s.69226,8.91174-21.89976,17.36987a1.172,1.172,0,0,0-.78934,1.02952c-.03042,1.17211,1.76795,2.82483,14.84593-.11576a82.78344,82.78344,0,0,1,19.22748-2.00379h0a3.39113,3.39113,0,0,0,3.496-3.89491l-1.46687-12.08786Z" fill="#f9977a"/><path d="M341.684,475.90957a.95465.95465,0,0,0-1.15922-.675,171.41927,171.41927,0,0,1-20.47685,4.079,12.135,12.135,0,0,0-3.29443-4.64684,2.56169,2.56169,0,0,0-2.74712-.35589l-5.148,2.44a.4188.4188,0,0,0,.0119.76093,3.07336,3.07336,0,0,1,1.52719,2.48953,21.40372,21.40372,0,0,1-6.04947-.58919.954.954,0,0,0-1.22156.54517.93591.93591,0,0,0,.55024,1.2126,19.2672,19.2672,0,0,0,5.75089.717c4.49456.09954,12.00414-.41981,23.80223-2.99082l-.07269,3.28212,8.05306-.44228S341.78508,476.29566,341.684,475.90957Z" fill="#ffba55"/><path d="M312.61439,447.516l24.92855-74.34505a22.7,22.7,0,0,1,14.10879-12.01568c9.80126-2.87506,25.321-6.90825,39.07032-8.20536,0,0,33.03373.41815,48.92337-7.94482,0,0,19.653,27.17965-2.927,45.16,0,0-9.55826,8.45538-33.15588,4.68407a15.56268,15.56268,0,0,0-14.05352,4.768,16.1381,16.1381,0,0,0-4.01379,12.70983s.58049,31.545,4.11081,47.06542c.42562,1.87112-2.33078,4.10129-6.60877,6.36775A56.28965,56.28965,0,0,1,317.665,456.32a23.96069,23.96069,0,0,1-5.07144-6.27991A2.978,2.978,0,0,1,312.61439,447.516Z" fill="#f73c4f"/><path d="M346.81505,375.80584a24.515,24.515,0,0,1,5.56018-5.45459,18.33973,18.33973,0,0,1,3.411-1.95947,9.37388,9.37388,0,0,1,3.82605-.8711,16.92729,16.92729,0,0,0-3.47748,1.56934,36.05574,36.05574,0,0,0-3.17966,2.07519c-1.043.7251-2.05148,1.50635-3.06848,2.28516Z" fill="#b02336"/><path d="M342.0959,374.03582a15.0703,15.0703,0,0,1,2.34131-2.44092,18.52665,18.52665,0,0,1,2.76758-1.96533,13.7025,13.7025,0,0,1,3.14142-1.35205,7.615,7.615,0,0,1,3.39837-.23633,15.34779,15.34779,0,0,0-3.14071.97266,26.53519,26.53519,0,0,0-2.90006,1.48193C345.80485,371.57635,344.00267,372.82879,342.0959,374.03582Z" fill="#b02336"/><path d="M325.7,412.95428a64.93744,64.93744,0,0,1,4.72094,5.3584l2.20356,2.78076c.74273.92187,1.44863,1.85791,2.27475,2.73242A11.97889,11.97889,0,0,1,332.043,421.614,36.16216,36.16216,0,0,1,325.7,412.95428Z" fill="#b02336"/><path d="M325.7,421.31707c1.93985,1.5498,3.72522,3.20508,5.54452,4.8252,1.81168,1.63427,3.617,3.22314,5.53641,4.79248a15.65773,15.65773,0,0,1-3.28552-1.75,28.58545,28.58545,0,0,1-2.91874-2.29932,34.09646,34.09646,0,0,1-2.61-2.63037A23.3141,23.3141,0,0,1,325.7,421.31707Z" fill="#b02336"/><path d="M429.42857,389.36346a36.80591,36.80591,0,0,1-9.3229.61865,26.08238,26.08238,0,0,1-4.65964-.67969,9.13593,9.13593,0,0,1-4.22183-2.05224,12.80869,12.80869,0,0,0,4.37783,1.28759c1.50931.21338,3.03083.36817,4.564.44678C423.23143,389.17352,426.3112,389.20965,429.42857,389.36346Z" fill="#b02336"/><path d="M420.68117,391.43865a15.13709,15.13709,0,0,1-4.73615.60889,14.60666,14.60666,0,0,1-2.39062-.251,5.09583,5.09583,0,0,1-2.248-.92724,15.37523,15.37523,0,0,0,2.33243.15136l2.32773.02784A30.23953,30.23953,0,0,1,420.68117,391.43865Z" fill="#b02336"/><path d="M354.57771,409.76238c-.50485,3.94776-1.20544,7.86524-1.97973,11.76807-.77634,3.90283-1.70862,7.77344-2.6987,11.63135a119.1243,119.1243,0,0,1-3.66025,11.38379,48.65667,48.65667,0,0,1-2.50833,5.4458,21.90938,21.90938,0,0,1-1.64691,2.51513,6.90647,6.90647,0,0,1-2.24979,1.9585,11.257,11.257,0,0,0,3.462-4.7002,49.27619,49.27619,0,0,0,2.222-5.4873c1.29395-3.73731,2.42334-7.53711,3.41656-11.37451,1.06608-3.81885,1.98066-7.67969,2.91562-11.5376Z" fill="#b02336"/><path d="M427.664,352.12273a113.29857,113.29857,0,0,1-9.39719,11.57959A87.10951,87.10951,0,0,1,407.27,373.83416a43.7493,43.7493,0,0,1-6.37509,3.98975,19.40983,19.40983,0,0,1-7.238,2.185,11.04338,11.04338,0,0,1-3.80683-.38281,9.61516,9.61516,0,0,1-3.36255-1.79053,15.06484,15.06484,0,0,1-4.16174-6.17236,15.57374,15.57374,0,0,0,4.46359,5.78613,9.156,9.156,0,0,0,3.22843,1.56739,10.32521,10.32521,0,0,0,3.57614.22558,20.12943,20.12943,0,0,0,6.89041-2.231,43.18369,43.18369,0,0,0,6.18726-3.97705,95.30682,95.30682,0,0,0,11.04068-9.86036c1.73992-1.76074,3.42858-3.5747,5.07873-5.42431C424.46318,355.91814,426.07451,354.03191,427.664,352.12273Z" fill="#b02336"/><path d="M365.71889,381.79021c-.10892,3.74854-.35566,7.48731-.63861,11.22315-.27289,3.7373-.64554,7.46533-1.055,11.19043-.435,3.72217-.9017,7.44238-1.53277,11.1416-.319,1.84912-.65488,3.6958-1.05676,5.53125-.215.915-.4451,1.82715-.71576,2.729-.13721.4502-.28016.89942-.45816,1.33692a2.81576,2.81576,0,0,1-.74939,1.1831,2.75476,2.75476,0,0,0,.60705-1.23388c.13757-.44385.24487-.89746.344-1.353.19561-.91113.35083-1.832.4909-2.75488.302-1.84229.55155-3.69434.77707-5.54981l1.30081-11.14258,1.28592-11.15234.666-5.57617Z" fill="#b02336"/><path d="M396.93513,326.27654a132.54057,132.54057,0,0,1,6.49451-12.55615,138.96731,138.96731,0,0,1,7.743-11.85205,81.97568,81.97568,0,0,1,9.32929-10.6748c3.47043-3.17237,7.36535-6.16456,11.95523-7.43018a24.36983,24.36983,0,0,0-6.12351,3.40478,45.63778,45.63778,0,0,0-5.29834,4.58008,90.0269,90.0269,0,0,0-9.05963,10.71436c-2.82257,3.74414-5.39105,7.67773-7.89059,11.65332q-1.87957,2.98021-3.64838,6.03174C399.22737,322.16473,398.0782,324.217,396.93513,326.27654Z" fill="#b02336"/><path d="M404.99489,331.01824c1.33664-2.34033,2.764-4.61865,4.20517-6.88769,1.4317-2.27588,2.9284-4.50733,4.42538-6.73877,1.51666-2.21778,3.035-4.43457,4.6174-6.6084l2.37653-3.25781c.82245-1.06592,1.61642-2.15039,2.464-3.19922-.65982,1.17578-1.37323,2.31543-2.05814,3.47412l-2.1456,3.41455c-1.43234,2.27539-2.92874,4.50684-4.42682,6.7373-1.51776,2.21729-3.03579,4.43457-4.61883,6.60743C408.26033,326.73943,406.673,328.90936,404.99489,331.01824Z" fill="#b02336"/><path d="M431.33787,299.78875c-.31512,3.31641-.84356,6.60693-1.46566,9.87939-.61231,3.2754-1.38828,6.52051-2.29163,9.73389a67.093,67.093,0,0,1-3.39569,9.4292,33.55864,33.55864,0,0,1-2.43405,4.40137,11.61459,11.61459,0,0,1-3.52759,3.53564,12.41345,12.41345,0,0,0,3.1134-3.79785,33.74709,33.74709,0,0,0,2.14258-4.44531,97.4521,97.4521,0,0,0,3.14051-9.39795c.91989-3.17969,1.716-6.39746,2.50393-9.62012.39551-1.61133.76523-3.23,1.12195-4.85156Z" fill="#b02336"/><path d="M315.64726,439.14617a114.86885,114.86885,0,0,0,16.1081,12.18213,64.73747,64.73747,0,0,0,8.86016,4.85156,47.5767,47.5767,0,0,0,9.61243,3.082,43.91531,43.91531,0,0,0,19.89819-.377,47.71192,47.71192,0,0,0,4.76694-1.52783,44.93209,44.93209,0,0,0,4.54556-2.12549,57.45146,57.45146,0,0,0,8.44452-5.52051l.06562.07569a44.32505,44.32505,0,0,1-12.692,8.46289c-.79218.32177-1.60385.59863-2.40866.89111a20.56778,20.56778,0,0,1-2.45874.74121,38.69913,38.69913,0,0,1-5.035,1.02246l-2.56223.20166c-.85242.09229-1.71127.02588-2.5658.04639a42.04215,42.04215,0,0,1-10.12085-1.35693,75.72624,75.72624,0,0,1-9.6264-3.29737,80.02271,80.02271,0,0,1-9.15424-4.46191,69.19612,69.19612,0,0,1-8.35382-5.835,61.6468,61.6468,0,0,1-7.39657-6.98633Z" fill="#b02336"/><path d="M319.57719,448.61178l-.00009-.00006a.94505.94505,0,0,1-.28993-1.30469h0a.94507.94507,0,0,0-.28992-1.3047l-.20135-.12813a.94506.94506,0,0,0-1.30469.28992h0a.94506.94506,0,0,1-1.30469.28992h0a.94506.94506,0,0,0-1.30469.28992l-.12813.20135a.94506.94506,0,0,0,.28992,1.30469h0a.94506.94506,0,0,1,.28993,1.3047h0a.94506.94506,0,0,0,.28992,1.30469l.20135.12813a.94506.94506,0,0,0,1.30469-.28992h0a.94507.94507,0,0,1,1.3047-.28993l.00008.00006a.94507.94507,0,0,0,1.3047-.28992l.12813-.20135A.94506.94506,0,0,0,319.57719,448.61178Z" fill="#ffba55"/><path d="M326.47443,454.02085l-.00009,0a.94507.94507,0,0,1-.28992-1.3047h0a.94506.94506,0,0,0-.28992-1.30469l-.20135-.12813a.945.945,0,0,0-1.30469.28992h0a.94506.94506,0,0,1-1.3047.28992h0a.94506.94506,0,0,0-1.30469.28993l-.12813.20134a.94507.94507,0,0,0,.28992,1.3047h0a.94506.94506,0,0,1,.28993,1.30469h0a.94506.94506,0,0,0,.28992,1.3047l.20135.12813a.94505.94505,0,0,0,1.30469-.28993h0a.94506.94506,0,0,1,1.30469-.28992l.00009.00006a.94507.94507,0,0,0,1.3047-.28993l.12813-.20134A.94506.94506,0,0,0,326.47443,454.02085Z" fill="#ffba55"/><path d="M334.46143,459.42993l-.00009-.00006a.94506.94506,0,0,1-.28993-1.30469h0a.94507.94507,0,0,0-.28993-1.3047l-.20134-.12813a.94507.94507,0,0,0-1.3047.28992h0a.94506.94506,0,0,1-1.30469.28992h0a.94507.94507,0,0,0-1.3047.28992l-.12813.20135a.94505.94505,0,0,0,.28993,1.30469h0a.94507.94507,0,0,1,.28992,1.3047h0a.94506.94506,0,0,0,.28992,1.30469l.20135.12813a.94506.94506,0,0,0,1.30469-.28992h0a.94507.94507,0,0,1,1.3047-.28993l.00009.00006a.94506.94506,0,0,0,1.30469-.28992l.12813-.20135A.94506.94506,0,0,0,334.46143,459.42993Z" fill="#ffba55"/><path d="M343.402,462.74633l-.00011,0a.94506.94506,0,0,1-.69959-1.13879h0a.94506.94506,0,0,0-.6996-1.13879l-.23212-.05546a.94506.94506,0,0,0-1.13879.6996h0a.94506.94506,0,0,1-1.13879.69959h0a.94506.94506,0,0,0-1.13879.6996l-.05546.23212a.94507.94507,0,0,0,.6996,1.1388h0a.94506.94506,0,0,1,.6996,1.13879h0a.94506.94506,0,0,0,.69959,1.13879l.23213.05546a.94506.94506,0,0,0,1.13879-.6996h0a.94506.94506,0,0,1,1.13879-.6996l.00011,0a.94506.94506,0,0,0,1.13879-.6996l.05545-.23212A.94506.94506,0,0,0,343.402,462.74633Z" fill="#ffba55"/><path d="M351.80824,464.48l-.00011,0a.94506.94506,0,0,1-.82738-1.04963h0a.94506.94506,0,0,0-.82737-1.04964l-.237-.02806a.94507.94507,0,0,0-1.04964.82738h0a.945.945,0,0,1-1.04963.82737h0a.94508.94508,0,0,0-1.04964.82738l-.02806.237a.94507.94507,0,0,0,.82738,1.04964h0a.945.945,0,0,1,.82737,1.04963h0a.94508.94508,0,0,0,.82738,1.04964l.237.02806a.94508.94508,0,0,0,1.04964-.82738h0a.945.945,0,0,1,1.04963-.82737h.0001a.94507.94507,0,0,0,1.04964-.82738l.02806-.237A.945.945,0,0,0,351.80824,464.48Z" fill="#ffba55"/><path d="M361.92026,465.03836h-.00011a.945.945,0,0,1-.94669-.94342h0a.94506.94506,0,0,0-.9467-.94342l-.23866.00041a.94506.94506,0,0,0-.94342.9467h0a.94507.94507,0,0,1-.94342.9467h0a.94506.94506,0,0,0-.94343.94669l.00042.23866a.945.945,0,0,0,.94669.94342h0a.94506.94506,0,0,1,.94669.94343h0a.94507.94507,0,0,0,.9467.94342l.23866-.00041a.94507.94507,0,0,0,.94342-.9467h0a.94507.94507,0,0,1,.94342-.9467h.00011a.94506.94506,0,0,0,.94342-.9467l-.00041-.23865A.94507.94507,0,0,0,361.92026,465.03836Z" fill="#ffba55"/><path d="M371.40338,463.67084l-.0001,0a.94507.94507,0,0,1-1.07038-.80036h0a.94506.94506,0,0,0-1.07037-.80036l-.23621.03409a.94506.94506,0,0,0-.80036,1.07038h0a.94506.94506,0,0,1-.80037,1.07037h0a.94506.94506,0,0,0-.80036,1.07037l.03409.23621a.94506.94506,0,0,0,1.07037.80037h0a.94506.94506,0,0,1,1.07038.80036h0a.94506.94506,0,0,0,1.07037.80037l.23621-.0341a.94506.94506,0,0,0,.80037-1.07037h0a.945.945,0,0,1,.80036-1.07037l.0001,0a.94506.94506,0,0,0,.80037-1.07037l-.0341-.23621A.94506.94506,0,0,0,371.40338,463.67084Z" fill="#ffba55"/><path d="M379.97337,460.67641l-.0001,0a.94506.94506,0,0,1-1.20463-.57892h0a.94506.94506,0,0,0-1.20463-.57892l-.2252.079a.94506.94506,0,0,0-.57892,1.20463h0a.94508.94508,0,0,1-.57893,1.20463h0a.94505.94505,0,0,0-.57893,1.20462l.079.2252a.94507.94507,0,0,0,1.20463.57893h0a.94506.94506,0,0,1,1.20463.57893h0a.94505.94505,0,0,0,1.20462.57893l.22521-.079a.945.945,0,0,0,.57892-1.20462h0a.94507.94507,0,0,1,.57893-1.20463l.0001,0a.94505.94505,0,0,0,.57893-1.20462l-.079-.2252A.94505.94505,0,0,0,379.97337,460.67641Z" fill="#ffba55"/><path d="M387.21492,455.39875l-.00009,0a.94505.94505,0,0,1-1.29673-.32366h0a.94507.94507,0,0,0-1.29674-.32366l-.2046.12287a.94506.94506,0,0,0-.32366,1.29674h0a.94506.94506,0,0,1-.32366,1.29674h0a.94506.94506,0,0,0-.32365,1.29674l.12286.2046a.94506.94506,0,0,0,1.29674.32365h0a.94506.94506,0,0,1,1.29674.32366h0a.94506.94506,0,0,0,1.29674.32366l.2046-.12287a.94506.94506,0,0,0,.32365-1.29674h0a.94505.94505,0,0,1,.32366-1.29673l.00009-.00006a.94506.94506,0,0,0,.32366-1.29674l-.12287-.2046A.94506.94506,0,0,0,387.21492,455.39875Z" fill="#ffba55"/><path d="M448.92472,417.05172h-.00011a.94505.94505,0,0,1-1.0287-.85326h0a.94506.94506,0,0,0-1.02871-.85325l-.23763.02215a.94505.94505,0,0,0-.85325,1.0287h0a.94507.94507,0,0,1-.85326,1.0287h0a.94507.94507,0,0,0-.85326,1.02871l.02215.23762a.94507.94507,0,0,0,1.02871.85326h0a.94507.94507,0,0,1,1.02871.85326h0a.94507.94507,0,0,0,1.0287.85326l.23763-.02216A.94506.94506,0,0,0,448.269,420.2h0a.94506.94506,0,0,1,.85325-1.02871h.00011a.94506.94506,0,0,0,.85325-1.02871l-.02215-.23762A.94506.94506,0,0,0,448.92472,417.05172Z" fill="#ffba55"/><path d="M457.189,414.38965l-.0001,0a.94506.94506,0,0,1-1.22012-.54551h0a.94507.94507,0,0,0-1.22012-.54552l-.22294.08518a.94506.94506,0,0,0-.54552,1.22012h0a.94505.94505,0,0,1-.54552,1.22012h0a.94506.94506,0,0,0-.54552,1.22012l.08518.22294a.94505.94505,0,0,0,1.22012.54552h0a.94507.94507,0,0,1,1.22012.54552h0a.94505.94505,0,0,0,1.22012.54552l.22294-.08518a.94506.94506,0,0,0,.54552-1.22012h0a.94506.94506,0,0,1,.54552-1.22012l.00009,0a.945.945,0,0,0,.54552-1.22011l-.08518-.22294A.945.945,0,0,0,457.189,414.38965Z" fill="#ffba55"/><path d="M465.72114,408.412l-.0001,0a.94506.94506,0,0,1-1.22012-.54552h0a.94506.94506,0,0,0-1.22012-.54552l-.22294.08518a.94506.94506,0,0,0-.54552,1.22012h0a.94506.94506,0,0,1-.54552,1.22012h0a.94506.94506,0,0,0-.54552,1.22012l.08518.22294a.94507.94507,0,0,0,1.22012.54552h0a.94506.94506,0,0,1,1.22012.54551h0a.94507.94507,0,0,0,1.22012.54552l.22294-.08518a.94507.94507,0,0,0,.54552-1.22012h0a.94505.94505,0,0,1,.54552-1.22012l.0001,0a.94506.94506,0,0,0,.54551-1.22012l-.08517-.22294A.94507.94507,0,0,0,465.72114,408.412Z" fill="#ffba55"/><path d="M474.45765,404.3999l-.0001,0a.94507.94507,0,0,1-1.22012-.54552h0a.94505.94505,0,0,0-1.22012-.54552l-.22294.08518a.94506.94506,0,0,0-.54551,1.22012h0a.94507.94507,0,0,1-.54552,1.22012h0a.94505.94505,0,0,0-.54552,1.22012l.08518.22294a.94506.94506,0,0,0,1.22011.54552h0a.94508.94508,0,0,1,1.22012.54552h0a.94505.94505,0,0,0,1.22011.54551l.22294-.08517a.94506.94506,0,0,0,.54552-1.22012h0a.94506.94506,0,0,1,.54552-1.22011l.0001,0a.94506.94506,0,0,0,.54552-1.22012l-.08518-.22294A.94505.94505,0,0,0,474.45765,404.3999Z" fill="#ffba55"/><path d="M436.97118,347.23016a13.72757,13.72757,0,0,1,4.58444,3.438,25.68871,25.68871,0,0,1,3.35083,4.71338,34.67434,34.67434,0,0,1,2.32849,5.30371,22.65012,22.65012,0,0,1,1.11853,5.71289,25.10038,25.10038,0,0,1-2.01312,11.35743,29.43349,29.43349,0,0,1-6.39569,9.49463,31.9273,31.9273,0,0,0,3.26455-4.66553,32.35173,32.35173,0,0,0,2.45-5.10108,25.9094,25.9094,0,0,0,1.71906-11.01855,25.18948,25.18948,0,0,0-1.03665-5.49414,35.73988,35.73988,0,0,0-2.17175-5.19776,25.02947,25.02947,0,0,0-3.01328-4.76171A15.10533,15.10533,0,0,0,436.97118,347.23016Z" fill="#b02336"/><path d="M402.34817,252.89668c1.93461-9.506,8.76917-16.14032,15.26541-14.81825,5.01395,1.02043,8.35785,6.48378,8.73467,13.294a1.853,1.853,0,0,1,1.55743-.22605c1.411.52435,1.7081,3.22789.6636,6.03844-.88185,2.373-2.43718,4.0572-3.74963,4.21052-2.74043,7.453-8.601,12.24915-14.21194,11.10726C404.11146,271.18046,400.41354,262.40262,402.34817,252.89668Z" fill="#f9977a"/><path d="M410.17161,252.12859a5.40067,5.40067,0,0,1,.01874,3.4375,12.48975,12.48975,0,0,1-1.41116,3.18067c-.31549.49756-.80429.8916-.72955,1.34814a1.9625,1.9625,0,0,0,.84137,1.24414,4.23457,4.23457,0,0,0,3.21911.43067,3.9448,3.9448,0,0,1-3.41885-.13965,2.18653,2.18653,0,0,1-1.05734-1.49512,1.33593,1.33593,0,0,1,.27349-.94531l.49271-.70068a13.695,13.695,0,0,0,1.45783-3.03663A6.1541,6.1541,0,0,0,410.17161,252.12859Z" fill="#dd765e"/><path d="M420.31959,254.48837a.45865.45865,0,0,0,.24353-.7436c-.11487-.13539-2.857-3.30221-6.5769-2.64846a.45873.45873,0,1,0,.15872.90363c3.20819-.5637,5.69438,2.31,5.71922,2.33911A.45887.45887,0,0,0,420.31959,254.48837Z" fill="#160b07"/><path d="M408.27233,251.09681a.45888.45888,0,0,0,.05732-.87594,8.85329,8.85329,0,0,0-5.54635-.08744.4588.4588,0,0,0,.30529.86532,8.00793,8.00793,0,0,1,4.91626.08068A.45908.45908,0,0,0,408.27233,251.09681Z" fill="#160b07"/><path d="M419.35051,256.4948a11.17049,11.17049,0,0,0-1.4657-.94287,5.87055,5.87055,0,0,0-1.57544-.60009,3.74835,3.74835,0,0,0-1.65-.03028,5.52467,5.52467,0,0,0-1.60266.61768,3.56389,3.56389,0,0,1,1.51577-.95947,3.66912,3.66912,0,0,1,1.8353-.0752,5.18115,5.18115,0,0,1,1.65982.74707A5.11274,5.11274,0,0,1,419.35051,256.4948Z" fill="#160b07"/><circle cx="415.21523" cy="255.65465" r="1.02898" fill="#160b07"/><circle cx="405.42323" cy="254.43093" r="1.02898" fill="#160b07"/><path d="M408.85078,255.4865a11.17039,11.17039,0,0,0-1.46569-.94287,5.85292,5.85292,0,0,0-1.57544-.59961,3.74857,3.74857,0,0,0-1.65-.03076,5.52471,5.52471,0,0,0-1.60266.61768,3.56394,3.56394,0,0,1,1.51578-.95948,3.66926,3.66926,0,0,1,1.8353-.07519,5.19182,5.19182,0,0,1,1.65985.74707A5.11324,5.11324,0,0,1,408.85078,255.4865Z" fill="#160b07"/><path d="M428.07179,254.43426a4.48136,4.48136,0,0,0-.72806-.91358.6361.6361,0,0,0-.843-.11132,2.71692,2.71692,0,0,0-.7699.77685c-.2468.30469-.44782.6499-.7135.96973a4.60238,4.60238,0,0,1,.41607-1.16016,2.55453,2.55453,0,0,1,.84025-.98437.97169.97169,0,0,1,.72961-.12012,1.03858,1.03858,0,0,1,.59247.38476A2.31446,2.31446,0,0,1,428.07179,254.43426Z" fill="#dd765e"/><path d="M415.0882,265.39454s-5.73047,3.58924-8.98224-.38819" fill="#dd2f22"/><path d="M412.52391,239.63488c1.42852.34255,2.21881,1.43791,3.79941,3.62857,3.05317,4.23165,4.86184,10.05071,6.97494,11.08216a1.30374,1.30374,0,0,0,.77259.15691c.82654-.12087,1.15958-1.19133,2.07839-2.69765.69436-1.13834.99646-1.33409,1.40121-1.97183a9.20234,9.20234,0,0,0,.41479-8.30183,9.74983,9.74983,0,0,0-5.36111-4.73067c-4.81415-2.06166-9.467-.26079-10.647.19592-7.08937,2.74393-10.11611,9.76249-9.86555,9.969C402.38609,247.20824,407.76272,238.49321,412.52391,239.63488Z" fill="#160b07"/><circle cx="426.91233" cy="260.09037" r="2.04242" fill="#ffba55"/><path d="M491.80862,366.71876a5.7051,5.7051,0,0,1-4.639,1.487l-6.96367-.87962-31.47785-4.00018a8.32441,8.32441,0,0,0-9.3512,8.18885s-.9634,110.67538-1.1833,111.2618H427.345c-.21991-.61783.51311-111.34558.51311-111.34558a19.82558,19.82558,0,0,1,22.31513-19.52967l30.95427,3.92688,7.48725.95292a5.71306,5.71306,0,0,1,3.82216,2.17811Z" fill="#935b50"/><path d="M460.94479,354.80987s-3.75072-.69951-10.93246,3.6864-12.36609,8.603-6.73126,6.74844l4.27052-1.48435s-3.7783,5.61252-6.322,8.759a5.01023,5.01023,0,0,0-.34834,5.95149c1.137,1.65975,2.719,1.97546,6.343-1.07252,5.42023-4.55869,7.66191-7.00264,8.6708-8.5199l.01087-.01614a21.88268,21.88268,0,0,0,3.16314-6.81342Z" fill="#f9977a"/><path d="M450.10377,360.55486a8.611,8.611,0,0,1-1.11477,1.7334,10.0749,10.0749,0,0,1-1.43741,1.47217,4.48481,4.48481,0,0,1,.44571-.94873,7.08911,7.08911,0,0,1,.59064-.84668A6.74911,6.74911,0,0,1,450.10377,360.55486Z" fill="#dd765e"/><path d="M447.04094,368.79607a21.4505,21.4505,0,0,1-1.44309,2.07911c-.50985.67236-1.06155,1.311-1.63253,1.93261a21.39769,21.39769,0,0,1-1.82294,1.76172,11.627,11.627,0,0,1-2.07251,1.46387c1.24734-1.1377,2.38074-2.34815,3.51773-3.57617C444.73158,371.23846,445.84618,369.99187,447.04094,368.79607Z" fill="#dd765e"/><path d="M448.59016,370.75164a20.54377,20.54377,0,0,1-1.47638,2.34717,23.343,23.343,0,0,1-1.74151,2.16357,15.65742,15.65742,0,0,1-2.035,1.90576,6.54167,6.54167,0,0,1-2.456,1.30274,9.48066,9.48066,0,0,0,2.20062-1.60645c.66129-.62158,1.30319-1.26709,1.90949-1.94922C446.22554,373.57,447.38322,372.15252,448.59016,370.75164Z" fill="#dd765e"/><path d="M449.59425,372.91668a14.99277,14.99277,0,0,1-1.20321,1.9834,19.85669,19.85669,0,0,1-1.44233,1.81836,13.7905,13.7905,0,0,1-3.57757,2.94482c.55871-.53906,1.11182-1.0625,1.64145-1.61181.52063-.55762,1.04858-1.105,1.55258-1.67676Z" fill="#dd765e"/><polygon points="453.067 352.256 451.812 359.372 459.069 362.049 463.171 353.413 453.067 352.256" fill="#f9977a"/><path d="M457.878,326.27654a3.0809,3.0809,0,0,1,.56835-1.355,5.19755,5.19755,0,0,1,.993-1.05713,4.65167,4.65167,0,0,1,2.66867-1.04394,8.81987,8.81987,0,0,1-1.01819.98388c-.34226.29542-.68692.56934-1.03015.84375C459.36348,325.19451,458.69255,325.714,457.878,326.27654Z" fill="#dd765e"/><rect x="173.62611" y="314.2868" width="2.26563" height="21.52148" fill="#f65b2b"/><path d="M198.49716,382.184h-3.49578s-1.0875-4.73865-8.01174-8.00131c-6.35117-2.99257-7.83536-13.98265-7.83536-13.98265V334.1765a4.66088,4.66088,0,0,0-4.66088-4.66088h0a4.66088,4.66088,0,0,0-4.66088,4.66088v26.02358s-1.48419,10.99008-7.83536,13.98265c-6.92424,3.26266-8.01174,8.00131-8.01174,8.00131h-4.24214a4.1948,4.1948,0,0,0-4.19481,4.19481H202.692A4.19481,4.19481,0,0,0,198.49716,382.184Z" fill="#e19974"/><path d="M178.26217,325.88872a5.32786,5.32786,0,0,1,.39559-4.44858,6.58137,6.58137,0,0,1,5.12137-3.15527c2.82337-.26084,4.91924,1.48264,7.46749,3.411,10.48522,7.93469,8.0699,5.47236,15.74784,11.41161a10.04184,10.04184,0,0,1,3.75895,9.86624c-.92571,4.32867-5.66478,7.44031-9.9989,7.68748a9.98068,9.98068,0,0,1-5.54534-1.38547,19.55939,19.55939,0,0,1-5.91713-5.01919A87.27419,87.27419,0,0,1,178.26217,325.88872Z" fill="#ffba55"/><path d="M170.68477,303.48709a5.32789,5.32789,0,0,1-.41965,4.44638,6.58138,6.58138,0,0,1-5.13837,3.12752c-2.82473.24556-4.91115-1.50923-7.44893-3.45135-10.44214-7.99129-8.04017-5.51593-15.68587-11.49663a10.04185,10.04185,0,0,1-3.70551-9.88643c.94911-4.3236,5.70494-7.40956,10.04033-7.63328a9.98071,9.98071,0,0,1,5.53777,1.41545,19.55935,19.55935,0,0,1,5.88988,5.05114A87.27358,87.27358,0,0,1,170.68477,303.48709Z" fill="#ffba55"/><path d="M163.27777,318.4438a5.32789,5.32789,0,0,1,4.45091.36847,6.58137,6.58137,0,0,1,3.18642,5.102c.278,2.82172-1.45262,4.92818-3.36541,7.48814-7.87064,10.53339-5.42307,8.1031-11.31541,15.8171a10.04187,10.04187,0,0,1-9.84315,3.819c-4.33423-.89931-7.4747-5.61933-7.74829-9.95186a9.98071,9.98071,0,0,1,1.35165-5.55368,19.55961,19.55961,0,0,1,4.983-5.94761A87.27456,87.27456,0,0,1,163.27777,318.4438Z" fill="#ffba55"/><path d="M185.6328,310.73a5.32788,5.32788,0,0,1-4.44886-.39255,6.58137,6.58137,0,0,1-3.15877-5.1192c-.26277-2.82319,1.47927-4.92026,3.40587-7.46983,7.92751-10.49065,5.46683-8.07364,11.40082-15.75565a10.04185,10.04185,0,0,1,9.86366-3.76571c4.32931.92275,7.44419,5.65968,7.69434,9.99363a9.98078,9.98078,0,0,1-1.38168,5.54629,19.55939,19.55939,0,0,1-5.01514,5.92056A87.27392,87.27392,0,0,1,185.6328,310.73Z" fill="#ffba55"/><circle cx="174.59697" cy="314.62662" r="12.59985" fill="#f65b2b"/><path d="M174.59682,364.37371a49.74707,49.74707,0,1,1,49.74755-49.74707A49.80336,49.80336,0,0,1,174.59682,364.37371Zm0-98.57812a48.83106,48.83106,0,1,0,48.83154,48.83105A48.886,48.886,0,0,0,174.59682,265.79559Z" fill="#7ca1b1"/><path d="M174.59682,346.4782a31.85156,31.85156,0,1,1,31.85156-31.85156A31.88788,31.88788,0,0,1,174.59682,346.4782Zm0-62.78711a30.93555,30.93555,0,1,0,30.93554,30.93555A30.97055,30.97055,0,0,0,174.59682,283.69109Z" fill="#7ca1b1"/><rect x="174.19387" y="265.32112" width="0.91575" height="98.58955" transform="translate(-49.44938 33.07535) rotate(-9.48332)" fill="#7ca1b1"/><rect x="125.29681" y="314.10384" width="98.52433" height="0.91572" transform="translate(-182.4815 270.49359) rotate(-53.93669)" fill="#7ca1b1"/><rect x="125.16057" y="313.87034" width="98.68354" height="0.91593" transform="translate(-47.71927 31.71389) rotate(-9.14095)" fill="#7ca1b1"/><rect x="174.35507" y="265.03535" width="0.91659" height="98.58199" transform="matrix(0.58389, -0.81183, 0.81183, 0.58389, -182.43859, 272.71139)" fill="#7ca1b1"/><circle cx="174.59697" cy="314.62662" r="8.17665" fill="#7ca1b1"/><rect x="99.73191" y="386.25269" width="137.73392" height="73.45809" rx="3.54214" fill="#935b50"/><path d="M231.89915,421.76426H105.29852a2.82212,2.82212,0,0,1-2.81873-2.81873V393.003a2.82212,2.82212,0,0,1,2.81873-2.81873H231.89915a2.82221,2.82221,0,0,1,2.81917,2.81873v25.94257A2.82221,2.82221,0,0,1,231.89915,421.76426ZM105.29852,391.09909a1.90607,1.90607,0,0,0-1.90387,1.90387v25.94257a1.90607,1.90607,0,0,0,1.90387,1.90387H231.89915a1.90616,1.90616,0,0,0,1.90431-1.90387V393.003a1.90616,1.90616,0,0,0-1.90431-1.90387Z" fill="#e19974"/><path d="M231.89915,455.66359H105.29852a2.82212,2.82212,0,0,1-2.81873-2.81873V426.90229a2.82212,2.82212,0,0,1,2.81873-2.81872H231.89915a2.82221,2.82221,0,0,1,2.81917,2.81872v25.94257A2.82221,2.82221,0,0,1,231.89915,455.66359ZM105.29852,424.99842a1.90607,1.90607,0,0,0-1.90387,1.90387v25.94257a1.90607,1.90607,0,0,0,1.90387,1.90387H231.89915a1.90616,1.90616,0,0,0,1.90431-1.90387V426.90229a1.90616,1.90616,0,0,0-1.90431-1.90387Z" fill="#e19974"/><path d="M126.63059,401.85564a1.47914,1.47914,0,0,0,.17168-.68185,1.4943,1.4943,0,0,0-2.98859,0,1.47816,1.47816,0,0,0,.17168.68161,6.38879,6.38879,0,1,0,2.64523.00024Zm-1.3228,10.47117a4.22286,4.22286,0,1,1,4.22334-4.22335A4.22824,4.22824,0,0,1,125.30779,412.32681Z" fill="#e19974"/><path d="M214.06657,401.8554a1.47817,1.47817,0,0,0,.17169-.68161,1.49424,1.49424,0,0,0-2.98848,0,1.47817,1.47817,0,0,0,.17169.68161,6.38841,6.38841,0,1,0,2.6451,0ZM212.744,412.32681a4.22286,4.22286,0,1,1,4.22334-4.22335A4.22824,4.22824,0,0,1,212.744,412.32681Z" fill="#e19974"/><path d="M126.63083,433.53806a1.4782,1.4782,0,0,0,.17144-.68111,1.49436,1.49436,0,1,0-2.81727.68111,6.38829,6.38829,0,1,0,2.64583,0Zm-1.323,10.47215a4.22335,4.22335,0,1,1,4.22334-4.22335A4.22824,4.22824,0,0,1,125.30779,444.01021Z" fill="#e19974"/><path d="M214.06694,433.53806a1.47823,1.47823,0,0,0,.17132-.68111,1.49424,1.49424,0,0,0-2.98848,0,1.47833,1.47833,0,0,0,.17144.68111,6.38835,6.38835,0,1,0,2.64572,0ZM212.744,444.01021a4.22335,4.22335,0,1,1,4.22334-4.22335A4.22824,4.22824,0,0,1,212.744,444.01021Z" fill="#e19974"/><polygon points="109.607 459.711 109.607 483.1 110.993 483.1 118.963 459.711 109.607 459.711" fill="#e19974"/><polygon points="227.966 459.711 227.966 483.1 226.58 483.1 218.61 459.711 227.966 459.711" fill="#e19974"/><rect x="100.26809" y="480.77659" width="500" height="2" fill="#935b50"/><path d="M218.65716,132.35409a7.77019,7.77019,0,0,1,2.30891,1.951,7.77043,7.77043,0,0,1,1.56492-2.58618,5.71119,5.71119,0,0,1,3.35326-1.62054,6.22593,6.22593,0,0,1,4.44557.92378,5.40262,5.40262,0,0,1,2.397,3.634c.435,2.65254-.54326,5.50636-2.228,8.46063a79.72681,79.72681,0,0,1-6.30376,8.87205l-.27192.34942-.36928-.24428a79.71287,79.71287,0,0,1-8.80708-6.39421c-2.54008-2.26149-4.37847-4.65345-4.81343-7.306a5.40287,5.40287,0,0,1,1.11086-4.20917,6.22611,6.22611,0,0,1,3.91774-2.29513,5.71126,5.71126,0,0,1,3.69525.4647Z" fill="#f73c4f"/><rect x="245.33945" y="115.19943" width="84.54545" height="78.24" fill="#efedef"/><path d="M249.65776,215.22422c9.65178,0,9.66777-15,0-15-9.65178,0-9.66777,15,0,15Z" fill="#4f66d0"/><path d="M249.65776,107.96422c9.65178,0,9.66777-15,0-15-9.65178,0-9.66777,15,0,15Z" fill="#f73c4f"/><path d="M273.65776,215.22422c9.65178,0,9.66777-15,0-15-9.65178,0-9.66777,15,0,15Z" fill="#4f66d0"/><path d="M296.75763,215.22422c9.65178,0,9.66777-15,0-15-9.65178,0-9.66777,15,0,15Z" fill="#4f66d0"/><rect x="260.45766" y="96.96453" width="62.45996" height="7" fill="#f73c4f"/><g clip-path="url(#clip-path)"><path d="M296.00413,341.10142l.3858,11.19082s30.787,8.64129,31.39712,4.97472c0,0,2.36619-.04014-13.62709-9.04291a15.47128,15.47128,0,0,1-6.61158-8.23944Z" fill="#f9977a"/><path d="M296.11255,344.2464v16.41146h9.94952l.00812-4.6004s23.44833,9.44251,21.78711.64534c0,0-1.64175,1.54269-8.095.47052l2.31391-4.3331-5.7456-3.48227-3.99,5.87369-10.95184-2.36021a6.2374,6.2374,0,0,1-4.87785-5.34533Z" fill="#f73c4f"/><path d="M297.62947,344.69031c-.86639,0-1.44354-.02915-1.53936-.03444a.41128.41128,0,0,1-.38682-.43276.43636.43636,0,0,1,.43186-.38682c.10157.00618,10.099.51665,12.18546-2.96832a.40994.40994,0,0,1,.70389.42039C307.20562,344.32733,300.65607,344.69031,297.62947,344.69031Z" fill="#f73c4f"/><path d="M266.87434,341.10142l-.38581,11.19082s-30.787,8.64129-31.39711,4.97472c0,0-2.36619-.04014,13.62709-9.04291a15.47128,15.47128,0,0,0,6.61158-8.23944Z" fill="#f9977a"/><path d="M266.76591,344.2464l-.11415,16.41146h-9.658l-.47158-1.91716s-25.11055,4.25976-21.501-2.0379c0,0,1.64175,1.54269,8.095.47052l-2.79054-4.0392,6.22223-3.77617,3.99,5.87369,10.79459-2.32632a6.46328,6.46328,0,0,0,5.05449-5.53891Z" fill="#f73c4f"/><path d="M265.24905,344.69031c-3.0266,0-9.57615-.363-11.395-3.40195a.40993.40993,0,0,1,.70388-.42039c2.0878,3.48585,12.08389,2.9745,12.18546,2.96832a.41836.41836,0,0,1,.43186.38682.411.411,0,0,1-.38682.43276C266.69259,344.66116,266.115,344.69031,265.24905,344.69031Z" fill="#f73c4f"/><path d="M289.27488,172.80977a31.03224,31.03224,0,0,0,3.41637-15.92727,22.79716,22.79716,0,0,0-6.11986-7.32622c1.15983.02488,2.092.093,2.98549.02293,5.93553-.46542,13.25976-7.28768,12.54536-13.74922-.62261-5.63156-7.12588-8.94909-8.708-9.75631a13.2351,13.2351,0,0,0-12.91492-.0352,15.08636,15.08636,0,0,0-5.75077,5.66862,13.47321,13.47321,0,0,1-3.97216,4.76707c-2.86513,2.45642-4.78823,3.24388-6.31421,5.96786-.96628,1.725-.93475,4.60414-.77263,6.72161a24.00268,24.00268,0,0,0-6.622,9.79619c-2.1193,5.59134-2.15729,12.38087-2.16731,14.17279-.02243,4.00142.46414,6.67509-1.28546,9.64358-1.55405,2.63679-3.20888,2.68337-5.15062,4.80086-3.61553,3.94277-4.82862,11.3606-2.08737,16.06,4.49519,7.70629,19.22651,7.42109,24.76228,1.50689,3.72893-3.98391.4769-7.52156,4.0597-15.3798C279.05573,181.26059,284.7791,181.20229,289.27488,172.80977Z" fill="#160b07"/><path d="M295.37367,158.16839l3.31516,2.6357,2.3776,9.88878c1.04312,9.24231-5.51367,16.15987-11.05236,16.215-5.65371.05627-12.489-7.01518-11.27629-16.49042q1.22418-5.8409,2.44808-11.68177s2.15549-.25624,3.98362-6.24481Z" fill="#f9977a"/><path d="M294.66858,153.78283s-4.39754,3.21277-9.44623-.83278c0,0,1.67355,7.07681,10.15121,5.21834A5.04081,5.04081,0,0,1,294.66858,153.78283Z" fill="#dd765e"/><path d="M300.26954,139.23978c-1.65137-8.11424-7.4853-13.77724-13.03043-12.64873-4.27987.871-7.13419,5.53449-7.45584,11.34763a1.58167,1.58167,0,0,0-1.32941-.19295c-1.20443.44758-1.458,2.75529-.56644,5.15436.75274,2.02556,2.08035,3.46319,3.20065,3.59406,2.33921,6.36179,7.34174,10.45577,12.1312,9.48107C298.76441,154.84666,301.92092,147.354,300.26954,139.23978Z" fill="#f9977a"/><path d="M293.5915,138.58422a5.4191,5.4191,0,0,0,.32816,2.81618,13.16586,13.16586,0,0,0,1.253,2.56615l.422.596a1.216,1.216,0,0,1,.24879.86389,1.93145,1.93145,0,0,1-.952,1.32115,3.32251,3.32251,0,0,1-2.95459.06634,5.20084,5.20084,0,0,0,1.44273.0412,2.483,2.483,0,0,0,1.26878-.46173,1.60066,1.60066,0,0,0,.66871-1.01761.69047.69047,0,0,0-.171-.50257c-.13251-.18387-.29342-.385-.435-.593a9.74536,9.74536,0,0,1-1.19595-2.74145A4.50023,4.50023,0,0,1,293.5915,138.58422Z" fill="#dd765e"/><path d="M284.92929,140.59843a.39149.39149,0,0,1-.20789-.63472c.09805-.11557,2.43873-2.81875,5.614-2.26071a.39157.39157,0,1,1-.13547.77134c-2.7385-.48118-4.86068,1.97177-4.88189,1.99663A.39165.39165,0,0,1,284.92929,140.59843Z" fill="#160b07"/><path d="M295.21273,137.70343a.3917.3917,0,0,1-.04894-.7477,7.55715,7.55715,0,0,1,4.73432-.07463.39162.39162,0,0,1-.26059.73862,6.83562,6.83562,0,0,0-4.19648.06887A.39183.39183,0,0,1,295.21273,137.70343Z" fill="#160b07"/><path d="M285.75649,142.311a4.36519,4.36519,0,0,1,1.095-1.061,4.101,4.101,0,0,1,1.41681-.6381,2.972,2.972,0,0,1,1.56663.06438,3.045,3.045,0,0,1,1.29384.81912,4.71292,4.71292,0,0,0-1.368-.52718,3.44118,3.44118,0,0,0-1.4084.026A7.10472,7.10472,0,0,0,285.75649,142.311Z" fill="#160b07"/><circle cx="288.7403" cy="141.62969" r="0.87833" fill="#160b07"/><circle cx="297.13511" cy="140.93652" r="0.87833" fill="#160b07"/><path d="M294.719,141.45052a4.36233,4.36233,0,0,1,1.09505-1.06113,4.09706,4.09706,0,0,1,1.41679-.63792,2.97014,2.97014,0,0,1,1.56663.0642,3.04351,3.04351,0,0,1,1.29384.8193,4.70752,4.70752,0,0,0-1.368-.52718,3.444,3.444,0,0,0-1.4084.02586A7.10506,7.10506,0,0,0,294.719,141.45052Z" fill="#160b07"/><path d="M278.31208,140.55222a1.81267,1.81267,0,0,1,.35824-1.03545.976.976,0,0,1,.53657-.36542.8979.8979,0,0,1,.68141.114,1.99977,1.99977,0,0,1,.73254.87654,3.247,3.247,0,0,1,.2985,1.02635c-.25164-.26216-.45384-.53876-.66571-.79165a2.73959,2.73959,0,0,0-.64184-.62651.487.487,0,0,0-.63013.06919A4.66589,4.66589,0,0,0,278.31208,140.55222Z" fill="#dd765e"/><path d="M279.74877,143.20985a5.51377,5.51377,0,0,0,.04089-.95858c-.01157-.30924-.03364-.616-.07152-.92327-.058-.61867-.17051-1.23341-.19252-1.91984a3.308,3.308,0,0,1,.50654.87654,3.92737,3.92737,0,0,1,.24109.98516,3.18719,3.18719,0,0,1-.05176,1.02635A1.78362,1.78362,0,0,1,279.74877,143.20985Z" fill="#dd765e"/><circle cx="279.30177" cy="145.38026" r="1.74339" fill="#ffba55"/><path d="M290.16485,130.9308c-.96958.79514-5.97441,8.66534-7.77814,9.54577a1.11286,1.11286,0,0,1-.65948.13395c-.70552-.10318-.9898-1.01692-1.77409-2.3027-.5927-.97168-.85057-1.13877-1.19606-1.68314a7.855,7.855,0,0,1-.35406-7.08637,8.32237,8.32237,0,0,1,4.5762-4.03806,12.15388,12.15388,0,0,1,9.08821.16723c6.05144,2.3422,8.635,8.33319,8.42116,8.50948C300.23717,134.38418,295.13617,126.85387,290.16485,130.9308Z" fill="#160b07"/><path d="M281.59133,158.64039s5.6235,18.12018,9.99734,18.745,5.31108-17.80776,5.31108-17.80776,10.62218.62483,15.62085,3.749S333.14011,180.822,333.14011,180.822l-8.74767,8.74767-14.996-5.6235a164.40951,164.40951,0,0,0-1.8745,29.992l-34.55354.31242s-.27735-19.24673-3.56132-30.30444c-.25157-.84708-16.87051,2.49934-16.87051,2.49934l-15.62085-3.749s27.49269-18.745,28.74236-19.36984S276.28024,158.95281,281.59133,158.64039Z" fill="#ffba55"/><path d="M297.21217,191.75658s5.76294,3.749,10.37947,0" fill="#e6952a"/><path d="M277.84232,191.75658s5.76294,3.749,10.37948,0" fill="#e6952a"/><path d="M270.96915,214.2506S255.8373,293.75444,254.893,305.15141s-13.241,35.99042-13.241,35.99042,28.47466,3.599,41.38011.89976,34.79962,1.00387,34.79962,1.00387-3.599-19.59892-3.599-34.59493,1.27466-69.05662-6.71071-94.51235Z" fill="#ffba55"/><path d="M252.53656,186.4455l9.65993,16.28316,11.30535,4.70232s.24157,11.64333-3.50743,10.89353l-13.49641-10.166L238.74835,191.485a7.82366,7.82366,0,0,1-1.83264-8.78852h0Z" fill="#f9977a"/><path d="M324.39244,189.56966l-8.81016,14.05876-10.10444,4.37384s1.40676,8.52273,4.70588,11.372l10.4972-10.4972,16.06484-14.17687c2.59034-2.28593,3.16694-4.72572.683-8.87273-1.23361-2.05958-1.45256-2.43323-4.2887-5.00544Z" fill="#f9977a"/><path d="M294.96968,218.35906l.25836,23.33106c.11322,7.77588.20957,15.55175.41376,23.3247.17068,7.77344.40527,15.54541.76932,23.311.19983,3.88135.39227,7.76465.72366,11.63623a107.044,107.044,0,0,0,1.38843,11.57129c-1.58161-7.626-2.07413-15.42627-2.592-23.18164-.46387-7.76856-.69361-15.54639-.9133-23.32276-.15207-7.77783-.25791-15.55664-.26825-23.33544Q294.72494,230.02532,294.96968,218.35906Z" fill="#e6952a"/><path d="M284.62813,241.6325q-.11276,6.79834-.54242,13.58789c-.27759,4.52539-.67914,9.04248-1.1258,13.55615-.51229,4.50635-1.09668,9.0083-1.89871,13.47608a55.7756,55.7756,0,0,1-3.70645,13.06933c.36795-1.07373.8306-2.10937,1.11719-3.20459.275-1.09814.62106-2.17431.83649-3.28613.22988-1.10742.4873-2.208.70053-3.31787l.57867-3.34277q1.0518-6.70386,1.75174-13.46045c.49768-4.5.88928-9.01123,1.26913-13.52442l.528-6.77392C284.31309,246.1535,284.48766,243.89422,284.62813,241.6325Z" fill="#e6952a"/><path d="M288.22179,257.99773l.04864,7.70459-.01172,7.70411-.11172,15.40625-.50321,30.80908c-.18615-5.13477-.19647-10.27295-.205-15.40869l.08413-15.40723.25742-15.40576Q287.93989,265.69793,288.22179,257.99773Z" fill="#e6952a"/><path d="M290.16485,149.50918s2.68452,3.78487,5.20871,0" fill="#dd2f22"/></g><path d="M331.8849,195.43914H243.33949V113.19988H331.8849Zm-84.54541-4H327.8849V117.19988H247.33949Z" fill="#4f66d0"/><path d="M277.961,212.551a.40448.40448,0,0,1-.11761,0l-2.09133-.46223a4.8413,4.8413,0,1,1,2.27061-2.27062l.46224,2.09131a.53587.53587,0,0,1-.14416.49881.55119.55119,0,0,1-.37975.14273Zm-4.30314-8.60627a3.76534,3.76534,0,1,0,1.77182,7.08654.53992.53992,0,0,1,.3586-.05056l1.45554.31521-.31522-1.43438a.56617.56617,0,0,1,.05057-.35861,3.76149,3.76149,0,0,0-3.32131-5.5582Zm0,0" fill="#f9e0c0"/><path d="M301.6359,204.81639a.54613.54613,0,0,0-.44952-.29565l-8.77135-.57379a.54828.54828,0,0,0-.40275.96521l3.57467,3.055.26279,4.97812a.56085.56085,0,0,0,.41261.504.526.526,0,0,0,.1356,0,.54924.54924,0,0,0,.46818-.26277l4.75112-7.83173A.548.548,0,0,0,301.6359,204.81639Zm-2.4538.67445-2.98553,1.55569-2.214-1.89754Zm-2.3317,5.6044-.16384-3.06728,2.96732-1.54755Z" fill="#f9e0c0"/><path d="M249.65785,212.90008a.49736.49736,0,0,1-.33935-.13281l-.14063-.12989a34.92091,34.92091,0,0,1-3.35986-3.39746,6.14292,6.14292,0,0,1-1.65381-3.76855,2.8226,2.8226,0,0,1,.92871-2.085,3.18556,3.18556,0,0,1,2.17188-.83789,2.99034,2.99034,0,0,1,1.8413.55371l.001.001a3.14593,3.14593,0,0,1,.55078.52735,3.14628,3.14628,0,0,1,.55078-.52735,2.98812,2.98812,0,0,1,1.8418-.55468,3.18464,3.18464,0,0,1,2.17187.83789,2.82078,2.82078,0,0,1,.92872,2.085,6.14078,6.14078,0,0,1-1.65381,3.76855,34.9122,34.9122,0,0,1-3.35889,3.39746l-.14111.12989A.4974.4974,0,0,1,249.65785,212.90008Zm-2.39306-9.35156a2.18532,2.18532,0,0,0-1.49268.57226,1.83189,1.83189,0,0,0-.60791,1.35059,5.22952,5.22952,0,0,0,1.43115,3.13965,32.25043,32.25043,0,0,0,3.0625,3.10839,32.13651,32.13651,0,0,0,3.062-3.10839,5.22719,5.22719,0,0,0,1.43116-3.13965,1.83031,1.83031,0,0,0-.60791-1.35059,2.18445,2.18445,0,0,0-1.49268-.57226,1.97334,1.97334,0,0,0-1.24707.35839,2.86283,2.86283,0,0,0-.71777.85059.52022.52022,0,0,1-.85547,0,2.87454,2.87454,0,0,0-.71826-.85059A1.97152,1.97152,0,0,0,247.26479,203.54852Z" fill="#f9e0c0"/></svg>