<svg id="Layer_1" data-name="Layer 1" xmlns="http://www.w3.org/2000/svg" viewBox="0 0 700 550"><title>product review</title><path d="M121.11714,470.36a116.95271,116.95271,0,0,1-1.61374-16.68115,123.00914,123.00914,0,0,1,.66082-16.76709,89.4748,89.4748,0,0,1,3.42838-16.4292,72.55679,72.55679,0,0,1,3.06016-7.8208,59.7123,59.7123,0,0,1,4.18762-7.26172,62.893,62.893,0,0,0-6.77448,15.22949c-.76939,2.67432-1.46322,5.37061-2.0028,8.10205q-.78914,4.1001-1.2595,8.25342a131.44266,131.44266,0,0,0-.807,16.68408q.03874,4.1814.323,8.35791C120.49632,464.81072,120.73269,467.59393,121.11714,470.36Z" fill="#50661a"/><path d="M121.11714,428.52355S91.735,432.22407,78.94786,419.616c-9.4892-9.35633-.46339-25.45988,12.5413-22.55062C100.1955,399.013,110.934,406.75183,121.11714,428.52355Z" fill="#5e7c24"/><path d="M121.11714,428.52361c-4.12452-1.25537-8.18412-2.72558-12.18036-4.353q-5.99156-2.44776-11.74846-5.4419-2.86311-1.51758-5.61831-3.2334a56.557,56.557,0,0,1-5.3357-3.689,39.86177,39.86177,0,0,1-4.80045-4.36621,19.323,19.323,0,0,1-3.52769-5.41065A19.15812,19.15812,0,0,0,81.664,407.2243a39.97141,39.97141,0,0,0,4.87059,4.188,82.16112,82.16112,0,0,0,10.95468,6.74755c3.78482,2.03662,7.6976,3.83155,11.63887,5.55616q2.95782,1.292,5.96033,2.48193C117.08233,427.01092,119.089,427.79559,121.11714,428.52361Z" fill="#50661a"/><path d="M89.25632,413.66619l.02874-4.33447c-.008-1.44092.00039-2.8794-.08155-4.313a37.69051,37.69051,0,0,0-.38086-4.27441l-.19936-1.04981c-.07085-.34961-.19373-.68164-.28558-1.02637a7.58176,7.58176,0,0,0-.38748-.99267,8.68285,8.68285,0,0,0-.57707-.90625,7.2983,7.2983,0,0,1,1.936,3.88037,29.11721,29.11721,0,0,1,.53734,4.3418c.02895,1.45507.03,2.9082-.06834,4.35644A36.45072,36.45072,0,0,1,89.25632,413.66619Z" fill="#50661a"/><path d="M75.42841,413.66619c1.72708-.30029,3.43062-.54834,5.09576-.93164a15.3799,15.3799,0,0,0,2.41646-.76074,3.49381,3.49381,0,0,0,1.888-1.59131,3.03042,3.03042,0,0,1-1.65841,2.03857,9.86242,9.86242,0,0,1-2.49917.94043A15.88623,15.88623,0,0,1,75.42841,413.66619Z" fill="#50661a"/><path d="M80.7403,421.19451a48.90882,48.90882,0,0,0,6.82074-1.37109,12.78378,12.78378,0,0,0,3.12921-1.34229,4.472,4.472,0,0,0,2.08181-2.59326,4.05088,4.05088,0,0,1-1.79473,3.00586,10.42507,10.42507,0,0,1-3.22991,1.54639A20.25244,20.25244,0,0,1,80.7403,421.19451Z" fill="#50661a"/><path d="M97.1695,418.35906c.48969-1.43554.94261-2.87451,1.34927-4.32324.3979-1.45068.79035-2.90186,1.05-4.37939a25.96345,25.96345,0,0,0,.40212-8.94336,15.06559,15.06559,0,0,1,.68662,4.50976,26.96486,26.96486,0,0,1-.45706,4.55664,35.64332,35.64332,0,0,1-1.21122,4.40479A28.1,28.1,0,0,1,97.1695,418.35906Z" fill="#50661a"/><path d="M92.77206,426.8615c.93673-.24609,1.843-.55322,2.73077-.88134a15.27984,15.27984,0,0,0,2.54168-1.20752,9.36391,9.36391,0,0,0,2.1477-1.74219,7.58262,7.58262,0,0,0,1.34185-2.46387,5.4557,5.4557,0,0,1-.94492,2.77246,7.62685,7.62685,0,0,1-2.21347,1.98584,10.63209,10.63209,0,0,1-2.71841,1.13135A10.94063,10.94063,0,0,1,92.77206,426.8615Z" fill="#50661a"/><path d="M107.66019,407.32781a14.29325,14.29325,0,0,1,1.38147,3.84278,16.49261,16.49261,0,0,1,.32275,4.10205,13.378,13.378,0,0,1-.86148,4.03027,12.08675,12.08675,0,0,1-2.08327,3.51514,18.344,18.344,0,0,0,1.61489-3.67676,14.66206,14.66206,0,0,0,.68739-3.90527,18.86338,18.86338,0,0,0-.166-3.9795A24.13556,24.13556,0,0,0,107.66019,407.32781Z" fill="#50661a"/><path d="M105.76038,428.52361c1.06791-.53515,2.1175-.99463,3.12439-1.53369a12.45151,12.45151,0,0,0,2.81914-1.94775,5.29009,5.29009,0,0,1-2.51689,2.51611A8.21171,8.21171,0,0,1,105.76038,428.52361Z" fill="#50661a"/><path d="M115.06137,417.24236a14.38176,14.38176,0,0,1,1.00932,4.5669,10.26285,10.26285,0,0,1-.11326,2.36377,4.54649,4.54649,0,0,1-.89606,2.1831,7.20406,7.20406,0,0,0,.39649-2.23974,20.02072,20.02072,0,0,0-.03-2.271C115.349,420.32342,115.16552,418.80389,115.06137,417.24236Z" fill="#50661a"/><path d="M120.04923,428.37553s-22.8927-18.78642-22.533-36.74038c.2669-13.32346,18.165-17.84521,24.99628-6.40319C127.08583,392.89213,128.85243,406.01021,120.04923,428.37553Z" fill="#c4ce6e"/><path d="M120.04923,428.37566a125.60693,125.60693,0,0,1-5.34383-11.78857q-2.386-6.02271-4.172-12.272-.862-3.12891-1.50387-6.3169a53.83963,53.83963,0,0,1-.96877-6.4292,39.90376,39.90376,0,0,1-.08252-6.50781,18.5973,18.5973,0,0,1,1.58919-6.27637,19.94372,19.94372,0,0,0-1.09986,6.30567,39.95741,39.95741,0,0,0,.358,6.396,83.833,83.833,0,0,0,2.67006,12.56055c1.10814,4.14649,2.497,8.21582,3.92648,12.27051q1.0725,3.04174,2.24988,6.04834C118.42483,424.38348,119.238,426.37713,120.04923,428.37566Z" fill="#8b9d36"/><path d="M108.92476,395.02752c2.031-2.08936,4.121-4.05664,6.1141-6.10938.99407-1.02636,1.953-2.07812,2.853-3.1748a18.33624,18.33624,0,0,0,1.2111-1.73486,7.47349,7.47349,0,0,0,.48734-.939,10.05179,10.05179,0,0,0,.30659-1.0293,7.02212,7.02212,0,0,1-1.37007,4.15674,24.3896,24.3896,0,0,1-2.77046,3.417A33.58182,33.58182,0,0,1,108.92476,395.02752Z" fill="#8b9d36"/><path d="M99.41528,384.98846c1.50448.94629,2.86513,1.97949,4.27869,2.91015a18.67912,18.67912,0,0,0,2.16242,1.24854,3.71677,3.71677,0,0,0,2.40731.40771,2.941,2.941,0,0,1-2.66627.32862,9.116,9.116,0,0,1-2.45312-1.15039A13.04325,13.04325,0,0,1,99.41528,384.98846Z" fill="#8b9d36"/><path d="M97.60274,394.02215c1.94489,1.34228,3.79431,2.72607,5.77414,3.85449a13.84869,13.84869,0,0,0,3.06662,1.36719,4.65528,4.65528,0,0,0,3.28634-.13623,3.95381,3.95381,0,0,1-3.445.90039,10.01767,10.01767,0,0,1-3.40351-1.26319,17.53529,17.53529,0,0,1-2.88585-2.10351A15.78428,15.78428,0,0,1,97.60274,394.02215Z" fill="#8b9d36"/><path d="M110.9596,403.99969c1.35893-.68848,2.68373-1.40967,4.00471-2.12158,1.31091-.73047,2.615-1.4629,3.86789-2.27149a42.60193,42.60193,0,0,0,3.63716-2.5835,27.10767,27.10767,0,0,0,3.2277-3.125,13.77609,13.77609,0,0,1-2.70671,3.70606,23.18578,23.18578,0,0,1-3.62209,2.8457A27.3686,27.3686,0,0,1,110.9596,403.99969Z" fill="#8b9d36"/><path d="M101.763,406.654c.87365.44629,1.72674.86719,2.58407,1.25489a17.591,17.591,0,0,0,2.6061.96533,10.15345,10.15345,0,0,0,2.6805.394,8.65022,8.65022,0,0,0,2.725-.582,5.05326,5.05326,0,0,1-2.649,1.35889,7.32894,7.32894,0,0,1-3.02527-.2085,9.87858,9.87858,0,0,1-2.70936-1.24512A9.24615,9.24615,0,0,1,101.763,406.654Z" fill="#8b9d36"/><path d="M126.183,404.02947a14.11827,14.11827,0,0,1-4.48128,6.83692,15.66777,15.66777,0,0,1-1.694,1.22754c-.29914.17968-.61749.32763-.92446.49218a5.284,5.284,0,0,1-.956.42041,11.0609,11.0609,0,0,1-4.04333.77491,21.53559,21.53559,0,0,0,3.72126-1.48584,16.54507,16.54507,0,0,0,3.25188-2.19288,22.14751,22.14751,0,0,0,2.77537-2.80566A30.01515,30.01515,0,0,0,126.183,404.02947Z" fill="#8b9d36"/><path d="M109.48837,417.22674c1.1965.28662,2.24786.6958,3.31875,1.04492a21.02779,21.02779,0,0,0,3.296.876,3.64491,3.64491,0,0,1-1.803.39746,6.32934,6.32934,0,0,1-1.811-.32617,7.53883,7.53883,0,0,1-1.63369-.79151A5.43581,5.43581,0,0,1,109.48837,417.22674Z" fill="#8b9d36"/><path d="M124.07491,416.22088a9.5034,9.5034,0,0,1-1.04369,2.12549,12.77733,12.77733,0,0,1-1.44858,1.87011,9.19367,9.19367,0,0,1-1.83988,1.53223,4.148,4.148,0,0,1-2.2844.73975,8.90156,8.90156,0,0,0,1.81491-1.36328c.543-.50928,1.07418-1.03614,1.5824-1.59473C121.90214,418.44061,122.89591,417.29168,124.07491,416.22088Z" fill="#8b9d36"/><path d="M119.36124,459.84153s-29.59515,1.06405-41.20628-12.6347c-8.61651-10.16571,1.81018-25.39968,14.50341-21.34165C101.1562,428.58194,111.16139,437.248,119.36124,459.84153Z" fill="#c4ce6e"/><path d="M119.36124,459.84148a125.66823,125.66823,0,0,1-11.80721-5.30175c-3.84969-1.958-7.59939-4.11573-11.24895-6.44043q-2.71664-1.7754-5.30758-3.74073a53.80888,53.80888,0,0,1-4.98062-4.17871,39.92376,39.92376,0,0,1-4.36834-4.8247,18.60415,18.60415,0,0,1-2.96193-5.75733,19.9458,19.9458,0,0,0,3.34826,5.45557,40.02005,40.02005,0,0,0,4.50087,4.55859,83.83713,83.83713,0,0,0,10.3134,7.6499c3.57467,2.37549,7.309,4.50733,11.06371,6.60108q2.81706,1.571,5.68934,3.04639C115.50176,457.92352,117.4306,458.88006,119.36124,459.84148Z" fill="#8b9d36"/><path d="M88.95318,442.20086c.14033-2.91065.40542-5.76856.54127-8.62647.06623-1.42724.08906-2.85058.03815-4.26806a18.31993,18.31993,0,0,0-.23992-2.10205,7.50615,7.50615,0,0,0-.25612-1.02686,10.05048,10.05048,0,0,0-.45134-.97461,7.02277,7.02277,0,0,1,1.7236,4.02344,24.3767,24.3767,0,0,1,.18393,4.395A33.57553,33.57553,0,0,1,88.95318,442.20086Z" fill="#8b9d36"/><path d="M75.18042,440.967c1.75413-.28613,3.45788-.41211,5.13364-.64941a18.77456,18.77456,0,0,0,2.44754-.49512,3.71762,3.71762,0,0,0,2.07453-1.28711,2.94152,2.94152,0,0,1-1.78156,2.01074,9.1148,9.1148,0,0,1-2.60027.76075A13.04877,13.04877,0,0,1,75.18042,440.967Z" fill="#8b9d36"/><path d="M79.79939,448.93914c2.34641-.28076,4.64877-.4668,6.87979-.93115a13.84706,13.84706,0,0,0,3.20381-1.0044,4.65278,4.65278,0,0,0,2.37369-2.27685,3.95423,3.95423,0,0,1-1.987,2.95508A10.00013,10.00013,0,0,1,86.882,448.9865a17.51692,17.51692,0,0,1-3.5556.333A15.75675,15.75675,0,0,1,79.79939,448.93914Z" fill="#8b9d36"/><path d="M96.41605,447.58123c.56308-1.416,1.07931-2.833,1.5986-4.24072.49927-1.41553.99235-2.82764,1.39666-4.2627a42.47933,42.47933,0,0,0,1.01732-4.34375,27.08,27.08,0,0,0,.35213-4.479,13.76955,13.76955,0,0,1,.42291,4.56982,23.19215,23.19215,0,0,1-.83229,4.53028A27.37574,27.37574,0,0,1,96.41605,447.58123Z" fill="#8b9d36"/><path d="M91.27752,455.65691c.95021-.24365,1.86833-.49267,2.76781-.769a17.64122,17.64122,0,0,0,2.59255-1.001,10.15884,10.15884,0,0,0,2.27049-1.47851,8.65726,8.65726,0,0,0,1.65788-2.23926,5.05438,5.05438,0,0,1-1.087,2.77149,7.33227,7.33227,0,0,1-2.40593,1.8457,9.89214,9.89214,0,0,1-2.85527.85937A9.25361,9.25361,0,0,1,91.27752,455.65691Z" fill="#8b9d36"/><path d="M107.84923,437.52947a14.11951,14.11951,0,0,1,1.16453,8.09131,15.69163,15.69163,0,0,1-.45779,2.04151c-.10552.33251-.246.65429-.36742.98046a5.26106,5.26106,0,0,1-.4386.94776,11.06107,11.06107,0,0,1-2.51847,3.25683,21.54243,21.54243,0,0,0,1.80665-3.57666,16.55926,16.55926,0,0,0,.987-3.79589,22.14451,22.14451,0,0,0,.22422-3.94A30.02611,30.02611,0,0,0,107.84923,437.52947Z" fill="#8b9d36"/><path d="M104.06573,458.47137c1.08677-.57715,2.14572-.96582,3.17968-1.4126a20.996,20.996,0,0,0,3.05077-1.52441,3.6458,3.6458,0,0,1-1.08865,1.49121,6.32665,6.32665,0,0,1-1.5736.95361,7.51248,7.51248,0,0,1-1.74884.48779A5.44306,5.44306,0,0,1,104.06573,458.47137Z" fill="#8b9d36"/><path d="M114.33624,448.06463a9.50722,9.50722,0,0,1,.624,2.28418,12.75948,12.75948,0,0,1,.15145,2.36084,9.18834,9.18834,0,0,1-.36543,2.36621,4.14639,4.14639,0,0,1-1.22322,2.06641,8.91333,8.91333,0,0,0,.45875-2.22315c.07-.74121.11945-1.48779.131-2.24267C114.176,451.16668,114.1608,449.64764,114.33624,448.06463Z" fill="#8b9d36"/><path d="M121.10931,430.51151s29.53662,2.14316,41.63983-11.12283c8.98168-9.84456-.88224-25.44881-13.71509-21.85661C140.44276,399.937,130.128,408.23224,121.10931,430.51151Z" fill="#5e7c24"/><path d="M121.10931,430.51141c1.98687-.834,3.94927-1.72364,5.89739-2.64063q2.93264-1.35206,5.82089-2.79346c3.84464-1.93066,7.65714-3.92968,11.32909-6.16357a82.16839,82.16839,0,0,0,10.58291-7.31641,40.00368,40.00368,0,0,0,4.64257-4.43945,19.1671,19.1671,0,0,0,3.47818-5.38623,19.318,19.318,0,0,1-3.237,5.58936,39.85007,39.85007,0,0,1-4.56306,4.61377,56.50618,56.50618,0,0,1-5.13338,3.96582q-2.65847,1.85742-5.43967,3.52539-5.57844,3.29881-11.44456,6.05517C129.138,427.3576,125.16175,429.04021,121.10931,430.51141Z" fill="#50661a"/><path d="M152.14076,413.99187a36.445,36.445,0,0,1-.74919-4.28466c-.1747-1.44092-.25044-2.89258-.2984-4.34717a29.111,29.111,0,0,1,.30724-4.36377,7.29978,7.29978,0,0,1,1.72825-3.97754,8.64028,8.64028,0,0,0-.52838.936,7.57053,7.57053,0,0,0-.33452,1.01123c-.07348.34961-.17866.6875-.231,1.04l-.14361,1.05908a37.686,37.686,0,0,0-.15454,4.28857c-.00608,1.436.07833,2.87207.14641,4.311Z" fill="#50661a"/><path d="M165.94937,413.26141a15.87889,15.87889,0,0,1-5.25143-.02784,9.86443,9.86443,0,0,1-2.54535-.80664,3.03228,3.03228,0,0,1-1.76378-1.94775,3.49354,3.49354,0,0,0,1.96941,1.48877,15.31343,15.31343,0,0,0,2.45327.63184C162.49457,412.8952,164.20882,413.05242,165.94937,413.26141Z" fill="#50661a"/><path d="M161.0426,421.05975a20.25783,20.25783,0,0,1-7.03721-.3833,10.44,10.44,0,0,1-3.30706-1.373,4.05322,4.05322,0,0,1-1.951-2.90772,4.47156,4.47156,0,0,0,2.21591,2.48,12.79255,12.79255,0,0,0,3.19576,1.1753A48.8889,48.8889,0,0,0,161.0426,421.05975Z" fill="#50661a"/><path d="M144.48656,419.09637a28.081,28.081,0,0,1-2.03774-4.07325,35.64382,35.64382,0,0,1-1.44221-4.33447,26.96945,26.96945,0,0,1-.69713-4.52636,15.066,15.066,0,0,1,.44742-4.53956,25.96312,25.96312,0,0,0,.874,8.90967c.3373,1.46143.80586,2.89014,1.27985,4.31787Q143.63472,416.98822,144.48656,419.09637Z" fill="#50661a"/><path d="M149.327,427.35418a10.94753,10.94753,0,0,1-2.90257-.25195,10.62,10.62,0,0,1-2.7744-.98633,7.61851,7.61851,0,0,1-2.31529-1.86621,5.45362,5.45362,0,0,1-1.09-2.71875,7.582,7.582,0,0,0,1.47012,2.38965,9.35987,9.35987,0,0,0,2.23674,1.62646,15.25082,15.25082,0,0,0,2.60191,1.07129C147.45735,426.89959,148.3786,427.15838,149.327,427.35418Z" fill="#50661a"/><path d="M133.42773,408.63445a24.14778,24.14778,0,0,0-.6869,3.97071,18.86087,18.86087,0,0,0,.04442,3.98242,14.65792,14.65792,0,0,0,.89273,3.86328,18.34073,18.34073,0,0,0,1.80688,3.58691,12.09771,12.09771,0,0,1-2.26606-3.40039,13.38017,13.38017,0,0,1-1.07319-3.979,16.49655,16.49655,0,0,1,.1056-4.11377A14.29385,14.29385,0,0,1,133.42773,408.63445Z" fill="#50661a"/><path d="M136.44463,429.70037a8.21157,8.21157,0,0,1-3.47284-.7832,5.28816,5.28816,0,0,1-2.6463-2.3794,12.44718,12.44718,0,0,0,2.91809,1.7959C134.27756,428.819,135.34993,429.22234,136.44463,429.70037Z" fill="#50661a"/><path d="M126.56065,418.926c-.0215,1.56494-.12444,3.09228-.12275,4.61621a20.02362,20.02362,0,0,0,.09,2.26953,7.20239,7.20239,0,0,0,.51423,2.21533,4.54434,4.54434,0,0,1-1.01011-2.13232,10.26367,10.26367,0,0,1-.238-2.3545A14.385,14.385,0,0,1,126.56065,418.926Z" fill="#50661a"/><path d="M119.98578,459.50528s29.53662,2.14316,41.63984-11.12284c8.98167-9.84455-.88225-25.4488-13.71509-21.8566C139.31923,428.93074,129.00451,437.226,119.98578,459.50528Z" fill="#8b9d36"/><path d="M119.98578,459.50506c1.96443-.89014,3.92689-1.77588,5.8622-2.72022q2.92078-1.37475,5.79669-2.83642c3.82864-1.95508,7.63824-3.94971,11.29721-6.19336a83.75859,83.75859,0,0,0,10.58565-7.26856,39.93783,39.93783,0,0,0,4.66418-4.39111,19.94309,19.94309,0,0,0,3.54509-5.32959,18.60229,18.60229,0,0,1-3.17,5.64551,39.88889,39.88889,0,0,1-4.54146,4.66162,53.81807,53.81807,0,0,1-5.12977,3.99463q-2.65922,1.86694-5.44054,3.54443c-3.73193,2.18994-7.55786,4.20947-11.47642,6.02588A125.63373,125.63373,0,0,1,119.98578,459.50506Z" fill="#5e7c24"/><path d="M151.01723,442.98553a33.5719,33.5719,0,0,1-1.22551-8.62989,24.37446,24.37446,0,0,1,.34416-4.38525,7.024,7.024,0,0,1,1.86925-3.958,10.02575,10.02575,0,0,0-.48661.958,7.475,7.475,0,0,0-.29339,1.0166,18.29914,18.29914,0,0,0-.31645,2.0918c-.10262,1.415-.13173,2.83789-.11762,4.2666C150.82254,437.20672,150.98318,440.07244,151.01723,442.98553Z" fill="#5e7c24"/><path d="M164.82584,442.25506a13.05115,13.05115,0,0,1-5.28278.14746,9.11047,9.11047,0,0,1-2.57077-.85547,2.94,2.94,0,0,1-1.707-2.07422,3.719,3.719,0,0,0,2.02617,1.36231,18.6693,18.6693,0,0,0,2.42785.58349C161.3853,441.71746,163.08331,441.90545,164.82584,442.25506Z" fill="#5e7c24"/><path d="M159.91907,450.0534a15.74833,15.74833,0,0,1-3.5385.25146,17.55454,17.55454,0,0,1-3.54111-.46191,10.0087,10.0087,0,0,1-3.33778-1.42822,3.95246,3.95246,0,0,1-1.87792-3.02491,4.65467,4.65467,0,0,0,2.289,2.36182,13.85226,13.85226,0,0,0,3.165,1.12061C155.29044,449.41766,157.58447,449.68768,159.91907,450.0534Z" fill="#5e7c24"/><path d="M143.363,448.09a27.37337,27.37337,0,0,1-3.65257-8.36426,23.199,23.199,0,0,1-.66643-4.5581,13.76534,13.76534,0,0,1,.58934-4.55079,27.0798,27.0798,0,0,0,.18851,4.48829,42.46391,42.46391,0,0,0,.85814,4.37793c.35168,1.44921.79291,2.87841,1.24022,4.311C142.38779,445.2199,142.852,446.655,143.363,448.09Z" fill="#5e7c24"/><path d="M148.20348,456.34783a9.25169,9.25169,0,0,1-2.93819-.11816,9.90094,9.90094,0,0,1-2.822-.96289,7.32746,7.32746,0,0,1-2.337-1.93262,5.052,5.052,0,0,1-.98512-2.80908,8.65405,8.65405,0,0,0,1.57506,2.29834,10.16379,10.16379,0,0,0,2.215,1.56006,17.64238,17.64238,0,0,0,2.55431,1.09521C146.35437,455.78777,147.2628,456.07,148.20348,456.34783Z" fill="#5e7c24"/><path d="M132.3042,437.62811a30.01609,30.01609,0,0,0-.54594,3.98828,22.14209,22.14209,0,0,0,.08032,3.94531,16.56171,16.56171,0,0,0,.84779,3.82959,21.54835,21.54835,0,0,0,1.675,3.64014,11.06306,11.06306,0,0,1-2.398-3.34668,5.27679,5.27679,0,0,1-.40372-.96289c-.10945-.33057-.23808-.65772-.3314-.99366a15.6703,15.6703,0,0,1-.383-2.05664A14.11908,14.11908,0,0,1,132.3042,437.62811Z" fill="#5e7c24"/><path d="M135.32111,458.694a5.42422,5.42422,0,0,1-1.818-.0708,7.5425,7.5425,0,0,1-1.72989-.55078,6.33441,6.33441,0,0,1-1.53776-1.01074,3.64787,3.64787,0,0,1-1.03349-1.53027,20.926,20.926,0,0,0,2.9931,1.63476C133.21205,457.65057,134.25609,458.07781,135.32111,458.694Z" fill="#5e7c24"/><path d="M125.43712,447.91961c.11757,1.58838.047,3.106.055,4.6167-.016.75488.00624,1.50293.04911,2.24609a8.91356,8.91356,0,0,0,.37734,2.23828,4.1467,4.1467,0,0,1-1.147-2.10937,9.19087,9.19087,0,0,1-.27885-2.37793,12.75769,12.75769,0,0,1,.23747-2.354A9.50922,9.50922,0,0,1,125.43712,447.91961Z" fill="#5e7c24"/><path d="M129.85574,406.9942s-8.18919-28.45949,2.29519-43.03865c7.78036-10.81905,25.08358-4.3857,24.21547,8.91213C155.78522,381.77027,149.79579,393.57415,129.85574,406.9942Z" fill="#8b9d36"/><path d="M129.85574,406.99432a125.56476,125.56476,0,0,1,2.28934-12.73877c.96886-4.209,2.15591-8.36914,3.52882-12.47266q1.06563-3.06519,2.34629-6.05469a53.85386,53.85386,0,0,1,2.85054-5.84326,39.89291,39.89291,0,0,1,3.625-5.40527,18.59732,18.59732,0,0,1,4.87027-4.2666,19.94866,19.94866,0,0,0-4.484,4.56836,39.93549,39.93549,0,0,0-3.33476,5.46972,83.82273,83.82273,0,0,0-4.929,11.85694c-1.44054,4.043-2.60634,8.18212-3.73007,12.332q-.84311,3.11279-1.57977,6.25683C130.78348,402.78533,130.32184,404.88836,129.85574,406.99432Z" fill="#5e7c24"/><path d="M139.61972,373.22283c2.85782-.56787,5.695-1.00146,8.50111-1.561,1.40084-.28076,2.78739-.60254,4.15081-.99512a18.21244,18.21244,0,0,0,1.98159-.74121,7.47076,7.47076,0,0,0,.93424-.49658,10.04,10.04,0,0,0,.83659-.67383,7.021,7.021,0,0,1-3.487,2.64551,24.3474,24.3474,0,0,1-4.22014,1.24121A33.57661,33.57661,0,0,1,139.61972,373.22283Z" fill="#5e7c24"/><path d="M137.4864,359.56023c.70183,1.63282,1.236,3.25586,1.87165,4.82422a18.69345,18.69345,0,0,0,1.072,2.25537,3.7172,3.7172,0,0,0,1.75093,1.70166,2.94074,2.94074,0,0,1-2.38188-1.24267,9.10308,9.10308,0,0,1-1.36724-2.33887A13.04634,13.04634,0,0,1,137.4864,359.56023Z" fill="#5e7c24"/><path d="M130.86768,365.9699c.8397,2.209,1.57719,4.39795,2.56707,6.45069a13.85273,13.85273,0,0,0,1.74929,2.86572,4.654,4.654,0,0,0,2.78332,1.75293,3.9536,3.9536,0,0,1-3.34755-1.21387,9.99953,9.99953,0,0,1-2.08558-2.97119,17.53867,17.53867,0,0,1-1.18255-3.36963A15.76663,15.76663,0,0,1,130.86768,365.9699Z" fill="#5e7c24"/><path d="M136.20377,381.76531c1.50976.2041,3.00967.36231,4.50135.52539,1.49407.14209,2.98345.2793,4.47388.32471a42.47692,42.47692,0,0,0,4.46089-.06348,27.09463,27.09463,0,0,0,4.43088-.74121,13.7667,13.7667,0,0,1-4.33157,1.51514,23.214,23.214,0,0,1-4.59743.28809A27.385,27.385,0,0,1,136.20377,381.76531Z" fill="#5e7c24"/><path d="M127.125,378.73211c.46622.86279.9298,1.69385,1.41559,2.49951a17.58024,17.58024,0,0,0,1.59819,2.27344,10.15516,10.15516,0,0,0,1.98345,1.8457,8.65818,8.65818,0,0,0,2.57406,1.06738,5.05266,5.05266,0,0,1-2.95221-.38476,7.32707,7.32707,0,0,1-2.37283-1.88818,9.88255,9.88255,0,0,1-1.52431-2.5625A9.25421,9.25421,0,0,1,127.125,378.73211Z" fill="#5e7c24"/><path d="M148.72179,390.4284a14.11718,14.11718,0,0,1-7.56966,3.08642,15.732,15.732,0,0,1-2.09135.04981c-.34816-.02246-.69449-.08057-1.04049-.11963a5.25682,5.25682,0,0,1-1.02566-.19629,11.05755,11.05755,0,0,1-3.76917-1.65625,21.56885,21.56885,0,0,0,3.90731.88818,16.54638,16.54638,0,0,0,3.922.03956,22.17367,22.17367,0,0,0,3.87732-.73487A30.08162,30.08162,0,0,0,148.72179,390.4284Z" fill="#5e7c24"/><path d="M127.48655,391.82146c.82252.915,1.45606,1.84815,2.13967,2.74366a20.95035,20.95035,0,0,0,2.21686,2.59131,3.64562,3.64562,0,0,1-1.71031-.69532,6.34613,6.34613,0,0,1-1.30606-1.29638,7.53136,7.53136,0,0,1-.89584-1.57911A5.43211,5.43211,0,0,1,127.48655,391.82146Z" fill="#5e7c24"/><path d="M140.06783,399.27068a9.524,9.524,0,0,1-2.0655,1.15772,12.76066,12.76066,0,0,1-2.254.71777,9.19091,9.19091,0,0,1-2.3845.21778,4.1479,4.1479,0,0,1-2.30072-.6875,8.9117,8.9117,0,0,0,2.26785-.09229c.73614-.11133,1.47267-.24414,2.208-.415C137.01924,399.86492,138.48947,399.48309,140.06783,399.27068Z" fill="#5e7c24"/><path d="M100.15047,462.79361v5.34632a1.85289,1.85289,0,0,0,1.83439,1.87085h36.75276a1.85289,1.85289,0,0,0,1.83438-1.87085v-4.927a1.85339,1.85339,0,0,0-1.81386-1.87074l-36.75276-.41935A1.8524,1.8524,0,0,0,100.15047,462.79361Z" fill="#d6694b"/><polygon points="101.905 470.011 103.212 497.605 136.646 497.605 138.818 470.011 101.905 470.011" fill="#e19974"/><path d="M509.62363,419.94383c41.26959-70.16556,64.609-149.93366-24.36966-202.26864S212.19153,276.1034,170.92193,346.269s75.90294,73.16323,164.88161,125.49822S468.354,490.1094,509.62363,419.94383Z" fill="#efedef"/><path d="M516.75293,431.63934l-.94727-.5586c26.8418-45.63574,39.83106-83.82226,39.71094-116.74219-.15332-42.05273-22.34765-76.38281-65.9668-102.03906-30.19824-17.76074-72.541-19.83887-122.44628-6.00195C284.23291,229.27312,188.58057,295.81805,158.23,351.61l-.96582-.52539c14.17578-26.05957,44.34766-56.60742,82.77783-83.80957,40.27393-28.50684,85.29444-50.53906,126.76758-62.03809,50.19922-13.915,92.835-11.80176,123.29883,6.11524,23.08594,13.57812,40.36816,29.64257,51.36426,47.74511,9.97461,16.419,15.07031,35.00391,15.14355,55.23633C556.7373,347.4577,543.69824,385.82781,516.75293,431.63934Z" fill="#efedef"/><polygon points="487.6 394.393 427.337 394.393 427.337 360.748 487.49 360.748 487.6 394.393" fill="#935b50"/><rect x="413.96107" y="275.37884" width="86.43296" height="81.79227" rx="7.25109" fill="#d6694b"/><rect x="408.74028" y="384.4352" width="96.87453" height="9.95816" rx="1.61135" fill="#d6694b"/><rect x="415.12124" y="394.39336" width="83.82257" height="6.28428" rx="1.61135" fill="#935b50"/><rect x="452.24681" y="400.67764" width="9.28139" height="62.6494" fill="#d6694b"/><polygon points="461.528 468.303 521.04 489.27 521.04 481.729 461.528 463.327 452.247 463.327 392.687 481.729 392.687 489.27 452.247 468.303 461.528 468.303" fill="#935b50"/><rect x="450.07148" y="461.00669" width="13.63204" height="9.86148" rx="1.61135" fill="#e19974"/><rect x="585.1726" y="352.76133" width="9.13711" height="144.93568" fill="#935b50"/><rect x="337.22121" y="345.75362" width="274.58175" height="7.00771" rx="1.57523" fill="#935b50"/><rect x="355.44336" y="352.76133" width="9.13711" height="144.93568" fill="#935b50"/><path d="M348.1545,352.76133H601.49443a0,0,0,0,1,0,0V370.9208a3.15046,3.15046,0,0,1-3.15046,3.15046H351.305a3.15046,3.15046,0,0,1-3.15046-3.15046V352.76133A0,0,0,0,1,348.1545,352.76133Z" fill="#c38f86"/><path d="M599.18262,345.64422a.56717.56717,0,0,1-.07032-.00488.43735.43735,0,0,1-.3623-.501c.10645-.66113,10.26367-66.50293-18.86035-96.748-11.668-12.11621-28.15235-17.01269-49.01465-14.56054v18.55175a.43653.43653,0,1,1-.87305,0V233.44207a.43683.43683,0,0,1,.38379-.43359c21.32031-2.59571,38.19336,2.375,50.13477,14.77734,29.4248,30.55957,19.19922,96.8252,19.09277,97.49121A.43747.43747,0,0,1,599.18262,345.64422Z" fill="#fec165"/><path d="M508.83646,272.13951h44.75037a22.53075,22.53075,0,0,0-44.75037,0Z" fill="#fec165"/><path d="M575.02029,343.88306h27.66863a0,0,0,0,1,0,0v.997a.87353.87353,0,0,1-.87353.87353H575.89382a.87353.87353,0,0,1-.87353-.87353v-.997a0,0,0,0,1,0,0Z" transform="translate(1177.70921 689.63668) rotate(-180)" fill="#fec165"/><polygon points="570.806 345.769 554.841 345.769 549.462 317.498 576.185 317.498 570.806 345.769" fill="#e19974"/><polygon points="575.571 320.725 576.185 317.498 549.462 317.498 550.076 320.725 575.571 320.725" fill="#d6694b"/><rect x="553.73278" y="332.36682" width="4.76931" height="4.76931" transform="translate(399.58807 -295.18797) rotate(45)" fill="#d6694b"/><rect x="560.4776" y="332.36682" width="4.76931" height="4.76931" transform="translate(401.56358 -299.95728) rotate(45)" fill="#d6694b"/><rect x="567.14474" y="332.36682" width="4.76931" height="4.76931" transform="translate(403.51634 -304.67166) rotate(45)" fill="#d6694b"/><path d="M569.04224,293.70486s1.40188,19.80513-6.81465,24.00238C562.22759,317.70724,559.38305,310.19844,569.04224,293.70486Z" fill="#558031"/><path d="M542.52905,302.21229s13.44186,2.31926,19.69854,15.495C562.22759,317.70724,547.44613,312.68685,542.52905,302.21229Z" fill="#849f4c"/><path d="M547.29518,328.15436s6.8361-10.22708,14.93241-10.44712C562.22759,317.70724,561.00873,325.94192,547.29518,328.15436Z" fill="#a6b862"/><path d="M555.72763,296.52786s9.48512,8.66025,6.5,21.17938C562.22759,317.70724,556.97318,312.13763,555.72763,296.52786Z" fill="#849f4c"/><path d="M562.22759,317.70724s3.33247-12.19879,20.17889-15.32689C582.40648,302.38035,578.61529,313.48755,562.22759,317.70724Z" fill="#a6b862"/><path d="M586.86913,314.51839s-12.85334-5.2989-24.64154,3.18885C562.22759,317.70724,577.89874,319.58871,586.86913,314.51839Z" fill="#849f4c"/><path d="M586.7522,326.85479s-6.20627-9.941-24.52461-9.14755Z" fill="#558031"/><path d="M535.60561,316.09813s16.88044-6.25921,26.84288,1.30982C562.44849,317.408,552.98889,322.61841,535.60561,316.09813Z" fill="#558031"/><path d="M549.448,297.97405s15.06248,10.65325,12.90175,19.74185C562.34974,317.7159,551.89986,309.33731,549.448,297.97405Z" fill="#558031"/><path d="M575.87033,328.31084s-12.41731-2.1199-13.64274-10.6036C562.22759,317.70724,571.30056,318.15662,575.87033,328.31084Z" fill="#849f4c"/><path d="M534.00456,341.77844v.374a3.59762,3.59762,0,0,1-3.59631,3.59631H519.60493a3.59763,3.59763,0,0,1-3.59631-3.59631V327.59458a3.59763,3.59763,0,0,1,3.59631-3.59631h10.80332a3.59762,3.59762,0,0,1,3.59631,3.59631v14.18386Z" fill="#f65b2b"/><path d="M539.95993,327.70955h-5.95534v2.15779H538.881v9.75324h-4.87645v2.15779h5.95534a1.07738,1.07738,0,0,0,1.07889-1.07889v-11.911A1.07749,1.07749,0,0,0,539.95993,327.70955Z" fill="#4f66d0"/><rect x="525.00659" y="331.44441" width="4.46966" height="4.46966" rx="0.71926" fill="#ffba55"/><rect x="526.73535" y="323.99871" width="1.01172" height="7.44531" fill="#e5caf3"/><path d="M486.25035,341.251H426.59913a6.04258,6.04258,0,0,1-6.02447-5.57517l-3.09076-39.83764a6.04257,6.04257,0,0,1,6.02446-6.51h65.83276a6.04257,6.04257,0,0,1,6.02447,6.51l-3.09077,39.83764A6.04258,6.04258,0,0,1,486.25035,341.251Z" fill="#a2aee6"/><ellipse cx="456.42474" cy="315.28961" rx="6.57432" ry="2.39164" fill="#4f66d0"/><rect x="422.08706" y="341.251" width="68.67536" height="4.50262" rx="2.25131" fill="#4f66d0"/><rect x="384.53776" y="481.56851" width="8.84633" height="15.66235" rx="2.01419" fill="#d6694b"/><rect x="520.34258" y="481.56851" width="8.84633" height="15.66235" rx="2.01419" transform="translate(1049.53149 978.79937) rotate(-180)" fill="#d6694b"/><path d="M209.4429,236.89017s-14.25672,89.43812-22.271,103.59012-5.76016,12.94985-2.67972,26.17344,9.79311-11.42037,25.97163,0L226.09457,239.8221Z" fill="#ffba55"/><path d="M271.03121,151.44712s4.284,12.726.87453,33.64863.70185,26.53263,1.31764,31.60835-5.31855,20.93223-20.25,13.004-9.455-40.51974-9.455-40.51974S260.209,134.81022,271.03121,151.44712Z" fill="#1e1d22"/><path d="M268.93121,149.71864l-.76655,11.09483a63.73934,63.73934,0,0,0,.68376,13.46749c.807,5.61169-6.60354,14.47516-9.30275,14.58522v11.16113c-.27478,2.97977-3.668,38.36761-10.06261,38.59806-6.49658.23425-12.4791-35.949-12.90732-38.59806v-26.1037s-9.38554-1.72889-3.95178-10.991a39.92166,39.92166,0,0,0,5.55726-17.78319l10.12647-7.65662Z" fill="#f9977a"/><path d="M288.21414,238.88632l2.98935,6.81216,28.05-6.81216s.66786-5.27608,3.87358-7.81394a20.88381,20.88381,0,0,0,4.83521-5.83227,1.591,1.591,0,0,1,1.20891-.82962c.53428-.05009,1.16875.18367,1.56946,1.319.59845,1.69561-1.3354,4.56427-2.35338,5.90861a1.99318,1.99318,0,0,0-.16945,2.20587c.39285.65951,1.15564,1.16875,2.63542.56768,2.95956-1.20214,8.83672-3.74,8.83672-3.74s8.14787-5.2093,8.14787-2.56687c0,0,3.31848,0,2.52394,1.7117a1.99563,1.99563,0,0,1-.77177.82864l-1.75217,1.0951s2.13714.40071,1.06857,1.60286-13.62431,11.22-22.70718,14.025c0,0-21.82619,13.11406-34.01959,18.29352a12.38677,12.38677,0,0,1-13.07838-2.0868,31.31093,31.31093,0,0,1-5.65844-6.849Z" fill="#f9977a"/><path d="M201.1902,226.52841l-2.01758,5.84629-4.2743-20.67021s2.53787-6.41144,2.53787-8.9493v-6.01072s-2.27072-1.06858-2.53787,1.87-1.06857,6.27787-3.87357,5.07572-1.73643-5.34286-1.73643-5.34286,3.87357,1.33571,4.80857-1.06858c0,0-4.80857-4.00715-6.41143-2.53786a11.32358,11.32358,0,0,0-2.40429,3.20572s-3.60644-11.22-6.67859-10.41859c0,0-1.73643-2.13714,2.53786,10.41859,0,0-6.27786-8.0143-8.28144-6.41144,0,0,.40072,1.87,5.61,9.61716,0,0-5.07572-4.00715-6.27787-2.40429,0,0,.47474,2.255,4.89235,5.42251a5.05265,5.05265,0,0,1,1.41415,1.54046c1.21583,2.06857,3.97852,6.83769,3.97852,7.46277,0,.80143.09746,46.96187,4.21451,50.43291,6.02683,5.08116,18.56618,3.82639,25.07444-15.15539S201.1902,226.52841,201.1902,226.52841Z" fill="#f9977a"/><path d="M233.47786,468.26941l-.57872,16.78663s-46.1816,12.96225-47.09678,7.46226c0,0-3.54937-.06021,20.44111-13.56469a23.20741,23.20741,0,0,0,9.91761-12.35944Z" fill="#f9977a"/><path d="M233.31523,472.987v24.61777H218.3906l-.01218-6.90076s-35.17333,14.16411-32.68143.968c0,0,2.46267,2.31409,12.14276.7058l-3.47094-6.4998,8.6186-5.22353,5.98517,8.81074,16.42815-3.5404a9.3563,9.3563,0,0,0,7.31694-8.01818Z" fill="#f73c4f"/><path d="M231.0398,473.65287c1.29961,0,2.16535-.04371,2.30909-.05166a.61694.61694,0,0,0,.58025-.64914.65458.65458,0,0,0-.64782-.58026c-.15235.00928-15.14883.775-18.27862-4.45257a.61491.61491,0,0,0-1.05584.63059C216.67524,473.10839,226.49979,473.65287,231.0398,473.65287Z" fill="#f73c4f"/><path d="M277.17358,468.26941l.57872,16.78663s46.18161,12.96225,47.09678,7.46226c0,0,3.54937-.06021-20.44111-13.56469a23.20746,23.20746,0,0,1-9.91761-12.35944Z" fill="#f9977a"/><path d="M277.33622,472.987l.17124,24.61777h14.48736l.70739-2.87581s37.66672,6.3898,32.25225-3.05692c0,0-2.46268,2.31409-12.14276.7058l4.18591-6.05894L307.664,480.6545l-5.98518,8.81074-16.19226-3.48956a9.69514,9.69514,0,0,1-7.58192-8.30855Z" fill="#f73c4f"/><path d="M279.61156,473.65287c4.54,0,14.36457-.54448,17.093-5.103a.61491.61491,0,0,0-1.05585-.63059c-3.13177,5.22889-18.12627,4.46185-18.27862,4.45257a.62759.62759,0,0,0-.64782.58026.6165.6165,0,0,0,.58026.64914C277.44622,473.60916,278.31262,473.65287,279.61156,473.65287Z" fill="#f73c4f"/><path d="M266.64478,259.71188s-.29993,12.65318,4.38643,18.27682l-54.83045-.46864s4.83307-10.16254,4.4769-18.598Z" fill="#f9977a"/><path d="M271.03121,277.9887S293.72952,397.24727,295.146,414.34313s19.862,53.9869,19.862,53.9869-42.713,5.39869-62.07162,1.34967-52.20067,1.50584-52.20067,1.50584,5.39869-29.39907,5.39869-51.89361-1.912-103.58738,10.06631-141.77187Z" fill="#ffba55"/><path d="M235.02956,284.152l.27279,17.5.05733,17.50195c-.01552,11.66895-.17427,23.33692-.40239,35.0044-.32953,11.665-.67416,23.33154-1.37,34.98437-.77686,11.63379-1.51568,23.33448-3.88816,34.77344a160.55107,160.55107,0,0,0,2.08269-17.35693c.49713-5.80811.7858-11.6333,1.08553-17.45508.54608-11.64844.898-23.30713,1.154-34.96729.30632-11.66015.45083-23.32373.62068-34.98779Z" fill="#e6952a"/><path d="M250.54227,319.06219c.47741,6.78222.96833,13.56006,1.52948,20.33105.56978,6.76953,1.15719,13.53662,1.90374,20.28662q1.04128,10.13233,2.62769,20.19141l.868,5.01416c.32,1.665.70557,3.31592,1.05118,4.97705.32608,1.6665.84811,3.27979,1.26346,4.92627a20.64973,20.64973,0,0,0,.80191,2.41162l.86484,2.39844c-2.86927-6.18994-4.29007-12.93555-5.55983-19.60449-1.20308-6.70215-2.07968-13.45508-2.84815-20.21485-.67-6.77051-1.27232-13.54638-1.6887-20.335C250.94389,332.65643,250.63347,325.862,250.54227,319.06219Z" fill="#e6952a"/><path d="M245.15164,343.61053c.29883,7.70068.49016,15.40234.66222,23.10449.1745,7.70264.26053,15.40576.38612,23.10889.0511,7.70361.13417,15.40722.12625,23.11181-.02533,7.7041-.00694,15.41114-.30755,23.11377-.028-3.85254-.11611-7.70312-.20017-11.5542l-.21322-11.55322-.34144-23.10791-.1676-23.10986C245.07414,359.0202,245.06392,351.31609,245.15164,343.61053Z" fill="#e6952a"/><path d="M259.14637,197.41232c-.02745,13.31222-3.22407,24.077-8.01452,25.04917-5.24808,1.065-13.73572-9.35386-18.83352-26.652-15.08089.82576-22.55733,5.0622-24.64385,10.01787a123.4637,123.4637,0,0,0-6.61173,19.83539s3.20559,21.43825,13.82458,24.24326l4.20754-6.81216,1.60279,15.82824s18.83352,6.81215,44.6796,4.00715l3.40614-12.62252,3.60643,7.01251s16.42932-8.415,15.82821-19.635l-13.60017-27.87226a22.32713,22.32713,0,0,0-10.739-10.51322C262.48632,198.6686,260.92025,198.02933,259.14637,197.41232Z" fill="#8b9d36"/><path d="M267.76166,214.44256a48.43865,48.43865,0,0,1,2.97159,8.72607,53.69172,53.69172,0,0,1,1.36666,9.13916,41.34386,41.34386,0,0,1-.51388,9.229,33.75741,33.75741,0,0,1-2.82257,8.77l.78213-2.16553c.127-.36084.267-.71729.38285-1.08154l.27981-1.11426c.18436-.7417.41165-1.47217.566-2.21973l.38214-2.25879a43.75906,43.75906,0,0,0,.37921-9.12842,58.23726,58.23726,0,0,0-1.22476-9.07324c-.31964-1.4956-.68481-2.9834-1.11685-4.45263A44.72272,44.72272,0,0,0,267.76166,214.44256Z" fill="#5e7c24"/><path d="M219.07487,243.09393c.85282-1.8877,1.61835-3.8125,2.31659-5.75928.706-1.94336,1.38112-3.89844,1.93012-5.88965a45.06449,45.06449,0,0,0,2.01491-12.14355,12.31665,12.31665,0,0,0-.05034-1.53223,12.50367,12.50367,0,0,0-.13744-1.52393l-.27519-1.50293c-.09433-.501-.25836-.99658-.38411-1.49463a36.89863,36.89863,0,0,0-2.06618-5.80419,15.5738,15.5738,0,0,0-1.55247-2.63965,12.27983,12.27983,0,0,0-2.13475-2.187,28.96257,28.96257,0,0,0-5.35761-3.07958,29.08,29.08,0,0,1,5.5261,2.85986,12.421,12.421,0,0,1,2.24971,2.189,15.98346,15.98346,0,0,1,1.65956,2.665,33.35962,33.35962,0,0,1,2.17135,5.85694c.13164.5039.29892.99365.40126,1.50927l.29746,1.5503a12.955,12.955,0,0,1,.15471,1.56494,12.37424,12.37424,0,0,1,.06311,1.56933,43.79415,43.79415,0,0,1-2.16481,12.26661A74.22681,74.22681,0,0,1,219.07487,243.09393Z" fill="#5e7c24"/><path d="M334.34714,237.48406a27.21244,27.21244,0,0,0-3.21979-.31054,13.70447,13.70447,0,0,0-1.58884.04834,14.57681,14.57681,0,0,0-1.60281.2622,5.37447,5.37447,0,0,1,3.20523-.86621,7.25135,7.25135,0,0,1,1.66068.23975A5.844,5.844,0,0,1,334.34714,237.48406Z" fill="#dd765e"/><path d="M337.41928,237.48406a13.95527,13.95527,0,0,0,1.68036-1.84668,21.51287,21.51287,0,0,0,1.43619-2.03271c.44644-.70264.81549-1.42627,1.35-2.14209a2.24867,2.24867,0,0,1,1.11872-.84473.97093.97093,0,0,1,.80734.1836,1.52626,1.52626,0,0,1,.448.61035,4.60023,4.60023,0,0,1,.07236,2.63427,7.11032,7.11032,0,0,1-1.02863,2.35694,12.58018,12.58018,0,0,1-3.34229,3.75488,11.03522,11.03522,0,0,0,1.64267-1.87353,17.9042,17.9042,0,0,0,1.3303-2.09766,7.675,7.675,0,0,0,.903-2.24854,4.13473,4.13473,0,0,0-.089-2.30859c-.14239-.33691-.36026-.55762-.63318-.49268a1.81746,1.81746,0,0,0-.83847.64649c-.487.60791-.88211,1.38623-1.387,2.05859A14.95593,14.95593,0,0,1,337.41928,237.48406Z" fill="#dd765e"/><path d="M288.21414,254.71453a16.74244,16.74244,0,0,0,1.098-2.12891,15.9097,15.9097,0,0,0,.80906-2.23681,23.44945,23.44945,0,0,0,.54632-2.311,17.96766,17.96766,0,0,0,.25968-2.34472l.04391-1.02393.46582.88135a6.86269,6.86269,0,0,1,.67136,2.30469,10.87764,10.87764,0,0,1,.05954,2.33935,17.79623,17.79623,0,0,1-.32611,2.29981,21.65392,21.65392,0,0,1-.63822,2.22021c.13785-.75732.286-1.50732.37488-2.26611a18.68847,18.68847,0,0,0,.16852-2.271,14.23764,14.23764,0,0,0-.13663-2.25049,6.50175,6.50175,0,0,0-.64011-2.08056l.50962-.14209a16.56594,16.56594,0,0,1-.312,2.42724,16.34576,16.34576,0,0,1-.63424,2.34912A13.717,13.717,0,0,1,288.21414,254.71453Z" fill="#dd765e"/><path d="M201.04276,253.51238c-.27018-1.75146-.47959-3.5083-.67978-5.26562-.2015-1.75733-.35315-3.519-.53217-5.27881-.13414-1.76318-.29221-3.52441-.40388-5.29-.11116-1.76514-.21367-3.53174-.25431-5.30322.271,1.75146.48023,3.5083.68076,5.26562.2,1.75733.35362,3.519.53117,5.27881.13268,1.76367.29271,3.52442.40291,5.29C200.899,249.97479,201.00124,251.7409,201.04276,253.51238Z" fill="#dd765e"/><path d="M270.36255,246.03763s-21.9021-44.08386-38.06422-50.22816c0,0-11.96556-2.13715-16.6017,3.20571,0,0,26.82334,128.831,59.7454,118.41236C275.442,317.42754,268.95136,260.656,270.36255,246.03763Z" fill="#ffba55"/><path d="M245.96191,156.16277a.68578.68578,0,0,1-.34082-1.28125c3.7378-2.13281,7.771-.10058,7.94092-.01367a.68594.68594,0,0,1-.62793,1.21973c-.03515-.01856-3.55127-1.77539-6.63232-.01465A.68.68,0,0,1,245.96191,156.16277Z" fill="#1e1d22"/><path d="M259.5459,156.16277a.68578.68578,0,0,1-.34082-1.28125c3.74023-2.13476,7.772-.10058,7.9414-.01367a.68594.68594,0,0,1-.62793,1.21973c-.03564-.01758-3.5498-1.77735-6.63281-.01465A.68.68,0,0,1,259.5459,156.16277Z" fill="#1e1d22"/><path d="M263.86794,165.17853c2.64875,0,2.65314-4.11647,0-4.11647-2.64875,0-2.65314,4.11647,0,4.11647Z" fill="#1e1d22"/><path d="M249.78963,165.055c2.64875,0,2.65314-4.11646,0-4.11646-2.64875,0-2.65313,4.11646,0,4.11646Z" fill="#1e1d22"/><path d="M257.81674,162.24236a18.12616,18.12616,0,0,1,2.85922,5.6167,8.34338,8.34338,0,0,1,.38276,3.21289,2.81492,2.81492,0,0,1-.63953,1.561,1.99274,1.99274,0,0,1-1.491.61523,2.00162,2.00162,0,0,0,1.17777-.85742,2.6755,2.6755,0,0,0,.32412-1.36377,10.79756,10.79756,0,0,0-.5285-2.94043C259.325,166.12908,258.529,164.22088,257.81674,162.24236Z" fill="#dd765e"/><path d="M259.54565,188.8663s-7.40963-.37844-10.991-3.77055c0,0,4.56928,9.08079,10.991,10.31573Z" fill="#dd765e"/><path d="M274.36493,146.38439s-.1235-5.06325-9.01506-7.28614-10.62048-7.16265-15.74548-5.80422a16.84,16.84,0,0,0-8.33584,5.80422s-16.0955-2.46253-8.29474,23.22053c0,0,5.82486,6.78849,6.44233.73729s1.9759-16.42469,5.31024-19.14156,8.52108,0,10.497,1.48193,14.32529,10.25,15.56023,9.509S276.9583,152.68258,274.36493,146.38439Z" fill="#1e1d22"/><path d="M256.5065,153.91722a1.35782,1.35782,0,0,0,0-2.714,1.35782,1.35782,0,0,0,0,2.714Z" fill="#f73c4f"/><path d="M239.64483,151.44712s-6.23016,11.35184-8.0143,15.7019c-2.12881,5.19042,6.41144,4.96732,6.41144,4.96732s4.00715,3.71484,2.93857,14.13343-4.80857,4.80858-2.13714,20.30289-1.06858,22.945-1.06858,22.945-10.70119,11.89644-21.57406-2.94464c-4.07732-5.5654-5.51247-14.3337-5.7137-23.12009a93.77915,93.77915,0,0,1,12.383-48.24236C230.73923,141.284,240.448,128.43151,239.64483,151.44712Z" fill="#1e1d22"/><path d="M233.82144,174.53918c3.118,0,3.12312-4.84567,0-4.84567-3.118,0-3.12312,4.84567,0,4.84567Z" fill="#ffba55"/><path d="M239.05008,277.5202c.96414,2.46484,2.01353,4.89453,3.103,7.30419q1.6161,3.62256,3.38574,7.17139a122.38478,122.38478,0,0,0,7.85927,13.74414,61.91717,61.91717,0,0,0,4.75785,6.30567,31.88248,31.88248,0,0,0,5.77713,5.32617,12.94126,12.94126,0,0,0,7.27091,2.57373,11.269,11.269,0,0,0,7.16351-2.89258,11.40354,11.40354,0,0,1-7.159,3.16455,13.25113,13.25113,0,0,1-7.51487-2.49072,30.44354,30.44354,0,0,1-5.91852-5.34717,62.02319,62.02319,0,0,1-4.83857-6.33008,115.30394,115.30394,0,0,1-7.7805-13.86621A149.81079,149.81079,0,0,1,239.05008,277.5202Z" fill="#e6952a"/><path d="M261.75094,178.30225s-6.81216,3.85714-10.41859-5.18412" fill="#dd2f22"/><path d="M187.17188,201.95965a7.1693,7.1693,0,0,0-1.96018,2.59912,6.93923,6.93923,0,0,0-.46413,1.54492,14.79363,14.79363,0,0,0-.18034,1.66651,7.7411,7.7411,0,0,1-.205-.84034,6.347,6.347,0,0,1-.0403-.87207,4.57031,4.57031,0,0,1,.37987-1.72119,4.44081,4.44081,0,0,1,1.0047-1.45215A3.82265,3.82265,0,0,1,187.17188,201.95965Z" fill="#dd765e"/><path d="M216.20076,277.5202l-2.88753,21.68554c-.94722,7.22852-1.93382,14.45069-2.7688,21.69092q-1.39093,10.8435-2.46971,21.7207-.30149,2.71656-.53082,5.439c-.15166,1.81494-.35033,3.62744-.4621,5.44531l-.41472,5.45068-.302,5.46094c-.12558-7.29883.30992-14.5957.85679-21.87256.55072-7.27929,1.37717-14.53174,2.219-21.77929.92839-7.2378,1.89926-14.46924,3.02869-21.67676S214.79385,284.67986,216.20076,277.5202Z" fill="#e6952a"/><polygon points="373.318 178.15 348.834 171.099 290.427 180.548 319.634 190.364 373.318 178.15" fill="#b02336"/><polygon points="290.427 180.548 289.449 218.543 319.391 229.133 319.634 190.364 290.427 180.548" fill="#f73c4f"/><rect x="325.46169" y="193.48394" width="45.57076" height="0.78638" transform="translate(145.78032 537.20143) rotate(-88.5768)" fill="#8c1428"/><path d="M328.62909,180.08465a43.72859,43.72859,0,0,0,.3642-6.19727,47.31933,47.31933,0,0,0-.3928-6.16992,40.70324,40.70324,0,0,0-3.251-11.82617,36.47313,36.47313,0,0,0-2.96472-5.36817,40.337,40.337,0,0,0-3.90284-4.74121,35.367,35.367,0,0,0-4.67987-4.01171c-.80887-.645-1.69586-1.17579-2.55847-1.74952-.87384-.55468-1.79257-1.03564-2.68426-1.57324a35.56744,35.56744,0,0,1,10.46154,6.7876,33.4698,33.4698,0,0,1,4.11087,4.77148,37.04862,37.04862,0,0,1,3.127,5.47608,39.12036,39.12036,0,0,1,3.10153,12.15234A40.4352,40.4352,0,0,1,328.62909,180.08465Z" fill="#d6d6d6"/><path d="M378.63684,152.95916q-2.72859,2.16138-5.29694,4.49756-2.58589,2.31445-5.01882,4.78613A95.85071,95.85071,0,0,0,359.27,172.69939c-1.38059,1.84424-2.6843,3.74463-3.89386,5.70362-1.19754,1.96777-2.2543,4.0122-3.26132,6.08252a46.63374,46.63374,0,0,0-3.96619,13.21386,40.07442,40.07442,0,0,1,1.01956-6.89843,50.99664,50.99664,0,0,1,2.24533-6.62793,61.88529,61.88529,0,0,1,7.05719-12.06934,86.34144,86.34144,0,0,1,9.31556-10.40674A80.58346,80.58346,0,0,1,378.63684,152.95916Z" fill="#d6d6d6"/><path d="M337.48547,157.49041c.07285-2.14258.0615-4.28223-.0469-6.4165q-.11856-3.20069-.493-6.37989a68.41329,68.41329,0,0,0-2.534-12.48779,51.68211,51.68211,0,0,0-2.19608-5.96631,47.89478,47.89478,0,0,0-3.034-5.57812,33.74348,33.74348,0,0,0-8.78049-9.16162,30.63023,30.63023,0,0,1,5.18512,3.82666,35.21115,35.21115,0,0,1,4.23151,4.90527,42.66983,42.66983,0,0,1,5.54742,11.6831,64.78558,64.78558,0,0,1,2.12045,25.5752Z" fill="#d6d6d6"/><path d="M367.85794,117.96746c-1.04806.624-2.09079,1.24414-3.10052,1.91748-1.02424.647-2.032,1.31738-3.01291,2.02295a57.61748,57.61748,0,0,0-5.63559,4.50635,29.82053,29.82053,0,0,0-4.71079,5.37939,15.22232,15.22232,0,0,0-1.65991,3.16162,14.04814,14.04814,0,0,0-.9046,3.49219,12.02979,12.02979,0,0,1,.441-3.64844,15.52429,15.52429,0,0,1,1.46914-3.40673,24.29448,24.29448,0,0,1,4.68967-5.71241,38.82842,38.82842,0,0,1,5.88928-4.40966A39.762,39.762,0,0,1,367.85794,117.96746Z" fill="#d6d6d6"/><path d="M315.40067,180.73162l-1.42759-3.73584c-.489-1.23-.98187-2.45166-1.52337-3.6499-.53418-1.20117-1.13037-2.36768-1.75287-3.52588a39.47148,39.47148,0,0,0-2.13754-3.35059,13.93516,13.93516,0,0,1,2.79538,2.93409,22.44178,22.44178,0,0,1,2.00482,3.53369A23.838,23.838,0,0,1,315.40067,180.73162Z" fill="#d6d6d6"/><path d="M358.34576,150.66375c-.87072.89014-1.73846,1.7749-2.56665,2.69775-.84857.90137-1.68081,1.81641-2.479,2.75879a70.29028,70.29028,0,0,0-4.561,5.80762,38.953,38.953,0,0,0-3.72088,6.3252,13.174,13.174,0,0,0-.70111,1.69335,10.85146,10.85146,0,0,0-.5607,1.74561,15.22579,15.22579,0,0,0-.42673,1.792c-.06534.61035-.14386,1.22412-.231,1.84522-.02081-.61817-.033-1.24414-.032-1.87305a15.494,15.494,0,0,1,.21225-1.87109,10.6896,10.6896,0,0,1,.439-1.83448,13.77452,13.77452,0,0,1,.59223-1.79443,29.89552,29.89552,0,0,1,3.61285-6.60156,44.58072,44.58072,0,0,1,4.81449-5.75147A45.47018,45.47018,0,0,1,358.34576,150.66375Z" fill="#d6d6d6"/><path d="M331.38468,95.28449a4.9928,4.9928,0,0,0-4.99023-4.99222,4.9881,4.9881,0,0,0,4.99023-4.98824,4.98972,4.98972,0,0,0,4.98823,4.99025,4.98969,4.98969,0,0,0-4.98823,4.99021Z" fill="#d6d6d6"/><path d="M431.94993,143.08693a4.9928,4.9928,0,0,0-4.99022-4.99222,4.9881,4.9881,0,0,0,4.99022-4.98824,4.98972,4.98972,0,0,0,4.98824,4.99025,4.9897,4.9897,0,0,0-4.98824,4.99021Z" fill="#d6d6d6"/><path d="M405.50123,185.12356a4.9928,4.9928,0,0,0-4.99022-4.99223,4.98809,4.98809,0,0,0,4.99022-4.98823,4.98971,4.98971,0,0,0,4.98824,4.99024,4.9897,4.9897,0,0,0-4.98824,4.99022Z" fill="#d6d6d6"/><path d="M378.25368,116.29646a4.9928,4.9928,0,0,0-4.99023-4.99222,4.9881,4.9881,0,0,0,4.99023-4.98823,4.98971,4.98971,0,0,0,4.98823,4.99024,4.98969,4.98969,0,0,0-4.98823,4.99021Z" fill="#d6d6d6"/><path d="M271.85858,83.68935a4.9928,4.9928,0,0,0-4.99022-4.99223,4.98809,4.98809,0,0,0,4.99022-4.98823,4.98971,4.98971,0,0,0,4.98823,4.99024,4.9897,4.9897,0,0,0-4.98823,4.99022Z" fill="#d6d6d6"/><path d="M294.43934,153.9762a4.9928,4.9928,0,0,0-4.99022-4.99223,4.98809,4.98809,0,0,0,4.99022-4.98823,4.98971,4.98971,0,0,0,4.98824,4.99024,4.9897,4.9897,0,0,0-4.98824,4.99022Z" fill="#d6d6d6"/><path d="M365.28535,62.28344a4.9928,4.9928,0,0,0-4.99022-4.99222,4.98809,4.98809,0,0,0,4.99022-4.98823,4.98971,4.98971,0,0,0,4.98824,4.99024,4.9897,4.9897,0,0,0-4.98824,4.99021Z" fill="#d6d6d6"/><path d="M417.37522,122.73075a1.498,1.498,0,0,0,0-2.99414,1.498,1.498,0,0,0,0,2.99414Z" fill="#d6d6d6"/><path d="M370.66668,88.95688a1.498,1.498,0,0,0,0-2.99414,1.498,1.498,0,0,0,0,2.99414Z" fill="#d6d6d6"/><path d="M408.03351,86.8011a1.498,1.498,0,0,0,0-2.99414,1.498,1.498,0,0,0,0,2.99414Z" fill="#d6d6d6"/><path d="M322.521,58.79028a1.498,1.498,0,0,0,0-2.99413,1.498,1.498,0,0,0,0,2.99413Z" fill="#d6d6d6"/><path d="M244.19432,69.55487a1.498,1.498,0,0,0,0-2.99414,1.498,1.498,0,0,0,0,2.99414Z" fill="#d6d6d6"/><path d="M303.11894,95.42422a1.498,1.498,0,0,0,0-2.99414,1.498,1.498,0,0,0,0,2.99414Z" fill="#d6d6d6"/><path d="M276.531,55.1115a1.498,1.498,0,0,0,0-2.99414,1.498,1.498,0,0,0,0,2.99414Z" fill="#d6d6d6"/><path d="M394.80518,144.584a1.498,1.498,0,0,0,0-2.99414,1.498,1.498,0,0,0,0,2.99414Z" fill="#d6d6d6"/><path d="M303.11894,122.73075a1.498,1.498,0,0,0,0-2.99414,1.498,1.498,0,0,0,0,2.99414Z" fill="#d6d6d6"/><path d="M270.78385,122.73075a1.498,1.498,0,0,0,0-2.99414,1.498,1.498,0,0,0,0,2.99414Z" fill="#d6d6d6"/><path d="M249.94306,104.04733a1.498,1.498,0,0,0,0-2.99414,1.498,1.498,0,0,0,0,2.99414Z" fill="#d6d6d6"/><polygon points="373.318 178.15 374.393 215.973 319.391 229.133 319.634 190.364 373.318 178.15" fill="#f73c4f"/><rect x="300.27548" y="209.12652" width="39.24055" height="0.78638" transform="translate(102.49541 524.11292) rotate(-88.5768)" fill="#b02336"/><path d="M362.69033,98.198l5.075-8.71379L364.468,87.56384l-5.075,8.7138a24.14557,24.14557,0,0,1-1.90841,2.80351l-5.99447,7.59817a5.1634,5.1634,0,0,0-1.02978,2.15171,3.36773,3.36773,0,0,0,5.71886,3.3307,5.16342,5.16342,0,0,0,1.3634-1.95742l3.65089-8.96308A24.14489,24.14489,0,0,1,362.69033,98.198Z" fill="#fec165"/><ellipse cx="371.03048" cy="80.0869" rx="14.25417" ry="12.90426" transform="translate(124.80309 368.96334) rotate(-61.7374)" fill="#fec165"/><ellipse cx="371.03048" cy="80.0869" rx="11.11172" ry="9.98654" transform="translate(125.26978 369.36049) rotate(-61.8299)" fill="#a2aee6"/><path d="M377.82585,71.10757c-.26674-.14337-.53848-.26938-.81314-.38352,4.24768,2.85968,5.50213,8.96406,2.74264,14.098s-8.54286,7.45553-13.27143,5.49051c.24673.1661.50176.32322.7685.4666,4.85892,2.61166,11.16479.32517,14.08456-5.107S382.68478,73.71924,377.82585,71.10757Z" fill="#e6952a"/><path d="M309.89864,68.32527l-3.00154,1.10047a.66546.66546,0,0,1-.85136-.39456l-2.97266-8.10794c-.55954-1.52612.76008-3.53557,1.74243-4.74555a.82762.82762,0,0,1,1.42153.233l4.05616,11.06319A.66546.66546,0,0,1,309.89864,68.32527Z" fill="#f73c4f"/><path d="M306.59463,67.08058h5.42329a.68131.68131,0,0,1,.68131.68131V75.6258a0,0,0,0,1,0,0h-6.78591a0,0,0,0,1,0,0V67.76189a.68131.68131,0,0,1,.68131-.68131Z" transform="translate(-5.6588 110.83298) rotate(-20.13475)" fill="#fec165"/><rect x="307.5548" y="74.87701" width="11.93818" height="15.95946" rx="3.01596" transform="translate(-9.3609 112.98784) rotate(-20.13475)" fill="#a2aee6"/><path d="M313.54969,74.34813l-1.41583.51909a3.02483,3.02483,0,0,1,3.86983,1.79346L319.421,85.9815a3.02483,3.02483,0,0,1-1.79346,3.86983l1.41582-.51909a3.02483,3.02483,0,0,0,1.79346-3.86983l-3.41735-9.32082A3.02482,3.02482,0,0,0,313.54969,74.34813Z" fill="#4f66d0"/><path d="M270.70721,101.787l5.54272-5.53911a1.116,1.116,0,0,0,.07781-.09534.61456.61456,0,0,0-.07753-.77042l-.1731-.17321a.61456.61456,0,0,0-.77037-.078,1.11766,1.11766,0,0,0-.0954.07775l-5.54271,5.53911a.614.614,0,0,1-.86577-.00029l-.17309-.17321a.614.614,0,0,1,.00028-.86576l5.97574-5.97185c-1.04312-.38341-2.80244.37726-3.63662,1.21089l-4.67666,4.67362a2.94714,2.94714,0,0,0-.00136,4.15568L290.78437,128.286a2.67967,2.67967,0,0,0,1.92822.692,3.14547,3.14547,0,0,0,3.088-3.09139,3.01576,3.01576,0,0,0-.59934-2.18769l-9.20183-9.20784a1.6994,1.6994,0,0,1,.11143-2.45373c.2346-.28408.47519-.56317.70032-.85481l1.90172-2.46351.07781-.09534a.61457.61457,0,0,0-.07753-.77043l-.1731-.17321a.61456.61456,0,0,0-.77037-.078,1.11766,1.11766,0,0,0-.0954.07775l-5.54271,5.5391a.614.614,0,0,1-.86577-.00028l-.17309-.17321a.614.614,0,0,1,.00028-.86576l5.54271-5.53911a1.11473,1.11473,0,0,0,.07782-.09534.61454.61454,0,0,0-.07754-.77042l-.17309-.17321a.61456.61456,0,0,0-.77037-.078,1.116,1.116,0,0,0-.0954.07775l-5.54271,5.53911a.614.614,0,0,1-.86577-.00029l-.1731-.17321a.614.614,0,0,1,.00028-.86576l5.54272-5.5391a1.1172,1.1172,0,0,0,.07781-.09535.61454.61454,0,0,0-.07753-.77042l-.1731-.17321a.61456.61456,0,0,0-.77037-.078,1.11519,1.11519,0,0,0-.09539.07776l-5.54272,5.5391a.614.614,0,0,1-.86576-.00028l-.1731-.17321a.614.614,0,0,1,.00028-.86577l5.54272-5.5391a1.1172,1.1172,0,0,0,.07781-.09535.61456.61456,0,0,0-.07753-.77042l-.1731-.17321a.61454.61454,0,0,0-.77037-.078,1.1156,1.1156,0,0,0-.0954.07775l-5.54271,5.5391a.614.614,0,0,1-.86577-.00028l-.17309-.17321a.614.614,0,0,1,.00028-.86577l5.54271-5.5391a1.11473,1.11473,0,0,0,.07782-.09534.61456.61456,0,0,0-.07754-.77043l-.17309-.17321a.61455.61455,0,0,0-.77037-.078,1.116,1.116,0,0,0-.0954.07775l-5.54271,5.5391a.614.614,0,0,1-.86577-.00028l-.1731-.17321a.614.614,0,0,1,.00028-.86577l5.54272-5.5391a1.116,1.116,0,0,0,.07781-.09534.61456.61456,0,0,0-.07753-.77043l-.1731-.17321a.61457.61457,0,0,0-.77037-.078,1.11644,1.11644,0,0,0-.09539.07775l-5.54272,5.5391a.614.614,0,0,1-.86576-.00028l-.1731-.17321A.614.614,0,0,1,270.70721,101.787Z" fill="#a2aee6"/><path d="M380.89941,129.60451a8.43938,8.43938,0,0,0-1.12263-.78476l.27164-.47257a8.45065,8.45065,0,0,0,1.24185.58031,8.4179,8.4179,0,0,0-1.12365-.78574l.136-.23659a.35327.35327,0,0,0-.61258-.35206l-.13633.23718a8.274,8.274,0,0,0-1.198-.557,8.31845,8.31845,0,0,0,1.08166.75911l-.27335.47556a8.37272,8.37272,0,0,0-1.19917-.55766,8.29572,8.29572,0,0,0,1.08286.7598l-.27336.47557a8.34834,8.34834,0,0,0-1.20035-.55835,8.27208,8.27208,0,0,0,1.08388.76079l-.27336.47557a8.32438,8.32438,0,0,0-1.20155-.559,8.32955,8.32955,0,0,0,1.08525.76118l-.27336.47557a8.34112,8.34112,0,0,0-1.20275-.55973,8.30868,8.30868,0,0,0,1.08627.76217l-.27336.47556a8.3604,8.3604,0,0,0-1.20394-.56042,8.36193,8.36193,0,0,0,1.08747.76286l-.27319.47527a8.33556,8.33556,0,0,0-1.20514-.56111,8.33967,8.33967,0,0,0,1.08867.76355l-.27336.47557a8.3522,8.3522,0,0,0-1.20634-.5618,8.40049,8.40049,0,0,0,1.08986.76424l-.27318.47526a8.37083,8.37083,0,0,0-1.20753-.56248,8.37443,8.37443,0,0,0,1.09088.76522l-.273.475a8.38912,8.38912,0,0,0-1.20889-.56288,8.35077,8.35077,0,0,0,1.09225.76562l-10.66014,18.54038a.35335.35335,0,0,0,.12966.482l.0006.00035a.3535.3535,0,0,0,.48231-.13026l10.65893-18.53829a8.376,8.376,0,0,0,1.23093.57441,8.42133,8.42133,0,0,0-1.11307-.77924l.27181-.47287a8.35488,8.35488,0,0,0,1.23229.57479,8.43774,8.43774,0,0,0-1.11444-.77963l.272-.47317a8.37123,8.37123,0,0,0,1.23332.57578,8.3773,8.3773,0,0,0-1.11564-.78031l.272-.47318a8.34926,8.34926,0,0,0,1.23468.57617,8.433,8.433,0,0,0-1.11682-.781l.2718-.47288a8.44455,8.44455,0,0,0,1.23588.57687,8.41,8.41,0,0,0-1.11785-.782l.27164-.47258a8.42175,8.42175,0,0,0,1.23724.57726,8.42723,8.42723,0,0,0-1.11922-.78239l.27181-.47287a8.43964,8.43964,0,0,0,1.23827.57824,8.40629,8.40629,0,0,0-1.12024-.78337l.27163-.47258a8.37791,8.37791,0,0,0,1.23964.57863,8.50156,8.50156,0,0,0-1.12144-.78406l.27164-.47258A8.394,8.394,0,0,0,380.89941,129.60451Z" fill="#4f66d0"/><path d="M359.77234,149.08064H369.8381a3.12763,3.12763,0,0,1,3.12763,3.12763v1.54447a3.12763,3.12763,0,0,1-3.12763,3.12763H359.77234a1.66286,1.66286,0,0,1-1.66286-1.66286v-4.474a1.66286,1.66286,0,0,1,1.66286-1.66286Z" transform="translate(50.75117 393.66759) rotate(-60.1114)" fill="#fec165"/><rect x="75" y="496.60516" width="550" height="2" fill="#935b50"/></svg>