<svg id="Layer_1" data-name="Layer 1" xmlns="http://www.w3.org/2000/svg" viewBox="0 0 700 550"><title>solving problem</title><path d="M434.00112,453.22548c16.25-5.08,30.83-10.27,48.37-20.12,18.09-10.16,98.45-58.51,108.9-142.19a159.61541,159.61541,0,0,0-6.66-68.16c-3.23-9.47-9.93-28.49-26.84-47.3-20.7-23.04-44.32-31.97-58.17-37.02-29.14-10.63-53.58-10.07-65.22-9.69-12.56.41-34.73,1.33-59.93,12.34-16.44,7.18-26.66,15.37-41.72,27.61-23.86,19.41-27,27.49-68.74,67.57-11.46,11-20.88,19.67-35.26,28.21-9.97,5.92-18.03,9.23-32.9,15.27-36.55,14.85-46.95657,17.85676-58.91657,26.21676-23.26,16.27-21.75343,34.01324-22.75343,37.83324a75.12694,75.12694,0,0,0-1.77,29.97c3.05,20.07,13.86,33.19,20.57,41.13a113.09822,113.09822,0,0,0,32.9,26.44,210.24676,210.24676,0,0,0,26.96,11.89Z" fill="#efedef"/><path d="M485.59257,439.04027l-.49023-.87207C509.00273,424.741,587.7996,374.40355,598.28007,290.43138a166.23929,166.23929,0,0,0-6.91406-70.77149c-2.97656-8.73193-9.94922-29.18017-27.84766-49.0957-21.91992-24.39111-46.94531-33.51855-60.38964-38.42187a174.1144,174.1144,0,0,0-67.74707-10.06885c-12.42481.4043-35.55079,1.15674-62.24317,12.81152l-.40039-.916c26.86817-11.73243,51.00879-12.51758,62.61035-12.89453a175.00251,175.00251,0,0,1,68.12207,10.12841c13.52637,4.93311,38.7041,14.11621,60.792,38.69336,18.03515,20.06739,25.05371,40.65088,28.05078,49.44092a167.31534,167.31534,0,0,1,6.959,71.21826C588.73418,374.99241,509.59648,425.55443,485.59257,439.04027Z" fill="#efedef"/><rect x="445.99198" y="96.77452" width="20.63965" height="20.63965" rx="5.37907" fill="#dc8758"/><polygon points="400.261 453.225 391.901 453.225 425.782 300.939 442.849 305.534 400.261 453.225" fill="#dc8758"/><polygon points="513.383 453.225 521.742 453.225 487.862 300.939 470.794 305.534 513.383 453.225" fill="#dc8758"/><rect x="323.74057" y="108.95859" width="266.06762" height="212.89786" rx="3.52423" fill="#ffe3cb"/><rect x="408.62492" y="312.81977" width="96.29893" height="13.14575" rx="2.77859" fill="#dc8758"/><rect x="99.53516" y="452.22504" width="500" height="2" fill="#935b50"/><polygon points="247.198 428.825 246.017 440.608 266.478 450.606 235.058 450.606 235.058 428.825 247.198 428.825" fill="#f9977a"/><path d="M269.63242,451.67668v-.07188a2.97542,2.97542,0,0,0-1.63633-2.65707l-21.23834-10.70366a.99181.99181,0,0,0-1.2393.28992l-4.15137,5.52517a.99181.99181,0,0,1-1.30322.2547l-4.87258-2.92355a.99181.99181,0,0,0-1.5021.85047v9.4359a.99181.99181,0,0,0,.99181.99182h33.95962A.99181.99181,0,0,0,269.63242,451.67668Z" fill="#6c7fd8"/><polygon points="184.817 428.825 181.217 440.189 161.689 450.606 193.11 450.606 195.617 428.825 184.817 428.825" fill="#f9977a"/><path d="M158.53508,451.67668v-.07188a2.97543,2.97543,0,0,1,1.63634-2.65707l21.23834-10.70366a.99181.99181,0,0,1,1.2393.28992l4.15137,5.52517a.99181.99181,0,0,0,1.30322.2547l4.87258-2.92355a.99181.99181,0,0,1,1.5021.85047v9.4359a.99182.99182,0,0,1-.99182.99182H159.5269A.99182.99182,0,0,1,158.53508,451.67668Z" fill="#6c7fd8"/><path d="M246.61546,143.69508l-.61588,8.91458a51.21514,51.21514,0,0,0,.54942,10.82112c.64843,4.50868-.57051,8.45256-3.24212,10.37206a7.577,7.577,0,0,1-4.2326,1.34688v8.96762c.49019,7.18736-2.025,13.14146-5.37259,14.07695-3.87472,1.08257-10.76718-4.02676-13.08345-14.07695V163.14356s-7.54118-1.38937-3.17521-8.83139a32.07762,32.07762,0,0,0,4.46513-14.28853l8.13656-6.15211Z" fill="#f9977a"/><path d="M230.16211,147.59613a7.79587,7.79587,0,0,1-2.1875-.30078.55114.55114,0,0,1,.333-1.05078,6.15,6.15,0,0,0,5.25586-.88086.55092.55092,0,0,1,.69922.85156A6.36,6.36,0,0,1,230.16211,147.59613Z" fill="#1e1d22"/><path d="M242.65381,147.56977a7.87161,7.87161,0,0,1-3.83252-1.07032.551.551,0,0,1,.584-.93457,6.15015,6.15015,0,0,0,5.31006.45508.55138.55138,0,0,1,.46485,1A5.94383,5.94383,0,0,1,242.65381,147.56977Z" fill="#1e1d22"/><path d="M242.54719,154.77532a1.65476,1.65476,0,0,0,0-3.30754,1.65476,1.65476,0,0,0,0,3.30754Z" fill="#1e1d22"/><path d="M231.23542,154.67609a1.65476,1.65476,0,0,0,0-3.30754,1.65476,1.65476,0,0,0,0,3.30754Z" fill="#1e1d22"/><path d="M237.68512,151.52161a10.4738,10.4738,0,0,1,1.46573,2.09631,12.51412,12.51412,0,0,1,.99994,2.36743,6.42629,6.42629,0,0,1,.27585,2.64087,2.32761,2.32761,0,0,1-.58208,1.29706,1.54907,1.54907,0,0,1-1.2664.44177,1.6491,1.6491,0,0,0,.87793-.74206,2.16386,2.16386,0,0,0,.19219-1.05249,9.73161,9.73161,0,0,0-.45634-2.30335C238.74028,154.71088,238.13449,153.17664,237.68512,151.52161Z" fill="#dd765e"/><path d="M234.00944,164.32863c-.42164,1.3323.58881,2.84029,2.25689,3.3682s3.36214-.12417,3.78379-1.45647" fill="#dd2f22"/><path d="M239.07428,175.14974s-5.95357-.30408-8.83112-3.0296c0,0,3.67136,7.29632,8.83112,8.28858Z" fill="#dd765e"/><path d="M250.98141,141.016s-.09923-4.06827-7.24351-5.85434-8.53344-5.75512-12.65132-4.66363a13.53078,13.53078,0,0,0-6.69776,4.66363s-12.93257-1.97862-6.66474,18.65745c0,0,4.68022,5.45449,5.17635.59241s1.58761-13.19707,4.26672-15.38,6.8466,0,8.43422,1.19072,11.51022,8.23576,12.50248,7.64041S253.06516,146.0765,250.98141,141.016Z" fill="#1e1d22"/><path d="M248.498,161.55091a4.27837,4.27837,0,0,1-2.22389,1.411,5.17193,5.17193,0,0,1-2.8475-.04316,5.47038,5.47038,0,0,0-1.90117-.22692,5.17494,5.17494,0,0,0-.85105.14733c-.13745.03425-.26634.08814-.394.13044a2.68227,2.68227,0,0,0-.27118.12072l-.77211.21485c-.24636.00506-.49269.007-.73905.00085l-.77255-.215a2.68508,2.68508,0,0,0-.271-.12067c-.12752-.04266-.25725-.09332-.39418-.129a5.0922,5.0922,0,0,0-.85048-.14636,5.50457,5.50457,0,0,0-1.8997.2273,5.16828,5.16828,0,0,1-2.84932.04339,4.27431,4.27431,0,0,1-2.22362-1.41485,5.68592,5.68592,0,0,0,4.16963-.75653,6.23646,6.23646,0,0,1,2.73827-.90442,5.90421,5.90421,0,0,1,1.53611.0827,4.93065,4.93065,0,0,1,.76224.19385,4.80952,4.80952,0,0,1,.8268.36413l-.77219-.2149c.24636-.00611.49269-.00421.73905.00085l-.77175.21478a4.81112,4.81112,0,0,1,.82663-.36407,5.06078,5.06078,0,0,1,.76245-.19238,5.86564,5.86564,0,0,1,1.53556-.08167,6.25267,6.25267,0,0,1,2.7368.90479A5.66929,5.66929,0,0,0,248.498,161.55091Z" fill="#1e1d22"/><path d="M238.86761,181.74869s-7.25032,16.8004-18.53032.0004c0,0-8.88-.24-18,11.04s-15.6,25.2-15.6,25.2l17.52,10.8,4.8-9.12-4.08,48s33.36,7.44,54,0l-2.64-50.64,4.8,5.76,13.2-12.48L259.42988,192.304a29.41325,29.41325,0,0,0-13.59634-9.37744A32.47143,32.47143,0,0,0,238.86761,181.74869Z" fill="#ffba55"/><path d="M256.33728,217.02912a59.26936,59.26936,0,0,1-.49969-8.16,58.57549,58.57549,0,0,1,.49969-8.16,58.57248,58.57248,0,0,1,.49973,8.16A59.26471,59.26471,0,0,1,256.33728,217.02912Z" fill="#e6952a"/><path d="M209.0573,219.66907a80.16739,80.16739,0,0,1,.10128-9.51154,79.2363,79.2363,0,0,1,1.09871-9.44842,79.23394,79.23394,0,0,1-.10128,9.51153A80.17057,80.17057,0,0,1,209.0573,219.66907Z" fill="#e6952a"/><polygon points="256.337 268.511 250.577 434.469 230.537 434.469 228.497 294.789 200.177 434.469 174.257 434.469 204.977 267.669 256.337 268.511" fill="#f73c4f"/><path d="M246.73689,268.354c1.15013,2.8894,1.95973,5.7409,3.14421,8.34985a11.1955,11.1955,0,0,0,2.18911,3.431,4.08446,4.08446,0,0,0,1.65431.98761,5.85672,5.85672,0,0,0,2.1691.17212,4.1972,4.1972,0,0,1-2.279.80377,4.39742,4.39742,0,0,1-2.48439-.71759,8.72556,8.72556,0,0,1-3.07031-3.85156,16.96682,16.96682,0,0,1-1.27715-4.527A15.709,15.709,0,0,1,246.73689,268.354Z" fill="#b02336"/><path d="M233.94365,283.40241a11.29787,11.29787,0,0,1-.4677,5.38012,12.14922,12.14922,0,0,1-2.84529,4.7558,11.77813,11.77813,0,0,1-4.66131,3.00122,12.866,12.866,0,0,1-2.651.66291,17.24538,17.24538,0,0,1-2.69475.06c.82239-.40112,1.65059-.65112,2.43407-1.00677l1.1546-.54852a7.30535,7.30535,0,0,0,1.1089-.58735,15.99334,15.99334,0,0,0,3.867-2.96594,16.72786,16.72786,0,0,0,2.85266-3.96936A27.81256,27.81256,0,0,0,233.94365,283.40241Z" fill="#b02336"/><path d="M216.67612,267.861c-1.25714,6.9889-2.63947,13.95112-3.95569,20.92743l-4.16008,20.884c-2.79384,13.91833-5.76355,27.79919-8.63669,41.70056-3.03148,13.86773-5.97855,27.75342-9.08929,41.60425l-4.70525,20.76788c-1.63994,6.90747-3.21259,13.82922-4.91182,20.724,1.25566-6.98914,2.63791-13.95142,3.95287-20.928l4.15947-20.88416c2.799-13.91717,5.76178-27.7995,8.6401-41.69983,3.03667-13.86657,5.97678-27.75378,9.09274-41.60351l4.70461-20.76807C213.40578,281.67786,214.97835,274.756,216.67612,267.861Z" fill="#b02336"/><polygon points="272.985 211.588 289.217 228.309 279.617 238.629 261.137 222.789 272.985 211.588" fill="#f9977a"/><path d="M133.40019,394.06981c.24507-.29139,49.10223-95.85038,59.22206-113.49743a1.84169,1.84169,0,0,0-.2487-2.10735c-8.81925-11.19743-7.60379-23.81455,4.05238-38.04632,4.68637-5.87,8.27419-8.33215,17.89429-8.32453-10.29914,21.20772-11.49745,22.90676-10.73461,25.29615a6.61313,6.61313,0,0,0,2.33622,1.86517q10.02517,4.665,21.25092,8.96886a2.01605,2.01605,0,0,0,2.77443-.88576c7.82356-15.19491,10.6545-20.02659,12.97128-25.13976,3.50415,4.12524,5.15288,9.28884,5.19843,16.28092.12438,20.93674-16.92438,34.70359-28.88105,32.8309-1.04155.00108-2.11375.22865-2.38939.76284-18.4829,35.24988-54.84953,109.092-56.71,112.42537a1.84212,1.84212,0,0,0,.27316,2.10453c8.94826,11.09445,7.87934,23.72467-3.61111,38.09057-4.61808,5.92375-8.17711,8.42746-17.79669,8.53151,10.05291-21.32568,11.23127-23.03856,10.44089-25.419a6.61264,6.61264,0,0,0-2.35787-1.83789q-10.07808-4.54875-21.35353-8.722a2.01563,2.01563,0,0,0-2.76371.918c-7.647,15.28449-10.42174,20.14848-12.67922,25.28838-3.55158-4.08426-5.26022-9.22851-5.38661-16.21969C104.5347,406.29946,121.42253,392.33585,133.40019,394.06981Z" fill="#4f66d0"/><path d="M203.07623,228.061l-2.23894,6.96805,34.56,15.84-1.14585,8.65511s-51.77415-8.50088-53.03415-15.418,6.98219-25.21576,6.98219-25.21576Z" fill="#f9977a"/><path d="M235.39729,250.86909s10.62-.72,12.42-.9,8.28-2.16,7.02,0-7.2,3.06-7.2,3.06l4.676,2.85848a2.91609,2.91609,0,0,1,.80655,4.254c-1.90362,2.4948-4.78854,5.82928-6.383,5.48756-2.5196-.54-12.48545-6.10489-12.48545-6.10489Z" fill="#f9977a"/><path d="M279.61729,238.62909s6.72,8.16,15.36,4.56,26.71706-29.1332,28.76328-39.56509c1.43615-7.32167,2.4-21.36,0-20.64s-8.88385,14.64-7.44385,20.4l-27.07943,24.92509Z" fill="#f9977a"/><path d="M403.18824,164.172l-.50905-.90412-5.2066.95063a15.34786,15.34786,0,0,0-2.23352-2.21942l.85437-5.172-.84863-.51042a20.90335,20.90335,0,0,0-4.41917-1.77786l-1.00635-.27033-2.97707,4.39586a15.34978,15.34978,0,0,0-3.14821.05428l-3.0977-4.29148-.941.2774a18.83824,18.83824,0,0,0-4.29948,1.83252l-.90416.50907.95063,5.2066a15.34887,15.34887,0,0,0-2.21942,2.23352l-5.172-.85437-.51042.84863a20.89945,20.89945,0,0,0-1.77782,4.41915l-.27035,1.00641,4.35427,2.99475a15.78275,15.78275,0,0,0,.04351,3.1528l-4.29151,3.09772.29036.9862a19.50244,19.50244,0,0,0,1.83654,4.30889l.50981.89117,5.20721-.94933a15.86449,15.86449,0,0,0,2.2443,2.21487l-.83111,5.11132.90559.49886a20.71361,20.71361,0,0,0,4.36219,1.78938l1.00637.27037,3.00953-4.36058a15.35072,15.35072,0,0,0,3.14656-.05827l3.096,4.29855.99872-.302a19.35747,19.35747,0,0,0,4.29276-1.82967l.90949-.51133-.95152-5.21256a15.46691,15.46691,0,0,0,2.22107-2.22953l5.2299.84875.49784-.9115a20.49107,20.49107,0,0,0,1.64639-4.36308l.27037-1.00637L401.0963,175.626a15.35267,15.35267,0,0,0-.05831-3.14654l4.29855-3.096-.302-.99872a19.35733,19.35733,0,0,0-1.82967-4.29276Zm-14.302,18.15031A8.75234,8.75234,0,1,1,393.506,170.8391a8.75557,8.75557,0,0,1-4.61978,11.48323Zm0,0" fill="#4f66d0"/><path d="M535.15389,243.72545l.14363-2.1662-10.20674-4.29615a32.112,32.112,0,0,0-1.37058-6.444l7.41764-8.07961L530.236,220.874a43.73685,43.73685,0,0,0-5.70387-8.17306l-1.45293-1.62559-10.24655,4.29008a32.11671,32.11671,0,0,0-5.57563-3.5093l-.51176-11.06222-1.96559-.59157a39.41614,39.41614,0,0,0-9.62775-1.71311l-2.16629-.14364-4.29615,10.20673a32.11427,32.11427,0,0,0-6.444,1.37059l-8.0796-7.41764-1.86547.90183a43.729,43.729,0,0,0-8.173,5.70388l-1.6257,1.453,4.197,10.22989a33.02194,33.02194,0,0,0-3.53342,5.57134L452.103,226.877l-.62059,2.05957a40.80621,40.80621,0,0,0-1.71686,9.64884l-.12745,2.14439,10.2063,4.2991a33.19283,33.19283,0,0,0,1.39469,6.44841l-7.30745,8,1.01484,1.91046a43.33994,43.33994,0,0,0,5.59088,8.128l1.45292,1.62569,10.263-4.19113a32.11812,32.11812,0,0,0,5.5773,3.50042l.50064,11.07264,2.09479.61455a40.50231,40.50231,0,0,0,9.61272,1.71044l2.17821.14576,4.30141-10.21819a32.3592,32.3592,0,0,0,6.44234-1.36171l8.18745,7.47411,1.91544-1.02634a42.87452,42.87452,0,0,0,7.87857-5.75617l1.62569-1.45292-4.19113-10.263a32.125,32.125,0,0,0,3.50033-5.57732l11.07264-.50064.61455-2.0948a40.50183,40.50183,0,0,0,1.71044-9.61271ZM489.3266,259.138a18.31281,18.31281,0,1,1,21.23771-14.82152A18.31956,18.31956,0,0,1,489.3266,259.138Zm0,0" fill="#f73c4f"/><path d="M484.584,305.93012h-.01953c-1.96-.07617-3.03808-.23438-3.084-.24121a.49961.49961,0,0,1,.14746-.98828c.01074.001,1.07715.15722,2.97559.22949a.50019.50019,0,0,1-.01954,1Zm9.98438-.457a.49984.49984,0,0,1-.05859-.9961,78.43725,78.43725,0,0,0,9.76269-1.82226.49952.49952,0,1,1,.24414.96875,79.12632,79.12632,0,0,1-9.88769,1.8457A.42026.42026,0,0,1,494.56836,305.47309Zm19.35449-4.85059a.49994.49994,0,0,1-.17871-.9668,90.28954,90.28954,0,0,0,9.07031-4.0625.50011.50011,0,0,1,.459.88868,91.4292,91.4292,0,0,1-9.17188,4.10742A.49882.49882,0,0,1,513.92285,300.6225Zm17.75293-9.12207a.49988.49988,0,0,1-.27344-.918c2.72852-1.78711,5.43653-3.75293,8.04786-5.84473a.50024.50024,0,0,1,.625.78125c-2.63575,2.11036-5.37012,4.09571-8.126,5.89942A.49215.49215,0,0,1,531.67578,291.50043Zm15.59961-12.46094a.5.5,0,0,1-.3457-.86133c1.66308-1.58984,3.31836-3.26757,4.92187-4.98632q1.021-1.09717,1.96289-2.19043a.5.5,0,1,1,.75782.65234q-.95362,1.10742-1.98926,2.21973c-1.61621,1.7334-3.28613,3.4248-4.96192,5.02734A.49823.49823,0,0,1,547.27539,279.03949Zm12.833-15.25976a.49511.49511,0,0,1-.26074-.07325.501.501,0,0,1-.166-.6875,48.18533,48.18533,0,0,0,4.29688-8.89355.49977.49977,0,0,1,.9414.33594,49.13065,49.13065,0,0,1-4.38476,9.0791A.50005.50005,0,0,1,560.1084,263.77973Zm6.5498-18.71192a.4411.4411,0,0,1-.05078-.00293.49847.49847,0,0,1-.44726-.54687c.12695-1.27539.1914-2.5752.1914-3.86231a40.25484,40.25484,0,0,0-.45508-5.98047.49983.49983,0,0,1,.98829-.15039,41.22046,41.22046,0,0,1,.46679,6.13086c0,1.32032-.0664,2.65332-.19726,3.96192A.49884.49884,0,0,1,566.6582,245.06781Zm-2.88281-19.5957a.50134.50134,0,0,1-.46582-.31738,53.32766,53.32766,0,0,0-4.47852-8.82422.50019.50019,0,1,1,.84766-.53125,54.45942,54.45942,0,0,1,4.5625,8.99023.49956.49956,0,0,1-.46582.68262Zm-10.50391-16.916a.49764.49764,0,0,1-.375-.16992,54.19455,54.19455,0,0,0-7.15234-6.85449.50012.50012,0,0,1,.61719-.78711,55.11922,55.11922,0,0,1,7.28515,6.98145.5.5,0,0,1-.375.83007Zm-15.90429-11.81445a.50659.50659,0,0,1-.24317-.0625,48.32562,48.32562,0,0,1-8.21679-5.81445.5.5,0,1,1,.65234-.75781,47.2362,47.2362,0,0,0,8.05078,5.69726.50015.50015,0,0,1-.24316.9375Zm-15.25684-12.748a.49886.49886,0,0,1-.36816-.16211c-2.06153-2.248-4.24707-4.8164-6.4961-7.63183a.50024.50024,0,1,1,.78125-.625c2.23536,2.79883,4.40625,5.34961,6.45118,7.58105a.5.5,0,0,1-.03028.70606A.49362.49362,0,0,1,522.11035,183.99359ZM509.58594,168.437a.50106.50106,0,0,1-.4043-.20507c-1.85254-2.542-3.792-5.29493-5.76465-8.18262a.50029.50029,0,0,1,.82617-.56446c1.96582,2.87989,3.89942,5.624,5.74707,8.15723a.49987.49987,0,0,1-.40429.79492ZM498.292,151.9477a.49836.49836,0,0,1-.417-.22461,44.70938,44.70938,0,0,0-6.3125-7.57813.5.5,0,1,1,.69336-.7207,45.64094,45.64094,0,0,1,6.45312,7.748.49919.49919,0,0,1-.1416.69239A.49393.49393,0,0,1,498.292,151.9477Zm-14.25879-13.792a.49249.49249,0,0,1-.26562-.07715,58.44131,58.44131,0,0,0-8.81348-4.51171.49963.49963,0,0,1,.38086-.92383,59.2804,59.2804,0,0,1,8.96582,4.58984.5.5,0,0,1-.26758.92285Zm-87.77539-6.11425a.50011.50011,0,0,1-.125-.98438c.03711-.00977,3.8125-.97754,9.84278-2.03613a.4998.4998,0,1,1,.17382.98437c-5.98828,1.05176-9.72949,2.01074-9.7666,2.02051A.50392.50392,0,0,1,396.25781,132.04145Zm69.39844-1.584a.47041.47041,0,0,1-.126-.0166,93.54433,93.54433,0,0,0-9.748-1.9707.49954.49954,0,1,1,.14648-.98828,93.94921,93.94921,0,0,1,9.85352,1.99218.49981.49981,0,0,1-.126.9834ZM415.958,128.53852a.5.5,0,0,1-.06055-.9961c3.35449-.41308,6.71387-.73633,9.98633-.96094a.49376.49376,0,0,1,.5332.46485.50107.50107,0,0,1-.46484.5332c-3.25488.22363-6.5957.54492-9.93164.95508A.457.457,0,0,1,415.958,128.53852Zm29.95215-1.09668c-.00977,0-.02051,0-.03125-.001-3.20118-.19922-6.58887-.28809-9.96192-.25488h-.00488a.5.5,0,0,1-.00488-1c3.40039-.02832,6.80859.05761,10.03418.25683a.5.5,0,0,1-.03125.999Z" fill="#4f66d0"/><path d="M431.65137,240.00336a.50221.50221,0,0,1-.45117-.2832,73.67143,73.67143,0,0,0-4.86426-8.64453.49972.49972,0,1,1,.834-.55079,74.75494,74.75494,0,0,1,4.93262,8.76172.49952.49952,0,0,1-.45117.7168Zm-11.0586-16.55859a.49742.49742,0,0,1-.36523-.15821,49.042,49.042,0,0,0-7.42676-6.50879.50019.50019,0,1,1,.57813-.8164,50.1803,50.1803,0,0,1,7.5791,6.6416.5.5,0,0,1-.36524.8418ZM355.77051,214.645a.49988.49988,0,0,1-.22266-.94726,63.96753,63.96753,0,0,1,9.459-3.52051.49969.49969,0,0,1,.28125.959,63.122,63.122,0,0,0-9.29493,3.457A.50227.50227,0,0,1,355.77051,214.645Zm48.60058-2.624a.49947.49947,0,0,1-.19336-.03906,47.13719,47.13719,0,0,0-9.459-2.835.50008.50008,0,0,1,.1875-.98242,48.15542,48.15542,0,0,1,9.6582,2.89551.49995.49995,0,0,1-.19336.96094Zm-29.46777-3.03906a.49993.49993,0,0,1-.07422-.99415,65.47261,65.47261,0,0,1,9.81055-.76269h.22949a.5.5,0,0,1,0,1h-.22949a64.49653,64.49653,0,0,0-9.66016.751A.501.501,0,0,1,374.90332,208.98188Z" fill="#4f66d0"/><path d="M345.79883,174.77094a.4993.4993,0,0,1-.48389-.377,51.83539,51.83539,0,0,1-1.26074-6.708.49991.49991,0,1,1,.99316-.11524,50.84215,50.84215,0,0,0,1.23633,6.57715.4991.4991,0,0,1-.36133.60742A.487.487,0,0,1,345.79883,174.77094Zm-1.11133-16.60352a.45816.45816,0,0,1-.08105-.00683.49981.49981,0,0,1-.41309-.57422,26.89565,26.89565,0,0,1,3.42383-9.51953.50018.50018,0,0,1,.8584.51367,25.8765,25.8765,0,0,0-3.29493,9.168A.50041.50041,0,0,1,344.6875,158.16742Zm10.03125-16.709a.5.5,0,0,1-.30078-.89942,27.86413,27.86413,0,0,1,9.06152-4.61523.49952.49952,0,1,1,.24414.96875,27.43737,27.43737,0,0,0-8.7041,4.44531A.49973.49973,0,0,1,354.71875,141.45844Z" fill="#4f66d0"/><path d="M444.254,189.28075a7.96691,7.96691,0,0,1-11.98792-.68,8.2885,8.2885,0,0,1,4.04624-12.92236L425.67088,165.037l27.06063-27.06063a5.32333,5.32333,0,0,1,7.54313,0l27.60325,27.60325-10.50406,10.504a8.66142,8.66142,0,0,0-2.01975-3.36625,8.08939,8.08939,0,0,0-11.44523-.13737,8.20975,8.20975,0,0,0,.13733,11.44526,8.66138,8.66138,0,0,0,3.36622,2.0198l-10.50406,10.50405L446.2737,185.91454a8.75967,8.75967,0,0,1-2.01972,3.36621Zm0,0" fill="#8b9d36"/><path d="M372.15081,270.58232a7.96693,7.96693,0,0,1,.595-11.99245,8.2885,8.2885,0,0,1,12.95072,3.95454l10.56573-10.71659L423.514,278.69594a5.32335,5.32335,0,0,1,.05343,7.54294l-27.40688,27.79824-10.57826-10.42933a8.6615,8.6615,0,0,0,3.35186-2.04357,8.0894,8.0894,0,0,0,.05623-11.44591,8.20975,8.20975,0,0,0-11.444.21846,8.66139,8.66139,0,0,0-1.99588,3.38045l-10.57825-10.42933,10.559-10.70977a8.75974,8.75974,0,0,1-3.38045-1.9958Zm0,0" fill="#8b9d36"/><path d="M352.93187,275.664a7.96692,7.96692,0,0,1-11.98793-.68,8.28849,8.28849,0,0,1,4.04625-12.92235l-10.64143-10.64143,27.06063-27.06063a5.32335,5.32335,0,0,1,7.54313,0l27.60325,27.60325L386.05172,262.467a8.66138,8.66138,0,0,0-2.01975-3.36626,8.08941,8.08941,0,0,0-11.44523-.13737,8.20975,8.20975,0,0,0,.13733,11.44527,8.66137,8.66137,0,0,0,3.36621,2.01979l-10.50405,10.50406-10.63465-10.63465a8.75988,8.75988,0,0,1-2.01971,3.36622Zm0,0" fill="#f73c4f"/><path d="M534.51643,153.05938a7.96691,7.96691,0,0,1,11.998-.46974,8.2885,8.2885,0,0,1-2.7917,13.25012l11.61046,9.57481-24.34828,29.52485a5.32334,5.32334,0,0,1-7.50855.72145l-30.11688-24.83652,9.45121-11.46058a8.66145,8.66145,0,0,0,2.33247,3.15764,8.0894,8.0894,0,0,0,11.40589-.958,8.20975,8.20975,0,0,0-1.23141-11.37966,8.6613,8.6613,0,0,0-3.544-1.68856l9.45121-11.46059,11.60306,9.56871a8.75982,8.75982,0,0,1,1.68849-3.544Zm0,0" fill="#ffba55"/><path d="M527.75211,134.36619a7.96693,7.96693,0,0,1-.38468-12.001,8.2885,8.2885,0,0,1,13.23,2.88556l9.65688-11.5423,29.3515,24.557a5.32335,5.32335,0,0,1,.6682,7.51348l-25.04938,29.94006-11.3933-9.53222a8.66145,8.66145,0,0,0,3.17409-2.31,8.0894,8.0894,0,0,0-.87709-11.4124,8.20975,8.20975,0,0,0-11.3881,1.15072,8.66121,8.66121,0,0,0-1.71364,3.53191l-11.3933-9.53222,9.65072-11.53494a8.75976,8.75976,0,0,1-3.5319-1.71356Zm0,0" fill="#4f66d0"/></svg>