<svg id="Layer_1" data-name="Layer 1" xmlns="http://www.w3.org/2000/svg" viewBox="0 0 700 550"><title>running-in hurry- </title><path d="M253.76694,382.17638c-44.217-46.79444-49.0733-216.20994,45.18126-203.074,49.61367,6.91455,142.64147-12.23617,205.30526-33.61574,60.93193-20.78842,23.9887,137.71352-45.18123,203.07364S297.984,428.97081,253.76694,382.17638Z" fill="#efedef"/><path d="M242.0558,395.22333c23.58816,24.96338,60.10737,34.85881,102.83066,27.86288,42.64512-6.98181,86.38423-29.96554,123.16053-64.71742,27.64977-26.12671,53.66-69.51161,69.57557-116.05128,15.20371-44.45925,18.24664-82.68687,7.94052-99.76614-5.76018-9.54558-15.61826-12.26652-28.50892-7.86838l.35572,1.04078c12.517-4.2701,21.67275-1.78207,27.2108,7.39595,10.14285,16.80815,7.06235,54.68245-8.04008,98.84177-15.85991,46.37948-41.762,89.59545-69.28949,115.60833C430.67257,392.171,387.13864,415.05328,344.709,422.00055c-42.35186,6.93531-78.5241-2.84373-101.85423-27.5331Z" fill="#efedef"/><rect x="224.82785" y="351.46128" width="100.29642" height="76.90542" fill="#f9a682"/><rect x="323.78074" y="235.1161" width="63.23488" height="192.5206" fill="#e19974"/><rect x="386.67142" y="279.07275" width="63.23488" height="149.29395" fill="#cc886a"/><rect x="447.52166" y="207.70991" width="63.23488" height="220.65678" fill="#f9e0c0"/><rect x="167.67938" y="235.8461" width="62.78944" height="192.5206" fill="#f9e0c0"/><rect x="178.24081" y="246.87148" width="12.77799" height="16.20505" fill="#fff"/><rect x="178.24081" y="272.83472" width="12.77799" height="16.20505" fill="#fff"/><rect x="178.24081" y="299.14458" width="12.77799" height="16.20505" fill="#fff"/><rect x="178.24081" y="325.10781" width="12.77799" height="16.20505" fill="#fff"/><rect x="178.24081" y="351.2498" width="12.77799" height="16.20505" fill="#fff"/><rect x="178.24081" y="377.21304" width="12.77799" height="16.20505" fill="#fff"/><rect x="178.24081" y="403.5229" width="12.77799" height="16.20505" fill="#fff"/><rect x="206.04663" y="246.87148" width="12.77799" height="16.20505" fill="#fff"/><rect x="206.04663" y="272.83472" width="12.77799" height="16.20505" fill="#fff"/><rect x="243.71028" y="370.31144" width="12.77799" height="16.20505" fill="#fff"/><rect x="243.71028" y="396.27467" width="12.77799" height="16.20505" fill="#fff"/><rect x="271.51609" y="370.31144" width="12.77799" height="16.20505" fill="#fff"/><rect x="396.87148" y="291.23239" width="12.77799" height="27.8223" fill="#fff"/><rect x="424.67729" y="291.23239" width="12.77799" height="27.8223" fill="#fff"/><rect x="396.87148" y="328.7956" width="12.77799" height="27.8223" fill="#fff"/><rect x="424.67729" y="328.7956" width="12.77799" height="27.8223" fill="#fff"/><rect x="396.87148" y="367.50281" width="12.77799" height="27.8223" fill="#fff"/><rect x="424.67729" y="367.50281" width="12.77799" height="27.8223" fill="#fff"/><rect x="271.51609" y="396.27467" width="12.77799" height="16.20505" fill="#fff"/><rect x="297.84557" y="370.31144" width="12.77799" height="16.20505" fill="#fff"/><rect x="297.84557" y="396.27467" width="12.77799" height="16.20505" fill="#fff"/><rect x="206.04663" y="299.14458" width="12.77799" height="16.20505" fill="#fff"/><rect x="206.04663" y="325.10781" width="12.77799" height="16.20505" fill="#fff"/><rect x="206.04663" y="351.2498" width="12.77799" height="16.20505" fill="#fff"/><rect x="206.04663" y="377.21304" width="12.77799" height="16.20505" fill="#fff"/><rect x="206.04663" y="403.5229" width="12.77799" height="16.20505" fill="#fff"/><rect x="335.10628" y="246.87148" width="12.77799" height="16.20505" fill="#fff"/><rect x="335.10628" y="272.83472" width="12.77799" height="16.20505" fill="#fff"/><rect x="335.10628" y="299.14458" width="12.77799" height="16.20505" fill="#fff"/><rect x="335.10628" y="325.10781" width="12.77799" height="16.20505" fill="#fff"/><rect x="335.10628" y="351.2498" width="12.77799" height="16.20505" fill="#fff"/><rect x="335.10628" y="377.21304" width="12.77799" height="16.20505" fill="#fff"/><rect x="335.10628" y="403.5229" width="12.77799" height="16.20505" fill="#fff"/><rect x="362.91209" y="246.87148" width="12.77799" height="16.20505" fill="#fff"/><rect x="362.91209" y="272.83472" width="12.77799" height="16.20505" fill="#fff"/><rect x="362.91209" y="299.14458" width="12.77799" height="16.20505" fill="#fff"/><rect x="362.91209" y="325.10781" width="12.77799" height="16.20505" fill="#fff"/><rect x="362.91209" y="351.2498" width="12.77799" height="16.20505" fill="#fff"/><rect x="362.91209" y="377.21304" width="12.77799" height="16.20505" fill="#fff"/><rect x="362.91209" y="403.5229" width="12.77799" height="16.20505" fill="#fff"/><rect x="458.8472" y="220.81887" width="12.77799" height="16.20505" fill="#fff"/><rect x="458.8472" y="246.78211" width="12.77799" height="16.20505" fill="#fff"/><rect x="458.8472" y="273.09197" width="12.77799" height="16.20505" fill="#fff"/><rect x="458.8472" y="299.0552" width="12.77799" height="16.20505" fill="#fff"/><rect x="458.8472" y="325.19719" width="12.77799" height="16.20505" fill="#fff"/><rect x="458.8472" y="351.16042" width="12.77799" height="16.20505" fill="#fff"/><rect x="458.8472" y="377.47029" width="12.77799" height="16.20505" fill="#fff"/><rect x="486.65302" y="220.81887" width="12.77799" height="16.20505" fill="#fff"/><rect x="486.65302" y="246.78211" width="12.77799" height="16.20505" fill="#fff"/><rect x="486.65302" y="273.09197" width="12.77799" height="16.20505" fill="#fff"/><rect x="486.65302" y="299.0552" width="12.77799" height="16.20505" fill="#fff"/><rect x="486.65302" y="325.19719" width="12.77799" height="16.20505" fill="#fff"/><rect x="486.65302" y="351.16042" width="12.77799" height="16.20505" fill="#fff"/><rect x="486.65302" y="377.47029" width="12.77799" height="16.20505" fill="#fff"/><rect x="458.8472" y="402.1463" width="12.77799" height="16.20505" fill="#fff"/><rect x="486.65302" y="402.1463" width="12.77799" height="16.20505" fill="#fff"/><path d="M606.41973,428.485H112.57744a1,1,0,0,1,0-2H606.41973a1,1,0,1,1,0,2Z" fill="#935b50"/><path d="M552.1541,425.88738c-.96826-1.61133-23.7539-39.585-27.43994-49.41406l.91992-.3457c3.6543,9.74609,27.125,48.86035,27.36182,49.2539Z" fill="#8b9d36"/><path d="M533.12916,355.61766a42.191,42.191,0,0,0-2.26874,7.60423,71.08783,71.08783,0,0,0-1.15954,7.70979,69.67358,69.67358,0,0,0-.31938,7.78963,41.62178,41.62178,0,0,0,.80084,7.89615,41.65872,41.65872,0,0,0,2.274-7.60381,69.78714,69.78714,0,0,0,1.15427-7.71026,71.0889,71.0889,0,0,0,.3141-7.79012A42.15411,42.15411,0,0,0,533.12916,355.61766Z" fill="#8b9d36"/><path d="M541.79168,367.46192a40.244,40.244,0,0,0-2.94393,7.1697,67.58626,67.58626,0,0,0-1.84961,7.37986,66.55667,66.55667,0,0,0-1.021,7.539,39.80387,39.80387,0,0,0,.0844,7.75121,39.76642,39.76642,0,0,0,2.94921-7.16868,66.55629,66.55629,0,0,0,1.84434-7.38094,67.69992,67.69992,0,0,0,1.01568-7.54A40.28166,40.28166,0,0,0,541.79168,367.46192Z" fill="#8b9d36"/><path d="M546.56461,381.25074a34.14665,34.14665,0,0,0-2.50611,6.6642,56.72511,56.72511,0,0,0-1.40219,6.82172,55.77539,55.77539,0,0,0-.56731,6.9409,33.716,33.716,0,0,0,.54668,7.09992,33.71716,33.71716,0,0,0,2.51139-6.66347,55.6849,55.6849,0,0,0,1.39692-6.82245,56.72835,56.72835,0,0,0,.562-6.94168A34.11416,34.11416,0,0,0,546.56461,381.25074Z" fill="#8b9d36"/><path d="M552.57524,395.01408a26.14162,26.14162,0,0,0-2.54111,5.6713,42.60077,42.60077,0,0,0-1.44248,5.861,41.81265,41.81265,0,0,0-.61142,6.00446,25.8381,25.8381,0,0,0,.49729,6.19592,25.81843,25.81843,0,0,0,2.54639-5.6704,41.88125,41.88125,0,0,0,1.43768-5.86186,42.67,42.67,0,0,0,.60615-6.00536A26.14074,26.14074,0,0,0,552.57524,395.01408Z" fill="#8b9d36"/><path d="M557.87855,403.61667a23.53486,23.53486,0,0,0-2.68258,4.97961,40.58139,40.58139,0,0,0-1.68657,5.16567,46.37181,46.37181,0,0,0-1.01856,5.29743c-.11029.89915-.21148,1.79326-.27861,2.70464a20.12784,20.12784,0,0,1-.29636,2.76938,5.436,5.436,0,0,0,.65218-.41169l.52942-.5305a9.78861,9.78861,0,0,0,.926-1.15822,18.55163,18.55163,0,0,0,1.42378-2.47794,27.59349,27.59349,0,0,0,1.86831-5.225,30.92871,30.92871,0,0,0,.87949-5.44046A20.48119,20.48119,0,0,0,557.87855,403.61667Z" fill="#8b9d36"/><path d="M527.97835,382.38181a33.83315,33.83315,0,0,0-5.97515-5.18132,55.37192,55.37192,0,0,0-6.60432-3.93822,54.39958,54.39958,0,0,0-7.081-2.99734,33.44563,33.44563,0,0,0-7.7159-1.74237,33.4369,33.4369,0,0,0,5.97179,5.18725,54.40336,54.40336,0,0,0,6.60767,3.93228,55.34762,55.34762,0,0,0,7.08386,2.99141A33.83015,33.83015,0,0,0,527.97835,382.38181Z" fill="#8b9d36"/><path d="M533.84752,393.34436a41.67748,41.67748,0,0,0-7.36967-4.82442,69.39342,69.39342,0,0,0-7.85977-3.52005,68.14816,68.14816,0,0,0-8.23046-2.533,41.20271,41.20271,0,0,0-8.72486-1.21619,41.21083,41.21083,0,0,0,7.36679,4.83065,68.16053,68.16053,0,0,0,7.86216,3.51382,69.376,69.376,0,0,0,8.23286,2.52673A41.67772,41.67772,0,0,0,533.84752,393.34436Z" fill="#8b9d36"/><path d="M540.75634,405.52964a35.54166,35.54166,0,0,0-6.64316-4.65784,58.40721,58.40721,0,0,0-7.15-3.35982,57.37229,57.37229,0,0,0-7.5332-2.37747,35.13068,35.13068,0,0,0-8.04439-1.067,35.14336,35.14336,0,0,0,6.64076,4.664,57.3812,57.3812,0,0,0,7.15243,3.35364,58.41494,58.41494,0,0,0,7.5356,2.3713A35.541,35.541,0,0,0,540.75634,405.52964Z" fill="#8b9d36"/><path d="M546.21646,414.90867a26.64518,26.64518,0,0,0-5.83464-3.84315,42.553,42.553,0,0,0-6.25089-2.51336,41.79035,41.79035,0,0,0-6.56643-1.5071,26.36179,26.36179,0,0,0-6.98651-.16466,26.36018,26.36018,0,0,0,5.83272,3.84944,41.78693,41.78693,0,0,0,6.25329,2.50707,42.53154,42.53154,0,0,0,6.56786,1.50068A26.65885,26.65885,0,0,0,546.21646,414.90867Z" fill="#8b9d36"/><path d="M550.52662,423.32435a35.04538,35.04538,0,0,0-6.41345-4.873,57.51541,57.51541,0,0,0-6.96685-3.59432,56.51391,56.51391,0,0,0-7.386-2.62672,34.65132,34.65132,0,0,0-7.94464-1.33578,34.63861,34.63861,0,0,0,6.41057,4.87915A56.49307,56.49307,0,0,0,535.196,419.362a57.50609,57.50609,0,0,0,7.38837,2.62049A35.04467,35.04467,0,0,0,550.52662,423.32435Z" fill="#8b9d36"/><path d="M526.07119,377.71516a24.6664,24.6664,0,0,0-.19134-7.87637,37.11331,37.11331,0,0,0-2.0069-7.16538,36.50405,36.50405,0,0,0-3.38224-6.62685,24.42012,24.42012,0,0,0-5.216-5.90909,24.40552,24.40552,0,0,0,.18223,7.87972,36.53706,36.53706,0,0,0,2.01553,7.162,37.11647,37.11647,0,0,0,3.39136,6.62343A24.67036,24.67036,0,0,0,526.07119,377.71516Z" fill="#8b9d36"/><path d="M555.76006,427.49285c-.01026-.6543-1.20361-65.67871-13.7124-85.4834l.83007-.52539c12.65625,20.03906,13.82129,83.30957,13.86475,85.99317Z" fill="#50661a"/><path d="M546.52912,350.52215a45.00674,45.00674,0,0,1-.29444-8.85674,79.62016,79.62016,0,0,1,.95718-8.59149c.45844-2.83322,1.08233-5.63827,1.816-8.42.73274-2.80007,1.65827-5.4941,2.64709-8.36365a12.27174,12.27174,0,0,1,.63349,2.202,19.62429,19.62429,0,0,1,.34623,2.2375,37.9188,37.9188,0,0,1,.19949,4.44168,57.02936,57.02936,0,0,1-.7994,8.705,63.26661,63.26661,0,0,1-2.0141,8.47586A39.85189,39.85189,0,0,1,546.52912,350.52215Z" fill="#50661a"/><path d="M530.97216,310.45653a31.82223,31.82223,0,0,1,5.5402,7.11839,50.02625,50.02625,0,0,1,3.71312,7.80216,49.15931,49.15931,0,0,1,2.3306,8.31971,31.47921,31.47921,0,0,1,.48626,9.01,31.47825,31.47825,0,0,1-5.54883-7.11515,49.116,49.116,0,0,1-3.7045-7.80546,50.02609,50.02609,0,0,1-2.322-8.32295A31.80553,31.80553,0,0,1,530.97216,310.45653Z" fill="#50661a"/><path d="M520.542,326.58164a73.3058,73.3058,0,0,1,7.29582,6.72252c2.25483,2.33743,4.40655,4.72713,6.51176,7.12978l6.25473,7.178c1.04924,1.17543,2.10952,2.33365,3.22974,3.43073a14.74773,14.74773,0,0,0,3.81671,2.88322,6.62515,6.62515,0,0,1-2.61209-.06624,12.22936,12.22936,0,0,1-2.51666-.79155,24.305,24.305,0,0,1-4.48232-2.57007,43.99266,43.99266,0,0,1-7.38358-6.83072,58.28773,58.28773,0,0,1-5.86725-8.01538A41.71627,41.71627,0,0,1,520.542,326.58164Z" fill="#50661a"/><path d="M520.542,342.70675a60.38075,60.38075,0,0,1,9.06966,5.5782,102.74846,102.74846,0,0,1,8.13743,6.61367,101.01436,101.01436,0,0,1,7.432,7.3973,59.702,59.702,0,0,1,6.49066,8.44259,59.67955,59.67955,0,0,1-9.07446-5.57328,100.93862,100.93862,0,0,1-8.13311-6.61858,102.74406,102.74406,0,0,1-7.42721-7.40222A60.37408,60.37408,0,0,1,520.542,342.70675Z" fill="#50661a"/><path d="M521.60278,355.35862a59.7066,59.7066,0,0,1,9.16317,5.29911,101.54586,101.54586,0,0,1,8.25875,6.35848,99.80069,99.80069,0,0,1,7.57348,7.16017,59.0371,59.0371,0,0,1,6.65946,8.22956,59.00643,59.00643,0,0,1-9.168-5.294,99.73338,99.73338,0,0,1-8.25395-6.36352,101.54178,101.54178,0,0,1-7.56917-7.16521A59.6774,59.6774,0,0,1,521.60278,355.35862Z" fill="#50661a"/><path d="M522.30963,368.88231a55.50991,55.50991,0,0,1,9.17852,4.45265,94.00451,94.00451,0,0,1,8.34507,5.569,92.437,92.437,0,0,1,7.714,6.41406,54.85245,54.85245,0,0,1,6.87238,7.54116,54.90181,54.90181,0,0,1-9.18236-4.44731,92.43229,92.43229,0,0,1-8.34123-5.57443,94.0673,94.0673,0,0,1-7.70967-6.41939A55.50858,55.50858,0,0,1,522.30963,368.88231Z" fill="#50661a"/><path d="M521.60278,378.69359a61.75822,61.75822,0,0,1,9.60339,4.876,105.197,105.197,0,0,1,8.76084,5.98576,103.347,103.347,0,0,1,8.12352,6.82568,61.03377,61.03377,0,0,1,7.27232,7.94591,61.037,61.037,0,0,1-9.60724-4.8707,103.34807,103.34807,0,0,1-8.757-5.99109,105.18193,105.18193,0,0,1-8.11921-6.831A61.754,61.754,0,0,1,521.60278,378.69359Z" fill="#50661a"/><path d="M519.12784,387.88614a80.50724,80.50724,0,0,1,10.03834,5.57125c3.18707,2.04023,6.27055,4.19705,9.27683,6.44816,3.01491,2.238,5.94638,4.57122,8.82605,6.98214,2.90941,2.39023,5.65769,4.87974,8.6678,7.34521a24.27146,24.27146,0,0,1-5.62076-1.64029,54.967,54.967,0,0,1-5.21938-2.51276,85.66607,85.66607,0,0,1-9.59189-6.24178,98.90091,98.90091,0,0,1-8.71384-7.35337A62.64382,62.64382,0,0,1,519.12784,387.88614Z" fill="#50661a"/><path d="M516.12252,397.43229a82.79766,82.79766,0,0,1,10.90057,5.18012c3.481,1.93922,6.85943,4.02142,10.16015,6.21318q4.9518,3.28667,9.66478,6.91189,2.35578,1.81772,4.66647,3.70078a41.58193,41.58193,0,0,0,4.737,3.62716,9.14987,9.14987,0,0,1-3.06239-.52594c-.9869-.29228-1.945-.64786-2.89262-1.01772-1.88989-.75025-3.716-1.60839-5.50711-2.51773a104.51287,104.51287,0,0,1-10.32512-6.09108,118.03074,118.03074,0,0,1-9.61059-7.12241A73.05108,73.05108,0,0,1,516.12252,397.43229Z" fill="#50661a"/><path d="M549.57616,361.753a48.85975,48.85975,0,0,1,1.40891-9.45366,82.09862,82.09862,0,0,1,2.71711-8.97507,80.80973,80.80973,0,0,1,3.70785-8.61289,48.334,48.334,0,0,1,5.02853-8.12975,48.33936,48.33936,0,0,1-1.4022,9.45593,80.811,80.811,0,0,1-2.72382,8.9728,82.21323,82.21323,0,0,1-3.71409,8.61061A48.86026,48.86026,0,0,1,549.57616,361.753Z" fill="#50661a"/><path d="M551.67178,372.79175a49.92673,49.92673,0,0,1,2.71327-9.27688,84.07331,84.07331,0,0,1,3.94571-8.62734,82.67483,82.67483,0,0,1,4.87891-8.13581,49.39414,49.39414,0,0,1,6.12332-7.48008,49.395,49.395,0,0,1-2.707,9.28,82.77347,82.77347,0,0,1-3.952,8.62422,84.174,84.174,0,0,1-4.88466,8.13269A49.98912,49.98912,0,0,1,551.67178,372.79175Z" fill="#50661a"/><path d="M553.25764,383.46664a54.68756,54.68756,0,0,1,3.9716-9.31334,92.6758,92.6758,0,0,1,5.12587-8.53322,91.04771,91.04771,0,0,1,6.00009-7.94273,54.07539,54.07539,0,0,1,7.16538-7.1552,54.06882,54.06882,0,0,1-3.96633,9.31711,90.93642,90.93642,0,0,1-5.13162,8.52946,92.57721,92.57721,0,0,1-6.00536,7.93907A54.691,54.691,0,0,1,553.25764,383.46664Z" fill="#50661a"/><path d="M554.41958,395.24388a70.51877,70.51877,0,0,1,5.686-9.99573q3.17-4.73088,6.765-9.11384,3.58293-4.3928,7.58115-8.44643a69.42425,69.42425,0,0,1,8.6702-7.55621,69.41746,69.41746,0,0,1-5.6807,9.99992q-3.17,4.73061-6.76976,9.10964-3.59157,4.38642-7.58643,8.44224A70.433,70.433,0,0,1,554.41958,395.24388Z" fill="#50661a"/><path d="M555.36285,407.45637a71.21479,71.21479,0,0,1,6.73331-9.39576q3.66421-4.39863,7.71542-8.40693,4.03971-4.01946,8.45776-7.65859a70.13836,70.13836,0,0,1,9.449-6.6603,70.14259,70.14259,0,0,1-6.72852,9.40043q-3.66422,4.39818-7.71974,8.40225-4.04762,4.01218-8.46256,7.65386A71.18684,71.18684,0,0,1,555.36285,407.45637Z" fill="#50661a"/><path d="M555.93686,415.28706a62.06464,62.06464,0,0,1,7.31549-7.943,105.74117,105.74117,0,0,1,8.15564-6.8315,103.87085,103.87085,0,0,1,8.79153-5.99037,61.35311,61.35311,0,0,1,9.64032-4.8683,61.369,61.369,0,0,1-7.31164,7.94825,103.95126,103.95126,0,0,1-8.15949,6.82622,105.81561,105.81561,0,0,1-8.79584,5.985A62.07589,62.07589,0,0,1,555.93686,415.28706Z" fill="#50661a"/><path d="M556.25145,421.828a65.69855,65.69855,0,0,1,8.54647-7.106q4.48281-3.18676,9.23847-5.89651,4.74822-2.72307,9.76212-4.98123a64.93082,64.93082,0,0,1,10.46083-3.76024,64.93714,64.93714,0,0,1-8.5436,7.11173q-4.4828,3.18642-9.24134,5.89075-4.75326,2.71436-9.76548,4.97554A65.71223,65.71223,0,0,1,556.25145,421.828Z" fill="#50661a"/><path d="M556.00736,426.07062a70.95638,70.95638,0,0,1,9.999-5.75935c3.43068-1.65623,6.92849-3.13192,10.48337-4.45295q5.33159-1.98334,10.84973-3.46424a69.92107,69.92107,0,0,1,11.33936-2.14525,69.92137,69.92137,0,0,1-9.99663,5.76558q-5.14672,2.48382-10.48576,4.44672c-3.55679,1.31587-7.17114,2.47722-10.85213,3.458A70.945,70.945,0,0,1,556.00736,426.07062Z" fill="#50661a"/><path d="M557.7752,425.88738l-.8418-.50586c.23681-.39355,23.70752-39.50781,27.36181-49.2539l.91993.3457C581.5291,386.30242,558.74346,424.27605,557.7752,425.88738Z" fill="#5e7c24"/><path d="M576.80012,355.61766a42.191,42.191,0,0,1,2.26874,7.60423,71.08783,71.08783,0,0,1,1.15954,7.70979,69.67358,69.67358,0,0,1,.31938,7.78963,41.62178,41.62178,0,0,1-.80084,7.89615,41.65872,41.65872,0,0,1-2.274-7.60381,69.78714,69.78714,0,0,1-1.15427-7.71026,71.0889,71.0889,0,0,1-.3141-7.79012A42.15411,42.15411,0,0,1,576.80012,355.61766Z" fill="#5e7c24"/><path d="M568.1376,367.46192a40.244,40.244,0,0,1,2.94393,7.1697,67.58626,67.58626,0,0,1,1.84961,7.37986,66.55667,66.55667,0,0,1,1.021,7.539,39.80387,39.80387,0,0,1-.0844,7.75121,39.76642,39.76642,0,0,1-2.94921-7.16868,66.55629,66.55629,0,0,1-1.84434-7.38094,67.69992,67.69992,0,0,1-1.01568-7.54A40.28166,40.28166,0,0,1,568.1376,367.46192Z" fill="#5e7c24"/><path d="M563.36467,381.25074a34.14665,34.14665,0,0,1,2.50611,6.6642,56.72709,56.72709,0,0,1,1.4022,6.82172,55.77729,55.77729,0,0,1,.5673,6.9409,33.716,33.716,0,0,1-.54668,7.09992,33.71716,33.71716,0,0,1-2.51139-6.66347,55.6849,55.6849,0,0,1-1.39692-6.82245,56.72835,56.72835,0,0,1-.562-6.94168A34.11416,34.11416,0,0,1,563.36467,381.25074Z" fill="#5e7c24"/><path d="M557.354,395.01408a26.14115,26.14115,0,0,1,2.54111,5.6713,42.60077,42.60077,0,0,1,1.44248,5.861,41.81123,41.81123,0,0,1,.61142,6.00446,25.8381,25.8381,0,0,1-.49729,6.19592,25.81843,25.81843,0,0,1-2.54639-5.6704,41.88125,41.88125,0,0,1-1.43768-5.86186,42.67,42.67,0,0,1-.60615-6.00536A26.14074,26.14074,0,0,1,557.354,395.01408Z" fill="#5e7c24"/><path d="M552.05073,403.61667a23.53536,23.53536,0,0,1,2.68259,4.97961,40.58292,40.58292,0,0,1,1.68656,5.16567,46.37181,46.37181,0,0,1,1.01856,5.29743c.11029.89915.21148,1.79326.27861,2.70464a20.12939,20.12939,0,0,0,.29636,2.76938,5.436,5.436,0,0,1-.65218-.41169l-.52942-.5305a9.78963,9.78963,0,0,1-.926-1.15822,18.55163,18.55163,0,0,1-1.42378-2.47794,27.59349,27.59349,0,0,1-1.86831-5.225,30.92871,30.92871,0,0,1-.87949-5.44046A20.48119,20.48119,0,0,1,552.05073,403.61667Z" fill="#5e7c24"/><path d="M581.95093,382.38181a33.83315,33.83315,0,0,1,5.97515-5.18132,55.37192,55.37192,0,0,1,6.60432-3.93822,54.39958,54.39958,0,0,1,7.081-2.99734,33.44563,33.44563,0,0,1,7.7159-1.74237,33.4369,33.4369,0,0,1-5.97179,5.18725,54.40336,54.40336,0,0,1-6.60767,3.93228,55.34762,55.34762,0,0,1-7.08386,2.99141A33.83015,33.83015,0,0,1,581.95093,382.38181Z" fill="#5e7c24"/><path d="M576.08176,393.34436a41.67748,41.67748,0,0,1,7.36967-4.82442,69.39342,69.39342,0,0,1,7.85977-3.52005,68.14871,68.14871,0,0,1,8.23046-2.533,41.20271,41.20271,0,0,1,8.72486-1.21619,41.21083,41.21083,0,0,1-7.36679,4.83065,68.16053,68.16053,0,0,1-7.86216,3.51382,69.376,69.376,0,0,1-8.23286,2.52673A41.67772,41.67772,0,0,1,576.08176,393.34436Z" fill="#5e7c24"/><path d="M569.17294,405.52964a35.54166,35.54166,0,0,1,6.64316-4.65784,58.40721,58.40721,0,0,1,7.15-3.35982,57.37229,57.37229,0,0,1,7.5332-2.37747,35.13068,35.13068,0,0,1,8.04439-1.067,35.14336,35.14336,0,0,1-6.64076,4.664,57.3812,57.3812,0,0,1-7.15243,3.35364,58.41494,58.41494,0,0,1-7.5356,2.3713A35.541,35.541,0,0,1,569.17294,405.52964Z" fill="#5e7c24"/><path d="M563.71282,414.90867a26.64518,26.64518,0,0,1,5.83464-3.84315,42.5534,42.5534,0,0,1,6.25089-2.51336,41.79035,41.79035,0,0,1,6.56643-1.5071,26.36179,26.36179,0,0,1,6.98651-.16466,26.36018,26.36018,0,0,1-5.83272,3.84944,41.78693,41.78693,0,0,1-6.25329,2.50707,42.53154,42.53154,0,0,1-6.56786,1.50068A26.65885,26.65885,0,0,1,563.71282,414.90867Z" fill="#5e7c24"/><path d="M559.40266,423.32435a35.04538,35.04538,0,0,1,6.41345-4.873A57.51541,57.51541,0,0,1,572.783,414.857a56.51391,56.51391,0,0,1,7.386-2.62672,34.65132,34.65132,0,0,1,7.94464-1.33578,34.63861,34.63861,0,0,1-6.41057,4.87915,56.49165,56.49165,0,0,1-6.96973,3.58832,57.50609,57.50609,0,0,1-7.38837,2.62049A35.04467,35.04467,0,0,1,559.40266,423.32435Z" fill="#5e7c24"/><path d="M583.85809,377.71516a24.6664,24.6664,0,0,1,.19134-7.87637,37.11331,37.11331,0,0,1,2.0069-7.16538,36.50469,36.50469,0,0,1,3.38224-6.62685,24.42012,24.42012,0,0,1,5.216-5.90909,24.40552,24.40552,0,0,1-.18223,7.87972,36.53706,36.53706,0,0,1-2.01553,7.162,37.11647,37.11647,0,0,1-3.39136,6.62343A24.67036,24.67036,0,0,1,583.85809,377.71516Z" fill="#5e7c24"/><path d="M166.84307,425.88738l-.8418-.50586c.23682-.39355,23.70752-39.50781,27.36182-49.2539l.91992.3457C190.597,386.30242,167.81133,424.27605,166.84307,425.88738Z" fill="#8b9d36"/><path d="M185.868,355.61766a42.1918,42.1918,0,0,1,2.26873,7.60423,71.09032,71.09032,0,0,1,1.15955,7.70979,69.67358,69.67358,0,0,1,.31937,7.78963,41.621,41.621,0,0,1-.80084,7.89615,41.65951,41.65951,0,0,1-2.274-7.60381,69.79188,69.79188,0,0,1-1.15427-7.71026,71.0889,71.0889,0,0,1-.3141-7.79012A42.15413,42.15413,0,0,1,185.868,355.61766Z" fill="#8b9d36"/><path d="M177.20547,367.46192a40.244,40.244,0,0,1,2.94394,7.1697,67.58855,67.58855,0,0,1,1.84961,7.37986,66.55665,66.55665,0,0,1,1.02095,7.539,39.80387,39.80387,0,0,1-.0844,7.75121,39.76715,39.76715,0,0,1-2.94921-7.16868,66.55624,66.55624,0,0,1-1.84433-7.38094,67.69757,67.69757,0,0,1-1.01568-7.54A40.28245,40.28245,0,0,1,177.20547,367.46192Z" fill="#8b9d36"/><path d="M172.43255,381.25074a34.14729,34.14729,0,0,1,2.50611,6.6642,56.72705,56.72705,0,0,1,1.40219,6.82172,55.77538,55.77538,0,0,1,.5673,6.9409,33.71528,33.71528,0,0,1-.54668,7.09992,33.71711,33.71711,0,0,1-2.51138-6.66347,55.68116,55.68116,0,0,1-1.39692-6.82245,56.72638,56.72638,0,0,1-.562-6.94168A34.11347,34.11347,0,0,1,172.43255,381.25074Z" fill="#8b9d36"/><path d="M166.42191,395.01408a26.14167,26.14167,0,0,1,2.54112,5.6713,42.59929,42.59929,0,0,1,1.44247,5.861,41.8098,41.8098,0,0,1,.61142,6.00446,25.83808,25.83808,0,0,1-.49728,6.19592,25.81847,25.81847,0,0,1-2.5464-5.6704,41.88265,41.88265,0,0,1-1.43768-5.86186,42.66855,42.66855,0,0,1-.60614-6.00536A26.14125,26.14125,0,0,1,166.42191,395.01408Z" fill="#8b9d36"/><path d="M161.11861,403.61667a23.53531,23.53531,0,0,1,2.68258,4.97961,40.57975,40.57975,0,0,1,1.68656,5.16567,46.36964,46.36964,0,0,1,1.01856,5.29743c.1103.89915.21148,1.79326.27862,2.70464a20.12629,20.12629,0,0,0,.29636,2.76938,5.43682,5.43682,0,0,1-.65219-.41169l-.52942-.5305a9.78963,9.78963,0,0,1-.926-1.15822,18.55046,18.55046,0,0,1-1.42377-2.47794,27.59352,27.59352,0,0,1-1.86832-5.225,30.92777,30.92777,0,0,1-.87948-5.44046A20.4808,20.4808,0,0,1,161.11861,403.61667Z" fill="#8b9d36"/><path d="M191.01881,382.38181a33.83244,33.83244,0,0,1,5.97515-5.18132,55.3718,55.3718,0,0,1,6.60431-3.93822,54.39958,54.39958,0,0,1,7.081-2.99734,33.4456,33.4456,0,0,1,7.71591-1.74237,33.43661,33.43661,0,0,1-5.9718,5.18725,54.40259,54.40259,0,0,1-6.60767,3.93228,55.34762,55.34762,0,0,1-7.08386,2.99141A33.83006,33.83006,0,0,1,191.01881,382.38181Z" fill="#8b9d36"/><path d="M185.14964,393.34436a41.67712,41.67712,0,0,1,7.36967-4.82442,69.39248,69.39248,0,0,1,7.85976-3.52005,68.14927,68.14927,0,0,1,8.23046-2.533,41.2029,41.2029,0,0,1,8.72487-1.21619,41.21083,41.21083,0,0,1-7.36679,4.83065,68.16143,68.16143,0,0,1-7.86217,3.51382,69.37643,69.37643,0,0,1-8.23285,2.52673A41.67791,41.67791,0,0,1,185.14964,393.34436Z" fill="#8b9d36"/><path d="M178.24081,405.52964a35.542,35.542,0,0,1,6.64316-4.65784,58.40734,58.40734,0,0,1,7.15-3.35982,57.37167,57.37167,0,0,1,7.53319-2.37747,35.13075,35.13075,0,0,1,8.04439-1.067,35.14329,35.14329,0,0,1-6.64075,4.664,57.38133,57.38133,0,0,1-7.15244,3.35364,58.4143,58.4143,0,0,1-7.53559,2.3713A35.54106,35.54106,0,0,1,178.24081,405.52964Z" fill="#8b9d36"/><path d="M172.7807,414.90867a26.6447,26.6447,0,0,1,5.83464-3.84315,42.553,42.553,0,0,1,6.25089-2.51336,41.79035,41.79035,0,0,1,6.56643-1.5071,26.36179,26.36179,0,0,1,6.98651-.16466,26.36064,26.36064,0,0,1-5.83272,3.84944,41.78736,41.78736,0,0,1-6.25329,2.50707,42.53167,42.53167,0,0,1-6.56787,1.50068A26.65876,26.65876,0,0,1,172.7807,414.90867Z" fill="#8b9d36"/><path d="M168.47053,423.32435a35.04544,35.04544,0,0,1,6.41346-4.873,57.51394,57.51394,0,0,1,6.96685-3.59432,56.51377,56.51377,0,0,1,7.386-2.62672,34.6515,34.6515,0,0,1,7.94465-1.33578,34.63867,34.63867,0,0,1-6.41058,4.87915,56.49165,56.49165,0,0,1-6.96973,3.58832,57.50555,57.50555,0,0,1-7.38837,2.62049A35.04448,35.04448,0,0,1,168.47053,423.32435Z" fill="#8b9d36"/><path d="M192.926,377.71516a24.66668,24.66668,0,0,1,.19134-7.87637,37.11331,37.11331,0,0,1,2.0069-7.16538,36.5041,36.5041,0,0,1,3.38225-6.62685,24.42007,24.42007,0,0,1,5.216-5.90909,24.40553,24.40553,0,0,1-.18222,7.87972,36.53708,36.53708,0,0,1-2.01554,7.162,37.11642,37.11642,0,0,1-3.39135,6.62343A24.67041,24.67041,0,0,1,192.926,377.71516Z" fill="#8b9d36"/><path d="M163.23711,427.49285l-.98242-.01562c.04345-2.6836,1.20849-65.95411,13.86474-85.99317l.83008.52539C164.43975,361.81609,163.24736,426.83855,163.23711,427.49285Z" fill="#50661a"/><path d="M172.468,350.52215a45.00674,45.00674,0,0,0,.29444-8.85674,79.62268,79.62268,0,0,0-.95717-8.59149c-.45845-2.83322-1.08234-5.63827-1.816-8.42-.73275-2.80007-1.65827-5.4941-2.6471-8.36365a12.27253,12.27253,0,0,0-.63348,2.202,19.62207,19.62207,0,0,0-.34623,2.2375,37.91663,37.91663,0,0,0-.19949,4.44168,57.02936,57.02936,0,0,0,.7994,8.705,63.26657,63.26657,0,0,0,2.01409,8.47586A39.85244,39.85244,0,0,0,172.468,350.52215Z" fill="#50661a"/><path d="M188.025,310.45653a31.82164,31.82164,0,0,0-5.5402,7.11839,50.02721,50.02721,0,0,0-3.71313,7.80216,49.16117,49.16117,0,0,0-2.3306,8.31971,31.47921,31.47921,0,0,0-.48626,9.01,31.47858,31.47858,0,0,0,5.54884-7.11515,49.115,49.115,0,0,0,3.70449-7.80546,50.02611,50.02611,0,0,0,2.322-8.32295A31.8059,31.8059,0,0,0,188.025,310.45653Z" fill="#50661a"/><path d="M198.45513,326.58164a73.308,73.308,0,0,0-7.29582,6.72252c-2.25482,2.33743-4.40655,4.72713-6.51176,7.12978l-6.25472,7.178c-1.04925,1.17543-2.10953,2.33365-3.22975,3.43073a14.74739,14.74739,0,0,1-3.81671,2.88322,6.62514,6.62514,0,0,0,2.61209-.06624,12.22916,12.22916,0,0,0,2.51666-.79155,24.30464,24.30464,0,0,0,4.48232-2.57007,43.99266,43.99266,0,0,0,7.38358-6.83072,58.28773,58.28773,0,0,0,5.86725-8.01538A41.71534,41.71534,0,0,0,198.45513,326.58164Z" fill="#50661a"/><path d="M198.45513,342.70675a60.38126,60.38126,0,0,0-9.06966,5.5782,102.74649,102.74649,0,0,0-8.13742,6.61367,101.01044,101.01044,0,0,0-7.432,7.3973,59.70051,59.70051,0,0,0-6.49066,8.44259,59.679,59.679,0,0,0,9.07445-5.57328,100.93862,100.93862,0,0,0,8.13311-6.61858,102.74622,102.74622,0,0,0,7.42722-7.40222A60.37478,60.37478,0,0,0,198.45513,342.70675Z" fill="#50661a"/><path d="M197.39438,355.35862a59.70718,59.70718,0,0,0-9.16318,5.29911,101.5457,101.5457,0,0,0-8.25874,6.35848,99.79692,99.79692,0,0,0-7.57348,7.16017,59.03565,59.03565,0,0,0-6.65946,8.22956,59.00735,59.00735,0,0,0,9.168-5.294,99.73505,99.73505,0,0,0,8.254-6.36352,101.54164,101.54164,0,0,0,7.56916-7.16521A59.67673,59.67673,0,0,0,197.39438,355.35862Z" fill="#50661a"/><path d="M196.68753,368.88231A55.50914,55.50914,0,0,0,187.509,373.335a94.003,94.003,0,0,0-8.34507,5.569,92.43533,92.43533,0,0,0-7.714,6.41406,54.85118,54.85118,0,0,0-6.87238,7.54116,54.90133,54.90133,0,0,0,9.18235-4.44731,92.43088,92.43088,0,0,0,8.34123-5.57443,94.06562,94.06562,0,0,0,7.70967-6.41939A55.5093,55.5093,0,0,0,196.68753,368.88231Z" fill="#50661a"/><path d="M197.39438,378.69359a61.75788,61.75788,0,0,0-9.6034,4.876,105.19686,105.19686,0,0,0-8.76083,5.98576,103.34519,103.34519,0,0,0-8.12352,6.82568,61.03236,61.03236,0,0,0-7.27232,7.94591,61.03686,61.03686,0,0,0,9.60723-4.8707,103.34824,103.34824,0,0,0,8.757-5.99109,105.18178,105.18178,0,0,0,8.1192-6.831A61.75338,61.75338,0,0,0,197.39438,378.69359Z" fill="#50661a"/><path d="M199.86932,387.88614a80.50737,80.50737,0,0,0-10.03835,5.57125c-3.18706,2.04023-6.27055,4.19705-9.27683,6.44816-3.0149,2.238-5.94637,4.57122-8.826,6.98214-2.90941,2.39023-5.65769,4.87974-8.6678,7.34521a24.27117,24.27117,0,0,0,5.62076-1.64029,54.9672,54.9672,0,0,0,5.21939-2.51276,85.667,85.667,0,0,0,9.59189-6.24178,98.90078,98.90078,0,0,0,8.71383-7.35337A62.64323,62.64323,0,0,0,199.86932,387.88614Z" fill="#50661a"/><path d="M202.87463,397.43229a82.79826,82.79826,0,0,0-10.90057,5.18012c-3.481,1.93922-6.85943,4.02142-10.16015,6.21318q-4.95179,3.28667-9.66478,6.91189-2.35577,1.81772-4.66646,3.70078a41.5837,41.5837,0,0,1-4.737,3.62716,9.14986,9.14986,0,0,0,3.06238-.52594c.98691-.29228,1.945-.64786,2.89263-1.01772,1.88989-.75025,3.716-1.60839,5.50711-2.51773a104.51156,104.51156,0,0,0,10.32511-6.09108,118.03074,118.03074,0,0,0,9.61059-7.12241A73.04957,73.04957,0,0,0,202.87463,397.43229Z" fill="#50661a"/><path d="M169.421,361.753a48.86051,48.86051,0,0,0-1.4089-9.45366,82.10082,82.10082,0,0,0-2.71711-8.97507,80.8098,80.8098,0,0,0-3.70786-8.61289,48.33391,48.33391,0,0,0-5.02852-8.12975,48.33861,48.33861,0,0,0,1.40219,9.45593,80.81109,80.81109,0,0,0,2.72383,8.9728,82.21316,82.21316,0,0,0,3.71408,8.61061A48.86026,48.86026,0,0,0,169.421,361.753Z" fill="#50661a"/><path d="M167.32538,372.79175a49.926,49.926,0,0,0-2.71328-9.27688,84.07331,84.07331,0,0,0-3.94571-8.62734,82.67473,82.67473,0,0,0-4.8789-8.13581,49.39421,49.39421,0,0,0-6.12333-7.48008,49.39507,49.39507,0,0,0,2.707,9.28,82.77547,82.77547,0,0,0,3.95194,8.62422,84.17807,84.17807,0,0,0,4.88466,8.13269A49.9892,49.9892,0,0,0,167.32538,372.79175Z" fill="#50661a"/><path d="M165.73952,383.46664a54.68759,54.68759,0,0,0-3.97161-9.31334,92.67357,92.67357,0,0,0-5.12587-8.53322,91.0476,91.0476,0,0,0-6.00008-7.94273,54.07487,54.07487,0,0,0-7.16539-7.1552,54.07038,54.07038,0,0,0,3.96633,9.31711,90.93865,90.93865,0,0,0,5.13163,8.52946,92.57308,92.57308,0,0,0,6.00536,7.93907A54.691,54.691,0,0,0,165.73952,383.46664Z" fill="#50661a"/><path d="M164.57758,395.24388a70.51882,70.51882,0,0,0-5.686-9.99573q-3.17-4.73088-6.765-9.11384-3.58293-4.3928-7.58115-8.44643a69.42353,69.42353,0,0,0-8.6702-7.55621,69.41751,69.41751,0,0,0,5.68071,9.99992q3.17,4.73061,6.76976,9.10964,3.59155,4.38642,7.58642,8.44224A70.43231,70.43231,0,0,0,164.57758,395.24388Z" fill="#50661a"/><path d="M163.63431,407.45637a71.21571,71.21571,0,0,0-6.73331-9.39576q-3.66422-4.39863-7.71543-8.40693-4.0397-4.01946-8.45776-7.65859a70.13825,70.13825,0,0,0-9.449-6.6603,70.14163,70.14163,0,0,0,6.72851,9.40043q3.66422,4.39818,7.71974,8.40225,4.04762,4.01218,8.46256,7.65386A71.18694,71.18694,0,0,0,163.63431,407.45637Z" fill="#50661a"/><path d="M163.06029,415.28706a62.06529,62.06529,0,0,0-7.31548-7.943,105.74132,105.74132,0,0,0-8.15565-6.8315,103.87229,103.87229,0,0,0-8.79152-5.99037,61.35322,61.35322,0,0,0-9.64033-4.8683,61.36978,61.36978,0,0,0,7.31165,7.94825,103.95111,103.95111,0,0,0,8.15948,6.82622,105.81728,105.81728,0,0,0,8.79584,5.985A62.07634,62.07634,0,0,0,163.06029,415.28706Z" fill="#50661a"/><path d="M162.74571,421.828a65.69863,65.69863,0,0,0-8.54648-7.106q-4.4828-3.18676-9.23846-5.89651-4.74823-2.72307-9.76213-4.98123a64.93047,64.93047,0,0,0-10.46083-3.76024,64.9378,64.9378,0,0,0,8.5436,7.11173q4.48281,3.18642,9.24134,5.89075,4.75328,2.71436,9.76549,4.97554A65.71152,65.71152,0,0,0,162.74571,421.828Z" fill="#50661a"/><path d="M162.9898,426.07062a70.95591,70.95591,0,0,0-9.999-5.75935c-3.43067-1.65623-6.92848-3.13192-10.48336-4.45295q-5.3316-1.98334-10.84974-3.46424a69.92067,69.92067,0,0,0-11.33936-2.14525,69.92247,69.92247,0,0,0,9.99663,5.76558q5.14673,2.48382,10.48576,4.44672c3.5568,1.31587,7.17114,2.47722,10.85214,3.458A70.94457,70.94457,0,0,0,162.9898,426.07062Z" fill="#50661a"/><path d="M161.27178,425.73309c-.96826-1.61133-23.7544-39.58594-27.44043-49.41407l.91992-.3457c3.6543,9.74512,27.12549,48.86035,27.3623,49.25391Z" fill="#5e7c24"/><path d="M142.197,355.61766a42.1918,42.1918,0,0,0-2.26873,7.60423,71.09032,71.09032,0,0,0-1.15955,7.70979,69.676,69.676,0,0,0-.31938,7.78963,41.6218,41.6218,0,0,0,.80085,7.89615,41.6603,41.6603,0,0,0,2.274-7.60381,69.78948,69.78948,0,0,0,1.15426-7.71026,71.0889,71.0889,0,0,0,.31411-7.79012A42.15413,42.15413,0,0,0,142.197,355.61766Z" fill="#5e7c24"/><path d="M150.85956,367.46192a40.244,40.244,0,0,0-2.94394,7.1697,67.58855,67.58855,0,0,0-1.84961,7.37986,66.55665,66.55665,0,0,0-1.02095,7.539,39.80309,39.80309,0,0,0,.0844,7.75121,39.76715,39.76715,0,0,0,2.94921-7.16868,66.55624,66.55624,0,0,0,1.84433-7.38094,67.69757,67.69757,0,0,0,1.01568-7.54A40.28245,40.28245,0,0,0,150.85956,367.46192Z" fill="#5e7c24"/><path d="M155.63248,381.25074a34.14729,34.14729,0,0,0-2.50611,6.6642,56.72705,56.72705,0,0,0-1.40219,6.82172,55.77538,55.77538,0,0,0-.5673,6.9409,33.71528,33.71528,0,0,0,.54668,7.09992,33.71711,33.71711,0,0,0,2.51138-6.66347,55.683,55.683,0,0,0,1.39692-6.82245,56.72638,56.72638,0,0,0,.562-6.94168A34.11347,34.11347,0,0,0,155.63248,381.25074Z" fill="#5e7c24"/><path d="M161.64312,395.01408a26.14167,26.14167,0,0,0-2.54112,5.6713,42.59929,42.59929,0,0,0-1.44247,5.861,41.81123,41.81123,0,0,0-.61143,6.00446,25.83861,25.83861,0,0,0,.49729,6.19592,25.81847,25.81847,0,0,0,2.5464-5.6704,41.88265,41.88265,0,0,0,1.43768-5.86186,42.66855,42.66855,0,0,0,.60614-6.00536A26.14125,26.14125,0,0,0,161.64312,395.01408Z" fill="#5e7c24"/><path d="M166.94642,403.61667a23.53486,23.53486,0,0,0-2.68258,4.97961,40.58139,40.58139,0,0,0-1.68657,5.16567,46.37178,46.37178,0,0,0-1.01855,5.29743c-.1103.89915-.21148,1.79326-.27862,2.70464a20.12629,20.12629,0,0,1-.29636,2.76938,5.43682,5.43682,0,0,0,.65219-.41169l.52941-.5305a9.78973,9.78973,0,0,0,.926-1.15822,18.55046,18.55046,0,0,0,1.42377-2.47794,27.59352,27.59352,0,0,0,1.86832-5.225,30.92777,30.92777,0,0,0,.87948-5.44046A20.4808,20.4808,0,0,0,166.94642,403.61667Z" fill="#5e7c24"/><path d="M137.04622,382.38181a33.83279,33.83279,0,0,0-5.97515-5.18132,55.3718,55.3718,0,0,0-6.60431-3.93822,54.40016,54.40016,0,0,0-7.081-2.99734,33.44572,33.44572,0,0,0-7.71591-1.74237,33.43661,33.43661,0,0,0,5.9718,5.18725,54.40259,54.40259,0,0,0,6.60767,3.93228,55.34762,55.34762,0,0,0,7.08386,2.99141A33.83006,33.83006,0,0,0,137.04622,382.38181Z" fill="#5e7c24"/><path d="M142.91539,393.34436a41.67712,41.67712,0,0,0-7.36967-4.82442,69.39183,69.39183,0,0,0-7.85977-3.52005,68.14856,68.14856,0,0,0-8.23045-2.533,41.2029,41.2029,0,0,0-8.72487-1.21619,41.21083,41.21083,0,0,0,7.36679,4.83065,68.16143,68.16143,0,0,0,7.86217,3.51382,69.37643,69.37643,0,0,0,8.23285,2.52673A41.67791,41.67791,0,0,0,142.91539,393.34436Z" fill="#5e7c24"/><path d="M149.82422,405.52964a35.542,35.542,0,0,0-6.64316-4.65784,58.40734,58.40734,0,0,0-7.15-3.35982,57.37167,57.37167,0,0,0-7.53319-2.37747,35.13076,35.13076,0,0,0-8.0444-1.067,35.14368,35.14368,0,0,0,6.64076,4.664,57.38133,57.38133,0,0,0,7.15244,3.35364,58.4143,58.4143,0,0,0,7.53559,2.3713A35.54106,35.54106,0,0,0,149.82422,405.52964Z" fill="#5e7c24"/><path d="M155.28433,414.90867a26.6447,26.6447,0,0,0-5.83464-3.84315,42.553,42.553,0,0,0-6.25089-2.51336,41.79035,41.79035,0,0,0-6.56643-1.5071,26.36179,26.36179,0,0,0-6.98651-.16466,26.36064,26.36064,0,0,0,5.83272,3.84944,41.78736,41.78736,0,0,0,6.25329,2.50707,42.53167,42.53167,0,0,0,6.56787,1.50068A26.65876,26.65876,0,0,0,155.28433,414.90867Z" fill="#5e7c24"/><path d="M159.5945,423.32435a35.04544,35.04544,0,0,0-6.41346-4.873,57.51394,57.51394,0,0,0-6.96685-3.59432,56.51377,56.51377,0,0,0-7.386-2.62672,34.6515,34.6515,0,0,0-7.94465-1.33578,34.63867,34.63867,0,0,0,6.41058,4.87915,56.49165,56.49165,0,0,0,6.96973,3.58832,57.50555,57.50555,0,0,0,7.38837,2.62049A35.04448,35.04448,0,0,0,159.5945,423.32435Z" fill="#5e7c24"/><path d="M135.13907,377.71516a24.66668,24.66668,0,0,0-.19134-7.87637,37.114,37.114,0,0,0-2.00691-7.16538,36.50341,36.50341,0,0,0-3.38224-6.62685,24.42007,24.42007,0,0,0-5.216-5.90909,24.40553,24.40553,0,0,0,.18222,7.87972,36.53708,36.53708,0,0,0,2.01554,7.162,37.11642,37.11642,0,0,0,3.39135,6.62343A24.67041,24.67041,0,0,0,135.13907,377.71516Z" fill="#5e7c24"/><path d="M519.5678,173.739a7.39442,7.39442,0,0,1,1.88843-2.063,7.31842,7.31842,0,0,1,2.4729-1.30616,7.31194,7.31194,0,0,1-1.88849,2.063A7.395,7.395,0,0,1,519.5678,173.739Z" fill="#dd765e"/><path d="M512.07256,175.29705a4.40407,4.40407,0,0,1,1.09326,1.35742,6.65767,6.65767,0,0,1,.63171,1.61865,5.82026,5.82026,0,0,1-.13433,3.437c-.18439-.5669-.28846-1.105-.419-1.63623-.12274-.53028-.2417-1.05323-.37488-1.57227C512.62218,177.45281,512.3319,176.43719,512.07256,175.29705Z" fill="#dd765e"/><path d="M513.10338,173.55779c1.21314.7041,2.25763,1.52442,3.33222,2.29444.52581.39941,1.06286.77392,1.605,1.13623a10.06833,10.06833,0,0,0,1.74823.96289,3.81348,3.81348,0,0,1-2.08893-.29883,8.11589,8.11589,0,0,1-1.82922-1.02881,10.899,10.899,0,0,1-1.5431-1.38476A7.96854,7.96854,0,0,1,513.10338,173.55779Z" fill="#dd765e"/><path d="M325.04835,234.9303s.1092,12.18578,58.14451,33.79476C383.19286,268.72506,365.7222,230.20229,325.04835,234.9303Z" fill="#e6952a"/><path d="M418.9519,399.48851l3.84386,22.63989s11.03753,2.1013,16.12289-12.98866l-3.95789-13.163Z" fill="#f9977a"/><path d="M420.22618,407.00792s-9.74718,12.92226-3.92786,20.205a3.11639,3.11639,0,0,0,2.5424,1.15192l50.12275-1.71873a1.635,1.635,0,0,0,1.55667-1.873c-.36265-2.58869-20.049-7.37977-31.96445-17.044C438.55569,407.72911,425.13363,413.41239,420.22618,407.00792Z" fill="#376f92"/><path d="M237.06528,282.10053l-20.30746-13.2222s-9.8895,9.87939.25,23.51868l12.673,6.37883Z" fill="#f9977a"/><path d="M227.49225,275.91527s-8.41-15.09-18.03-12.55081a3.32613,3.32613,0,0,0-2.2213,1.985l-19.945,49.672a1.745,1.745,0,0,0,1.15691,2.32766c2.68357.76273,15.72508-16.61089,30.29974-24.07387C218.75269,293.27529,219.123,277.94313,227.49225,275.91527Z" fill="#376f92"/><path d="M271.64975,212.92244s4.11376-5.8995,6.95284-6.77883,78.09492-14.918,78.09492-14.918L349.562,170.37s-59.78671,22.56129-67.36725,22.99844-15.8517-4.59174-17.15346-3.90665.42979,2.02818,5.96425,4.62619c0,0-13.1329.44451-12.277,1.72469s7.3055,1.50655,7.3055,1.50655-9.188,1.45009-8.91643,2.22564,3.94493,1.00559,11.761,1.0593c0,0-12.11623,3.03485-10.96487,5.2611,0,0,9.3827-1.30116,14.35068-1.81315,3.64688-.37584,1.62766,1.77217.29585,2.94116a7.4534,7.4534,0,0,0-2.15822,3.09328C269.97123,211.31234,269.96228,212.615,271.64975,212.92244Z" fill="#f9977a"/><path d="M432.51,196.8328l21.3347,12.32281,33.353-29.9349c2.96459-3.06336,3.96884-13.15343,4.49073-16.22735a1.43422,1.43422,0,0,1,2.63834-.52154,4.6366,4.6366,0,0,1,.30873.69847,7.45333,7.45333,0,0,1,.26068,3.76275c-.30339,1.74591-.52765,4.68545,2.076,2.10435,2.40485-2.38405,6.16228-6.32416,8.33252-8.6142a.9573.9573,0,0,1,1.567,1.0522,54.16976,54.16976,0,0,1-5.09963,8.12193c6.11935-4.8629,9.12384-6.98891,9.82192-6.55546s-5.54575,7.3281-5.54575,7.3281,5.16372-3.871,6.63347-3.41131-8.47665,9.04685-8.47665,9.04685c5.93944-1.45013,8.13045-1.491,7.5468-.14068s-8.99534,4.63611-14.62327,9.73338c0,0-30.81584,44.04217-39.27058,45.0845-8.90677,1.09805-34.02661-16.959-34.02661-16.959" fill="#f9977a"/><path d="M445.63409,131.27559s5.01524-6.50263-13.26451-9.11809-18.79061,4.02564-21.98272,31.99644C410.38686,154.15394,434.15948,173.26724,445.63409,131.27559Z" fill="#1e1d22"/><path d="M430.93686,169.40533l-11.888,13.14213-11.64832.11282-3.66884-21.8929,6.65511-6.61344s15.924,4.52024,10.50662-6.35526c-2.031-4.07721.26729-11.24253,3.96088-6.11646,0,0,5.68229,3.98249,7.67194-1.51355s1.21815-8.17063,1.21815-8.17063,7.79357,1.51258,11.88964-.72245l1.94528,4.18634a7.36178,7.36178,0,0,1,.06391,6.0631l-.53844,1.22573,4.684,8.10283a1.52931,1.52931,0,0,1-.42069,2.00279c-.45473.33189-1.08163.81811-1.94311,1.53039a5.8683,5.8683,0,0,0-1.95469,4.44971l-6.219.6275s5.44133,4.37191,5.22076,5.25373C445.5934,168.23069,442.3921,174.82674,430.93686,169.40533Z" fill="#f9977a"/><path d="M438.80332,141.34959a.88937.88937,0,0,0,1.11481-.35025c1.63214-2.66443,6.57666-3.17568,8.34428-3.14737a.88961.88961,0,0,0,.02774-1.779c-.30065-.00413-7.39782-.06929-9.8886,3.99733a.8896.8896,0,0,0,.29377,1.22281A.87344.87344,0,0,0,438.80332,141.34959Z" fill="#1e1d22"/><path d="M444.9454,145.95849a.88995.88995,0,0,0,1.24357-.89028c-.00262-.0241-.20571-2.43156-.20349-4.49434a.8897.8897,0,0,0-1.7794-.0015c-.00175,2.14087.20177,4.54574.21,4.64738A.88931.88931,0,0,0,444.9454,145.95849Z" fill="#1e1d22"/><path d="M423.78413,161.10388c1.38587,4.625,7.15258,8.3014,7.15258,8.3014l-6.20312,6.841C422.6874,170.51817,423.78413,161.10388,423.78413,161.10388Z" fill="#dd765e"/><path d="M347.60076,170.37s38.52-13.80962,56.131-9.60258c0,0,13.97653,25.02669,16.00749,20.9866,0,0,3.31943,21.99118-17.52523,49.49654,0,0-17.31776,30.661-19.02115,37.47454,0,0-39.06874-33.80569-58.14451-33.79476,0,0,21.76423-11.99129,40.99285-44.17l-9.89535,1.25188Z" fill="#ffba55"/><path d="M266.87956,197.85866a27.84163,27.84163,0,0,0,4.735-.258,27.84182,27.84182,0,0,0-4.71975-.45886c-.91046-.0135-1.82122-.00267-2.73306.05194,1.1072.1219,1.94693.171,1.94693.171s-.88906.12021-2.10649.30916C264.96034,197.77813,265.91961,197.83211,266.87956,197.85866Z" fill="#dd765e"/><polyline points="406.549 172.69 434.611 194.401 421.415 218.862 405.332 205.646" fill="#ffba55"/><path d="M229.069,300.68548l8.51693-19.589S283.43,295.69,293.73224,296.52526c0,0,19.45932-31.66467,43.8405-58.44795,0,0,28.013,7.05692,45.62012,30.64775l35.57178,42.71859a17.01132,17.01132,0,0,1,3.56456,7.33131c3.481,16.28259,16.20534,75.54765,17.32119,77.08725,0,0-20.21135,4.55329-21.57078,4.14382,0,0-23.12679-64.53219-26.22238-71.919l-39.52189-38.76845s-40.42189,35.26392-47.5802,36.34443C296.07441,326.97332,249.57519,311.65922,229.069,300.68548Z" fill="#8b9d36"/><path d="M393.99187,162.60174a15.03713,15.03713,0,0,1,5.61206,5.1958,13.34339,13.34339,0,0,1,1.62756,3.52637,10.8802,10.8802,0,0,1,.43653,3.82421,22.99015,22.99015,0,0,0-1.14038-3.57568,19.8812,19.8812,0,0,0-1.72742-3.25732,27.54536,27.54536,0,0,0-2.2168-2.97217C395.76628,164.405,394.91948,163.47869,393.99187,162.60174Z" fill="#e6952a"/><path d="M366.04119,190.76043c2.34875-.44922,4.71569-.75928,7.08593-1.03369,2.36975-.28418,4.74891-.46875,7.12952-.62988,2.38171-.14209,4.76685-.24415,7.15442-.25049,2.387-.01612,4.776.03174,7.15955.2124-1.1908.12451-2.38038.16992-3.56836.28418l-3.56372.23877-7.12244.46924-7.1283.40527C370.80937,190.5783,368.43083,190.70379,366.04119,190.76043Z" fill="#e6952a"/><path d="M413.53337,212.38543c.50562-1.18359,1.02-2.35742,1.48426-3.55273.49048-1.18311.96179-2.37256,1.401-3.57325.88171-2.39843,1.71606-4.81054,2.3977-7.2622a47.52056,47.52056,0,0,0,1.52625-7.45264,22.23392,22.23392,0,0,0,.12427-3.79248,14.97944,14.97944,0,0,0-.609-3.76563,16.0232,16.0232,0,0,1,1.21814,7.6167,35.4722,35.4722,0,0,1-1.33924,7.65235,55.41976,55.41976,0,0,1-2.63952,7.27978A53.87467,53.87467,0,0,1,413.53337,212.38543Z" fill="#e6952a"/><path d="M352.33538,289.31854a45.33565,45.33565,0,0,1,5.288-4.57227,44.86124,44.86124,0,0,1,5.86353-3.80908,44.7036,44.7036,0,0,1-5.28809,4.57226A45.23066,45.23066,0,0,1,352.33538,289.31854Z" fill="#5e7c24"/><path d="M300.425,302.14471a5.25067,5.25067,0,0,1-2.266-.45948,8.34841,8.34841,0,0,1-1.96118-1.28564,11.74177,11.74177,0,0,1-1.59363-1.70264,13.24611,13.24611,0,0,1-1.28027-1.95508l.55029.22315a3.67908,3.67908,0,0,0-1.13562.72754,5.18978,5.18978,0,0,0-.90991,1.123,7.72847,7.72847,0,0,0-.63293,1.36376,13.2096,13.2096,0,0,0-.40149,1.50684,7.38409,7.38409,0,0,1,.02112-1.59521,5.8528,5.8528,0,0,1,.42151-1.57862,5.13152,5.13152,0,0,1,.91394-1.40869,3.94589,3.94589,0,0,1,1.43933-1.01807l.34655-.13427.204.35742a20.50413,20.50413,0,0,0,1.208,1.82129,16.69,16.69,0,0,0,1.411,1.67578,10.584,10.584,0,0,0,1.653,1.41895A6.71444,6.71444,0,0,0,300.425,302.14471Z" fill="#5e7c24"/><path d="M402.00957,326.20818a17.17135,17.17135,0,0,1-2.42493.96387c-.83239.25879-1.678.46973-2.52929.64941a41.84269,41.84269,0,0,1-5.16468.7417l.32605-.79c1.1471,1.29,2.36536,2.54932,3.61975,3.7461.62989.59863,1.27735,1.17724,1.95887,1.71191a8.92919,8.92919,0,0,0,2.2052,1.38477,7.5049,7.5049,0,0,1-2.47119-.99414,18.16608,18.16608,0,0,1-2.186-1.53662,32.91189,32.91189,0,0,1-3.84546-3.68409l-.646-.71826.97216-.07177c1.69751-.12549,3.40918-.312,5.10816-.51856A45.13582,45.13582,0,0,0,402.00957,326.20818Z" fill="#5e7c24"/><path d="M325.095,252.64764a16.78756,16.78756,0,0,0,3.85315.59765,24.7136,24.7136,0,0,0,3.87781-.05224,36.14489,36.14489,0,0,0,7.57422-1.56641l1.84509-.60059,1.80334-.72412c1.22852-.42382,2.35388-1.08642,3.5564-1.58545,1.16687-.57324,2.29883-1.21972,3.45666-1.8247,1.12659-.65869,2.23768-1.34717,3.38855-1.9878-1.02526.81739-2.09021,1.58741-3.14025,2.38575-1.11744.6914-2.22022,1.417-3.36194,2.07763a38.28452,38.28452,0,0,1-7.26209,3.17139,29.28457,29.28457,0,0,1-7.81787,1.38574A18.24147,18.24147,0,0,1,325.095,252.64764Z" fill="#5e7c24"/><path d="M232.94036,291.78143l16.0625,4.98291,16.04113,5.04931c10.69727,3.35645,21.3639,6.80762,32.04078,10.22705l-.44886.10059q8.126-7.71826,16.10913-15.60108,7.98963-7.86913,15.76734-15.94824c5.20971-5.36084,10.33874-10.80127,15.29895-16.39258a209.09554,209.09554,0,0,0,14.22241-17.32812A199.68081,199.68081,0,0,1,344.195,264.53582c-4.89283,5.66455-9.95167,11.18311-15.09876,16.61523q-7.74335,8.12769-15.71216,16.03418-7.95008,7.92555-16.12878,15.6167l-.19568.1836-.25354-.083c-10.6582-3.477-21.32666-6.92236-31.96436-10.46289l-15.96142-5.2959Z" fill="#5e7c24"/><path d="M367.97234,155.28777Q347.23748,156.475,326.494,157.09c-6.91395.24414-13.82959.38086-20.74439.56836l-20.74683.40088-20.74939.23926c-6.91723.02246-13.83374.102-20.75195.06835q-20.75262.02418-41.51416-.53417,20.73468-1.19239,41.47827-1.80665c6.91394-.2456,13.82959-.37793,20.74439-.56787l20.747-.397,20.74939-.23486c6.91723-.0249,13.83374-.1001,20.752-.06836Q347.2108,154.736,367.97234,155.28777Z" fill="#d5efc8"/><path d="M256.65776,185.52654q-20.73468,1.188-41.47839,1.80225c-6.91382.24414-13.82947.38086-20.74426.56836l-20.74683.40088-20.74939.23926c-6.91736.02246-13.83374.102-20.75195.06835q-20.75262.02418-41.51416-.53369,20.73468-1.19311,41.47827-1.80664c6.91394-.2456,13.82959-.37842,20.74426-.56836l20.74695-.39648,20.74939-.23535c6.91736-.02491,13.83386-.1001,20.75208-.06787Q235.89635,184.97454,256.65776,185.52654Z" fill="#d5efc8"/><path d="M304.23455,219.36785q-20.73488,1.188-41.4784,1.80225c-6.91394.24414-13.82947.38086-20.74426.56836l-20.74695.40088-20.74927.23974c-6.91735.022-13.83374.10156-20.75195.06836q-20.75262.02417-41.51428-.53418,20.73486-1.19312,41.47839-1.80664c6.91382-.2456,13.82947-.37842,20.74426-.56787l20.74695-.397,20.74939-.23535c6.91736-.02491,13.83386-.1001,20.752-.06788Q283.47319,218.81659,304.23455,219.36785Z" fill="#d5efc8"/></svg>