<svg id="Layer_1" data-name="Layer 1" xmlns="http://www.w3.org/2000/svg" viewBox="0 0 700 550"><title>startup plan- product launch</title><path d="M543.3635,312.907C557.47007,215.75456,434.16318,123.24509,391.041,141.4464c-18.30237,7.72522-6.14368,28.63378-30.32654,61.97172-27.04236,37.28-70.41662,49.96918-181.56768,111.83289-6.21375,3.4584-11.8606,7.09042-13.99366,13.525C152.82371,365.96854,274.06577,437.844,362.048,437.2778,430.8574,436.835,531.61313,393.83209,543.3635,312.907Z" fill="#d5efc8"/><path d="M361.38086,446.86949c-34.58447,0-76.03565-10.2959-116.88428-29.04785C206.49805,400.3773,175.25,378.184,160.9082,358.45445c-7.64453-10.51562-10.20361-19.82129-7.60644-27.65625l1.89844.62891c-2.38282,7.18848.08154,15.88672,7.32568,25.85156,14.14941,19.46485,45.10449,41.418,82.80517,58.72559,41.02637,18.834,82.6626,29.05761,117.15137,28.86133,38.74121-.249,82.85645-12.85059,118.00781-33.708,29.29883-17.38574,65.707-48.32129,72.77149-96.97168,8.93652-61.54395-35.36719-120.0586-76.02149-151.4668-32.61035-25.19336-65.46-36.501-83.69824-28.80762l-.77734-1.84179c18.88769-7.97461,52.52637,3.43945,85.69824,29.0664,23.94922,18.50293,44.6875,42.27539,58.39356,66.93848,16.042,28.86816,22.39941,58.74414,18.38378,86.39844-7.17675,49.43164-44.05566,80.79687-73.72949,98.40429-35.44336,21.03125-79.93457,33.73731-119.01465,33.98829C362.126,446.86754,361.752,446.86949,361.38086,446.86949Z" fill="#d5efc8"/><polygon points="487.563 456.745 488.829 469.365 466.914 480.078 500.57 480.073 500.566 456.743 487.563 456.745" fill="#f9977a"/><polygon points="447.198 456.752 448.464 469.372 426.549 480.085 460.205 480.08 460.201 456.75 447.198 456.752" fill="#f9977a"/><path d="M423.17087,481.2328v-.077a3.18709,3.18709,0,0,1,1.75226-2.84638l22.74736-11.46892a1.06243,1.06243,0,0,1,1.32752.31032l4.44768,5.91748a1.06238,1.06238,0,0,0,1.39594.27259l5.21874-3.13242a1.06242,1.06242,0,0,1,1.60908.91071l.00169,10.10716a1.06241,1.06241,0,0,1-1.0622,1.06259l-36.3755.00608A1.06239,1.06239,0,0,1,423.17087,481.2328Z" fill="#a1acaf"/><path d="M463.53556,481.22606v-.077a3.18708,3.18708,0,0,1,1.75226-2.84637l22.74736-11.46892a1.0624,1.0624,0,0,1,1.32752.31032l4.44768,5.91748a1.06241,1.06241,0,0,0,1.396.27259l5.21874-3.13242a1.06238,1.06238,0,0,1,1.60913.91071l.00169,10.10716a1.06241,1.06241,0,0,1-1.0622,1.06258l-36.37556.00608A1.06239,1.06239,0,0,1,463.53556,481.22606Z" fill="#a1acaf"/><path d="M444.95652,300.43445s-2.01283,32.67426-2.01154,40.35626l.00757,45.329q.00039,2.80007.2759,5.59l-.90583,68.16425a2.68031,2.68031,0,0,0,2.66784,2.41686,15.09258,15.09258,0,0,0,9.97785,2.40778,14.56759,14.56759,0,0,0,6.362-2.41052c.69276-.31523,2.6807-1.28892,2.68-2.68069q0-.09738-.00712-.19455l2.5954-57.54966a56.95615,56.95615,0,0,1,1.054-15.79418L484.544,305.2526Z" fill="#065ea5"/><path d="M495.33184,462.64216c2.50567-.51931,5.77489-1.52738,6.542-2.29472a2.672,2.672,0,0,0,.78474-1.89541v0l-.00781-46.74968a121.83243,121.83243,0,0,0-3.06755-27.1466,18.014,18.014,0,0,1-.433-4.87116c.571-12.03813,2.70278-64.8319-3.30064-74.43383l-38.39208-2.82818,27.39921,157.34821C485.07667,461.05843,490.71067,463.5999,495.33184,462.64216Z" fill="#065ea5"/><path d="M488.76934,362.82305l-.20461-.32242c6.50126-4.13056,8.0332-16.46393,8.04791-16.5874l.3796.04416C496.97758,346.08361,495.42539,358.59573,488.76934,362.82305Z" fill="#065082"/><path d="M474.45327,311.85941c-21.90956.00367-30.01482-6.60748-30.11712-6.69405l.24778-.2912c.12993.10871,13.41385,10.90558,52.18208,4.66433l.06087.37773A141.31082,141.31082,0,0,1,474.45327,311.85941Z" fill="#065082"/><rect x="464.19663" y="309.91955" width="0.3832" height="65.83622" transform="translate(-50.88948 82.67815) rotate(-9.648)" fill="#065082"/><polygon points="461.692 326.448 461.461 326.141 464.343 323.969 462.197 310.977 462.574 310.914 464.757 324.135 461.692 326.448" fill="#065082"/><path d="M488.77575,367.966l-.21565-.315c5.2566-3.60056,8.03786-10.68618,8.06548-10.75714l.35747.13815C496.95549,357.10382,494.13278,364.29814,488.77575,367.966Z" fill="#065082"/><path d="M454.08992,417.83036l-.20461-.32241c6.50216-4.13149,8.03415-16.46486,8.04887-16.58833l.37959.04416C462.29906,401.09,460.74686,413.60212,454.08992,417.83036Z" fill="#065082"/><path d="M454.09633,422.9724l-.21566-.31508c5.25935-3.60241,8.03882-10.68618,8.06644-10.75714l.35747.13815C462.277,412.11021,459.4533,419.30459,454.09633,422.9724Z" fill="#065082"/><path d="M478.42793,171.47366a19.57792,19.57792,0,0,0-9.1723-.32784c-1.42846.31869-6.6529,1.48418-9.67157,5.92839-1.1465,1.6878-1.61991,3.82854-2.56724,8.10995-.59168,2.67425-1.87,4.48546-2.27058,7.78625a28.09042,28.09042,0,0,0,.34311,8.03474c.72756,4.13788-.33011,6.30955.18426,7.12912,2.07294,3.30308,9.76518,1.84672,9.39853,5.78269-.2264,2.43036-6.85705,7.46737-6.22678,10.25661,3.42388,15.15245,13.34637,23.52673,17.06936,22.11654.50752-.19224,6.03614-18.74069,6.08549-23.08194.02631-2.31918.93538-22.191,1.2907-23.55373,1.28469-4.92529,3.88241-5.22855,6.60917-11.03926a9.48494,9.48494,0,0,0-.4502-9.2672A19.37427,19.37427,0,0,0,478.42793,171.47366Z" fill="#f9977a"/><ellipse cx="457.54069" cy="189.55805" rx="1.27373" ry="1.02428" transform="translate(214.04083 620.81616) rotate(-83.05388)" fill="#0a0709"/><ellipse cx="466.70829" cy="190.67494" rx="1.27373" ry="1.02428" transform="translate(220.99104 630.89829) rotate(-83.05388)" fill="#0a0709"/><path d="M462.695,187.88649a.64617.64617,0,0,0,.45113-1.14066,6.87011,6.87011,0,0,0-7.61179-.90121.6466.6466,0,0,0,.64816,1.11905,5.48228,5.48228,0,0,1,6.13419.7732A.64214.64214,0,0,0,462.695,187.88649Z" fill="#1e1d22"/><path d="M472.196,189.04471a.64618.64618,0,0,0,.45113-1.14067,6.87011,6.87011,0,0,0-7.61179-.90121.64674.64674,0,0,0,.64713,1.12,5.4681,5.4681,0,0,1,6.13522.77229A.64221.64221,0,0,0,472.196,189.04471Z" fill="#1e1d22"/><path d="M463.49413,188.25127a5.78013,5.78013,0,0,1-.92827,2.99489,12.87156,12.87156,0,0,1-1.92488,2.51116l-.58787.54922a1.25523,1.25523,0,0,0-.43344.81635,2.05536,2.05536,0,0,0,.68418,1.57833,3.707,3.707,0,0,0,3.11614.78656,3.97883,3.97883,0,0,1-2.87649-1.01571,1.84425,1.84425,0,0,1-.53393-1.306c.01919-.4338.5444-.70192.93028-1.09874a11.73667,11.73667,0,0,0,1.9097-2.65255A5.07193,5.07193,0,0,0,463.49413,188.25127Z" fill="#dd765e"/><path d="M480.10216,190.70879a3.89427,3.89427,0,0,1,.91533.5998,4.735,4.735,0,0,1,.7303.77852,15.40225,15.40225,0,0,1,1.19615,1.849c-.01842-.1911-.06393-.37539-.09626-.56653l-.18347-.545a4.735,4.735,0,0,0-.57937-1.00522A2.68888,2.68888,0,0,0,480.10216,190.70879Z" fill="#dd765e"/><path d="M480.28583,196.082a7.85332,7.85332,0,0,1,.31193-2.345,5.29,5.29,0,0,1,.4194-1.08726c.1624-.36.38549-.68746.59369-1.0484a3.44593,3.44593,0,0,0-.879.87949,4.14179,4.14179,0,0,0-.54736,1.13563A3.74058,3.74058,0,0,0,480.28583,196.082Z" fill="#dd765e"/><path d="M477.03237,197.553a9.97593,9.97593,0,0,1,1.17466-4.13c.951-1.76164,2.14833-4.17395,3.97839-4.12128,1.34841.03882,1.927-.248,2.25029,1.09739.534,2.2255-1.13053,4.406-2.28944,5.9248-1.65917,2.1731-2.88813,2.54194-3.10663,4.15866-.16682,1.23331,3.05427,4.16984,3.78144,3.76884,1.48234-.81742,1.0954-3.85548,5.66756-10.41628,2.88742-4.14282,4.06813-4.84212,4.67681-7.57376.216-.96992,1.11058-4.98536-1.04742-7.647-1.001-1.23458-1.68685-.97916-6.36553-3.66917a40.98975,40.98975,0,0,1-3.78641-2.33817c-3.668-2.62522-3.446-3.71867-5.66576-4.65245-2.00531-.84346-2.23649.02842-6.17434-.68969-3.79662-.69224-4.03209-1.585-5.86139-1.29619-3.17607.50127-5.04967,3.6-5.55286,4.43271a10.64205,10.64205,0,0,0-1.78585,4.79263,9.60063,9.60063,0,0,0,1.27982,5.03175c.4367.56864,2.81534-2.11261,4.05134-3.07974,1.21184-.9474,2.38533-.35605,4.04508-.04831,1.61832.30006,1.40539,1.3048,3.7087,2.49032.82066.42235,4.45228-.70084,5.33158,1.34041.93688,2.17492,1.82771,2.53314,1.04149,4.35492-.49123,1.13815-.45293,2.61465-.37642,5.56782.0547,2.11928-2.51545,9.18532-2.51545,9.18532C472.71337,201.2351,476.834,200.7777,477.03237,197.553Z" fill="#1e1d22"/><path d="M464.98622,202.21337a10.69023,10.69023,0,0,1-3.98378.66675,4.71807,4.71807,0,0,1-1.835-.48926,11.552,11.552,0,0,1-1.76648-1.10165,4.0838,4.0838,0,0,0,1.34455,1.78638,4.30024,4.30024,0,0,0,1.01855.584,5.21114,5.21114,0,0,0,1.158.2471,4.90423,4.90423,0,0,0,2.26475-.391A4.67781,4.67781,0,0,0,464.98622,202.21337Z" fill="#dd765e"/><path d="M461.75372,197.42081c-2.15489-.33845-2.42843-1.46911-6.761,3.00371,0,0,4.35639-.79958,12.43615,2.226C467.42884,202.65049,464.83907,197.90541,461.75372,197.42081Z" fill="#1e1d22"/><path d="M463.99872,215.46518c3.9261.18146,9.53-5.13528,9.53-5.13528a22.17812,22.17812,0,0,1-10.14,1.329h0a2.1828,2.1828,0,0,1,1.28351,2.258,3.73988,3.73988,0,0,1-.67347,1.54828Z" fill="#dd765e"/><polygon points="437.353 252.604 434.267 266.458 422.12 278.8 438.369 280.706 444.376 274.907 446.66 253.646 437.353 252.604" fill="#f9977a"/><path d="M462.16856,217.81219l-13.24634,6.5686a15.54082,15.54082,0,0,0-7.98926,9.48486L435.42832,252.34l8.39136,1.15014q.394,9.074.50488,18.59034c.13452,12.32226-.13428,24.14209-.70874,35.41406a81.65655,81.65655,0,0,0,13.91992,4.07983,85.80489,85.80489,0,0,0,41.04-2.15991,209.725,209.725,0,0,1-6.91162-46.94824l18.51392-.783s-.45288-7.39111-1.27149-15.09961a22.54785,22.54785,0,0,0-9.57324-16.1416c-2.33545-1.62012-4.94434-3.41089-7.50781-5.13159a47.48844,47.48844,0,0,1-6.74268-5.478l-3.04419-2.97754s-7.68652,14.46484-14.55493,19.05005C467.48374,235.905,461.3624,230.81707,462.16856,217.81219Z" fill="#8b9d36"/><path d="M468.51465,288.54137c-11.50977-3.415-16.03711-14.58106-16.08106-14.69336l.76954-.30469c.043.1084,4.43261,10.90625,15.54785,14.20313Z" fill="#e6952a"/><polygon points="401.969 267.166 426.246 262.251 482.1 275.978 453.031 283.204 401.969 267.166" fill="#b02336"/><polygon points="482.1 275.978 480.074 312.87 450.232 320.789 453.031 283.204 482.1 275.978" fill="#f73c4f"/><path d="M443.281,234.85143a77.24948,77.24948,0,0,1,.76876,9.30493,76.33948,76.33948,0,0,1-.23019,9.33374,76.34606,76.34606,0,0,1-.7688-9.30493A77.24465,77.24465,0,0,1,443.281,234.85143Z" fill="#5e7c24"/><path d="M491.664,262.46617a41.1519,41.1519,0,0,1-3.85559-11.44873,33.66763,33.66763,0,0,1-.526-6.0603,19.93073,19.93073,0,0,1,.985-5.981,33.64887,33.64887,0,0,0-.20484,5.96533,53.97228,53.97228,0,0,0,.72965,5.89991c.33859,1.957.7962,3.89453,1.2745,5.831C490.56781,258.60313,491.07959,260.53844,491.664,262.46617Z" fill="#5e7c24"/><path d="M493.89464,262.37184l3.53739,20.56429-18.02812,17.032a30.34377,30.34377,0,0,0-7.50581-1.37714c-3.44329-.05126-7.89545-1.81207-7.9181-1.39978s-2.00178,2.9011,6.35511,4.76005c0,0-5.73957,15.9719-9.30462,15.97213l-2.37167.6293s.20512,1.5154,4.22832,1.04714c0,0,9.34524.51325,13.47852-6.979l1.22821-3.65435a190.037,190.037,0,0,0,27.11279-14.75166,13.81382,13.81382,0,0,0,6.28918-13.18661l-2.20027-19.28632Z" fill="#f9977a"/><path d="M462.88715,319.59972a12.649,12.649,0,0,0,1.77407-1.29956,20.91365,20.91365,0,0,0,1.55985-1.502c.50885-.51391.9664-1.07812,1.448-1.62988.4664-.5647.93576-1.135,1.43646-1.70557-.11484.36133-.27222.7024-.41211,1.05664-.17264.33423-.33951.67554-.53934.99659a10.94931,10.94931,0,0,1-1.37893,1.80859,9.279,9.279,0,0,1-1.76352,1.45581A5.33833,5.33833,0,0,1,462.88715,319.59972Z" fill="#dd765e"/><path d="M467.4245,319.08971c.64014-.86621,1.30481-1.61939,1.93237-2.40869.64136-.78321,1.20731-1.57373,1.82074-2.46119a5.133,5.133,0,0,1-1.22564,2.94068A6.33118,6.33118,0,0,1,467.4245,319.08971Z" fill="#dd765e"/><path d="M471.84482,317.30309a3.48207,3.48207,0,0,1,.45788-1.46289,3.70475,3.70475,0,0,1,.98328-1.16871,2.38455,2.38455,0,0,1-.31543,1.54029A2.52424,2.52424,0,0,1,471.84482,317.30309Z" fill="#dd765e"/><path d="M404.21554,151.45157a1.61335,1.61335,0,1,0-1.7012-2.72231,1.83251,1.83251,0,0,0-.82871,1.16137,1.9674,1.9674,0,0,1-2.27194,1.41976,1.86608,1.86608,0,0,0-2.09253.95941,1.95375,1.95375,0,0,1-1.30987.98132,1.65635,1.65635,0,0,1-1.50489-.39008,3.423,3.423,0,0,0-3.85255-.48263,3.63371,3.63371,0,0,0-2.13665,3.35277,2.96577,2.96577,0,0,0,2.38359,2.79174,1.49205,1.49205,0,0,1,1.18653,1.26851,1.79209,1.79209,0,0,1-.81407,1.67085,6.80792,6.80792,0,0,0-2.62025,8.54942,1.70545,1.70545,0,0,1-.661,2.15056c-1.02066.69655-2.11367,1.5423-3.17387,2.36q-1.9902,1.58723-4.12448,2.9844a10.62234,10.62234,0,0,0-5.10162,10.8912,9.09679,9.09679,0,0,0,8.76409,7.189,1.51462,1.51462,0,0,1,1.38161.94034,1.65785,1.65785,0,0,1-.32663,1.68981,15.18223,15.18223,0,0,0-3.49613,13.61463,13.37434,13.37434,0,0,0,9.467,9.50738,1.51141,1.51141,0,0,1,.95765.7983,1.57334,1.57334,0,0,1,.02214,1.26567,7.54893,7.54893,0,0,0,2.32866,9.05667,8.87048,8.87048,0,0,0,9.942.11631c4.17777-2.61073,6.23669-3.70434,8.20785-3.69453a1.55208,1.55208,0,0,1,1.411.833c.26211.51-.31465,1.09465-.16131,1.65275,1.89178,6.88534,10.89763,6.67772,13.66941,3.82838,2.45967-2.5285,4.47069-5.39055,3.93838-8.5991a7.49914,7.49914,0,0,0-6.41214-6.15092,1.48464,1.48464,0,0,1-1.23027-1.0501,1.68919,1.68919,0,0,1,.4356-1.633,11.85628,11.85628,0,0,0,3.18523-11.12837,10.4366,10.4366,0,0,0-8.06332-7.536,1.49216,1.49216,0,0,1-1.15267-1.07018,1.70793,1.70793,0,0,1,.42729-1.58244c5.3481-5.76661,5.8024-14.05082,1.07613-19.45158-4.73414-5.40342-13.22057-6.29484-19.951-2.09658a1.61331,1.61331,0,1,1-1.70114-2.72222,7.05714,7.05714,0,0,0,3.35048-7.43111,6.10449,6.10449,0,0,0-6.16477-4.62867,1.548,1.548,0,0,1-1.47616-.9475,1.67166,1.67166,0,0,1,.39587-1.76336,3.59791,3.59791,0,0,0,.92118-1.72074,1.88548,1.88548,0,0,1,1.011-1.27529,1.80272,1.80272,0,0,1,1.59561-.02807,1.73867,1.73867,0,0,0,1.58343-.00725A1.83951,1.83951,0,0,0,400.5236,153.1a1.9676,1.9676,0,0,1,2.272-1.41979,1.84787,1.84787,0,0,0,1.41995-.22865Zm0,0" fill="#f65b2b"/><path d="M400.65836,159.86633a1.01224,1.01224,0,1,0-1.06735-1.708,1.14973,1.14973,0,0,0-.51994.72866,1.23439,1.23439,0,0,1-1.42545.89078,1.17079,1.17079,0,0,0-1.31288.602,1.22583,1.22583,0,0,1-.82183.61569,1.03922,1.03922,0,0,1-.94419-.24474,2.14765,2.14765,0,0,0-2.41714-.30281,2.27984,2.27984,0,0,0-1.34056,2.10357,1.86079,1.86079,0,0,0,1.4955,1.75158.93612.93612,0,0,1,.74444.79587,1.1244,1.1244,0,0,1-.51076,1.04832,4.27138,4.27138,0,0,0-1.644,5.364,1.07,1.07,0,0,1-.41473,1.34928c-.64037.437-1.32614.96766-1.99133,1.48072q-1.24867.99585-2.58775,1.87245a6.66461,6.66461,0,0,0-3.20083,6.83328,5.70745,5.70745,0,0,0,5.49871,4.51049.95029.95029,0,0,1,.86684.59,1.04017,1.04017,0,0,1-.20493,1.06021,9.52556,9.52556,0,0,0-2.19352,8.542,8.39127,8.39127,0,0,0,5.93974,5.96506.94824.94824,0,0,1,.60084.50086.98713.98713,0,0,1,.01388.7941,4.7363,4.7363,0,0,0,1.461,5.68227,5.56547,5.56547,0,0,0,6.23772.073c2.62118-1.638,3.913-2.32416,5.14971-2.318a.97378.97378,0,0,1,.88526.52266c.16445.32-.19742.6868-.10121,1.037,1.18693,4.32,6.83731,4.18969,8.57637,2.402,1.54322-1.58641,2.805-3.3821,2.471-5.39519a4.70506,4.70506,0,0,0-4.02306-3.85916.9315.9315,0,0,1-.77189-.65885,1.05983,1.05983,0,0,1,.2733-1.02455,7.43878,7.43878,0,0,0,1.99845-6.98209,6.548,6.548,0,0,0-5.059-4.7282.93622.93622,0,0,1-.7232-.67145,1.07158,1.07158,0,0,1,.26809-.99284c3.35547-3.618,3.6405-8.81567.67518-12.20418-2.97026-3.39017-8.29476-3.94946-12.51749-1.31542a1.01221,1.01221,0,1,1-1.06733-1.70795,4.42775,4.42775,0,0,0,2.10215-4.66238,3.83,3.83,0,0,0-3.86786-2.90409.97121.97121,0,0,1-.92617-.59447,1.04882,1.04882,0,0,1,.24838-1.10635,2.25751,2.25751,0,0,0,.578-1.07962,1.183,1.183,0,0,1,.63432-.80014,1.13105,1.13105,0,0,1,1.0011-.01761,1.09087,1.09087,0,0,0,.99347-.00454,1.15416,1.15416,0,0,0,.6246-.79881,1.23451,1.23451,0,0,1,1.42548-.8908,1.15938,1.15938,0,0,0,.89089-.14345Zm0,0" fill="#ffba55"/><path d="M383.62074,95.27037S375.72821,71.593,353.44358,67.41468l-.058.01935c-15.32063,16.7135-7.4281,40.39088-7.4281,40.39088l22.74905,68.24658L406.36979,163.517Z" fill="#f73c4f"/><path d="M352.77652,192.21433s-13.17351-19.98261,5.83218-46.436l10.0978,30.29313S358.46371,179.09889,352.77652,192.21433Z" fill="#b02336"/><path d="M428.66781,166.917s-1.45088-23.89019-32.5275-33.6493l10.0978,30.29312S416.24876,159.837,428.66781,166.917Z" fill="#b02336"/><rect x="374.06615" y="169.5682" width="29.72959" height="8.80877" transform="translate(-35.05641 131.91954) rotate(-18.43509)" fill="#6c7fd8"/><path d="M390.78809,181.83824a2.29477,2.29477,0,0,1-2.17579-1.56933l-13.34765-40.042a2.29358,2.29358,0,0,1,4.35156-1.45117l13.34766,40.042a2.29724,2.29724,0,0,1-2.17578,3.02051Z" fill="#b02336"/><circle cx="370.62144" cy="119.04453" r="10.36865" fill="#6c7fd8"/><path d="M383.62074,95.27037c-22.894-2.81453-37.66329,12.55454-37.66329,12.55454s-7.89253-23.67738,7.4281-40.39088l.058-.01935C375.72821,71.593,383.62074,95.27037,383.62074,95.27037Z" fill="#6c7fd8"/><path d="M426.24573,262.2506c.00348,3.69751-.10248,7.38891-.22507,11.07934-.11114,3.69116-.30075,7.37793-.49066,11.06494-.21365,3.68555-.42932,7.37085-.72226,11.052l-.443,5.52149c-.18415,1.83862-.334,3.67895-.5484,5.51587-.012-1.84937.04065-3.69507.05893-5.54273l.16436-5.53686c.112-3.69092.30118-7.37793.49243-11.0647.215-3.6853.4303-7.37085.724-11.052C425.53845,269.60631,425.83737,265.9254,426.24573,262.2506Z" fill="#8c1428"/><polygon points="401.969 267.166 401.482 304.878 450.232 320.789 453.031 283.204 401.969 267.166" fill="#f73c4f"/><path d="M452.324,282.69933c.03159,3.18554-.04626,6.365-.14071,9.54345-.083,3.179-.24451,6.35376-.40631,9.52857-.18552,3.17358-.37308,6.34692-.63788,9.51611l-.40079,4.75342c-.1701,1.58252-.30585,3.167-.50622,4.7478-.026-1.59326.01254-3.1831.01675-4.77466l.12219-4.7688c.08383-3.179.24494-6.35376.40805-9.52856.18689-3.17334.37406-6.34692.63965-9.51587C451.67291,289.03111,451.94373,285.86217,452.324,282.69933Z" fill="#b02336"/><path d="M388.1983,187.55748c.93228,2.8125,1.77,5.65039,2.65769,8.47485l2.50339,8.51612c1.66687,5.678,3.21774,11.3872,4.76812,17.09643,1.51529,5.71875,3.02756,11.43824,4.42554,17.18824l2.0917,8.62646c.64325,2.89014,1.33729,5.7666,1.93573,8.66846-.93341-2.81226-1.7712-5.64991-2.65985-8.47412l-2.50381-8.51612c-1.66571-5.67846-3.21713-11.38745-4.76556-17.09717-1.51328-5.71923-3.02613-11.43847-4.423-17.189l-2.09216-8.62646C389.49194,193.33556,388.79785,190.45909,388.1983,187.55748Z" fill="#f9e0c0"/><path d="M404.03079,199.16856c1.21912,2.95313,2.34589,5.93873,3.52143,8.90723l3.37063,8.96021c2.24512,5.97412,4.37689,11.988,6.50824,18.00219,2.097,6.02613,4.1911,12.05347,6.17352,18.11963l2.96854,9.10132c.93674,3.05249,1.9231,6.08716,2.8161,9.155-1.22018-2.95288-2.347-5.93848-3.5235-8.90674l-3.37109-8.96c-2.244-5.97461-4.37631-11.98828-6.50571-18.00293-2.09506-6.02685-4.18973-12.054-6.171-18.1206l-2.969-9.10132C405.91132,205.27062,404.92487,202.236,404.03079,199.16856Z" fill="#f9e0c0"/><path d="M404.89609,183.41271c5.70743,8.51855,11.01562,17.27172,16.226,26.08251,5.17053,8.83423,10.24094,17.7273,14.90854,26.85718-5.71054-8.5166-11.01834-17.27-16.226-26.08227C414.63684,201.43419,409.56686,192.54088,404.89609,183.41271Z" fill="#f9e0c0"/><path d="M329.86731,74.0526c1.44244,7.64355,2.42447,15.33764,3.29373,23.04419.8233,7.71142,1.5311,15.43554,1.77445,23.21069-1.44608-7.64331-2.42768-15.3374-3.29374-23.04419C330.82159,89.55138,330.11426,81.82726,329.86731,74.0526Z" fill="#f9e0c0"/><path d="M403.80667,102.5421c5.67252,7.77124,10.95459,15.792,16.141,23.87353,5.14746,8.10645,10.197,16.2754,14.8526,24.69581-5.67557-7.76954-10.95727-15.79029-16.141-23.87354C413.51447,119.1295,408.46536,110.96031,403.80667,102.5421Z" fill="#f9e0c0"/><path d="M339.50015,107.47032c.72531,2.467,1.30173,4.9585,1.82578,7.4585.53348,2.49853.97867,5.01172,1.40677,7.52734.39987,2.52051.78082,5.04419,1.07391,7.582.30252,2.53638.55145,5.08155.65039,7.65137-.7272-2.4668-1.30441-4.958-1.828-7.45825-.53305-2.49854-.97824-5.01148-1.40451-7.52759-.398-2.52075-.779-5.04443-1.07166-7.58252C339.85071,112.58482,339.601,110.03966,339.50015,107.47032Z" fill="#f9e0c0"/><path d="M395.15741,99.9857a57.66731,57.66731,0,0,1,3.21219,4.97827c1.00293,1.6941,1.92621,3.429,2.83407,5.17164.88239,1.75585,1.74768,3.52026,2.53373,5.32543a57.0364,57.0364,0,0,1,2.15158,5.52051,57.07543,57.07543,0,0,1-3.21421-4.97754c-1.00253-1.69433-1.92584-3.4292-2.832-5.1726-.88073-1.7566-1.746-3.52124-2.5317-5.32642A57.6991,57.6991,0,0,1,395.15741,99.9857Z" fill="#f9e0c0"/><rect x="520.26" y="112.6911" width="79.74" height="152.28" rx="2" fill="#a2aee6"/><rect x="524.04" y="116.4711" width="34.2" height="45.72" rx="2" fill="#e5e1e5"/><rect x="562.02" y="116.4711" width="34.2" height="45.72" rx="2" fill="#e5e1e5"/><rect x="524.04" y="165.9711" width="34.2" height="45.72" rx="2" fill="#e5e1e5"/><rect x="562.02" y="165.9711" width="34.2" height="45.72" rx="2" fill="#e5e1e5"/><rect x="524.04" y="215.4711" width="34.2" height="45.72" rx="2" fill="#e5e1e5"/><rect x="562.02" y="215.4711" width="34.2" height="45.72" rx="2" fill="#e5e1e5"/><path d="M527.73,152.77106c1.69141-2.75878,3.47241-5.45434,5.26709-8.1405,1.78516-2.69263,3.63477-5.34,5.48438-7.9873,1.86914-2.63355,3.74-5.26587,5.67407-7.85364l2.904-3.87964c.998-1.27222,1.96777-2.56421,2.99048-3.81885-.8374,1.38526-1.72754,2.73328-2.5896,4.1012l-2.676,4.04028c-1.78588,2.69226-3.635,5.33985-5.48584,7.98633-1.87036,2.63269-3.741,5.26538-5.67553,7.85266C531.6975,147.66547,529.75854,150.24982,527.73,152.77106Z" fill="#a2aee6"/><path d="M532.26562,159.09614c1.6914-2.75879,3.47241-5.45447,5.26684-8.14051,1.7854-2.69262,3.63477-5.34008,5.48462-7.9873,1.86914-2.63354,3.74-5.26587,5.67407-7.85376l2.90406-3.87964c.9978-1.27209,1.96752-2.56409,2.99023-3.81885-.83716,1.38538-1.72754,2.7334-2.5896,4.1012l-2.67578,4.04041c-1.78613,2.69213-3.63526,5.33984-5.48609,7.9862-1.87011,2.63281-3.74072,5.26538-5.67553,7.85278C536.23314,153.99055,534.29418,156.5749,532.26562,159.09614Z" fill="#a2aee6"/><path d="M565.69213,152.77106c1.69141-2.75878,3.47241-5.45434,5.26709-8.1405,1.7854-2.69263,3.63476-5.34,5.48462-7.9873,1.86914-2.63355,3.74-5.26587,5.67407-7.85364l2.904-3.87964c.99781-1.27222,1.96753-2.56421,2.99024-3.81885-.83741,1.38526-1.72754,2.73328-2.5896,4.1012l-2.676,4.04028c-1.78589,2.69226-3.635,5.33985-5.48584,7.98633-1.87036,2.63269-3.74072,5.26538-5.67553,7.85266C569.6599,147.66547,567.72094,150.24982,565.69213,152.77106Z" fill="#a2aee6"/><path d="M570.22777,159.09614c1.69141-2.75879,3.47242-5.45447,5.26709-8.14051,1.78516-2.69262,3.63477-5.34008,5.48438-7.9873,1.86914-2.63354,3.74-5.26587,5.67407-7.85376l2.904-3.87964c.99805-1.27209,1.96778-2.56409,2.99048-3.81885-.8374,1.38538-1.72754,2.7334-2.5896,4.1012l-2.676,4.04041c-1.78589,2.69213-3.635,5.33984-5.48584,7.9862-1.87036,2.63281-3.741,5.26538-5.67554,7.85278C574.1953,153.99055,572.25634,156.5749,570.22777,159.09614Z" fill="#a2aee6"/><path d="M527.73,200.50861c1.69141-2.75879,3.47241-5.45446,5.26709-8.1405,1.78516-2.69263,3.63477-5.34009,5.48438-7.9873,1.86914-2.63355,3.74-5.266,5.67407-7.85376l2.904-3.87964c.998-1.2721,1.96777-2.56409,2.99048-3.81885-.8374,1.38538-1.72754,2.7334-2.5896,4.1012l-2.676,4.0404c-1.78588,2.69214-3.635,5.33972-5.48584,7.98621-1.87036,2.63281-3.741,5.26538-5.67553,7.85266C531.6975,195.403,529.75854,197.98737,527.73,200.50861Z" fill="#a2aee6"/><path d="M532.26562,206.83356c1.6914-2.75866,3.47241-5.45434,5.26684-8.1405,1.7854-2.69263,3.63477-5.34,5.48462-7.98718,1.86914-2.63355,3.74-5.266,5.67407-7.85376l2.90406-3.87964c.9978-1.27222,1.96752-2.56421,2.99023-3.81885-.83716,1.38526-1.72754,2.73328-2.5896,4.1012l-2.67578,4.04028c-1.78613,2.69226-3.63526,5.33985-5.48609,7.98633-1.87011,2.63269-3.74072,5.26538-5.67553,7.85266C536.23314,201.7281,534.29418,204.31245,532.26562,206.83356Z" fill="#a2aee6"/><path d="M565.69213,200.50861c1.69141-2.75879,3.47241-5.45446,5.26709-8.1405,1.7854-2.69263,3.63476-5.34009,5.48462-7.9873,1.86914-2.63355,3.74-5.266,5.67407-7.85376l2.904-3.87964c.99781-1.2721,1.96753-2.56409,2.99024-3.81885-.83741,1.38538-1.72754,2.7334-2.5896,4.1012l-2.676,4.0404c-1.78589,2.69214-3.635,5.33972-5.48584,7.98621-1.87036,2.63281-3.74072,5.26538-5.67553,7.85266C569.6599,195.403,567.72094,197.98737,565.69213,200.50861Z" fill="#a2aee6"/><path d="M570.22777,206.83356c1.69141-2.75866,3.47242-5.45434,5.26709-8.1405,1.78516-2.69263,3.63477-5.34,5.48438-7.98718,1.86914-2.63355,3.74-5.266,5.67407-7.85376l2.904-3.87964c.99805-1.27222,1.96778-2.56421,2.99048-3.81885-.8374,1.38526-1.72754,2.73328-2.5896,4.1012l-2.676,4.04028c-1.78589,2.69226-3.635,5.33985-5.48584,7.98633-1.87036,2.63269-3.741,5.26538-5.67554,7.85266C574.1953,201.7281,572.25634,204.31245,570.22777,206.83356Z" fill="#a2aee6"/><path d="M527.73,249.94819c1.69141-2.75879,3.47241-5.45435,5.26709-8.1405,1.78516-2.69263,3.63477-5.34,5.48438-7.98731,1.86914-2.63354,3.74-5.26587,5.67407-7.85364l2.904-3.87964c.998-1.27221,1.96777-2.5642,2.99048-3.81884-.8374,1.38525-1.72754,2.73327-2.5896,4.10119l-2.676,4.04029c-1.78588,2.69226-3.635,5.33984-5.48584,7.98632-1.87036,2.63269-3.741,5.26539-5.67553,7.85267C531.6975,244.84272,529.75854,247.42707,527.73,249.94819Z" fill="#a2aee6"/><path d="M532.26562,256.27326c1.6914-2.75879,3.47241-5.45447,5.26684-8.1405,1.7854-2.69263,3.63477-5.34009,5.48462-7.98731,1.86914-2.63354,3.74-5.26587,5.67407-7.85363l2.90406-3.87976c.9978-1.2721,1.96752-2.56409,2.99023-3.81873-.83716,1.38525-1.72754,2.73328-2.5896,4.10107l-2.67578,4.04041c-1.78613,2.69214-3.63526,5.33984-5.48609,7.98633-1.87011,2.63269-3.74072,5.26526-5.67553,7.85266C536.23314,251.16767,534.29418,253.752,532.26562,256.27326Z" fill="#a2aee6"/><path d="M565.69213,249.94819c1.69141-2.75879,3.47241-5.45435,5.26709-8.1405,1.7854-2.69263,3.63476-5.34,5.48462-7.98731,1.86914-2.63354,3.74-5.26587,5.67407-7.85364l2.904-3.87964c.99781-1.27221,1.96753-2.5642,2.99024-3.81884-.83741,1.38525-1.72754,2.73327-2.5896,4.10119l-2.676,4.04029c-1.78589,2.69226-3.635,5.33984-5.48584,7.98632-1.87036,2.63269-3.74072,5.26539-5.67553,7.85267C569.6599,244.84272,567.72094,247.42707,565.69213,249.94819Z" fill="#a2aee6"/><path d="M570.22777,256.27326c1.69141-2.75879,3.47242-5.45447,5.26709-8.1405,1.78516-2.69263,3.63477-5.34009,5.48438-7.98731,1.86914-2.63354,3.74-5.26587,5.67407-7.85363l2.904-3.87976c.99805-1.2721,1.96778-2.56409,2.99048-3.81873-.8374,1.38525-1.72754,2.73328-2.5896,4.10107l-2.676,4.04041c-1.78589,2.69214-3.635,5.33984-5.48584,7.98633-1.87036,2.63269-3.741,5.26526-5.67554,7.85266C574.1953,251.16767,572.25634,253.752,570.22777,256.27326Z" fill="#a2aee6"/><path d="M600,483.58531H100a1,1,0,1,1,0-2H600a1,1,0,0,1,0,2Z" fill="#935b50"/><rect x="210.57616" y="164.81824" width="16.97137" height="16.97137" rx="4.42305" fill="#dc8758"/><polygon points="172.973 482.585 166.099 482.585 193.958 357.365 207.992 361.143 172.973 482.585" fill="#dc8758"/><polygon points="265.99 482.585 272.863 482.585 245.005 357.365 230.97 361.143 265.99 482.585" fill="#dc8758"/><rect x="100" y="174.83684" width="237.67255" height="199.72765" rx="2.9487" fill="#ffe3cb"/><rect x="179.85033" y="367.1339" width="79.18373" height="10.80936" rx="2.28475" fill="#dc8758"/><path d="M155.34224,234.51932v3.219h-1.231a1,1,0,1,0,0,2h1.231v.512a2.70748,2.70748,0,0,0,2.699,2.699h4.77a2.70233,2.70233,0,0,0,2.699-2.699v-.512h1.238a1,1,0,0,0,0-2h-1.238v-3.219Z" fill="#6c7fd8"/><path d="M146.77923,212.85931a13.73485,13.73485,0,0,0,3.602,10.961l.437.457c1.973,2.113,2.872,3.063,2.872,5.852a2.39,2.39,0,0,0,2.39,2.39h8.692a2.403,2.403,0,0,0,2.386-2.461c0-2.668.942-3.679,2.813-5.687l.59-.641a13.73522,13.73522,0,1,0-23.782-10.871Z" fill="#ffba55"/><path d="M185.8501,228.23668h-6a1,1,0,0,1,0-2h6a1,1,0,0,1,0,2Z" fill="#6c7fd8"/><path d="M271.49023,228.23668H260.78516a1,1,0,0,1,0-2h10.70507a1,1,0,0,1,0,2Zm-21.41015,0H239.375a1,1,0,0,1,0-2h10.70508a1,1,0,0,1,0,2Zm-21.40967,0H217.96533a1,1,0,0,1,0-2h10.70508a1,1,0,0,1,0,2Zm-21.41016,0H196.55518a1,1,0,0,1,0-2h10.70507a1,1,0,0,1,0,2Z" fill="#6c7fd8"/><path d="M288.19531,234.23668a.99974.99974,0,0,1-1-1v-5h-5a1,1,0,0,1,0-2h6a.99974.99974,0,0,1,1,1v6A.99974.99974,0,0,1,288.19531,234.23668Z" fill="#6c7fd8"/><path d="M288.19531,255.71617h-6a1,1,0,0,1,0-2h5v-5a1,1,0,1,1,2,0v6A.99973.99973,0,0,1,288.19531,255.71617Z" fill="#6c7fd8"/><path d="M270.84473,255.71617H259.49414a1,1,0,0,1,0-2h11.35059a1,1,0,0,1,0,2Zm-22.70118,0H236.793a1,1,0,0,1,0-2h11.35058a1,1,0,0,1,0,2Z" fill="#6c7fd8"/><path d="M219.44238,261.71617a.99974.99974,0,0,1-1-1v-6a.99974.99974,0,0,1,1-1h6a1,1,0,0,1,0,2h-5v5A.99973.99973,0,0,1,219.44238,261.71617Z" fill="#6c7fd8"/><path d="M219.44238,275.70055h-6a1,1,0,0,1,0-2h5v-5a1,1,0,0,1,2,0v6A.99974.99974,0,0,1,219.44238,275.70055Z" fill="#6c7fd8"/><path d="M199.79053,275.70055H186.13916a1,1,0,0,1,0-2h13.65137a1,1,0,0,1,0,2Zm-27.30323,0H158.83594a1,1,0,0,1,0-2H172.4873a1,1,0,0,1,0,2Z" fill="#6c7fd8"/><path d="M139.18457,281.70055a.99974.99974,0,0,1-1-1v-6a.99973.99973,0,0,1,1-1h6a1,1,0,0,1,0,2h-5v5A.99974.99974,0,0,1,139.18457,281.70055Z" fill="#6c7fd8"/><path d="M139.18457,297.181a.99974.99974,0,0,1-1-1v-7.74024a1,1,0,0,1,2,0V296.181A.99974.99974,0,0,1,139.18457,297.181Z" fill="#6c7fd8"/><path d="M145.18457,310.92223h-6a.99974.99974,0,0,1-1-1v-6a1,1,0,0,1,2,0v5h5a1,1,0,0,1,0,2Z" fill="#6c7fd8"/><path d="M216.95361,310.92223H204.99219a1,1,0,0,1,0-2h11.96142a1,1,0,1,1,0,2Zm-23.92285,0H181.06934a1,1,0,0,1,0-2h11.96142a1,1,0,0,1,0,2Zm-23.92334,0H157.146a1,1,0,1,1,0-2h11.96142a1,1,0,0,1,0,2Z" fill="#6c7fd8"/><path d="M234.91553,310.92223h-6a1,1,0,0,1,0-2h6a1,1,0,0,1,0,2Z" fill="#6c7fd8"/><path d="M269.40074,322.06327a.77959.77959,0,1,0,1.1349-1.05743.88547.88547,0,0,0-.62715-.28629.95065.95065,0,0,1-.8825-.94714.90171.90171,0,0,0-.64761-.90439.94407.94407,0,0,1-.586-.53109.8004.8004,0,0,1,.0466-.74977,1.654,1.654,0,0,0-.12545-1.87195,1.75583,1.75583,0,0,0-1.787-.70515,1.43311,1.43311,0,0,0-1.10506,1.38753.721.721,0,0,1-.4926.67955.866.866,0,0,1-.86749-.23247,3.28968,3.28968,0,0,0-4.29667-.45652.82409.82409,0,0,1-1.081-.11574c-.42432-.42009-.92606-.86079-1.4115-1.2885q-.936-.79809-1.79514-1.682a5.13284,5.13284,0,0,0-5.63581-1.41819,4.39567,4.39567,0,0,0-2.60408,4.81878.7319.7319,0,0,1-.319.74191.80111.80111,0,0,1-.83165.0005,7.33619,7.33619,0,0,0-6.78-.40606,6.46264,6.46264,0,0,0-3.63919,5.3655.73031.73031,0,0,1-.2906.52772.76019.76019,0,0,1-.59836.12693,3.64776,3.64776,0,0,0-4.082,1.93779,4.28635,4.28635,0,0,0,.8594,4.72692c1.62278,1.74166,2.331,2.61776,2.50764,3.55373a.75.75,0,0,1-.26538.746c-.21781.17125-.54822-.04857-.79887.07551-3.0922,1.5308-2.16526,5.78385-.55862,6.8366,1.42572.93421,2.9684,1.6249,4.44149,1.07723a3.62367,3.62367,0,0,0,2.328-3.60758.7174.7174,0,0,1,.385-.68021.81624.81624,0,0,1,.81471.05642,5.7291,5.7291,0,0,0,5.572.48729,5.04307,5.04307,0,0,0,2.83315-4.51828.72107.72107,0,0,1,.40163-.64525.82532.82532,0,0,1,.79.05713,6.99323,6.99323,0,0,0,9.32633-1.27887,7.52023,7.52023,0,0,0-.84074-9.6571.77957.77957,0,1,1,1.13487-1.0574,3.41008,3.41008,0,0,0,3.83334.9058,2.94978,2.94978,0,0,0,1.62863-3.35021.748.748,0,0,1,.31367-.78741.80776.80776,0,0,1,.87291.02558,1.73853,1.73853,0,0,0,.901.27869.91106.91106,0,0,1,.698.36228.87111.87111,0,0,1,.16009.75434.84015.84015,0,0,0,.1491.75047.88887.88887,0,0,0,.69554.35513.95078.95078,0,0,1,.88252.94716.89289.89289,0,0,0,.23908.65256Zm0,0" fill="#f65b2b"/><path d="M265.08177,321.14991a.48912.48912,0,1,0,.712-.66344.5556.5556,0,0,0-.39349-.17962.59646.59646,0,0,1-.55369-.59425.56573.56573,0,0,0-.40632-.56743.59232.59232,0,0,1-.36767-.33321.50221.50221,0,0,1,.02924-.47042,1.03774,1.03774,0,0,0-.07871-1.17448,1.10163,1.10163,0,0,0-1.12119-.44242.89914.89914,0,0,0-.69334.87055.45233.45233,0,0,1-.30906.42636.54333.54333,0,0,1-.54428-.14585,2.064,2.064,0,0,0-2.69578-.28643.517.517,0,0,1-.67822-.07262c-.26622-.26357-.581-.54007-.8856-.80842q-.58726-.50073-1.12629-1.05531a3.22042,3.22042,0,0,0-3.536-.8898,2.75789,2.75789,0,0,0-1.63383,3.02337.4592.4592,0,0,1-.20014.46548.5026.5026,0,0,1-.52178.00032,4.60283,4.60283,0,0,0-4.25389-.25477,4.05475,4.05475,0,0,0-2.28328,3.36639.45822.45822,0,0,1-.18232.3311.477.477,0,0,1-.37542.07963,2.28864,2.28864,0,0,0-2.56113,1.2158,2.6893,2.6893,0,0,0,.53919,2.96573c1.01816,1.09274,1.46248,1.64241,1.57333,2.22965a.47056.47056,0,0,1-.1665.468c-.13666.10744-.344-.03047-.50122.04738-1.94009.96044-1.35851,3.62886-.35049,4.28937a3.17406,3.17406,0,0,0,2.78665.67587,2.27354,2.27354,0,0,0,1.4606-2.26345.45012.45012,0,0,1,.24154-.42677.51211.51211,0,0,1,.51116.0354,3.5945,3.5945,0,0,0,3.496.30573,3.1641,3.1641,0,0,0,1.77756-2.83483.45238.45238,0,0,1,.252-.40483.5178.5178,0,0,1,.49564.03584,4.38767,4.38767,0,0,0,5.85147-.80238,4.7183,4.7183,0,0,0-.5275-6.059.48911.48911,0,1,1,.712-.66343,2.13952,2.13952,0,0,0,2.40509.56831A1.8507,1.8507,0,0,0,262,319.05511a.46932.46932,0,0,1,.19681-.494.5068.5068,0,0,1,.54767.01606,1.09084,1.09084,0,0,0,.56531.17485.57164.57164,0,0,1,.43792.2273.54654.54654,0,0,1,.10044.47328.52713.52713,0,0,0,.09355.47086.55769.55769,0,0,0,.43639.22281.59652.59652,0,0,1,.5537.59426.56022.56022,0,0,0,.15.40942Zm0,0" fill="#ffba55"/><path d="M294.15715,307.12548s10.50591-5.92211,10.438-16.87774l-.01451-.02575c-9.33782-5.73024-19.84373.19188-19.84373.19188l-30.28175,17.06961,9.42022,16.71161Z" fill="#f73c4f"/><path d="M245.332,301.41169s8.2674-8.08739,22.56455-1.505l-13.44139,7.57682S252.07682,302.90305,245.332,301.41169Z" fill="#b02336"/><path d="M264.3137,335.08549s11.19944-2.88594,12.97016-18.52564l-13.44139,7.57681S266.52983,328.54291,264.3137,335.08549Z" fill="#b02336"/><rect x="250.12846" y="314.75612" width="14.36569" height="4.2565" transform="matrix(0.49105, 0.87113, -0.87113, 0.49105, 407.00624, -62.87377)" fill="#6c7fd8"/><path d="M254.84033,319.38609a1.10857,1.10857,0,0,1-.54541-2.07422L272.062,307.29625a1.1087,1.1087,0,0,1,1.08887,1.93164l-17.76709,10.01563A1.10694,1.10694,0,0,1,254.84033,319.38609Z" fill="#b02336"/><circle cx="281.68348" cy="303.14594" r="5.01026" fill="#6c7fd8"/><path d="M294.15715,307.12548a22.86288,22.86288,0,0,0-9.42022-16.71161s10.50591-5.92212,19.84373-.19188l.01451.02575C304.66306,301.20337,294.15715,307.12548,294.15715,307.12548Z" fill="#6c7fd8"/></svg>