<svg id="Layer_1" data-name="Layer 1" xmlns="http://www.w3.org/2000/svg" viewBox="0 0 700 550"><title>money transfer</title><path d="M426.309,462.12382c16.37838-5.12014,31.07357-10.35114,48.75215-20.279,18.23292-10.24027,99.22782-58.97227,109.76038-143.31339a160.87669,160.87669,0,0,0-6.71262-68.69851c-3.25552-9.54482-10.00845-28.71509-27.05205-47.6737-20.86355-23.222-44.67016-32.22258-58.62958-37.31248-29.37023-10.714-54.00332-10.14956-65.73528-9.76655-12.65923.41324-35.00439,1.3405-60.40348,12.43749-16.56989,7.23673-26.87063,15.49143-42.04962,27.82814-24.04851,19.56335-27.21331,27.70718-69.28309,68.10384-11.55054,11.08691-21.045,19.82541-35.53857,28.43288-10.04877,5.96677-18.17245,9.30292-33.15993,15.39064-36.83877,14.96732-47.32756,17.99784-59.382,26.42389-23.44377,16.39854-21.92529,34.282-22.93319,38.13214a75.72062,75.72062,0,0,0-1.784,30.20678c3.0741,20.22857,13.9695,33.45223,20.73252,41.455a113.99168,113.99168,0,0,0,33.15993,26.64889,211.90652,211.90652,0,0,0,27.173,11.98394Z" fill="#efedef"/><path d="M478.30711,447.82593l-.49278-.87862c24.0887-13.53267,103.50858-64.26312,114.072-148.9044a167.6634,167.6634,0,0,0-6.96816-71.32984c-3.00179-8.80195-10.03181-29.415-28.06767-49.48382-22.09766-24.58778-47.31872-33.784-60.86816-38.72437a175.46947,175.46947,0,0,0-68.28193-10.14923c-12.523.40785-35.83162,1.16485-62.73549,12.912l-.40261-.92265c27.08105-11.82575,51.412-12.6163,63.10455-12.99585a176.29737,176.29737,0,0,1,68.66147,10.208c13.63123,4.97187,39.00537,14.22361,61.27078,38.99907,18.17531,20.22194,25.25147,40.97125,28.27317,49.83191a168.7337,168.7337,0,0,1,7.0143,71.78069C582.26444,383.27762,502.50067,434.2356,478.30711,447.82593Z" fill="#efedef"/><path d="M112.767,174.74784v285.2287h64.48438V174.74784a3.09426,3.09426,0,0,0-3.09426-3.09426H115.8613A3.09426,3.09426,0,0,0,112.767,174.74784Z" fill="#935b50"/><rect x="116.32548" y="223.54426" width="57.36751" height="42.60791" rx="3.09426" fill="#e19974"/><rect x="116.32548" y="176.29497" width="57.36751" height="42.60791" rx="3.09426" fill="#e19974"/><path d="M170.049,213.49535a1.60488,1.60488,0,0,1,.66193,1.39356,2.08322,2.08322,0,0,1-1.96838,1.97265,1.60048,1.60048,0,0,1-1.39472-.665,11.85889,11.85889,0,0,0,.67261-1.07666,2.429,2.429,0,0,1,.39-.562,2.57749,2.57749,0,0,1,.56506-.38867A11.40059,11.40059,0,0,0,170.049,213.49535Z" fill="#d6694b"/><path d="M167.34779,179.00121a1.60469,1.60469,0,0,1,1.3935-.66162,2.08238,2.08238,0,0,1,1.97259,1.96826,1.59933,1.59933,0,0,1-.66492,1.39453,11.825,11.825,0,0,0-1.07647-.67236,2.42178,2.42178,0,0,1-.56207-.39014,2.58259,2.58259,0,0,1-.3888-.56494A11.39428,11.39428,0,0,0,167.34779,179.00121Z" fill="#d6694b"/><path d="M119.9695,181.70238a1.60459,1.60459,0,0,1-.66193-1.39306,2.08224,2.08224,0,0,1,1.96838-1.97266,1.6,1.6,0,0,1,1.39472.66455,11.8603,11.8603,0,0,0-.67261,1.07666,2.4289,2.4289,0,0,1-.39.562,2.57758,2.57758,0,0,1-.56507.38867A11.40272,11.40272,0,0,0,119.9695,181.70238Z" fill="#d6694b"/><path d="M122.67067,216.19652a1.60465,1.60465,0,0,1-1.39349.66162,2.08236,2.08236,0,0,1-1.9726-1.96826,1.59936,1.59936,0,0,1,.66492-1.39453,11.82044,11.82044,0,0,0,1.07647.67236,2.42209,2.42209,0,0,1,.56208.39014,2.59527,2.59527,0,0,1,.38879.56494A11.39428,11.39428,0,0,0,122.67067,216.19652Z" fill="#d6694b"/><path d="M170.049,260.74438a1.60541,1.60541,0,0,1,.66193,1.39355,2.08324,2.08324,0,0,1-1.96838,1.97266,1.6005,1.6005,0,0,1-1.39472-.665,11.80224,11.80224,0,0,0,.67261-1.07617,2.4289,2.4289,0,0,1,.39-.562,2.578,2.578,0,0,1,.56506-.38916A11.4,11.4,0,0,0,170.049,260.74438Z" fill="#d6694b"/><path d="M167.34779,226.25072a1.60635,1.60635,0,0,1,1.3935-.66211,2.08333,2.08333,0,0,1,1.97259,1.96875,1.59985,1.59985,0,0,1-.66492,1.39453,11.7135,11.7135,0,0,0-1.07647-.67236,2.43648,2.43648,0,0,1-.56207-.39014,2.587,2.587,0,0,1-.3888-.56543A11.404,11.404,0,0,0,167.34779,226.25072Z" fill="#d6694b"/><path d="M119.9695,228.95189a1.60543,1.60543,0,0,1-.66193-1.39355,2.08324,2.08324,0,0,1,1.96838-1.97266,1.60049,1.60049,0,0,1,1.39472.665,11.725,11.725,0,0,0-.67261,1.07666,2.4289,2.4289,0,0,1-.39.562,2.59494,2.59494,0,0,1-.56507.38868A11.4,11.4,0,0,0,119.9695,228.95189Z" fill="#d6694b"/><path d="M122.67067,263.44555a1.60516,1.60516,0,0,1-1.39349.66211,2.08338,2.08338,0,0,1-1.9726-1.96827,1.6007,1.6007,0,0,1,.66492-1.395,11.85793,11.85793,0,0,0,1.07647.67285,2.42209,2.42209,0,0,1,.56208.39013,2.58319,2.58319,0,0,1,.38879.56494A11.40247,11.40247,0,0,0,122.67067,263.44555Z" fill="#d6694b"/><rect x="116.32548" y="318.04283" width="57.36751" height="42.60791" rx="3.09426" fill="#e19974"/><rect x="116.32548" y="365.29212" width="57.36751" height="42.60791" rx="3.09426" fill="#e19974"/><rect x="136.1906" y="191.79719" width="17.63726" height="6.49794" rx="1.19877" fill="#d6694b"/><rect x="136.1906" y="333.54506" width="17.63726" height="6.49794" rx="1.19877" fill="#d6694b"/><rect x="136.1906" y="380.79435" width="17.63726" height="6.49794" rx="1.19877" fill="#d6694b"/><rect x="136.1906" y="239.04648" width="17.63726" height="6.49794" rx="1.19877" fill="#d6694b"/><path d="M170.049,355.24291a1.60541,1.60541,0,0,1,.66193,1.39355,2.08224,2.08224,0,0,1-1.96838,1.97266,1.5993,1.5993,0,0,1-1.39472-.665,11.80084,11.80084,0,0,0,.67261-1.07617,2.42882,2.42882,0,0,1,.39-.562,2.59426,2.59426,0,0,1,.56506-.38916A11.40059,11.40059,0,0,0,170.049,355.24291Z" fill="#d6694b"/><path d="M167.34779,320.74926a1.60633,1.60633,0,0,1,1.3935-.66211,2.08333,2.08333,0,0,1,1.97259,1.96875,1.59986,1.59986,0,0,1-.66492,1.39453,11.71125,11.71125,0,0,0-1.07647-.67236,2.43678,2.43678,0,0,1-.56207-.39014,2.59492,2.59492,0,0,1-.3888-.56494A11.3305,11.3305,0,0,0,167.34779,320.74926Z" fill="#d6694b"/><path d="M119.9695,323.45043a1.60489,1.60489,0,0,1-.66193-1.39355,2.08324,2.08324,0,0,1,1.96838-1.97266,1.60047,1.60047,0,0,1,1.39472.665,11.79015,11.79015,0,0,0-.67261,1.07666,2.42934,2.42934,0,0,1-.39.562,2.59459,2.59459,0,0,1-.56507.38867A11.40059,11.40059,0,0,0,119.9695,323.45043Z" fill="#d6694b"/><path d="M122.67067,357.94408a1.60512,1.60512,0,0,1-1.39349.66211,2.08238,2.08238,0,0,1-1.9726-1.96826,1.60072,1.60072,0,0,1,.66492-1.395,11.85562,11.85562,0,0,0,1.07647.67285,2.42209,2.42209,0,0,1,.56208.39014,2.58319,2.58319,0,0,1,.38879.56494A11.3387,11.3387,0,0,0,122.67067,357.94408Z" fill="#d6694b"/><path d="M170.049,402.49242a1.60488,1.60488,0,0,1,.66193,1.39356,2.08322,2.08322,0,0,1-1.96838,1.97265,1.60048,1.60048,0,0,1-1.39472-.665,11.79015,11.79015,0,0,0,.67261-1.07666,2.429,2.429,0,0,1,.39-.562,2.59485,2.59485,0,0,1,.56506-.38867A11.40059,11.40059,0,0,0,170.049,402.49242Z" fill="#d6694b"/><path d="M167.34779,367.99877a1.60513,1.60513,0,0,1,1.3935-.66211,2.08238,2.08238,0,0,1,1.97259,1.96826,1.60069,1.60069,0,0,1-.66492,1.395,11.85562,11.85562,0,0,0-1.07647-.67285,2.42148,2.42148,0,0,1-.56207-.39014,2.58259,2.58259,0,0,1-.3888-.56494A11.3387,11.3387,0,0,0,167.34779,367.99877Z" fill="#d6694b"/><path d="M119.9695,370.69994a1.60543,1.60543,0,0,1-.66193-1.39355,2.08224,2.08224,0,0,1,1.96838-1.97266,1.60047,1.60047,0,0,1,1.39472.665,11.80084,11.80084,0,0,0-.67261,1.07617,2.4289,2.4289,0,0,1-.39.562,2.57737,2.57737,0,0,1-.56507.38916A11.40059,11.40059,0,0,0,119.9695,370.69994Z" fill="#d6694b"/><path d="M122.67067,405.19359a1.60631,1.60631,0,0,1-1.39349.66211,2.08331,2.08331,0,0,1-1.9726-1.96875,1.59988,1.59988,0,0,1,.66492-1.39453,11.71191,11.71191,0,0,0,1.07647.67237,2.43679,2.43679,0,0,1,.56208.39013,2.59527,2.59527,0,0,1,.38879.56494A11.3305,11.3305,0,0,0,122.67067,405.19359Z" fill="#d6694b"/><rect x="116.32548" y="412.54141" width="57.36751" height="42.60791" rx="3.09426" fill="#e19974"/><rect x="136.1906" y="428.04363" width="17.63726" height="6.49794" rx="1.19877" fill="#d6694b"/><path d="M170.049,449.74145a1.606,1.606,0,0,1,.66193,1.39355,2.08224,2.08224,0,0,1-1.96838,1.97266,1.59932,1.59932,0,0,1-1.39472-.665,11.80224,11.80224,0,0,0,.67261-1.07617,2.4289,2.4289,0,0,1,.39-.562,2.595,2.595,0,0,1,.56506-.38916A11.19636,11.19636,0,0,0,170.049,449.74145Z" fill="#d6694b"/><path d="M167.34779,415.24779a1.60469,1.60469,0,0,1,1.3935-.66162,2.08238,2.08238,0,0,1,1.97259,1.96826,1.59932,1.59932,0,0,1-.66492,1.39453,11.7135,11.7135,0,0,0-1.07647-.67236,2.43648,2.43648,0,0,1-.56207-.39014,2.59442,2.59442,0,0,1-.3888-.56494A11.39559,11.39559,0,0,0,167.34779,415.24779Z" fill="#d6694b"/><path d="M119.9695,417.949a1.60489,1.60489,0,0,1-.66193-1.39355,2.08324,2.08324,0,0,1,1.96838-1.97266,1.60049,1.60049,0,0,1,1.39472.665,11.8603,11.8603,0,0,0-.67261,1.07666,2.4289,2.4289,0,0,1-.39.562,2.59494,2.59494,0,0,1-.56507.38868A11.4,11.4,0,0,0,119.9695,417.949Z" fill="#d6694b"/><path d="M122.67067,452.44262a1.604,1.604,0,0,1-1.39349.66211,2.08238,2.08238,0,0,1-1.9726-1.96827,1.6007,1.6007,0,0,1,.66492-1.395,11.85793,11.85793,0,0,0,1.07647.67285,2.42209,2.42209,0,0,1,.56208.39013,2.583,2.583,0,0,1,.38879.56495A11.34,11.34,0,0,0,122.67067,452.44262Z" fill="#d6694b"/><rect x="116.32548" y="270.79355" width="57.36751" height="42.60791" rx="3.09426" fill="#e19974"/><rect x="136.1906" y="286.29577" width="17.63726" height="6.49794" rx="1.19877" fill="#d6694b"/><path d="M170.049,307.99389a1.60487,1.60487,0,0,1,.66193,1.39355,2.08324,2.08324,0,0,1-1.96838,1.97266,1.60048,1.60048,0,0,1-1.39472-.665,11.8603,11.8603,0,0,0,.67261-1.07666,2.4286,2.4286,0,0,1,.39-.562,2.59484,2.59484,0,0,1,.56506-.38868A11.4,11.4,0,0,0,170.049,307.99389Z" fill="#d6694b"/><path d="M167.34779,273.50023a1.604,1.604,0,0,1,1.3935-.6621,2.08236,2.08236,0,0,1,1.97259,1.96826,1.6007,1.6007,0,0,1-.66492,1.395,11.85629,11.85629,0,0,0-1.07647-.67286,2.42148,2.42148,0,0,1-.56207-.39013,2.58284,2.58284,0,0,1-.3888-.56494A11.33983,11.33983,0,0,0,167.34779,273.50023Z" fill="#d6694b"/><path d="M119.9695,276.20141a1.606,1.606,0,0,1-.66193-1.39356,2.08222,2.08222,0,0,1,1.96838-1.97265,1.5993,1.5993,0,0,1,1.39472.665,11.80065,11.80065,0,0,0-.67261,1.07618,2.42934,2.42934,0,0,1-.39.562,2.5947,2.5947,0,0,1-.56507.38916A11.29681,11.29681,0,0,0,119.9695,276.20141Z" fill="#d6694b"/><path d="M122.67067,310.69506a1.60467,1.60467,0,0,1-1.39349.66162,2.08238,2.08238,0,0,1-1.9726-1.96826,1.59935,1.59935,0,0,1,.66492-1.39453,11.7135,11.7135,0,0,0,1.07647.67236,2.43679,2.43679,0,0,1,.56208.39014,2.595,2.595,0,0,1,.38879.56494A11.39428,11.39428,0,0,0,122.67067,310.69506Z" fill="#d6694b"/><path d="M273.9059,195.20531a1.50323,1.50323,0,0,1-1.479-1.75976,43.87355,43.87355,0,0,1,1.30762-5.02246,1.5,1.5,0,0,1,2.86231.89843,41.918,41.918,0,0,0-1.21534,4.64453A1.501,1.501,0,0,1,273.9059,195.20531Z" fill="#e6952a"/><path d="M405.23109,194.32836a1.5007,1.5007,0,0,1-1.438-1.0752,58.30069,58.30069,0,0,0-3.75342-9.542,1.49973,1.49973,0,1,1,2.68261-1.34179,61.18414,61.18414,0,0,1,3.94776,10.03417,1.50022,1.50022,0,0,1-1.439,1.92481ZM279.13,180.63305a1.50056,1.50056,0,0,1-1.33838-2.17578,64.047,64.047,0,0,1,5.63379-9.18067,1.49965,1.49965,0,1,1,2.41309,1.78125,61.06538,61.06538,0,0,0-5.36817,8.751A1.50066,1.50066,0,0,1,279.13,180.63305Zm116.70459-5.02051a1.4988,1.4988,0,0,1-1.19629-.59375,55.61143,55.61143,0,0,0-6.91064-7.54395,1.49985,1.49985,0,1,1,2.0166-2.2207,58.51665,58.51665,0,0,1,7.28467,7.95215,1.5,1.5,0,0,1-1.19434,2.40625Zm-104.208-11.79395a1.50024,1.50024,0,0,1-1.021-2.59961,54.9365,54.9365,0,0,1,8.60058-6.5371,1.50019,1.50019,0,1,1,1.57031,2.55664,51.85245,51.85245,0,0,0-8.12988,6.17968A1.496,1.496,0,0,1,291.6266,163.81859ZM380.36684,161.51a1.497,1.497,0,0,1-.80127-.23242,68.12527,68.12527,0,0,0-9.08643-4.81153,1.50033,1.50033,0,0,1,1.20508-2.748,71.31432,71.31432,0,0,1,9.48682,5.02441,1.50026,1.50026,0,0,1-.8042,2.76758Zm-19.168-8.49609a1.51627,1.51627,0,0,1-.42334-.06055,98.47776,98.47776,0,0,0-10.08106-2.37305,1.49982,1.49982,0,0,1,.53711-2.95117,101.74859,101.74859,0,0,1,10.38965,2.44531,1.50019,1.50019,0,0,1-.42236,2.93946Zm-51.76123-.15137a1.5,1.5,0,0,1-.52442-2.90527,62.19673,62.19673,0,0,1,10.38282-2.8545,1.49975,1.49975,0,0,1,.54687,2.94922,59.22353,59.22353,0,0,0-9.88086,2.71582A1.49784,1.49784,0,0,1,309.43764,152.86254Zm31.09961-3.65137c-.04151,0-.0835-.002-.12549-.00488a87.075,87.075,0,0,0-10.3374-.26074,1.5,1.5,0,0,1-.11036-2.99805,89.80809,89.80809,0,0,1,10.6958.26855,1.50014,1.50014,0,0,1-.12255,2.99512Z" fill="#e6952a"/><path d="M407.59877,209.7102c-.01807,0-.03565,0-.05371-.001a1.50035,1.50035,0,0,1-1.44629-1.55078,37.72181,37.72181,0,0,0-.26025-4.77344,1.49989,1.49989,0,1,1,2.98242-.32227,39.62845,39.62845,0,0,1,.27588,5.20313A1.49948,1.49948,0,0,1,407.59877,209.7102Z" fill="#e6952a"/><polygon points="214.694 431.043 213.26 445.335 238.078 457.466 199.965 457.46 199.969 431.041 214.694 431.043" fill="#f9977a"/><polygon points="260.404 431.051 258.97 445.342 283.788 457.474 245.675 457.468 245.679 431.049 260.404 431.051" fill="#f9977a"/><path d="M287.6133,458.77367v-.08721a3.60914,3.60914,0,0,0-1.98431-3.22332l-25.75984-12.98778a1.20312,1.20312,0,0,0-1.50333.35142l-5.03669,6.70114a1.2031,1.2031,0,0,1-1.58082.30869l-5.90986-3.54725a1.20312,1.20312,0,0,0-1.82218,1.03132l-.00191,11.44567a1.20312,1.20312,0,0,0,1.20287,1.20331l41.19278.00688A1.20308,1.20308,0,0,0,287.6133,458.77367Z" fill="#f73c4f"/><path d="M241.903,458.766l0-.08721a3.60913,3.60913,0,0,0-1.98432-3.22332l-25.75983-12.98778a1.20312,1.20312,0,0,0-1.50333.35142l-5.0367,6.70114a1.20308,1.20308,0,0,1-1.58081.30869l-5.90987-3.54725A1.20307,1.20307,0,0,0,198.306,447.313l-.00192,11.44567a1.20312,1.20312,0,0,0,1.20288,1.20331l41.19284.00688A1.20308,1.20308,0,0,0,241.903,458.766Z" fill="#f73c4f"/><path d="M262.94253,254.03181s2.27939,37.00138,2.27794,45.70073l-.00858,51.332q-.00043,3.17086-.31243,6.33026l1.02578,77.19138a3.03527,3.03527,0,0,1-3.02114,2.73694,17.09137,17.09137,0,0,1-11.29925,2.72664,16.49692,16.49692,0,0,1-7.20449-2.72974c-.78451-.357-3.03571-1.45962-3.03488-3.0357q0-.1103.00806-.22032l-2.93912-65.17108a64.49875,64.49875,0,0,0-1.1936-17.88583l-19.12837-91.519Z" fill="#065ea5"/><path d="M205.8959,437.721c-2.8375-.58808-6.53967-1.72964-7.40832-2.59861a3.02575,3.02575,0,0,1-.88867-2.14642v0l.00885-52.94083a137.9667,137.9667,0,0,1,3.47379-30.74168,20.39908,20.39908,0,0,0,.49029-5.51625c-.6466-13.63237-3.06071-73.41773,3.73776-84.29126l43.47642-3.20272L217.75828,434.46936C217.50919,435.92756,211.12906,438.8056,205.8959,437.721Z" fill="#065ea5"/><path d="M213.32748,324.68267l.23172-.36512c-7.36224-4.67758-9.097-18.64428-9.11372-18.7841l-.42987.05C204.03222,305.72638,205.79,319.89551,213.32748,324.68267Z" fill="#065082"/><path d="M229.53947,266.96981c24.81108.00415,33.98974-7.48253,34.10558-7.58056l-.28059-.32976c-.14714.1231-15.19027,12.34982-59.09266,5.282l-.06893.42775A160.02535,160.02535,0,0,0,229.53947,266.96981Z" fill="#065082"/><rect x="203.65991" y="301.83359" width="74.55504" height="0.43395" transform="translate(-97.22077 488.95808) rotate(-80.352)" fill="#065082"/><polygon points="243.991 283.49 244.252 283.143 240.989 280.683 243.419 265.971 242.992 265.899 240.52 280.871 243.991 283.49" fill="#065082"/><path d="M213.32023,330.50672l.24421-.35677c-5.95274-4.0774-9.10233-12.10138-9.13361-12.18173l-.40481.15644C204.05723,318.206,207.25376,326.35311,213.32023,330.50672Z" fill="#065082"/><path d="M252.59957,386.97471l.23172-.36512c-7.36326-4.67862-9.09813-18.64532-9.1148-18.78514l-.42987.05C243.30329,368.01741,245.061,382.18651,252.59957,386.97471Z" fill="#065082"/><path d="M252.59232,392.79771l.24421-.3568c-5.95585-4.07949-9.10341-12.10137-9.13469-12.18173l-.40481.15644C243.3283,380.497,246.52591,388.64417,252.59232,392.79771Z" fill="#065082"/><path d="M252.13484,127.32616l-.6535,9.45852a54.3389,54.3389,0,0,0,.58291,11.48111c.688,4.784-5.62956,12.33994-7.93067,12.43389v9.5149c.59016,6.55535-3.728,11.86789-8.2806,12.47632-5.223.69806-11.64868-4.676-11.30129-12.47632V147.96106s-8.00125-1.47392-3.369-9.37a34.03293,34.03293,0,0,0,4.73761-15.16018l8.63285-6.52733Z" fill="#f9977a"/><path d="M189.28194,217.85768s-.97485-20.07345,6.17264-34.92993a20.93554,20.93554,0,0,1,8.92932-9.34591c4.48236-2.41882,12.1744-6.64582,20.1678-8.77172-.06741,5.9047,4.19979,11.5107,9.80138,11.39519a10.17368,10.17368,0,0,0,9.78051-9.92577c12.40916,2.78815,18.52054,7.73042,20.65251,12.23712,4.2371,8.95649,4.87447,27.73618,4.87447,27.73618l-6.5601,1.30012s1.64564,49.54953.34541,54.89444a161.77538,161.77538,0,0,1-60.05049,2.2364c1.36253-6.08809,2.60417-12.59451,3.63964-19.49259a278.761,278.761,0,0,0,2.76014-27.86324Z" fill="#8b9d36"/><path d="M263.10048,207.553c-.3291-1.51758-.57071-3.04492-.79907-4.57373-.23749-1.52735-.41227-3.062-.58683-4.59619-.15557-1.53614-.30951-3.07276-.40173-4.61621-.10022-1.542-.188-3.08594-.18665-4.63916.33036,1.51757.57166,3.04492.80048,4.57373.23685,1.52734.41193,3.06152.58542,4.59619.15448,1.53662.30875,3.07324.40033,4.61621C263.01311,204.45629,263.10054,205.99975,263.10048,207.553Z" fill="#5e7c24"/><path d="M232.55336,131.66234a.58492.58492,0,0,1-.29053-1.09277c3.18506-1.82227,6.62451-.08691,6.76953-.01172a.58482.58482,0,0,1-.53515,1.04c-.03028-.0166-3.02784-1.51562-5.6543-.01269A.58639.58639,0,0,1,232.55336,131.66234Z" fill="#1e1d22"/><path d="M244.13393,133.03637a.58492.58492,0,0,1-.29053-1.09278c3.18506-1.82129,6.624-.08691,6.76953-.01171a.58482.58482,0,0,1-.53516,1.04c-.03076-.0166-3.02685-1.51464-5.65429-.01269A.58629.58629,0,0,1,244.13393,133.03637Z" fill="#1e1d22"/><path d="M239.043,136.45141c-1.13165-.0918-2.12414-.22754-3.12725-.24268a11.90913,11.90913,0,0,0-1.497.04053c-.51178.02783-1.00782.13916-1.58722.20215a3.31806,3.31806,0,0,1,1.40814-.96143,4.46954,4.46954,0,0,1,1.70123-.28027,5.16985,5.16985,0,0,1,1.67334.334A3.84027,3.84027,0,0,1,239.043,136.45141Z" fill="#1e1d22"/><path d="M242.65968,135.63012a15.45372,15.45372,0,0,1,2.4375,4.78857,7.11372,7.11372,0,0,1,.3263,2.73926,2.40076,2.40076,0,0,1-.54517,1.33057,1.69957,1.69957,0,0,1-1.27112.5249,1.70833,1.70833,0,0,0,1.00409-.73145,2.28042,2.28042,0,0,0,.27631-1.16259,9.19915,9.19915,0,0,0-.45056-2.50635C243.94551,138.94408,243.26686,137.31713,242.65968,135.63012Z" fill="#dd765e"/><path d="M239.026,148.433c1.16637,1.82481,6.6891,3.23237,9.05085-.30548" fill="#dd2f22"/><path d="M244.1336,160.69977s-6.31674-.32263-9.36984-3.21441c0,0,3.89533,7.74141,9.36984,8.7942Z" fill="#dd765e"/><path d="M256.76709,124.48377s-.10528-4.31645-7.68537-6.21147-9.054-6.10619-13.42308-4.94812a14.35618,14.35618,0,0,0-7.10634,4.94812s-13.72148-2.09932-7.0713,19.7956c0,0,4.96572,5.78722,5.49211.62854s1.68447-14.00212,4.527-16.31826,7.26426,0,8.94873,1.26335,12.21237,8.73817,13.26516,8.10649S258.978,129.853,256.76709,124.48377Z" fill="#1e1d22"/><polygon points="264.015 202.112 281.832 202.112 267.771 228.69 250.147 229.174 264.015 202.112" fill="#935b50"/><path d="M209.7951,217.328v8.86015l33.12926-10.401s2.79287-7.03034,12.03825-6.06728l1.05937,1.82982s12.51977.0963,12.42347,2.31134l-.67414.86676s3.757.19261.67469,2.79287c0,0,1.05881,2.02243-2.21559,2.98549s-9.14907,2.504-9.14907,2.504a4.38245,4.38245,0,0,0,3.85224.77045,16.61014,16.61014,0,0,1,3.467-.77045,1.47472,1.47472,0,0,1-.77045,2.31134c-1.82981.67415-4.14116,2.02243-5.20052,2.02243s-11.07519,1.5409-11.07519,1.5409l-40.31231,17.885a11.27523,11.27523,0,0,1-15.84434-10.02727l-.47128-19.02926Z" fill="#f9977a"/><path d="M272.394,207.45663a1.20455,1.20455,0,0,0,0-2.40765,1.20455,1.20455,0,0,0,0,2.40765Z" fill="#6c7fd8"/><path d="M279.64118,206.25281s2.43718,2.4305-3.106,9.38983a3.1521,3.1521,0,0,1-.86675,2.55211,1.90773,1.90773,0,0,1,0,2.3595,2.29278,2.29278,0,0,1-.65007,2.60026s-.14446,2.96141-2.09465,2.96141H269.133s-1.19991-.91,0-1.589c0,0-2.85328-.14446-.68695-2.16688,0,0-1.30068-1.44459.64951-2.88918a1.79258,1.79258,0,0,1,.565-2.74473,41.87714,41.87714,0,0,0,5.01314-1.08344Z" fill="#f9977a"/><path d="M204.59456,230.42553a9.08225,9.08225,0,0,1,3.57788-3.65479,5.63123,5.63123,0,0,1,1.62268-.58252,12.59968,12.59968,0,0,0-2.7843,1.87256A30.615,30.615,0,0,0,204.59456,230.42553Z" fill="#dd765e"/><path d="M267.77132,214.72777a33.26227,33.26227,0,0,1-3.756.2002,32.80984,32.80984,0,0,1-3.75592-.2002,32.92461,32.92461,0,0,1,3.75592-.20068A33.26528,33.26528,0,0,1,267.77132,214.72777Z" fill="#dd765e"/><path d="M256.022,211.54955a5.39549,5.39549,0,0,1-1.49277.20068,5.34109,5.34109,0,0,1-1.49274-.20068,5.32242,5.32242,0,0,1,1.49274-.20019A5.3948,5.3948,0,0,1,256.022,211.54955Z" fill="#dd765e"/><path d="M268.446,217.52074a31.94127,31.94127,0,0,1-3.64151.53662,31.507,31.507,0,0,1-3.67829.13721,31.61359,31.61359,0,0,1,3.64151-.53662A31.94369,31.94369,0,0,1,268.446,217.52074Z" fill="#dd765e"/><path d="M274.67366,215.64281a.9592.9592,0,0,1,.93234-.48535,1.59711,1.59711,0,0,1,.52082.145,1.17925,1.17925,0,0,1,.40832.34033c-.36652-.00635-.65555-.08838-.95068-.085A2.54655,2.54655,0,0,0,274.67366,215.64281Z" fill="#dd765e"/><path d="M269.0955,219.47094a26.43438,26.43438,0,0,1,3.24826-.835,26.15695,26.15695,0,0,1,3.32465-.44141,26.07277,26.07277,0,0,1-3.24826.835A26.52339,26.52339,0,0,1,269.0955,219.47094Z" fill="#dd765e"/><path d="M268.446,222.3601c1.17612-.43067,2.38342-.71582,3.58465-1.02539l1.81678-.39746c.60656-.12989,1.21954-.2251,1.821-.38282a8.99273,8.99273,0,0,1-1.74441.68164c-.5951.18506-1.19968.33057-1.80079.48877A28.92857,28.92857,0,0,1,268.446,222.3601Z" fill="#dd765e"/><path d="M269.133,224.52709a26.16836,26.16836,0,0,1,2.91721-.80859c.98681-.20264,1.96554-.39991,2.96817-.564a12.5031,12.5031,0,0,1-2.88151.95508A18.37627,18.37627,0,0,1,269.133,224.52709Z" fill="#dd765e"/><path d="M209.79512,217.32787c-.07257-1.542-.03668-3.08008.02539-4.6167.05463-1.5376.18921-3.06982.3432-4.60058.17438-1.52881.37854-3.05664.68274-4.56983a20.79321,20.79321,0,0,1,1.28314-4.4458c-.14813.75928-.29364,1.50537-.38312,2.26709q-.16872,1.13379-.29,2.27393l-.49537,4.561c-.17315,1.52051-.32763,3.04395-.52813,4.56494C210.24324,214.28393,210.05293,215.80639,209.79512,217.32787Z" fill="#5e7c24"/><path d="M232.9156,147.08715a22.87559,22.87559,0,0,0,5.29529-.66992,12.877,12.877,0,0,1,2.82752-.53321,13.26776,13.26776,0,0,1,2.9364.09668l-.20221-.01416.11242-.0039-.20105.02685a13.32028,13.32028,0,0,1,2.9242-.28711,12.89209,12.89209,0,0,1,2.85641.3501,23.03907,23.03907,0,0,0,5.327.33057,10.9821,10.9821,0,0,1-2.65073.95752,10.59781,10.59781,0,0,1-2.87832.25439,18.01975,18.01975,0,0,0-2.60227-.00391,18.29451,18.29451,0,0,0-2.50946.34278l-.02228.00537a1.02821,1.02821,0,0,1-.17913.022l-.11249.00293a1.01368,1.01368,0,0,1-.18549-.01123l-.01721-.00293a18.46844,18.46844,0,0,0-2.52649-.1831,18.039,18.039,0,0,0-2.59711.17138,10.597,10.597,0,0,1-2.88806-.06836A11.03275,11.03275,0,0,1,232.9156,147.08715Z" fill="#1e1d22"/><path d="M236.14161,138.95368a1.5009,1.5009,0,0,0,0-3,1.5009,1.5009,0,0,0,0,3Z" fill="#1e1d22"/><path d="M250.34508,136.45141c-1.13163-.0918-2.12415-.22754-3.12723-.24268a11.90893,11.90893,0,0,0-1.497.04053c-.51184.02783-1.00781.13916-1.58722.20215a3.31806,3.31806,0,0,1,1.40814-.96143,4.46946,4.46946,0,0,1,1.70117-.28027,5.17,5.17,0,0,1,1.67341.334A3.84,3.84,0,0,1,250.34508,136.45141Z" fill="#1e1d22"/><path d="M247.44373,138.95368a1.5009,1.5009,0,0,0,0-3,1.5009,1.5009,0,0,0,0,3Z" fill="#1e1d22"/><path d="M484.44748,430.33548l3.72814,20.47087s-9.70828,4.841-16.53949-7.59161L470.632,431.02819Z" fill="#f9977a"/><path d="M486.17122,439.97054s8.33335,11.49895,3.88308,18.43a2.43767,2.43767,0,0,1-2.01532,1.16089l-40.58667.415a1.44326,1.44326,0,0,1-1.3242-1.661c.20261-2.39576,1.12923-6.73765,5.07405-8.78919,5.60888-2.917,9.678,2.10667,18.97392-7.2579C470.17608,442.26841,482.4275,446.05741,486.17122,439.97054Z" fill="#935b50"/><path d="M502.56126,430.1184l3.72814,20.47087s-9.70828,4.841-16.53949-7.59161l-1.00417-12.18654Z" fill="#f9977a"/><path d="M504.285,439.75346s8.33335,11.49895,3.88308,18.43a2.43768,2.43768,0,0,1-2.01532,1.16088l-40.58667.415a1.44326,1.44326,0,0,1-1.3242-1.661c.20261-2.39577,1.12924-6.73765,5.07405-8.7892,5.60889-2.917,9.678,2.10668,18.97392-7.25789C488.28986,442.05134,500.54128,445.84033,504.285,439.75346Z" fill="#935b50"/><path d="M465.56609,459.75951a1.43889,1.43889,0,0,1-1.37821-1.394,12.55549,12.55549,0,0,1,1.72287-6.12793,8.48531,8.48531,0,0,1,3.09143-2.97608,9.9629,9.9629,0,0,1,4.12836-1.19921c1.43207-.10694,2.84622-.02881,4.23974-.16065a13.27,13.27,0,0,0,4.04285-1.01611,23.838,23.838,0,0,0,6.87674-4.834,21.80832,21.80832,0,0,1-6.74237,5.14356,12.743,12.743,0,0,1-4.13931,1.104c-1.42688.147-2.85248.084-4.24314.19971a9.542,9.542,0,0,0-3.96872,1.11035,8.39813,8.39813,0,0,0-1.67428,1.21387,10.2839,10.2839,0,0,0-1.32813,1.59521,11.76332,11.76332,0,0,0-1.57736,3.86377,11.97912,11.97912,0,0,0-.32229,2.07666A1.38569,1.38569,0,0,0,465.56609,459.75951Z" fill="#6d3932"/><path d="M447.83859,267.37738l-2.98866,71.40235,25.782,98.35642h8.39336s19.6877.93015,24.814,0c0,0-2.84412-74.17248-4.797-102.54211,0,0,6.83508-46.602,3.17343-61.66977Z" fill="#ffba55"/><path d="M467.308,279.71508l.21692,14.32226.13568,14.32178c.1077,9.54785.083,19.09619.125,28.644l-.00876-.0913,9.707,50.20507,4.73926,25.125,4.63269,25.14551-5.14124-25.04639L476.68,387.27367l-9.84073-50.1792-.009-.0459.00018-.04541c.042-9.54785.01733-19.09619.125-28.644l.13568-14.32178Z" fill="#e6952a"/><path d="M444.84993,338.77953c-.24194.67139.32086,1.167.8454,1.43555a8.56027,8.56027,0,0,0,1.75808.68115,38.40169,38.40169,0,0,0,3.79111.78076c1.28147.21485,2.57239.40381,3.86829.59912,1.29327.21338,2.59594.39453,3.89551.68946a29.95765,29.95765,0,0,1-3.97083.08154,32.23778,32.23778,0,0,1-3.95724-.39209,19.45419,19.45419,0,0,1-3.8797-1.0293c-.31284-.13134-.62229-.2832-.926-.4331a6.23227,6.23227,0,0,1-.86053-.584,2.34989,2.34989,0,0,1-.65574-.83252A.91967.91967,0,0,1,444.84993,338.77953Z" fill="#e6952a"/><path d="M467.85628,336.68676c-.242.67138.32086,1.167.84539,1.43554a8.5879,8.5879,0,0,0,1.75809.68116,38.26061,38.26061,0,0,0,3.79111.78027c1.28146.21484,2.57239.4043,3.86829.59961,1.29327.21338,2.59594.394,3.89547.68945a29.95691,29.95691,0,0,1-3.97079.08155,32.23814,32.23814,0,0,1-3.95725-.39209,19.454,19.454,0,0,1-3.8797-1.0293c-.31286-.13135-.62228-.28369-.926-.43311a6.2302,6.2302,0,0,1-.86054-.584,2.34994,2.34994,0,0,1-.65576-.83252A.91973.91973,0,0,1,467.85628,336.68676Z" fill="#e6952a"/><path d="M463.15816,275.99438A17.10887,17.10887,0,0,0,466.391,278.449a25.79516,25.79516,0,0,0,3.60269,1.77588,36.26108,36.26108,0,0,0,3.82882,1.28662c.65131.186,1.3154.33057,1.97513.51465.66373.16748,1.33722.28711,2.0087.4795-.69131.03222-1.383.00781-2.08011.002-.68817-.07129-1.38617-.11475-2.07107-.23975a19.63723,19.63723,0,0,1-4.03363-1.123,16.42784,16.42784,0,0,1-3.6648-2.05811A10.018,10.018,0,0,1,463.15816,275.99438Z" fill="#e6952a"/><polygon points="385.072 239.904 364.477 202.919 378.757 205.71 394.136 234.312 418.852 233.614 443.385 241.579 443.385 243.439 390.413 245.648 385.072 239.904" fill="#f73c4f"/><path d="M445.97529,248.78756h-51.4a7.7412,7.7412,0,0,1-3.31434-.72574c-2.51914-1.19223-6.4621-4.17051-6.4621-11.13369,0,0-2.175-7.91093.9491-5.42463a5.5569,5.5569,0,0,1,1.67909,2.33432l1.03346,2.62523s1.46466-.93015,2.92932,1.62777,2.92931,6.27852,4.14986,6.51106-1.95288-5.21057.48822-4.69813c0,0,3.41754,3.768,4.14987,4.69813l43.20746-1.16269v-1.8603l-9.03207-3.023,12.09008-1.63126" fill="#f9977a"/><polygon points="443.385 241.579 399.802 242.913 394.136 234.312 418.852 233.614 443.385 241.579" fill="#b02336"/><path d="M449.05343,128.35149l.7628,10.51743a57.59756,57.59756,0,0,1-.68042,12.76644c-.80309,5.31955,6.57131,13.72145,9.25735,13.82594l.25595,24.26164,22.60183-13.68156V151.29652s9.33972-1.63895,3.93251-10.41894a36.48936,36.48936,0,0,1-5.53015-16.85743l-10.077-7.25809Z" fill="#f9977a"/><path d="M464.66127,132.89379a.666.666,0,0,1-.29443-1.26367c.16845-.082,4.16162-2.001,7.86279.01269a.666.666,0,0,1-.63672,1.16992c-3.103-1.68847-6.60352-.00585-6.63818.0127A.65892.65892,0,0,1,464.66127,132.89379Z" fill="#1e1d22"/><path d="M451.1432,132.89379a.666.666,0,0,1-.29443-1.26367c.16846-.082,4.16162-2.001,7.86279.01269a.666.666,0,0,1-.63672,1.16992c-3.10254-1.68847-6.60351-.00585-6.63818.0127A.65889.65889,0,0,1,451.1432,132.89379Z" fill="#1e1d22"/><path d="M454.092,141.47188c2.57258,0,2.57684-3.99809,0-3.99809-2.57259,0-2.57685,3.99809,0,3.99809Z" fill="#1e1d22"/><path d="M468.10155,141.35482c2.57259,0,2.57685-3.9981,0-3.9981-2.57258,0-2.57684,3.9981,0,3.9981Z" fill="#1e1d22"/><path d="M460.11363,137.5852c-.71655,1.88183-1.51288,3.69384-2.08826,5.5581a9.568,9.568,0,0,0-.51791,2.80029,2.391,2.391,0,0,0,.34235,1.28516,2.10115,2.10115,0,0,0,1.1578.79,2.04726,2.04726,0,0,1-1.45095-.5415,2.56781,2.56781,0,0,1-.65915-1.48243,7.56234,7.56234,0,0,1,.37863-3.08252A16.90531,16.90531,0,0,1,460.11363,137.5852Z" fill="#dd765e"/><path d="M467.9607,153.111c0,1.64867-5.75663,2.98517-7.92354,2.98517s-3.92353-1.3365-3.92353-2.98517" fill="#dd2f22"/><path d="M458.39316,165.46137s7.37346-.35875,10.93731-3.57427c0,0-4.48165,8.59583-10.872,9.76648Z" fill="#dd765e"/><path d="M443.64622,125.19085s.12289-4.79969,8.971-6.90687,10.56864-6.78979,15.66862-5.50207A16.70449,16.70449,0,0,1,476.581,118.284s16.01694-2.33434,8.25425,22.0118c0,0-5.79643,6.43511-6.41088.69891s-1.96626-15.56971-5.28432-18.14515-8.47949,0-10.44574,1.40478-14.25537,9.71644-15.48429,9.014S441.06551,131.16119,443.64622,125.19085Z" fill="#1e1d22"/><path d="M458.46384,172.16166s-2.61767,7.70011-6.92375,11.74731a7.54127,7.54127,0,0,0-2.34478,4.35326c-.69887,4.60433-1.89021,15.215-2.3925,36.10885-.73233,30.46247-1.95288,42.3219-1.95288,42.3219s32.95484,8.13883,60.53926,5.81345l-3.17343-23.71887s10.25262-3.95314,8.29974-29.29977.73233-32.32277-7.07919-39.29891-17.54728-12.3245-22.18537-20.46333l-18.09277,13.95227-4.14987,12.092Z" fill="#f73c4f"/><path d="M479.02531,184.60717a13.00262,13.00262,0,0,1,6.26325-7.32764,11.15377,11.15377,0,0,1,4.78186-1.27832,11.88331,11.88331,0,0,1,2.45859.11426,20.91284,20.91284,0,0,1,2.36346.58545c-.81766,0-1.60492-.13477-2.39984-.10059a16.06915,16.06915,0,0,0-2.34845.17188,12.81131,12.81131,0,0,0-4.4,1.38867,15.14178,15.14178,0,0,0-3.747,2.73437A21.083,21.083,0,0,0,479.02531,184.60717Z" fill="#b02336"/><path d="M463.15816,173.678c.49554.52637.97866,1.0625,1.45636,1.60351.47723.541.96737,1.07178,1.434,1.6211l2.80526,3.292-.60931-.04443q3.91461-3.85988,7.98047-7.55909c1.34985-1.23876,2.73032-2.44482,4.11288-3.64892,1.37259-1.21436,2.78559-2.38623,4.21454-3.54053-1.24164,1.354-2.49926,2.69092-3.7973,3.98486-1.288,1.30469-2.57819,2.60694-3.899,3.87647q-3.95627,3.81592-8.04324,7.49219l-.34759.311-.262-.356-2.56512-3.48243c-.42838-.57959-.83332-1.17822-1.25113-1.76611C463.96965,174.87328,463.55769,174.28051,463.15816,173.678Z" fill="#b02336"/><path d="M449.73213,246.46215a45.82609,45.82609,0,0,0,2.77789,3.77051c.48529.60888.99082,1.20117,1.48883,1.79785l1.57148,1.72265a55.247,55.247,0,0,0,6.9161,6.20313c1.20035.98193,2.5264,1.78662,3.80384,2.66162,1.344.76563,2.65109,1.60645,4.05734,2.2627.69763.33691,1.37671.72168,2.09253,1.02148l2.16223.87354a18.42331,18.42331,0,0,0,2.19547.79931q1.11465.356,2.22747.74561-1.14962-.23072-2.29968-.49268a18.68968,18.68968,0,0,1-2.28247-.59228l-2.24051-.75342c-.74368-.26172-1.45257-.60987-2.18222-.91162a40.94328,40.94328,0,0,1-4.22082-2.15088c-1.31961-.86719-2.67829-1.68506-3.91367-2.67383a43.42112,43.42112,0,0,1-6.88089-6.48438A38.19946,38.19946,0,0,1,449.73213,246.46215Z" fill="#b02336"/><path d="M459.00832,185.76977c-.93241,6.7622-1.55188,13.55566-1.99308,20.35693-.42688,6.80127-.73868,13.61182-.72009,20.42627q-.11183,10.21875.458,20.43213c.297,6.812.97711,13.59668,1.64,20.39209l-.7579-5.064c-.24616-1.68945-.50784-3.37842-.68018-5.07715-.36941-3.3955-.74008-6.793-.964-10.20263-.54172-6.814-.68448-13.65381-.68744-20.4878.06452-6.83447.36234-13.66845.95368-20.47656.2962-3.40429.6705-6.80078,1.09393-10.18994C457.83382,192.4973,458.31685,189.114,459.00832,185.76977Z" fill="#b02336"/><path d="M484.45672,229.25451l-38.01354-4.0696s-16.423-8.662-27.04171-.90126c-10.61872,7.7612-2.01389,6.73647-2.01389,6.73647s10.2527-1.45857,10.06944.04447c-.13857,1.13828-4.24729,2.25858-6.23535,2.73594a1.842,1.842,0,0,0-1.477,1.67619c-.01142.53649.22647,1.012,1.12142.98641,2.01389-.05819,10.98524-1.80251,11.53453-1.80251.54879,0,10.80149,1.91889,15.19529.52325,0,0,32.21424,15.889,51.99156,12.56647l-.002-.00237A26.15587,26.15587,0,0,1,484.45672,229.25451Z" fill="#f9977a"/><path d="M388.46052,236.46313a23.45611,23.45611,0,0,1,2.14994,3.88232c.29739.667.59372,1.33154.86493,2.00928.29175.66992.53573,1.34277.8909,2.01465a5.36515,5.36515,0,0,1-1.57291-1.64747,14.8111,14.8111,0,0,1-1.0856-1.96484A14.41733,14.41733,0,0,1,388.46052,236.46313Z" fill="#dd765e"/><path d="M384.79887,236.928a18.428,18.428,0,0,1,2.57279,3.36621c.36007.59863.7135,1.20068,1.03528,1.8208.33844.61475.60852,1.251.969,1.87647a5.61467,5.61467,0,0,1-1.61243-1.44483,15.56221,15.56221,0,0,1-1.236-1.73144A14.46869,14.46869,0,0,1,384.79887,236.928Z" fill="#dd765e"/><path d="M426.90785,227.85912c-2.16.63135-4.32529,1.042-6.481,1.481q-1.61682.31786-3.21975.66406a12.75052,12.75052,0,0,0-3.11039,1.01563,6.93314,6.93314,0,0,1,2.88868-1.75782,22.88206,22.88206,0,0,1,3.24746-.895A26.69224,26.69224,0,0,1,426.90785,227.85912Z" fill="#dd765e"/><path d="M425.44319,225.1848c-1.73135.48877-3.40784.88672-5.088,1.334l-2.52249.66162c-.8476.21631-1.68857.458-2.58.62988a13.88769,13.88769,0,0,1,4.85324-2.252,16.03368,16.03368,0,0,1,2.64685-.45313A10.22748,10.22748,0,0,1,425.44319,225.1848Z" fill="#dd765e"/><path d="M481.95464,201.58227q1.4772,5.41332,2.81845,10.85693c.92187,3.62305,1.78378,7.25976,2.63324,10.89941l.0336.14356-.05945.14013L484.91,229.44945l.03467-.26855a23.61889,23.61889,0,0,0,2.232,6.34765,26.64442,26.64442,0,0,0,3.82635,5.59766,25.10061,25.10061,0,0,0,5.13364,4.46631,26.471,26.471,0,0,0,2.94278,1.76221,14.84566,14.84566,0,0,0,1.55862.72754l1.57779.70507c-1.07888-.39355-2.19656-.71728-3.24743-1.19873a26.89188,26.89188,0,0,1-3.08847-1.59326,25.26567,25.26567,0,0,1-5.43265-4.36133,25.96828,25.96828,0,0,1-6.4783-12.30615l-.02594-.12988.06067-.13867,2.53357-5.79981-.02582.28369c-.81864-3.64648-1.62479-7.2959-2.371-10.959Q482.97858,207.09911,481.95464,201.58227Z" fill="#b02336"/><circle cx="287.34864" cy="164.05884" r="10.81273" fill="#ffba55"/><circle cx="330.08766" cy="145.01319" r="10.81273" fill="#ffba55"/><circle cx="375.29023" cy="155.82667" r="10.81273" fill="#ffba55"/><circle cx="403.931" cy="189.12774" r="10.81273" fill="#ffba55"/><path d="M291.38116,159.186h-8.065v.855H286.364a2.43979,2.43979,0,0,1,2.41335,2.10888h-5.46122v.855H288.743a2.44,2.44,0,0,1-2.379,1.90939H283.7436v.85211l4.46712,5.85068.67967-.51865-4.06952-5.3292H286.364a3.28447,3.28447,0,0,0,3.24765-2.76433h1.76952v-.855h-1.74011a3.26,3.26,0,0,0-.94869-2.00056c-.03828-.03828-.07964-.07218-.11946-.10832h2.80826Z" fill="#e6952a"/><path d="M335.23411,138.7977h-8.065v.855H330.217a2.43977,2.43977,0,0,1,2.41334,2.10888h-5.46121v.855H332.596a2.44,2.44,0,0,1-2.379,1.90939h-2.62039v.85212l4.46711,5.85067.67968-.51865-4.06953-5.32919H330.217a3.28449,3.28449,0,0,0,3.24765-2.76434h1.76951v-.855H333.494a3.26,3.26,0,0,0-.9487-2.00056c-.03827-.03827-.07964-.07218-.11945-.10832h2.80825Z" fill="#e6952a"/><path d="M379.32274,149.88065h-8.065v.855h3.04787a2.43977,2.43977,0,0,1,2.41334,2.10888h-5.46121v.855h5.42687a2.44,2.44,0,0,1-2.379,1.90939h-2.62039v.85211l4.46711,5.85068.67968-.51865-4.06953-5.3292h1.54313a3.2845,3.2845,0,0,0,3.24765-2.76433h1.76951v-.855h-1.7401a3.26,3.26,0,0,0-.9487-2.00056c-.03827-.03828-.07964-.07218-.11945-.10832h2.80825Z" fill="#e6952a"/><path d="M409.23816,183.50745h-8.065v.855H404.221a2.43977,2.43977,0,0,1,2.41335,2.10888h-5.46121v.855H406.6a2.44,2.44,0,0,1-2.379,1.90939h-2.62038v.85212l4.46711,5.85067.67968-.51865-4.06953-5.32919H404.221a3.28449,3.28449,0,0,0,3.24766-2.76434h1.76951v-.855h-1.7401a3.26,3.26,0,0,0-.9487-2.00055c-.03828-.03828-.07964-.07218-.11945-.10833h2.80825Z" fill="#e6952a"/><path d="M601.97472,462.12382H98.02528a1.07364,1.07364,0,0,1,0-2.14728H601.97472a1.07364,1.07364,0,0,1,0,2.14728Z" fill="#935b50"/><circle cx="336.38451" cy="202.11165" r="16.39377" fill="#f9e0c0"/><path d="M332.60121,210.30492h-.01465a1.5017,1.5017,0,0,1-1.082-.47656l-5.43213-5.82031a1.5,1.5,0,0,1,2.19336-2.04688l4.35694,4.668,11.90087-12.25586a1.5,1.5,0,1,1,2.15235,2.08985l-12.99854,13.38671A1.50036,1.50036,0,0,1,332.60121,210.30492Z" fill="#6c7fd8"/><circle cx="289.48533" cy="102.51046" r="18.43357" fill="#f9e0c0"/><path d="M296.70866,99.34434h-1.44555V96.45323a5.77779,5.77779,0,0,0-11.55557,0v2.89111H282.262a1.44269,1.44269,0,0,0-1.44555,1.44555v10.11442a1.43892,1.43892,0,0,0,1.44555,1.44112h14.44667a1.43892,1.43892,0,0,0,1.44556-1.44112V100.78989A1.4427,1.4427,0,0,0,296.70866,99.34434Zm-7.22331,7.94386a2.16611,2.16611,0,1,1,2.16611-2.1661A2.16587,2.16587,0,0,1,289.48535,107.2882Zm2.89111-7.94386h-5.78221V96.45323a2.89111,2.89111,0,0,1,5.78221,0Z" fill="#ffba55"/><circle cx="409.72728" cy="110.66475" r="18.37719" fill="#f9e0c0"/><path d="M335.93781,441.87415c0,.12079,1.25763-.17493,1.2429-.0394,0,0-12.37511,20.28907-13.73333,20.28907a3.4226,3.4226,0,0,1-.39185-.0302,2.76973,2.76973,0,0,1-2.35331-3.12265l9.65394-17.13622Z" fill="#935b50"/><path d="M399.06029,441.87415c0,.12079-1.25763-.17493-1.24289-.0394,0,0,12.37511,20.28907,13.73332,20.28907a3.4226,3.4226,0,0,0,.39185-.0302,2.76972,2.76972,0,0,0,2.35331-3.12265l-9.65394-17.13622Z" fill="#935b50"/><path d="M418.38531,396.27006H316.21483V352.9365a3.017,3.017,0,0,1,3.017-3.017h96.13658a3.017,3.017,0,0,1,3.017,3.017Z" fill="#d6694b"/><path d="M330.35646,442.61915H319.239a3.017,3.017,0,0,1-3.01695-3.01694V396.26374H418.391v43.33847a3.01694,3.01694,0,0,1-3.017,3.01694h-7.663" fill="#d6694b"/><rect x="320.6583" y="354.69331" width="93.28354" height="36.80299" rx="3.01695" fill="#e19974"/><ellipse cx="367.30007" cy="373.09481" rx="5.1368" ry="5.08543" fill="#935b50"/><rect x="320.6583" y="401.04382" width="93.28354" height="36.80299" rx="3.01695" fill="#e19974"/><ellipse cx="367.30007" cy="419.44532" rx="5.1368" ry="5.08543" fill="#935b50"/><path d="M356.97551,340.16479h55.16391a0,0,0,0,1,0,0v8.7581a0,0,0,0,1,0,0H356.97551a3.7685,3.7685,0,0,1-3.7685-3.7685v-1.2211a3.7685,3.7685,0,0,1,3.7685-3.7685Z" fill="#fff"/><path d="M413.86457,349.14707a.79352.79352,0,0,1-.79351.79352H355.817c-2.186,0-3.96417-2.401-3.96417-5.35272,0-2.951,1.77814-5.352,3.96417-5.352h57.25406a.79352.79352,0,0,1,.79351.79352v.6246a.79352.79352,0,0,1-.79351.79352H355.817c-1.28282,0-2.32625,1.40891-2.32625,3.14036,0,1.73216,1.04343,3.14108,2.32625,3.14108h57.25406a.79352.79352,0,0,1,.79351.79352Z" fill="#f65b2b"/><path d="M348.36889,329.46007H403.5328a0,0,0,0,1,0,0v8.7581a0,0,0,0,1,0,0H348.36889a3.7685,3.7685,0,0,1-3.7685-3.7685v-1.2211A3.7685,3.7685,0,0,1,348.36889,329.46007Z" fill="#fff"/><path d="M405.258,338.44235a.79352.79352,0,0,1-.79352.79352H347.21038c-2.186,0-3.96417-2.401-3.96417-5.35272,0-2.951,1.77814-5.352,3.96417-5.352h57.25405a.79352.79352,0,0,1,.79352.79352v.6246a.79352.79352,0,0,1-.79352.79352H347.21038c-1.28282,0-2.32625,1.40892-2.32625,3.14036,0,1.73216,1.04343,3.14108,2.32625,3.14108h57.25405a.79352.79352,0,0,1,.79352.79352Z" fill="#ffba55"/><path d="M365.9863,318.75535h55.16391a0,0,0,0,1,0,0v8.7581a0,0,0,0,1,0,0H365.9863a3.7685,3.7685,0,0,1-3.7685-3.7685v-1.2211a3.7685,3.7685,0,0,1,3.7685-3.7685Z" fill="#fff"/><path d="M422.87536,327.73763a.79352.79352,0,0,1-.79352.79352H364.82779c-2.186,0-3.96418-2.401-3.96418-5.35272,0-2.951,1.77815-5.352,3.96418-5.352h57.25405a.79352.79352,0,0,1,.79352.79352v.6246a.79352.79352,0,0,1-.79352.79352H364.82779c-1.28283,0-2.32626,1.40892-2.32626,3.14036,0,1.73217,1.04343,3.14108,2.32626,3.14108h57.25405a.79352.79352,0,0,1,.79352.79352Z" fill="#f65b2b"/><polygon points="399.17 317.755 388.066 317.755 384.325 298.09 402.912 298.09 399.17 317.755" fill="#e19974"/><polygon points="402.485 300.335 402.912 298.09 384.325 298.09 384.752 300.335 402.485 300.335" fill="#d6694b"/><rect x="387.29492" y="308.43266" width="3.31736" height="3.31736" transform="translate(333.18956 -184.20808) rotate(45)" fill="#d6694b"/><rect x="391.98638" y="308.43266" width="3.31736" height="3.31736" transform="translate(334.56366 -187.52544) rotate(45)" fill="#d6694b"/><rect x="396.62381" y="308.43266" width="3.31736" height="3.31736" transform="translate(335.92193 -190.8046) rotate(45)" fill="#d6694b"/><path d="M397.94364,281.54076s.9751,13.77575-4.74,16.69521C393.20361,298.236,391.225,293.01311,397.94364,281.54076Z" fill="#558031"/><path d="M379.502,287.45822A20.1537,20.1537,0,0,1,393.20361,298.236S382.92215,294.744,379.502,287.45822Z" fill="#849f4c"/><path d="M382.81715,305.50262s4.75495-7.1136,10.38646-7.26665C393.20361,298.236,392.35581,303.96373,382.81715,305.50262Z" fill="#a6b862"/><path d="M388.68246,283.50434s6.59752,6.02376,4.52115,14.73163C393.20361,298.236,389.54882,294.362,388.68246,283.50434Z" fill="#849f4c"/><path d="M393.20361,298.236s2.31795-8.48505,14.03573-10.66085C407.23934,287.57512,404.60232,295.3009,393.20361,298.236Z" fill="#a6b862"/><path d="M410.3434,296.01792s-8.94033-3.68573-17.13979,2.21805C393.20361,298.236,404.10391,299.54465,410.3434,296.01792Z" fill="#849f4c"/><path d="M410.26207,304.59868s-4.31687-6.9146-17.05846-6.36271Z" fill="#558031"/><path d="M374.6863,297.11673s11.74144-4.35368,18.671.91107C393.35726,298.0278,386.77749,301.652,374.6863,297.11673Z" fill="#558031"/><path d="M384.31457,284.51025s10.47693,7.41,8.974,13.73174C393.28857,298.242,386.02,292.41414,384.31457,284.51025Z" fill="#558031"/><path d="M402.693,305.61146s-8.637-1.47453-9.48941-7.37549C393.20361,298.236,399.51445,298.54854,402.693,305.61146Z" fill="#849f4c"/><path d="M326.28439,327.07321c-5.572,0-17.41514-8.60431-18.82906-9.64542a.91575.91575,0,1,1,1.08666-1.4743c5.42164,3.99606,15.18886,10.04365,18.30056,9.23024a.91553.91553,0,0,1,.45754,1.773A4.077,4.077,0,0,1,326.28439,327.07321Z" fill="#8b9d36"/><path d="M326.19542,327.7574a.91517.91517,0,0,1-.9119-.84836l-2.20933-30.293a.9154.9154,0,0,1,1.82593-.13345l2.20933,30.293a.91548.91548,0,0,1-.84624.97969C326.23991,327.75634,326.21767,327.7574,326.19542,327.7574Z" fill="#8b9d36"/><path d="M335.48922,328.56233a.92691.92691,0,0,1-.161-.01377.91548.91548,0,0,1-.74139-1.06124c.10062-.56769,2.6118-13.97617,15.371-19.92949a.915.915,0,1,1,.77315,1.65859c-11.90452,5.55509-14.31826,18.46048-14.34156,18.59076A.915.915,0,0,1,335.48922,328.56233Z" fill="#8b9d36"/><path d="M334.39534,324.52509c-.74419-1.45744-4.74336-1.45946-7.29708.33114a6.99324,6.99324,0,0,0-2.45965,3.2276c-.43481,1.12-1.13074,2.91219-.16392,4.138a3.62827,3.62827,0,0,0,4.01742.74466,19.58221,19.58221,0,0,0,3.44359-3.39306C333.41718,327.6977,334.99518,325.69989,334.39534,324.52509Z" fill="#5e7c24"/><path d="M347.34968,310.62171c.24443-.41667.87785-.205,2.29572-.414a26.40455,26.40455,0,0,0,3.52566-1.0758,13.56811,13.56811,0,0,1,3.03369-.74488c.4297.002,2.85843.013,3.68936,1.65522.87051,1.72033-.74108,3.7911-.81981,3.88965-1.558,1.94663-4.21981,1.85166-5.08343,1.82068a7.84811,7.84811,0,0,1-5.49333-2.64818C348.30315,312.8869,346.92509,311.345,347.34968,310.62171Z" fill="#5e7c24"/><path d="M324.96667,302.59389c-.8654-.43575-.359-3.20426-.08207-4.71715a28.07941,28.07941,0,0,1,1.55777-4.71737c1.43477-3.7801,1.76216-4.18734,2.29572-4.386a3.43121,3.43121,0,0,1,3.77165,1.73784c.94858,1.83549-.50554,4.1559-2.04974,6.62067C328.977,299.49874,326.09229,303.16052,324.96667,302.59389Z" fill="#5e7c24"/><path d="M324.63861,309.87683c.63654-1.03584-.53467-3.06148-1.72168-4.13795-.9964-.9036-2.01594-1.1492-3.77165-1.57238-1.9719-.47526-4.14241-.99834-4.75537-.08284-.5845.87285.55892,2.58756.82,2.97931a7.24791,7.24791,0,0,0,3.36152,2.56556C320.32339,310.35366,323.81725,311.21326,324.63861,309.87683Z" fill="#c4ce6e"/><path d="M324.72068,317.90442c.02335-.82413-1.1681-.995-3.60751-2.97931-1.93653-1.5753-1.99169-2.12307-3.11575-2.48272-1.7208-.55047-3.96715-.02627-4.34547,1.07579-.09253.26985-.0794.592,1.39385,2.97932,1.14608,1.857,1.73058,2.79275,2.29573,3.14476a5.38646,5.38646,0,0,0,4.09948.41375C322.4701,319.81243,324.6891,319.0213,324.72068,317.90442Z" fill="#5e7c24"/><path d="M325.61728,308.37929c-.80358-.90987.005-3.10868.99086-4.37519.82757-1.06314,1.79005-1.4821,3.44748-2.2038,1.86152-.81055,3.91053-1.70269,4.67038-.90726.72452.75835-.10964,2.646-.3001,3.07728a7.28188,7.28188,0,0,1-2.87421,3.111C329.94944,308.09979,326.65414,309.5532,325.61728,308.37929Z" fill="#5e7c24"/><path d="M326.21186,316.93154c-.16344-.80779.98114-1.183,3.046-3.56126,1.63922-1.888,1.60021-2.43724,2.64623-2.98669,1.60134-.841,3.90354-.71467,4.464.30528.13713.24976.1791.56939-.86537,3.17691-.81253,2.02836-1.22886,3.0516-1.7256,3.49649a5.39442,5.39442,0,0,1-3.96787,1.11936C328.754,318.42035,326.4333,318.02629,326.21186,316.93154Z" fill="#5e7c24"/><path d="M313.07813,321.21465c-.115-.898-1.5938-1.39369-3.36152-1.98614-1.59714-.5352-2.8651-.9604-4.34547-.49659-.26178.082-2.59042.81134-2.7877,2.56557-.177,1.5735,1.50172,2.72226,1.63983,2.81385a4.95978,4.95978,0,0,0,3.8535.41375C310.38228,324.08148,313.24738,322.53559,313.07813,321.21465Z" fill="#5e7c24"/><path d="M319.71932,325.35259c-1.2346-.88093-3.5648.61333-4.67352,1.32431a9.80139,9.80139,0,0,0-2.86955,2.81364c-.85406,1.28166-1.66675,2.50158-1.22993,3.55874.62809,1.51962,3.3395,1.49695,3.68957,1.48954a5.89675,5.89675,0,0,0,4.01742-1.82068,6.27262,6.27262,0,0,0,1.558-3.14476C320.36053,328.88484,320.93769,326.22207,319.71932,325.35259Z" fill="#c4ce6e"/><path d="M309.88052,316.91125c-.69459-1.01-.45127-1.72594-.738-3.47591-.45572-2.782-1.42521-3.13825-1.06579-4.55169.28291-1.11239,1.2415-2.29976,2.29573-2.31727,1.47658-.02469,2.4265,2.25755,2.62356,2.731.71661,1.72145.45238,3.22222,0,5.79317-.29536,1.67834-.52067,2.87986-1.22971,3.06215C311.08088,318.329,310.26485,317.47,309.88052,316.91125Z" fill="#8b9d36"/><path d="M341.28252,316.663c.21908-.61984,1.38029-.71368,2.7877-.8275,1.75839-.14211,3.0764-.24874,4.34547.57921.19528.12729,2.24991,1.50638,1.8856,3.145-.28468,1.28031-1.87559,1.952-3.03346,1.98613-1.2564.037-2.11068-.67327-3.68958-1.98613C342.33431,318.52539,341.01274,317.42624,341.28252,316.663Z" fill="#8b9d36"/><path d="M343.33226,311.9458c-.3156-.07184-.33517-.51141-.738-1.73806-.90009-2.74045-1.60469-2.98942-1.47569-4.13795.14278-1.27066,1.19145-2.6237,2.13158-2.56556,1.02488.06331,1.63784,1.78588,1.88583,2.483a5.369,5.369,0,0,1,.32806,2.56556C345.2341,310.33189,344.01662,312.10183,343.33226,311.9458Z" fill="#5e7c24"/><path d="M322.99877,300.02855c-.4784.67844-3.19471-.125-5.00135-1.73806-.46128-.41173-2.5028-2.23465-1.96768-3.97249a2.04732,2.04732,0,0,1,1.63984-1.48954c.766-.01886,1.264.75925,2.54172,2.64817C322.83864,299.36135,323.20851,299.73109,322.99877,300.02855Z" fill="#8b9d36"/><path d="M337.921,318.31817c-1.37583.37447-3.176-2.53121-3.60751-3.2276a10.67669,10.67669,0,0,1-1.63983-5.95863c.05894-1.316.16636-3.71544,1.55776-4.3034,1.33314-.56326,3.13645.83558,4.01742,1.9033,1.73836,2.10646,1.4619,4.83164,1.22993,7.11725C339.29817,315.62981,339.05663,318.009,337.921,318.31817Z" fill="#c4ce6e"/><path d="M338.12045,349.94059H324.60127L320.252,326.8664a.91711.91711,0,0,1,.89494-1.09141h20.42782a.91711.91711,0,0,1,.89494,1.09141Z" fill="#e19974"/><path d="M342.15549,328.53362l.31427-1.66721a.91712.91712,0,0,0-.89494-1.09142H321.14694a.91712.91712,0,0,0-.89494,1.09142l.31427,1.66721Z" fill="#d6694b"/><polygon points="325.682 343.406 322.826 340.523 325.682 337.641 328.538 340.523 325.682 343.406" fill="#d6694b"/><polygon points="331.394 343.406 328.538 340.523 331.394 337.641 334.249 340.523 331.394 343.406" fill="#d6694b"/><polygon points="337.04 343.406 334.184 340.523 337.04 337.641 339.895 340.523 337.04 343.406" fill="#d6694b"/><path d="M567.90747,436.4663c-.37387-.73686-37.37865-74.07278-35.08358-103.57322l-1.23651-.09524c-2.32214,29.84622,33.68,101.20736,35.214,104.23037Z" fill="#8b9d36"/><path d="M532.24305,334.50951a14.51127,14.51127,0,0,0,1.56683-5.37628,19.3648,19.3648,0,0,0-.16873-5.087,19.02869,19.02869,0,0,0-1.483-4.86763l-.02286-.04821a2.52865,2.52865,0,0,0-4.78114.79728l-.006.053a19.03075,19.03075,0,0,0,.17693,5.08564,19.36186,19.36186,0,0,0,1.49123,4.86629A14.51117,14.51117,0,0,0,532.24305,334.50951Z" fill="#8b9d36"/><path d="M534.77522,353.42929a9.88461,9.88461,0,0,0,5.25038-2.36559,13.001,13.001,0,0,0,3.38466-4.44829,11.869,11.869,0,0,0,1.09824-5.636l-.00358-.06448a2.50346,2.50346,0,0,0-4.69679-.96835q-.05074.09249-.10195.18458c-.72447,1.329-1.31337,2.58527-1.93206,3.89928A44.97734,44.97734,0,0,0,536.0843,348.22,29.46549,29.46549,0,0,0,534.77522,353.42929Z" fill="#8b9d36"/><path d="M532.51848,341.53311a9.88453,9.88453,0,0,0,5.25037-2.36558,13.001,13.001,0,0,0,3.38466-4.4483,11.869,11.869,0,0,0,1.09824-5.636l-.00358-.06449a2.50346,2.50346,0,0,0-4.69679-.96835q-.05074.09249-.10195.18458c-.72447,1.329-1.31337,2.58527-1.93206,3.89928a44.97734,44.97734,0,0,0-1.68982,4.18955A29.46466,29.46466,0,0,0,532.51848,341.53311Z" fill="#8b9d36"/><path d="M532.86505,344.79821a15.34022,15.34022,0,0,0-1.79954-5.49047,20.85564,20.85564,0,0,0-3.08621-4.28984,20.48476,20.48476,0,0,0-4.06011-3.38109l-.09785-.06015a2.50567,2.50567,0,0,0-3.52133,3.285l.05347.1023a20.484,20.484,0,0,0,3.09252,4.284,20.88145,20.88145,0,0,0,4.06591,3.37558A15.35116,15.35116,0,0,0,532.86505,344.79821Z" fill="#8b9d36"/><path d="M539.47225,369.4957a15.371,15.371,0,0,0,4.25514-3.91765,20.91885,20.91885,0,0,0,2.629-4.59144,20.54916,20.54916,0,0,0,1.39875-5.10171q.01258-.09876.02443-.19784a2.48269,2.48269,0,0,0-4.40651-1.82731q-.0618.07846-.12287.15723a20.54908,20.54908,0,0,0-2.62118,4.59459,20.92011,20.92011,0,0,0-1.39146,5.10513A15.36158,15.36158,0,0,0,539.47225,369.4957Z" fill="#8b9d36"/><path d="M544.16254,383.75023a17.02786,17.02786,0,0,0,4.29961-4.36019,23.92079,23.92079,0,0,0,2.65932-4.99724,23.49214,23.49214,0,0,0,1.41734-5.47913q.01008-.08321.01972-.16659a2.48211,2.48211,0,0,0-4.46839-1.73478q-.04917.06805-.09788.1363a23.50868,23.50868,0,0,0-2.651,5,23.92731,23.92731,0,0,0-1.40955,5.48222A17.01775,17.01775,0,0,0,544.16254,383.75023Z" fill="#8b9d36"/><path d="M549.40867,396.766a19.46663,19.46663,0,0,0,4.82493-4.49,28.29374,28.29374,0,0,0,3.23466-5.245,27.79522,27.79522,0,0,0,2.03262-5.81734l.0269-.12494a2.4815,2.4815,0,0,0-4.35194-2.06825l-.07982.09967a27.81005,27.81005,0,0,0-3.22777,5.249,28.29814,28.29814,0,0,0-2.02465,5.82076A19.46721,19.46721,0,0,0,549.40867,396.766Z" fill="#8b9d36"/><path d="M554.68825,409.8151a19.63956,19.63956,0,0,0,5.00386-4.33912,28.59953,28.59953,0,0,0,3.443-5.15268,28.08048,28.08048,0,0,0,2.26233-5.76881l.00007-.00029a2.50444,2.50444,0,0,0-4.32395-2.25515h0a28.11033,28.11033,0,0,0-3.436,5.15686,28.62762,28.62762,0,0,0-2.25483,5.77265A19.6459,19.6459,0,0,0,554.68825,409.8151Z" fill="#8b9d36"/><path d="M559.34882,420.66743a21.65425,21.65425,0,0,0,5.58448-4.19151,32.22442,32.22442,0,0,0,4.10406-5.14332,31.646,31.646,0,0,0,2.98406-5.86383l.0001-.00026a2.4968,2.4968,0,0,0-4.10193-2.63769h0a31.65031,31.65031,0,0,0-4.09742,5.14812,32.2279,32.2279,0,0,0-2.97688,5.86834A21.64015,21.64015,0,0,0,559.34882,420.66743Z" fill="#8b9d36"/><path d="M565.15317,432.42961a23.068,23.068,0,0,0,5.17373-5.04237,34.77089,34.77089,0,0,0,3.5928-5.81606,34.13855,34.13855,0,0,0,2.3962-6.40144l.00009-.00034a2.49232,2.49232,0,0,0-4.38028-2.14379h0a34.12125,34.12125,0,0,0-3.58534,5.81982,34.76329,34.76329,0,0,0-2.38877,6.40514A23.07012,23.07012,0,0,0,565.15317,432.42961Z" fill="#8b9d36"/><path d="M536.05612,359.38736a18.53548,18.53548,0,0,0-2.84952-5.75021,26.62545,26.62545,0,0,0-4.01334-4.42962,26.163,26.163,0,0,0-4.89348-3.43057l-.12576-.066a2.48171,2.48171,0,0,0-3.18008,3.60871l.08127.11636a26.163,26.163,0,0,0,4.01892,4.42333,26.626,26.626,0,0,0,4.89907,3.42429A18.53653,18.53653,0,0,0,536.05612,359.38736Z" fill="#8b9d36"/><path d="M540.22365,372.95338a15.86139,15.86139,0,0,0-2.98962-5.0697,21.78733,21.78733,0,0,0-4.00174-3.6291,21.3952,21.3952,0,0,0-4.76694-2.53945l-.05216-.019a2.51756,2.51756,0,0,0-2.78631,3.96734l.03561.04258a21.39269,21.39269,0,0,0,4.0064,3.62235,21.78923,21.78923,0,0,0,4.77157,2.53264A15.85016,15.85016,0,0,0,540.22365,372.95338Z" fill="#8b9d36"/><path d="M544.74606,385.81241a17.67465,17.67465,0,0,0-4.01167-4.79366,25.09662,25.09662,0,0,0-4.81611-3.22819,24.619,24.619,0,0,0-5.42494-2.04342h0a2.51426,2.51426,0,0,0-2.2287,4.3377h0a24.61288,24.61288,0,0,0,4.81974,3.2208,25.08971,25.08971,0,0,0,5.42861,2.0361A17.66475,17.66475,0,0,0,544.74606,385.81241Z" fill="#8b9d36"/><path d="M550.39193,399.65286a18.57909,18.57909,0,0,0-4.61847-4.47183A26.748,26.748,0,0,0,540.5,392.34237a26.29516,26.29516,0,0,0-5.7696-1.60254l-.14016-.02022a2.4817,2.4817,0,0,0-1.79189,4.46424l.11519.08227a26.27482,26.27482,0,0,0,5.27687,2.83079,26.77332,26.77332,0,0,0,5.77294,1.59461A18.6017,18.6017,0,0,0,550.39193,399.65286Z" fill="#8b9d36"/><path d="M555.13042,411.18251a22.23657,22.23657,0,0,0-5.8508-3.9908,33.26881,33.26881,0,0,0-6.28376-2.28469,32.70166,32.70166,0,0,0-6.61062-.9939l-.0004,0a2.49507,2.49507,0,0,0-1.19865,4.72748h0a32.67562,32.67562,0,0,0,6.28568,2.27665,33.27458,33.27458,0,0,0,6.613.98552A22.22642,22.22642,0,0,0,555.13042,411.18251Z" fill="#8b9d36"/><path d="M559.8346,420.99465a19.29271,19.29271,0,0,0-5.68311-3.27216,27.98351,27.98351,0,0,0-5.93345-1.53018,27.48144,27.48144,0,0,0-6.1231-.21172h-.0001a2.50621,2.50621,0,0,0-.69416,4.82743h0a27.48581,27.48581,0,0,0,5.93509,1.5216,27.97936,27.97936,0,0,0,6.12421.20343A19.2849,19.2849,0,0,0,559.8346,420.99465Z" fill="#8b9d36"/><path d="M563.21855,428.91031a24.166,24.166,0,0,0-6.91861-2.64271,36.72594,36.72594,0,0,0-6.97277-.88331,36.07488,36.07488,0,0,0-7.01273.44757l-.00037.00006a2.4896,2.4896,0,0,0-.149,4.87485h0a36.09579,36.09579,0,0,0,6.97312.8749,36.72575,36.72575,0,0,0,7.013-.456A24.1654,24.1654,0,0,0,563.21855,428.91031Z" fill="#8b9d36"/><path d="M545.65384,434.95871a2.48621,2.48621,0,0,0,.74454,4.80272h.00017a33.49771,33.49771,0,0,0,6.70034-.36076,32.88673,32.88673,0,0,0,6.49549-1.67662,22.12326,22.12326,0,0,0,6.22406-3.43266,22.12669,22.12669,0,0,0-6.97132-1.38661,32.89816,32.89816,0,0,0-6.69824.36863,33.49623,33.49623,0,0,0-6.495,1.68529Z" fill="#8b9d36"/><path d="M550.15674,422.15849c.15579-.9352,15.43655-93.9397,2.77684-125.44234l1.32077-.52959c12.80827,31.87183-2.05427,122.36981-2.69358,126.20654Z" fill="#5f7d37"/><path d="M554.1254,298.28575a16.65021,16.65021,0,0,1-3.56441-5.34609,22.21847,22.21847,0,0,1-1.56509-5.62639,21.83351,21.83351,0,0,1-.051-5.83838l.00844-.06064a2.90139,2.90139,0,0,1,5.50784-.77187l.02475.05591a21.83635,21.83635,0,0,1,1.55566,5.62776,22.21642,22.21642,0,0,1,.04155,5.83974A16.65033,16.65033,0,0,1,554.1254,298.28575Z" fill="#5f7d37"/><path d="M557.86156,319.86692a11.34161,11.34161,0,0,1-6.56093-.78343,14.91739,14.91739,0,0,1-5.23506-3.705,13.61865,13.61865,0,0,1-3.14082-5.7916l-.01826-.07182a2.87248,2.87248,0,0,1,4.80816-2.67557q.08736.08379.17508.167c1.25018,1.20558,2.32693,2.37815,3.45616,3.60369a51.60812,51.60812,0,0,1,3.29083,4.00475A33.80887,33.80887,0,0,1,557.86156,319.86692Z" fill="#5f7d37"/><path d="M556.23987,306.06874a11.3417,11.3417,0,0,1-6.56093-.78344,14.9174,14.9174,0,0,1-5.23506-3.705,13.61858,13.61858,0,0,1-3.14082-5.79161l-.01826-.07182a2.87248,2.87248,0,0,1,4.80816-2.67556q.08736.08379.17508.167c1.25017,1.20557,2.32693,2.37814,3.45616,3.60369a51.60853,51.60853,0,0,1,3.29083,4.00475A33.80791,33.80791,0,0,1,556.23987,306.06874Z" fill="#5f7d37"/><path d="M556.98362,309.762a17.60131,17.60131,0,0,1,.08123-6.629,23.92952,23.92952,0,0,1,1.90266-5.75736,23.50435,23.50435,0,0,1,3.2813-5.09764l.08643-.09949a2.875,2.875,0,0,1,4.98452,2.38462l-.02335.13037a23.50307,23.50307,0,0,1-1.91157,5.75314,23.95959,23.95959,0,0,1-3.28955,5.09359A17.61408,17.61408,0,0,1,556.98362,309.762Z" fill="#5f7d37"/><path d="M558.24651,339.06938a17.63675,17.63675,0,0,1-6.00538-2.82471A24.00242,24.00242,0,0,1,547.784,332.123a23.57737,23.57737,0,0,1-3.286-5.10334q-.04775-.10378-.09479-.20816a2.84864,2.84864,0,0,1,4.19494-3.516q.09465.06462.18859.12984a23.5788,23.5788,0,0,1,4.44964,4.12776,24.00408,24.00408,0,0,1,3.27919,5.10961A17.62577,17.62577,0,0,1,558.24651,339.06938Z" fill="#5f7d37"/><path d="M558.0156,356.28618a19.5376,19.5376,0,0,1-6.2063-3.29385,27.44771,27.44771,0,0,1-4.6299-4.55539,26.95489,26.95489,0,0,1-3.43615-5.51009q-.03966-.08761-.07889-.17557a2.848,2.848,0,0,1,4.29452-3.436q.07723.05758.154.11553a26.97364,26.97364,0,0,1,4.62175,4.56131,27.45419,27.45419,0,0,1,3.42868,5.51615A19.526,19.526,0,0,1,558.0156,356.28618Z" fill="#5f7d37"/><path d="M556.75014,372.33821a22.33648,22.33648,0,0,1-6.826-3.25519,32.46381,32.46381,0,0,1-5.34492-4.62872,31.89241,31.89241,0,0,1-4.226-5.66866l-.07241-.12751a2.84728,2.84728,0,0,1,4.05233-3.76093l.12166.08164a31.90921,31.90921,0,0,1,5.33874,4.63544,32.46907,32.46907,0,0,1,4.21845,5.67514A22.33675,22.33675,0,0,1,556.75014,372.33821Z" fill="#5f7d37"/><path d="M555.45952,388.43818a22.53465,22.53465,0,0,1-6.96993-3.02854,32.81556,32.81556,0,0,1-5.54119-4.456,32.22008,32.22008,0,0,1-4.46075-5.53654l-.00018-.00028a2.87361,2.87361,0,0,1,3.95742-3.9559h0a32.25377,32.25377,0,0,1,5.535,4.463,32.84805,32.84805,0,0,1,4.45386,5.54331A22.5422,22.5422,0,0,1,555.45952,388.43818Z" fill="#5f7d37"/><path d="M554.09086,401.92059a24.846,24.846,0,0,1-7.55472-2.66723,36.97409,36.97409,0,0,1-6.26161-4.21834,36.31052,36.31052,0,0,1-5.28346-5.39227l-.0002-.00026a2.86485,2.86485,0,0,1,3.5828-4.29827h0a36.31555,36.31555,0,0,1,6.256,4.22587,36.97783,36.97783,0,0,1,5.27715,5.39969A24.82976,24.82976,0,0,1,554.09086,401.92059Z" fill="#5f7d37"/><path d="M551.78315,416.79239a26.46792,26.46792,0,0,1-7.39777-3.7399,39.89575,39.89575,0,0,1-5.93339-5.1306,39.1713,39.1713,0,0,1-4.82489-6.183l-.00022-.00035a2.85969,2.85969,0,0,1,4.05738-3.85336h0a39.15035,39.15035,0,0,1,5.92651,5.13728,39.88748,39.88748,0,0,1,4.818,6.18958A26.47068,26.47068,0,0,1,551.78315,416.79239Z" fill="#5f7d37"/><path d="M558.50889,326.82941a21.26789,21.26789,0,0,1,1.14123-7.27452,30.55025,30.55025,0,0,1,2.86945-6.22929,30.01854,30.01854,0,0,1,4.17652-5.43845l.11494-.11554a2.84752,2.84752,0,0,1,4.72232,2.85632l-.04893.15533a30.01957,30.01957,0,0,1-2.87772,6.22433,30.55117,30.55117,0,0,1-4.18479,5.43349A21.26884,21.26884,0,0,1,558.50889,326.82941Z" fill="#5f7d37"/><path d="M558.61337,343.11272a18.19931,18.19931,0,0,1,1.52867-6.57781,24.99858,24.99858,0,0,1,3.13211-5.349,24.54839,24.54839,0,0,1,4.34453-4.41947l.05054-.0388a2.88865,2.88865,0,0,1,4.41464,3.38435l-.02433.05885a24.54563,24.54563,0,0,1-3.13952,5.34325,25.00151,25.00151,0,0,1-4.35194,4.41362A18.18667,18.18667,0,0,1,558.61337,343.11272Z" fill="#5f7d37"/><path d="M558.0862,358.74422a20.27968,20.27968,0,0,1,2.74239-6.62721,28.79589,28.79589,0,0,1,4.16144-5.1903,28.2486,28.2486,0,0,1,5.23542-4.10285h0a2.88487,2.88487,0,0,1,3.93167,3.98155h0a28.2401,28.2401,0,0,1-4.168,5.18346,28.78718,28.78718,0,0,1-5.242,4.09608A20.26832,20.26832,0,0,1,558.0862,358.74422Z" fill="#5f7d37"/><path d="M556.66683,375.83644a21.31827,21.31827,0,0,1,3.51732-6.48365,30.69126,30.69126,0,0,1,4.79609-4.92124,30.17153,30.17153,0,0,1,5.76434-3.73878l.14647-.07035a2.84752,2.84752,0,0,1,3.49706,4.27033l-.0978.12967a30.14891,30.14891,0,0,1-4.8025,4.9138,30.71951,30.71951,0,0,1-5.77074,3.73125A21.34355,21.34355,0,0,1,556.66683,375.83644Z" fill="#5f7d37"/><path d="M555.44587,390.08708a25.5143,25.5143,0,0,1,5.03172-6.381,38.17338,38.17338,0,0,1,6.09252-4.66236,37.52313,37.52313,0,0,1,6.8943-3.36185l.00044-.00015a2.86285,2.86285,0,0,1,2.93822,4.76253h0a37.4933,37.4933,0,0,1-6.09738,4.65423,38.18027,38.18027,0,0,1-6.89984,3.3535A25.503,25.503,0,0,1,555.44587,390.08708Z" fill="#5f7d37"/><path d="M553.67167,402.44587a22.13657,22.13657,0,0,1,5.09536-5.53667,32.10817,32.10817,0,0,1,5.96859-3.71593,31.53174,31.53174,0,0,1,6.62971-2.338l.00011,0a2.87563,2.87563,0,0,1,2.42037,5.04548h0a31.53679,31.53679,0,0,1-5.97333,3.70712,32.103,32.103,0,0,1-6.63377,2.32927A22.12773,22.12773,0,0,1,553.67167,402.44587Z" fill="#5f7d37"/><path d="M552.6903,412.2746a27.72812,27.72812,0,0,1,6.66428-5.27264,42.13939,42.13939,0,0,1,7.32877-3.36536,41.39269,41.39269,0,0,1,7.8303-1.92229l.00043-.00006a2.85658,2.85658,0,0,1,1.83992,5.28491h0a41.41742,41.41742,0,0,1-7.332,3.35628,42.1401,42.1401,0,0,1-7.83357,1.91313A27.72781,27.72781,0,0,1,552.6903,412.2746Z" fill="#5f7d37"/><path d="M573.99767,412.85352a2.85269,2.85269,0,0,1,.837,5.51331l-.00018.00007a38.43654,38.43654,0,0,1-7.45849,1.90986,37.73552,37.73552,0,0,1-7.68689.399,25.3843,25.3843,0,0,1-7.99379-1.61657,25.38848,25.38848,0,0,1,7.15406-3.9158,37.74691,37.74691,0,0,1,7.4589-1.90051,38.43313,38.43313,0,0,1,7.68935-.38937Z" fill="#5f7d37"/><path d="M548.94642,441.46182c.30688-.60483,30.6815-60.80114,28.79764-85.016l1.015-.07818c1.90609,24.49867-27.64555,83.074-28.9047,85.55539Z" fill="#c4ce6e"/><path d="M578.22083,357.77266a11.91127,11.91127,0,0,1-1.2861-4.413,15.89472,15.89472,0,0,1,.1385-4.17553,15.61942,15.61942,0,0,1,1.21731-3.9955l.01877-.03957a2.07559,2.07559,0,0,1,3.9245.65443l.0049.04347a15.62081,15.62081,0,0,1-.14523,4.17444,15.89319,15.89319,0,0,1-1.224,3.99441A11.91126,11.91126,0,0,1,578.22083,357.77266Z" fill="#c4ce6e"/><path d="M576.14235,373.30257a8.11355,8.11355,0,0,1-4.30967-1.94174,10.67163,10.67163,0,0,1-2.77823-3.65129,9.74248,9.74248,0,0,1-.90146-4.62622l.00293-.05293a2.05492,2.05492,0,0,1,3.85527-.79485q.04165.07592.08368.15151c.59467,1.09089,1.07806,2.12206,1.5859,3.20064a36.92419,36.92419,0,0,1,1.387,3.43891A24.18655,24.18655,0,0,1,576.14235,373.30257Z" fill="#c4ce6e"/><path d="M577.99475,363.53783a8.11348,8.11348,0,0,1-4.30966-1.94174,10.6715,10.6715,0,0,1-2.77823-3.65129,9.74248,9.74248,0,0,1-.90147-4.62622l.00294-.05293a2.05492,2.05492,0,0,1,3.85527-.79485q.04164.07593.08368.15151c.59466,1.09089,1.07805,2.12207,1.58589,3.20065a36.91846,36.91846,0,0,1,1.387,3.4389A24.18526,24.18526,0,0,1,577.99475,363.53783Z" fill="#c4ce6e"/><path d="M577.71028,366.21793a12.59157,12.59157,0,0,1,1.47711-4.50674,17.11854,17.11854,0,0,1,2.53325-3.52123,16.81453,16.81453,0,0,1,3.33266-2.7753l.08032-.04937a2.05672,2.05672,0,0,1,2.89041,2.69643l-.04389.084a16.814,16.814,0,0,1-2.53843,3.51643,17.14019,17.14019,0,0,1-3.33742,2.77077A12.60068,12.60068,0,0,1,577.71028,366.21793Z" fill="#c4ce6e"/><path d="M572.28689,386.49036a12.61687,12.61687,0,0,1-3.49275-3.21572,17.17108,17.17108,0,0,1-2.158-3.76879,16.86731,16.86731,0,0,1-1.14814-4.18764q-.01032-.08106-.02-.16239a2.03786,2.03786,0,0,1,3.617-1.49991q.05075.0644.10086.12906a16.8669,16.8669,0,0,1,2.15154,3.77137,17.17169,17.17169,0,0,1,1.14216,4.19045A12.60923,12.60923,0,0,1,572.28689,386.49036Z" fill="#c4ce6e"/><path d="M568.437,398.19091a13.97684,13.97684,0,0,1-3.52925-3.579,19.63534,19.63534,0,0,1-2.18285-4.10189,19.28311,19.28311,0,0,1-1.16339-4.49743l-.01619-.13674a2.0374,2.0374,0,0,1,3.66779-1.424l.08034.11188a19.29636,19.29636,0,0,1,2.176,4.10418,19.6397,19.6397,0,0,1,1.157,4.5A13.96873,13.96873,0,0,1,568.437,398.19091Z" fill="#c4ce6e"/><path d="M564.13077,408.87466a15.97893,15.97893,0,0,1-3.96044-3.6855,23.22465,23.22465,0,0,1-2.65511-4.30527,22.81511,22.81511,0,0,1-1.66843-4.775l-.02208-.10255a2.03689,2.03689,0,0,1,3.5722-1.69769l.06552.08182a22.82719,22.82719,0,0,1,2.64945,4.30853,23.22739,23.22739,0,0,1,1.66189,4.77785A15.979,15.979,0,0,1,564.13077,408.87466Z" fill="#c4ce6e"/><path d="M559.79714,419.58573a16.12072,16.12072,0,0,1-4.10731-3.56169,23.47546,23.47546,0,0,1-2.82611-4.22947,23.04945,23.04945,0,0,1-1.857-4.73521l-.00006-.00023a2.05572,2.05572,0,0,1,3.54923-1.8511h0a23.07341,23.07341,0,0,1,2.82036,4.2329,23.49845,23.49845,0,0,1,1.85083,4.73836A16.12609,16.12609,0,0,1,559.79714,419.58573Z" fill="#c4ce6e"/><path d="M555.97161,428.49364a17.7745,17.7745,0,0,1-4.58391-3.44052,26.45091,26.45091,0,0,1-3.36873-4.22179,25.97582,25.97582,0,0,1-2.44941-4.8132l-.00008-.00022a2.04945,2.04945,0,0,1,3.367-2.16509h0a25.97928,25.97928,0,0,1,3.36328,4.22573,26.45311,26.45311,0,0,1,2.44352,4.81691A17.763,17.763,0,0,1,555.97161,428.49364Z" fill="#c4ce6e"/><path d="M551.20722,438.14839a18.935,18.935,0,0,1-4.24674-4.13893,28.54093,28.54093,0,0,1-2.94909-4.774,28.02182,28.02182,0,0,1-1.96687-5.25449l-.00007-.00028a2.04576,2.04576,0,0,1,3.59546-1.75968h0a28.00717,28.00717,0,0,1,2.94295,4.77709,28.53429,28.53429,0,0,1,1.96078,5.25752A18.93667,18.93667,0,0,1,551.20722,438.14839Z" fill="#c4ce6e"/><path d="M575.091,378.19314a15.21457,15.21457,0,0,1,2.339-4.72,21.85512,21.85512,0,0,1,3.29427-3.636,21.47513,21.47513,0,0,1,4.01671-2.81592l.10323-.0542a2.03706,2.03706,0,0,1,2.61031,2.96213l-.06671.09552a21.476,21.476,0,0,1-3.29885,3.6308,21.85559,21.85559,0,0,1-4.0213,2.81075A15.2153,15.2153,0,0,1,575.091,378.19314Z" fill="#c4ce6e"/><path d="M571.67012,389.32853a13.01962,13.01962,0,0,1,2.454-4.16137,17.88428,17.88428,0,0,1,3.28475-2.97887,17.56173,17.56173,0,0,1,3.91285-2.08445l.04282-.01564a2.06648,2.06648,0,0,1,2.28708,3.25651l-.02923.03495a17.55943,17.55943,0,0,1-3.28858,2.97334,17.885,17.885,0,0,1-3.91664,2.07886A13.0103,13.0103,0,0,1,571.67012,389.32853Z" fill="#c4ce6e"/><path d="M567.958,399.88361a14.50733,14.50733,0,0,1,3.2929-3.93479,20.60022,20.60022,0,0,1,3.9532-2.64979,20.20777,20.20777,0,0,1,4.453-1.6773h0a2.06378,2.06378,0,0,1,1.82939,3.56051h0a20.20315,20.20315,0,0,1-3.95618,2.64372,20.59418,20.59418,0,0,1-4.456,1.67129A14.49967,14.49967,0,0,1,567.958,399.88361Z" fill="#c4ce6e"/><path d="M563.32369,411.24426a15.25062,15.25062,0,0,1,3.791-3.67062,21.95654,21.95654,0,0,1,4.32864-2.33006,21.58379,21.58379,0,0,1,4.73586-1.3154l.115-.0166A2.037,2.037,0,0,1,577.765,407.576l-.09455.06753a21.568,21.568,0,0,1-4.33141,2.3236,21.97569,21.97569,0,0,1-4.73861,1.30889A15.26867,15.26867,0,0,1,563.32369,411.24426Z" fill="#c4ce6e"/><path d="M559.4342,420.70814a18.25216,18.25216,0,0,1,4.80251-3.27577,27.30786,27.30786,0,0,1,5.15789-1.87534,26.8428,26.8428,0,0,1,5.42619-.81583h.00033a2.048,2.048,0,0,1,.9839,3.88046h0a26.82186,26.82186,0,0,1-5.15948,1.86875,27.31309,27.31309,0,0,1-5.42818.80894A18.24454,18.24454,0,0,1,559.4342,420.70814Z" fill="#c4ce6e"/><path d="M555.57286,428.76223a15.83624,15.83624,0,0,1,4.66487-2.68589,22.96981,22.96981,0,0,1,4.87035-1.256,22.5569,22.5569,0,0,1,5.026-.17378h.00008a2.05717,2.05717,0,0,1,.56979,3.9625h0a22.56065,22.56065,0,0,1-4.8717,1.249,22.96582,22.96582,0,0,1-5.02693.167A15.82954,15.82954,0,0,1,555.57286,428.76223Z" fill="#c4ce6e"/><path d="M552.79522,435.25964a19.83648,19.83648,0,0,1,5.679-2.16922,30.14529,30.14529,0,0,1,5.72346-.725,29.61157,29.61157,0,0,1,5.75625.36737l.00031.00006a2.04354,2.04354,0,0,1,.12229,4.00142h0a29.62838,29.62838,0,0,1-5.72375.71814,30.14524,30.14524,0,0,1-5.75652-.37433A19.83591,19.83591,0,0,1,552.79522,435.25964Z" fill="#c4ce6e"/><path d="M567.21286,440.22435a2.04076,2.04076,0,0,1-.61115,3.94222h-.00013a27.49616,27.49616,0,0,1-5.49984-.29612,26.9944,26.9944,0,0,1-5.3317-1.37622,18.15944,18.15944,0,0,1-5.10889-2.81763,18.16277,18.16277,0,0,1,5.72227-1.13818,27.0046,27.0046,0,0,1,5.49811.30259,27.49454,27.49454,0,0,1,5.33132,1.38334Z" fill="#c4ce6e"/><path d="M568.57444,462.12382h-25.7215L534.57807,418.223a1.7449,1.7449,0,0,1,1.70271-2.07651h38.86583a1.7449,1.7449,0,0,1,1.70271,2.07651Z" fill="#e19974"/><path d="M576.25149,421.39507l.59793-3.172a1.74489,1.74489,0,0,0-1.70271-2.07652H536.28077a1.74489,1.74489,0,0,0-1.70271,2.07652l.59792,3.172Z" fill="#d6694b"/><polygon points="544.909 449.691 539.476 444.206 544.909 438.722 550.343 444.206 544.909 449.691" fill="#d6694b"/><polygon points="555.776 449.691 550.343 444.206 555.776 438.722 561.21 444.206 555.776 449.691" fill="#d6694b"/><polygon points="566.518 449.691 561.084 444.206 566.518 438.722 571.951 444.206 566.518 449.691" fill="#d6694b"/><path d="M419.15212,98.93429H403.931v1.61356h5.75223a4.60458,4.60458,0,0,1,4.5547,3.98009H403.931v1.61354h10.24212a4.605,4.605,0,0,1-4.48989,3.60358h-4.94545v1.6082l8.43077,11.042,1.28275-.97884-7.6804-10.05777h2.91233a6.19882,6.19882,0,0,0,6.12929-5.21712h3.3396v-1.61354H415.868a6.15255,6.15255,0,0,0-1.79047-3.77565c-.07224-.07224-.1503-.13622-.22545-.20444h5.3Z" fill="#ffba55"/></svg>