<svg id="Layer_1" data-name="Layer 1" xmlns="http://www.w3.org/2000/svg" viewBox="0 0 700 550"><title>old lady reading book</title><path d="M271.28507,457.28034c-14.83683-4.63823-28.1489-9.37688-44.16355-18.37029-16.51682-9.27644-89.88839-53.42173-99.42961-129.82458a145.73456,145.73456,0,0,1,6.08082-62.23253c2.9491-8.64645,9.06644-26.01239,24.50588-43.1866,18.89985-21.03635,40.46576-29.18976,53.1113-33.80059a153.2473,153.2473,0,0,1,59.54821-8.84732c11.46773.37435,31.70974,1.21434,54.71824,11.26686,15.01031,6.5556,24.34154,14.03337,38.09186,25.20893,21.785,17.722,24.652,25.09936,62.76209,61.69384,10.4634,10.04339,19.06419,17.95941,32.19365,25.75674,9.103,5.40517,16.462,8.42732,30.03888,13.94206,33.37147,13.55858,42.87305,16.30387,53.793,23.93685,21.23721,14.85509,19.86165,31.0553,20.77469,34.5431a68.59354,68.59354,0,0,1,1.61607,27.36369c-2.78476,18.32463-12.65467,30.30366-18.78115,37.55317a103.26268,103.26268,0,0,1-30.03888,24.14067,191.96377,191.96377,0,0,1-24.61545,10.856Z" fill="#ffe3cb"/><path d="M224.18062,444.32849c-21.916-12.3125-94.17187-58.47461-103.79394-135.57129a152.77875,152.77875,0,0,1,6.35449-65.02539c2.73535-8.02442,9.14062-26.81543,25.61035-45.14063,20.167-22.44043,43.15527-30.82519,55.50488-35.3291a159.92475,159.92475,0,0,1,62.19825-9.24707c10.59082.34375,32.62988,1.05859,57.166,11.77246l-.36523.83594c-24.376-10.64356-46.2959-11.35449-56.83008-11.69629a158.94831,158.94831,0,0,0-61.85645,9.19238c-12.27539,4.47754-35.123,12.81055-55.13769,35.08106-16.3457,18.1875-22.709,36.85449-25.42676,44.82617a151.834,151.834,0,0,0-6.31152,64.61719c9.56836,76.67285,81.51269,122.6289,103.335,134.88769Z" fill="#ffe3cb"/><path d="M579.70211,458.28063H123.18453a1,1,0,0,1,0-2H579.70211a1,1,0,0,1,0,2Z" fill="#935b50"/><path d="M168.73567,432.62312c-.37387-.73686-37.37865-74.07278-35.08358-103.57323l-1.23651-.09524c-2.32214,29.84623,33.68,101.20737,35.214,104.23038Z" fill="#8b9d36"/><path d="M133.07126,330.66633a14.51148,14.51148,0,0,0,1.56682-5.37628,19.36479,19.36479,0,0,0-.16873-5.087,19.02869,19.02869,0,0,0-1.483-4.86763l-.02286-.04822a2.52865,2.52865,0,0,0-4.78114.79729l-.006.053a19.03067,19.03067,0,0,0,.17693,5.08563,19.36221,19.36221,0,0,0,1.49123,4.8663A14.511,14.511,0,0,0,133.07126,330.66633Z" fill="#8b9d36"/><path d="M135.60343,349.5861a9.88453,9.88453,0,0,0,5.25037-2.36558,13.001,13.001,0,0,0,3.38466-4.44829,11.869,11.869,0,0,0,1.09824-5.636l-.00358-.06449a2.50346,2.50346,0,0,0-4.69679-.96834q-.05075.09249-.10195.18458c-.72447,1.329-1.31337,2.58526-1.93206,3.89928a44.97734,44.97734,0,0,0-1.68982,4.18955A29.46454,29.46454,0,0,0,135.60343,349.5861Z" fill="#8b9d36"/><path d="M133.34668,337.68993a9.88462,9.88462,0,0,0,5.25037-2.36559,13.0011,13.0011,0,0,0,3.38467-4.44829A11.86911,11.86911,0,0,0,143.08,325.24l-.00358-.06448a2.50346,2.50346,0,0,0-4.69679-.96835q-.05074.09249-.102.18458c-.72447,1.329-1.31337,2.58527-1.93206,3.89928a44.97734,44.97734,0,0,0-1.68982,4.18955A29.46466,29.46466,0,0,0,133.34668,337.68993Z" fill="#8b9d36"/><path d="M133.69325,340.955a15.34022,15.34022,0,0,0-1.79954-5.49047,20.85537,20.85537,0,0,0-3.08621-4.28984,20.485,20.485,0,0,0-4.0601-3.38109l-.09786-.06015a2.50567,2.50567,0,0,0-3.52133,3.285l.05348.1023a20.48361,20.48361,0,0,0,3.09251,4.284,20.88145,20.88145,0,0,0,4.06591,3.37558A15.35116,15.35116,0,0,0,133.69325,340.955Z" fill="#8b9d36"/><path d="M140.30045,365.65252a15.371,15.371,0,0,0,4.25514-3.91765,20.91908,20.91908,0,0,0,2.629-4.59144,20.54885,20.54885,0,0,0,1.39875-5.10171q.01259-.09876.02443-.19784a2.48268,2.48268,0,0,0-4.4065-1.82731q-.06181.07845-.12288.15723a20.54865,20.54865,0,0,0-2.62117,4.59459,20.91955,20.91955,0,0,0-1.39147,5.10513A15.36159,15.36159,0,0,0,140.30045,365.65252Z" fill="#8b9d36"/><path d="M144.99074,379.90705a17.02773,17.02773,0,0,0,4.29961-4.3602,23.92054,23.92054,0,0,0,2.65932-4.99724,23.492,23.492,0,0,0,1.41734-5.47913q.01008-.0832.01972-.16658a2.48211,2.48211,0,0,0-4.46839-1.73478q-.04917.06805-.09788.13629a23.50876,23.50876,0,0,0-2.651,5,23.92722,23.92722,0,0,0-1.40955,5.48221A17.0178,17.0178,0,0,0,144.99074,379.90705Z" fill="#8b9d36"/><path d="M150.23688,392.92284a19.46654,19.46654,0,0,0,4.82492-4.49,28.29381,28.29381,0,0,0,3.23466-5.245,27.79493,27.79493,0,0,0,2.03262-5.81733l.0269-.12494a2.4815,2.4815,0,0,0-4.35194-2.06825l-.07982.09966a27.81044,27.81044,0,0,0-3.22777,5.249,28.29885,28.29885,0,0,0-2.02465,5.82075A19.467,19.467,0,0,0,150.23688,392.92284Z" fill="#8b9d36"/><path d="M155.51645,405.97192a19.63956,19.63956,0,0,0,5.00386-4.33912,28.59988,28.59988,0,0,0,3.443-5.15268,28.0807,28.0807,0,0,0,2.26233-5.76881l.00007-.00029a2.50444,2.50444,0,0,0-4.32395-2.25516h0a28.10965,28.10965,0,0,0-3.436,5.15686,28.62776,28.62776,0,0,0-2.25483,5.77264A19.646,19.646,0,0,0,155.51645,405.97192Z" fill="#8b9d36"/><path d="M160.177,416.82425a21.65405,21.65405,0,0,0,5.58448-4.19152,32.22353,32.22353,0,0,0,4.10406-5.14332,31.64563,31.64563,0,0,0,2.98406-5.86382l.0001-.00027a2.49681,2.49681,0,0,0-4.10193-2.63769h0a31.65031,31.65031,0,0,0-4.09742,5.14812,32.2279,32.2279,0,0,0-2.97688,5.86834A21.64015,21.64015,0,0,0,160.177,416.82425Z" fill="#8b9d36"/><path d="M165.98137,428.58643a23.068,23.068,0,0,0,5.17373-5.04237,34.77024,34.77024,0,0,0,3.5928-5.81606,34.13954,34.13954,0,0,0,2.39621-6.40144l.00008-.00035a2.49231,2.49231,0,0,0-4.38028-2.14378h0a34.12125,34.12125,0,0,0-3.58534,5.81982,34.76419,34.76419,0,0,0-2.38877,6.40513A23.07022,23.07022,0,0,0,165.98137,428.58643Z" fill="#8b9d36"/><path d="M136.88432,355.54418a18.53548,18.53548,0,0,0-2.84952-5.75021,26.62545,26.62545,0,0,0-4.01334-4.42962,26.16255,26.16255,0,0,0-4.89348-3.43057l-.12576-.066a2.48171,2.48171,0,0,0-3.18008,3.6087l.08127.11637a26.163,26.163,0,0,0,4.01892,4.42333,26.626,26.626,0,0,0,4.89907,3.42428A18.53654,18.53654,0,0,0,136.88432,355.54418Z" fill="#8b9d36"/><path d="M141.05185,369.1102a15.86144,15.86144,0,0,0-2.98962-5.06971,21.78763,21.78763,0,0,0-4.00174-3.62909,21.39479,21.39479,0,0,0-4.76694-2.53945l-.05216-.01905a2.51755,2.51755,0,0,0-2.7863,3.96734l.0356.04257a21.3924,21.3924,0,0,0,4.0064,3.62236,21.78923,21.78923,0,0,0,4.77157,2.53264A15.8502,15.8502,0,0,0,141.05185,369.1102Z" fill="#8b9d36"/><path d="M145.57426,381.96923a17.6745,17.6745,0,0,0-4.01167-4.79366,25.09662,25.09662,0,0,0-4.81611-3.22819,24.61954,24.61954,0,0,0-5.42494-2.04343h0a2.51426,2.51426,0,0,0-2.2287,4.3377h0a24.61239,24.61239,0,0,0,4.81974,3.22079,25.08867,25.08867,0,0,0,5.42861,2.0361A17.66452,17.66452,0,0,0,145.57426,381.96923Z" fill="#8b9d36"/><path d="M151.22014,395.80968a18.5793,18.5793,0,0,0-4.61848-4.47183,26.748,26.748,0,0,0-5.27348-2.83867,26.29569,26.29569,0,0,0-5.7696-1.60253l-.14016-.02022a2.4817,2.4817,0,0,0-1.79189,4.46424l.11519.08226a26.27464,26.27464,0,0,0,5.27687,2.8308,26.77266,26.77266,0,0,0,5.773,1.5946A18.60145,18.60145,0,0,0,151.22014,395.80968Z" fill="#8b9d36"/><path d="M155.95862,407.33933a22.23657,22.23657,0,0,0-5.8508-3.9908,33.26881,33.26881,0,0,0-6.28376-2.28469,32.70166,32.70166,0,0,0-6.61062-.9939l-.0004,0a2.49507,2.49507,0,0,0-1.19865,4.72748h0a32.67562,32.67562,0,0,0,6.28568,2.27665,33.27531,33.27531,0,0,0,6.613.98552A22.22671,22.22671,0,0,0,155.95862,407.33933Z" fill="#8b9d36"/><path d="M160.6628,417.15146a19.29268,19.29268,0,0,0-5.68311-3.27216,27.98408,27.98408,0,0,0-5.93345-1.53017,27.48144,27.48144,0,0,0-6.1231-.21172h-.0001a2.50621,2.50621,0,0,0-.69416,4.82743h0a27.48581,27.48581,0,0,0,5.93509,1.5216,27.97939,27.97939,0,0,0,6.12421.20343A19.28468,19.28468,0,0,0,160.6628,417.15146Z" fill="#8b9d36"/><path d="M164.04675,425.06713a24.16638,24.16638,0,0,0-6.91861-2.64272,36.72511,36.72511,0,0,0-6.97277-.8833,36.07476,36.07476,0,0,0-7.01272.44756l-.00038.00007a2.4896,2.4896,0,0,0-.149,4.87485h0a36.09579,36.09579,0,0,0,6.97312.8749,36.72575,36.72575,0,0,0,7.013-.456A24.1657,24.1657,0,0,0,164.04675,425.06713Z" fill="#8b9d36"/><path d="M146.482,431.11553a2.48621,2.48621,0,0,0,.74454,4.80272h.00017a33.49845,33.49845,0,0,0,6.70034-.36076,32.88725,32.88725,0,0,0,6.49549-1.67662,22.12351,22.12351,0,0,0,6.22406-3.43266,22.12694,22.12694,0,0,0-6.97132-1.38662,32.89816,32.89816,0,0,0-6.69824.36864,33.49623,33.49623,0,0,0-6.495,1.68529Z" fill="#8b9d36"/><path d="M150.98494,418.31531c.15579-.9352,15.43655-93.9397,2.77684-125.44234l1.32077-.52959c12.80827,31.87183-2.05427,122.36981-2.69358,126.20654Z" fill="#5f7d37"/><path d="M154.9536,294.44257a16.65021,16.65021,0,0,1-3.56441-5.34609,22.21884,22.21884,0,0,1-1.56509-5.6264,21.83351,21.83351,0,0,1-.051-5.83838l.00844-.06064a2.90139,2.90139,0,0,1,5.50784-.77186l.02475.05591a21.836,21.836,0,0,1,1.55566,5.62776,22.21642,22.21642,0,0,1,.04155,5.83974A16.65014,16.65014,0,0,1,154.9536,294.44257Z" fill="#5f7d37"/><path d="M158.68976,316.02374a11.34163,11.34163,0,0,1-6.56093-.78343,14.91752,14.91752,0,0,1-5.23506-3.705,13.61865,13.61865,0,0,1-3.14082-5.7916l-.01826-.07182a2.87248,2.87248,0,0,1,4.80816-2.67557q.08736.08379.17509.167c1.25017,1.20558,2.32692,2.37815,3.45615,3.60369a51.60812,51.60812,0,0,1,3.29083,4.00475A33.80839,33.80839,0,0,1,158.68976,316.02374Z" fill="#5f7d37"/><path d="M157.06807,302.22556a11.3417,11.3417,0,0,1-6.56093-.78344,14.9173,14.9173,0,0,1-5.23506-3.705,13.61854,13.61854,0,0,1-3.14082-5.7916l-.01826-.07182a2.87248,2.87248,0,0,1,4.80816-2.67557q.08736.08381.17508.167c1.25018,1.20558,2.32693,2.37815,3.45616,3.6037a51.60664,51.60664,0,0,1,3.29083,4.00475A33.80791,33.80791,0,0,1,157.06807,302.22556Z" fill="#5f7d37"/><path d="M157.81182,305.91885a17.60131,17.60131,0,0,1,.08123-6.629,23.92974,23.92974,0,0,1,1.90266-5.75737,23.5049,23.5049,0,0,1,3.2813-5.09763l.08643-.0995a2.875,2.875,0,0,1,4.98452,2.38462l-.02335.13038a23.50307,23.50307,0,0,1-1.91157,5.75314,23.95928,23.95928,0,0,1-3.28955,5.09358A17.614,17.614,0,0,1,157.81182,305.91885Z" fill="#5f7d37"/><path d="M159.07471,335.2262a17.63675,17.63675,0,0,1-6.00538-2.82471,24.0031,24.0031,0,0,1-4.45713-4.12163,23.578,23.578,0,0,1-3.286-5.10334q-.04775-.10379-.09479-.20816a2.84864,2.84864,0,0,1,4.19494-3.516q.09465.06462.18859.12984A23.57817,23.57817,0,0,1,154.0646,323.71a24.00369,24.00369,0,0,1,3.27919,5.10961A17.62557,17.62557,0,0,1,159.07471,335.2262Z" fill="#5f7d37"/><path d="M158.8438,352.443a19.53789,19.53789,0,0,1-6.2063-3.29384,27.44771,27.44771,0,0,1-4.6299-4.55539,26.9556,26.9556,0,0,1-3.43615-5.51009q-.03966-.08761-.07889-.17557a2.848,2.848,0,0,1,4.29452-3.436q.07724.0576.154.11553a26.97406,26.97406,0,0,1,4.62175,4.56132,27.45391,27.45391,0,0,1,3.42868,5.51615A19.526,19.526,0,0,1,158.8438,352.443Z" fill="#5f7d37"/><path d="M157.57834,368.495a22.336,22.336,0,0,1-6.826-3.25519,32.46416,32.46416,0,0,1-5.34492-4.62871,31.89241,31.89241,0,0,1-4.226-5.66866l-.07241-.12751a2.84728,2.84728,0,0,1,4.05233-3.76094l.12166.08165a31.90921,31.90921,0,0,1,5.33874,4.63544,32.46907,32.46907,0,0,1,4.21845,5.67514A22.33655,22.33655,0,0,1,157.57834,368.495Z" fill="#5f7d37"/><path d="M156.28772,384.595a22.5344,22.5344,0,0,1-6.96993-3.02853,32.81556,32.81556,0,0,1-5.54119-4.456,32.22008,32.22008,0,0,1-4.46075-5.53654l-.00018-.00028a2.87361,2.87361,0,0,1,3.95742-3.95591h0a32.25377,32.25377,0,0,1,5.535,4.463,32.84805,32.84805,0,0,1,4.45386,5.54331A22.54214,22.54214,0,0,1,156.28772,384.595Z" fill="#5f7d37"/><path d="M154.91906,398.0774a24.846,24.846,0,0,1-7.55472-2.66722,36.97508,36.97508,0,0,1-6.26161-4.21834,36.31059,36.31059,0,0,1-5.28346-5.39228l-.0002-.00026a2.86484,2.86484,0,0,1,3.5828-4.29826h0a36.315,36.315,0,0,1,6.256,4.22587,36.97841,36.97841,0,0,1,5.27716,5.39969A24.82992,24.82992,0,0,1,154.91906,398.0774Z" fill="#5f7d37"/><path d="M152.61135,412.94921a26.46792,26.46792,0,0,1-7.39777-3.7399,39.89575,39.89575,0,0,1-5.93339-5.1306,39.1713,39.1713,0,0,1-4.82489-6.183l-.00022-.00035a2.85969,2.85969,0,0,1,4.05738-3.85336h0a39.15138,39.15138,0,0,1,5.9265,5.13729,39.88787,39.88787,0,0,1,4.818,6.18957A26.47086,26.47086,0,0,1,152.61135,412.94921Z" fill="#5f7d37"/><path d="M159.33709,322.98623a21.26823,21.26823,0,0,1,1.14123-7.27453,30.551,30.551,0,0,1,2.86945-6.22928,30.01854,30.01854,0,0,1,4.17652-5.43845l.11494-.11555a2.84753,2.84753,0,0,1,4.72233,2.85633l-.04894.15533a30.01957,30.01957,0,0,1-2.87772,6.22433,30.55117,30.55117,0,0,1-4.18479,5.43349A21.269,21.269,0,0,1,159.33709,322.98623Z" fill="#5f7d37"/><path d="M159.44157,339.26954a18.19931,18.19931,0,0,1,1.52867-6.57781,24.99833,24.99833,0,0,1,3.13211-5.349,24.54839,24.54839,0,0,1,4.34453-4.41947l.05054-.0388a2.88865,2.88865,0,0,1,4.41464,3.38435l-.02433.05885a24.54563,24.54563,0,0,1-3.13952,5.34325,25.00112,25.00112,0,0,1-4.35194,4.41361A18.18668,18.18668,0,0,1,159.44157,339.26954Z" fill="#5f7d37"/><path d="M158.9144,354.901a20.27958,20.27958,0,0,1,2.74239-6.62721,28.79589,28.79589,0,0,1,4.16144-5.1903,28.2486,28.2486,0,0,1,5.23542-4.10285h0a2.88487,2.88487,0,0,1,3.93167,3.98155h0a28.2397,28.2397,0,0,1-4.16795,5.18345,28.78723,28.78723,0,0,1-5.242,4.09609A20.26845,20.26845,0,0,1,158.9144,354.901Z" fill="#5f7d37"/><path d="M157.495,371.99326a21.318,21.318,0,0,1,3.51731-6.48365,30.69126,30.69126,0,0,1,4.79609-4.92124,30.17081,30.17081,0,0,1,5.76435-3.73878l.14646-.07035a2.84752,2.84752,0,0,1,3.49706,4.27033l-.0978.12967a30.148,30.148,0,0,1-4.8025,4.91379,30.71955,30.71955,0,0,1-5.77074,3.73126A21.34373,21.34373,0,0,1,157.495,371.99326Z" fill="#5f7d37"/><path d="M156.27407,386.2439a25.5143,25.5143,0,0,1,5.03172-6.381,38.1728,38.1728,0,0,1,6.09252-4.66236,37.52249,37.52249,0,0,1,6.8943-3.36185l.00044-.00015a2.86285,2.86285,0,0,1,2.93822,4.76253h0a37.49275,37.49275,0,0,1-6.09739,4.65422,38.17965,38.17965,0,0,1-6.89984,3.35351A25.503,25.503,0,0,1,156.27407,386.2439Z" fill="#5f7d37"/><path d="M154.49987,398.60268a22.13669,22.13669,0,0,1,5.09536-5.53666,32.10907,32.10907,0,0,1,5.96859-3.71594,31.53171,31.53171,0,0,1,6.62971-2.33795l.00011,0a2.87563,2.87563,0,0,1,2.42037,5.04547h0a31.5373,31.5373,0,0,1-5.97333,3.70712,32.103,32.103,0,0,1-6.63377,2.32926A22.12722,22.12722,0,0,1,154.49987,398.60268Z" fill="#5f7d37"/><path d="M153.5185,408.43141a27.72831,27.72831,0,0,1,6.66428-5.27263,42.13939,42.13939,0,0,1,7.32877-3.36536,41.39269,41.39269,0,0,1,7.8303-1.92229l.00043-.00006a2.85657,2.85657,0,0,1,1.83992,5.28491h0a41.41709,41.41709,0,0,1-7.332,3.35628,42.13929,42.13929,0,0,1-7.83357,1.91312A27.72781,27.72781,0,0,1,153.5185,408.43141Z" fill="#5f7d37"/><path d="M174.82587,409.01034a2.85269,2.85269,0,0,1,.837,5.51331l-.00018.00007a38.43579,38.43579,0,0,1-7.45849,1.90985,37.73481,37.73481,0,0,1-7.68689.399,25.38491,25.38491,0,0,1-7.99379-1.61657,25.38848,25.38848,0,0,1,7.15406-3.9158,37.74691,37.74691,0,0,1,7.4589-1.90051,38.43319,38.43319,0,0,1,7.68936-.38938Z" fill="#5f7d37"/><path d="M149.77462,437.61864c.30688-.60484,30.6815-60.80114,28.79764-85.016l1.015-.07818c1.90609,24.49867-27.64555,83.074-28.9047,85.55539Z" fill="#c4ce6e"/><path d="M179.049,353.92947a11.91122,11.91122,0,0,1-1.2861-4.413,15.89472,15.89472,0,0,1,.1385-4.17553,15.6197,15.6197,0,0,1,1.21731-3.9955l.01877-.03957a2.07559,2.07559,0,0,1,3.9245.65443l.0049.04347a15.62081,15.62081,0,0,1-.14523,4.17444,15.893,15.893,0,0,1-1.224,3.9944A11.911,11.911,0,0,1,179.049,353.92947Z" fill="#c4ce6e"/><path d="M176.97055,369.45939a8.11363,8.11363,0,0,1-4.30967-1.94174,10.67166,10.67166,0,0,1-2.77823-3.6513,9.74241,9.74241,0,0,1-.90146-4.62621l.00294-.05294a2.05491,2.05491,0,0,1,3.85526-.79484q.04166.07592.08368.1515c.59467,1.0909,1.07806,2.12207,1.5859,3.20065a36.91757,36.91757,0,0,1,1.387,3.43891A24.18655,24.18655,0,0,1,176.97055,369.45939Z" fill="#c4ce6e"/><path d="M178.823,359.69465a8.11348,8.11348,0,0,1-4.30966-1.94174,10.6715,10.6715,0,0,1-2.77823-3.65129,9.7426,9.7426,0,0,1-.90147-4.62622l.00294-.05293a2.05492,2.05492,0,0,1,3.85527-.79485q.04164.07592.08368.15151c.59466,1.09089,1.07805,2.12206,1.58589,3.20065a36.92008,36.92008,0,0,1,1.38706,3.4389A24.18618,24.18618,0,0,1,178.823,359.69465Z" fill="#c4ce6e"/><path d="M178.53848,362.37475a12.59169,12.59169,0,0,1,1.47711-4.50675,17.11848,17.11848,0,0,1,2.53325-3.52122,16.81458,16.81458,0,0,1,3.33266-2.77531l.08032-.04937a2.05673,2.05673,0,0,1,2.89041,2.69644l-.04389.084a16.81334,16.81334,0,0,1-2.53843,3.51642,17.14023,17.14023,0,0,1-3.33742,2.77078A12.60087,12.60087,0,0,1,178.53848,362.37475Z" fill="#c4ce6e"/><path d="M173.11509,382.64718a12.61683,12.61683,0,0,1-3.49274-3.21572,17.171,17.171,0,0,1-2.158-3.7688,16.86711,16.86711,0,0,1-1.14814-4.18763q-.01032-.08107-.02-.16239a2.03786,2.03786,0,0,1,3.617-1.49992q.05075.06441.10086.12906a16.86719,16.86719,0,0,1,2.15154,3.77138,17.17169,17.17169,0,0,1,1.14216,4.19045A12.609,12.609,0,0,1,173.11509,382.64718Z" fill="#c4ce6e"/><path d="M169.26516,394.34772a13.97684,13.97684,0,0,1-3.52925-3.579,19.635,19.635,0,0,1-2.18285-4.10188,19.28311,19.28311,0,0,1-1.16339-4.49743l-.01619-.13674a2.0374,2.0374,0,0,1,3.66779-1.424l.08034.11188a19.29591,19.29591,0,0,1,2.176,4.10418,19.6397,19.6397,0,0,1,1.157,4.5A13.96845,13.96845,0,0,1,169.26516,394.34772Z" fill="#c4ce6e"/><path d="M164.959,405.03147a15.97889,15.97889,0,0,1-3.96044-3.68549,23.22472,23.22472,0,0,1-2.6551-4.30527,22.81476,22.81476,0,0,1-1.66844-4.775l-.02208-.10256a2.03689,2.03689,0,0,1,3.5722-1.69768l.06552.08181a22.82726,22.82726,0,0,1,2.64945,4.30854,23.22792,23.22792,0,0,1,1.6619,4.77784A15.979,15.979,0,0,1,164.959,405.03147Z" fill="#c4ce6e"/><path d="M160.62534,415.74255a16.12091,16.12091,0,0,1-4.10731-3.56169,23.47546,23.47546,0,0,1-2.82611-4.22947,23.04945,23.04945,0,0,1-1.857-4.73521l-.00006-.00023a2.05572,2.05572,0,0,1,3.54923-1.85111h0a23.07387,23.07387,0,0,1,2.82035,4.2329,23.49822,23.49822,0,0,1,1.85083,4.73836A16.126,16.126,0,0,1,160.62534,415.74255Z" fill="#c4ce6e"/><path d="M156.79981,424.65046a17.7745,17.7745,0,0,1-4.58391-3.44052,26.45091,26.45091,0,0,1-3.36873-4.22179,25.97582,25.97582,0,0,1-2.44941-4.8132l-.00008-.00022a2.04945,2.04945,0,0,1,3.367-2.1651h0a25.97933,25.97933,0,0,1,3.36327,4.22573,26.45311,26.45311,0,0,1,2.44352,4.81691A17.763,17.763,0,0,1,156.79981,424.65046Z" fill="#c4ce6e"/><path d="M152.03543,434.30521a18.93482,18.93482,0,0,1-4.24675-4.13893,28.54093,28.54093,0,0,1-2.94909-4.774,28.02182,28.02182,0,0,1-1.96687-5.25449l-.00007-.00028a2.04577,2.04577,0,0,1,3.59546-1.75969h0a28.00786,28.00786,0,0,1,2.943,4.77709,28.53471,28.53471,0,0,1,1.96077,5.25752A18.937,18.937,0,0,1,152.03543,434.30521Z" fill="#c4ce6e"/><path d="M175.91915,374.35a15.21451,15.21451,0,0,1,2.339-4.71994,21.85512,21.85512,0,0,1,3.29427-3.636,21.47513,21.47513,0,0,1,4.01671-2.81592l.10323-.0542a2.03706,2.03706,0,0,1,2.61031,2.96213l-.06671.09551a21.47521,21.47521,0,0,1-3.29885,3.6308,21.85564,21.85564,0,0,1-4.0213,2.81076A15.21552,15.21552,0,0,1,175.91915,374.35Z" fill="#c4ce6e"/><path d="M172.49832,385.48534a13.01951,13.01951,0,0,1,2.454-4.16136,17.8839,17.8839,0,0,1,3.28474-2.97887,17.56173,17.56173,0,0,1,3.91285-2.08445l.04282-.01564a2.06648,2.06648,0,0,1,2.28708,3.25651l-.02923.03495a17.56,17.56,0,0,1-3.28857,2.97334,17.88531,17.88531,0,0,1-3.91665,2.07886A13.01009,13.01009,0,0,1,172.49832,385.48534Z" fill="#c4ce6e"/><path d="M168.78619,396.04042a14.50779,14.50779,0,0,1,3.2929-3.93478,20.59976,20.59976,0,0,1,3.9532-2.64979,20.2083,20.2083,0,0,1,4.453-1.67731h0a2.06378,2.06378,0,0,1,1.82939,3.56051h0a20.20315,20.20315,0,0,1-3.95618,2.64372,20.59418,20.59418,0,0,1-4.456,1.67129A14.49968,14.49968,0,0,1,168.78619,396.04042Z" fill="#c4ce6e"/><path d="M164.15189,407.40107a15.25044,15.25044,0,0,1,3.791-3.67061,21.95566,21.95566,0,0,1,4.32863-2.33006,21.58379,21.58379,0,0,1,4.73586-1.3154l.115-.0166a2.037,2.037,0,0,1,1.47083,3.66438l-.09455.06752a21.56758,21.56758,0,0,1-4.33141,2.32361,21.97667,21.97667,0,0,1-4.73861,1.30889A15.26844,15.26844,0,0,1,164.15189,407.40107Z" fill="#c4ce6e"/><path d="M160.2624,416.865a18.25192,18.25192,0,0,1,4.80251-3.27577,27.3079,27.3079,0,0,1,5.15789-1.87535,26.84349,26.84349,0,0,1,5.42619-.81582h.00033a2.048,2.048,0,0,1,.9839,3.88045h0a26.82186,26.82186,0,0,1-5.15948,1.86875,27.31371,27.31371,0,0,1-5.42818.80894A18.24454,18.24454,0,0,1,160.2624,416.865Z" fill="#c4ce6e"/><path d="M156.40107,424.91905a15.83607,15.83607,0,0,1,4.66486-2.68589,22.96921,22.96921,0,0,1,4.87035-1.256,22.55752,22.55752,0,0,1,5.026-.17379h.00008a2.05717,2.05717,0,0,1,.56979,3.9625h0a22.56123,22.56123,0,0,1-4.8717,1.249,22.96644,22.96644,0,0,1-5.02693.167A15.82943,15.82943,0,0,1,156.40107,424.91905Z" fill="#c4ce6e"/><path d="M153.62342,431.41646a19.83648,19.83648,0,0,1,5.679-2.16922,30.14529,30.14529,0,0,1,5.72346-.725,29.61079,29.61079,0,0,1,5.75625.36737l.00031.00006a2.04354,2.04354,0,0,1,.12229,4.00142h0a29.62906,29.62906,0,0,1-5.72375.71814,30.146,30.146,0,0,1-5.75652-.37433A19.83591,19.83591,0,0,1,153.62342,431.41646Z" fill="#c4ce6e"/><path d="M168.04106,436.38117a2.04076,2.04076,0,0,1-.61115,3.94221h-.00013a27.49616,27.49616,0,0,1-5.49984-.29612,26.99457,26.99457,0,0,1-5.3317-1.37622,18.15983,18.15983,0,0,1-5.10889-2.81763,18.16249,18.16249,0,0,1,5.72227-1.13818,27.00388,27.00388,0,0,1,5.49811.30259,27.49432,27.49432,0,0,1,5.33132,1.38333Z" fill="#c4ce6e"/><path d="M169.40265,458.28063H143.68114l-8.27487-43.9008a1.7449,1.7449,0,0,1,1.70271-2.07651h38.86583a1.7449,1.7449,0,0,1,1.70271,2.07651Z" fill="#e19974"/><path d="M177.07969,417.55189l.59793-3.172a1.74489,1.74489,0,0,0-1.70271-2.07652H137.109a1.74489,1.74489,0,0,0-1.70271,2.07652l.59792,3.172Z" fill="#d6694b"/><polygon points="145.737 445.848 140.304 440.363 145.737 434.879 151.171 440.363 145.737 445.848" fill="#d6694b"/><polygon points="156.604 445.848 151.171 440.363 156.604 434.879 162.038 440.363 156.604 445.848" fill="#d6694b"/><polygon points="167.346 445.848 161.913 440.363 167.346 434.879 172.78 440.363 167.346 445.848" fill="#d6694b"/><rect x="508.57973" y="289.73719" width="2.26563" height="21.52051" fill="#f65b2b"/><path d="M533.45084,357.6341h-3.49578s-1.0875-4.73864-8.01174-8.00131c-6.35116-2.99256-7.83536-13.98265-7.83536-13.98265V309.62657a4.66087,4.66087,0,0,0-4.66088-4.66088h0a4.66088,4.66088,0,0,0-4.66088,4.66088v26.02357s-1.48419,10.99009-7.83536,13.98265c-6.92423,3.26267-8.01174,8.00131-8.01174,8.00131H484.697a4.19481,4.19481,0,0,0-4.19481,4.19481h57.14351A4.1948,4.1948,0,0,0,533.45084,357.6341Z" fill="#e19974"/><path d="M513.21585,301.33879a5.32792,5.32792,0,0,1,.39559-4.44859,6.58136,6.58136,0,0,1,5.12137-3.15526c2.82337-.26084,4.91924,1.48263,7.4675,3.411,10.48521,7.93469,8.06989,5.47235,15.74783,11.41161a10.04183,10.04183,0,0,1,3.759,9.86623c-.92571,4.32868-5.66478,7.44032-9.9989,7.68749a9.98068,9.98068,0,0,1-5.54534-1.38547,19.55927,19.55927,0,0,1-5.91712-5.0192A87.27355,87.27355,0,0,1,513.21585,301.33879Z" fill="#ffba55"/><path d="M505.63846,278.93716a5.32794,5.32794,0,0,1-.41966,4.44638,6.58136,6.58136,0,0,1-5.13837,3.12751c-2.82473.24556-4.91114-1.50923-7.44892-3.45134-10.44214-7.9913-8.04018-5.51593-15.68587-11.49663a10.04185,10.04185,0,0,1-3.70552-9.88643c.94911-4.3236,5.70495-7.40956,10.04034-7.63328a9.9807,9.9807,0,0,1,5.53776,1.41545,19.55948,19.55948,0,0,1,5.88989,5.05113A87.27442,87.27442,0,0,1,505.63846,278.93716Z" fill="#ffba55"/><path d="M498.23145,293.89387a5.32789,5.32789,0,0,1,4.45091.36847,6.58139,6.58139,0,0,1,3.18643,5.102c.278,2.82173-1.45263,4.92819-3.36542,7.48815-7.87064,10.53338-5.42307,8.1031-11.31541,15.81709a10.04186,10.04186,0,0,1-9.84315,3.819c-4.33423-.89931-7.4747-5.61933-7.74828-9.95186a9.98082,9.98082,0,0,1,1.35164-5.55369,19.5596,19.5596,0,0,1,4.983-5.9476A87.27413,87.27413,0,0,1,498.23145,293.89387Z" fill="#ffba55"/><path d="M520.58648,286.18008a5.32789,5.32789,0,0,1-4.44885-.39255,6.58137,6.58137,0,0,1-3.15878-5.11921c-.26277-2.82319,1.47927-4.92025,3.40588-7.46982,7.9275-10.49066,5.46682-8.07365,11.40081-15.75565a10.04185,10.04185,0,0,1,9.86366-3.76571c4.32931.92274,7.4442,5.65968,7.69434,9.99363a9.9808,9.9808,0,0,1-1.38167,5.54629,19.55943,19.55943,0,0,1-5.01515,5.92056A87.27408,87.27408,0,0,1,520.58648,286.18008Z" fill="#ffba55"/><circle cx="509.55065" cy="290.07668" r="12.59985" fill="#f65b2b"/><path d="M509.55043,339.8241A49.74707,49.74707,0,1,1,559.298,290.077,49.80336,49.80336,0,0,1,509.55043,339.8241Zm0-98.57812A48.83106,48.83106,0,1,0,558.382,290.077,48.886,48.886,0,0,0,509.55043,241.246Z" fill="#7ca1b1"/><path d="M509.55043,321.92762A31.85108,31.85108,0,1,1,541.402,290.077,31.887,31.887,0,0,1,509.55043,321.92762Zm0-62.78614A30.93506,30.93506,0,1,0,540.486,290.077,30.97055,30.97055,0,0,0,509.55043,259.14148Z" fill="#7ca1b1"/><rect x="509.14748" y="240.77054" width="0.91575" height="98.58955" transform="translate(-40.82681 87.92692) rotate(-9.48332)" fill="#7ca1b1"/><rect x="460.25042" y="289.55326" width="98.52433" height="0.91572" transform="translate(-24.86212 531.16086) rotate(-53.93669)" fill="#7ca1b1"/><rect x="460.11418" y="289.32073" width="98.68402" height="0.91593" transform="translate(-39.56549 84.61413) rotate(-9.14095)" fill="#7ca1b1"/><rect x="509.30869" y="240.48574" width="0.91659" height="98.58199" transform="matrix(0.58389, -0.81183, 0.81183, 0.58389, -23.13261, 534.4213)" fill="#7ca1b1"/><circle cx="509.55065" cy="290.07668" r="8.17665" fill="#7ca1b1"/><rect x="440.6837" y="361.43377" width="137.73392" height="73.45809" rx="3.54214" fill="#935b50"/><path d="M572.85093,396.94533H446.25031a2.82212,2.82212,0,0,1-2.81873-2.81872V368.184a2.82212,2.82212,0,0,1,2.81873-2.81873H572.85093a2.82221,2.82221,0,0,1,2.81918,2.81873v25.94257A2.82221,2.82221,0,0,1,572.85093,396.94533ZM446.25031,366.28017a1.90607,1.90607,0,0,0-1.90387,1.90387v25.94257a1.90607,1.90607,0,0,0,1.90387,1.90387H572.85093a1.90617,1.90617,0,0,0,1.90432-1.90387V368.184a1.90616,1.90616,0,0,0-1.90432-1.90387Z" fill="#e19974"/><path d="M572.85093,430.84467H446.25031a2.82213,2.82213,0,0,1-2.81873-2.81873V402.08337a2.82212,2.82212,0,0,1,2.81873-2.81873H572.85093a2.82221,2.82221,0,0,1,2.81918,2.81873v25.94257A2.82222,2.82222,0,0,1,572.85093,430.84467ZM446.25031,400.1795a1.90607,1.90607,0,0,0-1.90387,1.90387v25.94257a1.90607,1.90607,0,0,0,1.90387,1.90387H572.85093a1.90617,1.90617,0,0,0,1.90432-1.90387V402.08337a1.90617,1.90617,0,0,0-1.90432-1.90387Z" fill="#e19974"/><path d="M467.58237,377.03672a1.47918,1.47918,0,0,0,.17169-.68185,1.4943,1.4943,0,0,0-2.9886,0,1.47816,1.47816,0,0,0,.17169.6816,6.38882,6.38882,0,1,0,2.64522.00025Zm-1.32279,10.47116a4.22285,4.22285,0,1,1,4.22334-4.22334A4.22824,4.22824,0,0,1,466.25958,387.50788Z" fill="#e19974"/><path d="M555.01836,377.03647a1.47815,1.47815,0,0,0,.17168-.6816,1.49424,1.49424,0,1,0-2.98847,0,1.47816,1.47816,0,0,0,.17169.6816,6.3884,6.3884,0,1,0,2.6451,0Zm-1.32255,10.47141a4.22285,4.22285,0,1,1,4.22334-4.22334A4.22824,4.22824,0,0,1,553.69581,387.50788Z" fill="#e19974"/><path d="M467.58262,408.71914a1.47824,1.47824,0,0,0,.17144-.68112,1.49436,1.49436,0,1,0-2.81728.68112,6.38829,6.38829,0,1,0,2.64584,0Zm-1.323,10.47214a4.22334,4.22334,0,1,1,4.22334-4.22334A4.22824,4.22824,0,0,1,466.25958,419.19128Z" fill="#e19974"/><path d="M555.01872,408.71914a1.47815,1.47815,0,0,0,.17132-.68112,1.49424,1.49424,0,0,0-2.98847,0,1.47837,1.47837,0,0,0,.17144.68112,6.38835,6.38835,0,1,0,2.64571,0Zm-1.32291,10.47214a4.22334,4.22334,0,1,1,4.22334-4.22334A4.22824,4.22824,0,0,1,553.69581,419.19128Z" fill="#e19974"/><polygon points="450.559 434.892 450.559 458.281 451.945 458.281 459.914 434.892 450.559 434.892" fill="#e19974"/><polygon points="568.918 434.892 568.918 458.281 567.532 458.281 559.562 434.892 568.918 434.892" fill="#e19974"/><path d="M465.09587,152.34987h51.30419a0,0,0,0,1,0,0v8.14531a0,0,0,0,1,0,0H465.09587a3.50483,3.50483,0,0,1-3.50483-3.50483V155.8547A3.50483,3.50483,0,0,1,465.09587,152.34987Z" fill="#fff"/><path d="M518.0045,160.70368a.738.738,0,0,1-.738.738H464.01842c-2.03308,0-3.68681-2.233-3.68681-4.9782,0-2.74454,1.65373-4.97753,3.68681-4.97753H517.2665a.738.738,0,0,1,.738.738v.5809a.738.738,0,0,1-.738.738H464.01842c-1.19307,0-2.16349,1.31033-2.16349,2.92063,0,1.611.97042,2.9213,2.16349,2.9213H517.2665a.738.738,0,0,1,.738.738Z" fill="#f65b2b"/><path d="M457.09144,142.39415h51.30419a0,0,0,0,1,0,0v8.14531a0,0,0,0,1,0,0H457.09144a3.50483,3.50483,0,0,1-3.50483-3.50483V145.899A3.50483,3.50483,0,0,1,457.09144,142.39415Z" fill="#fff"/><path d="M510.00007,150.748a.738.738,0,0,1-.738.738H456.014c-2.03308,0-3.68681-2.233-3.68681-4.9782,0-2.74454,1.65373-4.97753,3.68681-4.97753h53.24808a.738.738,0,0,1,.738.738v.5809a.738.738,0,0,1-.738.738H456.014c-1.19307,0-2.16349,1.31033-2.16349,2.92063,0,1.611.97042,2.9213,2.16349,2.9213h53.24808a.738.738,0,0,1,.738.738Z" fill="#ffba55"/><path d="M473.47619,132.43842h51.30419a0,0,0,0,1,0,0v8.14531a0,0,0,0,1,0,0H473.47619a3.50483,3.50483,0,0,1-3.50483-3.50483v-1.13566A3.50483,3.50483,0,0,1,473.47619,132.43842Z" fill="#fff"/><path d="M526.38482,140.79222a.738.738,0,0,1-.738.738H472.39873c-2.03307,0-3.6868-2.233-3.6868-4.9782,0-2.74453,1.65373-4.97752,3.6868-4.97752h53.24809a.738.738,0,0,1,.738.738v.5809a.738.738,0,0,1-.738.738H472.39873c-1.19306,0-2.16349,1.31034-2.16349,2.92063,0,1.611.97043,2.92131,2.16349,2.92131h53.24809a.738.738,0,0,1,.738.738Z" fill="#f65b2b"/><path d="M372.383,163.10431h7.62033a0,0,0,0,1,0,0v15.96684a1.46109,1.46109,0,0,1-1.46109,1.46109h-4.69816a1.46109,1.46109,0,0,1-1.46109-1.46109V163.10431A0,0,0,0,1,372.383,163.10431Z" fill="#935b50"/><path d="M499.67523,163.10431h7.62033a0,0,0,0,1,0,0v15.96684a1.46109,1.46109,0,0,1-1.46109,1.46109h-4.69816a1.46109,1.46109,0,0,1-1.46109-1.46109V163.10431A0,0,0,0,1,499.67523,163.10431Z" fill="#935b50"/><path d="M527.4232,164.81321H358.67985a1.70862,1.70862,0,0,1,0-3.41724H527.4232a1.70862,1.70862,0,0,1,0,3.41724Z" fill="#d6694b"/><rect x="410.54945" y="157.24793" width="7.07373" height="0.85352" fill="#fff"/><rect x="410.54945" y="153.82996" width="7.07373" height="0.85352" fill="#fff"/><rect x="410.54945" y="123.07508" width="7.07373" height="0.85352" fill="#fff"/><rect x="410.54945" y="119.65809" width="7.07373" height="0.85352" fill="#fff"/><polygon points="504.338 131.508 494.011 131.508 490.531 113.219 507.818 113.219 504.338 131.508" fill="#e19974"/><polygon points="507.421 115.307 507.818 113.219 490.531 113.219 490.929 115.307 507.421 115.307" fill="#d6694b"/><rect x="493.29388" y="122.83799" width="3.08525" height="3.08525" transform="translate(232.88464 -313.47201) rotate(45)" fill="#d6694b"/><rect x="497.65709" y="122.83799" width="3.08525" height="3.08525" transform="translate(234.16259 -316.55726) rotate(45)" fill="#d6694b"/><rect x="501.97004" y="122.83799" width="3.08525" height="3.08525" transform="translate(235.42583 -319.60698) rotate(45)" fill="#d6694b"/><path d="M503.19753,97.82767s.90687,12.81189-4.40838,15.52708C498.78915,113.35475,496.949,108.49732,503.19753,97.82767Z" fill="#558031"/><path d="M486.04622,103.3311a18.74359,18.74359,0,0,1,12.74293,10.02365S489.22706,110.10707,486.04622,103.3311Z" fill="#849f4c"/><path d="M489.12941,120.113s4.42225-6.61587,9.65974-6.75821C498.78915,113.35475,498.00067,118.68174,489.12941,120.113Z" fill="#a6b862"/><path d="M494.58434,99.65386s6.1359,5.60229,4.20481,13.70089C498.78915,113.35475,495.39008,109.75178,494.58434,99.65386Z" fill="#849f4c"/><path d="M498.78915,113.35475s2.15577-7.89137,13.05367-9.91493C511.84282,103.43982,509.39031,110.625,498.78915,113.35475Z" fill="#a6b862"/><path d="M514.7297,111.29189s-8.3148-3.42785-15.94055,2.06286C498.78915,113.35475,508.92678,114.57186,514.7297,111.29189Z" fill="#849f4c"/><path d="M514.65405,119.27227s-4.01482-6.4308-15.8649-5.91752Z" fill="#558031"/><path d="M481.56746,112.31382s10.91991-4.04907,17.36459.84732C498.93205,113.16114,492.81266,116.53177,481.56746,112.31382Z" fill="#558031"/><path d="M490.52206,100.58939s9.74388,6.89156,8.34611,12.771C498.86817,113.36035,492.10816,107.94026,490.52206,100.58939Z" fill="#558031"/><path d="M507.6146,120.21419s-8.03272-1.37136-8.82545-6.85944C498.78915,113.35475,504.65843,113.64545,507.6146,120.21419Z" fill="#849f4c"/><path d="M368.70961,139.18348c-5.43994,0-17.00586-8.40137-18.38623-9.41895a.894.894,0,0,1,1.06055-1.43945c5.29492,3.90234,14.82959,9.79,17.87109,9.01367a.89367.89367,0,0,1,.44727,1.73047A3.96091,3.96091,0,0,1,368.70961,139.18348Z" fill="#8b9d36"/><path d="M368.62367,139.85145a.89413.89413,0,0,1-.89062-.82813l-2.15772-29.582a.89443.89443,0,0,1,.82666-.957.9061.9061,0,0,1,.95655.82617l2.15771,29.582a.89444.89444,0,0,1-.82666.957C368.66762,139.85047,368.64564,139.85145,368.62367,139.85145Z" fill="#8b9d36"/><path d="M377.69984,140.63758a.85778.85778,0,0,1-.15673-.01367.89324.89324,0,0,1-.72413-1.03614c.09815-.55468,2.5503-13.64843,15.00928-19.46191a.89344.89344,0,1,1,.75586,1.61914c-11.62549,5.42578-13.98291,18.02832-14.00537,18.15527A.89386.89386,0,0,1,377.69984,140.63758Z" fill="#8b9d36"/><path d="M376.6313,136.69516c-.72672-1.42324-4.63206-1.42521-7.12586.32336a6.82913,6.82913,0,0,0-2.40192,3.15187c-.42461,1.09374-1.10421,2.84385-.16007,4.04085a3.54308,3.54308,0,0,0,3.92314.72718,19.12207,19.12207,0,0,0,3.36278-3.31344C375.67609,139.79332,377.21707,137.84239,376.6313,136.69516Z" fill="#5e7c24"/><path d="M379.67394,136.53359c-.27214.71469.2678,1.534,1.281,3.071a14.75489,14.75489,0,0,0,3.52286,3.7177,4.203,4.203,0,0,0,4.96414.56561,4.021,4.021,0,0,0,1.84136-3.39433c-.01651-2.09387-1.80552-3.38952-2.48186-3.87928C385.526,134.242,380.332,134.80606,379.67394,136.53359Z" fill="#5e7c24"/><path d="M389.28165,123.118c.2387-.40689.85726-.20016,2.24186-.40426a25.785,25.785,0,0,0,3.44293-1.05055,13.2492,13.2492,0,0,1,2.9625-.7274c.41961.002,2.79135.01271,3.60278,1.61638.85009,1.68-.72368,3.70213-.80057,3.79838-1.52143,1.90094-4.12078,1.8082-4.96414,1.778a7.664,7.664,0,0,1-5.36443-2.586C390.21276,125.33006,388.867,123.82439,389.28165,123.118Z" fill="#5e7c24"/><path d="M367.42388,115.27859c-.8451-.42553-.35055-3.12907-.08015-4.60646a27.42057,27.42057,0,0,1,1.52122-4.60668c1.4011-3.69139,1.72081-4.08908,2.24185-4.2831a3.35071,3.35071,0,0,1,3.68315,1.69706c.92632,1.79243-.49368,4.05839-2.00165,6.46531C371.34007,112.25606,368.52309,115.83192,367.42388,115.27859Z" fill="#5e7c24"/><path d="M367.10352,122.39063c.6216-1.01153-.52213-2.98964-1.68129-4.04085-.973-.8824-1.96863-1.12224-3.68314-1.53549-1.92562-.46411-4.0452-.97491-4.64378-.08089-.57078.85236.5458,2.52684.80078,2.9094a7.07792,7.07792,0,0,0,3.28264,2.50536C362.88956,122.85627,366.30143,123.6957,367.10352,122.39063Z" fill="#c4ce6e"/><path d="M367.18366,130.22985c.02281-.80479-1.14069-.97163-3.52285-2.9094-1.8911-1.53834-1.945-2.07326-3.04265-2.42446-1.68041-.53756-3.87405-.02565-4.2435,1.05055-.09035.26351-.07753.5781,1.36115,2.9094,1.11919,1.81347,1.69,2.72722,2.24185,3.071a5.26011,5.26011,0,0,0,4.00329.404C364.98589,132.09309,367.15282,131.32052,367.18366,130.22985Z" fill="#5e7c24"/><path d="M368.05922,120.92823c-.78472-.88852.00487-3.03573.96761-4.27253.80815-1.03819,1.748-1.44731,3.36658-2.15208,1.81784-.79153,3.81877-1.66274,4.56079-.886.70752.74056-.10707,2.58394-.29306,3.00507a7.111,7.111,0,0,1-2.80677,3.038C372.28972,120.65529,369.07175,122.07459,368.05922,120.92823Z" fill="#5e7c24"/><path d="M368.63985,129.2798c-.15961-.78884.95812-1.1552,2.97455-3.4777,1.60076-1.84375,1.56266-2.38,2.58414-2.9166,1.56376-.82131,3.81194-.6979,4.35927.29811.13392.2439.1749.556-.84505,3.10236-.79348,1.98076-1.2,2.98-1.68511,3.41445a5.2679,5.2679,0,0,1-3.87477,1.09309C371.12238,130.73367,368.8561,130.34885,368.63985,129.2798Z" fill="#5e7c24"/><path d="M355.81431,133.4624c-.11229-.87692-1.5564-1.361-3.28264-1.93953-1.55966-.52265-2.79787-.93787-4.2435-.48494-.25564.08-2.52964.7923-2.72229,2.50536-.17288,1.53658,1.46648,2.65838,1.60136,2.74783a4.84339,4.84339,0,0,0,3.76307.404C353.18172,136.262,355.97959,134.75234,355.81431,133.4624Z" fill="#5e7c24"/><path d="M362.29966,137.50324c-1.20563-.86026-3.48115.59894-4.56385,1.29324a9.5712,9.5712,0,0,0-2.80222,2.74761c-.834,1.25158-1.62763,2.44288-1.20107,3.47523.61335,1.484,3.26114,1.46183,3.603,1.45459a5.7584,5.7584,0,0,0,3.92314-1.77795,6.12538,6.12538,0,0,0,1.52143-3.071C362.92583,140.95261,363.48944,138.35232,362.29966,137.50324Z" fill="#c4ce6e"/><path d="M352.69174,129.26c-.67829-.98632-.44069-1.68544-.72065-3.39434-.445-2.7167-1.39176-3.06462-1.04078-4.44489.27627-1.08628,1.21236-2.24579,2.24186-2.26289,1.44193-.02411,2.36956,2.20458,2.562,2.66693.6998,1.68106.44177,3.14661,0,5.65723-.28843,1.639-.50844,2.81228-1.20085,2.9903C353.86392,130.64441,353.067,129.80564,352.69174,129.26Z" fill="#8b9d36"/><path d="M383.35687,129.01751c.21393-.6053,1.34789-.69693,2.72229-.80808,1.71712-.13878,3.0042-.24291,4.2435.56561.19069.1243,2.19711,1.471,1.84135,3.07119-.278,1.25027-1.83158,1.90621-2.96228,1.93953-1.22692.03617-2.06116-.65747-3.603-1.93953C384.384,130.83624,383.09342,129.76289,383.35687,129.01751Z" fill="#8b9d36"/><path d="M385.35851,124.41105c-.30819-.07015-.32731-.49941-.72064-1.69728-.879-2.67614-1.567-2.91926-1.44107-4.04085.13944-1.24084,1.1635-2.56214,2.08157-2.50535,1.00082.06182,1.5994,1.744,1.84157,2.42468a5.243,5.243,0,0,1,.32036,2.50536C387.21572,122.835,386.02681,124.56341,385.35851,124.41105Z" fill="#5e7c24"/><path d="M365.50216,112.77345c-.46718.66251-3.11975-.12211-4.884-1.69728-.45045-.40207-2.44406-2.18222-1.9215-3.87927a1.99926,1.99926,0,0,1,1.60136-1.45459c.748-.01842,1.2343.74143,2.48207,2.586C365.34578,112.1219,365.707,112.483,365.50216,112.77345Z" fill="#8b9d36"/><path d="M380.07423,130.63389c-1.34355.36568-3.1015-2.47182-3.52286-3.15187a10.42621,10.42621,0,0,1-1.60135-5.8188c.05755-1.28512.16246-3.62825,1.52121-4.20242,1.30185-.55005,3.06284.816,3.92314,1.85863,1.69757,2.057,1.4276,4.71827,1.20107,6.95025C381.41908,128.00861,381.18321,130.332,380.07423,130.63389Z" fill="#c4ce6e"/><path d="M380.269,161.51426h-13.202l-4.2472-22.53274a.8956.8956,0,0,1,.87394-1.0658h19.94846a.8956.8956,0,0,1,.874,1.0658Z" fill="#e19974"/><path d="M384.20936,140.60963l.30689-1.62809a.8956.8956,0,0,0-.87394-1.06581H363.69378a.8956.8956,0,0,0-.87394,1.06581l.3069,1.62809Z" fill="#d6694b"/><polygon points="368.122 155.133 365.334 152.318 368.122 149.503 370.911 152.318 368.122 155.133" fill="#d6694b"/><polygon points="373.7 155.133 370.911 152.318 373.7 149.503 376.489 152.318 373.7 155.133" fill="#d6694b"/><polygon points="379.213 155.133 376.425 152.318 379.213 149.503 382.002 152.318 379.213 155.133" fill="#d6694b"/><path d="M427.443,135.15682h44.2465a0,0,0,0,1,0,0V142.114a0,0,0,0,1,0,0H427.443a.72314.72314,0,0,1-.72314-.72314V135.88A.72314.72314,0,0,1,427.443,135.15682Z" transform="translate(647.22294 -287.73693) rotate(97.75988)" fill="#7ca1b1"/><rect x="451.35787" y="116.27497" width="0.83971" height="6.95666" transform="translate(272.17279 551.2461) rotate(-82.24697)" fill="#fff"/><rect x="450.90401" y="119.60523" width="0.83971" height="6.95727" transform="translate(268.42423 553.65395) rotate(-82.23954)" fill="#fff"/><rect x="446.82003" y="149.57649" width="0.83971" height="6.95714" transform="translate(235.25378 575.56098) rotate(-82.24751)" fill="#fff"/><rect x="446.36593" y="152.90699" width="0.83971" height="6.95727" transform="translate(231.50217 577.96239) rotate(-82.23954)" fill="#fff"/><path d="M433.35776,117.13751l0,44.2465h-6.95718l0-44.2465a.72314.72314,0,0,1,.72314-.72314h5.51091A.72314.72314,0,0,1,433.35776,117.13751Z" fill="#f65b2b"/><rect x="426.40053" y="157.53602" width="6.95703" height="0.83984" fill="#fff"/><rect x="426.40053" y="154.17469" width="6.95703" height="0.83984" fill="#fff"/><rect x="426.40053" y="123.92664" width="6.95703" height="0.83984" fill="#fff"/><rect x="426.40053" y="120.56531" width="6.95703" height="0.83984" fill="#fff"/><path d="M433.34934,161.384V119.15409a.72314.72314,0,0,1,.72314-.72314h7.9308a.72314.72314,0,0,1,.72314.72314V161.384Z" fill="#ffba55"/><rect x="433.34926" y="156.09949" width="9.37695" height="0.83984" fill="#fff"/><rect x="428.00541" y="127.85844" width="20.06493" height="6.04973" transform="translate(568.92118 -307.15457) rotate(90)" fill="#fff"/><path d="M410.07909,117.13751l0,44.2465h6.95719l0-44.2465a.72314.72314,0,0,0-.72314-.72314h-5.51091A.72314.72314,0,0,0,410.07909,117.13751Z" fill="#ffba55"/><rect x="410.07924" y="157.53602" width="6.95703" height="0.83984" fill="#fff"/><rect x="410.07924" y="154.17469" width="6.95703" height="0.83984" fill="#fff"/><rect x="410.07924" y="123.92664" width="6.95703" height="0.83984" fill="#fff"/><rect x="410.07924" y="120.56531" width="6.95703" height="0.83984" fill="#fff"/><path d="M410.08751,161.384V119.15409a.72314.72314,0,0,0-.72314-.72314h-7.9308a.72314.72314,0,0,0-.72314.72314V161.384Z" fill="#f65b2b"/><rect x="400.71059" y="156.09949" width="9.37695" height="0.83984" fill="#fff"/><rect x="395.36651" y="127.85844" width="20.06493" height="6.04973" transform="translate(536.28228 -274.51567) rotate(90)" fill="#fff"/><path d="M400.965,135.21894H443.195a0,0,0,0,1,0,0V144.596a0,0,0,0,1,0,0H400.965a.72314.72314,0,0,1-.72314-.72314v-7.9308a.72314.72314,0,0,1,.72314-.72314Z" transform="translate(561.6259 -281.81094) rotate(90)" fill="#7ca1b1"/><rect x="417.02992" y="156.09949" width="9.37695" height="0.83984" fill="#fff"/><rect x="411.68596" y="127.85844" width="20.06493" height="6.04973" transform="translate(552.60173 -290.83512) rotate(90)" fill="#fff"/><circle cx="180.41464" cy="119.75328" r="28.03391" fill="#ffba55"/><path d="M180.41469,148.287a28.53369,28.53369,0,1,1,28.53369-28.53418A28.5667,28.5667,0,0,1,180.41469,148.287Zm0-56.06738a27.53369,27.53369,0,1,0,27.53369,27.5332A27.56487,27.56487,0,0,0,180.41469,92.21961Z" fill="#d77f4a"/><path d="M180.41469,122.25281a.49971.49971,0,0,1-.5-.5V103.67566a.5.5,0,0,1,1,0v18.07715A.49972.49972,0,0,1,180.41469,122.25281Z" fill="#d77f4a"/><path d="M164.86146,125.99305a.50015.50015,0,0,1-.2246-.94727l18.75634-9.40625a.50028.50028,0,0,1,.44825.89453l-18.75635,9.40625A.496.496,0,0,1,164.86146,125.99305Z" fill="#d77f4a"/><polygon points="285.344 355.149 408.552 350.311 343.072 348.03 234.49 354.405 226.941 357.604 285.344 355.149" fill="#a5716a"/><polygon points="224.895 386.037 293.557 403.103 291.548 354.888 226.941 357.604 224.895 386.037" fill="#d3a39c"/><path d="M234.75552,357.27542l-7.81443.32846-15.2019-95.85314a14.04465,14.04465,0,0,1,11.91075-16.19152l6.63074-.92827Z" fill="#d3a39c"/><path d="M360.96216,458.28063a6.18643,6.18643,0,0,0,.4425-2.329V398.56589a6.40466,6.40466,0,1,0-12.80932,0v57.38578a6.18643,6.18643,0,0,0,.4425,2.329Z" fill="#935b50"/><path d="M277.69147,410.85272c.11827,0,.23654-.00342.35594-.0091l129.66714-7.1029a6.40515,6.40515,0,0,0-.70051-12.79113l-129.66714,7.1029a6.4049,6.4049,0,0,0,.34457,12.80023Z" fill="#935b50"/><path d="M414.19073,458.28063a6.41264,6.41264,0,0,0,.361-2.22416l-1.83988-128.36109a21.49348,21.49348,0,0,0-7.46435-15.9185,24.57852,24.57852,0,0,0-18.91122-5.88065l-46.48621,5.15867a6.40278,6.40278,0,0,0,1.409,12.72781l46.48621-5.147a11.68248,11.68248,0,0,1,9.02475,2.74818,8.81857,8.81857,0,0,1,3.13246,6.49783l1.83989,128.36109a6.20007,6.20007,0,0,0,.37263,2.03784Z" fill="#935b50"/><path d="M293.42407,397.31976,409.43,391.94957a6.87912,6.87912,0,0,0,6.63482-6.87016l-.24183-27.96988a6.94782,6.94782,0,0,0-7.27048-6.79876l-116.37352,4.29792a6.87888,6.87888,0,0,0-6.70018,6.95556l.60948,29.04216A6.95158,6.95158,0,0,0,293.42407,397.31976Z" fill="#c38f86"/><path d="M234.48951,354.40468l108.58274-6.37507-9.38272-95.98814a9.31586,9.31586,0,0,0-9.30657-8.45983l-90.46631.29237a9.31587,9.31587,0,0,0-9.246,10.1754Z" fill="#c38f86"/><path d="M223.56467,458.28063a5.82392,5.82392,0,0,1-.361-1.63027l-10.78312-134.102-.69869-8.62883-6.05156-66.53132a6.40772,6.40772,0,0,1,12.77439-1.02475l5.8536,64.07426,1.02474,12.786L235.96643,455.614a6.34163,6.34163,0,0,1-.361,2.66666Z" fill="#935b50"/><rect x="243.04842" y="369.23626" width="13.97311" height="57.13095" transform="translate(-187.25393 569.67997) rotate(-79.30644)" fill="#935b50"/><path d="M345.55726,430.9206l.69141,8.26086s12.85691,10.28992,29.35891,13.10147c0,0,5.03694,2.33486,5.02379,5.99221l-49.73973-.17881.06819-18.96983-.33448-11.52947Z" fill="#f9977a"/><path d="M379.82689,455.79582l-48.39-.174a1.23608,1.23608,0,0,0-1.24051,1.23163l0,.00425a1.23608,1.23608,0,0,0,1.23162,1.24052l49.88647.17948S382.74429,456.78151,379.82689,455.79582Z" fill="#d6694b"/><path d="M364.73912,449.30411a3.457,3.457,0,0,0-2.56831-.04247,3.91238,3.91238,0,0,0-2.06434,1.749,3.40944,3.40944,0,0,0-.23042,2.9323,2.91835,2.91835,0,0,0,1.95872,1.7883,17.30118,17.30118,0,0,1,.548-2.08728,6.35187,6.35187,0,0,1,.52947-1.07489c.186-.33243.42249-.75125.73846-1.27309C363.9646,450.76526,364.32725,450.16157,364.73912,449.30411Z" fill="#d6694b"/><path d="M346.24864,439.18138c-1.49128.58887-2.8201,1.1183-4.107,1.53239a13.689,13.689,0,0,1-3.67854.71228,8.79609,8.79609,0,0,1-3.54642-.55293,17.71434,17.71434,0,0,1-1.89523-.75911c-.66049-.29411-1.273-.694-2.06155-.9876a9.49,9.49,0,0,0,1.02127,2.17208,7.83649,7.83649,0,0,0,1.706,1.7795,7.30062,7.30062,0,0,0,4.89831,1.5552,8.62431,8.62431,0,0,0,4.73532-1.697A8.31877,8.31877,0,0,0,346.24864,439.18138Z" fill="#d6694b"/><path d="M373.35848,384.60171l3.94223,7.29238s15.902,4.279,32.14862.24566c0,0,5.55044.122,7.00326,3.4784l-45.6474,19.75825-7.53543-17.40909L358.34542,387.537Z" fill="#f9977a"/><path d="M414.72242,393.66861l-44.40871,19.22208a1.23609,1.23609,0,0,0-.64337,1.62538l.0017.00391a1.23607,1.23607,0,0,0,1.62537.64337l45.78211-19.8164S417.79038,393.40329,414.72242,393.66861Z" fill="#d6694b"/><path d="M398.29762,393.7634a3.45717,3.45717,0,0,0-2.37032.98976,3.91244,3.91244,0,0,0-1.191,2.42938,3.40942,3.40942,0,0,0,.96334,2.77912,2.91833,2.91833,0,0,0,2.511.85407,17.29944,17.29944,0,0,1-.33384-2.132,6.35192,6.35192,0,0,1,.05462-1.197c.03732-.37912.08623-.85758.16673-1.46229C398.17316,395.41245,398.26367,394.71405,398.29762,393.7634Z" fill="#d6694b"/><path d="M377.30065,391.894c-1.13058,1.13687-2.13611,2.15421-3.14944,3.04908a13.68939,13.68939,0,0,1-3.08531,2.126,8.796,8.796,0,0,1-3.471.91379,17.715,17.715,0,0,1-2.04061.06353c-.723-.005-1.4444-.126-2.28453-.07921a9.49012,9.49012,0,0,0,1.80576,1.58119,7.83679,7.83679,0,0,0,2.27591.94724,7.30065,7.30065,0,0,0,5.11115-.5369,8.62445,8.62445,0,0,0,3.6592-3.4516A8.31892,8.31892,0,0,0,377.30065,391.894Z" fill="#d6694b"/><path d="M292.60389,220.23086c1.8913-.488,3.43327-.80211,4.84962-1.32267,9.4089-3.45793,18.1733-17.85218,14.07222-28.00027-3.57427-8.84459-12.8607-14.42659-15.79291-15.01437a42.9085,42.9085,0,0,0-13.8858.69141c-1.12847.28311-7.067,2.89931-9.82976,8.30081-3.84121,7.50988-3.01738,9.88559-3.68031,12.22153C267.08452,201.52041,270.38642,224.917,292.60389,220.23086Z" fill="#766e6e"/><path d="M327.17612,235.9738s-22.6149-3.87258-21.02187-15.64667l-19.10569-4.74879,1.01333,9.77534a6.19034,6.19034,0,0,1-3.758,6.34482l-11.92918,5.01584c-.25631.09134-.33871.18974-.3507.27628-.20149,1.44861,18.13353,8.34393,36.20206,5.62131C318.49793,242.29676,322.83076,238.43907,327.17612,235.9738Z" fill="#f9977a"/><path d="M306.11843,220.35648s-5.90051,5.26448-13.76826.1322c0,0,3.428,9.92358,15.41607,6.03926A8.65457,8.65457,0,0,1,306.11843,220.35648Z" fill="#dd765e"/><path d="M310.09494,197.383c-3.53366-11.49218-12.76483-18.85077-20.61839-16.43594-6.06157,1.86384-9.52689,9.00648-9.16977,17.45237a2.2966,2.2966,0,0,0-1.94837-.09086c-1.6772.81709-1.71738,4.18776-.08976,7.52853,1.37416,2.82065,3.49593,4.71042,5.13335,4.74113,4.27985,8.86252,12.08774,14.0713,18.87105,11.98559C310.12662,220.14889,313.6286,208.87509,310.09494,197.383Z" fill="#f9977a"/><path d="M300.352,197.37989a7.62576,7.62576,0,0,0,.78806,4.06152,16.97628,16.97628,0,0,0,2.16476,3.57019l.69226.80457a1.65607,1.65607,0,0,1,.45145,1.13293,2.7108,2.7108,0,0,1-1.12375,1.97229,4.89157,4.89157,0,0,1-4.20025.585,7.34242,7.34242,0,0,0,2.09909-.08557,3.68533,3.68533,0,0,0,1.8197-.83423,2.43361,2.43361,0,0,0,.88763-1.63659c.03711-.5719-.61337-.99891-1.06262-1.57483a15.474,15.474,0,0,1-2.12457-3.75318A6.69287,6.69287,0,0,1,300.352,197.37989Z" fill="#dd765e"/><path d="M288.11923,201.51533a.56843.56843,0,0,1-.39015-.88783c.12535-.18087,3.1256-4.41811,7.793-4.06067a.56855.56855,0,1,1-.08671,1.13379c-4.02536-.30812-6.74525,3.53664-6.77237,3.57556A.56868.56868,0,0,1,288.11923,201.51533Z" fill="#160b07"/><path d="M302.57024,195.87782a.56873.56873,0,0,1-.17644-1.07356,10.97282,10.97282,0,0,1,6.8309-.77725.56863.56863,0,0,1-.27214,1.10422,9.92505,9.92505,0,0,0-6.05449.69287A.56888.56888,0,0,1,302.57024,195.87782Z" fill="#160b07"/><path d="M278.55034,202.38416a2.86882,2.86882,0,0,1,.44745-1.48621,1.32547,1.32547,0,0,1,.68136-.55554.88075.88075,0,0,1,.47632-.05115,1.15013,1.15013,0,0,1,.44122.12073,2.93721,2.93721,0,0,1,1.15519,1.11316,5.70376,5.70376,0,0,1,.65326,1.38049c-.36637-.36254-.656-.76379-.99717-1.11022a3.81388,3.81388,0,0,0-1.04345-.86463.81189.81189,0,0,0-1.0264.23877A5.55427,5.55427,0,0,0,278.55034,202.38416Z" fill="#dd765e"/><path d="M281.00221,206.02137a6.0089,6.0089,0,0,0,.021-1.39026,12.05481,12.05481,0,0,0-.2128-1.349c-.17505-.89868-.45117-1.77686-.66818-2.72266.15692.18628.28177.39087.42495.58875l.33918.63952a6.21377,6.21377,0,0,1,.4609,1.3805,4.8766,4.8766,0,0,1,.0914,1.46545A2.81374,2.81374,0,0,1,281.00221,206.02137Z" fill="#dd765e"/><circle cx="280.66318" cy="209.22112" r="2.53136" fill="#ffcb33"/><path d="M295.88846,214.33675s7.50175,3.73572,11.03277-1.56293" fill="#dd2f22"/><circle cx="299.27337" cy="194.54069" r="1.22584" fill="#dd2f22"/><path d="M297.237,185.02332a.85343.85343,0,0,1-.77246-.49023l-1.03369-2.19922a.85318.85318,0,1,1,1.54395-.72657l1.03369,2.19922a.85341.85341,0,0,1-.77149,1.2168Z" fill="#dd2f22"/><circle cx="300.29501" cy="209.17514" r="1.22584" fill="#ffcb33"/><path d="M295.94252,182.25263c-1.72074.59494-2.56336,2.04146-4.24864,4.93441-3.25536,5.58825-4.784,12.98437-7.26609,14.5117a1.61567,1.61567,0,0,1-.93405.2868c-1.03412-.04933-1.57412-1.32956-2.88929-3.07671-.99388-1.32035-1.39015-1.52535-1.96638-2.26315a11.40531,11.40531,0,0,1-1.51361-10.19027,12.08387,12.08387,0,0,1,6.042-6.48235c5.68945-3.1241,11.64612-1.46428,13.1568-1.04335,9.07594,2.529,13.65651,10.82114,13.37238,11.10614C309.36161,190.37084,301.67767,180.26973,295.94252,182.25263Z" fill="#766e6e"/><ellipse cx="262.27029" cy="198.68698" rx="13.90014" ry="11.98471" transform="translate(30.21264 431.94964) rotate(-82.2947)" fill="#766e6e"/><path d="M268.87949,208.43736a2.69132,2.69132,0,0,0,2.41112-4.24965,2.69439,2.69439,0,0,0,2.2232-4.39728c.06.00872.11626.02716.17745.03193a2.70576,2.70576,0,1,0-.20425-5.365,2.69314,2.69314,0,0,0-3.24864-3.71575c.00983-.06538.02968-.12706.03491-.1942a2.70584,2.70584,0,1,0-4.89532,1.34687,2.68285,2.68285,0,0,0-1.1128,4.1731,2.69721,2.69721,0,0,0,1.24788,4.96476,2.70562,2.70562,0,1,0-.42031,5.3949,2.67465,2.67465,0,0,0,1.33438-.24976A2.70072,2.70072,0,0,0,268.87949,208.43736Z" fill="#f9dd95"/><circle cx="267.31789" cy="189.94189" r="0.69361" fill="#f4906e"/><circle cx="271.368" cy="193.20081" r="0.69361" fill="#f4906e"/><circle cx="266.27652" cy="194.37851" r="0.69361" fill="#f4906e"/><circle cx="268.5048" cy="192.56704" r="0.69361" fill="#f4906e"/><circle cx="270.63426" cy="196.10945" r="0.69361" fill="#f4906e"/><circle cx="274.18639" cy="197.0819" r="0.69361" fill="#f4906e"/><circle cx="271.39779" cy="201.74827" r="0.69361" fill="#f4906e"/><circle cx="270.20559" cy="199.19116" r="0.69361" fill="#f4906e"/><circle cx="267.75363" cy="197.27645" r="0.69361" fill="#f4906e"/><circle cx="265.26175" cy="198.47374" r="0.69361" fill="#f4906e"/><circle cx="267.86514" cy="200.77733" r="0.69361" fill="#f4906e"/><circle cx="264.84993" cy="203.75961" r="0.69361" fill="#f4906e"/><circle cx="269.1723" cy="205.94453" r="0.69361" fill="#f4906e"/><circle cx="267.616" cy="203.97511" r="0.69361" fill="#f4906e"/><path d="M293.7247,204.43144a1.76092,1.76092,0,0,0,0-3.51973,1.76092,1.76092,0,0,0,0,3.51973Z" fill="#160b07"/><path d="M306.6773,202.17881a1.76092,1.76092,0,0,0,0-3.51973,1.76092,1.76092,0,0,0,0,3.51973Z" fill="#160b07"/><path d="M284.42307,231.71358s-21.47215-1.22-27.08419,13.17609-10.00406,40.54494-10.00406,40.54494l22.44815,2.44-2.196,13.86743h76.61652l8.54006-31.23222s-9.27206-23.42416-19.27613-32.45222-20.90507-7.32652-20.90507-7.32652S300.03917,253.67373,284.42307,231.71358Z" fill="#ffba55"/><path d="M270.515,239.76563a10.47306,10.47306,0,0,1,1.3735,2.663c.19306.46509.34275.94361.48807,1.4242.15573.47815.29944.96008.4075,1.45007a42.989,42.989,0,0,1,.96393,5.94031,82.28682,82.28682,0,0,1,.06964,12.01269c-.18231,1.99268-.36389,3.98645-.60892,5.97034-.29809,1.97656-.48559,3.97022-.88064,5.9303-.38416,1.96106-.71082,3.93152-1.1417,5.88074-.46951,1.942-.90448,3.88916-1.40338,5.82068.58179-3.95118,1.25449-7.87415,1.7721-11.82007.27164-1.97046.48547-3.94641.73443-5.91785.214-1.97473.35993-3.95605.515-5.93408a94.888,94.888,0,0,0,.1673-11.88281,43.58393,43.58393,0,0,0-.672-5.89515A18.262,18.262,0,0,0,270.515,239.76563Z" fill="#e6952a"/><path d="M270.75829,286.3131s25.85-49.69743,42.86912-56.13785c0,0,5.73243-1.38817,13.54871,2.5698,0,0-3.838,99.30163-55.50373,119.55376,0,0-24.58158-1.708-14.82151-36.60025Z" fill="#8b9d36"/><path d="M304.19072,303.51754s42.89256-4.00938,52.65263,6.23869,36.11224,73.4445,49.53233,76.61652c0,0-39.358,1.74589-45.6411,16.386s1.769,22.44815-5.063,30.98821-36.49018,4.0599-44.78623,1.61988c0,0,1.708-28.54819,1.464-43.92029s-2.684-34.64824-2.684-34.64824-49.10009,5.64332-54.31522-19.2656Z" fill="#8b9d36"/><path d="M328.83137,249.28174a94.58066,94.58066,0,0,1,3.58536,9.05982c1.07633,3.06726,1.9921,6.18835,2.82535,9.33044.81943,3.14563,1.54752,6.31726,2.09741,9.52234a94.18616,94.18616,0,0,1,1.252,9.66358c-.36493-1.58594-.61023-3.18628-.98807-4.764-.31986-1.58716-.65323-3.17029-1.03034-4.74414-.72714-3.152-1.47671-6.29688-2.31381-9.42005-.80414-3.13171-1.68945-6.24206-2.58435-9.35217-.44568-1.55579-.91608-3.10461-1.39746-4.65088C329.82054,252.37134,329.318,250.83167,328.83137,249.28174Z" fill="#e6952a"/><path d="M360.94643,401.72352c-10.29444-16.02637-29.687-53.01368-29.88135-53.38575l.90039-.4707c.19482.37109,19.5664,37.31836,29.83642,53.30762Z" fill="#5e7c24"/><polygon points="305.716 293.415 319.62 263.312 347.619 275.573 354.208 275.573 375.253 268.07 356.373 306.973 335.175 313.088 308.457 301.742 302.601 299.764 305.716 293.415" fill="#f73c4f"/><rect x="323.34955" y="293.36463" width="34.26601" height="1.0166" transform="matrix(0.39577, -0.91835, 0.91835, 0.39577, -64.14907, 490.24735)" fill="#b02336"/><rect x="327.93967" y="294.55419" width="34.72348" height="1.01638" transform="translate(-60.23555 499.59758) rotate(-67.2785)" fill="#b02336"/><path d="M320.67612,263.77415l4.98323-2.47537s23.14468,10.48761,24.70516,11.34608c0,0,18.06131-7.137,22.29825-7.32l1.17524,3.24938-19.63046,6.99869h-6.588Z" fill="#f9e0c0"/><polygon points="320.676 270.632 341.763 279.05 334.992 292.391 314.923 284.575 320.676 270.632" fill="#f9e0c0"/><rect x="321.79621" y="284.85334" width="1.01625" height="15.90343" transform="translate(-69.39592 483.03071) rotate(-68.15743)" fill="#b02336"/><rect x="320.0538" y="288.1654" width="1.01572" height="14.06838" transform="translate(-66.11599 496.15474) rotate(-70.10218)" fill="#b02336"/><rect x="318.37965" y="291.91541" width="1.01734" height="12.21094" transform="translate(-75.91548 484.12882) rotate(-68.30155)" fill="#b02336"/><path d="M368.32893,282.18583c-2.21181,1.06288-4.748,3.07577.15271,5.52613,0,0-12.90159-2.44-12.07808,4.67919,0,0-2.86646,2.03086-.03022,3.37286,0,0-1.6778,1.708,1.61623,4.514,2.7604,2.35145,6.63458,5.0456,9.61224,4.09778a2.90509,2.90509,0,0,0,1.81008-1.96277c.16775-.53375,0,0,1.02176-1.525,1.0717-1.59955.122-3.294,0-4.148s-.43148-1.464.51626-2.196.67408-2.79169,0-4.636c-.32788-.89713-1.64881-1.708.68648-3.416a2.17629,2.17629,0,0,0,.972-2.3307A3.02366,3.02366,0,0,0,368.32893,282.18583Z" fill="#f9977a"/><path d="M365.06563,295.764a19.17414,19.17414,0,0,1-4.51538-1.213,18.95581,18.95581,0,0,1-4.1467-2.15991,18.95576,18.95576,0,0,1,4.51538,1.213A19.16919,19.16919,0,0,1,365.06563,295.764Z" fill="#dd765e"/><path d="M365.06563,299.42408a19.7258,19.7258,0,0,1-4.54331-1.36182,19.49858,19.49858,0,0,1-4.149-2.29822,19.49379,19.49379,0,0,1,4.5433,1.36182A19.72051,19.72051,0,0,1,365.06563,299.42408Z" fill="#dd765e"/><path d="M356.84334,289.84693a16.49524,16.49524,0,0,1,4.26132.78674,16.30729,16.30729,0,0,1,3.961,1.75745,16.30154,16.30154,0,0,1-4.26132-.78675A16.48555,16.48555,0,0,1,356.84334,289.84693Z" fill="#dd765e"/><path d="M248.78173,284.57521s-5.59494,30.34293-1.44691,33.759,9.76006,9.02806,47.33632-4.392c0,0,14.61628-5.36547,19.03814-10.1354a1.22167,1.22167,0,0,0-.88056-2.06468h-1.80947s2.928-2.928-.732-3.538-10.24807,2.684-10.24807,2.684-.122-2.806,2.074-3.416,7.32005-1.22,7.32005-3.05-9.39407-.61-9.39407-.61h-1.826a8.4049,8.4049,0,0,0-5.68448,2.19723c-1.46423,1.3425-3.09056,3.07234-3.59159,4.51282l-20.99753-1.17,1.8434-11.47743Z" fill="#f9977a"/><path d="M302.60118,305.03614a18.14964,18.14964,0,0,1,4.02393-2.12012,17.93715,17.93715,0,0,1,4.39413-1.17395,17.94808,17.94808,0,0,1-4.02389,2.12012A18.15013,18.15013,0,0,1,302.60118,305.03614Z" fill="#dd765e"/><path d="M255.38686,303.389c.92993-.615,1.91278-1.13977,2.89721-1.66528.99082-.51343,2.01288-.96509,3.05121-1.38672a21.53326,21.53326,0,0,1,3.2052-1.064,12.18287,12.18287,0,0,1,3.42682-.42041l-.34872.88293a21.52479,21.52479,0,0,0-3.22486-2.029,23.4074,23.4074,0,0,0-3.54617-1.48413,18.00208,18.00208,0,0,0-3.75791-.87207,21.91629,21.91629,0,0,0-3.8988-.19629,16.61443,16.61443,0,0,1,3.94479-.32715,18.67057,18.67057,0,0,1,3.94693.601,19.94207,19.94207,0,0,1,3.753,1.40235,18.84646,18.84646,0,0,1,3.42483,2.13818l1.20245.96582-1.5512-.08276a13.04573,13.04573,0,0,0-3.16507.32263c-1.06031.22046-2.11359.52636-3.16257.85168C259.49239,301.70252,257.43645,302.526,255.38686,303.389Z" fill="#dd765e"/><polygon points="303.456 298.021 306.496 291.726 311.019 293.873 309.524 296.714 303.456 298.021" fill="#f73c4f"/><path d="M257.33888,244.88967c-5.612,14.3961-10.00406,40.54494-10.00406,40.54494l21.34552,2.44S262.95092,230.49357,257.33888,244.88967Z" fill="#ffba55"/><path d="M271.692,352.80652l-.03906-1.01562c31.019-1.207,41.45752-47.62305,41.55957-48.0918l.99316.21485C314.10268,304.39051,303.49818,351.56922,271.692,352.80652Z" fill="#5e7c24"/><path d="M309.71791,357.30457l-.10547-1.01172c.09522-.00976,9.58057-.999,14.87647-1.75781l.14453,1.00586C319.318,356.30359,309.81312,357.2948,309.71791,357.30457Z" fill="#5e7c24"/><path d="M212.42056,322.54836a6.34426,6.34426,0,0,0,5.15866,1.65357l7.74382-.97817,35.0044-4.44833a9.257,9.257,0,0,1,10.39884,9.10627l.94323,128.30286a5.97069,5.97069,0,0,0,.37264,2.09607H284.1062a6.49945,6.49945,0,0,0,.37264-2.18923l-.94323-128.30286a22.0467,22.0467,0,0,0-24.81516-21.71763l-34.42215,4.36681-8.32607,1.05968a6.353,6.353,0,0,0-4.25036,2.42213Z" fill="#935b50"/></svg>