<svg id="Layer_1" data-name="Layer 1" xmlns="http://www.w3.org/2000/svg" viewBox="0 0 700 550"><title>calculating</title><path d="M428.20136,443.62431c16.25-5.08,30.83-10.27,48.37-20.12,18.09-10.16,98.45-58.51,108.9-142.19a159.61541,159.61541,0,0,0-6.66-68.16c-3.23-9.47-9.93-28.49-26.84-47.3-20.7-23.04-44.32-31.97-58.17-37.02-29.14-10.63-53.58-10.07-65.22-9.69-12.56.41-34.73,1.33-59.93,12.34-16.44,7.18-26.66,15.37-41.72,27.61-23.86,19.41-27,27.49-68.74,67.57-11.46,11-20.88,19.67-35.26,28.21-9.97,5.92-18.03,9.23-32.9,15.27-36.55,14.85-46.95657,17.85676-58.91657,26.21676-23.26,16.27-21.75343,34.01324-22.75343,37.83324a75.12694,75.12694,0,0,0-1.77,29.97c3.05,20.07,13.86,33.19,20.57,41.13a113.09822,113.09822,0,0,0,32.9,26.44,210.24676,210.24676,0,0,0,26.96,11.89Z" fill="#efedef"/><path d="M479.793,429.43848l-.49024-.8711C503.20313,415.14063,582,364.80469,592.48047,280.83105a166.33671,166.33671,0,0,0-6.91406-70.77246c-2.97657-8.73144-9.94825-29.17871-27.84766-49.0957-21.91895-24.38965-46.94531-33.51807-60.38965-38.42187A174.11661,174.11661,0,0,0,429.582,112.47266c-12.42383.4038-35.54883,1.15527-62.24316,12.811l-.40039-.916c26.87011-11.73291,51.00976-12.51758,62.61035-12.894a175.03242,175.03242,0,0,1,68.12207,10.12793c13.52734,4.93408,38.706,14.11768,60.792,38.69336,18.03613,20.06885,25.05371,40.65186,28.05078,49.44141a167.4069,167.4069,0,0,1,6.959,71.21777C582.93457,365.39355,503.79688,415.9541,479.793,429.43848Z" fill="#efedef"/><rect x="233.72611" y="65.75106" width="249.53272" height="191.61054" rx="2.95934" fill="#904d24"/><rect x="246.30833" y="75.41265" width="224.36829" height="172.28734" rx="2.6609" fill="#558031"/><path d="M383.31454,183.13079l.61588,8.91458a51.21514,51.21514,0,0,1-.54942,10.82112c-.64843,4.50868.57051,8.45256,3.24211,10.37206a7.577,7.577,0,0,0,4.23261,1.34688v8.96762c-.49019,7.18736,2.025,13.14147,5.37259,14.077,3.87472,1.08256,10.76718-4.02677,13.08345-14.077V202.57927s7.54118-1.38937,3.17521-8.83139a32.07762,32.07762,0,0,1-4.46513-14.28853l-8.13656-6.15211Z" fill="#f9977a"/><path d="M400.53027,187.16943a6.64879,6.64879,0,0,1-4.80175-1.85058.55106.55106,0,1,1,.78515-.77344c2.002,2.03223,5.10254,1.43652,5.13379,1.43018a.5512.5512,0,0,1,.2207,1.08007A7.20125,7.20125,0,0,1,400.53027,187.16943Z" fill="#1e1d22"/><path d="M386.40039,187.19238a5.82223,5.82223,0,0,1-1.53906-.20605.551.551,0,0,1,.28906-1.06348,6.12205,6.12205,0,0,0,5.15625-1.34424.55087.55087,0,1,1,.73438.82129A7.61065,7.61065,0,0,1,386.40039,187.19238Z" fill="#1e1d22"/><path d="M387.38281,194.211a1.65476,1.65476,0,0,0,0-3.30754,1.65476,1.65476,0,0,0,0,3.30754Z" fill="#1e1d22"/><path d="M398.69458,194.1118a1.65476,1.65476,0,0,0,0-3.30753,1.65476,1.65476,0,0,0,0,3.30753Z" fill="#1e1d22"/><path d="M392.24487,190.95734c-.44937,1.655-1.05514,3.18927-1.5068,4.74554a9.73035,9.73035,0,0,0-.45636,2.30336,2.16405,2.16405,0,0,0,.1922,1.05243,1.649,1.649,0,0,0,.87793.7421,1.54916,1.54916,0,0,1-1.26639-.44181,2.32735,2.32735,0,0,1-.58209-1.297,6.426,6.426,0,0,1,.27585-2.64084,12.5153,12.5153,0,0,1,.99993-2.36747A10.47127,10.47127,0,0,1,392.24487,190.95734Z" fill="#dd765e"/><path d="M392.1033,205.1971c0-1.39743,1.41835-2.53027,3.168-2.53027s3.168,1.13284,3.168,2.53027" fill="#dd2f22"/><path d="M390.85572,214.58545s5.95357-.30408,8.83112-3.02959c0,0-3.67136,7.29631-8.83112,8.28857Z" fill="#dd765e"/><path d="M378.94859,180.45168s.09923-4.06827,7.2435-5.85434,8.53345-5.75512,12.65133-4.66363a13.53078,13.53078,0,0,1,6.69776,4.66363s12.93257-1.97862,6.66474,18.65746c0,0-4.68022,5.45448-5.17635.5924s-1.58761-13.19707-4.26672-15.38-6.8466,0-8.43422,1.19071-11.51022,8.23576-12.50248,7.64041S376.86484,185.51221,378.94859,180.45168Z" fill="#1e1d22"/><polygon points="421.296 443.149 353.216 443.149 387.256 425.976 421.296 443.149" fill="#c38f86"/><rect x="254.29105" y="106.37569" width="89.90331" height="120.82244" rx="8.32438" fill="#f73c4f"/><path d="M254.291,134.60723h89.90331a0,0,0,0,1,0,0v84.26652a8.32438,8.32438,0,0,1-8.32438,8.32438H262.61543a8.32438,8.32438,0,0,1-8.32438-8.32438V134.60723A0,0,0,0,1,254.291,134.60723Z" fill="#a2aee6"/><path d="M268.84682,125.73582c4.59115,0,4.59875-7.13518,0-7.13518-4.59115,0-4.59875,7.13518,0,7.13518Z" fill="#ffba55"/><path d="M279.5496,125.73582c4.59115,0,4.59875-7.13518,0-7.13518-4.59115,0-4.59876,7.13518,0,7.13518Z" fill="#ffba55"/><path d="M289.82426,125.73582c4.59115,0,4.59875-7.13518,0-7.13518-4.59115,0-4.59876,7.13518,0,7.13518Z" fill="#ffba55"/><rect x="297.74268" y="134.60742" width="3" height="92.59082" fill="#f73c4f"/><rect x="254.13623" y="179.40283" width="90.21289" height="3" fill="#f73c4f"/><path d="M285.97119,166.26465a.99589.99589,0,0,1-.71289-.29883l-17.12451-17.40967a.99993.99993,0,1,1,1.42578-1.40234l17.12451,17.40967a1,1,0,0,1-.71289,1.70117Z" fill="#f73c4f"/><path d="M268.7041,166.12207a1,1,0,0,1-.70117-1.71289l17.40967-17.12451a.99993.99993,0,1,1,1.40234,1.42578L269.40527,165.835A.997.997,0,0,1,268.7041,166.12207Z" fill="#f73c4f"/><path d="M334.16357,157.66064h-.0083l-24.41943-.20166a1,1,0,0,1,.0083-2h.0083l24.41944.20166a1,1,0,0,1-.00831,2Z" fill="#f73c4f"/><path d="M324.17676,218.45508h-.0083a1.00009,1.00009,0,0,1-.9917-1.0083l.20166-24.41944a1.00019,1.00019,0,0,1,1-.9917h.0083a1.0001,1.0001,0,0,1,.9917,1.00831l-.20166,24.41943A1.00019,1.00019,0,0,1,324.17676,218.45508Z" fill="#f73c4f"/><path d="M336.4873,206.34668h-.0083l-24.41943-.20215a1,1,0,0,1,.0083-2h.0083l24.41944.20215a1,1,0,0,1-.00831,2Z" fill="#f73c4f"/><path d="M270.16016,214.79443a1,1,0,0,1-.80371-1.59375l14.49609-19.65185a1,1,0,1,1,1.60937,1.1875l-14.49609,19.65185A.99818.99818,0,0,1,270.16016,214.79443Z" fill="#f73c4f"/><path d="M271.13008,201.372c3.86071,0,3.86711-6,0-6-3.86072,0-3.86711,6,0,6Z" fill="#f73c4f"/><path d="M283.11719,214.21532c3.86071,0,3.86711-6,0-6-3.86072,0-3.86711,6,0,6Z" fill="#f73c4f"/><rect x="383.01077" y="340.75191" width="8.12101" height="102.41279" fill="#c38f86"/><rect x="338.96844" y="336.01065" width="89.74866" height="13.54324" rx="6.77162" fill="#935b50"/><path d="M317.34255,415.73156s.73362,24.00842-1.17979,24.44038-49.2124-4.46281-40.37068-7.09031l14.53543-3.52672a13.36049,13.36049,0,0,0,10.0931-10.41354l1.38612-7.38712Z" fill="#f9977a"/><path d="M375.519,408.75425s11.83919,18.05812,10.57736,19.22474-39.76882,18.08412-34.23464,12.20989l9.47037-9.05013a11.40371,11.40371,0,0,0,2.83474-12.38123l-2.4089-6.26048Z" fill="#f9977a"/><path d="M357.93071,320.01831c-4.98505,3.84685-2.64993,8.44384-.57362,14.26636l22.70178,77.50908-16.37749,8.74492-38.97223-76.61752s-12.78762-15.57406,3.50721-26.30527Z" fill="#f73c4f"/><path d="M366.24029,284.29412l-6.7826-5.03746a6.71364,6.71364,0,0,0-3.32756-1.28353c-2.1201-.21486-5.53023-.6618-7.02232-1.41722-1.44778-.733-2.17855-.0965-1.439,1.30993.4353.82781,1.96763,1.91856,5.98087,3.20869l-3.49211.86186a3.97525,3.97525,0,0,1-3.05823-.48545l-3.84478-2.41241a1.20718,1.20718,0,0,0-1.53132.20882l-.00023.00025a1.10922,1.10922,0,0,0,.21748,1.67315l6.94,4.6612s-.66768,5.51929,4.67378,6.71514,12.686-.91989,12.686-.91989Z" fill="#f9977a"/><polygon points="339.4 294.833 362.472 293.421 338.726 260.973 316.171 262.453 339.4 294.833" fill="#6c7fd8"/><path d="M368.35479,291.73634l-12.00428-10.15866s-6.46339-1.91488-10.18485-3.39873a5.40031,5.40031,0,0,0-6.01126,1.49711c-1.39218,1.60763-1.34247,3.23044,2.52968,5.7864,5.79133,3.8228,8.74316,5.23177,10.48756,5.73737.60433.17515,3.981,1.46346,3.981,1.46346Z" fill="#f9977a"/><path d="M352.87082,283.28055a23.299,23.299,0,0,1-2.58994-.80655c-.85162-.30423-1.68246-.66162-2.503-1.04324a23.335,23.335,0,0,1-2.39181-1.28873,12.58979,12.58979,0,0,1-2.17221-1.63562c1.56808.90225,3.17386,1.66635,4.79721,2.43008C349.62769,281.71027,351.2623,282.44626,352.87082,283.28055Z" fill="#dd765e"/><path d="M351.33167,285.41364a22.49694,22.49694,0,0,1-2.87125-.75712,25.70144,25.70144,0,0,1-2.77088-1.0798,17.15007,17.15007,0,0,1-2.60687-1.45444,7.0225,7.0225,0,0,1-2.13608-2.07363,10.14044,10.14044,0,0,0,2.35965,1.71734c.85135.4704,1.7183.91675,2.61176,1.31427C347.69208,283.90381,349.51282,284.63049,351.33167,285.41364Z" fill="#dd765e"/><path d="M349.4068,287.06592a16.3979,16.3979,0,0,1-2.4151-.5961,21.75306,21.75306,0,0,1-2.32526-.88739,14.99364,14.99364,0,0,1-4.176-2.69242c.73248.39533,1.44806.789,2.1817,1.152.73959.35071,1.471.712,2.21927,1.04236Z" fill="#dd765e"/><path d="M342.65384,233.10728l-7.68249-3.64265a6.50013,6.50013,0,0,1-2.66409-2.31189c-1.13652-1.73936-3.05886-4.49229-4.42077-5.44948-1.32145-.92877-1.05224-1.84221.58279-1.82371.96237.0109,2.654.85475,5.62715,3.757l-.74108-3.40208a3.72671,3.72671,0,0,0-1.8027-2.43146l-3.9427-2.26065a1.11423,1.11423,0,0,1-.48228-1.41713l.00014-.00031a1.195,1.195,0,0,1,1.65248-.551l7.40205,3.9451s4.83921-3.01607,8.31145,1.077,4.74892,11.38209,4.74892,11.38209Z" fill="#f9977a"/><path d="M338.9855,219.46884a8.34293,8.34293,0,0,1-1.48675-.857,12.68621,12.68621,0,0,1-1.31641-1.09282,4.97307,4.97307,0,0,1,1.54261.7753A6.34874,6.34874,0,0,1,338.9855,219.46884Z" fill="#dd765e"/><path d="M340.6969,218.65605a16.75115,16.75115,0,0,1-1.316-1.04774c-.19739-.19327-.41556-.35654-.62555-.52933a3.2679,3.2679,0,0,0-.69046-.4541,1.50849,1.50849,0,0,1,.85129.20059,4.36474,4.36474,0,0,1,.719.4874A4.49062,4.49062,0,0,1,340.6969,218.65605Z" fill="#dd765e"/><path d="M342.78757,218.586c-.20267-.39441-.31079-.77892-.51221-1.1095a1.85785,1.85785,0,0,0-.778-.84119.9379.9379,0,0,1,.66117.142,1.58363,1.58363,0,0,1,.46048.51506A1.88834,1.88834,0,0,1,342.78757,218.586Z" fill="#dd765e"/><path d="M349.61121,225.77625c8.966,3.618,22.51044,20.11492,22.51044,20.11492l15.42574-14.28668,3.46012-8.34242,5.7-2.01192a41.8591,41.8591,0,0,0,7.63859-3.549,12.0146,12.0146,0,0,0,4.96569-5.18116c.01562-.02927,6.91273,13.83824,6.91273,13.83824,6.05836,9.716,7.89592,20.92121,7.02253,32.22734l-2.67071,46.91391s-43.49474,5.15132-41.58708,0l.34664-8.28028-4.73426-.55059-10.30138-2.02371,1.33536-12.51039,10.68292-.36794,4.00608-3.12761.42782-13.0725-2.36643.39166c-6.20422,1.0269-13.71963-1.77652-17.59254-6.56242L341.7898,234.85262A13.041,13.041,0,0,1,349.61121,225.77625Z" fill="#ffba55"/><path d="M412.84058,220.93135a102.28448,102.28448,0,0,1-8.958,5.49133c-1.53226.83991-3.06729,1.67455-4.6272,2.46138-1.55163.80274-3.12417,1.56537-4.70312,2.31568l-.65622.31183-.24262-.62737c-.96783-2.50285-1.8974-5.02257-2.6459-7.62208,1.41351,2.30644,2.64593,4.6927,3.84009,7.09582l-.89856-.31544c1.51934-.86466,3.04513-1.717,4.59182-2.52921,1.53842-.82812,3.10172-1.60844,4.66779-2.3835A102.28585,102.28585,0,0,1,412.84058,220.93135Z" fill="#e6952a"/><path d="M380.32458,278.639a34.24907,34.24907,0,0,1,4.54789-1.57245c1.54492-.43729,3.103-.82636,4.66522-1.19461q4.68951-1.09887,9.42337-1.994l-.29163.35867-.9132-18.73831a59.93158,59.93158,0,0,1,.13082-9.46091,23.28116,23.28116,0,0,1,2.69379-9.20687,11.10109,11.10109,0,0,1,3.37476-3.63614,9.73974,9.73974,0,0,1,4.73962-1.56989,11.49942,11.49942,0,0,1,9.05823,3.48319,12.05868,12.05868,0,0,1,1.54318,1.97215,13.32234,13.32234,0,0,1,1.07092,2.23515,35.89734,35.89734,0,0,1,1.43253,4.56546,57.27031,57.27031,0,0,1,1.4107,9.38936,104.7616,104.7616,0,0,1-.54043,18.8564c-.33984,3.12335-.79495,6.23032-1.3187,9.32422a11.18375,11.18375,0,0,1-5.4815,7.85876,12.90041,12.90041,0,0,1-2.21485,1.00168l-2.20892.80811c-1.47519.53134-2.96054,1.03393-4.45,1.52344-2.98224.96768-5.99,1.86492-9.0419,2.59188a85.17629,85.17629,0,0,1-9.24225,1.73786,41.73173,41.73173,0,0,1-9.3764.247c6.26431.26919,12.44616-1.02432,18.44574-2.652,3.00116-.84113,5.97924-1.76495,8.92172-2.79453,1.47046-.51678,2.93634-1.04632,4.3916-1.60434l2.17838-.84774a11.77156,11.77156,0,0,0,2.0332-.96677c5.67312-3.10666,5.02133-10.41547,5.99173-16.37411a103.35121,103.35121,0,0,0,.41043-18.59426,55.8213,55.8213,0,0,0-1.43243-9.12936,34.35473,34.35473,0,0,0-1.34278-4.38535,11.765,11.765,0,0,0-.93466-1.99531,10.54709,10.54709,0,0,0-1.33-1.72214,10.022,10.022,0,0,0-7.8731-3.08867,8.304,8.304,0,0,0-4.06983,1.31336,9.70688,9.70688,0,0,0-2.95911,3.15954,22.3724,22.3724,0,0,0-2.58413,8.65061,58.7446,58.7446,0,0,0-.313,9.27154l.50037,18.75057.00833.312-.30017.04687q-4.74111.74054-9.45908,1.67575c-1.57095.31208-3.134.65943-4.69208,1.02878A34.15356,34.15356,0,0,0,380.32458,278.639Z" fill="#e6952a"/><path d="M387.54739,231.60449c-.78967,2.81839-1.84051,5.5659-2.70031,8.30377a66.50844,66.50844,0,0,0-2.01285,8.37473c-.52951,2.82974-.73221,5.6696-.99646,8.59079-.27274,2.9024-.60117,5.80176-1.08536,8.69269-.1683-2.92636-.18085-5.84424-.13772-8.75913.01116-1.457.05383-2.9095.14022-4.39282.10724-1.47368.29316-2.9416.53376-4.40019a43.28938,43.28938,0,0,1,2.40792-8.51267A78.58126,78.58126,0,0,1,387.54739,231.60449Z" fill="#e6952a"/><path d="M372.12164,245.89117c-.08822,1.84441-.34906,3.49483-.54181,5.171l-.2991,2.50731c-.10586.84838-.14975,1.6951-.30368,2.62438a6.70537,6.70537,0,0,1-.92071-2.58927,9.39945,9.39945,0,0,1-.03351-2.73764,10.42827,10.42827,0,0,1,.68213-2.63563A7.48392,7.48392,0,0,1,372.12164,245.89117Z" fill="#e6952a"/><path d="M408.36725,281.58258c-1.64832-1.30536-3.06757-2.63019-4.5698-3.86813-.74279-.62644-1.50891-1.20334-2.28436-1.79621-.78872-.57861-1.61047-1.09326-2.49338-1.6947a7.31532,7.31532,0,0,1,3.0925.62634,10.84279,10.84279,0,0,1,2.6886,1.65805,12.514,12.514,0,0,1,2.13346,2.29264A9.244,9.244,0,0,1,408.36725,281.58258Z" fill="#e6952a"/><path d="M417.71481,292.2532a8.04726,8.04726,0,0,1-1.059,3.07279,9.73856,9.73856,0,0,1-2.07962,2.56146,7.92291,7.92291,0,0,1-2.9256,1.62665,6.08954,6.08954,0,0,1-3.28332.09817,19.2563,19.2563,0,0,0,2.8136-1.2294,15.35524,15.35524,0,0,0,2.36978-1.6831A40.6237,40.6237,0,0,0,417.71481,292.2532Z" fill="#e6952a"/><path d="M416.57022,298.14044a6.04707,6.04707,0,0,1-1.74325,2.65347,9.112,9.112,0,0,1-2.69721,1.74579,9.90492,9.90492,0,0,1-3.10934.71769,10.31457,10.31457,0,0,1-1.58219-.01612,10.06857,10.06857,0,0,1-1.55093-.31744c.50552-.19745,1.00073-.30737,1.48605-.45053.48166-.15955.96457-.263,1.4296-.42133.93927-.283,1.83554-.6149,2.723-.96063A21.7747,21.7747,0,0,0,416.57022,298.14044Z" fill="#e6952a"/><path d="M376.31851,281.76657a15.69821,15.69821,0,0,1,.84668,2.98782,25.51572,25.51572,0,0,1,.41242,3.022,25.16641,25.16641,0,0,1,.06683,3.0491,15.52579,15.52579,0,0,1-.3721,3.08356,15.52794,15.52794,0,0,1-.849-2.98764,25.16637,25.16637,0,0,1-.41007-3.02213,25.52308,25.52308,0,0,1-.06451-3.04925A15.69779,15.69779,0,0,1,376.31851,281.76657Z" fill="#e6952a"/><path d="M354.87933,228.87512a17.40258,17.40258,0,0,1-1.72616,2.781,28.44747,28.44747,0,0,1-2.047,2.4863,28.05052,28.05052,0,0,1-2.30228,2.25182,17.20971,17.20971,0,0,1-2.62649,1.95393,17.21024,17.21024,0,0,1,1.72443-2.78258,28.0563,28.0563,0,0,1,2.0487-2.48472,28.44558,28.44558,0,0,1,2.304-2.25022A17.39975,17.39975,0,0,1,354.87933,228.87512Z" fill="#e6952a"/><rect x="335.53271" y="247.74268" width="1" height="11.3833" fill="#7ca1b1"/><rect x="353.32266" y="271.14387" width="13.43281" height="0.99985" transform="translate(-76.80837 159.4707) rotate(-22.63278)" fill="#7ca1b1"/><rect x="344.27425" y="258.6258" width="12.36507" height="0.99987" transform="translate(-24.94842 480.5688) rotate(-67.0144)" fill="#7ca1b1"/><path d="M420.57631,305.49949a36.54555,36.54555,0,0,1-6.42442,22.56524A23.96443,23.96443,0,0,1,394.34,338.13432l-37.64131-.10783c-6.3775.28758-11.8059.22589-13.67359,6.11377l-24.26728,76.50243-18.58-2.20537,15.14983-84.0798s.571-16.74164,18.86582-19.297l44.3061-7.99448.68813-6.307Z" fill="#f73c4f"/><polygon points="378.6 307.234 378.4 306.898 387.448 301.549 387.647 301.885 378.6 307.234" fill="#5e7c24"/><path d="M336.03287,366.183c.012-3.51138.22693-6.99722.51889-10.47335a23.78342,23.78342,0,0,1,.91549-5.30661,22.98638,22.98638,0,0,1,2.20441-4.97669,18.995,18.995,0,0,1,3.48279-4.235,13.9924,13.9924,0,0,1,4.74521-2.81733,10.07575,10.07575,0,0,1,2.74179-.57425,15.92455,15.92455,0,0,1,2.70477.20029,14.40887,14.40887,0,0,0,5.14624.161,11.8203,11.8203,0,0,1-5.21164.80817,15.96471,15.96471,0,0,0-2.51645.123,10.10715,10.10715,0,0,0-2.30536.72586,16.1187,16.1187,0,0,0-7.07818,6.63983,24.45743,24.45743,0,0,0-2.79266,6.93756c-.18689.81253-.30564,1.64023-.46271,2.51218C337.54694,359.34784,336.89136,362.7782,336.03287,366.183Z" fill="#b02336"/><rect x="474.60102" y="306.14935" width="8.63678" height="136.99937" fill="#935b50"/><rect x="240.22682" y="299.52536" width="259.54635" height="6.62399" rx="1.48897" fill="#935b50"/><rect x="257.45117" y="306.14935" width="8.63678" height="136.99937" fill="#935b50"/><path d="M250.56143,306.14935H490.02912a0,0,0,0,1,0,0v18.68822a2.97795,2.97795,0,0,1-2.97795,2.97795H253.53938a2.97795,2.97795,0,0,1-2.97795-2.97795V306.14935A0,0,0,0,1,250.56143,306.14935Z" fill="#c38f86"/><path d="M353.71231,443.61788c-3.15467-2.10694-3.58459-6.308-.99248-9.53784l10.90289-13.58555a1.493,1.493,0,0,1,1.65493-.40873l7.76231,3.36169a1.49666,1.49666,0,0,0,1.71583-.48192l4.527-5.82816a1.35349,1.35349,0,0,1,2.249.02306l4.59711,9.80222a1.25021,1.25021,0,0,1-.72819,1.59844L353.722,443.62431Z" fill="#6c7fd8"/><path d="M274.79661,435.9812c-1.83473-3.683.28063-7.66784,4.78649-9.05639l18.95251-5.84052a1.84711,1.84711,0,0,1,1.8775.58481l5.616,7.4405a1.85379,1.85379,0,0,0,1.98175.55458l7.98251-2.5917c1.083-.35162,2.31581.3816,2.20185,1.30954l-1.39488,11.35768a1.40882,1.40882,0,0,1-1.68348,1.00506l-40.31462-4.7523Z" fill="#6c7fd8"/><path d="M269.90316,291.16329h47.67505a0,0,0,0,1,0,0v7.56913a0,0,0,0,1,0,0H269.90316a3.2569,3.2569,0,0,1-3.2569-3.2569v-1.05533a3.2569,3.2569,0,0,1,3.2569-3.2569Z" transform="translate(584.22448 589.89571) rotate(180)" fill="#fff"/><path d="M265.15531,298.92617a.68579.68579,0,0,0,.6858.68579h49.48144c1.88926,0,3.426-2.075,3.426-4.62605,0-2.5504-1.53675-4.62543-3.426-4.62543H265.84111a.68579.68579,0,0,0-.6858.68579v.53981a.6858.6858,0,0,0,.6858.6858h49.48144c1.10867,0,2.01045,1.21764,2.01045,2.714,0,1.497-.90178,2.71466-2.01045,2.71466H265.84111a.68579.68579,0,0,0-.6858.68579Z" fill="#f65b2b"/><path d="M277.34138,281.91181h47.67505a0,0,0,0,1,0,0v7.56913a0,0,0,0,1,0,0H277.34138a3.2569,3.2569,0,0,1-3.2569-3.2569v-1.05533A3.2569,3.2569,0,0,1,277.34138,281.91181Z" transform="translate(599.10091 571.39274) rotate(180)" fill="#fff"/><path d="M272.59353,289.67468a.68579.68579,0,0,0,.68579.6858h49.48145c1.88926,0,3.426-2.075,3.426-4.62605,0-2.5504-1.53675-4.62544-3.426-4.62544H273.27932a.6858.6858,0,0,0-.68579.6858v.53981a.68579.68579,0,0,0,.68579.68579h49.48145c1.10867,0,2.01045,1.21765,2.01045,2.714,0,1.497-.90178,2.71465-2.01045,2.71465H273.27932a.68579.68579,0,0,0-.68579.6858Z" fill="#ffba55"/><path d="M262.11565,272.66032h47.67505a0,0,0,0,1,0,0v7.56913a0,0,0,0,1,0,0H262.11565a3.2569,3.2569,0,0,1-3.2569-3.2569v-1.05533A3.2569,3.2569,0,0,1,262.11565,272.66032Z" transform="translate(568.64946 552.88978) rotate(180)" fill="#fff"/><path d="M257.3678,280.4232a.68579.68579,0,0,0,.68579.68579H307.535c1.88926,0,3.426-2.075,3.426-4.62605,0-2.55039-1.53675-4.62543-3.426-4.62543H258.05359a.68579.68579,0,0,0-.68579.6858v.5398a.68579.68579,0,0,0,.68579.6858H307.535c1.10867,0,2.01045,1.21764,2.01045,2.714,0,1.497-.90178,2.71466-2.01045,2.71466H258.05359a.68579.68579,0,0,0-.68579.68579Z" fill="#f65b2b"/><path d="M561.6455,417.9668c-.37387-.73687-37.37865-74.07278-35.08357-103.57323l-1.23652-.09524c-2.32214,29.84622,33.68,101.20736,35.214,104.23037Z" fill="#8b9d36"/><path d="M525.98109,316.01a14.51127,14.51127,0,0,0,1.56683-5.37628,19.36439,19.36439,0,0,0-.16874-5.087,19.02879,19.02879,0,0,0-1.483-4.86763l-.02286-.04821a2.52866,2.52866,0,0,0-4.78115.79729l-.006.053a19.03073,19.03073,0,0,0,.17694,5.08564,19.36231,19.36231,0,0,0,1.49122,4.8663A14.51117,14.51117,0,0,0,525.98109,316.01Z" fill="#8b9d36"/><path d="M528.51326,334.92978a9.88467,9.88467,0,0,0,5.25038-2.36558,13.00111,13.00111,0,0,0,3.38466-4.4483,11.8691,11.8691,0,0,0,1.09823-5.636l-.00358-.06449a2.50346,2.50346,0,0,0-4.69679-.96835q-.05074.09249-.10194.18458c-.72447,1.329-1.31338,2.58527-1.93207,3.89928a44.97736,44.97736,0,0,0-1.68981,4.18955A29.46374,29.46374,0,0,0,528.51326,334.92978Z" fill="#8b9d36"/><path d="M526.25651,323.0336a9.88456,9.88456,0,0,0,5.25038-2.36558,13.00107,13.00107,0,0,0,3.38466-4.44829,11.86914,11.86914,0,0,0,1.09823-5.636l-.00358-.06449a2.50346,2.50346,0,0,0-4.69679-.96834q-.05074.09249-.10194.18458c-.72447,1.329-1.31338,2.58526-1.93207,3.89928a44.97624,44.97624,0,0,0-1.68981,4.18955A29.46449,29.46449,0,0,0,526.25651,323.0336Z" fill="#8b9d36"/><path d="M526.60308,326.29871a15.34008,15.34008,0,0,0-1.79953-5.49048,20.8553,20.8553,0,0,0-3.08621-4.28983,20.48509,20.48509,0,0,0-4.06011-3.3811l-.09786-.06015a2.50566,2.50566,0,0,0-3.52132,3.285l.05347.10231a20.48358,20.48358,0,0,0,3.09252,4.284A20.8811,20.8811,0,0,0,521.25,324.124,15.35131,15.35131,0,0,0,526.60308,326.29871Z" fill="#8b9d36"/><path d="M533.21029,350.99619a15.37077,15.37077,0,0,0,4.25513-3.91764,20.91892,20.91892,0,0,0,2.629-4.59145,20.54879,20.54879,0,0,0,1.39876-5.1017q.01257-.09878.02442-.19784a2.48269,2.48269,0,0,0-4.4065-1.82732q-.06181.07847-.12288.15723a20.549,20.549,0,0,0-2.62117,4.59459,20.92008,20.92008,0,0,0-1.39147,5.10514A15.36134,15.36134,0,0,0,533.21029,350.99619Z" fill="#8b9d36"/><path d="M537.90058,365.25073a17.02789,17.02789,0,0,0,4.29961-4.3602,23.92147,23.92147,0,0,0,2.65932-4.99724,23.49262,23.49262,0,0,0,1.41733-5.47913q.0101-.0832.01973-.16659a2.48212,2.48212,0,0,0-4.4684-1.73478q-.04917.06805-.09787.1363a23.50856,23.50856,0,0,0-2.651,5,23.92707,23.92707,0,0,0-1.40954,5.48221A17.01758,17.01758,0,0,0,537.90058,365.25073Z" fill="#8b9d36"/><path d="M543.14671,378.26652a19.46678,19.46678,0,0,0,4.82493-4.49,28.29434,28.29434,0,0,0,3.23466-5.245,27.795,27.795,0,0,0,2.03262-5.81734l.02689-.12494a2.4815,2.4815,0,0,0-4.35193-2.06825l-.07982.09967a27.8091,27.8091,0,0,0-3.22777,5.249,28.29805,28.29805,0,0,0-2.02465,5.82075A19.467,19.467,0,0,0,543.14671,378.26652Z" fill="#8b9d36"/><path d="M548.42629,391.3156a19.63974,19.63974,0,0,0,5.00385-4.33913,28.59987,28.59987,0,0,0,3.443-5.15267,28.08113,28.08113,0,0,0,2.26233-5.76882l.00007-.00028a2.50444,2.50444,0,0,0-4.324-2.25516h0a28.10992,28.10992,0,0,0-3.436,5.15685,28.62808,28.62808,0,0,0-2.25483,5.77265A19.64625,19.64625,0,0,0,548.42629,391.3156Z" fill="#8b9d36"/><path d="M553.08685,402.16792a21.654,21.654,0,0,0,5.58449-4.19151,32.22491,32.22491,0,0,0,4.10405-5.14332,31.6463,31.6463,0,0,0,2.98407-5.86382l.0001-.00027a2.49681,2.49681,0,0,0-4.10194-2.63769h0a31.65024,31.65024,0,0,0-4.09741,5.14812,32.22785,32.22785,0,0,0-2.97689,5.86833A21.64049,21.64049,0,0,0,553.08685,402.16792Z" fill="#8b9d36"/><path d="M558.8912,413.93011a23.068,23.068,0,0,0,5.17373-5.04238,34.77055,34.77055,0,0,0,3.59281-5.81606,34.13915,34.13915,0,0,0,2.3962-6.40143l.00009-.00035a2.49232,2.49232,0,0,0-4.38029-2.14379h0a34.12046,34.12046,0,0,0-3.58534,5.81983,34.76221,34.76221,0,0,0-2.38877,6.40513A23.07021,23.07021,0,0,0,558.8912,413.93011Z" fill="#8b9d36"/><path d="M529.79415,340.88785a18.5357,18.5357,0,0,0-2.84952-5.75021,26.62572,26.62572,0,0,0-4.01333-4.42961,26.16234,26.16234,0,0,0-4.89349-3.43058l-.12576-.066a2.48171,2.48171,0,0,0-3.18008,3.6087l.08127.11637a26.163,26.163,0,0,0,4.01893,4.42332,26.62582,26.62582,0,0,0,4.89906,3.42429A18.5363,18.5363,0,0,0,529.79415,340.88785Z" fill="#8b9d36"/><path d="M533.96168,354.45387a15.86137,15.86137,0,0,0-2.98961-5.0697,21.78706,21.78706,0,0,0-4.00175-3.6291,21.39476,21.39476,0,0,0-4.76694-2.53945l-.05216-.019a2.51756,2.51756,0,0,0-2.7863,3.96734l.03561.04258a21.39243,21.39243,0,0,0,4.0064,3.62236,21.79024,21.79024,0,0,0,4.77156,2.53264A15.85045,15.85045,0,0,0,533.96168,354.45387Z" fill="#8b9d36"/><path d="M538.48409,367.31291a17.67437,17.67437,0,0,0-4.01167-4.79367,25.09665,25.09665,0,0,0-4.8161-3.22818,24.61893,24.61893,0,0,0-5.425-2.04343h0a2.51427,2.51427,0,0,0-2.2287,4.3377h0a24.61253,24.61253,0,0,0,4.81974,3.22079,25.089,25.089,0,0,0,5.42861,2.0361A17.66468,17.66468,0,0,0,538.48409,367.31291Z" fill="#8b9d36"/><path d="M544.13,381.15336a18.57932,18.57932,0,0,0-4.61847-4.47184,26.74827,26.74827,0,0,0-5.27349-2.83866,26.29483,26.29483,0,0,0-5.7696-1.60253l-.14016-.02023a2.48171,2.48171,0,0,0-1.79189,4.46425l.1152.08226a26.27487,26.27487,0,0,0,5.27687,2.8308,26.773,26.773,0,0,0,5.77294,1.5946A18.60194,18.60194,0,0,0,544.13,381.15336Z" fill="#8b9d36"/><path d="M548.86846,392.683a22.23637,22.23637,0,0,0-5.8508-3.99081,33.26935,33.26935,0,0,0-6.28377-2.28469,32.70237,32.70237,0,0,0-6.61061-.9939h-.0004a2.49507,2.49507,0,0,0-1.19866,4.72748h0a32.67642,32.67642,0,0,0,6.28569,2.27666,33.27435,33.27435,0,0,0,6.613.98551A22.22643,22.22643,0,0,0,548.86846,392.683Z" fill="#8b9d36"/><path d="M553.57264,402.49514a19.29285,19.29285,0,0,0-5.68312-3.27216,27.98317,27.98317,0,0,0-5.93345-1.53017,27.48082,27.48082,0,0,0-6.1231-.21172h-.0001a2.50621,2.50621,0,0,0-.69416,4.82743h0a27.48581,27.48581,0,0,0,5.93509,1.5216,27.97879,27.97879,0,0,0,6.12421.20343A19.2849,19.2849,0,0,0,553.57264,402.49514Z" fill="#8b9d36"/><path d="M556.95658,410.41081a24.166,24.166,0,0,0-6.91861-2.64272,36.72584,36.72584,0,0,0-6.97276-.88331,36.07566,36.07566,0,0,0-7.01273.44757l-.00038.00006a2.4896,2.4896,0,0,0-.149,4.87485h0a36.09735,36.09735,0,0,0,6.97313.8749,36.72727,36.72727,0,0,0,7.013-.456A24.16591,24.16591,0,0,0,556.95658,410.41081Z" fill="#8b9d36"/><path d="M539.39187,416.45921a2.48621,2.48621,0,0,0,.74455,4.80272h.00016a33.49929,33.49929,0,0,0,6.70035-.36076,32.88676,32.88676,0,0,0,6.49549-1.67663,22.123,22.123,0,0,0,6.22405-3.43266,22.1272,22.1272,0,0,0-6.97131-1.38661,32.89745,32.89745,0,0,0-6.69824.36864,33.49577,33.49577,0,0,0-6.495,1.68528Z" fill="#8b9d36"/><path d="M543.89478,403.659c.15578-.93519,15.43654-93.9397,2.77684-125.44234l1.32076-.52958c12.80828,31.87183-2.05426,122.3698-2.69357,126.20653Z" fill="#5f7d37"/><path d="M547.86344,279.78625a16.65024,16.65024,0,0,1-3.56441-5.3461,22.2188,22.2188,0,0,1-1.5651-5.62639,21.83393,21.83393,0,0,1-.051-5.83838l.00844-.06064a2.90138,2.90138,0,0,1,5.50783-.77187l.02475.05592a21.83577,21.83577,0,0,1,1.55566,5.62775,22.21606,22.21606,0,0,1,.04155,5.83975A16.65036,16.65036,0,0,1,547.86344,279.78625Z" fill="#5f7d37"/><path d="M551.59959,301.36742a11.34167,11.34167,0,0,1-6.56092-.78344,14.91753,14.91753,0,0,1-5.23507-3.705,13.61867,13.61867,0,0,1-3.14081-5.79161l-.01827-.07182a2.87248,2.87248,0,0,1,4.80817-2.67556q.08735.08379.17508.167c1.25017,1.20557,2.32693,2.37814,3.45616,3.60369a51.60853,51.60853,0,0,1,3.29083,4.00475A33.80716,33.80716,0,0,1,551.59959,301.36742Z" fill="#5f7d37"/><path d="M549.9779,287.56923a11.34154,11.34154,0,0,1-6.56093-.78344,14.91749,14.91749,0,0,1-5.23506-3.705,13.61876,13.61876,0,0,1-3.14082-5.7916l-.01826-.07182a2.87248,2.87248,0,0,1,4.80816-2.67557q.08736.08379.17509.167c1.25017,1.20558,2.32693,2.37814,3.45615,3.60369a51.60583,51.60583,0,0,1,3.29083,4.00475A33.80762,33.80762,0,0,1,549.9779,287.56923Z" fill="#5f7d37"/><path d="M550.72165,291.26252a17.60146,17.60146,0,0,1,.08123-6.629,23.92974,23.92974,0,0,1,1.90266-5.75737,23.50447,23.50447,0,0,1,3.28131-5.09763l.08643-.0995a2.875,2.875,0,0,1,4.98451,2.38462l-.02334.13037a23.50309,23.50309,0,0,1-1.91158,5.75314,23.95934,23.95934,0,0,1-3.28955,5.09359A17.61381,17.61381,0,0,1,550.72165,291.26252Z" fill="#5f7d37"/><path d="M551.98455,320.56987a17.63657,17.63657,0,0,1-6.00538-2.82471,24.00239,24.00239,0,0,1-4.45713-4.12162,23.57809,23.57809,0,0,1-3.286-5.10335q-.04773-.10378-.09479-.20816a2.84864,2.84864,0,0,1,4.19494-3.516q.09465.06462.18859.12984a23.5779,23.5779,0,0,1,4.44965,4.12776,24.00359,24.00359,0,0,1,3.27918,5.1096A17.62588,17.62588,0,0,1,551.98455,320.56987Z" fill="#5f7d37"/><path d="M551.75363,337.78667a19.53784,19.53784,0,0,1-6.20629-3.29384,27.447,27.447,0,0,1-4.6299-4.55539,26.955,26.955,0,0,1-3.43615-5.5101q-.03967-.0876-.07889-.17556a2.848,2.848,0,0,1,4.29451-3.436q.07723.05758.154.11553a26.97406,26.97406,0,0,1,4.62175,4.56132,27.45428,27.45428,0,0,1,3.42868,5.51614A19.52627,19.52627,0,0,1,551.75363,337.78667Z" fill="#5f7d37"/><path d="M550.48817,353.8387a22.33625,22.33625,0,0,1-6.82595-3.25519,32.465,32.465,0,0,1-5.34492-4.62871,31.892,31.892,0,0,1-4.226-5.66867l-.07242-.12751a2.84729,2.84729,0,0,1,4.05234-3.76093l.12165.08164a31.90934,31.90934,0,0,1,5.33875,4.63544,32.46989,32.46989,0,0,1,4.21844,5.67514A22.33661,22.33661,0,0,1,550.48817,353.8387Z" fill="#5f7d37"/><path d="M549.19755,369.93867a22.53459,22.53459,0,0,1-6.96992-3.02854,32.81516,32.81516,0,0,1-5.54119-4.456,32.2192,32.2192,0,0,1-4.46076-5.53653l-.00017-.00029a2.8736,2.8736,0,0,1,3.95741-3.9559h0a32.25286,32.25286,0,0,1,5.535,4.46295,32.84786,32.84786,0,0,1,4.45386,5.54331A22.54172,22.54172,0,0,1,549.19755,369.93867Z" fill="#5f7d37"/><path d="M547.8289,383.42108a24.84573,24.84573,0,0,1-7.55473-2.66723,36.974,36.974,0,0,1-6.2616-4.21834,36.31052,36.31052,0,0,1-5.28346-5.39227l-.0002-.00026a2.86484,2.86484,0,0,1,3.5828-4.29826h0a36.31551,36.31551,0,0,1,6.256,4.22588,36.97883,36.97883,0,0,1,5.27716,5.39968A24.83014,24.83014,0,0,1,547.8289,383.42108Z" fill="#5f7d37"/><path d="M545.52119,398.29288a26.46823,26.46823,0,0,1-7.39778-3.73989,39.89617,39.89617,0,0,1-5.93338-5.1306,39.17123,39.17123,0,0,1-4.8249-6.183l-.00021-.00035a2.8597,2.8597,0,0,1,4.05738-3.85337h0a39.14978,39.14978,0,0,1,5.9265,5.13728,39.88741,39.88741,0,0,1,4.818,6.18958A26.47107,26.47107,0,0,1,545.52119,398.29288Z" fill="#5f7d37"/><path d="M552.24692,308.32991a21.268,21.268,0,0,1,1.14124-7.27453,30.55075,30.55075,0,0,1,2.86944-6.22929,30.01934,30.01934,0,0,1,4.17652-5.43845l.115-.11554a2.84752,2.84752,0,0,1,4.72232,2.85632l-.04893.15534a30.02025,30.02025,0,0,1-2.87772,6.22432,30.55051,30.55051,0,0,1-4.1848,5.43349A21.26877,21.26877,0,0,1,552.24692,308.32991Z" fill="#5f7d37"/><path d="M552.3514,324.61322a18.19951,18.19951,0,0,1,1.52868-6.57781,24.99879,24.99879,0,0,1,3.1321-5.349,24.54872,24.54872,0,0,1,4.34453-4.41947l.05055-.0388a2.88866,2.88866,0,0,1,4.41464,3.38436l-.02433.05885a24.5455,24.5455,0,0,1-3.13953,5.34325,25.00174,25.00174,0,0,1-4.35193,4.41361A18.18663,18.18663,0,0,1,552.3514,324.61322Z" fill="#5f7d37"/><path d="M551.82424,340.24471a20.27955,20.27955,0,0,1,2.74239-6.62721,28.7958,28.7958,0,0,1,4.16144-5.1903,28.24793,28.24793,0,0,1,5.23542-4.10285h0a2.88487,2.88487,0,0,1,3.93166,3.98156h0a28.24084,28.24084,0,0,1-4.168,5.18345,28.78759,28.78759,0,0,1-5.24195,4.09609A20.26853,20.26853,0,0,1,551.82424,340.24471Z" fill="#5f7d37"/><path d="M550.40487,357.33694a21.31773,21.31773,0,0,1,3.51732-6.48365,30.69,30.69,0,0,1,4.79609-4.92124,30.17078,30.17078,0,0,1,5.76434-3.73879l.14647-.07035a2.84752,2.84752,0,0,1,3.497,4.27033l-.0978.12967a30.14764,30.14764,0,0,1-4.80249,4.9138,30.71951,30.71951,0,0,1-5.77074,3.73125A21.34356,21.34356,0,0,1,550.40487,357.33694Z" fill="#5f7d37"/><path d="M549.1839,371.58757a25.5141,25.5141,0,0,1,5.03173-6.381,38.17249,38.17249,0,0,1,6.09252-4.66236,37.52247,37.52247,0,0,1,6.8943-3.36184l.00043-.00016a2.86286,2.86286,0,0,1,2.93823,4.76254h0a37.49232,37.49232,0,0,1-6.09739,4.65422,38.18,38.18,0,0,1-6.89984,3.3535A25.50273,25.50273,0,0,1,549.1839,371.58757Z" fill="#5f7d37"/><path d="M547.4097,383.94636a22.13656,22.13656,0,0,1,5.09537-5.53666,32.10789,32.10789,0,0,1,5.96859-3.71594,31.5323,31.5323,0,0,1,6.62971-2.338l.00011,0a2.87563,2.87563,0,0,1,2.42037,5.04548h0a31.53737,31.53737,0,0,1-5.97334,3.70712,32.10336,32.10336,0,0,1-6.63377,2.32926A22.12748,22.12748,0,0,1,547.4097,383.94636Z" fill="#5f7d37"/><path d="M546.42833,393.77509a27.72821,27.72821,0,0,1,6.66429-5.27264,42.139,42.139,0,0,1,7.32877-3.36536,41.39346,41.39346,0,0,1,7.8303-1.92229l.00043-.00006a2.85658,2.85658,0,0,1,1.83991,5.28492h0a41.41677,41.41677,0,0,1-7.33205,3.35628,42.14,42.14,0,0,1-7.83356,1.91313A27.72788,27.72788,0,0,1,546.42833,393.77509Z" fill="#5f7d37"/><path d="M567.7357,394.354a2.85269,2.85269,0,0,1,.837,5.51331l-.00017.00007a38.43682,38.43682,0,0,1-7.4585,1.90986,37.73467,37.73467,0,0,1-7.68688.399,25.38435,25.38435,0,0,1-7.9938-1.61657,25.38887,25.38887,0,0,1,7.15406-3.9158,37.74761,37.74761,0,0,1,7.4589-1.90051,38.43323,38.43323,0,0,1,7.68936-.38937Z" fill="#5f7d37"/><path d="M542.68445,422.96232c.30689-.60484,30.68151-60.80114,28.79764-85.016l1.015-.07817c1.90608,24.49866-27.64556,83.074-28.9047,85.55539Z" fill="#c4ce6e"/><path d="M571.95886,339.27315a11.91128,11.91128,0,0,1-1.2861-4.413,15.89481,15.89481,0,0,1,.13851-4.17554,15.619,15.619,0,0,1,1.21731-3.99549l.01876-.03958a2.0756,2.0756,0,0,1,3.92451.65444l.0049.04346a15.62171,15.62171,0,0,1-.14523,4.17445,15.89315,15.89315,0,0,1-1.224,3.9944A11.91126,11.91126,0,0,1,571.95886,339.27315Z" fill="#c4ce6e"/><path d="M569.88038,354.80306a8.11355,8.11355,0,0,1-4.30967-1.94174,10.67175,10.67175,0,0,1-2.77823-3.65129,9.74248,9.74248,0,0,1-.90146-4.62622l.00294-.05293a2.05492,2.05492,0,0,1,3.85527-.79485q.04164.07591.08368.15151c.59466,1.09089,1.07805,2.12206,1.58589,3.20065a36.91734,36.91734,0,0,1,1.387,3.4389A24.18526,24.18526,0,0,1,569.88038,354.80306Z" fill="#c4ce6e"/><path d="M571.73279,345.03833a8.11366,8.11366,0,0,1-4.30967-1.94174,10.67163,10.67163,0,0,1-2.77823-3.65129,9.74248,9.74248,0,0,1-.90146-4.62622l.00294-.05293a2.05491,2.05491,0,0,1,3.85526-.79485q.04166.07592.08368.1515c.59467,1.0909,1.07806,2.12207,1.5859,3.20065a36.91757,36.91757,0,0,1,1.38705,3.43891A24.18481,24.18481,0,0,1,571.73279,345.03833Z" fill="#c4ce6e"/><path d="M571.44831,347.71842a12.59171,12.59171,0,0,1,1.47711-4.50674,17.119,17.119,0,0,1,2.53326-3.52123,16.81481,16.81481,0,0,1,3.33265-2.7753l.08033-.04937a2.05673,2.05673,0,0,1,2.89041,2.69643l-.0439.084a16.813,16.813,0,0,1-2.53843,3.51643,17.14017,17.14017,0,0,1-3.33741,2.77078A12.60084,12.60084,0,0,1,571.44831,347.71842Z" fill="#c4ce6e"/><path d="M566.02492,367.99086a12.61685,12.61685,0,0,1-3.49274-3.21573,17.17108,17.17108,0,0,1-2.158-3.76879,16.86723,16.86723,0,0,1-1.14814-4.18763q-.01032-.08108-.02-.1624a2.03786,2.03786,0,0,1,3.617-1.49991q.05073.06439.10086.12906a16.86735,16.86735,0,0,1,2.15154,3.77138,17.17159,17.17159,0,0,1,1.14215,4.19044A12.60908,12.60908,0,0,1,566.02492,367.99086Z" fill="#c4ce6e"/><path d="M562.175,379.6914a13.977,13.977,0,0,1-3.52925-3.579,19.63522,19.63522,0,0,1-2.18284-4.10188,19.28321,19.28321,0,0,1-1.1634-4.49744l-.01619-.13674a2.0374,2.0374,0,0,1,3.6678-1.424l.08033.11188a19.29665,19.29665,0,0,1,2.176,4.10418,19.64086,19.64086,0,0,1,1.157,4.5A13.96875,13.96875,0,0,1,562.175,379.6914Z" fill="#c4ce6e"/><path d="M557.86881,390.37515a15.97891,15.97891,0,0,1-3.96044-3.68549,23.22424,23.22424,0,0,1-2.65511-4.30527,22.81482,22.81482,0,0,1-1.66843-4.77505l-.02208-.10255a2.03689,2.03689,0,0,1,3.5722-1.69768l.06552.08181a22.82662,22.82662,0,0,1,2.64944,4.30853,23.22822,23.22822,0,0,1,1.6619,4.77785A15.97922,15.97922,0,0,1,557.86881,390.37515Z" fill="#c4ce6e"/><path d="M553.53517,401.08622a16.12086,16.12086,0,0,1-4.10731-3.56168,23.47575,23.47575,0,0,1-2.8261-4.22947,23.04956,23.04956,0,0,1-1.857-4.73522l-.00006-.00023a2.05572,2.05572,0,0,1,3.54923-1.8511h0a23.07274,23.07274,0,0,1,2.82036,4.2329,23.49858,23.49858,0,0,1,1.85083,4.73836A16.12575,16.12575,0,0,1,553.53517,401.08622Z" fill="#c4ce6e"/><path d="M549.70964,409.99413a17.77428,17.77428,0,0,1-4.58391-3.44052,26.45091,26.45091,0,0,1-3.36873-4.22179,25.97486,25.97486,0,0,1-2.4494-4.8132l-.00009-.00022a2.04945,2.04945,0,0,1,3.367-2.16509h0a25.979,25.979,0,0,1,3.36328,4.22573,26.45333,26.45333,0,0,1,2.44352,4.8169A17.76306,17.76306,0,0,1,549.70964,409.99413Z" fill="#c4ce6e"/><path d="M544.94526,419.64888a18.9346,18.9346,0,0,1-4.24675-4.13893,28.54014,28.54014,0,0,1-2.94908-4.774,28.02307,28.02307,0,0,1-1.96688-5.25449l-.00007-.00029a2.04577,2.04577,0,0,1,3.59547-1.75968h0a28.00772,28.00772,0,0,1,2.94295,4.77708,28.53436,28.53436,0,0,1,1.96077,5.25753A18.9366,18.9366,0,0,1,544.94526,419.64888Z" fill="#c4ce6e"/><path d="M568.829,359.69363a15.21492,15.21492,0,0,1,2.339-4.71995,21.8555,21.8555,0,0,1,3.29426-3.636,21.47469,21.47469,0,0,1,4.01672-2.81591l.10323-.05421a2.03706,2.03706,0,0,1,2.6103,2.96213l-.06671.09552a21.47559,21.47559,0,0,1-3.29885,3.6308,21.85511,21.85511,0,0,1-4.0213,2.81075A15.21514,15.21514,0,0,1,568.829,359.69363Z" fill="#c4ce6e"/><path d="M565.40815,370.829a13.01959,13.01959,0,0,1,2.454-4.16136,17.88324,17.88324,0,0,1,3.28475-2.97887,17.56114,17.56114,0,0,1,3.91285-2.08446l.04281-.01564a2.06649,2.06649,0,0,1,2.28708,3.25652l-.02923.03494a17.55935,17.55935,0,0,1-3.28857,2.97334,17.88592,17.88592,0,0,1-3.91664,2.07887A13.01052,13.01052,0,0,1,565.40815,370.829Z" fill="#c4ce6e"/><path d="M561.696,381.3841a14.50779,14.50779,0,0,1,3.2929-3.93478,20.60034,20.60034,0,0,1,3.95321-2.6498,20.20819,20.20819,0,0,1,4.45295-1.6773h0a2.06379,2.06379,0,0,1,1.82938,3.56052h0a20.20248,20.20248,0,0,1-3.95619,2.64372,20.59358,20.59358,0,0,1-4.456,1.67129A14.49951,14.49951,0,0,1,561.696,381.3841Z" fill="#c4ce6e"/><path d="M557.06172,392.74475a15.25026,15.25026,0,0,1,3.791-3.67061,21.95494,21.95494,0,0,1,4.32864-2.33006,21.58372,21.58372,0,0,1,4.73585-1.31541l.115-.0166a2.03706,2.03706,0,0,1,1.47084,3.66439l-.09456.06752a21.567,21.567,0,0,1-4.33141,2.3236,21.976,21.976,0,0,1-4.7386,1.3089A15.269,15.269,0,0,1,557.06172,392.74475Z" fill="#c4ce6e"/><path d="M553.17223,402.20863a18.25272,18.25272,0,0,1,4.80251-3.27577,27.3082,27.3082,0,0,1,5.1579-1.87534,26.842,26.842,0,0,1,5.42619-.81582l.00033,0a2.048,2.048,0,0,1,.98389,3.88046h0a26.82111,26.82111,0,0,1-5.15947,1.86875,27.31309,27.31309,0,0,1-5.42818.80894A18.244,18.244,0,0,1,553.17223,402.20863Z" fill="#c4ce6e"/><path d="M549.3109,410.26272a15.83573,15.83573,0,0,1,4.66487-2.68588,22.96969,22.96969,0,0,1,4.87035-1.256,22.55741,22.55741,0,0,1,5.026-.17378h.00008a2.05716,2.05716,0,0,1,.56979,3.96249h0a22.561,22.561,0,0,1-4.87169,1.249,22.96588,22.96588,0,0,1-5.02694.167A15.82976,15.82976,0,0,1,549.3109,410.26272Z" fill="#c4ce6e"/><path d="M546.53326,416.76014a19.83583,19.83583,0,0,1,5.679-2.16922,30.14541,30.14541,0,0,1,5.72346-.72505,29.61158,29.61158,0,0,1,5.75625.36738l.00031,0a2.04354,2.04354,0,0,1,.12229,4.00142h0a29.62918,29.62918,0,0,1-5.72375.71815,30.146,30.146,0,0,1-5.75652-.37433A19.83611,19.83611,0,0,1,546.53326,416.76014Z" fill="#c4ce6e"/><path d="M560.95089,421.72484a2.04076,2.04076,0,0,1-.61114,3.94222h-.00014a27.497,27.497,0,0,1-5.49984-.29612,26.995,26.995,0,0,1-5.33169-1.37623,18.15906,18.15906,0,0,1-5.10889-2.81763,18.16274,18.16274,0,0,1,5.72226-1.13817,27.00331,27.00331,0,0,1,5.49812.30259,27.49441,27.49441,0,0,1,5.33131,1.38333Z" fill="#c4ce6e"/><path d="M562.31248,443.62431H536.591l-8.27487-43.9008a1.74489,1.74489,0,0,1,1.70271-2.07652h38.86582a1.7449,1.7449,0,0,1,1.70271,2.07652Z" fill="#e19974"/><path d="M569.98953,402.89556l.59792-3.172a1.7449,1.7449,0,0,0-1.70271-2.07653H530.0188a1.7449,1.7449,0,0,0-1.70271,2.07653l.59792,3.172Z" fill="#d6694b"/><polygon points="538.647 431.191 533.214 425.707 538.647 420.222 544.081 425.707 538.647 431.191" fill="#d6694b"/><polygon points="549.514 431.191 544.081 425.707 549.514 420.222 554.948 425.707 549.514 431.191" fill="#d6694b"/><polygon points="560.256 431.191 554.822 425.707 560.256 420.222 565.689 425.707 560.256 431.191" fill="#d6694b"/><path d="M135.84111,427.36018c0,.097,1.01009-.1405.99826-.03164,0,0-9.93944,16.29577-11.03033,16.29577a2.751,2.751,0,0,1-.31473-.02425,2.2246,2.2246,0,0,1-1.89013-2.508l7.75386-13.76347Z" fill="#935b50"/><path d="M186.53982,427.36018c0,.097-1.0101-.1405-.99827-.03164,0,0,9.93944,16.29577,11.03033,16.29577a2.75066,2.75066,0,0,0,.31473-.02425,2.22458,2.22458,0,0,0,1.89013-2.508l-7.75385-13.76347Z" fill="#935b50"/><path d="M202.06129,390.73189H120V355.92724a2.42315,2.42315,0,0,1,2.42315-2.42315h77.215a2.42316,2.42316,0,0,1,2.42316,2.42315Z" fill="#d6694b"/><path d="M131.35827,427.95856H122.429a2.42316,2.42316,0,0,1-2.42315-2.42316V390.72681h82.06008V425.5354a2.42317,2.42317,0,0,1-2.42316,2.42316h-6.15481" fill="#d6694b"/><rect x="123.5689" y="357.33827" width="74.92348" height="29.55943" rx="2.42315" fill="#e19974"/><ellipse cx="161.03064" cy="372.11799" rx="4.12577" ry="4.08451" fill="#935b50"/><rect x="123.5689" y="394.56608" width="74.92348" height="29.55943" rx="2.42315" fill="#e19974"/><ellipse cx="161.03064" cy="409.34579" rx="4.12577" ry="4.08451" fill="#935b50"/><rect x="100" y="442.62402" width="500" height="2" fill="#935b50"/><path d="M109.05443,216.91524h5.27483a0,0,0,0,1,0,0v17.54825a1.26293,1.26293,0,0,1-1.26293,1.26293h-2.749a1.26293,1.26293,0,0,1-1.26293-1.26293V216.91524A0,0,0,0,1,109.05443,216.91524Z" fill="#935b50"/><path d="M197.16673,216.91524h5.27483a0,0,0,0,1,0,0v17.54825a1.26293,1.26293,0,0,1-1.26293,1.26293h-2.749a1.26293,1.26293,0,0,1-1.26293-1.26293V216.91524A0,0,0,0,1,197.16673,216.91524Z" fill="#935b50"/><path d="M216.374,218.75977H99.569c-.65315,0-1.18272-.82576-1.18272-1.84424s.52957-1.84423,1.18272-1.84423H216.374c.65315,0,1.18272.82576,1.18272,1.84423S217.02716,218.75977,216.374,218.75977Z" fill="#d6694b"/><rect x="121.98389" y="212.12939" width="5.96094" height="0.71973" fill="#fff"/><rect x="121.98389" y="209.25" width="5.96094" height="0.71973" fill="#fff"/><rect x="121.98389" y="183.33301" width="5.96094" height="0.71973" fill="#fff"/><rect x="121.98389" y="180.45313" width="5.96094" height="0.71973" fill="#fff"/><path d="M137.97905,192.97H175.265a0,0,0,0,1,0,0v5.86273a0,0,0,0,1,0,0H137.97905a.60938.60938,0,0,1-.60938-.60938v-4.644A.60938.60938,0,0,1,137.97905,192.97Z" transform="translate(371.53099 67.46642) rotate(97.75988)" fill="#7ca1b1"/><rect x="158.13176" y="177.05812" width="0.70767" height="5.86276" transform="translate(-41.25249 312.72458) rotate(-82.24107)" fill="#fff"/><rect x="157.74943" y="179.86449" width="0.70767" height="5.86282" transform="translate(-44.37479 314.75657) rotate(-82.23634)" fill="#fff"/><rect x="154.30754" y="205.12111" width="0.70767" height="5.86276" transform="translate(-72.36649 333.20971) rotate(-82.24107)" fill="#fff"/><rect x="153.92522" y="207.92775" width="0.70767" height="5.86276" transform="translate(-75.47814 335.25861) rotate(-82.24107)" fill="#fff"/><path d="M142.96335,177.78536l0,37.28594H137.1006l0-37.286a.60938.60938,0,0,1,.60938-.60938h4.644A.60937.60937,0,0,1,142.96335,177.78536Z" fill="#f65b2b"/><rect x="137.10059" y="211.82861" width="5.86279" height="0.70801" fill="#fff"/><rect x="137.10059" y="208.99609" width="5.86279" height="0.70801" fill="#fff"/><rect x="137.10059" y="183.50586" width="5.86279" height="0.70801" fill="#fff"/><rect x="137.10059" y="180.67383" width="5.86279" height="0.70801" fill="#fff"/><path d="M142.95626,215.0713V179.4847a.60938.60938,0,0,1,.60938-.60938h6.68318a.60938.60938,0,0,1,.60938.60938v35.5866Z" fill="#ffba55"/><rect x="142.95605" y="210.61768" width="7.90234" height="0.70801" fill="#fff"/><rect x="138.453" y="186.81974" width="16.90845" height="5.09803" transform="translate(336.27599 42.46153) rotate(90)" fill="#fff"/><path d="M123.34673,177.78536l0,37.28594h5.86273l0-37.286a.60938.60938,0,0,0-.60938-.60938h-4.644A.60937.60937,0,0,0,123.34673,177.78536Z" fill="#ffba55"/><rect x="123.34668" y="211.82861" width="5.86279" height="0.70801" fill="#fff"/><rect x="123.34668" y="208.99609" width="5.86279" height="0.70801" fill="#fff"/><rect x="123.34668" y="183.50586" width="5.86279" height="0.70801" fill="#fff"/><rect x="123.34668" y="180.67383" width="5.86279" height="0.70801" fill="#fff"/><path d="M123.35382,215.0713V179.4847a.60938.60938,0,0,0-.60938-.60938h-6.68318a.60938.60938,0,0,0-.60938.60938v35.5866Z" fill="#f65b2b"/><rect x="115.45166" y="210.61768" width="7.90234" height="0.70801" fill="#fff"/><rect x="110.94862" y="186.81974" width="16.90845" height="5.09803" transform="translate(308.77161 69.96591) rotate(90)" fill="#fff"/><path d="M115.66643,193.02234H151.253a0,0,0,0,1,0,0v7.90194a0,0,0,0,1,0,0h-35.5866a.60938.60938,0,0,1-.60938-.60938v-6.68318A.60938.60938,0,0,1,115.66643,193.02234Z" transform="translate(330.12835 63.81827) rotate(90)" fill="#7ca1b1"/><rect x="129.2041" y="210.61768" width="7.90186" height="0.70801" fill="#fff"/><rect x="124.70081" y="186.81974" width="16.90845" height="5.09803" transform="translate(322.5238 56.21372) rotate(90)" fill="#fff"/><rect x="158.81323" y="181.44264" width="47.49317" height="1.41501" transform="translate(-56.57571 278.69527) rotate(-66.92083)" fill="#935b50"/><circle cx="180.51875" cy="182.01552" r="19.1286" fill="#c0d6f2"/><path d="M164.78435,171.14145a19.11505,19.11505,0,0,0-2.95374,14.95369c.01209.00691.0235.01567.03576.02223a2.2251,2.2251,0,0,0,2.2009,0,5.7519,5.7519,0,0,0,.683-1.51784c.27529-.71979.33317-.9546.60714-1.13837.34872-.234.64164-.113.8348-.37948.17353-.23941.00686-.43327.07591-.83486a2.29266,2.29266,0,0,1,.98661-1.29013c.65212-.52513.98812-.46989,1.10474-.8276.07314-.22444-.00887-.40033-.34578-1.14563a11.71218,11.71218,0,0,1-.68305-1.59375,3.345,3.345,0,0,1,.37942-1.89733,29.55959,29.55959,0,0,0,.683-3.1116c.76839-2.916,2.102-4.03832,1.82141-4.32588C169.86884,167.70059,167.2212,168.76755,164.78435,171.14145Z" fill="#a6b862"/><path d="M196.90524,172.144c-1.32169-1.36016-2.583-2.11456-2.93623-1.88817-.15383.0986-.0531.3303-.30351.91071-.2397.55537-.82352,1.48232-1.51791,1.51785-.31111.016-.45486-.15677-1.44194-.98661-1.47-1.23582-1.72259-1.33315-1.97323-1.29019-.64135.11-1.15162,1.11821-.91071,1.51791.23636.39208,1.08879.02107,1.36609.45532a1.10606,1.10606,0,0,1-.45538,1.29019,1.76758,1.76758,0,0,1-1.59375-.07591,3.02392,3.02392,0,0,1-1.59376-1.21428c-.40574-.6694-.2826-1.19429-.60714-1.29018-.294-.08685-.71.251-.91071.60714-.34641.615.07487,1.06223-.22766,1.5179-.38967.58687-1.3696.26838-1.51785.683-.13747.38431.57449,1.02128,1.13837,1.36609.69825.42688.93565.26279,1.82142.60714,1.325.51505,1.23605,1.05406,2.42856,1.44194,1.03585.33692,1.381.02073,1.82147.45538.36174.357.41824.921.53123,2.04908.08979.8962-.01393,1.11038-.0759,1.21428a1.442,1.442,0,0,1-1.51785.60714c-.30259-.08028-.50532-.28117-.91071-.683-.46471-.46068-.46517-.63662-.75889-.75895-.452-.18815-.66612.13874-1.06253,0-.52725-.18458-.7377-.96922-.98661-1.89732-.25122-.9368-.19679-1.32918-.53123-1.51785-.27345-.15429-.44312.03283-1.06253,0a4.76738,4.76738,0,0,1-1.366-.37948,11.943,11.943,0,0,0-1.66966-.45532,4.9939,4.9939,0,0,0-2.42861.30357,5.37265,5.37265,0,0,0-2.58032,1.51784,3.85487,3.85487,0,0,0-1.13843,2.88394,3.51388,3.51388,0,0,0,1.13843,2.20084c.87881.76776,1.46763.41075,2.2768,1.13843a3.65141,3.65141,0,0,1,1.06247,2.42855c.02154.39422-.0148.94055-1.21428,3.41518-.93311,1.92514-1.1773,2.14358-1.29018,2.95984-.12625.91278-.07966,2.51109.75895,2.95979.46437.24845.69116-.11265,2.50446-.30357a10.90424,10.90424,0,0,1,2.04908-.07585c1.029.07038,1.15358.2507,1.74557.15176a3.6915,3.6915,0,0,0,1.74551-.91071c.75175-.61342.67982-.89032,1.442-1.51785a7.31063,7.31063,0,0,1,1.51779-.91071c1.10894-.5617,1.40508-.53578,2.3527-1.06252.8268-.45953,1.46487-.82392,1.44195-1.29018a1.02421,1.02421,0,0,0-.683-.7589c-.56953-.221-.88134.20612-1.36609,0a1.37506,1.37506,0,0,1-.68305-1.36609c.04227-.43235.30737-.98374.60714-.98662.37971-.00362.35966.87737,1.06252,1.29019a2.02062,2.02062,0,0,0,1.97323-.15176c.51643-.31843,1.11931-1.0002.98656-1.59375-.10125-.45291-.55139-.4999-.68305-1.06252-.08667-.37061-.01589-.88272.22772-.98662.458-.19535,1.41764,1.09875,1.89733,1.74557a5.26943,5.26943,0,0,1,1.29018,2.35265c.13039.92286-.1995,1.53754.22767,1.97323a1.167,1.167,0,0,0,.9107.30357,1.23174,1.23174,0,0,0,.45435-.14145,19.13938,19.13938,0,0,0-.78153-18.30966Z" fill="#a6b862"/><path d="M181.40625,206.74951a24.93216,24.93216,0,0,1-9.64355-1.94287,1.29721,1.29721,0,1,1,1.001-2.39355,22.48143,22.48143,0,0,0,17.35254-41.4795,1.29721,1.29721,0,1,1,1.001-2.39355,25.07608,25.07608,0,0,1-9.71094,48.20947Z" fill="#935b50"/><path d="M198.19226,211.74807H183.11365v-5.81822a1.65123,1.65123,0,0,0-1.65129-1.65129c-.912,0-4.01028.73926-4.01028,1.65129v5.81822H164.73246a1.65129,1.65129,0,1,0,0,3.30257h33.4598a1.65129,1.65129,0,1,0,0-3.30257Z" fill="#935b50"/><path d="M364.91211,134.89551a8.26075,8.26075,0,0,1-1.50293-.126,4.1902,4.1902,0,0,1-1.16113-.37793,2.12118,2.12118,0,0,1-.75586-.62109,1.41188,1.41188,0,0,1-.26953-.855,1.27171,1.27171,0,0,1,.28711-.84619,2.30543,2.30543,0,0,1,.64843-.54,6.53774,6.53774,0,0,0,1.08008.65722,3.33843,3.33843,0,0,0,1.458.27881,1.61492,1.61492,0,0,0,1.20605-.37793,1.28069,1.28069,0,0,0,.35938-.918,1.2294,1.2294,0,0,0-.31445-.86377,1.43726,1.43726,0,0,0-1.08985-.34228,2.59,2.59,0,0,0-.80859.10791,6.507,6.507,0,0,0-.73828.30615,2.21441,2.21441,0,0,1-1.39551-.47705,1.69636,1.69636,0,0,1-.5127-1.35889v-.13525q0-.08056.01758-.333l.2168-2.73584a1.89051,1.89051,0,0,1,.48535-1.22412,1.59435,1.59435,0,0,1,1.20606-.44971h5.18359a3.25856,3.25856,0,0,1,.2168.522,2.1399,2.1399,0,0,1,.10742.68408,1.29088,1.29088,0,0,1-.30567.97168,1.08334,1.08334,0,0,1-.77441.28808h-3.45508l-.12695,1.6919c.22851-.05957.459-.11377.69336-.16211a4.61163,4.61163,0,0,1,.89062-.07178,4.28627,4.28627,0,0,1,1.62012.27881,2.95673,2.95673,0,0,1,1.77246,1.89942,4.50682,4.50682,0,0,1,.207,1.38574,4.07834,4.07834,0,0,1-.25195,1.42187,3.124,3.124,0,0,1-.791,1.19727,3.92893,3.92893,0,0,1-1.377.81885A5.92224,5.92224,0,0,1,364.91211,134.89551Z" fill="#ffba55"/><path d="M378.57422,124.99561a1.64409,1.64409,0,0,1-.17188.729,1.44677,1.44677,0,0,1-.40429.53076,5.339,5.339,0,0,0-1.01758-.333,4.59718,4.59718,0,0,0-.98047-.1167,2.2937,2.2937,0,0,0-1.665.5669,2.95474,2.95474,0,0,0-.7832,1.6289,3.93663,3.93663,0,0,1,.9541-.459,3.70326,3.70326,0,0,1,1.22461-.207,3.35353,3.35353,0,0,1,3.61719,3.68994,4.08345,4.08345,0,0,1-.26953,1.47607,3.43972,3.43972,0,0,1-.81055,1.23292,3.93161,3.93161,0,0,1-1.34082.84619,5.08215,5.08215,0,0,1-1.86231.31494,4.16245,4.16245,0,0,1-3.33984-1.42188,6.06,6.06,0,0,1-1.21484-4.05029,8.49707,8.49707,0,0,1,.36914-2.62793,5.21963,5.21963,0,0,1,1.04394-1.89014,4.28928,4.28928,0,0,1,1.61035-1.13379,5.48684,5.48684,0,0,1,2.07032-.37793,4.9032,4.9032,0,0,1,2.20507.396A1.28442,1.28442,0,0,1,378.57422,124.99561Zm-3.52832,4.67968a2.10519,2.10519,0,0,0-.72949.14405,1.589,1.589,0,0,0-.6211.396v.4502a1.93881,1.93881,0,0,0,.40625,1.38574,1.31718,1.31718,0,0,0,.98047.41406,1.04007,1.04007,0,0,0,.89063-.396,1.66272,1.66272,0,0,0,.29687-1.02588,1.49346,1.49346,0,0,0-.31445-.999A1.13286,1.13286,0,0,0,375.0459,129.67529Z" fill="#ffba55"/><path d="M387.48438,123.66357a2.00078,2.00078,0,0,1,.54882.54883,1.49591,1.49591,0,0,1,.24219.873,3.25146,3.25146,0,0,1-.05371.585,2.68263,2.68263,0,0,1-.17969.585l-3.74414,8.478c-.16894.01172-.32715.01806-.47754.01806h-.42187a2.50391,2.50391,0,0,1-1.31446-.30615,1.14063,1.14063,0,0,1-.5039-1.062,2.17536,2.17536,0,0,1,.17969-.81885q.17871-.44091.48632-1.05322l2.62793-5.38184h-4.41015a3.28368,3.28368,0,0,1-.21582-.522,2.1401,2.1401,0,0,1-.1084-.68408,1.29489,1.29489,0,0,1,.30566-.97168,1.08872,1.08872,0,0,1,.77442-.28809Z" fill="#ffba55"/><path d="M394.50391,133.70752a1.80672,1.80672,0,0,1-.53125.1167,6.40583,6.40583,0,0,1-.7461.04541,2.08471,2.08471,0,0,1-1.11718-.24317q-.37794-.24315-.377-1.03515v-1.98h-2.71875a1.79718,1.79718,0,0,1-.207-.522,2.67536,2.67536,0,0,1-.08008-.648,1.321,1.321,0,0,1,.28711-.94483,1.0289,1.0289,0,0,1,.77442-.29736h1.94433v-3.02393a5.05741,5.05741,0,0,1,.54883-.1167,4.31984,4.31984,0,0,1,.72852-.063,2.02952,2.02952,0,0,1,1.10742.25195,1.19087,1.19087,0,0,1,.38672,1.062v1.88965H397.168c.06055.144.123.32129.18945.53125a2.19639,2.19639,0,0,1,.09863.65674,1.29329,1.29329,0,0,1-.28808.92724,1.00428,1.00428,0,0,1-.75586.29688h-1.9082Z" fill="#ffba55"/><path d="M405.33984,123.66357a1.98743,1.98743,0,0,1,.54883.54883,1.4966,1.4966,0,0,1,.24414.873,3.25382,3.25382,0,0,1-.05468.585,2.63123,2.63123,0,0,1-.17969.585l-3.74414,8.478c-.168.01172-.32715.01806-.47657.01806h-.42382a2.50255,2.50255,0,0,1-1.31348-.30615,1.13925,1.13925,0,0,1-.50488-1.062,2.1779,2.1779,0,0,1,.18066-.81885q.18018-.44091.48535-1.05322l2.62891-5.38184h-4.41016a3.2765,3.2765,0,0,1-.21679-.522,2.16721,2.16721,0,0,1-.10743-.68408,1.287,1.287,0,0,1,.30664-.97168,1.08149,1.08149,0,0,1,.77344-.28809Z" fill="#ffba55"/><path d="M415.05957,124.99561a1.65633,1.65633,0,0,1-.1709.729,1.468,1.468,0,0,1-.40429.53076,5.339,5.339,0,0,0-1.01758-.333,4.60428,4.60428,0,0,0-.98047-.1167,2.29776,2.29776,0,0,0-1.666.5669,2.9613,2.9613,0,0,0-.7832,1.6289,3.94514,3.94514,0,0,1,.95508-.459,3.69332,3.69332,0,0,1,1.22363-.207,3.35484,3.35484,0,0,1,3.61816,3.68994,4.08323,4.08323,0,0,1-.26953,1.47607,3.46554,3.46554,0,0,1-.81054,1.23292,3.93609,3.93609,0,0,1-1.3418.84619,5.07482,5.07482,0,0,1-1.86231.31494,4.15908,4.15908,0,0,1-3.33886-1.42188,6.05481,6.05481,0,0,1-1.21485-4.05029,8.49737,8.49737,0,0,1,.36914-2.62793,5.21818,5.21818,0,0,1,1.043-1.89014,4.29271,4.29271,0,0,1,1.61133-1.13379,5.48319,5.48319,0,0,1,2.07031-.37793,4.90606,4.90606,0,0,1,2.20508.396A1.28352,1.28352,0,0,1,415.05957,124.99561Zm-3.52832,4.67968a2.10016,2.10016,0,0,0-.72852.14405,1.589,1.589,0,0,0-.62109.396v.4502a1.939,1.939,0,0,0,.40527,1.38574,1.32084,1.32084,0,0,0,.98145.41406,1.04245,1.04245,0,0,0,.89062-.396,1.669,1.669,0,0,0,.29688-1.02588,1.49346,1.49346,0,0,0-.31445-.999A1.13362,1.13362,0,0,0,411.53125,129.67529Z" fill="#ffba55"/><path d="M420.0459,132.4834a2.73593,2.73593,0,0,0,1.84473-.59375,2.04038,2.04038,0,0,0,.69335-1.63819,3.11962,3.11962,0,0,1-.72851.37793,3.647,3.647,0,0,1-1.35938.21582,4.55749,4.55749,0,0,1-1.50293-.23388,3.18175,3.18175,0,0,1-1.16113-.69287,3.148,3.148,0,0,1-.75586-1.125,4.1053,4.1053,0,0,1-.26953-1.54785,4.01367,4.01367,0,0,1,.26953-1.46729,3.45906,3.45906,0,0,1,.80957-1.22412,3.95688,3.95688,0,0,1,1.34082-.8457,5.07366,5.07366,0,0,1,1.86328-.31495,4.16249,4.16249,0,0,1,3.33985,1.42188,6.06477,6.06477,0,0,1,1.21484,4.0498,8.314,8.314,0,0,1-.3789,2.62842,5.31877,5.31877,0,0,1-1.05274,1.88965,4.27827,4.27827,0,0,1-1.61133,1.13428,5.476,5.476,0,0,1-2.07031.37793,5.22677,5.22677,0,0,1-2.25-.396,1.27964,1.27964,0,0,1-.80859-1.206,1.65366,1.65366,0,0,1,.16992-.729,1.47606,1.47606,0,0,1,.40527-.53125,5.29469,5.29469,0,0,0,1.0166.333A4.553,4.553,0,0,0,420.0459,132.4834Zm1.15137-3.9419a1.81393,1.81393,0,0,0,.69336-.144,1.62723,1.62723,0,0,0,.58593-.396v-.21582a2.65614,2.65614,0,0,0-.36035-1.49414,1.33219,1.33219,0,0,0-1.93457-.09912,1.43309,1.43309,0,0,0-.334.999,1.30831,1.30831,0,0,0,.3789.98095A1.33053,1.33053,0,0,0,421.19727,128.5415Z" fill="#ffba55"/><path d="M430.08984,132.4834a2.74209,2.74209,0,0,0,1.84571-.59375,2.04578,2.04578,0,0,0,.69238-1.63819,3.0901,3.0901,0,0,1-.72949.37793,3.638,3.638,0,0,1-1.3584.21582,4.55745,4.55745,0,0,1-1.50293-.23388,3.0934,3.0934,0,0,1-1.917-1.81787,4.0857,4.0857,0,0,1-.27051-1.54785,3.99407,3.99407,0,0,1,.27051-1.46729,3.472,3.472,0,0,1,.80957-1.22412,3.94235,3.94235,0,0,1,1.34179-.8457,5.06467,5.06467,0,0,1,1.86231-.31495,4.15913,4.15913,0,0,1,3.33887,1.42188,6.05434,6.05434,0,0,1,1.21484,4.0498,8.31646,8.31646,0,0,1-.377,2.62842,5.32039,5.32039,0,0,1-1.05371,1.88965,4.29024,4.29024,0,0,1-1.61036,1.13428,5.48679,5.48679,0,0,1-2.07031.37793,5.21479,5.21479,0,0,1-2.25-.396,1.28006,1.28006,0,0,1-.81054-1.206,1.62956,1.62956,0,0,1,.17187-.729,1.45308,1.45308,0,0,1,.4043-.53125,5.2816,5.2816,0,0,0,1.01758.333A4.53743,4.53743,0,0,0,430.08984,132.4834Zm1.15235-3.9419a1.81761,1.81761,0,0,0,.69336-.144,1.62775,1.62775,0,0,0,.584-.396v-.21582a2.64894,2.64894,0,0,0-.35937-1.49414,1.17046,1.17046,0,0,0-1.00782-.46826,1.1882,1.1882,0,0,0-.92773.36914,1.43687,1.43687,0,0,0-.332.999,1.307,1.307,0,0,0,.37695.98095A1.33356,1.33356,0,0,0,431.24219,128.5415Z" fill="#ffba55"/><path d="M437.18164,128.70361a1.80839,1.80839,0,0,1-.207-.522,2.6793,2.6793,0,0,1-.08008-.64844,1.32252,1.32252,0,0,1,.28711-.94482,1.029,1.029,0,0,1,.77441-.29688h6.29981c.06055.14405.12305.32129.18945.53077a2.1995,2.1995,0,0,1,.09864.65722,1.292,1.292,0,0,1-.28809.92676,1.00283,1.00283,0,0,1-.75586.29736Zm0,3.582a1.80624,1.80624,0,0,1-.207-.52246,2.67239,2.67239,0,0,1-.08008-.648,1.32252,1.32252,0,0,1,.28711-.94482,1.02894,1.02894,0,0,1,.77441-.29687h6.29981c.06055.144.12305.32128.18945.53076a2.19959,2.19959,0,0,1,.09864.65722,1.292,1.292,0,0,1-.28809.92676,1.00283,1.00283,0,0,1-.75586.29736Z" fill="#ffba55"/><path d="M364.75,144.99365a5.81552,5.81552,0,0,1,1.81836.26074,4.25764,4.25764,0,0,1,1.34961.71094,2.98853,2.98853,0,0,1,.8457,1.062,3.04388,3.04388,0,0,1,.28906,1.314,4.73059,4.73059,0,0,1-2.14257,3.6001l-2.35743,1.89013h4.31934a2.94447,2.94447,0,0,1,.207.50391,2.17162,2.17162,0,0,1,.09863.666,1.255,1.255,0,0,1-.2871.92725,1.04293,1.04293,0,0,1-.75586.27881h-6.2461a1.90775,1.90775,0,0,1-.62109-.69287,2.09241,2.09241,0,0,1-.22559-.999,1.99137,1.99137,0,0,1,.252-1.03516,2.576,2.576,0,0,1,.55761-.67481l2.48438-2.124q.46875-.39624.77441-.71094a6.09349,6.09349,0,0,0,.49512-.56738,1.93823,1.93823,0,0,0,.26953-.46777,1.162,1.162,0,0,0,.08105-.41407.9006.9006,0,0,0-.44042-.792,1.95713,1.95713,0,0,0-1.08985-.28808,3.47073,3.47073,0,0,0-1.28711.22509,5.16454,5.16454,0,0,0-.94433.477,1.821,1.821,0,0,1-.50489-.54,1.42961,1.42961,0,0,1-.19726-.75586,1.48568,1.48568,0,0,1,.88183-1.395A5.17783,5.17783,0,0,1,364.75,144.99365Z" fill="#ffba55"/><path d="M373.624,154.0835a2.7359,2.7359,0,0,0,1.84473-.59375,2.04039,2.04039,0,0,0,.69336-1.63819,3.11992,3.11992,0,0,1-.72852.37793,3.64693,3.64693,0,0,1-1.35937.21582,4.55741,4.55741,0,0,1-1.50293-.23388,3.18168,3.18168,0,0,1-1.16113-.69288,3.14769,3.14769,0,0,1-.75586-1.125,4.10527,4.10527,0,0,1-.26953-1.54785,4.01366,4.01366,0,0,1,.26953-1.46728,3.45883,3.45883,0,0,1,.80957-1.22412,3.9568,3.9568,0,0,1,1.34082-.84571,5.07363,5.07363,0,0,1,1.86328-.31494,4.16244,4.16244,0,0,1,3.33984,1.42188,6.06472,6.06472,0,0,1,1.21485,4.0498,8.314,8.314,0,0,1-.37891,2.62842,5.31876,5.31876,0,0,1-1.05273,1.88965,4.27857,4.27857,0,0,1-1.61133,1.13428,5.47607,5.47607,0,0,1-2.07031.37793,5.2267,5.2267,0,0,1-2.25-.396,1.27965,1.27965,0,0,1-.8086-1.20606,1.65365,1.65365,0,0,1,.16992-.729,1.47588,1.47588,0,0,1,.40528-.53125,5.29516,5.29516,0,0,0,1.0166.333A4.55293,4.55293,0,0,0,373.624,154.0835Zm1.15137-3.9419a1.81385,1.81385,0,0,0,.69336-.144,1.62719,1.62719,0,0,0,.58594-.396v-.21582a2.6562,2.6562,0,0,0-.36035-1.49414,1.33219,1.33219,0,0,0-1.93457-.09912,1.43307,1.43307,0,0,0-.334.999,1.30828,1.30828,0,0,0,.37891.981A1.33053,1.33053,0,0,0,374.77539,150.1416Z" fill="#ffba55"/><path d="M380.752,148.21533a2.815,2.815,0,0,1,.30664-1.314,3.13715,3.13715,0,0,1,.84571-1.02588,3.88964,3.88964,0,0,1,1.2959-.666,5.583,5.583,0,0,1,1.65527-.23388,6.00856,6.00856,0,0,1,1.65625.21582,4.06011,4.06011,0,0,1,1.29687.6123,2.86942,2.86942,0,0,1,.84571.97168,2.73092,2.73092,0,0,1,.30566,1.2959,2.74346,2.74346,0,0,1-1.22363,2.37646,4.17025,4.17025,0,0,1,1.11523,1.10694,3.01661,3.01661,0,0,1,.43262,1.71875,2.83687,2.83687,0,0,1-.30566,1.314,2.98878,2.98878,0,0,1-.88282,1.02588,4.24284,4.24284,0,0,1-1.38574.666,7.16726,7.16726,0,0,1-3.63574,0,4.1387,4.1387,0,0,1-1.377-.666,3.11989,3.11989,0,0,1-.88282-1.02588,2.772,2.772,0,0,1-.31445-1.314,2.90392,2.90392,0,0,1,.42285-1.62012,3.27972,3.27972,0,0,1,.999-1.00781,3.79619,3.79619,0,0,1-.82813-.94483A2.78621,2.78621,0,0,1,380.752,148.21533Zm2.82618,4.78809a1.11432,1.11432,0,0,0,.36914.88232,1.38,1.38,0,0,0,.94531.32373,1.35644,1.35644,0,0,0,.94433-.333,1.11973,1.11973,0,0,0,.36914-.873,1.25614,1.25614,0,0,0-.31542-.87305,2.08123,2.08123,0,0,0-.8545-.54883,2.12365,2.12365,0,0,0-1.125.54883A1.2618,1.2618,0,0,0,383.57813,153.00342Zm2.376-4.67969a1.04959,1.04959,0,0,0-.28808-.77441,1.28462,1.28462,0,0,0-1.62012,0,1.02219,1.02219,0,0,0-.28809.75634,1.00758,1.00758,0,0,0,.29688.75586,2.43409,2.43409,0,0,0,.69336.46778,1.69944,1.69944,0,0,0,.918-.46778A1.08219,1.08219,0,0,0,385.9541,148.32373Z" fill="#ffba55"/><path d="M396.25,155.30762a1.81488,1.81488,0,0,1-.53125.1167,6.42194,6.42194,0,0,1-.74707.04541,2.08091,2.08091,0,0,1-1.11621-.24317,1.155,1.155,0,0,1-.37793-1.03515v-1.98h-2.71777a1.77,1.77,0,0,1-.207-.522,2.62969,2.62969,0,0,1-.08105-.64795,1.31648,1.31648,0,0,1,.28809-.94482,1.02513,1.02513,0,0,1,.77343-.29736h1.94434v-3.02393a5.13791,5.13791,0,0,1,.5498-.1167,4.31135,4.31135,0,0,1,.72852-.063,2.034,2.034,0,0,1,1.10742.252,1.19087,1.19087,0,0,1,.38672,1.062v1.88965h2.66406c.05957.144.123.32129.18848.53125a2.19637,2.19637,0,0,1,.09863.65673,1.29324,1.29324,0,0,1-.28711.92725,1.00729,1.00729,0,0,1-.75586.29688H396.25Z" fill="#ffba55"/><path d="M400.6416,148.21533a2.83819,2.83819,0,0,1,.30567-1.314,3.16151,3.16151,0,0,1,.8457-1.02588,3.91376,3.91376,0,0,1,1.29687-.666,5.58511,5.58511,0,0,1,1.65625-.23388,6.01853,6.01853,0,0,1,1.65625.21582,4.03935,4.03935,0,0,1,1.29493.6123,2.83816,2.83816,0,0,1,.8457.97168,2.70868,2.70868,0,0,1,.30664,1.2959,2.74722,2.74722,0,0,1-1.22461,2.37646,4.17828,4.17828,0,0,1,1.11719,1.10694,3.03226,3.03226,0,0,1,.43164,1.71875,2.81346,2.81346,0,0,1-.30664,1.314,2.98279,2.98279,0,0,1-.88086,1.02588,4.25784,4.25784,0,0,1-1.38672.666,7.16726,7.16726,0,0,1-3.63574,0,4.13875,4.13875,0,0,1-1.377-.666,3.10532,3.10532,0,0,1-.88183-1.02588,2.74984,2.74984,0,0,1-.31543-1.314,2.91187,2.91187,0,0,1,.42285-1.62012,3.27969,3.27969,0,0,1,.999-1.00781,3.77286,3.77286,0,0,1-.82714-.94483A2.78585,2.78585,0,0,1,400.6416,148.21533Zm2.82617,4.78809a1.11436,1.11436,0,0,0,.36914.88232,1.37752,1.37752,0,0,0,.94434.32373,1.35558,1.35558,0,0,0,.94531-.333,1.11973,1.11973,0,0,0,.36914-.873,1.26451,1.26451,0,0,0-.31445-.87305,1.15905,1.15905,0,0,0-1.98047,0A1.25739,1.25739,0,0,0,403.46777,153.00342Zm2.376-4.67969a1.04567,1.04567,0,0,0-.28809-.77441,1.2846,1.2846,0,0,0-1.62011,0,1.026,1.026,0,0,0-.28809.75634,1.001,1.001,0,0,0,.29785.75586,2.40238,2.40238,0,0,0,.69239.46778,1.703,1.703,0,0,0,.918-.46778A1.07758,1.07758,0,0,0,405.84375,148.32373Z" fill="#ffba55"/><path d="M417.25586,145.26367a2.00067,2.00067,0,0,1,.54883.54883,1.49625,1.49625,0,0,1,.24316.87305,3.34228,3.34228,0,0,1-.05371.585,2.73741,2.73741,0,0,1-.17969.585l-3.74414,8.478c-.16894.01171-.32812.01806-.47754.01806h-.42285a2.50627,2.50627,0,0,1-1.31445-.30615,1.14063,1.14063,0,0,1-.50391-1.062,2.19444,2.19444,0,0,1,.17969-.81885q.18018-.44091.48633-1.05322l2.6289-5.38184h-4.41015a3.27642,3.27642,0,0,1-.2168-.522,2.13994,2.13994,0,0,1-.10742-.68408,1.29089,1.29089,0,0,1,.30566-.97168,1.08545,1.08545,0,0,1,.77442-.28809Z" fill="#ffba55"/><path d="M422.92578,145.38965a5.62463,5.62463,0,0,1,.7832-.18018,5.0203,5.0203,0,0,1,.80079-.07177,3.88722,3.88722,0,0,1,.80078.08105,2.13984,2.13984,0,0,1,.69336.26953,1.39959,1.39959,0,0,1,.48632.51318,1.65955,1.65955,0,0,1,.17969.81006v4.78809h1.60156a3.295,3.295,0,0,1,.2168.522,2.13966,2.13966,0,0,1,.10742.68408,1.29014,1.29014,0,0,1-.30566.97168,1.08331,1.08331,0,0,1-.77441.28809h-.84571v2.124c-.13281.02393-.33008.05664-.59375.09912a4.82825,4.82825,0,0,1-.75586.063,6.11114,6.11114,0,0,1-.70312-.03613,1.17287,1.17287,0,0,1-.51172-.1709.83447.83447,0,0,1-.31543-.38721,1.76391,1.76391,0,0,1-.1084-.68359v-1.0083h-4.51758a1.9882,1.9882,0,0,1-.71093-.63867,1.75456,1.75456,0,0,1-.29688-1.03516,3.54569,3.54569,0,0,1,.08984-.75586,1.95105,1.95105,0,0,1,.30567-.72021Zm.918,2.82568H423.79l-2.39356,3.38428h2.44727Z" fill="#ffba55"/><path d="M432.95117,144.99365a4.993,4.993,0,0,1,3.15039.855,2.77645,2.77645,0,0,1,1.08008,2.29492,2.352,2.352,0,0,1-.459,1.4668,3.02779,3.02779,0,0,1-1.08985.90918,3.55871,3.55871,0,0,1,.70313.35986,2.47369,2.47369,0,0,1,.57519.54,2.51532,2.51532,0,0,1,.39551.75586,3.17418,3.17418,0,0,1,.14453,1.0083,2.85389,2.85389,0,0,1-.333,1.38575,3.12055,3.12055,0,0,1-.92675,1.04394,4.32873,4.32873,0,0,1-1.41309.65723,6.75217,6.75217,0,0,1-1.791.2251,6.04477,6.04477,0,0,1-2.82617-.522,1.52992,1.52992,0,0,1-.9541-1.332,1.47093,1.47093,0,0,1,.23438-.83691,1.73,1.73,0,0,1,.57617-.54932,6.35082,6.35082,0,0,0,.96289.53125,3.77777,3.77777,0,0,0,1.57422.27881,2.3029,2.3029,0,0,0,1.35937-.32373,1.00425,1.00425,0,0,0,.44141-.84619.93792.93792,0,0,0-.35156-.792,2.04739,2.04739,0,0,0-1.21485-.27h-1.6914a2.05686,2.05686,0,0,1-.2168-.48584,2.31929,2.31929,0,0,1-.08984-.68409,2.69455,2.69455,0,0,1,.082-.71093,1.4727,1.4727,0,0,1,.22461-.49512h1.6914q1.29639,0,1.29688-.99023a.8843.8843,0,0,0-.41406-.75586,2.19,2.19,0,0,0-1.24219-.28809,4.43472,4.43472,0,0,0-1.29688.17139,3.27779,3.27779,0,0,0-.918.42285,1.866,1.866,0,0,1-.5039-.53125,1.37378,1.37378,0,0,1-.19727-.74658,1.39087,1.39087,0,0,1,.93555-1.32325A6.1654,6.1654,0,0,1,432.95117,144.99365Z" fill="#ffba55"/><path d="M438.94531,150.30371a1.80839,1.80839,0,0,1-.207-.522,2.6793,2.6793,0,0,1-.08008-.64844,1.32257,1.32257,0,0,1,.28711-.94482,1.02892,1.02892,0,0,1,.77442-.29688h6.2998c.06055.144.12305.32129.18945.53076a2.23045,2.23045,0,0,1,.09766.65723,1.29193,1.29193,0,0,1-.28711.92676,1.00282,1.00282,0,0,1-.75586.29736Zm0,3.582a1.80624,1.80624,0,0,1-.207-.52246,2.67239,2.67239,0,0,1-.08008-.648,1.32257,1.32257,0,0,1,.28711-.94482,1.02892,1.02892,0,0,1,.77442-.29688h6.2998c.06055.144.12305.32129.18945.53076a2.23045,2.23045,0,0,1,.09766.65723,1.29192,1.29192,0,0,1-.28711.92676,1.00282,1.00282,0,0,1-.75586.29736Z" fill="#ffba55"/><path d="M254.686,94.71533a4.4825,4.4825,0,0,1,.2998-1.71728,3.27379,3.27379,0,0,1,.833-1.20752,3.41115,3.41115,0,0,1,1.24511-.71289,4.93117,4.93117,0,0,1,1.53711-.23243,3.2022,3.2022,0,0,1,.585.05274,2.35052,2.35052,0,0,1,.46484.12744V88.59521a4.17959,4.17959,0,0,1,.48047-.09716,4.26132,4.26132,0,0,1,.6748-.05274,3.56454,3.56454,0,0,1,.59278.04492,1.01585,1.01585,0,0,1,.44238.18018.80736.80736,0,0,1,.26953.36768,1.6957,1.6957,0,0,1,.09082.60742v7.10986a1.281,1.281,0,0,1-.66016,1.125,4.57655,4.57655,0,0,1-1.125.50244,5.84906,5.84906,0,0,1-3.33789-.05224,3.54563,3.54563,0,0,1-1.30468-.78028,3.35556,3.35556,0,0,1-.81055-1.22265A4.42148,4.42148,0,0,1,254.686,94.71533Zm4.25976-1.875a1.61979,1.61979,0,0,0-1.24414.46485,1.99672,1.99672,0,0,0-.43555,1.41015,2.10149,2.10149,0,0,0,.40528,1.40235,1.456,1.456,0,0,0,1.16992.47265,1.36017,1.36017,0,0,0,.4873-.08252,1.10594,1.10594,0,0,0,.33789-.1875v-3.2998A1.37543,1.37543,0,0,0,258.9458,92.84033Z" fill="#ffba55"/><path d="M263.38623,92.25537a1.8344,1.8344,0,0,1,.47266-.93017,1.17754,1.17754,0,0,1,.877-.35987,1.11557,1.11557,0,0,1,.76562.24024,4.75234,4.75234,0,0,1,.59961.6748l.96,1.25977,1.60546-2.17481a2.50019,2.50019,0,0,1,1.30469.29248.88831.88831,0,0,1,.48047.7876,1.107,1.107,0,0,1-.05273.35254,1.50254,1.50254,0,0,1-.15723.32226,4.62058,4.62058,0,0,1-.27051.375q-.16553.21021-.38965.49512l-.99023,1.10987,1.96484,2.59521a1.39121,1.39121,0,0,1-.45019.8999,1.3166,1.3166,0,0,1-.89942.33008,1.33135,1.33135,0,0,1-.9082-.33008,4.83487,4.83487,0,0,1-.65234-.76513l-.80957-1.15479-1.53028,2.20508c-.0498,0-.10449.002-.165.00781-.05957.00488-.11035.00684-.14941.00684a1.83768,1.83768,0,0,1-1.16309-.31494.9601.9601,0,0,1-.39746-.77979,1.182,1.182,0,0,1,.17285-.63769,6.4607,6.4607,0,0,1,.5918-.75733l1.2002-1.395Z" fill="#ffba55"/><path d="M274.57568,93.44043a1.49962,1.49962,0,0,1-.17187-.43506,2.22307,2.22307,0,0,1-.06738-.54,1.09932,1.09932,0,0,1,.23925-.7876.85753.85753,0,0,1,.64551-.24755h5.25q.07472.18017.15723.44287a1.82371,1.82371,0,0,1,.083.54736,1.07874,1.07874,0,0,1-.24024.77246.83809.83809,0,0,1-.62988.24756Zm0,2.98486a1.49962,1.49962,0,0,1-.17187-.43506,2.22007,2.22007,0,0,1-.06738-.54,1.09717,1.09717,0,0,1,.23925-.78711.8575.8575,0,0,1,.64551-.24756h5.25c.04981.11963.10254.26758.15723.44238a1.82371,1.82371,0,0,1,.083.54736,1.07872,1.07872,0,0,1-.24024.77246.83809.83809,0,0,1-.62988.24756Z" fill="#ffba55"/><path d="M284.65576,94.71533a4.48249,4.48249,0,0,1,.29981-1.71728,3.27377,3.27377,0,0,1,.833-1.20752,3.41127,3.41127,0,0,1,1.24512-.71289,4.93117,4.93117,0,0,1,1.53711-.23243,3.202,3.202,0,0,1,.585.05274,2.35045,2.35045,0,0,1,.46485.12744V88.59521a4.17978,4.17978,0,0,1,.48046-.09716,4.26154,4.26154,0,0,1,.67481-.05274,3.56433,3.56433,0,0,1,.59277.04492,1.01584,1.01584,0,0,1,.44239.18018.80743.80743,0,0,1,.26953.36768,1.69592,1.69592,0,0,1,.09082.60742v7.10986a1.281,1.281,0,0,1-.66016,1.125,4.57655,4.57655,0,0,1-1.125.50244,5.84906,5.84906,0,0,1-3.33789-.05224,3.54567,3.54567,0,0,1-1.30469-.78028,3.35541,3.35541,0,0,1-.81054-1.22265A4.42147,4.42147,0,0,1,284.65576,94.71533Zm4.25977-1.875a1.61979,1.61979,0,0,0-1.24414.46485,1.99672,1.99672,0,0,0-.43555,1.41015,2.10154,2.10154,0,0,0,.40527,1.40235,1.45606,1.45606,0,0,0,1.16993.47265,1.36021,1.36021,0,0,0,.4873-.08252,1.10607,1.10607,0,0,0,.33789-.1875v-3.2998A1.37543,1.37543,0,0,0,288.91553,92.84033Z" fill="#ffba55"/><path d="M293.61084,94.37012a12.22178,12.22178,0,0,1,.27734-2.75977,8.19156,8.19156,0,0,1,.71289-1.99512,3.37387,3.37387,0,0,1,.69727-.8999,1.47021,1.47021,0,0,1,1.02734-.375,1.20935,1.20935,0,0,1,.72071.2251,1.82215,1.82215,0,0,1,.47949.48,9.19677,9.19677,0,0,0-.6377,1.11768,7.96674,7.96674,0,0,0-.46484,1.22216,9.40907,9.40907,0,0,0-.28516,1.37989,13.24262,13.24262,0,0,0,0,3.21045,9.4092,9.4092,0,0,0,.28516,1.37988,7.97314,7.97314,0,0,0,.46484,1.22266,9.26619,9.26619,0,0,0,.6377,1.11718,1.83068,1.83068,0,0,1-.47949.48047,1.21222,1.21222,0,0,1-.72071.22461,1.47021,1.47021,0,0,1-1.02734-.375,3.3607,3.3607,0,0,1-.69727-.90039,8.1873,8.1873,0,0,1-.71289-1.99463A12.22325,12.22325,0,0,1,293.61084,94.37012Z" fill="#ffba55"/><path d="M298.33643,91.17529a3.44726,3.44726,0,0,1,.47265-.08984,4.77155,4.77155,0,0,1,.667-.04492,3.50458,3.50458,0,0,1,.59278.04492,1.00932,1.00932,0,0,1,.44238.17969.872.872,0,0,1,.27734.36767,1.58494,1.58494,0,0,1,.09766.60742v3.2251a1.113,1.113,0,0,0,.29981.87744,1.28252,1.28252,0,0,0,.87011.2627,2.1742,2.1742,0,0,0,.5625-.06006,1.95776,1.95776,0,0,0,.33789-.12012v-5.25a3.45739,3.45739,0,0,1,.47168-.08984,4.79572,4.79572,0,0,1,.668-.04492,3.51255,3.51255,0,0,1,.59277.04492,1.00932,1.00932,0,0,1,.44239.17969.872.872,0,0,1,.27734.36767,1.604,1.604,0,0,1,.09766.60742v4.56006a1.2258,1.2258,0,0,1-.62989,1.125,4.121,4.121,0,0,1-1.25292.50244,6.84165,6.84165,0,0,1-1.582.17286,5.84207,5.84207,0,0,1-1.49316-.18067,3.31533,3.31533,0,0,1-1.17676-.55469,2.48354,2.48354,0,0,1-.76562-.96728,3.44432,3.44432,0,0,1-.26953-1.43262Z" fill="#ffba55"/><path d="M311.94092,98.16553a1.70449,1.70449,0,0,1-.61524.27,3.68923,3.68923,0,0,1-.915.10449,3.07829,3.07829,0,0,1-1.01269-.14941.9893.9893,0,0,1-.59277-.48047q-.13478-.2549-.32227-.71241-.1875-.457-.39746-1.02-.20947-.5625-.43457-1.20752-.22558-.64452-.42774-1.2749-.20214-.62988-.36718-1.21484-.16553-.58521-.27051-1.03516a1.94275,1.94275,0,0,1,1.335-.5249,1.56609,1.56609,0,0,1,.8623.21729,1.35113,1.35113,0,0,1,.50293.81787l.585,2.29492q.16552.67456.31543,1.22217.1494.54784.2246.84765h.0752q.28418-1.10961.59961-2.46.31494-1.34985.57031-2.65478a2.38,2.38,0,0,1,.57715-.21045,2.75831,2.75831,0,0,1,.623-.07471,1.636,1.636,0,0,1,.88476.2251.8459.8459,0,0,1,.36035.77978,3.18827,3.18827,0,0,1-.11328.69776c-.07422.30517-.16992.6499-.28418,1.03466q-.17285.57789-.40527,1.22266-.2329.64527-.47266,1.25977-.24022.61523-.47265,1.14795Q312.12011,97.82056,311.94092,98.16553Z" fill="#ffba55"/><path d="M318.33154,94.37012a12.22325,12.22325,0,0,1-.27734,2.76025,8.18689,8.18689,0,0,1-.71289,1.99463,3.4003,3.4003,0,0,1-.69727.90039,1.47187,1.47187,0,0,1-1.02734.375,1.21219,1.21219,0,0,1-.7207-.22461,1.816,1.816,0,0,1-.4795-.48047,9.40013,9.40013,0,0,0,.6377-1.11718,7.97314,7.97314,0,0,0,.46484-1.22266,9.4092,9.4092,0,0,0,.28516-1.37988,13.3745,13.3745,0,0,0,0-3.21045,9.40907,9.40907,0,0,0-.28516-1.37989,7.96674,7.96674,0,0,0-.46484-1.22216,9.32861,9.32861,0,0,0-.6377-1.11768,1.80764,1.80764,0,0,1,.4795-.48,1.20932,1.20932,0,0,1,.7207-.2251,1.47187,1.47187,0,0,1,1.02734.375,3.41382,3.41382,0,0,1,.69727.8999,8.19114,8.19114,0,0,1,.71289,1.99512A12.22178,12.22178,0,0,1,318.33154,94.37012Z" fill="#ffba55"/><path d="M322.42529,94.71533a4.48249,4.48249,0,0,1,.29981-1.71728,3.27367,3.27367,0,0,1,.833-1.20752,3.41115,3.41115,0,0,1,1.24511-.71289,4.93117,4.93117,0,0,1,1.53711-.23243,3.202,3.202,0,0,1,.585.05274,2.35045,2.35045,0,0,1,.46485.12744V88.59521a4.17959,4.17959,0,0,1,.48047-.09716,4.26132,4.26132,0,0,1,.6748-.05274,3.56433,3.56433,0,0,1,.59277.04492,1.01584,1.01584,0,0,1,.44239.18018.80743.80743,0,0,1,.26953.36768,1.69592,1.69592,0,0,1,.09082.60742v7.10986a1.281,1.281,0,0,1-.66016,1.125,4.57655,4.57655,0,0,1-1.125.50244,5.84906,5.84906,0,0,1-3.33789-.05224,3.54575,3.54575,0,0,1-1.30469-.78028,3.35541,3.35541,0,0,1-.81054-1.22265A4.42147,4.42147,0,0,1,322.42529,94.71533Zm4.25977-1.875a1.61979,1.61979,0,0,0-1.24414.46485,1.99672,1.99672,0,0,0-.43555,1.41015,2.10154,2.10154,0,0,0,.40527,1.40235,1.45608,1.45608,0,0,0,1.16993.47265,1.36021,1.36021,0,0,0,.4873-.08252,1.10607,1.10607,0,0,0,.33789-.1875v-3.2998A1.37543,1.37543,0,0,0,326.68506,92.84033Z" fill="#ffba55"/><path d="M331.12549,92.25537a1.83439,1.83439,0,0,1,.47265-.93017,1.17758,1.17758,0,0,1,.877-.35987,1.11557,1.11557,0,0,1,.76562.24024,4.75234,4.75234,0,0,1,.59961.6748l.96,1.25977,1.60547-2.17481a2.50019,2.50019,0,0,1,1.30469.29248.88831.88831,0,0,1,.48047.7876,1.10676,1.10676,0,0,1-.05274.35254,1.50247,1.50247,0,0,1-.15722.32226,4.623,4.623,0,0,1-.27051.375q-.16552.21021-.38965.49512l-.99023,1.10987,1.96484,2.59521a1.39122,1.39122,0,0,1-.4502.8999,1.31657,1.31657,0,0,1-.89941.33008,1.33133,1.33133,0,0,1-.9082-.33008,4.8349,4.8349,0,0,1-.65235-.76513l-.80957-1.15479-1.53027,2.20508c-.0498,0-.10449.002-.165.00781-.05957.00488-.11035.00684-.14941.00684a1.83766,1.83766,0,0,1-1.16309-.31494.9601.9601,0,0,1-.39746-.77979,1.182,1.182,0,0,1,.17285-.63769,6.4607,6.4607,0,0,1,.5918-.75733l1.20019-1.395Z" fill="#ffba55"/><path d="M342.31494,93.44043a1.49962,1.49962,0,0,1-.17187-.43506,2.22259,2.22259,0,0,1-.06739-.54,1.09932,1.09932,0,0,1,.23926-.7876.85753.85753,0,0,1,.64551-.24755h5.25q.0747.18017.15723.44287a1.824,1.824,0,0,1,.083.54736,1.07874,1.07874,0,0,1-.24023.77246.83811.83811,0,0,1-.62988.24756Zm0,2.98486a1.49962,1.49962,0,0,1-.17187-.43506,2.21959,2.21959,0,0,1-.06739-.54,1.09717,1.09717,0,0,1,.23926-.78711.8575.8575,0,0,1,.64551-.24756h5.25c.0498.11963.10254.26758.15723.44238a1.824,1.824,0,0,1,.083.54736,1.07872,1.07872,0,0,1-.24023.77246.83811.83811,0,0,1-.62988.24756Z" fill="#ffba55"/><path d="M352.71,91.17529a3.44747,3.44747,0,0,1,.47266-.08984,4.77134,4.77134,0,0,1,.667-.04492,3.50438,3.50438,0,0,1,.59277.04492,1.00932,1.00932,0,0,1,.44239.17969.872.872,0,0,1,.27734.36767,1.58494,1.58494,0,0,1,.09766.60742v3.2251a1.113,1.113,0,0,0,.2998.87744,1.28255,1.28255,0,0,0,.87012.2627,2.1742,2.1742,0,0,0,.5625-.06006,1.95776,1.95776,0,0,0,.33789-.12012v-5.25a3.45707,3.45707,0,0,1,.47168-.08984,4.79572,4.79572,0,0,1,.668-.04492,3.51264,3.51264,0,0,1,.59277.04492,1.00927,1.00927,0,0,1,.44238.17969.872.872,0,0,1,.27735.36767,1.604,1.604,0,0,1,.09765.60742v4.56006a1.22581,1.22581,0,0,1-.62988,1.125,4.12115,4.12115,0,0,1-1.25293.50244,6.8415,6.8415,0,0,1-1.582.17286,5.842,5.842,0,0,1-1.49316-.18067,3.31533,3.31533,0,0,1-1.17676-.55469,2.48365,2.48365,0,0,1-.76563-.96728,3.44432,3.44432,0,0,1-.26953-1.43262Z" fill="#ffba55"/><path d="M364.124,94.71533a4.48249,4.48249,0,0,1,.29981-1.71728,3.27367,3.27367,0,0,1,.833-1.20752,3.41115,3.41115,0,0,1,1.24511-.71289,4.93117,4.93117,0,0,1,1.53711-.23243,3.202,3.202,0,0,1,.585.05274,2.35045,2.35045,0,0,1,.46485.12744V88.59521a4.17959,4.17959,0,0,1,.48047-.09716,4.26132,4.26132,0,0,1,.6748-.05274,3.56433,3.56433,0,0,1,.59277.04492,1.01584,1.01584,0,0,1,.44239.18018.80743.80743,0,0,1,.26953.36768,1.6957,1.6957,0,0,1,.09082.60742v7.10986a1.281,1.281,0,0,1-.66016,1.125,4.57655,4.57655,0,0,1-1.125.50244,5.84906,5.84906,0,0,1-3.33789-.05224,3.54575,3.54575,0,0,1-1.30469-.78028,3.35554,3.35554,0,0,1-.81054-1.22265A4.42147,4.42147,0,0,1,364.124,94.71533Zm4.25977-1.875a1.61979,1.61979,0,0,0-1.24414.46485,1.99672,1.99672,0,0,0-.43555,1.41015,2.10149,2.10149,0,0,0,.40528,1.40235,1.456,1.456,0,0,0,1.16992.47265,1.36021,1.36021,0,0,0,.4873-.08252,1.10607,1.10607,0,0,0,.33789-.1875v-3.2998A1.37543,1.37543,0,0,0,368.38379,92.84033Z" fill="#ffba55"/><path d="M378.10449,98.16553a1.70435,1.70435,0,0,1-.61523.27,3.68935,3.68935,0,0,1-.915.10449,3.07831,3.07831,0,0,1-1.0127-.14941.98932.98932,0,0,1-.59277-.48047q-.13476-.2549-.32227-.71241-.1875-.457-.39746-1.02-.20946-.5625-.43457-1.20752-.22559-.64452-.42773-1.2749-.20216-.62988-.36719-1.21484-.16552-.58521-.27051-1.03516a1.94275,1.94275,0,0,1,1.335-.5249,1.56615,1.56615,0,0,1,.86231.21729,1.35113,1.35113,0,0,1,.50293.81787l.585,2.29492q.16553.67456.31543,1.22217.14942.54784.22461.84765h.07519q.28419-1.10961.59961-2.46.31494-1.34985.57032-2.65478a2.37987,2.37987,0,0,1,.57714-.21045,2.75844,2.75844,0,0,1,.623-.07471,1.636,1.636,0,0,1,.88477.2251.84592.84592,0,0,1,.36035.77978,3.18888,3.18888,0,0,1-.11328.69776c-.07422.30517-.16992.6499-.28418,1.03466q-.17286.57789-.40528,1.22266-.2329.64527-.47265,1.25977-.24024.61523-.47266,1.14795Q378.2837,97.82056,378.10449,98.16553Z" fill="#ffba55"/><path d="M384.08984,94.71533a4.48249,4.48249,0,0,1,.29981-1.71728,3.27367,3.27367,0,0,1,.833-1.20752,3.41115,3.41115,0,0,1,1.24511-.71289,4.93117,4.93117,0,0,1,1.53711-.23243,3.202,3.202,0,0,1,.585.05274,2.35045,2.35045,0,0,1,.46485.12744V88.59521a4.17959,4.17959,0,0,1,.48047-.09716,4.26132,4.26132,0,0,1,.6748-.05274,3.56433,3.56433,0,0,1,.59277.04492,1.01584,1.01584,0,0,1,.44239.18018.80743.80743,0,0,1,.26953.36768,1.6957,1.6957,0,0,1,.09082.60742v7.10986a1.281,1.281,0,0,1-.66016,1.125,4.57655,4.57655,0,0,1-1.125.50244,5.84906,5.84906,0,0,1-3.33789-.05224,3.54575,3.54575,0,0,1-1.30469-.78028,3.35554,3.35554,0,0,1-.81054-1.22265A4.42147,4.42147,0,0,1,384.08984,94.71533Zm4.25977-1.875a1.61979,1.61979,0,0,0-1.24414.46485,1.99672,1.99672,0,0,0-.43555,1.41015,2.10149,2.10149,0,0,0,.40528,1.40235,1.456,1.456,0,0,0,1.16992.47265,1.36021,1.36021,0,0,0,.4873-.08252,1.10607,1.10607,0,0,0,.33789-.1875v-3.2998A1.37543,1.37543,0,0,0,388.34961,92.84033Z" fill="#ffba55"/><path d="M392.78906,92.25537a1.8344,1.8344,0,0,1,.47266-.93017,1.17754,1.17754,0,0,1,.87695-.35987,1.11562,1.11562,0,0,1,.76563.24024,4.75358,4.75358,0,0,1,.59961.6748l.96,1.25977,1.60547-2.17481a2.50017,2.50017,0,0,1,1.30468.29248.88829.88829,0,0,1,.48047.7876,1.107,1.107,0,0,1-.05273.35254,1.50254,1.50254,0,0,1-.15723.32226,4.61813,4.61813,0,0,1-.27051.375q-.16553.21021-.38964.49512l-.99024,1.10987,1.96484,2.59521a1.39121,1.39121,0,0,1-.45019.8999,1.31659,1.31659,0,0,1-.89941.33008,1.33138,1.33138,0,0,1-.90821-.33008,4.83487,4.83487,0,0,1-.65234-.76513l-.80957-1.15479L394.709,98.48047c-.0498,0-.10449.002-.165.00781-.05957.00488-.11036.00684-.14942.00684a1.83763,1.83763,0,0,1-1.16308-.31494.96011.96011,0,0,1-.39747-.77979,1.18192,1.18192,0,0,1,.17286-.63769,6.46038,6.46038,0,0,1,.59179-.75733l1.2002-1.395Z" fill="#ffba55"/><path d="M408.52441,97.61035a1.49909,1.49909,0,0,1-.44238.09766,5.3998,5.3998,0,0,1-.62207.03711,1.74176,1.74176,0,0,1-.93066-.20215.96279.96279,0,0,1-.31446-.86279V95.03027H403.9502a1.47158,1.47158,0,0,1-.17286-.43506,2.22007,2.22007,0,0,1-.06738-.54,1.09715,1.09715,0,0,1,.24024-.78711.85524.85524,0,0,1,.64453-.24756h1.62011v-2.52a4.1022,4.1022,0,0,1,.457-.09766,3.64555,3.64555,0,0,1,.60742-.05224,1.68981,1.68981,0,0,1,.92285.21.99187.99187,0,0,1,.32226.88476v1.5752h2.22071c.0498.11963.10254.26758.15722.44238a1.82319,1.82319,0,0,1,.082.54736,1.07864,1.07864,0,0,1-.23926.77246.83812.83812,0,0,1-.62989.24756h-1.59082Z" fill="#ffba55"/><path d="M420.08984,98.16553a1.70435,1.70435,0,0,1-.61523.27,3.68935,3.68935,0,0,1-.915.10449,3.0782,3.0782,0,0,1-1.01269-.14941.98932.98932,0,0,1-.59278-.48047q-.13476-.2549-.32226-.71241-.1875-.457-.39746-1.02-.20947-.5625-.43458-1.20752-.22559-.64452-.42773-1.2749-.20216-.62988-.36719-1.21484-.16553-.58521-.2705-1.03516a1.94275,1.94275,0,0,1,1.335-.5249,1.56614,1.56614,0,0,1,.8623.21729,1.35113,1.35113,0,0,1,.50293.81787l.585,2.29492q.16553.67456.31543,1.22217.14941.54784.22461.84765h.0752q.28418-1.10961.59961-2.46.31494-1.34985.57031-2.65478a2.3798,2.3798,0,0,1,.57715-.21045,2.75829,2.75829,0,0,1,.623-.07471,1.636,1.636,0,0,1,.88477.2251.84592.84592,0,0,1,.36035.77978,3.18888,3.18888,0,0,1-.11328.69776c-.07422.30517-.16992.6499-.28418,1.03466q-.17286.57789-.40527,1.22266-.23292.64527-.47266,1.25977-.24024.61523-.47266,1.14795Q420.269,97.82056,420.08984,98.16553Z" fill="#ffba55"/><path d="M426.07422,94.71533a4.48269,4.48269,0,0,1,.2998-1.71728,3.27379,3.27379,0,0,1,.833-1.20752,3.41111,3.41111,0,0,1,1.24512-.71289,4.93113,4.93113,0,0,1,1.53711-.23243,3.20209,3.20209,0,0,1,.585.05274,2.35013,2.35013,0,0,1,.46484.12744V88.59521a4.18053,4.18053,0,0,1,.48047-.09716,4.26154,4.26154,0,0,1,.67481-.05274,3.56442,3.56442,0,0,1,.59277.04492,1.0158,1.0158,0,0,1,.44238.18018.80736.80736,0,0,1,.26953.36768,1.6957,1.6957,0,0,1,.09082.60742v7.10986a1.281,1.281,0,0,1-.66015,1.125,4.57655,4.57655,0,0,1-1.125.50244,5.84906,5.84906,0,0,1-3.33789-.05224,3.54567,3.54567,0,0,1-1.30469-.78028,3.35556,3.35556,0,0,1-.81055-1.22265A4.42148,4.42148,0,0,1,426.07422,94.71533Zm4.25976-1.875a1.61982,1.61982,0,0,0-1.24414.46485,1.99677,1.99677,0,0,0-.43554,1.41015,2.10149,2.10149,0,0,0,.40527,1.40235,1.45605,1.45605,0,0,0,1.16992.47265,1.36022,1.36022,0,0,0,.48731-.08252,1.10607,1.10607,0,0,0,.33789-.1875v-3.2998A1.37547,1.37547,0,0,0,430.334,92.84033Z" fill="#ffba55"/><path d="M435.17969,91.17529a3.44726,3.44726,0,0,1,.47265-.08984,4.77159,4.77159,0,0,1,.667-.04492,3.50454,3.50454,0,0,1,.59277.04492,1.00927,1.00927,0,0,1,.44238.17969.872.872,0,0,1,.27735.36767,1.585,1.585,0,0,1,.09765.60742v3.2251a1.113,1.113,0,0,0,.29981.87744,1.28252,1.28252,0,0,0,.87011.2627,2.1741,2.1741,0,0,0,.5625-.06006,1.95714,1.95714,0,0,0,.33789-.12012v-5.25a3.45739,3.45739,0,0,1,.47168-.08984,4.79572,4.79572,0,0,1,.668-.04492,3.51268,3.51268,0,0,1,.59278.04492,1.00932,1.00932,0,0,1,.44238.17969.872.872,0,0,1,.27734.36767,1.60383,1.60383,0,0,1,.09766.60742v4.56006a1.22581,1.22581,0,0,1-.62988,1.125,4.12115,4.12115,0,0,1-1.25293.50244,6.84156,6.84156,0,0,1-1.582.17286,5.84215,5.84215,0,0,1-1.49317-.18067,3.31542,3.31542,0,0,1-1.17676-.55469,2.48363,2.48363,0,0,1-.76562-.96728,3.44432,3.44432,0,0,1-.26953-1.43262Z" fill="#ffba55"/><path d="M446.59375,94.71533a4.48269,4.48269,0,0,1,.2998-1.71728,3.27379,3.27379,0,0,1,.833-1.20752,3.41111,3.41111,0,0,1,1.24512-.71289,4.93113,4.93113,0,0,1,1.53711-.23243,3.20209,3.20209,0,0,1,.585.05274,2.35013,2.35013,0,0,1,.46484.12744V88.59521a4.18053,4.18053,0,0,1,.48047-.09716,4.26154,4.26154,0,0,1,.67481-.05274,3.56442,3.56442,0,0,1,.59277.04492,1.01575,1.01575,0,0,1,.44238.18018.80736.80736,0,0,1,.26953.36768,1.69568,1.69568,0,0,1,.09083.60742v7.10986a1.281,1.281,0,0,1-.66016,1.125,4.57655,4.57655,0,0,1-1.125.50244,5.84906,5.84906,0,0,1-3.33789-.05224,3.54567,3.54567,0,0,1-1.30469-.78028,3.35556,3.35556,0,0,1-.81055-1.22265A4.42148,4.42148,0,0,1,446.59375,94.71533Zm4.25977-1.875a1.61979,1.61979,0,0,0-1.24414.46485,1.99672,1.99672,0,0,0-.43555,1.41015,2.10149,2.10149,0,0,0,.40527,1.40235,1.45605,1.45605,0,0,0,1.16992.47265,1.36022,1.36022,0,0,0,.48731-.08252,1.10607,1.10607,0,0,0,.33789-.1875v-3.2998A1.37545,1.37545,0,0,0,450.85352,92.84033Z" fill="#ffba55"/><path d="M455.294,92.25537a1.83431,1.83431,0,0,1,.47265-.93017,1.17757,1.17757,0,0,1,.877-.35987,1.1156,1.1156,0,0,1,.76563.24024,4.753,4.753,0,0,1,.59961.6748l.96,1.25977,1.60547-2.17481a2.50023,2.50023,0,0,1,1.30469.29248.88831.88831,0,0,1,.48047.7876,1.10676,1.10676,0,0,1-.05274.35254,1.50254,1.50254,0,0,1-.15723.32226,4.62021,4.62021,0,0,1-.2705.375q-.16554.21021-.38965.49512L460.499,94.7002l1.96485,2.59521a1.39126,1.39126,0,0,1-.4502.8999,1.31657,1.31657,0,0,1-.89941.33008,1.33138,1.33138,0,0,1-.90821-.33008,4.83539,4.83539,0,0,1-.65234-.76513l-.80957-1.15479-1.53027,2.20508c-.04981,0-.10449.002-.165.00781-.05957.00488-.11035.00684-.14942.00684a1.83765,1.83765,0,0,1-1.16308-.31494.9601.9601,0,0,1-.39746-.77979,1.18192,1.18192,0,0,1,.17285-.63769,6.4607,6.4607,0,0,1,.5918-.75733l1.20019-1.395Z" fill="#ffba55"/></svg>