<svg id="Layer_1" data-name="Layer 1" xmlns="http://www.w3.org/2000/svg" viewBox="0 0 700 550"><title>searching-stalking</title><rect x="101.06914" y="454.11512" width="500" height="2" fill="#935b50"/><path d="M433.04674,448.86578c16.25-5.08,30.83-10.27,48.37-20.12,18.09-10.16,98.45-58.51,108.9-142.19a159.61541,159.61541,0,0,0-6.66-68.16c-3.23-9.47-9.93-28.49-26.84-47.3-20.7-23.04-44.32-31.97-58.17-37.02-29.14-10.63-53.58-10.07-65.22-9.69-12.56.41-34.73,1.33-59.93,12.34-16.44,7.18-26.66,15.37-41.72,27.61-23.86,19.41-27,27.49-68.74,67.57-11.46,11-20.88,19.67-35.26,28.21-9.97,5.92-18.03,9.23-32.9,15.27-36.55,14.85-46.95657,17.85677-58.91657,26.21677-23.26,16.27-21.75343,34.01323-22.75343,37.83323a75.12694,75.12694,0,0,0-1.77,29.97c3.05,20.07,13.86,33.19,20.57,41.13a113.09822,113.09822,0,0,0,32.9,26.44,210.24676,210.24676,0,0,0,26.96,11.89Z" fill="#efedef"/><path d="M484.88262,435.11609l-.9795-1.74414c23.84864-13.39746,102.47461-63.61816,112.92676-147.3623a165.79109,165.79109,0,0,0-6.89062-70.54883c-2.96729-8.70215-9.916-29.082-27.74658-48.92187-21.83887-24.30079-46.78663-33.39844-60.19-38.28614a173.668,173.668,0,0,0-67.56-10.03906c-12.38916.40234-35.44971,1.15039-62.0586,12.76953l-.80078-1.832c26.96094-11.77344,51.16357-12.55859,62.79492-12.93555a175.43754,175.43754,0,0,1,68.31006,10.15821c13.56641,4.94726,38.81934,14.15625,60.9917,38.8291,18.104,20.14355,25.14551,40.79492,28.15186,49.61328a167.88329,167.88329,0,0,1,6.98242,71.44141C588.24639,370.93055,508.93779,421.60242,484.88262,435.11609Z" fill="#efedef"/><rect x="415.36669" y="116.13013" width="36.6599" height="16.19402" transform="translate(867.39328 248.45428) rotate(-180)" fill="#d1cfd1"/><rect x="394.09149" y="94.88482" width="36.6599" height="16.19402" transform="translate(824.84288 205.96367) rotate(-180)" fill="#d1cfd1"/><rect x="371.97606" y="116.13013" width="36.6599" height="16.19402" transform="translate(780.61202 248.45428) rotate(-180)" fill="#d1cfd1"/><rect x="401.67333" y="137.37544" width="36.6599" height="16.19402" transform="translate(840.00656 290.9449) rotate(-180)" fill="#d1cfd1"/><rect x="359.91333" y="137.37544" width="36.6599" height="16.19402" transform="translate(756.48656 290.9449) rotate(-180)" fill="#d1cfd1"/><rect x="154.38415" y="346.3848" width="36.6599" height="16.19402" transform="translate(345.4282 708.96363) rotate(-180)" fill="#d1cfd1"/><rect x="133.10896" y="325.13949" width="36.6599" height="16.19402" transform="translate(302.87781 666.47301) rotate(-180)" fill="#d1cfd1"/><rect x="110.99352" y="346.3848" width="36.6599" height="16.19402" transform="translate(258.64695 708.96363) rotate(-180)" fill="#d1cfd1"/><rect x="140.69079" y="367.63011" width="36.6599" height="16.19402" transform="translate(318.04148 751.45425) rotate(-180)" fill="#d1cfd1"/><rect x="98.93079" y="367.63011" width="36.6599" height="16.19402" transform="translate(234.52148 751.45425) rotate(-180)" fill="#d1cfd1"/><rect x="556.85315" y="299.10695" width="36.6599" height="16.19402" transform="translate(1150.36619 614.40792) rotate(-180)" fill="#d1cfd1"/><rect x="535.57795" y="277.86164" width="36.6599" height="16.19402" transform="translate(1107.8158 571.9173) rotate(-180)" fill="#d1cfd1"/><rect x="513.46252" y="299.10695" width="36.6599" height="16.19402" transform="translate(1063.58493 614.40792) rotate(-180)" fill="#d1cfd1"/><rect x="543.15979" y="320.35226" width="36.6599" height="16.19402" transform="translate(1122.97947 656.89854) rotate(-180)" fill="#d1cfd1"/><rect x="501.39979" y="320.35226" width="36.6599" height="16.19402" transform="translate(1039.45947 656.89854) rotate(-180)" fill="#d1cfd1"/><polygon points="182.649 292.259 160.672 292.259 153.267 253.339 190.054 253.339 182.649 292.259" fill="#e19974"/><polygon points="189.209 257.782 190.054 253.339 153.267 253.339 154.112 257.782 189.209 257.782" fill="#d6694b"/><rect x="159.14574" y="273.80888" width="6.56559" height="6.56559" transform="translate(243.50762 -33.69605) rotate(45)" fill="#d6694b"/><rect x="168.43089" y="273.80888" width="6.56559" height="6.56559" transform="translate(246.22717 -40.26164) rotate(45)" fill="#d6694b"/><rect x="177.6091" y="273.80888" width="6.56559" height="6.56559" transform="translate(248.91541 -46.75162) rotate(45)" fill="#d6694b"/><path d="M180.22127,220.58551s1.92987,27.26441-9.38129,33.04248C170.84,253.628,166.92408,243.29112,180.22127,220.58551Z" fill="#558031"/><path d="M143.72231,232.29712S162.22682,235.4899,170.84,253.628C170.84,253.628,150.49133,246.71676,143.72231,232.29712Z" fill="#849f4c"/><path d="M161.89191,224.47174s13.05754,11.922,8.94807,29.15625C170.84,253.628,163.60658,245.96068,161.89191,224.47174Z" fill="#849f4c"/><path d="M170.84,253.628s4.58759-16.79326,27.77894-21.09951C198.61892,232.52848,193.39984,247.819,170.84,253.628Z" fill="#a6b862"/><path d="M204.76236,249.23811S187.068,241.94347,170.84,253.628C170.84,253.628,192.41342,256.21809,204.76236,249.23811Z" fill="#849f4c"/><path d="M153.24715,226.46261s20.73553,14.66563,17.761,27.1773C171.00814,253.63991,156.62247,242.10567,153.24715,226.46261Z" fill="#558031"/><rect x="168.8416" y="167.68836" width="1.27051" height="44.76367" fill="#7ca1b1"/><path d="M197.72637,292.89441H168.8416V210.47449l45.41895,63.36231Zm-27.61426-1.27148h27.03418l15.49707-17.86035-42.53125-59.333Z" fill="#7ca1b1"/><polygon points="185.273 292.48 184.083 292.037 190.788 274.066 168.878 212.666 170.075 212.238 192.141 274.076 185.273 292.48" fill="#7ca1b1"/><rect x="169.47686" y="273.16395" width="43.9751" height="1.27148" fill="#7ca1b1"/><path d="M170.11211,292.89441H141.22734L124.69268,273.8368l45.41943-63.36231Zm-28.30469-1.27148H168.8416V214.42957l-42.53174,59.333Z" fill="#7ca1b1"/><polygon points="153.68 292.48 146.813 274.076 146.89 273.857 168.878 212.238 170.075 212.666 148.165 274.066 154.871 292.037 153.68 292.48" fill="#7ca1b1"/><rect x="125.50127" y="273.16395" width="43.97559" height="1.27148" fill="#7ca1b1"/><rect x="160.02959" y="167.05262" width="18.89453" height="1.27148" fill="#7ca1b1"/><path d="M134.19127,251.41284s23.23818-8.61664,36.9528,1.80315C171.14407,253.216,158.12167,260.38888,134.19127,251.41284Z" fill="#558031"/><path d="M189.621,268.22527S172.527,265.30694,170.84,253.628C170.84,253.628,183.33014,254.24662,189.621,268.22527Z" fill="#849f4c"/><path d="M204.60139,266.22082S196.05763,252.53571,170.84,253.628Z" fill="#558031"/><path d="M150.28352,268.00985s9.4108-14.07894,20.55646-14.38186C170.84,253.628,169.16206,264.96414,150.28352,268.00985Z" fill="#a6b862"/><rect x="168.8416" y="209.26551" width="1.27051" height="82.99316" fill="#7ca1b1"/><polygon points="494.428 295.77 472.45 295.77 465.046 256.85 501.833 256.85 494.428 295.77" fill="#e19974"/><polygon points="500.987 261.293 501.833 256.85 465.046 256.85 465.891 261.293 500.987 261.293" fill="#d6694b"/><rect x="470.92449" y="277.31972" width="6.56559" height="6.56559" transform="translate(337.30804 -253.12861) rotate(45)" fill="#d6694b"/><rect x="480.20964" y="277.31972" width="6.56559" height="6.56559" transform="translate(340.0276 -259.6942) rotate(45)" fill="#d6694b"/><rect x="489.38785" y="277.31972" width="6.56559" height="6.56559" transform="translate(342.71584 -266.18418) rotate(45)" fill="#d6694b"/><path d="M492,224.09636s1.92987,27.26441-9.38129,33.04248C482.61873,257.13884,478.70283,246.802,492,224.09636Z" fill="#558031"/><path d="M455.50106,235.808s18.50451,3.19278,27.11767,21.33088C482.61873,257.13884,462.27008,250.22761,455.50106,235.808Z" fill="#849f4c"/><path d="M473.67066,227.98259s13.05754,11.922,8.94807,29.15625C482.61873,257.13884,475.38533,249.47153,473.67066,227.98259Z" fill="#849f4c"/><path d="M482.61873,257.13884s4.58759-16.79326,27.77894-21.09951C510.39767,236.03933,505.17859,251.32987,482.61873,257.13884Z" fill="#a6b862"/><path d="M516.54111,252.749s-17.69434-7.29464-33.92238,4.38988C482.61873,257.13884,504.19217,259.72893,516.54111,252.749Z" fill="#849f4c"/><path d="M465.0259,229.97346s20.73553,14.66562,17.761,27.1773C482.78689,257.15076,468.40122,245.61651,465.0259,229.97346Z" fill="#558031"/><rect x="480.62041" y="171.1991" width="1.27051" height="44.76367" fill="#7ca1b1"/><path d="M509.50518,296.40516H480.62041V213.98523l45.41895,63.36231Zm-27.61426-1.27149H508.9251l15.49707-17.86035-42.53125-59.333Z" fill="#7ca1b1"/><polygon points="497.052 295.991 495.862 295.548 502.567 277.577 480.657 216.177 481.854 215.749 503.92 277.587 497.052 295.991" fill="#7ca1b1"/><rect x="481.25566" y="276.67469" width="43.9751" height="1.27148" fill="#7ca1b1"/><path d="M481.89092,296.40516H453.00566l-16.53418-19.05762,45.41944-63.36231Zm-28.30518-1.27149h27.03467V217.94031l-42.53174,59.333Z" fill="#7ca1b1"/><polygon points="465.459 295.991 458.592 277.587 458.669 277.368 480.657 215.749 481.854 216.177 459.944 277.577 466.649 295.548 465.459 295.991" fill="#7ca1b1"/><rect x="437.28008" y="276.67469" width="43.97559" height="1.27148" fill="#7ca1b1"/><rect x="471.8084" y="170.56336" width="18.89453" height="1.27148" fill="#7ca1b1"/><path d="M445.97,254.92369s23.23818-8.61664,36.9528,1.80315C482.92282,256.72684,469.90042,263.89972,445.97,254.92369Z" fill="#558031"/><path d="M501.39979,271.73612s-17.09409-2.91833-18.78106-14.59728C482.61873,257.13884,495.10889,257.75747,501.39979,271.73612Z" fill="#849f4c"/><path d="M516.38014,269.73166s-8.54376-13.6851-33.76141-12.59282Z" fill="#558031"/><path d="M462.06227,271.5207s9.4108-14.07894,20.55646-14.38186C482.61873,257.13884,480.94081,268.475,462.06227,271.5207Z" fill="#a6b862"/><rect x="480.62041" y="212.77625" width="1.27051" height="82.99316" fill="#7ca1b1"/><path d="M433.21712,409.69806H222.04638V169.99941H433.21712ZM229.55,402.19567H425.71351V177.5018H229.55Z" fill="#d6694b"/><rect x="214.64149" y="409.76524" width="225.98073" height="11.23165" rx="2.02581" fill="#935b50"/><rect x="229.54999" y="249.82659" width="196.16352" height="8.98532" fill="#e19974"/><path d="M322.9738,176.27809s-19.6003,88.56565-87.14514,126.58515c0,0,48.52285,55.0382,54.4044,99.33243h-61.908V176.27809Z" fill="#ffba55"/><path d="M235.82866,302.9596a6.54761,6.54761,0,0,1-1.87585.61,9.7681,9.7681,0,0,1-1.876.17457,9.64831,9.64831,0,0,1-1.87585-.17212,6.48506,6.48506,0,0,1-1.876-.61243,6.48178,6.48178,0,0,1,1.876-.61255,9.64753,9.64753,0,0,1,1.87585-.17212,9.76729,9.76729,0,0,1,1.876.17456A6.54461,6.54461,0,0,1,235.82866,302.9596Z" fill="#e6952a"/><path d="M244.3814,280.53919c2.56677-3.23572,5.11938-6.476,7.58044-9.78711,1.255-1.63586,2.49988-3.27881,3.719-4.94128q1.85724-2.47174,3.64124-4.99659c2.40454-3.34668,4.77966-6.71325,7.0946-10.11914l3.45826-5.11767,3.33947-5.19385c1.14673-1.71045,2.16932-3.4967,3.25769-5.24292,1.08277-1.75012,2.14954-3.5094,3.14844-5.30725,1.015-1.78833,2.06763-3.55786,3.05261-5.36279l2.88013-5.4563c.5-.90064.95227-1.82349,1.38025-2.75806l1.31824-2.78918,1.31933-2.791c.40723-.94373.77124-1.9054,1.166-2.85522l1.18579-2.85157a28.45686,28.45686,0,0,0,1.09937-2.88525q.96569-2.93244,1.98559-5.86194-.77068,2.99505-1.59045,5.99182a28.67174,28.67174,0,0,1-.93714,2.95679l-1.02649,2.93017c-.35241.97339-.694,1.9524-1.06836,2.91761l-1.22766,2.85132-1.22888,2.85339c-.3988.95691-.82178,1.90222-1.29223,2.8241A205.00523,205.00523,0,0,1,274.53826,241.225c-4.43042,6.99207-9.22278,13.74439-14.25171,20.3064C255.24382,268.08167,250.01775,274.49585,244.3814,280.53919Z" fill="#e6952a"/><path d="M248.902,244.85291c2.91076-7.37134,6.24878-14.53406,9.6914-21.64575,3.48523-7.09082,7.07776-14.1294,11.1012-20.95752-2.90735,7.3728-6.24585,14.5354-9.69141,21.64563C256.51506,230.98462,252.92217,238.02308,248.902,244.85291Z" fill="#e6952a"/><path d="M233.778,244.85291c1.16016-9.72363,2.788-19.36133,4.53028-28.97791,1.78894-9.608,3.69519-19.19445,6.07312-28.69421-1.1565,9.72424-2.78479,19.36182-4.53028,28.97791C238.05889,225.76612,236.15227,235.35242,233.778,244.85291Z" fill="#e6952a"/><path d="M239.07964,328.78882c2.13086,2.59986,4.10071,5.32422,6.06994,8.04871q1.45917,2.05627,2.85206,4.1582,1.41961,2.08465,2.77661,4.21118a199.84977,199.84977,0,0,1,10.09778,17.478,145.36919,145.36919,0,0,1,8.01489,18.54773c.611,1.57056,1.01013,3.21887,1.5177,4.82459l.72339,2.42163c.22155.81262.38781,1.64184.57727,2.463l.52783,2.47205a21.22167,21.22167,0,0,1,.44714,2.48437q.334,2.50617.61353,5.00635-.53541-2.46863-1.02185-4.927a20.99906,20.99906,0,0,0-.61658-2.43152l-.69482-2.41065c-.23389-.802-.42408-1.615-.68079-2.40979l-.82043-2.36938c-.5719-1.57044-1.0326-3.17591-1.70643-4.70911q-.95306-2.319-1.87084-4.64746l-2.04224-4.57654c-.6582-1.53479-1.39795-3.03405-2.13074-4.53613-.739-1.4989-1.43481-3.01843-2.234-4.48816l-2.3042-4.45532-2.41906-4.39661c-1.62244-2.92615-3.30079-5.82275-5.00025-8.70862q-1.259-2.17419-2.58459-4.30908c-.86536-1.43506-1.75977-2.8518-2.6576-4.26709C242.76348,334.40052,240.92449,331.59644,239.07964,328.78882Z" fill="#e6952a"/><path d="M235.82866,354.751c.61719,7.90747.759,15.81494.78443,23.72241-.0221,7.90735-.16346,15.81482-.78443,23.72229-.621-7.90747-.76233-15.81494-.78442-23.72229C235.06963,370.56592,235.21147,362.65845,235.82866,354.751Z" fill="#e6952a"/><path d="M244.3814,364.52552a78.70566,78.70566,0,0,1,3.47412,9.02917,95.5295,95.5295,0,0,1,2.51343,9.35291,70.63756,70.63756,0,0,1,1.421,9.6018,36.8841,36.8841,0,0,1-.41321,9.68628,69.2414,69.2414,0,0,0-.80445-9.5531c-.44934-3.154-1.07214-6.286-1.73754-9.4071-.641-3.12818-1.40613-6.23389-2.15345-9.34876Z" fill="#e6952a"/><path d="M282.2667,416.63358h14.78669a15.4794,15.4794,0,0,1,15.4794,15.4794v10.20974a0,0,0,0,1,0,0H266.7873a0,0,0,0,1,0,0V432.113A15.4794,15.4794,0,0,1,282.2667,416.63358Z" transform="translate(579.32009 858.95629) rotate(-180)" fill="#d6694b"/><path d="M295.31226,412.05465a13.037,13.037,0,0,0,1.58425-3.53447,8.20637,8.20637,0,0,0,.29885-2.741,3.00615,3.00615,0,0,0-.99169-2.06792,14.05158,14.05158,0,0,1-1.75065-1.74194l-2.82766-3.81053a18.28168,18.28168,0,0,1-2.43791-4.18119l-.02144-.05483a.545.545,0,0,0-.97539-.08354,12.85168,12.85168,0,0,0-1.44934,5.52891,24.74757,24.74757,0,0,0,.20682,5.51483c.128.89208.06388,1.86166.11659,2.79539a3.59179,3.59179,0,0,0,1.03279,2.40195,7.68272,7.68272,0,0,0,2.46,1.66421,10.103,10.103,0,0,0,3.87765.8034.99457.99457,0,0,0,.859-.464Z" fill="#8b9d36"/><path d="M303.51918,393.89529l-3.16068,7.56925a10.34743,10.34743,0,0,1-1.00487,1.68185,4.05329,4.05329,0,0,0-.40047.81134,3.45067,3.45067,0,0,0-.13625.85935,7.255,7.255,0,0,0,.05316.91274,7.51216,7.51216,0,0,0,.17511.97516c.06187.30957.17891.68056.27852,1.08807.11771.39277.19544.79715.33749,1.38848l.0163.0679a.50942.50942,0,0,0,.4351.38629,4.13147,4.13147,0,0,0,1.62021-.1827,6.91489,6.91489,0,0,0,1.32359-.652,7.39342,7.39342,0,0,0,1.0252-.86773,7.08276,7.08276,0,0,0,.7737-.98388,3.86466,3.86466,0,0,0,.63589-2.21332c-.00849-.77728-.12062-1.548-.10721-2.27609-.00313-.73283-.02078-1.45627-.059-2.17368-.06477-.72222-.15076-1.43729-.24033-2.14688a29.82237,29.82237,0,0,0-.92558-4.21793.34029.34029,0,0,0-.4266-.2228A.34929.34929,0,0,0,303.51918,393.89529Z" fill="#5e7c24"/><path d="M324.75859,399.39405c-1.9242.514-3.78965,1.12805-5.66024,1.72619l-2.77652.94445-2.73094,1.013c-.90638.34352-1.86992.575-2.81337.84015a7.10733,7.10733,0,0,0-2.53529,1.31488,13.32249,13.32249,0,0,0-3.80864,5.01117l-.04578.101a.38776.38776,0,0,0,.1932.513l.01362.00581a8.53177,8.53177,0,0,0,3.56808.5528,12.13578,12.13578,0,0,0,3.05727-.51427,7.06237,7.06237,0,0,0,2.56924-1.40557c.75159-.6542,1.48374-1.34034,2.26615-1.92743l2.33361-1.78136,2.27463-1.87416c1.49357-1.28675,2.98647-2.56835,4.41259-3.96364a.3309.3309,0,0,0-.31761-.556Z" fill="#50661a"/><path d="M328.0573,414.94127c-1.69436-.56586-3.39319-1.00788-5.0918-1.46006l-2.54981-.618-2.55338-.52209c-.85165-.15713-1.69794-.46346-2.54691-.698a5.61392,5.61392,0,0,0-2.56745-.12207,10.35142,10.35142,0,0,0-2.60118.84852,9.54854,9.54854,0,0,0-2.63647,1.8515.47212.47212,0,0,0-.02234.64,9.545,9.545,0,0,0,2.50023,2.03163,10.35452,10.35452,0,0,0,2.53551,1.02843,5.61288,5.61288,0,0,0,2.56946.05807c.86349-.17455,1.72921-.42091,2.58979-.51807l2.58354-.34195,2.58689-.438c1.72608-.33224,3.45171-.6542,5.18159-1.1a.33382.33382,0,0,0,.2401-.40661A.33755.33755,0,0,0,328.0573,414.94127Z" fill="#5e7c24"/><path d="M315.66584,419.8153a8.66859,8.66859,0,0,0-2.7468,1.3695,8.89582,8.89582,0,0,0-1.82146,1.80314,4.79136,4.79136,0,0,0-.91977,2.2074c-.12418.81525-.18181,1.656-.369,2.44327l-.50679,2.38263-.37412,2.43769c-.09649.82082-.19119,1.64634-.23809,2.48682a10.45138,10.45138,0,0,0,.0985,2.6014.32036.32036,0,0,0,.59948.08186l.0411-.08186a38.17166,38.17166,0,0,1,2.49977-3.971l1.32851-1.976,1.283-1.99667a23.36966,23.36966,0,0,1,1.46744-1.9166,4.73741,4.73741,0,0,0,.95818-2.13493,9.29152,9.29152,0,0,0-.71763-5.47005A.49448.49448,0,0,0,315.66584,419.8153Z" fill="#8b9d36"/><path d="M341.73438,426.08787a18.5378,18.5378,0,0,0-3.95694-3.36483q-1.09823-.70307-2.2657-1.31131c-.78285-.38987-1.58849-.71987-2.40239-1.06-.82239-.28165-1.62513-.74634-2.46695-1.05289a4.87637,4.87637,0,0,0-2.60721-.32465,7.93941,7.93941,0,0,0-5.10721,2.77361.46824.46824,0,0,0,.00938.621l.01742.01887a10.818,10.818,0,0,0,2.36733,1.91884,11.0955,11.0955,0,0,0,2.20249,1.05132,4.91,4.91,0,0,0,2.20384.21476,14.0155,14.0155,0,0,1,2.301-.21286c.7565.03306,1.5264.05629,2.28781.13971q1.1629.05478,2.32691.21833a32.31677,32.31677,0,0,1,4.72036.893l.03216.0086a.33008.33008,0,0,0,.33771-.53147Z" fill="#8b9d36"/><path d="M324.28753,423.96812a6.8617,6.8617,0,0,0-3.05593.63053,7.77743,7.77743,0,0,0-2.22527,1.52171,4.83813,4.83813,0,0,0-1.28943,2.21847c-.23742.84863-.36764,1.73613-.59479,2.56243l-.29907,1.25268-.228,1.26775a24.08891,24.08891,0,0,0-.17668,2.56456,16.30607,16.30607,0,0,0,.74154,4.97074.33285.33285,0,0,0,.63187.01117l.00826-.02435a26.08066,26.08066,0,0,1,1.74082-4.24842,20.49021,20.49021,0,0,1,1.08662-1.90454l.5604-.91832.6131-.88448a11.10248,11.10248,0,0,1,1.473-1.59754,4.23928,4.23928,0,0,0,1.09488-1.76963,11.575,11.575,0,0,0,.37926-5.20783l-.00425-.03172A.4746.4746,0,0,0,324.28753,423.96812Z" fill="#50661a"/><path d="M342.99008,439.39239c-1.26195-1.08014-2.55785-2.06535-3.83544-3.06821l-1.92754-1.461-1.93871-1.39373a20.43335,20.43335,0,0,1-1.81877-1.5742,4.74631,4.74631,0,0,0-2.01868-1.08907,9.67075,9.67075,0,0,0-2.42942-.29539,13.34808,13.34808,0,0,0-1.37.0832,13.60532,13.60532,0,0,0-1.58582.28255l-.02524.00658a.48863.48863,0,0,0-.36406.50188,6.34814,6.34814,0,0,0,.36406,1.651,9.77521,9.77521,0,0,0,.64639,1.35208,8.69775,8.69775,0,0,0,1.71737,2.05083,4.90739,4.90739,0,0,0,2.20607,1.11488c.82239.18661,1.67225.29694,2.45533.53158l2.37.64125,2.40708.51829c1.62111.29673,3.23484.58642,4.90084.73841a.33542.33542,0,0,0,.36473-.30365A.34368.34368,0,0,0,342.99008,439.39239Z" fill="#50661a"/><path d="M296.51949,410.59279a7.97889,7.97889,0,0,0-1.65393,2.35907,7.51364,7.51364,0,0,0-.639,2.245,3.86626,3.86626,0,0,0,.34039,2.11662c.30845.67709.69083,1.34157.93116,2.02805l.78286,2.04927.91843,2.02538a17.72647,17.72647,0,0,0,2.40485,3.90713.32538.32538,0,0,0,.56777-.22726l-.00268-.07416a41.59086,41.59086,0,0,1,.16908-4.2378l.13624-2.13371.08131-2.12443a19.05044,19.05044,0,0,1,.28075-2.1538,3.78984,3.78984,0,0,0-.26936-2.07139,7.7334,7.7334,0,0,0-1.21572-1.94775,8.44492,8.44492,0,0,0-2.19646-1.8381A.52966.52966,0,0,0,296.51949,410.59279Z" fill="#50661a"/><path d="M289.0282,413.71338l-.37256.09549-.30956.11447-.61155.236a5.94971,5.94971,0,0,0-.94814.5595,4.35191,4.35191,0,0,0-1.25636,1.31846,2.07571,2.07571,0,0,0-.25172,1.5608c.11011.55336.31627,1.12336.37166,1.66175a15.011,15.011,0,0,0,.7661,3.28554,6.41469,6.41469,0,0,0,1.93269,2.98312.341.341,0,0,0,.54319-.26111l.00291-.07337a7.74437,7.74437,0,0,1,.72232-2.7209c.17578-.43956.34888-.86382.56352-1.29858l.55415-1.29a8.21277,8.21277,0,0,1,.79849-1.25178,1.68559,1.68559,0,0,0,.27562-1.33633,4.61522,4.61522,0,0,0-.63455-1.56013,7.29938,7.29938,0,0,0-.60395-.87208l-.43175-.47787-.216-.24178-.2774-.2601-.019-.01764A.64834.64834,0,0,0,289.0282,413.71338Z" fill="#8b9d36"/><path d="M287.60365,413.50365a9.01759,9.01759,0,0,0-.22157-3.06117,9.19616,9.19616,0,0,0-.94188-2.37191,4.818,4.818,0,0,0-1.643-1.70944c-.68882-.43778-1.42835-.82853-2.05887-1.32148l-1.92264-1.44889-1.9836-1.39407-4.05231-2.72123-.00827-.00547a.33383.33383,0,0,0-.49718.39857,41.90811,41.90811,0,0,0,2.1806,4.47334l1.22108,2.1261,1.30282,2.05229c.44827.67062.788,1.4432,1.182,2.16508a4.83315,4.83315,0,0,0,1.609,1.76707,9.09705,9.09705,0,0,0,2.31976,1.09555,8.85253,8.85253,0,0,0,3.0499.39679A.49175.49175,0,0,0,287.60365,413.50365Z" fill="#50661a"/><path d="M278.99313,416.38883a9.679,9.679,0,0,0-.78889-3.18145,10.86588,10.86588,0,0,0-1.44153-2.41882,5.9954,5.9954,0,0,0-2.06468-1.67392c-.81167-.40841-1.668-.76064-2.42942-1.22778l-2.31507-1.36157-2.37291-1.28473c-1.60592-.82429-3.20379-1.65494-4.87559-2.38654a.33121.33121,0,0,0-.40651.48971l.008.012c1.04172,1.52316,2.15738,2.94738,3.26477,4.37785l1.69726,2.0974,1.75534,2.02069c.59524.66012,1.09555,1.43538,1.64076,2.15436a5.88974,5.88974,0,0,0,2.0055,1.70821,10.844,10.844,0,0,0,2.62887.96344,9.944,9.944,0,0,0,3.2813.20068A.46568.46568,0,0,0,278.99313,416.38883Z" fill="#5e7c24"/><path d="M278.78831,425.343a8.09369,8.09369,0,0,0-.08309,2.83883,7.38634,7.38634,0,0,0,.66872,2.17413,3.67261,3.67261,0,0,0,1.39619,1.53075,20.95823,20.95823,0,0,1,1.82815,1.149l1.69615,1.26575,1.76807,1.20209c1.2088.7747,2.41,1.55622,3.70411,2.25565a.341.341,0,0,0,.47976-.42415c-.53583-1.36994-1.16434-2.6578-1.785-3.95247l-.97651-1.902-1.04842-1.83843a20.96038,20.96038,0,0,1-.91665-1.955,3.67312,3.67312,0,0,0-1.34816-1.57319,7.38262,7.38262,0,0,0-2.07585-.93,8.09622,8.09622,0,0,0-2.82767-.26523A.5351.5351,0,0,0,278.78831,425.343Z" fill="#5e7c24"/><path d="M280.06188,433.55638l-.39847.04712-.33994.08064-.67342.17589a5.85608,5.85608,0,0,0-1.08505.50924,4.907,4.907,0,0,0-1.55231,1.37966,2.777,2.777,0,0,0-.54833,1.8056c.01831.66447.13624,1.345.12708,1.98584a14.27816,14.27816,0,0,0,.5021,3.86972,9.49377,9.49377,0,0,0,1.75981,3.45975.3459.3459,0,0,0,.60462-.17835l.00313-.02345a13.64078,13.64078,0,0,1,.83422-3.21842,14.64748,14.64748,0,0,1,.63612-1.44745c.199-.46915.44871-.93831.67073-1.39507a7.85442,7.85442,0,0,1,.95394-1.29645,2.11033,2.11033,0,0,0,.49049-1.416,5.87891,5.87891,0,0,0-.33034-1.77711,9.066,9.066,0,0,0-.40852-1.04251l-.3147-.59055-.15456-.29985-.20929-.33146-.02367-.03752A.56508.56508,0,0,0,280.06188,433.55638Z" fill="#50661a"/><path d="M278.80707,417.476l-.379-.10476-.33347-.05952-.66247-.12285a7.77974,7.77974,0,0,0-1.12816-.059,5.45831,5.45831,0,0,0-1.82681.28891,2.19684,2.19684,0,0,0-1.21035.97661,9.55956,9.55956,0,0,1-.90459,1.39c-.35178.3845-.70423.79145-1.062,1.16669-.34709.41733-.70646.77917-1.081,1.15206a6.48968,6.48968,0,0,1-2.54177,1.77309l-.06343.02111a.33613.33613,0,0,0-.06991.60529,6.22918,6.22918,0,0,0,3.96878.52957,15.98955,15.98955,0,0,0,3.70164-.99192c.56643-.23865,1.23359-.35624,1.83575-.55849a2.653,2.653,0,0,0,1.44934-1.08081,5.064,5.064,0,0,0,.75338-1.86735,6.34393,6.34393,0,0,0,.13222-1.17194l-.03886-.68693-.025-.34486-.07192-.39187a.5822.5822,0,0,0-.41678-.4562Z" fill="#8b9d36"/><path d="M326.00322,441.46473a52.03714,52.03714,0,0,1-.665-8.42774c.0127-.64551.03809-1.15137.05957-1.59082a12.05839,12.05839,0,0,0-.05566-2.51269c-.18262-1.38086-.60986-4.61231-2.709-6.52832a4.21934,4.21934,0,0,0-2.67286-1.06348,29.12406,29.12406,0,0,1-5.06884-1.25586c-3.26514-1.09668-5.23584-1.75879-6.79493-3.65625a6.42261,6.42261,0,0,1-1.26074-2.40723,4.22989,4.22989,0,0,0-1.08349-1.93652,7.53572,7.53572,0,0,0-6.64844-2.08594,5.78826,5.78826,0,0,0-3.01807,1.82422,7.91124,7.91124,0,0,1-3.99951,2.3457,6.70217,6.70217,0,0,1-2.47559.11231c-.54589-.04981-1.229-.10156-2.23486-.10059a24.95943,24.95943,0,0,0-7.37158,1.2334,1.08,1.08,0,0,0-.73535.88672,1.76356,1.76356,0,0,0,.27734,1.38965,2.41071,2.41071,0,0,1,.374,1.80469,49.94083,49.94083,0,0,0-.43457,7.832c.09082,4.27929.65381,5.35937,1.22217,6.09765a4.73111,4.73111,0,0,0,1.08887,1.02149,8.40175,8.40175,0,0,1,1.2998,1.14258,10.48092,10.48092,0,0,1,2.5293,5.27539l-.89941.16992a9.581,9.581,0,0,0-2.30176-4.82422,7.517,7.517,0,0,0-1.17383-1.0293,5.63915,5.63915,0,0,1-1.26807-1.19726c-.80664-1.04883-1.32421-2.52539-1.4121-6.63672a50.97627,50.97627,0,0,1,.44335-7.97852,1.51053,1.51053,0,0,0-.25341-1.208,2.65936,2.65936,0,0,1-.39893-1.97852,1.99826,1.99826,0,0,1,1.36328-1.63867,25.83694,25.83694,0,0,1,7.64209-1.27637,19.29078,19.29078,0,0,1,2.32569.10352,5.82485,5.82485,0,0,0,2.18652-.0918,6.95688,6.95688,0,0,0,3.57519-2.11719,6.69527,6.69527,0,0,1,3.459-2.05664,8.49639,8.49639,0,0,1,7.498,2.3457,5.12056,5.12056,0,0,1,1.29589,2.293,5.49137,5.49137,0,0,0,1.0962,2.10547c1.333,1.62207,3.01123,2.23731,6.3789,3.36914a28.42841,28.42841,0,0,0,4.92676,1.22071,5.07571,5.07571,0,0,1,3.14014,1.29c2.34619,2.14063,2.8042,5.6045,2.99951,7.083a12.9931,12.9931,0,0,1,.063,2.67969c-.02149.43066-.04639.92871-.0586,1.5625a50.97,50.97,0,0,0,.65235,8.25977Z" fill="#7e883b"/><path d="M284.19705,438.69307a7.19278,7.19278,0,0,0-1.95077,1.90912,6.28662,6.28662,0,0,0-.91017,1.95446,3.18878,3.18878,0,0,0,.09984,1.95513c.23407.64505.54923,1.28317.72188,1.92777.19342.64538.39333,1.28864.61,1.932.2506.64058.51237,1.27792.80162,1.91236a15.46645,15.46645,0,0,0,1.05892,1.87025,3.63008,3.63008,0,0,0,1.7674,1.55086.30771.30771,0,0,0,.37121-.42627l-.06611-.13669a3.64053,3.64053,0,0,1-.16417-1.60882c.03351-.59122.0927-1.195.1865-1.80381.073-.60685.17-1.219.27719-1.82983.07705-.60886.1693-1.22085.26735-1.83172a13.72594,13.72594,0,0,1,.50166-1.845,2.9444,2.9444,0,0,0-.031-1.822,6.66211,6.66211,0,0,0-.96645-1.82458,8.30557,8.30557,0,0,0-1.93447-1.87014l-.00871-.006A.56207.56207,0,0,0,284.19705,438.69307Z" fill="#8b9d36"/><path d="M343.928,448.86711c-1.262-1.08014-2.55785-2.06536-3.83544-3.06822l-1.92754-1.461-1.93872-1.39372a20.438,20.438,0,0,1-1.81877-1.5742,4.74613,4.74613,0,0,0-2.01867-1.08908,9.67076,9.67076,0,0,0-2.42942-.29538,13.34844,13.34844,0,0,0-1.37006.0832,13.60286,13.60286,0,0,0-1.58581.28254l-.02524.00659a.48862.48862,0,0,0-.36407.50187,6.34831,6.34831,0,0,0,.36407,1.651,9.77508,9.77508,0,0,0,.64639,1.35207,8.69777,8.69777,0,0,0,1.71737,2.05084,4.90749,4.90749,0,0,0,2.20606,1.11487c.82239.18661,1.67226.29695,2.45534.53158l2.37.64125,2.40709.51829c1.6211.29673,3.23484.58642,4.90083.73841a.33542.33542,0,0,0,.36474-.30365A.34365.34365,0,0,0,343.928,448.86711Z" fill="#8b9d36"/><path d="M325.57153,440.29259a7.97862,7.97862,0,0,0-1.65394,2.35907,7.5374,7.5374,0,0,0-.63142,2.18231,4.05576,4.05576,0,0,0,.33279,2.17933c.30845.6771.69084,1.34158.93117,2.02807l.02637.069a8.72543,8.72543,0,0,0,2.25041,3.299c.53116.48919,1.10453,1.0428,1.539,1.52816a.32538.32538,0,0,0,.56776-.22727l-.00268-.07415a9.53774,9.53774,0,0,1,.37784-2.54955,7.63749,7.63749,0,0,0,.25418-1.68466l.045-1.17615a19.18673,19.18673,0,0,1,.28155-2.15959,3.96238,3.96238,0,0,0-.29477-2.12253,7.75848,7.75848,0,0,0-1.19111-1.89082,8.44473,8.44473,0,0,0-2.19646-1.8381A.52965.52965,0,0,0,325.57153,440.29259Z" fill="#50661a"/><path d="M429.32646,414.06141c-7.17285,0-22.42334-11.07911-24.24365-12.4209a1.17817,1.17817,0,1,1,1.39844-1.89649c6.98193,5.14453,19.55908,12.917,23.56445,11.88477a1.17814,1.17814,0,1,1,.58985,2.28125A5.24734,5.24734,0,0,1,429.32646,414.06141Z" fill="#8b9d36"/><path d="M429.21318,414.94324a1.178,1.178,0,0,1-1.17382-1.09277l-2.84522-39.00684a1.17843,1.17843,0,1,1,2.35059-.17187l2.84521,39.00683a1.1791,1.1791,0,0,1-1.08935,1.26172C429.27129,414.94227,429.242,414.94324,429.21318,414.94324Z" fill="#8b9d36"/><path d="M441.18145,415.9784a1.25469,1.25469,0,0,1-.208-.01758,1.17907,1.17907,0,0,1-.9541-1.36621c.12988-.73047,3.36279-17.99707,19.791-25.66309a1.179,1.179,0,0,1,.99707,2.13672c-15.29394,7.13574-18.437,23.77246-18.46728,23.93946A1.17891,1.17891,0,0,1,441.18145,415.9784Z" fill="#8b9d36"/><path d="M439.772,410.78052c-.95825-1.87668-6.10781-1.87928-9.39613.42639a9.00485,9.00485,0,0,0-3.16717,4.156c-.55989,1.4422-1.456,3.74989-.21107,5.32825,1.01382,1.28523,3.11076,1.66045,5.173.95886a25.21488,25.21488,0,0,0,4.43416-4.36909C438.51248,414.86574,440.54441,412.29326,439.772,410.78052Z" fill="#5e7c24"/><path d="M443.784,410.56747c-.35884.94239.35312,2.02267,1.68912,4.04938a19.456,19.456,0,0,0,4.64523,4.90215,5.54209,5.54209,0,0,0,6.5457.74581,5.30208,5.30208,0,0,0,2.428-4.47576c-.02177-2.761-2.38075-4.4694-3.27257-5.1152C451.5005,407.54576,444.6518,408.28955,443.784,410.56747Z" fill="#5e7c24"/><path d="M456.45274,392.87776c.31474-.53652,1.13037-.26392,2.9561-.53305,1.44827-.21363,1.47491-.46484,4.53984-1.38525a17.47109,17.47109,0,0,1,3.90634-.95916c.5533.0026,3.68067.01677,4.75062,2.13136,1.12092,2.21519-.95425,4.88162-1.05563,5.00853-2.00615,2.50657-5.43365,2.38429-6.5457,2.3444a10.10568,10.10568,0,0,1-7.07352-3.40994C457.68049,395.79454,455.906,393.80917,456.45274,392.87776Z" fill="#5e7c24"/><path d="M427.63114,382.5407c-1.11434-.5611-.46223-4.126-.10567-6.07406a36.1551,36.1551,0,0,1,2.00586-6.07436c1.8475-4.86746,2.26906-5.39184,2.95611-5.64767,1.60778-.599,3.97421.53045,4.85658,2.23774,1.22145,2.36348-.651,5.35137-2.63936,8.52513C432.795,378.55521,429.08056,383.27033,427.63114,382.5407Z" fill="#5e7c24"/><path d="M427.20872,391.91861c.81964-1.3338-.68848-3.94213-2.21694-5.32825-1.283-1.16353-2.59582-1.47978-4.85658-2.02469-2.53912-.612-5.334-1.28552-6.12328-.10666-.75263,1.12392.7197,3.33188,1.05592,3.83632a9.33284,9.33284,0,0,0,4.32848,3.30356C421.6522,392.53261,426.15109,393.63948,427.20872,391.91861Z" fill="#c4ce6e"/><path d="M427.3144,402.25538c.03007-1.06119-1.50412-1.28118-4.64523-3.83632-2.49359-2.02845-2.56461-2.73379-4.012-3.19689-2.21579-.70882-5.10832-.03382-5.59546,1.38525-.11914.34747-.10225.76229,1.79479,3.83633,1.47577,2.39123,2.2284,3.5961,2.95611,4.04937a6.936,6.936,0,0,0,5.27872.53277C424.41643,404.71224,427.27373,403.69354,427.3144,402.25538Z" fill="#5e7c24"/><path d="M428.4689,389.9903c-1.03472-1.1716.00643-4.00291,1.2759-5.63374,1.06561-1.369,2.305-1.90843,4.43916-2.83774,2.397-1.04371,5.03542-2.19247,6.01383-1.16823.93294.9765-.14117,3.40718-.38642,3.96248a9.37661,9.37661,0,0,1-3.701,4.00585C434.04723,389.6304,429.804,391.50189,428.4689,389.9903Z" fill="#5e7c24"/><path d="M429.23453,401.00265c-.21047-1.04016,1.26336-1.52324,3.92223-4.58568,2.11075-2.43116,2.06051-3.13832,3.40743-3.84583,2.062-1.083,5.02641-.92025,5.74813.3931.17657.3216.23062.73317-1.11429,4.09076-1.04627,2.61183-1.58236,3.92941-2.222,4.50228a6.94617,6.94617,0,0,1-5.10925,1.44134C432.508,402.91972,429.51967,402.4123,429.23453,401.00265Z" fill="#5e7c24"/><path d="M412.3228,406.51781c-.14806-1.15631-2.05226-1.79458-4.32848-2.55746-2.05656-.68915-3.68926-1.23666-5.59546-.63943-.33708.10551-3.33557,1.04472-3.5896,3.30356-.228,2.02613,1.9337,3.50533,2.11155,3.62327a6.38645,6.38645,0,0,0,4.962.53277C408.85148,410.20931,412.54074,408.21873,412.3228,406.51781Z" fill="#5e7c24"/><path d="M420.87437,411.84606c-1.58974-1.13434-4.59024.78975-6.01789,1.70525a12.62065,12.62065,0,0,0-3.695,3.623c-1.09974,1.65034-2.1462,3.22117-1.58373,4.58243.80876,1.95676,4.30012,1.92756,4.7509,1.918a7.593,7.593,0,0,0,5.173-2.3444,8.07687,8.07687,0,0,0,2.00615-4.04938C421.7,416.39438,422.44321,412.96565,420.87437,411.84606Z" fill="#c4ce6e"/><path d="M408.20539,400.97651c-.89439-1.30055-.58108-2.22241-.95024-4.47576-.58681-3.58223-1.83518-4.041-1.37237-5.861.36428-1.43237,1.59862-2.9613,2.9561-2.98384,1.90134-.0318,3.1245,2.90694,3.37824,3.5166.92275,2.21664.58252,4.14911,0,7.45961-.38032,2.16113-.67043,3.70826-1.58344,3.943C409.751,402.802,408.70027,401.696,408.20539,400.97651Z" fill="#8b9d36"/><path d="M448.64034,400.65679c.28209-.79813,1.77733-.919,3.5896-1.06553,2.26419-.183,3.96133-.32029,5.59546.74582.25145.1639,2.89711,1.9397,2.428,4.04966-.36657,1.6486-2.41511,2.51352-3.906,2.55746-1.61781.04769-2.71783-.86694-4.75091-2.55746C449.99467,403.055,448.293,401.63965,448.64034,400.65679Z" fill="#8b9d36"/><path d="M451.2797,394.58273c-.40639-.0925-.43159-.65851-.95024-2.238-1.159-3.52875-2.0663-3.84934-1.90019-5.32825.18386-1.63617,1.53418-3.37843,2.74475-3.30356,1.31968.08152,2.109,2.2996,2.42829,3.19718a6.91331,6.91331,0,0,1,.42242,3.30356C453.72861,392.50457,452.16092,394.78364,451.2797,394.58273Z" fill="#5e7c24"/><path d="M425.09717,379.23743c-.616.87359-4.11368-.161-6.44-2.238-.594-.53016-3.22273-2.87746-2.53368-5.1152a2.63623,2.63623,0,0,1,2.11154-1.918c.98633-.02429,1.62755.97765,3.27285,3.40994C424.891,378.37829,425.36724,378.8544,425.09717,379.23743Z" fill="#8b9d36"/><path d="M444.31186,402.78815c-1.7716.48218-4.08963-3.25933-4.64523-4.156a13.748,13.748,0,0,1-2.11154-7.67265c.07589-1.69457.21422-4.78421,2.00586-5.5413,1.71662-.72529,4.03866,1.07594,5.173,2.45079,2.23842,2.71239,1.88244,6.22149,1.58373,9.16457C446.08518,399.32647,445.77416,402.39009,444.31186,402.78815Z" fill="#c4ce6e"/><path d="M444.56868,443.50691h-17.408l-5.60035-29.7116a1.18093,1.18093,0,0,1,1.15238-1.40536h26.304a1.18092,1.18092,0,0,1,1.15237,1.40536Z" fill="#e19974"/><path d="M449.76442,415.94213l.40467-2.14679a1.18093,1.18093,0,0,0-1.15238-1.40538h-26.304a1.18093,1.18093,0,0,0-1.15238,1.40538l.40467,2.14679Z" fill="#d6694b"/><polygon points="428.552 435.092 424.875 431.38 428.552 427.669 432.23 431.38 428.552 435.092" fill="#d6694b"/><polygon points="435.907 435.092 432.23 431.38 435.907 427.669 439.584 431.38 435.907 435.092" fill="#d6694b"/><polygon points="443.177 435.092 439.499 431.38 443.177 427.669 446.854 431.38 443.177 435.092" fill="#d6694b"/><polygon points="218.663 443.507 240.546 443.305 247.561 404.484 210.932 404.823 218.663 443.507" fill="#e19974"/><polygon points="211.814 409.239 210.932 404.823 247.561 404.484 246.76 408.916 211.814 409.239" fill="#d6694b"/><rect x="235.3881" y="424.95011" width="6.53767" height="6.53767" transform="translate(711.42768 557.89712) rotate(134.47064)" fill="#d6694b"/><rect x="226.14283" y="425.03553" width="6.53767" height="6.53767" transform="translate(695.76664 564.6399) rotate(134.47064)" fill="#d6694b"/><rect x="217.00403" y="425.11997" width="6.53767" height="6.53767" transform="translate(680.28597 571.30502) rotate(134.47064)" fill="#d6694b"/><path d="M220.42077,372.11912s-1.67075,27.16509,9.645,32.81429C230.06575,404.93341,233.86974,394.6049,220.42077,372.11912Z" fill="#558031"/><path d="M256.87074,383.44466s-18.39568,3.3493-26.805,21.48875C230.06575,404.93341,250.26344,397.86465,256.87074,383.44466Z" fill="#849f4c"/><path d="M250.66625,419.06439s-9.49991-13.9319-20.6005-14.131C230.06575,404.93341,231.84076,416.20544,250.66625,419.06439Z" fill="#a6b862"/><path d="M238.70717,375.82s-12.89179,11.99092-8.64142,29.11337C230.06575,404.93341,237.19756,397.23248,238.70717,375.82Z" fill="#849f4c"/><path d="M230.06575,404.93341s-4.72238-16.67895-27.85376-20.75335C202.212,384.18006,207.54933,399.35693,230.06575,404.93341Z" fill="#a6b862"/><path d="M196.24866,400.87446s17.55125-7.4261,33.81709,4.05895C230.06575,404.93341,208.60878,407.71085,196.24866,400.87446Z" fill="#849f4c"/><path d="M196.56518,417.78275s8.38117-13.70494,33.50057-12.84934Z" fill="#558031"/><path d="M266.53671,402.39061s-23.21766-8.36585-36.77753,2.13536C229.75918,404.526,242.79164,411.54825,266.53671,402.39061Z" fill="#558031"/><path d="M247.33312,377.72283s-20.51156,14.79341-17.43469,27.224C229.89843,404.94682,244.1162,393.32976,247.33312,377.72283Z" fill="#558031"/><path d="M211.49964,419.64078s16.99383-3.06306,18.56611-14.70737C230.06575,404.93341,217.63492,405.66429,211.49964,419.64078Z" fill="#849f4c"/><rect x="202.70072" y="441.93131" width="265.25937" height="13.18387" rx="2.37793" fill="#935b50"/><path d="M373.72192,273.97144c.92152-1.4513,3.91455-6.16406,8.85844-6.76039,4.623-.55775,9.54711,2.65344,11.8891,6.061.84074,1.22332.79126,1.66093,2.09806,3.49671,2.03624,2.86054,3.34494,3.46793,4.89552,5.82795a19.46183,19.46183,0,0,1,2.09806,4.66249c1.992,6.74553-2.20715,10.17141-.93244,17.25084a18.98351,18.98351,0,0,0,2.79731,6.76039c2.95855,4.94516,6.80291,7.43133,11.6559,10.49012,5.45644,3.43917,9.49035,5.98194,15.38581,6.76039,5.661.74747,7.127-.91188,12.01526.54637,1.24641.37184,7.1406,2.13047,9.89791,6.6804,4.45333,7.3485-.83236,19.41039-7.926,25.87609-6.65558,6.06636-14.43978,6.78474-26.80869,7.92617-9.1721.84644-14.988,1.383-20.98057-1.86518-3.48865-1.89112-7.51608-5.32427-12.82154-17.01749-5.2155-11.495-5.60077-17.60465-10.2571-40.56266C371.29993,288.96723,369.03239,281.35567,373.72192,273.97144Z" fill="#160b07"/><path d="M404.72666,333.88277l21.60229-3.03054L415.5278,303.73281l-17.3148-4.968a2.77728,2.77728,0,0,1-1.93237-1.8361c-.28463-.97315-.02393-2.05443,2.54037-2.05443h6.4558a1.85143,1.85143,0,0,0,1.83589-1.612l.256-1.96251s-4.97319,2.95283-3.72989-.93247c0,0-5.284,4.97319-4.81778,0,0,0-4.97319,3.41907-4.97319,0,0-2.45984,4.10254-4.83923,6.4045-5.98071a3.13523,3.13523,0,0,1,2.92023.075h0a4.55377,4.55377,0,0,1,3.8853.46624s2.79742-1.2433,4.97319.15541c0,0,3.26366-1.865,5.43943.46623s16.47368,28.59584,20.5144,33.2582a39.13029,39.13029,0,0,1,5.83163,8.69791,15.08859,15.08859,0,0,1-8.11124,20.31232,272.38634,272.38634,0,0,1-32.14418,10.309Z" fill="#f9977a"/><path d="M432.54546,337.61268a11.83424,11.83424,0,0,0-.78809-2.33472,7.966,7.966,0,0,0-1.306-1.99671,6.71177,6.71177,0,0,0-1.8518-1.48046,12.12313,12.12313,0,0,0-2.27063-.94861,6.37879,6.37879,0,0,1,2.493.49487,5.65709,5.65709,0,0,1,2.11218,1.50317A6.49657,6.49657,0,0,1,432.54546,337.61268Z" fill="#dd765e"/><path d="M407.3687,291.29981a3.09748,3.09748,0,0,0,2.01038.743,2.86538,2.86538,0,0,0,1.80981-.91052,29.97614,29.97614,0,0,1,3.48413-3.01843,27.84314,27.84314,0,0,1-3.03662,3.486,3.01748,3.01748,0,0,1-2.26709.94629A2.6556,2.6556,0,0,1,407.3687,291.29981Z" fill="#dd765e"/><path d="M398.821,290.36731a8.2462,8.2462,0,0,1,1.43677-1.97192,8.14686,8.14686,0,0,1,1.90466-1.52478,8.14919,8.14919,0,0,1-1.43677,1.97192A8.2431,8.2431,0,0,1,398.821,290.36731Z" fill="#dd765e"/><path d="M403.63872,290.36731a4.64323,4.64323,0,0,1,.91992-1.57043,4.58656,4.58656,0,0,1,1.41126-1.14917,4.58488,4.58488,0,0,1-.9198,1.57043A4.63806,4.63806,0,0,1,403.63872,290.36731Z" fill="#dd765e"/><path d="M407.31621,291.70179a6.98993,6.98993,0,0,1,1.047-1.98462,6.90853,6.90853,0,0,1,1.5697-1.60327,6.91125,6.91125,0,0,1-1.04687,1.98462A6.98988,6.98988,0,0,1,407.31621,291.70179Z" fill="#dd765e"/><path d="M405.27678,294.87427a10.61843,10.61843,0,0,1,3.76367-.73352,8.12065,8.12065,0,0,1,3.76758.73352c-1.285-.08655-2.50635-.11548-3.75512-.08655C407.80681,294.80774,406.56462,294.87769,405.27678,294.87427Z" fill="#dd765e"/><path d="M415.52776,303.73279a6.08629,6.08629,0,0,0,2.46069-1.85473,4.75408,4.75408,0,0,0,.70276-1.33326,12.56906,12.56906,0,0,0,.41113-1.552,3.96542,3.96542,0,0,1,.07813,1.67847,3.64181,3.64181,0,0,1-3.65271,3.06152Z" fill="#dd765e"/><path d="M382.81355,334.58212v-4.66236s14.94687,1.09834,15.39945-31.15491-26.58912-17.5668-26.58912-17.5668-11.42279,26.34236-11.65591,41.495.81,19.23487.81,19.23487S380.48237,387.73307,382.81355,334.58212Z" fill="#f9977a"/><path d="M368.36022,324.0918s6.99355,5.1286,14.45333,5.828v2.79742S375.82,333.76191,368.36022,324.0918Z" fill="#dd765e"/><path d="M387.16509,297.74939c-.07166,1.38086-.11218,2.75477-.05176,4.11707a12.67688,12.67688,0,0,0,.67737,3.965,11.155,11.155,0,0,1,.41333,2.0924,4.71227,4.71227,0,0,1-.20862,2.16,1.95439,1.95439,0,0,1-.687.91235,1.852,1.852,0,0,1-1.06519.33032,3.86386,3.86386,0,0,1-1.05847-.14367c-.33227-.1117-.65442-.24829-.97253-.37879l1.00818.21094a3.61011,3.61011,0,0,0,.9934-.00452,1.45257,1.45257,0,0,0,1.31311-1.09607,7.265,7.265,0,0,0-.34838-3.874,11.88677,11.88677,0,0,1-.561-4.16919A19.44293,19.44293,0,0,1,387.16509,297.74939Z" fill="#dd765e"/><path d="M381.41436,300.46766a.53965.53965,0,0,1-.33643-.11817c-2.748-2.18359-6.43115-.86328-6.46875-.84863a.54166.54166,0,0,1-.37695-1.01563c.17285-.0625,4.28662-1.55371,7.51953,1.01661a.54192.54192,0,0,1-.3374.96582Z"/><path d="M395.40166,297.28113a.5316.5316,0,0,1-.2373-.05566c-2.95362-1.44141-4.63184-.125-4.70166-.06836a.54178.54178,0,0,1-.69288-.833c.08985-.07715,2.25147-1.84082,5.87012-.07129a.54172.54172,0,0,1-.23828,1.02832Z"/><path d="M393.6924,303.64784a1.62553,1.62553,0,0,0,0-3.24912,1.62553,1.62553,0,0,0,0,3.24912Z"/><path d="M382.425,322.55679c5,0,5.0083-7.77061,0-7.77061-5,0-5.0083,7.77061,0,7.77061Z" fill="#dd2f22"/><path d="M376.67473,302.02332a1.98883,1.98883,0,0,1,.89673-.7417,2.80366,2.80366,0,0,1,1.12061-.24548,2.36128,2.36128,0,0,1,2.02343.98718,9.357,9.357,0,0,1-1.07592.07532l-.939.0199A16.18031,16.18031,0,0,1,376.67473,302.02332Z"/><path d="M308.91508,345.53869l16.7464-13.76195a28.308,28.308,0,0,1,29.20548-4.14742q.21836.0945.43865.1924s6.99354,27.7118,20.04816,24.57933c0,0,7.22667-.80129,7.45978-17.81894l21.91312-.69933a34.3323,34.3323,0,0,1,1.5869,13.10634c-.35626,4.82636-1.59347,10.79642-2.67479,13.283-6.68273,3.186-13.44314,4.2268-20.12587,7.41278l-1.13552,11.03073a14.10469,14.10469,0,0,1-3.8514,8.31919l-12.03071,16.31382-56.63925-1.153,11.18361-39.27635,1.89876-2.24437a17.81783,17.81783,0,0,1-14.02332-15.13626Z" fill="#f73c4f"/><path d="M354.66448,384.58826a14.668,14.668,0,0,0,9.94665,6.2052l1.48792.163c.49743.04162,1.00085-.00806,1.50183.00158a23.26021,23.26021,0,0,0,3.01147-.25085c.99732-.16846,1.98828-.41113,2.99378-.60864.98413-.27918,1.96155-.59241,2.97156-.8479-.92041.46789-1.87342.87817-2.81958,1.3225-.98829.31678-1.97767.67078-2.99659.91321a17.78421,17.78421,0,0,1-6.30163.31189,13.51116,13.51116,0,0,1-5.86206-2.385A11.67519,11.67519,0,0,1,354.66448,384.58826Z" fill="#b02336"/><path d="M327.65166,374.288a14.66643,14.66643,0,0,0,8.15979,8.41772l1.40491.5166c.47278.16.97326.233,1.45715.363a23.23979,23.23979,0,0,0,2.98328.48169c1.00866.07666,2.02881.07984,3.05237.13013,1.02233-.03394,2.04638-.10266,3.08813-.10742-1.00586.23254-2.02966.40136-3.05493.60473-1.03552.06946-2.08106.17481-3.12842.1648a17.78463,17.78463,0,0,1-6.19128-1.21485,13.50939,13.50939,0,0,1-5.11524-3.72619A11.67461,11.67461,0,0,1,327.65166,374.288Z" fill="#b02336"/><path d="M309.48337,346.15206l-15.95623,17.38a13.72268,13.72268,0,0,0,3.78529,21.45949l42.23124,22.44366a11.15647,11.15647,0,0,0,6.82022,1.21973,21.25814,21.25814,0,0,0,12.43849-6.46854s2.71971,8.78078,5.36172,1.78724c0,0,3.8853,6.37189,6.06107,1.08788,0,0,4.97319,4.04072,3.10824-6.83813,0,0,3.63432.01036.41845-6.21131s-19.68955.30565-24.81815,5.12342l-35.27856-25.48759,9.28324-10.973Z" fill="#f9977a"/><path d="M305.72917,372.26954a6.64666,6.64666,0,0,1,3.86817-1.4889,7.5604,7.5604,0,0,1,2.10132.14551,6.86969,6.86969,0,0,1,1.95654.7218c-.69214-.08569-1.35815-.18225-2.02576-.22119a13.61823,13.61823,0,0,0-1.98608-.00061,12.98007,12.98007,0,0,0-1.96521.27954A14.026,14.026,0,0,0,305.72917,372.26954Z" fill="#dd765e"/><path d="M370.22515,405.06153c-.67835-1.16394-1.29322-2.35706-1.89832-3.55457-.60644-1.1969-1.16064-2.41784-1.74353-3.62549l-.81226-1.84008a3.63384,3.63384,0,0,0-1.04858-1.53528,3.2415,3.2415,0,0,0-1.72754-.7301c-.65918-.13294-1.321-.24414-1.9779-.39637.67419.00843,1.3435.05786,2.01538.08545a3.62018,3.62018,0,0,1,1.98913.651,3.7245,3.7245,0,0,1,1.2782,1.683l.86377,1.8164c.5343,1.23,1.09729,2.4469,1.60816,3.68763C369.28386,402.54322,369.7863,403.78772,370.22515,405.06153Z" fill="#dd765e"/><path d="M373.33342,398.22339a36.41867,36.41867,0,0,1-2.69861-4.31787,3.26533,3.26533,0,0,0-1.73181-1.46692c-.78051-.23571-1.61633-.49768-2.40771-.80737a22.2955,22.2955,0,0,1,2.55054.32971,3.40042,3.40042,0,0,1,2.14526,1.63111A35.6906,35.6906,0,0,1,373.33342,398.22339Z" fill="#dd765e"/><path d="M308.91508,345.53869s3.31819,11.0998,14.67956,15.6537Z" fill="#f73c4f"/><path d="M325.93682,362.85828l-3.21143-1.47949.42578-.92383,2.71289,1.251c1.83985-1.15235,14.1084-8.86719,20.50733-13.77344,6.64355-5.09375,3.8081-16.83887,3.77881-16.957l.98632-.2461c.127.50782,3.02881,12.50879-4.147,18.00977-6.93262,5.31641-20.68213,13.88867-20.82031,13.97461Z" fill="#b02336"/><path d="M390.73956,279.56637a7.0393,7.0393,0,0,1-3.26368,3.96277c-1.81111.90555-2.82007.10592-5.59476.93243-1.30649.38923-3.41972,1.01907-4.66234,2.79762-1.33778,1.91483-.15161,2.99366-1.39881,5.59493a11.62023,11.62023,0,0,1-4.19611,4.42914c-2.22485,1.51074-2.95461,1.08673-3.96293,2.33125-.4025.49673-1.171,1.65618-1.16562,5.5946a47.71256,47.71256,0,0,0,.69925,6.52736c.33563,3.62382-.58321,4.80794-1.39866,10.02407-.91046,5.82416-.01169,5.92724-.6994,10.02407-1.54426,9.19914-6.24311,9.67817-7.926,19.34905-.79126,4.5474-1.16547,8.62526-1.16547,8.62526-.45531,4.96129-.19161,6.13339-1.16562,7.69283-2.06249,3.30194-7.01571,4.08418-9.791,3.96308-9.22854-.40282-14.80292-12.68035-15.61884-14.45321a33.60619,33.60619,0,0,1-2.33124-20.04846c1.58425-7.88317,4.55024-7.254,12.58834-23.77787,2.57835-5.30056,4.533-9.31835,6.76055-15.15262,3.0678-8.03494,2.88615-9.6475,5.36174-13.05472,3.45813-4.75956,7.78151-7.075,13.28759-10.02407,5.89072-3.15523,8.83615-4.73269,12.5885-4.42915C384.93912,271.06157,389.545,277.7192,390.73956,279.56637Z" fill="#160b07"/><path d="M364.51665,404.756a27.08359,27.08359,0,0,1-2.04614-3.91285l-.42041-.99816a2.531,2.531,0,0,0-.57373-.79224,3.16348,3.16348,0,0,0-1.91077-.77588,2.64919,2.64919,0,0,1,2.22424.38831,2.68932,2.68932,0,0,1,.8.90673c.17993.36048.30994.6764.46643,1.01709A27.09508,27.09508,0,0,1,364.51665,404.756Z" fill="#dd765e"/><path d="M396.63079,286.54651l-1.20789,1.9a7.963,7.963,0,0,0-.93628,1.91662c-.09131.32715-.06482.58423.09717.70667a1.61206,1.61206,0,0,0,.89136.20044,19.25468,19.25468,0,0,0,2.21264-.22534,6.84689,6.84689,0,0,1-2.18347.72973,1.923,1.923,0,0,1-1.28332-.21045,1.04635,1.04635,0,0,1-.40918-.67407,1.8175,1.8175,0,0,1,.04638-.68188,5.94414,5.94414,0,0,1,1.15369-2.05225A10.13966,10.13966,0,0,1,396.63079,286.54651Z" fill="#dd765e"/><path d="M398.21868,294.89991a7.356,7.356,0,0,0-1.2251.75256c-.35669.28723-.55115.60864-.44629.947a2.64171,2.64171,0,0,0,.6709,1.08118c.31177.35559.66333.69409.99487,1.08423a4.88415,4.88415,0,0,1-1.34082-.71582,2.39115,2.39115,0,0,1-.959-1.32032,1.30284,1.30284,0,0,1,.15344-.93066,1.8199,1.8199,0,0,1,.649-.56531A2.97482,2.97482,0,0,1,398.21868,294.89991Z" fill="#dd765e"/></svg>