<svg id="Layer_1" data-name="Layer 1" xmlns="http://www.w3.org/2000/svg" viewBox="0 0 900 600"><path d="M401.40446,338.58252l7.57629,26.91684,3.69106,17.37529-5.63368,27.65377-24.49794-7.70691L380.025,346.35558l2.14742-10.87875s1.33886-5.97769,10.28544-1.436Z" fill="#fd8b66"/><path d="M380.88084,365.57066l1.0658,23.92407c12.16887-1.96192,23.58048-3.918,30.34445-4.75067l.38074-1.8697-3.69092-17.37484-.6065-2.15437c-3.56208.57124-7.847,1.65318-10.3704,1.52038C396.35063,364.77858,389.465,365.56276,380.88084,365.57066Z" fill="#d04719"/><path d="M305.01494,474.34533c-35.23662-7.07028-68.75391-19.04582-95.33017-45.36093-21.50251-21.29123-35.4473-49.82347-40.21422-79.70575-6.12576-38.40054,3.54423-78.77324,25.18537-110.93969,18.91532-28.11487,33.00967-73.791,63.13993-88.138,37.29745-17.75973,87.52281-11.36495,126.45375-25.57468,70.95047-25.89682,59.226-32.74143,134.02538-23.63229,43.2726,5.26978,86.66571,18.20607,120.96128,46.08953a173.854,173.854,0,0,1,26.6145,26.98966c55.88179,70.60066,56.94355,183.296-2.9295,251.92209-16.52793,18.94419-37.61031,33.78856-60.49778,44.05293-50.91874,22.83561-108.88151,24.068-163.693,21.69643-62.101-2.68693-37.1148-3.31754-98.77655-11.70664C328.24545,478.44509,316.53825,476.65751,305.01494,474.34533Z" fill="#ffe3c2"/><path d="M587.92857,504.86417c.55662-.03819,1.11245-.08569,1.66887-.126.53045-.03844,1.03026-.09353,1.56359-.16344-.14785.01938-.58936.076.099-.01218,1.42995-.18314,2.85865-.37853,4.28218-.60664q.83827-.13433,1.67441-.28162.33413-.05895.66791-.11989l.33354-.06148q.68983-.13121-.04643.01294a6.3089,6.3089,0,0,1,1.62824-.03291,12.35874,12.35874,0,0,0,2.67871-.419c4.52238-1.11589,8.99874-2.51375,13.40419-4.02135,2.47439-.84678,4.9001-1.93981,7.30091-2.96808,2.18921-.93764,4.38483-1.894,6.50084-2.98719q6.05457-3.12792,11.85418-6.72017a202.26034,202.26034,0,0,0,38.46023-30.86353,211.52894,211.52894,0,0,0,29.99725-39.12305,208.42621,208.42621,0,0,0,11.17237-21.4169,190.51708,190.51708,0,0,0,14.765-47.23953c.81918-4.62264,1.47382-9.27784,2.01216-13.9411.22887-1.98242.20274-3.94879.28235-5.93868q.122-3.04962.14547-6.10212a15.56893,15.56893,0,0,0-.33033-4.70816,14.535,14.535,0,0,0-2.83043-4.91586l1.69982,2.91664a19.611,19.611,0,0,0-.8386-2.37987c-.85459-2.28515-2.85081-4.29779-5.48965-4.1796a6.753,6.753,0,0,0-2.87338.77726,6.07209,6.07209,0,0,0-2.61628,3.40234,24.75325,24.75325,0,0,0-.92925,2.37987l1.69982-2.91664a15.10312,15.10312,0,0,0-1.76233,2.39246,10.44853,10.44853,0,0,0-1.55823,4.903c-.11473,1.11425-.19892,2.23184-.30925,3.34668-.22552,2.27889-.56465,4.54634-.78841,6.82421l.29814-2.21886c-.91441,3.3181-.99837,6.90551-1.45207,10.31619q.15328-1.14061.30653-2.28121a214.54358,214.54358,0,0,1-10.49156,42.597q-2.07659,5.89938-4.50808,11.6648.41607-.986.83216-1.972a209.597,209.597,0,0,1-20.07256,36.78976q-3.36777,4.9209-7.01483,9.64162l1.16649-1.5098a206.20006,206.20006,0,0,1-27.44118,29.26735q-4.269,3.72338-8.75115,7.19121l1.31582-1.01659a186.90626,186.90626,0,0,1-20.67807,13.91711c-3.91216,2.26109-7.82261,4.51812-11.87108,6.531-2.013,1.00085-3.97891,2.05949-6.04,2.9649-.45811.20125-.91585.43352-1.388.59986,1.36247-.47993-.37642.1513-.70247.28357q-1.72977.70177-3.481,1.34935a23.51352,23.51352,0,0,0-4.18495,1.72209c-.18565.113-.3777.21812-.56654.326s-.3781.21529-.56765.32207q.577-.2088.17023-.069c-.59334.17747-1.17756.391-1.76805.57877-2.46519.78371-4.96283,1.4719-7.4622,2.13433a3.141,3.141,0,0,0,.83367,6.16Z" fill="#ffe3c2"/><path d="M708.17481,216.31774q2.03293,3.55985,3.82446,7.2492c.14334.296.28677.59213.42644.88989.03162.06742.47807,1.06.16833.34262.34249.79319.63963,1.60658.99674,2.3934.5895,1.29879,1.21224,2.58113,1.78451,3.88818.13214.30182.26157.60484.39278.90709.4432,1.02094-.32538-.80164.09192.21822.24638.60209.49423,1.20346.734,1.80824.481,1.21338.97858,2.42024,1.452,3.63668q1.48285,3.81052,2.70766,7.71486a137.86452,137.86452,0,0,1,3.891,15.583q.36684,1.93559.67156,3.88225c.10159.649.19449,1.29922.28911,1.94929.17047,1.171-.15351-1.23348-.00795-.06216.05381.433.10947.86569.1607,1.299q.46138,3.90141.66906,7.82729c.14407,2.72981.353,5.45736.45576,8.18939q.07389,1.96589.08248,3.93355a11.30456,11.30456,0,0,0,.17072,2.93352,5.90976,5.90976,0,0,0,2.60481,3.47625c2.32994,1.33763,4.87223.03764,6.14519-2.0666,1.03251-1.70674.9454-4.01777,1.06072-5.98194a79.2513,79.2513,0,0,0,.18714-8.19334,116.58532,116.58532,0,0,0-2.19892-16.97181A116.24065,116.24065,0,0,0,723.16989,228.419a104.5376,104.5376,0,0,0-10.75175-15.37536,2.67927,2.67927,0,0,0-3.54748-.21122,2.71232,2.71232,0,0,0-.69585,3.4853Z" fill="#ffe3c2"/><path d="M161.69608,402.28757a10.32652,10.32652,0,0,1-.06511,1.46207,8.279,8.279,0,0,0,.20868,2.7093c.25169.99219.55861,1.97437.85725,2.95338.58406,1.91471,1.16862,3.81813,1.92153,5.67256,1.69034,4.16339,3.53349,8.2603,5.62934,12.23612a116.7712,116.7712,0,0,0,14.702,21.217,126.93068,126.93068,0,0,0,39.1157,30.6076,98.18013,98.18013,0,0,0,13.98741,5.88231,59.01669,59.01669,0,0,0,6.49157,1.75112c1.15047.23216,2.3048.4568,3.46406.64046a10.10078,10.10078,0,0,0,4.645-.14463,8.43148,8.43148,0,0,0,2.50683-1.19663,5.54431,5.54431,0,0,0,1.93852-7.39306,8.74447,8.74447,0,0,0-1.85829-2.469,13.13559,13.13559,0,0,0-1.77575-1.38616,15.7447,15.7447,0,0,0-2.43849-.99891q-1.981-.75117-3.93321-1.57467l1.76336.74414c-2.57769-1.09076-5.19861-2.06719-7.77741-3.15474l1.83728.77533c-2.16528-.91933-4.32071-1.86-6.4885-2.77387l1.86515.78709a123.49234,123.49234,0,0,1-27.04568-15.84148l1.55322,1.2a132.22832,132.22832,0,0,1-23.62141-23.50462q.57047.73839,1.14093,1.47677c-2.99746-3.88609-5.84877-7.926-8.47055-12.07521-2.62043-4.14707-4.87815-8.48625-7.14778-12.82588-.64438-1.23208-1.25041-2.48621-1.84009-3.74523a10.39222,10.39222,0,0,0-1.58349-2.66807c-.22191-.25255-.46958-.488-.69638-.73746-.28178-.30992-.826-1.17928-.075-.012a4.83162,4.83162,0,0,0-5.33948-2.17285c-1.879.60808-3.6334,2.44425-3.47119,4.55921Z" fill="#ffe3c2"/><path d="M449.13232,356.77539a1.02872,1.02872,0,0,1-.26416-.03516,1.00067,1.00067,0,0,1-.70117-1.22851c.14551-.53125,3.64307-13.11524,11.46582-22.81152,7.4292-9.209,6.53711-21.76368,6.52686-21.88965a1,1,0,0,1,1.99365-.15918c.04395.54492.97656,13.46191-6.96387,23.30468-7.55371,9.36329-11.05859,21.957-11.09326,22.083A1.00038,1.00038,0,0,1,449.13232,356.77539Z" fill="#230000"/><path d="M467.47526,369.79511s-10.40311-8.96587-15.32446-7.6551.259,8.75613,0,12.41546,1.03607,6.76755,13.08041,6.50853Z" fill="#fd8b66"/><path d="M535.57954,315.37582s-17.50865.02711-21.78245,8.57471S496.7019,366.3,495.14779,366.3s-27.36957,1.55411-27.36957,1.55411l-2.547,16.31814s33.41333,9.69034,38.07565,7.56486,12.35856-14.16982,12.35856-14.16982-11.193,24.86573-8.47329,26.80836,20.64181,17.48372,28.38741,18.6493,34.554,5.05085,34.554,5.05085v5.82791l18.6493,3.42943s12.43286-38.4197,12.43286-45.596,3.10822-49.43615-7.9648-59.19414A163.50849,163.50849,0,0,0,570.522,315.98566Z" fill="#376f92"/><path d="M434.36441,424.64125c35.48537,16.31816,11.91492,37.03956,11.91492,37.03956H298.89808l-7.45723-7.31471,5.385-13.66586,28.97684-26.74095,61.47477,6.21643,26.36555-3.36723Z" fill="#56cbb8"/><path d="M408.98075,268.19441s-2.5902-2.59034-1.81318-8.54751c.777-5.95744-12.43289-7.51175-11.65586-14.50521,0,0-9.32454,8.67714-15.282,7.1231,0,0,6.99346-7.64112,6.21644-11.7855,0,0-6.864,12.43289-16.44763,10.61983s-6.73446,6.60483-11.13785,13.33955c-4.40326,6.73446-7.641,6.60482-7.641,2.59007s-3.10822-5.69843-6.99346-5.18041-9.32467,8.93615-4.7919,15.02322c4.53289,6.08681,8.80665,4.53277,8.80665,4.53277s2.4607,16.577-.64752,16.836c0,0-1.813,5.95743,0,8.80678,1.813,2.84908,26.93783,31.34122,34.579,11.13759,0,0-1.036-7.51148,0-8.93589,0,0,11.26722-1.2953,16.96564-7.64112.76636-.85343,1.5389-1.699,2.30354-2.52631C403.79547,295.50929,407.33185,287.15676,408.98075,268.19441Z" fill="#fd8b66"/><path d="M578.87536,277.71579s-3.88525-3.30255-6.99347,2.13688-5.43935-4.27376-6.79921-7.77049-4.07956-5.05091-7.77055-9.71318c-3.691-4.6624-6.79921-12.8214-6.79921-12.8214S541.771,268.974,520.5963,269.9453c0,0,.33865,13.20437.858,16.38044l.11337.52039c.02766.08313.021.1054-.00152.09828-.02128,1.57144-.06732,23.2697,13.59994,24.76749a23.455,23.455,0,0,1,0,8.93616c-.97128,4.66226,20.20344,16.31813,35.356-4.6624,0,0-1.35986-20.39757,1.1656-20.39757a23.5433,23.5433,0,0,0,6.41069-1.47868S587.61725,287.429,578.87536,277.71579Z" fill="#fd8b66"/><rect x="430.89625" y="339.44926" width="30.29469" height="53.70142" rx="3" transform="translate(139.20944 -122.55927) rotate(18.4919)" fill="#ffb957"/><g opacity="0.65"><path d="M448.6325,379.30306a16.94789,16.94789,0,0,1-10.69756-21.44835l6.79164-20.30745-1.4613-.489a3.23819,3.23819,0,0,0-4.09775,2.0436l-14.97869,44.78748a3.23822,3.23822,0,0,0,2.04386,4.09775l22.58951,7.55469a3.2375,3.2375,0,0,0,4.09722-2.0436l3.83848-11.47748Z" fill="#ca5303"/></g><path d="M395.5118,245.14174s-9.32465,8.6771-15.28206,7.123c0,0,6.99348-7.641,6.21643-11.78532,0,0-6.864,12.43286-16.44764,10.61973s-6.73447,6.605-11.13778,13.33943-7.641,6.605-7.641,2.59018-3.10822-5.69839-6.99349-5.18036-9.32465,8.93612-4.79183,15.023,8.80661,4.53281,8.80661,4.53281,2.46067,16.57716-.64754,16.83617-5.18036-5.69839-12.9509-5.69839-14.764-.518-14.764-10.61974,1.29509-10.36072-2.59018-16.05912-10.36072-13.46894-2.8492-18.13126,11.91483-9.84268,13.46894-14.246,8.80661-5.95742,15.28206-3.10822,14.246-4.92134,19.94439-6.73447a27.39,27.39,0,0,1,21.23948,2.33117c7.2525,4.14429,9.32464-1.81313,18.13126,6.21643s7.51152,15.54108,11.13777,23.31162,10.61974,8.02956,9.58367,14.246-4.66233,10.10171-1.03607,14.505,4.14429,9.84269-.518,9.84269-6.21643.79347-8.54759,4.15249-13.987,3.359-13.987,3.359,7.25251-3.62625,9.84269-33.41333c0,0-2.59018-2.59018-1.81313-8.54759S394.73475,252.13523,395.5118,245.14174Z" fill="#5e1212"/><path d="M376.92676,258.71289a.74868.74868,0,0,1-.39258-.11133c-4.6377-2.85449-10.88184.01074-10.94385.04a.75.75,0,0,1-.63818-1.35742c.28467-.13477,7.03271-3.24414,12.36816.04a.74988.74988,0,0,1-.39355,1.38867Z" fill="#230000"/><g opacity="0.8"><path d="M385.0863,264.95654a28.94642,28.94642,0,0,1,2.26282,5.07886,33.73168,33.73168,0,0,1,1.41614,5.386,17.83963,17.83963,0,0,1,.27051,2.85351,8.11952,8.11952,0,0,1-.13648,1.542,3.15128,3.15128,0,0,1-.28918.87623l-.13367.23291c-.06519.08374-.13782.1665-.21155.24438a1.70172,1.70172,0,0,1-.38891.3,3.97833,3.97833,0,0,1-3.12439.45581,6.65771,6.65771,0,0,1-2.57923-1.23438,10.6187,10.6187,0,0,0,2.67383.25708,3.76857,3.76857,0,0,0,1.18933-.206,2.21268,2.21268,0,0,0,.90637-.52271c.25074-.14965.28858-1.04345.20142-1.87377-.07214-.84229-.19958-1.71851-.34985-2.59424C386.21008,272.22754,385.407,268.67749,385.0863,264.95654Z" fill="#d04719"/></g><path d="M403.15234,262.79688a.74023.74023,0,0,1-.3125-.06836c-3.812-1.751-8.91992-1.4961-8.97021-1.49122a.75017.75017,0,0,1-.083-1.498,23.44416,23.44416,0,0,1,9.6792,1.626.75.75,0,0,1-.31348,1.43165Z" fill="#230000"/><path d="M373.23625,283.99444s.19426,5.63365,5.63364,5.24512" fill="#ca5303"/><g opacity="0.8"><path d="M344.87378,267.48193a2.4548,2.4548,0,0,0-1.72778,1.94873,7.554,7.554,0,0,0,.219,2.66773,11.47633,11.47633,0,0,0,.85815,2.68262,3.98716,3.98716,0,0,0,2.0105,2.02563,3.18532,3.18532,0,0,1-3.28406-1.10327,6.74842,6.74842,0,0,1-1.53918-3.18359,5.64063,5.64063,0,0,1,.265-3.63111,2.81929,2.81929,0,0,1,1.41943-1.3789A2.3788,2.3788,0,0,1,344.87378,267.48193Z" fill="#d04719"/></g><g opacity="0.8"><path d="M573.63025,290.61426a2.45427,2.45427,0,0,0,2.36536-1.08985,7.55439,7.55439,0,0,0,.87146-2.53076,11.47249,11.47249,0,0,0,.29223-2.80127,3.988,3.988,0,0,0-1.02685-2.66308,3.1856,3.1856,0,0,1,2.56384,2.33008,6.74906,6.74906,0,0,1,.12988,3.53393,5.64035,5.64035,0,0,1-1.7019,3.21826,2.8198,2.8198,0,0,1-1.85388.69239A2.377,2.377,0,0,1,573.63025,290.61426Z" fill="#d04719"/></g><path d="M372.4592,271.67468c2.89553,0,2.90033-4.5,0-4.5-2.89554,0-2.90033,4.5,0,4.5Z" fill="#230000"/><path d="M397.90772,277.11406c2.89553,0,2.90033-4.5,0-4.5-2.89554,0-2.90033,4.5,0,4.5Z" fill="#230000"/><path d="M397.325,401.32952c-4.27389-9.71317-6.21644-25.25415-6.60508-35.356-.38852-10.10155-2.6188-26.03117-2.6188-26.03117s6.30985,3.10809,8.44673.777,1.94255-2.33107,4.85659-2.13688,6.21644-2.52552,4.46807-3.88537-10.68439-16.12407-23.7001-16.51245c-7.64112,20.20363-32.7659-8.28851-34.579-11.13759a7.63581,7.63581,0,0,1-.77386-4.41867h0s-22.27873,6.23172-26.164,13.22519c-3.88538,6.99346-5.69843,22.27543-7.51149,33.9313-1.81331,11.65586-12.9509,40.407-15.02322,50.24956-2.07206,9.84254-1.295,40.66575-1.295,40.66575s43.2561-14.50494,57.761-13.46891,18.39032,7.51148,25.6428,6.21644,17.35429-9.06553,27.19684-10.36056c9.84281-1.29531,26.93783,1.554,26.93783,1.554S401.59878,411.0427,397.325,401.32952Z" fill="#e6560f"/><path d="M296.8259,440.70024s-9.0656,1.2952-12.43283,4.40341-18.13126-2.59018-25.12475,2.07215-12.17385,10.87875-10.87876,13.20992,50.50852,1.29509,50.50852,1.29509Z" fill="#fd8b66"/><path d="M389.67932,429.81909a19.628,19.628,0,0,1,7.35095,5.87793,18.059,18.059,0,0,1,3.81079,8.949,16.30862,16.30862,0,0,1-.13281,4.95605,16.9347,16.9347,0,0,1-1.48865,4.64893,21.37561,21.37561,0,0,1-5.7799,7.42993,49.0878,49.0878,0,0,0,3.5957-8.27246c.23608-.6897.3501-1.40576.54077-2.09546.10108-.7085.27649-1.40064.31445-2.10767a17.22228,17.22228,0,0,0-.02648-4.19507,21.63652,21.63652,0,0,0-2.76624-8.00756A39.55275,39.55275,0,0,0,389.67932,429.81909Z" fill="#13a497"/><path d="M413.64307,437.333a15.04921,15.04921,0,0,1-3.573,1.98974,23.69047,23.69047,0,0,1-3.756,1.15845,23.28464,23.28464,0,0,1-3.89441.529,14.86919,14.86919,0,0,1-4.079-.31,14.87764,14.87764,0,0,1,3.57214-1.99366,23.28624,23.28624,0,0,1,3.75672-1.15429,23.71862,23.71862,0,0,1,3.89526-.52539A15.06671,15.06671,0,0,1,413.64307,437.333Z" fill="#13a497"/><path d="M370.128,362.13989a17.18973,17.18973,0,0,1,3.19409-2.39282,30.57306,30.57306,0,0,1,3.36658-1.72949c1.14429-.50342,2.29688-.94946,3.47925-1.346,1.197-.40576,2.3595-.72168,3.688-1.18823a7.35632,7.35632,0,0,1-2.54261,3.25024,15.66245,15.66245,0,0,1-3.41442,2.02808,18.28363,18.28363,0,0,1-3.73755,1.18115A12.615,12.615,0,0,1,370.128,362.13989Z" fill="#af2500"/><path d="M313.88867,383.97534a25.92178,25.92178,0,0,1,7.00513.98316,34.81514,34.81514,0,0,1,6.60583,2.53662,29.37333,29.37333,0,0,1,5.91541,3.9917,17.55735,17.55735,0,0,1,4.30176,5.69848c-1.94519-1.39917-3.78675-2.64477-5.705-3.80224-1.93066-1.13452-3.89258-2.18164-5.87768-3.21778-1.99573-1.01831-4.02161-2.00024-6.06434-3.00512C318.02734,386.14551,315.96753,385.14111,313.88867,383.97534Z" fill="#af2500"/><path d="M304.3374,397.1853a27.9088,27.9088,0,0,1,7.52564-2.85766,32.75249,32.75249,0,0,1,8.06433-.86866,23.81484,23.81484,0,0,1,8.08813,1.48731,17.23427,17.23427,0,0,1,3.66187,1.94775,12.71386,12.71386,0,0,1,2.89807,2.88135,25.96934,25.96934,0,0,0-7.23084-2.56763,42.2073,42.2073,0,0,0-7.48059-.75024c-2.52673-.06079-5.07971.04443-7.658.1958Z" fill="#af2500"/><g opacity="0.8"><path d="M382.17243,309.24881s-6.74786-.38864-16.64863-5.569c0,0,3.99767,8.50793,16.28054,10.85893C381.80434,314.53874,381.46018,310.99728,382.17243,309.24881Z" fill="#d04719"/></g><path d="M382.17249,318.18481a5.94732,5.94732,0,0,1,2.44421,1.83594,13.25286,13.25286,0,0,1,1.6936,2.54248,22.79005,22.79005,0,0,1,1.94886,5.6521,29.51344,29.51344,0,0,1,.56945,5.86084,23.52446,23.52446,0,0,1-.72741,5.86621,41.36374,41.36374,0,0,1-1.61731-5.60791c-.42029-1.855-.80823-3.68652-1.16223-5.51416-.39234-1.81445-.75123-3.62231-1.202-5.40454-.23145-.88623-.46253-1.78271-.766-2.65283A10.20247,10.20247,0,0,0,382.17249,318.18481Z" fill="#af2500"/><path d="M550.5129,249.5476S541.771,268.974,520.59632,269.94527c0,0,.38852,15.15255.97131,16.90092s-10.68449-17.09519-3.49674-32.24774,20.20341-21.369,33.60759-16.5124S572.07615,241,578.09832,249.5476s7.382,17.678,9.13038,21.56325,6.02217,7.18775,6.02217,7.18775L588.2,278.10434s2.71969,16.66351-10.1017,16.00516c0,0,9.51891-6.68052.77705-16.39369,0,0-3.88527-3.30248-6.99349,2.1369s-5.43938-4.2738-6.79922-7.77054-4.07953-5.05085-7.77054-9.71318S550.5129,249.5476,550.5129,249.5476Z" fill="#5e1212"/><path d="M557.89453,272.2168a.74755.74755,0,0,1-.49072-.1836,7.29685,7.29685,0,0,0-10.063-.02441.75007.75007,0,0,1-1.03906-1.082c.05762-.05567,5.81152-5.46387,12.08447-.02637a.74976.74976,0,0,1-.4917,1.31641Z" fill="#230000"/><path d="M533.061,273.05664a.74762.74762,0,0,1-.49073-.18359,7.29724,7.29724,0,0,0-10.0625-.02442.75007.75007,0,0,1-1.03906-1.082c.05713-.05566,5.811-5.46484,12.084-.02637a.74976.74976,0,0,1-.49169,1.31641Z" fill="#230000"/><g opacity="0.8"><path d="M540.994,273.44189a41.36446,41.36446,0,0,1-1.16712,4.8772c-.4613,1.58594-.9591,3.15137-1.45507,4.69434-.247.76953-.48938,1.54175-.69092,2.29077a8.23732,8.23732,0,0,0-.24,1.07544,2.93867,2.93867,0,0,0-.02649.37256s-.00623.04175-.01514.02a.11232.11232,0,0,0-.06189-.063.49676.49676,0,0,1,.07105.10058,3.17424,3.17424,0,0,0,1.88867.48951,22.99942,22.99942,0,0,0,2.47388-.0647,8.51293,8.51293,0,0,1-2.36145,1.04028,3.78879,3.78879,0,0,1-2.92395-.20654,4.499,4.499,0,0,1-.38782-.31738,2.1904,2.1904,0,0,1-.21509-.333,1.69384,1.69384,0,0,1-.10034-.2771,3.06606,3.06606,0,0,1-.09082-.86255,9.73554,9.73554,0,0,1,.13891-1.37671,19.52777,19.52777,0,0,1,.63648-2.49536,33.48035,33.48035,0,0,1,1.91174-4.65283A26.19753,26.19753,0,0,1,540.994,273.44189Z" fill="#d04719"/></g><g opacity="0.8"><path d="M542.5481,295.58813a21.20139,21.20139,0,0,0,3.90857-2.74243,13.90273,13.90273,0,0,0,1.52062-1.6499c.51587-.59936.94544-1.28784,1.56434-2.01855a5.06019,5.06019,0,0,1-.17566,2.75659,5.8465,5.8465,0,0,1-4.04712,3.74829A4.584,4.584,0,0,1,542.5481,295.58813Z" fill="#d04719"/></g><path d="M527.52505,281.77893c2.89553,0,2.90033-4.5,0-4.5-2.89554,0-2.90033,4.5,0,4.5Z" fill="#230000"/><path d="M551.09569,282.038c2.89553,0,2.90033-4.5,0-4.5-2.89554,0-2.90033,4.5,0,4.5Z" fill="#230000"/><path d="M515.66541,338.58252c.41381,3.24878.63037,6.49756.77734,9.74609.15954,3.24878.20215,6.49756.222,9.74634-.01745,3.24878-.06005,6.49732-.219,9.74609-.14648,3.24878-.36413,6.49756-.78039,9.7461-.41626-3.24854-.63379-6.49732-.78028-9.7461-.15906-3.24877-.20166-6.49731-.21911-9.74609.01989-3.24878.0625-6.49756.222-9.74634C515.03516,345.08008,515.25159,341.8313,515.66541,338.58252Z" fill="#133852"/><path d="M570.13354,428.07568q.668-8.81652,1.65918-17.58325c.63331-5.84839,1.369-11.68213,2.08985-17.51562l1.12512-8.74219c.39539-2.90991.74231-5.82642,1.09546-8.73047.34924-2.92456.65295-5.74853-.28174-8.48682a17.42076,17.42076,0,0,0-4.52234-7.32226,16.60436,16.60436,0,0,1,5.44629,6.99438,14.15344,14.15344,0,0,1,1.01282,4.45655,37.92385,37.92385,0,0,1-.10022,4.49292c-.37891,5.90307-1.08081,11.74438-1.79248,17.5896-.76148,5.83715-1.58228,11.66455-2.53223,17.47338Q571.947,419.42029,570.13354,428.07568Z" fill="#133852"/><path d="M497.22,377.56714a14.48981,14.48981,0,0,1-1.53369-2.54224,18.3721,18.3721,0,0,1-1.05969-2.79687,16.193,16.193,0,0,1-.56372-2.9856,13.10043,13.10043,0,0,1,.101-3.11035l.42822-2.96387,1.43872,2.666,1.403,2.59985,1.39,2.6228,2.79956,5.29761a18.30038,18.30038,0,0,1-2.2207-2.096c-.67383-.75952-1.31482-1.54638-1.912-2.36279-.61536-.80493-1.14819-1.66162-1.70532-2.50342-.53516-.85839-1.03931-1.72192-1.52027-2.62646l1.86683-.29785a19.21258,19.21258,0,0,0,.003,5.44653C496.3811,373.7749,496.76807,375.647,497.22,377.56714Z" fill="#133852"/><path d="M573.63025,338.58252a8.52434,8.52434,0,0,1,1.02466-4.31665,9.5989,9.5989,0,0,1,7.25586-5.11792,10.19256,10.19256,0,0,1,2.24292-.07642,12.73654,12.73654,0,0,1,2.16845.448c-.7185.23828-1.41418.34277-2.088.53052l-.99341.29468a5.84427,5.84427,0,0,0-.96032.31933,14.17844,14.17844,0,0,0-6.322,4.44922A25.311,25.311,0,0,0,573.63025,338.58252Z" fill="#133852"/><path d="M573.63025,434.54669s-6.21643,3.50127-7.2525,7.12753-4.14429,6.73446-3.62625,8.54759,4.4033,0,4.4033,0-4.14428,9.84269-2.33116,9.84269,11.13778-2.33117,15.02305-4.92135,8.41952-3.44785,4.85731-18.56009Z" fill="#fd8b66"/><path d="M571.81714,449.44482a10.49624,10.49624,0,0,1-.17383,2.77613,16.49769,16.49769,0,0,1-.70727,2.58276,16.22125,16.22125,0,0,1-1.111,2.43628,10.37,10.37,0,0,1-1.64953,2.24072,10.35922,10.35922,0,0,1,.17126-2.7771,16.201,16.201,0,0,1,.70972-2.58178,16.49325,16.49325,0,0,1,1.11365-2.43531A10.49253,10.49253,0,0,1,571.81714,449.44482Z" fill="#d04719"/><path d="M575.96143,451.77588a4.32681,4.32681,0,0,1,.35131,1.68042,5.5285,5.5285,0,0,1-.19592,1.53,5.42692,5.42692,0,0,1-.61011,1.4165,4.27753,4.27753,0,0,1-1.16247,1.26489,4.27736,4.27736,0,0,1-.354-1.68115,5.43524,5.43524,0,0,1,.19849-1.52929,5.52971,5.52971,0,0,1,.61279-1.41578A4.32872,4.32872,0,0,1,575.96143,451.77588Z" fill="#d04719"/><path d="M571.81714,458.49537a36.33829,36.33829,0,0,1-6.99347,1.56906c-1.81318,0,2.33114-9.84255,2.33114-9.84255s-3.88525,1.81306-4.40333,0c-.518-1.81318,2.59021-4.9214,3.62624-8.54777,1.03609-3.6261,7.25254-7.12745,7.25254-7.12745l-3.49674-.643v-5.8278s-26.80839-3.88537-34.554-5.05091c-6.98-1.05039-22.21891-13.77034-27.15475-17.69735,0,0-22.08361,25.986-23.89673,33.49747s-2.07212,20.06873,3.36723,22.85576,27.77012,0,27.77012,0l12.11868-9.90486s.777,11.40832,2.84915,11.14351c2.07219-.2648,42.997.00461,42.997.00461l-1.81312-4.42868Z" fill="#e6560f"/><path d="M526.23,421.98877a9.63567,9.63567,0,0,1,3.17358,2.97314,14.02053,14.02053,0,0,1,1.9054,3.85889,13.79987,13.79987,0,0,1,.67627,4.25244,10.40029,10.40029,0,0,1-.834,4.25977,38.09832,38.09832,0,0,1-1.49622-3.89282l-1.20325-3.70752-1.15466-3.727C526.92249,424.72974,526.55505,423.44336,526.23,421.98877Z" fill="#af2500"/><path d="M544.62024,425.874a12.38653,12.38653,0,0,0-3.235,1.89209,20.09713,20.09713,0,0,0-2.65783,2.46485,34.29728,34.29728,0,0,0-4.27173,5.84033,15.12259,15.12259,0,0,0-.92041,1.585l-.9054,1.60645-1.68445,3.32592c-.50634,1.14234-1.11962,2.25342-1.65722,3.405-.54688,1.15039-1.08667,2.31079-1.76319,3.45117.03064-1.30835.19812-2.59619.35852-3.89453.22327-1.27954.5337-2.54712.8617-3.8125.36511-1.2539.8468-2.4768,1.318-3.70337a33.00477,33.00477,0,0,1,1.829-3.51977,21.10979,21.10979,0,0,1,5.26612-6.03418,14.66368,14.66368,0,0,1,3.52331-1.99951A8.22059,8.22059,0,0,1,544.62024,425.874Z" fill="#af2500"/><path d="M491.78052,440.63818a4.49789,4.49789,0,0,1,3.00842-1.60424,6.01291,6.01291,0,0,1,3.49194.62768,6.54444,6.54444,0,0,1,2.51416,2.395,7.214,7.214,0,0,1,.66053,1.5481,6.699,6.699,0,0,1,.16772,1.6958,10.51993,10.51993,0,0,1-1.38415-.86524c-.44837-.25439-.806-.55932-1.19581-.79883-.75158-.51416-1.45751-.92236-2.14746-1.31469a15.75031,15.75031,0,0,0-2.24218-.94092A24.23645,24.23645,0,0,0,491.78052,440.63818Z" fill="#af2500"/><path d="M546.42578,447.59082a4.49779,4.49779,0,0,1,.79175-3.31616,6.01232,6.01232,0,0,1,2.78393-2.19946,6.54247,6.54247,0,0,1,3.4596-.29615,7.20018,7.20018,0,0,1,1.59705.531,6.68471,6.68471,0,0,1,1.38134.998,10.54447,10.54447,0,0,1-1.56518.46337c-.48743.16724-.953.23291-1.39051.36622-.88317.22241-1.65673.48071-2.40759.73754a15.7014,15.7014,0,0,0-2.19043,1.05591A24.2148,24.2148,0,0,0,546.42578,447.59082Z" fill="#af2500"/><path d="M633.86279,462.91016H203.37451a1,1,0,0,1,0-2H633.86279a1,1,0,0,1,0,2Z" fill="#230000"/><path d="M505.90419,156.88684H500.508c0-4.37493-4.13306-5.97535-4.17469-5.99116l1.895-5.05262C498.54185,145.96057,505.90419,148.81466,505.90419,156.88684Z" fill="#376f92"/><path d="M178.82155,234.92391h-5.39621c0-4.37493-4.13252-5.97482-4.17468-5.99063l1.895-5.05262C171.45868,223.99764,178.82155,226.85173,178.82155,234.92391Z" fill="#ffb957"/><path d="M650.37115,207.47808h-5.39621c0-4.29378-4.024-5.93161-4.19576-6.00012l1.91608-5.04419C643.00828,196.55076,650.37115,199.40484,650.37115,207.47808Z" fill="#ffb957"/><path d="M450.15592,136.995h-5.39621c0-4.29378-4.024-5.93161-4.19577-6.00012l1.91608-5.04419C442.793,126.06764,450.15592,128.92173,450.15592,136.995Z" fill="#ffb957"/><path d="M249.43634,191.86588,244.233,190.4362c.087-.31724,2.18852-7.78024,8.25609-8.82365l.91483,5.31822C251.19169,187.31124,249.76254,190.70653,249.43634,191.86588Z" fill="#e6560f"/><path d="M278.90581,121.74472a12.74575,12.74575,0,0,1-7.45614-9.12929l5.31821-.91324a7.28,7.28,0,0,0,4.21316,5.06158Z" fill="#e6560f"/><path d="M192.12116,314.07624c-2.41723-3.3368-5.422-2.30973-6.00065-2.0689l-2.17587-4.93827a10.33633,10.33633,0,0,1,12.54723,3.84216Z" fill="#e6560f"/><path d="M234.88586,344.5064l-4.99729-2.03569c.54067-1.33061,3.48224-7.91778,8.36623-7.00612l-.99387,5.30346a.49075.49075,0,0,0,.21974-.00474C236.85884,340.97832,235.57356,342.83274,234.88586,344.5064Z" fill="#376f92"/><path d="M281.87318,319.95884l-5.1538-1.59884c.48534-1.56458,3.19187-9.41332,8.831-10.28336l.82313,5.333C284.70408,313.66731,282.65257,317.44571,281.87318,319.95884Z" fill="#e6560f"/><path d="M584.57944,104.92147c-1.41861-3.90329-6.80428-3.10914-7.033-3.07331l-.87373-5.32454c3.458-.57756,10.61536.05428,12.97831,6.55344Z" fill="#ffb957"/><path d="M522.02464,105.13982l-4.8334-2.39931c.88532-1.78538,4.11883-7.61055,8.59389-7.61055v5.39621C524.99994,100.6479,523.126,102.93391,522.02464,105.13982Z" fill="#e6560f"/><path d="M709.41874,182.24453a10.74732,10.74732,0,0,1-9.93872-7.17369l5.099-1.76641-2.54949.88321,2.54106-.9064a5.3371,5.3371,0,0,0,5.59857,3.52177l.62394,5.36037A11.94644,11.94644,0,0,1,709.41874,182.24453Z" fill="#376f92"/><path d="M586.17394,233.87738c-.919-4.09722-7.6896-3.282-7.756-3.27409l-.71036-5.34931c4.05243-.54647,12.13093.31039,13.73188,7.44192Z" fill="#ffb957"/><path d="M429.34068,210.11044l-5.148-1.61781c.26244-.83894,2.73763-8.2192,8.82312-8.96487l.65661,5.35616C431.57979,205.14,429.85026,208.51582,429.34068,210.11044Z" fill="#e6560f"/><path d="M303.9177,139.17874c-7.54731-6.82852-24.67606-7.814-24.84785-7.82345l.05691-1.07713c.71879.03794,17.68628,1.01706,25.515,8.09958Z" fill="#ffb957"/><path d="M317.91623,154.25334c-21.03679-11.06222-52.05866-2.27231-52.36958-2.18061l-.30143-1.03709c.31619-.09064,31.75121-9.00281,53.17268,2.26283Z" fill="#ffb957"/><path d="M324.30947,155.12285c-16.86421-13.60119-44.9129-13.207-45.20063-13.21228l-.02108-1.07924c.28668.00211,28.72428-.39839,45.89834,13.45047Z" fill="#376f92"/><path d="M314.77863,158.51761c-3.9112-1.95612-18.30706-1.798-18.45356-1.79487l-.01265-1.07924c.60286-.00738,14.80585-.16125,18.94891,1.9087Z" fill="#e6560f"/><path d="M268.69163,166.887l-.29511-1.03919c.34043-.098,34.29333-9.58987,56.41463-2.58744l-.32673,1.02865C302.68037,157.3804,269.02784,166.7911,268.69163,166.887Z" fill="#ffb957"/><path d="M272.5554,175.69906l-.61551-.88743a58.60191,58.60191,0,0,1,30.21561-8.99438c.34043,0,.68085.00316,1.02549.01054l-.02318,1.07924C285.92472,166.55291,272.6882,175.60736,272.5554,175.69906Z" fill="#376f92"/><path d="M278.51758,184.00205l-.69139-.8284c.18971-.15809,19.05958-15.68168,39.97516-15.68168.12331,0,.24662.00106.36993.00211l-.00948,1.07924c-.1191-.001-.24136-.00211-.36151-.00211C297.28205,168.57121,278.70413,183.84712,278.51758,184.00205Z" fill="#ffb957"/><path d="M278.55341,190.63454l-.76306-.76306c.40788-.40787,10.07363-9.93555,15.0314-9.78589l-.04216,1.07924c-.04005-.00211-.08221-.00316-.12331-.00316C288.08215,181.16167,278.64932,190.53863,278.55341,190.63454Z" fill="#e6560f"/><path d="M287.37073,195.65133l-.99071-.4279c.06535-.15177,6.81377-15.3128,28.42074-24.9111l.43844.9865C294.04222,180.71479,287.435,195.50378,287.37073,195.65133Z" fill="#376f92"/><path d="M325.649,151.98525c-4.29694-8.41471-14.79636-12.66317-14.90175-12.70533l.39839-1.00336c.44582.17706,10.979,4.435,15.46456,13.21755Z" fill="#e6560f"/><path d="M316.49129,137.98883c-5.354-7.20583-15.66587-12.00445-15.76916-12.05188l.45109-.98017c.43212.19919,10.66279,4.95777,16.18441,12.38915Z" fill="#376f92"/><path d="M327.0961,145.42127c-6.71785-21.24441-18.39243-31.31382-18.50941-31.41289l.69771-.82419c.1191.10118,12.02132,10.34871,18.84036,31.91246Z" fill="#ffb957"/><rect x="323.73827" y="108.46221" width="1.07916" height="23.57529" transform="translate(-20.76726 96.58505) rotate(-16.4225)" fill="#e6560f"/><rect x="330.58888" y="120.24985" width="1.07924" height="25.00911" fill="#ffb957"/><path d="M335.55192,131.63459l-1.0687-.156c.1075-.73249,2.68862-18.01828,9.02389-24.9132l.79468.72933C338.19206,113.94514,335.57722,131.45858,335.55192,131.63459Z" fill="#376f92"/><path d="M335.54349,143.71177l-1.05184-.2382c.05059-.22343,5.22547-22.42377,20.6015-32.30558l.58389.9085C340.66778,121.72221,335.593,143.49254,335.54349,143.71177Z" fill="#ffb957"/><rect x="353.69549" y="112.87155" width="13.37802" height="1.07954" transform="translate(15.58314 267.84946) rotate(-41.59638)" fill="#e6560f"/><path d="M343.63464,139.04278l-.94012-.52908c.30564-.54278,7.55891-13.323,14.46015-17.23941l.5333.938C351.04705,125.98121,343.70842,138.91314,343.63464,139.04278Z" fill="#376f92"/><path d="M347.45836,140.05984l-.81154-.71247c.1191-.136,12.07929-13.67391,25.5403-20.12723l.46584.97385C359.39536,126.54929,347.5764,139.92493,347.45836,140.05984Z" fill="#ffb957"/><path d="M336.71548,155.06172l-.80522-.71879c.13807-.15493,14.10181-15.57523,40.23127-24.03948l.33305,1.02655C350.63917,139.69834,336.85144,154.9089,336.71548,155.06172Z" fill="#e6560f"/><rect x="319.61815" y="172.95618" width="11.72661" height="1.0792" transform="translate(45.59428 413.70847) rotate(-68.69734)" fill="#e6560f"/><path d="M284.3986,213.72652l-.97174-.47006c.14123-.293,14.33684-29.423,30.77736-38.47434l.52065.94645C298.58684,184.61229,284.53878,213.43563,284.3986,213.72652Z" fill="#ffb957"/><rect x="298.54277" y="187.48994" width="19.80747" height="1.07954" transform="translate(-36.94078 293.86941) rotate(-48.40362)" fill="#376f92"/><rect x="294.04195" y="205.54544" width="19.55126" height="1.07887" transform="translate(-21.42656 376.35628) rotate(-61.78264)" fill="#e6560f"/><rect x="307.61868" y="188.97343" width="13.87617" height="1.07838" transform="translate(-10.87746 359.67005) rotate(-58.67131)" fill="#ffb957"/><path d="M315.55222,210.52358l-1.06448-.175c.12963-.78414,3.21137-19.25877,6.94972-24.30507l.86635.64291C318.72039,191.52407,315.58384,210.33492,315.55222,210.52358Z" fill="#e6560f"/><path d="M322.86029,221.21165c-5.02311-11.1613,1.00968-32.431,1.26895-33.33107l1.03709.29932c-.06219.21606-6.18246,21.78825-1.32165,32.58909Z" fill="#ffb957"/><path d="M333.61582,221.24643c-9.05973-16.82626-3.07752-47.54882-3.0164-47.85657l1.05817.21079c-.06008.30459-5.9664,30.65089,2.90889,47.13356Z" fill="#376f92"/><path d="M400.41182,188.45076c-24.39255-19.66032-62.26087-21.52792-62.64029-21.54373l.04638-1.07924c.38363.01686,38.60608,1.90237,63.27055,21.78192Z" fill="#ffb957"/><path d="M338.0951,159.59369l-.60075-.89585c.18549-.12542,18.97526-12.49138,45.50627-11.20135l-.0527,1.07713C356.81214,147.291,338.27954,159.47038,338.0951,159.59369Z" fill="#376f92"/><path d="M392.46928,163.47011c-11.37842-8.30826-31.85555-7.68433-32.06634-7.67273l-.03794-1.07925c.85053-.03056,21.061-.64923,32.74086,7.88142Z" fill="#e6560f"/><path d="M364.49963,163.55548c-14.50547-3.9913-29.21752-.76938-29.364-.7346l-.23608-1.05395c.1486-.03267,15.11465-3.31255,29.88677.74725Z" fill="#ffb957"/><path d="M374.63965,197.6338c-17.29948-16.43525-34.06146-21.81143-34.229-21.86307l.3225-1.03076c.16969.05375,17.17091,5.50582,34.65062,22.1118Z" fill="#ffb957"/><rect x="340.68038" y="172.16469" width="1.07933" height="14.14284" transform="translate(-28.84791 286.96915) rotate(-43.94323)" fill="#e6560f"/><path d="M339.01414,197.77714c-4.65529-6.88965-5.42994-16.16333-5.4605-16.55435l1.075-.08431c.00738.09275.7873,9.3854,5.27922,16.03369Z" fill="#ffb957"/><rect x="341.42131" y="183.10037" width="1.07932" height="15.36976" transform="translate(-48.81722 215.85963) rotate(-32.82918)" fill="#376f92"/><rect x="354.93812" y="188.98202" width="1.07839" height="24.76236" transform="translate(-42.03259 295.68783) rotate(-42.87852)" fill="#ffb957"/><path d="M358.71135,177.58457c-3.89539-3.80686-15.4888-5.1127-15.60579-5.12535l.118-1.07291c.49114.05375,12.0835,1.3617,16.24238,5.42677Z" fill="#376f92"/><path d="M378.25048,184.71768c-5.8726-5.60067-16.665-10.02936-16.77357-10.07362l.40682-.99914c.45.18233,11.08963,4.54778,17.11083,10.29284Z" fill="#e6560f"/><path d="M356.595,146.82829l-.56913-.91694c.54383-.33726,13.41147-8.2387,21.67547-6.73893l-.19393,1.06237C369.65975,138.80353,356.72572,146.74713,356.595,146.82829Z" fill="#ffb957"/><path d="M383.49281,172.415c-9.25787-4.17574-20.83021-5.509-20.94614-5.52163l.12015-1.07292c.117.0137,11.858,1.36592,21.2697,5.61016Z" fill="#376f92"/><path d="M667.13743,247.356c.80461-8.03923-6.63889-19.44473-6.7138-19.55893l.71484-.47131c.31454.477,7.68609,11.77653,6.85185,20.11522Z" fill="#ffb957"/><path d="M664.10612,263.4024c-2.84882-18.65106-23.08434-34.32361-23.28945-34.479l.52037-.68132c.20692.15924,20.71526,16.03807,23.61546,35.03073Z" fill="#ffb957"/><path d="M666.56392,267.89592c.73953-17.18246-12.73189-34.91288-12.86414-35.09915l.67944-.52212c.13377.18411,13.79252,18.16,13.04083,35.65707Z" fill="#376f92"/><path d="M659.90352,263.40805c-.59391-3.42024-7.47981-12.54114-7.55088-12.63322l.68341-.51674c.28885.3816,7.08115,9.38129,7.71164,13.00328Z" fill="#e6560f"/><path d="M632.83626,237.91439l.5247-.67828c.22305.17125,22.28836,17.38519,28.24153,34.81556l-.811.27612C654.92788,255.14426,633.056,238.084,632.83626,237.91439Z" fill="#ffb957"/><path d="M629.02856,244.5356l.27675-.81141a46.51905,46.51905,0,0,1,19.98613,15.06118c.16044.21745.31887.43639.47659.66l-.7003.49385A45.42233,45.42233,0,0,0,629.02856,244.5356Z" fill="#376f92"/><path d="M626.535,252.25725l.20329-.83206c.19039.04667,18.9997,4.78344,28.85743,18.14334q.08718.11814.173.23729l-.69384.5026c-.05546-.07657-.11241-.15516-.169-.23191C645.23543,256.97041,626.72192,252.30339,626.535,252.25725Z" fill="#ffb957"/><path d="M622.31539,255.4061l.12777-.847c.45277.0683,11.09418,1.75183,13.33523,4.98916l-.70924.48173c-.01753-.02658-.03672-.054-.0561-.08026C632.85722,257.02795,622.42186,255.42216,622.31539,255.4061Z" fill="#e6560f"/><path d="M623.2666,263.40266l-.19361-.83449c.12774-.02979,12.9925-2.86476,29.307,6.413l-.42349.745C635.9517,260.62435,623.39115,263.37419,623.2666,263.40266Z" fill="#376f92"/><path d="M669.19943,267.27279c3.34973-6.71063,1.115-15.41952,1.09222-15.50671l.82866-.21842c.097.36822,2.34163,9.10312-1.15414,16.10762Z" fill="#e6560f"/><path d="M673.82355,254.82659c2.07933-6.81611.2844-15.66446.266-15.75279l.83869-.17383c.07643.3699,1.85869,9.14754-.28573,16.177Z" fill="#376f92"/><path d="M674.07421,265.10343c10.40375-14.30376,11.33327-26.50676,11.34142-26.62818l.85529.05722c-.0085.12376-.9445,12.55612-11.50454,27.075Z" fill="#ffb957"/><rect x="679.46708" y="251.01139" width="18.71438" height="0.85665" transform="translate(72.39151 648.56873) rotate(-52.84461)" fill="#e6560f"/><rect x="674.13945" y="261.28076" width="19.85256" height="0.85672" transform="translate(-21.76224 457.27105) rotate(-36.42212)" fill="#ffb957"/><path d="M686.86582,264.00681l-.40406-.75615c.51855-.27657,12.77642-6.77484,20.16645-5.97781l-.09132.85134C699.40934,257.356,686.99017,263.94,686.86582,264.00681Z" fill="#376f92"/><path d="M679.1475,269.69353l-.34359-.78413c.16656-.073,16.78608-7.23078,30.345-2.06668l-.30512.80115C695.60854,262.60278,679.31088,269.62185,679.1475,269.69353Z" fill="#ffb957"/><rect x="709.78137" y="265.97006" width="0.85695" height="10.61965" transform="translate(297.40317 909.70095) rotate(-78.01849)" fill="#e6560f"/><path d="M685.94328,272.66124l-.10514-.84987c.49076-.06059,12.07267-1.451,17.827,1.11136l-.34781.78274C697.78,271.23989,686.06085,272.64726,685.94328,272.66124Z" fill="#376f92"/><path d="M687.09579,275.583l.0726-.85417c.143.012,14.42735,1.271,24.89375,6.82779l-.40249.75654C701.35173,276.84014,687.23759,275.59482,687.09579,275.583Z" fill="#ffb957"/><path d="M672.45005,275.79149l.07962-.85311c.164.01517,16.59507,1.66682,34.31672,14.36781l-.49874.69656C688.82585,277.44438,672.61174,275.80631,672.45005,275.79149Z" fill="#e6560f"/><rect x="650.72614" y="276.87554" width="9.30874" height="0.85669" transform="translate(-49.64325 180.5436) rotate(-15.11946)" fill="#e6560f"/><path d="M610.32021,270.02323l-.15774-.84225c.25372-.04788,25.55117-4.70967,39.08131,1.5258l-.35916.77863C635.60409,265.36417,610.57208,269.97567,610.32021,270.02323Z" fill="#ffb957"/><rect x="637.63969" y="265.41103" width="0.85695" height="15.72344" transform="translate(308.36471 884.09564) rotate(-84.82574)" fill="#376f92"/><rect x="616.59367" y="278.39737" width="15.52005" height="0.85642" transform="translate(-33.40087 91.95619) rotate(-8.20476)" fill="#e6560f"/><rect x="634.49324" y="277.44659" width="11.01509" height="0.85603" transform="translate(-22.1425 57.9165) rotate(-5.09342)" fill="#ffb957"/><path d="M627.04913,288.41314l-.38995-.76241c.562-.28676,13.81516-7.02558,18.80043-7.01607l-.00234.85639C640.67832,281.48215,627.18453,288.34442,627.04913,288.41314Z" fill="#e6560f"/><path d="M623.66645,298.11859c4.76187-8.469,21.19129-14.64013,21.88841-14.89873l.2976.80351c-.16732.06211-16.83118,6.32-21.43931,14.51537Z" fill="#ffb957"/><path d="M628.71343,305.00512c6.47789-13.71733,28.92151-24.376,29.14689-24.482l.36408.77525c-.22287.10519-22.39038,10.635-28.73574,24.07261Z" fill="#376f92"/><path d="M681.14343,332.21436c1.06164-24.84695-15.59316-49.91568-15.76189-50.16549l.71123-.479c.17.253,16.9803,25.55638,15.90679,50.68034Z" fill="#ffb957"/><path d="M670.20546,278.80869l.28909-.806a64.96939,64.96939,0,0,1,28.60249,23.788l-.71286.474A64.0665,64.0665,0,0,0,670.20546,278.80869Z" fill="#376f92"/><path d="M693.35651,315.36739c-.05583-11.18377-10.10546-23.96955-10.21222-24.09873l.67149-.53289c.42039.52888,10.341,13.14681,10.39683,24.62794Z" fill="#e6560f"/><path d="M680.11959,297.54191c-4.28713-11.14656-13.27908-19.02541-13.37034-19.10259l.56194-.64754c.09091.07953,9.23961,8.0933,13.60865,19.44247Z" fill="#ffb957"/><path d="M663.131,320.08036c2.34464-18.79621-2.12139-32.03684-2.16739-32.16822l.81041-.2798c.04564.13372,4.576,13.56293,2.2072,32.55473Z" fill="#ffb957"/><rect x="653.51824" y="289.63405" width="11.22677" height="0.85679" transform="translate(262.84485 891.35065) rotate(-80.36534)" fill="#e6560f"/><path d="M646.2488,297.392c2.20671-6.22074,7.7652-11.08634,8.00056-11.29015l.56053.64694c-.05577.04842-5.6239,4.92632-7.75343,10.929Z" fill="#ffb957"/><rect x="646.00341" y="295.55055" width="12.20072" height="0.85678" transform="translate(144.30034 800.93294) rotate(-69.2513)" fill="#376f92"/><rect x="641.88912" y="309.17003" width="19.65669" height="0.85604" transform="matrix(0.18566, -0.98261, 0.98261, 0.18566, 226.50676, 892.50667)" fill="#ffb957"/><path d="M668.43038,300.45669c.59571-4.28241-4.03428-12.3032-4.08134-12.38389l.741-.43028c.19714.33906,4.82529,8.36017,4.18883,12.93258Z" fill="#376f92"/><path d="M673.08308,316.29928c.80963-6.39079-1.44811-15.37177-1.471-15.462l.83-.211c.09564.37339,2.32174,9.22695,1.48992,15.78073Z" fill="#e6560f"/><path d="M687.07862,284.60912l.31746-.79569c.47174.18842,11.58347,4.68364,14.5204,10.66915l-.77.37684C698.362,289.17211,687.19206,284.65435,687.07862,284.60912Z" fill="#ffb957"/><path d="M683.41225,313.84944c-1.69606-7.88157-6.29861-15.90181-6.34518-15.98182l.742-.42894c.04639.08119,4.7163,8.21809,6.44113,16.23023Z" fill="#376f92"/><path d="M466.63664,295.64062c-.32744-3.90929-4.89064-8.69563-4.93651-8.74352l.29956-.28829c.19239.1999,4.71185,4.942,5.05166,8.99689Z" fill="#ffb957"/><path d="M466.60976,303.56978c-3.01094-8.65219-14.059-14.34343-14.17065-14.39946l.18813-.37134c.11288.05771,11.30942,5.82329,14.37513,14.634Z" fill="#ffb957"/><path d="M468.1809,305.49751c-1.16781-8.26866-9.16869-15.54108-9.24831-15.6183l.27816-.30941c.08015.07605,8.19219,7.44906,9.382,15.869Z" fill="#376f92"/><path d="M464.60387,303.94446c-.58628-1.58031-4.681-5.3253-4.72313-5.363l.28053-.30719c.17168.15662,4.211,3.852,4.83263,5.52541Z" fill="#e6560f"/><path d="M449.425,294.16915l.19046-.37027c.12165.062,12.17968,6.32718,16.56465,14.12182l-.36276.20361C461.497,300.43959,449.54485,294.23065,449.425,294.16915Z" fill="#ffb957"/><path d="M448.19315,297.66727l.06031-.41188a22.58739,22.58739,0,0,1,10.87484,5.42143c.09585.08962.19086.18012.286.27292l-.29063.29775A22.055,22.055,0,0,0,448.19315,297.66727Z" fill="#376f92"/><path d="M447.68616,301.57443l.02341-.41524c.095.00543,9.49419.602,15.383,6.10769q.05208.04869.1036.098l-.28677.30136c-.03325-.03164-.0674-.06412-.10122-.09575C457.03124,302.16934,447.77947,301.57991,447.68616,301.57443Z" fill="#ffb957"/><path d="M445.95035,303.45124l-.014-.4157c.22221-.00747,5.45162-.14563,6.80809,1.20157l-.296.29276-.03388-.03335C451.12676,303.29245,446.0026,303.44948,445.95035,303.45124Z" fill="#e6560f"/><path d="M447.11227,307.18475l-.16629-.38127c.05835-.02553,5.94928-2.5177,14.55933.46761l-.13623.39316C452.92245,304.73553,447.16922,307.16013,447.11227,307.18475Z" fill="#376f92"/><path d="M469.384,304.96674c1.00524-3.50027-.83253-7.46024-.85111-7.49985l.37629-.17762c.07891.1672,1.92368,4.13872.87473,7.79221Z" fill="#e6560f"/><path d="M470.49,298.61541a18.37438,18.37438,0,0,0-1.26733-7.5442l.385-.15723a18.43761,18.43761,0,0,1,1.29547,7.74847Z" fill="#376f92"/><path d="M471.51927,303.49957c3.70086-7.74974,3.0645-13.65794,3.05764-13.71663l.4134-.04839c.0069.05984.66046,6.07811-3.096,13.9444Z" fill="#ffb957"/><rect x="472.80837" y="295.46272" width="9.08683" height="0.41595" transform="translate(-1.02903 589.67355) rotate(-63.348)" fill="#e6560f"/><rect x="471.16921" y="300.78669" width="9.63949" height="0.41598" transform="translate(-68.95357 443.12467) rotate(-46.9255)" fill="#ffb957"/><path d="M477.52915,301.8438l-.25984-.32524c.22309-.17794,5.5-4.36531,9.09871-4.63891l.03176.41453C482.929,297.55831,477.5826,301.8009,477.52915,301.8438Z" fill="#376f92"/><path d="M474.34764,305.24191l-.23345-.34394c.07306-.0496,7.374-4.9379,14.30432-3.67261l-.07476.40949C481.5788,300.39964,474.41929,305.19323,474.34764,305.24191Z" fill="#ffb957"/><rect x="489.10972" y="300.67163" width="0.4161" height="5.15641" transform="translate(173.54679 784.58239) rotate(-88.52188)" fill="#e6560f"/><path d="M477.85474,306.05723l-.12542-.39644c.22894-.07236,5.63528-1.7613,8.60928-1.04734l-.09677.40448C483.38,304.33095,477.90964,306.04015,477.85474,306.05723Z" fill="#376f92"/><path d="M478.66358,307.35012l-.04094-.41422c.06932-.00693,7.00038-.6702,12.48907,1.05628l-.12519.39681C485.5809,306.68846,478.73233,307.34321,478.66358,307.35012Z" fill="#ffb957"/><path d="M471.6899,308.746l-.03749-.41434a37.93356,37.93356,0,0,1,17.65515,3.822l-.17645.3767A37.50618,37.50618,0,0,0,471.6899,308.746Z" fill="#e6560f"/><rect x="461.41452" y="310.77094" width="4.51989" height="0.41597" transform="translate(-88.88371 231.09549) rotate(-25.62285)" fill="#e6560f"/><path d="M441.51745,311.49145l-.14986-.38814c.11689-.04532,11.78171-4.5101,18.79316-2.73078l-.10254.40353C453.176,307.02917,441.63348,311.44645,441.51745,311.49145Z" fill="#ffb957"/><rect x="451.23515" y="310.37871" width="7.63457" height="0.4161" transform="translate(-26.87938 43.60628) rotate(-5.32913)" fill="#376f92"/><rect x="445.2285" y="314.24378" width="7.53582" height="0.41584" transform="translate(-77.13678 160.62872) rotate(-18.70815)" fill="#e6560f"/><rect x="453.70822" y="312.40488" width="5.34842" height="0.41565" transform="translate(-67.24587 134.21699) rotate(-15.59681)" fill="#ffb957"/><path d="M451.13188,318.79039l-.25365-.32947c.24291-.18665,5.97375-4.577,8.35464-5.01369l.07469.40906C457.02521,314.275,451.19044,318.74559,451.13188,318.79039Z" fill="#e6560f"/><path d="M450.376,323.72336c1.52379-4.46473,8.82126-8.86518,9.13118-9.05034l.2132.35727c-.07438.04446-7.4761,4.507-8.9507,8.82756Z" fill="#ffb957"/><path d="M453.39506,326.56438c1.87849-7.12228,11.65-14.19749,11.74826-14.26805l.24244.33789c-.0971.06995-9.74823,7.0592-11.58821,14.03619Z" fill="#376f92"/><path d="M480.83446,334.9138c-1.69244-11.95634-11.86266-22.45043-11.96533-22.55476l.29716-.29165c.10357.10573,10.36877,10.69808,12.08007,22.78773Z" fill="#ffb957"/><path d="M470.88536,310.38514l.06668-.41037a31.54619,31.54619,0,0,1,15.76089,8.82511l-.29838.28939A31.10767,31.10767,0,0,0,470.88536,310.38514Z" fill="#376f92"/><path d="M485.174,325.78974c-1.01656-5.33439-6.94615-10.549-7.00855-10.60125l.27341-.31385c.24752.21529,6.10064,5.36121,7.14354,10.83756Z" fill="#e6560f"/><path d="M477.27668,318.45118a26.46775,26.46775,0,0,0-8.07407-7.93646l.211-.35889a26.97138,26.97138,0,0,1,8.21792,8.07764Z" fill="#ffb957"/><path d="M471.161,330.71515a38.17575,38.17575,0,0,0-3.88207-15.16584l.36214-.20531a38.65777,38.65777,0,0,1,3.93528,15.34684Z" fill="#ffb957"/><rect x="466.38661" y="314.01246" width="0.41602" height="5.4512" transform="translate(-4.74862 7.11073) rotate(-0.86873)" fill="#e6560f"/><path d="M461.0929,321.37762a14.9984,14.9984,0,0,1,2.82028-6.09827l.32486.25924a14.86712,14.86712,0,0,0-2.73426,5.904Z" fill="#ffb957"/><rect x="460.80103" y="319.97676" width="5.92411" height="0.41601" transform="translate(66.19726 719.60421) rotate(-79.75468)" fill="#376f92"/><rect x="460.01194" y="326.51314" width="9.54438" height="0.41565" transform="translate(136.47533 790.38486) rotate(-89.80402)" fill="#ffb957"/><path d="M471.954,320.8774c-.09465-2.09723-3.015-5.51668-3.04464-5.551l.31566-.271c.12413.14441,3.04367,3.56418,3.14453,5.80347Z" fill="#376f92"/><path d="M475.5776,328.02911a25.09516,25.09516,0,0,0-2.07087-7.25162l.37755-.17422a24.96758,24.96758,0,0,1,2.10812,7.40212Z" fill="#e6560f"/><path d="M479.45432,311.66087l.08113-.408c.2419.0482,5.94472,1.21076,7.87666,3.8084l-.33425.24806C485.2451,312.84059,479.51248,311.67242,479.45432,311.66087Z" fill="#ffb957"/><path d="M480.29209,325.94524a31.53741,31.53741,0,0,0-4.4439-7.06837l.31625-.27046a32.04212,32.04212,0,0,1,4.5117,7.17848Z" fill="#376f92"/><path d="M493.16513,226.47759a1.16145,1.16145,0,0,0,0-2.32151,1.16145,1.16145,0,0,0,0,2.32151Z" fill="#e6560f"/><path d="M505.114,187.64394a1.16145,1.16145,0,0,0,0-2.32151,1.16145,1.16145,0,0,0,0,2.32151Z" fill="#e6560f"/><rect x="477.2945" y="178.94964" width="0.774" height="12.07966" transform="translate(-29.66999 255.6661) rotate(-29.10021)" fill="#e6560f"/><rect x="468.88049" y="192.23509" width="0.77374" height="12.69275" transform="translate(124.02298 573.35176) rotate(-70.28502)" fill="#e6560f"/><rect x="464.45867" y="211.73633" width="10.91226" height="0.77376" transform="translate(-44.71274 243.34289) rotate(-27.76636)" fill="#ffb957"/><rect x="470.1293" y="213.97711" width="10.42436" height="0.7735" transform="translate(-17.14875 385.69617) rotate(-43.45612)" fill="#e6560f"/><rect x="475.65154" y="186.63514" width="0.77377" height="10.35052" transform="translate(5.17329 395.99131) rotate(-45.38898)" fill="#376f92"/><rect x="486.20654" y="180.68652" width="0.77384" height="11.47227" fill="#ffb957"/><rect x="486.60479" y="213.16872" width="0.77384" height="11.45111" fill="#ffb957"/><rect x="487.23573" y="186.94273" width="8.67218" height="0.77351" transform="matrix(0.36734, -0.93008, 0.93008, 0.36734, 136.76328, 575.71858)" fill="#e6560f"/><rect x="466.77828" y="202.82472" width="9.85771" height="0.77384" fill="#ffb957"/><rect x="471.29463" y="206.16905" width="8.0937" height="0.77348" transform="translate(-42.35751 182.00851) rotate(-20.77225)" fill="#376f92"/><rect x="478.73684" y="206.45896" width="3.76412" height="0.77403" transform="translate(-26.68474 334.99748) rotate(-37.46286)" fill="#e6560f"/><rect x="475.85053" y="193.72712" width="0.77404" height="6.57217" transform="translate(75.82654 521.49345) rotate(-61.49444)" fill="#ffb957"/><rect x="483.36854" y="188.34065" width="0.77379" height="8.43314" transform="translate(-36.79563 203.70135) rotate(-22.93128)" fill="#ffb957"/><rect x="483.06981" y="194.58833" width="0.77386" height="5.39725" transform="translate(-34.02627 267.02861) rotate(-29.87473)" fill="#e6560f"/><rect x="489.2435" y="210.60973" width="0.77385" height="7.90651" transform="translate(-41.15922 151.021) rotate(-16.8372)" fill="#e6560f"/><rect x="477.90824" y="219.90132" width="9.05586" height="0.77407" transform="translate(131.322 617.76848) rotate(-73.08645)" fill="#376f92"/><rect x="493.71894" y="192.22012" width="7.35637" height="0.77359" transform="translate(-8.94833 360.284) rotate(-39.49025)" fill="#e6560f"/><rect x="496.55424" y="194.78403" width="9.55183" height="0.77393" transform="translate(-34.56793 242.46672) rotate(-26.31485)" fill="#376f92"/><rect x="503.00944" y="201.33682" width="0.77359" height="12.61133" transform="translate(150.84104 622.64611) rotate(-72.06665)" fill="#376f92"/><rect x="495.21767" y="212.92637" width="0.77387" height="11.53756" transform="translate(-45.98682 230.10663) rotate(-25.01746)" fill="#ffb957"/><rect x="497.01032" y="208.2573" width="0.77359" height="10.22111" transform="translate(-14.2909 389.73424) rotate(-42.23565)" fill="#376f92"/><rect x="498.03159" y="202.52617" width="7.09513" height="0.77355" transform="translate(-15.27449 42.8579) rotate(-4.81942)" fill="#e6560f"/><rect x="489.6479" y="193.76331" width="4.64472" height="0.77385" transform="translate(72.31728 516.0515) rotate(-59.02665)" fill="#ffb957"/><rect x="485.93852" y="197.01204" width="4.49589" height="0.77389" transform="translate(227.70318 655.04606) rotate(-82.36838)" fill="#376f92"/><rect x="478.84944" y="213.37925" width="4.73368" height="0.77408" transform="translate(101.10138 578.15318) rotate(-67.74156)" fill="#ffb957"/><rect x="479.63461" y="200.01725" width="0.77382" height="3.70038" transform="translate(101.57146 559.56378) rotate(-66.19374)" fill="#ffb957"/><rect x="483.15985" y="209.81956" width="3.87955" height="0.77403" transform="translate(202.57872 657.07388) rotate(-81.12625)" fill="#ffb957"/><rect x="490.36535" y="199.19025" width="3.60807" height="0.77369" transform="translate(-14.79242 357.85361) rotate(-39.41147)" fill="#ffb957"/><rect x="495.53173" y="199.78786" width="4.1789" height="0.77361" transform="translate(-35.04942 137.25594) rotate(-15.17658)" fill="#ffb957"/><rect x="495.61605" y="205.82029" width="0.77399" height="5.08816" transform="translate(32.76269 481.93905) rotate(-53.35135)" fill="#e6560f"/><rect x="489.44271" y="206.30583" width="0.77367" height="3.82726" transform="translate(-38.89655 269.35085) rotate(-29.62491)" fill="#376f92"/><rect x="492.37987" y="202.52524" width="0.77417" height="2.76668" transform="translate(68.36626 526.83586) rotate(-59.74751)" fill="#376f92"/><path d="M500.73271,212.9356a1.16145,1.16145,0,0,0,0-2.32151,1.16145,1.16145,0,0,0,0,2.32151Z" fill="#376f92"/><path d="M261.565,320.579c2.48464,0,2.48875-3.86142,0-3.86142-2.48464,0-2.48876,3.86142,0,3.86142Z" fill="#e6560f"/><path d="M281.43978,255.986c2.48464,0,2.48875-3.86142,0-3.86142-2.48464,0-2.48876,3.86142,0,3.86142Z" fill="#e6560f"/><rect x="235.16699" y="241.52459" width="1.28742" height="20.0924" transform="translate(-92.5823 146.43952) rotate(-29.10021)" fill="#e6560f"/><rect x="221.17176" y="263.62262" width="1.28698" height="21.11217" transform="translate(-111.11921 390.49987) rotate(-70.28502)" fill="#e6560f"/><rect x="213.81685" y="296.05953" width="18.15064" height="1.28701" transform="translate(-112.55921 138.00212) rotate(-27.76636)" fill="#ffb957"/><rect x="223.24894" y="299.78667" width="17.33909" height="1.28658" transform="translate(-143.06683 241.86072) rotate(-43.45612)" fill="#e6560f"/><rect x="232.43421" y="254.30809" width="1.28703" height="17.21628" transform="translate(-117.77812 244.19871) rotate(-45.38898)" fill="#376f92"/><rect x="249.99062" y="244.41358" width="1.28714" height="19.08211" fill="#ffb957"/><rect x="250.65304" y="298.44206" width="1.28714" height="19.04691" fill="#ffb957"/><rect x="251.70249" y="254.81971" width="14.42465" height="1.28659" transform="translate(-73.79841 402.43285) rotate(-68.44806)" fill="#e6560f"/><rect x="217.6751" y="281.23661" width="16.39658" height="1.28714" fill="#ffb957"/><rect x="225.18726" y="286.79932" width="13.46246" height="1.28655" transform="translate(-86.86746 100.93535) rotate(-20.77225)" fill="#376f92"/><rect x="237.56608" y="287.28155" width="6.26095" height="1.28746" transform="translate(-125.4855 205.7882) rotate(-37.46286)" fill="#e6560f"/><rect x="232.76521" y="266.10435" width="1.28747" height="10.93165" transform="translate(-116.63203 347.07786) rotate(-61.49444)" fill="#ffb957"/><rect x="245.27009" y="257.1449" width="1.28706" height="14.02706" transform="translate(-83.48935 116.69024) rotate(-22.93128)" fill="#ffb957"/><rect x="244.77321" y="267.53682" width="1.28718" height="8.97738" transform="translate(-102.88553 158.39115) rotate(-29.87473)" fill="#e6560f"/><rect x="255.04207" y="294.18562" width="1.28716" height="13.15109" transform="translate(-76.15562 86.95331) rotate(-16.8372)" fill="#e6560f"/><rect x="236.18784" y="309.64055" width="15.06284" height="1.28753" transform="translate(-124.04852 453.19089) rotate(-73.08645)" fill="#376f92"/><rect x="262.48617" y="263.59771" width="12.23603" height="1.28673" transform="translate(-106.72977 231.13557) rotate(-39.49025)" fill="#e6560f"/><rect x="267.2022" y="267.86233" width="15.88781" height="1.2873" transform="translate(-90.5167 149.79811) rotate(-26.31485)" fill="#376f92"/><rect x="277.9393" y="278.76176" width="1.28673" height="20.97674" transform="translate(-82.39285 465.23482) rotate(-72.06665)" fill="#376f92"/><rect x="264.97905" y="298.03894" width="1.2872" height="19.19071" transform="translate(-105.17584 141.19291) rotate(-25.01746)" fill="#ffb957"/><rect x="267.96082" y="290.27276" width="1.28673" height="17.00102" transform="translate(-131.09656 258.11629) rotate(-42.23565)" fill="#376f92"/><rect x="269.65952" y="280.74003" width="11.80152" height="1.28666" transform="translate(-22.66634 24.14622) rotate(-4.81942)" fill="#e6560f"/><rect x="255.71471" y="266.16455" width="7.72567" height="1.28716" transform="translate(-102.77436 352.06171) rotate(-59.02665)" fill="#ffb957"/><rect x="249.54482" y="271.56824" width="7.47813" height="1.28723" transform="translate(-50.15377 487.10162) rotate(-82.36838)" fill="#376f92"/><rect x="237.75337" y="298.79223" width="7.87365" height="1.28755" transform="translate(-126.98185 409.69476) rotate(-67.74156)" fill="#ffb957"/><rect x="239.05936" y="276.56687" width="1.28712" height="6.15493" transform="translate(-112.90298 386.07517) rotate(-66.19374)" fill="#ffb957"/><rect x="244.92299" y="292.8713" width="6.45296" height="1.28747" transform="translate(-80.13136 493.41734) rotate(-81.12625)" fill="#ffb957"/><rect x="256.90806" y="275.19132" width="6.0014" height="1.2869" transform="translate(-116.02185 227.73527) rotate(-39.41147)" fill="#ffb957"/><rect x="265.50144" y="276.18533" width="6.95088" height="1.28677" transform="matrix(0.96512, -0.26179, 0.26179, 0.96512, -63.09133, 80.0715)" fill="#ffb957"/><rect x="265.64168" y="286.21922" width="1.2874" height="8.46326" transform="translate(-125.69394 330.7226) rotate(-53.35135)" fill="#e6560f"/><rect x="255.37342" y="287.02683" width="1.28687" height="6.36598" transform="translate(-109.98997 164.49039) rotate(-29.62491)" fill="#376f92"/><rect x="260.25887" y="280.73848" width="1.2877" height="4.60189" transform="translate(-115.03639 365.81219) rotate(-59.74751)" fill="#376f92"/><path d="M274.15237,298.05429c2.48464,0,2.48875-3.86142,0-3.86142-2.48464,0-2.48876,3.86142,0,3.86142Z" fill="#376f92"/><path d="M215.53989,230.65151a1.16145,1.16145,0,0,0,0-2.3215,1.16145,1.16145,0,0,0,0,2.3215Z" fill="#e6560f"/><path d="M227.48871,191.81787a1.16145,1.16145,0,0,0,0-2.32151,1.16145,1.16145,0,0,0,0,2.32151Z" fill="#e6560f"/><rect x="199.66926" y="183.12356" width="0.774" height="12.07966" transform="translate(-66.74444 121.1731) rotate(-29.10021)" fill="#e6560f"/><rect x="191.25525" y="196.40902" width="0.77374" height="12.69275" transform="translate(-63.87705 314.76614) rotate(-70.28502)" fill="#e6560f"/><rect x="186.83344" y="215.91026" width="10.91226" height="0.77376" transform="translate(-78.62449 114.48701) rotate(-27.76636)" fill="#ffb957"/><rect x="192.50406" y="218.15104" width="10.42436" height="0.7735" transform="translate(-96.11628 195.88992) rotate(-43.45612)" fill="#e6560f"/><rect x="198.0263" y="190.80907" width="0.77377" height="10.35052" transform="translate(-80.44989 199.59504) rotate(-45.38898)" fill="#376f92"/><rect x="208.5813" y="184.86044" width="0.77384" height="11.47227" fill="#ffb957"/><rect x="208.97956" y="217.34265" width="0.77384" height="11.45111" fill="#ffb957"/><rect x="209.61049" y="191.11666" width="8.67218" height="0.77351" transform="matrix(0.36734, -0.93008, 0.93008, 0.36734, -42.75996, 320.14418)" fill="#e6560f"/><rect x="189.15304" y="206.99864" width="9.85771" height="0.77384" fill="#ffb957"/><rect x="193.66939" y="210.34298" width="8.0937" height="0.77348" transform="translate(-61.88414 83.81885) rotate(-20.77225)" fill="#376f92"/><rect x="201.1116" y="210.63289" width="3.76412" height="0.77403" transform="translate(-86.48434 166.99363) rotate(-37.46286)" fill="#e6560f"/><rect x="198.22529" y="197.90104" width="0.77404" height="6.57217" transform="translate(-72.97161 279.70645) rotate(-61.49444)" fill="#ffb957"/><rect x="205.7433" y="192.51458" width="0.77379" height="8.43314" transform="translate(-60.36185 95.86096) rotate(-22.93128)" fill="#ffb957"/><rect x="205.44457" y="198.76226" width="0.77386" height="5.39725" transform="translate(-72.99714 129.29662) rotate(-29.87473)" fill="#e6560f"/><rect x="211.61826" y="214.78366" width="0.77385" height="7.90651" transform="translate(-54.26954 70.78488) rotate(-16.8372)" fill="#e6560f"/><rect x="200.283" y="224.07525" width="9.05586" height="0.77407" transform="translate(-69.52753 355.11159) rotate(-73.08645)" fill="#376f92"/><rect x="216.0937" y="196.39404" width="7.35637" height="0.77359" transform="translate(-74.97546 184.68186) rotate(-39.49025)" fill="#e6560f"/><rect x="218.929" y="198.95796" width="9.55183" height="0.77393" transform="translate(-65.18812 119.827) rotate(-26.31485)" fill="#376f92"/><rect x="225.3842" y="205.51075" width="0.77359" height="12.61133" transform="translate(-45.27163 361.39792) rotate(-72.06665)" fill="#376f92"/><rect x="217.59243" y="217.1003" width="0.77387" height="11.53756" transform="translate(-73.79904 113.09207) rotate(-25.01746)" fill="#ffb957"/><rect x="219.38509" y="212.43122" width="0.77359" height="10.22111" transform="translate(-89.17179 204.20334) rotate(-42.23565)" fill="#376f92"/><rect x="220.40635" y="206.7001" width="7.09513" height="0.77355" transform="matrix(0.99646, -0.08402, 0.08402, 0.99646, -16.60673, 19.5478)" fill="#e6560f"/><rect x="212.02266" y="197.93724" width="4.64472" height="0.77385" transform="translate(-66.00984 280.03961) rotate(-59.02665)" fill="#ffb957"/><rect x="208.31329" y="201.18597" width="4.49589" height="0.77389" transform="translate(-17.18946 383.49953) rotate(-82.36838)" fill="#376f92"/><rect x="201.2242" y="217.55318" width="4.73368" height="0.77408" transform="translate(-75.22651 323.80816) rotate(-67.74156)" fill="#ffb957"/><rect x="202.00937" y="204.19117" width="0.77382" height="3.70038" transform="translate(-67.81046 308.04926) rotate(-66.19374)" fill="#ffb957"/><rect x="205.53462" y="213.99348" width="3.87955" height="0.77403" transform="translate(-36.34464 386.3017) rotate(-81.12625)" fill="#ffb957"/><rect x="212.74011" y="203.36418" width="3.60807" height="0.77369" transform="translate(-80.57256 182.54257) rotate(-39.41147)" fill="#ffb957"/><rect x="217.90649" y="203.96179" width="4.1789" height="0.77361" transform="translate(-45.8247 64.72071) rotate(-15.17658)" fill="#ffb957"/><rect x="217.99081" y="209.99421" width="0.77399" height="5.08816" transform="translate(-82.49508 260.87976) rotate(-53.35135)" fill="#e6560f"/><rect x="211.81748" y="210.47976" width="0.77367" height="3.82726" transform="translate(-77.25093 132.66082) rotate(-29.62491)" fill="#376f92"/><rect x="214.75463" y="206.69916" width="0.77417" height="2.76668" transform="translate(-72.99367 289.09046) rotate(-59.74751)" fill="#376f92"/><path d="M223.10748,217.10952a1.16145,1.16145,0,0,0,0-2.3215,1.16145,1.16145,0,0,0,0,2.3215Z" fill="#376f92"/><path d="M578.57808,203.30023a1.876,1.876,0,0,0,0-3.7497,1.876,1.876,0,0,0,0,3.7497Z" fill="#e6560f"/><path d="M597.87785,140.576a1.876,1.876,0,0,0,0-3.74971,1.876,1.876,0,0,0,0,3.74971Z" fill="#e6560f"/><rect x="552.94378" y="126.53292" width="1.25017" height="19.51111" transform="translate(3.59442 286.42554) rotate(-29.10021)" fill="#e6560f"/><rect x="539.35344" y="147.99163" width="1.24975" height="20.50138" transform="translate(208.85477 613.18672) rotate(-70.28502)" fill="#e6560f"/><rect x="532.21131" y="179.49011" width="17.62552" height="1.24978" transform="translate(-21.61327 272.78476) rotate(-27.76636)" fill="#ffb957"/><rect x="541.37052" y="183.10942" width="16.83746" height="1.24936" transform="translate(24.3244 428.50568) rotate(-43.45612)" fill="#e6560f"/><rect x="550.29006" y="138.94658" width="1.2498" height="16.7182" transform="translate(59.1473 436.04574) rotate(-45.38898)" fill="#376f92"/><rect x="567.33854" y="129.33833" width="1.2499" height="18.53004" fill="#ffb957"/><rect x="567.9818" y="181.80371" width="1.2499" height="18.49587" fill="#ffb957"/><rect x="569.00088" y="139.4434" width="14.00733" height="1.24937" transform="translate(234.13724 624.34801) rotate(-68.44806)" fill="#e6560f"/><rect x="535.95794" y="165.09603" width="15.92222" height="1.2499" fill="#ffb957"/><rect x="543.25276" y="170.49781" width="13.07298" height="1.24933" transform="translate(-24.95165 206.10847) rotate(-20.77225)" fill="#376f92"/><rect x="555.27346" y="170.96608" width="6.07982" height="1.25021" transform="translate(10.78354 374.98353) rotate(-37.46286)" fill="#e6560f"/><rect x="550.61147" y="150.40156" width="1.25023" height="10.61539" transform="translate(151.32943 565.80853) rotate(-61.49444)" fill="#ffb957"/><rect x="562.75458" y="141.70132" width="1.24983" height="13.62124" transform="translate(-13.34194 231.24425) rotate(-22.93128)" fill="#ffb957"/><rect x="562.27208" y="151.79259" width="1.24994" height="8.71766" transform="translate(-2.98013 301.13202) rotate(-29.87473)" fill="#e6560f"/><rect x="572.24385" y="177.67042" width="1.24992" height="12.77062" transform="translate(-28.7544 173.82347) rotate(-16.8372)" fill="#e6560f"/><rect x="553.93509" y="192.67822" width="14.62706" height="1.25028" transform="translate(213.02341 674.0376) rotate(-73.08645)" fill="#376f92"/><rect x="579.47259" y="147.96745" width="11.88203" height="1.2495" transform="translate(39.13397 406.21069) rotate(-39.49025)" fill="#e6560f"/><rect x="584.05218" y="152.10869" width="15.42816" height="1.25006" transform="translate(-6.38358 278.15965) rotate(-26.31485)" fill="#376f92"/><rect x="594.47864" y="162.69278" width="1.2495" height="20.36986" transform="translate(247.38635 685.83737) rotate(-72.06665)" fill="#376f92"/><rect x="581.89334" y="181.41226" width="1.24996" height="18.63551" transform="translate(-26.00618 264.23824) rotate(-25.01746)" fill="#ffb957"/><rect x="584.78885" y="173.87076" width="1.2495" height="16.50917" transform="translate(29.56 440.7863) rotate(-42.23565)" fill="#376f92"/><rect x="586.4384" y="164.61382" width="11.46009" height="1.24944" transform="translate(-11.78897 50.33562) rotate(-4.81942)" fill="#e6560f"/><rect x="572.89703" y="150.46002" width="7.50216" height="1.24992" transform="translate(150.34101 567.75269) rotate(-59.02665)" fill="#ffb957"/><rect x="566.90564" y="155.70738" width="7.26178" height="1.24999" transform="matrix(0.1328, -0.99114, 0.99114, 0.1328, 339.81974, 701.05387)" fill="#376f92"/><rect x="555.45533" y="182.14375" width="7.64586" height="1.2503" transform="translate(178.28227 631.1423) rotate(-67.74156)" fill="#ffb957"/><rect x="556.72354" y="160.5614" width="1.24988" height="5.97686" transform="translate(182.74313 607.46052) rotate(-66.19374)" fill="#ffb957"/><rect x="562.41752" y="176.39412" width="6.26627" height="1.25022" transform="translate(303.40966 708.49402) rotate(-81.12625)" fill="#ffb957"/><rect x="574.05586" y="159.22564" width="5.82777" height="1.24967" transform="translate(29.71248 402.65852) rotate(-39.41147)" fill="#ffb957"/><rect x="582.40062" y="160.1909" width="6.74978" height="1.24954" transform="translate(-21.67094 158.96157) rotate(-15.17658)" fill="#ffb957"/><rect x="582.53681" y="169.93449" width="1.25016" height="8.21841" transform="translate(95.43172 538.03309) rotate(-53.35135)" fill="#e6560f"/><rect x="572.56562" y="170.71874" width="1.24964" height="6.18181" transform="translate(-10.99017 306.05974) rotate(-29.62491)" fill="#376f92"/><rect x="577.30972" y="164.61231" width="1.25044" height="4.46876" transform="translate(142.64019 582.01544) rotate(-59.74751)" fill="#376f92"/><path d="M590.80127,181.42716a1.876,1.876,0,0,0,0-3.7497,1.876,1.876,0,0,0,0,3.7497Z" fill="#376f92"/><path d="M441.617,373.93849c-7.382-.58283-7.2526-2.27415-7.2526-2.27415,14.1163-.33147,11.91487-3.16527,10.94366-4.69454-.97135-1.52928-17.09529-1.57882-17.09529-1.57882s2.13688-.19445,9.13035-2.52552c6.99359-2.33106-1.94256-4.6624-9.51886-4.6624-7.57616,0-15.15246,5.63361-17.48366,6.79928-2.3312,1.1654-10.10169,2.13688-13.79274,1.94269-3.69106-.19446-41.28574,0-41.28574,0l-4.57058-33.79481c-1.25656-.04664-2.74974-.21-4.45793-.39576-8.93615-.97121-6.60495,1.55431-9.32466,4.46821-2.71958,2.9139-6.21645,1.35985-9.13035.97121-2.914-.38838-5.82793,1.55405-8.74183,4.27376,0,0,12.82127,44.87495,20.78621,48.56587,7.96468,3.69119,64.68969-8.353,72.84882-8.15886,8.159.19419,14.37605-.08437,20.20337,0,21.85377.3164,2.9139-4.6624,2.9139-4.6624a26.56115,26.56115,0,0,0,6.02226,0C444.91943,377.82387,448.999,374.52133,441.617,373.93849Z" fill="#fd8b66"/><path d="M351.73083,320.18994a14.14073,14.14073,0,0,0-4.51159-5.57934,16.47219,16.47219,0,0,0-6.52258-2.73023,25.96082,25.96082,0,0,0-3.50379-.43921,32.15871,32.15871,0,0,0-3.52893-.06372,43.59041,43.59041,0,0,0-6.98584.73755l.3606-.14722a28.07694,28.07694,0,0,0-3.72425,2.44287,10.28233,10.28233,0,0,0-1.50354,1.47461,5.84376,5.84376,0,0,0-.58008.87989c-.18615.324-.391.63647-.55322.9812a38.56547,38.56547,0,0,0-3.10913,8.71216,84.70278,84.70278,0,0,0-1.66406,9.21411c-.40662,3.10107-.67993,6.22168-.99024,9.34179l-1.16735-1.17993a9.30245,9.30245,0,0,0,3.00512-1.187,8.1143,8.1143,0,0,0,1.24878-.95752c.38343-.3667.88611-.85889,1.34571-1.26953a19.484,19.484,0,0,1,3.14343-2.35181,9.68927,9.68927,0,0,1,4.03869-1.39038,16.50533,16.50533,0,0,1,4.012.45313,9.27333,9.27333,0,0,0,3.08264.15893,3.5722,3.5722,0,0,0,2.18811-1.25464,6.73007,6.73007,0,0,0,.81287-1.17919,18.47027,18.47027,0,0,1,.96826-1.76563,4.3113,4.3113,0,0,1,2.20471-1.6477,7.89651,7.89651,0,0,1,2.22668-.37745,23.794,23.794,0,0,1,3.88428.26416l3.60474.55884a14.12472,14.12472,0,0,0,3.37732.24292,1.65452,1.65452,0,0,0,1.74292-1.64575,10.4367,10.4367,0,0,0-.39014-3.45313A42.29963,42.29963,0,0,0,351.73083,320.18994Zm.27271-.125c1.00635,2.22974,2.08533,4.42334,2.95789,6.74439a12.63952,12.63952,0,0,1,.9215,3.72363,3.26525,3.26525,0,0,1-.63537,2.17944,3.64945,3.64945,0,0,1-1.99475,1.19654c-2.751.61572-5.1919.26147-7.615.18554a25.49021,25.49021,0,0,0-3.4303-.01782,5.00935,5.00935,0,0,0-1.36694.259,1.14455,1.14455,0,0,0-.65784.51783c-.19165.28759-.41431.84814-.72876,1.47827a8.30715,8.30715,0,0,1-1.24634,1.83886,6.82353,6.82353,0,0,1-4.06091,2.2688,11.20465,11.20465,0,0,1-4.19165-.26465,15.51562,15.51562,0,0,0-3.22608-.53222c-1.86547.074-3.87487,1.34155-5.66906,2.78808-.47266.37891-.86182.72168-1.38733,1.17066a9.13369,9.13369,0,0,1-1.74292,1.14575,10.62681,10.62681,0,0,1-3.899,1.14185l-1.43665.1333.269-1.31348,3.78222-18.46289a70.77909,70.77909,0,0,1,2.473-9.20093c.1278-.38379.30786-.75513.46911-1.13281a7.5774,7.5774,0,0,1,.58386-1.15674,10.9326,10.9326,0,0,1,1.62806-2.01343,22.30179,22.30179,0,0,1,3.90185-3.02026l.15613-.09839.20483-.04883a28.9123,28.9123,0,0,1,7.60987-.783,24.79872,24.79872,0,0,1,7.50366,1.39185,19.35971,19.35971,0,0,1,6.4917,3.87988A18.82688,18.82688,0,0,1,352.00354,320.06494Z" fill="#af2500"/><g opacity="0.8"><path d="M535.16607,311.7119s11.60565.76723,16.41655-3.37706c0,0-4.85913,10.60766-16.21274,11.13174A21.33087,21.33087,0,0,0,535.16607,311.7119Z" fill="#d04719"/></g></svg>