<svg id="Layer_1" data-name="Layer 1" xmlns="http://www.w3.org/2000/svg" viewBox="0 0 900 600"><path d="M284.99876,497.25834C244.89748,489.212,206.75289,475.58311,176.5076,445.635c-24.47108-24.23064-40.341-56.70194-45.76607-90.70969-6.97146-43.702,4.03354-89.64842,28.66238-126.25566,21.52672-31.99633,37.56688-83.97835,71.85684-100.306,42.44662-20.21158,99.60593-12.934,143.91156-29.10544C455.918,69.78616,442.57489,61.9966,527.70081,72.36332c49.24668,5.99731,98.6305,20.71954,137.66081,52.45251a197.85557,197.85557,0,0,1,30.28882,30.71576c63.59666,80.34757,64.805,208.60131-3.33394,286.70166-18.80973,21.55957-42.80267,38.45331-68.84992,50.13474-57.94841,25.98822-123.91334,27.39072-186.292,24.69178-70.67451-3.05788-42.23876-3.77555-112.41333-13.32283C311.4364,501.9241,298.11294,499.88973,284.99876,497.25834Z" fill="#ffe3c2"/><path d="M606.97055,531.99052c.63347-.04347,1.266-.09752,1.89928-.1434.60368-.04375,1.17249-.10645,1.77945-.186-.16827.02206-.67073.08645.11262-.01386,1.62737-.20843,3.2533-.4308,4.87336-.69039q.954-.15288,1.90558-.32051.38027-.06708.76012-.13644l.37959-.07q.78507-.14932-.05284.01473a7.17911,7.17911,0,0,1,1.853-.03746,14.0645,14.0645,0,0,0,3.04853-.47686c5.14672-1.26994,10.24108-2.86079,15.25473-4.57652,2.816-.96369,5.57659-2.20762,8.30885-3.37784,2.49145-1.06709,4.99018-2.1555,7.39833-3.3996q6.89043-3.55975,13.49073-7.64793A230.184,230.184,0,0,0,711.75183,475.804a240.73152,240.73152,0,0,0,34.13857-44.52426,237.20186,237.20186,0,0,0,12.7148-24.37364,216.82,216.82,0,0,0,16.80341-53.76127c.93228-5.26083,1.6773-10.55872,2.29-15.86577.26046-2.25611.23073-4.49394.32133-6.75856q.13888-3.47062.16555-6.94455a17.71871,17.71871,0,0,0-.37593-5.35816,16.54171,16.54171,0,0,0-3.22119-5.59453l1.93449,3.3193a22.31651,22.31651,0,0,0-.95438-2.70842c-.97256-2.60063-3.24438-4.89113-6.24753-4.75662a7.685,7.685,0,0,0-3.27007.88457,6.91034,6.91034,0,0,0-2.97748,3.87205,28.17332,28.17332,0,0,0-1.05754,2.70842l1.9345-3.3193a17.18863,17.18863,0,0,0-2.00563,2.72276,11.89109,11.89109,0,0,0-1.77336,5.57989c-.13057,1.26808-.22638,2.54-.35194,3.80871-.25666,2.59352-.6426,5.174-.89726,7.76634l.3393-2.52518c-1.04065,3.77618-1.1362,7.85886-1.65253,11.7404q.17444-1.29807.34885-2.59615a244.1628,244.1628,0,0,1-11.94,48.47783q-2.36326,6.71382-5.13045,13.27521.47351-1.12214.947-2.24421a238.53427,238.53427,0,0,1-22.84372,41.86884q-3.83271,5.60026-7.98328,10.97271l1.32753-1.71824a234.66727,234.66727,0,0,1-31.22962,33.30791q-4.8583,4.23741-9.9593,8.184l1.49748-1.15693a212.70984,212.70984,0,0,1-23.53283,15.83847c-4.45226,2.57324-8.90256,5.14187-13.51,7.43265-2.29089,1.139-4.52822,2.34382-6.87389,3.37423-.52137.229-1.04229.49337-1.57969.68267,1.55058-.54618-.42838.17219-.79944.32273q-1.96858.79864-3.96153,1.53563a26.76024,26.76024,0,0,0-4.76272,1.95983c-.21128.12861-.42984.24824-.64475.37107s-.4303.245-.646.36653q.65668-.23762.19373-.07851c-.67526.202-1.34013.445-2.01214.65868-2.80553.8919-5.648,1.67509-8.49241,2.429a3.5746,3.5746,0,0,0,.94876,7.01038Z" fill="#ffe3c2"/><path d="M743.81761,203.60827q2.3136,4.05131,4.35246,8.25c.16313.33688.32635.67388.48531,1.01274.036.07673.54407,1.20634.19157.38992.38977.9027.72794,1.82838,1.13435,2.72383.67088,1.47809,1.37959,2.93747,2.03087,4.425.15038.3435.29768.68835.447,1.03232.5044,1.1619-.3703-.9123.10462.24835.28039.68521.56245,1.3696.83532,2.05788.54746,1.3809,1.11368,2.75437,1.6524,4.13874q1.68757,4.33662,3.08147,8.78a156.89724,156.89724,0,0,1,4.42816,17.73431q.41748,2.20281.76427,4.41821c.11562.73865.22134,1.47859.329,2.21841.194,1.33267-.17471-1.40378-.00905-.07074.06124.49275.12458.9852.18289,1.47833q.52506,4.44.76142,8.90789c.164,3.10668.4018,6.21079.51868,9.32q.08409,2.2373.09387,4.47661a12.86493,12.86493,0,0,0,.19429,3.33851,6.72566,6.72566,0,0,0,2.96442,3.95618c2.6516,1.52229,5.54487.04283,6.99357-2.35192,1.17506-1.94237,1.07592-4.57245,1.20717-6.80779a90.191,90.191,0,0,0,.213-9.32449,132.68105,132.68105,0,0,0-2.5025-19.31487,132.28813,132.28813,0,0,0-13.38931-37.2654,118.96958,118.96958,0,0,0-12.23609-17.498,3.04917,3.04917,0,0,0-4.03724-.24039,3.08677,3.08677,0,0,0-.79192,3.96647Z" fill="#ffe3c2"/><path d="M121.89374,415.25252a11.7532,11.7532,0,0,1-.07409,1.66391,9.42206,9.42206,0,0,0,.23749,3.08334c.28644,1.12917.63572,2.24695.97559,3.36111.6647,2.17906,1.33,4.34525,2.18682,6.4557,1.9237,4.73817,4.02131,9.40069,6.40651,13.92539a132.89276,132.89276,0,0,0,16.73171,24.14613,144.45433,144.45433,0,0,0,44.5159,34.83318,111.73459,111.73459,0,0,0,15.91846,6.69441,67.16886,67.16886,0,0,0,7.38778,1.99288c1.3093.2642,2.623.51986,3.9423.72887a11.49528,11.49528,0,0,0,5.28623-.16459,9.59593,9.59593,0,0,0,2.85292-1.36183,6.30975,6.30975,0,0,0,2.20614-8.41373,9.95151,9.95151,0,0,0-2.11484-2.80986,14.9488,14.9488,0,0,0-2.0209-1.57753,17.91772,17.91772,0,0,0-2.77515-1.13681q-2.25449-.85488-4.47621-1.79207l2.00681.84687c-2.93356-1.24134-5.91633-2.35257-8.85114-3.59028q1.04547.44121,2.09093.88238c-2.46421-1.04625-4.91722-2.11675-7.38428-3.15682q1.06134.44785,2.12265.89575a140.54093,140.54093,0,0,1-30.77953-18.02851l1.76766,1.36569A150.484,150.484,0,0,1,153.171,447.3465q.64923.84033,1.29845,1.68065c-3.41128-4.42259-6.65623-9.02024-9.64-13.74228-2.9822-4.7196-5.55162-9.65783-8.13458-14.59658-.73334-1.40217-1.423-2.82944-2.09412-4.26229a11.82718,11.82718,0,0,0-1.80211-3.03641c-.25254-.28741-.53441-.55536-.79252-.83927-.32068-.35271-.94-1.34209-.08534-.01362a5.49867,5.49867,0,0,0-6.07663-2.47283c-2.13844.692-4.135,2.78169-3.95042,5.18865Z" fill="#ffe3c2"/><rect x="441.28369" y="225.25488" width="43.99512" height="4" fill="#ffc68d"/><rect x="441.28369" y="243.62891" width="43.99512" height="4" fill="#ffc68d"/><rect x="441.28369" y="262.00293" width="43.99512" height="4" fill="#ffc68d"/><rect x="441.28369" y="280.37793" width="43.99512" height="4" fill="#ffc68d"/><rect x="441.28369" y="298.75195" width="43.99512" height="4" fill="#ffc68d"/><rect x="441.28369" y="317.12598" width="43.99512" height="4" fill="#ffc68d"/><rect x="441.28369" y="335.50098" width="43.99512" height="4" fill="#ffc68d"/><rect x="458.69336" y="227.25488" width="4" height="18.37402" fill="#ffc68d"/><rect x="473.44434" y="245.62891" width="4" height="18.37402" fill="#ffc68d"/><rect x="453.77637" y="264.00293" width="4" height="18.375" fill="#ffc68d"/><rect x="464.64551" y="282.37793" width="4" height="18.37402" fill="#ffc68d"/><rect x="443.68311" y="300.75195" width="4" height="18.37402" fill="#ffc68d"/><rect x="473.44434" y="300.75195" width="4" height="18.37402" fill="#ffc68d"/><rect x="453.77637" y="319.12598" width="4" height="18.375" fill="#ffc68d"/><rect x="645.35938" y="251.81543" width="43.99512" height="4" fill="#ffc68d"/><rect x="645.35938" y="270.18945" width="43.99512" height="4" fill="#ffc68d"/><rect x="645.35938" y="288.56445" width="43.99512" height="4" fill="#ffc68d"/><rect x="645.35938" y="306.93848" width="43.99512" height="4" fill="#ffc68d"/><rect x="645.35938" y="325.3125" width="43.99512" height="4" fill="#ffc68d"/><rect x="645.35938" y="343.68652" width="43.99512" height="4" fill="#ffc68d"/><rect x="645.35938" y="362.06152" width="43.99512" height="4" fill="#ffc68d"/><rect x="662.76904" y="253.81543" width="4" height="18.37402" fill="#ffc68d"/><rect x="677.52002" y="272.18945" width="4" height="18.375" fill="#ffc68d"/><rect x="657.85205" y="290.56445" width="4" height="18.37402" fill="#ffc68d"/><rect x="668.72119" y="308.93848" width="4" height="18.37402" fill="#ffc68d"/><rect x="647.75879" y="327.3125" width="4" height="18.37402" fill="#ffc68d"/><rect x="677.52002" y="327.3125" width="4" height="18.37402" fill="#ffc68d"/><rect x="657.85205" y="345.68652" width="4" height="18.375" fill="#ffc68d"/><rect x="193.11279" y="313.42676" width="43.99463" height="4" fill="#ffc68d"/><rect x="193.11279" y="331.80078" width="43.99463" height="4" fill="#ffc68d"/><rect x="193.11279" y="350.1748" width="43.99463" height="4" fill="#ffc68d"/><rect x="193.11279" y="368.54883" width="43.99463" height="4" fill="#ffc68d"/><rect x="193.11279" y="386.92383" width="43.99463" height="4" fill="#ffc68d"/><rect x="193.11279" y="405.29785" width="43.99463" height="4" fill="#ffc68d"/><rect x="193.11279" y="423.67188" width="43.99463" height="4" fill="#ffc68d"/><rect x="210.52197" y="315.42676" width="4" height="18.37402" fill="#ffc68d"/><rect x="225.27344" y="333.80078" width="4" height="18.37402" fill="#ffc68d"/><rect x="205.60498" y="352.1748" width="4" height="18.37402" fill="#ffc68d"/><rect x="216.47461" y="370.54883" width="4" height="18.375" fill="#ffc68d"/><rect x="195.51221" y="388.92383" width="4" height="18.37402" fill="#ffc68d"/><rect x="225.27344" y="388.92383" width="4" height="18.37402" fill="#ffc68d"/><rect x="205.60498" y="407.29785" width="4" height="18.37402" fill="#ffc68d"/><path d="M482.37282,145.40505c-.04923-.16415-.088-.26526-.088-.26526-2.56215-3.96844-5.19137-5.27472-7.15536-5.6107-.09846-.26349-1.62055-4.64484,2.65481-3.32051C482.18993,137.57013,492.3737,146.6877,482.37282,145.40505Z" fill="#fd8b66"/><path d="M477.78485,136.20783s-2.44055-5.1251,2.86781-2.79024,13.53057,11.02006,5.3109,9.03866" fill="#fd8b66"/><path d="M481.23231,133.39066s-1.49612-5.04417,3.42132-2.951,13.07649,11.11474,2.69275,7.66131" fill="#fd8b66"/><path d="M740.44788,146.97876a100.5659,100.5659,0,0,1-17.84382,31.39954c-2.03955,2.24206-3.98065,4.584-6.23571,6.62268l-1.63953,1.5802a21.992,21.992,0,0,1-1.68158,1.53418l-3.50549,2.91174a82.38227,82.38227,0,0,1-15.41254,9.70007l-2.04742,1.01319c-.67462.35571-1.40558.58484-2.1059.8833l-4.24725,1.69214-4.37116,1.347c-.73211.21253-1.45306.46839-2.1947.64478l-2.23779.48083-2.23871.48023a20.42173,20.42173,0,0,1-2.24994.41821l-4.54742.56653-1.13752.13989-1.14538.0398-2.29151.07885c-1.52789.04492-3.05639.14087-4.58526.05811a78.70857,78.70857,0,0,1-34.98419-9.89929,102.95987,102.95987,0,0,1-28.33142-22.89869,84.2855,84.2855,0,0,1-10.52326-15.01843,48.104,48.104,0,0,1-3.64679-8.5393,27.1301,27.1301,0,0,1-1.01391-4.63855,14.4658,14.4658,0,0,1,.1571-4.943,8.84944,8.84944,0,0,1,2.533-4.53674,14.29843,14.29843,0,0,1,4.12378-2.76184,23.99758,23.99758,0,0,1,9.30182-2.05432,18.50708,18.50708,0,0,1,9.44745,2.02014,9.721,9.721,0,0,1,2.07824,1.58581l.45526.498c.13758.17688.26007.36585.3891.54956a5.7289,5.7289,0,0,1,.67444,1.14722,12.0281,12.0281,0,0,1,1.13471,4.89453,29.79432,29.79432,0,0,1-1.377,9.334,60.24717,60.24717,0,0,1-3.317,8.61939,102.75,102.75,0,0,1-35.66272,40.9292,100.72672,100.72672,0,0,1-33.86133,13.19165,108.04439,108.04439,0,0,1-36.25037,1.01929,87.08545,87.08545,0,0,1-34.05429-12.15833,76.09755,76.09755,0,0,1-14.14419-11.40259A81.52617,81.52617,0,0,1,440.782,179.116a97.53765,97.53765,0,0,1-12.40576-33.96668,110.75653,110.75653,0,0,1-1.61258-18.09326,97.96933,97.96933,0,0,1,1.48331-18.12109,78.45432,78.45432,0,0,1,2.103-8.87671,59.2652,59.2652,0,0,1,3.36121-8.51844,34.77185,34.77185,0,0,1,5.14343-7.66235A17.88433,17.88433,0,0,1,446.634,78.6969a24.3484,24.3484,0,0,1,9.26911-.94324,32.21832,32.21832,0,0,1,9.04123,2.05652,24.25493,24.25493,0,0,1,7.99783,4.85461,12.67866,12.67866,0,0,1,2.85947,3.92994,9.55864,9.55864,0,0,1,.752,4.911,18.87416,18.87416,0,0,1-3.77265,8.67883,55.01321,55.01321,0,0,1-6.09237,6.918,95.28929,95.28929,0,0,1-14.13465,11.58288,107.50351,107.50351,0,0,1-16.03039,8.78333c-1.39063.62305-2.81427,1.16785-4.22034,1.75537-1.40036.60486-2.8381,1.10706-4.27655,1.60791-1.442.48828-2.85959,1.057-4.32248,1.47864l-4.37661,1.30664c-1.45054.46948-2.94336.77258-4.41715,1.15186-1.48016.35168-2.95081.75219-4.44061,1.0581l-4.48145.859c-1.49264.29492-2.9866.58154-4.49585.76721-3.01281.40039-6.01254.93311-9.04461,1.15064-3.0261.26989-6.04783.62658-9.08484.70764-6.07782.34-12.10474.46094-18.1687.45764-6.05753-.00769-12.11988-.17468-18.17594-.55847-6.056-.37293-12.10586-.98548-18.1239-1.89978a126.51618,126.51618,0,0,1-17.87491-3.92408,65.92979,65.92979,0,0,1-16.89361-7.47656l-.98713-.6289c-.32177-.22193-.631-.46521-.947-.697-.62518-.47412-1.26461-.928-1.87652-1.42053a36.335,36.335,0,0,1-3.4361-3.26233,16.24407,16.24407,0,0,1-1.55292-1.80627c-.47384-.64136-.98007-1.25916-1.42318-1.92273l-1.227-2.06519a20.91321,20.91321,0,0,1-1.03058-2.171,28.70641,28.70641,0,0,1-2.23813-9.2406,35.38976,35.38976,0,0,1,.5127-9.4237,29.99041,29.99041,0,0,1,8.77853-16.58509,25.35938,25.35938,0,0,1,8.161-4.99023,32.2018,32.2018,0,0,1,9.25174-2.02234,31.18649,31.18649,0,0,1,9.44867.74329,21.25418,21.25418,0,0,1,8.70779,4.19226,6.10788,6.10788,0,0,1,.91785.8518l.868.91675a12.5191,12.5191,0,0,1,.75589,1.01538,7.37162,7.37162,0,0,1,.6806,1.06409l.5857,1.11584c.18814.37452.30829.77271.46362,1.15882a16.61507,16.61507,0,0,1,.69949,2.37048,27.60267,27.60267,0,0,1,.16172,9.5221A69.62842,69.62842,0,0,1,324.022,112.2677a148.46393,148.46393,0,0,1-8.40722,16.21289,176.63742,176.63742,0,0,1-10.10376,15.17505c-1.797,2.4613-3.83551,4.74377-5.76319,7.10608l-3.12057,3.34607c-.52533.55237-1.03241,1.12292-1.57282,1.66015l-1.6542,1.57911a116.83756,116.83756,0,0,1-14.06455,11.64318l-3.75579,2.59534-3.87073,2.41614c-1.2775.8269-2.60684,1.5647-3.93588,2.30273-1.33625.72376-2.63321,1.52161-4.00126,2.18372a166.88037,166.88037,0,0,1-16.60472,7.46362c-5.66693,2.1687-11.4438,4.02-17.27165,5.67224-5.84264,1.603-11.74754,2.95337-17.68678,4.11194a271.20791,271.20791,0,0,1-35.9953,4.28528,347.25313,347.25313,0,0,1-36.21056.05261.15.15,0,0,1,.01221-.2998c24.09531.75329,48.3096-.76551,71.89966-5.527,5.88727-1.22375,11.73251-2.63647,17.50589-4.29687,5.75775-1.70948,11.45569-3.61316,17.032-5.82593a164.82127,164.82127,0,0,0,16.29739-7.5669c1.34027-.66845,2.60654-1.47058,3.91315-2.19873,1.29922-.74206,2.60468-1.47314,3.85318-2.29748l3.78711-2.40308,3.66855-2.57666a114.41617,114.41617,0,0,0,13.697-11.5133l1.60724-1.5564c.52469-.52942,1.01578-1.09155,1.52536-1.63562l3.02624-3.29321c1.86588-2.3263,3.83771-4.56177,5.58121-6.98877a173.9976,173.9976,0,0,0,9.8324-15.01233,145.68814,145.68814,0,0,0,8.125-15.95728,68.26889,68.26889,0,0,0,5.055-16.89966,24.68019,24.68019,0,0,0-.13339-8.47619,11.88664,11.88664,0,0,0-3.98474-6.82483,18.27024,18.27024,0,0,0-7.46039-3.54163,28.14416,28.14416,0,0,0-8.51376-.651c-5.69544.4176-11.41492,2.40137-15.54056,6.23682a26.90962,26.90962,0,0,0-7.8,14.88464,29.34613,29.34613,0,0,0,1.55292,16.839,17.90714,17.90714,0,0,0,.90835,1.91064l1.08573,1.82325c.39425.58777.85162,1.13635,1.272,1.70813a13.8371,13.8371,0,0,0,1.39594,1.61718,33.16671,33.16671,0,0,0,3.12286,2.9574c.56284.45081,1.15695.86829,1.733,1.30518.29209.21362.57562.43811.87436.64355l.92252.58362a64.111,64.111,0,0,0,16.07577,7.156,123.45674,123.45674,0,0,0,17.42853,3.9c5.9057.92261,11.86822,1.55286,17.8515,1.94641,5.98294.40454,11.98511.59546,17.99161.62842,6.00046.02917,12.03921-.06775,18.00937-.37756a165.9399,165.9399,0,0,0,35.40979-5.41455l4.30514-1.24244c1.44-.4,2.83148-.94555,4.25006-1.411,1.41477-.4779,2.82944-.95678,4.20475-1.537,1.38147-.563,2.78231-1.08338,4.14892-1.68091a105.11328,105.11328,0,0,0,15.74906-8.44239A93.00139,93.00139,0,0,0,465.19858,107.569a53.007,53.007,0,0,0,5.91693-6.58923c1.68738-2.3545,3.17374-4.95166,3.47571-7.67835a7.58791,7.58791,0,0,0-.55612-3.92517,10.78621,10.78621,0,0,0-2.40906-3.35449,22.45529,22.45529,0,0,0-7.33948-4.52771,30.465,30.465,0,0,0-8.52484-2.02112,22.69421,22.69421,0,0,0-8.62866.78882,16.27246,16.27246,0,0,0-7.14112,4.67541,33.29493,33.29493,0,0,0-4.97284,7.26636,57.86019,57.86019,0,0,0-3.35278,8.26477,77.12715,77.12715,0,0,0-2.14984,8.70069,102.15748,102.15748,0,0,0-.10031,35.80273,96.55032,96.55032,0,0,0,12.15793,33.665,75.13228,75.13228,0,0,0,24.97708,25.39221,85.40642,85.40642,0,0,0,33.67657,11.81873,106.59842,106.59842,0,0,0,35.74411-1.43445,99.03036,99.03036,0,0,0,33.063-13.32129,97.64694,97.64694,0,0,0,25.38983-24.90283,95.55365,95.55365,0,0,0,9.09156-15.33728,57.71641,57.71641,0,0,0,3.14782-8.26392,27.334,27.334,0,0,0,1.24384-8.48877,9.4463,9.4463,0,0,0-.88287-3.8529,3.45819,3.45819,0,0,0-.47059-.79529c-.088-.12415-.16723-.25525-.25915-.37635l-.31024-.33459a7.08264,7.08264,0,0,0-1.51355-1.13928,15.967,15.967,0,0,0-8.05719-1.635,22.06226,22.06226,0,0,0-8.25757,1.801c-2.53955,1.145-4.71283,2.9502-5.20215,5.45093a11.90691,11.90691,0,0,0-.12982,4.05457,24.566,24.566,0,0,0,.8999,4.19177,45.58163,45.58163,0,0,0,3.41657,8.09009A81.81361,81.81361,0,0,0,597.283,174.16113a100.59069,100.59069,0,0,0,27.56433,22.48914,78.0856,78.0856,0,0,0,33.95953,9.941c1.48536.09814,2.97193.0188,4.4588-.00818l2.23078-.0509,1.11578-.025,1.10889-.12475,4.4375-.502a19.55422,19.55422,0,0,0,2.19879-.38379l2.18988-.44445,2.19086-.44373c.72644-.16394,1.43323-.40723,2.151-.60681l4.29-1.26831,4.17657-1.61084c.68927-.28479,1.40894-.49988,2.07367-.8418l2.01813-.97156A83.87642,83.87642,0,0,0,708.72,189.97144l3.505-2.8086a21.461,21.461,0,0,0,1.68481-1.484l1.645-1.531c2.26331-1.97327,4.21893-4.25318,6.27716-6.43567a96.15647,96.15647,0,0,0,10.51349-14.59229,105.71776,105.71776,0,0,0,7.82-16.24243.15.15,0,0,1,.19226-.08972A.15476.15476,0,0,1,740.44788,146.97876Z" fill="#230000"/><circle cx="726.91991" cy="172.17794" r="6.64062" fill="#ffb957"/><circle cx="699.73292" cy="197.40059" r="3.05121" fill="#e6560f"/><circle cx="572.54817" cy="200.4518" r="3.05121" fill="#ffb957"/><circle cx="433.10056" cy="162.82515" r="3.05121" fill="#ffb957"/><circle cx="158.79857" cy="200.4518" r="3.05121" fill="#ffb957"/><circle cx="303.39053" cy="73.42278" r="3.05121" fill="#e6560f"/><circle cx="332.01439" cy="137.82062" r="3.05121" fill="#e6560f"/><circle cx="300.33932" cy="149.27892" r="3.05121" fill="#ffb957"/><circle cx="240.46024" cy="187.70875" r="3.05121" fill="#e6560f"/><circle cx="402.25787" cy="137.82062" r="3.05121" fill="#ffb957"/><circle cx="446.94879" cy="79.52521" r="3.05121" fill="#e6560f"/><circle cx="585.12579" cy="137.82062" r="3.05121" fill="#e6560f"/><circle cx="629.81856" cy="200.4518" r="3.05121" fill="#ffb957"/><circle cx="543.66448" cy="212.35231" r="6.64062" fill="#13a497"/><circle cx="456.64062" cy="112.03051" r="6.64062" fill="#13a497"/><circle cx="665.82187" cy="210.81312" r="6.64062" fill="#13a497"/><circle cx="490.64439" cy="210.81312" r="6.64062" fill="#e6560f"/><circle cx="197.23666" cy="197.40059" r="6.64062" fill="#78c1d0"/><circle cx="272.08456" cy="172.17794" r="6.64062" fill="#13a497"/><circle cx="320.48333" cy="118.67114" r="6.64062" fill="#13a497"/><circle cx="281.30351" cy="100.64104" r="6.64062" fill="#ffb957"/><circle cx="606.90507" cy="158.89669" r="6.64062" fill="#78c1d0"/><circle cx="373.55116" cy="139.58708" r="6.64062" fill="#e6560f"/><path d="M494.08162,144.0122s-1.13021-1.52213.37206-6.59272-10.82679-2.66231-7.18517-11.52122c0,0,5.26561,4.18465,6.834,4.85687s7.14083,1.7017,7.5087,6.553-.444,14.58559-1.43526,15.24725c-2.56884,1.71463-5.11806,3.40308-7.288,4.83526-3.51191,2.31791-6.03026,3.96456-6.03026,3.96456a22.62314,22.62314,0,0,0-8.54822-8.53381c-5.929-3.329-12.1728-11.195-6.33987-13.02185a5.879,5.879,0,0,1,3.15991-.27039c1.964.33592,4.59321,1.64226,7.15538,5.61065,0,0,.03866.10121.088.26528.29224.96345,1.01354,4.24105-2.9603,3.7763a2.64922,2.64922,0,0,1-1.00092-1.87264,2.62225,2.62225,0,0,0-1.68133-1.91381" fill="#fd8b66"/><path d="M480.09837,142.36321s8.367-8.25951,11.19363-8.73911c0,0,5.32591,1.15393,3.89745,4.31631s.49027,6.42978.49027,6.42978l-7.092,4.02641-7.98147-2.54193Z" fill="#fd8b66"/><path d="M490.95557,139.38574a13.23285,13.23285,0,0,1-3.76709-.81054l.31543-.94922c3.17041,1.05566,4.2207.79394,4.3413.47461.45557-1.20313-3.88427-5.71-7.3872-7.20118-1.2334-.52343-2.1416-.60937-2.55908-.23828-.61329.54492-.3335,2.08985-.187,2.58789l-.959.28418c-.07666-.25879-.71338-2.55371.47949-3.61816.74317-.66211,1.96045-.6416,3.61719.06445,3.355,1.42871,8.73877,6.34082,7.93115,8.47461C492.521,139.14062,491.82861,139.38574,490.95557,139.38574Z" fill="#d04719"/><path d="M487.95068,143.252a9.36291,9.36291,0,0,1-2.10449-.30957l.23438-.97265c1.93213.46679,2.73828.27246,2.84277-.03711.44971-1.332-4.45605-6.291-8.47168-8.05664-1.92285-.84668-2.44678-.52539-2.56055-.40625-.39062.40136-.0249,1.74316.34522,2.52343l-.90332.42969c-.20313-.42676-1.16748-2.61133-.16016-3.64941.65576-.67578,1.86035-.61328,3.68115.18652,3.79346,1.668,9.79346,6.99121,9.01709,9.293C489.60791,143.03223,488.79785,143.251,487.95068,143.252Z" fill="#d04719"/><path d="M484.09082,146.03711a13.9209,13.9209,0,0,1-1.78125-.13574l-.32178-.041-.09375-.31152c-.02441-.08106-.0459-.14551-.06006-.18457-1.99755-3.07715-4.34423-4.92383-6.78906-5.3418l-.28369-.04883-.10059-.26953c-.09472-.25488-.895-2.52148.18213-3.66113.61621-.65137,1.65577-.75586,3.08936-.31152,3.17383.98046,9.74756,6.0664,9.15674,8.791C486.81982,145.76367,485.377,146.03711,484.09082,146.03711Zm-1.34473-1.09082c1.9795.21777,3.231-.01563,3.36573-.63574.38867-1.79395-5.37159-6.665-8.4751-7.624-.71533-.22168-1.65381-.39355-2.06738.04395-.47852.50586-.24805,1.7207-.05713,2.36328,1.90185.40723,4.60156,1.76172,7.19238,5.77441Z" fill="#d04719"/><path d="M486.41113,161.58008a22.3442,22.3442,0,0,0-8.34619-8.32324c-4.49707-2.52442-9.26074-7.69727-8.90723-11.082a3.32355,3.32355,0,0,1,2.6626-2.85253,6.31279,6.31279,0,0,1,3.39014-.28614c1.91357.32715,4.76416,1.60449,7.49414,5.832l.04687.0918s.04444.11524.10059.30176c.21045.69433.60107,2.43262-.32861,3.54394a3.40409,3.40409,0,0,1-3.16895.87305l-.18554-.06055a3.08661,3.08661,0,0,1-1.24854-2.21582,2.10974,2.10974,0,0,0-1.34082-1.53125l.30176-.95312a3.11552,3.11552,0,0,1,2.02148,2.29687,2.55883,2.55883,0,0,0,.69727,1.48438,2.41313,2.41313,0,0,0,2.15625-.53516c.63379-.75781.26611-2.19238.13818-2.61328-.0249-.083-.04639-.14746-.06055-.18652-1.998-3.07715-4.34521-4.92383-6.78906-5.3418a5.44094,5.44094,0,0,0-2.86914.2334c-1.2793.4043-1.92285,1.05859-2.02344,2.02246-.30468,2.91406,4.18457,7.73926,8.40186,10.10742a22.92544,22.92544,0,0,1,8.75,8.74512Z" fill="#d04719"/><path d="M500.45361,152.97168l-.55566-.832c.72949-.78027,1.5957-9.76856,1.21484-14.793-.28759-3.792-4.148-5.084-6.22217-5.77832-.40087-.13477-.73974-.249-.98535-.35352a52.81558,52.81558,0,0,1-6.41064-4.502c-1.41895,4.11816,1.148,5.22461,3.8584,6.39258,2.03662.87793,4.34521,1.87305,3.58008,4.45605-1.38086,4.66114-.45166,6.14844-.4419,6.16309l-.811.585c-.13086-.17578-1.23536-1.87109.29394-7.03125.48926-1.65234-.76221-2.28223-3.01709-3.25391-2.71338-1.16992-6.43017-2.77246-4.15088-8.3164l.25293-.61524.52051.41407a59.18113,59.18113,0,0,0,6.71973,4.78808c.22656.09766.53955.20117.90869.3252,2.13086.71289,6.564,2.19726,6.90185,6.65039C502.40479,141.16113,501.87451,152.02246,500.45361,152.97168Z" fill="#d04719"/><path d="M645.20734,243.34845s-8.719,4.56581-10.85049,6.8882,3.29092,27.27416,3.29092,27.27416,12.7811,6.56168,13.204,4.44694-12.26549-15.01465-9.72781-16.072,17.60231-5.63271,17.60231-5.63271S648.65625,246.18806,645.20734,243.34845Z" fill="#fd8b66"/><path d="M612.15206,143.23088v-4.22959s7.71888.52877,6.23855-6.87274c-1.48033-7.40164-5.18115-.9517-4.96961,2.11466,0,0-1.69187,1.37463-2.00911-1.37463-.31709-2.74913-4.01805-4.12376-4.44084-6.66134-.42307-2.53773-.846-14.16883-.846-14.16883s-12.477,10.67954-24.10791,6.34425l-.63447,21.99326s-2.2205,12.9,8.88183,14.59175c0,0,.31723,8.24751-1.586,8.24751s12.7942,27.91457,23.79082-.63447C612.46929,162.58071,611.0948,148.62343,612.15206,143.23088Z" fill="#fd8b66"/><path d="M299.47417,116.79659s-11.41959,3.38358-13.74581,10.5737-4.65242,5.28685-8.036,8.67043-.84589,6.55569,0,9.93928-.84589,4.441-4.65242,7.61306,2.32621,3.595,3.17211,8.459-2.74917,10.99664-1.90327,13.95728,8.67043,7.40158,8.67043,7.40158,9.7278-7.82453,19.24413-8.67043c0,0-4.018-5.07537-2.74916-8.24748s-1.05737-8.88191-1.48032-12.054,1.48032-8.459.8459-13.53433.423-7.82454,5.28685-9.30485,8.036-6.13275,8.036-6.13275,8.459,4.8639,10.36222,9.09338,9.29388,26.50039-2.12571,31.3643c0,0,.5558,7.96989,2.24759,8.81579s13.11138.58141,17.55233,2.48467c0,0,3.68466-8.82893,3.47319-13.05841a22.00787,22.00787,0,0,0-7.19012-15.22612c-5.28685-4.65243-4.44095-8.88191-6.13274-12.054s-5.07538-2.96064-6.34422-6.13275-5.02289-11.98267-9.74123-13.60963C309.18854,115.39418,299.47417,116.79659,299.47417,116.79659Z" fill="#5e1212"/><path d="M322.52473,172.83716c-1.69173-.84587-1.48019-6.97865-1.48019-6.97865,11.41956-4.86384,3.38359-27.06864,1.48019-31.29809-1.90312-4.22952-10.362-9.09337-10.362-9.09337s-3.1722,4.65238-8.03611,6.13271-5.92132,4.22945-5.28685,9.30484-1.26894,10.36223-.84586,13.53435c.42293,3.17213,2.74912,8.88191,1.48033,12.054-1.26894,3.17212,2.74912,8.24751,2.74912,8.24751s.42293,16.49494,11.63109,16.7064,11.17131-17.98652,11.17131-17.98652l.001-.00137A12.487,12.487,0,0,1,322.52473,172.83716Z" fill="#fd8b66"/><path d="M321.04454,165.85851s-8.52948,1.05741-12.759-1.40979c0,0,1.73226,5.66892,13.37834,7.16968A16.89069,16.89069,0,0,1,321.04454,165.85851Z" fill="#d04719"/><path d="M311.03476,151.68982c1.43542.46741,2.44788.90832,3.5029,1.22949a15.8851,15.8851,0,0,0,1.60577.44434c.57389.16345,1.18143.22876,1.94046.44092a3.85386,3.85386,0,0,1-4.15768,1.01831,4.56082,4.56082,0,0,1-1.89035-1.17334A3.57262,3.57262,0,0,1,311.03476,151.68982Z" fill="#d04719"/><path d="M311.38721,138.50793a11.93866,11.93866,0,0,1,2.81326,1.8407,15.99838,15.99838,0,0,1,2.28635,2.41443,10.406,10.406,0,0,1,1.65408,3.01807,3.45232,3.45232,0,0,1,.12115,1.96252,1.25489,1.25489,0,0,1-.73986.82178,1.49651,1.49651,0,0,1-.47739.08874c-.15509-.01379-.303-.0426-.44125-.066a1.74429,1.74429,0,0,0,.60653-.481.55436.55436,0,0,0,.08121-.5116,3.8027,3.8027,0,0,0-.58206-1.16382c-.54013-.813-1.18964-1.62475-1.81464-2.45935-.63455-.83227-1.26254-1.68689-1.8638-2.58069A20.05754,20.05754,0,0,1,311.38721,138.50793Z" fill="#d04719"/><path d="M300.31934,139.35742a.50057.50057,0,0,1-.478-.64258c.03271-.10839.85742-2.66015,5.37988-2.96191a.50013.50013,0,1,1,.06641.99805c-3.78516.25293-4.46387,2.17871-4.49121,2.25976A.50415.50415,0,0,1,300.31934,139.35742Z" fill="#230000"/><path d="M314.03613,134.58008a.50057.50057,0,0,1-.478-.64258c.03271-.1084.85742-2.66016,5.37988-2.96094a.50013.50013,0,0,1,.0664.99805c-3.78515.25195-4.46386,2.17773-4.49121,2.25879A.50413.50413,0,0,1,314.03613,134.58008Z" fill="#230000"/><path d="M304.479,143.81445a1.5009,1.5009,0,0,0,0-3,1.5009,1.5009,0,0,0,0,3Z" fill="#230000"/><path d="M318.08388,138.95055a1.5009,1.5009,0,0,0,0-3,1.5009,1.5009,0,0,0,0,3Z" fill="#230000"/><path d="M393.86205,161.34711s-8.17709,36.37354-9.58686,36.37354-34.12014-18.73221-44.19805-21.0769c-3.52342-.81976-9.14471-2.90681-15.0514-3.18338-.29773,4.44034-2.01455,18.15927-11.17131,17.98652-11.20816-.21146-11.63109-16.7064-11.63109-16.7064-9.5163.84586-19.24414,8.67036-19.24414,8.67036l-34.47036,36.585L227.78452,188.6977s-18.8212,8.036-17.55227,10.5737c1.26865,2.53773,19.87846,45.46691,32.77835,47.79318,12.89989,2.32619,39.9686-28.76051,39.9686-28.76051s9.09337,45.67838-44.621,119.69426c0,0,48.85043,45.67838,65.34545,37.64241,16.49487-8.036,21.14739-15.64908,35.10468-13.32289s36.79655,1.26886,43.56358-4.018c0,0-34.75217-74.29784-33.62435-150.42852,0,0,40.885,23.40317,49.90783,12.12451,9.02295-11.27858,14.38021-58.64875,14.38021-58.64875Z" fill="#376f92"/><path d="M338.80835,352.7226c-13.95729-2.32619-18.60981,5.28685-35.10468,13.32289-13.57466,6.61322-49.05638-23.147-61.19674-33.894-1.34237,1.93008-2.71858,3.87622-4.14871,5.84681,0,0,48.85043,45.67838,65.34545,37.64241,16.49487-8.036,21.14739-15.64908,35.10468-13.32289s36.79655,1.26886,43.56358-4.018c0,0-1.29289-2.76641-3.36681-7.76184C369.86285,354.20644,350.96735,354.74905,338.80835,352.7226Z" fill="#133852"/><path d="M335.64025,175.43752s15.36992,100.04333,2.95664,143.95111a29.22007,29.22007,0,0,1-13.323-1.48033,47.87445,47.87445,0,0,0-13.67074-2.53766s18.396-41.76738,13.42349-141.9116a19.25979,19.25979,0,0,1,10.61357,1.97848Z" fill="#ffb957"/><path d="M302.22334,174.74049S316.03963,271.18656,280.512,319.6071c0,0-5.311-4.935-15.50809-5.71679S248.086,310.50673,248.086,306.7002c0,0,35.30147-13.81974,41.97024-127.873C290.05624,178.82723,297.42993,174.74052,302.22334,174.74049Z" fill="#ffb957"/><path d="M302.01187,363.79822c.1004-4.15723.39664-8.29016.76175-12.41443.35275-4.12586.82156-8.23718,1.31287-12.34583.52838-4.10388,1.08172-8.20471,1.75055-12.29126.65643-4.088,1.38339-8.16723,2.30755-12.22192-.09793,4.15747-.39313,8.29053-.75882,12.41467-.35327,4.12574-.822,8.23719-1.31579,12.34546-.53083,4.10364-1.08414,8.20447-1.75354,12.2909C303.65945,355.66382,302.93356,359.74316,302.01187,363.79822Z" fill="#133852"/><path d="M310.25934,359.99158a41.17969,41.17969,0,0,1,.78491-5.65613q.55541-2.78211,1.31918-5.50562c.50595-1.81665,1.09369-3.61023,1.74433-5.3861a40.72177,40.72177,0,0,1,2.28433-5.23389,40.71971,40.71971,0,0,1-.782,5.65686c-.37149,1.85449-.80588,3.69128-1.32206,5.505q-.76423,2.72334-1.74719,5.38514A41.1805,41.1805,0,0,1,310.25934,359.99158Z" fill="#133852"/><path d="M333.31,350.26379a54.98125,54.98125,0,0,1-1.04108-6.52429c-.24753-2.17883-.37817-4.3623-.48621-6.54675-.07064-2.18591-.11621-4.37293-.04544-6.56458a54.36407,54.36407,0,0,1,.51535-6.58715,54.36467,54.36467,0,0,1,1.04407,6.52429c.247,2.17883.37766,4.3623.48322,6.54687.0682,2.186.11377,4.37293.04248,6.5647A54.9825,54.9825,0,0,1,333.31,350.26379Z" fill="#133852"/><path d="M606.12507,112.03843s-12.477,10.67943-24.108,6.34421l-.63442,21.9933s-5.18111-1.6918-3.38358-4.54669c0,0-4.12374-3.48932-1.26884-6.76717s3.80653-6.45,3.38358-7.82454-1.58606-13.42859,5.28685-15.64907,18.71544,1.79753,20.72444,1.16311,12.26549-.423,12.26549,6.97864-.10573,9.51633,1.79753,10.045,3.17211,2.96064,2.009,5.7098,2.432,7.29585-.52869,9.51632c0,0-.52868,9.51633-9.51633,4.22948v-4.22948s7.7188.52869,6.23848-6.8729-5.18111-.95163-4.96963,2.11474c0,0-1.6918,1.37458-2.009-1.37458s-4.018-4.12374-4.441-6.66143S606.12507,112.03843,606.12507,112.03843Z" fill="#5e1212"/><path d="M601.89551,126.17871a.49842.49842,0,0,1-.35352-.14648c-1.66748-1.668-5.07422-.69043-5.10888-.68164a.5.5,0,0,1-.2837-.959c.1626-.04883,4.00977-1.15625,6.09961.9336a.5.5,0,0,1-.35351.85351Z" fill="#230000"/><path d="M589.418,125.61816a.49284.49284,0,0,1-.24951-.06738,6.02765,6.02765,0,0,0-5.73194-.00293.50034.50034,0,0,1-.51269-.85937,6.95587,6.95587,0,0,1,6.74463-.00293.49975.49975,0,0,1-.25049.93261Z" fill="#230000"/><path d="M591.42761,129.59082a21.2346,21.2346,0,0,1-.64447,3.52893c-.295,1.132-.6394,2.23633-.995,3.318l-.51886,1.59888a9.21153,9.21153,0,0,0-.33741,1.35632c-.00763.04749-.00921.0066-.035.00818a.50382.50382,0,0,0-.17-.12365c-.03113-.02015-.11579-.02955-.11017-.01844l.09424.033.18951.07068a7.52094,7.52094,0,0,0,.79413.23547,16.56168,16.56168,0,0,0,1.73309.35486,5.06186,5.06186,0,0,1-1.76483.62671,7.49026,7.49026,0,0,1-.95605.07947l-.24384-.00256-.12219-.0055a1.32517,1.32517,0,0,1-.31293-.10156,1.12832,1.12832,0,0,1-.46716-.43225,1.57029,1.57029,0,0,1-.16925-.40808,3.49647,3.49647,0,0,1-.08612-1.15479,8.14378,8.14378,0,0,1,.11993-.96277,14.1109,14.1109,0,0,1,.46295-1.77673,19.41307,19.41307,0,0,1,1.44031-3.2782A14.5991,14.5991,0,0,1,591.42761,129.59082Z" fill="#d04719"/><path d="M585.6121,131.93666a1.5009,1.5009,0,0,0,0-3,1.5009,1.5009,0,0,0,0,3Z" fill="#230000"/><path d="M598.30054,132.46534a1.5009,1.5009,0,0,0,0-3,1.5009,1.5009,0,0,0,0,3Z" fill="#230000"/><path d="M590.26453,144.82983c1.2611-.77233,2.22363-1.23791,3.01812-1.82495a6.92418,6.92418,0,0,0,1.12879-.97863c.404-.37574.72564-.86683,1.24566-1.43885a2.997,2.997,0,0,1,.1413,2.18006,3.46918,3.46918,0,0,1-1.34784,1.86023,4.00909,4.00909,0,0,1-2.10162.7373A3.36726,3.36726,0,0,1,590.26453,144.82983Z" fill="#d04719"/><path d="M590.2645,154.96767a15.381,15.381,0,0,0,10.99667-3.70083s-4.11062,7.73894-11.09582,8.04608Z" fill="#d04719"/><path d="M646.12893,238.3236c-2.25578.56391-2.1148,4.22959-2.1148,4.22959,3.10163.56391,24.81294,31.86193,24.81294,31.86193,10.15076-24.53084,14.38021-21.99326,1.69172-54.70119-12.68835-32.70793-32.14388-46.87675-37.8538-51.1062-5.70964-4.22946-20.1957-6.027-20.1957-6.027-10.99662,28.549-25.69408.63447-23.79082.63447-19.24413-1.79756-62.38478,17.8695-62.38478,17.8695s-23.05066-29.81783-24.74238-30.87523c-1.69187-1.05725-17.764,12.37126-17.764,12.37126S504.93475,198.637,509.37574,207.096c4.441,8.4589,55.82915-2.74913,55.82915-2.74913,1.26879,42.29479-16.495,163.68078-16.495,163.68078s7.613-2.96066,18.60982,1.26879c10.99648,4.2296,50.33061,10.99677,66.82563,3.80652,16.495-7.19,26.64578-4.22945,26.64578-4.22945s-19.45553-61.75032-25.37685-87.55009c-5.92131-25.79992-1.83284-54.56036-1.97382-58.2259s0-8.31807,2.1148-4.59961C637.66988,222.21638,648.3847,237.75969,646.12893,238.3236Z" fill="#e6560f"/><path d="M518.96259,191.65833a15.7412,15.7412,0,0,1,.7116-3.2876,16.7635,16.7635,0,0,1,1.38849-3.10254,13.04251,13.04251,0,0,1,2.13477-2.702A10.38237,10.38237,0,0,1,526.1,180.63953a.48291.48291,0,0,1,.58123.7373l-.01709.02149a11.1927,11.1927,0,0,0-1.2163,1.94372,12.89662,12.89662,0,0,0-.85511,2.1814,13.3864,13.3864,0,0,0-.47216,2.31872,15.77827,15.77827,0,0,0-.08265,2.40638,11.1225,11.1225,0,0,1-.33581-2.4242,10.49831,10.49831,0,0,1,.20477-2.46912,11.26685,11.26685,0,0,1,.74323-2.38391,9.92789,9.92789,0,0,1,1.27288-2.20007l.56415.75867a11.20162,11.20162,0,0,0-2.626,1.75049,14.58746,14.58746,0,0,0-2.08173,2.4414A23.77519,23.77519,0,0,0,518.96259,191.65833Z" fill="#af2500"/><path d="M565.2049,204.34692a55.26443,55.26443,0,0,1,.42-7.88269,54.62592,54.62592,0,0,1,1.41272-7.76648,54.62684,54.62684,0,0,1-.42011,7.88269A55.26778,55.26778,0,0,1,565.2049,204.34692Z" fill="#af2500"/><path d="M663.75171,248.05139a54.507,54.507,0,0,0-8.32782-5.79614,43.54135,43.54135,0,0,0-4.555-2.14734,24.78473,24.78473,0,0,0-4.813-1.30884l.32715-.88391a44.15886,44.15886,0,0,1,5.05816,3.78943,55.06085,55.06085,0,0,1,4.55616,4.35522,45.31724,45.31724,0,0,1,3.91272,4.93592,33.4407,33.4407,0,0,1,2.99572,5.51465,42.122,42.122,0,0,0-3.41974-5.21009,44.64242,44.64242,0,0,0-4.08679-4.67187,58.98622,58.98622,0,0,0-4.56085-4.20532c-1.59485-1.3108-3.2688-2.55469-4.9635-3.691l-.02277-.01526a.47854.47854,0,0,1,.35-.86866,27.0582,27.0582,0,0,1,9.58008,3.79407,43.25643,43.25643,0,0,1,4.19415,2.95874A38.83273,38.83273,0,0,1,663.75171,248.05139Z" fill="#af2500"/><path d="M626.92339,165.82114s23.71695,103.2367,2.14661,153.5675c0,0-6.76717.42294-16.072-3.38359a21.95864,21.95864,0,0,0-17.34087.423s19.493-25.44433,21.23659-153.14087C616.8937,163.28713,623.93089,159.54525,626.92339,165.82114Z" fill="#376f92"/><path d="M587.19757,163.124s.69551,82.24878-5.99617,101.70439-4.11875,24.108-.11837,40.18005,1.06669,19.4556,1.06669,19.4556-2.21436-8.008-11.48287-5.06139-21.534,4.66641-21.534,0c0,0,4.65243-23.69907,5.49833-42.73172s10.00976-34.68173,12.40647-52.02259,6.38551-59.98264,6.38551-59.98264S579.58392,157.42876,587.19757,163.124Z" fill="#376f92"/><path d="M411.02046,160.93756l3.49828-7.28116s1.69647-5.13961.6344-7.63639c0,0,3.75629-2.88236-1.139-4.50762,0,0,1.67625-4.61526-3.17-3.9064,0,0,8.94364-13.63295,6.32386-15.78824s-10.8323,13.74543-10.8323,13.74543.90707-16.30617-2.5672-15.52891-3.60616,22.61181-3.60616,22.61181-4.61294,10.22753-3.96679,18.701" fill="#fd8b66"/><path d="M400.16235,142.64612a3.5984,3.5984,0,0,1,2.59192-1.37293,6.72572,6.72572,0,0,1,2.98957.4856,20.50888,20.50888,0,0,1,2.65539,1.32812c.85028.47791,1.6922.97083,2.52939,1.49292.41519.265.82477.54908,1.23062.85852a5.74572,5.74572,0,0,1,.60129.53052,2.03755,2.03755,0,0,1,.29153.37927.82652.82652,0,0,1,.12122.28956.75728.75728,0,0,1,.00244.41064.852.852,0,0,1-.205.3645,1.73233,1.73233,0,0,1-.24969.1864,2.63648,2.63648,0,0,1-.41171.17322,6.92842,6.92842,0,0,1-.75678.20044,10.80907,10.80907,0,0,1-1.497.20044,10.532,10.532,0,0,1-2.98981-.204,4.35539,4.35539,0,0,1-2.53762-1.48279,4.5082,4.5082,0,0,0,2.62017.99951,12.10794,12.10794,0,0,0,2.82541-.08874c.46518-.07788.9303-.16065,1.37882-.27747a6.09366,6.09366,0,0,0,.64367-.20337,1.803,1.803,0,0,0,.25486-.11877.14244.14244,0,0,1,.04059-.032c-.02887.00512-.00879.024-.03376.05-.00372.149-.03546-.05091-.19424-.179a4.882,4.882,0,0,0-.49973-.42371c-.37161-.27417-.76635-.53808-1.17373-.79138-.80277-.52319-1.63779-1.01611-2.46646-1.51916a27.22509,27.22509,0,0,0-2.481-1.42713,6.90717,6.90717,0,0,0-2.66883-.71533A3.61006,3.61006,0,0,0,400.16235,142.64612Z" fill="#d04719"/><path d="M408.56158,149.36316a3.71137,3.71137,0,0,0,.19983,1.26807.559.559,0,0,0,.70658.39672,4.53987,4.53987,0,0,0,1.9823-1.23889c1.25348-1.16235,2.38916-2.51208,3.70285-3.769a11.29529,11.29529,0,0,1-1.26252,2.40649,12.077,12.077,0,0,1-1.76486,2.09912,4.20463,4.20463,0,0,1-2.62042,1.27881,1.14563,1.14563,0,0,1-1.21869-1.05883A2.65965,2.65965,0,0,1,408.56158,149.36316Z" fill="#d04719"/><path d="M408.56458,149.353l.00039.011-.00094.00171a2.641,2.641,0,0,1-1.43943,1.28516,2.54131,2.54131,0,0,1-2.07452-.14649,2.824,2.824,0,0,1-.43781-.28308,1.2928,1.2928,0,0,1-.44381-.48193,1.71427,1.71427,0,0,1-.0907-1.15344,3.85764,3.85764,0,0,1,.90268-1.6803c-.03882.63171-.13675,1.23144-.12781,1.76648a1.11952,1.11952,0,0,0,.14252.60681,1.86559,1.86559,0,0,0,.51419.33753,3.15366,3.15366,0,0,0,3.04968-.25574l-.00076.00134Z" fill="#d04719"/><path d="M410.84415,137.606a12.26741,12.26741,0,0,1-3.68735,5.29968,8.41751,8.41751,0,0,1,1.37854-2.97412A8.624,8.624,0,0,1,410.84415,137.606Z" fill="#d04719"/><path d="M410.96414,145.19629a5.45,5.45,0,0,1,1.14014-2.16065,5.39051,5.39051,0,0,1,1.90991-1.52331,5.38944,5.38944,0,0,1-1.14014,2.16064A5.45031,5.45031,0,0,1,410.96414,145.19629Z" fill="#d04719"/><path d="M213.22382,196.02372l-5.849-6.41264s-3.46209-4.16024-3.389-6.87254c0,0-4.5513-1.30513-.59233-4.6114,0,0-3.25109-3.67979,1.51777-4.79639,0,0-13.31776-9.40655-11.67017-12.372s15.11623,8.819,15.11623,8.819-6.82011-14.83915-3.30272-15.38928,11.64239,19.71683,11.64239,19.71683,5.53041,8.05776,8.03473,16.17849" fill="#fd8b66"/><path d="M216.69707,174.10535a3.61016,3.61016,0,0,0-2.75452.13269,6.90688,6.90688,0,0,0-2.22092,1.6438,27.22342,27.22342,0,0,0-1.78534,2.23706c-.58662.77172-1.1829,1.53637-1.73808,2.31738-.28616.385-.55673.77515-.802,1.1665a4.86853,4.86853,0,0,0-.30967.5774c-.10085.17724-.057.375-.11518.23767-.03273-.015-.021-.04-.04975-.03431a.14325.14325,0,0,1,.04951.015,1.80478,1.80478,0,0,0,.28062.01709,6.09184,6.09184,0,0,0,.67345-.04663c.46015-.05579.92322-.14917,1.38455-.24732a12.09791,12.09791,0,0,0,2.66135-.95288,4.50789,4.50789,0,0,0,2.07156-1.89013,4.355,4.355,0,0,1-1.81764,2.30944,10.5278,10.5278,0,0,1-2.707,1.28565,10.80021,10.80021,0,0,1-1.4663.36218,6.92459,6.92459,0,0,1-.77756.09082,2.63951,2.63951,0,0,1-.44657-.01025,1.741,1.741,0,0,1-.30065-.08191.8523.8523,0,0,1-.32432-.264.75741.75741,0,0,1-.14824-.38293.82587.82587,0,0,1,.0067-.31385,2.03793,2.03793,0,0,1,.13221-.45971,5.74648,5.74648,0,0,1,.365-.714c.26419-.43665.54115-.85108.83032-1.24988.58762-.79248,1.19029-1.55969,1.80625-2.31592a20.495,20.495,0,0,1,1.98388-2.209,6.72647,6.72647,0,0,1,2.60358-1.54749A3.59856,3.59856,0,0,1,216.69707,174.10535Z" fill="#d04719"/><path d="M211.34406,183.43335a2.65945,2.65945,0,0,1,.76248,1.18542,1.14555,1.14555,0,0,1-.74587,1.43177,4.2045,4.2045,0,0,1-2.90672-.22937,12.07572,12.07572,0,0,1-2.41141-1.30628,11.2929,11.2929,0,0,1-2.05664-1.77636c1.683.68811,3.23428,1.52771,4.82657,2.14978a4.54138,4.54138,0,0,0,2.2984.42614c.33348-.06164.49277-.2207.512-.62817A3.7107,3.7107,0,0,0,211.34406,183.43335Z" fill="#d04719"/><path d="M211.33757,183.42493l.00919.00622-.00119-.0011a3.15356,3.15356,0,0,0,2.93121-.87976,1.86647,1.86647,0,0,0,.3547-.50244,1.11959,1.11959,0,0,0-.08979-.61682c-.18778-.5011-.49869-1.02319-.76631-1.59668a3.85756,3.85756,0,0,1,1.45568,1.23254,1.71394,1.71394,0,0,1,.33834,1.10633,1.29248,1.29248,0,0,1-.23633.61108,2.82542,2.82542,0,0,1-.30357.42383,2.54066,2.54066,0,0,1-1.8765.89661,2.64128,2.64128,0,0,1-1.81027-.66809l-.0015-.00123Z" fill="#d04719"/><path d="M204.91135,173.33069a8.62346,8.62346,0,0,1,3.00045,1.3175,8.42,8.42,0,0,1,2.37264,2.26209,12.26925,12.26925,0,0,1-5.37309-3.57959Z" fill="#d04719"/><path d="M207.58151,180.43689a5.45145,5.45145,0,0,1-2.33529-.71729,5.39069,5.39069,0,0,1-1.85265-1.5924,5.38815,5.38815,0,0,1,2.3353.71728A5.44852,5.44852,0,0,1,207.58151,180.43689Z" fill="#d04719"/><path d="M580.29,490.25959l2.14136,9.99214S565.302,502.036,561.01963,513.09878h39.56766V490.25959Z" fill="#fd8b66"/><path d="M664.38615,490.25959l3.095,9.99214s17.12939,1.78431,21.41174,12.84705H651.90919l-3.80654-22.83919Z" fill="#fd8b66"/><path d="M355.21123,490.25959l-.14764,9.99214s17.12939,1.78431,21.41174,12.84705H335.68514V490.25959Z" fill="#fd8b66"/><path d="M191.12843,343.38059l-8.39943-5.41428s-10.58073,13.58852-22.23334,11.36607l21.591-34.60738,19.37731,12.08918Z" fill="#fd8b66"/><path d="M338.80832,362.31787a24.02305,24.02305,0,0,0-16.7893,2.87748c1.58718,4.268,3.93832,11.22021,3.93832,14.95674,0,5.63937,3.66554,113.91393,3.66554,113.91393h28.76044s2.96066-107.00563,2.96066-113.35c0-4.39237-1.8241-12.63414-2.94689-17.29125A104.72391,104.72391,0,0,1,338.80832,362.31787Z" fill="#e6560f"/><path d="M246.88967,345.55883l-.00029.00014-48.38032-23.42109-12.477,21.35879s81.108,56.81369,95.09272,53.85547c14.66217-3.10178,20.887-20.76305,20.887-20.76305l.36742-.44688C289.4687,379.97512,261.1345,357.73978,246.88967,345.55883Z" fill="#e6560f"/><path d="M570.67115,370.40561l-.0043.00144,7.36737,125.35083h25.095l1.95217-119.76238.00215-.001A172.401,172.401,0,0,1,570.67115,370.40561Z" fill="#ffb957"/><path d="M634.14532,373.103c-4.17166,1.8185-9.80643,2.74181-16.07194,3.04155v.11415L646.2699,495.75788H669.109L648.559,368.79635A58.31664,58.31664,0,0,0,634.14532,373.103Z" fill="#ffb957"/><path d="M309.81729,135.4562a1.12567,1.12567,0,0,0,0-2.25,1.12567,1.12567,0,0,0,0,2.25Z" fill="#ce185e"/></svg>