<svg id="Layer_1" data-name="Layer 1" xmlns="http://www.w3.org/2000/svg" xmlns:xlink="http://www.w3.org/1999/xlink" viewBox="0 0 900 600"><defs><clipPath id="clip-path"><circle cx="283.84397" cy="188.38346" r="127.13094" fill="none"/></clipPath></defs><path d="M775.85631,333.2138a46.81456,46.81456,0,0,0,3.83945-14.267c.26532-2.23942.49212-4.46692.54047-6.72369a46.63562,46.63562,0,0,0-.71681-7.722,123.40409,123.40409,0,0,0-6.7804-25.29543,192.70693,192.70693,0,0,0-11.02434-24.2807,166.20225,166.20225,0,0,0-14.4651-21.99731q-2.151-2.793-4.40935-5.501a38.31894,38.31894,0,0,0-4.937-5.29677c-1.81585-1.48893-3.44694-3.22177-5.18227-4.80621q-1.3068-1.19316-2.637-2.36033a15.85642,15.85642,0,0,0-3.89188-2.43721,4.36,4.36,0,0,0-6.07739,5.84357,20.74832,20.74832,0,0,0,1.6207,2.86478c.75051,1.01829,1.62847,1.94725,2.44721,2.91211q1.97177,2.32377,3.86335,4.714c.13493.17045.70331.833.14789.17317-.503-.5976-.10885-.12823-.012.033.26266.43727.5386.87182.81742,1.29891a38.29871,38.29871,0,0,0,2.67985,3.42137q2.0018,2.41851,3.91869,4.90558.89877,1.16583,1.77822,2.34636c.11728.15734.23243.31649.35122.4727-1.00924-1.32686-.49729-.67667-.27944-.3768q.51788.71282,1.03214,1.4282,1.76616,2.46882,3.44907,4.9958c2.28049,3.42439,4.51379,6.89256,6.63595,10.41744a181.3211,181.3211,0,0,1,11.261,21.95191q.57946,1.34914,1.13694,2.70755c.16483.40178.77272,1.985.15047.35628.1868.48894.38473.97379.57379,1.46185q1.13519,2.93061,2.23186,5.87769c1.4716,3.97265,2.82912,7.99578,3.93823,12.0857.67053,2.47253,1.248,4.97182,1.68754,7.4961.20553,1.18039.38978,2.35975.61785,3.53609q.1787.9216.32779,1.84861.06549.40978.12474.82059c.01573.109.15335,1.21777.08734.63132-.05865-.52095.01571.17657.02092.232.0395.4193.0857.83861.11355,1.25894.03691.55669.04435,1.11444.04336,1.67221-.00224,1.24519-.05556,2.49031-.16729,3.73055q-.037.41127-.08306.82179c-.01.08948-.14012,1.09316-.08362.70287.0551-.38082-.05015.29793-.05011.2977-.0719.41278-.14538.8248-.22871,1.23547a37.21461,37.21461,0,0,1-.94586,3.65381,3.58967,3.58967,0,0,0,2.03105,4.25424c1.4763.64414,3.75854.23374,4.50357-1.39573Z" fill="#ffe3c2"/><path d="M139.22754,368.76407q-1.08577-4.63929-1.93887-9.32815-.42488-2.34561-.7891-4.70169-.18972-1.22556-.36329-2.45351a11.42851,11.42851,0,0,0-.15595-1.13435c.04072.0039-.06274,1.52656.01013.06383.17717-3.55633-.49044-7.18521-.74241-10.7431-.22462-3.172-.466-6.38344-.42026-9.56479q-.02568.932-.05131,1.864c.3186-4.44846.10034-8.93075.2228-13.39017l-.05586,2.02954a237.78758,237.78758,0,0,1,6.012-46.92243q1.52035-6.53032,3.463-12.95138-.33465,1.10265-.66929,2.2053a204.03818,204.03818,0,0,1,16.23382-38.74336q2.84815-5.20074,6.0041-10.22356-.61305.97692-1.22613,1.95385,2.54544-4.04072,5.27961-7.95767c2.19984-3.14338,4.53713-6.15752,6.572-9.41237q-.61232.97576-1.22465,1.95152,2.35307-3.74675,4.86981-7.38663c.80157-1.15653,1.6433-2.28776,2.42378-3.45776a14.54281,14.54281,0,0,0,2.612-6.74479,6.02926,6.02926,0,0,0-1.58352-5.047,5.7032,5.7032,0,0,0-5.00738-1.90536,20.74117,20.74117,0,0,0-3.21058.7343,13.46593,13.46593,0,0,0-3.45742,2.13826c-1.67314,1.38575-3.21494,3.02829-4.75824,4.55961a66.76516,66.76516,0,0,0-6.71815,7.09793A212.09977,212.09977,0,0,0,148.526,209.47463a212.8544,212.8544,0,0,0-26.92093,76.01406,195.91874,195.91874,0,0,0-1.31729,41.0379c.25234,3.31258.787,6.56254,1.23177,9.85294q.66656,4.93128,1.585,9.82406a38.1852,38.1852,0,0,0,1.31,6.02963,5.825,5.825,0,0,0,.42319,1.04145c.311.49-.04982-.50589-.06112-.53071a3.03988,3.03988,0,0,1,.12261.56233q.26736,1.21847.55059,2.43341c.82928,3.55592,1.72579,7.09646,2.73641,10.60538q.68648,2.38362,1.43718,4.74786a4.96451,4.96451,0,0,0,5.81409,3.01c2.17024-.527,4.35715-2.91586,3.7901-5.33887Z" fill="#ffe3c2"/><path d="M164.68987,432.81543c-.64533-.60035-1.28032-1.21095-1.89954-1.83829q-.3984-.40357-.78884-.81493c.458.48284-.23879-.26374-.32767-.36244q-1.57039-1.74393-2.99736-3.6098-1.4303-1.86984-2.70934-3.849-.6661-1.03054-1.2894-2.0879c-.22413-.37993-.43892-.765-.65992-1.1467-.48411-.83613.31788.62894-.16673-.302a68.40459,68.40459,0,0,1-3.77041-8.60145q-.82318-2.30936-1.45211-4.68223-.07278-.27368-.142-.54832-.1359-.539.08131.34706a4.71677,4.71677,0,0,1-.24918-1.09908,6.41546,6.41546,0,0,0-2.617-4.23585,4.36444,4.36444,0,0,0-6.63206,1.51995,6.20606,6.20606,0,0,0-.47266,5.07325c.22169.84835.46946,1.6907.73285,2.52695q.735,2.33365,1.66448,4.60035a61.52406,61.52406,0,0,0,4.987,9.57185,62.90456,62.90456,0,0,0,13.86237,15.40989,3.80651,3.80651,0,0,0,4.84626-5.87128Z" fill="#ffe3c2"/><path d="M161.31353,296.98687c6.23894-32.73558,21.88224-62.96219,41.274-89.99808,17.63557-24.58771,48.77754-41.35549,76.32612-53.22109A273.99765,273.99765,0,0,1,369.715,131.99943c25.591-1.62294,51.64542.86012,77.14287,2.65578,15.37722,1.08342,30.7561,2.49406,46.04075,4.54957A437.31356,437.31356,0,0,1,539.551,147.895c67.17073,16.58228,131.48158,50.11557,176.00147,102.13456,7.24486,8.46454,13.97876,17.43874,18.92846,27.34635,7.76961,15.55447,10.87912,32.8406,13.90543,49.86011,3.65262,20.55079,7.32108,41.38049,5.44344,62.11258C750.776,423.09527,733.19966,454.016,711.643,480.42167c-10.181,12.47309-21.5059,24.34064-35.37889,32.76944-35.25356,21.41906-80.33294,17.44329-121.70568,12.26863-23.48721-2.93912-47.27237-5.84862-70.9522-4.22726-20.0542,1.37521-38.02564,10.10408-57.562,13.83508-68.69943,13.12629-142.55442-9.6464-194.08343-55.82283A243.64722,243.64722,0,0,1,209.67,456.48158C171.71942,412.25631,150.31149,354.71241,161.31353,296.98687Z" fill="#ffe3c2"/><rect x="475.91406" y="161.81592" width="43.99414" height="4" fill="#ffc68d"/><rect x="475.91406" y="180.18994" width="43.99414" height="4" fill="#ffc68d"/><rect x="475.91406" y="198.56445" width="43.99414" height="4" fill="#ffc68d"/><rect x="475.91406" y="216.93848" width="43.99414" height="4" fill="#ffc68d"/><rect x="475.91406" y="235.31299" width="43.99414" height="4" fill="#ffc68d"/><rect x="475.91406" y="253.6875" width="43.99414" height="4" fill="#ffc68d"/><rect x="475.91406" y="272.06152" width="43.99414" height="4" fill="#ffc68d"/><rect x="493.32324" y="163.81592" width="4" height="18.37402" fill="#ffc68d"/><rect x="508.07422" y="182.18994" width="4" height="18.37451" fill="#ffc68d"/><rect x="488.40625" y="200.56445" width="4" height="18.37402" fill="#ffc68d"/><rect x="499.27539" y="218.93848" width="4" height="18.37451" fill="#ffc68d"/><rect x="478.31348" y="237.31299" width="4" height="18.37451" fill="#ffc68d"/><rect x="508.07422" y="237.31299" width="4" height="18.37451" fill="#ffc68d"/><rect x="488.40625" y="255.6875" width="4" height="18.37402" fill="#ffc68d"/><rect x="629.46289" y="276.76563" width="43.99414" height="4" fill="#ffc68d"/><rect x="629.46289" y="295.14014" width="43.99414" height="4" fill="#ffc68d"/><rect x="629.46289" y="313.51416" width="43.99414" height="4" fill="#ffc68d"/><rect x="629.46289" y="331.88867" width="43.99414" height="4" fill="#ffc68d"/><rect x="629.46289" y="350.26318" width="43.99414" height="4" fill="#ffc68d"/><rect x="629.46289" y="368.63721" width="43.99414" height="4" fill="#ffc68d"/><rect x="629.46289" y="387.01172" width="43.99414" height="4" fill="#ffc68d"/><rect x="646.87207" y="278.76563" width="4" height="18.37451" fill="#ffc68d"/><rect x="661.62305" y="297.14014" width="4" height="18.37402" fill="#ffc68d"/><rect x="641.95508" y="315.51416" width="4" height="18.37451" fill="#ffc68d"/><rect x="652.82422" y="333.88867" width="4" height="18.37451" fill="#ffc68d"/><rect x="631.8623" y="352.26318" width="4" height="18.37402" fill="#ffc68d"/><rect x="661.62305" y="352.26318" width="4" height="18.37402" fill="#ffc68d"/><rect x="641.95508" y="370.63721" width="4" height="18.37451" fill="#ffc68d"/><rect x="220.61426" y="265.70068" width="43.99414" height="4" fill="#ffc68d"/><rect x="220.61426" y="284.07471" width="43.99414" height="4" fill="#ffc68d"/><rect x="220.61426" y="302.44922" width="43.99414" height="4" fill="#ffc68d"/><rect x="220.61426" y="320.82373" width="43.99414" height="4" fill="#ffc68d"/><rect x="220.61426" y="339.19775" width="43.99414" height="4" fill="#ffc68d"/><rect x="220.61426" y="357.57227" width="43.99414" height="4" fill="#ffc68d"/><rect x="220.61426" y="375.94629" width="43.99414" height="4" fill="#ffc68d"/><rect x="238.02344" y="267.70068" width="4" height="18.37402" fill="#ffc68d"/><rect x="252.77441" y="286.07471" width="4" height="18.37451" fill="#ffc68d"/><rect x="233.10645" y="304.44922" width="4" height="18.37451" fill="#ffc68d"/><rect x="243.97559" y="322.82373" width="4" height="18.37402" fill="#ffc68d"/><rect x="223.01367" y="341.19775" width="4" height="18.37451" fill="#ffc68d"/><rect x="252.77441" y="341.19775" width="4" height="18.37451" fill="#ffc68d"/><rect x="233.10645" y="359.57227" width="4" height="18.37402" fill="#ffc68d"/><path d="M531.446,357.05184c-1.24345-8.39326-1.5543-11.50187-1.5543-11.50187s-17.40834-11.81282-21.44954-31.70795c-4.04121-19.89524-9.015-27.6668-14.92143-33.26231s-23.93639-30.1537-23.93639-30.1537-14.5069,6.73529-29.94641,45.80045c0,0,3.54784,46.87108,20.6235,59.59442l1.34412.92011s8.60049,6.52816,18.08184,6.99449c0,0,2.7256,9.32581-.73555,13.52244,0,0,7.41908,21.44959,28.55772,21.44959s31.3971-35.61249,31.3971-35.61249l-.00053-.004C536.07242,363.15152,532.21484,362.24152,531.446,357.05184Z" fill="#fd8b66"/><path d="M514.97026,521.49817s-9.32587-3.10871-10.88017-3.10871c-1.08481,0-16.02711-2.04292-25.957-3.278l6.37264,22.24058H618.48748l-1.68074-7.97057C598.7248,534.03452,561.35388,531.91085,514.97026,521.49817Z" fill="#d04719"/><path d="M623.46129,456.83876s-11.19107-73.36363-30.46455-83.93295-54.09062-9.8148-54.09062-9.8148l.00053.004s-10.25842,35.61249-31.3971,35.61249-28.55772-21.44959-28.55772-21.44959-26.46493,3.73041-37.03424,18.34088c-10.56937,14.61058-37.92527,49.73809-37.92527,49.73809l40.10127,31.08626,16.78658-17.09749,14.29967,50.04884,104.76068-22.07129-4.97381-23.00374Z" fill="#e6560f"/><path d="M467.27142,481.69505s23.76132-64.58845,71.6347-118.604c0,0,24.83538-7.27811,45.8875,6.24217,0,0-22.10594,82.23772-36.48334,115.33617S532.68942,537.352,529.5808,537.352H484.50571Z" fill="#78c1d0"/><path d="M439.63791,296.22644S443.36826,345.55,461.60553,356.741c0,0-15.75037-1.65793-25.698-19.48071s-2.90139-46.83662-2.90139-64.24493,10.77657-35.64557,39.79041-35.23108c0,0,10.31027-7.40889,26.31969-2.12423s31.08625,19.42891,33.884,26.88961,18.34088,47.2511,12.4345,61.23992c0,0,19.58434,23.62555-3.41949,38.85781,0,0-9.32588,2.79776-10.56933-5.59552S529.89166,345.55,529.89166,345.55s-17.4083-11.81277-21.44951-31.708-9.015-27.66677-14.9214-33.26229S469.58433,250.426,469.58433,250.426,455.07741,257.16139,439.63791,296.22644Z" fill="#5e1212"/><path d="M292.08183,442.53907s.62172-17.71916,13.83338-3.10862L319.12687,454.041l13.85534,27.41662L292.08183,478.91l-5.12923-16.16485Z" fill="#fd8b66"/><path d="M477.35742,283.1333a.99994.99994,0,0,1-.56054-1.8291c.23828-.15967,5.87988-3.89111,11.58105-1.76514a.99977.99977,0,1,1-.69727,1.874c-4.72754-1.75928-9.71777,1.51757-9.76855,1.55127A.9936.9936,0,0,1,477.35742,283.1333Z" fill="#490000"/><path d="M445.33691,291.21338a.99914.99914,0,0,1-.79394-1.60547c.16211-.21094,4.06152-5.15039,12.05371-3.31934a.99994.99994,0,0,1-.44727,1.94922c-6.69824-1.53564-9.88964,2.42188-10.02246,2.59131A1.00135,1.00135,0,0,1,445.33691,291.21338Z" fill="#490000"/><path d="M466.94189,295.19025a81.98458,81.98458,0,0,1-.24438,9.2229c-.20361,3.04944-.532,6.07617-.89063,9.09008-.3479,3.00251-.80566,6.03669-1.07617,8.94-.02636.35455-.04394.71112-.03662,1.01507-.00049.14691.02173.29889.01367.31275-.00244.01043-.00634.00488-.043-.05231-.02221-.0304-.01806-.01263-.07006-.07434a.5844.5844,0,0,0-.177-.13147c-.13159-.1189-.56591-.11334-.38769-.10126l.12549.0116c.68261.06158,1.45581.04712,2.208.03851,1.52294.00769,3.05932-.04474,4.61962.01691a36.61031,36.61031,0,0,1-4.42944,1.44379,21.84409,21.84409,0,0,1-2.35083.46649l-.16089.01941a1.28468,1.28468,0,0,1-.66333-.15485,1.575,1.575,0,0,1-.28564-.22467,1.13506,1.13506,0,0,1-.1521-.19043,1.58145,1.58145,0,0,1-.16748-.30878,3.77863,3.77863,0,0,1-.22827-.80328,12.448,12.448,0,0,1-.15552-1.27087,52.50912,52.50912,0,0,1,.4397-9.31141,91.54622,91.54622,0,0,1,1.56079-9.06817A63.70161,63.70161,0,0,1,466.94189,295.19025Z" fill="#d04719"/><path d="M475.02441,335.11017c1.12159-.90936,2.08789-1.71741,2.95044-2.551a14.08494,14.08494,0,0,0,2.15406-2.60577,12.96524,12.96524,0,0,0,1.44165-3.03094c.25537-.54853.32422-1.159.55932-1.7743.18433-.62616.28809-1.27533.5625-1.98034a8.82406,8.82406,0,0,1,.91016,1.94781,7.945,7.945,0,0,1,.301,2.15589,7.697,7.697,0,0,1-1.25561,4.30932,7.97944,7.97944,0,0,1-3.37671,2.93939A6.9979,6.9979,0,0,1,475.02441,335.11017Z" fill="#d04719"/><path d="M453.88577,311.40189c3.86072,0,3.86711-6,0-6-3.86071,0-3.86711,6,0,6Z" fill="#490000"/><path d="M484.03944,305.34007c3.86071,0,3.86711-6,0-6-3.86072,0-3.86711,6,0,6Z" fill="#490000"/><path d="M469.89519,321.19406c3.86072,0,3.86711-6,0-6-3.86071,0-3.86711,6,0,6Z" fill="#e6560f"/><path d="M466.942,289.64151c3.86071,0,3.86711-6,0-6-3.86071,0-3.86711,6,0,6Z" fill="#e6560f"/><path d="M294.10244,477.9774s6.21725-3.26406,9.9476-5.4401a3.87865,3.87865,0,0,0,1.55431-5.59552s5.90639,1.55431,8.39329-1.24345-4.04122-6.37268-4.04122-6.37268c2.02061-.4663,1.86518-5.90639-1.24345-6.839s-11.65734-4.9738-11.65734-4.9738c3.57492-.93259,4.81837-3.264,4.81837-5.44009s-6.06182-4.19665-11.03562-5.84591a11.2692,11.2692,0,0,0-9.17045,1.183s-3.57491,4.81837,2.176,7.927c0,0-9.17044,9.17045-1.24345,12.4345,0,0-6.839,8.23786-.93259,11.19106,0,0-2.79776,9.9476,6.68355,12.27907s19.58434,2.4869,21.60494,3.73035,48.96085,49.27171,64.81484,48.65,36.06-24.24729,36.06-24.24729l-55.02266-29.84279" fill="#fd8b66"/><polygon points="283.844 405.857 290.838 436.227 343.063 492.277 389.071 516.524 466.476 492.899 444.094 476.423 403.992 445.337 379.123 423.887 360.161 373.528 283.844 405.857" fill="#78c1d0"/><rect x="291.10697" y="402.49211" width="29.61711" height="3.00015" transform="translate(-123.99586 135.71957) rotate(-20.90093)" fill="#6095b2"/><rect x="292.42423" y="408.04021" width="38.16522" height="3.00015" transform="translate(-125.60725 138.07936) rotate(-20.90093)" fill="#6095b2"/><rect x="295.14799" y="417.02629" width="29.61711" height="3.00015" transform="translate(-128.91507 138.11759) rotate(-20.90093)" fill="#6095b2"/><rect x="345.88635" y="386.74504" width="13.05623" height="16.93911" transform="translate(-109.81346 136.88171) rotate(-19.07625)" fill="#6095b2"/><polygon points="460.88 459.326 452.487 422.022 454.507 465.816 460.88 459.326" fill="#af2500"/><path d="M574.96671,464.29947,567.506,430.7263s6.21725,56.88784-5.90639,60.61819l18.34088-4.04128Z" fill="#af2500"/><path d="M672.42188,538.35205H260.21875a1,1,0,0,1,0-2H672.42188a1,1,0,0,1,0,2Z" fill="#490000"/><path d="M472.38208,242.34357a198.65268,198.65268,0,0,0,19.7832,17.39752c3.49536,2.63849,7.04908,5.15027,10.75269,7.50329,3.68579,2.38044,7.42847,4.7934,11.041,7.39032q5.3877,3.94218,10.47486,8.23444a83.79342,83.79342,0,0,1,9.62744,9.33966,32.81924,32.81924,0,0,1,3.89355,5.59155,31.3074,31.3074,0,0,1,2.53467,6.29871,35.26031,35.26031,0,0,1,1.11133,13.26605c-.33374-8.806-3.26221-17.47851-9.292-23.604a96.93,96.93,0,0,0-9.688-8.70508c-3.40332-2.75635-6.86353-5.45044-10.418-7.99121-3.51636-2.59876-7.18457-4.9751-10.85278-7.46137a125.37389,125.37389,0,0,1-10.644-8.04315A119.22724,119.22724,0,0,1,472.38208,242.34357Z" fill="#490000"/><path d="M482.74414,244.00159c3.48291,2.34771,6.90894,4.638,10.4292,6.75091,1.77393,1.03253,3.52295,2.09259,5.34033,3.03137,1.79956.96607,3.60523,1.91944,5.46192,2.76764,3.68774,1.746,7.44946,3.33918,11.30688,4.73835,3.85791,1.403,7.7937,2.62384,11.81152,3.85034a51.47255,51.47255,0,0,1-12.49292-1.6106,62.45362,62.45362,0,0,1-11.91577-4.27179,63.703,63.703,0,0,1-10.81762-6.57312A51.91746,51.91746,0,0,1,482.74414,244.00159Z" fill="#490000"/><path d="M450,267.62714a59.77793,59.77793,0,0,0-7.33179,8.32537,45.65468,45.65468,0,0,0-5.15063,9.4953,47.12734,47.12734,0,0,0-2.738,10.46052,64.17649,64.17649,0,0,0-.52978,11.09466A29.78248,29.78248,0,0,1,432.446,295.7196a32.79161,32.79161,0,0,1,2.28174-11.37268,32.3167,32.3167,0,0,1,6.12622-9.85974A29.03162,29.03162,0,0,1,450,267.62714Z" fill="#490000"/><circle cx="283.84397" cy="188.38346" r="127.13094" fill="#78c1d0"/><circle cx="384.38821" cy="334.9001" r="18.35177" fill="#78a7c6"/><rect x="570.00633" y="213.90801" width="155.46949" height="16.61663" fill="#78c1d0"/><path d="M586.148,184.17342h34.40721a0,0,0,0,1,0,0v17.14466A12.58993,12.58993,0,0,1,607.96524,213.908h-9.22735A12.58993,12.58993,0,0,1,586.148,201.31808V184.17342A0,0,0,0,1,586.148,184.17342Z" fill="#376f92"/><path d="M630.53747,184.17342h34.40721a0,0,0,0,1,0,0v17.14466A12.58993,12.58993,0,0,1,652.35475,213.908H643.1274a12.58993,12.58993,0,0,1-12.58993-12.58993V184.17342A0,0,0,0,1,630.53747,184.17342Z" fill="#e6560f"/><path d="M674.927,184.17342h34.40721a0,0,0,0,1,0,0v17.14466A12.58993,12.58993,0,0,1,696.74426,213.908h-9.22735A12.58993,12.58993,0,0,1,674.927,201.31808V184.17342a0,0,0,0,1,0,0Z" fill="#376f92"/><path d="M600.86392,176.81543a7.358,7.358,0,1,1-14.716,0c0-4.0637,7.358-13.881,7.358-13.881S600.86392,172.75173,600.86392,176.81543Z" fill="#ffb957"/><path d="M655.09906,176.81543a7.358,7.358,0,1,1-14.716,0c0-4.0637,7.358-13.881,7.358-13.881S655.09906,172.75173,655.09906,176.81543Z" fill="#ffb957"/><path d="M709.33419,176.81543a7.358,7.358,0,1,1-14.716,0c0-4.0637,7.358-13.881,7.358-13.881S709.33419,172.75173,709.33419,176.81543Z" fill="#ffb957"/><rect x="581.80577" y="230.52464" width="14.44252" height="31.52514" fill="#78c1d0"/><rect x="581.80577" y="230.52473" width="14.44251" height="8.30829" fill="#6095b2"/><rect x="699.23386" y="230.52464" width="14.44252" height="31.52514" fill="#78c1d0"/><rect x="699.23386" y="230.52473" width="14.44251" height="8.30829" fill="#6095b2"/><path d="M479.68738,363.73548s16.63113-3.10868,29.68735-15.69862c0,0-9.00027,19.74058-28.66969,23.00423A23.48446,23.48446,0,0,0,479.68738,363.73548Z" fill="#d04719"/><path d="M487.718,433.006s17.61554,27.14866-4.55932,37.30351c0,0,1.29526-4.68885,0-8.10833,0,0-.44039,5.51781-4.40388,5.90638,0,0,3.88578-6.13953-2.79777-12.97851s-6.52811-13.36709-4.5075-21.13865c0,0-12.9008-11.50191-7.61614-29.53194,0,0-16.32028-12.27907,1.39889-25.02443,0,0,1.70009-13.34439,15.14972-12.81173,0,0,1.72011,6.28358-1.43015,10.63567,0,0,11.61572,10.103,6.17563,28.28851C485.12746,405.54643,493.57256,415.70127,487.718,433.006Z" fill="#5e1212"/><path d="M465.33105,379.419c1.18189,2.67749,2.20362,5.26367,3.11133,7.93084a26.4936,26.4936,0,0,0,1.34546,4.04895,10.13293,10.13293,0,0,0,1.07471,1.83875,13.373,13.373,0,0,0,1.33081,1.66424c.489.518.99365,1.01557,1.457,1.5387.50659.48676,1.00342.97516,1.489,1.4707a17.51647,17.51647,0,0,0,1.54566,1.38379c.5376.43189,1.00976.93994,1.57983,1.32581a62.03706,62.03706,0,0,0,6.89429,4.83075l-.06323.18982c-.72217-.10535-1.44263-.25977-2.16309-.43518-.36133-.08594-.72314-.17652-1.08179-.27808-.34033-.1394-.68432-.27685-1.02148-.43054-.67749-.30029-1.36719-.59638-2.022-.95288-.62964-.39423-1.24781-.81354-1.85962-1.24219a11.0852,11.0852,0,0,1-1.6792-1.47082,14.72778,14.72778,0,0,1-1.5127-1.63221c-.46142-.57995-.93359-1.14941-1.3562-1.75268-.38989-.62854-.73852-1.28266-1.103-1.91638-.37964-.62458-.64307-1.31727-1.01343-1.93793l-1.06421-1.8888-1.18213-1.83764a18.05958,18.05958,0,0,1-1.136-1.88758,11.70413,11.70413,0,0,1-.8291-2.02954,18.6535,18.6535,0,0,1-.57226-2.11663,14.89831,14.89831,0,0,1-.36646-4.38331Z" fill="#490000"/><path d="M486.6875,405.64624a14.903,14.903,0,0,0-4.18066,1.226,12.559,12.559,0,0,0-3.43653,2.52417,19.81526,19.81526,0,0,0-4.28784,7.3595,44.24976,44.24976,0,0,0-1.95508,8.474,74.55711,74.55711,0,0,0-.70508,8.73l-.23413-.48047a9.01889,9.01889,0,0,0,3.58228,1.61438,13.00385,13.00385,0,0,0,4.12524.23376,17.96329,17.96329,0,0,0,4.10279-.89648c.66357-.235,1.31762-.50244,1.96972-.7699l1.90113-.936-.16285.34411a46.50946,46.50946,0,0,0-3.32275-9.14,49.20811,49.20811,0,0,0-5.02954-8.24146,39.444,39.444,0,0,0-3.16211-3.58239,27.8608,27.8608,0,0,0-3.657-3.0055,23.54238,23.54238,0,0,0-8.60157-3.5896,1.07427,1.07427,0,0,1-.43383-1.91442l.01758-.01313a38.96132,38.96132,0,0,0,5.67871-5.26465,41.926,41.926,0,0,0,4.66455-6.283c.71118-1.10175,1.27319-2.283,1.90258-3.437a38.37049,38.37049,0,0,0,1.49415-3.64367,40.24929,40.24929,0,0,0,1.89477-7.70337l.19946.01379a32.72842,32.72842,0,0,1-1.10937,7.99536A39.45272,39.45272,0,0,1,476.688,389.135a37.48666,37.48666,0,0,1-1.73535,3.69482,39.22056,39.22056,0,0,1-4.56812,6.77661,37.724,37.724,0,0,1-5.93481,5.7276l-.41626-1.92742a25.68326,25.68326,0,0,1,4.90722,1.5086,25.06584,25.06584,0,0,1,4.44165,2.54236,30.36593,30.36593,0,0,1,7.04541,7.21887,42.55112,42.55112,0,0,1,4.69141,8.79663,59.441,59.441,0,0,1,2.91016,9.46948l.00171.00794a.302.302,0,0,1-.16455.33643l-1.95118.9331-2.01465.79553a23.2438,23.2438,0,0,1-4.21826,1.05054,15.59274,15.59274,0,0,1-4.40039.03979,9.9197,9.9197,0,0,1-4.271-1.60437.54151.54151,0,0,1-.2295-.40686l-.00488-.074a45.806,45.806,0,0,1,.28247-9.03064,38.19571,38.19571,0,0,1,2.1853-8.80774,19.43329,19.43329,0,0,1,5.03077-7.62732,12.074,12.074,0,0,1,3.94214-2.36658,13.2782,13.2782,0,0,1,4.45874-.74182Z" fill="#490000"/><path d="M516.83543,493.20966l63.10509-5.90645-4.97381-23.00374,46.31853-7.46072s13.05623,54.7118,6.52812,66.21372-51.914,12.12363-112.8431-1.55432c0,0-9.32588-3.10862-10.88019-3.10862s-31.57307-4.19665-34.50574-4.19665c-3.10862,0-7.30527-5.90638-4.81837-5.90638,0,0-5.59552-2.176-1.24345-7.30527,0,0-13.21166,1.39888-9.015-5.4401,0,0-12.75816-.61607-6.839-6.37268s33.884-10.41389,36.52635-10.41389,13.83338,5.44009,19.118,10.56932S516.83543,493.20966,516.83543,493.20966Z" fill="#fd8b66"/><path d="M478.13306,490.10107a47.10288,47.10288,0,0,1-5.73194,2.11756q-2.904.89373-5.85644,1.57666c-1.96778.45849-3.95435.83423-5.95581,1.14624a46.55763,46.55763,0,0,1-6.0813.59961,46.56318,46.56318,0,0,1,5.7312-2.12049c1.93628-.5946,3.88721-1.12561,5.85718-1.57373q2.95275-.68243,5.9563-1.14343A47.097,47.097,0,0,1,478.13306,490.10107Z" fill="#d04719"/><path d="M479.532,498.80518a21.58217,21.58217,0,0,1-3.8977,1.31433,36.96043,36.96043,0,0,1-3.97241.76428,36.34591,36.34591,0,0,1-4.032.32666,21.34424,21.34424,0,0,1-4.10742-.22925,21.34939,21.34939,0,0,1,3.89722-1.31726,36.41369,36.41369,0,0,1,3.9729-.76135,36.984,36.984,0,0,1,4.03222-.32361A21.581,21.581,0,0,1,479.532,498.80518Z" fill="#d04719"/><path d="M464.76587,508.2865a15.73827,15.73827,0,0,1,3.3418-.78357,25.77319,25.77319,0,0,1,3.34179-.21619,25.30323,25.30323,0,0,1,3.3418.2135,15.53079,15.53079,0,0,1,3.3418.78626,15.53076,15.53076,0,0,1-3.3418.78625,25.27923,25.27923,0,0,1-3.3418.21338,25.7518,25.7518,0,0,1-3.34179-.21606A15.73888,15.73888,0,0,1,464.76587,508.2865Z" fill="#d04719"/><path d="M540.77185,486.57292c3.86071,0,3.86711-6,0-6-3.86071,0-3.86711,6,0,6Z" fill="#e6560f"/><path d="M559.00912,439.22687c3.86071,0,3.86711-6,0-6-3.86072,0-3.86711,6,0,6Z" fill="#e6560f"/><path d="M572.68707,391.24175c3.86071,0,3.86711-6,0-6-3.86072,0-3.86711,6,0,6Z" fill="#e6560f"/><path d="M550.305,464.03539c3.86071,0,3.8671-6,0-6-3.86072,0-3.86711,6,0,6Z" fill="#e6560f"/><path d="M566.05533,414.8673c3.86072,0,3.86711-6,0-6-3.86071,0-3.8671,6,0,6Z" fill="#e6560f"/><path d="M524.19251,534.721c3.86072,0,3.86711-6,0-6-3.86071,0-3.8671,6,0,6Z" fill="#e6560f"/><rect x="572.27371" y="448.53341" width="49.51606" height="2.00007" transform="matrix(0.98337, -0.18163, 0.18163, 0.98337, -71.71987, 115.91915)" fill="#78a7c6"/><path d="M294.10244,477.9774s6.21725-3.26406,9.9476-5.4401a3.87865,3.87865,0,0,0,1.55431-5.59552s5.90639,1.55431,8.39329-1.24345-4.04122-6.37268-4.04122-6.37268c2.02061-.4663,1.86518-5.90639-1.24345-6.839s-11.65734-4.9738-11.65734-4.9738c3.57492-.93259,4.81837-3.264,4.81837-5.44009s-6.06182-4.19665-11.03562-5.84591" fill="#fd8b66"/><path d="M294.10254,477.97742c2.51953-1.61536,5.08691-3.12915,7.625-4.68836l1.91528-1.14685a4.69473,4.69473,0,0,0,1.45679-1.32629,3.28552,3.28552,0,0,0-.12256-3.47486l-.89673-1.47082,1.71338.35242a14.18128,14.18128,0,0,0,4.07373.27465,5.07681,5.07681,0,0,0,3.36377-1.32556,1.15836,1.15836,0,0,0,.3374-1.14453,3.719,3.719,0,0,0-.87841-1.41675,14.08139,14.08139,0,0,0-3.20606-2.42212l-1.88769-1.07031,2.13891-.75073a.70311.70311,0,0,0,.30249-.34485,2.6979,2.6979,0,0,0,.23926-.90527,4.74962,4.74962,0,0,0-.31079-2.10742,2.66232,2.66232,0,0,0-1.21216-1.45166c-.16382-.05457-.21777-.10743-.4646-.18421l-.65967-.22278q-.64307-.23163-1.26538-.48071c-1.66577-.654-3.269-1.39636-4.87671-2.13354-1.60205-.74793-3.1997-1.49061-4.78076-2.2865l-2.04468-1.02942,2.1875-.49732a5.728,5.728,0,0,0,3.75928-2.41711,4.54073,4.54073,0,0,0,.65674-2.14942c.06787-.48986-.499-1.10412-1.14795-1.57666a24.01772,24.01772,0,0,0-4.479-2.38867c-1.584-.67676-3.197-1.30737-4.80054-1.965,1.678.434,3.34912.89135,5.00024,1.4375a23.35222,23.35222,0,0,1,4.867,2.06421,5.51294,5.51294,0,0,1,1.11181.9082,2.29853,2.29853,0,0,1,.658,1.54077,5.75573,5.75573,0,0,1-.66577,2.809,7.2133,7.2133,0,0,1-4.54785,3.31567l.14258-1.52661c3.20068,1.41992,6.43164,2.83692,9.66284,4.09705q.60572.2362,1.2063.44494l.59277.194c.17481.05042.51709.19361.76343.29737a4.6126,4.6126,0,0,1,2.16894,2.44616,6.42636,6.42636,0,0,1,.46094,3.06226,4.60943,4.60943,0,0,1-.4668,1.62158,2.54614,2.54614,0,0,1-1.615,1.3451l.25123-1.82093a15.8624,15.8624,0,0,1,3.68408,2.851,5.20393,5.20393,0,0,1,1.293,2.29847c.02612.12292.05664.243.074.3684l-.00366.40137c-.00513.13379-.009.26782-.02344.39929l-.11816.3855-.1355.379a3.5778,3.5778,0,0,1-.20313.31763,2.956,2.956,0,0,1-.45141.56811,6.77336,6.77336,0,0,1-4.564,1.75513,15.4739,15.4739,0,0,1-4.56543-.526l.81641-1.11817a5.24488,5.24488,0,0,1,.68555,2.502,4.06035,4.06035,0,0,1-.80884,2.48291,5.83917,5.83917,0,0,1-1.91968,1.55176l-2.01025.99975C299.48291,475.38208,296.81641,476.73059,294.10254,477.97742Z" fill="#d04719"/><polygon points="283.844 445.337 297.218 446.526 296.893 448.5 283.844 445.337" fill="#d04719"/><polygon points="286.953 455.906 310.104 458.337 309.809 460.315 286.953 455.906" fill="#d04719"/><polygon points="290.45 466.631 305.625 465.942 305.584 467.942 290.45 466.631" fill="#d04719"/><g clip-path="url(#clip-path)"><path d="M210.349,292.12837a127.15275,127.15275,0,0,0,156.53589-7.48258v-165.057H210.349Z" fill="#ffb957"/><rect x="323.23543" y="136.64724" width="26.34017" height="26.34017" fill="#e06c03"/><path d="M258.01192,138.04134H221.88837a1.39366,1.39366,0,0,1,0-2.78732h36.12355a1.39366,1.39366,0,1,1,0,2.78732Z" fill="#e06c03"/><path d="M285.88512,151.21034H221.88837a1.39366,1.39366,0,0,1,0-2.78732h63.99675a1.39366,1.39366,0,1,1,0,2.78732Z" fill="#e06c03"/><path d="M355.56812,217.06077H221.88837a1.39366,1.39366,0,0,1,0-2.78732H355.56812a1.39366,1.39366,0,0,1,0,2.78732Z" fill="#e06c03"/><path d="M355.56812,233.70166H221.88837a1.39366,1.39366,0,1,1,0-2.78731H355.56812a1.39366,1.39366,0,1,1,0,2.78731Z" fill="#e06c03"/><path d="M355.56812,250.34256H221.88837a1.39366,1.39366,0,0,1,0-2.78732H355.56812a1.39366,1.39366,0,0,1,0,2.78732Z" fill="#e06c03"/><path d="M355.56812,266.9821H221.88837a1.39366,1.39366,0,0,1,0-2.78732H355.56812a1.39366,1.39366,0,0,1,0,2.78732Z" fill="#e06c03"/><path d="M285.88512,283.623H221.88837a1.39366,1.39366,0,1,1,0-2.78732h63.99675a1.39366,1.39366,0,1,1,0,2.78732Z" fill="#e06c03"/><path d="M269.1612,177.55105H221.88837a1.39366,1.39366,0,1,1,0-2.78732H269.1612a1.39366,1.39366,0,1,1,0,2.78732Z" fill="#e06c03"/><path d="M241.288,164.38069H221.88837a1.39366,1.39366,0,0,1,0-2.78732H241.288a1.39366,1.39366,0,0,1,0,2.78732Z" fill="#e06c03"/><path d="M325.411,188.95072H347.4a2.23965,2.23965,0,0,1,2.23965,2.23965V196.974a7.18065,7.18065,0,0,1-7.18065,7.18065H330.352a7.18065,7.18065,0,0,1-7.18065-7.18065v-5.78364a2.23965,2.23965,0,0,1,2.23965-2.23965Z" fill="#78a7c6"/><path d="M342.06569,183.29047a5.66026,5.66026,0,1,1-11.32052,0c0-3.12607,5.66026-10.67822,5.66026-10.67822S342.06569,180.1644,342.06569,183.29047Z" fill="#e8233b"/><path d="M171.4179,231.74112,153.458,261.3753l-6.43484-13.24386s11.66405-25.26276,12.14824-25.5032C159.17135,222.62824,166.82148,227.07362,171.4179,231.74112Z" fill="#fd8b66"/><path d="M171.286,293.3929c-.05248-.30462-.10005-.59977-.14367-.88728Q171.2075,292.93638,171.286,293.3929Z" fill="#ffb957"/><path d="M170.90537,290.50823q-.00694-.0918-.01254-.18112Q170.89856,290.41647,170.90537,290.50823Z" fill="#ffb957"/><path d="M170.98293,291.31853c-.00954-.08393-.01894-.16742-.0274-.24914C170.96385,291.15094,170.97339,291.23473,170.98293,291.31853Z" fill="#ffb957"/><path d="M171.09566,292.1933c-.01826-.12687-.03517-.25129-.05139-.37421Q171.0686,292.00322,171.09566,292.1933Z" fill="#ffb957"/><path d="M214.98809,257.97129c-2.37452,1.273-8.20233,1.85011-8.20233,1.85011l-.00354.00041c-7.871,10.41065-19.24932,21.87581-35.36323,34.31619,1.627,8.74628,6.28008,23.12759,6.28008,23.12759h44.92171Z" fill="#ffb957"/><path d="M170.84785,289.03251l-.00164-.05136Z" fill="#ffb957"/><path d="M171.41735,294.12931q-.05684-.30571-.1085-.60184Q171.36078,293.82374,171.41735,294.12931Z" fill="#ffb957"/><polygon points="201.43 263.181 203.981 307.871 199.095 263.376 201.43 263.181" fill="#ca5303"/><polygon points="199.409 265.538 198.237 306.062 197.066 265.538 199.409 265.538" fill="#ca5303"/><polygon points="196.563 268.699 190.058 313.298 194.237 268.422 196.563 268.699" fill="#ca5303"/><path d="M282.51931,160.52425a9.76624,9.76624,0,0,1-4.82388-5.92163c-.30152-1.35107-2.51247-7.381-7.33649-4.165s-3.11551,6.9679-3.11551,6.9679-2.11035-.737-3.81886-5.46041.856-6.35318-8.2893-9.77014c-9.14546-3.417-6.28308-8.87618-17.94088-8.13516-11.65793.741-9.447,9.76488-9.447,9.76488l-2.52869,2.55589c-.00736.08635-.00654.17114-.01717.25807-.25013,2.03586-1.13492,1.77336-2.278,5.35995a28.34753,28.34753,0,0,0-1.20607,7.1019c-.06448,1.02086-.015.93325,0,4.69.026,6.50994-.12295,6.65279.13413,8.17391.56323,3.33193,1.41381,3.45018,1.20593,5.35992a5.27376,5.27376,0,0,1-.13.72568h0s4.016,9.59219,10.95048,9.79318c0,0,1.50732-1.44046-1.50759-3.38346s-8.706-5.96293-7.11675-21.03774c1.58937-15.07482,3.09683-18.69277,8.22223-20.40125,0,0,1.30653,3.216,6.43193,4.12046,5.12554.90448,5.32646,5.12543,5.32646,6.53242a5.39972,5.39972,0,0,0,3.71854,5.79663c3.81887,1.53976.90442,7.186.90442,8.83508s-.30152,5.76954,3.41689,8.3825c3.71854,2.613,1.70851,8.21787,1.70851,8.21787s10.3514-1.08244,13.76842-14.95129c0,0,7.23589,10.63271,12.66281,4.46212S285.63468,162.169,282.51931,160.52425Z" fill="#5e1212"/><path d="M210.46165,190.5701a30.84427,30.84427,0,0,1-.402-3.618c-.05248-1.18169,0-2.144,0-2.144a31.12715,31.12715,0,0,0,6.83394-4.82393c1.15018-1.21225,1.45251-3.86194,2.01-9.1119.13943-1.31293.44767-4.48828.53595-10.45186.07294-4.92628.10936-7.38944-.13395-8.3079-1.93316-7.29558-12.86387-10.71991-12.86387-10.71991a11.07572,11.07572,0,0,1-1.206,6.43194c-.78322,1.41828-1.4833,1.52415-6.02993,4.95793-2.89415,2.18577-4.3561,3.30149-5.092,4.422-.54167.82479-2.45506,4.00181-1.60791,7.36989.50478,2.00687,1.4322,1.8651,3.35,5.62794,1.2,2.35457,1.8,3.53183,1.74191,4.95793-.07975,1.95752-1.09169,2.30332-1.74191,5.49393-.34337,1.68528-.54049,2.65184-.134,3.752.598,1.61878,1.83024,1.70678,3.35,3.35a10.04967,10.04967,0,0,1,2.54586,5.62793c.12514,2.27982-1.02862,2.85954-1.93478,5.50223l8.33974,5.07806,4.8378-8.3551A15.25816,15.25816,0,0,1,210.46165,190.5701Z" fill="#fd8b66"/><path d="M254.9826,184.88564s2.01-5.6049-1.70851-8.21787c-3.71841-2.613-3.41689-6.73342-3.41689-8.3825s2.91445-7.29532-.90442-8.83508a5.39972,5.39972,0,0,1-3.71854-5.79663c0-1.407-.20092-5.62794-5.32646-6.53242-5.1254-.90449-6.43193-4.12046-6.43193-4.12046-5.1254,1.70848-6.63286,5.32643-8.22223,20.40125-1.58924,15.07481,4.10184,19.09477,7.11675,21.03774s1.50759,3.38346,1.50759,3.38346a7.29129,7.29129,0,0,1,.12963.75788,6.174,6.174,0,0,1-1.03418,4.66907s-2.412,15.14181,8.70995,15.00782c0,0,8.03985-10.3179,13.53369-14.06984C255.21705,194.18806,252.73812,192.467,254.9826,184.88564Z" fill="#fd8b66"/><path d="M207.74811,198.97852s-1.19912,1.77329-6.37822-3.7363l-.00341-.00113c-.47886,1.33066-1.51373,2.34154-2.16065,5.37891a18.22991,18.22991,0,0,0-.268,6.02992c.38031,2.99923,1.2332,3.28412,1.47392,5.35992.31692,2.73213-.98116,3.78516-3.48395,9.51391-2.09523,4.79577-3.14277,7.19363-2.948,9.64786.36954,4.65575,3.90338,7.54123,3.484,7.90593-.41343.35948-4.35579-2.00182-6.9679-6.29794-1.05982-1.74307-2.66869-5.06767-2.948-20.63573-.11995-6.68752.12227-9.11967-1.60791-12.46186-.70336-1.35874-3.0524-5.89633-7.36988-6.43193-3.91579-.48574-7.03729,2.61971-7.906,3.48395a14.28206,14.28206,0,0,0-2.41364,3.23533l-.00027.00051-1.84142,4.78718c-.34486,1.342-.47531,2.22792-.63262,2.19411-.05138-.011-.08164-.12039-.09718-.29661l-2.65274,6.89628-3.85488,9.07741,4.4646,3.4971s4.06341,4.862,7.78195,5.61578l3.417-4.02,2.26112,15.24231s31.22158,10.18387,40.86961,4.154c0,0-.5361-12.05984,0-12.86383.536-.804-7.504-43.68347-7.504-43.68347Z" fill="#ffb957"/><polygon points="174.835 227.721 180.714 221.189 175.685 233.45 174.835 227.721" fill="#ca5303"/><path d="M210.46164,190.57012l-2.71353,8.4084s-17.25223,36.414-23.08113,39.63-9.48147-8.52365-9.48147-8.52365l1.91053,12.87859s-3.35,11.38988-3.88594,16.48181,0,11.52387-1.20593,13.26585a49.02233,49.02233,0,0,0-2.92386,7.20931,2.24864,2.24864,0,0,0,.10987.3616c.6029,1.407,1.541,2.613,1.675,9.44687a29.05182,29.05182,0,0,0,.55383,4.40916C255.78615,229.00357,210.46164,190.57012,210.46164,190.57012Z" fill="#3d9ba8"/><path d="M206.44172,141.3927a11.0755,11.0755,0,0,1-1.20594,6.43193c-.78324,1.41826-1.48333,1.52416-6.03,4.95794-2.89414,2.18573-4.35607,3.30147-5.092,4.42194-.5417.8248-2.45508,4.00184-1.60791,7.36991.50475,2.00687,1.43221,1.86507,3.35,5.62794,1.19993,2.35454,1.8,3.53181,1.7419,4.95794-.07974,1.95752-1.0917,2.30328-1.7419,5.49393-.34337,1.68526-.54047,2.65184-.134,3.752.598,1.61879,1.83024,1.70675,3.35,3.35a10.04953,10.04953,0,0,1,2.54587,5.62793c.14871,2.70988-1.511,3.00574-2.41187,7.23592a18.22993,18.22993,0,0,0-.268,6.02992c.38031,2.99924,1.2332,3.28411,1.47392,5.35994.31692,2.73213-.98116,3.78514-3.48395,9.51388-2.09523,4.79578-3.14277,7.19366-2.948,9.64789.36954,4.65573,3.90338,7.54121,3.484,7.90591-.41343.35948-4.35579-2.00182-6.9679-6.29792-1.05982-1.74307-2.66869-5.06769-2.948-20.63576-.11995-6.68752.12227-9.11965-1.60791-12.46186-.70336-1.35872-3.0524-5.89632-7.36988-6.43192-3.91579-.48575-7.03729,2.61972-7.906,3.484-4.26065,4.23879-4.48051,10.30471-4.88795,10.21714-.38425-.08256.33874-5.36122.6-7.26918.66615-4.86395.94709-5.37489.67-6.96791-.556-3.19649-2.14621-3.77885-1.74191-5.76193.42011-2.0608,2.32027-2.32873,4.01992-4.55595,1.97827-2.59235,1.49519-4.96971,2.0099-8.3079.8777-5.6922,3.30429-5.40911,7.638-14.73982,3.42343-7.37077,2.16216-8.09229,5.09187-12.19386a25.911,25.911,0,0,1,9.7819-8.30789c2.81439-1.31835,2.74065-.42145,9.5139-2.278,6.33625-1.73675,7.12644-2.651,9.91589-2.412a13.63533,13.63533,0,0,1,8.30783,4.02c.70336.7384,4.13116,4.267,3.61809,8.44189-.25013,2.03585-1.13492,1.77336-2.278,5.35994a28.34752,28.34752,0,0,0-1.20607,7.10191c-.06448,1.02087-.015.93323,0,4.69.026,6.51-.12295,6.6528.13413,8.1739.56323,3.33194,1.41381,3.4502,1.20593,5.35993-.2609,2.39674-1.65712,2.72812-3.484,6.02993-.84063,1.5193-2.82994,5.11474-2.412,9.37989a18.18453,18.18453,0,0,0,1.876,5.89593c1.291,2.84779,1.97541,3.039,2.67986,4.95794,1.35669,3.69587.66342,8.01449-.268,8.1739-1.09239.187-1.0012-5.60493-5.76183-12.19386-1.362-1.88513-4.68008-5.993-5.226-8.97788a30.85013,30.85013,0,0,1-.402-3.6179c-.05248-1.18179,0-2.144,0-2.144a31.12735,31.12735,0,0,0,6.83391-4.82394c1.15019-1.21224,1.45253-3.862,2.01-9.11189.13944-1.31291.44764-4.48827.536-10.45187.07292-4.92628.10932-7.38943-.134-8.3079C217.37243,144.817,206.44172,141.3927,206.44172,141.3927Z" fill="#490000"/><path d="M216.49162,204.305a142.05926,142.05926,0,0,1-5.01442,15.47791c-.96074,2.53986-2.02006,5.04121-3.10294,7.5334-1.105,2.48228-2.28435,4.93252-3.5069,7.36217A103.62683,103.62683,0,0,1,196.379,248.6218,48.34677,48.34677,0,0,1,184.935,260.18237a47.0131,47.0131,0,0,0,5.63184-5.799,74.06675,74.06675,0,0,0,4.81535-6.46331,138.08439,138.08439,0,0,0,8.0959-13.95361c2.46789-4.78875,4.71925-9.69267,6.875-14.64273,1.0701-2.47846,2.12322-4.96684,3.14-7.472C214.54325,209.358,215.50971,206.83228,216.49162,204.305Z" fill="#376f92"/><path d="M217.99132,219.78177a13.726,13.726,0,0,1-.30785,4.4173,18.4007,18.4007,0,0,1-1.455,4.20565,19.99039,19.99039,0,0,1-1.08573,1.95256,18.22187,18.22187,0,0,1-1.341,1.78782,13.6576,13.6576,0,0,1-3.34015,2.91246c.79943-1.257,1.64071-2.3961,2.35185-3.626A40.74148,40.74148,0,0,0,214.823,227.724,65.2807,65.2807,0,0,0,217.99132,219.78177Z" fill="#376f92"/><path d="M214.22653,199.28019a58.13243,58.13243,0,0,1-2.03427,6.94992c-.79333,2.27825-1.70841,4.5115-2.70052,6.71271a64.241,64.241,0,0,1-3.35435,6.4286,31.97185,31.97185,0,0,1-4.31863,5.83711c1.167-2.12227,2.20808-4.26361,3.245-6.41411q1.53938-3.23031,3.00761-6.49915C210.07818,207.95615,211.99662,203.57584,214.22653,199.28019Z" fill="#376f92"/><path d="M192.301,222.563a15.1706,15.1706,0,0,0,.72888-7.95175,74.113,74.113,0,0,0-2.55445-7.7546l-.65051-1.96744a13.82378,13.82378,0,0,1-.57833-2.075,7.4728,7.4728,0,0,1,.697-4.24188,14.16458,14.16458,0,0,0,1.343-3.85861,12.84553,12.84553,0,0,0,.00992-4.03937,22.37606,22.37606,0,0,0-1.02911-3.91276,12.04337,12.04337,0,0,0-1.84778-3.45742,18.92027,18.92027,0,0,1-1.22131-1.77714,10.46809,10.46809,0,0,1-.8982-2.05172,13.44783,13.44783,0,0,1-.62114-4.3418,18.29829,18.29829,0,0,1,.65508-4.26895,31.36688,31.36688,0,0,1,1.32628-4.01954,18.92627,18.92627,0,0,1,2.05772-3.72475,14.4652,14.4652,0,0,1,2.944-3.01237l.10736.11364a18.32223,18.32223,0,0,0-3.9551,7.04946c-.41091,1.28862-.72287,2.60355-1.00736,3.94327a18.75458,18.75458,0,0,0-.46211,3.94022,13.60481,13.60481,0,0,0,.51321,3.84869,10.33435,10.33435,0,0,0,1.76265,3.45475,12.00416,12.00416,0,0,1,1.83091,3.93831,19.20254,19.20254,0,0,1,.696,4.19383,15.72266,15.72266,0,0,1-.34046,4.22548,20.19444,20.19444,0,0,1-1.3974,3.95471,6.37427,6.37427,0,0,0-.48385,1.92816,6.11775,6.11775,0,0,0,.17189,1.93769c.37126,1.21121,1.07306,2.48152,1.59295,3.75831.53409,1.27794,1.04693,2.56618,1.48854,3.89522a21.67362,21.67362,0,0,1,1.0457,4.12824,12.00627,12.00627,0,0,1-.20184,4.29755,13.76378,13.76378,0,0,1-1.58017,3.91276Z" fill="#133852"/><path d="M172.14317,175.69073a10.56568,10.56568,0,0,0,4.51827-4.33149,9.5545,9.5545,0,0,0,.83346-2.95708c.12719-1.05942.28469-2.16689.36649-3.20457.04081-.52857.06493-1.048.06331-1.604a7.25372,7.25372,0,0,1,.16732-1.75426,9.7647,9.7647,0,0,1,1.43363-3.11991,13.6622,13.6622,0,0,1,2.2322-2.53071,14.33038,14.33038,0,0,1,2.75133-1.99223,13.81092,13.81092,0,0,1,3.19189-1.26,30.19673,30.19673,0,0,1,3.30764-.57205,14.77459,14.77459,0,0,0,5.82081-2.20312c3.56229-2.28053,6.51907-5.59876,9.54927-8.81477l.12585.09229a41.03044,41.03044,0,0,1-3.79778,5.49846,23.93458,23.93458,0,0,1-4.97657,4.62552,14.15051,14.15051,0,0,1-3.13154,1.53841,16.03637,16.03637,0,0,1-3.393.71925c-1.152.12471-2.19044.16513-3.248.34322a14.69,14.69,0,0,0-3.08311.80582,10.35437,10.35437,0,0,0-4.92289,4.02374,7.04613,7.04613,0,0,0-1.00212,2.98949,6.48567,6.48567,0,0,0,.06559,1.54641,15.04183,15.04183,0,0,1,.14578,1.70469,14.6743,14.6743,0,0,1-.08371,1.70926c-.057.5503-.1125,1.10785-.21557,1.6715a9.21584,9.21584,0,0,1-1.13893,3.327A8.85433,8.85433,0,0,1,172.2,175.836Z" fill="#133852"/><path d="M185.27485,154.30669a5.79489,5.79489,0,0,1-.06931-3.5459,7.66551,7.66551,0,0,1,.71057-1.67493,4.97981,4.97981,0,0,1,1.19814-1.47663,12.58274,12.58274,0,0,1,3.10933-1.83244,23.87058,23.87058,0,0,1,3.307-1.167,23.37812,23.37812,0,0,1,3.46343-.63649,20.01541,20.01541,0,0,0,3.38791-.42369,13.00885,13.00885,0,0,0,1.60162-.54954,9.70772,9.70772,0,0,0,1.48674-.79971c.98515-.58959,1.94217-1.23294,2.91884-1.84007.97018-.619,1.93312-1.25086,2.91531-1.84846.986-.59683,1.94713-1.19709,3.03516-1.7371a7.23221,7.23221,0,0,1,1.80355-.638,5.3415,5.3415,0,0,1,2.00557.00305,6.6106,6.6106,0,0,1,3.39812,1.8374,6.8212,6.8212,0,0,1,1.84512,3.3594,7.448,7.448,0,0,1-.18658,3.73429,10.845,10.845,0,0,1-.7243,1.66044,15.15781,15.15781,0,0,0-.67282,1.5346,10.30983,10.30983,0,0,0-.44791,1.6021,10.48754,10.48754,0,0,0-.14291,1.68714l-.155.01906a7.9384,7.9384,0,0,1-.01392-3.52529c.236-1.15591.74851-2.30648.96179-3.26979a6.67191,6.67191,0,0,0-.08867-3.08216,5.54954,5.54954,0,0,0-1.54308-2.53224,5.48315,5.48315,0,0,0-2.55655-1.4301,4.2679,4.2679,0,0,0-2.869.37526c-.99058.43666-2.012,1.00031-3.0423,1.49913l-3.10361,1.4976c-1.02653.5137-2.06707,1.00184-3.07339,1.554a14.23814,14.23814,0,0,1-1.569.77912c-.54249.2067-1.07887.43551-1.64329.59683-1.11929.36038-2.2935.53123-3.38352.79437a25.86591,25.86591,0,0,0-3.21516,1.01862,28.46341,28.46341,0,0,0-6.04953,2.7027,4.45046,4.45046,0,0,0-1.06762,1.09031,8.939,8.939,0,0,0-.81869,1.40227,6.58989,6.58989,0,0,0-.5585,3.23317Z" fill="#133852"/><path d="M214.98805,248.33829s-1.403,5.31157,0,9.633c0,0-1.96238,1.22125-8.20233,1.85011,0,0,6.08729-7.8503,7.56158-11.48312Z" fill="#fd8b66"/><path d="M176.0091,227.07362c-6.22583-3.86876-12.683-13.134-12.98287-13.52279l.709-1.67331c.07116.09214,7.57141,9.64473,13.45265,13.29948Z" fill="#581d58"/><path d="M210.05966,184.80818s-8.1739.536-12.66285-3.61795c0,0,2.73266,6.07176,12.78969,7.39083Z" fill="#d04719"/><path d="M208.92371,174.98178a6.56714,6.56714,0,0,1-5.757-3.10656c-.38288-.78942-.13347-1.22112.04958-1.408.22424-.22881.65975-.42636,1.45909-.061a9.01925,9.01925,0,0,0,4.5565.62391.586.586,0,0,1,.18229,1.15781,10.16129,10.16129,0,0,1-5.10414-.66128,3.823,3.823,0,0,0,.72535.84128,5.85878,5.85878,0,0,0,4.56031,1.4057.586.586,0,0,1,.12357,1.16544A7.46258,7.46258,0,0,1,208.92371,174.98178Z" fill="#490000"/><path d="M208.52414,157.37626c1.09164,2.09672,2.09147,4.22891,3.017,6.4122l.70294,1.65549a6.95976,6.95976,0,0,1,.287.89543,2.5951,2.5951,0,0,1,.01211,1.22531,1.79131,1.79131,0,0,1-.91936,1.10938,2.04033,2.04033,0,0,1-1.19576.15751,2.47834,2.47834,0,0,1-1.68771-1.04531l.09267-.12585a3.40471,3.40471,0,0,0,1.59409.07246,1.01378,1.01378,0,0,0,.49805-.24713.33015.33015,0,0,0,.09582-.27191,9.51152,9.51152,0,0,0-.25723-1.32256c-.10764-.55983-.25313-1.12692-.40214-1.69019-.31138-1.12539-.64832-2.25079-.99278-3.3739l-.98963-3.39258Z" fill="#d04719"/><path d="M235.95571,159.14959l-.98963,3.39258c-.34437,1.12311-.68131,2.24851-.99278,3.3739-.14892.56327-.29451,1.13036-.40205,1.69019a9.52621,9.52621,0,0,0-.25732,1.32256.33024.33024,0,0,0,.09591.27191,1.01292,1.01292,0,0,0,.498.24712,3.4,3.4,0,0,0,1.59418-.07245l.09267.12585a2.47854,2.47854,0,0,1-1.68771,1.04531,2.04052,2.04052,0,0,1-1.19585-.15751,1.79086,1.79086,0,0,1-.91927-1.10938,2.59667,2.59667,0,0,1,.012-1.22531,6.9598,6.9598,0,0,1,.28707-.89543l.70294-1.65549c.92557-2.18329,1.9253-4.31548,3.017-6.4122Z" fill="#d04719"/><path d="M197.39669,156.71689a.58556.58556,0,0,1-.43551-.97629c.10907-.12127,2.73817-2.96012,7.68442-1.02433a.58567.58567,0,1,1-.42712,1.09069c-4.15912-1.62765-6.29932.62314-6.38856.72A.58794.58794,0,0,1,197.39669,156.71689Z" fill="#490000"/><path d="M217.96577,156.24934a.58469.58469,0,0,1-.39585-.15407c-2.06087-1.887-4.76015-.23111-4.78684-.21509a.586.586,0,0,1-.62238-.99306c1.196-.74976,4.03327-1.64291,6.20093.34475a.58577.58577,0,0,1-.39586,1.01747Z" fill="#490000"/><path d="M208.04969,155.56209a1.17224,1.17224,0,0,0,0-2.34308,1.17224,1.17224,0,0,0,0,2.34308Z" fill="#d04719"/><path d="M198.43933,161.82026a1.995,1.995,0,0,1-.63382-.10221,1.86243,1.86243,0,0,1-.69712-.43933.5857.5857,0,0,1,.82831-.82831.69066.69066,0,0,0,.257.16246.83683.83683,0,0,0,.35466.02669c.09306-.01678.13653-.058.30891-.29364a2.69606,2.69606,0,0,1,.66967-.69332,3.22268,3.22268,0,0,1,2.8358-.20365,4.10205,4.10205,0,0,1,1.35.70247.5862.5862,0,1,1-.72306.92289,2.903,2.903,0,0,0-.96255-.50263,2.10342,2.10342,0,0,0-1.83664.04653,1.61958,1.61958,0,0,0-.38746.41949,1.615,1.615,0,0,1-1.04569.7551A1.7993,1.7993,0,0,1,198.43933,161.82026Z" fill="#490000"/><path d="M212.65342,161.46483a.5858.5858,0,0,1-.463-.94349,4.08377,4.08377,0,0,1,1.13265-1.01366,3.22709,3.22709,0,0,1,2.79995-.50339,2.71594,2.71594,0,0,1,.82069.50645c.22652.18686.28144.21661.37144.209a.85608.85608,0,0,0,.3417-.1167.67486.67486,0,0,0,.20365-.21737.58576.58576,0,1,1,1.00832.59645,1.86433,1.86433,0,0,1-.56823.5995,1.98886,1.98886,0,0,1-.9023.30661,1.64279,1.64279,0,0,1-1.20053-.47365,1.62771,1.62771,0,0,0-.47975-.31043,2.09545,2.09545,0,0,0-1.79087.4073,2.93739,2.93739,0,0,0-.80925.72534A.58523.58523,0,0,1,212.65342,161.46483Z" fill="#490000"/><path d="M227.23208,161.74246a2.02,2.02,0,0,1-.84128-.193,1.85832,1.85832,0,0,1-.6384-.52323.5854.5854,0,1,1,.92442-.71848.68735.68735,0,0,0,.23492.19221.71246.71246,0,0,0,.34932.07017c.09382-.00534.14187-.04043.3417-.25247a2.69642,2.69642,0,0,1,.75052-.60636,3.18587,3.18587,0,0,1,2.84114.14721,4.0736,4.0736,0,0,1,1.25162.8634.58571.58571,0,1,1-.83136.82526,2.91688,2.91688,0,0,0-.89315-.617,2.10944,2.10944,0,0,0-1.82824-.17924,1.6348,1.6348,0,0,0-.437.36916,1.61225,1.61225,0,0,1-1.12959.62009C227.29462,161.7417,227.26335,161.74246,227.23208,161.74246Z" fill="#490000"/><path d="M246.0263,163.136c-.02974,0-.06025-.00076-.09076-.00229a1.61013,1.61013,0,0,1-1.13112-.617,1.63017,1.63017,0,0,0-.43856-.36687,2.09716,2.09716,0,0,0-1.82519.18306,2.9202,2.9202,0,0,0-.89468.62085.58572.58572,0,1,1-.83289-.82374,4.09582,4.09582,0,0,1,1.24858-.86645,3.22532,3.22532,0,0,1,2.84113-.15483,2.70193,2.70193,0,0,1,.75205.60255c.20059.212.24865.24712.34322.25246a.84306.84306,0,0,0,.35314-.07322.70309.70309,0,0,0,.23111-.19221.5854.5854,0,0,1,.92442.71848,1.86633,1.86633,0,0,1-.63611.52323A1.99076,1.99076,0,0,1,246.0263,163.136Z" fill="#490000"/><path d="M246.64123,182.29571c-7.78863,3.76871-13.8791,2.41338-13.8791,2.41338l.00122.00453c2.47226,1.80233,1.11461,3.10951,1.11461,3.10951l.00287.0125C243.51223,188.92312,246.64123,182.29571,246.64123,182.29571Z" fill="#d04719"/><path d="M273.776,206.02913c-3.819-8.52672-18.55891-11.84107-18.55891-11.84107-5.49384,3.75194-13.53369,14.06984-13.53369,14.06984-11.122.134-8.70995-15.00782-8.70995-15.00782s-9.61437.36848-11.95931.804c-2.33445.4335-2.64619,3.00837-2.64892,3.03161.21578.513.44314,1.01871.67242,1.52432,1.291,2.84779,1.97541,3.039,2.67986,4.95794,1.181,3.217.80832,6.90316.07769,7.91015,1.56512,7.79146,1.20758,17.65371-3.77974,29.40478l-.04976,6.23455,39.52942,4.16939,5.226-18.024,3.61794,10.34741,13.66783-12.84055S277.59483,214.55581,273.776,206.02913Z" fill="#e6560f"/><path d="M232.76181,239.50422a.38629.38629,0,0,1-.17466-.04118.39116.39116,0,0,1-.17467-.524c.70171-1.40036,17.27641-34.34231,25.51991-38.204a.39069.39069,0,0,1,.331.70781c-8.00019,3.74648-24.98219,37.50531-25.15227,37.84548A.39015.39015,0,0,1,232.76181,239.50422Z"/><path d="M223.92873,264.19047a.39051.39051,0,0,1-.24941-.691c.24331-.20212,24.42769-20.55078,31.46532-51.34185a.39041.39041,0,0,1,.7612.1739c-7.09789,31.05574-31.4821,51.56532-31.7277,51.769A.39185.39185,0,0,1,223.92873,264.19047Z"/><path d="M225.25358,254.83264a.39053.39053,0,0,1-.29518-.646l12.14177-14.0417a.3904.3904,0,0,1,.59035.511l-12.14177,14.04171A.38928.38928,0,0,1,225.25358,254.83264Z"/><path d="M223.92873,240.79093a.38259.38259,0,0,1-.1411-.02669.38943.38943,0,0,1-.22272-.50492c.12128-.31272,3.02648-7.69968,7.53188-10.94506a.39013.39013,0,0,1,.45611.63306c-4.3193,3.11267-7.23137,10.52022-7.26035,10.5942A.38958.38958,0,0,1,223.92873,240.79093Z"/><path d="M256.48558,251.18033l-.96055,4.379s-3.31765,2.80351-12.8844,3.41174l6.34562-8.64307Z" fill="#fd8b66"/><path d="M269.62164,281.086c-3.68461-8.4419-14.09652-25.52671-14.09652-25.52671l-.00014,0c-.00041.00041-3.31834,2.80353-12.88431,3.41171l.0706-.09624c-7.16882,8.702-15.66272,15.46866-25.3661,17.40675l5.27561,40.984h51.55716S273.30637,289.52792,269.62164,281.086Z" fill="#e6560f"/><polygon points="238.99 260.25 242.178 303.582 236.659 260.485 238.99 260.25" fill="#c1440e"/><polygon points="241.398 258.438 249.103 287.325 239.159 259.13 241.398 258.438" fill="#c1440e"/><polygon points="236.479 262.556 232.053 308.021 234.142 262.389 236.479 262.556" fill="#c1440e"/><polygon points="262.721 233.263 260.983 227.858 258.616 247.421 262.721 233.263" fill="#c1440e"/><path d="M274.17684,230.88089a.77287.77287,0,0,1-.36611-.09153.78108.78108,0,0,1-.32263-1.05636l2.21113-4.15455a.781.781,0,1,1,1.379.73374l-2.21113,4.15454A.78118.78118,0,0,1,274.17684,230.88089Z"/><path d="M267.49844,233.09126a.78184.78184,0,0,1-.73373-.51331l-1.6124-4.42074a.78105.78105,0,0,1,1.46748-.53543l1.61239,4.42074a.781.781,0,0,1-.73374,1.04874Z"/><path d="M256.33067,250.328a.78114.78114,0,0,1-.73374-.51332L253.9853,245.394a.78105.78105,0,0,1,1.46748-.53543l1.61163,4.42073a.781.781,0,0,1-.73374,1.04875Z"/><path d="M224.40391,224.754a.78107.78107,0,0,1-.75815-.97171l1.15095-4.56336a.781.781,0,1,1,1.51476.38136l-1.15094,4.56336A.7807.7807,0,0,1,224.40391,224.754Z"/><path d="M233.28275,214.93162a.78117.78117,0,0,1-.63153-1.23866l2.75952-3.81208a.78053.78053,0,0,1,1.2646.91526l-2.75953,3.81208A.7791.7791,0,0,1,233.28275,214.93162Z"/><path d="M228.60269,214.45721l-.02975-.00077a.77985.77985,0,0,1-.75128-.80925l.17238-4.70217a.76684.76684,0,0,1,.80924-.75129.77987.77987,0,0,1,.75129.80925l-.17238,4.70218A.78047.78047,0,0,1,228.60269,214.45721Z"/><path d="M225.64333,204.345a.78106.78106,0,0,1-.64069-1.22646l2.68478-3.86547a.78094.78094,0,0,1,1.2829.89086l-2.68478,3.86547A.77933.77933,0,0,1,225.64333,204.345Z"/><path d="M220.71081,198.17005a.78113.78113,0,0,1-.13805-1.54985l4.63124-.836a.78126.78126,0,1,1,.27763,1.53765l-4.63124.83594A.79706.79706,0,0,1,220.71081,198.17005Z"/><path d="M268.23523,219.9755a.773.773,0,0,1-.3661-.09153.78109.78109,0,0,1-.32263-1.05637l2.21113-4.15454a.781.781,0,1,1,1.379.73373l-2.21113,4.15455A.7812.7812,0,0,1,268.23523,219.9755Z"/><path d="M267.12545,242.87136s2.6305,14.29595,10.7709,13.59246,11.62436-4.08363,16.04631-11.338,16.0798-28.00862,16.0798-28.00862l4.89094-3.49941s2.948-2.747,3.149-4.75695c0,0,3.48395-.536.871-3.35,0,0,2.747-2.412-.67-3.685,0,0,10.71987-5.69493,9.78189-8.0399s-11.99286,5.09193-11.99286,5.09193,6.43192-10.31791,3.88595-11.05488S309.48647,201.29,309.48647,201.29s-4.48895,1.139-7.10192,6.90091-18.45827,20.08575-21.27224,27.04392l-1.8135-3.8Z" fill="#fd8b66"/><path d="M315.88474,209.06705c-.9656,0-4.7998-1.31874-5.30549-3.62293l.76272-.1678c.38823,1.76723,3.63819,2.954,4.4871,3.00818a24.99217,24.99217,0,0,0-2.33775-4.32921c-1.887-3.09818-3.76784-2.34079-3.84793-2.30723l-.31805-.71391c.10525-.04576,2.56884-1.1029,4.8326,2.61537,2.15927,3.54742,2.697,4.59235,2.36291,5.185A.67885.67885,0,0,1,315.88474,209.06705Z" fill="#d04719"/><path d="M313.23047,210.90674a2.52515,2.52515,0,0,1-.447-.03661,1.26916,1.26916,0,0,1-1.09374-.76273c-.23874-.69712.38593-1.46671.58271-1.68637l.5812.5217c-.257.286-.492.71543-.42484.91145.03661.10678.21662.19754.49348.24712,1.26.23263,4.00277-1.06552,4.95312-1.58341l.37373.68645C318.11189,209.27909,315.10143,210.90674,313.23047,210.90674Z" fill="#d04719"/><path d="M311.77825,209.19061a2.26355,2.26355,0,0,1-2.18138-1.46519c-.3928-.92747.85653-1.9129,1.26688-2.2363l.48356.61323c-.87941.69408-1.10594,1.14332-1.032,1.31722a1.66205,1.66205,0,0,0,2.131.88934l.1144.36534.28374.27839-.07551.07551-.09534.02822A3.15676,3.15676,0,0,1,311.77825,209.19061Z" fill="#d04719"/><path d="M314.14879,204.30538l-.37984-.68187c2.11885-1.17917,4.31625-2.14554,4.3376-2.15545l.31424.71543C318.39868,202.19264,316.23407,203.14528,314.14879,204.30538Z" fill="#d04719"/><path d="M281.11231,235.23482a10.77139,10.77139,0,0,0-1.10547,8.26466s-3.72752-3.92908-.708-12.06467Z" fill="#d04719"/><path d="M232.10129,155.96942a.58341.58341,0,0,1-.35009-.1167,3.30119,3.30119,0,0,0-3.91657-.00381.58589.58589,0,0,1-.71315-.92976,4.45391,4.45391,0,0,1,5.33143-.00458.58578.58578,0,0,1-.35162,1.05485Z" fill="#490000"/><path d="M245.65943,157.99139a.5834.5834,0,0,1-.35009-.11669,3.303,3.303,0,0,0-3.91657-.00382.58558.58558,0,0,1-.71315-.929,4.44708,4.44708,0,0,1,5.33143-.00534.58577.58577,0,0,1-.35162,1.05484Z" fill="#490000"/><path d="M234.58137,175.48619a4.57858,4.57858,0,0,0,.70349-1.14565,1.4852,1.4852,0,0,1,1.77548-.77049s-.134-1.44048,1.206-1.57448a4.09718,4.09718,0,0,0,1.809-.469S239.07031,176.53134,234.58137,175.48619Z" fill="#d04719"/><path d="M236.28985,156.501c1.07777,0,1.41455-2.51247.335-2.51247-1.07777,0-1.41455,2.51247-.335,2.51247Z" fill="#d04719"/><path d="M220.703,233.26279l20.98035-25.00489s7.9392-10.41839,13.53369-14.06984c0,0,15.54388,1.07406,14.3379,8.81144s-20.12176,66.873-52.20985,73.28208l-1.68549-13.09367s2.31644-12.35128,2.3317-16.774.0241-5.53107.0241-5.53107S220.161,235.35643,220.703,233.26279Z" fill="#376f92"/><path d="M175.38766,245.87742s-.09993-3.4633,2.521-1.829c1.825,1.138,4.11558,2.96662,4.06376,5.21823s-2.34338,1.63966-2.79192.77207" fill="#fd8b66"/><path d="M173.48612,248.45927s-1.0848-3.49688,1.2869-2.77243,4.68209,4.6848,4.68209,4.6848,1.90585,4.2551-1.70071,2.31419" fill="#fd8b66"/><path d="M172.60369,250.9139s-1.5241-4.18457,1.09089-2.29029,4.48491,3.89535,4.3679,4.841S176.28954,255.92983,172.60369,250.9139Z" fill="#fd8b66"/><path d="M219.08953,274.49655a1.17224,1.17224,0,0,0,0-2.34308,1.17224,1.17224,0,0,0,0,2.34308Z" fill="#3d9ba8"/><path d="M225.65016,270.93507a1.17224,1.17224,0,0,0,0-2.34308,1.17224,1.17224,0,0,0,0,2.34308Z" fill="#3d9ba8"/><path d="M231.64845,266.6238a1.17224,1.17224,0,0,0,0-2.34308,1.17224,1.17224,0,0,0,0,2.34308Z" fill="#3d9ba8"/><path d="M236.897,261.3753a1.17224,1.17224,0,0,0,0-2.34308,1.17224,1.17224,0,0,0,0,2.34308Z" fill="#3d9ba8"/><path d="M242.3329,255.377a1.17224,1.17224,0,0,0,0-2.34308,1.17224,1.17224,0,0,0,0,2.34308Z" fill="#3d9ba8"/><path d="M247.394,248.44149a1.17224,1.17224,0,0,0,0-2.34308,1.17224,1.17224,0,0,0,0,2.34308Z" fill="#3d9ba8"/><path d="M251.89267,240.94363a1.17224,1.17224,0,0,0,0-2.34308,1.17224,1.17224,0,0,0,0,2.34308Z" fill="#3d9ba8"/><path d="M255.45415,233.07088a1.17224,1.17224,0,0,0,0-2.34308,1.17224,1.17224,0,0,0,0,2.34308Z" fill="#3d9ba8"/><path d="M259.01563,225.573a1.17224,1.17224,0,0,0,0-2.34308,1.17224,1.17224,0,0,0,0,2.34308Z" fill="#3d9ba8"/><path d="M261.82733,218.45006a1.17225,1.17225,0,0,0,0-2.34309,1.17225,1.17225,0,0,0,0,2.34309Z" fill="#3d9ba8"/><path d="M264.26414,210.9522a1.17225,1.17225,0,0,0,0-2.34309,1.17225,1.17225,0,0,0,0,2.34309Z" fill="#3d9ba8"/><path d="M266.32605,204.579a1.17225,1.17225,0,0,0,0-2.34309,1.17225,1.17225,0,0,0,0,2.34309Z" fill="#3d9ba8"/><rect x="165.42293" y="210.39807" width="2.22864" height="2.22864" transform="translate(344.31289 9.35412) rotate(79.54365)" fill="#ce185e"/><rect x="168.85957" y="213.25663" width="2.22864" height="2.22864" transform="translate(349.93693 8.31431) rotate(79.54365)" fill="#ce185e"/><rect x="172.42255" y="216.77125" width="2.22864" height="2.22864" transform="translate(356.30952 7.68727) rotate(79.54365)" fill="#ce185e"/><rect x="175.70286" y="220.56704" width="2.22864" height="2.22864" transform="translate(362.72726 7.56834) rotate(79.54365)" fill="#ce185e"/><rect x="177.26628" y="238.39555" width="2.22864" height="2.22864" transform="translate(-109.34695 159.52567) rotate(-37.78706)" fill="#702b72"/><rect x="188.28013" y="245.19257" width="2.22864" height="2.22864" fill="#702b72"/><rect x="208.65824" y="247.3182" width="2.22864" height="2.22864" fill="#702b72"/><rect x="195.90556" y="229.65531" width="2.22864" height="2.22864" fill="#702b72"/><rect x="209.77256" y="228.51632" width="2.22864" height="2.22864" fill="#702b72"/><rect x="209.34734" y="198.85554" width="2.22864" height="2.22864" fill="#702b72"/><rect x="174.27284" y="281.08603" width="2.22864" height="2.22864" fill="#702b72"/><rect x="189.39445" y="267.24572" width="2.22864" height="2.22864" fill="#702b72"/><rect x="177.01765" y="262.68591" width="2.22864" height="2.22864" fill="#702b72"/><rect x="197.01989" y="252.07872" width="2.22864" height="2.22864" fill="#702b72"/><rect x="218.37979" y="214.37095" width="2.22864" height="2.22864" fill="#702b72"/><rect x="202.67734" y="213.25663" width="2.22864" height="2.22864" fill="#702b72"/><rect x="170.30358" y="226.30535" width="2.22864" height="2.22864" transform="translate(363.95089 17.57485) rotate(79.54365)" fill="#ce185e"/><rect x="166.66794" y="223.20079" width="2.22864" height="2.22864" transform="translate(357.92207 18.60898) rotate(79.54365)" fill="#ce185e"/><rect x="163.20996" y="219.25483" width="2.22864" height="2.22864" transform="translate(351.21123 18.77971) rotate(79.54365)" fill="#ce185e"/><path d="M180.68775,251.212a2.18134,2.18134,0,0,1-1.85418-.99383l.69408-.35848a1.41507,1.41507,0,0,0,1.38358.54764c.42941-.09915.65518-.48662.67043-1.15019.03737-1.60781-1.26841-3.24919-3.88-4.8776-.40653-.25322-.96636-.5095-1.32942-.30128-.51865.29747-.60484,1.41867-.59416,1.78782l-.781.02289c-.00534-.19374-.02517-1.90757.9862-2.488a2.04458,2.04458,0,0,1,2.13181.31653c2.86249,1.784,4.29107,3.6542,4.2476,5.558-.03356,1.44993-.90307,1.80689-1.276,1.89231A1.76629,1.76629,0,0,1,180.68775,251.212Z" fill="#d04719"/><path d="M179.24926,253.58254a3.78743,3.78743,0,0,1-1.68028-.553l.37068-.688c.91222.49119,1.38892.52323,1.52163.40119.26009-.24254.01831-1.35993-.36229-2.21189-.00381-.00076-2.24316-3.79912-4.44056-4.47031-.39891-.122-.67425-.10907-.8184.03737-.39052.392-.1556,1.68257.01906,2.24545l-.74594.23187c-.06941-.22271-.65136-2.20045.17314-3.02877a1.5037,1.5037,0,0,1,1.60095-.23339c2.48953.76043,4.80744,4.69455,4.90507,4.86159.1922.42255,1.01289,2.385.20059,3.14012A1.04563,1.04563,0,0,1,179.24926,253.58254Z" fill="#d04719"/><path d="M176.90541,254.83264c-.95492,0-2.44986-.73908-4.61675-3.68776l-.05187-.09763c-.27686-.75891-.839-2.58639-.09229-3.15.53162-.40424,1.2707.04043,1.77867.40958,2.29427,1.662,4.68769,3.90209,4.52675,5.20558a1.51711,1.51711,0,0,1-1.11662,1.26688A1.684,1.684,0,0,1,176.90541,254.83264Zm-3.95395-4.105c2.51927,3.41242,3.83955,3.38649,4.18506,3.29572a.73062.73062,0,0,0,.53848-.60712c.07932-.64374-1.47358-2.49487-4.20946-4.47642-.64526-.46755-.85577-.41721-.85654-.41568A4.131,4.131,0,0,0,172.95146,250.72767Z" fill="#d04719"/></g></svg>