<svg id="Layer_1" data-name="Layer 1" xmlns="http://www.w3.org/2000/svg" viewBox="0 0 900 600"><g opacity="0.31"><path d="M646.0083,496.752a16.14611,16.14611,0,0,1-1.61963-.08154L251.01611,457.042A15.82748,15.82748,0,0,1,237.0835,444.1499L188.58105,174.47705a15.76135,15.76135,0,0,1,13.38916-18.40771l462.30225-62.8628A15.76086,15.76086,0,0,1,682.1333,109.688L661.70605,481.85205A15.76571,15.76571,0,0,1,646.0083,496.752Zm-1.519-1.07666A14.7614,14.7614,0,0,0,660.708,481.79736L681.13525,109.6333a14.761,14.761,0,0,0-16.728-15.43555L202.105,157.06055a14.7615,14.7615,0,0,0-12.53955,17.23974l48.50244,269.67285a14.82313,14.82313,0,0,0,13.04883,12.07374Z" fill="#e6560f"/></g><path d="M653.44694,505.901,269.58275,467.23082a14.8924,14.8924,0,0,1-13.16453-12.18121l-47.33007-263.1545a14.89239,14.89239,0,0,1,12.65064-17.3928l451.12759-61.3434A14.89239,14.89239,0,0,1,689.743,128.73168L669.80965,491.89973A14.8924,14.8924,0,0,1,653.44694,505.901Z" fill="#ffe3c2"/><path d="M428.33415,473.92588c-.07148-.41488-.13627-.81687-.19568-1.20845Q428.22732,473.30411,428.33415,473.92588Z" fill="#ffb957"/><path d="M427.81581,469.997q-.00946-.125-.01708-.24669Q427.80653,469.872,427.81581,469.997Z" fill="#ffb957"/><path d="M427.92145,471.10063c-.013-.11431-.02581-.228-.03732-.33932C427.89546,470.87237,427.90845,470.9865,427.92145,471.10063Z" fill="#ffb957"/><path d="M428.075,472.29205c-.02488-.17279-.0479-.34225-.07-.50966Q428.03813,472.03316,428.075,472.29205Z" fill="#ffb957"/><path d="M487.85558,425.68237c-3.234,1.7338-11.1714,2.51981-11.1714,2.51981l-.00483.00055c-10.72009,14.17911-26.21718,29.79442-48.164,46.738,2.21594,11.91225,8.55334,31.4993,8.55334,31.4993h61.18246Z" fill="#ffb957"/><path d="M427.73747,467.98711l-.00223-.06994Z" fill="#ffb957"/><path d="M428.51312,474.92887q-.07742-.4164-.14778-.8197Q428.43608,474.51269,428.51312,474.92887Z" fill="#ffb957"/><polygon points="469.295 432.786 472.865 493.645 466.305 433.035 469.295 432.786" fill="#ca5303"/><polygon points="466.541 435.988 465.041 491.181 463.541 435.988 466.541 435.988" fill="#ca5303"/><polygon points="462.667 440.283 453.902 501.037 459.688 439.927 462.667 440.283" fill="#ca5303"/><path d="M579.83173,292.96147a13.30142,13.30142,0,0,1-6.57-8.06513c-.41066-1.84013-3.42193-10.05276-9.99215-5.67268s-4.24326,9.49015-4.24326,9.49015-2.87426-1.00378-5.20121-7.437c-2.327-6.43325,1.16589-8.6529-11.28986-13.30673-12.45593-4.65382-8.55743-12.08918-24.43511-11.07993-15.87787,1.00925-12.86659,13.29958-12.86659,13.29958l-3.444,3.48107c-.01.11761-.00891.23308-.02339.35148-.34067,2.7728-1.54574,2.41529-3.10261,7.30015a38.609,38.609,0,0,0-1.64265,9.67265c-.08781,1.39039-.02042,1.27106,0,6.38762.03546,8.8664-.16746,9.061.18268,11.1327.76711,4.538,1.92558,4.69908,1.64246,7.30011a7.18471,7.18471,0,0,1-.17711.98836h0s5.46967,13.06436,14.91433,13.3381c0,0,2.05294-1.96187-2.0533-4.6082s-11.8574-8.12138-9.69288-28.653c2.1647-20.5316,4.21782-25.45916,11.19851-27.78608,0,0,1.77947,4.38009,8.76016,5.612,6.98088,1.23189,7.25453,6.98074,7.25453,8.897s-.13682,5.79772,5.06458,7.89489c5.20122,2.09712,1.2318,9.78714,1.2318,12.0332s-.41066,7.858,4.65373,11.4168c5.06458,3.5588,2.327,11.19257,2.327,11.19257s14.0984-1.47426,18.75231-20.36335c0,0,9.85514,14.48153,17.24649,6.07731S584.0748,295.20164,579.83173,292.96147Z" fill="#5e1212"/><path d="M481.69066,333.88332a42.00894,42.00894,0,0,1-.54751-4.9276c-.07149-1.60944,0-2.92,0-2.92s6.03945-3.12566,9.30768-6.5701c1.56653-1.65106,1.97829-5.25989,2.73759-12.41022.18991-1.78819.60972-6.11295.73-14.23523.09934-6.70949.14894-10.06426-.18244-11.31519-2.63293-9.93642-17.52033-14.6003-17.52033-14.6003a15.08493,15.08493,0,0,1-1.64249,8.76017c-1.06673,1.93167-2.02023,2.07587-8.21265,6.7526-3.94177,2.977-5.93291,4.49656-6.93524,6.02264-.73775,1.12334-3.34374,5.45038-2.18994,10.03765.6875,2.7333,1.95063,2.54021,4.56259,7.66513,1.63431,3.20687,2.45153,4.81028,2.37245,6.75259-.10862,2.66611-1.48686,3.13708-2.37245,7.48263-.46766,2.29532-.73613,3.61175-.18251,5.11011.8145,2.20474,2.49276,2.3246,4.56259,4.56259.27418.29651,3.24369,3.58539,3.46743,7.66513.17043,3.10507-1.401,3.89463-2.63514,7.49392L478.3688,352.126l6.589-11.37947A20.78143,20.78143,0,0,1,481.69066,333.88332Z" fill="#fd8b66"/><path d="M425.47975,456.06915c-.82132-1.91629-1.00381-14.41776-1.00381-17.15528,0-2.73758-3.01128-27.193-4.79075-38.0063-1.77928-10.81329-2.60061-35.725-2.60061-35.725l3.42194-8.07576.32359-.91285h-.00019c-.52335-.11241.46135-7.30187.81724-9.90043.90728-6.62462,1.28991-7.32053.91248-9.4902-.75728-4.35353-2.92309-5.14668-2.37245-7.84763a5.221,5.221,0,0,1,2.247-3.14815c-12.42846-3.64754-32.725-7.072-32.725-7.072a17.24571,17.24571,0,0,1-13.32274,13.32274l-3.28511,7.30011-3.83259-7.11761c-11.13261-3.10257-13.14006-24.63789-13.14006-24.63789s-24.45554-11.3152-29.01811-13.414S304.48017,262.454,304.48017,262.454l6.75266-47.56275s-11.86278-7.4826-17.33783-7.66509c-5.47506-.18255-20.44045,54.56838-21.35292,62.73488S307.99339,327.952,313.60527,336.849c5.61207,8.897,8.16515,22.03728,8.16515,22.03728l16.47288,60.226c-1.848,4.92762-.27384,9.44457,1.2318,15.604s-.54749,7.52827-3.96942,10.96227,0,11.48562-1.36881,15.31817S324.28173,506.44,324.28173,506.44h112.787s-9.12515-28.19674-9.30765-37.50439S426.30089,457.98541,425.47975,456.06915Z" fill="#376f92"/><path d="M424.1995,346.68561a30.79424,30.79424,0,0,0-2.92457,8.25259Z" fill="#376f92"/><path d="M313.51407,204.12364s.59314-1.825,5.6576-3.55881-4.15195-10.49393,5.29259-12.684c0,0-.365,6.79824,0,8.4864s2.78317,6.88949-1.00377,10.03767-12.41781,8.42556-13.42158,7.75638a67.0087,67.0087,0,0,0-14.18962-6.63855,24.38836,24.38836,0,0,0,1.14825-11.24676c-.73-6.84386,2.09879-16.60778,7.02637-12.86646a5.95085,5.95085,0,0,1,2.076,2.44858c.8745,1.81743,1.33836,4.75268-.43344,9.19359,0,0-.06084.09125-.1673.22813-.62355.80606-2.90484,3.32308-4.85154-.22813a2.68155,2.68155,0,0,1,.95814-1.92388,2.65426,2.65426,0,0,0,.59314-2.50942" fill="#fd8b66"/><path d="M397.55662,254.4936l-.00019-.0001c-5.264.67225-11.22394-.60406-13.86985-1.094-4.92776-.91253-20.25795-7.84764-20.25795,5.4751s-6.02254,19.89282-6.02254,19.89282c.54748-8.94266-6.02273-7.30011-6.02273-7.30011s-7.48251,6.57012,1.64265,12.22772c0,0,5.47505,4.74507,3.10261,23.90791,0,0,2.00745,21.53532,13.14006,24.63789l3.83259,7.11761,3.28511-7.30011a17.24571,17.24571,0,0,0,13.32274-13.32274s-2.92012-5.11006,0-13.87023c0,0,13.14024,2.555,11.13261-18.25031C398.83427,265.80967,397.55662,254.4936,397.55662,254.4936Z" fill="#fd8b66"/><path d="M542.32729,326.1412s2.73762-7.63377-2.327-11.19257c-5.06439-3.55881-4.65373-9.17078-4.65373-11.4168s3.96942-9.93608-1.2318-12.0332c-5.2014-2.09717-5.06458-5.97864-5.06458-7.89489s-.27365-7.66514-7.25453-8.897c-6.98069-1.23189-8.76016-5.612-8.76016-5.612-6.98069,2.32692-9.03381,7.25448-11.19851,27.78608-2.16452,20.5316,5.58663,26.0067,9.69288,28.653s2.0533,4.6082,2.0533,4.6082a9.93292,9.93292,0,0,1,.17656,1.03223c.19011,1.529.26919,4.42324-1.40854,6.35917,0,0-3.28511,20.62285,11.86277,20.44035,0,0,10.95011-14.05277,18.43262-19.16283C542.64661,338.81091,539.27035,336.46687,542.32729,326.1412Z" fill="#fd8b66"/><path d="M357.40606,278.7674s6.02261-6.57011,6.02261-19.89284,15.33026-6.3876,20.25784-5.47509,21.35286,4.56258,23.3604-6.75261-11.6802-13.68773-18.98033-10.58518-13.14022,2.37254-22.81288,1.825-6.93512,8.76015-6.93512,8.76015-8.94265-2.37254-8.03014,8.57764,1.095,16.24278,1.095,16.24278S357.95357,269.82475,357.40606,278.7674Z" fill="#490000"/><path d="M353.756,275.02609s-2.00753.09125-1.64253,2.46379,1.64253,1.27752,1.64253,1.27752" fill="#d04719"/><path d="M369.72607,262.63477a.74965.74965,0,0,1-.49462-1.31348c.04-.03565,4.11376-3.52295,8.63574-.80859a.74989.74989,0,0,1-.77149,1.28613c-3.57226-2.14258-6.74463.5376-6.87841.65283A.74991.74991,0,0,1,369.72607,262.63477Z" fill="#490000"/><path d="M388.52246,264.187a.75.75,0,0,1-.65674-1.11133,4.94625,4.94625,0,0,1,2.86035-2.20068,5.83057,5.83057,0,0,1,4.57227.9165.75006.75006,0,0,1-.77539,1.28418,4.4169,4.4169,0,0,0-3.40772-.75195,3.45775,3.45775,0,0,0-1.935,1.47461A.74935.74935,0,0,1,388.52246,264.187Z" fill="#490000"/><path d="M371.6416,271.21338a.75.75,0,0,1-.47168-1.3335c.11475-.09277,2.83887-2.24853,5.3711-.48828a.75.75,0,0,1-.85645,1.23145c-1.61914-1.125-3.55225.40869-3.57227.42383A.74777.74777,0,0,1,371.6416,271.21338Z" fill="#490000"/><path d="M390.43945,270.71094a.75.75,0,0,1-.47168-1.3335c.11475-.09228,2.83936-2.24951,5.3711-.48828a.75.75,0,0,1-.85645,1.23145c-1.61865-1.12549-3.55273.40869-3.57226.42382A.74777.74777,0,0,1,390.43945,270.71094Z" fill="#490000"/><path d="M383.86807,267.31805a72.19759,72.19759,0,0,1,3.91828,7.38224,15.92629,15.92629,0,0,1,1.52523,3.964,7.69291,7.69291,0,0,1,.09617,2.26706,2.10252,2.10252,0,0,1-.59137,1.31781.74161.74161,0,0,1-.42789.18615.60857.60857,0,0,1-.3934-.03949,1.31954,1.31954,0,0,1-.51831-.344l.08459-.18125c.37268.01508.68686-.11923.58167-.23889-.02247-.0979-.06766-.38153-.14121-.65255-.174-.57187-.39078-1.19175-.62509-1.80848-.47946-1.22927-.68259-2.59216-1.0864-3.90292-.39029-1.3136-.82293-2.62253-1.27288-3.92712l-1.33-3.93674Z" fill="#d04719"/><path d="M386.61328,289.019a7.0682,7.0682,0,0,1-5.66211-3.37646.75005.75005,0,0,1,1.27246-.79444c.10889.17286,2.7085,4.20215,6.76514,2.019a.74978.74978,0,0,1,.71094,1.32031A6.45779,6.45779,0,0,1,386.61328,289.019Z" fill="#490000"/><path d="M393.95238,281.13991a6.84737,6.84737,0,0,0-5.77173.7537,6.84707,6.84707,0,0,0-5.77154-.7537c-3.194,1.18627-8.03018-.82123-8.03018-.82123s5.9312,8.30388,13.505,3.83255h.59334c7.57385,4.47133,13.505-3.83255,13.505-3.83255S397.14614,282.32618,393.95238,281.13991Z" fill="#5e1212"/><path d="M389.70912,304.86532s-12.77522-1.36875-17.1553-4.4713c0,0,1.74177,6.85537,15.883,10.96169A20.07334,20.07334,0,0,1,389.70912,304.86532Z" fill="#d04719"/><path d="M373.10126,339.3584c.3453,2.84918.58114,5.7037.80038,8.559.23062,2.85477.38278,5.71335.53467,8.572.12811,2.85977.25421,5.71963.303,8.58325l.06964,4.29563c-.01331,1.43365.00775,2.86563-.03583,4.30075-.18292-1.42411-.30118-2.85132-.45379-4.27689l-.34833-4.282c-.22983-2.8548-.38239-5.71338-.53293-8.57206-.12677-2.85983-.25324-5.71966-.30124-8.58334C373.07742,345.09158,373.03461,342.22766,373.10126,339.3584Z" fill="#133852"/><path d="M377.1164,343.41347a1.5009,1.5009,0,0,0,0-3,1.5009,1.5009,0,0,0,0,3Z"/><path d="M377.84641,355.45867a1.5009,1.5009,0,0,0,0-3,1.5009,1.5009,0,0,0,0,3Z"/><path d="M378.57642,365.67885a1.5009,1.5009,0,0,0,0-3,1.5009,1.5009,0,0,0,0,3Z"/><path d="M374.77313,430.245a36.36863,36.36863,0,0,0,7.189-1.754,38.85147,38.85147,0,0,0,6.72513-3.00482,36.81194,36.81194,0,0,0,11.11834-9.44632,41.10052,41.10052,0,0,0,6.86017-12.91648,65.02192,65.02192,0,0,0,2.93619-14.48907c-.04791,1.238-.096,2.47925-.17239,3.71951-.13785,1.23334-.23743,2.47495-.40775,3.70773a53.28669,53.28669,0,0,1-1.6232,7.29554,40.1964,40.1964,0,0,1-6.81058,13.30365,36.25828,36.25828,0,0,1-11.53659,9.499A35.846,35.846,0,0,1,374.77313,430.245Z" fill="#133852"/><path d="M341.80206,441.56015c1.13068.43542,2.25949.8559,3.41346,1.20242,1.13888.38294,2.291.72565,3.45526,1.008a47.65915,47.65915,0,0,0,7.03744,1.27109,32.30322,32.30322,0,0,0,7.101-.13916,20.70664,20.70664,0,0,0,3.4524-.86682,23.21184,23.21184,0,0,0,3.32653-1.3805,18.0744,18.0744,0,0,1-6.63726,3.00339,25.70821,25.70821,0,0,1-7.33631.37811,34.00867,34.00867,0,0,1-7.15793-1.531A32.94271,32.94271,0,0,1,341.80206,441.56015Z" fill="#133852"/><path d="M337.69574,420.61792c1.08307,1.09161,2.193,2.13022,3.30154,3.162,1.12091,1.01877,2.25663,2.01355,3.43439,2.95367,1.16019.96326,2.38379,1.84168,3.62528,2.699,1.24252.86212,2.54623,1.62387,3.874,2.40918a19.30758,19.30758,0,0,1-4.28046-1.743,25.63384,25.63384,0,0,1-3.84671-2.58762A26.36725,26.36725,0,0,1,337.69574,420.61792Z" fill="#133852"/><path d="M397.92175,462.63925c1.12323-.28561,2.24387-.55545,3.35175-.87839,1.114-.29126,2.22354-.59674,3.32031-.94024,2.19434-.67893,4.38416-1.36432,6.50791-2.21381a48.14807,48.14807,0,0,0,6.215-2.85956,16.62412,16.62412,0,0,0,1.46777-.87573,12.259,12.259,0,0,0,1.40967-.968,16.72386,16.72386,0,0,0,1.36127-1.04687c.4147-.39365.84112-.78116,1.27805-1.16757a18.80705,18.80705,0,0,1-5.11866,4.71637,33.22655,33.22655,0,0,1-6.25244,3.13345,46.95865,46.95865,0,0,1-6.67285,2.022A44.818,44.818,0,0,1,397.92175,462.63925Z" fill="#133852"/><path d="M315.79535,319.46558a46.12,46.12,0,0,1,4.866,5.85723,47.08789,47.08789,0,0,1,3.94879,6.54117,33.43185,33.43185,0,0,1,2.66369,7.18531,18.8449,18.8449,0,0,1,.35392,1.88964l.15527.94687c.02875.31906.04214.64048.05917.96027a14.5471,14.5471,0,0,1,.01154,1.91525c-.05408.63742-.12082,1.27072-.19568,1.89722-.03274-.63757-.05734-1.26837-.0693-1.89505a14.271,14.271,0,0,0-.234-1.86591l-.12812-.92709-.21924-.913a18.17747,18.17747,0,0,0-.47671-1.80987c-.2012-.59244-.39676-1.18469-.57986-1.78024l-.6868-1.74378c-.21366-.58642-.4849-1.1514-.74247-1.72119-.26034-.56866-.50668-1.14328-.80664-1.69418a75.14781,75.14781,0,0,0-3.69052-6.56046c-.653-1.07614-1.35-2.12665-2.064-3.16617C317.27222,321.52179,316.53424,320.4971,315.79535,319.46558Z" fill="#133852"/><path d="M297.18005,265.07968a5.85662,5.85662,0,0,1,1.39313-1.53332,7.803,7.803,0,0,1,1.79114-1.07019,6.46132,6.46132,0,0,1,2.06433-.46643,4.07846,4.07846,0,0,1,2.05151.4443,14.69917,14.69917,0,0,0-1.9425.32837,16.44682,16.44682,0,0,0-1.79132.61728C299.56726,263.88644,298.4386,264.49518,297.18005,265.07968Z" fill="#133852"/><path d="M305.49916,195.27983c.10656-.13687.16727-.22812.16727-.22812,1.77186-4.44093,1.30792-7.37617.4335-9.19361.15966-.23573,2.88206-4.06067,4.29635.24334C311.85625,190.53476,310.30513,204.28334,305.49916,195.27983Z" fill="#fd8b66"/><path d="M314.457,187.24469s3.2845-4.19216,4.441,1.09243-1.5027,17.30635-4.74213,6.71408" fill="#fd8b66"/><path d="M310.39722,186.10146s2.79747-5.01884,3.98374.73-1.15834,17.62548-4.34333,9.68187" fill="#fd8b66"/><path d="M334.52336,409.43961s-9.30766-5.84009-6.38761-8.12138c0,0,1.14356-.82635,6.11531,2.94032l1.3144,4.80557Z" fill="#fd8b66"/><path d="M334.46387,409.99219l-.20606-.1294c-.72021-.45166-7.04-4.49609-7.18652-7.3374a1.84865,1.84865,0,0,1,.75683-1.60107c.354-.25684,1.83936-.76612,6.72461,2.936l.13575.10254,1.48095,5.415Zm-5.93555-8.24951a.54985.54985,0,0,0-.15918.01611.84314.84314,0,0,0-.29883.71533c.09766,1.90234,4.55323,5.15186,6.51416,6.41162l.377-.13574-1.14795-4.19482C330.4126,402,328.9707,401.74268,328.52832,401.74268Z" fill="#d04719"/><path d="M332.63127,415.27971s-4.4405-1.5969-1.0642-4.10632c2.351-1.74739,5.80928-3.74131,8.63808-2.555s.91251,3.78694-.41063,3.92382" fill="#fd8b66"/><path d="M334.95818,418.9754s-4.9732-.365-2.87442-3.0113,8.26952-3.60444,8.26952-3.60444,6.3431-.29857,2.08753,3.30787" fill="#fd8b66"/><path d="M337.631,421.31574s-6.0637-.1503-2.36072-2.52284,7.17053-3.74734,8.31118-3.12838S345.82453,419.13913,337.631,421.31574Z" fill="#fd8b66"/><path d="M306.6752,191.6196s11.72083,2.06019,13.774,4.11112c0,0,2.17089,5.07087-1.27589,5.74662s-5.01752,4.17476-5.01752,4.17476l-7.48058-3.49037-2.58285-8.07576Z" fill="#fd8b66"/><path d="M316.71533,199.78027c-1.458,0-2.42431-2.57715-3.0376-4.583l.95606-.292c.98975,3.23535,1.82129,3.95606,2.16211,3.86328,1.26123-.33007,2.438-6.55761,1.61377-10.3247-.29492-1.34717-.74707-2.127-1.30811-2.25586-.80468-.186-1.9248.95166-2.25146,1.36572l-.78662-.61767c.168-.21387,1.68115-2.08057,3.26025-1.72315.97949.22363,1.67334,1.23877,2.0625,3.01709.78857,3.60352-.10547,10.92188-2.33691,11.50586A1.29934,1.29934,0,0,1,316.71533,199.78027Z" fill="#d04719"/><path d="M312.11426,199.66943c-1.34961.00049-2.2334-2.20312-2.54053-2.97021l.92773-.37207c.749,1.86865,1.38086,2.4209,1.70508,2.32715,1.36475-.41065,2.58252-7.37061,1.68457-11.72168-.42968-2.084-1.00488-2.32959-1.17138-2.35547-.5586-.09375-1.4585,1.0039-1.88623,1.76806l-.87305-.4873c.14258-.25586,1.43262-2.50244,2.91113-2.269.939.144,1.59278,1.17187,1.999,3.1416.84716,4.106-.02491,12.17383-2.37549,12.88135A1.30993,1.30993,0,0,1,312.11426,199.66943Z" fill="#d04719"/><path d="M308.36475,198.7793c-1.56446,0-2.84913-2.40674-3.30664-3.26416l-.15332-.28711.20019-.25635c.05322-.06787.09326-.123.11768-.15723,1.36816-3.45459,1.51562-6.47558.42675-8.73974l-.12451-.25928.16162-.23828c.1543-.227,1.55469-2.20313,3.12012-1.99365.89648.126,1.59131.92041,2.06494,2.36181,1.05127,3.19239.71045,11.59375-1.88086,12.70215A1.57985,1.57985,0,0,1,308.36475,198.7793Zm-2.27539-3.46094c.99755,1.79346,1.90234,2.66553,2.5083,2.40967,1.7539-.75049,2.38037-8.26221,1.32373-11.47022-.23682-.72119-.647-1.59863-1.25342-1.68359-.69385-.10547-1.57276.80859-1.99121,1.34326.77978,1.80615,1.24658,4.82764-.5459,9.31934Z" fill="#d04719"/><path d="M477.99488,345.33541s-1.63318,2.41519-8.687-5.08876l-.00464-.00153c-.65219,1.81233-2.06166,3.18912-2.94277,7.326a24.82925,24.82925,0,0,0-.365,8.21263c.518,4.0849,1.67959,4.47291,2.00746,7.30011.43164,3.72111-1.33633,5.15531-4.74508,12.95775-2.85365,6.53174-4.28038,9.79758-4.01509,13.14019.5033,6.341,5.31633,10.271,4.74508,10.76771-.56309.48961-5.93251-2.72643-9.49015-8.57766-1.44344-2.374-3.63469-6.90207-4.01509-28.10545-.16337-9.10826.16653-12.4208-2.19-16.97279-.958-1.85058-4.1573-8.03069-10.03763-8.76017-5.33322-.66157-9.58464,3.568-10.7678,4.74508a19.45165,19.45165,0,0,0-3.28734,4.40644l-.00037.0007-2.508,6.52c-.4697,1.82774-.64737,3.03438-.86161,2.98834-.07-.015-.1112-.164-.13237-.404l-3.613,9.39259.83042,17.12623s5.53428,6.622,10.59886,7.64858l4.65392-5.4751,3.07959,20.75971s42.52316,13.87023,55.66359,5.6576c0,0-.73017-16.42526,0-17.52028.73-1.095-10.22031-59.496-10.22031-59.496Z" fill="#ffb957"/><polygon points="433.168 384.482 441.175 375.585 434.325 392.285 433.168 384.482" fill="#ca5303"/><path d="M428.51386,389.95741,419.82179,401.751s-1.96606-14.56643-1.90679-19.44213C417.915,382.30883,423.72318,389.20458,428.51386,389.95741Z" fill="#fd8b66"/><path d="M481.69065,333.88334l-3.69577,11.45207s-23.4972,49.59519-31.436,53.97527-12.91356-11.609-12.91356-11.609l2.60209,17.54037s-4.56258,15.51278-5.29256,22.4479,0,15.69528-1.64246,18.06781c-.88816,1.28286-2.5982,5.87235-3.98223,9.81894a3.06365,3.06365,0,0,0,.14963.49248c.82114,1.91626,2.0988,3.55881,2.28129,12.86646a39.56678,39.56678,0,0,0,.75431,6.00518C543.42171,386.22892,481.69065,333.88334,481.69065,333.88334Z" fill="#3d9ba8"/><path d="M476.21559,266.9047a15.08454,15.08454,0,0,1-1.64246,8.76015c-1.06675,1.93165-2.02026,2.07588-8.21268,6.75261-3.94175,2.97693-5.93287,4.49655-6.9352,6.0226-.73778,1.12336-3.34378,5.45043-2.19,10.03767.68747,2.73332,1.95064,2.54018,4.56258,7.66513,1.63429,3.20685,2.45153,4.81026,2.37244,6.75262-.10861,2.6661-1.48688,3.137-2.37244,7.48262-.46766,2.2953-.73611,3.61175-.1825,5.11009.81446,2.20477,2.49275,2.32457,4.56258,4.56258.27421.29653,3.24371,3.5854,3.46742,7.66513.20254,3.6908-2.058,4.09376-3.28493,9.85517a24.82928,24.82928,0,0,0-.365,8.21263c.518,4.08491,1.67959,4.4729,2.00746,7.30013.43164,3.72111-1.33633,5.15528-4.74508,12.95771-2.85365,6.53176-4.28038,9.79762-4.01509,13.14024.5033,6.341,5.31633,10.271,4.74508,10.76768-.56309.48961-5.93251-2.72643-9.49015-8.57764-1.44344-2.374-3.63469-6.90209-4.01509-28.10548-.16337-9.10826.16653-12.42078-2.19-16.9728-.958-1.85055-4.1573-8.03067-10.03763-8.76015-5.33322-.66158-9.58464,3.568-10.7678,4.74509-5.80292,5.77314-6.10238,14.03481-6.65729,13.91554-.52335-.11245.46135-7.30188.81724-9.90048.90728-6.62461,1.28991-7.32049.91248-9.49015-.75728-4.35356-2.92309-5.14672-2.37245-7.84764.57218-2.80677,3.16017-3.17168,5.47506-6.20511,2.69436-3.53072,2.03641-6.76864,2.73744-11.31518,1.19541-7.75267,4.50038-7.36711,10.40281-20.07535,4.66264-10.03884,2.9448-11.02153,6.935-16.60778a35.29033,35.29033,0,0,1,13.32274-11.31519c3.83315-1.79556,3.73271-.574,12.95775-3.10255,8.62983-2.36542,9.70605-3.61057,13.50523-3.28506a18.571,18.571,0,0,1,11.3151,5.4751c.958,1.00569,5.62655,5.81158,4.92776,11.49769-.34067,2.77279-1.54574,2.41528-3.10261,7.30012a38.60916,38.60916,0,0,0-1.64265,9.67267c-.08781,1.3904-.02042,1.271,0,6.38761.03546,8.86643-.16746,9.061.18268,11.13269.76711,4.538,1.92558,4.6991,1.64246,7.30012-.35534,3.26431-2.257,3.71564-4.74507,8.21264-1.14491,2.06925-3.85432,6.96616-3.28511,12.77522a24.767,24.767,0,0,0,2.55513,8.03013c1.7583,3.87864,2.69046,4.139,3.64991,6.75262,1.84779,5.03369.90357,10.91557-.365,11.13269-1.48781.25463-1.36361-7.63381-7.8475-16.60779-1.855-2.56752-6.37417-8.16238-7.1177-12.2277a42.01468,42.01468,0,0,1-.54749-4.92751c-.07148-1.60957,0-2.92013,0-2.92013s6.03944-3.12568,9.30765-6.57011c1.56653-1.651,1.97831-5.2599,2.73762-12.41021.18992-1.78816.60968-6.11294.73-14.23524.09933-6.7095.1489-10.06425-.18249-11.31519C491.103,271.56852,476.21559,266.9047,476.21559,266.9047Z" fill="#490000"/><path d="M489.90332,352.5899a197.21521,197.21521,0,0,1-6.87543,21.06214c-1.31363,3.45624-2.75735,6.86175-4.235,10.25372-1.50641,3.37961-3.11255,6.71558-4.77823,10.02332a142.12519,142.12519,0,0,1-11.54483,18.99066,66.24737,66.24737,0,0,1-15.546,15.774,63.66209,63.66209,0,0,0,7.69372-7.877,100.22245,100.22245,0,0,0,6.57584-8.79507,186.1605,186.1605,0,0,0,11.04245-19.00424c3.36114-6.52451,6.42563-13.2064,9.35284-19.9534,1.45365-3.37793,2.882-6.76993,4.25992-10.18485C487.26913,359.4791,488.57971,356.03662,489.90332,352.5899Z" fill="#376f92"/><path d="M491.94589,373.669a19.1464,19.1464,0,0,1-.46667,6.00207,25.4977,25.4977,0,0,1-1.99158,5.71427,27.73187,27.73187,0,0,1-1.47333,2.6567,25.2499,25.2499,0,0,1-1.81482,2.43625,19.05628,19.05628,0,0,1-4.50882,3.99607c1.107-1.69288,2.26569-3.23743,3.24344-4.90961a52.94789,52.94789,0,0,0,2.754-5.05081A81.49416,81.49416,0,0,0,491.94589,373.669Z" fill="#376f92"/><path d="M486.81836,345.746a82.51373,82.51373,0,0,1-2.8165,9.44709c-1.08969,3.09869-2.33819,6.13821-3.69018,9.13519a89.64144,89.64144,0,0,1-4.55436,8.7583,44.53208,44.53208,0,0,1-5.8381,7.97378c1.6109-2.8753,3.04239-5.78714,4.46347-8.71283q2.111-4.39434,4.11044-8.84881l4.06885-8.89209C483.92584,351.6394,485.31619,348.67972,486.81836,345.746Z" fill="#376f92"/><path d="M456.96194,377.45981a20.53955,20.53955,0,0,0,1.03574-10.84061c-.73187-3.54095-2.29071-7.00308-3.47836-10.573l-.894-2.67678a18.76741,18.76741,0,0,1-.79446-2.81723,10.11515,10.11515,0,0,1,.93359-5.76194,19.47146,19.47146,0,0,0,1.83143-5.2593,17.60082,17.60082,0,0,0,.02691-5.50925,30.28256,30.28256,0,0,0-1.388-5.34021,16.39144,16.39144,0,0,0-2.516-4.72867,25.74618,25.74618,0,0,1-1.65713-2.41638,14.185,14.185,0,0,1-1.215-2.78308,18.3154,18.3154,0,0,1-.84164-5.89365,24.93889,24.93889,0,0,1,.8843-5.80047,42.975,42.975,0,0,1,1.79334-5.4715,25.81274,25.81274,0,0,1,2.78271-5.07306,19.80839,19.80839,0,0,1,3.98685-4.11545l.13745.1453a24.83831,24.83831,0,0,0-5.42935,9.58847,55.12335,55.12335,0,0,0-1.385,5.37362,25.526,25.526,0,0,0-.6373,5.37989,18.51075,18.51075,0,0,0,.70337,5.262,12.14719,12.14719,0,0,0,.95364,2.42511,24.103,24.103,0,0,0,1.46155,2.2955,16.34544,16.34544,0,0,1,2.49445,5.34451,26.23607,26.23607,0,0,1,.96142,5.70044,21.286,21.286,0,0,1-.4501,5.74744,27.17865,27.17865,0,0,1-1.90112,5.38242,8.73636,8.73636,0,0,0-.66587,2.631,8.36834,8.36834,0,0,0,.22531,2.64914c.50254,1.66055,1.45148,3.38952,2.1547,5.13049.72387,1.742,1.421,3.49689,2.02374,5.30509a29.67937,29.67937,0,0,1,1.42874,5.61184,16.39177,16.39177,0,0,1-.25961,5.8396,18.8836,18.8836,0,0,1-2.12454,5.33212Z" fill="#133852"/><path d="M429.50394,313.6236a14.30127,14.30127,0,0,0,6.19485-5.88111,12.97889,12.97889,0,0,0,1.14755-4.04284c.17542-1.44559.38852-2.953.49649-4.37186.05368-.72165.08259-1.43192.07764-2.18872a9.82929,9.82929,0,0,1,.21838-2.38065,13.1742,13.1742,0,0,1,1.93494-4.24386,18.37663,18.37663,0,0,1,3.0369-3.44178,19.369,19.369,0,0,1,3.74811-2.698,18.82937,18.82937,0,0,1,4.34289-1.69757,41.52793,41.52793,0,0,1,4.50244-.76981,20.08962,20.08962,0,0,0,7.95658-3.003c4.8627-3.12,8.87893-7.65482,12.97433-12.05893l.1611.1185a57.08177,57.08177,0,0,1-5.20413,7.4581,32.8073,32.8073,0,0,1-6.77792,6.27676,19.309,19.309,0,0,1-4.25083,2.09,21.765,21.765,0,0,1-4.60669.98282c-1.56433.17123-2.984.229-4.42608.47674a19.93271,19.93271,0,0,0-4.20365,1.11634,14.24485,14.24485,0,0,0-6.70733,5.50021,9.69384,9.69384,0,0,0-1.38242,4.07693,8.83963,8.83963,0,0,0,.07971,2.115,20.63519,20.63519,0,0,1,.19,2.31769,20.26593,20.26593,0,0,1-.11744,2.32318c-.078.74921-.154,1.50775-.29293,2.27384a12.55226,12.55226,0,0,1-1.53867,4.51642,12.11087,12.11087,0,0,1-7.48108,5.3219Z" fill="#133852"/><path d="M447.39294,284.492a8.05187,8.05187,0,0,1-.06872-4.8168,10.46635,10.46635,0,0,1,.97226-2.26974,6.756,6.756,0,0,1,1.62652-1.99558,17.18083,17.18083,0,0,1,4.226-2.48205,33.19651,33.19651,0,0,1,4.49792-1.5907,31.9033,31.9033,0,0,1,4.707-.8826,27.747,27.747,0,0,0,4.61414-.5921,17.97025,17.97025,0,0,0,2.183-.75064,13.34407,13.34407,0,0,0,2.02832-1.0885c1.34259-.80152,2.64948-1.671,3.9816-2.49421,1.32391-.83813,2.63879-1.693,3.97839-2.50341,1.3447-.80893,2.65613-1.6247,4.134-2.35584a9.7904,9.7904,0,0,1,2.44213-.86133,7.20854,7.20854,0,0,1,2.70746.00672,8.95814,8.95814,0,0,1,4.59378,2.48581,9.23921,9.23921,0,0,1,2.50068,4.54171,10.115,10.115,0,0,1-.24289,5.05988,14.97,14.97,0,0,1-.97617,2.25735,20.62419,20.62419,0,0,0-.90881,2.09714,13.8894,13.8894,0,0,0-.59961,2.18912,14.1359,14.1359,0,0,0-.18039,2.3002l-.19849.02448a10.85174,10.85174,0,0,1,.00574-4.79191c.32626-1.57058,1.02878-3.12646,1.32764-4.44992a9.123,9.123,0,0,0-.10956-4.22485,7.60784,7.60784,0,0,0-2.114-3.48242,7.51339,7.51339,0,0,0-3.51626-1.9646,5.88005,5.88005,0,0,0-3.94589.52209c-1.35309.59854-2.74167,1.368-4.14319,2.0514l-4.21945,2.05371c-1.39606.70382-2.80985,1.37475-4.17948,2.12838a19.1106,19.1106,0,0,1-2.1337,1.062c-.73806.28208-1.46856.59174-2.23632.8111-1.5232.48819-3.12058.71436-4.60852,1.0668a35.06188,35.06188,0,0,0-4.38907,1.37165c-2.85819,1.08038-5.88343,2.04235-8.25434,3.69326a6.08781,6.08781,0,0,0-1.45941,1.5004,12.1179,12.1179,0,0,0-1.11069,1.92133,8.737,8.737,0,0,0-.65454,2.12454,10.56823,10.56823,0,0,0-.08044,2.29153Z" fill="#133852"/><path d="M487.85552,412.56242s-1.91091,7.23424,0,13.12c0,0-2.67271,1.66331-11.1714,2.51981,0,0,8.29076-10.692,10.29872-15.63978Z" fill="#fd8b66"/><path d="M434.767,383.60037c-8.47945-5.26917-17.274-17.88829-17.6824-18.41777l.96569-2.279c.09691.1255,10.3121,13.13593,18.32223,18.11363Z" fill="#581d58"/><path d="M481.14316,326.0357s-11.13269.73-17.24654-4.92758c0,0,3.72182,8.26961,17.4193,10.06616Z" fill="#d04719"/><path d="M479.59619,312.604c-3.96289,0-6.90283-2.35742-7.79834-4.20459-.50879-1.04834-.18164-1.61718.0586-1.86279.29492-.30078.86962-.5581,1.93359-.07226a12.34655,12.34655,0,0,0,6.2334.85351.75006.75006,0,0,1,.23291,1.48193,13.70863,13.70863,0,0,1-7.05811-.95654,4.91978,4.91978,0,0,0,1,1.22119,8.03693,8.03693,0,0,0,6.31787,1.99024.74984.74984,0,1,1,.15918,1.49121A10.20582,10.20582,0,0,1,479.59619,312.604Z" fill="#490000"/><path d="M479.04593,288.67654c1.46847,2.86271,2.81805,5.77134,4.06686,8.74741l.94513,2.25644a9.71671,9.71671,0,0,1,.38657,1.21585,3.48839,3.48839,0,0,1,.01907,1.6398,2.38137,2.38137,0,0,1-1.21853,1.4769,2.75085,2.75085,0,0,1-1.60016.21811,3.39282,3.39282,0,0,1-2.2948-1.384l.11862-.161a4.611,4.611,0,0,0,2.175.13824,1.45445,1.45445,0,0,0,.70678-.333.512.512,0,0,0,.16416-.40429,11.18538,11.18538,0,0,0-.35211-1.83408c-.15158-.76251-.35355-1.53418-.55994-2.3006-.43042-1.53146-.89536-3.06225-1.37045-4.58972l-1.3718-4.61154Z" fill="#d04719"/><path d="M516.40723,291.08688l-1.37183,4.61155c-.4751,1.52749-.94,3.05825-1.37042,4.58975-.20642.76639-.40839,1.538-.55994,2.30057a11.17782,11.17782,0,0,0-.35211,1.83407.51184.51184,0,0,0,.16412.4043,1.45489,1.45489,0,0,0,.70679.333,4.61118,4.61118,0,0,0,2.175-.13828l.11865.161a3.39281,3.39281,0,0,1-2.2948,1.384,2.75082,2.75082,0,0,1-1.60016-.21811,2.38135,2.38135,0,0,1-1.21853-1.47689,3.48746,3.48746,0,0,1,.01907-1.6398,9.70974,9.70974,0,0,1,.38657-1.21586l.94509-2.25643c1.24884-2.97608,2.59839-5.88471,4.0669-8.74741Z" fill="#d04719"/><path d="M463.896,287.73a.75.75,0,0,1-.55713-1.252c.148-.16455,3.709-4.00537,10.41259-1.38233a.74988.74988,0,1,1-.54687,1.39649c-5.74512-2.24854-8.72119.95752-8.75049.98974A.74869.74869,0,0,1,463.896,287.73Z" fill="#490000"/><path d="M491.91064,287.09131a.74627.74627,0,0,1-.50683-.19727c-2.832-2.59472-6.54-.32226-6.57764-.29834a.75.75,0,1,1-.7959-1.27148c1.61866-1.01465,5.45557-2.22315,8.38721.46435a.75.75,0,0,1-.50684,1.30274Z" fill="#490000"/><path d="M478.40561,286.20311a1.59657,1.59657,0,0,0,0-3.19122,1.59657,1.59657,0,0,0,0,3.19122Z" fill="#d04719"/><path d="M465.32178,294.67822a2.7647,2.7647,0,0,1-.85254-.13525,2.494,2.494,0,0,1-.93164-.58789.74992.74992,0,1,1,1.06054-1.06055,1.0034,1.0034,0,0,0,.36915.23389,1.24315,1.24315,0,0,0,.50634.0376c.14307-.02588.20606-.085.4502-.41895a3.64172,3.64172,0,0,1,.90137-.93311,4.35351,4.35351,0,0,1,3.82226-.27148,5.51687,5.51687,0,0,1,1.82275.9502.75009.75009,0,1,1-.92675,1.17968,4.013,4.013,0,0,0-1.32715-.69287,2.911,2.911,0,0,0-2.54151.0708,2.261,2.261,0,0,0-.54.582,2.15083,2.15083,0,0,1-1.39356,1.00928A2.34717,2.34717,0,0,1,465.32178,294.67822Z" fill="#490000"/><path d="M484.67627,294.19531a.75.75,0,0,1-.59375-1.20752,5.53287,5.53287,0,0,1,1.52978-1.36963,4.35085,4.35085,0,0,1,3.77295-.68115,3.63282,3.63282,0,0,1,1.10352.68164c.31934.26319.39453.30957.53955.29444a1.224,1.224,0,0,0,.48242-.1626.97964.97964,0,0,0,.29981-.31787.75.75,0,1,1,1.28808.76855,2.50379,2.50379,0,0,1-.75634.79785,2.71563,2.71563,0,0,1-1.209.41016,2.13908,2.13908,0,0,1-1.59912-.63379,2.27653,2.27653,0,0,0-.66748-.43115,2.91487,2.91487,0,0,0-2.48.55908,4.02674,4.02674,0,0,0-1.11572.99951A.74838.74838,0,0,1,484.67627,294.19531Z" fill="#490000"/><path d="M504.53271,294.57324a2.73609,2.73609,0,0,1-1.126-.2583,2.49418,2.49418,0,0,1-.85254-.69824.74982.74982,0,1,1,1.18359-.9209.993.993,0,0,0,.33692.27637,1.253,1.253,0,0,0,.498.09961c.14551-.00782.21534-.0586.49854-.35987a3.63644,3.63644,0,0,1,1.00928-.81494,4.34629,4.34629,0,0,1,3.82763.20069,5.50136,5.50136,0,0,1,1.69092,1.1665.74992.74992,0,1,1-1.06445,1.05664,4.0234,4.0234,0,0,0-1.23194-.85107,2.91218,2.91218,0,0,0-2.53076-.2417,2.267,2.267,0,0,0-.60791.51172,2.15476,2.15476,0,0,1-1.50683.83007C504.61523,294.57178,504.57373,294.57324,504.53271,294.57324Z" fill="#490000"/><path d="M530.124,296.4707c-.03808,0-.07666-.001-.11523-.00293a2.15322,2.15322,0,0,1-1.50928-.82568,2.26062,2.26062,0,0,0-.60986-.50977,2.906,2.906,0,0,0-2.52979.24952,4.03121,4.03121,0,0,0-1.23.85449.74993.74993,0,0,1-1.06738-1.05371,5.51906,5.51906,0,0,1,1.6875-1.17139,4.34311,4.34311,0,0,1,3.82715-.21191,3.63992,3.63992,0,0,1,1.01172.812c.28418.30029.35449.35058.49951.3584a1.08533,1.08533,0,0,0,.50439-.105.99279.99279,0,0,0,.32959-.27491.75.75,0,0,1,1.18555.91895,2.50346,2.50346,0,0,1-.84961.70019A2.74675,2.74675,0,0,1,530.124,296.4707Z" fill="#490000"/><path d="M530.96652,322.61377c-10.608,5.1329-18.90306,3.287-18.90306,3.287l.00167.00618c3.36716,2.45473,1.51807,4.23508,1.51807,4.23508l.0039.017C526.70488,331.64016,530.96652,322.61377,530.96652,322.61377Z" fill="#d04719"/><path d="M567.92347,354.9382c-5.20141-11.61322-25.27686-16.12729-25.27686-16.12729C535.1641,343.921,524.214,357.97374,524.214,357.97374c-15.14788.1825-11.86277-20.44035-11.86277-20.44035s-13.09458.50187-16.28834,1.095c-3.17947.59042-3.60406,4.09734-3.60777,4.129.29388.69875.60355,1.38747.91582,2.0761,1.7583,3.87863,2.69046,4.139,3.64991,6.75262,1.60849,4.38152,1.10091,9.402.10582,10.77346,2.13165,10.61181,1.64469,24.044-5.14794,40.0487l-.06776,8.49134,53.83826,5.67862,7.11771-24.54836,4.92757,14.093,18.6153-17.48858S573.12469,366.55136,567.92347,354.9382Z" fill="#e6560f"/><path d="M512.063,400.49854a.49979.49979,0,0,1-.44678-.72413c.95557-1.90673,23.5249-46.76318,34.74219-52.01709a.49979.49979,0,0,1,.42383.90528c-10.90479,5.10791-34.03907,51.09619-34.27149,51.56006A.50048.50048,0,0,1,512.063,400.49854Z"/><path d="M500.03271,434.12109a.5.5,0,0,1-.31982-.88476c.332-.27539,33.27832-27.99658,42.86572-69.94434a.49986.49986,0,0,1,.97461.22266c-9.66455,42.28711-42.86767,70.21435-43.20166,70.49121A.49673.49673,0,0,1,500.03271,434.12109Z"/><path d="M501.83691,421.376a.5.5,0,0,1-.37841-.82715l16.53711-19.125a.50022.50022,0,0,1,.75683.65429l-16.53711,19.125A.49945.49945,0,0,1,501.83691,421.376Z"/><path d="M500.03223,402.251a.49965.49965,0,0,1-.46631-.68116c.16553-.42578,4.11963-10.47656,10.24707-14.89257a.50019.50019,0,0,1,.585.81152c-5.89014,4.24414-9.86035,14.3418-9.89941,14.44336A.5007.5007,0,0,1,500.03223,402.251Z"/><path d="M544.37431,416.43322l-1.30824,5.96411s-4.51857,3.81833-17.54829,4.64671l8.6426-11.77167Z" fill="#fd8b66"/><path d="M562.26536,457.16417c-5.01835-11.49769-19.19917-34.76686-19.19917-34.76686l-.00019,0c-.00056.00056-4.51951,3.81834-17.54817,4.64668l.09616-.13107c-9.76379,11.85186-21.33231,21.068-34.54812,23.70763l7.18528,55.8194H568.471S567.2839,468.66187,562.26536,457.16417Z" fill="#e6560f"/><polygon points="520.451 428.796 524.888 487.803 517.466 429.096 520.451 428.796" fill="#c1440e"/><polygon points="523.734 426.346 534.319 465.662 520.867 427.232 523.734 426.346" fill="#c1440e"/><polygon points="517.03 431.919 511.098 493.85 514.038 431.706 517.03 431.919" fill="#c1440e"/><polygon points="552.867 392.03 550.5 384.668 547.276 411.313 552.867 392.03" fill="#c1440e"/><path d="M568.47021,388.72168a1,1,0,0,1-.88183-1.46973l3.01123-5.65771a1,1,0,1,1,1.76562.93945l-3.01123,5.65772A.99964.99964,0,0,1,568.47021,388.72168Z"/><path d="M559.37354,391.73291a1.00035,1.00035,0,0,1-.93946-.65771l-2.1958-6.02149a1,1,0,0,1,1.87891-.68555l2.1958,6.02149a1.00115,1.00115,0,0,1-.93945,1.34326Z"/><path d="M544.16357,415.209a1.00012,1.00012,0,0,1-.93945-.6582l-2.19531-6.02148a.99986.99986,0,1,1,1.8789-.68457l2.19532,6.02148a1.0014,1.0014,0,0,1-.93946,1.34277Z"/><path d="M500.68018,380.377a1.01239,1.01239,0,0,1-.24561-.03027,1.00072,1.00072,0,0,1-.7251-1.21436l1.5669-6.21435a1.00011,1.00011,0,1,1,1.93945.48926l-1.56689,6.21435A1.00022,1.00022,0,0,1,500.68018,380.377Z"/><path d="M512.773,366.999a1,1,0,0,1-.80908-1.58642l3.75781-5.1919a1,1,0,0,1,1.62012,1.17285l-3.75782,5.1919A.99858.99858,0,0,1,512.773,366.999Z"/><path d="M506.398,366.35352l-.03711-.00049a1.0005,1.0005,0,0,1-.96289-1.03614l.23535-6.40478a1.00018,1.00018,0,0,1,1.999.07324l-.23535,6.40479A1.00023,1.00023,0,0,1,506.398,366.35352Z"/><path d="M502.36816,352.58057a1,1,0,0,1-.82031-1.57032l3.65576-5.26416a.99989.99989,0,0,1,1.64258,1.14063l-3.65576,5.26416A.99846.99846,0,0,1,502.36816,352.58057Z"/><path d="M495.65039,344.17041a.99992.99992,0,0,1-.17676-1.98389l6.30713-1.13867a.99981.99981,0,1,1,.35547,1.96777l-6.30713,1.13868A.973.973,0,0,1,495.65039,344.17041Z"/><path d="M560.377,373.86865a1,1,0,0,1-.88183-1.46972l3.01123-5.65723a1,1,0,1,1,1.76562.93945l-3.01123,5.65723A.99965.99965,0,0,1,560.377,373.86865Z"/><path d="M558.86561,405.11657s3.58268,19.4708,14.66974,18.51266,15.83214-5.56183,21.85475-15.44207S617.29047,370.04,617.29047,370.04l6.66136-4.76613s4.01507-3.74132,4.28882-6.47886c0,0,4.74508-.73,1.18627-4.56258,0,0,3.74132-3.28506-.91251-5.01884,0,0,14.60024-7.75638,13.32272-10.95018s-16.334,6.93512-16.334,6.93512,8.76014-14.0528,5.29258-15.05654-14.23524,18.34159-14.23524,18.34159-6.11385,1.55128-9.67266,9.39891-25.1398,27.35639-28.97237,36.83327l-2.47-5.17554Z" fill="#fd8b66"/><path d="M625.2749,359.044c-1.30957,0-6.50976-1.78711-7.19531-4.90918l.97656-.21485c.5376,2.44776,5.07764,4.0835,6.1792,4.12305-.05957-.79736-1.93359-3.876-3.19385-5.94629-2.58593-4.249-5.17187-3.20166-5.27929-3.15576l-.40723-.91309c.14014-.063,3.47266-1.49267,6.541,3.54932,2.9331,4.81885,3.66406,6.23681,3.21777,7.03027A.89515.89515,0,0,1,625.2749,359.044Z" fill="#d04719"/><path d="M621.66162,361.54932a3.43837,3.43837,0,0,1-.604-.04932,1.69873,1.69873,0,0,1-1.46631-1.019c-.32764-.958.59863-2.05371.7876-2.26367l.74316.66894c-.30664.34082-.69092.96045-.58447,1.27148.07373.21534.46826.3169.69726.35791,1.72559.31446,5.46973-1.45361,6.7666-2.15966l.47852.87793C628.293,359.33594,624.2002,361.54932,621.66162,361.54932Z" fill="#d04719"/><path d="M619.6875,359.21a3.05676,3.05676,0,0,1-2.94775-1.97412c-.35352-.83447.208-1.81738,1.71582-3.0083l.62011.78516c-1.21093.95605-1.52539,1.57275-1.416,1.83056a2.26479,2.26479,0,0,0,2.94092,1.23145l.14648.46679.37549.34424-.10108.10791-.13086.03809A4.29493,4.29493,0,0,1,619.6875,359.21Z" fill="#d04719"/><path d="M622.89453,352.563l-.48633-.874c2.88477-1.60449,5.876-2.92041,5.90576-2.93359l.40137.916C628.686,349.68408,625.73682,350.98193,622.89453,352.563Z" fill="#d04719"/><rect x="624.74781" y="354.62601" width="4.84959" height="0.99993" transform="translate(-86.69523 255.86544) rotate(-21.60398)" fill="#d04719"/><path d="M577.91542,394.71576a14.67041,14.67041,0,0,0-1.50562,11.2563s-5.0768-5.35133-.96433-16.43184Z" fill="#d04719"/><path d="M511.16455,286.71a.74839.74839,0,0,1-.44873-.14941,4.53732,4.53732,0,0,0-5.39209-.0044.75.75,0,0,1-.9126-1.19043,6.01322,6.01322,0,0,1,7.20313-.00634.75.75,0,0,1-.44971,1.35058Z" fill="#490000"/><path d="M529.62988,289.46387a.74833.74833,0,0,1-.44873-.14942,4.53786,4.53786,0,0,0-5.39209-.00439.75.75,0,0,1-.9126-1.19043,6.01172,6.01172,0,0,1,7.20313-.00635.75.75,0,0,1-.44971,1.35059Z" fill="#490000"/><path d="M514.54123,313.33933a6.23553,6.23553,0,0,0,.95814-1.56035,2.02281,2.02281,0,0,1,2.41816-1.04939s-.1825-1.96191,1.64253-2.14441a5.58049,5.58049,0,0,0,2.46379-.63876S520.65508,314.7628,514.54123,313.33933Z" fill="#d04719"/><path d="M516.86814,287.48192c1.4679,0,1.92659-3.42193.45626-3.42193-1.4679,0-1.92659,3.42193-.45626,3.42193Z" fill="#d04719"/><rect x="272.52539" y="505.43994" width="344.03516" height="2" fill="#133852"/><path d="M362.04153,197.11035h-5.31872c0-4.3121-4.0737-5.88954-4.11473-5.90512l1.86778-4.98006C354.78491,186.341,362.04153,189.1541,362.04153,197.11035Z" fill="#376f92"/><path d="M211.13443,346.3351h-5.31872c0-4.31211-4.07318-5.889-4.11473-5.9046l1.86778-4.98007C203.87729,335.56574,211.13443,338.37884,211.13443,346.3351Z" fill="#ffb957"/><path d="M661.54263,293.71546h-5.31872c0-4.23212-3.96618-5.84643-4.13551-5.914l1.88856-4.97175C654.28549,282.94506,661.54263,285.75816,661.54263,293.71546Z" fill="#ffb957"/><path d="M225.33014,277.63776l-5.12862-1.40915c.08571-.31268,2.1571-7.66851,8.13753-8.69693l.90169,5.24184C227.06028,273.14853,225.65165,276.49506,225.33014,277.63776Z" fill="#e6560f"/><path d="M340.64253,233.36072a12.56275,12.56275,0,0,1-7.34907-8.99819l5.24184-.90013a7.17541,7.17541,0,0,0,4.15265,4.98889Z" fill="#e6560f"/><path d="M345.21434,107.31445c-2.38251-3.28888-5.34416-2.27655-5.91447-2.03919l-2.14463-4.86735a10.18792,10.18792,0,0,1,12.36705,3.787Z" fill="#e6560f"/><path d="M385.96588,124.28032l-4.92553-2.00646c.53291-1.3115,3.43223-7.80408,8.24609-6.9055l-.9796,5.2273a.484.484,0,0,0,.21659-.00468C387.91053,120.8029,386.6437,122.63069,385.96588,124.28032Z" fill="#ffb957"/><path d="M433.67745,113.11258l-5.07979-1.57588c.47837-1.54212,3.146-9.27814,8.7042-10.13568l.81131,5.25638C436.46769,106.91139,434.44565,110.63553,433.67745,113.11258Z" fill="#e6560f"/><path d="M495.35428,246.36456l-.68146-5.27509.34073,2.63755-.34281-2.637c3.49353-.45759,13.35289-2.75492,16.9773-7.8238l4.32561,3.09358C510.256,244.35654,495.95991,246.28613,495.35428,246.36456Z" fill="#376f92"/><path d="M253.35484,312.96224l-.68146-5.27508c3.4956-.45812,13.35184-2.756,16.97522-7.82329l4.32665,3.09358C268.25711,310.95422,253.96047,312.88433,253.35484,312.96224Zm-.34073-2.63754-.34281-2.63754h.00208Z" fill="#376f92"/><path d="M531.75216,165.24689c-1.39824-3.84724-6.70657-3.0645-6.932-3.02918l-.86118-5.24807c3.40834-.56927,10.46291.0535,12.79193,6.45933Z" fill="#ffb957"/><path d="M549.40884,218.41482l-4.764-2.36486c.8726-1.75974,4.05967-7.50125,8.47046-7.50125v5.31871C552.3414,213.9874,550.49439,216.24059,549.40884,218.41482Z" fill="#e6560f"/><path d="M539.162,128.55139a10.593,10.593,0,0,1-9.796-7.07067l5.02577-1.74105-2.51289.87053,2.50458-.89338a5.26045,5.26045,0,0,0,5.51816,3.47119l.615,5.28339A11.77549,11.77549,0,0,1,539.162,128.55139Z" fill="#376f92"/><path d="M604.09774,160.676c-.90585-4.03838-7.57917-3.23486-7.64462-3.22707l-.70015-5.27249c3.99423-.53862,11.95672.30593,13.53467,7.335Z" fill="#ffb957"/><path d="M647.45152,197.34509l-1.7774-5.01279c1.24657-.44876,4.91669-2.25889,5.407-4.60817l5.20652,1.08556C655.10341,194.492,648.23167,197.0698,647.45152,197.34509Z" fill="#e6560f"/><path d="M416.1527,291.851l-5.07408-1.59458c.25867-.82689,2.69832-8.10117,8.69641-8.83613l.64718,5.27924C418.35965,286.952,416.655,290.27928,416.1527,291.851Z" fill="#e6560f"/><path d="M430.78,153.0525c-7.43892-6.73046-24.32169-7.70174-24.491-7.71109l.05609-1.06167c.70847.0374,17.4323,1.00245,25.14859,7.98327Z" fill="#ffb957"/><path d="M444.57746,167.91062c-20.73468-10.90336-51.311-2.23967-51.6175-2.1493l-.2971-1.02219c.31164-.08934,31.29523-8.87352,52.40907,2.23033Z" fill="#ffb957"/><path d="M450.87889,168.76764c-16.622-13.40586-44.26791-13.01734-44.55151-13.02254l-.02077-1.06374c.28255.00208,28.31176-.39267,45.2392,13.25731Z" fill="#376f92"/><path d="M441.48492,172.11366c-3.855-1.928-18.04416-1.77222-18.18855-1.7691l-.01247-1.06374c.5942-.00728,14.59322-.15894,18.67679,1.88128Z" fill="#e6560f"/><path d="M396.05977,180.36286l-.29087-1.02427c.33554-.09661,33.80085-9.45215,55.60446-2.55028l-.322,1.01388C429.5604,170.99278,396.39115,180.26833,396.05977,180.36286Z" fill="#ffb957"/><path d="M399.86805,189.04836l-.60666-.87468a57.76016,57.76016,0,0,1,29.78168-8.86522c.33554,0,.67107.00312,1.01077.01039l-.02286,1.06374C413.04538,180.03355,399.99894,188.958,399.86805,189.04836Z" fill="#376f92"/><path d="M405.74461,197.23212l-.68146-.81651c.187-.15582,18.78586-15.45648,39.40108-15.45648.12154,0,.24308.001.36462.00208l-.00935,1.06375c-.11738-.001-.23789-.00208-.35631-.00208C424.23961,182.02288,405.92848,197.07941,405.74461,197.23212Z" fill="#ffb957"/><path d="M405.77993,203.76936l-.7521-.7521c.402-.402,9.929-9.79288,14.81553-9.64537l-.04155,1.06375c-.03948-.00208-.081-.00312-.12155-.00312C415.17182,194.43252,405.87446,203.67483,405.77993,203.76936Z" fill="#e6560f"/><path d="M414.47062,208.7141l-.97648-.42176c.06441-.14959,6.71592-15.09289,28.01259-24.55335l.43215.97233C421.0463,193.99206,414.534,208.56867,414.47062,208.7141Z" fill="#376f92"/><path d="M452.19922,165.6751c-4.23524-8.29387-14.58388-12.48132-14.68776-12.52287l.39267-.989c.43942.17452,10.8213,4.37132,15.24248,13.02774Z" fill="#e6560f"/><path d="M443.173,151.87969c-5.27717-7.10236-15.4409-11.83207-15.5427-11.87881l.44461-.9661c.42591.19634,10.50966,4.88657,15.952,12.21123Z" fill="#376f92"/><path d="M453.62551,159.20538c-6.62139-20.93932-18.1283-30.86412-18.24361-30.96177l.68769-.81235c.11739.09972,11.84869,10.20009,18.5698,31.45417Z" fill="#ffb957"/><rect x="450.31589" y="122.77709" width="1.06367" height="23.23673" transform="translate(-19.60281 132.94575) rotate(-16.4225)" fill="#e6560f"/><rect x="457.06813" y="134.39545" width="1.06374" height="24.64996" fill="#ffb957"/><path d="M461.95989,145.61669l-1.05335-.15374c.106-.722,2.65-17.75952,8.8943-24.55543l.78326.71886C464.56211,128.18128,461.98482,145.44321,461.95989,145.61669Z" fill="#376f92"/><path d="M461.95158,157.52043l-1.03673-.23477c.04986-.22023,5.15042-22.10175,20.30564-31.84165l.57551.89546C467.00228,135.84667,462.0004,157.30436,461.95158,157.52043Z" fill="#ffb957"/><rect x="479.8429" y="127.1231" width="13.1859" height="1.06404" transform="translate(37.91208 355.12401) rotate(-41.59638)" fill="#e6560f"/><path d="M469.92654,152.9185l-.92662-.52149c.30125-.535,7.45035-13.13161,14.25249-16.99184l.52564.92455C477.2325,140.04451,469.99925,152.79072,469.92654,152.9185Z" fill="#376f92"/><path d="M473.69534,153.921l-.79988-.70224c.11738-.134,11.90582-13.47754,25.17352-19.83818l.45915.95986C485.46092,140.60443,473.81169,153.788,473.69534,153.921Z" fill="#ffb957"/><path d="M463.10674,168.70739l-.79365-.70847c.13608-.1527,13.89929-15.35155,39.65351-23.69425l.32826,1.0118C476.83048,153.56464,463.24075,168.55676,463.10674,168.70739Z" fill="#e6560f"/><rect x="446.25494" y="186.34487" width="11.55821" height="1.0637" transform="translate(113.70434 540.134) rotate(-68.69734)" fill="#e6560f"/><path d="M411.54118,226.52972l-.95779-.46331c.1392-.28879,14.13095-29.0005,30.33537-37.92182l.51318.93286C425.52566,197.83359,411.67934,226.243,411.54118,226.52972Z" fill="#ffb957"/><rect x="425.48223" y="200.66992" width="19.52302" height="1.06404" transform="translate(-4.17227 393.12092) rotate(-48.40362)" fill="#376f92"/><rect x="421.04603" y="218.46612" width="19.27049" height="1.06338" transform="translate(34.07537 494.951) rotate(-61.78264)" fill="#e6560f"/><rect x="434.4278" y="202.1321" width="13.6769" height="1.06289" transform="translate(38.7163 474.21824) rotate(-58.67131)" fill="#ffb957"/><path d="M442.2474,223.37277l-1.04919-.17244c.12777-.77288,3.16525-18.98221,6.84992-23.956l.8539.63368C445.37007,204.64611,442.27857,223.18682,442.2474,223.37277Z" fill="#e6560f"/><path d="M449.45052,233.90736c-4.951-11.001.99518-31.96527,1.25073-32.85242l1.02219.295c-.06129.213-6.09367,21.47535-1.30267,32.12109Z" fill="#ffb957"/><path d="M460.05159,233.94164c-8.92962-16.58463-3.03333-46.866-2.97307-47.16932l1.043.20777c-.05921.30021-5.88071,30.21071,2.86712,46.45668Z" fill="#376f92"/><path d="M525.88835,201.61694c-24.04225-19.378-61.36675-21.21876-61.74072-21.23435l.04571-1.06374c.37812.01662,38.05166,1.87506,62.36193,21.46912Z" fill="#ffb957"/><path d="M464.46654,173.17428l-.59212-.883c.18283-.12362,18.70276-12.312,44.85276-11.04049l-.05194,1.06167C482.9148,161.04824,464.64834,173.05274,464.46654,173.17428Z" fill="#376f92"/><path d="M518.05987,176.995c-11.215-8.189-31.39808-7.574-31.60584-7.56255l-.0374-1.06374c.83832-.03013,20.75857-.63991,32.27068,7.76823Z" fill="#e6560f"/><path d="M490.49189,177.07917c-14.29717-3.934-28.79793-.75833-28.94233-.72405l-.23269-1.03881c.14647-.0322,14.89759-3.265,29.45757.73652Z" fill="#ffb957"/><path d="M500.48629,210.6681c-17.051-16.19922-33.57231-21.4982-33.73748-21.5491l.31788-1.016c.16725.053,16.92431,5.42675,34.153,21.79427Z" fill="#ffb957"/><rect x="467.0147" y="185.56474" width="1.06383" height="13.93973" transform="matrix(0.72003, -0.69395, 0.69395, 0.72003, -2.70841, 378.35609)" fill="#e6560f"/><path d="M465.37239,210.80938c-4.58843-6.79071-5.352-15.93121-5.38209-16.31661l1.05959-.0831c.00727.09141.776,9.25061,5.20341,15.80343Z" fill="#ffb957"/><rect x="467.74499" y="196.34339" width="1.06382" height="15.14904" transform="translate(-35.76307 286.43749) rotate(-32.82918)" fill="#376f92"/><rect x="481.06769" y="202.14056" width="1.0629" height="24.40675" transform="translate(-17.16528 384.97543) rotate(-42.87852)" fill="#ffb957"/><path d="M484.78673,190.90679c-3.83944-3.75218-15.26637-5.03927-15.38168-5.05174l.11635-1.05751c.48409.053,11.91,1.34215,16.00912,5.34884Z" fill="#376f92"/><path d="M504.04526,197.93747c-5.78826-5.52024-16.42569-9.88533-16.53268-9.929l.401-.98479c.44357.17971,10.93037,4.48247,16.8651,10.145Z" fill="#e6560f"/><path d="M482.7008,160.5922l-.561-.90377c.536-.33242,13.21888-8.12039,21.3642-6.64216l-.19114,1.04712C495.57791,152.68269,482.82961,160.51221,482.7008,160.5922Z" fill="#ffb957"/><path d="M509.21231,185.81142c-9.12492-4.11577-20.53107-5.42986-20.64534-5.44233l.11842-1.05751c.11531.0135,11.68767,1.3463,20.96426,5.52959Z" fill="#376f92"/><path d="M352.59113,172.62033a1.14477,1.14477,0,0,0,0-2.28817,1.14477,1.14477,0,0,0,0,2.28817Z" fill="#e6560f"/><path d="M364.36835,134.34437a1.14477,1.14477,0,0,0,0-2.28817,1.14477,1.14477,0,0,0,0,2.28817Z" fill="#e6560f"/><rect x="336.94841" y="125.77492" width="0.76289" height="11.90618" transform="translate(-21.48341 180.6845) rotate(-29.10021)" fill="#e6560f"/><rect x="328.65523" y="138.86958" width="0.76263" height="12.51047" transform="translate(81.42096 405.91743) rotate(-70.28502)" fill="#e6560f"/><rect x="324.29692" y="158.09077" width="10.75555" height="0.76265" transform="translate(-35.86644 171.83195) rotate(-27.76636)" fill="#ffb957"/><rect x="329.88611" y="160.29937" width="10.27465" height="0.76239" transform="translate(-18.68643 274.47106) rotate(-43.45612)" fill="#e6560f"/><rect x="335.32904" y="133.35006" width="0.76266" height="10.20188" transform="translate(1.38231 280.20741) rotate(-45.38898)" fill="#376f92"/><rect x="345.73247" y="127.48686" width="0.76272" height="11.30751" fill="#ffb957"/><rect x="346.125" y="159.50259" width="0.76272" height="11.28666" fill="#ffb957"/><rect x="346.74687" y="133.65323" width="8.54764" height="0.7624" transform="translate(97.41177 411.27669) rotate(-68.44806)" fill="#e6560f"/><rect x="326.58321" y="149.30713" width="9.71615" height="0.76272" fill="#ffb957"/><rect x="331.0347" y="152.60344" width="7.97747" height="0.76237" transform="translate(-32.47929 128.76186) rotate(-20.77225)" fill="#376f92"/><rect x="338.37004" y="152.88919" width="3.71006" height="0.76291" transform="translate(-23.05424 238.55331) rotate(-37.46286)" fill="#e6560f"/><rect x="335.52518" y="140.34019" width="0.76292" height="6.47779" transform="translate(49.42408 370.24174) rotate(-61.49444)" fill="#ffb957"/><rect x="342.93522" y="135.03107" width="0.76268" height="8.31204" transform="translate(-27.09969 144.76491) rotate(-22.93128)" fill="#ffb957"/><rect x="342.64078" y="141.18903" width="0.76275" height="5.31974" transform="translate(-26.06992 189.97634) rotate(-29.87473)" fill="#e6560f"/><rect x="348.72581" y="156.98035" width="0.76273" height="7.79296" transform="translate(-31.63285 108.01655) rotate(-16.8372)" fill="#e6560f"/><rect x="337.55334" y="166.1385" width="8.92581" height="0.76295" transform="matrix(0.29093, -0.95674, 0.95674, 0.29093, 83.19684, 445.29683)" fill="#376f92"/><rect x="353.13698" y="138.85483" width="7.25072" height="0.76248" transform="translate(-7.10961 258.66493) rotate(-39.49025)" fill="#e6560f"/><rect x="355.93156" y="141.38192" width="9.41466" height="0.76282" transform="translate(-25.47174 174.56323) rotate(-26.31485)" fill="#376f92"/><rect x="362.29407" y="147.84061" width="0.76248" height="12.43022" transform="translate(104.43282 451.67521) rotate(-72.06665)" fill="#376f92"/><rect x="354.61419" y="159.26372" width="0.76276" height="11.37187" transform="translate(-36.45024 165.6014) rotate(-25.01746)" fill="#ffb957"/><rect x="356.3811" y="154.6617" width="0.76248" height="10.07432" transform="translate(-14.72629 281.26897) rotate(-42.23565)" fill="#376f92"/><rect x="357.3877" y="149.01288" width="6.99324" height="0.76244" transform="translate(-11.27551 30.84812) rotate(-4.81942)" fill="#e6560f"/><rect x="349.1244" y="140.37586" width="4.57801" height="0.76274" transform="translate(49.87604 369.62225) rotate(-59.02665)" fill="#ffb957"/><rect x="345.4683" y="143.57793" width="4.43133" height="0.76278" transform="matrix(0.1328, -0.99114, 0.99114, 0.1328, 158.82619, 469.44537)" fill="#376f92"/><rect x="338.48102" y="159.7101" width="4.6657" height="0.76297" transform="translate(63.55641 414.86935) rotate(-67.74156)" fill="#ffb957"/><rect x="339.25492" y="146.53998" width="0.76271" height="3.64724" transform="translate(66.80354 399.21586) rotate(-66.19374)" fill="#ffb957"/><rect x="342.72953" y="156.20152" width="3.82384" height="0.76292" transform="translate(136.76906 472.94516) rotate(-81.12625)" fill="#ffb957"/><rect x="349.83155" y="145.72487" width="3.55626" height="0.76258" transform="translate(-12.80687 256.45538) rotate(-39.41147)" fill="#ffb957"/><rect x="354.92374" y="146.31389" width="4.11889" height="0.7625" transform="translate(-25.95372 98.57249) rotate(-15.17658)" fill="#ffb957"/><rect x="355.00685" y="152.25969" width="0.76288" height="5.01509" transform="translate(19.08334 347.51762) rotate(-53.35135)" fill="#e6560f"/><rect x="348.92217" y="152.73826" width="0.76256" height="3.7723" transform="translate(-30.773 192.88008) rotate(-29.62491)" fill="#376f92"/><rect x="351.81714" y="149.01195" width="0.76305" height="2.72695" transform="translate(44.86056 378.84853) rotate(-59.74751)" fill="#376f92"/><path d="M360.05,159.27281a1.14477,1.14477,0,0,0,0-2.28816,1.14477,1.14477,0,0,0,0,2.28816Z" fill="#376f92"/><path d="M240.07738,253.47924a1.83713,1.83713,0,0,0,0-3.67205,1.83713,1.83713,0,0,0,0,3.67205Z" fill="#e6560f"/><path d="M258.97741,192.05412a1.83712,1.83712,0,0,0,0-3.672,1.83712,1.83712,0,0,0,0,3.672Z" fill="#e6560f"/><rect x="214.97401" y="178.30191" width="1.22428" height="19.107" transform="translate(-64.14799 128.56077) rotate(-29.10021)" fill="#e6560f"/><rect x="201.66515" y="199.31617" width="1.22387" height="20.07676" transform="translate(-63.04203 329.15069) rotate(-70.28502)" fill="#e6560f"/><rect x="194.67094" y="230.16226" width="17.26047" height="1.22389" transform="translate(-84.10095 121.28392) rotate(-27.76636)" fill="#ffb957"/><rect x="203.64046" y="233.70661" width="16.48872" height="1.22348" transform="translate(-103.08655 209.96048) rotate(-43.45612)" fill="#e6560f"/><rect x="212.37525" y="190.45846" width="1.22391" height="16.37194" transform="translate(-78.00475 210.76209) rotate(-45.38898)" fill="#376f92"/><rect x="229.07063" y="181.04922" width="1.22401" height="18.14625" fill="#ffb957"/><rect x="229.70056" y="232.42794" width="1.22401" height="18.11279" fill="#ffb957"/><rect x="230.69854" y="190.94499" width="13.71722" height="1.22349" transform="translate(-27.8722 342.13776) rotate(-68.44806)" fill="#e6560f"/><rect x="198.33997" y="216.06631" width="15.59244" height="1.22401" fill="#ffb957"/><rect x="205.48371" y="221.35621" width="12.80221" height="1.22346" transform="translate(-64.94883 89.57431) rotate(-20.77225)" fill="#376f92"/><rect x="217.25543" y="221.81478" width="5.9539" height="1.22432" transform="translate(-89.86711 179.83175) rotate(-37.46286)" fill="#e6560f"/><rect x="212.69001" y="201.67619" width="1.22433" height="10.39553" transform="translate(-70.28981 295.58829) rotate(-61.49444)" fill="#ffb957"/><rect x="224.58161" y="193.15615" width="1.22394" height="13.33912" transform="translate(-60.06104 103.53313) rotate(-22.93128)" fill="#ffb957"/><rect x="224.10911" y="203.03841" width="1.22405" height="8.5371" transform="translate(-73.39898 139.48249) rotate(-29.87473)" fill="#e6560f"/><rect x="233.87434" y="228.38026" width="1.22403" height="12.50612" transform="translate(-57.91026 77.97807) rotate(-16.8372)" fill="#e6560f"/><rect x="215.94479" y="243.07722" width="14.3241" height="1.22438" transform="translate(-74.94988 386.24953) rotate(-73.08645)" fill="#376f92"/><rect x="240.95336" y="199.29249" width="11.63593" height="1.22362" transform="translate(-70.79872 202.56505) rotate(-39.49025)" fill="#e6560f"/><rect x="245.4381" y="203.34796" width="15.10861" height="1.22417" transform="translate(-64.199 133.2885) rotate(-26.31485)" fill="#376f92"/><rect x="255.64861" y="213.71284" width="1.22362" height="19.94796" transform="translate(-35.4639 398.62142) rotate(-72.06665)" fill="#376f92"/><rect x="243.32397" y="232.0446" width="1.22407" height="18.24954" transform="translate(-79.10285 125.78594) rotate(-25.01746)" fill="#ffb957"/><rect x="246.15951" y="224.6593" width="1.22362" height="16.16723" transform="translate(-92.38029 226.29828) rotate(-42.23565)" fill="#376f92"/><rect x="247.7749" y="215.59409" width="11.22273" height="1.22356" transform="translate(-17.26881 22.05282) rotate(-4.81942)" fill="#e6560f"/><rect x="234.51399" y="201.73344" width="7.34678" height="1.22404" transform="translate(-57.88558 302.43399) rotate(-59.02665)" fill="#ffb957"/><rect x="228.64669" y="206.87212" width="7.11138" height="1.2241" transform="translate(-4.28122 410.07521) rotate(-82.36838)" fill="#376f92"/><rect x="217.43354" y="232.76094" width="7.4875" height="1.22441" transform="translate(-78.58462 349.67113) rotate(-67.74156)" fill="#ffb957"/><rect x="218.67548" y="211.6256" width="1.22399" height="5.85307" transform="translate(-65.52396 328.57872) rotate(-66.19374)" fill="#ffb957"/><rect x="224.25153" y="227.1304" width="6.13648" height="1.22432" transform="matrix(0.15426, -0.98803, 0.98803, 0.15426, -32.76269, 417.21041)" fill="#ffb957"/><rect x="235.64882" y="210.3175" width="5.70707" height="1.22378" transform="translate(-79.68206 199.3856) rotate(-39.41147)" fill="#ffb957"/><rect x="243.82075" y="211.26277" width="6.60998" height="1.22366" transform="translate(-46.84878 72.08562) rotate(-15.17658)" fill="#ffb957"/><rect x="243.95411" y="220.80456" width="1.22426" height="8.04819" transform="translate(-81.79938 286.8452) rotate(-53.35135)" fill="#e6560f"/><rect x="234.18944" y="221.57256" width="1.22376" height="6.05377" transform="translate(-80.33075 145.42655) rotate(-29.62491)" fill="#376f92"/><rect x="238.83529" y="215.59261" width="1.22454" height="4.3762" transform="translate(-69.31083 314.89831) rotate(-59.74751)" fill="#376f92"/><path d="M252.0474,232.0592a1.83713,1.83713,0,0,0,0-3.67205,1.83713,1.83713,0,0,0,0,3.67205Z" fill="#376f92"/><path d="M615.302,278.6688a1.849,1.849,0,0,0,0-3.69585,1.849,1.849,0,0,0,0,3.69585Z" fill="#e6560f"/><path d="M634.3246,216.84533a1.849,1.849,0,0,0,0-3.69586,1.849,1.849,0,0,0,0,3.69586Z" fill="#e6560f"/><rect x="590.03582" y="203.00393" width="1.23222" height="19.23091" transform="matrix(0.87377, -0.48634, 0.48634, 0.87377, -28.84728, 314.09569)" fill="#e6560f"/><rect x="576.64065" y="224.15448" width="1.2318" height="20.20696" transform="translate(161.99773 698.65222) rotate(-70.28502)" fill="#e6560f"/><rect x="569.60109" y="255.20062" width="17.3724" height="1.23183" transform="translate(-52.58944 298.86116) rotate(-27.76636)" fill="#ffb957"/><rect x="578.62877" y="258.76795" width="16.59566" height="1.23142" transform="translate(-17.52798 474.78415) rotate(-43.45612)" fill="#e6560f"/><rect x="587.42021" y="215.23932" width="1.23185" height="16.47811" transform="translate(15.97199 485.14934) rotate(-45.38898)" fill="#376f92"/><rect x="604.22386" y="205.76906" width="1.23195" height="18.26394" fill="#ffb957"/><rect x="604.85788" y="257.48099" width="1.23195" height="18.23025" fill="#ffb957"/><rect x="605.86233" y="215.72901" width="13.80618" height="1.23143" transform="translate(186.45045 706.79558) rotate(-68.44806)" fill="#e6560f"/><rect x="573.29391" y="241.01325" width="15.69356" height="1.23195" fill="#ffb957"/><rect x="580.48398" y="246.33745" width="12.88524" height="1.23139" transform="translate(-49.4313 224.20857) rotate(-20.77225)" fill="#376f92"/><rect x="592.33204" y="246.799" width="5.99251" height="1.23226" transform="translate(-27.70173 413.13661) rotate(-37.46286)" fill="#e6560f"/><rect x="587.73701" y="226.5298" width="1.23227" height="10.46294" transform="translate(103.90005 638.18212) rotate(-61.49444)" fill="#ffb957"/><rect x="599.70574" y="217.9545" width="1.23188" height="13.42563" transform="translate(-40.09469 251.65626) rotate(-22.93128)" fill="#ffb957"/><rect x="599.23016" y="227.90086" width="1.23199" height="8.59246" transform="translate(-35.94896 329.64179) rotate(-29.87473)" fill="#e6560f"/><rect x="609.05872" y="253.40706" width="1.23197" height="12.58722" transform="translate(-49.08739 187.72719) rotate(-16.8372)" fill="#e6560f"/><rect x="591.0129" y="268.19933" width="14.417" height="1.23232" transform="translate(166.99391 762.95461) rotate(-73.08645)" fill="#376f92"/><rect x="616.18366" y="224.13064" width="11.71139" height="1.23156" transform="translate(-0.93562 446.88624) rotate(-39.49025)" fill="#e6560f"/><rect x="620.69748" y="228.21241" width="15.2066" height="1.23211" transform="translate(-36.33064 302.24112) rotate(-26.31485)" fill="#376f92"/><rect x="630.97421" y="238.64451" width="1.23156" height="20.07733" transform="translate(200.51586 773.01545) rotate(-72.06665)" fill="#376f92"/><rect x="618.56964" y="257.09516" width="1.23201" height="18.36789" transform="translate(-54.51531 286.83275) rotate(-25.01746)" fill="#ffb957"/><rect x="621.42357" y="249.66196" width="1.23156" height="16.27208" transform="translate(-11.79722 485.05109) rotate(-42.23565)" fill="#376f92"/><rect x="623.04943" y="240.53796" width="11.29551" height="1.23149" transform="translate(-18.03788 53.673) rotate(-4.81942)" fill="#e6560f"/><rect x="609.70253" y="226.58742" width="7.39442" height="1.23197" transform="translate(102.91436 636.20867) rotate(-59.02665)" fill="#ffb957"/><rect x="603.79718" y="231.75942" width="7.1575" height="1.23204" transform="translate(296.39723 803.51126) rotate(-82.36838)" fill="#376f92"/><rect x="592.5113" y="257.81615" width="7.53606" height="1.23235" transform="translate(131.24256 712.38949) rotate(-67.74156)" fill="#ffb957"/><rect x="593.7613" y="236.54373" width="1.23193" height="5.89103" transform="translate(135.34727 686.62558) rotate(-66.19374)" fill="#ffb957"/><rect x="599.37351" y="252.14909" width="6.17628" height="1.23227" transform="matrix(0.15426, -0.98803, 0.98803, 0.15426, 259.78749, 809.0248)" fill="#ffb957"/><rect x="610.84472" y="235.22716" width="5.74408" height="1.23172" transform="translate(-10.17803 443.26887) rotate(-39.41147)" fill="#ffb957"/><rect x="619.06964" y="236.17855" width="6.65285" height="1.2316" transform="translate(-40.28456 171.1985) rotate(-15.17658)" fill="#ffb957"/><rect x="619.20387" y="245.78222" width="1.2322" height="8.10039" transform="translate(49.40225 597.99424) rotate(-53.35135)" fill="#e6560f"/><rect x="609.37587" y="246.55521" width="1.23169" height="6.09303" transform="translate(-43.64504 334.15888) rotate(-29.62491)" fill="#376f92"/><rect x="614.05185" y="240.53647" width="1.23248" height="4.40458" transform="translate(95.31015 651.4028) rotate(-59.74751)" fill="#376f92"/><path d="M627.34964,257.10985a1.849,1.849,0,0,0,0-3.69586,1.849,1.849,0,0,0,0,3.69586Z" fill="#376f92"/><path d="M685.14219,179.212a1.849,1.849,0,0,0,0-3.69586,1.849,1.849,0,0,0,0,3.69586Z" fill="#e6560f"/><path d="M704.16479,117.38857a1.849,1.849,0,0,0,0-3.69586,1.849,1.849,0,0,0,0,3.69586Z" fill="#e6560f"/><rect x="659.87602" y="103.54717" width="1.23222" height="19.23091" transform="matrix(0.87377, -0.48634, 0.48634, 0.87377, 28.33829, 335.50729)" fill="#e6560f"/><rect x="646.48084" y="124.69771" width="1.2318" height="20.20696" transform="translate(301.90479 698.49266) rotate(-70.28502)" fill="#e6560f"/><rect x="639.44128" y="155.74385" width="17.3724" height="1.23183" transform="translate(1.78598 319.94543) rotate(-27.76636)" fill="#ffb957"/><rect x="648.46896" y="159.31118" width="16.59566" height="1.23142" transform="translate(70.02137 495.55919) rotate(-43.45612)" fill="#e6560f"/><rect x="657.26041" y="115.78255" width="1.23185" height="16.47811" transform="translate(107.56648 505.25867) rotate(-45.38898)" fill="#376f92"/><rect x="674.06406" y="106.31229" width="1.23195" height="18.26394" fill="#ffb957"/><rect x="674.69808" y="158.02422" width="1.23195" height="18.23025" fill="#ffb957"/><rect x="675.70253" y="116.27224" width="13.80618" height="1.23143" transform="translate(323.13848 708.83102) rotate(-68.44806)" fill="#e6560f"/><rect x="643.13411" y="141.55648" width="15.69356" height="1.23195" fill="#ffb957"/><rect x="650.32417" y="146.88069" width="12.88524" height="1.23139" transform="translate(-9.61875 242.51275) rotate(-20.77225)" fill="#376f92"/><rect x="662.17224" y="147.34223" width="5.99251" height="1.23226" transform="translate(47.19725 435.10352) rotate(-37.46286)" fill="#e6560f"/><rect x="657.57721" y="127.07303" width="1.23227" height="10.46294" transform="translate(227.80912 647.56403) rotate(-61.49444)" fill="#ffb957"/><rect x="669.54593" y="118.49774" width="1.23188" height="13.42563" transform="translate(4.17561 271.00809) rotate(-22.93128)" fill="#ffb957"/><rect x="669.07036" y="128.44409" width="1.23199" height="8.59246" transform="translate(22.87161 351.2134) rotate(-29.87473)" fill="#e6560f"/><rect x="678.89892" y="153.95029" width="1.23197" height="12.58722" transform="translate(-17.28549 203.69308) rotate(-16.8372)" fill="#e6560f"/><rect x="660.8531" y="168.74257" width="14.417" height="1.23232" transform="translate(311.67034 759.2519) rotate(-73.08645)" fill="#376f92"/><rect x="686.02385" y="124.67388" width="11.71139" height="1.23156" transform="translate(78.25583 468.59818) rotate(-39.49025)" fill="#e6560f"/><rect x="690.53767" y="128.75565" width="15.2066" height="1.23211" transform="translate(14.99633 322.89498) rotate(-26.31485)" fill="#376f92"/><rect x="700.81441" y="139.18774" width="1.23156" height="20.07733" transform="translate(343.47622 770.62949) rotate(-72.06665)" fill="#376f92"/><rect x="688.40984" y="157.63839" width="1.23201" height="18.36789" transform="translate(-5.90311 307.03664) rotate(-25.01746)" fill="#ffb957"/><rect x="691.26376" y="150.20519" width="1.23156" height="16.27208" transform="translate(73.18722 506.17605) rotate(-42.23565)" fill="#376f92"/><rect x="692.88963" y="141.08119" width="11.29551" height="1.23149" transform="translate(-9.43503 59.18904) rotate(-4.81942)" fill="#e6560f"/><rect x="679.54272" y="127.13066" width="7.39442" height="1.23197" transform="translate(222.08694 647.81772) rotate(-59.02665)" fill="#ffb957"/><rect x="673.63737" y="132.30266" width="7.1575" height="1.23204" transform="translate(455.53823 786.48426) rotate(-82.36838)" fill="#376f92"/><rect x="662.3515" y="158.35938" width="7.53606" height="1.23235" transform="translate(266.67406 715.24147) rotate(-67.74156)" fill="#ffb957"/><rect x="663.60149" y="137.08697" width="1.23193" height="5.89103" transform="translate(267.99135 691.21194) rotate(-66.19374)" fill="#ffb957"/><rect x="669.21371" y="152.69232" width="6.17628" height="1.23227" transform="matrix(0.15426, -0.98803, 0.98803, 0.15426, 417.12063, 793.91426)" fill="#ffb957"/><rect x="680.68491" y="135.77039" width="5.74408" height="1.23172" transform="translate(68.84681 464.99355) rotate(-39.41147)" fill="#ffb957"/><rect x="688.90983" y="136.72179" width="6.65285" height="1.2316" transform="translate(-11.81154 186.0136) rotate(-15.17658)" fill="#ffb957"/><rect x="689.04406" y="146.32546" width="1.2322" height="8.10039" transform="translate(157.34964 613.93739) rotate(-53.35135)" fill="#e6560f"/><rect x="679.21607" y="147.09844" width="1.23169" height="6.09303" transform="translate(14.64791 355.68129) rotate(-29.62491)" fill="#376f92"/><rect x="683.89204" y="141.07971" width="1.23248" height="4.40458" transform="translate(215.87615 662.38241) rotate(-59.74751)" fill="#376f92"/><path d="M697.18984,157.65308a1.849,1.849,0,0,0,0-3.69585,1.849,1.849,0,0,0,0,3.69585Z" fill="#376f92"/><path d="M296.30908,207.71924l-.91992-.39209a24.19574,24.19574,0,0,0,1.11133-10.998c-.55371-5.18848.91943-12.14892,3.918-13.84131a3.35634,3.35634,0,0,1,3.90771.52344h0a6.40588,6.40588,0,0,1,2.22315,2.62695c.85156,1.77,1.46875,4.86914-.41846,9.59864l-.04883.09277s-.06836.103-.18848.25732c-.44921.58057-1.66113,1.92383-3.11084,1.80518a3.426,3.426,0,0,1-2.57373-2.1001l-.05859-.18554a3.11574,3.11574,0,0,1,1.09473-2.32471,2.13674,2.13674,0,0,0,.47705-2.01221l.95215-.30469a3.14591,3.14591,0,0,1-.70752,3.00879,2.58672,2.58672,0,0,0-.81739,1.45117c.53125.92823,1.10694,1.42286,1.71143,1.47071.99658.07373,1.96924-1.06836,2.24268-1.42188.05419-.06933.09472-.125.11962-.16015,1.36768-3.4541,1.51514-6.4751.42627-8.73877a5.55257,5.55257,0,0,0-1.87744-2.2334c-1.08593-.81885-2.00537-.96582-2.8623-.48291-2.584,1.459-3.93457,7.99512-3.415,12.86426A24.69281,24.69281,0,0,1,296.30908,207.71924Z" fill="#d04719"/><path d="M310.22021,214.687a.82138.82138,0,0,1-.45849-.10986l.55469-.832c1.019.18652,8.731-4.32178,12.82421-7.72461,2.96338-2.46338,1.76465-6.40918,1.12061-8.52881-.124-.40869-.22852-.75537-.28564-1.019a53.41926,53.41926,0,0,1-.04395-7.936c-4.24512,1.24463-3.65137,4.01611-3.0249,6.94238.46924,2.19239,1.00146,4.67774-1.57276,5.55909-4.65918,1.59521-5.34228,3.23681-5.34863,3.25293l-.94678-.32227c.06885-.21094.81934-2.11279,5.9712-3.87695,1.65429-.56641,1.43994-1.97022.91894-4.40332-.62549-2.92286-1.48291-6.9253,4.42285-8.29493l.64795-.1499-.03564.66406a57.432,57.432,0,0,0-.01075,8.35352c.05274.24365.1504.5625.26514.93994.66065,2.17481,2.03565,6.70069-1.438,9.58789C321.13623,208.9873,312.666,214.68652,310.22021,214.687Z" fill="#d04719"/><path d="M495.63919,392.0299l28.5748-34.05616s10.813-14.18963,18.43262-19.16283c0,0,21.17045,1.46284,19.52792,12.001s-27.40542,91.07964-71.10876,99.80872l-2.2956-17.83332s3.155-16.82219,3.17573-22.8458.03282-7.53322.03282-7.53322S494.90091,394.88139,495.63919,392.0299Z" fill="#376f92"/><path d="M433.9206,409.21077s-.13611-4.71695,3.4335-2.49107c2.48564,1.55,5.60533,4.04046,5.53475,7.10711s-3.19163,2.23318-3.80253,1.05155" fill="#fd8b66"/><path d="M431.33073,412.72719s-1.47746-4.76268,1.75274-3.776,6.37691,6.3806,6.37691,6.3806,2.59572,5.79536-2.31634,3.15188" fill="#fd8b66"/><path d="M430.12889,416.07035s-2.07579-5.69931,1.48577-3.11933,6.10835,5.30539,5.949,6.59333S435.14894,422.90194,430.12889,416.07035Z" fill="#fd8b66"/><path d="M493.44166,448.18944a1.59657,1.59657,0,0,0,0-3.19123,1.59657,1.59657,0,0,0,0,3.19123Z" fill="#3d9ba8"/><path d="M502.3771,443.33877a1.59657,1.59657,0,0,0,0-3.19122,1.59657,1.59657,0,0,0,0,3.19122Z" fill="#3d9ba8"/><path d="M510.54665,437.46691a1.59657,1.59657,0,0,0,0-3.19123,1.59657,1.59657,0,0,0,0,3.19123Z" fill="#3d9ba8"/><path d="M517.695,430.31856a1.59657,1.59657,0,0,0,0-3.19123,1.59657,1.59657,0,0,0,0,3.19123Z" fill="#3d9ba8"/><path d="M525.09865,422.149a1.59657,1.59657,0,0,0,0-3.19122,1.59657,1.59657,0,0,0,0,3.19122Z" fill="#3d9ba8"/><path d="M531.99171,412.703a1.59657,1.59657,0,0,0,0-3.19123,1.59657,1.59657,0,0,0,0,3.19123Z" fill="#3d9ba8"/><path d="M538.11887,402.491a1.59657,1.59657,0,0,0,0-3.19123,1.59657,1.59657,0,0,0,0,3.19123Z" fill="#3d9ba8"/><path d="M542.96953,391.76852a1.59657,1.59657,0,0,0,0-3.19123,1.59657,1.59657,0,0,0,0,3.19123Z" fill="#3d9ba8"/><path d="M547.8202,381.55658a1.59657,1.59657,0,0,0,0-3.19122,1.59657,1.59657,0,0,0,0,3.19122Z" fill="#3d9ba8"/><path d="M551.64968,371.85525a1.59657,1.59657,0,0,0,0-3.19123,1.59657,1.59657,0,0,0,0,3.19123Z" fill="#3d9ba8"/><path d="M554.96855,361.64332a1.59657,1.59657,0,0,0,0-3.19123,1.59657,1.59657,0,0,0,0,3.19123Z" fill="#3d9ba8"/><path d="M557.77684,352.96317a1.59657,1.59657,0,0,0,0-3.19122,1.59657,1.59657,0,0,0,0,3.19122Z" fill="#3d9ba8"/><rect x="420.34883" y="360.88861" width="3.03537" height="3.03537" transform="translate(701.69143 -118.22631) rotate(79.54365)" fill="#ce185e"/><rect x="425.02948" y="364.78191" width="3.03537" height="3.03537" transform="translate(709.35125 -119.6425) rotate(79.54365)" fill="#ce185e"/><rect x="429.88217" y="369.56875" width="3.03537" height="3.03537" transform="translate(718.0306 -120.49652) rotate(79.54365)" fill="#ce185e"/><rect x="434.3499" y="374.73854" width="3.03537" height="3.03537" transform="translate(726.77142 -120.6585) rotate(79.54365)" fill="#ce185e"/><rect x="436.47924" y="399.02061" width="3.03537" height="3.03537" transform="translate(-153.57042 352.36871) rotate(-37.78706)" fill="#702b72"/><rect x="451.47987" y="408.27801" width="3.03537" height="3.03537" fill="#702b72"/><rect x="479.23445" y="411.17307" width="3.03537" height="3.03537" fill="#702b72"/><rect x="461.86557" y="387.11658" width="3.03537" height="3.03537" fill="#702b72"/><rect x="480.75214" y="385.5653" width="3.03537" height="3.03537" fill="#702b72"/><rect x="480.17299" y="345.16792" width="3.03537" height="3.03537" fill="#702b72"/><rect x="432.40223" y="457.16417" width="3.03537" height="3.03537" fill="#702b72"/><rect x="452.99756" y="438.31396" width="3.03537" height="3.03537" fill="#702b72"/><rect x="436.14061" y="432.10359" width="3.03537" height="3.03537" fill="#702b72"/><rect x="463.38325" y="417.6568" width="3.03537" height="3.03537" fill="#702b72"/><rect x="492.47501" y="366.29959" width="3.03537" height="3.03537" fill="#702b72"/><rect x="471.08858" y="364.78191" width="3.03537" height="3.03537" fill="#702b72"/><rect x="426.99618" y="382.554" width="3.03537" height="3.03537" transform="translate(728.43798 -107.02984) rotate(79.54365)" fill="#ce185e"/><rect x="422.04452" y="378.32566" width="3.03537" height="3.03537" transform="translate(720.22685 -105.62137) rotate(79.54365)" fill="#ce185e"/><rect x="417.33482" y="372.95133" width="3.03537" height="3.03537" transform="translate(711.08682 -105.38884) rotate(79.54365)" fill="#ce185e"/><path d="M332.46191,415.75049c-.24609-.08887-2.41259-.91065-2.64257-2.46338-.127-.85938.36035-1.70557,1.44921-2.51514,3.67823-2.73291,6.74952-3.61426,9.12989-2.61474,1.80078.75537,1.82031,2.01757,1.74511,2.52539a2.957,2.957,0,0,1-2.29785,2.35693l-.10254-.99512a1.97771,1.97771,0,0,0,1.41114-1.5083c.09082-.61084-.29395-1.10107-1.14258-1.457-2.03076-.85107-4.77246-.01172-8.14649,2.49561-.52929.39306-1.14209.98388-1.05664,1.56494.11963.81689,1.51368,1.49609,1.99268,1.66992Z" fill="#d04719"/><path d="M334.92139,419.47412c-.31494-.023-3.09375-.26709-3.72559-1.70752a2.01966,2.01966,0,0,1,.49658-2.11328c2.19483-2.76758,8.32471-3.74707,8.58448-3.7876.623-.03125,3.5-.09619,4.04541,1.28858.313.79394-.19678,1.74072-1.55811,2.89453l-.64648-.7627c1.40527-1.19092,1.3081-1.67968,1.27441-1.76562-.18506-.46973-1.7041-.72217-3.01514-.66113-.00634.0039-5.94922.9541-7.90136,3.415-.35938.45362-.48194.82032-.36426,1.08985.30713.70068,2.07519,1.05224,2.88379,1.11279Z" fill="#d04719"/><path d="M337.68994,421.81738l-.07129-.00146c-1.09326-.02735-3.67236-.22071-4.00927-1.42725-.23926-.85547.67968-1.56055,1.3916-2.0166,3.24072-2.07666,7.25683-3.99268,8.81933-3.147a2.03436,2.03436,0,0,1,1.03321,2.01465c-.1504,1.26025-1.50342,3.07421-7.09424,4.55957Zm5.15283-5.80908c-1.20507,0-3.88183,1.01367-7.30273,3.20557-.94727.60693-.96777.90381-.96777.90625.08154.27734,1.43017.644,3,.69384,5.45068-1.46,6.21386-3.06738,6.28857-3.69287a1.029,1.029,0,0,0-.51807-1.01709A1.06833,1.06833,0,0,0,342.84277,416.0083Z" fill="#d04719"/><path d="M441.13721,416.44434a2.93406,2.93406,0,0,1-2.49512-1.33643l.88867-.459a1.98627,1.98627,0,0,0,1.91992.7622c.60157-.13867.917-.67578.938-1.5957.05078-2.20313-1.73193-4.44727-5.29931-6.67139-.55909-.34863-1.33252-.70166-1.84278-.41211-.71679.41016-.83984,1.95606-.82617,2.46534l-1,.02783c-.00732-.26123-.03418-2.57862,1.32764-3.35987.75439-.43359,1.71972-.28808,2.8706.43018,3.88819,2.42432,5.82959,4.96191,5.77,7.543-.04492,1.95215-1.21289,2.43164-1.71289,2.54736A2.41783,2.41783,0,0,1,441.13721,416.44434Z" fill="#d04719"/><path d="M439.17871,419.67334a5.13112,5.13112,0,0,1-2.27148-.749l.47363-.88086c1.62256.87207,2.0415.604,2.10937.541.37012-.34375.04737-1.854-.48632-3.04834-.00586-.00439-3.0625-5.189-6.06641-6.10693-.55518-.16943-.94043-.14941-1.14746.05957-.54.5415-.22119,2.31592.01807,3.09033l-.95508.2959c-.09375-.30127-.88184-2.97705.228-4.0918a2.01873,2.01873,0,0,1,2.14844-.31006c3.37842,1.03174,6.53028,6.37989,6.6626,6.60694.2583.56933,1.36914,3.22314.2793,4.23681A1.39827,1.39827,0,0,1,439.17871,419.67334Z" fill="#d04719"/><path d="M435.98633,421.376c-1.291,0-3.3169-1.00391-6.26026-5.00977l-.06689-.125c-.37451-1.02734-1.13672-3.49853-.13672-4.25342.70947-.53515,1.70166.063,2.38574.5586,3.1167,2.25732,6.36963,5.29785,6.15137,7.05957a2.03379,2.03379,0,0,1-1.49707,1.69824A2.27971,2.27971,0,0,1,435.98633,421.376Zm-5.41162-5.54346c3.35156,4.5415,5.12451,4.65967,5.73535,4.50391a1.02839,1.02839,0,0,0,.75732-.85352c.1084-.874-1.86865-3.31836-5.74609-6.127-.90967-.65967-1.19678-.57227-1.19727-.56934C429.896,412.96338,430.04736,414.353,430.57471,415.83252Z" fill="#d04719"/></svg>