<svg id="Layer_1" data-name="Layer 1" xmlns="http://www.w3.org/2000/svg" viewBox="0 0 900 600"><path d="M774.95787,302.80411a46.815,46.815,0,0,0,4.34132-14.12234c.34431-2.22864.64969-4.44674.77778-6.70039a46.63594,46.63594,0,0,0-.44342-7.74251,123.40588,123.40588,0,0,0-5.88209-25.51928A192.70614,192.70614,0,0,0,763.5922,224.0644a166.20031,166.20031,0,0,0-13.67856-22.49483q-2.05092-2.8673-4.21215-5.65346a38.31841,38.31841,0,0,0-4.74673-5.468c-1.76208-1.55219-3.3309-3.3416-5.00915-4.98638q-1.26381-1.23861-2.5519-2.45206a15.85606,15.85606,0,0,0-3.80331-2.57324,4.36,4.36,0,0,0-6.28014,5.62511,20.74876,20.74876,0,0,0,1.51844,2.92027c.714,1.04418,1.55862,2.00359,2.34275,2.99679q1.88839,2.392,3.69432,4.8476c.12882.1751.67343.85735.14168.17828-.48159-.615-.10426-.132-.0132.03252.247.44627.50745.89031.771,1.327a38.30062,38.30062,0,0,0,2.55724,3.514q1.91506,2.48775,3.74285,5.041.857,1.19688,1.69418,2.40775c.11165.16139.2211.32451.3343.48483-.96172-1.36171-.47307-.69383-.266-.38645q.49236.73067.981,1.46379,1.67779,2.5297,3.27034,5.11459c2.158,3.50285,4.26735,7.04779,6.2636,10.64548a181.32067,181.32067,0,0,1,10.4781,22.33622q.53142,1.36878,1.04053,2.746c.15053.40735.70209,2.011.13779.36138.1694.49523.35007.98677.52176,1.48121q1.03089,2.96891,2.02271,5.9529c1.33028,4.02219,2.54474,8.09078,3.50861,12.21735.58271,2.49469,1.07148,5.01282,1.42153,7.55106.16368,1.18692.30613,2.37205.49248,3.55572q.146.92733.26224,1.859.051.41184.09566.82449c.01187.1095.11022,1.22243.065.634-.04021-.52269.00945.177.0127.23257.02466.42043.056.84111.069,1.26216.01721.55765.00492,1.11531-.01578,1.6727-.04625,1.24433-.14355,2.48679-.299,3.72231q-.05157.40969-.112.81834c-.01315.08907-.17868,1.08752-.10841.69947.06852-.37863-.06065.296-.0606.29574-.08645.41-.17445.81915-.27224,1.22662a37.21212,37.21212,0,0,1-1.07442,3.61809,3.58968,3.58968,0,0,0,1.87942,4.32338c1.45261.69591,3.74793.36644,4.55009-1.23568Z" fill="#ffe3c2"/><path d="M137.47035,315.83037q-.92111-4.67476-1.60795-9.39084-.3417-2.35917-.62243-4.72665-.14626-1.2315-.27634-2.46482a11.42948,11.42948,0,0,0-.11575-1.13915c.04055.00533-.11666,1.52338.00786.06414.30277-3.54784-.23617-7.198-.36222-10.76262-.11237-3.17791-.2401-6.39592-.08194-9.57367q-.0586.93049-.11716,1.861c.47564-4.43442.41594-8.92162.69594-13.37393l-.12755,2.0263a237.78719,237.78719,0,0,1,7.66672-46.68062q1.75021-6.4725,3.91858-12.82089-.37343,1.09015-.74682,2.18027a204.0379,204.0379,0,0,1,17.59307-38.14536q3.03019-5.09682,6.3617-10.005-.6472.95463-1.29442,1.90929,2.68667-3.94822,5.55758-7.76609c2.30957-3.06366,4.75193-5.99331,6.90057-9.1742q-.64641.95351-1.29286,1.907,2.484-3.66123,5.12785-7.20989c.842-1.12747,1.72313-2.22825,2.54448-3.36993a14.54273,14.54273,0,0,0,2.84877-6.64825,6.02922,6.02922,0,0,0-1.40415-5.09976,5.70316,5.70316,0,0,0-4.9369-2.08116,20.74112,20.74112,0,0,0-3.23453.62036,13.466,13.466,0,0,0-3.53083,2.01472c-1.72108,1.32575-3.32,2.91277-4.91643,4.38858a66.76535,66.76535,0,0,0-6.96483,6.856,212.10313,212.10313,0,0,0-12.66723,17.74384,212.85455,212.85455,0,0,0-29.59084,75.015,195.91873,195.91873,0,0,0-2.767,40.96569c.13509,3.31944.55455,6.58626.88275,9.89032q.49183,4.95177,1.23673,9.87395a38.18509,38.18509,0,0,0,1.096,6.07216,5.82379,5.82379,0,0,0,.38612,1.05576c.29351.50074-.03192-.50733-.04233-.53254a3.04028,3.04028,0,0,1,.10265.56632q.22415,1.22715.46424,2.45134c.70308,3.583,1.47389,7.153,2.35985,10.69548q.6018,2.40639,1.26847,4.79568a4.96451,4.96451,0,0,0,5.70407,3.21363c2.18752-.45,4.45749-2.76,3.97643-5.20158Z" fill="#ffe3c2"/><path d="M160.65287,380.74168c-.62372-.62278-1.23672-1.25544-1.83338-1.90428q-.3839-.41741-.75955-.8423c.44064.49873-.22932-.272-.31465-.3738q-1.50779-1.79834-2.8679-3.71348-1.3633-1.91922-2.57161-3.94236-.62925-1.05347-1.2148-2.13217c-.21056-.38762-.41159-.78006-.619-1.16932-.45425-.85272.29545.63979-.156-.30773a68.40445,68.40445,0,0,1-3.464-8.72933q-.741-2.337-1.28571-4.73063-.06306-.27608-.12256-.553-.11676-.54349.069.34971a4.71626,4.71626,0,0,1-.21017-1.10719,6.4155,6.4155,0,0,0-2.46564-4.3257,4.36445,4.36445,0,0,0-6.68165,1.28458,6.20613,6.20613,0,0,0-.65168,5.05338c.19157.85565.40942,1.70623.64308,2.55127q.65208,2.35818,1.50085,4.65631a61.52258,61.52258,0,0,0,4.64553,9.74213,62.90446,62.90446,0,0,0,13.309,15.89023,3.80652,3.80652,0,0,0,5.05076-5.69632Z" fill="#ffe3c2"/><path d="M162.07952,244.87865c7.39209-32.4946,24.094-62.14941,44.42922-88.483,18.49362-23.949,50.20879-39.60559,78.15954-50.49007a273.99763,273.99763,0,0,1,91.514-18.54528c25.63241-.7174,51.58274,2.685,77.00079,5.38076,15.32932,1.62625,30.64874,3.57958,45.85118,6.174a437.31635,437.31635,0,0,1,46.31612,10.33371c66.54264,18.94609,129.62807,54.73151,172.28153,108.29156,6.94114,8.71532,13.35364,17.92192,17.95006,27.99829,7.215,15.81938,9.71157,33.20461,12.13443,50.32045,2.924,20.667,5.8539,41.6134,3.24465,62.26617-4.24473,33.61765-22.903,63.89784-45.37951,89.52507-10.61549,12.10545-22.35279,23.56529-36.515,31.49849-35.9886,20.15963-80.89929,14.593-122.06328,7.95924-23.36864-3.76744-47.03611-7.51581-70.75845-6.73243-20.09027.66553-38.359,8.75374-58.015,11.79189-69.12046,10.68989-142.1244-14.679-191.9891-62.64787a243.64773,243.64773,0,0,1-21.47223-23.5368C168.40468,360.44387,149.044,302.17926,162.07952,244.87865Z" fill="#ffe3c2"/><rect x="428.00244" y="122.64258" width="43.99512" height="4" fill="#ffc68d"/><rect x="428.00244" y="141.01709" width="43.99512" height="4" fill="#ffc68d"/><rect x="428.00244" y="159.39111" width="43.99512" height="4" fill="#ffc68d"/><rect x="428.00244" y="177.76563" width="43.99512" height="4" fill="#ffc68d"/><rect x="428.00244" y="196.13965" width="43.99512" height="4" fill="#ffc68d"/><rect x="428.00244" y="214.51416" width="43.99512" height="4" fill="#ffc68d"/><rect x="428.00244" y="232.88867" width="43.99512" height="4" fill="#ffc68d"/><rect x="445.41211" y="124.64258" width="4" height="18.37451" fill="#ffc68d"/><rect x="460.16309" y="143.01709" width="4" height="18.37402" fill="#ffc68d"/><rect x="440.49512" y="161.39111" width="4" height="18.37451" fill="#ffc68d"/><rect x="451.36426" y="179.76563" width="4" height="18.37402" fill="#ffc68d"/><rect x="430.40186" y="198.13965" width="4" height="18.37451" fill="#ffc68d"/><rect x="460.16309" y="198.13965" width="4" height="18.37451" fill="#ffc68d"/><rect x="440.49512" y="216.51416" width="4" height="18.37451" fill="#ffc68d"/><path d="M535.22178,185.952s-15.58894,2.18246-20.88918,9.97693-6.23558,11.84759-5.9238,24.007-7.48269,14.03-8.7298,17.77139-.31178,24.94231-11.224,15.27716c0,0-9.66514,12.47115-15.58894-.31178,0,0-12.78293,7.48269-16.83606-4.05312s9.04159-8.72981,6.54736-16.52428-.93534-17.45961,7.79447-17.45961,15.90072,6.23557,15.90072,6.23557-1.5589-53.0024,38.34879-50.19639,64.53822,58.61442,32.425,76.69759c0,0,3.74135-44.58437.62356-48.94927S546.134,187.82271,535.22178,185.952Z" fill="#5e1212"/><path d="M557.66985,198.4232c-3.11777-4.36494-11.53577-10.60048-22.44812-12.47118,0,0-15.58894,2.18247-20.88907,9.97694-5.30034,7.79447-6.23564,11.84759-5.92387,24.007.31187,12.1594-7.4826,14.03-8.72977,17.77141-.96966,2.909-.62258,16.36687-5.54826,17.67081l-.00063.004s.87218,7.995-1.41421,12.77559c0,0-.62353,18.91456,25.358,30.13861,0,0,13.30255.83138,19.33024-16.62821a81.893,81.893,0,0,1,0-15.17326s12.47117-.10392,19.64211-19.12239C557.04631,247.37249,560.78761,202.78808,557.66985,198.4232Z" fill="#fd8b66"/><path d="M561.30733,300.167,537.4042,281.66814c-6.02769,17.45959-19.33024,16.62821-19.33024,16.62821-25.98157-11.22405-25.358-30.13861-25.358-30.13861s-32.00926,7.067-45.31181,19.53814c-13.30265,12.47112-33.3084,41.00545-33.3084,41.00545s34.55547,35.9,35.80264,35.9h1.24706l8.31408-10.80837s-2.49412,41.98626-5.19631,45.31187c0,0,45.25179,11.125,92.25833,3.07688a4.5648,4.5648,0,0,0,3.732-3.62328c.525-2.72906,1.45007-6.49506,2.72918-7.76768,2.089-2.07855,5.92778-8.72983,5.92778-8.72983l3.22824,7.8984,32.425-25.77373S585.21035,318.66587,561.30733,300.167Z" fill="#e6560f"/><path d="M474.89261,440.05178S454.74928,423.49,452.89538,423.041h0l-1.41732,24.80523c11.6528-1.14081,22.0107-2.36388,31.434-7.41652C479.49668,440.37063,476.58369,440.25307,474.89261,440.05178Z" fill="#376f92"/><path d="M463.037,405.10448s22.14428,2.5223,32.433,3.30172,11.53577,2.18247,13.5623,4.36494a33.35813,33.35813,0,0,0,3.7469,2.99571c38.03885-44.3837,48.52811-115.59985,48.52811-115.59985-7.27476-16.42037-23.90313-18.49886-23.90313-18.49886-36.78988,18.70671-79.19177,87.92164-79.19177,87.92164l-3.94925,29.515-.0628,1.099Q458.24416,402.5067,463.037,405.10448Z" fill="#376f92"/><path d="M546.90921,413.00885l-33.44112,1.94491-.00116.00074c-.2291.2717-.46676.535-.698.80474,2.91827,2.15873,6.11195,4.56882,4.99322,5.58578-1.71476,1.55889-7.0151,1.09124-7.0151,1.09124s6.0797,12.78294,3.2737,12.93882-8.83369-4.83259-8.83369-4.83259,4.78062,9.19747,2.90992,9.50929c-.95369.159-7.86414.35845-15.27717.41247-3.37224.02463-6.84321.01855-9.90992-.03457-5.39813,2.89427-12.14385,3.9267-18.25886,5.62286l-5.99177,1.0283,100.25116.76541Z" fill="#e6560f"/><ellipse cx="527.73913" cy="464.21461" rx="43.06009" ry="10.13282" fill="#ffb957"/><ellipse cx="510.74714" cy="465.39546" rx="5.22621" ry="3.15872" fill="#e6560f"/><ellipse cx="527.73913" cy="470.21003" rx="5.22621" ry="3.15872" fill="#e6560f"/><ellipse cx="544.57519" cy="460.27727" rx="5.22621" ry="3.15872" fill="#e6560f"/><ellipse cx="523.61469" cy="460.27727" rx="2.58798" ry="1.56417" fill="#e6560f"/><ellipse cx="493.89178" cy="463.43599" rx="2.58798" ry="1.56417" fill="#e6560f"/><ellipse cx="544.57519" cy="469.35979" rx="2.58798" ry="1.56417" fill="#e6560f"/><ellipse cx="560.57984" cy="465.00016" rx="2.58798" ry="1.56417" fill="#e6560f"/><ellipse cx="534.14333" cy="463.80091" rx="0.99588" ry="0.80085" fill="#f89017"/><ellipse cx="500.81361" cy="466.56433" rx="0.99588" ry="0.80085" fill="#f89017"/><ellipse cx="513.2761" cy="457.9194" rx="0.99588" ry="0.80085" fill="#f89017"/><ellipse cx="553.54206" cy="469.35503" rx="0.99588" ry="0.80085" fill="#f89017"/><ellipse cx="534.62748" cy="456.51436" rx="0.99588" ry="0.80085" fill="#f89017"/><ellipse cx="517.99103" cy="471.37582" rx="0.99588" ry="0.80085" fill="#f89017"/><ellipse cx="555.53382" cy="461.43589" rx="0.99588" ry="0.80085" fill="#f89017"/><ellipse cx="500.81361" cy="460.27727" rx="0.99588" ry="0.80085" fill="#f89017"/><rect x="243.98584" y="446.34619" width="436.49023" height="3" fill="#490000"/><path d="M625.41246,233.7672H609.51165a2.59816,2.59816,0,0,0,0,5.19632h15.90081Z" fill="#376f92"/><path d="M714.581,233.7672H700.23934v5.19632H714.581a2.59816,2.59816,0,0,0,0-5.19632Z" fill="#376f92"/><path d="M537.4042,266.49488s-16.836-.11317-25.87761-8.0589c0,0,2.24791,10.45744,25.52065,13.727Z" fill="#d04719"/><path d="M527.5832,238.17392s-.93534,8.418,8.72981,8.26214c0,0,0-4.44285-3.74135-4.75463C532.57166,241.68143,533.507,238.32981,527.5832,238.17392Z" fill="#d04719"/><path d="M536.313,210.4267a56.78941,56.78941,0,0,1,3.36291,6.6781c1.00025,2.2782,1.86438,4.61059,2.64856,6.97918a35.7336,35.7336,0,0,1,1.68811,7.391,7.0015,7.0015,0,0,1,.0011,1.04657,2.80579,2.80579,0,0,1-.1167.62213,1.17571,1.17571,0,0,1-.6842.78332,1.48214,1.48214,0,0,1-.31665.05969l-.1189-.00372-.23767-.00738-.47363-.02-.9419-.05909a29.29818,29.29818,0,0,1-3.71985-.55407l3.705-.42786.91419-.10657.45385-.06042.22583-.03266.1128-.01623a.12926.12926,0,0,0-.08973.01123c-.1781.06934-.16919.14508-.16149.0553a1.8462,1.8462,0,0,0,.00646-.29535,5.70769,5.70769,0,0,0-.10766-.80506c-.24219-1.12994-.56091-2.311-.933-3.46838-.351-1.16669-.71839-2.33649-1.10889-3.50067-.73438-2.34424-1.51074-4.68457-2.20618-7.05811C537.50635,215.268,536.83508,212.881,536.313,210.4267Z" fill="#d04719"/><path d="M515.68538,203.8534l-.835-1.81739c.33984-.15722,8.375-3.7832,13.92871.0879l-1.14453,1.64062C523.03108,200.55164,515.75764,203.81824,515.68538,203.8534Z" fill="#490000"/><path d="M542.78206,205.44715l-.835-1.81739c.33984-.15625,8.376-3.78222,13.92968.0879l-1.14453,1.64062C550.12776,202.14539,542.85432,205.41394,542.78206,205.44715Z" fill="#490000"/><path d="M521.6594,218.60047c2.89554,0,2.90033-4.5,0-4.5-2.89553,0-2.90033,4.5,0,4.5Z" fill="#490000"/><path d="M549.09594,218.60047c2.89554,0,2.90033-4.5,0-4.5-2.89554,0-2.90033,4.5,0,4.5Z" fill="#490000"/><path d="M552.94612,214.36219a3.36759,3.36759,0,0,1-1.1748-.20606,3.51092,3.51092,0,0,1-1.29395-.8789,2.8071,2.8071,0,0,0-1.93555-.85938,1.87538,1.87538,0,0,0-1.23633.83887,1.00013,1.00013,0,1,1-1.58007-1.22656,3.78373,3.78373,0,0,1,2.6455-1.6045,4.73436,4.73436,0,0,1,3.44239,1.35938l.08105.08105a1.57719,1.57719,0,0,0,.5752.416,1.17026,1.17026,0,0,0,.499.08008h.01367a1,1,0,0,1,.01367,2Z" fill="#490000"/><path d="M517.453,214.36219h-.04981a1,1,0,0,1,.01367-2c.00879-.001.02442,0,.03711,0a1.34144,1.34144,0,0,0,.47656-.08106,1.56828,1.56828,0,0,0,.57422-.415l.082-.082a4.707,4.707,0,0,1,3.44239-1.3584,3.78408,3.78408,0,0,1,2.64453,1.6045,1.00014,1.00014,0,0,1-1.58008,1.22656,1.8764,1.8764,0,0,0-1.23535-.83887,2.83554,2.83554,0,0,0-1.874.79688,3.65377,3.65377,0,0,1-1.35547.94043A3.35545,3.35545,0,0,1,517.453,214.36219Z" fill="#490000"/><path d="M459.45949,353.79294l9.56126-15.38106L456.38306,383.2617S459.10817,361.82692,459.45949,353.79294Z" fill="#af2500"/><path d="M447.13692,362.2619,428.59343,383.688s9.02554,7.67025,34.44353,21.41655c0,0,22.14432,2.52226,32.433,3.3017s11.53582,2.18246,13.56238,4.36491,10.44459,7.015,8.72981,8.57392-7.015,1.09122-7.015,1.09122,6.07969,12.78293,3.27368,12.93882-8.83372-4.83257-8.83372-4.83257,4.7806,9.19748,2.90992,9.50926c-.95374.159-7.86418.35843-15.27716.4125-7.12678.052-14.718-.03045-17.92728-.4125,0,0-20.14326-16.56183-21.99717-17.01072s-46.75006,1.11-62.65078-12.60827c-7.2722-6.274-12.47115-16.52428-3.42957-35.85457s28.99548-44.06471,28.99548-44.06471Z" fill="#fd8b66"/><path d="M399.598,385.49591a39.74727,39.74727,0,0,1,6.65491-4.42627,28.79531,28.79531,0,0,1,7.54395-2.91345l1.01757-.18536c.34119-.05451.69641-.062,1.0437-.094a10.8496,10.8496,0,0,1,2.12635.04639,16.77046,16.77046,0,0,1,3.88623,1.42755,26.11077,26.11077,0,0,1,6.72265,4.33722,50.54547,50.54547,0,0,0-7.1781-3.259,19.51447,19.51447,0,0,0-3.61755-1.09784,12.2085,12.2085,0,0,0-3.697.293,38.46446,38.46446,0,0,0-7.34107,2.49572C404.35486,383.16284,401.98291,384.31317,399.598,385.49591Z" fill="#d04719"/><path d="M420.17542,365.84839a20.05229,20.05229,0,0,1,4.11938,2.85309A22.30008,22.30008,0,0,1,427.712,372.416a14.73652,14.73652,0,0,1,2.32031,4.55372,8.17278,8.17278,0,0,1,.00159,5.05395c-.10437-3.35815-1.65235-6.14673-3.53614-8.72852A90.74513,90.74513,0,0,0,420.17542,365.84839Z" fill="#d04719"/><path d="M505.18713,430.54248a13.86529,13.86529,0,0,1-2.153-1.86853,22.442,22.442,0,0,1-1.82153-2.12048,22.12488,22.12488,0,0,1-1.55786-2.32105,13.71217,13.71217,0,0,1-1.22291-2.57556,13.71655,13.71655,0,0,1,2.15467,1.86719,22.12628,22.12628,0,0,1,1.81982,2.12182,22.4427,22.4427,0,0,1,1.556,2.32239A13.87549,13.87549,0,0,1,505.18713,430.54248Z" fill="#d04719"/><path d="M502.80347,440.29932a23.88122,23.88122,0,0,1-2.92774-2.35926c-.92041-.83679-1.78528-1.72387-2.61938-2.63891-.83142-.91748-1.63013-1.86475-2.374-2.86157a23.604,23.604,0,0,1-2.0625-3.14417,23.61052,23.61052,0,0,1,2.92933,2.35767c.92.83715,1.78527,1.724,2.61779,2.6405.82972.91894,1.62879,1.86572,2.37232,2.86291A23.88246,23.88246,0,0,1,502.80347,440.29932Z" fill="#d04719"/><path d="M486.42834,435.01135a7.22965,7.22965,0,0,1,1.79883.95105,11.02652,11.02652,0,0,1,1.507,1.24781,10.87088,10.87088,0,0,1,1.27466,1.484,7.16094,7.16094,0,0,1,.97961,1.78406,7.15806,7.15806,0,0,1-1.80029-.94934,10.86414,10.86414,0,0,1-1.50537-1.24951,11.0187,11.0187,0,0,1-1.27307-1.4856A7.23609,7.23609,0,0,1,486.42834,435.01135Z" fill="#d04719"/><path d="M546.069,402.2555s-.76944,6.34913.84023,10.75337L513.468,414.95376l7.77519-10.09957S542.2638,403.768,546.069,402.2555Z" fill="#fd8b66"/><path d="M527.73913,451.74349c-29.27261,0-53.00235,5.586-53.00235,12.47112s23.72974,12.47118,53.00235,12.47118,53.00236-5.586,53.00236-12.47118S557.01174,451.74349,527.73913,451.74349Zm0,22.60394c-23.78176,0-43.06009-4.5381-43.06009-10.13282,0-5.59466,19.27833-10.13282,43.06009-10.13282s43.0601,4.53816,43.0601,10.13282C570.79923,469.80933,551.52089,474.34743,527.73913,474.34743Z" fill="#78c1d0"/><path d="M527.73913,476.68579c-22.7844,0-42.20588-3.38471-49.6982-8.13161a50.04247,50.04247,0,0,0,99.39641,0C569.945,473.30108,550.52354,476.68579,527.73913,476.68579Z" fill="#376f92"/><rect x="521.88236" y="437.37016" width="3.46467" height="24.24156" transform="translate(-164.55605 398.15402) rotate(-36.37775)" fill="#78c1d0"/><path d="M498.57911,408.692l3.79332,5.13569c-.18184-.052-.37235-.08659-.563-.12126a84.48009,84.48009,0,0,1-12.94744-3.60276l-1.81-2.44227-7.79447-10.55718a4.32861,4.32861,0,1,1,6.963-5.14435Z" fill="#78c1d0"/><path d="M520.56819,445.73308a4.33495,4.33495,0,0,1-6.06236-.90939l-7.20562-9.76038c-.90929-2.1738-1.99185-4.287-2.10444-4.50348.26852.21651,6.08837,4.97113,8.825,4.81525,1.42044-.078.57162-3.37762-.62353-6.62532l8.08033,10.92957A4.32915,4.32915,0,0,1,520.56819,445.73308Z" fill="#78c1d0"/><rect x="600.15832" y="280.11831" width="124.71153" height="10.80833" fill="#e6560f"/><rect x="625.4124" y="233.76719" width="74.82692" height="46.35112" fill="#376f92"/><path d="M700.23932,233.76719H625.4124l4.40273-2.30328a71.21334,71.21334,0,0,1,66.02146,0Z" fill="#133852"/><path d="M655.55112,216.60188h3.37752v6.85986a71.2903,71.2903,0,0,1,7.79447,0v-6.85986h3.37752a2.16513,2.16513,0,0,0,0-4.33026H655.55112a2.16513,2.16513,0,1,0,0,4.33026Z" fill="#376f92"/><path d="M486.42834,409.18567c2.39551.59045,4.73365,1.261,7.09388,1.85852,2.35742.59631,4.70886,1.18835,7.07751,1.66211.609.139,1.14.22058,1.81677.38147a13.84448,13.84448,0,0,1,1.8368.58288,10.10977,10.10977,0,0,1,3.25793,2.09241,10.51727,10.51727,0,0,1,3.236,6.67322,12.7911,12.7911,0,0,0-4.00464-5.79041,13.00406,13.00406,0,0,0-6.44531-2.47131,54.46872,54.46872,0,0,1-7.1167-2.0155A47.32134,47.32134,0,0,1,486.42834,409.18567Z" fill="#d04719"/><path d="M337.54857,456.17374H318.22912a39.48989,39.48989,0,0,1-14.141-2.60989v8.97784a1,1,0,0,0,1,1h45.60158a1,1,0,0,0,1-1v-8.97784A39.4909,39.4909,0,0,1,337.54857,456.17374Z" fill="#e6560f"/><path d="M341.95121,379.37893a29.42259,29.42259,0,0,0-2.29965-5.092,15.6445,15.6445,0,0,0-2.95656-4.10638c-.683-.64162-.58105-.39942-2.95655-2.29956A17.26132,17.26132,0,0,0,331.1103,365.91a9.76308,9.76308,0,0,0-3.28505-.98549c-3.27252-.51739-5.30892-.83937-7.39152,0-2.21385.89226-3.30845,2.6248-4.76337,4.92763a16.84037,16.84037,0,0,0-2.95665,9.85533c.09065,2.29.8941,2.33,1.361,3.47341l7.6817,9.11373,2.79184,1.48356,12.77376-5.77473Z" fill="#f4ac56"/><path d="M359.70755,397.5011c.51338-.85349.5293-2.52232.47591-4.32479-.02857-.96386-.26341-1.82052-1.47823-4.27063-1.701-3.43068-2.55154-5.146-3.44939-5.9132-1.17171-1.00111-1.21917-.44053-6.2417-2.62806-2.5385-1.10563-2.97644-1.44482-4.10638-1.47832-.59884-.01771-1.92637.0345-4.92762,1.80682-1.51082.89217-1.98994.08885-4.16494,2.22792v.831l4.46345,13.69118,4.7634,7.8251s7.97362,8.75258,11.31956.49276Z" fill="#f29e41"/><path d="M350.41091,402.07877c.74213-.54471.71557-1.13433,1.55979-3.11241a8.08168,8.08168,0,0,0,.3696-5.79005c-.48848-1.30522-.9458-1.13679-1.97106-3.07979-1.15843-2.19538-.8215-2.87853-1.60147-4.06528-1.16285-1.76947-3.231-2.258-5.66682-2.83341a16.73469,16.73469,0,0,0-8.50024,0c-2.02161.547-5.64352,1.52686-7.761,4.92762a16.7831,16.7831,0,0,0-2.29138,5.65268l-2.55363,8.71931,8.75722,7.65877,6.57017,2.54729s3.737,3.89208,8.413-3.36632Z" fill="#ffb957"/><path d="M323.08158,402.49744a6.31446,6.31446,0,0,0,1.66388-3.28471,8.81636,8.81636,0,0,0,.12315-4.5581,21.46609,21.46609,0,0,0-1.10872-2.587c-1.1601-2.851-.82241-3.33268-1.60147-4.43488-.57971-.82007-1.6673-1.37915-3.8189-2.46381a25.03507,25.03507,0,0,0-5.05085-2.21744,13.236,13.236,0,0,0-7.02192.49274c-1.97741.6179-5.33891,1.66839-7.39152,4.92763-2.93015,4.65259-.81322,10.02718-.49274,10.8409a7.63371,7.63371,0,0,0,1.51217,2.78645l8.13734,7.34618h8.38279Z" fill="#f29e41"/><path d="M327.57888,424.59013a9.50362,9.50362,0,0,0,3.8189-1.35509,5.47957,5.47957,0,0,0,2.46381-1.84784c.61205-.98632.32616-1.65627.49275-3.203.35038-3.253,1.97023-3.58623,1.72469-5.66683-.13526-1.14639-.87037-2.03723-2.34058-3.8189a18.97765,18.97765,0,0,0-3.69576-3.44939,14.531,14.531,0,0,0-5.66683-2.587,17.23928,17.23928,0,0,0-4.31173-.12315c-3.514.14512-5.48938.22666-7.63781,1.35509a26.40776,26.40776,0,0,0-4.68752,4.20984l-1.84212,6.34356,1.14979,6.97347-.77972,3.29251S313.60287,425.70354,327.57888,424.59013Z" fill="#f4ac56"/><path d="M352.27024,402.34705c.52115-.96478.52246-.94228,2.16436-2.272,1.00963-.81765,3.37077-2.72965,6.40594-2.62814,1.658.05547,3.62391,1.4058,7.55568,4.10638a11.67828,11.67828,0,0,1,3.28514,2.95664,10.10643,10.10643,0,0,1,1.64257,3.77788c.21688,1.05884.066,1.218,0,4.43488-.06658,3.24453.07352,3.73527-.3285,4.76337a10.666,10.666,0,0,1-2.62788,3.53037l-8.32313-3.1717Z" fill="#f4ac56"/><path d="M285.07777,422.12632a10.38334,10.38334,0,0,1-2.34058-3.94213,10.85755,10.85755,0,0,1,.12314-6.65232,23.094,23.094,0,0,1,1.97107-3.57261c2.10323-3.68707,1.67908-3.90328,2.46381-4.68125,1.84107-1.82511,4.66454-1.83639,7.51475-1.84784,2.394-.00961,2.02654.43218,5.91311.616,2.04893.09692,2.95873.01229,4.18859.6159a5.78,5.78,0,0,1,2.83333,2.83341c.70637,1.76855-.35649,2.53775-.61589,6.03642a18.36393,18.36393,0,0,0,.36951,5.79c.50186,2.122,1.13964,2.89749.86235,4.31174a5.37584,5.37584,0,0,1-2.09421,3.07978" fill="#ffb957"/><path d="M334.53155,411.62163l2.79055,1.08186s3.737,3.89209,8.41294-3.3663l4.67582-7.25843c.65607-.48151.7138-1.0022,1.301-2.48207a13.25828,13.25828,0,0,0-3.18237-.34115,14.29372,14.29372,0,0,0-6.77563,1.84783c-3.40377,1.9293-5.66666,6.52918-5.66666,6.52918A19.92235,19.92235,0,0,0,334.53155,411.62163Z" fill="#ed8120"/><path d="M298.99841,416.747a2.21084,2.21084,0,0,1,.18067,1.6123,2.76621,2.76621,0,0,1-.84522,1.36243,3.41822,3.41822,0,0,1-.51587.37866c-.06567.032-.09985.05493-.11413.02088-.00806-.0271-.01074-.12574-.05347-.16675-.08765-.103-.18884.04761-.14563.2395a5.53155,5.53155,0,0,0,.17969.74145,1.48346,1.48346,0,0,1-.87354-.04663,1.17041,1.17041,0,0,1-.73291-.904,1.33849,1.33849,0,0,1,.12586-.79065,2.20928,2.20928,0,0,1,.31555-.47656,5.45014,5.45014,0,0,1,.48022-.485c.27271-.24084.51368-.42224.82569-.663C298.14478,417.33875,298.48279,417.06274,298.99841,416.747Z" fill="#ea7706"/><path d="M295.87756,406.97375a1.1588,1.1588,0,0,1,.82056-.60742,1.07181,1.07181,0,0,1,.85645.25244,1.0229,1.0229,0,0,1-.21094,1.75123,2.21715,2.21715,0,0,0-.83338-.23572c-.16357-.00244-.21875.03589-.25622.00305a.97726.97726,0,0,1-.10877-.30457C296.09192,407.64429,296.01941,407.40442,295.87756,406.97375Z" fill="#ea7706"/><path d="M288.97888,409.684a1.21623,1.21623,0,0,1-.88562-.46631,1.02164,1.02164,0,0,1-.168-.81763,1.13548,1.13548,0,0,1,.58741-.76428.91422.91422,0,0,1,1.041.1593,1.48468,1.48468,0,0,0,.1908.81849c.08984.12988.15222.15783.13452.21142-.01172.0553-.08728.13172-.224.26257Z" fill="#ea7706"/><path d="M304.82947,417.65039a.81741.81741,0,0,1,1.04675-.14221,1.09971,1.09971,0,0,1,.53149.64368.90207.90207,0,0,1-.08435.70214,1.473,1.473,0,0,1-.75476.60315,3.64849,3.64849,0,0,1-.80871-.43444.67684.67684,0,0,1-.27381-.31861c-.02722-.0946.01184-.17334.10511-.2987A.95788.95788,0,0,0,304.82947,417.65039Z" fill="#ea7706"/><path d="M291.3606,417.65039a9.42,9.42,0,0,0,.67492.65942c.14722.1283.23987.1377.22888.11524-.00134-.02783-.11767.01819-.06189.18982a3.89241,3.89241,0,0,0,.39.84228,1.109,1.109,0,0,1-.9292.635,1.29314,1.29314,0,0,1-1.19507-1.78235A1.179,1.179,0,0,1,291.3606,417.65039Z" fill="#ea7706"/><path d="M303.43335,408.7395a1.44635,1.44635,0,0,1,1.21582.00623,1.63581,1.63581,0,0,1,.78149.76733,1.52756,1.52756,0,0,1-.60119,2.05982c-.40479-.309-.61548-.517-.8125-.692a1.79878,1.79878,0,0,1-.37781-.47986,1.92743,1.92743,0,0,1-.15137-.603C303.46167,409.53418,303.446,409.23608,303.43335,408.7395Z" fill="#ea7706"/><path d="M301.54443,412.70142a1.07387,1.07387,0,0,1,.7013-.73706,1.05244,1.05244,0,0,1,.92407.18054,1.072,1.072,0,0,1,.44946.89978.98673.98673,0,0,1-.59655.843,2.45307,2.45307,0,0,0-.83985-.203.33027.33027,0,0,0-.20959.062.92359.92359,0,0,0-.05616-.25A5.31832,5.31832,0,0,0,301.54443,412.70142Z" fill="#ea7706"/><path d="M287.25415,414.44739a1.09273,1.09273,0,0,1-.58923-.88867,1.20361,1.20361,0,0,1,1.4198-1.21521,1.08674,1.08674,0,0,1,.78064.72815,4.61886,4.61886,0,0,0-.41785.802c-.06567.16015-.03137.24365-.05786.255A3.28764,3.28764,0,0,0,287.25415,414.44739Z" fill="#ea7706"/><path d="M294.72778,412.692a1.081,1.081,0,0,1-.78418-.70838,1.14236,1.14236,0,0,1,.14185-.96643,1.07924,1.07924,0,0,1,1.79211-.10132,6.15818,6.15818,0,0,0-.1101.8971c-.01184.1748.02783.25757-.00379.29077A5.465,5.465,0,0,0,294.72778,412.692Z" fill="#ea7706"/><path d="M310.24988,416.58276a1.38365,1.38365,0,0,1-1.0708-.67443,1.63813,1.63813,0,0,1-.16223-1.26331,1.60022,1.60022,0,0,1,.92822-1.06958,1.13349,1.13349,0,0,1,1.2904.297,1.93781,1.93781,0,0,0-.30456.92834c.01367.18555.05017.26172.01379.37415a2.92179,2.92179,0,0,1-.22253.45947C310.60205,415.85254,310.47083,416.12585,310.24988,416.58276Z" fill="#ea7706"/><path d="M327.174,417.65039a1.11934,1.11934,0,0,1,1.10071-.49341,1.37737,1.37737,0,0,1,.12549,2.71082c-.3357-.36255-.50428-.60083-.64966-.78113a3.26105,3.26105,0,0,1-.24622-.28308c-.02063-.03.04505-.08228.01929-.27112A2.84846,2.84846,0,0,0,327.174,417.65039Z" fill="#ea7706"/><path d="M318.21631,420.93542c.431-.18261.65369-.31469.85327-.407a.89726.89726,0,0,1,.46594-.11438.99274.99274,0,0,1,.46912.19629,5.70477,5.70477,0,0,1,.75757.62647,1.40567,1.40567,0,0,1-.54224.93127,1.278,1.278,0,0,1-.8645.23718,1.328,1.328,0,0,1-.83423-.40869A1.19629,1.19629,0,0,1,318.21631,420.93542Z" fill="#ea7706"/><path d="M314.35632,410.15625a6.56169,6.56169,0,0,1,1.00843.35986,1.83792,1.83792,0,0,1,.51489.33252,1.19225,1.19225,0,0,1,.26916.43482,4.63663,4.63663,0,0,0,.50708.86438,1.223,1.223,0,0,1-1.0979.593,1.62154,1.62154,0,0,1-1.553-1.44543A1.53885,1.53885,0,0,1,314.35632,410.15625Z" fill="#ea7706"/><path d="M325.52563,412.15015a1.11755,1.11755,0,0,1,1.09644.04162,1.23993,1.23993,0,0,1,.55945.85535,1.225,1.225,0,0,1-.24561.97949,1.19174,1.19174,0,0,1-.99963.42078c-.26929-.39234-.40418-.61365-.53284-.77368-.10754-.15833-.191-.22437-.194-.29688C325.19678,413.23254,325.371,413.03882,325.52563,412.15015Z" fill="#ea7706"/><path d="M311.23547,421.17822a6.57569,6.57569,0,0,0,.93116.282c.2.0404.27014-.019.25146-.02869-.01514-.01355-.0133.082.16211.19079.17578.11878.44031.22828.87268.4629a1.2683,1.2683,0,0,1-.48559,1.0614,1.38561,1.38561,0,0,1-2.13587-.86585A1.20288,1.20288,0,0,1,311.23547,421.17822Z" fill="#ea7706"/><path d="M317.80566,415.22754a2.29247,2.29247,0,0,1,.78858-.32959.45689.45689,0,0,1,.39587.08008.44531.44531,0,0,1,.09876.39026,1.07654,1.07654,0,0,1-1.08814,1.13537.44538.44538,0,0,1-.394-.082.45715.45715,0,0,1-.0968-.39221A2.28994,2.28994,0,0,1,317.80566,415.22754Z" fill="#ea7706"/><path d="M324.54834,407.795a2.7317,2.7317,0,0,1,.82117.06226c.16247.04773.24865.11377.26965.19568.02136.08166-.02539.17993-.14795.29651a1.3464,1.3464,0,0,1-1.52856.36938c-.16223-.04761-.24866-.11365-.267-.19616-.0188-.0824.02783-.18055.15051-.29725A2.73766,2.73766,0,0,1,324.54834,407.795Z" fill="#ea7706"/><path d="M332.51562,414.44739a2.73083,2.73083,0,0,1,.82117.06225c.16248.04773.24866.11377.26966.19568.02136.08167-.02527.17993-.14783.29651a1.34657,1.34657,0,0,1-1.52857.36939c-.16235-.04761-.24878-.11365-.26709-.19617-.01867-.0824.02784-.18054.15052-.29724A2.73925,2.73925,0,0,1,332.51562,414.44739Z" fill="#ea7706"/><path d="M319.80981,408.73694a2.72974,2.72974,0,0,1,.82117.06238c.16248.0476.24866.11377.26965.19555.02137.08179-.02526.17993-.14782.29651a1.34648,1.34648,0,0,1-1.52869.36951c-.16223-.04773-.24866-.11377-.267-.19629-.01867-.0824.02784-.18054.15052-.29712A2.73277,2.73277,0,0,1,319.80981,408.73694Z" fill="#ea7706"/><path d="M329.76636,394.859a1.38324,1.38324,0,0,1-1.0708-.67444,1.63806,1.63806,0,0,1-.16236-1.26324,1.60028,1.60028,0,0,1,.92835-1.06965,1.13347,1.13347,0,0,1,1.29028.297,1.93759,1.93759,0,0,0-.30456.92829c.01367.1856.05017.26178.01379.3742a2.90624,2.90624,0,0,1-.22253.45941C330.11841,394.12878,329.98718,394.4021,329.76636,394.859Z" fill="#ea7706"/><path d="M346.69043,395.92664a1.1192,1.1192,0,0,1,1.10059-.49335,1.37733,1.37733,0,0,1,.12548,2.71075c-.33569-.36255-.50427-.60077-.64965-.78106a3.34536,3.34536,0,0,1-.24622-.28308c-.02051-.0301.045-.08228.01929-.27112A2.84992,2.84992,0,0,0,346.69043,395.92664Z" fill="#ea7706"/><path d="M337.73267,399.21173c.43115-.18268.65368-.31476.85327-.407a.89682.89682,0,0,1,.46594-.11438.99268.99268,0,0,1,.46912.19629,5.71062,5.71062,0,0,1,.75769.6264,1.40658,1.40658,0,0,1-.54236.9314,1.27857,1.27857,0,0,1-.86438.23718,1.32779,1.32779,0,0,1-.83423-.40875A1.19594,1.19594,0,0,1,337.73267,399.21173Z" fill="#ea7706"/><path d="M333.87268,388.4325a6.55024,6.55024,0,0,1,1.00842.35986,1.83529,1.83529,0,0,1,.5149.33252,1.19051,1.19051,0,0,1,.26916.43487,4.6358,4.6358,0,0,0,.50708.86432,1.22315,1.22315,0,0,1-1.0979.59308,1.62153,1.62153,0,0,1-1.55286-1.44549A1.53866,1.53866,0,0,1,333.87268,388.4325Z" fill="#ea7706"/><path d="M345.042,390.42645a1.11722,1.11722,0,0,1,1.09644.04163,1.23928,1.23928,0,0,1,.55945.85528,1.22477,1.22477,0,0,1-.24549.97944,1.192,1.192,0,0,1-.99975.42083c-.26917-.39233-.40418-.61358-.53284-.77374-.10754-.1582-.191-.2243-.194-.29687C344.71313,391.50885,344.88733,391.31506,345.042,390.42645Z" fill="#ea7706"/><path d="M330.75183,399.45441a6.56878,6.56878,0,0,0,.93115.282c.2.04053.27014-.01892.25159-.02869-.01526-.01349-.01343.08216.162.19092.17578.11871.44043.22821.87268.46289a1.26761,1.26761,0,0,1-.4856,1.06128,1.38541,1.38541,0,0,1-2.13574-.86578A1.20293,1.20293,0,0,1,330.75183,399.45441Z" fill="#ea7706"/><path d="M337.322,393.50385a2.29293,2.29293,0,0,1,.78858-.32966.45708.45708,0,0,1,.39587.08014.445.445,0,0,1,.09875.39014,1.07644,1.07644,0,0,1-1.088,1.13544.44518.44518,0,0,1-.394-.082.45707.45707,0,0,1-.09692-.39215A2.29407,2.29407,0,0,1,337.322,393.50385Z" fill="#ea7706"/><path d="M344.0647,386.07129a2.73023,2.73023,0,0,1,.82116.06232c.16248.04766.24866.1137.26966.19561.02136.08173-.02527.17994-.14783.29651a1.34658,1.34658,0,0,1-1.52869.36945c-.16223-.04773-.24865-.11377-.267-.19623-.01868-.0824.02783-.1806.15051-.29718A2.73147,2.73147,0,0,1,344.0647,386.07129Z" fill="#ea7706"/><path d="M352.032,392.72363a2.73157,2.73157,0,0,1,.82129.06232c.16235.04761.24866.11371.26953.19556.02149.08178-.02527.18-.14782.29657a1.34632,1.34632,0,0,1-1.52857.36944c-.16223-.04773-.24866-.11377-.267-.19623-.0188-.08239.02771-.1806.15052-.29718A2.73031,2.73031,0,0,1,352.032,392.72363Z" fill="#ea7706"/><path d="M339.32617,387.01324a2.73417,2.73417,0,0,1,.82129.06226c.16235.04767.24866.11377.26953.19562.02149.08179-.02527.18-.14782.29651a1.34622,1.34622,0,0,1-1.52857.3695c-.16235-.04773-.24866-.11377-.267-.19629-.0188-.08233.02771-.18054.15052-.29711A2.73026,2.73026,0,0,1,339.32617,387.01324Z" fill="#ea7706"/><path d="M316.08875,376.826a1.38312,1.38312,0,0,1-1.07081-.67444,1.6381,1.6381,0,0,1-.16235-1.26324,1.60028,1.60028,0,0,1,.92835-1.06965,1.1335,1.1335,0,0,1,1.29028.29706,1.93739,1.93739,0,0,0-.30457.92829c.01368.18554.05017.26178.0138.37414a2.92,2.92,0,0,1-.22254.45947C316.4408,376.09583,316.30957,376.36914,316.08875,376.826Z" fill="#ea7706"/><path d="M333.0127,377.89362a1.11947,1.11947,0,0,1,1.1007-.49335,1.37737,1.37737,0,0,1,.12549,2.71081c-.33569-.36254-.50427-.60083-.64966-.78112a3.32516,3.32516,0,0,1-.24621-.28308c-.02051-.03.045-.08228.01928-.27112A2.84843,2.84843,0,0,0,333.0127,377.89362Z" fill="#ea7706"/><path d="M324.05505,381.17871c.43116-.18268.65369-.3147.85328-.407a.8968.8968,0,0,1,.46594-.11438.99265.99265,0,0,1,.46911.19629,5.71161,5.71161,0,0,1,.75769.62646,1.40657,1.40657,0,0,1-.54235.93134,1.27825,1.27825,0,0,1-.86438.23718,1.328,1.328,0,0,1-.83423-.40869A1.19609,1.19609,0,0,1,324.05505,381.17871Z" fill="#ea7706"/><path d="M320.19507,370.39948a6.55709,6.55709,0,0,1,1.00842.35986,1.83566,1.83566,0,0,1,.51489.33258,1.18959,1.18959,0,0,1,.26917.43481,4.63385,4.63385,0,0,0,.50708.86432,1.2229,1.2229,0,0,1-1.0979.59308,1.62153,1.62153,0,0,1-1.55286-1.44549A1.53874,1.53874,0,0,1,320.19507,370.39948Z" fill="#ea7706"/><path d="M331.36438,372.39343a1.1174,1.1174,0,0,1,1.09644.04163,1.23926,1.23926,0,0,1,.55944.85535,1.22443,1.22443,0,0,1-.2456.97943,1.19159,1.19159,0,0,1-.99964.42077c-.26916-.39227-.40417-.61358-.53283-.77368-.10755-.15826-.191-.2243-.194-.29687C331.03552,373.47583,331.20972,373.282,331.36438,372.39343Z" fill="#ea7706"/><path d="M317.07422,381.42145a6.577,6.577,0,0,0,.93115.282c.19995.04047.27014-.019.25159-.02869-.01526-.01355-.01343.0821.162.19086.17578.11871.44043.22827.87268.46289a1.2678,1.2678,0,0,1-.4856,1.06134,1.38552,1.38552,0,0,1-2.13586-.86584A1.20327,1.20327,0,0,1,317.07422,381.42145Z" fill="#ea7706"/><path d="M323.64441,375.47083a2.291,2.291,0,0,1,.78857-.32959.45688.45688,0,0,1,.39588.08007.44509.44509,0,0,1,.09875.3902,1.07646,1.07646,0,0,1-1.08813,1.13538.445.445,0,0,1-.39392-.082.45663.45663,0,0,1-.09693-.39215A2.29434,2.29434,0,0,1,323.64441,375.47083Z" fill="#ea7706"/><path d="M330.38708,368.03827a2.73027,2.73027,0,0,1,.82117.06232c.16248.04766.24866.11377.26966.19561.02136.08173-.02527.17994-.14783.29651a1.34659,1.34659,0,0,1-1.52869.36945c-.16223-.04767-.24866-.11371-.267-.19623-.01867-.0824.02784-.18054.15052-.29718A2.73478,2.73478,0,0,1,330.38708,368.03827Z" fill="#ea7706"/><path d="M338.35437,374.69061a2.7316,2.7316,0,0,1,.82129.06232c.16235.04767.24866.11377.26953.19562.02148.08172-.02527.17993-.14783.29651a1.3463,1.3463,0,0,1-1.52856.36944c-.16235-.04767-.24866-.11371-.267-.19623-.0188-.08239.02771-.1806.15051-.29718A2.7326,2.7326,0,0,1,338.35437,374.69061Z" fill="#ea7706"/><path d="M325.64856,368.98022a2.7316,2.7316,0,0,1,.82129.06232c.16235.04767.24866.11371.26953.19562.02148.08173-.02527.17993-.14783.29651a1.3463,1.3463,0,0,1-1.52856.36944c-.16236-.04766-.24866-.1137-.267-.19622-.0188-.0824.02771-.18061.15051-.29718A2.73227,2.73227,0,0,1,325.64856,368.98022Z" fill="#ea7706"/><path d="M299.49072,394.42993a1.38352,1.38352,0,0,1-1.0708-.67444,1.63862,1.63862,0,0,1-.16235-1.26324,1.60025,1.60025,0,0,1,.92834-1.06964,1.13363,1.13363,0,0,1,1.29041.29706,1.938,1.938,0,0,0-.30469.92822c.01379.18561.05029.26184.01392.3742a2.92852,2.92852,0,0,1-.22254.45942C299.8429,393.69977,299.71167,393.973,299.49072,394.42993Z" fill="#ea7706"/><path d="M316.41479,395.49756a1.1194,1.1194,0,0,1,1.10071-.49335,1.37734,1.37734,0,0,1,.12549,2.71076c-.33569-.36255-.50427-.60077-.64966-.78107a3.28024,3.28024,0,0,1-.24621-.28308c-.02063-.03.045-.08228.01928-.27112A2.84836,2.84836,0,0,0,316.41479,395.49756Z" fill="#ea7706"/><path d="M307.45715,398.78265c.431-.18267.65369-.31469.85315-.407a.89724.89724,0,0,1,.46607-.11438.99275.99275,0,0,1,.46911.19629,5.70759,5.70759,0,0,1,.75757.62646,1.40652,1.40652,0,0,1-.54223.93134,1.27835,1.27835,0,0,1-.86451.23718,1.3283,1.3283,0,0,1-.83423-.40869A1.19607,1.19607,0,0,1,307.45715,398.78265Z" fill="#ea7706"/><path d="M303.59717,388.00342a6.56189,6.56189,0,0,1,1.00842.35986,1.83768,1.83768,0,0,1,.51489.33258,1.19111,1.19111,0,0,1,.269.43482,4.64566,4.64566,0,0,0,.5072.86432,1.22335,1.22335,0,0,1-1.098.59307,1.62153,1.62153,0,0,1-1.55286-1.44549A1.53887,1.53887,0,0,1,303.59717,388.00342Z" fill="#ea7706"/><path d="M314.76648,389.99738a1.11713,1.11713,0,0,1,1.09631.04162,1.23926,1.23926,0,0,1,.55945.85535,1.22481,1.22481,0,0,1-.24548.97943,1.19163,1.19163,0,0,1-.99964.42078c-.26928-.39234-.40417-.61359-.53283-.77369-.10767-.15826-.19117-.2243-.194-.29687C314.43762,391.07977,314.61182,390.886,314.76648,389.99738Z" fill="#ea7706"/><path d="M300.47632,399.02533a6.56819,6.56819,0,0,0,.93115.282c.2.04047.27014-.019.25147-.02868-.01514-.01355-.01331.08209.162.19085.17578.11872.44043.22827.87281.46289a1.26811,1.26811,0,0,1-.4856,1.06134,1.38559,1.38559,0,0,1-2.13586-.86584A1.20311,1.20311,0,0,1,300.47632,399.02533Z" fill="#ea7706"/><path d="M307.04651,393.07477a2.29121,2.29121,0,0,1,.78857-.32959.45691.45691,0,0,1,.39588.08008.44542.44542,0,0,1,.09875.39019,1.07663,1.07663,0,0,1-1.08813,1.13538.44541.44541,0,0,1-.394-.082.457.457,0,0,1-.0968-.39215A2.28934,2.28934,0,0,1,307.04651,393.07477Z" fill="#ea7706"/><path d="M313.78906,385.64221a2.73123,2.73123,0,0,1,.82129.06232c.16236.04767.24866.11377.26953.19562.02149.08172-.02527.17993-.14782.29651a1.34632,1.34632,0,0,1-1.52857.36944c-.16235-.04767-.24866-.11371-.267-.19623-.0188-.08239.02771-.18054.15052-.29718A2.73173,2.73173,0,0,1,313.78906,385.64221Z" fill="#ea7706"/><path d="M321.75647,392.29456a2.73044,2.73044,0,0,1,.82117.06231c.16247.04767.24865.11371.26965.19562.02136.08173-.02527.17993-.14783.29651a1.34654,1.34654,0,0,1-1.52868.36944c-.16224-.04766-.24866-.1137-.267-.19622-.01868-.0824.02783-.18061.15051-.29718A2.73337,2.73337,0,0,1,321.75647,392.29456Z" fill="#ea7706"/><path d="M309.05066,386.58417a2.73078,2.73078,0,0,1,.82117.06231c.16247.04767.24865.11371.26965.19562.02136.08173-.02539.17993-.14795.29651a1.34633,1.34633,0,0,1-1.52856.36945c-.16224-.04773-.24866-.11377-.267-.19623-.01868-.0824.02783-.1806.15051-.29718A2.73147,2.73147,0,0,1,309.05066,386.58417Z" fill="#ea7706"/><path d="M353.15857,387.60291a1.383,1.383,0,0,1-1.07068-.67438,1.63755,1.63755,0,0,1-.16235-1.26325,1.6005,1.6005,0,0,1,.92834-1.0697,1.13351,1.13351,0,0,1,1.29029.29706,1.93757,1.93757,0,0,0-.30457.92828c.01367.18555.05017.26178.01379.37421a2.91884,2.91884,0,0,1-.22253.45941C353.51074,386.87274,353.37952,387.14606,353.15857,387.60291Z" fill="#ea7706"/><path d="M370.28076,413.98743a1.11967,1.11967,0,0,1-.696.9851,1.37736,1.37736,0,0,1-1.48853-2.269c.47351.14111.74.26026.95691.34131a3.31767,3.31767,0,0,1,.35608.11829c.033.01538.00317.09375.12146.24316A2.84846,2.84846,0,0,0,370.28076,413.98743Z" fill="#ea7706"/><path d="M366.79761,406.772a1.11723,1.11723,0,0,1,1.09643.04163,1.23993,1.23993,0,0,1,.55945.85535,1.22474,1.22474,0,0,1-.2456.97937,1.19149,1.19149,0,0,1-.99964.42089c-.26929-.39233-.40417-.61364-.53283-.7738-.10755-.1582-.191-.22424-.194-.29687C366.46875,407.85437,366.64294,407.66064,366.79761,406.772Z" fill="#ea7706"/><path d="M354.14417,392.19836a6.57528,6.57528,0,0,0,.93115.282c.2.04052.27014-.01892.25158-.02869-.01525-.01349-.01342.08215.162.19086.17578.11877.44043.22827.87268.463a1.26807,1.26807,0,0,1-.48559,1.06128,1.38554,1.38554,0,0,1-2.13587-.86579A1.20332,1.20332,0,0,1,354.14417,392.19836Z" fill="#ea7706"/><path d="M365.82031,402.41687a2.73336,2.73336,0,0,1,.82117.06226c.16248.04766.24866.11377.26965.19561.02137.08173-.02539.18-.148.29651a1.34622,1.34622,0,0,1-1.52856.36951c-.16223-.04773-.24866-.11377-.267-.19629-.01868-.0824.02783-.18054.15051-.29712A2.73166,2.73166,0,0,1,365.82031,402.41687Z" fill="#ea7706"/><path d="M367.025,416.25415a2.72974,2.72974,0,0,1,.82117.06238c.16248.04761.24866.11377.26965.19555.02137.08179-.02526.17994-.14794.29651a1.3462,1.3462,0,0,1-1.52857.36951c-.16223-.04773-.24866-.11377-.267-.19629-.01867-.0824.02784-.18054.15052-.29712A2.73277,2.73277,0,0,1,367.025,416.25415Z" fill="#ea7706"/><path d="M361.08179,403.35876a2.73012,2.73012,0,0,1,.82116.06232c.16248.04767.24866.11377.26966.19562.02136.08173-.02527.17993-.14783.29651a1.34645,1.34645,0,0,1-1.52869.3695c-.16223-.04772-.24865-.11376-.267-.19628-.01868-.0824.02783-.18055.15051-.29718A2.73513,2.73513,0,0,1,361.08179,403.35876Z" fill="#ea7706"/><path d="M350.72205,383.75189a2.73273,2.73273,0,0,1,.82116.06226c.16248.04767.24866.11377.26966.19562.02136.08172-.02527.18-.14783.2965a1.34628,1.34628,0,0,1-1.52869.36945c-.16223-.04767-.24865-.11371-.267-.19623-.01867-.0824.02784-.18054.15052-.29712A2.73128,2.73128,0,0,1,350.72205,383.75189Z" fill="#ea7706"/><ellipse cx="320.89371" cy="364.91702" rx="1.84341" ry="4.89157" transform="translate(-71.89 651.02569) rotate(-84.74294)" fill="#13a497"/><ellipse cx="325.8868" cy="363.027" rx="4.89157" ry="1.84341" transform="matrix(0.3634, -0.93163, 0.93163, 0.3634, -130.74922, 534.70799)" fill="#e6560f"/><ellipse cx="307.45711" cy="382.47037" rx="4.89157" ry="1.84341" transform="translate(-160.59554 529.91588) rotate(-68.6906)" fill="#e6560f"/><ellipse cx="360.2041" cy="397.44305" rx="4.89157" ry="1.84341" transform="translate(-140.96604 588.58818) rotate(-68.6906)" fill="#e6560f"/><ellipse cx="339.00567" cy="382.04962" rx="1.84341" ry="4.89157" transform="translate(-72.49806 684.62429) rotate(-84.74294)" fill="#13a497"/><ellipse cx="318.79118" cy="402.90961" rx="1.84341" ry="4.89157" transform="translate(-111.63266 683.44355) rotate(-84.74294)" fill="#e6560f"/><ellipse cx="298.50975" cy="402.04471" rx="1.84341" ry="4.89157" transform="translate(-129.19456 662.46177) rotate(-84.74294)" fill="#13a497"/><path d="M337.92695,423.35819a4.68261,4.68261,0,0,0-.24646-3.07979c-.55131-1.23245-1.52452-1.50982-2.09421-2.21744-.77838-.96694-1.07973-2.98245,1.232-7.63781,0,0,2.263-4.59987,5.66674-6.52917a14.29342,14.29342,0,0,1,6.77555-1.84784,15.80114,15.80114,0,0,1,6.03642,1.23187,13.94709,13.94709,0,0,1,4.8044,2.587,12.29206,12.29206,0,0,1,3.07978,4.06528c1.54182,3.32156,1.02153,7.82008.78234,9.02931" fill="#f29e41"/><path d="M339.65955,412.62109a1.383,1.383,0,0,1-1.0708-.67443,1.63791,1.63791,0,0,1-.16224-1.26319,1.60034,1.60034,0,0,1,.92835-1.0697,1.1336,1.1336,0,0,1,1.29028.29712,1.937,1.937,0,0,0-.30456.92822c.01367.18555.05017.26184.01379.37415a2.91717,2.91717,0,0,1-.22253.45947C340.01172,411.891,339.88049,412.16431,339.65955,412.62109Z" fill="#ea7706"/><path d="M356.58362,413.68872a1.11957,1.11957,0,0,1,1.10071-.49329,1.37737,1.37737,0,0,1,.12548,2.71082c-.33569-.36255-.50427-.60083-.64965-.78113a3.28138,3.28138,0,0,1-.24622-.28308c-.02063-.03.045-.08227.01929-.27112A2.84879,2.84879,0,0,0,356.58362,413.68872Z" fill="#ea7706"/><path d="M347.626,416.97388c.431-.18274.65368-.3147.85327-.40711a.89869.89869,0,0,1,.46594-.11438.99189.99189,0,0,1,.46912.19641,5.69176,5.69176,0,0,1,.75757.62635,1.40627,1.40627,0,0,1-.54224.93139,1.27867,1.27867,0,0,1-.8645.23719,1.32861,1.32861,0,0,1-.83423-.4087A1.19645,1.19645,0,0,1,347.626,416.97388Z" fill="#ea7706"/><path d="M343.766,406.19458a6.56149,6.56149,0,0,1,1.00842.35986,1.84063,1.84063,0,0,1,.5149.33264,1.19033,1.19033,0,0,1,.26916.43482,4.63231,4.63231,0,0,0,.50708.86426,1.22287,1.22287,0,0,1-1.0979.59314,1.62154,1.62154,0,0,1-1.553-1.44544A1.53907,1.53907,0,0,1,343.766,406.19458Z" fill="#ea7706"/><path d="M354.9353,408.1886a1.11728,1.11728,0,0,1,1.09644.04162,1.23942,1.23942,0,0,1,.55945.85535,1.22473,1.22473,0,0,1-.24561.97937,1.19141,1.19141,0,0,1-.99963.42078c-.26929-.39221-.40418-.61353-.53284-.77368-.10754-.15821-.191-.22425-.194-.29688C354.60645,409.271,354.78064,409.07715,354.9353,408.1886Z" fill="#ea7706"/><path d="M340.64514,417.21655a6.57606,6.57606,0,0,0,.93115.282c.2.04052.27015-.01893.25147-.02869-.01514-.01355-.01331.08215.16211.19092.17578.11865.44031.22827.87268.46289a1.26794,1.26794,0,0,1-.4856,1.06128,1.38545,1.38545,0,0,1-2.13586-.86585A1.20308,1.20308,0,0,1,340.64514,417.21655Z" fill="#ea7706"/><path d="M347.21533,411.266a2.29013,2.29013,0,0,1,.78858-.32959.4569.4569,0,0,1,.39587.08008.445.445,0,0,1,.09876.39014,1.07654,1.07654,0,0,1-1.08814,1.13537.44538.44538,0,0,1-.394-.082.45688.45688,0,0,1-.0968-.39209A2.29224,2.29224,0,0,1,347.21533,411.266Z" fill="#ea7706"/><path d="M353.958,403.83344a2.73077,2.73077,0,0,1,.82116.06231c.16248.04767.24866.11377.26966.19556.02136.08179-.02539.18-.148.29651a1.34621,1.34621,0,0,1-1.52857.3695c-.16223-.04773-.24865-.11377-.267-.19628-.01868-.0824.02783-.18055.15051-.29712A2.73147,2.73147,0,0,1,353.958,403.83344Z" fill="#ea7706"/><path d="M361.92529,410.48572a2.73062,2.73062,0,0,1,.82129.06238c.16236.0476.24854.11377.26953.19555.02149.08179-.02527.17993-.14782.29651a1.34624,1.34624,0,0,1-1.52857.36951c-.16235-.04773-.24878-.11377-.267-.19629-.01879-.0824.02771-.18054.15039-.29712A2.73533,2.73533,0,0,1,361.92529,410.48572Z" fill="#ea7706"/><path d="M349.21948,404.77539a2.73043,2.73043,0,0,1,.82117.06226c.16247.04773.24866.11377.26965.19568.02137.08166-.02527.17993-.14782.2965a1.34669,1.34669,0,0,1-1.52869.36939c-.16223-.04761-.24866-.11365-.267-.19617-.01868-.0824.02783-.18054.15051-.29724A2.73366,2.73366,0,0,1,349.21948,404.77539Z" fill="#ea7706"/><ellipse cx="352.03204" cy="402.90961" rx="1.84341" ry="4.89157" transform="translate(-81.43748 716.54458) rotate(-84.74294)" fill="#13a497"/><path d="M278.62781,409.38049h98.52211a0,0,0,0,1,0,0v8.83324a37.96,37.96,0,0,1-37.96,37.96h-22.602a37.96,37.96,0,0,1-37.96-37.96v-8.83324A0,0,0,0,1,278.62781,409.38049Z" fill="#78c1d0"/><rect x="278.93342" y="416.45691" width="97.88086" height="3" fill="#e6560f"/><path d="M309.33747,270.13257H339.58a0,0,0,0,1,0,0v7.4394a15.12126,15.12126,0,0,1-15.12126,15.12126h0A15.12126,15.12126,0,0,1,309.33747,277.572v-7.4394A0,0,0,0,1,309.33747,270.13257Z" transform="translate(-87.41692 159.6544) rotate(-24.46738)" fill="#376f92"/><polygon points="309.638 157.327 252.132 157.327 243.472 119.637 318.298 119.637 309.638 157.327" fill="#e6560f"/><path d="M244.42278,123.77658h-7.6027a2.16513,2.16513,0,1,0,0,4.33026h8.59773Z" fill="#376f92"/><path d="M324.94978,123.77658H317.3473l-.995,4.33026h8.59751a2.16513,2.16513,0,1,0,0-4.33026Z" fill="#376f92"/><rect x="247.25764" y="135.11609" width="67.25391" height="2" fill="#376f92"/><path d="M259.45894,214.363h30.24255a0,0,0,0,1,0,0v7.43941a15.12125,15.12125,0,0,1-15.12125,15.12125h0a15.12126,15.12126,0,0,1-15.12126-15.12126V214.363A0,0,0,0,1,259.45894,214.363Z" transform="translate(-68.79775 133.98754) rotate(-24.46735)" fill="#376f92"/><path d="M286.4668,241.55609h30.24255a0,0,0,0,1,0,0v7.4394a15.12126,15.12126,0,0,1-15.12126,15.12126h0A15.12126,15.12126,0,0,1,286.4668,248.9955v-7.43941a0,0,0,0,1,0,0Z" transform="translate(-77.63511 147.6157) rotate(-24.46738)" fill="#376f92"/><rect x="282.28665" y="168.13545" width="1.7321" height="43.63838" fill="#376f92"/><rect x="309.53431" y="168.13545" width="1.7321" height="70.28386" fill="#376f92"/><rect x="332.165" y="168.13545" width="1.7321" height="99.40826" fill="#376f92"/><polygon points="375.146 216.41 368.807 216.41 366.208 168.136 377.744 168.136 375.146 216.41" fill="#376f92"/><circle cx="371.97634" cy="238.41941" r="31.77195" fill="#376f92"/><path d="M381.41211,263.338a24.15,24.15,0,0,1-8.77991,2.451,26.44344,26.44344,0,0,1-24.15893-11.98974,26.77628,26.77628,0,0,1-3.71473-8.69251c-.08666-.38586-.18957-.76807-.26159-1.15613l-.15625-1.1756a17.10926,17.10926,0,0,1-.22278-2.35351c-.01062-.78815-.07385-1.57453-.03674-2.36.034-.78613.119-1.56732.21118-2.34558a26.30164,26.30164,0,0,1,2.85779-8.84485,24.46072,24.46072,0,0,1,5.76135-7.06622,30.56382,30.56382,0,0,0-4.42566,7.68744,28.30815,28.30815,0,0,0-1.86353,8.45129,27.34487,27.34487,0,0,0,.89319,8.4784,24.75622,24.75622,0,0,0,3.46118,7.72729,26.71044,26.71044,0,0,0,5.72474,6.25336,26.14277,26.14277,0,0,0,7.41272,4.22266,29.61478,29.61478,0,0,0,8.48291,1.699A29.99355,29.99355,0,0,0,381.41211,263.338Z" fill="#133852"/><rect x="229.96109" y="157.32743" width="176.67467" height="10.80833" fill="#af2500"/><path d="M535.47785,204.99268c2.89553,0,2.90033-4.5,0-4.5-2.89554,0-2.90033,4.5,0,4.5Z" fill="#d04719"/><path d="M537.4042,230.809c2.89554,0,2.90033-4.5,0-4.5-2.89553,0-2.90033,4.5,0,4.5Z" fill="#d04719"/><path d="M565.5182,387.273a60.206,60.206,0,0,0,3.7914,5.38836c8.96182,12.01533.89238,34.91923.89238,34.91923s-15.44206,11.328-17.2088,14.96539-6.96306,16.83605-6.54736,19.33028,6.44343-.83141,8.00232-4.261,3.32564-4.15706,7.58662-2.70209,13.51042,4.05313,13.51042,4.05313l.64157-9.35337s24.52987-17.02679,29.80654-44.50847c2.07853-10.82526-13.5216-39.2561-13.5216-39.2561Z" fill="#fd8b66"/><path d="M569.854,393.68506a14.979,14.979,0,0,1,5.47962-3.79614,18.39794,18.39794,0,0,1,6.6112-1.44214,19.97561,19.97561,0,0,1,6.678.99829l.80286.25036.773.33246,1.52795.68506c.98218.52686,1.92237,1.12982,2.837,1.7406-1.07166-.317-2.07984-.73285-3.1156-1.05884l-1.56555-.43591-.77381-.22809-.79089-.15558c-.52771-.09838-1.05176-.20184-1.5719-.31836-.52649-.08068-1.05908-.11871-1.58606-.18078l-.79-.09778-.79455-.01935c-.52906-.00085-1.05909-.05249-1.58619-.01361a23.1345,23.1345,0,0,0-6.25329,1.03821A24.11465,24.11465,0,0,0,569.854,393.68506Z" fill="#d04719"/><path d="M568.88782,392.18188a20.49852,20.49852,0,0,1,3.191-5.40734,23.25764,23.25764,0,0,1,4.60583-4.36567,18.09442,18.09442,0,0,1,5.76868-2.72473,14.94888,14.94888,0,0,1,6.2904-.32531,26.39807,26.39807,0,0,0-5.932,1.43963,12.81667,12.81667,0,0,0-1.37964.58972,11.097,11.097,0,0,0-1.33984.667l-1.30542.73431-1.24024.84589A42.15951,42.15951,0,0,0,568.88782,392.18188Z" fill="#d04719"/><path d="M528.63141,455.28124a12.6108,12.6108,0,0,0,23.91478,7.44918C550.38778,463.311,530.07831,456.98485,528.63141,455.28124Z" fill="#78c1d0"/><rect x="436.77906" y="312.98521" width="3.00014" height="52.12114" transform="translate(-112.51244 399.6204) rotate(-44.00099)" fill="#376f92"/><rect x="555.23381" y="370.14382" width="42.84845" height="3.00021" transform="translate(-103.55747 460.8659) rotate(-40.27359)" fill="#376f92"/><polygon points="558.91 382.061 564.217 343.816 562.139 389.959 558.91 382.061" fill="#af2500"/><path d="M471.61107,369.55254c3.86071,0,3.86711-6,0-6-3.86072,0-3.86711,6,0,6Z" fill="#e6560f"/><path d="M491.29107,346.51254c3.86071,0,3.86711-6,0-6-3.86072,0-3.86711,6,0,6Z" fill="#e6560f"/><path d="M510.01107,324.43254c3.86071,0,3.86711-6,0-6-3.86072,0-3.86711,6,0,6Z" fill="#e6560f"/><path d="M529.69107,303.79254c3.86071,0,3.86711-6,0-6-3.86072,0-3.86711,6,0,6Z" fill="#e6560f"/><path d="M548.89107,295.63254c3.86071,0,3.86711-6,0-6-3.86072,0-3.86711,6,0,6Z" fill="#e6560f"/><path d="M528.73107,324.91254c3.86071,0,3.86711-6,0-6-3.86072,0-3.86711,6,0,6Z" fill="#e6560f"/><path d="M509.05107,347.95254c3.86071,0,3.86711-6,0-6-3.86072,0-3.86711,6,0,6Z" fill="#e6560f"/><path d="M489.85107,372.91254c3.86071,0,3.86711-6,0-6-3.86072,0-3.86711,6,0,6Z" fill="#e6560f"/><path d="M467.77107,394.99254c3.86071,0,3.86711-6,0-6-3.86072,0-3.86711,6,0,6Z" fill="#e6560f"/><path d="M495.13107,396.91254c3.86071,0,3.86711-6,0-6-3.86072,0-3.86711,6,0,6Z" fill="#e6560f"/><path d="M512.41107,370.51254c3.86071,0,3.86711-6,0-6-3.86072,0-3.86711,6,0,6Z" fill="#e6560f"/><path d="M531.61107,343.15254c3.86071,0,3.86711-6,0-6-3.86072,0-3.86711,6,0,6Z" fill="#e6560f"/><path d="M549.37107,318.67254c3.86071,0,3.86711-6,0-6-3.86072,0-3.86711,6,0,6Z" fill="#e6560f"/><path d="M531.13107,368.11254c3.86071,0,3.86711-6,0-6-3.86072,0-3.86711,6,0,6Z" fill="#e6560f"/><path d="M516.25107,398.83254c3.86071,0,3.86711-6,0-6-3.86072,0-3.86711,6,0,6Z" fill="#e6560f"/><path d="M461.05107,442.03254c3.86071,0,3.86711-6,0-6-3.86072,0-3.86711,6,0,6Z" fill="#e6560f"/><rect x="643.55176" y="309.42969" width="43.99512" height="4" fill="#ffc68d"/><rect x="643.55176" y="327.80371" width="43.99512" height="4" fill="#ffc68d"/><rect x="643.55176" y="346.17822" width="43.99512" height="4" fill="#ffc68d"/><rect x="643.55176" y="364.55273" width="43.99512" height="4" fill="#ffc68d"/><rect x="643.55176" y="382.92676" width="43.99512" height="4" fill="#ffc68d"/><rect x="643.55176" y="401.30127" width="43.99512" height="4" fill="#ffc68d"/><rect x="643.55176" y="419.67529" width="43.99512" height="4" fill="#ffc68d"/><rect x="660.96143" y="311.42969" width="4" height="18.37402" fill="#ffc68d"/><rect x="675.7124" y="329.80371" width="4" height="18.37451" fill="#ffc68d"/><rect x="656.04443" y="348.17822" width="4" height="18.37451" fill="#ffc68d"/><rect x="666.91357" y="366.55273" width="4" height="18.37402" fill="#ffc68d"/><rect x="645.95117" y="384.92676" width="4" height="18.37451" fill="#ffc68d"/><rect x="675.7124" y="384.92676" width="4" height="18.37451" fill="#ffc68d"/><rect x="656.04443" y="403.30127" width="4" height="18.37402" fill="#ffc68d"/><rect x="218.03906" y="247.26221" width="43.99463" height="4" fill="#ffc68d"/><rect x="218.03906" y="265.63623" width="43.99463" height="4" fill="#ffc68d"/><rect x="218.03906" y="284.01074" width="43.99463" height="4" fill="#ffc68d"/><rect x="218.03906" y="302.38477" width="43.99463" height="4" fill="#ffc68d"/><rect x="218.03906" y="320.75928" width="43.99463" height="4" fill="#ffc68d"/><rect x="218.03906" y="339.1333" width="43.99463" height="4" fill="#ffc68d"/><rect x="218.03906" y="357.50781" width="43.99463" height="4" fill="#ffc68d"/><rect x="235.44824" y="249.26221" width="4" height="18.37402" fill="#ffc68d"/><rect x="250.19971" y="267.63623" width="4" height="18.37451" fill="#ffc68d"/><rect x="230.53125" y="286.01074" width="4" height="18.37402" fill="#ffc68d"/><rect x="241.40088" y="304.38477" width="4" height="18.37451" fill="#ffc68d"/><rect x="220.43848" y="322.75928" width="4" height="18.37402" fill="#ffc68d"/><rect x="250.19971" y="322.75928" width="4" height="18.37402" fill="#ffc68d"/><rect x="230.53125" y="341.1333" width="4" height="18.37451" fill="#ffc68d"/></svg>