<svg id="Layer_1" data-name="Layer 1" xmlns="http://www.w3.org/2000/svg" viewBox="0 0 900 600"><path d="M307.0573,484.43125c-32.64942-6.55116-63.70576-17.64741-88.33069-42.03036-19.92372-19.728-32.84463-46.16526-37.26155-73.85348-5.676-35.581,3.284-72.98943,23.33617-102.7941,17.52649-26.05058,30.586-68.373,58.504-81.66657,34.55894-16.45575,81.09657-10.5305,117.16907-23.6969,65.741-23.99538,54.87743-30.33743,124.18475-21.89712,40.09538,4.88285,80.30241,16.86931,112.07988,42.70548a161.08843,161.08843,0,0,1,24.66037,25.008c51.77875,65.4169,52.76255,169.83779-2.71441,233.42507-15.31439,17.55324-34.84883,31.30769-56.05582,40.81841-47.1801,21.15894-100.887,22.30081-151.67411,20.10341-57.54136-2.48965-34.38971-3.074-91.524-10.84711C328.58215,488.23,317.73453,486.57366,307.0573,484.43125Z" fill="#ffe3c2"/><path d="M599.7721,501.43657c.51134-.076,1.02127-.16063,1.53228-.23862.48714-.07435.94477-.16184,1.43228-.26547-.13516.02873-.53882.11333.09051-.0185,1.3074-.27389,2.61274-.559,3.91092-.87395q.76446-.18547,1.526-.38276.3043-.07893.60815-.15966l.30358-.08121q.62758-.17172-.04194.01535a5.84554,5.84554,0,0,1,1.50155-.14965,11.451,11.451,0,0,0,2.44358-.58321c4.0955-1.36193,8.12784-2.98094,12.08664-4.69612,2.22352-.96338,4.384-2.15063,6.52631-3.27625,1.95346-1.02641,3.91145-2.07059,5.78591-3.23531q5.36337-3.33261,10.45726-7.07544a187.40966,187.40966,0,0,0,33.26448-31.32469,195.99826,195.99826,0,0,0,24.8425-38.334,193.12377,193.12377,0,0,0,8.75114-20.60054,176.5291,176.5291,0,0,0,10.17839-44.71545c.41811-4.32982.68185-8.67768.83758-13.02445.06621-1.84788-.10194-3.66225-.17414-5.50611q-.11063-2.82579-.31254-5.647a14.42607,14.42607,0,0,0-.64993-4.32463,13.46772,13.46772,0,0,0-2.97443-4.33337l1.78369,2.56954a18.171,18.171,0,0,0-.94889-2.13681c-.95672-2.04816-2.948-3.761-5.37677-3.45856a6.25718,6.25718,0,0,0-2.59716.92838,5.62628,5.62628,0,0,0-2.16742,3.33428,22.93816,22.93816,0,0,0-.684,2.26628l1.35648-2.81852a13.99419,13.99419,0,0,0-1.4526,2.33893,9.68149,9.68149,0,0,0-1.08023,4.64291c-.02436,1.03761-.02027,2.07607-.04054,3.1139-.0414,2.12148-.18858,4.24071-.22844,6.36111l.11288-2.07134c-.60161,3.13182-.41643,6.45158-.58571,9.63517q.058-1.06478.11607-2.12955a198.79118,198.79118,0,0,1-6.57112,40.11428q-1.486,5.60121-3.30971,11.10468l.62423-1.88241a194.208,194.208,0,0,1-15.84617,35.452q-2.75034,4.792-5.77331,9.4195l.96688-1.48A191.05964,191.05964,0,0,1,656.793,456.95251q-3.67046,3.75184-7.55657,7.28327l1.14094-1.03537a173.1827,173.1827,0,0,1-18.08062,14.36935c-3.448,2.375-6.89466,4.74619-10.48673,6.902-1.78605,1.07189-3.5244,2.19371-5.36189,3.181-.40842.21943-.8142.4675-1.23819.65573,1.22334-.54309-.3366.16731-.62808.31337q-1.54635.7749-3.11646,1.5013a21.78811,21.78811,0,0,0-3.73943,1.89715c-.1632.118-.33289.22914-.49942.34266s-.33347.22655-.50073.33906q.51768-.23511.15218-.07618c-.53506.20737-1.059.44743-1.59072.66408-2.21965.90444-4.47625,1.723-6.73635,2.518a2.91035,2.91035,0,0,0,1.22118,5.62876Z" fill="#ffe3c2"/><path d="M679.34911,203.92068q1.88367,3.29849,3.54366,6.71695c.13282.27428.26571.54865.39513.82455.02929.06247.443.98217.156.31746.31734.73495.59267,1.48862.92356,2.21767.54621,1.20342,1.12322,2.39161,1.65348,3.60269.12244.27967.24236.56043.36394.84049.41066.946-.30149-.74278.08517.2022.22829.55788.45794,1.11509.6801,1.67547.44573,1.12429.90673,2.24254,1.34535,3.36966q1.374,3.53075,2.50884,7.14841a127.74187,127.74187,0,0,1,3.6053,14.43881q.3399,1.79348.62224,3.5972c.09414.60139.18022,1.20383.26789,1.80617.158,1.085-.14224-1.14292-.00736-.0576.04985.40119.10143.80213.1489,1.20362q.4275,3.615.61993,7.25258c.13349,2.52938.32713,5.05666.4223,7.58809q.06846,1.82156.07642,3.64474a10.47427,10.47427,0,0,0,.15819,2.71813,5.47585,5.47585,0,0,0,2.41355,3.221c2.15887,1.23941,4.51449.03487,5.694-1.91487.9567-1.58143.876-3.72277.98284-5.54272a73.434,73.434,0,0,0,.1734-7.59176,108.025,108.025,0,0,0-2.03747-15.72568,107.706,107.706,0,0,0-10.90123-30.34051,96.86277,96.86277,0,0,0-9.96231-14.24645,2.48256,2.48256,0,0,0-3.287-.19571,2.51317,2.51317,0,0,0-.64476,3.22939Z" fill="#ffe3c2"/><path d="M174.26142,417.66423a9.56863,9.56863,0,0,1-.06033,1.35472,7.67122,7.67122,0,0,0,.19336,2.51037c.23321.91934.51759,1.82941.79431,2.73653.54117,1.77413,1.08282,3.53779,1.78045,5.25606,1.56623,3.8577,3.274,7.6538,5.216,11.3377a108.19792,108.19792,0,0,0,13.62253,19.65915A117.61089,117.61089,0,0,0,232.05144,488.879a90.97148,90.97148,0,0,0,12.9604,5.45041,54.68387,54.68387,0,0,0,6.01494,1.62255c1.066.21511,2.13557.42326,3.20972.59343a9.35916,9.35916,0,0,0,4.30391-.134,7.813,7.813,0,0,0,2.32277-1.10877,5.13723,5.13723,0,0,0,1.79618-6.85024,8.1023,8.1023,0,0,0-1.72184-2.28772,12.17042,12.17042,0,0,0-1.64537-1.28438,14.58916,14.58916,0,0,0-2.25945-.92557q-1.83555-.696-3.64442-1.459l1.63389.6895c-2.38842-1.01067-4.81691-1.9154-7.20637-2.92311l1.70238.71841c-2.00629-.85183-4.00347-1.72341-6.01208-2.57021l1.7282.7293a114.42445,114.42445,0,0,1-25.05989-14.67834l1.43918,1.11191a122.52,122.52,0,0,1-21.887-21.77884q.52859.68418,1.05716,1.36834c-2.77738-3.60076-5.41933-7.344-7.84862-11.1886-2.428-3.84258-4.52-7.86316-6.623-11.88416-.59706-1.14161-1.15859-2.30366-1.705-3.47024a9.62916,9.62916,0,0,0-1.46722-2.47217c-.20562-.234-.43511-.45216-.64526-.68332-.26109-.28716-.76532-1.09269-.06948-.01109a4.381,4.381,0,0,0-8.16376,2.21115Z" fill="#ffe3c2"/><path d="M493.352,185.14748h-5c0-4.05371-3.82959-5.53662-3.86816-5.55127l1.75586-4.68164C486.53017,175.02346,493.352,177.668,493.352,185.14748Z" fill="#376f92"/><path d="M190.28488,257.4548h-5c0-4.05371-3.82911-5.53614-3.86817-5.55079l1.75586-4.68164C183.46261,247.33077,190.28488,249.9753,190.28488,257.4548Z" fill="#ffb957"/><path d="M627.21163,232.02413h-5c0-3.97851-3.72851-5.49609-3.88769-5.55957l1.77539-4.67383C620.38937,221.89913,627.21163,224.54366,627.21163,232.02413Z" fill="#ffb957"/><path d="M255.71488,217.55823l-4.82129-1.32471c.08057-.29394,2.02783-7.209,7.6499-8.17578l.84766,4.92774C257.34134,213.338,256.01713,216.484,255.71488,217.55823Z" fill="#e6560f"/><path d="M283.0206,152.58562a11.8099,11.8099,0,0,1-6.90869-8.459l4.92773-.84619a6.74545,6.74545,0,0,0,3.90381,4.68994Z" fill="#e6560f"/><path d="M202.608,330.79548c-2.23975-3.0918-5.02393-2.14014-5.56006-1.917l-2.01611-4.57568a9.57741,9.57741,0,0,1,11.626,3.56006Z" fill="#e6560f"/><path d="M240.91755,346.74469l-4.63037-1.88623c.501-1.23291,3.22656-7.33642,7.75195-6.4917l-.9209,4.91407a.45483.45483,0,0,0,.20361-.0044C242.74567,343.47565,241.55475,345.19391,240.91755,346.74469Z" fill="#ffb957"/><path d="M285.77009,336.24616l-4.77539-1.48145c.4497-1.4497,2.95752-8.72216,8.18261-9.52832l.7627,4.94141C288.39313,330.41657,286.49225,333.91755,285.77009,336.24616Z" fill="#e6560f"/><path d="M566.25059,136.99759c-1.31446-3.6167-6.30469-2.88086-6.51661-2.84765l-.80957-4.9336c3.20411-.53515,9.83594.0503,12.02539,6.07227Z" fill="#ffb957"/><path d="M508.28878,137.19991l-4.47851-2.22314c.82031-1.6543,3.8164-7.05176,7.96289-7.05176v5C511.04562,133.0378,509.30929,135.156,508.28878,137.19991Z" fill="#e6560f"/><path d="M681.92374,208.64332a9.95823,9.95823,0,0,1-9.209-6.647l4.72461-1.63672-2.3623.81836,2.35449-.83984a4.94523,4.94523,0,0,0,5.1875,3.26318l.57812,4.9668A11.0703,11.0703,0,0,1,681.92374,208.64332Z" fill="#376f92"/><path d="M567.728,256.4851c-.85157-3.79639-7.125-3.041-7.18653-3.03369l-.6582-4.95654c3.75488-.50635,11.24023.28759,12.72363,6.8955Z" fill="#ffb957"/><path d="M422.41,234.46322l-4.77-1.499c.24316-.77734,2.53662-7.61572,8.17529-8.30664l.6084,4.96289C424.48471,229.85775,422.88217,232.98568,422.41,234.46322Z" fill="#e6560f"/><path d="M384.99763,140.14994c-6.99316-6.32715-22.86426-7.24024-23.02344-7.249l.05274-.998c.666.03515,16.38769.94238,23.6416,7.50488Z" fill="#ffb957"/><path d="M397.96834,154.11771c-19.49219-10.25-48.23633-2.10547-48.52442-2.02051l-.2793-.96093c.293-.084,29.41993-8.3418,49.26856,2.09668Z" fill="#ffb957"/><path d="M403.89216,154.92338c-15.626-12.60254-41.61523-12.23731-41.88183-12.24219l-.01953-1c.26562.002,26.61523-.36914,42.52832,12.46289Z" fill="#376f92"/><path d="M395.06111,158.06888c-3.624-1.8125-16.96289-1.666-17.09863-1.66308l-.01172-1c.55859-.00684,13.71875-.14942,17.55761,1.76855Z" fill="#e6560f"/><path d="M352.358,165.82377l-.27343-.96289c.31543-.09082,31.77539-8.88575,52.27246-2.39747l-.30274.95313C383.85115,157.01517,352.66951,165.7349,352.358,165.82377Z" fill="#ffb957"/><path d="M355.93806,173.98881l-.57031-.82227a54.29908,54.29908,0,0,1,27.99707-8.334c.31543,0,.63086.00292.95019.00976l-.02148,1A53.019,53.019,0,0,0,355.93806,173.98881Z" fill="#376f92"/><path d="M361.46248,181.68216l-.64063-.76757c.17578-.14649,17.66016-14.53028,37.04-14.53028.11426,0,.22852.001.34277.002l-.00879,1c-.11035-.001-.22363-.002-.335-.002C378.84919,167.38431,361.63533,181.53861,361.46248,181.68216Z" fill="#ffb957"/><path d="M361.49568,187.82767l-.707-.707c.37793-.37793,9.334-9.20605,13.92773-9.06738l-.03906,1c-.03711-.00195-.07617-.00293-.11426-.00293C370.32478,179.05033,361.58455,187.73881,361.49568,187.82767Z" fill="#e6560f"/><path d="M369.6656,192.47611l-.918-.39648c.06055-.14063,6.31348-14.18848,26.334-23.082l.40625.91407C375.84724,178.63627,369.72517,192.33939,369.6656,192.47611Z" fill="#376f92"/><path d="M405.13337,152.01615c-3.98144-7.79688-13.71-11.7334-13.80761-11.77246l.36914-.92969c.41308.16406,10.17285,4.10938,14.3291,12.24707Z" fill="#e6560f"/><path d="M396.648,139.0474c-4.96093-6.67676-14.51562-11.12305-14.61133-11.167l.418-.90821c.40039.18457,9.87989,4.59375,14.9961,11.4795Z" fill="#376f92"/><path d="M406.47419,145.93412c-6.2246-19.68457-17.042-29.01465-17.15039-29.10645l.64649-.76367c.11035.09375,11.13867,9.58887,17.457,29.56934Z" fill="#ffb957"/><rect x="403.3629" y="111.68872" width="0.99993" height="21.84431" transform="translate(-18.18794 119.1815) rotate(-16.4225)" fill="#e6560f"/><rect x="409.71052" y="122.61088" width="1" height="23.17285" fill="#ffb957"/><path d="M414.30916,133.1597l-.99024-.14453c.09961-.67871,2.49121-16.69531,8.36133-23.084l.73633.67578C416.75544,116.76908,414.33259,132.99662,414.30916,133.1597Z" fill="#376f92"/><path d="M414.30134,144.35013l-.97461-.2207c.04688-.207,4.8418-20.77734,19.08887-29.93359l.541.84179C419.04939,123.97513,414.34724,144.147,414.30134,144.35013Z" fill="#ffb957"/><rect x="431.12056" y="115.77431" width="12.39575" height="1.00028" transform="translate(33.08203 319.64624) rotate(-41.59638)" fill="#e6560f"/><path d="M421.79841,140.024l-.87109-.49023c.2832-.50293,7.00391-12.34473,13.39844-15.97364l.49414.86914C428.66658,127.92142,421.86677,139.90384,421.79841,140.024Z" fill="#376f92"/><path d="M425.34138,140.96634l-.752-.66015c.11035-.126,11.19238-12.66992,23.665-18.64942l.43164.90235C436.40193,128.44779,425.45076,140.84134,425.34138,140.96634Z" fill="#ffb957"/><path d="M415.38728,154.86673l-.74609-.666c.12793-.14356,13.0664-14.43164,37.27734-22.27441l.30859.95117C428.28865,140.63138,415.51326,154.72513,415.38728,154.86673Z" fill="#e6560f"/><rect x="399.5453" y="171.44732" width="10.8656" height="0.99996" transform="translate(97.65292 486.78753) rotate(-68.69734)" fill="#e6560f"/><path d="M366.91169,209.22416l-.90039-.43555c.13086-.27148,13.28418-27.2627,28.51758-35.64941l.48242.877C380.05818,182.24759,367.04158,208.95463,366.91169,209.22416Z" fill="#ffb957"/><rect x="380.01735" y="184.91396" width="18.35314" height="1.00028" transform="translate(-7.84381 353.3764) rotate(-48.40362)" fill="#376f92"/><rect x="375.84699" y="201.64376" width="18.11574" height="0.99966" transform="translate(24.79413 445.72939) rotate(-61.78264)" fill="#e6560f"/><rect x="388.42687" y="186.28852" width="12.85734" height="0.9992" transform="translate(29.99746 426.95324) rotate(-58.67131)" fill="#ffb957"/><path d="M395.77791,206.25638l-.98633-.16211c.12011-.72656,2.97558-17.84472,6.43945-22.5205l.80273.5957C398.71345,188.65189,395.8072,206.08158,395.77791,206.25638Z" fill="#e6560f"/><path d="M402.54939,216.1597c-4.6543-10.34179.93555-30.0498,1.17578-30.88379l.96094.27735c-.05762.20019-5.72852,20.18847-1.22461,30.19629Z" fill="#ffb957"/><path d="M412.51521,216.19193c-8.39453-15.59082-2.85156-44.05762-2.79492-44.34277l.98047.19531c-.05567.28223-5.52832,28.40039,2.69531,43.67285Z" fill="#376f92"/><path d="M474.40681,185.80423c-22.60156-18.21679-57.68945-19.94726-58.041-19.96191l.043-1c.35547.01563,35.77149,1.7627,58.625,20.18262Z" fill="#ffb957"/><path d="M416.6656,159.06595l-.55664-.83007A75.83523,75.83523,0,0,1,458.274,147.857l-.04883.99805A74.78144,74.78144,0,0,0,416.6656,159.06595Z" fill="#376f92"/><path d="M467.04744,162.65775c-10.543-7.69824-29.5166-7.12012-29.71192-7.10937l-.03515-1c.78808-.02832,19.51464-.60157,30.33691,7.30273Z" fill="#e6560f"/><path d="M441.13142,162.73685c-13.44043-3.69824-27.07226-.71289-27.208-.68066l-.21875-.97656c.1377-.03028,14.00489-3.06934,27.69239.69238Z" fill="#ffb957"/><path d="M450.52693,194.313c-16.0293-15.22851-31.56055-20.21-31.71582-20.25781l.29883-.95508c.15722.04981,15.91015,5.10157,32.10644,20.48828Z" fill="#ffb957"/><rect x="419.06107" y="170.71394" width="1.00008" height="13.10442" transform="translate(-5.54755 340.78202) rotate(-43.94323)" fill="#e6560f"/><path d="M417.51716,194.44584c-4.31347-6.38379-5.03125-14.97657-5.05957-15.33887l.9961-.07813c.00683.08594.72949,8.69629,4.8916,14.85645Z" fill="#ffb957"/><rect x="419.74759" y="180.84669" width="1.00008" height="14.24126" transform="translate(-34.7864 257.85162) rotate(-32.82918)" fill="#376f92"/><rect x="432.27195" y="186.29648" width="0.99921" height="22.94422" transform="translate(-18.93348 347.32192) rotate(-42.87852)" fill="#ffb957"/><path d="M435.76814,175.73588c-3.60938-3.52735-14.35156-4.73731-14.46-4.749l.10937-.99414c.45508.04981,11.19629,1.26172,15.04981,5.02832Z" fill="#376f92"/><path d="M453.87263,182.34525c-5.4414-5.18945-15.4414-9.293-15.542-9.334l.37695-.92579c.417.169,10.27539,4.21387,15.8545,9.53711Z" fill="#e6560f"/><path d="M433.8072,147.23783l-.52734-.84961c.5039-.3125,12.42676-7.63379,20.084-6.24414l-.17968.98437C445.91267,139.80228,433.9283,147.16263,433.8072,147.23783Z" fill="#ffb957"/><path d="M458.73005,170.94584c-8.57812-3.86914-19.30078-5.1045-19.4082-5.11621l.11133-.99415c.1084.0127,10.9873,1.26563,19.708,5.19825Z" fill="#376f92"/><path d="M654.81333,236.90758c-3.55632-8.73439-17.46035-16.44175-17.6-16.51872l.48045-.87638c.58484.32058,14.35679,7.95785,18.046,17.01741Z" fill="#ffb957"/><path d="M660.44113,255.11927c-13.11647-17.69084-42.54839-22.82128-42.84481-22.86969l.16519-.987c.3004.05142,30.12637,5.24584,43.48225,23.26113Z" fill="#ffb957"/><path d="M665.42911,258.41486c-8.61246-18.13341-32.18763-29.07809-32.42573-29.19814l.41619-.90949c.23848.117,24.14088,11.2127,32.91248,29.67744Z" fill="#376f92"/><path d="M656.10771,257.41823c-2.47907-3.20514-14.56114-8.85936-14.68472-8.9156l.42323-.9061c.50626.23615,12.42562,5.81637,15.05252,9.20973Z" fill="#e6560f"/><path d="M614.26755,245.88151l.17132-.98619c.3236.055,32.48464,5.7775,48.13831,20.51488l-.68622.72746C646.46444,251.6061,614.58679,245.93657,614.26755,245.88151Z" fill="#ffb957"/><path d="M613.95138,254.79133l-.15717-.98827a54.299,54.299,0,0,1,28.841,4.63567c.28421.13683.56715.2763.85191.421l-.45315.8917A53.019,53.019,0,0,0,613.95138,254.79133Z" fill="#376f92"/><path d="M615.5917,264.11958l-.24425-.96949c.22193-.05574,22.21511-5.4313,39.6767,2.97542.103.04956.20547.1.308.15045l-.4417.8972c-.099-.04875-.20065-.09877-.301-.14706C637.45962,258.77909,615.80971,264.06521,615.5917,264.11958Z" fill="#ffb957"/><path d="M612.95578,269.67118l-.33034-.94374c.50446-.17658,12.40352-4.24586,16.48241-2.12821l-.469.88407c-.03259-.01786-.06736-.03568-.10168-.0522C624.71843,265.59259,613.0744,269.62966,612.95578,269.67118Z" fill="#e6560f"/><path d="M618.30059,277.4035l-.65511-.75544c.11555-.10045,11.8433-10.04536,33.74-9.374l-.03047.99981C629.87387,267.61508,618.41357,277.30615,618.30059,277.4035Z" fill="#376f92"/><path d="M667.80857,256.33382c-.20517-8.7522-7.26311-16.51916-7.33416-16.59672l.73589-.67753c.301.327,7.38331,8.11544,7.59815,17.25056Z" fill="#e6560f"/><path d="M665.78879,240.968c-1.5736-8.16785-8.2538-16.31872-8.321-16.39983l.77056-.637c.28069.34,6.90923,8.42479,8.53208,16.84829Z" fill="#376f92"/><path d="M671.655,251.43544c2.93041-20.43626-2.769-33.53523-2.82682-33.665l.91376-.40764c.05876.13234,5.87661,13.47152,2.90232,34.21506Z" fill="#ffb957"/><rect x="668.49725" y="228.7881" width="21.84431" height="0.99993" transform="translate(343.50825 862.80795) rotate(-80.71446)" fill="#e6560f"/><rect x="668.5263" y="241.98115" width="23.17285" height="1" transform="translate(166.61024 750.08889) rotate(-64.29196)" fill="#ffb957"/><path d="M684.25575,243.32418l-.82952-.55977c.38417-.56832,9.48681-13.9621,17.54719-17.172l.3703.9283C693.56992,229.61713,684.34762,243.18741,684.25575,243.32418Z" fill="#376f92"/><path d="M679.39447,253.40355l-.7824-.62163c.132-.1662,13.37544-16.62042,30.18413-18.69017l.12231.99315C692.51091,237.105,679.52394,253.24044,679.39447,253.40355Z" fill="#ffb957"/><rect x="706.11419" y="237.59125" width="12.39575" height="1.00028" transform="matrix(0.9618, -0.27376, 0.27376, 0.9618, -37.9683, 204.10079)" fill="#e6560f"/><path d="M688.02608,252.75772l-.57221-.81958c.47333-.33029,11.66559-8.0846,19.00134-8.58045l.0682.99746C699.46431,244.83245,688.13978,252.67915,688.02608,252.75772Z" fill="#376f92"/><path d="M690.80956,255.14371l-.39116-.921c.15408-.06563,15.58055-6.56071,29.41243-6.53787l-.00251,1.00027C706.20566,248.6622,690.96233,255.07853,690.80956,255.14371Z" fill="#ffb957"/><path d="M675.811,263.35024l-.38334-.92373c.17754-.07385,18.03328-7.33513,43.24981-3.89924l-.13456.99089C693.6104,256.12039,675.9859,263.2773,675.811,263.35024Z" fill="#e6560f"/><rect x="653.59002" y="273.72478" width="10.8656" height="0.99996" transform="translate(-10.02324 522.99707) rotate(-42.9893)" fill="#e6560f"/><path d="M608.55422,291.29915l-.62234-.783c.23568-.18785,23.79543-18.80164,41.159-19.75019l.05426.99942C632.10145,272.69559,608.78816,291.11264,608.55422,291.29915Z" fill="#ffb957"/><rect x="629.78275" y="279.01147" width="18.35314" height="1.00028" transform="translate(-58.36934 268.17602) rotate(-22.69558)" fill="#376f92"/><rect x="618.77993" y="292.22479" width="18.11574" height="0.99966" transform="translate(-51.98013 425.82453) rotate(-36.0746)" fill="#e6560f"/><rect x="637.03583" y="282.70596" width="12.85734" height="0.9992" transform="translate(-50.5073 395.70039) rotate(-32.96327)" fill="#ffb957"/><path d="M635.85052,301.14688l-.81838-.57391c.4234-.60254,10.42183-14.78762,15.57112-17.498l.46487.885C646.13207,286.55835,635.95274,301.00209,635.85052,301.14688Z" fill="#e6560f"/><path d="M637.65582,313.00731c.29252-11.3371,13.87811-26.66954,14.45633-27.31676l.74552.66673c-.13876.15539-13.919,15.7052-14.20211,26.67613Z" fill="#ffb957"/><path d="M646.6212,317.35937c-.80053-17.689,16.54225-40.93359,16.717-41.166l.79869.60129c-.17258.23015-17.30078,23.19111-16.51613,40.51914Z" fill="#376f92"/><path d="M715.56828,316.82725c-12.46219-26.21786-43.3263-42.99766-43.63671-43.16336l.4725-.88238c.31351.16828,31.46606,17.10537,44.06715,43.61554Z" fill="#ffb957"/><path d="M675.14119,267.68832l-.14146-.98937a75.83529,75.83529,0,0,1,42.4936,8.939l-.47694.87807A74.78143,74.78143,0,0,0,675.14119,267.68832Z" fill="#376f92"/><path d="M718.978,292.7795c-6.16-11.50963-23.50633-19.21921-23.687-19.29426l.40211-.91626c.72236.31634,17.844,7.92315,24.16623,19.73959Z" fill="#e6560f"/><path d="M695.59291,281.60878c-10.5058-9.16244-24.08331-12.38588-24.21959-12.41573l.22652-.97479c.1372.03246,13.95006,3.3096,24.65094,12.63641Z" fill="#ffb957"/><path d="M690.36113,314.13506c-7.83675-20.67442-19.66978-31.9-19.78892-32.01048l.68354-.73092c.12006.11308,12.12233,11.49819,20.04091,32.38759Z" fill="#ffb957"/><rect x="669.35507" y="278.79081" width="1.00008" height="13.10442" transform="translate(-55.64896 223.93979) rotate(-18.23519)" fill="#e6560f"/><path d="M660.56118,299.93557c-1.11731-7.623,1.96338-15.67661,2.095-16.01534l.93138.3617c-.03112.0804-3.115,8.15194-2.0371,15.5078Z" fill="#ffb957"/><rect x="665.33163" y="288.16213" width="1.00008" height="14.24126" transform="translate(-31.46945 84.8193) rotate(-7.12114)" fill="#376f92"/><rect x="672.36467" y="298.07445" width="0.99921" height="22.94422" transform="translate(-61.39388 212.43651) rotate(-17.17048)" fill="#ffb957"/><path d="M685.12172,290.9946c-1.722-4.74389-10.876-10.49389-10.9686-10.55147l.52979-.84829c.38843.24228,9.54072,5.99361,11.3789,11.059Z" fill="#376f92"/><path d="M698.56711,304.80322c-2.65169-7.03619-9.8818-15.07138-9.95464-15.152l.74123-.67063c.30243.33311,7.43038,8.25408,10.14809,15.47054Z" fill="#e6560f"/><path d="M695.71692,264.46677l-.10659-.99427c.58958-.063,14.50813-1.48761,20.80461,3.08607l-.58891.809C709.84958,263.0184,695.85865,264.45155,695.71692,264.46677Z" fill="#ffb957"/><path d="M707.88862,296.63924c-6.05065-7.20722-15.17606-12.97163-15.26776-13.02879l.53155-.84744c.09216.05846,9.35073,5.90648,15.50231,13.23275Z" fill="#376f92"/><path d="M542.37781,141.82607a1.07617,1.07617,0,0,0,0-2.151,1.07617,1.07617,0,0,0,0,2.151Z" fill="#e6560f"/><path d="M553.4493,105.84373a1.07617,1.07617,0,0,0,0-2.151,1.07617,1.07617,0,0,0,0,2.151Z" fill="#e6560f"/><rect x="527.67246" y="97.78779" width="0.71717" height="11.19273" transform="translate(16.37343 269.85202) rotate(-29.10021)" fill="#e6560f"/><rect x="519.87623" y="110.09778" width="0.71693" height="11.76081" transform="translate(235.5582 566.59374) rotate(-70.28502)" fill="#e6560f"/><rect x="515.77908" y="128.16718" width="10.11104" height="0.71695" transform="translate(0.0958 257.43888) rotate(-27.76636)" fill="#ffb957"/><rect x="521.03335" y="130.24343" width="9.65896" height="0.71671" transform="translate(54.31055 397.48562) rotate(-43.45612)" fill="#e6560f"/><rect x="526.15013" y="104.909" width="0.71696" height="9.59055" transform="translate(78.64938 407.47676) rotate(-45.38898)" fill="#376f92"/><rect x="535.93015" y="99.39715" width="0.71702" height="10.62993" fill="#ffb957"/><rect x="536.29916" y="129.49439" width="0.71702" height="10.61033" fill="#ffb957"/><rect x="536.88376" y="105.19401" width="8.03544" height="0.71671" transform="translate(244.03164 569.86262) rotate(-68.44806)" fill="#e6560f"/><rect x="517.92837" y="119.90988" width="9.13393" height="0.71702" fill="#ffb957"/><rect x="522.11312" y="123.00866" width="7.49943" height="0.71669" transform="translate(-9.57025 194.51864) rotate(-20.77225)" fill="#376f92"/><rect x="529.0089" y="123.27729" width="3.48774" height="0.7172" transform="translate(34.26778 348.32899) rotate(-37.46286)" fill="#e6560f"/><rect x="526.33451" y="111.48026" width="0.7172" height="6.08962" transform="translate(174.69065 522.71117) rotate(-61.49444)" fill="#ffb957"/><rect x="533.30052" y="106.48929" width="0.71697" height="7.81395" transform="translate(-0.83978 216.65218) rotate(-22.93128)" fill="#ffb957"/><rect x="533.02373" y="112.27824" width="0.71704" height="5.00096" transform="translate(13.70581 280.93279) rotate(-29.87473)" fill="#e6560f"/><rect x="538.74412" y="127.12329" width="0.71703" height="7.32598" transform="matrix(0.95713, -0.28965, 0.28965, 0.95713, -14.77223, 161.75941)" fill="#e6560f"/><rect x="528.24114" y="135.73266" width="8.39095" height="0.71723" transform="translate(247.331 605.90439) rotate(-73.08645)" fill="#376f92"/><rect x="542.89095" y="110.08391" width="6.81624" height="0.71679" transform="translate(54.46671 372.62756) rotate(-39.49025)" fill="#e6560f"/><rect x="545.51808" y="112.45957" width="8.8505" height="0.71711" transform="translate(6.9771 255.48301) rotate(-26.31485)" fill="#376f92"/><rect x="551.49932" y="118.53123" width="0.71679" height="11.68536" transform="translate(263.60372 611.12379) rotate(-72.06665)" fill="#376f92"/><rect x="544.27964" y="129.26983" width="0.71705" height="10.69043" transform="translate(-5.82943 242.95417) rotate(-25.01746)" fill="#ffb957"/><rect x="545.94068" y="124.94358" width="0.71679" height="9.47064" transform="translate(54.65886 400.87844) rotate(-42.23565)" fill="#376f92"/><rect x="546.88696" y="119.63326" width="6.57418" height="0.71675" transform="translate(-8.136 46.64746) rotate(-4.81942)" fill="#e6560f"/><rect x="539.11883" y="111.5138" width="4.30368" height="0.71703" transform="translate(166.7914 518.38754) rotate(-59.02665)" fill="#ffb957"/><rect x="535.68181" y="114.52399" width="4.16579" height="0.71707" transform="translate(352.48282 632.62715) rotate(-82.36838)" fill="#376f92"/><rect x="529.11323" y="129.68946" width="4.38612" height="0.71725" transform="translate(209.69797 572.5037) rotate(-67.74156)" fill="#ffb957"/><rect x="529.84075" y="117.30855" width="0.717" height="3.42868" transform="translate(207.29096 556.06742) rotate(-66.19374)" fill="#ffb957"/><rect x="533.10716" y="126.39114" width="3.5947" height="0.7172" transform="translate(327.15872 635.69965) rotate(-81.12625)" fill="#ffb957"/><rect x="539.7836" y="116.54227" width="3.34315" height="0.71688" transform="translate(48.90487 370.34435) rotate(-39.41147)" fill="#ffb957"/><rect x="544.57065" y="117.096" width="3.87207" height="0.71681" transform="translate(-11.68875 147.16892) rotate(-15.17658)" fill="#ffb957"/><rect x="544.64877" y="122.68551" width="0.71716" height="4.71457" transform="translate(119.36584 487.66934) rotate(-53.35135)" fill="#e6560f"/><rect x="538.92871" y="123.1354" width="0.71687" height="3.54625" transform="translate(8.75079 282.90833) rotate(-29.62491)" fill="#376f92"/><rect x="541.6502" y="119.63239" width="0.71733" height="2.56354" transform="translate(164.49123 528.19082) rotate(-59.74751)" fill="#376f92"/><path d="M549.38976,129.27838a1.07617,1.07617,0,0,0,0-2.151,1.07617,1.07617,0,0,0,0,2.151Z" fill="#376f92"/><path d="M391.99383,282.25387a1.07617,1.07617,0,0,0,0-2.151,1.07617,1.07617,0,0,0,0,2.151Z" fill="#e6560f"/><path d="M403.06532,246.27153a1.07617,1.07617,0,0,0,0-2.15105,1.07617,1.07617,0,0,0,0,2.15105Z" fill="#e6560f"/><rect x="377.28848" y="238.2156" width="0.71717" height="11.19273" transform="translate(-70.90494 214.44063) rotate(-29.10021)" fill="#e6560f"/><rect x="369.49226" y="250.52558" width="0.71693" height="11.76081" transform="translate(3.7087 518.08061) rotate(-70.28502)" fill="#e6560f"/><rect x="365.39511" y="268.59498" width="10.11104" height="0.71695" transform="translate(-82.64092 203.54953) rotate(-27.76636)" fill="#ffb957"/><rect x="370.64938" y="270.67123" width="9.65896" height="0.71671" transform="translate(-83.49558 332.54277) rotate(-43.45612)" fill="#e6560f"/><rect x="375.76615" y="245.3368" width="0.71696" height="9.59055" transform="translate(-66.09071 342.22653) rotate(-45.38898)" fill="#376f92"/><rect x="385.54617" y="239.82495" width="0.71702" height="10.62993" fill="#ffb957"/><rect x="385.91518" y="269.9222" width="0.71702" height="10.61033" fill="#ffb957"/><rect x="386.49979" y="245.62181" width="8.03544" height="0.71671" transform="translate(18.2806 518.83517) rotate(-68.44806)" fill="#e6560f"/><rect x="367.5444" y="260.33768" width="9.13393" height="0.71702" fill="#ffb957"/><rect x="371.72914" y="263.43646" width="7.49943" height="0.71669" transform="translate(-69.14889 150.31248) rotate(-20.77225)" fill="#376f92"/><rect x="378.62492" y="263.70509" width="3.48774" height="0.7172" transform="translate(-82.16405 285.82193) rotate(-37.46286)" fill="#e6560f"/><rect x="375.95053" y="251.90806" width="0.7172" height="6.08962" transform="translate(-27.32731 463.96758) rotate(-61.49444)" fill="#ffb957"/><rect x="382.91654" y="246.91709" width="0.71697" height="7.81395" transform="translate(-67.43864 169.15616) rotate(-22.93128)" fill="#ffb957"/><rect x="382.63975" y="252.70604" width="0.71704" height="5.00096" transform="translate(-76.22559 224.68626) rotate(-29.87473)" fill="#e6560f"/><rect x="388.36014" y="267.5511" width="0.71703" height="7.32598" transform="translate(-61.89431 124.22012) rotate(-16.8372)" fill="#e6560f"/><rect x="377.85716" y="276.16046" width="8.39095" height="0.71723" transform="translate(6.34444 561.59866) rotate(-73.08645)" fill="#376f92"/><rect x="392.50698" y="250.51171" width="6.81624" height="0.71679" transform="translate(-69.16564 309.0464) rotate(-39.49025)" fill="#e6560f"/><rect x="395.1341" y="252.88737" width="8.8505" height="0.71711" transform="translate(-70.8591 203.36957) rotate(-26.31485)" fill="#376f92"/><rect x="401.11534" y="258.95903" width="0.71679" height="11.68536" transform="translate(25.91937 565.23478) rotate(-72.06665)" fill="#376f92"/><rect x="393.89566" y="269.69764" width="0.71705" height="10.69043" transform="translate(-79.32475 192.53271) rotate(-25.01746)" fill="#ffb957"/><rect x="395.5567" y="265.37138" width="0.71679" height="9.47064" transform="translate(-78.7758 336.25009) rotate(-42.23565)" fill="#376f92"/><rect x="396.50298" y="260.06106" width="6.57418" height="0.71675" transform="translate(-20.46582 34.50934) rotate(-4.81942)" fill="#e6560f"/><rect x="388.73485" y="251.9416" width="4.30368" height="0.71703" transform="translate(-26.6028 457.60543) rotate(-59.02665)" fill="#ffb957"/><rect x="385.29783" y="254.9518" width="4.16579" height="0.71707" transform="translate(82.88639 605.35374) rotate(-82.36838)" fill="#376f92"/><rect x="378.72925" y="270.11727" width="4.38612" height="0.71725" transform="translate(-13.68661 520.5615) rotate(-67.74156)" fill="#ffb957"/><rect x="379.45677" y="257.73635" width="0.717" height="3.42868" transform="translate(-10.87083 502.22357) rotate(-66.19374)" fill="#ffb957"/><rect x="382.72318" y="266.81894" width="3.5947" height="0.7172" transform="translate(61.22567 605.8814) rotate(-81.12625)" fill="#ffb957"/><rect x="389.39962" y="256.97008" width="3.34315" height="0.71688" transform="translate(-74.44701 306.80016) rotate(-39.41147)" fill="#ffb957"/><rect x="394.18667" y="257.52381" width="3.87207" height="0.71681" transform="translate(-53.69685 112.69681) rotate(-15.17658)" fill="#ffb957"/><rect x="394.2648" y="263.11331" width="0.71716" height="4.71457" transform="translate(-53.91976 423.62019) rotate(-53.35135)" fill="#e6560f"/><rect x="388.54473" y="263.5632" width="0.71687" height="3.54625" transform="translate(-80.32363 226.92725) rotate(-29.62491)" fill="#376f92"/><rect x="391.26623" y="260.06019" width="0.71733" height="2.56354" transform="translate(-31.431 467.96575) rotate(-59.74751)" fill="#376f92"/><path d="M399.00578,269.70619a1.07617,1.07617,0,0,0,0-2.15106,1.07617,1.07617,0,0,0,0,2.15106Z" fill="#376f92"/><path d="M227.34668,211.75077a1.07617,1.07617,0,0,0,0-2.151,1.07617,1.07617,0,0,0,0,2.151Z" fill="#e6560f"/><path d="M238.41817,175.76843a1.07617,1.07617,0,0,0,0-2.151,1.07617,1.07617,0,0,0,0,2.151Z" fill="#e6560f"/><rect x="212.64132" y="167.71249" width="0.71717" height="11.19273" transform="translate(-57.3999 125.46678) rotate(-29.10021)" fill="#e6560f"/><rect x="204.8451" y="180.02248" width="0.71693" height="11.76081" transform="translate(-39.02579 316.36518) rotate(-70.28502)" fill="#e6560f"/><rect x="200.74795" y="198.09188" width="10.11104" height="0.71695" transform="translate(-68.75419 118.72772) rotate(-27.76636)" fill="#ffb957"/><rect x="206.00222" y="200.16813" width="9.65896" height="0.71671" transform="translate(-80.13319 199.97384) rotate(-43.45612)" fill="#e6560f"/><rect x="211.11899" y="174.8337" width="0.71696" height="9.59055" transform="translate(-64.91729 204.02623) rotate(-45.38898)" fill="#376f92"/><rect x="220.89901" y="169.32184" width="0.71702" height="10.62993" fill="#ffb957"/><rect x="221.26802" y="199.41909" width="0.71702" height="10.61033" fill="#ffb957"/><rect x="221.85263" y="175.11871" width="8.03544" height="0.71671" transform="translate(-20.31046 321.09515) rotate(-68.44806)" fill="#e6560f"/><rect x="202.89724" y="189.83458" width="9.13393" height="0.71702" fill="#ffb957"/><rect x="207.08198" y="192.93336" width="7.49943" height="0.71669" transform="translate(-54.84714 87.33679) rotate(-20.77225)" fill="#376f92"/><rect x="213.97776" y="193.20199" width="3.48774" height="0.7172" transform="translate(-73.23959 171.13435) rotate(-37.46286)" fill="#e6560f"/><rect x="211.30337" y="181.40496" width="0.7172" height="6.08962" transform="translate(-51.44152 282.42456) rotate(-61.49444)" fill="#ffb957"/><rect x="218.26938" y="176.41399" width="0.71697" height="7.81395" transform="translate(-52.98034 99.43354) rotate(-22.93128)" fill="#ffb957"/><rect x="217.99259" y="182.20294" width="0.71704" height="5.00096" transform="translate(-62.98651 133.30591) rotate(-29.87473)" fill="#e6560f"/><rect x="223.71298" y="197.04799" width="0.71703" height="7.32598" transform="translate(-48.53101 73.50718) rotate(-16.8372)" fill="#e6560f"/><rect x="213.21" y="205.65736" width="8.39095" height="0.71723" transform="translate(-42.94869 354.08161) rotate(-73.08645)" fill="#376f92"/><rect x="227.85982" y="180.00861" width="6.81624" height="0.71679" transform="translate(-61.91296 188.246) rotate(-39.49025)" fill="#e6560f"/><rect x="230.48694" y="182.38427" width="8.8505" height="0.71711" transform="translate(-56.66696 123.07477) rotate(-26.31485)" fill="#376f92"/><rect x="236.46818" y="188.45593" width="0.71679" height="11.68536" transform="translate(-20.95348 359.79248) rotate(-72.06665)" fill="#376f92"/><rect x="229.24851" y="199.19453" width="0.71705" height="10.69043" transform="translate(-64.95675 116.28967) rotate(-25.01746)" fill="#ffb957"/><rect x="230.90954" y="194.86828" width="0.71679" height="9.47064" transform="translate(-74.12955 207.27378) rotate(-42.23565)" fill="#376f92"/><rect x="231.85582" y="189.55795" width="6.57418" height="0.71675" transform="translate(-15.12458 20.42714) rotate(-4.81942)" fill="#e6560f"/><rect x="224.08769" y="181.4385" width="4.30368" height="0.71703" transform="translate(-46.06622 282.21642) rotate(-59.02665)" fill="#ffb957"/><rect x="220.65067" y="184.44869" width="4.16579" height="0.71707" transform="translate(9.98353 381.0249) rotate(-82.36838)" fill="#376f92"/><rect x="214.0821" y="199.61416" width="4.38612" height="0.71725" transform="translate(-50.71837 324.38547) rotate(-67.74156)" fill="#ffb957"/><rect x="214.80962" y="187.23325" width="0.717" height="3.42868" transform="translate(-44.55456 309.54046) rotate(-66.19374)" fill="#ffb957"/><rect x="218.07602" y="196.31583" width="3.5947" height="0.7172" transform="translate(-8.36417 383.57751) rotate(-81.12625)" fill="#ffb957"/><rect x="224.75246" y="186.46697" width="3.34315" height="0.71688" transform="translate(-67.12533 186.23617) rotate(-39.41147)" fill="#ffb957"/><rect x="229.53951" y="187.0207" width="3.87207" height="0.71681" transform="translate(-40.98182 67.13417) rotate(-15.17658)" fill="#ffb957"/><rect x="229.61764" y="192.61021" width="0.71716" height="4.71457" transform="translate(-63.72259 263.10261) rotate(-53.35135)" fill="#e6560f"/><rect x="223.89757" y="193.0601" width="0.71687" height="3.54625" transform="translate(-66.9952 136.32275) rotate(-29.62491)" fill="#376f92"/><rect x="226.61907" y="189.55709" width="0.71733" height="2.56354" transform="translate(-52.22548 290.75848) rotate(-59.74751)" fill="#376f92"/><path d="M234.35862,199.20308a1.07617,1.07617,0,0,0,0-2.151,1.07617,1.07617,0,0,0,0,2.151Z" fill="#376f92"/><path d="M560.68986,228.153a1.73824,1.73824,0,0,0,0-3.47439,1.73824,1.73824,0,0,0,0,3.47439Z" fill="#e6560f"/><path d="M578.57257,170.03423a1.73824,1.73824,0,0,0,0-3.47439,1.73824,1.73824,0,0,0,0,3.47439Z" fill="#e6560f"/><rect x="536.93772" y="157.02225" width="1.15838" height="18.07853" transform="translate(-12.9116 282.3771) rotate(-29.10021)" fill="#e6560f"/><rect x="524.34523" y="176.90539" width="1.15799" height="18.9961" transform="translate(172.36867 617.67628) rotate(-70.28502)" fill="#e6560f"/><rect x="517.7275" y="206.09114" width="16.33139" height="1.15801" transform="translate(-35.72669 268.79349) rotate(-27.76636)" fill="#ffb957"/><rect x="526.21422" y="209.44471" width="15.60119" height="1.15763" transform="translate(1.91881 424.86194) rotate(-43.45612)" fill="#e6560f"/><rect x="534.47885" y="168.52446" width="1.15803" height="15.49069" transform="translate(33.80719 433.38012) rotate(-45.38898)" fill="#376f92"/><rect x="550.27557" y="159.62168" width="1.15813" height="17.1695" fill="#ffb957"/><rect x="550.8716" y="208.23487" width="1.15813" height="17.13784" fill="#ffb957"/><rect x="551.81586" y="168.9848" width="12.97886" height="1.15764" transform="translate(195.50635 626.54671) rotate(-68.44806)" fill="#e6560f"/><rect x="521.19904" y="192.75393" width="14.75315" height="1.15813" fill="#ffb957"/><rect x="527.95826" y="197.75909" width="12.11311" height="1.1576" transform="translate(-35.62909 202.28307) rotate(-20.77225)" fill="#376f92"/><rect x="539.09635" y="198.19298" width="5.63342" height="1.15842" transform="translate(-9.13182 370.61423) rotate(-37.46286)" fill="#e6560f"/><rect x="534.77666" y="179.13837" width="1.15843" height="9.83597" transform="translate(118.11709 566.67165) rotate(-61.49444)" fill="#ffb957"/><rect x="546.02818" y="171.07694" width="1.15806" height="12.62112" transform="translate(-25.9181 226.99127) rotate(-22.93128)" fill="#ffb957"/><rect x="545.58111" y="180.42727" width="1.15817" height="8.07757" transform="translate(-19.30785 296.55785) rotate(-29.87473)" fill="#e6560f"/><rect x="554.82071" y="204.40506" width="1.15815" height="11.83296" transform="translate(-37.11124 169.88948) rotate(-16.8372)" fill="#e6560f"/><rect x="537.85625" y="218.31093" width="13.55309" height="1.15848" transform="translate(176.76155 676.28337) rotate(-73.08645)" fill="#376f92"/><rect x="561.51869" y="176.88298" width="11.00961" height="1.15776" transform="translate(16.57654 401.10556) rotate(-39.49025)" fill="#e6560f"/><rect x="565.76203" y="180.72016" width="14.29537" height="1.15828" transform="translate(-21.00088 272.76069) rotate(-26.31485)" fill="#376f92"/><rect x="575.42295" y="190.52713" width="1.15776" height="18.87423" transform="translate(208.39581 686.41015) rotate(-72.06665)" fill="#376f92"/><rect x="563.76171" y="207.87216" width="1.15818" height="17.26722" transform="translate(-38.61204 258.96938) rotate(-25.01746)" fill="#ffb957"/><rect x="566.44462" y="200.88438" width="1.15776" height="15.29701" transform="translate(7.03502 435.28057) rotate(-42.23565)" fill="#376f92"/><rect x="567.97305" y="192.30712" width="10.61865" height="1.1577" transform="translate(-14.17856 48.84664) rotate(-4.81942)" fill="#e6560f"/><rect x="555.42594" y="179.19254" width="6.95133" height="1.15815" transform="matrix(0.51464, -0.85741, 0.85741, 0.51464, 117.13144, 566.46007)" fill="#ffb957"/><rect x="549.87445" y="184.05462" width="6.7286" height="1.15821" transform="translate(296.76849 708.45215) rotate(-82.36838)" fill="#376f92"/><rect x="539.26487" y="208.54994" width="7.08447" height="1.1585" transform="translate(143.65409 632.2739) rotate(-67.74156)" fill="#ffb957"/><rect x="540.43996" y="188.55224" width="1.15811" height="5.53802" transform="translate(147.59647 609.08206) rotate(-66.19374)" fill="#ffb957"/><rect x="545.71587" y="203.22247" width="5.80617" height="1.15842" transform="translate(262.62792 714.41603) rotate(-81.12625)" fill="#ffb957"/><rect x="556.49968" y="187.31456" width="5.39987" height="1.15791" transform="translate(7.86756 397.75334) rotate(-39.41147)" fill="#ffb957"/><rect x="564.23174" y="188.20894" width="6.25419" height="1.15779" transform="translate(-29.63621 155.11575) rotate(-15.17658)" fill="#ffb957"/><rect x="564.35793" y="197.23713" width="1.15837" height="7.61499" transform="translate(66.42229 534.29506) rotate(-53.35135)" fill="#e6560f"/><rect x="555.11886" y="197.96379" width="1.15789" height="5.72792" transform="translate(-26.63239 300.94459) rotate(-29.62491)" fill="#376f92"/><rect x="559.51463" y="192.30572" width="1.15863" height="4.14064" transform="translate(110.00746 580.26389) rotate(-59.74751)" fill="#376f92"/><path d="M572.01558,207.886a1.73824,1.73824,0,0,0,0-3.47439,1.73824,1.73824,0,0,0,0,3.47439Z" fill="#376f92"/><path d="M628.03418,355.368a12.78674,12.78674,0,0,1,.56738,3.95618,15.60429,15.60429,0,0,1-.50879,4.00232,12.474,12.474,0,0,1-1.7102,3.7113,7.937,7.937,0,0,1-3.1023,2.59168,18.01135,18.01135,0,0,0,2.09864-3.194,22.72427,22.72427,0,0,0,1.26733-3.50183c.34375-1.20276.56519-2.447.793-3.70423Z" fill="#d04719"/><path d="M567.08373,241.51772c2.28272,6.58192,16.04075,9.9172,17.9268,8.58355s4.83956,3.60275,9.10046-.48877c0,0,7.65445,1.41369,8.37466-2.21591,0,0,7.50569-.56448,6.97092-7.67512a7.55809,7.55809,0,0,0,4.76888-7.902s6.63053-4.27753,3.90821-11.42229c0,0,2.96115-8.16811-2.703-9.52984,0,0,2.68494-6.55825-2.12976-7.18933,0,0,1.332-6.05923-5.06283-6.57148,0,0,1.70176-9.06657-6.885-7.03034,0,0,.13206-6.16762-5.36873-5.35666,0,0-2.08961-4.01419-5.6642-1.36173,0,0-4.89339.96392-1.92458,6.10379C588.39546,189.4616,564.801,234.93579,567.08373,241.51772Z" fill="#5e1212"/><path d="M415.90223,377.62554c-.33035.54673-.73245,1.18459-1.16868,1.86395h-13.9472L366.75755,341.597l-2.80945-51.48869a68.66371,68.66371,0,0,1,14.64088-2.32s3.9969,24.31237,4.69612,26.91808c3.92553,14.62892,28.66579,48.06546,28.66579,48.06546,3.66456,2.09349,18.66686,9.62417,19.97844,11.97729s-5.29666,2.92734-8.67252.89343C419.88037,373.60835,418.10421,373.98672,415.90223,377.62554Z" fill="#fd8b66"/><path d="M285.49576,168.82755c1.76169,2.67147,3.97755,4.87258,6.50627,5.54182,7.25145,1.9195,4.69221-12.79674,4.69221-12.79674,7.03811-3.839,1.91936-18.34189,1.91936-18.34189,7.678,0,8.95775-6.185,8.95775-6.185,5.97183,4.90541,10.024-2.98592,10.024-2.98592,1.493,10.45056,9.81083,7.03825,9.81083,7.03825,2.77257,9.171,10.4507,4.491,10.4507,4.491a5.38321,5.38321,0,0,0,7.06574,2.32058h0s4.66444,46.72111-2.80035,54.1859c-7.46465,7.46465-14.5029,7.678-14.5029,7.678s.801,24.95361,1.68012,26.01988c0,0-8.19246,14.07636-11.54793,14.07636-3.35532,0-14.87231-13.64982-17.00515-16.63559-2.13283-2.98592-11.517-17.9155-11.73032-22.39437-.21334-4.47873,1.493-24.52693,1.493-24.52693S274.11242,179.05494,285.49576,168.82755Z" fill="#fd8b66"/><path d="M317.59542,134.05978s-4.05229,7.89129-10.02407,2.9859c0,0-1.27967,6.18506-8.95768,6.18506,0,0,5.11867,14.50291-1.91951,18.34192,0,0,2.55934,14.71619-4.69212,12.79668s-11.94357-16.42241-10.6639-18.55519-4.25913-4.9054-.21006-9.81079c0,0-2.136-8.10457,1.703-9.171,0,0,0-8.10457,7.678-8.10457a8.13815,8.13815,0,0,1,8.09941-5.75851s4.05744-7.46473,11.94873-5.11867c0,0,8.53112-3.839,10.45062,2.13278,0,0,6.8249-3.41245,7.89129,1.70623,0,0,6.39835-1.91951,7.46474,4.90539,0,0,9.59751-2.55934,8.10456,6.8249,0,0,6.61162-.63983,6.18507,5.332,0,0,4.47884,1.91951,1.9195,5.97179,0,0-.63983,5.332-6.39834,2.55934,0,0-5.11868,3.43683-8.31785-1.694,0,0-7.678,4.67992-10.45062-4.491C327.40621,141.098,319.08836,144.51041,317.59542,134.05978Z" fill="#5e1212"/><path d="M331.88379,156.1377a.7499.7499,0,0,1-.59277-1.209c3.21777-4.16016,8.77441-1.9209,11.26562-.15234A.75016.75016,0,0,1,341.68848,156c-.24512-.17383-6.07032-4.21777-9.21-.15332A.75264.75264,0,0,1,331.88379,156.1377Z" fill="#490000"/><path d="M307.51367,156.1377a.7499.7499,0,0,1-.59277-1.209c3.21582-4.16211,8.77637-1.91992,11.26465-.15234A.74988.74988,0,0,1,317.31836,156c-.24512-.1748-6.07227-4.2207-9.21-.15332A.75264.75264,0,0,1,307.51367,156.1377Z" fill="#490000"/><path d="M337.00372,166.16872c2.89554,0,2.90033-4.5,0-4.5-2.89553,0-2.90033,4.5,0,4.5Z" fill="#490000"/><path d="M312.9033,166.16872c2.89553,0,2.90033-4.5,0-4.5-2.89554,0-2.90033,4.5,0,4.5Z" fill="#490000"/><path d="M326.33984,159.86646a52.8466,52.8466,0,0,1,2.98877,5.94506,63.25621,63.25621,0,0,1,2.344,6.2334c.31787,1.06873.62231,2.14466.85864,3.24988a10.6452,10.6452,0,0,1,.27686,3.511,2.17242,2.17242,0,0,1-.15479.52917,1.96492,1.96492,0,0,1-.14648.28113,2.49,2.49,0,0,1-.271.27869,3.38542,3.38542,0,0,1-.87646.4187,4.95372,4.95372,0,0,1-1.79395.20324,7.64,7.64,0,0,1-3.22559-1.02868,9.7745,9.7745,0,0,0,3.21753.29223,4.1862,4.1862,0,0,0,1.44214-.38171,3.13066,3.13066,0,0,0,.57471-.361,1.67351,1.67351,0,0,0,.074-.39038,11.76861,11.76861,0,0,0-.50048-3.031c-.26587-1.04321-.57276-2.0885-.907-3.12695-.63379-2.08936-1.342-4.1676-2.00342-6.267C327.5647,164.1261,326.90527,162.02051,326.33984,159.86646Z" fill="#d04719"/><path d="M324.63354,188.44568a3.79315,3.79315,0,0,1-2.81518.12744,5.62009,5.62009,0,0,1-2.4231-1.56726,6.62993,6.62993,0,0,1-1.4082-2.43054,9.90866,9.90866,0,0,1-.28052-1.34961,7.23672,7.23672,0,0,1,.04517-1.3916,8.79857,8.79857,0,0,1,.87036,1.03674c.27173.33484.52954.66443.76636.99072.51269.62635.95923,1.25415,1.47778,1.79016a12.64884,12.64884,0,0,0,1.63721,1.51184A11.03971,11.03971,0,0,0,324.63354,188.44568Z" fill="#e8233b"/><path d="M327.61939,209.77354s-11.94348,0-17.59535-6.39838c0,0,4.5848,12.4812,17.8617,13.54538Z" fill="#d04719"/><path d="M286.8833,173.94275a12.16275,12.16275,0,0,0,.29468,3.47143,4.03885,4.03885,0,0,0,.7,1.35083c.3208.455.77124.8501,1.24487,1.38648a3.17055,3.17055,0,0,1-2.02246-.5116,3.11146,3.11146,0,0,1-1.35473-1.78161,3.684,3.684,0,0,1,.01562-2.18225A3.47255,3.47255,0,0,1,286.8833,173.94275Z" fill="#d04719"/><path d="M264.70253,304.32681l-39.812-4.55s5.11875-42.37126,11.94366-49.90707,40.3806-28.01054,40.3806-28.01054l11.80134-11.01942c.21334,4.47887,9.59749,19.40845,11.73032,22.39437,2.13284,2.98577,13.64983,16.63559,17.00515,16.63559,3.35547,0,11.54793-14.07636,11.54793-14.07636-.64913-.78741-1.25531-14.59171-1.52825-21.76375l.11456.0094s5.91875,9.17095,9.11786,9.59749c3.19926.42668,33.05813,11.30378,33.05813,13.863,0,2.55952,11.23263,50.04931,11.23263,50.04931s-17.34664,1.42187-17.34664,2.55938c0,1.13744,11.65916,211.57186,11.65916,211.57186H238.54033s1.13743-57.44295,5.11875-75.07387C247.64011,408.97527,264.70253,304.32681,264.70253,304.32681Z" fill="#78c1d0"/><g opacity="0.58"><polygon points="363.948 290.108 368.498 257.121 371.606 288.523 363.948 290.108" fill="#2b8daf"/></g><g opacity="0.58"><path d="M264.70253,304.32681s5.97171-14.21856,8.531-27.584c0,0,.56874,33.84012-1.42185,41.51813s-12.35064,17.895-12.35064,17.895Z" fill="#2b8daf"/></g><g opacity="0.58"><path d="M317.75146,249.86975a106.703,106.703,0,0,1,3.16431,13.70874c.80274,4.61914,1.346,9.27857,1.73194,13.95471a132.537,132.537,0,0,1,.30224,14.08216,73.50165,73.50165,0,0,1-1.75732,13.98791c-.15113-4.70618-.34253-9.33276-.5835-13.96594-.18457-2.31555-.24707-4.62891-.45605-6.9408-.12574-2.31311-.3191-4.62585-.49512-6.9375l-1.05713-13.8966C318.25,259.22046,317.92676,254.57068,317.75146,249.86975Z" fill="#2b8daf"/></g><path d="M311.908,265.23992c3.86071,0,3.86711-6,0-6-3.86071,0-3.86711,6,0,6Z" fill="#581d58"/><path d="M314.183,284.00839c3.86071,0,3.8671-6,0-6-3.86072,0-3.86711,6,0,6Z" fill="#581d58"/><path d="M314.75171,302.20812c3.86071,0,3.86711-6,0-6-3.86072,0-3.86711,6,0,6Z" fill="#581d58"/><rect x="300.04516" y="317.87287" width="114.90572" height="71.32948" rx="3" fill="#ffb957"/><rect x="346.7906" y="317.87283" width="21.41504" height="71.32947" fill="#376f92"/><rect x="300.04524" y="342.83004" width="114.90552" height="21.4151" fill="#376f92"/><path d="M325.82635,182.34424a9.98635,9.98635,0,0,1,6.03833-1.5708,12.38656,12.38656,0,0,1,3.18189.54736,15.89329,15.89329,0,0,1,1.52954.56934l1.39087.71777a42.25233,42.25233,0,0,0,4.76147,2.27466c1.68824.70068,3.44629,1.34546,5.39746,2.0918a11.79808,11.79808,0,0,1-6.10449.9729,14.75561,14.75561,0,0,1-6.02417-1.85913l-1.15991-.65772c-.37695-.18677-.74536-.39844-1.13355-.5708-.76171-.38428-1.56738-.68384-2.39379-1.00146A40.33328,40.33328,0,0,0,325.82635,182.34424Z" fill="#490000"/><path d="M327.33319,182.57593a40.35477,40.35477,0,0,0-5.6853-.20264c-.88355.05469-1.742.09864-2.584.23633-.42187.04785-.83691.13916-1.25268.2041l-1.304.27906a14.75147,14.75147,0,0,1-6.3042-.03565,11.79907,11.79907,0,0,1-5.53076-2.761c2.08521-.126,3.95581-.21314,5.77661-.37452a42.263,42.263,0,0,0,5.22461-.73974l1.54248-.26709a15.84046,15.84046,0,0,1,1.62988-.08374,12.384,12.384,0,0,1,3.19922.4331A9.9869,9.9869,0,0,1,327.33319,182.57593Z" fill="#490000"/><path d="M260.1791,303.80985s-7.56241,38.907-6.99367,40.32885,29.43238,13.08106,34.551,15.356,13.24694,2.9148,16.01956,2.275,16.36529-1.06639,16.36529-1.06639,1.12351,2.98589-3.35533,5.332a34.16337,34.16337,0,0,1-10.45063,2.98589s13.80753,21.47,20.55764,22.89185c0,0,.5332,4.19447-4.47884,4.40775,0,0-1.38631,4.05228-6.8249,0,0,0-3.51909,2.4527-8.42448-1.173a9.275,9.275,0,0,1-7.3581-1.493c-3.839-2.55933-8.31784-8.31784-8.95767-14.50291,0,0-62.60692-6.49894-69.6353-21.079-2.38487-4.94729,8.03571-57.80014,8.03571-57.80014Z" fill="#fd8b66"/><path d="M306.07837,386.08337a5.359,5.359,0,0,0,1.07226,1.37427l1.23926,1.255a21.982,21.982,0,0,1,2.29322,2.74511,23.54021,23.54021,0,0,0,2.23632,2.54029c.82178.79541,1.70484,1.54467,2.64991,2.32263a8.96883,8.96883,0,0,1-3.38257-1.40967,10.899,10.899,0,0,1-2.70166-2.55115c-.71363-1.00744-1.3357-1.90771-2.00513-2.91833a15.70618,15.70618,0,0,1-.92871-1.56262A3.58957,3.58957,0,0,1,306.07837,386.08337Z" fill="#d04719"/><path d="M307.14478,395.14771a6.21735,6.21735,0,0,1-2.20923-1.11133,8.47981,8.47981,0,0,1-2.88233-3.94483,6.16839,6.16839,0,0,1-.38257-2.44409c.54053.65064.98267,1.2876,1.425,1.91187l1.31958,1.83252,1.3418,1.81713C306.21631,393.821,306.68945,394.43555,307.14478,395.14771Z" fill="#d04719"/><path d="M322.39429,396.32068a18.25847,18.25847,0,0,1-3.38941-1.77808,26.30716,26.30716,0,0,1-3.042-2.29651,20.4848,20.4848,0,0,1-2.64746-2.77563,9.86235,9.86235,0,0,1-1.85181-3.38709c.88111.94239,1.79541,1.75757,2.70874,2.59.92017.82007,1.84107,1.64087,2.781,2.44739A66.56029,66.56029,0,0,1,322.39429,396.32068Z" fill="#d04719"/><path d="M228.303,344.13867c.19043,1.42188.37939,2.79968.596,4.1615a39.11248,39.11248,0,0,0,.843,3.99988,23.6217,23.6217,0,0,0,1.3816,3.77869,18.56244,18.56244,0,0,0,2.29809,3.416,8.69914,8.69914,0,0,1-3.30176-2.81384,13.61132,13.61132,0,0,1-1.82446-3.988,17.11086,17.11086,0,0,1-.55859-4.298A14.19462,14.19462,0,0,1,228.303,344.13867Z" fill="#d04719"/><path d="M473.80685,386.468c.30681.50776.68024,1.10015,1.08537,1.7311h12.95306l31.60326-35.19159,2.6092-47.81862a63.7696,63.7696,0,0,0-13.59729-2.15464s-3.712,22.57941-4.36139,24.99939c-3.64573,13.58619-26.62252,44.6394-26.62252,44.6394-3.40336,1.94427-17.3363,8.93817-18.55439,11.12356s4.91912,2.71868,8.05435.82975C470.11227,382.73718,471.76183,383.08859,473.80685,386.468Z" fill="#fd8b66"/><path d="M594.91807,192.553c-1.63612,2.481-3.694,4.52527-6.04251,5.14681-6.73457,1.78268-4.35776-11.8846-4.35776-11.8846-6.53643-3.56536-1.78254-17.0345-1.78254-17.0345-7.13071,0-8.31925-5.74417-8.31925-5.74417-5.54616,4.55576-9.30952-2.77308-9.30952-2.77308C563.72,169.96907,555.995,166.8,555.995,166.8c-2.57495,8.51725-9.70579,4.17091-9.70579,4.17091a4.9995,4.9995,0,0,1-6.5621,2.15517h0s-4.332,43.39088,2.60074,50.32358c6.93258,6.93258,13.46915,7.13071,13.46915,7.13071s-.74391,23.17494-1.56036,24.16521c0,0,7.60851,13.073,10.72481,13.073,3.11615,0,13.81222-12.67687,15.793-15.44982,1.98081-2.77309,10.69606-16.6385,10.8942-20.79813.19813-4.15949-1.38654-22.77866-1.38654-22.77866S605.49,202.05135,594.91807,192.553Z" fill="#fd8b66"/><path d="M565.10645,160.26341s3.76344,7.32881,9.30956,2.77306c0,0,1.18846,5.7442,8.31919,5.7442,0,0-4.75382,13.46916,1.78268,17.03452,0,0-2.37691,13.66723,4.35767,11.88455s11.09224-15.25184,9.90379-17.23259,3.95554-4.55575.19509-9.11149c0,0,1.98374-7.52688-1.58162-8.51726,0,0,0-7.52689-7.13073-7.52689a7.55807,7.55807,0,0,0-7.52209-5.348s-3.76823-6.93266-11.097-4.75382c0,0-7.923-3.56537-9.70572,1.98076,0,0-6.33842-3.16922-7.3288,1.5846,0,0-5.94228-1.78268-6.93266,4.55575,0,0-8.91341-2.37691-7.52688,6.33842,0,0-6.14035-.59422-5.7442,4.9519,0,0-4.15959,1.78268-1.78268,5.54612,0,0,.59423,4.9519,5.94228,2.37691,0,0,4.75382,3.19187,7.72495-1.57328,0,0,7.13073,4.34634,9.70572-4.17092C555.995,166.79991,563.71992,169.96913,565.10645,160.26341Z" fill="#5e1212"/><path d="M551.83594,180.82129a.75264.75264,0,0,1-.59473-.291c-2.88379-3.73535-8.25293-.00683-8.47949.15332a.75017.75017,0,0,1-.86817-1.22363c2.32715-1.65137,7.52247-3.74414,10.53516.15234a.7499.7499,0,0,1-.59277,1.209Z" fill="#490000"/><path d="M574.46973,180.82129a.75264.75264,0,0,1-.59473-.291c-2.88379-3.73535-8.25488-.00683-8.48047.15332a.75016.75016,0,0,1-.86816-1.22363c2.32812-1.65234,7.52343-3.74316,10.53613.15234a.7499.7499,0,0,1-.59277,1.209Z" fill="#490000"/><path d="M547.08155,190.244c2.89553,0,2.90033-4.5,0-4.5-2.89554,0-2.90033,4.5,0,4.5Z" fill="#490000"/><path d="M569.46412,190.244c2.89553,0,2.90033-4.5,0-4.5-2.89554,0-2.90033,4.5,0,4.5Z" fill="#490000"/><path d="M556.98535,184.23059c-1.02124,4.00855-2.37842,7.86194-3.57178,11.73889-.311.96338-.59619,1.93311-.84423,2.89966a11.06109,11.06109,0,0,0-.47266,2.79785c.00513.1836.071.35828.051.33777a2.883,2.883,0,0,0,.52294.33313,3.85188,3.85188,0,0,0,1.32691.36084,9.1676,9.1676,0,0,0,2.98779-.24512,7.03659,7.03659,0,0,1-2.99609.98157,4.62057,4.62057,0,0,1-1.67847-.18237,3.15484,3.15484,0,0,1-.82471-.391,1.61467,1.61467,0,0,1-.54931-1.03626,9.886,9.886,0,0,1,.24927-3.27783c.2185-1.02856.501-2.02893.79565-3.02258a56.7478,56.7478,0,0,1,2.189-5.78785A46.62443,46.62443,0,0,1,556.98535,184.23059Z" fill="#d04719"/><path d="M558.57,210.77271a10.89322,10.89322,0,0,0,1.95385-1.241,12.83737,12.83737,0,0,0,1.49243-1.4021c.47632-.49194.89161-1.06665,1.375-1.63965.22339-.29907.46949-.60034.729-.90747a7.91156,7.91156,0,0,1,.84106-.95019,6.4092,6.4092,0,0,1,.07471,1.30517,8.83158,8.83158,0,0,1-.24341,1.26612,6.04764,6.04764,0,0,1-1.30517,2.28027,5.17114,5.17114,0,0,1-2.27857,1.45727A3.47623,3.47623,0,0,1,558.57,210.77271Z" fill="#d04719"/><path d="M555.797,230.58036s11.09216,0,16.34117-5.9423c0,0-4.258,11.59154-16.58854,12.57987Z" fill="#d04719"/><path d="M593.62939,197.30359a3.15564,3.15564,0,0,1,1.0835,1.604,3.397,3.397,0,0,1,.02417,2.04834,3.01383,3.01383,0,0,1-3.1875,2.11389c.43213-.519.84082-.895,1.12842-1.319a3.87024,3.87024,0,0,0,.62671-1.23913A12.51839,12.51839,0,0,0,593.62939,197.30359Z" fill="#d04719"/><path d="M614.22918,318.394l36.97426-4.22565s-4.75389-39.35108-11.09233-46.34974-37.50231-26.014-37.50231-26.014l-10.96015-10.234c-.19814,4.15963-8.91339,18.025-10.8942,20.79813-1.98081,2.77295-12.67688,15.44982-15.793,15.44982-3.1163,0-10.72481-13.073-10.72481-13.073.60286-.73129,1.16584-13.55162,1.41931-20.21245l-.10638.00873s-5.49687,8.51725-8.46795,8.91339c-2.97122.39627-24.70109,15.10843-27.65336,17.34565-1.89455,1.43568-13.4804,42.01107-13.4804,42.01107s16.11019,1.32052,16.11019,2.377c0,1.05636-10.82811,196.49122-10.82811,196.49122H638.52657s1.0307-60.87157-2.66683-77.24577c-1.13757-5.038-17.92289-53.91207-20.54524-69.06626-.758-4.38048,0-11.5347,0-11.5347Z" fill="#e6560f"/><polygon points="522.058 305.189 517.832 274.553 514.945 303.717 522.058 305.189" fill="#581d58"/><path d="M607.62677,331.3349c1.07493,4.14632,4.77635,9.08671,7.68774,12.49849h0L614.22912,318.394s-5.546-13.20508-7.9229-25.61783C606.30622,292.77614,605.778,324.20416,607.62677,331.3349Z" fill="#af2500"/><path d="M561.26855,319.63281c-2.26562-20.8291,3.14551-51.59375,3.2002-51.90234l.98437.17578c-.05468.30664-5.44042,30.93262-3.19042,51.61914Z" fill="#581d58"/><path d="M570.38847,282.307c3.86071,0,3.86711-6,0-6-3.86071,0-3.86711,6,0,6Z" fill="#581d58"/><path d="M568.27566,299.73766c3.86071,0,3.86711-6,0-6-3.86071,0-3.86711,6,0,6Z" fill="#581d58"/><path d="M567.74746,316.64013c3.86071,0,3.86711-6,0-6-3.86071,0-3.86711,6,0,6Z" fill="#581d58"/><polygon points="581.406 345.617 615.315 343.833 615.315 355.368 581.406 360.066 581.406 345.617" fill="#fd8b66"/><path d="M522.05774,313.64013s52.335-65.65743,80.55106-71.83552c0,0,11.51125-.93859,21.43705,13.749,0,0-49.23757,188.42548-109.969,194.70176C514.07688,450.25541,509.58263,352.0041,522.05774,313.64013Z" fill="#376f92"/><rect x="474.69039" y="332.72269" width="110.16729" height="66.24518" rx="3" fill="#78c1d0"/><rect x="493.72387" y="279.72979" width="85.36707" height="52.99291" rx="3" fill="#ffb957"/><g opacity="0.53"><rect x="493.72385" y="323.82861" width="85.36715" height="8.89406" fill="#ca5303"/></g><rect x="480.17397" y="238.45863" width="76.65542" height="41.27116" rx="3" fill="#78c1d0"/><g opacity="0.53"><path d="M552.6579,285.53182v-5.802H493.72385v8.802H549.6579A3,3,0,0,0,552.6579,285.53182Z" fill="#ca5303"/></g><path d="M592.11925,212.12a4.5,4.5,0,1,0-4.5-4.5,4.55065,4.55065,0,0,0,4.5,4.5Z" fill="#2b8daf"/><path d="M556.05251,200.93352a1.5009,1.5009,0,0,0,0-3,1.5009,1.5009,0,0,0,0,3Z" fill="#d04719"/><path d="M558.3992,181.148c2.29887,0,0-5.52047,0-5.52047s-2.30268,5.52047,0,5.52047Z" fill="#d04719"/><polygon points="556.829 260.618 505.948 260.618 505.948 238.459 490.411 238.459 490.411 260.618 480.174 260.618 480.174 273.615 490.411 273.615 490.411 279.307 505.948 279.307 505.948 273.615 556.829 273.615 556.829 260.618" fill="#376f92"/><rect x="493.72363" y="295.7373" width="84.85156" height="2" fill="#78a7c6"/><rect x="493.72363" y="313.62891" width="84.85156" height="2" fill="#78a7c6"/><polygon points="584.858 354.338 541.666 354.338 541.666 332.723 520.251 332.723 520.251 354.338 474.691 354.338 474.691 375.753 520.251 375.753 520.251 398.968 541.666 398.968 541.666 375.753 584.858 375.753 584.858 354.338" fill="#376f92"/><path d="M618.43019,317.91385s7.02336,36.13375,6.49516,37.45425-27.33447,12.14865-32.08829,14.26146-12.30271,2.707-14.87769,2.11281-15.1988-.99038-15.1988-.99038-1.04342,2.77306,3.11617,4.9519a31.72848,31.72848,0,0,0,9.70572,2.77306s-12.82334,19.93963-19.09231,21.26014c0,0-.49519,3.89549,4.15959,4.09357,0,0,1.28749,3.76344,6.33843,0,0,0,3.26825,2.27787,7.824-1.08942a8.61385,8.61385,0,0,0,6.83362-1.38653c3.56536-2.37691,7.725-7.725,8.31918-13.46916,0,0,50.27088-7.67632,61.42051-21.26017,3.2361-3.94261-4.21168-51.99653-4.21168-51.99653Z" fill="#fd8b66"/><path d="M575.80249,394.323a3.30681,3.30681,0,0,1-.41772,1.68249,14.16884,14.16884,0,0,1-.85132,1.46228c-.61621.94519-1.1875,1.77784-1.8523,2.71643a9.95447,9.95447,0,0,1-2.52563,2.36976,8.11767,8.11767,0,0,1-3.16724,1.27661c.86792-.74268,1.679-1.44678,2.43482-2.18958a23.14169,23.14169,0,0,0,2.0603-2.35876,19.555,19.555,0,0,1,2.13989-2.54334l1.16211-1.15454A5.08209,5.08209,0,0,0,575.80249,394.323Z" fill="#d04719"/><path d="M574.81226,402.74121c.40991-.6792.83984-1.25745,1.25952-1.83008l1.23218-1.68945,1.23144-1.68945c.41675-.57434.83765-1.15931,1.3606-1.7566a5.52845,5.52845,0,0,1-.31812,2.28882,7.36233,7.36233,0,0,1-1.06274,2.04126,7.43748,7.43748,0,0,1-1.62183,1.63294A5.57751,5.57751,0,0,1,574.81226,402.74121Z" fill="#d04719"/><path d="M560.64966,403.83069a53.6305,53.6305,0,0,1,5.01782-4.86963l2.5874-2.26111c.85279-.7666,1.70874-1.51318,2.54615-2.377a8.92905,8.92905,0,0,1-1.689,3.17407,17.573,17.573,0,0,1-2.45386,2.5896,22.01987,22.01987,0,0,1-2.8352,2.12537A16.12677,16.12677,0,0,1,560.64966,403.83069Z" fill="#d04719"/><rect x="612.22007" y="310.18173" width="38.41533" height="2.0008" transform="translate(-34.60936 83.30083) rotate(-7.34701)" fill="#78a7c6"/><path d="M615.82394,310.47763a1.5009,1.5009,0,0,0,0-3,1.5009,1.5009,0,0,0,0,3Z" fill="#78a7c6"/><path d="M623.50394,308.79763a1.5009,1.5009,0,0,0,0-3,1.5009,1.5009,0,0,0,0,3Z" fill="#78a7c6"/><path d="M633.58394,307.35763a1.5009,1.5009,0,0,0,0-3,1.5009,1.5009,0,0,0,0,3Z" fill="#78a7c6"/><path d="M623.66394,305.91763a1.5009,1.5009,0,0,0,0-3,1.5009,1.5009,0,0,0,0,3Z" fill="#78a7c6"/><path d="M689.291,503.17969H177.26855a1.5,1.5,0,1,1,0-3H689.291a1.5,1.5,0,0,1,0,3Z" fill="#490000"/></svg>