<svg id="Layer_1" data-name="Layer 1" xmlns="http://www.w3.org/2000/svg" viewBox="0 0 900 600"><path d="M448.19253,522.6754l.18934,12.81514s-21.96882,2.28842-27.461,16.47662h52.31434V522.6754Z" fill="#fd8b66"/><path d="M511.55253,522.6754l.18934,12.81514s-21.96882,2.28842-27.461,16.47662h52.31434V522.6754Z" fill="#fd8b66"/><path d="M736.9812,315.16127c-.89365,32.79723-11.32254,64.64133-25.898,93.97664-13.2554,26.67888-40.871,47.89124-65.76866,63.77229a269.75992,269.75992,0,0,1-84.80222,35.4926c-24.61279,5.61823-50.32422,7.31948-75.38589,9.60078-15.11449,1.37537-30.28226,2.433-45.46028,2.84909a430.55266,430.55266,0,0,1-46.70854-1.07815c-67.89422-5.50752-135.686-27.93944-187.16421-71.46073-8.3771-7.0817-16.33814-14.73936-22.71271-23.58585-10.00663-13.88875-15.75807-30.19618-21.38655-46.25765-6.79475-19.39423-13.649-39.057-15.09808-59.50069-2.36124-33.27686,9.83651-66.10075,26.61533-95.16547,7.92414-13.72888,17.05555-27.04994,29.20616-37.43164,30.8767-26.38168,75.31212-29.63657,116.33479-31.14107,23.2887-.85266,46.86228-1.78117,69.618-7.09607,19.27127-4.50318,35.35732-15.82366,53.75338-22.53439,64.68851-23.60431,140.056-13.13654,197.42295,23.60021a239.879,239.879,0,0,1,25.2564,18.601C708.66666,204.787,738.55739,257.327,736.9812,315.16127Z" fill="#ffe3c2"/><path d="M297.49221,102.53328c-1.15793,5.01707-.88034,10.33082,1.60905,14.7729,1.97582,3.52575,5.15,6.21377,8.41749,8.59247a88.36577,88.36577,0,0,0,41.49545,16.23783c13.32832,1.56288,27.40418-.11388,38.89735-7.04163,25.00242-15.07069,26.95529-54.8161,7.5472-75.327C365.69123,28.31074,313.409,66.7607,299.40376,96.98A28.50471,28.50471,0,0,0,297.49221,102.53328Z" fill="#ffe3c2"/><path d="M242.65651,142.38329a46.091,46.091,0,0,0-14.54443.21752c-2.19187.35353-4.36207.74031-6.51178,1.304a45.9141,45.9141,0,0,0-7.11745,2.76389,121.49588,121.49588,0,0,0-22.11817,13.25026,189.724,189.724,0,0,0-20.01142,16.99431,163.63113,163.63113,0,0,0-16.92043,19.63533q-2.0635,2.79072-4.01757,5.66016a37.72663,37.72663,0,0,0-3.68167,6.1046c-.91934,2.12126-2.1195,4.13348-3.151,6.20431q-.77678,1.55945-1.52262,3.134a15.61133,15.61133,0,0,0-1.25654,4.34289,4.29255,4.29255,0,0,0,7.17369,4.176,20.42882,20.42882,0,0,0,2.27465-2.308c.76143-.98555,1.40386-2.06763,2.09628-3.10335q1.66762-2.49432,3.41985-4.93069c.12494-.17377.59876-.89082.124-.18678-.43.63763-.092.13769.03445.0025.34307-.36675.68-.74536,1.00905-1.12467a37.70668,37.70668,0,0,0,2.51561-3.46112q1.74922-2.54834,3.58629-5.03481.86109-1.16576,1.74129-2.31719c.1173-.15353.23689-.30552.35271-.46018-.98371,1.31383-.50637.65356-.28129.36633q.535-.68282,1.07347-1.36288,1.86048-2.33885,3.79853-4.61456c2.62632-3.08383,5.30682-6.13481,8.071-9.09587a178.5159,178.5159,0,0,1,17.74266-16.58955q1.12086-.91295,2.25643-1.80756c.33588-.26456,1.67063-1.26762.29668-.23868.41247-.30889.81807-.62721,1.2291-.938q2.4681-1.86613,4.96218-3.70027c3.36382-2.46605,6.80625-4.83771,10.379-6.99223,2.15987-1.30251,4.3702-2.52415,6.64143-3.62195,1.06207-.51334,2.12891-1.00626,3.181-1.53985q.82429-.41805,1.66171-.80953.37027-.17267.74323-.3397c.099-.04433,1.11154-.474.57413-.25317-.47738.19621.16293-.06255.214-.08244.38631-.15063.77084-.3076,1.16127-.44748.5171-.18527,1.04315-.34292,1.57151-.4926,1.17951-.33413,2.37277-.61988,3.57717-.849q.39938-.076.80048-.14328c.08742-.0147,1.07282-.16253.688-.11063-.37543.05067.29562-.033.29538-.03295.41024-.04339.82017-.08508,1.23148-.11709a36.64,36.64,0,0,1,3.71477-.09114,3.53414,3.53414,0,0,0,3.47935-3.07176c.2112-1.57167-.79364-3.62162-2.53758-3.887Z" fill="#ffe3c2"/><path d="M747.10975,241.92144q1.78772,4.337,3.35717,8.75881.78329,2.21235,1.50929,4.44445.37788,1.161.74048,2.32692a11.25128,11.25128,0,0,0,.33066,1.07772c-.04018.00264-.18008-1.4934-.01991-.06043.3894,3.484,1.61122,6.90506,2.4179,10.32278.71917,3.047,1.46087,6.12977,1.91879,9.22859q-.12222-.90974-.24448-1.81947c.39284,4.37326,1.31275,8.69463,1.89793,13.04758l-.26621-1.9811a234.10945,234.10945,0,0,1,1.56715,46.548q-.44627,6.58617-1.32012,13.13284.15109-1.1244.30217-2.24877a200.88274,200.88274,0,0,1-9.65786,40.21381q-1.94656,5.50377-4.22031,10.88324.44149-1.04616.883-2.09234-1.83556,4.32867-3.87406,8.56687c-1.64141,3.40207-3.4368,6.70026-4.90029,10.18462q.441-1.04493.88194-2.08985-1.695,4.01262-3.566,7.94723c-.59633,1.25048-1.23568,2.48271-1.80938,3.743a14.31784,14.31784,0,0,0-1.47325,6.967,5.936,5.936,0,0,0,2.33581,4.65451,5.615,5.615,0,0,0,5.167,1.0609,20.421,20.421,0,0,0,3.00405-1.22057,13.258,13.258,0,0,0,3.02222-2.62389c1.40712-1.61087,2.646-3.45054,3.904-5.18236a65.73367,65.73367,0,0,0,5.40779-7.95854,208.82157,208.82157,0,0,0,8.82181-19.56758,209.56247,209.56247,0,0,0,14.15805-78.12064,192.88851,192.88851,0,0,0-5.20017-40.08815c-.76831-3.17928-1.80109-6.25312-2.75291-9.38046q-1.42644-4.68691-3.09156-9.29663a37.5951,37.5951,0,0,0-2.22515-5.65266,5.73485,5.73485,0,0,0-.57571-.94524c-.37965-.42711.1283.48374.1432.50609a2.99387,2.99387,0,0,1-.20795-.52712q-.45224-1.14186-.91931-2.2778c-1.3674-3.32466-2.79771-6.62374-4.33391-9.87408q-1.0435-2.208-2.14637-4.387a4.88772,4.88772,0,0,0-6.12538-2.007c-2.02579.85488-3.77377,3.52164-2.8401,5.78675Z" fill="#ffe3c2"/><path d="M712.25139,183.69786c.72193.4815,1.43542.97461,2.13624,1.48647q.45089.32928.89527.66737c-.52131-.3969.2737.21859.37566.30047q1.80149,1.44675,3.48282,3.03464,1.6852,1.59124,3.24071,3.31259.81.89631,1.58272,1.82539c.27781.33382.54734.67413.82238,1.01015.60248.73609-.40823-.561.20971.26717a67.34587,67.34587,0,0,1,5.0223,7.7634q1.16463,2.1142,2.15052,4.32082.11394.25447.22461.51043.21717.50236-.13383-.32442a4.64339,4.64339,0,0,1,.41571,1.02872,6.31623,6.31623,0,0,0,3.212,3.70309,4.29694,4.29694,0,0,0,6.205-2.52433,6.11013,6.11013,0,0,0-.34179-5.00477c-.34941-.7894-.72321-1.56886-1.11122-2.33993q-1.08277-2.15175-2.344-4.20772a60.5715,60.5715,0,0,0-6.35777-8.51432,61.93188,61.93188,0,0,0-15.90466-12.78614,3.74765,3.74765,0,0,0-3.78241,6.47092Z" fill="#ffe3c2"/><rect x="223.56975" y="155.66973" width="53.07483" height="25.73504" rx="3" fill="#ffc68d"/><rect x="248.586" y="184.10973" width="53.07483" height="25.73504" rx="3" fill="#ffc68d"/><rect x="192.426" y="184.10973" width="53.07483" height="25.73504" rx="3" fill="#ffc68d"/><rect x="623.04078" y="201.53577" width="53.07483" height="25.73504" rx="3" fill="#ffc68d"/><rect x="623.04078" y="258.41577" width="53.07483" height="25.73504" rx="3" fill="#ffc68d"/><rect x="648.05703" y="229.97577" width="53.07483" height="25.73504" rx="3" fill="#ffc68d"/><rect x="591.89703" y="229.97577" width="53.07483" height="25.73504" rx="3" fill="#ffc68d"/><rect x="256.94698" y="451.80036" width="53.07483" height="25.73504" rx="3" fill="#ffc68d"/><rect x="225.80323" y="423.36036" width="53.07483" height="25.73504" rx="3" fill="#ffc68d"/><rect x="281.56439" y="423.36036" width="53.07483" height="25.73504" rx="3" fill="#ffc68d"/><rect x="122.28816" y="102.72377" width="282.109" height="209.13606" fill="#78c1d0"/><g opacity="0.26"><rect x="122.28819" y="203.29159" width="282.10938" height="8" fill="#2b8daf"/></g><path d="M195.59716,104.16207s1.44,94.79088-40.32,110.51771l30.24,97.18006h-63.229V102.72377Z" fill="#ffb957"/><path d="M140.8772,120.9093a100.23206,100.23206,0,0,1,3.10986,20.05152c.25513,3.38427.261,6.77746.2898,10.172-.03321,1.69641-.11109,3.39209-.1648,5.08863-.05347,1.69677-.22241,3.3872-.32837,5.08166l-.21631,2.53711-.31494,2.52747c-.22656,1.68249-.38281,3.37426-.66772,5.04821-.63355,3.33741-1.12305,6.69812-2.01392,9.97937a110.78936,110.78936,0,0,1-6.41357,19.25135c1.47729-6.60669,3.07812-13.10486,4.12036-19.72181q1.73547-9.87725,2.51831-19.86975c.61645-6.64819.83374-13.33032.86035-20.02014C141.65991,134.34119,141.44287,127.64136,140.8772,120.9093Z" fill="#ca5303"/><path d="M175.91724,125.4093a105.96026,105.96026,0,0,1-.99439,20.99939,113.57836,113.57836,0,0,1-4.82056,20.56311,93.7045,93.7045,0,0,1-4.0039,9.82874,71.72329,71.72329,0,0,1-5.301,9.21631,57.75979,57.75979,0,0,1-6.7749,8.18115,45.82605,45.82605,0,0,1-8.34521,6.44861,65.74268,65.74268,0,0,0,7.2583-7.44287,72.29682,72.29682,0,0,0,5.8894-8.44788,88.505,88.505,0,0,0,4.69653-9.15076,100.35871,100.35871,0,0,0,3.74317-9.60144c1.15234-3.243,2.10473-6.55957,2.98315-9.89673.91065-3.33081,1.64942-6.70874,2.377-10.09533Q174.69494,135.82781,175.91724,125.4093Z" fill="#ca5303"/><path d="M158.94556,137.28662a40.36287,40.36287,0,0,1,.43579,9.14343,53.29358,53.29358,0,0,1-1.241,9.08094,44.54848,44.54848,0,0,1-2.9458,8.73278,26.54246,26.54246,0,0,1-5.19751,7.60279c1.15845-2.85388,2.1355-5.62232,3.01147-8.44007.81666-2.83715,1.53394-5.68725,2.20777-8.562.65942-2.87964,1.23657-5.78491,1.85107-8.70569C157.65259,143.21155,158.24316,140.2738,158.94556,137.28662Z" fill="#ca5303"/><path d="M142.9231,223.20667c2.30273,5.37756,4.32275,10.842,6.24292,16.33728.98706,2.73938,1.87109,5.51037,2.80346,8.26647l2.64356,8.31568,2.489,8.36316c.77466,2.80456,1.604,5.59228,2.32544,8.41333,1.49951,5.62463,2.897,11.28052,4.00977,17.02405-2.3064-5.37647-4.32788-10.84058-6.24756-16.33606-.988-2.739-1.86817-5.51111-2.803-8.26661l-2.63941-8.31677-2.4851-8.36438c-.7771-2.80383-1.60254-5.59289-2.3252-8.41357C145.43848,234.60449,144.03931,228.949,142.9231,223.20667Z" fill="#ca5303"/><path d="M132.23706,229.44666c.62085,5.31994.94556,10.64,1.16626,15.96.13818,2.66.1687,5.31994.25,7.98l.083,7.98-.07886,7.98c-.0835,2.66-.11035,5.32007-.24976,7.9801-.21972,5.32-.54614,10.63989-1.17065,15.96-.62427-5.32007-.95068-10.64-1.17041-15.96-.13965-2.66-.16626-5.32007-.24976-7.9801l-.07885-7.98.08276-7.98c.0813-2.66.11206-5.31995.25024-7.98C131.29175,240.08667,131.61646,234.7666,132.23706,229.44666Z" fill="#ca5303"/><path d="M138.54,241.92664a89.0721,89.0721,0,0,1,2.93262,9.8767c.82983,3.31836,1.512,6.663,2.11255,10.02186.59326,3.36035,1.0996,6.736,1.4602,10.13745a88.09427,88.09427,0,0,1,.63184,10.28393,88.08981,88.08981,0,0,1-2.937-9.876c-.82861-3.31861-1.512-6.66285-2.10815-10.02259-.58911-3.36108-1.09619-6.73657-1.45581-10.13818A89.06456,89.06456,0,0,1,138.54,241.92664Z" fill="#ca5303"/><path d="M122.28809,215.28662c3.38647.39526,6.68969.97583,9.97656,1.58179l9.80444,1.80029a70.02657,70.02657,0,0,0,9.67456,1.20471,11.99426,11.99426,0,0,0,2.27539-.16,2.88478,2.88478,0,0,0,1.71509-.777,2.16764,2.16764,0,0,0,.32275-1.90527,11.83272,11.83272,0,0,0-.77978-2.35132,8.2217,8.2217,0,0,1,1.56714,2.08337,3.78338,3.78338,0,0,1,.41577,1.36353,2.73136,2.73136,0,0,1-.27417,1.5863,3.52827,3.52827,0,0,1-1.09375,1.20752,6.45621,6.45621,0,0,1-1.32324.68067,11.59932,11.59932,0,0,1-2.68653.60913,36.779,36.779,0,0,1-10.333-.588,72.15088,72.15088,0,0,1-9.8562-2.49292A60.22773,60.22773,0,0,1,122.28809,215.28662Z" fill="#133852"/><g opacity="0.26"><rect x="259.34287" y="102.72421" width="8" height="209.13574" fill="#2b8daf"/></g><rect x="110.31413" y="311.85984" width="306.05707" height="15.74678" fill="#376f92"/><path d="M331.08816,104.16207s-1.44,94.79088,40.32,110.51771l-30.24,97.18006h63.229V102.72377Z" fill="#ffb957"/><path d="M385.80811,120.9093c-.56543,6.73206-.78272,13.43189-.77881,20.12561.02636,6.68982.24365,13.37195.8601,20.02014q.79834,9.97944,2.51856,19.86975c1.042,6.617,2.64282,13.11512,4.12012,19.72181a110.83072,110.83072,0,0,1-6.41358-19.25135c-.89087-3.28125-1.38012-6.642-2.01391-9.97937-.28492-1.67395-.44117-3.36572-.66773-5.04821l-.3147-2.52747-.21655-2.53711c-.106-1.69446-.2749-3.38489-.32837-5.08166-.05371-1.69654-.13159-3.39222-.16479-5.08863.02881-3.39453.03467-6.78772.28979-10.172A100.23207,100.23207,0,0,1,385.80811,120.9093Z" fill="#ca5303"/><path d="M350.76807,125.4093q1.21618,10.42512,3.29248,20.6023c.72778,3.38659,1.46631,6.76452,2.377,10.09533.87842,3.33716,1.83081,6.65369,2.98315,9.89673a100.42489,100.42489,0,0,0,3.74317,9.60144,88.505,88.505,0,0,0,4.69653,9.15076,72.32591,72.32591,0,0,0,5.88941,8.44788,65.74182,65.74182,0,0,0,7.2583,7.44287,45.82578,45.82578,0,0,1-8.34522-6.44861,57.75979,57.75979,0,0,1-6.7749-8.18115,71.72447,71.72447,0,0,1-5.301-9.21631,93.651,93.651,0,0,1-4.00366-9.82874,113.53807,113.53807,0,0,1-4.82055-20.56311A105.94227,105.94227,0,0,1,350.76807,125.4093Z" fill="#ca5303"/><path d="M367.73975,137.28662c.70239,2.98718,1.293,5.92493,1.87817,8.85217.61475,2.92078,1.19165,5.82605,1.85107,8.70569.67383,2.87476,1.39112,5.72486,2.20777,8.562.876,2.81775,1.85327,5.58619,3.01147,8.44007a26.54246,26.54246,0,0,1-5.19751-7.60279,44.56562,44.56562,0,0,1-2.9458-8.73278,53.29356,53.29356,0,0,1-1.241-9.08094A40.36171,40.36171,0,0,1,367.73975,137.28662Z" fill="#ca5303"/><path d="M383.76221,223.20667c-1.11621,5.7423-2.51514,11.39782-4.01392,17.02258-.72266,2.82068-1.54809,5.60974-2.32519,8.41357l-2.48487,8.36438-2.63965,8.31677c-.93481,2.7555-1.81494,5.52759-2.803,8.26661-1.91968,5.49548-3.94117,10.95959-6.24756,16.33606,1.11279-5.74353,2.51025-11.39942,4.00976-17.02405.72144-2.821,1.55078-5.60877,2.32544-8.41333l2.489-8.36316,2.64355-8.31568c.93237-2.7561,1.81665-5.52709,2.80347-8.26647C379.4397,234.04871,381.45947,228.58423,383.76221,223.20667Z" fill="#ca5303"/><path d="M394.44824,229.44666c.62061,5.31994.94531,10.64,1.166,15.96.13818,2.66.16894,5.31994.25024,7.98l.08277,7.98-.07886,7.98c-.0835,2.66-.11011,5.32007-.24976,7.9801-.21972,5.32-.54614,10.63989-1.17041,15.96-.62451-5.32007-.95093-10.64-1.17065-15.96-.13941-2.66-.166-5.32007-.24976-7.9801l-.07886-7.98.083-7.98c.0813-2.66.11182-5.31995.25025-7.98C393.50269,240.08667,393.82739,234.7666,394.44824,229.44666Z" fill="#ca5303"/><path d="M388.14526,241.92664a89.06456,89.06456,0,0,1-.63623,10.2832c-.35962,3.40161-.8667,6.7771-1.45581,10.13818-.59619,3.35974-1.27954,6.704-2.10815,10.02259a88.09185,88.09185,0,0,1-2.937,9.876,88.09427,88.09427,0,0,1,.63183-10.28393c.3606-3.40149.867-6.7771,1.46021-10.13745.60058-3.35889,1.283-6.7035,2.11279-10.02186A89.01706,89.01706,0,0,1,388.14526,241.92664Z" fill="#ca5303"/><path d="M404.39722,215.28662a60.22853,60.22853,0,0,1-9.405,3.84277,72.15162,72.15162,0,0,1-9.8562,2.49292,36.77785,36.77785,0,0,1-10.33277.588,11.59837,11.59837,0,0,1-2.68676-.60913,6.456,6.456,0,0,1-1.32325-.68067,3.52827,3.52827,0,0,1-1.09375-1.20752,2.73144,2.73144,0,0,1-.27417-1.5863,3.78378,3.78378,0,0,1,.41577-1.36353,8.22193,8.22193,0,0,1,1.56714-2.08337,11.83272,11.83272,0,0,0-.77978,2.35132,2.16767,2.16767,0,0,0,.32275,1.90527,2.88478,2.88478,0,0,0,1.71509.777,11.99426,11.99426,0,0,0,2.27539.16,70.02657,70.02657,0,0,0,9.67456-1.20471l9.80444-1.80029C397.70752,216.26245,401.01074,215.68188,404.39722,215.28662Z" fill="#133852"/><path d="M100.40161,95.43555c3.50977,3.04675,6.94922,6.171,10.51123,9.149,3.60547,2.92579,7.117,5.96631,10.867,8.7024a200.77519,200.77519,0,0,0,23.08569,15.43713A112.91675,112.91675,0,0,0,170.198,139.67456c2.22827.55164,4.42773,1.23767,6.699,1.56445l3.38159.60767,3.41285.33472,1.70532.16833c.56982.02673,1.14087.02173,1.71094.0343l3.41992.05909a61.28139,61.28139,0,0,0,6.79468-.63135c9.04272-1.2334,17.51245-5.20069,24.92675-10.5249,7.46241-5.329,13.95557-11.93506,20.33863-18.66456,3.21606-3.35168,6.374-6.78552,9.83105-9.99011a46.30621,46.30621,0,0,1,11.58838-8.386,18.909,18.909,0,0,1,7.17773-1.86109,10.60688,10.60688,0,0,1,1.88331.00965l.94189.05334c.31079.03918.61743.10718.92627.16028a15.6393,15.6393,0,0,1,3.62524,1.00708,14.75081,14.75081,0,0,1,5.9795,4.57263,31.15658,31.15658,0,0,1,3.67041,6.25439c1.98169,4.3025,3.53784,8.65638,5.42041,12.87146a112.33526,112.33526,0,0,0,6.26562,12.29834c1.18311,1.97315,2.41431,3.91858,3.72192,5.81409.646.95264,1.32789,1.88159,2,2.81641l2.14991,2.70129a59.74109,59.74109,0,0,0,4.45459,5.26868,61.87011,61.87011,0,0,0,4.85742,4.89368,60.356,60.356,0,0,0,5.26977,4.44653l2.75831,2.07605c.92651.68286,1.92993,1.25586,2.89135,1.88977.97681.61072,1.93042,1.25976,2.927,1.84l3.03394,1.67054c1.9978,1.15905,4.11719,2.1051,6.18481,3.1438,4.18433,1.98974,8.45752,3.81628,12.70289,5.72436,4.239,1.92114,8.47119,3.88867,12.562,6.13355a131.85153,131.85153,0,0,1,42.07251,36.3009,114.26344,114.26344,0,0,1,7.67968,11.70959c2.32911,4.04847,4.39624,8.241,6.40577,12.43091,2.032,4.16736,4.00439,8.38721,6.77,11.99341a23.88909,23.88909,0,0,0,4.7915,4.73511,25.95824,25.95824,0,0,0,5.92871,3.21069,32.98112,32.98112,0,0,0,13.292,2.197,38.4819,38.4819,0,0,0,13.15357-3.20727,84.44,84.44,0,0,0,12.12133-6.49317c3.91065-2.44775,7.72535-5.0813,11.56348-7.70678,7.66968-5.23938,15.459-10.536,24.10938-14.39551a64.02486,64.02486,0,0,1,13.5144-4.39148,53.56548,53.56548,0,0,1,14.23877-.93225,57.62583,57.62583,0,0,1,26.81982,9.02673c8.09058,5.0083,15.01,11.5918,21.19117,18.66065A176.61454,176.61454,0,0,1,605.53467,273.942c4.93286,7.95019,9.41406,16.14965,13.677,24.44165,4.25757,8.296,8.28564,16.69421,12.27148,25.09668,3.97974,8.40124,7.99366,16.80261,11.68653,25.37121,7.3999,17.092,13.7268,34.89258,16.50122,53.46106a143.5496,143.5496,0,0,1,1.47143,28.01123l-.18847,3.50525-.09448,1.75208-.19776,1.74377-.80322,6.97022c-.67871,4.62744-1.5874,9.21716-2.68042,13.75647-1.08887,4.541-2.37964,9.02563-3.76489,13.46972-1.37915,4.44556-2.84961,8.85449-4.10376,13.31275a52.35672,52.35672,0,0,0-2.32691,13.60681,25.1095,25.1095,0,0,0,3.52515,13.18677.15.15,0,0,1-.05249.20556.15159.15159,0,0,1-.20459-.05078,25.58193,25.58193,0,0,1-3.89063-13.33777A53.10993,53.10993,0,0,1,648.39648,484.59c1.15992-4.52051,2.53-8.967,3.80225-13.43128,1.26294-4.46594,2.50244-8.93237,3.50122-13.45154a143.79608,143.79608,0,0,0,1.65357-55.03039c-2.9104-18.25733-9.31641-35.761-16.83155-52.66419-3.77514-8.45935-7.78662-16.83361-11.77954-25.22815-4.00024-8.38733-8.032-16.74743-12.28149-24.98486-8.50782-16.43494-17.84644-32.56079-29.76441-46.58716-5.99658-6.93554-12.67968-13.34753-20.40356-18.18335a54.71863,54.71863,0,0,0-25.44458-8.7323,50.7779,50.7779,0,0,0-13.5.81079,63.06124,63.06124,0,0,0-12.98218,4.12049c-8.40088,3.64843-16.13281,8.78149-23.84131,13.94385-7.71606,5.14147-15.44946,10.5498-24.24511,14.12463a40.41632,40.41632,0,0,1-13.84839,3.15527,34.728,34.728,0,0,1-13.9812-2.51489,27.56083,27.56083,0,0,1-6.249-3.48987,25.41116,25.41116,0,0,1-5.02881-5.09265c-2.85522-3.8302-4.78491-8.13391-6.76928-12.32825-1.95874-4.21521-3.94849-8.39587-6.21338-12.43225a113.12677,113.12677,0,0,0-7.55176-11.63135,121.11158,121.11158,0,0,0-8.90747-10.64416c-3.12915-3.42029-6.59717-6.49963-9.96-9.68543a121.92366,121.92366,0,0,0-22.84986-15.68652c-8.16259-4.39294-16.81982-7.76684-25.29638-11.65625-2.10156-1.0144-4.24781-1.933-6.29273-3.07544L330.23169,162.57c-1.02-.57264-2.00122-1.21692-3.00415-1.82239-.988-.62927-2.01733-1.19751-2.97241-1.87793l-2.846-2.0719a61.93309,61.93309,0,0,1-5.4502-4.45435,63.477,63.477,0,0,1-5.03662-4.91711,60.90374,60.90374,0,0,1-4.62451-5.30066l-2.23242-2.72156c-.699-.94116-1.407-1.87646-2.07983-2.837-1.36133-1.91077-2.647-3.87537-3.88428-5.87049a114.52949,114.52949,0,0,1-6.57666-12.43823c-1.95825-4.25232-3.65259-8.62-5.564-12.76147a28.77451,28.77451,0,0,0-3.38623-5.73426,12.17872,12.17872,0,0,0-4.98242-3.78576,15.04886,15.04886,0,0,0-6.26514-1.00952,16.30938,16.30938,0,0,0-6.22,1.65637,43.86257,43.86257,0,0,0-10.853,7.9707c-3.3418,3.1394-6.5354,6.50427-9.76441,9.84973-6.43579,6.70191-13.085,13.4043-20.81225,18.8551-7.67188,5.44678-16.56739,9.55787-26.01831,10.78943a63.50828,63.50828,0,0,1-7.0835.61414l-3.55029-.08569c-.59107-.02186-1.1836-.02637-1.7732-.063l-1.76147-.19825-3.52075-.39868-3.47193-.67468c-2.33276-.37366-4.5747-1.10522-6.8479-1.70508a114.65773,114.65773,0,0,1-25.57031-11.49011,186.7876,186.7876,0,0,1-22.92676-15.99609c-3.70044-2.832-7.15332-5.96167-10.69824-8.97522-1.79346-1.48377-3.43457-3.13953-5.15454-4.70472l-5.10352-4.75659a.15.15,0,0,1,.20044-.22314Z" fill="#490000"/><circle cx="662.66969" cy="422.62996" r="2.28213" fill="#f89017"/><circle cx="647.51916" cy="497.03335" r="2.28213" fill="#78a7c6"/><circle cx="102.14547" cy="98.59229" r="4.9668" fill="#376f92"/><circle cx="286.36997" cy="114.91475" r="2.39562" fill="#f89017"/><circle cx="230.97902" cy="120.05774" r="2.39562" fill="#376f92"/><circle cx="337.30794" cy="158.90781" r="2.39562" fill="#f89017"/><circle cx="593.62794" cy="256.56661" r="2.39562" fill="#f89017"/><circle cx="622.29902" cy="311.85984" r="2.39562" fill="#78a7c6"/><circle cx="149.99716" cy="138.12476" r="2.39562" fill="#376f92"/><circle cx="457.18277" cy="262.08661" r="2.39562" fill="#376f92"/><circle cx="216.08669" cy="137.28661" r="4.9668" fill="#e6560f"/><circle cx="304.05902" cy="137.06781" r="4.9668" fill="#e6560f"/><circle cx="607.17902" cy="282.24661" r="4.9668" fill="#376f92"/><circle cx="655.41902" cy="518.23281" r="4.9668" fill="#e6560f"/><circle cx="429.69486" cy="256.56661" r="4.9668" fill="#e6560f"/><circle cx="697.89902" cy="534.63597" r="4.9668" fill="#376f92"/><circle cx="127.26917" cy="117.86781" r="4.9668" fill="#f89017"/><circle cx="254.44622" cy="103.56028" r="4.9668" fill="#f89017"/><circle cx="634.72338" cy="334.40047" r="4.9668" fill="#f89017"/><circle cx="173.73902" cy="142.0358" r="4.9668" fill="#78a7c6"/><circle cx="655.41902" cy="385.85588" r="4.9668" fill="#78a7c6"/><circle cx="350.76816" cy="170.77066" r="4.9668" fill="#78a7c6"/><circle cx="574.59466" cy="239.75781" r="4.9668" fill="#78a7c6"/><path d="M525.33613,121.22781s3.6-7.92-5.52-9.36,1.68-16.56-21.6-11.28c0,0-11.28-10.56-22.56-3.84s-12.48,2.64-14.4,7.44-1.44,17.28,17.04,17.04c0,0-.96,16.56,3.12,12.24s6.96-6.48,9.12-3.84,2.4,10.8-2.16,11.76-5.04,5.52-.48,9.36,11.76,8.88,22.32,8.16c0,0,12.24,8.4,18.24-2.4,0,0,20.4,2.88,10.56-15.84,0,0,12.72-12.32505-7.44-12.40253C531.57613,128.26528,531.81613,123.38781,525.33613,121.22781Z" fill="#5e1212"/><path d="M484.87329,114.531a8.514,8.514,0,0,0,1.498,4.48193,10.28478,10.28478,0,0,0,3.56958,2.85815,7.53574,7.53574,0,0,0,1.07763.561c.374.16711.73951.37427,1.1316.517.39795.12133.79541.26049,1.20239.3645a5.60492,5.60492,0,0,0,1.23389.257,15.90462,15.90462,0,0,0,2.52514.14184c.84717-.05456,1.69068-.13989,2.5271-.22558l.71729-.07361-.10913.887a11.37669,11.37669,0,0,0,.23046,4.33228,9.39664,9.39664,0,0,0,2.02,3.65991,14.41316,14.41316,0,0,0,3.4629,2.6936l2.07348,1.04273c.72632.29382,1.46069.59265,2.20117.94091l.00879.004a.101.101,0,0,1-.04614.19239c-.80884-.02466-1.62329-.09852-2.44605-.17749-.80371-.15723-1.61474-.34888-2.41625-.58875a12.62026,12.62026,0,0,1-2.30591-1.0741,10.93605,10.93605,0,0,1-1.08643-.71228l-.98584-.87829a8.90132,8.90132,0,0,1-2.37207-4.69092,9.25211,9.25211,0,0,1,.48047-5.12866l.60791.81335c-.86963-.10205-1.73218-.20361-2.59082-.27441-.85986-.05286-1.71265-.22595-2.57446-.26526-.85962-.0658-1.71631-.21436-2.59888-.27344-.43921-.04407-.87134-.15381-1.31348-.23218a6.16084,6.16084,0,0,1-1.31006-.3446,7.44879,7.44879,0,0,1-4.24951-3.498,6.34912,6.34912,0,0,1-.35717-5.35632.10105.10105,0,0,1,.19384.03357Z" fill="#490000"/><path d="M510.14258,158.97559a11.49576,11.49576,0,0,1-2.84839-3.55457,7.8499,7.8499,0,0,1-.88184-4.71081,6.59185,6.59185,0,0,1,2.54395-4.19239,12.391,12.391,0,0,1,4.19629-2.00293l-.15479.85083a22.17344,22.17344,0,0,1-2.31445-3.08642,6.9359,6.9359,0,0,1-1.20239-3.72193,4.44145,4.44145,0,0,1,2.16162-3.453,11.23877,11.23877,0,0,1,3.66772-1.54956l-.54687.36316a7.319,7.319,0,0,1,2.543-2.218,6.7132,6.7132,0,0,1,3.33764-.77551,8.26438,8.26438,0,0,1,3.21729.91943c.47705.25806.91748.56177,1.36841.84815.41113.32678.81982.656,1.21655.99572l-1.57813.95459a8.0833,8.0833,0,0,1,.05005-2.91064,5.00271,5.00271,0,0,1,1.36621-2.64246,4.29812,4.29812,0,0,1,2.63526-1.17614,9.84122,9.84122,0,0,1,1.36474.004c.44239.06873.87745.15845,1.30371.24891a.1.1,0,0,1-.01147.19738l-.01245.00122q-.64967.061-1.27442.09839a9.14978,9.14978,0,0,0-1.19726.2843,3.53091,3.53091,0,0,0-1.81982,1.23145,3.89152,3.89152,0,0,0-.686,2.0072,7.31779,7.31779,0,0,0,.17749,2.227l.64722,2.46033-2.22559-1.50562c-.37915-.25659-.74658-.52368-1.11157-.79309-.38794-.2146-.76734-.45349-1.15869-.6416a7.31875,7.31875,0,0,0-2.39014-.6853,4.86215,4.86215,0,0,0-2.345.411,5.67874,5.67874,0,0,0-1.95142,1.47876l-.26489.3125-.28223.0509a13.53473,13.53473,0,0,0-3.35961.95874,3.27307,3.27307,0,0,0-2.05,2.37232,4.99644,4.99644,0,0,0,.93481,3.32214,10.5454,10.5454,0,0,0,2.46729,2.65564l.6184.4762-.77319.37488a13.9454,13.9454,0,0,0-3.45557,2.34985,6.25542,6.25542,0,0,0-1.96752,3.20361,7.552,7.552,0,0,0,.34692,3.92652,18.55458,18.55458,0,0,0,1.84619,3.89917l.00342.00573a.10076.10076,0,0,1-.15039.12989Z" fill="#490000"/><path d="M497.42017,106.96924a5.51375,5.51375,0,0,1,2.65527-.58191,6.68764,6.68764,0,0,1,2.70093.59936,5.388,5.388,0,0,1,2.0979,1.81922c.56225.72827,1.00415,1.47778,1.53442,2.17737l-.31592-.14917a17.43945,17.43945,0,0,1,3.63892-.343,9.32083,9.32083,0,0,1,3.61426,1.07568,7.2067,7.2067,0,0,1,1.5459,1.16553,7.8141,7.8141,0,0,1,1.14111,1.54919,7.08649,7.08649,0,0,1,.9397,3.55726.10379.10379,0,0,1-.18531.06579l-.0061-.00769a22.6486,22.6486,0,0,0-2.11987-2.603,13.22838,13.22838,0,0,0-5.23511-3.18921,8.71553,8.71553,0,0,0-3.24341-.64306l-.22265.01428-.09351-.1637a4.29792,4.29792,0,0,0-1.6958-1.72851,19.43044,19.43044,0,0,0-2.13526-.95667,24.19417,24.19417,0,0,0-4.582-1.46057l-.00927-.00232a.105.105,0,0,1-.02417-.19482Z" fill="#490000"/><path d="M511.9868,159.93084v-.00006a18.20811,18.20811,0,0,1-1.77063-1.023c-10.56006.72-17.76-4.32-22.32007-8.16-4.56006-3.84-4.08-8.4.48-9.36,4.56006-.96,4.32007-9.12,2.16-11.76s-5.03991-.48-9.12,3.84-3.12-12.24-3.12-12.24a27.31538,27.31538,0,0,1-8.88269-1.17l.00025.00048s-6.769,36.2096,13.92236,37.40955c0,0,.24011,12-2.87988,11.76,0,0,15.84,14.64709,32.63989.00354C513.09605,169.23132,510.15757,164.55389,511.9868,159.93084Z" fill="#fd8b66"/><path d="M446.85613,206.18781s11.04006-40.80006,33.6-36.96,32.63989.00354,32.63989.00354,19.68008-6.00351,36.00008,34.79649c0,0-4.08,11.04-21.6,18.24,0,0-4.56,11.04-4.56,18.48H468.35481l1.78132-23.28Z" fill="#376f92"/><path d="M533.01622,190.82782l-5.52,31.44a54.79336,54.79336,0,0,0,8.22436-4.18842Z" fill="#133852"/><polygon points="470.136 217.468 477.576 203.308 468.355 240.748 470.136 217.468" fill="#133852"/><path d="M547.77745,206.54779l-.00122.00018c-2.27747,3.68317-7.94532,10.65076-20.28,15.71985a75.43817,75.43817,0,0,0-4.19751,14.38153c28.20263,16.78149,34.4375,8.41846,38.03735.97845C564.93614,230.1878,547.77745,206.54779,547.77745,206.54779Z" fill="#fd8b66"/><path d="M527.49609,222.26782c1.92749,3.0138,3.6687,6.10425,5.44019,9.17432q1.31946,2.30676,2.67847,4.58325a32.05121,32.05121,0,0,0,3.01147,4.36243,17.45146,17.45146,0,0,1-3.66162-3.93091c-1.04981-1.45349-1.99292-2.9751-2.89478-4.5166A64.6779,64.6779,0,0,1,527.49609,222.26782Z" fill="#d04719"/><path d="M534.57617,239.75781a14.11224,14.11224,0,0,1-1.406-3.71557,13.95652,13.95652,0,0,1-.43433-3.949,13.95827,13.95827,0,0,1,1.406,3.71558A14.12182,14.12182,0,0,1,534.57617,239.75781Z" fill="#d04719"/><path d="M447.5991,206.54779s-8.063,18.36-8.963,18.36c-.8999,0-23.76-14.94-23.76-14.94a17.59781,17.59781,0,0,1-2.7-6.66c-.36-3.24-6.6-8.04-7.08-10.44-.4801-2.4-2.28-5.04-2.52-4.08-.24.96-.96008,2.76.84,8.16,0,0-10.92005-10.92-11.76-12,0,0-1.32,2.88.72,6.96a6.06259,6.06259,0,0,0,.36011,6.48s-2.76014,1.8-1.50013,4.2c0,0-2.15905,2.88-.32946,5.16.60645.75576,7.35779,5.21689,14.42953,11.76,14.26264,13.1965,34.18892,32.76,38.15994,32.76,5.94007,0,8.06556,2.23114,25.72278-35.24445Z" fill="#fd8b66"/><path d="M435.03613,232.09326c.19434-.65173.44629-1.27453.67139-1.91089q.36621-.94024.76782-1.86255.80419-1.84441,1.71875-3.6333l.68726.65052c-.98242.571-1.959,1.21887-2.89795,1.88964a16.0616,16.0616,0,0,0-2.6272,2.30115,7.44417,7.44417,0,0,1,.92407-1.54663,11.6237,11.6237,0,0,1,1.22364-1.33179,17.05011,17.05011,0,0,1,2.887-2.17077.49063.49063,0,0,1,.69556.63354l-.00831.01709q-.88695,1.803-1.88134,3.552-.498.87415-1.032,1.73023C435.78979,230.97278,435.44165,231.54736,435.03613,232.09326Z" fill="#d04719"/><path d="M392.37622,191.90784a12.31488,12.31488,0,0,1,2.67163,2.56982,12.16927,12.16927,0,0,1,1.88819,3.19019,12.179,12.179,0,0,1-2.67164-2.56983A12.3118,12.3118,0,0,1,392.37622,191.90784Z" fill="#d04719"/><path d="M392.73608,198.38782a2.1321,2.1321,0,0,1,1.324.67749,2.11035,2.11035,0,0,1,.59619,1.36255,2.10882,2.10882,0,0,1-1.324-.67762A2.13188,2.13188,0,0,1,392.73608,198.38782Z" fill="#d04719"/><path d="M391.23608,202.58777a1.21445,1.21445,0,0,1,1.06226.20984.61019.61019,0,1,1-.62427.78039A1.21439,1.21439,0,0,1,391.23608,202.58777Z" fill="#d04719"/><path d="M470.67613,240.74781v9h51.12s1.04086-6.98842,1.14-9Z" fill="#fd8b66"/><path d="M470.67613,249.74781s-3.78,1.44-4.32,4.86-42.3,271.26-42.3,271.26,33.48,6.84,46.62,5.76,13.14-.84871,23.58.11564,54.26627-2.50326,54.84-13.07564c2.94372-54.24836,0-194.4-3.12-212.4-2.12824-12.27848-24.18005-56.52-24.18005-56.52Z" fill="#376f92"/><path d="M426.44971,510.39685a152.06331,152.06331,0,0,1,15.7102-.18054l3.92188.166,3.91723.25855c2.61133.17944,5.217.43957,7.81275.80115,5.19433.70056,10.32983,1.84668,15.4812,2.74914,5.15112.93836,10.31274,1.74573,15.44067,3.20044a27.832,27.832,0,0,0,7.47193,1.00025,69.10567,69.10567,0,0,0,7.64477-.32984c2.55152-.24206,5.10059-.61059,7.64063-1.04565,2.53979-.43494,5.081-.89295,7.61206-1.42554,10.15185-2.01135,20.23291-4.57581,30.38647-7.10986l.10254.282a140.46349,140.46349,0,0,1-14.647,5.74121,151.89134,151.89134,0,0,1-15.1875,4.21863,99.47875,99.47875,0,0,1-15.69727,2.16711,54.39755,54.39755,0,0,1-8.00024-.09472,27.36555,27.36555,0,0,1-7.87354-1.855,64.00433,64.00433,0,0,0-15.04882-3.78882c-5.15845-.73279-10.38428-.9032-15.57886-1.22522-5.19336-.34632-10.36865-.87915-15.55567-1.39014-5.18481-.53369-10.37255-1.07593-15.56323-1.83935Z" fill="#133852"/><path d="M457.18277,206.30781c3.86072,0,3.86711-6,0-6-3.86071,0-3.8671,6,0,6Z" fill="#ffb957"/><path d="M475.11824,185.75009c3.86071,0,3.86711-6,0-6-3.86071,0-3.86711,6,0,6Z" fill="#ffb957"/><path d="M482.25824,211.30927c3.86071,0,3.86711-6,0-6-3.86071,0-3.86711,6,0,6Z" fill="#ffb957"/><path d="M539.38039,202.40781c3.86072,0,3.86711-6,0-6-3.86071,0-3.8671,6,0,6Z" fill="#ffb957"/><path d="M507.15824,215.50927c3.86071,0,3.86711-6,0-6-3.86071,0-3.86711,6,0,6Z" fill="#ffb957"/><path d="M500.13824,189.89009c3.86071,0,3.86711-6,0-6-3.86071,0-3.86711,6,0,6Z" fill="#ffb957"/><path d="M490.72543,238.92554c3.86071,0,3.86711-6,0-6-3.86071,0-3.86711,6,0,6Z" fill="#ffb957"/><path d="M513.09605,169.23132s-15.70132,131.75649-22.37062,145.19649,4.0123,5.28,16.4315,8.64,27.9592,11.04,31.4692,2.4-6.08987-13.44-11.12993-34.56S532.60384,176.967,532.60384,176.967,523.4192,167.62327,513.09605,169.23132Z" fill="#e6560f"/><path d="M492.78784,307.8595a28.7642,28.7642,0,0,1,6.06128,1.19763,30.42183,30.42183,0,0,1,5.72949,2.30273c1.81519.996,3.49073,2.2284,5.18921,3.37415.8418.58667,1.71143,1.12952,2.544,1.73425a15.14751,15.14751,0,0,0,2.55884,1.52649,19.08241,19.08241,0,0,0,5.677,1.18713,39.90174,39.90174,0,0,0,5.89282-.17468c3.95532-.31946,7.91992-1.00036,11.95752-1.70105l.0686.18787a34.51568,34.51568,0,0,1-11.81543,3.636,25.9925,25.9925,0,0,1-6.29516-.07653,14.22372,14.22372,0,0,1-6.00293-2.09375,26.31157,26.31157,0,0,1-2.45-1.949,18.87046,18.87046,0,0,0-2.48-1.72741,39.83669,39.83669,0,0,0-5.54981-2.41565c-3.7019-1.558-7.39526-3.10047-11.1333-4.814Z" fill="#af2500"/><path d="M207.42193,520.14507c0,.173,1.80107-.25051,1.78-.05642,0,0-17.72269,29.05645-19.66782,29.05645a4.90277,4.90277,0,0,1-.56118-.04325,3.96658,3.96658,0,0,1-3.37023-4.472l13.82564-24.54119Z" fill="#133852"/><path d="M297.8211,520.14507c0,.173-1.80107-.25051-1.78-.05642,0,0,17.72268,29.05645,19.66781,29.05645a4.90277,4.90277,0,0,0,.56118-.04325,3.96658,3.96658,0,0,0,3.37023-4.472l-13.82564-24.54119Z" fill="#133852"/><path d="M325.49691,454.8344H179.17619v-62.059a4.32064,4.32064,0,0,1,4.32064-4.32065H321.17627a4.32065,4.32065,0,0,1,4.32064,4.32065Z" fill="#376f92"/><path d="M199.42874,521.212H183.50717a4.32065,4.32065,0,0,1-4.32064-4.32065v-62.066H325.50509v62.066a4.32064,4.32064,0,0,1-4.32064,4.32065H310.21" fill="#376f92"/><rect x="185.53978" y="395.29136" width="133.59354" height="52.70643" fill="#78c1d0"/><ellipse cx="252.33655" cy="421.64458" rx="7.35653" ry="7.28296" fill="#ffb957"/><rect x="185.53978" y="461.67101" width="133.59354" height="52.70643" fill="#78c1d0"/><ellipse cx="252.33655" cy="488.02422" rx="7.35653" ry="7.28296" fill="#ffb957"/><rect x="605.23144" y="470.74546" width="63.75057" height="78.39956" fill="#e8a452"/><rect x="665.55787" y="470.74546" width="78.39956" height="78.39956" fill="#ffb957"/><polygon points="665.558 507.83 665.558 470.745 605.231 489.288 605.231 507.83 665.558 507.83" fill="#d88c39"/><rect x="665.55787" y="470.74546" width="78.39952" height="37.08476" fill="#e8a452"/><rect x="622.89726" y="531.12863" width="18.0164" height="18.0164" fill="#d88c39"/><rect x="657.71685" y="516.02307" width="15.10556" height="15.10556" fill="#d88c39"/><rect x="665.55794" y="516.02306" width="7.26442" height="15.10559" fill="#e8a452"/><rect x="722.58316" y="516.02305" width="13.47771" height="15.10559" fill="#e8a452"/><rect x="691.07671" y="537.52932" width="13.47769" height="11.61578" fill="#e8a452"/><rect x="605.23141" y="513.46277" width="6.91269" height="15.87364" fill="#d88c39"/><polygon points="759.959 495.541 681.56 495.541 665.558 470.745 743.957 470.745 759.959 495.541" fill="#ffb957"/><polygon points="649.556 495.541 589.23 495.541 605.231 470.745 665.558 470.745 649.556 495.541" fill="#e8a452"/><path d="M671.596,473.21106a44.63027,44.63027,0,0,0,7.95776-2.5658,26.501,26.501,0,0,0,6.93726-4.41784,47.53335,47.53335,0,0,0,5.553-6.18128,12.56518,12.56518,0,0,1,3.37744-3.02527,7.86093,7.86093,0,0,1,4.67114-.87927,25.1385,25.1385,0,0,1,8.32056,2.844l.1311.06616.24463.15112a1.76784,1.76784,0,0,1,.49805.51892,1.79775,1.79775,0,0,1,.18481,1.46765,3.70388,3.70388,0,0,1-.80981,1.34485,14.35363,14.35363,0,0,1-1.69556,1.57678c-1.14209.92273-2.30078,1.75013-3.47119,2.553-2.33643,1.60425-4.68433,3.13977-6.96094,4.7406a43.109,43.109,0,0,0-6.32153,5.09021,6.45371,6.45371,0,0,0-1.00269,1.36975,1.3106,1.3106,0,0,0-.15234.47278.32282.32282,0,0,0,.06176.21265,2.24759,2.24759,0,0,0,1.11109.63257,11.44816,11.44816,0,0,0,1.84033.39441,63.0757,63.0757,0,0,0,8.25513.33776c2.80664-.00769,5.63379-.03662,8.47119.07251a38.294,38.294,0,0,1,8.50635,1.1045,9.683,9.683,0,0,1,3.9458,2.00683,4.93971,4.93971,0,0,1,1.63989,4.18238,10.08087,10.08087,0,0,1-1.57324,4.099,32.80067,32.80067,0,0,1-2.47852,3.48353c-3.55224,4.39416-7.43042,8.50378-10.29126,13.25244a23.63782,23.63782,0,0,0-3.1084,7.49377,14.03958,14.03958,0,0,0,.55909,7.751,18.10716,18.10716,0,0,0,4.3352,6.5459,34.69,34.69,0,0,0,6.417,4.92981,58.20888,58.20888,0,0,0,7.334,3.73364,32.87469,32.87469,0,0,0,3.783,1.44922,30.897,30.897,0,0,0,3.91894.90271,101.28346,101.28346,0,0,0,16.52588.927c5.57764-.02954,11.17359-.28345,16.7688-.59619,5.59937-.26819,11.19458-.6825,16.7998-1.11585,2.80249-.22558,5.61011-.433,8.43457-.57129a56.37252,56.37252,0,0,1,8.5752.02259,10.50694,10.50694,0,0,1,2.21973.48083,3.47977,3.47977,0,0,1,2.01733,1.56165,3.16242,3.16242,0,0,1,.07788,2.5365,8.036,8.036,0,0,1-1.09131,1.978,31.50583,31.50583,0,0,1-6.1936,5.85328.15.15,0,0,1-.21045-.02723.15345.15345,0,0,1,.01782-.20276,34.27338,34.27338,0,0,0,5.56519-6.17565,6.99193,6.99193,0,0,0,.81738-1.76722,1.939,1.939,0,0,0-.12036-1.55664c-.501-.79821-1.95093-1.0542-3.24561-1.13879a55.06868,55.06868,0,0,0-8.272.43848l-8.36816.94189c-11.18628,1.26038-22.42334,2.37122-33.76026,2.54993a91.50877,91.50877,0,0,1-17.10571-1.11475,33.88593,33.88593,0,0,1-4.27515-1.07214,35.81612,35.81612,0,0,1-4.061-1.6388,61.00674,61.00674,0,0,1-7.61279-4.05957,34.52008,34.52008,0,0,1-6.77491-5.51758,20.47708,20.47708,0,0,1-4.64575-7.57324,16.04382,16.04382,0,0,1-.218-8.88073,25.98708,25.98708,0,0,1,3.67676-7.86194c3.19092-4.76941,7.25049-8.73694,10.77979-13.06507a31.9476,31.9476,0,0,0,2.437-3.36389,9.04112,9.04112,0,0,0,1.40747-3.71521,3.8879,3.8879,0,0,0-1.37207-3.35278,8.66617,8.66617,0,0,0-3.56885-1.651,33.93164,33.93164,0,0,0-8.23169-.651c-2.78637.04187-5.5813.222-8.39526.37353a64.65359,64.65359,0,0,1-8.6001.08264,11.97429,11.97429,0,0,1-2.29248-.41552,4.58155,4.58155,0,0,1-2.44165-1.50806,2.93863,2.93863,0,0,1-.59229-1.75281,3.76675,3.76675,0,0,1,.36255-1.5553,8.02024,8.02024,0,0,1,1.42066-2.06189,27.08616,27.08616,0,0,1,3.29931-2.97351c1.13428-.89575,2.29786-1.72448,3.47339-2.52319,2.34546-1.60315,4.7251-3.115,7.04517-4.66406,1.15332-.77893,2.31006-1.55091,3.37866-2.3667a12.26237,12.26237,0,0,0,1.43115-1.24658,2.89949,2.89949,0,0,0,.32471-.41309.66487.66487,0,0,0,.09131.4541.55881.55881,0,0,0,.135.14478.02911.02911,0,0,0,.022.00989l-.103-.05469a24.56973,24.56973,0,0,0-7.47387-2.83,5.80453,5.80453,0,0,0-3.511.51319,11.18411,11.18411,0,0,0-2.946,2.48779,48.8055,48.8055,0,0,1-6.00049,6.07886,32.23714,32.23714,0,0,1-15.75562,6.18383.15012.15012,0,0,1-.05395-.295Z" fill="#490000"/><polygon points="668.982 470.745 684.343 470.745 678.943 481.804 668.982 470.745" fill="#ffb957"/><circle cx="712.75848" cy="481.80368" r="4.9668" fill="#78a7c6"/><circle cx="704.75766" cy="526.71179" r="4.9668" fill="#e6560f"/><circle cx="754.49442" cy="546.07113" r="2.28213" fill="#e6560f"/><circle cx="691.07671" cy="461.61403" r="2.28213" fill="#376f92"/><circle cx="729.32202" cy="539.60395" r="2.28213" fill="#376f92"/><circle cx="787.37683" cy="540.13683" r="4.9668" fill="#f89017"/></svg>