<svg id="Layer_1" data-name="Layer 1" xmlns="http://www.w3.org/2000/svg" viewBox="0 0 900 600"><path d="M285.38025,469.42648c-40.10127-8.04638-78.24586-21.67523-108.49115-51.62331-24.47109-24.23064-40.34105-56.70194-45.76608-90.70968-6.97146-43.702,4.03354-89.64843,28.66239-126.25567,21.52671-31.99633,37.56688-83.97835,71.85684-100.306,42.44661-20.21159,99.60593-12.934,143.91155-29.10545,80.74566-29.472,67.40258-37.2616,152.5285-26.89489C577.329,50.52877,626.7128,65.251,665.74312,96.984a197.85558,197.85558,0,0,1,30.28881,30.71577c63.59666,80.34756,64.805,208.60131-3.33394,286.70166-18.80972,21.55957-42.80267,38.45331-68.84991,50.13473-57.94842,25.98823-123.91335,27.39072-186.292,24.69178-70.6745-3.05788-42.23875-3.77555-112.41332-13.32282C311.81789,474.09224,298.49443,472.05787,285.38025,469.42648Z" fill="#ffe3c2"/><path d="M607.35205,504.15866c.63346-.04346,1.266-.09752,1.89927-.1434.60368-.04375,1.17249-.10645,1.77945-.186-.16827.02206-.67072.08645.11262-.01386,1.62737-.20843,3.2533-.4308,4.87336-.69039q.954-.15288,1.90559-.32051.38025-.06708.76011-.13644l.37959-.07q.78507-.14932-.05284.01473a7.17957,7.17957,0,0,1,1.853-.03746,14.0651,14.0651,0,0,0,3.04853-.47685c5.14672-1.26995,10.24108-2.86079,15.25473-4.57653,2.816-.96369,5.57659-2.20762,8.30886-3.37784,2.49144-1.06709,4.99017-2.1555,7.39832-3.3996q6.89043-3.55975,13.49073-7.64793a230.184,230.184,0,0,0,43.76993-35.12445,240.73185,240.73185,0,0,0,34.13857-44.52426,237.203,237.203,0,0,0,12.7148-24.37365A216.8206,216.8206,0,0,0,775.79011,325.313c.93227-5.26082,1.67729-10.55872,2.28995-15.86577.26047-2.25611.23073-4.49394.32133-6.75855q.13888-3.47064.16555-6.94456a17.7183,17.7183,0,0,0-.37593-5.35815,16.54176,16.54176,0,0,0-3.22119-5.59454l1.93449,3.31931a22.31606,22.31606,0,0,0-.95438-2.70843c-.97256-2.60063-3.24438-4.89113-6.24753-4.75662a7.685,7.685,0,0,0-3.27007.88457,6.91038,6.91038,0,0,0-2.97748,3.87205,28.16979,28.16979,0,0,0-1.05753,2.70843l1.93449-3.31931a17.18863,17.18863,0,0,0-2.00563,2.72276,11.89109,11.89109,0,0,0-1.77336,5.57989c-.13057,1.26808-.22638,2.54-.35194,3.80871-.25666,2.59352-.6426,5.174-.89725,7.76635l.3393-2.52519c-1.04066,3.77618-1.1362,7.85886-1.65254,11.7404q.17445-1.29807.34885-2.59614a244.1627,244.1627,0,0,1-11.94,48.47782q-2.36326,6.71384-5.13045,13.27521.47351-1.12214.947-2.24421a238.53406,238.53406,0,0,1-22.84372,41.86885q-3.83271,5.60025-7.98328,10.9727l1.32753-1.71824a234.66562,234.66562,0,0,1-31.22962,33.30791q-4.8583,4.23741-9.95929,8.184l1.49747-1.15694a212.70984,212.70984,0,0,1-23.53283,15.83847c-4.45226,2.57324-8.90256,5.14187-13.51,7.43265-2.2909,1.139-4.52823,2.34382-6.8739,3.37423-.52136.229-1.04229.49337-1.57969.68267,1.55058-.54618-.42838.17219-.79944.32273q-1.96858.79864-3.96153,1.53563a26.75953,26.75953,0,0,0-4.76272,1.95984c-.21128.12861-.42984.24823-.64475.37106s-.4303.245-.646.36653q.65667-.23762.19372-.07851c-.67525.202-1.34013.445-2.01214.65868-2.80553.8919-5.648,1.67509-8.49241,2.429a3.5746,3.5746,0,0,0,.94877,7.01038Z" fill="#ffe3c2"/><path d="M744.1991,175.77641q2.3136,4.05132,4.35246,8.25c.16313.33688.32636.67388.48531,1.01274.036.07673.54408,1.20634.19157.38993.38977.90269.72794,1.82837,1.13435,2.72382.67088,1.47809,1.37959,2.93747,2.03087,4.425.15039.3435.29768.68835.447,1.03233.5044,1.16189-.3703-.91231.10462.24834.28039.68522.56246,1.3696.83532,2.05789.54747,1.38089,1.11368,2.75436,1.65241,4.13874q1.68756,4.3366,3.08146,8.78a156.89707,156.89707,0,0,1,4.42816,17.7343q.41748,2.20281.76427,4.41822c.11562.73864.22135,1.47859.329,2.2184.194,1.33267-.17471-1.40377-.00905-.07074.06124.49275.12459.9852.18289,1.47833q.52507,4.44.76142,8.9079c.164,3.10667.4018,6.21078.51868,9.32q.08409,2.23731.09387,4.47661a12.86537,12.86537,0,0,0,.19429,3.33851,6.72567,6.72567,0,0,0,2.96443,3.95618c2.6516,1.52229,5.54486.04283,6.99356-2.35192,1.17506-1.94237,1.07592-4.57245,1.20717-6.80778a90.19108,90.19108,0,0,0,.213-9.32449,132.67981,132.67981,0,0,0-2.5025-19.31488,132.28829,132.28829,0,0,0-13.3893-37.26539,118.97,118.97,0,0,0-12.2361-17.498,3.04917,3.04917,0,0,0-4.03724-.24039,3.08679,3.08679,0,0,0-.79192,3.96647Z" fill="#ffe3c2"/><path d="M122.27523,387.42066a11.75165,11.75165,0,0,1-.07409,1.66391,9.42206,9.42206,0,0,0,.23749,3.08334c.28644,1.12917.63572,2.24695.97559,3.36111.6647,2.17906,1.33,4.34526,2.18682,6.4557,1.92371,4.73818,4.02131,9.40069,6.40651,13.9254a132.89259,132.89259,0,0,0,16.73172,24.14612,144.45418,144.45418,0,0,0,44.5159,34.83318,111.73362,111.73362,0,0,0,15.91846,6.69441,67.16646,67.16646,0,0,0,7.38777,1.99288c1.3093.26421,2.623.51986,3.9423.72888a11.49533,11.49533,0,0,0,5.28624-.1646,9.59576,9.59576,0,0,0,2.85291-1.36183,6.30975,6.30975,0,0,0,2.20614-8.41373,9.95146,9.95146,0,0,0-2.11484-2.80986,14.9488,14.9488,0,0,0-2.0209-1.57753,17.918,17.918,0,0,0-2.77514-1.13681q-2.2545-.85488-4.47622-1.79207,1.00338.42342,2.00681.84687c-2.93356-1.24134-5.91632-2.35257-8.85114-3.59027q1.04547.44121,2.09093.88237c-2.46421-1.04625-4.91722-2.11675-7.38428-3.15682l2.12265.89575a140.54112,140.54112,0,0,1-30.77953-18.0285l1.76766,1.36568a150.48365,150.48365,0,0,1-26.88252-26.7496q.64924.84033,1.29845,1.68065c-3.41128-4.42259-6.65623-9.02024-9.64-13.74228-2.9822-4.7196-5.55161-9.65783-8.13458-14.59658-.73333-1.40217-1.423-2.82944-2.09412-4.26228a11.82709,11.82709,0,0,0-1.8021-3.03641c-.25255-.28742-.53442-.55537-.79253-.83928-.32068-.3527-.94-1.34208-.08534-.01362a5.49866,5.49866,0,0,0-6.07663-2.47282c-2.13844.692-4.135,2.78169-3.95042,5.18864Z" fill="#ffe3c2"/><rect x="495.66699" y="105.60693" width="43.99512" height="4" fill="#ffc68d"/><rect x="495.66699" y="123.98145" width="43.99512" height="4" fill="#ffc68d"/><rect x="495.66699" y="142.35547" width="43.99512" height="4" fill="#ffc68d"/><rect x="495.66699" y="160.72998" width="43.99512" height="4" fill="#ffc68d"/><rect x="495.66699" y="179.104" width="43.99512" height="4" fill="#ffc68d"/><rect x="495.66699" y="197.47852" width="43.99512" height="4" fill="#ffc68d"/><rect x="495.66699" y="215.85254" width="43.99512" height="4" fill="#ffc68d"/><rect x="513.07666" y="107.60693" width="4" height="18.37451" fill="#ffc68d"/><rect x="527.82764" y="125.98145" width="4" height="18.37402" fill="#ffc68d"/><rect x="508.15967" y="144.35547" width="4" height="18.37451" fill="#ffc68d"/><rect x="519.02881" y="162.72998" width="4" height="18.37402" fill="#ffc68d"/><rect x="498.06641" y="181.104" width="4" height="18.37451" fill="#ffc68d"/><rect x="527.82764" y="181.104" width="4" height="18.37451" fill="#ffc68d"/><rect x="508.15967" y="199.47852" width="4" height="18.37402" fill="#ffc68d"/><rect x="645.74072" y="223.9834" width="43.99512" height="4" fill="#ffc68d"/><rect x="645.74072" y="242.35791" width="43.99512" height="4" fill="#ffc68d"/><rect x="645.74072" y="260.73242" width="43.99512" height="4" fill="#ffc68d"/><rect x="645.74072" y="279.10645" width="43.99512" height="4" fill="#ffc68d"/><rect x="645.74072" y="297.48096" width="43.99512" height="4" fill="#ffc68d"/><rect x="645.74072" y="315.85498" width="43.99512" height="4" fill="#ffc68d"/><rect x="645.74072" y="334.22949" width="43.99512" height="4" fill="#ffc68d"/><rect x="663.15039" y="225.9834" width="4" height="18.37451" fill="#ffc68d"/><rect x="677.90186" y="244.35791" width="4" height="18.37451" fill="#ffc68d"/><rect x="658.2334" y="262.73242" width="4" height="18.37402" fill="#ffc68d"/><rect x="669.10254" y="281.10645" width="4" height="18.37451" fill="#ffc68d"/><rect x="648.14063" y="299.48096" width="4" height="18.37402" fill="#ffc68d"/><rect x="677.90186" y="299.48096" width="4" height="18.37402" fill="#ffc68d"/><rect x="658.2334" y="317.85498" width="4" height="18.37451" fill="#ffc68d"/><rect x="209.39111" y="267.22021" width="43.99463" height="4" fill="#ffc68d"/><rect x="209.39111" y="285.59473" width="43.99463" height="4" fill="#ffc68d"/><rect x="209.39111" y="303.96875" width="43.99463" height="4" fill="#ffc68d"/><rect x="209.39111" y="322.34326" width="43.99463" height="4" fill="#ffc68d"/><rect x="209.39111" y="340.71729" width="43.99463" height="4" fill="#ffc68d"/><rect x="209.39111" y="359.0918" width="43.99463" height="4" fill="#ffc68d"/><rect x="209.39111" y="377.46631" width="43.99463" height="4" fill="#ffc68d"/><rect x="226.80078" y="269.22021" width="4" height="18.37451" fill="#ffc68d"/><rect x="241.55176" y="287.59473" width="4" height="18.37402" fill="#ffc68d"/><rect x="221.8833" y="305.96875" width="4" height="18.37451" fill="#ffc68d"/><rect x="232.75293" y="324.34326" width="4" height="18.37402" fill="#ffc68d"/><rect x="211.79053" y="342.71729" width="4" height="18.37451" fill="#ffc68d"/><rect x="241.55176" y="342.71729" width="4" height="18.37451" fill="#ffc68d"/><rect x="221.8833" y="361.0918" width="4" height="18.37451" fill="#ffc68d"/><path d="M466.67542,526.2l-.21285,14.406s24.696,2.5725,30.87,18.522H438.524V526.2Z" fill="#fd8b66"/><path d="M409.77931,524.80072l-3.69211,13.92647s23.33981,8.47135,25.47133,25.44079L374.49729,549.939l7.967-31.94964Z" fill="#fd8b66"/><path d="M392.53645,324.34315s-9.538,39.4825-30.76044,63.06965-33.46248,19.29577-29.14248,27.56146S348.70945,421.8,351.11149,447s20.88,15.12,20.88,15.12l12.02214-25.34112Z" fill="#13a497"/><path d="M488.63148,346.27192c.72-40.31994-13.5-60.66-13.5-60.66H457.02882l-.0138.01672c-12.735,36.22571-33.47088,70.49133-67.0235,80.80335,0,0-3.6,33.12-3.32708,43.47631.27295,10.35621-14.67292,118.52369-14.67292,118.52369s33.12,10.08007,61.32172,3.60009c28.20178-6.48,55.34473-3.60009,55.34473-3.60009S487.91151,386.59187,488.63148,346.27192Z" fill="#e6560f"/><polygon points="456.499 285.6 456.48 467.991 453.499 285.624 456.499 285.6" fill="#af2500"/><polygon points="448.106 302.937 445.158 391.152 445.106 302.888 448.106 302.937" fill="#af2500"/><polygon points="439.981 318.934 424.563 441.959 437 318.597 439.981 318.934" fill="#af2500"/><path d="M424.39722,171.72663c.00788-.09.01587-.17822.02338-.27014C424.41309,171.54829,424.405,171.63679,424.39722,171.72663Z" fill="#e6560f"/><path d="M488.63148,202.752s-8.64-18.24011-12-20.40014c-3.36-2.15991-21.36-7.91992-21.36-7.91992s3.36,30.72-3.18,29.28c-6.54-1.44007-28.98-27.36011-28.98-27.36011-2.64.24-20.64.48-28.32,8.88013-7.68,8.3999-9.84,23.2799-9.84,23.2799l-1.44,29.04,29.16-1.79993s-8.64,36.22-6.48,39.34986c2.16,3.13013,74.52,0,74.52,0l3.6-32.59937,19.08-10.35058Z" fill="#e6560f"/><path d="M424.33051,172.426c-.00677.06506-.013.13293-.02.19665C424.31751,172.55891,424.32374,172.491,424.33051,172.426Z" fill="#e6560f"/><path d="M424.4853,170.57661c.00714-.10828.01373-.21912.02051-.32947C424.49909,170.35749,424.4925,170.46833,424.4853,170.57661Z" fill="#e6560f"/><path d="M424.54774,169.50007c.00506-.09765.01056-.19275.01532-.29175C424.55836,169.3072,424.55274,169.40242,424.54774,169.50007Z" fill="#e6560f"/><path d="M455.11146,172.67h0c.0614.94812.1416,1.616.15527,1.72339C455.2472,174.23335,455.16962,173.56843,455.11146,172.67Z" fill="#e6560f"/><path d="M423.72932,175.60261c.01049-.02734.02142-.052.03174-.08081C423.7508,175.55061,423.73988,175.57527,423.72932,175.60261Z" fill="#e6560f"/><path d="M423.55109,175.98677c.00989-.01673.01917-.0376.02893-.0553C423.57026,175.94917,423.561,175.97,423.55109,175.98677Z" fill="#e6560f"/><path d="M423.3661,176.22077a.56168.56168,0,0,1-.044.03541C423.33686,176.24482,423.35163,176.2342,423.3661,176.22077Z" fill="#e6560f"/><path d="M424.05921,174.35871c.00488-.02563.01032-.04846.01514-.0747C424.06947,174.31025,424.06416,174.33308,424.05921,174.35871Z" fill="#e6560f"/><path d="M423.90681,175.04084c.01135-.04321.02221-.08923.03326-.1344C423.92908,174.95161,423.91816,174.99763,423.90681,175.04084Z" fill="#e6560f"/><path d="M424.18616,173.59529c.0102-.06983.02033-.14.03016-.21192C424.20649,173.45527,424.19636,173.52558,424.18616,173.59529Z" fill="#e6560f"/><path d="M457.19154,165.072c3.12-.24011,11.52-5.76,11.52-12.72009,0-6.96,2.16-33.11987-.48-36.48-2.64-3.36-8.76.09009-10.38-1.35s-1.8-6.56994-5.49-7.28991c-3.69-.7201-9.56244,4.07995-13.87122-.48a18.47462,18.47462,0,0,1-8.17877,14.87989s1.68,13.68-5.04,11.04c-6.72-2.64-10.32,1.91992-9.84,5.04.48,3.11987,2.16,8.63989,8.88,8.63989,0,0,1.44,29.76-1.2,30,0,0,22.44,25.92,28.98,27.36011,6.54,1.43994,3.18-29.28,3.18-29.28S454.07148,165.312,457.19154,165.072Z" fill="#fd8b66"/><path d="M438.49027,106.752a18.47463,18.47463,0,0,1-8.17878,14.88s1.68,13.68-5.04,11.04-10.32,1.92-9.84,5.04,2.16,8.64,8.88,8.64c0,0,1.44,29.76-1.2,30s-20.64.48-28.32,8.88-9.84,23.28-9.84,23.28-14.64-11.04-4.56-21.12,10.08-9.6,10.08-15.12-.96-11.04,4.32-11.28,2.64-6.48,2.64-10.8-1.2-8.88,3.36-10.56c0,0-2.4-10.8,5.04-12s1.92-9.84,3.12-14.16,3.36-10.8,12-10.8c0,0,2.16-8.16,9.12-7.44,0,0,.72-11.52,11.52-9.84s14.4,10.56,19.68,11.04,15.6,0,16.8,11.28.24,12.48,5.04,14.4,14.4,6.24,10.56,14.4-3.12,10.32-2.4,13.68,2.88,9.84-.24,16.08-4.08,8.4-1.44,13.44,6.81145,12.48,4.96572,17.28a9.23642,9.23642,0,0,1-5.92572,5.76s-8.64-18.24-12-20.4-21.36-7.92-21.36-7.92-1.2-9.12,1.92-9.36,11.52-5.76,11.52-12.72,2.16-33.12-.48-36.48-8.76.09-10.38-1.35-1.8-6.57-5.49-7.29S442.79905,111.312,438.49027,106.752Z" fill="#5e1212"/><path d="M464.05078,121.32178a.74423.74423,0,0,1-.43848-.14209c-2.8125-2.02979-6.72558.03125-6.76464.05224a.75014.75014,0,0,1-.71338-1.31982c.19433-.104,4.77539-2.53516,8.356.05176a.75.75,0,0,1-.43945,1.35791Z" fill="#230000"/><path d="M445.0498,121.32178a.74418.74418,0,0,1-.43847-.14209c-2.813-2.02979-6.72559.03125-6.76514.05224a.75014.75014,0,0,1-.71338-1.31982c.19385-.10449,4.77588-2.5332,8.35645.05176a.75.75,0,0,1-.43946,1.35791Z" fill="#230000"/><path d="M441.29149,134.322c2.89554,0,2.90033-4.5,0-4.5-2.89553,0-2.90033,4.5,0,4.5Z" fill="#230000"/><path d="M460.37149,135.042c2.89554,0,2.90033-4.5,0-4.5-2.89553,0-2.90033,4.5,0,4.5Z" fill="#230000"/><path d="M452.09149,122.232a1.5009,1.5009,0,0,0,0-3,1.5009,1.5009,0,0,0,0,3Z" fill="#e8233b"/><path d="M452.99149,127.032a23.56965,23.56965,0,0,1,2.46481,3.94055,33.76289,33.76289,0,0,1,1.82809,4.23682,19.32562,19.32562,0,0,1,1.087,4.59589,6.12622,6.12622,0,0,1,.01373.65857,2.6705,2.6705,0,0,1-.03134.37048,1.53664,1.53664,0,0,1-.12857.4574,1.08506,1.08506,0,0,1-.43857.49981,2.7437,2.7437,0,0,1-.34006.14881,2.55106,2.55106,0,0,1-.69772.14294,3.41447,3.41447,0,0,1-2.31741-.8313,4.12931,4.12931,0,0,0,2.12961-.13263,1.6933,1.6933,0,0,0,.38446-.21228,1.55315,1.55315,0,0,0,.15463-.13568c.05447-.03528-.008-.02447-.04773.0141a.19607.19607,0,0,0-.03937.0553l-.01474-.01062c-.02847-.06085-.06811-.47357-.168-.778-.389-1.35181-.95413-2.76807-1.43359-4.18366-.49686-1.41888-.96487-2.85919-1.38586-4.32318A32.4921,32.4921,0,0,1,452.99149,127.032Z" fill="#d04719"/><path d="M446.87149,142.872a34.39408,34.39408,0,0,0,3.1601,3.65845,13.13941,13.13941,0,0,0,1.73742,1.4226c.62418.48163,1.33878.84558,2.12247,1.39893a4.79911,4.79911,0,0,1-2.77075.03381,5.59422,5.59422,0,0,1-2.46952-1.40893,6.1825,6.1825,0,0,1-1.54513-2.35419A4.96,4.96,0,0,1,446.87149,142.872Z" fill="#e8233b"/><path d="M436.77189,160.39186s1.80176,8.731,18.28833,9.51709c.06433-1.80175.36695-3.62353,1.22571-4.41943C454.28581,165.56569,444.7642,165.62477,436.77189,160.39186Z" fill="#d04719"/><polyline points="412.672 235.752 416.631 235.752 415.389 207.492" fill="#af2500"/><polygon points="478.191 203.761 482.238 222.361 480.265 222.683 478.191 203.761" fill="#af2500"/><path d="M416.63149,235.752h-4.2c-4.56,8.28-.48,25.55994-11.64,52.53335s-10.8,78.14659-10.8,78.14659c78.48-24.12,86.88-179.28,86.64-184.08s-14.64-10.32-21.36-7.92-38.8339,56.91-38.8339,56.91Z" fill="#56cbb8"/><path d="M403.79785,261.96777l-.98389-.16455c1.27344-12.92138,8.917-16.46875,9.2417-16.61328l.67188-.29932.22168,5.187-.41846.08447C406.38184,251.40332,403.82324,261.8623,403.79785,261.96777Zm7.99707-15.48339c-1.42627.90771-4.78906,3.56347-6.72119,9.32568,1.45313-2.792,3.67334-5.69141,6.84082-6.53076Z"/><path d="M215.36686,106.77114h-90.96a3,3,0,0,0-3,3v70.32007a3,3,0,0,0,3,3h36.86493l6.061,9.83545a3,3,0,0,0,5.108,0l6.061-9.83545h36.86493a3,3,0,0,0,3-3V109.77114A3,3,0,0,0,215.36686,106.77114Z" fill="#78c1d0"/><path d="M348.11149,196.82114h-90.96a3,3,0,0,0-3,3v70.32007a3,3,0,0,0,3,3h36.86493l6.061,9.83545a3,3,0,0,0,5.108,0l6.061-9.83545h36.86493a3,3,0,0,0,3-3V199.82114A3,3,0,0,0,348.11149,196.82114Z" fill="#ffb957"/><path d="M586.28222,35.832H512.62659a2.42927,2.42927,0,0,0-2.42928,2.42928V95.2036a2.42927,2.42927,0,0,0,2.42928,2.42927h29.8517l4.908,7.96434a2.42931,2.42931,0,0,0,4.13628,0l4.908-7.96434h29.85171a2.42927,2.42927,0,0,0,2.42927-2.42927V38.2613A2.42927,2.42927,0,0,0,586.28222,35.832Z" fill="#78c1d0"/><path d="M613.64222,210.18649H539.98659a2.42927,2.42927,0,0,0-2.42928,2.42927v56.9423a2.42927,2.42927,0,0,0,2.42928,2.42928h29.8517l4.908,7.96434a2.42932,2.42932,0,0,0,4.13628,0l4.908-7.96434h29.85171a2.42927,2.42927,0,0,0,2.42927-2.42928v-56.9423A2.42927,2.42927,0,0,0,613.64222,210.18649Z" fill="#78c1d0"/><path d="M343.21223,39.3214H269.5566a2.42927,2.42927,0,0,0-2.42928,2.42928V98.693a2.42927,2.42927,0,0,0,2.42928,2.42927h29.8517l4.908,7.96434a2.4293,2.4293,0,0,0,4.13627,0l4.908-7.96434h29.8517A2.42927,2.42927,0,0,0,345.6415,98.693V41.75068A2.42927,2.42927,0,0,0,343.21223,39.3214Z" fill="#ffab57"/><path d="M713.95417,95.8313H623.99463a2.967,2.967,0,0,0-2.967,2.967V168.345a2.967,2.967,0,0,0,2.967,2.967H660.4541l5.99438,9.72727a2.967,2.967,0,0,0,5.05185,0l5.99437-9.72727h36.45947a2.967,2.967,0,0,0,2.967-2.967V98.7983A2.967,2.967,0,0,0,713.95417,95.8313Z" fill="#78c1d0"/><path d="M188.85849,167.76973,179.71491,156.955a4.95784,4.95784,0,0,1-1.03338-4.37823c.74054-3.02072,1.87666-8.10025,1.87666-10.72539,0-3.88735-2.65045-5.53321-6.6306-15.74887-.673-1.72777-1.53171-3.1875-2.6311-3.01131a1.9773,1.9773,0,0,0-1.40961,2.06478,1.97671,1.97671,0,0,0-1.41159-2.06478c-1.09741-.17619-1.95607,1.28354-2.6311,3.01131-3.97815,10.21566-6.62861,11.86152-6.62861,15.74887,0,2.62514,1.13612,7.70467,1.87467,10.72539a4.95687,4.95687,0,0,1-1.0314,4.37823l-9.14357,10.81475a1.48888,1.48888,0,0,0,1.09542,2.49709h9.52576a1.48372,1.48372,0,0,0,1.26766-.71177l4.88993-7.47387a16.692,16.692,0,0,0,2.19283-8.3137,16.69212,16.69212,0,0,0,2.19283,8.3137l4.88994,7.47387a1.48372,1.48372,0,0,0,1.26765.71177h9.52576a1.48888,1.48888,0,0,0,1.09543-2.49709Zm0,0" fill="#fd8b66"/><path d="M169.88688,140.37771a.74479.74479,0,0,1-.74451-.74451V125.156a.74451.74451,0,1,1,1.489,0V139.6332a.74477.74477,0,0,1-.74451.74451Zm0,0" fill="#5e1212"/><path d="M169.88688,154.512a.74479.74479,0,0,1-.74451-.74451V139.61783a18.56,18.56,0,0,0-.62042-5.01951c-.44224-.74848-.79513-.68642-.98474-.65169-.24618.0427-.54894.3956-.72713,2.74526-.18415,2.42164-.30626,4.02334-2.08414,6.35166a.74419.74419,0,0,1-1.18278-.90334c1.45031-1.898,1.59574-3.0768,1.78534-5.56248.15933-2.07817.41493-3.82131,1.94863-4.09877a2.3395,2.3395,0,0,1,2.53233,1.363c.75195,1.2895.82193,5.73125.82193,5.77592v14.14965a.74478.74478,0,0,1-.74451.74451Zm0,0" fill="#5e1212"/><path d="M169.88688,154.512a.74479.74479,0,0,1-.74451-.74451V139.61783c0-.04467.07-4.48642.82591-5.77592a2.33827,2.33827,0,0,1,2.53232-1.361c1.5332.27546,1.78931,2.0186,1.94815,4.09677.1881,2.48568.33353,3.66448,1.78582,5.56248a.74481.74481,0,0,1-1.18277.90534c-1.77988-2.33032-1.902-3.932-2.08414-6.35366-.17818-2.34966-.481-2.70256-.72713-2.74526-.18811-.03473-.543-.09875-.98474.65169a18.38632,18.38632,0,0,0-.6244,5.01951v14.14568a.74564.74564,0,0,1-.74451.74848Zm0,0" fill="#5e1212"/><circle cx="211.70523" cy="109.65114" r="20.7" fill="#e8233b"/><circle cx="621.02763" cy="165.76968" r="20.7" fill="#e8233b"/><circle cx="345.6415" cy="94.2614" r="13" fill="#e8233b"/><circle cx="348.77601" cy="199.46968" r="13" fill="#e8233b"/><circle cx="510.19731" cy="67.23296" r="13" fill="#e8233b"/><circle cx="537.55731" cy="266.74922" r="13" fill="#e8233b"/><path d="M678.16864,118.03328q0,.59364-.026,1.17569a19.32947,19.32947,0,0,0-5.17441,3.09379,22.64955,22.64955,0,0,0-3.37244-8.01362.74779.74779,0,0,0-1.2427,0,22.6485,22.6485,0,0,0-3.37293,8.01362,19.37906,19.37906,0,0,0-5.17441-3.09478c-.01741-.38749-.02555-.77993-.02555-1.1747,0-6.678,5.40234-12.38638,7.925-14.68679a1.882,1.882,0,0,1,2.53846,0c2.52217,2.30041,7.925,8.0088,7.925,14.68679Zm0,0" fill="#e6560f"/><path d="M672.96819,122.30276c-.31814.2705-.63048.5568-.9327.859a31.24411,31.24411,0,0,0-3.0606,3.5378,31.44658,31.44658,0,0,0-3.06157-3.5378c-.30223-.30223-.61457-.58853-.9332-.859a22.6485,22.6485,0,0,1,3.37293-8.01362.74779.74779,0,0,1,1.2427,0,22.64955,22.64955,0,0,1,3.37244,8.01362Zm0,0" fill="#13a497"/><path d="M668.97489,126.69959c-.46277.62715-.87593,1.24418-1.23652,1.84294h-8.5671a21.58052,21.58052,0,0,1-4.61748-9.77992.74663.74663,0,0,1,.8773-.87791,21.07839,21.07839,0,0,1,10.48223,5.27709,31.44658,31.44658,0,0,1,3.06157,3.5378Zm0,0" fill="#13a497"/><path d="M683.395,118.76261a21.56658,21.56658,0,0,1-4.618,9.77992H667.73837a28.92037,28.92037,0,0,1,4.29712-5.38074,21.08208,21.08208,0,0,1,10.48223-5.27709.74663.74663,0,0,1,.87729.87791Zm0,0" fill="#13a497"/><path d="M680.44733,132.84385H657.50147l-6.01308,6.72711a9.161,9.161,0,0,0,0,12.21287l3.28136,3.67133a9.16319,9.16319,0,0,0,6.83114,3.05565h14.747a9.16319,9.16319,0,0,0,6.83114-3.05565l3.28137-3.67133a9.161,9.161,0,0,0,0-12.21287Zm0,0" fill="#ffab57"/><path d="M655.71788,128.543h26.513a1.79957,1.79957,0,0,1,1.79951,1.7995v.70181a1.79958,1.79958,0,0,1-1.79951,1.79951h-26.513a1.79957,1.79957,0,0,1-1.7995-1.79951v-.70181a1.79957,1.79957,0,0,1,1.7995-1.7995Zm0,0" fill="#e8233b"/><path d="M659.04552,158.51081h19.85776a1.7496,1.7496,0,0,1,1.7494,1.74941v.72019a1.74959,1.74959,0,0,1-1.7494,1.74941H659.04552a1.74959,1.74959,0,0,1-1.7494-1.74941v-.72019a1.7496,1.7496,0,0,1,1.7494-1.74941Zm0,0" fill="#e8233b"/><path d="M668.9744,152.71567h-6.72612a.74044.74044,0,0,1,0-1.48087H668.234V138.523a.74063.74063,0,0,1,.74044-.74043h6.72612a.74043.74043,0,1,1,0,1.48087h-5.98568v12.7118a.74039.74039,0,0,1-.74044.74044Zm0,0" fill="#e8233b"/><path d="M675.70052,152.71567a.74031.74031,0,0,1-.74043-.74044v-5.98568H662.24828a.74038.74038,0,0,1-.74043-.74044V138.523a.74044.74044,0,0,1,1.48087,0v5.98569h12.7118a.74063.74063,0,0,1,.74044.74043v6.72612a.74039.74039,0,0,1-.74044.74044Zm0,0" fill="#e8233b"/><path d="M476.08465,275.102l-.95316,10.51H457.02882s1.72547-4.77955,3.23122-9.76329Z" fill="#fd8b66"/><polygon points="468.561 222.522 457.221 258.072 485.301 258.702 495.381 222.522 468.561 222.522" fill="#003347"/><path d="M490.31153,264.55195c-.84-3.48.6-9.96008.96-13.20007s1.68-13.55994,1.68-13.55994c-3.96-2.88-4.8,6.12-5.4,6.96008-.6.83985-3.24-2.24951-3.24-2.24951l-3.7998-3.87451a90.28814,90.28814,0,0,1-12.16022.72388c-1.2,0-1.2,1.32007-1.2,1.32007s15.84.36,15.1206,2.76c-.55462,1.85034-9.66528,1.84607-13.81109,1.74707,4.25109.16772,13.71746.69726,13.81048,2.09289.12,1.8-17.4,2.64-17.4,2.64s14.52.84008,15,3c.16687.751-3.60065,1.38562-8.64313,1.89441l.00061.00036,7.32251,8.23194c-5.64,21.28686-1.2,23.35327.6,25.06323,1.8,1.71008,12.36-9.02991,13.8-11.60889C494.39149,273.91413,491.1515,268.03193,490.31153,264.55195Z" fill="#fd8b66"/><path d="M386.75149,237.312s-1.68,41.76,9.72,42.72,48.96-23.76,50.4-23.76,33.48-1.2,33-3.36-15-3-15-3,17.52-.84,17.4-2.64-15.84-2.16-15.84-2.16,15.12123.72,15.84062-1.68-15.12062-2.76-15.12062-2.76,0-1.32,1.2-1.32,15,0,15.12-2.04-14.4-3.48-15.96-3.48-4.68-2.52-3.36-3c0,0-.96-1.32-7.92,1.44s-43.8,17.4-43.8,17.4l-.6-14.04Z" fill="#fd8b66"/><path d="M446.87149,256.272c4.078-.24823,8.15186-.54638,12.22223-.86133,4.06958-.321,8.13394-.71508,12.1799-1.15887,2.01761-.2381,4.0444-.49237,6.00046-.89862a13.62355,13.62355,0,0,0,1.41028-.36774,2.97915,2.97915,0,0,0,.56228-.24133c.04633-.01923.08707-.10962-.01461.06549a.62023.62023,0,0,0-.02778.167c.01368.08972.01587.08869.00827.0871-.01174.00543.01648.01916-.00042.0047a2.78715,2.78715,0,0,0-.98044-.52387,12.24953,12.24953,0,0,0-1.3913-.40026,83.40533,83.40533,0,0,0-12.01812-1.379.85508.85508,0,0,1,.00842-1.70691c2.81524-.15949,5.64392-.371,8.44833-.6554,1.4028-.14233,2.801-.309,4.18259-.5155.68915-.10645,1.3743-.22369,2.04248-.36438a8.77692,8.77692,0,0,0,1.8118-.53632.45236.45236,0,0,0,.124-.06848c.02676-.01458.06509-.04516-.00061.01276-.02814.03363-.00119.02118-.05386.1029a.437.437,0,0,0-.05033.27515c-.03186.14465.11441.33264.098.32489a.08367.08367,0,0,0,.041.03546l-.041-.02069a.39857.39857,0,0,0-.11819-.06354,3.23673,3.23673,0,0,0-.37656-.14825,13.88166,13.88166,0,0,0-1.93115-.43c-1.35825-.216-2.75549-.357-4.15457-.47284-2.7995-.23035-5.63312-.3382-8.4437-.42835l.07-1.98663c2.63809.1192,5.31137.16113,7.94959.08166,1.3193-.042,2.63662-.1173,3.91949-.27325a15.18759,15.18759,0,0,0,1.86188-.32666,6.18193,6.18193,0,0,0,.81232-.26111,1.99092,1.99092,0,0,0,.37908-.222.417.417,0,0,0-.02032.27276.15268.15268,0,0,0,.04053.06983.01744.01744,0,0,0-.00482.01025l.00842-.00177-.04462-.03009a2.4206,2.4206,0,0,0-.62405-.32111,12.23984,12.23984,0,0,0-1.79291-.49035c-1.26346-.25726-2.57327-.43128-3.88672-.57392-2.62842-.27856-5.29788-.44207-7.94446-.53118l-.04138-.00141a.8179.8179,0,0,1-.79-.845l.00016-.00409a2.56676,2.56676,0,0,1,.19113-.91919,2.01856,2.01856,0,0,1,.62436-.842,1.90965,1.90965,0,0,1,1.00314-.38287l.2388-.01257.15344.002.3064.00336,2.45444.00049c1.63641-.01557,3.2727-.05628,4.90088-.14667a38.79922,38.79922,0,0,0,4.81417-.51209,9.105,9.105,0,0,0,1.11609-.27862,2.03066,2.03066,0,0,0,.73923-.36292c-.0083-.043.0148.1734.00269.11933a.90047.90047,0,0,0-.25522-.22083,5.77164,5.77164,0,0,0-.99668-.46716,56.93,56.93,0,0,0-9.53982-1.965c-1.64328-.23028-3.21121-.42737-4.92237-.56024a5.93982,5.93982,0,0,1-2.30337-1.19934,4.90216,4.90216,0,0,1-.91339-.92847,1.59341,1.59341,0,0,1-.30585-.66162.63358.63358,0,0,1,.11209-.45465c.09033-.16248.23276-.18085.35425-.25946l-.10361.33942a1.68083,1.68083,0,0,0-.799-.23664,6.08277,6.08277,0,0,0-.99664.01111,14.25907,14.25907,0,0,0-2.009.33637,36.288,36.288,0,0,0-3.9357,1.19848,36.40176,36.40176,0,0,1,3.874-1.43518,12.51292,12.51292,0,0,1,2.03406-.45086,6.43428,6.43428,0,0,1,1.06109-.05762,1.71652,1.71652,0,0,1,1.13034.3728.18111.18111,0,0,1-.02383.29138l-.07977.04828c-.13007.0788-.16367.1156-.15155.22876a1.18962,1.18962,0,0,0,.23986.43225,4.41033,4.41033,0,0,0,.851.7876,5.40089,5.40089,0,0,0,2.0802.9848c1.57513.043,3.28564.18286,4.9114.338,1.64585.15619,3.28867.35315,4.92652.61908a32.45358,32.45358,0,0,1,4.91073,1.09607,6.85453,6.85453,0,0,1,1.24735.55194,2.01571,2.01571,0,0,1,.6546.59577,1.25854,1.25854,0,0,1,.13846.26953,1.8499,1.8499,0,0,1,.0589.36334,1.16293,1.16293,0,0,1-.21237.62659,2.7269,2.7269,0,0,1-1.35416.8717,10.34085,10.34085,0,0,1-1.26843.35541,39.99781,39.99781,0,0,1-4.98514.67023c-1.65656.13684-3.31122.22265-4.96625.2832l-2.48376.06659-.311.005-.15521.00213-.06915.00812a.27062.27062,0,0,0-.13461.04687.70139.70139,0,0,0-.1529.42829l-.831-.85034c2.70648.06707,5.388.20715,8.08835.46838,1.34945.13489,2.69916.29993,4.06292.56451a13.91583,13.91583,0,0,1,2.08127.55494,4.04736,4.04736,0,0,1,1.14356.61212,1.43851,1.43851,0,0,1,.31857.3186l.1517.20654a2.22613,2.22613,0,0,1,.12345.30658,1.30991,1.30991,0,0,1,.04519.669,1.45513,1.45513,0,0,1-.2102.556,2.6885,2.6885,0,0,1-1.20746.95789,7.893,7.893,0,0,1-1.09283.36779,16.97794,16.97794,0,0,1-2.08811.38849c-1.3743.1792-2.733.26734-4.08926.32312-2.7146.10541-5.40094.08728-8.11377-.01086a.99393.99393,0,0,1,.05935-1.98694l.01069.00024c2.86526.06952,5.70587.23719,8.56466.48682,1.42893.13153,2.85761.287,4.30179.5296a15.52227,15.52227,0,0,1,2.216.52069,5.01093,5.01093,0,0,1,.60978.24976,1.89505,1.89505,0,0,1,.34369.1983l.18023.12738a2.60748,2.60748,0,0,1,.22028.23194,1.36689,1.36689,0,0,1,.31128.79675,1.63147,1.63147,0,0,1-.11176.53412,1.14107,1.14107,0,0,1-.2055.31628,1.53,1.53,0,0,1-.40387.35333,1.93425,1.93425,0,0,1-.33921.1908,10.15105,10.15105,0,0,1-2.26141.67194c-.72235.14538-1.43808.2608-2.1528.36474-1.42828.20063-2.85178.357-4.27481.48877-2.84763.263-5.68491.44989-8.54019.58624l.00842-1.7069c2.06287.13256,4.09955.34076,6.144.605a51.49389,51.49389,0,0,1,6.122,1.09893,13.571,13.571,0,0,1,1.53772.48945,3.50925,3.50925,0,0,1,1.59549,1.059,1.52414,1.52414,0,0,1,.16629.34692.91006.91006,0,0,1-.008.62109,1.21944,1.21944,0,0,1-.54761.59577,4.11389,4.11389,0,0,1-.8476.349,14.791,14.791,0,0,1-1.56238.36493c-2.05535.36889-4.09338.56646-6.13656.75292-4.08246.37031-8.17023.52784-12.25485.68586C455.04443,256.17316,450.9588,256.28766,446.87149,256.272Z" fill="#d04719"/><path d="M481.25149,232.842a1.5009,1.5009,0,0,0,0-3,1.5009,1.5009,0,0,0,0,3Z" fill="#f89017"/><path d="M204.60742,103.51318H204.562l-2.56055,1.38184-.38525-1.51856,3.21777-1.72167h1.69922V116.3833h-1.92578Z" fill="#fff"/><path d="M211.90479,116.3833v-1.22363l1.56347-1.51856c3.76172-3.58007,5.46094-5.4834,5.48389-7.7041a2.62733,2.62733,0,0,0-2.92334-2.877,5.01579,5.01579,0,0,0-3.12695,1.24609l-.63428-1.40527a6.46046,6.46046,0,0,1,4.16943-1.49512,4.14379,4.14379,0,0,1,4.50879,4.28223c0,2.71875-1.97119,4.917-5.07568,7.9082l-1.17823,1.08789v.04492h6.6167v1.6543Z" fill="#fff"/><path d="M611.88086,171.36865a6.369,6.369,0,0,0,3.12207.88965c2.45019,0,3.209-1.56152,3.1875-2.73242-.02148-1.97266-1.79981-2.81836-3.64258-2.81836h-1.0625v-1.43164h1.0625c1.3877,0,3.144-.71484,3.144-2.38477,0-1.12793-.71582-2.125-2.47216-2.125a5.17535,5.17535,0,0,0-2.81836.93262l-.499-1.38769a6.701,6.701,0,0,1,3.686-1.084c2.77539,0,4.0332,1.64746,4.0332,3.36035a3.49935,3.49935,0,0,1-2.602,3.31739v.04394a3.67059,3.67059,0,0,1,3.144,3.62109c0,2.25489-1.75634,4.22754-5.13867,4.22754a7.15707,7.15707,0,0,1-3.66455-.9541Z" fill="#fff"/><path d="M630.58984,160.81006a6.88554,6.88554,0,0,0-1.43115.08594,5.72924,5.72924,0,0,0-4.90039,5.00879h.06543a4.19959,4.19959,0,0,1,3.40381-1.626c2.49365,0,4.25,1.7998,4.25,4.55371a4.71255,4.71255,0,0,1-4.68359,4.96484c-3.01368,0-4.98682-2.34179-4.98682-6.00586a8.86254,8.86254,0,0,1,2.38476-6.35351,7.67742,7.67742,0,0,1,4.51026-2.08106,9.137,9.137,0,0,1,1.38769-.10839Zm-.542,8.13086c0-2.0166-1.14941-3.23145-2.90576-3.23145a3.14017,3.14017,0,0,0-2.73193,1.73535,1.62435,1.62435,0,0,0-.2168.84571c.04346,2.31933,1.106,4.03222,3.10059,4.03222C628.94189,172.32275,630.04785,170.95752,630.04785,168.94092Z" fill="#fff"/><path d="M506.66846,64.89648h-.02784l-1.56884.84668-.23584-.93066,1.97168-1.05469h1.041V72.7832h-1.18017Z" fill="#fff"/><path d="M517.002,63.75781v.80567l-3.92968,8.21972h-1.26319l3.91553-7.98437v-.02735h-4.41553V63.75781Z" fill="#fff"/><path d="M352.11719,193.50439h-4.416l-.44531,2.97364a6.24855,6.24855,0,0,1,.94385-.07129,4.89647,4.89647,0,0,1,2.49267.623,3.3,3.3,0,0,1,1.65625,2.9746,4.0158,4.0158,0,0,1-4.30908,3.95313,5.66058,5.66058,0,0,1-2.88476-.71289l.3916-1.19238a5.19337,5.19337,0,0,0,2.47509.64062,2.554,2.554,0,0,0,2.74219-2.51074c-.01758-1.49609-1.01465-2.56445-3.32959-2.56445a11.90851,11.90851,0,0,0-1.60254.125l.74756-5.55567h5.53809Z" fill="#fff"/><path d="M341.40283,99.74414v-.96191l1.22852-1.19239c2.95605-2.81347,4.2915-4.30957,4.30957-6.05468a2.065,2.065,0,0,0-2.29737-2.26172,3.94071,3.94071,0,0,0-2.457.97949l-.49853-1.10352a5.07831,5.07831,0,0,1,3.27637-1.17578,3.257,3.257,0,0,1,3.54345,3.36524c0,2.13769-1.54931,3.86425-3.98877,6.21484l-.92578.85449v.03614H348.793v1.2998Z" fill="#fff"/><path d="M530.96875,271.75928v-.8291l1.05908-1.02832c2.54834-2.42579,3.69922-3.71485,3.71485-5.21875a1.78041,1.78041,0,0,0-1.98047-1.9502,3.397,3.397,0,0,0-2.11817.84473l-.42968-.95215a4.37792,4.37792,0,0,1,2.82421-1.0127,2.80755,2.80755,0,0,1,3.05469,2.90137c0,1.8418-1.33545,3.33105-3.43847,5.35742l-.79834.73633v.03125h4.48242v1.12012Z" fill="#fff"/><path d="M545.47168,266.6626c0,3.39258-1.25879,5.26562-3.46924,5.26562-1.94971,0-3.26953-1.82715-3.30029-5.127,0-3.34668,1.44287-5.18848,3.46924-5.18848C544.27441,261.61279,545.47168,263.48584,545.47168,266.6626Zm-5.41895.15429c0,2.59375.79834,4.06739,2.02637,4.06739,1.38135,0,2.04151-1.61133,2.04151-4.16016,0-2.45605-.6294-4.06738-2.02637-4.06738C540.9126,262.65674,540.05273,264.09912,540.05273,266.81689Z" fill="#fff"/><path d="M325.26215,229.15806a9.819,9.819,0,1,1-19.638,0c0-5.42287,9.819-23.28256,9.819-23.28256S325.26215,223.73519,325.26215,229.15806Z" fill="#e6560f"/><path d="M319.96806,234.45215a4.5249,4.5249,0,1,1-9.04979,0c0-2.499,4.5249-10.72933,4.5249-10.72933S319.96806,231.95312,319.96806,234.45215Z" fill="#ffab57"/><path d="M277.71015,236.27965h50.40762a0,0,0,0,1,0,0v1.0984A25.20378,25.20378,0,0,1,302.914,262.58183h-.00005A25.20378,25.20378,0,0,1,277.71015,237.378v-1.0984A0,0,0,0,1,277.71015,236.27965Z" fill="#56cbb8"/><path d="M324.34545,250.59377a12.03931,12.03931,0,0,1-6.32092-2.52245,13.86524,13.86524,0,0,0-16.73217,0A12.52439,12.52439,0,0,1,286.0709,248.07a13.29424,13.29424,0,0,0-7.06443-2.75106q.23764.7159.51688,1.41193a12.292,12.292,0,0,1,5.79417,2.4554,13.86,13.86,0,0,0,16.72691.00131,12.53158,12.53158,0,0,1,15.228,0,13.63261,13.63261,0,0,0,6.26043,2.657C323.81887,251.438,324.08347,251.01755,324.34545,250.59377Z" fill="#e8233b"/><path d="M292.12964,246.91264a1.5009,1.5009,0,0,0,0-3,1.5009,1.5009,0,0,0,0,3Z" fill="#e8233b"/><path d="M310.669,254.42531a1.5009,1.5009,0,0,0,0-3,1.5009,1.5009,0,0,0,0,3Z" fill="#e8233b"/><path d="M571.70972,229.43127a10.12569,10.12569,0,0,0,.82135-4.00543,5.08628,5.08628,0,0,0-1.602-3.58032,9.18656,9.18656,0,0,1-1.48413-1.7984,6.06985,6.06985,0,0,1-.752-2.222,9.23342,9.23342,0,0,1,.65192-4.45318,8.98937,8.98937,0,0,0-.16083,4.35925,5.44345,5.44345,0,0,0,.88873,1.90564,8.41492,8.41492,0,0,0,1.53791,1.477,6.74152,6.74152,0,0,1,1.60357,1.81378,6.63162,6.63162,0,0,1,.80908,2.34522,11.80384,11.80384,0,0,1-.41406,4.78466,1.00172,1.00172,0,1,1-1.93609-.51507A1.09908,1.09908,0,0,1,571.70972,229.43127Z" fill="#230000"/><rect x="552.98243" y="239.14253" width="37.63329" height="18.83694" rx="0.73467" transform="translate(820.36008 -323.23807) rotate(90)" fill="#ffb957"/><polygon points="562.381 230.429 562.381 239.165 581.218 247.2 581.218 238.464 562.381 230.429" fill="#003347"/><polygon points="562.381 248.588 562.381 257.324 581.218 265.358 581.218 256.622 562.381 248.588" fill="#003347"/><path d="M582.26794,248.516a10.12643,10.12643,0,0,0,1.23786-3.89685,5.08639,5.08639,0,0,0-1.21686-3.72888,9.18772,9.18772,0,0,1-1.28686-1.94452,6.07026,6.07026,0,0,1-.51429-2.28876,9.2336,9.2336,0,0,1,1.11646-4.36,8.98888,8.98888,0,0,0-.61817,4.31817,5.44334,5.44334,0,0,0,.68348,1.98853,8.41618,8.41618,0,0,0,1.37408,1.63049,6.7411,6.7411,0,0,1,1.404,1.97229,6.63006,6.63006,0,0,1,.558,2.41724,11.80351,11.80351,0,0,1-.91468,4.71466,1.00172,1.00172,0,1,1-1.87121-.71576A1.09545,1.09545,0,0,1,582.26794,248.516Z" fill="#230000"/><path d="M577.80913,257.32383l5.43178-9.69747a.558.558,0,0,1,.96645-.01258l5.68236,9.55279,5.68237,9.5528a.558.558,0,0,1-.47233.84326l-11.11415.14467-11.11415.14467a.558.558,0,0,1-.49412-.83067Z" fill="#6095b2"/><path d="M588.422,254.70137a36.2002,36.2002,0,0,1-11.17169,3.61879l.558-.99608,5.43237-9.69848a.55672.55672,0,0,1,.96538-.01117Z" fill="#e8233b"/><path d="M595.0988,267.56386l-11.11311.1423-11.113.14509a.558.558,0,0,1-.49665-.82867l2.85989-5.10315a29.18641,29.18641,0,0,0,15.223-3.79458l5.11427,8.59361A.56074.56074,0,0,1,595.0988,267.56386Z" fill="#e8233b"/><path d="M284.44217,55.45789l43.86-.03821a2.21159,2.21159,0,0,1,2.215,2.21117l.02376,27.28194a2.21156,2.21156,0,0,1-2.21113,2.215l-43.86.03821a2.21488,2.21488,0,0,1-2.2181-2.21113l-.02377-27.28194a2.21491,2.21491,0,0,1,2.21425-2.215Zm0,0" fill="#78c1d0"/><path d="M330.3185,56.57339,306.40421,75.70558,282.4443,56.62233l.13262-.28954,23.825,16.72615,23.78348-16.76762Zm0,0" fill="#e6560f"/><path d="M555.6038,79.53183a6.1494,6.1494,0,1,1-6.14938-6.14947,6.14575,6.14575,0,0,1,6.14938,6.14947Zm0,0" fill="#ca5303"/><path d="M549.45442,54.93409a1.53987,1.53987,0,0,1-1.53735-1.53735V50.322a1.53733,1.53733,0,1,1,3.07466,0v3.07471a1.53986,1.53986,0,0,1-1.53731,1.53735Zm0,0" fill="#ca5303"/><path d="M563.87323,74.7814a10.28705,10.28705,0,0,1-3.65736-7.8728V62.62087a10.76147,10.76147,0,0,0-21.52293,0V66.9086a10.31431,10.31431,0,0,1-3.66971,7.8912,2.688,2.688,0,0,0,1.748,4.732h25.36637a2.69341,2.69341,0,0,0,1.73562-4.75043Zm0,0" fill="#ffb957"/><path d="M387.71353,233.94a1.5009,1.5009,0,0,0,0-3,1.5009,1.5009,0,0,0,0,3Z" fill="#78a7c6"/><path d="M397.25353,233.04a1.5009,1.5009,0,0,0,0-3,1.5009,1.5009,0,0,0,0,3Z" fill="#78a7c6"/><path d="M405.53353,232.86a1.5009,1.5009,0,0,0,0-3,1.5009,1.5009,0,0,0,0,3Z" fill="#78a7c6"/><path d="M412.91353,232.86a1.5009,1.5009,0,0,0,0-3,1.5009,1.5009,0,0,0,0,3Z" fill="#78a7c6"/><path d="M499.67353,231.6a1.5009,1.5009,0,0,0,0-3,1.5009,1.5009,0,0,0,0,3Z" fill="#78a7c6"/><path d="M494.99353,235.2a1.5009,1.5009,0,0,0,0-3,1.5009,1.5009,0,0,0,0,3Z" fill="#78a7c6"/><path d="M420.65353,180.84a1.5009,1.5009,0,0,0,0-3,1.5009,1.5009,0,0,0,0,3Z" fill="#78a7c6"/><path d="M424.61353,187.68a1.5009,1.5009,0,0,0,0-3,1.5009,1.5009,0,0,0,0,3Z" fill="#78a7c6"/><path d="M430.73353,194.7a1.5009,1.5009,0,0,0,0-3,1.5009,1.5009,0,0,0,0,3Z" fill="#78a7c6"/><path d="M423.32209,150.612a4.5,4.5,0,1,0-4.5-4.5,4.55065,4.55065,0,0,0,4.5,4.5Z" fill="#78a7c6"/><path d="M379.07353,525.18a1.5009,1.5009,0,0,0,0-3,1.5009,1.5009,0,0,0,0,3Z" fill="#78a7c6"/><path d="M390.59353,527.7a1.5009,1.5009,0,0,0,0-3,1.5009,1.5009,0,0,0,0,3Z" fill="#78a7c6"/><path d="M402.11353,529.14a1.5009,1.5009,0,0,0,0-3,1.5009,1.5009,0,0,0,0,3Z" fill="#78a7c6"/><path d="M414.35353,529.5a1.5009,1.5009,0,0,0,0-3,1.5009,1.5009,0,0,0,0,3Z" fill="#78a7c6"/><path d="M425.87353,527.7a1.5009,1.5009,0,0,0,0-3,1.5009,1.5009,0,0,0,0,3Z" fill="#78a7c6"/><path d="M437.03353,525.9a1.5009,1.5009,0,0,0,0-3,1.5009,1.5009,0,0,0,0,3Z" fill="#78a7c6"/><path d="M448.19353,524.1a1.5009,1.5009,0,0,0,0-3,1.5009,1.5009,0,0,0,0,3Z" fill="#78a7c6"/><path d="M461.15353,523.74a1.5009,1.5009,0,0,0,0-3,1.5009,1.5009,0,0,0,0,3Z" fill="#78a7c6"/><path d="M473.03353,523.74a1.5009,1.5009,0,0,0,0-3,1.5009,1.5009,0,0,0,0,3Z" fill="#78a7c6"/><path d="M482.75353,525.18a1.5009,1.5009,0,0,0,0-3,1.5009,1.5009,0,0,0,0,3Z" fill="#78a7c6"/></svg>