<svg id="Layer_1" data-name="Layer 1" xmlns="http://www.w3.org/2000/svg" xmlns:xlink="http://www.w3.org/1999/xlink" viewBox="0 0 900 600"><defs><clipPath id="clip-path"><rect x="216.50122" y="238.41902" width="268.05195" height="204.30243" fill="none"/></clipPath></defs><path d="M295.90959,500.65807c-40.10127-8.04639-78.24586-21.67523-108.49115-51.62332-24.47108-24.23063-40.341-56.70194-45.76607-90.70968-6.97147-43.702,4.03354-89.64843,28.66238-126.25567,21.52672-31.99632,37.56688-83.97834,71.85684-100.306,42.44662-20.21158,99.60593-12.934,143.91156-29.10544,80.74566-29.472,67.40257-37.26161,152.52849-26.8949,49.24669,5.99731,98.63051,20.71955,137.66082,52.45252a197.85558,197.85558,0,0,1,30.28882,30.71576c63.59666,80.34756,64.805,208.60131-3.33395,286.70166-18.80972,21.55957-42.80267,38.45331-68.84991,50.13474-57.94841,25.98822-123.91334,27.39072-186.292,24.69178-70.67451-3.05788-42.23876-3.77556-112.41333-13.32283C322.34724,505.32383,309.02378,503.28946,295.90959,500.65807Z" fill="#ffe3c2"/><path d="M695.4234,483.3522c.57348-.27255,1.14224-.55464,1.71463-.82937.54566-.26191,1.05194-.52867,1.58753-.8251-.14848.08218-.59239.32621.09971-.05416,1.43781-.79024,2.86917-1.59293,4.28143-2.4281q.83163-.49182,1.6556-.99647.32922-.20176.65725-.40548l.32755-.20419q.67576-.4266-.04377.03307c.05831-.19907,1.53489-.63931,1.71042-.71385a14.06476,14.06476,0,0,0,2.66176-1.56075c4.32341-3.06751,8.48051-6.41442,12.51676-9.84795,2.267-1.92852,4.37979-4.09748,6.49321-6.18749,1.92715-1.9058,3.85327-3.83411,5.63805-5.87409q5.1068-5.837,9.75-12.05936A230.18353,230.18353,0,0,0,772.3286,392.679a240.7315,240.7315,0,0,0,15.44926-53.93674,237.20226,237.20226,0,0,0,2.8993-27.33743,216.81984,216.81984,0,0,0-4.06487-56.17923c-1.06027-5.23653-2.30836-10.43893-3.683-15.60135-.58435-2.19463-1.432-4.26592-2.17753-6.40623q-1.14251-3.28012-2.39063-6.5222a17.71853,17.71853,0,0,0-2.31316-4.84772,16.5416,16.5416,0,0,0-5.04713-4.02509l3.01622,2.37958a22.31726,22.31726,0,0,0-1.88044-2.17033c-1.85786-2.06337-4.811-3.36211-7.55594-2.13653a7.685,7.685,0,0,0-2.7185,2.02129,6.91041,6.91041,0,0,0-1.35157,4.69377,28.172,28.172,0,0,0,.00846,2.90755l.58366-3.79728a17.18935,17.18935,0,0,0-.86844,3.2683,11.89111,11.89111,0,0,0,.3946,5.8416c.34317,1.22772.72008,2.44624,1.06815,3.67276.71153,2.50717,1.298,5.0496,2.01095,7.555l-.60959-2.47389c.41542,3.89487,1.82252,7.7286,2.7644,11.52936q-.31334-1.2717-.62671-2.5434a244.163,244.163,0,0,1,6.654,49.48117q.26124,7.11284.09078,14.23181.0294-1.21758.05884-2.43514a238.53414,238.53414,0,0,1-5.913,47.32729q-1.51405,6.61515-3.40733,13.1348.30279-1.04257.60559-2.08517a234.668,234.668,0,0,1-16.8526,42.43461q-2.96772,5.72289-6.26777,11.26413l.96939-1.62518A212.71237,212.71237,0,0,1,725.08163,443.659c-3.19969,4.02569-6.39925,8.04637-9.84678,11.86609-1.71418,1.89926-3.35444,3.84007-5.15939,5.65833-.40118.40414-.789.841-1.21966,1.214,1.24259-1.07637-.3355.31718-.62559.59322q-1.539,1.46443-3.1233,2.88043a26.76066,26.76066,0,0,0-3.71332,3.56871c-.14945.19709-.309.38848-.46394.58151s-.31059.38565-.46677.57776q.52393-.46171.15148-.144c-.55428.43535-1.08385.90513-1.63083,1.35016-2.28358,1.85789-4.64135,3.62816-7.01169,5.3719a3.57459,3.57459,0,0,0,3.45156,6.17513Z" fill="#ffe3c2"/><path d="M702.42437,127.66554q3.63717,2.92176,7.07274,6.08133c.27524.25368.55059.50743.82266.76448.06159.0582.94827.92307.32112.29261.69343.69708,1.34728,1.43447,2.05354,2.11871,1.16583,1.12946,2.36,2.22765,3.511,3.373.2658.2645.52921.53139.79419.79673.89506.89626-.67884-.71317.18834.19274.512.53481,1.02519,1.06824,1.53128,1.60867,1.01539,1.08424,2.0455,2.15471,3.054,3.24539q3.15923,3.41661,6.08434,7.04016a156.89577,156.89577,0,0,1,10.61849,14.87823q1.19562,1.89662,2.33006,3.83087c.37824.6449.74775,1.29464,1.119,1.94354.66884,1.16889-.67693-1.24212-.03434-.0625.23754.436.47693.871.71187,1.30849q2.11548,3.93879,3.97255,8.00932c1.29092,2.83052,2.64965,5.63158,3.8977,8.48169q.89805,2.05088,1.72769,4.13085a12.865,12.865,0,0,0,1.40409,3.03512,6.72567,6.72567,0,0,0,4.20789,2.59477c3.025.4448,5.1749-1.99194,5.64534-4.751.38159-2.23785-.67438-4.64868-1.37135-6.77663a90.19078,90.19078,0,0,0-3.21858-8.754,132.68143,132.68143,0,0,0-9.40593-17.05449,132.28814,132.28814,0,0,0-26.11307-29.76727,118.97,118.97,0,0,0-17.79678-11.79736,3.04917,3.04917,0,0,0-3.84452,1.25569,3.08678,3.08678,0,0,0,.71659,3.98077Z" fill="#ffe3c2"/><path d="M162.77016,203.376a11.75193,11.75193,0,0,1-1.56428.57194,9.42226,9.42226,0,0,0-2.75449,1.40577c-.932.69892-1.82925,1.45146-2.72682,2.19393-1.75544,1.45207-3.4988,2.89973-5.117,4.50276-3.633,3.599-7.12919,7.32931-10.38752,11.27207a132.89238,132.89238,0,0,0-15.84765,24.73535,144.45437,144.45437,0,0,0-15.0194,54.49251,111.73426,111.73426,0,0,0-.0529,17.26875,67.16427,67.16427,0,0,0,1.00365,7.58574c.26,1.31014.52959,2.621.84438,3.91919a11.49547,11.49547,0,0,0,2.18623,4.81578,9.596,9.596,0,0,0,2.35485,2.10912,6.30974,6.30974,0,0,0,8.61475-1.20164,9.95151,9.95151,0,0,0,1.77961-3.03329,14.94932,14.94932,0,0,0,.67833-2.47235,17.91846,17.91846,0,0,0-.01871-2.9989q-.07855-2.40985-.06853-4.82113-.00468,1.089-.00937,2.17816c.01681-3.18534-.1054-6.366-.09243-9.55114q-.00489,1.13475-.00976,2.26947c.01736-2.67707.06143-5.35312.072-8.03044q-.00494,1.152-.0099,2.30389a140.54054,140.54054,0,0,1,4.79511-35.347l-.58026,2.15709a150.48381,150.48381,0,0,1,14.34426-35.10631q-.52576.92261-1.05153,1.84521c2.76922-4.85052,5.764-9.61489,8.97416-14.186,3.20848-4.56879,6.77761-8.84071,10.342-13.12535,1.012-1.21645,2.06391-2.40229,3.12815-3.57311a11.82716,11.82716,0,0,0,2.10906-2.83182c.16809-.3437.30693-.707.46965-1.05447.20213-.43172.877-1.38409-.02028-.084a5.49862,5.49862,0,0,0-.0561-6.56026c-1.46166-1.70744-4.15875-2.74609-6.30929-1.64943Z" fill="#ffe3c2"/><rect x="177.10561" y="201.75191" width="547.60594" height="19.18713" fill="#ffca9f"/><rect x="177.10561" y="193.00777" width="547.60594" height="19.18713" fill="#ffb36e"/><rect x="189.59723" y="220.93904" width="522.62269" height="255.1289" fill="#ffb36e"/><polygon points="724.712 201.752 177.106 201.752 154.92 164.577 746.897 164.577 724.712 201.752" fill="#ffca9f"/><path d="M682.35339,476.06785V279.57678a44.0704,44.0704,0,0,0-44.0704-44.0704H575.32517a44.0704,44.0704,0,0,0-44.0704,44.0704V476.06785H177.10566v52.16533H724.71147V476.06785Z" fill="#ffca9f"/><path d="M595.08023,254.39388h23.4476a50.33458,50.33458,0,0,1,50.33458,50.33458V513.84261a0,0,0,0,1,0,0H544.74565a0,0,0,0,1,0,0V304.72846A50.33458,50.33458,0,0,1,595.08023,254.39388Z" fill="#376f92"/><path d="M606.35429,274.18061h.00009a44.0704,44.0704,0,0,1,44.0704,44.0704V418.95625a0,0,0,0,1,0,0H562.28389a0,0,0,0,1,0,0V318.251A44.0704,44.0704,0,0,1,606.35429,274.18061Z" fill="#78c1d0"/><rect x="550.15262" y="379.60763" width="6.73489" height="39.34861" fill="#ffb957"/><path d="M380.10714,95.13h120.8597a16.246,16.246,0,0,1,16.246,16.246v27.65239a0,0,0,0,1,0,0H363.86114a0,0,0,0,1,0,0V111.376A16.246,16.246,0,0,1,380.10714,95.13Z" fill="#52aacc"/><path d="M398.50934,105.66557h84.05529a16.246,16.246,0,0,1,16.246,16.246v17.11678a0,0,0,0,1,0,0H382.26335a0,0,0,0,1,0,0V121.91157A16.246,16.246,0,0,1,398.50934,105.66557Z" fill="#d3e4ea"/><polygon points="644.713 180.585 236.361 180.585 285.137 139.028 595.937 139.028 644.713 180.585" fill="#52aacc"/><path d="M236.36073,180.58548H287.478a0,0,0,0,1,0,0v11.90136a25.55859,25.55859,0,0,1-25.55859,25.55859h-.00005a25.55859,25.55859,0,0,1-25.55859-25.55859V180.58548A0,0,0,0,1,236.36073,180.58548Z" fill="#376f92"/><path d="M287.478,180.58548h51.11723a0,0,0,0,1,0,0v11.90136a25.55859,25.55859,0,0,1-25.55859,25.55859h-.00005A25.55859,25.55859,0,0,1,287.478,192.48685V180.58548A0,0,0,0,1,287.478,180.58548Z" fill="#4994ba"/><path d="M338.59518,180.58548h51.11723a0,0,0,0,1,0,0v11.90136a25.55859,25.55859,0,0,1-25.55859,25.55859h-.00005a25.55859,25.55859,0,0,1-25.55859-25.55859V180.58548A0,0,0,0,1,338.59518,180.58548Z" fill="#376f92"/><path d="M389.71241,180.58548h51.11723a0,0,0,0,1,0,0v11.90136a25.55859,25.55859,0,0,1-25.55859,25.55859H415.271a25.55859,25.55859,0,0,1-25.55859-25.55859V180.58548A0,0,0,0,1,389.71241,180.58548Z" fill="#4994ba"/><path d="M440.82964,180.58548h51.11723a0,0,0,0,1,0,0v11.90136a25.55859,25.55859,0,0,1-25.55859,25.55859h-.00005a25.55859,25.55859,0,0,1-25.55859-25.55859V180.58548a0,0,0,0,1,0,0Z" fill="#376f92"/><path d="M491.94687,180.58548H543.0641a0,0,0,0,1,0,0v11.90137a25.55859,25.55859,0,0,1-25.55859,25.55859h-.00005a25.55859,25.55859,0,0,1-25.55859-25.55859V180.58548a0,0,0,0,1,0,0Z" fill="#4994ba"/><path d="M543.0641,180.58548h51.11723a0,0,0,0,1,0,0v11.90136a25.55859,25.55859,0,0,1-25.55859,25.55859h-.00005a25.55859,25.55859,0,0,1-25.55859-25.55859V180.58548A0,0,0,0,1,543.0641,180.58548Z" fill="#376f92"/><path d="M594.18133,180.58548h51.11723a0,0,0,0,1,0,0v11.90136A25.55859,25.55859,0,0,1,619.74,218.04544h-.00005a25.55859,25.55859,0,0,1-25.55859-25.55859V180.58548A0,0,0,0,1,594.18133,180.58548Z" fill="#4994ba"/><polygon points="338.595 180.585 360.057 139.028 319.67 139.028 287.478 180.585 338.595 180.585" fill="#63bfdb"/><polygon points="440.83 180.585 440.83 139.028 406.296 139.028 389.712 180.585 440.83 180.585" fill="#63bfdb"/><polygon points="543.064 180.585 521.603 139.028 481.216 139.028 491.947 180.585 543.064 180.585" fill="#63bfdb"/><polygon points="594.181 180.585 563.16 139.028 595.937 139.028 645.299 180.585 594.181 180.585" fill="#63bfdb"/><rect x="214.92618" y="238.41902" width="268.05195" height="204.30243" fill="#d3e4ea"/><g clip-path="url(#clip-path)"><path d="M295.477,345.08482c16.20938,26.73018,4.83248,42.93957,4.26637,43.50559-.29.29008-.8561.8561-1.1461.8561a70.62877,70.62877,0,0,1-24.74213,5.41265v24.1761c1.422,3.1201,9.95478,19.05364,21.05593,23.886a2.82691,2.82691,0,0,1,1.42212,3.70035,2.99677,2.99677,0,0,1-3.70035,1.42212c-7.96672-3.41026-14.51132-11.37708-18.7777-17.6315V448.6097a2.84429,2.84429,0,1,1-5.68858,0V430.12217c-4.26637,6.54451-10.811,14.51133-19.05354,18.19744a2.95506,2.95506,0,0,1-3.70044-1.42212,2.81077,2.81077,0,0,1,1.42212-3.68612c12.23318-5.41256,21.33186-24.17611,21.33186-24.46628v-23.61a79.20055,79.20055,0,0,1-25.03212-5.39841,5.135,5.135,0,0,1-1.42222-1.14627c-.566-.566-10.5208-15.91922,4.26638-43.22974,4.26637-8.24258,2.56831-17.63142-5.10824-28.44248-.58026-.566-7.11062-15.64328-4.55646-21.33186a4.5165,4.5165,0,0,1,3.70027-2.55417c5.39841-.56593,13.93115-2.84416,15.35327-6.25443a25.71294,25.71294,0,0,0,.56611-5.97858A2.87665,2.87665,0,0,1,259.924,278.245a20.49269,20.49269,0,0,0,7.67664,2.55416v-8.53274a3.05854,3.05854,0,0,1,2.84425-2.84425,2.84631,2.84631,0,0,1,2.84416,2.84425v8.53274a23.14093,23.14093,0,0,0,8.24274-2.55416,2.73622,2.73622,0,0,1,3.99044,2.264c.27593,3.13434.8561,6.83477,1.422,7.69088,1.69806,2.264,9.955,4.26637,14.78734,4.8323a3.971,3.971,0,0,1,3.41018,2.55417c2.27823,5.41264-7.11062,21.33186-7.38646,21.33186-7.4008,8.82291-8.2569,18.77778-2.27832,28.16663Zm0,0" fill="#376f92"/><path d="M358.00379,314.31894v-1.98779c-3.96731,0-7.9263.16838-12.05378.16838-3.959,0-7.9263-.16838-11.88534-.3285a3.1665,3.1665,0,0,1-.16833,1.154c0,.3285-.16017.65705-.16017.99387q12.1297.49283,24.26762,0Zm-27.241-19.1546c.49693,4.29586,2.63662,8.08647,3.13356,12.2139a10.74037,10.74037,0,0,1,.16833,2.31634q12.12971.49275,24.26762,0c.32861-1.49086.99392-2.97344,1.48259-4.456.99387-2.64489,2.47646-5.7784,2.31634-8.75179,0-3.302-1.154-6.44376-.99387-9.7457.16833-2.63658,0-5.28147.16833-7.918,0-1.49085.98566-5.7784.3286-6.9407a31.97363,31.97363,0,0,0-2.47645-3.959c-2.30807,1.8194-1.32247,7.261-1.32247,9.90582,0,1.8194-.16012,3.79893-.3285,5.61-.16843,2.64488.16838,5.12134-2.47646,5.77839-2.805.66537-4.78453,1.1623-6.93243,3.14182-1.154.98561-1.81935,1.48254-2.47646,1.48254-1.154.16843-1.81935-1.154-3.9673-2.63657-3.13356-1.98779-4.12743-3.47038-4.95292-6.9407-.9856-3.46211-.6571-7.09255-.6571-10.73131,0-.82548.6571-5.28146-.65705-5.44158-1.1623-.16843-2.14791,2.96513-2.64484,3.79061-.6571.99387-.16843,4.12743-.16843,5.44985V283.279c0,4.12747-2.308,7.58953-1.81109,11.88534Zm46.55573,49.03218c-2.47646-3.959-4.12746-8.415-6.93244-12.38227-3.47037-4.95292-9.74565-9.40889-11.72517-15.18729-4.12748.16843-8.25491.32855-12.54245.32855-4.29581,0-8.75179-.16012-13.04765-.32855-1.48259,2.97344-3.959,5.44989-6.1069,7.92635-7.10086,8.415-11.88534,18.48923-16.01277,28.72355-2.805,6.77232-5.12134,8.58341,7.75787,15.02717a53.59564,53.59564,0,0,0,22.6167,5.28141c12.38228,0,24.436-3.79882,35.66423-8.75173,2.14795-.98566,4.28757-1.97953,5.44987-3.79893,2.96515-4.78453-2.64484-12.71083-5.12129-16.83826Zm0,0" fill="#ffb957"/><path d="M365.83074,272.01591H327.30917a5.43961,5.43961,0,0,1-4.53747-8.43815l.13843-.20919,23.66021-9.15646,23.65944,9.15646.13843.20919a5.43962,5.43962,0,0,1-4.53747,8.43815Zm-41.87238-7.36454a3.8648,3.8648,0,0,0,3.35081,5.7895h38.52157a3.8648,3.8648,0,0,0,3.35081-5.7895L346.57034,255.901Z" fill="#133852"/><path d="M346.4496,255.84407a.78707.78707,0,0,1-.78752-.78752v-3.32774a4.88526,4.88526,0,0,1,.91979-9.68326,4.87873,4.87873,0,0,1,4.8574,4.35673.78755.78755,0,1,1-1.56581.17074,3.311,3.311,0,1,0-3.39849,3.66842l.76215.02461v4.7905A.78707.78707,0,0,1,346.4496,255.84407Z" fill="#133852"/><path d="M254.43207,291.44648c3.04039,0,3.04543-4.72513,0-4.72513-3.04039,0-3.04542,4.72513,0,4.72513Z" fill="#f89017"/><path d="M260.90549,297.44738c3.04039,0,3.04542-4.72512,0-4.72512-3.04039,0-3.04543,4.72512,0,4.72512Z" fill="#f89017"/><path d="M257.55065,293.431a1.182,1.182,0,0,0,0-2.36256,1.182,1.182,0,0,0,0,2.36256Z" fill="#ce185e"/><path d="M265.67786,298.15615a1.182,1.182,0,0,0,0-2.36256,1.182,1.182,0,0,0,0,2.36256Z" fill="#ce185e"/><path d="M274.93909,297.49463a1.182,1.182,0,0,0,0-2.36256,1.182,1.182,0,0,0,0,2.36256Z" fill="#ce185e"/><path d="M283.0663,292.95851a1.182,1.182,0,0,0,0-2.36256,1.182,1.182,0,0,0,0,2.36256Z" fill="#ce185e"/><path d="M270.68649,300.188c3.04039,0,3.04542-4.72512,0-4.72512-3.04039,0-3.04543,4.72512,0,4.72512Z" fill="#f89017"/><path d="M279.0972,296.54961c3.04039,0,3.04543-4.72513,0-4.72513-3.04039,0-3.04543,4.72513,0,4.72513Z" fill="#f89017"/><path d="M286.89365,291.73c3.04039,0,3.04542-4.72512,0-4.72512-3.04039,0-3.04543,4.72512,0,4.72512Z" fill="#f89017"/></g><rect x="205.135" y="442.72145" width="287.6343" height="15.86653" rx="2" fill="#4994ba"/><path d="M236.9964,320.15594a1.575,1.575,0,0,1-1.1138-2.68864l72.46262-72.46261a1.575,1.575,0,1,1,2.22759,2.2272L238.11019,319.6945A1.57,1.57,0,0,1,236.9964,320.15594Z" fill="#fff"/><path d="M269.08669,323.16067a1.575,1.575,0,0,1-1.089-2.71325L312.65,277.72676a1.57513,1.57513,0,0,1,2.17761,2.27643L270.1753,322.72384A1.57162,1.57162,0,0,1,269.08669,323.16067Z" fill="#fff"/><path d="M343.61943,429.67891a1.575,1.575,0,0,1-1.1138-2.68864l72.46261-72.46262a1.575,1.575,0,1,1,2.22759,2.22721l-72.46261,72.46261A1.57,1.57,0,0,1,343.61943,429.67891Z" fill="#fff"/><path d="M375.70971,432.68364a1.57505,1.57505,0,0,1-1.089-2.71326l44.65235-42.72065a1.57512,1.57512,0,0,1,2.1776,2.27642l-44.65235,42.72066A1.57163,1.57163,0,0,1,375.70971,432.68364Z" fill="#fff"/><path d="M373.95255,500.1249l-3.85835,12.45675s-21.35442,2.22442-26.693,16.01582h43.922a2.57793,2.57793,0,0,0,2.54286-2.15413l4.38641-26.31844Z" fill="#fd8b66"/><path d="M482.24935,491.24215l.739,15.78s-19.23,6.7878-19.41134,21.57532l42.82876-8.82868c1.18071-.44048.19277-5.43308-.04761-6.67014l-5.08938-28.95194Z" fill="#fd8b66"/><path d="M403.88568,313.49682,368.8268,502.51126s21.85876-3.29976,35.05888,6.187,34.23611-8.11878,42.40378-7.18132c6.17537.70879,23.01661,3.14457,32.50342-.45463s15.67387-8.54884,30.11032-1.12438c0,0,8.2494,2.47482,14.84892-3.71223,0,0-29.94687-60.53465-43.14591-101.78167s-19.283-67.43886-39.958-80.94726Z" fill="#e6560f"/><polygon points="595.273 394.857 591.352 388.899 594.631 383.044 533.953 357.409 497.416 424.553 595.273 394.857" fill="#e8a452"/><path d="M407.599,211.51358s1.03117-12.06475,7.11511-14.33334,6.70264.20624,10.518,0a14.87339,14.87339,0,0,0,6.90887-2.3717s2.68106,5.46523,1.85612,9.07434,1.23741,12.88969,3.29976,12.16787,0-7.11511,3.91846-5.05276,2.78418,8.86811-1.95923,9.48682c0,0-2.16547,11.65228-.10312,16.80815,0,0,9.89929,6.59953,10.518,13.40528s1.03118,14.64269,3.29976,16.08634,17.11751-.20624,16.49881-10.72423-7.83694-15.8801-6.59953-26.19185-13.199-23.717-14.64268-29.28538-11.54917-18.35492-18.14869-17.73621-17.53-3.506-22.47962,3.91846S401.41194,202.85171,407.599,211.51358Z" fill="#5e1212"/><path d="M439.2562,220.48487c4.74342-.61878,5.87756-7.42458,1.95905-9.48684-3.91852-2.06238-1.856,4.331-3.91852,5.05265-2.06227.7219-4.12453-8.55872-3.29963-12.16779s-1.85625-9.07439-1.85625-9.07439a14.87245,14.87245,0,0,1-6.9087,2.37171c-3.8155.20623-4.434-2.26849-10.518,0-6.084,2.2686-7.11513,14.33338-7.11513,14.33338s-2.47493,19.7985,9.69307,22.0672c0,0,1.23736,10.72421-1.85625,14.84885,0,0-9.41006,12.8149,23.66509-11.28079C437.13183,231.9251,439.2562,220.48487,439.2562,220.48487Z" fill="#fd8b66"/><path d="M420.69492,203.83132a1.28974,1.28974,0,0,0,0-2.57793,1.28974,1.28974,0,0,0,0,2.57793Z" fill="#d04719"/><path d="M440.49349,223.06606c3.31756,0,3.32306-5.15588,0-5.15588-3.31756,0-3.32306,5.15588,0,5.15588Z" fill="#d04719"/><path d="M426.57262,212.60111a1.5009,1.5009,0,0,0,0-3,1.5009,1.5009,0,0,0,0,3Z" fill="#5e1212"/><path d="M413.27046,211.46682a1.5009,1.5009,0,0,0,0-3,1.5009,1.5009,0,0,0,0,3Z" fill="#5e1212"/><path d="M416.4668,203.542a.9956.9956,0,0,1-.624-.21875c-2.0791-1.66406-5.36279-.38281-5.396-.36914a.99993.99993,0,0,1-.74854-1.85449c.17822-.07129,4.39307-1.73633,7.39356.66113a.99986.99986,0,0,1-.625,1.78125Z" fill="#5e1212"/><path d="M431.3208,205.42578a.99458.99458,0,0,1-.624-.21875c-2.09619-1.67773-5.35987-.38379-5.39356-.37012a.99993.99993,0,1,1-.751-1.85351c.17822-.07129,4.39306-1.73926,7.39355.66113a1.00007,1.00007,0,0,1-.625,1.78125Z" fill="#5e1212"/><path d="M418.83881,206.667a21.6007,21.6007,0,0,1-.72864,3.67774c-.32987,1.18115-.71683,2.33374-1.12485,3.46289l-.60913,1.66919-.2652.78979-.08456.31861c-.01087.02148-.01218.07055-.03195.01318-.04563-.0979-.05365-.09033-.06021-.08765-.04868.02246.11285.17993.32913.28345a3.748,3.748,0,0,0,.77032.27588c.56494.16992,1.17389.2749,1.80509.42431a6.21959,6.21959,0,0,1-1.8646.55591,4.59041,4.59041,0,0,1-1.04559.01123,1.91067,1.91067,0,0,1-1.24362-.59546,1.166,1.166,0,0,1-.27143-.489,1.98739,1.98739,0,0,1-.065-.44311,4.491,4.491,0,0,1,.02924-.59253,8.93465,8.93465,0,0,1,.17682-.99414,17.18681,17.18681,0,0,1,.55035-1.81934,23.00371,23.00371,0,0,1,1.5574-3.3833A16.63353,16.63353,0,0,1,418.83881,206.667Z" fill="#d04719"/><path d="M420.69494,222.13489c.48924-.33231.85134-.59287,1.18576-.85553.33189-.25427.62056-.49344.91763-.73512l.92309-.79134a10.93,10.93,0,0,1,1.20631-.91805,2.72671,2.72671,0,0,1-.07217,1.65359,3.27182,3.27182,0,0,1-.9554,1.37414,3.08962,3.08962,0,0,1-1.56757.68519A2.16213,2.16213,0,0,1,420.69494,222.13489Z" fill="#d04719"/><path d="M417.29211,233.58079s7.21816,1.13424,12.374-2.68111c0,0-4.26466,6.701-12.13473,8.04232A20.91069,20.91069,0,0,0,417.29211,233.58079Z" fill="#d04719"/><path d="M452.9708,266.78454c-2.26871-1.44358-2.68116-9.28062-3.29984-16.08631S439.153,237.293,439.153,237.293c-.01846-.04626-.0342-.09682-.052-.14413-23.21424,16.91195-25.49952,15.641-24.79881,13.38008,0,0-9.69349,14.09013-13.5604,20.12252s-6.72828,14.07565,2.66815,25.21231V306.0723h38.63026v-3.86691l18.87069-6.03239-7.03122-29.07733A2.71636,2.71636,0,0,1,452.9708,266.78454Z" fill="#e6560f"/><path d="M403.6499,287.74023c-2.05029-13.72168,8.58985-17.22265,8.69776-17.25683l.2998.9541c-.40625.12891-9.9292,3.2998-8.0083,16.1543Z"/><polygon points="404.712 306.072 403.886 313.497 440.648 313.497 440.648 306.072 404.712 306.072" fill="#fd8b66"/><path d="M457.73364,297.18865s9.46729,12.69906,11.52964,21.56717S483.906,357.94048,483.906,357.94048s11.807,6.29017,11.807,9.38369v1.85612s1.0054,9.35792,0,9.51259c0,0-3.47842,1.7028-13.76619-5.41367a27.58688,27.58688,0,0,1-5.33633-8.58453c-1.54677-4.563-24.36152-44.54678-24.36152-44.54678l-10.20874-17.94251Z" fill="#fd8b66"/><path d="M460.91083,309.78467a3.95443,3.95443,0,0,1,1.74319.59717,5.02856,5.02856,0,0,1,1.29627,1.15283,4.42188,4.42188,0,0,1,.82547,1.593,2.44351,2.44351,0,0,1-.15277,1.916c-.46515-.49438-.85407-.79565-1.22351-1.15527a11.64321,11.64321,0,0,1-1.01615-1.11182,8.91012,8.91012,0,0,1-.8616-1.31128A6.09118,6.09118,0,0,1,460.91083,309.78467Z" fill="#d04719"/><path d="M491.45932,374.12988a5.69145,5.69145,0,0,1,2.48843.21533,5.6251,5.6251,0,0,1,2.20478,1.17383,5.6247,5.6247,0,0,1-2.48841-.21533A5.6914,5.6914,0,0,1,491.45932,374.12988Z" fill="#d04719"/><path d="M492.31006,370.26294a3.58353,3.58353,0,0,1,1.95953.10864,3.54365,3.54365,0,0,1,1.652,1.05957,3.53955,3.53955,0,0,1-1.95956-.10864A3.57914,3.57914,0,0,1,492.31006,370.26294Z" fill="#d04719"/><path d="M492.31006,366.78271a3.25458,3.25458,0,0,1,1.86267.10718,3.21668,3.21668,0,0,1,1.54019,1.053,3.2165,3.2165,0,0,1-1.86267-.10718A3.25241,3.25241,0,0,1,492.31006,366.78271Z" fill="#d04719"/><polygon points="595.273 394.857 549.901 468.689 497.416 424.553 535.684 366.783 595.273 394.857" fill="#ffb957"/><polygon points="551.19 409.194 544.449 420.163 536.651 413.606 542.337 405.023 551.19 409.194" fill="#376f92"/><path d="M508.14627,408.35449c-1.93915-2.35962-3.7103-4.823-5.42233-7.32251-1.72266-2.49316-3.34571-5.0476-4.94946-7.614-1.57193-2.58594-3.12247-5.18506-4.57389-7.84522-1.46206-2.65356-2.86365-5.34448-4.09595-8.1394,1.94129,2.3584,3.71332,4.821,5.42487,7.321,1.7222,2.49341,3.34525,5.04786,4.94693,7.61548,1.56982,2.58716,3.12039,5.18628,4.57135,7.84668C505.50937,402.87061,506.91183,405.56079,508.14627,408.35449Z" fill="#376f92"/><path d="M495.71292,367.32422a67.37486,67.37486,0,0,1,7.1351,1.62329c2.3461.6355,4.65427,1.38135,6.95508,2.14893,2.2887.80273,4.56928,1.62939,6.81207,2.56591a66.56086,66.56086,0,0,1,6.63013,3.09717,66.61533,66.61533,0,0,1-7.13605-1.6206c-2.34594-.636-4.65411-1.38184-6.95413-2.15162-2.2879-.80517-4.56845-1.63183-6.8111-2.56884A67.37634,67.37634,0,0,1,495.71292,367.32422Z" fill="#376f92"/><path d="M509.01511,403.05444a73.02216,73.02216,0,0,1-5.0228-5.73144c-1.59308-1.96826-3.09076-4.00415-4.57-6.053-1.44876-2.0708-2.877-4.156-4.21032-6.30859a72.14854,72.14854,0,0,1-3.75269-6.63331,72.18267,72.18267,0,0,1,5.02524,5.73c1.59262,1.96826,3.09033,4.00415,4.56753,6.05468,1.44675,2.072,2.875,4.15723,4.20792,6.31006A72.99825,72.99825,0,0,1,509.01511,403.05444Z" fill="#376f92"/><path d="M493.10928,363.89062c3.30872.3396,6.573.87134,9.82169,1.47071,3.25146.58716,6.47662,1.28857,9.69672,2.01172,3.2116.75976,6.4176,1.54394,9.59741,2.44165,3.18261.88525,6.34924,1.84009,9.47113,2.98828-3.30927-.33692-6.57379-.86768-9.82233-1.46777-3.2514-.58765-6.47656-1.28882-9.696-2.01465-3.21112-.762-6.41712-1.54615-9.59677-2.44434C499.39859,365.99023,496.23172,365.03662,493.10928,363.89062Z" fill="#376f92"/><path d="M395.336,359.59179h0a407.7606,407.7606,0,0,0,23.02878-46.09491H403.8857Z" fill="#376f92"/><path d="M404.71166,306.0723l-.826,7.42458h14.47908c1.01624-2.46392,1.99682-4.94566,2.92515-7.42458Z" fill="#376f92"/><path d="M400.74174,270.65146c-3.86691,6.03239-6.72828,14.07565,2.66815,25.21229v10.20853h17.88a59.3469,59.3469,0,0,0,5.39577-16.96413c1.5348-9.831-.29135-15.00155.3641-26.95806a104.00042,104.00042,0,0,1,2.682-18.37271l-.00063.00021c-14.481,9.86321-16.02085,8.6611-15.429,6.75135C414.30214,250.52894,404.60864,264.61907,400.74174,270.65146Z" fill="#376f92"/><path d="M429.66614,252.86377a9.652,9.652,0,0,0-2.049,6.00952,32.121,32.121,0,0,0,.46124,6.4541,98.39873,98.39873,0,0,0,3.0968,12.69629c1.27084,4.186,2.68655,8.33911,4.17361,12.47217,1.46647,4.14111,3.00281,8.26733,4.55561,12.396l-.2486-.10645,2.3844-.58008-2.25549.9668-.15338.06567-.09552-.17212a128.66919,128.66919,0,0,1-10.25925-24.47216,68.19572,68.19572,0,0,1-2.70059-13.08228,27.51954,27.51954,0,0,1,.10614-6.73828A9.20115,9.20115,0,0,1,429.66614,252.86377Z" fill="#af2500"/><path d="M426.57262,256.27922s12.74217-14.20326,22.5821-7.79768c0,0-3.44533-10.22156-10.00174-11.18856l-9.42181,6.4846Z" fill="#376f92"/><path d="M469.48823,257.81338C456.41119,231.20909,439.153,237.293,439.153,237.293c4.65468,5.65848,10.29675,10.62935,12.57189,17.59414,1.72224,5.27222,1.21928,13.21624,4.02159,22.58274,2.97618,9.94776,5.50975,9.59429,12.87233,24.46487,9.55834,19.30548,15.3073,31.571,16.11217,40.02245.61868,6.49646,2.47472,8.04326,6.72848,6.18712,4.25356-1.85615,10.28574,4.33086,14.92616-1.85615,4.24831-5.66431,9.01229-2.51479,9.78727-1.94184C498.54878,331.25355,482.53778,284.36144,469.48823,257.81338Z" fill="#376f92"/><path d="M516.17287,344.34633c.03735.0278.07469.05833.112.08581C516.2849,344.43214,516.24441,344.3992,516.17287,344.34633Z" fill="#376f92"/></svg>