<svg xmlns="http://www.w3.org/2000/svg" data-name="Layer 1" viewBox="0 0 512 512"><ellipse cx="467.297" cy="118.749" fill="#fe93d3" rx="31.592" ry="13.698" transform="rotate(-71.867 467.297 118.749)"/><path fill="#fe93d3" d="M447.64,148.52c-.04.08-.08.17-.13.25a43.26886,43.26886,0,0,1-19.66-60.04,43.446,43.446,0,0,1,11.78,8.09Z"/><ellipse cx="463.786" cy="150.835" fill="#22b37f" rx="9.214" ry="21.252" transform="rotate(-47.955 463.786 150.835)"/><ellipse cx="440.094" cy="150.835" fill="#22b37f" rx="21.252" ry="9.214" transform="rotate(-42.045 440.094 150.835)"/><ellipse cx="451.94" cy="150.835" fill="#09a76d" rx="9.214" ry="21.252"/><ellipse cx="473.22" cy="129.583" fill="#fe73c5" rx="31.592" ry="13.698" transform="rotate(-48.042 473.22 129.583)"/><ellipse cx="430.66" cy="129.583" fill="#fe73c5" rx="13.698" ry="31.592" transform="rotate(-41.958 430.66 129.583)"/><ellipse cx="451.94" cy="116.025" fill="#fe4fb7" rx="16.065" ry="37.051"/><path fill="#fed2a4" d="M410.67207,443.6389l72.294-70.68734a30,30,0,0,0,8.6073-26.44784L473.99987,242.48635H445.05576l.1261,87.27616A10,10,0,0,1,442.173,336.927l-49.77541,48.66917Z"/><path fill="#ffbd86" d="M491.57349,346.50372,473.99988,242.48633h-14l17.57361,104.01739a30.00016,30.00016,0,0,1-8.60743,26.44782l-61.58935,60.22064,3.29541,10.46674,72.29394-70.68738A30.00016,30.00016,0,0,0,491.57349,346.50372Z"/><polygon fill="#fee903" points="414.507 363.978 441.043 413.943 455.154 400.145 428.616 350.183 414.507 363.978"/><polygon fill="#22b37f" points="455.15 400.15 441.04 413.94 410.67 443.64 392.4 385.6 414.51 363.98 428.62 350.18 455.15 400.15"/><polygon fill="#fd4755" points="455.15 400.15 441.04 413.94 414.51 363.98 428.62 350.18 455.15 400.15"/><polygon fill="#fb2b3a" points="450.366 391.139 436.257 404.933 441.04 413.94 453.849 401.421 455.15 400.15 450.366 391.139"/><polygon fill="#fee903" points="479.4 276.041 445.02 276.041 445.093 301.235 483.735 301.235 479.4 276.041"/><polygon fill="#fac600" points="479.4 276.041 465.669 276.041 469.926 301.235 483.735 301.235 479.4 276.041"/><path fill="#fed2a4" d="M452.32891,249.30252l-8.28339-2.577a15,15,0,0,1-10.544-14.32286V218.48723a10,10,0,0,1,10-10h1.84058a7.8937,7.8937,0,0,1,7.8937-7.89371H470.3a10,10,0,0,1,10,10V232.9858a15,15,0,0,1-9.81442,14.07515l-1.49319.55012Z"/><path fill="#ffbd86" d="M472.937,200.95654a9.98628,9.98628,0,0,1,.363,2.637v22.39227a15.00005,15.00005,0,0,1-9.81448,14.0752l-1.49314.5501-8.033.81541a42.491,42.491,0,0,1-16.91392-1.701h0a15.007,15.007,0,0,1-2.04638-.81292,14.98515,14.98515,0,0,0,9.04638,7.81292h0a42.491,42.491,0,0,0,16.91392,1.701l8.033-.81541,1.49317-.55011a15,15,0,0,0,9.81445-14.07516v-22.3923A9.9957,9.9957,0,0,0,472.937,200.95654Z"/><path fill="#fed2a4" d="M447.66327,208.48723h-4.16176a10,10,0,0,0-10,10v13.11731"/><path fill="#ffbd86" d="M480.3,223.89089H456.80418a6,6,0,0,1-5.74618-4.27334l-3.39473-11.29738a6,6,0,0,1,5.74618-7.72666H470.3a10,10,0,0,1,10,10Z"/><ellipse cx="44.703" cy="118.749" fill="#fe93d3" rx="13.698" ry="31.592" transform="rotate(-18.133 44.703 118.749)"/><ellipse cx="74.319" cy="118.749" fill="#fe93d3" rx="31.592" ry="13.698" transform="rotate(-71.867 74.319 118.749)"/><ellipse cx="48.214" cy="150.835" fill="#22b37f" rx="21.252" ry="9.214" transform="rotate(-42.045 48.214 150.835)"/><ellipse cx="71.906" cy="150.835" fill="#22b37f" rx="9.214" ry="21.252" transform="rotate(-47.955 71.906 150.835)"/><ellipse cx="60.06" cy="150.835" fill="#09a76d" rx="9.214" ry="21.252"/><ellipse cx="38.78" cy="129.583" fill="#fe73c5" rx="13.698" ry="31.592" transform="rotate(-41.958 38.78 129.583)"/><ellipse cx="81.34" cy="129.583" fill="#fe73c5" rx="31.592" ry="13.698" transform="rotate(-48.042 81.34 129.583)"/><ellipse cx="60.06" cy="116.025" fill="#fe4fb7" rx="16.065" ry="37.051"/><path fill="#fed2a4" d="M101.32793,443.6389l-72.294-70.68734a30,30,0,0,1-8.6073-26.44784L38.00013,242.48635H66.94424l-.1261,87.27616A10,10,0,0,0,69.827,336.927l49.77541,48.66917Z"/><path fill="#ffbd86" d="M69.8269,336.92706a10.00018,10.00018,0,0,1-3.00878-7.16455l.12609-87.27618h-14l-.12609,87.27618a10.00018,10.00018,0,0,0,3.00878,7.16455l49.77539,48.66913-14.979,47.576,10.70459,10.46674,18.27441-58.04273Z"/><polygon fill="#fee903" points="70.957 413.943 97.493 363.978 84.215 350.996 83.343 350.26 56.846 400.145 70.957 413.943"/><polygon fill="#22b37f" points="119.6 385.6 101.33 443.64 70.96 413.94 56.85 400.15 83.34 350.26 84.21 350.99 84.22 351 97.49 363.98 119.6 385.6"/><path fill="#02905d" d="M119.6,385.6,97.49,363.98l-12.6123-12.33667-.67115-.65613-.86645-.72717-4.74243,8.93164,18.56526,18.15272a6.01243,6.01243,0,0,1,.413,8.12363A65.15235,65.15235,0,0,0,82.7915,425.51056L99.95264,442.293l1.37548,1.34515h0l.002.00189,12.5708-39.935.08581-.27265Z"/><polygon fill="#fd4755" points="97.49 363.98 70.96 413.94 56.85 400.15 83.34 350.26 84.21 350.99 84.22 351 97.49 363.98"/><polygon fill="#fb2b3a" points="92.707 372.987 97.49 363.98 84.878 351.643 84.207 350.987 83.34 350.26 78.598 359.192 92.707 372.987"/><polygon fill="#fee903" points="28.075 301.235 66.859 301.235 66.896 276.041 32.331 276.041 28.075 301.235"/><polygon fill="#fac600" points="52.859 301.235 66.859 301.235 66.896 276.041 52.896 276.041 52.859 301.235"/><path fill="#fed2a4" d="M59.67109,249.30252l8.28339-2.577a15,15,0,0,0,10.544-14.32286V218.48723a10,10,0,0,0-10-10H66.65791a7.8937,7.8937,0,0,0-7.8937-7.89371H41.7a10,10,0,0,0-10,10V232.9858A15,15,0,0,0,41.51445,247.061l1.49319.55012Z"/><path fill="#ffbd86" d="M68.49854,208.48724H66.658a7.89375,7.89375,0,0,0-7.8938-7.89373h-14a7.89375,7.89375,0,0,1,7.8938,7.89373h1.84058a10,10,0,0,1,10,10v13.91535a15,15,0,0,1-10.54407,14.32287L49.11523,248.231l10.55591,1.07153,8.28333-2.57709a15,15,0,0,0,10.54407-14.32287V218.48724A10,10,0,0,0,68.49854,208.48724Z"/><path fill="#ffbd86" d="M31.7,223.89089H55.19582a6,6,0,0,0,5.74618-4.27334l3.39473-11.29738a6,6,0,0,0-5.74618-7.72666H41.7a10,10,0,0,0-10,10Z"/><polygon fill="#3c3b42" points="381.211 380.5 130.211 380.5 193.211 207.5 318.211 207.5 381.211 380.5"/><path fill="#2c2c2e" d="M371.08325,352.68982l-53.74463-16.03143a23.79333,23.79333,0,0,1-9.04008-5.04116,5.98571,5.98571,0,0,1,.26235-9.07982,83.18318,83.18318,0,0,0,30.23074-58.52124L318.21057,207.5h-125l-20.71545,56.88544a80.45288,80.45288,0,0,0,29.57953,58.74887,6.015,6.015,0,0,1-.03562,9.38818,23.75527,23.75527,0,0,1-7.95651,4.1359l-53.74463,16.03143L130.21057,380.5h251Z"/><polygon fill="#2c2c2e" points="318.211 207.5 304.211 207.5 367.211 380.5 381.211 380.5 318.211 207.5"/><circle cx="325.711" cy="268.981" r="18.255" fill="#fee903"/><path fill="#fac600" d="M334.62964,253.06183a18.24274,18.24274,0,0,1-24.838,24.838,18.24926,18.24926,0,1,0,24.838-24.838Z"/><circle cx="185.711" cy="268.981" r="18.255" fill="#fee903"/><path fill="#ffbd86" d="M342.34687 244.34186v-.00012s.18015-6.27571.48-14.18463a13.38662 13.38662 0 0 0-13.37237-13.8954H309.82826l7 40.23822h12.19379a13.3808 13.3808 0 0 0 13.32482-12.15807zM194.593 216.26172H181.78031A13.13251 13.13251 0 0 0 168.661 229.89406c.30586 8.03237.49 14.44768.49 14.44768v.00012l.01115.12154a13.17022 13.17022 0 0 0 13.08257 12.03654H194.593z"/><path fill="#fee903" d="M272.15,25.69a113.12131,113.12131,0,1,0,96.67005,111.92A112.915,112.915,0,0,0,272.15,25.69ZM255.71,215.73a78.115,78.115,0,0,1,0-156.23,77.3872,77.3872,0,0,1,29.48,5.79,78.108,78.108,0,0,1-29.48,150.44Z"/><path fill="#fac600" d="M212.26,72.74a77.55953,77.55953,0,0,1,36.44043-12.91534C246.39563,59.61914,244.06653,59.5,241.71,59.5a78.115,78.115,0,0,0,0,156.23c2.3606,0,4.69214-.1236,7-.32965A78.07887,78.07887,0,0,1,212.26,72.74Z"/><path fill="#fac600" d="M272.15,25.69A112.915,112.915,0,0,0,255.71,24.5c-2.354,0-4.68774.0863-7.00647.228,3.18384.194,6.33728.50457,9.44653.962A113.11882,113.11882,0,0,1,248.71,250.508c2.31592.14148,4.64844.222,7,.222A113.12131,113.12131,0,0,0,272.15,25.69Z"/><path fill="#fac600" d="M255.71057,215.72607a78.20137,78.20137,0,0,1-78.11328-78.11279q0-2.07531.11023-4.12408a79.36166,79.36166,0,0,0-10.36768,50.27087l3.62793,28.76447a112.83036,112.83036,0,0,0,84.7428,38.20172Z"/><path fill="#fff" d="M255.92187 238.53613c-.03808 0-.07617-.00049-.11425-.002-.03223.001-.06446.00146-.09717.00146h-.1001a3.5 3.5 0 1 1 0-7h.1001c.03857 0 .07666.00049.11475.002l.04687-.001.15088-.001a3.5 3.5 0 0 1 0 7h-.04932zM234.78516 236.27344a3.513 3.513 0 0 1-.76807-.08545l.76465-3.41553-.82373 3.40234a3.5 3.5 0 1 1 1.45215-6.84765c.01318.00293.12353.02685.13623.02978a3.50059 3.50059 0 0 1-.76123 6.91651zM276.84375 236.228a3.50063 3.50063 0 0 1-.77295-6.91407l.10889-.02441a3.50008 3.50008 0 0 1 1.52929 6.83106l-.08642.01953A3.52777 3.52777 0 0 1 276.84375 236.228zM214.82764 229.53906a3.48876 3.48876 0 0 1-1.48047-.33056l-.04834-.02246a3.50008 3.50008 0 0 1 2.88086-6.37989l.1333.06153a3.50068 3.50068 0 0 1-1.48535 6.67138zM296.78125 229.45117a3.50056 3.50056 0 0 1-1.46191-6.68164A3.54156 3.54156 0 0 1 300 224.45752a3.45793 3.45793 0 0 1-1.64746 4.62109c-.00781.00342-.10547.04883-.11328.05225A3.48367 3.48367 0 0 1 296.78125 229.45117zM196.75879 218.6499a3.41838 3.41838 0 0 1-2.0752-.70263l-.08691-.06641a3.49994 3.49994 0 1 1 4.24805-5.56348 3.51483 3.51483 0 0 1-2.08594 6.33252zM314.78125 218.53906a3.5 3.5 0 0 1-2.15137-6.26269l.11133-.08545a3.50016 3.50016 0 1 1 4.2334 5.57519l-2.1167-2.78759 2.06982 2.82324A3.48623 3.48623 0 0 1 314.78125 218.53906zM245.02979 44.272a3.50018 3.50018 0 0 1-.354-6.98193l.3584 3.48144-.30957-3.48681a3.50008 3.50008 0 0 1 .81836 6.95215l-.15039.01611A3.495 3.495 0 0 1 245.02979 44.272zM266.188 44.24951a3.54829 3.54829 0 0 1-3.53272-3.88867 3.45619 3.45619 0 0 1 3.78809-3.10352l.15039.01612a3.50007 3.50007 0 0 1-.40576 6.97607z"/><path fill="#fee903" d="M323.7106,234.5h-136l-7.58171-60.11207a67.97382,67.97382,0,0,1,40.75536-71.023L255.7106,88.5l34.82634,14.8649a67.97381,67.97381,0,0,1,40.75536,71.023Z"/><path fill="#fac600" d="M290.53687,103.36493,255.71057,88.5l-7,2.98779,27.8263,11.87714a67.97372,67.97372,0,0,1,40.75537,71.023L309.71057,234.5h14l7.58167-60.11206A67.97372,67.97372,0,0,0,290.53687,103.36493Z"/><path fill="#22b37f" d="M414.69422,502V425.54959A60,60,0,0,0,371.84483,368.053l-64.56475-19.259A20,20,0,0,1,292.997,329.62852V310.02624H218.42424v19.60228a20,20,0,0,1-14.28313,19.16553l-64.56474,19.259A60,60,0,0,0,96.727,425.54959V502a10,10,0,0,0,10,10H404.69422A10,10,0,0,0,414.69422,502Z"/><circle cx="256" cy="407.716" r="19.811" fill="#02905d"/><path fill="#02905d" d="M255.9728,400.9126a107.61279,107.61279,0,0,0,80.6753-36.35846l-29.368-8.76013a19.988,19.988,0,0,1-3.41108-1.38245,77.76241,77.76241,0,0,1-96.00525-.16766,19.97111,19.97111,0,0,1-3.72265,1.55011L175.188,364.43042A107.61442,107.61442,0,0,0,255.9728,400.9126Z"/><path fill="#02905d" d="M339.73413 359.30566l-.2771-1.12347-2.8291-1.215a29.99984 29.99984 0 0 0-37.68274 12.33142L215.11422 512h34.399l2.04124-3.67908zM450.36572 391.13855l-18.605 18.19162a3.595 3.595 0 0 1-5.95239-1.48734 65.28483 65.28483 0 0 0-22.64439-32.76825L392.4 385.6l18.2699 58.04.002-.00189h0l3.5957-3.51642 14.37353-14.05627v-.00006L441.04 413.94l12.80933-12.51892 1.30053-1.27142z"/><path fill="#fed2a4" d="M303.86,347.42a77.77985,77.77985,0,0,1-95.98-.16,20.00518,20.00518,0,0,0,10.53992-17.63v-19.6H293v19.6A19.99417,19.99417,0,0,0,303.86,347.42Z"/><path fill="#ffbd86" fill-rule="evenodd" d="M218.41992,310.03V325.0293a66.35407,66.35407,0,0,0,42.58777,15.32757h1.70349a67.7992,67.7992,0,0,0,30.60156-7.26574A20.00338,20.00338,0,0,1,293,329.63v-19.6Z"/><path fill="#fed2a4" fill-rule="evenodd" d="M255.71127,326.35688h-1.70359a66.14746,66.14746,0,0,1-66.41548-66.0756c.00038-17.53191.00059-20.69581.0007-27.29249a40.21034,40.21034,0,0,1,16.83557-32.71794l.49285-.352a48.27528,48.27528,0,0,1,34.50193-8.56027l16.28734,2.19321,16.28735-2.19321a48.27423,48.27423,0,0,1,34.50158,8.56l.49292.35208a40.20931,40.20931,0,0,1,16.83586,32.71713c.0001,5.86606.0003,8.56361.00065,25.2461A68.121,68.121,0,0,1,255.71127,326.35688Z"/><path fill="#ffbd86" fill-rule="evenodd" d="M187.5929,246.98877a40.21,40.21,0,0,1,16.83557-32.7179l.49292-.352a48.27541,48.27541,0,0,1,34.50195-8.5603l16.28723,2.19324,16.28735-2.19324a48.27449,48.27449,0,0,1,34.50159,8.56006q.24647.17588.49292.35205a40.2093,40.2093,0,0,1,16.83594,32.71716c0,3.61652,0,6.033.00024,11.26056l.00037-.01446c-.00037-16.6825-.00061-19.38007-.00061-25.2461a40.2093,40.2093,0,0,0-16.83594-32.71716q-.24647-.17615-.49292-.35205a48.27449,48.27449,0,0,0-34.50159-8.56006l-16.28735,2.19324-16.28723-2.19324a48.27541,48.27541,0,0,0-34.50195,8.5603l-.49292.352a40.21,40.21,0,0,0-16.83557,32.7179c-.00013,6.59668-.00037,9.76062-.00061,27.29248l.00024.00964C187.59277,254.08765,187.59277,251.25287,187.5929,246.98877Z"/><path fill="#fed2a4" d="M96.727,502V462.355h55.91509V512H106.727A10,10,0,0,1,96.727,502Z"/><rect width="55.915" height="21" x="96.727" y="462.355" fill="#fd4755"/><path fill="#fac600" d="M285.18994,65.29A77.9267,77.9267,0,0,0,212.26,72.74a14.15167,14.15167,0,0,1-.5-3.76,14.51041,14.51041,0,0,1,14.51-14.52h44.88A14.50388,14.50388,0,0,1,285.18994,65.29Z"/><path fill="#fee903" d="M233.27169,54.45933H278.1495a14.51583,14.51583,0,0,1,14.51583,14.51583v0A14.51584,14.51584,0,0,1,278.1495,83.491H233.27169A14.51583,14.51583,0,0,1,218.75586,68.9752v0a14.51584,14.51584,0,0,1,14.51584-14.51584Z"/><path fill="#fac600" d="M278.14941,54.45935h-1.59863a14.42462,14.42462,0,0,1,2.1145,7.51581v.00006A14.5158,14.5158,0,0,1,264.14941,76.491h-43.279a14.49242,14.49242,0,0,0,12.40137,7h44.87768a14.5158,14.5158,0,0,0,14.51587-14.51581v-.00006A14.5158,14.5158,0,0,0,278.14941,54.45935Z"/><path fill="#fee903" d="M224.59463,83.491h62.23194A14.51583,14.51583,0,0,1,301.3424,98.00687v0a14.51583,14.51583,0,0,1-14.51583,14.51583H224.59463A14.51583,14.51583,0,0,1,210.07879,98.0069v0A14.51584,14.51584,0,0,1,224.59463,83.491Z"/><path fill="#fac600" d="M286.82654 83.491h-1.59863a14.4258 14.4258 0 0 1 2.1145 7.51581v.00006a14.5158 14.5158 0 0 1-14.51587 14.51581H212.19336a14.49221 14.49221 0 0 0 12.40124 7h62.23194A14.5158 14.5158 0 0 0 301.34241 98.0069v-.00006A14.5158 14.5158 0 0 0 286.82654 83.491zM274.34009 36.34a27.17753 27.17753 0 0 1-3.28 12.93L268.25 54.46H229.16992L226.36 49.27a27.12449 27.12449 0 0 1-2.26-20.29 113.89216 113.89216 0 0 1 48.05-3.29A27.00345 27.00345 0 0 1 274.34009 36.34z"/><path fill="#fee903" d="M275.2509,54.45933H236.17029L233.359,49.27244a27.1318,27.1318,0,0,1,0-25.85743h0a27.1316,27.1316,0,0,1,7.52266-8.738L255.7106,3.5l14.829,11.177a27.13175,27.13175,0,0,1,7.52267,8.738h0a27.13186,27.13186,0,0,1,0,25.85743Z"/><path fill="#fac600" d="M278.06226,23.415a27.13118,27.13118,0,0,0-7.52271-8.738L255.71057,3.5l-2.35644,1.77612,3.18542,2.40094a27.13187,27.13187,0,0,1,7.52271,34.5954h0a9.90822,9.90822,0,0,1-8.711,5.18688H232.47046c.2749.61176.56592,1.21814.88843,1.81311l2.8114,5.18689H275.251l2.81128-5.18689A27.132,27.132,0,0,0,278.06226,23.415Z"/><circle cx="256" cy="32.966" r="7.625" fill="#fd4755"/><path fill="#fb2b3a" d="M257.58982,25.50934a7.61931,7.61931,0,0,1-8.00989,11.56036,7.6225,7.6225,0,1,0,8.00989-11.56036Z"/><circle cx="213.711" cy="164.006" r="7" fill="#0067c5"/><circle cx="297.711" cy="164.006" r="7" fill="#0067c5"/><path fill="#0055a3" d="M297.71057 157.006c-.05456 0-.1073.007-.1615.00818a6.99313 6.99313 0 0 1-5.20984 11.47766 6.99923 6.99923 0 1 0 5.37134-11.48584zM213.7106 157.006c-.05457 0-.1073.007-.1615.00818a6.99313 6.99313 0 0 1-5.20984 11.47766A6.99923 6.99923 0 1 0 213.7106 157.006z"/><circle cx="255.711" cy="156.815" r="12.474" fill="#fd4755"/><path fill="#fb2b3a" d="M260.30164,145.22351a12.45778,12.45778,0,0,1-16.182,16.18207,12.46975,12.46975,0,1,0,16.182-16.18207Z"/><path fill="#02905d" d="M211.52261,470.51611l44.18762,24.44794,44.18756-24.44794a80.35377,80.35377,0,0,0,41.44251-70.28967V374.10968l.31866-1.06079L307.28012,362.794a19.99777,19.99777,0,0,1-2.19739-.81488l-.09473,1.287v36.96045a43.979,43.979,0,0,1-22.68793,38.48194l-26.58984,14.71112-26.58942-14.71112a43.97927,43.97927,0,0,1-22.68817-38.48194V363.26636l-.16327-1.257a20.00731,20.00731,0,0,1-2.12823.78461l-34.1579,10.189.09772,1.12671v26.11676A80.35379,80.35379,0,0,0,211.52261,470.51611Z"/><path fill="#fee903" d="M211.52261,456.51611l44.18762,24.44794,44.18756-24.44794a80.35377,80.35377,0,0,0,41.44251-70.28967V360.10968l.31866-1.06079L307.28012,348.794a19.99777,19.99777,0,0,1-2.19739-.81488l-.09473,1.287v36.96045a43.979,43.979,0,0,1-22.68793,38.48194l-26.58984,14.71112-26.58942-14.71112a43.97927,43.97927,0,0,1-22.68817-38.48194V349.26636l-.16327-1.257a20.00731,20.00731,0,0,1-2.12823.78461l-34.1579,10.189.09772,1.12671v26.11676A80.35379,80.35379,0,0,0,211.52261,456.51611Z"/><path fill="#fac600" d="M304.988 354.92676v31.29986q0 1.47144-.09912 2.92694a108.54867 108.54867 0 0 0 31.75915-24.59942L307.28 355.794A19.26806 19.26806 0 0 1 304.988 354.92676zM206.43262 386.22662V354.92731a19.07162 19.07162 0 0 1-2.29151.8667q-17.079 1.59447-34.15783 3.189a119.574 119.574 0 0 0 36.53918 29.89795C206.46924 388.00012 206.43262 387.11621 206.43262 386.22662z"/><path fill="#fac600" d="M304.988,361.99274v24.23388a43.9791,43.9791,0,0,1-22.688,38.48194L258.73523,437.746l-19.903,33.87989,16.87793,9.33813L273.6,471.066l66.13415-111.76038-.22119-.89691-12.77356-3.81024A30.05638,30.05638,0,0,0,304.988,361.99274Z"/><path fill="#fed402" d="M255.9728,393.9126a107.61279,107.61279,0,0,0,80.6753-36.35846l-29.368-8.76013a19.988,19.988,0,0,1-3.41108-1.38245,77.76241,77.76241,0,0,1-96.00525-.16766,19.97111,19.97111,0,0,1-3.72265,1.55011L175.188,357.43042A107.61442,107.61442,0,0,0,255.9728,393.9126Z"/><path fill="#fee903" d="M255.9728,393.9126a107.61279,107.61279,0,0,0,80.6753-36.35846l-29.368-8.76013a19.988,19.988,0,0,1-3.41108-1.38245,77.76241,77.76241,0,0,1-96.00525-.16766,19.97111,19.97111,0,0,1-3.72265,1.55011L175.188,357.43042A107.61442,107.61442,0,0,0,255.9728,393.9126Z"/><path fill="#fac600" d="M336.64807,357.55414l-9.90857-2.95563a30.0012,30.0012,0,0,0-27.79431,14.70007L287.19641,389.298A108.118,108.118,0,0,0,336.64807,357.55414Z"/><path fill="#fed402" d="M207.86 347.24l.02.02a19.02247 19.02247 0 0 1-2.77 1.21A20.00657 20.00657 0 0 0 207.86 347.24zM305.53 348.18c-.57007-.23-1.13-.48-1.67-.76l.01-.01C304.40991 347.69 304.96 347.95 305.53 348.18z"/><circle cx="255.711" cy="407.912" r="14" fill="#fee903"/><path fill="#f4d902" d="M261.46362,395.15906a13.98171,13.98171,0,0,1-18.506,18.5061,13.99355,13.99355,0,1,0,18.506-18.5061Z"/><path fill="#fd4755" d="M405.25393,512a10,10,0,0,0,10-9.99754l.0191-77.7226a60,60,0,0,0-36.32287-55.14912L350.628,356.96716c-13.87435-5.95865-23.01521-.67668-30.68285,12.33141L236.11422,512Z"/><path fill="#fb2b3a" d="M378.9502,369.13074l-28.32227-12.16358c-6.68494-2.871-12.2688-3.12573-17.12073-1.17071,1.01428.32727,2.05188.71161,3.12073,1.17071l28.32227,12.16358A59.99985,59.99985,0,0,1,401.273,424.27985L401.25146,512h4.00245a10,10,0,0,0,10-9.99755l.019-77.7226A59.99985,59.99985,0,0,0,378.9502,369.13074Z"/><path fill="#fee903" d="M353.73413 359.30566l-.2771-1.12347-2.8291-1.215a29.99984 29.99984 0 0 0-37.68274 12.33142L229.11422 512h34.399l2.04124-3.67908zM361.59 392.45556a5.93213 5.93213 0 0 0 2.41789-2.93727 3.0095 3.0095 0 0 1 5.6697.6342 13.42418 13.42418 0 0 1 .221 4.1385c-.0368.361-1.03258 8.87976-7.48277 10.91238-2.67044.8415-7.4359.93688-9.66525-2.49426-1.83045-2.81717-1.296-7.00334.85277-8.78918C355.95357 391.96672 358.78575 394.08919 361.59 392.45556zM336.8539 451.79913a5.93208 5.93208 0 0 0-2.41789 2.93727 3.00951 3.00951 0 0 1-5.6697-.63421 13.42381 13.42381 0 0 1-.221-4.13849c.0368-.36105 1.03258-8.87977 7.48277-10.91239 2.67044-.8415 7.4359-.93687 9.66525 2.49426 1.83045 2.81718 1.296 7.00335-.85277 8.78919C342.49037 452.288 339.65819 450.16549 336.8539 451.79913zM308.8539 498.1759a5.93213 5.93213 0 0 0-2.41789 2.93727 3.0095 3.0095 0 0 1-5.6697-.63421 13.42379 13.42379 0 0 1-.221-4.13849c.0368-.361 1.03258-8.87977 7.48277-10.91239 2.67044-.8415 7.4359-.93687 9.66525 2.49426 1.83045 2.81718 1.296 7.00335-.85277 8.78919C314.49037 498.66474 311.65819 496.54226 308.8539 498.1759zM375.73361 432.963a5.93209 5.93209 0 0 0 2.4179-2.93727 3.0095 3.0095 0 0 1 5.66969.63421 13.4238 13.4238 0 0 1 .221 4.13849c-.0368.361-1.03259 8.87977-7.48278 10.91239-2.67043.8415-7.43589.93687-9.66525-2.49426-1.83044-2.81718-1.296-7.00335.85278-8.78919C370.09714 432.47417 372.92933 434.59664 375.73361 432.963zM390.21867 474.26182a5.93213 5.93213 0 0 0 2.41789-2.93727 3.0095 3.0095 0 0 1 5.6697.6342 13.42418 13.42418 0 0 1 .221 4.1385c-.0368.36105-1.03258 8.87977-7.48277 10.91238-2.67044.8415-7.4359.93688-9.66525-2.49425-1.83045-2.81718-1.296-7.00335.85277-8.78919C384.5822 473.773 387.41438 475.89546 390.21867 474.26182zM350.8539 498.1759a5.93213 5.93213 0 0 0-2.41789 2.93727 3.0095 3.0095 0 0 1-5.6697-.63421 13.42379 13.42379 0 0 1-.221-4.13849c.0368-.361 1.03258-8.87977 7.48277-10.91239 2.67044-.8415 7.4359-.93687 9.66525 2.49426 1.83045 2.81718 1.296 7.00335-.85277 8.78919C356.49037 498.66474 353.65819 496.54226 350.8539 498.1759z"/><path d="M258.08887,491.2666a3.50043,3.50043,0,0,0-4.793,1.23633l-.05127.08691a3.50007,3.50007,0,1,0,6.02929,3.55664l.05127-.08691A3.5001,3.5001,0,0,0,258.08887,491.2666Zm48.88672-9.19238c-8.68311,2.73682-9.86622,13.44287-9.91211,13.896a16.96486,16.96486,0,0,0,.27734,5.2129,6.496,6.496,0,0,0,5.74316,5.124q.35157.03516.69678.03516a6.3054,6.3054,0,0,0,5.86719-3.8545,2.70222,2.70222,0,0,1,.96728-1.30322h.00049a3.78846,3.78846,0,0,1,2.03369-.15283,8.448,8.448,0,0,0,6.42774-1.644c3.60791-2.998,4.31836-9.12891,1.55127-13.38819C317.57861,481.30664,311.41309,480.67529,306.97559,482.07422Zm7.62744,11.92969a4.12052,4.12052,0,0,1-1.52149.0415,9.83274,9.83274,0,0,0-5.98926,1.09033,8.88908,8.88908,0,0,0-3.10107,3.08936,9.80414,9.80414,0,0,1,.03564-1.53858c.00684-.06543.83838-6.60742,5.05323-7.936a8.06859,8.06859,0,0,1,2.28759-.32471,3.90534,3.90534,0,0,1,3.39063,1.3877C315.67139,491.21826,315.30762,493.419,314.603,494.00391Zm-64.79786,11.2666a3.51628,3.51628,0,1,0,1.21973,4.81543l.02539-.043A3.47886,3.47886,0,0,0,249.80517,505.27051Zm100.77588-345.2251a3.49581,3.49581,0,0,0-4.29736,2.45557l-.02637.09668a3.49979,3.49979,0,1,0,6.75293,1.84179l.02637-.09668A3.49954,3.49954,0,0,0,350.58105,160.04541Zm45.40821,306.0542a6.33614,6.33614,0,0,0-6.56446,3.81885,2.70222,2.70222,0,0,1-.96728,1.30322l-.00049.00049a3.77108,3.77108,0,0,1-2.03418.15234,8.458,8.458,0,0,0-6.42822,1.64453c-3.60742,2.99854-4.31738,9.1294-1.55029,13.38721,2.13525,3.28711,5.80029,4.58154,9.32958,4.58154a14.53351,14.53351,0,0,0,4.32227-.65527c8.66992-2.73242,9.86621-13.439,9.91309-13.89648a16.95424,16.95424,0,0,0-.27784-5.21192A6.49481,6.49481,0,0,0,395.98926,466.09961Zm-.94287,9.61768c-.00733.06542-.83985,6.61083-5.05372,7.93847-1.35058.42481-4.51757.72559-5.67871-1.06347-.91259-1.4043-.54882-3.605.15528-4.19a1.14552,1.14552,0,0,1,.5664-.08252c.28321,0,.62989.02149.95508.04151a9.83556,9.83556,0,0,0,5.98926-1.09082,8.88218,8.88218,0,0,0,3.10156-3.08936A9.8299,9.8299,0,0,1,395.04639,475.71729Zm-54.39649-21.062a8.45486,8.45486,0,0,0,6.42774-1.64453c3.60742-2.998,4.31738-9.12939,1.55078-13.38818-3.04981-4.69141-9.21436-5.32276-13.65283-3.92529-8.68458,2.7373-9.86622,13.44384-9.91211,13.89648a16.96165,16.96165,0,0,0,.27734,5.2124,6.496,6.496,0,0,0,5.74316,5.124q.35157.03514.69678.03515a6.305,6.305,0,0,0,5.86719-3.854,2.70217,2.70217,0,0,1,.96728-1.30322l.00049-.00049A3.774,3.774,0,0,1,340.6499,454.65527Zm-5.55713-5.896a8.88215,8.88215,0,0,0-3.10156,3.08935,9.80263,9.80263,0,0,1,.03564-1.53857c.00684-.06592.83838-6.60791,5.05274-7.936a8.0668,8.0668,0,0,1,2.2876-.32519,3.90628,3.90628,0,0,1,3.39111,1.38769c.91309,1.40479.54883,3.606-.15527,4.19092a4.11048,4.11048,0,0,1-1.521.041A9.8366,9.8366,0,0,0,335.09277,448.75928Zm52.43115-13.62061a16.976,16.976,0,0,0-.27734-5.21387,6.49533,6.49533,0,0,0-5.74219-5.124,6.32941,6.32941,0,0,0-6.56543,3.81983,2.69719,2.69719,0,0,1-.96679,1.30224l-.00049.00049a3.78115,3.78115,0,0,1-2.03418.15234,8.45615,8.45615,0,0,0-6.42774,1.64453c-3.60693,2.998-4.31738,9.12891-1.55029,13.38819,2.13574,3.28613,5.79981,4.58056,9.3291,4.58056a14.53433,14.53433,0,0,0,4.32276-.65527C386.29639,446.29639,387.478,435.58984,387.52392,435.13867Zm-12.01611,7.21826c-1.3501.42627-4.51514.72657-5.67871-1.0625-.9126-1.40478-.54883-3.60595.15527-4.19091a1.14557,1.14557,0,0,1,.56641-.08252c.2832,0,.62988.02148.95459.0415a9.8366,9.8366,0,0,0,5.98926-1.09082,8.885,8.885,0,0,0,3.10156-3.08887,9.79652,9.79652,0,0,1-.03564,1.53809C380.55371,434.48682,379.72266,441.02881,375.50781,442.35693Zm-25.99951-299.873-.00488.10254a3.47769,3.47769,0,0,0,3.332,3.62207c.05566.00293.11084.0039.166.0039a3.52476,3.52476,0,0,0,3.49659-3.34619l.00341-.07373a3.5,3.5,0,0,0-6.99316-.30859Zm9.63721,266.69775a14.53376,14.53376,0,0,0,4.32226-.65527c8.6836-2.73682,9.8667-13.44336,9.9126-13.895a16.98021,16.98021,0,0,0-.27734-5.21436,6.4954,6.4954,0,0,0-5.74219-5.12353,6.32535,6.32535,0,0,0-6.56543,3.81933,2.69657,2.69657,0,0,1-.9668,1.30274l-.00049.00049a3.77118,3.77118,0,0,1-2.03418.15234,8.45689,8.45689,0,0,0-6.42724,1.644c-3.60791,2.998-4.31836,9.12891-1.55127,13.38819C351.95117,407.88721,355.61621,409.18164,359.14551,409.18164Zm-3.30469-12.58545a1.14557,1.14557,0,0,1,.56641-.08252c.28271,0,.62988.02149.95459.04151a9.83619,9.83619,0,0,0,5.98925-1.09082,8.87829,8.87829,0,0,0,3.10157-3.08936,9.8,9.8,0,0,1-.03565,1.53857c-.00683.06543-.83838,6.60791-5.05273,7.936-1.35157.42529-4.51709.7251-5.67871-1.063C354.773,399.38184,355.13623,397.18115,355.84082,396.59619Zm-6.86523,85.478c-8.68311,2.73682-9.86622,13.44287-9.91211,13.896a16.96486,16.96486,0,0,0,.27734,5.2129,6.496,6.496,0,0,0,5.74316,5.124q.35157.03516.69678.03516a6.3054,6.3054,0,0,0,5.86719-3.8545,2.70222,2.70222,0,0,1,.96728-1.30322h.00049a3.787,3.787,0,0,1,2.03369-.15283,8.44758,8.44758,0,0,0,6.42774-1.644c3.60791-2.998,4.31836-9.12891,1.55127-13.38819C359.5791,481.30664,353.4126,480.67529,348.97559,482.07422Zm7.62744,11.92969a4.12131,4.12131,0,0,1-1.52149.0415,9.83119,9.83119,0,0,0-5.98926,1.09033,8.88908,8.88908,0,0,0-3.10107,3.08936,9.80414,9.80414,0,0,1,.03564-1.53858c.00684-.06543.83838-6.60742,5.05323-7.936a8.06859,8.06859,0,0,1,2.28759-.32471,3.90534,3.90534,0,0,1,3.39063,1.3877C357.67139,491.21826,357.30762,493.419,356.603,494.00391ZM221.07129,438.34033l-2.19483,2.72754,2.14161-2.76855a3.5002,3.5002,0,0,0-4.28321,5.53711l.103.0791a3.50016,3.50016,0,1,0,4.2334-5.5752ZM158.61035,146.39209a3.543,3.543,0,0,0,3.314-3.69971,3.5,3.5,0,0,0-6.99317.3086c.00049.01709.00684.13379.00781.15088a3.45326,3.45326,0,0,0,3.48291,3.24511C158.48437,146.397,158.54736,146.395,158.61035,146.39209Zm51.28418,281.51025a3.45705,3.45705,0,0,0-4.88281-.24755,3.54185,3.54185,0,0,0-.30322,4.94873,3.49977,3.49977,0,1,0,5.2998-4.57227C209.99267,428.0127,209.91064,427.92041,209.89453,427.90234Zm38.26563,24.16846c-.01563-.00488-.12647-.03809-.14209-.04248A3.45866,3.45866,0,0,0,243.731,454.396a3.54259,3.54259,0,0,0,2.3706,4.36523,3.5,3.5,0,0,0,2.0586-6.69043Zm-50.168-34.66748,3.01953-1.77a3.50008,3.50008,0,1,0-6.03906,3.54c.00781.0127.06543.11035.07324.123a3.49982,3.49982,0,0,0,5.99316-3.61621Zm-3.48291-15.436c-.00537-.01514-.0459-.123-.05176-.13819a3.4591,3.4591,0,0,0-4.47656-1.9873,3.54282,3.54282,0,0,0-2.04688,4.52588,3.49983,3.49983,0,0,0,6.5752-2.40039Zm-29.333-239.32618a3.5,3.5,0,0,0-6.71973,1.96094l3.38721-.88281-3.37647.9209a3.4998,3.4998,0,0,0,6.75293-1.8418C165.21484,162.77783,165.18213,162.66113,165.17627,162.64111Zm2.79834,17.44678a3.50015,3.50015,0,0,0-1.44141,4.73535l.04688.08789a3.42245,3.42245,0,0,0,3.03662,1.81983A3.51826,3.51826,0,0,0,172.71,181.5293,3.50015,3.50015,0,0,0,167.97461,180.08789ZM478.18249,246.213a18.543,18.543,0,0,0,5.61731-13.24274V210.57812a13.51539,13.51539,0,0,0-13.5-13.5h-17.064c-.07935,0-.15357.01819-.23169.02338a9.38211,9.38211,0,0,0-5.24011,1.84631,16.5609,16.5609,0,0,1,.23694-10.04156,27.98677,27.98677,0,0,1,2.38378-4.40039,31.69353,31.69353,0,0,0,4.64625-10.56348,32.56877,32.56877,0,0,0,6.53637-9.254,32.61591,32.61591,0,0,0,15.56641,3.96692q1.35938,0,2.72656-.11328a3.49948,3.49948,0,0,0,3.209-3.55322,32.70911,32.70911,0,0,0-5.06226-16.83661,47.3645,47.3645,0,0,0,8.00659-7.0882,46.38678,46.38678,0,0,0,11.81348-35.28662,3.48413,3.48413,0,0,0-3.562-3.20214,46.80453,46.80453,0,0,0-8.69873,1.01709,47.224,47.224,0,0,0-5.36573-16.55713,3.49955,3.49955,0,0,0-4.54834-1.49366,46.723,46.723,0,0,0-9.89355,6.22547A54.32715,54.32715,0,0,0,454.334,76.40576a3.49955,3.49955,0,0,0-4.78808-.00049,54.29593,54.29593,0,0,0-11.10059,14.74591,47.046,47.046,0,0,0-9.11279-5.60723,3.50216,3.50216,0,0,0-4.55225,1.48925,47.146,47.146,0,0,0-5.404,16.79132,46.83763,46.83763,0,0,0-9.76147-1.24932,3.50661,3.50661,0,0,0-3.562,3.20214,46.82577,46.82577,0,0,0,19.82032,42.37506,32.714,32.714,0,0,0-5.0625,16.83588,3.50065,3.50065,0,0,0,3.20459,3.55371q1.38207.11646,2.75927.11621a32.5284,32.5284,0,0,0,15.53955-3.96679,32.536,32.536,0,0,0,5.73047,8.42321,26.26226,26.26226,0,0,1-3.61767,7.71692,34.07073,34.07073,0,0,0-2.9458,5.52735c-2.08057,5.31622-1.78955,11.58007.85656,18.67175a13.51212,13.51212,0,0,0-12.33606,13.441v13.91553a18.407,18.407,0,0,0,11.57178,17.15466l.03418,25.725a3.32143,3.32143,0,0,0,.00208,1.5227l.032,23.952a2.4263,2.4263,0,0,0,.00134.96923l.03735,28.04609a6.525,6.525,0,0,1-1.95751,4.65527l-42.8252,41.87805a63.5182,63.5182,0,0,0-16.56592-10.39075l-.82763-.3554-32.932-90.4029a21.692,21.692,0,0,0-4.85584-20.8927,16.87173,16.87173,0,0,0,4.1189-9.60046c.00684-.07422.01172-.14893.01367-.22363,0-.00684.17969-6.25977.479-14.15039a16.97785,16.97785,0,0,0-5.42127-13.02973,116.65961,116.65961,0,0,0,5.17078-153.35748A116.97538,116.97538,0,0,0,282.26269,24.058c-.34423-.78521-.7102-1.564-1.12353-2.32653A30.42936,30.42936,0,0,0,272.646,11.8667L257.81689.68945a3.49884,3.49884,0,0,0-4.21338,0L238.77539,11.86621a30.42138,30.42138,0,0,0-8.49365,9.86524c-.41333.76251-.77906,1.54119-1.12342,2.32635A116.5681,116.5681,0,0,0,139.1001,137.59424a115.728,115.728,0,0,0,31.37,79.60406,16.68339,16.68339,0,0,0-5.30749,12.811c.30517,7.90674.48584,14.31543.4873,14.31494a3.88945,3.88945,0,0,0,.022.4043l.00293.0332a16.77992,16.77992,0,0,0,4.02588,9.49914,21.69725,21.69725,0,0,0-4.85034,20.85419l-33.59558,92.26123a63.17921,63.17921,0,0,0-15.39429,9.65894L72.27881,334.41406a6.53076,6.53076,0,0,1-1.959-4.665l.03736-28.04144a3.46145,3.46145,0,0,0,.04956-.4776L70.48,276.03516a3.49265,3.49265,0,0,0-.0874-.75867l.03418-25.73438a18.40717,18.40717,0,0,0,11.57177-17.1549V218.47168a13.51211,13.51211,0,0,0-12.33606-13.441c2.64612-7.09161,2.93738-13.35486.858-18.66834a34.084,34.084,0,0,0-2.94727-5.53076,26.26226,26.26226,0,0,1-3.61767-7.71692,32.53472,32.53472,0,0,0,5.73046-8.42321,32.5281,32.5281,0,0,0,15.53956,3.96679q1.37622,0,2.75927-.11621a3.50065,3.50065,0,0,0,3.20459-3.55371,32.71418,32.71418,0,0,0-5.0625-16.836,46.824,46.824,0,0,0,19.82031-42.37494,3.49628,3.49628,0,0,0-3.562-3.20214,46.84158,46.84158,0,0,0-9.76147,1.24926,47.14592,47.14592,0,0,0-5.404-16.79126A3.50122,3.50122,0,0,0,82.66748,85.544a47.046,47.046,0,0,0-9.11279,5.60723A54.29593,54.29593,0,0,0,62.4541,76.40527a3.49956,3.49956,0,0,0-4.78809.00049A54.32627,54.32627,0,0,0,46.24121,91.767a46.723,46.723,0,0,0-9.89355-6.22547,3.49939,3.49939,0,0,0-4.54834,1.49366,47.224,47.224,0,0,0-5.36573,16.55713,46.80473,46.80473,0,0,0-8.69873-1.01709,3.52065,3.52065,0,0,0-3.562,3.20214,46.38746,46.38746,0,0,0,11.81494,35.28809,47.35546,47.35546,0,0,0,8.005,7.08685,32.70977,32.70977,0,0,0-5.06214,16.83649,3.49948,3.49948,0,0,0,3.209,3.55322q1.366.11425,2.72656.11328a32.623,32.623,0,0,0,15.56641-3.96685,32.56923,32.56923,0,0,0,6.53637,9.254,31.69333,31.69333,0,0,0,4.64624,10.56348,27.9956,27.9956,0,0,1,2.38526,4.40381,16.557,16.557,0,0,1,.23559,10.03827,9.38129,9.38129,0,0,0-5.24023-1.84644c-.07813-.00519-.15234-.02338-.23169-.02338h-17.064a13.5154,13.5154,0,0,0-13.5,13.5v22.39209a18.54247,18.54247,0,0,0,5.61731,13.24268l-16.8385,99.688A33.49834,33.49834,0,0,0,26.583,375.437L93.23,440.59723V462.3103c0,.01-.00293.01911-.00293.02906v46.145a3.49986,3.49986,0,0,0,3.5,3.5l.00146-.00013.00147.00013a3.49986,3.49986,0,0,0,3.5-3.5v-21.645h48.91211v21.645a3.5,3.5,0,0,0,7,0V487.129c8.5343,13.66638,24.011,22.91168,41.93457,24.65954q.17358.01685.34424.01709a3.50023,3.50023,0,0,0,.33545-6.98388c-17.99268-1.75489-33.11084-11.9834-39.45557-26.69434-5.563-12.89892-2.749-25.82715.59131-34.40137a3.5,3.5,0,0,0-6.52246-2.541,61.12,61.12,0,0,0-4.09766,17.6543H100.23V425.53418a56.8617,56.8617,0,0,1,40.35059-54.146l25.99951-7.75628v22.58246a83.87573,83.87573,0,0,0,43.24609,73.353l34.56909,19.11725L227.87744,506.707a3.5,3.5,0,1,0,6.03027,3.55469l18.36768-31.16046c.00854-.01508.01941-.028.02783-.04315l.00659-.01532,56.334-95.57007.01721-.0293,7.29944-12.38336a26.55821,26.55821,0,0,1,22.58252-13.031,3.48326,3.48326,0,0,0,.44873.02906c.114,0,.22729-.01087.34033-.02192a26.31541,26.31541,0,0,1,9.83472,2.09919L262.54248,506.523a3.5,3.5,0,1,0,6.02441,3.56445L355.65332,362.919l21.91553,9.412a56.43994,56.43994,0,0,1,34.2041,51.93213l-.02149,84.22022a3.49988,3.49988,0,0,0,3.499,3.501h.001a3.5,3.5,0,0,0,3.5-3.499l.01734-67.87732,66.6477-65.17053a33.49817,33.49817,0,0,0,9.6045-29.53613ZM463.864,157.947a32.75541,32.75541,0,0,0,.5503-3.25744,46.0254,46.0254,0,0,0,7.56494-2.95478,25.67927,25.67927,0,0,1,3.78247,9.88434A25.60542,25.60542,0,0,1,463.864,157.947Zm11.70581-64.48413a40.138,40.138,0,0,1,3.18872,12.11218,46.901,46.901,0,0,0-7.69336,3.71857,54.3222,54.3222,0,0,0-2.47558-10.71838A39.70688,39.70688,0,0,1,475.56982,93.46289Zm-4.1029,24.00092a39.95109,39.95109,0,0,1,19.53454-7.66986,39.38211,39.38211,0,0,1-10.19336,26.58984,40.00773,40.00773,0,0,1-9.36157,7.68518c-.05957.02985-.11621.06555-.17456.09906a39.16722,39.16722,0,0,1-10.55957,4.26727A54.5001,54.5001,0,0,0,471.46692,117.46381ZM442.8352,98.18542c.02784-.06475.0575-.128.0813-.1939a46.93042,46.93042,0,0,1,9.02344-14.074,46.91408,46.91408,0,0,1,9.27246,14.66809,3.46055,3.46055,0,0,0,.19177.5044,47.25422,47.25422,0,0,1,3.10071,16.91931,46.77158,46.77158,0,0,1-12.56494,32.09179,47.38805,47.38805,0,0,1-9.10474-49.91565Zm-13.42895-4.72058a39.7681,39.7681,0,0,1,6.14355,4.3606,54.34358,54.34358,0,0,0-2.7351,11.46857,46.89961,46.89961,0,0,0-6.64222-3.30945A40.06262,40.06262,0,0,1,429.40625,93.46484Zm-1.28858,68.15821a25.68058,25.68058,0,0,1,3.78309-9.88806,46.02409,46.02409,0,0,0,7.56482,2.95465,32.72142,32.72142,0,0,0,.55078,3.25946A25.51054,25.51054,0,0,1,428.11767,161.62305Zm4.48768-17.45642c-.05726-.03284-.1128-.06781-.17127-.09717a39.99614,39.99614,0,0,1-9.36035-7.68421,39.38092,39.38092,0,0,1-10.19531-26.5913,39.99134,39.99134,0,0,1,19.53454,7.66876,54.49741,54.49741,0,0,0,10.75452,30.97259A39.163,39.163,0,0,1,432.60535,144.16663Zm14.20007,12.04089a48.26421,48.26421,0,0,0,4.89868.356c.02539.00048.05029.001.07568.001.03418,0,.0669-.00885.101-.00982.01989.0003.03943.00543.0592.00543s.03931-.00513.05908-.00543c.03418.001.0669.00982.10108.00982.0249,0,.05029-.00049.07568-.001a48.26421,48.26421,0,0,0,4.89868-.356,25.36773,25.36773,0,0,1-5.13452,10.74658A25.36785,25.36785,0,0,1,446.80542,156.20752ZM71.98364,157.949a32.75788,32.75788,0,0,0,.55078-3.2594,46.0229,46.0229,0,0,0,7.5647-2.95472,25.6796,25.6796,0,0,1,3.7832,9.88813A25.51476,25.51476,0,0,1,71.98364,157.949Zm10.61011-64.4842a40.06233,40.06233,0,0,1,3.23376,12.51972A46.9,46.9,0,0,0,79.1853,109.294,54.34244,54.34244,0,0,0,76.45019,97.8255,39.76448,39.76448,0,0,1,82.59375,93.46484ZM79.587,117.46271A39.99134,39.99134,0,0,1,99.12158,109.794a39.38112,39.38112,0,0,1-10.19385,26.58984,40.0078,40.0078,0,0,1-9.345,7.67871c-.08606.04254-.16736.09528-.25061.14551a39.16986,39.16986,0,0,1-10.4928,4.218A54.49815,54.49815,0,0,0,79.587,117.46271ZM50.5957,99.09033a3.456,3.456,0,0,0,.1919-.505,46.91272,46.91272,0,0,1,9.27246-14.66785,46.93042,46.93042,0,0,1,9.02344,14.074c.0238.06591.05346.12915.08129.1939A47.18247,47.18247,0,0,1,72.625,116.00928a46.76982,46.76982,0,0,1-12.56494,32.09179,46.77158,46.77158,0,0,1-12.56494-32.09179A47.25264,47.25264,0,0,1,50.5957,99.09033ZM36.43017,93.46289a39.70732,39.70732,0,0,1,6.98023,5.11237,54.32222,54.32222,0,0,0-2.47559,10.71838,46.90025,46.90025,0,0,0-7.69336-3.71857A40.13827,40.13827,0,0,1,36.43017,93.46289Zm-.19189,68.15625a25.68055,25.68055,0,0,1,3.78247-9.88428,46.03587,46.03587,0,0,0,7.56494,2.95472,32.75541,32.75541,0,0,0,.5503,3.25744A25.59867,25.59867,0,0,1,36.23828,161.61914Zm4.49048-17.4505c-.05872-.03381-.116-.06976-.176-.09985a39.99728,39.99728,0,0,1-9.35937-7.68354A39.38282,39.38282,0,0,1,20.99853,109.794a39.95109,39.95109,0,0,1,19.53455,7.66986A54.5,54.5,0,0,0,51.2876,148.4353,39.16707,39.16707,0,0,1,40.72876,144.16864Zm19.3313,22.78546a25.36773,25.36773,0,0,1-5.13452-10.74658,48.264,48.264,0,0,0,4.89868.356c.02539.00048.05029.001.07568.001.03418,0,.0669-.00885.10095-.00982.0199.0003.03943.00543.05921.00543s.03955-.00513.05932-.00549c.03382.001.06543.00988.09937.00988.02539,0,.05127-.00049.07715-.001a48.26421,48.26421,0,0,0,4.89868-.356A25.368,25.368,0,0,1,60.06006,166.9541Zm-24.85987,43.624a6.50753,6.50753,0,0,1,6.5-6.5H58.59033a2.5001,2.5001,0,0,1,2.39453,3.21924l-3.395,11.29737a2.48482,2.48482,0,0,1-2.394,1.78076H35.20019Zm0,16.79737H55.1958a9.44274,9.44274,0,0,0,9.09814-6.76611l2.59571-8.6377h1.60888a6.50753,6.50753,0,0,1,6.5,6.5v13.91553A11.44851,11.44851,0,0,1,66.915,243.36816l-8.28369,2.57715a3.49976,3.49976,0,1,0,2.0791,6.6836l2.71338-.84412-.02759,20.74011H36.47241l3.75452-22.22766c.02649.01.05163.02252.07824.03235l1.49317.55029a3.5,3.5,0,0,0,2.41894-6.56884l-1.49267-.54981a11.54353,11.54353,0,0,1-7.52442-10.791Zm.34913,52.14941H63.38684l-.02429,18.19483H32.41846Zm-4.07325,90.90674a26.49638,26.49638,0,0,1-7.59472-23.36426l7.15307-42.34765H63.35327l-.03345,25.01172a13.567,13.567,0,0,0,4.063,9.68554l11.68091,11.42359L55.94849,394.35822Zm29.689,29.02673,23.11474-43.51654,8.89148,8.69556-23.1112,43.51746Zm87.977,66.381v14H100.23v-14ZM93.23,425.53418v5.27374L75.27734,413.25574,98.38806,369.7392l12.38171,12.10907A63.69707,63.69707,0,0,0,93.23,425.53418ZM281.13916,50.9248a30.52963,30.52963,0,0,0,3.36816-19.089,109.58885,109.58885,0,0,1,80.8125,105.75849A108.82815,108.82815,0,0,1,329.2,218.92358l5.56274-44.11157a71.74191,71.74191,0,0,0,.07862-17.25818,81.5696,81.5696,0,0,0-38.84107-90.90234A18.034,18.034,0,0,0,280.99487,51.191Zm16.65576,296.56275a74.19962,74.19962,0,0,1-83.94165-.2049,23.60285,23.60285,0,0,0,8.06665-17.66839v-7.48169a70.02642,70.02642,0,0,0,32.08789,7.70874h1.70361A71.24858,71.24858,0,0,0,289.5,321.40515v8.20911A23.61684,23.61684,0,0,0,297.79492,347.48755Zm-6.77466-35.13666a64.15857,64.15857,0,0,1-35.30884,10.49042h-1.70361a62.83781,62.83781,0,0,1-58.04541-38.31568c-.00488-.01232-.0061-.02508-.01123-.03735-.00818-.01965-.02124-.03558-.02978-.055a62.37136,62.37136,0,0,1-4.82911-24.16767l.00049-26.17a3.50248,3.50248,0,0,0,0-.652v-.47052A36.7797,36.7797,0,0,1,206.46338,203.103l.49219-.35157a44.594,44.594,0,0,1,25.97753-8.34472,45.07771,45.07771,0,0,1,6.023.40478l16.28711,2.19336a3.48089,3.48089,0,0,0,.93457,0l16.28711-2.19336a44.61231,44.61231,0,0,1,32.00049,7.93946l.49317.352a36.77786,36.77786,0,0,1,15.36962,29.86963l.001,25.2456a64.46007,64.46007,0,0,1-5.36816,25.83014c-.00782.01611-.01929.029-.02686.04535-.0105.02271-.01391.04657-.02392.06934a64.56628,64.56628,0,0,1-13.50684,19.75,65.22,65.22,0,0,1-10.3125,8.39312C291.06738,312.32147,291.04321,312.33508,291.02026,312.35089ZM309.023,197.40381l-.48926-.34912a51.58866,51.58866,0,0,0-37.00293-9.18067l-15.82031,2.13037L239.89014,187.874a51.59985,51.59985,0,0,0-37.00342,9.18164l-.49219.35157a43.69213,43.69213,0,0,0-13.781,16.26684l-5.011-39.73706a64.71814,64.71814,0,0,1-.01428-16.06488c.00378-.0246.00525-.04932.00842-.074a64.28873,64.28873,0,0,1,29.19971-46.22352,17.92231,17.92231,0,0,0,11.79834,4.43274h62.23193a17.92152,17.92152,0,0,0,11.79761-4.43225,64.28817,64.28817,0,0,1,29.199,46.22266c.00318.0249.00464.04987.00855.07458a64.71909,64.71909,0,0,1-.01441,16.06421l-5.01074,39.73505A43.7039,43.7039,0,0,0,309.023,197.40381ZM184.09253,250.83008l-.00012,2.1543h-1.85218a9.63628,9.63628,0,0,1-9.58984-8.80713l-.00488-.06495c-.02588-.89843-.20313-6.98632-.4878-14.37011a9.64574,9.64574,0,0,1,3.26538-7.57117q3.85987,3.65241,8.0879,6.99207l.57885,4.58972V250.8042C184.08984,250.81305,184.09241,250.82123,184.09253,250.83008Zm-8.73316,7.65765a16.58469,16.58469,0,0,0,6.88086,1.49665h1.852v.28124a69.551,69.551,0,0,0,3.97315,23.25788,14.97585,14.97585,0,0,1-2.35547.20111,14.73478,14.73478,0,0,1-10.35059-25.23688ZM291.7959,80.68835a18.06424,18.06424,0,0,0,3.51257-6.30419,74.60423,74.60423,0,0,1,35.01135,63.21008c0,.62427-.01428,1.2478-.02978,1.87115a71.24386,71.24386,0,0,0-27.36328-33.43683A17.95462,17.95462,0,0,0,291.7959,80.68835Zm6.04638,17.30286a11.02828,11.02828,0,0,1-11.01562,11.01611H224.59473a11.01587,11.01587,0,1,1,0-22.03173h62.23193A11.02786,11.02786,0,0,1,297.84228,97.99121Zm-91.26367,0a17.87886,17.87886,0,0,0,1.91529,8.03681,71.24433,71.24433,0,0,0-27.364,33.43743c-.0155-.62341-.02978-1.24688-.02978-1.87121a74.57445,74.57445,0,0,1,35.01342-63.20807,18.06667,18.06667,0,0,0,3.51185,6.30218A18.03611,18.03611,0,0,0,206.57861,97.99121ZM335.95007,222.215a9.93364,9.93364,0,0,1,3.38245,7.79675c-.27637,7.28711-.45117,13.186-.47754,14.0918a9.85567,9.85567,0,0,1-4.14734,7.08593c-.08069.0467-.15466.10492-.23181.15839a9.86381,9.86381,0,0,1-5.45581,1.63654h-1.69116l-.00074-19.36744c.01246-.067.03528-.12951.04395-.198l.53662-4.2558Q332.10968,225.8471,335.95007,222.215Zm-8.66394,37.76941H329.02a16.91957,16.91957,0,0,0,7.0199-1.52625A14.73538,14.73538,0,0,1,322.769,283.4234,71.4884,71.4884,0,0,0,327.28613,259.98438ZM236.436,25.06738a23.47,23.47,0,0,1,6.55274-7.61084l12.72168-9.58935,12.72265,9.58935a23.63313,23.63313,0,0,1,6.55176,30.13282L273.167,50.94385H238.25452l-1.81849-3.355A23.55282,23.55282,0,0,1,236.436,25.06738Zm38.80811,32.87647.00391.00049.00732-.00049h2.894a11.01587,11.01587,0,1,1,0,22.03174H233.27148a11.01587,11.01587,0,0,1,0-22.03174Zm-129.144,79.65039A109.58869,109.58869,0,0,1,226.91394,31.83545a30.5321,30.5321,0,0,0,3.3678,19.08935l.14428.26618a18.03328,18.03328,0,0,0-15.00537,15.46423,81.56364,81.56364,0,0,0-38.842,90.89868,71.74547,71.74547,0,0,0,.07862,17.25861l5.5625,44.111q-2.12184-1.91317-4.1283-3.92108l-.00378-.00372A108.79073,108.79073,0,0,1,146.1001,137.59424Zm22.86084,218.0224-29.14014,8.69311,29.51294-81.04895a21.58651,21.58651,0,0,0,21.45264,6.84619,69.48419,69.48419,0,0,0,13.73022,19.36078,70.26268,70.26268,0,0,0,10.40332,8.5448v11.60169a16.5815,16.5815,0,0,1-11.78027,15.80615l-34.15076,10.18787Zm78.99048,117.03515-34.73609-19.20941a76.87307,76.87307,0,0,1-39.63525-67.228V361.54364l.49756-.14844a111.68725,111.68725,0,0,0,8.28857,8.11286,3.4774,3.4774,0,0,0-1.14648,2.78344c.001.01758.0083.13282.00976.14991a3.49771,3.49771,0,0,0,3.48584,3.2373c.08692,0,.17432-.00342.26221-.00976a3.49158,3.49158,0,0,0,2.74963-1.71051,111.62618,111.62618,0,0,0,15.203,9.93218v2.32374a47.50256,47.50256,0,0,0,24.49561,41.54248l26.58984,14.71a3.50058,3.50058,0,0,0,3.38916,0l12.37635-6.84894ZM184.71338,372.083l.62121-.03705.00928.00781Zm92.06689,51.66076-21.0708,11.66053-24.894-13.772a40.48633,40.48633,0,0,1-20.845-34.23053,111.188,111.188,0,0,0,32.44116,9.15,17.49776,17.49776,0,1,0,26.65405.06213,111.53522,111.53522,0,0,0,27.85962-7.046Zm-31.56933-15.84729A10.49951,10.49951,0,1,1,255.71045,418.396,10.51127,10.51127,0,0,1,245.21094,407.89648Zm64.71923-40.39111-6.84753,11.61682a104.1277,104.1277,0,0,1-121.48743-19.96966l23.542-7.02314a22.99151,22.99151,0,0,0,2.30285-.8366,81.18585,81.18585,0,0,0,96.87073.1452c.64258.25641,1.29688.49072,1.968.69043l14.32666,4.275A33.29406,33.29406,0,0,0,309.93017,367.50537Zm42.07911-13.76953a33.37931,33.37931,0,0,0-21.439-1.66431l-22.29248-6.65161A16.58636,16.58636,0,0,1,296.5,329.61426V317.0885a71.81662,71.81662,0,0,0,23.43542-27.13812,21.76128,21.76128,0,0,0,22.14856-6.67829l28.58863,78.47907ZM479.7832,297.71973H448.63745l-.02429-18.19483H476.71Zm-28.37988-92.6333a2.4768,2.4768,0,0,1,2.00635-1.00831H470.2998a6.50753,6.50753,0,0,1,6.5,6.5v9.79737H456.8042a2.48482,2.48482,0,0,1-2.394-1.78076l-3.395-11.29688A2.47671,2.47671,0,0,1,451.40332,205.08643Zm-14.40186,27.30078V218.47168a6.50753,6.50753,0,0,1,6.5-6.5h1.60889l2.5957,8.6377a9.44276,9.44276,0,0,0,9.09815,6.76611h19.9956v5.59472a11.54264,11.54264,0,0,1-7.52392,10.79053l-1.49317.5503a3.5,3.5,0,1,0,2.41895,6.56884l1.49365-.55029c.02649-.00977.05139-.02228.07788-.03217l3.7544,22.22748H448.60376l-.02759-20.74017,2.71338.84418a3.49976,3.49976,0,1,0,2.0791-6.6836l-8.2832-2.57715A11.44835,11.44835,0,0,1,437.00146,232.38721Zm-18.23022,198.4284.00171-6.55047a63.42074,63.42074,0,0,0-16.84717-43.10157l11.68506-11.42651,23.114,43.52283Zm23.17065-22.6571-23.11413-43.52295,8.89172-8.69507,23.11694,43.52069Zm38.58155-37.72638-24.47071,23.9284-23.11694-43.521,11.68286-11.4245a13.55921,13.55921,0,0,0,4.06152-9.67578l-.03344-25.01953h32.31885l7.15307,42.34814A26.49622,26.49622,0,0,1,480.52344,370.43213ZM348.38476,122.27637a3.5,3.5,0,0,0,6.91016-1.11817l-.01758-.10644a3.4615,3.4615,0,0,0-4.0083-2.83838A3.54348,3.54348,0,0,0,348.38476,122.27637ZM233.9956,446.4458c-.01367-.00732-.11523-.05859-.1289-.06543a3.45742,3.45742,0,0,0-4.6416,1.56641,3.5424,3.5424,0,0,0,1.55761,4.71777,3.49984,3.49984,0,1,0,3.21289-6.21875ZM314.1709,400.001a3.49891,3.49891,0,0,0,3.01806-1.72217l.05127-.08692a3.50007,3.50007,0,0,0-6.02929-3.55664l-.05127.08692a3.50072,3.50072,0,0,0,3.01123,5.27881Zm-8.27344,13.98095a3.49783,3.49783,0,0,0,3.01367-1.71484l.05127-.08643a3.5,3.5,0,0,0-6.02051-3.57128l-.05127.08642a3.50074,3.50074,0,0,0,3.00684,5.28613ZM322.44434,386.02a3.49942,3.49942,0,0,0,3.01074-1.70947l.05176-.08692a3.50025,3.50025,0,1,0-6.01465-3.582l-.05176.08692a3.50061,3.50061,0,0,0,3.00391,5.2915Zm8.27392-13.981a3.4989,3.4989,0,0,0,3.01807-1.72217l.05127-.08691a3.50008,3.50008,0,1,0-6.0293-3.55664l-.05127.08691a3.50072,3.50072,0,0,0,3.01123,5.27881Zm-57.915,97.86719a3.49781,3.49781,0,0,0,3.01367-1.71484l.05127-.08643a3.5,3.5,0,1,0-6.0205-3.57129l-.05127.08643a3.50074,3.50074,0,0,0,3.00683,5.28613Zm-10.04834,13.49561a3.499,3.499,0,0,0,4.793-1.23633l.05127-.08692a3.50008,3.50008,0,0,0-6.0293-3.55664l-.05127.08692A3.50011,3.50011,0,0,0,262.75488,483.40186Zm18.32178-27.47657a3.49891,3.49891,0,0,0,3.01807-1.72217l.05127-.08691a3.50008,3.50008,0,0,0-6.0293-3.55664l-.05127.08691a3.50072,3.50072,0,0,0,3.01123,5.27881ZM297.624,427.96338a3.4989,3.4989,0,0,0,3.01807-1.72217l.05127-.08691a3.50008,3.50008,0,1,0-6.0293-3.55664l-.05127.08691a3.50072,3.50072,0,0,0,3.01123,5.27881Zm-8.27392,13.981a3.49943,3.49943,0,0,0,3.01074-1.70948l.05176-.08691a3.50025,3.50025,0,1,0-6.01465-3.582l-.05176.08691a3.50063,3.50063,0,0,0,3.00391,5.29151Zm-99.07569-54.70606-.03027-.14648a3.45639,3.45639,0,0,0-4.11523-2.65479,3.543,3.543,0,0,0-2.72266,4.15381,3.5,3.5,0,1,0,6.86816-1.35254Zm113.73926-330.166a3.49988,3.49988,0,0,0,3.69141-5.94727l-.146-.08838a3.5,3.5,0,0,0-3.54541,6.03565Zm-76.6333,178.53759a16.06452,16.06452,0,0,1-9.1084,2.63965,15.81008,15.81008,0,0,1-8.36279-2.63867,3.49979,3.49979,0,1,0-3.86914,5.833,22.79716,22.79716,0,0,0,12.06738,3.80371c.17822.00439.35449.00635.53027.00635a23.11,23.11,0,0,0,12.60987-3.80909,3.50007,3.50007,0,0,0-3.86719-5.835Zm28.3302-14.46588a3.5,3.5,0,1,0-3.5-3.5A3.5,3.5,0,0,0,255.71057,221.144Zm11.65222,68.26911a21.33587,21.33587,0,0,1-12.14844,3.5205,21.076,21.076,0,0,1-11.15429-3.51953,3.50007,3.50007,0,0,0-3.87012,5.833,28.06953,28.06953,0,0,0,14.85938,4.68457c.21923.00537.436.00781.65185.00781a28.45708,28.45708,0,0,0,15.52881-4.6914,3.50007,3.50007,0,1,0-3.86719-5.835Zm39.00147-52.81885a3.49879,3.49879,0,0,0-4.85059-.98438,15.755,15.755,0,0,1-17.47119.001,3.50007,3.50007,0,0,0-3.87012,5.833,22.7926,22.7926,0,0,0,12.06739,3.80371q.26733.00659.53027.00635a23.11179,23.11179,0,0,0,12.60986-3.80909A3.49948,3.49948,0,0,0,306.36426,236.59424Zm36.57129-133.83545a3.50006,3.50006,0,0,0,6.48535-2.63477l-3.27979,1.22461,3.25342-1.291a3.50021,3.50021,0,1,0-6.50684,2.582C342.8916,102.64844,342.93213,102.75,342.93555,102.75879Zm-4.12842,78.58935-.05811.10938a3.5002,3.5002,0,1,0,6.19922,3.252l.03565-.06738a3.50009,3.50009,0,0,0-6.17676-3.29395ZM322.61767,70.34619a3.5,3.5,0,0,0,2.42334-6.02588l-.09863-.09326a3.47206,3.47206,0,0,0-4.92383.17529,3.52838,3.52838,0,0,0,.17676,4.96973A3.48777,3.48777,0,0,0,322.61767,70.34619Zm-163.6372,55.03125a3.4954,3.4954,0,0,0,4.02051-2.88672l.01757-.10644a3.5,3.5,0,0,0-6.91015-1.11817l3.439.65772-3.45361-.5669A3.49932,3.49932,0,0,0,158.98047,125.37744ZM333.38428,84.84717a3.50017,3.50017,0,1,0,5.77734-3.95313l-2.94482,1.894,2.896-1.96534a3.4999,3.4999,0,1,0-5.792,3.93067ZM188.68652,70.42432a3.57011,3.57011,0,0,0,2.44776-.96631,3.49993,3.49993,0,0,0-4.79395-5.10059l-.09814.09326a3.483,3.483,0,0,0,2.44433,5.97364ZM173.10644,85.93018a3.46582,3.46582,0,0,0,1.92969.58447,3.5284,3.5284,0,1,0-2.812-5.56738l-.09619.1416A3.48722,3.48722,0,0,0,173.10644,85.93018ZM163.90039,104.874a3.45988,3.45988,0,0,0,1.2627.23877,3.53341,3.53341,0,1,0-3.19385-4.91162l-.062.15528A3.48545,3.48545,0,0,0,163.90039,104.874Zm41.499-47.1748a3.48242,3.48242,0,0,0,1.80469-.50391c.00537-.00293.0957-.05761.10059-.06054a3.50016,3.50016,0,0,0-3.64649-5.97559l1.7378,3.03955-1.80811-2.99658a3.50032,3.50032,0,0,0,1.81152,6.49707Zm92.311,95.791a10.5,10.5,0,1,0,10.5,10.5A10.51211,10.51211,0,0,0,297.71045,153.49023Zm0,14a3.5,3.5,0,1,1,3.5-3.5A3.50424,3.50424,0,0,1,297.71045,167.49023Zm-42-26.66552a15.97437,15.97437,0,1,0,15.97461,15.97412A15.99228,15.99228,0,0,0,255.71045,140.82471Zm0,24.94873a8.97437,8.97437,0,1,1,8.97461-8.97461A8.98452,8.98452,0,0,1,255.71045,165.77344Zm0-121.69776a11.12524,11.12524,0,1,0-11.125-11.12548A11.1379,11.1379,0,0,0,255.71045,44.07568Zm0-15.25048a4.12524,4.12524,0,1,1-4.125,4.125A4.12993,4.12993,0,0,1,255.71045,28.8252Zm-42,124.665a10.5,10.5,0,1,0,10.5,10.5A10.51211,10.51211,0,0,0,213.71045,153.49023Zm0,14a3.5,3.5,0,1,1,3.5-3.5A3.50424,3.50424,0,0,1,213.71045,167.49023Z"/></svg>