<svg xmlns="http://www.w3.org/2000/svg" data-name="Layer 1" viewBox="0 0 512 512"><rect width="13.412" height="45.76" x="464.995" y="178.509" fill="#baafb9" transform="rotate(-20.982 471.7 201.39)"/><path fill="#e5e1e5" d="M385.71791,104.56672a1.99628,1.99628,0,0,1-.38547-3.922c33.86364-8.56345,66.46214,3.17133,80.30376,26.40408,12.37359,20.76873,5.99842,44.41537,4.13338,50.57609l-12.52282,4.80244c.62344-8.37869.60854-25.477-9.41529-42.26855C435.42452,119.37519,412.11312,106.48123,385.71791,104.56672Z"/><path fill="#baafb9" d="M23.53613,236.73239a6.77781,6.77781,0,0,1-2.48089-9.259l26.85842-46.51947a46.88421,46.88421,0,1,1,69.66855-13.34774,6.77808,6.77808,0,1,1-11.73993-6.77815,33.32611,33.32611,0,1,0-45.52471,12.198,6.7778,6.7778,0,0,1,2.48089,9.259L32.79518,234.2515A6.77782,6.77782,0,0,1,23.53613,236.73239Z"/><path fill="#8ac9fe" d="M438.17468,283.1439l-41.83186,78.4394a10,10,0,0,1-4.00112,4.05466l-67.74738,37.29472,32.39786,60.49941,73.21391-61.63163a30,30,0,0,0,10.06569-16.91079l22.29033-88.371Z"/><path fill="#26a6fe" d="M438.1748,283.14392l-3.16821,5.94049,13.55542,7.43427-22.29028,88.371a29.99875,29.99875,0,0,1-10.06568,16.91083l-63.564,53.5083,4.3501,8.12329,73.21386-61.63159a29.99875,29.99875,0,0,0,10.06568-16.91083l22.29028-88.371Z"/><path fill="#26a6fe" d="M438.1748,290.14392l5.57593,5.98834,6.21045,7.00287a7.29186,7.29186,0,0,0,7.86792,2.043l1.78858-.62707c.3457-.12122.68066-.26545,1.01953-.40113l1.9248-7.63122-22.26758-12.21216Z"/><path fill="#8ac9fe" d="M459.61761,297.551h0a25.26838,25.26838,0,0,0,11.98087-8.854h0a25.26845,25.26845,0,0,1,6.82125-6.356l25.42932-16.10464a10,10,0,0,0,3.23345-13.57838l-17.79623-29.77713a9.13355,9.13355,0,0,0-12.47667-3.34312L459.498,229.5326a7.4358,7.4358,0,0,0-3.27128,3.90144L438.17468,283.1439l-4.7854,8.97314,13.488,5.22689A18.406,18.406,0,0,0,459.61761,297.551Z"/><path fill="#26a6fe" d="M502.49536,259.22137l-17.79907-29.7821a9.128,9.128,0,0,0-12.469-3.341,11.92228,11.92228,0,0,0-4.36376,16.286L484.36865,270.075a9.93376,9.93376,0,0,0,6.20239,4.57044l13.12842-8.31433A9.9468,9.9468,0,0,0,502.49536,259.22137Z"/><path fill="#8ac9fe" d="M502.896,266.84l.95308-.60359a10,10,0,0,0,3.23345-13.57836l-17.7991-29.78209a9.12785,9.12785,0,0,0-12.46888-3.341h0a11.92217,11.92217,0,0,0-4.36382,16.286l16.505,27.69076A10,10,0,0,0,502.896,266.84Z"/><path fill="#8ac9fe" d="M473.75342,240.30042a13.03374,13.03374,0,0,0,4.77051-17.80457l-1.70923-2.96063-.00513.00256-17.31152,9.99481a7.43562,7.43562,0,0,0-3.27124,3.90143l-8.11866,22.35632Z"/><path fill="#26a6fe" d="M465.71732,242.76321a1.80956,1.80956,0,0,0,2.59375.82443l5.44235-3.28722a13.03374,13.03374,0,0,0,4.77051-17.80457l-1.70654-2.956-.00782-.0021-5.24853,3.03034a13.03132,13.03132,0,0,1-4.80762,17.7323l-.31349.18934a1.80955,1.80955,0,0,0-.72261,2.27345Z"/><polygon fill="#fee903" points="456.278 321.432 447.987 354.303 413.355 329.683 428.346 301.574 456.278 321.432"/><polygon fill="#fac600" points="447.987 354.303 456.278 321.432 444.407 312.992 436.115 345.864 447.987 354.303"/><path fill="#8ac9fe" d="M73.80439,283.1081l41.83186,78.43941a10,10,0,0,0,4.00112,4.05466l67.74738,37.29472L154.98689,463.3963,81.773,401.76467a30,30,0,0,1-10.06569-16.91079L49.417,296.4829Z"/><path fill="#26a6fe" d="M73.80427,283.10813l3.16821,5.94049-13.55542,7.43426,22.29028,88.371A29.99872,29.99872,0,0,0,95.773,401.76468l63.564,53.5083-4.3501,8.1233L81.773,401.76468a29.99872,29.99872,0,0,1-10.06568-16.91082l-22.29028-88.371Z"/><path fill="#26a6fe" d="M73.80427,290.10813l-5.57593,5.98834-6.21045,7.00287a7.29186,7.29186,0,0,1-7.86792,2.043l-1.78858-.62708c-.3457-.12121-.68066-.26544-1.01953-.40112l-1.9248-7.63123,22.26758-12.21215Z"/><path fill="#8ac9fe" d="M52.36146,297.51521h0a25.26829,25.26829,0,0,1-11.98087-8.85395h0a25.26845,25.26845,0,0,0-6.82125-6.356L8.13,266.2006a10,10,0,0,1-3.23345-13.57838l17.79623-29.77713A9.13355,9.13355,0,0,1,35.16946,219.502L52.481,229.49681a7.43582,7.43582,0,0,1,3.27128,3.90143L73.80439,283.1081l4.7854,8.97315-13.488,5.22689A18.406,18.406,0,0,1,52.36146,297.51521Z"/><path fill="#26a6fe" d="M9.48371,259.18558l17.79907-29.7821a9.128,9.128,0,0,1,12.469-3.341,11.92228,11.92228,0,0,1,4.36376,16.286L27.61042,270.03922a9.93371,9.93371,0,0,1-6.20239,4.57043L8.27961,266.29532A9.94678,9.94678,0,0,1,9.48371,259.18558Z"/><path fill="#8ac9fe" d="M9.08307,266.80418,8.13,266.20059a10,10,0,0,1-3.23345-13.57837l17.7991-29.78208a9.12785,9.12785,0,0,1,12.46888-3.341h0a11.92216,11.92216,0,0,1,4.36382,16.286l-16.505,27.69077A10,10,0,0,1,9.08307,266.80418Z"/><path fill="#8ac9fe" d="M38.22565,240.26462a13.03372,13.03372,0,0,1-4.77051-17.80456l1.70923-2.96064.00513.00257L52.481,229.4968a7.43562,7.43562,0,0,1,3.27124,3.90143l8.11866,22.35632Z"/><path fill="#26a6fe" d="M46.26175,242.72742a1.80955,1.80955,0,0,1-2.59375.82442l-5.44235-3.28722a13.03372,13.03372,0,0,1-4.77051-17.80456l1.70654-2.956.00782-.00209,5.24853,3.03033a13.03131,13.03131,0,0,0,4.80762,17.7323l.31349.18935a1.80955,1.80955,0,0,1,.72261,2.27345Z"/><polygon fill="#fee903" points="55.701 321.396 63.992 354.267 98.624 329.647 83.633 301.539 55.701 321.396"/><polygon fill="#fac600" points="63.992 354.267 55.701 321.396 67.572 312.956 75.864 345.828 63.992 354.267"/><path fill="#fee903" d="M256,24.5A113.11313,113.11313,0,1,0,369.11328,137.6131,113.113,113.113,0,0,0,256,24.5Zm0,191.22607a78.113,78.113,0,1,1,78.11328-78.11279A78.20137,78.20137,0,0,1,256,215.72607Z"/><path fill="#fac600" d="M315.90625,187.67285A78.08285,78.08285,0,0,1,178.73877,126.1239a67.90661,67.90661,0,0,0-12.32056,48.264l4.80542,38.09863A113.64823,113.64823,0,0,0,197.59961,234.5H310Z"/><path fill="#fac600" d="M249 59.82965c-2.30786-.206-4.6394-.32965-7-.32965a78.113 78.113 0 1 0 0 156.22607c2.3606 0 4.69214-.12359 7-.32965a78.0962 78.0962 0 0 1 0-155.56677zM256 24.5c-2.35156 0-4.68408.08051-7 .22192a113.10767 113.10767 0 0 1 0 225.78241c2.31592.14142 4.64844.22193 7 .22193A113.11313 113.11313 0 1 0 256 24.5z"/><polygon fill="#3c3b42" points="381.5 380.5 130.5 380.5 193.5 207.5 318.5 207.5 381.5 380.5"/><path fill="#2c2c2e" d="M326,294.23535a18.25443,18.25443,0,0,0,18.14771-16.30578l-5.49439-15.08826A18.24917,18.24917,0,1,0,326,294.23535Z"/><path fill="#2c2c2e" d="M368.97705,346.11121l-61.40771-18.31714q-.5912-.17636-1.16452-.38669a4.66851,4.66851,0,0,1-1.61376-7.662,67.86462,67.86462,0,0,0,19.32735-47.51144c-.00049-16.68108-.00073-19.37961-.00073-25.24461a40.21014,40.21014,0,0,0-16.83117-32.71523l-.48984-.35a48.27518,48.27518,0,0,0-34.50932-8.56551L256,207.55176l-16.28735-2.19324a48.275,48.275,0,0,0-34.5,8.55889l-.49058.35038a40.21681,40.21681,0,0,0-16.83978,32.72489c0,6.594-.00048,9.76019-.00073,27.28857a65.67817,65.67817,0,0,0,18.55382,45.84383,4.64208,4.64208,0,0,1-1.93012,7.64656l-.07463.02243L143.023,346.11121,133.04907,373.5H378.95093Z"/><polygon fill="#2c2c2e" points="318.5 207.5 304.5 207.5 367.5 380.5 381.5 380.5 318.5 207.5"/><circle cx="326" cy="268.981" r="18.255" fill="#fee903"/><path fill="#fac600" d="M334.919,253.06183a18.24268,18.24268,0,0,1-24.8379,24.838,18.24928,18.24928,0,1,0,24.8379-24.838Z"/><path fill="#2c2c2e" d="M186,294.23535a18.25452,18.25452,0,1,0-12.65332-31.394l-5.49439,15.08826A18.25443,18.25443,0,0,0,186,294.23535Z"/><circle cx="186" cy="268.981" r="18.255" fill="#fee903"/><path fill="#fff" d="M249.35352 237.02979q-.104 0-.208-.00586c-.01758-.001-.13379-.00928-.15137-.01026a3.50016 3.50016 0 0 1 .51367-6.98144L249.251 233.523l.30566-3.48731a3.50017 3.50017 0 0 1-.20312 6.99415zM270.28223 236.20215a3.50029 3.50029 0 0 1-.50489-6.96338l.50879 3.46289-.42578-3.4751a3.5 3.5 0 1 1 1.04883 6.9209c-.00488.001-.1084.01611-.11426.01709A3.513 3.513 0 0 1 270.28223 236.20215zM228.63379 233.30566a3.50555 3.50555 0 0 1-1.04492-.16015 3.544 3.544 0 0 1-2.35645-4.36133 3.46427 3.46427 0 0 1 4.27246-2.37109c.02539.00732.14649.043.17188.05078a3.50064 3.50064 0 0 1-1.043 6.84179zM290.68652 230.80713a3.4957 3.4957 0 0 1-1.31347-6.74365l.13867-.05323a3.50046 3.50046 0 1 1 1.1748 6.79688zM209.22754 225.13379a3.47982 3.47982 0 0 1-1.7666-.481 3.54244 3.54244 0 0 1-1.31739-4.77246 3.45831 3.45831 0 0 1 4.68653-1.36279c.02832.01562.14258.08008.1709.09619a3.50054 3.50054 0 0 1-1.77344 6.52zM309.37988 221.07227a3.48523 3.48523 0 0 1-2.01269-6.34913c.01562-.01074.11426-.07714.12988-.0874a3.5 3.5 0 0 1 3.83594 5.85547A3.558 3.558 0 0 1 309.37988 221.07227zM192.0791 212.93018a3.4896 3.4896 0 0 1-2.31836-.87842c-.00683-.00684-.08886-.07959-.09668-.08643a3.50031 3.50031 0 0 1 4.6836-5.20312l-2.3418 2.60156 2.39355-2.55518a3.50045 3.50045 0 0 1-2.32031 6.12159zM234.97266 47.27637a3.50042 3.50042 0 0 1-.70215-6.92871 3.54077 3.54077 0 0 1 4.17578 2.67675 3.45723 3.45723 0 0 1-2.59668 4.14307c-.02246.00537-.14356.03174-.167.03662A3.53187 3.53187 0 0 1 234.97266 47.27637zM269.45508 45.90527a3.50958 3.50958 0 0 1-.46-.03076c-.02246-.00293-.14258-.01953-.16407-.023a3.5 3.5 0 1 1 1.04883-6.9209 3.543 3.543 0 0 1 2.99024 3.959A3.46513 3.46513 0 0 1 269.45508 45.90527zM256 44.9707h-.09961a3.5 3.5 0 0 1 0-7 3.543 3.543 0 0 1 3.54981 3.5A3.458 3.458 0 0 1 256 44.9707z"/><path fill="#fee903" d="M324,234.5H188l-7.5817-60.11207a67.9738,67.9738,0,0,1,40.75536-71.023L256,88.5l34.82634,14.8649a67.9738,67.9738,0,0,1,40.75536,71.023Z"/><path fill="#fac600" d="M290.82642,103.36493,256,88.5l-7,2.98779,27.82642,11.87714a67.974,67.974,0,0,1,40.75537,71.023L310,234.5h14l7.58179-60.11206A67.974,67.974,0,0,0,290.82642,103.36493Z"/><path fill="#26a6fe" d="M84.74146,404.26355l70.24536,59.13275,32.398-60.49939-67.74732-37.29474a9.97286,9.97286,0,0,1-1.95068-1.4339A60.02593,60.02593,0,0,0,84.74146,404.26355Z"/><path fill="#8ac9fe" d="M414.98363,502V425.54959a60,60,0,0,0-42.8494-57.49658l-64.56475-19.259a20,20,0,0,1-14.28313-19.16553V310.02624h-74.5727v19.60228a20,20,0,0,1-14.28313,19.16553l-64.56475,19.259a60,60,0,0,0-42.8494,57.49658V502a10,10,0,0,0,10,10H404.98363A10,10,0,0,0,414.98363,502Z"/><path fill="#26a6fe" d="M372.1341,368.05293l-26.2674-7.83522-33.77246-10.074v.00006l-4.5249-1.34973a19.99977,19.99977,0,0,1-14.283-19.16531V310.02625H218.71362v7h60.57276V336.629a19.99948,19.99948,0,0,0,14.283,19.16508l6.10888,1.82214a96.96764,96.96764,0,0,1-99.67163-7.50256l-42.14477,12.57129a134.57132,134.57132,0,0,0,67.72871,39.22034A16.51026,16.51026,0,0,1,238.3418,417.9964v.03037a27.311,27.311,0,0,0,8.10547,19.4175L256,446.89276l9.55325-9.449a27.30935,27.30935,0,0,0,8.105-19.41628v0a16.5202,16.5202,0,0,1,12.7838-16.09879,133.96892,133.96892,0,0,0,53.70582-26.17229,13.44926,13.44926,0,0,1,12.27264-2.40778l5.71373,1.70434a60,60,0,0,1,42.84945,57.49661V509a9.99115,9.99115,0,0,1-.45923,3h4.45923a10,10,0,0,0,10-10V425.54956A60,60,0,0,0,372.1341,368.05293Z"/><path fill="#fee903" d="M336.73,357.48657l-29.36792-8.76013a19.9945,19.9945,0,0,1-3.41113-1.38245,77.7622,77.7622,0,0,1-96.00513-.16766,19.97362,19.97362,0,0,1-3.72266,1.55011L175.27,357.36285a107.9493,107.9493,0,0,0,56.25679,33.66141,13.28974,13.28974,0,0,1,10.31853,12.92117v.02494a21.89143,21.89143,0,0,0,6.49713,15.56441L256,427.10864l7.65753-7.57386a21.89144,21.89144,0,0,0,6.49713-15.56441v0a13.29091,13.29091,0,0,1,10.33262-12.92448A107.94457,107.94457,0,0,0,336.73,357.48657Z"/><path fill="#fac600" d="M336.72583,357.49109h0l.00415-.00452-5.198-1.55053-.00464.00439-23.958-7.14636c-.04371-.01306-.085-.03083-.12842-.04413l-.07886-.0235c-.12768-.03809-.24731-.09119-.37378-.1319-.36548-.12127-.73071-.24231-1.08545-.383-.46533-.1814-.91748-.3841-1.364-.59687l-.02124-.0097c-.18726-.08948-.38233-.16644-.56665-.26093a78.14116,78.14116,0,0,1-12.18408,7.808c.5874.23822,1.18554.45807,1.80249.64209L316.58718,362.66a2.79692,2.79692,0,0,1,.76836,4.9895,107.19787,107.19787,0,0,1-36.99178,16.425,13.22047,13.22047,0,0,0-10.209,12.89537v0a21.89228,21.89228,0,0,1-6.49732,15.56492L256,420.10864l-7.65747-7.57385a21.89228,21.89228,0,0,1-6.49732-15.56492v-.02444a13.179,13.179,0,0,0-10.12211-12.87557A107.77724,107.77724,0,0,1,180.45557,355.816L175.27,357.36285a107.9487,107.9487,0,0,0,56.25658,33.66132,13.28982,13.28982,0,0,1,10.31861,12.92126v.02444a21.89228,21.89228,0,0,0,6.49732,15.56492L256,427.10864l7.65782-7.5742a21.89113,21.89113,0,0,0,6.497-15.56408v0a13.30334,13.30334,0,0,1,10.35384-12.92947,107.68265,107.68265,0,0,0,47.665-24.93674q1.27662-1.15054,2.51343-2.34351c.31787-.305.62988-.61523.94385-.92407q.90089-.88549,1.78125-1.79157c.27954-.2879.55981-.57464.83618-.86566C335.0874,359.29584,335.917,358.40289,336.72583,357.49109Z"/><path fill="#26a6fe" d="M342.63628 244.34186v-.00012s.18014-6.27571.48-14.18463a13.38662 13.38662 0 0 0-13.37237-13.8954H317.11766v40.23822h12.1938a13.3808 13.3808 0 0 0 13.32481-12.15807zM194.88243 216.26172H182.06971a13.13253 13.13253 0 0 0-13.11929 13.63234c.30587 8.03237.49 14.44768.49 14.44768v.00012l.01116.12154a13.1702 13.1702 0 0 0 13.08256 12.03654h12.3483z"/><path fill="#26a6fe" fill-rule="evenodd" d="M218.71362,310.02625v19.60229a19.95241,19.95241,0,0,1-1.66113,7.97125,66.34167,66.34167,0,0,0,44.24463,16.75708h1.70361a67.77119,67.77119,0,0,0,36.26612-10.46832,19.98722,19.98722,0,0,1-5.98047-14.26V310.02625Z"/><path fill="#8ac9fe" fill-rule="evenodd" d="M256.00067,326.35688h-1.70358a66.14747,66.14747,0,0,1-66.41549-66.0756c.00039-17.53191.00059-20.69581.0007-27.29249a40.21034,40.21034,0,0,1,16.83557-32.71794l.49285-.352a48.27531,48.27531,0,0,1,34.50194-8.56027L256,193.55175l16.28734-2.19321a48.27426,48.27426,0,0,1,34.50159,8.56l.49291.35208a40.20931,40.20931,0,0,1,16.83586,32.71713c.00011,5.86606.0003,8.56361.00065,25.2461A68.121,68.121,0,0,1,256.00067,326.35688Z"/><path fill="#26a6fe" fill-rule="evenodd" d="M324.11768,232.98779a40.209,40.209,0,0,0-16.83594-32.71716l-.49268-.35205a48.275,48.275,0,0,0-34.50171-8.56006l-.58545.07886a48.26722,48.26722,0,0,1,21.08716,8.4812l.49268.35205a40.209,40.209,0,0,1,16.83594,32.71716c0,5.866.00024,8.5636.00073,25.2461a68.118,68.118,0,0,1-61.96192,67.83276c2.02271.18329,4.06812.29022,6.14063.29022h1.70361a68.1211,68.1211,0,0,0,68.11768-68.123C324.11792,241.55139,324.11768,238.85382,324.11768,232.98779Z"/><path fill="#26a6fe" fill-rule="evenodd" d="M187.88232,246.98877a40.21063,40.21063,0,0,1,16.83545-32.7179l.49292-.352a48.27545,48.27545,0,0,1,34.502-8.5603L256,207.55176l16.28735-2.19324a48.275,48.275,0,0,1,34.50171,8.56006l.49268.35205a40.209,40.209,0,0,1,16.83594,32.71716c0,3.61725,0,6.03394.00024,11.26367l.00049-.01757c-.00049-16.6825-.00073-19.38007-.00073-25.2461a40.209,40.209,0,0,0-16.83594-32.71716l-.49268-.35205a48.275,48.275,0,0,0-34.50171-8.56006L256,193.55176l-16.28735-2.19324a48.27545,48.27545,0,0,0-34.502,8.5603l-.49292.352a40.21063,40.21063,0,0,0-16.83545,32.7179c0,6.59668-.00048,9.76062-.00073,27.29248l.00025.01282C187.88208,254.08862,187.88232,251.2536,187.88232,246.98877Z"/><rect width="55.915" height="21" x="97.016" y="462.355" fill="#fee903"/><rect width="55.915" height="21" x="359.069" y="462.355" fill="#fee903"/><rect width="14" height="21" x="400.984" y="462.355" fill="#fac600"/><path fill="#fac600" d="M271.439,54.45935H226.561a14.51567,14.51567,0,0,0-14.51563,14.51581v.00006A14.491,14.491,0,0,0,212.554,72.732a77.92068,77.92068,0,0,1,72.90991-7.44409A14.50839,14.50839,0,0,0,271.439,54.45935Z"/><path fill="#fee903" d="M233.5611,54.45933H278.4389a14.51583,14.51583,0,0,1,14.51583,14.51583v0A14.51584,14.51584,0,0,1,278.4389,83.491H233.5611A14.51583,14.51583,0,0,1,219.04526,68.9752v0A14.51584,14.51584,0,0,1,233.5611,54.45933Z"/><path fill="#fac600" d="M278.439,54.45935h-1.59863a14.42666,14.42666,0,0,1,2.11426,7.51581v.00006A14.51567,14.51567,0,0,1,264.439,76.491H221.15967a14.49288,14.49288,0,0,0,12.40137,7H278.439a14.51567,14.51567,0,0,0,14.51563-14.51581v-.00006A14.51567,14.51567,0,0,0,278.439,54.45935Z"/><path fill="#fee903" d="M224.884,83.491H287.116A14.51583,14.51583,0,0,1,301.6318,98.00687v0A14.51584,14.51584,0,0,1,287.116,112.52273H224.884A14.51583,14.51583,0,0,1,210.3682,98.0069v0A14.51583,14.51583,0,0,1,224.884,83.491Z"/><path fill="#fac600" d="M287.116 83.491h-1.59864a14.42683 14.42683 0 0 1 2.11451 7.51581v.00006A14.51589 14.51589 0 0 1 273.116 105.52271h-60.6333a14.49256 14.49256 0 0 0 12.40136 7H287.116A14.51589 14.51589 0 0 0 301.63184 98.0069v-.00006A14.51588 14.51588 0 0 0 287.116 83.491zM224.40161 28.97906a27.12289 27.12289 0 0 0 2.24683 20.2934l2.81128 5.18689h39.08056l2.81128-5.18689A27.12215 27.12215 0 0 0 272.438 25.69305a113.74569 113.74569 0 0 0-48.03638 3.286z"/><path fill="#fee903" d="M275.54031,54.45933H236.45969l-2.81131-5.18689a27.1318,27.1318,0,0,1,0-25.85743h0a27.13151,27.13151,0,0,1,7.52267-8.738L256,3.5l14.829,11.177a27.13151,27.13151,0,0,1,7.52267,8.738h0a27.1318,27.1318,0,0,1,0,25.85743Z"/><path fill="#fac600" d="M275.54028,54.45935l2.81128-5.18689a27.13235,27.13235,0,0,0-7.52246-34.5954L256,3.5l-2.35645,1.77612,3.18555,2.40094a27.13235,27.13235,0,0,1,7.52246,34.5954h0a9.90825,9.90825,0,0,1-8.711,5.18688H232.75977c.2749.61176.56616,1.21814.88867,1.81311l2.81128,5.18689"/><circle cx="256" cy="32.966" r="7.625" fill="#22b37f"/><path fill="#02905d" d="M256.61353,25.3717a7.61863,7.61863,0,0,1-5.772,12.599c-.207,0-.4104-.01477-.61352-.03094a7.621,7.621,0,1,0,6.3855-12.56806Z"/><path fill="#fd4755" d="M268,294.40063v26.95625a12,12,0,1,1-24,0V294.29734Z"/><path fill="#fb2b3a" d="M244,294.29736v.03009l17,.07318v26.95624a11.99861,11.99861,0,0,1-8.50342,11.47949A12.00654,12.00654,0,0,0,268,321.35687V294.40063Z"/><path fill="#fd4755" d="M246.4415 156.5851L230.06212 174.654a5.338 5.338 0 0 1-7.90981 0L205.77293 156.5851a5.338 5.338 0 0 1 0-7.1702L222.15231 131.346a5.338 5.338 0 0 1 7.90981 0L246.4415 149.4149A5.338 5.338 0 0 1 246.4415 156.5851zM306.22707 156.5851L289.84769 174.654a5.338 5.338 0 0 1-7.90981 0L265.5585 156.5851a5.338 5.338 0 0 1 0-7.1702L281.93788 131.346a5.338 5.338 0 0 1 7.90981 0l16.37938 18.06893A5.338 5.338 0 0 1 306.22707 156.5851z"/><path fill="#fb2b3a" d="M306.22705 149.41492l-16.37939-18.069a5.3379 5.3379 0 0 0-7.90962-.00006l-3.04522 3.35925 0 0a27.24 27.24 0 0 1 0 36.58968l0 0 3.04522 3.35925a5.3379 5.3379 0 0 0 7.90962-.00006l16.37939-18.069A5.338 5.338 0 0 0 306.22705 149.41492zM246.26793 149.41492l-16.3794-18.069a5.3379 5.3379 0 0 0-7.90962-.00006l-3.04521 3.35925 0 0a27.24 27.24 0 0 1 0 36.58968l0 0 3.04521 3.35925a5.3379 5.3379 0 0 0 7.90962-.00006l16.3794-18.069A5.338 5.338 0 0 0 246.26793 149.41492z"/><path fill="#22b37f" d="M279.95323,157.22315l-19.29446,21.2847a6.288,6.288,0,0,1-9.31754,0l-19.29446-21.2847a6.288,6.288,0,0,1,0-8.4463l19.29446-21.2847a6.288,6.288,0,0,1,9.31754,0l19.29446,21.2847A6.288,6.288,0,0,1,279.95323,157.22315Z"/><path fill="#02905d" d="M279.95312,148.77686l-19.29443-21.28473a6.2879,6.2879,0,0,0-9.31733-.00006L249,130.07489l0,0a34.13419,34.13419,0,0,1,0,45.85018l0,0,2.34136,2.58282a6.2879,6.2879,0,0,0,9.31733-.00006l19.29443-21.28473A6.288,6.288,0,0,0,279.95312,148.77686Z"/><path fill="#26a6fe" d="M282.1521,506.69824v-.57293a3.45594,3.45594,0,0,1,2.448-3.30591,9.01714,9.01714,0,0,0,6.27832-7.15735,44.59448,44.59448,0,1,0-69.75684,0,9.01714,9.01714,0,0,0,6.27832,7.15735,3.45594,3.45594,0,0,1,2.448,3.30591v.57293A14.695,14.695,0,0,0,230.8457,512h50.3086A14.695,14.695,0,0,0,282.1521,506.69824Z"/><circle cx="256" cy="462.004" r="38.707" fill="#f9f7f8"/><path fill="#c9bfc8" d="M275.33643,476.6651c-7.8923,0-15.78454,7-23.67677,7-7.332,0-14.664-7-21.99609-7a12.73824,12.73824,0,0,0-7.3081,4.46918,38.70195,38.70195,0,0,0,49.21,16.30951,12.845,12.845,0,0,0,.13428-1.75544v-.49737a3.0001,3.0001,0,0,1,2.12475-2.86945,7.86485,7.86485,0,0,0,4.06348-12.15216Z"/><path fill="#c9bfc8" d="M289.87109,480.74023a11.52313,11.52313,0,0,0-7.53466-4.07513c-6.75132,0-13.50258,7-20.25384,7-8.473,0-16.946-7-25.419-7l-2.55151,3.50427a7.86485,7.86485,0,0,0,4.06348,12.15216,3.0001,3.0001,0,0,1,2.12475,2.86945v.49737a12.845,12.845,0,0,0,.13428,1.75544,38.709,38.709,0,0,0,49.43652-16.7035Z"/><path fill="#f9f7f8" d="M229.66353,476.66507l-2.55148,3.50423a7.86492,7.86492,0,0,0,4.06348,12.15217h0a3,3,0,0,1,2.12473,2.86948v.49732A12.81173,12.81173,0,0,0,246.112,508.5h19.776a12.81173,12.81173,0,0,0,12.81173-12.81173V495.191a3,3,0,0,1,2.12473-2.86948h0A7.86492,7.86492,0,0,0,284.888,480.1693l-2.55146-3.50421Z"/><circle cx="241.899" cy="465.598" r="6.912" fill="#3c3b42"/><circle cx="268.995" cy="465.598" r="6.912" fill="#3c3b42"/><path d="M306.5995,59.99512l2.001-2.873-1.92968,2.92041a3.50015,3.50015,0,0,0,3.85937-5.84033l-.09473-.0625a3.5,3.5,0,1,0-3.83593,5.85547ZM293.10829,48.814a3.5,3.5,0,0,0-2.04883-4.50634l-.09375-.03516a3.5,3.5,0,1,0-2.457,6.55469l.09375.03515a3.49694,3.49694,0,0,0,4.50586-2.04834Zm58.84179,95.335a3.50756,3.50756,0,0,0-3.82812,3.12353l3.47363.43359-3.47559-.40916a3.49917,3.49917,0,0,0,3.06641,3.88524,3.60351,3.60351,0,0,0,.41309.02441,3.49965,3.49965,0,0,0,3.47168-3.09131l.02148-.20117A3.47783,3.47783,0,0,0,351.95008,144.14893Zm-3.6582,20.72216a3.499,3.499,0,0,0-4.44727,2.17237l-.03808.11035a3.46534,3.46534,0,0,0,2.207,4.398,3.42848,3.42848,0,0,0,1.09961.18164,3.55941,3.55941,0,0,0,3.35058-2.41455A3.4994,3.4994,0,0,0,348.29188,164.87109Zm-.27539-37.90576.01172.1001a3.49964,3.49964,0,0,0,3.47168,3.09131,3.58828,3.58828,0,0,0,.41308-.02442,3.49917,3.49917,0,0,0,3.06641-3.88525l-.01172-.09912a3.49953,3.49953,0,1,0-6.95117.81738ZM510.08314,250.88947c-.00806-.01374-.01148-.02863-.01978-.0423l-17.76855-29.73194a12.53937,12.53937,0,0,0-3.644-3.97943l-15.21241-39.68115c2.80713-9.8529,7.04078-32.30884-4.81836-52.21295-15.02539-25.22119-49.63867-36.73731-84.16894-28.00586a5.38284,5.38284,0,0,0-4.10742,5.78271,5.49818,5.49818,0,0,0,5.09863,5.02344c25.60937,1.85791,47.80078,14.52881,59.36133,33.895,8.76172,14.67676,9.69238,29.96973,8.93066,40.21485-.002.02819.00366.05481.0022.08288-.00562.1051.00415.21088.0083.3169a3.521,3.521,0,0,0,.0249.38183c.0127.084.03882.16675.05786.25055a3.43967,3.43967,0,0,0,.11621.42767c.0066.01844.00806.03736.01514.05579l14.1211,36.84-10.3545,5.97833a10.95858,10.95858,0,0,0-4.81152,5.73779l-17.95264,49.43769-41.73388,78.2586a6.49751,6.49751,0,0,1-2.59864,2.63867l-9.41137,5.18244c-.26245-.12006-.52027-.24817-.78492-.36475l-33.59741-92.2547a21.69266,21.69266,0,0,0-4.85669-20.86737,16.87542,16.87542,0,0,0,4.124-9.60626c.00683-.07813.01171-.15625.01367-.23438,0-.00927.04-1.56445.1289-4.09961.08008-2.55419.2002-6.08593.35059-10.04a16.77445,16.77445,0,0,0-4.72363-12.36182c-.23194-.24054-.48145-.45587-.72461-.68066a116.60335,116.60335,0,0,0,5.19726-153.34473,116.97384,116.97384,0,0,0-63.81494-39.829c-.34424-.78516-.7102-1.56378-1.12353-2.32629A30.42927,30.42927,0,0,0,272.913,11.8667L258.08387.68945a3.49811,3.49811,0,0,0-4.21289,0L239.04188,11.8667a30.42912,30.42912,0,0,0-8.49316,9.86475c-.41333.76251-.7793,1.54113-1.12354,2.32629a116.5697,116.5697,0,0,0-90.05811,113.5365,115.79857,115.79857,0,0,0,31.394,79.59729c-.23194.21539-.47046.42084-.6919.65076a16.4944,16.4944,0,0,0-4.63867,12.16943c.30078,7.92187.48731,14.35107.48828,14.415.00293.07275.01758.26709.02442.33984a16.78013,16.78013,0,0,0,4.02636,9.49286A21.69664,21.69664,0,0,0,165.12,275.12231l-33.59765,92.254c-.26465.11658-.52246.24469-.78491.36475l-9.4065-5.17951a6.512,6.512,0,0,1-2.60547-2.644L76.994,281.66241,59.0409,232.22314a10.95936,10.95936,0,0,0-4.81152-5.7373l-9.70166-5.6015L65.81043,184.02a10.29819,10.29819,0,0,0-3.76269-14.03711,29.82751,29.82751,0,1,1,40.73828-10.918,10.27876,10.27876,0,0,0,17.80273,10.27979,50.38314,50.38314,0,1,0-77.19921,12.38086L22.68983,217.581a12.38451,12.38451,0,0,0-3.00244,3.48883L1.89149,250.84668a13.46637,13.46637,0,0,0,4.36719,18.33691l.94824.59864c.01416.009.029.01635.04321.02527l24.43433,15.47473a21.67064,21.67064,0,0,1,5.877,5.47607,28.64866,28.64866,0,0,0,8.77148,7.825l5.94678,23.577.00952.038,8.28321,32.8393.00561.0224,7.71778,30.5982a33.61919,33.61919,0,0,0,11.21777,18.80371L94.129,416.76318a62.38082,62.38082,0,0,0-.63208,8.771V462.3103c0,.01-.00293.01911-.00293.02906v46.145a3.50017,3.50017,0,0,0,3.5,3.5l.00146-.00013.00147.00013a3.50018,3.50018,0,0,0,3.5-3.5v-21.645h48.91211v21.645a3.5,3.5,0,0,0,7,0V487.13c8.53418,13.66584,24.011,22.91071,41.93457,24.65857.11523.01123.23047.01709.34375.01709a3.50022,3.50022,0,0,0,.33593-6.98388c-17.99316-1.75489-33.11132-11.9834-39.45605-26.69434-5.5625-12.89795-2.749-25.82666.5918-34.40137a3.50043,3.50043,0,0,0-6.52344-2.541,61.13285,61.13285,0,0,0-4.09717,17.6543H100.497V425.53418a56.86183,56.86183,0,0,1,40.35156-54.146l33.39551-9.96283a110.62371,110.62371,0,0,0,56.46582,32.98676,9.78144,9.78144,0,0,1,7.61719,9.54248,25.54439,25.54439,0,0,0,6.77,17.25836,42.27289,42.27289,0,0,0-31.32959,40.77143,41.68554,41.68554,0,0,0,8.69775,25.64373c.06543.25354.12012.50891.20361.7591a11.3869,11.3869,0,0,0,7.1084,7.15136v.13428a16.33029,16.33029,0,0,0,16.3125,16.31153h19.77539a16.33029,16.33029,0,0,0,16.3125-16.31153v-.13428a11.38353,11.38353,0,0,0,7.1084-7.15136c.0835-.25019.13818-.50556.20361-.7591a41.68555,41.68555,0,0,0,8.69776-25.64373,42.27282,42.27282,0,0,0-31.3291-40.77131,25.54658,25.54658,0,0,0,6.76953-17.25848,9.59756,9.59756,0,0,1,2.14453-6.07617,9.898,9.898,0,0,1,5.48926-3.43555,110.81932,110.81932,0,0,0,56.53906-32.9906l33.30566,9.93591a56.86183,56.86183,0,0,1,40.35156,54.146v33.30518h-49.0415a61.13285,61.13285,0,0,0-4.09717-17.6543,3.50042,3.50042,0,0,0-6.52343,2.541c3.34082,8.57471,6.15429,21.50342.59179,34.40137-6.34472,14.71094-21.46289,24.93945-39.45605,26.69434a3.50022,3.50022,0,0,0,.33594,6.98388c.11328,0,.22851-.00586.34375-.01709,17.92358-1.74786,33.40039-10.99273,41.93457-24.65857v21.35438a3.5,3.5,0,0,0,7,0v-21.645h48.9121v21.645a3.50018,3.50018,0,0,0,3.5,3.5l.00147-.00013.00146.00013a3.50017,3.50017,0,0,0,3.5-3.5v-46.145c0-.01-.00293-.01911-.00293-.02906V425.53418a62.38082,62.38082,0,0,0-.63208-8.771l14.61451-12.30029a33.621,33.621,0,0,0,11.21875-18.80469l7.71777-30.59741.00586-.02362,8.28271-32.83813.01-.03919,5.94654-23.57654a28.64538,28.64538,0,0,0,8.77148-7.8255,21.67648,21.67648,0,0,1,5.877-5.47558l24.426-15.46955c.0166-.01037.03394-.019.05054-.02948l.95215-.60156A13.42163,13.42163,0,0,0,510.08314,250.88947ZM50.91883,182.68457a3.49931,3.49931,0,0,0-.86328-4.49756,43.385,43.385,0,1,1,64.4707-12.34228,3.28565,3.28565,0,0,1-4.47949,1.19775,3.28216,3.28216,0,0,1-1.19824-4.478,36.81083,36.81083,0,1,0-50.30078,13.481,3.2867,3.2867,0,0,1,1.19824,4.479L38.46522,217.38416l-1.49536-.86341c-.01929-.01166-.03443-.02746-.054-.03882a12.54237,12.54237,0,0,0-4.605-1.565ZM15.9452,264.69727a6.45874,6.45874,0,0,1-4.95654-.80811l-.9878-.62549a6.64435,6.64435,0,0,1-.78027-.58746,6.546,6.546,0,0,1-1.31934-8.23578l17.82813-29.82764a5.59914,5.59914,0,0,1,1.92456-1.98016,5.6709,5.6709,0,0,1,2.19092-.7746,16.55563,16.55563,0,0,0,2.89282,18.4989l-12.728,21.34766A6.43526,6.43526,0,0,1,15.9452,264.69727Zm38.45825,37.26324,3.20679,1.12445a3.49993,3.49993,0,1,0,2.3164-6.60547l-6.4082-2.24707a21.69036,21.69036,0,0,1-10.32226-7.62695,28.64272,28.64272,0,0,0-7.76563-7.23731l-14.48779-9.17511a13.3747,13.3747,0,0,0,5.08056-4.90643l12.42139-20.83343,4.88233,2.81927a3.49972,3.49972,0,1,0,3.5-6.06152l-6.85254-3.95752A9.54366,9.54366,0,0,1,36.44666,224.302l14.28272,8.24634a3.94129,3.94129,0,0,1,1.73144,2.06494l18.05176,49.71a3.49919,3.49919,0,0,0,.20215.45215l4.78516,8.97315c.00976.01824.02368.03234.03369.05035L79.0995,300.486,57.84315,315.59729Zm5.27686,20.9198,22.74048-16.16638,11.6687,21.88135-27.95484,19.8739Zm89.72876,142.95905v14H100.497v-14ZM95.74452,408.97321l-11.72413-9.86774a26.58235,26.58235,0,0,1-8.88378-14.936q-.01613-.07617-.03516-.15088L67.97157,355.7522l29.439-20.929L112.54774,363.209a13.50121,13.50121,0,0,0,5.40137,5.48145l5.46313,3.0083A64.292,64.292,0,0,0,95.74452,408.97321ZM281.40614,50.9248a30.52989,30.52989,0,0,0,3.36816-19.08911,109.58981,109.58981,0,0,1,80.81348,105.75855,108.8397,108.8397,0,0,1-30.62061,75.9862,16.88375,16.88375,0,0,0-4.72119-.81005l4.78418-37.95838a71.74055,71.74055,0,0,0,.07666-17.26874,81.534,81.534,0,0,0-38.83911-90.8872,18.03324,18.03324,0,0,0-15.00586-15.465ZM255.97743,336.84131a15.50653,15.50653,0,0,0,13.73291-8.3385,71.65122,71.65122,0,0,0,20.05713-7.07068v8.18213a23.60852,23.60852,0,0,0,8.15844,17.752,74.21519,74.21519,0,0,1-83.854-.03967,23.60518,23.60518,0,0,0,8.11548-17.71234v-7.50885a69.78878,69.78878,0,0,0,20.21533,6.72375,15.46311,15.46311,0,0,0,13.57471,8.01215Zm-8.5-15.5V299.23047a32.68812,32.68812,0,0,0,7.72265,1.11133c.25684.00586.51172.00927.7666.00927a32.55464,32.55464,0,0,0,8.51075-1.13818v22.12842a8.5,8.5,0,1,1-17,0Zm43.39624-8.64862a64.36821,64.36821,0,0,1-19.39624,8.26355V296.457c1.08349-.57257,2.00732-1.13324,2.74218-1.62012a3.49993,3.49993,0,1,0-3.86523-5.83593,25.93354,25.93354,0,0,1-28.75195.00146,3.49979,3.49979,0,1,0-3.86914,5.833c.80029.53094,1.72119,1.08563,2.74414,1.63074v24.86108a62.53853,62.53853,0,0,1-49.12012-61.06311v-3.75073c0-.01.00293-.01911.00293-.02905V232.87787a36.7809,36.7809,0,0,1,15.37109-29.77533l.49121-.35059a44.5826,44.5826,0,0,1,31.998-7.939l16.29,2.18994a3.47526,3.47526,0,0,0,.93359,0l16.291-2.18994a44.55323,44.55323,0,0,1,31.93262,7.89111c.1123.08447.22753.166.34375.24707l.21191.15137a36.78271,36.78271,0,0,1,15.374,29.87207v25.23975a64.87314,64.87314,0,0,1-5.27832,25.70855c-.0354.06568-.08081.12262-.1123.19135-.03858.08386-.0564.171-.08765.2561a64.28679,64.28679,0,0,1-23.23462,27.65033A3.497,3.497,0,0,0,290.87367,312.69269Zm18.48364-115.2381c-.11231-.08447-.22754-.166-.34375-.24707l-.21094-.15088a51.56023,51.56023,0,0,0-37.00195-9.18115l-15.82324,2.12744-15.82227-2.12744a51.56236,51.56236,0,0,0-37.00195,9.18066l-.49024.3501a43.71212,43.71212,0,0,0-13.46728,15.60657,3.51513,3.51513,0,0,0-.415-.12885L183.87,173.937a64.71847,64.71847,0,0,1-.0083-16.109l.001-.00927a64.32424,64.32424,0,0,1,29.19507-46.24921,17.92093,17.92093,0,0,0,11.80347,4.4378h62.23242a17.92092,17.92092,0,0,0,11.80346-4.4378,64.32421,64.32421,0,0,1,29.19507,46.24921l.001.00927a64.71751,64.71751,0,0,1-.0083,16.109l-5.00757,39.7309A43.50992,43.50992,0,0,0,309.35731,197.45459Zm-6.16016-91.43323a17.9542,17.9542,0,0,0-11.13427-25.333,18.06529,18.06529,0,0,0,3.51171-6.30194,74.57412,74.57412,0,0,1,35.01319,63.20783c0,.62567-.01416,1.25043-.02979,1.87506A71.28577,71.28577,0,0,0,303.19715,106.02136Zm26.52051,113.72278a9.89957,9.89957,0,0,1,9.88281,10.26758c-.15136,3.96924-.27148,7.51758-.35156,10.06982-.07519,2.145-.11621,3.60205-.127,4.02588a9.855,9.855,0,0,1-4.19922,7.11768l-.00708.00482a9.85951,9.85951,0,0,1-5.62866,1.75446h-1.68946V233.29364a3.49906,3.49906,0,0,0,.14258-.64178l1.627-12.90772ZM298.10926,97.99121a11.02828,11.02828,0,0,1-11.01562,11.01611H224.86122a11.01587,11.01587,0,0,1,0-22.03173h62.23242A11.02786,11.02786,0,0,1,298.10926,97.99121Zm-91.26367,0a17.88063,17.88063,0,0,0,1.91211,8.03015,71.28554,71.28554,0,0,0-27.36084,33.44806c-.01563-.62469-.02979-1.24951-.02979-1.87518a74.57412,74.57412,0,0,1,35.01319-63.20783,18.06516,18.06516,0,0,0,3.51172,6.30194A18.03636,18.03636,0,0,0,206.84559,97.99121ZM182.59,219.74609l1.72437,13.67627c.00855.067.03076.128.043.19355v19.36847h-1.8457a9.62417,9.62417,0,0,1-9.5918-8.78907l-.00586-.06836c-.02539-.84375-.20606-6.96191-.48926-14.38183a9.63354,9.63354,0,0,1,9.62207-9.999Zm-6.96215,38.74048a16.58665,16.58665,0,0,0,6.88379,1.49781h1.8457v.27978a69.50542,69.50542,0,0,0,4.0166,23.25079,14.728,14.728,0,0,1-12.74609-25.02838ZM327.558,259.98438h1.729a16.91957,16.91957,0,0,0,7.01318-1.52314,14.72839,14.72839,0,0,1-13.23,24.96753A71.94025,71.94025,0,0,0,327.558,259.98438Zm-90.855-234.917a23.47293,23.47293,0,0,1,6.55176-7.61084l12.72266-9.58935,12.72265,9.58935a23.63276,23.63276,0,0,1,6.55176,30.13233l-1.81836,3.355H238.52137l-1.81836-3.355A23.55542,23.55542,0,0,1,236.703,25.06738ZM278.4159,57.94385a11.01587,11.01587,0,1,1,0,22.03174H233.539a11.01587,11.01587,0,1,1,0-22.03174ZM146.36707,137.59424A109.58981,109.58981,0,0,1,227.18055,31.83569a30.53,30.53,0,0,0,3.36817,19.08911l.14428.26624a18.03326,18.03326,0,0,0-15.00586,15.465A81.53413,81.53413,0,0,0,176.848,157.54333a71.74464,71.74464,0,0,0,.07666,17.26917l4.78491,37.95032a16.65034,16.65034,0,0,0-4.76489.78161A108.86725,108.86725,0,0,1,146.36707,137.59424Zm28.73755,216.26922a3.468,3.468,0,0,0-1.67724.50037l-33.33765,9.94544,29.51514-81.04407a21.55375,21.55375,0,0,0,21.48169,6.8291,69.302,69.302,0,0,0,24.10083,27.897v11.62293a16.60573,16.60573,0,0,1-8.04395,14.15509,3.45937,3.45937,0,0,0-1.57422.82422,16.15611,16.15611,0,0,1-2.16308.82684ZM291.18739,461.98438a34.86141,34.86141,0,0,1-3.72266,15.79309l-2.32031-3.18763a3.50017,3.50017,0,0,0-5.66016,4.11914l2.55176,3.50489a4.36365,4.36365,0,0,1-2.25684,6.74414,6.46663,6.46663,0,0,0-4.60156,6.21728v.49756a9.31567,9.31567,0,0,1-8.88867,9.29v-4.93945a3.5,3.5,0,0,0-7,0v4.96094h-7v-4.96094a3.5,3.5,0,0,0-7,0v4.92035a9.32033,9.32033,0,0,1-8.51172-9.27094v-.49756a6.466,6.466,0,0,0-4.60351-6.21728,4.36373,4.36373,0,0,1-2.25391-6.74463l2.55078-3.5044a3.50017,3.50017,0,0,0-5.66016-4.11914l-2.31982,3.18805a34.86,34.86,0,0,1-3.72314-15.79351,35.21,35.21,0,0,1,70.41992,0Zm-11.50977-74.35987a16.91707,16.91707,0,0,0-9.36914,5.87793,16.74853,16.74853,0,0,0-3.68066,10.45215,18.23708,18.23708,0,0,1-5.44922,13.06934l-2.86377,2.82812c-.77417-.04248-1.55274-.06787-2.3374-.06787s-1.563.02533-2.33716.06781l-2.863-2.82758a18.24776,18.24776,0,0,1-5.45019-13.08984,16.74845,16.74845,0,0,0-13.0254-16.33887,103.56313,103.56313,0,0,1-50.53295-28.41516l23.63549-7.05115a22.98851,22.98851,0,0,0,2.2273-.80346,81.20086,81.20086,0,0,0,96.75464.0282c.70459.28839,1.42114.5545,2.16064.77429l23.72705,7.07837A103.74785,103.74785,0,0,1,279.67762,387.62451Zm28.86719-42.20508a16.58037,16.58037,0,0,1-11.77734-15.80517V317.18494a71.26655,71.26655,0,0,0,23.4746-27.22437,21.74526,21.74526,0,0,0,22.10816-6.69574l29.51489,81.0445ZM411.45789,479.83936h-48.9121v-14h48.9121Zm39.35547-341.49024c-11.28027-18.89746-31.60351-31.99463-55.48925-36.14014,28.32519-4.0747,55.13378,6.22364,67.28222,26.61573,10.26465,17.22863,6.79273,36.96722,4.26319,46.13617l-5.936,2.28051A74.137,74.137,0,0,0,450.81336,138.34912Zm10.9336,46.07813,5.98535-2.29932,12.54809,32.73132a12.53945,12.53945,0,0,0-5.2434,1.63147l-.81812.47235ZM436.8534,384.01855q-.019.07471-.03515.15088a26.58422,26.58422,0,0,1-8.88477,14.937l-11.72314,9.86676a64.29235,64.29235,0,0,0-27.66773-37.27454l5.468-3.01117a13.48677,13.48677,0,0,0,5.39453-5.47607L414.54408,334.823l29.43921,20.9292Zm8.9668-35.54937-27.95508-19.87409,11.66895-21.88128,22.74048,16.1665Zm30.7041-69.101a28.64853,28.64853,0,0,0-7.76562,7.23682,21.6914,21.6914,0,0,1-10.32227,7.62744l-6.4082,2.24707a3.49993,3.49993,0,1,0,2.3164,6.60547l3.20679-1.12445-3.4397,13.63678L432.85511,300.4859l3.553-6.6626c.01465-.02588.03272-.0484.04688-.07476l4.78515-8.97315a3.49783,3.49783,0,0,0,.20215-.45215L459.494,234.61377a3.94051,3.94051,0,0,1,1.73144-2.06543l14.28223-8.24615a9.544,9.544,0,0,1-3.52734,12.95172l-6.85254,3.957a3.49972,3.49972,0,1,0,3.5,6.06152l4.88232-2.819,12.41943,20.83026a13.384,13.384,0,0,0,5.08252,4.90912Zm25.45484-16.11755c-.00855.00525-.01783.00775-.02613.01306l-1.002.63458a6.49262,6.49262,0,0,1-9.00781-2.19659l-12.72608-21.34454a16.55687,16.55687,0,0,0,2.89453-18.49634,5.68208,5.68208,0,0,1,4.12744,2.76813c.00586.01013.00855.02118.01465.03125l17.79981,29.78027A6.5403,6.5403,0,0,1,501.97914,263.25061ZM322.34559,72.96045a3.40622,3.40622,0,0,0,2.44727,1.03223A3.55138,3.55138,0,1,0,322.2245,72.835C322.2411,72.853,322.328,72.94287,322.34559,72.96045Zm12.48828,15.98779a3.41674,3.41674,0,0,0,2.91992,1.62451,3.51882,3.51882,0,0,0,2.97461-5.40086,3.49987,3.49987,0,1,0-5.94726,3.69139Zm12.01465,17.17139-3.31543,1.12207a3.50016,3.50016,0,1,0,6.63086-2.24414l-.07129-.20166a3.47662,3.47662,0,0,0-4.4541-2.0376,3.52378,3.52378,0,0,0-2.11231,4.4624Zm-54.42676,22.86572a8.83184,8.83184,0,0,0-13.0957-.00244l-6.303,6.9472-9.7937-10.80413a9.78779,9.78779,0,0,0-14.50391,0l-9.7937,10.80389-6.3-6.94452a8.83295,8.83295,0,0,0-13.09668-.00244l-16.38672,18.06738a8.84011,8.84011,0,0,0,.00586,11.87549l16.37891,18.05762a8.83184,8.83184,0,0,0,13.0957.00244l6.303-6.9472,9.7937,10.80413a9.78779,9.78779,0,0,0,14.50391,0l9.79346-10.804,6.30029,6.94464a8.83295,8.83295,0,0,0,13.09668.00244l16.38672-18.06738a8.84009,8.84009,0,0,0-.00586-11.87549Zm-64.97949,43.29981a1.83154,1.83154,0,0,1-2.72168-.00245L208.34559,154.23a1.85376,1.85376,0,0,1-.00586-2.48389l16.38281-18.0625a1.83264,1.83264,0,0,1,2.72266.00245l6.76318,7.45446-4.77685,5.26966a9.75226,9.75226,0,0,0,0,13.148l4.77685,5.26983Zm49.89551-17.42823L258.04383,176.1416a2.85383,2.85383,0,0,1-4.13281,0l-19.29395-21.28515a2.77779,2.77779,0,0,1,0-3.74463L253.911,129.82715a2.78976,2.78976,0,0,1,4.13281,0l19.29395,21.28515a2.77717,2.77717,0,0,1,0,3.74415Zm26.27734-.63427-16.38281,18.0625a1.83264,1.83264,0,0,1-2.72266-.00245l-6.76343-7.45465,4.7771-5.26995v.00048a9.75226,9.75226,0,0,0,0-13.148l-4.77685-5.26983,6.76611-7.45722a1.83154,1.83154,0,0,1,2.72168.00245l16.375,18.05273A1.85376,1.85376,0,0,1,303.61512,154.22266Zm-47.63769-110.147a11.12524,11.12524,0,1,0-11.125-11.12548A11.13748,11.13748,0,0,0,255.97743,44.07568Zm0-15.25048a4.12524,4.12524,0,1,1-4.125,4.125A4.12982,4.12982,0,0,1,255.97743,28.8252ZM159.89149,137.81934a3.50043,3.50043,0,0,0,3.49121-3.29444c.00195-.03418.00684-.168.00781-.20215a3.501,3.501,0,1,0-3.707,3.49073Q159.78749,137.81933,159.89149,137.81934Zm5.00293,16.80078-3.44922.59277,3.44531-.61719a3.50015,3.50015,0,0,0-6.89062,1.23438c.00586.03271.03125.16406.03808.19678a3.46985,3.46985,0,0,0,3.40723,2.76123,3.57131,3.57131,0,0,0,.69238-.06836A3.52131,3.52131,0,0,0,164.89442,154.62012Zm2.64453,20.74853,3.23535-1.33545a3.50013,3.50013,0,0,0-6.4707,2.6709l.07617.17822a3.46526,3.46526,0,0,0,3.17578,2.06153,3.50848,3.50848,0,0,0,3.22852-4.88623ZM215.03407,54.085a3.4945,3.4945,0,0,0,1.48144-.33057l.08985-.04248a3.49987,3.49987,0,0,0-2.96485-6.34082l-.09082.04248a3.50069,3.50069,0,0,0,1.48438,6.67139ZM197.08973,65.09668a3.483,3.483,0,0,0,2.11328-.7124l.11133-.08594a3.45753,3.45753,0,0,0,.58691-4.86475,3.54144,3.54144,0,0,0-4.93066-.62451,3.5,3.5,0,0,0,2.11914,6.2876ZM172.05848,90.62842a3.49717,3.49717,0,0,0-4.73535,1.4414c-.01465.02686-.0752.14258-.08887.16993a3.49486,3.49486,0,0,0,3.125,5.04443,3.53192,3.53192,0,0,0,3.13281-1.90625L170.411,93.7168l3.08789,1.647A3.4998,3.4998,0,0,0,172.05848,90.62842Zm-10.0293,26.22363a3.45967,3.45967,0,0,0,.85157.10645,3.53321,3.53321,0,0,0,3.39843-2.62647l-3.37011-.94531,3.37695.9209a3.50027,3.50027,0,0,0-6.75391-1.8418c-.00879.03223-.042.16064-.0498.19287A3.479,3.479,0,0,0,162.02918,116.85205ZM268.97254,475.99414A10.41187,10.41187,0,1,0,258.56043,465.582,10.42313,10.42313,0,0,0,268.97254,475.99414Zm0-13.82373a3.41187,3.41187,0,1,1-3.41211,3.41162A3.41516,3.41516,0,0,1,268.97254,462.17041Zm-12.99511-312.686a3.5,3.5,0,1,0,3.5,3.5A3.49993,3.49993,0,0,0,255.97743,149.48438Zm50.65332,87.10937a3.50025,3.50025,0,0,0-4.85059-.98389,16.03686,16.03686,0,0,1-9.10937,2.63965,15.80662,15.80662,0,0,1-8.36231-2.63867,3.49979,3.49979,0,1,0-3.86914,5.833,22.79722,22.79722,0,0,0,12.06738,3.80371q.26661.00659.53028.00635a23.11348,23.11348,0,0,0,12.61035-3.80909A3.49948,3.49948,0,0,0,306.63075,236.59375ZM252.289,465.582a10.41211,10.41211,0,1,0-10.41211,10.41211A10.42354,10.42354,0,0,0,252.289,465.582Zm-10.41211,3.41211A3.41187,3.41187,0,1,1,245.289,465.582,3.41578,3.41578,0,0,1,241.87684,468.99414ZM255.97743,214.144a3.5,3.5,0,1,0,3.5,3.5A3.49994,3.49994,0,0,0,255.97743,214.144Zm-28.33008,21.46588a15.756,15.756,0,0,1-17.47168.001,3.49979,3.49979,0,1,0-3.86914,5.833,22.79716,22.79716,0,0,0,12.06738,3.80371c.17871.00439.35547.00635.53125.00635a23.11255,23.11255,0,0,0,12.60938-3.80909,3.50007,3.50007,0,0,0-3.86719-5.835ZM179.76747,78.93115a3.45812,3.45812,0,0,0,2.19335.77686,3.53936,3.53936,0,0,0,2.71875-1.26905l-2.65722-2.27783,2.67187,2.26076a3.5,3.5,0,1,0-5.34375-4.5215c-.02441.02832-.11133.13428-.13476.16357A3.47609,3.47609,0,0,0,179.76747,78.93115Zm73.73535,403.06006-4.34082,4.34033a3.5,3.5,0,0,0,4.94922,4.9502l1.86621-1.86621,1.86621,1.86621a3.5,3.5,0,0,0,4.94922-4.9502l-4.34082-4.34033A3.5005,3.5005,0,0,0,253.50282,481.99121Z"/></svg>