<svg xmlns="http://www.w3.org/2000/svg" data-name="Layer 1" viewBox="0 0 512 512"><polygon fill="#3c3b42" points="381.5 380.5 130.5 380.5 193.5 207.5 318.5 207.5 381.5 380.5"/><path fill="#2c2c2e" d="M371.83667,353.96423,307.56934,334.794q-.675-.20135-1.32659-.44682a8.07212,8.07212,0,0,1-2.7536-13.27542,67.92046,67.92046,0,0,0,20.62926-48.83794c-.00024-15.68976-.00071-19.00945-.00073-24.22895a41.73265,41.73265,0,0,0-16.63776-33.58348,48.27543,48.27543,0,0,0-35.19257-9.06288L256,207.55176l-16.28735-2.19324a48.28566,48.28566,0,0,0-40.436,13.563,39.38361,39.38361,0,0,0-11.39428,28.0472c0,6.61038-.00048,9.76288-.00073,27.31254a65.71558,65.71558,0,0,0,19.81906,47.13055,8.00073,8.00073,0,0,1-3.14169,13.34347l-.1283.03874-64.26733,19.17022L130.5,380.5h251Z"/><path fill="#2c2c2e" d="M186,294.23535a18.25455,18.25455,0,1,0-12.6532-31.394l-5.49451,15.0882A18.25429,18.25429,0,0,0,186,294.23535Z"/><polygon fill="#2c2c2e" points="318.5 207.5 304.5 207.5 367.5 380.5 381.5 380.5 318.5 207.5"/><circle cx="186" cy="268.981" r="18.255" fill="#fee903"/><path fill="#2c2c2e" d="M326,294.23535a18.25438,18.25438,0,0,0,18.14771-16.30578l-5.49439-15.0882A18.24916,18.24916,0,1,0,326,294.23535Z"/><circle cx="326" cy="268.981" r="18.255" fill="#fee903"/><path fill="#ffbd86" d="M342.63628,244.34186v-.00012s.18014-6.27571.48-14.18463a13.38662,13.38662,0,0,0-13.37237-13.8954H317.11766v40.23822h12.1938a13.3808,13.3808,0,0,0,13.32481-12.15807Z"/><path fill="#fac600" d="M334.919,253.06183a18.24268,18.24268,0,0,1-24.8379,24.838,18.24928,18.24928,0,1,0,24.8379-24.838Z"/><path fill="#ffbd86" d="M194.88243,216.26172H182.06971a13.13253,13.13253,0,0,0-13.11929,13.63234c.30587,8.03237.49,14.44768.49,14.44768v.00012l.01116.12154a13.1702,13.1702,0,0,0,13.08256,12.03654h12.3483Z"/><path fill="#fee903" d="M256,24.5A113.11313,113.11313,0,1,0,369.11328,137.6131,113.113,113.113,0,0,0,256,24.5Zm0,191.22607a78.113,78.113,0,1,1,78.11328-78.11279A78.20137,78.20137,0,0,1,256,215.72607Z"/><path fill="#fac600" d="M249 59.82965c-2.30786-.206-4.6394-.32965-7-.32965a78.113 78.113 0 1 0 0 156.22607c2.3606 0 4.69214-.12359 7-.32965a78.0962 78.0962 0 0 1 0-155.56677zM256 24.5c-2.35156 0-4.68408.08051-7 .22192a113.10767 113.10767 0 0 1 0 225.78241c2.31592.14142 4.64844.22193 7 .22193A113.11313 113.11313 0 1 0 256 24.5z"/><path fill="#fff" d="M255.99365 236.11182h-.10107a3.5 3.5 0 0 1 0-7h.10107a3.5 3.5 0 1 1 0 7zM277.02734 233.77734a3.50061 3.50061 0 0 1-.751-6.91894l.7539 3.418-.71875-3.42578a3.5 3.5 0 0 1 1.6416 6.80468l-.16894.03907A3.53624 3.53624 0 0 1 277.02734 233.77734zM234.86133 233.75244a3.56831 3.56831 0 0 1-3.48633-4.28125 3.47255 3.47255 0 0 1 4.14941-2.65771l.13575.03125a3.50048 3.50048 0 0 1-.79883 6.90771zM297.15918 226.75439a3.49373 3.49373 0 0 1-1.56445-6.62841l.13086-.0625a3.50016 3.50016 0 1 1 1.43359 6.69091zM214.78076 226.73047a3.48391 3.48391 0 0 1-1.522-.35059l-.09082-.04394a3.49983 3.49983 0 1 1 3.04883-6.30078l.09082.04394a3.50062 3.50062 0 0 1-1.52686 6.65137zM315.13867 215.4668a3.5 3.5 0 0 1-2.18262-6.2378l.07911-.063a3.50011 3.50011 0 1 1 4.36132 5.47558l-.0791.063A3.486 3.486 0 0 1 315.13867 215.4668zM196.78467 215.40527a3.48417 3.48417 0 0 1-2.20313-.78222 3.52923 3.52923 0 0 1-.58447-4.93946 3.46954 3.46954 0 0 1 4.89111-.5791l.10352.083a3.5 3.5 0 0 1-2.207 6.21777zM256.21582 46.11377h-.31689a3.5 3.5 0 0 1 0-7h.31689a3.5 3.5 0 0 1 0 7z"/><path fill="#fee903" d="M324,234.5H188l-7.5817-46.11207a67.9738,67.9738,0,0,1,40.75536-71.023L256,102.5l34.82634,14.8649a67.9738,67.9738,0,0,1,40.75536,71.023Z"/><path fill="#fac600" d="M290.82642,117.36493,256,102.5l-7,2.98779,27.82642,11.87714a67.974,67.974,0,0,1,40.75537,71.023L310,234.5h14l7.58179-46.11206A67.974,67.974,0,0,0,290.82642,117.36493Z"/><path fill="#fd6930" d="M414.98363,501.5V425.54959a60,60,0,0,0-42.8494-57.49658l-64.56475-19.259a20,20,0,0,1-14.28313-19.16553V310.02624h-74.5727v19.60228a20,20,0,0,1-14.28313,19.16553l-64.56475,19.259a60,60,0,0,0-42.8494,57.49658V501.5Z"/><path fill="#fd5426" d="M307.56934,348.794c-.38916-.11615-.76685-.25513-1.14454-.39313L159.2356,446.99469a30.00025,30.00025,0,0,0-13.3042,24.92487V487.5l192.585-129.47491Z"/><path fill="#fed2a4" d="M307.56948,348.79405a20,20,0,0,1-14.28313-19.16553V310.02624h-74.5727v19.60228a20,20,0,0,1-14.28313,19.16553l49.50284,35Z"/><path fill="#fd5426" d="M152.93164,512a3.49986,3.49986,0,0,1-3.5-3.5V455.355a3.5,3.5,0,0,1,7,0V508.5A3.49985,3.49985,0,0,1,152.93164,512Z"/><path fill="#ffbd86" fill-rule="evenodd" d="M218.71362,310.02625V325.033a66.35456,66.35456,0,0,0,42.5835,15.32385h1.70361a67.7976,67.7976,0,0,0,30.59448-7.26227,20.00579,20.00579,0,0,1-.30883-3.46612V310.02625Z"/><path fill="#fed2a4" fill-rule="evenodd" d="M256.00067,326.35688h-1.70358a66.14747,66.14747,0,0,1-66.41549-66.0756c.00038-16.98925.00058-20.48618.00069-26.68929a41.383,41.383,0,0,1,17.3284-33.67316l0,0a48.27531,48.27531,0,0,1,34.50194-8.56027L256,193.55175l16.28734-2.19321a48.27529,48.27529,0,0,1,34.50193,8.56028l.00006,0a41.38492,41.38492,0,0,1,17.32838,33.6742c.00011,5.46683.0003,8.54246.00064,24.64081A68.121,68.121,0,0,1,256.00067,326.35688Z"/><path fill="#ffbd86" fill-rule="evenodd" d="M324.11768,233.593a41.385,41.385,0,0,0-17.32837-33.6742,48.27545,48.27545,0,0,0-34.502-8.5603l-.58569.07892a48.26873,48.26873,0,0,1,21.08765,8.48138,41.385,41.385,0,0,1,17.32837,33.6742c0,5.46686.00048,8.54248.00073,24.64081a68.118,68.118,0,0,1-61.96192,67.83282c2.02271.18329,4.06812.29022,6.14063.29022h1.70361a68.12112,68.12112,0,0,0,68.11768-68.123C324.11816,242.1355,324.11768,239.05988,324.11768,233.593Z"/><path fill="#ffbd86" fill-rule="evenodd" d="M187.88232,247.592a41.38305,41.38305,0,0,1,17.32837-33.67316,48.27545,48.27545,0,0,1,34.502-8.5603L256,207.55176l16.28735-2.19324a48.27545,48.27545,0,0,1,34.502,8.5603,41.385,41.385,0,0,1,17.32837,33.6742c0,3.29437.00024,5.72455.00048,10.65527l.00025-.01446c-.00025-16.09833-.00073-19.174-.00073-24.64081a41.385,41.385,0,0,0-17.32837-33.6742,48.27545,48.27545,0,0,0-34.502-8.5603L256,193.55176l-16.28735-2.19324a48.27545,48.27545,0,0,0-34.502,8.5603A41.38305,41.38305,0,0,0,187.88232,233.592c0,6.20312-.00048,9.7-.00073,26.68927l.00025.01367C187.88232,254.386,187.88232,251.53253,187.88232,247.592Z"/><path fill="#fed2a4" d="M97.01637,502V469.355h55.91509V512H107.01637A10,10,0,0,1,97.01637,502Z"/><rect width="55.915" height="21" x="97.016" y="469.355" fill="#fee903"/><path fill="#fac600" d="M271.439,54.45935H226.561a14.51567,14.51567,0,0,0-14.51563,14.51581v.00006A14.491,14.491,0,0,0,212.554,72.732a77.92068,77.92068,0,0,1,72.90991-7.44409A14.50839,14.50839,0,0,0,271.439,54.45935Z"/><path fill="#fee903" d="M233.5611,54.45933H278.4389a14.51583,14.51583,0,0,1,14.51583,14.51583v0A14.51584,14.51584,0,0,1,278.4389,83.491H233.5611A14.51583,14.51583,0,0,1,219.04526,68.9752v0A14.51584,14.51584,0,0,1,233.5611,54.45933Z"/><path fill="#fac600" d="M278.439,54.45935h-1.59863a14.42666,14.42666,0,0,1,2.11426,7.51581v.00006A14.51567,14.51567,0,0,1,264.439,76.491H221.15967a14.49288,14.49288,0,0,0,12.40137,7H278.439a14.51567,14.51567,0,0,0,14.51563-14.51581v-.00006A14.51567,14.51567,0,0,0,278.439,54.45935Z"/><rect width="105.292" height="44.108" x="203.354" y="83.491" fill="#fee903" rx="22.054"/><path fill="#fac600" d="M288.80762 83.60193a22.051 22.051 0 0 1-16.21582 36.9975H211.4082q-1.12206 0-2.21582-.1109a21.99277 21.99277 0 0 0 16.21582 7.1109h61.1836a22.05457 22.05457 0 0 0 2.21582-43.9975zM224.40161 28.97906a27.12289 27.12289 0 0 0 2.24683 20.2934l2.81128 5.18689h39.08056l2.81128-5.18689A27.12215 27.12215 0 0 0 272.438 25.69305a113.74569 113.74569 0 0 0-48.03638 3.286z"/><path fill="#fee903" d="M275.54031,54.45933H236.45969l-2.81131-5.18689a27.1318,27.1318,0,0,1,0-25.85743h0a27.13151,27.13151,0,0,1,7.52267-8.738L256,3.5l14.829,11.177a27.13151,27.13151,0,0,1,7.52267,8.738h0a27.1318,27.1318,0,0,1,0,25.85743Z"/><path fill="#fac600" d="M278.35156,23.415a27.132,27.132,0,0,0-7.52246-8.738L256,3.5l-2.35645,1.77612,3.18555,2.40094a27.13235,27.13235,0,0,1,7.52246,34.5954h0a9.90825,9.90825,0,0,1-8.711,5.18688H232.75977c.2749.61176.56616,1.21814.88867,1.81311l2.81128,5.18689h39.08056l2.81128-5.18689A27.13129,27.13129,0,0,0,278.35156,23.415Z"/><circle cx="256" cy="32.966" r="7.625" fill="#fd4755"/><path fill="#fb2b3a" d="M258.48218,25.76215a7.6098,7.6098,0,0,1-9.67041,9.72882,7.62136,7.62136,0,1,0,9.67041-9.72882Z"/><path fill="#fd5426" d="M207.33667,468.0462l48.65161,26.91785,48.65186-26.91785a88.47137,88.47137,0,0,0,45.62915-77.39068V361.90027l.1018-.339L310.271,349.59985l-.02637.36145v40.6944a48.42238,48.42238,0,0,1-24.98,42.36963L255.98828,449.2226l-29.27539-16.19727a48.42233,48.42233,0,0,1-24.98047-42.36963V349.96149l-.04516-.34919-40.00953,11.93439.03077.35358v28.75525A88.47135,88.47135,0,0,0,207.33667,468.0462Z"/><path fill="#fee903" d="M211.812,456.51611l44.18762,24.44794,44.18756-24.44794a80.35375,80.35375,0,0,0,41.44251-70.28967V360.10968l.31866-1.06079L307.56952,348.794a19.99853,19.99853,0,0,1-2.19739-.81488l-.09473,1.287v36.96045a43.979,43.979,0,0,1-22.68792,38.48194l-26.58985,14.71112-26.58941-14.71112a43.97927,43.97927,0,0,1-22.68817-38.48194V349.26636l-.16327-1.257a20.00828,20.00828,0,0,1-2.12824.78461l-34.1579,10.189.09772,1.12671v26.11676A80.35381,80.35381,0,0,0,211.812,456.51611Z"/><path fill="#fac600" d="M199.55884 355.0094l.16333 1.257v36.96026a43.97935 43.97935 0 0 0 22.688 38.48194l26.58935 14.71112 26.58985-14.71112a43.92317 43.92317 0 0 0 13.147-11.14167 43.92278 43.92278 0 0 1-6.147 4.14167l-26.58985 14.71112-26.58935-14.71112a43.97935 43.97935 0 0 1-22.688-38.48194V349.26636l-.16333-1.257a20.01694 20.01694 0 0 1-2.12818.78461zM307.56958 348.794a20.01036 20.01036 0 0 1-2.19751-.81488l-.09473 1.287v7.93213l29.6709 8.85059-.3186 1.06079v26.11676A80.33882 80.33882 0 0 1 314.49707 446.403a80.355 80.355 0 0 0 27.13257-60.17658V360.10968l.3186-1.06079z"/><path fill="#fee903" d="M256.26221,393.9126a107.61277,107.61277,0,0,0,80.67529-36.35846l-29.368-8.76013a19.98793,19.98793,0,0,1-3.41107-1.38245,77.76241,77.76241,0,0,1-96.00525-.16766,19.97092,19.97092,0,0,1-3.72266,1.55011l-28.95312,8.63641A107.61441,107.61441,0,0,0,256.26221,393.9126Z"/><path fill="#fac600" d="M336.9375,357.55414l-2.28491-.68158L307.56934,348.794c-.38916-.11615-.76685-.25513-1.14454-.39313l-66.16113,44.31769a107.72812,107.72812,0,0,0,56.83154-6.846l35.98536-24.19306Q335.06177,359.66727,336.9375,357.55414Z"/><path fill="#fac600" d="M256.26221,386.9126a107.47927,107.47927,0,0,1-75.60327-31.02777l-5.18152,1.54559a107.6842,107.6842,0,0,0,161.46008.12372l-5.19385-1.54926A107.47813,107.47813,0,0,1,256.26221,386.9126Z"/><path fill="#f9f7f8" d="M405.54333,512a10,10,0,0,0,10-9.99754l.0191-77.7226a60,60,0,0,0-36.32287-55.14912l-45.09975-19.3691a15,15,0,0,0-14.26718,1.32023L166.23567,453.9947a30,30,0,0,0-13.30421,24.9249V512Z"/><path fill="#e5e1e5" d="M379.2395,369.13074l-1.833-.78723h0L334.14,349.76163a15.00013,15.00013,0,0,0-14.26741,1.32028l-6.729,4.50745a14.98344,14.98344,0,0,1,6.99634,1.17224l33.66,14.45614a2.84285,2.84285,0,0,1-.12747,5.27424A67.60906,67.60906,0,0,0,311.76,424.65a68.73035,68.73035,0,0,0,47.79,81.18,67.43732,67.43732,0,0,0,41.99438-1.47333L401.54248,512h4.001a10,10,0,0,0,10-9.99756l.019-77.72259A60.00027,60.00027,0,0,0,379.2395,369.13074Z"/><path fill="#fac600" d="M229.41016 424.70856a43.91968 43.91968 0 0 1-15.46192-14.3628L183.7417 430.57947a80.28054 80.28054 0 0 0 18.05444 19.36267l33.05542-22.22308zM321.27734 352.88293l-13.708-4.08892-.01123-.00385c-.38623-.11554-.76441-.246-1.13721-.3866l-1.136.76087-.00757.10174v31.10547l33.239-22.34649z"/><path fill="#fee903" d="M354.9353,358.69269l-20.79541-8.93109a15.00041,15.00041,0,0,0-14.26733,1.32025L166.2356,453.99469a30.00025,30.00025,0,0,0-13.3042,24.92487V494.5L354.9353,358.69269Z"/><path fill="#fac600" d="M320.13989,356.7616l22.98487,9.8714,11.81054-7.94031-20.79541-8.93109a15.00041,15.00041,0,0,0-14.26733,1.32025l-6.729,4.50751A14.98344,14.98344,0,0,1,320.13989,356.7616Z"/><circle cx="256" cy="161.137" r="20" fill="#26a6fe"/><path fill="#0593fc" d="M257.23706,141.19922A19.98721,19.98721,0,0,1,242,174.13672c-.41748,0-.82568-.03729-1.23682-.0625a19.98854,19.98854,0,1,0,16.47388-32.875Z"/><path fill="#aa6a51" d="M487.57007,165.58l-11.79,44.47a7.529,7.529,0,0,1-2.49,3.89,46.95808,46.95808,0,0,0-16.01,26.02l-1.15015,5.13-1.52978,6.83L448.5,279.18l-1.53,6.83-19.03,84.99a15.10037,15.10037,0,0,0,5.40015,15.26,68.569,68.569,0,0,1,24.45,71.82,67.68677,67.68677,0,0,1-84.24,47.75,68.73035,68.73035,0,0,1-47.79-81.18,67.69459,67.69459,0,0,1,56.92993-51.99,15.07548,15.07548,0,0,0,12.4502-10.54L420.47,278.84l2.04-6.7,8.11987-26.7,2.04-6.7,1.74-5.72a47.06973,47.06973,0,0,0-.63989-29.31l-.2-.57a7.606,7.606,0,0,1-.17993-4.48L445.2,154.1a7.52679,7.52679,0,0,1,9.24-5.33l27.77,7.51A7.61546,7.61546,0,0,1,487.57007,165.58Z"/><path fill="#935b44" d="M482.21,156.28l-27.77-7.51a7.51528,7.51528,0,0,0-7.17773,1.845L468.21,156.28a7.61546,7.61546,0,0,1,5.36011,9.3l-11.79,44.47a7.529,7.529,0,0,1-2.49,3.89,46.95808,46.95808,0,0,0-16.01,26.02l-1.15015,5.13-1.52978,6.83L434.5,279.18l-1.53,6.83-19.03,84.99a15.10037,15.10037,0,0,0,5.40015,15.26,68.569,68.569,0,0,1,24.45,71.82,67.68245,67.68245,0,0,1-58.395,50.035A67.67378,67.67378,0,0,0,457.79,458.08,68.569,68.569,0,0,0,433.34009,386.26,15.10037,15.10037,0,0,1,427.93994,371l19.03-84.99,1.53-6.83,6.1001-27.26,1.52978-6.83,1.15015-5.13a46.95808,46.95808,0,0,1,16.01-26.02,7.529,7.529,0,0,0,2.49-3.89l11.79-44.47A7.61546,7.61546,0,0,0,482.21,156.28Z"/><ellipse cx="376.237" cy="413.262" fill="#d9b3a6" rx="11.322" ry="11.383" transform="rotate(-30 376.238 413.261)"/><ellipse cx="419.095" cy="424.868" fill="#d9b3a6" rx="11.322" ry="11.383" transform="rotate(-30 419.095 424.868)"/><path fill="#d1a08f" d="M423.0752 414.243a11.32119 11.32119 0 0 1-12.7251 16.61426c-.3667-.09924-.72315-.21692-1.0708-.34882A11.33727 11.33727 0 1 0 423.0752 414.243zM380.22769 402.63984a11.32119 11.32119 0 0 1-12.7251 16.61426c-.3667-.09925-.72314-.21692-1.0708-.34882a11.33727 11.33727 0 1 0 13.7959-16.26544z"/><path fill="#d9b3a6" d="M482.20508,156.28455l-27.76026-7.51722a7.52814,7.52814,0,0,0-9.24462,5.33747l-5.864,22.11957h0L481.707,187.69861h0l5.864-22.11987A7.60884,7.60884,0,0,0,482.20508,156.28455Z"/><path fill="#d1a08f" d="M468.6438,184.161l13.06225,3.53729,5.864-22.11834a7.62817,7.62817,0,0,0-5.365-9.29541l-16.63428-4.5044L454.43994,148.77a7.52288,7.52288,0,0,0-.93432-.18744c-.05347-.00745-.10669-.01184-.16041-.01813a7.4478,7.4478,0,0,0-.78784-.05084c-.05249-.00055-.105-.00238-.157-.00189a7.45717,7.45717,0,0,0-1.84033.2475l-.02612.00756a7.52352,7.52352,0,0,0-.86646.29169l-.03638.01447a7.59923,7.59923,0,0,0-2.3684,1.54174l-.00049.00031L468.21,156.28a7.61546,7.61546,0,0,1,5.36011,9.3Z"/><path d="M313.09461,66.11084l.07911.063a3.50011,3.50011,0,1,0,4.36132-5.47559l-.0791-.063a3.50012,3.50012,0,1,0-4.36133,5.47559ZM295.76747,55.17871l.09082.04395a3.49983,3.49983,0,1,0,3.04882-6.30078l-.09082-.044a3.49983,3.49983,0,0,0-3.04882,6.30078Zm34.59863,23.3252-2.7627,2.14892a3.50005,3.50005,0,0,0,5.52539-4.29785l-.1123-.14111a3.5,3.5,0,0,0-5.43262,4.41406Zm-102.71875,157.106a16.047,16.047,0,0,1-9.10889,2.63965,15.79736,15.79736,0,0,1-8.36182-2.63867,3.50006,3.50006,0,1,0-3.87011,5.833,22.79259,22.79259,0,0,0,12.06738,3.80371c.17822.00439.35449.00635.53027.00635a23.11052,23.11052,0,0,0,12.61036-3.80909,3.50007,3.50007,0,0,0-3.86719-5.835Zm121.69922-80.20947a3.52441,3.52441,0,0,0-4.16407,2.65527l3.39942.83545-3.4043-.813a3.5,3.5,0,1,0,6.8086,1.626l.04589-.20605A3.4755,3.4755,0,0,0,349.34657,155.40039Zm-9.32813,26.669a3.429,3.429,0,0,0,1.498.34375,3.55932,3.55932,0,0,0,3.19433-2.00489,3.49983,3.49983,0,1,0-6.28125-3.08886l-.05371.11035A3.46721,3.46721,0,0,0,340.01844,182.06934ZM190.5409,387.23877l-.03027-.14648a3.45737,3.45737,0,0,0-4.11524-2.65479,3.543,3.543,0,0,0-2.72265,4.15381,3.5,3.5,0,0,0,6.86816-1.35254Zm147.97364-289.187a3.43961,3.43961,0,0,0,3.11132,1.94775,3.5154,3.5154,0,0,0,3.15528-5.06836,3.50018,3.50018,0,0,0-6.32032,3.00977ZM198.25868,417.40332l3.01953-1.77a3.50008,3.50008,0,0,0-6.03907,3.54c.00782.0127.06543.11035.07325.123a3.49982,3.49982,0,0,0,5.99316-3.61621ZM345.24891,117.43359a3.54867,3.54867,0,1,0-.0459-.206Zm2.22754,20.2251v.10108a3.5,3.5,0,0,0,7,0v-.10108a3.5,3.5,0,1,0-7,0Zm-152.7002,264.3086c-.00537-.01514-.04589-.123-.05175-.13819a3.45754,3.45754,0,0,0-4.47657-1.9873,3.54283,3.54283,0,0,0-2.04687,4.52588,3.49982,3.49982,0,0,0,6.57519-2.40039ZM179.44715,81.14355a3.49933,3.49933,0,0,0,4.92285-.51269l.083-.10352a3.4705,3.4705,0,0,0-.5791-4.89111,3.53329,3.53329,0,0,0-4.42676,5.50732ZM372.39051,427.59814a14.9114,14.9114,0,0,0,3.90039.52247,14.79462,14.79462,0,0,0,14.26465-11.01026A14.94683,14.94683,0,0,0,380.039,398.894a14.77926,14.77926,0,0,0-18.165,10.4878A14.94682,14.94682,0,0,0,372.39051,427.59814Zm-3.751-16.42285a7.78541,7.78541,0,0,1,7.51074-5.80029,7.91619,7.91619,0,0,1,7.63965,9.94141v.00048a7.77965,7.77965,0,0,1-9.56934,5.52442A7.93164,7.93164,0,0,1,368.63954,411.17529ZM173.48768,177.24023A3.46516,3.46516,0,0,0,168.83,175.6499a3.53869,3.53869,0,0,0,1.55371,6.707,3.50169,3.50169,0,0,0,3.15771-5.00586Zm-9.37988-64.21582a3.53946,3.53946,0,1,0,2.62646,4.28516l.03125-.13574A3.4734,3.4734,0,0,0,164.1078,113.02441Zm2.6333,44.89063a3.50008,3.50008,0,1,0-6.83106,1.5293l.03125.13574a3.49981,3.49981,0,1,0,6.81348-1.60352ZM255.97743,221.144a3.5,3.5,0,1,0-3.5-3.5A3.49994,3.49994,0,0,0,255.97743,221.144ZM422.21864,457.3623l-64.77442-17.541a3.50014,3.50014,0,0,0-1.83008,6.75683l64.77442,17.541a3.50015,3.50015,0,0,0,1.83008-6.75684Zm87.15527-291.439a3.49959,3.49959,0,0,0-4.2793,2.48633l-1.29614,4.89-13.697-3.709.83008-3.13117a11.133,11.133,0,0,0-7.834-13.56885l-27.76074-7.51757a11.02757,11.02757,0,0,0-13.542,7.81933l-.82031,3.0943-13.69629-3.70917,1.30566-4.92565a3.49971,3.49971,0,1,0-6.76562-1.79395l-2.1919,8.269-.00146.00391-.00074.00464-2.20141,8.30493a3.49971,3.49971,0,1,0,6.76562,1.79395l1.29615-4.89014,13.696,3.7091-3.24487,12.23987-.00025.00074v.00085l-4.26733,16.09607-13.71167-3.713,1.30615-4.926A3.49971,3.49971,0,1,0,412.497,180.958l-4.39649,16.58252a3.49971,3.49971,0,1,0,6.76563,1.79394l1.29638-4.88995,13.72706,3.7171a11.06488,11.06488,0,0,0,.35449,6.12695l.20312.57276a43.22948,43.22948,0,0,1,.58692,27.11963l-1.77051,5.822-15.61743-4.22937,1.30591-4.9256a3.49971,3.49971,0,1,0-6.76563-1.79395l-4.39648,16.58252a3.49971,3.49971,0,1,0,6.76562,1.79395l1.29663-4.89032,15.37354,4.16333-8.12183,26.70636-14.41357-3.90314,1.30566-4.92584a3.49971,3.49971,0,1,0-6.76562-1.79395l-4.39551,16.58252a3.49971,3.49971,0,1,0,6.76562,1.79395l1.29615-4.89,14.16943,3.837-25.29468,83.1731a11.58847,11.58847,0,0,1-6.33105,7.16815c-1.5857-.84619-3.19971-1.64868-4.8418-2.35321l-.83887-.36023L346.83436,275.124a21.69262,21.69262,0,0,0-4.856-20.86981,16.87542,16.87542,0,0,0,4.124-9.60626c.00683-.07813.01171-.15625.01367-.23438,0-.00927.04-1.56445.1289-4.09961.08008-2.55419.2002-6.08593.35059-10.03955a16.97808,16.97808,0,0,0-5.40478-13.01513,115.52705,115.52705,0,0,0,31.397-79.665,116.5697,116.5697,0,0,0-90.05811-113.5365c-.34424-.78516-.7102-1.56378-1.12353-2.32629A30.42927,30.42927,0,0,0,272.913,11.8667L258.08387.68945a3.49811,3.49811,0,0,0-4.21289,0L239.04188,11.8667a30.42912,30.42912,0,0,0-8.49316,9.86475c-.41333.76251-.77906,1.54119-1.12354,2.32635a116.56845,116.56845,0,0,0-90.05762,113.53644,115.527,115.527,0,0,0,31.35376,79.61835,16.68457,16.68457,0,0,0-5.29126,12.79669c.30469,7.90674.48584,14.31543.48731,14.31494a3.88945,3.88945,0,0,0,.022.4043l.00293.0332a16.77978,16.77978,0,0,0,4.02588,9.49914,21.6973,21.6973,0,0,0-4.84827,20.86121l-33.59753,92.25415a63.97481,63.97481,0,0,0-38.0249,58.158v43.77124c-.00013.0116-.00342.02234-.00342.03394s.00329.02233.00342.03393v20.93213c-.00013.0116-.00342.02234-.00342.03394s.00329.02233.00342.03393v18.11109a3.5,3.5,0,0,0,7,0v-14.645H149.4076v14.645a3.49987,3.49987,0,0,0,3.5,3.5l.00073-.00007.00074.00007a3.49987,3.49987,0,0,0,3.5-3.5v-12.1355l198.87622-133.7041,18.84009,8.09173a70.69646,70.69646,0,0,0-51.80127,53.11115A72.04075,72.04075,0,0,0,392.455,512.002a70.25149,70.25149,0,0,0,19.63623-2.8042,3.49986,3.49986,0,0,0,6.92627-.71337v-1.69056a72.27443,72.27443,0,0,0,8.41894-4.07946,70.73251,70.73251,0,0,0,33.71191-43.75049,71.87886,71.87886,0,0,0-25.69335-75.4961,11.60518,11.60518,0,0,1-4.125-11.71533l29.34277-131.04785a43.66714,43.66714,0,0,1,14.8125-24.07666,10.94457,10.94457,0,0,0,3.49609-5.17188l13.70166,3.71027-1.30615,4.926a3.49971,3.49971,0,1,0,6.76563,1.79394l4.39648-16.58252a3.49971,3.49971,0,1,0-6.76563-1.79394l-1.29638,4.88995-13.68189-3.7049,7.51245-28.33752,13.69727,3.70911-1.30566,4.92578a3.49971,3.49971,0,1,0,6.76562,1.79394l4.39551-16.58252A3.49922,3.49922,0,0,0,509.37391,165.92334ZM281.40614,50.9248a30.52989,30.52989,0,0,0,3.36816-19.08911,109.58981,109.58981,0,0,1,80.81348,105.75855,108.58973,108.58973,0,0,1-31.95386,77.39313,3.46907,3.46907,0,0,0-.4646.45294q-1.459,1.439-2.97876,2.829l4.82105-29.32691c.00683-.04345.01269-.08642.01855-.12988a71.08683,71.08683,0,0,0-1.50391-25.81659,81.53413,81.53413,0,0,0-37.25854-96.33984,18.03324,18.03324,0,0,0-15.00586-15.465ZM214.76405,417.24268l-24.49878,16.41064a76.86324,76.86324,0,0,1-16.41773-47.439V361.54364l.49756-.14844A111.64293,111.64293,0,0,0,203.19764,383.885v2.32941A47.7542,47.7542,0,0,0,214.76405,417.24268Zm-4.53614-29.84809a111.20538,111.20538,0,0,0,35.00025,9.44147l-24.59668,16.47626A40.72662,40.72662,0,0,1,210.22791,387.39459ZM181.8628,359.15253l23.54187-7.02314a22.99745,22.99745,0,0,0,2.30249-.83648,81.18627,81.18627,0,0,0,96.87085.14508c.64331.25665,1.29859.49115,1.97071.69092l3.75244,1.11743L254.87025,390.3772A104.44358,104.44358,0,0,1,181.8628,359.15253Zm74.37732,1.24395a73.4756,73.4756,0,0,1-42.11963-13.11364,23.60337,23.60337,0,0,0,8.0669-17.66858V322.133a70.02518,70.02518,0,0,0,32.08691,7.70831h1.70361a71.25015,71.25015,0,0,0,33.78956-8.43634v8.20929a23.61467,23.61467,0,0,0,8.29345,17.87366A73.48905,73.48905,0,0,1,256.24012,360.39648Zm35.05005-48.04742a64.1585,64.1585,0,0,1-35.31226,10.49225H254.2743A62.83074,62.83074,0,0,1,196.27039,284.618c-.01708-.04651-.02319-.0943-.04248-.1405-.03076-.074-.07666-.13629-.11181-.207a62.38266,62.38266,0,0,1-4.75684-24.00489l.00049-26.68945a37.95417,37.95417,0,0,1,15.86279-30.82471,44.59406,44.59406,0,0,1,25.97754-8.34472,45.07771,45.07771,0,0,1,6.02295.40478l16.28711,2.19336a3.48171,3.48171,0,0,0,.93457,0l16.28662-2.19336a44.60574,44.60574,0,0,1,32.001,7.93994,37.95724,37.95724,0,0,1,15.86328,30.82618v24.64062a64.4585,64.4585,0,0,1-5.37085,25.83679c-.00659.01361-.01636.02448-.0227.03821-.00879.01917-.01172.03931-.02027.05853a64.56052,64.56052,0,0,1-13.512,19.7613,65.21033,65.21033,0,0,1-10.31592,8.39563C291.33265,312.32251,291.31092,312.33478,291.29017,312.34906Zm17.5105-115.29388a51.60234,51.60234,0,0,0-37.00293-9.18116l-15.82031,2.13037L240.15711,187.874a51.6088,51.6088,0,0,0-37.00341,9.18116,44.89889,44.89889,0,0,0-14.81006,18.08117l-4.48194-27.26379a64.74835,64.74835,0,0,1,27.36524-61.0824,25.40321,25.40321,0,0,0,14.15869,4.29382h61.18359a25.40506,25.40506,0,0,0,14.15894-4.29376,64.74621,64.74621,0,0,1,27.3645,61.08234l-4.48193,27.26337A44.89409,44.89409,0,0,0,308.80067,197.05518Zm3.31811-91.727c-.00464-.58576-.03271-1.16578-.07641-1.74164-.01221-.16419-.022-.3288-.03736-.49207-.05737-.602-.13769-1.1969-.23608-1.78613-.02783-.16638-.05786-.33148-.08887-.4967-.11181-.59534-.2395-1.18482-.3916-1.765-.03223-.12225-.06982-.242-.10351-.36352q-.23183-.83148-.51563-1.6402c-.02905-.08179-.054-.16522-.08374-.24664-.21313-.58466-.45288-1.15632-.70679-1.72022-.053-.11725-.10449-.23474-.15893-.35107q-.39-.832-.83716-1.63037c-.05566-.09943-.11328-.19715-.17017-.29572-.31836-.55157-.6521-1.0932-1.00952-1.61792-.01855-.02728-.03857-.05347-.05737-.08063q-.553-.8052-1.16626-1.56384c-.03027-.03778-.05908-.07678-.08984-.11438-.4126-.507-.84717-.99518-1.29688-1.46893-.0498-.05255-.09936-.10511-.1499-.15723q-.68666-.71109-1.425-1.369c-.02808-.025-.05689-.04895-.08521-.07379a25.706,25.706,0,0,0-3.33227-2.48681l-.022-.0141q-.88477-.55326-1.81665-1.03339l-.06421-.033a25.35365,25.35365,0,0,0-6.03247-2.18573l-.01758-.00476a18.04551,18.04551,0,0,0,3.42822-6.2085,74.50146,74.50146,0,0,1,33.81152,76.49652,71.53293,71.53293,0,0,0-23.29834-28.86364c.05884-.06934.10816-.14453.16626-.21436.32373-.391.63306-.79425.93384-1.20434.16992-.23157.33692-.4643.49854-.70075q.3999-.5853.76782-1.19281c.16455-.27185.3208-.54718.47461-.82446.16308-.29376.31811-.59235.46948-.89307q.29627-.58731.56128-1.18756c.1228-.27838.2395-.55975.35254-.8432q.23913-.60068.44751-1.21216.17322-.50884.32617-1.02661c.07568-.25775.15332-.5141.2207-.77454.13282-.51159.24537-1.03088.34668-1.55432.04395-.22906.0857-.45831.12354-.689.09228-.55884.1687-1.12262.22388-1.69293.01757-.184.02856-.369.04223-.5539.04224-.563.06934-1.13.07447-1.70251.00048-.07349.00952-.14557.00952-.21918C312.12782,105.46478,312.11927,105.39746,312.11878,105.32819Zm-6.99487.2016A18.57514,18.57514,0,0,1,286.56922,124.084H225.38563a18.58559,18.58559,0,0,1-18.17383-14.80883l-.00513-.02637a18.55671,18.55671,0,0,1,16.18238-22.16162c.03637-.00391.07177-.01227.10791-.01593a18.697,18.697,0,0,1,1.88867-.09564h61.18359A18.57514,18.57514,0,0,1,305.12391,105.52979ZM219.55164,80.65546q-.572.13412-1.13378.29358c-.17823.05017-.35718.098-.53418.152q-.653.201-1.29151.43409c-.28662.10461-.56811.22107-.85058.33593-.1587.06488-.31739.12976-.47412.1977a25.52768,25.52768,0,0,0-15.44,23.46539c0,.07172.00879.142.00953.21362.00488.584.03295,1.1623.07666,1.73645.01293.1695.0227.33924.03881.50806.05713.5965.13794,1.18579.23584,1.76971q.04761.28546.10181.56879c.10889.57007.23315,1.13452.37915,1.69055.05078.19391.10889.38489.16431.57733q.204.70669.44531,1.39679c.09253.26343.19092.52369.292.78369q.22852.58613.48462,1.15778c.12427.27844.251.55505.38526.8288q.293.59564.61645,1.17285c.14282.2561.28687.51044.43848.76166q.3684.61009.76977,1.1972c.17017.24927.34571.49414.5249.73761.28394.386.5752.7663.87989,1.13544.06738.08178.12573.16992.19433.25091a71.5368,71.5368,0,0,0-23.29675,28.86274,74.50573,74.50573,0,0,1,33.81165-76.49708,18.04857,18.04857,0,0,0,3.42358,6.20319C219.71839,80.60907,219.63612,80.6358,219.55164,80.65546Zm-43.9248,177.83233a16.58235,16.58235,0,0,0,6.88037,1.49659h1.85205v.28124a69.55573,69.55573,0,0,0,3.97217,23.25562,14.72744,14.72744,0,0,1-12.70459-25.03345Zm-3.20166-28.7456a9.64583,9.64583,0,0,1,3.25269-7.56067q3.74853,3.54171,7.84631,6.79046l.83557,5.08289-.00037,18.92951h-1.85217a9.63581,9.63581,0,0,1-9.58935-8.80713l-.00489-.06495C172.88709,243.21436,172.70936,237.12646,172.42518,229.74219ZM336.22987,222.225a9.93653,9.93653,0,0,1,3.3706,7.78668c-.15136,3.96924-.27148,7.51758-.35156,10.06982-.07519,2.145-.11621,3.60254-.127,4.02588a9.85465,9.85465,0,0,1-4.19849,7.11713l-.01172.008a9.85953,9.85953,0,0,1-5.62475,1.75184h-1.69141V234.05493l.83569-5.08331Q332.501,225.7464,336.22987,222.225Zm-8.67725,37.75934H329.287a16.91957,16.91957,0,0,0,7.01318-1.52314,14.73125,14.73125,0,0,1-13.2644,24.962A71.50346,71.50346,0,0,0,327.55262,259.98438ZM236.703,25.06738a23.47293,23.47293,0,0,1,6.55176-7.61084l12.72266-9.58935,12.72265,9.58935a23.63276,23.63276,0,0,1,6.55176,30.13233l-1.81836,3.355h-34.9126l-1.81787-3.355A23.55277,23.55277,0,0,1,236.703,25.06738Zm-.27051,32.87647.00733.00049.0039-.00049H278.4159a11.01539,11.01539,0,0,1,.01929,22.03076H267.077l-.00977.001H244.88709l-.00976-.001H233.51917a11.01539,11.01539,0,0,1,.01929-22.03076Zm-90.06494,79.65039A109.58894,109.58894,0,0,1,227.1808,31.83551a30.53182,30.53182,0,0,0,3.36792,19.08881l.14453.26666a18.03346,18.03346,0,0,0-15.00562,15.46454,81.53512,81.53512,0,0,0-37.25854,96.34057,71.0806,71.0806,0,0,0-1.5044,25.81641c.00586.04346.01172.08643.019.12988l4.82105,29.32727q-1.53077-1.4024-3.00281-2.8526a3.46888,3.46888,0,0,0-.4845-.47223A108.59005,108.59005,0,0,1,146.36756,137.59424Zm23.23658,145.67a21.55411,21.55411,0,0,0,21.447,6.83881,69.48113,69.48113,0,0,0,13.73242,19.36468,70.25987,70.25987,0,0,0,10.40381,8.54535v11.60114a16.58151,16.58151,0,0,1-11.78028,15.80615l-34.15075,10.18787-.028.00836-29.13989,8.693ZM149.40907,478.857c0,.01587-.00147.03144-.00147.04731v7.93506H100.49745v-14h48.91162Zm3.5-27.01763a3.49985,3.49985,0,0,0-3.5,3.5v10.5H100.49745V425.53418a56.8617,56.8617,0,0,1,40.35058-54.146l25.99951-7.75628v22.58246a83.87228,83.87228,0,0,0,17.58472,51.34637l-20.16138,13.50519a33.51217,33.51217,0,0,0-7.86181,7.34924v-3.0758A3.49986,3.49986,0,0,0,152.90907,451.83936Zm3.5,36.0744v-9.05683a26.45246,26.45246,0,0,1,11.75634-21.97461l89.69532-60.08306v-.00013l63.9331-42.826A11.48632,11.48632,0,0,1,332.73622,352.96l14.89282,6.39642ZM335.495,346.52686a18.45909,18.45909,0,0,0-17.5957,1.62988l-.0498.03332-9.30469-2.77063a16.58037,16.58037,0,0,1-11.77734-15.80517V317.08832a71.81811,71.81811,0,0,0,23.43481-27.138,21.749,21.749,0,0,0,22.14673-6.68415L370.92787,361.745Zm70.70557-8.83063,24.11987,6.53155-5.09008,22.73328-25.80445-6.98785Zm24.981,51.31549a64.8961,64.8961,0,0,1,23.20117,68.1582,64.17943,64.17943,0,0,1-79.8916,45.27783,65.23336,65.23336,0,0,1-45.34668-77.0249,63.797,63.797,0,0,1,53.99512-49.30566,18.67739,18.67739,0,0,0,13.87207-9.54529l27.04711,7.32434A18.54041,18.54041,0,0,0,431.18153,389.01172Zm.66992-51.62177-23.613-6.39434,6.7749-22.27686,21.92847,5.93823Zm6.62109-29.5708-21.42138-5.801,6.7749-22.2771,19.73682,5.34472Zm6.62134-29.57123-19.23-5.20745,8.12183-26.70624,17.21045,4.66077Zm28.08984-72.15832c-.01708.05292-.04418.09979-.05883.15405-.01636.06024-.01709.12036-.03.18073l-.72095,2.71966a3.99566,3.99566,0,0,1-1.334,2.07666,50.694,50.694,0,0,0-17.19727,27.95459l-1.11548,4.98188-16.70361-4.52356,1.70776-5.61554a50.1806,50.1806,0,0,0-.68359-31.48633l-.20215-.57129a4.101,4.101,0,0,1-.09668-2.41992l5.0459-19.03339,35.61426,9.64441ZM484.1659,164.666l-1.71191,6.4569-.00781.02063c-.0022.00806-.002.01612-.00391.02417L479.203,183.385l-35.61426-9.64441,3.23853-12.21637.00854-.02368c.0022-.00781.002-.01557.00391-.02338l1.7207-6.49078a4.01877,4.01877,0,0,1,4.94629-2.85645l27.76075,7.51758A4.118,4.118,0,0,1,484.1659,164.666ZM422.89735,410.5a14.77933,14.77933,0,0,0-18.165,10.4873,14.92485,14.92485,0,0,0,14.417,18.73926A14.79538,14.79538,0,0,0,433.414,428.71729v-.00049A14.948,14.948,0,0,0,422.89735,410.5Zm3.751,16.42285a7.78158,7.78158,0,0,1-9.56933,5.5249,7.93131,7.93131,0,0,1-5.58106-9.666,7.7849,7.7849,0,0,1,7.51075-5.80078,7.91629,7.91629,0,0,1,7.63964,9.94189Zm-8.95507,47.50977-64.77442-17.541a3.50015,3.50015,0,0,0-1.83008,6.75684l64.77442,17.541a3.50014,3.50014,0,0,0,1.83008-6.75683ZM306.63075,236.59375a3.50024,3.50024,0,0,0-4.85059-.98389,16.02347,16.02347,0,0,1-9.10937,2.63965,15.80662,15.80662,0,0,1-8.36231-2.63867,3.49979,3.49979,0,1,0-3.86914,5.833,22.79722,22.79722,0,0,0,12.06738,3.80371q.26661.00659.53028.00635a23.11348,23.11348,0,0,0,12.61035-3.80909A3.49948,3.49948,0,0,0,306.63075,236.59375ZM255.97743,44.07568a11.12524,11.12524,0,1,0-11.125-11.12548A11.13748,11.13748,0,0,0,255.97743,44.07568Zm0-15.25048a4.12524,4.12524,0,1,1-4.125,4.125A4.12982,4.12982,0,0,1,255.97743,28.8252Zm0,108.79589a23.5,23.5,0,1,0,23.5,23.5A23.52654,23.52654,0,0,0,255.97743,137.62109Zm0,40a16.5,16.5,0,1,1,16.5-16.5A16.51866,16.51866,0,0,1,255.97743,177.62109Zm11.65234,111.792a21.33819,21.33819,0,0,1-12.14844,3.5205,21.07788,21.07788,0,0,1-11.15478-3.51953,3.50007,3.50007,0,1,0-3.87012,5.833,28.0699,28.0699,0,0,0,14.85986,4.68457c.21924.00537.43555.00781.65186.00781a28.46452,28.46452,0,0,0,15.52881-4.6914,3.50007,3.50007,0,1,0-3.86719-5.835ZM196.681,66.87354a3.4833,3.4833,0,0,0,2.17773-.76221l.07911-.063a3.49982,3.49982,0,0,0-4.36036-5.47559l-.0791.063a3.5,3.5,0,0,0,2.18262,6.2378ZM168.81336,99.5791a3.4964,3.4964,0,0,0,4.67481-1.626l.04394-.09082a3.49983,3.49983,0,1,0-6.30078-3.04882l-.04394.09082A3.49924,3.49924,0,0,0,168.81336,99.5791Zm-4.335,38.01856v-.0542a3.5,3.5,0,0,0-7,0v.10107a3.47993,3.47993,0,0,0,3.5,3.47656A3.51994,3.51994,0,0,0,164.4784,137.59766Zm50.19434-82.07227a3.49185,3.49185,0,0,0,1.50244-.34082l.11084-.05371a3.46613,3.46613,0,0,0,1.59033-4.65772,3.5309,3.5309,0,1,0-3.20361,5.05225Z"/></svg>