<svg xmlns="http://www.w3.org/2000/svg" data-name="Layer 1" viewBox="0 0 512 512"><path fill="#fee903" d="M103.40154,140.70847c-8.60946,15.57548-8.9636,27.19467-7.34765,35.27137,2.88028,14.39608,6.7221,19.2907,17.44461,35.4067,8.27649,12.43956,6.87023,27.76574-1.84532,35.95-8.327,7.81925-20.12868,6.11721-21.81963,5.84656l6.18063,23.06643c3.89371-.06685,26.4741-.81841,41.44368-18.90884,3.36086-4.06147,11.28874-13.64223,10.83181-26.09977-.63249-17.24122-16.701-22.95521-30.08921-44.10183C112.43579,178.03368,105.38945,163.258,103.40154,140.70847Z"/><path fill="#fac600" d="M118.20044,187.139c-5.76465-9.10535-12.811-23.881-14.79883-46.4306-6.3125,11.42-8.17847,20.70465-8.09253,28.034a90.84166,90.84166,0,0,0,8.89136,18.39661c13.38818,21.1466,29.45679,26.86059,30.08923,44.1018.45691,12.45752-7.47094,22.03833-10.83178,26.0998-8.4646,10.22925-19.36072,14.91272-27.93763,17.06524q.24683.92176.4939,1.84357c3.8938-.06683,26.47412-.81842,41.44373-18.90881,3.36084-4.06147,11.28869-13.64228,10.83178-26.0998C147.65723,213.99963,131.58862,208.28564,118.20044,187.139Z"/><path fill="#fee903" d="M3.5,167.477c15.24375,9.184,21.36,19.06948,23.99894,26.87208,4.70364,13.90752,3.82384,20.06729,2.59587,39.38541-.94788,14.91122,7.93307,27.481,19.57307,30.21092,11.121,2.60815,20.49055-4.76669,21.81963-5.84656l6.18063,23.06644c-3.40548,1.889-23.33644,12.52828-45.34569,4.3463-4.94133-1.8369-16.59746-6.17015-22.43051-17.18716-8.07287-15.24758,2.98588-28.23029,4.0071-53.23791C14.33871,204.31871,13.05321,187.99946,3.5,167.477Z"/><path fill="#fac600" d="M20.499,201.34906c4.70362,13.90753,3.82373,20.06732,2.59571,39.38544-.94776,14.91119,7.9331,27.48095,19.57312,30.21087a21.44407,21.44407,0,0,0,7.50241.392,18.01258,18.01258,0,0,1,19.53654,13.24l.05272.19675a58.24458,58.24458,0,0,0,7.90869-3.60889q-3.09045-11.53326-6.18066-23.06646c-1.3291,1.07989-10.69861,8.45471-21.8197,5.84655-11.64-2.72992-20.52088-15.29968-19.57312-30.21087,1.228-19.31812,2.10791-25.47791-2.59571-39.38544C24.86011,186.54645,18.74377,176.661,3.5,167.477a120.08409,120.08409,0,0,1,6.584,17.46881A42.583,42.583,0,0,1,20.499,201.34906Z"/><path fill="#fee903" d="M71.9483,259.75611l-.00005,0A73.00458,73.00458,0,0,0,67.757,231.43445a72.74923,72.74923,0,0,0-5.0572-11.07315,18.9743,18.9743,0,0,0-17.92067-9.63973,2.22559,2.22559,0,0,1-2.1202-3.29789,87.929,87.929,0,0,0,9.068-24.54347,87.75152,87.75152,0,0,0,1.78936-20.18606,2.22254,2.22254,0,0,1,4.17852-1.11963,87.70975,87.70975,0,0,0,31.76751,33.30823,2.22559,2.22559,0,0,1-.1872,3.91616,18.97427,18.97427,0,0,0-10.69989,17.30858,72.8344,72.8344,0,0,0,11.688,38.74111l0,.00007Z"/><path fill="#fac600" d="M78.5752,216.10748a18.97422,18.97422,0,0,1,10.7-17.30859,2.22556,2.22556,0,0,0,.18713-3.91614,87.70915,87.70915,0,0,1-31.76746-33.30823,2.22258,2.22258,0,0,0-4.17858,1.11963c.06481,2.39063.02954,4.947-.1305,7.63184a87.36169,87.36169,0,0,0,26.33191,24.55676,2.22556,2.22556,0,0,1-.18713,3.91614,18.97422,18.97422,0,0,0-10.7,17.30859,72.83616,72.83616,0,0,0,11.688,38.74109v.00006l-8.48584,2.27375c-.01367.94543-.0437,1.82824-.08447,2.63366v.00006l18.31494-4.90747v-.00006a72.83616,72.83616,0,0,1-11.688-38.74109Z"/><rect width="25.58" height="32.686" x="71.079" y="251.272" fill="#fe9738" rx="5.564" transform="rotate(-15 83.869 267.614)"/><path fill="#fe860a" d="M99.01318,274.71667l-5.57959-20.82312a5.56351,5.56351,0,0,0-6.21191-4.059l1.051,3.92254a20.01618,20.01618,0,0,1-14.15356,24.51471h0a5.62092,5.62092,0,0,1-.60266.12457l.78793,2.94085a5.56417,5.56417,0,0,0,6.81473,3.93458l13.95963-3.74049A5.5641,5.5641,0,0,0,99.01318,274.71667Z"/><path fill="#fee903" d="M97.79833,281.186h14.259a0,0,0,0,1,0,0V404.09992a7.12947,7.12947,0,0,1-7.12947,7.12947h0a7.12948,7.12948,0,0,1-7.12948-7.12948V281.186A0,0,0,0,1,97.79833,281.186Z" transform="rotate(-15 104.928 346.208)"/><path fill="#aa6a51" d="M449.69121,512a1.9978,1.9978,0,0,1-1.99721-2.06077c.1931-6.75168.09622-14.13639-.46524-22.05294-.52258-7.36865-1.37744-14.20886-2.40881-20.4563L442.16,451.62a12.25965,12.25965,0,0,1,.14-4.79l3.62-15.62A210.62941,210.62941,0,0,0,403.84,250.5a36.74116,36.74116,0,0,1,47.78-54.49l11.85,7.33a12.25636,12.25636,0,0,1-12.89,20.85l-11.53327-7.13411a12.71676,12.71676,0,0,0-9.23577-1.76721A12.22815,12.22815,0,0,0,422.82,235,235.01958,235.01958,0,0,1,469.79,436.74L466.73,449.97l2.26,13.39a225.70878,225.70878,0,0,1,3.00905,46.72983,1.99556,1.99556,0,0,1-2,1.91018Z"/><path fill="#935b44" d="M466.73 449.97L469.79 436.74a235.02 235.02 0 0 0-46.97-201.74 12.22045 12.22045 0 0 1 2.49512-17.778l-.26836-.166a12.71675 12.71675 0 0 0-9.23581-1.76732A12.228 12.228 0 0 0 408.82007 235a235.02 235.02 0 0 1 46.97 201.74L452.73 449.97l2.26 13.39c1.14209 6.85363 2.08984 14.37133 2.66626 22.48a240.513 240.513 0 0 1 .4325 26.16H469.999a1.99556 1.99556 0 0 0 2-1.91018A225.70878 225.70878 0 0 0 468.99 463.36zM437.62 196.01l11.85 7.33a12.25105 12.25105 0 0 1 .53662 20.49536l.57349.35467A12.25636 12.25636 0 0 0 463.47 203.34l-11.85-7.33a36.49379 36.49379 0 0 0-26.28553-4.81946A36.74421 36.74421 0 0 1 437.62 196.01z"/><rect width="52.596" height="36.256" x="432.06" y="439.38" fill="#fee903" rx="8.752" transform="rotate(-88.266 458.358 457.508)"/><path fill="#fed402" d="M468.52482,431.5058l-5.735-.17365a8.73481,8.73481,0,0,1,.21851,2.18683l-.668,22.06742a21.766,21.766,0,0,1-22.41473,21.0975h0a8.748,8.748,0,0,0,8.265,6.82641l18.74268.56739a8.75249,8.75249,0,0,0,9.01331-8.48365L477.0083,440.519A8.75236,8.75236,0,0,0,468.52482,431.5058Z"/><path fill="#fee903" d="M255.99988,22.57028a113.11313,113.11313,0,1,0,113.11328,113.1131A113.113,113.113,0,0,0,255.99988,22.57028Zm0,191.22607a78.113,78.113,0,1,1,78.11328-78.11279A78.20137,78.20137,0,0,1,255.99988,213.79635Z"/><path fill="#fac600" d="M224.77344 26.93872a27.1254 27.1254 0 0 0 1.58545 22.33368l2.8114 5.18689H268.251l2.81128-5.18689a27.12811 27.12811 0 0 0 .0841-25.68982 113.79854 113.79854 0 0 0-46.37292 3.35614zM248.99988 57.8999c-2.308-.20605-4.63928-.32965-7-.32965a78.113 78.113 0 1 0 0 156.22608c2.36072 0 4.692-.1236 7-.32966a78.0962 78.0962 0 0 1 0-155.56677z"/><path fill="#fac600" d="M255.99988,22.57025c-2.35156,0-4.684.08051-7,.22193a113.10767,113.10767,0,0,1,0,225.7824c2.316.14142,4.64844.22193,7,.22193a113.11313,113.11313,0,1,0,0-226.22626Z"/><polygon fill="#3c3b42" points="381.211 380.5 130.211 380.5 193.211 207.5 318.211 207.5 381.211 380.5"/><path fill="#2c2c2e" d="M371.54724,353.96423,307.28,334.794q-.675-.20136-1.32669-.44685a8.07211,8.07211,0,0,1-2.75362-13.27539A67.92035,67.92035,0,0,0,323.829,272.23383c-.00037-16.09833-.00061-19.174-.00061-24.64081A41.385,41.385,0,0,0,306.5,213.91882h-.00012a48.27574,48.27574,0,0,0-34.502-8.5603l-16.28735,2.19324-16.28723-2.19324a48.27541,48.27541,0,0,0-34.50195,8.5603h-.00013A41.383,41.383,0,0,0,187.5929,247.592c-.00013,6.20312-.00037,9.7-.00061,26.68927a65.715,65.715,0,0,0,19.81884,47.13043,8.0008,8.0008,0,0,1-3.14172,13.34359l-.1283.03874L139.8739,353.96423,130.21057,380.5h251Z"/><polygon fill="#2c2c2e" points="318.211 207.5 304.211 207.5 367.211 380.5 381.211 380.5 318.211 207.5"/><path fill="#2c2c2e" d="M325.71057,294.23535a18.25449,18.25449,0,0,0,18.14783-16.30578l-5.49463-15.0882a18.24909,18.24909,0,1,0-12.6532,31.394Z"/><circle cx="325.711" cy="268.981" r="18.255" fill="#fee903"/><path fill="#fac600" d="M334.62964,253.06183a18.24274,18.24274,0,0,1-24.838,24.838,18.24926,18.24926,0,1,0,24.838-24.838Z"/><path fill="#2c2c2e" d="M185.71057,294.23535a18.25455,18.25455,0,1,0-12.6532-31.39392l-5.4945,15.088A18.25433,18.25433,0,0,0,185.71057,294.23535Z"/><circle cx="185.711" cy="268.981" r="18.255" fill="#fee903"/><path fill="#ffbd86" d="M342.34687 244.34186v-.00012s.18015-6.27571.48-14.18463a13.38662 13.38662 0 0 0-13.37237-13.8954h-5.62628v40.23822h5.19379a13.3808 13.3808 0 0 0 13.32482-12.15807zM187.593 216.26172h-5.81272A13.13251 13.13251 0 0 0 168.661 229.89406c.30586 8.03237.49 14.44768.49 14.44768v.00012l.01115.12154a13.17022 13.17022 0 0 0 13.08257 12.03654h5.3483z"/><path fill="#fac600" d="M317.29224,188.38794c.20727-1.64233.34253-3.28021.42956-4.91327a78.05607,78.05607,0,0,1-139.65954-42.809,67.902,67.902,0,0,0-11.93335,47.72223l3.30371,20.09289A113.61425,113.61425,0,0,0,200.93079,234.5H309.71057Z"/><path fill="#fee903" d="M323.7106,234.5h-136l-7.58171-46.11207a67.97382,67.97382,0,0,1,40.75536-71.023L255.7106,102.5l34.82634,14.8649a67.97381,67.97381,0,0,1,40.75536,71.023Z"/><path fill="#fac600" d="M290.53687,117.36487,255.71057,102.5l-7,2.98779,27.8263,11.87708a67.97384,67.97384,0,0,1,40.75537,71.02307L309.71057,234.5h14l7.58167-46.11206A67.97384,67.97384,0,0,0,290.53687,117.36487Z"/><path fill="#09a76d" d="M414.68994,425.55V491H96.73V425.55a60.00467,60.00467,0,0,1,42.8501-57.5L204.14,348.79a19.98036,19.98036,0,0,0,14.27991-19.16v-19.6H293v19.6a19.99405,19.99405,0,0,0,13.12,18.78c.38.14.77.26,1.16.38l34.75,10.37,29.81006,8.89A60.0046,60.0046,0,0,1,414.68994,425.55Z"/><path fill="#02905d" d="M342.03,359.16c-6.41.8-11.56006-1.94-19.61011,3.47-11.22,7.54-5.63989,15.84-16.86987,23.39-11.22,7.54-16.8-.76-28.02,6.78-11.22,7.55-5.64,15.85-16.86011,23.39-11.23,7.55-16.80993-.75-28.02991,6.79-11.22009,7.55-5.64,15.85-16.86,23.39-11.23,7.55-16.81006-.75-28.03,6.8-11.22,7.54-5.64,15.84-16.87,23.39-10.25,6.89-15.79992.57-25.24,5.17v-9.81A29.99774,29.99774,0,0,1,158.95,446.99L306.12,348.41c.38.14.77.26,1.16.38Z"/><path fill="#fed2a4" d="M307.28,348.79407A20.00008,20.00008,0,0,1,292.997,329.62854V310.02625H218.42419v19.60229a20.00008,20.00008,0,0,1-14.28308,19.16553c4.4159,3.86792,24.027,20.17859,53.48194,19.459A79.31108,79.31108,0,0,0,307.28,348.79407Z"/><path fill="#ffbd86" fill-rule="evenodd" d="M218.42432,310.02625v15.26013a66.33258,66.33258,0,0,0,49.58337,22.07049h1.70349a67.85459,67.85459,0,0,0,27.30335-5.71026,19.96867,19.96867,0,0,1-4.01758-12.01813V310.02625Z"/><path fill="#fed2a4" fill-rule="evenodd" d="M255.71127,326.35688h-1.70359a66.14746,66.14746,0,0,1-66.41548-66.0756c.00037-16.98925.00058-20.48618.00069-26.68929a41.38294,41.38294,0,0,1,17.32839-33.67316l0,0a48.27528,48.27528,0,0,1,34.50193-8.56027l16.28734,2.19321,16.28735-2.19321a48.27529,48.27529,0,0,1,34.50193,8.56028l.00006,0a41.38494,41.38494,0,0,1,17.32838,33.6742c.00011,5.46683.0003,8.54246.00064,24.64081A68.121,68.121,0,0,1,255.71127,326.35688Z"/><path fill="#ffbd86" fill-rule="evenodd" d="M187.5929,247.592a41.383,41.383,0,0,1,17.32836-33.67316h.00013a48.27541,48.27541,0,0,1,34.50195-8.5603l16.28723,2.19324,16.28735-2.19324a48.27574,48.27574,0,0,1,34.502,8.5603H306.5a41.385,41.385,0,0,1,17.32837,33.6742c0,3.29437,0,5.72455.00024,10.65527l.00037-.01446c-.00037-16.09833-.00061-19.174-.00061-24.64081A41.385,41.385,0,0,0,306.5,199.91882h-.00012a48.27574,48.27574,0,0,0-34.502-8.5603l-16.28735,2.19324-16.28723-2.19324a48.27541,48.27541,0,0,0-34.50195,8.5603h-.00013A41.383,41.383,0,0,0,187.5929,233.592c-.00013,6.20312-.00037,9.7-.00061,26.68927l.00024.00964C187.59277,254.38458,187.59277,251.53168,187.5929,247.592Z"/><path fill="#ffbd86" fill-rule="evenodd" d="M323.82837,233.593A41.385,41.385,0,0,0,306.5,199.91882h-.00012a48.25158,48.25158,0,0,0-13.75635-6.81469A41.37977,41.37977,0,0,1,309.82837,226.593c0,5.46686.00024,8.54248.00061,24.64081a68.121,68.121,0,0,1-68.1178,68.123h-1.70349a66.8376,66.8376,0,0,1-22.62781-3.91882,66.40906,66.40906,0,0,0,36.62781,10.91882h1.70349a68.121,68.121,0,0,0,68.1178-68.123C323.82861,242.1355,323.82837,239.05988,323.82837,233.593Z"/><rect width="55.915" height="21" x="96.727" y="469.355" fill="#fee903"/><path fill="#fed2a4" d="M152.64206,490.355H96.727V502a10,10,0,0,0,10,10h45.91509Z"/><path fill="#fee903" d="M233.27169,54.45933H278.1495a14.51583,14.51583,0,0,1,14.51583,14.51583v0A14.51584,14.51584,0,0,1,278.1495,83.491H233.27169A14.51583,14.51583,0,0,1,218.75586,68.9752v0a14.51584,14.51584,0,0,1,14.51584-14.51584Z"/><path fill="#fac600" d="M278.14941,54.45929h-1.59863A14.49366,14.49366,0,0,1,264.14941,76.491h-43.279a14.49242,14.49242,0,0,0,12.40137,7h44.87768a14.51587,14.51587,0,1,0,0-29.03174Z"/><rect width="105.292" height="44.108" x="203.065" y="83.491" fill="#fee903" rx="22.054"/><path fill="#fac600" d="M288.51807,83.60193a22.05082,22.05082,0,0,1-16.21558,36.9975H211.11877q-1.12188,0-2.21569-.1109a21.99182,21.99182,0,0,0,16.21569,7.1109h61.18372a22.05455,22.05455,0,0,0,2.21558-43.9975Z"/><path fill="#fee903" d="M275.2509,54.45933H236.17029L233.359,49.27244a27.1318,27.1318,0,0,1,0-25.85743h0a27.1316,27.1316,0,0,1,7.52266-8.738L255.7106,3.5l14.829,11.177a27.13175,27.13175,0,0,1,7.52267,8.738h0a27.13186,27.13186,0,0,1,0,25.85743Z"/><path fill="#fac600" d="M278.06226,23.415a27.13243,27.13243,0,0,0-7.52271-8.738L255.71057,3.5l-2.35632,1.77606,3.1853,2.40094a27.13187,27.13187,0,0,1,7.52271,34.5954h0a9.90822,9.90822,0,0,1-8.711,5.18688H232.47046c.2749.61175.56592,1.21814.88843,1.81311l2.8114,5.18689H275.251l2.81128-5.18689A27.132,27.132,0,0,0,278.06226,23.415Z"/><circle cx="255.711" cy="32.966" r="7.625" fill="#fd4755"/><path fill="#02905d" d="M204.52258,463.51611l44.18763,24.44794,44.18762-24.44794a80.35388,80.35388,0,0,0,41.4425-70.28967V367.10968l.31861-1.06079L300.28015,355.794a19.99929,19.99929,0,0,1-2.19739-.81488l-.09472,1.287v36.96045a43.9791,43.9791,0,0,1-22.688,38.48194l-26.58984,14.71112-26.58936-14.71112a43.97933,43.97933,0,0,1-22.68823-38.48194V356.26636l-.16321-1.257q-.51984.21487-1.04846.42078a60.54209,60.54209,0,0,1-28.23767,3.55279q-3.48725,1.03876-6.97449,2.07758l.07214,6.04913v26.11676A80.35381,80.35381,0,0,0,204.52258,463.51611Z"/><path fill="#fee903" d="M211.52261,456.51611l44.18762,24.44794,44.18756-24.44794a80.35377,80.35377,0,0,0,41.44251-70.28967V360.10968l.31866-1.06079L307.28012,348.794a19.99777,19.99777,0,0,1-2.19739-.81488l-.09473,1.287v36.96045a43.979,43.979,0,0,1-22.68793,38.48194l-26.58984,14.71112-26.58942-14.71112a43.97927,43.97927,0,0,1-22.68817-38.48194V349.26636l-.16327-1.257a20.00731,20.00731,0,0,1-2.12823.78461l-34.1579,10.189.09772,1.12671v26.11676A80.35379,80.35379,0,0,0,211.52261,456.51611Z"/><path fill="#fac600" d="M306.13135 348.40356l-1.13587.76093-.00744.10168v36.96045c0 .05176-.00513.10266-.00537.15436.19018-.12085.37817-.23511.57165-.36517 11.22083-7.54383 5.64148-15.84265 16.86243-23.38648 7.87756-5.29608 12.97619-2.78735 19.19726-3.43078l.04493-.14966L307.28 348.794C306.88989 348.67761 306.50781 348.54553 306.13135 348.40356zM229.12085 424.70856a43.92105 43.92105 0 0 1-15.462-14.36273l-30.20654 20.2337a80.28129 80.28129 0 0 0 17.80188 19.16766c4.37268.18927 8.68384.55146 14.52222-3.37365 10.166-6.83448 6.54553-14.28766 14.115-21.23865z"/><path fill="#fee903" d="M255.9728,393.9126a107.61279,107.61279,0,0,0,80.6753-36.35846l-29.368-8.76013a19.988,19.988,0,0,1-3.41108-1.38245,77.76241,77.76241,0,0,1-96.00525-.16766,19.97111,19.97111,0,0,1-3.72265,1.55011L175.188,357.43042A107.61442,107.61442,0,0,0,255.9728,393.9126Z"/><path fill="#fac600" d="M306.146,348.3938l-66.17176,44.32477a107.86744,107.86744,0,0,0,40.56653-1.63947,17.54254,17.54254,0,0,1,6.30713-1.67883,107.33782,107.33782,0,0,0,25.79981-11.62518c2.27978-5.09247,2.52612-10.27631,9.769-15.14576a19.19617,19.19617,0,0,1,12.74756-3.44531c.49853-.53961.99609-1.0802,1.48376-1.62988L307.28,348.794C306.89246,348.67841,306.52124,348.53253,306.146,348.3938Z"/><path fill="#fd4755" d="M405.25393,512a10,10,0,0,0,10-9.99754l.0191-77.7226a60,60,0,0,0-36.32287-55.14912l-45.09975-19.3691a15,15,0,0,0-14.26718,1.32023L165.94626,453.9947a30,30,0,0,0-13.3042,24.9249V512Z"/><path fill="#fb2b3a" d="M378.9502,369.13074,333.85034,349.7616a14.99994,14.99994,0,0,0-14.26709,1.32025l-6.72912,4.50744a14.98337,14.98337,0,0,1,6.99621,1.17231l45.09986,19.36914A59.99985,59.99985,0,0,1,401.273,431.27985l-.019,77.72259A9.995,9.995,0,0,1,400.7948,512h4.45911a9.99994,9.99994,0,0,0,10-9.99756l.019-77.72259A59.99985,59.99985,0,0,0,378.9502,369.13074Z"/><path fill="#fee903" d="M152.64209,488.735c9.43945-4.60724,14.98474,1.71563,25.23889-5.17823,11.22473-7.54632,5.64539-15.84521,16.87-23.39154,11.223-7.54529,16.80236.7536,28.02539-6.79168,11.22265-7.54493,5.64331-15.84382,16.86572-23.38874,11.22278-7.545,16.80212.75385,28.02478-6.7912,11.22253-7.54486,5.64319-15.84375,16.86572-23.38867,11.22119-7.544,16.80054.75488,28.02173-6.78912,11.22083-7.54383,5.64148-15.84265,16.86243-23.38648,11.21972-7.543,16.79907.7558,28.0188-6.78723l2.06457-2.06463L333.85034,349.7616a14.99994,14.99994,0,0,0-14.26709,1.32025l-153.637,102.91284a30,30,0,0,0-13.3042,24.92487Z"/><path fill="#fac600" d="M319.85034,356.7616l21.90845,9.40905c4.78223.13575,9.32605.941,15.67676-3.32855l2.06457-2.06463L333.85034,349.7616a14.99994,14.99994,0,0,0-14.26709,1.32025l-6.729,4.50744A14.98313,14.98313,0,0,1,319.85034,356.7616Z"/><path fill="#02905d" d="M152.64209,512a3.49985,3.49985,0,0,1-3.5-3.5V462.355a3.5,3.5,0,0,1,7,0V508.5A3.49985,3.49985,0,0,1,152.64209,512Z"/><circle cx="255.711" cy="148.5" r="20" fill="#fd4755"/><path fill="#fb2b3a" d="M256.94751,128.5625A19.9871,19.9871,0,0,1,241.71057,161.5c-.4176,0-.82568-.03729-1.23694-.0625a19.98858,19.98858,0,1,0,16.47388-32.875Z"/><ellipse cx="255.711" cy="107.815" fill="#22b37f" rx="20.669" ry="32.39"/><path fill="#02905d" d="M262.18408,79.3205a35.708,35.708,0,0,1-13.47351,53.88378,35.73169,35.73169,0,0,1-6.47327-3.89563,35.87085,35.87085,0,0,0,13.47327,10.89563,35.70473,35.70473,0,0,0,6.47351-60.88378Z"/><circle cx="255.711" cy="107.815" r="7.625" fill="#fd4755"/><path fill="#fb2b3a" d="M256.46362,100.22729a7.621,7.621,0,0,1-5.459,12.94318c-.25415,0-.50525-.01373-.75318-.038a7.62329,7.62329,0,1,0,6.21216-12.90516Z"/><path d="M395.97743,417.144a3.5,3.5,0,1,0,3.5,3.5A3.5,3.5,0,0,0,395.97743,417.144Zm0,35a3.5,3.5,0,1,0,3.5,3.5A3.5,3.5,0,0,0,395.97743,452.144Zm-21-63a3.5,3.5,0,1,0,3.5,3.5A3.5,3.5,0,0,0,374.97743,389.144ZM196.681,64.94385a3.4833,3.4833,0,0,0,2.17773-.76221l.07911-.063a3.49981,3.49981,0,0,0-4.36036-5.47558l-.0791.063a3.5,3.5,0,0,0,2.18262,6.2378ZM381.97743,487.144a3.5,3.5,0,1,0,3.5,3.5A3.5,3.5,0,0,0,381.97743,487.144ZM184.955,375.669a3.50187,3.50187,0,0,0,3.23242-3.748l-3.49658.16211,3.49365-.2085a3.49987,3.49987,0,0,0-6.98731.417c.001.01758.0083.13282.00977.14991a3.49771,3.49771,0,0,0,3.48584,3.2373C184.77967,375.67871,184.86707,375.67529,184.955,375.669ZM479.42225,475.68457l1.062-35.07519a12.17245,12.17245,0,0,0-3.3247-8.76856,12.30232,12.30232,0,0,0-2.37879-1.95007,238.35282,238.35282,0,0,0-49.27258-197.12024A8.73351,8.73351,0,0,1,436.8661,219.8208l11.84912,7.3291A15.75634,15.75634,0,1,0,465.289,200.34766l-11.85156-7.33106a40.23806,40.23806,0,0,0-60.79956,41.14234l-4.22,135.93756a63.77207,63.77207,0,0,0-8.10889-4.19709l-.82764-.3554-32.93188-90.40308a21.69243,21.69243,0,0,0-4.856-20.89252,16.8718,16.8718,0,0,0,4.1189-9.60046c.00683-.07422.01172-.14893.01367-.22363,0-.00684.17969-6.25977.479-14.14844a16.928,16.928,0,0,0-6.30493-13.79859A116.585,116.585,0,0,0,281.14478,21.78754c-.00988-.0185-.01818-.0376-.02819-.05609a30.42927,30.42927,0,0,0-8.49317-9.86475L257.79432.68945a3.49884,3.49884,0,0,0-4.21338,0L238.75282,11.86621a30.42153,30.42153,0,0,0-8.49366,9.86524c-.04065.075-.07446.15246-.11438.22772a116.58116,116.58116,0,0,0-90.77722,113.70538,115.515,115.515,0,0,0,32.22962,80.52972,16.576,16.576,0,0,0-6.45716,13.815c.30518,7.90674.48584,14.31543.48731,14.31494a3.88945,3.88945,0,0,0,.022.4043l.00293.0332a16.77978,16.77978,0,0,0,4.02588,9.49914,21.69725,21.69725,0,0,0-4.85034,20.85419l-33.59558,92.26123a62.82469,62.82469,0,0,0-8.43433,4.52051l-23.71643-88.5224a9.04176,9.04176,0,0,0,2.38428-2.70105,9.15054,9.15054,0,0,0,.63415-1.36182c10.03528-1.19122,26.17115-5.42218,38.03626-19.75879,3.63232-4.38916,12.13818-14.66748,11.6289-28.45605-.42773-11.71484-7.15576-18.69727-14.9458-26.78223-4.94287-5.12939-10.54443-10.94336-15.6831-19.06054-7.95313-12.57764-12.75489-27.67334-14.27246-44.86719a3.5,3.5,0,0,0-6.54932-1.38623c-7.42432,13.42676-10.022,26.09326-7.71924,37.65039,2.7876,13.93555,6.52149,19.52392,15.542,33.02539l2.42579,3.63574c7.04834,10.603,6.47607,24.12793-1.33252,31.46192-4.35205,4.09118-9.99927,5.07861-13.87757,5.21a9.11119,9.11119,0,0,0-5.91931-3.61408A68.94557,68.94557,0,0,1,82.057,216.05225,15.511,15.511,0,0,1,90.77479,201.938a5.729,5.729,0,0,0,.47461-10.06836,84.30879,84.30879,0,0,1-30.501-31.97559,5.7181,5.7181,0,0,0-10.74951,2.87549,84.65408,84.65408,0,0,1-1.71875,19.38526,84.48078,84.48078,0,0,1-8.70752,23.55908,5.72674,5.72674,0,0,0,5.44141,8.48144,15.50314,15.50314,0,0,1,14.61181,7.8628,69.94317,69.94317,0,0,1,4.81641,10.5371,69.47643,69.47643,0,0,1,3.94727,19.41419,9.10446,9.10446,0,0,0-3.3169,6.09338c-3.41894,1.82105-8.80041,3.78339-14.626,2.42408-10.42773-2.44532-17.6875-13.87793-16.88623-26.58985l.27832-4.28222c1.06788-16.2378,1.51026-22.959-3.04589-36.44239C27.018,182.06006,18.43543,172.38867,5.28358,164.46631a3.50018,3.50018,0,0,0-4.97949,4.47461C7.59657,184.61084,10.9867,200.084,10.38026,214.93164c-.3916,9.59619-2.33545,17.43164-4.05078,24.34473-2.70362,10.898-5.03907,20.31006.44433,30.66455,6.44532,12.18262,18.94385,16.8374,24.30371,18.834a52.62594,52.62594,0,0,0,18.4419,3.29883,62.45822,62.45822,0,0,0,24.376-5.20825,9.105,9.105,0,0,0,4.64234,2.00336l26.70312,99.64849a63.4072,63.4072,0,0,0-12.03344,37.01685V469.3103c0,.01-.00293.01911-.00293.02906v39.145a3.49986,3.49986,0,0,0,3.5,3.5l.00146-.00013.00147.00013a3.49987,3.49987,0,0,0,3.5-3.5v-14.645h48.91211v14.645a3.5,3.5,0,0,0,7,0V491.05945a20.08472,20.08472,0,0,1,7.56787-.62488c4.47705.19873,9.55371.42822,16.12353-3.98877s8.2749-9.20312,9.7793-13.42578c1.36084-3.81934,2.43555-6.83643,7.09082-9.96582,4.65381-3.1294,7.85254-2.98633,11.90283-2.80371,4.47852.19824,9.55274.42822,16.12256-3.98779,6.56885-4.416,8.27344-9.20215,9.77734-13.42481,1.36036-3.81885,2.43457-6.835,7.08838-9.96387,4.6543-3.13037,7.853-2.9873,11.90283-2.80371,4.47657.20069,9.55372.42823,16.12208-3.9873,6.56884-4.416,8.27343-9.20215,9.77734-13.42481,1.36035-3.81884,2.43457-6.835,7.08838-9.96386,4.65332-3.12891,7.85107-2.98633,11.90088-2.80323,4.478.20069,9.55224.42969,16.1206-3.98632,6.56836-4.41553,8.27246-9.20118,9.77588-13.42383,1.35986-3.81836,2.43359-6.83448,7.08643-9.96241,4.65283-3.12841,7.85107-2.98339,11.89941-2.80175,4.48047.20117,9.55322.4292,16.11963-3.98535a3.46981,3.46981,0,0,0,.85791-.84009l17.32275,7.43969a56.57734,56.57734,0,0,1,12.09131,7.08356c.02014.015.03943.03052.05982.04505a56.433,56.433,0,0,1,22.053,44.80352l-.02149,84.22022a3.49987,3.49987,0,0,0,3.499,3.501h.001a3.5,3.5,0,0,0,3.5-3.499l.02149-84.22021a63.42205,63.42205,0,0,0-23.47925-49.31946l3.876-124.85578q.92121,1.33467,1.95923,2.60834a207.0715,207.0715,0,0,1,41.57715,176.79993,12.39011,12.39011,0,0,0-1.58642,1.25085,12.17263,12.17263,0,0,0-3.84913,8.55127l-1.062,35.0752a12.25372,12.25372,0,0,0,7.34815,11.60193,208.06016,208.06016,0,0,1,.56494,22.403,3.50015,3.50015,0,0,0,3.39453,3.60254c.03516.001.0708.00147.106.00147a3.50012,3.50012,0,0,0,3.49658-3.396c.21289-7.15338.043-14.37012-.46192-21.51734l16.17041.48951q.19044.00585.38086.00586c.34693,0,.69092-.0199,1.03321-.04847.43945,6.97681.58654,13.97779.40039,20.8722a3.49924,3.49924,0,0,0,3.40429,3.59277c.03223.001.064.00147.0962.00147a3.49971,3.49971,0,0,0,3.49658-3.40577c.21313-7.89.00781-15.91461-.5741-23.88781.17835-.14991.36023-.29407.53113-.455A12.17259,12.17259,0,0,0,479.42225,475.68457ZM340.44764,268.96436a14.73681,14.73681,0,0,1-17.70117,14.459,71.48892,71.48892,0,0,0,4.51709-23.439h1.73389a16.91949,16.91949,0,0,0,7.01989-1.52625A14.7796,14.7796,0,0,1,340.44764,268.96436ZM214.47547,417.24445l-24.4989,16.41046a76.8622,76.8622,0,0,1-16.41907-47.44055V361.54364l29.3501-8.75586v33.42658A47.754,47.754,0,0,0,214.47547,417.24445ZM209.93885,387.429a109.32168,109.32168,0,0,0,34.9773,9.42492l-24.573,16.46021A40.72693,40.72693,0,0,1,209.93885,387.429Zm-.03125-7.76569V353.07922a81.18951,81.18951,0,0,0,94.38086-1.64141c.64307.25665,1.29785.49121,1.96973.6911l3.75732,1.11877-55.4292,37.12878A102.83167,102.83167,0,0,1,209.9076,379.66333Zm46.043-19.26685a73.47578,73.47578,0,0,1-42.11987-13.11383,23.60285,23.60285,0,0,0,8.06665-17.66839v-7.48169a70.02642,70.02642,0,0,0,32.08789,7.70874h1.70361a71.24861,71.24861,0,0,0,33.78858-8.43616v8.20911a23.616,23.616,0,0,0,8.29516,17.87311A73.4977,73.4977,0,0,1,255.95057,360.39648Zm35.04712-48.04559a64.15857,64.15857,0,0,1-35.30884,10.49042h-1.70361a62.83781,62.83781,0,0,1-58.04541-38.31568c-.00488-.01232-.00611-.02508-.01123-.03735-.00818-.01971-.02124-.03558-.02979-.055a62.37123,62.37123,0,0,1-4.8291-24.16761l.00049-26.68945A37.95678,37.95678,0,0,1,206.933,202.75146a44.59406,44.59406,0,0,1,25.97754-8.34472,45.07771,45.07771,0,0,1,6.023.40478l16.28711,2.19336a3.48171,3.48171,0,0,0,.93457,0l16.28711-2.19336a44.60574,44.60574,0,0,1,32.001,7.93994,37.956,37.956,0,0,1,15.8623,30.82666l.001,24.64014a64.46008,64.46008,0,0,1-5.36817,25.83014c-.00781.01611-.01928.029-.02685.04535-.0105.02271-.01392.04657-.02393.06934a64.56608,64.56608,0,0,1-13.50683,19.75,65.22,65.22,0,0,1-10.3125,8.39312C291.04481,312.32147,291.02064,312.33508,290.99769,312.35089Zm17.51392-115.29571a51.59838,51.59838,0,0,0-37.00342-9.18116l-15.82031,2.13037L239.86756,187.874a51.60006,51.60006,0,0,0-37.00293,9.18116,44.89647,44.89647,0,0,0-14.81225,18.085l-4.48072-27.26758a64.7488,64.7488,0,0,1,27.36377-61.08142,25.417,25.417,0,0,0,14.16211,4.29333h14.1211c.092.12482.19262.24329.28613.36707a23.49986,23.49986,0,1,0,32.366.00043c.09375-.12391.19433-.2425.28662-.3675h14.11987a25.39527,25.39527,0,0,0,14.17505-4.28412,64.748,64.748,0,0,1,27.35083,61.07172l-4.48389,27.25952A44.898,44.898,0,0,0,308.51161,197.05518Zm-73.4231-72.97071h-9.991a18.55493,18.55493,0,1,1,0-37.10986h8.13208l.01929.001.00977-.001H237.549a38.95272,38.95272,0,0,0-2.46045,37.10986Zm-28.06567-36.625a25.52142,25.52142,0,0,0-1.43677,34.55371,71.50993,71.50993,0,0,0-22.84961,27.84912,74.526,74.526,0,0,1,32.94971-76.96789,17.99377,17.99377,0,0,0,3.82837,7.697A25.45011,25.45011,0,0,0,207.02284,87.45947Zm-23.2251,139.797.0227.01752c.08155.06421.16516.1264.24683.19043v25.52h-1.84961a9.63627,9.63627,0,0,1-9.58984-8.80713l-.00489-.06495c-.02587-.89843-.20312-6.98632-.48779-14.36816a9.59413,9.59413,0,0,1,4.55274-8.55963Q180.10445,224.33814,183.79774,227.25647Zm71.89014-90.97522a32.20949,32.20949,0,0,1,0-56.96484,32.2095,32.2095,0,0,1,0,56.96484Zm11.47644.34937a16.5,16.5,0,1,1-22.95325-.00055,38.99528,38.99528,0,0,0,10.00024,6.73175,3.50051,3.50051,0,0,0,2.95313,0A38.99378,38.99378,0,0,0,267.16432,136.63062Zm24.69323-56.035a17.98532,17.98532,0,0,0,3.90406-8.01227,74.52161,74.52161,0,0,1,33.27868,78.17456,71.52981,71.52981,0,0,0-23.24194-28.73779,25.544,25.544,0,0,0-13.9408-41.4245Zm12.97974,24.93854a18.55562,18.55562,0,0,1-18.56006,18.55029h-9.98987a38.9536,38.9536,0,0,0-2.46045-37.10986h4.29016l.00977.001.01929-.001h8.1311A18.58087,18.58087,0,0,1,304.83729,105.53418Zm30.10889,115.90289a9.91371,9.91371,0,0,1,4.36377,8.57465c-.27637,7.28711-.45118,13.186-.47754,14.0918a9.8555,9.8555,0,0,1-4.14795,7.0863c-.07984.04626-.15283.10382-.22925.15668a9.864,9.864,0,0,1-5.45776,1.63788h-1.69V227.90466Q331.28,224.82721,334.94618,221.43707ZM281.11659,50.9248a30.51417,30.51417,0,0,0,2.97448-21.20715,109.59073,109.59073,0,0,1,46.135,186.55164l4.495-27.32691c.00732-.043.01318-.08642.019-.12988a71.09948,71.09948,0,0,0-1.66138-26.43488,81.51052,81.51052,0,0,0-37.552-98.061A18.05938,18.05938,0,0,0,280.9723,51.191ZM236.41346,25.06738a23.47,23.47,0,0,1,6.55274-7.61084l12.72168-9.58935,12.72265,9.58935a23.63313,23.63313,0,0,1,6.55176,30.13282l-1.81787,3.35449H238.23194l-1.81848-3.355A23.55277,23.55277,0,0,1,236.41346,25.06738Zm38.80811,32.87647.0039.00049.00733-.00049h2.894a11.01539,11.01539,0,0,1,.01929,22.03076h-9.91822a39.041,39.041,0,0,0-11.06347-7.73877,3.50048,3.50048,0,0,0-2.95313,0,39.04222,39.04222,0,0,0-11.06323,7.73877h-9.91846a11.01539,11.01539,0,0,1,.01929-22.03076Zm-128.854,77.7207A109.59029,109.59029,0,0,1,227.2472,29.88916a30.51763,30.51763,0,0,0,3.012,21.03564l.14429.26618A18.04978,18.04978,0,0,0,215.767,64.67175a81.512,81.512,0,0,0-37.22119,96.72132,71.13784,71.13784,0,0,0-1.91114,27.41943c.00586.04346.01172.08643.019.12939l4.3944,26.74219q-.52605-.49035-1.0465-.98511a3.43286,3.43286,0,0,0-.291-.28363A108.58721,108.58721,0,0,1,146.36756,135.66455ZM175.3368,258.48773a16.58466,16.58466,0,0,0,6.88086,1.49665h1.852v.28124a69.55073,69.55073,0,0,0,3.97315,23.25788,14.976,14.976,0,0,1-2.35547.20111,14.73478,14.73478,0,0,1-10.35059-25.23688Zm-6.02563,24.77307A21.58649,21.58649,0,0,0,190.7638,290.107,69.48443,69.48443,0,0,0,204.494,309.46777a70.26217,70.26217,0,0,0,10.40332,8.5448v11.60169a16.58151,16.58151,0,0,1-11.78028,15.80615l-34.15075,10.18787-.028.00836-29.14013,8.69311Zm-55.28785-33.38531c10.26661-9.64209,11.28467-27.02686,2.36866-40.439l-2.43409-3.64941c-8.7207-13.05127-11.98339-17.93506-14.498-30.50684-1.36231-6.83642-.65967-14.23681,2.08594-22.09961a101.14328,101.14328,0,0,0,13.6748,35.81592c5.52,8.71924,11.38379,14.80518,16.55762,20.17481,7.35058,7.6289,12.66113,13.14062,12.9917,22.18213.41064,11.124-6.90332,19.9624-10.02881,23.73925-10.08545,12.186-23.86194,16.01984-32.7771,17.182l-4.13843-15.445A27.27649,27.27649,0,0,0,114.02332,249.87549ZM33.49793,282.20654c-4.58984-1.70947-15.33789-5.7124-20.53711-15.54052-4.23193-7.99073-2.38867-15.4209.1626-25.70411,1.79541-7.23632,3.83057-15.43847,4.251-25.74462a100.92682,100.92682,0,0,0-6.06592-37.854c6.313,5.439,10.62012,11.49463,12.853,18.0918,4.11133,12.1665,3.7251,18.041,2.69238,33.74023l-.27978,4.29883c-1.01319,16.08106,8.5625,30.63232,22.2788,33.84912a27.37883,27.37883,0,0,0,17.50293-2.07934l4.137,15.43957C62.2002,284.15613,48.35365,287.728,33.49793,282.20654Zm32.231-63.57715A22.57683,22.57683,0,0,0,46.73426,207.1626a91.35639,91.35639,0,0,0,8.40088-23.59082A91.78779,91.78779,0,0,0,56.99891,167.397a91.25876,91.25876,0,0,0,28.77148,29.30908A22.55815,22.55815,0,0,0,75.0575,216.13184a75.798,75.798,0,0,0,7.15039,31.36395l-6.99719,1.875a76.47461,76.47461,0,0,0-4.18005-19.1413A77.00854,77.00854,0,0,0,65.72889,218.62939ZM77.663,280.416l-5.57959-20.82325a2.06568,2.06568,0,0,1,1.459-2.52783l13.96-3.74072a2.06186,2.06186,0,0,1,2.52783,1.45947l5.57959,20.82324a2.066,2.066,0,0,1-1.45947,2.52784l-13.959,3.74072A2.06588,2.06588,0,0,1,77.663,280.416Zm7.81055,7.291,7.01782-1.88055,24.238,90.46972a64.18394,64.18394,0,0,0-6.01807,5.59088Zm63.646,198.93256c-.10413.06262-.21119.13476-.31617.19977H100.20741v-14h48.91211Zm3.5-34.80023a3.49985,3.49985,0,0,0-3.5,3.5v10.5H100.20741V425.53418a56.8617,56.8617,0,0,1,40.35058-54.146l25.99951-7.75628v22.58246a83.87266,83.87266,0,0,0,17.58582,51.348l-20.16736,13.509a33.51466,33.51466,0,0,0-7.85644,7.34668v-3.07861A3.49986,3.49986,0,0,0,152.61952,451.83936Zm190.9414-89.11573c-4.48-.20019-9.55322-.4292-16.11963,3.98535-6.56787,4.416-8.272,9.20166-9.77539,13.42383-1.35986,3.81836-2.43359,6.83448-7.08691,9.9624-4.65332,3.12842-7.85156,2.98438-11.90088,2.80323-4.48193-.20215-9.55371-.42871-16.12061,3.98633-6.56884,4.416-8.27343,9.20214-9.77734,13.4248-1.36035,3.81885-2.43457,6.835-7.08838,9.96387-4.65527,3.1289-7.853,2.98486-11.90283,2.80371-4.48242-.20264-9.55469-.42822-16.12207,3.9873-6.56885,4.416-8.27344,9.20215-9.77734,13.42481-1.36036,3.81885-2.43457,6.835-7.08838,9.96386-4.65479,3.1294-7.8545,2.98389-11.90332,2.8042-4.47852-.20263-9.55371-.42822-16.12207,3.98731-6.56983,4.417-8.27491,9.20312-9.7793,13.42578-1.36084,3.81934-2.43555,6.83643-7.09082,9.96582-4.65576,3.12988-7.856,2.98584-11.90479,2.80518a30.41774,30.41774,0,0,0-7.88134.38635v-4.92395a26.45411,26.45411,0,0,1,11.75195-22.01709l153.63672-102.9126a11.45838,11.45838,0,0,1,10.93847-1.01221L352.4994,361.574C349.31849,362.97546,346.69288,362.86377,343.56092,362.72363Zm-8.35156-16.19336a18.43065,18.43065,0,0,0-17.59668,1.62842l-.04883.03272-9.30859-2.77149a16.58636,16.58636,0,0,1-11.77783-15.80566V317.0885a71.81686,71.81686,0,0,0,23.43542-27.13812,21.76128,21.76128,0,0,0,22.14856-6.67829L370.65,361.7511ZM406.52772,248.27a33.24132,33.24132,0,0,1,43.22851-49.29932l11.85108,7.33057a8.75645,8.75645,0,1,1-9.2085,14.89648l-11.85009-7.33007a15.73259,15.73259,0,0,0-20.46192,23.33105A231.34859,231.34859,0,0,1,468.02332,427.974l-17.73364-.53687A214.04052,214.04052,0,0,0,406.52772,248.27Zm65.89746,227.20264a5.25211,5.25211,0,0,1-5.40869,5.09082l-18.74268-.56739a5.25211,5.25211,0,0,1-5.09082-5.40869l1.062-35.07568a5.2522,5.2522,0,0,1,5.24561-5.09277c.0542,0,.10889.00048.16309.00244l18.74316.56738a5.25212,5.25212,0,0,1,5.09033,5.40869ZM360.97743,431.144a3.5,3.5,0,1,0,3.5,3.5A3.5,3.5,0,0,0,360.97743,431.144ZM197.96961,417.40332l3.01953-1.77a3.50008,3.50008,0,1,0-6.03906,3.54c.00781.0127.06543.11035.07324.123a3.49982,3.49982,0,0,0,5.99317-3.61621Zm-7.71777-30.165-.03027-.14648a3.45824,3.45824,0,0,0-4.11524-2.65479,3.543,3.543,0,0,0-2.72265,4.15381,3.5,3.5,0,1,0,6.86816-1.35254Zm4.23486,14.729c-.00537-.01514-.04589-.123-.05175-.13819a3.4587,3.4587,0,0,0-4.47657-1.9873,3.54283,3.54283,0,0,0-2.04687,4.52588,3.49982,3.49982,0,0,0,6.57519-2.40039ZM276.97743,452.144a3.5,3.5,0,1,0,3.5,3.5A3.5,3.5,0,0,0,276.97743,452.144Zm7,35a3.5,3.5,0,1,0,3.5,3.5A3.5,3.5,0,0,0,283.97743,487.144Zm-35,14a3.5,3.5,0,1,0,3.5,3.5A3.5,3.5,0,0,0,248.97743,501.144Zm-14-28a3.5,3.5,0,1,0,3.5,3.5A3.5,3.5,0,0,0,234.97743,473.144Zm-42,21a3.5,3.5,0,1,0,3.5,3.5A3.5,3.5,0,0,0,192.97743,494.144Zm161-35a3.5,3.5,0,1,0,3.5,3.5A3.5,3.5,0,0,0,353.97743,459.144Zm-7-56a3.5,3.5,0,1,0,3.5,3.5A3.5,3.5,0,0,0,346.97743,403.144Zm-7,91a3.5,3.5,0,1,0,3.5,3.5A3.5,3.5,0,0,0,339.97743,494.144Zm-21-70a3.5,3.5,0,1,0,3.5,3.5A3.5,3.5,0,0,0,318.97743,424.144Zm0,35a3.5,3.5,0,1,0,3.5,3.5A3.5,3.5,0,0,0,318.97743,459.144ZM338.51405,96.12207a3.43942,3.43942,0,0,0,3.11084,1.94775,3.515,3.515,0,0,0,3.15576-5.06836,3.50018,3.50018,0,1,0-6.32031,3.00977Zm-82.82617.55176a11.12525,11.12525,0,1,0,11.12548,11.125A11.13768,11.13768,0,0,0,255.68788,96.67383Zm0,15.25049a4.12525,4.12525,0,1,1,4.12548-4.12549A4.12993,4.12993,0,0,1,255.68788,111.92432Zm40.06-58.68506.11036.05371a3.4348,3.4348,0,0,0,1.50195.34717,3.492,3.492,0,0,0,3.13769-1.99024,3.53054,3.53054,0,1,0-4.75,1.58936Zm17.32276,10.92187.10351.083a3.4304,3.4304,0,0,0,2.147.75391,3.56434,3.56434,0,1,0-2.25049-.83692Zm14.55664,14.59326a3.49981,3.49981,0,1,0,5.47558-4.36035l-.063-.0791a3.49981,3.49981,0,0,0-5.47559,4.36035ZM347.47645,135.729v.10108a3.5,3.5,0,0,0,7,0V135.729a3.5,3.5,0,0,0-7,0Zm-7.458,44.41065a3.42421,3.42421,0,0,0,1.498.34375,3.55918,3.55918,0,0,0,3.19385-2.00488,3.49983,3.49983,0,0,0-6.28125-3.08887l-.05371.11035A3.46616,3.46616,0,0,0,340.01844,180.13965Zm-166.53076-4.8291a3.46682,3.46682,0,0,0-4.65771-1.59034,3.53869,3.53869,0,0,0,1.55371,6.707,3.50169,3.50169,0,0,0,3.15771-5.00586Zm171.74951-59.855a3.44573,3.44573,0,0,0,3.3833,2.69433,3.6038,3.6038,0,0,0,.78711-.0874,3.52827,3.52827,0,0,0-1.53076-6.88818,3.50045,3.50045,0,0,0-2.66406,4.17187Zm4.16748,38.00048a3.49678,3.49678,0,0,0-4.20849,2.605l-.03125.13574a3.49581,3.49581,0,0,0,3.41259,4.23291,3.5399,3.5399,0,0,0,3.43213-2.76514A3.49951,3.49951,0,0,0,349.40467,153.45605ZM179.44715,79.21387a3.49935,3.49935,0,0,0,4.92285-.5127l.083-.10351a3.47051,3.47051,0,0,0-.5791-4.89112,3.53329,3.53329,0,0,0-4.42676,5.50733ZM168.81336,97.64941a3.49641,3.49641,0,0,0,4.67481-1.626l.04394-.09082a3.49983,3.49983,0,1,0-6.30078-3.04883l-.04394.09082A3.49924,3.49924,0,0,0,168.81336,97.64941ZM255.97743,221.144a3.5,3.5,0,1,0-3.5-3.5A3.5,3.5,0,0,0,255.97743,221.144Zm-91.499-85.476v-.0542a3.5,3.5,0,0,0-7,0v.10107a3.47994,3.47994,0,0,0,3.5,3.47657A3.51994,3.51994,0,0,0,164.4784,135.668Zm62.8794,99.94189a16.06463,16.06463,0,0,1-9.1084,2.63965,15.81,15.81,0,0,1-8.36279-2.63867,3.49979,3.49979,0,1,0-3.86914,5.833,22.79716,22.79716,0,0,0,12.06738,3.80371c.17822.00439.35449.00635.53027.00635a23.11,23.11,0,0,0,12.60986-3.80909,3.50007,3.50007,0,1,0-3.86718-5.835ZM214.67274,53.5957a3.49185,3.49185,0,0,0,1.50244-.34082l.11084-.05371a3.46612,3.46612,0,0,0,1.59033-4.65771,3.5309,3.5309,0,1,0-3.20361,5.05224Zm-50.56494,57.499a3.53945,3.53945,0,1,0,2.62646,4.28515l.03125-.13574A3.47338,3.47338,0,0,0,164.1078,111.09473Zm91.58008-67.019a11.12524,11.12524,0,1,0-11.125-11.12548A11.13789,11.13789,0,0,0,255.68788,44.07568Zm0-15.25048a4.12524,4.12524,0,1,1-4.125,4.125A4.12992,4.12992,0,0,1,255.68788,28.8252ZM166.7411,155.98535a3.50008,3.50008,0,1,0-6.83106,1.5293l.03125.13574a3.49981,3.49981,0,0,0,6.81348-1.60351ZM267.34022,289.41309a21.32447,21.32447,0,0,1-12.14844,3.5205,21.076,21.076,0,0,1-11.1543-3.51953,3.50006,3.50006,0,1,0-3.87011,5.833,28.06952,28.06952,0,0,0,14.85937,4.68457c.21924.00537.436.00781.65186.00781a28.45708,28.45708,0,0,0,15.52881-4.6914,3.50007,3.50007,0,0,0-3.86719-5.835Zm39.00146-52.81885a3.49922,3.49922,0,0,0-4.85058-.98438,16.06181,16.06181,0,0,1-9.10938,2.63965,15.79728,15.79728,0,0,1-8.36181-2.63867,3.50007,3.50007,0,1,0-3.87012,5.833,22.79259,22.79259,0,0,0,12.06738,3.80371q.26733.00659.53028.00635a23.11182,23.11182,0,0,0,12.60986-3.80909A3.49947,3.49947,0,0,0,306.34168,236.59424Z"/></svg>