<svg xmlns="http://www.w3.org/2000/svg" data-name="Layer 1" viewBox="0 0 512 512"><path fill="#3c3b42" d="M120.43594,408.44693c4.49925-12.3551,15.77487-8.249,20.27412-20.604,4.49979-12.35657-6.77582-16.46272-2.276-28.81929,4.49986-12.35676,15.77548-8.25061,20.27534-20.60738,4.4998-12.35658-6.77582-16.46273-2.276-28.81932,4.5-12.3572,15.77564-8.25105,20.27565-20.60824,4.50064-12.3589-6.775-16.465-2.27434-28.82394s15.77626-8.25275,20.2769-20.61165l126-31.10614c4.50064,12.35889-6.775,16.465-2.27434,28.82394s15.77625,8.25274,20.27689,20.61164c4.5,12.35719-6.7756,16.46334-2.27558,28.82054,4.4998,12.35659,15.77542,8.25044,20.27521,20.607,4.49987,12.35677-6.77575,16.46292-2.27589,28.81968,4.49979,12.35657,15.77541,8.25042,20.2752,20.607,4.49925,12.35509-6.77636,16.46124-2.27711,28.81633Z"/><circle cx="185.561" cy="268.981" r="18.255" fill="#fee903"/><path fill="#2c2c2e" d="M374.71313,356.73676c-4.49987-12.35663-15.77551-8.25043-20.27526-20.607-4.49988-12.35681,6.77575-16.46295,2.27588-28.8197-4.49988-12.35657-15.7754-8.25043-20.27527-20.607-4.5-12.35723,6.77563-16.46337,2.27563-28.82055-4.50061-12.35889-15.77624-8.25275-20.27685-20.61164s6.7749-16.46508,2.27429-28.824l-13.13025,3.24152c1.67212,9.95037-7.22681,14.371-3.144,25.58245,4.50061,12.35889,15.77624,8.25275,20.27685,20.61164,4.5,12.35718-6.77563,16.46332-2.27563,28.82055,4.49987,12.35657,15.77539,8.25043,20.27527,20.607,4.49987,12.35675-6.77576,16.46289-2.27588,28.8197,4.49975,12.35657,15.77539,8.25037,20.27526,20.607,4.49915,12.355-6.77636,16.46118-2.27722,28.81628L120.97559,407.126c-.188.42047-.37012.85547-.53968,1.32092l252-22.89386C367.93677,373.19794,379.21228,369.0918,374.71313,356.73676Z"/><circle cx="325.561" cy="268.981" r="18.255" fill="#fee903"/><path fill="#fac600" d="M334.47974,253.06183a18.24275,18.24275,0,0,1-24.83814,24.83789,18.24933,18.24933,0,1,0,24.83814-24.83789Z"/><rect width="24" height="123" x="54.315" y="250.27" fill="#cbc4cc" transform="rotate(-18.232 66.315 311.77)"/><polygon fill="#baafb9" points="58.471 249.603 45.841 253.763 82.954 366.428 72.788 369.777 74.158 373.937 96.954 366.428 58.471 249.603"/><path fill="#918291" d="M66.69921,252.25525l-14.918,10.64629a5,5,0,0,1-2.82153.92942l-18.32484.30406a5,5,0,0,1-4.83193-3.435l-15.5555-47.22311a2,2,0,0,1,2.37187-2.56918l21.04313,5.11369a2,2,0,0,0,2.00712-.66115l13.8843-16.61894a2,2,0,0,1,3.43444.65655L68.54372,246.621A5,5,0,0,1,66.69921,252.25525Z"/><rect width="24" height="123" x="85.082" y="268.363" fill="#cbc4cc" transform="rotate(-18.232 97.082 329.863)"/><polygon fill="#baafb9" points="89.239 267.696 76.609 271.856 113.721 384.521 103.556 387.87 104.926 392.03 127.721 384.521 89.239 267.696"/><path fill="#7a6d79" d="M54.10645,225.09778l-21.04322-5.11365a2,2,0,0,0-2.37182,2.56915L44.314,263.908l4.64576-.07709a4.99929,4.99929,0,0,0,2.82141-.92938l14.91809-10.6463A5,5,0,0,0,68.5437,246.621l-8.75622-26.582-3.674,4.39759A1.99991,1.99991,0,0,1,54.10645,225.09778Z"/><path fill="#918291" d="M97.46674,270.34831l-14.91805,10.6463a5,5,0,0,1-2.82153.92942l-18.32484.30406a5,5,0,0,1-4.83193-3.435L41.01489,231.57a2,2,0,0,1,2.37187-2.56917l21.04313,5.11369a2,2,0,0,0,2.00712-.66115l13.8843-16.61894a2,2,0,0,1,3.43444.65655l15.5555,47.22311A5,5,0,0,1,97.46674,270.34831Z"/><path fill="#7a6d79" d="M99.31128,264.71405,83.75574,217.491a2,2,0,0,0-3.43445-.65655l-7.73291,9.256,6.98884,21.21645a29.89551,29.89551,0,0,1-11.02853,33.68774h0a5,5,0,0,1-2.8215.92942l-5.81347.0965a4.98173,4.98173,0,0,0,1.48864.20758L79.7271,281.924a5.0002,5.0002,0,0,0,2.82161-.92944l14.918-10.6462A5.00009,5.00009,0,0,0,99.31128,264.71405Z"/><polygon fill="#aa6a51" points="181.175 460.46 91.62 492.231 43.438 345.963 133.669 316.241 181.175 460.46"/><path fill="#935b44" d="M143.86066,403.68121l20.65057,62.69062L181.17554,460.46,133.669,316.24048,43.43823,345.96289l2.78992,8.46936.00007,0A77.32254,77.32254,0,0,1,143.86066,403.68121Z"/><rect width="109" height="21" x="30.769" y="310.629" fill="#c68d7a" rx="6" transform="rotate(-18.232 85.269 321.129)"/><path fill="#bc7c63" d="M138.44042,308.35164l-2.81594-8.54827a6,6,0,0,0-7.5759-3.8215l-7.14685,2.35419a5.98687,5.98687,0,0,1,.72278,1.46741h0a14.99987,14.99987,0,0,1-9.55382,18.93994L35.6355,343.92151a5.99781,5.99781,0,0,0,6.853,2.35425l92.13037-30.34815A5.99994,5.99994,0,0,0,138.44042,308.35164Z"/><path fill="#26a6fe" d="M194.44317,216.26172H181.63045a13.13253,13.13253,0,0,0-13.11929,13.63234c.30587,8.03237.49,14.44768.49,14.44768v.00012l.01116.12154a13.17021,13.17021,0,0,0,13.08256,12.03654h12.3483Z"/><path fill="#cbc4cc" d="M394.86182,505c-.03662,0-.07373-.00049-.11036-.00146a3.501,3.501,0,0,1-3.39013-3.60743l8.31006-267.56982a3.50023,3.50023,0,0,1,6.99707.21777L398.3584,501.6084A3.50025,3.50025,0,0,1,394.86182,505Z"/><path fill="#aa6a51" d="M451.57583,512a3.99454,3.99454,0,0,1-3.99459-4.12729c.19281-6.14.12534-12.83057-.35248-19.98645A203.92617,203.92617,0,0,0,444.82,467.43L442.16,451.62a12.25978,12.25978,0,0,1,.14-4.79l3.62-15.62A210.62944,210.62944,0,0,0,403.84,250.5a36.74117,36.74117,0,0,1,47.78-54.49l11.85,7.33a12.25637,12.25637,0,0,1-12.89,20.85l-11.53328-7.1341a12.71671,12.71671,0,0,0-9.23575-1.7672A12.22811,12.22811,0,0,0,422.82,235,235.01962,235.01962,0,0,1,469.79,436.74L466.73,449.97l2.26,13.39a221.9904,221.9904,0,0,1,3.04052,44.785A3.99535,3.99535,0,0,1,468.02994,512Z"/><path fill="#935b44" d="M468.99 463.36l-2.26-13.39L469.79 436.74A235.01958 235.01958 0 0 0 422.82 235a12.23783 12.23783 0 0 1 2.48938-17.78162l-.2627-.16247a12.71624 12.71624 0 0 0-9.23572-1.76721A12.22812 12.22812 0 0 0 408.82 235 235.01958 235.01958 0 0 1 455.79 436.74L452.73 449.97l2.26 13.39a221.991 221.991 0 0 1 3.04053 44.785A3.99536 3.99536 0 0 1 454.03 512h14a3.99536 3.99536 0 0 0 4.00049-3.855A221.991 221.991 0 0 0 468.99 463.36zM437.62 196.01l11.85 7.33a12.25105 12.25105 0 0 1 .53662 20.49536l.57337.35467a12.25639 12.25639 0 0 0 12.89-20.85l-11.85-7.33a36.49371 36.49371 0 0 0-26.28553-4.81952A36.74534 36.74534 0 0 1 437.62 196.01z"/><rect width="52.596" height="36.256" x="432.06" y="439.38" fill="#fee903" rx="8.752" transform="rotate(-88.266 458.358 457.508)"/><path fill="#fac600" d="M468.5249,431.5058l-5.73511-.17365a8.73481,8.73481,0,0,1,.21851,2.18683l-.668,22.06742a21.766,21.766,0,0,1-22.41473,21.0975h0a8.748,8.748,0,0,0,8.265,6.82641l18.74268.56739a8.75249,8.75249,0,0,0,9.01331-8.48365l1.06176-35.07516A8.75227,8.75227,0,0,0,468.5249,431.5058Z"/><path fill="#26a6fe" d="M342.197,244.34186v-.00012s.18014-6.27571.48-14.18463a13.38662,13.38662,0,0,0-13.37237-13.8954H316.6784v40.23822h12.1938A13.3808,13.3808,0,0,0,342.197,244.34187Z"/><ellipse cx="200.932" cy="40.997" fill="#fee903" rx="12.475" ry="19.727" transform="rotate(-30 200.932 40.997)"/><ellipse cx="160.942" cy="80.988" fill="#fee903" rx="12.475" ry="19.727" transform="rotate(-60 160.942 80.988)"/><ellipse cx="146.304" cy="135.616" fill="#fee903" rx="19.727" ry="12.475"/><ellipse cx="160.942" cy="190.245" fill="#fee903" rx="19.727" ry="12.475" transform="rotate(-30 160.942 190.245)"/><ellipse cx="350.18" cy="190.245" fill="#fee903" rx="12.475" ry="19.727" transform="rotate(-60 350.18 190.245)"/><ellipse cx="364.818" cy="135.616" fill="#fee903" rx="19.727" ry="12.475"/><ellipse cx="350.18" cy="80.988" fill="#fee903" rx="19.727" ry="12.475" transform="rotate(-30 350.18 80.988)"/><ellipse cx="310.189" cy="40.997" fill="#fee903" rx="19.727" ry="12.475" transform="rotate(-60 310.19 40.997)"/><path fill="#fee903" d="M255.56071,25.15692A113.11313,113.11313,0,1,0,368.67387,138.27,113.1131,113.1131,0,0,0,255.56071,25.15692Zm0,191.22608A78.113,78.113,0,1,1,333.674,138.2702,78.20137,78.20137,0,0,1,255.56071,216.383Z"/><path fill="#fac600" d="M190.12866 47.2348a21.83128 21.83128 0 0 0 20.66748 10.847 21.8119 21.8119 0 0 0-.97839-26.11371 112.65908 112.65908 0 0 0-21.67761 10.66785A21.86263 21.86263 0 0 0 190.12866 47.2348zM167.17908 70.18445a21.76605 21.76605 0 0 0-6.95545-2.5567A113.22255 113.22255 0 0 0 148.209 86.04205a21.8087 21.8087 0 0 0 29.81714 4.80976A21.83135 21.83135 0 0 0 167.17908 70.18445zM135.6731 145.32648a21.831 21.831 0 0 0 30.35839-9.71 21.81788 21.81788 0 0 0-29.87963-9.9632 114.2802 114.2802 0 0 0-.70423 12.61676C135.44763 140.64069 135.5293 142.99194 135.6731 145.32648zM178.02612 180.3811a21.81375 21.81375 0 0 0-31.335 7.10816 113.055 113.055 0 0 0 9.78418 16.47845 21.824 21.824 0 0 0 21.55078-23.58661z"/><path fill="#fee903" d="M255.56071,25.15692A113.11313,113.11313,0,1,0,368.67387,138.27,113.1131,113.1131,0,0,0,255.56071,25.15692Zm0,191.22608A78.113,78.113,0,1,1,333.674,138.2702,78.20137,78.20137,0,0,1,255.56071,216.383Z"/><path fill="#fac600" d="M248.56079 60.48657c-2.308-.206-4.6394-.32965-7-.32965a78.113 78.113 0 1 0 0 156.22608c2.3606 0 4.692-.1236 7-.32966a78.0962 78.0962 0 0 1 0-155.56677zM255.56079 25.15692c-2.35156 0-4.68408.08051-7 .22193a113.10768 113.10768 0 0 1 0 225.7824c2.31592.14142 4.64844.22193 7 .22193a113.11313 113.11313 0 0 0 0-226.22626z"/><path fill="#fac600" d="M315.36987,188.44171a78.08087,78.08087,0,0,1-136.94043-62.5A67.90986,67.90986,0,0,0,165.979,174.38794l4.90186,38.8645A113.66051,113.66051,0,0,0,196.09473,234.5H309.56079Z"/><path fill="#fee903" d="M323.56074,234.5h-136l-7.5817-60.11207a67.9738,67.9738,0,0,1,40.75536-71.023L255.56074,88.5l34.82634,14.8649a67.9738,67.9738,0,0,1,40.75536,71.023Z"/><path fill="#fac600" d="M256,190.92658c-4.61311,0-7.529-8.36779-11.54493-10.03712-4.15789-1.72834-12.12539,2.05414-15.26223-1.08275s.64592-11.10414-1.08235-15.2619c-1.66929-4.01589-10.03707-6.93175-10.03707-11.54481s8.36779-7.529,10.03712-11.54493c1.72834-4.15789-2.05414-12.12539,1.08275-15.26223s11.10414.64592,15.2619-1.08235c4.01588-1.66929,6.93175-10.03707,11.54481-10.03707s7.529,8.36779,11.54493,10.03712c4.15789,1.72834,12.12539-2.05414,15.26223,1.08275s-.64592,11.10414,1.08235,15.2619c1.66929,4.01589,10.03707,6.93175,10.03707,11.54481s-8.36779,7.529-10.03712,11.54493c-1.72834,4.15789,2.05414,12.12539-1.08275,15.26223s-11.10414-.64592-15.2619,1.08235C263.52893,182.5588,260.61306,190.92658,256,190.92658Z"/><path fill="#fac600" d="M290.38708,103.36493,255.56079,88.5l-7,2.98779,27.82629,11.87714a67.97387,67.97387,0,0,1,40.75538,71.023L309.56079,234.5h14l7.58167-60.11206A67.97387,67.97387,0,0,0,290.38708,103.36493Z"/><path fill="#fac600" d="M184.84326,139.33228a67.8482,67.8482,0,0,0-5.10815,20.33764,553.13086,553.13086,0,0,0,151.6626.11243,67.84838,67.84838,0,0,0-5.07618-20.3418A553.105,553.105,0,0,1,184.84326,139.33228Z"/><path fill="#f4ba00" d="M326.32153,139.44055c-4.45605.57117-8.91882,1.07007-13.38427,1.53223a67.80589,67.80589,0,0,1,4.58886,20.51965c4.62867-.51819,9.25391-1.07471,13.87159-1.71008A67.84838,67.84838,0,0,0,326.32153,139.44055Z"/><path fill="#8ac9fe" d="M414.54437,512V425.54959A60,60,0,0,0,371.695,368.053l-64.56474-19.259a20,20,0,0,1-14.28314-19.16553V310.02624h-74.5727v19.60228a20,20,0,0,1-14.28313,19.16553l-64.56475,19.259a60,60,0,0,0-42.8494,57.49658V502a10,10,0,0,0,10,10Z"/><path fill="#26a6fe" d="M317.43713,351.86841a5.94569,5.94569,0,0,0-.75866,2.91272v3.89435l-9.65869-2.88111a19.99573,19.99573,0,0,1-2.19739-.81488l-.09473,1.28705v36.96133a43.97792,43.97792,0,0,1-22.68787,38.481L255.45,446.42l-26.58945-14.7111a43.97889,43.97889,0,0,1-22.68814-38.48177V356.26672l-.16333-1.257a20.01591,20.01591,0,0,1-2.12817.7846l-9.43774,2.81519v-3.99182a5.958,5.958,0,0,0-.67823-2.77332l-27.32177,8.14978V512h28V459.83045a3.9972,3.9972,0,0,1,6.46717-3.13955,80.02235,80.02235,0,0,0,10.35192,6.82558L255.45,487.96442l44.1875-24.44794a80.1596,80.1596,0,0,0,10.98737-7.3211,3.73417,3.73417,0,0,1,6.05365,2.93029V512h28V359.99426Z"/><path fill="#26a6fe" d="M201.87634,356.42487l-6.83166,2.03784a3.46267,3.46267,0,0,0,.36743.85028,71.275,71.275,0,0,0,121.02734.231,3.46,3.46,0,0,0,.374-.86152l-6.83472-2.03875a64.25584,64.25584,0,0,1-108.10242-.21881Z"/><circle cx="256" cy="399.045" r="9.5" fill="#26a6fe"/><path fill="#fee903" d="M211.26225,456.51653l44.18762,24.44793,44.18756-24.44793a80.3538,80.3538,0,0,0,41.44251-70.28968V360.11009l.31866-1.06079-34.37884-10.25488a19.99777,19.99777,0,0,1-2.19739-.81488l-.09473,1.28705V386.227A43.979,43.979,0,0,1,282.03971,424.709l-26.58984,14.71112L228.86045,424.709A43.97926,43.97926,0,0,1,206.17228,386.227V349.26677l-.16327-1.257a20.00731,20.00731,0,0,1-2.12823.78461l-34.1579,10.189.09772,1.12671v26.11676A80.35382,80.35382,0,0,0,211.26225,456.51653Z"/><path fill="#26a6fe" fill-rule="evenodd" d="M218.27441,310.02625V325.033a66.35482,66.35482,0,0,0,42.5835,15.32385h1.70361A67.79846,67.79846,0,0,0,293.156,333.0946a20.00579,20.00579,0,0,1-.30884-3.46612V310.02625Z"/><path fill="#8ac9fe" fill-rule="evenodd" d="M255.56143,326.35688h-1.70358a66.14747,66.14747,0,0,1-66.41549-66.0756c.00038-16.98925.00058-20.48618.00069-26.68929a41.383,41.383,0,0,1,17.3284-33.67316l0,0a48.27532,48.27532,0,0,1,34.50194-8.56027l16.28734,2.19321,16.28734-2.19321A48.27527,48.27527,0,0,1,306.35,199.91882l.00007,0a41.38494,41.38494,0,0,1,17.32838,33.6742c.0001,5.46683.0003,8.54246.00064,24.64081A68.121,68.121,0,0,1,255.56143,326.35688Z"/><path fill="#26a6fe" fill-rule="evenodd" d="M187.44312,247.592a41.383,41.383,0,0,1,17.32836-33.67316,48.27545,48.27545,0,0,1,34.502-8.5603l16.28735,2.19324,16.28735-2.19324a48.27559,48.27559,0,0,1,34.502,8.5603,41.385,41.385,0,0,1,17.32837,33.6742c0,3.29492.00012,5.72534.00024,10.65771l.00049-.0169c-.00049-16.09833-.00061-19.174-.00073-24.64081a41.385,41.385,0,0,0-17.32837-33.6742,48.27559,48.27559,0,0,0-34.502-8.5603l-16.28735,2.19324-16.28735-2.19324a48.27545,48.27545,0,0,0-34.502,8.5603A41.383,41.383,0,0,0,187.44312,233.592c-.00025,6.20312-.00037,9.7-.00074,26.68927l.00025.01208C187.44287,254.38544,187.44287,251.53217,187.44312,247.592Z"/><path fill="#26a6fe" fill-rule="evenodd" d="M323.67847,233.593a41.385,41.385,0,0,0-17.32837-33.6742,48.252,48.252,0,0,0-13.75659-6.81482,41.3794,41.3794,0,0,1,17.085,33.489c.00012,5.46686.00024,8.54248.00073,24.64081a68.12112,68.12112,0,0,1-68.11768,68.123h-1.70361A66.83885,66.83885,0,0,1,217.23,315.438a66.40946,66.40946,0,0,0,36.62793,10.91882h1.70361a68.12112,68.12112,0,0,0,68.11768-68.123C323.67871,242.1355,323.67859,239.05988,323.67847,233.593Z"/><path fill="#fee903" d="M280.18124,95.47906h-49.241A17.884,17.884,0,0,1,215.21718,86.117h0a48.97153,48.97153,0,0,1,0-46.67137h0a48.97126,48.97126,0,0,1,13.578-15.77161L255.56074,3.5l26.76552,20.174a48.97126,48.97126,0,0,1,13.578,15.77161h0a48.97153,48.97153,0,0,1,0,46.67137h0A17.884,17.884,0,0,1,280.18124,95.47906Z"/><path fill="#fac600" d="M295.9043,39.44562A48.97093,48.97093,0,0,0,282.32617,23.674L255.56079,3.5l-2.35644,1.77612L268.32617,16.674A48.97093,48.97093,0,0,1,281.9043,32.44562q.45363.83694.87248,1.68678c12.35452,25.06171-6.59,54.34666-34.5314,54.34666H216.94019c-.062,0-.12305-.00567-.18494-.00628a17.87864,17.87864,0,0,0,14.18494,7.00628h49.241a17.75153,17.75153,0,0,0,15.58268-9.10472A48.97159,48.97159,0,0,0,295.9043,39.44562Z"/><rect width="78.167" height="20.291" x="216.477" y="91.855" fill="#fee903" rx="10.145"/><path fill="#fac600" d="M284.499,91.85461h-4.35778a10.13707,10.13707,0,0,1-9.64222,13.29078h-53.5188a10.14543,10.14543,0,0,0,9.64234,7H284.499a10.14539,10.14539,0,0,0,0-20.29078Z"/><path fill="#fd4755" d="M274.60748,52.84762,259.26523,69.77244a5,5,0,0,1-7.409,0L236.514,52.84762a5,5,0,0,1,0-6.71619l15.34226-16.92481a5,5,0,0,1,7.409,0l15.34225,16.92481A5,5,0,0,1,274.60748,52.84762Z"/><path fill="#fb2b3a" d="M274.60742,46.1314,259.26508,29.20655a4.99991,4.99991,0,0,0-7.40888.00005L248.56079,32.842l0,0a24.78717,24.78717,0,0,1,0,33.29489h0l3.29534,3.63542a5,5,0,0,0,7.409.00008L274.60742,52.8476A5,5,0,0,0,274.60742,46.1314Z"/><path fill="#fe9738" d="M256,182.39146c-3.575,0-5.83466-6.48468-8.94682-7.77834-3.22218-1.33939-9.39666,1.59187-11.82757-.83908s.50056-8.60523-.83877-11.82731c-1.29363-3.11214-7.7783-5.37181-7.7783-8.94673s6.48468-5.83466,7.77834-8.94682c1.33939-3.22218-1.59187-9.39666.83908-11.82757s8.60523.50056,11.82731-.83877c3.11214-1.29363,5.37181-7.7783,8.94673-7.7783s5.83466,6.48468,8.94682,7.77834c3.22218,1.33939,9.39666-1.59187,11.82757.83908s-.50056,8.60523.83877,11.82731c1.29363,3.11214,7.7783,5.37181,7.7783,8.94673s-6.48468,5.83465-7.77834,8.94682c-1.33939,3.22218,1.59187,9.39666-.83908,11.82757s-8.60523-.50056-11.82731.83877C261.83459,175.90679,259.57492,182.39146,256,182.39146Z"/><circle cx="256" cy="153" r="10.226" fill="#fd4755"/><path fill="#fb2b3a" d="M258.82251,143.17749a10.20683,10.20683,0,0,1-12.645,12.645,10.22246,10.22246,0,1,0,12.645-12.645Z"/><circle cx="256" cy="392.045" r="9.5" fill="#fee903"/><path fill="#fac600" d="M258.45532,382.87665A9.48085,9.48085,0,0,1,247.63086,396.54a9.49807,9.49807,0,1,0,10.82446-13.66333Z"/><path fill="#fd4755" d="M414.54443,502V418.54971A60.00015,60.00015,0,0,0,371.695,361.053l-40.30142-12.02149a6,6,0,0,0-7.71506,5.74965V512h80.866A10,10,0,0,0,414.54443,502Z"/><path fill="#fb2b3a" d="M371.695,361.053l-40.30142-12.0215a6,6,0,0,0-7.71508,5.74968v3.125L357.695,368.053a60.00012,60.00012,0,0,1,42.84942,57.49668V512h4a10,10,0,0,0,10-10V418.54968A60.00011,60.00011,0,0,0,371.695,361.053Z"/><path fill="#fac600" d="M307.01978,348.79437a19.99573,19.99573,0,0,1-2.19739-.81488l-.09473,1.28705v3.0202h0a16.73416,16.73416,0,0,1,11.9508,16.036v38.926a53.32493,53.32493,0,0,1-19.70946,41.6735,80.1527,80.1527,0,0,1-11.33156,7.59429l-37.1875,20.575,7,3.87293,44.1875-24.44794a80.22225,80.22225,0,0,0,17.041-12.63409h0l.00036-.00037q1.36395-1.32377,2.65686-2.71039c.11524-.12292.22876-.24707.343-.37067q2.54407-2.7484,4.81677-5.71283c.10865-.14178.21558-.28466.32325-.42718q2.2359-2.9587,4.19018-6.1084c.10462-.16864.20728-.33819.31067-.50757q1.9107-3.13329,3.53174-6.43164c.09814-.19964.19409-.4.29053-.60046.52014-1.08209,1.02343-2.17267,1.49511-3.2782l.0127-.02869c.476-1.11657.92016-2.24737,1.34558-3.3861.08667-.23194.17126-.4646.25586-.69739.40466-1.1145.7926-2.2359,1.14831-3.36963.00586-.019.0127-.03772.01868-.05676.3595-1.149.68591-2.31006.99414-3.47724.18877-.71411.36028-1.43095.55664-2.15175.18723-.68726.30111-1.39112.44833-2.08805.00493-.02336.01072-.04643.01554-.06983.24206-1.1759.44934-2.36151.63879-3.5517q.06831-.42819.13135-.85736c.17383-1.1737.33081-2.35162.45288-3.53723.0022-.02069.00537-.04107.00745-.06177.12268-1.20013.20886-2.40777.27759-3.61859q.02544-.44852.04577-.8977c.05518-1.21546.09339-2.43384.09339-3.65808V360.11005l.31872-1.06079Z"/><path fill="#fee903" d="M351.67847,355.08228l-20.28492-6.05079a6,6,0,0,0-7.71508,5.74964V512h28V355.08228Z"/><path fill="#fac600" d="M351.67847,355.08228l-20.28492-6.05079a6,6,0,0,0-7.71508,5.74964v3.12506l28,8.35211Z"/><path fill="#fd4755" d="M89.57711,502V419.47589a60,60,0,0,1,43.9856-57.82334l46.27893-12.81714a6,6,0,0,1,7.60144,5.78234V512h-87.866A10,10,0,0,1,89.57711,502Z"/><path fill="#fac600" d="M228.86214,424.70987A43.98053,43.98053,0,0,1,206.17236,386.227V349.26672l-.16333-1.257a20.01591,20.01591,0,0,1-2.12817.7846l-11.7085,3.49256v.03253l-22.44677,6.69562.095,1.095v26.11676a80.35355,80.35355,0,0,0,24.62256,57.86505V409.36852a1.99563,1.99563,0,0,1,3.725-.99765,43.88853,43.88853,0,0,0,16.69234,16.338l29.119,16.20325A9.72187,9.72187,0,0,0,255.44983,439.42Q242.156,432.065,228.86214,424.70987Z"/><path fill="#fee903" d="M187.44312,354.61774a6.00009,6.00009,0,0,0-7.60157-5.78235l-19.62488,5.43518-.77355.81171V512h28Z"/><path fill="#26a6fe" d="M277.17615,494.62592a5.55887,5.55887,0,0,0,0-7.46705l-17.0575-18.817a5.559,5.559,0,0,0-8.2373,0l-17.0575,18.817a5.55887,5.55887,0,0,0,0,7.46705L250.57336,512h10.85328Z"/><path fill="#fee903" d="M275.04674,489.93328l-15.34226,16.92481a5,5,0,0,1-7.409,0l-15.34226-16.92481a5,5,0,0,1,0-6.71619l15.34226-16.92482a5,5,0,0,1,7.409,0l15.34226,16.92482A5,5,0,0,1,275.04674,489.93328Z"/><path fill="#fac600" d="M275.04676,483.21711l-15.34229-16.92487a5,5,0,0,0-7.409,0L249,469.92773l0,0a24.787,24.787,0,0,1,0,33.29489l0,0,3.29553,3.63543a5,5,0,0,0,7.40895,0l15.34227-16.92479A5,5,0,0,0,275.04676,483.21711Z"/><path d="M479.42225,475.68457l1.062-35.07519a12.17245,12.17245,0,0,0-3.3247-8.76856,12.30232,12.30232,0,0,0-2.37879-1.95007,238.35282,238.35282,0,0,0-49.27258-197.12024A8.73351,8.73351,0,0,1,436.8661,219.8208l11.84912,7.3291A15.75634,15.75634,0,1,0,465.289,200.34766l-11.85156-7.33106a40.238,40.238,0,0,0-60.79956,41.14215L388.57044,364.9873a62.7769,62.7769,0,0,0-9.48547-4.99,21.13692,21.13692,0,0,0-1.10852-4.46991c-2.71436-7.45507-7.75293-10.0913-11.80176-12.209-3.7334-1.95361-6.68262-3.49609-8.46875-8.40137-1.78564-4.90576-.51953-7.98388,1.0835-11.88135,1.73779-4.22558,3.90088-9.48437,1.18652-16.93847-2.71387-7.45508-7.75244-10.09082-11.80127-12.209-3.7334-1.95312-6.68262-3.49609-8.46338-8.3872l-.012-.03632a21.69588,21.69588,0,0,0,1.84424-31.207,16.84359,16.84359,0,0,0,4.11938-9.61456c.00733-.07618.01172-.15284.01367-.2295,0-.00927.04-1.56445.12891-4.09961.08008-2.55419.19971-6.08593.34961-10.042a16.83828,16.83828,0,0,0-5.08887-12.72314,116.57118,116.57118,0,0,0,8.79541-10.60834,25.20144,25.20144,0,0,0,4.93067.50287A25.48014,25.48014,0,0,0,369.225,202.9751a3.49943,3.49943,0,0,0,1.50049-2.59717,25.43471,25.43471,0,0,0-6.64392-19.23315,116.06347,116.06347,0,0,0,7.40967-30.47113,25.34188,25.34188,0,0,0,16.19568-13.56379,3.49864,3.49864,0,0,0,.001-3.0083A25.21389,25.21389,0,0,0,370.77845,120.347a115.0393,115.0393,0,0,0-8.313-28.69769,25.42543,25.42543,0,0,0,8.26-20.82947,3.49938,3.49938,0,0,0-1.50146-2.59668,25.35,25.35,0,0,0-22.80274-3.03057A117.45345,117.45345,0,0,0,325.763,45.222a25.25325,25.25325,0,0,0-2.85535-23.31573,3.5,3.5,0,0,0-2.60254-1.50049,25.22212,25.22212,0,0,0-21.80151,9.4325q-3.4607-1.37769-7.00623-2.52314a52.67086,52.67086,0,0,0-7.08386-6.45623L257.64344.689a3.49883,3.49883,0,0,0-4.2124.00049L226.67079,20.85889a52.76143,52.76143,0,0,0-7.07605,6.45373q-3.54657,1.15164-7.01575,2.526a25.23583,25.23583,0,0,0-21.80957-9.43286,3.5,3.5,0,0,0-2.60254,1.50049,25.25149,25.25149,0,0,0-2.854,23.31812,117.44416,117.44416,0,0,0-20.65821,19.969,25.35435,25.35435,0,0,0-22.80371,3.0293,3.50115,3.50115,0,0,0-1.50195,2.59765,25.42742,25.42742,0,0,0,8.26062,20.82917,115.03158,115.03158,0,0,0-8.31323,28.69842,25.21069,25.21069,0,0,0-16.90052,13.75562,3.49847,3.49847,0,0,0,.001,3.00439,25.3377,25.3377,0,0,0,16.18652,13.56287,116.06364,116.06364,0,0,0,7.41,30.474,25.43595,25.43595,0,0,0-6.64441,19.23266,3.49952,3.49952,0,0,0,1.50049,2.59766,25.47912,25.47912,0,0,0,14.4331,4.46826,25.2069,25.2069,0,0,0,4.93054-.50305,116.55369,116.55369,0,0,0,8.75061,10.5614,16.58579,16.58579,0,0,0-4.97412,12.50757c.30518,7.90722.48633,14.31543.4878,14.31494a3.85737,3.85737,0,0,0,.02.38867l.00439.04932a16.78093,16.78093,0,0,0,4.02637,9.4989,21.724,21.724,0,0,0,4.06933,32.87848c-.068.21374-.11926.418-.19873.63775-1.78564,4.9043-4.73681,6.44727-8.47314,8.40039-4.05078,2.11817-9.09229,4.75391-11.80664,12.2085-2.71436,7.4502-.54883,12.70947,1.1914,16.936,1.606,3.89941,2.874,6.97949,1.08838,11.88378-1.774,4.86853-4.69946,6.42353-8.40124,8.35883l-9.03723-27.43451a9.48487,9.48487,0,0,0,3.78173-10.88965l-2.81591-8.54736a9.4991,9.4991,0,0,0-11.99512-6.05127l-23.28345,7.66974-8.03-24.37549,3.85987-2.7547a8.46157,8.46157,0,0,0,3.13525-9.57861L87.0575,216.38037a5.50009,5.50009,0,0,0-9.44482-1.80566l-11.44653,13.701L56.29237,198.29a5.50694,5.50694,0,0,0-9.45166-1.80908L33.56,212.38379,13.4203,207.49268a5.49836,5.49836,0,0,0-6.51709,7.0664L22.45545,261.7876a8.49093,8.49093,0,0,0,8.09131,5.8374c.03955,0,.07959-.00049.11963-.001l4.74219-.08026L51.827,317.38184l-17.02588,5.60839a9.49909,9.49909,0,0,0-6.05127,11.99512l2.81592,8.54785a9.51574,9.51574,0,0,0,9.01367,6.53321c.168,0,.33606-.01117.50415-.02021L86.05457,486.57709v21.90729a3.5,3.5,0,0,0,7,0V419.46045A56.6623,56.6623,0,0,1,134.474,365.00977l21.44629-5.93946V508.48438a3.5,3.5,0,0,0,7,0V357.13165l17.833-4.93878a2.49966,2.49966,0,0,1,3.167,2.40918V508.48438a3.5,3.5,0,0,0,7,0V445.52887a83.15506,83.15506,0,0,0,18.623,14.038l29.36487,16.24183-4.57092,5.04235a8.47115,8.47115,0,0,0,0,11.417l15.34228,16.9248a8.5,8.5,0,0,0,12.59571,0l15.34228-16.9248a8.47115,8.47115,0,0,0,0-11.417l-4.93591-5.44506,28.6322-15.84009a83.34061,83.34061,0,0,0,18.84229-14.25635v63.17481a3.5,3.5,0,0,0,7,0V354.76562a2.5001,2.5001,0,0,1,3.21435-2.396l17.78565,5.3053V508.48438a3.5,3.5,0,0,0,7,0V359.76294l15.51562,4.62817a56.852,56.852,0,0,1,40.3501,54.14307v89.9502a3.5,3.5,0,0,0,7,0v-89.9502a63.8507,63.8507,0,0,0-22.60522-48.47748l3.72973-119.96783q.92175,1.3352,1.96,2.60937a207.071,207.071,0,0,1,41.57691,176.80054,12.37238,12.37238,0,0,0-1.58618,1.25024,12.17263,12.17263,0,0,0-3.84913,8.55127l-1.062,35.0752a12.25372,12.25372,0,0,0,7.34815,11.60193,208.06016,208.06016,0,0,1,.56494,22.403,3.50015,3.50015,0,0,0,3.39453,3.60254c.03516.001.0708.00147.106.00147a3.50012,3.50012,0,0,0,3.49658-3.396c.21289-7.15338.043-14.37012-.46192-21.51734l16.17041.48951q.19044.00585.38086.00586c.34693,0,.69092-.0199,1.03321-.04847.43945,6.97681.58654,13.97779.40039,20.8722a3.49924,3.49924,0,0,0,3.40429,3.59277c.03223.001.064.00147.0962.00147a3.49971,3.49971,0,0,0,3.49658-3.40577c.21313-7.89.00781-15.91461-.5741-23.88781.17835-.14991.36023-.29407.53113-.455A12.17259,12.17259,0,0,0,479.42225,475.68457ZM380.56483,135.60205a18.3485,18.3485,0,0,1-8.52564,7.46924c.06421-1.60022.10816-3.20447.10816-4.8169,0-3.45574-.16236-6.88549-.4574-10.28851A18.24008,18.24008,0,0,1,380.56483,135.60205Zm-241.5293,7.46375a18.33669,18.33669,0,0,1-8.5166-7.46375,18.23054,18.23054,0,0,1,8.86572-7.63281c-.29468,3.40185-.457,6.83056-.457,10.28515C138.92762,139.86493,138.97157,141.46741,139.03553,143.0658ZM96.999,302.50189,80.88,307.81158l-7.18286-22.30316,6.06446-.10071a8.46662,8.46662,0,0,0,4.79785-1.57959l5.09094-3.63323ZM69.10047,235.68164l12.15332-14.54687,14.71045,44.65869a1.49263,1.49263,0,0,1-.55322,1.68994L80.49354,278.12988a1.49417,1.49417,0,0,1-.84717.27881l-18.32519.3042a1.493,1.493,0,0,1-1.44922-1.03076L45.161,233.02393l18.4209,4.47656A5.46269,5.46269,0,0,0,69.10047,235.68164ZM30.55946,260.625a1.54657,1.54657,0,0,1-1.458-1.03516L14.39588,214.93311l18.41358,4.47168a5.45,5.45,0,0,0,5.52441-1.8169l12.15186-14.55078,8.618,26.17126-14.913-3.6239a5.5,5.5,0,0,0-6.523,7.06494l9.12487,27.70081Zm12.17834,6.79474,6.28113-.10626c.02209-.00049.04358-.005.06567-.00568l4.13892,12.56476a8.46,8.46,0,0,0,8.06836,5.84082c.04834,0,.09717-.00049.146-.00147l4.94433-.08209,7.84912,24.37189-15.75586,5.19006ZM42.30262,342.629l-.93213.307a2.49992,2.49992,0,0,1-3.15625-1.59278l-2.81592-8.54834a2.49992,2.49992,0,0,1,1.59278-3.15625l20.30871-6.68982c.01429-.00445.02869-.00567.04285-.01037.01135-.00373.02075-.01038.032-.01422l71.74683-23.63373a2.49993,2.49993,0,0,1,3.15625,1.59277l2.81592,8.54736a2.50044,2.50044,0,0,1-1.59278,3.15723l-6.34863,2.09125-84.82959,27.941Zm92.92236,14.9093-2.61914.72534a63.68253,63.68253,0,0,0-46.55127,61.19678v44.74213L47.83741,348.17578l83.58093-27.5321,9.47083,28.75171A18.97955,18.97955,0,0,0,135.225,357.53833Zm190.3125-73.81372a14.7966,14.7966,0,0,1-2.94091-.30121,71.48892,71.48892,0,0,0,4.51709-23.439h1.73388a16.94223,16.94223,0,0,0,7.015-1.52125,14.72775,14.72775,0,0,1-10.32508,25.26148Zm-69.56005,121.3042a12.97451,12.97451,0,0,0,11.02368-19.85767,70.64718,70.64718,0,0,0,34.2063-15.31622v16.35944a40.50041,40.50041,0,0,1-20.88428,35.41748L255.42762,435.4043l-24.895-13.772a40.50069,40.50069,0,0,1-20.88525-35.418V368.96283a70.61747,70.61747,0,0,0,35.29822,16.2218,12.97419,12.97419,0,0,0,11.03186,19.84418Zm-6-13a6,6,0,1,1,6,6A6.00655,6.00655,0,0,1,249.97743,392.02881Zm6-13a63.835,63.835,0,0,1-46.33008-19.72418v-9.16986a23.64708,23.64708,0,0,0,12.1001-20.52051v-7.48169a70.02639,70.02639,0,0,0,32.08789,7.70874H255.539a71.24854,71.24854,0,0,0,33.78857-8.43616v8.20911a23.654,23.654,0,0,0,11.87989,20.40014v10.38984A63.85975,63.85975,0,0,1,255.97743,379.02881Zm34.94091-66.7226c-.02343.01526-.0476.02887-.07055.04468A64.15857,64.15857,0,0,1,255.539,322.84131h-1.70361a62.83062,62.83062,0,0,1-58.00586-38.22675c-.01673-.04535-.02271-.092-.04151-.137-.03-.07227-.07483-.133-.10913-.20215a62.38429,62.38429,0,0,1-4.759-24.00977l.00049-26.68945a37.95678,37.95678,0,0,1,15.86279-30.82471,44.594,44.594,0,0,1,25.97754-8.34472,45.07782,45.07782,0,0,1,6.023.40478l16.28711,2.19336a3.48171,3.48171,0,0,0,.93457,0l16.28711-2.19336a44.60633,44.60633,0,0,1,32.001,7.93994,37.95814,37.95814,0,0,1,15.8628,30.82618l.00049,24.64062a64.46008,64.46008,0,0,1-5.36817,25.83014c-.00781.01611-.01929.029-.02685.04535-.0105.02271-.01392.04657-.02393.06934a64.56611,64.56611,0,0,1-13.50684,19.75A65.21913,65.21913,0,0,1,290.91834,312.30621Zm17.44336-115.251a51.59661,51.59661,0,0,0-37.00341-9.18116L255.538,190.00439,239.71766,187.874a51.59947,51.59947,0,0,0-37.00293,9.18116,44.86636,44.86636,0,0,0-14.24206,16.89239L183.43006,173.936a64.32168,64.32168,0,0,1-.46484-10.32c15.9032,2.10187,31.98437,3.52514,47.91943,4.24109-.31933,2.81372-.46386,6.06909,1.84326,8.37628,2.56055,2.55957,6.28907,2.10254,9.28223,1.73584a12.465,12.465,0,0,1,3.67481-.14063,12.7259,12.7259,0,0,1,2.32861,2.57862c1.88183,2.43652,4.22363,5.46875,7.96387,5.46875s6.082-3.03223,7.96338-5.46875a12.77542,12.77542,0,0,1,2.32666-2.57764,12.42789,12.42789,0,0,1,3.67724.14014c2.99561.3667,6.72266.82422,9.28174-1.73584,2.30713-2.30762,2.1626-5.563,1.84326-8.37665,15.66016-.70429,31.44751-2.09143,47.04541-4.13361a64.32259,64.32259,0,0,1-.47021,10.21338l-5.04224,40.00867A44.867,44.867,0,0,0,308.3617,197.05518ZM184.0492,230.35687c-.07727,1.06806-.1289,2.14032-.1289,3.2193l-.00037,19.40821h-1.85266a9.63748,9.63748,0,0,1-9.58984-8.80567c-.001-.01953-.00293-.03955-.0044-.05908-.0249-.87256-.20264-6.97315-.48828-14.375a9.60884,9.60884,0,0,1,2.90405-7.261A119.17749,119.17749,0,0,0,184.0492,230.35687ZM226.6,115.62988h57.87647a13.6285,13.6285,0,0,0,11.123-5.76916,64.37076,64.37076,0,0,1,25.468,26.67737c-13.35217,1.58966-26.83593,2.69476-40.20178,3.29968.03308-.29364.067-.5763.09705-.82068.3667-2.99512.82324-6.72266-1.73584-9.28174-2.55957-2.55908-6.28858-2.10351-9.28223-1.73584a12.466,12.466,0,0,1-3.6748.14063,12.7259,12.7259,0,0,1-2.32862-2.57862c-1.88183-2.43652-4.22363-5.46875-7.96386-5.46875s-6.082,3.03223-7.96338,5.46875a12.77572,12.77572,0,0,1-2.32666,2.57764,12.4437,12.4437,0,0,1-3.67725-.14014c-2.99414-.36572-6.72217-.82324-9.28174,1.73584-2.55908,2.55957-2.10254,6.28711-1.73584,9.28223.02979.24445.06385.52716.09693.82092-13.62134-.61572-27.38355-1.75512-41.0304-3.40136a64.37033,64.37033,0,0,1,25.41748-26.57654A13.62823,13.62823,0,0,0,226.6,115.62988Zm-6.6455-13.6455A6.65276,6.65276,0,0,1,226.6,95.33887h57.87647a6.64551,6.64551,0,1,1,0,13.291H226.6A6.65276,6.65276,0,0,1,219.95448,101.98438Zm65.43213,44.64129c12.86767-.68133,25.81811-1.82068,38.6361-3.397a64.47266,64.47266,0,0,1,3.473,13.51611c-14.52564,1.90979-29.22022,3.25391-43.81958,3.98981,2.38379-1.84595,5.19287-4.14929,5.19287-7.75018C288.869,150.23132,287.22547,148.23749,285.38661,146.62567ZM273.739,164.72443c.03308,1.04846.15467,2.09137.27552,3.07782a16.65381,16.65381,0,0,1,.20263,3.42236,16.6893,16.6893,0,0,1-3.42138-.20313c-2.3125-.2832-4.9336-.605-7.21485.34424-2.21142.91895-3.7207,2.873-5.18017,4.76319a14.5732,14.5732,0,0,1-2.42334,2.70068,14.57929,14.57929,0,0,1-2.42383-2.70117c-1.45947-1.88965-2.96826-3.84375-5.17969-4.7627a9.38649,9.38649,0,0,0-3.63135-.63427,29.62539,29.62539,0,0,0-3.583.29,16.76118,16.76118,0,0,1-3.42237.20264,16.6847,16.6847,0,0,1,.20313-3.42139c.12085-.98663.24243-2.02972.27551-3.0783.00134-.02283.0083-.04377.00915-.06672.0011-.02844-.00561-.05505-.00512-.08331a9.73466,9.73466,0,0,0-.62378-3.98651c-.91895-2.21143-2.87305-3.7207-4.76319-5.18018a14.57283,14.57283,0,0,1-2.70068-2.42333,14.57929,14.57929,0,0,1,2.70117-2.42383c1.88965-1.45948,3.84375-2.96826,4.7627-5.17969a7.48994,7.48994,0,0,0,.33569-1.03992c.00549-.02221.00952-.04474.01465-.06714a17.24942,17.24942,0,0,0-.0061-6.1073,16.65388,16.65388,0,0,1-.20264-3.42236,16.82935,16.82935,0,0,1,3.42139.20313c2.312.28222,4.93213.604,7.21484-.34424,2.21143-.91895,3.7207-2.873,5.18018-4.76319a14.57249,14.57249,0,0,1,2.42334-2.70068,14.57964,14.57964,0,0,1,2.42382,2.70117c1.45948,1.88965,2.96827,3.84375,5.17969,4.7627,2.28125.94873,4.90186.62793,7.21436.34424a16.50634,16.50634,0,0,1,3.42236-.20264,16.68463,16.68463,0,0,1-.20312,3.42139,17.62333,17.62333,0,0,0-.03248,5.98645c.01709.0896.03394.17822.05787.26513a7.44244,7.44244,0,0,0,.31884.96326c.91895,2.21143,2.87305,3.7207,4.76319,5.18018a14.57249,14.57249,0,0,1,2.70068,2.42334,14.57964,14.57964,0,0,1-2.70117,2.42382c-1.88965,1.45948-3.84375,2.96826-4.7627,5.17969a9.73413,9.73413,0,0,0-.62378,3.98633c.00049.02832-.00622.055-.00512.08349C273.73072,164.6806,273.73768,164.70166,273.739,164.72443Zm-47.17175-18.09815c-1.83838,1.61188-3.48145,3.60553-3.48145,6.3581,0,3.601,2.80933,5.90435,5.193,7.74987-14.87366-.749-29.85974-2.12866-44.68592-4.09649a64.48633,64.48633,0,0,1,3.49878-13.5149C200.20606,144.7558,213.43861,145.931,226.56727,146.62628Zm109.57056,75.90436a9.85994,9.85994,0,0,1,3.02221,7.48108c-.15088,3.96924-.2705,7.51758-.35058,10.06982-.07569,2.14942-.11621,3.60791-.12744,4.02832a9.82734,9.82734,0,0,1-4.17579,7.1037c-.03772.02234-.07189.05054-.10888.07434a9.87518,9.87518,0,0,1-5.54981,1.69648h-1.691l-.00036-19.40674c0-1.07978-.05176-2.15284-.12915-3.22174A119.19991,119.19991,0,0,0,336.13783,222.53064ZM354.29749,200.42a114.72075,114.72075,0,0,0,6.59913-11.96167,18.41579,18.41579,0,0,1,2.9104,9.653A18.48175,18.48175,0,0,1,354.29749,200.42Zm9.51-127.33361a18.42548,18.42548,0,0,1-4.52856,11.84582,117.00925,117.00925,0,0,0-8.37146-13.76312A18.3587,18.3587,0,0,1,363.8075,73.08643ZM318.04823,27.32568a18.26328,18.26328,0,0,1,1.7362,13.65711,117.44881,117.44881,0,0,0-14.55322-8.20258A18.23181,18.23181,0,0,1,318.04823,27.32568ZM343.47889,72.8125a109.85489,109.85489,0,0,1,11.45789,19.15c.02331.05658.04846.11188.075.16754a108.92486,108.92486,0,0,1,10.13562,46.12439q0,4.72038-.39319,9.36384l-.00281.03863a109.13711,109.13711,0,0,1-7.79541,32.40442,3.452,3.452,0,0,0-.45923,1.11377,107.8685,107.8685,0,0,1-10.62549,19.2984,3.45307,3.45307,0,0,0-.71093,1.00812A109.66871,109.66871,0,0,1,333.211,215.59589c-.02161.0238-.047.04266-.068.06713q-2.04327,2.03871-4.20324,3.98346l5.65051-44.83349a71.221,71.221,0,0,0,.26086-15.34943c-.00525-.05963.00183-.11749-.00647-.17743-.00293-.02173-.01172-.041-.01513-.06256-.03711-.39667-.06617-.795-.11-1.19037A81.564,81.564,0,0,0,304.29884,72.863a52.18975,52.18975,0,0,0-5.34339-35.09443c-.03747-.06921-.07959-.13482-.11743-.20379A110.77914,110.77914,0,0,1,343.47889,72.8125Zm-44.52344,14.958a52.50885,52.50885,0,0,0,3.33789-7.60163,74.72272,74.72272,0,0,1,27.854,58.08551c0,.44111-.01306.8816-.02075,1.32239-.15674-.39557-.32837-.78448-.49195-1.177a3.46072,3.46072,0,0,0-.26941-.64435A71.42346,71.42346,0,0,0,298.06,103.20752c.03613-.40363.062-.8103.062-1.22314a13.57525,13.57525,0,0,0-3.29175-8.86371A21.35649,21.35649,0,0,0,298.95545,87.77051ZM218.27674,41.09863a45.34594,45.34594,0,0,1,5.50977-7.99658,45.91376,45.91376,0,0,1,7.09717-6.65283L255.538,7.8667l24.66016,18.58057a45.543,45.543,0,0,1,18.09912,36.31689,45.68491,45.68491,0,0,1-5.49756,21.67334,14.3493,14.3493,0,0,1-4.0011,4.6145,13.567,13.567,0,0,0-4.32214-.71313H226.6a13.56438,13.56438,0,0,0-4.33886.7193,14.32432,14.32432,0,0,1-3.98535-4.61969,45.44668,45.44668,0,0,1,.001-43.33985Zm-2.03125,52.02289a13.57555,13.57555,0,0,0-3.291,8.86286c0,.41259.02588.819.06189,1.22241a71.42379,71.42379,0,0,0-31.21851,34.33764,3.48125,3.48125,0,0,0-.32483.7771c-.175.41834-.35742.83332-.52466,1.25507-.00769-.44074-.02075-.88117-.02075-1.32221a74.72294,74.72294,0,0,1,27.85376-58.08526A52.51491,52.51491,0,0,0,212.119,87.77,21.31223,21.31223,0,0,0,216.24549,93.12152ZM193.02625,27.32568A18.26134,18.26134,0,0,1,205.849,32.78119a117.47524,117.47524,0,0,0-14.55774,8.20447A18.2616,18.2616,0,0,1,193.02625,27.32568ZM147.267,73.08643A18.36871,18.36871,0,0,1,160.1681,71.1701a117.01765,117.01765,0,0,0-8.37158,13.76246A18.4316,18.4316,0,0,1,147.267,73.08643Zm.001,125.0249a18.41579,18.41579,0,0,1,2.9104-9.653,114.76663,114.76663,0,0,0,6.59888,11.96137A18.47618,18.47618,0,0,1,147.268,198.11133Zm18.64576,3.36883a3.45319,3.45319,0,0,0-.71-1.00677,107.8665,107.8665,0,0,1-10.62548-19.29834,3.452,3.452,0,0,0-.45923-1.11377,109.13466,109.13466,0,0,1-7.79505-32.39905l-.0028-.04053q-.38782-4.64309-.39356-9.36731a108.9175,108.9175,0,0,1,10.13794-46.12823c.02515-.05322.0492-.106.07153-.16A109.95926,109.95926,0,0,1,212.23426,37.569c-.03637.06659-.07763.1308-.11377.19757a52.18648,52.18648,0,0,0-5.34472,35.09662,81.56377,81.56377,0,0,0-30.42029,85.1698,71.23385,71.23385,0,0,0,.12927,16.779l5.65051,44.83454q-2.18793-1.96638-4.2528-4.03254c-.023-.02667-.05054-.04718-.0741-.07306A109.65735,109.65735,0,0,1,165.91371,201.48016Zm4.87377,67.4842a14.77656,14.77656,0,0,1,4.39905-10.47669,16.58407,16.58407,0,0,0,6.88074,1.49671h1.85254v.28124a69.5501,69.5501,0,0,0,3.97241,23.25556,14.66917,14.66917,0,0,1-17.10474-14.55682Zm18.61561,80.47381a9.53911,9.53911,0,0,0-2.23133-2.39715,9.42436,9.42436,0,0,0-8.28662-1.59424l-29.25732,8.10272-.40943-1.24268c.31177-.16552.6272-.33148.95093-.50067,4.05078-2.11816,9.09229-4.7539,11.80664-12.20459,2.71485-7.45556.54834-12.71728-1.19287-16.94482-1.60449-3.897-2.87207-6.9751-1.08691-11.875,1.78564-4.9043,4.73681-6.44727,8.47314-8.40039,4.05078-2.11817,9.09229-4.75391,11.80908-12.21485.01856-.05108.03272-.09985.05078-.15069a21.39914,21.39914,0,0,0,10.58277.08716,69.48524,69.48524,0,0,0,13.73218,19.3648,70.26165,70.26165,0,0,0,10.40332,8.5448v11.60169a16.59284,16.59284,0,0,1-9.812,15.065c-.10107.032-.20581.04681-.30468.08832a16.37443,16.37443,0,0,1-1.77491.65332Zm83.028,138.12872L257.08875,504.4917a1.49973,1.49973,0,0,1-2.22265,0l-15.34229-16.92481a1.49483,1.49483,0,0,1,0-2.01464l15.34229-16.92481a1.49975,1.49975,0,0,1,2.22265,0l7.52295,8.299c.00806.00824.01514.01752.02332.02564l7.796,8.60016A1.49481,1.49481,0,0,1,272.431,487.56689Zm47.7251-52.714a76.16941,76.16941,0,0,1-22.23291,18.589l-30.07129,16.6363-5.57666-6.15192a8.5,8.5,0,0,0-12.59571,0l-5.94189,6.55487L212.932,453.44238a76.0697,76.0697,0,0,1-22.01172-18.325V356.29022l11.727-3.50213v33.42627a47.50255,47.50255,0,0,0,24.4956,41.54248l26.59034,14.71a3.49963,3.49963,0,0,0,3.38867,0l26.59082-14.71045a47.50227,47.50227,0,0,0,24.49463-41.542V352.78809l11.94873,3.56665ZM332.371,345.66162a9.4173,9.4173,0,0,0-8.3916,1.48682,9.54735,9.54735,0,0,0-2.25049,2.37066l-13.3313-3.97918c-.09814-.03913-.189-.0893-.29223-.12a16.58637,16.58637,0,0,1-11.77784-15.80566V317.0885A71.81673,71.81673,0,0,0,319.763,289.95038a21.78017,21.78017,0,0,0,13.87366-.79523c2.80127,6.48975,7.48461,8.94306,11.29345,10.93567,3.7334,1.95313,6.68262,3.49609,8.46875,8.40088,1.78565,4.90576.51953,7.98389-1.08349,11.88135-1.7378,4.22558-3.90088,9.48437-1.18653,16.93847,2.71387,7.45508,7.75244,10.09131,11.80127,12.209,3.54688,1.856,6.38391,3.3471,8.19068,7.6997ZM406.52772,248.27a33.24132,33.24132,0,0,1,43.22851-49.29932l11.85108,7.33057a8.75645,8.75645,0,1,1-9.2085,14.89648l-11.85009-7.33007a15.73259,15.73259,0,0,0-20.46192,23.33105A231.34859,231.34859,0,0,1,468.02332,427.974l-17.73364-.53687A214.04052,214.04052,0,0,0,406.52772,248.27Zm65.89746,227.20264a5.25211,5.25211,0,0,1-5.40869,5.09082l-18.74268-.56739a5.25211,5.25211,0,0,1-5.09082-5.40869l1.062-35.07568a5.2522,5.2522,0,0,1,5.24561-5.09277c.0542,0,.10889.00048.16309.00244l18.74316.56738a5.25212,5.25212,0,0,1,5.09033,5.40869ZM249.24061,72.10742a8.50041,8.50041,0,0,0,12.59521,0l15.34229-16.9248a8.47073,8.47073,0,0,0,0-11.41748L261.83582,26.84033a8.50043,8.50043,0,0,0-12.59521,0L233.89832,43.76514a8.47075,8.47075,0,0,0,0,11.41748ZM239.08485,48.46631,254.42713,31.5415a1.50021,1.50021,0,0,1,2.22217,0l15.34229,16.92481a1.49443,1.49443,0,0,1,0,2.01514L256.6493,67.40625a1.50019,1.50019,0,0,1-2.22217,0l-15.34228-16.9248A1.49441,1.49441,0,0,1,239.08485,48.46631Zm16.89258,90.792a13.72608,13.72608,0,1,0,13.72607,13.72608A13.74192,13.74192,0,0,0,255.97743,139.2583Zm0,20.45215a6.72608,6.72608,0,1,1,6.72607-6.72607A6.73342,6.73342,0,0,1,255.97743,159.71045Zm-28.76954,75.89941a16.08042,16.08042,0,0,1-9.10839,2.63965,15.81008,15.81008,0,0,1-8.3628-2.63867,3.49979,3.49979,0,0,0-3.86914,5.833,22.79723,22.79723,0,0,0,12.06739,3.80371c.17822.00439.35449.00635.53027.00635a23.11,23.11,0,0,0,12.60986-3.80909,3.50007,3.50007,0,1,0-3.86719-5.835Zm78.98389.98389a3.50055,3.50055,0,0,0-4.85107-.98389,16.0604,16.0604,0,0,1-9.10889,2.63965,15.79736,15.79736,0,0,1-8.36182-2.63867,3.50006,3.50006,0,1,0-3.87011,5.833,22.79256,22.79256,0,0,0,12.06738,3.80371c.17822.00439.35449.00635.53027.00635a23.11045,23.11045,0,0,0,12.61035-3.80909A3.5,3.5,0,0,0,306.19178,236.59375Zm-39.00146,52.81934a21.36345,21.36345,0,0,1-12.14844,3.5205,21.076,21.076,0,0,1-11.1543-3.51953,3.50006,3.50006,0,1,0-3.87011,5.833,28.06949,28.06949,0,0,0,14.85937,4.68457c.21924.00537.436.00781.65186.00781a28.457,28.457,0,0,0,15.5288-4.6914,3.50007,3.50007,0,1,0-3.86718-5.835ZM246.2909,238.56836l4.71924,3.39941a8.49019,8.49019,0,0,0,9.93457-.00048l4.71973-3.39893a8.52124,8.52124,0,0,0,3.53222-6.897V208.73682a3.5,3.5,0,0,0-7,0v22.93457a1.50483,1.50483,0,0,1-.62353,1.21728l-4.71924,3.39844a1.49914,1.49914,0,0,1-1.75342.00049l-4.71826-3.39893a1.504,1.504,0,0,1-.624-1.21728V208.73682a3.5,3.5,0,1,0-7,0v22.93457A8.52037,8.52037,0,0,0,246.2909,238.56836Z"/></svg>