<svg xmlns="http://www.w3.org/2000/svg" data-name="Layer 1" viewBox="0 0 512 512"><ellipse cx="75.417" cy="105.631" fill="#fe93d3" rx="31.592" ry="13.698" transform="rotate(-71.867 75.418 105.632)"/><ellipse cx="45.802" cy="105.631" fill="#fe93d3" rx="13.698" ry="31.592" transform="rotate(-18.133 45.802 105.631)"/><ellipse cx="71.906" cy="137.717" fill="#57be92" rx="9.214" ry="21.252" transform="rotate(-47.955 71.906 137.717)"/><ellipse cx="48.214" cy="137.717" fill="#57be92" rx="21.252" ry="9.214" transform="rotate(-42.045 48.214 137.717)"/><ellipse cx="60.06" cy="137.717" fill="#09a76d" rx="9.214" ry="21.252"/><ellipse cx="81.34" cy="116.466" fill="#fe73c5" rx="31.592" ry="13.698" transform="rotate(-48.042 81.34 116.466)"/><ellipse cx="38.78" cy="116.466" fill="#fe73c5" rx="13.698" ry="31.592" transform="rotate(-41.958 38.78 116.466)"/><ellipse cx="60.06" cy="102.907" fill="#fe4fb7" rx="16.065" ry="37.051"/><rect width="109.506" height="63.534" x="402.518" y="123.843" fill="#c68d7a" rx="10" transform="rotate(-60 457.271 155.61)"/><path fill="#aa6a51" d="M503.49829,119.0755,465.79688,97.30859a10.00337,10.00337,0,0,0-11.76246,1.29181l35.46387,20.4751a10.00012,10.00012,0,0,1,3.6604,13.66022l-44.75317,77.51434a9.9891,9.9891,0,0,1-1.89771,2.36847l2.23755,1.29181a9.99989,9.99989,0,0,0,13.66016-3.66028l44.75317-77.51434A10.00012,10.00012,0,0,0,503.49829,119.0755Z"/><path fill="#fed2a4" d="M418.79642,426.95757l72.294-70.68734a30,30,0,0,0,8.60729-26.44785L482.12421,225.805H446.1801l.1261,87.27616a10,10,0,0,1-3.00882,7.16453L393.522,368.91487Z"/><path fill="#fed2a4" d="M475.32071,228.39734l6.47137-3.07676,7.0117-6.56176a26.31016,26.31016,0,0,0,7.20876-26.81775l-2.61276-8.65A20.09237,20.09237,0,0,0,473.5931,169.0165l-14.749.42048a10.49048,10.49048,0,0,0-8.78083,15.74053l4.25046,7.345a8.23731,8.23731,0,0,1-3.32,11.42923l-1.25746.65591a8.2373,8.2373,0,0,0-4.411,7.8291l.85481,13.36821.0184,12.73181Z"/><path fill="#ffbd86" d="M499.69775,329.82239,481.85044,223.991l-13.72617,1.814,17.57348,104.0174a30.00017,30.00017,0,0,1-8.60742,26.44781l-62.47461,61.08631,4.18067,9.60107,72.29394-70.68738A30.00017,30.00017,0,0,0,499.69775,329.82239Z"/><path fill="#ffbd86" d="M468.93873,228.39734l12.85326-3.07678,7.01126-6.56134a26.311,26.311,0,0,0,7.2092-26.81818l-2.61255-8.65a20.09183,20.09183,0,0,0-19.80627-14.27456l-10.078.28731A20.08452,20.08452,0,0,1,479.3999,183.291l2.61273,8.65062a26.31,26.31,0,0,1-7.20892,26.81715l-7.01172,6.56177h0a1.61671,1.61671,0,0,0,.6942,3.07678Z"/><polygon fill="#fee903" points="486.112 249.407 446.214 249.407 446.254 277.058 490.783 277.058 486.112 249.407"/><polygon fill="#fac600" points="472.112 249.407 476.783 277.058 490.783 277.058 486.112 249.407 472.112 249.407"/><rect width="23.453" height="77.392" x="435.093" y="316.797" fill="#fee903" rx="11.727" transform="rotate(-36.117 446.82 355.494)"/><path fill="#fac600" d="M472.18945,370.3678,440.396,326.795a11.72946,11.72946,0,0,0-12.17652-4.50073l29.97,41.07355a11.73081,11.73081,0,0,1-6.76953,18.325l1.82349,2.49933a11.72671,11.72671,0,1,0,18.946-13.82428Z"/><path fill="#fed2a4" d="M29.74,226.62757l-17.44,103.19a29.98924,29.98924,0,0,0,8.61,26.45l72.29,70.69,25.28-58.05-49.78-48.66a10.02242,10.02242,0,0,1-3.01-7.17l.13-86.16Z"/><path fill="#ffbd86" d="M68.7,320.24756a10.02279,10.02279,0,0,1-3.01-7.17l.13013-86.16-36.08008-.29-.019.11237,22.09912.17761-.13013,86.16a10.02279,10.02279,0,0,0,3.01,7.17l49.78,48.66L83.38135,417.3562,93.2,426.95758l25.28-58.05Z"/><polygon fill="#fee903" points="25.888 249.405 65.786 249.405 65.746 277.055 21.217 277.055 25.888 249.405"/><polygon fill="#fac600" points="65.744 277.055 65.779 253.878 65.786 249.405 51.786 249.405 51.744 277.055 65.744 277.055"/><rect width="23.453" height="77.392" x="53.454" y="316.795" fill="#fee903" rx="11.727" transform="rotate(-143.883 65.18 355.489)"/><path fill="#fac600" d="M87.98926,324.23169a11.731,11.731,0,0,0-13.918.06634,11.7237,11.7237,0,0,1,2.47876,16.31879L44.75659,384.18964a11.728,11.728,0,0,1-2.467,2.4945c.02832.02118.05322.04541.08179.06635a11.72679,11.72679,0,0,0,16.38525-2.56085l31.79346-43.57282A11.7264,11.7264,0,0,0,87.98926,324.23169Z"/><path fill="#fed2a4" d="M54.9335,230.30857l10.64942-3.31316a19.28451,19.28451,0,0,0,13.55574-18.41395V197.69135A12.85635,12.85635,0,0,0,66.28231,184.835H63.916a10.14843,10.14843,0,0,0-10.14842-10.14843H31.82928a12.85635,12.85635,0,0,0-12.85635,12.85635v21.78831a19.28452,19.28452,0,0,0,12.61776,18.0955l1.91969.70726"/><path fill="#ffbd86" d="M66.28223,184.835H63.916a10.14852,10.14852,0,0,0-10.14844-10.14844h-14A10.14852,10.14852,0,0,1,49.916,184.835h2.36621a12.8563,12.8563,0,0,1,12.85644,12.85639v10.89007a19.28461,19.28461,0,0,1-13.55566,18.414l-7.20557,2.24164,10.55615,1.07147L65.583,226.99542a19.28461,19.28461,0,0,0,13.55566-18.414V197.69135A12.8563,12.8563,0,0,0,66.28223,184.835Z"/><path fill="#ffbd86" d="M18.97293 192.77531H53.80281a7.71379 7.71379 0 0 0 7.38749-5.49395l4.36439-7.52431a7.71381 7.71381 0 0 0-7.3875-9.93366H31.82928a12.85634 12.85634 0 0 0-12.85635 12.85635zM342.60285 246.19839v-.00012s.18015-6.2757.48-14.18463a13.38662 13.38662 0 0 0-13.37237-13.8954h-5.62628v40.23822H329.278a13.3808 13.3808 0 0 0 13.32482-12.15807zM187.849 218.11825h-5.81272A13.13253 13.13253 0 0 0 168.917 231.7506c.30586 8.03237.49 14.44767.49 14.44767v.00012l.01115.12154a13.17021 13.17021 0 0 0 13.08257 12.03654h5.3483z"/><ellipse cx="201.372" cy="40.34" fill="#fee903" rx="12.475" ry="19.727" transform="rotate(-30 201.372 40.34)"/><ellipse cx="161.381" cy="80.331" fill="#fee903" rx="12.475" ry="19.727" transform="rotate(-60 161.38 80.331)"/><ellipse cx="146.743" cy="134.96" fill="#fee903" rx="19.727" ry="12.475"/><ellipse cx="161.381" cy="189.588" fill="#fee903" rx="19.727" ry="12.475" transform="rotate(-30 161.38 189.588)"/><ellipse cx="350.619" cy="189.588" fill="#fee903" rx="12.475" ry="19.727" transform="rotate(-60 350.62 189.588)"/><ellipse cx="365.257" cy="134.959" fill="#fee903" rx="19.727" ry="12.475"/><ellipse cx="350.619" cy="80.331" fill="#fee903" rx="19.727" ry="12.475" transform="rotate(-30 350.62 80.331)"/><ellipse cx="310.628" cy="40.34" fill="#fee903" rx="19.727" ry="12.475" transform="rotate(-60 310.628 40.34)"/><path fill="#fac600" d="M190.56787 46.57788a21.83151 21.83151 0 0 0 20.66748 10.847 21.81174 21.81174 0 0 0-.97827-26.11371 112.66017 112.66017 0 0 0-21.67773 10.66778A21.88218 21.88218 0 0 0 190.56787 46.57788zM167.61841 69.52753a21.76532 21.76532 0 0 0-6.95557-2.5567 113.241 113.241 0 0 0-12.01465 18.4143 21.8087 21.8087 0 0 0 29.81714 4.80976A21.83149 21.83149 0 0 0 167.61841 69.52753zM136.1123 144.66962a21.83116 21.83116 0 0 0 30.3584-9.71009 21.8179 21.8179 0 0 0-29.87964-9.96319 114.3439 114.3439 0 0 0-.7041 12.61676C135.887 139.98383 135.96875 142.33508 136.1123 144.66962zM178.46533 179.72418a21.81356 21.81356 0 0 0-31.33471 7.10816 113.05179 113.05179 0 0 0 9.78393 16.47845 21.8239 21.8239 0 0 0 21.55078-23.58661z"/><path fill="#fee903" d="M256,24.5A113.11313,113.11313,0,1,0,369.11328,137.6131,113.113,113.113,0,0,0,256,24.5Zm0,191.22607a78.113,78.113,0,1,1,78.11328-78.11279A78.20137,78.20137,0,0,1,256,215.72607Z"/><path fill="#fac600" d="M315.90625,187.67285A78.08285,78.08285,0,0,1,178.73877,126.1239a67.90661,67.90661,0,0,0-12.32056,48.264l4.80542,38.09863A113.64823,113.64823,0,0,0,197.59961,234.5H310Z"/><path fill="#fac600" d="M256 24.5c-2.35156 0-4.68408.08051-7 .22192a113.10767 113.10767 0 0 1 0 225.78241c2.31592.14142 4.64844.22193 7 .22193A113.11313 113.11313 0 1 0 256 24.5zM249 59.82965c-2.30786-.206-4.6394-.32965-7-.32965a78.113 78.113 0 1 0 0 156.22607c2.3606 0 4.69214-.12359 7-.32965a78.0962 78.0962 0 0 1 0-155.56677z"/><path fill="#fed2a4" d="M421.98364,502l0-87.19623a60,60,0,0,0-38.15823-55.88328l-77.81968-30.4156a20,20,0,0,1-12.7194-18.62775v-27.8509h-74.5727v27.8509a20,20,0,0,1-12.7194,18.62775l-77.81968,30.4156a60,60,0,0,0-38.1582,55.88323V502a10,10,0,0,0,10,10H411.98364A10,10,0,0,0,421.98364,502Z"/><path fill="#ffbd86" d="M383.82546,358.92048l-77.8196-30.4156A20.00014,20.00014,0,0,1,293.28638,309.877V282.02625H218.71362v7h60.57276V316.877a20.00014,20.00014,0,0,0,12.71948,18.62787l77.8196,30.4156a60,60,0,0,1,38.15818,55.88323V512h4a10,10,0,0,0,10-10V414.80371A60,60,0,0,0,383.82546,358.92048Z"/><path fill="#fee903" d="M324,234.5H188l-7.5817-60.11207a67.9738,67.9738,0,0,1,40.75536-71.023L256,88.5l34.82634,14.8649a67.9738,67.9738,0,0,1,40.75536,71.023Z"/><path fill="#fac600" d="M290.82642,103.36493,256,88.5l-7,2.98779,27.82642,11.87714a67.974,67.974,0,0,1,40.75537,71.023L310,234.5h14l7.58179-60.11206A67.974,67.974,0,0,0,290.82642,103.36493Z"/><path fill="#fed2a4" fill-rule="evenodd" d="M256.00068,326.35688h-1.70359a66.14747,66.14747,0,0,1-66.41549-66.0756c.00041-18.65574.00062-24.04714.00072-33.68508a41.39012,41.39012,0,0,1,17.32837-33.67737l0,0a48.27531,48.27531,0,0,1,34.50194-8.56027L256,186.55175l16.28734-2.19321a48.27529,48.27529,0,0,1,34.50193,8.56028l.00006,0a41.38571,41.38571,0,0,1,17.32835,33.67494c.0001,8.99524.00029,13.69994.00067,31.6393A68.12166,68.12166,0,0,1,256.00068,326.35688Z"/><path fill="#ffbd86" fill-rule="evenodd" d="M324.11768 226.59381a41.38573 41.38573 0 0 0-17.32837-33.675 48.27171 48.27171 0 0 0-34.20874-8.59271 48.26154 48.26154 0 0 1 21.96655 8.59271 41.3857 41.3857 0 0 1 17.32837 33.675c0 8.99524.00024 13.69989.00073 31.63928a68.11287 68.11287 0 0 1-62.83691 67.90009c1.73608.13446 3.48559.22369 5.25781.22369h1.70361a68.12179 68.12179 0 0 0 68.11768-68.12378C324.11792 240.2937 324.11768 235.58905 324.11768 226.59381zM227.47046 184.35852l16.28735 2.19324 6.1211-.82428-10.16626-1.369a48.24237 48.24237 0 0 0-12.5354-.03241C227.2749 184.33868 227.3728 184.34534 227.47046 184.35852z"/><path fill="#ffbd86" fill-rule="evenodd" d="M187.88232,240.59619a41.39,41.39,0,0,1,17.32837-33.67737,48.27545,48.27545,0,0,1,34.502-8.5603L256,200.55176l16.28735-2.19324a48.27545,48.27545,0,0,1,34.502,8.5603,41.38573,41.38573,0,0,1,17.32837,33.675c0,6.04736.00024,10.161.00048,17.655l.00025-.01569c-.00049-17.93939-.00073-22.644-.00073-31.63928a41.38573,41.38573,0,0,0-17.32837-33.675,48.27545,48.27545,0,0,0-34.502-8.5603L256,186.55176l-16.28735-2.19324a48.27545,48.27545,0,0,0-34.502,8.5603,41.39,41.39,0,0,0-17.32837,33.67737c0,9.63794-.00024,15.02936-.00073,33.68506l.00025.01447C187.88232,251.89923,187.88232,247.262,187.88232,240.59619Z"/><path fill="#fac600" d="M271.439,54.45935H226.561a14.51567,14.51567,0,0,0-14.51563,14.51581v.00006A14.491,14.491,0,0,0,212.554,72.732a77.92068,77.92068,0,0,1,72.90991-7.44409A14.50839,14.50839,0,0,0,271.439,54.45935Z"/><path fill="#fee903" d="M233.5611,54.45933H278.4389a14.51583,14.51583,0,0,1,14.51583,14.51583v0A14.51584,14.51584,0,0,1,278.4389,83.491H233.5611A14.51583,14.51583,0,0,1,219.04526,68.9752v0A14.51584,14.51584,0,0,1,233.5611,54.45933Z"/><path fill="#fac600" d="M278.439,54.45935h-1.59863a14.42666,14.42666,0,0,1,2.11426,7.51581v.00006A14.51567,14.51567,0,0,1,264.439,76.491H221.15967a14.49288,14.49288,0,0,0,12.40137,7H278.439a14.51567,14.51567,0,0,0,14.51563-14.51581v-.00006A14.51567,14.51567,0,0,0,278.439,54.45935Z"/><rect width="91.264" height="29.032" x="210.368" y="83.491" fill="#fee903" rx="14.516"/><path fill="#fac600" d="M287.116 83.491h-1.59864a14.42683 14.42683 0 0 1 2.11451 7.51581v.00006A14.51589 14.51589 0 0 1 273.116 105.52271h-60.6333a14.49256 14.49256 0 0 0 12.40136 7H287.116A14.51589 14.51589 0 0 0 301.63184 98.0069v-.00006A14.51588 14.51588 0 0 0 287.116 83.491zM224.40161 28.97906a27.12289 27.12289 0 0 0 2.24683 20.2934l2.81128 5.18689h39.08056l2.81128-5.18689A27.12215 27.12215 0 0 0 272.438 25.69305a113.74569 113.74569 0 0 0-48.03638 3.286z"/><path fill="#fee903" d="M275.54031,54.45933H236.45969l-2.81131-5.18689a27.1318,27.1318,0,0,1,0-25.85743h0a27.13151,27.13151,0,0,1,7.52267-8.738L256,3.5l14.829,11.177a27.13151,27.13151,0,0,1,7.52267,8.738h0a27.1318,27.1318,0,0,1,0,25.85743Z"/><path fill="#fac600" d="M278.35156,23.415a27.132,27.132,0,0,0-7.52246-8.738L256,3.5l-2.35645,1.77612,3.18555,2.40094a27.13235,27.13235,0,0,1,7.52246,34.5954h0a9.90825,9.90825,0,0,1-8.711,5.18688H232.75977c.2749.61176.56616,1.21814.88867,1.81311l2.81128,5.18689h39.08056l2.81128-5.18689A27.13129,27.13129,0,0,0,278.35156,23.415Z"/><circle cx="256" cy="32.966" r="7.625" fill="#fd6930"/><path fill="#fd5426" d="M256.95508,25.40692a7.61581,7.61581,0,0,1-6.042,12.26434,7.66446,7.66446,0,0,1-.95508-.06616,7.62034,7.62034,0,1,0,6.99707-12.19818Z"/><circle cx="214" cy="164.006" r="7" fill="#fd4755"/><circle cx="298" cy="164.006" r="7" fill="#fd4755"/><path fill="#fb2b3a" d="M299.84912 157.26086a6.98281 6.98281 0 0 1-8.11938 9.84259 6.9959 6.9959 0 1 0 8.11938-9.84259zM215.84912 157.26086a6.98281 6.98281 0 0 1-8.11938 9.84259 6.9959 6.9959 0 1 0 8.11938-9.84259z"/><ellipse cx="256" cy="151.613" fill="#fd6930" rx="11.813" ry="22.479"/><path fill="#fd5426" d="M256,129.134l-.00635.00458a27.27882,27.27882,0,0,1-6.9873,37.949A27.51113,27.51113,0,0,0,256,174.09222a27.29438,27.29438,0,0,0,0-44.95819Z"/><path fill="#f9f7f8" d="M274.65,211.5182a186.27217,186.27217,0,0,1-37.29956,0,6.10584,6.10584,0,0,1-5.70948-6.71734h0a6.27532,6.27532,0,0,1,6.91089-5.22235,174.27206,174.27206,0,0,0,34.89673,0,6.27552,6.27552,0,0,1,6.91089,5.22235h0A6.105,6.105,0,0,1,274.65,211.5182Z"/><path fill="#fff" d="M282.79171,222.63576a198.27416,198.27416,0,0,1-53.583,0c-3.849-.52326-6.48059-3.72071-5.895-6.98032h0c.58594-3.26376,3.9419-5.39462,7.51661-4.90964a186.271,186.271,0,0,0,50.33984,0c3.57361-.48483,6.93176,1.646,7.5166,4.90964h0C289.27047,218.915,286.64108,222.11253,282.79171,222.63576Z"/><path fill="#ffbd86" d="M215.62549,342.45844l36.25683,26.35827a7.00017,7.00017,0,0,0,8.23438-.0014l36.22705-26.3559a67.37605,67.37605,0,0,0,13.135-12.59711l-3.4729-1.35742a19.99991,19.99991,0,0,1-12.71948-18.62774V296.3443a41.92478,41.92478,0,0,1-5.49781.36352H224.16211a41.92166,41.92166,0,0,1-5.44849-.35815v13.52747a19.99991,19.99991,0,0,1-12.71948,18.62774l-3.50195,1.36884A67.37817,67.37817,0,0,0,215.62549,342.45844Z"/><path fill="#efedef" d="M187.849,263.40709l.05011.0866a41.89576,41.89576,0,0,0,36.26287,20.9134h63.62648a41.89578,41.89578,0,0,0,36.31284-21v12.2314a67.42187,67.42187,0,0,1-27.75754,54.52017L260.1166,356.51455a7,7,0,0,1-8.23424.00143l-36.2569-26.35827A67.42187,67.42187,0,0,1,187.849,275.62378Z"/><path fill="#e5e1e5" d="M309.39014 278.38831a67.42162 67.42162 0 0 1-27.04639 44.77038l-36.227 26.35584a6.95786 6.95786 0 0 1-2.35889 1.095l8.12451 5.90649a7.00026 7.00026 0 0 0 8.23438-.00146l36.22705-26.35584a67.42193 67.42193 0 0 0 27.75757-54.5202V263.4071A41.84775 41.84775 0 0 1 309.39014 278.38831zM198.72656 275.80267a41.85615 41.85615 0 0 1-10.82739-12.309l-.05-.08655v7.53913A41.88952 41.88952 0 0 0 198.72656 275.80267z"/><path fill="#efedef" d="M302.71,270.89193a2.508,2.508,0,0,0-4.13924-2.34857,20.38674,20.38674,0,0,1-6.49289,4.08238c-13.03476,4.98992-26.14332-6.61985-34.756-6.71658q-1.322-.01485-2.64371,0c-8.61271.09671-21.72129,11.7065-34.75605,6.71658a20.3869,20.3869,0,0,1-6.493-4.08243,2.508,2.508,0,0,0-4.13924,2.34856c1.29936,6.44053,4.59445,15.0379,12.88228,20.34805,9.13213,5.85108,22.35494,6.447,31.03941,1.62572a5.75218,5.75218,0,0,1,5.57682,0c8.68439,4.82131,21.90719,4.22535,31.03921-1.62573C298.11552,285.92978,301.41064,277.33245,302.71,270.89193Z"/><path fill="#e5e1e5" d="M298.5708,268.54333a20.76655,20.76655,0,0,1-5.52588,3.65125,27.69789,27.69789,0,0,1-10.21728,12.04535c-9.13184,5.85107-22.35474,6.447-31.03907,1.62573a5.75233,5.75233,0,0,0-5.5769-.00006c-8.68433,4.82135-21.90723,4.2254-31.03931-1.62567-.20971-.13428-.4021-.27948-.60547-.41785a26.56886,26.56886,0,0,0,7.60547,7.41785c9.13208,5.85107,22.355,6.447,31.03931,1.62567a5.75233,5.75233,0,0,1,5.5769.00006c8.68433,4.82129,21.90723,4.22534,31.03907-1.62573,8.28784-5.31018,11.583-13.90747,12.88232-20.348A2.50792,2.50792,0,0,0,298.5708,268.54333Z"/><path fill="#fd6930" d="M421.98363,502V404.9454a60,60,0,0,0-35.64333-54.83387l-28.16213-12.50934a10.66159,10.66159,0,0,0-14.98961,9.74361V512h68.79507A10,10,0,0,0,421.98363,502Z"/><path fill="#fd6930" d="M421.98363,502V404.9454a60,60,0,0,0-35.64333-54.83387l-28.16213-12.50934a10.66159,10.66159,0,0,0-14.98961,9.74361V512h68.79507A10,10,0,0,0,421.98363,502Z"/><path fill="#fd5426" d="M386.34033,350.11151l-28.16211-12.50934a10.66518,10.66518,0,0,0-14.57055,6.78925c.19018.07214.38159.12683.57055.21075l28.16211,12.50934a60,60,0,0,1,35.64331,54.83384V512h4a10,10,0,0,0,10-10V404.94535A60,60,0,0,0,386.34033,350.11151Z"/><path fill="#ffbd86" d="M338.20972,341.09167a10.54164,10.54164,0,0,0-2.02124,6.25409V512h28V351.24542Z"/><path fill="#fee903" d="M371.18856,512V347.34577a10.64844,10.64844,0,0,1,.65881-3.67188l-13.66919-6.07171a10.6616,10.6616,0,0,0-14.98962,9.74359V512Z"/><path fill="#fac600" d="M356.92822,337.14044c-.13745-.042-.27539-.06952-.41308-.10565-.28125-.07379-.5625-.14294-.844-.19269-.16382-.02893-.32715-.04742-.49072-.06842-.25537-.03277-.51025-.05945-.7644-.0733-.17188-.00934-.34351-.01355-.51465-.01434-.2439-.00123-.48633.0072-.72779.02282-.17334.01135-.34643.0224-.51806.04218-.23682.02716-.47046.06781-.70386.11072-.16943.03131-.34009.05737-.50708.0968-.2356.05529-.46533.1278-.69556.19867-.15722.04852-.31762.0874-.47216.143a10.77435,10.77435,0,0,0-1.04029.43787c-.19873.09619-.38794.20978-.58032.31781-.15088.08453-.304.16467-.45044.25628-.19946.12507-.39038.263-.58154.40088-.126.0907-.25269.18018-.37476.27631-.19263.1521-.37842.313-.56055.47809q-.15819.14328-.31127.29254c-.18335.17993-.36158.36511-.532.55829-.08325.09418-.16211.19232-.24194.28949-.17407.21179-.34522.42621-.50269.65191-.05224.07447-.09814.15351-.14843.2295a10.46591,10.46591,0,0,0-1.34351,2.89819l-.00146.004c.19018.07214.38159.12683.57055.21075l27.01026,11.99774v-9.25415a10.64537,10.64537,0,0,1,.65893-3.67187l-13.66919-6.07172A10.95348,10.95348,0,0,0,356.92822,337.14044Z"/><path fill="#fd6930" d="M90.01637,502V404.9454a60,60,0,0,1,35.64333-54.83387l28.16213-12.50934a10.66159,10.66159,0,0,1,14.98961,9.74361V512H100.01637A10,10,0,0,1,90.01637,502Z"/><path fill="#ffbd86" d="M173.79028,341.09167l-25.97876,10.15375V512h28V347.34576A10.54164,10.54164,0,0,0,173.79028,341.09167Z"/><path fill="#fee903" d="M140.81144 512V347.34577a10.64844 10.64844 0 0 0-.65881-3.67188l13.66919-6.07171a10.6616 10.6616 0 0 1 14.98962 9.74359V512zM342.3927 342.72636q-10.08727-3.94259-20.17444-7.88513a74.607 74.607 0 0 1-132.43658 0q-10.0872 3.94257-20.17438 7.88513A197.99829 197.99829 0 0 0 256 418.97077a184.65333 184.65333 0 0 0 86.3927-76.24441z"/><path fill="#fac600" d="M311.0791,373.94824A185.63988,185.63988,0,0,1,256,410.48639a197.94284,197.94284,0,0,1-82.01855-69.46967q-2.187.85483-4.374,1.7096A197.9983,197.9983,0,0,0,256,418.97076a184.65035,184.65035,0,0,0,86.39258-76.24444q-2.10828-.82407-4.2168-1.6482A184.63165,184.63165,0,0,1,311.0791,373.94824Z"/><circle cx="256" cy="395" r="7.5" fill="#fd6930"/><path fill="#fd5426" d="M258.06641,387.795a7.48757,7.48757,0,0,1-8.40284,11.20514,7.496,7.496,0,1,0,8.40284-11.20514Z"/><path d="M505.22743,116.03369l-37.70313-21.772a13.52178,13.52178,0,0,0-18.43848,4.94238l-44.76074,77.51319a13.5222,13.5222,0,0,0,4.94239,18.43847L441.89539,213.988l.76172,11.91577.01856,12.62207.00049.00384.01611,10.85273-.001.00915.001.0094.041,27.62146-.002.02.002.02063.05371,36.00134a6.47992,6.47992,0,0,1-1.95508,4.666l-2.6582,2.59576a15.20635,15.20635,0,0,0-20.79346,20.32971l-15.365,15.01319a63.33021,63.33021,0,0,0-14.2771-8.77216l-15.1836-6.74438-.04248-.01892-12.936-5.746a14.14646,14.14646,0,0,0-17.16992,4.57611l-16.82447-6.57709c-.03051-.01331-.06176-.02387-.09277-.03626l-18.18237-7.108A71.16862,71.16862,0,0,0,327.577,275.62451V264.16846c.00341-.06226.01855-.121.01855-.18408v-2.14356h1.66016a16.80083,16.80083,0,0,0,16.80957-15.33838c.00683-.07275.01074-.146.01367-.21924,0-.00634.17969-6.26562.47851-14.15283a16.748,16.748,0,0,0-4.71191-12.35547,17.13143,17.13143,0,0,0-1.67822-1.50525,118.365,118.365,0,0,0,10.08423-11.989,25.18338,25.18338,0,0,0,4.97778.51233,25.44486,25.44486,0,0,0,14.43945-4.48,3.501,3.501,0,0,0,1.49707-2.59522,25.43915,25.43915,0,0,0-6.65967-19.24926,115.70665,115.70665,0,0,0,7.43018-30.456A25.29773,25.29773,0,0,0,388.119,136.4458a3.496,3.496,0,0,0,.001-3.001,25.19158,25.19158,0,0,0-16.94995-13.76837,117.102,117.102,0,0,0-8.31445-28.63617,25.44432,25.44432,0,0,0,8.3103-20.86987,3.49723,3.49723,0,0,0-1.499-2.59521,25.32789,25.32789,0,0,0-22.81519-3.03931c-.17236-.21411-.33325-.43622-.50708-.64917a116.8388,116.8388,0,0,0-20.13916-19.33923,25.22985,25.22985,0,0,0-2.85791-23.29163,3.50036,3.50036,0,0,0-2.59765-1.50049,25.22992,25.22992,0,0,0-21.81812,9.4292,115.36157,115.36157,0,0,0-16.40234-5.12738c-.34424-.78491-.71021-1.56342-1.12329-2.32574A30.42927,30.42927,0,0,0,272.913,11.8667L258.08387.68945a3.49811,3.49811,0,0,0-4.21289,0L239.04188,11.8667a30.42912,30.42912,0,0,0-8.49316,9.86475c-.41309.76232-.77906,1.54077-1.1233,2.32568a115.35544,115.35544,0,0,0-16.4021,5.12732A25.21282,25.21282,0,0,0,191.205,19.75537a3.50036,3.50036,0,0,0-2.59766,1.50049,25.22988,25.22988,0,0,0-2.85791,23.29163,116.83916,116.83916,0,0,0-20.13916,19.33923c-.17383.213-.33472.43506-.50684.64917A25.321,25.321,0,0,0,142.288,67.5752a3.49726,3.49726,0,0,0-1.499,2.59521,25.44432,25.44432,0,0,0,8.3103,20.86987,117.10242,117.10242,0,0,0-8.31445,28.63617,25.1916,25.1916,0,0,0-16.94995,13.76837,3.49605,3.49605,0,0,0,.001,3.001,25.2968,25.2968,0,0,0,16.18238,13.56665,115.704,115.704,0,0,0,7.42676,30.45264,25.46907,25.46907,0,0,0-6.656,19.25268,3.49942,3.49942,0,0,0,1.5,2.59668,25.48837,25.48837,0,0,0,14.44824,4.47657,25.22022,25.22022,0,0,0,4.96558-.50928,118.27361,118.27361,0,0,0,10.01343,11.91351,16.94044,16.94044,0,0,0-1.68018,1.50348,16.49441,16.49441,0,0,0-4.63867,12.16943c.30078,7.92237.4873,14.35108.48828,14.415.00293.07227.00879.16065.01465.23242l.00976.10743a16.60725,16.60725,0,0,0,16.56836,15.21777h1.88086v1.16138a3.47849,3.47849,0,0,0-.03222.39233v12.21A71.168,71.168,0,0,0,204.621,325.25293l-35.07226,13.71088a14.14649,14.14649,0,0,0-17.16993-4.57611L124.21668,346.897a63.33021,63.33021,0,0,0-14.2771,8.77216l-15.36572-15.014a15.2019,15.2019,0,0,0-20.79443-20.3305l-2.65357-2.59125a6.47937,6.47937,0,0,1-1.958-4.66358l.0542-36.01141.00146-.01349.0332-22.84851.0376-24.91955A22.6546,22.6546,0,0,0,82.6161,208.56592V197.67578a16.3681,16.3681,0,0,0-14.05835-16.17572l.00171-.003a3.48181,3.48181,0,0,0,.32422-.74805,11.24154,11.24154,0,0,0-5.73755-13.275,19.438,19.438,0,0,1-.97534-2.623,21.02916,21.02916,0,0,1-.54786-2.79333,3.45835,3.45835,0,0,0,.80957-.55188,32.69357,32.69357,0,0,0,7.228-9.9364A32.52891,32.52891,0,0,0,85.205,155.53857q1.37548,0,2.75781-.11621a3.49991,3.49991,0,0,0,3.2041-3.55371,32.71,32.71,0,0,0-5.08032-16.86487,46.55031,46.55031,0,0,0,19.83813-42.34607,3.49945,3.49945,0,0,0-3.48633-3.20312c-.02441,0-.0498.00049-.07519.001A46.748,46.748,0,0,0,93.664,90.47345,47.2326,47.2326,0,0,0,88.29872,73.915,3.502,3.502,0,0,0,83.744,72.42383a47.149,47.149,0,0,0-9.88745,6.2254A54.33048,54.33048,0,0,0,62.4325,63.28809a3.50077,3.50077,0,0,0-4.78906-.00049A54.29834,54.29834,0,0,0,46.54383,78.032a47.02523,47.02523,0,0,0-9.11426-5.60821,3.49877,3.49877,0,0,0-4.5498,1.48535A46.92723,46.92723,0,0,0,27.483,90.70636a46.826,46.826,0,0,0-9.77124-1.25079,3.51573,3.51573,0,0,0-3.56152,3.20214A46.55486,46.55486,0,0,0,33.98866,135.0036a32.71073,32.71073,0,0,0-5.08057,16.865,3.49886,3.49886,0,0,0,3.209,3.55371q1.36524.11354,2.72461.11328A32.62949,32.62949,0,0,0,50.413,151.56647a32.556,32.556,0,0,0,4.03565,6.48175,28.97893,28.97893,0,0,0,.88086,8.2594H31.80653a16.37519,16.37519,0,0,0-16.35645,16.35644v10.09571a3.15122,3.15122,0,0,1,0,1.76757v14.78809a22.88115,22.88115,0,0,0,10.41065,19.11676l-3.43946,20.35016-.00634.0238L17.74305,276.457l-.00049.00678L8.82606,329.2207a33.50162,33.50162,0,0,0,9.61523,29.53662l15.90137,15.54419A15.23407,15.23407,0,0,0,40.285,389.562l.001.00049a15.14676,15.14676,0,0,0,8.95508,2.92041,15.35285,15.35285,0,0,0,3.30664-.37024l33.94629,33.192v83.17969a3.5,3.5,0,0,0,7,0V423.827c0-.019.00049-.03778,0-.05683V404.92969a56.54661,56.54661,0,0,1,33.56445-51.63526l10.23047-4.54425v159.7342a3.5,3.5,0,0,0,7,0V347.33008a13.90918,13.90918,0,0,0-.10913-1.64075l11.04077-4.90417a7.176,7.176,0,0,1,9.51367,3.7641c.00586.01629.00733.03308.01367.04937.01978.05072.04786.09534.06983.1446a7.23565,7.23565,0,0,1,.47119,2.58685v161.1543a3.5,3.5,0,0,0,7,0v-7.752a58.53761,58.53761,0,0,0,29.23828,11.05524c.11524.01123.23047.01709.34375.01709a3.50023,3.50023,0,0,0,.33594-6.98389,50.52956,50.52956,0,0,1-29.918-13.21149V353.19873a200.99044,200.99044,0,0,0,82.23633,68.94092,3.49914,3.49914,0,0,0,2.83886.02881,188.40572,188.40572,0,0,0,56.11719-37.228c.80811-.77667,1.58936-1.57983,2.3833-2.37067a273.71156,273.71156,0,0,1-14.3833,49.92926,275.73135,275.73135,0,0,1-43.46875,73.76465,3.49986,3.49986,0,1,0,5.41016,4.44141,282.71488,282.71488,0,0,0,44.56933-75.63428A281.19946,281.19946,0,0,0,324.549,373.31213a188.54912,188.54912,0,0,0,15.11694-19.73394V491.60931a50.52956,50.52956,0,0,1-29.918,13.21149,3.50023,3.50023,0,0,0,.33594,6.98389c.11328,0,.22852-.00586.34375-.01709a58.53761,58.53761,0,0,0,29.23828-11.05524v7.752a3.5,3.5,0,0,0,7,0V347.33008a7.23557,7.23557,0,0,1,.47119-2.58679c.022-.04926.05-.09394.06983-.14466.00635-.01629.00781-.03308.01367-.04937a7.176,7.176,0,0,1,9.51367-3.7641l10.9336,4.85656V508.48438a3.5,3.5,0,0,0,7,0V348.751l10.22851,4.54339a56.54661,56.54661,0,0,1,33.56445,51.63526V423.7702c-.00048.019,0,.03778,0,.05683v84.65735a3.5,3.5,0,0,0,7,0V425.30469l33.9441-33.18994a15.35262,15.35262,0,0,0,3.30883.3706,15.14459,15.14459,0,0,0,8.95508-2.92041l.001-.00049a15.23363,15.23363,0,0,0,5.94189-15.26251l15.90186-15.54413a33.503,33.503,0,0,0,9.61523-29.53711l-13.60962-80.51892-.0039-.02307L485.746,226.37762l5.42676-5.07879a29.62947,29.62947,0,0,0,8.168-30.38574l-2.61328-8.64991a23.50462,23.50462,0,0,0-7.5962-11.35308l21.03858-36.43842A13.52129,13.52129,0,0,0,505.22743,116.03369Zm-124.2295,18.90869a18.30472,18.30472,0,0,1-8.51538,7.46778c.06421-1.6.10523-3.20441.10523-4.81592q0-5.16568-.46338-10.28906A18.21178,18.21178,0,0,1,380.99793,134.94238ZM139.47206,142.4101a18.30518,18.30518,0,0,1-8.51514-7.46772,18.21178,18.21178,0,0,1,8.87353-7.6372q-.45593,5.11908-.46338,10.28906C139.36707,139.20575,139.40809,140.81012,139.47206,142.4101Zm-67.51221,2.41821a32.718,32.718,0,0,0,.55591-3.30054,47.13926,47.13926,0,0,0,7.53247-2.95587,25.6762,25.6762,0,0,1,3.812,9.931A25.52357,25.52357,0,0,1,71.95985,144.82831Zm11.709-64.48212a40.14547,40.14547,0,0,1,3.187,12.11188A46.90293,46.90293,0,0,0,79.16322,96.179a54.3248,54.3248,0,0,0-2.47657-10.72321A39.88862,39.88862,0,0,1,83.66883,80.34619Zm-4.10449,24.00488A39.93662,39.93662,0,0,1,99.0995,96.67432a39.34284,39.34284,0,0,1-10.19336,26.58935,40.05507,40.05507,0,0,1-9.33838,7.6756c-.08106.03973-.15772.08759-.23633.134a39.10507,39.10507,0,0,1-10.52271,4.24707A54.49845,54.49845,0,0,0,79.56434,104.35107ZM37.50184,80.34375a39.75039,39.75039,0,0,1,6.14624,4.36243A54.34974,54.34974,0,0,0,40.912,96.17877a46.80224,46.80224,0,0,0-6.63135-3.3092A39.99979,39.99979,0,0,1,37.50184,80.34375ZM36.21571,148.499a25.67128,25.67128,0,0,1,3.811-9.92718,47.14046,47.14046,0,0,0,7.53247,2.95593,32.74245,32.74245,0,0,0,.55542,3.29822A25.6069,25.6069,0,0,1,36.21571,148.499ZM40.74134,131.072c-.07739-.04571-.15307-.09283-.23266-.132a40.03925,40.03925,0,0,1-9.33887-7.67627A39.34028,39.34028,0,0,1,20.97547,96.67383a39.89969,39.89969,0,0,1,19.53516,7.67828A54.4999,54.4999,0,0,0,51.267,135.32056,39.10166,39.10166,0,0,1,40.74134,131.072Zm6.7312-28.18036A47.17967,47.17967,0,0,1,50.94129,85.048c.02344-.05511.04883-.10894.06934-.16491A46.93274,46.93274,0,0,1,60.038,70.7998,46.905,46.905,0,0,1,69.3119,85.47229a3.458,3.458,0,0,0,.18774.49365,47.25463,47.25463,0,0,1,3.10279,16.92566A46.76851,46.76851,0,0,1,60.038,134.9834,46.76853,46.76853,0,0,1,47.47254,102.8916Zm7.4292,40.18646a46.36536,46.36536,0,0,0,4.90381.3653c.02344.00049.04785.001.07227.001.02978,0,.05835-.00788.08789-.00861.02441.00049.04809.00665.07226.00665.02393,0,.04761-.0061.07154-.00659.02954.00073.0581.00855.08764.00855.02442,0,.04883-.00049.07227-.001a46.36536,46.36536,0,0,0,4.90381-.3653,25.40882,25.40882,0,0,1-5.13623,10.752A25.41809,25.41809,0,0,1,54.90174,143.07806Zm-32.45166,39.586a9.367,9.367,0,0,1,9.35645-9.35644H58.14442a4.21357,4.21357,0,0,1,4.12305,5.08545l-4.127,7.1167a3.48173,3.48173,0,0,0-.32422.748,4.19007,4.19007,0,0,1-4.03613,3.002H22.45008Zm0,26.65137V196.25977H53.78016a11.14225,11.14225,0,0,0,10.60254-7.561l.22-.37939h1.657a9.367,9.367,0,0,1,9.35645,9.35644v10.89014a15.71435,15.71435,0,0,1-11.09571,15.07226l-10.64941,3.313a3.4999,3.4999,0,1,0,2.08008,6.6836l6.33935-1.97217-.02124,14.22656H30.00965L32.45033,231.449a3.49422,3.49422,0,0,0,2.2478-6.615l-1.91992-.707A15.84311,15.84311,0,0,1,22.45008,209.31543Zm6.37647,43.57373H62.25868L62.22743,273.54H25.33631Zm8.65136,114.68866L23.33387,353.751A26.49789,26.49789,0,0,1,15.7284,330.3877L24.15321,280.54H62.21693l-.04907,32.52441a13.6135,13.6135,0,0,0,4.06445,9.67383l2.3147,2.26032ZM44.411,383.90723l.001.00048a8.24014,8.24014,0,0,1-2.92456-9.33648c.01587-.038.031-.07556.04516-.114a8.19163,8.19163,0,0,1,1.08252-2.04461l31.794-43.57276a8.22659,8.22659,0,1,1,13.291,9.69825l-31.793,43.57275A8.23723,8.23723,0,0,1,44.411,383.90723Zm42.083,21.02246V415.514L59.17811,388.80518a15.17831,15.17831,0,0,0,2.3833-2.56836l28.98731-39.72736,14.206,13.88092A63.53343,63.53343,0,0,0,86.494,404.92969ZM320.59559,233.32617l-.09082.72022a3.47974,3.47974,0,0,0,.09082,1.31872v22.63666c-.011.11328-.03418.2229-.03418.339s.02319.22577.03418.339v3.70343a38.54158,38.54158,0,0,1-15.92725,14.57178,43.61019,43.61019,0,0,0,1.44971-5.38623v-.00049a6.00784,6.00784,0,0,0-9.9375-5.61865,16.91174,16.91174,0,0,1-5.376,3.39209c-6.93457,2.65381-14.11718-.37354-21.0625-3.3003-4.39843-1.85351-8.55273-3.60449-12.40332-3.64795q-1.36522-.01537-2.72168,0c-3.85058.04346-8.00585,1.79444-12.40429,3.64795-6.94629,2.92725-14.127,5.95313-21.0625,3.3003a16.9049,16.9049,0,0,1-5.376-3.39258,6.00811,6.00811,0,0,0-9.9375,5.61914,43.58748,43.58748,0,0,0,1.458,5.41345,38.61262,38.61262,0,0,1-15.93555-14.52252V235.36511a3.47933,3.47933,0,0,0,.09082-1.31872l-.09082-.72022v-6.74512a37.96018,37.96018,0,0,1,15.86328-30.82959,44.60693,44.60693,0,0,1,32.001-7.93994l16.28711,2.19336a3.47444,3.47444,0,0,0,.93359,0l16.28711-2.19336a44.6139,44.6139,0,0,1,32.001,7.93994,37.95746,37.95746,0,0,1,15.86328,30.82666Zm-22.02734,39.69531c-1.48731,5.2168-4.51172,11.32178-10.65039,15.25538-7.98829,5.11718-19.791,5.76757-27.45313,1.51318a9.31313,9.31313,0,0,0-8.97461,0c-7.66308,4.25537-19.4668,3.60351-27.45215-1.5127-6.1416-3.935-9.166-10.04-10.65234-15.25634a23.13129,23.13129,0,0,0,5.26269,2.85791c9.5625,3.66113,18.834-.24707,26.28321-3.38672,3.74707-1.5791,7.28711-3.0708,9.76367-3.09864q1.28321-.01464,2.56543,0c2.47656.02735,6.01562,1.519,9.76269,3.09864,7.4502,3.13965,16.72266,7.04638,26.28321,3.38672A23.1226,23.1226,0,0,0,298.56825,273.02148Zm40.5166-27.05761a9.83359,9.83359,0,0,1-9.8291,8.877h-1.66016V233.76849l1.53418-12.166h.55859a9.88723,9.88723,0,0,1,9.875,10.26269C339.286,239.1582,339.11122,245.06543,339.08485,245.96387Zm-47.022-165.27552a18.06529,18.06529,0,0,0,3.51171-6.30194,74.57412,74.57412,0,0,1,35.01319,63.20783c0,.62561-.01416,1.25043-.02979,1.87512a71.28563,71.28563,0,0,0-27.36084-33.448,17.9542,17.9542,0,0,0-11.13427-25.333Zm-83.30518,25.333a71.28569,71.28569,0,0,0-27.36084,33.44812c-.01563-.62469-.02979-1.24957-.02979-1.87524a74.57412,74.57412,0,0,1,35.01319-63.20783,18.06516,18.06516,0,0,0,3.51172,6.30194,17.9542,17.9542,0,0,0-11.13428,25.333Zm16.10352-19.04577h62.23242a11.01587,11.01587,0,0,1,0,22.03173H224.86122a11.01587,11.01587,0,0,1,0-22.03173ZM354.6869,199.76782a115.09413,115.09413,0,0,0,6.63257-11.99481,18.42164,18.42164,0,0,1,2.92749,9.68109A18.43668,18.43668,0,0,1,354.6869,199.76782ZM364.247,72.43408a18.44279,18.44279,0,0,1-4.55933,11.877A116.18917,116.18917,0,0,0,351.338,70.51215,18.34194,18.34194,0,0,1,364.247,72.43408ZM318.48719,26.67285A18.24288,18.24288,0,0,1,320.2245,40.313a117.20433,117.20433,0,0,0-14.5625-8.18872A18.2266,18.2266,0,0,1,318.48719,26.67285ZM281.40614,50.9248a30.52989,30.52989,0,0,0,3.36816-19.08911,109.79429,109.79429,0,0,1,72.57178,147.63623,3.44305,3.44305,0,0,0-.385.93958A108.27155,108.27155,0,0,1,346.141,199.98724a3.45243,3.45243,0,0,0-.45288.63984,111.261,111.261,0,0,1-12.18848,14.41961,17.00365,17.00365,0,0,0-3.48925-.42816l5.01977-39.80652a71.74217,71.74217,0,0,0,.07813-17.25671,81.55931,81.55931,0,0,0-38.84058-90.89923,18.03324,18.03324,0,0,0-15.00586-15.465ZM236.703,25.06738a23.47293,23.47293,0,0,1,6.55176-7.61084l12.72266-9.58935,12.72265,9.58935a23.63276,23.63276,0,0,1,6.55176,30.13233l-1.81836,3.355H238.52137l-1.81836-3.355A23.55542,23.55542,0,0,1,236.703,25.06738Zm38.80762,32.87647.00391.00049.00732-.00049h2.894a11.01587,11.01587,0,1,1,0,22.03174H233.539a11.01587,11.01587,0,1,1,0-22.03174Zm-82.043-31.271a18.22961,18.22961,0,0,1,12.82471,5.45154,117.23213,117.23213,0,0,0-14.562,8.1886A18.24283,18.24283,0,0,1,193.46766,26.67285ZM147.70789,72.43408a18.334,18.334,0,0,1,12.90918-1.92224,116.19049,116.19049,0,0,0-8.34985,13.7992A18.44279,18.44279,0,0,1,147.70789,72.43408Zm0,125.01856a18.44872,18.44872,0,0,1,2.9253-9.679,115.00414,115.00414,0,0,0,6.6311,11.99219A18.49135,18.49135,0,0,1,147.70789,197.45264Zm18.59131,3.22418a3.46334,3.46334,0,0,0-.51611-.7301,108.18241,108.18241,0,0,1-10.77978-19.50452,3.44956,3.44956,0,0,0-.41163-1.00543A109.68574,109.68574,0,0,1,227.18055,31.83569a30.53,30.53,0,0,0,3.36817,19.08911l.14428.26624a18.03326,18.03326,0,0,0-15.00586,15.465,81.55934,81.55934,0,0,0-38.84057,90.89929,71.74521,71.74521,0,0,0,.07812,17.25714l5.01807,39.79358a16.77762,16.77762,0,0,0-3.53174.39514A111.146,111.146,0,0,1,166.2992,200.67682Zm18.06006,54.164H182.4784a9.64931,9.64931,0,0,1-9.59863-8.86475c-.02539-.87011-.20605-6.97461-.48828-14.37451a9.63352,9.63352,0,0,1,9.62207-9.999h.81152l1.53418,12.166ZM183.87,173.937a64.71407,64.71407,0,0,1-.01245-16.07318c.00269-.017.00367-.034.00586-.051a64.3244,64.3244,0,0,1,29.19434-46.24329,17.92093,17.92093,0,0,0,11.80347,4.4378h62.23242a17.92092,17.92092,0,0,0,11.80346-4.4378,64.32408,64.32408,0,0,1,29.19458,46.24371c.0022.01679.00318.03363.00562.05036a64.71207,64.71207,0,0,1-.01245,16.07293l-4.34644,34.46674a44.906,44.906,0,0,0-14.93774-18.34808,51.59535,51.59535,0,0,0-37.00293-9.18116l-15.82031,2.13037L240.15711,180.874a51.59654,51.59654,0,0,0-37.00293,9.18116,44.90472,44.90472,0,0,0-14.93774,18.34887Zm7.457,101.66748V273.8457a45.6102,45.6102,0,0,0,20.60156,12.34442,29.9971,29.9971,0,0,0,8.333,7.98127c10.15722,6.50732,24.71972,7.23925,34.627,1.73877a2.25869,2.25869,0,0,1,2.17773,0,31.78666,31.78666,0,0,0,15.32813,3.68066,36.25857,36.25857,0,0,0,19.2998-5.41992,29.98889,29.98889,0,0,0,8.34668-8.00287A45.52543,45.52543,0,0,0,320.577,273.85449v1.77a64.12226,64.12226,0,0,1-26.31836,51.68994L258.038,353.66406a3.50438,3.50438,0,0,1-4.12207.00977l-36.251-26.36035A64.11186,64.11186,0,0,1,191.327,275.60449Zm15.91992,56.1377a23.8698,23.8698,0,0,0,2.92041-1.38654q1.64576,1.35663,3.38135,2.61945l36.25683,26.36474a10.49008,10.49008,0,0,0,12.35059-.01562l36.2207-26.34961q1.741-1.26691,3.3916-2.631a23.52883,23.52883,0,0,0,2.94434,1.40057l12.47387,4.87647a70.92887,70.92887,0,0,1-60.96215,34.94091c-.085.00049-.167.00049-.252.00049a70.85355,70.85355,0,0,1-61.20483-34.94122Zm101.38476,48.15136a181.36869,181.36869,0,0,1-52.61523,35.22559,194.065,194.065,0,0,1-81.17993-70.7066l13.32934-5.21094A77.83344,77.83344,0,0,0,255.97254,378.562c.09082,0,.18457,0,.27539-.00049a77.91839,77.91839,0,0,0,67.54078-39.36l13.42065,5.24658A181.26826,181.26826,0,0,1,308.63172,379.89355ZM425.46082,415.514V404.92969a63.53329,63.53329,0,0,0-18.26074-44.53925l14.20508-13.87994,28.98828,39.72876a15.18865,15.18865,0,0,0,2.38208,2.567Zm42.082-31.60388.001-.00049a8.23651,8.23651,0,0,1-11.49609-1.79639l-31.793-43.57275a8.229,8.229,0,0,1,6.62793-13.07764,8.332,8.332,0,0,1,1.28809.10059,8.173,8.173,0,0,1,5.375,3.27881L469.33973,372.415a8.19919,8.19919,0,0,1,1.085,2.05078c.01221.03265.02515.06458.03833.097A8.23926,8.23926,0,0,1,467.54286,383.91016Zm28.68359-53.52246a26.49922,26.49922,0,0,1-7.60547,23.36376l-14.145,13.82746-31.06909-42.57929,2.3186-2.26428a13.614,13.614,0,0,0,4.06153-9.67627l-.04834-32.5166H487.8014Zm-9.60815-56.84522H449.72816l-.03076-20.65088h33.43042Zm3.408-89.25488,2.61329,8.6499a22.671,22.671,0,0,1-6.25,23.25l-6.61426,6.19043-5.98047,2.84277a3.50022,3.50022,0,0,0,3.00586,6.32227l2.5166-1.19635,2.62744,15.545H449.6869l-.02954-19.89526-.00025-.21167c0-.07276-.00293-.146-.00683-.21826l-.85449-13.36817a4.73878,4.73878,0,0,1,2.5371-4.50293l1.25782-.65625a11.6291,11.6291,0,0,0,4.6062-4.33459c.01269-.02082.02807-.03876.04028-.05994.00635-.01111.00928-.02313.01538-.03424a11.80156,11.80156,0,0,0,1.17993-2.704,11.63091,11.63091,0,0,0-1.1123-9.15234l-4.25-7.34522a6.99012,6.99012,0,0,1,5.85059-10.48877l14.749-.42041A16.6224,16.6224,0,0,1,490.02625,184.2876Zm14.08008-53.313-20.97387,36.32532a23.43812,23.43812,0,0,0-9.66187-1.79749l-14.749.42041a13.87275,13.87275,0,0,0-11.81934,7.16944,14.23135,14.23135,0,0,0-1.15674,2.702l-15.5083-8.95105a3.50014,3.50014,0,0,0-3.5,6.0625l18.95654,10.94129a14.17853,14.17853,0,0,0,1.31788,3.068l4.25,7.34473a4.74714,4.74714,0,0,1,.46069,1.15924l-28.48706-16.44684a3.50014,3.50014,0,1,0-3.5,6.0625l28.43359,16.41595-.07324.03815a11.72265,11.72265,0,0,0-5.02832,5.093l-30.2998-17.488a6.51241,6.51241,0,0,1-2.37891-8.87891l44.75976-77.50976a6.5142,6.5142,0,0,1,8.87891-2.37988l37.7002,21.7705A6.51109,6.51109,0,0,1,504.10633,130.97461ZM229.72743,382.95935a3.5,3.5,0,1,0,3.5,3.5A3.49994,3.49994,0,0,0,229.72743,382.95935Zm52.5,0a3.5,3.5,0,1,0,3.5,3.5A3.49994,3.49994,0,0,0,282.22743,382.95935Zm53.49878,97.97894a3.5,3.5,0,1,0-3.5,3.5A3.49994,3.49994,0,0,0,335.72621,480.93829Zm-161,0a3.5,3.5,0,1,0,3.5-3.5A3.50009,3.50009,0,0,0,174.72621,480.93829Zm313.0354-342.66095-30.77344-17.76709a3.50014,3.50014,0,1,0-3.5,6.0625l30.77344,17.76709a3.50014,3.50014,0,0,0,3.5-6.0625Zm-231.78418,245.707a11,11,0,1,0,11,11A11.01245,11.01245,0,0,0,255.97743,383.98438Zm0,15a4,4,0,1,1,4-4A4.00427,4.00427,0,0,1,255.97743,398.98438ZM227.64735,234.80713a15.756,15.756,0,0,1-17.47168.001,3.49979,3.49979,0,1,0-3.86914,5.833,22.79716,22.79716,0,0,0,12.06738,3.80371c.17871.0044.35547.00635.53125.00635a23.11256,23.11256,0,0,0,12.60938-3.80908,3.50007,3.50007,0,0,0-3.86719-5.835Zm62.82617-12.93067a8.90749,8.90749,0,0,0,1.63574-6.85449,9.72582,9.72582,0,0,0-8.38647-7.75042,8.97581,8.97581,0,0,0,.07885-2.982,9.7429,9.7429,0,0,0-10.72656-8.209,171.17086,171.17086,0,0,1-34.19824,0,9.73628,9.73628,0,0,0-10.72363,8.209,8.98336,8.98336,0,0,0,.07861,2.97785,9.71248,9.71248,0,0,0-8.38623,7.75408,8.905,8.905,0,0,0,1.63379,6.85352,10.72372,10.72372,0,0,0,7.23437,4.21289,201.76244,201.76244,0,0,0,54.52832,0A10.719,10.719,0,0,0,290.47352,221.87646Zm-55.39063-16.59667a2.7669,2.7669,0,0,1,2.79493-2.24952,2.96941,2.96941,0,0,1,.30078.01514,178.15792,178.15792,0,0,0,35.59472,0,2.7897,2.7897,0,0,1,3.09864,2.23633,2.12948,2.12948,0,0,1-.46875,1.625,3.068,3.068,0,0,1-2.08545,1.10571c-1.801.18158-3.60425.331-5.40869.459-.54053.0382-1.08155.06811-1.62207.10156q-2.01819.12506-4.03785.20526c-.59545.02362-1.19043.04925-1.78613.067q-2.53674.07617-5.07471.08587-.41271.001-.825-.00006-2.53564-.00576-5.07055-.08581c-.59668-.01783-1.19287-.0434-1.78907-.06708q-2.01964-.08048-4.03735-.20526c-.54-.03339-1.08008-.06324-1.61987-.10144-1.8042-.128-3.60742-.27747-5.40845-.459a3.06414,3.06414,0,0,1-2.08545-1.10571A2.12735,2.12735,0,0,1,235.08289,205.27979Zm47.21387,13.87255a194.73969,194.73969,0,0,1-52.63867-.00048,3.70357,3.70357,0,0,1-2.51855-1.39551,1.97249,1.97249,0,0,1-.40332-1.49805,2.9363,2.9363,0,0,1,3.05664-2.09717,4.08735,4.08735,0,0,1,.542.03662q3.28418.44807,6.57959.77759c.02124.00226.04175.00739.063.00952,1.85107.18628,3.707.33661,5.56445.4682.5686.04035,1.13721.07166,1.70605.10688q2.08813.129,4.1792.2124c.61768.02454,1.23462.0509,1.8523.06946,1.76953.053,3.53979.0863,5.3103.0899q.386.00082.77173,0c1.77417-.0036,3.54761-.037,5.32056-.09009.61059-.01837,1.2207-.04449,1.83129-.06872q2.11085-.08369,4.21851-.21448c.55566-.03448,1.11108-.065,1.6665-.10437,1.8628-.13177,3.72364-.28241,5.58008-.46918.02222-.00226.0437-.00757.06592-.01q3.29187-.33232,6.57373-.77667c1.73731-.23681,3.35547.6875,3.60059,2.0586a1.97758,1.97758,0,0,1-.4043,1.50048,3.704,3.704,0,0,1-2.5166,1.39454Zm212.46485-92.99951-30.77344-17.7666a3.50014,3.50014,0,1,0-3.5,6.0625l30.77344,17.7666a3.50014,3.50014,0,0,0,3.5-6.0625Zm-196.78418,48.3374a10.5,10.5,0,1,0-10.5-10.5A10.51179,10.51179,0,0,0,297.97743,174.49023Zm0-14a3.5,3.5,0,1,1-3.5,3.5A3.50426,3.50426,0,0,1,297.97743,160.49023ZM173.702,176.29639a3.54527,3.54527,0,1,0,.082.1748ZM255.97743,44.07568a11.12524,11.12524,0,1,0-11.125-11.12548A11.13748,11.13748,0,0,0,255.97743,44.07568Zm0-15.25048a4.12524,4.12524,0,1,1-4.125,4.125A4.12982,4.12982,0,0,1,255.97743,28.8252ZM167.1952,157.19531l-3.43066.69385,3.42578-.71582a3.49977,3.49977,0,0,0-6.85157,1.43164c.00782.03662.03711.17041.0459.20654a3.46647,3.46647,0,0,0,3.37989,2.65088,3.50974,3.50974,0,0,0,3.43066-4.26709Zm130.23242-100.519,1.6543-3.085-1.60645,3.10937a3.49984,3.49984,0,1,0,3.21289-6.21875c-.01367-.00732-.11621-.05957-.12988-.0664a3.5,3.5,0,1,0-3.13086,6.26074ZM172.62782,93.124a3.54479,3.54479,0,0,0-4.707,1.64112A3.49983,3.49983,0,1,0,174.202,97.854l.04394-.08935A3.45768,3.45768,0,0,0,172.62782,93.124Zm9.70117-11.0874a3.49483,3.49483,0,0,0,2.69531-1.26416c.0166-.02051.0957-.11865.11231-.13965a3.45763,3.45763,0,0,0-.56934-4.853,3.5432,3.5432,0,0,0-4.92969.521,3.50054,3.50054,0,0,0,2.69141,5.73584Zm14.93945-14.87793a3.53047,3.53047,0,0,0,2.18945-.7583L197.328,63.62256l2.14844,2.76269a3.49975,3.49975,0,1,0-4.29688-5.52539c-.02832.02149-.13281.10547-.16015.12744a3.49156,3.49156,0,0,0,2.249,6.17139Zm119.34082-1.918-2.26074,2.67188A3.5,3.5,0,1,0,318.87,62.56885l-.10644-.08936a3.5,3.5,0,1,0-4.46094,5.39453ZM161.58094,140.5542a3.49951,3.49951,0,0,0,3.4961-3.39844l.00293-.20166a3.50094,3.50094,0,1,0-3.60254,3.59863C161.51258,140.55371,161.54676,140.5542,161.58094,140.5542Zm1.69043-21.01514a3.48368,3.48368,0,0,0,.752.08252,3.53664,3.53664,0,0,0,3.4209-2.72314l-3.39648-.84619,3.40137.8247a3.49992,3.49992,0,0,0-6.80274-1.64941c-.00879.03613-.03906.16943-.04687.206A3.477,3.477,0,0,0,163.27137,119.53906Zm50.70606,54.95117a10.5,10.5,0,1,0-10.5-10.5A10.51179,10.51179,0,0,0,213.97743,174.49023Zm0-14a3.5,3.5,0,1,1-3.5,3.5A3.50426,3.50426,0,0,1,213.97743,160.49023Zm1.10742-104.49755a3.48723,3.48723,0,0,0,1.48047-.33057l.13281-.06348a3.47658,3.47658,0,0,0,1.60156-4.66308,3.53646,3.53646,0,1,0-3.21484,5.05713Zm38.90234,120.96337a3.50155,3.50155,0,0,0,3.98047,0,30.79547,30.79547,0,0,0,0-50.71679,3.5027,3.5027,0,0,0-3.98047,0,30.79548,30.79548,0,0,0,0,50.71679Zm1.99024-43.42285a23.78479,23.78479,0,0,1,0,36.12891,23.78479,23.78479,0,0,1,0-36.12891ZM348.539,156.917a3.50187,3.50187,0,0,0-4.28809,2.47217l-.04589.18066a3.501,3.501,0,1,0,4.334-2.65283ZM328.37586,82.62354a3.53528,3.53528,0,1,0-.1289-.16993Zm-26.5957,152.18359a16.03035,16.03035,0,0,1-9.10937,2.63965,15.80662,15.80662,0,0,1-8.36231-2.63867,3.49979,3.49979,0,1,0-3.86914,5.833,22.79722,22.79722,0,0,0,12.06738,3.80371q.26661.0066.53028.00635a23.11349,23.11349,0,0,0,12.61035-3.80908,3.50007,3.50007,0,0,0-3.86719-5.835Zm35.35645-56.22461a3.5434,3.5434,0,1,0,.09765-.19141C337.21571,178.4248,337.15321,178.54785,337.13661,178.58252Zm4.80859-80.03809-3.18945,1.44043a3.49963,3.49963,0,1,0,6.3789-2.88086l-.07129-.15576a3.50005,3.50005,0,0,0-6.32226,3.00488Zm3.06738,20.64063.02051.09814a3.49977,3.49977,0,0,0,6.85156-1.43164l-.02051-.09814a3.49977,3.49977,0,0,0-6.85156,1.43164Zm5.34766,16.77148a3.52281,3.52281,0,0,0-3.5,3.44678l3.49805.12695-3.49805-.103a3.49917,3.49917,0,0,0,3.39551,3.60156c.03515.001.06933.00146.10449.00146a3.49987,3.49987,0,0,0,3.49609-3.397c.001-.03467.00391-.16846.00391-.20264a3.47792,3.47792,0,0,0-3.46094-3.47412Z"/></svg>