<svg xmlns="http://www.w3.org/2000/svg" data-name="Layer 1" viewBox="0 0 512 512"><path fill="#fee903" d="M376.72238,497.2224h0a8.25184,8.25184,0,0,1-5.95524-9.592l40.0711-199.96577L451.956,298.68211l-65.28028,193.211A8.25182,8.25182,0,0,1,376.72238,497.2224Z"/><path fill="#fac600" d="M410.83813,287.66461l-.71337,3.56012,27.83129,7.4574-65.28027,193.211a8.2361,8.2361,0,0,1-.82178,1.72064,8.25131,8.25131,0,0,0,14.82178-1.72064l65.28027-193.211Z"/><circle cx="441.538" cy="255.326" r="66.945" fill="#fee903"/><path fill="#fac600" d="M464.32349,192.39417a66.94477,66.94477,0,0,1-54.11206,120.59619c-1.863-.49921-3.67676-1.089-5.4585-1.73194a66.9382,66.9382,0,1,0,59.57056-118.86425Z"/><ellipse cx="441.538" cy="255.326" fill="#fef48b" rx="66.945" ry="41.285" transform="rotate(-75 441.538 255.326)"/><ellipse cx="441.538" cy="255.326" fill="#fee903" rx="66.945" ry="14.722" transform="rotate(-75 441.536 255.325)"/><rect width="51.275" height="16.447" x="433.303" y="182.155" fill="#fac600" rx="8.223" transform="rotate(15 458.94 190.378)"/><rect width="51.275" height="16.447" x="398.574" y="311.767" fill="#fac600" rx="8.223" transform="rotate(15 424.211 319.99)"/><path fill="#fee903" d="M477.508,186.84037l-32.87762-8.80953,5.62588-8.141a14.53789,14.53789,0,0,1,15.72261-5.77751h0a14.53789,14.53789,0,0,1,10.72743,12.86477Z"/><path fill="#fac600" d="M467.59326,176.97717l.59863,7.367,9.31617,2.49627-.80176-9.86322a14.538,14.538,0,0,0-10.7273-12.8648h0a14.5066,14.5066,0,0,0-8.31689.24719A14.53189,14.53189,0,0,1,467.59326,176.97717Z"/><circle cx="326" cy="272.86" r="18.255" fill="#fee903"/><path fill="#fac600" d="M334.919,256.94061a18.24268,18.24268,0,0,1-24.8379,24.838,18.24928,18.24928,0,1,0,24.8379-24.838Z"/><circle cx="186" cy="272.86" r="18.255" fill="#fee903"/><circle cx="256" cy="24.503" r="21.003" fill="#fee903"/><circle cx="199.445" cy="39.657" r="21.003" fill="#fee903"/><circle cx="158.044" cy="81.058" r="21.003" fill="#fee903"/><circle cx="142.89" cy="137.613" r="21.003" fill="#fee903"/><circle cx="158.044" cy="194.168" r="21.003" fill="#fee903"/><circle cx="353.956" cy="194.168" r="21.003" fill="#fee903"/><circle cx="369.11" cy="137.613" r="21.003" fill="#fee903"/><circle cx="353.956" cy="81.058" r="21.003" fill="#fee903"/><circle cx="312.555" cy="39.657" r="21.003" fill="#fee903"/><path fill="#fac600" d="M158.69458 215.161A21.00177 21.00177 0 1 0 140.165 183.14325 124.28583 124.28583 0 0 0 158.69458 215.161zM132.94067 156.111a21.00278 21.00278 0 1 0 0-36.99566 125.53183 125.53183 0 0 0 0 36.99566zM176.23242 91.55939a21.0028 21.0028 0 0 0-17.53784-31.49414A124.28548 124.28548 0 0 0 140.165 92.083a21.00574 21.00574 0 0 0 36.06738-.52356z"/><path fill="#ffbd86" d="M342.60285 244.34186v-.00012s.18015-6.27571.48-14.18463a13.38662 13.38662 0 0 0-13.37237-13.8954h-5.62628v40.23822H329.278a13.3808 13.3808 0 0 0 13.32482-12.15807zM187.849 216.26172h-5.81272A13.13252 13.13252 0 0 0 168.917 229.89406c.30586 8.03237.49 14.44768.49 14.44768v.00012l.01115.12154a13.17022 13.17022 0 0 0 13.08257 12.03654h5.3483z"/><path fill="#fac600" d="M181.25586,50.15814A21.00281,21.00281,0,1,0,210.47,21.778a124.28337,124.28337,0,0,0-32.01782,18.5296A20.90417,20.90417,0,0,0,181.25586,50.15814Z"/><path fill="#fee903" d="M256,24.5A113.11313,113.11313,0,1,0,369.11313,137.6131,113.1131,113.1131,0,0,0,256,24.5Zm0,191.22607a78.113,78.113,0,1,1,78.11328-78.11279A78.20137,78.20137,0,0,1,256,215.72607Z"/><path fill="#fac600" d="M315.906,187.67285A78.08332,78.08332,0,0,1,178.73853,126.1239a67.90763,67.90763,0,0,0-12.32032,48.264l4.80542,38.09869A113.648,113.648,0,0,0,197.59961,234.5H310Z"/><path fill="#fac600" d="M249 59.82965c-2.30811-.206-4.6394-.32965-7-.32965a78.113 78.113 0 1 0 0 156.22607c2.3606 0 4.69189-.12359 7-.32965a78.0962 78.0962 0 0 1 0-155.56677zM256 24.5c-2.35156 0-4.68408.08051-7 .22192a113.10767 113.10767 0 0 1 0 225.78241c2.31592.14142 4.64844.22193 7 .22193A113.11313 113.11313 0 1 0 256 24.5z"/><path fill="#fed2a4" d="M421.98364,512V407.80371a59.99994,59.99994,0,0,0-38.15817-55.88319l-77.81973-30.41564a19.99993,19.99993,0,0,1-12.71936-18.62769V275.02625H218.71362v27.85089a20,20,0,0,1-12.71941,18.62776l-77.81968,30.41562a59.99994,59.99994,0,0,0-38.15817,55.88319V502a10,10,0,0,0,10,10Z"/><path fill="#ffbd86" d="M201.04614,323.43872A35.6566,35.6566,0,0,0,252.512,342.57031a6.93759,6.93759,0,0,1,6.97608,0,35.65634,35.65634,0,0,0,51.46557-19.13159l-4.94775-1.93384a19.99976,19.99976,0,0,1-12.71948-18.62768V279.85034a35.15338,35.15338,0,0,0-13.86817-3.74609,35.54639,35.54639,0,0,0-19.91528,4.6936,6.97441,6.97441,0,0,1-7.00586,0,35.54483,35.54483,0,0,0-19.91406-4.6936,35.154,35.154,0,0,0-13.86939,3.74609V302.8772a19.99976,19.99976,0,0,1-12.71948,18.62768Z"/><path fill="#ffbd86" d="M383.82544,351.92053l-77.81958-30.41565a19.99983,19.99983,0,0,1-12.71948-18.62768v-27.851H218.71362v7h60.57276v27.851a19.99983,19.99983,0,0,0,12.71948,18.62768l77.81958,30.41565a59.99969,59.99969,0,0,1,38.1582,55.88318V512h14V407.80371A59.99969,59.99969,0,0,0,383.82544,351.92053Z"/><path fill="#fee903" d="M342.3927,335.72662q-10.08727-3.94257-20.17444-7.88513a74.607,74.607,0,0,1-132.43658,0q-10.0872,3.94258-20.17438,7.88513A197.99823,197.99823,0,0,0,256,411.971a184.65341,184.65341,0,0,0,86.3927-76.24442Z"/><path fill="#fac600" d="M333.311,332.17706a184.68264,184.68264,0,0,1-29.23194,36.2558q-2.55162,2.45216-5.10924,4.72737a74.38608,74.38608,0,0,1-98.47711.42731q-.27245-.23928-.545-.48042c-1.86963-1.65406-3.65747-3.31275-5.397-4.971,3.76709,3.96863,7.89014,7.98334,12.397,11.971A198.10666,198.10666,0,0,0,256,411.971a184.65079,184.65079,0,0,0,86.39258-76.24439Q337.85193,333.95179,333.311,332.17706Z"/><path fill="#fee903" d="M307.19922,457.30127V321.97137l-1.19348-.46649a20,20,0,0,1-12.71936-18.62774V275.02625h-.08716v182.275a37.19922,37.19922,0,0,1-74.39844,0v-182.275h-.08716v27.85089a20,20,0,0,1-12.71936,18.62774l-1.19348.46649v135.3299a51.19922,51.19922,0,0,0,102.39844,0Z"/><path fill="#fac600" d="M293.28638 302.8772V279.85034c-.02857-.01452-.05835-.0271-.08716-.0415v63.78357a35.79541 35.79541 0 0 0 14-12.51294v-9.108l-1.19336-.46656a20.05012 20.05012 0 0 1-10.39233-9.29321q-.35561-.67236-.65943-1.37158a19.94977 19.94977 0 0 1-1.66772-7.96289zM205.99414 321.50488l-1.19336.46656v9.10839a35.79732 35.79732 0 0 0 14 12.5127V279.80884c-.02881.0144-.05859.027-.08716.0415V302.8772h0a19.94977 19.94977 0 0 1-1.66772 7.96289q-.304.69927-.65943 1.37158a20.18133 20.18133 0 0 1-10.39233 9.29321z"/><path fill="#fac600" d="M211.80078,450.30127a37.15446,37.15446,0,0,0,14.64478,29.55395,37.00082,37.00082,0,0,1-7.64478-22.55395v-182.275h-.08716v27.85089a19.988,19.988,0,0,1-6.91284,15.10656Z"/><path fill="#f4ba00" d="M218.71362,302.8772a19.98707,19.98707,0,0,1-.10766,2.03759c-.002.019-.00269.03833-.00489.05738a19.91865,19.91865,0,0,1-2.90136,8.43335c-.03.04846-.061.09607-.09156.14428q-.32117.50721-.67211.99463c-.02735.03772-.05079.07788-.07813.11548-.012.01636-.02612.03125-.03809.04761q-.46618.63354-.98242,1.22888c-.12158.14246-.24658.28162-.37207.42066-.28808.31482-.583.62316-.89111.91955-.07984.077-.1499.16272-.231.23828-.115.10718-.24414.19947-.36181.30371-.061.0542-.1189.11158-.18067.165v20.98511a35.64731,35.64731,0,0,0,7,4.62378V279.80884c-.02881.0144-.05859.027-.08716.0415V302.8772Z"/><path fill="#fac600" d="M296.08936 313.07593a19.966 19.966 0 0 1-2.803-10.19879V275.02625h-.08716V310.9837A19.93233 19.93233 0 0 0 296.08936 313.07593zM306.00586 321.50488a19.95021 19.95021 0 0 1-5.80664-3.52118V450.30127a51.17312 51.17312 0 0 1-83.717 39.51715 51.17942 51.17942 0 0 0 90.717-32.51715V321.97137z"/><path fill="#f4ba00" d="M304.32275,320.74878l-.03027-.01685c-.52881-.26757-1.04077-.55883-1.53857-.86938l-.02491-.01416c-.05395-.03357-.103-.07349-.15649-.10742-.415-.26538-.82227-.54-1.21436-.83313-.28784-.2118-.56005-.43933-.83471-.66553-.106-.08826-.22-.16834-.32422-.25867v20.98487a35.813,35.813,0,0,0,7-7.889v-9.108l-1.19336-.46656C305.42822,321.27905,304.86865,321.02393,304.32275,320.74878Z"/><path fill="#fee903" d="M324,234.5H188l-7.5817-60.11207a67.9738,67.9738,0,0,1,40.75536-71.023L256,88.5l34.82634,14.8649a67.9738,67.9738,0,0,1,40.75536,71.023Z"/><path fill="#fac600" d="M290.82617,103.36493,256,88.5l-7,2.98779,27.82617,11.87714a67.97339,67.97339,0,0,1,40.75537,71.023L310,234.5h14l7.58154-60.11206A67.97339,67.97339,0,0,0,290.82617,103.36493Z"/><path fill="#fed2a4" fill-rule="evenodd" d="M256.00066,319.35688h-1.70361a66.14747,66.14747,0,0,1-66.41548-66.0756c.00031-14.20355.00051-17.23495.00063-20.29726a40.20325,40.20325,0,0,1,16.83566-32.71319l.49283-.352a48.2753,48.2753,0,0,1,34.50194-8.56027L256,193.55175l16.28734-2.19321a48.27426,48.27426,0,0,1,34.50159,8.56l.49291.35208a40.20138,40.20138,0,0,1,16.836,32.71172c.00011,2.45892.00029,5.61267.00055,18.251A68.12147,68.12147,0,0,1,256.00066,319.35688Z"/><path fill="#ffbd86" fill-rule="evenodd" d="M242 193.55176l7-.94263-9.28735-1.25061a48.25875 48.25875 0 0 0-13.41431.07892zM324.11768 232.98236a40.20057 40.20057 0 0 0-16.83594-32.71173q-.24647-.17615-.49292-.35205a48.27434 48.27434 0 0 0-34.50147-8.56006l-.58545.07886a48.26634 48.26634 0 0 1 21.08692 8.4812q.24645.17588.49292.35205a40.20057 40.20057 0 0 1 16.83594 32.71173c.00024 2.45892.00048 5.61267.00073 18.251a68.11867 68.11867 0 0 1-61.96192 67.83331c2.02247.18329 4.06812.29022 6.14063.29022h1.70361a68.12157 68.12157 0 0 0 68.11768-68.12353C324.11816 238.595 324.11792 235.44128 324.11768 232.98236z"/><path fill="#ffbd86" fill-rule="evenodd" d="M187.88232,246.984a40.20348,40.20348,0,0,1,16.83545-32.7132l.49292-.352a48.27545,48.27545,0,0,1,34.502-8.5603L256,207.55176l16.28735-2.19324a48.27434,48.27434,0,0,1,34.50147,8.56006q.24645.17588.49292.35205a40.20057,40.20057,0,0,1,16.83594,32.71173c0,1.05847.00024,2.25079.00024,4.26788l.00049-.0169c-.00025-12.63831-.00049-15.79206-.00073-18.251a40.20057,40.20057,0,0,0-16.83594-32.71173q-.24647-.17615-.49292-.35205a48.27434,48.27434,0,0,0-34.50147-8.56006L256,193.55176l-16.28735-2.19324a48.27545,48.27545,0,0,0-34.502,8.5603l-.49292.352a40.20348,40.20348,0,0,0-16.83545,32.7132c-.00024,3.06232-.00048,6.09375-.00073,20.29724l.00025.01447C187.88208,250.1579,187.88232,248.57312,187.88232,246.984Z"/><rect width="70.936" height="27.864" x="220.532" y="90.357" fill="#fee903" rx="13.932"/><path fill="#fac600" d="M277.53613 90.35669h-1.92651a13.851 13.851 0 0 1 1.85815 6.93176v.00006a13.93165 13.93165 0 0 1-13.93164 13.93177H222.39038a13.916 13.916 0 0 0 12.07349 7h43.07226a13.93165 13.93165 0 0 0 13.93164-13.93177v-.00006A13.93161 13.93161 0 0 0 277.53613 90.35669zM263.23242 52.175L249 41.44763 234.76758 52.175a25.87008 25.87008 0 0 0-9.32788 13.55664 77.85871 77.85871 0 0 1 45.17846-4.83954c-.05712-.1095-.10693-.2218-.16577-.33069A26.043 26.043 0 0 0 263.23242 52.175z"/><path fill="#fee903" d="M274.75412,90.35666H237.24588l-2.6982-4.9782a26.04016,26.04016,0,0,1,0-24.81708h0a26.03982,26.03982,0,0,1,7.22-8.38641L256,41.44763,270.23232,52.175a26.03982,26.03982,0,0,1,7.22,8.38641h0a26.04016,26.04016,0,0,1,0,24.81708Z"/><path fill="#fac600" d="M273.03188,54.59633a25.26119,25.26119,0,0,0-2.82745-2.44248L256,41.44763l-2.35645,1.77612,2.56059,1.92989a25.25989,25.25989,0,0,1,2.82747,2.44241,26.07593,26.07593,0,0,1,4.42078,30.78243h0a9.50976,9.50976,0,0,1-8.36066,4.97821H233.5752c.29736.6831.61376,1.36005.97241,2.02179l2.69824,4.97821h37.5083l2.69824-4.97821A26.0759,26.0759,0,0,0,273.03188,54.59633Z"/><circle cx="256" cy="69.728" r="7.318" fill="#09a76d"/><path fill="#02905d" d="M257.41626,62.54932a7.31107,7.31107,0,0,1-7.3523,11.44787,7.31516,7.31516,0,1,0,7.3523-11.44787Z"/><circle cx="210.49" cy="164.006" r="8.752" fill="#09a76d"/><circle cx="301.51" cy="164.006" r="8.752" fill="#09a76d"/><path fill="#02905d" d="M302.66553 155.33936A8.7167 8.7167 0 0 1 294.571 169.325a8.74562 8.74562 0 1 0 8.09449-13.98559zM211.64623 155.33936a8.7167 8.7167 0 0 1-8.09448 13.98559 8.74562 8.74562 0 1 0 8.09448-13.98559z"/><path fill="#ffbd86" d="M293.05957 245.26953q-.26367 0-.53027-.00635a22.79723 22.79723 0 0 1-12.06739-3.80371 3.49979 3.49979 0 1 1 3.86914-5.833 15.80655 15.80655 0 0 0 8.36231 2.63868 16.08773 16.08773 0 0 0 9.10937-2.63965 3.50007 3.50007 0 0 1 3.86719 5.835A23.11346 23.11346 0 0 1 293.05957 245.26953zM218.92773 245.26953c-.17578 0-.35253-.00195-.53125-.00635a22.79722 22.79722 0 0 1-12.06738-3.80371 3.49979 3.49979 0 1 1 3.86914-5.833 15.81036 15.81036 0 0 0 8.36328 2.63868 15.97088 15.97088 0 0 0 9.1084-2.63965 3.50007 3.50007 0 0 1 3.86719 5.835A23.11253 23.11253 0 0 1 218.92773 245.26953z"/><path fill="#fead8a" d="M279.41812,262.10425a35.54645,35.54645,0,0,0-19.91516,4.69352,6.97434,6.97434,0,0,1-7.00595,0,35.64549,35.64549,0,1,0,.01491,61.77263,6.93736,6.93736,0,0,1,6.97615,0,35.64885,35.64885,0,1,0,19.93-66.46615Z"/><path fill="#fd9468" d="M312.85889,295.16412a35.63533,35.63533,0,0,0-14.1333-25.91864,35.29258,35.29258,0,0,1,7.1333,18.91864A35.65524,35.65524,0,0,1,252.488,321.57037a6.93731,6.93731,0,0,0-6.97608,0,35.63861,35.63861,0,0,1-39.28271-2.43921,35.65365,35.65365,0,0,0,46.28271,9.43921,6.93731,6.93731,0,0,1,6.97608,0,35.65524,35.65524,0,0,0,53.37085-33.40625Z"/><path fill="#fd9468" d="M255.98535,307.583c-.32129,0-.64355-.00342-.96875-.01123A41.755,41.755,0,0,1,232.918,300.605a3.49979,3.49979,0,1,1,3.86914-5.833,34.76323,34.76323,0,0,0,18.39355,5.80176,35.18189,35.18189,0,0,0,20.03418-5.80273,3.49973,3.49973,0,1,1,3.86524,5.83545A42.3367,42.3367,0,0,1,255.98535,307.583Z"/><path fill="#ffbd86" d="M415.41421,502V404.94539a60,60,0,0,0-35.64333-54.83386l-28.16213-12.50934a10.66159,10.66159,0,0,0-14.98961,9.7436V512h68.79507A10,10,0,0,0,415.41421,502Z"/><path fill="#fd6930" d="M429.41421,502V404.94539a60,60,0,0,0-35.64333-54.83386l-28.16213-12.50934a10.66159,10.66159,0,0,0-14.98961,9.7436V512h68.79507A10,10,0,0,0,429.41421,502Z"/><path fill="#fd5426" d="M393.771,350.11151l-28.16211-12.50934a10.58818,10.58818,0,0,0-10.90918,1.37293L379.771,350.11151a60,60,0,0,1,35.64306,54.83386V502a10,10,0,0,1-10,10h14a10,10,0,0,0,10-10V404.94537A60,60,0,0,0,393.771,350.11151Z"/><path fill="#fee903" d="M378.61914,512V347.34576a10.64838,10.64838,0,0,1,.65881-3.67187l-13.66919-6.07172a10.66161,10.66161,0,0,0-14.98962,9.74359V512Z"/><path fill="#fac600" d="M364.37061,337.14478c-.0459-.01416-.092-.03107-.13819-.0445a10.60382,10.60382,0,0,0-1.1626-.26544c-.07544-.01306-.15087-.02753-.22631-.03882a10.45876,10.45876,0,0,0-1.09546-.1051q-.14722-.00641-.29395-.00867-.51525-.0087-1.02344.032c-.12011.01-.2395.025-.35888.03907-.29468.03424-.58692.07928-.87574.13769-.16333.03339-.32446.07361-.48559.11457-.20191.05084-.40137.10876-.59937.1712q-.37023.11737-.72973.26069c-.14649.058-.29151.11864-.43482.183-.29174.13135-.57641.27637-.855.43274-.09839.05512-.19751.10913-.29419.1673a10.90976,10.90976,0,0,0-1.09765.75452l23.91943,10.62475v-2.25409a10.65115,10.65115,0,0,1,.65869-3.67187l-13.66894-6.07172A10.945,10.945,0,0,0,364.37061,337.14478Z"/><circle cx="256" cy="427.266" r="15.294" fill="#fee903"/><path fill="#fac600" d="M262.72217,413.54327a15.26831,15.26831,0,0,1-20.44434,20.44446,15.28472,15.28472,0,1,0,20.44434-20.44446Z"/><rect width="80.79" height="23.787" x="83.016" y="470.454" fill="#fee903" rx="11.894"/><path fill="#fac600" d="M151.9126,470.454h-3.16846a11.8303,11.8303,0,0,1,1.062,4.89355v.00007a11.8936,11.8936,0,0,1-11.89355,11.89361H84.07812a11.88739,11.88739,0,0,0,10.83179,7H151.9126a11.8936,11.8936,0,0,0,11.89355-11.89361v-.00007A11.89355,11.89355,0,0,0,151.9126,470.454Z"/><path fill="#fd6930" d="M275.04674,159.35809l-15.34226,16.92482a5,5,0,0,1-7.409,0l-15.34226-16.92482a5,5,0,0,1,0-6.71618l15.34226-16.92482a5,5,0,0,1,7.409,0l15.34226,16.92482A5,5,0,0,1,275.04674,159.35809Z"/><path fill="#fd5426" d="M275.04688,152.64191,259.70454,135.717a5.00009,5.00009,0,0,0-7.40913.00006L249,139.35254l0,0a24.78688,24.78688,0,0,1,0,33.29488l0,0,3.29536,3.63538a5.00015,5.00015,0,0,0,7.40923.00006l15.34229-16.92481A5,5,0,0,0,275.04688,152.64191Z"/><path d="M174.72621,480.93835a3.5,3.5,0,1,0,3.5-3.5A3.50009,3.50009,0,0,0,174.72621,480.93835ZM485.93812,200.63312a11.76732,11.76732,0,0,0,1.12524-2.72833A11.71436,11.71436,0,0,0,480.7909,184.295l-.61914-7.61676a18.03809,18.03809,0,0,0-32.81836-8.79394l-4.34692,6.29144a11.677,11.677,0,0,0-12.62305,11.56934,70.94137,70.94137,0,0,0-56.91675,51.33355,69.97869,69.97869,0,0,0,23.57178,72.86615,11.67562,11.67562,0,0,0,2.82739,14.52191l-4.50708,22.51886c-.064-.02862-.126-.06011-.18994-.08856l-15.189-6.74676-.03491-.01551-12.93824-5.747a14.11187,14.11187,0,0,0-13.46679,1.06884c-.26612.17292-.50537.374-.75708.56226L309.93372,319.269A38.83567,38.83567,0,0,0,316.328,294.9082c-.06372-.92517-.16992-1.83819-.29712-2.7445a21.74217,21.74217,0,0,0,23.92456-35.98957,16.80822,16.80822,0,0,0,6.10694-11.53106c.00683-.07276.01074-.14551.01367-.21827,0-.00634.17969-6.25976.47851-14.14355a16.94155,16.94155,0,0,0-5.41186-13.03992c.45-.47906.917-.945,1.35791-1.4306a24.30042,24.30042,0,0,0,11.39673,2.8587,24.646,24.646,0,0,0,6.38086-.84521,24.49967,24.49967,0,0,0,6.73315-44.38593,115.86993,115.86993,0,0,0,3.01245-11.3576,24.499,24.499,0,0,0-.02881-48.96344,115.5174,115.5174,0,0,0-3.03686-11.32324,24.49647,24.49647,0,0,0-24.53076-42.37427q-3.92762-4.33932-8.27222-8.27258a24.47969,24.47969,0,0,0-42.34253-24.52192,115.615,115.615,0,0,0-11.35815-3.048,24.49362,24.49362,0,0,0-48.9541,0,115.56881,115.56881,0,0,0-11.35767,3.04785A24.48048,24.48048,0,0,0,177.79994,51.147q-4.33925,3.92779-8.27222,8.27259A24.49631,24.49631,0,0,0,144.997,101.79309a115.60642,115.60642,0,0,0-3.03711,11.32416,24.499,24.499,0,0,0-.02857,48.96344,115.856,115.856,0,0,0,3.012,11.35675A24.492,24.492,0,0,0,169.454,215.81055c.417.45923.85913.89947,1.28418,1.35284a16.6366,16.6366,0,0,0-5.33887,12.84149c.28613,7.66065.47266,13.83838.48828,14.38428a4.129,4.129,0,0,0,.03614.49561,16.71237,16.71237,0,0,0,6.02685,11.33252,21.753,21.753,0,0,0,14.02686,38.377,21.4772,21.4772,0,0,0,9.94482-2.41974c-.12622.90216-.23193,1.811-.29541,2.73175a38.8394,38.8394,0,0,0,6.394,24.363l-75.147,29.3753A63.10688,63.10688,0,0,0,86.497,407.78418v61.659a15.3624,15.3624,0,0,0,0,25.77771v13.26349a3.5,3.5,0,0,0,7,0V497.65509c.45874.04132.92114.0705,1.39062.0705h57.002c.47168,0,.93652-.02906,1.39746-.0708v10.82959a3.5,3.5,0,0,0,7,0V495.21674a15.49089,15.49089,0,0,0,3.19214-2.78565c8.99755,10.74787,22.83569,17.87177,38.04809,19.35651.11524.01123.23047.01709.34375.01709a3.50023,3.50023,0,0,0,.33594-6.98389c-14.53491-1.41858-27.58106-8.61432-35.25195-19.33319a15.35311,15.35311,0,0,0-6.77442-16.105c-1.86963-10.92511,1.1272-21.10486,4.06445-27.83868a3.5,3.5,0,1,0-6.416-2.79883c-3.00855,6.89709-6.06616,17.0285-5.02466,28.23974-.30444-.018-.606-.04638-.91479-.04638h-57.002c-.46948,0-.93188.02917-1.39062.07049V407.78418a56.1493,56.1493,0,0,1,35.9248-52.62012l38.76465-15.153A201.96666,201.96666,0,0,0,201.27723,379.673v77.61121a54.7002,54.7002,0,1,0,109.40039,0V380.5705c.958-.88312,1.90283-1.765,2.80469-2.632a187.99754,187.99754,0,0,0,30.3479-37.90338l4.42114,1.72827a14.1482,14.1482,0,0,0-1.15478,5.56671V482.25366c-7.2876,12.57245-21.16944,20.99243-37.34766,22.56714a3.50019,3.50019,0,0,0,.335,6.98389q.16992,0,.34277-.01709c14.66211-1.42676,27.70411-7.8747,36.66993-17.75891v14.45569a3.5,3.5,0,0,0,7,0V347.33008a7.16166,7.16166,0,0,1,10.06836-6.54492l10.93261,4.85614V508.48438a3.5,3.5,0,0,0,7,0V348.75061l10.2295,4.54382a56.54767,56.54767,0,0,1,33.56445,51.63526V508.48438a3.5,3.5,0,0,0,7,0V404.92969a63.35567,63.35567,0,0,0-4.90381-24.4433l15.02344-44.4574a11.65966,11.65966,0,0,0,9.70605-11.16083,69.97234,69.97234,0,0,0,56.84131-51.32763A70.914,70.914,0,0,0,485.93812,200.63312Zm-99.35034-63.03888a17.52137,17.52137,0,0,1-15.27735,17.3529,118.50552,118.50552,0,0,0,1.27735-17.3529,117.02606,117.02606,0,0,0-1.29151-17.34491A17.51514,17.51514,0,0,1,386.58778,137.59424Zm-245.94336,17.3529a17.48833,17.48833,0,0,1,.01416-34.69781,117.02606,117.02606,0,0,0-1.29151,17.34491A118.50552,118.50552,0,0,0,140.64442,154.94714ZM94.88758,473.93848h57.002a8.39356,8.39356,0,0,1,0,16.78711h-57.002a8.39356,8.39356,0,0,1,0-16.78711ZM201.27723,369.984a194.95054,194.95054,0,0,1-26.44311-32.57153l13.32885-5.21021a77.71863,77.71863,0,0,0,13.11426,16.9596Zm0-31.11829a70.741,70.741,0,0,1-6.50659-9.24634l6.50659-2.54345Zm139.4502-66.02148a14.73358,14.73358,0,0,1-21.97315,12.84869,70.932,70.932,0,0,0,8.30347-25.70855h2.2a17.16336,17.16336,0,0,0,3.324-.32764A14.6875,14.6875,0,0,1,340.72743,272.84424ZM183.87,173.93652a64.893,64.893,0,0,1,33.78272-65.03576,17.44808,17.44808,0,0,0,16.78857,12.80383h43.07227a17.44806,17.44806,0,0,0,16.78857-12.80383,64.893,64.893,0,0,1,33.78272,65.03576l-5.00928,39.72473a43.51862,43.51862,0,0,0-13.71826-16.20666c-.11231-.08447-.22754-.166-.34375-.24707l-.21094-.15088a51.56023,51.56023,0,0,0-37.00195-9.18115l-15.82324,2.12744-15.82227-2.12744a51.56,51.56,0,0,0-37.00195,9.18066l-.49024.3501a43.71038,43.71038,0,0,0-13.78222,16.26245Zm.48731,59.10047v19.94739h-1.87988a9.63691,9.63691,0,0,1-9.59375-8.85206c-.02442-.79541-.209-6.8833-.48926-14.39648a9.61327,9.61327,0,0,1,3.29248-7.59332q3.86023,3.65882,8.08984,7.0036l.398,3.15613A3.4858,3.4858,0,0,0,184.35731,233.037ZM231.44813,87.03076l.043.07935A17.46555,17.46555,0,0,0,217.27625,101.262a70.88377,70.88377,0,0,0-31.60253,29.32251,72.37251,72.37251,0,0,0-4.27613,8.928c-.01636-.639-.03052-1.27826-.03052-1.91827A75.19,75.19,0,0,1,228.2433,68.34479,29.43966,29.43966,0,0,0,231.44813,87.03076Zm43.27637,6.81006.0039.00049.00733-.00049h2.77783a10.43189,10.43189,0,0,1,0,20.86377H234.44129a10.43189,10.43189,0,0,1,0-20.86377ZM237.60243,62.21289a22.39186,22.39186,0,0,1,6.249-7.25879l12.126-9.13916,12.126,9.13916a22.54236,22.54236,0,0,1,6.249,28.74072l-1.70508,3.146H239.3075l-1.70507-3.146A22.46486,22.46486,0,0,1,237.60243,62.21289Zm46.10913,6.13184a75.1905,75.1905,0,0,1,46.87622,69.24951c0,.64-.01416,1.27923-.03052,1.91827a72.37388,72.37388,0,0,0-4.27612-8.928,70.88471,70.88471,0,0,0-31.6023-29.32245,17.46581,17.46581,0,0,0-14.21509-14.15191l.043-.07935A29.44012,29.44012,0,0,0,283.71156,68.34473Zm52.47973,153.87182a9.90854,9.90854,0,0,1,3.36914,7.79517c-.27734,7.29541-.45214,13.19873-.47851,14.09424a9.82872,9.82872,0,0,1-9.82422,8.87842h-1.69336c.0144-.5896.0332-1.17853.0332-1.77V233.60614c.01221-.06555.03443-.12659.043-.19354l.53809-4.26679Q332.36549,225.83875,336.19129,222.21655Zm32.90528-19.31176A17.47087,17.47087,0,0,1,347.202,210.295a115.2821,115.2821,0,0,0,17.37744-30.01434A17.52185,17.52185,0,0,1,369.09657,202.90479ZM358.46668,64.13623a17.49055,17.49055,0,0,1,6.054,30.83258,116.66576,116.66576,0,0,0-17.405-30.03046A17.35493,17.35493,0,0,1,358.46668,64.13623Zm-50.46191-41.3999a17.48876,17.48876,0,0,1,20.6311,23.72192,116.66341,116.66341,0,0,0-30.0188-17.4013A17.35356,17.35356,0,0,1,308.00477,22.73633ZM255.97743,6.98438a17.51539,17.51539,0,0,1,17.345,15.29138,117.12883,117.12883,0,0,0-34.68994,0A17.51537,17.51537,0,0,1,255.97743,6.98438ZM190.66786,24.48584a17.46809,17.46809,0,0,1,22.67089,4.57068,116.66169,116.66169,0,0,0-30.019,17.4013A17.52271,17.52271,0,0,1,190.66786,24.48584ZM141.11317,85.57275a17.48561,17.48561,0,0,1,23.72607-20.63452A116.663,116.663,0,0,0,147.43495,94.9671,17.371,17.371,0,0,1,141.11317,85.57275Zm12.375,125.48975a17.492,17.492,0,0,1-6.11377-30.78412,115.29135,115.29135,0,0,0,17.37793,30.01605A17.35958,17.35958,0,0,1,153.48817,211.0625Zm-.84033-36.69128a3.48292,3.48292,0,0,0-.24756-.774c-.01074-.02313-.0271-.04157-.03809-.06433a109.61034,109.61034,0,1,1,207.231-.00043c-.01148.02289-.02783.0415-.03858.06476a3.48975,3.48975,0,0,0-.24755.77319,108.407,108.407,0,0,1-19.85718,34.31317,3.49527,3.49527,0,0,0-.50659.56061c-.02686.03742-.04224.079-.06739.11707a110.83273,110.83273,0,0,1-9.40332,9.524l5.55762-44.07269a71.78922,71.78922,0,0,0,.093-17.31854A81.65511,81.65511,0,0,0,281.04188,59.944c-.17529-.3562-.345-.71417-.53516-1.06512a29.32647,29.32647,0,0,0-8.19043-9.51465l-14.23242-10.727a3.49811,3.49811,0,0,0-4.21289,0l-14.23242,10.727a29.33339,29.33339,0,0,0-8.19043,9.51367c-.19043.35132-.36035.70972-.53565,1.06628a82.41257,82.41257,0,0,0-40.09814,28.56458A81.49636,81.49636,0,0,0,176.83167,157.494a71.78973,71.78973,0,0,0,.093,17.31854l5.55786,44.07233a110.87378,110.87378,0,0,1-9.40674-9.52912c-.02417-.03625-.03857-.07592-.0642-.11157a3.49742,3.49742,0,0,0-.50733-.561A108.42019,108.42019,0,0,1,152.64784,174.37122Zm33.32959,113.223a14.75428,14.75428,0,0,1-6.67334-27.911,16.82809,16.82809,0,0,0,3.17334.30109h2.21289a68.85605,68.85605,0,0,0,7.86987,26.04766A14.55217,14.55217,0,0,1,185.97743,287.59424Zm12.61816-5.12872a62.10752,62.10752,0,0,1-7.23828-29.20136v-20.2998a36.7733,36.7733,0,0,1,15.374-29.86182l.49121-.35059a44.58027,44.58027,0,0,1,31.998-7.939l16.29,2.18994a3.47526,3.47526,0,0,0,.93359,0l16.291-2.18994a44.5509,44.5509,0,0,1,31.93262,7.89111c.1123.08447.22753.166.34375.24707l.21191.15137a36.76805,36.76805,0,0,1,15.334,28.54022v21.7124a64.15782,64.15782,0,0,1-7.55859,28.29071A39.16106,39.16106,0,0,0,257.73036,263.751a3.47215,3.47215,0,0,1-3.50586,0,39.164,39.164,0,0,0-55.62891,18.71454Zm105.082,174.81866a47.70019,47.70019,0,1,1-95.40039,0V326.55688a39.17488,39.17488,0,0,0,7,5.09681V457.28418a40.70019,40.70019,0,1,0,81.40039,0V331.65405a39.15153,39.15153,0,0,0,7-5.097Zm-47.65918-85.71924c.07715,0,.15528-.00049.23242-.00049a78.14708,78.14708,0,0,0,33.42676-7.68365v24.85211a182.88449,182.88449,0,0,1-33.66113,19.38574,194.60932,194.60932,0,0,1-33.73926-20.11426V363.87952A78.18583,78.18583,0,0,0,256.01844,371.56494Zm-33.74121-15.53223v-21.253a39.00936,39.00936,0,0,0,31.96289-3.19476,3.43577,3.43577,0,0,1,3.47363,0,39.01294,39.01294,0,0,0,31.96387,3.19495v21.25427a71.1463,71.1463,0,0,1-33.45117,8.53027c-.07031,0-.13965.00049-.21094.00049A71.19543,71.19543,0,0,1,222.27723,356.03271ZM267.77235,427.25a11.79493,11.79493,0,1,1-11.79492-11.79443A11.808,11.808,0,0,1,267.77235,427.25ZM246.327,411.15253a18.79521,18.79521,0,1,0,19.47827.10785,189.96694,189.96694,0,0,0,23.87231-13.95417v59.978a33.70019,33.70019,0,1,1-67.40039,0V396.64056A201.68881,201.68881,0,0,0,246.327,411.15253Zm54.4541-91.5495a32.23735,32.23735,0,0,1-8.88379,6.72076,3.45429,3.45429,0,0,0-.51514.26062,32.27209,32.27209,0,0,1-30.16553-1.06,10.49968,10.49968,0,0,0-10.47949,0,32.2705,32.2705,0,0,1-30.16235,1.06116,3.46035,3.46035,0,0,0-.51831-.262,32.23321,32.23321,0,0,1-8.88379-6.721c-.30615-.32813-.59888-.665-.88965-1.00293l-.001-.0011a32.1461,32.1461,0,0,1,40.44239-48.785,10.53549,10.53549,0,0,0,10.50586-.00049,32.14828,32.14828,0,0,1,39.55078,49.79Zm9.89648,7.47278,6.50488,2.54272a70.82592,70.82592,0,0,1-6.50488,9.2381Zm0,43.78186V349.15222a77.81366,77.81366,0,0,0,13.11279-16.95068l13.41968,5.24579A181.04581,181.04581,0,0,1,310.67762,370.85767ZM453.11219,171.86426a11.03844,11.03844,0,0,1,20.083,5.38086l.39941,4.91333-23.28393-6.239ZM437.535,184.63379a4.71942,4.71942,0,0,1,5.78418-3.34033l33.64258,9.01465a4.7242,4.7242,0,0,1-1.51758,9.27771c-.00683,0-.01367-.0019-.0205-.00184a4.73663,4.73663,0,0,1-.90625-.15136L450.9452,193.1167l-.02246-.006-10.04785-2.6922a4.72284,4.72284,0,0,1-3.33985-5.78467Zm14.82129,73.585c-5.83691,21.78857-13.63208,41.20941-20.65869,51.63074l-8.96045-2.40088c-.8645-12.537,2.10156-33.2508,7.94141-55.038,5.904-22.0285,13.75952-41.549,20.81836-51.8988l8.762,2.34772C461.21668,215.32983,458.26551,236.165,452.35633,258.21875Zm-13.97558-61.25726c.22607.07538.44946.15649.68164.21869l5.3291,1.42785c-7.13379,11.4007-14.75122,30.63654-20.47461,51.99011-5.667,21.144-8.6936,41.503-8.27393,54.94959l-5.24072-1.40418c-.313-.08367-.62671-.144-.94018-.20105-8.65845-14.06195-10.39307-36.22583-4.44361-58.41174C411.01893,223.14,423.71986,204.71063,438.38075,196.96149ZM380.2284,238.89111a63.88911,63.88911,0,0,1,51.77906-46.32129c-14.99878,9.44165-27.677,28.48621-33.75074,51.148-6.07715,22.66193-4.58349,45.54908,3.7251,61.23078A63.03436,63.03436,0,0,1,380.2284,238.89111ZM423.538,371.79053a63.50342,63.50342,0,0,0-21.71338-21.44538l4.60205-22.99286,29.4607,7.89429Zm22.03418-46.08643a4.729,4.729,0,0,1-5.78418,3.34033l-33.64258-9.01464a4.72313,4.72313,0,0,1,2.44434-9.12452l33.64258,9.01416A4.72829,4.72829,0,0,1,445.57215,325.7041Zm-.56543-12.23559c-.31469-.114-.63281-.22254-.96191-.3108l-5.25147-1.4071c7.0962-11.43378,14.6604-30.5766,20.32471-51.72034,5.72656-21.37219,8.74219-41.83935,8.25049-55.26574l5.33643,1.42981c.21362.05712.42944.08331.644.12829,8.85449,14.03852,10.67383,36.34949,4.66748,58.76575C472.079,287.2583,459.51722,305.60614,445.00672,313.46851Zm57.79-41.74a63.03074,63.03074,0,0,1-51.79785,46.33093c15.00928-9.4408,27.71606-28.52283,33.7793-51.15955,6.08178-22.69958,4.58349-45.54431-3.72632-61.22357A63.86391,63.86391,0,0,1,502.79676,271.72852ZM335.72621,480.93835a3.5,3.5,0,1,0-3.5,3.5A3.49991,3.49991,0,0,0,335.72621,480.93835ZM249.67957,178.61768a8.49889,8.49889,0,0,0,12.59473,0l15.34277-16.92432a8.46865,8.46865,0,0,0,0-11.41748l-15.34179-16.92481a8.49889,8.49889,0,0,0-12.59473,0l-15.34277,16.92432a8.46868,8.46868,0,0,0,0,11.41748Zm-10.15625-23.64063,15.34375-16.9248a1.49864,1.49864,0,0,1,2.22168,0l15.34278,16.92529a1.49355,1.49355,0,0,1,0,2.01367v.00049l-15.34375,16.9248a1.49864,1.49864,0,0,1-2.22168,0l-15.34278-16.92529A1.49421,1.49421,0,0,1,239.52332,154.97705Zm35.66895,139.77832a35.18191,35.18191,0,0,1-20.03418,5.80274,34.76323,34.76323,0,0,1-18.39355-5.80176,3.4998,3.4998,0,1,0-3.86915,5.833,41.75517,41.75517,0,0,0,22.09864,6.96679c.32519.00781.64746.01123.96875.01123a42.33666,42.33666,0,0,0,23.09472-6.97656,3.49973,3.49973,0,1,0-3.86523-5.83545ZM301.48719,176.2417a12.25147,12.25147,0,1,0-12.252-12.25147A12.26538,12.26538,0,0,0,301.48719,176.2417Zm0-17.50293a5.25147,5.25147,0,1,1-5.252,5.25146A5.2572,5.2572,0,0,1,301.48719,158.73877ZM246.2909,234.56885l4.71875,3.39892a8.49122,8.49122,0,0,0,9.93457,0l4.72071-3.39941a8.5223,8.5223,0,0,0,3.53125-6.897V204.73682a3.5,3.5,0,1,0-7,0v22.93457a1.50449,1.50449,0,0,1-.62207,1.21679l-4.72071,3.39893a1.49681,1.49681,0,0,1-1.75293,0l-4.71875-3.39844a1.50433,1.50433,0,0,1-.623-1.21728V204.73682a3.5,3.5,0,0,0-7,0v22.93457A8.52215,8.52215,0,0,0,246.2909,234.56885Zm-27.38574,10.68506a23.11255,23.11255,0,0,0,12.60938-3.80909,3.50007,3.50007,0,0,0-3.86719-5.835,15.97093,15.97093,0,0,1-9.1084,2.63965,15.81042,15.81042,0,0,1-8.36328-2.63867,3.49979,3.49979,0,1,0-3.86914,5.833,22.79716,22.79716,0,0,0,12.06738,3.80371C218.55262,245.252,218.72938,245.25391,218.90516,245.25391ZM255.97743,80.53076A10.81836,10.81836,0,1,0,245.15907,69.7124,10.83084,10.83084,0,0,0,255.97743,80.53076Zm0-14.63672a3.81836,3.81836,0,1,1-3.81836,3.81836A3.82267,3.82267,0,0,1,255.97743,65.894Zm24.46191,175.54981a22.79722,22.79722,0,0,0,12.06738,3.80371q.26661.00659.53028.00635a23.11348,23.11348,0,0,0,12.61035-3.80909,3.50007,3.50007,0,0,0-3.86719-5.835,16.08765,16.08765,0,0,1-9.10937,2.63965,15.80662,15.80662,0,0,1-8.36231-2.63867,3.49979,3.49979,0,1,0-3.86914,5.833ZM210.46766,176.2417a12.25147,12.25147,0,1,0-12.25195-12.25147A12.26558,12.26558,0,0,0,210.46766,176.2417Zm0-17.50293a5.25147,5.25147,0,1,1-5.25195,5.25146A5.258,5.258,0,0,1,210.46766,158.73877Z"/></svg>