<svg xmlns="http://www.w3.org/2000/svg" data-name="Layer 1" viewBox="0 0 512 512"><path fill="#fee903" d="M255.99994,24.5A113.11313,113.11313,0,1,0,369.11316,137.6131,113.11309,113.11309,0,0,0,255.99994,24.5Zm0,191.22607a78.113,78.113,0,1,1,78.11328-78.11279A78.20137,78.20137,0,0,1,255.99994,215.72607Z"/><path fill="#fac600" d="M248.99994 59.82965c-2.30792-.206-4.63934-.32965-7-.32965a78.113 78.113 0 1 0 0 156.22607c2.36066 0 4.69208-.12359 7-.32965a78.0962 78.0962 0 0 1 0-155.56677zM255.99994 24.5c-2.35156 0-4.684.08051-7 .22192a113.10768 113.10768 0 0 1 0 225.78241c2.316.14142 4.64844.22193 7 .22193a113.11313 113.11313 0 1 0 0-226.22626z"/><path fill="#aa6a51" d="M154.50062,494.2574h0a16.5,16.5,0,0,0,11.66725-20.20827L90.20451,190.54987c-.91126,2.74087-4.505,12.43137-14.62311,18.13294a31.28273,31.28273,0,0,1-13.629,3.931l72.33992,269.97629A16.5,16.5,0,0,0,154.50062,494.2574Z"/><path fill="#935b44" d="M166.16791,474.04907,90.20453,190.54987a33.83693,33.83693,0,0,1-10.00433,14.912l71.96771,268.58722a16.49292,16.49292,0,0,1-8.94489,19.20056,16.42481,16.42481,0,0,0,11.27759,1.00776h.00006A16.5,16.5,0,0,0,166.16791,474.04907Z"/><rect width="33" height="33" x="74.583" y="241.081" fill="#d9b3a6" transform="rotate(165 91.083 257.58)"/><polygon fill="#d1a08f" points="89.689 240.873 98.23 272.748 111.292 269.248 105.333 247.009 102.751 237.373 89.689 240.873"/><path fill="#3c3b42" d="M120.8752,408.44693c4.49925-12.3551,15.77487-8.249,20.27412-20.604,4.49979-12.35657-6.77582-16.46272-2.276-28.81929,4.49986-12.35676,15.77548-8.25061,20.27534-20.60738,4.4998-12.35658-6.77582-16.46273-2.276-28.81932,4.5-12.3572,15.77563-8.25105,20.27565-20.60824,4.50064-12.3589-6.775-16.465-2.27434-28.82394s15.77626-8.25275,20.2769-20.61165l126-31.10614c4.50063,12.35889-6.775,16.465-2.27434,28.82394s15.77625,8.25274,20.27689,20.61164c4.5,12.35719-6.7756,16.46334-2.27558,28.82054,4.4998,12.35659,15.77542,8.25044,20.27521,20.607,4.49986,12.35677-6.77575,16.46292-2.27589,28.81968,4.49979,12.35657,15.77541,8.25042,20.2752,20.607,4.49925,12.35509-6.77636,16.46124-2.27711,28.81633Z"/><path fill="#2c2c2e" d="M326,294.23535a18.16417,18.16417,0,0,0,12.18646-4.69086,18.4351,18.4351,0,0,1-1.30865-2.84143c-3.58655-9.84875,2.84088-14.45983,3.32287-22.18066A18.25144,18.25144,0,1,0,326,294.23535Z"/><path fill="#2c2c2e" fill-rule="evenodd" d="M375.15228,356.73676a19.28734,19.28734,0,0,0-.8529-1.98932c-.71558-.24311-1.43622-.477-2.16516-.69446l-64.56476-19.259q-.80148-.23907-1.56991-.54022a7.97033,7.97033,0,0,1-2.51043-13.182,67.92055,67.92055,0,0,0,20.62923-48.83794c-.00031-16.684-.00049-19.38051-.00061-25.24775a40.20634,40.20634,0,0,0-16.83455-32.7145l-.49291-.3521a48.27409,48.27409,0,0,0-34.50293-8.561L256,207.55176l-16.28729-2.19324a48.275,48.275,0,0,0-34.499,8.55822l-.49024.35012a40.21819,40.21819,0,0,0-16.84112,32.72583c-.00012,6.594-.0003,9.76018-.00067,27.28856A65.71752,65.71752,0,0,0,207.804,321.51266a7.92132,7.92132,0,0,1-3.10665,13.19975q-.13295.04167-.26678.0816l-62.15521,18.54022a16.16013,16.16013,0,0,0-3.402,5.68933c-4.49982,12.35657,6.77582,16.46277,2.27606,28.81934-4.49926,12.3551-15.7749,8.2489-20.27417,20.604l252-22.89386C368.376,373.19794,379.65155,369.0918,375.15228,356.73676Z"/><path fill="#2c2c2e" d="M375.15228,356.73676c-4.49975-12.35663-15.77539-8.25043-20.27514-20.607-4.49988-12.35681,6.77575-16.46295,2.27588-28.8197-4.49982-12.35657-15.77546-8.25043-20.27521-20.607-4.50006-12.35723,6.77557-16.46337,2.27557-28.82055-4.50067-12.35889-15.77624-8.25275-20.27692-20.61164s6.775-16.46508,2.27436-28.824l-13.13025,3.24152c1.672,9.95037-7.22687,14.371-3.14411,25.58245,4.50068,12.35889,15.77625,8.25275,20.27692,20.61164,4.5,12.35718-6.77563,16.46332-2.27557,28.82055,4.49975,12.35657,15.77539,8.25043,20.27521,20.607,4.49987,12.35675-6.77576,16.46289-2.27588,28.8197,4.49975,12.35657,15.77539,8.25037,20.27514,20.607,4.49927,12.355-6.7763,16.46118-2.2771,28.81628L121.41479,407.126c-.188.42047-.37011.85547-.53961,1.32092l252-22.89386C368.376,373.19794,379.65155,369.0918,375.15228,356.73676Z"/><circle cx="326" cy="268.981" r="18.255" fill="#fee903"/><path fill="#fac600" d="M334.919,253.06183a18.24274,18.24274,0,0,1-24.838,24.838,18.2493,18.2493,0,1,0,24.838-24.838Z"/><path fill="#2c2c2e" d="M176.121,291.31659a18.2489,18.2489,0,1,0-1.798-29.36249c-2.8512,10.99567,7.10077,15.29382,2.82519,27.03455A18.93679,18.93679,0,0,1,176.121,291.31659Z"/><circle cx="186" cy="268.981" r="18.255" fill="#fee903"/><path fill="#fee903" d="M324,234.5H188l-7.5817-60.11207a67.9738,67.9738,0,0,1,40.75536-71.023L256,88.5l34.82634,14.8649a67.9738,67.9738,0,0,1,40.75536,71.023Z"/><path fill="#fac600" d="M228.6768 82.14889a50.43369 50.43369 0 0 1-87.35371 50.43368c-11.6401-20.16125 4.23727-63.12313 9.76519-76.68813a5.91527 5.91527 0 0 1 6.292-3.63272C171.89192 54.2569 217.0367 61.98764 228.6768 82.14889zM290.82635 103.36493L256 88.5l-7 2.98779 27.82635 11.87714a67.97379 67.97379 0 0 1 40.75538 71.023L310 234.5h14l7.58173-60.11206A67.97379 67.97379 0 0 0 290.82635 103.36493z"/><path fill="#8ac9fe" d="M414.98363,502V425.54959a60,60,0,0,0-42.8494-57.49658l-64.56475-19.259a20,20,0,0,1-14.28313-19.16553V310.02624h-74.5727v19.60228a20,20,0,0,1-14.28313,19.16553l-64.56475,19.259a60,60,0,0,0-42.8494,57.49658V502a10,10,0,0,0,10,10H404.98363A10,10,0,0,0,414.98363,502Z"/><path fill="#26a6fe" d="M278.31689 493.18311A22.31689 22.31689 0 1 0 244.00812 512h23.98376A22.294 22.294 0 0 0 278.31689 493.18311zM198.09045 357.68518a80.30894 80.30894 0 0 0 44.10279 23.52423 4.8592 4.8592 0 0 1 3.9577 4.08252 15.77691 15.77691 0 0 1-6.41235 15.17835 5.64092 5.64092 0 0 0 .28155 9.23828l14.65839 9.77227a2.4238 2.4238 0 0 0 2.68915 0l14.65844-9.77227a5.64093 5.64093 0 0 0 .28156-9.23828 15.77635 15.77635 0 0 1-6.41236-15.17847 4.85909 4.85909 0 0 1 3.95765-4.0824 80.25146 80.25146 0 0 0 44.07757-23.51794l-6.36108-1.89746a19.95191 19.95191 0 0 1-9.55268-6.26545 63.38574 63.38574 0 0 1-84.01416-.024 19.951 19.951 0 0 1-9.57208 6.28943z"/><path fill="#fee903" d="M198.09045,350.68518a80.30894,80.30894,0,0,0,44.10279,23.52423,4.8592,4.8592,0,0,1,3.9577,4.08252,15.77691,15.77691,0,0,1-6.41235,15.17835,5.64092,5.64092,0,0,0,.28155,9.23828l14.65839,9.77227a2.4238,2.4238,0,0,0,2.68915,0l14.65844-9.77227a5.64093,5.64093,0,0,0,.28156-9.23828,15.77635,15.77635,0,0,1-6.41236-15.17847,4.85909,4.85909,0,0,1,3.95765-4.0824,80.25146,80.25146,0,0,0,44.07757-23.51794l-6.36108-1.89746a19.95191,19.95191,0,0,1-9.55268-6.26545,63.38574,63.38574,0,0,1-84.01416-.024,19.951,19.951,0,0,1-9.57208,6.28943Z"/><path fill="#fac600" d="M245.8924 377.32941a15.80433 15.80433 0 0 0 .25854-6.03748 4.8592 4.8592 0 0 0-3.9577-4.08252 80.11206 80.11206 0 0 1-38.457-18.20831l-5.64582 1.68408a80.30894 80.30894 0 0 0 44.10279 23.52423A4.83284 4.83284 0 0 1 245.8924 377.32941zM269.853 367.20941a4.85909 4.85909 0 0 0-3.95765 4.0824 15.80169 15.80169 0 0 0 .25855 6.03766 4.83259 4.83259 0 0 1 3.6991-3.12006 80.25146 80.25146 0 0 0 44.07757-23.51794l-5.6449-1.68384A80.04286 80.04286 0 0 1 269.853 367.20941zM272.02612 395.70856l-14.65844 9.77227a2.4238 2.4238 0 0 1-2.68915 0l-14.65839-9.77227a5.68646 5.68646 0 0 1-1.33337-1.24945 5.68832 5.68832 0 0 0 1.33337 8.24945l14.65839 9.77227a2.4238 2.4238 0 0 0 2.68915 0l14.65844-9.77227a5.68832 5.68832 0 0 0 1.33338-8.24945A5.68671 5.68671 0 0 1 272.02612 395.70856z"/><path fill="#26a6fe" d="M317.87634,351.86841a5.94634,5.94634,0,0,0-.75866,2.91272v3.89435l-9.65863-2.88111a19.99573,19.99573,0,0,1-2.19739-.81488l-.09473,1.28705v36.96112a43.97815,43.97815,0,0,1-22.688,38.48126L255.8891,446.42l-26.58936-14.71112A43.9791,43.9791,0,0,1,206.61157,393.227V356.26672l-.16327-1.257a20.0121,20.0121,0,0,1-2.12823.7846l-34.1579,10.189.09766,1.12671v26.11676a80.35385,80.35385,0,0,0,41.44171,70.28967l44.18756,24.44794,44.18762-24.44794a80.15845,80.15845,0,0,0,12.11742-8.23351,2.999,2.999,0,0,1,4.92354,2.29552V512h28V359.99426Z"/><path fill="#fee903" d="M211.70151,456.51653l44.18762,24.44793,44.18756-24.44793a80.3538,80.3538,0,0,0,41.44251-70.28968V360.11009l.31866-1.06079L307.459,348.79442a19.99837,19.99837,0,0,1-2.19738-.81488l-.09473,1.28705V386.227A43.979,43.979,0,0,1,282.479,424.709l-26.58984,14.71112L229.29971,424.709A43.97926,43.97926,0,0,1,206.61154,386.227V349.26677l-.16327-1.257a20.00811,20.00811,0,0,1-2.12823.78461l-34.1579,10.189.09772,1.12671v26.11676A80.35382,80.35382,0,0,0,211.70151,456.51653Z"/><path fill="#fac600" d="M307.45905 348.79437a19.99573 19.99573 0 0 1-2.19739-.81488l-.09473 1.28705v3.0202l22.6709 6.76252-.3186 1.06079v26.11676a80.3539 80.3539 0 0 1-41.44251 70.28967l-37.18762 20.575 7 3.87293 44.18762-24.44794a80.3539 80.3539 0 0 0 41.44251-70.28967V360.11005l.3186-1.06079zM192.61157 386.227a43.97924 43.97924 0 0 0 22.68817 38.48193q16.06785 8.93288 32.13563 17.86576a5.92962 5.92962 0 0 0 8.42924-3.08968l.02449-.06493-26.58968-14.71132A43.97884 43.97884 0 0 1 206.61157 386.227V349.26672l-.16327-1.257a20.0121 20.0121 0 0 1-2.12823.7846l-11.7085 3.49256z"/><path fill="#26a6fe" d="M342.63628 244.34186v-.00012s.18014-6.27571.48-14.18463a13.38662 13.38662 0 0 0-13.37237-13.8954H317.11766v40.23822h12.1938a13.3808 13.3808 0 0 0 13.32481-12.15807zM194.88243 216.26172H182.06971a13.13253 13.13253 0 0 0-13.11929 13.63234c.30587 8.03237.49 14.44768.49 14.44768v.00012l.01116.12154a13.1702 13.1702 0 0 0 13.08256 12.03654h12.3483z"/><path fill="#26a6fe" fill-rule="evenodd" d="M218.71362,310.02625V325.033a66.35466,66.35466,0,0,0,42.5835,15.32391h1.70355a67.79818,67.79818,0,0,0,30.59461-7.26227,20.0058,20.0058,0,0,1-.3089-3.46612V310.02625Z"/><path fill="#8ac9fe" fill-rule="evenodd" d="M256.00069,326.35688h-1.70358a66.14747,66.14747,0,0,1-66.41549-66.0756c.00039-17.53191.00059-20.69581.0007-27.29249a40.21034,40.21034,0,0,1,16.83557-32.71794l.49285-.352a48.27532,48.27532,0,0,1,34.50194-8.56027L256,193.55175l16.28734-2.19321a48.27425,48.27425,0,0,1,34.50159,8.56l.49291.35208a40.20929,40.20929,0,0,1,16.83587,32.71713c.0001,5.86606.00029,8.56361.00065,25.2461A68.121,68.121,0,0,1,256.00069,326.35688Z"/><path fill="#26a6fe" fill-rule="evenodd" d="M324.11774,232.98773a40.20924,40.20924,0,0,0-16.83588-32.7171l-.49292-.35211a48.2512,48.2512,0,0,0-13.72742-6.8053l.22034.15741a40.20924,40.20924,0,0,1,16.83588,32.7171c.00012,5.86609.0003,8.56366.00061,25.2461a68.121,68.121,0,0,1-68.11768,68.123h-1.70355a66.8382,66.8382,0,0,1-22.62787-3.91882,66.40926,66.40926,0,0,0,36.62787,10.91882h1.70355a68.121,68.121,0,0,0,68.11768-68.123C324.118,241.55139,324.11786,238.85382,324.11774,232.98773Z"/><path fill="#26a6fe" fill-rule="evenodd" d="M187.88232,246.98877a40.21035,40.21035,0,0,1,16.83558-32.718l.49285-.352a48.27552,48.27552,0,0,1,34.502-8.5603L256,207.55176l16.28735-2.19324a48.27438,48.27438,0,0,1,34.50159,8.56l.49292.35211a40.20924,40.20924,0,0,1,16.83588,32.7171c.00006,3.616.00018,6.03229.0003,11.25818l.00031-.01208c-.00031-16.68244-.00049-19.38-.00061-25.2461a40.20924,40.20924,0,0,0-16.83588-32.7171l-.49292-.35211a48.27438,48.27438,0,0,0-34.50159-8.56L256,193.55176l-16.28729-2.19324a48.27552,48.27552,0,0,0-34.502,8.5603l-.49285.352a40.21035,40.21035,0,0,0-16.83558,32.718c-.00012,6.59668-.0003,9.76062-.00067,27.29248l.00031.01282C187.88214,254.08862,187.88226,251.2536,187.88232,246.98877Z"/><rect width="78.167" height="20.291" x="216.916" y="95.479" fill="#fee903" rx="10.145"/><path fill="#fac600" d="M216.91638,105.62445a10.14538,10.14538,0,0,0,10.14539,10.14539h7.6662a50.30246,50.30246,0,0,0-.71558-20.29078h-6.95062A10.14538,10.14538,0,0,0,216.91638,105.62445Z"/><path fill="#fac600" d="M284.60182 95.47906h-4.02131a10.10667 10.10667 0 0 1 .35363 4.88195 10.40194 10.40194 0 0 1-10.35195 8.40883h-53.1627a10.14548 10.14548 0 0 0 9.64228 7h57.87646a10.14545 10.14545 0 0 0 10.14365-10.33541A10.36629 10.36629 0 0 0 284.60182 95.47906zM212.80566 33.0481a48.85874 48.85874 0 0 0-7.53161 45.23626 77.86065 77.86065 0 0 1 89.4574-8.46264A48.88924 48.88924 0 0 0 279.721 26.99939a113.54826 113.54826 0 0 0-66.91535 6.04871z"/><path fill="#fee903" d="M280.6205,95.47906h-49.241A17.884,17.884,0,0,1,215.65644,86.117h0a48.97153,48.97153,0,0,1,0-46.67137h0a48.97126,48.97126,0,0,1,13.578-15.77161L256,3.5l26.76552,20.174a48.97126,48.97126,0,0,1,13.578,15.77161h0a48.97153,48.97153,0,0,1,0,46.67137h0A17.884,17.884,0,0,1,280.6205,95.47906Z"/><path fill="#fac600" d="M234.01239,95.47906a50.418,50.418,0,0,0-5.33557-13.3302c-3.63623-6.29809-10.54212-11.383-18.76221-15.45916a48.91234,48.91234,0,0,0,5.74182,19.4273,17.88413,17.88413,0,0,0,15.72309,9.36206Z"/><path fill="#fac600" d="M296.34357,39.44562A48.97074,48.97074,0,0,0,282.7655,23.674L256,3.5l-2.35645,1.77612L268.7655,16.674a48.97074,48.97074,0,0,1,13.57807,15.77161q.45363.83694.87248,1.68678c12.35452,25.06171-6.59,54.34666-34.5314,54.34666H217.37952c-.062,0-.12311-.00567-.185-.00628a17.87867,17.87867,0,0,0,14.185,7.00628h49.241a17.75144,17.75144,0,0,0,15.58259-9.10467A48.97158,48.97158,0,0,0,296.34357,39.44562Z"/><circle cx="256" cy="156.815" r="12.474" fill="#fd4755"/><path fill="#fb2b3a" d="M260.59094,145.22351a12.4577,12.4577,0,0,1-16.18188,16.18207,12.46972,12.46972,0,1,0,16.18188-16.18207Z"/><circle cx="256" cy="489.683" r="18.817" fill="#fee903"/><path fill="#fac600" d="M256.65887,470.89941A18.80631,18.80631,0,0,1,242,501.5c-.22241,0-.43829-.02563-.65887-.03326a18.80743,18.80743,0,1,0,15.31774-30.56733Z"/><circle cx="305" cy="163.815" r="8.16" fill="#09a76d"/><path fill="#02905d" d="M305.94067,155.71265a8.15172,8.15172,0,0,1-6.86462,12.56128,8.22311,8.22311,0,0,1-.94074-.05835,8.15677,8.15677,0,1,0,7.80536-12.50293Z"/><circle cx="207" cy="163.815" r="8.16" fill="#09a76d"/><path fill="#02905d" d="M207.94068,155.71265a8.15174,8.15174,0,0,1-6.86463,12.56128,8.22279,8.22279,0,0,1-.94073-.05835,8.15677,8.15677,0,1,0,7.80536-12.50293Z"/><path fill="#0182fc" d="M293.05957 245.26953c-.17578 0-.35205-.00195-.53027-.00635a22.79723 22.79723 0 0 1-12.06739-3.80371 3.49979 3.49979 0 0 1 3.86914-5.833 15.81 15.81 0 0 0 8.3628 2.63868 16.0832 16.0832 0 0 0 9.1084-2.63965 3.50007 3.50007 0 0 1 3.86718 5.835A23.11 23.11 0 0 1 293.05957 245.26953zM218.92676 245.26953c-.17578 0-.352-.00195-.53028-.00635a22.79259 22.79259 0 0 1-12.06738-3.80371 3.50007 3.50007 0 0 1 3.87012-5.833 15.7972 15.7972 0 0 0 8.36182 2.63868 16.059 16.059 0 0 0 9.10888-2.63965 3.50007 3.50007 0 1 1 3.86719 5.835A23.11052 23.11052 0 0 1 218.92676 245.26953zM255.99072 299.95508c-.21582 0-.43261-.00244-.65185-.00781A28.06994 28.06994 0 0 1 240.479 295.2627a3.50007 3.50007 0 0 1 3.87012-5.833 21.0781 21.0781 0 0 0 11.15479 3.51953 21.3701 21.3701 0 0 0 12.14843-3.52051 3.50007 3.50007 0 1 1 3.86719 5.835A28.457 28.457 0 0 1 255.99072 299.95508z"/><path fill="#fd4755" d="M256,242a12.51408,12.51408,0,0,1-12.5-12.5v-22a3.5,3.5,0,0,1,7,0v22a5.5,5.5,0,0,0,11,0v-22a3.5,3.5,0,0,1,7,0v22A12.51408,12.51408,0,0,1,256,242Z"/><path fill="#22b37f" d="M221.6768,75.14889a50.43369,50.43369,0,0,1-87.35371,50.43368c-11.6401-20.16125,4.23727-63.12313,9.76519-76.68813a5.91527,5.91527,0,0,1,6.292-3.63272C164.89192,47.2569,210.0367,54.98764,221.6768,75.14889Z"/><path fill="#02905d" d="M221.67682,75.14886c-11.64014-20.16125-56.78491-27.892-71.29651-29.88714a5.90017,5.90017,0,0,0-4.74573,1.4624c19.07605,3.38214,52.29682,11.54523,62.04224,28.42474a50.43346,50.43346,0,0,1-36.6341,75.15625,50.41919,50.41919,0,0,0,50.6341-75.15625Z"/><path fill="#fe7d43" d="M215.445,98.40624a33.40812,33.40812,0,0,1-57.86456,33.40812c-7.14633-12.37779,1.36508-37.72939,5.56437-48.52742a6.90665,6.90665,0,0,1,7.492-4.32552C182.08786,80.72375,208.29869,86.02845,215.445,98.40624Z"/><path fill="#fd6930" d="M215.445,98.40625c-7.1463-12.37781-33.35718-17.6825-44.80817-19.44482a6.89915,6.89915,0,0,0-5.49322,1.54083c12.7926,2.66577,30.60363,8.03515,36.30139,17.904A33.41452,33.41452,0,0,1,179.52277,147.777,33.406,33.406,0,0,0,215.445,98.40625Z"/><path fill="#0473ce" d="M209.92518,119.00653a18.32766,18.32766,0,1,1-31.74444,18.32766c-3.38256-5.85875-.37074-17.01581,1.99905-23.77185a7.22518,7.22518,0,0,1,8.15883-4.71051C195.37442,110.17756,206.54262,113.14777,209.92518,119.00653Z"/><path fill="#0067c5" d="M209.92517,119.00653c-3.38257-5.85876-14.55078-8.829-21.58655-10.15472a7.21556,7.21556,0,0,0-5.46069,1.166c6.42456,1.65,13.71368,4.44983,16.33423,8.98871a18.279,18.279,0,0,1-10.50379,26.67481,18.30937,18.30937,0,0,0,21.2168-26.67481Z"/><path fill="#fd4755" d="M275.04674,52.84762,259.70448,69.77244a5,5,0,0,1-7.409,0L236.95326,52.84762a5,5,0,0,1,0-6.71619l15.34226-16.92481a5,5,0,0,1,7.409,0l15.34226,16.92481A5,5,0,0,1,275.04674,52.84762Z"/><path fill="#fb2b3a" d="M275.04675,46.1314,259.70448,29.20661a5,5,0,0,0-7.40895,0L249,32.842l0,0A24.787,24.787,0,0,1,249,66.137h0l3.29553,3.6355a5,5,0,0,0,7.40893,0L275.04675,52.8476A5,5,0,0,0,275.04675,46.1314Z"/><path fill="#fee903" d="M414.98363,502V418.54956A60,60,0,0,0,372.13428,361.053l-40.30156-12.02153a6,6,0,0,0-7.71506,5.74965V512h80.866A10,10,0,0,0,414.98363,502Z"/><path fill="#fac600" d="M372.13428,361.053,331.8327,349.03149a5.99994,5.99994,0,0,0-7.715,5.74964v3.12512l34.0166,10.14673a60.00011,60.00011,0,0,1,42.84936,57.49658V509a9.99115,9.99115,0,0,1-.45923,3h4.45923a10,10,0,0,0,10-10V418.54956A60.00011,60.00011,0,0,0,372.13428,361.053Z"/><path fill="#fe9738" d="M352.11768,508.5V355.08228h0l-20.285-6.05079a5.99994,5.99994,0,0,0-7.715,5.74964V512h28Z"/><path fill="#fe860a" d="M352.11768,355.08228l-20.285-6.05079a5.99994,5.99994,0,0,0-7.715,5.74964v3.12512l28,8.35205Z"/><path fill="#fd4755" d="M31.07163 281.47963l-.76731-12.723a3 3 0 0 0-4.33543-2.50306l-11.40211 5.697a4 4 0 0 0-.21216 7.04232l10.72426 6.19166A4 4 0 0 0 31.07163 281.47963zM54.21925 317.41649l-.7673-12.723a3 3 0 0 0-4.33544-2.50306l-11.40211 5.697a4 4 0 0 0-.21216 7.04232l10.72427 6.19165A4 4 0 0 0 54.21925 317.41649z"/><path d="M379.525,359.99786a21.1351,21.1351,0,0,0-1.10864-4.47052c-2.71435-7.45507-7.75293-10.0913-11.80176-12.209-3.7334-1.95361-6.68261-3.49609-8.46875-8.40137-1.78564-4.90576-.51953-7.98388,1.0835-11.88135,1.73779-4.22558,3.90088-9.48437,1.18652-16.93847-2.71386-7.45508-7.75244-10.09082-11.80127-12.209-3.7334-1.95312-6.68261-3.49609-8.47558-8.42041l-.00214-.00653a21.70989,21.70989,0,0,0,1.84192-31.20715,16.8728,16.8728,0,0,0,4.1236-9.60614c.00732-.07813.0122-.15625.01416-.23438,0-.00927.04-1.56445.12939-4.09961.07959-2.55419.19971-6.08593.34912-10.04a16.97794,16.97794,0,0,0-5.40564-13.01587,116.7064,116.7064,0,0,0,8.08-149.63452,117.534,117.534,0,0,0-58.1767-41.23047,52.844,52.844,0,0,0-6.23932-5.53418L258.08338.689a3.49956,3.49956,0,0,0-4.21191,0L227.101,20.85889a52.248,52.248,0,0,0-6.21454,5.51886,115.41115,115.41115,0,0,0-39.50708,21.606,238.478,238.478,0,0,0-30.545-6.20495,9.417,9.417,0,0,0-10.00977,5.7793c-6.91748,16.97558-21.69677,58.729-9.55517,79.75878a53.78612,53.78612,0,0,0,8.10376,10.66846A115.539,115.539,0,0,0,170.7223,217.2135a16.70109,16.70109,0,0,0-5.29224,12.79578c.30469,7.90674.48584,14.31543.48731,14.31494a3.88945,3.88945,0,0,0,.022.4043l.00293.0332a16.7806,16.7806,0,0,0,4.02588,9.49914,21.72431,21.72431,0,0,0,4.06933,32.87873c-.068.21374-.11926.418-.19873.63775-1.78564,4.9043-4.73681,6.44727-8.47314,8.40039-4.05078,2.11817-9.09229,4.75391-11.80664,12.2085-2.71436,7.4502-.54883,12.70947,1.19141,16.936,1.606,3.89941,2.874,6.979,1.08837,11.88378-1.78564,4.9004-4.73681,6.44336-8.47314,8.39649-3.20551,1.67615-7.02716,3.68671-9.82983,8.14172l-22.88166-85.39062c-.00232-.00885-.002-.01764-.00433-.02649l-8.541-31.87549c-.0028-.01044-.00836-.01929-.01123-.02972L93.55848,189.62842a3.50013,3.50013,0,0,0-6.70264-.19727c-1.0874,3.27393-4.53271,11.40576-13.01757,16.18506a27.4678,27.4678,0,0,1-12.102,3.4834A3.50014,3.50014,0,0,0,58.54676,213.5l7.8974,29.47675a76.82844,76.82844,0,0,0-38.4303,18.31567l-15.0335,7.51178a7.49955,7.49955,0,0,0-.39844,13.2041L23.306,288.19971a7.49994,7.49994,0,0,0,11.23682-6.94678l-.93726-15.53577a69.69641,69.69641,0,0,1,29.91345-15.03552,96.51931,96.51931,0,0,0-13.824,47.28009l-13.56775,6.779a7.50037,7.50037,0,0,0-.39746,13.20459l10.72461,6.1919a7.49976,7.49976,0,0,0,11.23584-6.94684l-1.03894-17.22919a89.718,89.718,0,0,1,12.8363-45.62457l35.97681,134.28271a63.399,63.399,0,0,0-11.967,36.91486v82.9502a3.5,3.5,0,0,0,7,0v-82.9502a56.8617,56.8617,0,0,1,40.35058-54.146l25.88916-7.72332v22.5495a83.87535,83.87535,0,0,0,43.2461,73.35253l28.77539,15.91852a22.31822,22.31822,0,1,0,34.36737-.08142l28.62774-15.83807a83.33726,83.33726,0,0,0,18.84131-14.25537v63.17383a3.5,3.5,0,0,0,7,0V354.76562a2.50011,2.50011,0,0,1,3.21436-2.396l17.78564,5.30542V508.48438a3.5,3.5,0,0,0,7,0V359.76318l15.51612,4.62842a56.8505,56.8505,0,0,1,40.3496,54.14258v89.9502a3.5,3.5,0,0,0,7,0v-89.9502A63.94881,63.94881,0,0,0,379.525,359.99786ZM27.31922,282.13037a.45786.45786,0,0,1-.51269.00733l-10.7251-6.1919a.45712.45712,0,0,1-.249-.44726.46379.46379,0,0,1,.27636-.43262l10.72461-5.3584.72217,11.96728A.46394.46394,0,0,1,27.31922,282.13037Zm23.148,35.93652a.46692.46692,0,0,1-.51318.00782l-10.72412-6.1919a.49993.49993,0,0,1,.02636-.88037l10.7251-5.3584.72168,11.96729v.00049A.45774.45774,0,0,1,50.46717,318.06689ZM66.35829,215.60742a34.01986,34.01986,0,0,0,10.917-3.89355,34.43493,34.43493,0,0,0,11.94433-11.2334l9.21869,34.40277-25.11279,6.729Zm8.78076,32.76612,25.11108-6.72876,6.72955,25.1137L81.86854,273.4873Zm35.78967,133.5913L83.67719,280.24963l25.11438-6.72937L133.69874,366.47A63.39205,63.39205,0,0,0,110.92872,381.96484Zm215.04871-98.24023a14.79415,14.79415,0,0,1-2.94165-.30133,71.49249,71.49249,0,0,0,4.5169-23.4389h1.7348a16.91858,16.91858,0,0,0,7.01246-1.52295,14.73389,14.73389,0,0,1-10.32251,25.26318Zm-87.9209,121.88232,14.65967,9.76953a5.89644,5.89644,0,0,0,3.27734.99366,5.986,5.986,0,0,0,3.29492-.99317l14.66016-9.7705a9.24048,9.24048,0,0,0,4.105-7.53711,8.97911,8.97911,0,0,0-3.72705-7.45948,12.30383,12.30383,0,0,1-5.12891-9.97558,11.91813,11.91813,0,0,1,.14111-1.84131,1.35393,1.35393,0,0,1,1.08936-1.15039,83.72393,83.72393,0,0,0,31.21924-12.32593v20.89771a40.49943,40.49943,0,0,1-20.88428,35.41748L255.86756,435.4043l-24.895-13.772a40.49971,40.49971,0,0,1-20.88525-35.418v-21.055a83.77947,83.77947,0,0,0,31.48047,12.48322,1.36557,1.36557,0,0,1,1.10156,1.17138,11.84671,11.84671,0,0,1,.13818,1.82032,12.304,12.304,0,0,1-5.12744,9.97461,8.98262,8.98262,0,0,0-3.73193,7.47119A9.22623,9.22623,0,0,0,238.05653,405.60693Zm31.16894-34.86035a8.33748,8.33748,0,0,0-6.80615,6.98828,18.878,18.878,0,0,0-.22168,2.89942,19.32,19.32,0,0,0,8.05225,15.666,1.94426,1.94426,0,0,1,.80468,1.65186,2.22583,2.22583,0,0,1-.98828,1.82959l-14.06347,9.373L241.935,399.7793a2.21387,2.21387,0,0,1-.98829-1.82129,1.9495,1.9495,0,0,1,.81055-1.65869,19.32164,19.32164,0,0,0,8.05029-15.665,18.80739,18.80739,0,0,0-.21875-2.87842,8.34584,8.34584,0,0,0-6.82031-7.00928,76.78332,76.78332,0,0,1-32.68115-14.13031v-6.4815a23.41683,23.41683,0,0,0,4.09424-2.90711,66.86369,66.86369,0,0,0,83.61322.02014,23.42454,23.42454,0,0,0,3.8526,2.7685v6.78112A76.80244,76.80244,0,0,1,269.22547,370.74658Zm-13.22509-15.82715a59.82415,59.82415,0,0,1-37.30848-13.05084,23.40235,23.40235,0,0,0,3.49549-12.25433V322.133a70.025,70.025,0,0,0,32.08691,7.70831h1.70361a71.25031,71.25031,0,0,0,33.78956-8.43652v8.20947a23.40674,23.40674,0,0,0,3.50976,12.27954A59.82354,59.82354,0,0,1,256.00038,354.91943ZM291.35322,312.309c-.02087.01373-.04248.02582-.06305.04a64.15858,64.15858,0,0,1-35.31226,10.49237H254.2743A62.83022,62.83022,0,0,1,196.27052,284.618c-.01715-.04651-.02338-.0943-.04261-.1405-.03088-.0741-.07666-.13641-.11193-.20722a62.38407,62.38407,0,0,1-4.75672-24.0047l.00049-27.29248A36.77785,36.77785,0,0,1,206.72889,203.104l.49365-.35254a44.59406,44.59406,0,0,1,25.97754-8.34472,45.07771,45.07771,0,0,1,6.02295.40478l16.28711,2.19336a3.48171,3.48171,0,0,0,.93457,0l16.28711-2.19336a44.61347,44.61347,0,0,1,32.00049,7.93946l.49267.352a36.77876,36.77876,0,0,1,15.37012,29.86914l.00049,25.24609a64.45376,64.45376,0,0,1-5.36963,25.83429c-.007.01465-.01758.02637-.02441.0412-.00959.02063-.01276.04236-.02185.063A64.94726,64.94726,0,0,1,291.35322,312.309Zm17.94012-114.90222-.49267-.35205a51.60032,51.60032,0,0,0-37.00293-9.18067l-15.82031,2.13037L240.15711,187.874a51.60084,51.60084,0,0,0-37.00244,9.18067l-.49365.35254a43.69061,43.69061,0,0,0-13.78229,16.26971L183.87,173.93652a64.275,64.275,0,0,1,.61518-20.05279,53.6302,53.6302,0,0,0,20.459-6.82562q.81794-.47223,1.60517-.98188a53.68422,53.68422,0,0,0,21.89111-26.82184h56.47687a13.51286,13.51286,0,0,0,9.65136-4.00195,13.69133,13.69133,0,0,0,2.98737-4.5097A64.64169,64.64169,0,0,1,328.08485,173.937l-5.00873,39.73987A43.692,43.692,0,0,0,309.29334,197.40674ZM184.49555,229.7243c-.08081,1.0777-.1358,2.15967-.1358,3.24884l-.00037,20.01124h-1.85217a9.63581,9.63581,0,0,1-9.58935-8.80713l-.00489-.06495c-.02588-.89794-.20361-6.98584-.48779-14.37011a9.66264,9.66264,0,0,1,3.25391-7.56092Q179.86661,226.139,184.49555,229.7243Zm-9.36871-90.65594a21.90751,21.90751,0,0,0,3.94659,4.994c-.10784-.02765-.2163-.04962-.324-.07849a29.71146,29.71146,0,0,1-18.16016-13.93506c-4.4541-7.71436-2.2876-24.72705,5.79541-45.50879a3.38667,3.38667,0,0,1,3.16651-2.17578,3.442,3.442,0,0,1,.53076.041c22.03955,3.39161,37.856,10.02149,42.30908,17.73535a29.71258,29.71258,0,0,1,2.98828,22.69483c-.02881.10748-.064.21216-.09393.31915a21.90859,21.90859,0,0,0-2.35138-5.91388h-.00049c-3.1499-5.456-11.21484-9.44043-23.96924-11.84375a10.668,10.668,0,0,0-12.10986,6.9917C172.55848,124.63623,171.97743,133.61279,175.12684,139.06836Zm8.333-24.36279a3.70289,3.70289,0,0,1,3.50244-2.4961,3.82423,3.82423,0,0,1,.70557.06641c10.05859,1.895,17.2373,5.05957,19.2041,8.46484h-.00049a14.8276,14.8276,0,1,1-25.68213,14.82764C179.223,132.16309,180.07215,124.36377,183.45985,114.70557Zm47.074-2.45118a54.16736,54.16736,0,0,0,1.33722-13.29h53.04633a6.64674,6.64674,0,0,1,4.688,11.35205,6.56157,6.56157,0,0,1-4.688,1.938ZM293.23176,94.816a21.3606,21.3606,0,0,0,6.16363-7.04547,52.53583,52.53583,0,0,0,3.52186-8.12067,74.75748,74.75748,0,0,1,27.67,57.9444c0,.67236-.014,1.34387-.032,2.01507A71.47593,71.47593,0,0,0,298.304,103.10858,13.65051,13.65051,0,0,0,293.23176,94.816ZM336.229,222.22443a9.93465,9.93465,0,0,1,3.371,7.78778c-.15039,3.96875-.2705,7.51709-.35058,10.06933-.0752,2.145-.11572,3.60205-.12744,4.02588a9.85475,9.85475,0,0,1-4.198,7.11688l-.01337.00916a9.85843,9.85843,0,0,1-5.62311,1.75092h-1.692l-.00037-20.01221c0-1.08887-.055-2.17053-.13574-3.24793Q332.05329,226.15726,336.229,222.22443Zm7.44379-150.39679a109.67171,109.67171,0,0,1-10.04389,143.16223,3.468,3.468,0,0,0-.44763.43695q-1.81238,1.78895-3.71216,3.50745l2.90015-23.0102a3.48873,3.48873,0,0,0,4.44757-1.08862c1.59863-2.2544,3.12061-4.603,4.52344-6.98a3.4999,3.4999,0,0,0-6.02832-3.55762c-.59467,1.00745-1.2182,2.00665-1.8551,2.99744l1.57336-12.48328a71.08183,71.08183,0,0,0,.0622-17.21033A81.51526,81.51526,0,0,0,304.85487,72.2818a52.25457,52.25457,0,0,0-5.45948-34.51325c-.19683-.36364-.41235-.71325-.61688-1.07116A110.72526,110.72526,0,0,1,343.67274,71.82764Zm-124.95606-30.729a45.54425,45.54425,0,0,1,12.59668-14.64892l24.66407-18.583,24.66064,18.58057a45.543,45.543,0,0,1,18.09912,36.31689,45.68491,45.68491,0,0,1-5.49756,21.67334,14.387,14.387,0,0,1-12.64209,7.52686h-49.3573a53.615,53.615,0,0,0-6.55481-18.58106,37.57561,37.57561,0,0,0-11.42889-11.69574A45.478,45.478,0,0,1,218.71668,41.09863Zm-5.50763-4.45776c-.21514.37518-.44232.74438-.64764,1.12427a52.46833,52.46833,0,0,0-6.06549,19.83111A111.80139,111.80139,0,0,0,189.488,50.45782,108.26207,108.26207,0,0,1,213.20905,36.64087Zm-75.87713,87.176c-4.4751-7.751-4.87793-21.00683-1.16455-38.334A221.68,221.68,0,0,1,147.307,50.19971a2.42222,2.42222,0,0,1,2.24218-1.50879,2.46256,2.46256,0,0,1,.332.02246A221.65126,221.65126,0,0,1,186.00672,56.708c16.8628,5.44775,28.14112,12.42431,32.61621,20.17529a46.78325,46.78325,0,0,1,4.68933,35.5191,36.76162,36.76162,0,0,0-4.85876-15.76178c-7.64893-13.24853-32.92236-18.94042-47.30713-21.15429a10.34543,10.34543,0,0,0-11.28564,6.5166c-5.27588,13.56348-12.9834,38.29639-5.334,51.5459a36.7624,36.7624,0,0,0,11.21942,12.08795A46.783,46.783,0,0,1,137.33192,123.81689Zm9.2268,20.33588a54.25945,54.25945,0,0,0,30.76349,10.09607,71.2889,71.2889,0,0,0-.39752,20.56317l1.8216,14.45227a3.48608,3.48608,0,0,0-3.73517,5.391c1.59375,2.25782,3.30273,4.47559,5.0791,6.59131.05731.06824.12775.11707.189.17981l2.20673,17.508q-2.03421-1.8316-3.96124-3.75061c-.07221-.07056-.1388-.14753-.21619-.21106A108.44047,108.44047,0,0,1,146.55872,144.15277Zm24.66871,124.81159a14.77464,14.77464,0,0,1,4.39935-10.47657,16.583,16.583,0,0,0,6.88043,1.49659h1.85205v.28124a69.55431,69.55431,0,0,0,3.97229,23.25562,14.66892,14.66892,0,0,1-17.10412-14.55688Zm-2.39978,86.77185-27.53,8.21276a13.7025,13.7025,0,0,1,.83844-3.74633c1.78564-4.90039,4.73681-6.44336,8.47314-8.39649,4.05078-2.11816,9.09229-4.7539,11.80664-12.20459,2.71485-7.45556.54834-12.71728-1.19287-16.94482-1.60449-3.897-2.87207-6.9751-1.08691-11.875,1.78564-4.9043,4.73681-6.44727,8.47314-8.40039,4.05078-2.11817,9.09229-4.75391,11.80908-12.21485.0185-.05108.03266-.09985.05072-.15069a21.39864,21.39864,0,0,0,10.58216.08728,69.48236,69.48236,0,0,0,13.73236,19.36468,70.25678,70.25678,0,0,0,10.40381,8.54535v11.60114a16.59384,16.59384,0,0,1-9.73566,15.03119,3.46459,3.46459,0,0,0-.83661.36053c-.39538.15235-.79736.29242-1.208.41443L169.4502,355.55048A3.45832,3.45832,0,0,0,168.82765,355.73621Zm87.14978,149.24817a15.3169,15.3169,0,1,1,15.31689-15.3169A15.33421,15.33421,0,0,1,255.97743,504.98438Zm64.61767-70.13032a76.172,76.172,0,0,1-22.23193,18.58783l-30.90369,17.09736a22.27192,22.27192,0,0,0-23.06915.062l-31.0174-17.15888a76.87312,76.87312,0,0,1-39.63574-67.228V361.57654l29.3501-8.7558v33.39362a47.50255,47.50255,0,0,0,24.4956,41.54248l26.59034,14.71a3.49963,3.49963,0,0,0,3.38867,0l26.59082-14.71045a47.50225,47.50225,0,0,0,24.49463-41.542V352.75555l11.94775,3.56836Zm12.21533-89.19244a9.418,9.418,0,0,0-8.39209,1.48682,9.54545,9.54545,0,0,0-2.23175,2.34552l-13.64227-4.07453a16.58053,16.58053,0,0,1-11.77685-15.80517V317.08813a71.81433,71.81433,0,0,0,23.43481-27.13787,21.76973,21.76973,0,0,0,13.87372-.79633c2.80127,6.49072,7.485,8.94415,11.294,10.93689,3.7334,1.95313,6.68262,3.49609,8.46875,8.40088,1.78565,4.90576.51954,7.98389-1.08349,11.88135-1.73779,4.22558-3.90088,9.48437-1.18653,16.93847,2.71387,7.45508,7.75245,10.09131,11.80127,12.209,3.54725,1.8562,6.38446,3.34735,8.19123,7.70044ZM199.02332,504.82178c-17.99267-1.75489-33.11132-11.9834-39.45605-26.69385-5.563-12.90039-2.74854-25.82813.5918-34.40186a3.5,3.5,0,0,0-6.52246-2.541A59.27352,59.27352,0,0,0,149.419,462.792c-.001.03357-.00995.06482-.00995.09863v45.59376a3.5,3.5,0,0,0,7,0V487.1297c8.5346,13.666,24.01129,22.911,41.93457,24.65887q.17358.01685.34424.01709a3.50023,3.50023,0,0,0,.33544-6.98388Zm-1.61853-22.63422a3.5,3.5,0,1,0-3.5,3.5A3.5,3.5,0,0,0,197.40479,482.18756Zm-82.427-116.04431a5,5,0,1,0,3.53552-6.12372A5,5,0,0,0,114.97779,366.14325Zm-8.45807-70.203a5,5,0,1,0-3.53552,6.12371A5,5,0,0,0,106.51972,295.94025Zm149.45771,99.15564a3.5,3.5,0,1,0,3.5,3.5A3.5,3.5,0,0,0,255.97743,395.09589ZM105.91914,332.33582a5,5,0,1,0,3.53552-6.12372A5,5,0,0,0,105.91914,332.33582Zm200.71161-95.74207a3.50064,3.50064,0,0,0-4.85108-.98389,16.08312,16.08312,0,0,1-9.1084,2.63965,15.81008,15.81008,0,0,1-8.36279-2.63867,3.49979,3.49979,0,0,0-3.86914,5.833,22.79722,22.79722,0,0,0,12.06738,3.80371c.17823.00439.3545.00635.53028.00635a23.11,23.11,0,0,0,12.60986-3.80909A3.5,3.5,0,0,0,306.63075,236.59375ZM337.80164,95.40137a3.49984,3.49984,0,1,0,6.21875-3.21289c-1.26757-2.45362-2.65673-4.88526-4.12939-7.228a3.5,3.5,0,0,0-5.92676,3.72461C335.33289,90.8623,336.62391,93.12207,337.80164,95.40137ZM323.36952,74.90479a3.50015,3.50015,0,0,0,5.124-4.76954c-1.88428-2.02392-3.87549-3.9917-5.918-5.84863a3.50017,3.50017,0,1,0-4.708,5.18067C319.76649,71.19287,321.61756,73.02246,323.36952,74.90479Zm-18.39209,77.23388a11.66016,11.66016,0,1,0,11.66015,11.66016A11.67367,11.67367,0,0,0,304.97743,152.13867Zm0,16.32031a4.66016,4.66016,0,1,1,4.66015-4.66015A4.66517,4.66517,0,0,1,304.97743,168.459Zm-49-27.63427A15.97437,15.97437,0,1,0,271.952,156.79883,15.99238,15.99238,0,0,0,255.97743,140.82471Zm0,24.94873a8.97437,8.97437,0,1,1,8.97461-8.97461A8.98463,8.98463,0,0,1,255.97743,165.77344Zm88.2998-54.24756c.72559,2.46142,1.355,4.98486,1.87012,7.50049a3.49987,3.49987,0,1,0,6.85742-1.4043c-.55469-2.7085-1.23193-5.42578-2.01367-8.07568a3.4998,3.4998,0,1,0-6.71387,1.97949Zm7.18457,21.23047a3.49938,3.49938,0,0,0-3.44971,3.54931q.00879.64527.00879,1.292c0,2.14306-.0747,4.31054-.22168,6.44287a3.49991,3.49991,0,0,0,3.251,3.73242c.082.00586.16309.0083.24414.0083a3.50026,3.50026,0,0,0,3.48828-3.25928c.15821-2.2915.23828-4.62109.23828-6.92431q0-.69654-.00976-1.39161a3.4996,3.4996,0,0,0-3.49854-3.45019ZM206.97743,152.13867a11.66016,11.66016,0,1,0,11.66015,11.66016A11.67367,11.67367,0,0,0,206.97743,152.13867Zm0,16.32031a4.66016,4.66016,0,1,1,4.66015-4.66015A4.66517,4.66517,0,0,1,206.97743,168.459Zm60.65234,120.95411a21.37012,21.37012,0,0,1-12.14844,3.5205,21.07788,21.07788,0,0,1-11.15478-3.51953,3.50007,3.50007,0,1,0-3.87012,5.833,28.0699,28.0699,0,0,0,14.85986,4.68457c.21924.00537.436.00781.65186.00781a28.45708,28.45708,0,0,0,15.52881-4.6914,3.50007,3.50007,0,0,0-3.86719-5.835ZM249.67957,72.10742a8.501,8.501,0,0,0,12.59571,0l15.34228-16.9248v-.00049a8.47218,8.47218,0,0,0,0-11.417L262.27528,26.84033a8.501,8.501,0,0,0-12.59571,0L234.33729,43.76562a8.47219,8.47219,0,0,0,0,11.417ZM239.52381,48.46631,254.8661,31.5415a1.50076,1.50076,0,0,1,2.22265,0L272.431,48.46582a1.4967,1.4967,0,0,1,0,2.01611v-.00048l-15.34229,16.9248a1.50074,1.50074,0,0,1-2.22265,0L239.52381,50.48193A1.49609,1.49609,0,0,1,239.52381,48.46631ZM227.64735,235.60986a16.05906,16.05906,0,0,1-9.10889,2.63965,15.79736,15.79736,0,0,1-8.36182-2.63867,3.50006,3.50006,0,1,0-3.87011,5.833,22.79259,22.79259,0,0,0,12.06738,3.80371c.17822.00439.35449.00635.53027.00635a23.11052,23.11052,0,0,0,12.61036-3.80909,3.50007,3.50007,0,0,0-3.86719-5.835Zm28.33008,6.37452a12.5141,12.5141,0,0,0,12.5-12.5v-22a3.5,3.5,0,0,0-7,0v22a5.5,5.5,0,0,1-11,0v-22a3.5,3.5,0,0,0-7,0v22A12.51409,12.51409,0,0,0,255.97743,241.98438Zm93.27392-83.29151a3.50146,3.50146,0,0,0-4.27881,2.48877c-.65722,2.48584-1.42822,4.97022-2.29,7.38428a3.49984,3.49984,0,1,0,6.5918,2.35449c.92822-2.59863,1.75781-5.273,2.46582-7.94873A3.50064,3.50064,0,0,0,349.25135,158.69287Zm-180.05127,9.66992a3.5,3.5,0,0,0-6.59765,2.33887c.92334,2.60449,1.9707,5.20313,3.11279,7.72461a3.49991,3.49991,0,0,0,6.376-2.88867C171.03065,173.1958,170.0575,170.78174,169.20008,168.36279Z"/></svg>