<svg xmlns="http://www.w3.org/2000/svg" data-name="Layer 1" viewBox="0 0 512 512"><path fill="#d7d0d6" d="M403.00161,201.80968l21.17846,5.67475A29.31458,29.31458,0,0,0,460.8106,175.1903l0-.00011a64.32094,64.32094,0,1,1-33.295,124.25851l0,0a29.31458,29.31458,0,0,0-15.57589-46.28282l-21.17844-5.67474Z"/><path fill="#f9f7f8" d="M407.66471,203.05916l16.51537,4.42528a29.31056,29.31056,0,0,0,36.86548-29.55923,64.319,64.319,0,0,1-31.95894,119.27238,29.31062,29.31062,0,0,0-17.14694-44.03176l-16.51537-4.42528-4.663-1.24944,12.2403-45.68143Z"/><path fill="#aa6a51" d="M387.81189,167.17907h0a8.67281,8.67281,0,0,1,8.67281,8.67281V416.83619a0,0,0,0,1,0,0H379.13909a0,0,0,0,1,0,0V175.85187A8.6728,8.6728,0,0,1,387.81189,167.17907Z" transform="rotate(-165 387.812 292.008)"/><path fill="#935b44" d="M420.21606,171.45825,359.126,399.45013a8.66921,8.66921,0,0,1-9.906,6.28626,8.66754,8.66754,0,0,0,16.906.71374l62.37109-232.77294Z"/><rect width="25.483" height="58.246" x="392.592" y="197.494" fill="#fee903" rx="4.885" transform="rotate(-165 405.333 226.617)"/><path fill="#fac600" d="M420.45947,200.51984l-3.5625-.95453-9.41766,35.14719a16.90942,16.90942,0,0,1-20.70976,11.95675h0l-.01684.06244a4.87673,4.87673,0,0,0,3.44618,5.98085l15.18529,4.06887a4.88514,4.88514,0,0,0,5.983-3.45432l12.54647-46.82452A4.88488,4.88488,0,0,0,420.45947,200.51984Z"/><path fill="#fee903" d="M411.74262,169.18781l16.75459,4.48938,5.04355-6.70228a9.16761,9.16761,0,0,0,.03642-10.976l-6.84911-9.22844L416.18235,151.338a9.1676,9.1676,0,0,0-5.45644,9.52366Z"/><path fill="#fac600" d="M433.57715,155.999l-6.84912-9.22845-5.29712,2.29431,5.14624,6.93414a9.16765,9.16765,0,0,1-.03638,10.97595l-3.86889,5.14136,5.82519,1.56092,5.0437-6.70228A9.16765,9.16765,0,0,0,433.57715,155.999Z"/><path fill="#3c3b42" d="M225.118,34.65941h61.764a23.69811,23.69811,0,0,1,23.69811,23.69811V81.52406a0,0,0,0,1,0,0H201.41988a0,0,0,0,1,0,0V58.35753A23.69811,23.69811,0,0,1,225.118,34.65941Z"/><path fill="#2c2c2e" d="M296.56421,36.72876c.00561.20953.01587.41785.01587.62872v0a23.16655,23.16655,0,0,1-23.16654,23.16654H201.41992v21H310.58008V58.35748A23.69682,23.69682,0,0,0,296.56421,36.72876Z"/><path fill="#3c3b42" d="M133.45288,380.71887c-12.23389-36.72387-7.02209-54.81482.59778-64.55981,7.4585-9.5387,17.30517-11.18457,20.10876-22.33386,3.30225-13.13233-7.99817-20.23584-9.15161-37.00745-.57556-8.36939,1.26038-20.82166,13.66016-36.79846v-.00006s-.87354-30.36853-2.01294-44.4466l-1.98621-14.51111c-6.89514-50.3764,32.35474-95.24267,83.32019-95.24267h36.1139c50.96545,0,90.21533,44.86627,83.32019,95.24267l-1.98621,14.51111c-1.1394,14.07807-2.01294,44.4466-2.01294,44.4466v.00006c12.39978,15.9768,14.23572,28.42907,13.66016,36.79846-1.15345,16.77161-12.45386,23.87512-9.15161,37.00745,2.80358,11.14929,12.65026,12.79516,20.10876,22.33386,7.61987,9.745,12.83166,27.83594.59778,64.55981Z"/><path fill="#2c2c2e" d="M165.40564,236.46216l4.41429,7.75294c5.69067,9.99469,21.4836-50.14724,27.80841,16.16674h88.73744a32,32,0,0,0,27.86193-16.26111l4.32625-7.65857-.24366,15.44446A78.9671,78.9671,0,0,1,282.861,315.54431l-35.355,23.30975a10,10,0,0,1-11.011-.0014l-35.37049-23.33288A78.96729,78.96729,0,0,1,165.657,251.93323Z"/><path fill="#2c2c2e" d="M378.04126,316.15906c-7.4585-9.5387-17.30518-11.18457-20.10864-22.33386-3.30225-13.13233,7.998-20.23584,9.15136-37.00745.57569-8.36939-1.26025-20.82166-13.66015-36.79846v-.00006s.87353-30.36853,2.01318-44.4466l1.98609-14.51111c6.89526-50.3764-32.35474-95.24267-83.32007-95.24267h-14c50.96533,0,90.21533,44.86627,83.32007,95.24267L341.437,175.57263c-1.13965,14.07807-2.01318,44.4466-2.01318,44.4466v.00006c12.3999,15.9768,14.23584,28.42907,13.66015,36.79846-1.15332,16.77161-12.45361,23.87512-9.15136,37.00745,2.80346,11.14929,12.65014,12.79516,20.10864,22.33386,7.61987,9.745,12.83179,27.83594.5979,64.55981h14C390.87305,343.995,385.66113,325.90405,378.04126,316.15906Z"/><path fill="#2c2c2e" d="M353.52394,217.09155l-.01606-.01625A21,21,0,0,0,332.138,238.072c0,.4188.01226,7.83474.03644,8.24747.79821,13.62521,21.34948,12.71211,21.34948-.93646Z"/><path fill="#fee903" d="M353.52394,210.09155l-.01606-.01625A21,21,0,0,0,332.138,231.072c0,.4188.01226,7.83474.03644,8.24747.79821,13.62521,21.34948,12.71211,21.34948-.93646Z"/><path fill="#2c2c2e" d="M158.41983,217.09155l.01606-.01625A21,21,0,0,1,179.80575,238.072c0,.4188-.01226,7.83474-.03644,8.24747-.79821,13.62521-21.34948,12.71211-21.34948-.93646Z"/><path fill="#fee903" d="M158.41983,210.09155l.01606-.01625A21,21,0,0,1,179.80575,231.072c0,.4188-.01226,7.83474-.03644,8.24747-.79821,13.62521-21.34948,12.71211-21.34948-.93646Z"/><path fill="#3c3b42" d="M248.73215,3.5h14.53569A23.69811,23.69811,0,0,1,286.966,27.19811v7.4613a0,0,0,0,1,0,0H225.034a0,0,0,0,1,0,0v-7.4613A23.69811,23.69811,0,0,1,248.73215,3.5Z"/><path fill="#2c2c2e" d="M266.26782,3.69568a23.61418,23.61418,0,0,1,6.698,16.50244h0a7.46129,7.46129,0,0,1-7.4613,7.46129H225.03418v7h61.93164v-7.4613A23.697,23.697,0,0,0,266.26782,3.69568Z"/><path fill="#ffbd86" d="M353.42391 220.01932v-.00014s.20708-7.19669.551-16.2074a14.74813 14.74813 0 0 0-14.75243-15.29284H332.6v45.13935h6.10021a14.79573 14.79573 0 0 0 14.71113-13.50263zM179.40568 188.51894h-6.53631a14.74812 14.74812 0 0 0-14.75243 15.2928c.34394 9.01074.551 16.20744.551 16.20744v.00014l.01254.13634a14.79573 14.79573 0 0 0 14.71114 13.50263h6.01407z"/><path fill="#fed2a4" d="M424.77736,512a10,10,0,0,0,10-10V431.15125a67.32892,67.32892,0,0,0-48.18346-64.49982l-72.602-21.60475a22.443,22.443,0,0,1-16.06116-21.49994V293.70423H214.0749v29.84251a22.443,22.443,0,0,1-16.06116,21.49994l-72.602,21.60475a67.32892,67.32892,0,0,0-48.18346,64.49982V502a10,10,0,0,0,10,10Z"/><path fill="#ffbd86" d="M314.2854 352.134l-.29346-.08734a22.49321 22.49321 0 0 1-4.76757-2.051 3.51389 3.51389 0 0 0-.57593.39935 84.78868 84.78868 0 0 1-15.022 10.22229 9.3346 9.3346 0 0 0-11.77954-.80914 9.16808 9.16808 0 0 0-3.87378 7.159 75.47562 75.47562 0 0 1-13.98 2.60108 9.30589 9.30589 0 0 0-17.20337-.41272 76.57088 76.57088 0 0 1-15.052-3.67365 9.34424 9.34424 0 0 0-16.05175-7.76416q-3.30909-2.25842-6.66529-4.63391-5.6814-4.02319-11.00708-8.03711a3.72263 3.72263 0 0 0-1.06079 6.74964q.843.85006 1.73364 1.69488a80.088 80.088 0 0 0 14.5293 10.91071 9.11476 9.11476 0 0 0 1.71509 4.94433l.20215.27759a9.14347 9.14347 0 0 0 7.41113 3.74652 9.39157 9.39157 0 0 0 5.50537-1.789 83.584 83.584 0 0 0 18.61084 4.61279 9.18383 9.18383 0 0 0 1.07837 1.98987l.20215.27765a9.14347 9.14347 0 0 0 7.41113 3.74652 9.39206 9.39206 0 0 0 5.50537-1.78906 9.05525 9.05525 0 0 0 3.041-3.822 82.49841 82.49841 0 0 0 16.49756-3.05 9.14183 9.14183 0 0 0 6.90454 3.13635 9.39235 9.39235 0 0 0 5.50561-1.78906 9.1661 9.1661 0 0 0 3.77271-7.93237 91.80894 91.80894 0 0 0 16.61255-11.24183A3.4917 3.4917 0 0 0 314.2854 352.134zM231.82037 499.33968a158.8019 158.8019 0 0 1-12.113-13.4751 7.88793 7.88793 0 0 0-8.28906-11.35828 151.30515 151.30515 0 0 1-10.21314-18.04266 7.65563 7.65563 0 0 0 .73365-6.721l-.10034-.27234a7.7891 7.7891 0 0 0-5.71436-4.88623 149.1563 149.1563 0 0 1-6.36475-21.67169 7.65857 7.65857 0 0 0 2.293-6.68451c-.00439-.03137-.04272-.28088-.04834-.31219a7.74564 7.74564 0 0 0-4.40918-5.76545 158.68714 158.68714 0 0 1-1.21093-21.88989 7.72272 7.72272 0 0 0 4.30419-6.78253l.00318-.22247a7.69434 7.69434 0 0 0-3.57373-6.59058 164.01642 164.01642 0 0 1 4.56421-25.85388 3.46984 3.46984 0 0 0-.04175-1.88361l-7.25171 2.158a171.9374 171.9374 0 0 0-4.21533 24.73737 7.72048 7.72048 0 0 0-5.21948 7.20813l-.00318.22033a7.72229 7.72229 0 0 0 4.429 7.06763 166.144 166.144 0 0 0 1.19165 21.99963 7.71016 7.71016 0 0 0-4.07227 8.071l.01978.12421a7.795 7.795 0 0 0 6.53393 6.49981 156.00979 156.00979 0 0 0 6.25464 21.34308 7.6862 7.6862 0 0 0-2.1604 8.48059l.05249.14484a7.83082 7.83082 0 0 0 7.36987 5.129c.20166 0 .4043-.00989.60718-.02564a158.28308 158.28308 0 0 0 10.54663 18.50592 7.72265 7.72265 0 0 0 .56958 8.11322l.17066.2345a7.72312 7.72312 0 0 0 6.25976 3.16449 7.88441 7.88441 0 0 0 1.31568-.11853 165.82715 165.82715 0 0 0 12.85229 14.32464 3.5 3.5 0 1 0 4.92969-4.96972z"/><path fill="#ffbd86" d="M364.718,512a237.005,237.005,0,0,0,11.80639-58.21936,238.99719,238.99719,0,0,0-10.37695-89.04755l-66.15552-19.68646a22.432,22.432,0,0,1-10.08007-6.28625,412.66566,412.66566,0,0,1-11.10621,44.81524A412.84021,412.84021,0,0,1,259.14185,434.897,415.04285,415.04285,0,0,1,212.66235,512Z"/><path fill="#ffbd86" d="M386.59375,366.65143l-72.60181-21.60474a22.44311,22.44311,0,0,1-16.06128-21.49994V293.70422H214.075v7h69.85571v29.84253a22.44311,22.44311,0,0,0,16.06128,21.49994l72.60181,21.60474a67.32893,67.32893,0,0,1,48.18359,64.49982V512h4a10,10,0,0,0,10-10V431.15125A67.32893,67.32893,0,0,0,386.59375,366.65143Z"/><path fill="#aa6a51" d="M255.352 375.20818a9.14341 9.14341 0 0 1-7.4111-3.7465l-.20208-.27761a9.16561 9.16561 0 0 1 2.15946-12.85122 9.32338 9.32338 0 1 1 5.45372 16.87533zM222.5441 366.37038a9.14339 9.14339 0 0 1-7.4111-3.74651l-.20208-.27761a9.16559 9.16559 0 0 1 2.15946-12.85121 9.32338 9.32338 0 1 1 5.45372 16.87533zM287.30058 369.68349a9.14341 9.14341 0 0 1-7.4111-3.7465l-.20208-.27762a9.16559 9.16559 0 0 1 2.15946-12.85121 9.32338 9.32338 0 1 1 5.45372 16.87533z"/><path fill="#935b44" d="M294.7998 354.95068a9.26988 9.26988 0 0 0-6.60253-3.802 9.234 9.234 0 0 1-2.39112 12.33954 9.39242 9.39242 0 0 1-5.50561 1.78912c-.29859 0-.59619-.02221-.89258-.05078.09228.14459.178.29181.27954.4328l.2019.27759a9.14383 9.14383 0 0 0 7.41114 3.74652 9.39235 9.39235 0 0 0 5.50561-1.78906A9.24448 9.24448 0 0 0 294.7998 354.95068zM262.77792 360.44583a9.26992 9.26992 0 0 0-6.60254-3.802 9.234 9.234 0 0 1-2.39112 12.33954 9.39235 9.39235 0 0 1-5.50561 1.78912c-.29859 0-.59619-.02221-.89258-.05078.09229.1446.178.29181.27954.4328l.20191.27759a9.14381 9.14381 0 0 0 7.41113 3.74652 9.39235 9.39235 0 0 0 5.50561-1.78906A9.24449 9.24449 0 0 0 262.77792 360.44583zM230.04334 351.608a9.26986 9.26986 0 0 0-6.60254-3.802 9.234 9.234 0 0 1-2.39112 12.33954 9.39242 9.39242 0 0 1-5.50561 1.78912c-.29859 0-.59619-.02222-.89258-.05078.09229.14459.178.29181.27954.4328l.20191.27759a9.14384 9.14384 0 0 0 7.41113 3.74652 9.39229 9.39229 0 0 0 5.50561-1.78907A9.24448 9.24448 0 0 0 230.04334 351.608z"/><path fill="#fee903" d="M378.718,512a237.005,237.005,0,0,0,11.80639-58.21936,238.99719,238.99719,0,0,0-10.37695-89.04755l-66.15552-19.68646a22.432,22.432,0,0,1-10.08007-6.28625,412.66566,412.66566,0,0,1-11.10621,44.81524A412.84021,412.84021,0,0,1,273.14185,434.897,415.04285,415.04285,0,0,1,226.66235,512Z"/><path fill="#fac600" d="M380.14746,364.73309l-66.15552-19.68646a22.432,22.432,0,0,1-10.08007-6.28625c-.82837,4.378-1.773,8.93109-2.82276,13.61273l18.51944,5.511a80.006,80.006,0,0,1,57.17251,71.94643A235.76329,235.76329,0,0,1,366.95459,512H378.718a237.005,237.005,0,0,0,11.80639-58.21936A238.99719,238.99719,0,0,0,380.14746,364.73309Z"/><path fill="#fed2a4" fill-rule="evenodd" d="M256.00288,319.87661h-.00015c-42.30339,0-58.88287-42.721-76.59706-83.41441V180.66636a39.13408,39.13408,0,0,1,16.43905-31.868l0,0a49.66436,49.66436,0,0,1,44.48384-6.673h0a49.67837,49.67837,0,0,0,31.34832,0h0a49.66436,49.66436,0,0,1,44.48384,6.673l0,0a39.13407,39.13407,0,0,1,16.43906,31.868V236.4622C323.02117,277.43975,298.30627,319.87661,256.00288,319.87661Z"/><path fill="#ffbd86" fill-rule="evenodd" d="M316.16089,148.79834v-.00006a49.66474,49.66474,0,0,0-44.48389-6.673,49.67831,49.67831,0,0,1-31.34839,0,49.66471,49.66471,0,0,0-44.48388,6.673v.00006c-.05127.03656-.09888.077-.14991.11377a49.659,49.659,0,0,1,30.63379.2132,49.67831,49.67831,0,0,0,31.34839,0,49.66474,49.66474,0,0,1,44.48389,6.673v.00006a39.13393,39.13393,0,0,1,16.439,31.868v62.79584a76.29593,76.29593,0,0,1-35.53515,64.49237c28.94482-10.91052,44.6208-45.61454,49.53515-78.49237V180.66632A39.13393,39.13393,0,0,0,316.16089,148.79834Z"/><path fill="#3c3b42" d="M179.40564,236.46216l4.41429,7.75294a32,32,0,0,0,27.80841,16.16674h88.73744a32,32,0,0,0,27.86193-16.26111l4.32625-7.65857-.24366,15.44446A78.9671,78.9671,0,0,1,296.861,315.54431l-35.355,23.30975a10,10,0,0,1-11.01095-.0014l-35.37049-23.33288A78.96729,78.96729,0,0,1,179.657,251.93323Z"/><path fill="#2c2c2e" d="M328.22778,244.12073a31.96866,31.96866,0,0,1-10.073,10.85626,78.96173,78.96173,0,0,1-35.29395,60.56732L249.002,337.86774l1.49317.98492a9.9998,9.9998,0,0,0,11.01074.0014l35.355-23.30975a78.96722,78.96722,0,0,0,35.44946-63.63769l.24366-15.44446Z"/><path fill="#fff" d="M276.97161,184.40763a209.959,209.959,0,0,1-41.94276,0,6.8543,6.8543,0,0,1-6.42021-7.53553h0a7.05364,7.05364,0,0,1,7.77119-5.85845,196.43113,196.43113,0,0,0,39.24081,0,7.05385,7.05385,0,0,1,7.77118,5.85845h0A6.8534,6.8534,0,0,1,276.97161,184.40763Z"/><path fill="#fff" d="M286.12685,196.87934a223.48481,223.48481,0,0,1-60.25324,0c-4.32813-.587-7.28732-4.1739-6.62885-7.83054h0c.65888-3.6613,4.4326-6.0517,8.4523-5.50765a209.95547,209.95547,0,0,0,56.60635,0c4.01846-.54388,7.79466,1.84645,8.4523,5.50765h0C293.41211,192.70534,290.4554,196.29238,286.12685,196.87934Z"/><ellipse cx="328.641" cy="379.269" fill="#fe9738" rx="8.434" ry="8.414"/><ellipse cx="309.681" cy="432.044" fill="#fe9738" rx="8.434" ry="8.414"/><ellipse cx="358.328" cy="408.75" fill="#fe9738" rx="8.434" ry="8.414"/><ellipse cx="337.328" cy="457.75" fill="#fe9738" rx="8.434" ry="8.414"/><ellipse cx="284.112" cy="479.894" fill="#fe9738" rx="8.434" ry="8.414"/><ellipse cx="317.594" cy="500.086" fill="#fe9738" rx="8.434" ry="8.414"/><ellipse cx="359.594" cy="486.086" fill="#fe9738" rx="8.434" ry="8.414"/><ellipse cx="177.112" cy="476.024" fill="#ffbd86" rx="3.936" ry="3.926"/><path fill="#aa6a51" d="M218.81152,488.30755a7.72292,7.72292,0,0,1-6.25974-3.16446l-.17069-.23448a7.74167,7.74167,0,0,1,1.824-10.8547,7.87493,7.87493,0,1,1,4.60645,14.25364Z"/><path fill="#935b44" d="M225.14575,475.86353a7.8123,7.8123,0,0,0-4.41113-3.00831,7.79881,7.79881,0,0,1-1.989,10.4693,7.93213,7.93213,0,0,1-4.65015,1.51111,7.841,7.841,0,0,1-1.92017-.2456c.06885.10608.13111.21472.20581.31854l.17066.2345a7.72312,7.72312,0,0,0,6.25976,3.16449,7.93278,7.93278,0,0,0,4.65015-1.51117A7.80823,7.80823,0,0,0,225.14575,475.86353Z"/><path fill="#aa6a51" d="M200.65774 458.31506a7.83107 7.83107 0 0 1-7.36991-5.129l-.05244-.14481a7.72139 7.72139 0 0 1 4.63323-9.94994 7.8537 7.8537 0 0 1 10.05852 4.58322l.10051.27233a7.72535 7.72535 0 0 1-4.72172 9.91A7.91005 7.91005 0 0 1 200.65774 458.31506zM182.58746 416.59355a7.75665 7.75665 0 0 1 6.49819-8.88011 7.845 7.845 0 0 1 9.00718 6.40651c.00548.03133.04382.28085.0482.31217a7.75784 7.75784 0 0 1-6.60774 8.80018 7.95063 7.95063 0 0 1-1.169.08641 7.81985 7.81985 0 0 1-7.75707-6.60094M188.91005 387.30931c-.03952 0-.078 0-.11748-.00108a7.80086 7.80086 0 0 1-7.75359-7.85291l.00329-.2203a7.71636 7.71636 0 0 1 7.98306-7.62721 7.80023 7.80023 0 0 1 7.7547 7.85183l-.00329.22246A7.80755 7.80755 0 0 1 188.91005 387.30931z"/><path fill="#935b44" d="M190.19189,371.71881a7.62106,7.62106,0,0,1,1.66993,4.87586l-.00342.22241a7.8075,7.8075,0,0,1-7.8667,7.62726c-.03943,0-.07788,0-.11743-.0011a8.02207,8.02207,0,0,1-1.16516-.11115,7.89592,7.89592,0,0,0,6.08337,2.97614c.03955.0011.07813.0011.11768.0011a7.80783,7.80783,0,0,0,7.8667-7.62726l.00317-.22248A7.77138,7.77138,0,0,0,190.19189,371.71881Z"/><path fill="#3c3b42" d="M305.6441,252.257a2.66549,2.66549,0,0,0-4.39924-2.49609,21.66742,21.66742,0,0,1-6.90074,4.33881c-13.85354,5.30336-27.78552-7.03568-36.93914-7.13848q-1.405-.01578-2.80978,0c-9.15372.10279-23.0857,12.44185-36.93924,7.13848a21.66754,21.66754,0,0,1-6.90082-4.33887,2.66549,2.66549,0,0,0-4.39924,2.49609c1.381,6.84509,4.883,15.9825,13.69148,21.6262,9.70575,6.21862,23.75916,6.852,32.98914,1.72784a6.11351,6.11351,0,0,1,5.92713,0c9.2299,5.12415,23.28328,4.49076,32.98893-1.72786C300.761,268.23945,304.26311,259.10208,305.6441,252.257Z"/><path fill="#2c2c2e" d="M304.10156,249.30664A30.50042,30.50042,0,0,1,291.93237,265.353c-9.70556,6.21863-23.759,6.85205-32.989,1.72784a6.11336,6.11336,0,0,0-5.927,0c-9.23,5.12421-23.28345,4.49079-32.98926-1.72784a30.49222,30.49222,0,0,1-12.16284-16.03,2.62171,2.62171,0,0,0-1.5083,2.9339c1.38086,6.84509,4.883,15.98254,13.6914,21.62622,9.70581,6.21863,23.75928,6.852,32.98926,1.72784a6.1132,6.1132,0,0,1,5.927,0c9.23,5.12415,23.28345,4.49079,32.989-1.72784,8.80835-5.64368,12.31054-14.78107,13.6914-21.62616A2.62443,2.62443,0,0,0,304.10156,249.30664Z"/><path fill="#935b44" d="M206.97421 445.871a7.81228 7.81228 0 0 0-4.41113-3.0083 7.7988 7.7988 0 0 1-1.989 10.4693 7.93214 7.93214 0 0 1-4.65014 1.51111 7.84048 7.84048 0 0 1-1.92017-.24561c.06885.10608.1311.21473.20581.31855l.17066.23449a7.72312 7.72312 0 0 0 6.25976 3.16449 7.93271 7.93271 0 0 0 4.65015-1.51117A7.80823 7.80823 0 0 0 206.97421 445.871zM196.71169 410.87723a7.81222 7.81222 0 0 0-4.41114-3.0083 7.7988 7.7988 0 0 1-1.989 10.4693 7.93217 7.93217 0 0 1-4.65015 1.51111 7.8404 7.8404 0 0 1-1.92016-.24561c.06885.10608.1311.21472.20581.31854l.17065.2345a7.72313 7.72313 0 0 0 6.25977 3.16449 7.93277 7.93277 0 0 0 4.65014-1.51117A7.80823 7.80823 0 0 0 196.71169 410.87723z"/><path d="M321.59266,432.02832a11.9341,11.9341,0,1,0-11.93457,11.91309A11.93728,11.93728,0,0,0,321.59266,432.02832Zm-16.86816,0a4.93412,4.93412,0,1,1,4.93359,4.91309A4.92891,4.92891,0,0,1,304.7245,432.02832ZM99.63026,479.28369h-.1001a3.5,3.5,0,0,0,0,7h.1001a3.5,3.5,0,1,0,0-7Zm32.19971,0h-.1001a3.5,3.5,0,0,0,0,7h.1001a3.5,3.5,0,0,0,0-7Zm-16.19971,0a3.5,3.5,0,0,0,0,7h.09961a3.45769,3.45769,0,0,0,3.45019-3.5A3.54272,3.54272,0,0,0,115.63026,479.28369Zm168.45947-11.31885a11.91359,11.91359,0,1,0,11.93359,11.91358A11.93707,11.93707,0,0,0,284.08973,467.96484Zm0,16.82715a4.91362,4.91362,0,1,1,4.93359-4.91357A4.92891,4.92891,0,0,1,284.08973,484.792Zm-103.06421-8.78381a3.93568,3.93568,0,1,0-3.93567,3.92633A3.93094,3.93094,0,0,0,181.02552,476.00818Zm14.77954,28.79211c-20.35522-1.98089-37.46728-13.51764-44.68591-30.11694-.01379-.03394-.02966-.06616-.04456-.09955-10.15087-23.50061,4.20044-46.79663,5.87061-49.37579a3.5001,3.5001,0,0,0-5.876-3.80469c-1.86316,2.8775-17.7351,28.68634-6.68554,55.29541l.04394,31.79053a3.49945,3.49945,0,0,0,3.5,3.49512h.00488a3.49987,3.49987,0,0,0,3.49512-3.50489l-.02734-19.74481c9.92553,12.77039,25.7185,21.28033,43.727,23.03241q.17284.01685.34326.01709a3.50019,3.50019,0,0,0,.33447-6.98389Zm163.76612-30.64306a11.91359,11.91359,0,1,0,11.93359,11.91357A11.93707,11.93707,0,0,0,359.57118,474.15723Zm0,16.82715a4.91362,4.91362,0,1,1,4.93359-4.91358A4.92892,4.92892,0,0,1,359.57118,490.98438ZM294.41981,195.773a9.55169,9.55169,0,0,0,1.75781-7.35889,10.527,10.527,0,0,0-9.52759-8.39343,9.61486,9.61486,0,0,0,.18384-3.66125,10.5191,10.5191,0,0,0-11.585-8.84376,193.36668,193.36668,0,0,1-38.54394-.00048,10.50541,10.50541,0,0,0-11.5835,8.84472,9.62882,9.62882,0,0,0,.18408,3.65839,10.52565,10.52565,0,0,0-9.52832,8.39484A9.55149,9.55149,0,0,0,217.5326,195.77a11.61909,11.61909,0,0,0,7.84668,4.562,227.02219,227.02219,0,0,0,30.59815,2.07129,227.024,227.024,0,0,0,30.59863-2.07129A11.62028,11.62028,0,0,0,294.41981,195.773Zm-62.36914-18.4209a3.54544,3.54544,0,0,1,3.57568-2.89062c.126,0,.25342.00634.38135.019a200.43541,200.43541,0,0,0,39.9375.00049,3.5884,3.5884,0,0,1,3.96,2.874,2.80826,2.80826,0,0,1-.61035,2.13721,3.89576,3.89576,0,0,1-2.667,1.41229c-.16285.01636-.32593.02954-.48853.04553q-2.024.19859-4.05322.35541-.57642.04513-1.15308.08783c-1.53906.11157-3.07959.21167-4.62182.2887l-.02344.001c-1.55493.07752-3.11157.13233-4.6687.17469q-.4607.01263-.92188.02331-4.71642.1074-9.43506.00006-.46692-.01062-.93359-.02368c-1.543-.042-3.085-.09656-4.626-.17309l-.06738-.00281c-1.53589-.07678-3.07007-.17652-4.603-.28754q-.58885-.04275-1.17773-.08966-2.00574-.15682-4.00757-.35144c-.17261-.01691-.346-.03094-.5188-.04834a3.89654,3.89654,0,0,1-2.6665-1.41132A2.814,2.814,0,0,1,232.05067,177.35205Zm53.582,16.04346a219.96137,219.96137,0,0,1-59.31152,0,4.6012,4.6012,0,0,1-3.12842-1.74317,2.61789,2.61789,0,0,1-.52588-1.999,3.73737,3.73737,0,0,1,3.87158-2.70459,4.95581,4.95581,0,0,1,.66455.04492q3.70239.50382,7.41724.87537c.01221.00128.02417.00427.03638.00549.12646.0127.25366.02088.38012.03333q2.16321.21323,4.32935.3797.55773.04349,1.11523.0849,4.834.35182,9.677.483.46363.01263.92749.0235,4.88746.112,9.77613.00012.47277-.0108.94555-.024c1.61084-.044,3.22168-.1004,4.83155-.18091l.02246-.00091c1.59692-.08,3.19287-.18329,4.78808-.29926q.58557-.04248,1.1709-.08917,2.1189-.16571,4.23511-.3714c.14771-.01446.29565-.02411.44312-.03888.01416-.0014.02807-.00488.04223-.00635q3.71044-.37326,7.40991-.87451c2.17969-.29443,4.22071.897,4.53711,2.65772a2.62154,2.62154,0,0,1-.52734,2.002,4.599,4.599,0,0,1-3.12695,1.74219ZM419.71961,478.85736h-.11255a3.92634,3.92634,0,1,0,0,7.85266h.11255a3.92634,3.92634,0,1,0,0-7.85266Zm-195.352-260.42621a18.192,18.192,0,0,1-20.13379.001,3.50021,3.50021,0,0,0-3.86328,5.83789,25.24025,25.24025,0,0,0,13.33594,4.19385c.19629.00439.39014.00683.5835.00683a25.59472,25.59472,0,0,0,13.938-4.1997,3.50022,3.50022,0,1,0-3.86035-5.83985Zm83.35987.00049a18.19152,18.19152,0,0,1-20.13282.00049,3.50021,3.50021,0,0,0-3.86328,5.83789,25.248,25.248,0,0,0,13.33594,4.19385c.19629.00439.39062.00683.584.00683a25.58483,25.58483,0,0,0,13.9375-4.20019,3.50008,3.50008,0,1,0-3.86132-5.83887Zm153.96582-46.63818a3.50037,3.50037,0,0,0-4.374,3.85547,25.79678,25.79678,0,0,1-29.78955,28.95526,8.34442,8.34442,0,0,0-1.09521-3.57392,8.43182,8.43182,0,0,0-1.23291-1.62542l6.48388-24.18885,4.62989-6.15252a12.74248,12.74248,0,0,0,.0498-15.166l-6.84863-9.22851a3.50192,3.50192,0,0,0-4.20117-1.126l-10.5459,4.56738a12.74265,12.74265,0,0,0-7.541,13.16016l.93384,7.64807-6.48852,24.19385a8.38228,8.38228,0,0,0-5.77833,5.87341L383.3495,245.81006a8.33561,8.33561,0,0,0,.83691,6.36279,8.42726,8.42726,0,0,0,1.22778,1.62036l-13.80542,51.53217c-.28222-.217-.56567-.43482-.84228-.64618-4.50586-3.44482-8.06445-6.16553-9.46485-11.71729-1.4873-5.92285.64649-10.47216,3.34668-16.23193,2.499-5.32715,5.33008-11.36523,5.9004-19.68408.0664-.95361.09863-1.9126.09863-2.93164,0-11.3476-4.61231-23.19995-13.71045-35.24378.06079-2.00152.19482-6.271.38379-11.48553.36377-9.954.93066-23.41333,1.57763-31.4538l1.9668-14.41162A87.3555,87.3555,0,0,0,314.0575,71.9408V58.34424a27.23531,27.23531,0,0,0-23.61425-26.95593V27.18262A27.22917,27.22917,0,0,0,263.245-.01562H248.70936a27.22874,27.22874,0,0,0-27.19775,27.19824v4.20569a27.23532,27.23532,0,0,0-23.61426,26.95593V71.986A87.36058,87.36058,0,0,0,151.17957,161.52l1.97706,14.41113c.61816,7.81983,1.15039,20.42871,1.41308,27.26807.00928.24182.01831.47955.02747.71905l-.00012.01093c.25732,6.73743.439,12.50616.51293,14.93787-9.88439,13.07733-14.46362,25.91589-13.6145,38.17688.5708,8.3208,3.40235,14.35888,5.90039,19.686,2.70118,5.75977,4.83448,10.30908,3.34717,16.23145-1.396,5.55322-4.95557,8.27392-9.4624,11.71777a51.52771,51.52771,0,0,0-10.00928,9.3081c-8.70166,11.11524-10.80493,27.63672-6.29724,49.11841l-.58508.17408a70.82984,70.82984,0,0,0-50.68164,67.85449v77.3501a3.5,3.5,0,0,0,7,0V484.95831a3.47841,3.47841,0,0,0,2.72265,1.32538h.1001a3.5,3.5,0,1,0,0-7h-.1001a3.47841,3.47841,0,0,0-2.72265,1.32538V431.13428a64.22874,64.22874,0,0,1,45.67822-61.14551l63.14624-18.78711a171.665,171.665,0,0,0-2.95117,17.23517A11.19823,11.19823,0,0,0,178.119,379.165l-.00342.22266a11.09639,11.09639,0,0,0,3.23193,8.0166,11.35876,11.35876,0,0,0,4.06958,2.63983c.04248,5.15307.33228,10.33838.866,15.49133a11.26326,11.26326,0,0,0-3.69727,3.26874,11.09,11.09,0,0,0-1.96875,8.34033l.00635.04.00586.04053a11.37373,11.37373,0,0,0,9.27393,9.40478c1.18066,4.87287,2.59912,9.70978,4.23974,14.453a11.17908,11.17908,0,0,0-4.22168,13.13293l.05469.15039a11.3028,11.3028,0,0,0,12.92578,7.19544c2.12744,4.13476,4.4458,8.196,6.938,12.1397a11.219,11.219,0,0,0-2,15.27961l.17578.24121a11.30439,11.30439,0,0,0,15.24536,2.77844c2.41382,2.85339,4.93653,5.62366,7.60181,8.3656q-2.17713,3.02976-4.40234,6.02393a3.4999,3.4999,0,0,0,5.60839,4.18847,415.97725,415.97725,0,0,0,44.22706-74.229,415.32061,415.32061,0,0,0,29.88476-91.11719c.23486.15387.481.28943.7207.43555.16773.1026.33423.20581.5044.30475.38647.22357.78027.43274,1.17773.63611.21485.11053.42725.22454.646.32922.37305.17792.75391.33856,1.13574.4986.24365.10253.48291.21264.731.30792.41992.16107.84888.30011,1.27759.43921.20019.06512.39331.14453.59594.20489l64.35572,19.14758a237.63247,237.63247,0,0,1,9.6853,85.97547,235.87586,235.87586,0,0,1-10.36328,53.918,3.49962,3.49962,0,1,0,6.67383,2.10937,241.83271,241.83271,0,0,0,1.97851-139.63025l.26856.08a64.23413,64.23413,0,0,1,45.68945,61.14551v77.3501a3.5,3.5,0,0,0,7,0v-77.3501a70.83993,70.83993,0,0,0-50.69238-67.85449l-.49439-.1471q3.349-15.97329,1.82105-28.23029l20.04638-74.80462a8.43182,8.43182,0,0,0,4.27-2.86255,25.92753,25.92753,0,0,1,16.95948,24.319,25.33952,25.33952,0,0,1-4.01831,13.70349c-.02393.03626-.04419.07452-.0669.11176-.42114.6538-.86743,1.29608-1.35132,1.91961a3.50009,3.50009,0,0,0,1.86035,5.52637,67.82123,67.82123,0,1,0,35.10157-131.022Zm-44.14258-17.25928,7.999-3.46436,5.19434,6.99952a5.701,5.701,0,0,1-.02246,6.78564l-3.62451,4.8161-12.189-3.26562-.73047-5.9831A5.6997,5.6997,0,0,1,417.55067,154.53418Zm-3.3584,18.92627,9.998,2.6792-5.439,20.28955-10.00049-2.67963ZM228.51161,27.18262A20.22087,20.22087,0,0,1,248.70936,6.98438H263.245a20.221,20.221,0,0,1,20.19825,20.19824v3.96191H228.51161ZM204.89735,58.34424a20.223,20.223,0,0,1,20.20019-20.19971h61.75977A20.22265,20.22265,0,0,1,307.0575,58.34424V68.74A87.73793,87.73793,0,0,0,274.077,62.3042H237.96766a87.7375,87.7375,0,0,0-33.07031,6.47241ZM177.1659,96.92529A80.65727,80.65727,0,0,1,237.96766,69.3042H274.077a80.45613,80.45613,0,0,1,79.85253,91.26709l-1.97949,14.50976q-.01319.09522-.02051.19043c-.30859,3.80829-.59838,8.82422-.85742,14.11249a18.09927,18.09927,0,0,0-11.87207-4.38055h-3.123v-4.35254a42.718,42.718,0,0,0-17.90723-34.71875,53.32764,53.32764,0,0,0-47.62012-7.14356,46.44979,46.44979,0,0,1-29.13916,0,53.32715,53.32715,0,0,0-47.61963,7.14356,42.71713,42.71713,0,0,0-17.90771,34.71875v4.35254h-3.03662a18.09724,18.09724,0,0,0-11.86768,4.377c-.25122-5.1289-.53992-10.176-.85254-14.10357-.00488-.06641-.01221-.13233-.021-.19825l-1.99024-14.50927A80.23781,80.23781,0,0,1,177.1659,96.92529Zm173.146,110.59137c-.24683,6.77655-.39673,11.82538-.41162,12.3263a11.25781,11.25781,0,0,1-11.22266,10.29962H336.077V192.00342h3.123A11.2479,11.2479,0,0,1,350.455,203.66309Q350.37879,205.66,350.3119,207.51666Zm.105,30.85053c0,5.52148-4.499,7.12646-7.15723,7.2041-3.10034.09088-6.83032-1.52149-7.18261-6.33411v-2.0946h2.60058a18.18072,18.18072,0,0,0,11.58789-4.14557ZM218.13661,276.81494c10.73144,6.87451,26.11377,7.64893,36.57617,1.84033a2.62682,2.62682,0,0,1,2.52929,0,33.559,33.559,0,0,0,16.18555,3.88672,38.30435,38.30435,0,0,0,20.39063-5.72754,32.64155,32.64155,0,0,0,11.70361-13.338,35.462,35.462,0,0,0,23.30127-13.91638L328.788,251.794a75.516,75.516,0,0,1-32.82519,60.09143l-.02442.01678c-.34228.23389-.68066.47174-1.02734.70038l-35.35547,23.313a6.473,6.473,0,0,1-7.16064-.00293L217.0243,312.58252c-.33179-.21875-.65576-.44659-.98315-.67017-.02515-.01733-.04956-.03442-.0752-.0512a75.52271,75.52271,0,0,1-32.82886-60.00324l-.03759-2.32861a35.47573,35.47573,0,0,0,23.333,13.9469A32.64207,32.64207,0,0,0,218.13661,276.81494Zm-7.80713-22.8501a24.5021,24.5021,0,0,0,6.05224,3.3877c10.0791,3.85937,19.88819-.27637,27.77-3.59668,4.00342-1.687,7.78467-3.28027,10.46094-3.31006q1.36377-.01611,2.731,0c2.6748.02979,6.45605,1.62305,10.459,3.31006,7.88281,3.32129,17.69141,7.45264,27.76953,3.59717a24.52129,24.52129,0,0,0,6.05371-3.38819c-1.52734,5.71338-4.75976,12.58252-11.585,16.95606-8.5498,5.478-21.18945,6.17285-29.40136,1.61377a9.67738,9.67738,0,0,0-9.32422.00049c-8.21,4.55859-20.8501,3.86474-29.40235-1.61426C215.08729,266.54688,211.85584,259.67822,210.32948,253.96484ZM325.161,242.38135a28.48788,28.48788,0,0,1-16.7522,13.30719c.25147-.94928.46582-1.87268.6438-2.75495v-.001a6.16505,6.16505,0,0,0-10.19629-5.76612,18.20275,18.20275,0,0,1-5.78613,3.64893c-7.45313,2.85156-15.47266-.52783-22.54883-3.51025-4.6543-1.96143-9.05078-3.814-13.09863-3.85938q-1.44654-.01684-2.88916,0c-4.04932.04541-8.4458,1.89844-13.1001,3.85938-7.07617,2.98193-15.09521,6.36279-22.54932,3.51025a18.19153,18.19153,0,0,1-5.78466-3.64893,6.16534,6.16534,0,0,0-10.19678,5.76661c.178.88214.39209,1.80542.64355,2.7547a28.4597,28.4597,0,0,1-16.70605-13.21222l-3.957-6.96369v-54.861A35.703,35.703,0,0,1,197.8534,151.6333a46.30735,46.30735,0,0,1,41.34815-6.20215,53.51641,53.51641,0,0,0,33.55713,0,46.29889,46.29889,0,0,1,41.34863,6.20215A35.70252,35.70252,0,0,1,329.077,180.65088v54.786ZM173.369,230.14258a11.25893,11.25893,0,0,1-11.22559-10.32172c-.02258-.76513-.22839-7.70605-.55115-16.16919a11.247,11.247,0,0,1,11.25428-11.64825h3.03662v38.13916Zm2.51416,7V239.191c-.33118,4.85126-4.08814,6.48749-7.18848,6.38025-2.6499-.07764-7.12793-1.67236-7.15723-7.15088l.1814-5.48053a18.15676,18.15676,0,0,0,11.65015,4.2027Zm-44.1853,123.96271c-3.92164-19.08307-2.21827-33.47382,5.08667-42.805a45.157,45.157,0,0,1,8.74658-8.05908c4.9209-3.76074,10.00879-7.64892,12.001-15.57422,2.09473-8.34179-.90136-14.73047-3.79834-20.90918-2.34716-5.00439-4.77343-10.1792-5.25488-17.19531-.53808-7.77032,1.574-15.93939,6.2616-24.38446l-.201,6.07342c-.00147.03858-.002.07715-.002.11573,0,9.05517,7.01905,13.99853,13.95215,14.20117q.21753.00659.43506.00635a14.77214,14.77214,0,0,0,7.19336-1.85413l.021,1.29749a82.55723,82.55723,0,0,0,34.4082,64.59533v6.92078a18.8279,18.8279,0,0,1-13.55811,18.14551Zm53.41674,18.38836.00342-.22265a4.21327,4.21327,0,0,1,4.28613-4.18116c.02393,0,.0481.00068.07227.001.042.0033.0835.00458.12549.00641a4.3975,4.3975,0,0,1,3.04053,1.30023,4.14682,4.14682,0,0,1,1.21435,2.99268l-.00342.22461a4.32506,4.32506,0,0,1-4.36718,4.17871v.032c-.02173-.00372-.04444-.004-.06641-.00732l-.00049-.02521a4.40118,4.40118,0,0,1-3.09033-1.30664A4.14759,4.14759,0,0,1,185.11463,379.49365ZM195.38807,418.041a4.3906,4.3906,0,0,1-7.83691-1.86182c-.0044-.02783-.00879-.05566-.01368-.0835-.0039-.02783-.0083-.05615-.01318-.084a4.14009,4.14009,0,0,1,.73828-3.11133,4.39124,4.39124,0,0,1,7.86035,1.77441l.041.26612A4.13433,4.13433,0,0,1,195.38807,418.041Zm9.17822,34.2915a4.26591,4.26591,0,0,1-2.45312,2.21,4.40446,4.40446,0,0,1-1.478.25684,4.337,4.337,0,0,1-4.07861-2.81885l-.06494-.1792a4.1436,4.1436,0,0,1,.11963-3.20654,4.26565,4.26565,0,0,1,2.43408-2.231,4.41051,4.41051,0,0,1,1.51367-.26807,4.32189,4.32189,0,0,1,4.0625,2.77491l.09375.25488A4.14882,4.14882,0,0,1,204.56629,452.33252Zm16.8291,30.86084a4.19962,4.19962,0,0,1-1.69433,2.77441,4.42713,4.42713,0,0,1-2.60254.8501,4.21149,4.21149,0,0,1-3.43164-1.72656l-.15869-.21729a4.20582,4.20582,0,0,1-.74365-3.17187A4.24827,4.24827,0,0,1,214.518,478.918a4.35005,4.35005,0,0,1,1.21729-.6048c.022-.0061.04443-.009.0664-.01562a4.40594,4.40594,0,0,1,5.59375,4.89581Zm48.54688-49.78027a408.68973,408.68973,0,0,1-34.97656,61.13971c-2.53321-2.64814-4.91651-5.33619-7.21729-8.10437a11.42237,11.42237,0,0,0,.56153-2.16376,11.3974,11.3974,0,0,0-11.79786-13.14594c-2.71411-4.20862-5.22607-8.56323-7.50268-13.00671a11.27815,11.27815,0,0,0,1.88891-2.81513,11.10947,11.10947,0,0,0,.39014-8.59765l-.10449-.28369a11.34052,11.34052,0,0,0-10.31592-7.32434c-1.53931-4.41816-2.87915-8.922-4.00146-13.46241a11.26454,11.26454,0,0,0,4.148-3.44275,11.069,11.069,0,0,0,2.07568-8.27685c-.00586-.042-.05762-.376-.06006-.39111a11.3219,11.3219,0,0,0-9.8501-9.34772c-.457-4.59082-.71142-9.20471-.761-13.79352a11.31465,11.31465,0,0,0,8.43335-10.67664l.00341-.2246a11.094,11.094,0,0,0-3.23339-8.01709,11.37577,11.37577,0,0,0-4.04395-2.63056,164.42384,164.42384,0,0,1,3.69629-19.94995l1.71191-.50934c.43946-.131.86426-.29138,1.29273-.44446a88.0581,88.0581,0,0,0,9.52905,7.31891,12.56737,12.56737,0,0,0,2.26758,9.1236l.21142.291a12.562,12.562,0,0,0,10.23389,5.17725,12.84272,12.84272,0,0,0,7.5542-2.45117,12.71315,12.71315,0,0,0,1.74634-1.52985,84.12931,84.12931,0,0,0,10.97143,2.712,12.69336,12.69336,0,0,0,2.09278,4.64154l.209.2876a12.56092,12.56092,0,0,0,10.23438,5.17724,12.83722,12.83722,0,0,0,7.55322-2.45068,12.53388,12.53388,0,0,0,4.83105-7.07245,82.8212,82.8212,0,0,0,8.99756-1.65723c.04322.06256.07886.12867.12354.19062l.209.28759a12.56073,12.56073,0,0,0,10.23438,5.17774,12.78657,12.78657,0,0,0,5.22119-1.11713A407.78254,407.78254,0,0,1,269.94227,433.41309Zm-53.18652-77.36426a5.66687,5.66687,0,0,1,2.33789-3.71533,5.85709,5.85709,0,0,1,9.15136,5.687,5.61176,5.61176,0,0,1-2.26464,3.70654,5.88649,5.88649,0,0,1-3.459,1.12793,5.62208,5.62208,0,0,1-4.57861-2.30273l-.19385-.26709A5.61738,5.61738,0,0,1,216.75575,356.04883Zm32.80761,8.8374a5.66842,5.66842,0,0,1,2.33838-3.71484,5.85788,5.85788,0,0,1,9.15186,5.687,5.6117,5.6117,0,0,1-2.2666,3.70654,5.88275,5.88275,0,0,1-3.45752,1.12744,5.62293,5.62293,0,0,1-4.58106-2.30517l-.19189-.26367A5.624,5.624,0,0,1,249.56336,364.88623Zm43.43848-3.55225a5.61285,5.61285,0,0,1-2.2666,3.70655,5.87794,5.87794,0,0,1-3.457,1.12744,5.62271,5.62271,0,0,1-4.58106-2.30567l-.1914-.26367a5.66589,5.66589,0,0,1,1.34472-7.95215,5.85776,5.85776,0,0,1,9.15137,5.6875Zm4.41113-8.69989a12.83969,12.83969,0,0,0-17.6123-2.69757,12.65027,12.65027,0,0,0-5.34961,10.92975c-2.28394.53241-4.59277.96015-6.91065,1.27814a12.66362,12.66362,0,0,0-1.8706-3.72888,12.84636,12.84636,0,0,0-17.81738-2.9541,12.61441,12.61441,0,0,0-4.62207,6.10247,77.02079,77.02079,0,0,1-8.166-1.9945c.02979-.15326.0708-.30249.09522-.45758a12.68636,12.68636,0,0,0-2.29786-9.53418,12.78687,12.78687,0,0,0-20.14868-.808c-2.2268-1.52923-4.15869-3.01507-5.79419-4.36279a26.08052,26.08052,0,0,0,10.62842-20.87268v-2.221l30.98926,20.44019a13.46052,13.46052,0,0,0,14.87744.00293l30.99316-20.43665v2.21448a25.88919,25.88919,0,0,0,5.72974,16.1485Q298.88037,346.18229,297.413,352.63409Zm82.93457,8.498-65.37988-19.45532c-.15234-.04529-.30029-.10193-.45117-.15106-.27881-.09052-.55737-.18183-.82959-.28388-.28613-.10815-.56763-.22717-.84766-.349-.114-.049-.22827-.0971-.34082-.14813a19.04239,19.04239,0,0,1-6.03955-4.377,3.50377,3.50377,0,0,0-.37842-.35065,18.83174,18.83174,0,0,1-4.67334-12.48285V316.6189A82.5541,82.5541,0,0,0,335.787,251.94873l.01953-1.24676a14.766,14.766,0,0,0,7.22363,1.87274c.14453,0,.29-.002.43457-.00635,6.93359-.20264,13.95215-5.146,13.95117-14.29932l-.17456-6.2138c4.25147,7.61755,6.406,15.00543,6.406,22.059,0,.856-.02637,1.65674-.082,2.45019-.48047,7.01416-2.90723,12.189-5.25391,17.19336-2.89746,6.17871-5.89355,12.56739-3.79785,20.91309,1.99805,7.92139,7.084,11.80908,12.001,15.56885a45.20713,45.20713,0,0,1,8.74609,8.06054C382.56288,327.63892,384.267,342.03918,380.34754,361.13208Zm4.90577-39.69458a36.44589,36.44589,0,0,0-4.479-7.44873,37.6873,37.6873,0,0,0-3.26465-3.63806l14.35352-53.57807,10.001,2.67951Zm22.71044-69.03174a1.38809,1.38809,0,0,1-1.69628.979l-15.17676-4.06641h-.001a1.38384,1.38384,0,0,1-.97851-1.69678l12.54589-46.82422A1.38645,1.38645,0,0,1,403.995,199.771a1.36931,1.36931,0,0,1,.3584.04736l15.17774,4.06689a1.38583,1.38583,0,0,1,.97949,1.69629l-.21484.80213c-.00708.02472-.02.046-.02637.07092-.00562.02148-.00488.04291-.01.06445Zm27.02588,40.83374a32.2598,32.2598,0,0,0,2.17823-11.6853,32.94131,32.94131,0,0,0-21.49512-30.87158l10.50635-39.20923a32.784,32.784,0,0,0,37.97314-27.20563,60.79674,60.79674,0,0,1-29.1626,108.97174Zm67.897-40.19067a60.91107,60.91107,0,0,1-56.7168,45.03216,67.74847,67.74847,0,0,0,30.11694-112.39318,60.68947,60.68947,0,0,1,26.59986,67.361ZM401.61512,478.85736h-.1123a3.92634,3.92634,0,1,0,0,7.85266h.1123a3.92634,3.92634,0,1,0,0-7.85266Zm-84.04394,9.29987a11.91359,11.91359,0,1,0,11.93359,11.91357A11.93707,11.93707,0,0,0,317.57118,488.15723Zm0,16.82715a4.91362,4.91362,0,1,1,4.93359-4.91358A4.92892,4.92892,0,0,1,317.57118,504.98438Zm19.73437-59.16407a11.91359,11.91359,0,1,0,11.93359,11.91358A11.93707,11.93707,0,0,0,337.30555,445.82031Zm0,16.82715a4.91362,4.91362,0,1,1,4.93359-4.91357A4.92891,4.92891,0,0,1,337.30555,462.64746Zm-8.68652-71.481a11.91359,11.91359,0,1,0-11.9336-11.91357A11.93706,11.93706,0,0,0,328.619,391.1665Zm0-16.82714a4.91361,4.91361,0,1,1-4.9336,4.91357A4.92891,4.92891,0,0,1,328.619,374.33936Zm29.68652,46.3081A11.91359,11.91359,0,1,0,346.372,408.73389,11.93707,11.93707,0,0,0,358.30555,420.64746Zm0-16.82715a4.91362,4.91362,0,1,1-4.93359,4.91358A4.92891,4.92891,0,0,1,358.30555,403.82031Z"/></svg>