<svg xmlns="http://www.w3.org/2000/svg" data-name="Layer 1" viewBox="0 0 512 512"><path fill="#aa6a51" d="M408.12959,101.19393c-16.16423,10.14-27.28777,31.34844-27.28777,55.86945,0,34.36777,21.85089,62.22836,48.80533,62.22836s48.80534-27.86059,48.80534-62.22836c0-24.39257-11.00732-45.50716-27.03418-55.7092"/><path fill="#935b44" d="M451.41846,101.35419l-5.41895-.02008c11.24317,11.40027,18.45313,28.99017,18.45313,48.72924,0,34.3678-21.85108,62.2284-48.80542,62.2284a38.88345,38.88345,0,0,1-10.59693-1.48822,40.91505,40.91505,0,0,0,24.59693,8.48822c26.95434,0,48.80542-27.8606,48.80542-62.2284C478.45264,132.67078,467.44531,111.55621,451.41846,101.35419Z"/><path fill="#d1a08f" d="M410.49549,193.4582l6.18162-63.58177h32.84432L446.5508,206.6615a101.67276,101.67276,0,0,1-105.62872,97.65219l-72.63024-2.876V289.02042l56.37282-7.1686A98.74394,98.74394,0,0,0,410.49549,193.4582Z"/><path fill="#c68d7a" d="M435.25049,129.8764l-2.69971,69.7851a101.67262,101.67262,0,0,1-105.62866,97.65216L268.292,294.992v6.44562l72.63013,2.876A101.67262,101.67262,0,0,0,446.55078,206.6615l2.9707-76.7851Z"/><path fill="#bc7c63" d="M424.22527,157.35067H435.069a21.03441,21.03441,0,0,0,20.69621-17.26925l4.88289-26.8507a10.2109,10.2109,0,0,0-10.04756-12.03679H408.69373a10.21089,10.21089,0,0,0-10.04755,12.03679l4.88288,26.8507A21.03441,21.03441,0,0,0,424.22527,157.35067Z"/><path fill="#aa6a51" d="M450.60059 101.19391h-4.31665a10.12524 10.12524 0 0 1 .36425 5.0368l-4.88305 26.85071a21.034 21.034 0 0 1-20.696 17.26923H410.22534c-.57886 0-1.15112-.03028-1.71948-.07654a21.00662 21.00662 0 0 0 15.71948 7.07654h10.84375a21.034 21.034 0 0 0 20.696-17.26923l4.88305-26.85071A10.21094 10.21094 0 0 0 450.60059 101.19391zM110.77145 101.19393c16.16424 10.14 27.28778 31.34844 27.28778 55.86945 0 34.36777-21.8509 62.22836-48.80534 62.22836s-48.80533-27.86059-48.80533-62.22836c0-24.39257 11.00731-45.50716 27.03418-55.7092"/><path fill="#935b44" d="M110.77148,101.19391l-5.28613.01959c11.312,11.39661,18.57373,29.04047,18.57373,48.84985,0,34.3678-21.85083,62.2284-48.80517,62.2284A38.88476,38.88476,0,0,1,64.657,210.80353a40.91505,40.91505,0,0,0,24.59693,8.48822c26.95434,0,48.80517-27.8606,48.80517-62.2284C138.05908,132.54236,126.93555,111.33392,110.77148,101.19391Z"/><path fill="#d1a08f" d="M108.40556,193.4582l-6.18163-63.58177H69.37962l2.97062,76.78507A101.67276,101.67276,0,0,0,177.979,304.31369l72.63023-2.876V289.02042l-56.37281-7.1686A98.74392,98.74392,0,0,1,108.40556,193.4582Z"/><path fill="#c68d7a" d="M194.23633,281.85181a98.74391,98.74391,0,0,1-85.83081-88.39362l-6.18164-63.58179H69.37964l.27075,7H88.22388l6.18164,63.58179a98.74391,98.74391,0,0,0,85.83081,88.39362l56.3728,7.16858V301.992l14-.55438V289.02039Z"/><path fill="#bc7c63" d="M94.67577,157.35067H83.832A21.03441,21.03441,0,0,1,63.1358,140.08142l-4.88288-26.8507a10.21089,10.21089,0,0,1,10.04755-12.03679h41.90684a10.21089,10.21089,0,0,1,10.04755,12.03679l-4.88288,26.8507A21.03441,21.03441,0,0,1,94.67577,157.35067Z"/><path fill="#aa6a51" d="M110.20728,101.19391h-4.31666a10.12513,10.12513,0,0,1,.36426,5.0368l-4.88281,26.85071a21.03463,21.03463,0,0,1-20.69629,17.26923H69.832c-.57861,0-1.15112-.03028-1.71948-.07654A21.00739,21.00739,0,0,0,83.832,157.35065H94.67578a21.03463,21.03463,0,0,0,20.69629-17.26923l4.88281-26.85071A10.21094,10.21094,0,0,0,110.20728,101.19391Z"/><path fill="#aa6a51" d="M189.47243,46.956c16.16423,10.14,27.28777,31.34844,27.28777,55.86944,0,34.36778-21.85089,62.22837-48.80534,62.22837s-48.80533-27.86059-48.80533-62.22837c0-24.39256,11.00731-45.50716,27.03418-55.70919"/><path fill="#935b44" d="M189.47241,46.95593l-5.28613.01959c11.312,11.39661,18.574,29.04047,18.574,48.84986,0,34.3678-21.85107,62.22839-48.80542,62.22839a38.88469,38.88469,0,0,1-10.59692-1.48822,40.915,40.915,0,0,0,24.59692,8.48822c26.95435,0,48.80542-27.86059,48.80542-62.22839C216.76025,78.30438,205.63672,57.096,189.47241,46.95593Z"/><path fill="#d1a08f" d="M192.676,160.24313a36.69584,36.69584,0,0,1-4.84678-18.2731V75.63844H148.08059v73.4292A56.64286,56.64286,0,0,0,172.17133,195.462Z"/><rect width="14" height="66.332" x="173.829" y="75.638" fill="#c68d7a"/><path fill="#bc7c63" d="M173.37675,103.11268H162.533a21.03441,21.03441,0,0,1-20.69621-17.26924l-4.88288-26.8507A10.21089,10.21089,0,0,1,147.00144,46.956h41.90685a10.21089,10.21089,0,0,1,10.04755,12.03679L194.073,85.84344A21.0344,21.0344,0,0,1,173.37675,103.11268Z"/><path fill="#aa6a51" d="M188.9082 46.95593h-4.31665a10.12528 10.12528 0 0 1 .36426 5.03681L180.073 78.84344a21.03445 21.03445 0 0 1-20.69629 17.26923H148.533c-.57886 0-1.15112-.03027-1.71948-.07654a21.00739 21.00739 0 0 0 15.71948 7.07654h10.84375A21.03445 21.03445 0 0 0 194.073 85.84344l4.88281-26.8507A10.21082 10.21082 0 0 0 188.9082 46.95593zM329.42862 46.956c-16.16424 10.14-27.28777 31.34844-27.28777 55.86944 0 34.36778 21.85089 62.22837 48.80533 62.22837s48.80533-27.86059 48.80533-62.22837c0-24.39256-11.00731-45.50716-27.03418-55.70919z"/><path fill="#935b44" d="M372.71729,47.11621l-5.41871-.02008c11.24317,11.40027,18.45288,28.99017,18.45288,48.72925,0,34.3678-21.85083,62.22839-48.80517,62.22839a38.88649,38.88649,0,0,1-10.59717-1.48822,40.91622,40.91622,0,0,0,24.59717,8.48822c26.95434,0,48.80517-27.86059,48.80517-62.22839C399.75146,78.4328,388.74414,57.31824,372.71729,47.11621Z"/><path fill="#d1a08f" d="M324.9053,162.37769A36.69924,36.69924,0,0,0,331.0718,141.97V75.63844h39.74866v73.4292a56.678,56.678,0,0,1-27.16233,48.41267Z"/><path fill="#c68d7a" d="M345.811,196.09572a56.65426,56.65426,0,0,0,25.00935-47.02809V75.63843h-14v66.4292A56.51457,56.51457,0,0,1,341.2367,181.113Z"/><path fill="#bc7c63" d="M345.5243,103.11268h10.84376a21.03441,21.03441,0,0,0,20.69621-17.26924l4.88288-26.8507A10.21089,10.21089,0,0,0,371.8996,46.956H329.99276a10.21089,10.21089,0,0,0-10.04755,12.03679l4.88288,26.8507A21.03441,21.03441,0,0,0,345.5243,103.11268Z"/><path fill="#aa6a51" d="M371.89966 46.95593H367.583a10.1254 10.1254 0 0 1 .36426 5.03681l-4.88306 26.8507a21.03438 21.03438 0 0 1-20.69605 17.26923H331.52441c-.57885 0-1.15136-.03027-1.71972-.07654a21.00791 21.00791 0 0 0 15.71972 7.07654h10.84375a21.03438 21.03438 0 0 0 20.69605-17.26923l4.88306-26.8507A10.21108 10.21108 0 0 0 371.89966 46.95593zM236.7648 10.4967c-17.11064 10.73371-28.88546 33.18387-28.88546 59.14057 0 36.38 23.13025 65.8718 51.66286 65.8718s51.66286-29.49181 51.66286-65.8718c0-25.82073-11.65179-48.17157-28.617-58.97093"/><path fill="#935b44" d="M282.58789,10.66632l-5.32593-.01971c12.135,12.05359,19.94312,30.85766,19.94312,51.99066,0,36.38-23.13037,65.87176-51.66284,65.87176a41.18512,41.18512,0,0,1-11.65284-1.70337,43.21867,43.21867,0,0,0,25.65284,8.70337c28.53247,0,51.66284-29.49176,51.66284-65.87176C311.20508,43.81653,299.55322,21.4657,282.58789,10.66632Z"/><rect width="42.076" height="137.763" x="238.504" y="40.859" fill="#d1a08f"/><rect width="14" height="137.763" x="266.58" y="40.859" fill="#c68d7a"/><path fill="#bc7c63" d="M253.80287,69.94138h11.47866a22.266,22.266,0,0,0,21.908-18.28035l5.16877-28.42279A10.80874,10.80874,0,0,0,281.72243,10.4967H237.362a10.80874,10.80874,0,0,0-10.63583,12.74154L231.89491,51.661A22.266,22.266,0,0,0,253.80287,69.94138Z"/><path fill="#aa6a51" d="M281.72241,10.4967h-3.88647a10.72749,10.72749,0,0,1,.52246,5.74152L273.18945,44.661a22.26589,22.26589,0,0,1-21.908,18.2804H239.80273a22.34792,22.34792,0,0,1-2.30517-.13019,22.22859,22.22859,0,0,0,16.30517,7.13019h11.47876a22.26589,22.26589,0,0,0,21.908-18.2804l5.16895-28.42279A10.80888,10.80888,0,0,0,281.72241,10.4967Z"/><path fill="#8ac9fe" d="M79.43782,512a13,13,0,0,1-9.08837-3.70476L28.93427,467.80179a29.58739,29.58739,0,0,1-8.49234-26.07368L38.13081,336.825l28.1954,2.32431L66.20785,425.22a9.82032,9.82032,0,0,0,2.96887,7.0608l49.08987,47.99569L111.63318,512Z"/><path fill="#26a6fe" d="M52.32617,346.14929,52.20776,432.22a9.82008,9.82008,0,0,0,2.969,7.06079l49.08984,47.99567L99.09692,512H111.6333l6.6333-31.72351L69.17676,432.28082a9.82008,9.82008,0,0,1-2.969-7.06079l.11841-86.07074H51.78174Z"/><polygon fill="#fee903" points="27.97 397.084 66.247 397.084 66.281 372.238 32.159 372.238 27.97 397.084"/><polygon fill="#fac600" points="66.247 397.084 66.281 372.238 52.29 372.238 52.256 397.084 66.247 397.084"/><path fill="#8ac9fe" d="M66.31051,351.70408l.0183-12.55541q.08019-6.61282.16014-13.22566a87.21978,87.21978,0,0,0-3.32455-16.719,87.20451,87.20451,0,0,0-5.45325-13.69619l-1.85106-23.65924H44.55721v13.80118a4.94959,4.94959,0,0,1-4.038,4.84672,20.429,20.429,0,0,0-7.03488,2.75014c-8.961,5.6536-11.66914,17.71558-9.77521,26.92142,2.09836,10.1996,10.17494,18.46708,20.78165,21.53705Z"/><path fill="#26a6fe" d="M63.16455,309.204a87.23345,87.23345,0,0,0-5.45337-13.69617l-1.85107-23.65924h-11.303v13.80121a4.87443,4.87443,0,0,1-1.35449,3.35876l.50854,6.49927A87.23345,87.23345,0,0,1,49.16455,309.204,87.24133,87.24133,0,0,1,52.489,325.923q-.08019,6.61286-.16015,13.22571l-.009,6.14411L66.31055,351.704l.01831-12.55536q.08019-6.61285.16015-13.22571A87.24133,87.24133,0,0,0,63.16455,309.204Z"/><ellipse cx="50.493" cy="261.436" fill="#fee903" rx="46.993" ry="13.915"/><path fill="#fac600" d="M82.16138,251.1557a5.19263,5.19263,0,0,1,1.32544,3.27979c0,7.68475-21.03955,13.91449-46.99341,13.91449-12.20093,0-23.31421-1.37726-31.668-3.63471,4.9812,6.10138,23.53149,10.63471,45.668,10.63471,25.95386,0,46.99341-6.22974,46.99341-13.91449C97.48682,257.36334,91.57764,253.70032,82.16138,251.1557Z"/><path fill="#e5e1e5" d="M455.94518,297.41892c9.70474,6.736,17.38315,1.788,30.01068,6.88361,8.10851,3.272,14.25673,9.07073,18.97645,15.60711,8.54118-24.74277,1.22452-50.268-16.3758-62.33321-14.46475-9.91558-31.056-7.43617-35.7787-6.55891-1.2467,1.3651-11.34391,12.79677-8.37853,27.94717C444.79329,280.97793,447.01607,291.22118,455.94518,297.41892Z"/><path fill="#efedef" d="M488.55664,257.57642c-9.97583-6.83832-20.96143-7.78083-28.36938-7.41974l6.78759,15.96869a96.84151,96.84151,0,0,1,37.95752,53.78424C513.47363,295.16687,506.15674,269.6416,488.55664,257.57642Z"/><path fill="#baafb9" d="M452.77781,251.01752c-1.07381,1.17579-8.70635,9.823-8.90988,21.87854a25.69635,25.69635,0,0,0,20.6919-4.69416,27.58727,27.58727,0,0,0,5.26219-5.34435,30.00662,30.00662,0,0,0,5.21426-11.31215,53.34529,53.34529,0,0,0-22.25847-.52788Z"/><path fill="#8ac9fe" d="M399.88546,512,393.273,480.27653l49.08987-47.99569a9.82028,9.82028,0,0,0,2.96887-7.0608l-.15611-89.27306,28.58227,3.20231,17.33976,102.57882a29.58739,29.58739,0,0,1-8.49234,26.07368L440.9955,508.31437A13,13,0,0,1,431.92674,512Z"/><path fill="#26a6fe" d="M491.09766,441.72809l-17.33985-102.5788h-14l17.33985,102.5788a29.58717,29.58717,0,0,1-8.49244,26.07367l-41.60961,40.51257A13,13,0,0,1,417.92676,512h14a13,13,0,0,0,9.06885-3.68567l41.60961-40.51257A29.58717,29.58717,0,0,0,491.09766,441.72809Z"/><polygon fill="#fee903" points="479.351 372.238 445.239 372.238 445.282 397.084 483.551 397.084 479.351 372.238"/><polygon fill="#fac600" points="482.426 390.426 479.351 372.238 465.351 372.238 469.551 397.084 483.551 397.084 482.426 390.426"/><path fill="#8ac9fe" d="M454.00873,342.55166l-8.16387-3.88069-8.18007-7.65369a21.69233,21.69233,0,0,1-5.53654-23.33506l2.219-6.02691a17.754,17.754,0,0,1,17.25393-11.60891l4.54882.15195a11.83351,11.83351,0,0,1,9.05289,18.95488l-.56954.75466a3.99348,3.99348,0,0,0,1.3413,5.94672l.00042.00021a15.77769,15.77769,0,0,1,8.4319,15.25623l-.64747,8.03764,1.25361,7.41869Z"/><path fill="#26a6fe" d="M451.20288,309.1532l-.56958.7547a3.99351,3.99351,0,0,0,1.34131,5.94671l.00049.00019A15.778,15.778,0,0,1,460.407,331.111l-.64746,8.03766.78613,4.65271,14.46753,2.766-1.25366-7.4187.64746-8.03766a15.778,15.778,0,0,0-8.43188-15.25622l-.00049-.00019a3.99351,3.99351,0,0,1-1.34131-5.94671l.56958-.7547a11.83349,11.83349,0,0,0-9.053-18.95484l-4.54883-.152a17.71118,17.71118,0,0,0-5.896.81024A11.84766,11.84766,0,0,1,451.20288,309.1532Z"/><path fill="#fee903" d="M259.45068,106.86243a111.546,111.546,0,1,0,111.56739,111.546A111.55671,111.55671,0,0,0,259.45068,106.86243Zm0,188.57666a77.0308,77.0308,0,1,1,77.0459-77.03052A77.12539,77.12539,0,0,1,259.45068,295.43909Z"/><path fill="#fac600" d="M252.45068,141.70984c-2.30737-.20886-4.63916-.33234-7-.33234a77.0308,77.0308,0,1,0,0,154.06159c2.36084,0,4.69263-.12348,7-.33234a77.01437,77.01437,0,0,1,0-153.39691Z"/><path fill="#fac600" d="M259.45068,106.86243c-2.3518,0-4.68432.08154-7,.22491a111.53914,111.53914,0,0,1,0,222.64209c2.31568.14337,4.6482.22492,7,.22492a111.546,111.546,0,1,0,0-223.09192Z"/><path fill="#3c3b42" d="M125.625,477.842c4.43777-12.18392,15.5593-8.13466,19.99707-20.31857,4.4383-12.18537-6.68323-16.23463-2.24493-28.42,4.43837-12.18557,15.5599-8.13631,19.99827-20.32187,4.43831-12.18539-6.68322-16.23465-2.24492-28.42,4.43853-12.186,15.56006-8.13673,19.99858-20.32271,4.43914-12.18767-6.68239-16.23693-2.24326-28.42459s15.56067-8.13841,19.9998-20.32607L323.1638,280.613c4.43913,12.18766-6.6824,16.23692-2.24326,28.42459s15.56066,8.1384,19.9998,20.32607c4.43852,12.186-6.683,16.23525-2.24448,28.42123,4.4383,12.18539,15.55983,8.13613,19.99814,20.32152,4.43837,12.18556-6.68316,16.23482-2.24479,28.42039,4.4383,12.18537,15.55983,8.13611,19.99813,20.32148,4.43777,12.18391-6.68376,16.23317-2.246,28.41709Z"/><path fill="#2c2c2e" d="M376.42725,426.84827a18.55691,18.55691,0,0,0-1.0708-2.40125c-.45362-.14709-.90406-.3-1.3628-.43671l-63.67773-18.99316q-.72567-.21645-1.42381-.48445a7.735,7.735,0,0,1-2.46917-12.79548,66.964,66.964,0,0,0,20.21524-48.02708c-.00048-15.8753-.00073-18.90832-.00073-24.29943a40.80946,40.80946,0,0,0-17.09155-33.20765V286.203a47.62331,47.62331,0,0,0-34.03052-8.44165l-16.0647,2.16284-16.06494-2.16284a47.62239,47.62239,0,0,0-34.03027,8.44165l-.00025.00006a40.80742,40.80742,0,0,0-17.09155,33.20661c0,6.11719-.00024,9.56561-.00073,26.31952a64.80774,64.80774,0,0,0,19.49016,46.42646,7.69659,7.69659,0,0,1-3.04446,12.82424l-.12343.03726-61.81641,18.438a15.91076,15.91076,0,0,0-3.3916,5.64831c-4.43824,12.18537,6.68335,16.23462,2.24487,28.42-4.43774,12.1839-15.55933,8.13464-19.99707,20.3186l248.5564-22.57666C369.74365,443.08142,380.86523,439.03217,376.42725,426.84827Z"/><path fill="#2c2c2e" d="M376.42725,426.84827c-4.43824-12.18537-15.55982-8.13611-19.99805-20.32148-4.43848-12.18554,6.6831-16.23486,2.24487-28.42041-4.43823-12.18536-15.55981-8.1361-19.99829-20.32153-4.43848-12.186,6.68311-16.23523,2.24463-28.4212-4.43921-12.18769-15.56079-8.13843-20-20.32605-4.439-12.18769,6.68262-16.23694,2.24341-28.42462l-13.134,3.24188c1.61474,9.78088-7.13013,14.14349-3.10938,25.18274,4.43921,12.18762,15.56079,8.13836,20,20.32605,4.43848,12.186-6.68311,16.23523-2.24463,28.4212,4.43848,12.18543,15.56006,8.13617,19.99829,20.32153,4.43823,12.18555-6.68335,16.23487-2.24487,28.42041,4.43823,12.18537,15.55981,8.13611,19.99805,20.32148,4.438,12.1839-6.6836,16.23315-2.24585,28.41711L126.16577,476.5213c-.18848.42023-.37109.85486-.54077,1.32074l248.5564-22.57666C369.74365,443.08142,380.86523,439.03217,376.42725,426.84827Z"/><path fill="#2c2c2e" d="M328.4939,365.30981a17.921,17.921,0,0,0,11.6997-4.335,17.85114,17.85114,0,0,1-1.51782-3.18994c-3.61474-9.92456,3.0896-14.45312,3.30518-22.37457a17.99583,17.99583,0,1,0-13.48706,29.89953Z"/><circle cx="328.494" cy="340.308" r="18.005" fill="#fee903"/><path fill="#fac600" d="M337.23291,324.5744a17.99659,17.99659,0,0,1-24.478,24.46753,18.00082,18.00082,0,1,0,24.478-24.46753Z"/><path fill="#2c2c2e" d="M180.21973,362.14526a18.00849,18.00849,0,1,0-2.05713-28.00879c-2.178,10.29041,7.084,14.59748,2.96655,25.90235A18.99753,18.99753,0,0,1,180.21973,362.14526Z"/><circle cx="190.407" cy="340.308" r="18.005" fill="#fee903"/><path fill="#fac600" d="M318.21851,268.14349a76.994,76.994,0,0,1-134.781-62.25036,66.96687,66.96687,0,0,0-12.53589,48.13275l4.80322,38.07477a112.10237,112.10237,0,0,0,25.09229,21.20446H312.52124Z"/><path fill="#fee903" d="M326.52127,306.30511H192.37977l-7.47809-59.27922a67.03,67.03,0,0,1,40.19842-70.039l34.35042-14.659,34.35043,14.659a67.03,67.03,0,0,1,40.19842,70.039Z"/><path fill="#fac600" d="M293.801,176.98688l-34.35059-14.659-7,2.98724L279.801,176.98688a67.03016,67.03016,0,0,1,40.19848,70.039l-7.47827,59.27923h14l7.47827-59.27923A67.03016,67.03016,0,0,0,293.801,176.98688Z"/><path fill="#8ac9fe" d="M102.64305,512V494.70383a59.1539,59.1539,0,0,1,42.26444-56.69348l63.67776-18.99316a19.716,19.716,0,0,0,14.08486-18.9044V380.78434h73.56083v19.32845a19.716,19.716,0,0,0,14.08486,18.9044l63.67776,18.99316A59.1539,59.1539,0,0,1,416.258,494.70383V512Z"/><path fill="#26a6fe" d="M130.90747 445.01031l63.67774-18.99316a19.6673 19.6673 0 0 0 8.75708-5.43616l-58.43482 17.42932a59.08063 59.08063 0 0 0-16.3064 7.73908Q129.74292 445.358 130.90747 445.01031zM373.99365 438.01031l-63.67773-18.99316a19.71585 19.71585 0 0 1-14.085-18.90436V380.7843H222.67017v7H282.231v19.32849a19.71585 19.71585 0 0 0 14.085 18.90436l63.67773 18.99316a59.15385 59.15385 0 0 1 42.26441 56.69349V512h14V494.7038A59.15385 59.15385 0 0 0 373.99365 438.01031z"/><path fill="#26a6fe" d="M312.771,426.74945a63.33682,63.33682,0,0,1-106.52784-.03369l-6.8645,2.04748a3.48289,3.48289,0,0,0,.34107.74848A69.959,69.959,0,0,0,256.105,462.70837a9.3709,9.3709,0,1,0,13.83984-.68133,69.98584,69.98584,0,0,0,49.229-32.28729,3.456,3.456,0,0,0,.40039-.96106Z"/><path fill="#fac600" d="M213.72705,116.63269a41.20451,41.20451,0,0,0,1.5918,31.69012c13.439-6.94531,27.72412-13.94531,44.13183-13.94531a76.57942,76.57942,0,0,1,32.62964,7.27124,41.05647,41.05647,0,0,0-3.61841-30.96911,111.98143,111.98143,0,0,0-74.73486,5.95306Z"/><ellipse cx="259.451" cy="130.568" fill="#fee903" rx="41.152" ry="41.144"/><path fill="#fac600" d="M270.50562,90.93756a41.14064,41.14064,0,0,1-36.11011,72.26038,41.14327,41.14327,0,1,0,36.11011-72.26038Z"/><path fill="#26a6fe" d="M324.41724,505.15155A90.47369,90.47369,0,0,0,342.33691,478.1a46.15745,46.15745,0,0,0,1.46485-15.17139V437.17047l.31592-1.04529-33.9104-10.108a19.61576,19.61576,0,0,1-2.16993-.80865l-.08886,1.27209v36.44794a43.35841,43.35841,0,0,1-22.37989,37.94684l-.00024.00012a54.187,54.187,0,0,1-52.45288-.00012,43.3584,43.3584,0,0,1-22.37988-37.94684V426.48065l-.15162-1.19317a19.77153,19.77153,0,0,1-1.99877.72967l-33.79883,10.08118.09594,1.07214v25.75812a49.54673,49.54673,0,0,0,1.4729,15.212A107.96619,107.96619,0,0,0,197.88135,512H317.02051A89.08467,89.08467,0,0,0,324.41724,505.15155Z"/><path fill="#fee903" d="M342.33691,471.1a46.15745,46.15745,0,0,0,1.46485-15.17139V430.17047l.31592-1.04529-33.9104-10.108a19.61576,19.61576,0,0,1-2.16993-.80865l-.08886,1.27209v36.44794a43.35841,43.35841,0,0,1-22.37989,37.94684l-.00024.00012a54.187,54.187,0,0,1-52.45288-.00012,43.3584,43.3584,0,0,1-22.37988-37.94684V419.48065l-.15162-1.19317a19.77153,19.77153,0,0,1-1.99877.72967l-33.79883,10.08118.09594,1.07214v25.75812a49.54673,49.54673,0,0,0,1.4729,15.212A108.157,108.157,0,0,0,205.0708,512H307.33691a89.78674,89.78674,0,0,0,35-40.9Z"/><path fill="#fac600" d="M196.7356 455.92859a43.3584 43.3584 0 0 0 22.37988 37.94684 54.16991 54.16991 0 0 0 33.22632 6.309 54.13137 54.13137 0 0 1-19.22632-6.309 43.3584 43.3584 0 0 1-22.37988-37.94684V419.48065l-.15162-1.19317a19.77153 19.77153 0 0 1-1.99877.72967l-11.84961 3.53436zM343.80176 430.17047l.31592-1.04529-33.9104-10.108a19.61576 19.61576 0 0 1-2.16993-.80865l-.08886 1.27209V422.517h0A30.6557 30.6557 0 0 1 329.845 452.25666l-.04328 3.67193A46.15745 46.15745 0 0 1 328.33691 471.1a89.78719 89.78719 0 0 1-35 40.9h14a89.78719 89.78719 0 0 0 35-40.9 46.15745 46.15745 0 0 0 1.46485-15.17139z"/><path fill="#26a6fe" d="M344.86991 316.01061v-.00012s.17768-6.18875.47348-13.9881a13.2023 13.2023 0 0 0-13.18963-13.70288h-12.5494v39.68072h12.12282a13.197 13.197 0 0 0 13.14273-11.98962zM199.23084 288.31952H186.49755a12.9517 12.9517 0 0 0-12.94 13.44347c.30168 7.92108.48329 14.2475.48329 14.2475v.00012l.011.11986a12.98925 12.98925 0 0 0 12.90379 11.86977h12.27521z"/><path fill="#8ac9fe" fill-rule="evenodd" d="M259.45121,396.88933H257.7709A65.23734,65.23734,0,0,1,192.263,331.72919c.00037-16.75387.00057-20.20235.00068-26.31951a40.8072,40.8072,0,0,1,17.0916-33.20662l0,0a47.62263,47.62263,0,0,1,34.03046-8.44167l16.06476,2.16282,16.06477-2.16282a47.62262,47.62262,0,0,1,34.03045,8.44167l.00006,0a40.80915,40.80915,0,0,1,17.09158,33.20764c.00011,5.3911.00029,8.42411.00063,24.29942A67.18366,67.18366,0,0,1,259.45121,396.88933Z"/><path fill="#26a6fe" fill-rule="evenodd" d="M192.26367,319.40967a40.80742,40.80742,0,0,1,17.09155-33.20661l.00025-.00006a47.62239,47.62239,0,0,1,34.03027-8.44165l16.06494,2.16284,16.0647-2.16284A47.62331,47.62331,0,0,1,309.5459,286.203v.00006a40.80946,40.80946,0,0,1,17.09155,33.20765c0,3.20715,0,5.58044.00025,10.31866l.00048-.01923c-.00048-15.8753-.00073-18.90832-.00073-24.29943a40.80946,40.80946,0,0,0-17.09155-33.20765V272.203a47.62331,47.62331,0,0,0-34.03052-8.44165l-16.0647,2.16284-16.06494-2.16284a47.62239,47.62239,0,0,0-34.03027,8.44165l-.00025.00006a40.80742,40.80742,0,0,0-17.09155,33.20661c0,6.11719-.00024,9.56561-.00073,26.31952l.00049.0169C192.26367,326.046,192.26367,323.25366,192.26367,319.40967Z"/><path fill="#26a6fe" fill-rule="evenodd" d="M326.63745,305.41071a40.80946,40.80946,0,0,0-17.09155-33.20765V272.203a47.599,47.599,0,0,0-13.67969-6.75641,40.80256,40.80256,0,0,1,16.77124,32.96412c0,5.39111.00025,8.42413.00073,24.29943a67.18389,67.18389,0,0,1-67.187,67.17914l-1.68017.00006a65.93794,65.93794,0,0,1-22.23584-3.83661A65.51142,65.51142,0,0,0,257.771,396.88934l1.68017-.00006a67.18389,67.18389,0,0,0,67.187-67.17914C326.6377,313.83484,326.63745,310.80182,326.63745,305.41071Z"/><rect width="77.099" height="20.01" x="220.901" y="165.636" fill="#fee903" rx="10.005"/><path fill="#fac600" d="M287.99512,165.63605h-4.45557a10.00879,10.00879,0,0,1-9.54443,13.00964H221.36157a10.00818,10.00818,0,0,0,9.54419,7h57.08936a10.00482,10.00482,0,1,0,0-20.00964Z"/><path fill="#fd4755" d="M278.237,133.87933l-15.1326,16.69032a4.9323,4.9323,0,0,1-7.30772,0l-15.13259-16.69032a4.93,4.93,0,0,1,0-6.62314l15.13259-16.69033a4.9323,4.9323,0,0,1,7.30772,0l15.1326,16.69033A4.93,4.93,0,0,1,278.237,133.87933Z"/><path fill="#fb2b3a" d="M278.23706,127.25616l-15.13257-16.6903a4.92136,4.92136,0,0,0-7.15405-.137c.04907.04969.10669.08478.15405.137l0,0a29.77845,29.77845,0,0,1,0,40.00374l0,0c-.04736.05219-.105.08728-.15405.137a4.92136,4.92136,0,0,0,7.15405-.137l15.13257-16.69031A4.93024,4.93024,0,0,0,278.23706,127.25616Z"/><path fill="#fac600" d="M259.45052,261.75478c-4.35777,0-7.11228-7.90313-10.90592-9.47976-3.92776-1.63236-11.45427,1.94007-14.41748-1.02262s.61016-10.48752-1.02245-14.4144c-1.5769-3.79288-9.48152-6.54683-9.48152-10.90372s7.90464-7.11092,9.48157-10.90383c1.63268-3.927-1.94044-11.45207,1.02282-14.41471s10.48953.61005,14.41717-1.02225c3.79361-1.57659,6.54808-9.4797,10.90581-9.4797s7.11229,7.90312,10.90593,9.47975c3.92775,1.63236,11.45426-1.94007,14.41748,1.02262s-.61017,10.48752,1.02244,14.4144c1.5769,3.79288,9.48153,6.54683,9.48153,10.90372s-7.90464,7.11092-9.48158,10.90383c-1.63268,3.927,1.94045,11.45207-1.02282,14.41471s-10.48953-.61005-14.41716,1.02225C266.56273,253.85167,263.80825,261.75478,259.45052,261.75478Z"/><path fill="#fd6930" d="M259.45052,254.91852c-3.5261,0-5.75492-6.39483-8.82455-7.67056-3.17816-1.32083-9.26825,1.56981-11.666-.82746s.49372-8.486-.82731-11.66345c-1.27595-3.069-7.672-5.29738-7.672-8.82277s6.39606-5.75382,7.672-8.82286c1.32109-3.17754-1.57011-9.26647.82762-11.6637s8.48763.49362,11.66569-.82715c3.0696-1.27571,5.29839-7.67053,8.82446-7.67053s5.75492,6.39483,8.82456,7.67056c3.17815,1.32084,9.26825-1.56981,11.66594.82746s-.49372,8.486.82731,11.66345c1.276,3.069,7.672,5.29738,7.672,8.82277s-6.39606,5.75382-7.672,8.82286c-1.32108,3.17754,1.57012,9.26647-.82761,11.6637s-8.48764-.49362-11.66569.82716C265.20538,248.5237,262.97659,254.91852,259.45052,254.91852Z"/><circle cx="259.451" cy="225.934" r="10.085" fill="#fee903"/><path fill="#fac600" d="M262.30225,216.26532a10.07229,10.07229,0,0,1-11.46509,14.89636,10.08016,10.08016,0,1,0,11.46509-14.89636Z"/><circle cx="263.336" cy="461.667" r="9.369" fill="#fee903"/><path fill="#fac600" d="M266.20752,452.75085a9.36189,9.36189,0,0,1-11.72461,11.96351,9.36631,9.36631,0,1,0,11.72461-11.96351Z"/><path fill="#26a6fe" d="M417.68945,456.4043,393.273,480.27649,399.8855,512h26.82471V487.80078A59.04529,59.04529,0,0,0,417.68945,456.4043Z"/><path fill="#fee903" d="M330.0918,512V424.9242a5.91346,5.91346,0,0,1,7.60464-5.67034l39.74929,11.85347a59.1539,59.1539,0,0,1,42.26443,56.69348V512Z"/><path fill="#fac600" d="M377.4458,431.1073l-39.74927-11.85345a5.91352,5.91352,0,0,0-7.60473,5.67034V428.161l33.354,9.94635a59.15385,59.15385,0,0,1,42.26441,56.69348V512h14V487.80078A59.15385,59.15385,0,0,0,377.4458,431.1073Z"/><path fill="#fd6930" d="M357.70923,425.22174l-20.0127-5.96789a5.91352,5.91352,0,0,0-7.60473,5.67034V512h27.61743Z"/><path fill="#fd5426" d="M357.70923,425.22174l-20.0127-5.96789a5.91352,5.91352,0,0,0-7.60473,5.67034V428.161l27.61743,8.23566Z"/><path fill="#26a6fe" d="M94.49219,457.0321a59.03682,59.03682,0,0,0-9.20557,31.6858V512H111.6333l6.6333-31.72351Z"/><path fill="#fee903" d="M188.80924,512V424.75655a5.918,5.918,0,0,0-7.49614-5.69991L135.66553,431.699a59.1639,59.1639,0,0,0-43.379,57.01891V512Z"/><path fill="#fd6930" d="M181.313,419.05664l-20.1189,5.572V512h27.61524V424.75653A5.91815,5.91815,0,0,0,181.313,419.05664Z"/><path fill="#fee903" d="M450,431.07092h0a9.90356,9.90356,0,0,1,9.90356,9.90356v45.55322A9.90356,9.90356,0,0,1,450,496.43125h0a9.90355,9.90355,0,0,1-9.90355-9.90355V440.97447A9.90356,9.90356,0,0,1,450,431.07092Z" transform="rotate(-36.117 450 463.751)"/><path fill="#fac600" d="M471.42554,476.31287,444.575,439.51428a9.83817,9.83817,0,0,0-15.00024-1.15259,9.93058,9.93058,0,0,1,1.00024,1.15259l26.85059,36.79859a9.897,9.897,0,0,1-1.00025,12.82757,9.89752,9.89752,0,0,0,15.00025-12.82757Z"/><rect width="19.807" height="65.36" x="52.096" y="431.071" fill="#fee903" rx="9.904" transform="rotate(-143.883 62 463.751)"/><path fill="#fac600" d="M81.2627,437.3515a9.89694,9.89694,0,0,0-12.83741,1.01019,9.897,9.897,0,0,1,1.00025,12.82758L42.575,487.98785a9.92892,9.92892,0,0,1-1.00024,1.15259A9.83817,9.83817,0,0,0,56.575,487.98785l26.85059-36.79858A9.90366,9.90366,0,0,0,81.2627,437.3515Z"/><path d="M253.18153,152.90479a8.43173,8.43173,0,0,0,12.49316.00048l15.13281-16.69043.001-.001a8.40324,8.40324,0,0,0-.001-11.32422l-15.13281-16.68994a8.43172,8.43172,0,0,0-12.49316-.00049l-15.13281,16.68994a8.4,8.4,0,0,0,0,11.32568Zm-9.94727-23.313,15.13281-16.69092a1.43271,1.43271,0,0,1,2.12207.00049L275.622,129.59131a1.42652,1.42652,0,0,1-.001,1.92236l-15.13184,16.68994a1.43271,1.43271,0,0,1-2.12207-.00049L243.23426,131.5127A1.42464,1.42464,0,0,1,243.23426,129.5918Zm27.66113,230.8247a20.68511,20.68511,0,0,1-22.93261.00147,3.49979,3.49979,0,1,0-3.86914,5.833,27.7366,27.7366,0,0,0,14.68164,4.62744q.32373.00732.64355.00781a28.12225,28.12225,0,0,0,15.3418-4.63379,3.49994,3.49994,0,1,0-3.86524-5.83594Zm-21.0498-50.06,4.65527,3.35253a8.42647,8.42647,0,0,0,9.85547-.00048l4.65235-3.35157a8.44879,8.44879,0,0,0,3.50586-6.84179V280.89893a3.5,3.5,0,1,0-7,0v22.61621a1.43039,1.43039,0,0,1-.59571,1.16064l-4.65332,3.35156a1.42938,1.42938,0,0,1-1.67383.00049l-4.65625-3.35254a1.43225,1.43225,0,0,1-.59375-1.16015V280.89893a3.5,3.5,0,0,0-7,0v22.61621A8.45068,8.45068,0,0,0,249.84559,310.35645Zm-81.19922-93.07618c.02637-2.24267.13672-4.50781.32715-6.73193a3.5,3.5,0,0,0-6.97461-.59668c-.20508,2.394-.32324,4.83105-.35254,7.24463a3.5,3.5,0,0,0,3.458,3.5415l.043.00049A3.50066,3.50066,0,0,0,168.64637,217.28027Zm3.62305,26.60791a3.49994,3.49994,0,0,0-6.71875,1.96387c.67676,2.31641,1.44922,4.63281,2.29492,6.88525a3.49963,3.49963,0,1,0,6.55273-2.46C173.61414,248.1875,172.89735,246.0376,172.26942,243.88818Zm4.09668-70.28125a3.4989,3.4989,0,0,0-4.6875,1.58985c-1.06543,2.15869-2.0625,4.38525-2.96387,6.61816a3.50048,3.50048,0,1,0,6.49219,2.62012c.83594-2.07178,1.76074-4.1377,2.749-6.14063A3.5,3.5,0,0,0,176.3661,173.60693Zm14.35254-16.273a3.48973,3.48973,0,0,0,2.55078-1.10253c1.53515-1.63233,3.14746-3.22559,4.79394-4.73536a3.4998,3.4998,0,0,0-4.73047-5.15918c-1.77343,1.626-3.51074,3.3418-5.16308,5.09961a3.5,3.5,0,0,0,2.54883,5.89746ZM304.578,307.35889a15.72634,15.72634,0,0,1-8.957,2.59521,15.52923,15.52923,0,0,1-8.22168-2.59424,3.50033,3.50033,0,0,0-3.87109,5.833,22.53441,22.53441,0,0,0,11.92871,3.75928c.17578.0039.34961.00635.52344.00635a22.848,22.848,0,0,0,12.46484-3.76465,3.50007,3.50007,0,1,0-3.86719-5.835Zm-73.11914,0a15.74763,15.74763,0,0,1-8.957,2.59521,15.52923,15.52923,0,0,1-8.22168-2.59424,3.50033,3.50033,0,0,0-3.87109,5.833,22.5301,22.5301,0,0,0,11.92871,3.75928c.17578.00439.34961.00635.52344.00635a22.848,22.848,0,0,0,12.46484-3.76465,3.50007,3.50007,0,1,0-3.86719-5.835ZM83.07606,123.91992l-4.56055-4.56006a3.5,3.5,0,0,0-4.94922,4.9502l4.56055,4.56006a3.5,3.5,0,0,0,4.94922-4.9502Zm164.9082-84.19678a3.5,3.5,0,0,0,4.94922-4.95019l-4.90137-4.90088a3.5,3.5,0,0,0-4.94922,4.9502ZM176.49207,75.72656a3.49016,3.49016,0,0,0,2.47461-1.0249l4.63086-4.62939a3.5,3.5,0,1,0-4.94922-4.9502l-4.63085,4.62939a3.49976,3.49976,0,0,0,2.4746,5.9751ZM156.828,74.63184a3.5,3.5,0,1,0,4.94922-4.9502l-4.56055-4.55957a3.5,3.5,0,1,0-4.94921,4.9502Zm111.82617-33.958a3.4902,3.4902,0,0,0,2.47461-1.0249l4.82813-4.82666a3.5,3.5,0,1,0-4.94922-4.9502l-4.82813,4.82666a3.49976,3.49976,0,0,0,2.47461,5.9751ZM97.7909,129.96484a3.49016,3.49016,0,0,0,2.47461-1.0249l4.63086-4.62988a3.5,3.5,0,1,0-4.94922-4.9502l-4.63086,4.62989a3.49976,3.49976,0,0,0,2.47461,5.97509ZM339.88954,74.70166a3.5,3.5,0,1,0,4.94921-4.9502l-4.63086-4.62939a3.5,3.5,0,1,0-4.94921,4.9502ZM490.51649,254.67773a44.9513,44.9513,0,0,0-14.45166-6.4685c-.08911-.0282-.17139-.06824-.26416-.0896-.07007-.01624-.13965-.01489-.20947-.02673a57.63154,57.63154,0,0,0-23.4751-.52942,3.50254,3.50254,0,0,0-1.93555,1.07226c-2.10742,2.293-12.457,14.56153-9.23828,30.97949a36.00116,36.00116,0,0,0,2.7124,8.21515,21.20323,21.20323,0,0,0-12.61377,12.5998l-2.21972,6.02734a25.14188,25.14188,0,0,0,6.42968,27.09961l6.437,6.02331.04467,31.91034a3.40479,3.40479,0,0,0,.002,1.47034l.0332,23.68848a2.12076,2.12076,0,0,0,.00122.84832l.03857,27.71937a6.319,6.319,0,0,1-1.916,4.54345l-2.28247,2.23A13.35826,13.35826,0,0,0,423.18446,446.101l-9.27295,9.07025A62.86439,62.86439,0,0,0,380.50868,428.407a22.30238,22.30238,0,0,0-.8125-2.77032c-2.68555-7.37158-7.667-9.97656-11.66993-12.06934-3.67382-1.9209-6.57617-3.438-8.33007-8.251-1.75586-4.8208-.50977-7.84961,1.06836-11.68506,1.71777-4.17481,3.85644-9.3711,1.17187-16.73242-2.67773-7.37159-7.65918-9.97705-11.66113-12.07081-3.57862-1.872-6.42139-3.36968-8.18946-7.90753a21.4556,21.4556,0,0,0,2.21973-31.15741,16.66474,16.66474,0,0,0,4.02734-9.44824c.00684-.07324.01075-.14648.01368-.21973,0-.00506.09668-3.38537.26635-8.28833a105.16453,105.16453,0,0,0,100.35425-89.67157c19.79224-9.86059,32.96045-34.10943,32.96045-61.09088,0-19.66284-6.83472-37.7962-18.39258-50.10522a13.65414,13.65414,0,0,0-12.958-9.26489H408.66786a13.68377,13.68377,0,0,0-5.54151,1.17132c-.84912-17.83893-7.39013-34.38873-18.25805-46.03174a13.64566,13.64566,0,0,0-12.99146-9.37347H329.97059c-.1311,0-.25928.0177-.38989.02142-.05884-.00293-.114-.01751-.17359-.01751a3.4501,3.4501,0,0,0-.49145.054,13.60237,13.60237,0,0,0-11.92944,9.29352c-1.14356,1.22369-2.228,2.52728-3.2837,3.86633-2.3247-15.437-8.74633-29.48962-18.43164-39.85247A14.23906,14.23906,0,0,0,281.70008,6.981H237.33973c-.13867,0-.27392.01867-.41211.02264-.06421-.00354-.12524-.01922-.19043-.01922a3.47131,3.47131,0,0,0-.60083.06268,14.19764,14.19764,0,0,0-12.35669,9.72253C214.0492,27.1759,207.61024,41.3147,205.31117,56.8493c-1.10743-1.41943-2.24585-2.79614-3.44751-4.077a13.60468,13.60468,0,0,0-11.88233-9.27173,3.46935,3.46935,0,0,0-.53418-.05627c-.05908,0-.11426.01452-.17285.01745-.13013-.00366-.25806-.02136-.38867-.02136H146.9784a13.64422,13.64422,0,0,0-12.99048,9.37335c-10.86889,11.64191-17.40991,28.192-18.259,46.03186a13.68372,13.68372,0,0,0-5.5415-1.17132H68.27723a13.64956,13.64956,0,0,0-12.9956,9.3825c-11.668,12.50586-18.354,30.66187-18.354,49.98761,0,26.97168,13.16577,51.22126,32.95386,61.09156a103.51554,103.51554,0,0,0,8.47607,28.50714,138.41953,138.41953,0,0,0-27.887-2.63776c-12.87891,0-25.0332,1.49854-34.22266,4.21973-13.44726,3.98193-16.2705,9.373-16.2705,13.19482s2.82324,9.21289,16.2705,13.19483A113.03493,113.03493,0,0,0,41.037,278.56061v7.07367a1.45181,1.45181,0,0,1-1.20508,1.41406,23.8451,23.8451,0,0,0-8.24024,3.22559c-10.71191,6.75341-13.38379,20.58789-11.332,30.58593a31.37962,31.37962,0,0,0,13.69141,19.79468L16.96668,441.13232a33.07734,33.07734,0,0,0,9.49414,29.15479l9.0315,8.827a13.40789,13.40789,0,0,0,5.15991,13.84826h-.001a13.32984,13.32984,0,0,0,7.88282,2.5708,13.50717,13.50717,0,0,0,3.313-.425l16.25439,15.87964A3.5002,3.5002,0,1,0,72.994,505.981L58.14735,491.47644a13.41217,13.41217,0,0,0,1.23242-1.44128l26.58838-36.43891,8.74975,8.54938a62.30721,62.30721,0,0,0-5.95434,26.55652v19.78223a3.5,3.5,0,0,0,7,0V488.70215A55.82754,55.82754,0,0,1,136.578,435.05664l21.09375-5.84222v79.27a3.5,3.5,0,0,0,7,0V427.27563l17.55469-4.86206a2.37055,2.37055,0,0,1,2.10547.40577,2.3953,2.3953,0,0,1,.95508,1.92138v83.74366a3.5,3.5,0,0,0,7,0V427.5127l14.93066-4.45313v32.855a46.88642,46.88642,0,0,0,24.18652,41.01318,57.74873,57.74873,0,0,0,55.83692-.00048,46.85266,46.85266,0,0,0,24.18652-41.0127V422.99432l15.1416,4.51874v80.97132a3.5,3.5,0,0,0,7,0V424.90869a2.41375,2.41375,0,0,1,3.1045-2.3164l17.51269,5.22247v80.66962a3.5,3.5,0,0,0,7,0V429.90216l15.23633,4.54364a56.00215,56.00215,0,0,1,39.76465,53.33936v20.69922a3.5,3.5,0,0,0,7,0V487.78516a62.0986,62.0986,0,0,0-5.82862-26.19446l8.43848-8.254,26.77783,36.699a13.45086,13.45086,0,0,0,1.00342,1.21271L438.50086,505.981a3.5002,3.5002,0,0,0,4.89258,5.00683l16.35864-15.98425a13.50609,13.50609,0,0,0,3.66871.52966A13.39347,13.39347,0,0,0,476.371,478.7558l8.66309-8.4682a33.08024,33.08024,0,0,0,9.49414-29.15674l-17.26758-102.152.6123-7.60284a19.24406,19.24406,0,0,0-10.30273-18.64063.49309.49309,0,0,1-.165-.73486l.56934-.7544a15.331,15.331,0,0,0,2.79736-6.23718l.07471.00379c4.19922.19873,8.54.4038,13.78027,2.51709,6.59277,2.66162,12.46094,7.51074,17.44238,14.41308.02222.03088.053.05261.07617.08258a3.476,3.476,0,0,0,.40625.441c.0542.04944.10694.09833.16358.14417a3.51651,3.51651,0,0,0,.58105.38775c.03711.01917.07666.03107.11426.04889a3.49936,3.49936,0,0,0,.57446.21222c.065.01776.12867.03449.19458.04852a3.45614,3.45614,0,0,0,.72852.087,3.49184,3.49184,0,0,0,.49414-.03693l.01563-.00116c.05712-.00842.11132-.02557.16772-.03674.0874-.01733.17481-.02978.262-.05408l.019-.00744a3.48543,3.48543,0,0,0,.56933-.222c.05664-.02746.11035-.05768.165-.08783a3.51663,3.51663,0,0,0,.38452-.2478c.04395-.03253.09033-.06122.13257-.09564a3.50552,3.50552,0,0,0,.40674-.39313c.04272-.04858.08057-.1.1206-.15076a3.46007,3.46007,0,0,0,.23926-.34234c.03491-.057.071-.11237.10254-.17127a3.47561,3.47561,0,0,0,.22852-.51123l.00268-.00836.01978-.0603C517.11463,295.16541,509.83338,267.91406,490.51649,254.67773ZM328.46766,354.79443a14.584,14.584,0,0,1-2.83008-.2857,70.54324,70.54324,0,0,0,4.43408-23.02435H331.705a16.747,16.747,0,0,0,6.93432-1.504,14.47934,14.47934,0,0,1-10.17163,24.81408Zm-5.35254-26.48065v1.38056A63.508,63.508,0,0,1,317.81,355.18018c-.00342.00732-.00879.01312-.01221.0205-.0044.00977-.00586.02008-.01026.02985a63.61872,63.61872,0,0,1-13.3247,19.49115,64.27623,64.27623,0,0,1-10.1001,8.23c-.05542.03467-.11157.0669-.16479.10449a63.24437,63.24437,0,0,1-34.76929,10.31733h-1.68067c-34.1914,0-62.00781-27.66065-62.00781-61.66016l.001-24.54669a3.48094,3.48094,0,0,0,.08887-1.31024l-.083-.65754a37.37692,37.37692,0,0,1,15.62011-30.16327,43.94159,43.94159,0,0,1,25.59375-8.22021,44.5052,44.5052,0,0,1,5.93555.39893l16.06445,2.16308a3.47534,3.47534,0,0,0,.9336,0l16.06543-2.16308a43.97151,43.97151,0,0,1,31.52929,7.82128,37.38133,37.38133,0,0,1,15.61963,30.15119l-.08447.66962a3.47927,3.47927,0,0,0,.09082,1.32153v20.477c-.0105.11011-.0332.21655-.0332.32941S323.10462,328.20367,323.11512,328.31378ZM167.15321,117.2251a3.50018,3.50018,0,0,0,3.5-3.5v-7.12793h2.70117a24.454,24.454,0,0,0,10.95312-2.59552v27.27521a115.61054,115.61054,0,0,0-28.8164,37.85571,53.19589,53.19589,0,0,1-3.9336-20.07837V104.00195a24.45455,24.45455,0,0,0,10.95313,2.59522h1.14258v7.12793A3.50017,3.50017,0,0,0,167.15321,117.2251ZM151.83,177.716a114.78666,114.78666,0,0,0,1.40234,84.99646,94.69519,94.69519,0,0,1-37.13037-49.26092c15.18384-11.40454,24.706-31.65131,25.3706-53.92346a49.74542,49.74542,0,0,0,4.61817,3.02453A59.78243,59.78243,0,0,0,151.83,177.716Zm-.47266,40.67853a108.244,108.244,0,0,1,64.8418-99.03363,44.80826,44.80826,0,0,0,2.522,29.57983,80.41657,80.41657,0,0,0-39.84326,69.4538q0,1.01807.02929,2.03711c.002.23584.01172.48145.02442.73779l.00488.15821c.00488.15674.01074.31152.02148.46533v.05127c0,.04053.001.081.002.12207.01074.29443.02148.5791.04.86279.00195.05664.00488.11426.00879.17529.001.03516.00195.07081.0039.106.03223.59815.0752,1.18457.124,1.69336.03125.436.06445.86182.11523,1.29688.02246.32568.05371.64355.09473.96045.03515.39843.0791.78222.124,1.08789.05859.50439.125,1,.2002,1.49462.01269.15674.03222.31348.06054.46973.05957.44385.13477.8877.21192,1.32276v.00146c.05566.38428.12109.75781.18945,1.1499.11816.64942.23535,1.28858.3584,1.85254.1206.62262.25342,1.23541.40014,1.84747a70.34158,70.34158,0,0,0,.51392,11.16474l4.71484,37.3692a16.25739,16.25739,0,0,0-9.3457,3.16315A107.81564,107.81564,0,0,1,151.35731,218.39453ZM260.34364,84.67578a3.50017,3.50017,0,0,0,3.5-3.5v-7.75h1.415a25.67835,25.67835,0,0,0,11.79882-2.88013V89.53943a44.59459,44.59459,0,0,0-35.08007-.08142V70.54327a25.67576,25.67576,0,0,0,11.80273,2.88251h3.06348v7.75A3.50017,3.50017,0,0,0,260.34364,84.67578Zm-.916,8.22852a37.68439,37.68439,0,0,1,33.0752,55.67968c-.02613.04444-.06055.081-.085.127-.02442.04571-.032.09491-.0542.14117a37.606,37.606,0,0,1-12.45752,13.2685h-40.958a37.60942,37.60942,0,0,1-12.45459-13.26343c-.023-.048-.031-.09888-.05615-.14624-.02539-.04785-.061-.086-.08838-.13214a37.68384,37.68384,0,0,1,33.07861-55.6745ZM341.72987,304.407c-.20679,5.67945-.34741,10.30072-.37647,11.36109a9.64763,9.64763,0,0,1-4.05615,6.9497c-.04761.028-.09082.06348-.13721.09375a9.68305,9.68305,0,0,1-5.45507,1.67286h-1.58985v-18.905l1.73828-13.77564h.27735a9.70357,9.70357,0,0,1,9.69336,10.07031c-.03174.83393-.062,1.65357-.09131,2.45307-.00025.01886-.00537.03631-.00537.05523C341.72743,304.39075,341.72987,304.39856,341.72987,304.407ZM320.577,259.19531c-.37207.562-.75293,1.10449-1.12207,1.63086-.78614,1.106-1.59864,2.18408-2.44922,3.251-.34473.44726-.709.88476-1.08008,1.333-.38867.47168-.78711.93408-1.21973,1.41748-.94067,1.07263-1.80908,2.00934-2.66577,2.879-.16309-.12-.31763-.24939-.48267-.36731a50.94011,50.94011,0,0,0-36.53125-9.0625L259.42762,262.377,243.83,260.27686a50.94368,50.94368,0,0,0-36.53125,9.0625c-.166.11859-.32129.24871-.4856.36944-.38208-.39038-.76318-.7821-1.13355-1.17853-.791-.85009-1.5625-1.71728-2.34082-2.63574-.11035-.124-.21875-.25537-.38378-.45215-.375-.44922-.74024-.90869-1.15528-1.42968-.41015-.50342-.81055-1.02588-1.209-1.55713-.3584-.47461-.707-.95752-1.05664-1.44092l-.03907-.05274-.00195-.0039-.001-.002-.00488-.00683-.001-.002c-.02149-.03223-.043-.064-.06543-.09522-.36524-.521-.73145-1.042-1.11719-1.62207l-.03321-.05029c-.34472-.51221-.67968-1.01514-1.01367-1.54688l-.00976-.0166-.19727-.313-.00879-.01513c-.30957-.50293-.61816-1.00538-.92187-1.51319l-.01563-.02636-.01562-.02637-.01465-.0249-.00195-.00293-.0127-.02149-.00488-.00781-.00977-.01563-.00781-.01367-.00586-.00976-.01269-.02149-.001-.00195c-.17578-.29492-.34961-.59473-.5293-.91162-.11914-.20947-.23633-.4209-.35351-.63428l-.18653-.33838c-.19433-.34961-.38672-.69775-.54883-1.00928l-.12011-.23c-.03711-.07373-.07715-.14648-.11914-.21777-.01758-.03613-.03614-.07227-.05469-.10742-.292-.55469-.57324-1.11865-.85547-1.70361-.292-.59278-.57519-1.20459-.84668-1.80713-.00781-.01661-.01562-.03321-.02246-.04932-.00488-.00342-.00195-.00293-.00195-.00391-.02051-.042-.041-.084-.0625-.12548-.56153-1.25489-1.05078-2.4253-1.4961-3.57813-.19336-.49951-.38867-1.00781-.59375-1.59912-.16308-.43408-.3164-.86768-.48242-1.37354-.14258-.40966-.28613-.82812-.42871-1.30566l-.08008-.25c-.09472-.2998-.18945-.59521-.30176-.97656-.03906-.12061-.07714-.24707-.10937-.374-.01465-.05908-.03027-.11767-.04883-.17627-.125-.40869-.23926-.82617-.34668-1.24365-.00781-.0332-.01758-.06689-.02734-.1001q-.14062-.48925-.25684-.97851c-.01172-.04688-.02344-.09326-.03613-.13965-.06177-.21814-.11768-.44354-.17627-.69922a63.63648,63.63648,0,0,1,31.97-52.21527,13.48605,13.48605,0,0,0,10.98267,5.67523h57.08886a13.487,13.487,0,0,0,10.98218-5.6745,63.63663,63.63663,0,0,1,31.96851,52.19849q-.16113.67539-.33057,1.34271l-.00879.03321c-.01465.04931-.0293.09912-.042.14941-.15918.60644-.32715,1.2124-.50391,1.81006-.01953.05615-.03808.11572-.05566.17383l-.02344.06982v.00049c-.00781.02441-.01465.04931-.02246.07373v.001l-.00293.00927v.00147l-.00293.00927v.00147l-.00293.00879-.001.00439c-.08007.28809-.166.57618-.25683.85987-.02734.085-.05664.17334-.08692.2666l-.00976.03125-.001.001-.002.00635-.001.00342-.001.00391-.002.00683-.001.001-.01563.05322c-.03808.10108-.07129.20459-.09961.3086-.06152.22558-.13672.45068-.21875.66894-.01758.0459-.0332.09229-.04883.13867-.167.5083-.34179,1.0166-.52734,1.51514-.01367.0376-.02637.07471-.03906.1123-.12305.36914-.26465.7378-.42285,1.15332l-.00684.019-.002.00635-.002.0039c-.0498.13526-.09961.27149-.1582.42139-.03613.0957-.07519.19531-.11816.30224-.19434.499-.39844,1.00733-.62989,1.54346-.25878.62256-.53711,1.24561-.80664,1.85059-.32226.709-.65234,1.40869-1.02929,2.16406-.30664.63965-.63086,1.271-.98535,1.92969-.23145.436-.46387.87256-.73536,1.35449-.30859.56982-.63672,1.13037-.96289,1.68115V255.75c-.0166.02881-.03418.05859-.05078.08789-.24707.41162-.49609.81641-.80273,1.30127-.12012.19922-.23828.39941-.36621.59082l-.02149.0332c-.02051.0293-.04.05957-.05957.08985v-.00049C321.17274,258.29688,320.88954,258.73145,320.577,259.19531ZM177.13416,304.34637c-.03247-.88464-.0664-1.79742-.10205-2.73211a9.45246,9.45246,0,0,1,9.44239-9.81055h.52661l1.70678,13.52777v19.1529h-1.77441a9.46416,9.46416,0,0,1-9.41992-8.69532c-.02124-.74878-.15918-5.39666-.37769-11.39056l.00171-.01618C177.13758,304.37,177.13416,304.35864,177.13416,304.34637ZM224.37879,175.625a6.512,6.512,0,0,1,6.50489-6.50439H238.036c.00854-.00031.01685.00036.02515,0h42.854c.01172.00012.02319.00439.03491.00439.02173,0,.04346-.004.06494-.00439h6.95752a6.50464,6.50464,0,1,1,0,13.00927H230.88368A6.51211,6.51211,0,0,1,224.37879,175.625Zm77.03907,1.17725c.03369-.38874.05957-.77985.05957-1.17725a13.5274,13.5274,0,0,0-10.76685-13.22443,44.32271,44.32271,0,0,0,6.05591-7.31781,73.43621,73.43621,0,0,1,35.90625,56.71875A70.5382,70.5382,0,0,0,301.41786,176.80225ZM222.08827,155.083a44.31163,44.31163,0,0,0,6.05615,7.31787,13.52756,13.52756,0,0,0-10.76563,13.22461c0,.39685.02588.78753.05957,1.17578a70.53756,70.53756,0,0,0-31.25586,34.99945A73.43438,73.43438,0,0,1,222.08827,155.083ZM180.16346,330.02087a16.41383,16.41383,0,0,0,6.77,1.46351h1.80664v.229a68.02207,68.02207,0,0,0,3.95532,22.88251,14.431,14.431,0,0,1-16.81762-14.30146A14.364,14.364,0,0,1,180.16346,330.02087Zm9.76123-70.96771c.06055.103.1211.20538.18262.30719.32226.55029.64453,1.09033.98633,1.62012.06152.102.13183.2124.22656.36084.376.60107.76269,1.1914,1.12793,1.72412.39258.59912.80566,1.19873,1.22851,1.78809.0254.03906.05176.07763.07813.11621.40234.5708.82617,1.14257,1.24219,1.69433l.01074.01416.02637.03516.01562.02.001.001c.30664.40869.61816.81591.916,1.19335q.19336.2439.38672.48291c.39649.50831.8125,1.01954,1.28614,1.58692.15234.18262.30468.36377.40722.479.79981.94385,1.64356,1.89307,2.5127,2.82715.3103.3324.63257.65967.95093.98859a44.41313,44.41313,0,0,0-7.84986,10.83563,3.46589,3.46589,0,0,0-.4668-.166ZM317.341,274.28784c.84253-.86719,1.7002-1.78674,2.6023-2.81616.47265-.52686.93554-1.06445,1.37793-1.603.417-.50146.832-1.00439,1.1914-1.4707.89453-1.12109,1.78614-2.30371,2.65918-3.53223.41992-.59717.83789-1.19433,1.22559-1.78271.32031-.47363.6289-.94727.9375-1.43067l.02637-.04c.1914-.28613.37109-.58349.499-.79882.29687-.4668.584-.93311.86914-1.40967.01953-.03272.03906-.06592.05762-.09912.04785-.081.09448-.16211.14233-.24335L325.66346,284.941a3.48415,3.48415,0,0,0-.4834.1593A44.41452,44.41452,0,0,0,317.341,274.28784Zm24.66675,13.76709a16.49426,16.49426,0,0,0-9.27466-3.22131l.99829-7.91181a3.47507,3.47507,0,0,0,4.6875-.88421c1.42383-1.94629,2.79-3.96875,4.06153-6.01074a3.49971,3.49971,0,1,0-5.94141-3.7002q-.88184,1.41531-1.8252,2.81085l2.73633-21.68487a70.328,70.328,0,0,0,.51319-11.17969c.12622-.55341.2539-1.10571.3706-1.66553.00684-.0332.0127-.06592.01856-.09912l.02832-.13476c.02148-.10108.043-.20215.06152-.30567.0918-.43945.17383-.86963.24609-1.30859.00684-.03467.0127-.06885.01856-.103.07422-.36865.13086-.73779.18555-1.10937.09375-.52833.17773-1.06446.24511-1.55567.09571-.62891.18164-1.26953.251-1.86865.0459-.34912.08887-.69824.11328-.9668q.06885-.56469.10449-1.1289l.04883-.48243c.02344-.2041.03809-.4082.05078-.603.002-.022.00488-.04395.00684-.06592q.08056-.87231.1289-1.74512c.00391-.06494.00586-.07617.00586-.1416.00293-.05273.00489-.10547.00684-.1582.01855-.27637.03027-.562.041-.85987.001-.042.002-.08447.002-.12646V221.793c.01074-.15381.0166-.30859.02148-.46533l.00489-.15088c.01171-.24317.02148-.49707.02343-.74219q.03077-1.02027.03028-2.04a80.41737,80.41737,0,0,0-39.844-69.4541,44.81167,44.81167,0,0,0,2.522-29.57953,108.00726,108.00726,0,0,1,39.3523,168.694ZM351.702,117.2251a3.50018,3.50018,0,0,0,3.5-3.5v-7.12793h1.14355a24.45566,24.45566,0,0,0,10.95215-2.59473V149.0542a53.316,53.316,0,0,1-3.9314,20.08484,115.61405,115.61405,0,0,0-28.8186-37.86133V104.0014a24.45583,24.45583,0,0,0,10.9541,2.59577h2.7002v7.12793A3.50017,3.50017,0,0,0,351.702,117.2251Zm21.06323,45.32715a49.75007,49.75007,0,0,0,4.593-3.00666c.66772,22.26935,10.21533,42.50641,25.39819,53.90845a94.77289,94.77289,0,0,1-37.137,49.267,114.795,114.795,0,0,0,1.41064-84.99A60.05206,60.05206,0,0,0,372.76527,162.55225Zm70.26489,43.95654a98.13436,98.13436,0,0,1-94.22778,94.2724,16.48094,16.48094,0,0,0-2.10865-7.42432,114.93867,114.93867,0,0,0,13.33106-19.10345,101.91045,101.91045,0,0,0,53.936-80.47022l3.30567-33.96362a24.51393,24.51393,0,0,0,6.9414,1.01489h2.69532v7.12842a3.5,3.5,0,0,0,7,0v-7.12842h1.14453a24.46576,24.46576,0,0,0,9.82983-2.07049Zm20.32275-88.7168c7.3545,10.56867,11.57471,24.402,11.57471,39.25244,0,22.43933-9.85693,42.6698-25.0498,52.51612q.09009-1.38721.14648-2.78076l2.0437-52.81824a24.46131,24.46131,0,0,0,7.12232-13.27112Zm-60.26855-10.09991a6.69331,6.69331,0,0,1,5.5835-3.01776h41.43261a46.4832,46.4832,0,0,1,7.12769,5.80877,6.71835,6.71835,0,0,1-.0437,2.10529L452.3036,139.438a17.49709,17.49709,0,0,1-6.00806,10.31872c-.01269.01148-.02759.02033-.04028.032a17.505,17.505,0,0,1-11.20752,4.04571H424.20789A17.5303,17.5303,0,0,1,406.95106,139.439l-4.542-25.00677Q402.88039,111.10745,403.08436,107.69208Zm-3.02,32.99884a24.48369,24.48369,0,0,0,10.47656,15.97229L406.994,193.10547a96.21743,96.21743,0,0,1-2.1897,13.03778c-12.74194-10.81043-20.48706-29.12494-20.48706-49.09882,0-1.24243.04248-2.48516.10547-3.71881a65.82729,65.82729,0,0,0,13.84619-22.521ZM384.63416,63.638c7.43433,10.699,11.59327,24.53839,11.59327,39.17645,0,18.44483-6.57862,35.34229-17.43238,46.28669a3.47982,3.47982,0,0,0-.324.30914,46.96994,46.96994,0,0,1-4.3208,3.81384q.14391-2.07825.14746-4.16992V98.76062a24.442,24.442,0,0,0,6.1875-12.307ZM324.81629,52.85205a6.69521,6.69521,0,0,1,5.1543-2.41162h41.90625a6.71131,6.71131,0,0,1,6.60449,7.91064l-4.88281,26.85059a17.52571,17.52571,0,0,1-17.25293,14.39551H345.50184a17.4948,17.4948,0,0,1-11.96655-4.73224c-.0188-.019-.0398-.03516-.05908-.05377a17.47393,17.47393,0,0,1-5.2273-9.6095L323.3661,58.35107A6.69362,6.69362,0,0,1,324.81629,52.85205ZM314.64588,67.70978q1.21949-2.09748,2.5708-4.05164l4.14551,22.79547a24.44111,24.44111,0,0,0,6.18555,12.30487v26.932a114.36323,114.36323,0,0,0-24.34839-13.69861,81.44712,81.44712,0,0,0,11.488-42.36737C314.68739,68.98364,314.6598,68.348,314.64588,67.70978Zm-19.5581-40.05963c8.072,11.41845,12.59961,26.26483,12.59961,41.97436a74.64008,74.64008,0,0,1-9.99121,37.95465A44.9951,44.9951,0,0,0,284.0575,93.33685V65.25513A25.66538,25.66538,0,0,0,290.61024,52.272ZM231.72645,16.60742a7.2915,7.2915,0,0,1,5.61328-2.62646h44.36035a7.30956,7.30956,0,0,1,7.19239,8.61523l-5.16895,28.42334a18.75677,18.75677,0,0,1-18.46484,15.40625H253.78016a18.75831,18.75831,0,0,1-18.46484-15.40625l-5.168-28.42334A7.28685,7.28685,0,0,1,231.72645,16.60742ZM223.94837,27.631l4.48023,24.641a25.66953,25.66953,0,0,0,6.54883,12.97821V93.22137a44.99775,44.99775,0,0,0-13.73389,14.20978,74.70729,74.70729,0,0,1-9.88623-37.80664C211.35731,53.90027,215.88172,39.04816,223.94837,27.631ZM201.64466,63.629c.96753,1.398,1.87866,2.87085,2.74732,4.39349-.00977.53442-.03467,1.0658-.03467,1.60205,0,15.39227,4.04492,30.23328,11.4375,42.30823a114.36534,114.36534,0,0,0-24.48731,13.75708V98.759A24.44451,24.44451,0,0,0,197.494,86.45361ZM141.82508,52.85156a6.69583,6.69583,0,0,1,5.15332-2.41113h41.90723a6.71131,6.71131,0,0,1,6.60449,7.91064l-4.88281,26.8501a17.47849,17.47849,0,0,1-5.22632,9.6084c-.02.01935-.04224.03613-.06177.056a17.49339,17.49339,0,0,1-11.96484,4.73163H162.51063a17.49492,17.49492,0,0,1-11.96265-4.7287c-.023-.02338-.04883-.04334-.07251-.066a17.47277,17.47277,0,0,1-5.21777-9.60077l-4.88281-26.85059A6.69424,6.69424,0,0,1,141.82508,52.85156ZM134.22157,63.636,138.371,86.45361a24.441,24.441,0,0,0,6.18652,12.306V149.0542q0,2.09124.14747,4.17a47.02091,47.02091,0,0,1-4.49244-3.97747c-.02758-.02521-.05249-.05292-.08081-.07728-10.8955-10.942-17.5039-27.8703-17.5039-46.355C122.62782,88.1748,126.787,74.33466,134.22157,63.636Zm-13.635,67.16919A65.82634,65.82634,0,0,0,134.431,153.32452c.06348,1.22889.106,2.47077.106,3.71991,0,19.97132-7.74219,38.28333-20.4812,49.09461a96.18016,96.18016,0,0,1-2.18482-13.03357l-3.54736-36.44666a24.49467,24.49467,0,0,0,10.46728-15.96887ZM43.92762,157.04443c0-14.62823,4.1582-28.46313,11.592-39.16333L59.67274,140.688a24.43857,24.43857,0,0,0,7.1145,13.27368L68.83,206.78076c.03613.93036.08837,1.85694.14794,2.78174C53.785,199.71027,43.92762,179.478,43.92762,157.04443Zm28.63648-7.28418a17.47664,17.47664,0,0,1-6.00367-10.32275l-4.88964-26.84912a6.71462,6.71462,0,0,1,6.60644-7.91406h41.91016a6.6933,6.6933,0,0,1,5.58349,3.01776q.19995,3.41418.67554,6.743l-4.54224,25.00238a17.52606,17.52606,0,0,1-17.24707,14.397H83.8075a17.49729,17.49729,0,0,1-11.21875-4.05475C72.58094,149.77271,72.57191,149.76727,72.5641,149.76025Zm3.97314,65.43781-.00366-.02594q-.5387-4.28512-.70947-8.66284l-1.84644-47.74445a24.46917,24.46917,0,0,0,9.82983,2.06964H84.953v7.12842a3.5,3.5,0,0,0,7,0v-7.12842h2.7041a24.48853,24.48853,0,0,0,6.94141-1.01605l3.30566,33.96381a101.83734,101.83734,0,0,0,53.91553,80.45611,115.12823,115.12823,0,0,0,13.273,19.05634,16.24405,16.24405,0,0,0-2.04224,7.49908,97.66117,97.66117,0,0,1-70.82251-34.38769,8.31307,8.31307,0,0,0,1.73682-4.98615c0-3.55-2.44189-8.45373-13.56592-12.32434A96.7339,96.7339,0,0,1,76.53724,215.19806ZM6.97743,261.41992c0-3.11474,14.79785-10.41455,43.49316-10.41455,28.69629,0,43.49414,7.29981,43.49414,10.41455,0,.53479-.44043,1.19361-1.30859,1.917a3.40245,3.40245,0,0,0-.28809.187c-.06885.05529-.12134.12243-.18506.1817-4.3352,3.18329-16.56445,7.38281-36.3374,8.03973l-.01074-.00024L55.83,271.746q-2.59425.08588-5.35938.0885C21.77528,271.83447,6.97743,264.53467,6.97743,261.41992ZM27.1161,319.45068c-1.63281-7.95556.66308-18.498,8.209-23.25634a16.90683,16.90683,0,0,1,5.84668-2.27539,8.4867,8.4867,0,0,0,6.86524-8.28467v-6.81793q1.21215.01785,2.43359.01812,1.20739,0,2.40576-.01751l1.32178,16.94915a3.51364,3.51364,0,0,0,.3584,1.293A83.995,83.995,0,0,1,59.788,310.2002a84.35,84.35,0,0,1,3.17774,15.85937l-.15821,13.06885-.0205,12.55029c0,.01019.00293.01953.00293.02973l-.02369,17.01422H36.306l4.17578-24.703c.98315.38215,1.98218.73859,3.01318,1.03693a3.50017,3.50017,0,1,0,1.94532-6.72461C35.97059,335.59229,28.94911,328.35645,27.1161,319.45068Zm8.00659,56.272H62.75648l-.0249,17.84521H32.10633Zm3.76294,96.92022-7.53223-7.36212A26.07546,26.07546,0,0,1,23.869,442.29785l7.054-41.73H62.72181l-.03442,24.624a13.32631,13.32631,0,0,0,4.02246,9.57471l.21313.20844a13.33848,13.33848,0,0,0-2.3479,2.46051Zm41.69043-23.532L53.72547,485.90869a6.41039,6.41039,0,0,1-8.94726,1.39893l-.001-.00049a6.4079,6.4079,0,0,1-2.04541-7.84662c.00684-.01685.01807-.03223.02466-.04913a6.48308,6.48308,0,0,1,.62231-1.051L70.22938,441.562a6.40388,6.40388,0,0,1,10.34668,7.54883Zm59.97046-22.41711-5.83765,1.61682a62.70189,62.70189,0,0,0-36.51709,27.442l-9.456-9.23932A13.348,13.348,0,0,0,73.92909,432.0351l-2.33741-2.28559a6.30863,6.30863,0,0,1-1.90429-4.54L69.726,397.498a2.1217,2.1217,0,0,0,.00122-.84851l.03321-23.68836a3.405,3.405,0,0,0,.00195-1.47034l.04492-32.11773.00024-.19922.16016-13.23a3.67047,3.67047,0,0,0-.01758-.3877,91.373,91.373,0,0,0-3.46289-17.38769,91.046,91.046,0,0,0-5.36328-13.6211L59.87733,278.562a113.079,113.079,0,0,0,24.81689-3.94726,43.41058,43.41058,0,0,0,9.15992-3.72162A104.63172,104.63172,0,0,0,170.25282,307.809c.168,4.85461.26587,8.24042.2666,8.28528.00293.07422.00879.16406.01562.23828l3.48438-.32178-3.47559.42285a16.59479,16.59479,0,0,0,3.96729,9.37012,21.44953,21.44953,0,0,0,3.58838,32.1117c-.09009.30267-.16846.60211-.28028.91027-1.75586,4.81641-4.65918,6.335-8.334,8.25782-4.00195,2.09326-8.98145,4.69824-11.667,12.063-2.68457,7.37256-.54395,12.57129,1.17578,16.74854,1.57812,3.83252,2.82422,6.85986,1.07422,11.67139-1.75586,4.82177-4.65918,6.33984-8.335,8.26171C147.96375,417.799,143.327,420.22742,140.54652,426.69373Zm68.17114-11.43824c-.37671.14325-.75879.27777-1.15039.3949L191.286,420.50665a9.43685,9.43685,0,0,0-10.92969-4.83868l-27.86719,7.71808c.78248-.46167,1.61231-.89691,2.48731-1.35431,4.00293-2.09326,8.98437-4.69776,11.66992-12.07129,2.67774-7.36231.53906-12.55664-1.17969-16.73047-1.5791-3.83594-2.82714-6.86621-1.07129-11.687,1.75586-4.81543,4.65918-6.33447,8.334-8.25684,4.002-2.09375,8.98242-4.69873,11.668-12.06738.03222-.08911.0581-.17773.08935-.26678a20.95962,20.95962,0,0,0,10.94165.22277,69.22157,69.22157,0,0,0,23.719,27.42517v11.49433a16.11029,16.11029,0,0,1-9.49951,14.76672A3.46619,3.46619,0,0,0,208.71766,415.25549Zm95.71,40.65906a39.85111,39.85111,0,0,1-20.57324,34.88623,50.74658,50.74658,0,0,1-49.0625.001,39.883,39.883,0,0,1-20.57422-34.88721V439.22784a70.68732,70.68732,0,0,0,37.866,16.1554,12.87037,12.87037,0,1,0,21.79956-1.05457,69.21994,69.21994,0,0,0,30.54443-14.778Zm-46.98437,5.73682a5.87012,5.87012,0,1,1,5.87011,5.86816A5.87643,5.87643,0,0,1,257.44325,461.65137Zm46.98437-31.603a63.24112,63.24112,0,0,1-90.21-.35577v-9.30109a23.056,23.056,0,0,0,11.92969-20.29724v-7.374a68.837,68.837,0,0,0,31.60058,7.65333h1.68067a70.33683,70.33683,0,0,0,33.27929-8.2851v8.0058a23.0557,23.0557,0,0,0,11.71973,20.18152Zm34.25-14.16309a9.41684,9.41684,0,0,0-11.03076,4.644l-16.34717-4.87842a16.13367,16.13367,0,0,1-11.5918-15.55664v-12.32a70.86553,70.86553,0,0,0,23.094-26.7334,21.36226,21.36226,0,0,0,13.1582-.619c2.77564,6.26331,7.34571,8.66047,11.07007,10.60895,3.67481,1.92188,6.57617,3.44043,8.3291,8.26221,1.75488,4.81445.50879,7.8418-1.06836,11.6748-1.71777,4.17627-3.85644,9.374-1.17187,16.74512,2.68359,7.36279,7.66308,9.96631,11.66406,12.05762,3.05518,1.59778,5.574,2.923,7.34668,6.09064Zm115.91016-161.6455a51.29406,51.29406,0,0,1,15.97-.03528,25.76755,25.76755,0,0,1-3.554,6.53235,24.36017,24.36017,0,0,1-4.5791,4.6582,22.26357,22.26357,0,0,1-14.83545,4.45154A32.70974,32.70974,0,0,1,454.58778,254.23975Zm15.1416,228.88379a6.35688,6.35688,0,0,1-2.55176,4.18359l-.001.001a6.4136,6.4136,0,0,1-8.94726-1.39893l-26.85059-36.79834a6.404,6.404,0,0,1,10.34668-7.54932l26.85059,36.79883A6.36055,6.36055,0,0,1,469.72938,483.12354Zm17.89648-40.82715a26.07836,26.07836,0,0,1-7.48437,22.98486l-7.26318,7.10016-25.49854-34.94635a13.33135,13.33135,0,0,0-2.59863-2.66571,13.335,13.335,0,0,0,4.02636-9.56964l-.03442-24.63184h31.79907Zm-8.23706-48.72852H448.76331l-.0249-17.84521H476.3722Zm-8.49243-62.75342-.64746,8.0376c-.00171.02051.00391.04089.00269.0614a3.48984,3.48984,0,0,0,.03442.80432l.28638,1.69464.96655,5.72236.00244.00885,3.64746,21.579h-26.4602L448.694,343.896l3.78931,1.80127a3.50022,3.50022,0,0,0,3.00585-6.32227l-7.67285-3.647-7.7832-7.28223a18.158,18.158,0,0,1-4.64355-19.56982l2.21972-6.02735a14.23756,14.23756,0,0,1,13.85254-9.31982l4.54883.15185a8.33391,8.33391,0,0,1,6.376,13.34864l-.56934.75439a7.49352,7.49352,0,0,0,2.5166,11.15918A12.2565,12.2565,0,0,1,470.89637,330.81445ZM487.246,301.03809c-6.34277-2.55762-11.50976-2.80225-16.06836-3.01758-.22217-.01044-.43359-.02753-.65381-.03821A15.28628,15.28628,0,0,0,456.245,286.68457l-4.54882-.15186c-.28345-.00915-.56324.00428-.845.00629a29.35048,29.35048,0,0,1-3.03882-8.268c-.09326-.475-.14893-.9397-.21338-1.4068.46509.02215.92993.03473,1.394.03473a29.257,29.257,0,0,0,17.65332-5.91993c.15259-.11529.32373-.24768.511-.39709A92.59576,92.59576,0,0,1,495.99159,305.888,41.695,41.695,0,0,0,487.246,301.03809Zm17.10547,6.44586a99.96084,99.96084,0,0,0-32.23193-41.9328c.15869-.20069.31738-.39362.47607-.60437a32.79236,32.79236,0,0,0,4.79956-9.05536,37.39123,37.39123,0,0,1,9.16333,4.56024C500.55848,270.04449,507.16859,288.37531,504.35145,307.484Zm-450.958-46.06409a3.5,3.5,0,1,0-3.5,3.5A3.49994,3.49994,0,0,0,53.39344,261.41986Zm233.11133-43.393a12.76065,12.76065,0,0,1-2.52734-2.27491,12.3181,12.3181,0,0,1,.1416-3.60107c.36328-2.96436.81543-6.65283-1.72559-9.19385-2.541-2.53955-6.23047-2.08789-9.19531-1.7251a12.44527,12.44527,0,0,1-3.59766.14307,12.6748,12.6748,0,0,1-2.28027-2.5293c-1.86231-2.41064-4.17969-5.41113-7.89258-5.41113-3.71191,0-6.03027,3.00049-7.89258,5.41162a12.714,12.714,0,0,1-2.27539,2.52686,12.27412,12.27412,0,0,1-3.60254-.14112c-2.96386-.36279-6.65234-.81445-9.19433,1.7251-2.541,2.54053-2.08887,6.22949-1.72559,9.19336a12.37624,12.37624,0,0,1,.14356,3.59717,12.68878,12.68878,0,0,1-2.5293,2.27881c-2.41211,1.8623-5.41309,4.17968-5.41309,7.89209s3.001,6.03027,5.41309,7.89258a12.76287,12.76287,0,0,1,2.52734,2.27392,12.321,12.321,0,0,1-.1416,3.60156c-.36328,2.96436-.81543,6.65284,1.72559,9.19336,2.53906,2.54053,6.22851,2.08887,9.19433,1.72559a12.39863,12.39863,0,0,1,3.59864-.14307,12.66985,12.66985,0,0,1,2.27929,2.52881c1.86231,2.41113,4.18067,5.41162,7.89258,5.41162,3.71289,0,6.03027-3.00049,7.89258-5.41113a12.71851,12.71851,0,0,1,2.27637-2.52734,12.34145,12.34145,0,0,1,3.60254.14111c2.96484.36474,6.65429.81494,9.19336-1.72461,2.542-2.541,2.08984-6.23047,1.72656-9.19482a12.33456,12.33456,0,0,1-.14258-3.59717,12.66069,12.66069,0,0,1,2.5293-2.27832c2.41113-1.86231,5.41211-4.17969,5.41211-7.89209S288.91688,219.88867,286.50477,218.02686ZM282.22743,228.27c-1.86914,1.44336-3.80274,2.93555-4.71289,5.12793-.94141,2.26172-.624,4.853-.34375,7.13916a16.932,16.932,0,0,1,.20605,3.32617,16.94922,16.94922,0,0,1-3.32715-.20557c-2.28711-.27978-4.877-.59716-7.13965.34278-2.19336.91113-3.68554,2.84326-5.1289,4.71191a14.85066,14.85066,0,0,1-2.35352,2.63574,14.8753,14.8753,0,0,1-2.35254-2.63623c-1.44336-1.86816-2.93554-3.80029-5.12793-4.71142a9.3094,9.3094,0,0,0-3.59961-.62891,29.22843,29.22843,0,0,0-3.541.28613,16.9744,16.9744,0,0,1-3.32715.20557,16.91742,16.91742,0,0,1,.20605-3.32519c.2793-2.28663.59766-4.87842-.34375-7.14112-.91113-2.19189-2.84375-3.68359-4.71191-5.12646a14.8941,14.8941,0,0,1-2.63672-2.352,14.88388,14.88388,0,0,1,2.63574-2.35157c1.86914-1.44287,3.80176-2.935,4.71289-5.12744.94141-2.2622.62305-4.85351.34375-7.14013a16.91962,16.91962,0,0,1-.20605-3.3252,17.01661,17.01661,0,0,1,3.32715.20557c2.28808.28076,4.87793.59765,7.14062-.34278,2.19239-.91113,3.68457-2.84326,5.12793-4.71142a14.87566,14.87566,0,0,1,2.35254-2.63623,14.851,14.851,0,0,1,2.35352,2.63574c1.44336,1.86865,2.93554,3.80078,5.12793,4.71191,2.26269.94043,4.85351.62354,7.13965.34278a16.98462,16.98462,0,0,1,3.32812-.20557,16.92039,16.92039,0,0,1-.20605,3.3252c-.2793,2.28662-.59766,4.87793.34277,7.13916.91211,2.19336,2.84473,3.68554,4.71387,5.1289a14.88287,14.88287,0,0,1,2.63574,2.35108A14.88347,14.88347,0,0,1,282.22743,228.27ZM318.036,140.12207a3.49961,3.49961,0,1,0-4.19922,5.59961c1.792,1.34424,3.55469,2.77051,5.23828,4.23828a3.49987,3.49987,0,0,0,4.59961-5.27637C321.86219,143.10352,319.96571,141.56885,318.036,140.12207Zm31.62207,68.14746a3.49984,3.49984,0,0,0,6.957-.77148c-.2666-2.40332-.626-4.81787-1.06738-7.17774a3.50028,3.50028,0,0,0-6.88086,1.28907C349.077,203.79834,349.41,206.03906,349.65809,208.26953Zm-90.23047,4.06494a13.58423,13.58423,0,1,0,13.58692,13.584A13.60042,13.60042,0,0,0,259.42762,212.33447Zm0,20.16846a6.58423,6.58423,0,1,1,6.58692-6.58447A6.59234,6.59234,0,0,1,259.42762,232.50293Zm83.0127-65.80957a3.50012,3.50012,0,0,0-5.9375,3.708c1.18359,1.89453,2.31152,3.86133,3.35449,5.84668a3.50024,3.50024,0,0,0,6.19726-3.25586C344.93055,170.854,343.71473,168.73486,342.44032,166.69336Zm10.31836,65.62109a3.50141,3.50141,0,0,0-4.08106,2.80127c-.40723,2.1919-.9043,4.40186-1.47851,6.56885a3.50028,3.50028,0,1,0,6.76757,1.791c.61817-2.335,1.1543-4.71729,1.59375-7.08057A3.50059,3.50059,0,0,0,352.75868,232.31445ZM359.5536,75.65674a3.49022,3.49022,0,0,0,2.47461-1.0249l4.56054-4.55957a3.5,3.5,0,1,0-4.94921-4.9502L357.079,69.68164a3.49976,3.49976,0,0,0,2.47461,5.9751Zm59.03711,53.2832a3.5,3.5,0,1,0,4.94922-4.95019l-4.63086-4.62989a3.5,3.5,0,1,0-4.94922,4.9502Zm19.66308.95508a3.4902,3.4902,0,0,0,2.47461-1.0249l4.56153-4.56006a3.5,3.5,0,1,0-4.94922-4.9502l-4.56153,4.56006a3.49976,3.49976,0,0,0,2.47461,5.9751Z"/></svg>