<svg xmlns="http://www.w3.org/2000/svg" data-name="Layer 1" viewBox="0 0 512 512"><ellipse cx="250.229" cy="148.178" fill="#c68d7a" rx="174.5" ry="144.678"/><path fill="#aa6a51" d="M333.0795,20.81891c46.81555,25.9472,77.64959,70.16516,77.64959,120.35864,0,79.90326-78.12628,144.67761-174.5,144.67761a202.70857,202.70857,0,0,1-82.8504-17.31891c27.71027,15.35822,61.0166,24.31891,96.8504,24.31891,96.37372,0,174.5-64.77435,174.5-144.67761C424.72909,93.135,387.65317,45.27441,333.0795,20.81891Z"/><path fill="#935b44" d="M154.41763 269.09009c1.23847.676 2.483 1.34485 3.7431 1.99518.39167.20227.78663.40063 1.18042.6004.47681.2417.9629.47174 1.44269.70978l.53247-.53247q-3.46609-1.36836-6.848-2.8559C154.45248 269.03522 154.433 269.06177 154.41763 269.09009zM253.72909 285.13336c-2.31951.19147-4.65466.3382-7 .45368v7.2135c1.16645.0191 2.32807.05462 3.5.05462 1.17017 0 2.33527-.0177 3.5-.03668z"/><path fill="#fed2a4" d="M436.96952,512V410.29246a71.03585,71.03585,0,0,0-50.73071-68.072l-76.44019-22.80128a23.6786,23.6786,0,0,1-16.91024-22.69065V265.23329H204.59946v31.49527a23.67862,23.67862,0,0,1-16.91024,22.69065L111.249,342.22049a71.03585,71.03585,0,0,0-50.73072,68.072V502a10,10,0,0,0,10,10Z"/><path fill="#aa6a51" d="M134.98154,468.30127h-.1001a3.5,3.5,0,0,1,0-7h.1001a3.5,3.5,0,0,1,0,7Zm-16.1001,0h-.1001a3.5,3.5,0,1,1,0-7h.1001a3.5,3.5,0,1,1,0,7Zm-16.1001,0h-.09961a3.5,3.5,0,1,1,0-7,3.54272,3.54272,0,0,1,3.54981,3.5A3.4577,3.4577,0,0,1,102.78134,468.30127Zm-16.09961,0h-.1001a3.5,3.5,0,1,1,0-7h.1001a3.5,3.5,0,0,1,0,7Zm-16.1001,0h-.10009a3.5,3.5,0,1,1,0-7h.10009a3.5,3.5,0,0,1,0,7Z"/><path fill="#ffbd86" d="M238.77627,495.9375c-11.21142-6.843-19.39209-13.5979-25.81054-20.79126a8.324,8.324,0,0,0-8.877-11.84119A143.90044,143.90044,0,0,1,193.644,442.58569a8.11057,8.11057,0,0,0,1.08838-7.56744l-.10584-.28742a8.20953,8.20953,0,0,0-6.23187-5.19836,157.9333,157.9333,0,0,1-6.80408-23.44513,8.07352,8.07352,0,0,0,1.839-6.43994c-.00457-.03308-.045-.29645-.05072-.32947a8.12835,8.12835,0,0,0-3.38592-5.35907l-1.43378-23.62781a8.16388,8.16388,0,0,0,4.958-7.35827l.00348-.23474a8.14686,8.14686,0,0,0-4.5354-7.39514,110.55528,110.55528,0,0,0,4.7691-26.89759c.13873-2.73114.16919-5.36322.11456-7.88653q-3.15875.94225-6.3175,1.88446c-1.32874,5.673-2.55536,11.73352-3.60364,18.15753-.81732,5.00879-1.46069,9.83655-1.96155,14.46008a8.15631,8.15631,0,0,0-5.03533,7.44013l-.00348.23248a8.14681,8.14681,0,0,0,4.21978,7.23938A175.7037,175.7037,0,0,0,172.3663,392.955a8.1605,8.1605,0,0,0-5.3125,8.97351l.02075.1311a8.23255,8.23255,0,0,0,7.98346,6.95825,164.7352,164.7352,0,0,0,6.52527,22.29969,8.125,8.125,0,0,0-2.42523,9.07721l.05524.15283a8.19815,8.19815,0,0,0,5.2232,5.00952c4.069,9.85834,7.99378,17.681,12.89917,24.56671a8.14629,8.14629,0,0,0,1.43543,6.0412l.17975.2475a8.11774,8.11774,0,0,0,6.48,3.33337c7.192,7.30682,16.4826,14.09961,29.69891,22.1662a3.49974,3.49974,0,1,0,3.64648-5.97461Z"/><circle cx="165.683" cy="457.65" r="4.144" fill="#ffbd86"/><path fill="#aa6a51" d="M209.04168 472.75224a8.1248 8.1248 0 0 1-6.59067-3.33972l-.17971-.24747a8.18286 8.18286 0 0 1 1.9204-11.45586 8.30426 8.30426 0 1 1 4.85 15.043zM190.473 438.96067a8.24583 8.24583 0 0 1-7.75953-5.413l-.05521-.15284a8.1544 8.1544 0 0 1 4.87817-10.501 8.26314 8.26314 0 0 1 10.59027 4.837l.10582.28742a8.15827 8.15827 0 0 1-4.97134 10.45879A8.31024 8.31024 0 0 1 190.473 438.96067zM170.554 394.92852a8.26676 8.26676 0 0 1 16.32506-2.61059c.00577.03306.04615.2964.05076.32946a8.18437 8.18437 0 0 1-6.95707 9.28755 8.35133 8.35133 0 0 1-1.23084.0912 8.23913 8.23913 0 0 1-8.16715-6.96652M178.73474 364.02245c-.04161 0-.08207 0-.12369-.00114a8.22347 8.22347 0 0 1-8.16349-8.28782l.00347-.2325a8.133 8.133 0 0 1 8.40509-8.04963 8.22278 8.22278 0 0 1 8.16465 8.28669l-.00347.23477A8.22945 8.22945 0 0 1 178.73474 364.02245z"/><path fill="#aa6a51" d="M209.04168 472.75224a8.1248 8.1248 0 0 1-6.59067-3.33972l-.17971-.24747a8.18286 8.18286 0 0 1 1.9204-11.45586 8.30426 8.30426 0 1 1 4.85 15.043zM190.473 438.96067a8.24583 8.24583 0 0 1-7.75953-5.413l-.05521-.15284a8.1544 8.1544 0 0 1 4.87817-10.501 8.26314 8.26314 0 0 1 10.59027 4.837l.10582.28742a8.15827 8.15827 0 0 1-4.97134 10.45879A8.31024 8.31024 0 0 1 190.473 438.96067zM170.554 394.92852a8.26676 8.26676 0 0 1 16.32506-2.61059c.00577.03306.04615.2964.05076.32946a8.18437 8.18437 0 0 1-6.95707 9.28755 8.35133 8.35133 0 0 1-1.23084.0912 8.23913 8.23913 0 0 1-8.16715-6.96652M178.73474 364.02245c-.04161 0-.08207 0-.12369-.00114a8.22347 8.22347 0 0 1-8.16349-8.28782l.00347-.2325a8.133 8.133 0 0 1 8.40509-8.04963 8.22278 8.22278 0 0 1 8.16465 8.28669l-.00347.23477A8.22945 8.22945 0 0 1 178.73474 364.02245z"/><path fill="#ffbd86" d="M203.54538,322.32062a66.12081,66.12081,0,0,0,7.42853,5.37732,8.1316,8.1316,0,0,0,1.52844,4.89331l.17969.2475a8.12492,8.12492,0,0,0,6.59069,3.33972,8.3389,8.3389,0,0,0,4.89606-1.59485c.03339-.02417.06232-.05206.09528-.07666a73.75847,73.75847,0,0,0,16.53741,4.40045,8.20868,8.20868,0,0,0,.87683,1.56207l.17975.2475a8.1247,8.1247,0,0,0,6.59064,3.33966,8.33872,8.33872,0,0,0,4.89606-1.59479,8.06451,8.06451,0,0,0,2.47747-2.91565,73.46736,73.46736,0,0,0,15.49323-2.59735,8.13161,8.13161,0,0,0,5.545,2.183,8.33886,8.33886,0,0,0,4.89606-1.59485,8.13981,8.13981,0,0,0,3.3305-5.92761q10.44232-6.85658,20.88459-13.7132a23.58346,23.58346,0,0,1-4.24494-2.73l-.00006-.00006c-2.1582-1.17176-4.0766-1.3432-4.74621-.53314a1.34849,1.34849,0,0,0-.278.87231c-.04529.036-.09576.06116-.13971.09973a70.06367,70.06367,0,0,1-13.8963,9.38947,8.2808,8.2808,0,0,0-10.65588-.9057,8.17783,8.17783,0,0,0-3.44428,6.35492,66.64911,66.64911,0,0,1-12.54175,2.07324,8.31268,8.31268,0,0,0-12.42572-3.50336,8.17915,8.17915,0,0,0-2.48932,2.83765,67.19318,67.19318,0,0,1-13.582-3.66046,8.31832,8.31832,0,0,0-13.10467-7.05542c-.09284.06591-.17584.14013-.26508.2091a69.26691,69.26691,0,0,1-11.11847-8.89227,3.46777,3.46777,0,0,0-.83245-.59943c-.68976-.53735-1.3396-1.02728-1.95557-1.4768a23.70188,23.70188,0,0,1-4.21063,4.576A65.99766,65.99766,0,0,0,203.54538,322.32062Z"/><path fill="#aa6a51" d="M248.76261 338.60594a8.1248 8.1248 0 0 1-6.59067-3.33972l-.17971-.24747a8.18287 8.18287 0 0 1 1.9204-11.45586 8.30425 8.30425 0 1 1 4.85 15.043zM219.58662 330.72772A8.12478 8.12478 0 0 1 212.996 327.388l-.17972-.24747a8.18287 8.18287 0 0 1 1.92041-11.45586 8.30425 8.30425 0 1 1 4.85 15.043zM277.17435 333.6811a8.1248 8.1248 0 0 1-6.59067-3.33972l-.17971-.24747a8.18287 8.18287 0 0 1 1.9204-11.45586 8.30426 8.30426 0 1 1 4.85 15.043z"/><path fill="#fd6930" d="M439.92025,512l.02553-103.21081A71.03586,71.03586,0,0,0,396.942,343.49645l-33.53145-14.40084a35.51793,35.51793,0,0,0-44.61388,14.59953L219.70025,512Z"/><path fill="#ef4424" d="M396.942,343.49646l-33.53143-14.40088a35.5191,35.5191,0,0,0-36.51745,5.15723,35.40785,35.40785,0,0,1,22.51745,1.84277L382.942,350.49646a71.03584,71.03584,0,0,1,43.00379,65.29272L425.922,512h13.99829l.02551-103.21082A71.03584,71.03584,0,0,0,396.942,343.49646Z"/><polygon fill="#ef4424" points="292.888 295.281 292.888 265.233 275.54 265.233 292.888 295.281"/><path fill="#ffbd86" d="M436.96957,482.83716l-87.521-151.59082-39.64991-11.82715a23.68517,23.68517,0,0,1-3.86554-1.54376l109.62268,189.872A15.42826,15.42826,0,0,0,419.1926,512h17.777Z"/><path fill="#ef4424" d="M349.44852,331.24634l-11.03492-3.29163a35.43232,35.43232,0,0,0-18.54919,14.05048l95.69134,165.74219A15.42826,15.42826,0,0,0,419.1926,512h17.777V482.83716Z"/><rect width="31" height="382" x="332.729" y="150.01" fill="#bc7c63" rx="15.5" transform="rotate(-30 348.229 341.01)"/><path fill="#935b44" d="M449.40243,485.24738,273.9025,181.27246a15.48536,15.48536,0,0,0-14.45362-7.70148c.15186.23328.31281.45758.45362.70148L435.40243,478.24738a15.47386,15.47386,0,0,1-12.39306,23.20147,15.48987,15.48987,0,0,0,26.39306-16.20147Z"/><path fill="#ffbd86" d="M351.31527 187.46754v-.00015s.218-7.59525.58016-17.105a15.548 15.548 0 0 0-15.53232-16.13978h-6.9726v47.63926h6.4227a15.59261 15.59261 0 0 0 15.48885-14.25043zM168.09743 154.2226h-6.88186a15.548 15.548 0 0 0-15.53232 16.13975c.36212 9.50977.58011 17.105.58011 17.105v.00015l.01321.14389a15.59261 15.59261 0 0 0 15.48885 14.25043h6.332z"/><path fill="#ffbd86" fill-rule="evenodd" d="M204.59946,265.23328v23.82763a80.389,80.389,0,0,0,58.1444,24.79425h.00013a80.33326,80.33326,0,0,0,32.51239-6.84442,23.60406,23.60406,0,0,1-2.368-10.28222V265.23328Z"/><rect width="161.293" height="234.49" x="168.097" y="58.365" fill="#fed2a4" rx="80.646"/><path fill="#ffbd86" fill-rule="evenodd" d="M277.58847,63.69843a80.57214,80.57214,0,0,1,37.80194,68.313v73.19733A80.64641,80.64641,0,0,1,234.744,285.85516h-.00013a80.4166,80.4166,0,0,1-28.84448-5.33343,80.24225,80.24225,0,0,0,42.84448,12.33343h.00013a80.64641,80.64641,0,0,0,80.64642-80.64642V139.01141A80.65991,80.65991,0,0,0,277.58847,63.69843Z"/><path d="M169.83074,457.64526a4.14374,4.14374,0,1,0-4.14374,4.1438A4.14375,4.14375,0,0,0,169.83074,457.64526Zm-67.14484,3.65113a3.5,3.5,0,1,0,0,7h.09961a3.4577,3.4577,0,0,0,3.4502-3.5A3.54272,3.54272,0,0,0,102.6859,461.29639Zm16.19971,0h-.1001a3.5,3.5,0,0,0,0,7h.1001a3.5,3.5,0,1,0,0-7Zm66.48877,26.92822c-21.4986-2.09656-39.5741-14.31714-47.20129-31.90131-.01429-.03479-.0304-.06793-.04572-.10217-10.72675-24.894,4.43286-49.56683,6.1972-52.29828a3.50029,3.50029,0,1,0-5.88085-3.79785c-1.95606,3.02948-18.63086,30.21271-7.00715,58.21069l.0055,5.90088a2.83,2.83,0,0,0,.001,1.13007l.04016,43.1319a3.50007,3.50007,0,0,0,3.5,3.49658h.00341a3.50019,3.50019,0,0,0,3.49659-3.50342l-.03534-37.98065c10.39624,13.68268,27.13012,22.81628,46.24676,24.68036q.17358.01684.34424.01709a3.50023,3.50023,0,0,0,.33545-6.98389ZM86.6859,461.29639h-.10009a3.5,3.5,0,0,0,0,7h.10009a3.5,3.5,0,0,0,0-7Zm-16.10009,0h-.1001a3.5,3.5,0,0,0,0,7h.1001a3.5,3.5,0,1,0,0-7ZM230.72887,255.50146a32.60656,32.60656,0,0,0,17.25147,5.438q.38159.00879.75683.00879A33.04663,33.04663,0,0,0,266.766,255.502a3.50007,3.50007,0,1,0-3.86719-5.835,25.89911,25.89911,0,0,1-14.75341,4.27442,25.60924,25.60924,0,0,1-13.54737-4.27393,3.5002,3.5002,0,0,0-3.86914,5.834ZM189.3153,186.9502a3.4993,3.4993,0,0,0,.98193,4.85107,26.35112,26.35112,0,0,0,13.94629,4.396q.30836.00732.6123.00732a26.71015,26.71015,0,0,0,14.57374-4.40234,3.50007,3.50007,0,0,0-3.86719-5.835,19.66568,19.66568,0,0,1-11.15381,3.23193,19.36153,19.36153,0,0,1-10.24219-3.231A3.498,3.498,0,0,0,189.3153,186.9502ZM452.43444,483.49512l-9.00122-15.59033.01977-59.11817a74.45569,74.45569,0,0,0-45.12842-68.50732l-33.521-14.396a38.79846,38.79846,0,0,0-4.26538-1.55615l-26.27515-45.50952c27.24524-12.15808,50.28467-30.02405,66.78223-51.87476A134.60852,134.60852,0,0,0,424.37243,178.958a3.459,3.459,0,0,0,.09753-.41736,124.91543,124.91543,0,0,0,3.76331-30.3653c0-38.64233-17.86744-73.87164-47.07672-100.279a3.46676,3.46676,0,0,0-.84125-.85181c-.09485-.06622-.1977-.10986-.29651-.16546C347.52215,18.0423,301.365-.00488,250.23327-.00488c-51.12012,0-97.26807,18.03894-129.76355,46.86419a3.46338,3.46338,0,0,0-1.14362,1.02259c-29.21875,26.409-47.09283,61.644-47.09283,100.29339a124.12363,124.12363,0,0,0,3.77313,30.33612c.01062.071.00812.14106.02325.21222a3.4683,3.4683,0,0,0,.153.47681c13.57788,52.70575,61.07593,96.21667,124.92023,111.43164v6.093A20.29986,20.29986,0,0,1,186.69274,316.061L110.2528,338.86133a74.53556,74.53556,0,0,0-53.22949,71.42383v98.21a3.5,3.5,0,1,0,7,0v-98.21a67.53583,67.53583,0,0,1,48.23046-64.71582l66.77961-19.91895a179.99693,179.99693,0,0,0-3.17957,18.63336,11.488,11.488,0,0,0-5.29144,2.86908,11.62078,11.62078,0,0,0-3.60694,8.292l-.00341.23194a11.53062,11.53062,0,0,0,3.34619,8.31836,11.76541,11.76541,0,0,0,4.33795,2.787c.04456,5.24952.31958,10.4795.82519,15.629a11.66461,11.66461,0,0,0-6.31109,4.41407,11.52737,11.52737,0,0,0-2.04639,8.66406l.00928.05469.00488.03271a11.80379,11.80379,0,0,0,11.62793,9.94482c.204,0,.40857-.01208.613-.0227,1.25506,5.18738,2.76562,10.32709,4.51288,15.36175a11.61582,11.61582,0,0,0-4.50141,13.71808l.05713.15772a11.74887,11.74887,0,0,0,12.99359,7.555,146.02818,146.02818,0,0,0,7.44721,14.72034,11.66014,11.66014,0,0,0-.42566,14.20459l.187.25732a11.70228,11.70228,0,0,0,13.99909,3.84546,110.56644,110.56644,0,0,0,15.62506,13.3905l-10.61585,18.00818a3.5,3.5,0,1,0,6.03027,3.55469l97.14991-164.80029a32.03082,32.03082,0,0,1,3.97357-5.33826l41.40192,71.70935a289.09164,289.09164,0,0,1-19.43018,27.64356,3.50012,3.50012,0,0,0,5.47949,4.35644,296.10765,296.10765,0,0,0,17.91089-25.14081l17.36816,30.082c-1.62768,2.632-3.299,5.38813-5.17749,8.54175-9.99218,16.79883-20.86523,33.24854-32.31591,48.8916a3.5,3.5,0,0,0,5.64843,4.13477c11.58155-15.82227,22.57813-32.459,32.68262-49.44629,1.11-1.86353,2.14563-3.58472,3.1438-5.22589l27.029,46.81525a18.87355,18.87355,0,0,0,11.53614,8.84912A19.10085,19.10085,0,0,0,436.016,512a19.0097,19.0097,0,0,0,16.41846-28.50488ZM395.56188,346.71094A67.46381,67.46381,0,0,1,436.453,408.78418l-.01562,47.0033-70.26227-121.697Zm-64.81946-73.99121-9.90716-17.15955c.515-.85315,1.00763-1.721,1.49286-2.59338a33.19214,33.19214,0,0,1,16.17169,16.14227C335.96721,270.36743,333.3706,271.56049,330.74242,272.71973Zm13.963-6.86127A40.17794,40.17794,0,0,0,325.465,246.70691a83.62047,83.62047,0,0,0,7.42938-34.50281v-6.84717h2.92285a19.01982,19.01982,0,0,0,18.97412-17.43017l.01367-.14746c.00635-.07178.01075-.144.0127-.21631.00128-.03906.06085-2.09839.167-5.36365a177.73408,177.73408,0,0,0,31.123,2.79578h.21338a177.71414,177.71414,0,0,0,29.85327-2.54328C405.947,216.47424,380.66576,246.228,344.70537,265.85846Zm-11.811-67.50153V157.71777h3.47266a12.04781,12.04781,0,0,1,12.03466,12.50635c-.32812,8.62305-.53955,15.68408-.57666,17.01416l-.00439.04932a12.05374,12.05374,0,0,1-12.00342,11.06933Zm88.33887-50.18164a118.53449,118.53449,0,0,1-3.093,26.80567,173.9177,173.9177,0,0,1-32.02368,3.01416,170.704,170.704,0,0,1-30.89026-2.87561c.05267-1.47376.10943-3.02222.17053-4.62879a19.04774,19.04774,0,0,0-19.02978-19.773H332.8944V139.00635a83.66671,83.66671,0,0,0-6.2829-31.8609A229.81648,229.81648,0,0,0,355.94909,82.1792a229.82228,229.82228,0,0,0,22.87646-26.95734C405.213,80.07385,421.23327,112.60718,421.23327,148.17529ZM253.73327,7.0318c47.03564.78412,89.46911,17.32159,119.8587,43.47455a222.79691,222.79691,0,0,1-22.61359,26.74414,222.82287,222.82287,0,0,1-27.35766,23.42914A84.25228,84.25228,0,0,0,253.73327,55.02ZM325.8944,139.00635V212.2041a77.14649,77.14649,0,0,1-154.293,0V139.00635a77.14649,77.14649,0,1,1,154.293,0ZM296.39293,289.21429l15.72712,27.23981-1.317-.39306a20.30047,20.30047,0,0,1-14.41016-19.33594Zm-26.0913,26.5655a11.62628,11.62628,0,0,0-4.77295,7.61816,11.75491,11.75491,0,0,0-.14679,2.42q-2.701.56076-5.42749.89881a11.6755,11.6755,0,0,0-1.67572-3.29A11.79668,11.79668,0,0,0,241.89,320.70459a11.63047,11.63047,0,0,0-4.02148,5.03784,67.78512,67.78512,0,0,1-6.61737-1.77759,11.81388,11.81388,0,0,0-18.53741-11.13867,11.87611,11.87611,0,0,0-1.24048,1.03052,69.47912,69.47912,0,0,1-6.24579-5.07672,26.95729,26.95729,0,0,0,2.87543-12.05487V285.85181a83.92945,83.92945,0,0,0,81.29,0V296.7251a27.10947,27.10947,0,0,0,4.94654,15.52856,70.44993,70.44993,0,0,1-8.20777,5.54743A11.79265,11.79265,0,0,0,270.30163,315.77979Zm11.58349,10.41113a4.63055,4.63055,0,0,1-1.86084,3.0542,4.83691,4.83691,0,0,1-2.8457.93115,4.609,4.609,0,0,1-3.7583-1.896l-.16992-.23339a4.6832,4.6832,0,0,1,1.10742-6.562,4.745,4.745,0,0,1,2.75928-.88134,4.846,4.846,0,0,1,4.76806,5.5874Zm-28.41211,4.9248a4.62864,4.62864,0,0,1-1.86084,3.0542,4.83684,4.83684,0,0,1-2.8457.93115,4.60808,4.60808,0,0,1-3.75781-1.896l-.16992-.2334a4.68318,4.68318,0,0,1,1.10742-6.562,4.74343,4.74343,0,0,1,2.75879-.88135,4.846,4.846,0,0,1,4.76806,5.5874Zm-29.17578-7.87842a4.62773,4.62773,0,0,1-1.86133,3.05469,4.83269,4.83269,0,0,1-2.84521.93067,4.60919,4.60919,0,0,1-3.7583-1.89551l-.16944-.2334a4.683,4.683,0,0,1,1.10694-6.5625,4.74306,4.74306,0,0,1,2.7583-.88135,4.84711,4.84711,0,0,1,4.769,5.5874Zm22.436-316.2055V54.911a84.1767,84.1767,0,0,0-70.7674,41.94592,149.05882,149.05882,0,0,0-47.80945-47.43426C158.45214,23.89929,200.353,7.805,246.73327,7.0318Zm-167.5,141.14349c0-36.01843,16.43036-68.92334,43.41693-93.89215a141.82684,141.82684,0,0,1,49.54907,49.84833,83.61858,83.61858,0,0,0-7.59784,34.87488v11.71142h-3.38184a19.04774,19.04774,0,0,0-19.02978,19.773q.06271,1.64932.11957,3.21356a163.60034,163.60034,0,0,0-29.60492-2.70965q-.23145,0-.46387.00049A163.5764,163.5764,0,0,0,82.10485,173.898,117.00326,117.00326,0,0,1,79.23327,148.17529Zm85.36816,9.54248v40.63916h-2.832a12.05389,12.05389,0,0,1-12.00342-11.0708l-.00293-.03418c-.02881-.97119-.24316-8.22509-.57812-17.02783a12.04781,12.04781,0,0,1,12.03466-12.50635ZM83.84405,180.68835a155.74434,155.74434,0,0,1,58.715.19806c.13312,4.01966.20874,6.63288.2099,6.67609.00195.07324.00635.14746.01318.2207l.01319.14209a19.02,19.02,0,0,0,18.97412,17.43164h2.832v6.84717a83.64286,83.64286,0,0,0,8.28546,36.39337,34.00686,34.00686,0,0,0-17.24768,17.19477C119.7539,246.05945,93.88433,215.60083,83.84405,180.68835Zm78.00469,88.36078a27.08509,27.08509,0,0,1,14.36237-14.26965A84.77763,84.77763,0,0,0,201.1029,281.511v1.918A189.50737,189.50737,0,0,1,161.84874,269.04913Zm13.43677,90.03437a4.583,4.583,0,0,1-1.33447-3.30371l.00342-.23145a4.63145,4.63145,0,0,1,4.6958-4.605c.05322,0,.10644.001.16015.00244a4.811,4.811,0,0,1,3.37989,1.43262,4.58346,4.58346,0,0,1,1.335,3.30371l-.00342.23389a4.74874,4.74874,0,0,1-4.7832,4.60156v.03277c-.02356-.00427-.04853-.004-.07221-.00781l-.00055-.02545A4.81136,4.81136,0,0,1,175.28551,359.0835Zm7.33155,37.50683a4.751,4.751,0,0,1-3.15577,1.87793,4.80989,4.80989,0,0,1-5.42138-3.93555q-.00733-.04906-.01612-.09814l-.01172-.07617a4.57257,4.57257,0,0,1,.815-3.437,4.80192,4.80192,0,0,1,8.60351,1.96386l.043.28077A4.5703,4.5703,0,0,1,182.61706,396.59033Zm12.16357,36.15674a4.6849,4.6849,0,0,1-2.68848,2.42725,4.809,4.809,0,0,1-1.61523.28125,4.75271,4.75271,0,0,1-4.46729-3.10108l-.06738-.186a4.585,4.585,0,0,1,.1333-3.543,4.68222,4.68222,0,0,1,2.667-2.44922,4.80688,4.80688,0,0,1,1.65284-.29395A4.73851,4.73851,0,0,1,194.847,428.938l.09912.26709A4.58893,4.58893,0,0,1,194.78063,432.74707Zm18.97168,32.51514a4.62859,4.62859,0,0,1-1.86133,3.0542,4.83545,4.83545,0,0,1-2.84521.93115,4.609,4.609,0,0,1-3.7583-1.896l-.16944-.2334a4.68226,4.68226,0,0,1,1.10407-6.55993l.00372-.00287a4.74684,4.74684,0,0,1,2.75793-.881,4.84668,4.84668,0,0,1,4.76856,5.58789ZM315.788,341.918,232.8239,482.65369a103.54647,103.54647,0,0,1-13.8338-11.85492,11.81713,11.81713,0,0,0-13.26861-17.64972,141.47571,141.47571,0,0,1-7.04383-14.02173,11.60548,11.60548,0,0,0,2.84272-12.32605l-.10938-.2959a11.753,11.753,0,0,0-10.81183-7.60785,158.88439,158.88439,0,0,1-4.62585-15.83423,11.76015,11.76015,0,0,0,2.2702-2.30841,11.51729,11.51729,0,0,0,2.15332-8.62158c-.00635-.043-.05908-.38525-.05957-.38574a11.71013,11.71013,0,0,0-7.82275-9.17236c-.52558-5.07807-.81928-10.244-.87592-15.43378a11.74558,11.74558,0,0,0,8.88226-11.12238l.00342-.23388a11.52865,11.52865,0,0,0-3.34765-8.31934,11.78317,11.78317,0,0,0-4.32422-2.78247,172.18441,172.18441,0,0,1,3.92743-21.34357l1.91339-.57074a27.06322,27.06322,0,0,0,12.59747-8.10931,77.6308,77.6308,0,0,0,6.74481,5.34888c-.03.14587-.07013.28808-.09472.43573a11.61084,11.61084,0,0,0,2.04687,8.74755l.187.25733a11.76232,11.76232,0,0,0,18.15564.90851,74.63406,74.63406,0,0,0,8.90058,2.38623,11.70586,11.70586,0,0,0,1.933,4.32586l.18652.25684a11.72735,11.72735,0,0,0,16.36329,2.51563,11.54215,11.54215,0,0,0,4.31091-6.0918,73.99652,73.99652,0,0,0,7.7785-1.29907,11.7345,11.7345,0,0,0,20.996-5.16871,11.90363,11.90363,0,0,0,.07978-3.00189,77.60862,77.60862,0,0,0,10.16021-6.83819,26.90145,26.90145,0,0,0,9.76294,5.32641l8.41388,2.51136,4.92926,8.53759A38.873,38.873,0,0,0,315.788,341.918ZM441.98278,503.38428a11.99853,11.99853,0,0,1-16.38819-4.38916L322.63268,320.66187l-.00043-.00068-23.66241-40.984a84.857,84.857,0,0,0,17.5246-17.63514l129.878,224.95356A12.01109,12.01109,0,0,1,441.98278,503.38428ZM248.745,181.25244a14.17139,14.17139,0,0,0,14.15527-14.15527V141.05078a3.5,3.5,0,0,0-7,0v26.04639a7.15527,7.15527,0,0,1-14.31055,0V141.05078a3.5,3.5,0,0,0-7,0v26.04639A14.1714,14.1714,0,0,0,248.745,181.25244Zm29.32031,10.54883a26.35071,26.35071,0,0,0,13.9458,4.396c.20605.00488.40967.00732.61279.00732a26.71008,26.71008,0,0,0,14.57373-4.40234,3.50007,3.50007,0,1,0-3.86719-5.835,19.66038,19.66038,0,0,1-11.15429,3.23193,19.35958,19.35958,0,0,1-10.2417-3.231,3.49979,3.49979,0,1,0-3.86914,5.833Zm58.00732,191.91162a3.50258,3.50258,0,0,0-4.67724,1.62061c-9.54737,19.67382-19.9878,39.22461-31.03077,58.11035-12.53076,21.42969-26.166,42.56347-40.52636,62.81494a3.49988,3.49988,0,1,0,5.71,4.04883c14.47851-20.41748,28.22558-41.72461,40.85937-63.33057,11.1333-19.04053,21.65918-38.752,31.28565-58.58691A3.50078,3.50078,0,0,0,336.07262,383.71289Z"/></svg>