<svg xmlns="http://www.w3.org/2000/svg" data-name="Layer 1" viewBox="0 0 512 512"><path fill="#fed2a4" d="M420.17905,444.95757l72.294-70.68734a30,30,0,0,0,8.6073-26.44785l-18.1317-107.02261L447.56274,243.805l.1261,87.27616A10,10,0,0,1,444.68,338.2457l-49.77541,48.66917Z"/><path fill="#ffbd86" d="M435.98364,411.54968a59.97856,59.97856,0,0,0-20.28491-44.96679l-20.79419,20.332,25.27466,58.04272,15.80444-15.45331Z"/><path fill="#ffbd86" d="M501.08032,347.82239,482.94873,240.79974l-13.80151,1.17212,17.9331,105.85053a29.99935,29.99935,0,0,1-8.60718,26.44781l-62.47485,61.08631,4.18091,9.60107,72.29394-70.68738A29.99935,29.99935,0,0,0,501.08032,347.82239Z"/><polygon fill="#fee903" points="487.494 267.407 447.597 267.407 447.637 295.058 492.166 295.058 487.494 267.407"/><polygon fill="#fac600" points="487.457 267.407 473.457 267.407 478.141 295.058 492.141 295.058 487.457 267.407"/><rect width="23.453" height="77.392" x="436.476" y="334.797" fill="#fee903" rx="11.727" transform="rotate(-36.117 448.202 373.494)"/><path fill="#fac600" d="M473.572,388.3678,441.77856,344.795a11.7266,11.7266,0,0,0-16.385-2.56091l-.00024.00006c-.02856.02094-.05347.04517-.08179.06635a11.72774,11.72774,0,0,1,2.467,2.4945L459.572,388.3678a11.72369,11.72369,0,0,1-2.47876,16.31878A11.728,11.728,0,0,0,473.572,388.3678Z"/><path fill="#fed2a4" d="M91.821,444.95757l-72.294-70.68734a30,30,0,0,1-8.6073-26.44785l18.52876-109.5049,34.77391,17.39218.08888,75.37151A10,10,0,0,0,67.32,338.2457l49.77541,48.66917Z"/><path fill="#ffbd86" d="M91.8208,444.95758l25.27466-58.04272L96.80078,367.07123a59.9778,59.9778,0,0,0-20.78442,45.40466v17.02838Z"/><path fill="#fed2a4" d="M64.22228,255.70966l.01855-12.73181q.0813-6.70573.16236-13.41147a88.46054,88.46054,0,0,0-3.37061-16.95389,88.44059,88.44059,0,0,0-5.52881-13.88861l-8.87671-23.99164H38.12939l0,13.99507a5.01886,5.01886,0,0,1-4.094,4.91482,20.70953,20.70953,0,0,0-7.13237,2.78878c-9.08521,5.733-11.83081,17.96448-9.91065,27.29966C19.11987,234.07346,27.30835,242.4571,38.062,245.5702Z"/><path fill="#ffbd86" d="M67.32007,338.24567a9.99918,9.99918,0,0,1-3.009-7.16449l-.08887-75.37152.01855-12.73182.1626-13.41149a88.46,88.46,0,0,0-3.37061-16.95386,88.46124,88.46124,0,0,0-5.5288-13.88861l-8.877-23.99164H38.12939v13.99505a4.92609,4.92609,0,0,1-.063.70636l3.4375,9.29023a88.46124,88.46124,0,0,1,5.5288,13.88861,88.46,88.46,0,0,1,3.37061,16.95386l-.1626,13.41149-.01855,12.73182.08887,75.37152a9.99918,9.99918,0,0,0,3.009,7.16449l49.77539,48.66919-21.094,48.44171,9.81934,9.601,25.27466-58.04272Z"/><polygon fill="#fee903" points="19.848 295.058 64.269 295.058 64.236 267.407 24.526 267.407 19.848 295.058"/><polygon fill="#fac600" points="64.269 295.058 64.267 293.569 64.236 267.407 50.236 267.407 50.269 295.058 64.269 295.058"/><rect width="23.453" height="77.392" x="52.071" y="334.797" fill="#fee903" rx="11.727" transform="rotate(-143.883 63.798 373.494)"/><path fill="#fac600" d="M86.60669,342.23413l-.00024-.00006a11.7266,11.7266,0,0,0-16.385,2.56091L68.398,347.29425a11.68818,11.68818,0,0,1,4.2085,1.93982l.00024.00006a11.72684,11.72684,0,0,1,2.56079,16.38513l-29.97,41.07349A11.72952,11.72952,0,0,0,57.374,402.19208l31.79346-43.57282A11.72684,11.72684,0,0,0,86.60669,342.23413Z"/><path fill="#e5e1e5" d="M430.58043,200.39273c11.58348,8.04157,20.74836,2.13458,35.82045,8.21779,9.67825,3.90613,17.0167,10.82882,22.65011,18.63207,10.19466-29.5384,1.46157-60.01094-19.546-74.4146-17.265-11.8374-37.06808-8.87744-42.70509-7.83014-1.488,1.62968-13.54,15.277-10.00053,33.36387C417.26965,180.76516,419.92274,192.99376,430.58043,200.39273Z"/><path fill="#efedef" d="M469.50488,152.828a50.40558,50.40558,0,0,0-18.96631-7.82727l-6.79321,18.03314A115.608,115.608,0,0,1,489.051,227.24255C499.24561,197.70416,490.5127,167.23163,469.50488,152.828Z"/><path fill="#baafb9" d="M426.7999,144.99785c-1.2817,1.40367-10.39182,11.72684-10.63475,26.119a30.66637,30.66637,0,0,0,24.69764-5.604,32.93058,32.93058,0,0,0,6.2809-6.38018,35.82587,35.82587,0,0,0,6.2237-13.50467,63.66021,63.66021,0,0,0-26.56749-.63019Z"/><path fill="#fed2a4" d="M476.70334,246.39734l6.47138-3.07676,5.63712-5.27539a27.48528,27.48528,0,0,0,7.0128-29.5628v0a22.09159,22.09159,0,0,0-21.36118-14.45125l-8.59411.245a12,12,0,0,0-9.23706,19.223l0,0a4.744,4.744,0,0,1-1.5929,7.06356l-.93308.4867a13.41475,13.41475,0,0,0-7.18338,12.75l.6398,10.00563.01839,12.73181Z"/><path fill="#ffbd86" d="M470.60409,248.52092l6.09928-2.12358,6.47143-3.07678,5.637-5.27539a27.4854,27.4854,0,0,0,7.13055-29.237,22.46919,22.46919,0,0,0-21.88938-14.7654l-8.18356.23335c-.35742.0102-.70678.03931-1.052.07807a22.08233,22.08233,0,0,1,17.00733,14.12817,27.48539,27.48539,0,0,1-7.01294,29.56281l-1.6992,1.59021a8.92883,8.92883,0,0,0-2.50849,8.88553Z"/><path fill="#fed2a4" d="M418.48363,512V425.54959a60,60,0,0,0-42.8494-57.49658l-64.56475-19.259a20,20,0,0,1-14.28313-19.16553V310.02624h-74.5727v19.60228a20,20,0,0,1-14.28313,19.16553l-64.56475,19.259a60,60,0,0,0-42.8494,57.49658V512Z"/><path fill="#ffbd86" d="M356.82512,355.08228l-20.28491-6.05079a6,6,0,0,0-7.71509,5.74964V512h28V355.08228Z"/><path fill="#fee903" d="M173.52478,367.03271l.00671.0774v26.1167a80.35381,80.35381,0,0,0,41.44165,70.28967l44.18763,24.448,44.1875-24.448a80.35365,80.35365,0,0,0,41.4425-70.28967v-26.1167l.31873-1.06079c.01245-.03028.02234-.06079.03454-.09131L311.06946,355.794a20.00206,20.00206,0,0,1-2.50562-.94971c-.0094.04553-.02173.08948-.03064.13525q-.04742.64362-.09472,1.28711v36.96045A43.979,43.979,0,0,1,285.75061,431.709L259.16077,446.42,232.57129,431.709a43.97919,43.97919,0,0,1-22.68811-38.48193V356.26672l-.01-.07629c-.14856-.30884-.30664-.60535-.46253-.90466-.48413.1864-.97656.358-1.4801.50818l-34.66833,10.3413C173.3501,366.43445,173.42676,366.73364,173.52478,367.03271Z"/><path fill="#fac600" d="M311.06934 355.794a19.99862 19.99862 0 0 1-2.50538-.94971c-.00952.04553-.022.08948-.03076.13525q-.04761.64362-.09472 1.28711v2.91858L331.144 365.958c-.0122.03052-.022.061-.03466.09131l-.31861 1.06079v26.1167a80.35351 80.35351 0 0 1-41.44263 70.28967l-37.1875 20.57507 7 3.87293 44.1875-24.448a80.35351 80.35351 0 0 0 41.44263-70.28967v-26.1167l.31861-1.06079c.01269-.03028.02246-.06079.03466-.09131zM195.8833 393.22705a43.97884 43.97884 0 0 0 22.688 38.48193l25.21622 13.91847a17.59183 17.59183 0 0 0 15.37313.7926h0q-13.295-7.35576-26.59018-14.71151a43.97811 43.97811 0 0 1-22.68716-38.48148V356.26672l-.01025-.07629c-.14844-.30884-.30664-.60535-.46241-.90466-.48413.1864-.97656.358-1.48.50818l-12.04736 3.59362z"/><path fill="#fee903" d="M428.98366,502V418.54971A60.00016,60.00016,0,0,0,386.13417,361.053l-40.30141-12.02149a6,6,0,0,0-7.71507,5.74965V512h80.866A10,10,0,0,0,428.98366,502Z"/><path fill="#fac600" d="M386.13428,361.053l-40.30156-12.0215a6,6,0,0,0-7.715,5.74965v3.12506l34.01645,10.14674a60.00018,60.00018,0,0,1,42.84951,57.49675V512h4a10,10,0,0,0,10-10V418.54949A59.99992,59.99992,0,0,0,386.13428,361.053Z"/><path fill="#fd6930" d="M366.11768,355.08228l-20.28492-6.05079a6,6,0,0,0-7.71508,5.74964V512h28V355.08228Z"/><path fill="#fd5426" d="M366.11768,355.08228l-20.28492-6.05079a6,6,0,0,0-7.71508,5.74964v3.12506l28,8.35211Z"/><path fill="#fee903" d="M83.01634,502V419.47589a60,60,0,0,1,43.98559-57.82334l46.27894-12.81714a6,6,0,0,1,7.60144,5.78234V512h-87.866A10,10,0,0,1,83.01634,502Z"/><path fill="#fd6930" d="M180.88232,512V354.61774a6.00008,6.00008,0,0,0-7.60156-5.78235l-19.52392,5.40722-.87452.83967V512Z"/><path fill="#aa6a51" d="M321.14258,378.82593c5.83349-2.53955,19.14306-9.24268,27.9165-23.18372a51.42984,51.42984,0,0,0,7.1521-35.41638h.11475c3.9248-3.4519,16.95434-15.779,18.87768-35.24194.47242-4.78052,4.3396-30.46924-14.42846-46.3562-15.59375-13.19971-29.0271-10.22388-38.65186-9.502l-132.98706-.00305c-40.12476-2.25061-53.9248,31.60828-52.93384,55.86121.76734,18.77978,14.69654,31.64868,18.87744,35.24194h.11475a51.42984,51.42984,0,0,0,7.1521,35.41638c8.7417,13.8905,21.98193,20.59278,27.84814,23.15332a23.06426,23.06426,0,0,0,3.1626,8.58045c10.71778,17.23266,39.991,13.03845,54.79907,33.21814a37.44359,37.44359,0,0,1,4.67456,8.49487,2.9979,2.9979,0,0,0,5.5962,0,37.43388,37.43388,0,0,1,4.67456-8.49487c14.80786-20.17969,44.0813-15.98548,54.79907-33.21814Z"/><path fill="#935b44" d="M199.29053 393.80225c6.92749 5.29364 16.56347 7.68792 25.98535 11.23931C217.33594 399.52942 207.85547 396.91693 199.29053 393.80225zM360.77515 238.62769a42.25372 42.25372 0 0 0-16.49634-8.98365c.82617.61933 1.65747 1.27356 2.49634 1.98365 18.76806 15.887 14.90088 41.57568 14.42846 46.3562-1.92334 19.46289-14.95288 31.79-18.87768 35.24194h-.11475a51.42984 51.42984 0 0 1-7.1521 35.41638c-8.77344 13.941-22.083 20.64417-27.9165 23.18372l-3.2417 8.55c-10.71777 17.23266-39.99121 13.03845-54.79907 33.21814a37.12589 37.12589 0 0 0-2.88062 4.61236c.66577.7605 1.31738 1.5456 1.9353 2.38764a37.44359 37.44359 0 0 1 4.67456 8.49487 2.9979 2.9979 0 0 0 5.5962 0 37.43388 37.43388 0 0 1 4.67456-8.49487c14.80786-20.17969 44.0813-15.98548 54.79907-33.21814l3.2417-8.55c5.83349-2.53955 19.14306-9.24268 27.9165-23.18372a51.42984 51.42984 0 0 0 7.1521-35.41638h.11475c3.9248-3.4519 16.95434-15.779 18.87768-35.24194C375.676 280.20337 379.54321 254.51465 360.77515 238.62769z"/><path fill="#fee903" d="M278.54674,493.43328l-15.34226,16.92481a5,5,0,0,1-7.409,0l-15.34226-16.92481a5,5,0,0,1,0-6.71619l15.34226-16.92482a5,5,0,0,1,7.409,0l15.34226,16.92482A5,5,0,0,1,278.54674,493.43328Z"/><path fill="#fac600" d="M278.54688,486.71711l-15.34236-16.925a5,5,0,0,0-7.40911.00009L252.5,473.42773l0,0a24.7869,24.7869,0,0,1,0,33.29489l0,0,3.29536,3.63538a5.00015,5.00015,0,0,0,7.40923,0l15.34229-16.9248A5,5,0,0,0,278.54688,486.71711Z"/><circle cx="259.5" cy="486.575" r="3.5" fill="#fd6930"/><circle cx="256" cy="24.503" r="21.003" fill="#fee903"/><circle cx="199.445" cy="39.657" r="21.003" fill="#fee903"/><circle cx="158.044" cy="81.058" r="21.003" fill="#fee903"/><circle cx="142.89" cy="137.613" r="21.003" fill="#fee903"/><circle cx="158.044" cy="194.168" r="21.003" fill="#fee903"/><circle cx="353.956" cy="194.168" r="21.003" fill="#fee903"/><circle cx="369.11" cy="137.613" r="21.003" fill="#fee903"/><circle cx="353.956" cy="81.058" r="21.003" fill="#fee903"/><circle cx="312.555" cy="39.657" r="21.003" fill="#fee903"/><path fill="#fac600" d="M176.23242 183.66687a20.93829 20.93829 0 0 0-32.57544-4.77753 113.13824 113.13824 0 0 0 21.75122 34.92505 20.88189 20.88189 0 0 0 10.82422-30.14752zM137.71313 157.94659a21.003 21.003 0 1 0 0-40.66693 114.11443 114.11443 0 0 0 0 40.66693zM176.23242 91.55933A20.88186 20.88186 0 0 0 165.4082 61.41187a113.13779 113.13779 0 0 0-21.75122 34.925 20.93826 20.93826 0 0 0 32.57544-4.77752zM181.25586 50.15808a21.00281 21.00281 0 1 0 36.37793-21.00281c-.04126-.07153-.09107-.13482-.13306-.20569a112.73657 112.73657 0 0 0-37.366 18.93268A21.13826 21.13826 0 0 0 181.25586 50.15808z"/><path fill="#fee903" d="M256,24.5A113.11313,113.11313,0,1,0,369.11328,137.6131,113.113,113.113,0,0,0,256,24.5Zm0,191.22607a78.113,78.113,0,1,1,78.11328-78.11279A78.20137,78.20137,0,0,1,256,215.72607Z"/><path fill="#fac600" d="M315.25049,188.42944a78.07622,78.07622,0,0,1-136.51172-62.3056,67.90676,67.90676,0,0,0-12.32056,48.2641l6.668,40.15478a113.731,113.731,0,0,0,16.427,14.5802l118.981.00287Z"/><path fill="#fac600" d="M249 59.82965c-2.30786-.206-4.6394-.32965-7-.32965a78.113 78.113 0 1 0 0 156.22607c2.3606 0 4.69214-.12359 7-.32965a78.0962 78.0962 0 0 1 0-155.56677zM256 24.5c-2.35156 0-4.68408.08051-7 .22192a113.10767 113.10767 0 0 1 0 225.78241c2.31592.14142 4.64844.22193 7 .22193A113.11313 113.11313 0 1 0 256 24.5z"/><path fill="#fee903" d="M322.49419,229.1258l-132.987-.00314-9.08887-54.73473a67.9738,67.9738,0,0,1,40.75536-71.023L256,88.5l34.82634,14.8649a67.9738,67.9738,0,0,1,40.75536,71.023Z"/><path fill="#fac600" d="M290.82642,103.36487,256,88.5l-7,2.98779,27.82642,11.87708a67.97415,67.97415,0,0,1,40.75537,71.02307l-9.08765,54.73755,14,.0003,9.08765-54.73785A67.97415,67.97415,0,0,0,290.82642,103.36487Z"/><rect width="70.936" height="27.864" x="220.532" y="97.357" fill="#fac600" rx="13.932"/><rect width="70.936" height="27.864" x="220.532" y="90.357" fill="#fee903" rx="13.932"/><path fill="#fac600" d="M277.53613 90.35663h-14a13.93183 13.93183 0 0 1 0 27.86365h14a13.93183 13.93183 0 0 0 0-27.86365zM263.23242 52.17493L249 41.44763l-14.23242 10.7273a25.86961 25.86961 0 0 0-9.32788 13.55676 77.85908 77.85908 0 0 1 45.17871-4.8396c-.05737-.1095-.10718-.22186-.166-.33075A26.04424 26.04424 0 0 0 263.23242 52.17493z"/><path fill="#fee903" d="M274.75412,90.35666H237.24588l-2.6982-4.9782a26.04016,26.04016,0,0,1,0-24.81708h0a26.03982,26.03982,0,0,1,7.22-8.38641L256,41.44763,270.23232,52.175a26.03982,26.03982,0,0,1,7.22,8.38641h0a26.04016,26.04016,0,0,1,0,24.81708Z"/><path fill="#fac600" d="M273.03189,54.59619a25.24639,25.24639,0,0,0-2.82692-2.442l-1.13759-.85734a25.98543,25.98543,0,0,1,1.385,27.08154h0a9.50976,9.50976,0,0,1-8.36066,4.97821H233.5752c.29736.6831.61376,1.36.97241,2.02179l2.69824,4.97821h37.5083l2.69824-4.97821A26.07608,26.07608,0,0,0,273.03189,54.59619Z"/><circle cx="256" cy="69.728" r="7.318" fill="#fd4755"/><circle cx="210.49" cy="164.006" r="8.752" fill="#fd4755"/><circle cx="301.51" cy="164.006" r="8.752" fill="#fd4755"/><path fill="#fb2b3a" d="M301.85547 155.27179a8.7445 8.7445 0 0 1-6.63892 14.44421c-.1167 0-.23022-.01294-.3457-.01745a8.746 8.746 0 1 0 6.98462-14.42676zM210.8362 155.27179a8.7445 8.7445 0 0 1-6.63891 14.44421c-.1167 0-.23023-.01294-.34571-.01745a8.746 8.746 0 1 0 6.98462-14.42676z"/><path fill="#fd4755" d="M275.04674,159.35809l-15.34226,16.92482a5,5,0,0,1-7.409,0l-15.34226-16.92482a5,5,0,0,1,0-6.71618l15.34226-16.92482a5,5,0,0,1,7.409,0l15.34226,16.92482A5,5,0,0,1,275.04674,159.35809Z"/><path fill="#fb2b3a" d="M275.04688,152.64191,259.70459,135.7171A4.98612,4.98612,0,0,0,252.5,135.535c.06567.06495.1416.11274.20459.18207l0,0a30.19993,30.19993,0,0,1,0,40.56576l0,0c-.063.06933-.13892.11712-.20459.18207a4.98612,4.98612,0,0,0,7.20459-.18207l15.34229-16.92481A5,5,0,0,0,275.04688,152.64191Z"/><path fill="#fed2a4" fill-rule="evenodd" d="M256.00071,333.35688h-1.7036a66.14747,66.14747,0,0,1-66.41549-66.0756c.0003-13.27277.00048-23.78967.00061-26.69247a41.37877,41.37877,0,0,1,17.32848-33.67l0,0a48.27532,48.27532,0,0,1,34.50194-8.56027L256,200.55175l16.28734-2.19321a48.27529,48.27529,0,0,1,34.50193,8.56028l.00009.00006A41.37579,41.37579,0,0,1,324.11785,240.587c.00011,2.41627.00028,13.01372.00053,24.64636A68.12147,68.12147,0,0,1,256.00071,333.35688Z"/><path fill="#ffbd86" fill-rule="evenodd" d="M324.11792,240.587a41.37608,41.37608,0,0,0-17.32861-33.6681v-.00006a48.25207,48.25207,0,0,0-13.7566-6.81488,41.37066,41.37066,0,0,1,17.08521,33.483c0,2.41625.00024,13.01367.00049,24.64636a68.12157,68.12157,0,0,1-68.11768,68.12353h-1.70361a66.8364,66.8364,0,0,1-22.62769-3.91876,66.408,66.408,0,0,0,36.62769,10.91876h1.70361a68.12157,68.12157,0,0,0,68.11768-68.12353C324.11816,253.60065,324.11792,243.00323,324.11792,240.587Z"/><path fill="#ffbd86" fill-rule="evenodd" d="M187.88232,254.58881a41.37868,41.37868,0,0,1,17.32837-33.67,48.27574,48.27574,0,0,1,34.502-8.5603L256,214.55176l16.28735-2.19324a48.27545,48.27545,0,0,1,34.502,8.5603v.00006a41.37608,41.37608,0,0,1,17.32861,33.6681c0,1.36645,0,5.35144.00024,10.65832l.00025-.012c-.00025-11.63269-.00049-22.23011-.00049-24.64636a41.37608,41.37608,0,0,0-17.32861-33.6681v-.00006a48.27545,48.27545,0,0,0-34.502-8.5603L256,200.55176l-16.28735-2.19324a48.27574,48.27574,0,0,0-34.502,8.5603,41.37868,41.37868,0,0,0-17.32837,33.67c-.00024,2.90277-.00048,13.41967-.00073,26.69244l.00025.01208C187.88208,260.96655,187.88232,256.35815,187.88232,254.58881Z"/><path fill="#7a6d79" d="M267.66433,278.98356l-9.18312,13.51208a3,3,0,0,1-4.96242,0l-9.18312-13.51208a3,3,0,0,1,2.48121-4.68629h18.36624A3,3,0,0,1,267.66433,278.98356Z"/><ellipse cx="44.148" cy="164.173" fill="#fee903" rx="40.648" ry="14.11"/><path fill="#fac600" d="M68.99512,153.00977a6.28491,6.28491,0,0,1,1.80078,4.16308c0,7.79273-18.19873,14.11-40.64795,14.11a98.11154,98.11154,0,0,1-24.84717-2.9469c5.11719,5.76043,20.57276,9.9469,38.84717,9.9469,22.44922,0,40.648-6.31726,40.648-14.11C84.7959,159.62952,78.603,155.59052,68.99512,153.00977Z"/><path d="M181.79286,78.69385a3.492,3.492,0,0,0,2.67382-1.23926l.06446-.07617a3.4574,3.4574,0,0,0-.44336-4.89453,3.54214,3.54214,0,0,0-4.96485.44922,3.5,3.5,0,0,0,2.66993,5.76074Zm119.69433,73.04492a12.25147,12.25147,0,1,0,12.252,12.25146A12.26558,12.26558,0,0,0,301.48719,151.73877Zm0,17.50293a5.25147,5.25147,0,1,1,5.252-5.25147A5.258,5.258,0,0,1,301.48719,169.2417ZM171.75184,89.49121a3.49718,3.49718,0,0,0-4.73535,1.44141c-.01856.03369-.082.15625-.09863.19092a3.49207,3.49207,0,0,0,3.13281,5.01464,3.545,3.545,0,0,0,3.13183-1.89257l-3.07812-1.666,3.08789,1.647A3.49981,3.49981,0,0,0,171.75184,89.49121Zm84.22559,148.24072a3.50017,3.50017,0,0,0,3.5-3.5V215.73682a3.5,3.5,0,0,0-7,0v18.49511A3.50017,3.50017,0,0,0,255.97743,237.73193Zm-45.50977-85.99316a12.25147,12.25147,0,1,0,12.25195,12.25146A12.26558,12.26558,0,0,0,210.46766,151.73877Zm0,17.50293a5.25147,5.25147,0,1,1,5.25195-5.25147A5.258,5.258,0,0,1,210.46766,169.2417Zm51.80762-35.89063a8.49889,8.49889,0,0,0-12.59473,0l-15.34277,16.92432a8.46868,8.46868,0,0,0,0,11.41748l15.34179,16.92481a8.49889,8.49889,0,0,0,12.59473,0l15.34277-16.92432a8.46865,8.46865,0,0,0,0-11.41748Zm10.15625,23.64014v.00049l-15.34375,16.9248a1.49864,1.49864,0,0,1-2.22168,0l-15.34278-16.92529a1.49421,1.49421,0,0,1,0-2.01416l15.34375-16.9248a1.49864,1.49864,0,0,1,2.22168,0l15.34278,16.92529A1.49355,1.49355,0,0,1,272.43153,156.99121Zm-16.4541-76.46045A10.81836,10.81836,0,1,0,245.15907,69.7124,10.83084,10.83084,0,0,0,255.97743,80.53076Zm0-14.63672a3.81836,3.81836,0,1,1-3.81836,3.81836A3.82267,3.82267,0,0,1,255.97743,65.894Zm-96.833,70.65137a3.52411,3.52411,0,0,0,3.49609-3.34473l-3.49219-.229,3.49415.20557a3.50019,3.50019,0,0,0-6.98829-.41114l-.00879.2041a3.47661,3.47661,0,0,0,3.35743,3.57227C159.05067,136.54443,159.09754,136.54541,159.14442,136.54541ZM504.50868,347.22119l-17.37427-102.849,4.04614-3.78674a30.92255,30.92255,0,0,0,7.90527-33.32764,25.5449,25.5449,0,0,0-2.3142-4.68969c.09765-22.04615-9.3125-41.66687-25.3147-52.6399a52.92688,52.92688,0,0,0-17.00049-7.61609,3.43462,3.43462,0,0,0-.32568-.11047c-.08692-.02008-.17261-.01978-.25928-.03314a68.11025,68.11025,0,0,0-27.73486-.62506,3.50065,3.50065,0,0,0-1.94239,1.0791c-2.47265,2.7041-14.61425,17.1665-10.85254,36.39111.72266,3.709,3.957,16.41748,15.21973,24.23584,7.08887,4.9209,13.55664,5.23291,19.81152,5.53467.833.04028,1.68164.08258,2.53931.1344a15.496,15.496,0,0,0,2.90308,6.67322,1.24382,1.24382,0,0,1-.418,1.85254l-.93164.48632a16.925,16.925,0,0,0-9.0586,16.07618l.62989,9.85254.13086,87.20507a6.48245,6.48245,0,0,1-1.95606,4.666l-2.65674,2.59491a15.206,15.206,0,0,0-20.79565,20.33233l-10.40552,10.171a62.83681,62.83681,0,0,0-21.24658-11.14849l-30.58594-9.12146a55.71077,55.71077,0,0,0,3.35034-26.85346c6.77491-6.31012,17.0354-18.61426,18.78833-36.39178l.084-.77491c1.63086-14.7163.22558-35.09375-15.72559-48.59619-11.093-9.38611-21.21362-11.19793-29.65942-11.13073a116.35785,116.35785,0,0,0,9.09619-9.02521,24.3029,24.3029,0,0,0,11.44214,2.883,24.646,24.646,0,0,0,6.38086-.84521,24.49871,24.49871,0,0,0,6.63281-44.44733,116.77836,116.77836,0,0,0,3.04858-11.29455,24.49866,24.49866,0,0,0,.0354-48.96509,115.5174,115.5174,0,0,0-3.03686-11.32324,24.49647,24.49647,0,0,0-24.53076-42.37427q-3.92762-4.33932-8.27222-8.27258a24.47969,24.47969,0,0,0-42.34253-24.52192,115.615,115.615,0,0,0-11.35815-3.048,24.49362,24.49362,0,0,0-48.9541,0,115.56881,115.56881,0,0,0-11.35767,3.04785A24.48048,24.48048,0,0,0,177.79994,51.147q-4.33925,3.92779-8.27222,8.27259A24.49631,24.49631,0,0,0,144.997,101.79309a115.60642,115.60642,0,0,0-3.03711,11.32416,24.49866,24.49866,0,0,0,.0354,48.96509,116.76152,116.76152,0,0,0,3.04834,11.2937,24.4914,24.4914,0,0,0,24.45581,42.41021,116.38438,116.38438,0,0,0,10.1958,9.99091c-12.0022,1.10278-22.35571,5.68189-30.30273,13.509-13.1709,12.97217-17.26758,32.17774-16.71,45.8252.72974,17.85364,12.52,30.89349,18.803,36.61065a55.41365,55.41365,0,0,0,3.991,28.394l-29.43359,8.14526A63.0856,63.0856,0,0,0,104.099,369.31671L93.1952,358.65784a15.20406,15.20406,0,0,0-20.79541-20.33246l-2.65381-2.592a6.4868,6.4868,0,0,1-1.959-4.67188l-.02735-35.28045a3.5093,3.5093,0,0,0,.08106-.73371l.04-27.65088a3.47713,3.47713,0,0,0-.1438-.93975l-.01831-23.49726-.00025-.00311q.07985-6.07507.14575-12.14923l.01368-1.21338a3.57392,3.57392,0,0,0-.0166-.38232,91.845,91.845,0,0,0-3.50391-17.63135,91.86288,91.86288,0,0,0-5.66309-14.26758L52.82752,181.445c18.74341-1.38526,35.4458-7.26233,35.4458-17.28772,0-11.561-22.209-17.60987-44.14843-17.60987-21.93848,0-44.14746,6.04883-44.14746,17.60987,0,9.8797,16.22094,15.72992,34.62988,17.22375v7.33338a1.52845,1.52845,0,0,1-1.26074,1.47509,24.35059,24.35059,0,0,0-8.33692,3.26514C14.16,200.30176,11.45789,214.30566,13.53993,224.42041A31.52279,31.52279,0,0,0,25.121,242.83032a3.5051,3.5051,0,0,0-.10449.38111L7.44618,347.2207a33.50156,33.50156,0,0,0,9.61523,29.53662L32.954,392.293a15.177,15.177,0,0,0,5.95019,15.27191l-.001-.00049a15.11183,15.11183,0,0,0,8.94336,2.92969,15.41892,15.41892,0,0,0,2.38281-.186c.3186-.04981.62842-.12543.94043-.19422L79.497,437.80725v70.67713a3.5,3.5,0,0,0,7,0v-89.02a56.66727,56.66727,0,0,1,41.41406-54.457l21.44824-5.9356V508.48438a3.5,3.5,0,0,0,7,0V357.13452l2.39624-.66315c.20386.33979.39307.67988.60669,1.01935a61.46011,61.46011,0,0,0,17.99512,18.254V508.48438a3.5,3.5,0,0,0,7,0V440.13086a83.3507,83.3507,0,0,0,28.89551,26.436l24.9978,13.82819-.41284.45551a8.46868,8.46868,0,0,0,0,11.41748l15.34179,16.9248a8.49887,8.49887,0,0,0,12.59473,0l15.34277-16.92432a8.46865,8.46865,0,0,0,0-11.41748l-.64331-.70965,24.54859-13.575a84.3187,84.3187,0,0,0,29.57519-27.5199v69.43787a3.5,3.5,0,0,0,7,0v-138.66a59.1716,59.1716,0,0,0,10.40137-12.33368c.53027-.84265,1.02539-1.68634,1.49585-2.53015l9.10083,2.71417V508.48438a3.5,3.5,0,0,0,7,0v-148.722l15.51074,4.62579a56.86183,56.86183,0,0,1,40.35156,54.146v89.9502a3.5,3.5,0,0,0,7,0V437.80725L460.785,410.11389c.312.06879.62183.14441.94043.19422a15.41905,15.41905,0,0,0,2.38282.186A15.20208,15.20208,0,0,0,479.00086,392.293l15.89258-15.53522A33.50248,33.50248,0,0,0,504.50868,347.22119ZM371.29627,120.24933a17.48888,17.48888,0,0,1-.02124,34.70325,115.672,115.672,0,0,0,1.31275-17.35834A117.02606,117.02606,0,0,0,371.29627,120.24933Zm-245.9292,17.34491a17.51514,17.51514,0,0,1,15.29151-17.34491,117.02606,117.02606,0,0,0-1.29151,17.34491,115.672,115.672,0,0,0,1.31275,17.35834A17.52205,17.52205,0,0,1,125.36707,137.59424ZM6.97743,164.15723c0-3.60108,13.11132-10.60987,37.14746-10.60987s37.14843,7.00879,37.14843,10.60987S68.161,174.76709,44.12489,174.76709,6.97743,167.7583,6.97743,164.15723Zm13.418,58.85156c-1.6621-8.07715.67286-18.78955,8.34571-23.63135a17.36072,17.36072,0,0,1,5.94629-2.31738,8.54043,8.54043,0,0,0,6.91992-8.3457v-6.97687c.83887.0177,1.67822.0296,2.51758.0296.45117,0,.90234-.00653,1.35351-.01166l6.71582,18.163a3.79909,3.79909,0,0,0,.15235.35156,84.8065,84.8065,0,0,1,5.31152,13.34082,84.725,84.725,0,0,1,3.21777,16.09766l-.01172,1.01953q-.06883,6.09521-.14648,12.18945c0,.0105.00269.0202.00269.0307l-.00171.01715.01611,20.92627H28.62245l2.89013-17.10889a35.90794,35.90794,0,0,0,5.55176,2.13379,3.50016,3.50016,0,1,0,1.94531-6.72461C29.39247,239.41016,22.25965,232.05908,20.39539,223.00879Zm7.0459,47.88281H60.74037l.01586,20.65088H23.952Zm8.65625,114.68555L21.954,371.751a26.49836,26.49836,0,0,1-7.60547-23.36377l8.42017-49.84473H60.76185l.02515,32.522a13.61212,13.61212,0,0,0,4.06543,9.67383l2.314,2.26ZM49.1493,403.39209a8.15887,8.15887,0,0,1-6.11914-1.48193l-.001-.00049a8.23149,8.23149,0,0,1-2.93652-9.30951c.02783-.06543.05225-.13092.07568-.19757a8.25378,8.25378,0,0,1,1.064-1.98755l31.79394-43.57275a8.173,8.173,0,0,1,5.375-3.27881,8.332,8.332,0,0,1,1.28809-.10059,8.22818,8.22818,0,0,1,6.62891,13.07764l-31.794,43.57275A8.1731,8.1731,0,0,1,49.1493,403.39209ZM79.497,419.46436v8.55389l-21.7002-21.21478a15.3212,15.3212,0,0,0,2.38184-2.56421l28.98974-39.72949,9.63477,9.41851A63.59731,63.59731,0,0,0,79.497,419.46436ZM369.09657,202.90479a17.47465,17.47465,0,0,1-21.97022,7.36016,117.4407,117.4407,0,0,0,17.34375-30.072A17.52431,17.52431,0,0,1,369.09657,202.90479ZM358.46668,64.13623a17.49055,17.49055,0,0,1,6.054,30.83258,116.66483,116.66483,0,0,0-17.405-30.03033A17.35621,17.35621,0,0,1,358.46668,64.13623Zm-50.46191-41.3999a17.48876,17.48876,0,0,1,20.6311,23.72192,116.66341,116.66341,0,0,0-30.0188-17.4013A17.35356,17.35356,0,0,1,308.00477,22.73633ZM255.97743,6.98438a17.51539,17.51539,0,0,1,17.345,15.29138,117.12883,117.12883,0,0,0-34.68994,0A17.51537,17.51537,0,0,1,255.97743,6.98438ZM190.66786,24.48584a17.46809,17.46809,0,0,1,22.67089,4.57068,116.66169,116.66169,0,0,0-30.019,17.4013A17.52271,17.52271,0,0,1,190.66786,24.48584ZM141.11317,85.57275a17.48568,17.48568,0,0,1,23.72607-20.63458A116.66434,116.66434,0,0,0,147.43495,94.9671,17.371,17.371,0,0,1,141.11317,85.57275Zm12.375,125.48975a17.495,17.495,0,0,1-6.0044-30.87195A117.44554,117.44554,0,0,0,164.828,210.26447,17.361,17.361,0,0,1,153.48817,211.0625Zm-7.1211-73.46826a109.61036,109.61036,0,1,1,181.04371,83.12042l7.59985-45.76691c.00684-.04492.01367-.09033.01953-.13525a71.776,71.776,0,0,0,.09351-17.31537,81.65794,81.65794,0,0,0-54.08228-97.55365c-.1748-.356-.34448-.7138-.53467-1.06457a29.32647,29.32647,0,0,0-8.19043-9.51465l-14.23242-10.727a3.49811,3.49811,0,0,0-4.21289,0l-14.23242,10.727a29.33339,29.33339,0,0,0-8.19043,9.51367c-.19043.35113-.36011.70935-.53516,1.06573a82.4169,82.4169,0,0,0-40.09863,28.56513,81.51357,81.51357,0,0,0-13.9834,68.99017,71.786,71.786,0,0,0,.09375,17.31354c.00586.04492.0127.09033.01953.13525l7.60157,45.76819A110.03945,110.03945,0,0,1,146.36707,137.59424Zm162.4336,66.46094a51.60467,51.60467,0,0,0-37.00293-9.18116l-15.82031,2.13037L240.15711,194.874a51.58956,51.58956,0,0,0-37.00293,9.18116A44.80818,44.80818,0,0,0,191.037,217.07257l-7.17578-43.20294a64.894,64.894,0,0,1,33.7915-64.96887,17.44815,17.44815,0,0,0,16.78857,12.80383h43.07227a17.44813,17.44813,0,0,0,16.78857-12.80383,64.89469,64.89469,0,0,1,33.79151,64.96936l-7.17481,43.20373A44.81028,44.81028,0,0,0,308.80067,204.05518Zm11.79492,36.51611v24.64648a64.62166,64.62166,0,0,1-64.61719,64.62354h-1.7041a62.67577,62.67577,0,0,1-44.5498-18.332,62.03491,62.03491,0,0,1-18.36524-44.24366V240.57324a37.95458,37.95458,0,0,1,15.86328-30.82178,44.59518,44.59518,0,0,1,25.97754-8.34472,45.09044,45.09044,0,0,1,6.02344.40478l16.28711,2.19336a3.47444,3.47444,0,0,0,.93359,0l16.28711-2.19336a44.607,44.607,0,0,1,32.001,7.93994A37.95232,37.95232,0,0,1,320.59559,240.57129ZM231.44813,87.03076l.043.07935A17.46555,17.46555,0,0,0,217.27625,101.262a70.88377,70.88377,0,0,0-31.60253,29.32251,72.37251,72.37251,0,0,0-4.27613,8.928c-.01636-.639-.03052-1.27826-.03052-1.91827A75.19,75.19,0,0,1,228.2433,68.34479,29.43966,29.43966,0,0,0,231.44813,87.03076Zm46.06543,6.81006a10.43189,10.43189,0,0,1,0,20.86377H234.44129a10.43189,10.43189,0,0,1,0-20.86377ZM237.60243,62.21289a22.39186,22.39186,0,0,1,6.249-7.25879l12.126-9.13916,12.126,9.13916a22.54236,22.54236,0,0,1,6.249,28.74072l-1.70508,3.146H239.3075l-1.70507-3.146A22.46486,22.46486,0,0,1,237.60243,62.21289Zm46.10913,6.13184a75.1905,75.1905,0,0,1,46.87622,69.24951c0,.64-.01416,1.27923-.03052,1.91827a72.37388,72.37388,0,0,0-4.27612-8.928,70.88471,70.88471,0,0,0-31.6023-29.32245,17.46581,17.46581,0,0,0-14.21509-14.15191l.043-.07935A29.44012,29.44012,0,0,0,283.71156,68.34473Zm-7.78,419.22168v.00048L260.58778,504.4917a1.49864,1.49864,0,0,1-2.22168,0l-15.34278-16.92529a1.49421,1.49421,0,0,1,0-2.01416l3.25782-3.59345c.04028-.04.07641-.08465.115-.12683l11.97094-13.20453a1.49866,1.49866,0,0,1,2.22168,0l15.34278,16.92529A1.49357,1.49357,0,0,1,275.93153,487.56641Zm58.666-63.08637a77.2435,77.2435,0,0,1-32.96386,35.96137l-25.98975,14.37194-9.86865-10.88708a8.49889,8.49889,0,0,0-12.59473,0l-10.1001,11.14105-26.438-14.62494a76.43221,76.43221,0,0,1-32.28516-34.46014V379.87933c.93555.48365,1.85547.94037,2.74267,1.35395a26.194,26.194,0,0,0,3.26319,7.9757c3.96435,6.374,10.1167,10.11676,16.86865,12.97254a47.75188,47.75188,0,0,0,23.62158,32.57532l26.58985,14.71a3.49963,3.49963,0,0,0,3.38867,0l26.59082-14.71045A47.2931,47.2931,0,0,0,311.62879,398.247a28.66631,28.66631,0,0,0,9.22071-9.038,26.16242,26.16242,0,0,0,3.2456-7.89978,72.63515,72.63515,0,0,0,10.50244-5.95813ZM215.19276,405.18225q1.01147.35175,2.021.6991c10.39454,3.583,21.14258,7.28857,28.09864,16.76806a34.05,34.05,0,0,1,4.23828,7.70264,6.49755,6.49755,0,0,0,12.11133.00147,34.1035,34.1035,0,0,1,4.23828-7.70411c6.957-9.47949,17.70508-13.18457,28.09863-16.76806,3.31787-1.14374,6.66992-2.303,9.88916-3.65961a40.31316,40.31316,0,0,1-19.855,26.4101L259.13758,442.4043l-24.89551-13.77246A40.73625,40.73625,0,0,1,215.19276,405.18225ZM350.16883,301.24268a3.50059,3.50059,0,0,0-1.71289,4.64355c1.96,4.24951,11.05274,26.5293-2.38086,47.876a52.58783,52.58783,0,0,1-10.40649,11.95947c-.01489.01428-.03272.02509-.04737.03961a62.0137,62.0137,0,0,1-10.75317,7.33093,52.49112,52.49112,0,0,0-3.81543-17.11175,3.5,3.5,0,0,0-6.53125,2.51855c4.36426,11.31885,4.49317,20.40723.38477,27.0127a22.7142,22.7142,0,0,1-8.29639,7.63513c-.019.01068-.03809.02039-.05664.03143-4.229,2.42365-9.32275,4.18482-14.83545,6.08539-10.87891,3.75049-23.21,8.00147-31.46,19.24414a41.03512,41.03512,0,0,0-4.65137,8.16358,41.05122,41.05122,0,0,0-4.65039-8.16358c-8.25-11.24267-20.58105-15.49365-31.46094-19.24414-9.99609-3.44629-18.62988-6.42236-23.18847-13.75146a19.43626,19.43626,0,0,1-2.57227-6.738,3.47948,3.47948,0,0,0-.14673-.92969c-.79028-5.44037.23658-11.90808,3.10376-19.34552a3.5,3.5,0,0,0-6.53125-2.51855,52.583,52.583,0,0,0-3.81323,17.03149A56.44061,56.44061,0,0,1,165.286,353.76221c-13.4375-21.353-4.3418-43.627-2.38184-47.875a3.49972,3.49972,0,1,0-6.35546-2.93262,60.16106,60.16106,0,0,0-3.56641,10.43561c-5.59888-5.91834-12.78858-15.90845-13.30567-28.565-.49609-12.14991,3.085-29.1836,14.62793-40.55225,7.88819-7.76923,18.23707-11.70514,30.78956-11.75855a44.67908,44.67908,0,0,0-.73487,8.05884v26.69238a69.64639,69.64639,0,0,0,69.915,69.57569h1.7041a71.621,71.621,0,0,0,71.61719-71.62354v-24.647a44.65713,44.65713,0,0,0-.801-8.36853c8.73169-.80945,19.43555-1.29388,31.70142,9.08337,10.918,9.2417,15.38965,23.53516,13.29,42.48243l-.0918.853c-1.27319,12.91156-7.748,22.56781-13.34082,28.67078a60.07717,60.07717,0,0,0-3.54-10.3363A3.4994,3.4994,0,0,0,350.16883,301.24268Zm137.83472-9.7002h-36.895l-.031-20.65088H484.515Zm-32.24927-141.5766a45.34543,45.34543,0,0,1,11.74365,5.73529c12.22559,8.38361,20.06031,22.652,21.86329,39.17133a25.575,25.575,0,0,0-13.55079-4.33826c-1.82544-2.67352-3.77783-5.30463-5.835-7.835a119.29856,119.29856,0,0,0-21.043-20.22766c.32764-.39887.6565-.81385.98438-1.24939A38.53421,38.53421,0,0,0,455.75428,149.96588Zm-27.15674-1.74713a61.81966,61.81966,0,0,1,20.34668.05707,31.55683,31.55683,0,0,1-4.61914,8.73639,29.51466,29.51466,0,0,1-5.59668,5.69433,27.25318,27.25318,0,0,1-18.90283,5.40015A38.848,38.848,0,0,1,428.59754,148.21875Zm23.62012,51.32373a15.641,15.641,0,0,0-.90747,2.38794c-.88208-.05292-1.74976-.09686-2.59937-.13794-5.98828-.28906-10.71777-.51709-16.15722-4.293-9.09668-6.31445-11.7461-16.77051-12.3418-19.82763-.1687-.86213-.2959-1.71216-.39014-2.551.822.05926,1.644.09936,2.46436.09936a34.2459,34.2459,0,0,0,20.667-6.93261c.27759-.21009.61988-.483.99072-.78943a112.38415,112.38415,0,0,1,20.59815,19.61365c.959,1.18017,1.88916,2.38629,2.79858,3.60455l-1.5935.04535A15.44342,15.44342,0,0,0,452.21766,199.54248Zm3.48535,24.59375.93164-.48584a8.24243,8.24243,0,0,0,2.76856-12.2749,8.50055,8.50055,0,0,1,6.543-13.6167l8.59472-.24463a18.61286,18.61286,0,0,1,17.97657,12.16211,23.9362,23.9362,0,0,1-6.12012,25.79785l-5.23926,4.90381-5.98047,2.84277a3.50022,3.50022,0,0,0,3.00586,6.32227l2.52246-1.19922,2.62647,15.54785H451.06727l-.011-7.35248.0022-.023-.01855-12.73144c0-.07324-.00293-.146-.00684-.21826l-.63965-10.00635A9.91959,9.91959,0,0,1,455.703,224.13623Zm-23.24512,203.882v-9.48407a63.7403,63.7403,0,0,0-18.86718-45.036l9.1958-8.98859,28.98974,39.72968a15.32163,15.32163,0,0,0,2.38184,2.56415ZM472.205,396.53467a8.17332,8.17332,0,0,1-3.2793,5.375l-.001.00049a8.22667,8.22667,0,0,1-11.49414-1.79688l-31.79394-43.57275a8.22957,8.22957,0,0,1,6.6289-13.07764,8.332,8.332,0,0,1,1.28809.10059,8.173,8.173,0,0,1,5.375,3.27881L470.72254,390.415a8.25378,8.25378,0,0,1,1.064,1.98755c.02344.06665.04785.13214.07568.19757A8.18994,8.18994,0,0,1,472.205,396.53467Zm3.65234-10.95746-31.06885-42.579,2.3169-2.26288a13.61261,13.61261,0,0,0,4.0625-9.67627l-.04883-32.5166h38.06689l8.42041,49.84522a26.49922,26.49922,0,0,1-7.60547,23.36376Zm-428.23193-221.42a3.5,3.5,0,1,0-3.5,3.5A3.50009,3.50009,0,0,0,47.62538,164.15723ZM285.18446,280.28662a3.4999,3.4999,0,0,0,0,4.9502,7.80319,7.80319,0,0,1,0,11.02148l-7.48145,7.48145a7.76578,7.76578,0,0,1-8.50879,1.68359l-9.71679-4.04883V296.2597a6.48333,6.48333,0,0,0,1.876-1.81243l9.18262-13.51221a6.49917,6.49917,0,0,0-5.375-10.15332H246.79383a6.49917,6.49917,0,0,0-5.375,10.15332l9.18262,13.51221a6.48324,6.48324,0,0,0,1.876,1.81243v5.11481l-9.71582,4.04883a7.76981,7.76981,0,0,1-8.50977-1.68359l-7.48145-7.481a7.80379,7.80379,0,0,1,0-11.022,3.5,3.5,0,0,0-4.94921-4.9502,14.81185,14.81185,0,0,0,0,20.92188l7.48144,7.48144a14.7502,14.7502,0,0,0,16.15137,3.19531l10.52344-4.38513,10.52441,4.38513a14.74861,14.74861,0,0,0,16.15039-3.19531l7.48145-7.48193a14.81128,14.81128,0,0,0,0-20.92139A3.5005,3.5005,0,0,0,285.18446,280.28662Zm-37.44532-2.50488h16.47657l-8.23828,12.12256Zm54.041-42.17188a16.04168,16.04168,0,0,1-9.10937,2.63965,15.80662,15.80662,0,0,1-8.36231-2.63867,3.49979,3.49979,0,1,0-3.86914,5.833,22.79722,22.79722,0,0,0,12.06738,3.80371q.26661.00659.53028.00635a23.11348,23.11348,0,0,0,12.61035-3.80909,3.50007,3.50007,0,0,0-3.86719-5.835ZM169.43641,172.89844a3.46234,3.46234,0,0,0-4.55469-1.8628,3.53657,3.53657,0,0,0,1.3584,6.79151,3.50171,3.50171,0,0,0,3.24121-4.81836Zm49.46875,72.35547a23.11255,23.11255,0,0,0,12.60938-3.80909,3.50007,3.50007,0,0,0-3.86719-5.835,16.06235,16.06235,0,0,1-9.1084,2.63965,15.81042,15.81042,0,0,1-8.36328-2.63867,3.49979,3.49979,0,1,0-3.86914,5.833,22.79716,22.79716,0,0,0,12.06738,3.80371C218.55262,245.252,218.72938,245.25391,218.90516,245.25391Zm-55.00684-91.6792-.03418-.20655a3.54134,3.54134,0,1,0,.03418.20655ZM273.59461,45.81689l.11817.02247a3.452,3.452,0,0,0,4.05566-2.78809,3.53541,3.53541,0,0,0-2.82031-4.10254,3.50013,3.50013,0,0,0-1.35352,6.86816Zm19.43848,5.978,1.45215-3.18506-1.39746,3.209a3.50007,3.50007,0,0,0,2.79492-6.418c-.0127-.00537-.11621-.05029-.12891-.05518a3.49981,3.49981,0,0,0-2.7207,6.44922Zm32.75684,23.69776a3.40871,3.40871,0,0,0,2.54492,1.13525,3.54929,3.54929,0,1,0-2.66309-1.26807C325.68934,75.37939,325.77235,75.47363,325.78993,75.49268Zm-15.18262-13.708.12988.09424a3.45489,3.45489,0,0,0,2.01465.64843,3.57,3.57,0,1,0-2.14453-.74267Zm-51.12988,421.2749a3.5,3.5,0,1,0,3.5,3.5A3.4999,3.4999,0,0,0,259.47743,483.05957Zm-62.46-418.91211a3.48306,3.48306,0,0,0,2.11328-.7124l.11132-.08594a3.45752,3.45752,0,0,0,.58692-4.86474,3.54089,3.54089,0,0,0-4.93067-.62452,3.5,3.5,0,0,0,2.11915,6.2876ZM215.01258,53.2168a3.4872,3.4872,0,0,0,1.48047-.33057l.09082-.04248a3.49987,3.49987,0,0,0-2.96484-6.34082l-.09082.04248a3.50069,3.50069,0,0,0,1.48437,6.67139Zm19.93457-6.77a3.5318,3.5318,0,0,0,.71-.07227c.02344-.00488.14356-.03125.167-.03662a3.45723,3.45723,0,0,0,2.59668-4.14307,3.544,3.544,0,0,0-4.17579-2.67675,3.50042,3.50042,0,0,0,.70215,6.92871Zm114.20117,84.0415c.002.03418.0127.16748.01563.20166a3.50078,3.50078,0,0,0,3.48242,3.19385c.10254,0,.207-.0044.31152-.01367a3.55033,3.55033,0,1,0-3.80957-3.38184ZM337.56532,92.021a3.47041,3.47041,0,0,0,3.02832,1.76367,3.55525,3.55525,0,1,0-3.1084-1.90821ZM161.46082,115.648a3.49519,3.49519,0,0,0,4.29786-2.45557l.02636-.09668a3.50026,3.50026,0,0,0-6.7539-1.84179l-.02637.09668A3.49945,3.49945,0,0,0,161.46082,115.648ZM352.39735,147.875a3.51548,3.51548,0,0,0-3.91895,3.01123l3.459.53565-3.46289-.50928a3.50014,3.50014,0,1,0,6.92578,1.01855l.02636-.19336A3.48016,3.48016,0,0,0,352.39735,147.875Zm-8.97071,22.7085a3.5002,3.5002,0,1,0,6.55469,2.458l.03516-.09375a3.5002,3.5002,0,0,0-6.55469-2.458Zm2.0586-59.88819a3.50006,3.50006,0,0,0,6.69922-2.03027l-.03321-.11035a3.50045,3.50045,0,0,0-6.6914,2.05859Z"/></svg>