<svg xmlns="http://www.w3.org/2000/svg" data-name="Layer 1" viewBox="0 0 512 512"><path fill="#3c3b42" d="M255.6502,377.30931c-48.80187,0-79.86426,48.56242-100.32728,4.25793-44.30449-95.9237,5.72354-106.91891,5.72353-212.57988,0-54.09067,40.84915-100.93982,94.93982-100.93982h.02746c54.09067,0,94.93982,46.84915,94.93982,100.93982,0,105.661,50.028,116.65618,5.72353,212.57988-20.463,44.30449-51.52541-4.25793-100.32728-4.25793Z"/><path fill="#2c2c2e" d="M256.01367,68.04755h-.02734c-27.38648,0-51.37354,12.01422-68.38819,30.8927a10.89449,10.89449,0,0,0,7.29517.659,1.50343,1.50343,0,0,1,1.82935,1.03571,10.884,10.884,0,0,0,20.92773-.19489,1.50353,1.50353,0,0,1,1.81152-1.06652,10.8029,10.8029,0,0,0,12.5232-6.2627,12.31529,12.31529,0,0,0,10.34814,1.97376,1.69717,1.69717,0,0,1,2.06519,1.16912,12.28635,12.28635,0,0,0,23.62427-.22,1.69741,1.69741,0,0,1,2.04516-1.204,12.31184,12.31184,0,0,0,9.91748-1.89093,10.87153,10.87153,0,0,0,12.908,6.6604,1.50343,1.50343,0,0,1,1.82935,1.03571,10.884,10.884,0,0,0,20.92773-.19489,1.50353,1.50353,0,0,1,1.81152-1.06652,10.89973,10.89973,0,0,0,6.813-.57465C307.26831,80.00165,283.332,68.04755,256.01367,68.04755Z"/><path fill="#2c2c2e" fill-rule="evenodd" d="M198.01367,331.04669l-55.62793,16.55365A236.23141,236.23141,0,0,0,155.323,381.5672c20.46289,44.3045,51.52539-4.25793,100.32715-4.25787h.6997c48.80176-.00006,79.86426,48.56237,100.32715,4.25787a236.23337,236.23337,0,0,0,12.93775-33.96832l-55.62281-16.55219a22.41986,22.41986,0,0,1-7.35376-3.77313,7.96089,7.96089,0,0,1-.27115-12.26485,76.12078,76.12078,0,0,0,26.23282-57.54655V194.66632a39.13393,39.13393,0,0,0-16.439-31.868v-.00006a49.66475,49.66475,0,0,0-44.483-6.67328,49.63254,49.63254,0,0,1-31.3502,0,49.66474,49.66474,0,0,0-44.483,6.67328v.00006a39.13391,39.13391,0,0,0-16.439,31.868v62.79584a76.12085,76.12085,0,0,0,26.23282,57.54661,7.96088,7.96088,0,0,1-.27116,12.26485A22.4193,22.4193,0,0,1,198.01367,331.04669Z"/><path fill="#2c2c2e" d="M242.34985 377.30933h-.6997c-29.27076-.00006-52.15747 17.46362-70.20533 21.88757 18.58936 6.27447 43.54981-18.57275 77.55518-21.5893C246.82056 377.41425 244.60425 377.30933 242.34985 377.30933zM350.95361 168.98737c0-54.0907-40.84912-100.93982-94.93994-100.93982h-.02734c-2.35523 0-4.6836.09436-6.98633.26873 50.58252 3.83039 87.95361 48.93561 87.95361 100.67109 0 105.661 50.02784 116.65618 5.72339 212.57983-4.76806 10.32355-10.11255 15.60132-16.12182 17.6297 12.04272 2.9519 21.93237.10162 30.12182-17.6297C400.98145 285.64355 350.95361 274.64832 350.95361 168.98737z"/><path fill="#2c2c2e" d="M353.98584,210.09155l-.01606-.01625A21,21,0,0,0,332.59991,231.072c0,.4188.01226,7.83474.03644,8.24747.79822,13.62521,21.34949,12.71211,21.34949-.93646Z"/><path fill="#fee903" d="M353.98584,203.09155l-.01606-.01625A21,21,0,0,0,332.59991,224.072c0,.4188.01226,7.83474.03644,8.24747.79822,13.62521,21.34949,12.71211,21.34949-.93646Z"/><path fill="#2c2c2e" d="M158.106,210.09155l.01606-.01625A21,21,0,0,1,179.492,231.072c0,.4188-.01226,7.83474-.03644,8.24747C178.6573,252.9447,158.106,252.0316,158.106,238.383Z"/><path fill="#fee903" d="M158.106,203.09155l.01606-.01625A21,21,0,0,1,179.492,224.072c0,.4188-.01226,7.83474-.03644,8.24747C178.6573,245.9447,158.106,245.0316,158.106,231.383Z"/><path fill="#3c3b42" d="M231.41988,3.5h49.16025a30,30,0,0,1,30,30V71.36465a0,0,0,0,1,0,0H201.41988a0,0,0,0,1,0,0V33.5a30,30,0,0,1,30-30Z"/><path fill="#2c2c2e" d="M280.58008,3.5h-14a30,30,0,0,1,30,30V71.36462h14V33.5A30,30,0,0,0,280.58008,3.5Z"/><path fill="#ffbd86" d="M332.60006 181.51892h0V226.6582h0a21.38578 21.38578 0 0 0 21.38578-21.38578V202.9047A21.38578 21.38578 0 0 0 332.60006 181.51892zM179.40568 226.6582h0V181.51892h0A21.29966 21.29966 0 0 0 158.106 202.81858v2.54A21.29966 21.29966 0 0 0 179.40568 226.6582z"/><path fill="#fed2a4" d="M424.77736,512a10,10,0,0,0,10-10V431.15125a67.32892,67.32892,0,0,0-48.18346-64.49982l-72.602-21.60475a22.443,22.443,0,0,1-16.06116-21.49994V293.70423H214.0749v29.84251a22.443,22.443,0,0,1-16.06116,21.49994l-72.602,21.60475a67.32892,67.32892,0,0,0-48.18346,64.49982V502a10,10,0,0,0,10,10Z"/><path fill="#ffbd86" d="M386.59375,366.65143l-8.94971-2.66327h0l-63.6521-18.94147a22.44311,22.44311,0,0,1-16.06128-21.49994V293.70422H214.075v7h69.85571v29.84253a22.44311,22.44311,0,0,0,16.06128,21.49994l44.74972,13.31658a5.00346,5.00346,0,0,1,.93615,9.19656,74.6805,74.6805,0,0,0-35.84212,45.1981C298.89844,458.43256,320.53247,499.07806,358.083,512h48.96387a75.066,75.066,0,0,0,13.73046-6.40558V509a9.99146,9.99146,0,0,1-.45922,3h4.45922a10,10,0,0,0,10-10V431.15125A67.32893,67.32893,0,0,0,386.59375,366.65143Z"/><path fill="#bc7c63" d="M236.79,506.96143a3.5,3.5,0,1,0,4.92969-4.96973c-12.76953-12.66455-29.61426-34.24121-38.59571-56.81641-16.31445-41.01074-10.35742-79.10351-5.35351-98.16015a3.46958,3.46958,0,0,0-.042-1.88355l-7.25245,2.15814c-5.0852,20.48627-10.34375,59.02655,6.144,100.47345C208.42285,477.43164,230.35059,500.5752,236.79,506.96143Z"/><path fill="#ffbd86" d="M201.02979,343.89465c1.47192,1.45075,3.03564,2.91712,4.71337,4.38611a109.62974,109.62974,0,0,0,13.22413,9.91974,8.13306,8.13306,0,0,0,1.49023,3.93958l.17969.24749a8.12454,8.12454,0,0,0,6.59057,3.33972,8.32294,8.32294,0,0,0,4.48194-1.34259,74.5967,74.5967,0,0,0,17.13012,4.26307,8.21449,8.21449,0,0,0,.79346,1.37054l.17969.2475a8.12533,8.12533,0,0,0,6.59082,3.33972,8.33829,8.33829,0,0,0,4.896-1.59485,8.07037,8.07037,0,0,0,2.52906-3.01257,73.59319,73.59319,0,0,0,15.12475-2.80042,8.12887,8.12887,0,0,0,5.86182,2.483,8.33875,8.33875,0,0,0,4.896-1.59478,8.16119,8.16119,0,0,0,3.36084-6.64362,82.05292,82.05292,0,0,0,15.02246-10.162,3.48337,3.48337,0,0,0,.56054-.62426,22.44728,22.44728,0,0,1-5.313-4.52424,75.19528,75.19528,0,0,1-13.2063,8.9607,8.28313,8.28313,0,0,0-10.17041-.45484,8.179,8.179,0,0,0-3.42408,5.989,66.33017,66.33017,0,0,1-12.59814,2.34894,8.28314,8.28314,0,0,0-14.99439-.36628,67.60015,67.60015,0,0,1-13.50537-3.30078,8.27466,8.27466,0,0,0-14.031-6.80877,71.19012,71.19012,0,0,1-10.87647-8.32056c-.0791-.07428-.16894-.128-.25268-.19354a13.248,13.248,0,0,0-4.16089-2.32849A22.41724,22.41724,0,0,1,201.02979,343.89465Z"/><path fill="#ffbd86" fill-rule="evenodd" d="M214.075,293.70422v22.5459a76.38838,76.38838,0,0,0,48.92774,17.62647h.00024a76.38446,76.38446,0,0,0,35.00732-8.45465q-.078-.92945-.07959-1.87519V293.70422Z"/><path fill="#fed2a4" fill-rule="evenodd" d="M256.00288,319.87661h-.00015a76.5059,76.5059,0,0,1-76.59706-76.41441V180.66636a39.13408,39.13408,0,0,1,16.43905-31.868l0,0a49.66436,49.66436,0,0,1,44.48384-6.673h0a49.67837,49.67837,0,0,0,31.34832,0h0a49.66436,49.66436,0,0,1,44.48384,6.673l0,0a39.13407,39.13407,0,0,1,16.43906,31.868V243.4622A76.5059,76.5059,0,0,1,256.00288,319.87661Z"/><path fill="#ffbd86" fill-rule="evenodd" d="M316.16089,148.79834v-.00006a49.55714,49.55714,0,0,0-13.8501-6.88617,39.12964,39.12964,0,0,1,16.28906,31.75421v62.79584a76.50591,76.50591,0,0,1-76.59692,76.41443h-.00024a76.55794,76.55794,0,0,1-27.06177-4.922,76.34248,76.34248,0,0,0,41.06177,11.922h.00024a76.50591,76.50591,0,0,0,76.59692-76.41443V180.66632A39.13393,39.13393,0,0,0,316.16089,148.79834Z"/><path fill="#ffbd86" fill-rule="evenodd" d="M316.16089,148.79834v-.00006a49.66474,49.66474,0,0,0-44.48389-6.673,49.67831,49.67831,0,0,1-31.34839,0,49.66471,49.66471,0,0,0-44.48388,6.673v.00006a39.13391,39.13391,0,0,0-16.439,31.868v14a39.13391,39.13391,0,0,1,16.439-31.868v-.00006a49.66471,49.66471,0,0,1,44.48388-6.673,49.67831,49.67831,0,0,0,31.34839,0,49.66474,49.66474,0,0,1,44.48389,6.673v.00006a39.13393,39.13393,0,0,1,16.439,31.868v-14A39.13393,39.13393,0,0,0,316.16089,148.79834Z"/><path fill="#aa6a51" d="M218.95186 489.51961a7.7229 7.7229 0 0 1-6.25974-3.16447l-.17069-.23448a7.74167 7.74167 0 0 1 1.824-10.8547 7.87493 7.87493 0 1 1 4.60645 14.25365zM200.65774 458.31506a7.83107 7.83107 0 0 1-7.36991-5.129l-.05244-.14481a7.72139 7.72139 0 0 1 4.63323-9.94994 7.8537 7.8537 0 0 1 10.05852 4.58322l.10051.27233a7.72535 7.72535 0 0 1-4.72172 9.91A7.91005 7.91005 0 0 1 200.65774 458.31506zM184.09316 416.59355a7.75665 7.75665 0 0 1 6.49818-8.88011 7.845 7.845 0 0 1 9.00718 6.40651c.00548.03133.04383.28085.04821.31217a7.75786 7.75786 0 0 1-6.60775 8.80018 7.95053 7.95053 0 0 1-1.169.08641 7.81984 7.81984 0 0 1-7.75706-6.60094M189.50888 387.30931c-.03952 0-.078 0-.11748-.00108a7.80086 7.80086 0 0 1-7.75359-7.85291l.00329-.2203a7.71636 7.71636 0 0 1 7.98306-7.62721 7.80023 7.80023 0 0 1 7.7547 7.85183l-.0033.22246A7.80753 7.80753 0 0 1 189.50888 387.30931z"/><path fill="#efedef" d="M229.75711,74.15232a1.50353,1.50353,0,0,1-.01782-2.10222,10.88388,10.88388,0,0,0-10.63255-18.02641,1.50354,1.50354,0,0,1-1.82949-1.03568,10.88389,10.88389,0,0,0-20.92762.19485A1.50354,1.50354,0,0,1,194.538,54.2494a10.8839,10.8839,0,0,0-10.29507,18.22128,1.50355,1.50355,0,0,1,.01781,2.10223,10.8839,10.8839,0,0,0,10.63258,18.02642,1.50355,1.50355,0,0,1,1.82949,1.03569,10.88389,10.88389,0,0,0,20.92761-.19487,1.50353,1.50353,0,0,1,1.81167-1.06654,10.8839,10.8839,0,0,0,10.29506-18.22129Z"/><path fill="#e5e1e5" d="M229.75708,74.15228a1.5035,1.5035,0,0,1-.01782-2.10217,10.88386,10.88386,0,0,0-10.63257-18.02643,1.50342,1.50342,0,0,1-1.82935-1.0357,10.87088,10.87088,0,0,0-17.43554-5.232,10.88727,10.88727,0,0,1,3.43554,5.232,1.50342,1.50342,0,0,0,1.82935,1.0357,10.88386,10.88386,0,0,1,10.63257,18.02643,1.5035,1.5035,0,0,0,.01782,2.10217A10.88395,10.88395,0,0,1,205.46191,92.3736a1.50353,1.50353,0,0,0-1.81152,1.06652A10.88378,10.88378,0,0,1,200.1582,98.867a10.87185,10.87185,0,0,0,17.49219-5.42688,1.50353,1.50353,0,0,1,1.81152-1.06652,10.88395,10.88395,0,0,0,10.29517-18.22132Z"/><circle cx="206.704" cy="72.122" r="7.402" fill="#fd4755"/><path fill="#efedef" d="M327.75711,74.15232a1.50353,1.50353,0,0,1-.01782-2.10222,10.88388,10.88388,0,0,0-10.63255-18.02641,1.50354,1.50354,0,0,1-1.82949-1.03568,10.88389,10.88389,0,0,0-20.92762.19485A1.50354,1.50354,0,0,1,292.538,54.2494a10.8839,10.8839,0,0,0-10.29507,18.22128,1.50355,1.50355,0,0,1,.01781,2.10223,10.8839,10.8839,0,0,0,10.63258,18.02642,1.50355,1.50355,0,0,1,1.82949,1.03569,10.88389,10.88389,0,0,0,20.92761-.19487,1.50353,1.50353,0,0,1,1.81167-1.06654,10.8839,10.8839,0,0,0,10.29506-18.22129Z"/><path fill="#e5e1e5" d="M327.75708,74.15228a1.5035,1.5035,0,0,1-.01782-2.10217,10.88386,10.88386,0,0,0-10.63257-18.02643,1.50342,1.50342,0,0,1-1.82935-1.0357,10.87088,10.87088,0,0,0-17.43554-5.232,10.88727,10.88727,0,0,1,3.43554,5.232,1.50342,1.50342,0,0,0,1.82935,1.0357,10.88386,10.88386,0,0,1,10.63257,18.02643,1.5035,1.5035,0,0,0,.01782,2.10217A10.88395,10.88395,0,0,1,303.46191,92.3736a1.50353,1.50353,0,0,0-1.81152,1.06652A10.88378,10.88378,0,0,1,298.1582,98.867a10.87185,10.87185,0,0,0,17.49219-5.42688,1.50353,1.50353,0,0,1,1.81152-1.06652,10.88395,10.88395,0,0,0,10.29517-18.22132Z"/><circle cx="304.704" cy="72.122" r="7.402" fill="#fd4755"/><path fill="#efedef" d="M281.68947,67.26067a1.69728,1.69728,0,0,1-.02011-2.37311,12.28632,12.28632,0,0,0-12.00261-20.3492,1.69729,1.69729,0,0,1-2.06523-1.16914,12.28634,12.28634,0,0,0-23.62424.22,1.69728,1.69728,0,0,1-2.04512,1.204,12.28635,12.28635,0,0,0-11.62163,20.56919,1.69728,1.69728,0,0,1,.0201,2.37311,12.28635,12.28635,0,0,0,12.00264,20.34922,1.69727,1.69727,0,0,1,2.06523,1.16913,12.28633,12.28633,0,0,0,23.62423-.22,1.69728,1.69728,0,0,1,2.04512-1.204,12.28634,12.28634,0,0,0,11.62162-20.56919Z"/><path fill="#e5e1e5" d="M281.68945,67.26062a1.69733,1.69733,0,0,1-.02-2.37311,12.28637,12.28637,0,0,0-12.00268-20.34918,1.69718,1.69718,0,0,1-2.06519-1.16913,12.2718,12.2718,0,0,0-18.78149-6.59741,12.30177,12.30177,0,0,1,4.78149,6.59741,1.69718,1.69718,0,0,0,2.06519,1.16913,12.28637,12.28637,0,0,1,12.00268,20.34918,1.69733,1.69733,0,0,0,.02,2.37311,12.28633,12.28633,0,0,1-11.62158,20.56921,1.69741,1.69741,0,0,0-2.04516,1.204,12.29873,12.29873,0,0,1-4.84278,6.81739,12.2705,12.2705,0,0,0,18.84278-6.81739,1.69741,1.69741,0,0,1,2.04516-1.204,12.28633,12.28633,0,0,0,11.62158-20.56921Z"/><circle cx="255.666" cy="64.969" r="8.355" fill="#fd4755"/><path fill="#aa6a51" d="M256.40376 366.60552a8.12481 8.12481 0 0 1-6.59066-3.33971l-.17972-.24747a8.18287 8.18287 0 0 1 1.92041-11.45586 8.30425 8.30425 0 1 1 4.85 15.043zM227.22778 358.72731a8.1248 8.1248 0 0 1-6.59067-3.33972l-.17971-.24747a8.18288 8.18288 0 0 1 1.9204-11.45586 8.30425 8.30425 0 1 1 4.85 15.043zM284.81551 361.68069a8.1248 8.1248 0 0 1-6.59067-3.33972l-.17972-.24747a8.18287 8.18287 0 0 1 1.92041-11.45586 8.30425 8.30425 0 1 1 4.85 15.04305zM487.57007 165.58l-4.97 18.74-1.79 6.76-5.03 18.97a7.529 7.529 0 0 1-2.49 3.89l-10.48 8.61a7.56143 7.56143 0 0 0-2.57007 4.18l-4.11011 18.36-1.52978 6.83L448.5 279.18l-1.53 6.83-19.03 84.99A15.31005 15.31005 0 0 0 433.52 386.4a68.5663 68.5663 0 0 1 24.27 71.68 67.6876 67.6876 0 0 1-83.68018 47.91 68.76018 68.76018 0 0 1-47.50976-84.61 67.69174 67.69174 0 0 1 56.08984-48.72 15.07548 15.07548 0 0 0 12.4502-10.54L420.47 278.84l2.04-6.7 8.11987-26.7 2.04-6.7v-.01l5.5-18.09a7.57568 7.57568 0 0 0-.10986-4.73l-4.49-12.77a7.606 7.606 0 0 1-.17993-4.48l5.0498-19.05 1.79-6.76 4.97-18.75a7.5068 7.5068 0 0 1 9.24-5.33l27.77 7.51A7.628 7.628 0 0 1 487.57007 165.58z"/><path fill="#935b44" d="M482.20508,156.28455l-27.76026-7.51722a7.50925,7.50925,0,0,0-7.18457,1.84559l20.94483,5.67163a7.61735,7.61735,0,0,1,5.366,9.29419l-11.78881,44.46978a7.53554,7.53554,0,0,1-2.49707,3.8913l-10.47608,8.61169a7.53586,7.53586,0,0,0-2.56714,4.17707l-32.3042,144.275a15.2837,15.2837,0,0,0,5.58716,15.3941,68.57822,68.57822,0,0,1,24.26367,71.68494,67.67475,67.67475,0,0,1-58.40649,50.03333,67.66859,67.66859,0,0,0,72.40649-50.03333,68.57822,68.57822,0,0,0-24.26367-71.68494,15.2837,15.2837,0,0,1-5.58716-15.3941l32.3042-144.275a7.53586,7.53586,0,0,1,2.56714-4.17707l10.47608-8.61169a7.53554,7.53554,0,0,0,2.49707-3.8913L487.571,165.57874A7.61735,7.61735,0,0,0,482.20508,156.28455Z"/><ellipse cx="376.237" cy="413.262" fill="#d9b3a6" rx="11.322" ry="11.383" transform="rotate(-30 376.237 413.262)"/><ellipse cx="419.095" cy="424.868" fill="#d9b3a6" rx="11.322" ry="11.383" transform="rotate(-30 419.096 424.868)"/><path fill="#d1a08f" d="M424.62036 414.9798A11.28947 11.28947 0 0 1 408.80078 429.581a11.39421 11.39421 0 0 0 7.3855 6.26062 11.28 11.28 0 0 0 13.86719-8.00622A11.42279 11.42279 0 0 0 424.62036 414.9798zM381.78425 403.37244a11.28947 11.28947 0 0 1-15.81958 14.6012 11.39421 11.39421 0 0 0 7.3855 6.26062 11.28 11.28 0 0 0 13.86719-8.00623A11.4228 11.4228 0 0 0 381.78425 403.37244z"/><path d="M115.63075,479.28369a3.5,3.5,0,0,0,0,7h.09961a3.458,3.458,0,0,0,3.45019-3.5A3.543,3.543,0,0,0,115.63075,479.28369Zm-16,0h-.10059a3.5,3.5,0,0,0,0,7h.10059a3.5,3.5,0,1,0,0-7Zm81.39477-3.27551a3.93568,3.93568,0,1,0-3.93579,3.92633A3.931,3.931,0,0,0,181.02552,476.00818Zm-49.19458,3.27551h-.10058a3.5,3.5,0,0,0,0,7h.10058a3.5,3.5,0,1,0,0-7ZM293.78016,72.10645a10.90137,10.90137,0,1,0,10.90137-10.90186A10.91377,10.91377,0,0,0,293.78016,72.10645Zm14.80273,0a3.90137,3.90137,0,1,1-3.90136-3.90186A3.9056,3.9056,0,0,1,308.58289,72.10645ZM195.80457,504.80029c-20.35791-1.98108-37.47021-13.52014-44.6875-30.12237-.0122-.03021-.02661-.05884-.03979-.08856-10.15845-23.507,4.19727-46.802,5.86792-49.38086a3.5,3.5,0,0,0-5.875-3.80567c-1.86328,2.877-17.739,28.68207-6.68652,55.2959l.04394,31.79053a3.50008,3.50008,0,0,0,3.5,3.49512h.00488a3.49987,3.49987,0,0,0,3.49512-3.50489l-.02734-19.74475c9.92529,12.77039,25.718,21.28027,43.72656,23.03235q.17285.01685.34277.01709a3.50019,3.50019,0,0,0,.335-6.98389ZM312.578,219.4209a3.50056,3.50056,0,0,0-4.85058-.98926,18.19152,18.19152,0,0,1-20.13282.00049,3.50021,3.50021,0,0,0-3.86328,5.83789,25.248,25.248,0,0,0,13.33594,4.19385c.19629.00439.39062.00683.584.00683a25.58483,25.58483,0,0,0,13.9375-4.20019A3.50036,3.50036,0,0,0,312.578,219.4209ZM417.69325,474.43262l-64.77442-17.541a3.50015,3.50015,0,0,0-1.83008,6.75684l64.77442,17.541a3.50014,3.50014,0,0,0,1.83008-6.75683Zm4.52539-17.07032-64.77442-17.541a3.50014,3.50014,0,0,0-1.83008,6.75683l64.77442,17.541a3.50015,3.50015,0,0,0,1.83008-6.75684Zm.67871-46.8623a14.77933,14.77933,0,0,0-18.165,10.4873,14.92485,14.92485,0,0,0,14.417,18.73926A14.79538,14.79538,0,0,0,433.414,428.71729v-.00049A14.948,14.948,0,0,0,422.89735,410.5Zm3.751,16.42285a7.78158,7.78158,0,0,1-9.56933,5.5249,7.93131,7.93131,0,0,1-5.58106-9.666,7.7849,7.7849,0,0,1,7.51075-5.80078,7.91629,7.91629,0,0,1,7.63964,9.94189Zm82.72559-260.99951a3.50062,3.50062,0,0,0-4.2793,2.48633l-1.29614,4.89-13.697-3.709.83008-3.13074a11.13371,11.13371,0,0,0-7.834-13.56934l-27.76074-7.51757a11.02034,11.02034,0,0,0-13.542,7.81933l-.82031,3.0943-13.69629-3.70917,1.30566-4.92565a3.49971,3.49971,0,1,0-6.76562-1.79395l-2.1919,8.269-.00146.00391-.00074.00464-2.20141,8.30493a3.49971,3.49971,0,1,0,6.76562,1.79395l1.29615-4.89014,13.69629,3.7091-3.24415,12.23743-.00122.00318-.00048.00372L431.66859,191.391l-13.71216-3.71307,1.30615-4.926A3.49971,3.49971,0,1,0,412.497,180.958l-4.39649,16.58252a3.49971,3.49971,0,1,0,6.76563,1.79394l1.29638-4.88995,13.7273,3.71722a11.04811,11.04811,0,0,0,.35327,6.12244l4.49707,12.769a4.1245,4.1245,0,0,1,.05762,2.55469l-5.53369,18.19519-15.61792-4.22955,1.30591-4.9256a3.49971,3.49971,0,1,0-6.76563-1.79395l-4.39648,16.58252a3.49971,3.49971,0,1,0,6.76562,1.79395l1.29663-4.89032,15.37427,4.16351L419.10438,271.21l-14.41406-3.90326,1.30566-4.92584a3.49971,3.49971,0,1,0-6.76562-1.79395l-4.39551,16.58252a3.49971,3.49971,0,1,0,6.76562,1.79395l1.29615-4.89,14.16967,3.83716-25.29492,83.173a11.42441,11.42441,0,0,1-1.46728,3.07183c-.89991-.30688-1.81372-.60083-2.73877-.87554l-17.60108-5.23664c14.74951-42.94476,7.69239-67.43207-1.19092-98.20965-4.10376-14.21668-8.53833-29.59827-11.374-48.7771-.00244-.01166-.00293-.02381-.00537-.0354-.80908-5.47773-1.48877-11.26209-1.99146-17.42212-.00122-.04071-.00659-.08106-.00952-.12183-.61425-7.56964-.96533-15.69592-.96533-24.50244A107.95074,107.95074,0,0,0,325.5287,95.02527a14.35468,14.35468,0,0,0,5.89013-21.974,14.38355,14.38355,0,0,0-13.43066-22.77734,14.3897,14.3897,0,0,0-3.93067-5.20527V33.48438a33.538,33.538,0,0,0-33.5-33.5H231.39735a33.538,33.538,0,0,0-33.5,33.5v11.3081a14.38412,14.38412,0,0,0-4.35254,5.728,14.38309,14.38309,0,0,0-13.00977,23.019,14.484,14.484,0,0,0-.86035,15.70166,14.32414,14.32414,0,0,0,6.61035,5.93347,108.0204,108.0204,0,0,0-28.75781,73.79993c0,41.15918-7.62109,67.563-14.3457,90.85889-8.88428,30.77758-15.94043,55.26483-1.19092,98.20959l-17.60107,5.2367a70.82986,70.82986,0,0,0-50.68165,67.85449v77.3501a3.5,3.5,0,0,0,7,0V484.95813a3.4788,3.4788,0,0,0,2.72266,1.32556h.09961a3.458,3.458,0,0,0,3.4502-3.5,3.543,3.543,0,0,0-3.54981-3.5,3.4788,3.4788,0,0,0-2.72266,1.32556v-49.475a64.22831,64.22831,0,0,1,45.67774-61.14551l63.14624-18.78772a171.76937,171.76937,0,0,0-2.95166,17.24,11.18816,11.18816,0,0,0-8.46216,10.73181l-.00293.21485a11.10083,11.10083,0,0,0,3.23242,8.0166,11.36355,11.36355,0,0,0,4.06983,2.63995c.04248,5.15247.33227,10.338.86572,15.49139a11.26167,11.26167,0,0,0-3.69727,3.269,11.08884,11.08884,0,0,0-1.96972,8.33984l.01172.0669.00195.01318a11.37224,11.37224,0,0,0,9.27344,9.40527c1.18017,4.8714,2.59814,9.70819,4.2395,14.45313a11.17785,11.17785,0,0,0-4.218,13.14258l.05176.14062A11.29929,11.29929,0,0,0,203.017,461.5365c2.20361,4.16363,4.67236,8.36951,7.37793,12.57153a11.21645,11.21645,0,0,0-.72412,14.059l.17578.24072a11.29619,11.29619,0,0,0,13.57031,3.67176c3.665,4.52026,7.53369,8.89941,11.22485,12.71026-.3938.53315-.78247,1.07013-1.17895,1.60138a3.49972,3.49972,0,1,0,5.60937,4.18653q1.53663-2.059,3.04639-4.13782c.01977-.029.0437-.0556.0625-.08508a416.14336,416.14336,0,0,0,41.11279-70.0022,415.75787,415.75787,0,0,0,29.25147-88.10968c.14306.04541.28.10284.42431.14581l69.64331,20.72071c-.13647.02337-.27124.05175-.40893.07031a71.75542,71.75542,0,1,0,45.49316,133.38574c1.21533-.69592,2.397-1.43292,3.56055-2.19116v8.11011a3.5,3.5,0,0,0,7,0V495.17151a70.75077,70.75077,0,0,0,22.89062-36.20764,71.918,71.918,0,0,0-25.5-75.34619A11.835,11.835,0,0,1,431.33,371.75244l32.30566-144.27539a4.05361,4.05361,0,0,1,1.37305-2.2373l10.47656-8.61182a10.95623,10.95623,0,0,0,3.49585-5.17194l13.7019,3.71033-1.30615,4.926a3.49971,3.49971,0,1,0,6.76563,1.79394l4.39648-16.58252a3.49971,3.49971,0,1,0-6.76563-1.79394l-1.29638,4.88995-13.68164-3.70483,7.51245-28.33753,13.697,3.709-1.30566,4.92578a3.49971,3.49971,0,1,0,6.76562,1.79394l4.39551-16.58252A3.49922,3.49922,0,0,0,509.37391,165.92334ZM350.46766,222.53143v8.83283c0,5.523-4.50293,7.12744-7.16309,7.20459-3.16015.09082-6.90722-1.54932-7.19238-6.44531-.00757-.19617-.01416-1.05982-.01855-2.22815a24.70617,24.70617,0,0,0,14.07422-7.04187C350.27235,222.74951,350.36537,222.637,350.46766,222.53143Zm-.42822-13.45263a17.89424,17.89424,0,0,1-13.9624,13.72375V185.36273a18.0159,18.0159,0,0,1,12.3833,9.30762C348.879,199.71075,349.41541,204.49792,350.03944,209.0788ZM311.89637,53.95166a4.97611,4.97611,0,0,0,6.07129,3.44043,7.3852,7.3852,0,0,1,7.21289,12.231,4.97038,4.97038,0,0,0,.06348,6.96777,7.38473,7.38473,0,0,1-6.99805,12.3584,5.00441,5.00441,0,0,0-5.99219,3.54492,7.38618,7.38618,0,0,1-14.19531.15381,4.98065,4.98065,0,0,0-6.07129-3.45117,7.3958,7.3958,0,0,1-7.59424-2.50659,15.57307,15.57307,0,0,0,2.19385-2.93042,15.83323,15.83323,0,0,0-1.3291-17.73487,15.83727,15.83727,0,0,0,3.19409-8.42584,7.36638,7.36638,0,0,1,3.25708.04059,5.00206,5.00206,0,0,0,5.99219-3.54346,7.38378,7.38378,0,0,1,14.19531-.14453Zm-106.999-20.46728a26.52981,26.52981,0,0,1,26.5-26.5H280.5575a26.52981,26.52981,0,0,1,26.5,26.5v8.37219a14.17,14.17,0,0,0-2.24023-.18225,14.43172,14.43172,0,0,0-13.27246,8.84521,14.37687,14.37687,0,0,0-4.10962.14838,15.54822,15.54822,0,0,0-1.029-2.1474,15.83009,15.83009,0,0,0-16.02246-7.71729,15.78624,15.78624,0,0,0-29.28028.27051A15.887,15.887,0,0,0,225.369,48.83154a15.65831,15.65831,0,0,0-.792,1.59626,14.30484,14.30484,0,0,0-4.58985-.15583,14.48,14.48,0,0,0-13.16992-8.59765,14.26711,14.26711,0,0,0-1.91992.13641Zm27.88281,29.40429a8.78646,8.78646,0,0,1,8.30957-14.709A5.18026,5.18026,0,0,0,247.33,44.50244a8.78589,8.78589,0,0,1,16.89257-.15723,5.18311,5.18311,0,0,0,6.30469,3.56446,8.78594,8.78594,0,0,1,8.582,14.55078,5.18475,5.18475,0,0,0,.06543,7.24267,8.78624,8.78624,0,0,1-8.30957,14.709,5.17978,5.17978,0,0,0-6.24023,3.67725,8.78589,8.78589,0,0,1-16.89258.15722,5.18164,5.18164,0,0,0-4.97363-3.73633,5.27011,5.27011,0,0,0-1.33106.17188,8.78592,8.78592,0,0,1-8.581-14.55176A5.18538,5.18538,0,0,0,232.78016,62.88867Zm-47.041,22.85547a7.41722,7.41722,0,0,1,1.01465-8.75684,4.97694,4.97694,0,0,0-.043-6.98925,7.38464,7.38464,0,0,1,6.998-12.3584,5.00349,5.00349,0,0,0,5.99219-3.54346,7.38378,7.38378,0,0,1,14.19531-.14453,4.97508,4.97508,0,0,0,6.07324,3.43994,7.33469,7.33469,0,0,1,3.31446-.0871,15.79519,15.79519,0,0,0,3.41406,9.26191,15.88664,15.88664,0,0,0-1.14941,17.50488,15.63793,15.63793,0,0,0,1.91064,2.621,7.42176,7.42176,0,0,1-7.21338,2.257,5.00441,5.00441,0,0,0-5.99219,3.54492,7.38618,7.38618,0,0,1-14.19531.15381,4.9811,4.9811,0,0,0-6.07129-3.45117A7.38992,7.38992,0,0,1,185.73914,85.74414Zm-21.21191,83.23047c0-27.37433,10.82153-53.47076,29.76563-71.98242a14.37775,14.37775,0,0,0,26.11816-.92383,14.48366,14.48366,0,0,0,12.79541-5.31342,15.75211,15.75211,0,0,0,8.36475,1.03363,15.78624,15.78624,0,0,0,29.28027-.2705,15.80544,15.80544,0,0,0,7.70947-.939,14.417,14.417,0,0,0,13.40283,5.73639,14.38036,14.38036,0,0,0,25.908.887c18.81812,18.50788,29.55591,44.47968,29.55591,71.77222,0,4.94592.1106,9.67444.31055,14.22015a25.04569,25.04569,0,0,0-11.73413-4.94629,42.729,42.729,0,0,0-17.83423-32.31634,53.32763,53.32763,0,0,0-47.62012-7.14356,46.45132,46.45132,0,0,1-29.13965,0,53.32636,53.32636,0,0,0-47.61914,7.14356,42.728,42.728,0,0,0-17.835,32.31067,24.49536,24.49536,0,0,0-11.739,4.94513C164.41664,178.64429,164.52723,173.918,164.52723,168.97461ZM277.91688,343.76855a11.62886,11.62886,0,0,0-4.77344,7.61817,11.77207,11.77207,0,0,0-.15283,2.13415q-2.70337.62211-5.4707,1.01636a11.79033,11.79033,0,0,0-22.15821-.52765c-2.1997-.42444-4.3894-.96057-6.55371-1.60522.00489-.02942.01343-.0575.01807-.087A11.82585,11.82585,0,0,0,220.329,340.81494a11.8187,11.8187,0,0,0-1.91284,1.70825c-2.18726-1.51849-4.04077-2.97662-5.54444-4.25293a25.82233,25.82233,0,0,0,4.676-14.73608V313.538a80.09589,80.09589,0,0,0,76.85937.00306v9.99316a25.92556,25.92556,0,0,0,6.21509,16.74829,76.007,76.007,0,0,1-7.33569,4.99445A11.79271,11.79271,0,0,0,277.91688,343.76855Zm11.582,10.41163a4.62059,4.62059,0,0,1-1.85937,3.05322,4.83915,4.83915,0,0,1-2.84668.93164,4.61054,4.61054,0,0,1-3.75879-1.896l-.16895-.2334a4.68206,4.68206,0,0,1,1.10742-6.562,4.74406,4.74406,0,0,1,2.75879-.88183,4.846,4.846,0,0,1,4.76758,5.58838ZM261.08778,359.104a4.62732,4.62732,0,0,1-1.86133,3.05469,4.83126,4.83126,0,0,1-2.8457.93115,4.60888,4.60888,0,0,1-3.75879-1.89843l-.168-.23047a4.6812,4.6812,0,0,1,1.10644-6.5625,4.74347,4.74347,0,0,1,2.75879-.88135,4.84517,4.84517,0,0,1,4.76856,5.58691ZM231.912,351.22656a4.6264,4.6264,0,0,1-1.86133,3.05371,4.834,4.834,0,0,1-2.8457.93164,4.61186,4.61186,0,0,1-3.75879-1.896l-.16895-.23291a4.68235,4.68235,0,0,1,1.10742-6.5625,4.74051,4.74051,0,0,1,2.75879-.88184,4.848,4.848,0,0,1,4.76856,5.58789Zm24.06836-34.86572a73.08834,73.08834,0,0,1-73.09766-72.91406V232.95557c.01416-.16083.041-.31269.05078-.47657.02734-.564.03418-8.34765.03418-8.4248,0-.70221-.03027-1.32935-.085-1.92224v-40.5791c.00024-.01654.00488-.03186.00488-.04847s-.00464-.03192-.00488-.04846v-.805a35.70411,35.70411,0,0,1,14.9707-29.01758,46.28786,46.28786,0,0,1,41.34864-6.20215,53.51489,53.51489,0,0,0,33.55664,0,46.2989,46.2989,0,0,1,41.34863,6.20215A35.70252,35.70252,0,0,1,329.077,180.65088v62.7959A73.08813,73.08813,0,0,1,255.98036,316.36084ZM163.47743,194.862a17.80651,17.80651,0,0,1,3.32714-4.64618,17.6217,17.6217,0,0,1,9.07813-4.86932v37.44433a17.68513,17.68513,0,0,1-13.9314-13.9768C162.55213,204.37207,163.06947,199.73468,163.47743,194.862Zm-1.88965,27.77161A24.67418,24.67418,0,0,0,175.8827,229.876v2.79339c-.54,4.4718-4.12183,5.98242-7.13867,5.899-2.65821-.07764-7.15625-1.68262-7.15625-7.2041ZM148.70692,356.0448c-14.14649-41.056-7.35523-64.62939,1.20019-94.27039,2.12842-7.37432,4.345-15.05535,6.3899-23.40271a14.33607,14.33607,0,0,0,12.24194,7.19373c.14551.00439.29.00635.43555.00635a14.78169,14.78169,0,0,0,6.91845-1.71686,79.82181,79.82181,0,0,0,34.65479,65.35626v14.323a18.81994,18.81994,0,0,1-4.84961,12.66858c-.04053.03906-.08691.06787-.126.10925-.03564.03778-.05932.08185-.093.12079a19.013,19.013,0,0,1-8.49,5.24689Zm36.4082,23.441.00293-.21387a4.214,4.214,0,0,1,4.28613-4.18213c.02344,0,.04737.00061.07105.00092.04224.0033.08447.0047.12671.00653a4.398,4.398,0,0,1,3.04053,1.30017,4.15137,4.15137,0,0,1,1.21386,3.00049l-.00293.21631a4.32548,4.32548,0,0,1-4.36718,4.1792v.032c-.02149-.00366-.04419-.004-.06592-.00726l-.00049-.02527a4.40145,4.40145,0,0,1-3.09082-1.30664A4.15214,4.15214,0,0,1,185.11512,379.48584Zm10.27344,38.55469a4.39037,4.39037,0,0,1-7.83692-1.86084c-.00585-.03711-.01171-.07422-.01855-.11133l-.00879-.05664a4.13671,4.13671,0,0,1,.73731-3.11084,4.39217,4.39217,0,0,1,7.85742,1.751l.04492.28955A4.13849,4.13849,0,0,1,195.38856,418.04053Zm9.17773,34.292a4.26591,4.26591,0,0,1-2.45312,2.21,4.41012,4.41012,0,0,1-1.47754.25684,4.33983,4.33983,0,0,1-4.082-2.82862l-.06153-.16943a4.1436,4.1436,0,0,1,.11915-3.20654,4.26625,4.26625,0,0,1,2.43359-2.231,4.40848,4.40848,0,0,1,1.51367-.26807,4.32188,4.32188,0,0,1,4.0625,2.77491l.09375.25537A4.14528,4.14528,0,0,1,204.56629,452.33252Zm18.66016,30.04785a4.20184,4.20184,0,0,1-1.69336,2.77344,4.43118,4.43118,0,0,1-2.60352.8501,4.21016,4.21016,0,0,1-3.43164-1.72657l-.1582-.21728a4.24078,4.24078,0,0,1,1.00977-5.95557,4.37069,4.37069,0,0,1,.55615-.33246c.01465-.0094.03052-.01574.04516-.02539a4.34274,4.34274,0,0,1,1.92115-.44684,4.38725,4.38725,0,0,1,3.56836,1.82911A4.32042,4.32042,0,0,1,223.22645,482.38037ZM276.94032,433.416a409.03779,409.03779,0,0,1-38.12207,65.61785c-2.63282-2.76239-6.17383-6.67443-10.12183-11.55816a11.339,11.339,0,0,0-.592-12.46009,11.39275,11.39275,0,0,0-11.665-4.4494c-2.708-4.19159-5.16821-8.38263-7.35034-12.52313a11.2861,11.2861,0,0,0,1.80932-2.7262,11.10938,11.10938,0,0,0,.38965-8.59765l-.10449-.2832a11.33979,11.33979,0,0,0-10.31518-7.325c-1.54-4.4198-2.88013-8.92376-4.002-13.46228a11.26407,11.26407,0,0,0,4.14917-3.44415,11.027,11.027,0,0,0,2.08106-8.22217c-.00489-.04-.05078-.34472-.06641-.44433a11.32034,11.32034,0,0,0-9.85034-9.34876c-.45606-4.59082-.71021-9.20465-.7605-13.79272a11.32122,11.32122,0,0,0,8.43408-10.68421l.00293-.21679a11.095,11.095,0,0,0-3.23437-8.01709,11.3732,11.3732,0,0,0-4.04444-2.63068,164.61139,164.61139,0,0,1,3.69776-19.95056l1.71094-.5091a25.76738,25.76738,0,0,0,9.17309-4.93878,78.86307,78.86307,0,0,0,7.32935,5.55542,11.59484,11.59484,0,0,0,2.11377,8.17584l.18652.25733a11.70986,11.70986,0,0,0,17.79175,1.27844,75.25682,75.25682,0,0,0,9.33423,2.31451,11.73282,11.73282,0,0,0,1.86523,4.03058l.18555.2544a11.72775,11.72775,0,0,0,16.36328,2.51513,11.54558,11.54558,0,0,0,4.36206-6.25811,73.00548,73.00548,0,0,0,7.53345-1.39221l.15234.21038A11.73726,11.73726,0,0,0,296.414,355.272a11.86432,11.86432,0,0,0-.00684-3.71649,82.96713,82.96713,0,0,0,9.50513-6.5296c.04492.03046.09155.05865.13672.08881A408.82025,408.82025,0,0,1,276.94032,433.416Zm38.02636-91.73584a19.11515,19.11515,0,0,1-6.91259-3.73615c-.04517-.03827-.08594-.08276-.13233-.11841a18.79182,18.79182,0,0,1-6.51465-14.29144v-14.3194a79.82117,79.82117,0,0,0,34.66065-65.40332,14.79091,14.79091,0,0,0,7.0083,1.76032c.14355,0,.28808-.002.43066-.00586a14.364,14.364,0,0,0,12.18433-7.06128c2.03564,8.29565,4.2395,15.93487,6.35669,23.26977,8.55542,29.641,15.34668,53.21448,1.20019,94.27045Zm91.23413-3.98395,24.11963,6.53155-5.09008,22.73328-25.80445-6.98785Zm25.15455,51.45025a64.93184,64.93184,0,0,1,23.02734,68.02344,64.17952,64.17952,0,0,1-79.35352,45.43018,64.7053,64.7053,0,0,1,8.11036-126.48291,18.65444,18.65444,0,0,0,10.55542-5.168,3.46,3.46,0,0,0,.50585-.52277,18.57136,18.57136,0,0,0,2.8108-3.85449l27.05542,7.32654A18.9133,18.9133,0,0,0,431.35536,389.14648Zm.49609-51.75653-23.61279-6.39428,6.7749-22.27686,21.92822,5.93817Zm6.62134-29.57074-21.42115-5.801,6.77491-22.2771,19.73657,5.3446Zm6.62134-29.57122-19.22974-5.2074,8.12207-26.70618,17.21,4.66065Zm28.09179-72.16419c-.01782.05487-.0459.10358-.061.15985-.01709.06256-.01758.125-.031.18762l-.717,2.70447a4.01764,4.01764,0,0,1-1.33691,2.085l-10.47657,8.61182a11.08133,11.08133,0,0,0-3.75879,6.11572l-4.07714,18.209-16.70313-4.52344,5.4707-17.98828a11.026,11.026,0,0,0-.15234-6.917l-4.49707-12.76807a4.092,4.092,0,0,1-.09766-2.41455l5.04712-19.0387,35.61451,9.64447Zm10.98-41.41778-1.71142,6.456c-.0022.00757-.00635.014-.0083.02154-.0022.00843-.002.01685-.00415.02527L479.2035,183.385l-35.61475-9.64447,3.23877-12.217.0083-.023c.002-.00757.00171-.01514.00391-.02271l1.7207-6.49145a4.02315,4.02315,0,0,1,3.88184-2.999,4.05981,4.05981,0,0,1,1.06445.14258l27.76075,7.51758A4.118,4.118,0,0,1,484.1659,164.666ZM372.39051,427.59814a14.9114,14.9114,0,0,0,3.90039.52247,14.79462,14.79462,0,0,0,14.26465-11.01026A14.94683,14.94683,0,0,0,380.039,398.894a14.77926,14.77926,0,0,0-18.165,10.4878A14.94682,14.94682,0,0,0,372.39051,427.59814Zm-3.751-16.42285a7.78541,7.78541,0,0,1,7.51074-5.80029,7.91619,7.91619,0,0,1,7.63965,9.94141v.00048a7.77965,7.77965,0,0,1-9.56934,5.52442A7.93164,7.93164,0,0,1,368.63954,411.17529ZM224.36805,218.43115a18.54114,18.54114,0,0,1-10.49707,3.03467,18.25081,18.25081,0,0,1-9.63769-3.03369A3.50021,3.50021,0,0,0,200.37,224.27a25.24874,25.24874,0,0,0,13.33692,4.19385c.19629.00439.38965.00683.583.00683a25.59723,25.59723,0,0,0,13.9375-4.1997,3.5,3.5,0,0,0-3.85938-5.83985Zm31.60938-9.061a14.17108,14.17108,0,0,0,14.15527-14.15528V169.168a3.5,3.5,0,1,0-7,0v26.04687a7.15528,7.15528,0,1,1-14.31055,0V169.168a3.5,3.5,0,0,0-7,0v26.04687A14.17108,14.17108,0,0,0,255.97743,209.37012Zm13.34863,69.41845a24.47183,24.47183,0,0,1-13.915,4.02149,24.1781,24.1781,0,0,1-12.77637-4.021,3.50021,3.50021,0,0,0-3.86328,5.83789,31.18327,31.18327,0,0,0,16.47559,5.18116q.36474.00878.72363.0083a31.60347,31.60347,0,0,0,17.2168-5.189,3.50008,3.50008,0,1,0-3.86133-5.83887ZM206.68153,83.00781a10.90161,10.90161,0,1,0-10.90137-10.90136A10.91376,10.91376,0,0,0,206.68153,83.00781Zm0-14.80322a3.90161,3.90161,0,1,1-3.90137,3.90186A3.906,3.906,0,0,1,206.68153,68.20459Zm48.96191,8.60352a11.85523,11.85523,0,1,0-11.85547-11.855A11.86882,11.86882,0,0,0,255.64344,76.80811Zm0-16.71045a4.85523,4.85523,0,1,1-4.85547,4.85546A4.86074,4.86074,0,0,1,255.64344,60.09766Z"/></svg>