<svg id="Layer_1" data-name="Layer 1" xmlns="http://www.w3.org/2000/svg" xmlns:xlink="http://www.w3.org/1999/xlink" viewBox="0 0 910 910"><defs><style>.cls-1,.cls-6{fill:none;}.cls-2{clip-path:url(#clip-path);}.cls-3{fill:#e7f6f6;}.cls-4{fill:#f4fbfb;}.cls-5{fill:#d6eeee;}.cls-6{stroke:#f4fbfb;stroke-miterlimit:10;stroke-width:2.07px;}.cls-7{fill:#9acccc;}.cls-8{fill:#7398a3;}.cls-9{fill:url(#linear-gradient);}.cls-10{fill:url(#linear-gradient-2);}.cls-11{fill:#74abab;}.cls-12{fill:#537984;}.cls-13{fill:url(#linear-gradient-3);}.cls-14{fill:#da5f63;}.cls-15{fill:url(#linear-gradient-4);}.cls-16{fill:url(#linear-gradient-5);}.cls-17{fill:url(#linear-gradient-6);}.cls-18{fill:#fff;}.cls-19{fill:#cc6667;}.cls-20{fill:url(#linear-gradient-7);}.cls-21{fill:#822727;}.cls-22{fill:#ffedc7;}.cls-23{fill:#b54c4d;}.cls-24{fill:#333164;}.cls-25{fill:#34184c;}.cls-26{fill:url(#linear-gradient-8);}.cls-27{fill:url(#linear-gradient-9);}.cls-28{fill:url(#linear-gradient-10);}.cls-29{fill:#99b7ca;}</style><clipPath id="clip-path"><circle class="cls-1" cx="461.61" cy="413.14" r="410.26"/></clipPath><linearGradient id="linear-gradient" x1="211.65" y1="665.61" x2="211.65" y2="858.33" gradientTransform="translate(423.31 1523.95) rotate(180)" gradientUnits="userSpaceOnUse"><stop offset="0.2" stop-color="#7398a3"/><stop offset="0.8" stop-color="#537984"/></linearGradient><linearGradient id="linear-gradient-2" x1="154.68" y1="665.61" x2="154.68" y2="858.33" gradientUnits="userSpaceOnUse"><stop offset="0.2" stop-color="#9acccc"/><stop offset="0.8" stop-color="#74abab"/></linearGradient><linearGradient id="linear-gradient-3" x1="330.18" y1="602.46" x2="552.95" y2="825.22" gradientUnits="userSpaceOnUse"><stop offset="0.7" stop-color="#fea48d"/><stop offset="1" stop-color="#fe7867"/></linearGradient><linearGradient id="linear-gradient-4" x1="487.36" y1="377.77" x2="710.12" y2="600.53" xlink:href="#linear-gradient-3"/><linearGradient id="linear-gradient-5" x1="559.94" y1="602.46" x2="782.7" y2="825.22" xlink:href="#linear-gradient-3"/><linearGradient id="linear-gradient-6" x1="417.7" y1="51.11" x2="549.6" y2="183.02" gradientUnits="userSpaceOnUse"><stop offset="0.4" stop-color="#9cdb6c"/><stop offset="1" stop-color="#67c81e"/></linearGradient><linearGradient id="linear-gradient-7" x1="208.66" y1="339.9" x2="208.66" y2="496.07" gradientTransform="translate(56.17 -23.84)" gradientUnits="userSpaceOnUse"><stop offset="0.2" stop-color="#822727"/><stop offset="0.8" stop-color="#cc6667"/></linearGradient><linearGradient id="linear-gradient-8" x1="183.02" y1="115.62" x2="183.02" y2="308.48" gradientUnits="userSpaceOnUse"><stop offset="0.73" stop-color="#cc6667"/><stop offset="1" stop-color="#b54c4d"/></linearGradient><linearGradient id="linear-gradient-9" x1="183.02" y1="455.44" x2="183.02" y2="314.36" gradientUnits="userSpaceOnUse"><stop offset="0" stop-color="#f5d99d"/><stop offset="0.8" stop-color="#ffedc7"/></linearGradient><linearGradient id="linear-gradient-10" x1="156.76" y1="335.9" x2="156.76" y2="492.07" gradientTransform="translate(36.79 -9.21)" xlink:href="#linear-gradient-7"/></defs><g class="cls-2"><circle class="cls-3" cx="445.56" cy="398.78" r="462.04"/><rect class="cls-4" x="191.27" y="33.57" width="152.29" height="155.69"/><rect class="cls-5" x="343.56" y="33.57" width="62.74" height="155.69" transform="translate(749.87 222.83) rotate(180)"/><rect class="cls-5" x="248.97" y="33.57" width="36.9" height="64.57"/><line class="cls-6" x1="353.89" y1="45.26" x2="398.23" y2="174.96"/><line class="cls-6" x1="353.89" y1="174.96" x2="398.23" y2="45.26"/><rect class="cls-4" x="366.97" y="33.57" width="152.29" height="155.69"/><rect class="cls-5" x="519.26" y="33.57" width="62.74" height="155.69" transform="translate(1101.25 222.83) rotate(180)"/><rect class="cls-5" x="424.66" y="33.57" width="36.9" height="64.57"/><line class="cls-6" x1="529.58" y1="45.26" x2="573.93" y2="174.96"/><line class="cls-6" x1="529.58" y1="174.96" x2="573.93" y2="45.26"/><rect class="cls-5" x="120.75" y="187.53" width="492.43" height="20.81"/><rect class="cls-4" x="310.81" y="411.99" width="152.29" height="155.69"/><rect class="cls-5" x="463.1" y="411.99" width="62.74" height="155.69" transform="translate(988.94 979.66) rotate(180)"/><rect class="cls-5" x="368.51" y="411.99" width="36.9" height="64.57"/><line class="cls-6" x1="473.42" y1="423.68" x2="517.77" y2="553.37"/><line class="cls-6" x1="473.42" y1="553.37" x2="517.77" y2="423.68"/><rect class="cls-4" x="486.5" y="411.99" width="152.29" height="155.69"/><rect class="cls-5" x="638.79" y="411.99" width="62.74" height="155.69" transform="translate(1340.32 979.66) rotate(180)"/><rect class="cls-5" x="544.2" y="411.99" width="36.9" height="64.57"/><line class="cls-6" x1="649.11" y1="423.68" x2="693.46" y2="553.37"/><line class="cls-6" x1="649.11" y1="553.37" x2="693.46" y2="423.68"/><rect class="cls-4" x="405.41" y="254.88" width="152.29" height="155.69"/><rect class="cls-5" x="557.7" y="254.88" width="62.74" height="155.69" transform="translate(1178.15 665.44) rotate(180)"/><rect class="cls-5" x="463.11" y="254.88" width="36.9" height="64.57"/><line class="cls-6" x1="568.03" y1="266.57" x2="612.37" y2="396.26"/><line class="cls-6" x1="568.03" y1="396.26" x2="612.37" y2="266.57"/><rect class="cls-5" x="240.29" y="565.95" width="680.95" height="20.81"/></g><rect class="cls-7" x="126.2" y="472.89" width="56.97" height="192.72"/><rect class="cls-8" x="183.17" y="472.89" width="56.97" height="192.72" transform="translate(423.31 1138.51) rotate(-180)"/><rect class="cls-9" x="183.17" y="665.61" width="56.97" height="192.72" transform="translate(423.31 1523.95) rotate(-180)"/><circle class="cls-7" cx="154.68" cy="472.89" r="28.49"/><rect class="cls-10" x="126.2" y="665.61" width="56.97" height="192.72"/><circle class="cls-11" cx="154.68" cy="858.37" r="28.49"/><circle class="cls-7" cx="154.68" cy="665.63" r="28.49"/><circle class="cls-8" cx="211.66" cy="472.89" r="28.49"/><circle class="cls-12" cx="211.66" cy="858.37" r="28.49"/><circle class="cls-8" cx="211.66" cy="665.63" r="28.49"/><rect class="cls-13" x="331.41" y="601.22" width="220.3" height="225.22"/><rect class="cls-14" x="551.71" y="601.22" width="90.76" height="225.22" transform="translate(1194.19 1427.67) rotate(180)"/><rect class="cls-14" x="414.88" y="601.22" width="53.37" height="93.4"/><rect class="cls-15" x="488.59" y="376.54" width="220.3" height="225.22"/><rect class="cls-14" x="708.89" y="376.54" width="90.76" height="225.22" transform="translate(1508.55 978.3) rotate(180)"/><rect class="cls-14" x="572.06" y="376.54" width="53.37" height="93.4"/><rect class="cls-16" x="561.17" y="601.22" width="220.3" height="225.22"/><rect class="cls-14" x="781.47" y="601.22" width="90.76" height="225.22" transform="translate(1653.7 1427.67) rotate(180)"/><rect class="cls-14" x="644.63" y="601.22" width="53.37" height="93.4"/><path class="cls-17" d="M423.26,54.14H550.12a20.76,20.76,0,0,1,20.76,20.76v78.23a20.76,20.76,0,0,1-20.76,20.76H402.5a0,0,0,0,1,0,0v-99A20.76,20.76,0,0,1,423.26,54.14Z"/><polygon class="cls-18" points="476.43 146.25 443.42 113.24 454.35 102.31 476.43 124.4 519.03 81.79 529.96 92.72 476.43 146.25"/><ellipse class="cls-3" cx="184.25" cy="890.32" rx="146.48" ry="16.8"/><circle class="cls-19" cx="320.99" cy="448.4" r="17.59"/><circle class="cls-19" cx="431.99" cy="338.53" r="17.59"/><rect class="cls-19" x="358.9" y="315.38" width="35.18" height="156.17" transform="translate(361.69 937.84) rotate(-134.71)"/><rect class="cls-20" x="247.24" y="316.06" width="35.18" height="156.17" transform="translate(-202.66 310.81) rotate(-45.99)"/><circle class="cls-21" cx="208.66" cy="339.9" r="17.59"/><circle class="cls-19" cx="447.47" cy="323.21" r="25.04"/><rect class="cls-22" x="220.01" y="330.03" width="43.56" height="83.74" transform="translate(-193.69 287.45) rotate(-45.99)"/><circle class="cls-22" cx="211.68" cy="342.81" r="21.78"/><rect class="cls-23" x="163.38" y="289.4" width="39.27" height="27.29"/><rect class="cls-24" x="124.21" y="858.33" width="58.96" height="36.73"/><path class="cls-24" d="M83.79,858.33h22a18.37,18.37,0,0,1,18.37,18.37v0a18.37,18.37,0,0,1-18.37,18.37h-22a0,0,0,0,1,0,0V858.33a0,0,0,0,1,0,0Z" transform="translate(208 1753.4) rotate(180)"/><circle class="cls-24" cx="124.21" cy="876.7" r="18.37"/><rect class="cls-25" x="183.17" y="858.33" width="58.96" height="36.73" transform="translate(425.3 1753.4) rotate(-180)"/><path class="cls-25" d="M242.13,858.33h22a18.37,18.37,0,0,1,18.37,18.37v0a18.37,18.37,0,0,1-18.37,18.37h-22a0,0,0,0,1,0,0V858.33a0,0,0,0,1,0,0Z"/><circle class="cls-25" cx="242.13" cy="876.7" r="18.37"/><rect class="cls-26" x="114.53" y="115.62" width="136.98" height="192.86" rx="68.49"/><path class="cls-27" d="M198.66,314.36H167.37a76.28,76.28,0,0,0-76.28,76.28h0a77.34,77.34,0,0,0,35.06,64.8H239.88a77.34,77.34,0,0,0,35.06-64.8h0A76.28,76.28,0,0,0,198.66,314.36Z"/><path class="cls-7" d="M126.2,455.44H240.14a0,0,0,0,1,0,0v17.43a57,57,0,0,1-57,57h0a57,57,0,0,1-57-57V455.44a0,0,0,0,1,0,0Z"/><circle class="cls-19" cx="230.33" cy="473.66" r="17.59"/><circle class="cls-19" cx="324.4" cy="348.99" r="17.59"/><rect class="cls-19" x="259.78" y="333.24" width="35.18" height="156.17" transform="matrix(-0.8, -0.6, 0.6, -0.8, 251.01, 906.73)"/><rect class="cls-28" x="175.96" y="326.69" width="35.18" height="156.17" transform="translate(-167.87 138.92) rotate(-28.11)"/><circle class="cls-21" cx="156.76" cy="335.9" r="17.59"/><circle class="cls-19" cx="337.53" cy="331.6" r="25.04"/><rect class="cls-22" x="156.68" y="334.66" width="43.56" height="83.74" transform="translate(-156.35 128.48) rotate(-28.11)"/><circle class="cls-22" cx="158.73" cy="339.6" r="21.78"/><path class="cls-29" d="M301.11,406.2H417.65A13.92,13.92,0,0,0,431.16,396L474.3,234.25a7.33,7.33,0,0,0-7.21-9.16H350.55A13.92,13.92,0,0,0,337,235.31L293.9,397A7.34,7.34,0,0,0,301.11,406.2Z"/><path class="cls-29" d="M364.81,284.78h47.85a5.7,5.7,0,0,0,5.54-4.2l17.72-66.39a3,3,0,0,0-3-3.76H385.11a5.72,5.72,0,0,0-5.55,4.2L361.85,281A3,3,0,0,0,364.81,284.78Z"/><path class="cls-18" d="M239.81,216.22a33.78,33.78,0,0,1-67.55,0Z"/><circle class="cls-19" cx="112.98" cy="187.84" r="10.09"/></svg>