<?xml version="1.0" encoding="utf-8"?>
<!-- Generator: Adobe Illustrator 23.0.0, SVG Export Plug-In . SVG Version: 6.00 Build 0)  -->
<svg version="1.1" xmlns="http://www.w3.org/2000/svg" xmlns:xlink="http://www.w3.org/1999/xlink" x="0px" y="0px"
	 viewBox="0 0 1920 1080" style="enable-background:new 0 0 1920 1080;" xml:space="preserve">
<style type="text/css">
	.st0{opacity:0.11;fill:#2A94F4;}
	.st1{fill:#F7F7F7;}
	.st2{fill:#606060;}
	.st3{fill:#2A94F4;}
	.st4{fill:#CCE9FF;}
	.st5{fill:#0B4870;}
	.st6{fill:#FFBE55;}
	.st7{fill:#F2F2F2;}
	.st8{fill:#D3D3D3;}
	.st9{fill:#FCD2B1;}
	.st10{fill:#0E538C;}
	.st11{fill:none;stroke:#FFFFFF;stroke-width:0.5217;stroke-miterlimit:10;}
	.st12{fill:#FFE3CA;}
</style>
<g id="Background">
	<ellipse class="st0" cx="908.6" cy="1052.6" rx="420" ry="25.9"/>
	<path class="st0" d="M588.6,1035.5c0,0-176.4-29.7-191.3-310s168.4-412.1,337.4-354c57.6,19.8,117.9-33.4,42.3-114.3
		c-81.9-87.6,31.1-340.8,448.6-229.2c318.3,85.1,214,308,101.3,470.8c-102.4,147.8,121.2,103.8,105.9,363.6
		C1415.3,1160.7,588.6,1035.5,588.6,1035.5z"/>
</g>
<g id="Objects">
	<polygon class="st1" points="750.5,614 526.4,614 530.7,356 747.3,356 	"/>
	<g>
		<g>
			<g>
				<rect x="514.9" y="614" class="st2" width="483.1" height="32.6"/>
			</g>
			<g>
				<rect x="670.9" y="737.1" class="st2" width="171" height="19"/>
			</g>
			<g>
				<polygon class="st2" points="514.9,1056.6 723,627.2 744.8,637.8 541.7,1056.7 				"/>
			</g>
			<g>
				<polygon class="st2" points="997.9,1056.6 789.8,627.2 768.1,637.8 971.1,1056.7 				"/>
			</g>
		</g>
	</g>
	<g>
		<ellipse class="st3" cx="640.2" cy="484.8" rx="85.1" ry="78.3"/>
		<path class="st4" d="M640.2,484.8h85.1c0,16.5-5.7,32.6-16.2,45.9c-10.5,13.4-25.4,23.3-42.4,28.4L640.2,484.8z"/>
		<path class="st5" d="M640.2,484.8l-56.8-58.3c15.6-12.8,35.8-20,56.8-20c46.7,0,85.1,35.3,85.1,78.3c0,0.1,0,0.3,0,0.4
			L640.2,484.8z"/>
	</g>
	<g>
		<polygon class="st1" points="965.2,614 775.9,614 779.5,479.8 962.4,479.8 		"/>
		<g>
			<rect x="827.3" y="519.2" class="st5" width="20.6" height="78.8"/>
			<rect x="862.6" y="528.6" class="st5" width="20.6" height="69.5"/>
			<rect x="897.8" y="509.2" class="st6" width="20.6" height="88.8"/>
		</g>
		<rect x="809.9" y="500.5" class="st5" width="2.2" height="98.6"/>
	</g>
	<rect x="809.9" y="598" class="st5" width="137.5" height="1.7"/>
	<rect x="544.2" y="571.1" class="st5" width="7.5" height="7.5"/>
	<rect x="555.9" y="573.7" class="st5" width="28.9" height="2.4"/>
	<rect x="555.9" y="586.6" class="st5" width="28.9" height="2.4"/>
	<rect x="555.9" y="599.6" class="st5" width="28.9" height="2.4"/>
	<rect x="544.2" y="584.1" class="st3" width="7.5" height="7.5"/>
	<rect x="544.2" y="597" class="st4" width="7.5" height="7.5"/>
</g>
<g id="Character">
	<g>
		<path class="st6" d="M1092.8,225.2l-130.6-41c21.5-68.7,93.8-109.3,163.7-91.9c72.9,18.1,117.9,93,99.8,165.9
			s-93,117.9-165.9,99.8c-15.1-3.7-29.4-10-42.4-18.6L1092.8,225.2z"/>
		<path class="st6" d="M1058.8,238.6L981.9,356c-25.4-16.6-44.7-41.1-55.1-69.6c-10.3-28.6-11.1-59.7-2.2-88.8L1058.8,238.6z"/>
	</g>
	<g>
		<path class="st7" d="M1142.4,560.3l-25.2-18.6L1315,273.5c3.9-5.3,11.4-6.5,16.8-2.5l5.9,4.4c5.3,3.9,6.5,11.4,2.5,16.8
			L1142.4,560.3z"/>
		<path class="st1" d="M1155.1,572.4l-24.1-20.1l213.5-255.9c4.2-5.1,11.8-5.8,16.9-1.5l5.6,4.7c5.1,4.2,5.8,11.8,1.5,16.9
			L1155.1,572.4z"/>
		
			<ellipse transform="matrix(0.5507 -0.8347 0.8347 0.5507 365.267 1235.866)" class="st8" cx="1330.7" cy="278.6" rx="4.5" ry="12.4"/>
		
			<ellipse transform="matrix(0.5507 -0.8347 0.8347 0.5507 357.5743 1270.7318)" class="st8" cx="1359.2" cy="303.2" rx="4.5" ry="12.4"/>
	</g>
	<g>
		<path class="st9" d="M1229.3,1006l3.3,20.5c1.3,8.2-3.5,16.1-11.4,18.7l-35.2,11.6h82.1l-9.9-50.8H1229.3z"/>
		<path class="st10" d="M1266,1045.2l-40.6-2.1c0,0-51.1,7.9-51.4,19h101.3L1266,1045.2z"/>
		<g>
			<path class="st9" d="M1011.3,1006l-8.4,25.7c-1.8,5.6-6.3,10-11.9,11.9l-39.9,13.2h82.1l11.6-50.8H1011.3z"/>
			<path class="st10" d="M1034.8,1045.2l-44.4-2.1c0,0-51.1,7.9-51.4,19h101.3L1034.8,1045.2z"/>
		</g>
		<path class="st6" d="M1218.3,531.9c0,0,20,13.3,25.8,64.3c5.8,51-2.3,88,2.3,117.8l0,0c4.6,29.8,13.6,300.6,13.6,300.6h-43.6
			l-72.7-482.4L1218.3,531.9z"/>
		<path class="st11" d="M1230.7,1014.6"/>
		<path class="st11" d="M1173,622.4"/>
		<path class="st6" d="M1123.4,526.4h77.2c0,0,9.5,57.5-7.2,91.1c-16.8,33.6-25.8,42.6-30.6,62.1l0,0c-4.8,19.5-121,335-121,335
			h-37.2L1123.4,526.4z"/>
		<path class="st9" d="M1234.7,364.4c0,0,77.6,110.6,68.7,140.5c-8.9,29.9-98-3.2-98-3.2v-18.6l61,7.7l-46.3-79.2L1234.7,364.4z"/>
		<path class="st3" d="M1102.6,422.2c4.6-23.8,32.2-59.4,32.2-59.4h109.3l-28.8,149.9v0c-1.9,9.6,21.9,19.6-3.8,19.6h-89.2
			c-4.4,0-7.9-3.5-7.9-7.9v-54c0-7.2-2-14.4-6.1-20.4C1101.5,439.7,1101.3,428.9,1102.6,422.2z"/>
		<path class="st12" d="M1152.4,281.2l-9.8,23.2c0,0-5.8,17.2-2.4,27.3c3.9,11.6,21.3,11.5,21.3,11.5l-5.2,28.3h44.3V282
			L1152.4,281.2z"/>
		<path class="st10" d="M1154.9,290.7c-8-5.4-9.5-16.4-3.3-23.8c8.7-10.3,23.7-22.7,45-21.2c21,1.5,41.2,14.4,41.7,44.5
			c0.3,20.1,5.3,34,19.5,59.2c13.3,23.7-8,50.4-5,72.3c3,21.9,6.6,21.5,7.2,40.5c2.3,74.7-69.7,72.1-106.3,69.5
			c-35.9-2.6-49.2-76.7-24.5-105.2c24.7-28.5,16.4-61.1,18.9-74.5c6-32.5,21.4-38.9,19-55.2C1162.6,295.4,1158.4,293.1,1154.9,290.7
			z"/>
		<path class="st9" d="M940.1,248.3c-0.2-22.6,18.2-13.7,19.2-9.3c0.2,0.9,2.4,1.5,3.3,8.1c0.9,6.5,5.7,15.4,6.6,13.1
			c1.8-4.6,4-11.3,5.6-9.8c5,5,2.2,14.4-0.3,20.2c-1.4,3.3-0.9,7.1,1.3,9.9l65.9,82.3h91.8c18.9,3.7,9.6,43.1-13.1,42.2
			c-19.9-0.8-71.4-3-93.9-17.1c-22.5-14.2-71.3-112.2-71.3-112.2C945.2,268.1,940.1,250.1,940.1,248.3z"/>
	</g>
</g>
</svg>
