<?xml version="1.0" encoding="iso-8859-1"?>
<!-- Generator: Adobe Illustrator 23.0.2, SVG Export Plug-In . SVG Version: 6.00 Build 0)  -->
<svg version="1.1" id="Layer_1" xmlns="http://www.w3.org/2000/svg" xmlns:xlink="http://www.w3.org/1999/xlink" x="0px" y="0px"
	 viewBox="0 0 1000 1000" style="enable-background:new 0 0 1000 1000;" xml:space="preserve">
<path id="XMLID_230_" style="opacity:0.3;fill:#34323A;" d="M620.054,759.324c34.765-5.026,70.68-52.774,49.061-55.922
	c-9.462-1.378-28.725-17.182-77.386-17.182c-48.661,0-88.108,16.809-88.108,37.544c0,15.326,21.555,28.505,52.449,34.339
	c-15.202,2.198-28.536,6.117-38.734,11.211c-5.45-0.449-11.077-0.688-16.834-0.688c-12.489,0-24.369,1.11-35.133,3.107
	c-5.958-6.401-15.93-11.936-28.589-16.045c1.204-2.474,1.839-5.037,1.839-7.663c0-20.735-39.447-37.544-88.108-37.544
	s-78.393,28.361-88.108,37.544c-8.86,8.374,13.639,23.022,34.766,29.881c-1.204,2.474-1.839,5.037-1.839,7.663
	c0,20.735,39.447,37.544,88.108,37.544c12.489,0,24.369-1.11,35.133-3.106c12.927,13.888,44.737,23.708,81.931,23.708
	c26.854,0,43.165-12.854,59.326-20.927c7.663,26.046,42.098,29.863,46.409,26.046c33.954-30.067,66.267-34.434,66.267-55.169
	C672.503,778.337,650.948,765.158,620.054,759.324z"/>
<g id="XMLID_1_">
	<rect id="XMLID_48_" x="322.058" y="464.543" style="fill:#F4B651;" width="142.953" height="232.566"/>
	<rect id="XMLID_70_" x="322.058" y="464.543" style="fill:#EE9731;" width="31.567" height="232.566"/>
	<rect id="XMLID_71_" x="398.284" y="464.543" style="opacity:0.58;fill:#F8D397;" width="66.726" height="232.566"/>
	<rect id="XMLID_69_" x="432.292" y="464.543" style="fill:#F0A549;" width="31.052" height="232.566"/>
	
		<path id="XMLID_79_" style="opacity:0.3;fill:#E28139;stroke:#E28139;stroke-width:12;stroke-linecap:round;stroke-linejoin:round;stroke-miterlimit:10;" d="
		M465.01,464.481c-1.383-0.718-2.893-1.361-4.5-1.938H326.558c-1.608,0.577-3.118,1.22-4.501,1.938v69.26
		c0.482,0.074,0.972,0.124,1.474,0.124h0c5.351,0,9.69-4.338,9.69-9.69v-4.372c0-5.352,4.338-9.69,9.69-9.69s9.69,4.338,9.69,9.69
		v27.104c0,6.732,5.458,12.19,12.19,12.19c6.732,0,12.19-5.458,12.19-12.19v-11.655c0-8.554,6.935-15.489,15.489-15.489
		c8.554,0,15.489,6.935,15.489,15.489v8.166c0,6.601,5.341,11.958,11.943,11.977c6.628,0.019,12.012-5.349,12.012-11.977v-11.227
		c0-6.464,5.24-11.704,11.704-11.704c6.464,0,11.704,5.24,11.704,11.704v32.052c0,4.944,4.008,8.953,8.953,8.953
		c0.249,0,0.493-0.017,0.737-0.037V464.481z"/>
	<path id="XMLID_114_" style="opacity:0.5;fill:#E28529;" d="M465.01,597.076c-3.576-1.11-7.247-1.979-10.999-2.568
		c-4.001-0.629-8.07-0.947-12.094-0.947c-22.602,0-43.846,9.928-58.383,26.65c-1.791,2.061-4.89,2.433-7.116,0.851
		c-6.148-4.367-10.704-9.778-13.609-16.179l-4.4-9.696c-1.474-3.247-5.786-3.932-8.194-1.301l-7.187,7.855
		c-8.319,9.093-15.409,12.515-20.971,13.745v76.622H465.01V597.076z"/>
	
		<rect id="XMLID_45_" x="322.058" y="464.543" style="fill:none;stroke:#34323A;stroke-width:12;stroke-linecap:round;stroke-linejoin:round;stroke-miterlimit:10;" width="142.953" height="232.566"/>
	
		<ellipse id="XMLID_44_" style="fill:none;stroke:#34323A;stroke-width:12;stroke-linecap:round;stroke-linejoin:round;stroke-miterlimit:10;" cx="393.534" cy="464.543" rx="71.476" ry="12.323"/>
	
		<ellipse id="XMLID_43_" style="fill:none;stroke:#34323A;stroke-width:12;stroke-linecap:round;stroke-linejoin:round;stroke-miterlimit:10;" cx="393.534" cy="464.543" rx="71.476" ry="12.323"/>
	<path id="XMLID_42_" style="fill:#FFFFFF;" d="M393.534,485.082c-19.546,0-37.99-1.324-51.937-3.729
		c-13.725-2.366-27.755-6.214-27.755-16.81c0-10.596,14.03-14.444,27.755-16.81c13.947-2.405,32.392-3.729,51.937-3.729
		c19.545,0,37.99,1.324,51.938,3.729c13.724,2.366,27.754,6.214,27.754,16.81c0,10.596-14.03,14.444-27.754,16.81
		C431.524,483.758,413.079,485.082,393.534,485.082z"/>
	<path id="XMLID_41_" style="fill:#FFFFFF;" d="M473.226,464.543c0-10.596-14.03-14.444-27.754-16.81
		c-13.947-2.405-32.392-3.729-51.938-3.729c-19.546,0-37.99,1.324-51.937,3.729c-13.725,2.366-27.755,6.214-27.755,16.81v48.47
		c0,5.351,4.338,9.69,9.69,9.69h0c5.351,0,9.69-4.338,9.69-9.69v-4.372c0-5.352,4.338-9.69,9.69-9.69h0
		c5.351,0,9.69,4.338,9.69,9.69v27.104c0,6.732,5.458,12.19,12.19,12.19l0,0c6.732,0,12.19-5.458,12.19-12.19V524.09
		c0-8.554,6.935-15.489,15.489-15.489h0c8.554,0,15.489,6.935,15.489,15.489v8.166c0,6.601,5.341,11.958,11.943,11.977h0
		c6.628,0.019,12.012-5.349,12.012-11.977v-11.227c0-6.464,5.24-11.704,11.704-11.704h0c6.464,0,11.704,5.24,11.704,11.704v32.052
		c0,4.944,4.008,8.953,8.953,8.953h0c4.944,0,8.953-4.008,8.953-8.953V464.543L473.226,464.543z"/>
	<path id="XMLID_78_" style="fill:#CECECE;" d="M445.472,447.733c-5.74-0.99-12.25-1.793-19.277-2.4v97.12
		c3.426-2.107,5.718-5.879,5.718-10.198v-11.227c0-6.464,5.24-11.704,11.704-11.704c6.464,0,11.704,5.24,11.704,11.704v32.052
		c0,4.944,4.008,8.953,8.953,8.953s8.953-4.008,8.953-8.953v-88.537C473.226,453.947,459.196,450.099,445.472,447.733z"/>
	
		<path id="XMLID_40_" style="fill:none;stroke:#34323A;stroke-width:12;stroke-linecap:round;stroke-linejoin:round;stroke-miterlimit:10;" d="
		M473.226,464.543c0-10.596-14.03-14.444-27.754-16.81c-13.947-2.405-32.392-3.729-51.938-3.729c-19.546,0-37.99,1.324-51.937,3.729
		c-13.725,2.366-27.755,6.214-27.755,16.81v48.47c0,5.351,4.338,9.69,9.69,9.69h0c5.351,0,9.69-4.338,9.69-9.69v-4.372
		c0-5.352,4.338-9.69,9.69-9.69h0c5.351,0,9.69,4.338,9.69,9.69v27.104c0,6.732,5.458,12.19,12.19,12.19l0,0
		c6.732,0,12.19-5.458,12.19-12.19V524.09c0-8.554,6.935-15.489,15.489-15.489h0c8.554,0,15.489,6.935,15.489,15.489v8.166
		c0,6.601,5.341,11.958,11.943,11.977h0c6.628,0.019,12.012-5.349,12.012-11.977v-11.227c0-6.464,5.24-11.704,11.704-11.704h0
		c6.464,0,11.704,5.24,11.704,11.704v32.052c0,4.944,4.008,8.953,8.953,8.953h0c4.944,0,8.953-4.008,8.953-8.953V464.543
		L473.226,464.543z"/>
	<path id="XMLID_73_" style="fill:#E5E5E5;" d="M393.534,485.082c-19.546,0-37.99-1.324-51.937-3.729
		c-13.725-2.366-27.755-6.214-27.755-16.81c0-10.596,14.03-14.444,27.755-16.81c13.947-2.405,32.392-3.729,51.937-3.729
		c19.545,0,37.99,1.324,51.938,3.729c13.724,2.366,27.754,6.214,27.754,16.81c0,10.596-14.03,14.444-27.754,16.81
		C431.524,483.758,413.079,485.082,393.534,485.082z"/>
	
		<path id="XMLID_39_" style="fill:none;stroke:#34323A;stroke-width:12;stroke-linecap:round;stroke-linejoin:round;stroke-miterlimit:10;" d="
		M393.534,485.082c-19.546,0-37.99-1.324-51.937-3.729c-13.725-2.366-27.755-6.214-27.755-16.81c0-10.596,14.03-14.444,27.755-16.81
		c13.947-2.405,32.392-3.729,51.937-3.729c19.545,0,37.99,1.324,51.938,3.729c13.724,2.366,27.754,6.214,27.754,16.81
		c0,10.596-14.03,14.444-27.754,16.81C431.524,483.758,413.079,485.082,393.534,485.082z"/>
	<path id="XMLID_38_" style="fill:#FFFFFF;" d="M408.232,371.697c11.645,18.618,25.967,92.846-14.698,92.846
		s-26.343-74.228-14.698-92.846c4.506-7.204,10.26-15.407,14.698-15.407S403.727,364.493,408.232,371.697z"/>
	<path id="XMLID_63_" style="fill:#FFBF40;" d="M408.232,371.697c11.645,18.618,25.967,92.846-14.698,92.846
		s-26.343-74.228-14.698-92.846c4.506-7.204,10.26-15.407,14.698-15.407S403.727,364.493,408.232,371.697z"/>
	<path id="XMLID_64_" style="fill:#FF433E;" d="M400.52,421.105c5.535,7.231,12.342,36.061-6.986,36.061
		c-19.329,0-12.521-28.83-6.986-36.061c2.142-2.798,4.877-5.984,6.986-5.984C395.643,415.121,398.379,418.307,400.52,421.105z"/>
	
		<path id="XMLID_29_" style="fill:none;stroke:#34323A;stroke-width:12;stroke-linecap:round;stroke-linejoin:round;stroke-miterlimit:10;" d="
		M408.232,371.697c11.645,18.618,25.967,92.846-14.698,92.846s-26.343-74.228-14.698-92.846c4.506-7.204,10.26-15.407,14.698-15.407
		S403.727,364.493,408.232,371.697z"/>
</g>
<g id="XMLID_144_">
	<g id="XMLID_148_" style="opacity:0.54;">
		
			<line id="XMLID_150_" style="fill:none;stroke:#9284CE;stroke-width:6;stroke-linecap:round;stroke-linejoin:round;stroke-miterlimit:10;" x1="184.69" y1="486.953" x2="196.681" y2="486.953"/>
		
			<line id="XMLID_149_" style="fill:none;stroke:#9284CE;stroke-width:6;stroke-linecap:round;stroke-linejoin:round;stroke-miterlimit:10;" x1="190.685" y1="480.958" x2="190.685" y2="492.949"/>
	</g>
	<g id="XMLID_232_" style="opacity:0.48;">
		
			<line id="XMLID_234_" style="fill:none;stroke:#DBA877;stroke-width:6;stroke-linecap:round;stroke-linejoin:round;stroke-miterlimit:10;" x1="830.078" y1="492.949" x2="842.069" y2="492.949"/>
		
			<line id="XMLID_233_" style="fill:none;stroke:#DBA877;stroke-width:6;stroke-linecap:round;stroke-linejoin:round;stroke-miterlimit:10;" x1="836.074" y1="486.953" x2="836.074" y2="498.944"/>
	</g>
	
		<circle id="XMLID_133_" style="fill:none;stroke:#AE8DCE;stroke-width:3.1048;stroke-linecap:round;stroke-linejoin:round;stroke-miterlimit:10;" cx="640.189" cy="315.806" r="8.676"/>
	
		<circle id="XMLID_132_" style="fill:none;stroke:#FF6F6C;stroke-width:3.6376;stroke-linecap:round;stroke-linejoin:round;stroke-miterlimit:10;" cx="705.547" cy="464.543" r="3.842"/>
	
		<circle id="XMLID_134_" style="fill:none;stroke:#DBA877;stroke-width:6;stroke-linecap:round;stroke-linejoin:round;stroke-miterlimit:10;" cx="285.626" cy="410.416" r="7.254"/>
	<g id="XMLID_131_">
		
			<line id="XMLID_135_" style="fill:none;stroke:#FF6F6C;stroke-width:3.6376;stroke-linecap:round;stroke-linejoin:round;stroke-miterlimit:10;" x1="357.455" y1="289.758" x2="366.627" y2="289.758"/>
		
			<line id="XMLID_136_" style="fill:none;stroke:#FF6F6C;stroke-width:3.6376;stroke-linecap:round;stroke-linejoin:round;stroke-miterlimit:10;" x1="362.041" y1="285.172" x2="362.041" y2="294.344"/>
	</g>
	<g id="XMLID_138_">
		
			<line id="XMLID_140_" style="fill:none;stroke:#DBA877;stroke-width:6;stroke-linecap:round;stroke-linejoin:round;stroke-miterlimit:10;" x1="276.473" y1="521.536" x2="294.778" y2="521.536"/>
		
			<line id="XMLID_139_" style="fill:none;stroke:#DBA877;stroke-width:6;stroke-linecap:round;stroke-linejoin:round;stroke-miterlimit:10;" x1="285.626" y1="512.384" x2="285.626" y2="530.689"/>
	</g>
	<g id="XMLID_162_" style="opacity:0.56;">
		
			<line id="XMLID_231_" style="fill:none;stroke:#DBA877;stroke-width:5;stroke-linecap:round;stroke-linejoin:round;stroke-miterlimit:10;" x1="754.377" y1="324.482" x2="767.778" y2="324.482"/>
		
			<line id="XMLID_229_" style="fill:none;stroke:#DBA877;stroke-width:5;stroke-linecap:round;stroke-linejoin:round;stroke-miterlimit:10;" x1="761.077" y1="317.782" x2="761.077" y2="331.182"/>
	</g>
	<g id="XMLID_137_">
		<g id="XMLID_141_">
			<g id="XMLID_142_">
				
					<line id="XMLID_143_" style="fill:none;stroke:#FFB164;stroke-width:5;stroke-linecap:round;stroke-linejoin:round;stroke-miterlimit:10;" x1="463.753" y1="173.562" x2="463.753" y2="183.188"/>
				
					<line id="XMLID_151_" style="fill:none;stroke:#FFB164;stroke-width:5;stroke-linecap:round;stroke-linejoin:round;stroke-miterlimit:10;" x1="463.753" y1="210.846" x2="463.753" y2="220.473"/>
			</g>
			<g id="XMLID_152_">
				
					<line id="XMLID_153_" style="fill:none;stroke:#FFB164;stroke-width:5;stroke-linecap:round;stroke-linejoin:round;stroke-miterlimit:10;" x1="487.209" y1="197.017" x2="477.582" y2="197.017"/>
				
					<line id="XMLID_154_" style="fill:none;stroke:#FFB164;stroke-width:5;stroke-linecap:round;stroke-linejoin:round;stroke-miterlimit:10;" x1="449.924" y1="197.017" x2="440.298" y2="197.017"/>
			</g>
		</g>
		<g id="XMLID_155_">
			<g id="XMLID_158_">
				
					<line id="XMLID_160_" style="fill:none;stroke:#FFB164;stroke-width:5;stroke-linecap:round;stroke-linejoin:round;stroke-miterlimit:10;" x1="480.339" y1="180.432" x2="473.532" y2="187.239"/>
				
					<line id="XMLID_159_" style="fill:none;stroke:#FFB164;stroke-width:5;stroke-linecap:round;stroke-linejoin:round;stroke-miterlimit:10;" x1="453.975" y1="206.796" x2="447.168" y2="213.603"/>
			</g>
			<g id="XMLID_156_">
				
					<line id="XMLID_157_" style="fill:none;stroke:#FFB164;stroke-width:5;stroke-linecap:round;stroke-linejoin:round;stroke-miterlimit:10;" x1="480.339" y1="213.603" x2="473.532" y2="206.796"/>
				
					<line id="XMLID_161_" style="fill:none;stroke:#FFB164;stroke-width:5;stroke-linecap:round;stroke-linejoin:round;stroke-miterlimit:10;" x1="453.975" y1="187.239" x2="447.168" y2="180.432"/>
			</g>
		</g>
	</g>
	<g id="XMLID_208_" style="opacity:0.57;">
		<g id="XMLID_123_">
			<g id="XMLID_128_">
				
					<line id="XMLID_130_" style="fill:none;stroke:#E24D59;stroke-width:4;stroke-linecap:square;stroke-miterlimit:10;" x1="630.189" y1="216.204" x2="630.189" y2="224.742"/>
				
					<line id="XMLID_129_" style="fill:none;stroke:#E24D59;stroke-width:4;stroke-linecap:square;stroke-miterlimit:10;" x1="630.189" y1="249.272" x2="630.189" y2="257.81"/>
			</g>
			<g id="XMLID_125_">
				
					<line id="XMLID_127_" style="fill:none;stroke:#E24D59;stroke-width:4;stroke-linecap:square;stroke-miterlimit:10;" x1="650.993" y1="237.007" x2="642.455" y2="237.007"/>
				
					<line id="XMLID_126_" style="fill:none;stroke:#E24D59;stroke-width:4;stroke-linecap:square;stroke-miterlimit:10;" x1="617.924" y1="237.007" x2="609.386" y2="237.007"/>
			</g>
		</g>
		<g id="XMLID_209_">
			<g id="XMLID_117_">
				
					<line id="XMLID_119_" style="fill:none;stroke:#E24D59;stroke-width:4;stroke-linecap:square;stroke-miterlimit:10;" x1="644.899" y1="222.297" x2="638.862" y2="228.334"/>
				
					<line id="XMLID_118_" style="fill:none;stroke:#E24D59;stroke-width:4;stroke-linecap:square;stroke-miterlimit:10;" x1="621.516" y1="245.68" x2="615.479" y2="251.717"/>
			</g>
			<g id="XMLID_210_">
				
					<line id="XMLID_116_" style="fill:none;stroke:#E24D59;stroke-width:4;stroke-linecap:square;stroke-miterlimit:10;" x1="644.899" y1="251.717" x2="638.862" y2="245.68"/>
				
					<line id="XMLID_211_" style="fill:none;stroke:#E24D59;stroke-width:4;stroke-linecap:square;stroke-miterlimit:10;" x1="621.516" y1="228.334" x2="615.479" y2="222.297"/>
			</g>
		</g>
	</g>
	<g id="XMLID_163_">
		<g id="XMLID_171_">
			<g id="XMLID_175_">
				
					<line id="XMLID_177_" style="fill:none;stroke:#FF6F6C;stroke-width:3.6376;stroke-linecap:round;stroke-linejoin:round;stroke-miterlimit:10;" x1="711.793" y1="377.132" x2="711.793" y2="383.281"/>
				
					<line id="XMLID_176_" style="fill:none;stroke:#FF6F6C;stroke-width:3.6376;stroke-linecap:round;stroke-linejoin:round;stroke-miterlimit:10;" x1="711.793" y1="400.947" x2="711.793" y2="407.096"/>
			</g>
			<g id="XMLID_172_">
				
					<line id="XMLID_174_" style="fill:none;stroke:#FF6F6C;stroke-width:3.6376;stroke-linecap:round;stroke-linejoin:round;stroke-miterlimit:10;" x1="726.775" y1="392.114" x2="720.626" y2="392.114"/>
				
					<line id="XMLID_173_" style="fill:none;stroke:#FF6F6C;stroke-width:3.6376;stroke-linecap:round;stroke-linejoin:round;stroke-miterlimit:10;" x1="702.959" y1="392.114" x2="696.811" y2="392.114"/>
			</g>
		</g>
		<g id="XMLID_164_">
			<g id="XMLID_168_">
				
					<line id="XMLID_170_" style="fill:none;stroke:#FF6F6C;stroke-width:3.6376;stroke-linecap:round;stroke-linejoin:round;stroke-miterlimit:10;" x1="722.387" y1="381.52" x2="718.039" y2="385.868"/>
				
					<line id="XMLID_169_" style="fill:none;stroke:#FF6F6C;stroke-width:3.6376;stroke-linecap:round;stroke-linejoin:round;stroke-miterlimit:10;" x1="705.547" y1="398.36" x2="701.199" y2="402.708"/>
			</g>
			<g id="XMLID_165_">
				
					<line id="XMLID_167_" style="fill:none;stroke:#FF6F6C;stroke-width:3.6376;stroke-linecap:round;stroke-linejoin:round;stroke-miterlimit:10;" x1="722.387" y1="402.708" x2="718.039" y2="398.36"/>
				
					<line id="XMLID_166_" style="fill:none;stroke:#FF6F6C;stroke-width:3.6376;stroke-linecap:round;stroke-linejoin:round;stroke-miterlimit:10;" x1="705.547" y1="385.868" x2="701.199" y2="381.52"/>
			</g>
		</g>
	</g>
	<g id="XMLID_178_">
		<g id="XMLID_186_">
			<g id="XMLID_190_">
				
					<line id="XMLID_115_" style="fill:none;stroke:#AE8DCE;stroke-width:3.1048;stroke-linecap:round;stroke-linejoin:round;stroke-miterlimit:10;" x1="335.781" y1="345.814" x2="335.781" y2="351.062"/>
				
					<line id="XMLID_191_" style="fill:none;stroke:#AE8DCE;stroke-width:3.1048;stroke-linecap:round;stroke-linejoin:round;stroke-miterlimit:10;" x1="335.781" y1="366.142" x2="335.781" y2="371.39"/>
			</g>
			<g id="XMLID_187_">
				
					<line id="XMLID_189_" style="fill:none;stroke:#AE8DCE;stroke-width:3.1048;stroke-linecap:round;stroke-linejoin:round;stroke-miterlimit:10;" x1="348.569" y1="358.602" x2="343.321" y2="358.602"/>
				
					<line id="XMLID_107_" style="fill:none;stroke:#AE8DCE;stroke-width:3.1048;stroke-linecap:round;stroke-linejoin:round;stroke-miterlimit:10;" x1="328.241" y1="358.602" x2="322.993" y2="358.602"/>
			</g>
		</g>
		<g id="XMLID_179_">
			<g id="XMLID_183_">
				
					<line id="XMLID_185_" style="fill:none;stroke:#AE8DCE;stroke-width:3.1048;stroke-linecap:round;stroke-linejoin:round;stroke-miterlimit:10;" x1="344.824" y1="349.559" x2="341.112" y2="353.271"/>
				
					<line id="XMLID_184_" style="fill:none;stroke:#AE8DCE;stroke-width:3.1048;stroke-linecap:round;stroke-linejoin:round;stroke-miterlimit:10;" x1="330.45" y1="363.933" x2="326.738" y2="367.644"/>
			</g>
			<g id="XMLID_180_">
				
					<line id="XMLID_182_" style="fill:none;stroke:#AE8DCE;stroke-width:3.1048;stroke-linecap:round;stroke-linejoin:round;stroke-miterlimit:10;" x1="344.824" y1="367.644" x2="341.112" y2="363.933"/>
				
					<line id="XMLID_181_" style="fill:none;stroke:#AE8DCE;stroke-width:3.1048;stroke-linecap:round;stroke-linejoin:round;stroke-miterlimit:10;" x1="330.45" y1="353.271" x2="326.738" y2="349.559"/>
			</g>
		</g>
	</g>
	<g id="XMLID_31_">
		<g id="XMLID_201_">
			<g id="XMLID_205_">
				
					<line id="XMLID_207_" style="fill:none;stroke:#AE8DCE;stroke-width:3.1048;stroke-linecap:round;stroke-linejoin:round;stroke-miterlimit:10;" x1="331.939" y1="232.892" x2="331.939" y2="238.14"/>
				
					<line id="XMLID_206_" style="fill:none;stroke:#AE8DCE;stroke-width:3.1048;stroke-linecap:round;stroke-linejoin:round;stroke-miterlimit:10;" x1="331.939" y1="253.22" x2="331.939" y2="258.468"/>
			</g>
			<g id="XMLID_202_">
				
					<line id="XMLID_204_" style="fill:none;stroke:#AE8DCE;stroke-width:3.1048;stroke-linecap:round;stroke-linejoin:round;stroke-miterlimit:10;" x1="344.727" y1="245.68" x2="339.478" y2="245.68"/>
				
					<line id="XMLID_203_" style="fill:none;stroke:#AE8DCE;stroke-width:3.1048;stroke-linecap:round;stroke-linejoin:round;stroke-miterlimit:10;" x1="324.399" y1="245.68" x2="319.15" y2="245.68"/>
			</g>
		</g>
		<g id="XMLID_101_">
			<g id="XMLID_198_">
				
					<line id="XMLID_200_" style="fill:none;stroke:#AE8DCE;stroke-width:3.1048;stroke-linecap:round;stroke-linejoin:round;stroke-miterlimit:10;" x1="340.981" y1="236.637" x2="337.27" y2="240.349"/>
				
					<line id="XMLID_199_" style="fill:none;stroke:#AE8DCE;stroke-width:3.1048;stroke-linecap:round;stroke-linejoin:round;stroke-miterlimit:10;" x1="326.607" y1="251.011" x2="322.896" y2="254.723"/>
			</g>
			<g id="XMLID_195_">
				
					<line id="XMLID_197_" style="fill:none;stroke:#AE8DCE;stroke-width:3.1048;stroke-linecap:round;stroke-linejoin:round;stroke-miterlimit:10;" x1="340.981" y1="254.723" x2="337.27" y2="251.011"/>
				
					<line id="XMLID_196_" style="fill:none;stroke:#AE8DCE;stroke-width:3.1048;stroke-linecap:round;stroke-linejoin:round;stroke-miterlimit:10;" x1="326.607" y1="240.349" x2="322.896" y2="236.637"/>
			</g>
		</g>
	</g>
</g>
<g id="XMLID_47_">
	<rect id="XMLID_46_" x="456.189" y="358.289" style="fill:#F4456E;" width="174" height="326.494"/>
	<rect id="XMLID_4_" x="456.189" y="358.289" style="fill:#F4456E;" width="174" height="326.494"/>
	<rect id="XMLID_67_" x="456.189" y="358.289" style="fill:#ED2242;" width="35.369" height="326.494"/>
	<rect id="XMLID_68_" x="564.292" y="358.289" style="fill:#F95E8D;" width="65.898" height="326.494"/>
	<rect id="XMLID_76_" x="605.271" y="358.289" style="fill:#FC74A6;" width="24.918" height="326.494"/>
	<path id="XMLID_112_" style="opacity:0.3;fill:#F4456E;" d="M630.189,551.924c-14.216,11.594-26.254,16.882-38.15,16.884
		c-9.922,0-20.421-3.67-32.099-11.222l-9.114-5.895c-2.912-1.883-6.801-0.178-7.389,3.24l-1.839,10.698
		c-4.904,28.522-30.973,44.197-44.846,50.629c-11.019-11.047-25.096-18.486-40.563-21.364v84.889h174V551.924z"/>
	
		<path id="XMLID_66_" style="opacity:0.46;fill:#BC2A57;stroke:#BC2A57;stroke-width:12;stroke-linecap:round;stroke-linejoin:round;stroke-miterlimit:10;" d="
		M630.189,358.289h-174v80.64c0.587,0.09,1.183,0.151,1.794,0.151c6.514,0,11.794-5.28,11.794-11.794v-5.321
		c0-6.514,5.28-11.794,11.794-11.794s11.794,5.28,11.794,11.794v25.047c0,6.514,5.28,11.794,11.794,11.794
		s11.794-5.28,11.794-11.794v-20.096c0-6.514,5.28-11.794,11.794-11.794s11.794,5.28,11.794,11.794v4.091
		c0,4.459,3.614,8.073,8.073,8.073h0c4.459,0,8.073-3.614,8.073-8.073v-8.47c0-5.011,4.062-9.073,9.073-9.073h0
		c5.011,0,9.073,4.062,9.073,9.073v40.071c0,6.514,5.28,11.794,11.794,11.794s11.794-5.28,11.794-11.794v-29.826
		c0-5.515,4.471-9.986,9.986-9.986s9.986,4.471,9.986,9.986v43.273c0,6.018,4.879,10.897,10.897,10.897h0
		c0.303,0,0.6-0.021,0.897-0.045V358.289z"/>
	
		<rect id="XMLID_3_" x="456.189" y="358.289" style="fill:none;stroke:#34323A;stroke-width:12;stroke-linecap:round;stroke-linejoin:round;stroke-miterlimit:10;" width="174" height="326.494"/>
	
		<ellipse id="XMLID_7_" style="fill:none;stroke:#34323A;stroke-width:12;stroke-linecap:round;stroke-linejoin:round;stroke-miterlimit:10;" cx="543.189" cy="358.289" rx="87" ry="15"/>
	
		<ellipse id="XMLID_5_" style="fill:none;stroke:#34323A;stroke-width:12;stroke-linecap:round;stroke-linejoin:round;stroke-miterlimit:10;" cx="543.189" cy="358.289" rx="87" ry="15"/>
	<path id="XMLID_8_" style="fill:#FFFFFF;" d="M543.189,383.289c-23.791,0-46.241-1.612-63.217-4.539
		c-16.706-2.88-33.783-7.563-33.783-20.461s17.077-17.581,33.783-20.461c16.976-2.927,39.427-4.539,63.217-4.539
		c23.79,0,46.241,1.612,63.218,4.539c16.705,2.88,33.782,7.563,33.782,20.461s-17.077,17.581-33.782,20.461
		C589.43,381.678,566.979,383.289,543.189,383.289z"/>
	<path id="XMLID_11_" style="fill:#FFFFFF;" d="M640.189,358.289c0-12.897-17.077-17.581-33.782-20.461
		c-16.977-2.927-39.428-4.539-63.218-4.539c-23.791,0-46.241,1.612-63.217,4.539c-16.706,2.88-33.783,7.563-33.783,20.461v58.996
		c0,6.514,5.28,11.794,11.794,11.794h0c6.514,0,11.794-5.28,11.794-11.794v-5.321c0-6.514,5.28-11.794,11.794-11.794h0
		c6.514,0,11.794,5.28,11.794,11.794v25.047c0,6.514,5.28,11.794,11.794,11.794h0c6.514,0,11.794-5.28,11.794-11.794v-20.096
		c0-6.514,5.28-11.794,11.794-11.794l0,0c6.514,0,11.794,5.28,11.794,11.794v4.092c0,4.459,3.614,8.073,8.073,8.073l0,0
		c4.459,0,8.073-3.614,8.073-8.073v-8.47c0-5.011,4.062-9.073,9.073-9.073l0,0c5.011,0,9.073,4.062,9.073,9.073v40.071
		c0,6.514,5.28,11.794,11.794,11.794l0,0c6.514,0,11.794-5.28,11.794-11.794v-29.826c0-5.515,4.471-9.986,9.986-9.986l0,0
		c5.515,0,9.986,4.471,9.986,9.986v43.273c0,6.018,4.879,10.897,10.897,10.897l0,0c6.018,0,10.897-4.879,10.897-10.897V358.289
		L640.189,358.289z"/>
	<path id="XMLID_237_" style="fill:#CECECE;" d="M500,335.22c-7.242,0.695-13.987,1.567-20.028,2.609
		c-16.706,2.88-33.783,7.563-33.783,20.461v58.997c0,6.514,5.28,11.794,11.794,11.794c6.514,0,11.794-5.28,11.794-11.794v-5.321
		c0-6.514,5.28-11.794,11.794-11.794c6.514,0,11.794,5.28,11.794,11.794v25.047c0,4.66,2.71,8.678,6.634,10.593V335.22z"/>
	
		<path id="XMLID_20_" style="fill:none;stroke:#34323A;stroke-width:12;stroke-linecap:round;stroke-linejoin:round;stroke-miterlimit:10;" d="
		M640.189,358.289c0-12.897-17.077-17.581-33.782-20.461c-16.977-2.927-39.428-4.539-63.218-4.539
		c-23.791,0-46.241,1.612-63.217,4.539c-16.706,2.88-33.783,7.563-33.783,20.461v58.996c0,6.514,5.28,11.794,11.794,11.794h0
		c6.514,0,11.794-5.28,11.794-11.794v-5.321c0-6.514,5.28-11.794,11.794-11.794h0c6.514,0,11.794,5.28,11.794,11.794v25.047
		c0,6.514,5.28,11.794,11.794,11.794h0c6.514,0,11.794-5.28,11.794-11.794v-20.096c0-6.514,5.28-11.794,11.794-11.794l0,0
		c6.514,0,11.794,5.28,11.794,11.794v4.092c0,4.459,3.614,8.073,8.073,8.073l0,0c4.459,0,8.073-3.614,8.073-8.073v-8.47
		c0-5.011,4.062-9.073,9.073-9.073l0,0c5.011,0,9.073,4.062,9.073,9.073v40.071c0,6.514,5.28,11.794,11.794,11.794l0,0
		c6.514,0,11.794-5.28,11.794-11.794v-29.826c0-5.515,4.471-9.986,9.986-9.986l0,0c5.515,0,9.986,4.471,9.986,9.986v43.273
		c0,6.018,4.879,10.897,10.897,10.897l0,0c6.018,0,10.897-4.879,10.897-10.897V358.289L640.189,358.289z"/>
	
		<path id="XMLID_6_" style="fill:none;stroke:#34323A;stroke-width:12;stroke-linecap:round;stroke-linejoin:round;stroke-miterlimit:10;" d="
		M640.189,358.289c0-12.897-17.077-17.581-33.782-20.461c-16.977-2.927-39.428-4.539-63.218-4.539
		c-23.791,0-46.241,1.612-63.217,4.539c-16.706,2.88-33.783,7.563-33.783,20.461v58.996c0,6.514,5.28,11.794,11.794,11.794h0
		c6.514,0,11.794-5.28,11.794-11.794v-5.321c0-6.514,5.28-11.794,11.794-11.794h0c6.514,0,11.794,5.28,11.794,11.794v25.047
		c0,6.514,5.28,11.794,11.794,11.794h0c6.514,0,11.794-5.28,11.794-11.794v-20.096c0-6.514,5.28-11.794,11.794-11.794l0,0
		c6.514,0,11.794,5.28,11.794,11.794v4.092c0,4.459,3.614,8.073,8.073,8.073l0,0c4.459,0,8.073-3.614,8.073-8.073v-8.47
		c0-5.011,4.062-9.073,9.073-9.073l0,0c5.011,0,9.073,4.062,9.073,9.073v40.071c0,6.514,5.28,11.794,11.794,11.794l0,0
		c6.514,0,11.794-5.28,11.794-11.794v-29.826c0-5.515,4.471-9.986,9.986-9.986l0,0c5.515,0,9.986,4.471,9.986,9.986v43.273
		c0,6.018,4.879,10.897,10.897,10.897l0,0c6.018,0,10.897-4.879,10.897-10.897V358.289L640.189,358.289z"/>
	<path id="XMLID_147_" style="fill:#E5E5E5;" d="M543.189,383.289c-23.791,0-46.241-1.612-63.217-4.539
		c-16.706-2.88-33.783-7.563-33.783-20.461s17.077-17.581,33.783-20.461c16.976-2.927,39.427-4.539,63.217-4.539
		c23.79,0,46.241,1.612,63.218,4.539c16.705,2.88,33.782,7.563,33.782,20.461s-17.077,17.581-33.782,20.461
		C589.43,381.678,566.979,383.289,543.189,383.289z"/>
	
		<path id="XMLID_9_" style="fill:none;stroke:#34323A;stroke-width:12;stroke-linecap:round;stroke-linejoin:round;stroke-miterlimit:10;" d="
		M543.189,383.289c-23.791,0-46.241-1.612-63.217-4.539c-16.706-2.88-33.783-7.563-33.783-20.461s17.077-17.581,33.783-20.461
		c16.976-2.927,39.427-4.539,63.217-4.539c23.79,0,46.241,1.612,63.218,4.539c16.705,2.88,33.782,7.563,33.782,20.461
		s-17.077,17.581-33.782,20.461C589.43,381.678,566.979,383.289,543.189,383.289z"/>
	<path id="XMLID_10_" style="fill:#FFFFFF;" d="M561.08,245.278c14.174,22.662,31.607,113.011-17.891,113.011
		s-32.064-90.349-17.891-113.011c5.484-8.769,12.489-18.754,17.891-18.754C548.591,226.524,555.596,236.51,561.08,245.278z"/>
	<path id="XMLID_62_" style="fill:#FFBF40;" d="M561.08,245.278c14.174,22.662,31.607,113.011-17.891,113.011
		s-32.064-90.349-17.891-113.011c5.484-8.769,12.489-18.754,17.891-18.754C548.591,226.524,555.596,236.51,561.08,245.278z"/>
	<path id="XMLID_65_" style="fill:#FF433E;" d="M550.257,305.864c5.599,8.953,12.486,44.645-7.068,44.645
		s-12.667-35.692-7.068-44.645c2.167-3.464,4.934-7.409,7.068-7.409S548.09,302.4,550.257,305.864z"/>
	
		<path id="XMLID_12_" style="fill:none;stroke:#34323A;stroke-width:12;stroke-linecap:round;stroke-linejoin:round;stroke-miterlimit:10;" d="
		M561.08,245.278c14.174,22.662,31.607,113.011-17.891,113.011s-32.064-90.349-17.891-113.011
		c5.484-8.769,12.489-18.754,17.891-18.754C548.591,226.524,555.596,236.51,561.08,245.278z"/>
</g>
<g>
	<g id="XMLID_25_">
		<path id="XMLID_28_" style="fill:#FFFFFF;" d="M491.558,636.264c0,0,53.802-16.7,61.867-63.602
			c36.445,23.569,63.567,13.417,93.44-14.373c22.402,15.671,44.451,27.789,83.02,20.843c-21.842,17.099-29.832,57.389-25.411,69.669
			c-15.368,4.302-41.713,15.152-41.713,55.524c-31.36-20.169-72.76-1.837-86.765,35.597c0,0-62.272-37.325-84.437-15.161
			C509.551,686.977,512.667,657.374,491.558,636.264z"/>
		<path id="XMLID_49_" style="fill:#458B3A;" d="M491.558,636.264c0,0,53.802-16.7,61.867-63.602
			c36.445,23.569,63.567,13.417,93.44-14.373c22.402,15.671,44.451,27.789,83.02,20.843c-21.842,17.099-29.832,57.389-25.411,69.669
			c-15.368,4.302-41.713,15.152-41.713,55.524c-31.36-20.169-72.76-1.837-86.765,35.597c0,0-62.272-37.325-84.437-15.161
			C509.551,686.977,512.667,657.374,491.558,636.264z"/>
		<g id="XMLID_88_" style="opacity:0.6;">
			<path id="XMLID_91_" style="fill:#468B3A;" d="M492.073,636.806c-0.063-0.215-0.121-0.433-0.187-0.647
				c-0.214,0.071-0.328,0.106-0.328,0.106C491.736,636.443,491.898,636.626,492.073,636.806z"/>
			<path id="XMLID_94_" style="opacity:0.7;fill:#3A7530;" d="M729.884,579.133c-10.789,1.943-2.216,2.644-10.789,1.943
				c-15.385,1.893-34.573,46.75-31.573,55.082c-15.368,4.302-39.896,15.933-42.697,41.989c-30.262-7.133-66.873,4.051-80.877,41.485
				c0,0-34.861-20.893-61.7-22.131c-2.498,8.554-6.108,17.641-10.69,27.262c22.165-22.165,84.437,15.161,84.437,15.161
				c14.004-37.434,55.405-55.766,86.765-35.597c0-40.373,26.345-51.223,41.713-55.524
				C700.052,636.522,708.042,596.231,729.884,579.133z"/>
		</g>
		<path id="XMLID_77_" style="opacity:0.74;fill:#336629;" d="M485.958,641.864c0,0,36.951-10.424,73.975,23.065
			c27.692,25.048,31.406,52.169,31.406,64.339c0,12.17-5.018,25.506-5.018,25.506h-62.656l-45.174-9.897
			c0,0-8.429-21.72-8.429-27.485S456.14,671.682,485.958,641.864z"/>
		<path id="XMLID_54_" style="fill:#5EAB50;" d="M506.008,678.148c0,0,5.317-8.739,4.359-17.635
			c-0.625-5.801-6.284-16.652-7.519-19.477c9.971-2.688,51.007-11.609,60.967-41.302c18.282,9.678,56.498,6.341,82.307-19.468
			c22.684,9.759,50.234,18.981,79.56,2.606c-33.584,0-59.107-11.71-66.57-16.503c-7.463-4.794-12.247-8.077-12.247-8.077
			s-21.988,22.527-45.372,26.658c-23.385,4.131-48.067-12.285-48.067-12.285s-0.994,34.486-56.174,61.476
			c4.504,15.161,11.209,27.006,8.394,47.43"/>
		
			<path id="XMLID_26_" style="fill:none;stroke:#34323A;stroke-width:12;stroke-linecap:round;stroke-linejoin:round;stroke-miterlimit:10;" d="
			M491.558,636.264c0,0,53.802-16.7,61.867-63.602c36.445,23.569,63.567,13.417,93.44-14.373
			c22.402,15.671,44.451,27.789,83.02,20.843c-21.842,17.099-29.832,57.389-25.411,69.669
			c-15.368,4.302-41.713,15.152-41.713,55.524c-31.36-20.169-72.76-1.837-86.765,35.597c0,0-62.272-37.325-84.437-15.161
			C509.551,686.977,512.667,657.374,491.558,636.264z"/>
		
			<path id="XMLID_27_" style="fill:none;stroke:#34323A;stroke-width:12;stroke-linecap:round;stroke-linejoin:round;stroke-miterlimit:10;" d="
			M523.665,701.564c0,0,54.652-71.411,150.018-98.944"/>
	</g>
	<g id="XMLID_30_">
		<path id="XMLID_33_" style="fill:#FFFFFF;" d="M533.912,729.854c0,0,40.063,14.408,66.273-10.221
			c11.264,30.807,32.249,37.024,62.919,33.851c6.385,19.65,14.174,36.996,40.606,50.357c-20.96,0.377-44.116,21.051-47.038,30.472
			c-11.23-4.398-32.063-9.841-50.437,14.519c-9.743-26.441-43.066-34.221-68.551-18.007c0,0-20.587-50.86-44.047-47.574
			C521.69,768.641,537.042,752.197,533.912,729.854z"/>
		<path id="XMLID_50_" style="fill:#468B3A;" d="M533.912,729.854c0,0,40.063,14.408,66.273-10.221
			c11.264,30.807,32.249,37.024,62.919,33.851c6.385,19.65,14.174,36.996,40.606,50.357c-20.96,0.377-44.116,21.051-47.038,30.472
			c-11.23-4.398-32.063-9.841-50.437,14.519c-9.743-26.441-43.066-34.221-68.551-18.007c0,0-20.587-50.86-44.047-47.574
			C521.69,768.641,537.042,752.197,533.912,729.854z"/>
		<path id="XMLID_111_" style="fill:#5EAB50;" d="M513.638,792.221c11.783-10.586,17.45-22.531,15.433-36.928
			c0,0,40.063,14.408,66.273-10.221c12.43,21.152,35.376,29.597,59.662,27.285c4.086,12.576,21.251,24.272,36.43,30.45
			c8.141-5.306,3.087,1.199,12.273,1.034c-26.432-13.361-34.221-30.707-40.606-50.357c-30.671,3.172-51.656-3.045-62.919-33.851
			c-26.211,24.629-66.273,10.221-66.273,10.221c3.13,22.343-12.222,38.787-40.275,53.397
			C500.73,782.258,507.56,786.218,513.638,792.221z"/>
		<path id="XMLID_110_" style="fill:#3A7530;" d="M691.692,796.63c-18.009-1.108-36.828,13.181-38.73,19.312
			c-11.23-4.398-33.171-6.269-46.727,10.809c-9.743-26.441-39.874-30.121-61.125-17.078c0,0-17.269-25.24-31.097-39.16
			c-5.722,4.447-12.554,8.664-20.376,12.738c23.46-3.287,44.047,47.574,44.047,47.574c25.486-16.213,58.808-8.433,68.551,18.007
			c18.373-24.36,39.206-18.917,50.437-14.519c2.922-9.421,26.078-30.095,47.038-30.472
			C694.361,799.116,697.139,802.278,691.692,796.63z"/>
		<path id="XMLID_74_" style="opacity:0.65;fill:#336629;" d="M593.377,721.761c0,0,1.026,14.631,0,26.979
			c-2.038,24.528-20.419,64.57-59.264,74.214c-23.821-38.722-55.623-33.462-55.623-38.722c0-5.26,15.573-48.444,18.76-51.631
			C500.438,729.414,569.937,749.377,593.377,721.761z"/>
		
			<path id="XMLID_32_" style="fill:none;stroke:#34323A;stroke-width:12;stroke-linecap:round;stroke-linejoin:round;stroke-miterlimit:10;" d="
			M533.912,729.854c0,0,40.063,14.408,66.273-10.221c11.264,30.807,32.249,37.024,62.919,33.851
			c6.385,19.65,14.174,36.996,40.606,50.357c-20.96,0.377-44.116,21.051-47.038,30.472c-11.23-4.398-32.063-9.841-50.437,14.519
			c-9.743-26.441-43.066-34.221-68.551-18.007c0,0-20.587-50.86-44.047-47.574C521.69,768.641,537.042,752.197,533.912,729.854z"/>
		
			<path id="XMLID_100_" style="fill:none;stroke:#34323A;stroke-width:12;stroke-linecap:round;stroke-linejoin:round;stroke-miterlimit:10;" d="
			M539.646,774.878c0,0,54.188-3.036,103.825,14.079"/>
	</g>
	<g id="XMLID_34_">
		<path id="XMLID_37_" style="fill:#FFFFFF;" d="M409.276,649.519c0,0-42.531-1.925-57.394-34.677
			c-22.142,24.201-43.913,21.962-71.068,7.354c-13.384,15.741-27.189,28.816-56.717,31.111
			c19.239,8.326,32.783,36.258,31.899,46.082c12.059,0.207,33.396,3.104,41.114,32.623c19.074-20.742,52.849-15.253,70.245,9.441
			c0,0,38.396-39.196,58.84-27.227C405.815,690.038,397.877,668.989,409.276,649.519z"/>
		<path id="XMLID_51_" style="fill:#468B3A;" d="M409.276,649.519c0,0-42.531-1.925-57.394-34.677
			c-22.142,24.201-43.913,21.962-71.068,7.354c-13.384,15.741-27.189,28.816-56.717,31.111
			c19.239,8.326,32.783,36.258,31.899,46.082c12.059,0.207,33.396,3.104,41.114,32.623c19.074-20.742,52.849-15.253,70.245,9.441
			c0,0,38.396-39.196,58.84-27.227C405.815,690.038,397.877,668.989,409.276,649.519z"/>
		<path id="XMLID_109_" style="opacity:0.2;fill:#444444;" d="M426.195,714.227c-20.38-24.189-28.317-45.238-16.918-64.708
			c0,0-22.16-1.311-40.641-20.093c-9.663,18.114-9.663,30.108-9.663,48.426c-6.937,6.937-29.077,15.272-36.952,41.643
			c16.392-1.752,34.211,6.169,45.334,21.959C367.355,741.454,405.751,702.258,426.195,714.227z"/>
		<path id="XMLID_108_" style="fill:#3A7530;" d="M372.807,717.491c-16.425-19.939-50.48-24.367-70.245-9.441
			c-7.982-20.215-22.912-26.274-34.971-26.481c0.515-5.726-17.167-20.638-24.725-31.2c-7.147,3.106-8.415,2.134-18.769,2.938
			c19.239,8.326,32.783,36.258,31.899,46.082c12.059,0.207,33.396,3.104,41.114,32.623c19.074-20.742,52.849-15.253,70.245,9.441
			c0,0,38.396-39.196,58.84-27.227c-6.865-8.148-12.311-15.938-16.089-23.434C391.748,698.157,372.807,717.491,372.807,717.491z"/>
		<g id="XMLID_102_" style="opacity:0.5;">
			<path id="XMLID_105_" style="fill:#468B3A;" d="M405.021,676.92c-5.982,11.727-5.121,24.041,1.098,37.276
				c7.274-2.663,14.374-3.308,20.076,0.031C414.99,700.928,407.558,688.58,405.021,676.92z"/>
			<path id="XMLID_106_" style="fill:#5EAB50;" d="M240.235,664.755c13.868-5.718,31.258-9.499,40.195-20.009
				c22.53,10.76,47.574,13.464,68.364-4.65c13.145,28.966,47.925,33.819,55.792,34.554c-1.427-8.722-0.033-17.063,4.691-25.131
				c0,0-42.531-1.925-57.394-34.677c-22.142,24.201-43.913,21.962-71.068,7.354c-13.384,15.741-27.189,28.816-56.717,31.111
				C232.745,657.05,234.682,656.515,240.235,664.755z"/>
		</g>
		
			<path id="XMLID_36_" style="fill:none;stroke:#34323A;stroke-width:12;stroke-linecap:round;stroke-linejoin:round;stroke-miterlimit:10;" d="
			M409.276,649.519c0,0-42.531-1.925-57.394-34.677c-22.142,24.201-43.913,21.962-71.068,7.354
			c-13.384,15.741-27.189,28.816-56.717,31.111c19.239,8.326,32.783,36.258,31.899,46.082c12.059,0.207,33.396,3.104,41.114,32.623
			c19.074-20.742,52.849-15.253,70.245,9.441c0,0,38.396-39.196,58.84-27.227C405.815,690.038,397.877,668.989,409.276,649.519z"/>
		
			<path id="XMLID_35_" style="fill:none;stroke:#34323A;stroke-width:12;stroke-linecap:round;stroke-linejoin:round;stroke-miterlimit:10;" d="
			M398.284,703.402c0,0-28.346-39.968-131.498-40.772"/>
	</g>
	<g id="XMLID_21_">
		<circle id="XMLID_19_" style="fill:#FF3636;" cx="441.997" cy="676.01" r="65.44"/>
		<path id="XMLID_98_" style="fill:#DA2E2D;" d="M398.63,721.003c9.04,8.017,20.391,13.641,33.214,15.655
			c35.704,5.607,69.193-18.791,74.8-54.495c2.471-15.736-0.892-31.038-8.477-43.716c-2.184-0.153-4.388-0.237-6.61-0.237
			C443.612,638.21,403.982,674.467,398.63,721.003z"/>
		<path id="XMLID_104_" style="opacity:0.7;fill:#BA2727;" d="M452.149,611.362c-0.68-0.107-1.357-0.182-2.034-0.267
			c15.878,14.313,24.448,36.1,20.884,58.793c-5.5,35.024-37.834,59.149-72.766,54.762c9.103,8.206,20.601,13.964,33.611,16.007
			c35.704,5.607,69.193-18.791,74.8-54.495C512.252,650.459,487.853,616.97,452.149,611.362z"/>
		
			<circle id="XMLID_23_" style="fill:none;stroke:#34323A;stroke-width:12;stroke-linecap:round;stroke-linejoin:round;stroke-miterlimit:10;" cx="441.997" cy="676.01" r="65.44"/>
		
			<ellipse id="XMLID_22_" transform="matrix(0.9565 -0.2918 0.2918 0.9565 -170.3935 149.7486)" style="fill:#FFFFFF;" cx="416.84" cy="646.124" rx="9.475" ry="7.914"/>
	</g>
	<g id="XMLID_16_">
		<circle id="XMLID_24_" style="fill:#FFFFFF;" cx="387.534" cy="744.877" r="51.753"/>
		
			<circle id="XMLID_18_" style="fill:none;stroke:#34323A;stroke-width:12;stroke-linecap:round;stroke-linejoin:round;stroke-miterlimit:10;" cx="387.534" cy="744.877" r="51.753"/>
		
			<path id="XMLID_17_" style="fill:none;stroke:#34323A;stroke-width:12;stroke-linecap:round;stroke-linejoin:round;stroke-miterlimit:10;" d="
			M373.743,722.774c0,0,0.27,12.986-10.217,12.986"/>
	</g>
	<g id="XMLID_53_">
		<circle id="XMLID_57_" style="fill:#FFFFFF;" cx="387.534" cy="744.877" r="51.753"/>
		<circle id="XMLID_60_" style="fill:#FF3636;" cx="387.534" cy="744.877" r="51.753"/>
		<circle id="XMLID_96_" style="fill:#FF3636;" cx="387.534" cy="744.877" r="51.753"/>
		<path id="XMLID_103_" style="fill:#DA2E2D;" d="M416.061,701.7c2.064,5.588,3.195,11.628,3.195,17.933
			c0,28.582-23.171,51.753-51.753,51.753c-10.545,0-20.347-3.161-28.527-8.577c7.294,19.743,26.281,33.82,48.558,33.82
			c28.582,0,51.753-23.171,51.753-51.753C439.287,726.839,430.053,710.964,416.061,701.7z"/>
		<path id="XMLID_99_" style="opacity:0.7;fill:#BA2727;" d="M403.543,696.743c-5.475,11.883-8.535,25.098-8.535,39.017
			c0,19.749,6.156,38.083,16.643,53.197c14.78-9.112,24.636-25.443,24.636-44.08C436.287,723.008,422.717,704.322,403.543,696.743z"
			/>
		
			<circle id="XMLID_55_" style="fill:none;stroke:#34323A;stroke-width:12;stroke-linecap:round;stroke-linejoin:round;stroke-miterlimit:10;" cx="387.534" cy="744.877" r="51.753"/>
		
			<ellipse id="XMLID_81_" transform="matrix(0.8689 -0.4951 0.4951 0.8689 -311.387 277.1985)" style="fill:#FFFFFF;" cx="367.503" cy="726.324" rx="9.044" ry="6.691"/>
	</g>
	<g id="XMLID_2_">
		<circle id="XMLID_15_" style="fill:#FFFFFF;" cx="494.558" cy="735.76" r="77.55"/>
		<circle id="XMLID_52_" style="fill:#FF3636;" cx="494.558" cy="735.76" r="77.55"/>
		<path id="XMLID_97_" style="opacity:0.2;fill:#444444;" d="M552.441,684.17c1.283,5.594,1.983,11.41,1.983,17.393
			c0,42.83-34.72,77.55-77.55,77.55c-23.016,0-43.68-10.036-57.883-25.96c7.899,34.451,38.721,60.156,75.567,60.156
			c42.83,0,77.55-34.72,77.55-77.55C572.108,715.947,564.667,697.878,552.441,684.17z"/>
		
			<circle id="XMLID_13_" style="fill:none;stroke:#34323A;stroke-width:12;stroke-linecap:round;stroke-linejoin:round;stroke-miterlimit:10;" cx="494.558" cy="735.76" r="77.55"/>
		<ellipse id="XMLID_14_" style="fill:#FFFFFF;" cx="488.958" cy="703.402" rx="15.147" ry="13.255"/>
	</g>
</g>
</svg>
