<?xml version="1.0" encoding="iso-8859-1"?>
<!-- Generator: Adobe Illustrator 23.0.2, SVG Export Plug-In . SVG Version: 6.00 Build 0)  -->
<svg version="1.1" id="Layer_1" xmlns="http://www.w3.org/2000/svg" xmlns:xlink="http://www.w3.org/1999/xlink" x="0px" y="0px"
	 viewBox="0 0 1000 1000" style="enable-background:new 0 0 1000 1000;" xml:space="preserve">
<g id="XMLID_41_">
	<g id="XMLID_354_" style="opacity:0.39;">
		
			<line id="XMLID_356_" style="fill:none;stroke:#9284CE;stroke-width:6;stroke-linecap:round;stroke-linejoin:round;stroke-miterlimit:10;" x1="798.176" y1="558.826" x2="810.167" y2="558.826"/>
		
			<line id="XMLID_355_" style="fill:none;stroke:#9284CE;stroke-width:6;stroke-linecap:round;stroke-linejoin:round;stroke-miterlimit:10;" x1="804.172" y1="552.83" x2="804.172" y2="564.821"/>
	</g>
	<g id="XMLID_358_" style="opacity:0.4;">
		
			<line id="XMLID_360_" style="fill:none;stroke:#9284CE;stroke-width:6;stroke-linecap:round;stroke-linejoin:round;stroke-miterlimit:10;" x1="469.141" y1="262.461" x2="481.132" y2="262.461"/>
		
			<line id="XMLID_359_" style="fill:none;stroke:#9284CE;stroke-width:6;stroke-linecap:round;stroke-linejoin:round;stroke-miterlimit:10;" x1="475.137" y1="256.466" x2="475.137" y2="268.457"/>
	</g>
	
		<circle id="XMLID_353_" style="fill:none;stroke:#FF6F6C;stroke-width:3.6376;stroke-linecap:round;stroke-linejoin:round;stroke-miterlimit:10;" cx="660.147" cy="340.615" r="8.676"/>
	
		<circle id="XMLID_352_" style="fill:none;stroke:#FF6F6C;stroke-width:3.6376;stroke-linecap:round;stroke-linejoin:round;stroke-miterlimit:10;" cx="114.496" cy="452.478" r="3.842"/>
	
		<circle id="XMLID_351_" style="fill:none;stroke:#FFA65C;stroke-width:6;stroke-linecap:round;stroke-linejoin:round;stroke-miterlimit:10;" cx="769.237" cy="334.711" r="7.254"/>
	
		<circle id="XMLID_361_" style="opacity:0.45;fill:none;stroke:#FFA65C;stroke-width:4;stroke-linecap:round;stroke-linejoin:round;stroke-miterlimit:10;" cx="167.509" cy="650.206" r="7.254"/>
	<g id="XMLID_348_">
		
			<line id="XMLID_350_" style="fill:none;stroke:#FF6F6C;stroke-width:3.6376;stroke-linecap:round;stroke-linejoin:round;stroke-miterlimit:10;" x1="396.229" y1="225.124" x2="405.401" y2="225.124"/>
		
			<line id="XMLID_349_" style="fill:none;stroke:#FF6F6C;stroke-width:3.6376;stroke-linecap:round;stroke-linejoin:round;stroke-miterlimit:10;" x1="400.815" y1="220.537" x2="400.815" y2="229.71"/>
	</g>
	<g id="XMLID_345_" style="opacity:0.24;">
		
			<line id="XMLID_347_" style="fill:none;stroke:#34323A;stroke-width:9.3261;stroke-linecap:round;stroke-linejoin:round;stroke-miterlimit:10;" x1="269.482" y1="524.972" x2="291.64" y2="524.972"/>
		
			<line id="XMLID_346_" style="fill:none;stroke:#34323A;stroke-width:9.3261;stroke-linecap:round;stroke-linejoin:round;stroke-miterlimit:10;" x1="280.561" y1="513.893" x2="280.561" y2="536.051"/>
	</g>
	<g id="XMLID_330_">
		<g id="XMLID_338_">
			<g id="XMLID_342_">
				
					<line id="XMLID_344_" style="fill:none;stroke:#FFA64D;stroke-width:3;stroke-linecap:round;stroke-linejoin:round;stroke-miterlimit:10;" x1="769.237" y1="475.221" x2="769.237" y2="478.714"/>
				
					<line id="XMLID_343_" style="fill:none;stroke:#FFA64D;stroke-width:3;stroke-linecap:round;stroke-linejoin:round;stroke-miterlimit:10;" x1="769.237" y1="488.749" x2="769.237" y2="492.242"/>
			</g>
			<g id="XMLID_339_">
				
					<line id="XMLID_341_" style="fill:none;stroke:#FFA64D;stroke-width:3;stroke-linecap:round;stroke-linejoin:round;stroke-miterlimit:10;" x1="777.748" y1="483.731" x2="774.255" y2="483.731"/>
				
					<line id="XMLID_340_" style="fill:none;stroke:#FFA64D;stroke-width:3;stroke-linecap:round;stroke-linejoin:round;stroke-miterlimit:10;" x1="764.22" y1="483.731" x2="760.727" y2="483.731"/>
			</g>
		</g>
		<g id="XMLID_331_">
			<g id="XMLID_335_">
				
					<line id="XMLID_337_" style="fill:none;stroke:#FFA64D;stroke-width:3;stroke-linecap:round;stroke-linejoin:round;stroke-miterlimit:10;" x1="775.255" y1="477.714" x2="772.785" y2="480.183"/>
				
					<line id="XMLID_336_" style="fill:none;stroke:#FFA64D;stroke-width:3;stroke-linecap:round;stroke-linejoin:round;stroke-miterlimit:10;" x1="765.689" y1="487.279" x2="763.22" y2="489.749"/>
			</g>
			<g id="XMLID_332_">
				
					<line id="XMLID_334_" style="fill:none;stroke:#FFA64D;stroke-width:3;stroke-linecap:round;stroke-linejoin:round;stroke-miterlimit:10;" x1="775.255" y1="489.749" x2="772.785" y2="487.279"/>
				
					<line id="XMLID_333_" style="fill:none;stroke:#FFA64D;stroke-width:3;stroke-linecap:round;stroke-linejoin:round;stroke-miterlimit:10;" x1="765.689" y1="480.183" x2="763.22" y2="477.714"/>
			</g>
		</g>
	</g>
	<g id="XMLID_315_" style="opacity:0.57;">
		<g id="XMLID_323_">
			<g id="XMLID_327_">
				
					<line id="XMLID_329_" style="fill:none;stroke:#E24D59;stroke-width:4;stroke-linecap:square;stroke-miterlimit:10;" x1="611.918" y1="225.124" x2="611.918" y2="233.662"/>
				
					<line id="XMLID_328_" style="fill:none;stroke:#E24D59;stroke-width:4;stroke-linecap:square;stroke-miterlimit:10;" x1="611.918" y1="258.192" x2="611.918" y2="266.73"/>
			</g>
			<g id="XMLID_324_">
				
					<line id="XMLID_326_" style="fill:none;stroke:#E24D59;stroke-width:4;stroke-linecap:square;stroke-miterlimit:10;" x1="632.721" y1="245.927" x2="624.183" y2="245.927"/>
				
					<line id="XMLID_325_" style="fill:none;stroke:#E24D59;stroke-width:4;stroke-linecap:square;stroke-miterlimit:10;" x1="599.652" y1="245.927" x2="591.114" y2="245.927"/>
			</g>
		</g>
		<g id="XMLID_316_">
			<g id="XMLID_320_">
				
					<line id="XMLID_322_" style="fill:none;stroke:#E24D59;stroke-width:4;stroke-linecap:square;stroke-miterlimit:10;" x1="626.628" y1="231.217" x2="620.591" y2="237.254"/>
				
					<line id="XMLID_321_" style="fill:none;stroke:#E24D59;stroke-width:4;stroke-linecap:square;stroke-miterlimit:10;" x1="603.245" y1="254.6" x2="597.208" y2="260.637"/>
			</g>
			<g id="XMLID_317_">
				
					<line id="XMLID_319_" style="fill:none;stroke:#E24D59;stroke-width:4;stroke-linecap:square;stroke-miterlimit:10;" x1="626.628" y1="260.637" x2="620.591" y2="254.6"/>
				
					<line id="XMLID_318_" style="fill:none;stroke:#E24D59;stroke-width:4;stroke-linecap:square;stroke-miterlimit:10;" x1="603.245" y1="237.254" x2="597.208" y2="231.217"/>
			</g>
		</g>
	</g>
	<g id="XMLID_300_">
		<g id="XMLID_308_">
			<g id="XMLID_312_">
				
					<line id="XMLID_314_" style="fill:none;stroke:#FF6F6C;stroke-width:3.6376;stroke-linecap:round;stroke-linejoin:round;stroke-miterlimit:10;" x1="189.421" y1="448.331" x2="189.421" y2="454.48"/>
				
					<line id="XMLID_313_" style="fill:none;stroke:#FF6F6C;stroke-width:3.6376;stroke-linecap:round;stroke-linejoin:round;stroke-miterlimit:10;" x1="189.421" y1="472.146" x2="189.421" y2="478.295"/>
			</g>
			<g id="XMLID_309_">
				
					<line id="XMLID_311_" style="fill:none;stroke:#FF6F6C;stroke-width:3.6376;stroke-linecap:round;stroke-linejoin:round;stroke-miterlimit:10;" x1="204.403" y1="463.313" x2="198.254" y2="463.313"/>
				
					<line id="XMLID_310_" style="fill:none;stroke:#FF6F6C;stroke-width:3.6376;stroke-linecap:round;stroke-linejoin:round;stroke-miterlimit:10;" x1="180.587" y1="463.313" x2="174.438" y2="463.313"/>
			</g>
		</g>
		<g id="XMLID_301_">
			<g id="XMLID_305_">
				
					<line id="XMLID_307_" style="fill:none;stroke:#FF6F6C;stroke-width:3.6376;stroke-linecap:round;stroke-linejoin:round;stroke-miterlimit:10;" x1="200.015" y1="452.719" x2="195.667" y2="457.067"/>
				
					<line id="XMLID_306_" style="fill:none;stroke:#FF6F6C;stroke-width:3.6376;stroke-linecap:round;stroke-linejoin:round;stroke-miterlimit:10;" x1="183.174" y1="469.559" x2="178.827" y2="473.907"/>
			</g>
			<g id="XMLID_302_">
				
					<line id="XMLID_304_" style="fill:none;stroke:#FF6F6C;stroke-width:3.6376;stroke-linecap:round;stroke-linejoin:round;stroke-miterlimit:10;" x1="200.015" y1="473.907" x2="195.667" y2="469.559"/>
				
					<line id="XMLID_303_" style="fill:none;stroke:#FF6F6C;stroke-width:3.6376;stroke-linecap:round;stroke-linejoin:round;stroke-miterlimit:10;" x1="183.174" y1="457.067" x2="178.827" y2="452.719"/>
			</g>
		</g>
	</g>
	<g id="XMLID_87_">
		<g id="XMLID_293_">
			<g id="XMLID_297_">
				
					<line id="XMLID_299_" style="fill:none;stroke:#AE8DCE;stroke-width:3.1048;stroke-linecap:round;stroke-linejoin:round;stroke-miterlimit:10;" x1="305.168" y1="279.143" x2="305.168" y2="284.391"/>
				
					<line id="XMLID_298_" style="fill:none;stroke:#AE8DCE;stroke-width:3.1048;stroke-linecap:round;stroke-linejoin:round;stroke-miterlimit:10;" x1="305.168" y1="299.47" x2="305.168" y2="304.719"/>
			</g>
			<g id="XMLID_294_">
				
					<line id="XMLID_296_" style="fill:none;stroke:#AE8DCE;stroke-width:3.1048;stroke-linecap:round;stroke-linejoin:round;stroke-miterlimit:10;" x1="317.957" y1="291.931" x2="312.708" y2="291.931"/>
				
					<line id="XMLID_295_" style="fill:none;stroke:#AE8DCE;stroke-width:3.1048;stroke-linecap:round;stroke-linejoin:round;stroke-miterlimit:10;" x1="297.629" y1="291.931" x2="292.38" y2="291.931"/>
			</g>
		</g>
		<g id="XMLID_89_">
			<g id="XMLID_270_">
				
					<line id="XMLID_292_" style="fill:none;stroke:#AE8DCE;stroke-width:3.1048;stroke-linecap:round;stroke-linejoin:round;stroke-miterlimit:10;" x1="314.211" y1="282.888" x2="310.5" y2="286.599"/>
				
					<line id="XMLID_289_" style="fill:none;stroke:#AE8DCE;stroke-width:3.1048;stroke-linecap:round;stroke-linejoin:round;stroke-miterlimit:10;" x1="299.837" y1="297.262" x2="296.126" y2="300.973"/>
			</g>
			<g id="XMLID_266_">
				
					<line id="XMLID_269_" style="fill:none;stroke:#AE8DCE;stroke-width:3.1048;stroke-linecap:round;stroke-linejoin:round;stroke-miterlimit:10;" x1="314.211" y1="300.973" x2="310.5" y2="297.262"/>
				
					<line id="XMLID_268_" style="fill:none;stroke:#AE8DCE;stroke-width:3.1048;stroke-linecap:round;stroke-linejoin:round;stroke-miterlimit:10;" x1="299.837" y1="286.599" x2="296.126" y2="282.888"/>
			</g>
		</g>
	</g>
</g>
<line id="XMLID_267_" style="fill:none;stroke:#34323A;stroke-width:12;stroke-linecap:round;stroke-linejoin:round;stroke-miterlimit:10;" x1="155.509" y1="745.409" x2="837.975" y2="745.409"/>
<g id="XMLID_194_">
	<path id="XMLID_192_" style="fill:#DBA44A;" d="M225.146,626.951c-14.655,8.951-21.176,25.056,0,31.004
		c44.837-0.933,66.491-0.989,66.491-0.989v-18.089C291.637,638.876,239.801,618,225.146,626.951z"/>
	
		<path id="XMLID_191_" style="fill:none;stroke:#34323A;stroke-width:8;stroke-linecap:round;stroke-linejoin:round;stroke-miterlimit:10;" d="
		M225.146,626.951c-14.655,8.951-21.176,25.056,0,31.004c44.837-0.933,66.491-0.989,66.491-0.989v-18.089
		C291.637,638.876,239.801,618,225.146,626.951z"/>
</g>
<g id="XMLID_195_">
	<path id="XMLID_202_" style="fill:#DBA44A;" d="M225.146,626.951c-14.655,8.951-21.176,25.056,0,31.004
		c44.837-0.933,66.491-0.989,66.491-0.989v-18.089C291.637,638.876,239.801,618,225.146,626.951z"/>
	<path id="XMLID_221_" style="fill:#FECB5B;" d="M226.678,634.088c13.16-8.038,56.295,7.974,64.959,11.325v-6.537
		c0,0-51.836-20.876-66.491-11.926c-10.41,6.358-16.703,16.324-11.892,23.697C214.101,644.779,219.379,638.546,226.678,634.088z"/>
	
		<path id="XMLID_201_" style="fill:none;stroke:#34323A;stroke-width:8;stroke-linecap:round;stroke-linejoin:round;stroke-miterlimit:10;" d="
		M225.146,626.951c-14.655,8.951-21.176,25.056,0,31.004c44.837-0.933,66.491-0.989,66.491-0.989v-18.089
		C291.637,638.876,239.801,618,225.146,626.951z"/>
</g>
<g id="XMLID_197_">
	<path id="XMLID_200_" style="fill:#DBA44A;" d="M397.332,626.951c14.655,8.951,21.176,25.056,0,31.004
		c-44.837-0.933-66.491-0.989-66.491-0.989v-18.089C330.841,638.876,382.677,618,397.332,626.951z"/>
	<path id="XMLID_222_" style="fill:#FECB5B;" d="M397.332,633.142c6.652,4.063,11.615,9.599,13.086,14.991
		c2.184-7.004-3.82-15.523-13.086-21.183c-14.655-8.951-66.491,11.926-66.491,11.926v6.192
		C330.841,645.068,382.677,624.192,397.332,633.142z"/>
	
		<path id="XMLID_199_" style="fill:none;stroke:#34323A;stroke-width:8;stroke-linecap:round;stroke-linejoin:round;stroke-miterlimit:10;" d="
		M397.332,626.951c14.655,8.951,21.176,25.056,0,31.004c-44.837-0.933-66.491-0.989-66.491-0.989v-18.089
		C330.841,638.876,382.677,618,397.332,626.951z"/>
</g>
<g id="XMLID_193_">
	<path id="XMLID_190_" style="fill:#DBA44A;" d="M325.96,663.469c-9.923,2.165-20.201,2.165-30.125,0
		c-6.756-1.871-11.982-9.743-11.979-15.94l0,0c-0.003-6.197,5.223-14.068,11.979-15.94c9.923-2.165,20.201-2.165,30.125,0
		c6.756,1.872,11.982,9.743,11.979,15.94l0,0C337.942,653.726,332.716,661.597,325.96,663.469z"/>
	<path id="XMLID_205_" style="fill:#FECB5B;" d="M295.835,639.441c9.923-2.165,20.201-2.165,30.125,0
		c5.382,1.491,9.782,6.788,11.353,12.014c0.401-1.335,0.627-2.665,0.626-3.926c0.003-6.197-5.223-14.068-11.979-15.94
		c-9.923-2.165-20.201-2.165-30.125,0c-6.756,1.872-11.982,9.743-11.979,15.94c0,1.261,0.225,2.591,0.627,3.926
		C286.053,646.229,290.454,640.932,295.835,639.441z"/>
	
		<path id="XMLID_189_" style="fill:none;stroke:#34323A;stroke-width:8;stroke-linecap:round;stroke-linejoin:round;stroke-miterlimit:10;" d="
		M325.96,663.469c-9.923,2.165-20.201,2.165-30.125,0c-6.756-1.871-11.982-9.743-11.979-15.94l0,0
		c-0.003-6.197,5.223-14.068,11.979-15.94c9.923-2.165,20.201-2.165,30.125,0c6.756,1.872,11.982,9.743,11.979,15.94l0,0
		C337.942,653.726,332.716,661.597,325.96,663.469z"/>
</g>
<g id="XMLID_188_">
	<rect id="XMLID_187_" x="204.042" y="659.713" style="fill:#FECB5B;" width="178.253" height="85.226"/>
	<g id="XMLID_11_">
		<polygon id="XMLID_243_" style="fill:#EF4C4E;" points="382.295,678.791 316.146,744.94 339.562,744.94 382.295,702.207 		"/>
		<polygon id="XMLID_244_" style="fill:#EF4C4E;" points="377.048,659.713 355.373,659.713 270.146,744.94 293.562,744.94 
			377.919,660.583 		"/>
		<polygon id="XMLID_245_" style="fill:#EF4C4E;" points="309.373,659.713 224.146,744.94 247.562,744.94 332.789,659.713 		"/>
		<polygon id="XMLID_246_" style="fill:#EF4C4E;" points="286.789,659.713 263.373,659.713 204.042,719.044 204.042,736.931 
			206.807,739.696 		"/>
		<polygon id="XMLID_247_" style="fill:#EF4C4E;" points="217.373,659.713 204.042,673.044 204.042,696.46 240.789,659.713 		"/>
	</g>
	<rect id="XMLID_207_" x="204.042" y="659.713" style="opacity:0.46;fill:#F4E598;" width="178.253" height="12.331"/>
	<rect id="XMLID_206_" x="204.042" y="659.713" style="opacity:0.2;fill:#4C1C1F;" width="15.505" height="85.226"/>
	<rect id="XMLID_215_" x="349.22" y="659.713" style="opacity:0.2;fill:#4C1C1F;" width="15.505" height="85.226"/>
	
		<rect id="XMLID_184_" x="204.042" y="659.713" style="fill:none;stroke:#34323A;stroke-width:12;stroke-linecap:round;stroke-linejoin:round;stroke-miterlimit:10;" width="178.253" height="85.226"/>
</g>
<path id="XMLID_166_" style="fill:#FFFFFF;" d="M599.549,413.658c0,0,2.588,10.053-11.947,19.033
	c31.503,6.521,51.11,21.685,54.297,25.349c6.248,0,6.248,0,6.248,0S639.747,417.711,599.549,413.658z"/>
<path id="XMLID_162_" style="fill:none;stroke:#34323A;stroke-width:6;stroke-linecap:round;stroke-linejoin:round;stroke-miterlimit:10;" d="
	M599.549,413.658c0,0,2.588,10.053-11.947,19.033c31.503,6.521,51.11,21.685,54.297,25.349c6.248,0,6.248,0,6.248,0
	S639.747,417.711,599.549,413.658z"/>
<path id="XMLID_170_" style="fill:#FFFFFF;" d="M709.371,420.108c0,0-3.987,9.585,9.128,20.534
	c-32.109,1.99-53.667,14.222-57.341,17.397c-6.184-0.885-6.184-0.885-6.184-0.885S669.004,418.423,709.371,420.108z"/>
<path id="XMLID_168_" style="fill:none;stroke:#34323A;stroke-width:6;stroke-linecap:round;stroke-linejoin:round;stroke-miterlimit:10;" d="
	M709.371,420.108c0,0-3.987,9.585,9.128,20.534c-32.109,1.99-53.667,14.222-57.341,17.397c-6.184-0.885-6.184-0.885-6.184-0.885
	S669.004,418.423,709.371,420.108z"/>
<g id="XMLID_160_">
	<path id="XMLID_154_" style="fill:#EEF2FA;" d="M654.96,452.609c0,0,9.185-20.499,29.185-20.499
		c19.098,0.75,32.25,31.36,16.75,33.906c-15.5,2.546-41.855,3.298-41.855,3.298S662.867,460.516,654.96,452.609z"/>
	
		<path id="XMLID_152_" style="fill:none;stroke:#34323A;stroke-width:6;stroke-linecap:round;stroke-linejoin:round;stroke-miterlimit:10;" d="
		M654.96,452.609c0,0,9.185-20.499,29.185-20.499c19.098,0.75,32.25,31.36,16.75,33.906c-15.5,2.546-41.855,3.298-41.855,3.298
		S662.867,460.516,654.96,452.609z"/>
</g>
<g id="XMLID_156_">
	<path id="XMLID_159_" style="fill:#EEF2FA;" d="M644.535,452.609c0,0-9.185-20.499-29.185-20.499
		c-19.098,0.75-32.25,31.36-16.75,33.906c15.5,2.546,41.855,3.298,41.855,3.298S636.628,460.516,644.535,452.609z"/>
	
		<path id="XMLID_158_" style="fill:none;stroke:#34323A;stroke-width:6;stroke-linecap:round;stroke-linejoin:round;stroke-miterlimit:10;" d="
		M644.535,452.609c0,0-9.185-20.499-29.185-20.499c-19.098,0.75-32.25,31.36-16.75,33.906c15.5,2.546,41.855,3.298,41.855,3.298
		S636.628,460.516,644.535,452.609z"/>
</g>
<path id="XMLID_178_" style="fill:none;stroke:#34323A;stroke-width:2;stroke-linecap:round;stroke-linejoin:round;stroke-miterlimit:10;" d="
	M638.535,456.531c0,0,0.002-4.922-10.29-6.819"/>
<path id="XMLID_175_" style="fill:none;stroke:#34323A;stroke-width:2;stroke-linecap:round;stroke-linejoin:round;stroke-miterlimit:10;" d="
	M639.535,461.392c0,0-11.146-8.478-28.785-7.965"/>
<path id="XMLID_5_" style="fill:#6FBB57;" d="M533.213,744.94H369.546c-3.314,0-6-2.686-6-6V384.711h175.667V738.94
	C539.213,742.254,536.527,744.94,533.213,744.94z"/>
<g id="XMLID_26_">
	<g>
		<g id="XMLID_391_">
			<rect x="363.546" y="384.711" style="fill:#579B3E;" width="175.667" height="16.729"/>
		</g>
		<g id="XMLID_390_">
			<rect x="363.546" y="552.097" style="fill:#579B3E;" width="175.667" height="16.729"/>
		</g>
		<g id="XMLID_389_">
			<rect x="451.058" y="384.711" style="fill:#579B3E;" width="24.156" height="360.229"/>
		</g>
		<g id="XMLID_388_">
			<path style="fill:#579B3E;" d="M517.919,744.94h-24.156V621.96c0-7.066,5.728-12.794,12.794-12.794h11.362V744.94z"/>
		</g>
		<g id="XMLID_387_">
			<rect x="364.094" y="384.711" style="fill:#579B3E;" width="12.078" height="360.229"/>
		</g>
	</g>
</g>
<path id="XMLID_1_" style="fill:none;stroke:#34323A;stroke-width:12;stroke-linecap:round;stroke-linejoin:round;stroke-miterlimit:10;" d="
	M533.213,744.94H369.546c-3.314,0-6-2.686-6-6V384.711h175.667V738.94C539.213,742.254,536.527,744.94,533.213,744.94z"/>
<path id="XMLID_8_" style="fill:#6FBB57;" d="M545.379,340.711h-188c-3.314,0-6,2.686-6,6v32c0,3.314,2.686,6,6,6h188
	c3.314,0,6-2.686,6-6v-32C551.379,343.398,548.693,340.711,545.379,340.711z"/>
<g id="XMLID_91_">
	<g id="XMLID_124_">
		<g id="XMLID_127_">
			<path id="XMLID_128_" style="fill:#6FBB57;" d="M456.612,332.162c0,0,16.719-31.453,46.993-34.177
				c22.254-2.003,27.346,52.227,21.295,58.278c-9.643,9.643-26.646,4.186-58.521-2.552
				C456.612,332.162,456.612,332.162,456.612,332.162z"/>
		</g>
		<g id="XMLID_125_">
			<path id="XMLID_126_" style="fill:#6FBB57;" d="M441.517,332.162c0,0-16.719-31.453-46.993-34.177
				c-22.255-2.003-27.346,52.227-21.295,58.278c9.643,9.643,26.646,4.186,58.521-2.552
				C441.517,332.162,441.517,332.162,441.517,332.162z"/>
		</g>
	</g>
</g>
<rect id="XMLID_49_" x="436.718" y="340.711" style="fill:#6FBB57;" width="45.322" height="44"/>
<g id="XMLID_6_">
	<g>
		<g id="XMLID_365_">
			<path style="fill:#579B3E;" d="M545.379,372.711h-188c-3.314,0-6,2.686-6,6v0c0,3.314,2.686,6,6,6h188c3.314,0,6-2.686,6-6v0
				C551.379,375.398,548.693,372.711,545.379,372.711z"/>
		</g>
		<g id="XMLID_364_">
			<rect x="353.511" y="340.711" style="fill:#579B3E;" width="10.034" height="44"/>
		</g>
	</g>
</g>
<path id="XMLID_34_" style="opacity:0.42;fill:#FFFFFF;" d="M545.379,340.711h-188c-3.314,0-6,2.686-6,6l0,0c0,3.314,2.686,6,6,6
	h188c3.314,0,6-2.686,6-6l0,0C551.379,343.398,548.693,340.711,545.379,340.711z"/>
<rect id="XMLID_10_" x="436.379" y="384.711" style="fill:#FECB5B;" width="30" height="360.229"/>
<rect id="XMLID_9_" x="436.379" y="384.711" style="fill:none;stroke:#34323A;stroke-width:8;stroke-linecap:round;stroke-linejoin:round;stroke-miterlimit:10;" width="30" height="360.229"/>
<path id="XMLID_7_" style="fill:none;stroke:#34323A;stroke-width:12;stroke-linecap:round;stroke-linejoin:round;stroke-miterlimit:10;" d="
	M545.379,340.711h-188c-3.314,0-6,2.686-6,6v32c0,3.314,2.686,6,6,6h188c3.314,0,6-2.686,6-6v-32
	C551.379,343.398,548.693,340.711,545.379,340.711z"/>
<rect id="XMLID_20_" x="428.718" y="340.711" style="fill:#FECB5B;" width="45.322" height="44"/>
<path id="XMLID_50_" style="opacity:0.63;fill:#EA952F;" d="M451.379,369.926L451.379,369.926
	c-12.515,0-22.661-10.146-22.661-22.661V339c0-12.515,10.146-22.661,22.661-22.661h0c12.515,0,22.661,10.146,22.661,22.661v8.265
	C474.041,359.78,463.895,369.926,451.379,369.926z"/>
<rect id="XMLID_19_" x="428.718" y="340.711" style="fill:none;stroke:#34323A;stroke-width:8;stroke-linecap:round;stroke-linejoin:round;stroke-miterlimit:10;" width="45.322" height="44"/>
<g id="XMLID_25_">
	<path id="XMLID_17_" style="fill:#F7B45C;" d="M456.612,323.162c0,0,16.719-31.453,46.993-34.177
		c22.254-2.003,27.346,52.227,21.295,58.278c-9.643,9.643-26.646,4.186-58.521-2.552
		C456.612,323.162,456.612,323.162,456.612,323.162z"/>
	<path id="XMLID_42_" style="opacity:0.63;fill:#EA952F;" d="M481.041,338.265V330c0-9.584-4.574-18.117-11.648-23.543
		c-8.371,8.429-12.78,16.704-12.78,16.704s0,0,9.767,21.549c4.705,0.995,9.078,1.959,13.159,2.854
		C480.508,344.638,481.041,341.513,481.041,338.265z"/>
	<path id="XMLID_43_" style="fill:#FECB5B;" d="M505.446,295.753c9.494-0.854,15.862,8.527,19.576,20.034
		c-3.235-14.32-10.109-27.82-21.417-26.802c-30.274,2.724-46.993,34.177-46.993,34.177s0.004,0.009,2.525,5.57
		C462.538,322.982,478.696,298.16,505.446,295.753z"/>
	
		<path id="XMLID_16_" style="fill:none;stroke:#34323A;stroke-width:8;stroke-linecap:round;stroke-linejoin:round;stroke-miterlimit:10;" d="
		M456.612,323.162c0,0,16.719-31.453,46.993-34.177c22.254-2.003,27.346,52.227,21.295,58.278
		c-9.643,9.643-26.646,4.186-58.521-2.552C456.612,323.162,456.612,323.162,456.612,323.162z"/>
</g>
<path id="XMLID_56_" style="fill:none;stroke:#34323A;stroke-width:2;stroke-linecap:round;stroke-linejoin:round;stroke-miterlimit:10;" d="
	M469.485,326.903c0,0,11.749-10.353,25.112-12.4"/>
<path id="XMLID_62_" style="fill:none;stroke:#34323A;stroke-width:2;stroke-linecap:round;stroke-linejoin:round;stroke-miterlimit:10;" d="
	M471.079,326.384c0,0,14.758-5.237,27.923-2.164"/>
<g id="XMLID_18_">
	<path id="XMLID_24_" style="fill:#F7B45C;" d="M441.517,323.162c0,0-16.719-31.453-46.993-34.177
		c-22.255-2.003-27.346,52.227-21.295,58.278c9.643,9.643,26.646,4.186,58.521-2.552
		C441.517,323.162,441.517,323.162,441.517,323.162z"/>
	<path id="XMLID_40_" style="opacity:0.63;fill:#EA952F;" d="M421.718,330v8.265c0,2.899,0.426,5.7,1.205,8.35
		c2.809-0.615,5.746-1.253,8.826-1.904c9.767-21.549,9.767-21.549,9.767-21.549s-3.67-6.904-10.684-14.523
		C425.221,314.039,421.718,321.616,421.718,330z"/>
	<path id="XMLID_208_" style="fill:#FECB5B;" d="M393.275,296.753c25.42,2.287,41.278,24.821,45.711,31.992
		c2.526-5.573,2.53-5.583,2.53-5.583s-16.719-31.453-46.993-34.177c-13.823-1.244-21.022,19.205-23.045,36.33
		C374.537,310.363,381.505,295.694,393.275,296.753z"/>
	
		<path id="XMLID_21_" style="fill:none;stroke:#34323A;stroke-width:8;stroke-linecap:round;stroke-linejoin:round;stroke-miterlimit:10;" d="
		M441.517,323.162c0,0-16.719-31.453-46.993-34.177c-22.255-2.003-27.346,52.227-21.295,58.278
		c9.643,9.643,26.646,4.186,58.521-2.552C441.517,323.162,441.517,323.162,441.517,323.162z"/>
</g>
<path id="XMLID_58_" style="fill:none;stroke:#34323A;stroke-width:2;stroke-linecap:round;stroke-linejoin:round;stroke-miterlimit:10;" d="
	M404.946,326.178c0,0,15.557-1.789,27.696,4.162"/>
<path id="XMLID_64_" style="fill:none;stroke:#34323A;stroke-width:2;stroke-linecap:round;stroke-linejoin:round;stroke-miterlimit:10;" d="
	M408.204,315.187c0,0,15.245,3.578,24.656,13.284"/>
<rect id="XMLID_13_" x="363.546" y="530.526" style="fill:#FFCC66;" width="175.667" height="30"/>
<rect id="XMLID_27_" x="363.546" y="530.526" style="opacity:0.6;fill:#F7B45C;" width="12.627" height="30"/>
<rect id="XMLID_12_" x="363.546" y="530.526" style="fill:none;stroke:#34323A;stroke-width:8;stroke-linecap:round;stroke-linejoin:round;stroke-miterlimit:10;" width="175.667" height="30"/>
<path id="XMLID_15_" style="fill:#F7B45C;" d="M451.379,360.926L451.379,360.926c-12.515,0-22.661-10.146-22.661-22.661V330
	c0-12.515,10.146-22.661,22.661-22.661h0c12.515,0,22.661,10.146,22.661,22.661v8.265
	C474.041,350.78,463.895,360.926,451.379,360.926z"/>
<path id="XMLID_224_" style="fill:#FECB5B;" d="M451.379,307.339L451.379,307.339c-12.515,0-22.661,10.146-22.661,22.661v6.578
	c0-12.515,10.146-22.661,22.661-22.661h0c12.515,0,22.661,10.146,22.661,22.661V330
	C474.041,317.485,463.895,307.339,451.379,307.339z"/>
<path id="XMLID_14_" style="fill:none;stroke:#34323A;stroke-width:8;stroke-linecap:round;stroke-linejoin:round;stroke-miterlimit:10;" d="
	M451.379,360.926L451.379,360.926c-12.515,0-22.661-10.146-22.661-22.661V330c0-12.515,10.146-22.661,22.661-22.661h0
	c12.515,0,22.661,10.146,22.661,22.661v8.265C474.041,350.78,463.895,360.926,451.379,360.926z"/>
<line id="XMLID_31_" style="fill:none;stroke:#34323A;stroke-width:2;stroke-linecap:round;stroke-linejoin:round;stroke-miterlimit:10;" x1="445.537" y1="693.867" x2="445.537" y2="744.94"/>
<line id="XMLID_30_" style="fill:none;stroke:#34323A;stroke-width:2;stroke-linecap:round;stroke-linejoin:round;stroke-miterlimit:10;" x1="455.819" y1="387.877" x2="455.819" y2="406.342"/>
<line id="XMLID_67_" style="fill:none;stroke:#34323A;stroke-width:2;stroke-linecap:round;stroke-linejoin:round;stroke-miterlimit:10;" x1="451.379" y1="387.877" x2="451.379" y2="397.11"/>
<path id="XMLID_47_" style="fill:none;stroke:#34323A;stroke-width:2;stroke-linecap:round;stroke-linejoin:round;stroke-miterlimit:10;" d="
	M455.819,744.94"/>
<path id="XMLID_29_" style="fill:none;stroke:#34323A;stroke-width:2;stroke-linecap:round;stroke-linejoin:round;stroke-miterlimit:10;" d="
	M455.819,727.895"/>
<line id="XMLID_45_" style="fill:none;stroke:#34323A;stroke-width:2;stroke-linecap:round;stroke-linejoin:round;stroke-miterlimit:10;" x1="457.214" y1="720.231" x2="457.214" y2="744.94"/>
<line id="XMLID_59_" style="fill:none;stroke:#34323A;stroke-width:2;stroke-linecap:round;stroke-linejoin:round;stroke-miterlimit:10;" x1="363.546" y1="540.906" x2="376.173" y2="540.906"/>
<line id="XMLID_60_" style="fill:none;stroke:#34323A;stroke-width:2;stroke-linecap:round;stroke-linejoin:round;stroke-miterlimit:10;" x1="520.248" y1="549.822" x2="542.471" y2="549.822"/>
<line id="XMLID_61_" style="fill:none;stroke:#34323A;stroke-width:2;stroke-linecap:round;stroke-linejoin:round;stroke-miterlimit:10;" x1="505.841" y1="541.906" x2="538.367" y2="541.906"/>
<path id="XMLID_65_" style="fill:#6B9EC0;" d="M736.712,744.94H511.841c-3.314,0-6-2.686-6-6V620.284c0-3.314,2.686-6,6-6h224.872
	c3.314,0,6,2.686,6,6V738.94C742.712,742.254,740.026,744.94,736.712,744.94z"/>
<path id="XMLID_145_" style="fill:#5187A5;" d="M736.712,613.284h-214.25h-10.622h-6v6v2.436V743.94h16.622V635.929
	c0-4.534,3.676-8.21,8.21-8.21h206.04c3.314,0,6-2.686,6-6v-2.436C742.712,615.97,740.026,613.284,736.712,613.284z"/>
<g id="XMLID_97_" style="opacity:0.62;">
	<g id="XMLID_75_">
		<circle id="XMLID_73_" style="fill:#FFFFFF;" cx="522.463" cy="620.112" r="8.607"/>
		<circle id="XMLID_79_" style="fill:#FFFFFF;" cx="556.401" cy="620.112" r="8.607"/>
		<circle id="XMLID_85_" style="fill:#FFFFFF;" cx="590.339" cy="620.112" r="8.607"/>
		<circle id="XMLID_88_" style="fill:#FFFFFF;" cx="624.277" cy="620.112" r="8.607"/>
		<circle id="XMLID_90_" style="fill:#FFFFFF;" cx="658.215" cy="620.112" r="8.607"/>
		<circle id="XMLID_93_" style="fill:#FFFFFF;" cx="692.153" cy="620.112" r="8.607"/>
		<circle id="XMLID_95_" style="fill:#FFFFFF;" cx="726.091" cy="620.112" r="8.607"/>
	</g>
	<g id="XMLID_99_">
		<circle id="XMLID_106_" style="fill:#FFFFFF;" cx="539.432" cy="643.952" r="8.607"/>
		<circle id="XMLID_105_" style="fill:#FFFFFF;" cx="573.37" cy="643.952" r="8.607"/>
		<circle id="XMLID_104_" style="fill:#FFFFFF;" cx="607.308" cy="643.952" r="8.607"/>
		<circle id="XMLID_103_" style="fill:#FFFFFF;" cx="641.246" cy="643.952" r="8.607"/>
		<circle id="XMLID_102_" style="fill:#FFFFFF;" cx="675.184" cy="643.952" r="8.607"/>
		<circle id="XMLID_101_" style="fill:#FFFFFF;" cx="709.122" cy="643.952" r="8.607"/>
	</g>
	<g id="XMLID_113_">
		<circle id="XMLID_121_" style="fill:#FFFFFF;" cx="522.463" cy="668.321" r="8.607"/>
		<circle id="XMLID_120_" style="fill:#FFFFFF;" cx="556.401" cy="668.321" r="8.607"/>
		<circle id="XMLID_119_" style="fill:#FFFFFF;" cx="590.339" cy="668.321" r="8.607"/>
		<circle id="XMLID_117_" style="fill:#FFFFFF;" cx="624.277" cy="668.321" r="8.607"/>
		<circle id="XMLID_116_" style="fill:#FFFFFF;" cx="658.215" cy="668.321" r="8.607"/>
		<circle id="XMLID_115_" style="fill:#FFFFFF;" cx="692.153" cy="668.321" r="8.607"/>
		<circle id="XMLID_114_" style="fill:#FFFFFF;" cx="726.091" cy="668.321" r="8.607"/>
	</g>
	<g id="XMLID_100_">
		<circle id="XMLID_112_" style="fill:#FFFFFF;" cx="539.432" cy="692.16" r="8.607"/>
		<circle id="XMLID_111_" style="fill:#FFFFFF;" cx="573.37" cy="692.16" r="8.607"/>
		<circle id="XMLID_110_" style="fill:#FFFFFF;" cx="607.308" cy="692.16" r="8.607"/>
		<circle id="XMLID_109_" style="fill:#FFFFFF;" cx="641.246" cy="692.16" r="8.607"/>
		<circle id="XMLID_108_" style="fill:#FFFFFF;" cx="675.184" cy="692.16" r="8.607"/>
		<circle id="XMLID_107_" style="fill:#FFFFFF;" cx="709.122" cy="692.16" r="8.607"/>
	</g>
	<g id="XMLID_134_">
		<circle id="XMLID_141_" style="fill:#FFFFFF;" cx="522.463" cy="715.272" r="8.607"/>
		<circle id="XMLID_140_" style="fill:#FFFFFF;" cx="556.401" cy="715.272" r="8.607"/>
		<circle id="XMLID_139_" style="fill:#FFFFFF;" cx="590.339" cy="715.272" r="8.607"/>
		<circle id="XMLID_138_" style="fill:#FFFFFF;" cx="624.277" cy="715.272" r="8.607"/>
		<circle id="XMLID_137_" style="fill:#FFFFFF;" cx="658.215" cy="715.272" r="8.607"/>
		<circle id="XMLID_136_" style="fill:#FFFFFF;" cx="692.153" cy="715.272" r="8.607"/>
		<circle id="XMLID_135_" style="fill:#FFFFFF;" cx="726.091" cy="715.272" r="8.607"/>
	</g>
	<g id="XMLID_122_">
		<circle id="XMLID_133_" style="fill:#FFFFFF;" cx="539.432" cy="739.111" r="8.607"/>
		<circle id="XMLID_132_" style="fill:#FFFFFF;" cx="573.37" cy="739.111" r="8.607"/>
		<circle id="XMLID_131_" style="fill:#FFFFFF;" cx="607.308" cy="739.111" r="8.607"/>
		<circle id="XMLID_130_" style="fill:#FFFFFF;" cx="641.246" cy="739.111" r="8.607"/>
		<circle id="XMLID_129_" style="fill:#FFFFFF;" cx="675.184" cy="739.111" r="8.607"/>
		<circle id="XMLID_123_" style="fill:#FFFFFF;" cx="709.122" cy="739.111" r="8.607"/>
	</g>
</g>
<path id="XMLID_63_" style="fill:none;stroke:#34323A;stroke-width:12;stroke-linecap:round;stroke-linejoin:round;stroke-miterlimit:10;" d="
	M736.712,744.94H511.841c-3.314,0-6-2.686-6-6V620.284c0-3.314,2.686-6,6-6h224.872c3.314,0,6,2.686,6,6V738.94
	C742.712,742.254,740.026,744.94,736.712,744.94z"/>
<rect id="XMLID_143_" x="577.864" y="467.801" style="fill:#EF4C4E;" width="146.374" height="146.483"/>
<g id="XMLID_183_">
	<g>
		<rect id="XMLID_372_" x="654.973" y="469.313" style="fill:#DD3A43;" width="12.151" height="142.192"/>
		<rect id="XMLID_371_" x="579.528" y="469.313" style="fill:#DD3A43;" width="144.185" height="7.974"/>
		<rect id="XMLID_370_" x="579.528" y="551.097" style="fill:#DD3A43;" width="144.185" height="7.974"/>
		<rect id="XMLID_369_" x="579.528" y="473.3" style="fill:#DD3A43;" width="8.075" height="138.205"/>
	</g>
</g>
<rect id="XMLID_146_" x="641.051" y="467.665" style="fill:#EEF2FA;" width="20" height="146.483"/>
<rect id="XMLID_144_" x="641.051" y="467.665" style="fill:none;stroke:#34323A;stroke-width:6;stroke-linecap:round;stroke-linejoin:round;stroke-miterlimit:10;" width="20" height="146.483"/>
<rect id="XMLID_148_" x="640.525" y="469.371" transform="matrix(3.801652e-11 1 -1 3.801652e-11 1193.0831 -107.9678)" style="fill:#EEF2FA;" width="20" height="146.374"/>
<rect id="XMLID_147_" x="640.525" y="469.371" transform="matrix(3.801652e-11 1 -1 3.801652e-11 1193.0831 -107.9678)" style="fill:none;stroke:#34323A;stroke-width:6;stroke-linecap:round;stroke-linejoin:round;stroke-miterlimit:10;" width="20" height="146.374"/>
<rect id="XMLID_142_" x="577.864" y="467.801" style="fill:none;stroke:#34323A;stroke-width:12;stroke-linecap:round;stroke-linejoin:round;stroke-miterlimit:10;" width="146.374" height="146.483"/>
<path id="XMLID_150_" style="fill:#FFFFFF;" d="M635.091,465.367c0-8.094,6.562-14.656,14.656-14.656s14.656,6.562,14.656,14.656
	H635.091z"/>
<path id="XMLID_149_" style="fill:none;stroke:#34323A;stroke-width:6;stroke-linecap:round;stroke-linejoin:round;stroke-miterlimit:10;" d="
	M635.091,465.367c0-8.094,6.562-14.656,14.656-14.656s14.656,6.562,14.656,14.656H635.091z"/>
<line id="XMLID_157_" style="fill:none;stroke:#34323A;stroke-width:2;stroke-linecap:round;stroke-linejoin:round;stroke-miterlimit:10;" x1="661.147" y1="582.141" x2="661.147" y2="614.284"/>
<line id="XMLID_161_" style="fill:none;stroke:#34323A;stroke-width:2;stroke-linecap:round;stroke-linejoin:round;stroke-miterlimit:10;" x1="666.822" y1="598.212" x2="666.822" y2="614.284"/>
<line id="XMLID_164_" style="fill:none;stroke:#34323A;stroke-width:2;stroke-linecap:round;stroke-linejoin:round;stroke-miterlimit:10;" x1="699.755" y1="542.558" x2="724.238" y2="542.558"/>
<line id="XMLID_167_" style="fill:none;stroke:#34323A;stroke-width:2;stroke-linecap:round;stroke-linejoin:round;stroke-miterlimit:10;" x1="592.528" y1="540.906" x2="607.308" y2="540.906"/>
<path id="XMLID_172_" style="fill:none;stroke:#34323A;stroke-width:2;stroke-linecap:round;stroke-linejoin:round;stroke-miterlimit:10;" d="
	M662.051,456.531c0,0,2.236-4.214,10.146-8.428"/>
<path id="XMLID_173_" style="fill:none;stroke:#34323A;stroke-width:2;stroke-linecap:round;stroke-linejoin:round;stroke-miterlimit:10;" d="
	M661.051,461.392c0,0,12.843-8.913,25.685-9.075"/>
<g id="XMLID_265_">
	<g id="XMLID_258_">
		
			<rect id="XMLID_78_" x="811.902" y="655.107" transform="matrix(0.8694 0.4941 -0.4941 0.8694 435.682 -317.441)" style="fill:none;stroke:#34323A;stroke-width:12;stroke-linecap:round;stroke-linejoin:round;stroke-miterlimit:10;" width="12.817" height="20.61"/>
		<circle id="XMLID_33_" style="fill:#EF4C4E;" cx="795.077" cy="706.289" r="37.837"/>
		<path id="XMLID_272_" style="fill:#FF8D93;" d="M767.255,697.419c10.326-18.167,33.424-24.524,51.591-14.199
			c4.896,2.783,8.926,6.499,12.011,10.791c-2.887-8.424-8.734-15.872-17.084-20.618c-18.167-10.326-41.266-3.969-51.591,14.199
			c-7.543,13.271-6.175,29.168,2.187,40.8C760.976,718.49,761.676,707.236,767.255,697.419z"/>
		
			<circle id="XMLID_4_" style="fill:none;stroke:#34323A;stroke-width:12;stroke-linecap:round;stroke-linejoin:round;stroke-miterlimit:10;" cx="795.077" cy="706.289" r="37.837"/>
		
			<line id="XMLID_263_" style="fill:none;stroke:#34323A;stroke-width:12;stroke-linecap:round;stroke-linejoin:round;stroke-miterlimit:10;" x1="809.915" y1="648.788" x2="836.02" y2="663.625"/>
		
			<ellipse id="XMLID_262_" transform="matrix(0.874 -0.4859 0.4859 0.874 -234.1817 473.7899)" style="fill:#FFFFFF;" cx="796.483" cy="688.45" rx="7.323" ry="4.636"/>
		
			<ellipse id="XMLID_264_" transform="matrix(0.4941 -0.8694 0.8694 0.4941 -207.9043 1032.8418)" style="fill:#FFFFFF;" cx="783.569" cy="695.073" rx="2.802" ry="2.461"/>
	</g>
	<g id="XMLID_260_">
		<g id="XMLID_76_">
			<circle id="XMLID_44_" style="fill:#FECB5B;" cx="777.207" cy="694.68" r="7.298"/>
			
				<circle id="XMLID_35_" style="fill:none;stroke:#34323A;stroke-width:6;stroke-linecap:round;stroke-linejoin:round;stroke-miterlimit:10;" cx="777.207" cy="694.68" r="7.298"/>
		</g>
		<g id="XMLID_220_">
			<circle id="XMLID_255_" style="fill:#FECB5B;" cx="792.172" cy="711.581" r="7.298"/>
			
				<circle id="XMLID_227_" style="fill:none;stroke:#34323A;stroke-width:6;stroke-linecap:round;stroke-linejoin:round;stroke-miterlimit:10;" cx="792.172" cy="711.581" r="7.298"/>
		</g>
		<g id="XMLID_257_">
			<circle id="XMLID_261_" style="fill:#FECB5B;" cx="813.358" cy="717.176" r="7.298"/>
			
				<circle id="XMLID_259_" style="fill:none;stroke:#34323A;stroke-width:6;stroke-linecap:round;stroke-linejoin:round;stroke-miterlimit:10;" cx="813.358" cy="717.176" r="7.298"/>
		</g>
	</g>
	
		<ellipse id="XMLID_290_" style="fill:none;stroke:#34323A;stroke-width:12;stroke-linecap:round;stroke-linejoin:round;stroke-miterlimit:10;" cx="823.195" cy="656.287" rx="5.537" ry="4.494"/>
</g>
</svg>
