<?xml version="1.0" encoding="iso-8859-1"?>
<!-- Generator: Adobe Illustrator 23.0.2, SVG Export Plug-In . SVG Version: 6.00 Build 0)  -->
<svg version="1.1" id="Layer_1" xmlns="http://www.w3.org/2000/svg" xmlns:xlink="http://www.w3.org/1999/xlink" x="0px" y="0px"
	 viewBox="0 0 1000 1000" style="enable-background:new 0 0 1000 1000;" xml:space="preserve">
<g id="XMLID_243_">
	<circle id="XMLID_178_" style="fill:#9D9FFF;" cx="510.327" cy="509.287" r="258.578"/>
	
		<circle id="XMLID_173_" style="fill:none;stroke:#000000;stroke-width:12;stroke-linecap:round;stroke-linejoin:round;stroke-miterlimit:10;" cx="510.327" cy="509.287" r="258.578"/>
	<defs>
		<filter id="Adobe_OpacityMaskFilter" filterUnits="userSpaceOnUse" x="249.715" y="201.904" width="506.55" height="593.49">
			<feColorMatrix  type="matrix" values="1 0 0 0 0  0 1 0 0 0  0 0 1 0 0  0 0 0 1 0"/>
		</filter>
	</defs>
	<mask maskUnits="userSpaceOnUse" x="249.715" y="201.904" width="506.55" height="593.49" id="XMLID_2_">
		<g id="XMLID_177_" style="filter:url(#Adobe_OpacityMaskFilter);">
			<path id="XMLID_174_" style="fill:#FFFFFF;" d="M768.905,509.287c0,142.809-115.769,258.578-258.578,258.578
				S251.749,652.096,251.749,509.287s169.255-332.949,312.064-332.949S768.905,366.479,768.905,509.287z"/>
		</g>
	</mask>
	<g id="XMLID_176_" style="mask:url(#XMLID_2_);">
		<g id="XMLID_172_">
			<ellipse id="XMLID_206_" style="fill:#EF2020;" cx="506.126" cy="593.036" rx="184.397" ry="196.358"/>
			<path id="XMLID_205_" style="fill:#AF1B1B;" d="M597.315,422.338c40.88,36.016,66.928,90.449,66.928,151.361
				c0,108.446-82.558,196.358-184.397,196.358c-33.172,0-64.295-9.334-91.189-25.66c31.901,28.105,72.832,44.997,117.47,44.997
				c101.84,0,184.397-87.913,184.397-196.358C690.523,519.914,652.986,456.134,597.315,422.338z"/>
			<path id="XMLID_204_" style="fill:#AF1B1B;" d="M655.544,497.958c-0.414-5.709-1.287-11.417-2.561-17.031
				c-32.212-47.958-83.674-79.011-141.662-79.011c-59.75,0-112.567,32.972-144.54,83.433c-0.781,4.142-1.344,8.32-1.656,12.5
				c-1.797,24.111,4.579,45.563,17.955,60.425c19.89,22.849,42.96,39.346,63.316,53.903c20.705,14.806,40.262,28.791,52.511,46.587
				l11.413,16.581l11.412-16.581c12.249-17.796,31.806-31.781,52.511-46.587c20.356-14.557,43.424-31.053,63.314-53.901
				C650.903,543.448,657.291,522.033,655.544,497.958z"/>
			
				<ellipse id="XMLID_203_" style="fill:none;stroke:#000000;stroke-width:12;stroke-linecap:round;stroke-linejoin:round;stroke-miterlimit:10;" cx="506.126" cy="593.036" rx="184.397" ry="196.358"/>
			<path id="XMLID_202_" style="fill:#EF2020;" d="M421.137,307.486c-0.002-21.485,32.208-100.656,119.458-99.57
				c61.017,0.759,100.131,51.86,103.492,73.609c-37.034-8.3-47.302,27.729-47.302,27.729S510.639,289.644,421.137,307.486z"/>
			<path id="XMLID_201_" style="fill:#AF1B1B;" d="M510.234,300.07c50.104,0.891,86.551,9.183,86.551,9.183
				s10.269-36.029,47.302-27.729c-0.495-3.2-1.769-7.04-3.768-11.257c-12.05-4.994-25.59-8.162-40.43-8.347
				C558.343,261.404,529.285,279.086,510.234,300.07z"/>
			
				<path id="XMLID_200_" style="fill:none;stroke:#000000;stroke-width:12;stroke-linecap:round;stroke-linejoin:round;stroke-miterlimit:10;" d="
				M421.137,307.486c-0.002-21.485,32.208-100.656,119.458-99.57c61.017,0.759,100.131,51.86,103.492,73.609
				c-37.034-8.3-47.302,27.729-47.302,27.729S510.639,289.644,421.137,307.486z"/>
			<circle id="XMLID_199_" style="fill:#EA7E4E;" cx="596.785" cy="363.258" r="23.455"/>
			<circle id="XMLID_198_" style="fill:#D36B42;" cx="596.785" cy="363.258" r="23.455"/>
			
				<circle id="XMLID_197_" style="fill:none;stroke:#000000;stroke-width:12;stroke-linecap:round;stroke-linejoin:round;stroke-miterlimit:10;" cx="596.785" cy="363.258" r="23.455"/>
			<circle id="XMLID_196_" style="fill:#EA7E4E;" cx="413.393" cy="363.258" r="23.455"/>
			
				<circle id="XMLID_195_" style="fill:none;stroke:#000000;stroke-width:12;stroke-linecap:round;stroke-linejoin:round;stroke-miterlimit:10;" cx="413.393" cy="363.258" r="23.455"/>
			<g id="XMLID_191_">
				<path id="XMLID_194_" style="fill:#EA7E4E;" d="M591.906,362.185c0,64.611-33.991,124.322-86.817,124.322
					s-86.817-59.711-86.817-124.322s33.991-71.939,86.817-71.939S591.906,297.574,591.906,362.185z"/>
				<path id="XMLID_193_" style="fill:#D36B42;" d="M505.089,290.246c-44.633,0-75.819,5.234-84.419,45.826
					c1.061-0.07,2.262-0.258,3.544-0.648c0.473,0.048,0.926,0.069,1.354,0.069c0.707,0,1.408-0.058,2.096-0.171
					c0.207,0.002,0.415,0.003,0.623,0.003c0.608,0,1.216-0.009,1.826-0.027l0.302-0.009c0.963,0.191,2.405,0.447,4.103,0.447
					c3.02,0,5.839-0.778,8.329-2.278l0,0c0.746-0.032,1.727-0.064,2.823-0.172l5.917-0.581l0.162-0.241
					c1.283-0.093,2.535-0.346,3.744-0.758c0.679,0.101,1.404,0.162,2.172,0.162h0.003c2.184-0.001,4.327-0.506,6.277-1.46
					c0.5,0.077,1.025,0.132,1.574,0.16l5.775,0.286l0.827-0.873l1.704-0.057c1.761-0.059,3.247-0.343,4.4-0.59l0.59,0.217
					l2.634-0.162c1.177-0.073,2.353-0.14,3.529-0.202l1.61-0.085c0.319,0.024,0.648,0.036,0.983,0.036
					c0.796,0,1.588-0.072,2.366-0.213l2.608-0.138l0.02-0.043c0.582,0.056,1.219,0.095,1.9,0.094c0.929,0,1.854-0.072,2.748-0.213
					l1.496-0.237c0.973,0.119,2.296,0.278,3.84,0.278l5.138-0.006c0.519,0.057,1.06,0.089,1.623,0.089
					c1.215,0,2.427-0.15,3.599-0.447l0.304-0.077c1.78,0.613,3.678,0.923,5.654,0.923c1.032,0,1.925-0.083,2.538-0.144
					c1.031,0.044,2.063,0.093,3.094,0.145l2.228,0.113l1.175-0.364l0.876,0.668l4.101,0.086c2.522,0.053,4.384,0.192,6.004,0.452
					c2.353,0.461,4.52,0.605,6.274,0.72c0.886,0.058,1.724,0.114,2.405,0.199l0.15,0.017c0.465,0.053,0.941,0.087,1.438,0.104
					l9.945,5.241l1.634-3.648l0.53,0.09l3.341,3.784l4.219-2.084c0.95,0.213,2.005,0.352,3.15,0.352
					c0.259,0,0.517-0.007,0.773-0.021c0.432,0.193-1.417-0.867-0.773,0.021c3.845,5.307,6.527,11.536,6.723,18.087
					c0.368,12.262-4.164,21.136-8.985,23.872c-5.601,3.179-20.314,3.073-29.113,1.726c14.139,13.22,40.401,18.22,45.305,14.83
					c7.952-5.498,6.469-25.404,5.428-44.894C582.438,308.788,549.365,290.246,505.089,290.246z"/>
				
					<path id="XMLID_192_" style="fill:none;stroke:#000000;stroke-width:12;stroke-linecap:round;stroke-linejoin:round;stroke-miterlimit:10;" d="
					M591.906,362.185c0,64.611-33.991,124.322-86.817,124.322s-86.817-59.711-86.817-124.322s33.991-71.939,86.817-71.939
					S591.906,297.574,591.906,362.185z"/>
			</g>
			<g id="XMLID_185_">
				<path id="XMLID_188_" style="fill:#FFFFFF;" d="M572.93,321.965c-44.77-7.841-90.913-7.841-135.682,0
					c-12.184,2.116-26.912,0.35-30.418-9.956c-0.644-1.984,17.479-15,30.018-19.667c45.034-16.811,91.449-16.811,136.482,0
					c12.539,4.666,30.662,17.683,30.018,19.667C599.842,322.315,585.113,324.081,572.93,321.965z"/>
				<path id="XMLID_187_" style="fill:#BFBFBF;" d="M586.862,299.864c-3.618-2.507-8.552-0.289-9.181,4.068
					c-0.338,2.345-1.052,4.061-4.751,3.419c-44.77-7.841-99.261-10.362-147.389,3.944c-7.736,2.3-5.279-2.837-11.572-6.058
					c-4.446,3.232-7.407,5.95-7.14,6.773c3.506,10.307,18.235,12.073,30.418,9.956c44.77-7.841,90.913-7.841,135.682,0
					c12.183,2.116,26.912,0.35,30.418-9.956C603.547,311.397,593.735,304.625,586.862,299.864z"/>
				
					<path id="XMLID_186_" style="fill:none;stroke:#000000;stroke-width:12;stroke-linecap:round;stroke-linejoin:round;stroke-miterlimit:10;" d="
					M572.93,321.965c-1.756,1.34-3.513-1.755-5.273-0.886c-1.76-1.993-3.521-2.422-5.285-0.814
					c-1.763-0.298-3.529-1.995-5.296-0.742c-1.325,0.065-2.651-3.469-3.978-0.509c-1.327-0.699-2.655-0.319-3.983-0.468
					c-2.657-0.331-5.317-0.266-7.98-0.814c-2.663-0.446-5.328-0.595-7.995-0.651c-2.667-2.034-5.336-1.317-8.006-0.488
					c-1.335-0.068-2.671-0.129-4.007-0.183c-1.336,0.08-2.672,0.399-4.008-0.142c-2.43-1.998-4.86-2.582-7.291-0.155
					c-2.431,0.614-4.862-3.525-7.292-0.02c-2.431,0.003-4.861-0.928-7.291,0.114c-2.43,0.385-4.86-1.315-7.288,0.249
					c-1.214,0.718-2.428-2.45-3.642,0.175c-1.214,0.064-2.427,0.133-3.64,0.209c-2.426-0.892-4.851,0.437-7.274,0.518
					c-2.423-1.927-4.844-1.901-7.263,0.653c-2.419-0.119-4.835-3.661-7.249,0.787c-2.414,2.136-4.825-3.561-7.233,0.922
					c-2.408,1.087-4.813-2.535-7.215,1.056c-2.402,0.236-4.8-0.063-7.194,1.191c-2.437,2.52-4.975,0.195-7.505,0.767
					c-1.265,0.038-2.528,0.027-3.775-0.036c-1.247,1.479-2.478-4.979-3.68-0.353c-2.403,2.167-4.688,1.264-6.745-1.768
					c-2.056,0.161-3.884-0.173-5.373-3.37c-1.489,0.285-2.639-3.184-3.34-5.196c-0.129-1.081,0.493-0.793,1.671-2.359
					c1.178-1.982,2.911-2.616,5.006-4.077c2.095-4.023,4.55-4.793,7.172-4.864c1.311-1.759,2.664-1.643,4.033-2.436
					c1.37-0.793,2.757-1.561,4.137-2.284c2.76-3.708,5.491-2.169,7.999-3.647c2.502,1.002,5.008,2.923,7.518-2.646
					c2.51,0.406,5.024-5.099,7.541-2.335c2.517,3.32,5.037-3.348,7.561-2.024c2.523,0.418,5.049-5.173,7.578-1.712
					c2.528,3.888,5.059-2.423,7.592-1.401c2.533-5.815,5.067-1.03,7.603-1.09c2.536,3.422,5.073-5.209,7.612-0.778
					c2.538-3.179,5.078-1.976,7.617-0.467c2.54,2.85,5.08-2.668,7.62-0.156c2.54,3.674,5.08,1.205,7.62,0.156
					c2.54-1.933,5.079-0.873,7.617,0.467c2.538-1.681,5.076,4.027,7.612,0.778c2.536,0.685,5.07-0.825,7.603,1.09
					c2.533,1.797,5.063,0.836,7.592,1.401c2.528,1.41,5.054,2.965,7.578,1.712c2.523-1.34,5.043,1.15,7.56,2.024
					c2.517-0.372,5.031,5.908,7.541,2.335c2.51-2.604,5.016,1.515,7.518,2.646c2.508-1.822,5.239,1.762,7.999,3.647
					c2.76,5.176,5.548,3.991,8.17,4.72c2.622,2.037,5.078,6.176,7.172,4.864c2.095,1.542,3.828,2.952,5.006,4.077
					c1.178,1.124,1.8,1.962,1.671,2.359c-0.701,2.061-1.851,3.781-3.34,5.196c-1.489,1.415-3.317,2.526-5.373,3.37
					c-2.056-0.641-4.341,2.324-6.744,1.768c-2.403-0.849-4.925,4.082-7.455,0.389C577.905,325.783,575.367,319.721,572.93,321.965z"
					/>
			</g>
			<path id="XMLID_184_" style="fill:#FFFFFF;" d="M684.462,296.011c0-0.384-0.102,4.513-0.298,4.229
				c-0.196-0.232-0.487,2.499-0.863,2.973c-0.377-4.77-0.84,4.126-1.382,2.481c-0.542,1.852-1.162,5.804-1.853,3.774
				c-0.691,1.044-1.453-0.24-2.277,2.492c-0.825,0.221-1.712,3.559-2.655,2.44c-0.943-2.044-1.941,2.508-2.986,1.853
				c-1.045,0.106-2.138,0.097-3.269,1.382c-1.132-0.805-2.303,2.286-3.506,0.863c-1.203,0.196-2.438,0.298-3.696,0.298
				c-2.517-2.835-4.938-0.953-7.202-1.162c-2.264,0.103-4.37-1.371-6.255-3.235c-1.885-3.491-3.55-4.519-4.933-4.933
				c-0.691,0.39-1.311-0.895-1.853-2.417c-0.542-2.012-1.005,0.334-1.382-3.838c-0.377-4.403-0.667,1.28-0.863-3.253
				c-0.196-0.889-0.298-1.815-0.298-3.949c0,0.173,0.102,0.446,0.298-3.848c0.196,3.253,0.487-2.105,0.863-3.355
				c0.377,3.986,0.84-7.302,1.382-3.269c0.542-0.432,1.162-5.597,1.853-2.986c0.691,2.6,1.453-0.427,2.278-2.655
				c0.825-1.383,1.712-3.21,2.655-2.277c0.943-3.373,1.941,1.361,2.986-1.853c1.045,0.659,2.138-0.569,3.269-1.382
				c1.132-0.621,2.303-1.797,3.506-0.97c1.203,2.509,2.438,3.781,3.696-0.192c1.258-2.387,2.493-0.133,3.696-0.306
				c1.203,2.609,2.374-1.085,3.506,1.468c1.132,0.253,2.224,1.346,3.269,0.712c1.045,0.961,2.043,0.692,2.986,2.523
				c0.943,3.528,1.83,6.453,2.655,2.278c0.825,3.455,1.586,3.391,2.277,2.655c0.921,3.147,1.717,0.331,2.368,4.046
				c0.326,1.279,0.615,1.645,0.866,2.074c0.251,0.429,0.464,0.92,0.636,2.448c0.172-1.109,0.304,2.576,0.392,2.969
				C684.417,293.12,684.462,299.823,684.462,296.011z"/>
			<g id="XMLID_181_">
				<path id="XMLID_183_" style="fill:#BFBFBF;" d="M684.329,294.091c-0.088-0.393-0.22-4.078-0.392-2.969
					c-0.172-1.528-0.385-2.019-0.636-2.448c-0.251-0.429-0.541-0.796-0.866-2.074c-0.651-3.715-1.447-0.899-2.368-4.046
					c-0.691,0.736-1.453,0.8-2.277-2.655c-0.825,4.176-1.712,1.251-2.655-2.277c-0.943-1.831-1.941-1.562-2.986-2.523
					c-0.329,0.2-0.664,0.218-1.003,0.155c0.222,0.408,0.413,0.939,0.569,2.328c0.172-1.109,0.303,2.576,0.392,2.969
					c0.052-0.575,0.089,1.537,0.111,2.568c0.015-0.463,0.023-0.752,0.023-0.648c0,1.557-0.008,1.36-0.023,0.648
					c-0.04,1.246-0.133,3.788-0.276,3.58c-0.196-0.232-0.487,2.499-0.863,2.973c-0.377-4.77-0.84,4.126-1.382,2.481
					c-0.542,1.852-1.162,5.804-1.853,3.774c-0.691,1.044-1.453-0.24-2.277,2.492c-0.825,0.221-1.712,3.559-2.655,2.44
					c-0.943-2.044-1.941,2.508-2.986,1.853c-1.045,0.106-2.138,0.097-3.269,1.382c-1.132-0.805-2.303,2.286-3.506,0.863
					c-1.203,0.196-2.438,0.298-3.696,0.298c-2.517-2.835-4.939-0.953-7.202-1.162c-0.734,0.033-1.449-0.113-2.148-0.37
					c0.367,3.445,0.813,1.406,1.33,3.327c0.542,1.522,1.162,2.807,1.853,2.417c1.382,0.414,3.047,1.442,4.932,4.933
					c1.885,1.864,3.991,3.337,6.255,3.235c2.264,0.208,4.685-1.673,7.202,1.162c1.258,0,2.493-0.102,3.696-0.298
					c1.203,1.422,2.374-1.668,3.506-0.863c1.132-1.284,2.224-1.276,3.269-1.382c1.045,0.655,2.043-3.897,2.986-1.853
					c0.943,1.119,1.83-2.219,2.655-2.44c0.825-2.732,1.586-1.448,2.277-2.492c0.691,2.03,1.311-1.921,1.853-3.774
					c0.542,1.645,1.005-7.251,1.382-2.481c0.377-0.474,0.667-3.205,0.863-2.973c0.143,0.208,0.236-2.334,0.276-3.58
					C684.418,295.628,684.381,293.517,684.329,294.091z"/>
				<path id="XMLID_182_" style="fill:#BFBFBF;" d="M684.462,296.011c0-0.104-0.008,0.186-0.023,0.649
					C684.455,297.37,684.462,297.567,684.462,296.011z"/>
			</g>
			
				<path id="XMLID_180_" style="fill:none;stroke:#000000;stroke-width:12;stroke-linecap:round;stroke-linejoin:round;stroke-miterlimit:10;" d="
				M684.462,296.011c0-0.384-0.102,4.513-0.298,4.229c-0.196-0.232-0.487,2.499-0.863,2.973c-0.377-4.77-0.84,4.126-1.382,2.481
				c-0.542,1.852-1.162,5.804-1.853,3.774c-0.691,1.044-1.453-0.24-2.277,2.492c-0.825,0.221-1.712,3.559-2.655,2.44
				c-0.943-2.044-1.941,2.508-2.986,1.853c-1.045,0.106-2.138,0.097-3.269,1.382c-1.132-0.805-2.303,2.286-3.506,0.863
				c-1.203,0.196-2.438,0.298-3.696,0.298c-2.517-2.835-4.938-0.953-7.202-1.162c-2.264,0.103-4.37-1.371-6.255-3.235
				c-1.885-3.491-3.55-4.519-4.933-4.933c-0.691,0.39-1.311-0.895-1.853-2.417c-0.542-2.012-1.005,0.334-1.382-3.838
				c-0.377-4.403-0.667,1.28-0.863-3.253c-0.196-0.889-0.298-1.815-0.298-3.949c0,0.173,0.102,0.446,0.298-3.848
				c0.196,3.253,0.487-2.105,0.863-3.355c0.377,3.986,0.84-7.302,1.382-3.269c0.542-0.432,1.162-5.597,1.853-2.986
				c0.691,2.6,1.453-0.427,2.278-2.655c0.825-1.383,1.712-3.21,2.655-2.277c0.943-3.373,1.941,1.361,2.986-1.853
				c1.045,0.659,2.138-0.569,3.269-1.382c1.132-0.621,2.303-1.797,3.506-0.97c1.203,2.509,2.438,3.781,3.696-0.192
				c1.258-2.387,2.493-0.133,3.696-0.306c1.203,2.609,2.374-1.085,3.506,1.468c1.132,0.253,2.224,1.346,3.269,0.712
				c1.045,0.961,2.043,0.692,2.986,2.523c0.943,3.528,1.83,6.453,2.655,2.278c0.825,3.455,1.586,3.391,2.277,2.655
				c0.921,3.147,1.717,0.331,2.368,4.046c0.326,1.279,0.615,1.645,0.866,2.074c0.251,0.429,0.464,0.92,0.636,2.448
				c0.172-1.109,0.304,2.576,0.392,2.969C684.417,293.12,684.462,299.823,684.462,296.011z"/>
			<path id="XMLID_171_" style="fill:#333333;" d="M348.768,695.44c6.16,10.71,13.254,20.743,21.166,29.968
				c39.417,13.057,86.351,20.641,136.739,20.641c49.741,0,96.112-7.393,135.211-20.145c7.924-9.176,15.035-19.156,21.219-29.814
				c-43.348,19.003-98.195,29.368-156.43,29.368C447.777,725.458,392.342,714.858,348.768,695.44z"/>
			
				<path id="XMLID_170_" style="fill:none;stroke:#000000;stroke-width:12;stroke-linecap:round;stroke-linejoin:round;stroke-miterlimit:10;" d="
				M348.768,695.44c6.16,10.71,13.254,20.743,21.166,29.968c39.417,13.057,86.351,20.641,136.739,20.641
				c49.741,0,96.112-7.393,135.211-20.145c7.924-9.176,15.035-19.156,21.219-29.814c-43.348,19.003-98.195,29.368-156.43,29.368
				C447.777,725.458,392.342,714.858,348.768,695.44z"/>
			<rect id="XMLID_169_" x="484.137" y="712.857" style="fill:#F2973D;" width="47.793" height="44.272"/>
			<path id="XMLID_168_" style="fill:#C67226;" d="M517.263,712.857v17.161c0,8.261-6.697,14.958-14.958,14.958h-18.167v12.153
				h47.793v-44.272H517.263z"/>
			
				<rect id="XMLID_167_" x="484.137" y="712.857" style="fill:none;stroke:#000000;stroke-width:12;stroke-linecap:round;stroke-linejoin:round;stroke-miterlimit:10;" width="47.793" height="44.272"/>
			<ellipse id="XMLID_166_" cx="507.091" cy="672.401" rx="7.643" ry="8.237"/>
			<ellipse id="XMLID_165_" style="fill:#333333;" cx="507.091" cy="672.401" rx="7.643" ry="8.237"/>
			
				<ellipse id="XMLID_164_" style="fill:none;stroke:#000000;stroke-width:12;stroke-linecap:round;stroke-linejoin:round;stroke-miterlimit:10;" cx="507.091" cy="672.401" rx="7.643" ry="8.237"/>
			<g id="XMLID_133_">
				
					<path id="XMLID_163_" style="fill:none;stroke:#000000;stroke-width:12;stroke-linecap:round;stroke-linejoin:round;stroke-miterlimit:10;" d="
					M348.025,689.129c-12.901-27.169-20.205-58.071-20.205-90.855c0-81.363,44.935-151.166,108.966-180.958
					c-31.09,10.401-59.536,27.841-83.327,51.52c-40.051,39.863-62.108,92.714-62.108,148.819c0,35.724,8.956,70.123,25.793,100.696
					C327.45,708.614,338.507,698.155,348.025,689.129z"/>
				<path id="XMLID_162_" style="fill:#EF2020;" d="M355.306,703.044c-17.405-30.32-27.485-66.246-27.485-104.77
					c0-81.363,44.935-151.166,108.966-180.958c-31.09,10.401-59.536,27.841-83.327,51.52
					c-40.051,39.863-62.108,92.714-62.108,148.819c0,40.369,11.42,79.052,32.745,112.426L355.306,703.044z"/>
				<path id="XMLID_161_" style="fill:#EF2020;" d="M355.306,703.044c-17.405-30.32-27.485-66.246-27.485-104.77
					c0-81.363,44.935-151.166,108.966-180.958c-31.09,10.401-59.536,27.841-83.327,51.52
					c-40.051,39.863-62.108,92.714-62.108,148.819c0,40.369,11.42,79.052,32.745,112.426L355.306,703.044z"/>
				<g id="XMLID_141_">
					<path id="XMLID_160_" style="fill:#AF1B1B;" d="M436.786,417.317c-15.039,5.031-29.451,11.725-43.026,19.96
						c8.506-4.25,17.289-7.919,26.295-11.003C425.468,422.982,431.049,419.986,436.786,417.317z"/>
					<path id="XMLID_142_" style="fill:#AF1B1B;" d="M418.727,427.089c-62.559,30.494-106.207,99.453-106.207,179.641
						c0,38.524,10.08,74.45,27.485,104.77l-17.857,15.471c0.64,1.042,1.29,2.079,1.95,3.111l31.209-27.037
						c-17.405-30.32-27.485-66.246-27.485-104.77C327.82,524.8,364.467,460.757,418.727,427.089z"/>
				</g>
				
					<path id="XMLID_140_" style="fill:none;stroke:#000000;stroke-width:12;stroke-linecap:round;stroke-linejoin:round;stroke-miterlimit:10;" d="
					M355.306,703.044c-17.405-30.32-27.485-66.246-27.485-104.77c0-81.363,44.935-151.166,108.966-180.958
					c-31.09,10.401-59.536,27.841-83.327,51.52c-40.051,39.863-62.108,92.714-62.108,148.819c0,40.369,11.42,79.052,32.745,112.426
					L355.306,703.044z"/>
				<path id="XMLID_139_" style="fill:#FFFFFF;" d="M335.948,729.386c0,0,0.285,13.015,10.883,31.511s56.85-2.875,52.933-28.496
					c-3.917-25.621-48.48-12.767-48.353-23.218S335.948,729.386,335.948,729.386z"/>
				<path id="XMLID_138_" style="fill:#EA7E4E;" d="M335.948,729.386c0,0,0.285,13.015,10.883,31.511s56.85-2.875,52.933-28.496
					c-3.917-25.621-48.48-12.767-48.353-23.218S335.948,729.386,335.948,729.386z"/>
				<path id="XMLID_137_" style="fill:#D36B42;" d="M344.604,726.778c-0.126,10.451,44.436-2.403,48.353,23.218
					c0.108,0.708,0.172,1.412,0.205,2.112c4.87-5.719,7.696-12.547,6.601-19.708c-3.917-25.621-48.479-12.767-48.353-23.218
					c0.126-10.451-15.463,20.203-15.463,20.203s0.034,1.548,0.513,4.334C340.491,727.019,344.67,721.346,344.604,726.778z"/>
				
					<path id="XMLID_136_" style="fill:none;stroke:#000000;stroke-width:12;stroke-linecap:round;stroke-linejoin:round;stroke-miterlimit:10;" d="
					M335.948,729.386c0,0,0.285,13.015,10.883,31.511s56.85-2.875,52.933-28.496c-3.917-25.621-48.48-12.767-48.353-23.218
					S335.948,729.386,335.948,729.386z"/>
				<path id="XMLID_135_" style="fill:#FFFFFF;" d="M363.87,692.88c-0.039-0.071-0.077-0.142-0.116-0.213
					c-2.448-4.486-7.161-6.625-11.673-6.016c-2.256,0.305-4.461,1.296-6.307,3.025c0-0.008-0.872-0.286-2.324,2.176
					c-1.453,3.712-3.486,3.092-5.81,5.44c-2.324,6.711-4.939-0.895-7.553,7.073c-2.615,3.663-5.229,6.603-7.553,7.073
					c-2.324,0.988-4.358,1.613-5.81,5.44c-1.453,3.166-2.324,2.961-2.324,2.176c-1.41,1.32-2.444,2.928-3.083,4.668
					c-1.277,3.481-0.971,7.495,1.084,10.805c0.599,0.964,1.205,1.924,1.819,2.88c1.373,2.137,3.268,3.652,5.375,4.516
					c2.108,0.865,4.428,1.079,6.653,0.616c2.225-0.166,4.354-6.571,6.078-3.448c1.642-3.986,3.307,0.178,4.984-5.331
					c1.677-1.477,3.367,0.665,5.058-5.411c1.692-4.668,3.386-13.199,5.072-5.425c1.686-8.987,3.364-3.403,5.024-5.373
					c1.66-0.472,3.301-6.709,4.914-5.255c1.613-2.806,3.197-3.419,4.743-5.071C365.723,703.375,366.422,697.543,363.87,692.88z"/>
				
					<path id="XMLID_134_" style="fill:none;stroke:#000000;stroke-width:12;stroke-linecap:round;stroke-linejoin:round;stroke-miterlimit:10;" d="
					M363.87,692.88c-0.039,0.073-0.077,3.391-0.116-0.213c-1.224-0.677-3.014-3.722-5.063-4.919
					c-2.048-1.967-4.355-1.242-6.61-1.097c-2.256,0.865-4.461,1.018-6.307,3.025c0-0.856-0.872-0.873-2.324,2.176
					c-0.726,3.131-1.598,1.751-2.578,3.044c-0.98,1.665-2.07-1.04-3.232,2.396c-0.581-1.516-1.18-0.071-1.793,1.775
					s-1.239,4.863-1.875,4.188c-0.635,1.73-1.28,2.14-1.929,2.424c-0.649,0.351-1.303,0.592-1.956-1.314
					c-1.307,0.368-2.615,0.007-3.886,0.618c-1.271,0.611-2.506,2.195-3.668,6.455c-1.162,2.173-2.251,2.972-3.232,3.508
					c-0.98,0.536-1.852,0.81-2.578,1.932c-1.453,1.898-2.324,3.006-2.324,2.176c-0.705,0.346-1.316,1.21-1.831,2.473
					c-0.515-0.941-0.933,5.895-1.252,2.195c-0.319,0.843-0.54,3.853-0.658,2.826c-0.119,1.196-0.136,2.232-0.049,2.641
					c0.087,2.209,0.278,3.618,0.576,2.118c0.298,4.525,0.702-2.607,1.216,3.22c0.299,0.44,0.601,0.243,0.904,0.06
					c0.303,2.382,0.608,1.644,0.915,2.82c0.686-1.407,1.503-6.188,2.412,0.31c0.454,2.52,0.932,1.378,1.427,0.745
					c0.495,1.816,1.009,1.773,1.536,3.461c1.054,0.904,2.161,0.697,3.283,0.327c1.122-1.476,2.258-1.411,3.37,0.289
					c1.112,1.163,2.201-1.92,3.227-1.445c1.026-0.934,1.989-3.287,2.852-2.003c0.547,0.912,1.097-3.077,1.649-1.764
					c0.552,2.169,1.106-2.53,1.662-1.778c0.556,1.697,1.114-0.676,1.673-1.928c0.559-0.193,1.119-2.719,1.681-1.659
					c0.561,2.211,1.124-0.992,1.687-0.869c0.563-2.033,1.127-2.481,1.691-2.744c0.846,4.24,1.692-1.883,2.538-2.816
					c0.846-1.048,1.691-2.194,2.534-2.608c0.422,1.888,0.842,1.126,1.263-0.145s0.84-3.055,1.259-3.21
					c0.838-2.539,1.672-3.591,2.502-2.017c0.83-2.977,1.655,0.167,2.475-2.632c0.819,1.185,1.633-1.311,2.44-2.623
					c0.806-0.289,1.606-1.716,2.397-2.224c0.791-0.956,1.574-2.016,2.346-2.847c1.201-1.881,2.079-1.294,2.622-4.395
					c0.543-1.712,0.75-1.406,0.609-5.016c-0.071-0.849-0.228-1.451-0.474-2.156C364.631,694.954,364.296,694.144,363.87,692.88z"/>
			</g>
			<g id="XMLID_120_">
				
					<path id="XMLID_132_" style="fill:none;stroke:#000000;stroke-width:12;stroke-linecap:round;stroke-linejoin:round;stroke-miterlimit:10;" d="
					M663.982,689.129c12.901-27.169,20.205-58.071,20.205-90.855c0-81.363-44.935-151.166-108.966-180.958
					c31.09,10.401,59.536,27.841,83.327,51.52c40.051,39.863,62.108,92.714,62.108,148.819c0,35.724-8.956,70.123-25.793,100.696
					C684.557,708.614,673.5,698.155,663.982,689.129z"/>
				<path id="XMLID_131_" style="fill:#EF2020;" d="M656.701,703.044c17.405-30.32,27.485-66.246,27.485-104.77
					c0-81.363-44.935-151.166-108.966-180.958c31.09,10.401,59.536,27.841,83.327,51.52c40.051,39.863,62.108,92.714,62.108,148.819
					c0,40.369-11.42,79.052-32.745,112.426L656.701,703.044z"/>
				<path id="XMLID_130_" style="fill:#AF1B1B;" d="M700.17,609.165c0-56.105-22.057-108.956-62.108-148.819
					c-17.463-17.381-37.441-31.385-59.124-41.726c-1.237-0.439-2.471-0.886-3.717-1.303
					c64.031,29.791,108.966,99.595,108.966,180.958c0,38.524-10.08,74.45-27.485,104.77l14.437,12.507
					C690.071,683.587,700.17,647.121,700.17,609.165z"/>
				
					<path id="XMLID_129_" style="fill:none;stroke:#000000;stroke-width:12;stroke-linecap:round;stroke-linejoin:round;stroke-miterlimit:10;" d="
					M656.701,703.044c17.405-30.32,27.485-66.246,27.485-104.77c0-81.363-44.935-151.166-108.966-180.958
					c31.09,10.401,59.536,27.841,83.327,51.52c40.051,39.863,62.108,92.714,62.108,148.819c0,40.369-11.42,79.052-32.745,112.426
					L656.701,703.044z"/>
				<path id="XMLID_128_" style="fill:#EA7E4E;" d="M676.059,729.386c0,0-0.285,13.015-10.883,31.511
					c-10.598,18.496-56.85-2.875-52.933-28.496s48.48-12.767,48.353-23.218C660.47,698.731,676.059,729.386,676.059,729.386z"/>
				<path id="XMLID_127_" style="fill:#D36B42;" d="M631.313,746.809c3.138-20.525,32.357-16.359,43.792-19.263
					c-3.383-6.455-14.617-27.243-14.509-18.363c0.126,10.451-44.436-2.403-48.353,23.218c-2.123,13.884,10.488,26.516,24.173,32.236
					C632.482,759.327,630.336,753.201,631.313,746.809z"/>
				
					<path id="XMLID_126_" style="fill:none;stroke:#000000;stroke-width:12;stroke-linecap:round;stroke-linejoin:round;stroke-miterlimit:10;" d="
					M676.059,729.386c0,0-0.285,13.015-10.883,31.511c-10.598,18.496-56.85-2.875-52.933-28.496s48.48-12.767,48.353-23.218
					C660.47,698.731,676.059,729.386,676.059,729.386z"/>
				<path id="XMLID_122_" style="fill:#FFFFFF;" d="M648.136,692.88c0.039-0.071,0.077-0.142,0.116-0.213
					c3.672-6.729,12.442-8.177,17.98-2.991l31.376,29.379c4.229,3.96,5.082,10.508,1.999,15.473
					c-0.599,0.964-1.205,1.924-1.819,2.88c-4.119,6.412-12.933,7.219-18.107,1.685c-9.852-10.539-20.521-21.95-29.795-31.865
					C646.284,703.375,645.584,697.543,648.136,692.88z"/>
				
					<path id="XMLID_121_" style="fill:none;stroke:#000000;stroke-width:12;stroke-linecap:round;stroke-linejoin:round;stroke-miterlimit:10;" d="
					M648.136,692.88c0.039-2.526,0.077-2.273,0.116-0.213c0.612,2.142,1.365-1.948,2.222-2.918c0.857,1.657,1.816,0.952,2.84-2
					c1.024-0.034,2.113-0.506,3.227-1.045c1.115-1.754,2.255-1.328,3.383-0.052c1.128,0.866,2.243,0.376,3.307,0.705
					c1.064,0.467,2.077,1.202,3,2.32c0-1.175,0.872-2.783,2.324,2.176c1.453,1.9,3.486,2.196,5.81,5.441
					c2.324-3.591,4.939,9.17,7.553,7.073c0.654,0.296,1.307,0.798,1.956,1.407s1.294,1.325,1.929,2.047
					c0.635,1.335,1.262,0.595,1.875,1.998c0.613-0.204,1.212,1.153,1.793,1.62c0.581-0.964,1.144-0.58,1.684,0.07
					c0.54,0.651,1.058,1.568,1.548,1.673c0.98,3.635,1.852,3.252,2.578,3.697c1.453,3.358,2.324,5.111,2.324,2.176
					c0.705-0.667,1.316,3.473,1.831,2.176c0.515,4.368,0.933,1.256,1.252,2.492c0.639,2.864,0.881,3.553,0.708,5.466
					c-0.174,0.487-0.764,1.571-1.792,5.338c-0.599,0.328-1.205,2.056-1.819,2.88c-1.373,2.137-3.268,3.652-5.375,4.516
					c-2.81,1.153-5.999,1.15-8.835-0.074c-1.418-0.612-2.747-1.425-3.897-2.758c-1.642-3.695-3.307-4.887-4.984-5.331
					c-1.677-5.524-3.367-0.55-5.058-5.411c-1.692-6.366-3.386-7.229-5.072-5.425c-1.686,0.551-3.364-3.982-5.024-5.373
					c-0.83,1.226-1.655-0.051-2.475-1.653c-0.819-0.201-1.633-2.644-2.44-3.602c-0.806-1.234-1.606-2.012-2.397-2.816
					c-0.791-0.342-1.574,2.716-2.346-2.255c-1.201,3.563-2.079-5.909-2.622-4.395c-0.543-6.604-0.75-2.252-0.609-5.016
					C646.796,698.638,647.286,693.378,648.136,692.88z"/>
			</g>
			<g id="XMLID_114_">
				<path id="XMLID_118_" style="fill:#FFFFFF;" d="M383.049,543.08c40.678,44.829,94.43,63.466,122.033,101.889
					c27.603-38.423,81.355-57.06,122.033-101.889c28.25-29.929,13.902-89.589-17.264-113.931
					c-32.158-24.58-69.687-40.297-104.768-40.34h0c-35.083,0.043-72.602,15.761-104.505,40.346
					C369.154,453.491,354.796,513.151,383.049,543.08z"/>
				<g id="XMLID_189_">
					
						<ellipse id="XMLID_115_" style="fill:none;stroke:#BFBFBF;stroke-width:12;stroke-miterlimit:10;" cx="509.126" cy="435.612" rx="22.488" ry="22.461"/>
					<path id="XMLID_216_" style="fill:none;stroke:#BFBFBF;stroke-width:12;stroke-miterlimit:10;" d="M589.067,408.392
						c-24.067-8.881-42.174-23.183-66.642-14.154c-10.753,3.968-21.689,33.585,15.236,47.04c23.381,8.52,43.362,5.533,60.467-4.14
						C585.083,427.297,578.937,418.62,589.067,408.392z"/>
					<path id="XMLID_215_" style="fill:none;stroke:#BFBFBF;stroke-width:12;stroke-miterlimit:10;" d="M501.828,394.238
						c-29.773-10.986-50.125,12.569-83.259,18.871c-1.901,5.057-7.926,1.834-9.841,6.326c15.282,19.725,48.093,32.69,77.863,21.843
						C523.517,427.824,512.581,398.206,501.828,394.238z"/>
				</g>
				<path id="XMLID_117_" style="fill:#BFBFBF;" d="M609.85,429.149c-32.158-24.58-69.687-40.297-104.768-40.34h0
					c-4.945,0.006-9.94,0.334-14.959,0.944c30.595,3.717,62.183,18.281,89.808,39.396c31.167,24.342,45.514,84.002,17.264,113.931
					c-34.224,37.716-86.868,65.392-96.493,95.793c5.539,5.284,0,0,4.379,6.096c27.603-38.423,81.355-57.061,122.033-101.889
					C655.364,513.151,641.017,453.491,609.85,429.149z"/>
				
					<path id="XMLID_116_" style="fill:none;stroke:#000000;stroke-width:12;stroke-linecap:round;stroke-linejoin:round;stroke-miterlimit:10;" d="
					M383.049,543.08c40.678,44.829,94.43,63.466,122.033,101.889c27.603-38.423,81.355-57.06,122.033-101.889
					c28.25-29.929,13.902-89.589-17.264-113.931c-32.158-24.58-69.687-40.297-104.768-40.34h0
					c-35.083,0.043-72.602,15.761-104.505,40.347C369.154,453.491,354.796,513.151,383.049,543.08z"/>
			</g>
			<ellipse id="XMLID_111_" cx="506.126" cy="423.612" rx="22.488" ry="22.461"/>
			
				<ellipse id="XMLID_110_" style="fill:none;stroke:#000000;stroke-width:12;stroke-linecap:round;stroke-linejoin:round;stroke-miterlimit:10;" cx="506.126" cy="423.612" rx="22.488" ry="22.461"/>
			<path id="XMLID_109_" style="fill:#FFFFFF;" d="M516.424,384.238c-10.753,3.968-21.689,33.585,15.237,47.04
				s65.381-1.765,87.399-26.748C573.604,406.47,551.586,371.264,516.424,384.238z"/>
			<path id="XMLID_108_" style="fill:#BFBFBF;" d="M594.229,401.898c-0.218,0.201-0.44,0.394-0.659,0.593
				c-10.88-3.993-21.489-4.572-43.736-17.232c11.353,9.918,25.499,20.44,33.863,24.523c1.524,0.744,1.735,2.828,0.424,3.904
				c-15.919,13.079-41.532,13.217-65.052,4.647c-4.089-1.49-7.562-3.187-10.504-5.027c3.32,6.77,10.361,13.332,23.095,17.972
				c36.926,13.455,65.381-1.765,87.399-26.748C609.937,404.92,601.76,403.811,594.229,401.898z"/>
			
				<path id="XMLID_107_" style="fill:none;stroke:#000000;stroke-width:12;stroke-linecap:round;stroke-linejoin:round;stroke-miterlimit:10;" d="
				M516.424,384.238c-10.753,3.968-21.689,33.585,15.237,47.04s65.381-1.765,87.399-26.748
				C573.604,406.47,551.586,371.264,516.424,384.238z"/>
			<path id="XMLID_106_" style="fill:#FFFFFF;" d="M495.828,384.238c10.753,3.968,21.689,33.585-15.237,47.04
				s-65.381-1.765-87.399-26.748C438.648,406.47,460.667,371.264,495.828,384.238z"/>
			<path id="XMLID_105_" style="fill:#BFBFBF;" d="M495.828,384.238c-11.504-4.245-21.6-3.331-31.571-0.25
				c5.402-0.114,11.013,0.549,17.044,2.385c10.461,3.186,21.424,26.091-14.158,35.967c-23.708,6.58-43.931,3.415-61.191-5.188
				c19.968,16.968,44.477,25.116,74.64,14.125C517.517,417.824,506.581,388.206,495.828,384.238z"/>
			
				<path id="XMLID_104_" style="fill:none;stroke:#000000;stroke-width:12;stroke-linecap:round;stroke-linejoin:round;stroke-miterlimit:10;" d="
				M495.828,384.238c10.753,3.968,21.689,33.585-15.237,47.04s-65.381-1.765-87.399-26.748
				C438.648,406.47,460.667,371.264,495.828,384.238z"/>
			<path id="XMLID_101_" style="fill:#EA7E4E;" d="M502.239,354.866c0,0-23.348,31.704,2.85,38.301
				c5.571,1.403,16.484-5.571,15.662-13.494"/>
			
				<path id="XMLID_99_" style="fill:none;stroke:#000000;stroke-width:12;stroke-linecap:round;stroke-linejoin:round;stroke-miterlimit:10;" d="
				M502.239,354.866c0,0-23.348,31.704,2.85,38.301c5.571,1.403,16.484-5.571,15.662-13.494"/>
			
				<path id="XMLID_96_" style="fill:none;stroke:#000000;stroke-width:12;stroke-linecap:round;stroke-linejoin:round;stroke-miterlimit:10;" d="
				M466.227,567.834"/>
			
				<path id="XMLID_95_" style="fill:none;stroke:#000000;stroke-width:12;stroke-linecap:round;stroke-linejoin:round;stroke-miterlimit:10;" d="
				M449.659,543.116"/>
			<g id="XMLID_98_">
				
					<path id="XMLID_97_" style="fill:none;stroke:#000000;stroke-width:6;stroke-linecap:round;stroke-linejoin:round;stroke-miterlimit:10;" d="
					M528.119,337.968c0,0,15.349-4.507,28.097,0"/>
				<ellipse id="XMLID_245_" style="fill:#FFFFFF;" cx="535.31" cy="357.886" rx="13.146" ry="13.471"/>
				<ellipse id="XMLID_246_" cx="533.982" cy="362.21" rx="5.367" ry="5.5"/>
				
					<ellipse id="XMLID_190_" style="fill:none;stroke:#000000;stroke-width:6;stroke-linecap:round;stroke-linejoin:round;stroke-miterlimit:10;" cx="535.31" cy="357.886" rx="13.146" ry="13.471"/>
			</g>
			<g id="XMLID_248_">
				
					<path id="XMLID_253_" style="fill:none;stroke:#000000;stroke-width:6;stroke-linecap:round;stroke-linejoin:round;stroke-miterlimit:10;" d="
					M482.045,337.968c0,0-15.349-4.507-28.097,0"/>
				<ellipse id="XMLID_252_" style="fill:#FFFFFF;" cx="474.853" cy="357.886" rx="13.146" ry="13.471"/>
				<ellipse id="XMLID_251_" cx="476.182" cy="362.21" rx="5.367" ry="5.5"/>
				
					<ellipse id="XMLID_249_" style="fill:none;stroke:#000000;stroke-width:6;stroke-linecap:round;stroke-linejoin:round;stroke-miterlimit:10;" cx="474.853" cy="357.886" rx="13.146" ry="13.471"/>
			</g>
		</g>
		
			<path id="XMLID_175_" style="fill:none;stroke:#000000;stroke-width:12;stroke-linecap:round;stroke-linejoin:round;stroke-miterlimit:10;" d="
			M750.265,605.868c-38.263,94.968-131.273,161.997-239.938,161.997c-127.333,0-233.17-92.038-254.612-213.217"/>
	</g>
	<defs>
		<filter id="Adobe_OpacityMaskFilter_1_" filterUnits="userSpaceOnUse" x="569.22" y="411.317" width="157.435" height="369.274">
			<feColorMatrix  type="matrix" values="1 0 0 0 0  0 1 0 0 0  0 0 1 0 0  0 0 0 1 0"/>
		</filter>
	</defs>
	<mask maskUnits="userSpaceOnUse" x="569.22" y="411.317" width="157.435" height="369.274" id="XMLID_3_">
		<g id="XMLID_242_" style="filter:url(#Adobe_OpacityMaskFilter_1_);">
			<path id="XMLID_241_" style="fill:#FFFFFF;" d="M697.029,455.453l-59.334,110.981c0,0-67.987,139.438-67.987,163.125
				s0.48,51.586,16.773,59.835c16.293,8.248,122.843,12.347,125.575,9.615s41.664-46.562,49.177-78.264
				c7.513-31.701,19.807-89.457,15.026-114.879c-4.781-25.422-4.098-49.327-14.343-73.916
				C751.671,507.362,697.029,455.453,697.029,455.453z"/>
		</g>
	</mask>
	<g id="XMLID_179_" style="mask:url(#XMLID_3_);">
		
			<path id="XMLID_240_" style="fill:none;stroke:#000000;stroke-width:12;stroke-linecap:round;stroke-linejoin:round;stroke-miterlimit:10;" d="
			M663.982,689.129c12.901-27.169,20.205-58.071,20.205-90.855c0-81.363-44.935-151.166-108.966-180.958
			c31.09,10.401,59.536,27.841,83.327,51.52c40.051,39.863,62.108,92.714,62.108,148.819c0,35.724-8.956,70.123-25.793,100.696
			C684.557,708.614,673.5,698.155,663.982,689.129z"/>
		<path id="XMLID_214_" style="fill:#EF2020;" d="M656.701,703.044c17.405-30.32,27.485-66.246,27.485-104.77
			c0-81.363-44.935-151.166-108.966-180.958c31.09,10.401,59.536,27.841,83.327,51.52c40.051,39.863,62.108,92.714,62.108,148.819
			c0,40.369-11.42,79.052-32.745,112.426L656.701,703.044z"/>
		<path id="XMLID_213_" style="fill:#AF1B1B;" d="M700.17,609.165c0-56.105-22.057-108.956-62.108-148.819
			c-17.463-17.381-37.441-31.385-59.124-41.726c-1.237-0.439-2.471-0.886-3.717-1.303c64.031,29.791,108.966,99.595,108.966,180.958
			c0,38.524-10.08,74.45-27.485,104.77l14.437,12.507C690.071,683.587,700.17,647.121,700.17,609.165z"/>
		
			<path id="XMLID_212_" style="fill:none;stroke:#000000;stroke-width:12;stroke-linecap:round;stroke-linejoin:round;stroke-miterlimit:10;" d="
			M656.701,703.044c17.405-30.32,27.485-66.246,27.485-104.77c0-81.363-44.935-151.166-108.966-180.958
			c31.09,10.401,59.536,27.841,83.327,51.52c40.051,39.863,62.108,92.714,62.108,148.819c0,40.369-11.42,79.052-32.745,112.426
			L656.701,703.044z"/>
		<path id="XMLID_211_" style="fill:#EA7E4E;" d="M676.059,729.386c0,0,3.294,24.302-10.883,38.479
			c-15.073,15.073-56.85-9.844-52.933-35.464s48.48-12.767,48.353-23.218C660.47,698.731,676.059,729.386,676.059,729.386z"/>
		<path id="XMLID_210_" style="fill:#D36B42;" d="M631.313,746.809c3.138-20.525,32.357-16.359,43.792-19.263
			c-3.383-6.455-14.617-27.243-14.509-18.363c0.126,10.451-44.436-2.403-48.353,23.218c-2.123,13.884,10.488,26.516,24.173,32.236
			C632.482,759.327,630.336,753.201,631.313,746.809z"/>
		
			<path id="XMLID_209_" style="fill:none;stroke:#000000;stroke-width:12;stroke-linecap:round;stroke-linejoin:round;stroke-miterlimit:10;" d="
			M676.059,729.386c0,0,4.999,18.299-5.599,36.794c-10.598,18.496-65.095,6.159-58.216-33.779
			c4.399-25.542,48.48-12.767,48.353-23.218C660.47,698.731,676.059,729.386,676.059,729.386z"/>
		<path id="XMLID_208_" style="fill:#FFFFFF;" d="M648.136,692.88c0.039-0.071,0.077-0.142,0.116-0.213
			c3.672-6.729,12.442-8.177,17.98-2.991l31.376,29.379c4.229,3.96,5.082,10.508,1.999,15.473c-0.599,0.964-1.205,1.924-1.819,2.88
			c-4.119,6.412-12.933,7.219-18.107,1.685c-9.852-10.539-20.521-21.95-29.795-31.865
			C646.284,703.375,645.584,697.543,648.136,692.88z"/>
		
			<path id="XMLID_207_" style="fill:none;stroke:#000000;stroke-width:12;stroke-linecap:round;stroke-linejoin:round;stroke-miterlimit:10;" d="
			M648.136,692.88c0.039-2.526,0.077-2.273,0.116-0.213c0.612,2.142,1.365-1.948,2.222-2.918c0.857,1.657,1.816,0.952,2.84-2
			c1.024-0.034,2.113-0.506,3.227-1.045c1.115-1.754,2.255-1.328,3.383-0.052c1.128,0.866,2.243,0.376,3.307,0.705
			c1.064,0.467,2.077,1.202,3,2.32c0-1.175,0.872-2.783,2.324,2.176c1.453,1.9,3.486,2.196,5.81,5.441
			c2.324-3.591,4.939,9.17,7.553,7.073c0.654,0.296,1.307,0.798,1.956,1.407s1.294,1.325,1.929,2.047
			c0.635,1.335,1.262,0.595,1.875,1.998c0.613-0.204,1.212,1.153,1.793,1.62c0.581-0.964,1.144-0.58,1.684,0.07
			c0.54,0.651,1.058,1.568,1.548,1.673c0.98,3.635,1.852,3.252,2.578,3.697c1.453,3.358,2.324,5.111,2.324,2.176
			c0.705-0.667,1.316,3.473,1.831,2.176c0.515,4.368,0.933,1.256,1.252,2.492c0.639,2.864,0.881,3.553,0.708,5.466
			c-0.174,0.487-0.764,1.571-1.792,5.338c-0.599,0.328-1.205,2.056-1.819,2.88c-1.373,2.137-3.268,3.652-5.375,4.516
			c-2.81,1.153-5.999,1.15-8.835-0.074c-1.418-0.612-2.747-1.425-3.897-2.758c-1.642-3.695-3.307-4.887-4.984-5.331
			c-1.677-5.524-3.367-0.55-5.058-5.411c-1.692-6.366-3.386-7.229-5.072-5.425c-1.686,0.551-3.364-3.982-5.024-5.373
			c-0.83,1.226-1.655-0.051-2.475-1.653c-0.819-0.201-1.633-2.644-2.44-3.602c-0.806-1.234-1.606-2.012-2.397-2.816
			c-0.791-0.342-1.574,2.716-2.346-2.255c-1.201,3.563-2.079-5.909-2.622-4.395c-0.543-6.604-0.75-2.252-0.609-5.016
			C646.796,698.638,647.286,693.378,648.136,692.88z"/>
	</g>
</g>
<path id="XMLID_112_" style="fill:#BFBFBF;" d="M607.261,470.098c0,0-1.643-24.882-30.101-23.81
	c-7.386,0.278,20.967-9.149,20.967-9.149L607.261,470.098z"/>
<path id="XMLID_93_" style="fill:none;stroke:#000000;stroke-width:6;stroke-linecap:round;stroke-linejoin:round;stroke-miterlimit:10;" d="
	M399.998,486.507c0,0-10.06,38.404,42.727,68.141c35.439,19.964,47.397,35.228,47.397,35.228"/>
</svg>
