<?xml version="1.0" encoding="iso-8859-1"?>
<!-- Generator: Adobe Illustrator 23.0.2, SVG Export Plug-In . SVG Version: 6.00 Build 0)  -->
<svg version="1.1" id="Layer_1" xmlns="http://www.w3.org/2000/svg" xmlns:xlink="http://www.w3.org/1999/xlink" x="0px" y="0px"
	 viewBox="0 0 1000 1000" style="enable-background:new 0 0 1000 1000;" xml:space="preserve">
<g id="XMLID_1_">
	<ellipse id="XMLID_5_" style="fill:#CFD0D1;" cx="519.615" cy="827.304" rx="149.899" ry="29.144"/>
	<circle id="XMLID_6_" style="fill:#FFFFFF;" cx="499.252" cy="390.547" r="125.66"/>
	<polygon id="XMLID_65_" style="fill:#DDDDDD;" points="517.652,411.074 564.1,463.35 491.569,447.431 	"/>
	<path id="XMLID_68_" style="fill:#DDDDDD;" d="M540.355,271.77c21.985,22.63,35.529,53.505,35.529,87.548
		c0,69.4-56.26,125.66-125.66,125.66c-14.396,0-28.223-2.428-41.103-6.884c22.834,23.504,54.774,38.112,90.132,38.112
		c69.4,0,125.66-56.26,125.66-125.66C624.913,335.542,589.569,288.799,540.355,271.77z"/>
	<path id="XMLID_67_" style="fill:#DDDDDD;" d="M499.252,268.886c-67.359,0-122.334,52.999-125.511,119.571
		c1.269,0.426,2.443,0.562,3.391,0.562c3.128,0,6.959-1.16,9.536-5.899l1.447,0.851l0,0l5.472,3.217l0.542,0.319l0.143-1.592
		l9.314-17.315c2.183-0.974,4.27-2.793,5.523-5.755l0.771-0.707c0.349-0.32,0.664-0.649,0.948-0.976
		c0.011-0.005,0.022-0.011,0.033-0.016l2.231,4.014l4.503-5.485c0.097,0.002,0.195,0.004,0.294,0.004
		c0.704,0,1.397-0.069,2.077-0.206c0.072-0.012,0.144-0.025,0.215-0.039c1.082,0.385,2.309,0.603,3.703,0.603
		c0.001,0,0.002,0,0.003,0c4.867-0.001,8.449-2.792,10.671-8.302c1.652-0.563,2.968-1.487,3.998-2.462
		c1.565-0.379,2.824-1.03,3.727-1.587c0.612-0.146,1.184-0.335,1.714-0.551l0.503,0.327l4.007-2.224
		c0.618,0.05,1.242,0.094,1.87,0.109l2.972,0.071l1.275-0.789c0.053,0.006,0.104,0.013,0.152,0.019
		c0.979,0.121,2.197,0.271,3.621,0.271c3.341,0,6.388-0.863,9.095-2.572c2.416-0.481,4.731-0.853,6.812-0.87l2.72-0.022l1.945-1.164
		c0.396,0.002,0.951,0.045,1.537,0.091c0.901,0.07,1.923,0.149,3.073,0.149c0.715,0,1.384-0.03,2.047-0.093l1.59-0.15l1.055-0.459
		c0.355,0.01,0.865,0.058,1.402,0.108c0.927,0.087,2.081,0.196,3.352,0.196c1.239,0,2.388-0.101,3.513-0.308l2.456-0.452
		c1.265,0.442,2.76,0.78,4.468,0.78c1.593,0,3.148-0.299,4.622-0.888l0.458-0.183l1.26,0.916l2.503,0.337
		c0.426,0.058,1.074,0.212,1.762,0.375c1.716,0.408,3.851,0.916,6.361,0.916c0.236,0,0.472-0.005,0.705-0.014
		c1.549,0.475,3.2,0.709,4.977,0.709c0.111,0,0.223-0.001,0.333-0.003c2.879,2.202,5.861,2.526,7.365,2.526c0.001,0,0.002,0,0.002,0
		c1.42,0,2.671-0.246,3.72-0.563c2.754,1.085,5.868,2.027,9.317,2.027c0.214,0,0.428-0.003,0.641-0.011l0.711,1.858l3.483,0.256
		c1.734,1.719,4.69,4.178,8.988,4.313c2.123,0.996,4.15,1.23,5.592,1.23c0.37,0,0.717-0.015,1.033-0.036
		c0.11,0.076,0.225,0.154,0.324,0.223c1.418,0.977,3.564,2.457,6.418,3.1c2.8,1.682,5.377,2.788,7.97,3.433l1.665,0.414
		c0.067,0.072,0.135,0.144,0.202,0.215c2.357,2.746,5.029,3.903,7.021,4.433l5.315,8.482l2.374-2.27l1.149,2.173l4.182-1.031
		l4.681,6.206l2.594-1.256l1.204,1.372l1.882,0.747c0.13,0.083,0.26,0.171,0.393,0.259c0.797,0.525,1.929,1.271,3.358,1.899
		c2.194,2.423,4.689,3.355,6.593,3.693C620.231,320.594,565.784,268.886,499.252,268.886z"/>
	
		<circle id="XMLID_59_" style="fill:none;stroke:#DDDDDD;stroke-width:8;stroke-linecap:round;stroke-linejoin:round;stroke-miterlimit:10;" cx="464.705" cy="385.8" r="18.482"/>
	
		<circle id="XMLID_60_" style="fill:none;stroke:#DDDDDD;stroke-width:8;stroke-linecap:round;stroke-linejoin:round;stroke-miterlimit:10;" cx="548.618" cy="385.8" r="18.482"/>
	
		<circle id="XMLID_2_" style="fill:none;stroke:#34323A;stroke-width:12;stroke-linecap:round;stroke-linejoin:round;stroke-miterlimit:10;" cx="499.252" cy="390.547" r="125.66"/>
	<ellipse id="XMLID_22_" style="fill:#FFFFFF;" cx="499.17" cy="660.302" rx="168.986" ry="167.645"/>
	<path id="XMLID_97_" style="fill:#DDDDDD;" d="M548.319,499.869c4.138,4.4,8.033,9.026,11.679,13.848l-14.34-1.306H409.121
		l-25.438,25.519c0,0,46.446,19.515,82.632,21.741s73.746-3.731,77.643-3.731c0,4.911-5.815,90.014,5.515,145.529
		c2.9,14.21-2.052,28.917-12.964,38.471c-29.787,26.079-68.911,41.905-111.763,41.905c-17.096,0-33.595-2.528-49.149-7.212
		c30.846,32.797,74.791,53.312,123.573,53.312c93.328,0,168.986-75.057,168.986-167.644
		C668.155,584.675,617.673,520.753,548.319,499.869z"/>
	<path id="XMLID_69_" style="fill:#F74B71;" d="M553.129,519.999c0,0,0,89.257,10.971,181.947
		c5.719,48.321,23.224,13.27,41.223,13.27S625.126,545.498,553.129,519.999z"/>
	
		<ellipse id="XMLID_3_" style="fill:none;stroke:#34323A;stroke-width:12;stroke-linecap:round;stroke-linejoin:round;stroke-miterlimit:10;" cx="499.17" cy="660.302" rx="168.986" ry="167.645"/>
	<polygon id="XMLID_77_" style="fill:#B55D4C;" points="623.443,596.85 686.092,571.658 712.308,529.226 722.191,451.834 
		732.074,529.226 828.14,447.431 792.679,503.77 703.901,593.989 630.276,624.222 	"/>
	<polygon id="XMLID_82_" style="opacity:0.5;fill:#E27F71;" points="643.301,591.171 695.4,581.71 753.352,525.753 725.791,540.989 
		725.791,482.533 713.487,519.999 686.092,571.658 	"/>
	
		<polygon id="XMLID_23_" style="fill:none;stroke:#34323A;stroke-width:12;stroke-linecap:round;stroke-linejoin:round;stroke-miterlimit:10;" points="
		623.443,596.85 686.092,571.658 712.308,529.226 722.191,451.834 732.074,529.226 828.14,447.431 792.679,503.77 703.901,593.989 
		630.276,624.222 	"/>
	<path id="XMLID_74_" style="fill:#F74B71;" d="M553.129,519.999c0,0,0,89.257,10.971,181.947
		c5.719,48.321,23.224,13.27,41.223,13.27S625.126,545.498,553.129,519.999z"/>
	<path id="XMLID_84_" style="fill:#DD3E68;" d="M604.143,647.648l-28.882-97.649c12.09-2.966,28.882-7.712,28.882-7.712
		l-9.153-22.288l-41.86,10.999l0.742,27.66c0,0,0.031-0.028,0.093-0.081c3.52-2.981,8.941-1.158,10.036,3.323
		c1.432,5.862,3.243,33.786,5.461,48.044c6.732,43.281,11.535,64.352,11.535,72.244c0,25.243-13.896,41.221-13.896,41.221
		l11.536,5.035l39.34-18.331L604.143,647.648z"/>
	<polygon id="XMLID_79_" style="fill:#DDDDDD;" points="556.163,583.126 598.915,568.94 602.887,587.422 557.521,604.303 	"/>
	<polygon id="XMLID_106_" style="fill:#C1C1C1;" points="566.421,580.582 598.915,568.94 602.887,587.422 567.78,601.76 	"/>
	
		<polygon id="XMLID_81_" style="fill:none;stroke:#34323A;stroke-width:6;stroke-linecap:round;stroke-linejoin:round;stroke-miterlimit:10;" points="
		556.163,583.126 598.915,568.94 602.887,587.422 557.521,604.303 	"/>
	<polygon id="XMLID_90_" style="fill:#DDDDDD;" points="556.163,648.624 598.915,634.438 602.887,652.92 557.521,669.801 	"/>
	<polygon id="XMLID_104_" style="fill:#C1C1C1;" points="574.801,642.439 601.238,626.217 603.48,644.699 577.872,661.58 	"/>
	
		<polygon id="XMLID_89_" style="fill:none;stroke:#34323A;stroke-width:6;stroke-linecap:round;stroke-linejoin:round;stroke-miterlimit:10;" points="
		556.163,648.624 598.915,634.438 602.887,652.92 557.521,669.801 	"/>
	
		<path id="XMLID_21_" style="fill:none;stroke:#34323A;stroke-width:12;stroke-linecap:round;stroke-linejoin:round;stroke-miterlimit:10;" d="
		M553.129,519.999c0,0,0,89.257,10.971,181.947c5.719,48.321,23.224,13.27,41.223,13.27S625.126,545.498,553.129,519.999z"/>
	<path id="XMLID_66_" style="fill:#F74B71;" d="M591.371,511.136l-24.27,8.863c0,0,26.701,214.322,51.961,208.323
		c25.26-6,55.108,0.124,53.277-22.906C670.08,677.007,658.999,677.019,591.371,511.136z"/>
	<path id="XMLID_101_" style="fill:#DD3E68;" d="M672.339,705.416c-2.259-28.409-13.34-28.397-80.968-194.279l-13.549,4.948
		c47.302,130.688,57.129,134.364,59.224,160.712c1.447,18.2-16.894,18.194-37.118,20.352c6.161,19.908,12.694,32.703,19.134,31.173
		C644.322,722.322,674.17,728.445,672.339,705.416z"/>
	<path id="XMLID_98_" style="fill:#FFFFFF;" d="M577.904,581.666L577.904,581.666c7.517-7.532,17.439-12.187,28.037-13.153
		l11.329-1.033l3.657,18.482c0,0-10.766,1.637-21.43,4.112c-5.849,1.357-20.342,12.77-20.342,12.77L577.904,581.666z"/>
	<path id="XMLID_102_" style="fill:#C1C1C1;" d="M605.941,568.513c-2.847,0.259-5.642,0.794-8.358,1.57
		c2.52,6.716,4.875,12.989,7.076,18.854c8.717-1.826,16.267-2.975,16.267-2.975l-1.562-7.893c-1.442-3.347-2.923-6.806-4.444-10.374
		L605.941,568.513z"/>
	
		<path id="XMLID_92_" style="fill:none;stroke:#34323A;stroke-width:6;stroke-linecap:round;stroke-linejoin:round;stroke-miterlimit:10;" d="
		M577.904,581.666L577.904,581.666c7.517-7.532,17.439-12.187,28.037-13.153l11.329-1.033l3.657,18.482
		c0,0-10.766,1.637-21.43,4.112c-5.849,1.357-20.342,12.77-20.342,12.77L577.904,581.666z"/>
	<path id="XMLID_100_" style="fill:#FFFFFF;" d="M593.655,652.599L593.655,652.599c9.53-9.549,22.109-15.451,35.545-16.675
		l14.362-1.309l13.03,25.687c0,0-22.042-0.18-35.562,2.956c-7.415,1.72-25.789,16.19-25.789,16.19L593.655,652.599z"/>
	<path id="XMLID_103_" style="fill:#C1C1C1;" d="M630.972,635.456c-2.26,0.206-4.492,0.556-6.693,1.021
		c3.714,10.242,6.451,18.146,8.499,24.672c12.278-1.423,25.586-1.315,25.586-1.315l-13.03-25.687L630.972,635.456z"/>
	
		<path id="XMLID_99_" style="fill:none;stroke:#34323A;stroke-width:6;stroke-linecap:round;stroke-linejoin:round;stroke-miterlimit:10;" d="
		M590.293,652.422L590.293,652.422c9.53-9.549,26.109-15.451,39.545-16.675l14.362-1.309l12.393,25.864c0,0-22.614-3.63-34.924,2.78
		c-11.932,6.212-25.789,16.19-25.789,16.19L590.293,652.422z"/>
	
		<path id="XMLID_13_" style="fill:none;stroke:#34323A;stroke-width:12;stroke-linecap:round;stroke-linejoin:round;stroke-miterlimit:10;" d="
		M591.371,511.136l-24.27,8.863c0,0,26.701,214.322,51.961,208.323c25.26-6,55.108,0.124,53.277-22.906
		C670.08,677.007,658.999,677.019,591.371,511.136z"/>
	<path id="XMLID_48_" style="fill:#F74B71;" d="M373.592,345.674c0,0-8.009-184.864,187.087-179.341
		c48.303,1.367,57.304-15.87,57.304-15.87s80.878,134.723,3.745,211.856C585.531,320.965,446.086,264.886,373.592,345.674z"/>
	<path id="XMLID_64_" style="fill:#DD3E68;" d="M617.983,150.462c0,0-2.144,4.1-9.942,8.143
		c10.898,57.979-42.371,91.82-158.037,110.084c-88.388,13.957-74.312,46-74.312,46c-6.982,6.982,4.828,13.387,9.976,19.292
		c74.92-63.169,201.781-10.824,236.059,28.338C698.861,285.185,617.983,150.462,617.983,150.462z"/>
	
		<path id="XMLID_7_" style="fill:none;stroke:#34323A;stroke-width:12;stroke-linecap:round;stroke-linejoin:round;stroke-miterlimit:10;" d="
		M373.592,345.674c0,0-8.009-184.864,187.087-179.341c48.303,1.367,57.304-15.87,57.304-15.87s80.878,134.723,3.745,211.856
		C585.531,320.965,446.086,264.886,373.592,345.674z"/>
	<path id="XMLID_55_" style="fill:#FFFFFF;" d="M355.829,350.995c-0.423-7.846-0.64-1.141-0.663-5.4
		c-0.023-2.692,0.149-0.233,0.502-5.847c0.354,2.016,0.89,2.142,1.596-6.185c0.706-17.275,1.583-7.956,2.619-6.412
		c1.035-7.768,2.229,0.682,3.57-6.529c1.341-0.311,2.828-1.996,4.451-6.536c1.622-0.907,3.38-10.165,5.26-6.434
		c1.88-6.872,3.884-9.042,5.998-6.221c2.115-7.079,4.34,1.606,6.666-5.898c2.325-7.148,4.75-6.892,7.262-5.466
		c2.512,2.948,5.111,3.693,7.787-4.923c2.675-7.989,5.426-2.893,8.24-4.271c2.815-0.722,5.693,0.963,8.623-3.508
		c2.93-5.567,5.913-3.347,8.935-2.636c0-2.29,0.174,1.993,0.514-0.187c0.341-1.732,0.849-1.889,1.518-0.517
		c0.669-4.41,1.498-6.784,2.483-0.785c0.984-2.209,2.123,1.406,3.409-0.989c1.287-1.963,2.721,2.616,4.298-1.13
		c1.576-0.257,3.294-1.539,5.148-1.208c1.853,1.741,3.842,5.038,5.96-1.223c2.118-3.045,4.364,2.478,6.733-1.174
		c2.369-3.5,4.861-0.081,7.469-1.062c2.608,2.924,5.332-0.107,8.166-0.886c2.834,3.722,5.778-4.41,8.825-0.647
		c3.047,0.428,6.198-0.622,9.445-0.345c3.248,0.267,6.592-0.985,10.028,0.02c3.435,2.431,6.961-0.77,10.572,0.448
		c3.61-0.001,7.305-1.138,11.077,0.94c3.773,4.116,7.623,2.434,11.545,1.495c3.922-1.989,7.915-0.247,11.974,2.114
		c4.059,3.077,8.182,1.846,12.365,2.795c4.183-1.029,8.424,1.725,12.718,3.54c4.294,3.791,8.64,2.877,13.032,4.349
		c4.392,1.897,8.831,0.934,13.308,5.22c4.478,2.176,8.995,3.907,13.546,6.155c0.795-0.393,2.132,1.212,3.838,2.136
		c1.706-0.463,3.779,4.752,6.048,3.722c2.268-0.459,4.731,3.847,7.214,4.76c2.483-4.076,4.987,1.763,7.338,5.25
		c2.351,1.37,4.548,7.973,6.418,5.193c1.87-1.5,3.413,2.442,4.456,4.587c2.551,10.332,4.497,8.424,5.914,9.845
		c1.417,5.456,2.307,4.603,2.745,9.315c0.438,6.448,0.426,2.629,0.04,8.578c-0.386,2.576-1.146,7.68-2.202,7.633
		c-1.056,5.337-2.408,8.686-3.979,6.481c-1.571,5.76-3.361,4.956-5.292,5.121c-1.932,4.936-4.005,2.428-6.142,3.554
		c-2.137,0.73-4.339-0.517-6.527,1.779c-2.189,0.915-4.364,5.448-6.449-0.203c-2.085,0.627-4.08-1.668-5.907-2.393
		c-2.229-2.537-4.457-5.371-6.689-4.29c-2.232-2.959-4.467-4.725-6.709-4.173c-2.243-4.242-4.493-6.194-6.755-4.031
		c-2.262-3.609-4.536-1.013-6.826-3.866c-2.29-2.394-4.596-5.428-6.922-3.676c-2.326-0.578-4.672-1.85-7.043-3.462
		c-2.371,0.494-4.766-2.758-7.19-3.224c-2.424-1.695-4.876,1.783-7.361-2.961c-2.485,4.257-5.003-2.487-7.558-2.675
		c-2.555-6.681-5.147-2.278-7.78-2.364c-2.633,0.195-5.308-0.857-8.028-2.029c-2.72-2.781-5.485,3.814-8.3-1.669
		c-2.815-1.103-5.68,0.76-8.598-1.286c-2.918,0.956-5.891-0.469-8.921-0.878c-3.03-2.204-6.119-2.208-9.269-0.446
		c-3.151,1.259-6.363-4.923-9.643,0.01c-3.279,0.603-6.625-0.997-10.041,0.491c-3.416,0.322-6.903-1.136-10.465,0.995
		c-3.562,0.029-7.198,0.732-10.914,1.524c-4.528,4.134-8.748-0.092-12.692,2.347c-3.943-0.095-7.609,0.411-11.028,2.645
		c-3.419,1.656-6.59-0.605-9.544,2.916c-2.954,4.68-5.69,9.408-8.24,3.162c-2.549,7.013-4.911,6.667-7.114,3.381
		c-2.204-1.84-4.25,6.003-6.169,3.574c-1.919,0.535-3.71-0.075-5.403,3.741c-1.693-0.883-3.289,0.145-4.816,3.882
		c-1.528,7.082-2.988-0.855-4.41,3.996c-1.422-0.38-2.806,6.971-4.182,4.085c-1.376-0.463-2.744-0.68-4.134,4.147
		c-2.579-3.784-4.771,2.296-6.656,4.382c-1.884,7.838-3.461,0.844-4.81,0.379c-2.36,4.514-4.582-2.962-6.612-2.568
		c-2.03-3.175-3.869-9.624-5.463-5.532c-1.594-15.888-2.944-2.211-3.996-6.643C356.988,355.363,356.233,360.908,355.829,350.995z"/>
	<path id="XMLID_61_" style="fill:#DDDDDD;" d="M654.778,336.46c-0.438-4.712-1.328-3.859-2.745-9.315
		c-0.314-0.315-0.655-0.466-1.022-0.624c-0.028,0.384-0.059,0.826-0.092,1.345c-0.386,2.576-1.146,7.68-2.202,7.633
		c-1.056,5.337-2.408,8.686-3.979,6.481c-0.393,1.44-0.799,2.47-1.218,3.207s-0.85-0.022-1.293,1.452
		c-0.885,0.338-1.816-0.885-2.782,0.462c-1.19,1.593-2.356-2.359-3.502,1.694c-1.146-2.18-2.27,5.407-3.375,2.006
		c-1.105,0.358-2.189-0.073-3.256,0.754c-1.066-0.414-2.115,1.662-3.146,0.193c-1.031,0.062-2.046,1.963-3.045-0.611
		c-0.999-0.433-1.983-0.032-2.953-0.699c-0.97-0.131-1.926-3.385-2.87-2.367c-0.944-2.996-1.875-4.027-2.796-0.707
		c-0.921,2.598-1.83,1.963-2.731-0.582c-0.9-4.026-1.791,0.72-2.674-3.761c-0.442,0.285-0.881-2.844-1.319,0.623
		c-0.438-0.198-0.874-1.018-1.308-3.116c-0.869-0.453-1.731-3.279-2.589-2.625c-0.44,0.305-0.885,1.13-1.337,1.174
		s-0.912-0.693-1.381-3.514c-1.406,2.525-2.893-3.965-4.508-2.926c-1.615-6.669-3.359-7.298-5.278-1.911
		c-0.893-2.997-1.779,1.676-2.674-1.191c-1.491,2.518-3.03,7.586-4.594-1.819c-0.782-1.989-1.57-2.032-2.363-1.741
		c-0.792,1.338-1.588,0.494-2.384,0.267c-0.797,1.637-1.594,0.588-2.389,2.12c-0.796-1.224-1.589-0.074-2.378-3.217
		c-0.512-4.034-1.023-6.398-1.534-3.854c-0.511,0.691-1.023,2.248-1.536,2.295c-1.025-1.383-2.055-3.574-3.094-2.118
		c-1.039,2.98-2.087,1.593-3.151-0.673c-1.418-0.077-2.863-0.29-4.348-1.516c-1.485-0.046-3.01,0.91-4.588-1.152
		c-1.578-0.123-3.209-1.772-4.907-0.712c-0.673-2.91-1.332-0.659-1.984-3.12c-0.652-0.52-1.298-0.599-1.946-0.471
		c-1.297,0.255-2.603,1.334-3.919,1.292c-2.633,0.195-5.308-0.857-8.028-2.029c-2.72-2.781-5.485,3.814-8.3-1.669
		c-2.815-1.103-5.68,0.76-8.598-1.286c-2.918,0.956-5.891-0.469-8.921-0.878c-3.03-2.204-6.119-2.208-9.269-0.446
		c-3.151,1.259-6.363-4.923-9.643,0.01c-3.279,0.603-6.625-0.997-10.041,0.491c-3.416,0.322-6.903-1.136-10.465,0.995
		c-3.562,0.029-7.198,0.732-10.914,1.524c-4.528,4.134-8.748-0.092-12.692,2.347c-1.972-0.048-3.874-0.57-5.711,0.449
		c-1.837-1.193-3.608,2.248-5.317,2.195c-1.709-0.286-3.357,3.119-4.946,0.758c-1.589-0.279-3.121,6.312-4.598,2.158
		c-1.477-0.018-2.9,0.168-4.272,5.678c-1.372,4.555-2.693,5.423-3.968-2.516c-1.275,0.454-2.502,5.552-3.687,5.553
		c-1.185,0.56-2.326-3.514-3.428-2.172c-1.102-1.983-2.164-0.544-3.191,2.008c-1.027,1.565-2.018,1.906-2.978,1.566
		c-0.959-1.637-1.887,2.627-2.786,0.64c-0.899-0.075-1.77,2.324-2.617,3.101c-0.847-4.926-1.669-1.472-2.47,0.209
		c-0.801,6.927-1.582,3.919-2.346,3.673c-0.764-1.265-1.511,1.47-2.244,2.835c-0.734-7.849-1.454,3.53-2.165,1.161
		c-0.711,1.019-1.412-1.367-2.108,2.982c-0.696,2.911-1.386,4.006-2.074,1.103c-0.688-2.909-1.374-0.505-2.062,0.09
		c-0.688-2.695-1.377-3.712-2.072,4.057c-1.29-0.758-2.483-1.28-3.589-0.01c-1.106,3.363-2.125,4.207-3.067,4.392
		c-0.942,4.383-1.807,4.063-2.606,3.303c-0.798-0.598-1.53-0.723-2.204-2.924c-1.18,3.743-2.326,1.419-3.43,0.261
		c-1.104-0.938-2.167-3.612-3.182-2.829c-1.015-1.588-1.982-3.994-2.895-5.491s-1.771-2.087-2.568-0.041
		c-0.499-4.97-0.973-7.047-1.423-7.69c-0.44,2.975-0.791,2.523-1.046,1.069c-0.354,5.614-0.525,3.156-0.502,5.847
		c0.023,4.259,0.24-2.446,0.663,5.4c0.404,9.913,1.159,4.368,2.211,5.902c1.052,4.431,2.402-9.245,3.996,6.643
		c0.797-2.046,1.655-1.457,2.568,0.041c0.913,1.498,1.88,3.904,2.895,5.491c1.015-0.783,2.078,1.891,3.182,2.829
		c1.104,1.158,2.25,3.483,3.43-0.261c0.674,2.201,1.406,2.326,2.204,2.924c0.798,0.76,1.664,1.08,2.606-3.303
		c0.942-0.186,1.961-1.029,3.067-4.392c1.106-1.27,2.299-0.748,3.589,0.01c0.695-7.769,1.385-6.753,2.072-4.057
		c0.688-0.595,1.374-2.998,2.062-0.09c0.688,2.903,1.378,1.808,2.074-1.103c0.696-4.349,1.397-1.963,2.108-2.982
		c0.711,2.369,1.431-9.011,2.165-1.161c0.734-1.364,1.481-4.1,2.244-2.835c0.764,0.246,1.545,3.254,2.346-3.673
		c0.802-1.68,1.624-5.134,2.47-0.209c0.847-0.777,1.718-3.176,2.617-3.101c0.899,1.987,1.827-2.277,2.786-0.64
		c0.959,0.34,1.951-0.001,2.978-1.566c1.027-2.552,2.089-3.99,3.191-2.008c1.102-1.342,2.243,2.731,3.428,2.172
		c1.185-0.001,2.412-5.098,3.687-5.553c1.275,7.94,2.596,7.071,3.968,2.516c1.372-5.51,2.795-5.696,4.272-5.678
		c1.477,4.155,3.008-2.437,4.598-2.158c1.589,2.36,3.237-1.045,4.946-0.759c1.709,0.053,3.481-3.389,5.317-2.195
		c1.837-1.02,3.739-0.497,5.711-0.449c3.943-2.439,8.164,1.787,12.692-2.347c3.716-0.792,7.352-1.496,10.914-1.524
		c3.562-2.131,7.049-0.673,10.465-0.995c3.416-1.488,6.762,0.112,10.041-0.491c3.279-4.934,6.492,1.249,9.643-0.01
		c3.151-1.762,6.239-1.758,9.269,0.446c3.03,0.409,6.003,1.834,8.921,0.878c2.918,2.046,5.783,0.182,8.598,1.286
		c2.815,5.483,5.58-1.112,8.3,1.669c2.72,1.172,5.394,2.223,8.028,2.029c1.317,0.043,2.623-1.037,3.969-1.338
		c0.786,1.969,1.607,2.026,2.467,2.251c0.86,1.905,1.76-2.233,2.702,2.072c0.942,2.187,1.927,2.411,2.957,1.818
		c1.03,0.902,2.107-1.115,3.232,1.491c1.126,1.808,2.3,2.361,3.528,2.398c1.228,0.038,2.508-0.44,3.844-0.694
		c1.211,2.256,2.416,0.059,3.614,1.972c1.198,2.108,2.39-1.476,3.575,1.252c1.649,1.391,3.199,2.09,4.692,1.531
		c1.493,4.247,2.929,6.896,4.347,2.068c0.945-1.661,1.884,0.291,2.836,1.515c1.922-0.238,3.772,1.647,5.574,2.511
		c1.802,0.864,3.555,1.768,5.281,2.748c1.726,2.978,3.426,0.728,5.12,3.201c1.017-0.537,2.032,3.039,3.05,2.228
		c0.473,0.132,1.078,0.362,1.758,0.841c0.68,0.479,1.435,1.549,2.208,2.338c0.773,1.312,1.565-1.142,2.318-0.206
		c0.753,2.871,1.468,2.596,2.087,2.831c0.557,2.19,1.115-3.003,1.672,1.893c0.913-0.456,1.869,0.154,2.857,1.704
		c0.988,0.586,2.008,1.003,3.05,0.689c1.043,2.826,2.108,3.105,3.186,2.564s2.169-1.903,3.263-2.361
		c1.094-0.885,2.192-1.411,3.283-1.477c1.091-0.066,2.176,0.063,3.245-0.302c2.137-1.126,4.21,1.382,6.142-3.554
		c1.932-0.165,3.721,0.639,5.292-5.121c1.571,2.205,2.923-1.144,3.979-6.481c1.056,0.047,1.815-5.057,2.202-7.633
		C655.204,339.089,655.217,342.908,654.778,336.46z"/>
	
		<path id="XMLID_8_" style="fill:none;stroke:#34323A;stroke-width:8;stroke-linecap:round;stroke-linejoin:round;stroke-miterlimit:10;" d="
		M355.829,350.995c-0.423-7.846-0.64-1.141-0.663-5.4c-0.023-2.692,0.149-0.233,0.502-5.847c0.354,2.016,0.89,2.142,1.596-6.185
		c0.706-17.275,1.583-7.956,2.619-6.412c1.035-7.768,2.229,0.682,3.57-6.529c1.341-0.311,2.828-1.996,4.451-6.536
		c1.622-0.907,3.38-10.165,5.26-6.434c1.88-6.872,3.884-9.042,5.998-6.221c2.115-7.079,4.34,1.606,6.666-5.898
		c2.325-7.148,4.75-6.892,7.262-5.466c2.512,2.948,5.111,3.693,7.787-4.923c2.675-7.989,5.426-2.893,8.24-4.271
		c2.815-0.722,5.693,0.963,8.623-3.508c2.93-5.567,5.913-3.347,8.935-2.636c0-2.29,0.174,1.993,0.514-0.187
		c0.341-1.732,0.849-1.889,1.518-0.517c0.669-4.41,1.498-6.784,2.483-0.785c0.984-2.209,2.123,1.406,3.409-0.989
		c1.287-1.963,2.721,2.616,4.298-1.13c1.576-0.257,3.294-1.539,5.148-1.208c1.853,1.741,3.842,5.038,5.96-1.223
		c2.118-3.045,4.364,2.478,6.733-1.174c2.369-3.5,4.861-0.081,7.469-1.062c2.608,2.924,5.332-0.107,8.166-0.886
		c2.834,3.722,5.778-4.41,8.825-0.647c3.047,0.428,6.198-0.622,9.445-0.345c3.248,0.267,6.592-0.985,10.028,0.02
		c3.435,2.431,6.961-0.77,10.572,0.448c3.61-0.001,7.305-1.138,11.077,0.94c3.773,4.116,7.623,2.434,11.545,1.495
		c3.922-1.989,7.915-0.247,11.974,2.114c4.059,3.077,8.182,1.846,12.365,2.795c4.183-1.029,8.424,1.725,12.718,3.54
		c4.294,3.791,8.64,2.877,13.032,4.349c4.392,1.897,8.831,0.934,13.308,5.22c4.478,2.176,8.995,3.907,13.546,6.155
		c0.795-0.393,2.132,1.212,3.838,2.136c1.706-0.463,3.779,4.752,6.048,3.722c2.268-0.459,4.731,3.847,7.214,4.76
		c2.483-4.076,4.987,1.763,7.338,5.25c2.351,1.37,4.548,7.973,6.418,5.193c1.87-1.5,3.413,2.442,4.456,4.587
		c2.551,10.332,4.497,8.424,5.914,9.845c1.417,5.456,2.307,4.603,2.745,9.315c0.438,6.448,0.426,2.629,0.04,8.578
		c-0.386,2.576-1.146,7.68-2.202,7.633c-1.056,5.337-2.408,8.686-3.979,6.481c-1.571,5.76-3.361,4.956-5.292,5.121
		c-1.932,4.936-4.005,2.428-6.142,3.554c-2.137,0.73-4.339-0.517-6.527,1.779c-2.189,0.915-4.364,5.448-6.449-0.203
		c-2.085,0.627-4.08-1.668-5.907-2.393c-2.229-2.537-4.457-5.371-6.689-4.29c-2.232-2.959-4.467-4.725-6.709-4.173
		c-2.243-4.242-4.493-6.194-6.755-4.031c-2.262-3.609-4.536-1.013-6.826-3.866c-2.29-2.394-4.596-5.428-6.922-3.676
		c-2.326-0.578-4.672-1.85-7.043-3.462c-2.371,0.494-4.766-2.758-7.19-3.224c-2.424-1.695-4.876,1.783-7.361-2.961
		c-2.485,4.257-5.003-2.487-7.558-2.675c-2.555-6.681-5.147-2.278-7.78-2.364c-2.633,0.195-5.308-0.857-8.028-2.029
		c-2.72-2.781-5.485,3.814-8.3-1.669c-2.815-1.103-5.68,0.76-8.598-1.286c-2.918,0.956-5.891-0.469-8.921-0.878
		c-3.03-2.204-6.119-2.208-9.269-0.446c-3.151,1.259-6.363-4.923-9.643,0.01c-3.279,0.603-6.625-0.997-10.041,0.491
		c-3.416,0.322-6.903-1.136-10.465,0.995c-3.562,0.029-7.198,0.732-10.914,1.524c-4.528,4.134-8.748-0.092-12.692,2.347
		c-1.972-0.048-3.874-0.57-5.711,0.449c-1.837-1.193-3.608,2.248-5.317,2.195c-1.709-0.286-3.357,3.119-4.946,0.759
		c-1.589-0.279-3.121,6.312-4.598,2.158c-1.477-0.018-2.9,0.168-4.272,5.678c-1.372,4.554-2.693,5.423-3.968-2.516
		c-1.275,0.454-2.502,5.552-3.687,5.553c-1.185,0.56-2.326-3.514-3.428-2.172c-1.102-1.983-2.165-0.544-3.191,2.008
		c-1.027,1.565-2.018,1.906-2.978,1.566c-0.959-1.637-1.887,2.627-2.786,0.64c-0.899-0.075-1.77,2.324-2.617,3.101
		c-0.847-4.926-1.669-1.472-2.47,0.209c-0.802,6.927-1.582,3.92-2.346,3.673c-0.764-1.265-1.511,1.471-2.244,2.835
		c-0.734-7.849-1.454,3.53-2.165,1.161c-0.711,1.019-1.412-1.367-2.108,2.982c-0.696,2.911-1.386,4.006-2.074,1.103
		c-0.688-2.909-1.374-0.505-2.062,0.09c-0.688-2.695-1.377-3.712-2.072,4.057c-1.29-0.758-2.483-1.28-3.589-0.01
		c-1.106,3.363-2.125,4.207-3.067,4.392c-0.942,4.383-1.807,4.063-2.606,3.303c-0.798-0.598-1.53-0.723-2.204-2.924
		c-1.18,3.743-2.326,1.419-3.43,0.261c-1.104-0.938-2.167-3.612-3.182-2.829c-1.015-1.588-1.982-3.994-2.895-5.491
		c-0.913-1.498-1.771-2.087-2.568-0.041c-1.594-15.888-2.944-2.211-3.996-6.643C356.988,355.363,356.233,360.908,355.829,350.995z"
		/>
	
		<path id="XMLID_57_" style="fill:none;stroke:#34323A;stroke-width:8;stroke-linecap:round;stroke-linejoin:round;stroke-miterlimit:10;" d="
		M355.829,350.995c-0.423-7.846-0.64-1.141-0.663-5.4c-0.023-2.692,0.149-0.233,0.502-5.847c0.354,2.016,0.89,2.142,1.596-6.185
		c0.706-17.275,1.583-7.956,2.619-6.412c1.035-7.768,2.229,0.682,3.57-6.529c1.341-0.311,2.828-1.996,4.451-6.536
		c1.622-0.907,3.38-10.165,5.26-6.434c1.88-6.872,3.884-9.042,5.998-6.221c2.115-7.079,4.34,1.606,6.666-5.898
		c2.325-7.148,4.75-6.892,7.262-5.466c2.512,2.948,5.111,3.693,7.787-4.923c2.675-7.989,5.426-2.893,8.24-4.271
		c2.815-0.722,5.693,0.963,8.623-3.508c2.93-5.567,5.913-3.347,8.935-2.636c0-2.29,0.174,1.993,0.514-0.187
		c0.341-1.732,0.849-1.889,1.518-0.517c0.669-4.41,1.498-6.784,2.483-0.785c0.984-2.209,2.123,1.406,3.409-0.989
		c1.287-1.963,2.721,2.616,4.298-1.13c1.576-0.257,3.294-1.539,5.148-1.208c1.853,1.741,3.842,5.038,5.96-1.223
		c2.118-3.045,4.364,2.478,6.733-1.174c2.369-3.5,4.861-0.081,7.469-1.062c2.608,2.924,5.332-0.107,8.166-0.886
		c2.834,3.722,5.778-4.41,8.825-0.647c3.047,0.428,6.198-0.622,9.445-0.345c3.248,0.267,6.592-0.985,10.028,0.02
		c3.435,2.431,6.961-0.77,10.572,0.448c3.61-0.001,7.305-1.138,11.077,0.94c3.773,4.116,7.623,2.434,11.545,1.495
		c3.922-1.989,7.915-0.247,11.974,2.114c4.059,3.077,8.182,1.846,12.365,2.795c4.183-1.029,8.424,1.725,12.718,3.54
		c4.294,3.791,8.64,2.877,13.032,4.349c4.392,1.897,8.831,0.934,13.308,5.22c4.478,2.176,8.995,3.907,13.546,6.155
		c0.795-0.393,2.132,1.212,3.838,2.136c1.706-0.463,3.779,4.752,6.048,3.722c2.268-0.459,4.731,3.847,7.214,4.76
		c2.483-4.076,4.987,1.763,7.338,5.25c2.351,1.37,4.548,7.973,6.418,5.193c1.87-1.5,3.413,2.442,4.456,4.587
		c2.551,10.332,4.497,8.424,5.914,9.845c1.417,5.456,2.307,4.603,2.745,9.315c0.438,6.448,0.426,2.629,0.04,8.578
		c-0.386,2.576-1.146,7.68-2.202,7.633c-1.056,5.337-2.408,8.686-3.979,6.481c-1.571,5.76-3.361,4.956-5.292,5.121
		c-1.932,4.936-4.005,2.428-6.142,3.554c-2.137,0.73-4.339-0.517-6.527,1.779c-2.189,0.915-4.364,5.448-6.449-0.203
		c-2.085,0.627-4.08-1.668-5.907-2.393c-2.229-2.537-4.457-5.371-6.689-4.29c-2.232-2.959-4.467-4.725-6.709-4.173
		c-2.243-4.242-4.493-6.194-6.755-4.031c-2.262-3.609-4.536-1.013-6.826-3.866c-2.29-2.394-4.596-5.428-6.922-3.676
		c-2.326-0.578-4.672-1.85-7.043-3.462c-2.371,0.494-4.766-2.758-7.19-3.224c-2.424-1.695-4.876,1.783-7.361-2.961
		c-2.485,4.257-5.003-2.487-7.558-2.675c-2.555-6.681-5.147-2.278-7.78-2.364c-2.633,0.195-5.308-0.857-8.028-2.029
		c-2.72-2.781-5.485,3.814-8.3-1.669c-2.815-1.103-5.68,0.76-8.598-1.286c-2.918,0.956-5.891-0.469-8.921-0.878
		c-3.03-2.204-6.119-2.208-9.269-0.446c-3.151,1.259-6.363-4.923-9.643,0.01c-3.279,0.603-6.625-0.997-10.041,0.491
		c-3.416,0.322-6.903-1.136-10.465,0.995c-3.562,0.029-7.198,0.732-10.914,1.524c-4.528,4.134-8.748-0.092-12.692,2.347
		c-1.972-0.048-3.874-0.57-5.711,0.449c-1.837-1.193-3.608,2.248-5.317,2.195c-1.709-0.286-3.357,3.119-4.946,0.759
		c-1.589-0.279-3.121,6.312-4.598,2.158c-1.477-0.018-2.9,0.168-4.272,5.678c-1.372,4.554-2.693,5.423-3.968-2.516
		c-1.275,0.454-2.502,5.552-3.687,5.553c-1.185,0.56-2.326-3.514-3.428-2.172c-1.102-1.983-2.165-0.544-3.191,2.008
		c-1.027,1.565-2.018,1.906-2.978,1.566c-0.959-1.637-1.887,2.627-2.786,0.64c-0.899-0.075-1.77,2.324-2.617,3.101
		c-0.847-4.926-1.669-1.472-2.47,0.209c-0.802,6.927-1.582,3.92-2.346,3.673c-0.764-1.265-1.511,1.471-2.244,2.835
		c-0.734-7.849-1.454,3.53-2.165,1.161c-0.711,1.019-1.412-1.367-2.108,2.982c-0.696,2.911-1.386,4.006-2.074,1.103
		c-0.688-2.909-1.374-0.505-2.062,0.09c-0.688-2.695-1.377-3.712-2.072,4.057c-1.29-0.758-2.483-1.28-3.589-0.01
		c-1.106,3.363-2.125,4.207-3.067,4.392c-0.942,4.383-1.807,4.063-2.606,3.303c-0.798-0.598-1.53-0.723-2.204-2.924
		c-1.18,3.743-2.326,1.419-3.43,0.261c-1.104-0.938-2.167-3.612-3.182-2.829c-1.015-1.588-1.982-3.994-2.895-5.491
		c-0.913-1.498-1.771-2.087-2.568-0.041c-1.594-15.888-2.944-2.211-3.996-6.643C356.988,355.363,356.233,360.908,355.829,350.995z"
		/>
	<g id="XMLID_33_">
		<circle id="XMLID_27_" style="fill:#F74B71;" cx="461.705" cy="380.8" r="18.482"/>
		<path id="XMLID_34_" style="fill:#DD3E68;" d="M473.739,366.791c0.286,1.292,0.449,2.631,0.449,4.01
			c0,10.207-8.275,18.482-18.482,18.482c-4.6,0-8.798-1.691-12.033-4.472c1.833,8.277,9.204,14.472,18.033,14.472
			c10.207,0,18.482-8.275,18.482-18.482C480.187,375.193,477.681,370.18,473.739,366.791z"/>
		
			<circle id="XMLID_9_" style="fill:none;stroke:#34323A;stroke-width:8;stroke-linecap:round;stroke-linejoin:round;stroke-miterlimit:10;" cx="461.705" cy="380.8" r="18.482"/>
		
			<path id="XMLID_36_" style="fill:none;stroke:#FFFFFF;stroke-width:2;stroke-linecap:round;stroke-linejoin:round;stroke-miterlimit:10;" d="
			M457.188,370.245c1.387-0.596,2.914-0.926,4.517-0.926"/>
		
			<path id="XMLID_31_" style="fill:none;stroke:#FFFFFF;stroke-width:2;stroke-linecap:round;stroke-linejoin:round;stroke-miterlimit:10;" d="
			M450.223,380.8c0-3.696,1.756-6.99,4.477-9.092"/>
	</g>
	<g id="XMLID_29_">
		<circle id="XMLID_25_" style="fill:#F74B71;" cx="545.618" cy="380.8" r="18.482"/>
		<path id="XMLID_32_" style="fill:#DD3E68;" d="M557.652,366.791c0.286,1.292,0.449,2.631,0.449,4.01
			c0,10.207-8.275,18.482-18.482,18.482c-4.6,0-8.798-1.691-12.033-4.472c1.833,8.277,9.204,14.472,18.033,14.472
			c10.207,0,18.482-8.275,18.482-18.482C564.1,375.193,561.594,370.18,557.652,366.791z"/>
		
			<circle id="XMLID_15_" style="fill:none;stroke:#34323A;stroke-width:8;stroke-linecap:round;stroke-linejoin:round;stroke-miterlimit:10;" cx="545.618" cy="380.8" r="18.482"/>
		
			<path id="XMLID_37_" style="fill:none;stroke:#FFFFFF;stroke-width:2;stroke-linecap:round;stroke-linejoin:round;stroke-miterlimit:10;" d="
			M541.105,370.243c1.386-0.595,2.912-0.924,4.513-0.924"/>
		
			<path id="XMLID_30_" style="fill:none;stroke:#FFFFFF;stroke-width:2;stroke-linecap:round;stroke-linejoin:round;stroke-miterlimit:10;" d="
			M534.137,380.8c0-3.7,1.759-6.997,4.485-9.098"/>
	</g>
	<g id="XMLID_24_">
		<circle id="XMLID_41_" style="fill:#F74B71;" cx="499.17" cy="595.72" r="18.482"/>
		<path id="XMLID_40_" style="fill:#DD3E68;" d="M511.203,581.71c0.286,1.292,0.449,2.631,0.449,4.01
			c0,10.207-8.275,18.482-18.482,18.482c-4.6,0-8.798-1.691-12.033-4.472c1.833,8.277,9.204,14.472,18.033,14.472
			c10.207,0,18.482-8.275,18.482-18.482C517.652,590.113,515.145,585.099,511.203,581.71z"/>
		
			<circle id="XMLID_39_" style="fill:none;stroke:#34323A;stroke-width:8;stroke-linecap:round;stroke-linejoin:round;stroke-miterlimit:10;" cx="499.17" cy="595.72" r="18.482"/>
		
			<path id="XMLID_38_" style="fill:none;stroke:#FFFFFF;stroke-width:2;stroke-linecap:round;stroke-linejoin:round;stroke-miterlimit:10;" d="
			M494.656,585.162c1.386-0.595,2.912-0.924,4.513-0.924"/>
		
			<path id="XMLID_35_" style="fill:none;stroke:#FFFFFF;stroke-width:2;stroke-linecap:round;stroke-linejoin:round;stroke-miterlimit:10;" d="
			M487.688,595.72c0-3.7,1.759-6.997,4.485-9.098"/>
	</g>
	<g id="XMLID_42_">
		<circle id="XMLID_47_" style="fill:#F74B71;" cx="499.17" cy="666.13" r="18.482"/>
		<path id="XMLID_46_" style="fill:#DD3E68;" d="M511.203,652.12c0.286,1.292,0.449,2.631,0.449,4.01
			c0,10.207-8.275,18.482-18.482,18.482c-4.6,0-8.798-1.691-12.033-4.472c1.833,8.277,9.204,14.472,18.033,14.472
			c10.207,0,18.482-8.275,18.482-18.482C517.652,660.523,515.145,655.509,511.203,652.12z"/>
		
			<circle id="XMLID_45_" style="fill:none;stroke:#34323A;stroke-width:8;stroke-linecap:round;stroke-linejoin:round;stroke-miterlimit:10;" cx="499.17" cy="666.13" r="18.482"/>
		
			<path id="XMLID_44_" style="fill:none;stroke:#FFFFFF;stroke-width:2;stroke-linecap:round;stroke-linejoin:round;stroke-miterlimit:10;" d="
			M494.656,655.572c1.386-0.595,2.912-0.924,4.513-0.924"/>
		
			<path id="XMLID_43_" style="fill:none;stroke:#FFFFFF;stroke-width:2;stroke-linecap:round;stroke-linejoin:round;stroke-miterlimit:10;" d="
			M487.688,666.129c0-3.7,1.759-6.997,4.485-9.098"/>
	</g>
	<g id="XMLID_49_">
		<circle id="XMLID_54_" style="fill:#F74B71;" cx="499.17" cy="737.419" r="18.482"/>
		<path id="XMLID_53_" style="fill:#DD3E68;" d="M511.203,723.41c0.286,1.292,0.449,2.631,0.449,4.01
			c0,10.207-8.275,18.482-18.482,18.482c-4.6,0-8.798-1.691-12.033-4.472c1.833,8.277,9.204,14.472,18.033,14.472
			c10.207,0,18.482-8.275,18.482-18.482C517.652,731.812,515.145,726.799,511.203,723.41z"/>
		
			<circle id="XMLID_52_" style="fill:none;stroke:#34323A;stroke-width:8;stroke-linecap:round;stroke-linejoin:round;stroke-miterlimit:10;" cx="499.17" cy="737.419" r="18.482"/>
		
			<path id="XMLID_51_" style="fill:none;stroke:#FFFFFF;stroke-width:2;stroke-linecap:round;stroke-linejoin:round;stroke-miterlimit:10;" d="
			M494.656,726.862c1.386-0.595,2.912-0.924,4.513-0.924"/>
		
			<path id="XMLID_50_" style="fill:none;stroke:#FFFFFF;stroke-width:2;stroke-linecap:round;stroke-linejoin:round;stroke-miterlimit:10;" d="
			M487.688,737.419c0-3.7,1.759-6.997,4.485-9.098"/>
	</g>
	<g id="XMLID_10_">
		<circle id="XMLID_28_" style="fill:#F46A4A;" cx="503.662" cy="427.923" r="19.508"/>
		<path id="XMLID_78_" style="opacity:0.8;fill:#F46A4A;" d="M507.412,408.784c2.297,3.2,3.665,7.113,3.665,11.353
			c0,10.774-8.734,19.508-19.508,19.508c-1.284,0-2.536-0.132-3.75-0.369c3.54,4.931,9.309,8.155,15.843,8.155
			c10.774,0,19.508-8.734,19.508-19.508C523.17,418.433,516.39,410.533,507.412,408.784z"/>
		
			<circle id="XMLID_11_" style="fill:none;stroke:#34323A;stroke-width:8;stroke-linecap:round;stroke-linejoin:round;stroke-miterlimit:10;" cx="503.662" cy="427.923" r="19.508"/>
		
			<circle id="XMLID_16_" style="fill:none;stroke:#34323A;stroke-width:6;stroke-linecap:round;stroke-linejoin:round;stroke-miterlimit:10;" cx="503.662" cy="427.923" r="7.787"/>
	</g>
	<circle id="XMLID_12_" style="fill:#34323A;" cx="472.826" cy="457.592" r="5.758"/>
	<circle id="XMLID_14_" style="fill:#34323A;" cx="485.811" cy="467.563" r="5.758"/>
	<circle id="XMLID_17_" style="fill:#34323A;" cx="503.662" cy="469.108" r="5.758"/>
	<circle id="XMLID_18_" style="fill:#34323A;" cx="519.615" cy="467.563" r="5.758"/>
	<circle id="XMLID_19_" style="fill:#34323A;" cx="534.498" cy="457.592" r="5.758"/>
	<path id="XMLID_62_" style="fill:#F74B71;" d="M412.348,467.284c-9.825-2.776-20.175,2.575-22.751,11.8
		c-2.24,8.02-4.282,17.878-4.282,27.155c0,20.535,13.874,16.474,45.909,26.517c31.049,9.733,110.424,12.55,146.164-1.068
		c31.405-11.966,31.621-11.605,37.781-25.448c6.16-13.843,5.043-47.662-33.344-37.412
		C541.709,479.539,534.437,501.777,412.348,467.284z"/>
	<path id="XMLID_85_" style="fill:#DD3E68;" d="M600.348,467.407c0.558,6.51-0.673,13.104-2.671,17.595
		c-6.16,13.843-6.376,13.482-37.781,25.448c-35.74,13.618-115.115,10.802-146.164,1.068c-11.882-3.725-21.26-5.509-28.364-7.328
		c-0.021,0.684-0.054,1.37-0.054,2.048c0,20.535,13.874,16.474,45.909,26.517c31.049,9.733,110.424,12.55,146.164-1.068
		c31.405-11.966,31.621-11.605,37.781-25.448C620.118,495.113,620.363,471.093,600.348,467.407z"/>
	<path id="XMLID_70_" style="fill:#FFFFFF;" d="M448.082,474.865c2.08-0.476-25.173,35.554-12.366,57.961
		c12.4,2.393,15.353,2.985,15.482,2.986c-1.307,0.519,5.556-54.044,16.971-57.296C447.117,474.855,448.459,474.869,448.082,474.865z
		"/>
	<path id="XMLID_86_" style="fill:#C1C1C1;" d="M451.198,535.813c-0.499,0.198,0.195-7.642,1.878-17.587
		c-7.388-0.657-14.364-1.512-20.671-2.538c-0.469,6.028,0.345,11.949,3.311,17.138C448.116,535.22,451.069,535.812,451.198,535.813z
		"/>
	
		<path id="XMLID_71_" style="fill:none;stroke:#34323A;stroke-width:6;stroke-linecap:round;stroke-linejoin:round;stroke-miterlimit:10;" d="
		M448.082,474.865c2.08-0.476-25.173,35.554-12.366,57.961c12.4,2.393,15.353,2.985,15.482,2.986
		c-1.307,0.519,5.556-54.044,16.971-57.296C447.117,474.855,448.459,474.869,448.082,474.865z"/>
	<path id="XMLID_72_" style="fill:#FFFFFF;" d="M503.77,482.552c0.873-0.558-2.654,11.725-5.866,22.787
		c-2.929,11.346-5.668,26.206-0.582,36.939c14.455,0.139,26.229-1.344,26.376-1.352c-0.87,0.162-0.23-7.54,1.456-21.972
		c2.4-14.39,1.802-29.886,6.851-33.09C508.695,487.379,504.173,482.516,503.77,482.552z"/>
	<path id="XMLID_87_" style="fill:#C1C1C1;" d="M525.154,518.954c0.062-0.369,0.12-0.74,0.178-1.111
		c-9.611,1.073-19.901,1.67-30.3,1.85c-0.929,7.362-0.822,14.892,1.707,21.197c8.883,0.195,17.902,0.106,26.696-0.306
		C523.014,538.958,523.688,531.504,525.154,518.954z"/>
	
		<path id="XMLID_73_" style="fill:none;stroke:#34323A;stroke-width:6;stroke-linecap:round;stroke-linejoin:round;stroke-miterlimit:10;" d="
		M503.77,482.552c0.873-0.558-2.654,11.725-5.866,22.787c-2.929,11.346-5.668,26.206-0.582,36.939
		c14.455,0.139,26.229-1.344,26.376-1.352c-0.87,0.162-0.23-7.54,1.456-21.972c2.4-14.39,1.802-29.886,6.851-33.09
		C508.695,487.379,504.173,482.516,503.77,482.552z"/>
	<path id="XMLID_76_" style="fill:#FFFFFF;" d="M561.543,474.279c-0.079-0.82-2.279,6.173-1.206,18.378
		c-0.43,12.491,3.992,33.288,14.226,40.401c8.478-3.629,19.043-8.744,19.169-8.805c-0.913,0.44,0.69-7.067-2.2-22.053
		c-2.472-15.341-11.201-29.164-9.918-32.841C567.06,477.008,560.909,474.28,561.543,474.279z"/>
	<path id="XMLID_88_" style="fill:#C1C1C1;" d="M591.531,502.2c-0.294-1.826-0.679-3.63-1.123-5.398
		c-4.278,3.711-11.547,6.431-28.33,12.818c2.088,9.405,6.069,18.726,12.15,23.188c1.086-0.361,2.143-0.734,3.16-1.121
		c0.762-0.29,1.491-0.568,2.217-0.844c7.119-3.196,14.025-6.54,14.127-6.589C592.818,524.693,594.421,517.186,591.531,502.2z"/>
	
		<path id="XMLID_75_" style="fill:none;stroke:#34323A;stroke-width:6;stroke-linecap:round;stroke-linejoin:round;stroke-miterlimit:10;" d="
		M561.543,474.279c-0.079-0.82-3.152,12.074-1.089,24.151c2.81,16.454,7.746,32.191,14.108,34.628
		c8.478-3.629,19.043-8.744,19.169-8.805c-0.913,0.44,0.69-7.067-2.2-22.053c-2.472-15.341-11.201-29.164-9.918-32.841
		C567.06,477.008,560.909,474.28,561.543,474.279z"/>
	
		<path id="XMLID_20_" style="fill:none;stroke:#34323A;stroke-width:12;stroke-linecap:round;stroke-linejoin:round;stroke-miterlimit:10;" d="
		M412.348,467.284c-9.825-2.776-20.175,2.575-22.751,11.8c-2.24,8.02-4.282,17.878-4.282,27.155
		c0,20.535,13.874,16.474,45.909,26.517c31.049,9.733,110.424,12.55,146.164-1.068c31.405-11.966,31.621-11.605,37.781-25.448
		c6.16-13.843,5.043-47.662-33.344-37.412C541.709,479.539,534.437,501.777,412.348,467.284z"/>
	<path id="XMLID_4_" style="fill:#B55D4C;" d="M373.542,622.649l-79.466-32.202l-47.519-61.031l-54.547,3.392l41.975-20.397
		L195.7,473.321l-57.616-15.729l60.528-6.713l29.753,24.942l3.452-58.472c0,0,29.085,92.586,33.956,97.456
		c14.743,14.743,42.234,49.175,42.234,49.175s37.78,17.18,65.535,36.721V622.649z"/>
	<path id="XMLID_105_" style="opacity:0.5;fill:#E27F71;" d="M308.007,563.98c0,0-27.492-34.432-42.234-49.175
		c-4.871-4.871-33.956-97.456-33.956-97.456l-3.452,58.472l-29.753-24.942l-8.609,0.955l38.494,38.321
		c3.409,3.394,9.092,2.719,11.611-1.379h0l15.706,31.223l46.511,57.239l71.218,36.964v-13.501
		C345.787,581.16,308.007,563.98,308.007,563.98z"/>
	
		<path id="XMLID_26_" style="fill:none;stroke:#34323A;stroke-width:12;stroke-linecap:round;stroke-linejoin:round;stroke-miterlimit:10;" d="
		M373.542,622.649l-79.466-32.202l-47.519-61.031l-54.547,3.392l41.975-20.397L195.7,473.321l-57.616-15.729l60.528-6.713
		l29.753,24.942l3.452-58.472c0,0,29.085,92.586,33.956,97.456c14.743,14.743,42.234,49.175,42.234,49.175
		s37.78,17.18,65.535,36.721l2.02,3.614C378.868,610.231,378.057,617.594,373.542,622.649L373.542,622.649z"/>
	<path id="XMLID_56_" style="fill:#FFFFFF;" d="M650.421,131.126c0,1.749-0.019,3.092-0.055,7.037
		c-0.036,0.23-0.091,2.442-0.163,2.452c-0.144-3.495-0.358-1.017-0.639-2.049c-0.14,4.996-0.297,1.09-0.469,1.393
		c-0.173,3.808-0.361,0.467-0.565,3.249c-0.408,0.861-0.878,5.079-1.406,2.186c-0.528,3.01-1.114,3.091-1.754,3.999
		c-0.64,1.066-1.333,1.802-2.077,2.025c-1.487-0.871-3.172,5.921-5.024,5.025c-1.852,3.491-3.871-4.287-6.024,3.83
		c-2.153-0.476-4.44,1.094-6.829,2.441c-2.389-2.592-4.88,0.594-7.439,0.857c-2.56-0.928-5.05,1.197-7.439-0.857
		c-2.389-4.404-4.676-0.125-6.829-2.441c-2.153,7.238-4.172,0.808-6.024-3.83c-1.852-0.924-3.538,6.565-5.025-5.025
		c-1.487-3.94-2.774-0.82-3.83-6.024c-0.528,1.916-0.998-1.142-1.406-4.004c-0.408-4.548-0.754-4.653-1.035-2.826
		c-0.28-2.283-0.494-1.9-0.639-4.323c-0.144-7.32-0.218-2.356-0.218-3.117c0,1.067,0.074,1.208,0.218-0.441
		c0.144-5.211,0.358-3.205,0.639-6.999c0.28,1.785,0.626-2.702,1.035-3.153c0.408,1.238,0.878-2.951,1.406-3.676
		c0.528-2.305,1.114-0.759,1.754-3.578c0.64-3.715,1.333-3.167,2.076-2.446c0.743,1.967,1.536-1.724,2.375-3.132
		c0.839-1.896,1.723-2.749,2.649-1.893c1.852,0.722,3.871-6.794,6.024-3.83c2.153,2.591,4.44-4.929,6.829-2.441
		c2.389-3.38,4.88-5.833,7.439-0.857c2.56-2.626,5.05-0.006,7.439,0.857c2.389,7.442,4.676,3.609,6.829,2.441
		c2.153-1.393,4.172,1.696,6.024,3.83c1.852,5.813,3.538,3.163,5.025,5.025c0.372-0.44,0.731-0.04,1.077,0.746
		c0.346,0.786,0.68,0.433,0.999,3.065c0.32-2.105,0.626,5.46,0.919,2.975c0.292,4.263,0.571-3.478,0.835-0.762
		c0.528-0.021,0.998-2.525,1.406,2.118c0.204,0.447,0.393-1.756,0.565,1.22c0.173,8.151,0.329-0.038,0.469,3.49
		c0.14,1.981,0.264,7.031,0.37,3.347c0.107,3.349,0.196,2.672,0.268,1.304C650.347,136.844,650.421,130.523,650.421,131.126z"/>
	<path id="XMLID_58_" style="fill:#FFFFFF;" d="M650.421,131.126c0,1.749-0.019,3.092-0.055,7.037
		c-0.036,0.23-0.091,2.442-0.163,2.452c-0.144-3.495-0.358-1.017-0.639-2.049c-0.14,4.996-0.297,1.09-0.469,1.393
		c-0.173,3.808-0.361,0.467-0.565,3.249c-0.408,0.861-0.878,5.079-1.406,2.186c-0.528,3.01-1.114,3.091-1.754,3.999
		c-0.64,1.066-1.333,1.802-2.077,2.025c-1.487-0.871-3.172,5.921-5.024,5.025c-1.852,3.491-3.871-4.287-6.024,3.83
		c-2.153-0.476-4.44,1.094-6.829,2.441c-2.389-2.592-4.88,0.594-7.439,0.857c-2.56-0.928-5.05,1.197-7.439-0.857
		c-2.389-4.404-4.676-0.125-6.829-2.441c-2.153,7.238-4.172,0.808-6.024-3.83c-1.852-0.924-3.538,6.565-5.025-5.025
		c-1.487-3.94-2.774-0.82-3.83-6.024c-0.528,1.916-0.998-1.142-1.406-4.004c-0.408-4.548-0.754-4.653-1.035-2.826
		c-0.28-2.283-0.494-1.9-0.639-4.323c-0.144-7.32-0.218-2.356-0.218-3.117c0,1.067,0.074,1.208,0.218-0.441
		c0.144-5.211,0.358-3.205,0.639-6.999c0.28,1.785,0.626-2.702,1.035-3.153c0.408,1.238,0.878-2.951,1.406-3.676
		c0.528-2.305,1.114-0.759,1.754-3.578c0.64-3.715,1.333-3.167,2.076-2.446c0.743,1.967,1.536-1.724,2.375-3.132
		c0.839-1.896,1.723-2.749,2.649-1.893c1.852,0.722,3.871-6.794,6.024-3.83c2.153,2.591,4.44-4.929,6.829-2.441
		c2.389-3.38,4.88-5.833,7.439-0.857c2.56-2.626,5.05-0.006,7.439,0.857c2.389,7.442,4.676,3.609,6.829,2.441
		c2.153-1.393,4.172,1.696,6.024,3.83c1.852,5.813,3.538,3.163,5.025,5.025c0.372-0.44,0.731-0.04,1.077,0.746
		c0.346,0.786,0.68,0.433,0.999,3.065c0.32-2.105,0.626,5.46,0.919,2.975c0.292,4.263,0.571-3.478,0.835-0.762
		c0.528-0.021,0.998-2.525,1.406,2.118c0.204,0.447,0.393-1.756,0.565,1.22c0.173,8.151,0.329-0.038,0.469,3.49
		c0.14,1.981,0.264,7.031,0.37,3.347c0.107,3.349,0.196,2.672,0.268,1.304C650.347,136.844,650.421,130.523,650.421,131.126z"/>
	<path id="XMLID_63_" style="fill:#DDDDDD;" d="M650.203,128.338c-0.072,1.367-0.162,2.045-0.268-1.304
		c-0.107,3.684-0.23-1.366-0.37-3.347c-0.14-3.529-0.297,4.661-0.469-3.49c-0.173-2.977-0.361-0.773-0.565-1.22
		c-0.408-4.644-0.878-2.139-1.406-2.118c-0.264-2.716-0.542,5.025-0.835,0.762c-0.292,2.485-0.599-5.08-0.919-2.975
		c-0.32-2.632-0.653-2.279-0.999-3.065c-0.346-0.786-0.705-1.186-1.077-0.746c-1.487-1.862-3.172,0.789-5.025-5.025
		c-1.829-2.107-3.82-5.136-5.943-3.873c0.165,6.751,0.316-0.727,0.451,2.674c0.14,1.981,0.264,7.031,0.37,3.347
		c0.107,3.349,0.196,2.672,0.268,1.304c0.144,8.505,0.218,2.184,0.218,2.788c0,1.749-0.018,3.092-0.055,7.037
		c-0.037,0.23-0.091,2.442-0.163,2.452c-0.144-3.495-0.358-1.017-0.639-2.049c-0.14,4.996-0.297,1.09-0.469,1.393
		c-0.173,3.808-0.361,0.467-0.565,3.249c-0.408,0.861-0.878,5.079-1.406,2.186c-0.528,3.01-1.114,3.091-1.754,3.999
		c-0.64,1.066-1.333,1.802-2.076,2.025c-1.487-0.871-3.172,5.921-5.025,5.025c-1.852,3.491-3.871-4.287-6.024,3.83
		c-2.153-0.476-4.44,1.094-6.829,2.441c-2.389-2.592-4.88,0.594-7.439,0.857c-2.56-0.928-5.05,1.197-7.439-0.857
		c-2.191-4.04-4.297-0.787-6.292-2.007c0.4,2.789,0.858,5.626,1.372,3.764c1.056,5.205,2.343,2.084,3.83,6.024
		c1.487,11.59,3.172,4.1,5.024,5.025c1.852,4.638,3.871,11.068,6.024,3.83c2.153,2.315,4.44-1.963,6.829,2.441
		c2.389,2.054,4.88-0.071,7.439,0.857c2.56-0.263,5.05-3.449,7.439-0.857c2.389-1.347,4.676-2.917,6.829-2.441
		c2.153-8.117,4.172-0.34,6.024-3.83c1.852,0.896,3.538-5.895,5.025-5.025c0.743-0.223,1.437-0.96,2.076-2.025
		c0.64-0.907,1.226-0.989,1.754-3.999c0.528,2.892,0.998-1.325,1.406-2.186c0.204-2.782,0.393,0.559,0.565-3.249
		c0.173-0.303,0.329,3.603,0.469-1.393c0.28,1.032,0.494-1.446,0.639,2.049c0.072-0.01,0.127-2.221,0.163-2.452
		c0.037-3.945,0.055-5.288,0.055-7.037C650.421,130.523,650.347,136.844,650.203,128.338z"/>
	
		<path id="XMLID_83_" style="fill:none;stroke:#34323A;stroke-width:8;stroke-linecap:round;stroke-linejoin:round;stroke-miterlimit:10;" d="
		M650.421,131.126c0,1.749-0.019,3.092-0.055,7.037c-0.036,0.23-0.091,2.442-0.163,2.452c-0.144-3.495-0.358-1.017-0.639-2.049
		c-0.14,4.996-0.297,1.09-0.469,1.393c-0.173,3.808-0.361,0.467-0.565,3.249c-0.408,0.861-0.878,5.079-1.406,2.186
		c-0.528,3.01-1.114,3.091-1.754,3.999c-0.64,1.066-1.333,1.802-2.077,2.025c-1.487-0.871-3.172,5.921-5.024,5.025
		c-1.852,3.491-3.871-4.287-6.024,3.83c-2.153-0.476-4.44,1.094-6.829,2.441c-2.389-2.592-4.88,0.594-7.439,0.857
		c-2.56-0.928-5.05,1.197-7.439-0.857c-2.389-4.404-4.676-0.125-6.829-2.441c-2.153,7.238-4.172,0.808-6.024-3.83
		c-1.852-0.924-3.538,6.565-5.025-5.025c-1.487-3.94-2.774-0.82-3.83-6.024c-0.528,1.916-0.998-1.142-1.406-4.004
		c-0.408-4.548-0.754-4.653-1.035-2.826c-0.28-2.283-0.494-1.9-0.639-4.323c-0.144-7.32-0.218-2.356-0.218-3.117
		c0,1.067,0.074,1.208,0.218-0.441c0.144-5.211,0.358-3.205,0.639-6.999c0.28,1.785,0.626-2.702,1.035-3.153
		c0.408,1.238,0.878-2.951,1.406-3.676c0.528-2.305,1.114-0.759,1.754-3.578c0.64-3.715,1.333-3.167,2.076-2.446
		c0.743,1.967,1.536-1.724,2.375-3.132c0.839-1.896,1.723-2.749,2.649-1.893c1.852,0.722,3.871-6.794,6.024-3.83
		c2.153,2.591,4.44-4.929,6.829-2.441c2.389-3.38,4.88-5.833,7.439-0.857c2.56-2.626,5.05-0.006,7.439,0.857
		c2.389,7.442,4.676,3.609,6.829,2.441c2.153-1.393,4.172,1.696,6.024,3.83c1.852,5.813,3.538,3.163,5.025,5.025
		c0.372-0.44,0.731-0.04,1.077,0.746c0.346,0.786,0.68,0.433,0.999,3.065c0.32-2.105,0.626,5.46,0.919,2.975
		c0.292,4.263,0.571-3.478,0.835-0.762c0.528-0.021,0.998-2.525,1.406,2.118c0.204,0.447,0.393-1.756,0.565,1.22
		c0.173,8.151,0.329-0.038,0.469,3.49c0.14,1.981,0.264,7.031,0.37,3.347c0.107,3.349,0.196,2.672,0.268,1.304
		C650.347,136.844,650.421,130.523,650.421,131.126z"/>
	<path id="XMLID_91_" style="fill:#DDDDDD;" d="M606.756,735.233c0,0.635-0.162,1.147-0.465,2.402
		c-0.152,1.037-0.339,1.195-0.558,1.078c-0.22-1.123-0.472,2.873-0.755,3.094c-0.141,0.618-0.29,2.405-0.446,3.222
		c-0.156,0.817-0.319,1.391-0.489,1.765c-0.34,0.748-0.708,0.698-1.101,0.193c-0.786-1.423-1.671-2.846-2.636-0.508
		c-0.965-1.247-2.009-0.307-3.111,2.557c-1.103,0.061-2.264,1.641-3.462-0.779c-1.199,0.343-2.36,0.624-3.463,1.023
		c-1.103-0.92-2.147-1.487-3.111-2.801c-0.965,1.53-1.85,2.378-2.636-0.637c-0.393,0.112-0.761-0.168-1.101-0.841
		c-0.34-0.803-0.653-1.154-0.936-3.195c-0.565,1.822-1.01-1.772-1.313-3.424c-0.303-0.62-0.465-2.205-0.465-3.149
		c0-0.47,0.162-2.366,0.465-3.71c0.303-1.676,0.748-2.758,1.313-2.864c0.565-2.611,1.251-3.467,2.037-3.058
		c0.786-1.532,1.671,3.189,2.636-1.615c0.965,0.803,2.009,0.636,3.111-0.555c0.551-0.393,1.117-2.363,1.695-1.921
		c0.578,0.543,1.168-0.639,1.767,0.698c0.599,0.576,1.189-1.21,1.767-1.242c0.578-0.901,1.144,4.388,1.695,2.753
		c1.103,0.999,2.147,2.968,3.111,0.267c0.482,0.874,0.945-0.443,1.385,1.408c0.44-0.645,0.858-0.972,1.251,4.334
		c0.393,0.836,0.761,2.079,1.101,2.661c0.34-1.26,0.653-0.171,0.936-3.73c0.565,3.277,1.01,4.952,1.313,3.731
		C606.594,733.546,606.756,733.216,606.756,735.233z"/>
	<path id="XMLID_107_" style="fill:#EFF1FF;" d="M593.731,731.533c0-2.192-0.795,5.12-2.08,5.744
		c-1.285,4.193-3.061,3.525-5.023,2.379c-1.961,0.441-3.737-0.067-5.023-2.379c-1.285-4.764-2.08-1.432-2.08-5.744
		c0-0.367,0.795-5.868,2.08-5.744c1.285-3.109,3.061-2.433,5.023-2.379c1.961-0.856,3.737,2.365,5.023,2.379
		C592.936,727.091,593.731,726.982,593.731,731.533z"/>
	
		<path id="XMLID_93_" style="fill:none;stroke:#34323A;stroke-width:6;stroke-linecap:round;stroke-linejoin:round;stroke-miterlimit:10;" d="
		M606.756,735.233c0,0.635-0.162,1.147-0.465,2.402c-0.152,1.037-0.339,1.195-0.558,1.078c-0.22-1.123-0.472,2.873-0.755,3.094
		c-0.141,0.618-0.29,2.405-0.446,3.222c-0.156,0.817-0.319,1.391-0.489,1.765c-0.34,0.748-0.708,0.698-1.101,0.193
		c-0.786-1.423-1.671-2.846-2.636-0.508c-0.965-1.247-2.009-0.307-3.111,2.557c-1.103,0.061-2.264,1.641-3.462-0.779
		c-1.199,0.343-2.36,0.624-3.463,1.023c-1.103-0.92-2.147-1.487-3.111-2.801c-0.965,1.53-1.85,2.378-2.636-0.637
		c-0.393,0.112-0.761-0.168-1.101-0.841c-0.34-0.803-0.653-1.154-0.936-3.195c-0.565,1.822-1.01-1.772-1.313-3.424
		c-0.303-0.62-0.465-2.205-0.465-3.149c0-0.47,0.162-2.366,0.465-3.71c0.303-1.676,0.748-2.758,1.313-2.864
		c0.565-2.611,1.251-3.467,2.037-3.058c0.786-1.532,1.671,3.189,2.636-1.615c0.965,0.803,2.009,0.636,3.111-0.555
		c0.551-0.393,1.117-2.363,1.695-1.921c0.578,0.543,1.168-0.639,1.767,0.698c0.599,0.576,1.189-1.21,1.767-1.242
		c0.578-0.901,1.144,4.388,1.695,2.753c1.103,0.999,2.147,2.968,3.111,0.267c0.482,0.874,0.945-0.443,1.385,1.408
		c0.44-0.645,0.858-0.972,1.251,4.334c0.393,0.836,0.761,2.079,1.101,2.661c0.34-1.26,0.653-0.171,0.936-3.73
		c0.565,3.277,1.01,4.952,1.313,3.731C606.594,733.546,606.756,733.216,606.756,735.233z"/>
	<path id="XMLID_94_" style="fill:#DDDDDD;" d="M643.301,737.421c0,0.635-0.162,1.147-0.465,2.402
		c-0.152,1.037-0.339,1.195-0.558,1.078c-0.22-1.123-0.472,2.873-0.755,3.094c-0.141,0.618-0.29,2.405-0.446,3.222
		c-0.156,0.817-0.319,1.391-0.489,1.765c-0.34,0.748-0.708,0.698-1.101,0.193c-0.786-1.423-1.671-2.846-2.636-0.508
		c-0.965-1.247-2.009-0.307-3.111,2.557c-1.103,0.061-2.264,1.641-3.463-0.779c-1.199,0.343-2.36,0.624-3.462,1.023
		c-1.103-0.92-2.147-1.487-3.111-2.801c-0.965,1.53-1.85,2.378-2.636-0.637c-0.393,0.112-0.761-0.168-1.101-0.841
		c-0.34-0.803-0.653-1.154-0.936-3.195c-0.565,1.822-1.01-1.772-1.313-3.424c-0.303-0.62-0.465-2.205-0.465-3.149
		c0-0.47,0.162-2.366,0.465-3.71c0.303-1.676,0.748-2.758,1.313-2.864c0.565-2.611,1.251-3.467,2.037-3.058
		c0.786-1.532,1.671,3.189,2.636-1.615c0.965,0.803,2.009,0.636,3.111-0.555c0.551-0.393,1.117-2.363,1.695-1.922
		c0.578,0.543,1.168-0.639,1.767,0.698c0.599,0.576,1.189-1.21,1.767-1.242c0.578-0.901,1.144,4.388,1.695,2.753
		c1.103,0.999,2.147,2.968,3.111,0.267c0.482,0.874,0.945-0.443,1.385,1.408c0.44-0.644,0.858-0.972,1.251,4.334
		c0.393,0.836,0.761,2.079,1.101,2.661c0.34-1.26,0.653-0.171,0.936-3.73c0.565,3.277,1.01,4.952,1.313,3.731
		C643.139,735.734,643.301,735.405,643.301,737.421z"/>
	<path id="XMLID_109_" style="fill:#EFF1FF;" d="M631.382,735.231c0,5.467-0.199,5.112-0.558,5.612
		c-0.359-0.071-0.88-1.1-1.522,0.131c-0.643-0.208-1.408,0.817-2.258-0.991c-0.85-0.48-1.784-0.058-2.765,3.37
		c-0.981,0.835-1.915,2.252-2.765,1.023c-0.85,1.354-1.615-4.357-2.258-3.402c-0.643,3.175-1.163,0.443-1.522-1.18
		c-0.359-4.209-0.558-6.366-0.558-4.564c0-1.99,0.199-2.395,0.558-3.953c0.359-1.793,0.88-0.611,1.522-1.791
		c0.643-0.172,1.408,0.149,2.258-0.839c0.85,0.266,1.784,0.063,2.765-1.54c0.981,0.112,1.915-1.631,2.765-0.373
		c0.85-0.016,1.615-0.092,2.258,2.752c0.643-0.108,1.163-0.094,1.522,1.981C631.183,733.965,631.382,733.813,631.382,735.231z"/>
	
		<path id="XMLID_95_" style="fill:none;stroke:#34323A;stroke-width:6;stroke-linecap:round;stroke-linejoin:round;stroke-miterlimit:10;" d="
		M643.301,737.421c0,0.635-0.162,1.147-0.465,2.402c-0.152,1.037-0.339,1.195-0.558,1.078c-0.22-1.123-0.472,2.873-0.755,3.094
		c-0.141,0.618-0.29,2.405-0.446,3.222c-0.156,0.817-0.319,1.391-0.489,1.765c-0.34,0.748-0.708,0.698-1.101,0.193
		c-0.786-1.423-1.671-2.846-2.636-0.508c-0.965-1.247-2.009-0.307-3.111,2.557c-1.103,0.061-2.264,1.641-3.463-0.779
		c-1.199,0.343-2.36,0.624-3.462,1.023c-1.103-0.92-2.147-1.487-3.111-2.801c-0.965,1.53-1.85,2.378-2.636-0.637
		c-0.393,0.112-0.761-0.168-1.101-0.841c-0.34-0.803-0.653-1.154-0.936-3.195c-0.565,1.822-1.01-1.772-1.313-3.424
		c-0.303-0.62-0.465-2.205-0.465-3.149c0-0.47,0.162-2.366,0.465-3.71c0.303-1.676,0.748-2.758,1.313-2.864
		c0.565-2.611,1.251-3.467,2.037-3.058c0.786-1.532,1.671,3.189,2.636-1.615c0.965,0.803,2.009,0.636,3.111-0.555
		c0.551-0.393,1.117-2.363,1.695-1.922c0.578,0.543,1.168-0.639,1.767,0.698c0.599,0.576,1.189-1.21,1.767-1.242
		c0.578-0.901,1.144,4.388,1.695,2.753c1.103,0.999,2.147,2.968,3.111,0.267c0.482,0.874,0.945-0.443,1.385,1.408
		c0.44-0.644,0.858-0.972,1.251,4.334c0.393,0.836,0.761,2.079,1.101,2.661c0.34-1.26,0.653-0.171,0.936-3.73
		c0.565,3.277,1.01,4.952,1.313,3.731C643.139,735.734,643.301,735.405,643.301,737.421z"/>
	<path id="XMLID_96_" style="fill:#DDDDDD;" d="M677.194,732.872c0,0.635-0.162,1.147-0.465,2.402
		c-0.152,1.037-0.339,1.195-0.558,1.078c-0.22-1.123-0.472,2.873-0.755,3.094c-0.141,0.618-0.29,2.405-0.446,3.222
		c-0.156,0.817-0.319,1.391-0.489,1.765c-0.34,0.749-0.708,0.698-1.101,0.193c-0.786-1.423-1.671-2.846-2.636-0.508
		c-0.965-1.247-2.009-0.307-3.111,2.557c-1.103,0.061-2.264,1.641-3.462-0.779c-1.199,0.343-2.36,0.624-3.463,1.023
		c-1.103-0.92-2.147-1.487-3.111-2.801c-0.965,1.53-1.85,2.378-2.636-0.637c-0.393,0.112-0.761-0.168-1.101-0.841
		c-0.34-0.803-0.653-1.154-0.936-3.195c-0.565,1.822-1.01-1.772-1.313-3.424c-0.303-0.62-0.465-2.205-0.465-3.149
		c0-0.47,0.162-2.366,0.465-3.71c0.303-1.676,0.748-2.758,1.313-2.864c0.565-2.611,1.251-3.467,2.037-3.058
		c0.786-1.532,1.671,3.189,2.636-1.615c0.965,0.803,2.009,0.636,3.111-0.555c0.551-0.393,1.117-2.363,1.695-1.921
		c0.578,0.543,1.168-0.639,1.767,0.698c0.599,0.576,1.189-1.21,1.767-1.242c0.578-0.901,1.144,4.388,1.695,2.753
		c1.103,0.999,2.147,2.968,3.111,0.267c0.482,0.874,0.945-0.443,1.385,1.408c0.44-0.644,0.858-0.972,1.251,4.334
		c0.393,0.836,0.761,2.079,1.101,2.661c0.34-1.26,0.653-0.171,0.936-3.73c0.565,3.277,1.01,4.952,1.313,3.731
		C677.033,731.185,677.194,730.856,677.194,732.872z"/>
	<path id="XMLID_110_" style="fill:#EFF1FF;" d="M665.468,732.87c0-3.214-0.795-0.164-2.08,5.744
		c-1.285-0.502-3.061,1.299-5.023,2.379c-1.961-2.293-3.737-3.138-5.023-2.379c-1.285-1.778-2.08-5.851-2.08-5.744
		c0-1.953,0.795-6.682,2.08-5.744c1.285-3.38,3.061-2.679,5.023-2.379c1.961-2.815,3.737,1.039,5.023,2.379
		C664.673,727.548,665.468,725.649,665.468,732.87z"/>
	
		<path id="XMLID_108_" style="fill:none;stroke:#34323A;stroke-width:6;stroke-linecap:round;stroke-linejoin:round;stroke-miterlimit:10;" d="
		M677.194,732.872c0,0.635-0.162,1.147-0.465,2.402c-0.152,1.037-0.339,1.195-0.558,1.078c-0.22-1.123-0.472,2.873-0.755,3.094
		c-0.141,0.618-0.29,2.405-0.446,3.222c-0.156,0.817-0.319,1.391-0.489,1.765c-0.34,0.749-0.708,0.698-1.101,0.193
		c-0.786-1.423-1.671-2.846-2.636-0.508c-0.965-1.247-2.009-0.307-3.111,2.557c-1.103,0.061-2.264,1.641-3.462-0.779
		c-1.199,0.343-2.36,0.624-3.463,1.023c-1.103-0.92-2.147-1.487-3.111-2.801c-0.965,1.53-1.85,2.378-2.636-0.637
		c-0.393,0.112-0.761-0.168-1.101-0.841c-0.34-0.803-0.653-1.154-0.936-3.195c-0.565,1.822-1.01-1.772-1.313-3.424
		c-0.303-0.62-0.465-2.205-0.465-3.149c0-0.47,0.162-2.366,0.465-3.71c0.303-1.676,0.748-2.758,1.313-2.864
		c0.565-2.611,1.251-3.467,2.037-3.058c0.786-1.532,1.671,3.189,2.636-1.615c0.965,0.803,2.009,0.636,3.111-0.555
		c0.551-0.393,1.117-2.363,1.695-1.921c0.578,0.543,1.168-0.639,1.767,0.698c0.599,0.576,1.189-1.21,1.767-1.242
		c0.578-0.901,1.144,4.388,1.695,2.753c1.103,0.999,2.147,2.968,3.111,0.267c0.482,0.874,0.945-0.443,1.385,1.408
		c0.44-0.644,0.858-0.972,1.251,4.334c0.393,0.836,0.761,2.079,1.101,2.661c0.34-1.26,0.653-0.171,0.936-3.73
		c0.565,3.277,1.01,4.952,1.313,3.731C677.033,731.185,677.194,730.856,677.194,732.872z"/>
</g>
</svg>
