<?xml version="1.0" encoding="iso-8859-1"?>
<!-- Generator: Adobe Illustrator 23.0.2, SVG Export Plug-In . SVG Version: 6.00 Build 0)  -->
<svg version="1.1" id="Layer_1" xmlns="http://www.w3.org/2000/svg" xmlns:xlink="http://www.w3.org/1999/xlink" x="0px" y="0px"
	 viewBox="0 0 1000 1000" style="enable-background:new 0 0 1000 1000;" xml:space="preserve">
<g id="XMLID_123_">
	<path id="XMLID_193_" style="fill:#34323A;" d="M96.164,293.873c0,0,2.902,0.989,8.43,2.507c5.52,1.543,13.68,3.56,24.126,5.797
		c5.235,1.073,11.019,2.286,17.361,3.39c3.164,0.582,6.457,1.18,9.892,1.708c3.428,0.56,6.965,1.202,10.64,1.755
		c14.679,2.346,31.343,4.274,49.507,6.289c18.183,1.922,37.942,3.332,58.841,4.607c20.918,1.056,42.977,2.048,65.827,2.287
		c2.855,0.05,5.722,0.1,8.6,0.15c1.439,0.025,2.881,0.05,4.325,0.076c1.445,0.001,2.893,0.003,4.344,0.004
		c5.801-0.001,11.644-0.002,17.523-0.003c2.939-0.001,5.886,0.043,8.843,0.007c2.957-0.042,5.921-0.083,8.894-0.125
		c5.944-0.083,11.917-0.167,17.914-0.251c11.993-0.332,24.08-0.667,36.216-1.003c12.131-0.538,24.309-1.078,36.487-1.618
		c12.171-0.723,24.347-1.357,36.466-2.149c12.117-0.862,24.187-1.72,36.161-2.572c11.967-0.987,23.84-1.966,35.57-2.933
		c11.722-1.1,23.301-2.186,34.691-3.255c2.848-0.268,5.684-0.534,8.507-0.799c2.821-0.296,5.629-0.592,8.423-0.885
		c5.59-0.59,11.126-1.175,16.603-1.753c5.479-0.569,10.899-1.132,16.254-1.689c5.356-0.55,10.632-1.223,15.846-1.816
		c10.43-1.191,20.576-2.349,30.389-3.469c9.805-1.22,19.278-2.4,28.372-3.532c9.089-1.18,17.839-2.072,26.112-3.246
		c8.29-1.081,16.154-2.106,23.544-3.069c7.395-0.957,14.315-1.853,20.715-2.682c6.395-0.872,12.269-1.673,17.574-2.397
		c10.608-1.476,18.969-2.515,24.665-3.256c5.703-0.709,8.744-1.088,8.744-1.088s-2.978,0.716-8.563,2.059
		c-5.591,1.311-13.784,3.281-24.245,5.636c-5.229,1.191-11.018,2.511-17.321,3.947c-6.33,1.299-13.176,2.703-20.49,4.204
		c-7.32,1.49-15.109,3.075-23.321,4.746c-2.056,0.405-4.138,0.814-6.246,1.229c-2.113,0.387-4.251,0.779-6.414,1.175
		c-4.329,0.784-8.758,1.587-13.281,2.407c-9.054,1.6-18.473,3.357-28.251,5c-9.794,1.548-19.92,3.149-30.329,4.794
		c-5.21,0.791-10.482,1.665-15.837,2.419c-5.358,0.734-10.782,1.477-16.265,2.229c-5.485,0.742-11.03,1.492-16.628,2.25
		c-2.8,0.377-5.613,0.755-8.438,1.136c-2.832,0.326-5.677,0.654-8.534,0.983c-11.431,1.291-23.042,2.714-34.818,3.952
		c-11.791,1.116-23.724,2.246-35.754,3.385c-12.052,0.908-24.199,1.824-36.394,2.743c-3.047,0.251-6.104,0.413-9.164,0.572
		c-3.059,0.165-6.12,0.331-9.183,0.497c-6.125,0.331-12.257,0.663-18.388,0.994c-12.268,0.585-24.549,0.935-36.775,1.361
		c-6.118,0.11-12.224,0.219-18.312,0.328c-6.088,0.088-12.156,0.25-18.205,0.232c-6.048-0.023-12.072-0.045-18.066-0.067
		c-2.997-0.011-5.986-0.023-8.967-0.034c-2.981-0.017-5.954-0.112-8.918-0.165c-5.927-0.146-11.818-0.291-17.667-0.435
		c-1.462-0.038-2.921-0.075-4.378-0.113c-1.456-0.061-2.91-0.123-4.361-0.184c-2.902-0.123-5.792-0.245-8.67-0.366
		c-23.026-0.898-45.256-2.594-66.292-4.52c-10.511-1.093-20.735-2.096-30.589-3.44c-4.928-0.655-9.782-1.185-14.526-1.911
		c-4.745-0.694-9.401-1.376-13.962-2.043c-4.559-0.669-9.006-1.468-13.36-2.17c-2.173-0.375-4.322-0.745-6.444-1.111
		c-2.116-0.405-4.207-0.805-6.271-1.199c-4.124-0.808-8.15-1.53-12.045-2.35c-3.892-0.825-7.673-1.627-11.336-2.404
		c-7.307-1.646-14.139-3.197-20.398-4.888c-6.281-1.585-12.001-3.238-17.167-4.707c-10.317-3.011-18.275-5.853-23.666-7.845
		C98.947,295.162,96.164,293.873,96.164,293.873z"/>
</g>
<path id="XMLID_140_" style="fill:#FF2727;" d="M276.117,415.789c0,0,0.645-94.408,14.716-108.479
	c14.071-14.071,29.6-9.793,33.619-5.774s14.888,14.467,14.888,14.467s-14.102-5.084-20.794,1.607s-17.311,102.883-17.311,102.883
	L276.117,415.789z"/>
<path id="XMLID_139_" style="fill:none;stroke:#34323A;stroke-width:10;stroke-linecap:round;stroke-linejoin:round;stroke-miterlimit:10;" d="
	M276.117,415.789c0,0,0.645-94.408,14.716-108.479c14.071-14.071,29.6-9.793,33.619-5.774s14.888,14.467,14.888,14.467
	s-14.102-5.084-20.794,1.607s-17.311,102.883-17.311,102.883L276.117,415.789z"/>
<g id="XMLID_11_">
	<path id="XMLID_97_" style="fill:#FF2727;" d="M196.399,505.63l19.501,63.524c8.784,28.615,0.94,59.741-20.356,80.775
		l-24.772,24.468c-16.108,15.911-21.563,39.702-13.994,61.04l0.466,1.313c12.643,35.644,54.083,51.295,86.964,32.998l96.677-53.799
		c33.092-18.415,47.229-58.638,32.934-93.707c0,0-32.452-74.945-42.737-100.176c-6.785-16.646-30.351-65.087-30.351-65.087
		L196.399,505.63z"/>
	<path id="XMLID_120_" style="fill:#C92020;" d="M373.82,622.242c0,0-32.452-74.945-42.737-100.176
		c-6.785-16.646-30.351-65.087-30.351-65.087l-26.533,12.373c6.396,13.505,13.258,28.282,16.437,36.08
		c10.284,25.23,42.737,100.176,42.737,100.176c14.295,35.07,0.159,75.292-32.934,93.707l-96.677,53.799
		c-9.866,5.49-20.5,7.903-30.898,7.657c18.588,17.549,47.257,22.382,71.345,8.977l96.677-53.799
		C373.978,697.534,388.115,657.312,373.82,622.242z"/>
	<path id="XMLID_133_" style="fill:#C92020;" d="M261.922,510.499c3.012-9.36,10.814-8.45,17.936-8.364
		c7.767,1.469,12.524-2.885,16.482-7.686c6.468,0.581,10.394-3.023,13.573-6.329c1.567-1.134,3.64-0.808,5.425-0.671
		c-7.52-15.903-14.606-30.47-14.606-30.47L196.399,505.63l8.829,28.762c1.753-1.565,7.101,3.074,8.702-1.514
		c5.25,1.134,4.673-12.127,13.573-6.329c7.964,3.79,8.352-9.932,16.482-7.686C246.924,509.975,257.336,516.484,261.922,510.499z"/>
	
		<path id="XMLID_5_" style="fill:none;stroke:#34323A;stroke-width:12;stroke-linecap:round;stroke-linejoin:round;stroke-miterlimit:10;" d="
		M196.399,505.63l19.501,63.524c8.784,28.615,0.94,59.741-20.356,80.775l-24.772,24.468c-16.108,15.911-21.563,39.702-13.994,61.04
		l0.466,1.313c12.643,35.644,54.083,51.295,86.964,32.998l96.677-53.799c33.092-18.415,47.229-58.638,32.934-93.707
		c0,0-32.452-74.945-42.737-100.176c-6.785-16.646-30.351-65.087-30.351-65.087L196.399,505.63z"/>
	<path id="XMLID_106_" style="fill:#FFFFFF;" d="M318.865,466.987c0.095,0.203-3.391-4.108-3.393,1.582
		c0.421,6.599-5.681,1.739-9.21,4.295c-3.18,3.306-7.106,6.91-13.573,6.329c-3.958,4.801-8.715,9.155-16.482,7.686
		c-7.122-0.086-14.924-0.996-17.936,8.364c-4.586,5.985-14.999-0.524-17.936,8.364c-8.13-2.247-8.518,11.475-16.482,7.686
		c-8.9-5.798-8.323,7.463-13.573,6.329c-2.021,5.79-10.016-3.127-9.21,4.295c-0.386,4.867-5.334-2.58-3.393,1.582
		c-3.146,0.419-2.976,7.496-8.38,1.674c-2.355,0.716-4.426,1.095-7.597-2.328c-0.664,0.265-1.258,0.32-2.039-0.448
		c-0.781-0.768-1.749-2.36-3.16-5.387c-1.825-3.913-2.546-5.459-2.8-6.004c-3.465-7.431-2.43-5.211-3.124-6.7
		c0.292,0.625-0.2-0.429-3.035-6.51c1.664,3.57-1.277-2.738-0.971-2.083c-1.324-2.84-3.274-7.022-5.188-11.126
		c-0.092-0.198-1.283-2.75-2.8-6.004c-0.125-0.268-2.898-6.698-2.053-5.793c1.442,2.186-0.791-3.93,0.925-1.94
		c1.881,2.344,1.752,0.018,1.592-2.672c0.149-2.029,0.553-3.807,1.508-4.644c-0.494-6.825,4.459-2.917,6.669-5.344
		c0.004,0.008,0.661-1.746,3.393-1.582c1.104-3.327,5.476-2.178,9.21-4.295c4.236-1.041,7.75-5.529,13.573-6.329
		c3.603-5.563,10.582-5.151,16.482-7.686c5.188-4.062,11.358-6.65,17.936-8.364c5.759-3.469,12.332-5.195,17.936-8.364
		c6.528-1.189,12.409-3.13,16.482-7.686c3.37-6.061,8.102-7.938,13.573-6.329c5.558,1.794,6.334-4.769,9.21-4.295
		c3.252,1.279,2.798-2.859,3.393-1.582c3.869,1.131,8.804,5.001,8.38-1.674c2.641-0.103,6.594,3.556,7.597,2.328
		c2.798,2.621,3.071,1.271,5.199,5.835c-0.231-0.495-1.883-4.039,2.8,6.004c2.299,4.93,1.476,3.165,6.16,13.209
		c-1.174-2.518,5.62,12.052,6.16,13.209c4.379,9.39,2.86,6.132,2.8,6.004c0.222,0.476,2.245,6.75,1.128,7.733
		c1.214,5.981-1.376,5.246-3.1,7.316C323.94,463.991,321.702,465.907,318.865,466.987z"/>
	<g id="XMLID_114_">
		<path id="XMLID_115_" style="fill:#D6D6D6;" d="M327.682,446.973c0.028,0.06,0.049,0.105,0.067,0.143
			C327.729,447.074,327.707,447.025,327.682,446.973z"/>
		<path id="XMLID_116_" style="fill:#D6D6D6;" d="M270.918,427.172c0.033,0.071,0.064,0.136,0.097,0.209
			c-0.035-0.075-0.062-0.133-0.083-0.178c-0.002-0.005-0.006-0.013-0.008-0.017C270.921,427.179,270.92,427.178,270.918,427.172z"/>
		<path id="XMLID_117_" style="fill:#D6D6D6;" d="M327.749,447.116c0.01,0.022,0.019,0.041,0.027,0.058
			C327.769,447.159,327.76,447.139,327.749,447.116z"/>
		<path id="XMLID_118_" style="fill:#D6D6D6;" d="M318.546,427.381c-0.042-0.09-0.071-0.152-0.093-0.2
			c0.003,0.007,0.009,0.019,0.013,0.027C318.493,427.267,318.518,427.321,318.546,427.381z"/>
		<path id="XMLID_122_" style="fill:#D6D6D6;" d="M309.272,407.491c-0.017-0.037-0.034-0.072-0.049-0.105
			C309.237,407.417,309.254,407.453,309.272,407.491z"/>
		<path id="XMLID_125_" style="fill:#D6D6D6;" d="M327.776,447.174c0.011,0.025,0.019,0.041,0.024,0.052
			C327.795,447.215,327.786,447.196,327.776,447.174z"/>
		<path id="XMLID_126_" style="fill:#D6D6D6;" d="M309.524,408.033c-0.108-0.232-0.191-0.41-0.253-0.542
			C309.355,407.67,309.454,407.883,309.524,408.033z"/>
		<path id="XMLID_127_" style="fill:#D6D6D6;" d="M309.532,408.049c-0.002-0.005-0.005-0.011-0.007-0.016
			C309.527,408.038,309.529,408.044,309.532,408.049z"/>
		<path id="XMLID_128_" style="fill:#D6D6D6;" d="M309.223,407.386C309.057,407.032,309.11,407.145,309.223,407.386L309.223,407.386
			z"/>
		<path id="XMLID_129_" style="fill:#D6D6D6;" d="M327.506,446.594c0.013,0.029,0.1,0.214,0.177,0.379
			c-0.274-0.588-1.061-2.275-2.976-6.383c-0.469-1.005-5.659-12.136-6.24-13.382c-0.006-0.012-0.011-0.024-0.017-0.036
			c0.002,0.004,0.002,0.005,0.004,0.009c-0.01-0.021-0.014-0.03-0.02-0.044c-4.554-9.765-3.767-8.078-6.046-12.966
			c-1.559-3.344-2.414-5.177-2.855-6.122c0.022,0.048,0.041,0.088,0.055,0.118c-2.128-4.564-2.401-3.213-5.199-5.835
			c-1.003,1.228-4.956-2.431-7.597-2.328c0.424,6.675-4.512,2.805-8.38,1.674c-0.595-1.276-0.141,2.862-3.393,1.582
			c-2.877-0.474-3.652,6.089-9.21,4.295c-4.729-1.391-8.903-0.17-12.126,4.098c0.338,0.726,0.727,1.559,1.174,2.518
			c2.279,4.888,1.492,3.2,6.046,12.966c0.007,0.015,0.012,0.025,0.022,0.048c0.003,0.006,0.005,0.011,0.008,0.017
			c0.571,1.224,5.773,12.381,6.243,13.388c1.916,4.108,2.702,5.795,2.976,6.383c0.024,0.052,0.047,0.101,0.067,0.143
			c0.01,0.022,0.02,0.042,0.027,0.058c0.01,0.022,0.019,0.04,0.024,0.052c0,0,0,0.001,0,0.001c0.008,0.018,0.009,0.019,0,0
			c0,0,0-0.001,0-0.001c-0.005-0.011-0.013-0.027-0.024-0.052c-0.008-0.017-0.017-0.036-0.027-0.058
			c-0.018-0.038-0.039-0.083-0.067-0.143c-0.077-0.165-0.163-0.35-0.177-0.379c0.222,0.476,2.245,6.75,1.128,7.733
			c1.214,5.981-1.376,5.246-3.1,7.316c-1.594,2.348-3.831,4.263-6.669,5.344c0.095,0.203-3.391-4.108-3.393,1.582
			c0.421,6.599-5.681,1.739-9.21,4.295c-3.18,3.306-7.106,6.91-13.573,6.329c-3.958,4.801-8.715,9.155-16.482,7.686
			c-7.122-0.086-14.924-0.996-17.936,8.364c-4.586,5.985-14.999-0.524-17.936,8.364c-8.13-2.247-8.518,11.475-16.482,7.686
			c-1.207-0.786-2.235-1.213-3.132-1.381c0.159,0.341,0.327,0.701,0.51,1.094c0.254,0.545,0.975,2.091,2.8,6.004
			c1.412,3.027,2.379,4.619,3.16,5.387c0.781,0.768,1.375,0.713,2.039,0.448c3.171,3.423,5.242,3.044,7.597,2.328
			c5.404,5.822,5.234-1.254,8.38-1.674c-1.941-4.163,3.007,3.285,3.393-1.582c-0.805-7.422,7.189,1.495,9.21-4.295
			c5.25,1.134,4.673-12.127,13.573-6.329c7.964,3.79,8.352-9.932,16.482-7.686c2.938-8.888,13.35-2.379,17.936-8.364
			c3.012-9.36,10.814-8.45,17.936-8.364c7.767,1.469,12.524-2.885,16.482-7.686c6.468,0.581,10.394-3.023,13.573-6.329
			c3.53-2.555,9.632,2.304,9.21-4.295c0.002-5.691,3.488-1.379,3.393-1.582c2.837-1.081,5.075-2.996,6.669-5.344
			c1.724-2.07,4.313-1.336,3.1-7.316C329.75,453.344,327.728,447.07,327.506,446.594z"/>
		<path id="XMLID_130_" style="fill:#D6D6D6;" d="M327.801,447.226C327.801,447.227,327.801,447.227,327.801,447.226
			C327.801,447.227,327.801,447.227,327.801,447.226z"/>
		<path id="XMLID_131_" style="fill:#D6D6D6;" d="M327.801,447.227C327.81,447.246,327.809,447.246,327.801,447.227L327.801,447.227
			z"/>
	</g>
	
		<path id="XMLID_2_" style="fill:none;stroke:#34323A;stroke-width:10;stroke-linecap:round;stroke-linejoin:round;stroke-miterlimit:10;" d="
		M318.865,466.987c0.095,0.203-3.391-4.108-3.393,1.582c0.421,6.599-5.681,1.739-9.21,4.295c-3.18,3.306-7.106,6.91-13.573,6.329
		c-3.958,4.801-8.715,9.155-16.482,7.686c-7.122-0.086-14.924-0.996-17.936,8.364c-4.586,5.985-14.999-0.524-17.936,8.364
		c-8.13-2.247-8.518,11.475-16.482,7.686c-8.9-5.798-8.323,7.463-13.573,6.329c-2.021,5.79-10.016-3.127-9.21,4.295
		c-0.386,4.867-5.334-2.58-3.393,1.582c-3.146,0.419-2.976,7.496-8.38,1.674c-2.355,0.716-4.426,1.095-7.597-2.328
		c-0.664,0.265-1.258,0.32-2.039-0.448c-0.781-0.768-1.749-2.36-3.16-5.387c-1.825-3.913-2.546-5.459-2.8-6.004
		c-3.465-7.431-2.43-5.211-3.124-6.7c0.292,0.625-0.2-0.429-3.035-6.51c1.664,3.57-1.277-2.738-0.971-2.083
		c-1.324-2.84-3.274-7.022-5.188-11.126c-0.092-0.198-1.283-2.75-2.8-6.004c-0.125-0.268-2.898-6.698-2.053-5.793
		c1.442,2.186-0.791-3.93,0.925-1.94c1.881,2.344,1.752,0.018,1.592-2.672c0.149-2.029,0.553-3.807,1.508-4.644
		c-0.494-6.825,4.459-2.917,6.669-5.344c0.004,0.008,0.661-1.746,3.393-1.582c1.104-3.327,5.476-2.178,9.21-4.295
		c4.236-1.041,7.75-5.529,13.573-6.329c3.603-5.563,10.582-5.151,16.482-7.686c5.188-4.062,11.358-6.65,17.936-8.364
		c5.759-3.469,12.332-5.195,17.936-8.364c6.528-1.189,12.409-3.13,16.482-7.686c3.37-6.061,8.102-7.938,13.573-6.329
		c5.558,1.794,6.334-4.769,9.21-4.295c3.252,1.279,2.798-2.859,3.393-1.582c3.869,1.131,8.804,5.001,8.38-1.674
		c2.641-0.103,6.594,3.556,7.597,2.328c2.798,2.621,3.071,1.271,5.199,5.835c-0.231-0.495-1.883-4.039,2.8,6.004
		c2.299,4.93,1.476,3.165,6.16,13.209c-1.174-2.518,5.62,12.052,6.16,13.209c4.379,9.39,2.86,6.132,2.8,6.004
		c0.222,0.476,2.245,6.75,1.128,7.733c1.214,5.981-1.376,5.246-3.1,7.316C323.94,463.991,321.702,465.907,318.865,466.987z"/>
	<g id="XMLID_6_">
		<polygon id="XMLID_103_" style="fill:#FFFFFF;" points="275.085,591.565 297.518,609.558 325.057,601.278 314.877,628.173 
			331.261,651.806 302.537,650.435 285.123,673.32 277.551,645.579 250.405,636.089 274.449,620.315 		"/>
		
			<polygon id="XMLID_3_" style="fill:none;stroke:#FFFFFF;stroke-width:10;stroke-linecap:round;stroke-linejoin:round;stroke-miterlimit:10;" points="
			275.085,591.565 297.518,609.558 325.057,601.278 314.877,628.173 331.261,651.806 302.537,650.435 285.123,673.32 
			277.551,645.579 250.405,636.089 274.449,620.315 		"/>
		<circle id="XMLID_4_" style="fill:#FFFFFF;" cx="251.74" cy="607.297" r="6.718"/>
		<circle id="XMLID_7_" style="fill:#FFFFFF;" cx="260.527" cy="664.7" r="6.718"/>
		<circle id="XMLID_8_" style="fill:#FFFFFF;" cx="314.383" cy="671.069" r="6.718"/>
		<circle id="XMLID_9_" style="fill:#FFFFFF;" cx="339.34" cy="616.963" r="6.718"/>
		<circle id="XMLID_10_" style="fill:#FFFFFF;" cx="301.235" cy="585.486" r="6.718"/>
	</g>
	<circle id="XMLID_100_" style="fill:#FFFFFF;" cx="169.467" cy="709.977" r="5.443"/>
	<circle id="XMLID_110_" style="fill:#FFFFFF;" cx="231.391" cy="754.311" r="5.443"/>
	<circle id="XMLID_112_" style="fill:#FFFFFF;" cx="246.199" cy="746.388" r="4.137"/>
	<circle id="XMLID_104_" style="fill:#FFFFFF;" cx="172.937" cy="730.369" r="7.336"/>
	<circle id="XMLID_107_" style="fill:#FFFFFF;" cx="211.039" cy="756.165" r="7.336"/>
	<circle id="XMLID_105_" style="fill:#FFFFFF;" cx="189.503" cy="746.935" r="9.229"/>
	
		<path id="XMLID_160_" style="fill:none;stroke:#34323A;stroke-width:6;stroke-linecap:round;stroke-linejoin:round;stroke-miterlimit:10;" d="
		M201.793,478.61l3.699,1.447c4.104,1.606,6.801,0.336,6.318-7.094"/>
	
		<path id="XMLID_111_" style="fill:none;stroke:#34323A;stroke-width:6;stroke-linecap:round;stroke-linejoin:round;stroke-miterlimit:10;" d="
		M251.394,466.09c4.104,1.606,7.732,5.657,8.559-2.015l0.391-1.44c0,0-0.316-5.657,7.997,0"/>
</g>
<g id="XMLID_96_">
	<path id="XMLID_98_" style="fill:#FF2727;" d="M501.472,419.61c-3.135,4.224-9.138,5.044-13.291,1.816
		c-4.255-3.307-8.506-6.592-12.752-9.844c-22.965-17.905-55.146-10.329-72.208,14.026l0,0c-17.069,24.26-13.074,53.504,9.624,70.43
		c25.463,18.909,51.3,39.862,77.118,60.496c14.55,11.724,35.17,8.906,46.041-6.291c19.336-26.803,38.605-53.92,58.061-78.967
		c17.325-22.395,13.329-51.639-9.624-70.43l0,0c-22.97-18.885-56.004-17.549-73.324,5.86
		C507.897,410.978,504.683,415.283,501.472,419.61z"/>
	<path id="XMLID_124_" style="fill:#C92020;" d="M584.44,400.846L584.44,400.846c-20.007-16.449-47.646-17.55-65.889-2.093
		c4.605,9.632,7.857,20.278,9.409,31.64c6.898,50.484-22.287,96.367-65.56,104.094c9.178,7.32,18.37,14.703,27.561,22.048
		c14.549,11.724,35.17,8.906,46.041-6.291c19.336-26.803,38.605-53.92,58.062-78.967
		C611.388,448.882,607.392,419.637,584.44,400.846z"/>
	
		<circle id="XMLID_101_" style="fill:none;stroke:#FFFFFF;stroke-width:7;stroke-linecap:round;stroke-linejoin:round;stroke-miterlimit:10;" cx="586.078" cy="415.789" r="4.704"/>
	<circle id="XMLID_102_" style="fill:#FFFFFF;" cx="582.32" cy="457.775" r="4.704"/>
	<g id="XMLID_74_">
		<g id="XMLID_62_">
			
				<line id="XMLID_61_" style="fill:none;stroke:#FFFFFF;stroke-width:6;stroke-linecap:round;stroke-linejoin:round;stroke-miterlimit:10;" x1="473.124" y1="435.971" x2="488.276" y2="488.847"/>
			
				<polyline id="XMLID_60_" style="fill:none;stroke:#FFFFFF;stroke-width:6;stroke-linecap:round;stroke-linejoin:round;stroke-miterlimit:10;" points="
				488.172,437.631 478.264,455.497 460.398,445.59 			"/>
		</g>
		<g id="XMLID_65_">
			
				<line id="XMLID_67_" style="fill:none;stroke:#FFFFFF;stroke-width:6;stroke-linecap:round;stroke-linejoin:round;stroke-miterlimit:10;" x1="503.18" y1="540.856" x2="488.276" y2="488.847"/>
			
				<polyline id="XMLID_66_" style="fill:none;stroke:#FFFFFF;stroke-width:6;stroke-linecap:round;stroke-linejoin:round;stroke-miterlimit:10;" points="
				515.058,531.452 497.191,521.544 487.283,539.411 			"/>
		</g>
		<g id="XMLID_73_">
			<g id="XMLID_70_">
				
					<line id="XMLID_72_" style="fill:none;stroke:#FFFFFF;stroke-width:6;stroke-linecap:round;stroke-linejoin:round;stroke-miterlimit:10;" x1="473.124" y1="435.971" x2="488.276" y2="488.847"/>
				
					<polyline id="XMLID_71_" style="fill:none;stroke:#FFFFFF;stroke-width:6;stroke-linecap:round;stroke-linejoin:round;stroke-miterlimit:10;" points="
					488.172,437.631 478.264,455.497 460.398,445.59 				"/>
			</g>
			<g id="XMLID_64_">
				
					<line id="XMLID_69_" style="fill:none;stroke:#FFFFFF;stroke-width:6;stroke-linecap:round;stroke-linejoin:round;stroke-miterlimit:10;" x1="503.18" y1="540.856" x2="488.276" y2="488.847"/>
				
					<polyline id="XMLID_68_" style="fill:none;stroke:#FFFFFF;stroke-width:6;stroke-linecap:round;stroke-linejoin:round;stroke-miterlimit:10;" points="
					515.058,531.452 497.191,521.544 487.283,539.411 				"/>
			</g>
		</g>
		<g id="XMLID_75_">
			<g id="XMLID_79_">
				
					<line id="XMLID_81_" style="fill:none;stroke:#FFFFFF;stroke-width:6;stroke-linecap:round;stroke-linejoin:round;stroke-miterlimit:10;" x1="461.278" y1="536.218" x2="487.728" y2="488.521"/>
				
					<polyline id="XMLID_80_" style="fill:none;stroke:#FFFFFF;stroke-width:6;stroke-linecap:round;stroke-linejoin:round;stroke-miterlimit:10;" points="
					451.429,524.191 471.068,518.564 476.696,538.203 				"/>
			</g>
			<g id="XMLID_76_">
				
					<line id="XMLID_78_" style="fill:none;stroke:#FFFFFF;stroke-width:6;stroke-linecap:round;stroke-linejoin:round;stroke-miterlimit:10;" x1="514.177" y1="440.824" x2="487.728" y2="488.521"/>
				
					<polyline id="XMLID_77_" style="fill:none;stroke:#FFFFFF;stroke-width:6;stroke-linecap:round;stroke-linejoin:round;stroke-miterlimit:10;" points="
					498.759,438.839 504.387,458.478 524.027,452.85 				"/>
			</g>
		</g>
		<g id="XMLID_82_">
			<g id="XMLID_86_">
				
					<line id="XMLID_88_" style="fill:none;stroke:#FFFFFF;stroke-width:6;stroke-linecap:round;stroke-linejoin:round;stroke-miterlimit:10;" x1="539.976" y1="474.501" x2="487.1" y2="489.653"/>
				
					<polyline id="XMLID_87_" style="fill:none;stroke:#FFFFFF;stroke-width:6;stroke-linecap:round;stroke-linejoin:round;stroke-miterlimit:10;" points="
					538.618,488.965 520.751,479.057 530.659,461.191 				"/>
			</g>
			<g id="XMLID_83_">
				
					<line id="XMLID_85_" style="fill:none;stroke:#FFFFFF;stroke-width:6;stroke-linecap:round;stroke-linejoin:round;stroke-miterlimit:10;" x1="435.09" y1="504.557" x2="487.1" y2="489.653"/>
				
					<polyline id="XMLID_84_" style="fill:none;stroke:#FFFFFF;stroke-width:6;stroke-linecap:round;stroke-linejoin:round;stroke-miterlimit:10;" points="
					444.797,515.851 454.704,497.984 436.838,488.077 				"/>
			</g>
		</g>
		<g id="XMLID_89_">
			<g id="XMLID_93_">
				
					<line id="XMLID_95_" style="fill:none;stroke:#FFFFFF;stroke-width:6;stroke-linecap:round;stroke-linejoin:round;stroke-miterlimit:10;" x1="440.681" y1="461.885" x2="488.378" y2="488.334"/>
				
					<polyline id="XMLID_94_" style="fill:none;stroke:#FFFFFF;stroke-width:6;stroke-linecap:round;stroke-linejoin:round;stroke-miterlimit:10;" points="
					452.057,452.222 457.685,471.861 438.046,477.489 				"/>
			</g>
			<g id="XMLID_90_">
				
					<line id="XMLID_92_" style="fill:none;stroke:#FFFFFF;stroke-width:6;stroke-linecap:round;stroke-linejoin:round;stroke-miterlimit:10;" x1="536.075" y1="514.784" x2="488.378" y2="488.334"/>
				
					<polyline id="XMLID_91_" style="fill:none;stroke:#FFFFFF;stroke-width:6;stroke-linecap:round;stroke-linejoin:round;stroke-miterlimit:10;" points="
					537.41,499.552 517.77,505.18 523.398,524.82 				"/>
			</g>
		</g>
	</g>
	
		<path id="XMLID_63_" style="fill:none;stroke:#34323A;stroke-width:12;stroke-linecap:round;stroke-linejoin:round;stroke-miterlimit:10;" d="
		M501.472,419.61c-3.135,4.224-9.138,5.044-13.291,1.816c-4.255-3.307-8.506-6.592-12.752-9.844
		c-22.965-17.905-55.146-10.329-72.208,14.026l0,0c-17.069,24.26-13.074,53.504,9.624,70.43
		c25.463,18.909,51.3,39.862,77.118,60.496c14.55,11.724,35.17,8.906,46.041-6.291c19.336-26.803,38.605-53.92,58.061-78.967
		c17.325-22.395,13.329-51.639-9.624-70.43l0,0c-22.97-18.885-56.004-17.549-73.324,5.86
		C507.897,410.978,504.683,415.283,501.472,419.61z"/>
	<circle id="XMLID_99_" style="fill:#FFFFFF;" cx="549.784" cy="400.905" r="5.73"/>
</g>
<polygon id="XMLID_136_" style="fill:#C92020;" points="501.472,419.61 488.18,421.426 476.696,378.172 498.759,369.319 "/>
<polygon id="XMLID_119_" style="fill:none;stroke:#34323A;stroke-width:10;stroke-linecap:round;stroke-linejoin:round;stroke-miterlimit:10;" points="
	501.472,419.61 488.18,421.426 476.696,378.172 498.759,369.319 "/>
<polygon id="XMLID_138_" style="fill:#9D503A;" points="503.18,373.13 467.6,385.448 446.284,281.861 503.15,286.717 "/>
<polygon id="XMLID_176_" style="fill:#D17F6B;" points="464.568,283.423 446.284,281.861 467.6,385.448 484.368,379.643 "/>
<polygon id="XMLID_137_" style="fill:none;stroke:#34323A;stroke-width:10;stroke-linecap:round;stroke-linejoin:round;stroke-miterlimit:10;" points="
	503.18,373.13 467.6,385.448 446.284,281.861 503.15,286.717 "/>
<polygon id="XMLID_178_" style="fill:#9D503A;" points="317.655,346.288 290.478,365.204 252.704,252.137 300.894,249.418 "/>
<polygon id="XMLID_174_" style="fill:#D17F6B;" points="268.198,251.262 252.704,252.137 290.478,365.204 303.286,356.289 "/>
<polygon id="XMLID_144_" style="fill:none;stroke:#34323A;stroke-width:10;stroke-linecap:round;stroke-linejoin:round;stroke-miterlimit:10;" points="
	317.655,346.288 290.478,365.204 252.704,252.137 300.894,249.418 "/>
<path id="XMLID_191_" style="fill:#FF2727;" d="M791.656,367.725c0,0-14.833-93.238-30.859-105.033
	c-16.026-11.795-30.736-5.231-34.105-0.654c-3.369,4.577-12.544,16.541-12.544,16.541s13.177-7.147,20.799-1.537
	c7.622,5.61,32.583,99.11,32.583,99.11L791.656,367.725z"/>
<path id="XMLID_189_" style="fill:none;stroke:#34323A;stroke-width:10;stroke-linecap:round;stroke-linejoin:round;stroke-miterlimit:10;" d="
	M791.656,367.725c0,0-14.833-93.238-30.859-105.033c-16.026-11.795-30.736-5.231-34.105-0.654
	c-3.369,4.577-12.544,16.541-12.544,16.541s13.177-7.147,20.799-1.537c7.622,5.61,32.583,99.11,32.583,99.11L791.656,367.725z"/>
<polygon id="XMLID_188_" style="fill:#9D503A;" points="768.913,321.995 736.236,327.343 750.908,209.039 795.56,227.365 "/>
<polygon id="XMLID_187_" style="fill:#D17F6B;" points="765.265,214.932 750.908,209.039 736.236,327.343 751.636,324.822 "/>
<polygon id="XMLID_186_" style="fill:none;stroke:#34323A;stroke-width:10;stroke-linecap:round;stroke-linejoin:round;stroke-miterlimit:10;" points="
	768.913,321.995 736.236,327.343 750.908,209.039 795.56,227.365 "/>
<g id="XMLID_13_">
	<path id="XMLID_108_" style="fill:#FF2727;" d="M701.081,450.97l19.501,63.524c8.784,28.615,0.94,59.741-20.356,80.775
		l-24.772,24.468c-16.108,15.911-21.563,39.702-13.994,61.04l0.466,1.313c12.643,35.644,54.083,51.295,86.964,32.998l96.677-53.799
		c33.093-18.415,47.229-58.638,32.934-93.707c0,0-32.452-74.945-42.737-100.176c-6.785-16.646-30.351-65.087-30.351-65.087
		L701.081,450.97z"/>
	<path id="XMLID_142_" style="fill:#C92020;" d="M878.501,567.582c0,0-32.452-74.945-42.737-100.176
		c-6.785-16.646-30.351-65.087-30.351-65.087l-40.957,19.099c5.539,11.775,10.992,23.632,13.724,30.335
		c10.284,25.23,42.737,100.176,42.737,100.176c14.295,35.07,0.159,75.292-32.933,93.707l-96.677,53.799
		c-4.746,2.641-9.672,4.553-14.663,5.821c18.553,18.251,47.767,23.455,72.246,9.833l96.677-53.799
		C878.66,642.874,892.796,602.652,878.501,567.582z"/>
	<path id="XMLID_159_" style="fill:#C92020;" d="M751.78,467.311c0.734,6.023,1.936-0.373,3.397-3.001
		c1.461,0.421,3.181-3.374,4.953-2.27c1.772,1.93,3.595,6.833,5.262-0.314c1.667,2.258,3.178,7.023,4.324-2.779
		c0.753-2.579,1.806-3.634,3.072-4.483c1.266-0.848,2.747-1.49,4.355-3.242c3.217,2.236,6.948-5.681,10.509-0.64
		c3.884,4.255,7.014-0.429,9.669-1.492c2.655-1.505,4.833-3.794,6.813-6.194c6.468,0.581,10.394-3.023,13.573-6.329
		c1.084-0.785,2.411-0.87,3.717-0.802c-8.017-17.013-16.011-33.447-16.011-33.447L701.081,450.97l11.052,36.004
		c0.191-0.267,0.329-0.694,0.381-1.353c-0.403-3.711,1.395-3.337,3.545-2.76c2.151,1.069,4.655-3.866,5.665-1.535
		c1.313,2.004,2.261-1.313,3.084-1.696c0.823-1.963,1.521-4.697,2.334-3.218c0.812-1.162,1.739,4.262,3.018-0.677
		c1.28,0.556,2.912-7.079,5.137-0.738c1.991,2.794,3.508,4.437,4.792-0.935c1.283-4.615,2.333-5.695,3.387-2.33
		c1.054-7.918,2.114-3.071,3.418-6.109C748.199,459.493,749.748,455.179,751.78,467.311z"/>
	
		<path id="XMLID_22_" style="fill:none;stroke:#34323A;stroke-width:12;stroke-linecap:round;stroke-linejoin:round;stroke-miterlimit:10;" d="
		M701.081,450.97l19.501,63.524c8.784,28.615,0.94,59.741-20.356,80.775l-24.772,24.468c-16.108,15.911-21.563,39.702-13.994,61.04
		l0.466,1.313c12.643,35.644,54.083,51.295,86.964,32.998l96.677-53.799c33.093-18.415,47.229-58.638,32.934-93.707
		c0,0-32.452-74.945-42.737-100.176c-6.785-16.646-30.351-65.087-30.351-65.087L701.081,450.97z"/>
	<path id="XMLID_109_" style="fill:#FFFFFF;" d="M823.546,412.328c0.095,0.203-3.391-4.108-3.393,1.582
		c0.421,6.599-5.681,1.739-9.21,4.295c-3.18,3.306-7.106,6.91-13.573,6.329c-3.958,4.801-8.715,9.155-16.482,7.686
		c-7.122-0.086-14.924-0.996-17.936,8.364c-4.586,5.985-14.999-0.524-17.936,8.364c-8.13-2.247-8.518,11.475-16.482,7.686
		c-8.9-5.798-8.323,7.463-13.573,6.329c-2.021,5.79-10.016-3.127-9.21,4.295c-0.386,4.867-5.334-2.58-3.393,1.582
		c-3.146,0.419-2.976,7.496-8.38,1.674c-2.355,0.716-4.426,1.095-7.597-2.328c-0.664,0.266-1.258,0.32-2.039-0.448
		c-0.781-0.768-1.749-2.36-3.16-5.387c-1.825-3.913-2.546-5.459-2.8-6.004c-3.465-7.431-2.43-5.211-3.124-6.7
		c0.292,0.625-0.2-0.429-3.036-6.51c1.664,3.57-1.277-2.738-0.971-2.083c-1.324-2.84-3.274-7.022-5.188-11.126
		c-0.092-0.198-1.283-2.751-2.8-6.004c-0.125-0.268-2.898-6.698-2.053-5.793c1.442,2.186-0.791-3.93,0.925-1.94
		c1.881,2.344,1.752,0.018,1.592-2.672c0.149-2.029,0.554-3.807,1.508-4.644c-0.494-6.825,4.459-2.917,6.669-5.344
		c0.004,0.008,0.661-1.746,3.393-1.582c1.104-3.327,5.476-2.178,9.211-4.295c4.236-1.041,7.75-5.529,13.573-6.329
		c3.603-5.563,10.582-5.151,16.482-7.686c5.188-4.062,11.358-6.65,17.936-8.364c5.759-3.469,12.332-5.195,17.936-8.364
		c6.527-1.189,12.409-3.13,16.482-7.686c3.37-6.061,8.102-7.938,13.573-6.329c5.558,1.794,6.334-4.769,9.21-4.295
		c3.252,1.279,2.798-2.859,3.393-1.582c3.869,1.131,8.804,5.001,8.38-1.674c2.641-0.103,6.594,3.556,7.597,2.328
		c2.798,2.621,3.071,1.271,5.199,5.835c-0.231-0.495-1.883-4.039,2.8,6.004c2.299,4.93,1.476,3.165,6.16,13.209
		c-1.174-2.518,5.62,12.052,6.16,13.209c4.379,9.39,2.86,6.132,2.8,6.004c0.222,0.476,2.245,6.75,1.128,7.733
		c1.214,5.981-1.376,5.246-3.1,7.316C828.621,409.331,826.384,411.247,823.546,412.328z"/>
	<g id="XMLID_121_">
		<path id="XMLID_132_" style="fill:#D6D6D6;" d="M832.431,392.457c0.01,0.022,0.019,0.041,0.027,0.058
			C832.45,392.499,832.441,392.479,832.431,392.457z"/>
		<path id="XMLID_134_" style="fill:#D6D6D6;" d="M832.458,392.515c0.011,0.025,0.019,0.041,0.024,0.052
			C832.476,392.555,832.468,392.536,832.458,392.515z"/>
		<path id="XMLID_135_" style="fill:#D6D6D6;" d="M832.482,392.567c0,0,0,0.001,0,0.001L832.482,392.567z"/>
		<path id="XMLID_146_" style="fill:#D6D6D6;" d="M832.364,392.313c0.028,0.06,0.049,0.105,0.067,0.143
			C832.411,392.414,832.388,392.365,832.364,392.313z"/>
		<path id="XMLID_149_" style="fill:#D6D6D6;" d="M813.904,352.727C813.739,352.372,813.792,352.485,813.904,352.727
			L813.904,352.727z"/>
		<path id="XMLID_151_" style="fill:#D6D6D6;" d="M823.228,372.721c-0.042-0.09-0.071-0.152-0.093-0.2
			c0.003,0.007,0.009,0.019,0.013,0.027C823.174,372.607,823.2,372.661,823.228,372.721z"/>
		<path id="XMLID_152_" style="fill:#D6D6D6;" d="M832.482,392.568C832.491,392.587,832.491,392.586,832.482,392.568
			L832.482,392.568z"/>
		<path id="XMLID_153_" style="fill:#D6D6D6;" d="M774.592,365.76c0.033,0.071,0.064,0.136,0.097,0.209
			c-0.035-0.075-0.062-0.133-0.083-0.178c-0.002-0.005-0.006-0.013-0.008-0.017C774.595,365.767,774.594,365.765,774.592,365.76z"/>
		<path id="XMLID_154_" style="fill:#D6D6D6;" d="M832.187,391.935c0.013,0.029,0.1,0.214,0.177,0.379
			c-0.274-0.588-1.061-2.275-2.977-6.383c-0.469-1.005-5.659-12.136-6.24-13.382c-0.006-0.012-0.011-0.024-0.017-0.036
			c0.002,0.004,0.002,0.005,0.004,0.009c-0.01-0.021-0.014-0.03-0.02-0.044c-4.554-9.765-3.767-8.078-6.046-12.966
			c-1.559-3.344-2.414-5.177-2.855-6.122c0.022,0.047,0.041,0.088,0.055,0.118c-2.128-4.564-2.401-3.213-5.199-5.835
			c-1.003,1.228-4.956-2.431-7.597-2.328c0.424,6.675-4.512,2.804-8.38,1.674c-0.595-1.276-0.141,2.862-3.393,1.582
			c-2.877-0.474-3.652,6.089-9.21,4.295c-4.073-1.198-7.735-0.46-10.732,2.494c0.981,2.103,1.359,2.914,4.819,10.335
			c0.007,0.015,0.012,0.025,0.022,0.048c0.003,0.006,0.005,0.011,0.008,0.017c0.571,1.224,5.773,12.381,6.243,13.388
			c1.916,4.108,2.702,5.795,2.976,6.383c0.024,0.052,0.047,0.101,0.067,0.143c0.01,0.022,0.02,0.042,0.027,0.058
			c0.01,0.022,0.019,0.04,0.024,0.052c0,0,0,0.001,0,0.001c0.009,0.018,0.009,0.019,0,0c0,0,0-0.001,0-0.001
			c-0.005-0.011-0.013-0.027-0.024-0.052c-0.008-0.017-0.017-0.036-0.027-0.058c-0.018-0.038-0.039-0.083-0.067-0.143
			c-0.077-0.165-0.163-0.35-0.177-0.379c0.222,0.476,2.245,6.75,1.128,7.733c1.214,5.981-1.376,5.246-3.1,7.316
			c-1.594,2.348-3.831,4.263-6.669,5.344c0.095,0.203-3.391-4.108-3.393,1.582c0.421,6.599-5.681,1.739-9.211,4.295
			c-3.18,3.306-7.106,6.91-13.573,6.329c-3.958,4.801-8.715,9.155-16.482,7.686c-7.122-0.086-14.924-0.996-17.936,8.364
			c-4.586,5.985-14.999-0.524-17.936,8.364c-8.13-2.247-8.518,11.475-16.482,7.686c-2.274-1.482-3.928-1.714-5.22-1.265
			c0.294,0.63,0.456,0.978,0.519,1.114c-0.011-0.023-0.023-0.05-0.039-0.083c0.015,0.032,0.028,0.061,0.042,0.089
			c0.005,0.011,0.008,0.018,0.012,0.026c0.585,1.255-0.298-0.639,3.07,6.584c0.254,0.545,0.975,2.091,2.8,6.004
			c1.412,3.027,2.38,4.619,3.16,5.387c0.781,0.768,1.375,0.713,2.039,0.448c3.171,3.423,5.242,3.044,7.597,2.328
			c5.404,5.822,5.234-1.254,8.38-1.674c-1.941-4.163,3.007,3.285,3.393-1.582c-0.805-7.422,7.189,1.495,9.21-4.295
			c5.25,1.134,4.673-12.127,13.573-6.329c7.964,3.79,8.352-9.932,16.482-7.686c2.938-8.888,13.35-2.379,17.936-8.364
			c3.012-9.36,10.814-8.45,17.936-8.364c7.767,1.469,12.524-2.885,16.482-7.686c6.468,0.581,10.394-3.023,13.573-6.329
			c3.53-2.555,9.632,2.304,9.21-4.295c0.002-5.691,3.488-1.379,3.393-1.582c2.837-1.081,5.075-2.996,6.669-5.344
			c1.724-2.07,4.313-1.336,3.1-7.316C834.432,398.684,832.409,392.41,832.187,391.935z"/>
		<path id="XMLID_155_" style="fill:#D6D6D6;" d="M814.213,353.39c-0.002-0.005-0.005-0.011-0.008-0.016
			C814.208,353.379,814.211,353.385,814.213,353.39z"/>
		<path id="XMLID_156_" style="fill:#D6D6D6;" d="M814.206,353.374c-0.108-0.232-0.191-0.41-0.253-0.542
			C814.036,353.01,814.136,353.224,814.206,353.374z"/>
		<path id="XMLID_157_" style="fill:#D6D6D6;" d="M813.953,352.832c-0.017-0.037-0.033-0.072-0.049-0.105
			C813.918,352.757,813.935,352.794,813.953,352.832z"/>
	</g>
	
		<path id="XMLID_21_" style="fill:none;stroke:#34323A;stroke-width:10;stroke-linecap:round;stroke-linejoin:round;stroke-miterlimit:10;" d="
		M823.546,412.328c0.095,0.203-3.391-4.108-3.393,1.582c0.421,6.599-5.681,1.739-9.21,4.295c-3.18,3.306-7.106,6.91-13.573,6.329
		c-1.979,2.4-4.158,4.689-6.813,6.194c-2.655,1.062-5.786,5.747-9.669,1.492c-3.561-5.042-7.292,2.875-10.509,0.64
		c-1.609,1.752-3.089,2.393-4.355,3.242c-1.266,0.848-2.319,1.903-3.072,4.483c-1.147,9.802-2.657,5.037-4.324,2.779
		c-1.667,7.147-3.49,2.244-5.262,0.314c-1.772-1.104-3.492,2.691-4.953,2.27c-1.461,2.628-2.662,9.023-3.397,3.001
		c-2.032-12.132-3.581-7.818-4.885-1.688c-1.304,3.039-2.364-1.809-3.418,6.109c-1.054-3.366-2.104-2.285-3.387,2.33
		c-1.283,5.371-2.801,3.729-4.792,0.935c-2.225-6.34-3.858,1.294-5.137,0.738c-1.28,4.939-2.206-0.485-3.018,0.677
		c-0.812-1.48-1.51,1.255-2.334,3.218c-0.823,0.383-1.772,3.7-3.084,1.696c-1.011-2.331-3.515,2.604-5.665,1.535
		c-2.151-0.578-3.948-0.952-3.545,2.76c-0.386,4.867-5.334-2.58-3.393,1.582c-3.146,0.419-2.976,7.496-8.38,1.674
		c-2.355,0.716-4.426,1.095-7.597-2.328c-0.664,0.266-1.258,0.32-2.039-0.448c-0.781-0.768-1.749-2.36-3.16-5.387
		c-1.825-3.913-2.546-5.459-2.8-6.004c-3.465-7.431-2.43-5.211-3.124-6.7c0.292,0.625-0.2-0.429-3.036-6.51
		c1.664,3.57-1.277-2.738-0.971-2.083c-1.324-2.84-3.274-7.022-5.188-11.126c-0.092-0.198-1.283-2.751-2.8-6.004
		c-0.125-0.268-2.898-6.698-2.053-5.793c1.442,2.186-0.791-3.93,0.925-1.94c1.881,2.344,1.752,0.018,1.592-2.672
		c0.149-2.029,0.554-3.807,1.508-4.644c-0.494-6.825,4.459-2.917,6.669-5.344c0.004,0.008,0.661-1.746,3.393-1.582
		c1.104-3.327,5.476-2.178,9.211-4.295c4.236-1.041,7.75-5.529,13.573-6.329c3.603-5.563,10.582-5.151,16.482-7.686
		c5.188-4.062,11.358-6.65,17.936-8.364c5.759-3.469,12.332-5.195,17.936-8.364c6.527-1.189,12.409-3.13,16.482-7.686
		c3.37-6.061,8.102-7.938,13.573-6.329c5.558,1.794,6.334-4.769,9.21-4.295c3.252,1.279,2.798-2.859,3.393-1.582
		c3.869,1.131,8.804,5.001,8.38-1.674c2.641-0.103,6.594,3.556,7.597,2.328c2.798,2.621,3.071,1.271,5.199,5.835
		c-0.231-0.495-1.883-4.039,2.8,6.004c2.299,4.93,1.476,3.165,6.16,13.209c-1.174-2.518,5.62,12.052,6.16,13.209
		c4.379,9.39,2.86,6.132,2.8,6.004c0.222,0.476,2.245,6.75,1.128,7.733c1.214,5.981-1.376,5.246-3.1,7.316
		C828.621,409.331,826.384,411.247,823.546,412.328z"/>
	<g id="XMLID_37_">
		<g id="XMLID_26_">
			
				<line id="XMLID_14_" style="fill:none;stroke:#FFFFFF;stroke-width:6;stroke-linecap:round;stroke-linejoin:round;stroke-miterlimit:10;" x1="798.072" y1="602.755" x2="739.066" y2="643.17"/>
			
				<line id="XMLID_12_" style="fill:none;stroke:#FFFFFF;stroke-width:6;stroke-linecap:round;stroke-linejoin:round;stroke-miterlimit:10;" x1="788.651" y1="653.137" x2="748.236" y2="594.131"/>
		</g>
		<g id="XMLID_36_">
			<g id="XMLID_19_">
				<g id="XMLID_16_">
					<circle id="XMLID_15_" style="fill:#FFFFFF;" cx="774.851" cy="592.259" r="3.898"/>
					<circle id="XMLID_18_" style="fill:#FFFFFF;" cx="776.959" cy="580.986" r="3.18"/>
					<circle id="XMLID_17_" style="fill:#FFFFFF;" cx="772.028" cy="607.355" r="5.734"/>
				</g>
				<g id="XMLID_20_">
					<circle id="XMLID_25_" style="fill:#FFFFFF;" cx="763.222" cy="654.45" r="3.898"/>
					<circle id="XMLID_24_" style="fill:#FFFFFF;" cx="761.114" cy="665.723" r="3.18"/>
					<circle id="XMLID_23_" style="fill:#FFFFFF;" cx="766.045" cy="639.353" r="5.734"/>
				</g>
			</g>
			<g id="XMLID_27_">
				<g id="XMLID_32_">
					<circle id="XMLID_35_" style="fill:#FFFFFF;" cx="737.868" cy="617.433" r="3.898"/>
					<circle id="XMLID_34_" style="fill:#FFFFFF;" cx="726.595" cy="615.325" r="3.18"/>
					<circle id="XMLID_33_" style="fill:#FFFFFF;" cx="752.964" cy="620.256" r="5.734"/>
				</g>
				<g id="XMLID_28_">
					<circle id="XMLID_31_" style="fill:#FFFFFF;" cx="800.059" cy="629.062" r="3.898"/>
					<circle id="XMLID_30_" style="fill:#FFFFFF;" cx="811.332" cy="631.17" r="3.18"/>
					<circle id="XMLID_29_" style="fill:#FFFFFF;" cx="784.962" cy="626.239" r="5.734"/>
				</g>
			</g>
		</g>
	</g>
	<g id="XMLID_57_">
		
			<line id="XMLID_59_" style="fill:none;stroke:#FFFFFF;stroke-width:4;stroke-linecap:round;stroke-linejoin:round;stroke-miterlimit:10;" x1="785.15" y1="504.378" x2="814.39" y2="550.921"/>
		
			<line id="XMLID_58_" style="fill:none;stroke:#FFFFFF;stroke-width:4;stroke-linecap:round;stroke-linejoin:round;stroke-miterlimit:10;" x1="823.041" y1="513.029" x2="776.499" y2="542.27"/>
	</g>
	<g id="XMLID_38_">
		<g id="XMLID_48_">
			<g id="XMLID_53_">
				<circle id="XMLID_56_" style="fill:#FFFFFF;" cx="776.068" cy="522.088" r="2.996"/>
				<circle id="XMLID_55_" style="fill:#FFFFFF;" cx="767.475" cy="520.127" r="2.444"/>
				<circle id="XMLID_54_" style="fill:#FFFFFF;" cx="787.576" cy="524.716" r="4.407"/>
			</g>
			<g id="XMLID_49_">
				<circle id="XMLID_52_" style="fill:#FFFFFF;" cx="823.473" cy="532.911" r="2.996"/>
				<circle id="XMLID_51_" style="fill:#FFFFFF;" cx="832.066" cy="534.873" r="2.444"/>
				<circle id="XMLID_50_" style="fill:#FFFFFF;" cx="811.966" cy="530.284" r="4.407"/>
			</g>
		</g>
		<g id="XMLID_39_">
			<g id="XMLID_44_">
				<circle id="XMLID_47_" style="fill:#FFFFFF;" cx="794.275" cy="551.255" r="2.996"/>
				<circle id="XMLID_46_" style="fill:#FFFFFF;" cx="792.313" cy="559.848" r="2.444"/>
				<circle id="XMLID_45_" style="fill:#FFFFFF;" cx="796.902" cy="539.748" r="4.407"/>
			</g>
			<g id="XMLID_40_">
				<circle id="XMLID_43_" style="fill:#FFFFFF;" cx="805.098" cy="503.851" r="2.996"/>
				<circle id="XMLID_42_" style="fill:#FFFFFF;" cx="807.06" cy="495.258" r="2.444"/>
				<circle id="XMLID_41_" style="fill:#FFFFFF;" cx="802.471" cy="515.358" r="4.407"/>
			</g>
		</g>
	</g>
	
		<path id="XMLID_113_" style="fill:none;stroke:#34323A;stroke-width:6;stroke-linecap:round;stroke-linejoin:round;stroke-miterlimit:10;" d="
		M698.02,416.906c0,0,11.444,13.57,11.444-2.611c0,0-0.723-9.567,7.369-2.631c7.451,6.387,6.806,0.379,7.862-6.936"/>
	
		<path id="XMLID_161_" style="fill:none;stroke:#34323A;stroke-width:6;stroke-linecap:round;stroke-linejoin:round;stroke-miterlimit:10;" d="
		M778.463,401.096c0,0,9.382,9.471,12.211-2.179c0,0-1.066-6.713,4.291-3.865c3.1,1.648,8.314,4.863,7.174-5.337"/>
	<path id="XMLID_162_" style="fill:#FFFFFF;" d="M845.281,444.647c0,3.609-0.186,6.9-0.541,6.779
		c-0.177,0.66-0.397,4.946-0.657,5.126c-0.26-0.567-0.559,1.659-0.896-1.497c-0.674,1.529-1.499,2.816-2.457,3.454
		c-0.958,3.47-2.048,1.514-3.254,5.045c-1.206,7.108-2.526,0.769-3.944,3.265c-1.418,2.091-2.933,3.887-4.527,2.465
		c-0.797-1.344-1.614,0.678-2.448,2.22s-1.687,2.604-2.554-0.662c-0.867,2.953-1.75,5.373-2.646,3.031
		c-0.896,3.982-1.805-0.569-2.725-2.488c-1.84,3.101-3.636,1.492-5.371,1.428c-1.735-2.131-3.408-4.35-5.002-3.53
		c-0.797,1.951-1.574-3.914-2.329-3.611c-0.755-1.033-1.488-3.726-2.197,1.145c-1.418,0.518-2.738-8.225-3.944-3.265
		c-0.603,1.678-1.177,0.257-1.72-0.388c-0.543-3.159-1.055-5.231-1.534-3.569c-0.958,0.184-1.783-6.583-2.457-4.542
		c-0.674,1.089-1.198,0.527-1.553-5.019c-0.355-2.858-0.541-5.789-0.541-5.389c0-3.697,0.047-5.672,0.138-6.32
		c0.091,1.543,0.226-0.702,0.404-1.215c0.355-3.82,0.879,2.916,1.553-2.873c0.337-3.767,0.712-3.759,1.122-5.189
		c0.41-0.583,0.856,0.396,1.335-2.597c0.958-2.38,2.048,2.816,3.254-0.713c1.206,1.394,2.526-2.212,3.944-1.248
		c1.418-1.629,2.933-3.797,4.527-4.483c3.188,3.826,6.694,5.848,10.373-2.101c3.679,11.244,7.185,8.126,10.373,2.101
		c1.594-0.629,3.109,2.627,4.527,5.129c1.418,2.501,2.738,3.583,3.944,0.602c1.206,0.01,2.296,1.177,3.254,2.821
		c0.958,2.885,1.783-0.043,2.457,5.678c0.674-1.732,1.198,0.235,1.553,5.019c0.177-2.909,0.313-1.539,0.404,0.547
		C845.235,441.891,845.281,442.204,845.281,444.647z"/>
	<g id="XMLID_166_">
		<path id="XMLID_168_" style="fill:#D6D6D6;" d="M799.77,462.55c-0.385,0.648-0.767,1.082-1.148,1.375
			c0.376,0.488,0.765,0.747,1.166-0.371c0.055-0.226,0.11-0.414,0.166-0.586C799.893,462.82,799.831,462.678,799.77,462.55z"/>
		<path id="XMLID_169_" style="fill:#D6D6D6;" d="M824.333,425.384c-0.004,0.001-0.007,0.002-0.011,0.002
			c0.001,0.006,0.001,0.011,0.002,0.017C824.327,425.395,824.33,425.391,824.333,425.384z"/>
		<path id="XMLID_170_" style="fill:#D6D6D6;" d="M802.495,465.038c-0.021,0.095-0.043,0.163-0.064,0.249
			c0.424,0.949,0.859,1.694,1.303,1.532c0.111-0.764,0.223-1.324,0.335-1.752C803.549,466.136,803.024,466.421,802.495,465.038z"/>
		<path id="XMLID_171_" style="fill:#D6D6D6;" d="M845.144,439.805c-0.091-2.086-0.226-3.456-0.404-0.547
			c-0.355-4.784-0.879-6.751-1.553-5.019c-0.674-5.721-1.499-2.793-2.457-5.678c-0.958-1.644-2.048-2.811-3.254-2.821
			c-1.206,2.982-2.526,1.9-3.944-0.602c-1.418-2.501-2.933-5.757-4.527-5.129c-1.263,2.387-2.576,4.313-3.93,5.075
			c0.324,0.678,0.593,2.512,0.802,5.338c0.177-2.909,0.313-1.539,0.404,0.547c0.091,2.086,0.138,2.4,0.138,4.842
			c0,3.609-0.186,6.9-0.541,6.778c-0.177,0.66-0.397,4.946-0.657,5.126c-0.26-0.567-0.559,1.659-0.896-1.497
			c-0.674,1.529-1.499,2.816-2.457,3.454c-0.958,3.47-2.048,1.514-3.254,5.045c-1.206,7.108-2.526,0.769-3.944,3.265
			c-1.418,2.091-2.933,3.887-4.527,2.465c-0.797-1.344-1.614,0.678-2.448,2.22c-0.834,1.542-1.687,2.604-2.554-0.662
			c-0.226,0.77-0.453,1.5-0.681,2.123c0.48-0.539,0.971,0.861,1.471,1.544c0.755-0.303,1.532,5.561,2.33,3.611
			c1.594-0.82,3.267,1.399,5.002,3.53c1.735,0.064,3.531,1.672,5.371-1.428c0.92,1.919,1.829,6.47,2.725,2.488
			c0.896,2.342,1.779-0.079,2.646-3.031c0.867,3.266,1.719,2.204,2.554,0.662s1.651-3.565,2.448-2.22
			c1.594,1.422,3.109-0.374,4.527-2.465c1.418-2.496,2.738,3.843,3.944-3.265c1.206-3.531,2.296-1.575,3.254-5.045
			c0.958-0.638,1.783-1.925,2.457-3.454c0.337,3.155,0.637,0.929,0.896,1.497c0.26-0.181,0.479-4.466,0.657-5.126
			c0.355,0.121,0.541-3.169,0.541-6.779C845.281,442.204,845.235,441.891,845.144,439.805z"/>
	</g>
	
		<path id="XMLID_158_" style="fill:none;stroke:#34323A;stroke-width:8;stroke-linecap:round;stroke-linejoin:round;stroke-miterlimit:10;" d="
		M845.281,444.647c0,3.609-0.186,6.9-0.541,6.779c-0.177,0.66-0.397,4.946-0.657,5.126c-0.26-0.567-0.559,1.659-0.896-1.497
		c-0.674,1.529-1.499,2.816-2.457,3.454c-0.958,3.47-2.048,1.514-3.254,5.045c-1.206,7.108-2.526,0.769-3.944,3.265
		c-1.418,2.091-2.933,3.887-4.527,2.465c-0.797-1.344-1.614,0.678-2.448,2.22s-1.687,2.604-2.554-0.662
		c-0.867,2.953-1.75,5.373-2.646,3.031c-0.896,3.982-1.805-0.569-2.725-2.488c-1.84,3.101-3.636,1.492-5.371,1.428
		c-1.735-2.131-3.408-4.35-5.002-3.53c-0.797,1.951-1.574-3.914-2.329-3.611c-0.755-1.033-1.488-3.726-2.197,1.145
		c-1.418,0.518-2.738-8.225-3.944-3.265c-0.603,1.678-1.177,0.257-1.72-0.388c-0.543-3.159-1.055-5.231-1.534-3.569
		c-0.958,0.184-1.783-6.583-2.457-4.542c-0.674,1.089-1.198,0.527-1.553-5.019c-0.355-2.858-0.541-5.789-0.541-5.389
		c0-3.697,0.047-5.672,0.138-6.32c0.091,1.543,0.226-0.702,0.404-1.215c0.355-3.82,0.879,2.916,1.553-2.873
		c0.337-3.767,0.712-3.759,1.122-5.189c0.41-0.583,0.856,0.396,1.335-2.597c0.958-2.38,2.048,2.816,3.254-0.713
		c1.206,1.394,2.526-2.212,3.944-1.248c1.418-1.629,2.933-3.797,4.527-4.483c3.188,3.826,6.694,5.848,10.373-2.101
		c3.679,11.244,7.185,8.126,10.373,2.101c1.594-0.629,3.109,2.627,4.527,5.129c1.418,2.501,2.738,3.583,3.944,0.602
		c1.206,0.01,2.296,1.177,3.254,2.821c0.958,2.885,1.783-0.043,2.457,5.678c0.674-1.732,1.198,0.235,1.553,5.019
		c0.177-2.909,0.313-1.539,0.404,0.547C845.235,441.891,845.281,442.204,845.281,444.647z"/>
</g>
</svg>
