<svg xmlns="http://www.w3.org/2000/svg" viewBox="0 0 501.05344 366.40637"><title>Asset 17</title><g id="Layer_2" data-name="Layer 2"><g id="Layer_1-2" data-name="Layer 1"><path d="M322.369,364.995c16.25-5.08,30.83-10.27,48.37-20.12,18.09-10.16,98.45-58.51,108.9-142.19a159.61541,159.61541,0,0,0-6.66-68.16c-3.23-9.47-9.93-28.49-26.84-47.3-20.7-23.04-44.32-31.97-58.17-37.02-29.14-10.63-53.58-10.07-65.22-9.69-12.56.41-34.73,1.33-59.93,12.34-16.44,7.18-26.66,15.37-41.72,27.61-23.86,19.41-27,27.49-68.74,67.57-11.46,11-20.88,19.67-35.26,28.21-9.97,5.92-18.03,9.23-32.9,15.27-36.55,14.85-46.95658,17.85676-58.91658,26.21676C2.02239,234.00177,3.529,251.745,2.529,255.565a75.12694,75.12694,0,0,0-1.77,29.97c3.05,20.07,13.86,33.19,20.57,41.13a113.09822,113.09822,0,0,0,32.9,26.44,210.24676,210.24676,0,0,0,26.96,11.89Z" fill="#efedef"/><path d="M261.30613,46.19626c26.24641-11.46026,49.33564-12.42711,62.42675-12.85257,12.11573-.39376,37.57416-.975,67.935,10.09845,14.42588,5.26152,39.0266,14.5633,60.59069,38.5577,17.60788,19.59232,24.58686,39.40669,27.94924,49.26817a166.31546,166.31546,0,0,1,6.93628,70.99515c-10.879,87.16757-94.5869,137.52534-113.429,148.1105" fill="none" stroke="#6a8d99" stroke-miterlimit="10"/><path d="M33.64869,272.587c2.41169,1.87395,6.66064,6.32428,6.77528,9.662,0,0,7.80885-8.49082,5.58874-15.75216a13.56165,13.56165,0,0,0-6.20117-6.24612s3.06212-1.7178,6.27749,2.49854c0,0-1.14821-11.39936-17.03351-7.26133,0,0-6.20116-12.64855-18.48824-.70275,0,0,8.268-1.054,6.66033,1.52257a24.03355,24.03355,0,0,0-8.249,4.16425,8.26519,8.26519,0,0,0-2.77521,5.77116c-.19127,3.08407-.48471,9.18707.11494,9.27173.80369.11708,6.08623-4.68463,9.64613-4.33325s-8.15338,10.89168-8.15338,10.89168,2.41168,9.13512,3.44526,9.01805c1.03327-.11708,4.78475-2.73269,3.25338,0l-2.641,2.10809,3.445,4.76279,8.65086-3.8259s-3.8278-10.46231-.30622-7.61255c0,0,2.67928,3.55268,2.71759,6.20721,0,0,11.579-5.036,10.43081-8.491a77.60649,77.60649,0,0,0-4.37636-9.3367,3.94812,3.94812,0,0,1-.47848-1.65267C31.9136,272.37218,32.14318,271.41575,33.64869,272.587Zm-1.42265-12.128c1.08467-.74834,3.75148-.26687,4.753,2.17306,1.0719,2.60911,1.027,5.51748-.05732,6.26567-1.08466.74834-4.16609-.22764-4.938-2.75223C31.12891,263.33475,31.14168,261.20712,32.226,260.45894Z" fill="#8b9d36"/><path d="M29.05543,255.48792a42.877,42.877,0,0,0-3.41749,4.44336,26.028,26.028,0,0,0-2.42193,5.01465c-.6311,1.74927-1.13915,3.54346-1.59519,5.35815-.462,1.81592-.90331,3.62989-1.27119,5.46167-.38984,1.82691-.73047,3.66578-1.00943,5.512-.28724,1.84619-.45248,3.70385-.67936,5.571a31.14293,31.14293,0,0,1-3.30139,10.74048,37.45517,37.45517,0,0,0,1.83373-5.29834,29.8763,29.8763,0,0,0,.97486-5.49463,87.05272,87.05272,0,0,1,1.55163-11.16186c.38937-1.84009.85353-3.66529,1.33468-5.47754a44.89024,44.89024,0,0,1,1.70106-5.3877,26.10466,26.10466,0,0,1,2.6215-5.01245A37.14361,37.14361,0,0,1,29.05543,255.48792Z" fill="#5e7c24"/><path d="M24.5461,261.43934a26.63889,26.63889,0,0,0-3.71707,1.07031c-1.20808.43921-2.40216.91528-3.56095,1.47217-2.35018,1.04956-4.57933,2.34009-6.854,3.60815.49664-.4209,1.01508-.81469,1.52923-1.217.53826-.36548,1.06828-.74707,1.61931-1.09643a33.60159,33.60159,0,0,1,3.43684-1.8794,28.1027,28.1027,0,0,1,3.68044-1.35766A14.53315,14.53315,0,0,1,24.5461,261.43934Z" fill="#5e7c24"/><path d="M19.31243,279.55237c-.88963.6897-1.81577,1.2544-2.72021,1.84351q-.67988.43616-1.32793.90112a3.64437,3.64437,0,0,0-1.099,1.14283,2.39876,2.39876,0,0,1,.76336-1.51709,7.73338,7.73338,0,0,1,1.3138-1.06739A9.46807,9.46807,0,0,1,19.31243,279.55237Z" fill="#5e7c24"/><path d="M21.08608,271.20985a30.60223,30.60223,0,0,1,2.92625,3.15625,37.0804,37.0804,0,0,1,2.51835,3.50293,24.7591,24.7591,0,0,1,1.96583,3.85473,11.73488,11.73488,0,0,1,.90343,4.21436,16.60873,16.60873,0,0,0-1.359-4.01929,30.62347,30.62347,0,0,0-2.05655-3.70972c-.722-1.22094-1.5446-2.3811-2.36467-3.54419C22.79674,273.50306,21.947,272.35731,21.08608,271.20985Z" fill="#5e7c24"/><path d="M10.49062,307.8l3.21535,2.967s3.13879-3.3183,3.4833-1.015c0,0-.49762,2.30329-1.11006,2.49849,0,0,7.69387,6.18766,9.24412,1.09308a49.14289,49.14289,0,0,1,2.3541-6.67564s1.72251.93693.22967,8.31528c0,0,5.95437-1.74977,8.1655-4.95985a2.29616,2.29616,0,0,0,.389-1.28081c.02131-1.83518.26318-7.00033,2.35477-5.0611,0,0,1.20575.58559.28708,4.509,0,0,4.84585-5.46307,2.54407-8.82079a3.35734,3.35734,0,0,0-4.11676-1.08625c-1.34571.58416-3.84262,1.66-8.47527,3.6413A92.45576,92.45576,0,0,1,10.49062,307.8Z" fill="#8b9d36"/><path d="M21.08608,312.3285a18.36112,18.36112,0,0,1,1.58279-4.86572,11.82429,11.82429,0,0,1,1.35952-2.20289,5.26018,5.26018,0,0,1,.93387-.92675,1.95824,1.95824,0,0,1,1.2232-.437,3.51781,3.51781,0,0,0-1.7493,1.65772,22.36758,22.36758,0,0,0-1.18881,2.19165C22.50816,309.24818,21.84977,310.79652,21.08608,312.3285Z" fill="#5e7c24"/><path d="M31.5435,309.90809a15.27471,15.27471,0,0,1,.40768-4.49878,11.53825,11.53825,0,0,1,.75169-2.15845,3.38607,3.38607,0,0,1,1.52009-1.697,4.61067,4.61067,0,0,0-1.056,1.89038c-.22446.69434-.41724,1.40088-.59008,2.1167C32.22836,306.99451,31.93911,308.44666,31.5435,309.90809Z" fill="#5e7c24"/><path d="M85.0561,256.72073s-7.73215,1.10952-.84212,6.575c0,0,1.76079,1.48348,7.50249,3.20119C91.71647,266.49688,95.31459,250.84848,85.0561,256.72073Z" fill="#5e7c24"/><path d="M91.71646,266.497c-.14315-.51246-.23695-1.02588-.36581-1.53028-.161-.49634-.27727-1.00146-.45345-1.48535a14.392,14.392,0,0,0-1.29286-2.773,10.9057,10.9057,0,0,0-1.94941-2.32642,9.245,9.245,0,0,0-2.59883-1.66113,6.53982,6.53982,0,0,1,2.91476,1.27,8.84668,8.84668,0,0,1,2.18027,2.37769,10.77412,10.77412,0,0,1,1.22636,2.9707c.14034.51538.1931,1.05.28207,1.57129C91.68553,265.44251,91.71778,265.97059,91.71646,266.497Z" fill="#50661a"/><path d="M75.24315,225.10493s8.5723-5.46149,11.13985,6.66537c0,0-4.44872-3.82925-4.50765-1.61407a16.97932,16.97932,0,0,1,3.227,5.74969,6.29575,6.29575,0,0,1-.6201,4.64846c-1.08966,1.98312-3.29121,5.87839-3.67815,5.702-.51807-.23612-1.75194-5.24253-3.981-6.39195s.54852,9.88543.54852,9.88543-4.97626,4.73832-5.53806,4.26875-1.74836-3.53091-1.91268-1.249l.73143,2.321L66.772,256.72073l-3.59385-5.695s6.32577-5.0174,3.14577-4.60285c0,0-2.95883,1.17374-4.01555,2.80515,0,0-4.84339-7.57015-2.82246-9.27145a57.35656,57.35656,0,0,1,6.1944-4.1011,2.90276,2.90276,0,0,0,1.054-1.02849c.285-.49105.34055-1.01439-.85242-.88343-2.14736.23573-6.37838,1.36345-7.74626,3.38909,0,0-1.28141-8.26436,2.85233-11.91423a9.54562,9.54562,0,0,1,6.078-1.49146s-1.13056-2.2413-4.6629-.86187C62.403,223.06509,67.519,216.43757,75.24315,225.10493Z" fill="#5e7c24"/><path d="M79.08474,238.68153c-.69961-1.70533-1.35608-3.395-2.154-5.00684a14.56382,14.56382,0,0,0-1.387-2.2749,3.53157,3.53157,0,0,0-2.13543-1.47534,3.11724,3.11724,0,0,1,2.512,1.14209,9.92048,9.92048,0,0,1,1.58608,2.31982A16.58249,16.58249,0,0,1,79.08474,238.68153Z" fill="#50661a"/><path d="M61.47687,242.76136A12.88557,12.88557,0,0,1,63.1155,240.111a12.31171,12.31171,0,0,1,2.22362-2.22193,8.176,8.176,0,0,1,2.82217-1.44873,5.43727,5.43727,0,0,1,3.12469.10108,7.115,7.115,0,0,0-2.97473.37866,9.89685,9.89685,0,0,0-2.58085,1.48023,17.919,17.919,0,0,0-2.23613,2.03833C62.80033,241.18153,62.11825,241.94715,61.47687,242.76136Z" fill="#50661a"/><path d="M69.51525,226.20887a3.968,3.968,0,0,1,2.64674-1.55518,6.21523,6.21523,0,0,1,1.5847-.04223,8.8698,8.8698,0,0,1,1.55251.31933l.1885.053-.077.19434c-1.00144,2.52954-1.85224,5.12793-2.69247,7.72046-.82221,2.60058-1.5629,5.22583-2.28809,7.85571q-1.04583,3.95582-1.95788,7.94824c-.61168,2.66089-1.14968,5.33814-1.7003,8.01831.33645-2.71387.7407-5.42285,1.2706-8.1084.48194-2.6958,1.13614-5.35669,1.8-8.01294.66968-2.656,1.46495-5.27905,2.32124-7.88061.85094-2.60474,1.80441-5.17212,2.91158-7.687l.11143.24707-.73159-.218c-.24888-.04712-.49636-.10913-.74667-.15039a5.97472,5.97472,0,0,0-1.51795-.04932A4.00751,4.00751,0,0,0,69.51525,226.20887Z" fill="#50661a"/><path d="M72.16547,249.65223a14.19923,14.19923,0,0,0-1.02689-2.70728,2.43789,2.43789,0,0,0-.87851-.94653,2.985,2.985,0,0,0-1.37163-.25537,2.02092,2.02092,0,0,1,1.565-.20874A2.33607,2.33607,0,0,1,71.695,246.621,4.546,4.546,0,0,1,72.16547,249.65223Z" fill="#50661a"/><path d="M43.56278,312.32851s-1.52394-5.26048-5.3924-2.28651a7.76313,7.76313,0,0,0-2.68087,4.113c-.69766,2.51767-1.30072,7.08012.41768,13.55487,0,0,3.96025-5.47889,6.89-7.41739C46.10136,318.10627,48.2327,313.10929,43.56278,312.32851Z" fill="#c4ce6e"/><path d="M43.56279,312.3285a6.62972,6.62972,0,0,0-1.50248,1.54565,15.10535,15.10535,0,0,0-1.18489,1.80152,34.4493,34.4493,0,0,0-1.9069,3.87915c-.58436,1.32251-1.0882,2.68017-1.58851,4.04248l-1.47282,4.11255c.12578-.72.29222-1.43067.43762-2.1482.1681-.71118.37729-1.41162.56445-2.11938a43.9354,43.9354,0,0,1,1.468-4.14136,27.31854,27.31854,0,0,1,2.08017-3.88745A8.81768,8.81768,0,0,1,43.56279,312.3285Z" fill="#8b9d36"/><path d="M49.14616,239.25406s.12906-5.4837-4.4466-3.861a7.62959,7.62959,0,0,0-3.78719,3.0779c-1.42021,2.17875-3.36442,6.33356-3.673,13.03392,0,0,5.41528-3.97855,8.78641-4.90872C49.82764,245.54711,53.35718,241.456,49.14616,239.25406Z" fill="#8b9d36"/><path d="M49.14616,239.254a6.51545,6.51545,0,0,0-1.89524,1.00146,14.86154,14.86154,0,0,0-1.67,1.345A33.9048,33.9048,0,0,0,42.6,244.69813c-.95311,1.07666-1.84033,2.21142-2.72515,3.35205l-2.63552,3.45459c.3356-.64478.70716-1.2688,1.06077-1.90552.37317-.62378.78258-1.22461,1.173-1.83936a43.348,43.348,0,0,1,2.64072-3.48339,26.90927,26.90927,0,0,1,3.14905-3.05323A8.6759,8.6759,0,0,1,49.14616,239.254Z" fill="#5e7c24"/><path d="M83.68075,312.32851s1.52394-5.26048,5.39241-2.28651a7.76324,7.76324,0,0,1,2.68087,4.113c.69766,2.51767,1.30072,7.08012-.41768,13.55487,0,0-3.96025-5.47889-6.89-7.41739C81.14218,318.10627,79.01084,313.10929,83.68075,312.32851Z" fill="#8b9d36"/><path d="M83.68075,312.3285a8.81776,8.81776,0,0,1,3.10535,3.085,27.31854,27.31854,0,0,1,2.08017,3.88745,43.9383,43.9383,0,0,1,1.468,4.14136c.18714.70776.39633,1.4082.56443,2.11938.14541.71753.31185,1.42822.43763,2.1482l-1.47282-4.11255c-.50031-1.36231-1.00415-2.72-1.58851-4.04248a34.4493,34.4493,0,0,0-1.9069-3.87915,15.10543,15.10543,0,0,0-1.1849-1.80152A6.62968,6.62968,0,0,0,83.68075,312.3285Z" fill="#5e7c24"/><path d="M85.0561,256.72073s-19.26145-16.458-24.25291,79.69477" fill="none" stroke="#50661a" stroke-miterlimit="10" stroke-width="0.64428"/><path d="M66.772,256.72073s-9.58228,63.41556-3.84058,79.69477" fill="none" stroke="#50661a" stroke-miterlimit="10" stroke-width="0.64428"/><path d="M59.27829,336.4155s-7.12112-28.57719-15.71551-24.087" fill="none" stroke="#50661a" stroke-miterlimit="10" stroke-width="0.64428"/><path d="M60.30163,327.89344s6.2063-106.17217-11.15547-88.63938" fill="none" stroke="#50661a" stroke-miterlimit="10" stroke-width="0.64428"/><path d="M67.96524,336.4155s7.12113-28.57719,15.71551-24.087" fill="none" stroke="#50661a" stroke-miterlimit="10" stroke-width="0.64428"/><path d="M41.107,298.77041s13.47981-3.30669,20.82918,36.98143" fill="none" stroke="#50661a" stroke-miterlimit="10" stroke-width="0.64428"/><path d="M45.54753,273.80719s3.90541,2.60556,18.683,61.94465" fill="none" stroke="#50661a" stroke-miterlimit="10" stroke-width="0.64428"/><path d="M82.46048,287.27005S67.86429,310.37657,66.50793,336.4155" fill="none" stroke="#50661a" stroke-miterlimit="10" stroke-width="0.64428"/><path d="M43.63934,329.59522v5.34632a1.85288,1.85288,0,0,0,1.83439,1.87085H82.22649a1.85288,1.85288,0,0,0,1.83438-1.87085v-4.927a1.85337,1.85337,0,0,0-1.81386-1.87073l-36.75276-.41936A1.8524,1.8524,0,0,0,43.63934,329.59522Z" fill="#d6694b"/><polygon points="45.394 336.812 46.701 364.406 80.135 364.406 82.307 336.812 45.394 336.812" fill="#e19974"/><path d="M76.44351,285.69744c.05108-2.51793,5.257,2.04964,5.257,2.04964-3.10074-13.91745-13.00822-8.11372-13.00822-8.11372-9.05924-10.228-14.94111-2.93427-14.94111-2.93427,4.08915-1.399,5.42271,1.2036,5.42271,1.2036a10.888,10.888,0,0,0-7.04971,1.40534c-4.76544,3.956-3.2023,13.41644-3.2023,13.41644,1.56938-2.23819,6.48153-3.31837,8.96953-3.48739,1.56315-.1042,1.28871.66368.86786,1.2492a3.1611,3.1611,0,0,1-1.06535.91084,62.50825,62.50825,0,0,0-7.17712,4.37885c-2.33506,1.83487,3.36832,10.67723,3.36832,10.67723,1.21208-1.80231,4.638-2.99955,4.638-2.99955,3.69385-.31882-3.611,5.08811-3.611,5.08811l4.22964,6.6496,4.49785-1.67221-.87409-2.67407c.17227-2.58957,1.57592.94992,2.23288,1.50938.657.56614,6.39867-4.58694,6.39867-4.58694s-3.33-12.68763-.7336-11.26926c2.603,1.41185,4.08292,7.16364,4.68911,7.4564.45293.22127,2.973-4.10563,4.22341-6.31126a6.89892,6.89892,0,0,0,.67628-5.25077A20.51143,20.51143,0,0,0,76.44351,285.69744Zm-14.5265-.104c-1.65878,1.37278-4.21064.61157-4.61872-.40983-.41492-1.015.85478-3.03863,2.75591-4.3269,1.77995-1.21028,3.82779-.30579,4.23618.71577C64.705,282.58732,63.76082,284.058,61.917,285.59339Z" fill="#5e7c24"/><path d="M68.6908,279.63343a31.03877,31.03877,0,0,1,.64587,4.605,21.59955,21.59955,0,0,1-.414,4.65381,35.91063,35.91063,0,0,1-1.22867,4.5c-.47851,1.4707-.974,2.9436-1.52808,4.39355a70.39409,70.39409,0,0,1-3.94911,8.418,24.47342,24.47342,0,0,0-1.80358,4.22681,31.46637,31.46637,0,0,0-1.13492,4.481,25.3544,25.3544,0,0,1,2.49663-8.93213,80.04625,80.04625,0,0,0,3.7908-8.42578c.56755-1.43116,1.0764-2.88306,1.57288-4.346.50021-1.459.94961-2.92676,1.30127-4.41675a21.53153,21.53153,0,0,0,.58285-4.5481A37.12611,37.12611,0,0,0,68.6908,279.63343Z" fill="#50661a"/><path d="M69.12734,285.81654a11.72928,11.72928,0,0,1,2.42841,2.18286,20.69261,20.69261,0,0,1,1.93138,2.64184,23.93365,23.93365,0,0,1,1.51216,2.89575,21.62381,21.62381,0,0,1,1.08336,3.07325l-1.5346-2.85157c-.52256-.93774-1.0407-1.87426-1.609-2.77929q-.83769-1.36633-1.7748-2.66773A25.095,25.095,0,0,0,69.12734,285.81654Z" fill="#50661a"/><path d="M64.62556,300.68763a7.12231,7.12231,0,0,1,1.57834,2.29419,6.12513,6.12513,0,0,1,.4154,1.35327,1.97035,1.97035,0,0,1-.19677,1.415,3.29912,3.29912,0,0,0-.28913-1.28613c-.16654-.40821-.338-.81617-.5194-1.22413A21.1223,21.1223,0,0,1,64.62556,300.68763Z" fill="#50661a"/><path d="M67.13626,294.13465,63.86633,295.372c-1.0798.42382-2.1547.854-3.20066,1.34106a28.51027,28.51027,0,0,0-3.06818,1.58032,13.95106,13.95106,0,0,0-2.75321,2.08985,9.12475,9.12475,0,0,1,2.47678-2.50977,17.8086,17.8086,0,0,1,3.0783-1.74658A25.31165,25.31165,0,0,1,67.13626,294.13465Z" fill="#50661a"/><path d="M99.5449,269.965s7.4681-11.15591,16.80819,2.01815c0,0-7.31492-2.20688-6.24232.483a21.737,21.737,0,0,1,6.84,5.16732,8.22337,8.22337,0,0,1,1.65506,5.91114c-.28407,2.96476-.91553,8.821-1.47089,8.81715-.74355-.00523-4.80815-5.35061-8.07637-5.53325s5.76035,11.56823,5.76035,11.56823-3.526,8.35757-4.44257,8.09567-3.92045-3.29854-2.93989-.472l2.07564,2.39251-3.815,4.03929-7.252-4.90476s5.00144-9.417,1.39934-7.21229c0,0-2.94486,2.99694-3.37093,5.522,0,0-9.71929-6.48415-8.17223-9.61067a76.8199,76.8199,0,0,1,5.30667-8.2329,3.94149,3.94149,0,0,0,.74055-1.7861c.09694-.75349-.09438-1.438-1.47543-.63038-2.4552,1.43568-6.95046,5.06038-7.54646,8.22552,0,0-5.80315-9.22945-2.72638-15.82855a12.74929,12.74929,0,0,1,6.52393-5.05275s-2.51349-2.08265-6.04041,1.469C83.08372,274.41032,85.80238,263.71066,99.5449,269.965Z" fill="#c4ce6e"/><path d="M99.54489,269.965a80.78755,80.78755,0,0,1,3.23014,10.30762c.8761,3.49731,1.55411,7.04395,2.0851,10.61084a106.34051,106.34051,0,0,1,1.00141,10.76758,92.5593,92.5593,0,0,1-.16446,10.80127c-.02833-3.60034-.04646-7.19312-.33039-10.77442q-.34046-5.3734-1.14338-10.7019c-.47524-3.55737-1.15924-7.084-1.92849-10.59033C101.521,276.87952,100.62856,273.39686,99.54489,269.965Z" fill="#8b9d36"/><path d="M101.40891,275.90321a17.1764,17.1764,0,0,0-1.61391,2.395,26.056,26.056,0,0,0-1.267,2.56861c-.37629.87817-.7038,1.77783-1.00712,2.69043-.30022.91406-.5687,1.84131-.85431,2.77978a15.35039,15.35039,0,0,1,.36967-2.91357,16.61941,16.61941,0,0,1,.8998-2.81006,14.61818,14.61818,0,0,1,1.43684-2.58472A8.81609,8.81609,0,0,1,101.40891,275.90321Z" fill="#8b9d36"/><path d="M104.51628,290.67908A7.37908,7.37908,0,0,1,109.27,294.161a6.04366,6.04366,0,0,1,.71737,1.87182,16.40419,16.40419,0,0,0-2.41341-2.99975A18.27975,18.27975,0,0,0,104.51628,290.67908Z" fill="#8b9d36"/><path d="M331.182,364.40637h-5.19063l-.24489-72.18563H124.24541l-.348,72.18563h-5.2505V2.4191A2.4191,2.4191,0,0,1,121.066,0H328.76288a2.4191,2.4191,0,0,1,2.4191,2.4191Z" fill="#935b50"/><rect x="124.06079" y="220.24136" width="201.70726" height="68.06073" rx="1.20955" fill="#d6694b"/><path d="M191.34484,278.85031h53.33553a0,0,0,0,1,0,0v8.46782a0,0,0,0,1,0,0H191.34484a3.6436,3.6436,0,0,1-3.6436-3.6436v-1.18063a3.6436,3.6436,0,0,1,3.6436-3.6436Z" fill="#fff"/><path d="M246.34834,287.53488a.76723.76723,0,0,1-.76722.76722H190.22473c-2.11358,0-3.83279-2.32141-3.83279-5.17531,0-2.8532,1.71921-5.17461,3.83279-5.17461h55.35639a.76723.76723,0,0,1,.76722.76722v.6039a.76723.76723,0,0,1-.76722.76722H190.22473c-1.24031,0-2.24915,1.36221-2.24915,3.03627,0,1.67475,1.00884,3.037,2.24915,3.037h55.35639a.76722.76722,0,0,1,.76722.76722Z" fill="#f65b2b"/><path d="M183.02348,268.5004H236.359a0,0,0,0,1,0,0v8.46782a0,0,0,0,1,0,0H183.02348a3.6436,3.6436,0,0,1-3.6436-3.6436V272.144A3.6436,3.6436,0,0,1,183.02348,268.5004Z" fill="#fff"/><path d="M238.027,277.185a.76722.76722,0,0,1-.76722.76722H181.90337c-2.11357,0-3.83279-2.3214-3.83279-5.1753,0-2.85321,1.71922-5.17461,3.83279-5.17461h55.35639a.76722.76722,0,0,1,.76722.76721v.6039a.76722.76722,0,0,1-.76722.76722H181.90337c-1.24031,0-2.24915,1.36222-2.24915,3.03628,0,1.67475,1.00884,3.037,2.24915,3.037h55.35639a.76723.76723,0,0,1,.76722.76722Z" fill="#ffba55"/><path d="M200.057,258.15048h53.33553a0,0,0,0,1,0,0v8.46782a0,0,0,0,1,0,0H200.057a3.6436,3.6436,0,0,1-3.6436-3.6436v-1.18063A3.6436,3.6436,0,0,1,200.057,258.15048Z" fill="#fff"/><path d="M255.06046,266.83505a.76722.76722,0,0,1-.76721.76722h-55.3564c-2.11357,0-3.83278-2.32141-3.83278-5.17531,0-2.8532,1.71921-5.17461,3.83278-5.17461h55.3564a.76722.76722,0,0,1,.76721.76722v.6039a.76722.76722,0,0,1-.76721.76722h-55.3564c-1.2403,0-2.24915,1.36221-2.24915,3.03627,0,1.67475,1.00885,3.037,2.24915,3.037h55.3564a.76721.76721,0,0,1,.76721.76722Z" fill="#f65b2b"/><rect x="124.06079" y="77.93256" width="201.70726" height="68.06073" rx="1.20955" fill="#d6694b"/><path d="M215.12058,136.5415h53.33553a0,0,0,0,1,0,0v8.46782a0,0,0,0,1,0,0H215.12058a3.6436,3.6436,0,0,1-3.6436-3.6436V140.1851A3.6436,3.6436,0,0,1,215.12058,136.5415Z" fill="#fff"/><path d="M270.12408,145.22607a.76723.76723,0,0,1-.76722.76722H214.00047c-2.11357,0-3.83279-2.3214-3.83279-5.17531,0-2.8532,1.71922-5.1746,3.83279-5.1746h55.35639a.76722.76722,0,0,1,.76722.76721v.6039a.76722.76722,0,0,1-.76722.76722H214.00047c-1.24031,0-2.24915,1.36222-2.24915,3.03627,0,1.67476,1.00884,3.037,2.24915,3.037h55.35639a.76723.76723,0,0,1,.76722.76722Z" fill="#f65b2b"/><path d="M206.79922,126.19159h53.33553a0,0,0,0,1,0,0v8.46782a0,0,0,0,1,0,0H206.79922a3.6436,3.6436,0,0,1-3.6436-3.6436v-1.18063a3.6436,3.6436,0,0,1,3.6436-3.6436Z" fill="#fff"/><path d="M261.80272,134.87616a.76722.76722,0,0,1-.76722.76722H205.67911c-2.11357,0-3.83278-2.32141-3.83278-5.17531,0-2.85321,1.71921-5.17461,3.83278-5.17461H261.0355a.76722.76722,0,0,1,.76722.76722v.6039a.76722.76722,0,0,1-.76722.76722H205.67911c-1.24031,0-2.24915,1.36221-2.24915,3.03627,0,1.67475,1.00884,3.037,2.24915,3.037H261.0355a.76721.76721,0,0,1,.76722.76722Z" fill="#ffba55"/><path d="M223.83271,115.84167h53.33553a0,0,0,0,1,0,0v8.46782a0,0,0,0,1,0,0H223.83271a3.6436,3.6436,0,0,1-3.6436-3.6436v-1.18063a3.6436,3.6436,0,0,1,3.6436-3.6436Z" fill="#fff"/><path d="M278.83621,124.52624a.76723.76723,0,0,1-.76722.76722h-55.3564c-2.11357,0-3.83278-2.32141-3.83278-5.17531,0-2.8532,1.71921-5.17461,3.83278-5.17461H278.069a.76723.76723,0,0,1,.76722.76722v.6039a.76722.76722,0,0,1-.76722.76722h-55.3564c-1.2403,0-2.24915,1.36222-2.24915,3.03627,0,1.67476,1.00885,3.037,2.24915,3.037H278.069a.76723.76723,0,0,1,.76722.76722Z" fill="#f65b2b"/><rect x="124.06079" y="6.77815" width="201.70726" height="68.06073" rx="1.20955" fill="#d6694b"/><rect x="124.06079" y="149.08696" width="201.70726" height="68.06073" rx="1.20955" fill="#d6694b"/><rect x="134.57927" y="223.33503" width="42.38327" height="25.52278" rx="1.71871" fill="#7ca1b1"/><path d="M159.08428,248.85781v1.93865a13.47947,13.47947,0,0,0,3.89342,9.43175c4.96857,5.06823,11.94836,15.40967,3.32515,28.07389H144.53057c-8.62321-12.66422-1.64342-23.00566,3.32515-28.07389a13.47947,13.47947,0,0,0,3.89342-9.43175v-1.93865Z" fill="#ffba55"/><path d="M144.94306,226.89271a66.536,66.536,0,0,1-1.44649,8.542,65.76228,65.76228,0,0,1-2.42059,8.3186,65.75293,65.75293,0,0,1,1.44648-8.542A66.53891,66.53891,0,0,1,144.94306,226.89271Z" fill="#6a8d99"/><path d="M153.14128,230.75989a23.599,23.599,0,0,1,.96171,5.05933,23.32975,23.32975,0,0,1-.0336,5.14966,23.33008,23.33008,0,0,1-.96171-5.05933A23.59937,23.59937,0,0,1,153.14128,230.75989Z" fill="#6a8d99"/><path d="M161.80356,226.89271a60.645,60.645,0,0,1,2.34311,7.93115,59.932,59.932,0,0,1,1.36929,8.156,59.94157,59.94157,0,0,1-2.3431-7.93116A60.64706,60.64706,0,0,1,161.80356,226.89271Z" fill="#6a8d99"/><path d="M171.23926,228.43958a13.09755,13.09755,0,0,1,1.26261,3.6106,12.94856,12.94856,0,0,1,.28422,3.81421,12.949,12.949,0,0,1-1.26262-3.6106A13.09747,13.09747,0,0,1,171.23926,228.43958Z" fill="#6a8d99"/><path d="M164.39881,51.53324h7.906A4.29676,4.29676,0,0,1,176.60162,55.83V74.83889a0,0,0,0,1,0,0H160.102a0,0,0,0,1,0,0V55.83A4.29676,4.29676,0,0,1,164.39881,51.53324Z" fill="#7ca1b1"/><path d="M170.59474,49.0712a2.462,2.462,0,0,1-4.92409,0c0-1.35975,2.462-5.24635,2.462-5.24635S170.59474,47.71145,170.59474,49.0712Z" fill="#fff"/><rect x="211.76633" y="180.48771" width="37.58809" height="36.65999" rx="1.20955" fill="#d77f4a"/><rect x="213.11442" y="181.80252" width="34.89189" height="34.03037" rx="1.20955" fill="#fff"/><path d="M229.70941,212.19787c-.54.01259-1.52778-.1905-5.87784-7.42492-3.41181-5.67412-3.87464-7.32926-4.0215-8.97159-.12462-1.38974-.4473-4.99688,1.7015-6.34193a3.92347,3.92347,0,0,1,4.17634.15463c.509.37848.86145.898,1.54667,3.09354,1.14678,3.67449,1.13167,5.3355,1.7015,5.414.57821.07972.89837-1.588,2.7845-4.33118a8.75431,8.75431,0,0,1,3.09375-3.24816c.14645-.07679,2.64436-1.35428,4.02151-.46409,1.51939.98188,1.61632,4.56405-.46409,8.66213a63.07367,63.07367,0,0,1-3.403,6.96085C232.5258,210.00774,231.272,212.16158,229.70941,212.19787Z" fill="#f65b2b"/><path d="M299.0078,169.50518h0A16.19019,16.19019,0,0,1,315.198,185.69537v31.45232a0,0,0,0,1,0,0H282.81761a0,0,0,0,1,0,0V185.69537a16.19019,16.19019,0,0,1,16.19019-16.19019Z" fill="#ffba55"/><circle cx="299.57508" cy="186.4689" r="12.11678" fill="#fff"/><path d="M303.02959,176.92994c-.84073,3.29223-1.91617,6.49939-3.05228,9.68457l-.179-.5105c3.00616,1.84143,5.97262,3.7478,8.79989,5.88184-3.18811-1.54383-6.237-3.31543-9.24615-5.152l-.29965-.18286.12054-.32788C300.33977,183.14905,301.56731,179.99708,303.02959,176.92994Z" fill="#080200"/><path d="M160.61773,141.24966v.44687a4.29833,4.29833,0,0,1-4.29676,4.29676H143.41349a4.29833,4.29833,0,0,1-4.29676-4.29676v-17.3933a4.29833,4.29833,0,0,1,4.29676-4.29677H156.321a4.29833,4.29833,0,0,1,4.29676,4.29677v16.94643Z" fill="#ffba55"/><path d="M167.733,124.44059h-7.11526v2.57806H166.444v11.65287h-5.82623v2.57806H167.733a1.28722,1.28722,0,0,0,1.289-1.289V125.72962A1.28735,1.28735,0,0,0,167.733,124.44059Z" fill="#fff"/><rect x="149.86723" y="128.90288" width="5.34021" height="5.34021" rx="0.85935" fill="#fff"/><line x1="152.53734" y1="128.90288" x2="152.53734" y2="120.00646" fill="none" stroke="#e5caf3" stroke-miterlimit="10" stroke-width="1.20955"/><polygon points="232.014 74.839 214.915 74.839 209.153 44.559 237.775 44.559 232.014 74.839" fill="#ffba55"/><polygon points="237.117 48.015 237.775 44.559 209.153 44.559 209.811 48.015 237.117 48.015" fill="#e5caf3"/><rect x="213.72732" y="60.4844" width="5.1082" height="5.1082" transform="translate(107.92232 -134.47051) rotate(45)" fill="#e5caf3"/><rect x="220.95141" y="60.4844" width="5.1082" height="5.1082" transform="translate(110.0382 -139.57871) rotate(45)" fill="#e5caf3"/><rect x="228.0923" y="60.4844" width="5.1082" height="5.1082" transform="translate(112.12972 -144.62808) rotate(45)" fill="#e5caf3"/><path d="M230.12463,19.07523s1.50149,21.21243-7.29889,25.70792C222.82574,44.78315,219.77907,36.74079,230.12463,19.07523Z" fill="#558031"/><path d="M201.72749,28.18717s14.397,2.48406,21.09825,16.596C222.82574,44.78315,206.994,39.406,201.72749,28.18717Z" fill="#849f4c"/><path d="M206.83228,55.97261s7.32185-10.95378,15.99346-11.18946C222.82574,44.78315,221.52027,53.603,206.83228,55.97261Z" fill="#a6b862"/><path d="M215.86391,22.09882s10.15911,9.27562,6.96183,22.68433C222.82574,44.78315,217.198,38.81778,215.86391,22.09882Z" fill="#849f4c"/><path d="M222.82574,44.78315s3.56927-13.0656,21.61275-16.416C244.43849,28.36717,240.37791,40.26362,222.82574,44.78315Z" fill="#a6b862"/><path d="M249.21824,41.36771s-13.76666-5.67542-26.3925,3.41544C222.82574,44.78315,239.61045,46.79831,249.21824,41.36771Z" fill="#849f4c"/><path d="M249.093,54.58069s-6.64727-10.64737-26.26726-9.79754Z" fill="#558031"/><path d="M194.31209,43.0597s18.07991-6.704,28.75025,1.4029C223.06234,44.4626,212.93057,50.04329,194.31209,43.0597Z" fill="#558031"/><path d="M209.13806,23.64777S225.27085,35.058,222.95657,44.79242C222.95657,44.79242,211.76415,35.81848,209.13806,23.64777Z" fill="#558031"/><path d="M237.4379,56.14021s-13.29965-2.27053-14.61216-11.35706C222.82574,44.78315,232.54342,45.26446,237.4379,56.14021Z" fill="#849f4c"/><path d="M261.428,252.40561s15.51566,11.43629,20.59055,10.12588" fill="none" stroke="#8b9d36" stroke-linecap="round" stroke-linejoin="round" stroke-width="1.97622"/><line x1="278.68907" y1="230.66109" x2="281.07441" y2="263.36539" fill="none" stroke="#8b9d36" stroke-linecap="round" stroke-linejoin="round" stroke-width="1.97622"/><path d="M291.10617,264.23429s2.57146-14.50921,16.03831-20.79314" fill="none" stroke="#8b9d36" stroke-linecap="round" stroke-linejoin="round" stroke-width="1.97622"/><path d="M289.92589,260.86369c-.80342-1.57344-5.12091-1.57563-7.87789.35749a7.54989,7.54989,0,0,0-2.65542,3.4845c-.46942,1.20917-1.22074,3.144-.177,4.4673a3.917,3.917,0,0,0,4.33717.80393,21.14041,21.14041,0,0,0,3.71768-3.66312C288.86987,264.28881,290.57347,262.132,289.92589,260.86369Z" fill="#5e7c24"/><path d="M293.28964,260.68506c-.30086.79012.29606,1.69584,1.41619,3.39508a16.312,16.312,0,0,0,3.89464,4.11005,4.6466,4.6466,0,0,0,5.488.6253,4.44534,4.44534,0,0,0,2.03568-3.75256c-.01825-2.31484-1.99606-3.74723-2.74378-4.28867C299.75926,258.15161,294.01718,258.77522,293.28964,260.68506Z" fill="#5e7c24"/><path d="M303.9113,245.85369c.26389-.44983.94773-.22128,2.47846-.44693a28.50491,28.50491,0,0,0,3.80628-1.16142,14.64846,14.64846,0,0,1,3.27515-.80417c.4639.00218,3.08594.01406,3.983,1.787.93981,1.85725-.80006,4.09284-.88506,4.19924-1.682,2.10156-4.55567,1.999-5.488,1.96559a8.47278,8.47278,0,0,1-5.93057-2.85895C304.94067,248.29917,303.45293,246.63459,303.9113,245.85369Z" fill="#5e7c24"/><path d="M279.74675,237.1869c-.93428-.47043-.38754-3.45929-.0886-5.0926a30.31413,30.31413,0,0,1,1.68175-5.09285c1.549-4.081,1.90242-4.52062,2.47846-4.73511a3.7043,3.7043,0,0,1,4.07184,1.87615c1.02409,1.98159-.54577,4.48669-2.21288,7.14764C284.07624,233.8454,280.962,237.79864,279.74675,237.1869Z" fill="#5e7c24"/><path d="M279.39258,245.04952c.68721-1.11828-.57723-3.30516-1.85872-4.4673-1.07571-.97553-2.17639-1.24068-4.07184-1.69754-2.12885-.51309-4.47212-1.0778-5.13387-.08943-.631.94232.6034,2.79351.8853,3.21644a7.82484,7.82484,0,0,0,3.62907,2.76977C274.7339,245.5643,278.50584,246.49232,279.39258,245.04952Z" fill="#c4ce6e"/><path d="M279.48118,253.71606c.02522-.88973-1.26107-1.07417-3.89464-3.21645-2.09067-1.70068-2.15022-2.29206-3.36375-2.68033-1.85776-.59428-4.28291-.02836-4.69134,1.16142-.09989.29133-.08572.63912,1.50479,3.21645,1.23731,2.00485,1.86833,3.015,2.47845,3.39507a5.81525,5.81525,0,0,0,4.42578.44668C277.05147,255.77593,279.44709,254.92183,279.48118,253.71606Z" fill="#5e7c24"/><path d="M280.44914,243.43279c-.86753-.9823.00539-3.35611,1.06974-4.72344.89343-1.14775,1.93252-1.60006,3.72187-2.37921,2.00968-.87506,4.22179-1.83821,5.04211-.97947.7822.81872-.11836,2.85665-.324,3.32222a7.86151,7.86151,0,0,1-3.103,3.35858C285.12612,243.131,281.56854,244.70013,280.44914,243.43279Z" fill="#5e7c24"/><path d="M281.09106,252.66574c-.17646-.87209,1.05922-1.27711,3.28847-3.84471,1.76969-2.03833,1.72757-2.63123,2.85685-3.22442,1.7288-.908,4.21424-.77155,4.81934.32958.148.26964.19335.61471-.93425,3.42977-.87721,2.1898-1.32667,3.29449-1.86294,3.77479a5.82381,5.82381,0,0,1-4.28369,1.20845C283.83558,254.27305,281.33012,253.84762,281.09106,252.66574Z" fill="#5e7c24"/><path d="M266.912,257.28975c-.12414-.96946-1.72066-1.50461-3.62908-2.14421-1.72426-.57781-3.09314-1.03685-4.69134-.53612-.28261.08846-2.7966.87591-3.00958,2.76977-.19114,1.69874,1.62124,2.93893,1.77035,3.03782a5.35453,5.35453,0,0,0,4.16021.44668C264.00154,260.38477,267.09468,258.71584,266.912,257.28975Z" fill="#5e7c24"/><path d="M274.08175,261.75705c-1.33287-.951-3.84854.66215-5.04551,1.42972a10.58138,10.58138,0,0,0-3.09794,3.03758c-.922,1.38367-1.79942,2.70069-1.32783,3.842.67808,1.64058,3.6053,1.6161,3.98324,1.6081a6.36611,6.36611,0,0,0,4.33717-1.96559,6.77178,6.77178,0,0,0,1.682-3.39507C274.774,265.57045,275.39709,262.69574,274.08175,261.75705Z" fill="#c4ce6e"/><path d="M263.45984,252.64383c-.74987-1.09041-.48719-1.86332-.79669-3.75256-.492-3.00341-1.53865-3.388-1.15063-4.914.30543-1.20093,1.34032-2.48281,2.47845-2.50171,1.59412-.02666,2.61964,2.43724,2.83238,2.94839.77365,1.85846.4884,3.47868,0,6.25427-.31887,1.81193-.5621,3.10907-1.32758,3.30588C264.75574,254.17437,263.87476,253.24708,263.45984,252.64383Z" fill="#8b9d36"/><path d="M297.36124,252.37577c.23652-.66917,1.49015-.77048,3.00959-.89336,1.89834-.15342,3.32125-.26854,4.69134.6253.21082.13743,2.429,1.62628,2.03568,3.39532-.30734,1.38221-2.02488,2.10737-3.27491,2.14421-1.3564.04-2.27868-.72685-3.98324-2.14421C298.49674,254.38644,297.07,253.19982,297.36124,252.37577Z" fill="#8b9d36"/><path d="M299.57413,247.28317c-.34072-.07756-.36185-.55212-.7967-1.87641-.97173-2.95856-1.73241-3.22735-1.59315-4.4673.15415-1.37179,1.28629-2.83253,2.30125-2.76976,1.10644.06835,1.7682,1.928,2.03592,2.68057a5.79619,5.79619,0,0,1,.35417,2.76977C301.62734,245.54079,300.313,247.45161,299.57413,247.28317Z" fill="#5e7c24"/><path d="M277.62222,234.41738c-.51648.73243-3.449-.135-5.39943-1.8764-.498-.4445-2.702-2.41252-2.12429-4.28868a2.21028,2.21028,0,0,1,1.77036-1.6081c.827-.02036,1.36457.81969,2.744,2.859C277.44934,233.69707,277.84865,234.09625,277.62222,234.41738Z" fill="#8b9d36"/><path d="M293.73217,254.16274c-1.48535.40427-3.42882-2.73268-3.89465-3.4845a11.52665,11.52665,0,0,1-1.77035-6.4329c.06363-1.42075.1796-4.01116,1.68175-4.64592,1.43924-.6081,3.38609.90209,4.33718,2.05478,1.87672,2.27413,1.57826,5.21622,1.32782,7.68375C295.219,251.2604,294.95819,253.829,293.73217,254.16274Z" fill="#c4ce6e"/><path d="M293.94749,288.3021H279.35227l-4.69543-24.91075a.99011.99011,0,0,1,.96617-1.17828h22.05374a.99011.99011,0,0,1,.96617,1.17828Z" fill="#7ca1b1"/><path d="M298.3037,265.19128l.33928-1.79992a.99011.99011,0,0,0-.96617-1.17828H275.623a.99011.99011,0,0,0-.96617,1.17828l.33928,1.79992Z" fill="#e5caf3"/><polygon points="280.519 281.247 277.436 278.135 280.519 275.023 283.602 278.135 280.519 281.247" fill="#e5caf3"/><polygon points="286.685 281.247 283.602 278.135 286.685 275.023 289.768 278.135 286.685 281.247" fill="#e5caf3"/><polygon points="292.781 281.247 289.697 278.135 292.781 275.023 295.864 278.135 292.781 281.247" fill="#e5caf3"/><path d="M293.9582,45.3367h49.77156a0,0,0,0,1,0,0v7.82593a0,0,0,0,1,0,0H293.9582a.81344.81344,0,0,1-.81344-.81344V46.15014A.81344.81344,0,0,1,293.9582,45.3367Z" transform="translate(410.2319 -259.62177) rotate(97.75988)" fill="#7ca1b1"/><line x1="325.20875" y1="28.53806" x2="317.45449" y2="27.48139" fill="none" stroke="#fff" stroke-miterlimit="10" stroke-width="0.94516"/><line x1="324.69829" y1="32.28408" x2="316.94402" y2="31.22741" fill="none" stroke="#fff" stroke-miterlimit="10" stroke-width="0.94516"/><line x1="320.10406" y1="65.99828" x2="312.3498" y2="64.94161" fill="none" stroke="#fff" stroke-miterlimit="10" stroke-width="0.94516"/><line x1="319.5936" y1="69.7443" x2="311.83933" y2="68.68763" fill="none" stroke="#fff" stroke-miterlimit="10" stroke-width="0.94516"/><path d="M271.40607,45.63342h49.77156a.81344.81344,0,0,1,.81344.81344v6.19906a.81344.81344,0,0,1-.81344.81344H271.40607a0,0,0,0,1,0,0V45.63342A0,0,0,0,1,271.40607,45.63342Z" transform="translate(247.15196 346.24492) rotate(-89.99996)" fill="#f65b2b"/><line x1="292.78559" y1="70.98263" x2="300.61152" y2="70.98263" fill="none" stroke="#fff" stroke-miterlimit="10" stroke-width="0.94516"/><line x1="292.78559" y1="67.20198" x2="300.61152" y2="67.20199" fill="none" stroke="#fff" stroke-miterlimit="10" stroke-width="0.94516"/><line x1="292.78562" y1="33.1762" x2="300.61155" y2="33.17621" fill="none" stroke="#fff" stroke-miterlimit="10" stroke-width="0.94516"/><line x1="292.78562" y1="29.39556" x2="300.61155" y2="29.39557" fill="none" stroke="#fff" stroke-miterlimit="10" stroke-width="0.94516"/><path d="M282.53121,45.40659h47.50317a0,0,0,0,1,0,0v10.548a0,0,0,0,1,0,0H282.53121a.81344.81344,0,0,1-.81344-.81344V46.22A.81344.81344,0,0,1,282.53121,45.40659Z" transform="translate(356.55666 -255.1955) rotate(90)" fill="#ffba55"/><line x1="311.15008" y1="69.36641" x2="300.60208" y2="69.36641" fill="none" stroke="#fff" stroke-miterlimit="10" stroke-width="0.94516"/><rect x="294.59086" y="37.12698" width="22.57043" height="6.80516" transform="translate(346.40564 -265.34652) rotate(90)" fill="#fff"/><path d="M253.04657,45.63342h49.77156a.81344.81344,0,0,1,.81344.81344v6.19906a.81344.81344,0,0,1-.81344.81344H253.04657a0,0,0,0,1,0,0V45.63342a0,0,0,0,1,0,0Z" transform="translate(228.79289 327.88549) rotate(-90.00004)" fill="#ffba55"/><line x1="282.25205" y1="70.98263" x2="274.42612" y2="70.98263" fill="none" stroke="#fff" stroke-miterlimit="10" stroke-width="0.94516"/><line x1="282.25204" y1="67.20198" x2="274.42611" y2="67.20199" fill="none" stroke="#fff" stroke-miterlimit="10" stroke-width="0.94516"/><line x1="282.25202" y1="33.1762" x2="274.42609" y2="33.17621" fill="none" stroke="#fff" stroke-miterlimit="10" stroke-width="0.94516"/><line x1="282.25201" y1="29.39556" x2="274.42608" y2="29.39557" fill="none" stroke="#fff" stroke-miterlimit="10" stroke-width="0.94516"/><path d="M245.81669,45.40659h47.50317a0,0,0,0,1,0,0v10.548a0,0,0,0,1,0,0H245.81669a.81344.81344,0,0,1-.81344-.81344V46.22A.81344.81344,0,0,1,245.81669,45.40659Z" transform="translate(319.84214 -218.48097) rotate(90)" fill="#f65b2b"/><line x1="263.88756" y1="69.36641" x2="274.43555" y2="69.36641" fill="none" stroke="#fff" stroke-miterlimit="10" stroke-width="0.94516"/><rect x="257.87634" y="37.12698" width="22.57043" height="6.80516" transform="translate(309.69112 -228.632) rotate(90)" fill="#fff"/><path d="M264.17395,45.40659h47.50317a0,0,0,0,1,0,0v10.548a0,0,0,0,1,0,0H264.17395a.81344.81344,0,0,1-.81344-.81344V46.22a.81344.81344,0,0,1,.81344-.81344Z" transform="translate(338.1994 -236.83823) rotate(90)" fill="#7ca1b1"/><line x1="282.24482" y1="69.36641" x2="292.79281" y2="69.36641" fill="none" stroke="#fff" stroke-miterlimit="10" stroke-width="0.94516"/><rect x="276.2336" y="37.12698" width="22.57043" height="6.80516" transform="translate(328.04838 -246.98926) rotate(90)" fill="#fff"/><path d="M181.97069,187.59437h49.77156a0,0,0,0,1,0,0v7.82593a0,0,0,0,1,0,0H181.97069a.81344.81344,0,0,1-.81344-.81344V188.4078a.81344.81344,0,0,1,.81344-.81344Z" transform="translate(424.07858 12.80578) rotate(97.75988)" fill="#7ca1b1"/><line x1="213.22124" y1="170.79573" x2="205.46697" y2="169.73906" fill="none" stroke="#fff" stroke-miterlimit="10" stroke-width="0.94516"/><line x1="212.71077" y1="174.54175" x2="204.9565" y2="173.48508" fill="none" stroke="#fff" stroke-miterlimit="10" stroke-width="0.94516"/><line x1="208.11655" y1="208.25594" x2="200.36228" y2="207.19927" fill="none" stroke="#fff" stroke-miterlimit="10" stroke-width="0.94516"/><line x1="207.60608" y1="212.00196" x2="199.85181" y2="210.94529" fill="none" stroke="#fff" stroke-miterlimit="10" stroke-width="0.94516"/><path d="M159.41856,187.89109h49.77156a.81344.81344,0,0,1,.81344.81344v6.19906a.81344.81344,0,0,1-.81344.81344H159.41856a0,0,0,0,1,0,0v-7.82593a0,0,0,0,1,0,0Z" transform="translate(-7.09314 376.51496) rotate(-89.99996)" fill="#f65b2b"/><line x1="180.79807" y1="213.24029" x2="188.624" y2="213.2403" fill="none" stroke="#fff" stroke-miterlimit="10" stroke-width="0.94516"/><line x1="180.79808" y1="209.45965" x2="188.62401" y2="209.45965" fill="none" stroke="#fff" stroke-miterlimit="10" stroke-width="0.94516"/><line x1="180.7981" y1="175.43387" x2="188.62403" y2="175.43387" fill="none" stroke="#fff" stroke-miterlimit="10" stroke-width="0.94516"/><line x1="180.7981" y1="171.65323" x2="188.62403" y2="171.65323" fill="none" stroke="#fff" stroke-miterlimit="10" stroke-width="0.94516"/><path d="M170.54369,187.66425h47.50317a0,0,0,0,1,0,0v10.548a0,0,0,0,1,0,0H170.54369a.81344.81344,0,0,1-.81344-.81344v-8.92112A.81344.81344,0,0,1,170.54369,187.66425Z" transform="translate(386.82681 -0.95032) rotate(90)" fill="#ffba55"/><line x1="199.16256" y1="211.62407" x2="188.61457" y2="211.62407" fill="none" stroke="#fff" stroke-miterlimit="10" stroke-width="0.94516"/><rect x="182.60335" y="179.38465" width="22.57043" height="6.80516" transform="translate(376.67579 -11.10134) rotate(90)" fill="#fff"/><path d="M141.05905,187.89109h49.77156a.81344.81344,0,0,1,.81344.81344v6.19906a.81344.81344,0,0,1-.81344.81344H141.05905a0,0,0,0,1,0,0v-7.82593a0,0,0,0,1,0,0Z" transform="translate(-25.45238 358.15574) rotate(-90.00004)" fill="#ffba55"/><line x1="170.26453" y1="213.24029" x2="162.4386" y2="213.2403" fill="none" stroke="#fff" stroke-miterlimit="10" stroke-width="0.94516"/><line x1="170.26453" y1="209.45965" x2="162.4386" y2="209.45965" fill="none" stroke="#fff" stroke-miterlimit="10" stroke-width="0.94516"/><line x1="170.2645" y1="175.43387" x2="162.43857" y2="175.43387" fill="none" stroke="#fff" stroke-miterlimit="10" stroke-width="0.94516"/><line x1="170.2645" y1="171.65323" x2="162.43857" y2="171.65323" fill="none" stroke="#fff" stroke-miterlimit="10" stroke-width="0.94516"/><path d="M133.82917,187.66425h47.50317a0,0,0,0,1,0,0v10.548a0,0,0,0,1,0,0H133.82917a.81344.81344,0,0,1-.81344-.81344v-8.92112a.81344.81344,0,0,1,.81344-.81344Z" transform="translate(350.11229 35.76421) rotate(90)" fill="#f65b2b"/><line x1="151.90004" y1="211.62407" x2="162.44803" y2="211.62407" fill="none" stroke="#fff" stroke-miterlimit="10" stroke-width="0.94516"/><rect x="145.88882" y="179.38465" width="22.57043" height="6.80516" transform="translate(339.96126 25.61318) rotate(90)" fill="#fff"/><path d="M152.18643,187.66425H199.6896a0,0,0,0,1,0,0v10.548a0,0,0,0,1,0,0H152.18643a.81344.81344,0,0,1-.81344-.81344v-8.92112a.81344.81344,0,0,1,.81344-.81344Z" transform="translate(368.46955 17.40695) rotate(90)" fill="#7ca1b1"/><line x1="170.2573" y1="211.62407" x2="180.8053" y2="211.62407" fill="none" stroke="#fff" stroke-miterlimit="10" stroke-width="0.94516"/><rect x="164.24608" y="179.38465" width="22.57043" height="6.80516" transform="translate(358.31852 7.25592) rotate(90)" fill="#fff"/><rect x="29.41194" y="66.7613" width="54.81358" height="53.46016" rx="1.76385" fill="#7ca1b1"/><rect x="31.37783" y="68.67865" width="50.8818" height="49.62546" rx="1.76385" fill="#ffba55"/><path d="M55.5778,113.00328c-.78752.01836-2.22792-.2778-8.57148-10.82754-4.97534-8.2744-5.65027-10.688-5.86443-13.083-.18174-2.02661-.65229-7.2868,2.48125-9.24824a5.72144,5.72144,0,0,1,6.09022.22549c.74224.55193,1.25623,1.30946,2.25546,4.51122,1.67232,5.35839,1.65029,7.78059,2.48125,7.895.8432.11626,1.31007-2.31573,4.06056-6.316,1.55177-2.25729,2.58772-3.72738,4.51153-4.7367.21355-.112,3.85618-1.97491,5.86443-.67676,2.21569,1.43184,2.357,6.65562-.67676,12.63172a91.97888,91.97888,0,0,1-4.9625,10.15079C59.68486,109.80948,57.85651,112.95035,55.5778,113.00328Z" fill="#f65b2b"/><path d="M327.91939,130.20533a7.82159,7.82159,0,0,1-1.77914.1084,9.26119,9.26119,0,0,1-1.7616-.25025,5.314,5.314,0,0,1,1.78226-.1947A6.05183,6.05183,0,0,1,327.91939,130.20533Z" fill="#dd765e"/><path d="M320.60479,132.28138a23.04949,23.04949,0,0,1-4.371-.09485c-.72268-.10352-1.44809-.19885-2.16086-.371a10.05275,10.05275,0,0,1-2.08035-.69763c.71665.14685,1.4281.26062,2.14322.36047.71439.1001,1.42993.19775,2.14945.26575C317.71871,131.93641,319.16057,132.04871,320.60479,132.28138Z" fill="#dd765e"/><path d="M320.03225,134.362a20.595,20.595,0,0,1-4.79142.06079,15.37144,15.37144,0,0,1-2.36978-.44532,5.65983,5.65983,0,0,1-2.16427-1.04736,8.19533,8.19533,0,0,0,2.24542.714,21.09756,21.09756,0,0,0,2.336.33569C316.85637,134.17054,318.43871,134.22547,320.03225,134.362Z" fill="#dd765e"/><path d="M319.03548,136.169a16.03072,16.03072,0,0,1-4.00473.0979,12.10074,12.10074,0,0,1-3.8829-.99035c1.31848.23217,2.60958.44006,3.92688.54712C316.386,135.97547,317.70311,136.03394,319.03548,136.169Z" fill="#dd765e"/><path d="M337.469,134.83125s-1.42933-2.97411-8.16019-5.7421-12.32288-4.22889-8.14867-1.246l3.21852,2.22036s-5.84673.23329-9.342.06721a4.33312,4.33312,0,0,0-4.32986,2.79933c-.57662,1.64162.01184,2.90662,3.99068,3.87666A41.57519,41.57519,0,0,0,326.094,138.2263a2.46868,2.46868,0,0,1,1.529.45l1.22523.85961Z" fill="#f9977a"/><rect x="292.94535" y="125.36569" width="41.04" height="25.06197" rx="2" transform="translate(271.85102 477.8147) rotate(-106.76551)" fill="#ffba55"/><rect x="302.91998" y="125.1834" width="15.46183" height="7.65771" transform="translate(645.31134 162.93167) rotate(163.23449)" fill="#e5caf3"/><path d="M395.91447,126.246a34.1238,34.1238,0,0,1,12.76242-6.426c-1.60808-.65534-2.92912-1.11591-4.11488-1.74336-7.87712-4.168-13.88282-17.89414-9.06009-26.34583,4.20322-7.36609,13.05-11.17693,15.70337-11.34525a38.14716,38.14716,0,0,1,12.15106,2.26433,16.51183,16.51183,0,0,1,7.67063,8.48477c2.489,7.07413,1.48,9.06894,1.78557,11.20594C433.38991,106.37788,428.29787,152.64238,395.91447,126.246Z" fill="#160b07"/><path d="M452.81272,198.62394s.71926,3.2204,6.64917,7.43968,11.04631,6.90768,7.65535,3.05764l-2.6326-2.89107s5.74786,1.09579,9.1149,2.04849a4.33311,4.33311,0,0,0,4.851-1.74693c.93314-1.46856.64619-2.83391-3.00994-4.67914a41.57526,41.57526,0,0,0-10.77973-3.96168,2.46866,2.46866,0,0,1-1.38753-.78428l-.99894-1.11457Z" fill="#f9977a"/><path d="M460.62191,205.2909a7.82147,7.82147,0,0,1,1.7575.29688,9.24776,9.24776,0,0,1,1.65931.64233,5.31736,5.31736,0,0,1-1.78013-.21362A6.05434,6.05434,0,0,1,460.62191,205.2909Z" fill="#dd765e"/><path d="M468.21654,204.92371a23.04763,23.04763,0,0,1,4.23621,1.08155c.68054.2644,1.36551.52148,2.02087.85034a10.043,10.043,0,0,1,1.8685,1.15039c-.66482-.30542-1.332-.57715-2.006-.83618-.67322-.25928-1.34809-.51612-2.03354-.74536C470.9497,205.91273,469.57067,205.47718,468.21654,204.92371Z" fill="#dd765e"/><path d="M469.245,203.02674a20.59344,20.59344,0,0,1,4.68088,1.02515,15.35464,15.35464,0,0,1,2.20755.97,5.65559,5.65559,0,0,1,1.87113,1.51A8.19378,8.19378,0,0,0,475.979,205.328a21.14376,21.14376,0,0,0-2.1994-.85547C472.29522,203.93177,470.76638,203.52015,469.245,203.02674Z" fill="#dd765e"/><path d="M470.62484,201.49207a16.04855,16.04855,0,0,1,3.923.81079,12.10067,12.10067,0,0,1,3.55808,1.84351c-1.23172-.52466-2.44233-1.01929-3.70124-1.42163C473.16179,202.28016,471.89211,201.92518,470.62484,201.49207Z" fill="#dd765e"/><path d="M436.70028,175.48111l17.11257,24.86709,8.45355-4.224-14.823-28.63908a14.94221,14.94221,0,0,0-4.2361-5.6476,11.6887,11.6887,0,0,0-4.1766-2.22514C435.95447,158.76453,436.70028,175.48111,436.70028,175.48111Z" fill="#f9977a"/><path d="M413.62219,113.28746,411.807,120.7767a4.854,4.854,0,0,0,2.25306,5.32521l8.74213,5.15162c4.008,2.36188-1.72934,23.68307-1.72934,23.68307s-6.74243,13.48484.4816,23.5985c-.29016-.06742-21.04706,7.0101-21.04706,7.0101l-19.405-.49471s-9.474-25.45841-4.65793-39.58539l3.87957-20.3003s17.953-.87967,17.953-10.19589Z" fill="#f9977a"/><path d="M376.79,143.63619l-.57961,2.565s-5.15626-17.83558-2.34983-18.88268l5.75971-1.93243a5.76219,5.76219,0,0,1,1.35379-.27914c2.25772-.214,9.52527-1.12048,13.88722-4.19494.07871-.05617.443,16.50542,5.039,17.6947,4.51034,1.1673,13.246-13.04316,14.1582-12.50426l7.3355,3.345c.00217-.03963,5.78773,1.24437,14.73029,17.78364,5.40384,9.9944,10.42725,18.47028,10.42725,18.47028s-8.24476,12.50491-10.09379,9.50274c-4.07594-6.61815-11.43984-18.05811-13.70911-23.07065a13.43232,13.43232,0,0,1-.64614,3.22513s-2.56419,7.79263-2.57889,14.492c-.00871,4.00181-41.39711,10.176-43.164,2.04565s-2.32305-19.36823.08491-26.43165Z" fill="#f73c4f"/><path d="M376.99272,125.98392s-6.91279-.34611-16.61635,20.20262l-4.06443,8.607s-12.31284-15.8991-19.72445-20.68079l-7.7392,5.42309,18.87955,26.14346a14.94226,14.94226,0,0,0,5.02173,4.96208c4.67873,2.73992,9.64733,2.21035,12.637-2.644,4.6765-7.59337,10.38636-19.23556,11.05793-22.53234Z" fill="#f9977a"/><path d="M356.31194,154.79359c.26233,1.92651.4014,3.85388.629,5.77136.08636.96118.20932,1.91736.34778,2.869.06826.47583.14947.94983.26287,1.41467a2.72876,2.72876,0,0,0,.55347,1.30139,2.56,2.56,0,0,1-.76306-1.23926,14.36408,14.36408,0,0,1-.3906-1.41443c-.211-.95361-.3316-1.92016-.4534-2.88427A40.07929,40.07929,0,0,1,356.31194,154.79359Z" fill="#dd765e"/><path d="M376.99272,125.98392s-6.91279-.34611-16.61635,20.20262l-4.06443,8.607s.05,17.46263,1.7934,17.49755a8.16741,8.16741,0,0,0,7.28118-4.29368c4.6765-7.59337,10.38636-19.23556,11.05793-22.53234Z" fill="#f73c4f"/><path d="M337.469,134.83125s-1.42933-2.97411-8.16019-5.7421-12.32288-4.22889-8.14867-1.246l3.21852,2.22036Z" fill="#f9977a"/><path d="M397.40839,96.44357c3.954-8.55836,11.90058-13.30575,17.74921-10.60368,4.51412,2.08555,6.45588,8,5.29044,14.5252a1.80076,1.80076,0,0,1,1.52351.13423c1.21735.81124.89419,3.4346-.72175,5.85939-1.36432,2.04728-3.21169,3.29263-4.48725,3.14435-4.25735,6.43655-10.872,9.6631-15.92359,7.32928C394.99033,114.13021,393.4544,105.00187,397.40839,96.44357Z" fill="#f9977a"/><path d="M408.4549,345.00872s.84427,8.44273-20.41788,16.94437a1.11249,1.11249,0,0,0-.72745.99362c-.00423,1.113,1.73716,2.6436,14.08642-.4219a78.581,78.581,0,0,1,18.20483-2.30573h0a3.219,3.219,0,0,0,3.23587-3.76976l-1.64613-11.4406Z" fill="#f9977a"/><path d="M423.3667,358.40446a.90621.90621,0,0,0-1.11429-.6162,162.71433,162.71433,0,0,1-19.34688,4.30141,11.51906,11.51906,0,0,0-3.22409-4.34062,2.43166,2.43166,0,0,0-2.61451-.28l-4.83417,2.42376a.39754.39754,0,0,0,.02729.72188,2.91736,2.91736,0,0,1,1.50163,2.33048,20.31689,20.31689,0,0,1-5.75336-.432.90558.90558,0,0,0-1.1478.543.8884.8884,0,0,0,.54766,1.13921,18.28949,18.28949,0,0,0,5.47269.55959c4.26745,0,11.38316-.65071,22.52556-3.33858l-.16469,2.91253h7.63309S423.47077,358.76873,423.3667,358.40446Z" fill="#fb2b3a"/><path d="M372.7807,345.00872s.84427,8.44273-20.41788,16.94437a1.11247,1.11247,0,0,0-.72744.99362c-.00424,1.113,1.73715,2.6436,14.08641-.4219a78.581,78.581,0,0,1,18.20484-2.30573h0a3.219,3.219,0,0,0,3.23588-3.76976l-1.64613-11.4406Z" fill="#f9977a"/><path d="M387.69251,358.40446a.90621.90621,0,0,0-1.11429-.6162,162.714,162.714,0,0,1-19.34689,4.30141,11.51885,11.51885,0,0,0-3.22409-4.34062,2.43166,2.43166,0,0,0-2.61451-.28l-4.83417,2.42376a.39754.39754,0,0,0,.02729.72188,2.91736,2.91736,0,0,1,1.50163,2.33048,20.31689,20.31689,0,0,1-5.75336-.432.90558.90558,0,0,0-1.1478.543.88841.88841,0,0,0,.54766,1.13921,18.28949,18.28949,0,0,0,5.47269.55959c4.26745,0,11.38316-.65071,22.52556-3.33858v3.11626h7.63309S387.79657,358.76873,387.69251,358.40446Z" fill="#fb2b3a"/><path d="M398.27706,183.116s7.991,30.22466-.03568,61.46364L384.27308,345.2839,372.44472,346.335l-1.066-29.95484-4.44382-71.23972A106.5835,106.5835,0,0,1,382.25055,183.116v0Z" fill="#f9977a"/><path d="M421.55447,178.53508s20.3878,34.80558,12.36111,66.04456l-12.25874,81.71413c-.4201,2.80025-1.55876,19.71373-1.55876,19.71373l-11.97494.446-1.07023-30.07334-6.52838-104.65762L398.27706,183.116l23.27741-4.58092" fill="#f9977a"/><path d="M382.25056,183.116V183.116H398.277l23.27742-4.58093s17.65447,30.13936,13.63858,59.49773c-1.30784,9.561-2.63858,19.11894-3.67726,28.71295l-2.73729,66.47269.05308,17.60566a3.1215,3.1215,0,0,1-3.09372,3.13078l-56.02394.49812a3.12149,3.12149,0,0,1-3.148-3.03372l-.98425-35.03907,1.35324-71.23974A106.58344,106.58344,0,0,1,382.25056,183.116Z" fill="#065ea5"/><path d="M414.04994,101.96493a.44571.44571,0,0,0,.3965-.64886c-.07838-.15372-1.96421-3.76164-5.62852-3.97459a.44581.44581,0,1,0-.05183.89012c3.16025.18377,4.8695,3.45724,4.88648,3.49034A.44592.44592,0,0,0,414.04994,101.96493Z" fill="#160b07"/><path d="M403.41366,96.0651a.44595.44595,0,0,0,.25-.81564,8.62224,8.62224,0,0,0-5.22615-1.32211.44587.44587,0,0,0,.09537.88663,7.77462,7.77462,0,0,1,4.63173,1.17492A.44613.44613,0,0,0,403.41366,96.0651Z" fill="#160b07"/><path d="M412.685,103.64609a4.95567,4.95567,0,0,0-.93371-1.46429,4.74985,4.74985,0,0,0-1.40463-1.07584,3.4211,3.4211,0,0,0-1.75274-.34142,3.45846,3.45846,0,0,0-1.648.57135,5.37578,5.37578,0,0,1,1.65383-.2234,3.85,3.85,0,0,1,1.55366.395,6.20475,6.20475,0,0,1,1.35428.921A10.8947,10.8947,0,0,1,412.685,103.64609Z" fill="#160b07"/><circle cx="408.96161" cy="101.92735" r="0.99999" fill="#160b07"/><path d="M402.97974,100.34627A4.95446,4.95446,0,0,0,402.046,98.882a4.75344,4.75344,0,0,0-1.40463-1.07606,3.39314,3.39314,0,0,0-3.40074.23015,5.38284,5.38284,0,0,1,1.65383-.22362,3.85389,3.85389,0,0,1,1.55367.3952,6.20469,6.20469,0,0,1,1.35427.921A10.87494,10.87494,0,0,1,402.97974,100.34627Z" fill="#160b07"/><circle cx="399.25638" cy="98.62749" r="0.99999" fill="#160b07"/><circle cx="419.03339" cy="108.7365" r="1.98488" fill="#ffcb33"/><circle cx="406.28854" cy="95.61933" r="0.9612" fill="#dd2f22"/><path d="M398.27706,114.96891s4.03145,4.711,10.68455,1.55022c0,0-3.707,7.40307-12.61378,3.12447A5.73908,5.73908,0,0,0,398.27706,114.96891Z" fill="#dd765e"/><path d="M406.66495,111.11085s-6.22188,2.11412-8.40856-2.37435" fill="#dd2f22"/><path d="M395.1422,151.97816a13.558,13.558,0,0,1-4.526,1.96008,10.39955,10.39955,0,0,1-4.96555-.03076,9.052,9.052,0,0,1-4.25244-2.55237l-.44366-.43909-.3721-.49975-.73636-1.00074c-.42087-.7102-.78223-1.45568-1.15421-2.18457.46216.68323.85834,1.401,1.33445,2.06092l.77288.94445.38633.46949.453.40442a9.00732,9.00732,0,0,0,4.12732,2.36694,10.47873,10.47873,0,0,0,4.78091.12671A16.44668,16.44668,0,0,0,395.1422,151.97816Z" fill="#153037"/><line x1="409.99604" y1="86.17461" x2="408.96161" y2="87.7751" fill="none" stroke="#dd2f22" stroke-linecap="round" stroke-linejoin="round" stroke-width="1.33778"/><path d="M409.996,86.17461c1.27453.6432,1.7772,1.85578,2.78258,4.28089,1.942,4.68453,2.35231,10.5923,4.12037,12.04a1.26694,1.26694,0,0,0,.69564.32106c.80874.07038,1.36293-.86763,2.56855-2.087.9111-.92146,1.24056-1.0391,1.76588-1.55182a8.94309,8.94309,0,0,0,2.24747-7.75909,9.47523,9.47523,0,0,0-4.01335-5.67224c-4.09247-3.02569-8.89552-2.36218-10.11363-2.19393-7.31823,1.011-11.74928,6.97268-11.55846,7.224C398.71541,91.072,405.74808,84.03087,409.996,86.17461Z" fill="#160b07"/><path d="M418.01215,154.348c-5.287,4.923-15.13906,2.78258-17.0625-.85618" fill="#d3a124"/><path d="M421.55447,178.5351s-16.12845-45.34081-37.28139-54.03044c0,0-6.24414-.3695-10.65568,1.64195a4.43465,4.43465,0,0,0-2.51946,4.84208l10.00444,54.0618S404.35841,202.96979,421.55447,178.5351Z" fill="#065ea5"/><path d="M404.97936,97.46546a5.24761,5.24761,0,0,1-.7504,3.255,12.13576,12.13576,0,0,1-2.04544,2.69311c-.40964.40027-.96.66358-.99127,1.11194a1.9078,1.9078,0,0,0,.51767,1.365,4.11681,4.11681,0,0,0,2.94836,1.12671,3.83548,3.83548,0,0,1-3.20227-.89612,2.12541,2.12541,0,0,1-.66586-1.65063,1.29851,1.29851,0,0,1,.46991-.83289l.6225-.55237a13.3129,13.3129,0,0,0,2.05746-2.54663A5.97927,5.97927,0,0,0,404.97936,97.46546Z" fill="#dd765e"/><path d="M421.39394,103.646a4.35567,4.35567,0,0,0-.48447-1.02649.61757.61757,0,0,0-.77246-.29358,2.63653,2.63653,0,0,0-.90167.56226c-.30157.23328-.56879.51465-.89154.75781a4.47186,4.47186,0,0,1,.65274-1.004,2.48144,2.48144,0,0,1,1.01468-.7434.98667.98667,0,0,1,1.19128.54565A2.24919,2.24919,0,0,1,421.39394,103.646Z" fill="#dd765e"/><path d="M419.10634,106.21461a3.03008,3.03008,0,0,1,.01642-2.2555,6.03285,6.03285,0,0,1,.50314-1.02417,4.65277,4.65277,0,0,1,.72287-.87414c-.25805.71655-.5914,1.35815-.80554,2.04529a6.65458,6.65458,0,0,0-.30707,1.026A4.71027,4.71027,0,0,0,419.10634,106.21461Z" fill="#dd765e"/><circle cx="399.90023" cy="144.24246" r="0.78929" fill="#160b07"/><circle cx="398.31695" cy="144.188" r="0.78929" fill="#160b07"/><circle cx="399.05743" cy="145.03175" r="0.602" fill="#dd2f22"/><path d="M412.79027,125.54335a.23172.23172,0,0,0,.05923-.00784.22326.22326,0,0,0,.15611-.27391c-.03614-.132-.07076-.27131-.10255-.42242a.223.223,0,0,0-.43635.09232c.034.15982.07033.30789.10865.44767A.2231.2231,0,0,0,412.79027,125.54335Z" fill="#160b07"/><path d="M399.46514,144.63854a3.51244,3.51244,0,0,1-.93453-.159.22291.22291,0,1,1,.13456-.425,3.07,3.07,0,0,0,.81565.138.223.223,0,0,1-.00762.44593Zm.67412-.25258a.22312.22312,0,0,1,.1792-.25954,5.57629,5.57629,0,0,0,.82588-.2221.22311.22311,0,0,1,.14632.42154,6.05744,6.05744,0,0,1-.89208.23952.25464.25464,0,0,1-.04028.00348A.22294.22294,0,0,1,400.13926,144.386Zm-2.4611-.28828a6.39846,6.39846,0,0,1-.76774-.50908.223.223,0,0,1,.27174-.3536,6.03751,6.03751,0,0,0,.71418.47423.22281.22281,0,0,1-.10931.41719A.21919.21919,0,0,1,397.67816,144.09768Zm4.16076-.22645a.22335.22335,0,0,1,.10756-.29656c.24452-.1141.49906-.24517.77863-.39977a.223.223,0,1,1,.216.39019c-.2885.15982-.552.29482-.80563.4137a.22053.22053,0,0,1-.09428.0209A.22319.22319,0,0,1,401.83892,143.87123Zm1.57294-.8335a.22248.22248,0,0,1,.07425-.30614c.24321-.14806.48055-.29656.74183-.45987l.12977.1816-.12215-.18639.12368.18552.07446.21643c-.2321.145-.471.29438-.71548.44331a.22258.22258,0,0,1-.30636-.07446Zm-7.193-.04834c-.20989-.20293-.41958-.42633-.62316-.66367a.22282.22282,0,1,1,.33836-.29c.19466.22644.39476.43939.59486.63318a.223.223,0,0,1-.31006.32051Zm8.70125-.90187a.22282.22282,0,0,1,.05444-.3105c.21512-.15111.4542-.324.712-.52126a.22306.22306,0,0,1,.27087.35448c-.263.20075-.50733.378-.72681.53171a.22275.22275,0,0,1-.3105-.05443Zm-9.88814-.47206q-.261-.354-.513-.74423a.223.223,0,0,1,.37451-.24212q.2443.37821.49732.72158a.22277.22277,0,0,1-.04725.3118.21936.21936,0,0,1-.13195.04355A.22256.22256,0,0,1,395.032,141.61546Zm11.31476-.59529a.22309.22309,0,0,1,.02918-.314c.21512-.179.43809-.37146.66628-.57744a.22292.22292,0,1,1,.29873.331q-.34947.31549-.68021.58963a.223.223,0,0,1-.314-.02917Zm-12.29654-.91929q-.20706-.36058-.40673-.74336l-.02569-.04965a.223.223,0,1,1,.39889-.19944l.02156.04137q.196.37625.39868.729a.223.223,0,0,1-.38671.2221Zm13.63084-.26129a.22341.22341,0,0,1,.003-.31572q.3057-.29982.61641-.6297a.22291.22291,0,0,1,.3253.30484q-.31647.33771-.62948.64363a.22344.22344,0,0,1-.31528-.00305Zm-14.45236-1.34388q-.18649-.42-.34054-.837a.22294.22294,0,1,1,.418-.155q.14991.40368.33009.81172a.22285.22285,0,1,1-.4076.18029Zm15.68476.05705a.223.223,0,0,1-.024-.31441q.28153-.32727.56-.68022a.22294.22294,0,0,1,.35012.27609q-.28382.36059-.57178.695a.22289.22289,0,0,1-.31441.02352Zm1.1159-1.387a.22281.22281,0,0,1-.05116-.31093q.25247-.35208.49578-.72681a.2228.2228,0,1,1,.37408.24212q-.24888.38409-.50755.74423a.22281.22281,0,0,1-.31115.05139Zm-17.428-.36493c-.08623-.28872-.16353-.58354-.22972-.87487a.2229.2229,0,0,1,.43461-.09929q.096.42132.22231.847a.223.223,0,0,1-.15.2774.23043.23043,0,0,1-.06358.00914A.223.223,0,0,1,392.60139,136.80084ZM411.015,135.683a.2229.2229,0,0,1-.08056-.30483q.2185-.37494.42372-.76992a.22282.22282,0,1,1,.39585.20467q-.21.40564-.43417.78995a.22286.22286,0,0,1-.19292.11062A.21839.21839,0,0,1,411.015,135.683Zm-18.81474-.64624c-.04725-.29656-.08492-.59878-.11235-.898a.22332.22332,0,0,1,.20184-.24256.22742.22742,0,0,1,.24234.20163q.03952.43242.10844.86921a.22312.22312,0,0,1-.18508.25519.245.245,0,0,1-.03527.00261A.22307.22307,0,0,1,392.20031,135.03673Zm19.65325-.92408a.22309.22309,0,0,1-.11017-.29569q.18-.39454.34424-.80825a.223.223,0,0,1,.41457.16461q-.1682.42395-.35338.82915a.22313.22313,0,0,1-.29526.11018Zm-19.81982-.87662c-.00392-.142-.00588-.28393-.00588-.425q0-.23973.00741-.47816a.24132.24132,0,0,1,.22971-.216.22326.22326,0,0,1,.21621.22993c-.00479.15372-.0074.30875-.0074.46422q0,.20511.00588.41283a.22329.22329,0,0,1-.21665.22906h-.00653A.22312.22312,0,0,1,392.03374,133.236Zm20.49612-.76948a.223.223,0,0,1-.13979-.28263q.13881-.41087.25933-.83872a.22294.22294,0,1,1,.42937.12019q-.12345.43961-.26629.86137a.22266.22266,0,0,1-.2112.15154A.22739.22739,0,0,1,412.52986,132.46655Zm-20.2381-.79344a.2226.2226,0,0,1-.20293-.24126q.03887-.45136.10081-.8962a.22288.22288,0,0,1,.44158.061q-.05944.43374-.0982.87357a.22285.22285,0,0,1-.22188.2038Zm20.74173-.91276a.22291.22291,0,0,1-.16853-.26651q.09537-.42263.17136-.86137a.22294.22294,0,1,1,.43939.07577q-.0774.45006-.17571.884a.22281.22281,0,0,1-.21731.17375A.21194.21194,0,0,1,413.03349,130.76035Zm-20.52181-.85353a.223.223,0,0,1-.179-.25955q.08132-.44418.18007-.881a.22292.22292,0,1,1,.435.09754q-.096.42852-.17659.86355a.223.223,0,0,1-.219.1829A.25822.25822,0,0,1,392.51168,129.90682Zm20.84732-.89621a.22262.22262,0,0,1-.19836-.24474,7.08357,7.08357,0,0,0,.04181-.73944l-.00152-.12106a.223.223,0,0,1,.21817-.22775.23222.23222,0,0,1,.22775.21817l.00153.12934a7.49053,7.49053,0,0,1-.04442.7869.22267.22267,0,0,1-.22144.19988Zm-20.47477-.84613a.22318.22318,0,0,1-.15982-.27217q.113-.4357.2369-.86486a.22294.22294,0,0,1,.4285.12324q-.12149.42328-.23385.854a.223.223,0,0,1-.21556.16679A.2268.2268,0,0,1,392.88423,128.16448Zm20.21958-1.09871a6.99984,6.99984,0,0,0-.24952-.82566.223.223,0,0,1,.4211-.14719,7.33327,7.33327,0,0,1,.2639.877.223.223,0,0,1-.16984.26564.22783.22783,0,0,1-.04812.00522A.22305.22305,0,0,1,413.10381,127.06577ZM393.365,126.45a.22268.22268,0,0,1-.147-.27871q.13293-.43045.27087-.85222a.22309.22309,0,0,1,.42415.13848q-.13653.418-.26913.84526a.223.223,0,0,1-.21294.15721A.21767.21767,0,0,1,393.365,126.45Zm.54391-1.69618a.223.223,0,0,1-.14153-.28175l.28045-.84526a.223.223,0,0,1,.42328.14022l-.28045.84526a.22322.22322,0,0,1-.21164.15285A.21867.21867,0,0,1,393.9089,124.75383Zm.55806-1.69095a.22306.22306,0,0,1-.14479-.28q.13651-.42852.26041-.84657a.22295.22295,0,0,1,.42764.12629q-.12444.42263-.263.85527a.2232.2232,0,0,1-.21251.15547A.22879.22879,0,0,1,394.467,123.06288Z" fill="#160b07"/><path d="M394.98164,121.34906a.229.229,0,0,0,.05351.00893.224.224,0,0,0,.2185-.16962c.03571-.147.07137-.28981.107-.437a.21238.21238,0,0,0-.04012-.17833c-.14713.11606-.30325.22754-.45932.339-.01333.05792-.02672.11148-.04011.1694A.21754.21754,0,0,0,394.98164,121.34906Z" fill="#160b07"/><circle cx="403.95612" cy="106.88344" r="0.9612" fill="#ffcb33"/><path d="M423.51767,104.21477a2.11032,2.11032,0,0,1,3.469-1.62607,2.11271,2.11271,0,0,1,3.573-1.47017c-.00316-.04747-.01415-.09254-.01415-.14066a2.12163,2.12163,0,1,1,4.18165.48643,2.11174,2.11174,0,0,1,2.70692,2.76593c.05172-.00371.10114-.01546.15394-.01546a3.26744,3.26744,0,0,1-4.68115,4.36063,3.34276,3.34276,0,0,0-5.92672.84374,2.12147,2.12147,0,0,1-2.12153-2.12164,2.09737,2.09737,0,0,1,.27653-1.02794A2.11768,2.11768,0,0,1,423.51767,104.21477Z" fill="#f9dd95"/><circle cx="437.88137" cy="106.56202" r="0.54387" fill="#f4906e"/><circle cx="435.58038" cy="103.19736" r="0.54387" fill="#f4906e"/><circle cx="434.34962" cy="107.10589" r="0.54387" fill="#f4906e"/><circle cx="435.90145" cy="105.47427" r="0.54387" fill="#f4906e"/><circle cx="433.26187" cy="103.59381" r="0.54387" fill="#f4906e"/><circle cx="432.718" cy="100.75771" r="0.54387" fill="#f4906e"/><circle cx="428.90023" cy="102.65348" r="0.54387" fill="#f4906e"/><circle cx="430.82664" cy="103.74123" r="0.54387" fill="#f4906e"/><circle cx="432.17412" cy="105.77466" r="0.54387" fill="#f4906e"/><circle cx="431.08637" cy="107.64977" r="0.54387" fill="#f4906e"/><circle cx="429.44411" cy="105.47427" r="0.54387" fill="#f4906e"/><circle cx="426.92908" cy="107.64977" r="0.54387" fill="#f4906e"/><circle cx="425.48427" cy="104.13769" r="0.54387" fill="#f4906e"/><circle cx="426.92908" cy="105.47427" r="0.54387" fill="#f4906e"/><path d="M381.10231,185.05041c1.156,3.38721,2.48144,6.7124,3.80029,10.04981,1.45727,3.26806,2.99365,6.50927,4.573,9.73242.84887,1.58008,1.70434,3.15918,2.5957,4.71826.90283,1.55176,1.71289,3.16016,2.70093,4.665,1.94409,3.02637,3.85229,6.0791,6.0144,8.96924,2.09766,2.93066,4.42432,5.69824,6.74366,8.46289l3.7207,3.94531c1.22485,1.32666,2.60986,2.50977,3.92724,3.74317.65186.62451,1.35181,1.20117,2.053,1.77539.69849.57666,1.39087,1.1582,2.10108,1.71728.70044.56983,1.46533,1.06885,2.19287,1.60449.7456.51465,1.447,1.07959,2.23071,1.543l2.312,1.42041c.79346.438,1.58692.87305,2.38843,1.28565a27.04589,27.04589,0,0,0,5.02271,1.98681,40.21028,40.21028,0,0,1-4.44263-2.93213l-2.09229-1.61914-2.01172-1.71435c-.68579-.54444-1.311-1.17383-1.96508-1.75781-.63941-.604-1.30982-1.16456-1.92017-1.8003-1.21289-1.27783-2.53027-2.42822-3.69409-3.748A155.83561,155.83561,0,0,1,404.013,220.82434c-4.23608-5.61524-7.97119-11.6001-11.83423-17.52832-1.78784-3.0503-3.68213-6.04981-5.53613-9.084C384.84791,191.14514,383.05983,188.067,381.10231,185.05041Z" fill="#065082"/><path d="M402.4371,227.52378c.16766,6.39671.73128,12.72635,1.374,19.041q.99828,9.467,2.347,18.87244c.877,6.27369,1.883,12.52821,2.94479,18.77425q.80607,4.68387,1.67332,9.36229c.5978,3.12084,1.18286,6.23363,1.74169,9.38081a80.21141,80.21141,0,0,0,.21828-9.58526c-.08013-3.18986-.266-6.37015-.50134-9.54411-.48175-6.34728-1.21846-12.66081-2.10433-18.95148q-1.34954-9.43209-3.21033-18.78208C405.66126,239.86234,404.245,233.65964,402.4371,227.52378Z" fill="#065082"/><path d="M400.25635,329.83539c.64309-7.82311.88674-15.63664,1.01052-23.44734q.16053-11.71572-.128-23.42033-.276-11.70495-.98962-23.39944c-.49677-7.79589-1.11634-15.58873-2.139-23.372-.64831,7.82333-.89349,15.63686-1.01586,23.44756q-.1602,11.71539.13337,23.42012.28431,11.70494.99506,23.39943C398.62092,314.25906,399.239,322.05212,400.25635,329.83539Z" fill="#065082"/><path d="M386.83483,229.15171c-1.91479,6.39758-3.45,12.865-4.8045,19.36584-.68871,3.248-1.29892,6.5108-1.881,9.77818q-.44027,2.4502-.84,4.90672l-.76241,4.92045c-.977,6.56676-1.76575,13.166-2.27863,19.80174-.13663,1.657-.23919,3.31964-.32291,4.98359-.09776,1.66113-.14229,3.33074-.18344,4.99709-.01688.83328-.006,1.67136-.01024,2.50529-.004.83372.00109,1.67027.03789,2.50682a31.19152,31.19152,0,0,0,.45028,5.00057c.04148-.83241.16439-1.65372.28012-2.47415.12531-.82153.23342-1.63914.38006-2.457.26379-1.63434.53216-3.26847.82392-4.89758l1.6767-9.78232c.54412-3.26106,1.09228-6.52408,1.60189-9.79037l.77385-4.90085.73954-4.90629q.719-4.91053,1.38591-9.83087.6568-4.92229,1.23326-9.86027C385.87384,242.42937,386.55743,235.82778,386.83483,229.15171Z" fill="#065082"/><path d="M416.92713,203.52818a147.73313,147.73313,0,0,0-4.6892-19.30487,184.59635,184.59635,0,0,0-6.867-18.65688,130.25668,130.25668,0,0,0-9.18931-17.71256,76.72731,76.72731,0,0,0-5.87664-8.12533,38.07529,38.07529,0,0,0-7.27866-6.86049,60.72374,60.72374,0,0,1,5.68111,8.01429c1.68889,2.78617,3.247,5.64246,4.73439,8.53729,2.96244,5.79793,5.64649,11.74457,8.24683,17.74,2.59489,5.99825,5.098,12.05072,7.58926,18.12582C411.78013,191.3588,414.26474,197.44937,416.92713,203.52818Z" fill="#065082"/><path d="M381.90256,141.10073a68.5283,68.5283,0,0,0,2.58259,9.98q1.60788,4.854,3.6286,9.53,2.009,4.68126,4.42019,9.18941a67.74126,67.74126,0,0,0,5.47633,8.735,67.73227,67.73227,0,0,0-2.57758-9.9822q-1.60821-4.8537-3.6335-9.528-2.01664-4.678-4.42531-9.187A68.50265,68.50265,0,0,0,381.90256,141.10073Z" fill="#065082"/><path d="M403.9064,211.9836c-1.82911-4.024-3.46552-7.99208-5.11271-11.981l-4.91064-11.9623c-1.65557-3.98439-3.34119-7.96551-5.10531-11.93009-1.78131-3.95956-3.61347-7.9065-5.75144-11.78224a83.17949,83.17949,0,0,0,2.78879,12.869,117.62146,117.62146,0,0,0,4.36173,12.38015,96.67261,96.67261,0,0,0,5.79934,11.8223c.54565.95522,1.11319,1.9,1.73167,2.81906.61544.92016,1.19147,1.85382,1.871,2.73522.67444.88228,1.33266,1.76782,2.04652,2.61351Q402.737,210.81381,403.9064,211.9836Z" fill="#065082"/><path d="M393.92409,213.1731c-1.64817,9.477-2.79336,19.007-3.7795,28.55068q-1.43952,14.3191-2.18935,28.69765c-.49176,9.58418-.74989,19.1873-.62436,28.8013q.09749,7.2105.60073,14.421c.10517,1.201.18759,2.40034.32,3.60008.12749,1.19908.2246,2.39773.40793,3.59267a61.29182,61.29182,0,0,0,1.297,7.10893c-.27762-4.8-.207-9.56828-.05476-14.34741.11954-4.77543.36808-9.5489.58441-14.32215l1.47593-28.64845c.49068-9.55391.94847-19.11391,1.31971-28.68524C393.6284,232.36867,393.942,222.79015,393.92409,213.1731Z" fill="#065082"/><path d="M394.03029,209.50549a77.69166,77.69166,0,0,1-4.71094,9.23975,54.164,54.164,0,0,1-6.02246,8.11718c-1.0813,1.2876-2.346,2.38184-3.54712,3.55518l-1.95435,1.582a19.03136,19.03136,0,0,1-2.03247,1.49561,60.32287,60.32287,0,0,1-9.03113,5.01074,26.90111,26.90111,0,0,0,10.235-3.00293l1.21582-.61133c.40356-.2085.759-.49072,1.14184-.73389.75293-.5039,1.50611-1.01513,2.241-1.54931l2.05664-1.78809a23.968,23.968,0,0,0,1.90039-1.94775,33.8623,33.8623,0,0,0,5.86621-9.05225A29.7906,29.7906,0,0,0,394.03029,209.50549Z" fill="#065082"/><path d="M388.28663,211.45569a42.786,42.786,0,0,0-4.34033,4.12207c-1.33691,1.4331-2.6084,2.89746-3.83862,4.38574-1.24365,1.47412-2.44141,2.96728-3.6482,4.45508q-.46545.5354-.91772,1.09863c-.30444.3706-.62939.7041-.94116,1.07764-.29859.39746-.66138.66894-.99341,1.04443a3.37254,3.37254,0,0,1-.54443.48047l-.58741.49609a6.51817,6.51817,0,0,0,1.54224-.25342,11.00786,11.00786,0,0,0,1.46094-.585c.45141-.24511.928-.48486,1.35522-.7705q.6361-.42995,1.261-.88819a29.306,29.306,0,0,0,4.31763-4.23633,37.075,37.075,0,0,0,3.42382-4.90625A25.28558,25.28558,0,0,0,388.28663,211.45569Z" fill="#065082"/><path d="M384.273,204.9259a22.22684,22.22684,0,0,0-3.35767,3.13379,41.64824,41.64824,0,0,0-2.74536,3.46191c-.84741,1.19336-1.63379,2.42041-2.37964,3.68116-.74682,1.271-1.4226,2.563-2.12377,4.00341a11.415,11.415,0,0,0,3.95214-2.51318,21.328,21.328,0,0,0,2.9961-3.43457,24.41127,24.41127,0,0,0,2.26928-3.91406A16.56224,16.56224,0,0,0,384.273,204.9259Z" fill="#065082"/><path d="M411.96743,138.26578c0,3.349.71486,8.06381,4.06382,8.06381s8.06381-4.71486,8.06381-8.06381a6.06382,6.06382,0,1,0-12.12763,0Z" fill="#160b07"/><path d="M408.98945,147.99306c0,3.34895.78139,6.98162,4.13034,6.98162s7.99729-3.63267,7.99729-6.98162a6.06382,6.06382,0,1,0-12.12763,0Z" fill="#160b07"/><path d="M407.07864,155.73143c-.80735,3.25019,1.98733,8.44116,5.23751,9.24851s4.75458-3.31574,5.56193-6.56592-.20246-6.29838-3.45264-7.10573A6.06381,6.06381,0,0,0,407.07864,155.73143Z" fill="#160b07"/><path d="M407.76746,168.74945c0,3.349,7.76259,9.68427,7.76259,9.68427s4.365-6.33532,4.365-9.68427a6.06382,6.06382,0,1,0-12.12763,0Z" fill="#160b07"/><path d="M415.03125,128.89745c0,3.349.71486,8.06382,4.06381,8.06382s8.06382-4.71486,8.06382-8.06382a6.06382,6.06382,0,0,0-12.12763,0Z" fill="#160b07"/><path d="M408.45973,165.17492a1.50356,1.50356,0,0,0,.25439-.02148l9.12647-1.55859a1.49992,1.49992,0,1,0-.50489-2.957l-9.12646,1.5586a1.5,1.5,0,0,0,.25049,2.97851Z" fill="#ffba55"/><rect x="457.4846" y="197.54852" width="41.04" height="25.06197" rx="2" transform="translate(-26.82978 343.36132) rotate(-38.5144)" fill="#ffba55"/><path d="M452.81272,198.62394s.71926,3.2204,6.64917,7.43968,11.04631,6.90768,7.65535,3.05764l-2.6326-2.89107Z" fill="#f9977a"/><rect x="477.64728" y="200.55117" width="15.46183" height="7.65771" transform="translate(343.04519 -302.67471) rotate(51.4856)" fill="#e5caf3"/><path d="M432.06557,102.81824a5.19874,5.19874,0,0,0,.75143-.01562,2.237,2.237,0,0,0,.70853-.198.7666.7666,0,0,1-.28015.30664,1.05653,1.05653,0,0,1-.40094.13953A1.04069,1.04069,0,0,1,432.06557,102.81824Z" fill="#160b07"/><path d="M432.52938,103.55982a5.21039,5.21039,0,0,0,.75045-.04162,2.23668,2.23668,0,0,0,.70127-.22242.76664.76664,0,0,1-.26938.31617,1.05493,1.05493,0,0,1-.39587.15332A1.04115,1.04115,0,0,1,432.52938,103.55982Z" fill="#160b07"/><path d="M416.91417,96.68177a5.20087,5.20087,0,0,0,.48343.57556,2.241,2.241,0,0,0,.59851.42774.76654.76654,0,0,1-.41446-.026,1.055,1.055,0,0,1-.36017-.22473A1.04077,1.04077,0,0,1,416.91417,96.68177Z" fill="#160b07"/><path d="M416.04827,97.51527a5.18689,5.18689,0,0,0,.683.31384,2.23626,2.23626,0,0,0,.72391.131.76692.76692,0,0,1-.38584.15356,1.054,1.054,0,0,1-.42166-.04931A1.04066,1.04066,0,0,1,416.04827,97.51527Z" fill="#160b07"/><path d="M455.1676,366.40637h-422a1,1,0,1,1,0-2h422a1,1,0,0,1,0,2Z" fill="#935b50"/></g></g></svg>