<svg xmlns="http://www.w3.org/2000/svg" viewBox="0 0 477.50008 381.24978"><title>Asset 11</title><g id="Layer_2" data-name="Layer 2"><g id="Layer_1-2" data-name="Layer 1"><path d="M382.45345,362.28486c0,.10335,1.076-.14966,1.06338-.0337,0,0-10.58772,17.35862-11.74976,17.35862a2.928,2.928,0,0,1-.33525-.02584,2.36967,2.36967,0,0,1-2.01341-2.67162l8.25957-14.66116Z" fill="#935b50"/><path d="M436.45885,362.28486c0,.10335-1.076-.14966-1.06337-.0337,0,0,10.58771,17.35862,11.74975,17.35862a2.92816,2.92816,0,0,0,.33526-.02584,2.36968,2.36968,0,0,0,2.01341-2.67162l-8.25958-14.66116Z" fill="#935b50"/><path d="M452.99267,323.26759H365.57915V286.1929a2.58119,2.58119,0,0,1,2.5812-2.58119h82.25112a2.58119,2.58119,0,0,1,2.5812,2.58119Z" fill="#d6694b"/><path d="M377.67824,362.92227h-9.51171a2.5812,2.5812,0,0,1-2.5812-2.5812V323.26218h87.41223v37.07889a2.5812,2.5812,0,0,1-2.5812,2.5812h-6.55624" fill="#d6694b"/><rect x="369.38083" y="287.69597" width="79.81016" height="31.48737" rx="2.5812" fill="#e19974"/><rect x="369.38083" y="327.35185" width="79.81016" height="31.48737" rx="2.5812" fill="#e19974"/><ellipse cx="409.28591" cy="303.43965" rx="4.39486" ry="4.35092" fill="#935b50"/><ellipse cx="409.28591" cy="343.09554" rx="4.39486" ry="4.35092" fill="#935b50"/><polygon points="430.945 241.854 387.611 241.854 391.321 208.018 427.235 208.018 430.945 241.854" fill="#ffba55"/><polygon points="414.101 254.357 414.101 250.684 411.133 250.684 411.133 241.854 407.423 241.854 407.423 250.684 404.455 250.684 404.455 254.357 401.932 254.357 401.932 258.03 404.455 258.03 407.423 258.03 411.133 258.03 414.101 258.03 416.624 258.03 416.624 254.357 414.101 254.357" fill="#a2aee6"/><path d="M417.34165,273.46228l2.04032-13.12479a2,2,0,0,0-1.97626-2.30723h-16.282a2,2,0,0,0-1.97962,2.28475l1.87366,13.02635a7.62444,7.62444,0,0,0,4.84373,6.04074h-4.933a1,1,0,0,0-1,1v3.22961h18.69906V280.3821a1,1,0,0,0-1-1h-5.03183A7.62179,7.62179,0,0,0,417.34165,273.46228Z" fill="#8795de"/><path d="M395.47639,208.702a58.0754,58.0754,0,0,1-.99286,8.03149,57.39877,57.39877,0,0,1-1.97524,7.84787,57.39578,57.39578,0,0,1,.99286-8.03149A58.07394,58.07394,0,0,1,395.47639,208.702Z" fill="#e6952a"/><path d="M400.52218,208.702a38.91193,38.91193,0,0,1,.49969,6.604,38.46914,38.46914,0,0,1-.49969,6.604,38.46816,38.46816,0,0,1-.49971-6.604A38.9099,38.9099,0,0,1,400.52218,208.702Z" fill="#e6952a"/><path d="M405.41955,208.702a107.02541,107.02541,0,0,1,.49971,10.982,105.77329,105.77329,0,0,1-.49971,10.982,105.765,105.765,0,0,1-.4997-10.982A107.01973,107.01973,0,0,1,405.41955,208.702Z" fill="#e6952a"/><path d="M408.53606,225.62023a27.74849,27.74849,0,0,1,.4997,5.56519,27.43334,27.43334,0,0,1-.4997,5.56521,27.43407,27.43407,0,0,1-.49971-5.56521A27.74923,27.74923,0,0,1,408.53606,225.62023Z" fill="#e6952a"/><path d="M411.50417,208.702c.37883,2.38437.64835,4.77664.90128,7.1701.26431,2.39264.45028,4.79093.636,7.18924.162,2.4.32187,4.8002.40464,7.206l.12057,3.60885c.00371,1.2056.04175,2.40869.01523,3.61649-.19965-1.19147-.33476-2.38758-.50418-3.58121l-.39885-3.58878c-.26352-2.3927-.44988-4.79095-.63422-7.18939-.1606-2.40011-.32091-4.80026-.40286-7.206C411.54838,213.52227,411.47161,211.11608,411.50417,208.702Z" fill="#e6952a"/><path d="M418.034,208.702c.83568,3.70083,1.37061,7.43741,1.83187,11.18274a112.37677,112.37677,0,0,1,.83943,11.30066,112.3709,112.3709,0,0,1-1.83187-11.18274C418.44425,216.25353,418.08877,212.49566,418.034,208.702Z" fill="#e6952a"/><path d="M420.7053,234.52456a9.15177,9.15177,0,0,1,.93989,3.04584,9.04882,9.04882,0,0,1-.04947,3.18716,9.04949,9.04949,0,0,1-.93989-3.04584A9.15208,9.15208,0,0,1,420.7053,234.52456Z" fill="#e6952a"/><path d="M421.59572,209.74087a105.07209,105.07209,0,0,1,2.34746,10.63708,103.8549,103.8549,0,0,1,1.36269,10.80747,103.85406,103.85406,0,0,1-2.34746-10.63709A105.0819,105.0819,0,0,1,421.59572,209.74087Z" fill="#e6952a"/><path d="M396.51523,225.62023a27.98708,27.98708,0,0,1-.02188,5.61163,27.669,27.669,0,0,1-1.017,5.51877,27.66923,27.66923,0,0,1,.02188-5.61163A27.987,27.987,0,0,1,396.51523,225.62023Z" fill="#e6952a"/><circle cx="351.9018" cy="52.18965" r="28.03391" fill="#ffba55"/><circle cx="351.9018" cy="52.18965" r="28.03391" fill="none" stroke="#d77f4a" stroke-miterlimit="10" stroke-width="2"/><line x1="351.9018" y1="38.11246" x2="351.9018" y2="56.18965" fill="none" stroke="#d77f4a" stroke-linecap="round" stroke-linejoin="round" stroke-width="2"/><line x1="348.69889" y1="50.52324" x2="367.45568" y2="59.92989" fill="none" stroke="#d77f4a" stroke-linecap="round" stroke-linejoin="round" stroke-width="2"/><path d="M181.62041,36.3164c109.75435,0,198.72784,80.48921,198.72784,179.77769,0,67.80468-41.49371,126.84213-102.76312,157.46531" fill="none" stroke="#f4c5a2" stroke-miterlimit="10"/><ellipse cx="181.62041" cy="216.09409" rx="181.62041" ry="164.30158" fill="#f9dcbb"/><path d="M135.67527,197.62584H274.25174a20.803,20.803,0,0,1,20.803,20.803v90.08882a0,0,0,0,1,0,0H114.87226a0,0,0,0,1,0,0V218.42885A20.803,20.803,0,0,1,135.67527,197.62584Z" fill="#8795de"/><rect x="295.05474" y="243.03182" width="57.29803" height="57.29803" fill="#a2aee6"/><path d="M295.05473,243.03194c.20624,4.77466.30286,9.54956.38288,14.32446.08233,4.77466.07476,9.54956.11657,14.32447-.03918,4.7749-.03515,9.54956-.1148,14.32446l-.13953,7.16235c-.08307,2.38745-.13171,4.77466-.24512,7.16211-.11334-2.38745-.16205-4.77466-.24512-7.16211l-.13946-7.16235c-.07965-4.7749-.07568-9.54956-.11481-14.32446.04181-4.77491.03424-9.54981.11658-14.32447C294.75188,252.5815,294.84849,247.8066,295.05473,243.03194Z" fill="#4f66d0"/><path d="M267.61,218.082c-.943.52612-1.87146,1.06128-2.75458,1.66894a31.15487,31.15487,0,0,0-2.61267,1.84229,33.83264,33.83264,0,0,0-4.64557,4.30518,22.62936,22.62936,0,0,0-3.428,5.26025l-.60193,1.4624c-.18121.49536-.27716,1.01685-.4259,1.52637l-.22363.76831-.11682.78931c-.07056.5288-.154,1.06-.24616,1.59643a15.47438,15.47438,0,0,1,.90247-6.43408,18.72933,18.72933,0,0,1,3.38659-5.62573,25.1307,25.1307,0,0,1,4.95466-4.27222A24.63209,24.63209,0,0,1,267.61,218.082Z" fill="#4f66d0"/><path d="M275.03447,253.05538c-.61341-.88867-1.23425-1.76221-1.92285-2.58374a31.17467,31.17467,0,0,0-2.08185-2.426,33.84062,33.84062,0,0,0-4.72656-4.21606,22.63549,22.63549,0,0,0-5.56189-2.91333l-1.51307-.46045c-.51031-.1333-1.03845-.17944-1.55975-.27905l-.78613-.14966-.79694-.04151c-.53308-.02-1.06976-.05273-1.61242-.0935a15.47052,15.47052,0,0,1,6.49066.28784,18.72485,18.72485,0,0,1,5.92175,2.8374,25.14008,25.14008,0,0,1,4.723,4.52686A24.63643,24.63643,0,0,1,275.03447,253.05538Z" fill="#4f66d0"/><path d="M224.36522,240.26729a24.62924,24.62924,0,0,1,5.71374-3.07666,25.13846,25.13846,0,0,1,6.34912-1.57763,18.73251,18.73251,0,0,1,6.54853.48461,15.47257,15.47257,0,0,1,5.77368,2.979c-.491-.23438-.97284-.47315-1.44531-.72095l-.71186-.36035-.75647-.26123c-.50177-.17285-.98285-.39575-1.49194-.53394l-1.54157-.35327a22.63652,22.63652,0,0,0-6.2741-.2395,33.84491,33.84491,0,0,0-6.19757,1.30615,31.15328,31.15328,0,0,0-3.01282,1.06885C226.31267,239.3525,225.33952,239.80147,224.36522,240.26729Z" fill="#4f66d0"/><path d="M248.62834,266.52681a24.63087,24.63087,0,0,1-2.52051-5.97973,25.13356,25.13356,0,0,1-.96783-6.47022,18.72559,18.72559,0,0,1,1.1037-6.4729,15.47331,15.47331,0,0,1,3.51361-5.46509c-.28.46656-.56336.92359-.85486,1.37037l-.42645.67456-.33185.72827c-.21967.48315-.48706.94092-.673,1.43457l-.49792,1.501a22.63417,22.63417,0,0,0-.83386,6.22315,33.85259,33.85259,0,0,0,.712,6.29346,31.17578,31.17578,0,0,0,.7782,3.10083C247.90251,264.50142,248.25706,265.5129,248.62834,266.52681Z" fill="#4f66d0"/><path d="M178.13725,218.082c-.94293.52612-1.87146,1.06128-2.75458,1.66894a31.168,31.168,0,0,0-2.61267,1.84229,33.83216,33.83216,0,0,0-4.64551,4.30518,22.62923,22.62923,0,0,0-3.428,5.26025l-.60193,1.4624c-.18122.49536-.27716,1.01685-.42591,1.52637l-.22363.76831-.11676.78931c-.07062.5288-.154,1.06-.24622,1.59643a15.47454,15.47454,0,0,1,.90247-6.43408,18.73038,18.73038,0,0,1,3.3866-5.62573,25.13207,25.13207,0,0,1,4.95465-4.27222A24.63209,24.63209,0,0,1,178.13725,218.082Z" fill="#4f66d0"/><path d="M185.56175,253.05538c-.6134-.88867-1.23425-1.76221-1.92285-2.58374a31.14876,31.14876,0,0,0-2.08185-2.426,33.84062,33.84062,0,0,0-4.72656-4.21606,22.63442,22.63442,0,0,0-5.56189-2.91333l-1.513-.46045c-.51038-.1333-1.03851-.17944-1.55982-.27905l-.78613-.14966-.79687-.04151c-.53315-.02-1.06983-.05273-1.61243-.0935a15.47028,15.47028,0,0,1,6.4906.28784,18.72423,18.72423,0,0,1,5.92175,2.8374,25.13832,25.13832,0,0,1,4.723,4.52686A24.63675,24.63675,0,0,1,185.56175,253.05538Z" fill="#4f66d0"/><path d="M134.89256,240.26729a24.62749,24.62749,0,0,1,5.71369-3.07666,25.13836,25.13836,0,0,1,6.34912-1.57763,18.73247,18.73247,0,0,1,6.54852.48461,15.472,15.472,0,0,1,5.77368,2.979c-.491-.23438-.97284-.47315-1.44531-.72095l-.71185-.36035-.75647-.26123c-.50177-.17285-.98285-.39575-1.49189-.53394l-1.54162-.35327a22.63659,22.63659,0,0,0-6.27411-.2395,33.84341,33.84341,0,0,0-6.19751,1.30615,31.15533,31.15533,0,0,0-3.01288,1.06885C136.83995,239.3525,135.8668,239.80147,134.89256,240.26729Z" fill="#4f66d0"/><path d="M159.15562,266.52681a24.63045,24.63045,0,0,1-2.5205-5.97973,25.13573,25.13573,0,0,1-.96784-6.47022,18.727,18.727,0,0,1,1.1037-6.4729,15.4751,15.4751,0,0,1,3.51361-5.46509c-.28.46656-.56335.92359-.8548,1.37037l-.42651.67456-.33179.72827c-.21966.48315-.48712.94092-.673,1.43457l-.498,1.501a22.63684,22.63684,0,0,0-.83386,6.22315,33.84677,33.84677,0,0,0,.712,6.29346,31.173,31.173,0,0,0,.77819,3.10083C158.42979,264.50142,158.78435,265.5129,159.15562,266.52681Z" fill="#4f66d0"/><path d="M113.27064,243.03182H150.188a0,0,0,0,1,0,0v136.218a0,0,0,0,1,0,0H93.25037a0,0,0,0,1,0,0V263.0521A20.02028,20.02028,0,0,1,113.27064,243.03182Z" fill="#a2aee6"/><path d="M190.54891,379.24978H150.188v-136.218h20.3406a20.02029,20.02029,0,0,1,20.02028,20.02028v23.90507l161.85191-1.10673-.048-42.81862h16.37659a20.02028,20.02028,0,0,1,20.02027,20.02028V379.24978Z" fill="#c0d6f2"/><path d="M191.48641,74.63239h70.22743a0,0,0,0,1,0,0V85.782a0,0,0,0,1,0,0H191.48641a4.79756,4.79756,0,0,1-4.79756-4.79756V79.42995A4.79756,4.79756,0,0,1,191.48641,74.63239Z" fill="#fff"/><path d="M263.91007,86.06745a1.01021,1.01021,0,0,1-1.01021,1.0102H190.01154c-2.783,0-5.04666-3.05662-5.04666-6.81438,0-3.75684,2.2637-6.81346,5.04666-6.81346h72.88832A1.01021,1.01021,0,0,1,263.91007,74.46v.79516a1.01021,1.01021,0,0,1-1.01021,1.0102H190.01154c-1.63312,0-2.96148,1.79365-2.96148,3.99789,0,2.20517,1.32836,3.99881,2.96148,3.99881h72.88832a1.01021,1.01021,0,0,1,1.01021,1.01021Z" fill="#f65b2b"/><path d="M180.52959,61.00455H250.757a0,0,0,0,1,0,0V72.15421a0,0,0,0,1,0,0H180.52959a4.79756,4.79756,0,0,1-4.79756-4.79756V65.80211a4.79756,4.79756,0,0,1,4.79756-4.79756Z" fill="#fff"/><path d="M252.95325,72.43961a1.01021,1.01021,0,0,1-1.01021,1.0102H179.05473c-2.783,0-5.04667-3.05661-5.04667-6.81437,0-3.75685,2.2637-6.81346,5.04667-6.81346H251.943a1.01021,1.01021,0,0,1,1.01021,1.0102v.79516a1.01021,1.01021,0,0,1-1.01021,1.01021H179.05473c-1.63313,0-2.96148,1.79364-2.96148,3.99789,0,2.20516,1.32835,3.9988,2.96148,3.9988H251.943a1.01021,1.01021,0,0,1,1.01021,1.01021Z" fill="#ffba55"/><path d="M202.95775,47.37672h70.22743a0,0,0,0,1,0,0V58.52637a0,0,0,0,1,0,0H202.95775a4.79756,4.79756,0,0,1-4.79756-4.79756V52.17427A4.79756,4.79756,0,0,1,202.95775,47.37672Z" fill="#fff"/><path d="M275.38141,58.81177a1.01021,1.01021,0,0,1-1.0102,1.01021H201.48289c-2.783,0-5.04667-3.05662-5.04667-6.81438,0-3.75684,2.2637-6.81346,5.04667-6.81346h72.88832a1.0102,1.0102,0,0,1,1.0102,1.0102v.79516a1.0102,1.0102,0,0,1-1.0102,1.01021H201.48289c-1.63313,0-2.96148,1.79364-2.96148,3.99789,0,2.20516,1.32835,3.99881,2.96148,3.99881h72.88832a1.0102,1.0102,0,0,1,1.0102,1.0102Z" fill="#f65b2b"/><path d="M64.577,89.35354H75.008a0,0,0,0,1,0,0v21.85611a2,2,0,0,1-2,2H66.577a2,2,0,0,1-2-2V89.35354A0,0,0,0,1,64.577,89.35354Z" fill="#935b50"/><path d="M238.82016,89.35354h10.431a0,0,0,0,1,0,0v21.85611a2,2,0,0,1-2,2h-6.431a2,2,0,0,1-2-2V89.35354A0,0,0,0,1,238.82016,89.35354Z" fill="#935b50"/><path d="M276.8028,91.69275H45.81948a2.33884,2.33884,0,0,1,0-4.67767H276.8028a2.33884,2.33884,0,0,1,0,4.67767Z" fill="#d6694b"/><line x1="126.50363" y1="81.92081" x2="116.82086" y2="81.92082" fill="none" stroke="#fff" stroke-miterlimit="10" stroke-width="1.16942"/><line x1="126.50363" y1="77.24314" x2="116.82085" y2="77.24315" fill="none" stroke="#fff" stroke-miterlimit="10" stroke-width="1.16942"/><line x1="126.5036" y1="35.14412" x2="116.82082" y2="35.14413" fill="none" stroke="#fff" stroke-miterlimit="10" stroke-width="1.16942"/><line x1="126.50359" y1="30.46645" x2="116.82082" y2="30.46646" fill="none" stroke="#fff" stroke-miterlimit="10" stroke-width="1.16942"/><polygon points="245.203 46.103 231.067 46.103 226.304 21.068 249.966 21.068 245.203 46.103" fill="#e19974"/><polygon points="249.423 23.926 249.966 21.068 226.304 21.068 226.847 23.926 249.423 23.926" fill="#d6694b"/><rect x="230.08508" y="34.23523" width="4.22323" height="4.22323" transform="translate(93.70994 -153.54211) rotate(45)" fill="#d6694b"/><rect x="236.05763" y="34.23523" width="4.22323" height="4.22323" transform="translate(95.45926 -157.76534) rotate(45)" fill="#d6694b"/><rect x="241.96139" y="34.23523" width="4.22323" height="4.22323" transform="translate(97.18843 -161.93994) rotate(45)" fill="#d6694b"/><path d="M243.64163,0s1.24137,17.53747-6.03438,21.25414C237.60725,21.25414,235.0884,14.60509,243.64163,0Z" fill="#558031"/><path d="M220.16416,7.53334s11.90278,2.05371,17.44309,13.7208C237.60725,21.25414,224.51824,16.80858,220.16416,7.53334Z" fill="#849f4c"/><path d="M224.38457,30.50508s6.05338-9.05609,13.22268-9.25094C237.60725,21.25414,236.52794,28.546,224.38457,30.50508Z" fill="#a6b862"/><path d="M231.85152,2.49977s8.39909,7.66866,5.75573,18.75437C237.60725,21.25414,232.95445,16.32225,231.85152,2.49977Z" fill="#849f4c"/><path d="M237.60725,21.25414s2.9509-10.802,17.86843-13.572C255.47568,7.68216,252.11858,17.5176,237.60725,21.25414Z" fill="#a6b862"/><path d="M259.42737,18.43041s-11.38165-4.69218-21.82012,2.82373C237.60725,21.25414,251.48408,22.92019,259.42737,18.43041Z" fill="#849f4c"/><path d="M259.32383,29.35431s-5.49567-8.80276-21.71658-8.10017Z" fill="#558031"/><path d="M214.03344,19.82927s14.94766-5.54253,23.76941,1.15986C237.80285,20.98913,229.42636,25.603,214.03344,19.82927Z" fill="#558031"/><path d="M226.29089,3.78037s13.33785,9.43347,11.42452,17.48144C237.71541,21.26181,228.462,13.84256,226.29089,3.78037Z" fill="#558031"/><path d="M249.68791,30.64365s-10.99554-1.87718-12.08066-9.38951C237.60725,21.25414,245.64138,21.65207,249.68791,30.64365Z" fill="#849f4c"/><path d="M35.107,42.731S54.318,56.89107,60.6016,55.26856" fill="none" stroke="#8b9d36" stroke-linecap="round" stroke-linejoin="round" stroke-width="2.4469"/><line x1="56.47909" y1="15.8075" x2="59.43256" y2="56.30106" fill="none" stroke="#8b9d36" stroke-linecap="round" stroke-linejoin="round" stroke-width="2.4469"/><path d="M71.85361,57.37692S75.03751,39.412,91.7118,31.63142" fill="none" stroke="#8b9d36" stroke-linecap="round" stroke-linejoin="round" stroke-width="2.4469"/><path d="M70.39221,53.20353c-.99477-1.9482-6.34056-1.9509-9.75418.44263a9.34814,9.34814,0,0,0-3.28787,4.31442c-.58122,1.49716-1.51148,3.89279-.21911,5.53129,1.05245,1.33421,3.2293,1.72372,5.37017.9954a26.17575,26.17575,0,0,0,4.60313-4.53558C69.08468,57.44442,71.194,54.77391,70.39221,53.20353Z" fill="#5e7c24"/><path d="M74.55712,52.98236c-.37252.9783.36657,2.09974,1.75348,4.20368a20.19714,20.19714,0,0,0,4.82224,5.089,5.7533,5.7533,0,0,0,6.79514.77423,5.50413,5.50413,0,0,0,2.52053-4.64631c-.0226-2.86618-2.47148-4.63972-3.39727-5.31012C82.56762,49.8455,75.45794,50.61764,74.55712,52.98236Z" fill="#5e7c24"/><path d="M87.70857,34.61856c.32674-.557,1.17345-.274,3.06875-.55337,1.50346-.22177,1.53111-.48255,4.71284-1.438a18.13686,18.13686,0,0,1,4.0552-.9957c.57438.0027,3.82092.0174,4.93164,2.21257,1.16364,2.2996-.99061,5.06765-1.09585,5.19939-2.0826,2.60209-5.64071,2.47515-6.79514,2.43374a10.49075,10.49075,0,0,1-7.34306-3.53988C88.98311,37.64648,87.141,35.58545,87.70857,34.61856Z" fill="#5e7c24"/><path d="M57.78868,23.88758c-1.1568-.58247-.47984-4.2832-.1097-6.30552a37.53408,37.53408,0,0,1,2.0823-6.30582c1.9179-5.05295,2.35553-5.59731,3.06876-5.86289,1.669-.62179,4.12566.55066,5.04164,2.323,1.268,2.45355-.67576,5.5553-2.73993,8.85C63.14934,19.75022,59.29333,24.645,57.78868,23.88758Z" fill="#5e7c24"/><path d="M57.35016,33.62285c.85088-1.38462-.71471-4.09234-2.30141-5.53128C53.71683,26.8837,52.354,26.5554,50.0071,25.98972c-2.63588-.63529-5.53725-1.3345-6.35662-.11073-.78131,1.16676.74712,3.45886,1.09616,3.98252A9.68847,9.68847,0,0,0,49.24006,33.291C51.58191,34.26025,56.25223,35.4093,57.35016,33.62285Z" fill="#c4ce6e"/><path d="M57.45987,44.35353c.03121-1.10164-1.56143-1.33-4.82224-3.98252-2.58861-2.10574-2.66234-2.838-4.16491-3.31871-2.30022-.73582-5.303-.03511-5.80869,1.438-.12367.36071-.10613.79134,1.8632,3.98251,1.532,2.48236,2.3133,3.73314,3.06875,4.20369a7.20026,7.20026,0,0,0,5.47987.55307C54.45147,46.904,57.41765,45.84648,57.45987,44.35353Z" fill="#5e7c24"/><path d="M58.65837,31.62106c-1.07416-1.21625.00667-4.15544,1.32451-5.84842,1.10623-1.42112,2.3928-1.98115,4.60832-2.94587,2.48834-1.08348,5.22731-2.276,6.243-1.21275.9685,1.01371-.14655,3.537-.40114,4.11347a9.73394,9.73394,0,0,1-3.842,4.1585C64.44927,31.24744,60.04437,33.19025,58.65837,31.62106Z" fill="#5e7c24"/><path d="M59.45317,43.05305c-.21849-1.07979,1.3115-1.58128,4.07169-4.76042,2.19118-2.5238,2.139-3.25791,3.53728-3.99237,2.14055-1.12424,5.218-.95532,5.96717.40807.1833.33386.23941.76111-1.15675,4.24665-1.08614,2.71135-1.64266,4.07914-2.30666,4.67384A7.21085,7.21085,0,0,1,64.262,45.12509C62.85136,45.04318,59.74917,44.51643,59.45317,43.05305Z" fill="#5e7c24"/><path d="M41.897,48.77838c-.15371-1.20037-2.13047-1.863-4.49343-2.65491-2.13492-.71542-3.82984-1.28379-5.80869-.6638-.34992.10953-3.46267,1.08453-3.72638,3.42944-.23665,2.10334,2.00738,3.63891,2.192,3.76135,1.80373,1.19707,3.82092.809,5.151.55307C38.2934,52.61055,42.12324,50.54412,41.897,48.77838Z" fill="#5e7c24"/><path d="M50.77444,54.30967c-1.65033-1.17756-4.76516.81985-6.24721,1.77024a13.10136,13.10136,0,0,0-3.83579,3.761c-1.14164,1.71323-2.228,3.34392-1.64409,4.75706.83959,2.03132,4.464,2.001,4.932,1.9911a7.88235,7.88235,0,0,0,5.37017-2.43374,8.38465,8.38465,0,0,0,2.0826-4.20368C51.63156,59.03131,52.40306,55.47192,50.77444,54.30967Z" fill="#c4ce6e"/><path d="M37.62268,43.02592c-.92847-1.35011-.60322-2.3071-.98645-4.64631-.60917-3.71874-1.90511-4.195-1.42467-6.08436.37817-1.487,1.65954-3.07414,3.06876-3.09755,1.97378-.033,3.24356,3.01772,3.507,3.65062.95791,2.3011.60471,4.30721,0,7.74386-.39482,2.24349-.696,3.84958-1.64378,4.09325C39.22722,44.921,38.13642,43.77285,37.62268,43.02592Z" fill="#8b9d36"/><path d="M79.59847,42.694c.29284-.82855,1.84505-.954,3.72638-1.10614,2.35047-.18995,4.11228-.3325,5.80869.77424.261.17015,3.00751,2.01362,2.52053,4.204-.38055,1.71143-2.50715,2.6093-4.05491,2.65491-1.67946.04952-2.82139-.9-4.93194-2.65491C81.00441,45.18358,79.23784,43.71433,79.59847,42.694Z" fill="#8b9d36"/><path d="M82.3384,36.3885c-.42187-.096-.448-.68361-.98644-2.32331-1.20319-3.66322-2.145-3.996-1.9726-5.53129.19086-1.69852,1.59264-3.50717,2.84934-3.42945,1.37.08463,2.18933,2.38723,2.52082,3.319a7.17662,7.17662,0,0,1,.43852,3.42944C84.88063,34.23114,83.2532,36.59706,82.3384,36.3885Z" fill="#5e7c24"/><path d="M55.15815,20.45844c-.63949.90687-4.27044-.16715-6.68543-2.32331-.6166-.55037-3.34554-2.98711-2.63023-5.31012a2.73669,2.73669,0,0,1,2.192-1.99111c1.02391-.02521,1.68957,1.01491,3.39757,3.53988C54.9441,19.56656,55.43851,20.06082,55.15815,20.45844Z" fill="#8b9d36"/><path d="M75.105,44.9066c-1.83911.50055-4.24547-3.38354-4.82224-4.31442a14.27188,14.27188,0,0,1-2.192-7.965c.07878-1.75914.22238-4.96652,2.0823-5.75246,1.782-.75292,4.19255,1.11695,5.37017,2.54418,2.32371,2.81576,1.95416,6.45857,1.64408,9.5138C76.94594,41.313,76.62307,44.49337,75.105,44.9066Z" fill="#c4ce6e"/><path d="M75.37165,87.177H57.30025l-5.81376-30.8438a1.22593,1.22593,0,0,1,1.19629-1.45892H79.98911a1.22593,1.22593,0,0,1,1.19629,1.45892Z" fill="#e19974"/><path d="M80.76539,58.56183l.42008-2.2286a1.22592,1.22592,0,0,0-1.19628-1.45893H52.68277a1.22594,1.22594,0,0,0-1.19629,1.45893l.42009,2.2286Z" fill="#d6694b"/><polygon points="58.745 78.442 54.927 74.588 58.745 70.735 62.562 74.588 58.745 78.442" fill="#d6694b"/><polygon points="66.38 78.442 62.562 74.588 66.38 70.735 70.197 74.588 66.38 78.442" fill="#d6694b"/><polygon points="73.927 78.442 70.109 74.588 73.927 70.735 77.744 74.588 73.927 78.442" fill="#d6694b"/><path d="M139.94548,51.09778H200.512a0,0,0,0,1,0,0v9.5233a0,0,0,0,1,0,0H139.94548a.98986.98986,0,0,1-.98986-.98986V52.08764a.98986.98986,0,0,1,.98986-.98986Z" transform="translate(247.99949 -104.77784) rotate(97.75988)" fill="#7ca1b1"/><line x1="177.97399" y1="30.65566" x2="168.5379" y2="29.36981" fill="none" stroke="#fff" stroke-miterlimit="10" stroke-width="1.15016"/><line x1="177.35281" y1="35.21416" x2="167.91671" y2="33.92831" fill="none" stroke="#fff" stroke-miterlimit="10" stroke-width="1.15016"/><line x1="171.76214" y1="76.24066" x2="162.32605" y2="74.9548" fill="none" stroke="#fff" stroke-miterlimit="10" stroke-width="1.15016"/><line x1="171.14095" y1="80.79915" x2="161.70486" y2="79.5133" fill="none" stroke="#fff" stroke-miterlimit="10" stroke-width="1.15016"/><path d="M112.502,51.45885h60.56655a.98986.98986,0,0,1,.98986.98986v7.54358a.98986.98986,0,0,1-.98986.98986H112.502a0,0,0,0,1,0,0v-9.5233a0,0,0,0,1,0,0Z" transform="translate(87.0596 199.50067) rotate(-89.99996)" fill="#f65b2b"/><line x1="138.51854" y1="82.30606" x2="148.04184" y2="82.30607" fill="none" stroke="#fff" stroke-miterlimit="10" stroke-width="1.15016"/><line x1="138.51854" y1="77.70544" x2="148.04184" y2="77.70544" fill="none" stroke="#fff" stroke-miterlimit="10" stroke-width="1.15016"/><line x1="138.51857" y1="36.29978" x2="148.04187" y2="36.29978" fill="none" stroke="#fff" stroke-miterlimit="10" stroke-width="1.15016"/><line x1="138.51858" y1="31.69915" x2="148.04188" y2="31.69915" fill="none" stroke="#fff" stroke-miterlimit="10" stroke-width="1.15016"/><path d="M126.04008,51.18282h57.80618a0,0,0,0,1,0,0V64.01857a0,0,0,0,1,0,0H126.04008a.98986.98986,0,0,1-.98986-.98986v-10.856A.98986.98986,0,0,1,126.04008,51.18282Z" transform="translate(212.04893 -96.84754) rotate(90)" fill="#ffba55"/><line x1="160.86611" y1="80.3393" x2="148.03036" y2="80.3393" fill="none" stroke="#fff" stroke-miterlimit="10" stroke-width="1.15016"/><rect x="140.71536" y="41.10744" width="27.46575" height="8.28113" transform="translate(199.69624 -109.20023) rotate(90)" fill="#fff"/><path d="M90.16048,51.45885H150.727a.98986.98986,0,0,1,.98986.98986v7.54358a.98986.98986,0,0,1-.98986.98986H90.16048a0,0,0,0,1,0,0v-9.5233a0,0,0,0,1,0,0Z" transform="translate(64.71828 177.15924) rotate(-90.00004)" fill="#ffba55"/><line x1="125.70036" y1="82.30606" x2="116.17706" y2="82.30607" fill="none" stroke="#fff" stroke-miterlimit="10" stroke-width="1.15016"/><line x1="125.70036" y1="77.70544" x2="116.17706" y2="77.70544" fill="none" stroke="#fff" stroke-miterlimit="10" stroke-width="1.15016"/><line x1="125.70033" y1="36.29978" x2="116.17703" y2="36.29978" fill="none" stroke="#fff" stroke-miterlimit="10" stroke-width="1.15016"/><line x1="125.70032" y1="31.69915" x2="116.17702" y2="31.69915" fill="none" stroke="#fff" stroke-miterlimit="10" stroke-width="1.15016"/><path d="M81.36251,51.18282h57.80618a0,0,0,0,1,0,0V64.01857a0,0,0,0,1,0,0H81.36251a.98986.98986,0,0,1-.98986-.98986v-10.856a.98986.98986,0,0,1,.98986-.98986Z" transform="translate(167.37136 -52.16997) rotate(90)" fill="#f65b2b"/><line x1="103.35279" y1="80.3393" x2="116.18854" y2="80.3393" fill="none" stroke="#fff" stroke-miterlimit="10" stroke-width="1.15016"/><rect x="96.03779" y="41.10744" width="27.46575" height="8.28113" transform="translate(155.01867 -64.52266) rotate(90)" fill="#fff"/><path d="M103.70129,51.18282h57.80618a0,0,0,0,1,0,0V64.01857a0,0,0,0,1,0,0H103.70129a.98986.98986,0,0,1-.98986-.98986v-10.856A.98986.98986,0,0,1,103.70129,51.18282Z" transform="translate(189.71014 -74.50876) rotate(90)" fill="#7ca1b1"/><line x1="125.69157" y1="80.3393" x2="138.52733" y2="80.3393" fill="none" stroke="#fff" stroke-miterlimit="10" stroke-width="1.15016"/><rect x="118.37657" y="41.10744" width="27.46575" height="8.28113" transform="translate(177.35746 -86.86144) rotate(90)" fill="#fff"/><path d="M218.47715,163.56638c1.54171-.62829,2.80822-1.06985,3.945-1.6714,7.552-3.996,13.3098-17.15555,8.68613-25.25839-4.02974-7.06206-12.51137-10.7156-15.05521-10.877a36.57271,36.57271,0,0,0-11.64952,2.17087,15.83031,15.83031,0,0,0-7.354,8.13456c-2.38623,6.78214-1.41889,8.69462-1.71187,10.74341C194.78417,150.67908,200.24685,170.06348,218.47715,163.56638Z" fill="#766e6e"/><path d="M315.25387,184.90431a.89178.89178,0,0,1-1.39988-.41985c-.15217-.46143-.28381-.91023-.3931-1.3434a.89188.89188,0,0,1,1.72992-.435q.14776.58926.35683,1.21886A.89234.89234,0,0,1,315.25387,184.90431Z" fill="#542121"/><path d="M332.77483,358.47922s.34537,10.60753,28.11064,17.64277a1.39148,1.39148,0,0,1,1.06582,1.112c.18878,1.3793-1.718,3.56432-17.53559,1.79972a98.29192,98.29192,0,0,0-22.95274.14305h0a4.02643,4.02643,0,0,1-4.63386-4.14061l.15452-14.45686Z" fill="#f9977a"/><path d="M287.64051,358.47922s.34537,10.60753,28.11064,17.64277a1.39148,1.39148,0,0,1,1.06582,1.112c.18878,1.3793-1.718,3.56432-17.53559,1.79972a98.292,98.292,0,0,0-22.95275.14305h0a4.02643,4.02643,0,0,1-4.63386-4.14061l.15452-14.45686Z" fill="#f9977a"/><path d="M348.98683,346.13235,319.537,263.56991A25.84394,25.84394,0,0,0,303.47406,249.89c-11.15878-3.27326-28.82805-7.86506-44.48171-9.34182,0,0-37.609.47606-55.69944-9.04521,0,0-22.375,30.94413,3.33244,51.41487,0,0,10.88211,9.62648,37.7481,5.33284a17.71815,17.71815,0,0,1,16,5.42834,18.37334,18.37334,0,0,1,4.56972,14.47019s-.6609,30.2216-4.68018,47.89165c-.48456,2.13028,2.31508,5.448,7.52412,7.24971,22.56193,7.80374,53.71974,12.36178,74.11974-7.55822C346.48177,351.265,349.41942,347.04018,348.98683,346.13235Z" fill="#f73c4f"/><path d="M174.05428,250.52525s-1.01292,3.44084-7.7495,7.58838-12.48015,6.69351-8.524,2.7629l3.06431-2.94533s-6.31333.773-10.03408,1.56286a4.7101,4.7101,0,0,1-5.13509-2.2454c-.90592-1.66024-.496-3.12036,3.60283-4.85739a45.193,45.193,0,0,1,11.97806-3.51755,2.68342,2.68342,0,0,0,1.56161-.75032l1.164-1.13665Z" fill="#f9977a"/><path d="M164.61882,257.15938a6.5758,6.5758,0,0,1-1.82758.6687,5.77538,5.77538,0,0,1-1.94616.103,10.06647,10.06647,0,0,1,1.84613-.57666A8.49436,8.49436,0,0,1,164.61882,257.15938Z" fill="#dd765e"/><path d="M156.40825,256.21236c-1.50867.5022-3.03589.875-4.54016,1.33228-.76.199-1.51056.42871-2.25946.66137-.7497.23218-1.49305.47876-2.23615.76172a10.91926,10.91926,0,0,1,2.10974-1.11255c.73456-.30932,1.496-.53857,2.2533-.77612A25.02171,25.02171,0,0,1,156.40825,256.21236Z" fill="#dd765e"/><path d="M155.42985,254.08028c-1.68567.42529-3.37359.76123-5.02264,1.24023a23.01348,23.01348,0,0,0-2.44733.769,8.90937,8.90937,0,0,0-2.284,1.15918,6.14777,6.14777,0,0,1,2.13861-1.50244,16.70959,16.70959,0,0,1,2.46441-.89258c.84656-.20947,1.694-.41138,2.555-.53687A19.34046,19.34046,0,0,1,155.42985,254.08028Z" fill="#dd765e"/><path d="M154.04429,252.31636c-1.40576.37793-2.80853.67115-4.18878,1.06348-.69793.16528-1.37957.38257-2.06707.58594-.6861.20972-1.36017.45-2.05.68847a13.147,13.147,0,0,1,3.99231-1.74218A17.41232,17.41232,0,0,1,154.04429,252.31636Z" fill="#dd765e"/><path d="M253.66546,195.24884l-4.188-22.33616s-19.54414-.68662-19.54414-10.81341l-16.68017-1.82778,1.973,8.14092a5.27624,5.27624,0,0,1-2.44907,5.78853l-9.50273,5.59978a26.60045,26.60045,0,0,0-10.18964,10.828l-14.5634,28.54445-14.539,27.81358,9.25191,4.46359c5.17369-4.67377,13.30082-18.88664,17.35051-26.29432,2.89734-4.91328,12.96024-19.758,14.56938-19.61171,0,0,5.734,15.33581-2.11855,26.32934.31994-.07432,10.2455,7.78294,21.78583,9.67675,10.19342,1.67263,23.57909-1.55749,23.57909-1.55749S258.90051,210.60489,253.66546,195.24884Z" fill="#f9977a"/><path d="M308.98064,266.57l-3.4618-2.72266c-1.15179-.89575-2.29974-1.78906-3.48858-2.61719a38.60057,38.60057,0,0,0-3.63611-2.355,18.3474,18.3474,0,0,0-3.98322-1.738,10.94116,10.94116,0,0,1,4.33179,1.04,21.46675,21.46675,0,0,1,3.86743,2.239,30.19434,30.19434,0,0,1,3.41791,2.84375A25.92156,25.92156,0,0,1,308.98064,266.57Z" fill="#b02336"/><path d="M314.35338,264.55465,311.191,262.4421c-1.0545-.6836-2.10022-1.37183-3.18762-1.978a28.36545,28.36545,0,0,0-3.31848-1.678,16.11871,16.11871,0,0,0-3.59351-1.05615,9.00342,9.00342,0,0,1,3.8512.31958,16.04246,16.04246,0,0,1,3.55981,1.54883A21.25723,21.25723,0,0,1,314.35338,264.55465Z" fill="#b02336"/><path d="M333.02025,308.86324a43.77518,43.77518,0,0,1-4.54315,6.77173c-.86335,1.05127-1.7533,2.08423-2.71875,3.05151a14.4357,14.4357,0,0,1-3.21149,2.55444c.96771-.96289,1.77124-2.03784,2.63006-3.075l2.52234-3.15844C329.40129,312.91329,331.11015,310.82222,333.02025,308.86324Z" fill="#b02336"/><path d="M333.02025,318.38448a36.12922,36.12922,0,0,1-5.59839,6.28833,24.94589,24.94589,0,0,1-7.01727,4.66113c2.21453-1.73877,4.28411-3.54492,6.34942-5.40478C328.82512,322.08126,330.85271,320.18673,333.02025,318.38448Z" fill="#b02336"/><path d="M214.92479,282.00533c3.54547-.12109,7.05554-.14917,10.54962-.36255,1.74756-.09058,3.48285-.27026,5.20276-.52466a14.21375,14.21375,0,0,0,4.97339-1.5188,10.57,10.57,0,0,1-4.81732,2.28345,30.58749,30.58749,0,0,1-5.29847.75757A44.42038,44.42038,0,0,1,214.92479,282.00533Z" fill="#b02336"/><path d="M224.88377,284.36788a41.92972,41.92972,0,0,1,5.36914-.375l2.65448-.04712a15.55057,15.55057,0,0,0,2.6496-.22608,6.00316,6.00316,0,0,1-2.56519,1.002,17.69591,17.69591,0,0,1-2.7174.27026A18.88367,18.88367,0,0,1,224.88377,284.36788Z" fill="#b02336"/><path d="M203.03659,180.10777a26.5999,26.5999,0,0,0-10.18963,10.828L177.43791,221.1375s12.356,5.38718,12.93712,4.40159c2.897-4.913,12.93216-19.834,14.54136-19.68773Z" fill="#ffba55"/><path d="M246.44826,172.98468s1.11464.11622,2.79138.235c3.59636.25477,8.60254,6.9434,15.25087,21.02222l4.41805,9.35588s13.38411-17.28239,21.44056-22.4801l8.41254,5.89492-20.52215,28.41805a16.24231,16.24231,0,0,1-5.45863,5.3938c-5.08581,2.9783-10.48669,2.40266-13.73642-2.874-5.08338-8.254-11.29-20.90912-12.02-24.49273Z" fill="#f9977a"/><path d="M246.44826,172.98468s1.11464.11622,2.79138.235c3.59636.25477,8.60254,6.9434,15.25087,21.02222l4.41805,9.35588s6.10859,15.91708,3.87232,17.22667c-5.08581,2.9783-10.48669,2.40266-13.73642-2.874-5.08338-8.254-11.29-20.90912-12.02-24.49273Z" fill="#ffba55"/><path d="M289.39092,181.89865s1.55369-3.23286,8.87016-6.24167,13.395-4.59682,8.85764-1.35445l-3.49855,2.41353s6.35543.25359,10.15481.07307a4.71009,4.71009,0,0,1,4.70657,3.04287c.62679,1.78445-.01286,3.15951-4.33788,4.214a45.193,45.193,0,0,1-12.38813,1.54314,2.68348,2.68348,0,0,0-1.66205.48911l-1.33183.9344Z" fill="#f9977a"/><path d="M299.77135,176.8702a6.58467,6.58467,0,0,1,1.91149-.36585,5.78063,5.78063,0,0,1,1.93732.21167,10.04591,10.04591,0,0,1-1.91485.272A8.49994,8.49994,0,0,1,299.77135,176.8702Z" fill="#dd765e"/><path d="M307.7224,179.12691c1.56982-.25281,3.13714-.37488,4.69537-.584.7821-.074,1.55994-.18006,2.33649-.28882.77734-.10852,1.55065-.23218,2.32965-.39185a10.9182,10.9182,0,0,1-2.26136.7583c-.77478.18714-1.56329.29078-2.34887.40332A25.04832,25.04832,0,0,1,307.7224,179.12691Z" fill="#dd765e"/><path d="M308.34471,181.38851c1.73218-.14832,3.45221-.208,5.15686-.41541a22.95477,22.95477,0,0,0,2.53918-.36487,8.909,8.909,0,0,0,2.4408-.77624,6.15162,6.15162,0,0,1-2.3526,1.13855,16.70964,16.70964,0,0,1-2.57593.484c-.8692.07043-1.73822.1333-2.60815.11865A19.34982,19.34982,0,0,1,308.34471,181.38851Z" fill="#dd765e"/><path d="M309.42821,183.35274c1.4483-.14685,2.87994-.21033,4.30535-.37536.71546-.05079,1.42322-.1554,2.13447-.24549.71087-.09643,1.41491-.2251,2.13409-.34924a13.157,13.157,0,0,1-4.22076,1.07654A17.42936,17.42936,0,0,1,309.42821,183.35274Z" fill="#dd765e"/><path d="M229.90646,162.12805s-4.3822,5.1209-11.61415,1.68509c0,0,4.02949,7.99013,13.71123,3.33928A7.37666,7.37666,0,0,1,229.90646,162.12805Z" fill="#dd765e"/><path d="M230.63978,142.2692c-4.298-9.303-12.936-14.4634-19.29347-11.52624-4.90686,2.267-7.01756,8.696-5.75072,15.789a1.9575,1.9575,0,0,0-1.65607.14591c-1.32326.88182-.972,3.73343.78455,6.36918,1.483,2.2254,3.49112,3.5791,4.87766,3.41792,4.62775,6.99656,11.81789,10.50384,17.309,7.967C233.26822,161.49465,234.93778,151.57211,230.63978,142.2692Z" fill="#f9977a"/><path d="M180.66075,224.34835a10.22589,10.22589,0,0,1,2.23987-.22461,11.34089,11.34089,0,0,1,2.2547.23144,7.37941,7.37941,0,0,1,2.13434.8147,4.15005,4.15005,0,0,1,1.57263,1.62158,6.77086,6.77086,0,0,0-3.8103-1.96338,14.90709,14.90709,0,0,0-2.16962-.33374C182.14909,224.42183,181.40977,224.37935,180.66075,224.34835Z" fill="#dd765e"/><path d="M268.80052,203.53243a10.23152,10.23152,0,0,1,1.472,1.70312,11.34647,11.34647,0,0,1,1.10748,1.97754,7.37974,7.37974,0,0,1,.56085,2.2146,4.149,4.149,0,0,1-.42206,2.21924,6.76939,6.76939,0,0,0-.5852-4.24634,14.89757,14.89757,0,0,0-.9748-1.96679C269.59642,204.79219,269.206,204.163,268.80052,203.53243Z" fill="#dd765e"/><path d="M222.41008,143.38a6.4997,6.4997,0,0,0,1.12982,3.34058,14.47082,14.47082,0,0,0,2.23645,2.76819l.67664.60046a1.41129,1.41129,0,0,1,.5108.90527,2.31077,2.31077,0,0,1-.72382,1.79432,4.16946,4.16946,0,0,1-3.48083.97412A4.47515,4.47515,0,0,0,225.964,152.538a2.07385,2.07385,0,0,0,.56275-1.48376c-.03406-.48731-.63227-.77356-1.07752-1.20862a13.193,13.193,0,0,1-2.22345-2.92737A5.70507,5.70507,0,0,1,222.41008,143.38Z" fill="#dd765e"/><path d="M212.5504,148.271a.48451.48451,0,0,1-.431-.70531c.08521-.1671,2.13511-4.08892,6.11824-4.3204a.4846.4846,0,1,1,.05633.96756c-3.43521.19976-5.29316,3.758-5.31162,3.794A.48473.48473,0,0,1,212.5504,148.271Z" fill="#160b07"/><path d="M224.11209,141.85781a.48475.48475,0,0,1-.27171-.88661,9.35243,9.35243,0,0,1,5.68084-1.43713.48466.48466,0,0,1-.10367.96377,8.45946,8.45946,0,0,0-5.0347,1.27713A.48489.48489,0,0,1,224.11209,141.85781Z" fill="#160b07"/><path d="M230.64976,143.14437a5.39933,5.39933,0,0,1-.93695,1.63806,5.47946,5.47946,0,0,1-1.465,1.24548,3.87838,3.87838,0,0,1-1.88453.4624,3.766,3.766,0,0,1-1.81988-.52893,5.83209,5.83209,0,0,0,1.80768.15638,3.95769,3.95769,0,0,0,1.66546-.51514,6.19987,6.19987,0,0,0,1.42267-1.07105A11.783,11.783,0,0,0,230.64976,143.14437Z" fill="#160b07"/><path d="M220.29075,147.24947a5.39808,5.39808,0,0,1-.93695,1.63806,5.48163,5.48163,0,0,1-1.465,1.24548,3.87838,3.87838,0,0,1-1.88452.46241,3.76623,3.76623,0,0,1-1.81989-.52893,5.83238,5.83238,0,0,0,1.80768.15637,3.95939,3.95939,0,0,0,1.66546-.51514,6.20172,6.20172,0,0,0,1.42273-1.071A11.78814,11.78814,0,0,0,220.29075,147.24947Z" fill="#160b07"/><path d="M204.56737,150.09835a2.44583,2.44583,0,0,1,.20813-1.30652,1.09783,1.09783,0,0,1,.51568-.53919,1.02747,1.02747,0,0,1,.77924-.05383,2.69763,2.69763,0,0,1,1.103.808,4.86283,4.86283,0,0,1,.70954,1.09156c-.35089-.26441-.6413-.57019-.96912-.82386a2.86757,2.86757,0,0,0-.9801-.6112.67153.67153,0,0,0-.83972.31909A4.73762,4.73762,0,0,0,204.56737,150.09835Z" fill="#dd765e"/><path d="M207.054,152.89034a5.121,5.121,0,0,0-.14111-1.17676,7.23255,7.23255,0,0,0-.33374-1.11511c-.1059-.3761-.27784-.72974-.42011-1.1-.15112-.36767-.318-.73059-.45557-1.12329a5.057,5.057,0,0,1,.78577.95008,6.56062,6.56062,0,0,1,.54694,1.1134,4.86465,4.86465,0,0,1,.24481,1.22742A2.39769,2.39769,0,0,1,207.054,152.89034Z" fill="#dd765e"/><circle cx="207.13332" cy="155.63166" r="2.15758" fill="#ffcb33"/><path d="M220.57785,158.2126s6.76322,2.298,9.14014-2.58094" fill="#dd2f22"/><path d="M206.7829,223.26572c1.74706-8.91106-1.8665-17.41475-1.8665-17.41475-1.60926-.14532-1.88074-25.74368-1.88074-25.74368l9.50545-5.59871c2.00192-1.1827,10.42417,12.19689,14.21716,11.47937,3.95959-.749,5.356-18.11523,6.151-17.48991.15994.12615.32964.24733.49928.36851,5.66641,3.994,15.83114,4.35282,15.83114,4.35282l4.188,22.33593c3.36349,8.16336,1.1,21.82381.4876,25.08279a.96746.96746,0,0,1-.85877.78365C247.1098,221.99655,206.276,225.85132,206.7829,223.26572Z" fill="#ffba55"/><path d="M208.24341,205.21153c5.747,5.35136,16.45621,3.02468,18.547-.93068" fill="#e6952a"/><path d="M233.10313,202.63551s11.59948,7.57838,17.88152-5.16019" fill="#d3a124"/><path d="M301.69578,307.89473l1.54248,5.91626q.75816,2.959,1.56226,5.9043c1.07092,3.92627,2.1297,7.85474,3.359,11.729,1.155,3.89624,2.45605,7.748,3.95978,11.51221a46.09077,46.09077,0,0,0,2.55114,5.50635,12.33484,12.33484,0,0,0,3.8111,4.63306,11.87109,11.87109,0,0,1-4.23285-4.38306,45.70754,45.70754,0,0,1-2.83752-5.45606,109.81644,109.81644,0,0,1-4.20679-11.52026c-1.1554-3.91846-2.23254-7.85742-3.14661-11.835C303.14555,315.92452,302.317,311.92794,301.69578,307.89473Z" fill="#b02336"/><path d="M212.62654,221.24141s22.51055-52.04447,30.15656-50.72445c0,0,6.26639-.76384,8.20155,1.99383s-.942,51.66418-8.94076,69.34656c-6.63954,14.67768-40.67678-7.311-40.67678-7.311A35.59629,35.59629,0,0,0,212.62654,221.24141Z" fill="#f73c4f"/><path d="M208.24339,267.04293a22.28588,22.28588,0,0,0,5.612-.18384l1.38159-.23c.46-.07569.90729-.21924,1.36066-.325.4491-.12476.90912-.20679,1.34772-.36548l1.3164-.4668a31.27215,31.27215,0,0,0,9.53931-5.64477l2.0954-1.84449,1.90136-2.05078.94928-1.02881.84382-1.11865c.55694-.75049,1.12811-1.49072,1.70629-2.228,1.06794-1.5354,2.03333-3.14794,3.04871-4.72973.89758-1.65039,1.76685-3.32007,2.69794-4.96924-.72382,1.74121-1.50952,3.4624-2.26691,5.20264-.936,1.6438-1.83783,3.3186-2.844,4.92944-.54316.77954-1.09327,1.55664-1.65766,2.32324L234.433,255.466l-.95209,1.06714-1.91278,2.12915-2.123,1.92847a30.37613,30.37613,0,0,1-9.93579,5.60547l-1.373.41308c-.45636.14014-.9339.20313-1.39893.30811a21.71285,21.71285,0,0,1-2.82648.42578A20.02582,20.02582,0,0,1,208.24339,267.04293Z" fill="#b02336"/><path d="M287.45854,273.38326l.8028,6.34741.73913,6.35059,1.44776,12.69946c.44281,4.23657.962,8.46338,1.49731,12.686.26324,2.11182.55328,4.22022.904,6.3169.16468,1.05029.34656,2.09814.57447,3.135.11547.51782.24011,1.03442.39953,1.53931a3.143,3.143,0,0,0,.701,1.40136,3.203,3.203,0,0,1-.84332-1.35083c-.19989-.49853-.36011-1.01025-.51374-1.52319-.30291-1.02734-.55969-2.06665-.79931-3.10889-.45062-2.09008-.82709-4.19311-1.18378-6.29834-.69507-4.21386-1.20733-8.45092-1.7287-12.68481-.43878-4.24365-.88507-8.48535-1.21734-12.73755C287.90526,281.90377,287.611,277.6484,287.45854,273.38326Z" fill="#b02336"/><path d="M221.42664,235.53673c.73346-2.36621,1.63238-4.64563,2.58508-6.89771.94037-2.25769,1.98084-4.465,3.02484-6.66882,1.07581-2.18823,2.17127-4.3667,3.334-6.51111,1.14239-2.15881,2.36822-4.25781,3.571-6.41528a37.686,37.686,0,0,1-2.15417,7.0697c-.881,2.29285-1.904,4.517-2.952,6.728-1.08343,2.19385-2.20288,4.36865-3.431,6.48852A63.60549,63.60549,0,0,1,221.42664,235.53673Z" fill="#b02336"/><circle cx="221.1746" cy="141.10518" r="1.04483" fill="#dd2f22"/><line x1="217.14453" y1="130.83873" x2="218.26896" y2="132.57847" fill="none" stroke="#dd2f22" stroke-linecap="round" stroke-linejoin="round" stroke-width="1.45417"/><circle cx="228.11872" cy="193.95871" r="0.85796" fill="#160b07"/><circle cx="229.83975" cy="193.89952" r="0.85796" fill="#160b07"/><circle cx="229.03485" cy="194.81667" r="0.65438" fill="#dd2f22"/><path d="M214.10719,173.6327a.25208.25208,0,0,1-.06438-.00852.24269.24269,0,0,1-.1697-.29774c.03929-.14343.07693-.29491.11148-.45917a.24241.24241,0,1,1,.47431.10036c-.03692.17372-.07645.33466-.1181.48661A.2425.2425,0,0,1,214.10719,173.6327Z" fill="#160b07"/><path d="M228.58291,194.38925a.24244.24244,0,0,1-.00829-.48473,3.33682,3.33682,0,0,0,.88661-.15.2423.2423,0,1,1,.14627.462,3.81766,3.81766,0,0,1-1.01584.17278Zm-.96212-.07574a.27545.27545,0,0,1-.04378-.00379,6.58327,6.58327,0,0,1-.96969-.26035.24251.24251,0,0,1,.15905-.45821,6.0605,6.0605,0,0,0,.89774.24141.24246.24246,0,0,1-.04332.48094Zm2.795-.48094a.24219.24219,0,0,1-.11881-.45348,6.56313,6.56313,0,0,0,.77631-.51549.24238.24238,0,1,1,.29538.38437,6.95413,6.95413,0,0,1-.83454.55336A.23813.23813,0,0,1,230.41577,193.83257Zm-4.62429-.13775a.23977.23977,0,0,1-.10249-.02272c-.27573-.12923-.56212-.276-.87572-.44969a.24239.24239,0,0,1,.23479-.42414c.3039.168.58058.31053.84637.43455a.2424.2424,0,0,1-.10295.462Zm-1.697-.92921a.24025.24025,0,0,1-.12592-.0355c-.26579-.16189-.52543-.32426-.77774-.48189l.081-.23526.13444-.20165-.13278.2026.14106-.1974c.284.17752.542.33893.80637.49988a.24239.24239,0,0,1-.12638.44922Zm7.85737-.10083a.24236.24236,0,0,1-.16852-.41656c.21751-.21065.435-.44212.64662-.68827a.24221.24221,0,1,1,.3678.31526c-.2213.258-.44922.50082-.67738.72141A.24222.24222,0,0,1,231.95184,192.66478Zm-9.48835-.94531a.24043.24043,0,0,1-.13893-.044c-.23858-.1671-.50413-.35976-.79-.578a.24247.24247,0,1,1,.29444-.38531c.28023.21443.5401.40235.774.56661a.24235.24235,0,0,1-.13941.4407Zm10.75176-.51786a.23845.23845,0,0,1-.14343-.04733.24215.24215,0,0,1-.05136-.33893q.27514-.37348.54058-.78437a.24238.24238,0,0,1,.40709.26319q-.27408.4239-.55762.809A.24192.24192,0,0,1,233.21525,191.20161Zm-12.29067-.658a.2421.2421,0,0,1-.15455-.05586q-.35858-.29751-.73939-.64093a.24232.24232,0,1,1,.32472-.35976c.24805.2239.49041.43313.72425.62768a.24236.24236,0,0,1-.155.42887Zm13.34272-.96519a.24236.24236,0,0,1-.20994-.36307q.22012-.38343.43337-.79241l.02343-.045a.24239.24239,0,1,1,.4336.2168l-.02793.054q-.21692.41538-.44212.808A.24191.24191,0,0,1,234.2673,189.57845Zm-14.77938-.33325a.24268.24268,0,0,1-.1697-.06911q-.3394-.333-.68425-.69963a.2423.2423,0,0,1,.35361-.33136q.33691.35857.67.68449a.24236.24236,0,0,1-.1697.41561Zm15.661-1.38885a.24232.24232,0,0,1-.2213-.34035q.19633-.44377.35881-.88235a.24234.24234,0,1,1,.45443.16852q-.16793.453-.37017.9098A.24177.24177,0,0,1,235.14894,187.85635Zm-16.98549-.02367a.24156.24156,0,0,1-.1839-.08426q-.31242-.36424-.62153-.75549a.24234.24234,0,0,1,.38059-.30011q.30212.38343.60874.73939a.24263.24263,0,0,1-.1839.40047Zm-1.19619-1.52092a.24146.24146,0,0,1-.19716-.1013q-.28082-.39123-.5517-.809a.24218.24218,0,1,1,.40662-.26319q.26413.40756.53892.79a.24225.24225,0,0,1-.19668.38342Zm18.85315-.26887a.25.25,0,0,1-.06911-.00994.24238.24238,0,0,1-.16308-.30153q.13776-.463.24165-.9207a.2423.2423,0,0,1,.47242.10793c-.07195.31668-.156.63715-.2497.951A.24237.24237,0,0,1,235.82041,186.04289Zm-19.9052-1.35524a.24225.24225,0,0,1-.2097-.12024q-.24319-.41749-.47195-.85868a.2422.2422,0,1,1,.43029-.22248q.2226.42958.46058.83691a.24229.24229,0,0,1-.08757.33135A.23721.23721,0,0,1,215.91521,184.68765Zm20.3343-.53112a.26528.26528,0,0,1-.03834-.00284.24253.24253,0,0,1-.20118-.27739q.07527-.475.11787-.94483a.2472.2472,0,0,1,.26342-.21917.24275.24275,0,0,1,.21941.26366c-.02982.32521-.07077.65372-.12213.97608A.24247.24247,0,0,1,236.24951,184.15653Zm-21.22446-1.18719a.24231.24231,0,0,1-.22059-.14154q-.2013-.44022-.38414-.90128a.24244.24244,0,0,1,.45065-.17894q.17786.44946.37419.87857a.2422.2422,0,0,1-.22011.34319Zm21.40245-.73892h-.0071a.24273.24273,0,0,1-.2355-.249q.00639-.22579.00639-.44875c0-.169-.00284-.33751-.008-.50461a.2427.2427,0,0,1,.235-.24994.26235.26235,0,0,1,.2497.23479q.0078.25917.008.51976c0,.15337-.00213.30768-.00639.462A.24251.24251,0,0,1,236.4275,182.23042ZM214.31263,181.171a.242.242,0,0,1-.22958-.16473q-.15514-.458-.28946-.93632a.24234.24234,0,1,1,.46674-.13065q.13063.46509.28188.9117a.24238.24238,0,0,1-.15195.30722A.24691.24691,0,0,1,214.31263,181.171Zm22.05546-.87431a.24223.24223,0,0,1-.24118-.22153q-.04154-.47787-.10674-.94957a.24227.24227,0,0,1,.48-.06627q.06673.48425.10958.97418a.242.242,0,0,1-.22059.26225Zm-22.57876-.987a.24218.24218,0,0,1-.23621-.18887q-.10652-.47219-.191-.96093a.24234.24234,0,1,1,.47762-.08237q.082.47645.18627.93632a.24231.24231,0,0,1-.18319.2897A.23059.23059,0,0,1,213.78933,179.30976Zm22.31675-.93016a.24234.24234,0,0,1-.2381-.19881q-.087-.4729-.19195-.93869a.24232.24232,0,1,1,.47289-.106q.10652.47432.19574.95762a.24238.24238,0,0,1-.19455.28212A.281.281,0,0,1,236.10608,178.3796Zm-22.64266-.97655a.24206.24206,0,0,1-.24071-.21728,8.14351,8.14351,0,0,1-.04828-.85537l.00165-.14058a.25244.25244,0,0,1,.24757-.23716.24244.24244,0,0,1,.23716.24757l-.00166.13159a7.69842,7.69842,0,0,0,.04545.80378.242.242,0,0,1-.21562.266Zm22.22066-.9136a.24235.24235,0,0,1-.23432-.18129q-.12141-.46792-.25419-.92827a.24234.24234,0,0,1,.46579-.134q.13419.4665.25751.9401a.2426.2426,0,0,1-.17373.29585A.24634.24634,0,0,1,235.68408,176.48945Zm-22.15416-1.01157a.24787.24787,0,0,1-.0523-.00568.2424.2424,0,0,1-.18461-.28876,7.97323,7.97323,0,0,1,.28685-.95335.24245.24245,0,0,1,.45775.16,7.60757,7.60757,0,0,0-.27124.8975A.24245.24245,0,0,1,213.52992,175.47788Zm21.62091-.84875a.24245.24245,0,0,1-.23147-.17088q-.14379-.46367-.29254-.9188a.24251.24251,0,0,1,.46106-.15053q.1491.45868.29443.92637a.24206.24206,0,0,1-.15976.303A.23684.23684,0,0,1,235.15083,174.62913Zm-.59572-1.84233a.24267.24267,0,0,1-.23006-.16615l-.30485-.9188a.24235.24235,0,0,1,.46011-.15242l.30485.9188a.24238.24238,0,0,1-.15384.30626A.23776.23776,0,0,1,234.55511,172.7868Zm-.604-1.839a.24263.24263,0,0,1-.231-.169q-.14982-.47005-.28591-.92969a.24234.24234,0,0,1,.46484-.13727q.13384.45513.28307.92022a.24246.24246,0,0,1-.15739.30437A.24854.24854,0,0,1,233.95109,170.94778Z" fill="#160b07"/><path d="M233.46524,169.07349a.24866.24866,0,0,1-.05816.00971.24345.24345,0,0,1-.23751-.18438c-.03882-.15976-.07757-.315-.11633-.475a.23083.23083,0,0,1,.04361-.19384c.15994.12615.32964.24733.49928.36851.0145.063.02905.12119.04361.18414A.23647.23647,0,0,1,233.46524,169.07349Z" fill="#160b07"/><circle cx="223.70995" cy="153.34931" r="1.04483" fill="#ffcb33"/><path d="M216.957,131.1068c-1.38542.69916-1.93183,2.01724-3.02468,4.65335-2.111,5.0921-2.557,11.51387-4.47885,13.08757a1.3772,1.3772,0,0,1-.75617.349c-.8791.07651-1.48151-.94312-2.792-2.26854-.99037-1.00164-1.3485-1.1295-1.91952-1.68683a9.7212,9.7212,0,0,1-2.443-8.43417,10.29952,10.29952,0,0,1,4.36253-6.16574c4.44853-3.28894,9.66947-2.56771,10.99356-2.38481,7.95494,1.09891,12.77151,7.57933,12.56409,7.85252C229.219,136.43026,221.5745,128.77655,216.957,131.1068Z" fill="#766e6e"/><circle cx="242.27368" cy="268.09016" r="3.21267" fill="#ffba55"/><circle cx="251.91481" cy="250.11983" r="3.21267" fill="#ffba55"/><circle cx="263.31047" cy="272.17522" r="3.21267" fill="#ffba55"/><circle cx="222.30983" cy="274.3487" r="3.21267" fill="#ffba55"/><circle cx="203.87383" cy="250.11983" r="3.21267" fill="#ffba55"/><circle cx="221.67646" cy="237.77989" r="3.21267" fill="#ffba55"/><circle cx="222.94319" cy="257.44844" r="3.21267" fill="#ffba55"/><circle cx="220.79602" cy="222.61954" r="3.21267" fill="#ffba55"/><circle cx="239.06101" cy="234.56722" r="3.21267" fill="#ffba55"/><circle cx="236.58579" cy="208.33935" r="3.21267" fill="#ffba55"/><circle cx="245.48635" cy="188.06835" r="3.21267" fill="#ffba55"/><circle cx="269.03762" cy="254.56527" r="3.21267" fill="#ffba55"/><circle cx="284.20245" cy="265.12353" r="3.21267" fill="#ffba55"/><circle cx="250.79547" cy="283.71957" r="3.21267" fill="#ffba55"/><circle cx="296.66132" cy="293.60833" r="3.21267" fill="#ffba55"/><circle cx="277.2425" cy="280.5069" r="3.21267" fill="#ffba55"/><circle cx="287.41512" cy="250.11983" r="3.21267" fill="#ffba55"/><circle cx="301.32845" cy="267.8616" r="3.21267" fill="#ffba55"/><circle cx="317.32104" cy="274.3487" r="3.21267" fill="#ffba55"/><circle cx="307.95948" cy="285.17247" r="3.21267" fill="#ffba55"/><circle cx="313.65026" cy="307.8947" r="3.21267" fill="#ffba55"/><circle cx="322.78396" cy="293.86731" r="3.21267" fill="#ffba55"/><circle cx="316.86292" cy="330.49528" r="3.21267" fill="#ffba55"/><circle cx="325.99663" cy="350.20612" r="3.21267" fill="#ffba55"/><circle cx="331.23333" cy="332.54672" r="3.21267" fill="#ffba55"/><circle cx="307.95948" cy="351.87635" r="3.21267" fill="#ffba55"/><circle cx="294.28864" cy="339.86453" r="3.21267" fill="#ffba55"/><circle cx="300.00849" cy="323.85932" r="3.21267" fill="#ffba55"/><circle cx="287.41512" cy="308.86331" r="3.21267" fill="#ffba55"/><circle cx="270.53868" cy="296.24762" r="3.21267" fill="#ffba55"/><circle cx="266.52314" cy="343.81643" r="3.21267" fill="#ffba55"/><circle cx="284.20245" cy="364.08881" r="3.21267" fill="#ffba55"/><circle cx="280.45517" cy="350.24177" r="3.21267" fill="#ffba55"/><circle cx="278.99076" cy="329.76607" r="3.21267" fill="#ffba55"/><circle cx="269.03762" cy="318.38458" r="3.21267" fill="#ffba55"/><path d="M213.1687,236.02151c1.45552-3.85106,3.10893-7.60815,4.83966-11.32713.84962-1.86766,1.76653-3.70147,2.66058-5.54736.91242-1.83641,1.857-3.657,2.79526-5.48108.96962-1.80778,1.93854-3.61627,2.93891-5.40866,1.02283-1.78009,2.02537-3.57248,3.11205-5.31848q1.59781-2.63676,3.35632-5.1824c.59976-.83951,1.20182-1.67831,1.855-2.48208.32946-.39976.66126-.79738,1.02182-1.17276.18185-.186.36919-.36757.56824-.53656a1.86193,1.86193,0,0,1,.66436-.40307,3.70142,3.70142,0,0,0-1.005,1.12448c-.28743.41822-.55041.85537-.80792,1.29465-.5121.88117-1.01051,1.77085-1.486,2.67474-.972,1.79476-1.90251,3.61461-2.84854,5.4257l-2.815,5.44819-2.83939,5.43848-2.88349,5.41884c-.98558,1.794-1.93623,3.60679-2.94377,5.39067C217.36927,228.9627,215.34318,232.52666,213.1687,236.02151Z" fill="#b02336"/><path d="M222.38076,219.827a3.19441,3.19441,0,0,0-1.58471-.42011c-.08781,0-.17408.00615-.26.01314-.808,1.66352-1.62731,3.321-2.39925,5.00215a3.22547,3.22547,0,0,0,1.1672,1.04117c.01574-.02864.03195-.057.04781-.08568,1.00743-1.78387,1.95819-3.59662,2.94373-5.39067Z" fill="#e6952a"/><path d="M244.46751,178.32433A150.75742,150.75742,0,0,1,243.3198,199.576c-.40758,3.53106-.97487,7.04318-1.61676,10.54347q-.99385,5.24477-2.3731,10.41638c-.94627,3.43686-2.02346,6.84366-3.29507,10.18325a76.4256,76.4256,0,0,1-4.49856,9.73379,50.03754,50.03754,0,0,1-6.13295,8.80315,31.44646,31.44646,0,0,1-8.24718,6.74757,35.80634,35.80634,0,0,0,7.51421-7.35513,45.06626,45.06626,0,0,0,2.97209-4.32371c.9089-1.49465,1.77423-3.0158,2.55758-4.58146.78058-1.56683,1.50865-3.15947,2.20364-4.76725.688-1.61086,1.31639-3.24846,1.91075-4.8979q1.79459-4.94511,3.14531-10.04952c.9409-3.38692,1.73022-6.81834,2.44765-10.26561.73788-3.4442,1.33921-6.918,1.92-10.39792Q243.50108,188.914,244.46751,178.32433Z" fill="#b02336"/><path d="M244.13705,190.9809q.20821-2.9703.297-5.94534a3.19122,3.19122,0,0,0-.6988.34141q-.27886,2.44434-.59466,4.88157A3.21464,3.21464,0,0,0,244.13705,190.9809Z" fill="#e6952a"/><path d="M309.43186,211.56142a3.42332,3.42332,0,0,1-2.253-.91818.87727.87727,0,0,1,1.14515-1.32931,1.48786,1.48786,0,0,0,1.49546.4274.87745.87745,0,0,1,.54389,1.66848A3.03765,3.03765,0,0,1,309.43186,211.56142Zm2.57339-1.71559a.87742.87742,0,0,1-.71305-1.38669,10.95529,10.95529,0,0,0,1.119-2.06933.87729.87729,0,0,1,1.61452.68692,12.73987,12.73987,0,0,1-1.30575,2.40165A.87632.87632,0,0,1,312.00525,209.84583Zm-5.77973-1.00983a.87686.87686,0,0,1-.77172-.45909,17.347,17.347,0,0,1-1.07277-2.45647.87719.87719,0,0,1,1.65306-.58756,15.66615,15.66615,0,0,0,.96143,2.20808.87689.87689,0,0,1-.77,1.295Zm7.84092-3.6256a.87613.87613,0,0,1-.84195-1.12374c.22012-.752.4214-1.56142.59784-2.40594a.87729.87729,0,0,1,1.7173.35973c-.18586.88906-.3987,1.743-.6321,2.53955A.87626.87626,0,0,1,314.06644,205.2104Zm-9.58863-1.14944a.87722.87722,0,0,1-.85008-.66379c-.20128-.80512-.38329-1.6642-.54089-2.5524a.87687.87687,0,1,1,1.72672-.30663c.15075.8488.32419,1.66762.51605,2.43248a.87839.87839,0,0,1-.8518,1.09034Zm10.64513-3.83288a.89811.89811,0,0,1-.12633-.00857.87711.87711,0,0,1-.743-.99355c.11606-.80512.21413-1.64107.29079-2.48559a.87726.87726,0,0,1,1.74728.15931c-.08008.8745-.18158,1.74129-.30192,2.57638A.87737.87737,0,0,1,315.12294,200.22808Zm-11.54446-1.17941a.87748.87748,0,0,1-.86979-.77343c-.09935-.83853-.17987-1.707-.239-2.58152a.87691.87691,0,1,1,1.74984-.1182c.05739.84452.1349,1.683.23126,2.49244a.87745.87745,0,0,1-.76743.97471A.8673.8673,0,0,1,303.57848,199.04867Zm12.00912-3.8937c-.01285,0-.0257,0-.039-.00085a.8764.8764,0,0,1-.8381-.9139q.05012-1.155.05011-2.34855l-.00043-.16188a.87707.87707,0,1,1,1.75413,0l.00043.155q0,1.24108-.05182,2.43077A.87694.87694,0,0,1,315.5876,195.155Zm-12.35687-1.18883a.8776.8776,0,0,1-.87663-.85823q-.01286-.60512-.01242-1.2171,0-.68734.0167-1.37041a.87644.87644,0,0,1,.87621-.85565h.02141a.87736.87736,0,0,1,.85565.89847c-.01027.43939-.01584.88307-.01584,1.32845q-.00065.59357.01242,1.17856a.87758.87758,0,0,1-.85822.89591Zm12.34145-3.90483a.87764.87764,0,0,1-.87535-.8351c-.04026-.83852-.10064-1.67961-.17944-2.49844a.87691.87691,0,0,1,.78927-.95672.865.865,0,0,1,.95715.78885c.08094.84709.14347,1.71559.18544,2.58238a.87715.87715,0,0,1-.83381.91817C315.60087,190.06131,315.58674,190.06131,315.57218,190.06131Zm-12.21725-1.18712c-.02056,0-.04111-.00086-.0621-.00172a.87748.87748,0,0,1-.81368-.93616c.06081-.87107.143-1.73872.24453-2.57981a.87689.87689,0,1,1,1.74128.209c-.09764.81283-.17729,1.65135-.236,2.49244A.87722.87722,0,0,1,303.35493,188.87419Zm.615-5.056a.87687.87687,0,0,1-.86422-1.03124c.15974-.89419.34389-1.75242.54688-2.55154a.87706.87706,0,0,1,1.70018.43168c-.19272.75887-.36787,1.576-.52033,2.42821A.877.877,0,0,1,303.9699,183.81821Z" fill="#542121"/><path d="M305.34134,178.915a.86955.86955,0,0,1-.817-1.16767c.16263-.445.33332-.8679.51166-1.26533a.86967.86967,0,0,1,1.58633.71334c-.1622.36007-.31676.74391-.4641,1.14814A.8701.8701,0,0,1,305.34134,178.915Z" fill="#542121"/><ellipse cx="190.39405" cy="148.83602" rx="10.21504" ry="11.84763" fill="#766e6e"/><path d="M197.09074,156.3163a2.29391,2.29391,0,0,0,1.55089-3.865,2.29653,2.29653,0,0,0,1.37529-3.9682c.05171.0005.1013.00966.15353.00669a2.30622,2.30622,0,1,0-.78563-4.50819,2.29547,2.29547,0,0,0-3.16858-2.76722c.00083-.05635.01055-.11072.00729-.168a2.30629,2.30629,0,1,0-3.98087,1.69706,2.2867,2.2867,0,0,0-.463,3.65195,2.29894,2.29894,0,0,0,1.62138,4.05084,2.30611,2.30611,0,1,0,.26152,4.6048,2.27976,2.27976,0,0,0,1.09853-.36346A2.302,2.302,0,0,0,197.09074,156.3163Z" fill="#f9dd95"/><circle cx="193.65809" cy="140.8727" r="0.59119" fill="#f4906e"/><circle cx="197.45142" cy="143.16248" r="0.59119" fill="#f4906e"/><circle cx="193.28552" cy="144.73906" r="0.59119" fill="#f4906e"/><circle cx="194.9606" cy="142.95437" r="0.59119" fill="#f4906e"/><circle cx="197.16406" cy="145.70309" r="0.59119" fill="#f4906e"/><circle cx="200.27547" cy="146.11853" r="0.59119" fill="#f4906e"/><circle cx="198.45338" cy="150.37862" r="0.59119" fill="#f4906e"/><circle cx="197.15417" cy="148.35502" r="0.59119" fill="#f4906e"/><circle cx="194.86433" cy="147.01799" r="0.59119" fill="#f4906e"/><circle cx="192.8964" cy="148.31404" r="0.59119" fill="#f4906e"/><circle cx="195.35859" cy="149.96224" r="0.59119" fill="#f4906e"/><circle cx="193.15263" cy="152.82577" r="0.59119" fill="#f4906e"/><circle cx="197.05318" cy="154.17729" r="0.59119" fill="#f4906e"/><circle cx="195.5136" cy="152.69169" r="0.59119" fill="#f4906e"/><path d="M37.688,287.43036c2.41169,1.87394,6.66064,6.32427,6.77527,9.662,0,0,7.80886-8.49083,5.58875-15.75216a13.56165,13.56165,0,0,0-6.20117-6.24612s3.06211-1.7178,6.27749,2.49854c0,0-1.14822-11.39936-17.03351-7.26133,0,0-6.20117-12.64856-18.48825-.70275,0,0,8.268-1.054,6.66033,1.52257a24.03363,24.03363,0,0,0-8.249,4.16424,8.2652,8.2652,0,0,0-2.77522,5.77117c-.19126,3.08406-.4847,9.18706.115,9.27173.80369.11707,6.08622-4.68463,9.64612-4.33326s-8.15338,10.89168-8.15338,10.89168,2.41169,9.13513,3.44527,9.018c1.03327-.11707,4.78474-2.73269,3.25338,0l-2.641,2.1081,3.445,4.76278,8.65085-3.82589s-3.82779-10.46231-.30621-7.61255c0,0,2.67927,3.55267,2.71759,6.20721,0,0,11.579-5.036,10.43081-8.491a77.60649,77.60649,0,0,0-4.37636-9.3367,3.948,3.948,0,0,1-.47848-1.65267C35.953,287.21559,36.18254,286.25916,37.688,287.43036Zm-1.42265-12.128c1.08466-.74834,3.75147-.26687,4.753,2.17306,1.07189,2.60911,1.027,5.51748-.05732,6.26566-1.08467.74834-4.16609-.22763-4.938-2.75222C35.16827,278.17816,35.181,276.05053,36.2654,275.30235Z" fill="#8b9d36"/><path d="M33.09477,270.33126a42.88035,42.88035,0,0,0-3.41748,4.44336,26.03388,26.03388,0,0,0-2.42194,5.01464,55.89617,55.89617,0,0,0-1.59515,5.35816c-.462,1.81592-.90332,3.62988-1.27124,5.46191-.38983,1.82666-.73047,3.66553-1.0094,5.51172-.28723,1.84644-.45251,3.7041-.67938,5.571a31.14456,31.14456,0,0,1-3.30139,10.74072,37.45986,37.45986,0,0,0,1.83374-5.29858,29.86766,29.86766,0,0,0,.97485-5.49463A87.07116,87.07116,0,0,1,23.759,290.47774c.3894-1.84009.85351-3.665,1.33471-5.47729a44.89483,44.89483,0,0,1,1.701-5.38794,26.11151,26.11151,0,0,1,2.62146-5.01245A37.18848,37.18848,0,0,1,33.09477,270.33126Z" fill="#5e7c24"/><path d="M28.58543,276.28267a26.66988,26.66988,0,0,0-3.717,1.07032c-1.20807.4392-2.40216.91552-3.561,1.47241-2.35016,1.04931-4.57929,2.34009-6.854,3.60791.49665-.4209,1.01508-.81446,1.52924-1.217.53827-.36524,1.0683-.74683,1.61932-1.09644a33.60347,33.60347,0,0,1,3.43683-1.87939,28.13866,28.13866,0,0,1,3.68042-1.35767A14.54375,14.54375,0,0,1,28.58543,276.28267Z" fill="#5e7c24"/><path d="M23.35179,294.39571c-.88965.6897-1.8158,1.25439-2.72021,1.84351q-.67988.43616-1.328.90112a3.64771,3.64771,0,0,0-1.099,1.14282,2.39991,2.39991,0,0,1,.76337-1.51709,7.73311,7.73311,0,0,1,1.31384-1.06738A9.47265,9.47265,0,0,1,23.35179,294.39571Z" fill="#5e7c24"/><path d="M25.12541,286.05342a30.57984,30.57984,0,0,1,2.92627,3.15625,37.07851,37.07851,0,0,1,2.51837,3.50269,24.76134,24.76134,0,0,1,1.96582,3.85474,11.73438,11.73438,0,0,1,.90344,4.2146,16.61207,16.61207,0,0,0-1.359-4.01953,30.64046,30.64046,0,0,0-2.05658-3.70972c-.722-1.2207-1.54456-2.38111-2.36469-3.54419C26.8361,288.34639,25.98637,287.20064,25.12541,286.05342Z" fill="#5e7c24"/><path d="M14.53,322.64341l3.21535,2.967s3.13879-3.31831,3.48329-1.015c0,0-.49761,2.30329-1.11006,2.49848,0,0,7.69387,6.18767,9.24413,1.09309a49.14289,49.14289,0,0,1,2.3541-6.67564s1.7225.93693.22966,8.31528c0,0,5.95438-1.74978,8.16551-4.95985a2.29627,2.29627,0,0,0,.38895-1.28081c.0213-1.83518.26318-7.00034,2.35476-5.0611,0,0,1.20576.58559.28709,4.509,0,0,4.84585-5.46308,2.54407-8.82079a3.35733,3.35733,0,0,0-4.11677-1.08625c-1.34571.58416-3.84261,1.66-8.47527,3.6413A92.45638,92.45638,0,0,1,14.53,322.64341Z" fill="#8b9d36"/><path d="M25.12541,327.17183a18.36024,18.36024,0,0,1,1.58283-4.86572,11.82945,11.82945,0,0,1,1.35949-2.20288,5.26713,5.26713,0,0,1,.9339-.92651,1.9584,1.9584,0,0,1,1.22321-.43726,3.51806,3.51806,0,0,0-1.74933,1.658,22.35286,22.35286,0,0,0-1.18878,2.19141C26.54753,324.09175,25.88914,325.64009,25.12541,327.17183Z" fill="#5e7c24"/><path d="M35.58287,324.75142a15.27515,15.27515,0,0,1,.40765-4.49878,11.5459,11.5459,0,0,1,.75171-2.15844,3.388,3.388,0,0,1,1.52008-1.697,4.61291,4.61291,0,0,0-1.056,1.89039c-.22442.69433-.41723,1.40112-.59,2.11669C36.26774,321.83785,35.97844,323.29024,35.58287,324.75142Z" fill="#5e7c24"/><path d="M89.09546,271.56414s-7.73215,1.10952-.84212,6.575c0,0,1.76079,1.48347,7.50248,3.20119C95.75582,281.34029,99.354,265.69189,89.09546,271.56414Z" fill="#5e7c24"/><path d="M95.75584,281.34029c-.14319-.51245-.237-1.02588-.36584-1.53027-.161-.49634-.27728-1.00147-.45343-1.48535a14.39264,14.39264,0,0,0-1.29285-2.77271,10.89965,10.89965,0,0,0-1.94946-2.32666,9.24425,9.24425,0,0,0-2.59882-1.66113,6.54272,6.54272,0,0,1,2.9148,1.27,8.85021,8.85021,0,0,1,2.18023,2.37768,10.77709,10.77709,0,0,1,1.22638,2.97071c.14032.51538.19312,1.05.282,1.57128C95.7249,280.28585,95.75712,280.81392,95.75584,281.34029Z" fill="#50661a"/><path d="M79.2825,239.94834s8.5723-5.4615,11.13986,6.66537c0,0-4.44872-3.82925-4.50765-1.61407a16.97926,16.97926,0,0,1,3.227,5.74969,6.29574,6.29574,0,0,1-.62009,4.64846c-1.08966,1.98312-3.29121,5.87839-3.67815,5.702-.51807-.23612-1.75194-5.24253-3.981-6.392s.54852,9.88544.54852,9.88544-4.97627,4.73832-5.53806,4.26874-1.74836-3.5309-1.91269-1.249l.73144,2.321-3.88026,1.63012-3.59384-5.695s6.32577-5.0174,3.14577-4.60285c0,0-2.95883,1.17374-4.01556,2.80515,0,0-4.84338-7.57015-2.82246-9.27145a57.35608,57.35608,0,0,1,6.19441-4.1011,2.90284,2.90284,0,0,0,1.054-1.02849c.285-.49106.34055-1.01439-.85243-.88343-2.14735.23573-6.37838,1.36345-7.74625,3.38909,0,0-1.28141-8.26436,2.85233-11.91423a9.54566,9.54566,0,0,1,6.078-1.49147s-1.13056-2.24129-4.66291-.86186C66.44239,237.9085,71.55838,231.281,79.2825,239.94834Z" fill="#5e7c24"/><path d="M83.12407,253.52486c-.69959-1.70532-1.356-3.395-2.15393-5.00659a14.55339,14.55339,0,0,0-1.387-2.27515,3.5314,3.5314,0,0,0-2.13543-1.47534,3.11681,3.11681,0,0,1,2.51208,1.14233,9.91465,9.91465,0,0,1,1.58606,2.31958A16.5852,16.5852,0,0,1,83.12407,253.52486Z" fill="#50661a"/><path d="M65.51622,257.60469a12.89388,12.89388,0,0,1,1.63861-2.65039,12.31267,12.31267,0,0,1,2.22363-2.22192,8.17573,8.17573,0,0,1,2.82221-1.44873,5.43486,5.43486,0,0,1,3.12463.10132,7.11085,7.11085,0,0,0-2.97467.37866,9.88348,9.88348,0,0,0-2.58087,1.48022,17.89725,17.89725,0,0,0-2.23615,2.03809C66.8397,256.02486,66.15764,256.79049,65.51622,257.60469Z" fill="#50661a"/><path d="M73.55461,241.0522a3.96888,3.96888,0,0,1,2.64673-1.55517,6.22632,6.22632,0,0,1,1.58472-.04224,8.85027,8.85027,0,0,1,1.55249.31958l.18853.05274-.077.19433c-1.00147,2.52954-1.85224,5.12793-2.69251,7.72046-.8222,2.60083-1.56286,5.22608-2.28808,7.85571q-1.04582,3.95619-1.95789,7.94825c-.61163,2.66089-1.14966,5.33813-1.70026,8.01831.33643-2.71387.74067-5.42261,1.27057-8.1084.48194-2.6958,1.13617-5.35645,1.8-8.01294.66968-2.656,1.465-5.279,2.32123-7.88062.85095-2.60473,1.80444-5.17187,2.91162-7.687l.11139.24707-.73157-.218c-.2489-.04687-.49633-.10913-.7467-.15039a5.964,5.964,0,0,0-1.51795-.04907A4.00717,4.00717,0,0,0,73.55461,241.0522Z" fill="#50661a"/><path d="M76.20482,264.49556a14.19319,14.19319,0,0,0-1.02686-2.707,2.43716,2.43716,0,0,0-.87854-.94678,2.98515,2.98515,0,0,0-1.37164-.25537,2.021,2.021,0,0,1,1.565-.20874,2.33592,2.33592,0,0,1,1.24152,1.08667A4.546,4.546,0,0,1,76.20482,264.49556Z" fill="#50661a"/><path d="M47.60214,327.17192s-1.52394-5.26049-5.39241-2.28652a7.76323,7.76323,0,0,0-2.68086,4.113c-.69767,2.51766-1.30073,7.08012.41768,13.55487,0,0,3.96024-5.4789,6.89-7.41739C50.14072,332.94968,52.27205,327.9527,47.60214,327.17192Z" fill="#c4ce6e"/><path d="M47.60216,327.17183a6.63394,6.63394,0,0,0-1.50251,1.54566,15.12894,15.12894,0,0,0-1.18487,1.80151,34.459,34.459,0,0,0-1.90692,3.8794c-.58435,1.32226-1.0882,2.67993-1.5885,4.04223l-1.47278,4.11255c.12573-.72.29217-1.43066.43756-2.14819.16815-.71118.37732-1.41162.56445-2.11939.40668-1.406.92145-2.779,1.468-4.14135a27.32186,27.32186,0,0,1,2.0802-3.88746A8.81925,8.81925,0,0,1,47.60216,327.17183Z" fill="#8b9d36"/><path d="M53.18552,254.09747s.12905-5.48371-4.44661-3.861a7.62959,7.62959,0,0,0-3.78718,3.07789c-1.42021,2.17875-3.36442,6.33357-3.673,13.03393,0,0,5.41527-3.97855,8.78641-4.90872C53.867,260.39052,57.39653,256.29944,53.18552,254.09747Z" fill="#8b9d36"/><path d="M53.18553,254.09737a6.52172,6.52172,0,0,0-1.89526,1.00147,14.86223,14.86223,0,0,0-1.67,1.345,33.87411,33.87411,0,0,0-2.98089,3.0979c-.95313,1.07666-1.84033,2.21142-2.72516,3.3518l-2.6355,3.45484c.33557-.645.70715-1.2688,1.06073-1.90576.37317-.62378.78259-1.22461,1.1731-1.83936a43.38745,43.38745,0,0,1,2.64068-3.4834,26.91,26.91,0,0,1,3.14905-3.05322A8.67862,8.67862,0,0,1,53.18553,254.09737Z" fill="#5e7c24"/><path d="M87.72011,327.17192s1.52394-5.26049,5.39241-2.28652a7.76331,7.76331,0,0,1,2.68087,4.113c.69766,2.51766,1.30072,7.08012-.41769,13.55487,0,0-3.96024-5.4789-6.89-7.41739C85.18154,332.94968,83.0502,327.9527,87.72011,327.17192Z" fill="#8b9d36"/><path d="M87.72014,327.17183a8.82028,8.82028,0,0,1,3.10534,3.085,27.3205,27.3205,0,0,1,2.08014,3.88746c.54663,1.3623,1.06134,2.73535,1.468,4.14135.18713.70777.39636,1.40821.56445,2.11939.14539.71753.31183,1.42822.43763,2.14819l-1.47284-4.11255c-.50031-1.3623-1.00415-2.72-1.5885-4.04223a34.45906,34.45906,0,0,0-1.90693-3.8794,15.12034,15.12034,0,0,0-1.18487-1.80151A6.635,6.635,0,0,0,87.72014,327.17183Z" fill="#5e7c24"/><path d="M89.09546,271.56414s-19.26145-16.458-24.25291,79.69477" fill="none" stroke="#50661a" stroke-miterlimit="10" stroke-width="0.64428"/><path d="M70.81137,271.56414s-9.58227,63.41556-3.84058,79.69477" fill="none" stroke="#50661a" stroke-miterlimit="10" stroke-width="0.64428"/><path d="M63.31765,351.25891s-7.12112-28.57719-15.71551-24.087" fill="none" stroke="#50661a" stroke-miterlimit="10" stroke-width="0.64428"/><path d="M64.341,342.73685s6.20629-106.17218-11.15547-88.63938" fill="none" stroke="#50661a" stroke-miterlimit="10" stroke-width="0.64428"/><path d="M72.0046,351.25891s7.12112-28.57719,15.71551-24.087" fill="none" stroke="#50661a" stroke-miterlimit="10" stroke-width="0.64428"/><path d="M45.14638,313.61382s13.47982-3.30669,20.82919,36.98143" fill="none" stroke="#50661a" stroke-miterlimit="10" stroke-width="0.64428"/><path d="M49.58689,288.6506s3.90541,2.60556,18.683,61.94465" fill="none" stroke="#50661a" stroke-miterlimit="10" stroke-width="0.64428"/><path d="M86.49984,302.11345S71.90365,325.22,70.54728,351.25891" fill="none" stroke="#50661a" stroke-miterlimit="10" stroke-width="0.64428"/><path d="M47.6787,344.43863V349.785a1.85289,1.85289,0,0,0,1.83438,1.87085H86.26584a1.85289,1.85289,0,0,0,1.83439-1.87085v-4.927a1.85339,1.85339,0,0,0-1.81386-1.87074L49.5336,342.5679A1.85239,1.85239,0,0,0,47.6787,344.43863Z" fill="#d6694b"/><polygon points="49.433 351.656 50.74 379.25 84.174 379.25 86.346 351.656 49.433 351.656" fill="#e19974"/><path d="M80.48286,300.54085c.05109-2.51793,5.257,2.04963,5.257,2.04963-3.10073-13.91744-13.00821-8.11372-13.00821-8.11372-9.05924-10.228-14.94112-2.93426-14.94112-2.93426,4.08915-1.399,5.42271,1.2036,5.42271,1.2036a10.88793,10.88793,0,0,0-7.04971,1.40534c-4.76543,3.956-3.20229,13.41644-3.20229,13.41644,1.56937-2.23819,6.48153-3.31837,8.96953-3.48739,1.56314-.1042,1.2887.66368.86786,1.2492a3.1611,3.1611,0,0,1-1.06535.91084,62.50683,62.50683,0,0,0-7.17712,4.37885c-2.33506,1.83487,3.36832,10.67723,3.36832,10.67723,1.21207-1.80231,4.638-2.99956,4.638-2.99956,3.69385-.31881-3.611,5.08811-3.611,5.08811l4.22964,6.64961,4.49785-1.67221-.87409-2.67408c.17226-2.58956,1.57591.94992,2.23288,1.50939.657.56614,6.39866-4.58694,6.39866-4.58694s-3.33-12.68763-.7336-11.26926c2.603,1.41185,4.08292,7.16364,4.68912,7.4564.45293.22127,2.973-4.10563,4.22341-6.31126a6.89892,6.89892,0,0,0,.67628-5.25077A20.51124,20.51124,0,0,0,80.48286,300.54085Zm-14.5265-.104c-1.65877,1.37278-4.21063.61157-4.61871-.40983-.41493-1.01505.85478-3.03863,2.7559-4.3269,1.78-1.21028,3.8278-.30579,4.23618.71577C68.74435,297.43073,67.80017,298.90136,65.95636,300.4368Z" fill="#5e7c24"/><path d="M72.73015,294.47676a31.035,31.035,0,0,1,.64587,4.605,21.60321,21.60321,0,0,1-.414,4.654,35.92024,35.92024,0,0,1-1.2287,4.5c-.47851,1.47046-.974,2.94336-1.52808,4.39355a70.38828,70.38828,0,0,1-3.94909,8.41773,24.466,24.466,0,0,0-1.80359,4.22705,31.47416,31.47416,0,0,0-1.13489,4.48071,25.355,25.355,0,0,1,2.49658-8.93213,80.01328,80.01328,0,0,0,3.79084-8.42578c.56756-1.43091,1.07641-2.88281,1.57287-4.3457.50018-1.459.94959-2.927,1.30127-4.417a21.5308,21.5308,0,0,0,.58283-4.5481A37.11869,37.11869,0,0,0,72.73015,294.47676Z" fill="#50661a"/><path d="M73.16667,300.65987a11.73746,11.73746,0,0,1,2.42847,2.18286,20.69259,20.69259,0,0,1,1.93133,2.64185,23.95468,23.95468,0,0,1,1.51221,2.89575,21.64018,21.64018,0,0,1,1.08331,3.07324l-1.5346-2.85156c-.52253-.93775-1.04065-1.874-1.60895-2.7793q-.8377-1.366-1.77478-2.66748A25.07087,25.07087,0,0,0,73.16667,300.65987Z" fill="#50661a"/><path d="M68.6649,315.53121a7.11935,7.11935,0,0,1,1.57837,2.29394,6.13294,6.13294,0,0,1,.4154,1.35327,1.97047,1.97047,0,0,1-.19677,1.415,3.3,3.3,0,0,0-.28913-1.28588c-.16656-.40845-.338-.81617-.51941-1.22437A21.12158,21.12158,0,0,1,68.6649,315.53121Z" fill="#50661a"/><path d="M71.17564,308.978l-3.27,1.2373c-1.07977.42407-2.15472.854-3.20068,1.34106a28.56048,28.56048,0,0,0-3.06818,1.58033,13.94266,13.94266,0,0,0-2.75317,2.09008,9.12194,9.12194,0,0,1,2.47675-2.51,17.80934,17.80934,0,0,1,3.0783-1.74658A25.32074,25.32074,0,0,1,71.17564,308.978Z" fill="#50661a"/><path d="M103.58425,284.80838s7.46811-11.15592,16.8082,2.01815c0,0-7.31492-2.20688-6.24233.483a21.73694,21.73694,0,0,1,6.84,5.16732,8.22337,8.22337,0,0,1,1.65506,5.91114c-.28407,2.96476-.91553,8.82105-1.47089,8.81715-.74356-.00523-4.80815-5.35061-8.07638-5.53325s5.76035,11.56823,5.76035,11.56823-3.526,8.35757-4.44256,8.09567-3.92045-3.29854-2.93989-.472l2.07564,2.39252-3.815,4.03929-7.252-4.90476s5.00143-9.41695,1.39933-7.2123c0,0-2.94485,2.99695-3.37093,5.522,0,0-9.71929-6.48415-8.17222-9.61067a76.82,76.82,0,0,1,5.30666-8.2329,3.94127,3.94127,0,0,0,.74055-1.7861c.09694-.75349-.09437-1.438-1.47542-.63038-2.45521,1.43568-6.95046,5.06038-7.54646,8.22552,0,0-5.80315-9.22945-2.72638-15.82856a12.74925,12.74925,0,0,1,6.52392-5.05274s-2.51348-2.08265-6.0404,1.469C87.12308,289.25373,89.84173,278.55406,103.58425,284.80838Z" fill="#c4ce6e"/><path d="M103.58427,284.80831a80.80088,80.80088,0,0,1,3.23011,10.30761c.87609,3.49756,1.55413,7.04395,2.08514,10.61084a106.36094,106.36094,0,0,1,1.0014,10.76758,92.55844,92.55844,0,0,1-.16449,10.80127c-.02832-3.60034-.04644-7.19311-.33038-10.77417q-.34048-5.37378-1.14337-10.7019c-.47528-3.55762-1.15924-7.084-1.92853-10.59058C105.56041,291.7231,104.66789,288.24019,103.58427,284.80831Z" fill="#8b9d36"/><path d="M105.44829,290.74654a17.17889,17.17889,0,0,0-1.614,2.395,26.08988,26.08988,0,0,0-1.267,2.5686c-.37629.87842-.7038,1.77808-1.00708,2.69043-.30024.91407-.56873,1.84156-.85431,2.77979a15.34614,15.34614,0,0,1,.36963-2.91333,16.611,16.611,0,0,1,.89984-2.8103,14.613,14.613,0,0,1,1.43683-2.58472A8.8196,8.8196,0,0,1,105.44829,290.74654Z" fill="#8b9d36"/><path d="M108.55565,305.52266a7.38038,7.38038,0,0,1,4.75366,3.48169,6.0436,6.0436,0,0,1,.71741,1.87207,16.39859,16.39859,0,0,0-2.41346-3A18.264,18.264,0,0,0,108.55565,305.52266Z" fill="#8b9d36"/><path d="M476.50008,381.24978h-460a1,1,0,0,1,0-2h460a1,1,0,0,1,0,2Z" fill="#935b50"/></g></g></svg>