<svg xmlns="http://www.w3.org/2000/svg" viewBox="0 0 503.45257 430.82508"><title>Asset 14</title><g id="Layer_2" data-name="Layer 2"><g id="Layer_1-2" data-name="Layer 1"><path d="M332.40394,428.82531c16.25-5.08,30.83-10.27,48.37-20.12,18.09-10.16,98.45-58.51,108.9-142.19a159.61541,159.61541,0,0,0-6.66-68.16c-3.23-9.47-9.93-28.49-26.84-47.3-20.7-23.04-44.32-31.97-58.17-37.02-29.14-10.63-53.58-10.07-65.22-9.69-12.56.41-34.73,1.33-59.93,12.34-16.44,7.18-26.66,15.37-41.72,27.61-23.86,19.41-27,27.49-68.74,67.57-11.46,11-20.88,19.67-35.26,28.21-9.97,5.92-18.03,9.23-32.9,15.27-36.55,14.85-46.95658,17.85677-58.91658,26.21677-23.26,16.27-21.75342,34.01323-22.75342,37.83323a75.12694,75.12694,0,0,0-1.77,29.97c3.05,20.07,13.86,33.19,20.57,41.13a113.09822,113.09822,0,0,0,32.9,26.44,210.24676,210.24676,0,0,0,26.96,11.89Z" fill="#d5efc8"/><path d="M271.34109,110.02657c26.24642-11.46026,49.33564-12.42711,62.42676-12.85257,12.11573-.39376,37.57416-.975,67.935,10.09845,14.42589,5.26152,39.0266,14.5633,60.5907,38.5577,17.60788,19.59232,24.58686,39.40669,27.94924,49.26817a166.3156,166.3156,0,0,1,6.93628,70.99514C486.3,353.261,402.59214,403.61881,383.75,414.204" fill="none" stroke="#bbec6c" stroke-miterlimit="10"/><path d="M405.49239,424.0376l.01493-.00024-1.74965,4.78791h-17.132l-1.05518-4.44225.079-.00141A88.47666,88.47666,0,0,0,405.49239,424.0376Z" fill="#4f66d0"/><polygon points="385.571 262.109 210.415 262.916 37.678 262.109 38.612 419.971 211.325 419.971 211.325 419.971 384.617 419.971 385.571 262.109" fill="#d5daf3"/><path d="M197.8703,260.66385c-66.12776-9.99916-132.15741-4.121-154.33211-1.60292a11.19552,11.19552,0,0,0-9.66267,8.8088,167.0966,167.0966,0,0,0-3.38463,51.107c7.299.01578,14.31632.44479,19.04718,1.69416l.354,26.05165,147.33247.151a11.17864,11.17864,0,0,0,11.1723-10.80319c.90027-25.45994-.26619-51.68633-1.03789-65.0114A11.17543,11.17543,0,0,0,197.8703,260.66385Z" fill="#8795de"/><path d="M222.28629,260.56c67.60729-10.03983,135.353-4.01779,157.828-1.48543a11.197,11.197,0,0,1,9.65986,8.7686,164.13734,164.13734,0,0,1,3.45317,51.13353c-7.43425.01577-11.92731,2.50191-16.74585,3.75128l-3.01492,23.99453-150.27949.15118a11.1781,11.1781,0,0,1-11.171-10.77675c-.95785-25.43822.057-51.68468.74671-65.06507A11.17789,11.17789,0,0,1,222.28629,260.56Z" fill="#8795de"/><path d="M301.74117,277.38251a6.843,6.843,0,0,0-3.421-1.66461c-1.51136-.30195-2.92031,1.216-3.03108,3.1876l-3.1681,56.39006a9.28615,9.28615,0,0,1-2.28689,5.69095,21.44628,21.44628,0,0,0-2.21755,2.91414c-.7746,1.22016-.137,3.02214,1.06919,3.087,13.4798.72439,73.80312-.67675,84.95744-.0438.98683.056,1.22976-1.2821.83466-2.43208a5.99644,5.99644,0,0,0-1.57849-2.77947,5.46012,5.46012,0,0,1-1.65442-4.44923c.55954-10.71509,2.36683-36.75552,5.053-46.16208.84844-2.97115-1.39313-5.85-3.67657-4.65341a9.42777,9.42777,0,0,0-1.37179.89819,5.765,5.765,0,0,1-6.53372.47358c-8.74973-4.94124-31.97949-15.7767-58.02-9.14514A5.22368,5.22368,0,0,1,301.74117,277.38251Z" fill="#4f66d0"/><path d="M18.49494,424.03764l-.01459-.00024,1.71087,4.78791H36.94349l1.0318-4.44225-.07723-.00141A84.61186,84.61186,0,0,1,18.49494,424.03764Z" fill="#4f66d0"/><rect x="51.70028" y="346.88444" width="157.02292" height="23.43682" rx="6.77558" fill="#a2aee6"/><rect x="52.07702" y="371.88061" width="156.64618" height="48.09093" rx="5.70886" fill="#a2aee6"/><path d="M424.35352,331.92137a11.15388,11.15388,0,0,0-10.34466-12.18745,248.79459,248.79459,0,0,0-30.17346-.47713,11.14446,11.14446,0,0,0-10.39288,10.98277l-1.21211,89.57972a5.40575,5.40575,0,0,0,5.40525,5.47889h33.2599a5.40576,5.40576,0,0,0,5.38337-4.91437Z" fill="#a2aee6"/><rect x="210.95265" y="346.88444" width="160.47363" height="23.43682" rx="6.84963" transform="translate(582.37894 717.2057) rotate(-180)" fill="#a2aee6"/><rect x="210.95265" y="371.88066" width="158.65135" height="48.09088" rx="5.74528" transform="translate(580.55666 791.8522) rotate(-180)" fill="#a2aee6"/><path d="M111.96078,273.32764a42.59369,42.59369,0,0,0-5.63153,1.15838,30.68272,30.68272,0,0,0-5.29712,1.99558,20.42486,20.42486,0,0,0-4.62286,3.167l-.99737.9989c-.32435.342-.58783.7349-.89094,1.101l-.45513.554-.37427.60868c-.24378.411-.50134.81921-.76978,1.22888a13.50663,13.50663,0,0,1,2.8866-5.08371,16.756,16.756,0,0,1,4.74011-3.54108,22.41528,22.41528,0,0,1,5.58985-1.84784A21.13252,21.13252,0,0,1,111.96078,273.32764Z" fill="#4f66d0"/><path d="M106.20065,304.87a42.59053,42.59053,0,0,0-1.68756-5.49622,30.68656,30.68656,0,0,0-2.48926-5.08383,20.42409,20.42409,0,0,0-3.59143-4.30145l-1.08905-.89811c-.37121-.29043-.78735-.51544-1.1806-.78238l-.59473-.40054-.64148-.31479c-.43231-.20367-.86309-.42135-1.29638-.64972a13.507,13.507,0,0,1,5.33471,2.39112,16.75735,16.75735,0,0,1,3.97492,4.38272,22.4158,22.4158,0,0,1,2.36993,5.38925A21.13151,21.13151,0,0,1,106.20065,304.87Z" fill="#4f66d0"/><path d="M68.52658,276.99338a21.13291,21.13291,0,0,1,5.79242-.68173,22.41589,22.41589,0,0,1,5.82654.84368,16.75764,16.75764,0,0,1,5.28552,2.65921,13.50766,13.50766,0,0,1,3.72974,4.50177c-.33588-.3565-.66077-.71347-.97254-1.07562l-.47479-.534-.54486-.46607c-.36231-.30765-.69037-.6485-1.0694-.92859l-1.15649-.80948a20.42372,20.42372,0,0,0-5.10474-2.31137,30.67957,30.67957,0,0,0-5.56415-1.04028A42.59275,42.59275,0,0,0,68.52658,276.99338Z" fill="#4f66d0"/><path d="M79.7045,307.04593a21.13257,21.13257,0,0,1-.129-5.831,22.41394,22.41394,0,0,1,1.39282-5.72022,16.75527,16.75527,0,0,1,3.14881-5.00928,13.507,13.507,0,0,1,4.83532-3.28567c-.38672.30047-.77288.59-1.163.86606l-.57666.42193-.51569.49817c-.34063.33151-.71106.6257-1.02588.97647l-.91558,1.07447a20.42412,20.42412,0,0,0-2.78534,4.8623,30.67836,30.67836,0,0,0-1.5636,5.44034A42.58288,42.58288,0,0,0,79.7045,307.04593Z" fill="#4f66d0"/><path d="M174.67721,276.75681a42.59,42.59,0,0,0-4.76892,3.21154,30.67907,30.67907,0,0,0-4.14135,3.85886,20.424,20.424,0,0,0-3.07257,4.68616l-.543,1.303c-.17011.43957-.26453.9031-.4057,1.357l-.21045.68543-.11487.70523c-.06928.47284-.15247.94827-.24506,1.42923a13.50721,13.50721,0,0,1,.73816-5.79929,16.75763,16.75763,0,0,1,3.03888-5.07672,22.41528,22.41528,0,0,1,4.46832-3.83341A21.13162,21.13162,0,0,1,174.67721,276.75681Z" fill="#4f66d0"/><path d="M181.33566,308.12186a42.59655,42.59655,0,0,0-3.64966-4.4426,30.6808,30.6808,0,0,0-4.23443-3.7565,20.42451,20.42451,0,0,0-4.95654-2.614l-1.3487-.41687c-.45373-.1276-.92413-.17759-1.38934-.27506l-.70233-.14447-.713-.04742c-.47729-.02411-.95849-.06177-1.446-.10834a13.507,13.507,0,0,1,5.84314.18451,16.75688,16.75688,0,0,1,5.34222,2.5434,22.41734,22.41734,0,0,1,4.24018,4.08435A21.13387,21.13387,0,0,1,181.33566,308.12186Z" fill="#4f66d0"/><path d="M135.89432,296.65308a21.13363,21.13363,0,0,1,5.09881-2.83176,22.41546,22.41546,0,0,1,5.71009-1.43378,16.75667,16.75667,0,0,1,5.89953.45117,13.50762,13.50762,0,0,1,5.16065,2.74668c-.44611-.20212-.88227-.40885-1.30829-.62534l-.64209-.31354-.68115-.22406c-.452-.14685-.885-.33749-1.34205-.45254l-1.37731-.30927a20.4257,20.4257,0,0,0-5.60016-.19815,30.68488,30.68488,0,0,0-5.542,1.15223A42.595,42.595,0,0,0,135.89432,296.65308Z" fill="#4f66d0"/><path d="M157.654,320.2034a21.13391,21.13391,0,0,1-2.33514-5.34457,22.41607,22.41607,0,0,1-.88538-5.82038,16.7555,16.7555,0,0,1,1.009-5.83008,13.50757,13.50757,0,0,1,3.224-4.87667c-.24353.42492-.49072.83947-.74664,1.243l-.373.60943-.28772.65677c-.18908.43607-.41992.849-.57782,1.29309l-.4386,1.34174a20.4229,20.4229,0,0,0-.72869,5.55606,30.6841,30.6841,0,0,0,.62109,5.62637A42.594,42.594,0,0,0,157.654,320.2034Z" fill="#4f66d0"/><path d="M280.6702,275.68085a42.5901,42.5901,0,0,0-5.71851.596,30.68274,30.68274,0,0,0-5.46844,1.46218,20.42555,20.42555,0,0,0-4.91327,2.69452l-1.09125.89545c-.35657.30823-.65766.67316-.99536,1.00757l-.50769.50632-.43262.56872c-.2832.38492-.5799.76563-.88751,1.14676a13.50717,13.50717,0,0,1,3.375-4.77347,16.75525,16.75525,0,0,1,5.067-3.05514,22.41451,22.41451,0,0,1,5.74512-1.28623A21.13249,21.13249,0,0,1,280.6702,275.68085Z" fill="#4f66d0"/><path d="M271.82022,306.49936a42.60248,42.60248,0,0,0-1.136-5.63614,30.68463,30.68463,0,0,0-1.97454-5.305,20.42327,20.42327,0,0,0-3.14862-4.63538l-.99494-1.00137c-.3407-.32572-.73254-.59076-1.09747-.89527l-.55225-.45736-.60718-.37665c-.41009-.24542-.81726-.50461-1.22583-.77472a13.50749,13.50749,0,0,1,5.07221,2.90677,16.75664,16.75664,0,0,1,3.52222,4.75418,22.41474,22.41474,0,0,1,1.82562,5.59714A21.134,21.134,0,0,1,271.82022,306.49936Z" fill="#4f66d0"/><path d="M237.08627,275.0351a21.13278,21.13278,0,0,1,5.83142-.10581,22.41573,22.41573,0,0,1,5.71466,1.41553,16.75728,16.75728,0,0,1,4.99677,3.16867,13.5071,13.5071,0,0,1,3.26642,4.84839c-.29895-.388-.58692-.77527-.86139-1.16648l-.41968-.57833-.49615-.51764c-.33014-.34195-.62287-.7136-.97236-1.02979l-1.0708-.91983a20.42327,20.42327,0,0,0-4.85125-2.80466,30.68238,30.68238,0,0,0-5.434-1.5852A42.59408,42.59408,0,0,0,237.08627,275.0351Z" fill="#4f66d0"/><path d="M245.23874,306.04541a21.1324,21.1324,0,0,1,.44806-5.81519,22.41385,22.41385,0,0,1,1.95147-5.5545,16.75547,16.75547,0,0,1,3.62854-4.67349,13.50723,13.50723,0,0,1,5.13648-2.79163c-.41455.26081-.82745.51077-1.243.74686l-.61554.36288-.56238.44477c-.37176.2962-.76947.55233-1.11743.87027l-1.01727.97866a20.4258,20.4258,0,0,0-3.25238,4.56321,30.68083,30.68083,0,0,0-2.09369,5.25909A42.58425,42.58425,0,0,0,245.23874,306.04541Z" fill="#4f66d0"/><path d="M109.75457,287.39568a7.05885,7.05885,0,0,1,3.3755-1.24519,2.647,2.647,0,0,1,2.73921,2.8397l.00011,47.83857a7.285,7.285,0,0,0,1.88937,4.92138,18.24192,18.24192,0,0,1,1.9726,2.5698,1.64986,1.64986,0,0,1-1.19346,2.55978c-12.98576-.02782-71.10786-.00061-81.85517.00472-.95083.00047-1.112-1.14267-.67042-2.09643a5.063,5.063,0,0,1,1.666-2.27554,4.4052,4.4052,0,0,0,1.82906-3.684c.04075-9.08814-.02978-35.274-2.10214-43.35662-.65457-2.553,1.65368-4.881,3.78225-3.76063a9.10484,9.10484,0,0,1,1.26906.82475,6.14274,6.14274,0,0,0,6.24976.71092c8.67029-3.763,31.566-11.82271,56.21874-4.97732A5.5544,5.5544,0,0,0,109.75457,287.39568Z" fill="#4f66d0"/><path d="M13.33082,425.29822a5.40575,5.40575,0,0,1-5.38434-4.92517L.04821,331.88237a11.15485,11.15485,0,0,1,10.33388-12.16313,238.42283,238.42283,0,0,1,29.07464-.47648,11.13576,11.13576,0,0,1,10.37761,10.98415l1.18544,89.594a5.40575,5.40575,0,0,1-5.40527,5.47727Z" fill="#a2aee6"/><path d="M233.98245,295.06722a7.63817,7.63817,0,0,0-3.37551-1.09942,2.5018,2.5018,0,0,0-2.7392,2.50726l-.00011,42.23809a6.03216,6.03216,0,0,1-1.88937,4.34524,16.52908,16.52908,0,0,0-1.97261,2.269,1.44042,1.44042,0,0,0,1.19347,2.26011c12.98576-.02457,71.10785-.00055,81.85517.00416.95082.00041,1.11194-1.0089.67042-1.851a4.54787,4.54787,0,0,0-1.666-2.00914,3.76131,3.76131,0,0,1-1.82906-3.25275c-.04075-8.02419.02978-31.1445,2.10214-38.28085a2.777,2.777,0,0,0-3.78225-3.32037,9.32036,9.32036,0,0,0-1.26907.7282,6.82237,6.82237,0,0,1-6.24975.62769c-8.6703-3.32247-31.566-10.43862-56.21874-4.39462A6.15824,6.15824,0,0,1,233.98245,295.06722Z" fill="#6c7fd8"/><path d="M444.899,196.22114h-134.532V43.51464H444.899ZM315.1473,191.44155H440.11858V48.29424H315.1473Z" fill="#d6694b"/><rect x="313.84085" y="46.37681" width="128.69847" height="49.8136" fill="#d6694b"/><rect x="305.64944" y="196.26394" width="143.96713" height="7.15542" rx="1.2906" fill="#935b50"/><rect x="315.1473" y="94.3707" width="124.97127" height="5.72434" fill="#e19974"/><line x1="335.03261" y1="160.67648" x2="377.53049" y2="119.86789" fill="none" stroke="#e19974" stroke-miterlimit="10"/><line x1="335.03261" y1="136.14734" x2="370.66546" y2="103.15965" fill="none" stroke="#e19974" stroke-miterlimit="10"/><path d="M457.13049,49.9658,298.14464,50.305a2.16821,2.16821,0,0,1-2.17283-2.1682v-2.454a2.1682,2.1682,0,0,1,2.1682-2.16821H457.12587a2.16821,2.16821,0,0,1,2.1682,2.16821V47.7976A2.1682,2.1682,0,0,1,457.13049,49.9658Z" fill="#935b50"/><path d="M298.12454,58.49449,457.1104,59.62861a2.1682,2.1682,0,0,0,2.18367-2.16815V54.03621a2.16821,2.16821,0,0,0-2.1682-2.16821H298.14a2.1682,2.1682,0,0,0-2.1682,2.16821v2.29013A2.1682,2.1682,0,0,0,298.12454,58.49449Z" fill="#935b50"/><path d="M298.11817,67.2123,457.104,68.81412a2.1682,2.1682,0,0,0,2.19-2.1681V63.74593a2.1682,2.1682,0,0,0-2.15-2.16813l-158.98585-1.338a2.16821,2.16821,0,0,0-2.18645,2.16813V65.0442A2.1682,2.1682,0,0,0,298.11817,67.2123Z" fill="#935b50"/><path d="M298.17363,76.7973l158.98585-2.46514a2.16821,2.16821,0,0,0,2.13459-2.168v-.06492a2.1682,2.1682,0,0,0-2.15-2.16813l-158.98585-1.338a2.1682,2.1682,0,0,0-2.18645,2.16813v3.86811A2.1682,2.1682,0,0,0,298.17363,76.7973Z" fill="#935b50"/><path d="M298.16039,84.16728l158.98586-1.49467a2.16821,2.16821,0,0,0,2.14782-2.16811v-2.268a2.16821,2.16821,0,0,0-2.19853-2.168L298.10969,78.29215a2.1682,2.1682,0,0,0-2.13788,2.168v1.539A2.1682,2.1682,0,0,0,298.16039,84.16728Z" fill="#935b50"/><path d="M298.14,89.71518H457.12587a2.16821,2.16821,0,0,0,2.1682-2.16821v-.48734a2.16821,2.16821,0,0,0-2.17484-2.1682l-158.98586.48676a2.1682,2.1682,0,0,0-2.16156,2.1682V87.547A2.1682,2.1682,0,0,0,298.14,89.71518Z" fill="#935b50"/><path d="M452.81118,91.94754a.75.75,0,0,1-.74219-.64893l-.20606-1.47851a.75006.75006,0,1,1,1.48536-.21l.207,1.48632a.75031.75031,0,0,1-.64209.84424A.72189.72189,0,0,1,452.81118,91.94754Z" fill="#935b50"/><path d="M451.279,181.90994a.7501.7501,0,0,1-.75-.74805l-.001-.51709c0-.793.00634-1.6333.021-2.51562a.75011.75011,0,1,1,1.5.02539c-.01465.87353-.021,1.70508-.021,2.49023l.001.51319a.74988.74988,0,0,1-.748.75195Zm.102-6.03467-.0288-.00049a.7499.7499,0,0,1-.7212-.77783c.04-1.05566.08936-2.063.14746-3.02734a.74988.74988,0,1,1,1.49707.08984q-.08568,1.43043-.1455,2.99414A.74981.74981,0,0,1,451.381,175.87527Zm.36719-6.0166c-.02148,0-.04346-.001-.06543-.00293a.74928.74928,0,0,1-.68262-.81152c.09082-1.05713.19336-2.061.3042-3.02149a.75012.75012,0,0,1,1.49024.17285c-.10987.94581-.21045,1.93506-.3003,2.97754A.75007.75007,0,0,1,451.74819,169.85867Zm.69287-5.98828a.74966.74966,0,0,1-.74316-.8584c.15185-1.04.313-2.0332.48047-2.9956a.74985.74985,0,1,1,1.47754.25683c-.16455.94971-.32373,1.9292-.47364,2.95557A.75033.75033,0,0,1,452.44106,163.87039Zm1.02246-5.93994a.78521.78521,0,0,1-.14209-.01319.75077.75077,0,0,1-.5957-.87793l.57666-2.96a.75019.75019,0,0,1,1.47266.28711l-.57569,2.95508A.75055.75055,0,0,1,453.46352,157.93045Zm1.13868-5.91895a.75068.75068,0,0,1-.73877-.88379c.17334-.95507.3413-1.93359.501-2.9541a.75026.75026,0,0,1,1.48242.23242c-.16162,1.03223-.33252,2.02246-.50781,2.98926A.74977.74977,0,0,1,454.6022,152.0115Zm.92578-5.95605a.77814.77814,0,0,1-.09473-.00586.7501.7501,0,0,1-.65039-.83789c.11914-.94531.22949-1.93311.32861-2.97363a.75.75,0,0,1,1.49317.14257c-.10108,1.05616-.21241,2.0586-.3335,3.01856A.74981.74981,0,0,1,455.528,146.05545Zm.57129-6.00244c-.01563,0-.03174-.00049-.04786-.00147a.75009.75009,0,0,1-.70117-.7959c.06348-.99756.10791-1.98681.13526-2.98681a.71516.71516,0,0,1,.77-.729.74964.74964,0,0,1,.729.77c-.02734,1.01758-.07275,2.02539-.13721,3.04053A.75031.75031,0,0,1,456.09927,140.053Zm.166-6.03028a.7502.7502,0,0,1-.75-.7456c-.00586-.96973-.02588-1.96387-.05859-2.99658a.74973.74973,0,0,1,.72558-.77344.737.737,0,0,1,.77344.72558c.03369,1.04639.05371,2.05323.05957,3.03565a.74989.74989,0,0,1-.7456.75439Zm-.18408-6.03027a.75.75,0,0,1-.74854-.71191c-.04882-.95948-.105-1.95752-.16992-3.00342a.74977.74977,0,0,1,.70215-.79492.74143.74143,0,0,1,.79492.70214c.06494,1.05176.12207,2.05567.1709,3.02a.75011.75011,0,0,1-.71094.78711Zm-.36865-6.02246a.74974.74974,0,0,1-.74707-.69824q-.09962-1.43994-.21436-3.00586a.75.75,0,1,1,1.49609-.10938q.11427,1.57106.21436,3.01172a.74959.74959,0,0,1-.69629.79981C455.7477,121.96951,455.73012,121.97,455.71255,121.97Zm-.43653-6.01758a.75009.75009,0,0,1-.74707-.69385l-.22656-3.00683a.75022.75022,0,1,1,1.49609-.11426l.22657,3.00879a.75053.75053,0,0,1-.6919.8042C455.31411,115.95193,455.29507,115.95242,455.276,115.95242Zm-.46875-6.01465a.74985.74985,0,0,1-.74609-.68652q-.13036-1.53077-.26807-2.999a.74984.74984,0,1,1,1.49317-.13965q.13842,1.47363.269,3.01172a.74946.74946,0,0,1-.68359.81054Q454.83949,109.93778,454.80727,109.93777Zm-.56347-6.0083a.75013.75013,0,0,1-.74512-.67431q-.15673-1.53882-.31885-2.99415a.75016.75016,0,0,1,1.49121-.165q.16186,1.46118.31983,3.00781a.74984.74984,0,0,1-.67041.82178C454.29507,103.928,454.26919,103.92947,454.2438,103.92947Zm-.66407-5.999a.7504.7504,0,0,1-.74365-.66065q-.18676-1.552-.37109-2.98877a.75021.75021,0,0,1,1.48828-.19043q.18458,1.44068.37207,3.00049a.75012.75012,0,0,1-.65527.834A.70722.70722,0,0,1,453.57973,97.93045Z" fill="#935b50"/><path d="M451.36636,186.48562a.74992.74992,0,0,1-.749-.72412c-.01562-.45556-.03125-.95752-.04492-1.50244a.75073.75073,0,0,1,.73193-.76807.77857.77857,0,0,1,.76807.73194c.0127.53906.02832,1.03613.04395,1.48681a.74982.74982,0,0,1-.72364.7754Z" fill="#935b50"/><polygon points="422.672 191.442 408.535 191.442 403.772 166.407 427.435 166.407 422.672 191.442" fill="#e19974"/><polygon points="426.891 169.265 427.435 166.407 403.772 166.407 404.316 169.265 426.891 169.265" fill="#d6694b"/><rect x="407.55384" y="179.57391" width="4.22323" height="4.22323" transform="translate(248.4593 -236.46276) rotate(45)" fill="#d6694b"/><rect x="413.52639" y="179.57391" width="4.22323" height="4.22323" transform="translate(250.20862 -240.68599) rotate(45)" fill="#d6694b"/><rect x="419.43016" y="179.57391" width="4.22323" height="4.22323" transform="translate(251.93779 -244.86059) rotate(45)" fill="#d6694b"/><path d="M421.1104,145.33868s1.24136,17.53747-6.03439,21.25414C415.076,166.59282,412.55716,159.94376,421.1104,145.33868Z" fill="#558031"/><path d="M397.63292,152.872s11.90278,2.05372,17.44309,13.72081C415.076,166.59282,401.987,162.14726,397.63292,152.872Z" fill="#849f4c"/><path d="M401.85333,175.84376s6.05338-9.05609,13.22268-9.25094C415.076,166.59282,413.9967,173.88465,401.85333,175.84376Z" fill="#a6b862"/><path d="M409.32028,147.83844s8.39909,7.66867,5.75573,18.75438C415.076,166.59282,410.42322,161.66092,409.32028,147.83844Z" fill="#849f4c"/><path d="M415.076,166.59282s2.95091-10.802,17.86843-13.572C432.94444,153.02084,429.58734,162.85628,415.076,166.59282Z" fill="#a6b862"/><path d="M436.89613,163.76909s-11.38165-4.69218-21.82012,2.82373C415.076,166.59282,428.95284,168.25886,436.89613,163.76909Z" fill="#849f4c"/><path d="M436.79259,174.693s-5.49566-8.80277-21.71658-8.10017Z" fill="#558031"/><path d="M391.5022,165.168s14.94766-5.54254,23.76941,1.15985C415.27161,166.3278,406.89512,170.94167,391.5022,165.168Z" fill="#558031"/><path d="M403.75965,149.119s13.33786,9.43347,11.42452,17.48144C415.18417,166.60049,405.93078,159.18124,403.75965,149.119Z" fill="#558031"/><path d="M427.15667,175.98233s-10.99554-1.87718-12.08066-9.38951C415.076,166.59282,423.11014,166.99075,427.15667,175.98233Z" fill="#849f4c"/><path d="M96.60812,145.898a9.92989,9.92989,0,1,1-19.85977,0c0-5.48412,4.44576-13.07225,9.92988-13.07225S96.60812,140.41383,96.60812,145.898Z" fill="#ffba55"/><path d="M84.48349,124.09188h4.309a1,1,0,0,1,1,1v8.5947a0,0,0,0,1,0,0h-6.309a0,0,0,0,1,0,0v-8.5947A1,1,0,0,1,84.48349,124.09188Z" fill="#f65b2b"/><line x1="86.67823" y1="0.5" x2="86.67823" y2="109.33008" fill="none" stroke="#7ca1b1" stroke-miterlimit="10"/><polygon points="86.678 109.33 52.075 157.604 64.677 172.129 86.678 172.129 86.678 109.33" fill="none" stroke="#7ca1b1" stroke-miterlimit="10"/><polyline points="86.678 109.33 69.376 157.818 74.717 172.129" fill="none" stroke="#7ca1b1" stroke-miterlimit="10"/><line x1="52.07475" y1="157.60407" x2="86.67823" y2="157.60407" fill="none" stroke="#7ca1b1" stroke-miterlimit="10"/><polygon points="86.678 109.33 121.282 157.604 108.679 172.129 86.678 172.129 86.678 109.33" fill="none" stroke="#7ca1b1" stroke-miterlimit="10"/><polyline points="86.678 109.33 103.98 157.818 98.64 172.129" fill="none" stroke="#7ca1b1" stroke-miterlimit="10"/><line x1="121.28171" y1="157.60407" x2="86.67823" y2="157.60407" fill="none" stroke="#7ca1b1" stroke-miterlimit="10"/><line x1="79.24439" y1="0.5" x2="94.11208" y2="0.5" fill="none" stroke="#9857bd" stroke-miterlimit="10"/><path d="M218.38254,144.74776h-2.61112v-6.31235a12.37147,12.37147,0,0,0-12.3576-12.35728c-6.81979,0-8.25986-2.61113-.00637-2.61113a14.98714,14.98714,0,0,1,14.97509,14.96841Z" fill="#6c7fd8"/><path d="M217.14851,155.33231h-.08486V142.09389l.00076.00218h.08486a3.2651,3.2651,0,0,1,3.26391,3.26391v6.7106a3.2651,3.2651,0,0,1-3.26391,3.26391h-.08486" fill="#a2aee6"/><path d="M217.23914,155.33231h-.08486V142.09389l.00076.00218h-.08486a3.2651,3.2651,0,0,0-3.26391,3.26391v6.7106a3.2651,3.2651,0,0,0,3.26391,3.26391h.16972" fill="#6c7fd8"/><path d="M197.836,127.79527a18.307,18.307,0,0,1,8.551.733c1.28988.45735,6.00749,2.13,8.3069,6.59653.87333,1.6963,1.07067,3.7369,1.46583,7.8181a71.73809,71.73809,0,0,1,.24431,7.57379c-.00075,1.74555-.03679,4.24462-.24431,7.32948-.26369,3.91974-.40709,5.89395-.97722,6.59652-2.29767,2.83155-7.22466.21411-7.32943,3.909-.06468,2.2815,1.385,3.7256-.51929,5.772-2.36154,2.53762-11.33215,1.57728-14.62841-.15269-.44935-.23583-7.04163-3.78291-6.59651-7.81811.23785-2.15567,2.25542-2.37865,3.66484-5.61926a12.93971,12.93971,0,0,0,.73291-7.08516c-.63549-4.717-3.01244-5.29226-4.88636-10.99421a8.86916,8.86916,0,0,1,1.46586-8.55105A18.11648,18.11648,0,0,1,197.836,127.79527Z" fill="#f9977a"/><polygon points="180.242 404.988 179.062 416.768 199.519 426.763 168.105 426.763 168.105 404.988 180.242 404.988" fill="#f9977a"/><polygon points="213.956 404.988 212.776 416.768 233.232 426.763 201.819 426.763 201.819 404.988 213.956 404.988" fill="#f9977a"/><path d="M236.38573,427.83373v-.07187a2.97477,2.97477,0,0,0-1.636-2.65646l-21.23349-10.70121a.99158.99158,0,0,0-1.239.28985l-4.15043,5.52391a.99159.99159,0,0,1-1.30292.25464l-4.87147-2.92288a.99158.99158,0,0,0-1.50175.85027v9.43375a.99158.99158,0,0,0,.99159.99158h33.95185A.99158.99158,0,0,0,236.38573,427.83373Z" fill="#634b2e"/><path d="M202.67185,427.83373v-.07187a2.97475,2.97475,0,0,0-1.636-2.65646l-21.23348-10.70121a.99159.99159,0,0,0-1.239.28985L174.413,420.218a.99159.99159,0,0,1-1.30292.25464l-4.87147-2.92288a.99158.99158,0,0,0-1.50175.85027v9.43375a.99157.99157,0,0,0,.99158.99158h33.95186A.99158.99158,0,0,0,202.67185,427.83373Z" fill="#634b2e"/><path d="M225.93225,241.89074s2.12417,34.38876,2.12417,42.47392c0,0,5.22181,48.65828,5.17607,48.96217-1.90511,12.65664-1.9526,21.42581-4.17089,32.93735L220.692,409.69755a2.821,2.821,0,0,1-2.80742,2.54417h-16.304c-1.63862,0-5.48187-2.23867-5.363-3.873,0,0,1.97452-68.47414,2.21555-76.34521l-14.165-85.05483Z" fill="#c67a56"/><path d="M181.88764,411.03271h-13.837c-1.558,0-6.0725-.81578-6.0725-2.3738L159.947,359.28266c0-9.6147-.29017-20.31256,0-31.3388,0,0,13.05738-66.90993,12.422-80.97515l40.40651-2.98335-25.00217,162.081C187.54208,407.42162,183.26254,411.03271,181.88764,411.03271Z" fill="#c67a56"/><path d="M209.80746,167.1301l-3.48163,1.53087s-2.27262,11.50305-18.39737-5.35473L172.37,172.93243a22.36062,22.36062,0,0,0-8.15417,9.18208,112.65544,112.65544,0,0,0-10.60114,41.45254s-1.92864,12.70552,15.499,37.782c-2.05281,20.45032-13.3938,56.16109-12.93885,65.71715.08186,1.7221,79.36952,7.84084,79.36952,5.87614V280.26131C235.5444,272.17635,238.8949,192.05033,209.80746,167.1301Z" fill="#c4ce6e"/><path d="M259.90417,181.16766l10.58259-5.4602s6.42094-2.49,10.1162-4.30833a5.09989,5.09989,0,0,1,5.9868.9914c1.39229,1.50172,1.35027,3.14324-2.49,6.05626a48.93333,48.93333,0,0,1-11.63686,6.87686,2.90542,2.90542,0,0,0-1.43956,1.20275l-4.2923,3.49388Z" fill="#f9977a"/><path d="M266.73105,177.521a6.86834,6.86834,0,0,1,1.74035-1.18811,7.25605,7.25605,0,0,1,.97352-.39607,4.56461,4.56461,0,0,1,1.04187-.22937,10.26713,10.26713,0,0,1-1.78425,1.09633A8.77428,8.77428,0,0,1,266.73105,177.521Z" fill="#dd765e"/><path d="M275.60068,176.33192c1.456-.91737,2.94384-1.74385,4.411-2.60571,1.47442-.85289,2.931-1.7061,4.34033-2.6889a11.8301,11.8301,0,0,1-1.91858,1.72871,21.8018,21.8018,0,0,1-2.15863,1.41393c-.74573.42712-1.50372.83137-2.28571,1.18649A21.76423,21.76423,0,0,1,275.60068,176.33192Z" fill="#dd765e"/><path d="M277.19443,178.30943c1.662-.88345,3.32916-1.71432,4.94195-2.63736.81354-.44861,1.59845-.9409,2.36432-1.4577a9.64823,9.64823,0,0,0,2.089-1.82384,6.65907,6.65907,0,0,1-1.84515,2.14556,15.91025,15.91025,0,0,1-2.34931,1.59213,23.75481,23.75481,0,0,1-2.539,1.24286A20.9356,20.9356,0,0,1,277.19443,178.30943Z" fill="#dd765e"/><path d="M279.11783,179.79263l4.11358-2.23022c.68128-.37181,1.34314-.773,2.01392-1.16457.66437-.40237,1.308-.83392,1.96869-1.26748a14.02955,14.02955,0,0,1-3.72711,2.89015,20.21094,20.21094,0,0,1-2.12964,1.02327A15.254,15.254,0,0,1,279.11783,179.79263Z" fill="#dd765e"/><path d="M210.68313,167.90063s3.23353,1.44546,5.73956,2.7303c3.47377,1.781,8.8682,8.03948,15.18115,23.67087l4.19517,10.38762s12.5929-14.7,23.48747-24.023l10.75275,8.72515-24.88807,28.6679a17.58636,17.58636,0,0,1-6.23535,5.49179c-5.68244,2.90384-11.48492,1.94642-14.67033-3.9592-4.98275-9.23783-10.9066-23.30282-11.4733-27.2219Z" fill="#c4ce6e"/><path d="M235.75894,204.87537a11.10549,11.10549,0,0,1,1.33374,4.69371,7.36346,7.36346,0,0,1-.25445,2.476,4.366,4.366,0,0,1-1.29383,2.09365,6.37445,6.37445,0,0,0,.8042-2.20778,10.29923,10.29923,0,0,0,.10108-2.32889,20.15808,20.15808,0,0,0-.25837-2.35379C236.05905,206.464,235.925,205.67273,235.75894,204.87537Z" fill="#8b9d36"/><path d="M187.4286,253.634s1.14794,16.81014-18.76166,12.5544l.33859-4.99527,8.35133-8.715Z" fill="#8b9d36"/><path d="M179.93863,247.26569a41.609,41.609,0,0,1-3.13849-9.55227,78.14737,78.14737,0,0,1-1.48981-9.97245l-.002-.02443.00311-.02887.89545-8.18688.95239-8.18051,1.013-8.1737,1.09564-8.16446-.73669,8.20463-.81934,8.19541-.88,8.1886L175.895,227.753l.0011-.05292c.12207,1.65853.31128,3.32421.53235,4.979.21215,1.65746.46167,3.311.77166,4.95345A46.60355,46.60355,0,0,0,179.93863,247.26569Z" fill="#8b9d36"/><path d="M183.11075,197.66959a24.39562,24.39562,0,0,1-2.19147,3.59025,24.10749,24.10749,0,0,1-2.71381,3.2137,24.1084,24.1084,0,0,1,2.19147-3.59025A24.3954,24.3954,0,0,1,183.11075,197.66959Z" fill="#8b9d36"/><path d="M175.60318,227.72043a6.18834,6.18834,0,0,1-3.05542.96353,5.56675,5.56675,0,0,1-1.63007-.17261,3.486,3.486,0,0,1-1.42236-.79092,9.47167,9.47167,0,0,0,1.51678.29712,12.5502,12.5502,0,0,0,1.5058.02322C173.5289,227.994,174.53513,227.84218,175.60318,227.72043Z" fill="#8b9d36"/><path d="M202.86777,172.29765a173.9428,173.9428,0,0,1,5.85528,18.04477c1.644,6.11272,2.95587,12.31293,4.01514,18.55667a156.18464,156.18464,0,0,1,1.804,18.90409,101.21927,101.21927,0,0,1-1.36585,18.91325c.31787-3.14731.79474-6.27319.81525-9.43669.22424-3.15051.0924-6.30833.05523-9.46129a166.95178,166.95178,0,0,0-1.944-18.81729c-1.00274-6.23117-2.31964-12.40976-3.85711-18.53426q-1.1511-4.5942-2.50183-9.13722Q204.43622,176.77489,202.86777,172.29765Z" fill="#8b9d36"/><ellipse cx="215.89583" cy="146.94352" rx="0.95779" ry="1.19104" fill="#0a0709"/><ellipse cx="207.75197" cy="146.94352" rx="0.95779" ry="1.19104" fill="#0a0709"/><path d="M218.30576,144.20645a5.751,5.751,0,0,0-6.47437,0" fill="none" stroke="#cdd3d1" stroke-linecap="round" stroke-linejoin="round" stroke-width="1.20902"/><path d="M210.1619,144.20645a5.751,5.751,0,0,0-6.47437,0" fill="none" stroke="#cdd3d1" stroke-linecap="round" stroke-linejoin="round" stroke-width="1.20902"/><path d="M207.88162,347.67609c.41358,1.634.89429,3.23431,1.38056,4.82272a49.05269,49.05269,0,0,0,1.69451,4.66418,28.55817,28.55817,0,0,0,2.2569,4.37464,17.508,17.508,0,0,0,3.23383,3.74176,11.76363,11.76363,0,0,1-3.86975-3.28955,19.9489,19.9489,0,0,1-2.54163-4.438,27.629,27.629,0,0,1-1.525-4.85281A25.31912,25.31912,0,0,1,207.88162,347.67609Z" fill="#5d1115"/><path d="M207.88162,359.28265c1.28479,2.0673,2.52936,4.08387,3.92005,6.00284.67675.97232,1.42773,1.88248,2.18377,2.79444.76758.90637,1.60285,1.742,2.462,2.61584A14.9614,14.9614,0,0,1,210.991,365.87a21.73772,21.73772,0,0,1-1.86988-3.15073A15.927,15.927,0,0,1,207.88162,359.28265Z" fill="#5d1115"/><path d="M213.42758,145.46022a5.40418,5.40418,0,0,0,.52289,2.88489,12.0324,12.0324,0,0,0,1.50275,2.5487l.48352.57615a1.17356,1.17356,0,0,1,.31.80674,1.92093,1.92093,0,0,1-.81353,1.38768,3.46628,3.46628,0,0,1-2.98133.37783,3.72066,3.72066,0,0,0,2.78485-.61757,1.72422,1.72422,0,0,0,.64325-1.1519c.03131-.40493-.4259-.71315-.73919-1.12516a10.96714,10.96714,0,0,1-1.47266-2.67805A4.74263,4.74263,0,0,1,213.42758,145.46022Z" fill="#dd765e"/><path d="M194.10672,145.46022a3.64126,3.64126,0,0,0-.91748.45331,4.42347,4.42347,0,0,0-.76587.64012,14.38116,14.38116,0,0,0-1.31934,1.58092,3.8783,3.8783,0,0,1,.38526-1.00009,4.4338,4.4338,0,0,1,.65149-.86748A2.51439,2.51439,0,0,1,194.10672,145.46022Z" fill="#dd765e"/><path d="M193.32858,150.42694a7.34285,7.34285,0,0,0-.02435-2.21191,4.95013,4.95013,0,0,0-.2663-1.05666c-.1101-.35255-.28-.68176-.43255-1.04014A3.586,3.586,0,0,1,193.32858,150.42694Z" fill="#dd765e"/><path d="M209.28763,147.89813a3.3137,3.3137,0,0,1-2.0567,1.62277,5.10873,5.10873,0,0,1-1.32831.17576c-.22241-.00214-.44336-.033-.66229-.05021-.21723-.04811-.43323-.08937-.64368-.15242a10.67231,10.67231,0,0,0,2.51922-.35888A5.12982,5.12982,0,0,0,209.28763,147.89813Z" fill="#dd765e"/><path d="M216.40066,149.33685a2.27914,2.27914,0,0,1-1.29791-.3741,1.969,1.969,0,0,1-.834-1.06462c.37945.25981.69427.5127,1.0545.72785C215.6622,148.87231,216.032,149.05344,216.40066,149.33685Z" fill="#dd765e"/><path d="M169.00553,261.19308l3.9102,5.40585s11.15144,2.27287,13.926-9.80493l-6.344-8.75658" fill="#c4ce6e"/><path d="M169.00552,261.19308c1.3949,1.73572,2.77253,3.48395,4.11225,5.25956l-.1521-.09812a14.21223,14.21223,0,0,0,4.60565-.177,10.64331,10.64331,0,0,0,4.18487-1.80157,5.39594,5.39594,0,0,0,.88428-.71891,6.36509,6.36509,0,0,0,.80713-.80453l.7403-.87271.612-.97248.30554-.48761.23669-.52707.47223-1.05621c.26605-.72455.45789-1.47995.69232-2.21927l.05664.27848-3.07153-4.451c-1.01221-1.49211-2.0166-2.98987-2.994-4.50714,1.13721,1.40155,2.24744,2.82263,3.34986,4.24934l3.2724,4.30548.00756.00992a.30506.30506,0,0,1,.04914.26889c-.22907.77225-.41675,1.5589-.68317,2.3209l-.478,1.11865-.2417.55865-.31481.524a10.42363,10.42363,0,0,1-3.25885,3.61414,11.38049,11.38049,0,0,1-4.496,1.85333,13.49774,13.49774,0,0,1-4.83825-.01734.23833.23833,0,0,1-.15247-.09832C171.44656,264.91681,170.21744,263.06119,169.00552,261.19308Z" fill="#8b9d36"/><path d="M232.96994,225.13258l-1.05084-7.28195c-.36939-2.42207-.72937-4.8441-1.17462-7.25047-.40076-2.41426-.90375-4.8076-1.46729-7.1844l-.45306-1.77515-.53992-1.74878c-.17627-.58482-.41876-1.14369-.626-1.72-.22534-.56738-.53644-1.09335-.79547-1.65376a22.92946,22.92946,0,0,1,2.89343,6.77038c.66834,2.37143,1.16974,4.7834,1.62207,7.19983.39423,2.42685.76508,4.8566,1.03016,7.299C232.67093,220.22946,232.88394,222.67715,232.96994,225.13258Z" fill="#8b9d36"/><path d="M192.60536,152.02458s4.48877,28.963,25.1052,30.28046c0,0,1.9273-4.16231-2.52813-17.8624" fill="none" stroke="#6c7fd8" stroke-linecap="round" stroke-linejoin="round"/><path d="M186.5974,148.80644c.32583,3.09464.03056,4.95759,1.03835,6.71868.6514,1.14013,2.93768,2.18864,3.03545,1.12647a10.34088,10.34088,0,0,0-.012-3.7376,15.44979,15.44979,0,0,1-1.12984-3.86325c-.29525-2.12755.13222-5.31384,1.95445-6.10789a3.01552,3.01552,0,0,1,2.93167.48861c.89595.72279,1.08931,1.84255,1.22178,3.42047a44.41235,44.41235,0,0,1,0,6.5965,20.991,20.991,0,0,0,1.22152,8.30671c.7533,1.95451,1.94426,5.02884,4.88637,6.3522,1.79141.80425,3.43047.59045,6.10789.24431,2.64661-.34608,4.652-.60058,6.352-2.19882a8.627,8.627,0,0,0,2.4433-4.8863c.26469-1.62881-.18316-1.83236,0-4.8863.13247-2.14793.387-2.55515,0-3.1761-.37652-.61083-1.83242,1.16051-2.68736.97722-1.07912-.23411-1.63906-2.31078-2.68761-1.95451a11.97978,11.97978,0,0,0-3.42029,2.19888c-1.42532,1.11975-1.65944,1.56767-2.4433,1.71014a3.96863,3.96863,0,0,1-3.42053-1.46584c-1.11963-1.32336-1.00755-3.4204-.73267-7.57379.173-2.6773.44785-4.06174,0-6.3522-.40734-2.097-.98766-2.70786-1.22178-2.93179-1.11988-1.05874-2.12742-.48867-4.88612-1.22159a16.30167,16.30167,0,0,1-4.88661-2.19888c-1.98477-1.34368-2.16818-2.19881-3.176-2.19881-1.58811-.01019-3.0947,2.097-3.66458,3.90908-.83482,2.66711.16278,5.28333,1.22153,8.0624C185.81354,147.23877,186.41424,147.086,186.5974,148.80644Zm27.23027,10.31289a5.91741,5.91741,0,0,0-3.72892.47526.84433.84433,0,0,1-1.0336-1.25411c1.63021-2.27631,4.1637-1.74023,5.39565-1.29425a1.08912,1.08912,0,0,1,.72163,1.02568h0A1.08745,1.08745,0,0,1,213.82767,159.11933Z" fill="#cdd3d1"/><path d="M217.71056,182.305c1.86084,5.42188,4.96249,13.66288,4.17636,20.39775-.86035,7.37207-2.53735,21.74023,4.32007,31.67968,3.81494,5.5293,11.66821,11.71338,18.72,10.08008,9.00488-2.08545,13.86133-16.26074,13.32007-26.64014-.44458-8.52392-4.35572-11.15429-3.24-18,1.24658-7.64794,7.54736-13.07177,12.96-16.56" fill="none" stroke="#6c7fd8" stroke-linecap="round" stroke-linejoin="round"/><rect x="266.05222" y="172.89071" width="20.36363" height="10.29631" transform="translate(-52.40418 177.98126) rotate(-32.79262)" fill="#6c7fd8"/><rect x="268.17739" y="173.96524" width="16.1133" height="8.14725" transform="translate(-52.40418 177.98126) rotate(-32.79262)" fill="#a2aee6"/><path d="M260.68461,181.80093s-2.29068-2.16586,5.83987-4.861,14.81636-3.94959,9.66977-.79148l-3.36376,1.98821a5.42712,5.42712,0,0,1-1.26566.54487Z" fill="#f9977a"/><circle cx="283.67418" cy="172.89881" r="0.50828" fill="#4f66d0"/><circle cx="270.03923" cy="185.25881" r="0.50828" fill="#4f66d0"/><circle cx="268.60891" cy="182.95153" r="0.50828" fill="#4f66d0"/><circle cx="267.23934" cy="180.73153" r="0.50828" fill="#4f66d0"/><path d="M193.14057,150.79505c0,1.21723.23556,1.7475-.44473,1.7475s-1.05662-.98676-1.05662-2.204,1.5353-3.04277,2.073-2.626C195.84971,149.36934,193.14057,149.57782,193.14057,150.79505Z" fill="#6c7fd8"/><path d="M203.41382,126.07813a12.37268,12.37268,0,0,0-12.36333,12.35728v6.31235h-2.61113v-6.31235A14.98524,14.98524,0,0,1,203.40745,123.467C211.6673,123.467,210.22787,126.07813,203.41382,126.07813Z" fill="#6c7fd8"/><path d="M189.65334,155.33231h-.08486V142.09389l.00075.00218h.08487A3.2651,3.2651,0,0,1,192.918,145.36v6.7106a3.26511,3.26511,0,0,1-3.26391,3.26391h-.08487" fill="#a2aee6"/><path d="M189.744,155.33231h-.08486V142.09389l.00076.00218H189.575a3.2651,3.2651,0,0,0-3.26391,3.26391v6.7106a3.26511,3.26511,0,0,0,3.26391,3.26391h.16973" fill="#6c7fd8"/><path d="M418.45439,337.00589c2.41169,1.87395,6.66064,6.32428,6.77528,9.662,0,0,7.80885-8.49083,5.58874-15.75216a13.56165,13.56165,0,0,0-6.20117-6.24613s3.06212-1.7178,6.27749,2.49855c0,0-1.14821-11.39937-17.03351-7.26133,0,0-6.20116-12.64856-18.48824-.70276,0,0,8.268-1.054,6.66033,1.52258a24.03343,24.03343,0,0,0-8.249,4.16424,8.26519,8.26519,0,0,0-2.77521,5.77116c-.19127,3.08407-.48471,9.18707.11494,9.27174.80369.11707,6.08623-4.68464,9.64613-4.33326s-8.15339,10.89168-8.15339,10.89168,2.41169,9.13512,3.44527,9.01805c1.03327-.11707,4.78475-2.73269,3.25338,0l-2.641,2.10809,3.445,4.76279,8.65086-3.82589s-3.8278-10.46231-.30622-7.61255c0,0,2.67928,3.55267,2.71759,6.2072,0,0,11.579-5.036,10.43081-8.491a77.60576,77.60576,0,0,0-4.37636-9.3367,3.94821,3.94821,0,0,1-.47848-1.65268C416.7193,336.79113,416.94888,335.83469,418.45439,337.00589Zm-1.42265-12.128c1.08467-.74834,3.75148-.26686,4.753,2.17307,1.0719,2.6091,1.027,5.51748-.05732,6.26566-1.08466.74834-4.16609-.22763-4.938-2.75223C415.93461,327.7537,415.94738,325.62607,417.03174,324.87788Z" fill="#8b9d36"/><path d="M413.86111,319.90686a42.87605,42.87605,0,0,0-3.41748,4.44333,26.03675,26.03675,0,0,0-2.42187,5.01456c-.63111,1.74939-1.13922,3.54361-1.59522,5.35821-.462,1.81595-.90332,3.62988-1.27124,5.46185-.38983,1.82679-.73047,3.66562-1.0094,5.51181-.28723,1.84632-.45251,3.704-.67938,5.571a31.142,31.142,0,0,1-3.30139,10.74063,37.44081,37.44081,0,0,0,1.83374-5.29852,29.86632,29.86632,0,0,0,.97485-5.49463,87.06958,87.06958,0,0,1,1.55164-11.16175c.3894-1.84008.85352-3.66522,1.33472-5.47741a44.8924,44.8924,0,0,1,1.701-5.38788,26.10442,26.10442,0,0,1,2.62158-5.01236A37.1408,37.1408,0,0,1,413.86111,319.90686Z" fill="#5e7c24"/><path d="M409.35184,325.85822a26.6477,26.6477,0,0,0-3.71711,1.07034c-1.20806.43921-2.40216.91537-3.561,1.47232-2.35016,1.04944-4.57928,2.34-6.854,3.608.49664-.421,1.01507-.81464,1.52923-1.217.53827-.36542,1.0683-.747,1.61933-1.0964a33.56158,33.56158,0,0,1,3.43682-1.87937,28.11475,28.11475,0,0,1,3.68042-1.35779A14.54459,14.54459,0,0,1,409.35184,325.85822Z" fill="#5e7c24"/><path d="M404.11813,343.97122c-.88965.68982-1.81579,1.2544-2.72021,1.8436q-.67988.4362-1.32794.90115a3.64623,3.64623,0,0,0-1.099,1.14273,2.39946,2.39946,0,0,1,.76336-1.51706,7.73942,7.73942,0,0,1,1.31385-1.06744A9.47413,9.47413,0,0,1,404.11813,343.97122Z" fill="#5e7c24"/><path d="M405.89175,335.62891a30.58253,30.58253,0,0,1,2.92627,3.15622,37.06643,37.06643,0,0,1,2.51831,3.50277,24.75243,24.75243,0,0,1,1.96582,3.85477,11.73351,11.73351,0,0,1,.90345,4.21451,16.60817,16.60817,0,0,0-1.359-4.01941,30.616,30.616,0,0,0-2.05652-3.70972c-.72205-1.22088-1.54456-2.38107-2.36463-3.54422C407.60245,337.92191,406.75272,336.77628,405.89175,335.62891Z" fill="#5e7c24"/><path d="M395.29632,372.219l3.21535,2.96695s3.13879-3.3183,3.4833-1.015c0,0-.49762,2.3033-1.11006,2.49849,0,0,7.69387,6.18766,9.24412,1.09309a49.14361,49.14361,0,0,1,2.3541-6.67565s1.72251.93693.22967,8.31528c0,0,5.95437-1.74977,8.1655-4.95984a2.29619,2.29619,0,0,0,.38895-1.28081c.02131-1.83519.26318-7.00034,2.35477-5.0611,0,0,1.20575.58558.28708,4.509,0,0,4.84585-5.46308,2.54407-8.8208a3.35734,3.35734,0,0,0-4.11676-1.08625c-1.34571.58416-3.84262,1.66-8.47527,3.64131A92.45656,92.45656,0,0,1,395.29632,372.219Z" fill="#8b9d36"/><path d="M405.89175,376.74747a18.36352,18.36352,0,0,1,1.58277-4.86585,11.83338,11.83338,0,0,1,1.35962-2.20282,5.26249,5.26249,0,0,1,.93383-.9266,1.958,1.958,0,0,1,1.22315-.43714,3.51854,3.51854,0,0,0-1.74927,1.65784,22.39588,22.39588,0,0,0-1.18884,2.19147C407.31387,373.66724,406.65549,375.21555,405.89175,376.74747Z" fill="#5e7c24"/><path d="M416.34915,374.32706a15.27575,15.27575,0,0,1,.40772-4.4989,11.54439,11.54439,0,0,1,.7517-2.15833,3.387,3.387,0,0,1,1.52015-1.69711,4.61115,4.61115,0,0,0-1.056,1.89035c-.22449.69436-.41724,1.401-.59009,2.11682C417.03409,371.41333,416.74478,372.86572,416.34915,374.32706Z" fill="#5e7c24"/><path d="M469.8618,321.13968s-7.73215,1.10951-.84212,6.575c0,0,1.76079,1.48348,7.50249,3.20119C476.52217,330.91582,480.12029,315.26742,469.8618,321.13968Z" fill="#5e7c24"/><path d="M476.52212,330.91583c-.14306-.51248-.23693-1.02585-.36572-1.53024-.16113-.49643-.27734-1.00153-.45349-1.48544a14.39566,14.39566,0,0,0-1.29285-2.77277,10.907,10.907,0,0,0-1.94946-2.32657,9.24778,9.24778,0,0,0-2.59875-1.66113,6.54162,6.54162,0,0,1,2.91467,1.27,8.84824,8.84824,0,0,1,2.1803,2.37765,10.776,10.776,0,0,1,1.22632,2.97086c.14038.51526.19311,1.05.2821,1.57114C476.49124,329.86136,476.52347,330.38956,476.52212,330.91583Z" fill="#50661a"/><path d="M460.04885,289.52387s8.5723-5.46149,11.13985,6.66537c0,0-4.44872-3.82925-4.50765-1.61407a16.97932,16.97932,0,0,1,3.227,5.74969,6.29573,6.29573,0,0,1-.6201,4.64846c-1.08966,1.98313-3.29121,5.87839-3.67815,5.702-.51807-.23613-1.75194-5.24254-3.981-6.392s.54852,9.88543.54852,9.88543-4.97626,4.73833-5.53806,4.26875-1.74836-3.5309-1.91268-1.249l.73143,2.321-3.88025,1.63013-3.59385-5.695s6.32577-5.0174,3.14577-4.60284c0,0-2.95883,1.17373-4.01555,2.80514,0,0-4.84339-7.57015-2.82246-9.27145a57.35806,57.35806,0,0,1,6.1944-4.1011,2.90273,2.90273,0,0,0,1.054-1.02848c.285-.49106.34055-1.0144-.85242-.88344-2.14736.23573-6.37838,1.36346-7.74626,3.38909,0,0-1.28141-8.26435,2.85233-11.91423a9.54562,9.54562,0,0,1,6.078-1.49146s-1.13056-2.2413-4.66291-.86186C447.20873,287.484,452.32473,280.85651,460.04885,289.52387Z" fill="#5e7c24"/><path d="M463.89041,303.1004c-.69958-1.70523-1.35608-3.395-2.15393-5.00668a14.56813,14.56813,0,0,0-1.387-2.27509,3.53207,3.53207,0,0,0-2.1355-1.47525,3.11709,3.11709,0,0,1,2.51208,1.14222,9.916,9.916,0,0,1,1.58606,2.3197A16.584,16.584,0,0,1,463.89041,303.1004Z" fill="#50661a"/><path d="M446.28262,307.18018a12.88592,12.88592,0,0,1,1.63855-2.65027,12.30989,12.30989,0,0,1,2.22364-2.222,8.17612,8.17612,0,0,1,2.82214-1.44873,5.43618,5.43618,0,0,1,3.12475.10123,7.11442,7.11442,0,0,0-2.97473.37866,9.89148,9.89148,0,0,0-2.58093,1.48023A17.91665,17.91665,0,0,0,448.3,304.85757C447.606,305.6004,446.924,306.36615,446.28262,307.18018Z" fill="#50661a"/><path d="M454.321,290.62772a3.96853,3.96853,0,0,1,2.64673-1.55509,6.21949,6.21949,0,0,1,1.58472-.04233,8.87209,8.87209,0,0,1,1.55249.31949l.18847.05292-.0769.19437c-1.00146,2.52938-1.85229,5.12783-2.6925,7.72033-.82215,2.60077-1.56287,5.226-2.28809,7.85578q-1.04571,3.956-1.95789,7.94824c-.61169,2.661-1.14965,5.3382-1.70031,8.01825.33654-2.71387.74072-5.4227,1.27063-8.10828.48193-2.696,1.1361-5.35663,1.8-8.013.66967-2.65594,1.465-5.27893,2.32128-7.88052.851-2.60477,1.80433-5.17209,2.9115-7.687l.11145.247-.73156-.218c-.24891-.04709-.49634-.10928-.74671-.15042a5.96766,5.96766,0,0,0-1.51794-.04923A4.00749,4.00749,0,0,0,454.321,290.62772Z" fill="#50661a"/><path d="M456.97122,314.07114a14.20076,14.20076,0,0,0-1.027-2.70716,2.43717,2.43717,0,0,0-.87841-.94659,2.98441,2.98441,0,0,0-1.37171-.25543,2.02046,2.02046,0,0,1,1.56494-.20868,2.33582,2.33582,0,0,1,1.24158,1.08664A4.54655,4.54655,0,0,1,456.97122,314.07114Z" fill="#50661a"/><path d="M428.36848,376.74746s-1.52394-5.26049-5.3924-2.28652a7.7632,7.7632,0,0,0-2.68087,4.113c-.69767,2.51767-1.30072,7.08012.41768,13.55487,0,0,3.96025-5.47889,6.89-7.41738C430.90706,382.52521,433.0384,377.52823,428.36848,376.74746Z" fill="#c4ce6e"/><path d="M428.36844,376.74747A6.63159,6.63159,0,0,0,426.866,378.293a15.14266,15.14266,0,0,0-1.18494,1.80148,34.47551,34.47551,0,0,0-1.90686,3.87934c-.58435,1.32238-1.08813,2.68014-1.5885,4.04235l-1.47278,4.11261c.12573-.72.29224-1.43069.43762-2.14831.16809-.71109.37732-1.4115.56446-2.11923a43.92144,43.92144,0,0,1,1.468-4.14148,27.31556,27.31556,0,0,1,2.08008-3.8873A8.81792,8.81792,0,0,1,428.36844,376.74747Z" fill="#8b9d36"/><path d="M433.95186,303.673s.12906-5.48371-4.4466-3.861a7.62959,7.62959,0,0,0-3.78719,3.0779c-1.42021,2.17875-3.36442,6.33357-3.673,13.03393,0,0,5.41528-3.97855,8.78641-4.90872C434.63334,309.96606,438.16288,305.875,433.95186,303.673Z" fill="#8b9d36"/><path d="M433.95181,303.673a6.51815,6.51815,0,0,0-1.89514,1.00138,14.86393,14.86393,0,0,0-1.67,1.345,33.85614,33.85614,0,0,0-2.98084,3.09778c-.95312,1.07666-1.84033,2.21142-2.72522,3.35186l-2.6355,3.45478c.33558-.645.70716-1.2688,1.06079-1.90558.37317-.62378.7826-1.2247,1.173-1.83942a43.35057,43.35057,0,0,1,2.64075-3.4833,26.8976,26.8976,0,0,1,3.149-3.05329A8.67735,8.67735,0,0,1,433.95181,303.673Z" fill="#5e7c24"/><path d="M468.48645,376.74746s1.52394-5.26049,5.39241-2.28652a7.76332,7.76332,0,0,1,2.68087,4.113c.69766,2.51767,1.30072,7.08012-.41769,13.55487,0,0-3.96024-5.47889-6.89-7.41738C465.94788,382.52521,463.81654,377.52823,468.48645,376.74746Z" fill="#8b9d36"/><path d="M468.48648,376.74747a8.81792,8.81792,0,0,1,3.10535,3.085,27.3284,27.3284,0,0,1,2.0802,3.8873c.54651,1.36221,1.06128,2.73544,1.46789,4.14148.18726.70773.39636,1.40814.56446,2.11923.1455.71762.31189,1.42831.43762,2.14831l-1.47278-4.11261c-.50024-1.36221-1.00415-2.72-1.5885-4.04235a34.47551,34.47551,0,0,0-1.90686-3.87934,15.12789,15.12789,0,0,0-1.18494-1.80148A6.63179,6.63179,0,0,0,468.48648,376.74747Z" fill="#5e7c24"/><path d="M469.8618,321.13968s-19.26145-16.458-24.25291,79.69476" fill="none" stroke="#50661a" stroke-miterlimit="10" stroke-width="0.64428"/><path d="M451.57772,321.13968s-9.58228,63.41555-3.84058,79.69476" fill="none" stroke="#50661a" stroke-miterlimit="10" stroke-width="0.64428"/><path d="M444.084,400.83444s-7.12112-28.57719-15.71551-24.087" fill="none" stroke="#50661a" stroke-miterlimit="10" stroke-width="0.64428"/><path d="M445.10733,392.31239s6.2063-106.17218-11.15547-88.63938" fill="none" stroke="#50661a" stroke-miterlimit="10" stroke-width="0.64428"/><path d="M452.77094,400.83444s7.12113-28.57719,15.71551-24.087" fill="none" stroke="#50661a" stroke-miterlimit="10" stroke-width="0.64428"/><path d="M425.91273,363.18935s13.47981-3.30669,20.82918,36.98143" fill="none" stroke="#50661a" stroke-miterlimit="10" stroke-width="0.64428"/><path d="M430.35323,338.22614s3.90541,2.60555,18.683,61.94464" fill="none" stroke="#50661a" stroke-miterlimit="10" stroke-width="0.64428"/><path d="M467.26618,351.689S452.67,374.79551,451.31363,400.83444" fill="none" stroke="#50661a" stroke-miterlimit="10" stroke-width="0.64428"/><path d="M428.445,394.01417v5.34632a1.85289,1.85289,0,0,0,1.83439,1.87085h36.75276a1.85289,1.85289,0,0,0,1.83438-1.87085v-4.927a1.85338,1.85338,0,0,0-1.81386-1.87073L430.3,392.14343A1.8524,1.8524,0,0,0,428.445,394.01417Z" fill="#d6694b"/><polygon points="430.199 401.231 431.506 428.825 464.941 428.825 467.112 401.231 430.199 401.231" fill="#e19974"/><path d="M461.24921,350.11638c.05108-2.51792,5.257,2.04964,5.257,2.04964-3.10074-13.91745-13.00822-8.11372-13.00822-8.11372-9.05924-10.228-14.94111-2.93427-14.94111-2.93427,4.08915-1.399,5.42271,1.2036,5.42271,1.2036a10.888,10.888,0,0,0-7.04971,1.40535c-4.76544,3.956-3.2023,13.41643-3.2023,13.41643,1.56938-2.23819,6.48153-3.31837,8.96953-3.48738,1.56314-.10421,1.28871.66367.86786,1.24919a3.1611,3.1611,0,0,1-1.06535.91084,62.50825,62.50825,0,0,0-7.17712,4.37885c-2.33506,1.83487,3.36832,10.67724,3.36832,10.67724,1.21208-1.80231,4.638-2.99956,4.638-2.99956,3.69385-.31881-3.611,5.08811-3.611,5.08811l4.22964,6.6496,4.49785-1.67221-.87409-2.67407c.17226-2.58957,1.57591.94992,2.23288,1.50939.657.56614,6.39867-4.58694,6.39867-4.58694s-3.33-12.68764-.7336-11.26927c2.603,1.41186,4.08292,7.16364,4.68911,7.4564.45293.22128,2.973-4.10563,4.22341-6.31125a6.899,6.899,0,0,0,.67628-5.25078A20.51143,20.51143,0,0,0,461.24921,350.11638Zm-14.5265-.104c-1.65878,1.37277-4.21064.61157-4.61872-.40984-.41492-1.01505.85478-3.03863,2.75591-4.3269,1.78-1.21027,3.82779-.30579,4.23618.71578C449.51069,347.00627,448.56652,348.4769,446.72271,350.01234Z" fill="#5e7c24"/><path d="M453.49649,344.05228a31.04392,31.04392,0,0,1,.64587,4.60507,21.59668,21.59668,0,0,1-.41406,4.65387,35.91066,35.91066,0,0,1-1.22864,4.5c-.47851,1.47061-.974,2.94345-1.52807,4.39352a70.38057,70.38057,0,0,1-3.9491,8.41794,24.45987,24.45987,0,0,0-1.80359,4.22687,31.46627,31.46627,0,0,0-1.13489,4.4808,25.3552,25.3552,0,0,1,2.49659-8.93206,80.04058,80.04058,0,0,0,3.79077-8.42572c.56762-1.43113,1.07641-2.883,1.57287-4.34592.50025-1.459.94971-2.92691,1.30127-4.41693a21.51862,21.51862,0,0,0,.58289-4.548A37.121,37.121,0,0,0,453.49649,344.05228Z" fill="#50661a"/><path d="M453.933,350.23544a11.73031,11.73031,0,0,1,2.42847,2.18289,20.70243,20.70243,0,0,1,1.9314,2.64188,23.951,23.951,0,0,1,1.51208,2.8956,21.62809,21.62809,0,0,1,1.08338,3.0733l-1.53455-2.85159c-.52258-.93765-1.04077-1.87408-1.609-2.7793q-.83771-1.3661-1.77478-2.66751A25.07327,25.07327,0,0,0,453.933,350.23544Z" fill="#50661a"/><path d="M449.4313,365.10669a7.11918,7.11918,0,0,1,1.57825,2.294,6.1253,6.1253,0,0,1,.41541,1.35321,1.97,1.97,0,0,1-.19678,1.41516,3.29845,3.29845,0,0,0-.28906-1.2861c-.16651-.40839-.338-.81614-.51941-1.22416A21.1151,21.1151,0,0,1,449.4313,365.10669Z" fill="#50661a"/><path d="M451.94192,358.5535l-3.26989,1.23733c-1.07984.42395-2.15467.854-3.20069,1.34116a28.54559,28.54559,0,0,0-3.06811,1.5802,13.94448,13.94448,0,0,0-2.7533,2.09,9.126,9.126,0,0,1,2.47681-2.50992,17.81294,17.81294,0,0,1,3.07837-1.74652A25.31436,25.31436,0,0,1,451.94192,358.5535Z" fill="#50661a"/><path d="M484.3506,334.38391s7.4681-11.15591,16.80819,2.01816c0,0-7.31492-2.20689-6.24232.483a21.737,21.737,0,0,1,6.84,5.16732,8.22334,8.22334,0,0,1,1.65506,5.91113c-.28407,2.96477-.91553,8.82106-1.47089,8.81715-.74356-.00522-4.80815-5.35061-8.07637-5.53324s5.76035,11.56823,5.76035,11.56823-3.526,8.35757-4.44257,8.09566-3.92045-3.29854-2.93989-.472l2.07564,2.39252-3.815,4.03929-7.252-4.90476s5.00143-9.417,1.39934-7.2123c0,0-2.94486,2.997-3.37093,5.522,0,0-9.71929-6.48415-8.17223-9.61067a76.81967,76.81967,0,0,1,5.30667-8.23289,3.94153,3.94153,0,0,0,.74055-1.78611c.09694-.75348-.09438-1.438-1.47543-.63038-2.4552,1.43568-6.95046,5.06039-7.54646,8.22553,0,0-5.80315-9.22946-2.72638-15.82856a12.74924,12.74924,0,0,1,6.52393-5.05274s-2.51349-2.08266-6.04041,1.469C467.88942,338.82926,470.60808,328.1296,484.3506,334.38391Z" fill="#c4ce6e"/><path d="M484.35062,334.38391a80.7909,80.7909,0,0,1,3.2301,10.30765c.8761,3.49734,1.55408,7.04382,2.08508,10.61081a106.349,106.349,0,0,1,1.00147,10.76752,92.57387,92.57387,0,0,1-.16443,10.80126c-.02844-3.60031-.04651-7.19305-.33045-10.77429q-.3404-5.3734-1.14343-10.70187c-.47522-3.55753-1.15918-7.084-1.92847-10.59042C486.32669,341.29858,485.43423,337.81573,484.35062,334.38391Z" fill="#8b9d36"/><path d="M486.21463,340.3222a17.16373,17.16373,0,0,0-1.61389,2.395,26.054,26.054,0,0,0-1.267,2.56849c-.37634.87832-.70386,1.778-1.0072,2.69055-.30017.914-.56861,1.84137-.85425,2.77969a15.35476,15.35476,0,0,1,.36963-2.91345,16.62976,16.62976,0,0,1,.89978-2.81009,14.61745,14.61745,0,0,1,1.43689-2.58478A8.81374,8.81374,0,0,1,486.21463,340.3222Z" fill="#8b9d36"/><path d="M489.32193,355.09814a7.38029,7.38029,0,0,1,4.75378,3.48172,6.04464,6.04464,0,0,1,.71729,1.872,16.40492,16.40492,0,0,0-2.41333-2.99987A18.27456,18.27456,0,0,0,489.32193,355.09814Z" fill="#8b9d36"/><path d="M498.20257,430.82508h-488a1,1,0,1,1,0-2h488a1,1,0,0,1,0,2Z" fill="#935b50"/></g></g></svg>