<svg xmlns="http://www.w3.org/2000/svg" viewBox="0 0 471.49499 374.70196"><title>Asset 10</title><g id="Layer_2" data-name="Layer 2"><g id="Layer_1-2" data-name="Layer 1"><path d="M42.95666,268.44855c12.43217,59.68537,141.45228,155.14783,182.25593,74.79585,21.47812-42.29568,86.70691-104.22065,137.23447-141.34428,49.13091-36.09777-94.03072-93.17247-182.25559-74.79565S30.52449,208.76318,42.95666,268.44855Z" fill="#f9e0c0"/><path d="M26.5516,270.4736c-13.666-65.61035,54.02246-135.4043,150.88965-155.58106,35.25781-7.34179,83.03125-4.07519,127.80078,8.74219,42.75586,12.24121,74.09082,30.55078,81.77637,47.78418,4.28418,9.60644,1.07128,18.708-9.291,26.32226l-.53125-.72265c10.125-7.43848,13.1543-15.92871,9.00391-25.23535C378.619,154.7861,347.50375,136.667,304.995,124.49606c-44.63477-12.7793-92.252-16.041-127.37012-8.72656C81.24105,135.84567,13.86312,205.164,27.42855,270.29Z" fill="#f4c5a2"/><rect x="104.12642" y="54.36631" width="141.31846" height="107.25062" rx="6.42569" fill="#e5e1e5"/><rect x="104.12679" y="67.11227" width="141.31836" height="0.58398" fill="#a2aee6"/><path d="M112.11765,64.14505c3.38287,0,3.38847-5.25739,0-5.25739-3.38288,0-3.38848,5.25739,0,5.25739Z" fill="#ffba55"/><path d="M120.88,64.14505c3.38288,0,3.38848-5.25739,0-5.25739-3.38287,0-3.38848,5.25739,0,5.25739Z" fill="#f73c4f"/><path d="M129.0581,64.14505c3.38288,0,3.38848-5.25739,0-5.25739-3.38287,0-3.38848,5.25739,0,5.25739Z" fill="#4f66d0"/><rect x="112.11765" y="76.23703" width="124.07425" height="29.02076" fill="#a2aee6"/><rect x="112.118" y="115.22457" width="54.25586" height="0.58398" fill="#a2aee6"/><rect x="112.118" y="124.0566" width="54.25586" height="0.58398" fill="#a2aee6"/><rect x="112.118" y="132.88961" width="54.25586" height="0.58398" fill="#a2aee6"/><rect x="112.118" y="141.95504" width="54.25586" height="0.58398" fill="#a2aee6"/><rect x="112.118" y="150.78707" width="54.25586" height="0.58398" fill="#a2aee6"/><rect x="182.68548" y="112.82842" width="53.50641" height="36.16781" fill="#a2aee6"/><rect x="298.22566" width="173.26933" height="131.49905" rx="7.87848" fill="#e5e1e5"/><rect x="298.22543" y="15.62789" width="173.26953" height="0.7168" fill="#a2aee6"/><path d="M308.02363,11.98962c4.14771,0,4.15458-6.446,0-6.446-4.14771,0-4.15458,6.446,0,6.446Z" fill="#ffba55"/><path d="M318.767,11.98962c4.14771,0,4.15458-6.446,0-6.446-4.14772,0-4.15459,6.446,0,6.446Z" fill="#f73c4f"/><path d="M328.79418,11.98962c4.14771,0,4.15458-6.446,0-6.446-4.14772,0-4.15459,6.446,0,6.446Z" fill="#4f66d0"/><rect x="308.02328" y="74.61715" width="66.52344" height="0.7168" fill="#a2aee6"/><rect x="308.02328" y="85.44625" width="66.52344" height="0.7168" fill="#a2aee6"/><rect x="308.02328" y="96.27633" width="66.52344" height="0.7168" fill="#a2aee6"/><rect x="308.02328" y="107.39059" width="66.52344" height="0.7168" fill="#a2aee6"/><rect x="308.02328" y="118.22067" width="66.52344" height="0.7168" fill="#a2aee6"/><rect x="394.54624" y="71.67987" width="65.60374" height="44.34503" fill="#a2aee6"/><rect x="306.85424" y="28.84615" width="32.4106" height="32.4106" fill="#a2aee6"/><rect x="347.96969" y="28.84615" width="32.4106" height="32.4106" fill="#a2aee6"/><rect x="390.0662" y="28.84615" width="32.4106" height="32.4106" fill="#a2aee6"/><rect x="430.5299" y="28.84615" width="32.4106" height="32.4106" fill="#a2aee6"/><path d="M367.54928,161.51053V374.702h48.19823V161.51053a2.31278,2.31278,0,0,0-2.31278-2.31278H369.86205A2.31278,2.31278,0,0,0,367.54928,161.51053Z" fill="#935b50"/><rect x="370.209" y="197.98294" width="42.87879" height="31.84687" rx="2.31277" fill="#e19974"/><rect x="370.209" y="162.66691" width="42.87879" height="31.84687" rx="2.31277" fill="#e19974"/><path d="M410.3641,190.47189a1.42878,1.42878,0,1,1-2.01892,2.01892c.50866-.731.57116-1.00989.79419-1.22473C409.35629,191.04562,409.63741,190.98068,410.3641,190.47189Z" fill="#d6694b"/><path d="M408.34518,164.68984a1.42878,1.42878,0,1,1,2.01892,2.01893c-.73108-.50861-1.00989-.57123-1.22473-.79419C408.91891,165.69766,408.854,165.41647,408.34518,164.68984Z" fill="#d6694b"/><path d="M372.9327,166.70877a1.42879,1.42879,0,1,1,2.01892-2.01893c-.50866.731-.57116,1.01-.79419,1.22474C373.94051,166.135,373.65926,166.2,372.9327,166.70877Z" fill="#d6694b"/><path d="M374.95162,192.49081a1.42878,1.42878,0,1,1-2.01892-2.01892c.731.50866,1.00989.57129,1.22473.79419C374.37789,191.483,374.44283,191.76425,374.95162,192.49081Z" fill="#d6694b"/><path d="M410.3641,225.78793a1.42878,1.42878,0,1,1-2.01892,2.01892c.50866-.731.57116-1.00989.79419-1.22473C409.35629,226.36166,409.63741,226.29672,410.3641,225.78793Z" fill="#d6694b"/><path d="M408.34518,200.00582a1.42882,1.42882,0,1,1,2.01892,2.019c-.73108-.50867-1.00989-.57129-1.22473-.79432C408.91891,201.01364,408.854,200.73251,408.34518,200.00582Z" fill="#d6694b"/><path d="M372.9327,202.02487a1.42883,1.42883,0,1,1,2.01892-2.019c-.50866.73108-.57116,1.01-.79419,1.22473C373.94051,201.451,373.65926,201.51608,372.9327,202.02487Z" fill="#d6694b"/><path d="M374.95162,227.80685a1.42878,1.42878,0,1,1-2.01892-2.01892c.731.50866,1.00989.57129,1.22473.79419C374.37789,226.799,374.44283,227.08029,374.95162,227.80685Z" fill="#d6694b"/><rect x="370.209" y="268.61498" width="42.87879" height="31.84687" rx="2.31277" fill="#e19974"/><rect x="370.209" y="303.93101" width="42.87879" height="31.84687" rx="2.31277" fill="#e19974"/><rect x="385.05699" y="174.2539" width="13.1828" height="4.85682" rx="0.89601" fill="#d6694b"/><rect x="385.05699" y="280.20197" width="13.1828" height="4.85682" rx="0.89601" fill="#d6694b"/><rect x="385.05699" y="315.51799" width="13.1828" height="4.85682" rx="0.89601" fill="#d6694b"/><rect x="385.05699" y="209.56992" width="13.1828" height="4.85682" rx="0.89601" fill="#d6694b"/><path d="M410.3641,296.42a1.42878,1.42878,0,1,1-2.01892,2.01892c.50866-.73108.57116-1.01.79419-1.22473C409.35629,296.99374,409.63741,296.92867,410.3641,296.42Z" fill="#d6694b"/><path d="M408.34518,270.6379a1.42878,1.42878,0,1,1,2.01892,2.01892c-.73108-.50854-1.00989-.57116-1.22473-.79419C408.91891,271.64572,408.854,271.36459,408.34518,270.6379Z" fill="#d6694b"/><path d="M372.9327,272.65682a1.42878,1.42878,0,1,1,2.01892-2.01892c-.50866.73108-.57116,1.01-.79419,1.22473C373.94051,272.08309,373.65926,272.14816,372.9327,272.65682Z" fill="#d6694b"/><path d="M374.95162,298.43893A1.42878,1.42878,0,1,1,372.9327,296.42c.731.50854,1.00989.57116,1.22473.79419C374.37789,297.43112,374.44283,297.71224,374.95162,298.43893Z" fill="#d6694b"/><path d="M410.3641,331.73605a1.42878,1.42878,0,1,1-2.01892,2.01892c.50866-.73108.57116-1.01.79419-1.22473C409.35629,332.30978,409.63741,332.24471,410.3641,331.73605Z" fill="#d6694b"/><path d="M408.34518,305.95394a1.42878,1.42878,0,1,1,2.01892,2.01892c-.73108-.50866-1.00989-.57116-1.22473-.79419C408.91891,306.96176,408.854,306.68063,408.34518,305.95394Z" fill="#d6694b"/><path d="M372.9327,307.97286a1.42878,1.42878,0,1,1,2.01892-2.01892c-.50866.73108-.57116,1.00989-.79419,1.22473C373.94051,307.39913,373.65926,307.46408,372.9327,307.97286Z" fill="#d6694b"/><path d="M374.95162,333.755a1.42878,1.42878,0,1,1-2.01892-2.01892c.731.50854,1.00989.57116,1.22473.79419C374.37789,332.74716,374.44283,333.02828,374.95162,333.755Z" fill="#d6694b"/><path d="M381.53282,323.881s23.52674.47744,27.10093-3.498c0,0-7.70431,27.60312-1.88809,41.14605l-26.16717-2.7633S383.63857,337.38781,381.53282,323.881Z" fill="#7ca1b1"/><path d="M375.77206,327.26261s23.52674.47743,27.10092-3.498c0,0-7.7043,27.60312-1.88808,41.14605l-26.16717-2.7633S377.87781,340.76942,375.77206,327.26261Z" fill="#f65b2b"/><path d="M378.7149,329.86116s23.52674.47743,27.10093-3.498c0,0-7.70431,27.60312-1.88809,41.14605l-26.16717-2.7633S380.82065,343.368,378.7149,329.86116Z" fill="#fff"/><path d="M381.59528,219.587s23.52674.47744,27.10093-3.498c0,0-7.70431,27.60312-1.88809,41.14605l-26.16717-2.7633S383.701,233.09377,381.59528,219.587Z" fill="#ffba55"/><path d="M375.83452,222.96857s23.52674.47743,27.10092-3.498c0,0-7.7043,27.60312-1.88808,41.14605l-26.16717-2.7633S377.94027,236.47538,375.83452,222.96857Z" fill="#f65b2b"/><path d="M378.77736,225.56712s23.52674.47743,27.10093-3.498c0,0-7.70431,27.60312-1.88809,41.14605l-26.16717-2.7633S380.88311,239.07392,378.77736,225.56712Z" fill="#fff"/><rect x="370.209" y="339.24703" width="42.87879" height="31.84687" rx="2.31277" fill="#e19974"/><rect x="385.05699" y="350.83402" width="13.1828" height="4.85682" rx="0.89601" fill="#d6694b"/><path d="M410.3641,367.052a1.42882,1.42882,0,1,1-2.01892,2.019c.50866-.73108.57116-1.01.79419-1.22473C409.35629,367.62582,409.63741,367.56075,410.3641,367.052Z" fill="#d6694b"/><path d="M408.34518,341.27a1.42878,1.42878,0,1,1,2.01892,2.01892c-.73108-.50866-1.00989-.57116-1.22473-.79419C408.91891,342.2778,408.854,341.99655,408.34518,341.27Z" fill="#d6694b"/><path d="M372.9327,343.2889a1.42878,1.42878,0,1,1,2.01892-2.01892c-.50866.731-.57116,1.00989-.79419,1.22473C373.94051,342.71517,373.65926,342.78012,372.9327,343.2889Z" fill="#d6694b"/><path d="M374.95162,369.071a1.42882,1.42882,0,1,1-2.01892-2.019c.731.50866,1.00989.57128,1.22473.79431C374.37789,368.0632,374.44283,368.34432,374.95162,369.071Z" fill="#d6694b"/><rect x="370.209" y="233.29896" width="42.87879" height="31.84687" rx="2.31277" fill="#e19974"/><rect x="385.05699" y="244.88595" width="13.1828" height="4.85682" rx="0.89601" fill="#d6694b"/><path d="M410.3641,261.104a1.42878,1.42878,0,1,1-2.01892,2.01892c.50866-.73108.57116-1.00989.79419-1.22473C409.35629,261.6777,409.63741,261.61276,410.3641,261.104Z" fill="#d6694b"/><path d="M408.34518,235.32186a1.42878,1.42878,0,1,1,2.01892,2.01892c-.73108-.50854-1.00989-.57116-1.22473-.79419C408.91891,236.32968,408.854,236.04855,408.34518,235.32186Z" fill="#d6694b"/><path d="M372.9327,237.34078a1.42878,1.42878,0,1,1,2.01892-2.01892c-.50866.73108-.57116,1.01-.79419,1.22473C373.94051,236.76705,373.65926,236.83212,372.9327,237.34078Z" fill="#d6694b"/><path d="M374.95162,263.12289a1.42878,1.42878,0,1,1-2.01892-2.01892c.731.50866,1.00989.57116,1.22473.79419C374.37789,262.11508,374.44283,262.3962,374.95162,263.12289Z" fill="#d6694b"/><polygon points="228.798 350.7 228.798 365.468 244.291 366.838 244.922 355.307 228.798 350.7" fill="#f9977a"/><polygon points="283.556 350.7 283.556 365.468 300.871 365.468 299.03 355.121 283.556 350.7" fill="#f9977a"/><path d="M231.5017,197.5095s2.87785,2.16658,4.40046,9.96424,1.88973,14.0965-.41,8.98971l-1.68806-3.92056s-1.501,6.20891-2.07125,9.9861a4.7303,4.7303,0,0,1-3.92327,4.036c-1.88073.266-3.109-.63471-3.29587-5.10161-.27953-6.68086-.23686-10.218.17689-11.88782.14334-.57848,2.19932-6.7102,2.19932-6.7102Z" fill="#f9977a"/><path d="M234.41,208.72225a3.45656,3.45656,0,0,1,.24853,1.99463,3.23822,3.23822,0,0,1-.85449,1.82605,4.0778,4.0778,0,0,1-.1554-1.97961A3.85673,3.85673,0,0,1,234.41,208.72225Z" fill="#dd765e"/><path d="M230.62216,216.10812a30.0178,30.0178,0,0,1-.08265,4.76086c-.13549,1.57-.30359,3.09461-.515,4.7074a7.87028,7.87028,0,0,1-.51306-2.379,15.11675,15.11675,0,0,1,.01013-2.41162,17.81515,17.81515,0,0,1,.363-2.37366A11.60582,11.60582,0,0,1,230.62216,216.10812Z" fill="#dd765e"/><path d="M228.27242,216.27572c.002,1.77991-.19812,3.48206-.33972,5.18457-.09143.849-.14636,1.69483-.19568,2.53931a12.52862,12.52862,0,0,0,.07251,2.56531,5.29871,5.29871,0,0,1-.86938-2.53211,12.39765,12.39765,0,0,1-.02466-2.66516,16.92082,16.92082,0,0,1,.4552-2.60242A12.16063,12.16063,0,0,1,228.27242,216.27572Z" fill="#dd765e"/><path d="M226.12472,216.956a33.413,33.413,0,0,1-.21167,4.34009l-.23316,2.12622c-.08056.71191-.15759,1.422-.28784,2.16833a9.38221,9.38221,0,0,1-.49548-4.3949A11.28875,11.28875,0,0,1,226.12472,216.956Z" fill="#dd765e"/><path d="M247.19154,136.32612l-10.04386,24.88032c-1.08724,2.149-.81466,7.0688-.8654,9.47666l-.74054,35.14375-8.78442-1.2298-6.3454-28.78338a32.981,32.981,0,0,1,1.02886-17.85351l8.48161-24.59242Z" fill="#f9977a"/><path d="M260.16877,103.8209c-.51837-.69115,5.95285-2.61926,6.191-8.81023C266.71609,85.74555,262.788,72.747,262.788,72.747h27.97843a31.42941,31.42941,0,0,1,0,7.02437c-.39391,2.36345,3.03176,10.70765-3.63421,19.62109-.56907.761-1.69082.85948-2.63605.95651-1.51012.155-3.802,1.13842-2.30185,5.97214C282.19434,106.3211,269.45522,116.20284,260.16877,103.8209Z" fill="#f9977a"/><path d="M228.26145,134.41858l9.90176-17.77331a19.60018,19.60018,0,0,1,10.81152-9.01739l11.194-3.807a27.05436,27.05436,0,0,0,22.02557,2.5002s12.501,4.167,15.53695,7.73871,5.45423,26.03713,5.45423,26.03713l-15.696,2.06868,10.24177,48.32888s-40.89612,11.07231-51.25409-2.5002c0,0,2.143-30.71675-1.07152-43.57492C245.40568,144.41938,238.26225,144.77656,228.26145,134.41858Z" fill="#376f92"/><path d="M246.4772,187.9943s-6.78626,23.93048-4.8817,85.59906c0,0-13.81027,30.00542-14.52462,81.91433h18.3348l20.0016-77.149,5.47663-24.28765,5.95286,21.90651s-1.90492,52.147,6.07191,79.53017h17.97763l2.85737-87.86417-6.01239-77.149Z" fill="#f73c4f"/><path d="M288.98055,275.50131a3.89719,3.89719,0,0,1-2.59741,2.05969,9.50546,9.50546,0,0,1-3.3374.36865,14.0071,14.0071,0,0,1-6.209-1.95215c1.10718.0282,2.155.17823,3.20044.2937,1.04261.12549,2.07154.21668,3.09107.29871a18.48781,18.48781,0,0,0,3.02026-.04187A5.42247,5.42247,0,0,0,288.98055,275.50131Z" fill="#b02336"/><path d="M253.73971,273.72189a3.89772,3.89772,0,0,1-2.59754,2.05969,9.508,9.508,0,0,1-3.3374.36865,14.00653,14.00653,0,0,1-6.20886-1.95215c1.10706.02808,2.155.17823,3.20032.29358,1.04272.12561,2.07165.21668,3.09118.29883a18.473,18.473,0,0,0,3.02015-.042A5.42133,5.42133,0,0,0,253.73971,273.72189Z" fill="#b02336"/><path d="M257.78768,206.44821c.52307,4.12658,1.20215,8.217,1.92835,12.29126.75415,4.06958,1.60254,8.11608,2.6073,12.12194,1.00647,4.00611,2.21606,7.95142,3.56787,11.85254a97.02383,97.02383,0,0,0,4.99267,11.35706,58.95213,58.95213,0,0,1-5.98425-10.9729,93.50875,93.50875,0,0,1-3.89673-11.90357,115.50463,115.50463,0,0,1-2.33325-12.29028A93.40848,93.40848,0,0,1,257.78768,206.44821Z" fill="#b02336"/><path d="M253.73971,220.02072c1.37817,1.758,2.49292,3.57824,3.705,5.32385.59667.87634,1.18969,1.74951,1.843,2.5708a15.74243,15.74243,0,0,0,2.18384,2.34424,6.44455,6.44455,0,0,1-2.95447-1.61145,12.8636,12.8636,0,0,1-2.19909-2.53784,17.4143,17.4143,0,0,1-1.595-2.91419A13.44667,13.44667,0,0,1,253.73971,220.02072Z" fill="#b02336"/><path d="M265.40728,200.3326h20.71594S278.26545,244.62185,265.40728,200.3326Z" fill="#b02336"/><path d="M242.30045,219.45328c7.25553,4.4506,11.43919-19.11667,11.43919-19.11667h-9.5237C243.54886,205.15514,242.85078,211.46527,242.30045,219.45328Z" fill="#b02336"/><path d="M228.79822,374.702h35.38057a2.72542,2.72542,0,0,0,2.71165-2.99911s.39521-3.57257-.54619-3.94864l-21.619-8.63628s-8.98613,10.95548-15.927,1.82285C228.79822,360.94078,222.98408,371.29985,228.79822,374.702Z" fill="#d6694b"/><path d="M283.55575,374.702h35.38057a2.72542,2.72542,0,0,0,2.71165-2.99911s.39521-3.57257-.54619-3.94864l-21.619-8.63628s-8.98613,10.95548-15.927,1.82285C283.55575,360.94078,277.74161,371.29985,283.55575,374.702Z" fill="#d6694b"/><path d="M309.98012,204.03622s3.546.63406,8.42479,6.90456,8.04993,11.72522,3.69243,8.20664l-3.27616-2.73627s1.46361,6.21784,2.65995,9.84566a4.73031,4.73031,0,0,1-1.67874,5.37242c-1.55813,1.08634-3.06068.83715-5.244-3.06429-3.26544-5.83515-4.82419-9.01065-5.20881-10.68737-.13324-.58089-1.06679-6.98039-1.06679-6.98039Z" fill="#f9977a"/><path d="M317.63705,212.72848a3.45554,3.45554,0,0,1,1.12219,1.6676,3.23755,3.23755,0,0,1,.06189,2.015,4.07761,4.07761,0,0,1-1.03223-1.69617A3.85682,3.85682,0,0,1,317.63705,212.72848Z" fill="#dd765e"/><path d="M317.59152,221.02877a30.01286,30.01286,0,0,1,2.07544,4.28552c.58776,1.462,1.12609,2.89844,1.66564,4.43287a7.87169,7.87169,0,0,1-1.532-1.89112,15.12933,15.12933,0,0,1-1.07959-2.15649,17.81606,17.81606,0,0,1-.74756-2.282A11.60133,11.60133,0,0,1,317.59152,221.02877Z" fill="#dd765e"/><path d="M315.5704,222.23922c.8053,1.58728,1.39526,3.19641,2.03747,4.77942.30164.79895.6344,1.57849.97168,2.35425a12.53389,12.53389,0,0,0,1.22278,2.25635,5.29988,5.29988,0,0,1-1.91882-1.86707,12.39968,12.39968,0,0,1-1.22522-2.36694,16.9455,16.9455,0,0,1-.76868-2.52759A12.16693,12.16693,0,0,1,315.5704,222.23922Z" fill="#dd765e"/><path d="M313.96114,223.81576a33.414,33.414,0,0,1,1.77039,3.96826l.75183,2.00244c.24951.67163.50134,1.34.722,2.0647a9.38251,9.38251,0,0,1-2.42615-3.69788A11.29013,11.29013,0,0,1,313.96114,223.81576Z" fill="#dd765e"/><path d="M300.05291,140.4905v29.91538a16.08512,16.08512,0,0,0,1.58255,6.95749L316.84,209.05649l-8.39352,2.86829-18.656-22.81888a32.98114,32.98114,0,0,1-7.14172-16.39519l-4.02611-29.36284Z" fill="#f9977a"/><path d="M262.79427,97.14913s12.10906,3.784,18.18031-10.597c0,0-4.25971-3.24621-.3867-5.90148a3.53734,3.53734,0,0,1,3.11268-.51086,1.44482,1.44482,0,0,1,1.14283,1.52009l5.95742-8.57579s4.71818.65192,5.27293-5.22648c0,0,5.30213-2.31272-.35882-5.73966,0,0,1.25324-7.23774-6.12664-2.82947,0,0-3.02846-11.40087-16.67711,2.3327,0,0-19.042-.90454-12.37654,16.55554Z" fill="#1e1d22"/><path d="M247.19149,112.63113a10.22513,10.22513,0,0,0-1.40234,3.718,36.2105,36.2105,0,0,0-.61536,3.93836c-.25354,2.65247-.3042,5.32581-.30933,7.999.01709,2.67652.10535,5.35651.2201,8.04279.1145,2.68695.26318,5.37689.32116,8.09015-.31091-1.31977-.53466-2.65338-.80517-3.98328-.24548-1.3327-.40112-2.67834-.57605-4.0224a75.56369,75.56369,0,0,1-.522-8.12292,49.87909,49.87909,0,0,1,.62194-8.14881c.144-.67126.26282-1.34491.42762-2.00964.1997-.65942.34436-1.327.59961-1.96961a15.06051,15.06051,0,0,1,.82885-1.88519A5.61779,5.61779,0,0,1,247.19149,112.63113Z" fill="#10394f"/><path d="M280.12948,112.63113a10.223,10.223,0,0,0-1.40247,3.718,36.26914,36.26914,0,0,0-.61535,3.93836c-.25354,2.65247-.3042,5.32581-.30933,7.999.01721,2.67652.10547,5.35651.22022,8.04279.1145,2.68695.26306,5.37689.321,8.09015-.31091-1.31977-.53467-2.65338-.80517-3.98328-.24549-1.3327-.40113-2.67834-.57593-4.0224a75.50453,75.50453,0,0,1-.522-8.12292,49.86691,49.86691,0,0,1,.62195-8.14881c.14392-.67126.2627-1.34491.42749-2.00964.19983-.65942.34449-1.327.59961-1.96961a15.062,15.062,0,0,1,.82886-1.88519A5.61817,5.61817,0,0,1,280.12948,112.63113Z" fill="#10394f"/><path d="M250.73458,159.11465c.85791,2.48962,1.83252,4.91473,2.85779,7.303a59.74165,59.74165,0,0,0,3.51514,6.9151,32.99214,32.99214,0,0,0,2.13745,3.20361,25.12863,25.12863,0,0,0,2.4945,2.91187,17.64927,17.64927,0,0,0,6.41065,4.22473,14.10392,14.10392,0,0,1-7.13294-3.44434,25.2327,25.2327,0,0,1-5.07775-6.19543A39.38393,39.38393,0,0,1,252.606,166.804,38.59117,38.59117,0,0,1,250.73458,159.11465Z" fill="#10394f"/><path d="M274.78817,99.30938s3.56748,4.07567,7.02051,5.32277c-.47209-3.13015,1.11586-4.0221,2.39873-4.23852h0S276.99593,100.65845,274.78817,99.30938Z" fill="#dd765e"/><rect x="21.54319" y="242.23006" width="158.30667" height="126.42546" fill="#d6694b"/><rect x="10" y="238.38233" width="180.84338" height="3.84773" fill="#e19974"/><rect x="25.25351" y="246.07779" width="150.88604" height="29.6825" fill="#935b50"/><rect x="25.25351" y="275.76029" width="150.88604" height="29.6825" fill="#935b50"/><rect x="25.25351" y="305.44279" width="150.88604" height="29.6825" fill="#935b50"/><rect x="25.25351" y="335.12529" width="150.88604" height="29.6825" fill="#935b50"/><rect x="94.37525" y="348.04268" width="12.64255" height="3.84773" fill="#d6694b"/><rect x="94.37525" y="318.36018" width="12.64255" height="3.84773" fill="#d6694b"/><rect x="94.37525" y="288.67768" width="12.64255" height="3.84773" fill="#d6694b"/><rect x="94.37525" y="258.99518" width="12.64255" height="3.84773" fill="#d6694b"/><rect x="29.17758" y="368.65552" width="13.7419" height="6.04644" fill="#e19974"/><rect x="158.47358" y="368.65552" width="13.7419" height="6.04644" fill="#e19974"/><line x1="25.25351" y1="275.76029" x2="176.13955" y2="275.76029" fill="none" stroke="#e19974" stroke-miterlimit="10" stroke-width="0.76344"/><line x1="25.25351" y1="305.44279" x2="176.13955" y2="305.44279" fill="none" stroke="#e19974" stroke-miterlimit="10" stroke-width="0.76344"/><line x1="25.25351" y1="335.12529" x2="176.13955" y2="335.12529" fill="none" stroke="#e19974" stroke-miterlimit="10" stroke-width="0.76344"/><path d="M441.73173,374.702H.896a.896.896,0,0,1,0-1.792H441.73173a.896.896,0,0,1,0,1.792Z" fill="#935b50"/><path d="M128.7812,229.29053h51.30419a0,0,0,0,1,0,0v8.14531a0,0,0,0,1,0,0H128.7812a3.50483,3.50483,0,0,1-3.50483-3.50483v-1.13566A3.50483,3.50483,0,0,1,128.7812,229.29053Z" fill="#fff"/><path d="M181.68982,237.64433a.738.738,0,0,1-.738.738H127.70374c-2.03307,0-3.68681-2.233-3.68681-4.9782,0-2.74454,1.65374-4.97753,3.68681-4.97753h53.24809a.738.738,0,0,1,.738.738v.5809a.738.738,0,0,1-.738.738H127.70374c-1.19307,0-2.16349,1.31033-2.16349,2.92063,0,1.611.97042,2.9213,2.16349,2.9213h53.24809a.738.738,0,0,1,.738.738Z" fill="#f65b2b"/><path d="M120.77676,219.3348h51.30419a0,0,0,0,1,0,0v8.14531a0,0,0,0,1,0,0H120.77676a3.50483,3.50483,0,0,1-3.50483-3.50483v-1.13566A3.50483,3.50483,0,0,1,120.77676,219.3348Z" fill="#fff"/><path d="M173.68539,227.6886a.738.738,0,0,1-.738.738H119.69931c-2.03307,0-3.68681-2.233-3.68681-4.9782,0-2.74453,1.65374-4.97753,3.68681-4.97753h53.24808a.738.738,0,0,1,.738.738v.5809a.738.738,0,0,1-.738.738H119.69931c-1.19307,0-2.16349,1.31034-2.16349,2.92063,0,1.611.97042,2.92131,2.16349,2.92131h53.24808a.738.738,0,0,1,.738.738Z" fill="#ffba55"/><path d="M137.16151,209.37907H188.4657a0,0,0,0,1,0,0v8.14531a0,0,0,0,1,0,0H137.16151a3.50483,3.50483,0,0,1-3.50483-3.50483V212.8839A3.50483,3.50483,0,0,1,137.16151,209.37907Z" fill="#fff"/><path d="M190.07014,217.73288a.738.738,0,0,1-.738.738H136.08406c-2.03308,0-3.68681-2.233-3.68681-4.97819,0-2.74454,1.65373-4.97753,3.68681-4.97753h53.24808a.738.738,0,0,1,.738.738v.5809a.738.738,0,0,1-.738.738H136.08406c-1.19307,0-2.16349,1.31034-2.16349,2.92064,0,1.611.97042,2.9213,2.16349,2.9213h53.24808a.738.738,0,0,1,.738.738Z" fill="#f65b2b"/><line x1="81.4964" y1="235.0426" x2="74.42271" y2="235.0426" fill="none" stroke="#fff" stroke-miterlimit="10" stroke-width="0.85431"/><line x1="81.49639" y1="231.62536" x2="74.42271" y2="231.62536" fill="none" stroke="#fff" stroke-miterlimit="10" stroke-width="0.85431"/><line x1="81.49637" y1="200.87019" x2="74.42268" y2="200.8702" fill="none" stroke="#fff" stroke-miterlimit="10" stroke-width="0.85431"/><line x1="81.49637" y1="197.45295" x2="74.42268" y2="197.45296" fill="none" stroke="#fff" stroke-miterlimit="10" stroke-width="0.85431"/><polygon points="168.024 208.448 157.696 208.448 154.217 190.16 171.503 190.16 168.024 208.448" fill="#e19974"/><polygon points="171.106 192.248 171.503 190.16 154.217 190.16 154.614 192.248 171.106 192.248" fill="#d6694b"/><rect x="156.9792" y="199.77865" width="3.08525" height="3.08525" transform="translate(188.7856 -53.12622) rotate(45)" fill="#d6694b"/><rect x="161.34241" y="199.77865" width="3.08525" height="3.08525" transform="translate(190.06356 -56.21148) rotate(45)" fill="#d6694b"/><rect x="165.65537" y="199.77865" width="3.08525" height="3.08525" transform="translate(191.32679 -59.2612) rotate(45)" fill="#d6694b"/><path d="M166.88285,174.76832s.90687,12.81189-4.40838,15.52708C162.47447,190.2954,160.63434,185.438,166.88285,174.76832Z" fill="#558031"/><path d="M149.73154,180.27175a18.74359,18.74359,0,0,1,12.74293,10.02365S152.91239,187.04772,149.73154,180.27175Z" fill="#849f4c"/><path d="M152.81473,197.05361s4.42226-6.61587,9.65974-6.75821C162.47447,190.2954,161.686,195.62239,152.81473,197.05361Z" fill="#a6b862"/><path d="M158.26966,176.59451s6.1359,5.60229,4.20481,13.70089C162.47447,190.2954,159.07541,186.69243,158.26966,176.59451Z" fill="#849f4c"/><path d="M162.47447,190.2954s2.15577-7.89137,13.05367-9.91493C175.52814,180.38047,173.07563,187.56569,162.47447,190.2954Z" fill="#a6b862"/><path d="M178.415,188.23254s-8.31479-3.42784-15.94055,2.06286C162.47447,190.2954,172.6121,191.51251,178.415,188.23254Z" fill="#849f4c"/><path d="M178.33938,196.21292s-4.01482-6.4308-15.86491-5.91752Z" fill="#558031"/><path d="M145.25278,189.25447s10.91992-4.04907,17.36459.84732C162.61737,190.10179,156.498,193.47242,145.25278,189.25447Z" fill="#558031"/><path d="M154.20738,177.53s9.74388,6.89157,8.34611,12.771C162.55349,190.301,155.79349,184.88091,154.20738,177.53Z" fill="#558031"/><path d="M171.29992,197.15484s-8.03272-1.37136-8.82545-6.85944C162.47447,190.2954,168.34375,190.5861,171.29992,197.15484Z" fill="#849f4c"/><path d="M16.1114,207.72419s13.25147,9.7674,17.58578,8.64822" fill="none" stroke="#8b9d36" stroke-linecap="round" stroke-linejoin="round" stroke-width="1.68783"/><line x1="30.85355" y1="189.15282" x2="32.8908" y2="217.08461" fill="none" stroke="#8b9d36" stroke-linecap="round" stroke-linejoin="round" stroke-width="1.68783"/><path d="M41.45863,217.82672s2.19621-12.3919,13.69785-17.75882" fill="none" stroke="#8b9d36" stroke-linecap="round" stroke-linejoin="round" stroke-width="1.68783"/><path d="M40.45058,214.948c-.68617-1.34384-4.37361-1.3457-6.72827.30532a6.44807,6.44807,0,0,0-2.26791,2.976c-.40092,1.03271-1.0426,2.68518-.15114,3.81539a3.3454,3.3454,0,0,0,3.70425.68661,18.05556,18.05556,0,0,0,3.17516-3.12857C39.54867,217.87328,41.00367,216.03121,40.45058,214.948Z" fill="#5e7c24"/><path d="M43.32347,214.79543c-.257.67481.25285,1.44836,1.20952,2.89963a13.93165,13.93165,0,0,0,3.3263,3.51027,3.96853,3.96853,0,0,0,4.68718.53406,3.79666,3.79666,0,0,0,1.73861-3.20495c-.01558-1.977-1.70478-3.2004-2.34338-3.66284C48.849,212.63168,43.94484,213.16428,43.32347,214.79543Z" fill="#5e7c24"/><path d="M52.39512,202.12838c.22538-.38419.80943-.189,2.11678-.3817a24.34865,24.34865,0,0,0,3.25083-.99194,12.51023,12.51023,0,0,1,2.79721-.68682c.3962.00186,2.63561.012,3.40177,1.5262.80266,1.58623-.68331,3.49558-.7559,3.58645-1.43655,1.79488-3.89087,1.70732-4.68718,1.67875a7.23632,7.23632,0,0,1-5.06512-2.44175C53.27427,204.217,52.00364,202.79533,52.39512,202.12838Z" fill="#5e7c24"/><path d="M31.75688,194.72633c-.79794-.40178-.331-2.95448-.07567-4.34944a25.89029,25.89029,0,0,1,1.43634-4.34966c1.32293-3.48543,1.6248-3.86093,2.11677-4.04412a3.16375,3.16375,0,0,1,3.47765,1.60237c.87464,1.69242-.46614,3.832-1.89,6.10459C35.45457,191.87245,32.79476,195.2488,31.75688,194.72633Z" fill="#5e7c24"/><path d="M31.4544,201.44156c.58692-.95509-.493-2.82283-1.58748-3.81539a7.04336,7.04336,0,0,0-3.47765-1.44981c-1.81818-.43822-3.8195-.92053-4.38469-.07639-.53893.80481.51536,2.38586.75611,2.74708a6.68308,6.68308,0,0,0,3.09949,2.36557C27.47555,201.88123,30.69706,202.67382,31.4544,201.44156Z" fill="#c4ce6e"/><path d="M31.53007,208.8434c.02153-.75989-1.077-.91741-3.3263-2.74707-1.78558-1.45251-1.83644-1.95758-2.87288-2.28919-1.58666-.50756-3.65791-.02422-4.00674.99193-.08531.24881-.07321.54586,1.2852,2.74707,1.05674,1.71229,1.59568,2.57506,2.11677,2.89964a4.96663,4.96663,0,0,0,3.77993.38149C29.45492,210.60268,31.501,209.87322,31.53007,208.8434Z" fill="#5e7c24"/><path d="M32.35677,200.06076c-.74093-.83895.00461-2.86636.91363-4.03415a7.071,7.071,0,0,1,3.17875-2.032c1.71641-.74737,3.6057-1.57,4.30631-.83654.66806.69924-.10109,2.43978-.2767,2.83741a6.71428,6.71428,0,0,1-2.65017,2.86847C36.35124,199.803,33.31282,201.14316,32.35677,200.06076Z" fill="#5e7c24"/><path d="M32.905,207.94636c-.1507-.74483.90466-1.09075,2.80859-3.28366,1.51144-1.74088,1.47547-2.24726,2.44-2.75388,1.47651-.77548,3.59925-.659,4.11605.28148.12644.23029.16514.525-.79791,2.92927-.7492,1.87025-1.13307,2.81373-1.59109,3.22394a4.9739,4.9739,0,0,1-3.65857,1.0321C35.249,209.31911,33.10919,208.95577,32.905,207.94636Z" fill="#5e7c24"/><path d="M20.79506,211.89559c-.106-.828-1.46956-1.285-3.09949-1.83131-1.47264-.49349-2.64176-.88554-4.00674-.45788-.24137.07555-2.38849.74809-2.5704,2.36557-.16323,1.45085,1.38466,2.51006,1.512,2.59452a4.57317,4.57317,0,0,0,3.55311.3815C18.30936,214.539,20.95112,213.11357,20.79506,211.89559Z" fill="#5e7c24"/><path d="M26.91857,215.711c-1.13837-.81226-3.28693.56552-4.30922,1.22108a9.03731,9.03731,0,0,0-2.64587,2.59431c-.78748,1.18175-1.53682,2.30658-1.13406,3.28134.57913,1.40117,3.07919,1.38026,3.402,1.37343a5.43712,5.43712,0,0,0,3.70425-1.67876,5.78358,5.78358,0,0,0,1.43654-2.89963C27.5098,218.96789,28.042,216.51268,26.91857,215.711Z" fill="#c4ce6e"/><path d="M17.84671,207.92764c-.64045-.93128-.4161-1.5914-.68044-3.20495-.42019-2.56512-1.31411-2.89363-.98271-4.19689.26085-1.02567,1.14472-2.12049,2.11677-2.13663,1.36149-.02277,2.23736,2.08157,2.41906,2.51813.66074,1.58726.41712,2.971,0,5.34159-.27234,1.54752-.48008,2.65537-1.13386,2.82345C18.95349,209.23484,18.20108,208.44286,17.84671,207.92764Z" fill="#8b9d36"/><path d="M46.80091,207.6987c.202-.57152,1.27269-.65805,2.5704-.763,1.62131-.131,2.83658-.22936,4.00673.53405.18006.11737,2.07453,1.389,1.73862,2.89984-.26249,1.18051-1.72939,1.79985-2.797,1.83131-1.15847.03416-1.94616-.62078-3.402-1.83131C47.7707,209.416,46.55215,208.4025,46.80091,207.6987Z" fill="#8b9d36"/><path d="M48.69087,203.34926c-.291-.06624-.309-.47155-.68044-1.60258-.82993-2.52683-1.4796-2.75639-1.36066-3.81539.13166-1.17161,1.09858-2.41919,1.96543-2.36558.945.05837,1.51016,1.64667,1.73882,2.2894a4.9504,4.9504,0,0,1,.30248,2.36558C50.44446,201.86115,49.32188,203.49312,48.69087,203.34926Z" fill="#5e7c24"/><path d="M29.94239,192.361c-.44112.62555-2.94569-.11529-4.6115-1.60258-.42533-.37963-2.3077-2.06046-1.81429-3.66283a1.88772,1.88772,0,0,1,1.512-1.37343c.70627-.01739,1.16543.70007,2.34358,2.44175C29.79473,191.74577,30.13577,192.08669,29.94239,192.361Z" fill="#8b9d36"/><path d="M43.70142,209.2249c-1.26859.34527-2.92846-2.3339-3.3263-2.976a9.84444,9.84444,0,0,1-1.512-5.49415c.05434-1.21342.15339-3.42582,1.43634-3.968,1.22921-.51936,2.892.77045,3.70425,1.75493,1.60286,1.94227,1.34795,4.455,1.13406,6.56247C44.97124,206.7461,44.74853,208.93986,43.70142,209.2249Z" fill="#c4ce6e"/><path d="M43.88532,238.38233H31.42l-4.01024-21.27555a.84563.84563,0,0,1,.82519-1.00633H47.07037a.84562.84562,0,0,1,.82518,1.00633Z" fill="#935b50"/><path d="M47.60583,218.64405l.28977-1.53725a.84562.84562,0,0,0-.82518-1.00634H28.23491a.84562.84562,0,0,0-.82518,1.00634l.28977,1.53725Z" fill="#d6694b"/><polygon points="32.416 232.357 29.783 229.699 32.416 227.041 35.05 229.699 32.416 232.357" fill="#d6694b"/><polygon points="37.683 232.357 35.05 229.699 37.683 227.041 40.316 229.699 37.683 232.357" fill="#d6694b"/><polygon points="42.889 232.357 40.255 229.699 42.889 227.041 45.522 229.699 42.889 232.357" fill="#d6694b"/><path d="M91.31625,212.15513h44.2465a0,0,0,0,1,0,0v6.95719a0,0,0,0,1,0,0H91.31625a.72314.72314,0,0,1-.72314-.72314v-5.51091A.72314.72314,0,0,1,91.31625,212.15513Z" transform="translate(342.005 132.70654) rotate(97.75988)" fill="#7ca1b1"/><line x1="119.09773" y1="197.22128" x2="112.20425" y2="196.28191" fill="none" stroke="#fff" stroke-miterlimit="10" stroke-width="0.84024"/><line x1="118.64393" y1="200.55146" x2="111.75045" y2="199.61209" fill="none" stroke="#fff" stroke-miterlimit="10" stroke-width="0.84024"/><line x1="114.5597" y1="230.5231" x2="107.66623" y2="229.58373" fill="none" stroke="#fff" stroke-miterlimit="10" stroke-width="0.84024"/><line x1="114.1059" y1="233.85328" x2="107.21242" y2="232.91391" fill="none" stroke="#fff" stroke-miterlimit="10" stroke-width="0.84024"/><path d="M97.231,194.13583l0,44.2465H90.2738l0-44.24649a.72314.72314,0,0,1,.72313-.72314h5.51092A.72314.72314,0,0,1,97.231,194.13583Z" fill="#f65b2b"/><rect x="90.27425" y="234.53414" width="6.95703" height="0.83984" fill="#fff"/><rect x="90.27425" y="231.17282" width="6.95703" height="0.83984" fill="#fff"/><rect x="90.27425" y="200.92477" width="6.95703" height="0.83984" fill="#fff"/><rect x="90.27425" y="197.56344" width="6.95703" height="0.83984" fill="#fff"/><path d="M97.2226,238.38233V196.15241a.72314.72314,0,0,1,.72314-.72314h7.9308a.72314.72314,0,0,1,.72314.72314v42.22992Z" fill="#ffba55"/><rect x="97.2225" y="233.09762" width="9.37695" height="0.83984" fill="#fff"/><rect x="91.87868" y="204.85676" width="20.06493" height="6.04973" transform="translate(309.79277 105.97048) rotate(90)" fill="#fff"/><path d="M73.95236,194.13583l0,44.2465h6.95719l0-44.24649a.72314.72314,0,0,0-.72314-.72314H74.67549A.72314.72314,0,0,0,73.95236,194.13583Z" fill="#ffba55"/><rect x="73.95199" y="234.53414" width="6.95801" height="0.83984" fill="#fff"/><rect x="73.95199" y="231.17282" width="6.95801" height="0.83984" fill="#fff"/><rect x="73.95199" y="200.92477" width="6.95801" height="0.83984" fill="#fff"/><rect x="73.95199" y="197.56344" width="6.95801" height="0.83984" fill="#fff"/><path d="M73.96077,238.38233V196.15241a.72313.72313,0,0,0-.72313-.72314h-7.9308a.72314.72314,0,0,0-.72314.72314v42.22992Z" fill="#f65b2b"/><rect x="64.58383" y="233.09762" width="9.37695" height="0.83984" fill="#fff"/><rect x="59.23977" y="204.85676" width="20.06493" height="6.04973" transform="translate(277.15386 138.60939) rotate(90)" fill="#fff"/><path d="M64.8383,212.21726h42.22992a0,0,0,0,1,0,0v9.37708a0,0,0,0,1,0,0H64.8383a.72314.72314,0,0,1-.72314-.72314v-7.9308a.72314.72314,0,0,1,.72314-.72314Z" transform="translate(302.49749 131.31411) rotate(90)" fill="#7ca1b1"/><line x1="80.90315" y1="233.51734" x2="90.28023" y2="233.51734" fill="none" stroke="#fff" stroke-miterlimit="10" stroke-width="0.84024"/><rect x="75.55923" y="204.85676" width="20.06493" height="6.04973" transform="translate(293.47331 122.28993) rotate(90)" fill="#fff"/></g></g></svg>