<svg id="Layer_1" data-name="Layer 1" xmlns="http://www.w3.org/2000/svg" viewBox="0 0 700 550"><title>man in a office</title><path d="M157.20916,356.09757c12.43217,59.68537,141.45228,155.14783,182.25593,74.79585,21.47813-42.29568,86.70692-104.22065,137.23448-141.34428,49.13091-36.09777-94.03072-93.17247-182.25559-74.79565S144.777,296.4122,157.20916,356.09757Z" fill="#ffe3cb"/><path d="M140.8041,358.12262c-13.666-65.61035,54.02246-135.4043,150.88965-155.58106,35.25781-7.34179,83.03125-4.07519,127.80078,8.74219,42.75586,12.24121,74.09082,30.55078,81.77637,47.78418,4.28418,9.60644,1.07129,18.708-9.291,26.32227l-.53125-.72266c10.125-7.43848,13.1543-15.92871,9.00391-25.23535-7.58106-16.99707-38.69629-35.11621-81.20508-47.28711-44.63476-12.7793-92.25195-16.041-127.37012-8.72656C195.49355,223.49469,128.11563,292.813,141.68105,357.939Z" fill="#ffe3cb"/><rect x="218.37893" y="142.01533" width="141.31846" height="107.25062" rx="6.42569" fill="#e5e1e5"/><rect x="218.3793" y="154.76129" width="141.31836" height="0.58398" fill="#a2aee6"/><path d="M226.37015,151.79407c3.38287,0,3.38848-5.25739,0-5.25739-3.38288,0-3.38848,5.25739,0,5.25739Z" fill="#ffba55"/><path d="M235.13245,151.79407c3.38288,0,3.38848-5.25739,0-5.25739-3.38287,0-3.38847,5.25739,0,5.25739Z" fill="#f73c4f"/><path d="M243.31061,151.79407c3.38287,0,3.38847-5.25739,0-5.25739-3.38288,0-3.38848,5.25739,0,5.25739Z" fill="#4f66d0"/><rect x="226.37015" y="163.88605" width="124.07425" height="29.02076" fill="#a2aee6"/><rect x="226.37051" y="202.87359" width="54.25586" height="0.58398" fill="#a2aee6"/><rect x="226.37051" y="211.70562" width="54.25586" height="0.58398" fill="#a2aee6"/><rect x="226.37051" y="220.53863" width="54.25586" height="0.58398" fill="#a2aee6"/><rect x="226.37051" y="229.60406" width="54.25586" height="0.58398" fill="#a2aee6"/><rect x="226.37051" y="238.43609" width="54.25586" height="0.58398" fill="#a2aee6"/><rect x="296.93799" y="200.47744" width="53.50641" height="36.16781" fill="#a2aee6"/><rect x="412.47817" y="87.64902" width="173.26933" height="131.49905" rx="7.87848" fill="#e5e1e5"/><rect x="412.47793" y="103.27691" width="173.26953" height="0.7168" fill="#a2aee6"/><path d="M422.27613,99.63864c4.14772,0,4.15459-6.446,0-6.446-4.14771,0-4.15458,6.446,0,6.446Z" fill="#ffba55"/><path d="M433.01952,99.63864c4.14771,0,4.15458-6.446,0-6.446-4.14771,0-4.15458,6.446,0,6.446Z" fill="#f73c4f"/><path d="M443.04668,99.63864c4.14771,0,4.15458-6.446,0-6.446-4.14771,0-4.15458,6.446,0,6.446Z" fill="#4f66d0"/><rect x="422.27578" y="162.26617" width="66.52344" height="0.7168" fill="#a2aee6"/><rect x="422.27578" y="173.09527" width="66.52344" height="0.7168" fill="#a2aee6"/><rect x="422.27578" y="183.92535" width="66.52344" height="0.7168" fill="#a2aee6"/><rect x="422.27578" y="195.03961" width="66.52344" height="0.7168" fill="#a2aee6"/><rect x="422.27578" y="205.86969" width="66.52344" height="0.7168" fill="#a2aee6"/><rect x="508.79874" y="159.32889" width="65.60374" height="44.34503" fill="#a2aee6"/><rect x="421.10674" y="116.49517" width="32.4106" height="32.4106" fill="#a2aee6"/><rect x="462.22219" y="116.49517" width="32.4106" height="32.4106" fill="#a2aee6"/><rect x="504.3187" y="116.49517" width="32.4106" height="32.4106" fill="#a2aee6"/><rect x="544.7824" y="116.49517" width="32.4106" height="32.4106" fill="#a2aee6"/><path d="M481.80178,249.15955V462.351H530V249.15955a2.31278,2.31278,0,0,0-2.31277-2.31278H484.11456A2.31278,2.31278,0,0,0,481.80178,249.15955Z" fill="#935b50"/><rect x="484.4615" y="285.63196" width="42.87879" height="31.84687" rx="2.31277" fill="#e19974"/><rect x="484.4615" y="250.31593" width="42.87879" height="31.84687" rx="2.31277" fill="#e19974"/><path d="M524.6166,278.12091a1.42878,1.42878,0,1,1-2.01892,2.01892c.50867-.731.57117-1.00989.79419-1.22473C523.60879,278.69464,523.88992,278.6297,524.6166,278.12091Z" fill="#d6694b"/><path d="M522.59768,252.33886a1.42878,1.42878,0,1,1,2.01892,2.01893c-.73108-.50861-1.00989-.57123-1.22473-.79419C523.17141,253.34668,523.10647,253.06549,522.59768,252.33886Z" fill="#d6694b"/><path d="M487.18521,254.35779a1.42879,1.42879,0,1,1,2.01892-2.01893c-.50867.731-.57117,1.00995-.79419,1.22474C488.193,253.78406,487.91177,253.84906,487.18521,254.35779Z" fill="#d6694b"/><path d="M489.20413,280.13983a1.42878,1.42878,0,1,1-2.01892-2.01892c.731.50867,1.00988.57129,1.22473.79419C488.6304,279.132,488.69534,279.41327,489.20413,280.13983Z" fill="#d6694b"/><path d="M524.6166,313.437a1.42878,1.42878,0,1,1-2.01892,2.01892c.50867-.731.57117-1.00989.79419-1.22473C523.60879,314.01068,523.88992,313.94574,524.6166,313.437Z" fill="#d6694b"/><path d="M522.59768,287.65484a1.42882,1.42882,0,1,1,2.01892,2.019c-.73108-.50867-1.00989-.57129-1.22473-.79431C523.17141,288.66266,523.10647,288.38153,522.59768,287.65484Z" fill="#d6694b"/><path d="M487.18521,289.67389a1.42883,1.42883,0,1,1,2.01892-2.019c-.50867.73108-.57117,1.01-.79419,1.22474C488.193,289.1,487.91177,289.1651,487.18521,289.67389Z" fill="#d6694b"/><path d="M489.20413,315.45587a1.42878,1.42878,0,1,1-2.01892-2.01892c.731.50867,1.00988.57129,1.22473.79419C488.6304,314.44806,488.69534,314.72931,489.20413,315.45587Z" fill="#d6694b"/><rect x="484.4615" y="356.264" width="42.87879" height="31.84687" rx="2.31277" fill="#e19974"/><rect x="484.4615" y="391.58003" width="42.87879" height="31.84687" rx="2.31277" fill="#e19974"/><rect x="499.3095" y="261.90292" width="13.1828" height="4.85682" rx="0.89601" fill="#d6694b"/><rect x="499.3095" y="367.85099" width="13.1828" height="4.85682" rx="0.89601" fill="#d6694b"/><rect x="499.3095" y="403.16701" width="13.1828" height="4.85682" rx="0.89601" fill="#d6694b"/><rect x="499.3095" y="297.21894" width="13.1828" height="4.85682" rx="0.89601" fill="#d6694b"/><path d="M524.6166,384.069a1.42878,1.42878,0,1,1-2.01892,2.01892c.50867-.73108.57117-1.01.79419-1.22473C523.60879,384.64276,523.88992,384.5777,524.6166,384.069Z" fill="#d6694b"/><path d="M522.59768,358.28692a1.42878,1.42878,0,1,1,2.01892,2.01892c-.73108-.50854-1.00989-.57116-1.22473-.79418C523.17141,359.29474,523.10647,359.01361,522.59768,358.28692Z" fill="#d6694b"/><path d="M487.18521,360.30584a1.42878,1.42878,0,1,1,2.01892-2.01892c-.50867.73108-.57117,1.01-.79419,1.22474C488.193,359.73211,487.91177,359.79718,487.18521,360.30584Z" fill="#d6694b"/><path d="M489.20413,386.088a1.42878,1.42878,0,1,1-2.01892-2.01892c.731.50854,1.00988.57117,1.22473.79419C488.6304,385.08014,488.69534,385.36126,489.20413,386.088Z" fill="#d6694b"/><path d="M524.6166,419.38507a1.42878,1.42878,0,1,1-2.01892,2.01892c.50867-.73108.57117-1.01.79419-1.22473C523.60879,419.9588,523.88992,419.89374,524.6166,419.38507Z" fill="#d6694b"/><path d="M522.59768,393.603a1.42878,1.42878,0,1,1,2.01892,2.01892c-.73108-.50866-1.00989-.57116-1.22473-.79418C523.17141,394.61078,523.10647,394.32965,522.59768,393.603Z" fill="#d6694b"/><path d="M487.18521,395.62188a1.42878,1.42878,0,1,1,2.01892-2.01892c-.50867.73108-.57117,1.00989-.79419,1.22474C488.193,395.04815,487.91177,395.1131,487.18521,395.62188Z" fill="#d6694b"/><path d="M489.20413,421.404a1.42878,1.42878,0,1,1-2.01892-2.01892c.731.50854,1.00988.57117,1.22473.79419C488.6304,420.39618,488.69534,420.6773,489.20413,421.404Z" fill="#d6694b"/><path d="M495.78532,411.53s23.52674.47743,27.10093-3.498c0,0-7.7043,27.60312-1.88808,41.14605l-26.16718-2.7633S497.89108,425.03683,495.78532,411.53Z" fill="#7ca1b1"/><path d="M490.02456,414.91163s23.52674.47744,27.10093-3.498c0,0-7.70431,27.60312-1.88809,41.14605l-26.16717-2.7633S492.13031,428.41844,490.02456,414.91163Z" fill="#f65b2b"/><path d="M492.9674,417.51018s23.52674.47743,27.10093-3.498c0,0-7.7043,27.60312-1.88809,41.14605l-26.16717-2.7633S495.07315,431.017,492.9674,417.51018Z" fill="#fff"/><path d="M495.84778,307.236s23.52674.47744,27.10093-3.498c0,0-7.7043,27.60312-1.88808,41.14605l-26.16718-2.7633S497.95354,320.74279,495.84778,307.236Z" fill="#ffba55"/><path d="M490.087,310.61759s23.52674.47744,27.10093-3.498c0,0-7.70431,27.60312-1.88809,41.14605l-26.16717-2.7633S492.19277,324.1244,490.087,310.61759Z" fill="#f65b2b"/><path d="M493.02986,313.21614s23.52674.47743,27.10093-3.498c0,0-7.7043,27.60312-1.88809,41.14605l-26.16717-2.7633S495.13561,326.72294,493.02986,313.21614Z" fill="#fff"/><rect x="484.4615" y="426.89605" width="42.87879" height="31.84687" rx="2.31277" fill="#e19974"/><rect x="499.3095" y="438.48304" width="13.1828" height="4.85682" rx="0.89601" fill="#d6694b"/><path d="M524.6166,454.701a1.42882,1.42882,0,1,1-2.01892,2.019c.50867-.73108.57117-1.01.79419-1.22473C523.60879,455.27484,523.88992,455.20978,524.6166,454.701Z" fill="#d6694b"/><path d="M522.59768,428.919a1.42878,1.42878,0,1,1,2.01892,2.01892c-.73108-.50866-1.00989-.57116-1.22473-.79418C523.17141,429.92682,523.10647,429.64557,522.59768,428.919Z" fill="#d6694b"/><path d="M487.18521,430.93792a1.42878,1.42878,0,1,1,2.01892-2.01892c-.50867.731-.57117,1.00989-.79419,1.22474C488.193,430.36419,487.91177,430.42914,487.18521,430.93792Z" fill="#d6694b"/><path d="M489.20413,456.72a1.42882,1.42882,0,1,1-2.01892-2.019c.731.50866,1.00988.57129,1.22473.79431C488.6304,455.71222,488.69534,455.99334,489.20413,456.72Z" fill="#d6694b"/><rect x="484.4615" y="320.94798" width="42.87879" height="31.84687" rx="2.31277" fill="#e19974"/><rect x="499.3095" y="332.53497" width="13.1828" height="4.85682" rx="0.89601" fill="#d6694b"/><path d="M524.6166,348.753a1.42878,1.42878,0,1,1-2.01892,2.01892c.50867-.73108.57117-1.00989.79419-1.22473C523.60879,349.32672,523.88992,349.26178,524.6166,348.753Z" fill="#d6694b"/><path d="M522.59768,322.97088a1.42878,1.42878,0,1,1,2.01892,2.01892c-.73108-.50854-1.00989-.57116-1.22473-.79418C523.17141,323.9787,523.10647,323.69757,522.59768,322.97088Z" fill="#d6694b"/><path d="M487.18521,324.9898a1.42878,1.42878,0,1,1,2.01892-2.01892c-.50867.73108-.57117,1.01-.79419,1.22474C488.193,324.41607,487.91177,324.48114,487.18521,324.9898Z" fill="#d6694b"/><path d="M489.20413,350.77191a1.42878,1.42878,0,1,1-2.01892-2.01892c.731.50867,1.00988.57117,1.22473.79419C488.6304,349.7641,488.69534,350.04522,489.20413,350.77191Z" fill="#d6694b"/><polygon points="343.051 438.349 343.051 453.117 358.543 454.487 359.175 442.956 343.051 438.349" fill="#f9977a"/><polygon points="397.808 438.349 397.808 453.117 415.123 453.117 413.283 442.77 397.808 438.349" fill="#f9977a"/><path d="M345.75421,285.15852s2.87784,2.16658,4.40045,9.96424,1.88974,14.0965-.41,8.98971l-1.68806-3.92056s-1.501,6.20892-2.07124,9.9861a4.73032,4.73032,0,0,1-3.92328,4.036c-1.88073.26595-3.109-.63471-3.29586-5.10161-.27954-6.68086-.23687-10.21805.17688-11.88782.14334-.57848,2.19932-6.7102,2.19932-6.7102Z" fill="#f9977a"/><path d="M348.6625,296.37127a3.45665,3.45665,0,0,1,.24854,1.99463,3.2383,3.2383,0,0,1-.8545,1.82605,4.07766,4.07766,0,0,1-.15539-1.97961A3.85681,3.85681,0,0,1,348.6625,296.37127Z" fill="#dd765e"/><path d="M344.87466,303.75714a30.019,30.019,0,0,1-.08264,4.76086c-.1355,1.57-.30359,3.09461-.515,4.7074a7.87058,7.87058,0,0,1-.51306-2.379,15.11675,15.11675,0,0,1,.01013-2.41162,17.81515,17.81515,0,0,1,.363-2.37366A11.60582,11.60582,0,0,1,344.87466,303.75714Z" fill="#dd765e"/><path d="M342.52493,303.92474c.002,1.77991-.19812,3.48206-.33972,5.18457-.09144.849-.14637,1.69483-.19568,2.53931a12.52791,12.52791,0,0,0,.07251,2.56531,5.29872,5.29872,0,0,1-.86939-2.53211,12.39893,12.39893,0,0,1-.02466-2.66516,16.922,16.922,0,0,1,.4552-2.60242A12.16066,12.16066,0,0,1,342.52493,303.92474Z" fill="#dd765e"/><path d="M340.37722,304.605a33.41128,33.41128,0,0,1-.21167,4.34009l-.23315,2.12622c-.08057.71191-.1576,1.422-.28784,2.16833a9.38218,9.38218,0,0,1-.49549-4.39489A11.28893,11.28893,0,0,1,340.37722,304.605Z" fill="#dd765e"/><path d="M361.444,223.97514l-10.04385,24.88032c-1.08725,2.149-.81467,7.0688-.86541,9.47666l-.74054,35.14375-8.78442-1.2298-6.3454-28.78338a32.98105,32.98105,0,0,1,1.02887-17.85351l8.4816-24.59242Z" fill="#f9977a"/><path d="M374.42127,191.46992c-.51837-.69115,5.95286-2.61926,6.191-8.81023.35635-9.26512-3.57171-22.26368-3.57171-22.26368H405.019a31.42941,31.42941,0,0,1,0,7.02437c-.3939,2.36345,3.03176,10.70765-3.6342,19.62109-.56908.761-1.69082.85948-2.63606.95651-1.51012.155-3.802,1.13842-2.30185,5.97214C396.44684,193.97012,383.70773,203.85186,374.42127,191.46992Z" fill="#f9977a"/><path d="M342.514,222.0676l9.90175-17.77331a19.60018,19.60018,0,0,1,10.81152-9.01739l11.194-3.807a27.05436,27.05436,0,0,0,22.02557,2.5002s12.501,4.167,15.537,7.73871S417.438,227.746,417.438,227.746l-15.696,2.06868,10.24178,48.32888s-40.89613,11.07231-51.2541-2.5002c0,0,2.143-30.71674-1.07151-43.57492C359.65819,232.0684,352.51476,232.42558,342.514,222.0676Z" fill="#376f92"/><path d="M360.7297,275.64332s-6.78626,23.93048-4.8817,85.59906c0,0-13.81027,30.00542-14.52461,81.91433h18.3348l20.00159-77.149L385.13641,341.72l5.95286,21.90651s-1.90492,52.147,6.07191,79.53017h17.97763l2.85737-87.86417-6.01238-77.149Z" fill="#f73c4f"/><path d="M403.23306,363.15033a3.89723,3.89723,0,0,1-2.59742,2.05969,9.50546,9.50546,0,0,1-3.3374.36865,14.007,14.007,0,0,1-6.209-1.95215c1.10718.0282,2.155.17823,3.20044.2937,1.0426.12549,2.07153.21668,3.09106.29871a18.488,18.488,0,0,0,3.02027-.04187A5.4225,5.4225,0,0,0,403.23306,363.15033Z" fill="#b02336"/><path d="M367.99221,361.37091a3.8977,3.8977,0,0,1-2.59753,2.05969,9.508,9.508,0,0,1-3.3374.36865,14.00653,14.00653,0,0,1-6.20887-1.95215c1.10706.02808,2.155.17823,3.20032.29358,1.04273.12561,2.07166.21668,3.09119.29883a18.47287,18.47287,0,0,0,3.02014-.042A5.42129,5.42129,0,0,0,367.99221,361.37091Z" fill="#b02336"/><path d="M372.04019,294.09723c.52307,4.12658,1.20214,8.217,1.92834,12.29126.75415,4.06958,1.60254,8.11609,2.6073,12.12194,1.00647,4.00611,2.21606,7.95142,3.56787,11.85254A97.02557,97.02557,0,0,0,385.13638,341.72a58.95275,58.95275,0,0,1-5.98426-10.9729,93.50712,93.50712,0,0,1-3.89672-11.90357,115.50216,115.50216,0,0,1-2.33326-12.29028A93.4068,93.4068,0,0,1,372.04019,294.09723Z" fill="#b02336"/><path d="M367.99221,307.66974c1.37818,1.75805,2.49292,3.57824,3.705,5.32385.59668.87634,1.1897,1.74951,1.843,2.5708a15.74187,15.74187,0,0,0,2.18383,2.34424,6.44438,6.44438,0,0,1-2.95446-1.61145,12.86333,12.86333,0,0,1-2.1991-2.53784,17.415,17.415,0,0,1-1.595-2.91419A13.44759,13.44759,0,0,1,367.99221,307.66974Z" fill="#b02336"/><path d="M379.65978,287.98162h20.71595S392.518,332.27087,379.65978,287.98162Z" fill="#b02336"/><path d="M356.553,307.1023c7.25553,4.4506,11.4392-19.11667,11.4392-19.11667h-9.5237C357.80137,292.80416,357.10328,299.1143,356.553,307.1023Z" fill="#b02336"/><path d="M343.05073,462.351h35.38056a2.72543,2.72543,0,0,0,2.71166-2.99911s.3952-3.57257-.5462-3.94864l-21.619-8.63628s-8.98614,10.95548-15.927,1.82286C343.05073,448.58981,337.23658,458.94888,343.05073,462.351Z" fill="#d6694b"/><path d="M397.80826,462.351h35.38056a2.72543,2.72543,0,0,0,2.71166-2.99911s.3952-3.57257-.5462-3.94864l-21.619-8.63628s-8.98613,10.95548-15.927,1.82286C397.80826,448.58981,391.99411,458.94888,397.80826,462.351Z" fill="#d6694b"/><path d="M424.23262,291.68524s3.546.63407,8.42479,6.90456,8.04993,11.72522,3.69243,8.20664l-3.27615-2.73627s1.46361,6.21784,2.65995,9.84566a4.73033,4.73033,0,0,1-1.67875,5.37242c-1.55812,1.08634-3.06067.83715-5.244-3.06429-3.26544-5.83515-4.82419-9.01065-5.2088-10.68737-.13325-.58089-1.0668-6.98039-1.0668-6.98039Z" fill="#f9977a"/><path d="M431.88955,300.3775a3.45547,3.45547,0,0,1,1.12219,1.6676,3.2374,3.2374,0,0,1,.06189,2.015,4.07748,4.07748,0,0,1-1.03222-1.69617A3.85681,3.85681,0,0,1,431.88955,300.3775Z" fill="#dd765e"/><path d="M431.844,308.67779a30.01245,30.01245,0,0,1,2.07544,4.28553c.58777,1.462,1.1261,2.89843,1.66565,4.43286a7.87121,7.87121,0,0,1-1.532-1.89112,15.12828,15.12828,0,0,1-1.07959-2.15649,17.81449,17.81449,0,0,1-.74756-2.282A11.60134,11.60134,0,0,1,431.844,308.67779Z" fill="#dd765e"/><path d="M429.8229,309.88824c.8053,1.58728,1.39526,3.19641,2.03748,4.77942.30163.79895.6344,1.57849.97168,2.35425a12.53383,12.53383,0,0,0,1.22277,2.25635,5.29988,5.29988,0,0,1-1.91882-1.86707,12.40025,12.40025,0,0,1-1.22522-2.36694,16.9455,16.9455,0,0,1-.76868-2.52759A12.16693,12.16693,0,0,1,429.8229,309.88824Z" fill="#dd765e"/><path d="M428.21365,311.46478A33.41629,33.41629,0,0,1,429.984,315.433l.75183,2.00244c.24952.67163.50135,1.34.72205,2.0647a9.38251,9.38251,0,0,1-2.42615-3.69788A11.28993,11.28993,0,0,1,428.21365,311.46478Z" fill="#dd765e"/><path d="M414.30541,228.13952v29.91539a16.0851,16.0851,0,0,0,1.58255,6.95748l15.20451,31.69313-8.39353,2.86828-18.656-22.81888a32.98107,32.98107,0,0,1-7.14173-16.39519l-4.0261-29.36284Z" fill="#f9977a"/><path d="M377.04677,184.79816s12.10907,3.784,18.18031-10.59706c0,0-4.2597-3.24621-.38669-5.90148a3.53732,3.53732,0,0,1,3.11267-.51086,1.44482,1.44482,0,0,1,1.14283,1.52009l5.95742-8.57579s4.71818.65192,5.27293-5.22648c0,0,5.30213-2.31272-.35882-5.73966,0,0,1.25324-7.23774-6.12664-2.82947,0,0-3.02845-11.40087-16.67711,2.33271,0,0-19.042-.90455-12.37654,16.55553Z" fill="#1e1d22"/><path d="M361.444,200.28015a10.22511,10.22511,0,0,0-1.40234,3.718,36.20994,36.20994,0,0,0-.61536,3.93835c-.25354,2.65247-.3042,5.32581-.30932,7.999.01709,2.67652.10534,5.35651.22009,8.04279.1145,2.68695.26318,5.37689.32117,8.09015-.31092-1.31977-.53467-2.65338-.80518-3.98328-.24548-1.3327-.40112-2.67834-.57605-4.0224a75.56627,75.56627,0,0,1-.522-8.12292,49.87911,49.87911,0,0,1,.622-8.14881c.144-.67126.26281-1.34491.42761-2.00964.19971-.65942.34436-1.327.59961-1.9696a15.06006,15.06006,0,0,1,.82886-1.8852A5.61758,5.61758,0,0,1,361.444,200.28015Z" fill="#10394f"/><path d="M394.382,200.28015a10.223,10.223,0,0,0-1.40246,3.718,36.2686,36.2686,0,0,0-.61536,3.93835c-.25354,2.65247-.3042,5.32581-.30933,7.999.01722,2.67652.10547,5.35651.22022,8.04279.1145,2.68695.26306,5.37689.321,8.09015-.31091-1.31977-.53466-2.65338-.80517-3.98328-.24549-1.3327-.40113-2.67834-.57593-4.0224a75.502,75.502,0,0,1-.522-8.12292,49.8647,49.8647,0,0,1,.622-8.14881c.14392-.67126.26269-1.34491.42749-2.00964.19983-.65942.34448-1.327.59961-1.9696a15.06,15.06,0,0,1,.82885-1.8852A5.61817,5.61817,0,0,1,394.382,200.28015Z" fill="#10394f"/><path d="M364.98708,246.76367c.85792,2.48962,1.83252,4.91473,2.85779,7.303a59.74165,59.74165,0,0,0,3.51514,6.9151,32.99214,32.99214,0,0,0,2.13745,3.20361,25.12774,25.12774,0,0,0,2.49451,2.91187,17.64924,17.64924,0,0,0,6.41064,4.22473,14.10385,14.10385,0,0,1-7.13293-3.44434,25.23252,25.23252,0,0,1-5.07776-6.19543,39.38459,39.38459,0,0,1-3.33338-7.22919A38.59117,38.59117,0,0,1,364.98708,246.76367Z" fill="#10394f"/><path d="M389.04068,186.9584s3.56747,4.07567,7.02051,5.32277c-.4721-3.13015,1.11585-4.0221,2.39872-4.23852h0S391.24843,188.30747,389.04068,186.9584Z" fill="#dd765e"/><rect x="135.7957" y="329.87908" width="158.30667" height="126.42546" fill="#d6694b"/><rect x="124.2525" y="326.03135" width="180.84338" height="3.84773" fill="#e19974"/><rect x="139.50601" y="333.72681" width="150.88604" height="29.6825" fill="#935b50"/><rect x="139.50601" y="363.40931" width="150.88604" height="29.6825" fill="#935b50"/><rect x="139.50601" y="393.09181" width="150.88604" height="29.6825" fill="#935b50"/><rect x="139.50601" y="422.77431" width="150.88604" height="29.6825" fill="#935b50"/><rect x="208.62776" y="435.6917" width="12.64255" height="3.84773" fill="#d6694b"/><rect x="208.62776" y="406.0092" width="12.64255" height="3.84773" fill="#d6694b"/><rect x="208.62776" y="376.3267" width="12.64255" height="3.84773" fill="#d6694b"/><rect x="208.62776" y="346.6442" width="12.64255" height="3.84773" fill="#d6694b"/><rect x="143.43009" y="456.30454" width="13.7419" height="6.04644" fill="#e19974"/><rect x="272.72608" y="456.30454" width="13.7419" height="6.04644" fill="#e19974"/><line x1="139.50601" y1="363.40931" x2="290.39205" y2="363.40931" fill="none" stroke="#e19974" stroke-miterlimit="10" stroke-width="0.76344"/><line x1="139.50601" y1="393.09181" x2="290.39205" y2="393.09181" fill="none" stroke="#e19974" stroke-miterlimit="10" stroke-width="0.76344"/><line x1="139.50601" y1="422.77431" x2="290.39205" y2="422.77431" fill="none" stroke="#e19974" stroke-miterlimit="10" stroke-width="0.76344"/><path d="M555.98423,462.351H115.14851a.896.896,0,0,1,0-1.792H555.98423a.896.896,0,1,1,0,1.792Z" fill="#935b50"/><path d="M243.0337,316.93955h51.30419a0,0,0,0,1,0,0v8.14531a0,0,0,0,1,0,0H243.0337a3.50483,3.50483,0,0,1-3.50483-3.50483v-1.13566A3.50483,3.50483,0,0,1,243.0337,316.93955Z" fill="#fff"/><path d="M295.94233,325.29335a.738.738,0,0,1-.738.738H241.95625c-2.03308,0-3.68681-2.233-3.68681-4.9782,0-2.74454,1.65373-4.97753,3.68681-4.97753h53.24808a.738.738,0,0,1,.738.738v.5809a.738.738,0,0,1-.738.738H241.95625c-1.19307,0-2.16349,1.31033-2.16349,2.92063,0,1.611.97042,2.9213,2.16349,2.9213h53.24808a.738.738,0,0,1,.738.738Z" fill="#f65b2b"/><path d="M235.02927,306.98382h51.30419a0,0,0,0,1,0,0v8.14531a0,0,0,0,1,0,0H235.02927a3.50483,3.50483,0,0,1-3.50483-3.50483v-1.13566a3.50483,3.50483,0,0,1,3.50483-3.50483Z" fill="#fff"/><path d="M287.9379,315.33762a.738.738,0,0,1-.738.738H233.95181c-2.03307,0-3.6868-2.233-3.6868-4.9782,0-2.74453,1.65373-4.97753,3.6868-4.97753H287.1999a.738.738,0,0,1,.738.738v.5809a.738.738,0,0,1-.738.738H233.95181c-1.19306,0-2.16349,1.31034-2.16349,2.92063,0,1.611.97043,2.92131,2.16349,2.92131H287.1999a.738.738,0,0,1,.738.738Z" fill="#ffba55"/><path d="M251.414,297.02809H302.7182a0,0,0,0,1,0,0v8.14531a0,0,0,0,1,0,0H251.414a3.50483,3.50483,0,0,1-3.50483-3.50483v-1.13566A3.50483,3.50483,0,0,1,251.414,297.02809Z" fill="#fff"/><path d="M304.32264,305.3819a.738.738,0,0,1-.738.738H250.33656c-2.03307,0-3.68681-2.233-3.68681-4.97819,0-2.74454,1.65374-4.97753,3.68681-4.97753h53.24808a.738.738,0,0,1,.738.738v.5809a.738.738,0,0,1-.738.738H250.33656c-1.19307,0-2.16349,1.31034-2.16349,2.92064,0,1.611.97042,2.9213,2.16349,2.9213h53.24808a.738.738,0,0,1,.738.738Z" fill="#f65b2b"/><line x1="195.7489" y1="322.69162" x2="188.67521" y2="322.69162" fill="none" stroke="#fff" stroke-miterlimit="10" stroke-width="0.85431"/><line x1="195.7489" y1="319.27438" x2="188.67521" y2="319.27438" fill="none" stroke="#fff" stroke-miterlimit="10" stroke-width="0.85431"/><line x1="195.74887" y1="288.51921" x2="188.67519" y2="288.51922" fill="none" stroke="#fff" stroke-miterlimit="10" stroke-width="0.85431"/><line x1="195.74887" y1="285.10197" x2="188.67518" y2="285.10198" fill="none" stroke="#fff" stroke-miterlimit="10" stroke-width="0.85431"/><polygon points="282.276 296.097 271.949 296.097 268.469 277.809 285.756 277.809 282.276 296.097" fill="#e19974"/><polygon points="285.359 279.897 285.756 277.809 268.469 277.809 268.866 279.897 285.359 279.897" fill="#d6694b"/><rect x="271.23171" y="287.42767" width="3.08525" height="3.08525" transform="translate(284.2266 -108.24314) rotate(45)" fill="#d6694b"/><rect x="275.59491" y="287.42767" width="3.08525" height="3.08525" transform="translate(285.50456 -111.32839) rotate(45)" fill="#d6694b"/><rect x="279.90787" y="287.42767" width="3.08525" height="3.08525" transform="translate(286.76779 -114.37811) rotate(45)" fill="#d6694b"/><path d="M281.13536,262.41734s.90687,12.81189-4.40839,15.52708C276.727,277.94442,274.88685,273.087,281.13536,262.41734Z" fill="#558031"/><path d="M263.984,267.92077A18.74359,18.74359,0,0,1,276.727,277.94442S267.16489,274.69674,263.984,267.92077Z" fill="#849f4c"/><path d="M267.06724,284.70263s4.42225-6.61587,9.65973-6.75821C276.727,277.94442,275.9385,283.27141,267.06724,284.70263Z" fill="#a6b862"/><path d="M272.52216,264.24353s6.13591,5.60229,4.20481,13.70089C276.727,277.94442,273.32791,274.34145,272.52216,264.24353Z" fill="#849f4c"/><path d="M276.727,277.94442s2.15577-7.89137,13.05367-9.91493C289.78064,268.02949,287.32814,275.21471,276.727,277.94442Z" fill="#a6b862"/><path d="M292.66752,275.88156s-8.31479-3.42784-15.94055,2.06286C276.727,277.94442,286.8646,279.16153,292.66752,275.88156Z" fill="#849f4c"/><path d="M292.59188,283.86194s-4.01482-6.4308-15.86491-5.91752Z" fill="#558031"/><path d="M259.50529,276.90349s10.91991-4.04907,17.36458.84732C276.86987,277.75081,270.75048,281.12144,259.50529,276.90349Z" fill="#558031"/><path d="M268.45988,265.17906s9.74389,6.89157,8.34611,12.771C276.806,277.95,270.046,272.52993,268.45988,265.17906Z" fill="#558031"/><path d="M285.55243,284.80386s-8.03273-1.37136-8.82546-6.85944C276.727,277.94442,282.59626,278.23512,285.55243,284.80386Z" fill="#849f4c"/><path d="M130.3639,295.37321s13.25147,9.7674,17.58579,8.64822" fill="none" stroke="#8b9d36" stroke-linecap="round" stroke-linejoin="round" stroke-width="1.68783"/><line x1="145.10605" y1="276.80184" x2="147.1433" y2="304.73363" fill="none" stroke="#8b9d36" stroke-linecap="round" stroke-linejoin="round" stroke-width="1.68783"/><path d="M155.71113,305.47574s2.19621-12.3919,13.69786-17.75882" fill="none" stroke="#8b9d36" stroke-linecap="round" stroke-linejoin="round" stroke-width="1.68783"/><path d="M154.70309,302.597c-.68618-1.34384-4.37362-1.3457-6.72828.30532a6.44814,6.44814,0,0,0-2.26791,2.976c-.40092,1.03272-1.0426,2.68518-.15114,3.81539a3.3454,3.3454,0,0,0,3.70425.68661,18.05522,18.05522,0,0,0,3.17516-3.12857C153.80117,305.5223,155.25617,303.68023,154.70309,302.597Z" fill="#5e7c24"/><path d="M157.576,302.44445c-.257.67481.25286,1.44836,1.20953,2.89963a13.93148,13.93148,0,0,0,3.3263,3.51027,3.96852,3.96852,0,0,0,4.68717.53406,3.79667,3.79667,0,0,0,1.73862-3.20495c-.01559-1.977-1.70478-3.2004-2.34338-3.66284C163.10148,300.2807,158.19734,300.8133,157.576,302.44445Z" fill="#5e7c24"/><path d="M166.64763,289.7774c.22537-.38419.80942-.189,2.11677-.3817a24.347,24.347,0,0,0,3.25083-.99194,12.51035,12.51035,0,0,1,2.79721-.68682c.39621.00186,2.63561.012,3.40177,1.5262.80266,1.58623-.68331,3.49558-.7559,3.58645-1.43655,1.79488-3.89087,1.70732-4.68717,1.67876a7.23637,7.23637,0,0,1-5.06513-2.44176C167.52678,291.866,166.25614,290.44435,166.64763,289.7774Z" fill="#5e7c24"/><path d="M146.00938,282.37535c-.79794-.40178-.331-2.95448-.07567-4.34944a25.89029,25.89029,0,0,1,1.43634-4.34966c1.32293-3.48543,1.6248-3.86093,2.11677-4.04412a3.16375,3.16375,0,0,1,3.47765,1.60237c.87464,1.69242-.46613,3.83195-1.89,6.10459C149.70707,279.52147,147.04726,282.89782,146.00938,282.37535Z" fill="#5e7c24"/><path d="M145.7069,289.09058c.58692-.95509-.493-2.82283-1.58748-3.81539a7.04336,7.04336,0,0,0-3.47764-1.44981c-1.81819-.43822-3.81951-.92053-4.38469-.07639-.53894.80481.51535,2.38586.75611,2.74708a6.683,6.683,0,0,0,3.09948,2.36557C141.72805,289.53025,144.94956,290.32284,145.7069,289.09058Z" fill="#c4ce6e"/><path d="M145.78257,296.49242c.02153-.75989-1.077-.91741-3.3263-2.74707-1.78558-1.45251-1.83644-1.95758-2.87288-2.28919-1.58666-.50756-3.65791-.02422-4.00674.99193-.08531.24881-.07321.54586,1.2852,2.74708,1.05675,1.71228,1.59568,2.575,2.11678,2.89963a4.9666,4.9666,0,0,0,3.77992.38149C143.70743,298.2517,145.75345,297.52224,145.78257,296.49242Z" fill="#5e7c24"/><path d="M146.60928,287.70978c-.74094-.839.0046-2.86636.91362-4.03415a7.07107,7.07107,0,0,1,3.17875-2.032c1.71641-.74737,3.60571-1.57,4.30632-.83654.668.69924-.10109,2.43978-.27671,2.83741a6.71425,6.71425,0,0,1-2.65016,2.86847C150.60374,287.45206,147.56532,288.79218,146.60928,287.70978Z" fill="#5e7c24"/><path d="M147.15752,295.59538c-.15071-.74483.90465-1.09075,2.80858-3.28366,1.51144-1.74088,1.47547-2.24726,2.44-2.75388,1.47651-.77548,3.59926-.659,4.11605.28148.12644.23029.16514.525-.79791,2.92927-.7492,1.87025-1.13307,2.81373-1.59109,3.22394a4.9739,4.9739,0,0,1-3.65857,1.0321C149.50153,296.96813,147.3617,296.60479,147.15752,295.59538Z" fill="#5e7c24"/><path d="M135.04756,299.54461c-.106-.828-1.46956-1.285-3.09949-1.83131-1.47263-.49349-2.64176-.88554-4.00673-.45788-.24138.07555-2.3885.74809-2.5704,2.36557-.16324,1.45085,1.38466,2.51006,1.512,2.59452a4.57317,4.57317,0,0,0,3.55311.3815C132.56186,302.188,135.20362,300.76259,135.04756,299.54461Z" fill="#5e7c24"/><path d="M141.17107,303.36c-1.13836-.81226-3.28692.56552-4.30922,1.22108a9.03718,9.03718,0,0,0-2.64586,2.59431c-.78749,1.18175-1.53683,2.30658-1.13406,3.28134.57913,1.40117,3.07918,1.38026,3.402,1.37343a5.43709,5.43709,0,0,0,3.70425-1.67876,5.78361,5.78361,0,0,0,1.43655-2.89963C141.7623,306.61691,142.29447,304.16171,141.17107,303.36Z" fill="#c4ce6e"/><path d="M132.09921,295.57666c-.64044-.93128-.41609-1.5914-.68043-3.20495-.4202-2.56512-1.31412-2.89363-.98272-4.19689.26086-1.02567,1.14472-2.12049,2.11678-2.13663,1.36148-.02277,2.23735,2.08157,2.419,2.51813.66075,1.58726.41712,2.971,0,5.34159-.27234,1.54752-.48008,2.65537-1.13386,2.82345C133.206,296.88386,132.45358,296.09188,132.09921,295.57666Z" fill="#8b9d36"/><path d="M161.05341,295.34772c.202-.57152,1.27269-.658,2.5704-.763,1.62131-.131,2.83658-.22936,4.00674.53405.18.11737,2.07452,1.389,1.73861,2.89984-.26249,1.18051-1.72939,1.79985-2.797,1.83131-1.15847.03416-1.94615-.62078-3.402-1.83131C162.02321,297.065,160.80466,296.05152,161.05341,295.34772Z" fill="#8b9d36"/><path d="M162.94337,290.99828c-.291-.06624-.309-.47155-.68043-1.60258-.82994-2.52683-1.47961-2.75639-1.36067-3.81539.13166-1.17161,1.09858-2.41919,1.96543-2.36558.945.05837,1.51017,1.64667,1.73882,2.2894a4.9505,4.9505,0,0,1,.30249,2.36558C164.697,289.51017,163.57439,291.14214,162.94337,290.99828Z" fill="#5e7c24"/><path d="M144.19489,280.01c-.44112.62554-2.94568-.1153-4.6115-1.60258-.42532-.37964-2.3077-2.06046-1.81429-3.66284a1.88772,1.88772,0,0,1,1.512-1.37343c.70627-.01739,1.16544.70007,2.34359,2.44175C144.04724,279.39479,144.38827,279.73571,144.19489,280.01Z" fill="#8b9d36"/><path d="M157.95392,296.87392c-1.26859.34527-2.92846-2.3339-3.3263-2.976a9.84453,9.84453,0,0,1-1.512-5.49415c.05434-1.21342.15339-3.42582,1.43634-3.96795,1.22921-.51935,2.892.77045,3.70425,1.75493,1.60286,1.94227,1.34795,4.455,1.13406,6.56247C159.22374,294.39512,159.001,296.58888,157.95392,296.87392Z" fill="#c4ce6e"/><path d="M158.13782,326.03135H145.67247l-4.01023-21.27555a.84562.84562,0,0,1,.82518-1.00633h18.83545a.84562.84562,0,0,1,.82518,1.00633Z" fill="#935b50"/><path d="M161.85833,306.29307l.28977-1.53725a.84562.84562,0,0,0-.82518-1.00634H142.48741a.84562.84562,0,0,0-.82518,1.00634l.28977,1.53725Z" fill="#d6694b"/><polygon points="146.669 320.006 144.036 317.348 146.669 314.69 149.302 317.348 146.669 320.006" fill="#d6694b"/><polygon points="151.935 320.006 149.302 317.348 151.935 314.69 154.569 317.348 151.935 320.006" fill="#d6694b"/><polygon points="157.141 320.006 154.508 317.348 157.141 314.69 159.774 317.348 157.141 320.006" fill="#d6694b"/><path d="M205.56875,299.80416h44.2465a0,0,0,0,1,0,0v6.95719a0,0,0,0,1,0,0h-44.2465a.72314.72314,0,0,1-.72314-.72314v-5.51091a.72314.72314,0,0,1,.72314-.72314Z" transform="translate(558.53046 118.98384) rotate(97.75988)" fill="#7ca1b1"/><line x1="233.35023" y1="284.8703" x2="226.45676" y2="283.93093" fill="none" stroke="#fff" stroke-miterlimit="10" stroke-width="0.84024"/><line x1="232.89643" y1="288.20048" x2="226.00295" y2="287.26111" fill="none" stroke="#fff" stroke-miterlimit="10" stroke-width="0.84024"/><line x1="228.81221" y1="318.17212" x2="221.91873" y2="317.23275" fill="none" stroke="#fff" stroke-miterlimit="10" stroke-width="0.84024"/><line x1="228.3584" y1="321.5023" x2="221.46493" y2="320.56293" fill="none" stroke="#fff" stroke-miterlimit="10" stroke-width="0.84024"/><path d="M211.48353,281.78485l0,44.2465h-6.95718l0-44.24649a.72314.72314,0,0,1,.72314-.72314h5.51091A.72314.72314,0,0,1,211.48353,281.78485Z" fill="#f65b2b"/><rect x="204.52676" y="322.18316" width="6.95703" height="0.83984" fill="#fff"/><rect x="204.52676" y="318.82184" width="6.95703" height="0.83984" fill="#fff"/><rect x="204.52676" y="288.57379" width="6.95703" height="0.83984" fill="#fff"/><rect x="204.52676" y="285.21246" width="6.95703" height="0.83984" fill="#fff"/><path d="M211.47511,326.03135V283.80143a.72314.72314,0,0,1,.72313-.72314h7.93081a.72314.72314,0,0,1,.72313.72314v42.22992Z" fill="#ffba55"/><rect x="211.475" y="320.74664" width="9.37695" height="0.83984" fill="#fff"/><rect x="206.13118" y="292.50578" width="20.06493" height="6.04973" transform="translate(511.69429 79.367) rotate(90)" fill="#fff"/><path d="M188.20486,281.78485l0,44.2465h6.95719l0-44.24649a.72314.72314,0,0,0-.72313-.72314H188.928A.72314.72314,0,0,0,188.20486,281.78485Z" fill="#ffba55"/><rect x="188.20449" y="322.18316" width="6.95801" height="0.83984" fill="#fff"/><rect x="188.20449" y="318.82184" width="6.95801" height="0.83984" fill="#fff"/><rect x="188.20449" y="288.57379" width="6.95801" height="0.83984" fill="#fff"/><rect x="188.20449" y="285.21246" width="6.95801" height="0.83984" fill="#fff"/><path d="M188.21328,326.03135V283.80143a.72314.72314,0,0,0-.72314-.72314h-7.9308a.72314.72314,0,0,0-.72314.72314v42.22992Z" fill="#f65b2b"/><rect x="178.83633" y="320.74664" width="9.37695" height="0.83984" fill="#fff"/><rect x="173.49228" y="292.50578" width="20.06493" height="6.04973" transform="translate(479.05538 112.0059) rotate(90)" fill="#fff"/><path d="M179.0908,299.86628h42.22992a0,0,0,0,1,0,0v9.37708a0,0,0,0,1,0,0H179.0908a.72314.72314,0,0,1-.72314-.72314v-7.9308a.72314.72314,0,0,1,.72314-.72314Z" transform="translate(504.39901 104.71063) rotate(90)" fill="#7ca1b1"/><line x1="195.15565" y1="321.16636" x2="204.53273" y2="321.16636" fill="none" stroke="#fff" stroke-miterlimit="10" stroke-width="0.84024"/><rect x="189.81173" y="292.50578" width="20.06493" height="6.04973" transform="translate(495.37484 95.68645) rotate(90)" fill="#fff"/></svg>