<svg xmlns="http://www.w3.org/2000/svg" viewBox="0 0 471.40472 365.57957"><title>Asset 9</title><g id="Layer_2" data-name="Layer 2"><g id="Layer_1-2" data-name="Layer 1"><path d="M319.41723,364.57918c14.83683-4.63823,28.1489-9.37688,44.16355-18.37029,16.51682-9.27644,89.88839-53.42173,99.42961-129.82458a145.73456,145.73456,0,0,0-6.08082-62.23253c-2.9491-8.64645-9.06644-26.01239-24.50588-43.1866-18.89984-21.03635-40.46575-29.18976-53.1113-33.80059a153.2473,153.2473,0,0,0-59.54821-8.84732c-11.46773.37435-31.70973,1.21434-54.71824,11.26687-15.01031,6.55559-24.34154,14.03336-38.09186,25.20892-21.785,17.722-24.652,25.09936-62.76209,61.69384-10.46339,10.04339-19.06419,17.95941-32.19365,25.75674-9.103,5.40517-16.462,8.42732-30.03888,13.94206-33.37147,13.55858-42.873,16.30387-53.79295,23.93685-21.23722,14.85509-19.86166,31.05531-20.7747,34.5431a68.59354,68.59354,0,0,0-1.61607,27.36369C28.5605,310.354,38.43042,322.333,44.55689,329.58251a103.26268,103.26268,0,0,0,30.03888,24.14067,191.96377,191.96377,0,0,0,24.61545,10.856Z" fill="#f9e0c0"/><path d="M366.52148,351.62742l-.44726-.79687c21.82226-12.25782,93.76562-58.21192,103.33594-134.8877a151.84519,151.84519,0,0,0-6.3125-64.61719c-2.71778-7.97168-9.082-26.64062-25.42676-44.82519C417.65527,84.228,394.80762,75.895,382.5332,71.41844a158.90018,158.90018,0,0,0-61.85644-9.19239c-10.53418.3418-32.45313,1.05274-56.8291,11.69629l-.36524-.83593c24.53613-10.71387,46.57422-11.42871,57.165-11.77246A159.74361,159.74361,0,0,1,382.8457,70.561c12.34961,4.5039,35.33692,12.88671,55.50489,35.3291,16.46875,18.32324,22.875,37.11621,25.61035,45.14062a152.79007,152.79007,0,0,1,6.35547,65.02539C460.69336,293.15574,388.4375,339.3159,366.52148,351.62742Z" fill="#f4c5a2"/><polygon points="411.376 364.579 391.633 279.482 399.924 277.56 420.083 364.452 411.376 364.579" fill="#ffba55"/><polygon points="302.388 364.452 293.711 364.452 311.064 277.687 319.408 279.355 302.388 364.452" fill="#ffba55"/><path d="M302.30108,281.358H404.40886a16.92537,16.92537,0,0,0,16.083-11.65227L457.518,156.776s-24.50793-4.76543-39.485,46.29276c-5.92843,20.21053-16.44352,32.9544-26.98528,40.976a67.97547,67.97547,0,0,1-39.6353,13.49906C334.91538,257.93526,296.95045,261.02556,302.30108,281.358Z" fill="#7ca1b1"/><path d="M335.26543,58.47716h5.27483a0,0,0,0,1,0,0V76.02541a1.26293,1.26293,0,0,1-1.26293,1.26293h-2.749a1.26293,1.26293,0,0,1-1.26293-1.26293V58.47716A0,0,0,0,1,335.26543,58.47716Z" fill="#935b50"/><path d="M423.37773,58.47716h5.27483a0,0,0,0,1,0,0V76.02541a1.26293,1.26293,0,0,1-1.26293,1.26293h-2.749a1.26293,1.26293,0,0,1-1.26293-1.26293V58.47716A0,0,0,0,1,423.37773,58.47716Z" fill="#935b50"/><path d="M442.585,60.32168H325.78c-.65315,0-1.18272-.82576-1.18272-1.84423s.52957-1.84423,1.18272-1.84423H442.585c.65315,0,1.18271.82576,1.18271,1.84423S443.23816,60.32168,442.585,60.32168Z" fill="#d6694b"/><rect x="348.19434" y="53.6909" width="5.96094" height="0.7207" fill="#fff"/><rect x="348.19434" y="50.81102" width="5.96094" height="0.7207" fill="#fff"/><rect x="348.19434" y="24.89402" width="5.96094" height="0.7207" fill="#fff"/><rect x="348.19434" y="22.01512" width="5.96094" height="0.7207" fill="#fff"/><path d="M364.19,34.5319H401.476a0,0,0,0,1,0,0v5.86273a0,0,0,0,1,0,0H364.19a.60938.60938,0,0,1-.60938-.60938v-4.644a.60938.60938,0,0,1,.60938-.60938Z" transform="translate(471.29819 -336.50376) rotate(97.75988)" fill="#7ca1b1"/><rect x="384.34294" y="18.62009" width="0.70767" height="5.86331" transform="translate(311.37924 399.81174) rotate(-82.23698)" fill="#fff"/><rect x="383.96062" y="21.42679" width="0.70767" height="5.86221" transform="translate(308.32194 401.87086) rotate(-82.24515)" fill="#fff"/><rect x="380.51872" y="46.68314" width="0.70767" height="5.86317" transform="translate(280.32696 420.31152) rotate(-82.24644)" fill="#fff"/><rect x="380.1364" y="49.48971" width="0.70767" height="5.86234" transform="translate(277.14634 422.34088) rotate(-82.23569)" fill="#fff"/><path d="M369.17435,19.34727l0,37.286h-5.86273l0-37.28594a.60938.60938,0,0,1,.60938-.60938h4.644A.60938.60938,0,0,1,369.17435,19.34727Z" fill="#f65b2b"/><rect x="363.31152" y="53.39012" width="5.86328" height="0.70898" fill="#fff"/><rect x="363.31152" y="50.55809" width="5.86328" height="0.70898" fill="#fff"/><rect x="363.31152" y="25.06785" width="5.86328" height="0.70898" fill="#fff"/><rect x="363.31152" y="22.23484" width="5.86328" height="0.70898" fill="#fff"/><path d="M369.16726,56.63322V21.04661a.60938.60938,0,0,1,.60938-.60938h6.68318a.60938.60938,0,0,1,.60938.60938V56.63322Z" fill="#ffba55"/><rect x="369.16699" y="52.17918" width="7.90234" height="0.70898" fill="#fff"/><rect x="364.664" y="28.38166" width="16.90845" height="5.09803" transform="translate(404.0489 -342.18756) rotate(90)" fill="#fff"/><path d="M349.55772,19.34727l0,37.286h5.86273l0-37.28594a.60938.60938,0,0,0-.60938-.60938h-4.644A.60938.60938,0,0,0,349.55772,19.34727Z" fill="#ffba55"/><rect x="349.55762" y="53.39012" width="5.86328" height="0.70898" fill="#fff"/><rect x="349.55762" y="50.55809" width="5.86328" height="0.70898" fill="#fff"/><rect x="349.55762" y="25.06785" width="5.86328" height="0.70898" fill="#fff"/><rect x="349.55762" y="22.23484" width="5.86328" height="0.70898" fill="#fff"/><path d="M349.56482,56.63322V21.04661a.60938.60938,0,0,0-.60938-.60938h-6.68318a.60938.60938,0,0,0-.60938.60938V56.63322Z" fill="#f65b2b"/><rect x="341.66309" y="52.17918" width="7.90137" height="0.70898" fill="#fff"/><rect x="337.15962" y="28.38166" width="16.90845" height="5.09803" transform="translate(376.54452 -314.68318) rotate(90)" fill="#fff"/><path d="M341.87743,34.58426H377.464a0,0,0,0,1,0,0V42.4862a0,0,0,0,1,0,0h-35.5866a.60938.60938,0,0,1-.60938-.60938V35.19363a.60938.60938,0,0,1,.60938-.60938Z" transform="translate(397.90126 -320.83081) rotate(90)" fill="#7ca1b1"/><rect x="355.41504" y="52.17918" width="7.90234" height="0.70898" fill="#fff"/><rect x="350.91181" y="28.38166" width="16.90845" height="5.09803" transform="translate(390.29671 -328.43537) rotate(90)" fill="#fff"/><rect x="385.02473" y="23.00394" width="47.49253" height="1.41591" transform="translate(226.81674 390.5206) rotate(-66.93632)" fill="#935b50"/><circle cx="406.72974" cy="23.57744" r="19.1286" fill="#c0d6f2"/><path d="M390.99535,12.70337a19.11505,19.11505,0,0,0-2.95374,14.95369c.01209.00691.02349.01566.03576.02223a2.2251,2.2251,0,0,0,2.20089,0,5.75209,5.75209,0,0,0,.68305-1.51785c.27529-.71979.33317-.95459.60714-1.13837.34872-.234.64164-.113.8348-.37948.17353-.23941.00685-.43326.07591-.83486a2.29268,2.29268,0,0,1,.98661-1.29012c.65212-.52513.98812-.4699,1.10474-.82761.07314-.22443-.00887-.40032-.34578-1.14562a11.71169,11.71169,0,0,1-.68305-1.59376,3.345,3.345,0,0,1,.37942-1.89732,29.5576,29.5576,0,0,0,.683-3.1116c.7684-2.916,2.102-4.03833,1.82142-4.32588C396.07983,9.26251,393.4322,10.32946,390.99535,12.70337Z" fill="#a6b862"/><path d="M423.11624,13.70588c-1.32169-1.36016-2.583-2.11457-2.93623-1.88817-.15383.0986-.0531.33029-.30351.91071-.2397.55536-.82352,1.48231-1.51791,1.51785-.31111.01595-.45486-.15677-1.44194-.98662-1.47005-1.23582-1.72259-1.33315-1.97323-1.29018-.64135.11-1.15162,1.11821-.91071,1.5179.23636.39209,1.08878.02108,1.36609.45533a1.10605,1.10605,0,0,1-.45538,1.29018,1.76754,1.76754,0,0,1-1.59376-.07591,3.02385,3.02385,0,0,1-1.59375-1.21427c-.40574-.6694-.28261-1.1943-.60714-1.29019-.294-.08685-.71006.251-.91071.60714-.34642.615.07487,1.06223-.22766,1.51791-.38967.58686-1.36961.26838-1.51785.683-.13747.38432.57449,1.02129,1.13837,1.3661.69825.42687.93565.26279,1.82142.60713,1.325.51505,1.23605,1.05406,2.42856,1.442,1.03585.33691,1.381.02073,1.82147.45538.36174.357.41824.921.53123,2.04908.08979.89619-.01393,1.11038-.0759,1.21428a1.442,1.442,0,0,1-1.51785.60714c-.30259-.08029-.50532-.28117-.91071-.683-.46471-.46068-.46517-.63663-.75889-.759-.452-.18815-.66612.13874-1.06253,0-.52726-.18458-.7377-.96922-.98661-1.89732-.25122-.9368-.1968-1.32917-.53123-1.51785-.27345-.15429-.44312.03283-1.06253,0a4.7673,4.7673,0,0,1-1.366-.37947,11.94322,11.94322,0,0,0-1.66966-.45533,4.994,4.994,0,0,0-2.42862.30357,5.37279,5.37279,0,0,0-2.58031,1.51785A3.85487,3.85487,0,0,0,400.1443,22.215a3.51381,3.51381,0,0,0,1.13843,2.20083c.8788.76777,1.46763.41075,2.2768,1.13843a3.65143,3.65143,0,0,1,1.06247,2.42856c.02154.39422-.0148.94054-1.21428,3.41517-.93311,1.92514-1.17731,2.14359-1.29019,2.95985-.12624.91278-.07965,2.51108.759,2.95979.46436.24845.69116-.11266,2.50446-.30357a10.90255,10.90255,0,0,1,2.04908-.07585c1.02894.07037,1.15357.2507,1.74557.15175a3.69133,3.69133,0,0,0,1.74551-.91071c.75175-.61341.67982-.89032,1.442-1.51784a7.31019,7.31019,0,0,1,1.51779-.91071c1.10894-.5617,1.40508-.53578,2.3527-1.06252.8268-.45953,1.46487-.82392,1.44194-1.29019a1.0242,1.0242,0,0,0-.683-.75889c-.56954-.221-.88134.20612-1.3661,0a1.37508,1.37508,0,0,1-.683-1.3661c.04227-.43234.30737-.98373.60714-.98661.3797-.00363.35966.87736,1.06252,1.29018a2.02064,2.02064,0,0,0,1.97323-.15175c.51643-.31843,1.11931-1.00021.98656-1.59376-.10125-.4529-.55139-.4999-.68305-1.06252-.08667-.37061-.01589-.88272.22772-.98661.458-.19536,1.41764,1.09874,1.89733,1.74556a5.26958,5.26958,0,0,1,1.29018,2.35265c.13039.92286-.1995,1.53755.22766,1.97323a1.167,1.167,0,0,0,.91071.30357,1.23191,1.23191,0,0,0,.45435-.14144,19.13938,19.13938,0,0,0-.78153-18.30966Z" fill="#a6b862"/><path d="M407.61719,48.311a24.94523,24.94523,0,0,1-9.64453-1.94239,1.29785,1.29785,0,1,1,1.00195-2.39453A22.481,22.481,0,0,0,428.4502,14.70457a22.33241,22.33241,0,0,0-12.124-12.209,1.29786,1.29786,0,1,1,1.002-2.39454,25.07631,25.07631,0,0,1-9.71094,48.21Z" fill="#935b50"/><path d="M424.40326,53.31H409.32465V47.49177a1.65122,1.65122,0,0,0-1.65129-1.65129c-.912,0-4.01028.73925-4.01028,1.65129V53.31H390.94346a1.65129,1.65129,0,0,0,0,3.30258h33.4598a1.65129,1.65129,0,1,0,0-3.30258Z" fill="#935b50"/><path d="M263.62278,334.70186v10.50939s-13.16423,10.45846-30.02251,13.26839c0,0-5.15111,2.36531-5.15111,6.09939h50.78318V335.22121Z" fill="#f9977a"/><path d="M229.27961,362.05069h49.40513a1.262,1.262,0,0,1,1.262,1.262v.00434a1.262,1.262,0,0,1-1.262,1.262l-50.933.00015S226.29743,363.04634,229.27961,362.05069Z" fill="#d6694b"/><path d="M244.70752,355.47825a3.52963,3.52963,0,0,1,2.62231-.03393,3.99442,3.99442,0,0,1,2.1012,1.79321,3.481,3.481,0,0,1,.22449,2.99463,2.97956,2.97956,0,0,1-2.00635,1.8186,17.66278,17.66278,0,0,0-.55188-2.13305,6.48513,6.48513,0,0,0-.53662-1.09937c-.18872-.34009-.42859-.76855-.74927-1.30249C245.49292,356.97288,245.12488,356.35521,244.70752,355.47825Z" fill="#d6694b"/><path d="M263.6228,345.21116c1.52039.60669,2.87512,1.1521,4.1875,1.57959a13.97573,13.97573,0,0,0,3.75305.74072,8.98037,8.98037,0,0,0,3.62281-.55151,18.08346,18.08346,0,0,0,1.93774-.76807c.67542-.29785,1.30225-.70385,2.1084-1.00073a9.68919,9.68919,0,0,1-1.05066,2.21387,8.001,8.001,0,0,1-1.74829,1.81055,7.45374,7.45374,0,0,1-5.00671,1.56982,8.80523,8.80523,0,0,1-4.82837-1.75A8.49336,8.49336,0,0,1,263.6228,345.21116Z" fill="#d6694b"/><path d="M279.92775,70.239c2.45365.66143,1.61736,5.734,4.42552,13.57065a48.02674,48.02674,0,0,0,10.03064,15.93067c7.24889,7.38093,10.96776,4.99011,16.52086,10.91534,5.28181,5.63593,10.45559,16.9094,5.60513,26.8464-3.80131,7.78787-13.07729,13.355-21.53619,11.80045-7.72425-1.41969-11.90408-8.25083-15.34046-13.86556-2.21276-3.616-3.31953-6.53064-7.96513-33.04132-2.16554-12.361-3.01943-17.97337,0-24.1911C273.652,74.12028,277.41089,69.56032,279.92775,70.239Z" fill="#84382a"/><path d="M178.14861,223.05577s5.01522-76.11339,19.17585-73.75328c0,0,12.81931-4.13018,42.69627,14.01312l41.67749,16.66825s15.93071,26.55118,2.95013,50.74226c0,0-2.65512,96.46929,3.24514,105.6147h-35.9916s.59-106.49974-3.24514-115.05513-38.0567-38.05669-38.0567-38.05669v41.00683Z" fill="#ffba55"/><path d="M173.999,157.80125a3.27932,3.27932,0,0,1-2.38964-1.03418l-29.25489-31.15918a3.2782,3.2782,0,1,1,4.7793-4.48828l28.0166,29.84082,40.34082-7.834a3.27791,3.27791,0,0,1,1.25,6.43554L174.624,157.7407A3.30517,3.30517,0,0,1,173.999,157.80125Z" fill="#dd765e"/><path d="M255.673,99.53946c.87015-2.70711.99334-7.51708.97644-10.47679a1.65872,1.65872,0,0,0-2.25966-1.54007c-2.4603.958-6.00958,1.70347-5.29613-2.37113a3.26858,3.26858,0,0,0-1.157-2.69014.90831.90831,0,0,1-.02445-1.40268,9.47875,9.47875,0,0,0,2.60721-2.95267.65326.65326,0,0,0-.70311-.91887l-3.62971.63781a.52527.52527,0,0,1-.61427-.562l.041-.48057a.56024.56024,0,0,0-.5202-.6066l-1.26482-.086a1.33227,1.33227,0,0,1-1.16518-1.77473l1.71415-4.83076a3.67963,3.67963,0,0,0-.05484-2.59982c-.97795-2.44405-2.8624-8.14831-1.90191-13.89394,0,0,4.32,7.81213,17.96872,15.33953,0,0,.65651-9.14774,7.21274-4.3593,0,0,2.55388,1.77271,1.86124,8.42983l2.74143,2.0629a10.65575,10.65575,0,0,1,3.94372,6.01567c.8438,3.48863-5.57836,13.155-4.17116,14.47295C271.97724,94.95205,252.72112,108.723,255.673,99.53946Z" fill="#f9977a"/><path d="M252,66.57566a.51115.51115,0,0,1-.22949-.05468,18.95371,18.95371,0,0,0-7.72461-1.74414h-.00684a.51663.51663,0,0,1-.00683-1.03321,19.66043,19.66043,0,0,1,8.19922,1.85352A.51648.51648,0,0,1,252,66.57566Z" fill="#350500"/><path d="M249.37329,67.88719c-.71423-.1106-1.36987-.2395-2.03662-.30542-.33154-.04663-.66235-.05054-.99841-.06885-.33863-.01562-.67261.02-1.03968.02637a3.06538,3.06538,0,0,1,2.09375-.47046,3.97334,3.97334,0,0,1,1.05262.26587A3.10859,3.10859,0,0,1,249.37329,67.88719Z" fill="#350500"/><ellipse cx="246.83253" cy="68.41935" rx="1.13573" ry="0.6506" transform="translate(157.66707 308.53812) rotate(-85.12088)" fill="#050505"/><path d="M267.475,66.18826a4.38023,4.38023,0,0,0-2.90783-1.04208,2.921,2.921,0,0,0-1.52867.52527,2.6976,2.6976,0,0,0-.9431,1.24951,4.60777,4.60777,0,0,1,1.15525-.90694,3.364,3.364,0,0,1,1.342-.35243A8.586,8.586,0,0,1,267.475,66.18826Z" fill="#dd765e"/><path d="M267.0854,70.75167a10.058,10.058,0,0,1-1.80752-2.43474,5.86608,5.86608,0,0,1-.51351-1.39072,8.95439,8.95439,0,0,1-.20762-1.52063,3.7111,3.7111,0,0,0-.19019,1.58476,4.16869,4.16869,0,0,0,.45066,1.55929,5.02327,5.02327,0,0,0,.95669,1.3006A4.2921,4.2921,0,0,0,267.0854,70.75167Z" fill="#dd765e"/><path d="M242.42055,52.99047s1.8555,7.40326,17.96872,15.33953c0,0,.92085-5.40161,4.442-5.38033a3.45491,3.45491,0,0,1,2.8963,1.72712,11.88734,11.88734,0,0,1,1.7357,7.72374,27.13149,27.13149,0,0,0,1.28577,8.42736,19.85067,19.85067,0,0,0,4.48846,6.85066c2.16711,2.26292,8.414,5.78287,9.77186,3.81618,2.80929-4.06886,1.01169-23.905-2.33576-35.06814C276.09017,34.47206,246.05251,38.12671,242.42055,52.99047Z" fill="#84382a"/><circle cx="268.31466" cy="73.84878" r="2.98132" fill="#f73c4f"/><path d="M263.739,81.22131c-2.6915,3.83122-8.79415,6.19872-8.79415,6.19872h0a1.65385,1.65385,0,0,1,1.70473,1.64237c.0059,1.00826-.00842,2.23646-.059,3.51774C259.79785,90.11658,263.739,81.22131,263.739,81.22131Z" fill="#dd765e"/><path d="M263.70242,90.29986s-16.52074,5.31024-21.831,41.30184l-16.22572-5.01522L222.69559,137.502s-5.90026-.885-6.49029,0l-1.77008,11.80053,23.306,11.2105s11.80053,18.29081,43.957,19.47087C281.69822,179.98386,288.77853,87.05472,263.70242,90.29986Z" fill="#f73c4f"/><path d="M263.11243,98.56028a9.247,9.247,0,0,0-2.449,1.86035,10.27385,10.27385,0,0,0-1.035,1.1355,12.61852,12.61852,0,0,0-.93457,1.21778l-.85108,1.27685c-.25683.44287-.49145.8999-.73767,1.34766-.51745.88086-.90539,1.83374-1.33239,2.762a59.39187,59.39187,0,0,0-3.36829,11.80127c-.30322,2.03272-.66284,4.05542-.881,6.1001l-.31079,3.07031c-.11475,1.022-.20777,2.04639-.23938,3.07739-.07129,2.05909-.27906,4.1106-.291,6.17359l-.083,6.18823-.01342,1.0022-.94165-.25342c-4.51453-1.21436-9.011-2.4978-13.50538-3.7898-2.249-.63867-4.49743-1.28027-6.73339-1.969-2.239-.67725-4.48133-1.34155-6.70984-2.05933,2.29516.46241,4.57629.978,6.86071,1.481,2.2876.49121,4.56275,1.02954,6.83728,1.57105,4.55262,1.06811,9.10315,2.14477,13.63562,3.29052l-.95483.74854.005-6.24732c.00476-2.08252.16723-4.16577.27221-6.24731.04053-1.04175.14282-2.08032.26721-3.11768l.34009-3.11352c.08313-1.041.30786-2.0669.4773-3.0979l.54992-3.08716a54.7622,54.7622,0,0,1,3.94007-11.91113,24.39228,24.39228,0,0,1,1.51489-2.75977c.28723-.44067.56177-.88769.85828-1.31982l.97046-1.24243A12.69052,12.69052,0,0,1,263.11243,98.56028Z" fill="#b02336"/><path d="M237.74121,160.51292a72.278,72.278,0,0,0,9.7489,4.58057,42.119,42.119,0,0,0,5.089,1.62768,22.17232,22.17232,0,0,0,5.20532.73657c.43177-.01025.86585.00025,1.29358-.02465l1.26221-.18238a4.19462,4.19462,0,0,0,2.09265-1.00439,13.64129,13.64129,0,0,0,3.09668-4.0354,49.6514,49.6514,0,0,0,3.87866-9.87085,113.82181,113.82181,0,0,0,3.82923-21.082,99.73736,99.73736,0,0,0,.43078-10.74219,75.77147,75.77147,0,0,0-.82043-10.74512,63.88588,63.88588,0,0,1,1.62329,10.71363,98.31986,98.31986,0,0,1,.02393,10.86328,96.92559,96.92559,0,0,1-3.51441,21.45141,49.76573,49.76573,0,0,1-4.104,10.17359,15.023,15.023,0,0,1-3.55664,4.39819,5.51675,5.51675,0,0,1-2.74537,1.22681l-1.42053.144c-.47082.00879-.93921-.02-1.40771-.02954a23.28719,23.28719,0,0,1-5.43506-.99561,40.7726,40.7726,0,0,1-5.12537-1.88476A61.43666,61.43666,0,0,1,237.74121,160.51292Z" fill="#b02336"/><path d="M241.87146,131.60179a15.13134,15.13134,0,0,1,.27417,2.8352c.02673.93042-.014,1.84864-.0741,2.7605-.06421.91162-.15478,1.81567-.26635,2.71314-.04554.44848-.1084.89721-.13477,1.33935a4.46689,4.46689,0,0,0-.01721.65674.76211.76211,0,0,0,.21826.59766.82175.82175,0,0,1-.64246-.43482,3.481,3.481,0,0,1-.35327-.69287,7.10315,7.10315,0,0,1-.34912-1.43726,12.80912,12.80912,0,0,1-.0896-2.8562,15.91259,15.91259,0,0,1,.44263-2.7893A11.13858,11.13858,0,0,1,241.87146,131.60179Z" fill="#b02336"/><path d="M249.83679,144.58226a5.976,5.976,0,0,1,1.96277.57006,8.69485,8.69485,0,0,1,1.68457,1.01123,8.33759,8.33759,0,0,1,1.42444,1.36377,5.51252,5.51252,0,0,1,1.03149,1.77515,8.30225,8.30225,0,0,1-1.85168-.79394,11.90439,11.90439,0,0,1-1.59729-1.04175,11.61339,11.61339,0,0,1-1.42847-1.27515A7.57025,7.57025,0,0,1,249.83679,144.58226Z" fill="#b02336"/><path d="M265.47253,171.42845a12.91526,12.91526,0,0,0,4.41639-2.68164,17.74759,17.74759,0,0,0,3.17883-3.94825,33.52348,33.52348,0,0,0,2.32861-4.6101c.28845-.82251.63025-1.63452.94483-2.46338.28759-.83716.57214-1.68067.93188-2.52222-.001.90308-.0769,1.8042-.14978,2.71192-.13586.894-.31787,1.78662-.51355,2.67822-.267.87231-.52978,1.7522-.88415,2.60205a18.81244,18.81244,0,0,1-1.26575,2.4668,13.54416,13.54416,0,0,1-3.78272,4.08593A8.68505,8.68505,0,0,1,265.47253,171.42845Z" fill="#b02336"/><path d="M199.68457,159.62791c2.02466,3.86231,3.85522,7.7981,5.70837,11.7168l2.7649,5.87085,1.42737,2.89062c.25341.46094.49133.95142.75708,1.38867l.39868.65454.37414.488,1.64417,2.14453-2.37085-.7976a21.05061,21.05061,0,0,1-3.83838-1.78,24.92371,24.92371,0,0,1-3.39185-2.40747,23.3689,23.3689,0,0,1-2.90954-2.93555,22.45313,22.45313,0,0,1-2.33423-3.36768,37.02071,37.02071,0,0,0,2.80408,2.92188,28.43326,28.43326,0,0,0,3.10876,2.51562,25.98376,25.98376,0,0,0,3.39343,2.05469,19.8719,19.8719,0,0,0,3.59082,1.48779l-.72656,1.34693c-.22034-.251-.46838-.52442-.648-.77783l-.4602-.72852c-.304-.48657-.54676-.97144-.82288-1.45752q-.77325-1.45935-1.45459-2.94873c-.92944-1.97632-1.79248-3.97559-2.61047-5.99194C202.45764,167.88157,200.93872,163.80564,199.68457,159.62791Z" fill="#e6952a"/><path d="M248.65674,221.28563a32.93314,32.93314,0,0,1,2.61926,2.67163c.8291.90869,1.61524,1.83789,2.39392,2.76684l2.34558,2.74829a12.7713,12.7713,0,0,0,2.67163,2.43384,6.251,6.251,0,0,1-3.53405-1.48926,17.37274,17.37274,0,0,1-2.73621-2.6372,22.9971,22.9971,0,0,1-2.1687-3.06983A16.45432,16.45432,0,0,1,248.65674,221.28563Z" fill="#e6952a"/><path d="M284.64832,230.72605a4.87341,4.87341,0,0,1-.5055,1.79786,6.68705,6.68705,0,0,1-.97339,1.50634,5.8502,5.8502,0,0,1-1.381,1.2,2.77767,2.77767,0,0,1-1.86035.51123c.40686-.52417.66028-.98511.98926-1.44751a12.964,12.964,0,0,1,1.00708-1.32862,10.33516,10.33516,0,0,1,1.20178-1.20923A6.64182,6.64182,0,0,1,284.64832,230.72605Z" fill="#e6952a"/><path d="M269.30762,282.3535a32.81651,32.81651,0,0,1,2.85119,2.87158c.90137.98389,1.733,2.0166,2.58374,3.02637l2.46827,3.07983c.19751.2666.418.502.62329.75732a9.14,9.14,0,0,0,.63647.74292,6.17912,6.17912,0,0,0,.67212.70777,4.274,4.274,0,0,0,.7854.61474,4.1597,4.1597,0,0,1-1.9657-.69848,11.613,11.613,0,0,1-1.6676-1.23169,23.61761,23.61761,0,0,1-2.82153-2.937,31.30862,31.30862,0,0,1-2.3357-3.3A20.819,20.819,0,0,1,269.30762,282.3535Z" fill="#e6952a"/><path d="M269.30762,290.61375a62.767,62.767,0,0,1,5.30078,4.70361c.83215.80738,1.67358,1.58594,2.52368,2.355a15.71619,15.71619,0,0,0,2.796,2.08692,6.48072,6.48072,0,0,1-3.53564-1.04346,14.55807,14.55807,0,0,1-2.91553-2.21338,19.466,19.466,0,0,1-2.37317-2.73144A14.661,14.661,0,0,1,269.30762,290.61375Z" fill="#e6952a"/><path d="M188.45661,223.43061V233.94s-13.16422,10.45847-30.02251,13.26839c0,0-5.1511,2.36532-5.1511,6.09939h50.78318V223.95Z" fill="#f9977a"/><path d="M154.11345,250.77944h49.40513a1.262,1.262,0,0,1,1.262,1.262v.00435a1.262,1.262,0,0,1-1.262,1.262l-50.933.00014S151.13127,251.77509,154.11345,250.77944Z" fill="#d6694b"/><path d="M169.54138,244.207a3.52961,3.52961,0,0,1,2.62232-.03393,3.99444,3.99444,0,0,1,2.10119,1.79321,3.481,3.481,0,0,1,.22449,2.99463,2.9798,2.9798,0,0,1-2.00635,1.8186,17.64858,17.64858,0,0,0-.55188-2.133,6.49345,6.49345,0,0,0-.53662-1.09937c-.18872-.34009-.42859-.76855-.74939-1.30249C170.32666,245.70164,169.95874,245.084,169.54138,244.207Z" fill="#d6694b"/><path d="M188.45667,233.93992c1.52026.60669,2.875,1.1521,4.1875,1.57959a13.98546,13.98546,0,0,0,3.75292.74072,8.98007,8.98007,0,0,0,3.62281-.55151,18.07354,18.07354,0,0,0,1.93774-.76807c.67554-.29785,1.30237-.70385,2.10852-1.00073a9.6938,9.6938,0,0,1-1.05066,2.21387,8.001,8.001,0,0,1-1.74829,1.81055,7.4538,7.4538,0,0,1-5.00671,1.56982,8.806,8.806,0,0,1-4.82849-1.75A8.4922,8.4922,0,0,1,188.45667,233.93992Z" fill="#d6694b"/><path d="M223.09958,136.00718l2.36272-8.742-16.44362-5.29294a8.77365,8.77365,0,0,0-7.29294.94589l-15.41111,9.69272s.4531,3.47567,5.6218,3.69487a10.28,10.28,0,0,0,5.25767-1.26376c2.81681-1.5031,8.45664-4.10293,12.2303-3.13751Z" fill="#f9977a"/><path d="M215.06964,147.93592l1.25179-8.96877-16.97614-3.19665a8.7737,8.7737,0,0,0-7.11758,1.8498l-14.0791,11.54252s.88386,3.39181,6.03944,2.96342a10.28015,10.28015,0,0,0,5.05854-1.91086c2.60691-1.84331,7.87766-5.12751,11.74237-4.64122Z" fill="#f9977a"/><path d="M270.08529,77.70816s-5.30215,11.96216,1.552,17.18788S282.55123,78.75268,270.08529,77.70816Z" fill="#84382a"/><rect x="61.00002" y="253.30793" width="158.24802" height="84.39894" rx="4.06971" fill="#935b50"/><path d="M212.85225,294.10859H67.39572A3.24245,3.24245,0,0,1,64.15717,290.87V261.06359a3.24245,3.24245,0,0,1,3.23855-3.23855H212.85225a3.24255,3.24255,0,0,1,3.23906,3.23855V290.87A3.24255,3.24255,0,0,1,212.85225,294.10859ZM67.39572,258.87615a2.19,2.19,0,0,0-2.18743,2.18744V290.87a2.19,2.19,0,0,0,2.18743,2.18743H212.85225a2.19007,2.19007,0,0,0,2.188-2.18743V261.06359a2.19008,2.19008,0,0,0-2.188-2.18744Z" fill="#e19974"/><path d="M212.85225,333.05689H67.39572a3.24245,3.24245,0,0,1-3.23855-3.23855V300.01189a3.24245,3.24245,0,0,1,3.23855-3.23855H212.85225a3.24255,3.24255,0,0,1,3.23906,3.23855v29.80645A3.24255,3.24255,0,0,1,212.85225,333.05689ZM67.39572,297.82445a2.19,2.19,0,0,0-2.18743,2.18744v29.80645a2.19,2.19,0,0,0,2.18743,2.18743H212.85225a2.19007,2.19007,0,0,0,2.188-2.18743V300.01189a2.19008,2.19008,0,0,0-2.188-2.18744Z" fill="#e19974"/><path d="M91.905,271.23478a1.69938,1.69938,0,0,0,.19726-.7834,1.71686,1.71686,0,0,0-3.43372,0,1.69836,1.69836,0,0,0,.19726.78312,7.34035,7.34035,0,1,0,3.0392.00028Zm-1.51981,12.03075a4.85181,4.85181,0,1,1,4.85237-4.85237A4.858,4.858,0,0,1,90.38517,283.26553Z" fill="#e19974"/><path d="M192.36369,271.2345a1.69836,1.69836,0,0,0,.19726-.78312,1.71679,1.71679,0,1,0-3.43358,0,1.69824,1.69824,0,0,0,.19726.78312,7.33989,7.33989,0,1,0,3.03906,0Zm-1.51953,12.031a4.85181,4.85181,0,1,1,4.85237-4.85237A4.858,4.858,0,0,1,190.84416,283.26553Z" fill="#e19974"/><path d="M91.90527,307.636a1.69842,1.69842,0,0,0,.197-.78255,1.71693,1.71693,0,1,0-3.23688.78255,7.33976,7.33976,0,1,0,3.03991,0Zm-1.5201,12.03187a4.85237,4.85237,0,1,1,4.85237-4.85236A4.858,4.858,0,0,1,90.38517,319.66785Z" fill="#e19974"/><path d="M192.36411,307.636a1.69832,1.69832,0,0,0,.19684-.78255,1.71679,1.71679,0,0,0-3.43358,0,1.6983,1.6983,0,0,0,.197.78255,7.33982,7.33982,0,1,0,3.03976,0Zm-1.52,12.03187a4.85237,4.85237,0,1,1,4.85237-4.85236A4.858,4.858,0,0,1,190.84416,319.66785Z" fill="#e19974"/><polygon points="72.346 337.707 72.346 364.579 73.939 364.579 83.095 337.707 72.346 337.707" fill="#e19974"/><polygon points="208.333 337.707 208.333 364.579 206.741 364.579 197.584 337.707 208.333 337.707" fill="#e19974"/><path d="M457.51758,365.57957H1a1,1,0,0,1,0-2H457.51758a1,1,0,1,1,0,2Z" fill="#935b50"/><path d="M75.85254,253.19871a.43746.43746,0,0,1-.43066-.36719c-.10645-.666-10.332-66.93164,19.09277-97.49121,11.94043-12.40136,28.8125-17.375,50.13476-14.77734a.43683.43683,0,0,1,.38379.43359V159.936a.43652.43652,0,1,1-.873,0V141.38426c-20.85743-2.45313-37.34864,2.44336-49.01563,14.56152-29.127,30.25-18.96582,96.08594-18.85937,96.74707a.43737.43737,0,0,1-.36231.501A.567.567,0,0,1,75.85254,253.19871Z" fill="#fec165"/><path d="M166.19856,179.69382H121.44819a22.53075,22.53075,0,0,1,44.75037,0Z" fill="#fec165"/><path d="M73.21963,251.43738H99.1412a.87353.87353,0,0,1,.87353.87353v.997a0,0,0,0,1,0,0H72.3461a0,0,0,0,1,0,0v-.997A.87353.87353,0,0,1,73.21963,251.43738Z" fill="#fec165"/><rect x="40.05869" y="10.96281" width="138.47281" height="105.09098" rx="6.2963" fill="#e5e1e5"/><rect x="40.05859" y="23.45262" width="138.47266" height="0.57227" fill="#a2aee6"/><path d="M47.889,20.54464c3.31476,0,3.32025-5.15152,0-5.15152-3.31475,0-3.32025,5.15152,0,5.15152Z" fill="#ffba55"/><path d="M56.47487,20.54464c3.31475,0,3.32024-5.15152,0-5.15152-3.31476,0-3.32025,5.15152,0,5.15152Z" fill="#f73c4f"/><path d="M64.48834,20.54464c3.31475,0,3.32025-5.15152,0-5.15152-3.31476,0-3.32025,5.15152,0,5.15152Z" fill="#4f66d0"/><rect x="47.889" y="32.39313" width="121.57583" height="28.43638" fill="#a2aee6"/><rect x="47.88867" y="70.5952" width="123.16406" height="0.57227" fill="#a2aee6"/><rect x="47.88867" y="79.25047" width="123.16406" height="0.57227" fill="#a2aee6"/><rect x="47.88867" y="87.90477" width="123.16406" height="0.57227" fill="#a2aee6"/><rect x="47.88867" y="96.78758" width="123.16406" height="0.57227" fill="#a2aee6"/><rect x="47.88867" y="105.44188" width="123.16406" height="0.57227" fill="#a2aee6"/><path d="M125.98535,231.02684c-5.44043,0-17.00586-8.40137-18.38672-9.41895a.894.894,0,0,1,1.06055-1.43945c5.29395,3.90234,14.82422,9.80176,17.87109,9.01367a.89367.89367,0,1,1,.44727,1.73047A3.9596,3.9596,0,0,1,125.98535,231.02684Z" fill="#8b9d36"/><path d="M125.89941,231.69578a.8938.8938,0,0,1-.89062-.82812l-2.1582-29.583a.894.894,0,0,1,1.7832-.13086l2.1582,29.583a.89371.89371,0,0,1-.82617.957C125.94336,231.6948,125.9209,231.69578,125.89941,231.69578Z" fill="#8b9d36"/><path d="M134.97461,232.48094a.86316.86316,0,0,1-.15723-.01367.894.894,0,0,1-.72363-1.03614c.09766-.55468,2.55078-13.64843,15.00977-19.46093a.89344.89344,0,1,1,.75586,1.61914c-11.626,5.4248-13.9834,18.02734-14.00586,18.15429A.8931.8931,0,0,1,134.97461,232.48094Z" fill="#8b9d36"/><path d="M133.90647,228.539c-.72673-1.42324-4.63206-1.42521-7.12586.32337a6.82913,6.82913,0,0,0-2.40193,3.15187c-.42461,1.09373-1.1042,2.84385-.16007,4.04084a3.5431,3.5431,0,0,0,3.92314.72719,19.12244,19.12244,0,0,0,3.36279-3.31344C132.95126,231.63714,134.49223,229.68621,133.90647,228.539Z" fill="#5e7c24"/><path d="M136.94911,228.37741c-.27214.71469.2678,1.534,1.281,3.071a14.75461,14.75461,0,0,0,3.52286,3.71771,4.203,4.203,0,0,0,4.96414.56561,4.021,4.021,0,0,0,1.84135-3.39434c-.0165-2.09386-1.80551-3.38951-2.48185-3.87927C142.80113,226.0858,137.6072,226.64988,136.94911,228.37741Z" fill="#5e7c24"/><path d="M146.55682,214.96185c.23869-.40689.85726-.20015,2.24186-.40426a25.786,25.786,0,0,0,3.44293-1.05054,13.24933,13.24933,0,0,1,2.9625-.72741c.41961.002,2.79135.01272,3.60278,1.61638.85009,1.68-.72369,3.70214-.80057,3.79838-1.52143,1.90094-4.12079,1.80821-4.96414,1.778a7.664,7.664,0,0,1-5.36443-2.586C147.48792,217.17388,146.1422,215.66821,146.55682,214.96185Z" fill="#5e7c24"/><path d="M124.699,207.12241c-.84509-.42552-.35055-3.12907-.08014-4.60646a27.4201,27.4201,0,0,1,1.52121-4.60668c1.40111-3.69139,1.72082-4.08907,2.24186-4.28309a3.35068,3.35068,0,0,1,3.68314,1.69706c.92633,1.79242-.49367,4.05838-2.00164,6.46531C128.61523,204.09989,125.79825,207.67575,124.699,207.12241Z" fill="#5e7c24"/><path d="M124.37868,214.23445c.62161-1.01153-.52213-2.98964-1.68128-4.04085-.973-.8824-1.96863-1.12223-3.68314-1.53548-1.92563-.46411-4.04521-.97492-4.64379-.0809-.57078.85237.54581,2.52685.80079,2.9094a7.07792,7.07792,0,0,0,3.28264,2.50536C120.16472,214.70009,123.57659,215.53953,124.37868,214.23445Z" fill="#c4ce6e"/><path d="M124.45883,222.07367c.0228-.80479-1.14069-.97162-3.52286-2.9094-1.89109-1.53833-1.94495-2.07325-3.04264-2.42446-1.68042-.53755-3.87406-.02565-4.2435,1.05055-.09035.26351-.07754.57811,1.36114,2.9094,1.11919,1.81347,1.69,2.72722,2.24186,3.071a5.26009,5.26009,0,0,0,4.00328.404C122.26106,223.93691,124.428,223.16434,124.45883,222.07367Z" fill="#5e7c24"/><path d="M125.33438,212.77206c-.78471-.88853.00488-3.03574.96762-4.27253.80815-1.03819,1.748-1.44732,3.36658-2.15209,1.81783-.79153,3.81877-1.66273,4.56078-.886.70753.74056-.10706,2.584-.29305,3.00507a7.11107,7.11107,0,0,1-2.80677,3.038C129.56489,212.49911,126.34692,213.91842,125.33438,212.77206Z" fill="#5e7c24"/><path d="M125.915,221.12362c-.15961-.78884.95811-1.1552,2.97455-3.47769,1.60075-1.84375,1.56266-2.38,2.58413-2.91661,1.56377-.8213,3.81195-.6979,4.35928.29811.13391.2439.1749.556-.84506,3.10237-.79347,1.98076-1.2,2.98-1.68511,3.41444a5.26778,5.26778,0,0,1-3.87476,1.09309C128.39755,222.5775,126.13126,222.19268,125.915,221.12362Z" fill="#5e7c24"/><path d="M113.08947,225.30622c-.11228-.87692-1.55639-1.361-3.28264-1.93953-1.55965-.52264-2.79787-.93786-4.2435-.48493-.25563.08-2.52963.79229-2.72228,2.50536-.17289,1.53658,1.46648,2.65838,1.60136,2.74782a4.84335,4.84335,0,0,0,3.76307.404C110.45689,228.10579,113.25476,226.59617,113.08947,225.30622Z" fill="#5e7c24"/><path d="M119.57483,229.34707c-1.20563-.86026-3.48115.59893-4.56386,1.29323a9.57132,9.57132,0,0,0-2.80221,2.74761c-.834,1.25159-1.62764,2.44288-1.20107,3.47523.61335,1.484,3.26114,1.46183,3.603,1.45459a5.75838,5.75838,0,0,0,3.92314-1.778,6.12536,6.12536,0,0,0,1.52143-3.071C120.201,232.79643,120.76461,230.19614,119.57483,229.34707Z" fill="#c4ce6e"/><path d="M109.9669,221.1038c-.67829-.98631-.44068-1.68544-.72064-3.39434-.445-2.71669-1.39177-3.06461-1.04078-4.44488.27626-1.08629,1.21236-2.24579,2.24185-2.26289,1.44194-.02412,2.36957,2.20457,2.562,2.66693.69979,1.681.44177,3.1466,0,5.65723-.28843,1.639-.50845,2.81228-1.20085,2.99029C111.13909,222.48824,110.34221,221.64946,109.9669,221.1038Z" fill="#8b9d36"/><path d="M140.632,220.86133c.21393-.60529,1.34789-.69693,2.72228-.80808,1.71712-.13877,3.0042-.24291,4.2435.56561.1907.12431,2.19712,1.471,1.84136,3.0712-.278,1.25026-1.83158,1.9062-2.96229,1.93952-1.22691.03618-2.06115-.65747-3.603-1.93952C141.65914,222.68006,140.36858,221.60671,140.632,220.86133Z" fill="#8b9d36"/><path d="M142.63368,216.25487c-.3082-.07015-.32731-.4994-.72064-1.69728-.879-2.67613-1.567-2.91926-1.44107-4.04084.13943-1.24084,1.1635-2.56214,2.08157-2.50536,1.00082.06182,1.5994,1.744,1.84157,2.42468a5.243,5.243,0,0,1,.32036,2.50536C144.49089,214.67883,143.302,216.40724,142.63368,216.25487Z" fill="#5e7c24"/><path d="M122.77733,204.61727c-.46718.66251-3.11975-.12211-4.884-1.69728-.45046-.40206-2.44406-2.18221-1.9215-3.87927a1.99928,1.99928,0,0,1,1.60136-1.45459c.748-.01842,1.2343.74143,2.48207,2.586C122.621,203.96572,122.98214,204.32679,122.77733,204.61727Z" fill="#8b9d36"/><path d="M137.3494,222.47771c-1.34355.36568-3.10151-2.47181-3.52286-3.15186a10.42629,10.42629,0,0,1-1.60136-5.8188c.05756-1.28513.16246-3.62826,1.52122-4.20242,1.30185-.55,3.06284.816,3.92314,1.85863,1.69757,2.057,1.4276,4.71826,1.20107,6.95024C138.69425,219.85244,138.45838,222.17584,137.3494,222.47771Z" fill="#c4ce6e"/><path d="M137.54416,253.35809H124.34222l-4.2472-22.53274a.89559.89559,0,0,1,.87394-1.0658h19.94846a.89559.89559,0,0,1,.87394,1.0658Z" fill="#e19974"/><path d="M141.48452,232.45345l.30689-1.62809a.89558.89558,0,0,0-.87394-1.0658H120.969a.89559.89559,0,0,0-.87394,1.0658l.30689,1.62809Z" fill="#d6694b"/><polygon points="125.398 246.977 122.609 244.162 125.398 241.347 128.186 244.162 125.398 246.977" fill="#d6694b"/><polygon points="130.975 246.977 128.186 244.162 130.975 241.347 133.764 244.162 130.975 246.977" fill="#d6694b"/><polygon points="136.489 246.977 133.7 244.162 136.489 241.347 139.277 244.162 136.489 246.977" fill="#d6694b"/></g></g></svg>