<svg id="Layer_1" data-name="Layer 1" xmlns="http://www.w3.org/2000/svg" viewBox="0 0 700 550"><title>guy walking with dog</title><path d="M134.08839,347.06578C145.67391,410.39541,279.4173,514.50064,324.565,430.72621c23.76476-44.0972,94.22267-107.78869,148.52118-145.67678,52.79764-36.84113-96.86459-100.78553-190.47629-83.66021S122.50288,283.73615,134.08839,347.06578Z" fill="#efedef"/><path d="M116.64168,348.79383c-6.18066-33.78418,7.43652-69.085,38.34375-99.39942,30.84961-30.25976,75.25-51.93847,125.02246-61.043,37.41992-6.84571,87.78711-2.16309,134.72852,12.52539,44.84277,14.03222,77.46875,34.18554,85.14648,52.59668,4.291,10.29.65527,19.84863-10.51465,27.64257l-.6289-.90234c10.8457-7.56836,14.2539-16.42285,10.12793-26.31641-7.55567-18.11914-39.91895-38.0332-84.46-51.96972C367.628,187.289,317.461,182.619,280.20516,189.43348c-49.55762,9.0664-93.75489,30.63964-124.44922,60.74609-30.63867,30.05078-44.14453,65.00293-38.03223,98.417Z" fill="#efedef"/><line x1="103.07875" y1="461.7108" x2="596.92125" y2="461.7108" fill="none" stroke="#935b50" stroke-linecap="round" stroke-linejoin="round" stroke-width="2"/><path d="M543.07661,459.86074s-23.68852-39.43423-27.4009-49.33391" fill="none" stroke="#8b9d36" stroke-miterlimit="10" stroke-width="0.98211"/><path d="M523.63058,389.8436a42.1924,42.1924,0,0,0-2.26874,7.60423,71.09275,71.09275,0,0,0-1.15954,7.70979,69.67587,69.67587,0,0,0-.31938,7.78963,41.621,41.621,0,0,0,.80085,7.89615,41.65947,41.65947,0,0,0,2.274-7.60381,69.787,69.787,0,0,0,1.15427-7.71027,71.08872,71.08872,0,0,0,.31411-7.79011A42.1548,42.1548,0,0,0,523.63058,389.8436Z" fill="#8b9d36"/><path d="M532.29311,401.68786a40.24374,40.24374,0,0,0-2.94394,7.1697,67.58855,67.58855,0,0,0-1.84961,7.37986,66.55636,66.55636,0,0,0-1.021,7.539,39.80388,39.80388,0,0,0,.0844,7.75121,39.7672,39.7672,0,0,0,2.94922-7.16868,66.5568,66.5568,0,0,0,1.84433-7.38094,67.70024,67.70024,0,0,0,1.01568-7.54A40.28244,40.28244,0,0,0,532.29311,401.68786Z" fill="#8b9d36"/><path d="M537.066,415.47668a34.147,34.147,0,0,0-2.50611,6.66419,56.72721,56.72721,0,0,0-1.40219,6.82173,55.77508,55.77508,0,0,0-.56731,6.9409,33.7153,33.7153,0,0,0,.54669,7.09992,33.71743,33.71743,0,0,0,2.51138-6.66348,55.68287,55.68287,0,0,0,1.39692-6.82244,56.72851,56.72851,0,0,0,.562-6.94168A34.1141,34.1141,0,0,0,537.066,415.47668Z" fill="#8b9d36"/><path d="M543.07667,429.24a26.14133,26.14133,0,0,0-2.54112,5.67129,42.60113,42.60113,0,0,0-1.44248,5.861,41.8128,41.8128,0,0,0-.61142,6.00446,25.83806,25.83806,0,0,0,.49729,6.19592,25.8181,25.8181,0,0,0,2.54639-5.67039,41.88125,41.88125,0,0,0,1.43768-5.86186,42.66871,42.66871,0,0,0,.60615-6.00536A26.14125,26.14125,0,0,0,543.07667,429.24Z" fill="#8b9d36"/><path d="M548.38,437.8426a23.53534,23.53534,0,0,0-2.68258,4.97961,40.582,40.582,0,0,0-1.68657,5.16568,46.36961,46.36961,0,0,0-1.01855,5.29743c-.1103.89915-.21148,1.79326-.27862,2.70464a20.12662,20.12662,0,0,1-.29636,2.76938,5.436,5.436,0,0,0,.65218-.41169l.52942-.5305a9.78973,9.78973,0,0,0,.926-1.15822,18.55218,18.55218,0,0,0,1.42377-2.47794,27.59288,27.59288,0,0,0,1.86831-5.225,30.92659,30.92659,0,0,0,.87949-5.44045A20.4809,20.4809,0,0,0,548.38,437.8426Z" fill="#8b9d36"/><path d="M518.47977,416.60775a33.83238,33.83238,0,0,0-5.97515-5.18132,55.37126,55.37126,0,0,0-6.60431-3.93822,54.4003,54.4003,0,0,0-7.081-2.99734,33.44553,33.44553,0,0,0-7.7159-1.74238,33.43656,33.43656,0,0,0,5.97179,5.18726,54.40464,54.40464,0,0,0,6.60767,3.93228,55.34883,55.34883,0,0,0,7.08386,2.99141A33.83015,33.83015,0,0,0,518.47977,416.60775Z" fill="#8b9d36"/><path d="M524.34894,427.5703a41.67712,41.67712,0,0,0-7.36967-4.82442,69.38828,69.38828,0,0,0-7.85977-3.52005,68.14856,68.14856,0,0,0-8.23045-2.533,41.20225,41.20225,0,0,0-8.72487-1.21619,41.21137,41.21137,0,0,0,7.36679,4.83065,68.15984,68.15984,0,0,0,7.86217,3.51381,69.37457,69.37457,0,0,0,8.23285,2.52673A41.67716,41.67716,0,0,0,524.34894,427.5703Z" fill="#8b9d36"/><path d="M531.25776,439.75557a35.54187,35.54187,0,0,0-6.64315-4.65783,58.40734,58.40734,0,0,0-7.15-3.35982,57.37185,57.37185,0,0,0-7.5332-2.37748,35.13116,35.13116,0,0,0-8.04439-1.067,35.14276,35.14276,0,0,0,6.64076,4.664,57.38073,57.38073,0,0,0,7.15244,3.35365,58.41586,58.41586,0,0,0,7.53559,2.3713A35.5404,35.5404,0,0,0,531.25776,439.75557Z" fill="#8b9d36"/><path d="M536.71788,449.1346a26.64453,26.64453,0,0,0-5.83464-3.84314,42.55411,42.55411,0,0,0-6.25089-2.51337,41.79032,41.79032,0,0,0-6.56643-1.50709,26.36179,26.36179,0,0,0-6.98651-.16466,26.36064,26.36064,0,0,0,5.83272,3.84944,41.78688,41.78688,0,0,0,6.25329,2.50706,42.53167,42.53167,0,0,0,6.56787,1.50068A26.65833,26.65833,0,0,0,536.71788,449.1346Z" fill="#8b9d36"/><path d="M541.028,457.55028a35.04582,35.04582,0,0,0-6.41345-4.873,57.51537,57.51537,0,0,0-6.96685-3.59432,56.51335,56.51335,0,0,0-7.386-2.62671,34.65132,34.65132,0,0,0-7.94464-1.33578,34.63861,34.63861,0,0,0,6.41058,4.87914,56.49231,56.49231,0,0,0,6.96972,3.58833,57.50565,57.50565,0,0,0,7.38838,2.62048A35.04393,35.04393,0,0,0,541.028,457.55028Z" fill="#8b9d36"/><path d="M516.57261,411.9411a24.66611,24.66611,0,0,0-.19134-7.87637,37.11311,37.11311,0,0,0-2.0069-7.16538,36.5035,36.5035,0,0,0-3.38224-6.62686,24.4203,24.4203,0,0,0-5.216-5.90909,24.40586,24.40586,0,0,0,.18223,7.87973,36.53659,36.53659,0,0,0,2.01554,7.162,37.11644,37.11644,0,0,0,3.39135,6.62343A24.67055,24.67055,0,0,0,516.57261,411.9411Z" fill="#8b9d36"/><path d="M546.75289,461.7108s-1.06068-65.58538-13.78884-85.7383" fill="none" stroke="#50661a" stroke-miterlimit="10" stroke-width="0.98211"/><path d="M537.03054,384.74809a45.00833,45.00833,0,0,1-.29444-8.85674,79.62287,79.62287,0,0,1,.95718-8.5915c.45844-2.83322,1.08233-5.63826,1.816-8.42.73275-2.80007,1.65827-5.49411,2.6471-8.36365a12.27243,12.27243,0,0,1,.63348,2.202,19.6248,19.6248,0,0,1,.34623,2.23751,37.91663,37.91663,0,0,1,.19949,4.44168,57.02935,57.02935,0,0,1-.7994,8.705,63.26522,63.26522,0,0,1-2.0141,8.47587A39.85189,39.85189,0,0,1,537.03054,384.74809Z" fill="#50661a"/><path d="M521.47358,344.68246a31.82239,31.82239,0,0,1,5.5402,7.11839,50.02764,50.02764,0,0,1,3.71313,7.80216,49.16021,49.16021,0,0,1,2.33059,8.31971,31.47885,31.47885,0,0,1,.48626,9.01,31.47781,31.47781,0,0,1-5.54883-7.11515,49.11514,49.11514,0,0,1-3.7045-7.80546,50.02667,50.02667,0,0,1-2.322-8.32294A31.80558,31.80558,0,0,1,521.47358,344.68246Z" fill="#50661a"/><path d="M511.04344,360.80757a73.30588,73.30588,0,0,1,7.29582,6.72253c2.25483,2.33742,4.40655,4.72712,6.51176,7.12977l6.25473,7.178c1.04925,1.17543,2.10952,2.33366,3.22974,3.43074a14.7477,14.7477,0,0,0,3.81671,2.88321,6.62477,6.62477,0,0,1-2.61209-.06624,12.22894,12.22894,0,0,1-2.51666-.79155,24.30415,24.30415,0,0,1-4.48232-2.57007,43.99176,43.99176,0,0,1-7.38357-6.83072,58.28763,58.28763,0,0,1-5.86725-8.01537A41.71569,41.71569,0,0,1,511.04344,360.80757Z" fill="#50661a"/><path d="M511.04344,376.93268a60.38112,60.38112,0,0,1,9.06966,5.57821,102.75057,102.75057,0,0,1,8.13743,6.61366,101.01451,101.01451,0,0,1,7.432,7.39731,59.70051,59.70051,0,0,1,6.49066,8.44259,59.6788,59.6788,0,0,1-9.07446-5.57329,100.93241,100.93241,0,0,1-8.1331-6.61858,102.74216,102.74216,0,0,1-7.42722-7.40222A60.37291,60.37291,0,0,1,511.04344,376.93268Z" fill="#50661a"/><path d="M512.1042,389.58456a59.70578,59.70578,0,0,1,9.16317,5.29911,101.54187,101.54187,0,0,1,8.25875,6.35848,99.79681,99.79681,0,0,1,7.57348,7.16017,59.03507,59.03507,0,0,1,6.65946,8.22956,59.00728,59.00728,0,0,1-9.168-5.294,99.73071,99.73071,0,0,1-8.254-6.36352,101.53749,101.53749,0,0,1-7.56916-7.1652A59.67792,59.67792,0,0,1,512.1042,389.58456Z" fill="#50661a"/><path d="M512.81105,403.10825a55.50953,55.50953,0,0,1,9.17852,4.45265,94.003,94.003,0,0,1,8.34507,5.569,92.43683,92.43683,0,0,1,7.714,6.414,54.85312,54.85312,0,0,1,6.87238,7.54117,54.90289,54.90289,0,0,1-9.18235-4.44731,92.433,92.433,0,0,1-8.34123-5.57443,94.06394,94.06394,0,0,1-7.70967-6.41939A55.50864,55.50864,0,0,1,512.81105,403.10825Z" fill="#50661a"/><path d="M512.1042,412.91953a61.75745,61.75745,0,0,1,9.6034,4.876,105.19842,105.19842,0,0,1,8.76083,5.98575A103.34932,103.34932,0,0,1,538.592,430.607a61.03233,61.03233,0,0,1,7.27232,7.9459,61.03682,61.03682,0,0,1-9.60723-4.87069,103.349,103.349,0,0,1-8.757-5.99109,105.17989,105.17989,0,0,1-8.1192-6.831A61.754,61.754,0,0,1,512.1042,412.91953Z" fill="#50661a"/><path d="M509.62926,422.11207a80.50994,80.50994,0,0,1,10.03835,5.57125c3.18706,2.04023,6.27055,4.19705,9.27682,6.44817,3.01491,2.238,5.94638,4.57121,8.82605,6.98213,2.90941,2.39024,5.65769,4.87975,8.66781,7.34522a24.27139,24.27139,0,0,1-5.62077-1.64029,54.9671,54.9671,0,0,1-5.21938-2.51277,85.6655,85.6655,0,0,1-9.59189-6.24177,98.90237,98.90237,0,0,1-8.71384-7.35337A62.64332,62.64332,0,0,1,509.62926,422.11207Z" fill="#50661a"/><path d="M506.62394,431.65822a82.7971,82.7971,0,0,1,10.90057,5.18013c3.481,1.93922,6.85944,4.02141,10.16015,6.21318q4.9518,3.28666,9.66478,6.91188,2.35578,1.81773,4.66647,3.70078a41.58405,41.58405,0,0,0,4.737,3.62717,9.15,9.15,0,0,1-3.06238-.52594c-.98691-.29228-1.945-.64787-2.89263-1.01772-1.88989-.75025-3.716-1.6084-5.50711-2.51774a104.51156,104.51156,0,0,1-10.32511-6.09108,118.03078,118.03078,0,0,1-9.6106-7.1224A73.05038,73.05038,0,0,1,506.62394,431.65822Z" fill="#50661a"/><path d="M540.07758,395.979a48.8604,48.8604,0,0,1,1.40891-9.45366,82.10082,82.10082,0,0,1,2.71711-8.97507,80.81193,80.81193,0,0,1,3.70785-8.6129,48.334,48.334,0,0,1,5.02853-8.12975,48.3386,48.3386,0,0,1-1.4022,9.45594,80.81087,80.81087,0,0,1-2.72382,8.97279,82.21128,82.21128,0,0,1-3.71409,8.61062A48.86,48.86,0,0,1,540.07758,395.979Z" fill="#50661a"/><path d="M542.1732,407.01769a49.92683,49.92683,0,0,1,2.71327-9.27689,84.07429,84.07429,0,0,1,3.94571-8.62734,82.67468,82.67468,0,0,1,4.87891-8.1358,49.39429,49.39429,0,0,1,6.12333-7.48009,49.39559,49.39559,0,0,1-2.707,9.28,82.77563,82.77563,0,0,1-3.95194,8.62423,84.17807,84.17807,0,0,1-4.88466,8.13269A49.9902,49.9902,0,0,1,542.1732,407.01769Z" fill="#50661a"/><path d="M543.75906,417.69257a54.68746,54.68746,0,0,1,3.9716-9.31333,92.67383,92.67383,0,0,1,5.12588-8.53323,91.05062,91.05062,0,0,1,6.00008-7.94273,54.0754,54.0754,0,0,1,7.16539-7.15519,54.07071,54.07071,0,0,1-3.96633,9.31711,90.93849,90.93849,0,0,1-5.13163,8.52945,92.572,92.572,0,0,1-6.00536,7.93907A54.68979,54.68979,0,0,1,543.75906,417.69257Z" fill="#50661a"/><path d="M544.921,429.46981a70.51866,70.51866,0,0,1,5.686-9.99572q3.17006-4.73088,6.765-9.11384,3.58293-4.3928,7.58115-8.44643a69.42442,69.42442,0,0,1,8.6702-7.55622,69.41857,69.41857,0,0,1-5.68071,9.99993q-3.17,4.73059-6.76976,9.10964-3.59155,4.3864-7.58642,8.44223A70.43147,70.43147,0,0,1,544.921,429.46981Z" fill="#50661a"/><path d="M545.86427,441.6823a71.21561,71.21561,0,0,1,6.73331-9.39575q3.66422-4.39864,7.71542-8.40693,4.03971-4.01946,8.45777-7.6586a70.13852,70.13852,0,0,1,9.449-6.6603,70.14041,70.14041,0,0,1-6.72852,9.40043q-3.66422,4.3982-7.71974,8.40226-4.0476,4.01219-8.46255,7.65386A71.18846,71.18846,0,0,1,545.86427,441.6823Z" fill="#50661a"/><path d="M546.43829,449.513a62.0639,62.0639,0,0,1,7.31548-7.943,105.74081,105.74081,0,0,1,8.15564-6.8315,103.8717,103.8717,0,0,1,8.79153-5.99037,61.35139,61.35139,0,0,1,9.64032-4.8683,61.36826,61.36826,0,0,1-7.31164,7.94824,103.95138,103.95138,0,0,1-8.15949,6.82623,105.814,105.814,0,0,1-8.79584,5.985A62.07711,62.07711,0,0,1,546.43829,449.513Z" fill="#50661a"/><path d="M546.75287,456.05389a65.69957,65.69957,0,0,1,8.54648-7.106q4.48279-3.18677,9.23846-5.8965,4.74824-2.72307,9.76213-4.98123a64.92844,64.92844,0,0,1,10.46082-3.76024,64.93871,64.93871,0,0,1-8.5436,7.11173q-4.4828,3.18641-9.24134,5.89075-4.75326,2.71436-9.76548,4.97553A65.70991,65.70991,0,0,1,546.75287,456.05389Z" fill="#50661a"/><path d="M546.50878,460.29656a70.9554,70.9554,0,0,1,9.999-5.75935c3.43068-1.65624,6.92849-3.13192,10.48337-4.453q5.3316-1.98334,10.84974-3.46425a69.92183,69.92183,0,0,1,11.33935-2.14525,69.92189,69.92189,0,0,1-9.99662,5.76559q-5.14674,2.48381-10.48577,4.44671c-3.55679,1.31588-7.17113,2.47722-10.85213,3.458A70.9448,70.9448,0,0,1,546.50878,460.29656Z" fill="#50661a"/><path d="M547.85552,459.86074s23.68852-39.43423,27.4009-49.33391" fill="none" stroke="#5e7c24" stroke-miterlimit="10" stroke-width="0.98211"/><path d="M567.30155,389.8436a42.19156,42.19156,0,0,1,2.26873,7.60423,71.09032,71.09032,0,0,1,1.15955,7.70979,69.67587,69.67587,0,0,1,.31937,7.78963,41.621,41.621,0,0,1-.80084,7.89615,41.65872,41.65872,0,0,1-2.274-7.60381,69.787,69.787,0,0,1-1.15427-7.71027,71.08871,71.08871,0,0,1-.3141-7.79011A42.154,42.154,0,0,1,567.30155,389.8436Z" fill="#5e7c24"/><path d="M558.639,401.68786a40.24449,40.24449,0,0,1,2.94394,7.1697,67.58855,67.58855,0,0,1,1.84961,7.37986,66.55634,66.55634,0,0,1,1.02095,7.539,39.80388,39.80388,0,0,1-.0844,7.75121,39.76715,39.76715,0,0,1-2.94921-7.16868,66.55907,66.55907,0,0,1-1.84434-7.38094,67.69787,67.69787,0,0,1-1.01567-7.54A40.28083,40.28083,0,0,1,558.639,401.68786Z" fill="#5e7c24"/><path d="M553.86609,415.47668a34.14632,34.14632,0,0,1,2.50611,6.66419,56.72725,56.72725,0,0,1,1.4022,6.82173,55.77507,55.77507,0,0,1,.5673,6.9409,33.71528,33.71528,0,0,1-.54668,7.09992,33.71748,33.71748,0,0,1-2.51139-6.66348,55.68475,55.68475,0,0,1-1.39692-6.82244,56.72851,56.72851,0,0,1-.562-6.94168A34.11409,34.11409,0,0,1,553.86609,415.47668Z" fill="#5e7c24"/><path d="M547.85546,429.24a26.14181,26.14181,0,0,1,2.54112,5.67129,42.60109,42.60109,0,0,1,1.44247,5.861,41.80994,41.80994,0,0,1,.61142,6.00446,25.83806,25.83806,0,0,1-.49729,6.19592,25.819,25.819,0,0,1-2.54639-5.67039,41.88125,41.88125,0,0,1-1.43768-5.86186,42.6702,42.6702,0,0,1-.60615-6.00536A26.14074,26.14074,0,0,1,547.85546,429.24Z" fill="#5e7c24"/><path d="M542.55215,437.8426a23.53584,23.53584,0,0,1,2.68259,4.97961,40.58041,40.58041,0,0,1,1.68656,5.16568,46.36964,46.36964,0,0,1,1.01856,5.29743c.11029.89915.21148,1.79326.27862,2.70464a20.12662,20.12662,0,0,0,.29636,2.76938,5.436,5.436,0,0,1-.65219-.41169l-.52942-.5305a9.78963,9.78963,0,0,1-.926-1.15822,18.55108,18.55108,0,0,1-1.42377-2.47794,27.59292,27.59292,0,0,1-1.86832-5.225,30.92845,30.92845,0,0,1-.87949-5.44045A20.48128,20.48128,0,0,1,542.55215,437.8426Z" fill="#5e7c24"/><path d="M572.45236,416.60775a33.83232,33.83232,0,0,1,5.97514-5.18132,55.37059,55.37059,0,0,1,6.60432-3.93822,54.39958,54.39958,0,0,1,7.081-2.99734,33.44564,33.44564,0,0,1,7.7159-1.74238,33.43621,33.43621,0,0,1-5.97179,5.18726,54.40388,54.40388,0,0,1-6.60767,3.93228,55.34762,55.34762,0,0,1-7.08386,2.99141A33.83018,33.83018,0,0,1,572.45236,416.60775Z" fill="#5e7c24"/><path d="M566.58319,427.5703a41.67712,41.67712,0,0,1,7.36967-4.82442,69.38893,69.38893,0,0,1,7.85976-3.52005,68.14927,68.14927,0,0,1,8.23046-2.533,41.20216,41.20216,0,0,1,8.72487-1.21619,41.2118,41.2118,0,0,1-7.3668,4.83065,68.16046,68.16046,0,0,1-7.86216,3.51381,69.37457,69.37457,0,0,1-8.23285,2.52673A41.67725,41.67725,0,0,1,566.58319,427.5703Z" fill="#5e7c24"/><path d="M559.67436,439.75557a35.54193,35.54193,0,0,1,6.64316-4.65783,58.40734,58.40734,0,0,1,7.15-3.35982,57.37171,57.37171,0,0,1,7.53319-2.37748,35.1313,35.1313,0,0,1,8.04439-1.067,35.14212,35.14212,0,0,1-6.64076,4.664,57.38127,57.38127,0,0,1-7.15243,3.35365,58.41635,58.41635,0,0,1-7.53559,2.3713A35.54049,35.54049,0,0,1,559.67436,439.75557Z" fill="#5e7c24"/><path d="M554.21425,449.1346a26.64429,26.64429,0,0,1,5.83464-3.84314,42.554,42.554,0,0,1,6.25088-2.51337,41.79084,41.79084,0,0,1,6.56643-1.50709,26.36188,26.36188,0,0,1,6.98652-.16466,26.36047,26.36047,0,0,1-5.83273,3.84944,41.78677,41.78677,0,0,1-6.25328,2.50706,42.53167,42.53167,0,0,1-6.56787,1.50068A26.65833,26.65833,0,0,1,554.21425,449.1346Z" fill="#5e7c24"/><path d="M549.90408,457.55028a35.04589,35.04589,0,0,1,6.41346-4.873,57.51537,57.51537,0,0,1,6.96685-3.59432,56.51373,56.51373,0,0,1,7.386-2.62671,34.65141,34.65141,0,0,1,7.94465-1.33578,34.63861,34.63861,0,0,1-6.41058,4.87914,56.49172,56.49172,0,0,1-6.96973,3.58833,57.50551,57.50551,0,0,1-7.38837,2.62048A35.04392,35.04392,0,0,1,549.90408,457.55028Z" fill="#5e7c24"/><path d="M574.35951,411.9411a24.66668,24.66668,0,0,1,.19134-7.87637,37.11311,37.11311,0,0,1,2.0069-7.16538,36.50478,36.50478,0,0,1,3.38224-6.62686,24.4203,24.4203,0,0,1,5.216-5.90909,24.40558,24.40558,0,0,1-.18223,7.87973,36.53725,36.53725,0,0,1-2.01553,7.162,37.11776,37.11776,0,0,1-3.39135,6.62343A24.6706,24.6706,0,0,1,574.35951,411.9411Z" fill="#5e7c24"/><path d="M156.92339,459.86074s23.68852-39.43423,27.4009-49.33391" fill="none" stroke="#8b9d36" stroke-miterlimit="10" stroke-width="0.98211"/><path d="M176.36942,389.8436a42.1924,42.1924,0,0,1,2.26874,7.60423,71.09275,71.09275,0,0,1,1.15954,7.70979,69.67587,69.67587,0,0,1,.31938,7.78963,41.621,41.621,0,0,1-.80085,7.89615,41.65947,41.65947,0,0,1-2.274-7.60381,69.787,69.787,0,0,1-1.15427-7.71027,71.08872,71.08872,0,0,1-.31411-7.79011A42.1548,42.1548,0,0,1,176.36942,389.8436Z" fill="#8b9d36"/><path d="M167.70689,401.68786a40.24374,40.24374,0,0,1,2.94394,7.1697,67.58855,67.58855,0,0,1,1.84961,7.37986,66.55636,66.55636,0,0,1,1.021,7.539,39.80388,39.80388,0,0,1-.0844,7.75121,39.7672,39.7672,0,0,1-2.94922-7.16868,66.5568,66.5568,0,0,1-1.84433-7.38094,67.70024,67.70024,0,0,1-1.01568-7.54A40.28244,40.28244,0,0,1,167.70689,401.68786Z" fill="#8b9d36"/><path d="M162.934,415.47668a34.147,34.147,0,0,1,2.50611,6.66419,56.72721,56.72721,0,0,1,1.40219,6.82173,55.77508,55.77508,0,0,1,.56731,6.9409,33.7153,33.7153,0,0,1-.54669,7.09992,33.71743,33.71743,0,0,1-2.51138-6.66348,55.68287,55.68287,0,0,1-1.39692-6.82244,56.72851,56.72851,0,0,1-.562-6.94168A34.1141,34.1141,0,0,1,162.934,415.47668Z" fill="#8b9d36"/><path d="M156.92333,429.24a26.14133,26.14133,0,0,1,2.54112,5.67129,42.60113,42.60113,0,0,1,1.44248,5.861,41.8128,41.8128,0,0,1,.61142,6.00446,25.83806,25.83806,0,0,1-.49729,6.19592,25.8181,25.8181,0,0,1-2.54639-5.67039,41.88125,41.88125,0,0,1-1.43768-5.86186,42.66871,42.66871,0,0,1-.60615-6.00536A26.14125,26.14125,0,0,1,156.92333,429.24Z" fill="#8b9d36"/><path d="M151.62,437.8426a23.53534,23.53534,0,0,1,2.68258,4.97961,40.582,40.582,0,0,1,1.68657,5.16568,46.36961,46.36961,0,0,1,1.01855,5.29743c.1103.89915.21148,1.79326.27862,2.70464a20.12662,20.12662,0,0,0,.29636,2.76938,5.436,5.436,0,0,1-.65218-.41169l-.52942-.5305a9.78973,9.78973,0,0,1-.926-1.15822,18.55218,18.55218,0,0,1-1.42377-2.47794,27.59288,27.59288,0,0,1-1.86831-5.225,30.92659,30.92659,0,0,1-.87949-5.44045A20.4809,20.4809,0,0,1,151.62,437.8426Z" fill="#8b9d36"/><path d="M181.52023,416.60775a33.83238,33.83238,0,0,1,5.97515-5.18132,55.37126,55.37126,0,0,1,6.60431-3.93822,54.4003,54.4003,0,0,1,7.081-2.99734,33.44553,33.44553,0,0,1,7.7159-1.74238,33.43656,33.43656,0,0,1-5.97179,5.18726,54.40464,54.40464,0,0,1-6.60767,3.93228,55.34883,55.34883,0,0,1-7.08386,2.99141A33.83015,33.83015,0,0,1,181.52023,416.60775Z" fill="#8b9d36"/><path d="M175.65106,427.5703a41.67712,41.67712,0,0,1,7.36967-4.82442,69.38828,69.38828,0,0,1,7.85977-3.52005,68.14856,68.14856,0,0,1,8.23045-2.533,41.20225,41.20225,0,0,1,8.72487-1.21619,41.21137,41.21137,0,0,1-7.36679,4.83065,68.15984,68.15984,0,0,1-7.86217,3.51381,69.37457,69.37457,0,0,1-8.23285,2.52673A41.67716,41.67716,0,0,1,175.65106,427.5703Z" fill="#8b9d36"/><path d="M168.74224,439.75557a35.54187,35.54187,0,0,1,6.64315-4.65783,58.40734,58.40734,0,0,1,7.15-3.35982,57.37185,57.37185,0,0,1,7.5332-2.37748,35.13116,35.13116,0,0,1,8.04439-1.067,35.14276,35.14276,0,0,1-6.64076,4.664,57.38073,57.38073,0,0,1-7.15244,3.35365,58.41586,58.41586,0,0,1-7.53559,2.3713A35.5404,35.5404,0,0,1,168.74224,439.75557Z" fill="#8b9d36"/><path d="M163.28212,449.1346a26.64453,26.64453,0,0,1,5.83464-3.84314,42.55411,42.55411,0,0,1,6.25089-2.51337,41.79032,41.79032,0,0,1,6.56643-1.50709,26.36179,26.36179,0,0,1,6.98651-.16466,26.36064,26.36064,0,0,1-5.83272,3.84944,41.78688,41.78688,0,0,1-6.25329,2.50706,42.53167,42.53167,0,0,1-6.56787,1.50068A26.65833,26.65833,0,0,1,163.28212,449.1346Z" fill="#8b9d36"/><path d="M158.972,457.55028a35.04582,35.04582,0,0,1,6.41345-4.873,57.51537,57.51537,0,0,1,6.96685-3.59432,56.51335,56.51335,0,0,1,7.386-2.62671,34.65132,34.65132,0,0,1,7.94464-1.33578,34.63861,34.63861,0,0,1-6.41058,4.87914,56.49231,56.49231,0,0,1-6.96972,3.58833,57.50565,57.50565,0,0,1-7.38838,2.62048A35.04393,35.04393,0,0,1,158.972,457.55028Z" fill="#8b9d36"/><path d="M183.42739,411.9411a24.66611,24.66611,0,0,1,.19134-7.87637,37.11311,37.11311,0,0,1,2.0069-7.16538,36.5035,36.5035,0,0,1,3.38224-6.62686,24.4203,24.4203,0,0,1,5.216-5.90909,24.40586,24.40586,0,0,1-.18223,7.87973,36.53659,36.53659,0,0,1-2.01554,7.162,37.11644,37.11644,0,0,1-3.39135,6.62343A24.67055,24.67055,0,0,1,183.42739,411.9411Z" fill="#8b9d36"/><path d="M153.24711,461.7108s1.06068-65.58538,13.78884-85.7383" fill="none" stroke="#50661a" stroke-miterlimit="10" stroke-width="0.98211"/><path d="M162.96946,384.74809a45.00833,45.00833,0,0,0,.29444-8.85674,79.62287,79.62287,0,0,0-.95718-8.5915c-.45844-2.83322-1.08233-5.63826-1.816-8.42-.73275-2.80007-1.65827-5.49411-2.6471-8.36365a12.27243,12.27243,0,0,0-.63348,2.202,19.6248,19.6248,0,0,0-.34623,2.23751,37.91663,37.91663,0,0,0-.19949,4.44168,57.02935,57.02935,0,0,0,.7994,8.705,63.26522,63.26522,0,0,0,2.0141,8.47587A39.85189,39.85189,0,0,0,162.96946,384.74809Z" fill="#50661a"/><path d="M178.52642,344.68246a31.82239,31.82239,0,0,0-5.5402,7.11839,50.02764,50.02764,0,0,0-3.71313,7.80216,49.16021,49.16021,0,0,0-2.33059,8.31971,31.47885,31.47885,0,0,0-.48626,9.01,31.47781,31.47781,0,0,0,5.54883-7.11515,49.11514,49.11514,0,0,0,3.7045-7.80546,50.02667,50.02667,0,0,0,2.322-8.32294A31.80558,31.80558,0,0,0,178.52642,344.68246Z" fill="#50661a"/><path d="M188.95656,360.80757a73.30588,73.30588,0,0,0-7.29582,6.72253c-2.25483,2.33742-4.40655,4.72712-6.51176,7.12977l-6.25473,7.178c-1.04925,1.17543-2.10952,2.33366-3.22974,3.43074a14.7477,14.7477,0,0,1-3.81671,2.88321,6.62477,6.62477,0,0,0,2.61209-.06624,12.22894,12.22894,0,0,0,2.51666-.79155,24.30415,24.30415,0,0,0,4.48232-2.57007,43.99176,43.99176,0,0,0,7.38357-6.83072,58.28763,58.28763,0,0,0,5.86725-8.01537A41.71569,41.71569,0,0,0,188.95656,360.80757Z" fill="#50661a"/><path d="M188.95656,376.93268a60.38112,60.38112,0,0,0-9.06966,5.57821,102.75057,102.75057,0,0,0-8.13743,6.61366,101.01451,101.01451,0,0,0-7.432,7.39731,59.70051,59.70051,0,0,0-6.49066,8.44259,59.6788,59.6788,0,0,0,9.07446-5.57329,100.93241,100.93241,0,0,0,8.1331-6.61858,102.74216,102.74216,0,0,0,7.42722-7.40222A60.37291,60.37291,0,0,0,188.95656,376.93268Z" fill="#50661a"/><path d="M187.8958,389.58456a59.70578,59.70578,0,0,0-9.16317,5.29911,101.54187,101.54187,0,0,0-8.25875,6.35848,99.79681,99.79681,0,0,0-7.57348,7.16017,59.03507,59.03507,0,0,0-6.65946,8.22956,59.00728,59.00728,0,0,0,9.168-5.294,99.73071,99.73071,0,0,0,8.254-6.36352,101.53749,101.53749,0,0,0,7.56916-7.1652A59.67792,59.67792,0,0,0,187.8958,389.58456Z" fill="#50661a"/><path d="M187.189,403.10825a55.50953,55.50953,0,0,0-9.17852,4.45265,94.003,94.003,0,0,0-8.34507,5.569,92.43683,92.43683,0,0,0-7.714,6.414,54.85312,54.85312,0,0,0-6.87238,7.54117,54.90289,54.90289,0,0,0,9.18235-4.44731,92.433,92.433,0,0,0,8.34123-5.57443,94.06394,94.06394,0,0,0,7.70967-6.41939A55.50864,55.50864,0,0,0,187.189,403.10825Z" fill="#50661a"/><path d="M187.8958,412.91953a61.75745,61.75745,0,0,0-9.6034,4.876,105.19842,105.19842,0,0,0-8.76083,5.98575,103.34932,103.34932,0,0,0-8.12352,6.82569,61.03233,61.03233,0,0,0-7.27232,7.9459,61.03682,61.03682,0,0,0,9.60723-4.87069,103.349,103.349,0,0,0,8.757-5.99109,105.17989,105.17989,0,0,0,8.1192-6.831A61.754,61.754,0,0,0,187.8958,412.91953Z" fill="#50661a"/><path d="M190.37074,422.11207a80.50994,80.50994,0,0,0-10.03835,5.57125c-3.18706,2.04023-6.27055,4.19705-9.27682,6.44817-3.01491,2.238-5.94638,4.57121-8.826,6.98213-2.90941,2.39024-5.65769,4.87975-8.66781,7.34522a24.27139,24.27139,0,0,0,5.62077-1.64029,54.9671,54.9671,0,0,0,5.21938-2.51277,85.6655,85.6655,0,0,0,9.59189-6.24177,98.90237,98.90237,0,0,0,8.71384-7.35337A62.64332,62.64332,0,0,0,190.37074,422.11207Z" fill="#50661a"/><path d="M193.37606,431.65822a82.7971,82.7971,0,0,0-10.90057,5.18013c-3.481,1.93922-6.85944,4.02141-10.16015,6.21318q-4.9518,3.28666-9.66478,6.91188-2.35578,1.81773-4.66647,3.70078a41.58405,41.58405,0,0,1-4.737,3.62717,9.15,9.15,0,0,0,3.06238-.52594c.98691-.29228,1.945-.64787,2.89263-1.01772,1.88989-.75025,3.716-1.6084,5.50711-2.51774a104.51156,104.51156,0,0,0,10.32511-6.09108,118.03078,118.03078,0,0,0,9.6106-7.1224A73.05038,73.05038,0,0,0,193.37606,431.65822Z" fill="#50661a"/><path d="M159.92242,395.979a48.8604,48.8604,0,0,0-1.40891-9.45366,82.10082,82.10082,0,0,0-2.71711-8.97507,80.81193,80.81193,0,0,0-3.70785-8.6129,48.334,48.334,0,0,0-5.02853-8.12975,48.3386,48.3386,0,0,0,1.4022,9.45594,80.81087,80.81087,0,0,0,2.72382,8.97279,82.21128,82.21128,0,0,0,3.71409,8.61062A48.86,48.86,0,0,0,159.92242,395.979Z" fill="#50661a"/><path d="M157.8268,407.01769a49.92683,49.92683,0,0,0-2.71327-9.27689,84.07429,84.07429,0,0,0-3.94571-8.62734,82.67468,82.67468,0,0,0-4.87891-8.1358,49.39429,49.39429,0,0,0-6.12333-7.48009,49.39559,49.39559,0,0,0,2.707,9.28,82.77563,82.77563,0,0,0,3.95194,8.62423,84.17807,84.17807,0,0,0,4.88466,8.13269A49.9902,49.9902,0,0,0,157.8268,407.01769Z" fill="#50661a"/><path d="M156.24094,417.69257a54.68746,54.68746,0,0,0-3.9716-9.31333,92.67383,92.67383,0,0,0-5.12588-8.53323,91.05062,91.05062,0,0,0-6.00008-7.94273,54.0754,54.0754,0,0,0-7.16539-7.15519,54.07071,54.07071,0,0,0,3.96633,9.31711,90.93849,90.93849,0,0,0,5.13163,8.52945,92.572,92.572,0,0,0,6.00536,7.93907A54.68979,54.68979,0,0,0,156.24094,417.69257Z" fill="#50661a"/><path d="M155.079,429.46981a70.51866,70.51866,0,0,0-5.686-9.99572q-3.17006-4.73088-6.765-9.11384-3.58293-4.3928-7.58115-8.44643a69.42442,69.42442,0,0,0-8.6702-7.55622,69.41857,69.41857,0,0,0,5.68071,9.99993q3.17,4.73059,6.76976,9.10964,3.59155,4.3864,7.58642,8.44223A70.43147,70.43147,0,0,0,155.079,429.46981Z" fill="#50661a"/><path d="M154.13573,441.6823a71.21561,71.21561,0,0,0-6.73331-9.39575q-3.66422-4.39864-7.71542-8.40693-4.03971-4.01946-8.45777-7.6586a70.13852,70.13852,0,0,0-9.449-6.6603,70.14041,70.14041,0,0,0,6.72852,9.40043q3.66422,4.3982,7.71974,8.40226,4.0476,4.01219,8.46255,7.65386A71.18846,71.18846,0,0,0,154.13573,441.6823Z" fill="#50661a"/><path d="M153.56171,449.513a62.0639,62.0639,0,0,0-7.31548-7.943,105.74081,105.74081,0,0,0-8.15564-6.8315,103.8717,103.8717,0,0,0-8.79153-5.99037,61.35139,61.35139,0,0,0-9.64032-4.8683,61.36826,61.36826,0,0,0,7.31164,7.94824,103.95138,103.95138,0,0,0,8.15949,6.82623,105.814,105.814,0,0,0,8.79584,5.985A62.07711,62.07711,0,0,0,153.56171,449.513Z" fill="#50661a"/><path d="M153.24713,456.05389a65.69957,65.69957,0,0,0-8.54648-7.106q-4.4828-3.18677-9.23846-5.8965-4.74823-2.72307-9.76213-4.98123a64.92844,64.92844,0,0,0-10.46082-3.76024,64.93871,64.93871,0,0,0,8.5436,7.11173q4.4828,3.18641,9.24134,5.89075,4.75326,2.71436,9.76548,4.97553A65.70991,65.70991,0,0,0,153.24713,456.05389Z" fill="#50661a"/><path d="M153.49122,460.29656a70.9554,70.9554,0,0,0-9.999-5.75935c-3.43068-1.65624-6.92849-3.13192-10.48337-4.453q-5.3316-1.98334-10.84974-3.46425a69.92183,69.92183,0,0,0-11.33935-2.14525,69.92189,69.92189,0,0,0,9.99662,5.76559q5.14674,2.48381,10.48577,4.44671c3.55679,1.31588,7.17113,2.47722,10.85213,3.458A70.9448,70.9448,0,0,0,153.49122,460.29656Z" fill="#50661a"/><path d="M152.19387,459.70566s-23.68852-39.43423-27.4009-49.33391" fill="none" stroke="#5e7c24" stroke-miterlimit="10" stroke-width="0.98211"/><path d="M132.69845,389.8436a42.19156,42.19156,0,0,0-2.26873,7.60423,71.09032,71.09032,0,0,0-1.15955,7.70979,69.67587,69.67587,0,0,0-.31937,7.78963,41.621,41.621,0,0,0,.80084,7.89615,41.65872,41.65872,0,0,0,2.274-7.60381,69.787,69.787,0,0,0,1.15427-7.71027,71.08871,71.08871,0,0,0,.3141-7.79011A42.154,42.154,0,0,0,132.69845,389.8436Z" fill="#5e7c24"/><path d="M141.361,401.68786a40.24449,40.24449,0,0,0-2.94394,7.1697,67.58855,67.58855,0,0,0-1.84961,7.37986,66.55634,66.55634,0,0,0-1.02095,7.539,39.80388,39.80388,0,0,0,.0844,7.75121,39.76715,39.76715,0,0,0,2.94921-7.16868,66.55907,66.55907,0,0,0,1.84434-7.38094,67.69787,67.69787,0,0,0,1.01567-7.54A40.28083,40.28083,0,0,0,141.361,401.68786Z" fill="#5e7c24"/><path d="M146.13391,415.47668a34.14632,34.14632,0,0,0-2.50611,6.66419,56.72725,56.72725,0,0,0-1.4022,6.82173,55.77507,55.77507,0,0,0-.5673,6.9409,33.71528,33.71528,0,0,0,.54668,7.09992,33.71748,33.71748,0,0,0,2.51139-6.66348,55.68475,55.68475,0,0,0,1.39692-6.82244,56.72851,56.72851,0,0,0,.562-6.94168A34.11409,34.11409,0,0,0,146.13391,415.47668Z" fill="#5e7c24"/><path d="M152.14454,429.24a26.14181,26.14181,0,0,0-2.54112,5.67129,42.60109,42.60109,0,0,0-1.44247,5.861,41.80994,41.80994,0,0,0-.61142,6.00446,25.83806,25.83806,0,0,0,.49729,6.19592,25.819,25.819,0,0,0,2.54639-5.67039,41.88125,41.88125,0,0,0,1.43768-5.86186,42.6702,42.6702,0,0,0,.60615-6.00536A26.14074,26.14074,0,0,0,152.14454,429.24Z" fill="#5e7c24"/><path d="M157.44785,437.8426a23.53584,23.53584,0,0,0-2.68259,4.97961,40.58041,40.58041,0,0,0-1.68656,5.16568,46.36964,46.36964,0,0,0-1.01856,5.29743c-.11029.89915-.21148,1.79326-.27862,2.70464a20.12662,20.12662,0,0,1-.29636,2.76938,5.436,5.436,0,0,0,.65219-.41169l.52942-.5305a9.78963,9.78963,0,0,0,.926-1.15822,18.55108,18.55108,0,0,0,1.42377-2.47794,27.59292,27.59292,0,0,0,1.86832-5.225,30.92845,30.92845,0,0,0,.87949-5.44045A20.48128,20.48128,0,0,0,157.44785,437.8426Z" fill="#5e7c24"/><path d="M127.54764,416.60775a33.83232,33.83232,0,0,0-5.97514-5.18132,55.37059,55.37059,0,0,0-6.60432-3.93822,54.39958,54.39958,0,0,0-7.081-2.99734,33.44564,33.44564,0,0,0-7.7159-1.74238,33.43621,33.43621,0,0,0,5.97179,5.18726,54.40388,54.40388,0,0,0,6.60767,3.93228,55.34762,55.34762,0,0,0,7.08386,2.99141A33.83018,33.83018,0,0,0,127.54764,416.60775Z" fill="#5e7c24"/><path d="M133.41681,427.5703a41.67712,41.67712,0,0,0-7.36967-4.82442,69.38893,69.38893,0,0,0-7.85976-3.52005,68.14927,68.14927,0,0,0-8.23046-2.533,41.20216,41.20216,0,0,0-8.72487-1.21619,41.2118,41.2118,0,0,0,7.3668,4.83065,68.16046,68.16046,0,0,0,7.86216,3.51381,69.37457,69.37457,0,0,0,8.23285,2.52673A41.67725,41.67725,0,0,0,133.41681,427.5703Z" fill="#5e7c24"/><path d="M140.32564,439.75557a35.54193,35.54193,0,0,0-6.64316-4.65783,58.40734,58.40734,0,0,0-7.15-3.35982,57.37171,57.37171,0,0,0-7.53319-2.37748,35.1313,35.1313,0,0,0-8.04439-1.067,35.14212,35.14212,0,0,0,6.64076,4.664,57.38127,57.38127,0,0,0,7.15243,3.35365,58.41635,58.41635,0,0,0,7.53559,2.3713A35.54049,35.54049,0,0,0,140.32564,439.75557Z" fill="#5e7c24"/><path d="M145.78575,449.1346a26.64429,26.64429,0,0,0-5.83464-3.84314,42.554,42.554,0,0,0-6.25088-2.51337,41.79084,41.79084,0,0,0-6.56643-1.50709,26.36188,26.36188,0,0,0-6.98652-.16466,26.36047,26.36047,0,0,0,5.83273,3.84944,41.78677,41.78677,0,0,0,6.25328,2.50706,42.53167,42.53167,0,0,0,6.56787,1.50068A26.65833,26.65833,0,0,0,145.78575,449.1346Z" fill="#5e7c24"/><path d="M150.09592,457.55028a35.04589,35.04589,0,0,0-6.41346-4.873,57.51537,57.51537,0,0,0-6.96685-3.59432,56.51373,56.51373,0,0,0-7.386-2.62671,34.65141,34.65141,0,0,0-7.94465-1.33578,34.63861,34.63861,0,0,0,6.41058,4.87914,56.49172,56.49172,0,0,0,6.96973,3.58833,57.50551,57.50551,0,0,0,7.38837,2.62048A35.04392,35.04392,0,0,0,150.09592,457.55028Z" fill="#5e7c24"/><path d="M125.64049,411.9411a24.66668,24.66668,0,0,0-.19134-7.87637,37.11311,37.11311,0,0,0-2.0069-7.16538,36.50478,36.50478,0,0,0-3.38224-6.62686,24.4203,24.4203,0,0,0-5.216-5.90909,24.40558,24.40558,0,0,0,.18223,7.87973,36.53725,36.53725,0,0,0,2.01553,7.162,37.11776,37.11776,0,0,0,3.39135,6.62343A24.6706,24.6706,0,0,0,125.64049,411.9411Z" fill="#5e7c24"/><path d="M275.85688,230.33584l4.65922-1.52185s1.93358,12.65072,17.4375,22.28255c30.17785,13.225,30.90268,10.18217,33.042,3.93349a2.45949,2.45949,0,0,0-1.15725-2.93681l-24.81765-13.63706S273.475,228.98838,275.85688,230.33584Z" fill="#f9977a"/><path d="M276.91091,362.11917l-1.99119-14.37238s21.99007-15.18081,31.7514-8.52522l-2.96281,107.03436c-7.25339,11.98381-16.46737,5.91828-16.46737,5.91828l-4.92379-64.93437-43.25034,28.22961-5.39461,3.324c-13.95513,1.21686-14.23433-8.56439-14.23433-8.56439Z" fill="#f9977a"/><path d="M276.91072,362.11915a8.89754,8.89754,0,0,0,1.7511.373,5.15473,5.15473,0,0,0,1.67218-.10364,8.11142,8.11142,0,0,0,1.62354-.54357c.52911-.24817,1.07068-.51331,1.61261-.83448a4.776,4.776,0,0,1-3.066,2.1814,3.90111,3.90111,0,0,1-1.9665-.07312A3.638,3.638,0,0,1,276.91072,362.11915Z" fill="#dd765e"/><path d="M302.82588,343.46143c.16944,4.4491.24884,8.89819.31458,13.34729.04938,2.22461.04022,4.4491.05859,6.67371a18.88891,18.88891,0,0,1-1.09869,6.68383,18.66989,18.66989,0,0,1-3.47064,5.82239,52.45419,52.45419,0,0,1-4.73474,4.75647c-3.3429,2.91968-7.169,5.59827-11.57795,6.49475a20.84011,20.84011,0,0,0,5.97834-2.83349,37.34248,37.34248,0,0,0,5.175-4.1294,65.90087,65.90087,0,0,0,4.59436-4.77832,18.49749,18.49749,0,0,0,4.38794-12.01623c.01844-2.22461.00928-4.4491.05866-6.67371C302.577,352.35962,302.65639,347.91053,302.82588,343.46143Z" fill="#dd765e"/><path d="M302.82586,280.71132l5.62022,58.51029h-5.62022v5.17651l-36.97509,4.437-1.9227-30.61537-9.18918-18.0294a20.99261,20.99261,0,0,1-2.27189-10.38493l.66434-16.35018Z" fill="#ffba55"/><path d="M226.51423,404.30553s-14.09863-.61977-16.47672,7.22847a2.74144,2.74144,0,0,0,.43234,2.417L236.7,449.42516a1.43831,1.43831,0,0,0,2.13357.19471c1.69562-1.55323,4.40269-4.85385,3.388-9.458-1.4428-6.54636-8.18359-8.79626-7.118-22.25031C235.10344,417.91156,224.31821,411.055,226.51423,404.30553Z" fill="#935b50"/><path d="M286.45818,442.80194s-8.89882,11.11553-3.96654,17.66707a2.74147,2.74147,0,0,0,2.20637,1.07742l44.11775-.23951a1.4383,1.4383,0,0,0,1.41634-1.60748c-.2532-2.2855-1.32011-6.41879-5.63583-8.31681-6.13625-2.69869-10.48959,2.16415-20.722-6.63616C303.87431,444.74647,290.61091,448.55807,286.45818,442.80194Z" fill="#935b50"/><path d="M280.39513,135.36232a19.70774,19.70774,0,0,1,9.20521.789c1.38856.49234,6.46713,2.29294,8.94247,7.10124.94016,1.82609,1.15259,4.02282,1.578,8.41629.26568,2.74424,1.32259,4.70968,1.321,8.05672a28.27654,28.27654,0,0,1-1.321,7.98683c-1.23073,4.04615-.43824,6.34492-1.052,7.10125-2.47347,3.0482-9.98254.65652-10.09532,4.63412-.06964,2.45607,4.07563,13.059,3.991,15.93627-.1972,6.70481-11.394-.312-18.0926-10.313-.304-.45389-4.88326-3.13451-4.40408-7.47846.256-2.3206,2.22625-13.20939,2.0371-14.6143-.68412-5.07792-3.24293-5.69719-5.26023-11.83541a9.54774,9.54774,0,0,1,1.578-9.20531A19.50259,19.50259,0,0,1,280.39513,135.36232Z" fill="#f9977a"/><ellipse cx="299.06487" cy="155.97565" rx="1.03107" ry="1.28217" fill="#0a0709"/><ellipse cx="289.76831" cy="155.97565" rx="1.03107" ry="1.28217" fill="#0a0709"/><path d="M294.16121,153.67957a.65051.65051,0,0,1-.35547-1.19629,6.914,6.914,0,0,1,7.71582.02637.65039.65039,0,0,1-.78125,1.04h0a5.5063,5.5063,0,0,0-6.22558.02539A.64514.64514,0,0,1,294.16121,153.67957Z" fill="#1e1d22"/><path d="M284.52645,153.67957a.65051.65051,0,0,1-.35547-1.19629,6.91283,6.91283,0,0,1,7.71679.02637.651.651,0,0,1-.7832,1.04h0a5.508,5.508,0,0,0-6.22461.02539A.64509.64509,0,0,1,284.52645,153.67957Z" fill="#1e1d22"/><path d="M293.2751,153.94507a5.81778,5.81778,0,0,0,.56293,3.10559,12.95372,12.95372,0,0,0,1.61774,2.74366l.5205.62024a1.26364,1.26364,0,0,1,.33374.86853,2.06783,2.06783,0,0,1-.87579,1.49377,3.73118,3.73118,0,0,1-3.20947.40674,4.00524,4.00524,0,0,0,2.99792-.6648,1.85615,1.85615,0,0,0,.69251-1.24c.03369-.43591-.4585-.7677-.79578-1.2113a11.8045,11.8045,0,0,1-1.58533-2.88293A5.10507,5.10507,0,0,1,293.2751,153.94507Z" fill="#dd765e"/><path d="M276.38057,154.37891a3.91563,3.91563,0,0,0-.98773.48792,4.76358,4.76358,0,0,0-.8244.68908,15.47063,15.47063,0,0,0-1.42035,1.70191c.04162-.1886.10956-.36743.16516-.55432l.24957-.52234a4.78061,4.78061,0,0,1,.70136-.93384A2.707,2.707,0,0,1,276.38057,154.37891Z" fill="#dd765e"/><path d="M275.54286,159.72559a7.903,7.903,0,0,0-.02624-2.3811,5.32513,5.32513,0,0,0-.28668-1.13758c-.11847-.37951-.3014-.73388-.46564-1.11975a3.46878,3.46878,0,0,1,.7713.98572,4.17085,4.17085,0,0,1,.40869,1.20142A3.76558,3.76558,0,0,1,275.54286,159.72559Z" fill="#dd765e"/><path d="M281.85011,164.5042s-1.708-7.37352-1.39534-9.48453c.436-2.94159.654-4.4123.30168-5.60939-.56385-1.9161.36992-2.1656,1.57085-4.2248,1.12712-1.93265,4.61923-.36822,5.49069-.69034,2.44587-.90422,2.35541-1.93411,4.009-2.03693,1.696-.10545,2.94053-.55349,4.03612.54071,1.11731,1.11686,3.16773,4.08563,3.67332,3.57059a9.66418,9.66418,0,0,0,1.89139-4.87211,10.71256,10.71256,0,0,0-1.201-5.00637c-.40144-.89329-1.89638-4.21779-5.009-5.10532-1.79274-.51127-2.13671.35214-6.0147.58165-4.02226.23818-4.14713-.66117-6.25359-.06248-2.33174.66284-2.243,1.78248-6.22781,3.95916a41.25832,41.25832,0,0,1-4.06815,1.87544c-5.00259,2.11839-5.65682,1.77967-6.80734,2.89145-2.48038,2.39693-2.07537,6.51821-1.97755,7.51369.27566,2.80365,1.37034,3.64616,3.75123,8.13732,3.77,7.11239,3.01348,10.101,4.39517,11.09827.67781.48922,4.25393-2.05294,4.23736-3.30562-.02151-1.64209-1.20463-2.16025-2.598-4.53367-.97313-1.65874-2.37095-4.04019-1.56642-6.199.48685-1.305,1.03005-.948,2.38216-.8226,1.83508.17014,2.73784,2.72637,3.47364,4.60245a10.042,10.042,0,0,1,.671,4.26982C278.42048,164.838,282.48226,165.79671,281.85011,164.5042Z" fill="#1e1d22"/><path d="M290.08437,167.71483s4.06075,3.78743,7.692,0" fill="#0a0709"/><path d="M290.887,186.97248s10.164,29.63973-20.30345-10.29336l-9.44625,7.84216a23.59382,23.59382,0,0,0-7.97177,13.08248l-8.31665,37.7918h10.94463l-2.66221,38.05969,51.32143,7.49362S303.166,208.03776,290.887,186.97248Z" fill="#f73c4f"/><path d="M268.28548,236.40052l-3.49932,19.4408,13.45924,31.94659,5.98919,5.62028a29.97961,29.97961,0,0,1-7.30113,15.22675s-4.01286-7.3882-3.71717-15.0789L248.829,265.4532a18.15978,18.15978,0,0,1-4.20985-14.80889l2.41887-14.91742S261.13559,230.56639,268.28548,236.40052Z" fill="#f9977a"/><path d="M302.82588,339.22156c-.39093-3.28344-.692-6.573-.97943-9.86352-.28937-3.29029-.505-6.58557-.76111-9.87818-.18975-3.29712-.41491-6.59179-.57147-9.891-.15576-3.29944-.2987-6.59961-.35022-9.906.39221,3.28344.69293,6.573.98084,9.86352.28717,3.29041.50573,6.58557.7597,9.8783.18756,3.29724.41565,6.59167.57,9.89111C302.63045,332.61512,302.77309,335.91529,302.82588,339.22156Z" fill="#e6952a"/><path d="M297.79726,270.00428c-1.001-.37207-1.98425-.79383-2.98175-1.19178q-1.44041-.70844-2.87061-1.45458a35.20215,35.20215,0,0,1-5.29345-3.69166,24.17763,24.17763,0,0,1-4.30726-4.82873,13.60634,13.60634,0,0,1-2.295-5.98975,12.007,12.007,0,0,0,1.152,2.95252,19.452,19.452,0,0,0,1.66254,2.67724,26.56308,26.56308,0,0,0,4.32537,4.56861A41.597,41.597,0,0,0,292.268,266.818l2.72943,1.63782C295.92714,268.9712,296.87111,269.4629,297.79726,270.00428Z" fill="#b02336"/><path d="M267.034,184.222s14.617,2.0706,11.1539,22.48085-5.31157,29.58007-5.31157,29.58007l-28.02739-.8874" fill="#f73c4f"/><path d="M267.034,184.22205a14.14429,14.14429,0,0,1,10.66138,9.06274,20.26167,20.26167,0,0,1,.98553,3.53919c.10755.60242.13715,1.2157.20923,1.82385a12.28428,12.28428,0,0,1,.11682,1.83069,39.45361,39.45361,0,0,1-.64117,7.28162l-2.52045,14.3059-2.61694,14.28785-.0545.29785-.309-.00989c-4.6712-.14783-9.33978-.379-14.00976-.56555-4.67-.18579-9.33734-.45667-14.00614-.68079,4.67362.07166,9.34873.09668,14.02115.20667,4.67243.10925,9.34632.17395,14.01752.32178l-.36334.288L275.04,221.91614l2.61218-14.27783a43.5373,43.5373,0,0,0,.7204-7.151,11.82234,11.82234,0,0,0-.07685-1.78919c-.05816-.59375-.07361-1.19543-.16614-1.78417a19.7485,19.7485,0,0,0-.88671-3.46045,14.55847,14.55847,0,0,0-3.87677-5.92933A13.83837,13.83837,0,0,0,267.034,184.22205Z" fill="#b02336"/><path d="M284.68343,286.07605a30.57807,30.57807,0,0,1-.34644,7.89661,33.36393,33.36393,0,0,1-2.27228,7.61389,26.28881,26.28881,0,0,1-4.27374,6.70581,23.96781,23.96781,0,0,1-6.1228,4.99744q.762-.6341,1.53039-1.24292l.76551-.61121c.24737-.2124.46557-.45959.69909-.68689l1.39881-1.36242c.4259-.49146.83008-1.0022,1.245-1.50049a27.89508,27.89508,0,0,0,4.008-6.63318,36.5341,36.5341,0,0,0,2.40417-7.39856c.27423-1.2738.50171-2.56055.65027-3.85925A34.80254,34.80254,0,0,0,284.68343,286.07605Z" fill="#e6952a"/><path d="M292.22463,176.91313l.002.00121c-1.79058.29428-3.20483.82608-3.253,2.53341a14.37883,14.37883,0,0,0,.65958,3.31456c-3.96872-.25728-7.02029-8.57737-7.02029-8.57737C285.06632,177.7346,292.22463,176.91313,292.22463,176.91313Z" fill="#dd765e"/><path d="M483.3907,368.96473c-.41015-.17383-1.07129-.39161-1.90918-.668-6.10449-2.01172-22.31738-7.35645-36.13672-26.43164a96.76577,96.76577,0,0,1-11.35937-20.27442c-2.27246-5.19531-4.23535-9.68261-8.74121-15.20312-8.35449-10.23731-23.39453-16.89942-44.7041-19.80176-.49121-.06641-.88965-.12109-1.18457-.166-8.33789-1.27539-13.86133-5.11523-20.377-14.17089l.666-.48047c6.37012,8.85156,11.74609,12.60254,19.83594,13.83886.291.04493.68457.09864,1.1709.16407,21.52148,2.93164,36.73925,9.69336,45.22949,20.09668,4.57617,5.60742,6.56054,10.14257,8.85742,15.39257a95.97284,95.97284,0,0,0,11.27246,20.12208c13.66309,18.86035,29.69336,24.14453,35.72754,26.13378.85644.28223,1.53223.50489,1.97266.69239Z" fill="#b02336"/><path d="M316.067,256.17162l14.83991,9.50764s3.83857,1.444,11.32033,1.75c2.75716.11276,11.04475-1.67289,6.99369-6.036a18.76277,18.76277,0,0,0-12.147-6.086c-.78156-.13813-5.92374-1.544-5.92374-1.544Z" fill="#f9977a"/><path d="M318.72938,255.67917s3.58324-3.1895,14.16347-3.13334,18.90059,1.22807,11.63,2.892l-5.56143,1.17625Z" fill="#f9977a"/><path d="M360.15535,272.4198H329.14168l.2041-.55371c2.56543-6.957,6.16895-10.8457,10.71-11.55859,9.34961-1.47656,19.165,10.91992,19.5791,11.44824Zm-29.83008-.82226H358.4366c-2.19922-2.57422-10.57812-11.67774-18.25488-10.47852C336.07625,261.76453,332.7618,265.288,330.32527,271.59754Z" fill="#b02336"/><path d="M332.0552,266.03131l1.29862-1.946a3.18487,3.18487,0,0,1,1.58562-1.78111l5.78387-2.78213a2.86179,2.86179,0,0,1,2.02344-.17737l5.40917,1.51911a4.04794,4.04794,0,0,1,2.56085,2.97223l-.4004.39928s-7.08411,4.42495-11.29177,3.15526Z" fill="#f9977a"/><path d="M345.75661,260.10486a18.94568,18.94568,0,0,1,.37775,3.47913c.00756.5824.01019,1.1654-.03565,1.74878a11.00478,11.00478,0,0,1-.22919,1.74328c-.147-1.16784-.21008-2.31982-.24334-3.48059A25.65932,25.65932,0,0,1,345.75661,260.10486Z" fill="#dd765e"/><path d="M341.36611,259.53284a26.08657,26.08657,0,0,1,.53039,4.13159c.03229.693.05512,1.38745.03027,2.08326a12.56471,12.56471,0,0,1-.19384,2.08239c-.14685-1.38708-.26862-2.75683-.34406-4.13855A37.74581,37.74581,0,0,1,341.36611,259.53284Z" fill="#dd765e"/><path d="M337.67275,261.16443a12.88347,12.88347,0,0,1,.21808,2.88745,13.015,13.015,0,0,1-.11792,1.44251,7.59928,7.59928,0,0,1-.31177,1.42444,24.86919,24.86919,0,0,1-.07843-2.88172A17.783,17.783,0,0,1,337.67275,261.16443Z" fill="#dd765e"/><path d="M350.45394,263.531a20.34107,20.34107,0,0,0-2.18555-1.48144,16.47451,16.47451,0,0,0-2.31757-1.19751,11.04821,11.04821,0,0,0-4.96875-.98487,8.39035,8.39035,0,0,0-4.64947,1.79383,17.32017,17.32017,0,0,0-3.51013,3.858,12.79378,12.79378,0,0,1,3.10937-4.3468,8.21222,8.21222,0,0,1,5.0014-2.12488,10.25106,10.25106,0,0,1,5.28431,1.23486A14.77129,14.77129,0,0,1,350.45394,263.531Z" fill="#dd765e"/><path d="M417.21013,439.46535l1.7624,22.24545h10.45163s-2.31388-5.10264-6.107-4.50274c0,0,3.81129-18.64617,4.36755-27.16973C427.68469,430.03833,416.35228,429.4373,417.21013,439.46535Z" fill="#98999d"/><path d="M494.30311,413.331l-1.1832,43.8771s6.70481,1.64334,7.29641,4.50274l-12.629-1.09919-4.133-46.196S492.72551,409.28835,494.30311,413.331Z" fill="#98999d"/><path d="M381.11,437.29081l13.40963-29.97447s6.70482-31.55207,39.4401-35.10168c20.1485-2.18478,32.52748-3.22531,39.06816-3.70248a13.05845,13.05845,0,0,0,9.5077-5.20557l4.64175-6.20232a26.44708,26.44708,0,0,1,24.432-10.56013,16.03368,16.03368,0,0,1,4.58281,1.19488c6.9022,3.178,6.212,6.32935,6.212,6.32935l14.19843,1.44664s-2.267,9.60041-5.57052,9.00881c0,0,7.92057,5.32441-13.6647,5.32441l-5.31624,4.73281s0,31.35488-17.748,38.7499l-1.7748.8874s-6.21182,43.1869-8.28242,43.1869c0,0,7.69081,1.05174,8.874,4.30554l-14.49424-.16433-2.958-47.62391s-22.48086,3.2538-34.31289-.88741a50.23025,50.23025,0,0,1-18.93124,20.70605,12.48308,12.48308,0,0,0-6.21182,12.42363c.88741,8.874.2958,10.94463.2958,10.94463s4.437,1.93914,5.916,4.60134H411.18311l-3.25381-33.88561,7.69082-5.32441-2.3664-15.38164S411.87331,435.31881,381.11,437.29081Z" fill="#f1ece6"/><path d="M498.44432,334.6151s10.47446,7.61354,12.23785,13.46959l-14.037,1.13749Z" fill="#464b51"/><path d="M504.84482,348.55655l-8.20023.6656,1.7994-14.60929s.18075.13139.50953.38616C500.48994,337.12721,504.286,342.89534,504.84482,348.55655Z" fill="#f4bbb8"/><path d="M531.03206,364.52381a12.76754,12.76754,0,0,1-4.0625.74695,11.6302,11.6302,0,0,1-2.076-.11475,5.629,5.629,0,0,1-1.9964-.6322c.69721.04162,1.36646-.00025,2.03675-.00781l2.012-.06617A32.86249,32.86249,0,0,1,531.03206,364.52381Z" fill="#98999d"/><path d="M535.40877,359.35691c-3.26444.35469-4.37668-4.40944-4.37668-4.40944l5.57052.56756S537.26626,356.11571,535.40877,359.35691Z" fill="#464b51"/><path d="M518.5283,348.97859h0a7.914,7.914,0,0,0-6.10287,4.858l-6.06476,15.04617a7.91393,7.91393,0,0,0-.569,3.23483l.975,27.92077s-10.88595-18.35811-13.05515-8.49809l-.52654,10.09194a13.04682,13.04682,0,0,1-13.258,12.365l-4.25934-.07472h0a7.6458,7.6458,0,0,0-10.01292-6.29117,132.95009,132.95009,0,0,1-24.3,5.40377,37.14161,37.14161,0,0,1-10.57312,14.29707s-13.68253-1.972-15.16154-4.83144l-2.3664-15.38164s-.35365,13.53884-10.0153,21.3526c0,0,5.33608-16.902-12.53736-12.61968l.71065-1.58851,3.108-6.94721s6.70482-31.55207,39.4401-35.10168c20.1485-2.18478,32.52748-3.22531,39.06816-3.70248a13.05845,13.05845,0,0,0,9.5077-5.20557l4.64175-6.20232a26.44708,26.44708,0,0,1,24.432-10.56013,16.03368,16.03368,0,0,1,4.58281,1.19488" fill="#464b51"/><path d="M514.27665,354.94747s2.11291-2.85491,6.05692-.87908" fill="#464b51"/><path d="M505.4532,379.09266c-14.96679,0-24.21386-14.75586-24.31836-14.92676a1.64331,1.64331,0,0,1,2.80079-1.71973c.4414.71582,11.00781,17.4961,27.63574,12.417a1.64376,1.64376,0,1,1,.959,3.14454A24.163,24.163,0,0,1,505.4532,379.09266Z" fill="#b02336"/><circle cx="514.22179" cy="377.45581" r="3.53963" fill="#ffba55"/></svg>