<svg xmlns="http://www.w3.org/2000/svg" viewBox="0 0 499.65741 331.28432"><title>Asset 12</title><g id="Layer_2" data-name="Layer 2"><g id="Layer_1-2" data-name="Layer 1"><path d="M33.9171,215.6393C45.50261,278.96894,179.246,383.07416,224.39374,299.29973,248.1585,255.20253,318.6164,191.511,372.91492,153.623c52.79763-36.84113-96.8646-100.78553-190.47629-83.66021S22.33158,152.30967,33.9171,215.6393Z" fill="#efedef"/><path d="M16.47038,217.36735c-6.18066-33.78418,7.43653-69.085,38.34375-99.39942,30.84961-30.25976,75.25-51.93847,125.02246-61.043,37.41993-6.84571,87.78711-2.16309,134.72852,12.52539,44.84277,14.03222,77.46875,34.18554,85.14648,52.59668,4.291,10.29.65528,19.84863-10.51464,27.64257l-.62891-.90234c10.8457-7.56836,14.25391-16.42285,10.12793-26.31641-7.55566-18.11914-39.91895-38.0332-84.46-51.96972-46.7793-14.63867-96.94629-19.3086-134.20215-12.49414C130.47624,67.0734,86.279,88.64665,55.58464,118.75309,24.946,148.80387,11.44011,183.756,17.55241,217.17008Z" fill="#efedef"/><line x1="2.90745" y1="330.28432" x2="496.74996" y2="330.28432" fill="none" stroke="#935b50" stroke-linecap="round" stroke-linejoin="round" stroke-width="2"/><path d="M442.90531,328.43427S419.21679,289,415.50441,279.10035" fill="none" stroke="#8b9d36" stroke-miterlimit="10" stroke-width="0.98211"/><path d="M423.45928,258.41712a42.19156,42.19156,0,0,0-2.26873,7.60423,71.09032,71.09032,0,0,0-1.15955,7.70979,69.67587,69.67587,0,0,0-.31937,7.78963,41.621,41.621,0,0,0,.80084,7.89615,41.65872,41.65872,0,0,0,2.274-7.60381,69.787,69.787,0,0,0,1.15427-7.71027,71.08871,71.08871,0,0,0,.3141-7.79011A42.154,42.154,0,0,0,423.45928,258.41712Z" fill="#8b9d36"/><path d="M432.12181,270.26138a40.24449,40.24449,0,0,0-2.94394,7.1697,67.58855,67.58855,0,0,0-1.84961,7.37986,66.55665,66.55665,0,0,0-1.021,7.539,39.80388,39.80388,0,0,0,.0844,7.75121,39.76715,39.76715,0,0,0,2.94921-7.16868,66.55907,66.55907,0,0,0,1.84434-7.38094,67.69787,67.69787,0,0,0,1.01567-7.54A40.28083,40.28083,0,0,0,432.12181,270.26138Z" fill="#8b9d36"/><path d="M436.89474,284.0502a34.14657,34.14657,0,0,0-2.50611,6.66419,56.72531,56.72531,0,0,0-1.4022,6.82173,55.77522,55.77522,0,0,0-.5673,6.9409,33.71528,33.71528,0,0,0,.54668,7.09992,33.71724,33.71724,0,0,0,2.51139-6.66348,55.68245,55.68245,0,0,0,1.39691-6.82244,56.72654,56.72654,0,0,0,.562-6.94168A34.11409,34.11409,0,0,0,436.89474,284.0502Z" fill="#8b9d36"/><path d="M442.90537,297.81354a26.14167,26.14167,0,0,0-2.54112,5.6713,42.6006,42.6006,0,0,0-1.44247,5.861,41.80994,41.80994,0,0,0-.61142,6.00446,25.83806,25.83806,0,0,0,.49729,6.19592,25.819,25.819,0,0,0,2.54639-5.67039,41.88125,41.88125,0,0,0,1.43768-5.86186,42.6687,42.6687,0,0,0,.60614-6.00536A26.14072,26.14072,0,0,0,442.90537,297.81354Z" fill="#8b9d36"/><path d="M448.20867,306.41612a23.53579,23.53579,0,0,0-2.68258,4.97961,40.58041,40.58041,0,0,0-1.68656,5.16568,46.36964,46.36964,0,0,0-1.01856,5.29743c-.1103.89915-.21148,1.79326-.27862,2.70464a20.12645,20.12645,0,0,1-.29636,2.76938,5.436,5.436,0,0,0,.65219-.41169l.52942-.5305a9.78963,9.78963,0,0,0,.926-1.15822,18.55108,18.55108,0,0,0,1.42377-2.47794,27.59292,27.59292,0,0,0,1.86832-5.225,30.92845,30.92845,0,0,0,.87949-5.44045A20.48091,20.48091,0,0,0,448.20867,306.41612Z" fill="#8b9d36"/><path d="M418.30847,285.18127A33.832,33.832,0,0,0,412.33332,280a55.37047,55.37047,0,0,0-6.60431-3.93822,54.39958,54.39958,0,0,0-7.081-2.99734,33.44616,33.44616,0,0,0-7.7159-1.74238,33.43621,33.43621,0,0,0,5.97179,5.18726,54.40388,54.40388,0,0,0,6.60767,3.93228,55.34762,55.34762,0,0,0,7.08386,2.99141A33.83018,33.83018,0,0,0,418.30847,285.18127Z" fill="#8b9d36"/><path d="M424.17764,296.14382a41.67712,41.67712,0,0,0-7.36967-4.82442,69.38893,69.38893,0,0,0-7.85976-3.52,68.14927,68.14927,0,0,0-8.23046-2.533,41.20216,41.20216,0,0,0-8.72487-1.21619,41.21126,41.21126,0,0,0,7.3668,4.83065,68.16046,68.16046,0,0,0,7.86216,3.51381,69.37457,69.37457,0,0,0,8.23285,2.52673A41.67725,41.67725,0,0,0,424.17764,296.14382Z" fill="#8b9d36"/><path d="M431.08647,308.32909a35.54193,35.54193,0,0,0-6.64316-4.65783,58.40734,58.40734,0,0,0-7.15-3.35982,57.37017,57.37017,0,0,0-7.53319-2.37747,35.13075,35.13075,0,0,0-8.04439-1.06706,35.14212,35.14212,0,0,0,6.64076,4.664,57.38127,57.38127,0,0,0,7.15243,3.35365,58.4148,58.4148,0,0,0,7.53559,2.3713A35.54049,35.54049,0,0,0,431.08647,308.32909Z" fill="#8b9d36"/><path d="M436.54658,317.70812a26.64429,26.64429,0,0,0-5.83464-3.84314,42.55251,42.55251,0,0,0-6.25089-2.51336,41.78936,41.78936,0,0,0-6.56642-1.5071,26.36188,26.36188,0,0,0-6.98652-.16466,26.36047,26.36047,0,0,0,5.83273,3.84944,41.78677,41.78677,0,0,0,6.25328,2.50706,42.53285,42.53285,0,0,0,6.56787,1.50069A26.65834,26.65834,0,0,0,436.54658,317.70812Z" fill="#8b9d36"/><path d="M440.85675,326.1238a35.04589,35.04589,0,0,0-6.41346-4.873,57.5168,57.5168,0,0,0-6.96685-3.59432,56.51519,56.51519,0,0,0-7.386-2.62671,34.6515,34.6515,0,0,0-7.94465-1.33578,34.63911,34.63911,0,0,0,6.41058,4.87915,56.493,56.493,0,0,0,6.96973,3.58832,57.50551,57.50551,0,0,0,7.38837,2.62048A35.04392,35.04392,0,0,0,440.85675,326.1238Z" fill="#8b9d36"/><path d="M416.40132,280.51462a24.66668,24.66668,0,0,0-.19134-7.87637,37.11311,37.11311,0,0,0-2.0069-7.16538,36.50478,36.50478,0,0,0-3.38224-6.62686,24.4203,24.4203,0,0,0-5.216-5.90909,24.40529,24.40529,0,0,0,.18223,7.87973,36.53725,36.53725,0,0,0,2.01553,7.162,37.11776,37.11776,0,0,0,3.39135,6.62343A24.6706,24.6706,0,0,0,416.40132,280.51462Z" fill="#8b9d36"/><path d="M446.58159,330.28432s-1.06068-65.58538-13.78884-85.7383" fill="none" stroke="#50661a" stroke-miterlimit="10" stroke-width="0.98211"/><path d="M436.85925,253.32161a45.00677,45.00677,0,0,1-.29444-8.85674,79.62286,79.62286,0,0,1,.95717-8.5915c.45845-2.83322,1.08234-5.63826,1.816-8.42.73275-2.80007,1.65828-5.49411,2.6471-8.36365a12.27065,12.27065,0,0,1,.63348,2.202,19.62207,19.62207,0,0,1,.34623,2.2375,37.91882,37.91882,0,0,1,.1995,4.44168,57.02937,57.02937,0,0,1-.79941,8.705,63.2654,63.2654,0,0,1-2.01409,8.47586A39.85244,39.85244,0,0,1,436.85925,253.32161Z" fill="#50661a"/><path d="M421.30228,213.256a31.82182,31.82182,0,0,1,5.5402,7.11838,50.02674,50.02674,0,0,1,3.71313,7.80216,49.161,49.161,0,0,1,2.3306,8.31972,31.47914,31.47914,0,0,1,.48626,9.01,31.47814,31.47814,0,0,1-5.54884-7.11515,49.11453,49.11453,0,0,1-3.70449-7.80545,50.02708,50.02708,0,0,1-2.322-8.32295A31.8059,31.8059,0,0,1,421.30228,213.256Z" fill="#50661a"/><path d="M410.87215,229.38109a73.30819,73.30819,0,0,1,7.29582,6.72253c2.25482,2.33743,4.40655,4.72713,6.51176,7.12977l6.25472,7.178c1.04925,1.17543,2.10953,2.33366,3.22975,3.43074a14.74753,14.74753,0,0,0,3.81671,2.88321,6.625,6.625,0,0,1-2.61209-.06623,12.22919,12.22919,0,0,1-2.51666-.79156,24.3035,24.3035,0,0,1-4.48232-2.57007,43.99218,43.99218,0,0,1-7.38358-6.83071,58.28773,58.28773,0,0,1-5.86725-8.01538A41.71566,41.71566,0,0,1,410.87215,229.38109Z" fill="#50661a"/><path d="M410.87215,245.5062a60.38212,60.38212,0,0,1,9.06966,5.57821,102.7486,102.7486,0,0,1,8.13742,6.61366,101.01255,101.01255,0,0,1,7.432,7.39731,59.70051,59.70051,0,0,1,6.49066,8.44259,59.6787,59.6787,0,0,1-9.07445-5.57329,100.93431,100.93431,0,0,1-8.13311-6.61858,102.74419,102.74419,0,0,1-7.42722-7.40222A60.37361,60.37361,0,0,1,410.87215,245.5062Z" fill="#50661a"/><path d="M411.9329,258.15808a59.70588,59.70588,0,0,1,9.16318,5.29911,101.54534,101.54534,0,0,1,8.25875,6.35848,99.79668,99.79668,0,0,1,7.57347,7.16017,59.03585,59.03585,0,0,1,6.65947,8.22956,59.00728,59.00728,0,0,1-9.168-5.294,99.72919,99.72919,0,0,1-8.254-6.36352,101.54139,101.54139,0,0,1-7.56916-7.1652A59.67792,59.67792,0,0,1,411.9329,258.15808Z" fill="#50661a"/><path d="M412.63976,271.68177a55.50942,55.50942,0,0,1,9.17851,4.45265,94.003,94.003,0,0,1,8.34507,5.569,92.43893,92.43893,0,0,1,7.714,6.41405,54.85312,54.85312,0,0,1,6.87238,7.54117,54.90337,54.90337,0,0,1-9.18236-4.44731,92.4344,92.4344,0,0,1-8.34123-5.57443,94.06562,94.06562,0,0,1-7.70967-6.41939A55.50858,55.50858,0,0,1,412.63976,271.68177Z" fill="#50661a"/><path d="M411.9329,281.49305a61.757,61.757,0,0,1,9.6034,4.876,105.19626,105.19626,0,0,1,8.76084,5.98576,103.34687,103.34687,0,0,1,8.12351,6.82568,61.03227,61.03227,0,0,1,7.27232,7.9459,61.03682,61.03682,0,0,1-9.60723-4.87069,103.35058,103.35058,0,0,1-8.757-5.99109,105.18178,105.18178,0,0,1-8.1192-6.831A61.75476,61.75476,0,0,1,411.9329,281.49305Z" fill="#50661a"/><path d="M409.458,290.68559a80.50922,80.50922,0,0,1,10.03835,5.57125c3.18707,2.04024,6.27055,4.19706,9.27683,6.44817,3.01491,2.238,5.94637,4.57121,8.82605,6.98213,2.90941,2.39024,5.65769,4.87975,8.6678,7.34522a24.27117,24.27117,0,0,1-5.62076-1.64029,54.96728,54.96728,0,0,1-5.21939-2.51277,85.66537,85.66537,0,0,1-9.59188-6.24177,98.89946,98.89946,0,0,1-8.71384-7.35337A62.64339,62.64339,0,0,1,409.458,290.68559Z" fill="#50661a"/><path d="M406.45265,300.23175a82.797,82.797,0,0,1,10.90057,5.18012c3.481,1.93922,6.85943,4.02141,10.16015,6.21318q4.9518,3.28667,9.66478,6.91188,2.35576,1.81773,4.66646,3.70078a41.58494,41.58494,0,0,0,4.737,3.62717,9.14986,9.14986,0,0,1-3.06238-.52594c-.98691-.29228-1.945-.64787-2.89262-1.01772-1.8899-.75025-3.716-1.6084-5.50712-2.51774a104.51076,104.51076,0,0,1-10.32511-6.09108,118.03062,118.03062,0,0,1-9.61059-7.1224A73.04957,73.04957,0,0,1,406.45265,300.23175Z" fill="#50661a"/><path d="M439.90629,264.55247a48.8604,48.8604,0,0,1,1.4089-9.45366,82.103,82.103,0,0,1,2.71711-8.97507,80.80892,80.80892,0,0,1,3.70786-8.61289,48.33359,48.33359,0,0,1,5.02852-8.12976,48.33859,48.33859,0,0,1-1.40219,9.45594,80.81027,80.81027,0,0,1-2.72383,8.97279,82.21332,82.21332,0,0,1-3.71408,8.61062A48.86067,48.86067,0,0,1,439.90629,264.55247Z" fill="#50661a"/><path d="M442.0019,275.59121a49.92609,49.92609,0,0,1,2.71328-9.27689,84.07429,84.07429,0,0,1,3.94571-8.62734,82.67654,82.67654,0,0,1,4.8789-8.1358,49.39429,49.39429,0,0,1,6.12333-7.48009,49.39442,49.39442,0,0,1-2.707,9.28,82.77547,82.77547,0,0,1-3.95194,8.62422,84.17605,84.17605,0,0,1-4.88466,8.13269A49.9902,49.9902,0,0,1,442.0019,275.59121Z" fill="#50661a"/><path d="M443.58777,286.26609a54.68746,54.68746,0,0,1,3.9716-9.31333,92.67374,92.67374,0,0,1,5.12587-8.53323,91.04873,91.04873,0,0,1,6.00009-7.94273,54.07592,54.07592,0,0,1,7.16538-7.15519,54.07071,54.07071,0,0,1-3.96633,9.31711,90.93635,90.93635,0,0,1-5.13163,8.52945,92.57,92.57,0,0,1-6.00536,7.93907A54.6897,54.6897,0,0,1,443.58777,286.26609Z" fill="#50661a"/><path d="M444.74971,298.04334a70.51724,70.51724,0,0,1,5.686-9.99573q3.17-4.73088,6.765-9.11384,3.58293-4.39279,7.58115-8.44643a69.42442,69.42442,0,0,1,8.6702-7.55622,69.41762,69.41762,0,0,1-5.68071,9.99993q-3.17,4.73059-6.76975,9.10964-3.59157,4.38641-7.58643,8.44224A70.43379,70.43379,0,0,1,444.74971,298.04334Z" fill="#50661a"/><path d="M445.693,310.25582a71.21475,71.21475,0,0,1,6.73332-9.39575q3.66422-4.39865,7.71542-8.40693,4.03969-4.01946,8.45776-7.65859a70.13832,70.13832,0,0,1,9.449-6.66031,70.14035,70.14035,0,0,1-6.72851,9.40043q-3.66421,4.39819-7.71974,8.40226-4.04761,4.01218-8.46256,7.65386A71.18715,71.18715,0,0,1,445.693,310.25582Z" fill="#50661a"/><path d="M446.267,318.08652a62.06462,62.06462,0,0,1,7.31548-7.943,105.741,105.741,0,0,1,8.15565-6.8315,103.87229,103.87229,0,0,1,8.79152-5.99037,61.3515,61.3515,0,0,1,9.64033-4.8683,61.36762,61.36762,0,0,1-7.31165,7.94824,103.95124,103.95124,0,0,1-8.15948,6.82623,105.81728,105.81728,0,0,1-8.79584,5.985A62.07677,62.07677,0,0,1,446.267,318.08652Z" fill="#50661a"/><path d="M446.58157,324.62741a65.7009,65.7009,0,0,1,8.54648-7.106q4.4828-3.18676,9.23846-5.8965,4.74823-2.72307,9.76213-4.98123a64.92856,64.92856,0,0,1,10.46083-3.76024,64.93858,64.93858,0,0,1-8.5436,7.11173q-4.48281,3.1864-9.24134,5.89075-4.75328,2.71436-9.76549,4.97553A65.70956,65.70956,0,0,1,446.58157,324.62741Z" fill="#50661a"/><path d="M446.33748,328.87008a70.95606,70.95606,0,0,1,9.999-5.75935c3.43067-1.65624,6.92848-3.13192,10.48336-4.45295q5.3316-1.98334,10.84974-3.46425a69.922,69.922,0,0,1,11.33936-2.14525,69.92253,69.92253,0,0,1-9.99663,5.76559q-5.14673,2.48381-10.48576,4.44672c-3.5568,1.31587-7.17114,2.47721-10.85214,3.458A70.94348,70.94348,0,0,1,446.33748,328.87008Z" fill="#50661a"/><path d="M447.68422,328.43427S471.37274,289,475.08512,279.10035" fill="none" stroke="#5e7c24" stroke-miterlimit="10" stroke-width="0.98211"/><path d="M467.13025,258.41712a42.1924,42.1924,0,0,1,2.26874,7.60423,71.09275,71.09275,0,0,1,1.15954,7.70979,69.67587,69.67587,0,0,1,.31938,7.78963,41.621,41.621,0,0,1-.80085,7.89615,41.65947,41.65947,0,0,1-2.274-7.60381,69.787,69.787,0,0,1-1.15427-7.71027,71.08872,71.08872,0,0,1-.31411-7.79011A42.154,42.154,0,0,1,467.13025,258.41712Z" fill="#5e7c24"/><path d="M458.46772,270.26138a40.24374,40.24374,0,0,1,2.94394,7.1697,67.58855,67.58855,0,0,1,1.84961,7.37986,66.55438,66.55438,0,0,1,1.02095,7.539,39.80309,39.80309,0,0,1-.0844,7.75121,39.76787,39.76787,0,0,1-2.94921-7.16868,66.5568,66.5568,0,0,1-1.84433-7.38094,67.69789,67.69789,0,0,1-1.01568-7.54A40.28244,40.28244,0,0,1,458.46772,270.26138Z" fill="#5e7c24"/><path d="M453.6948,284.0502a34.14721,34.14721,0,0,1,2.50611,6.66419,56.72721,56.72721,0,0,1,1.40219,6.82173,55.77523,55.77523,0,0,1,.56731,6.9409,33.7153,33.7153,0,0,1-.54669,7.09992,33.7172,33.7172,0,0,1-2.51138-6.66348,55.68249,55.68249,0,0,1-1.39692-6.82244,56.72851,56.72851,0,0,1-.562-6.94168A34.1141,34.1141,0,0,1,453.6948,284.0502Z" fill="#5e7c24"/><path d="M447.68416,297.81354a26.14119,26.14119,0,0,1,2.54112,5.6713,42.60064,42.60064,0,0,1,1.44248,5.861,41.8128,41.8128,0,0,1,.61142,6.00446,25.83806,25.83806,0,0,1-.49729,6.19592,25.8181,25.8181,0,0,1-2.54639-5.67039,41.88125,41.88125,0,0,1-1.43768-5.86186,42.66871,42.66871,0,0,1-.60615-6.00536A26.14125,26.14125,0,0,1,447.68416,297.81354Z" fill="#5e7c24"/><path d="M442.38086,306.41612a23.53534,23.53534,0,0,1,2.68258,4.97961,40.582,40.582,0,0,1,1.68657,5.16568,46.36961,46.36961,0,0,1,1.01855,5.29743c.1103.89915.21148,1.79326.27862,2.70464a20.12645,20.12645,0,0,0,.29636,2.76938,5.436,5.436,0,0,1-.65218-.41169l-.52942-.5305a9.78973,9.78973,0,0,1-.926-1.15822,18.55218,18.55218,0,0,1-1.42377-2.47794,27.59288,27.59288,0,0,1-1.86831-5.225,30.92659,30.92659,0,0,1-.87949-5.44045A20.4809,20.4809,0,0,1,442.38086,306.41612Z" fill="#5e7c24"/><path d="M472.28106,285.18127A33.83238,33.83238,0,0,1,478.25621,280a55.37047,55.37047,0,0,1,6.60431-3.93822,54.4003,54.4003,0,0,1,7.081-2.99734,33.446,33.446,0,0,1,7.7159-1.74238,33.43656,33.43656,0,0,1-5.97179,5.18726,54.40464,54.40464,0,0,1-6.60767,3.93228,55.34883,55.34883,0,0,1-7.08386,2.99141A33.83027,33.83027,0,0,1,472.28106,285.18127Z" fill="#5e7c24"/><path d="M466.41189,296.14382a41.67712,41.67712,0,0,1,7.36967-4.82442,69.38828,69.38828,0,0,1,7.85977-3.52,68.14856,68.14856,0,0,1,8.23045-2.533,41.20225,41.20225,0,0,1,8.72487-1.21619,41.21083,41.21083,0,0,1-7.36679,4.83065,68.15984,68.15984,0,0,1-7.86217,3.51381,69.37457,69.37457,0,0,1-8.23285,2.52673A41.67716,41.67716,0,0,1,466.41189,296.14382Z" fill="#5e7c24"/><path d="M459.50307,308.32909a35.54187,35.54187,0,0,1,6.64315-4.65783,58.40734,58.40734,0,0,1,7.15-3.35982,57.37064,57.37064,0,0,1,7.53319-2.37747,35.13077,35.13077,0,0,1,8.0444-1.06706,35.14276,35.14276,0,0,1-6.64076,4.664,57.38073,57.38073,0,0,1-7.15244,3.35365,58.4143,58.4143,0,0,1-7.53559,2.3713A35.54048,35.54048,0,0,1,459.50307,308.32909Z" fill="#5e7c24"/><path d="M454.043,317.70812a26.64453,26.64453,0,0,1,5.83464-3.84314,42.553,42.553,0,0,1,6.25089-2.51336,41.78923,41.78923,0,0,1,6.56643-1.5071,26.36179,26.36179,0,0,1,6.98651-.16466,26.36064,26.36064,0,0,1-5.83272,3.84944,41.78688,41.78688,0,0,1-6.25329,2.50706,42.53285,42.53285,0,0,1-6.56787,1.50069A26.65834,26.65834,0,0,1,454.043,317.70812Z" fill="#5e7c24"/><path d="M449.73279,326.1238a35.04548,35.04548,0,0,1,6.41345-4.873,57.5168,57.5168,0,0,1,6.96685-3.59432,56.51481,56.51481,0,0,1,7.386-2.62671,34.65132,34.65132,0,0,1,7.94464-1.33578,34.63911,34.63911,0,0,1-6.41058,4.87915,56.49362,56.49362,0,0,1-6.96972,3.58832,57.50565,57.50565,0,0,1-7.38838,2.62048A35.04393,35.04393,0,0,1,449.73279,326.1238Z" fill="#5e7c24"/><path d="M474.18822,280.51462a24.66611,24.66611,0,0,1,.19134-7.87637,37.11311,37.11311,0,0,1,2.0069-7.16538,36.5035,36.5035,0,0,1,3.38224-6.62686,24.42009,24.42009,0,0,1,5.216-5.90909,24.40586,24.40586,0,0,1-.18223,7.87973,36.53659,36.53659,0,0,1-2.01554,7.162,37.11644,37.11644,0,0,1-3.39135,6.62343A24.67055,24.67055,0,0,1,474.18822,280.51462Z" fill="#5e7c24"/><path d="M56.75209,328.43427S80.44062,289,84.153,279.10035" fill="none" stroke="#8b9d36" stroke-miterlimit="10" stroke-width="0.98211"/><path d="M76.19813,258.41712a42.19156,42.19156,0,0,1,2.26873,7.60423,71.08783,71.08783,0,0,1,1.15954,7.70979,69.67348,69.67348,0,0,1,.31938,7.78963,41.62178,41.62178,0,0,1-.80084,7.89615,41.65872,41.65872,0,0,1-2.274-7.60381,69.787,69.787,0,0,1-1.15427-7.71027,71.08871,71.08871,0,0,1-.3141-7.79011A42.15313,42.15313,0,0,1,76.19813,258.41712Z" fill="#8b9d36"/><path d="M67.5356,270.26138a40.2437,40.2437,0,0,1,2.94393,7.1697,67.58626,67.58626,0,0,1,1.84961,7.37986,66.55667,66.55667,0,0,1,1.021,7.539,39.80388,39.80388,0,0,1-.0844,7.75121,39.76715,39.76715,0,0,1-2.94921-7.16868,66.55685,66.55685,0,0,1-1.84434-7.38094,67.70024,67.70024,0,0,1-1.01568-7.54A40.28165,40.28165,0,0,1,67.5356,270.26138Z" fill="#8b9d36"/><path d="M62.76267,284.0502a34.14657,34.14657,0,0,1,2.50611,6.66419,56.72725,56.72725,0,0,1,1.4022,6.82173,55.77714,55.77714,0,0,1,.5673,6.9409,33.716,33.716,0,0,1-.54668,7.09992,33.71724,33.71724,0,0,1-2.51139-6.66348,55.68436,55.68436,0,0,1-1.39692-6.82244,56.72851,56.72851,0,0,1-.562-6.94168A34.1141,34.1141,0,0,1,62.76267,284.0502Z" fill="#8b9d36"/><path d="M56.752,297.81354a26.14115,26.14115,0,0,1,2.54111,5.6713,42.60064,42.60064,0,0,1,1.44248,5.861,41.81137,41.81137,0,0,1,.61142,6.00446,25.83806,25.83806,0,0,1-.49729,6.19592,25.819,25.819,0,0,1-2.54639-5.67039,41.88125,41.88125,0,0,1-1.43768-5.86186,42.6702,42.6702,0,0,1-.60615-6.00536A26.14074,26.14074,0,0,1,56.752,297.81354Z" fill="#8b9d36"/><path d="M51.44873,306.41612a23.53584,23.53584,0,0,1,2.68259,4.97961,40.58358,40.58358,0,0,1,1.68656,5.16568,46.37181,46.37181,0,0,1,1.01856,5.29743c.11029.89915.21148,1.79326.27861,2.70464a20.12956,20.12956,0,0,0,.29636,2.76938,5.436,5.436,0,0,1-.65218-.41169l-.52942-.5305a9.78963,9.78963,0,0,1-.926-1.15822A18.55225,18.55225,0,0,1,53.88,322.75451a27.59358,27.59358,0,0,1-1.86831-5.225,30.92845,30.92845,0,0,1-.87949-5.44045A20.48128,20.48128,0,0,1,51.44873,306.41612Z" fill="#8b9d36"/><path d="M81.34893,285.18127A33.83274,33.83274,0,0,1,87.32408,280a55.37059,55.37059,0,0,1,6.60432-3.93822,54.39958,54.39958,0,0,1,7.081-2.99734,33.44616,33.44616,0,0,1,7.7159-1.74238,33.43656,33.43656,0,0,1-5.97179,5.18726,54.40464,54.40464,0,0,1-6.60767,3.93228A55.34762,55.34762,0,0,1,89.062,283.433,33.83015,33.83015,0,0,1,81.34893,285.18127Z" fill="#8b9d36"/><path d="M75.47977,296.14382a41.67712,41.67712,0,0,1,7.36967-4.82442,69.38893,69.38893,0,0,1,7.85976-3.52,68.14871,68.14871,0,0,1,8.23046-2.533,41.20216,41.20216,0,0,1,8.72487-1.21619,41.21126,41.21126,0,0,1-7.3668,4.83065,68.16046,68.16046,0,0,1-7.86216,3.51381,69.37457,69.37457,0,0,1-8.23285,2.52673A41.67725,41.67725,0,0,1,75.47977,296.14382Z" fill="#8b9d36"/><path d="M68.57094,308.32909a35.5416,35.5416,0,0,1,6.64316-4.65783,58.4079,58.4079,0,0,1,7.15-3.35982,57.37078,57.37078,0,0,1,7.5332-2.37747,35.13068,35.13068,0,0,1,8.04439-1.06706,35.14244,35.14244,0,0,1-6.64076,4.664,57.38127,57.38127,0,0,1-7.15243,3.35365,58.41494,58.41494,0,0,1-7.5356,2.3713A35.5404,35.5404,0,0,1,68.57094,308.32909Z" fill="#8b9d36"/><path d="M63.11082,317.70812a26.64459,26.64459,0,0,1,5.83465-3.84314,42.55284,42.55284,0,0,1,6.25088-2.51336,41.78949,41.78949,0,0,1,6.56643-1.5071,26.36188,26.36188,0,0,1,6.98652-.16466,26.36047,26.36047,0,0,1-5.83273,3.84944,41.7872,41.7872,0,0,1-6.25328,2.50706,42.53285,42.53285,0,0,1-6.56787,1.50069A26.65841,26.65841,0,0,1,63.11082,317.70812Z" fill="#8b9d36"/><path d="M58.80066,326.1238a35.04582,35.04582,0,0,1,6.41345-4.873,57.51766,57.51766,0,0,1,6.96686-3.59432,56.51467,56.51467,0,0,1,7.386-2.62671,34.65131,34.65131,0,0,1,7.94465-1.33578,34.63944,34.63944,0,0,1-6.41058,4.87915,56.493,56.493,0,0,1-6.96973,3.58832,57.506,57.506,0,0,1-7.38837,2.62048A35.04411,35.04411,0,0,1,58.80066,326.1238Z" fill="#8b9d36"/><path d="M83.25609,280.51462a24.6664,24.6664,0,0,1,.19134-7.87637,37.11311,37.11311,0,0,1,2.0069-7.16538,36.50478,36.50478,0,0,1,3.38224-6.62686,24.4203,24.4203,0,0,1,5.216-5.90909,24.40558,24.40558,0,0,1-.18223,7.87973,36.53725,36.53725,0,0,1-2.01553,7.162,37.11776,37.11776,0,0,1-3.39135,6.62343A24.67082,24.67082,0,0,1,83.25609,280.51462Z" fill="#8b9d36"/><path d="M53.07582,330.28432s1.06068-65.58538,13.78884-85.7383" fill="none" stroke="#50661a" stroke-miterlimit="10" stroke-width="0.98211"/><path d="M62.79816,253.32161a45.00677,45.00677,0,0,0,.29444-8.85674,79.62286,79.62286,0,0,0-.95717-8.5915c-.45845-2.83322-1.08234-5.63826-1.816-8.42-.73274-2.80007-1.65827-5.49411-2.64709-8.36365a12.27065,12.27065,0,0,0-.63348,2.202,19.62212,19.62212,0,0,0-.34624,2.2375,37.921,37.921,0,0,0-.19949,4.44168,57.0281,57.0281,0,0,0,.79941,8.705,63.2654,63.2654,0,0,0,2.01409,8.47586A39.85244,39.85244,0,0,0,62.79816,253.32161Z" fill="#50661a"/><path d="M78.35513,213.256a31.82182,31.82182,0,0,0-5.5402,7.11838,50.02584,50.02584,0,0,0-3.71313,7.80216,49.16009,49.16009,0,0,0-2.3306,8.31972,31.47914,31.47914,0,0,0-.48626,9.01,31.47781,31.47781,0,0,0,5.54883-7.11515,49.11372,49.11372,0,0,0,3.7045-7.80545,50.02609,50.02609,0,0,0,2.322-8.32295A31.80553,31.80553,0,0,0,78.35513,213.256Z" fill="#50661a"/><path d="M88.78526,229.38109a73.30708,73.30708,0,0,0-7.29582,6.72253c-2.25483,2.33743-4.40655,4.72713-6.51176,7.12977l-6.25472,7.178c-1.04925,1.17543-2.10953,2.33366-3.22975,3.43074a14.7477,14.7477,0,0,1-3.81671,2.88321,6.625,6.625,0,0,0,2.61209-.06623,12.22938,12.22938,0,0,0,2.51666-.79156,24.30382,24.30382,0,0,0,4.48232-2.57007,43.99218,43.99218,0,0,0,7.38358-6.83071,58.28773,58.28773,0,0,0,5.86725-8.01538A41.71613,41.71613,0,0,0,88.78526,229.38109Z" fill="#50661a"/><path d="M88.78526,245.5062a60.38212,60.38212,0,0,0-9.06966,5.57821,102.7486,102.7486,0,0,0-8.13742,6.61366,101.01464,101.01464,0,0,0-7.432,7.39731A59.702,59.702,0,0,0,57.6555,273.538,59.6788,59.6788,0,0,0,66.73,267.96468a100.93431,100.93431,0,0,0,8.13311-6.61858,102.742,102.742,0,0,0,7.42721-7.40222A60.37291,60.37291,0,0,0,88.78526,245.5062Z" fill="#50661a"/><path d="M87.7245,258.15808a59.70578,59.70578,0,0,0-9.16317,5.29911,101.54361,101.54361,0,0,0-8.25875,6.35848,99.7987,99.7987,0,0,0-7.57348,7.16017,59.03651,59.03651,0,0,0-6.65946,8.22956,59.00728,59.00728,0,0,0,9.168-5.294,99.72919,99.72919,0,0,0,8.254-6.36352,101.54139,101.54139,0,0,0,7.56916-7.1652A59.67786,59.67786,0,0,0,87.7245,258.15808Z" fill="#50661a"/><path d="M87.01765,271.68177a55.50991,55.50991,0,0,0-9.17852,4.45265,94.00289,94.00289,0,0,0-8.34506,5.569,92.4373,92.4373,0,0,0-7.714,6.41405,54.85312,54.85312,0,0,0-6.87238,7.54117,54.90337,54.90337,0,0,0,9.18236-4.44731,92.4344,92.4344,0,0,0,8.34123-5.57443,94.0673,94.0673,0,0,0,7.70967-6.41939A55.50858,55.50858,0,0,0,87.01765,271.68177Z" fill="#50661a"/><path d="M87.7245,281.49305a61.75734,61.75734,0,0,0-9.60339,4.876,105.1946,105.1946,0,0,0-8.76084,5.98576,103.34687,103.34687,0,0,0-8.12351,6.82568,61.033,61.033,0,0,0-7.27233,7.9459,61.03692,61.03692,0,0,0,9.60724-4.87069,103.35218,103.35218,0,0,0,8.757-5.99109,105.18178,105.18178,0,0,0,8.1192-6.831A61.7547,61.7547,0,0,0,87.7245,281.49305Z" fill="#50661a"/><path d="M90.19944,290.68559a80.50981,80.50981,0,0,0-10.03834,5.57125c-3.18707,2.04024-6.27055,4.19706-9.27683,6.44817-3.01491,2.238-5.94637,4.57121-8.82605,6.98213-2.90941,2.39024-5.65769,4.87975-8.6678,7.34522a24.27117,24.27117,0,0,0,5.62076-1.64029,54.96593,54.96593,0,0,0,5.21938-2.51277,85.66459,85.66459,0,0,0,9.59189-6.24177,98.90091,98.90091,0,0,0,8.71384-7.35337A62.64332,62.64332,0,0,0,90.19944,290.68559Z" fill="#50661a"/><path d="M93.20476,300.23175a82.79639,82.79639,0,0,0-10.90057,5.18012c-3.481,1.93922-6.85943,4.02141-10.16015,6.21318q-4.9518,3.28667-9.66478,6.91188-2.35576,1.81773-4.66647,3.70078a41.58317,41.58317,0,0,1-4.737,3.62717,9.14987,9.14987,0,0,0,3.06239-.52594c.9869-.29228,1.945-.64787,2.89262-1.01772,1.88989-.75025,3.716-1.6084,5.50711-2.51774a104.50976,104.50976,0,0,0,10.32512-6.09108,118.03062,118.03062,0,0,0,9.61059-7.1224A73.05033,73.05033,0,0,0,93.20476,300.23175Z" fill="#50661a"/><path d="M59.75112,264.55247a48.85963,48.85963,0,0,0-1.40891-9.45366,82.09862,82.09862,0,0,0-2.71711-8.97507,80.80885,80.80885,0,0,0-3.70785-8.61289,48.33423,48.33423,0,0,0-5.02852-8.12976,48.33859,48.33859,0,0,0,1.40219,9.45594,80.81236,80.81236,0,0,0,2.72382,8.97279,82.21339,82.21339,0,0,0,3.71409,8.61062A48.86067,48.86067,0,0,0,59.75112,264.55247Z" fill="#50661a"/><path d="M57.6555,275.59121a49.92683,49.92683,0,0,0-2.71327-9.27689,84.07429,84.07429,0,0,0-3.94571-8.62734,82.67654,82.67654,0,0,0-4.8789-8.1358,49.39489,49.39489,0,0,0-6.12333-7.48009,49.39442,49.39442,0,0,0,2.707,9.28,82.7734,82.7734,0,0,0,3.95194,8.62422,84.174,84.174,0,0,0,4.88466,8.13269A49.99075,49.99075,0,0,0,57.6555,275.59121Z" fill="#50661a"/><path d="M56.06964,286.26609a54.68746,54.68746,0,0,0-3.9716-9.31333,92.676,92.676,0,0,0-5.12587-8.53323,91.04873,91.04873,0,0,0-6.00009-7.94273,54.07592,54.07592,0,0,0-7.16538-7.15519,54.07071,54.07071,0,0,0,3.96633,9.31711,90.93626,90.93626,0,0,0,5.13162,8.52945A92.57409,92.57409,0,0,0,48.91,279.10724,54.68979,54.68979,0,0,0,56.06964,286.26609Z" fill="#50661a"/><path d="M54.9077,298.04334a70.51724,70.51724,0,0,0-5.686-9.99573q-3.17-4.73088-6.765-9.11384-3.58293-4.39279-7.58115-8.44643a69.42442,69.42442,0,0,0-8.6702-7.55622,69.41762,69.41762,0,0,0,5.68071,9.99993q3.17,4.73059,6.76975,9.10964,3.59157,4.38641,7.58643,8.44224A70.43379,70.43379,0,0,0,54.9077,298.04334Z" fill="#50661a"/><path d="M53.96443,310.25582a71.21377,71.21377,0,0,0-6.73331-9.39575q-3.66421-4.39865-7.71542-8.40693-4.0397-4.01946-8.45776-7.65859a70.13842,70.13842,0,0,0-9.449-6.66031,70.14131,70.14131,0,0,0,6.72852,9.40043q3.66422,4.39819,7.71974,8.40226,4.04762,4.01218,8.46256,7.65386A71.1877,71.1877,0,0,0,53.96443,310.25582Z" fill="#50661a"/><path d="M53.39042,318.08652a62.06462,62.06462,0,0,0-7.31548-7.943,105.741,105.741,0,0,0-8.15565-6.8315,103.87085,103.87085,0,0,0-8.79153-5.99037,61.351,61.351,0,0,0-9.64032-4.8683,61.36762,61.36762,0,0,0,7.31165,7.94824,103.9494,103.9494,0,0,0,8.15948,6.82623,105.81728,105.81728,0,0,0,8.79584,5.985A62.07677,62.07677,0,0,0,53.39042,318.08652Z" fill="#50661a"/><path d="M53.07583,324.62741a65.70015,65.70015,0,0,0-8.54647-7.106q-4.48281-3.18676-9.23847-5.8965-4.74822-2.72307-9.76212-4.98123a64.9289,64.9289,0,0,0-10.46083-3.76024,64.93858,64.93858,0,0,0,8.5436,7.11173q4.48279,3.1864,9.24134,5.89075,4.75326,2.71436,9.76548,4.97553A65.71027,65.71027,0,0,0,53.07583,324.62741Z" fill="#50661a"/><path d="M53.31992,328.87008a70.9554,70.9554,0,0,0-9.999-5.75935c-3.43068-1.65624-6.92849-3.13192-10.48336-4.45295q-5.3316-1.98334-10.84974-3.46425a69.92215,69.92215,0,0,0-11.33936-2.14525,69.922,69.922,0,0,0,9.99663,5.76559q5.14673,2.48381,10.48576,4.44672c3.5568,1.31587,7.17114,2.47721,10.85214,3.458A70.94356,70.94356,0,0,0,53.31992,328.87008Z" fill="#50661a"/><path d="M52.02257,328.27918S28.33405,288.845,24.62167,278.94527" fill="none" stroke="#5e7c24" stroke-miterlimit="10" stroke-width="0.98211"/><path d="M32.52716,258.41712a42.19079,42.19079,0,0,0-2.26874,7.60423,71.09029,71.09029,0,0,0-1.15954,7.70979,69.67348,69.67348,0,0,0-.31938,7.78963,41.62178,41.62178,0,0,0,.80084,7.89615,41.65872,41.65872,0,0,0,2.274-7.60381,69.787,69.787,0,0,0,1.15427-7.71027,71.08623,71.08623,0,0,0,.3141-7.79011A42.154,42.154,0,0,0,32.52716,258.41712Z" fill="#5e7c24"/><path d="M41.18968,270.26138a40.2437,40.2437,0,0,0-2.94393,7.1697,67.58626,67.58626,0,0,0-1.84961,7.37986,66.55667,66.55667,0,0,0-1.021,7.539,39.80388,39.80388,0,0,0,.0844,7.75121,39.76642,39.76642,0,0,0,2.94921-7.16868,66.55685,66.55685,0,0,0,1.84434-7.38094,67.70024,67.70024,0,0,0,1.01568-7.54A40.28165,40.28165,0,0,0,41.18968,270.26138Z" fill="#5e7c24"/><path d="M45.96261,284.0502a34.14657,34.14657,0,0,0-2.50611,6.66419,56.72527,56.72527,0,0,0-1.40219,6.82173,55.77523,55.77523,0,0,0-.56731,6.9409,33.7153,33.7153,0,0,0,.54669,7.09992,33.71782,33.71782,0,0,0,2.51138-6.66348A55.68249,55.68249,0,0,0,45.942,298.091a56.72851,56.72851,0,0,0,.562-6.94168A34.1141,34.1141,0,0,0,45.96261,284.0502Z" fill="#5e7c24"/><path d="M51.97324,297.81354a26.14162,26.14162,0,0,0-2.54111,5.6713,42.60064,42.60064,0,0,0-1.44248,5.861,41.8128,41.8128,0,0,0-.61142,6.00446,25.83806,25.83806,0,0,0,.49729,6.19592,25.81857,25.81857,0,0,0,2.54639-5.67039,41.88125,41.88125,0,0,0,1.43768-5.86186,42.6702,42.6702,0,0,0,.60615-6.00536A26.14074,26.14074,0,0,0,51.97324,297.81354Z" fill="#5e7c24"/><path d="M57.27655,306.41612a23.53534,23.53534,0,0,0-2.68258,4.97961,40.582,40.582,0,0,0-1.68657,5.16568,46.37181,46.37181,0,0,0-1.01856,5.29743c-.11029.89915-.21148,1.79326-.27861,2.70464a20.128,20.128,0,0,1-.29636,2.76938,5.436,5.436,0,0,0,.65218-.41169l.52942-.5305a9.78973,9.78973,0,0,0,.926-1.15822,18.55218,18.55218,0,0,0,1.42377-2.47794,27.59358,27.59358,0,0,0,1.86831-5.225,30.92845,30.92845,0,0,0,.87949-5.44045A20.48128,20.48128,0,0,0,57.27655,306.41612Z" fill="#5e7c24"/><path d="M27.37635,285.18127A33.83274,33.83274,0,0,0,21.4012,280a55.37126,55.37126,0,0,0-6.60431-3.93822,54.4003,54.4003,0,0,0-7.081-2.99734A33.446,33.446,0,0,0,0,271.322a33.43656,33.43656,0,0,0,5.97179,5.18726,54.40464,54.40464,0,0,0,6.60767,3.93228,55.34762,55.34762,0,0,0,7.08386,2.99141A33.83015,33.83015,0,0,0,27.37635,285.18127Z" fill="#5e7c24"/><path d="M33.24552,296.14382a41.67712,41.67712,0,0,0-7.36967-4.82442,69.38908,69.38908,0,0,0-7.85977-3.52,68.14816,68.14816,0,0,0-8.23046-2.533,41.20207,41.20207,0,0,0-8.72486-1.21619,41.21083,41.21083,0,0,0,7.36679,4.83065,68.16046,68.16046,0,0,0,7.86216,3.51381,69.37473,69.37473,0,0,0,8.23286,2.52673A41.67707,41.67707,0,0,0,33.24552,296.14382Z" fill="#5e7c24"/><path d="M40.15434,308.32909a35.54187,35.54187,0,0,0-6.64315-4.65783,58.408,58.408,0,0,0-7.15-3.35982A57.37078,57.37078,0,0,0,18.828,297.934a35.13068,35.13068,0,0,0-8.04439-1.06706,35.14276,35.14276,0,0,0,6.64076,4.664,57.38073,57.38073,0,0,0,7.15244,3.35365,58.4143,58.4143,0,0,0,7.53559,2.3713A35.5404,35.5404,0,0,0,40.15434,308.32909Z" fill="#5e7c24"/><path d="M45.61446,317.70812a26.64477,26.64477,0,0,0-5.83464-3.84314,42.553,42.553,0,0,0-6.25089-2.51336,41.78923,41.78923,0,0,0-6.56643-1.5071,26.36179,26.36179,0,0,0-6.98651-.16466,26.36041,26.36041,0,0,0,5.83272,3.84944,41.78688,41.78688,0,0,0,6.25329,2.50706,42.533,42.533,0,0,0,6.56786,1.50069A26.65843,26.65843,0,0,0,45.61446,317.70812Z" fill="#5e7c24"/><path d="M49.92462,326.1238a35.04582,35.04582,0,0,0-6.41345-4.873,57.5168,57.5168,0,0,0-6.96685-3.59432,56.51533,56.51533,0,0,0-7.386-2.62671A34.65132,34.65132,0,0,0,21.2137,313.694a34.639,34.639,0,0,0,6.41057,4.87915,56.49445,56.49445,0,0,0,6.96973,3.58832,57.506,57.506,0,0,0,7.38837,2.62048A35.04411,35.04411,0,0,0,49.92462,326.1238Z" fill="#5e7c24"/><path d="M25.46919,280.51462a24.66611,24.66611,0,0,0-.19134-7.87637,37.11311,37.11311,0,0,0-2.0069-7.16538,36.5035,36.5035,0,0,0-3.38224-6.62686,24.4203,24.4203,0,0,0-5.216-5.90909,24.40558,24.40558,0,0,0,.18223,7.87973,36.53725,36.53725,0,0,0,2.01553,7.162,37.11715,37.11715,0,0,0,3.39136,6.62343A24.67055,24.67055,0,0,0,25.46919,280.51462Z" fill="#5e7c24"/><path d="M175.68559,98.90936l4.65921-1.52185s1.93358,12.65073,17.43751,22.28255c30.17784,13.225,30.90268,10.18217,33.042,3.93349a2.45948,2.45948,0,0,0-1.15725-2.93681l-24.81765-13.63706S173.30365,97.5619,175.68559,98.90936Z" fill="#f9977a"/><path d="M176.73961,230.69269l-1.99118-14.37238s21.99007-15.18081,31.75139-8.52522L203.537,314.82945c-7.2534,11.98381-16.46738,5.91828-16.46738,5.91828l-4.92379-64.93437L138.89551,284.043l-5.39461,3.324c-13.95512,1.21686-14.23432-8.56439-14.23432-8.56439Z" fill="#f9977a"/><path d="M176.73943,230.69267a8.89738,8.89738,0,0,0,1.7511.373,5.155,5.155,0,0,0,1.67218-.10363,8.112,8.112,0,0,0,1.62353-.54358c.52911-.24817,1.07068-.51331,1.61261-.83448a4.776,4.776,0,0,1-3.066,2.1814,3.901,3.901,0,0,1-1.96649-.07312A3.638,3.638,0,0,1,176.73943,230.69267Z" fill="#dd765e"/><path d="M202.65459,212.035c.16943,4.4491.24884,8.89819.31457,13.34729.04938,2.22461.04023,4.4491.0586,6.67371a18.889,18.889,0,0,1-1.0987,6.68384,18.66957,18.66957,0,0,1-3.47064,5.82238,52.45289,52.45289,0,0,1-4.73474,4.75647c-3.3429,2.91968-7.169,5.59827-11.57794,6.49475a20.83993,20.83993,0,0,0,5.97833-2.83349,37.342,37.342,0,0,0,5.175-4.1294,65.90514,65.90514,0,0,0,4.59436-4.77832,18.49749,18.49749,0,0,0,4.38794-12.01623c.01843-2.22461.00928-4.4491.05865-6.67371C202.40575,220.93314,202.48509,216.48405,202.65459,212.035Z" fill="#dd765e"/><path d="M202.65457,149.28484l5.62021,58.51029h-5.62021v5.17651l-36.97509,4.437-1.92271-30.61537-9.18917-18.0294a20.99239,20.99239,0,0,1-2.27189-10.38493l.66434-16.35018Z" fill="#ffba55"/><path d="M126.34293,272.87906s-14.09863-.61978-16.47672,7.22846a2.74147,2.74147,0,0,0,.43234,2.417l26.23011,35.47415a1.4383,1.4383,0,0,0,2.13356.19471c1.69562-1.55323,4.40269-4.85385,3.388-9.458-1.44279-6.54636-8.18358-8.79626-7.118-22.25031C134.93214,286.48508,124.14691,279.62855,126.34293,272.87906Z" fill="#935b50"/><path d="M186.28688,311.37546s-8.89881,11.11553-3.96653,17.66707a2.74141,2.74141,0,0,0,2.20636,1.07742l44.11775-.23951a1.4383,1.4383,0,0,0,1.41634-1.60748c-.25319-2.2855-1.32011-6.41879-5.63582-8.31681-6.13625-2.69869-10.48959,2.16415-20.722-6.63616C203.703,313.32,190.43962,317.13159,186.28688,311.37546Z" fill="#935b50"/><path d="M180.22383,3.93584a19.70774,19.70774,0,0,1,9.20521.789c1.38857.49234,6.46714,2.29294,8.94248,7.10124.94016,1.82609,1.15259,4.02283,1.578,8.41629.26567,2.74424,1.32258,4.70969,1.321,8.05672a28.2764,28.2764,0,0,1-1.321,7.98683c-1.23074,4.04616-.43824,6.34492-1.052,7.10125-2.47346,3.0482-9.98254.65652-10.09532,4.63412-.06963,2.45607,4.07563,13.059,3.991,15.93627-.1972,6.70481-11.394-.312-18.0926-10.313-.304-.45389-4.88326-3.13451-4.40409-7.47846.256-2.3206,2.22626-13.20938,2.0371-14.6143-.68411-5.07792-3.24293-5.69719-5.26023-11.8354a9.54775,9.54775,0,0,1,1.578-9.20532A19.50259,19.50259,0,0,1,180.22383,3.93584Z" fill="#f9977a"/><ellipse cx="198.89357" cy="24.54918" rx="1.03107" ry="1.28217" fill="#0a0709"/><ellipse cx="189.59701" cy="24.54918" rx="1.03107" ry="1.28217" fill="#0a0709"/><path d="M193.98991,22.25309a.65051.65051,0,0,1-.35546-1.19629,6.914,6.914,0,0,1,7.71582.02637.65039.65039,0,0,1-.78125,1.04h0a5.50631,5.50631,0,0,0-6.22559.02539A.64509.64509,0,0,1,193.98991,22.25309Z" fill="#1e1d22"/><path d="M184.35515,22.25309a.65051.65051,0,0,1-.35547-1.19629,6.91284,6.91284,0,0,1,7.7168.02637.651.651,0,0,1-.78321,1.04h0a5.508,5.508,0,0,0-6.22461.02539A.64509.64509,0,0,1,184.35515,22.25309Z" fill="#1e1d22"/><path d="M193.10381,22.51859a5.81776,5.81776,0,0,0,.56292,3.10559,12.95372,12.95372,0,0,0,1.61774,2.74366l.52051.62024a1.26369,1.26369,0,0,1,.33374.86853,2.06787,2.06787,0,0,1-.87579,1.49377,3.73121,3.73121,0,0,1-3.20948.40674,4.00522,4.00522,0,0,0,2.99793-.6648,1.85618,1.85618,0,0,0,.6925-1.24c.03369-.43591-.45849-.7677-.79577-1.2113a11.80432,11.80432,0,0,1-1.58533-2.88293A5.105,5.105,0,0,1,193.10381,22.51859Z" fill="#dd765e"/><path d="M176.20928,22.95243a3.91586,3.91586,0,0,0-.98774.48792,4.76358,4.76358,0,0,0-.8244.68908,15.47063,15.47063,0,0,0-1.42035,1.70191c.04163-.1886.10956-.36743.16516-.55432l.24958-.52234a4.781,4.781,0,0,1,.70135-.93384A2.707,2.707,0,0,1,176.20928,22.95243Z" fill="#dd765e"/><path d="M175.37157,28.29911a7.903,7.903,0,0,0-.02625-2.3811,5.32513,5.32513,0,0,0-.28668-1.13758c-.11847-.37951-.30139-.73388-.46564-1.11975a3.46861,3.46861,0,0,1,.7713.98572,4.171,4.171,0,0,1,.4087,1.20142A3.76558,3.76558,0,0,1,175.37157,28.29911Z" fill="#dd765e"/><path d="M181.67881,33.07772s-1.708-7.37352-1.39533-9.48453c.436-2.94159.654-4.4123.30167-5.60939-.56384-1.9161.36992-2.1656,1.57085-4.2248,1.12712-1.93265,4.61923-.36822,5.49069-.69034,2.44587-.90422,2.35542-1.93411,4.009-2.03693,1.696-.10545,2.94053-.55349,4.03612.54071,1.11732,1.11686,3.16773,4.08563,3.67333,3.57059a9.66427,9.66427,0,0,0,1.89139-4.87211,10.71243,10.71243,0,0,0-1.20105-5.00637c-.40144-.89329-1.89637-4.21779-5.009-5.10532-1.79275-.51126-2.13671.35214-6.01471.58166-4.02226.23817-4.14713-.66118-6.25358-.06249-2.33174.66284-2.24306,1.78248-6.22781,3.95916A41.25972,41.25972,0,0,1,172.48225,6.513c-5.00258,2.11839-5.65682,1.77967-6.80734,2.89145-2.48038,2.39693-2.07537,6.51821-1.97755,7.51369.27567,2.80365,1.37034,3.64616,3.75123,8.13732,3.77,7.11239,3.01348,10.101,4.39518,11.09827.6778.48922,4.25392-2.05294,4.23736-3.30562-.02152-1.64209-1.20464-2.16025-2.598-4.53367-.97313-1.65873-2.371-4.04019-1.56643-6.199.48686-1.30495,1.03006-.948,2.38217-.8226,1.83507.17015,2.73783,2.72637,3.47363,4.60245a10.04184,10.04184,0,0,1,.671,4.26982C178.24918,33.41155,182.311,34.37023,181.67881,33.07772Z" fill="#1e1d22"/><path d="M189.91307,36.28835s4.06075,3.78743,7.692,0" fill="#0a0709"/><path d="M190.71575,55.546s10.164,29.63973-20.30346-10.29336L160.966,53.0948a23.59382,23.59382,0,0,0-7.97177,13.08248l-8.31664,37.7918h10.94462l-2.6622,38.05969,51.32142,7.49362S202.99472,76.61128,190.71575,55.546Z" fill="#f73c4f"/><path d="M168.11418,104.974l-3.49931,19.44081,13.45923,31.94658,5.9892,5.62028a29.97953,29.97953,0,0,1-7.30114,15.22675s-4.01285-7.3882-3.71717-15.0789l-24.38727-28.10284a18.15978,18.15978,0,0,1-4.20984-14.80889l2.41886-14.91742S160.9643,99.13991,168.11418,104.974Z" fill="#f9977a"/><path d="M202.65459,207.79508c-.39093-3.28344-.692-6.573-.97943-9.86352-.28937-3.29029-.505-6.58557-.76111-9.87818-.18976-3.29712-.41492-6.59179-.57147-9.891-.15577-3.29944-.29871-6.59961-.35022-9.906.39221,3.28344.69293,6.573.98083,9.86352.28717,3.29041.50574,6.58557.75971,9.8783.18756,3.29724.41565,6.59167.57,9.89111C202.45915,201.18864,202.60179,204.48881,202.65459,207.79508Z" fill="#e6952a"/><path d="M197.626,138.5778c-1.001-.37207-1.98425-.79383-2.98175-1.19177q-1.44039-.70844-2.8706-1.45459a35.20239,35.20239,0,0,1-5.29346-3.69165,24.1776,24.1776,0,0,1-4.30725-4.82874,13.60622,13.60622,0,0,1-2.295-5.98975,12.00652,12.00652,0,0,0,1.152,2.95252,19.45294,19.45294,0,0,0,1.66254,2.67724,26.56239,26.56239,0,0,0,4.32538,4.56861,41.59447,41.59447,0,0,0,5.07892,3.77185l2.72943,1.63782C195.75585,137.54472,196.69981,138.03642,197.626,138.5778Z" fill="#b02336"/><path d="M166.86268,52.79556s14.617,2.0706,11.1539,22.48085-5.31157,29.58007-5.31157,29.58007l-28.02738-.8874" fill="#f73c4f"/><path d="M166.86266,52.79557A14.14426,14.14426,0,0,1,177.524,61.85832a20.26072,20.26072,0,0,1,.98554,3.53918c.10754.60242.13714,1.2157.20923,1.82385a12.28562,12.28562,0,0,1,.11682,1.83069,39.45354,39.45354,0,0,1-.64118,7.28162L175.674,90.63957l-2.617,14.28784-.0545.29785-.309-.00989c-4.67121-.14783-9.33978-.379-14.00977-.56555-4.67-.18579-9.33734-.45667-14.00613-.68079,4.67361.07166,9.34872.09668,14.02115.20667,4.67242.10925,9.34631.17395,14.01751.32178l-.36334.288,2.51575-14.29578,2.61218-14.27783a43.5373,43.5373,0,0,0,.7204-7.151,11.82215,11.82215,0,0,0-.07684-1.78918c-.05817-.59375-.07361-1.19544-.16614-1.78418a19.74764,19.74764,0,0,0-.88672-3.46045,14.55827,14.55827,0,0,0-3.87677-5.92932A13.83821,13.83821,0,0,0,166.86266,52.79557Z" fill="#b02336"/><path d="M184.51213,154.64958a30.578,30.578,0,0,1-.34643,7.8966,33.36493,33.36493,0,0,1-2.27228,7.61389,26.28863,26.28863,0,0,1-4.27374,6.70581,23.96786,23.96786,0,0,1-6.12281,4.99744q.762-.6341,1.5304-1.24292l.7655-.61121c.24738-.2124.46558-.45959.6991-.68689l1.3988-1.36242c.42591-.49146.83008-1.0022,1.245-1.50049a27.895,27.895,0,0,0,4.008-6.63318,36.53413,36.53413,0,0,0,2.40418-7.39856c.27423-1.2738.50171-2.56055.65027-3.85925A34.80488,34.80488,0,0,0,184.51213,154.64958Z" fill="#e6952a"/><path d="M192.05333,45.48665l.002.00121c-1.79058.29428-3.20483.82608-3.253,2.53341a14.3789,14.3789,0,0,0,.65959,3.31456c-3.96873-.25728-7.0203-8.57737-7.0203-8.57737C184.895,46.30812,192.05333,45.48665,192.05333,45.48665Z" fill="#dd765e"/><path d="M383.21941,237.53825c-.41016-.17383-1.07129-.3916-1.90918-.668-6.10449-2.01172-22.31739-7.35645-36.13672-26.43164a96.76637,96.76637,0,0,1-11.35938-20.27442c-2.27246-5.19531-4.23535-9.68261-8.74121-15.20312-8.35449-10.23731-23.39453-16.89942-44.7041-19.80176-.49121-.06641-.88965-.12109-1.18457-.166-8.33789-1.2754-13.86133-5.11524-20.377-14.1709l.666-.48047c6.37012,8.85156,11.7461,12.60254,19.83594,13.83887.291.04492.68457.09863,1.1709.16406,21.52148,2.93164,36.73926,9.69336,45.22949,20.09668,4.57617,5.60742,6.56055,10.14258,8.85742,15.39258a95.97353,95.97353,0,0,0,11.27246,20.12207c13.66309,18.86035,29.69336,24.14453,35.72754,26.13379.85645.28222,1.53223.50488,1.97266.69238Z" fill="#b02336"/><path d="M215.89574,124.74515l14.83991,9.50763s3.83858,1.444,11.32034,1.75c2.75716.11277,11.04475-1.67289,6.99368-6.036a18.76273,18.76273,0,0,0-12.147-6.086c-.78155-.13813-5.92374-1.544-5.92374-1.544Z" fill="#f9977a"/><path d="M218.55809,124.25269s3.58324-3.1895,14.16346-3.13334,18.90059,1.22807,11.63,2.892l-5.56144,1.17625Z" fill="#f9977a"/><path d="M259.98406,140.99333H228.97038l.20411-.55372c2.56542-6.957,6.16894-10.8457,10.71-11.55859,9.34961-1.47656,19.165,10.91992,19.5791,11.44824Zm-29.83008-.82227h28.11133c-2.19922-2.57422-10.57813-11.67773-18.25489-10.47852C235.905,130.33805,232.5905,133.86149,230.154,140.17106Z" fill="#b02336"/><path d="M231.88391,134.60483l1.29862-1.946a3.1848,3.1848,0,0,1,1.58562-1.78111l5.78386-2.78213a2.8618,2.8618,0,0,1,2.02344-.17737l5.40917,1.51911a4.04792,4.04792,0,0,1,2.56085,2.97223l-.4004.39928s-7.08411,4.42495-11.29176,3.15526Z" fill="#f9977a"/><path d="M245.58531,128.67838a18.94568,18.94568,0,0,1,.37775,3.47913c.00757.5824.01019,1.16541-.03565,1.74878a11.00619,11.00619,0,0,1-.22918,1.74329c-.147-1.16785-.21009-2.31983-.24335-3.4806A25.65932,25.65932,0,0,1,245.58531,128.67838Z" fill="#dd765e"/><path d="M241.19481,128.10636a26.08659,26.08659,0,0,1,.5304,4.13159c.03228.693.05511,1.38746.03027,2.08326a12.56472,12.56472,0,0,1-.19385,2.08239c-.14685-1.38708-.26861-2.75683-.34405-4.13855A37.74334,37.74334,0,0,1,241.19481,128.10636Z" fill="#dd765e"/><path d="M237.50145,129.738a12.883,12.883,0,0,1,.21808,2.88746,13.01258,13.01258,0,0,1-.11792,1.4425,7.5977,7.5977,0,0,1-.31177,1.42444,24.8713,24.8713,0,0,1-.07843-2.88171A17.78409,17.78409,0,0,1,237.50145,129.738Z" fill="#dd765e"/><path d="M250.28264,132.10453a20.34254,20.34254,0,0,0-2.18555-1.48144,16.47494,16.47494,0,0,0-2.31756-1.19751,11.04823,11.04823,0,0,0-4.96875-.98487,8.39038,8.39038,0,0,0-4.64948,1.79383,17.32041,17.32041,0,0,0-3.51013,3.858,12.79405,12.79405,0,0,1,3.10937-4.3468,8.21228,8.21228,0,0,1,5.00141-2.12488,10.251,10.251,0,0,1,5.2843,1.23486A14.77115,14.77115,0,0,1,250.28264,132.10453Z" fill="#dd765e"/><path d="M317.03883,308.03887l1.7624,22.24545h10.45163s-2.31387-5.10264-6.107-4.50274c0,0,3.81129-18.64617,4.36755-27.16972C327.5134,298.61186,316.181,298.01082,317.03883,308.03887Z" fill="#98999d"/><path d="M394.13181,281.90448l-1.1832,43.8771s6.70482,1.64334,7.29642,4.50274l-12.629-1.09919-4.133-46.19605S392.55421,277.86187,394.13181,281.90448Z" fill="#98999d"/><path d="M280.93874,305.86433l13.40964-29.97447s6.70481-31.55207,39.44009-35.10168c20.14851-2.18478,32.52748-3.22531,39.06817-3.70247a13.05853,13.05853,0,0,0,9.5077-5.20558l4.64174-6.20232a26.44709,26.44709,0,0,1,24.432-10.56013,16.03361,16.03361,0,0,1,4.5828,1.19488c6.9022,3.178,6.212,6.32935,6.212,6.32935l14.19844,1.44664s-2.267,9.60041-5.57053,9.00881c0,0,7.92057,5.32441-13.6647,5.32441l-5.31623,4.73281s0,31.35488-17.74805,38.7499l-1.7748.8874s-6.21181,43.1869-8.28242,43.1869c0,0,7.69082,1.05174,8.874,4.30554L378.45438,330.12l-2.958-47.62391s-22.48085,3.25381-34.31288-.8874a50.23032,50.23032,0,0,1-18.93125,20.706,12.48308,12.48308,0,0,0-6.21181,12.42363c.8874,8.874.2958,10.94463.2958,10.94463s4.437,1.93914,5.916,4.60134H311.01182L307.758,296.39871l7.69082-5.32441-2.36641-15.38164S311.702,303.89233,280.93874,305.86433Z" fill="#f1ece6"/><path d="M398.273,203.18862s10.47446,7.61354,12.23785,13.46959l-14.03695,1.13749Z" fill="#464b51"/><path d="M404.67353,217.13007l-8.20024.6656,1.79941-14.60929s.18074.1314.50953.38616C400.31864,205.70074,404.11465,211.46886,404.67353,217.13007Z" fill="#f4bbb8"/><path d="M430.86076,233.09733a12.76754,12.76754,0,0,1-4.0625.74695,11.62911,11.62911,0,0,1-2.076-.11475,5.629,5.629,0,0,1-1.9964-.6322c.6972.04163,1.36645-.00024,2.03674-.00781l2.012-.06617A32.86245,32.86245,0,0,1,430.86076,233.09733Z" fill="#98999d"/><path d="M435.23748,227.93043c-3.26444.35469-4.37669-4.40944-4.37669-4.40944l5.57053.56756S437.095,224.68923,435.23748,227.93043Z" fill="#464b51"/><path d="M418.357,217.55211h0a7.914,7.914,0,0,0-6.10287,4.858l-6.06477,15.04617a7.91408,7.91408,0,0,0-.569,3.23483l.975,27.92077s-10.88594-18.35811-13.05515-8.49809l-.52653,10.09194a13.04683,13.04683,0,0,1-13.258,12.365l-4.25934-.07472h0a7.64581,7.64581,0,0,0-10.01292-6.29117,132.95118,132.95118,0,0,1-24.3,5.40378,37.14158,37.14158,0,0,1-10.57313,14.29706s-13.68253-1.972-15.16153-4.83144l-2.36641-15.38164s-.35364,13.53884-10.0153,21.3526c0,0,5.33608-16.902-12.53736-12.61968l.71066-1.58851,3.108-6.94721s6.70481-31.55207,39.44009-35.10168c20.14851-2.18478,32.52748-3.22531,39.06817-3.70247a13.05853,13.05853,0,0,0,9.5077-5.20558l4.64174-6.20232a26.44709,26.44709,0,0,1,24.432-10.56013,16.03361,16.03361,0,0,1,4.5828,1.19488" fill="#464b51"/><path d="M414.10536,223.521s2.11291-2.85491,6.05692-.87908" fill="#464b51"/><path d="M405.28191,247.66618c-14.9668,0-24.21387-14.75586-24.31836-14.92676a1.64331,1.64331,0,0,1,2.80078-1.71973c.44141.71582,11.00781,17.4961,27.63574,12.417a1.64376,1.64376,0,0,1,.959,3.14454A24.16276,24.16276,0,0,1,405.28191,247.66618Z" fill="#b02336"/><circle cx="414.0505" cy="246.02933" r="3.53963" fill="#ffba55"/></g></g></svg>