<svg id="Layer_1" data-name="Layer 1" xmlns="http://www.w3.org/2000/svg" viewBox="0 0 700 550"><title>guy working at home</title><path d="M175.6677,309.83188c-3.4613,62.15273,98.66068,190.31525,160.082,121.80164,32.33086-36.06423,112.99168-79.9651,172.616-103.27373C566.342,305.69516,440.156,211.67481,348.284,206.55844S179.129,247.67916,175.6677,309.83188Z" fill="#efedef"/><path d="M524.56152,328.35145l-.38769-.99024c11.91064-4.65625,17.12012-12.207,15.48388-22.44141-2.99609-18.74316-28.90332-44.79492-67.61132-67.98925-40.65381-24.36035-86.752-40.11914-123.313-42.15528-100.32861-5.59863-185.01953,45.00879-188.794,112.78614l-1.0625-.0586c3.80762-68.36328,89.00489-119.39941,189.916-113.79,36.72461,2.04493,83.00537,17.86035,123.80029,42.30469,38.9707,23.35156,65.0708,49.68945,68.11524,68.73438C542.41016,315.39637,536.82617,323.5575,524.56152,328.35145Z" fill="#efedef"/><rect x="117.16387" y="364.35734" width="137.73392" height="73.45809" rx="3.54214" fill="#935b50"/><path d="M249.33111,399.86891H122.73049a2.82212,2.82212,0,0,1-2.81873-2.81873V371.10761a2.82212,2.82212,0,0,1,2.81873-2.81873H249.33111a2.82222,2.82222,0,0,1,2.81918,2.81873v25.94257A2.82222,2.82222,0,0,1,249.33111,399.86891ZM122.73049,369.20374a1.90607,1.90607,0,0,0-1.90387,1.90387v25.94257a1.90607,1.90607,0,0,0,1.90387,1.90387H249.33111a1.90617,1.90617,0,0,0,1.90432-1.90387V371.10761a1.90617,1.90617,0,0,0-1.90432-1.90387Z" fill="#e19974"/><path d="M249.33111,433.76824H122.73049a2.82212,2.82212,0,0,1-2.81873-2.81873V405.00694a2.82212,2.82212,0,0,1,2.81873-2.81873H249.33111a2.82222,2.82222,0,0,1,2.81918,2.81873v25.94257A2.82222,2.82222,0,0,1,249.33111,433.76824ZM122.73049,403.10307a1.90607,1.90607,0,0,0-1.90387,1.90387v25.94257a1.90607,1.90607,0,0,0,1.90387,1.90387H249.33111a1.90617,1.90617,0,0,0,1.90432-1.90387V405.00694a1.90617,1.90617,0,0,0-1.90432-1.90387Z" fill="#e19974"/><path d="M144.06255,379.96029a1.47915,1.47915,0,0,0,.17169-.68185,1.4943,1.4943,0,0,0-2.9886,0,1.47813,1.47813,0,0,0,.17169.6816,6.38881,6.38881,0,1,0,2.64522.00025Zm-1.32279,10.47117a4.22286,4.22286,0,1,1,4.22334-4.22335A4.22825,4.22825,0,0,1,142.73976,390.43146Z" fill="#e19974"/><path d="M231.49853,379.96a1.47813,1.47813,0,0,0,.17169-.6816,1.49424,1.49424,0,1,0-2.98847,0,1.47812,1.47812,0,0,0,.17168.6816,6.38841,6.38841,0,1,0,2.6451,0ZM230.176,390.43146a4.22286,4.22286,0,1,1,4.22335-4.22335A4.22825,4.22825,0,0,1,230.176,390.43146Z" fill="#e19974"/><path d="M144.0628,411.64271a1.47833,1.47833,0,0,0,.17144-.68111,1.49436,1.49436,0,1,0-2.81728.68111,6.38828,6.38828,0,1,0,2.64584,0Zm-1.323,10.47215a4.22335,4.22335,0,1,1,4.22334-4.22335A4.22825,4.22825,0,0,1,142.73976,422.11486Z" fill="#e19974"/><path d="M231.4989,411.64271a1.47811,1.47811,0,0,0,.17132-.68111,1.49424,1.49424,0,1,0-2.98847,0,1.4782,1.4782,0,0,0,.17144.68111,6.38835,6.38835,0,1,0,2.64571,0ZM230.176,422.11486a4.22335,4.22335,0,1,1,4.22335-4.22335A4.22825,4.22825,0,0,1,230.176,422.11486Z" fill="#e19974"/><polygon points="127.039 437.815 127.039 461.204 128.425 461.204 136.395 437.815 127.039 437.815" fill="#e19974"/><polygon points="245.398 437.815 245.398 461.204 244.012 461.204 236.042 437.815 245.398 437.815" fill="#e19974"/><rect x="188.13066" y="276.50798" width="25.70987" height="0.91447" transform="translate(-141.14272 269.67458) rotate(-52.81193)" fill="#4f66d0"/><rect x="177.55952" y="271.76206" width="0.91466" height="15.83306" transform="matrix(0.83205, -0.55471, 0.55471, 0.83205, -125.24104, 145.72051)" fill="#4f66d0"/><circle cx="209.59319" cy="265.73629" r="1.66047" fill="#ffba55"/><circle cx="173.24588" cy="272.2638" r="1.66047" fill="#ffba55"/><rect x="134.76238" y="293.51138" width="102.53729" height="66.52847" rx="5.48915" transform="translate(372.06204 653.55123) rotate(-180)" fill="#4f66d0"/><rect x="168.35596" y="298.12226" width="64.55238" height="57.74584" rx="3.62265" transform="translate(401.26431 653.99036) rotate(-180)" fill="#a2aee6"/><rect x="138.05587" y="298.12226" width="26.34791" height="57.74584" rx="3.65943" fill="#ffba55"/><rect x="214.68437" y="360.03985" width="11.63699" height="4.39132" transform="translate(441.00574 724.47102) rotate(-180)" fill="#4f66d0"/><rect x="146.07002" y="360.03985" width="11.63699" height="4.39132" transform="translate(303.77704 724.47102) rotate(-180)" fill="#4f66d0"/><path d="M175.16251,286.2657h21.737a0,0,0,0,1,0,0v0a7.24567,7.24567,0,0,1-7.24567,7.24567h-7.24569a7.24567,7.24567,0,0,1-7.24567-7.24567v0A0,0,0,0,1,175.16251,286.2657Z" transform="translate(372.06204 579.77708) rotate(-180)" fill="#a2aee6"/><circle cx="151.22982" cy="314.23291" r="6.66931" fill="#4f66d0"/><circle cx="151.22982" cy="332.53007" r="6.66931" fill="#4f66d0"/><circle cx="158.54869" cy="346.07454" r="1.91663" fill="#d5daf3"/><circle cx="151.22982" cy="346.07454" r="1.91663" fill="#d5daf3"/><circle cx="143.91096" cy="346.07454" r="1.91663" fill="#d5daf3"/><path d="M318.37315,243.54774V461.22436H269.16092V243.54774a2.36142,2.36142,0,0,1,2.36142-2.36143h44.48938A2.36143,2.36143,0,0,1,318.37315,243.54774Z" fill="#935b50"/><rect x="271.87659" y="280.78747" width="43.78088" height="32.51687" rx="2.36143" transform="translate(587.53406 594.0918) rotate(-180)" fill="#e19974"/><rect x="271.87659" y="244.72845" width="43.78088" height="32.51687" rx="2.36143" transform="translate(587.53406 521.97378) rotate(-180)" fill="#e19974"/><path d="M274.65758,273.11841c.74193.51941,1.029.58582,1.25049.81092.22767.21936.29159.50415.81094,1.25048a1.45886,1.45886,0,1,1-2.06143-2.0614Z" fill="#d6694b"/><path d="M276.719,246.794c-.51949.74194-.58585,1.02893-.81094,1.25049-.2193.22766-.50409.29162-1.25049.81091a1.45886,1.45886,0,1,1,2.06143-2.0614Z" fill="#d6694b"/><path d="M312.8765,248.85535c-.74193-.51941-1.029-.58581-1.25049-.81091-.22769-.21924-.29161-.504-.81095-1.25049a1.45886,1.45886,0,1,1,2.06144,2.0614Z" fill="#d6694b"/><path d="M310.81506,275.17981c.51947-.74194.58583-1.02893.81095-1.25048.21928-.22766.50407-.29163,1.25049-.81092a1.45886,1.45886,0,1,1-2.06144,2.0614Z" fill="#d6694b"/><path d="M274.65758,309.17737c.74193.51953,1.029.58594,1.25049.811.22767.21924.29159.504.81094,1.25049a1.4589,1.4589,0,1,1-2.06143-2.06153Z" fill="#d6694b"/><path d="M276.719,282.85291c-.51949.74194-.58585,1.029-.81094,1.25049-.2193.22778-.50409.29162-1.25049.811a1.45889,1.45889,0,1,1,2.06143-2.06152Z" fill="#d6694b"/><path d="M312.8765,284.91443c-.74193-.51953-1.029-.58593-1.25049-.811-.22769-.21924-.29161-.504-.81095-1.25049a1.4589,1.4589,0,1,1,2.06144,2.06152Z" fill="#d6694b"/><path d="M310.81506,311.2389c.51947-.74195.58583-1.02906.81095-1.25049.21928-.22779.50407-.29163,1.25049-.811a1.4589,1.4589,0,1,1-2.06144,2.06153Z" fill="#d6694b"/><rect x="271.87659" y="316.84648" width="43.78088" height="32.51687" rx="2.36143" transform="translate(587.53406 666.20983) rotate(-180)" fill="#e19974"/><rect x="271.87659" y="352.90549" width="43.78088" height="32.51687" rx="2.36143" transform="translate(587.53406 738.32785) rotate(-180)" fill="#e19974"/><rect x="271.87659" y="388.9645" width="43.78088" height="32.51687" rx="2.36143" transform="translate(587.53406 810.44588) rotate(-180)" fill="#e19974"/><rect x="271.87659" y="425.02352" width="43.78088" height="32.51687" rx="2.36143" transform="translate(587.53406 882.5639) rotate(-180)" fill="#e19974"/><rect x="287.03696" y="256.55921" width="13.46014" height="4.959" rx="0.91486" transform="translate(587.53406 518.07742) rotate(-180)" fill="#d6694b"/><rect x="287.03696" y="328.67724" width="13.46014" height="4.959" rx="0.91486" transform="translate(587.53406 662.31347) rotate(-180)" fill="#d6694b"/><rect x="287.03696" y="364.73625" width="13.46014" height="4.959" rx="0.91486" transform="translate(587.53406 734.4315) rotate(-180)" fill="#d6694b"/><rect x="287.03696" y="436.85427" width="13.46014" height="4.959" rx="0.91486" transform="translate(587.53406 878.66755) rotate(-180)" fill="#d6694b"/><rect x="287.03696" y="400.79526" width="13.46014" height="4.959" rx="0.91486" transform="translate(587.53406 806.54952) rotate(-180)" fill="#d6694b"/><rect x="287.03696" y="292.61822" width="13.46014" height="4.959" rx="0.91486" transform="translate(587.53406 590.19545) rotate(-180)" fill="#d6694b"/><path d="M274.65758,345.23646c.74193.5194,1.029.58581,1.25049.81091.22767.21924.29159.504.81094,1.25049a1.45886,1.45886,0,1,1-2.06143-2.0614Z" fill="#d6694b"/><path d="M276.719,318.912c-.51949.74195-.58585,1.02893-.81094,1.25049-.2193.22766-.50409.29163-1.25049.81091a1.45886,1.45886,0,1,1,2.06143-2.0614Z" fill="#d6694b"/><path d="M312.8765,320.97339c-.74193-.51941-1.029-.58581-1.25049-.81091-.22769-.21936-.29161-.50415-.81095-1.25049a1.45886,1.45886,0,1,1,2.06144,2.0614Z" fill="#d6694b"/><path d="M310.81506,347.29786c.51947-.742.58583-1.02893.81095-1.25049.21928-.22766.50407-.29163,1.25049-.81091a1.45886,1.45886,0,1,1-2.06144,2.0614Z" fill="#d6694b"/><path d="M274.65758,381.29542c.74193.51953,1.029.58581,1.25049.81091.22767.21936.29159.50415.81094,1.25049a1.45886,1.45886,0,1,1-2.06143-2.0614Z" fill="#d6694b"/><path d="M276.719,354.971c-.51949.74195-.58585,1.029-.81094,1.25049-.2193.22766-.50409.29163-1.25049.81091a1.45885,1.45885,0,1,1,2.06143-2.0614Z" fill="#d6694b"/><path d="M312.8765,357.03235c-.74193-.51941-1.029-.58581-1.25049-.81091-.22769-.21924-.29161-.504-.81095-1.25049a1.45886,1.45886,0,1,1,2.06144,2.0614Z" fill="#d6694b"/><path d="M310.81506,383.35682c.51947-.74182.58583-1.02893.81095-1.25049.21928-.22766.50407-.29151,1.25049-.81091a1.45886,1.45886,0,1,1-2.06144,2.0614Z" fill="#d6694b"/><path d="M274.65758,453.41346c.74193.51953,1.029.58581,1.25049.81091.22767.21936.29159.50415.81094,1.25049a1.45886,1.45886,0,1,1-2.06143-2.0614Z" fill="#d6694b"/><path d="M276.719,427.089c-.51949.74195-.58585,1.02906-.81094,1.25049-.2193.22766-.50409.29163-1.25049.81092A1.45886,1.45886,0,1,1,276.719,427.089Z" fill="#d6694b"/><path d="M312.8765,429.1504c-.74193-.51941-1.029-.58582-1.25049-.81092-.22769-.21924-.29161-.504-.81095-1.25049a1.45886,1.45886,0,1,1,2.06144,2.06141Z" fill="#d6694b"/><path d="M310.81506,455.47486c.51947-.74194.58583-1.02893.81095-1.25049.21928-.22766.50407-.2915,1.25049-.81091a1.45886,1.45886,0,1,1-2.06144,2.0614Z" fill="#d6694b"/><path d="M274.65758,417.3545c.74193.51941,1.029.58581,1.25049.81091.22767.21924.29159.504.81094,1.25049a1.45886,1.45886,0,1,1-2.06143-2.0614Z" fill="#d6694b"/><path d="M276.719,391.03c-.51949.74195-.58585,1.02893-.81094,1.25049-.2193.22766-.50409.29151-1.25049.81092A1.45886,1.45886,0,1,1,276.719,391.03Z" fill="#d6694b"/><path d="M312.8765,393.09144c-.74193-.51954-1.029-.58582-1.25049-.81092-.22769-.21936-.29161-.50415-.81095-1.25049a1.45886,1.45886,0,1,1,2.06144,2.06141Z" fill="#d6694b"/><path d="M310.81506,419.4159c.51947-.74194.58583-1.02905.81095-1.25049.21928-.22766.50407-.29163,1.25049-.81091a1.45886,1.45886,0,1,1-2.06144,2.0614Z" fill="#d6694b"/><path d="M286.10169,214.55515h14.78669a15.4794,15.4794,0,0,1,15.4794,15.4794v10.20974a0,0,0,0,1,0,0H270.62229a0,0,0,0,1,0,0V230.03455A15.4794,15.4794,0,0,1,286.10169,214.55515Z" transform="translate(586.99007 454.79943) rotate(-180)" fill="#d6694b"/><path d="M299.14725,209.97622a13.037,13.037,0,0,0,1.58425-3.53447,8.20635,8.20635,0,0,0,.29885-2.741,3.00615,3.00615,0,0,0-.99169-2.06792,14.05089,14.05089,0,0,1-1.75065-1.74194l-2.82766-3.81053a18.28168,18.28168,0,0,1-2.43791-4.18119l-.02144-.05483a.545.545,0,0,0-.97539-.08354,12.85168,12.85168,0,0,0-1.44934,5.52891,24.74757,24.74757,0,0,0,.20682,5.51483c.128.89208.06388,1.86166.11659,2.79539a3.59177,3.59177,0,0,0,1.03279,2.40195,7.6824,7.6824,0,0,0,2.46,1.66421,10.103,10.103,0,0,0,3.87765.8034.99459.99459,0,0,0,.859-.464Z" fill="#8b9d36"/><path d="M307.35417,191.81687l-3.16068,7.56924a10.348,10.348,0,0,1-1.00487,1.68186,4.05322,4.05322,0,0,0-.40047.81133,3.45067,3.45067,0,0,0-.13625.85935,7.255,7.255,0,0,0,.05316.91274,7.51186,7.51186,0,0,0,.17511.97516c.06187.30957.17891.68056.27852,1.08807.11771.39277.19544.79715.33749,1.38848l.0163.0679a.50941.50941,0,0,0,.4351.38629,4.13128,4.13128,0,0,0,1.62021-.1827,6.91489,6.91489,0,0,0,1.32359-.652,7.39342,7.39342,0,0,0,1.0252-.86773,7.08276,7.08276,0,0,0,.7737-.98388,3.86456,3.86456,0,0,0,.63589-2.21332c-.00849-.77727-.12062-1.548-.10721-2.27609-.00313-.73283-.02078-1.45627-.059-2.17368-.06477-.72222-.15076-1.43729-.24033-2.14688a29.82268,29.82268,0,0,0-.92558-4.21793.34029.34029,0,0,0-.4266-.2228A.34928.34928,0,0,0,307.35417,191.81687Z" fill="#5e7c24"/><path d="M328.59358,197.31562c-1.9242.514-3.78965,1.12805-5.66024,1.72619l-2.77652.94445-2.73094,1.013c-.90638.34352-1.86992.575-2.81337.84015a7.1072,7.1072,0,0,0-2.53529,1.31489,13.32241,13.32241,0,0,0-3.80864,5.01117l-.04578.10095a.38778.38778,0,0,0,.1932.51305l.01362.0058a8.53161,8.53161,0,0,0,3.56808.5528,12.13578,12.13578,0,0,0,3.05727-.51427,7.06235,7.06235,0,0,0,2.56924-1.40556c.75159-.65421,1.48374-1.34035,2.26615-1.92744l2.33361-1.78136,2.27463-1.87416c1.49357-1.28674,2.98647-2.56835,4.41259-3.96364a.3309.3309,0,0,0-.31761-.556Z" fill="#50661a"/><path d="M331.89229,212.86284c-1.69436-.56586-3.39319-1.00788-5.0918-1.46006l-2.54981-.618-2.55338-.52209c-.85165-.15713-1.69794-.46346-2.54691-.698a5.61406,5.61406,0,0,0-2.56745-.12207,10.35146,10.35146,0,0,0-2.60118.84853,9.54849,9.54849,0,0,0-2.63647,1.85149.47212.47212,0,0,0-.02234.64,9.545,9.545,0,0,0,2.50023,2.03163,10.35452,10.35452,0,0,0,2.53551,1.02843,5.61288,5.61288,0,0,0,2.56946.05807c.86349-.17455,1.72921-.42091,2.58979-.51807l2.58354-.34195,2.58689-.438c1.72608-.33224,3.45171-.6542,5.18159-1.1a.33382.33382,0,0,0,.2401-.40661A.33755.33755,0,0,0,331.89229,212.86284Z" fill="#5e7c24"/><path d="M319.50083,217.73688a8.66837,8.66837,0,0,0-2.7468,1.36949,8.89582,8.89582,0,0,0-1.82146,1.80314,4.79136,4.79136,0,0,0-.91977,2.2074c-.12418.81525-.18181,1.656-.369,2.44327l-.50679,2.38263-.37412,2.43769c-.09649.82082-.19119,1.64634-.23809,2.48682a10.45147,10.45147,0,0,0,.0985,2.60141.32037.32037,0,0,0,.59948.08186l.0411-.08186a38.16955,38.16955,0,0,1,2.49977-3.971l1.32851-1.976,1.283-1.99667a23.36966,23.36966,0,0,1,1.46744-1.9166,4.73736,4.73736,0,0,0,.95818-2.13493,9.29154,9.29154,0,0,0-.71763-5.47005A.49446.49446,0,0,0,319.50083,217.73688Z" fill="#8b9d36"/><path d="M345.56937,224.00944a18.53756,18.53756,0,0,0-3.95694-3.36483q-1.09822-.70306-2.2657-1.31131c-.78285-.38987-1.58849-.71987-2.40239-1.06-.82239-.28165-1.62513-.74634-2.46695-1.05289a4.87637,4.87637,0,0,0-2.60721-.32465,7.93945,7.93945,0,0,0-5.10721,2.77361.46824.46824,0,0,0,.00938.621l.01742.01887a10.818,10.818,0,0,0,2.36733,1.91884,11.0955,11.0955,0,0,0,2.20249,1.05132,4.90987,4.90987,0,0,0,2.20384.21476,14.0155,14.0155,0,0,1,2.301-.21286c.7565.03306,1.5264.05629,2.28781.13971q1.16291.05478,2.32691.21833a32.31677,32.31677,0,0,1,4.72036.893l.03216.0086a.33008.33008,0,0,0,.33771-.53147Z" fill="#8b9d36"/><path d="M328.12252,221.8897a6.86183,6.86183,0,0,0-3.05593.63052,7.77746,7.77746,0,0,0-2.22527,1.52172,4.8381,4.8381,0,0,0-1.28943,2.21846c-.23742.84863-.36764,1.73613-.59479,2.56243l-.29907,1.25268-.228,1.26776a24.08873,24.08873,0,0,0-.17668,2.56455,16.30607,16.30607,0,0,0,.74154,4.97074.33285.33285,0,0,0,.63187.01117l.00826-.02435a26.08018,26.08018,0,0,1,1.74082-4.24841,20.48762,20.48762,0,0,1,1.08662-1.90454l.5604-.91832.6131-.88449a11.10189,11.10189,0,0,1,1.473-1.59753,4.23937,4.23937,0,0,0,1.09488-1.76964,11.575,11.575,0,0,0,.37926-5.20783l-.00425-.03172A.47459.47459,0,0,0,328.12252,221.8897Z" fill="#50661a"/><path d="M346.82507,237.314c-1.26195-1.08014-2.55785-2.06536-3.83543-3.06822l-1.92755-1.461-1.93871-1.39373a20.43486,20.43486,0,0,1-1.81877-1.57419,4.74622,4.74622,0,0,0-2.01868-1.08908,9.67076,9.67076,0,0,0-2.42942-.29538,13.35078,13.35078,0,0,0-1.37.08319,13.60532,13.60532,0,0,0-1.58582.28255l-.02524.00659a.48861.48861,0,0,0-.36406.50187,6.34831,6.34831,0,0,0,.36406,1.651,9.77508,9.77508,0,0,0,.64639,1.35207,8.698,8.698,0,0,0,1.71737,2.05084,4.90748,4.90748,0,0,0,2.20607,1.11487c.82239.18661,1.67225.297,2.45533.53158l2.37.64125,2.40708.51829c1.62111.29673,3.23484.58642,4.90084.73841a.33542.33542,0,0,0,.36473-.30365A.34365.34365,0,0,0,346.82507,237.314Z" fill="#50661a"/><path d="M347.81312,247.9662c-1.262-1.08014-2.55785-2.06536-3.83544-3.06822l-1.92754-1.46095-1.93872-1.39373a20.438,20.438,0,0,1-1.81877-1.5742A4.74613,4.74613,0,0,0,336.274,239.38a9.67088,9.67088,0,0,0-2.42942-.29538,13.34844,13.34844,0,0,0-1.37006.0832,13.60286,13.60286,0,0,0-1.58581.28254l-.02524.00659a.48862.48862,0,0,0-.36407.50188,6.34823,6.34823,0,0,0,.36407,1.651,9.77508,9.77508,0,0,0,.64639,1.35207,8.69757,8.69757,0,0,0,1.71737,2.05084,4.90749,4.90749,0,0,0,2.20606,1.11487c.82239.18661,1.67226.297,2.45533.53158l2.37.64125,2.40709.51829c1.6211.29673,3.23484.58642,4.90083.73841a.3354.3354,0,0,0,.36474-.30365A.34365.34365,0,0,0,347.81312,247.9662Z" fill="#8b9d36"/><path d="M329.65071,236.08306l-.38819-.0517-.3357-.00134c-.22536.00335-.44805.01407-.67185.0297a4.60716,4.60716,0,0,0-1.11476.3032,4.02887,4.02887,0,0,0-1.61775,1.14559,2.31238,2.31238,0,0,0-.56933,1.67113c.02077.62026.16394,1.24029.17377,1.81218a11.11912,11.11912,0,0,0,.64482,3.3215,11.557,11.557,0,0,0,1.51211,2.89992.3579.3579,0,0,0,.62561-.08823l.006-.01708c.36653-1.006.652-1.92677,1.05825-2.78277a10.35172,10.35172,0,0,1,.58765-1.22621c.1769-.39456.40382-.76376.5939-1.12526a4.6047,4.6047,0,0,1,.86527-.9554,1.173,1.173,0,0,0,.39869-1.01146,5.22475,5.22475,0,0,0-.36407-1.41606c-.08822-.26546-.23072-.5843-.36742-.912-.20973-.38405-.30443-.70323-.55436-1.17495l-.07125-.13457A.55261.55261,0,0,0,329.65071,236.08306Z" fill="#5e7c24"/><path d="M332.43415,245.62452a6.53308,6.53308,0,0,0-2.45667,2.27241,8.1193,8.1193,0,0,0-1.138,2.7602,5.45944,5.45944,0,0,0,.13513,2.853c.27718.93094.70111,1.81184.98142,2.69845a22.31657,22.31657,0,0,0,2.431,4.94506,26.54044,26.54044,0,0,0,1.599,2.17424c.56911.68815,1.20723,1.32091,1.819,1.94541a.329.329,0,0,0,.55749-.2955l-.00648-.03082c-.18-.85991-.3969-1.67974-.56776-2.5019-.13089-.83914-.35067-1.62479-.41678-2.45153l-.1702-1.19986-.08666-1.19953c-.10833-.77805-.09381-1.57017-.12441-2.33617a11.842,11.842,0,0,1,.30019-2.30132,6.84682,6.84682,0,0,0,.09827-1.10214,6.34727,6.34727,0,0,0-.14607-1.08629,14.41019,14.41019,0,0,0-.77928-2.27184,19.25672,19.25672,0,0,0-1.42388-2.66283l-.03462-.05427A.44145.44145,0,0,0,332.43415,245.62452Z" fill="#8b9d36"/><path d="M300.35448,208.51436a7.97889,7.97889,0,0,0-1.65393,2.35907,7.51364,7.51364,0,0,0-.639,2.245,3.86626,3.86626,0,0,0,.34039,2.11662c.30845.67709.69084,1.34157.93116,2.028l.78286,2.04927.91843,2.02538a17.72647,17.72647,0,0,0,2.40485,3.90713.32538.32538,0,0,0,.56777-.22726l-.00268-.07416a41.59086,41.59086,0,0,1,.16908-4.2378l.13624-2.1337.08131-2.12444a19.05044,19.05044,0,0,1,.28075-2.1538,3.7898,3.7898,0,0,0-.26936-2.07138,7.73345,7.73345,0,0,0-1.21572-1.94776,8.44471,8.44471,0,0,0-2.19646-1.83809A.52965.52965,0,0,0,300.35448,208.51436Z" fill="#50661a"/><path d="M292.86319,211.635l-.37256.09548-.30956.11447-.61155.236a5.94971,5.94971,0,0,0-.94814.5595,4.35191,4.35191,0,0,0-1.25636,1.31846,2.07571,2.07571,0,0,0-.25172,1.5608c.11011.55336.31627,1.12336.37166,1.66175a15.011,15.011,0,0,0,.7661,3.28554,6.41469,6.41469,0,0,0,1.93269,2.98312.341.341,0,0,0,.54319-.2611l.00291-.07338a7.74426,7.74426,0,0,1,.72232-2.72089c.17578-.43956.34888-.86383.56353-1.29858l.55414-1.29a8.21237,8.21237,0,0,1,.79849-1.25179,1.68559,1.68559,0,0,0,.27562-1.33633,4.6153,4.6153,0,0,0-.63455-1.56013,7.29938,7.29938,0,0,0-.604-.87208l-.43175-.47787-.216-.24178-.2774-.2601-.019-.01764A.64831.64831,0,0,0,292.86319,211.635Z" fill="#8b9d36"/><path d="M291.43864,211.42523a9.01763,9.01763,0,0,0-.22157-3.06118,9.19616,9.19616,0,0,0-.94188-2.37191,4.81788,4.81788,0,0,0-1.643-1.70944c-.68882-.43777-1.42835-.82853-2.05887-1.32147l-1.92264-1.4489-1.9836-1.39407-4.05231-2.72123-.00827-.00547a.33383.33383,0,0,0-.49718.39857,41.90718,41.90718,0,0,0,2.1806,4.47334l1.22108,2.1261,1.30282,2.05229c.44827.67062.788,1.44321,1.182,2.16509a4.8332,4.8332,0,0,0,1.609,1.76706,9.09705,9.09705,0,0,0,2.31976,1.09555,8.85253,8.85253,0,0,0,3.0499.39679A.49175.49175,0,0,0,291.43864,211.42523Z" fill="#50661a"/><path d="M282.82812,214.3104a9.67875,9.67875,0,0,0-.78889-3.18145,10.86588,10.86588,0,0,0-1.44153-2.41882,5.9954,5.9954,0,0,0-2.06468-1.67392c-.81167-.4084-1.668-.76063-2.42942-1.22778l-2.31507-1.36156-2.37291-1.28474c-1.60592-.82429-3.20379-1.65494-4.87559-2.38653a.3312.3312,0,0,0-.40651.4897l.008.012c1.04172,1.52316,2.15738,2.94738,3.26477,4.37785l1.69726,2.0974,1.75534,2.02069c.59524.66012,1.09555,1.43538,1.64076,2.15436a5.88974,5.88974,0,0,0,2.0055,1.70821,10.84353,10.84353,0,0,0,2.62887.96344,9.944,9.944,0,0,0,3.2813.20068A.46568.46568,0,0,0,282.82812,214.3104Z" fill="#5e7c24"/><path d="M282.6233,223.26455a8.09369,8.09369,0,0,0-.08309,2.83883,7.38634,7.38634,0,0,0,.66872,2.17413,3.6727,3.6727,0,0,0,1.39619,1.53076,20.95576,20.95576,0,0,1,1.82815,1.149l1.69615,1.26575,1.76807,1.20209c1.2088.7747,2.41,1.55622,3.70411,2.25565a.341.341,0,0,0,.47976-.42415c-.53583-1.36994-1.16434-2.6578-1.785-3.95247l-.97651-1.902-1.04842-1.83843a20.96038,20.96038,0,0,1-.91665-1.955,3.67317,3.67317,0,0,0-1.34816-1.57319,7.38291,7.38291,0,0,0-2.07585-.93,8.09619,8.09619,0,0,0-2.82766-.26523A.5351.5351,0,0,0,282.6233,223.26455Z" fill="#5e7c24"/><path d="M283.89687,231.478l-.39847.04713-.33994.08063-.67342.17589a5.85545,5.85545,0,0,0-1.08505.50925,4.9068,4.9068,0,0,0-1.55231,1.37965,2.777,2.777,0,0,0-.54833,1.8056c.01831.66448.13624,1.345.12708,1.98584a14.27816,14.27816,0,0,0,.5021,3.86972,9.49377,9.49377,0,0,0,1.75981,3.45975.3459.3459,0,0,0,.60462-.17835l.00313-.02345a13.64078,13.64078,0,0,1,.83422-3.21842,14.6473,14.6473,0,0,1,.63612-1.44744c.199-.46916.44871-.93831.67073-1.39507a7.85407,7.85407,0,0,1,.95394-1.29646,2.11031,2.11031,0,0,0,.49049-1.416,5.87891,5.87891,0,0,0-.33034-1.77712,9.066,9.066,0,0,0-.40852-1.04251l-.3147-.59054-.15456-.29986-.20929-.33145-.02367-.03753A.56508.56508,0,0,0,283.89687,231.478Z" fill="#50661a"/><path d="M282.64206,215.39758l-.379-.10476-.33347-.05952-.66246-.12284a7.78,7.78,0,0,0-1.12817-.059,5.45831,5.45831,0,0,0-1.82681.28891,2.19684,2.19684,0,0,0-1.21035.97661,9.55873,9.55873,0,0,1-.90459,1.39005c-.35178.3845-.70423.79145-1.062,1.16669-.34709.41733-.70646.77917-1.081,1.15206a6.48968,6.48968,0,0,1-2.54177,1.77309l-.06343.02111a.33613.33613,0,0,0-.06991.60529,6.22918,6.22918,0,0,0,3.96878.52957,15.99,15.99,0,0,0,3.70164-.99191c.56643-.23866,1.23359-.35625,1.83575-.5585a2.653,2.653,0,0,0,1.44934-1.08081,5.064,5.064,0,0,0,.75338-1.86735,6.34393,6.34393,0,0,0,.13222-1.17194l-.03886-.68693-.025-.34485-.07192-.39188a.5822.5822,0,0,0-.41678-.4562Z" fill="#8b9d36"/><path d="M289.011,238.872a10.109,10.109,0,0,0-2.41535-5.05c-1.04016-1.12638-1.622-1.16446-2.41513-2.19557-.66939-.87019-1.22643-2.10612-1.31734-6.36749a50.10227,50.10227,0,0,1,.43912-7.90439c.22893-1.622-.8868-1.39574-.65185-3.19066a1.54255,1.54255,0,0,1,1.04926-1.2631,25.17591,25.17591,0,0,1,7.50686-1.25494c2.52882-.02412,2.97418.3797,4.61092,0,3.70768-.86025,3.83119-3.49136,7.026-4.1717a8.02872,8.02872,0,0,1,7.0734,2.216c1.507,1.56448.84271,2.51441,2.368,4.37093,1.44554,1.75924,3.26722,2.39748,6.58693,3.513,5.2984,1.78047,6.18624.84763,7.9045,2.41524,2.22349,2.02861,2.66148,5.34709,2.85424,6.8066a24.03894,24.03894,0,0,1,0,4.17169,50.98211,50.98211,0,0,0,.65867,8.34351c.928,5.58452,5.119,10.56955,7.9045,13.39353" fill="none" stroke="#7e883b" stroke-miterlimit="10" stroke-width="0.91486"/><path d="M336.67073,251.55714l-.13156.35725-.08309.31426-.16215.62517a6.4712,6.4712,0,0,0-.11481,1.06495,4.37265,4.37265,0,0,0,.24458,1.71134,1.816,1.816,0,0,0,.9803,1.06127,11.49864,11.49864,0,0,1,1.41227.67978c.41945.27171.84427.53895,1.28.79625l1.35241.73272c.93161.46189,1.85562.93049,2.87233,1.31711a.36168.36168,0,0,0,.48-.424c-.2582-1.05669-.60931-2.03141-.95261-3.01294l-.56039-1.43237c-.20147-.46435-.41433-.91876-.63232-1.36871a11.47409,11.47409,0,0,1-.50031-1.4853,1.81665,1.81665,0,0,0-.93228-1.10371,4.37149,4.37149,0,0,0-1.66823-.45363,6.47692,6.47692,0,0,0-1.071-.01753l-.64035.08387-.32208.04355-.37077.08666A.68256.68256,0,0,0,336.67073,251.55714Z" fill="#50661a"/><path d="M288.032,236.61464a7.19293,7.19293,0,0,0-1.95077,1.90912,6.28662,6.28662,0,0,0-.91017,1.95446,3.18878,3.18878,0,0,0,.09984,1.95513c.23407.645.54923,1.28317.72188,1.92777.19342.64538.39333,1.28864.61,1.932.2506.64058.51237,1.27792.80162,1.91236a15.46569,15.46569,0,0,0,1.05892,1.87025,3.63008,3.63008,0,0,0,1.7674,1.55086.30771.30771,0,0,0,.37121-.42627l-.06611-.13669a3.64053,3.64053,0,0,1-.16417-1.60882c.03351-.59122.0927-1.19494.18651-1.80381.073-.60685.17-1.219.27718-1.82983.07705-.60886.1693-1.22085.26735-1.83172a13.72594,13.72594,0,0,1,.50166-1.845,2.9444,2.9444,0,0,0-.031-1.822,6.66225,6.66225,0,0,0-.96645-1.82458,8.30577,8.30577,0,0,0-1.93447-1.87014l-.00871-.006A.56207.56207,0,0,0,288.032,236.61464Z" fill="#8b9d36"/><path d="M220.33809,190.12008a9.08443,9.08443,0,0,1-18.16887,0c0-5.01719,4.06724-11.95926,9.08444-11.95926S220.33809,185.10289,220.33809,190.12008Z" fill="#ffba55"/><path d="M214.10276,178.94841h-5.77184v-7.86293a.91486.91486,0,0,1,.91486-.91486h3.94212a.91486.91486,0,0,1,.91486.91486Z" fill="#f65b2b"/><line x1="211.25366" y1="102.8445" x2="211.25366" y2="156.66567" fill="none" stroke="#7ca1b1" stroke-miterlimit="10" stroke-width="0.91486"/><polygon points="211.254 156.666 179.596 200.83 191.126 214.118 211.254 214.118 211.254 156.666" fill="none" stroke="#7ca1b1" stroke-miterlimit="10" stroke-width="0.91486"/><polyline points="211.254 156.666 195.425 201.025 200.31 214.118" fill="none" stroke="#7ca1b1" stroke-miterlimit="10" stroke-width="0.91486"/><line x1="179.59639" y1="200.82952" x2="211.25366" y2="200.82952" fill="none" stroke="#7ca1b1" stroke-miterlimit="10" stroke-width="0.91486"/><polygon points="211.254 156.666 242.911 200.83 231.381 214.118 211.254 214.118 211.254 156.666" fill="none" stroke="#7ca1b1" stroke-miterlimit="10" stroke-width="0.91486"/><polyline points="211.254 156.666 227.082 201.025 222.197 214.118" fill="none" stroke="#7ca1b1" stroke-miterlimit="10" stroke-width="0.91486"/><line x1="242.91093" y1="200.82952" x2="211.25366" y2="200.82952" fill="none" stroke="#7ca1b1" stroke-miterlimit="10" stroke-width="0.91486"/><line x1="204.45274" y1="102.8445" x2="218.05457" y2="102.8445" fill="none" stroke="#9857bd" stroke-miterlimit="10" stroke-width="0.91486"/><path d="M530.17865,435.98549s-22.06638-36.73385-25.52454-45.95562" fill="none" stroke="#8b9d36" stroke-miterlimit="10" stroke-width="0.91486"/><path d="M512.06425,370.763a39.30262,39.30262,0,0,0-2.11338,7.0835,66.22384,66.22384,0,0,0-1.08014,7.18184,64.90528,64.90528,0,0,0-.29751,7.25621,38.77115,38.77115,0,0,0,.746,7.35544,38.80732,38.80732,0,0,0,2.11829-7.08312,65.00927,65.00927,0,0,0,1.07522-7.18228,66.22249,66.22249,0,0,0,.2926-7.25666A39.26754,39.26754,0,0,0,512.06425,370.763Z" fill="#8b9d36"/><path d="M520.13358,381.79617a37.4884,37.4884,0,0,0-2.74234,6.67873,62.96039,62.96039,0,0,0-1.723,6.8745,61.99948,61.99948,0,0,0-.951,7.02276,37.07726,37.07726,0,0,0,.07862,7.22042,37.04415,37.04415,0,0,0,2.74725-6.67779,61.99842,61.99842,0,0,0,1.718-6.8755,63.06384,63.06384,0,0,0,.94613-7.02365A37.52364,37.52364,0,0,0,520.13358,381.79617Z" fill="#8b9d36"/><path d="M524.57967,394.64076a31.80849,31.80849,0,0,0-2.3345,6.20784,52.83994,52.83994,0,0,0-1.30617,6.35459,51.95514,51.95514,0,0,0-.52846,6.4656,31.40671,31.40671,0,0,0,.50925,6.61373,31.40867,31.40867,0,0,0,2.33941-6.20717,51.8727,51.8727,0,0,0,1.30126-6.35526,52.8429,52.8429,0,0,0,.52354-6.46632A31.778,31.778,0,0,0,524.57967,394.64076Z" fill="#8b9d36"/><path d="M530.1787,407.46161a24.35129,24.35129,0,0,0-2.3671,5.28294,39.68227,39.68227,0,0,0-1.3437,5.45961,38.94821,38.94821,0,0,0-.56955,5.59329,24.06914,24.06914,0,0,0,.46323,5.77163,24.05023,24.05023,0,0,0,2.372-5.2821,39.01189,39.01189,0,0,0,1.33923-5.46045,39.74561,39.74561,0,0,0,.56464-5.59412A24.351,24.351,0,0,0,530.1787,407.46161Z" fill="#8b9d36"/><path d="M535.11885,415.47511a21.9234,21.9234,0,0,0-2.49889,4.63861,37.80369,37.80369,0,0,0-1.57107,4.81194,43.19526,43.19526,0,0,0-.94881,4.93467c-.10274.83758-.197,1.67047-.25953,2.51944a18.74958,18.74958,0,0,1-.27607,2.57974,5.06423,5.06423,0,0,0,.60752-.3835l.49317-.49417a9.1203,9.1203,0,0,0,.86259-1.07891,17.28026,17.28026,0,0,0,1.32628-2.30826,25.70354,25.70354,0,0,0,1.74037-4.86722,28.81005,28.81005,0,0,0,.81927-5.0679A19.07862,19.07862,0,0,0,535.11885,415.47511Z" fill="#8b9d36"/><path d="M507.26616,395.69437a31.51588,31.51588,0,0,0-5.566-4.82651,51.578,51.578,0,0,0-6.15206-3.66853,50.67312,50.67312,0,0,0-6.59609-2.79209,31.155,31.155,0,0,0-7.18753-1.62306,31.14733,31.14733,0,0,0,5.56285,4.832,50.67994,50.67994,0,0,0,6.15519,3.663,51.55782,51.55782,0,0,0,6.59877,2.78657A31.5133,31.5133,0,0,0,507.26616,395.69437Z" fill="#8b9d36"/><path d="M512.73342,405.90623a38.82391,38.82391,0,0,0-6.865-4.49405,64.638,64.638,0,0,0-7.32155-3.279,63.483,63.483,0,0,0-7.66685-2.35952,38.38186,38.38186,0,0,0-8.1274-1.1329,38.38835,38.38835,0,0,0,6.86233,4.49985,63.49289,63.49289,0,0,0,7.32377,3.2732,64.6246,64.6246,0,0,0,7.66909,2.35371A38.82392,38.82392,0,0,0,512.73342,405.90623Z" fill="#8b9d36"/><path d="M519.16914,417.25708a33.108,33.108,0,0,0-6.18825-4.33887,54.4079,54.4079,0,0,0-6.66041-3.12975,53.44423,53.44423,0,0,0-7.01734-2.21467,32.72487,32.72487,0,0,0-7.49353-.994,32.73668,32.73668,0,0,0,6.186,4.34463,53.45233,53.45233,0,0,0,6.66265,3.124,54.41615,54.41615,0,0,0,7.01957,2.20892A33.107,33.107,0,0,0,519.16914,417.25708Z" fill="#8b9d36"/><path d="M524.25536,425.99385a24.82045,24.82045,0,0,0-5.4351-3.58,39.63872,39.63872,0,0,0-5.82284-2.34125,38.9291,38.9291,0,0,0-6.11677-1.4039,24.557,24.557,0,0,0-6.50809-.15338,24.55476,24.55476,0,0,0,5.43331,3.58583,38.92489,38.92489,0,0,0,5.82507,2.33539,39.61932,39.61932,0,0,0,6.11811,1.39792A24.83309,24.83309,0,0,0,524.25536,425.99385Z" fill="#8b9d36"/><path d="M528.27037,433.83324a32.64593,32.64593,0,0,0-5.97428-4.53933,53.57655,53.57655,0,0,0-6.48977-3.34819,52.64366,52.64366,0,0,0-6.8802-2.44684,32.27881,32.27881,0,0,0-7.40061-1.24431,32.26667,32.26667,0,0,0,5.97159,4.545,52.62477,52.62477,0,0,0,6.49246,3.34261,53.5675,53.5675,0,0,0,6.88243,2.441A32.64411,32.64411,0,0,0,528.27037,433.83324Z" fill="#8b9d36"/><path d="M505.4896,391.34729a22.97706,22.97706,0,0,0-.17824-7.337,34.5722,34.5722,0,0,0-1.86947-6.67471,34.00407,34.00407,0,0,0-3.15063-6.17306,22.74816,22.74816,0,0,0-4.85885-5.50445,22.73441,22.73441,0,0,0,.16975,7.34014,34.03483,34.03483,0,0,0,1.87752,6.67158,34.57507,34.57507,0,0,0,3.15912,6.16988A22.98111,22.98111,0,0,0,505.4896,391.34729Z" fill="#8b9d36"/><path d="M533.60319,437.70886s-.98805-61.09422-12.84461-79.86711" fill="none" stroke="#50661a" stroke-miterlimit="10" stroke-width="0.91486"/><path d="M524.54661,366.01641a41.92579,41.92579,0,0,1-.27428-8.25025,74.17006,74.17006,0,0,1,.89163-8.00317c.42705-2.6392,1.00822-5.25217,1.69168-7.84341.68257-2.60833,1.54472-5.11788,2.46583-7.79092a11.43118,11.43118,0,0,1,.5901,2.05117,18.28128,18.28128,0,0,1,.32253,2.08428,35.32326,35.32326,0,0,1,.18583,4.13753,53.12448,53.12448,0,0,1-.74467,8.10892,58.93219,58.93219,0,0,1-1.87617,7.89545A37.123,37.123,0,0,1,524.54661,366.01641Z" fill="#50661a"/><path d="M510.055,328.6944a29.64271,29.64271,0,0,1,5.16082,6.63093,46.60092,46.60092,0,0,1,3.45886,7.26789,45.79367,45.79367,0,0,1,2.171,7.75,29.32311,29.32311,0,0,1,.453,8.393,29.32232,29.32232,0,0,1-5.16886-6.62791,45.75088,45.75088,0,0,1-3.45082-7.271,46.60007,46.60007,0,0,1-2.163-7.753A29.62766,29.62766,0,0,1,510.055,328.6944Z" fill="#50661a"/><path d="M500.33906,343.71529a68.2865,68.2865,0,0,1,6.79621,6.26218c2.10042,2.17737,4.1048,4.40342,6.06585,6.64154l5.82641,6.6865c.9774,1.09493,1.96507,2.17384,3.00858,3.1958a13.73778,13.73778,0,0,0,3.55535,2.68578,6.1712,6.1712,0,0,1-2.43322-.06171,11.3917,11.3917,0,0,1-2.34432-.73734,22.63981,22.63981,0,0,1-4.17538-2.39408,40.98,40.98,0,0,1-6.878-6.363,54.29694,54.29694,0,0,1-5.46547-7.4665A38.85918,38.85918,0,0,1,500.33906,343.71529Z" fill="#50661a"/><path d="M500.33906,358.73618a56.24771,56.24771,0,0,1,8.44858,5.19622,95.71554,95.71554,0,0,1,7.58019,6.16078,94.09373,94.09373,0,0,1,6.92308,6.89075,55.61382,55.61382,0,0,1,6.0462,7.86446,55.59221,55.59221,0,0,1-8.45306-5.19164,94.02542,94.02542,0,0,1-7.57617-6.16535,95.70706,95.70706,0,0,1-6.91861-6.89533A56.23876,56.23876,0,0,1,500.33906,358.73618Z" fill="#50661a"/><path d="M501.32717,370.52168a55.61833,55.61833,0,0,1,8.5357,4.93624,94.59278,94.59278,0,0,1,7.69321,5.92307,92.96538,92.96538,0,0,1,7.05486,6.66985,54.99358,54.99358,0,0,1,6.20343,7.666,54.9649,54.9649,0,0,1-8.54016-4.93149,92.90165,92.90165,0,0,1-7.68874-5.92776,94.58684,94.58684,0,0,1-7.05084-6.67454A55.59126,55.59126,0,0,1,501.32717,370.52168Z" fill="#50661a"/><path d="M501.98562,383.1193a51.709,51.709,0,0,1,8.55,4.14773,87.57011,87.57011,0,0,1,7.77362,5.18768,86.10921,86.10921,0,0,1,7.18574,5.97483,51.09567,51.09567,0,0,1,6.40177,7.02477,51.14172,51.14172,0,0,1-8.55356-4.14278,86.10211,86.10211,0,0,1-7.77-5.1927,87.62513,87.62513,0,0,1-7.18173-5.9798A51.70828,51.70828,0,0,1,501.98562,383.1193Z" fill="#50661a"/><path d="M501.32717,392.25872a57.5289,57.5289,0,0,1,8.94578,4.54212,97.996,97.996,0,0,1,8.16091,5.57587,96.27274,96.27274,0,0,1,7.56723,6.35827,56.85325,56.85325,0,0,1,6.77433,7.40179,56.85832,56.85832,0,0,1-8.94935-4.53716,96.27359,96.27359,0,0,1-8.15734-5.58083,97.97926,97.97926,0,0,1-7.56321-6.36319A57.52571,57.52571,0,0,1,501.32717,392.25872Z" fill="#50661a"/><path d="M499.02171,400.82178a74.99418,74.99418,0,0,1,9.35094,5.18974c2.96882,1.90052,5.84116,3.90964,8.64157,6.0066,2.80845,2.08473,5.53918,4.25819,8.22166,6.504,2.71018,2.22656,5.27026,4.54559,8.07425,6.84223a22.60955,22.60955,0,0,1-5.23587-1.528,51.20181,51.20181,0,0,1-4.862-2.3407,79.80023,79.80023,0,0,1-8.93505-5.81435,92.12971,92.12971,0,0,1-8.11713-6.84982A58.3544,58.3544,0,0,1,499.02171,400.82178Z" fill="#50661a"/><path d="M496.22219,409.71422a77.12694,77.12694,0,0,1,10.15412,4.8254c3.24266,1.80643,6.38972,3.746,9.46441,5.78772q4.61269,3.06159,9.00295,6.43857,2.19446,1.69324,4.34692,3.44735a38.73572,38.73572,0,0,0,4.41258,3.37879,8.52343,8.52343,0,0,1-2.85268-.48992c-.91932-.27227-1.81185-.60351-2.69454-.948-1.76048-.69888-3.46154-1.49826-5.13-2.34533a97.35648,97.35648,0,0,1-9.61807-5.674,109.94864,109.94864,0,0,1-8.95247-6.63468A68.04735,68.04735,0,0,1,496.22219,409.71422Z" fill="#50661a"/><path d="M527.385,376.4782a45.51408,45.51408,0,0,1,1.31243-8.80629,76.47848,76.47848,0,0,1,2.53105-8.36048,75.27634,75.27634,0,0,1,3.45394-8.0231,45.02566,45.02566,0,0,1,4.68418-7.573,45.02882,45.02882,0,0,1-1.30617,8.80841,75.27887,75.27887,0,0,1-2.5373,8.35836,76.58485,76.58485,0,0,1-3.45975,8.021A45.51427,45.51427,0,0,1,527.385,376.4782Z" fill="#50661a"/><path d="M529.33711,386.761a46.50724,46.50724,0,0,1,2.52747-8.64163,78.31764,78.31764,0,0,1,3.67551-8.03655,77.01451,77.01451,0,0,1,4.54481-7.57868,46.01173,46.01173,0,0,1,5.704-6.96787,46.01341,46.01341,0,0,1-2.52167,8.64453,77.10705,77.10705,0,0,1-3.68132,8.03365,78.41093,78.41093,0,0,1-4.55017,7.57578A46.56717,46.56717,0,0,1,529.33711,386.761Z" fill="#50661a"/><path d="M530.81437,396.70491a50.94215,50.94215,0,0,1,3.69964-8.67557,86.32619,86.32619,0,0,1,4.77486-7.94889,84.81263,84.81263,0,0,1,5.58921-7.39882,50.37237,50.37237,0,0,1,6.67471-6.66522,50.36767,50.36767,0,0,1-3.69472,8.67909,84.71038,84.71038,0,0,1-4.78023,7.94537,86.23317,86.23317,0,0,1-5.59412,7.39542A50.94514,50.94514,0,0,1,530.81437,396.70491Z" fill="#50661a"/><path d="M531.89674,407.67567a65.69026,65.69026,0,0,1,5.29662-9.31124q2.953-4.40691,6.30171-8.48974,3.33757-4.092,7.062-7.868a64.66953,64.66953,0,0,1,8.07648-7.03878,64.6635,64.6635,0,0,1-5.29171,9.31515q-2.953,4.40666-6.30617,8.48583-3.34563,4.086-7.06692,7.86413A65.60975,65.60975,0,0,1,531.89674,407.67567Z" fill="#50661a"/><path d="M532.77542,419.05187a66.33828,66.33828,0,0,1,6.27222-8.75235q3.41331-4.09743,7.18709-7.83123,3.76306-3.74423,7.87859-7.13416a65.3355,65.3355,0,0,1,8.80193-6.20421,65.33759,65.33759,0,0,1-6.26776,8.7567q-3.41329,4.097-7.1911,7.82689-3.77045,3.73743-7.88306,7.12974A66.31346,66.31346,0,0,1,532.77542,419.05187Z" fill="#50661a"/><path d="M533.31013,426.34634a57.813,57.813,0,0,1,6.81453-7.399,98.49763,98.49763,0,0,1,7.59716-6.36369,96.75632,96.75632,0,0,1,8.1895-5.58017,57.15078,57.15078,0,0,1,8.98017-4.53492,57.16656,57.16656,0,0,1-6.811,7.404,96.832,96.832,0,0,1-7.60073,6.35878,98.57005,98.57005,0,0,1-8.19352,5.57519A57.82589,57.82589,0,0,1,533.31013,426.34634Z" fill="#50661a"/><path d="M533.60317,432.43932a61.20134,61.20134,0,0,1,7.96123-6.61943q4.17582-2.96854,8.60583-5.49272,4.42308-2.53661,9.09363-4.64012a60.4826,60.4826,0,0,1,9.74449-3.50275,60.491,60.491,0,0,1-7.95855,6.62473q-4.17582,2.96821-8.60851,5.48736-4.42778,2.52849-9.09676,4.63482A61.21032,61.21032,0,0,1,533.60317,432.43932Z" fill="#50661a"/><path d="M533.37579,436.39146a66.09677,66.09677,0,0,1,9.31431-5.365c3.19575-1.54282,6.454-2.91745,9.76549-4.148q4.9665-1.84754,10.10676-3.227a65.134,65.134,0,0,1,10.56286-1.99835,65.13343,65.13343,0,0,1-9.31207,5.37077q-4.7943,2.31372-9.76772,4.14221c-3.31323,1.22577-6.68007,2.30758-10.109,3.22121A66.08653,66.08653,0,0,1,533.37579,436.39146Z" fill="#50661a"/><path d="M534.63031,435.98549s22.06637-36.73385,25.52454-45.95562" fill="none" stroke="#5e7c24" stroke-miterlimit="10" stroke-width="0.91486"/><path d="M552.74471,370.763a39.30262,39.30262,0,0,1,2.11338,7.0835,66.22384,66.22384,0,0,1,1.08014,7.18184,64.90289,64.90289,0,0,1,.2975,7.25621,38.77113,38.77113,0,0,1-.746,7.35544,38.80732,38.80732,0,0,1-2.11829-7.08312,65.00927,65.00927,0,0,1-1.07522-7.18228,66.21751,66.21751,0,0,1-.2926-7.25666A39.26754,39.26754,0,0,1,552.74471,370.763Z" fill="#5e7c24"/><path d="M544.67538,381.79617a37.4884,37.4884,0,0,1,2.74234,6.67873,62.96039,62.96039,0,0,1,1.72295,6.8745,61.99948,61.99948,0,0,1,.951,7.02276,37.07726,37.07726,0,0,1-.07862,7.22042,37.04342,37.04342,0,0,1-2.74725-6.67779,61.9962,61.9962,0,0,1-1.718-6.8755,63.06149,63.06149,0,0,1-.94613-7.02365A37.52283,37.52283,0,0,1,544.67538,381.79617Z" fill="#5e7c24"/><path d="M540.22929,394.64076a31.80849,31.80849,0,0,1,2.3345,6.20784,52.84383,52.84383,0,0,1,1.30617,6.35459,51.95705,51.95705,0,0,1,.52846,6.4656,31.40671,31.40671,0,0,1-.50925,6.61373,31.40867,31.40867,0,0,1-2.33941-6.20717,51.87083,51.87083,0,0,1-1.30126-6.35526,52.8429,52.8429,0,0,1-.52354-6.46632A31.778,31.778,0,0,1,540.22929,394.64076Z" fill="#5e7c24"/><path d="M534.63025,407.46161a24.35086,24.35086,0,0,1,2.36711,5.28294,39.68371,39.68371,0,0,1,1.3437,5.45961,38.94964,38.94964,0,0,1,.56955,5.59329,24.06865,24.06865,0,0,1-.46324,5.77163,24.05116,24.05116,0,0,1-2.372-5.2821,39.01469,39.01469,0,0,1-1.33923-5.46045,39.74858,39.74858,0,0,1-.56464-5.59412A24.351,24.351,0,0,1,534.63025,407.46161Z" fill="#5e7c24"/><path d="M529.69011,415.47511a21.92381,21.92381,0,0,1,2.49888,4.63861,37.80216,37.80216,0,0,1,1.57108,4.81194,43.19523,43.19523,0,0,1,.9488,4.93467c.10275.83758.197,1.67047.25954,2.51944a18.74958,18.74958,0,0,0,.27607,2.57974,5.06509,5.06509,0,0,1-.60753-.3835l-.49316-.49417a9.11928,9.11928,0,0,1-.86259-1.07891,17.28026,17.28026,0,0,1-1.32628-2.30826,25.70285,25.70285,0,0,1-1.74037-4.86722,28.80913,28.80913,0,0,1-.81927-5.0679A19.07862,19.07862,0,0,1,529.69011,415.47511Z" fill="#5e7c24"/><path d="M557.5428,395.69437a31.51618,31.51618,0,0,1,5.566-4.82651,51.57888,51.57888,0,0,1,6.15207-3.66853,50.67312,50.67312,0,0,1,6.59609-2.79209,31.15492,31.15492,0,0,1,7.18753-1.62306,31.14738,31.14738,0,0,1-5.56286,4.832,50.67841,50.67841,0,0,1-6.15519,3.663,51.55782,51.55782,0,0,1-6.59877,2.78657A31.51309,31.51309,0,0,1,557.5428,395.69437Z" fill="#5e7c24"/><path d="M552.07554,405.90623a38.82391,38.82391,0,0,1,6.865-4.49405,64.638,64.638,0,0,1,7.32155-3.279,63.48279,63.48279,0,0,1,7.66684-2.35952,38.382,38.382,0,0,1,8.12741-1.1329,38.38871,38.38871,0,0,1-6.86233,4.49985,63.493,63.493,0,0,1-7.32378,3.2732,64.62387,64.62387,0,0,1-7.66908,2.35371A38.824,38.824,0,0,1,552.07554,405.90623Z" fill="#5e7c24"/><path d="M545.63982,417.25708a33.108,33.108,0,0,1,6.18825-4.33887,54.4079,54.4079,0,0,1,6.66041-3.12975,53.44423,53.44423,0,0,1,7.01734-2.21467,32.7248,32.7248,0,0,1,7.49353-.994,32.73674,32.73674,0,0,1-6.186,4.34463,53.451,53.451,0,0,1-6.66265,3.124,54.41517,54.41517,0,0,1-7.01957,2.20892A33.10686,33.10686,0,0,1,545.63982,417.25708Z" fill="#5e7c24"/><path d="M540.5536,425.99385a24.82021,24.82021,0,0,1,5.4351-3.58,39.63872,39.63872,0,0,1,5.82284-2.34125,38.9291,38.9291,0,0,1,6.11677-1.4039,24.557,24.557,0,0,1,6.50809-.15338,24.55476,24.55476,0,0,1-5.43331,3.58583,38.92489,38.92489,0,0,1-5.82507,2.33539,39.61918,39.61918,0,0,1-6.11812,1.39792A24.833,24.833,0,0,1,540.5536,425.99385Z" fill="#5e7c24"/><path d="M536.53859,433.83324a32.64587,32.64587,0,0,1,5.97427-4.53933,53.57667,53.57667,0,0,1,6.48978-3.34819,52.64353,52.64353,0,0,1,6.88019-2.44684,32.279,32.279,0,0,1,7.40062-1.24431,32.2664,32.2664,0,0,1-5.9716,4.545,52.62394,52.62394,0,0,1-6.49245,3.34261,53.5675,53.5675,0,0,1-6.88243,2.441A32.64411,32.64411,0,0,1,536.53859,433.83324Z" fill="#5e7c24"/><path d="M559.31936,391.34729a22.97706,22.97706,0,0,1,.17824-7.337,34.57077,34.57077,0,0,1,1.86947-6.67471,34.00407,34.00407,0,0,1,3.15063-6.17306,22.7479,22.7479,0,0,1,4.85884-5.50445,22.73385,22.73385,0,0,1-.16975,7.34014,34.03481,34.03481,0,0,1-1.87751,6.67158,34.57507,34.57507,0,0,1-3.15912,6.16988A22.98111,22.98111,0,0,1,559.31936,391.34729Z" fill="#5e7c24"/><path d="M540.1631,462.00091H523.63033l-5.31876-28.21771a1.12156,1.12156,0,0,1,1.09444-1.3347h24.98141a1.12156,1.12156,0,0,1,1.09444,1.3347Z" fill="#935b50"/><path d="M545.0976,435.82208l.38432-2.03886a1.12154,1.12154,0,0,0-1.09443-1.3347H519.406a1.12155,1.12155,0,0,0-1.09444,1.3347l.38432,2.03886Z" fill="#d6694b"/><polygon points="524.952 454.009 521.459 450.484 524.952 446.959 528.444 450.484 524.952 454.009" fill="#d6694b"/><polygon points="531.937 454.009 528.444 450.484 531.937 446.959 535.429 450.484 531.937 454.009" fill="#d6694b"/><polygon points="538.841 454.009 535.349 450.484 538.841 446.959 542.334 450.484 538.841 454.009" fill="#d6694b"/><path d="M446.84723,441.3093s11.83885,12.96164,24.77,16.68714a2.75572,2.75572,0,0,1,1.98711,2.00407,1.63288,1.63288,0,0,1-1.03119,2.0004H442.98c-1.99189-.10563-2.98965-3.34718-2.884-5.33907l.25353-4.78075-3.21517-5.09091Z" fill="#f9977a"/><path d="M469.2508,435.82208,475.394,440.864a9.42824,9.42824,0,0,0,8.84731,2.33335c5.78644-1.4717,14.771-3.8491,17.37049-5.05547a2.87416,2.87416,0,0,1,2.44371,3.20843s-15.28792,13.77026-21.89821,18.90493a4.96646,4.96646,0,0,1-6.0858.04336,11.64963,11.64963,0,0,1-2.14435-2.13469,60.34634,60.34634,0,0,0-12.48406-11.76105h0Z" fill="#f9977a"/><path d="M329.19878,354.30371c5.85194,6.42444,21.49854,11.29343,22.095,2.62377l-3.10852-6.63851a14.73218,14.73218,0,0,1-1.14109-9.21511c.1215-.58754.24514-.98206.35885-.98958,1.84622-.12209,5.5745-.76228,3.67744-4.0051a3.1658,3.1658,0,0,1,.46862-2.79732.89316.89316,0,0,0-.32494-1.33683,9.10737,9.10737,0,0,1-3.11442-2.17324.63157.63157,0,0,1,.45588-1.01861l3.56162-.23627a.50874.50874,0,0,0,.44838-.67023l-.14932-.44265a.54264.54264,0,0,1,.34962-.69052l1.17007-.37233a1.29038,1.29038,0,0,0,.68724-1.938l-2.7256-4.14962a3.51431,3.51431,0,0,1-.5673-2.29847c.29214-2.70253,2.43187-2.19838.15857-7.48918,0,0-6.99835-5.66-18.10415,4.56611,0,0,.45836-.62965-4.60618,5.38566,0,0-1.99414,2.25609.19127,8.35922,0,0-4.59519,17.55762-5.61535,19.12174Z" fill="#f9977a"/><path d="M344.10635,319.26183a.50016.50016,0,0,1-.48378-.855,19.10909,19.10909,0,0,1,7.28689-3.633.50017.50017,0,0,1,.59967.375.49517.49517,0,0,1-.375.59966,18.48359,18.48359,0,0,0-6.86431,3.42112A.5.5,0,0,1,344.10635,319.26183Z"/><path d="M346.83966,319.9021a3.5743,3.5743,0,0,1,1.675-1.22619,2.96846,2.96846,0,0,1,2.07818-.0398c-.34681.07862-.66929.122-.98416.21472-.312.09461-.62228.17457-.92343.29493C348.07317,319.36133,347.48607,319.63367,346.83966,319.9021Z" fill="#350500"/><ellipse cx="349.35246" cy="319.81741" rx="0.63015" ry="1.10002" transform="translate(-83.89719 128.44066) rotate(-18.64059)" fill="#050505"/><path d="M329.24664,323.64859a6.59834,6.59834,0,0,1,2.12723-.9289,2.42,2.42,0,0,1,1.08159.051,4.30383,4.30383,0,0,1,1.06337.49821,2.13372,2.13372,0,0,0-2.22895-1.042,3.15912,3.15912,0,0,0-2.04324,1.42161Z" fill="#dd765e"/><path d="M330.48641,327.32389a3.31509,3.31509,0,0,0,.86588-1.00557,4.042,4.042,0,0,0,.46983-1.26209,4.89588,4.89588,0,0,0,.07045-.67663,3.79426,3.79426,0,0,0-.06714-.67577,3.12077,3.12077,0,0,0-.50485-1.23,10.27933,10.27933,0,0,1,.11684,1.27,5.3936,5.3936,0,0,1-.1064,1.21945A8.89782,8.89782,0,0,1,330.48641,327.32389Z" fill="#dd765e"/><path d="M326.77582,335.42609c-3.24189-.07578-5.20528-4.92136-7.11408-9.63219a24.38117,24.38117,0,0,1-2.23661-10.96543c.13887-2.84535.27335-5.60086,2.21459-8.38786,2.69713-3.87219,7.0885-5.23033,10.591-6.31356,3.92047-1.21251,7.05426-2.18171,10.38612-1.10556,3.53156,1.14065,4.31814.682,6.81518,2.8971.86075.76357,3.66768.514,5.3702,1.19694.33944.13617,2.30839.926,2.33631,1.93735.012.4361-.1406,4.0953-6.44145,6.33729-3.63719,1.2942-4.92362,1.063-6.54761,2.23023-3.57692,2.57085-6.0833,1.63644-6.9222,1.97659-1.00973.40943.32641,1.594,1.39221,3.79771a24.98389,24.98389,0,0,1,1.79929,5.1996c.68678,2.80057.37983,3.5363,1.29544,5.45247a6.508,6.508,0,0,0,2.20712,2.96065c1.46265.98091,3.12341.98827,5.39236.97067,3.93958-.03057,3.99385-1.19814,4.61654-.42367.623.7749.51983,3.88628-.26593,4.7979-2.17061,2.51826-5.431,1.87328-7.57445,2.04837-2.89456.23645-9.54405-1.30664-10.24134-4.79491-.37467-1.87435.04668-6.94532.34694-9.93434a4.60626,4.60626,0,0,0-2.32207-4.55377,2.15427,2.15427,0,0,0-1.27186-.30624,2.92284,2.92284,0,0,0-2.22191,1.93676c-.08161.26019-.31682,1.17625,1.19951,3.46639C331.17633,328.62694,329.59789,335.49205,326.77582,335.42609Z"/><path d="M353.30875,328.62648a1.00366,1.00366,0,0,1-.25141.05l-4.19307.29027a3.8367,3.8367,0,0,1-2.70875-.86451,1.00025,1.00025,0,0,1,1.26893-1.54654,1.84375,1.84375,0,0,0,1.30169.4155l4.19307-.29027a1.00034,1.00034,0,0,1,.38954,1.94553Z"/><path d="M463.19961,451.52231,448.99009,443.45l-11.85575,6.69008-27.07889-28.27161s-90.91545,82.60762-91.75472,10.705c0,0,64.99553-44.70564,97.00233-43.312a9.31862,9.31862,0,0,1,7.40808,4.18779l4.83964,7.3906,46.53832,35.92533Z" fill="#376f92"/><path d="M448.99009,443.45l3.72657-2.64563-.022.10608q-6.44562-9.917-12.71873-19.94288l-6.25624-10.03637q-3.11841-5.02423-6.16892-10.09131,3.24,4.94769,6.43613,9.92309l6.34881,9.978q6.30861,10.00342,12.49138,20.08606l.04.06555-.062.0409Z" fill="#10394f"/><path d="M410.05545,421.86841a57.44919,57.44919,0,0,0,.79479-6.15576,17.083,17.083,0,0,0-.0336-3.07214,5.41768,5.41768,0,0,0-.99112-2.86609,4.738,4.738,0,0,1,1.32553,2.81738,14.71134,14.71134,0,0,1,.13718,3.14783A24.3407,24.3407,0,0,1,410.05545,421.86841Z" fill="#10394f"/><path d="M420.83858,412.93812a22.66411,22.66411,0,0,1-1.95732,3.26269,22.40946,22.40946,0,0,1-2.47085,2.91272,12.77,12.77,0,0,1-3.0773,2.2843,6.61157,6.61157,0,0,1-3.70378.79444,7.56378,7.56378,0,0,0,3.54241-1.09131,13.67712,13.67712,0,0,0,2.93233-2.30164,26.40434,26.40434,0,0,0,2.50839-2.80066Q419.78423,414.51954,420.83858,412.93812Z" fill="#10394f"/><path d="M356.47066,362.66457c2.28137,6.62875-4.05152,55.8958-4.05152,55.8958s-19.6159,21.748-34.11841,14.01307l-.71423-73.315a15.8191,15.8191,0,0,1,9.44694-14.77678c4.14393-1.76041,9.58758-2.05894,16.22217,1.836A30.33144,30.33144,0,0,1,356.47066,362.66457Z" fill="#f73c4f"/><path d="M356.68561,376.30108l13.747,19.8536,8.92709-.87345,10.56068-4.97925a11.07892,11.07892,0,0,1,6.84308-1.17658l11.77517,1.76115c1.16517.17427-2.11395,2.01032-3.7186,2.20487-3.37136.40876-56.68671,24.263-65.71493,18.44464-2.94456-1.89768-4.538-2.17249-7.2244-5.40718a28.3611,28.3611,0,0,1-5.91452-12.62749l-2.64788-13.34308,19.2273-.79867,4.35713,17.264,8.01618.24062Z" fill="#f9977a"/><path d="M342.92439,402.83191a10.23134,10.23134,0,0,1,1.26412-3.57544,9.388,9.388,0,0,1,1.15667-1.53088,5.26172,5.26172,0,0,1,1.55753-1.10205,10.25114,10.25114,0,0,0-2.33575,2.8551A29.593,29.593,0,0,0,342.92439,402.83191Z" fill="#dd765e"/><path d="M370.43259,396.15467c-2.58071.29968-5.16306.42981-7.7459.57385-2.5854.09277-5.16888.19983-7.76781.13574,2.5723-.30066,5.16007-.43017,7.74588-.574C365.25316,396.19788,367.842,396.09156,370.43259,396.15467Z" fill="#dd765e"/><path d="M354.56467,386.9a6.155,6.155,0,0,1-.22948,2.84521,7.93751,7.93751,0,0,1-1.37059,2.54737,9.56239,9.56239,0,0,1-2.20686,1.861c-.40561.25732-.85262.44043-1.2748.6604-.44916.16479-.89815.32532-1.34965.46728l1.25439-.6604c.39493-.25512.81483-.46679,1.18546-.75036a10.49574,10.49574,0,0,0,2.05351-1.85779A8.36265,8.36265,0,0,0,354.56467,386.9Z" fill="#b02336"/><path d="M330.76,421.42249a11.31353,11.31353,0,0,1-5.34089-1.24951,10.3211,10.3211,0,0,1-2.27977-1.58374,8.93825,8.93825,0,0,1-1.72141-2.152,14.45705,14.45705,0,0,0,1.9417,1.89575,11.626,11.626,0,0,0,2.25917,1.44922,14.6728,14.6728,0,0,0,2.4919,1.02161A18.36911,18.36911,0,0,0,330.76,421.42249Z" fill="#b02336"/><path d="M333.94017,426.82471a13.10652,13.10652,0,0,1-3.61414.78284,13.967,13.967,0,0,1-3.71615-.21863,11.01116,11.01116,0,0,1-3.47537-1.34412,10.56991,10.56991,0,0,1-2.79061-2.42663,13.9916,13.9916,0,0,0,2.95653,2.1322,11.61695,11.61695,0,0,0,3.39795,1.20874,15.24677,15.24677,0,0,0,3.61.31262A18.98353,18.98353,0,0,0,333.94017,426.82471Z" fill="#b02336"/><path d="M379.36084,404.45008a2.41755,2.41755,0,0,1-.91016-4.65723l31.95557-12.97558,10.76416-36.92383A2.417,2.417,0,0,1,425.811,351.247l-11.0918,38.0459a2.4183,2.4183,0,0,1-1.41113,1.5625l-33.03907,13.416A2.40672,2.40672,0,0,1,379.36084,404.45008Z" fill="#a02d34"/><path d="M342.65039,352.11792l2.02239,13.52295,1.95109,13.533.02609.181-.18383.0083-12.86356.57862-12.86649.50818-.17822.00708-.013-.17493a133.09861,133.09861,0,0,1-.30417-16.19629,50.34494,50.34494,0,0,1,.95878-8.04517,17.81929,17.81929,0,0,1,1.26532-3.84863,6.88437,6.88437,0,0,1,1.12342-1.68274,3.41658,3.41658,0,0,1,1.73764-.98254,3.39657,3.39657,0,0,0-1.70807,1.0105,6.825,6.825,0,0,0-1.07962,1.69018,17.70374,17.70374,0,0,0-1.17932,3.8468,56.44909,56.44909,0,0,0-.86223,8.02369,132.81067,132.81067,0,0,0,.41522,16.15148l-.191-.1676,12.86431-.56067,12.86723-.49011-.15758.18909L344.43694,365.674Z" fill="#b02336"/><path d="M536.21027,294.52125H395.227V134.492H536.21027Zm-135.97363-5.00879h130.964V139.50081h-130.964Z" fill="#d6694b"/><rect x="390.28332" y="294.5661" width="150.87079" height="7.49855" rx="1.35249" fill="#935b50"/><rect x="400.23664" y="187.78677" width="130.96403" height="5.99884" fill="#e19974"/><rect x="412.4715" y="235.36565" width="61.74401" height="1.04776" transform="translate(-39.84357 372.73831) rotate(-43.82932)" fill="#e19974"/><rect x="414.3032" y="213.75746" width="50.88627" height="1.04833" transform="translate(-28.56775 355.61585) rotate(-42.77274)" fill="#e19974"/><path d="M404.42845,223.25977a5.70769,5.70769,0,0,1-2.5048.52368,5.64479,5.64479,0,0,1-2.50481-.52368,5.64149,5.64149,0,0,1,2.50481-.52368A5.70769,5.70769,0,0,1,404.42845,223.25977Z" fill="#e6952a"/><polygon points="497.696 289.436 482.881 289.436 477.89 263.202 502.687 263.202 497.696 289.436" fill="#e19974"/><polygon points="502.117 266.196 502.687 263.202 477.89 263.202 478.46 266.196 502.117 266.196" fill="#d6694b"/><rect x="481.85254" y="276.9997" width="4.42575" height="4.42575" transform="translate(339.21258 -260.50646) rotate(45)" fill="#d6694b"/><rect x="488.11149" y="276.9997" width="4.42575" height="4.42575" transform="translate(341.04578 -264.93221) rotate(45)" fill="#d6694b"/><rect x="494.29836" y="276.9997" width="4.42575" height="4.42575" transform="translate(342.85788 -269.30699) rotate(45)" fill="#d6694b"/><path d="M496.05917,241.12279s1.30089,18.37845-6.32376,22.27334C489.73541,263.39613,487.09578,256.42823,496.05917,241.12279Z" fill="#558031"/><path d="M471.45588,249.01737s12.47356,2.1522,18.27953,14.37876C489.73541,263.39613,476.01875,258.73739,471.45588,249.01737Z" fill="#849f4c"/><path d="M475.87867,273.09068s6.34365-9.49036,13.85674-9.69455C489.73541,263.39613,488.60435,271.03762,475.87867,273.09068Z" fill="#a6b862"/><path d="M483.70368,243.74243s8.80185,8.0364,6.03173,19.6537C489.73541,263.39613,484.85951,258.22774,483.70368,243.74243Z" fill="#849f4c"/><path d="M489.73541,263.39613s3.09242-11.32,18.72529-14.2228C508.4607,249.17333,504.94261,259.48041,489.73541,263.39613Z" fill="#a6b862"/><path d="M512.60188,260.437s-11.92744-4.91718-22.86647,2.95914C489.73541,263.39613,504.27768,265.14207,512.60188,260.437Z" fill="#849f4c"/><path d="M512.49337,271.88473s-5.7592-9.22489-22.758-8.4886Z" fill="#558031"/><path d="M465.03117,261.90294s15.66445-5.80832,24.90923,1.21547C489.9404,263.11841,481.16223,267.95352,465.03117,261.90294Z" fill="#558031"/><path d="M477.8764,245.08444s13.97745,9.88583,11.97236,18.31973C489.84876,263.40417,480.15165,255.62914,477.8764,245.08444Z" fill="#558031"/><path d="M502.39538,273.23589s-11.52281-1.96719-12.66-9.83976C489.73541,263.39613,498.1548,263.81314,502.39538,273.23589Z" fill="#849f4c"/><path d="M381.998,133.42379s-11.80359,108.63675-4.98635,177.82294a3.437,3.437,0,0,0,.34773,1.23806c.646,1.25949,2.49147,3.27384,7.02989-.30394a3.72928,3.72928,0,0,1,1.54745-.747,4.805,4.805,0,0,1,5.77707,2.7659c1.9761,4.42791,7.41035,2.6165,8.89242-1.171,1.03767-2.65182,4.17419-1.9132,5.96187-1.23182a3.7482,3.7482,0,0,0,2.55092.05461c1.88585-.64145,5.34726-1.28305,6.63726,2.00059,1.434,3.65028,4.10657,1.21132,5.15788.03666a3.55673,3.55673,0,0,1,2.31611-1.18582,8.87377,8.87377,0,0,1,4.71192,1.14916c3.11423,1.55711,5.10165,1.086,6.06374.61606a3.29426,3.29426,0,0,0,.877-.65952c.62516-.629,2.77507-2.34432,6.06856-.28589a5.02565,5.02565,0,0,0,4.777.54868,3.60478,3.60478,0,0,1,3.81049.74614c1.56326,1.4496,3.83062,2.69454,5.60067.15794a3.593,3.593,0,0,1,3.57736-1.51047,5.47841,5.47841,0,0,1,2.48946,1.21043c1.95393,1.60912,4.0683-.31153,5.16728-1.61853a3.56017,3.56017,0,0,0,.81928-2.11928c.53044-10.29891,4.40212-91.17691-.05828-177.51386Z" fill="#ffba55"/><path d="M473.77653,133.42379s-10.1,104.51338,44.79144,115.93081l-6.26351,38.13674a2.8452,2.8452,0,0,0,2.80759,3.30632h.76624c1.54291,0,2.01056,3.34522,7.50871,2.40349a2.85447,2.85447,0,0,1,3.35981,2.79566v7.89753a2.85119,2.85119,0,0,0,2.47518,2.82171,22.08262,22.08262,0,0,0,2.78354.21946A2.83407,2.83407,0,0,1,534.7946,310.21c-.0298.18433-.06207.36684-.097.54538a2.84009,2.84009,0,0,0,2.4069,3.33341,7.42334,7.42334,0,0,0,3.11038-.05848,2.984,2.984,0,0,1,2.43808.177c1.68579.97038,4.59383,1.906,7.13368-.96915a2.78329,2.78329,0,0,0,.6733-1.84338v-177.971Z" fill="#ffba55"/><path d="M385.95015,136.49769l-1.54591,42.22558c-.49263,14.07507-1.01169,28.14893-1.38822,42.22669q-.67093,21.113-.95,42.23364c-.0891,7.03943-.13051,14.08032-.01242,21.11828l.10332,5.27808c.06941,1.75757.11558,3.51746.21473,5.2738.10494,1.75623.20691,3.51307.40624,5.26124.06578.87866.21181,1.74511.35547,2.61315a16.42842,16.42842,0,0,0,.62115,2.56092,16.46663,16.46663,0,0,1-.67613-2.55054c-.16231-.86609-.32723-1.73291-.41161-2.61023-.23678-1.74719-.37616-3.50354-.51849-5.26-.13657-1.75671-.22009-3.51648-.32689-5.27539l-.21538-5.28052c-.21066-7.04345-.247-14.08911-.2437-21.13366.02691-14.0896.36451-28.1742.74032-42.25574.45309-14.07947.95843-28.15674,1.60168-42.228l1.02869-21.10364Z" fill="#f73c4f"/><path d="M400.00237,136.49769l-1.47943,19.512c-.46,6.50452-.92814,13.00732-1.27058,19.51684q-.58194,9.7599-.78774,19.532l-.037,4.88513c-.01459,1.629.06837,3.25427.09354,4.88293-.01068,1.63172.17267,3.24854.255,4.87635a21.00021,21.00021,0,0,0,.26375,2.4259l.32775,2.42456c-1.40348-6.39111-1.5189-12.98218-1.60667-19.49963-.00332-6.53247.26211-13.05848.57909-19.57862.41932-6.5144.87425-13.02563,1.48482-19.52331C398.43515,149.45459,399.1291,142.96509,400.00237,136.49769Z" fill="#f73c4f"/><path d="M398.05357,302.92872c-.474-5.96936-.80054-11.94776-1.06965-17.92872-.26944-5.98107-.41762-11.96679-.55451-17.95336-.04709-5.988-.089-11.97791.0768-17.96717a119.84616,119.84616,0,0,1,1.54736-17.89392q-.54336,4.46064-.66095,8.941c-.12854,2.98572-.15429,5.97608-.18279,8.96485q-.02972,8.96941.13327,17.94091c.06033,5.98169.22219,11.96216.341,17.94458Z" fill="#f73c4f"/><path d="M418.44592,138.69336q-.42987,8.29852-.76335,16.60071l-.708,16.60071c-.43371,11.068-.85867,22.13623-1.08815,33.2085-.30158,11.07006-.4343,22.14489-.30663,33.21472.05723,5.53491.203,11.07007.55608,16.59228.3632,5.50928.73153,11.07849,2.31009,16.40088-1.72309-5.2821-2.24466-10.8612-2.75662-16.36865-.44623-5.52832-.67-11.07007-.81315-16.61121-.27369-11.08435-.13345-22.17065.0967-33.25024.30613-11.07837.71751-22.153,1.30191-33.21851l.96363-16.59277Q417.80491,146.97839,418.44592,138.69336Z" fill="#f73c4f"/><polygon points="430.742 138.693 430.635 153.958 430.433 169.221 429.881 199.743 429.117 230.26 428.66 245.517 428.107 260.772 428.212 245.507 428.414 230.245 428.967 199.723 429.733 169.205 430.19 153.948 430.742 138.693" fill="#f73c4f"/><path d="M437.32858,141.32813l.97435,17.55676.7475,17.56812c.44315,11.71472.7153,23.43542.9346,35.15759.12224,11.72351.15922,23.45032-.09818,35.17444-.32208,11.71362-.7664,23.4707-2.55827,35.06531l.4845-4.36878c.164-1.45532.33942-2.90845.40353-4.37341.15822-2.92566.428-5.84155.49443-8.77124.09913-2.92737.24613-5.85193.31527-8.77966l.15693-8.785q.16717-17.57263-.11192-35.14868c-.14274-11.71716-.42859-23.4325-.721-35.14832l-.49185-17.573Z" fill="#f73c4f"/><path d="M446.98949,141.32813l.87831,18.27.65812,18.27942c.395,12.18823.60707,24.38171.77466,36.57593.10517,12.1947.08947,24.39294-.17923,36.5874-.08989,3.04822-.13837,6.097-.26226,9.14429l-.38143,9.14062-.61582,9.12817c-.25742,3.0387-.584,6.07142-.87235,9.10511.2142-3.04175.4662-6.079.649-9.12l.39188-9.13293.2511-9.13758c.08187-3.04553.08837-6.09362.13626-9.14.12278-12.18726.14582-24.37695-.03091-36.56592-.09107-12.18945-.31688-24.37817-.56119-36.567Z" fill="#f73c4f"/><path d="M454.45472,143.52381l1.0885,14.63342.95469,14.64209c.61167,9.76306,1.12691,19.53162,1.63684,29.3009.43866,9.77259.89174,19.54529,1.16463,29.32581.23491,9.77612.56326,19.574-.0142,29.34595l.08825-3.66638c.019-1.22144-.024-2.44471-.033-3.66651-.01415-2.444-.11317-4.88757-.19137-7.33081q-.21354-7.32971-.55293-14.6571-.62754-14.65485-1.37406-29.3064L455.79846,172.838l-.69934-14.655Z" fill="#f73c4f"/><path d="M459.47024,305.28907c.09523-2.849.24357-5.68848.36566-8.52832l.34006-8.51306c.09334-2.83606.1457-5.67127.13548-8.505-.02752-1.41479-.054-2.8324-.18229-4.2406a21.07725,21.07725,0,0,0-.65891-4.19092,27.14723,27.14723,0,0,1,1.54447,8.40625c.17681,2.85364.14835,5.70984.07507,8.56055-.1098,2.84949-.27815,5.69519-.555,8.53125C460.26618,299.64551,459.941,302.47669,459.47024,305.28907Z" fill="#f73c4f"/><path d="M425.91116,302.92872c-.00531-2.82093.08946-5.63526.1994-8.44861.09951-2.81409.27073-5.62342.44224-8.43286.19321-2.80787.38828-5.61573.654-8.41895.25654-2.80383.52734-5.60669.9-8.403.00675,2.82092-.08839,5.63525-.19779,8.44873-.10024,2.814-.27111,5.62341-.44385,8.43261-.19444,2.80787-.38916,5.61573-.65558,8.41895C426.55358,297.32947,426.2824,300.13233,425.91116,302.92872Z" fill="#f73c4f"/><path d="M408.34588,154.50208l-1.07217,26.56714c-.3358,8.85522-.6668,17.71-.87427,26.5675-.28937,8.85547-.42083,17.71424-.46327,26.5719-.0472,4.42957.01885,8.85742.0864,13.28638l.18174,6.642.385,6.635-.60853-6.62219-.40572-6.6399c-.16009-4.431-.304-8.8645-.34266-13.29846-.10336-8.86829.03559-17.73633.25353-26.59973.28409-8.86182.60148-17.72229,1.088-26.57446l.7849-13.2743Z" fill="#f73c4f"/><path d="M480.3635,138.69336c.10365,5.0907.45209,10.17164.91552,15.23731q.66432,7.60145,1.75484,15.15356a214.42859,214.42859,0,0,0,6.30647,29.79932c1.43593,4.86963,3.08252,9.67578,4.99632,14.37512a105.74625,105.74625,0,0,0,6.77893,13.6034,65.585,65.585,0,0,0,9.09718,12.14648,51.43749,51.43749,0,0,0,11.86827,9.46777c-9.02329-4.80725-16.28214-12.52795-21.56648-21.24817-5.38834-8.71008-9.10775-18.3258-12.05118-28.08776a204.77679,204.77679,0,0,1-6.12351-29.96094A227.62,227.62,0,0,1,480.3635,138.69336Z" fill="#f73c4f"/><path d="M518.12884,286.077c.14219-2.6084.38386-5.204.6406-7.79773.24639-2.59509.56406-5.181.882-7.767.33953-2.58313.68091-5.16613,1.09249-7.74011.40248-2.57507.81915-5.14844,1.33709-7.70886-.14076,2.6084-.38279,5.2041-.639,7.79785-.24711,2.595-.56443,5.18091-.8836,7.76672-.34075,2.583-.68177,5.166-1.09408,7.73987C519.06238,280.94312,518.64535,283.51636,518.12884,286.077Z" fill="#f73c4f"/><path d="M528.668,288.30005c-.042-2.77966.01607-5.55407.08936-8.32763.06286-2.77417.19748-5.54456.33238-8.31482.15663-2.76917.31512-5.53833.54428-8.30371.22-2.76575.45427-5.53089.7905-8.29053.04348,2.77966-.015,5.55408-.08776,8.32776-.06358,2.774-.19785,5.54443-.334,8.3147-.15786,2.76916-.316,5.5382-.54588,8.30358C529.23744,282.77527,529.00279,285.54029,528.668,288.30005Z" fill="#f73c4f"/><path d="M536.57238,302.92872c-.18867-4.28162-.27707-8.56311-.35026-12.84461-.07532-4.28161-.0684-8.56311-.10664-12.8446.03581-4.28162.03216-8.56311.105-12.84461.07372-4.28161.16174-8.56311.35186-12.8446.19012,4.28149.27814,8.563.35186,12.8446.07289,4.2815.06923,8.563.105,12.84461-.03824,4.28149-.03132,8.563-.10664,12.8446C536.84945,294.36561,536.76105,298.6471,536.57238,302.92872Z" fill="#f73c4f"/><path d="M544.03762,305.28907c-.18867-4.18555-.27706-8.371-.35025-12.55652-.07533-4.18543-.06841-8.371-.10665-12.5564.03582-4.18542.03216-8.371.105-12.55639.07372-4.18555.16174-8.371.35186-12.5564.19012,4.18542.27814,8.37085.35186,12.5564.07289,4.18542.06923,8.371.105,12.55639-.03824,4.18543-.03131,8.371-.10664,12.5564C544.31469,296.9181,544.22629,301.10352,544.03762,305.28907Z" fill="#f73c4f"/><path d="M492.6592,141.32813c.04353,4.669.33872,9.32983.74132,13.9762q.58458,6.97155,1.56974,13.89807a214.80442,214.80442,0,0,0,5.60063,27.36792c1.221,4.49438,2.63883,8.93261,4.21249,13.31421,1.57447,4.38354,3.43218,8.65539,5.3898,12.87854a122.47149,122.47149,0,0,0,6.73,12.23327,104.20916,104.20916,0,0,0,8.25175,11.2843,104.44049,104.44049,0,0,1-8.62726-11.04052,121.552,121.552,0,0,1-6.98723-12.16895,151.10341,151.10341,0,0,1-9.85065-26.25854,203.25375,203.25375,0,0,1-5.41385-27.51709q-.86843-6.95965-1.31912-13.959C492.70146,150.67054,492.55442,145.99683,492.6592,141.32813Z" fill="#f73c4f"/><path d="M505.83315,143.52381c.17115,4.23181.48107,8.45544.8487,12.67187q.51585,6.32721,1.25216,12.6316c.98608,8.40209,2.1791,16.78271,3.8424,25.073a194.27246,194.27246,0,0,0,6.27,24.54639A108.95544,108.95544,0,0,0,522.62,230.25818a76.95372,76.95372,0,0,0,6.048,11.13721,89.042,89.042,0,0,1-11.28772-22.72192c-1.42071-4.0011-2.61308-8.0802-3.67263-12.18872-1.06333-4.108-2.01609-8.24512-2.82808-12.40918q-2.39083-12.50061-3.64207-25.17334C506.40353,160.4657,505.88693,151.99634,505.83315,143.52381Z" fill="#f73c4f"/><path d="M530.42453,141.32813c-.62088,4.26367-1.11058,8.54419-1.54416,12.828-.451,4.282-.83954,8.57-1.1322,12.86389-.60022,8.585-.96393,17.19-.78733,25.78772a143.04039,143.04039,0,0,0,2.419,25.62134,61.15881,61.15881,0,0,0,3.63357,12.31861,29.93494,29.93494,0,0,0,7.072,10.6477,30.15572,30.15572,0,0,1-7.48206-10.468,61.276,61.276,0,0,1-3.91231-12.354,137.3088,137.3088,0,0,1-2.64389-25.74988c-.10074-8.6344.25079-17.26611,1.00266-25.85876q.56843-6.4444,1.3887-12.86023C529.02,149.83252,529.65722,145.56836,530.42453,141.32813Z" fill="#f73c4f"/><path d="M517.25058,138.69336c-.13873,2.90039-.27446,5.79871-.35124,8.69922q-.15642,4.34839-.21785,8.69788c-.08357,5.79785-.10459,11.5968.12251,17.3866.1566,5.791.54946,11.57519,1.26228,17.3186.36026,2.8706.8193,5.73,1.44976,8.55359a44.78164,44.78164,0,0,0,2.565,8.28784c-2.62678-5.21326-3.8009-11.01672-4.71183-16.745a159.85645,159.85645,0,0,1-1.4785-17.38513c-.15137-5.81347-.14394-11.62915.09053-17.43567C516.21891,150.26575,516.59127,144.46473,517.25058,138.69336Z" fill="#f73c4f"/><path d="M540.08544,147.476c-.26432,5.36914-.515,10.73413-.70213,16.10034-.18044,5.366-.35548,10.73132-.35307,16.097-.06467,5.36463.03066,10.72986.33354,16.08082.14015,2.67639.37775,5.347.74378,7.99951a39.01489,39.01489,0,0,0,1.7344,7.83557c-2.07925-4.99048-2.67543-10.44678-3.18012-15.78491-.45027-5.36975-.53851-10.757-.54538-16.13672.07416-5.38013.23582-10.75745.56715-16.12488C539.01734,158.17591,539.445,152.8147,540.08544,147.476Z" fill="#f73c4f"/><path d="M516.4662,255.06331c-.37166,0-.60306-.01072-.679-.0143a2.74457,2.74457,0,0,1,.27964-5.482c.74958.03306,17.7906.57626,32.439-17.17413a2.74414,2.74414,0,1,1,4.233,3.49325C537.74558,254.05643,520.16851,255.06331,516.4662,255.06331Z" fill="#f65b2b"/><path d="M563.46924,133.88074H371.78809a.457.457,0,1,1,0-.91406H563.46924a.457.457,0,1,1,0,.91406Z" fill="#f73c4f"/><path d="M371.78809,136.955a.45709.45709,0,0,1-.45752-.457v-6.25781a.45752.45752,0,0,1,.915,0v6.25781A.4571.4571,0,0,1,371.78809,136.955Z" fill="#f73c4f"/><path d="M563.46924,136.955a.4571.4571,0,0,1-.45752-.457v-6.25781a.45752.45752,0,0,1,.915,0v6.25781A.4571.4571,0,0,1,563.46924,136.955Z" fill="#f73c4f"/><line x1="106.95553" y1="462.00091" x2="564.38454" y2="462.00091" fill="none" stroke="#935b50" stroke-linecap="round" stroke-linejoin="round" stroke-width="2"/></svg>