<svg id="Layer_1" data-name="Layer 1" xmlns="http://www.w3.org/2000/svg" viewBox="0 0 700 550"><title>guy listening to music</title><path d="M435.48209,462.00091c16.25-5.08,30.83-10.27,48.37-20.12,18.09-10.16,98.45-58.51,108.9-142.19a159.61541,159.61541,0,0,0-6.66-68.16c-3.23-9.47-9.93-28.49-26.84-47.3-20.7-23.04-44.32-31.97-58.17-37.02-29.14-10.63-53.58-10.07-65.22-9.69-12.56.41-34.73,1.33-59.93,12.34-16.44,7.18-26.66,15.37-41.72,27.61-23.86,19.41-27,27.49-68.74,67.57-11.46,11-20.88,19.67-35.26,28.21-9.97,5.92-18.03,9.23-32.9,15.27-36.55,14.85-46.95658,17.85676-58.91658,26.21676-23.26,16.27-21.75342,34.01324-22.75342,37.83324a75.12694,75.12694,0,0,0-1.77,29.97c3.05,20.07,13.86,33.19,20.57,41.13a113.09822,113.09822,0,0,0,32.9,26.44,210.24676,210.24676,0,0,0,26.96,11.89Z" fill="#efedef"/><path d="M487.07363,447.81531l-.49023-.87109c23.90039-13.42676,102.69726-63.7627,113.17773-147.73633a166.2382,166.2382,0,0,0-6.91406-70.77246c-2.97656-8.73145-9.94727-29.17773-27.84766-49.0957-21.91894-24.38965-46.94531-33.51758-60.38964-38.42188a174.09587,174.09587,0,0,0-67.74707-10.06836c-12.42481.4043-35.55079,1.15625-62.24317,12.81055l-.40039-.916c26.86816-11.73144,51.00879-12.5166,62.61035-12.89453a174.99065,174.99065,0,0,1,68.12207,10.12891c13.52735,4.93359,38.70606,14.11719,60.792,38.69336,18.03711,20.06933,25.05372,40.65234,28.05079,49.4414a167.30626,167.30626,0,0,1,6.959,71.21778C590.21523,383.77039,511.07754,434.33094,487.07363,447.81531Z" fill="#efedef"/><rect x="148.17263" y="217.2532" width="36.6599" height="16.19402" transform="translate(333.00517 450.70043) rotate(-180)" fill="#d1cfd1"/><rect x="126.89744" y="196.00789" width="36.6599" height="16.19402" transform="translate(290.45477 408.20981) rotate(-180)" fill="#d1cfd1"/><rect x="104.782" y="217.2532" width="36.6599" height="16.19402" transform="translate(246.22391 450.70043) rotate(-180)" fill="#d1cfd1"/><rect x="134.47927" y="238.49851" width="36.6599" height="16.19402" transform="translate(305.61845 493.19105) rotate(-180)" fill="#d1cfd1"/><rect x="92.71927" y="238.49851" width="36.6599" height="16.19402" transform="translate(222.09845 493.19105) rotate(-180)" fill="#d1cfd1"/><rect x="441.37503" y="115.89613" width="36.6599" height="16.19402" transform="translate(919.40996 247.98628) rotate(-180)" fill="#d1cfd1"/><rect x="420.09983" y="94.65082" width="36.6599" height="16.19402" transform="translate(876.85956 205.49566) rotate(-180)" fill="#d1cfd1"/><rect x="397.9844" y="115.89613" width="36.6599" height="16.19402" transform="translate(832.6287 247.98628) rotate(-180)" fill="#d1cfd1"/><rect x="427.68167" y="137.14144" width="36.6599" height="16.19402" transform="translate(892.02324 290.4769) rotate(-180)" fill="#d1cfd1"/><rect x="385.92167" y="137.14144" width="36.6599" height="16.19402" transform="translate(808.50324 290.4769) rotate(-180)" fill="#d1cfd1"/><rect x="536.83907" y="269.53132" width="36.6599" height="16.19402" transform="translate(1110.33805 555.25667) rotate(-180)" fill="#d1cfd1"/><rect x="515.56388" y="248.28601" width="36.6599" height="16.19402" transform="translate(1067.78765 512.76605) rotate(-180)" fill="#d1cfd1"/><rect x="493.44845" y="269.53132" width="36.6599" height="16.19402" transform="translate(1023.55679 555.25667) rotate(-180)" fill="#d1cfd1"/><rect x="523.14571" y="290.77663" width="36.6599" height="16.19402" transform="translate(1082.95133 597.74729) rotate(-180)" fill="#d1cfd1"/><rect x="481.38571" y="290.77663" width="36.6599" height="16.19402" transform="translate(999.43133 597.74729) rotate(-180)" fill="#d1cfd1"/><rect x="262.15623" y="145.40787" width="33.8354" height="32.99995" rx="1.08879" fill="#7ca1b1"/><rect x="263.36974" y="146.59141" width="31.40838" height="30.63287" rx="1.08879" fill="#ffba55"/><path d="M278.30793,173.95217c-.48612.01134-1.37526-.17148-5.291-6.68364-3.07119-5.10763-3.48781-6.59752-3.62-8.07589-.11218-1.251-.40264-4.498,1.53163-5.70876a3.53174,3.53174,0,0,1,3.75938.13919c.45817.34069.77545.8083,1.39225,2.78469,1.03229,3.30764,1.0187,4.80282,1.53163,4.87345.52049.07176.80868-1.42946,2.50651-3.89876a7.88026,7.88026,0,0,1,2.78488-2.92388c.13182-.06912,2.38035-1.21907,3.62-.41775,1.3677.88385,1.455,4.10839-.41776,7.79733a56.77821,56.77821,0,0,1-3.06325,6.26589C280.84314,171.9807,279.71453,173.9195,278.30793,173.95217Z" fill="#f65b2b"/><rect x="169.05054" y="98.64706" width="48.46823" height="363.35385" fill="#a3716a"/><polygon points="389.131 93.256 389.131 462.001 376.479 462.001 376.479 109.203 181.702 109.203 181.702 462.001 169.051 462.001 169.051 93.256 389.131 93.256" fill="#935b50"/><circle cx="204.45215" cy="251.80246" r="7.67879" fill="#ffba55"/><polygon points="532.024 373.437 426.219 369.282 482.45 367.323 575.695 372.798 582.177 375.545 532.024 373.437" fill="#a5716a"/><polygon points="583.935 399.962 524.971 414.617 526.696 373.213 582.177 375.545 583.935 399.962" fill="#d3a39c"/><path d="M575.46659,375.26275l6.71064.28206,11.38786-69.14009a12.06085,12.06085,0,0,0-10.22835-13.90446l-5.69415-.79715Z" fill="#d3a39c"/><path d="M467.08673,462.00091a5.3126,5.3126,0,0,1-.38-2v-49.28a5.5,5.5,0,0,1,11,0v49.28a5.3126,5.3126,0,0,1-.38,2Z" fill="#935b50"/><path d="M538.59537,421.27221c-.10156,0-.20312-.00293-.30566-.00781l-111.35156-6.09961a5.50041,5.50041,0,1,1,.60156-10.98437L538.89127,410.28a5.5002,5.5002,0,0,1-.2959,10.99218Z" fill="#935b50"/><path d="M421.37673,462.00091a5.50693,5.50693,0,0,1-.31-1.91l1.58-110.23a18.4575,18.4575,0,0,1,6.41-13.67,21.10679,21.10679,0,0,1,16.24-5.05l39.92,4.43a5.49839,5.49839,0,1,1-1.21,10.93l-39.92-4.42a10.03231,10.03231,0,0,0-7.75,2.36,7.57294,7.57294,0,0,0-2.69,5.58l-1.58,110.23a5.32455,5.32455,0,0,1-.32,1.75Z" fill="#935b50"/><path d="M525.085,409.65079l-99.62-4.61164a5.90744,5.90744,0,0,1-5.69765-5.89975l.20767-24.01911a5.96644,5.96644,0,0,1,6.24352-5.83843l99.93568,3.69083a5.90723,5.90723,0,0,1,5.75377,5.97309l-.52339,24.93993A5.96965,5.96965,0,0,1,525.085,409.65079Z" fill="#c38f86"/><path d="M575.695,372.7975l-93.24535-5.47459,6.39063-69.256a8,8,0,0,1,7.992-7.26488l77.68789.25108a8,8,0,0,1,7.94,8.73812Z" fill="#c38f86"/><path d="M594.64673,345.44091a5.44813,5.44813,0,0,1-4.43,1.42l-6.65-.84-30.06-3.82a7.94946,7.94946,0,0,0-8.93,7.82l-.81,110.18a5.12732,5.12732,0,0,1-.32,1.8h-10.36a5.58138,5.58138,0,0,1-.32-1.88l.81-110.18a18.93258,18.93258,0,0,1,21.31-18.65l29.56,3.75,7.15.91a5.45565,5.45565,0,0,1,3.65,2.08Z" fill="#935b50"/><path d="M585.07673,462.00091a5.00122,5.00122,0,0,0,.31-1.4l9.26-115.16.6-7.41,3.53-43.96a5.50262,5.50262,0,0,0-10.97-.88l-3.36,41.85-.88,10.98-9.14,113.69a5.44584,5.44584,0,0,0,.31,2.29Z" fill="#935b50"/><rect x="537.81479" y="404.06499" width="49.06117" height="11.9994" transform="translate(-66.32414 111.46795) rotate(-10.69356)" fill="#935b50"/><path d="M235.831,352.57777c2.87406,2.23323,7.93763,7.53678,8.07424,11.51444,0,0,9.306-10.11869,6.66022-18.77218a16.16168,16.16168,0,0,0-7.39006-7.44363s3.64919-2.04714,7.481,2.97756c0,0-1.36836-13.58486-20.29919-8.65348,0,0-7.39006-15.07355-22.03283-.83748,0,0,9.85317-1.256,7.93725,1.81448,0,0-5.93039,1.58183-9.83052,4.96262a9.84974,9.84974,0,0,0-3.30728,6.87761c-.22794,3.67535-.57764,10.94842.137,11.04932.95777.13952,7.25308-5.58277,11.49549-5.164s-9.71656,12.97984-9.71656,12.97984,2.87406,10.88652,4.1058,10.747c1.23136-.13952,5.70208-3.2566,3.87712,0l-3.14729,2.51226,4.10543,5.67591,10.30941-4.55939s-4.56167-12.46816-.36492-9.072c0,0,3.19294,4.2338,3.2386,7.39726,0,0,13.799-6.00152,12.43062-10.11889a92.4858,92.4858,0,0,0-5.2154-11.12674,4.705,4.705,0,0,1-.57021-1.96952C233.76324,352.32183,234.03683,351.182,235.831,352.57777Zm-1.6954-14.4532c1.29262-.89181,4.47071-.318,5.66422,2.58969,1.2774,3.10932,1.22394,6.5753-.06831,7.46692-1.29262.89181-4.96482-.27127-5.88473-3.27989C232.82811,341.55174,232.84333,339.0162,234.13558,338.12457Z" fill="#8b9d36"/><path d="M230.35708,332.20044a51.08976,51.08976,0,0,0-4.07263,5.29529,31.026,31.026,0,0,0-2.88635,5.976c-.75208,2.08472-1.35755,4.223-1.901,6.3855-.55053,2.16407-1.07641,4.32581-1.51489,6.509-.4646,2.177-.87048,4.3684-1.203,6.56848-.34229,2.20031-.53919,4.41406-.80957,6.639a37.11337,37.11337,0,0,1-3.93433,12.79992,44.64282,44.64282,0,0,0,2.18531-6.31445,35.59288,35.59288,0,0,0,1.16174-6.548,103.75423,103.75423,0,0,1,1.84912-13.30176c.464-2.19287,1.01721-4.36792,1.59058-6.52759a53.503,53.503,0,0,1,2.02722-6.42078,31.11619,31.11619,0,0,1,3.124-5.97339A44.29847,44.29847,0,0,1,230.35708,332.20044Z" fill="#5e7c24"/><path d="M224.98318,339.29285a20.392,20.392,0,0,0-2.24231.56445c-.7395.20484-1.46729.45008-2.18738.71106-1.43774.53016-2.85376,1.1117-4.24353,1.75489-1.39734.62805-2.75391,1.34314-4.118,2.05249-1.35986.71948-2.68567,1.50232-4.05017,2.24707.59192-.50171,1.20971-.97083,1.82251-1.45044.64136-.43543,1.27307-.89014,1.92969-1.30652a34.36682,34.36682,0,0,1,4.0957-2.24,29.525,29.525,0,0,1,4.38611-1.6178A17.33065,17.33065,0,0,1,224.98318,339.29285Z" fill="#5e7c24"/><path d="M218.74612,360.87854c-1.06018.822-2.16382,1.49488-3.2417,2.197q-.81024.51982-1.58252,1.074a4.344,4.344,0,0,0-1.30969,1.3617,2.85842,2.85842,0,0,1,.90979-1.80787,9.21418,9.21418,0,0,1,1.56567-1.27209A11.2897,11.2897,0,0,1,218.74612,360.87854Z" fill="#5e7c24"/><path d="M220.85989,350.93677a36.44459,36.44459,0,0,1,3.48718,3.76135,38.51258,38.51258,0,0,1,3.00147,4.1742,26.85553,26.85553,0,0,1,2.34252,4.594,13.98588,13.98588,0,0,1,1.07654,5.02246,19.79163,19.79163,0,0,0-1.6195-4.79,41.82868,41.82868,0,0,0-2.45105-4.42078c-.87915-1.44263-1.84595-2.83338-2.81775-4.22388C222.89846,353.66944,221.88589,352.30408,220.85989,350.93677Z" fill="#5e7c24"/><path d="M208.233,394.54191l3.83179,3.53579s3.74057-3.9545,4.15112-1.20961c0,0-.593,2.74488-1.32288,2.9775,0,0,9.16894,7.374,11.01642,1.30265a58.565,58.565,0,0,1,2.80542-7.95551s2.05275,1.11657.2737,9.9095c0,0,7.096-2.08524,9.731-5.91075a2.7365,2.7365,0,0,0,.46351-1.52637c.0254-2.187.31365-8.34245,2.80623-6.03142,0,0,1.43692.69785.34212,5.37346,0,0,5.7749-6.51047,3.03183-10.51193a4.001,4.001,0,0,0-4.906-1.29451c-1.60371.69616-4.57933,1.97824-10.10016,4.33943A110.18256,110.18256,0,0,1,208.233,394.54191Z" fill="#8b9d36"/><path d="M220.85989,399.9386a21.88145,21.88145,0,0,1,1.88623-5.7987,14.09765,14.09765,0,0,1,1.62012-2.62512,6.27422,6.27422,0,0,1,1.11291-1.10425,2.33358,2.33358,0,0,1,1.45776-.521,2.4785,2.4785,0,0,0-1.20825.80286,8.36993,8.36993,0,0,0-.87646,1.17285,26.65618,26.65618,0,0,0-1.41675,2.61169C222.55459,396.26783,221.76992,398.113,220.85989,399.9386Z" fill="#5e7c24"/><path d="M233.32217,397.0542a18.20749,18.20749,0,0,1,.48584-5.36145,13.74893,13.74893,0,0,1,.89587-2.57214,4.03641,4.03641,0,0,1,1.81153-2.02246A5.49339,5.49339,0,0,0,235.257,389.351c-.26758.82739-.49731,1.66955-.70324,2.52258C234.13833,393.58179,233.7936,395.31263,233.32217,397.0542Z" fill="#5e7c24"/><path d="M297.09427,333.66967s-9.21456,1.32223-1.00357,7.83552c0,0,2.09837,1.76789,8.94087,3.81492C305.03157,345.32011,309.31953,326.67158,297.09427,333.66967Z" fill="#5e7c24"/><path d="M305.03152,345.32007c-.17053-.61071-.28235-1.22241-.43591-1.82361-.1858-.59252-.31641-1.19726-.53614-1.77148a17.62279,17.62279,0,0,0-1.54492-3.3031A13.25682,13.25682,0,0,0,300.194,335.646a10.98776,10.98776,0,0,0-3.09973-1.97632,7.81,7.81,0,0,1,3.47095,1.51685,10.401,10.401,0,0,1,2.601,2.8302,12.61823,12.61823,0,0,1,1.45716,3.54162c.15747.61658.22839,1.2511.34045,1.8711C304.99465,344.06348,305.03311,344.693,305.03152,345.32007Z" fill="#50661a"/><path d="M285.4,295.99245s10.21579-6.50857,13.2756,7.94327c0,0-5.30164-4.5634-5.37186-1.92352a20.23456,20.23456,0,0,1,3.84568,6.852,7.50276,7.50276,0,0,1-.739,5.53967c-1.29858,2.36333-3.92221,7.0054-4.38334,6.79523-.61739-.28139-2.08782-6.24763-4.7443-7.61743s.65369,11.78068.65369,11.78068-5.93032,5.64676-6.59982,5.08716-2.08356-4.20785-2.27939-1.48844l.87167,2.76593-4.62419,1.94265-4.28285-6.78685s7.53855-5.97935,3.74887-5.48531c0,0-3.5261,1.39877-4.78542,3.34295,0,0-5.772-9.02151-3.36358-11.049a68.35455,68.35455,0,0,1,7.382-4.88737,3.45932,3.45932,0,0,0,1.256-1.22567c.33966-.5852.40584-1.20887-1.01586-1.0528-2.55905.28092-7.60124,1.62485-9.23137,4.03885,0,0-1.52708-9.84881,3.39918-14.19844a11.37574,11.37574,0,0,1,7.24327-1.77741s-1.34731-2.671-5.55688-1.0271C270.09814,293.56154,276.195,285.66338,285.4,295.99245Z" fill="#5e7c24"/><path d="M289.97805,312.17188c-.838-2.03088-1.60779-4.052-2.56775-5.96912a15.98958,15.98958,0,0,0-1.65149-2.7146,4.222,4.222,0,0,0-2.54541-1.75219,3.72026,3.72026,0,0,1,2.99463,1.35583,11.23554,11.23554,0,0,1,1.88831,2.76709A19.63693,19.63693,0,0,1,289.97805,312.17188Z" fill="#50661a"/><path d="M268.99441,317.03382a15.35612,15.35612,0,0,1,1.95276-3.15833,14.66462,14.66462,0,0,1,2.65-2.648,9.74166,9.74166,0,0,1,3.36316-1.72656,6.47862,6.47862,0,0,1,3.72376.12061,8.478,8.478,0,0,0-3.54505.45129,11.78282,11.78282,0,0,0-3.07568,1.764,21.34144,21.34144,0,0,0-2.6648,2.42908C270.57156,315.15125,269.75881,316.06373,268.99441,317.03382Z" fill="#50661a"/><path d="M278.57388,297.30787a4.72942,4.72942,0,0,1,3.15417-1.85315,7.40945,7.40945,0,0,1,1.88855-.05042c.31409.02991.62341.09412.93543.1438l.91479.23694.22632.05859-.09338.23609c-1.19349,3.01428-2.2074,6.111-3.20874,9.20044-.97986,3.09936-1.86255,6.228-2.72669,9.36193q-1.2464,4.71442-2.33325,9.47205c-.729,3.17114-1.37012,6.36169-2.02637,9.55554.401-3.23413.88269-6.4624,1.51428-9.66284.57434-3.21277,1.35389-6.38354,2.14515-9.54932.798-3.16516,1.74572-6.291,2.76623-9.39135,1.014-3.10413,2.15039-6.1637,3.46973-9.16077l.13281.29443-.87183-.25976c-.29663-.05615-.59155-.13025-.88977-.17932a7.1138,7.1138,0,0,0-1.809-.0586A4.77541,4.77541,0,0,0,278.57388,297.30787Z" fill="#50661a"/><path d="M281.7322,325.246a16.91432,16.91432,0,0,0-1.22375-3.2262,2.90466,2.90466,0,0,0-1.04688-1.12805,3.5557,3.5557,0,0,0-1.63464-.30444,2.40742,2.40742,0,0,1,1.865-.24866,2.78424,2.78424,0,0,1,1.47961,1.29492A5.417,5.417,0,0,1,281.7322,325.246Z" fill="#50661a"/><path d="M247.64582,399.93863s-1.81612-6.269-6.42625-2.72489a9.25163,9.25163,0,0,0-3.19485,4.90151c-.83142,3.00035-1.5501,8.43752.49776,16.15362,0,0,4.71951-6.52931,8.211-8.83945C250.67109,406.8241,253.21105,400.8691,247.64582,399.93863Z" fill="#c4ce6e"/><path d="M247.64578,399.9386a7.90268,7.90268,0,0,0-1.79053,1.84192,18.01841,18.01841,0,0,0-1.412,2.14685,47.5374,47.5374,0,0,0-2.27234,4.62317c-.67651,1.58386-1.28894,3.19641-1.89331,4.81726l-1.75512,4.90113c.1499-.858.34826-1.70508.52148-2.56018.20032-.84754.44971-1.68213.67273-2.52552a44.7042,44.7042,0,0,1,1.74927-4.93567,29.49541,29.49541,0,0,1,2.47912-4.63244A10.50813,10.50813,0,0,1,247.64578,399.9386Z" fill="#8b9d36"/><path d="M254.29964,312.85428s.1538-6.53505-5.29911-4.60128a9.09232,9.09232,0,0,0-4.51327,3.668c-1.69249,2.59646-4.00945,7.54784-4.3772,15.5328,0,0,6.4535-4.74132,10.47095-5.84982C255.11177,320.35384,259.318,315.47841,254.29964,312.85428Z" fill="#8b9d36"/><path d="M254.29958,312.85425a7.76921,7.76921,0,0,0-2.25854,1.19336,17.69659,17.69659,0,0,0-1.99023,1.60291,46.68105,46.68105,0,0,0-3.55213,3.69177c-1.11938,1.29675-2.1864,2.64014-3.2478,3.99438L240.11,327.45386c.4-.76867.84277-1.51208,1.26416-2.271.4447-.74329.93262-1.45948,1.398-2.192a44.16764,44.16764,0,0,1,3.14685-4.15137,29.06724,29.06724,0,0,1,3.75293-3.63843A10.34107,10.34107,0,0,1,254.29958,312.85425Z" fill="#5e7c24"/><path d="M295.45524,399.93863s1.81611-6.269,6.42624-2.72489a9.25157,9.25157,0,0,1,3.19485,4.90151c.83142,3.00035,1.5501,8.43752-.49776,16.15362,0,0-4.71951-6.52931-8.211-8.83945C292.43,406.8241,289.89,400.8691,295.45524,399.93863Z" fill="#8b9d36"/><path d="M295.45522,399.9386a10.50813,10.50813,0,0,1,3.70069,3.67652,29.49611,29.49611,0,0,1,2.47925,4.63244,44.75559,44.75559,0,0,1,1.74926,4.93567c.223.84339.47229,1.678.67261,2.52552.17334.8551.37171,1.70214.52149,2.56018l-1.75513-4.90113c-.60425-1.62085-1.2168-3.2334-1.89331-4.81726a47.53646,47.53646,0,0,0-2.27222-4.62317,18.01932,18.01932,0,0,0-1.41211-2.14685A7.90248,7.90248,0,0,0,295.45522,399.9386Z" fill="#5e7c24"/><path d="M268.57559,428.663l-.76758-.03906c3.78711-72.94727,14.37207-92.4668,22.58594-95.99707a6.75224,6.75224,0,0,1,6.94921.751l-.498.584a6.00231,6.00231,0,0,0-6.166-.62207C284.12441,336.17664,272.5375,352.33191,268.57559,428.663Z" fill="#50661a"/><path d="M270.36563,428.77137c-6.7959-19.26953,4.09277-92.06934,4.55957-95.15918l.75976.11523c-.11426.75488-11.32812,75.69922-4.59473,94.78809Z" fill="#50661a"/><path d="M266.00234,428.73621c-.0625-.249-6.30566-24.96973-14.29492-28.5625a4.20745,4.20745,0,0,0-3.88379.10449l-.35547-.67968a4.98674,4.98674,0,0,1,4.55469-.125c8.32617,3.74511,14.4668,28.04492,14.72363,29.07714Z" fill="#50661a"/><path d="M267.977,418.51062l-.76562-.04492c.05859-1.01367,5.76855-101.39453-7.48731-107.30566-1.47558-.65723-3.21.00293-5.15234,1.96484l-.54492-.541c2.19043-2.21192,4.21094-2.92383,6.01074-2.125C273.77285,316.58387,268.22012,414.35145,267.977,418.51062Z" fill="#50661a"/><path d="M277.099,428.73621l-.74414-.18555c.25684-1.03222,6.39746-25.332,14.72364-29.07714a4.987,4.987,0,0,1,4.55468.125l-.35547.67968a4.199,4.199,0,0,0-3.88378-.10449C283.40371,403.76746,277.16152,428.48719,277.099,428.73621Z" fill="#50661a"/><path d="M269.16348,427.92176c-5.16114-28.29395-12.81543-38.49024-18.32813-42.0625-3.52246-2.28125-6.001-1.71094-6.02441-1.70508l-.1836-.74609c.11524-.02832,2.82813-.65235,6.625,1.80664,5.63965,3.65429,13.457,14.00586,18.667,42.56836Z" fill="#50661a"/><path d="M271.90371,427.9452c-17.374-69.76465-22.06055-73.56348-22.10547-73.59375l.42578-.63868c.19532.12989,4.97852,3.99219,22.42383,74.04688Z" fill="#50661a"/><path d="M275.37344,428.663l-.76758-.03906c1.60449-30.77637,18.89648-58.47657,19.07129-58.75293l.64844.41015C294.15273,370.55555,276.96621,398.09266,275.37344,428.663Z" fill="#50661a"/><path d="M247.73705,420.51573v6.37132a2.20813,2.20813,0,0,0,2.18607,2.22954h43.799a2.20813,2.20813,0,0,0,2.18608-2.22954v-5.87156a2.20871,2.20871,0,0,0-2.16162-2.22939l-43.799-.49976A2.20753,2.20753,0,0,0,247.73705,420.51573Z" fill="#d6694b"/><polygon points="249.828 429.117 251.385 462.001 291.23 462.001 293.818 429.117 249.828 429.117" fill="#e19974"/><path d="M286.83046,368.20182c.06088-3.00066,6.26487,2.4426,6.26487,2.4426-3.69522-16.58572-15.50217-9.66929-15.50217-9.66929-10.79609-12.18893-17.80564-3.49683-17.80564-3.49683,4.87313-1.66721,6.46236,1.43436,6.46236,1.43436a12.9754,12.9754,0,0,0-8.40129,1.67477c-5.67906,4.71444-3.81624,15.98865-3.81624,15.98865,1.87026-2.6673,7.72417-3.95457,10.68918-4.156,1.86283-.12418,1.53578.79091,1.03425,1.48869a3.76709,3.76709,0,0,1-1.26961,1.08547,74.49187,74.49187,0,0,0-8.55312,5.21837c-2.78274,2.18665,4.0141,12.72428,4.0141,12.72428,1.44445-2.14785,5.52723-3.57463,5.52723-3.57463,4.402-.37994-4.30329,6.0636-4.30329,6.0636l5.04056,7.92447,5.36018-1.9928-1.04167-3.18675c.20529-3.086,1.878,1.132,2.661,1.79877.78292.67468,7.62542-5.46636,7.62542-5.46636s-3.96844-15.12012-.87425-13.42982c3.102,1.68254,4.86571,8.53706,5.58812,8.886.53977.2637,3.543-4.89276,5.03312-7.52125a8.22158,8.22158,0,0,0,.80594-6.25746A24.44378,24.44378,0,0,0,286.83046,368.20182Zm-17.31153-.124c-1.9768,1.636-5.01791.72882-5.50422-.48841-.49448-1.20965,1.01865-3.6212,3.28427-5.15646,2.1212-1.44231,4.56166-.36441,5.04834.853C272.84143,364.49543,271.71623,366.248,269.51893,368.07783Z" fill="#5e7c24"/><path d="M277.59146,360.9751a36.99587,36.99587,0,0,1,.76965,5.48792,25.74169,25.74169,0,0,1-.49341,5.54614,42.79265,42.79265,0,0,1-1.46423,5.36279c-.57032,1.75257-1.16077,3.50782-1.82105,5.23584a83.90652,83.90652,0,0,1-4.70617,10.03186,29.14446,29.14446,0,0,0-2.14942,5.03723,37.50545,37.50545,0,0,0-1.35254,5.33985,30.21418,30.21418,0,0,1,2.97534-10.64453c.80591-1.66492,1.66394-3.28174,2.411-4.95764.75477-1.67078,1.45337-3.36939,2.10657-5.0835.67627-1.70544,1.28272-3.43567,1.87439-5.17908.59607-1.73865,1.13172-3.488,1.55078-5.26367a25.65768,25.65768,0,0,0,.69458-5.42A44.27874,44.27874,0,0,0,277.59146,360.9751Z" fill="#50661a"/><path d="M278.1116,368.34375a14.01359,14.01359,0,0,1,2.8905,2.60413,23.84779,23.84779,0,0,1,2.30518,3.14563,27.51328,27.51328,0,0,1,1.79821,3.45264c.259.59448.48413,1.20324.72364,1.80346.19567.61927.40393,1.23145.57129,1.85718l-1.825-3.40027c-.63049-1.11364-1.24243-2.2323-1.92126-3.31018-.66406-1.08667-1.373-2.14306-2.11157-3.18176-.37195-.51733-.75684-1.02722-1.16736-1.51611A18.294,18.294,0,0,0,278.1116,368.34375Z" fill="#50661a"/><path d="M272.74673,386.066a8.48591,8.48591,0,0,1,1.881,2.73389,7.2998,7.2998,0,0,1,.495,1.61267,2.34814,2.34814,0,0,1-.2345,1.68653,3.93105,3.93105,0,0,0-.34448-1.53272c-.19849-.48669-.40284-.97266-.619-1.45886A25.17857,25.17857,0,0,1,272.74673,386.066Z" fill="#50661a"/><path d="M275.73879,378.25647c-1.30932.4878-2.61023.96607-3.89831,1.47034-1.28381.51367-2.567,1.02014-3.81275,1.60254a35.44064,35.44064,0,0,0-3.65881,1.87964,16.5504,16.5504,0,0,0-3.27869,2.49426,10.89662,10.89662,0,0,1,2.954-2.98767,20.73944,20.73944,0,0,1,3.66614-2.08484,29.27237,29.27237,0,0,1,3.93921-1.46A27.01706,27.01706,0,0,1,275.73879,378.25647Z" fill="#50661a"/><path d="M314.36087,349.45311s8.8999-13.29474,20.03068,2.40507c0,0-8.71734-2.63-7.43911.57562a25.90433,25.90433,0,0,1,8.15139,6.158,9.79994,9.79994,0,0,1,1.97237,7.04442c-.33853,3.53318-1.09106,10.51224-1.75289,10.50759-.88611-.00623-5.73-6.37643-9.62478-6.59409s6.86472,13.7861,6.86472,13.7861-4.202,9.9599-5.29429,9.64778-4.67209-3.93094-3.50353-.56247l2.47358,2.85121-4.54645,4.81371-8.64237-5.84511s5.96031-11.22237,1.66762-8.595c0,0-3.50945,3.57152-4.01721,6.58064,0,0-11.58268-7.7273-9.739-11.45324a91.54873,91.54873,0,0,1,6.32407-9.81132,4.69712,4.69712,0,0,0,.88253-2.12853c.11552-.898-.11247-1.71364-1.7583-.75124-2.92592,1.71093-8.283,6.03057-8.99327,9.80253,0,0-6.91574-10.99893-3.24909-18.86322a15.19358,15.19358,0,0,1,7.7747-6.02146s-2.99537-2.482-7.19847,1.75066C294.74375,354.75072,297.98362,341.99971,314.36087,349.45311Z" fill="#c4ce6e"/><path d="M314.36086,349.45313a96.26867,96.26867,0,0,1,3.84937,12.28381c1.04407,4.16785,1.85217,8.39429,2.48486,12.64514a126.72455,126.72455,0,0,1,1.19348,12.83191,110.3025,110.3025,0,0,1-.196,12.87207c-.03369-4.29064-.0553-8.57214-.39368-12.84-.12756-2.13538-.33947-4.26367-.53723-6.39282-.2572-2.12244-.47876-4.25061-.82544-6.36084-.56628-4.23951-1.38147-8.44214-2.29822-12.62085C316.71584,357.69349,315.65225,353.54285,314.36086,349.45313Z" fill="#8b9d36"/><path d="M316.5823,356.52991A20.44672,20.44672,0,0,0,314.659,359.384a31.05313,31.05313,0,0,0-1.50989,3.06091c-.44848,1.04675-.83874,2.1189-1.20019,3.20642-.35779,1.08924-.67774,2.19434-1.01819,3.31262.01977-.58239.07825-1.16272.13122-1.746.09681-.57434.16663-1.15844.30933-1.72607a19.8006,19.8006,0,0,1,1.07239-3.34888,17.41833,17.41833,0,0,1,1.71228-3.08032A10.50484,10.50484,0,0,1,316.5823,356.52991Z" fill="#8b9d36"/><path d="M320.28542,374.13868a8.79451,8.79451,0,0,1,5.665,4.14929,7.20281,7.20281,0,0,1,.85486,2.23083c-.45056-.65991-.86792-1.30261-1.35083-1.89465a15.06919,15.06919,0,0,0-1.52527-1.6803,17.80694,17.80694,0,0,0-1.72693-1.48327C321.58938,375.00379,320.96206,374.55359,320.28542,374.13868Z" fill="#8b9d36"/><path d="M484.91641,341.38172c-.98536-1.6416-24.18555-40.30664-27.93848-50.31445l.93555-.35157c3.72168,9.92285,27.61914,49.75,27.86035,50.15039Z" fill="#8b9d36"/><path d="M465.54526,269.83176a42.95977,42.95977,0,0,0-2.31006,7.74273,72.38517,72.38517,0,0,0-1.18066,7.85022,70.94385,70.94385,0,0,0-.3252,7.93152,42.37966,42.37966,0,0,0,.81543,8.04,42.41829,42.41829,0,0,0,2.31543-7.74231,71.05957,71.05957,0,0,0,1.17529-7.85071,72.38354,72.38354,0,0,0,.31983-7.932A42.92209,42.92209,0,0,0,465.54526,269.83176Z" fill="#8b9d36"/><path d="M474.36557,281.89175a40.97746,40.97746,0,0,0-2.99756,7.3003,68.81886,68.81886,0,0,0-1.8833,7.51428,67.76828,67.76828,0,0,0-1.03955,7.67633,40.52933,40.52933,0,0,0,.08594,7.89239,40.49076,40.49076,0,0,0,3.00293-7.29925,67.77065,67.77065,0,0,0,1.87793-7.51538,68.93312,68.93312,0,0,0,1.03418-7.67731A41.01564,41.01564,0,0,0,474.36557,281.89175Z" fill="#8b9d36"/><path d="M479.22543,295.93173a34.76867,34.76867,0,0,0-2.55175,6.78558,57.75915,57.75915,0,0,0-1.42774,6.946,56.79105,56.79105,0,0,0-.57763,7.06732,34.32916,34.32916,0,0,0,.55664,7.22925,34.332,34.332,0,0,0,2.55712-6.78485,56.69721,56.69721,0,0,0,1.42237-6.94672,57.76043,57.76043,0,0,0,.57226-7.06811A34.735,34.735,0,0,0,479.22543,295.93173Z" fill="#8b9d36"/><path d="M485.34555,309.94577a26.61751,26.61751,0,0,0-2.5874,5.7746,43.37591,43.37591,0,0,0-1.46875,5.96771,42.57173,42.57173,0,0,0-.62256,6.11383,26.30915,26.30915,0,0,0,.50635,6.30878A26.289,26.289,0,0,0,483.766,328.337a42.64416,42.64416,0,0,0,1.46387-5.96862,43.44851,43.44851,0,0,0,.61719-6.11475A26.6171,26.6171,0,0,0,485.34555,309.94577Z" fill="#8b9d36"/><path d="M490.74545,318.70505a23.96419,23.96419,0,0,0-2.73144,5.07031,41.32132,41.32132,0,0,0-1.71729,5.25976,47.21814,47.21814,0,0,0-1.03711,5.39393c-.1123.91552-.21533,1.82592-.28369,2.7539a20.49271,20.49271,0,0,1-.30176,2.81983,5.5363,5.5363,0,0,0,.66407-.41919l.53906-.54016a9.96674,9.96674,0,0,0,.94287-1.17933,18.88949,18.88949,0,0,0,1.44971-2.52307,28.09561,28.09561,0,0,0,1.90234-5.32019,31.49086,31.49086,0,0,0,.89551-5.53955A20.85389,20.85389,0,0,0,490.74545,318.70505Z" fill="#8b9d36"/><path d="M460.30063,297.0834a34.44938,34.44938,0,0,0-6.084-5.27569,56.37992,56.37992,0,0,0-6.72461-4.01,55.38912,55.38912,0,0,0-7.21-3.05194,34.05491,34.05491,0,0,0-7.85644-1.77411,34.04552,34.04552,0,0,0,6.08057,5.28174,55.39529,55.39529,0,0,0,6.728,4.0039,56.35549,56.35549,0,0,0,7.21289,3.0459A34.4458,34.4458,0,0,0,460.30063,297.0834Z" fill="#8b9d36"/><path d="M466.2767,308.24563a42.437,42.437,0,0,0-7.5039-4.91229,70.65507,70.65507,0,0,0-8.00293-3.58417,69.39218,69.39218,0,0,0-8.38037-2.5791,41.95341,41.95341,0,0,0-8.88379-1.23834,41.96189,41.96189,0,0,0,7.501,4.91864,69.40249,69.40249,0,0,0,8.00538,3.57782,70.63825,70.63825,0,0,0,8.38281,2.57275A42.43635,42.43635,0,0,0,466.2767,308.24563Z" fill="#8b9d36"/><path d="M473.31137,320.65286a36.18916,36.18916,0,0,0-6.76416-4.74267,59.47234,59.47234,0,0,0-7.28027-3.421,58.41862,58.41862,0,0,0-7.67041-2.42077,35.77063,35.77063,0,0,0-8.19092-1.08649,35.78244,35.78244,0,0,0,6.76172,4.749A58.42527,58.42527,0,0,0,457.45,317.1456a59.4793,59.4793,0,0,0,7.67286,2.41449A36.18756,36.18756,0,0,0,473.31137,320.65286Z" fill="#8b9d36"/><path d="M478.87094,330.20273a27.12992,27.12992,0,0,0-5.94092-3.91315,43.32809,43.32809,0,0,0-6.36474-2.55914,42.55187,42.55187,0,0,0-6.686-1.53455,26.84216,26.84216,0,0,0-7.11377-.16766,26.84044,26.84044,0,0,0,5.939,3.91955,42.54838,42.54838,0,0,0,6.36719,2.55274,43.30559,43.30559,0,0,0,6.6875,1.528A27.14432,27.14432,0,0,0,478.87094,330.20273Z" fill="#8b9d36"/><path d="M483.25961,338.7717a35.6838,35.6838,0,0,0-6.53027-4.9618,58.56551,58.56551,0,0,0-7.09375-3.65979,57.54421,57.54421,0,0,0-7.52051-2.67456,35.28275,35.28275,0,0,0-8.08935-1.3601,35.26939,35.26939,0,0,0,6.52734,4.968,57.52118,57.52118,0,0,0,7.09668,3.65369,58.55359,58.55359,0,0,0,7.523,2.66821A35.68211,35.68211,0,0,0,483.25961,338.7717Z" fill="#8b9d36"/><path d="M458.35874,292.33176a25.11585,25.11585,0,0,0-.19483-8.01984,37.78922,37.78922,0,0,0-2.04346-7.2959,37.16919,37.16919,0,0,0-3.44384-6.74756,24.86487,24.86487,0,0,0-5.311-6.01672,24.85,24.85,0,0,0,.18555,8.02325,37.20251,37.20251,0,0,0,2.05224,7.29248,37.79268,37.79268,0,0,0,3.45313,6.74408A25.11981,25.11981,0,0,0,458.35874,292.33176Z" fill="#8b9d36"/><path d="M488.58828,343.01551c-.01074-.666-1.22461-66.873-13.96191-87.041l.8457-.5332c12.88672,20.4043,14.07227,84.82617,14.11621,87.55859Z" fill="#50661a"/><path d="M479.1893,264.64343a45.82654,45.82654,0,0,1-.2998-9.01806,81.07,81.07,0,0,1,.97461-8.748c.46679-2.88482,1.10205-5.741,1.84912-8.57336.74609-2.85108,1.68847-5.59418,2.69531-8.516a12.49542,12.49542,0,0,1,.645,2.24206,19.98323,19.98323,0,0,1,.35254,2.27826,38.60685,38.60685,0,0,1,.20312,4.52258,58.06728,58.06728,0,0,1-.814,8.86359,64.41989,64.41989,0,0,1-2.05078,8.63025A40.57768,40.57768,0,0,1,479.1893,264.64343Z" fill="#50661a"/><path d="M463.349,223.848a32.40156,32.40156,0,0,1,5.64111,7.24805,50.93718,50.93718,0,0,1,3.78076,7.94428,50.05471,50.05471,0,0,1,2.373,8.47125,32.0521,32.0521,0,0,1,.49512,9.17407,32.05145,32.05145,0,0,1-5.6499-7.24475,50.00944,50.00944,0,0,1-3.772-7.94763,50.93779,50.93779,0,0,1-2.36425-8.47455A32.38459,32.38459,0,0,1,463.349,223.848Z" fill="#50661a"/><path d="M452.72885,240.26685a74.64122,74.64122,0,0,1,7.42871,6.845c2.2959,2.38,4.48682,4.81323,6.63037,7.25964l6.36866,7.30878c1.06836,1.19684,2.14795,2.37616,3.28857,3.49322a15.01616,15.01616,0,0,0,3.88623,2.93573,6.74544,6.74544,0,0,1-2.65967-.06744,12.45194,12.45194,0,0,1-2.5625-.806,24.74656,24.74656,0,0,1-4.564-2.61688,44.79381,44.79381,0,0,1-7.51807-6.95514,59.34937,59.34937,0,0,1-5.97412-8.16138A42.4756,42.4756,0,0,1,452.72885,240.26685Z" fill="#50661a"/><path d="M452.72885,256.68567a61.482,61.482,0,0,1,9.23487,5.67981,104.62488,104.62488,0,0,1,8.28564,6.73413,102.85462,102.85462,0,0,1,7.56738,7.532,60.78971,60.78971,0,0,1,6.60889,8.59638,60.76608,60.76608,0,0,1-9.23975-5.67481,102.77444,102.77444,0,0,1-8.28125-6.73913,104.61852,104.61852,0,0,1-7.5625-7.53705A61.4734,61.4734,0,0,1,452.72885,256.68567Z" fill="#50661a"/><path d="M453.80893,269.568a60.79468,60.79468,0,0,1,9.33008,5.39562,103.39654,103.39654,0,0,1,8.40918,6.47431,101.61545,101.61545,0,0,1,7.71142,7.29059,60.11051,60.11051,0,0,1,6.78077,8.37945,60.08107,60.08107,0,0,1-9.335-5.39044,101.55,101.55,0,0,1-8.40429-6.47943,103.38827,103.38827,0,0,1-7.707-7.29572A60.764,60.764,0,0,1,453.80893,269.568Z" fill="#50661a"/><path d="M454.52866,283.338a56.52109,56.52109,0,0,1,9.3457,4.53376,95.71353,95.71353,0,0,1,8.49707,5.67047,94.12111,94.12111,0,0,1,7.85449,6.53088,55.85146,55.85146,0,0,1,6.99756,7.67853,55.90279,55.90279,0,0,1-9.34961-4.52832,94.11888,94.11888,0,0,1-8.49316-5.676,95.7795,95.7795,0,0,1-7.8501-6.53632A56.52015,56.52015,0,0,1,454.52866,283.338Z" fill="#50661a"/><path d="M453.80893,293.328a62.88359,62.88359,0,0,1,9.77832,4.96485,107.11128,107.11128,0,0,1,8.92041,6.09479,105.22848,105.22848,0,0,1,8.27149,6.95,62.144,62.144,0,0,1,7.40478,8.09064,62.14952,62.14952,0,0,1-9.78223-4.95942,105.22955,105.22955,0,0,1-8.9165-6.10022,107.09614,107.09614,0,0,1-8.26709-6.95538A62.87836,62.87836,0,0,1,453.80893,293.328Z" fill="#50661a"/><path d="M451.28891,302.688a81.97481,81.97481,0,0,1,10.22119,5.67273c3.24512,2.07739,6.38477,4.2735,9.4458,6.56561,3.06983,2.27875,6.05469,4.65448,8.98682,7.10932,2.9624,2.43377,5.76074,4.96862,8.82568,7.479a24.713,24.713,0,0,1-5.72314-1.67017,55.96519,55.96519,0,0,1-5.31445-2.55853,87.22582,87.22582,0,0,1-9.76661-6.35547,100.70267,100.70267,0,0,1-8.87255-7.4873A63.78567,63.78567,0,0,1,451.28891,302.688Z" fill="#50661a"/><path d="M448.22885,312.408A84.30436,84.30436,0,0,1,459.328,317.6825c3.54444,1.97455,6.98438,4.09466,10.34522,6.32635q5.042,3.34653,9.84082,7.03778,2.39868,1.85084,4.75146,3.76819a42.341,42.341,0,0,0,4.82325,3.69324,9.317,9.317,0,0,1-3.11817-.53552c-1.00488-.29761-1.98047-.65967-2.94531-1.03626-1.92432-.76391-3.78369-1.63769-5.60742-2.5636a106.417,106.417,0,0,1-10.51319-6.202,120.18414,120.18414,0,0,1-9.78564-7.25214A74.38126,74.38126,0,0,1,448.22885,312.408Z" fill="#50661a"/><path d="M482.29184,276.07886a49.75038,49.75038,0,0,1,1.43457-9.62586,83.59652,83.59652,0,0,1,2.7666-9.13854,82.28329,82.28329,0,0,1,3.77539-8.76978,49.215,49.215,0,0,1,5.12012-8.27783,49.21934,49.21934,0,0,1-1.42773,9.62817,82.28457,82.28457,0,0,1-2.77344,9.13623,83.71015,83.71015,0,0,1-3.78174,8.76746A49.74989,49.74989,0,0,1,482.29184,276.07886Z" fill="#50661a"/><path d="M484.42563,287.31867a50.83638,50.83638,0,0,1,2.76269-9.44587,85.60707,85.60707,0,0,1,4.01758-8.78448,84.18185,84.18185,0,0,1,4.96778-8.284,50.294,50.294,0,0,1,6.23486-7.61633,50.29442,50.29442,0,0,1-2.75635,9.449,84.28234,84.28234,0,0,1-4.02392,8.78131,85.709,85.709,0,0,1-4.97364,8.28082A50.9006,50.9006,0,0,1,484.42563,287.31867Z" fill="#50661a"/><path d="M486.04038,298.188a55.6833,55.6833,0,0,1,4.04394-9.483,94.36226,94.36226,0,0,1,5.21924-8.68866,92.70641,92.70641,0,0,1,6.10937-8.0874,55.06032,55.06032,0,0,1,7.2959-7.28553,55.05522,55.05522,0,0,1-4.03857,9.48682,92.59508,92.59508,0,0,1-5.2251,8.68482,94.25642,94.25642,0,0,1-6.11475,8.08367A55.68575,55.68575,0,0,1,486.04038,298.188Z" fill="#50661a"/><path d="M487.22348,310.17975A71.80325,71.80325,0,0,1,493.013,300.002q3.22779-4.81705,6.88819-9.27985,3.64818-4.47281,7.71923-8.60028a70.68891,70.68891,0,0,1,8.82813-7.69385,70.68206,70.68206,0,0,1-5.78418,10.18207q-3.22779,4.81677-6.89307,9.27557-3.657,4.46631-7.72461,8.596A71.715,71.715,0,0,1,487.22348,310.17975Z" fill="#50661a"/><path d="M488.18393,322.61469a72.51168,72.51168,0,0,1,6.856-9.5669q3.731-4.47876,7.856-8.56006,4.11329-4.09268,8.61182-7.79809a71.41682,71.41682,0,0,1,9.62109-6.78162,71.41867,71.41867,0,0,1-6.85107,9.57166q-3.731,4.4783-7.86035,8.5553-4.12134,4.08526-8.6167,7.79327A72.48541,72.48541,0,0,1,488.18393,322.61469Z" fill="#50661a"/><path d="M488.7684,330.588a63.19563,63.19563,0,0,1,7.44873-8.08764,107.66489,107.66489,0,0,1,8.3042-6.95593A105.76247,105.76247,0,0,1,513.473,309.445a62.46934,62.46934,0,0,1,9.81592-4.957,62.48672,62.48672,0,0,1-7.44482,8.093,105.84822,105.84822,0,0,1-8.30811,6.95056,107.74531,107.74531,0,0,1-8.95605,6.094A63.20607,63.20607,0,0,1,488.7684,330.588Z" fill="#50661a"/><path d="M489.08872,337.24805a66.89566,66.89566,0,0,1,8.70214-7.23547q4.56445-3.24481,9.40674-6.00391,4.83472-2.77267,9.93994-5.072a66.11363,66.11363,0,0,1,10.65137-3.82874,66.12135,66.12135,0,0,1-8.69922,7.24128q-4.56445,3.24444-9.40967,5.998-4.83984,2.7638-9.94336,5.06616A66.90666,66.90666,0,0,1,489.08872,337.24805Z" fill="#50661a"/><path d="M488.84018,341.568a72.24827,72.24827,0,0,1,10.18115-5.86426c3.49317-1.6864,7.05469-3.189,10.67432-4.53406q5.42871-2.01947,11.04736-3.52734a71.19439,71.19439,0,0,1,11.5459-2.18433,71.19636,71.19636,0,0,1-10.17871,5.87061q-5.24047,2.529-10.67676,4.52771c-3.62158,1.33984-7.30176,2.52233-11.0498,3.521A72.23758,72.23758,0,0,1,488.84018,341.568Z" fill="#50661a"/><path d="M490.64,341.38172l-.85742-.51563c.24121-.40039,24.13965-40.22754,27.86133-50.15039l.93554.35157C514.82656,301.07508,491.62539,339.74012,490.64,341.38172Z" fill="#5e7c24"/><path d="M510.01168,269.83176a42.95977,42.95977,0,0,1,2.31006,7.74273,72.38517,72.38517,0,0,1,1.18066,7.85022,70.94385,70.94385,0,0,1,.3252,7.93152,42.37966,42.37966,0,0,1-.81543,8.04,42.41829,42.41829,0,0,1-2.31543-7.74231,71.05957,71.05957,0,0,1-1.17529-7.85071,72.38354,72.38354,0,0,1-.31983-7.932A42.92209,42.92209,0,0,1,510.01168,269.83176Z" fill="#5e7c24"/><path d="M501.19137,281.89175a40.97746,40.97746,0,0,1,2.99756,7.3003,68.81886,68.81886,0,0,1,1.8833,7.51428,67.76828,67.76828,0,0,1,1.03955,7.67633,40.52933,40.52933,0,0,1-.08594,7.89239,40.49076,40.49076,0,0,1-3.00293-7.29925,67.77065,67.77065,0,0,1-1.87793-7.51538,68.93312,68.93312,0,0,1-1.03418-7.67731A41.01564,41.01564,0,0,1,501.19137,281.89175Z" fill="#5e7c24"/><path d="M496.33151,295.93173a34.76867,34.76867,0,0,1,2.55175,6.78558,57.75915,57.75915,0,0,1,1.42774,6.946,56.79105,56.79105,0,0,1,.57763,7.06732,34.32916,34.32916,0,0,1-.55664,7.22925,34.332,34.332,0,0,1-2.55713-6.78485,56.69905,56.69905,0,0,1-1.42236-6.94672,57.76043,57.76043,0,0,1-.57226-7.06811A34.735,34.735,0,0,1,496.33151,295.93173Z" fill="#5e7c24"/><path d="M490.21139,309.94577a26.61751,26.61751,0,0,1,2.5874,5.7746,43.37591,43.37591,0,0,1,1.46875,5.96771,42.57315,42.57315,0,0,1,.62256,6.11383,26.30915,26.30915,0,0,1-.50635,6.30878A26.289,26.289,0,0,1,491.791,328.337a42.64416,42.64416,0,0,1-1.46387-5.96862,43.44851,43.44851,0,0,1-.61719-6.11475A26.6171,26.6171,0,0,1,490.21139,309.94577Z" fill="#5e7c24"/><path d="M484.81149,318.70505a23.96419,23.96419,0,0,1,2.73144,5.07031,41.32132,41.32132,0,0,1,1.71729,5.25976,47.21814,47.21814,0,0,1,1.03711,5.39393c.1123.91552.21533,1.82592.28369,2.7539a20.49421,20.49421,0,0,0,.30175,2.81983,5.537,5.537,0,0,1-.66406-.41919l-.53906-.54016a9.96674,9.96674,0,0,1-.94287-1.17933,18.88949,18.88949,0,0,1-1.44971-2.52307,28.09561,28.09561,0,0,1-1.90234-5.32019,31.49086,31.49086,0,0,1-.89551-5.53955A20.85389,20.85389,0,0,1,484.81149,318.70505Z" fill="#5e7c24"/><path d="M515.25631,297.0834a34.44938,34.44938,0,0,1,6.084-5.27569,56.37912,56.37912,0,0,1,6.72461-4.01,55.38957,55.38957,0,0,1,7.21-3.05194,34.05512,34.05512,0,0,1,7.85645-1.77411,34.04552,34.04552,0,0,1-6.08057,5.28174,55.39529,55.39529,0,0,1-6.728,4.0039,56.35549,56.35549,0,0,1-7.21289,3.0459A34.4458,34.4458,0,0,1,515.25631,297.0834Z" fill="#5e7c24"/><path d="M509.28024,308.24563a42.437,42.437,0,0,1,7.5039-4.91229,70.65507,70.65507,0,0,1,8.00293-3.58417,69.39218,69.39218,0,0,1,8.38037-2.5791,41.95341,41.95341,0,0,1,8.88379-1.23834,41.96189,41.96189,0,0,1-7.501,4.91864,69.40249,69.40249,0,0,1-8.00538,3.57782,70.63825,70.63825,0,0,1-8.38281,2.57275A42.43635,42.43635,0,0,1,509.28024,308.24563Z" fill="#5e7c24"/><path d="M502.24557,320.65286a36.18916,36.18916,0,0,1,6.76416-4.74267,59.47165,59.47165,0,0,1,7.28027-3.421,58.41862,58.41862,0,0,1,7.67041-2.42077,35.77063,35.77063,0,0,1,8.19092-1.08649,35.78244,35.78244,0,0,1-6.76172,4.749,58.42527,58.42527,0,0,1-7.28271,3.41474,59.4793,59.4793,0,0,1-7.67286,2.41449A36.18756,36.18756,0,0,1,502.24557,320.65286Z" fill="#5e7c24"/><path d="M496.686,330.20273a27.12992,27.12992,0,0,1,5.94092-3.91315,43.32809,43.32809,0,0,1,6.36474-2.55914,42.55187,42.55187,0,0,1,6.686-1.53455,26.84216,26.84216,0,0,1,7.11377-.16766,26.84044,26.84044,0,0,1-5.939,3.91955,42.54838,42.54838,0,0,1-6.36719,2.55274,43.30559,43.30559,0,0,1-6.6875,1.528A27.14432,27.14432,0,0,1,496.686,330.20273Z" fill="#5e7c24"/><path d="M492.29733,338.7717a35.6838,35.6838,0,0,1,6.53027-4.9618,58.56551,58.56551,0,0,1,7.09375-3.65979,57.54421,57.54421,0,0,1,7.52051-2.67456,35.28266,35.28266,0,0,1,8.08935-1.3601,35.26939,35.26939,0,0,1-6.52734,4.968,57.52118,57.52118,0,0,1-7.09668,3.65369,58.55359,58.55359,0,0,1-7.523,2.66821A35.68211,35.68211,0,0,1,492.29733,338.7717Z" fill="#5e7c24"/><path d="M517.1982,292.33176a25.11585,25.11585,0,0,1,.19483-8.01984,37.78922,37.78922,0,0,1,2.04346-7.2959,37.16919,37.16919,0,0,1,3.44384-6.74756,24.86487,24.86487,0,0,1,5.311-6.01672,24.85,24.85,0,0,1-.18555,8.02325,37.20251,37.20251,0,0,1-2.05224,7.29248,37.79268,37.79268,0,0,1-3.45313,6.74408A25.11981,25.11981,0,0,1,517.1982,292.33176Z" fill="#5e7c24"/><path d="M496.25915,369.56081h-18.0714L472.374,338.717a1.22592,1.22592,0,0,1,1.19629-1.45891h27.30633a1.22592,1.22592,0,0,1,1.19629,1.45891Z" fill="#e19974"/><path d="M501.65289,340.94562l.42009-2.2286a1.22593,1.22593,0,0,0-1.19629-1.45892H473.57027A1.22592,1.22592,0,0,0,472.374,338.717l.42008,2.2286Z" fill="#d6694b"/><polygon points="479.632 360.826 475.815 356.972 479.632 353.119 483.45 356.972 479.632 360.826" fill="#d6694b"/><polygon points="487.267 360.826 483.45 356.972 487.267 353.119 491.085 356.972 487.267 360.826" fill="#d6694b"/><polygon points="494.814 360.826 490.997 356.972 494.814 353.119 498.632 356.972 494.814 360.826" fill="#d6694b"/><rect x="107.28066" y="461.01258" width="500" height="1.97656" fill="#935b50"/><path d="M154.78665,434.75623a116.95878,116.95878,0,0,1-1.61377-16.68115,123.01251,123.01251,0,0,1,.66088-16.76721,89.48018,89.48018,0,0,1,3.42835-16.42933,72.55593,72.55593,0,0,1,3.06018-7.82043,59.71659,59.71659,0,0,1,4.18762-7.262,62.9,62.9,0,0,0-6.77453,15.22937c-.76929,2.67468-1.46314,5.3706-2.00281,8.10205q-.789,4.10028-1.2594,8.25342a131.43417,131.43417,0,0,0-.807,16.6842q.03882,4.18122.323,8.358C154.1658,429.20691,154.40225,431.99,154.78665,434.75623Z" fill="#50661a"/><path d="M154.78667,392.9197s-29.38216,3.70051-42.16929-8.90757c-9.48919-9.35633-.46338-25.45988,12.54131-22.55062C133.865,363.40919,144.60356,371.148,154.78667,392.9197Z" fill="#5e7c24"/><path d="M154.78665,392.91968c-4.12452-1.25537-8.18409-2.72546-12.1803-4.35278q-5.99158-2.4483-11.74854-5.44226-2.863-1.5174-5.61828-3.233a56.5282,56.5282,0,0,1-5.3357-3.689,39.84347,39.84347,0,0,1-4.80041-4.36645,19.3205,19.3205,0,0,1-3.52771-5.4104,19.16642,19.16642,0,0,0,3.75781,5.19494,39.99871,39.99871,0,0,0,4.87061,4.18762,82.14637,82.14637,0,0,0,10.95471,6.74744c3.78479,2.03687,7.69763,3.83154,11.63879,5.5564q2.9579,1.29162,5.96033,2.48205C150.75186,391.40711,152.75845,392.19153,154.78665,392.91968Z" fill="#50661a"/><path d="M122.92581,378.0625l.0288-4.33471c-.008-1.4408.00037-2.87927-.08154-4.313a37.70879,37.70879,0,0,0-.38086-4.27429l-.19934-1.04993c-.07092-.34949-.19372-.6814-.28564-1.02649a7.57408,7.57408,0,0,0-.38745-.99231,8.68758,8.68758,0,0,0-.577-.90649,7.3,7.3,0,0,1,1.93591,3.88061,29.12636,29.12636,0,0,1,.53736,4.34143c.02893,1.45508.0299,2.90857-.06836,4.35694A36.461,36.461,0,0,1,122.92581,378.0625Z" fill="#50661a"/><path d="M109.09792,378.0625c1.72706-.30065,3.43067-.54833,5.09583-.932a15.30014,15.30014,0,0,0,2.41638-.76074,3.493,3.493,0,0,0,1.88806-1.59095,3.03072,3.03072,0,0,1-1.65844,2.03821,9.8479,9.8479,0,0,1-2.49915.94043A15.88364,15.88364,0,0,1,109.09792,378.0625Z" fill="#50661a"/><path d="M114.40981,385.59083a48.92982,48.92982,0,0,0,6.82081-1.3711,12.80261,12.80261,0,0,0,3.12915-1.34241,4.472,4.472,0,0,0,2.08178-2.5935,4.05246,4.05246,0,0,1-1.79467,3.00635,10.4245,10.4245,0,0,1-3.23,1.54589A20.24951,20.24951,0,0,1,114.40981,385.59083Z" fill="#50661a"/><path d="M130.839,382.75538q.73462-2.15351,1.34925-4.32361c.39795-1.45069.7904-2.90174,1.05-4.379a25.96634,25.96634,0,0,0,.4021-8.94336,15.06309,15.06309,0,0,1,.68664,4.50952,26.97,26.97,0,0,1-.45715,4.55676,35.64662,35.64662,0,0,1-1.21118,4.40467A28.09318,28.09318,0,0,1,130.839,382.75538Z" fill="#50661a"/><path d="M126.44155,391.25757c.93677-.24585,1.843-.5531,2.73084-.88147a15.25816,15.25816,0,0,0,2.54162-1.20739,9.35473,9.35473,0,0,0,2.14771-1.74219,7.58333,7.58333,0,0,0,1.34192-2.46387,5.45337,5.45337,0,0,1-.945,2.77234,7.6179,7.6179,0,0,1-2.2135,1.986,10.62376,10.62376,0,0,1-2.71838,1.13159A10.94547,10.94547,0,0,1,126.44155,391.25757Z" fill="#50661a"/><path d="M141.32974,371.72376a14.30028,14.30028,0,0,1,1.38147,3.8429,16.49976,16.49976,0,0,1,.32275,4.10217,13.37992,13.37992,0,0,1-.86145,4.03027,12.0882,12.0882,0,0,1-2.08337,3.51514,18.339,18.339,0,0,0,1.615-3.677,14.66208,14.66208,0,0,0,.68737-3.90528,18.86111,18.86111,0,0,0-.16613-3.97925A24.14973,24.14973,0,0,0,141.32974,371.72376Z" fill="#50661a"/><path d="M139.43,392.91968c1.06787-.53528,2.11743-.99438,3.12439-1.53381a12.45138,12.45138,0,0,0,2.81909-1.94739,5.29037,5.29037,0,0,1-2.51685,2.516A8.212,8.212,0,0,1,139.43,392.91968Z" fill="#50661a"/><path d="M148.73086,381.63831a14.38573,14.38573,0,0,1,1.0094,4.567,10.2715,10.2715,0,0,1-.11328,2.364,4.54536,4.54536,0,0,1-.89612,2.18274,7.19629,7.19629,0,0,0,.39648-2.23938,20.01744,20.01744,0,0,0-.03-2.27112C149.01858,384.71961,148.835,383.19983,148.73086,381.63831Z" fill="#50661a"/><path d="M153.71876,392.77167s-22.89271-18.78641-22.533-36.74037c.2669-13.32346,18.165-17.84522,24.99628-6.40319C160.75536,357.28828,162.522,370.40636,153.71876,392.77167Z" fill="#c4ce6e"/><path d="M153.71877,392.77173a125.63238,125.63238,0,0,1-5.34387-11.78833q-2.38585-6.02307-4.172-12.27234-.86207-3.12871-1.50391-6.31677a53.85549,53.85549,0,0,1-.96875-6.42908,39.90393,39.90393,0,0,1-.08252-6.50781,18.59733,18.59733,0,0,1,1.58923-6.27649,19.9421,19.9421,0,0,0-1.09985,6.30591,39.95448,39.95448,0,0,0,.35791,6.396,83.82179,83.82179,0,0,0,2.67,12.5603c1.10816,4.14648,2.49695,8.21606,3.92652,12.27051q1.07244,3.04192,2.24988,6.04858C152.09438,388.77979,152.90762,390.7732,153.71877,392.77173Z" fill="#8b9d36"/><path d="M142.59426,359.42359c2.031-2.08911,4.121-4.0564,6.11414-6.10925.994-1.02613,1.953-2.07813,2.853-3.17481a18.2782,18.2782,0,0,0,1.21106-1.73474,7.48594,7.48594,0,0,0,.48742-.93921,10.04218,10.04218,0,0,0,.30652-1.02942,7.022,7.022,0,0,1-1.37,4.157,24.38072,24.38072,0,0,1-2.77051,3.41687A33.57392,33.57392,0,0,1,142.59426,359.42359Z" fill="#8b9d36"/><path d="M133.08486,349.38465c1.5044.94617,2.86512,1.97925,4.27869,2.91015a18.72911,18.72911,0,0,0,2.16235,1.24866,3.7168,3.7168,0,0,0,2.40735.40747,2.93985,2.93985,0,0,1-2.66626.32862,9.10775,9.10775,0,0,1-2.45312-1.15015A13.04521,13.04521,0,0,1,133.08486,349.38465Z" fill="#8b9d36"/><path d="M131.27224,358.41822c1.94495,1.3424,3.79431,2.72632,5.77417,3.85461a13.84558,13.84558,0,0,0,3.06665,1.36707,4.65374,4.65374,0,0,0,3.28626-.13623,3.95291,3.95291,0,0,1-3.44495.90027,10.00323,10.00323,0,0,1-3.40356-1.26319,17.52726,17.52726,0,0,1-2.88575-2.10351A15.765,15.765,0,0,1,131.27224,358.41822Z" fill="#8b9d36"/><path d="M144.62917,368.39588c1.35889-.68872,2.68372-1.40967,4.00464-2.12158,1.31092-.73072,2.615-1.46314,3.86792-2.27161a42.47209,42.47209,0,0,0,3.63721-2.5835,27.0977,27.0977,0,0,0,3.22766-3.12475,13.76672,13.76672,0,0,1-2.70679,3.70569,23.19053,23.19053,0,0,1-3.62207,2.84607A27.37364,27.37364,0,0,1,144.62917,368.39588Z" fill="#8b9d36"/><path d="M135.43252,371.0503c.87366.446,1.72668.86694,2.58411,1.25488a17.59467,17.59467,0,0,0,2.60608.96521,10.16745,10.16745,0,0,0,2.68042.394,8.65683,8.65683,0,0,0,2.72509-.582,5.05329,5.05329,0,0,1-2.64905,1.35877,7.331,7.331,0,0,1-3.02526-.20825,9.89,9.89,0,0,1-2.70935-1.24512A9.255,9.255,0,0,1,135.43252,371.0503Z" fill="#8b9d36"/><path d="M159.85244,368.42554a14.11864,14.11864,0,0,1-4.4812,6.837,15.67848,15.67848,0,0,1-1.694,1.22754c-.29919.17944-.61755.32776-.92456.49206a5.268,5.268,0,0,1-.95593.42041,11.06343,11.06343,0,0,1-4.04334.77515,21.53928,21.53928,0,0,0,3.72132-1.486,16.56429,16.56429,0,0,0,3.25183-2.19287,22.15776,22.15776,0,0,0,2.77539-2.80567A30.00944,30.00944,0,0,0,159.85244,368.42554Z" fill="#8b9d36"/><path d="M143.15786,381.62281c1.19653.28662,2.24793.69568,3.31873,1.04492a20.97828,20.97828,0,0,0,3.296.876,3.64761,3.64761,0,0,1-1.803.3977,6.33781,6.33781,0,0,1-1.811-.32617,7.53457,7.53457,0,0,1-1.63366-.79187A5.43341,5.43341,0,0,1,143.15786,381.62281Z" fill="#8b9d36"/><path d="M157.74441,380.61695a9.50639,9.50639,0,0,1-1.0437,2.12549,12.76258,12.76258,0,0,1-1.44849,1.87011,9.185,9.185,0,0,1-1.84,1.53223,4.14713,4.14713,0,0,1-2.28443.73975,8.90653,8.90653,0,0,0,1.81494-1.363c.543-.5094,1.07422-1.0365,1.5824-1.59473C155.57168,382.83655,156.56545,381.68763,157.74441,380.61695Z" fill="#8b9d36"/><path d="M153.03077,424.23767s-29.59516,1.06406-41.20629-12.6347c-8.6165-10.1657,1.81019-25.39967,14.50342-21.34164C134.82573,392.97809,144.83092,401.64418,153.03077,424.23767Z" fill="#c4ce6e"/><path d="M153.03079,424.23768a125.60617,125.60617,0,0,1-11.80725-5.30188c-3.84961-1.95789-7.59937-4.11585-11.24891-6.44019q-2.71672-1.77538-5.30761-3.74084a53.8345,53.8345,0,0,1-4.98059-4.179,39.9167,39.9167,0,0,1-4.36841-4.82458,18.5987,18.5987,0,0,1-2.96192-5.75733,19.949,19.949,0,0,0,3.34827,5.45557,39.96977,39.96977,0,0,0,4.50085,4.55847,83.83042,83.83042,0,0,0,10.31348,7.65c3.57459,2.37537,7.309,4.50757,11.06372,6.60132q2.81707,1.57106,5.68933,3.046C149.17129,422.31971,151.10012,423.27613,153.03079,424.23768Z" fill="#8b9d36"/><path d="M122.62271,406.59681c.14038-2.91028.40539-5.76819.54125-8.62622.06629-1.42713.08912-2.85047.03821-4.26819a18.30668,18.30668,0,0,0-.24-2.10205,7.50234,7.50234,0,0,0-.2561-1.02661,10.047,10.047,0,0,0-.45129-.97474,7.02226,7.02226,0,0,1,1.72351,4.02332,24.37128,24.37128,0,0,1,.184,4.395A33.57007,33.57007,0,0,1,122.62271,406.59681Z" fill="#8b9d36"/><path d="M108.85,405.363c1.754-.28613,3.45789-.412,5.13354-.64953a18.73249,18.73249,0,0,0,2.44764-.49476,3.71671,3.71671,0,0,0,2.07446-1.28747,2.94011,2.94011,0,0,1-1.78149,2.01074,9.108,9.108,0,0,1-2.60035.761A13.04608,13.04608,0,0,1,108.85,405.363Z" fill="#8b9d36"/><path d="M113.4689,413.33533c2.34643-.28064,4.6488-.46692,6.87976-.931a13.853,13.853,0,0,0,3.20385-1.00439,4.65339,4.65339,0,0,0,2.37366-2.27686,3.95259,3.95259,0,0,1-1.98706,2.95471,10.001,10.001,0,0,1-3.38757,1.30506,17.52629,17.52629,0,0,1-3.55567.33264A15.77093,15.77093,0,0,1,113.4689,413.33533Z" fill="#8b9d36"/><path d="M130.0856,411.97718c.56311-1.41565,1.07934-2.83277,1.59863-4.24072.49927-1.41529.99231-2.8274,1.3966-4.26258a42.4741,42.4741,0,0,0,1.01734-4.34387,27.09619,27.09619,0,0,0,.35217-4.47864,13.76806,13.76806,0,0,1,.42285,4.56946,23.19731,23.19731,0,0,1-.83227,4.53064A27.37257,27.37257,0,0,1,130.0856,411.97718Z" fill="#8b9d36"/><path d="M124.94705,420.053c.95019-.24365,1.86828-.49255,2.76782-.769a17.60455,17.60455,0,0,0,2.59253-1.001,10.1674,10.1674,0,0,0,2.27051-1.47827,8.658,8.658,0,0,0,1.65783-2.23962,5.05275,5.05275,0,0,1-1.08691,2.7716,7.3311,7.3311,0,0,1-2.406,1.84583,9.88754,9.88754,0,0,1-2.85522.85937A9.25354,9.25354,0,0,1,124.94705,420.053Z" fill="#8b9d36"/><path d="M141.5187,401.92554a14.11942,14.11942,0,0,1,1.16455,8.09143,15.65842,15.65842,0,0,1-.45776,2.04126c-.10547.33252-.246.65442-.36743.98072a5.26372,5.26372,0,0,1-.4386.94775,11.06287,11.06287,0,0,1-2.51843,3.25684,21.54128,21.54128,0,0,0,1.80664-3.57667,16.55223,16.55223,0,0,0,.98693-3.79589,22.14024,22.14024,0,0,0,.22425-3.94007A30.02586,30.02586,0,0,0,141.5187,401.92554Z" fill="#8b9d36"/><path d="M137.73525,422.86744c1.0868-.57679,2.14576-.96582,3.17969-1.41272a20.97245,20.97245,0,0,0,3.05078-1.5243,3.64791,3.64791,0,0,1-1.08862,1.49134,6.33291,6.33291,0,0,1-1.57361.95373,7.52989,7.52989,0,0,1-1.7489.48743A5.43007,5.43007,0,0,1,137.73525,422.86744Z" fill="#8b9d36"/><path d="M148.00576,412.46094a9.50765,9.50765,0,0,1,.624,2.28418,12.75312,12.75312,0,0,1,.15136,2.3606,9.19,9.19,0,0,1-.36535,2.36633,4.14712,4.14712,0,0,1-1.22327,2.06628,8.906,8.906,0,0,0,.45874-2.2229c.07007-.74121.11951-1.48791.1311-2.24279C147.84548,415.56287,147.83035,414.04383,148.00576,412.46094Z" fill="#8b9d36"/><path d="M154.77884,394.90766s29.53662,2.14316,41.63983-11.12283c8.98167-9.84456-.88225-25.44881-13.71509-21.85661C174.11229,364.33312,163.79757,372.62839,154.77884,394.90766Z" fill="#5e7c24"/><path d="M154.77883,394.90772c1.98682-.83435,3.94922-1.72363,5.89734-2.64075q2.9328-1.35186,5.82092-2.79345c3.84461-1.93067,7.65711-3.92957,11.32911-6.16346a82.15794,82.15794,0,0,0,10.58288-7.31677,39.98181,39.98181,0,0,0,4.64258-4.43909,19.165,19.165,0,0,0,3.47815-5.38623,19.31923,19.31923,0,0,1-3.23694,5.58924,39.86507,39.86507,0,0,1-4.563,4.614,56.54412,56.54412,0,0,1-5.13342,3.96558q-2.65851,1.85724-5.4397,3.52539-5.5783,3.29883-11.44458,6.0553C162.80752,391.75367,158.83132,393.43616,154.77883,394.90772Z" fill="#50661a"/><path d="M185.81033,378.38807a36.4567,36.4567,0,0,1-.74927-4.28467c-.17468-1.44116-.25037-2.89258-.29834-4.34717a29.09625,29.09625,0,0,1,.30725-4.36377,7.29935,7.29935,0,0,1,1.72827-3.97754,8.674,8.674,0,0,0-.52844.93579,7.56767,7.56767,0,0,0-.33447,1.01136c-.07349.34948-.17871.6875-.231,1.04016l-.14368,1.059a37.69869,37.69869,0,0,0-.15454,4.28845c-.0061,1.436.07837,2.87207.14649,4.31128Z" fill="#50661a"/><path d="M199.61892,377.6576a15.879,15.879,0,0,1-5.25146-.02771,9.85034,9.85034,0,0,1-2.54529-.807,3.03033,3.03033,0,0,1-1.7638-1.94775,3.49207,3.49207,0,0,0,1.96936,1.48889,15.314,15.314,0,0,0,2.45325.63208C196.16409,377.29126,197.87832,377.44861,199.61892,377.6576Z" fill="#50661a"/><path d="M194.71218,385.45606a20.25191,20.25191,0,0,1-7.03723-.38355,10.4261,10.4261,0,0,1-3.30713-1.37316,4.05269,4.05269,0,0,1-1.951-2.90735,4.47281,4.47281,0,0,0,2.21594,2.48,12.8027,12.8027,0,0,0,3.19581,1.17517A48.94034,48.94034,0,0,0,194.71218,385.45606Z" fill="#50661a"/><path d="M178.156,383.49244a28.10531,28.10531,0,0,1-2.03772-4.07312,35.62867,35.62867,0,0,1-1.44214-4.33448,26.96909,26.96909,0,0,1-.69714-4.52624,15.06587,15.06587,0,0,1,.44739-4.53955,25.96527,25.96527,0,0,0,.874,8.90967c.33728,1.46142.80591,2.88989,1.27991,4.3175Q177.30416,381.38453,178.156,383.49244Z" fill="#50661a"/><path d="M182.99648,391.75049a10.94691,10.94691,0,0,1-2.90246-.25207,10.62892,10.62892,0,0,1-2.77442-.98645,7.61783,7.61783,0,0,1-2.3153-1.86621,5.45338,5.45338,0,0,1-1.09009-2.71851,7.58245,7.58245,0,0,0,1.47009,2.38941,9.35249,9.35249,0,0,0,2.23682,1.62634,15.25827,15.25827,0,0,0,2.60193,1.07153C181.12686,391.29554,182.04812,391.55433,182.99648,391.75049Z" fill="#50661a"/><path d="M167.09731,373.0304a24.14184,24.14184,0,0,0-.68689,3.97083,18.85821,18.85821,0,0,0,.04432,3.98242,14.65179,14.65179,0,0,0,.89282,3.86352,18.34123,18.34123,0,0,0,1.80688,3.58655,12.08926,12.08926,0,0,1-2.26611-3.40015,13.38033,13.38033,0,0,1-1.07324-3.97912,16.50194,16.50194,0,0,1,.10559-4.11353A14.29946,14.29946,0,0,1,167.09731,373.0304Z" fill="#50661a"/><path d="M170.11416,394.09644a8.21152,8.21152,0,0,1-3.4729-.783A5.28942,5.28942,0,0,1,163.995,390.934a12.44647,12.44647,0,0,0,2.91809,1.79578C167.94705,393.21521,169.01943,393.61829,170.11416,394.09644Z" fill="#50661a"/><path d="M160.23013,383.32215c-.02149,1.56482-.12439,3.09216-.12268,4.61609a19.9992,19.9992,0,0,0,.09,2.26965,7.19815,7.19815,0,0,0,.51428,2.21521,4.54418,4.54418,0,0,1-1.01013-2.13232,10.26419,10.26419,0,0,1-.238-2.35462A14.38765,14.38765,0,0,1,160.23013,383.32215Z" fill="#50661a"/><path d="M153.65531,423.90143s29.53662,2.14315,41.63983-11.12284c8.98167-9.84456-.88225-25.44881-13.71509-21.8566C172.98876,393.32689,162.674,401.62216,153.65531,423.90143Z" fill="#8b9d36"/><path d="M153.6553,423.90137c1.96448-.89038,3.92688-1.77575,5.86218-2.72021q2.92091-1.37495,5.79675-2.83643c3.82862-1.95544,7.63819-3.94983,11.29712-6.19336a83.81758,83.81758,0,0,0,10.5857-7.26855,39.94431,39.94431,0,0,0,4.66418-4.39124,19.94274,19.94274,0,0,0,3.545-5.32983,18.59539,18.59539,0,0,1-3.16992,5.64551,39.91521,39.91521,0,0,1-4.5415,4.662,53.84333,53.84333,0,0,1-5.12976,3.99451q-2.65924,1.86712-5.44055,3.54468c-3.73194,2.18969-7.55787,4.20923-11.47644,6.02539A125.60185,125.60185,0,0,1,153.6553,423.90137Z" fill="#5e7c24"/><path d="M184.68679,407.38184a33.5723,33.5723,0,0,1-1.22558-8.63,24.37122,24.37122,0,0,1,.34423-4.38538,7.02242,7.02242,0,0,1,1.86927-3.95776,10.05122,10.05122,0,0,0-.4867.95764,7.49208,7.49208,0,0,0-.29333,1.0166,18.31132,18.31132,0,0,0-.31653,2.0918c-.10254,1.415-.13171,2.83813-.11755,4.26684C184.49209,401.60267,184.65273,404.46839,184.68679,407.38184Z" fill="#5e7c24"/><path d="M198.49539,406.65125a13.04718,13.04718,0,0,1-5.28284.14746,9.10579,9.10579,0,0,1-2.57068-.85547,2.93974,2.93974,0,0,1-1.707-2.07434,3.71685,3.71685,0,0,0,2.02612,1.36231,18.728,18.728,0,0,0,2.42786.58374C195.05483,406.11341,196.75283,406.3014,198.49539,406.65125Z" fill="#5e7c24"/><path d="M193.58865,414.44971a15.763,15.763,0,0,1-3.53858.25134,17.53021,17.53021,0,0,1-3.54113-.46215,10.001,10.001,0,0,1-3.33777-1.42786,3.95289,3.95289,0,0,1-1.87793-3.02527,4.65406,4.65406,0,0,0,2.28906,2.36206,13.85167,13.85167,0,0,0,3.165,1.12049C188.96,413.8136,191.25405,414.08375,193.58865,414.44971Z" fill="#5e7c24"/><path d="M177.0325,412.48621a27.36817,27.36817,0,0,1-3.65247-8.3645,23.18234,23.18234,0,0,1-.6665-4.558,13.768,13.768,0,0,1,.58935-4.55091,27.07828,27.07828,0,0,0,.18848,4.48853,42.48672,42.48672,0,0,0,.85815,4.37793c.35169,1.44909.793,2.87817,1.24024,4.31079C176.05728,409.616,176.52151,411.051,177.0325,412.48621Z" fill="#5e7c24"/><path d="M181.873,420.74427a9.25537,9.25537,0,0,1-2.93811-.11853,9.89,9.89,0,0,1-2.822-.96289,7.3304,7.3304,0,0,1-2.337-1.93238,5.05454,5.05454,0,0,1-.98511-2.80944,8.65879,8.65879,0,0,0,1.57508,2.29858,10.16382,10.16382,0,0,0,2.21508,1.56018,17.59568,17.59568,0,0,0,2.55433,1.09485C180.024,420.18372,180.93228,420.46607,181.873,420.74427Z" fill="#5e7c24"/><path d="M165.97378,402.02417a30.01927,30.01927,0,0,0-.546,3.98816,22.1538,22.1538,0,0,0,.08032,3.94556,16.5645,16.5645,0,0,0,.84778,3.82947,21.53128,21.53128,0,0,0,1.675,3.64014,11.063,11.063,0,0,1-2.39807-3.34656,5.2706,5.2706,0,0,1-.40369-.96314c-.1095-.33056-.238-.65735-.33142-.99341a15.68664,15.68664,0,0,1-.38294-2.05664A14.11965,14.11965,0,0,1,165.97378,402.02417Z" fill="#5e7c24"/><path d="M168.99063,423.09021a5.43053,5.43053,0,0,1-1.818-.07092,7.526,7.526,0,0,1-1.72986-.5509,6.33261,6.33261,0,0,1-1.53784-1.01062,3.64749,3.64749,0,0,1-1.03345-1.53,20.9726,20.9726,0,0,0,2.99317,1.63464C166.88162,422.04664,167.92568,422.47413,168.99063,423.09021Z" fill="#5e7c24"/><path d="M159.10659,412.3158c.11768,1.58826.047,3.10571.05506,4.61682-.016.75476.00622,1.50281.04907,2.2461a8.91144,8.91144,0,0,0,.37744,2.23815,4.14589,4.14589,0,0,1-1.1471-2.10949,9.19536,9.19536,0,0,1-.2788-2.37805,12.759,12.759,0,0,1,.23742-2.35364A9.51391,9.51391,0,0,1,159.10659,412.3158Z" fill="#5e7c24"/><path d="M163.52526,371.39035s-8.18918-28.45949,2.2952-43.03865c7.78036-10.81905,25.08358-4.3857,24.21547,8.91213C189.45475,346.16642,183.46532,357.9703,163.52526,371.39035Z" fill="#8b9d36"/><path d="M163.52529,371.39039a125.58089,125.58089,0,0,1,2.28931-12.7389c.96887-4.209,2.15588-8.36914,3.52881-12.47253q1.06567-3.06519,2.34631-6.05457a53.8114,53.8114,0,0,1,2.85059-5.84338,39.89131,39.89131,0,0,1,3.625-5.40539,18.59641,18.59641,0,0,1,4.87024-4.26624,19.94537,19.94537,0,0,0-4.484,4.56812,39.96839,39.96839,0,0,0-3.33484,5.4696,83.833,83.833,0,0,0-4.929,11.8573c-1.44043,4.043-2.60632,8.182-3.73,12.33166q-.8432,3.11336-1.57983,6.25708C164.453,367.18165,163.99136,369.28455,163.52529,371.39039Z" fill="#5e7c24"/><path d="M173.28921,337.6189c2.85791-.56763,5.69507-1.00146,8.5011-1.56079,1.40088-.28088,2.78747-.6029,4.15088-.99524a18.31437,18.31437,0,0,0,1.98156-.74109,7.48709,7.48709,0,0,0,.93421-.4967,10.07633,10.07633,0,0,0,.83667-.67371,7.02347,7.02347,0,0,1-3.48706,2.64539,24.38078,24.38078,0,0,1-4.2201,1.24133A33.57748,33.57748,0,0,1,173.28921,337.6189Z" fill="#5e7c24"/><path d="M171.15591,323.95655c.7019,1.63281,1.236,3.25561,1.8717,4.82422a18.71234,18.71234,0,0,0,1.0719,2.25525,3.71655,3.71655,0,0,0,1.751,1.70153,2.94009,2.94009,0,0,1-2.382-1.24243,9.10542,9.10542,0,0,1-1.36719-2.339A13.04739,13.04739,0,0,1,171.15591,323.95655Z" fill="#5e7c24"/><path d="M164.53726,330.36622c.8396,2.209,1.57714,4.39795,2.567,6.45044a13.84763,13.84763,0,0,0,1.74927,2.86584,4.65368,4.65368,0,0,0,2.78333,1.75269,3.9529,3.9529,0,0,1-3.34754-1.21351,10.00182,10.00182,0,0,1-2.08557-2.97155,17.521,17.521,0,0,1-1.1825-3.36963A15.76061,15.76061,0,0,1,164.53726,330.36622Z" fill="#5e7c24"/><path d="M169.87332,346.16126c1.50976.2041,3.00964.3623,4.50134.52576,1.494.14221,2.9834.27917,4.47388.32434a42.47513,42.47513,0,0,0,4.46093-.06324,27.08108,27.08108,0,0,0,4.43079-.74133,13.76615,13.76615,0,0,1-4.33154,1.51526,23.19526,23.19526,0,0,1-4.59742.28809A27.369,27.369,0,0,1,169.87332,346.16126Z" fill="#5e7c24"/><path d="M160.79446,343.12818c.46631.863.92981,1.69372,1.41565,2.49963a17.61487,17.61487,0,0,0,1.59814,2.27356,10.16516,10.16516,0,0,0,1.98352,1.84571,8.65761,8.65761,0,0,0,2.574,1.067,5.05244,5.05244,0,0,1-2.95215-.3844,7.32929,7.32929,0,0,1-2.3728-1.88818,9.88747,9.88747,0,0,1-1.5243-2.56275A9.25517,9.25517,0,0,1,160.79446,343.12818Z" fill="#5e7c24"/><path d="M182.39126,354.82447a14.119,14.119,0,0,1-7.56958,3.08667,15.6925,15.6925,0,0,1-2.09143.04944c-.34815-.022-.69446-.08045-1.04041-.11939a5.25677,5.25677,0,0,1-1.02563-.19641,11.06074,11.06074,0,0,1-3.76917-1.65613,21.53554,21.53554,0,0,0,3.90723.88806,16.55949,16.55949,0,0,0,3.922.0398,22.151,22.151,0,0,0,3.87732-.73523A30.01824,30.01824,0,0,0,182.39126,354.82447Z" fill="#5e7c24"/><path d="M161.156,356.21741c.82251.915,1.45605,1.84851,2.13977,2.74378a20.98118,20.98118,0,0,0,2.2168,2.59155,3.64628,3.64628,0,0,1-1.71033-.69568,6.33346,6.33346,0,0,1-1.306-1.29626,7.53424,7.53424,0,0,1-.89587-1.57911A5.43312,5.43312,0,0,1,161.156,356.21741Z" fill="#5e7c24"/><path d="M173.73733,363.66663a9.51091,9.51091,0,0,1-2.06543,1.15784,12.75346,12.75346,0,0,1-2.254.71777,9.185,9.185,0,0,1-2.38452.21765,4.14561,4.14561,0,0,1-2.30066-.68725,8.90594,8.90594,0,0,0,2.26782-.09241c.73621-.11133,1.47266-.2439,2.208-.41516C170.68875,364.26124,172.159,363.87916,173.73733,363.66663Z" fill="#5e7c24"/><path d="M133.82,427.18976v5.34632a1.85289,1.85289,0,0,0,1.83439,1.87085h36.75276a1.85289,1.85289,0,0,0,1.83438-1.87085v-4.927a1.85339,1.85339,0,0,0-1.81386-1.87074l-36.75276-.41935A1.85239,1.85239,0,0,0,133.82,427.18976Z" fill="#d6694b"/><polygon points="135.574 434.407 136.881 462.001 170.316 462.001 172.487 434.407 135.574 434.407" fill="#e19974"/><rect x="448.69362" y="64.60605" width="121.02184" height="145.51243" rx="6.92632" fill="#e5e1e5"/><rect x="465.6156" y="82.36233" width="84.6099" height="63.0414" fill="#a2aee6"/><rect x="467.07461" y="158.19715" width="83.15137" height="1.21484" fill="#a2aee6"/><rect x="464.40017" y="178.20469" width="2.43132" height="12.91045" fill="#a2aee6"/><rect x="469.62727" y="178.20469" width="2.43132" height="12.91045" fill="#a2aee6"/><path d="M503.40314,179.06447a1.09951,1.09951,0,0,1,1.66191-.94645l9.40388,5.59561a1.10255,1.10255,0,0,1,0,1.8929l-9.40388,5.59559a1.0995,1.0995,0,0,1-1.66191-.94644Zm0,0" fill="#a2aee6"/><path d="M547.18193,174.11243a9.71356,9.71356,0,1,0,6.86869,2.84565,9.64444,9.64444,0,0,0-6.86869-2.84565Zm6.00907,15.72221a8.49607,8.49607,0,1,1,2.4899-6.00909,8.43964,8.43964,0,0,1-2.4899,6.00909Zm0,0" fill="#a2aee6"/><path d="M546.23338,179.94a.60862.60862,0,0,0-.64016.07011l-4.24949,3.33889a.60465.60465,0,0,0,0,.95311l4.24949,3.33887a.6057.6057,0,0,0,.98164-.47655v-6.67776a.609.609,0,0,0-.34148-.54667Zm-.87266,5.976-2.65958-2.09045,2.65958-2.09045Zm0,0" fill="#a2aee6"/><path d="M552.30408,179.94a.60611.60611,0,0,0-.64016.07011l-4.24949,3.33889a.60465.60465,0,0,0,0,.95311l4.24949,3.33887a.6057.6057,0,0,0,.98164-.47655v-6.67776a.60906.60906,0,0,0-.34148-.54667Zm-.87267,5.976-2.65958-2.09045,2.65958-2.09045Zm0,0" fill="#a2aee6"/><path d="M428.36637,183.05072l-2.11739-8.17089a6.6118,6.6118,0,0,1-.1-2.86746l1.05088-5.6509a4.65047,4.65047,0,0,1,2.45988-3.33457,10.77389,10.77389,0,0,1,5.19716-.94938s.41336,3.12693-3.97583,5.4551l.49656.58a1.27479,1.27479,0,0,0,1.8432.09815l3.71586-3.506,3.37073-2.49026s1.82008-6.24867,2.58637-6.85527c0,0,5.29556-3.65785-.28305,8.41524l.585,4.937a6.3586,6.3586,0,0,1-2.36777,5.73384l-3.23491,2.5608-.32687,5.76286Z" fill="#f9977a"/><polygon points="435.518 173.485 432.818 172.773 444.5 148.39 446.582 149.446 435.518 173.485"/><path d="M442.38377,172.64422l-4.87992,2.65984a1.01992,1.01992,0,0,1-1.2878-.26249h0a1.01991,1.01991,0,0,1,.22522-1.4758l5.57181-3.798-4.345,1.90637a1.29751,1.29751,0,0,1-1.71709-.68451h0a1.29752,1.29752,0,0,1,.68645-1.69706l4.40246-1.87893-4.154.52277a1.11083,1.11083,0,0,1-1.23264-.9092h0a1.11082,1.11082,0,0,1,.75274-1.25l6.20482-2.00267" fill="#f9977a"/><path d="M442.38381,172.64417l-3.3468,1.90588c-.572.31092-1.08386.65052-1.7052.93775a1.14084,1.14084,0,0,1-1.46045-1.11658,1.15705,1.15705,0,0,1,.497-.92l.7898-.55054,1.57946-1.1012,3.17151-2.18408.1781.32141-3.11328,1.37891-.77832.3446a3.46808,3.46808,0,0,1-.84863.31116,1.495,1.495,0,0,1-1.1051-2.67432,4.17546,4.17546,0,0,1,.80688-.392l.78418-.33142,3.13623-1.32557.09314.344-3.47266.4126c-.30078.02648-.55383.08178-.89379.08471a1.24278,1.24278,0,0,1-.77637-2.16345,2.06133,2.06133,0,0,1,.83386-.3761l.83545-.25781,1.67395-.50586,3.348-1.01172L439.303,164.911l-1.65393.56823-.82849.27918a1.86012,1.86012,0,0,0-.741.34314.98774.98774,0,0,0-.04968,1.39087.96874.96874,0,0,0,.67761.30444c.24268-.00488.5647-.06934.84314-.10107l3.46656-.4607a.18.18,0,0,1,.202.15454.18261.18261,0,0,1-.10888.18958l-3.127,1.34741-.78174.33691a4.03632,4.03632,0,0,0-.72045.34852,1.09746,1.09746,0,0,0,.81152,1.95849,3.23065,3.23065,0,0,0,.74267-.27527l.78064-.33923,3.12281-1.3573a.18449.18449,0,0,1,.1781.32153l-3.19226,2.15369-1.6023,1.06775-.80115.53381a.89433.89433,0,0,0-.39855.704.90844.90844,0,0,0,1.14978.90576c.54553-.239,1.13183-.57739,1.6958-.86108Z" fill="#dd765e"/><path d="M403.41806,435.07212l2.204,9.16343s12.075,9.59309,27.53835,12.17051c0,0,4.72489,2.16961,4.72489,5.59471H391.30405V444.23555l-2.05421-9.16344Z" fill="#f9977a"/><path d="M391.30063,444.232v17.76348H437.8884c0-3.42281-4.73244-5.59107-4.73244-5.59107-15.46329-2.5752-27.53669-12.17241-27.53669-12.17241S398.20133,452.46454,391.30063,444.232Z" fill="#d6694b"/><path d="M437.147,459.68163H391.30405v2.31914l47.22534.00014S439.84524,460.5949,437.147,459.68163Z" fill="#935b50"/><path d="M422.97207,453.653c-.44165.65173-.84717,1.14368-1.199,1.6145a10.46561,10.46561,0,0,0-.8534,1.25513,3.76816,3.76816,0,0,0-.45386,1.24109,16.014,16.014,0,0,0-.19189,1.918,2.84694,2.84694,0,0,1-1.526-1.70679,3.07453,3.07453,0,0,1,.24426-2.5138,3.75327,3.75327,0,0,1,1.76123-1.58471A3.42017,3.42017,0,0,1,422.97207,453.653Z" fill="#935b50"/><path d="M405.61929,444.23206a8.58386,8.58386,0,0,1-2.92127,3.16821,8.42494,8.42494,0,0,1-4.258,1.46619,6.7437,6.7437,0,0,1-1.17383-.02844c-.38855-.06824-.77881-.12488-1.1593-.21179a7.18506,7.18506,0,0,1-2.07593-1.01648,7.49118,7.49118,0,0,1-1.63782-1.50757,9.88555,9.88555,0,0,1-1.09241-1.87012c.67054.3252,1.20313.74231,1.79761,1.051a12.78052,12.78052,0,0,0,1.7439.81262,11.17464,11.17464,0,0,0,1.73376.49609,9.82179,9.82179,0,0,0,1.75415.07691,12.6224,12.6224,0,0,0,3.58032-.78748C403.11538,445.42786,404.33181,444.869,405.61929,444.23206Z" fill="#935b50"/><path d="M349.15,435.07211l.078,9.16344s12.075,9.59309,27.53835,12.17051c0,0,4.72489,2.16961,4.72489,5.59471H334.91V444.23555l.07179-9.16345Z" fill="#f9977a"/><path d="M334.90658,444.232v17.76348h46.58777c0-3.42281-4.73244-5.59107-4.73244-5.59107-15.46329-2.5752-27.53669-12.17241-27.53669-12.17241S341.80728,452.46454,334.90658,444.232Z" fill="#d6694b"/><path d="M380.753,459.68163H334.91v2.31914l47.22534.00014S383.45119,460.5949,380.753,459.68163Z" fill="#935b50"/><path d="M366.578,453.653c-.44165.65173-.84717,1.14368-1.199,1.6145a10.46542,10.46542,0,0,0-.85339,1.25513,3.76816,3.76816,0,0,0-.45386,1.24109,16.014,16.014,0,0,0-.19189,1.918,2.84694,2.84694,0,0,1-1.526-1.70679,3.075,3.075,0,0,1,.24414-2.5138,3.75407,3.75407,0,0,1,1.76135-1.58471A3.42017,3.42017,0,0,1,366.578,453.653Z" fill="#935b50"/><path d="M349.22524,444.23206a8.58315,8.58315,0,0,1-2.92138,3.16821,8.42413,8.42413,0,0,1-4.25794,1.46619,6.74375,6.74375,0,0,1-1.17383-.02844c-.38855-.06824-.7788-.12488-1.1593-.21179a7.18487,7.18487,0,0,1-2.07592-1.01648,7.49118,7.49118,0,0,1-1.63782-1.50757,9.89205,9.89205,0,0,1-1.09253-1.87012c.67065.3252,1.20325.74231,1.79773,1.051a12.781,12.781,0,0,0,1.74389.81262,11.17475,11.17475,0,0,0,1.73377.49609,9.82126,9.82126,0,0,0,1.75415.07691,12.6224,12.6224,0,0,0,3.58032-.78748C346.72134,445.42786,347.93777,444.869,349.22524,444.23206Z" fill="#935b50"/><polygon points="393.897 263.125 406.792 439.714 385.941 438.769 370.204 346.327 351.751 438.778 333.358 437.944 339.545 260.663 393.897 263.125" fill="#8b9d36"/><path d="M375.39473,195.38223c8.65484-4.50662-.219-15.6-.219-15.6l-.14976-.56257a.70754.70754,0,0,1,.698-.91913c1.904.16161,5.80575.05713,4.3345-3.79575a3.67478,3.67478,0,0,1,.88541-2.99115,1.035,1.035,0,0,0-.14713-1.51388,9.74088,9.74088,0,0,1-2.86885-2.88084.6915.6915,0,0,1,.61622-1.03518l3.67326.311a.54613.54613,0,0,0,.5547-.66191l-.08881-.50839a.59448.59448,0,0,1,.45671-.69991l1.24919-.22042a1.43632,1.43632,0,0,0,.98139-2.01142l-2.18722-4.978a4.20835,4.20835,0,0,1-.20521-2.77847c.72834-2.70625,2.72665-1.96978,1.19749-8.0002,0,0-6.33549-7.31452-19.15634,2.10259,0,0,.559-.61589-5.48235,5.15834,0,0-2.36258,2.15055-1.00871,9.18038,0,0-2.94621,13.83652-.79972,18.41817C357.72851,181.39555,366.7399,199.88885,375.39473,195.38223Z" fill="#f9977a"/><path d="M359.38417,165.17471s2.179,26.77542,16.29783,15.292l-.50631-.68443-.14976-.56257a.70754.70754,0,0,1,.698-.91913c.12278.01041.25443.01957.39183.02679l.06291-.25058C362.15425,179.411,359.38417,165.17471,359.38417,165.17471Z" fill="#dd765e"/><path d="M375.355,154.98164a.50546.50546,0,0,1-.53159-.25141.57563.57563,0,0,1,.16044-.76188,18.79823,18.79823,0,0,1,7.969-2.81119.55452.55452,0,0,1,.08915,1.10277,18.18157,18.18157,0,0,0-7.50668,2.64688A.49351.49351,0,0,1,375.355,154.98164Z"/><path d="M378.05557,156.11963a2.176,2.176,0,0,1,.7688-.87793,3.07223,3.07223,0,0,1,1.04589-.46093,2.32431,2.32431,0,0,1,2.20264.55334c-.40088.14038-.72241.20752-1.04053.29419l-.92309.22607A9.64057,9.64057,0,0,1,378.05557,156.11963Z" fill="#350500"/><ellipse cx="380.63538" cy="156.42876" rx="0.65103" ry="1.21535" transform="translate(-20.50741 64.57173) rotate(-9.44337)" fill="#050505"/><path d="M359.53962,157.40678a6.43107,6.43107,0,0,1,2.30739-.67654,2.359,2.359,0,0,1,1.09781.22884,4.45637,4.45637,0,0,1,1.01476.71539,2.37478,2.37478,0,0,0-.8201-1.09218,2.11957,2.11957,0,0,0-1.30731-.40479,2.91888,2.91888,0,0,0-1.28337.3716A3.1281,3.1281,0,0,0,359.53962,157.40678Z" fill="#dd765e"/><path d="M360.277,161.628a3.47892,3.47892,0,0,0,1.02959-.9622,4.5507,4.5507,0,0,0,.66188-1.30631,5.71929,5.71929,0,0,0,.16945-.72935,4.49382,4.49382,0,0,0,.02874-.75042,3.665,3.665,0,0,0-.33867-1.42707,12.17034,12.17034,0,0,1-.06356,1.40885,6.30959,6.30959,0,0,1-.28438,1.31777A10.044,10.044,0,0,1,360.277,161.628Z" fill="#dd765e"/><path d="M355.31841,169.903c-3.3016-.60141-4.60976-6.21925-5.88155-11.68088a28.86414,28.86414,0,0,1-.70576-12.36016c.55177-3.09224,1.08611-6.08684,3.47112-8.827,3.31368-3.807,7.99637-4.59133,11.7312-5.21687,4.18055-.70018,7.52223-1.25986,10.77166.45092,3.44419,1.81332,4.314,1.437,6.54633,4.261.76951.97345,3.67355,1.14919,5.31478,2.169.32722.20333,2.2253,1.38271,2.10814,2.49422-.05052.47927-.7336,4.46012-7.49469,5.90646-3.90286.83491-5.184.37612-7.01153,1.394-4.02517,2.24193-6.45156.81832-7.35773,1.05648-1.09071.28667.10389,1.797.87547,4.37952a29.49822,29.49822,0,0,1,1.08949,5.9791c.29832,3.17526-.1213,3.93148.53823,6.17531a7.41079,7.41079,0,0,0,1.82872,3.59363c1.35322,1.3076,3.0491,1.58125,5.37,1.92486,4.02982.59659,4.25345-.67274,4.77815.27457.525.94783-.02866,4.337-.96286,5.20913-2.58066,2.40928-5.81919,1.18186-8.03454,1.03072-2.9917-.20411-9.56378-2.95657-9.77377-6.88626-.11283-2.11153,1.04818-7.59469,1.78556-10.81837a5.324,5.324,0,0,0-1.71669-5.35581,2.15209,2.15209,0,0,0-1.25546-.53861,2.994,2.994,0,0,0-2.54931,1.76459c-.12087.27174-.49316,1.23682.72631,3.98605C360.79422,163.16457,358.19246,170.4265,355.31841,169.903Z"/><path d="M383.40891,166.70366a.9664.9664,0,0,1-.26409.01454l-4.32624-.35287a3.88576,3.88576,0,0,1-2.64323-1.37948,1.1627,1.1627,0,0,1,.061-1.56306.98511.98511,0,0,1,1.45839.0732,1.86734,1.86734,0,0,0,1.2702.663l4.32624.35287a1.09073,1.09073,0,0,1,.9563,1.18716A1.07534,1.07534,0,0,1,383.40891,166.70366Z"/><path d="M315.44827,245.32777l25.19553,41.75189,12.45313-9.17639-7.88837-15.83952,48.69555,1.05743.71962-33.78247,6.80761,1.82164a8.57354,8.57354,0,0,0,9.31711-1.98272c6.92881-7.13,19.38836-19.28769,27.06421-48.38887L427.247,180.244l-22.84647,28.31379s-21.1542-26.97523-28.57006-27.87848c0,0,6.33731,31.05951-18.10522.71688,0,0-12.02692-2.31467-31.99523,29.90682-8.4245,13.60114-11.06134,21.99294-11.759,26.66271A11.06262,11.06262,0,0,0,315.44827,245.32777Zm20.23937-7.20256c1.04425-.0876,4.18208-4.33614,7.2962-8.96407l-1.1097,24.49693Z" fill="#ffba55"/><path d="M346.99636,354.54126a27.244,27.244,0,0,1-2.24963,2.00989,25.4215,25.4215,0,0,1-2.47852,1.74365,16.76865,16.76865,0,0,1-2.73047,1.39991,8.08368,8.08368,0,0,1-3.12378.65039l.50147-.82276a12.717,12.717,0,0,0,1.77063,2.24817,11.84961,11.84961,0,0,0,2.23059,1.81507,8.48457,8.48457,0,0,0,2.66016,1.09033,9.06463,9.06463,0,0,0,2.953.16369,7.82641,7.82641,0,0,1-3.0343.3711,7.99242,7.99242,0,0,1-2.9978-.87366,11.05543,11.05543,0,0,1-2.5459-1.82507,12.91014,12.91014,0,0,1-1.98963-2.442l-.54626-.87622,1.04785.05322a7.4145,7.4145,0,0,0,2.712-.5249,20.66967,20.66967,0,0,0,2.67309-1.17139C343.59585,356.64588,345.308,355.62464,346.99636,354.54126Z" fill="#5e7c24"/><path d="M384.80959,356.162a27.24718,27.24718,0,0,1-2.24963,2.01,25.42146,25.42146,0,0,1-2.47851,1.74353,16.7541,16.7541,0,0,1-2.73035,1.3999,8.08471,8.08471,0,0,1-3.1239.65052l.50146-.82288a12.72217,12.72217,0,0,0,1.77063,2.24829A11.84548,11.84548,0,0,0,378.73,365.2063a8.47994,8.47994,0,0,0,2.66,1.09034,9.058,9.058,0,0,0,2.953.16369,7.82412,7.82412,0,0,1-3.0343.3711,7.99023,7.99023,0,0,1-2.9978-.87366,11.05463,11.05463,0,0,1-2.5459-1.82507,12.90677,12.90677,0,0,1-1.98962-2.442l-.54627-.87622,1.04785.05322a7.41674,7.41674,0,0,0,2.712-.52478,20.66907,20.66907,0,0,0,2.67309-1.17139C381.4092,358.26673,383.12124,357.24549,384.80959,356.162Z" fill="#5e7c24"/><path d="M377.67312,285.89527c-.02441,2.5459-.1405,5.08716-.22327,7.631l-.40905,7.62183c-.313,5.07922-.74707,10.1499-1.21595,15.219-.56677,5.05884-1.10168,10.124-1.92883,15.15418-.87842,5.00073-1.66589,10.11035-3.69238,14.80615a33.4658,33.4658,0,0,0,1.02844-3.66358l.40747-1.85608.30933-1.87854c.22741-1.24707.43823-2.4967.60083-3.75659.17309-1.25732.37268-2.509.50842-3.77234.65051-5.03381,1.193-10.08569,1.67285-15.14294.55957-5.04993.97644-10.11536,1.46973-15.17481l.714-7.59338Z" fill="#5e7c24"/><path d="M350.38491,217.58069c-1.03467,1.84717-2.12951,3.65979-3.19421,5.49268l-3.29492,5.439c-1.085,1.82325-2.31556,3.55445-3.54432,5.291-.62255.8634-1.25732,1.71936-1.93688,2.55334-.34461.41517-.68714.82959-1.07605,1.22681a6.879,6.879,0,0,1-.62452.58557,2.6118,2.6118,0,0,1-.38781.2782,1.55455,1.55455,0,0,1-.24353.12927,2.69224,2.69224,0,0,1-.34888.0951l.46326-.749,2.35949,5.99292c.7627,2.00708,1.557,4.00171,2.29273,6.01953l2.23669,6.04163c.70593,2.02966,1.44776,4.045,2.12256,6.08691-.90845-1.94909-1.74988-3.92492-2.6272-5.88635l-2.52282-5.92773c-.85291-1.97119-1.64734-3.96558-2.47339-5.94739l-2.40662-5.97388-.0332-.08215.49646-.66712c.01025-.01367.01843-.01867.032-.01635a.70544.70544,0,0,0,.10449-.058,1.621,1.621,0,0,0,.25733-.18115,5.86309,5.86309,0,0,0,.53906-.4917c.35767-.35315.6969-.74975,1.03381-1.14343.67017-.79627,1.30994-1.631,1.938-2.47437,1.25269-1.691,2.46216-3.42175,3.65222-5.16723l3.54273-5.25989C347.956,221.05347,349.14016,219.29981,350.38491,217.58069Z" fill="#e6952a"/><path d="M319.269,233.65857c.40258,2.05188.68933,4.04371,1.25061,5.948a14.17949,14.17949,0,0,0,1.04,2.74756,8.81608,8.81608,0,0,0,1.79395,2.38233,5.217,5.217,0,0,1-2.52209-1.92676,8.99524,8.99524,0,0,1-1.36963-2.90137,12.845,12.845,0,0,1-.4773-3.12573A11.286,11.286,0,0,1,319.269,233.65857Z" fill="#e6952a"/><path d="M410.45632,220.30347a6.67618,6.67618,0,0,1-1.26428,2.323,7.83939,7.83939,0,0,1-2.02966,1.771,6.16928,6.16928,0,0,1-2.59387.8468,5.03185,5.03185,0,0,1-2.62842-.45349,12.41556,12.41556,0,0,0,2.47766-.392,9.0129,9.0129,0,0,0,2.18616-.94885A21.014,21.014,0,0,0,410.45632,220.30347Z" fill="#e6952a"/><path d="M404.39517,208.56275a25.39752,25.39752,0,0,1,2.06958,2.93323q.46271.72582.96276,1.38757a2.80843,2.80843,0,0,0,1.31141,1.03577,1.96676,1.96676,0,0,1-1.896-.40662,5.6258,5.6258,0,0,1-1.30176-1.41943A7.07072,7.07072,0,0,1,404.39517,208.56275Z" fill="#e6952a"/><path d="M335.69229,238.129c-.8324-.86316-1.50257-1.67187-2.26832-2.35827a8.49592,8.49592,0,0,0-1.21521-.90711,10.39468,10.39468,0,0,0-1.49719-.68677,2.86014,2.86014,0,0,1,1.814-.11157,4.07991,4.07991,0,0,1,1.63305.88684,5.03126,5.03126,0,0,1,1.08509,1.45105A3.94291,3.94291,0,0,1,335.69229,238.129Z" fill="#e6952a"/><path d="M388.8229,242.25574a14.15453,14.15453,0,0,1-2.042,4.49561,16.79634,16.79634,0,0,1-3.3396,3.70386,16.26869,16.26869,0,0,1-4.27124,2.57739,15.25447,15.25447,0,0,1-2.358.78467,22.36435,22.36435,0,0,1-2.43567.39685,35.10331,35.10331,0,0,0,4.4248-1.95716,22.32406,22.32406,0,0,0,3.9375-2.64807,23.2821,23.2821,0,0,0,3.35437-3.36633A26.82868,26.82868,0,0,0,388.8229,242.25574Z" fill="#e6952a"/><path d="M394.62393,229.33252c-.574-3.1051-.8656-6.2135-1.127-9.325-.23474-3.11548-.4281-6.21838-.45776-9.3739a46.885,46.885,0,0,1,1.55432,9.28723A57.1377,57.1377,0,0,1,394.62393,229.33252Z" fill="#e6952a"/><path d="M342.98379,229.16114a121.20069,121.20069,0,0,1-.00549,12.27331,119.75617,119.75617,0,0,1-1.10425,12.22364,119.75544,119.75544,0,0,1,.00549-12.27332A121.19911,121.19911,0,0,1,342.98379,229.16114Z" fill="#e6952a"/><path d="M351.50955,279.07207l1.66551,3.42026,2.4764.11218a4.32983,4.32983,0,0,1,3.90637,2.94029l2.59091,7.67355s.66381,4.32987-2.145,3.056a27.3442,27.3442,0,0,1-4.74206-6.80784l-9.55391,8.61172.3052-6.73746-3.717-5.47657Z" fill="#f9977a"/><path d="M362.79666,278.915a47.44553,47.44553,0,0,1-8.198,12.10071,43.28106,43.28106,0,0,1-5.40857,4.97559,32.49948,32.49948,0,0,1-6.25867,3.80945,66.175,66.175,0,0,0,5.71277-4.47254,68.11321,68.11321,0,0,0,5.146-5.05823c1.63635-1.76525,3.18859-3.61059,4.689-5.50354C359.9623,282.86048,361.42178,280.9275,362.79666,278.915Z" fill="#5e7c24"/><path d="M353.17506,282.49233l2.4764.11218a4.32983,4.32983,0,0,1,3.90637,2.94029l2.59091,7.67355s.66381,4.32987-2.145,3.056a27.3442,27.3442,0,0,1-4.74206-6.80784Z" fill="#f9977a"/><ellipse cx="361.55334" cy="160.8678" rx="1.27636" ry="2.26686"/><path d="M377.8832,187.01844c-6.04492,0-10.63965-1.87207-13.65918-5.56543-6.0664-7.4209-3.64257-19.43067-3.53711-19.9375l1.07813.22461c-.02539.11914-2.41992,12.00976,3.31445,19.01953,2.77344,3.3916,7.02637,5.126,12.64453,5.1582.42188-.89648,1.6045-4.09863-.18554-9.03613l1.03515-.375c2.31543,6.38769.0459,10.09961-.05175,10.25488l-.16114.25488-.30176.001C378.00039,187.01844,377.9418,187.01844,377.8832,187.01844Z"/><path d="M403.63711,235.73523c-5.13086,0-10.3584-2.94433-13.76367-6.42187-5.57813-5.69727-6.17383-14.33008-6.49414-18.96777-.07813-1.13282-.10645-2.251-.1377-3.54493-.05371-2.18554-.12109-4.90625-.457-9.3291-.26855-3.54687-2.668-6.873-4.10059-8.86035-.92089-1.27734-1.30175-1.80566-1.15527-2.2998l1.05469.3125a.30914.30914,0,0,0,.01172-.14844,10.045,10.045,0,0,0,.98144,1.49219c1.501,2.08105,4.0127,5.56543,4.30567,9.41992.33789,4.45215.40527,7.1875.459,9.38574.03223,1.28125.05957,2.3877.13574,3.49512.31055,4.498.88868,12.86718,6.1836,18.27539,2.97168,3.03515,9.74707,7.62988,16.28222,5.60449,8.14356-2.52539,11.33887-14.22754,11.5-21.47754a19.75713,19.75713,0,0,0-.25293-3.708,10.02522,10.02522,0,0,1,.06641-4.11816c.959-4.56836,3.60938-7.11133,6.416-9.80371a35.28634,35.28634,0,0,0,4.76562-5.25781c3.25-4.63086,4.75-10.71582,4.457-18.08594l1.09961-.043c.30274,7.61523-1.26367,13.92773-4.65625,18.76172a36.17487,36.17487,0,0,1-4.9043,5.41992c-2.79589,2.68262-5.21191,4.999-6.10156,9.23535a8.916,8.916,0,0,0-.05371,3.73145,20.852,20.852,0,0,1,.26367,3.89258c-.168,7.56835-3.57519,19.80664-12.27343,22.5039A12.223,12.223,0,0,1,403.63711,235.73523Z"/><path d="M158.726,462.98035H106.73867V280.93543H158.726Zm-50.02832-1.959H156.767v-178.127H108.69766Z"/><path d="M208.7543,462.98035H156.767V280.93543H208.7543Zm-50.02832-1.959h48.06933v-178.127H158.726Z"/><path d="M258.44473,462.98035H206.45645V280.93543h51.98828Zm-50.0293-1.959h48.07031v-178.127H208.41543Z"/><path d="M308.47305,462.98035H256.48574V280.93543h51.98731Zm-50.02832-1.959h48.06933v-178.127H258.44473Z"/><path d="M358.2543,462.98035H306.266V280.93543H358.2543Zm-50.0293-1.959h48.07031v-178.127H308.225Z"/><path d="M408.28262,462.98035H356.29531V280.93543h51.98731Zm-50.02832-1.959h48.06933v-178.127H358.2543Z"/><path d="M457.97207,462.98035h-51.9873V280.93543h51.9873Zm-50.02832-1.959h48.06934v-178.127H407.94375Z"/><path d="M508.00039,462.98035h-51.9873V280.93543h51.9873Zm-50.02832-1.959h48.06934v-178.127H457.97207Z"/><path d="M557.79434,462.98035H505.807V280.93543h51.98731Zm-50.02832-1.959h48.06933v-178.127H507.766Z"/><path d="M607.82266,462.98035H555.83535V280.93543h51.98731Zm-50.02832-1.959h48.06933v-178.127H557.79434Z"/></svg>