<svg xmlns="http://www.w3.org/2000/svg" viewBox="0 0 502 309.7637"><title>Asset 6</title><g id="Layer_2" data-name="Layer 2"><g id="Layer_1-2" data-name="Layer 1"><path d="M90.33228,186.36176c12.24444,66.9315,153.59449,176.95771,201.31,88.41861,25.11638-46.60523,99.58158-113.91917,156.96832-153.96215C504.4111,81.88175,346.23683,14.30052,247.301,32.39984S78.08784,119.43025,90.33228,186.36176Z" fill="#f9e0c0"/><path d="M72.02512,188.16425C58.57,114.6164,135.97531,38.61835,244.574,18.75116c39.52929-7.23144,92.73437-2.28418,142.32812,13.23438,47.35645,14.81836,81.80664,36.08984,89.90527,55.51269,4.57325,10.96387.84961,20.73926-11.06445,29.05274l-.51367-.73438c11.52246-8.04,15.13965-17.45117,10.752-27.97363-8.001-19.18555-42.23633-40.26074-89.34668-55.002-49.46-15.47754-102.50488-20.415-141.89844-13.209C136.62277,39.41034,59.54074,114.94159,72.906,188.00214Z" fill="#f4c5a2"/><path d="M426.4177,250.87207l17.06074,8.06045s-2.50912,10.59154-15.69264,9.44185l-9.40555-5.79516Z" fill="#f9977a"/><path d="M434.42856,254.69131s13.43868-.58937,15.68529,6.825a2.58985,2.58985,0,0,1-.40844,2.28338l-24.77992,33.51289a1.35878,1.35878,0,0,1-2.01561.18394c-1.60187-1.46735,4.29819-15.72838,3.29154-28.4386C426.20142,269.05788,436.50317,261.06765,434.42856,254.69131Z" fill="#935b50"/><path d="M376.27373,282.33449l3.56159,18.52984s-10.03117,4.22519-16.88349-7.09615l-.8725-11.013Z" fill="#f9977a"/><path d="M377.91825,291.0555s8.40682,10.501,3.74724,16.69032a2.58988,2.58988,0,0,1-2.08439,1.01784l-41.67861-.22627a1.35877,1.35877,0,0,1-1.338-1.5186c.2392-2.15915,15.2339-5.8125,24.90055-14.12627C361.465,292.89252,373.9951,296.49339,377.91825,291.0555Z" fill="#935b50"/><path d="M383.97552,3.71824a18.61814,18.61814,0,0,0-8.69628.74541c-1.3118.46512-6.10959,2.16617-8.44808,6.70864-.88818,1.72512-1.08887,3.80041-1.49075,7.951-.251,2.59252-1.24946,4.4493-1.24794,7.61129a26.71354,26.71354,0,0,0,1.24794,7.54526c1.1627,3.82246.414,5.99413.99384,6.70864,2.33671,2.87968,9.43063.62023,9.53718,4.37792.06578,2.32028-3.8503,12.337-3.77036,15.0552.1863,6.33413,10.76407-.29475,17.09232-9.74286.2872-.4288,4.61328-2.96121,4.16059-7.065-.24188-2.19231-2.10317-12.47908-1.92447-13.80632.64629-4.79718,3.06364-5.38221,4.96941-11.18106a9.0199,9.0199,0,0,0-1.49078-8.69639A18.42437,18.42437,0,0,0,383.97552,3.71824Z" fill="#f9977a"/><ellipse cx="366.33797" cy="23.19193" rx="0.97407" ry="1.21128" fill="#0a0709"/><ellipse cx="375.12055" cy="23.19193" rx="0.97407" ry="1.21128" fill="#0a0709"/><path d="M370.97043,21.02362a.611.611,0,0,1-.334-.09961,5.20358,5.20358,0,0,0-5.87989-.02343.61475.61475,0,0,1-.73926-.98243,6.52591,6.52591,0,0,1,7.28907-.02539.61515.61515,0,0,1-.33594,1.13086Z" fill="#1e1d22"/><path d="M380.073,21.02362a.611.611,0,0,1-.334-.09961,5.25581,5.25581,0,0,0-5.87988-.02539.61426.61426,0,1,1-.74023-.98047,6.52771,6.52771,0,0,1,7.29-.02539.61515.61515,0,0,1-.33594,1.13086Z" fill="#1e1d22"/><path d="M371.80759,21.27356a4.592,4.592,0,0,1-.11206,3.11884,10.019,10.019,0,0,1-1.488,2.7807l-.50854.57886a.6349.6349,0,0,0-.20435.44793,1.58086,1.58086,0,0,0,.56519,1.06116,3.90845,3.90845,0,0,0,2.74023.74036,3.42475,3.42475,0,0,1-3.12427-.27192,2.10117,2.10117,0,0,1-.91626-1.52166,1.36527,1.36527,0,0,1,.355-.93927l.491-.58454a14.19809,14.19809,0,0,0,1.53784-2.53491A5.88317,5.88317,0,0,0,371.80759,21.27356Z" fill="#dd765e"/><path d="M387.768,21.68341a1.728,1.728,0,0,1,1.15332.05872,2.82985,2.82985,0,0,1,.97485.63129,3.31015,3.31015,0,0,1,.65454.932,2.8502,2.8502,0,0,1,.27124,1.09778,9.02256,9.02256,0,0,1-.77466-.76111c-.24511-.24066-.45459-.49768-.6958-.71618a8.9669,8.9669,0,0,0-.71972-.65448A5.9414,5.9414,0,0,0,387.768,21.68341Z" fill="#dd765e"/><path d="M388.55954,26.73456a2.92873,2.92873,0,0,1-.56006-2.3454,3.16184,3.16184,0,0,1,.43384-1.16369,2.58477,2.58477,0,0,1,.86182-.87287,19.58029,19.58029,0,0,0-.53,2.16211A18.8293,18.8293,0,0,0,388.55954,26.73456Z" fill="#dd765e"/><path d="M385.65741,28.49738a9.48671,9.48671,0,0,1,.6339-4.03375c.69512-1.77236,1.548-4.18726,3.28159-4.348,1.27735-.11844,1.79052-.45567,2.25046.77713.76005,2.03944-.56049,4.28923-1.47982,5.85626-1.31632,2.2422-2.434,2.73172-2.45435,4.283-.01565,1.18342,3.36275,3.585,4.00308,3.12287,1.30531-.94213.59064-3.76552,4.15219-10.48469,2.24925-4.24286,3.2834-5.03879,3.54383-7.68743.09241-.94044.475-4.83387-1.86822-7.09829-1.08691-1.05031-1.705-.73032-6.431-2.73158a38.976,38.976,0,0,1-3.84324-1.77176c-3.76445-2.05634-3.68067-3.11407-5.88349-3.74027-1.99-.56559-2.108.284-5.90785.059C371.99092.48309,371.666-.33257,369.97234.15043c-2.94053.83846-4.35281,3.97916-4.73206,4.82306a10.12024,10.12024,0,0,0-1.13464,4.72958,9.12994,9.12994,0,0,0,1.78682,4.60275c.47764.48656,2.41469-2.31807,3.47024-3.37318,1.035-1.03371,2.21078-.61044,3.813-.51082,1.56218.09714,1.47673,1.07009,3.78738,1.92431.82327.30432,4.12232-1.17362,5.18712.65218,1.13454,1.94535,2.01668,2.18106,1.484,3.99122-.33283,1.1309-.12687,2.5203.285,5.29927.29537,1.99429-1.31819,8.96015-1.31819,8.96015C382.00378,32.47,385.841,31.56432,385.65741,28.49738Z" fill="#1e1d22"/><path d="M374.822,34.28208s-3.83625,3.578-7.26673,0" fill="#0a0709"/><path d="M363.69747,140.74343,355.873,213.3996l1.863,75.26434H378.2287l4.84375-46.57447,35.39659,25.7091,10.43268-18.25719-36.51438-33.161,7.82451-40.61293,7.1884-13.65795a29.95323,29.95323,0,0,0,3.36815-16.12321l-.86906-11.94956Z" fill="#376f92"/><path d="M366.67819,145.95978l-.57617,13.22937-.64429,13.22595-1.29248,26.45154-.71875,13.22205-.3601,6.611a15.84006,15.84006,0,0,0,.782,6.46667,15.63955,15.63955,0,0,0,3.38379,5.57007c1.47119,1.64063,3.00537,3.22534,4.62256,4.72107a38.92385,38.92385,0,0,0,5.14306,4.13574,14.28014,14.28014,0,0,0,6.05469,2.49622,14.333,14.333,0,0,1-6.113-2.406,39.06284,39.06284,0,0,1-5.23-4.06775c-1.636-1.48791-3.18091-3.07226-4.6665-4.70837a15.91984,15.91984,0,0,1-3.47046-5.64478,16.16329,16.16329,0,0,1-.83472-6.57983l.323-6.61291.647-13.22571,1.43921-26.444.72168-13.22193Z" fill="#10394f"/><path d="M386.05319,217.12555a10.23608,10.23608,0,0,0,1.65039.464,5.97043,5.97043,0,0,0,1.66065.10364,4.186,4.186,0,0,0,1.59326-.39588,6.40164,6.40164,0,0,0,1.42993-.917,3.89188,3.89188,0,0,1-1.27441,1.21692,3.99566,3.99566,0,0,1-1.71655.53333A5.14075,5.14075,0,0,1,386.05319,217.12555Z" fill="#10394f"/><path d="M374.11326,52.31337S367.48663,72.01861,393.219,42.611l11.36809,9.27745a13.76571,13.76571,0,0,1,4.6511,7.63294l8.48566,38.5598H407.38432l2.515,35.95549-48.484,7.07932S361.39843,91.71537,374.11326,52.31337Z" fill="#f73c4f"/><path d="M367.70285,130.77655c.875-.51147,1.7666-.97595,2.645-1.46289l2.57861-1.54724a43.53453,43.53453,0,0,0,4.79786-3.56348,26.81105,26.81105,0,0,0,4.08642-4.31579,18.35481,18.35481,0,0,0,1.57056-2.5293,11.3398,11.3398,0,0,0,1.08838-2.78931,12.85422,12.85422,0,0,1-2.16822,5.65857,21.65838,21.65838,0,0,1-4.06884,4.56189,30.80929,30.80929,0,0,1-5.001,3.48743l-2.71191,1.37427C369.57736,130.02667,368.64865,130.425,367.70285,130.77655Z" fill="#b02336"/><path d="M395.1361,98.71754l3.30585,18.366-12.71512,30.18035-5.65806,5.30956a28.32223,28.32223,0,0,0,6.89747,14.38491s3.791-6.97973,3.51166-14.24524l23.039-26.54911a17.15577,17.15577,0,0,0,3.9771-13.99016l-2.28513-14.09268S401.89069,93.206,395.1361,98.71754Z" fill="#f9977a"/><path d="M396.76534,49.73693s-13.80886,1.95613-10.53724,21.23795S391.246,98.91956,391.246,98.91956l26.47784-.83834" fill="#f73c4f"/><path d="M396.76535,49.73694a13.07423,13.07423,0,0,0-5.98218,3.11963,13.75488,13.75488,0,0,0-3.66235,5.60138,18.65716,18.65716,0,0,0-.83765,3.26923c-.0874.55615-.102,1.12457-.157,1.68554a11.1675,11.1675,0,0,0-.07251,1.69019,41.14476,41.14476,0,0,0,.68042,6.75567L389.20188,85.347l2.3767,13.50543-.34326-.272c4.41309-.13971,8.82837-.20075,13.24268-.304,4.41406-.10394,8.83056-.12756,13.24585-.19525-4.41065.21173-8.82007.46753-13.23169.64307-4.41187.1762-8.82227.39465-13.23535.53436l-.29175.00922-.05176-.28138-2.47217-13.49792L386.06,71.9737a37.27825,37.27825,0,0,1-.60571-6.879,11.605,11.605,0,0,1,.11035-1.72949c.06811-.57453.09619-1.15394.19775-1.723a19.145,19.145,0,0,1,.93091-3.34356A13.36241,13.36241,0,0,1,396.76535,49.73694Z" fill="#b02336"/><path d="M378.94357,146.57379a35.74344,35.74344,0,0,0,.6211,3.7616c.2456,1.24365.56006,2.47156.92334,3.68225a36.98819,36.98819,0,0,0,2.84033,6.993,27.21626,27.21626,0,0,0,4.32983,6.14295l1.31446,1.35852,1.458,1.20593.72706.61267.792.52356q.79578.52,1.58569,1.06653A22.24173,22.24173,0,0,1,387.2302,167.57a25.6683,25.6683,0,0,1-4.58643-6.19544,33.67189,33.67189,0,0,1-2.72925-7.20056A31.06169,31.06169,0,0,1,378.94357,146.57379Z" fill="#10394f"/><path d="M380.5009,40.47188c-3.18039,2.23548-9.31224,2.13921-9.31224,2.13921l-.01847.14289c2.38358.29,4.64143.50486,4.70122,2.61224a15.13323,15.13323,0,0,1-.717,3.46845C379.32081,46.44037,380.5009,40.47188,380.5009,40.47188Z" fill="#dd765e"/><polygon points="467.831 304.635 467.831 205.194 470.527 205.194 470.527 202.441 467.831 202.441 467.831 194.871 464.964 194.871 464.964 202.441 462.269 202.441 462.269 205.194 464.964 205.194 464.964 304.635 450.398 304.635 450.398 308.764 482.398 308.764 482.398 304.635 467.831 304.635" fill="#ffba55"/><path d="M480.34445,187.82147a.4989.4989,0,0,1-.41992-.22851q-.24756-.38232-.51074-.77051a.5.5,0,1,1,.82812-.56055q.26808.397.52247.78809a.5.5,0,0,1-.41993.77148Z" fill="#f65b2b"/><path d="M485.54074,244.424a.50163.50163,0,0,1-.39844-.19726c-.38085-.50293-.74511-1.02637-1.082-1.55567a.5001.5001,0,0,1,.84375-.53711c.32227.50684.66993,1.00782,1.03516,1.48731a.4999.4999,0,0,1-.39844.80273Zm-1.98242-3.127a.50076.50076,0,0,1-.44336-.26855q-.15087-.28859-.2959-.59082c-.16015-.335-.33105-.71094-.50195-1.13868a.50051.50051,0,0,1,.92969-.37109c.16113.4043.32226.76074.47363,1.07617.0918.18945.18457.377.28125.56152a.4999.4999,0,0,1-.44336.73145Zm-1.37109-3.4375a.50017.50017,0,0,1-.48145-.36523c-.166-.59571-.31055-1.2168-.42773-1.84864a.49971.49971,0,0,1,.98242-.18359c.1123.60351.25,1.19629.4082,1.76269a.5001.5001,0,0,1-.48144.63477Zm-.68946-3.63867a.499.499,0,0,1-.49609-.44629c-.06348-.584-.11426-1.209-.14648-1.87695a.49863.49863,0,0,1,.4746-.52344.49122.49122,0,0,1,.52344.47461c.03223.64648.08106,1.252.14258,1.81836a.50029.50029,0,0,1-.498.55371Zm-.18457-3.70117h-.002a.50036.50036,0,0,1-.498-.502q.00294-.89355.04688-1.874a.47484.47484,0,0,1,.52148-.47656.49854.49854,0,0,1,.47657.52148q-.0425.96094-.04493,1.833A.49992.49992,0,0,1,481.3132,230.51972Zm.166-3.70215c-.01465,0-.02832-.001-.042-.002a.49933.49933,0,0,1-.457-.53906q.07323-.89647.18359-1.86133a.50889.50889,0,0,1,.55371-.44043.501.501,0,0,1,.44043.55372c-.07324.63378-.13281,1.24218-.18164,1.83007A.49953.49953,0,0,1,481.47922,226.81757Zm.41992-3.68457a.59639.59639,0,0,1-.07129-.00489.5.5,0,0,1-.4248-.56542q.13915-.97853.291-1.84571a.49083.49083,0,0,1,.57813-.40625.499.499,0,0,1,.40625.57813c-.09864.56933-.19434,1.17187-.28516,1.81445A.49993.49993,0,0,1,481.89914,223.133Zm.63574-3.64844a.45761.45761,0,0,1-.10254-.01074.49869.49869,0,0,1-.38769-.59082c.13574-.65821.27734-1.26367.4209-1.82617a.49976.49976,0,0,1,.96875.24609c-.13965.54883-.27735,1.14062-.41114,1.7832A.49937.49937,0,0,1,482.53488,219.48456Zm.91309-3.58789a.477.477,0,0,1-.14649-.02246.49834.49834,0,0,1-.33105-.624c.19824-.64747.39551-1.23145.58789-1.77735a.50037.50037,0,1,1,.94336.334c-.18848.53222-.38184,1.10449-.57617,1.73632A.49975.49975,0,0,1,483.448,215.89667Zm1.21582-3.49609a.49974.49974,0,0,1-.46973-.67188c.21387-.582.41309-1.14355.58985-1.72461a.50015.50015,0,1,1,.957.291c-.18262.59863-.3877,1.17773-.60742,1.77734A.49939.49939,0,0,1,484.66379,212.40058Zm1.04883-3.54395a.52876.52876,0,0,1-.09571-.00879.50114.50114,0,0,1-.39648-.58594,17.87,17.87,0,0,0,.25-1.7832.51681.51681,0,0,1,.54395-.45215.50042.50042,0,0,1,.45214.544c-.06152.66308-.14746,1.27832-.26367,1.88086A.50075.50075,0,0,1,485.71262,208.85663Zm.34961-3.68164h-.00489a.50035.50035,0,0,1-.49511-.50488l.002-.27149c0-.49218-.01563-1.00683-.05078-1.543a.501.501,0,0,1,.46582-.53222.48469.48469,0,0,1,.53223.46582c.0371.55957.05273,1.0957.05273,1.60937l-.002.28125A.50058.50058,0,0,1,486.06223,205.175Zm-.24121-3.69531a.49994.49994,0,0,1-.49414-.43067c-.08106-.57715-.18555-1.1748-.31739-1.791a.50069.50069,0,0,1,.38477-.59375.507.507,0,0,1,.59375.38476c.13574.6416.24414,1.26075.3291,1.86133a.5.5,0,0,1-.42578.56445A.56717.56717,0,0,1,485.821,201.47968Zm-.76856-3.625a.50128.50128,0,0,1-.48144-.36328q-.24024-.84961-.55079-1.73829a.5.5,0,0,1,.94336-.332c.21582.61426.4043,1.21289.57032,1.79688a.50136.50136,0,0,1-.34473.61816A.5118.5118,0,0,1,485.05246,197.85468Zm-1.22266-3.49805a.50018.50018,0,0,1-.46191-.30859q-.33984-.8174-.74414-1.66895a.49971.49971,0,0,1,.90234-.42969q.41748.87452.76563,1.71582a.50072.50072,0,0,1-.27051.65332A.4886.4886,0,0,1,483.8298,194.35663ZM482.23605,191.01a.49945.49945,0,0,1-.44042-.26367q-.42187-.78369-.90137-1.59473a.49959.49959,0,1,1,.85937-.50976q.49219.82763.92285,1.63183a.50012.50012,0,0,1-.44043.73633Z" fill="#f65b2b"/><path d="M487.39816,246.56854a.49672.49672,0,0,1-.35644-.14941q-.31054-.31641-.6543-.69336a.50056.50056,0,1,1,.74219-.67187q.32813.36327.625.66406a.5.5,0,0,1-.35645.85058Z" fill="#f65b2b"/><rect x="441.79554" y="163.15042" width="49.20446" height="33.72054" fill="#7ca1b1"/><polyline points="215.357 115.043 204.321 166.544 153.783 166.544" fill="none" stroke="#dbd8d7" stroke-linecap="round" stroke-linejoin="round" stroke-width="5.89349"/><polygon points="116.895 280.922 115.15 296.212 133.9 298.352 132.996 285.176 116.895 280.922" fill="#f9977a"/><polygon points="163.869 280.354 168.769 294.942 186.659 288.933 180.254 277.382 163.869 280.354" fill="#f9977a"/><path d="M38.394,180.44831l-1.38311,18.32252c-1.29794,17.1942,12.39242,30.42568,29.606,29.41649,19.93347-1.16865,44.09445-2.41867,54.81242-7.43933l-6.23753,62.65675,18.5246,2.128,10.433-40.991,20.08023,42.405L184.2216,279.086l-29.30085-76.64558s6.94286-21.18271-18.58623-25.81-47.94822,5.22393-47.94822,5.22393Z" fill="#8b9d36"/><path d="M88.38632,181.85431a138.8857,138.8857,0,0,1,19.213-2.14856,112.74664,112.74664,0,0,1,19.358.72119,68.76078,68.76078,0,0,1,9.50586,2.0365,35.37431,35.37431,0,0,1,8.91272,3.92481,21.31224,21.31224,0,0,1,6.921,6.80139,18.96866,18.96866,0,0,1,2.62378,9.25085,19.41308,19.41308,0,0,0-3.03833-8.98938,20.76793,20.76793,0,0,0-6.90943-6.40759c-5.48132-3.26013-11.843-4.7428-18.152-5.62707a120.73124,120.73124,0,0,0-19.1969-.94544c-3.21155.05615-6.4231.21521-9.6294.45715C94.78549,181.14289,91.5831,181.46027,88.38632,181.85431Z" fill="#5e7c24"/><path d="M121.42929,220.748c1.53552-.56165,3.07593-1.09949,4.58594-1.71045a28.21261,28.21261,0,0,0,4.3833-2.00525l.33887-.20923.19385.36243c1.19409,2.23352,2.34912,4.48657,3.488,6.74756,1.1482,2.25634,2.26233,4.52978,3.37793,6.80249q1.66187,3.41474,3.24756,6.86743,1.61609,3.43762,3.10449,6.93884-1.892-3.30011-3.67285-6.65552-1.80231-3.34459-3.52966-6.7268c-1.14356-2.25879-2.28845-4.51673-3.39942-6.79175-1.12011-2.27039-2.22424-4.54883-3.28918-6.84668l.53235.15308a16.48556,16.48556,0,0,1-2.28784,1.01611c-.77246.28589-1.54627.55847-2.33033.79675C124.60031,219.95038,123.02731,220.39667,121.42929,220.748Z" fill="#5e7c24"/><path d="M137.83676,196.383a20.88059,20.88059,0,0,0,3.58789,3.56274,20.27948,20.27948,0,0,0,4.25,2.59595,11.549,11.549,0,0,0,1.1471.48389,9.97891,9.97891,0,0,0,1.17419.41748l1.1947.37,1.22425.27027c.813.21838,1.65454.26684,2.49048.41064.83972.12146,1.68908.11572,2.54858.22546-.84644.11658-1.70618.22058-2.5697.26429a17.42317,17.42317,0,0,1-2.59656-.1305,16.63821,16.63821,0,0,1-5.03076-1.40356,16.0428,16.0428,0,0,1-4.3396-2.915A13.33147,13.33147,0,0,1,137.83676,196.383Z" fill="#5e7c24"/><path d="M121.46225,284.12506c.55676-5.59228,1.222-11.16967,1.90381-16.74487.67944-5.57544,1.448-11.13879,2.1676-16.70874.79981-5.55908,1.55689-11.1239,2.39685-16.67749l1.27967-8.32751c.46289-2.77088.8916-5.54651,1.3844-8.31324-.26819,2.79749-.60047,5.58618-.89869,8.37964l-1.00329,8.36536c-.68213,5.57519-1.447,11.13891-2.16931,16.70862-.80249,5.55859-1.556,11.124-2.39856,16.67712C123.28439,273.03742,122.42771,278.58869,121.46225,284.12506Z" fill="#5e7c24"/><path d="M171.28366,284.17316c-3.4126-6.20361-6.72766-12.45728-10.028-18.71851l-9.7909-18.83984-9.58508-18.94556-4.71948-9.51025c-1.54065-3.18677-3.11194-6.35779-4.62561-9.55835,1.71545,3.097,3.37329,6.22375,5.06177,9.33472l4.96777,9.38293,9.78943,18.8407,9.58349,18.94629C165.09494,271.43952,168.23813,277.78131,171.28366,284.17316Z" fill="#5e7c24"/><path d="M85.96331,104.82389s22.91907,23.30373,24.34094,32.048l-9.74706,9.04268" fill="#376f92"/><path d="M89.61416,124.66715c9.01872-4.5479-4.71835-21.91543-4.71835-21.91543l-.14742-.58429a.73239.73239,0,0,1,.73488-.94193c1.96855.19293,6.00836.13735,4.53747-3.87032a3.80385,3.80385,0,0,1,.95672-3.084,1.07132,1.07132,0,0,0-.13189-1.56889A10.08282,10.08282,0,0,1,87.915,89.68188a.71577.71577,0,0,1,.65174-1.06313l3.79774.37137a.56532.56532,0,0,0,.58305-.67763l-.08507-.5274a.61537.61537,0,0,1,.48213-.71827l1.29592-.21132a1.48676,1.48676,0,0,0,1.04287-2.06865L93.48663,79.605a4.35617,4.35617,0,0,1-.175-2.87856c.79031-2.79124,2.84869-2.002,1.3472-8.26431,0,0-6.45889-7.65609-19.8557,1.91819,0,0,.58693-.62993-5.74387,5.26518,0,0-2.47431,2.19405-1.16772,9.48837,0,0-3.74564,10.28708-.1507,15.88662C67.74088,101.02053,80.59545,129.21505,89.61416,124.66715Z" fill="#f9977a"/><path d="M68.74791,87.41975s1.8684,27.43676,16.63654,15.74126h0c-.29524-.2616-.48864-.40929-.48864-.40929l-.14741-.58429a.73238.73238,0,0,1,.73483-.94193c.12694.01243.26307.02369.40518.033L85.9569,101C71.42325,102.192,68.74791,87.41975,68.74791,87.41975Z" fill="#dd765e"/><path d="M85.41549,77.08476a.52321.52321,0,0,1-.54682-.26738.59583.59583,0,0,1,.17632-.7864,19.45826,19.45826,0,0,1,8.286-2.80232.574.574,0,0,1,.07742,1.1426,18.8201,18.8201,0,0,0-7.80529,2.63847A.51068.51068,0,0,1,85.41549,77.08476Z"/><path d="M88.19541,78.299a3.12676,3.12676,0,0,1,.89343-.6839,3.96282,3.96282,0,0,1,1.06262-.39068A3.03057,3.03057,0,0,1,92.364,77.54c-.3822.02216-.73.0119-1.07775.05878-.34485.05-.68494.08423-1.02161.16662C89.58457,77.901,88.92294,78.10559,88.19541,78.299Z" fill="#350500"/><ellipse cx="90.86135" cy="78.6537" rx="0.67389" ry="1.25803" transform="matrix(0.9885, -0.15122, 0.15122, 0.9885, -10.84921, 14.6447)" fill="#050505"/><path d="M69.01344,79.38181a6.65683,6.65683,0,0,1,2.39734-.66916,2.44162,2.44162,0,0,1,1.13317.25165,4.61265,4.61265,0,0,1,1.04068.75411,2.45826,2.45826,0,0,0-.83412-1.14148,2.19393,2.19393,0,0,0-1.34765-.43658,3.0213,3.0213,0,0,0-1.33333.36733A3.23781,3.23781,0,0,0,69.01344,79.38181Z" fill="#dd765e"/><path d="M69.71977,83.76077a3.60107,3.60107,0,0,0,1.07862-.982,4.71023,4.71023,0,0,0,.70265-1.34316,5.91911,5.91911,0,0,0,.18522-.75262,4.653,4.653,0,0,0,.03986-.77631,3.79386,3.79386,0,0,0-.33131-1.48162A12.60044,12.60044,0,0,1,71.31,79.88237a6.53119,6.53119,0,0,1-.3121,1.3601A10.39628,10.39628,0,0,1,69.71977,83.76077Z" fill="#dd765e"/><path d="M64.476,92.25886c-3.40916-.66695-4.68747-6.4992-5.93023-12.16927a29.87776,29.87776,0,0,1-.564-12.80264c.61275-3.19313,1.20615-6.28543,3.71161-9.08941,3.48105-3.89577,8.33833-4.64444,12.21242-5.24158,4.33642-.66839,7.80269-1.20266,11.14291.61182,3.5404,1.92323,4.44573,1.5455,6.71824,4.49847.78335,1.01791,3.78675,1.23893,5.47174,2.31656.33594.21485,2.28462,1.46112,2.14838,2.61-.05874.49538-.81938,4.60647-7.83678,6.0124-4.05083.81158-5.37068.31946-7.27592,1.34838-4.19638,2.26625-6.68858.76008-7.62971.99437-1.13277.282.08333,1.86135.84715,4.54473A30.53456,30.53456,0,0,1,78.539,82.09589c.266,3.29051-.17851,4.06757.4739,6.39888a7.671,7.671,0,0,0,1.84436,3.74414c1.383,1.37163,3.13461,1.67772,5.5322,2.06463,4.163.67177,4.41152-.639,4.94183.34855.53061.9881-.08808,4.48849-1.06676,5.37863-2.70351,2.45892-6.03895,1.14488-8.32987.9586-3.09374-.25156-9.859-3.189-10.02337-7.25914-.08834-2.187,1.1872-7.84661,1.99383-11.17328a5.51094,5.51094,0,0,0-1.70467-5.56654,2.22768,2.22768,0,0,0-1.29219-.5744A3.0992,3.0992,0,0,0,68.24586,78.208c-.12876.27962-.52709,1.2735.69806,4.13546C70.23443,85.35818,67.44371,92.83945,64.476,92.25886Z"/><path d="M93.59363,89.32589a1.00083,1.00083,0,0,1-.27355.01149l-4.473-.42351a4.02221,4.02221,0,0,1-2.71724-1.46341,1.20354,1.20354,0,0,1,.08415-1.617,1.01972,1.01972,0,0,1,1.5085.09542,1.93293,1.93293,0,0,0,1.30576.7033l4.473.42351a1.129,1.129,0,0,1,.97381,1.24163A1.11311,1.11311,0,0,1,93.59363,89.32589Z"/><path d="M116.38418,308.67767l37.12019-1.58427,2.15536-4.9637a1.40575,1.40575,0,0,0-.49418-2.35384L132.27371,291.745s-8.46641,6.22763-16.501,2.60554C115.77271,294.35058,110.17977,305.394,116.38418,308.67767Z" fill="#d6694b"/><path d="M174.22649,303.5137l32.94361-15.07439-.14666-7.50446a1.40575,1.40575,0,0,0-1.44533-1.92244l-24.13766,2.42982s-3.02862,14.45165-13.84079,9.35437C167.59966,290.7966,167.21516,303.16958,174.22649,303.5137Z" fill="#d6694b"/><path d="M133.09607,130.20553s4.36526-1.57325,9.20194-10.59221,7.68172-16.63217,2.91087-11.22044l-3.56727,4.18412s.51156-8.21231,1.2448-13.078a6.09323,6.09323,0,0,0-3.2954-6.45812c-2.21379-1.04189-4.06771-.4-5.9949,5.0269-2.88237,8.11669-4.17377,12.48652-4.29894,14.69889-.04336.76646.15749,9.09462.15749,9.09462Z" fill="#f9977a"/><path d="M140.93576,117.50971a10.23177,10.23177,0,0,1,.10327-2.50428,11.94468,11.94468,0,0,1,.60254-2.42846,7.121,7.121,0,0,1,.01721,2.52112A8.05215,8.05215,0,0,1,140.93576,117.50971Z" fill="#dd765e"/><path d="M139.07993,106.98a31.24724,31.24724,0,0,1,.75879-6.10107,19.56488,19.56488,0,0,1,2.103-5.77972c-.31628.97882-.557,1.96441-.8081,2.94738-.24256.985-.46619,1.97547-.683,2.96778C140.00266,102.99738,139.60007,104.99054,139.07993,106.98Z" fill="#dd765e"/><path d="M136.25144,105.88092a28.18482,28.18482,0,0,1,.60156-6.71136,19.54655,19.54655,0,0,1,.95935-3.25238A7.9419,7.9419,0,0,1,139.591,93.0409a11.56739,11.56739,0,0,0-1.31751,3.03991c-.31787,1.05677-.5896,2.13037-.80749,3.21851C137.00119,101.47009,136.65842,103.66913,136.25144,105.88092Z" fill="#dd765e"/><path d="M133.86655,104.2276a21.87453,21.87453,0,0,1,.43677-5.61621,16.64294,16.64294,0,0,1,1.942-5.28979c-.52637,1.8081-.96264,3.59423-1.328,5.41491C134.54367,100.55341,134.2341,102.38092,133.86655,104.2276Z" fill="#dd765e"/><path d="M67.74088,101.02053s-17.19752,5.6068-22.279,22.73036a181.318,181.318,0,0,0-7.58806,59.94157S73.68705,197.665,88.3863,181.85435c0,0,20.39279-55.671-1.47792-77.09975C86.90838,104.7546,102.74066,141.78625,67.74088,101.02053Z" fill="#376f92"/><path d="M63.15915,132.78119a85.03079,85.03079,0,0,0,7.3302,11.03723,42.8941,42.8941,0,0,0,4.42749,4.87781,23.16742,23.16742,0,0,0,5.26135,3.79724l-.49072.07605,9.81567-9.35522,9.89783-9.26807-.02771.61072c-2.96826-3.33191-5.9425-6.67407-9.04565-9.88648-1.55713-1.60034-3.12207-3.1947-4.75122-4.72009-.81739-.759-1.64954-1.50366-2.525-2.19324a16.45259,16.45259,0,0,0-1.358-.97046,3.23766,3.23766,0,0,0-1.53381-.60669,3.281,3.281,0,0,1,1.58435.51966,13.4098,13.4098,0,0,1,1.42126.90539c.91284.655,1.78223,1.36573,2.63745,2.09143,1.71118,1.45154,3.34485,2.98914,4.941,4.56177,3.18921,3.14978,6.30408,6.36878,9.28931,9.71655l.28174.316-.30957.29493-9.8169,9.35376-9.89929,9.26672-.22412.20984-.267-.13367a21.76686,21.76686,0,0,1-5.40735-4.0376,43.55721,43.55721,0,0,1-4.36059-5.07275,59.97679,59.97679,0,0,1-3.70008-5.54358C65.19162,136.72321,64.108,134.78485,63.15915,132.78119Z" fill="#10394f"/><path d="M70.09238,181.20014c1.57153-.91114,3.06592-1.91407,4.52783-2.94629a46.84368,46.84368,0,0,0,4.16284-3.35791,33.17378,33.17378,0,0,0,3.65894-3.871,32.29626,32.29626,0,0,0,2.97168-4.48121,17.81875,17.81875,0,0,1-2.34253,4.94288,23.09859,23.09859,0,0,1-3.61511,4.14819A26.73549,26.73549,0,0,1,70.09238,181.20014Z" fill="#10394f"/><path d="M69.04624,187.26264a44.33427,44.33427,0,0,0,4.063-2.15284,38.63935,38.63935,0,0,0,3.77625-2.53552,35.36586,35.36586,0,0,0,3.46728-2.93518c1.11585-1.03613,2.12818-2.17554,3.17444-3.32776a18.63119,18.63119,0,0,1-2.60949,3.86609,21.36588,21.36588,0,0,1-3.43213,3.19605,22.56759,22.56759,0,0,1-4.012,2.423A17.48318,17.48318,0,0,1,69.04624,187.26264Z" fill="#10394f"/><path d="M97.79065,136.07231l6.12449,6.72692,6.3891-5.92739,7.97243,5.79828,11.168-25.15888,11.75483,3.73078-9.94352,35.174,23.37485,3.11529,11.777-4.10875a7.602,7.602,0,0,1,6.36186.35534l9.78484,3.79217a2.68716,2.68716,0,0,1-.73417,5.18246q-.25212.02294-.52179.03519a8.83838,8.83838,0,0,1-3.886-.83864c-2.54237-1.10109-7.54348-.98587-10.726.08185l-3.9039,2.1045a5.0939,5.0939,0,0,1-1.90547.59991c-2.2932.22864-4.5398.85012-6.30355.81441l-47.08746,2.32031a9.272,9.272,0,0,1-7.08705-2.547L82.66543,150.35888Z" fill="#f9977a"/><path d="M103.91513,142.79926c1.89868,1.77868,3.72644,3.62256,5.537,5.482,1.82446,1.84693,3.59082,3.74707,5.35522,5.64893l-.302-.15637c2.80274.35449,5.6023.73437,8.39417,1.17383l4.18518.67993c1.39062.26208,2.785.493,4.17138.78845-1.416-.06287-2.82385-.19031-4.23547-.28674l-4.22168-.39539c-2.81262-.27734-5.61767-.61426-8.41943-.97656l-.18152-.02356-.121-.13306c-1.74451-1.92016-3.48719-3.842-5.17176-5.81726C107.20688,146.82086,105.52548,144.84271,103.91513,142.79926Z" fill="#dd765e"/><rect x="-0.76466" y="261.54064" width="85.14034" height="8.29486" transform="translate(-226.4566 246.36743) rotate(-76.93852)" fill="#ffba55"/><rect x="143.81907" y="223.39802" width="8.2926" height="84.58009" transform="translate(-49.20276 34.1527) rotate(-11.30262)" fill="#ffba55"/><path d="M152.27818,226.98428l-80.36031,3.14344a39.376,39.376,0,0,1-38.95532-27.0783L1,105.56364s23.886-4.64451,38.48305,45.118c5.778,19.69768,16.02625,32.11816,26.3005,39.93625a66.25054,66.25054,0,0,0,38.62953,13.15651C120.4915,204.15593,157.49305,207.16781,152.27818,226.98428Z" fill="#f73c4f"/><rect x="287.01575" y="176.00591" width="8.36938" height="132.7578" fill="#935b50"/><rect x="99.89791" y="169.587" width="211.51066" height="6.41891" rx="1.44287" fill="#935b50"/><rect x="116.58899" y="176.00591" width="8.36938" height="132.7578" fill="#935b50"/><path d="M109.91256,176.00591H301.96619a0,0,0,0,1,0,0v18.10962a2.88575,2.88575,0,0,1-2.88575,2.88575H112.79831a2.88575,2.88575,0,0,1-2.88575-2.88575V176.00591a0,0,0,0,1,0,0Z" fill="#c38f86"/><path d="M301.64949,169.05733s17.8553-111.38306-62.49355-101.60516V84.66978" fill="none" stroke="#fec165" stroke-linecap="round" stroke-linejoin="round" stroke-width="0.79412"/><path d="M219.51751,102.6314h40.68216a20.4825,20.4825,0,0,0-40.68216,0Z" fill="#fec165"/><path d="M279.68464,167.85281h25.1533a0,0,0,0,1,0,0v.90639a.79412.79412,0,0,1-.79412.79412H280.47876a.79412.79412,0,0,1-.79412-.79412v-.90639A0,0,0,0,1,279.68464,167.85281Z" transform="translate(584.52257 337.40612) rotate(-180)" fill="#fec165"/><polygon points="268.853 169.567 254.34 169.567 249.45 143.866 273.743 143.866 268.853 169.567" fill="#e19974"/><polygon points="273.185 146.8 273.743 143.866 249.45 143.866 250.008 146.8 273.185 146.8" fill="#d6694b"/><rect x="253.33235" y="157.3835" width="4.33573" height="4.33573" transform="translate(187.65414 -133.93442) rotate(45)" fill="#d6694b"/><rect x="259.46401" y="157.3835" width="4.33573" height="4.33573" transform="translate(189.45006 -138.27016) rotate(45)" fill="#d6694b"/><rect x="265.52505" y="157.3835" width="4.33573" height="4.33573" transform="translate(191.22529 -142.55596) rotate(45)" fill="#d6694b"/><path d="M267.25005,122.23626s1.27443,18.00466-6.19514,21.82034C261.05491,144.0566,258.469,137.23042,267.25005,122.23626Z" fill="#558031"/><path d="M243.14715,129.97028s12.21986,2.10843,17.90776,14.08632C261.05491,144.0566,247.61722,139.49262,243.14715,129.97028Z" fill="#849f4c"/><path d="M247.48,153.554s6.21463-9.29734,13.57492-9.49738C261.05491,144.0566,259.94685,151.54268,247.48,153.554Z" fill="#a6b862"/><path d="M255.14585,124.80262s8.62284,7.873,5.90906,19.254C261.05491,144.0566,256.27817,138.99333,255.14585,124.80262Z" fill="#849f4c"/><path d="M261.05491,144.0566s3.02951-11.0898,18.34444-13.93353C279.39935,130.12307,275.95281,140.22052,261.05491,144.0566Z" fill="#a6b862"/><path d="M283.4563,141.15765s-11.68485-4.81718-22.40139,2.899C261.05491,144.0566,275.30141,145.767,283.4563,141.15765Z" fill="#849f4c"/><path d="M283.35,152.37256s-5.64206-9.03727-22.29509-8.316Z" fill="#558031"/><path d="M236.85311,142.59378s15.34585-5.69019,24.40261,1.19075C261.25572,143.78453,252.65609,148.5213,236.85311,142.59378Z" fill="#558031"/><path d="M249.43709,126.11734s13.69317,9.68477,11.72886,17.94714C261.166,144.06448,251.66606,136.44758,249.43709,126.11734Z" fill="#558031"/><path d="M273.4574,153.69624s-11.28846-1.92718-12.40249-9.63964C261.05491,144.0566,269.30306,144.46513,273.4574,153.69624Z" fill="#849f4c"/><path d="M235.39761,165.93952v.34a3.27057,3.27057,0,0,1-3.26937,3.26938H222.307a3.27057,3.27057,0,0,1-3.26937-3.26938V153.0451a3.27057,3.27057,0,0,1,3.26937-3.26937h9.82121a3.27057,3.27057,0,0,1,3.26937,3.26937v12.89442Z" fill="#f65b2b"/><path d="M240.81158,153.14962h-5.41394v1.96162h4.43313v8.86659h-4.43313v1.96162h5.41394a.97943.97943,0,0,0,.98081-.98081V154.13043A.97953.97953,0,0,0,240.81158,153.14962Z" fill="#e5caf3"/><rect x="227.21763" y="156.54494" width="4.06333" height="4.06333" rx="0.65387" fill="#ffba55"/><rect x="228.78977" y="149.77558" width="0.91992" height="6.76953" fill="#e5caf3"/><line x1="1" y1="308.7637" x2="501" y2="308.7637" fill="none" stroke="#935b50" stroke-linecap="round" stroke-linejoin="round" stroke-width="2"/></g></g></svg>