<svg id="Layer_1" data-name="Layer 1" xmlns="http://www.w3.org/2000/svg" viewBox="0 0 700 550"><title>an office interview or discussion scene</title><path d="M189.33228,339.949c12.24444,66.93151,153.59449,176.95772,201.31,88.41861,25.11638-46.60522,99.58158-113.91916,156.96832-153.96214C603.4111,235.469,445.23683,167.8878,346.301,185.98711S177.08784,273.01753,189.33228,339.949Z" fill="#ffe3cb"/><path d="M171.02512,341.75152C157.57,268.20367,234.97531,192.20562,343.574,172.33844c39.52929-7.23145,92.73437-2.28418,142.32812,13.23437,47.35645,14.81836,81.80664,36.08985,89.90527,55.5127,4.57325,10.96386.84961,20.73926-11.06445,29.05273l-.51367-.73437c11.52246-8.04,15.13965-17.45117,10.75195-27.97364-8.001-19.18554-42.23633-40.26074-89.34668-55.00195-49.46-15.47754-102.50488-20.415-141.89844-13.209C235.62277,192.99762,158.54074,268.52887,171.906,341.58941Z" fill="#ffe3cb"/><path d="M525.4177,404.45935l17.06074,8.06044s-2.50912,10.59155-15.69264,9.44185l-9.40555-5.79515Z" fill="#f9977a"/><path d="M533.42856,408.27859s13.43868-.58938,15.68529,6.825a2.58986,2.58986,0,0,1-.40844,2.28339l-24.77992,33.51288a1.35877,1.35877,0,0,1-2.01561.18395c-1.60187-1.46735,4.29819-15.72839,3.29154-28.43861C525.20142,422.64515,535.50317,414.65492,533.42856,408.27859Z" fill="#935b50"/><path d="M475.27373,435.92177l3.56159,18.52983s-10.03117,4.22519-16.88349-7.09614l-.8725-11.013Z" fill="#f9977a"/><path d="M476.91825,444.64278s8.40682,10.501,3.74724,16.69031a2.58989,2.58989,0,0,1-2.08439,1.01785l-41.67861-.22627a1.35878,1.35878,0,0,1-1.338-1.51861c.2392-2.15914,15.2339-5.81249,24.90055-14.12626C460.465,446.4798,472.9951,450.08067,476.91825,444.64278Z" fill="#935b50"/><path d="M482.97552,157.30552a18.618,18.618,0,0,0-8.69628.7454c-1.3118.46512-6.10959,2.16618-8.44808,6.70864-.88818,1.72513-1.08887,3.80041-1.49075,7.951-.251,2.59251-1.24946,4.4493-1.24794,7.61128a26.7136,26.7136,0,0,0,1.24794,7.54527c1.1627,3.82245.414,5.99412.99384,6.70864,2.33671,2.87967,9.43063.62023,9.53718,4.37792.06578,2.32027-3.8503,12.337-3.77036,15.05519.1863,6.33413,10.76407-.29474,17.09232-9.74286.2872-.4288,4.61328-2.96121,4.16059-7.065-.24188-2.19231-2.10317-12.47908-1.92447-13.80633.64629-4.79717,3.06364-5.3822,4.96941-11.18106a9.01988,9.01988,0,0,0-1.49078-8.69638A18.42431,18.42431,0,0,0,482.97552,157.30552Z" fill="#f9977a"/><ellipse cx="465.33797" cy="176.7792" rx="0.97407" ry="1.21128" fill="#0a0709"/><ellipse cx="474.12055" cy="176.7792" rx="0.97407" ry="1.21128" fill="#0a0709"/><path d="M469.97043,174.6109a.611.611,0,0,1-.334-.09961,5.20357,5.20357,0,0,0-5.87989-.02344.61475.61475,0,0,1-.73926-.98242,6.52586,6.52586,0,0,1,7.28907-.02539.61516.61516,0,0,1-.33594,1.13086Z" fill="#1e1d22"/><path d="M479.073,174.6109a.6111.6111,0,0,1-.334-.09961,5.25581,5.25581,0,0,0-5.87988-.02539.61426.61426,0,0,1-.74023-.98047,6.52767,6.52767,0,0,1,7.29-.02539.61516.61516,0,0,1-.33594,1.13086Z" fill="#1e1d22"/><path d="M470.80759,174.86084a4.59192,4.59192,0,0,1-.11206,3.11883,10.01875,10.01875,0,0,1-1.488,2.7807l-.50854.57886a.63494.63494,0,0,0-.20435.44794,1.58088,1.58088,0,0,0,.56519,1.06116,3.9085,3.9085,0,0,0,2.74023.74035,3.42472,3.42472,0,0,1-3.12427-.27191,2.10117,2.10117,0,0,1-.91626-1.52167,1.36529,1.36529,0,0,1,.355-.93927l.491-.58453a14.19809,14.19809,0,0,0,1.53784-2.53491A5.88322,5.88322,0,0,0,470.80759,174.86084Z" fill="#dd765e"/><path d="M486.768,175.27069a1.728,1.728,0,0,1,1.15332.05871,2.83,2.83,0,0,1,.97485.63129,3.3102,3.3102,0,0,1,.65454.932,2.85011,2.85011,0,0,1,.27124,1.09778,9.02551,9.02551,0,0,1-.77466-.76111c-.24511-.24066-.45459-.49768-.6958-.71619a8.9669,8.9669,0,0,0-.71972-.65448A5.94138,5.94138,0,0,0,486.768,175.27069Z" fill="#dd765e"/><path d="M487.55954,180.32184a2.92873,2.92873,0,0,1-.56006-2.3454,3.16189,3.16189,0,0,1,.43384-1.1637,2.58483,2.58483,0,0,1,.86182-.87286,19.57919,19.57919,0,0,0-.53,2.16211A18.8291,18.8291,0,0,0,487.55954,180.32184Z" fill="#dd765e"/><path d="M484.65741,182.08466a9.48678,9.48678,0,0,1,.6339-4.03376c.69512-1.77235,1.548-4.18725,3.28159-4.348,1.27735-.11844,1.79052-.45568,2.25046.77712.76005,2.03944-.56049,4.28924-1.47982,5.85627-1.31632,2.2422-2.434,2.73171-2.45435,4.283-.01565,1.18341,3.36275,3.585,4.00308,3.12286,1.30531-.94212.59064-3.76552,4.15219-10.48468,2.24925-4.24286,3.2834-5.03879,3.54383-7.68744.09241-.94044.475-4.83386-1.86822-7.09828-1.08691-1.05031-1.705-.73032-6.431-2.73158a38.9806,38.9806,0,0,1-3.84324-1.77176c-3.76445-2.05634-3.68067-3.11408-5.88349-3.74027-1.99-.56559-2.108.284-5.90785.059-3.66359-.21683-3.98854-1.0325-5.68217-.5495-2.94053.83847-4.35281,3.97916-4.73206,4.82306a10.12025,10.12025,0,0,0-1.13464,4.72959,9.12986,9.12986,0,0,0,1.78682,4.60274c.47764.48657,2.41469-2.31807,3.47024-3.37318,1.035-1.03371,2.21078-.61044,3.813-.51082,1.56218.09714,1.47673,1.07009,3.78738,1.92432.82327.30431,4.12232-1.17362,5.18712.65217,1.13454,1.94536,2.01668,2.18107,1.484,3.99123-.33283,1.1309-.12687,2.5203.285,5.29926.29537,1.9943-1.31819,8.96016-1.31819,8.96016C481.00378,186.05728,484.841,185.1516,484.65741,182.08466Z" fill="#1e1d22"/><path d="M473.822,187.86935s-3.83625,3.578-7.26673,0" fill="#0a0709"/><path d="M462.69747,294.33071,454.873,366.98687l1.863,75.26434H477.2287l4.84375-46.57446,35.39659,25.7091,10.43268-18.25719-36.51438-33.161,7.82451-40.61293,7.1884-13.658a29.95321,29.95321,0,0,0,3.36815-16.1232l-.86906-11.94956Z" fill="#376f92"/><path d="M465.67819,299.54706l-.57617,13.22937-.64429,13.226-1.29248,26.45154-.71875,13.222-.3601,6.611a15.84013,15.84013,0,0,0,.782,6.46668,15.63972,15.63972,0,0,0,3.38379,5.57007c1.47119,1.64062,3.00537,3.22534,4.62256,4.72107a38.92385,38.92385,0,0,0,5.14306,4.13574,14.28012,14.28012,0,0,0,6.05469,2.49621,14.333,14.333,0,0,1-6.113-2.406,39.06447,39.06447,0,0,1-5.23-4.06775c-1.636-1.48792-3.18091-3.07227-4.6665-4.70837a15.92,15.92,0,0,1-3.47046-5.64478,16.16329,16.16329,0,0,1-.83472-6.57983l.323-6.61292.647-13.22571,1.43921-26.444.72168-13.22192Z" fill="#10394f"/><path d="M485.05319,370.71283a10.23608,10.23608,0,0,0,1.65039.464,5.97043,5.97043,0,0,0,1.66065.10363,4.18578,4.18578,0,0,0,1.59326-.39587,6.402,6.402,0,0,0,1.42993-.917,3.892,3.892,0,0,1-1.27441,1.21692,3.99565,3.99565,0,0,1-1.71655.53332A5.1408,5.1408,0,0,1,485.05319,370.71283Z" fill="#10394f"/><path d="M473.11326,205.90065s-6.62663,19.70524,19.10574-9.70234l11.36809,9.27745a13.76565,13.76565,0,0,1,4.6511,7.63293l8.48566,38.55981H506.38432l2.515,35.95549-48.484,7.07931S460.39843,245.30265,473.11326,205.90065Z" fill="#f73c4f"/><path d="M466.70285,284.36383c.875-.51148,1.7666-.976,2.645-1.46289l2.57861-1.54724a43.53453,43.53453,0,0,0,4.79786-3.56348,26.8107,26.8107,0,0,0,4.08642-4.3158,18.3547,18.3547,0,0,0,1.57056-2.52929,11.34,11.34,0,0,0,1.08838-2.78931,12.85426,12.85426,0,0,1-2.16822,5.65857,21.65888,21.65888,0,0,1-4.06884,4.56189,30.81054,30.81054,0,0,1-5.001,3.48743l-2.71191,1.37426C468.57736,283.614,467.64865,284.01227,466.70285,284.36383Z" fill="#b02336"/><path d="M494.1361,252.30482l3.30585,18.366-12.71512,30.18036-5.65806,5.30955a28.32214,28.32214,0,0,0,6.89747,14.38491s3.791-6.97973,3.51166-14.24524l23.039-26.54911a17.15575,17.15575,0,0,0,3.9771-13.99015l-2.28513-14.09268S500.89069,246.79324,494.1361,252.30482Z" fill="#f9977a"/><path d="M495.76534,203.3242s-13.80886,1.95613-10.53724,21.238,5.01791,27.94468,5.01791,27.94468l26.47784-.83834" fill="#f73c4f"/><path d="M495.76535,203.32422a13.07414,13.07414,0,0,0-5.98218,3.11963,13.75478,13.75478,0,0,0-3.66235,5.60137,18.65761,18.65761,0,0,0-.83765,3.26923c-.0874.55615-.102,1.12457-.157,1.68555a11.16737,11.16737,0,0,0-.07251,1.69018,41.14477,41.14477,0,0,0,.68042,6.75568l2.46778,13.4884,2.3767,13.50543-.34326-.272c4.41309-.13971,8.82837-.20074,13.24268-.304,4.41406-.10395,8.83056-.12757,13.24585-.19525-4.41065.21173-8.82007.46752-13.23169.64306-4.41187.17621-8.82227.39466-13.23535.53436l-.29175.00922-.05176-.28137-2.47217-13.49793L485.06,225.561a37.27825,37.27825,0,0,1-.60571-6.879,11.605,11.605,0,0,1,.11035-1.72949c.06811-.57452.09619-1.15393.19775-1.723a19.14483,19.14483,0,0,1,.93091-3.34357A13.36238,13.36238,0,0,1,495.76535,203.32422Z" fill="#b02336"/><path d="M477.94357,300.16107a35.74344,35.74344,0,0,0,.6211,3.7616c.2456,1.24365.56006,2.47155.92334,3.68225a36.98846,36.98846,0,0,0,2.84033,6.993,27.2162,27.2162,0,0,0,4.32983,6.14294l1.31446,1.35852,1.458,1.20594.72706.61267.792.52356q.79578.52,1.58569,1.06653a22.24193,22.24193,0,0,1-6.30517-4.35083,25.66869,25.66869,0,0,1-4.58643-6.19544,33.67209,33.67209,0,0,1-2.72925-7.20056A31.06169,31.06169,0,0,1,477.94357,300.16107Z" fill="#10394f"/><path d="M479.5009,194.05916c-3.18039,2.23548-9.31224,2.13921-9.31224,2.13921l-.01847.14289c2.38358.29,4.64143.50486,4.70122,2.61223a15.133,15.133,0,0,1-.717,3.46845C478.32081,200.02765,479.5009,194.05916,479.5009,194.05916Z" fill="#dd765e"/><polygon points="566.831 458.222 566.831 358.781 569.527 358.781 569.527 356.028 566.831 356.028 566.831 348.458 563.964 348.458 563.964 356.028 561.269 356.028 561.269 358.781 563.964 358.781 563.964 458.222 549.398 458.222 549.398 462.351 581.398 462.351 581.398 458.222 566.831 458.222" fill="#ffba55"/><path d="M579.34445,341.40875a.49891.49891,0,0,1-.41992-.22852q-.24756-.38232-.51074-.7705a.5.5,0,1,1,.82812-.56055q.26808.397.52247.78809a.5.5,0,0,1-.41993.77148Z" fill="#f65b2b"/><path d="M584.54074,398.01129a.50161.50161,0,0,1-.39844-.19727c-.38085-.50293-.74511-1.02636-1.082-1.55566a.5001.5001,0,0,1,.84375-.53711c.32227.50684.66993,1.00781,1.03516,1.4873a.4999.4999,0,0,1-.39844.80274Zm-1.98242-3.12695a.50075.50075,0,0,1-.44336-.26856q-.15087-.28857-.2959-.59082c-.16015-.335-.33105-.71094-.502-1.13867a.50051.50051,0,0,1,.92969-.37109c.16113.40429.32226.76074.47363,1.07617.0918.18945.18457.377.28125.56152a.4999.4999,0,0,1-.44336.73145Zm-1.37109-3.4375a.50018.50018,0,0,1-.48145-.36524c-.166-.5957-.31055-1.2168-.42773-1.84863a.49971.49971,0,1,1,.98242-.1836c.1123.60352.25,1.19629.4082,1.7627a.50013.50013,0,0,1-.48144.63477Zm-.68946-3.63868a.499.499,0,0,1-.49609-.44629c-.06348-.584-.11426-1.209-.14648-1.877a.49863.49863,0,0,1,.4746-.52344.49122.49122,0,0,1,.52344.47461c.03223.64649.08106,1.252.14258,1.81836a.50029.50029,0,0,1-.49805.55371Zm-.18457-3.70117h-.002a.50034.50034,0,0,1-.498-.502q.00294-.89355.04688-1.874a.47485.47485,0,0,1,.52148-.47657.49855.49855,0,0,1,.47657.52149q-.0425.96093-.04493,1.833A.49992.49992,0,0,1,580.3132,384.107Zm.166-3.70215c-.01465,0-.02832-.001-.042-.00195a.49933.49933,0,0,1-.457-.53906q.07323-.89649.18359-1.86133a.50889.50889,0,0,1,.55371-.44043.501.501,0,0,1,.44043.55371c-.07324.63379-.13281,1.24219-.18164,1.83008A.49952.49952,0,0,1,580.47922,380.40484Zm.41992-3.68457a.59634.59634,0,0,1-.07129-.00488.5.5,0,0,1-.4248-.56543q.13915-.97851.291-1.8457a.49083.49083,0,0,1,.57813-.40625.499.499,0,0,1,.40625.57812c-.09864.56934-.19434,1.17188-.28516,1.81446A.49992.49992,0,0,1,580.89914,376.72027Zm.63574-3.64843a.457.457,0,0,1-.10254-.01075.49869.49869,0,0,1-.38769-.59082c.13574-.6582.27734-1.26367.4209-1.82617a.49976.49976,0,1,1,.96875.2461c-.13965.54882-.27735,1.14062-.41114,1.7832A.49937.49937,0,0,1,581.53488,373.07184Zm.91309-3.58789a.47673.47673,0,0,1-.14649-.02247.49833.49833,0,0,1-.33105-.624c.19824-.64746.39551-1.23144.58789-1.77734a.50037.50037,0,1,1,.94336.334c-.18848.53223-.38184,1.10449-.57617,1.73633A.49976.49976,0,0,1,582.448,369.484Zm1.21582-3.4961a.49972.49972,0,0,1-.46973-.67187c.21387-.582.41309-1.14356.58985-1.72461a.50015.50015,0,0,1,.957.291c-.18262.59864-.3877,1.17774-.60742,1.77735A.4994.4994,0,0,1,583.66379,365.98785Zm1.04883-3.54394a.52876.52876,0,0,1-.09571-.00879.50115.50115,0,0,1-.39648-.58594,17.87,17.87,0,0,0,.25-1.7832.51681.51681,0,0,1,.54395-.45215.50041.50041,0,0,1,.45214.54394c-.06152.66309-.14746,1.27832-.26367,1.88086A.50075.50075,0,0,1,584.71262,362.44391Zm.34961-3.68164h-.00489a.50036.50036,0,0,1-.49511-.50489l.00195-.27148c0-.49219-.01563-1.00684-.05078-1.543a.50105.50105,0,0,1,.46582-.53223.4847.4847,0,0,1,.53223.46582c.0371.55957.05273,1.09571.05273,1.60938l-.00195.28125A.50059.50059,0,0,1,585.06223,358.76227ZM584.821,355.067a.49993.49993,0,0,1-.49414-.43066c-.08106-.57715-.18555-1.17481-.31739-1.791a.5007.5007,0,0,1,.38477-.59375.507.507,0,0,1,.59375.38477c.13574.6416.24414,1.26074.3291,1.86133a.5.5,0,0,1-.42578.56445A.56715.56715,0,0,1,584.821,355.067Zm-.76856-3.625a.50127.50127,0,0,1-.48144-.36328q-.24024-.8496-.55079-1.73828a.5.5,0,0,1,.94336-.332c.21582.61426.4043,1.21289.57032,1.79687a.50137.50137,0,0,1-.34473.61817A.51219.51219,0,0,1,584.05246,351.442Zm-1.22266-3.498a.50017.50017,0,0,1-.46191-.3086q-.33984-.81738-.74414-1.66894a.49971.49971,0,1,1,.90234-.42969q.41748.87452.76563,1.71582a.50073.50073,0,0,1-.27051.65332A.4886.4886,0,0,1,582.8298,347.94391Zm-1.59375-3.34668a.49946.49946,0,0,1-.44042-.26368q-.42187-.78369-.90137-1.59472a.4996.4996,0,1,1,.85937-.50977q.49219.82764.92285,1.63184a.50012.50012,0,0,1-.44043.73633Z" fill="#f65b2b"/><path d="M586.39816,400.15582a.49672.49672,0,0,1-.35644-.14941q-.31055-.31641-.6543-.69336a.50057.50057,0,0,1,.74219-.67188q.32813.36329.625.66406a.5.5,0,0,1-.35645.85059Z" fill="#f65b2b"/><rect x="540.79554" y="316.7377" width="49.20446" height="33.72054" fill="#7ca1b1"/><polyline points="314.357 268.631 303.321 320.131 252.783 320.131" fill="none" stroke="#dbd8d7" stroke-linecap="round" stroke-linejoin="round" stroke-width="5.89349"/><polygon points="215.895 434.509 214.15 449.799 232.9 451.94 231.996 438.763 215.895 434.509" fill="#f9977a"/><polygon points="262.869 433.941 267.769 448.53 285.659 442.52 279.254 430.969 262.869 433.941" fill="#f9977a"/><path d="M137.394,334.03558l-1.38311,18.32252c-1.29794,17.1942,12.39242,30.42569,29.606,29.4165,19.93347-1.16865,44.09445-2.41868,54.81242-7.43933L214.19173,436.992l18.5246,2.128,10.433-40.991,20.08023,42.405,19.99207-7.86075-29.30085-76.64558s6.94286-21.18271-18.58623-25.81-47.94822,5.22392-47.94822,5.22392Z" fill="#8b9d36"/><path d="M187.38632,335.44159a138.88417,138.88417,0,0,1,19.213-2.14856,112.74664,112.74664,0,0,1,19.358.72119,68.76078,68.76078,0,0,1,9.50586,2.0365,35.37428,35.37428,0,0,1,8.91272,3.9248,21.31244,21.31244,0,0,1,6.921,6.80139,18.96869,18.96869,0,0,1,2.62378,9.25086,19.41308,19.41308,0,0,0-3.03833-8.98938,20.76793,20.76793,0,0,0-6.90943-6.40759c-5.48132-3.26014-11.843-4.7428-18.152-5.62708a120.73124,120.73124,0,0,0-19.1969-.94543c-3.21155.05615-6.4231.21521-9.6294.45715C193.78549,334.73016,190.5831,335.04754,187.38632,335.44159Z" fill="#5e7c24"/><path d="M220.42929,374.33526c1.53552-.56164,3.07593-1.09948,4.58594-1.71045a28.21165,28.21165,0,0,0,4.3833-2.00524l.33887-.20923.19385.36242c1.19409,2.23352,2.34912,4.48658,3.488,6.74756,1.1482,2.25635,2.26233,4.52979,3.37793,6.80249q1.66187,3.41474,3.24756,6.86743,1.61609,3.43762,3.10449,6.93885-1.892-3.30012-3.67285-6.65552-1.80231-3.34461-3.52966-6.72681c-1.14356-2.25879-2.28845-4.51672-3.39942-6.79175-1.12011-2.27038-2.22424-4.54882-3.28918-6.84668l.53235.15308a16.48437,16.48437,0,0,1-2.28784,1.01611c-.77246.28589-1.54627.55848-2.33033.79676C223.60031,373.53766,222.02731,373.984,220.42929,374.33526Z" fill="#5e7c24"/><path d="M236.83676,349.97027a20.88029,20.88029,0,0,0,3.58789,3.56275,20.27944,20.27944,0,0,0,4.25,2.59594,11.54427,11.54427,0,0,0,1.1471.48389,9.97891,9.97891,0,0,0,1.17419.41748l1.1947.37,1.22425.27026c.813.21838,1.65454.26685,2.49048.41065.83972.12146,1.68908.11572,2.54858.22546-.84644.11658-1.70618.22058-2.5697.26428a17.42182,17.42182,0,0,1-2.59656-.13049,16.63851,16.63851,0,0,1-5.03076-1.40357,16.0428,16.0428,0,0,1-4.3396-2.915A13.33147,13.33147,0,0,1,236.83676,349.97027Z" fill="#5e7c24"/><path d="M220.46225,437.71234c.55676-5.59229,1.222-11.16968,1.90381-16.74487.67944-5.57544,1.448-11.1388,2.1676-16.70874.79981-5.55909,1.55689-11.12391,2.39685-16.67749l1.27967-8.32752c.46289-2.77087.8916-5.54651,1.3844-8.31323-.26819,2.79748-.60047,5.58618-.89869,8.37964l-1.00329,8.36535c-.68213,5.5752-1.447,11.13892-2.16931,16.70862-.80249,5.5586-1.556,11.124-2.39856,16.67713C222.28439,426.62469,221.42771,432.176,220.46225,437.71234Z" fill="#5e7c24"/><path d="M270.28366,437.76043c-3.4126-6.20361-6.72766-12.45727-10.02795-18.7185l-9.7909-18.83985-9.58508-18.94555-4.71948-9.51026c-1.54065-3.18676-3.11194-6.35778-4.62561-9.55835,1.71545,3.097,3.37329,6.22376,5.06177,9.33472l4.96777,9.38294,9.78943,18.84069,9.58349,18.94629C264.09494,425.02679,267.23813,431.36859,270.28366,437.76043Z" fill="#5e7c24"/><path d="M184.96331,258.41116s22.91907,23.30374,24.34094,32.048l-9.74706,9.04268" fill="#376f92"/><path d="M188.61416,278.25443c9.01872-4.5479-4.71835-21.91543-4.71835-21.91543l-.14742-.58429a.73239.73239,0,0,1,.73488-.94193c1.96855.19293,6.00836.13734,4.53747-3.87033a3.80382,3.80382,0,0,1,.95672-3.084,1.07132,1.07132,0,0,0-.13189-1.56889,10.08282,10.08282,0,0,1-2.93053-3.02041.71577.71577,0,0,1,.65174-1.06313l3.79774.37136a.56531.56531,0,0,0,.58305-.67763l-.08507-.52739a.61538.61538,0,0,1,.48213-.71828l1.29592-.21131a1.48677,1.48677,0,0,0,1.04287-2.06866l-2.19679-5.1818a4.3562,4.3562,0,0,1-.175-2.87857c.79031-2.79123,2.84869-2.002,1.3472-8.2643,0,0-6.45889-7.6561-19.8557,1.91818,0,0,.58693-.62993-5.74387,5.26519,0,0-2.47431,2.19405-1.16772,9.48837,0,0-3.74564,10.28708-.1507,15.88662C166.74088,254.60781,179.59545,282.80233,188.61416,278.25443Z" fill="#f9977a"/><path d="M167.74791,241.007s1.8684,27.43676,16.63654,15.74126h0c-.29524-.2616-.48864-.40929-.48864-.40929l-.14741-.58429a.73238.73238,0,0,1,.73483-.94193c.12694.01243.26307.02369.40518.033l.06849-.25851C170.42325,255.7793,167.74791,241.007,167.74791,241.007Z" fill="#dd765e"/><path d="M184.41549,230.672a.5232.5232,0,0,1-.54682-.26738.59583.59583,0,0,1,.17632-.7864,19.45856,19.45856,0,0,1,8.286-2.80232.574.574,0,0,1,.07742,1.14261,18.8201,18.8201,0,0,0-7.80529,2.63847A.51065.51065,0,0,1,184.41549,230.672Z"/><path d="M187.19541,231.88623a3.12658,3.12658,0,0,1,.89343-.6839,3.96285,3.96285,0,0,1,1.06262-.39069,3.03063,3.03063,0,0,1,2.21252.31568c-.3822.02215-.73.0119-1.07775.05877-.34485.05-.68494.08423-1.02161.16663C188.58457,231.48828,187.92294,231.69287,187.19541,231.88623Z" fill="#350500"/><ellipse cx="189.86135" cy="232.24098" rx="0.67389" ry="1.25803" transform="matrix(0.9885, -0.15122, 0.15122, 0.9885, -32.93637, 31.38188)" fill="#050505"/><path d="M168.01344,232.96908a6.65723,6.65723,0,0,1,2.39734-.66916,2.44187,2.44187,0,0,1,1.13317.25165,4.6124,4.6124,0,0,1,1.04068.75412,2.45829,2.45829,0,0,0-.83412-1.14149,2.194,2.194,0,0,0-1.34765-.43658,3.02143,3.02143,0,0,0-1.33333.36733A3.23806,3.23806,0,0,0,168.01344,232.96908Z" fill="#dd765e"/><path d="M168.71977,237.34805a3.6012,3.6012,0,0,0,1.07862-.982,4.71036,4.71036,0,0,0,.70265-1.34316,5.91953,5.91953,0,0,0,.18522-.75262,4.65307,4.65307,0,0,0,.03986-.77631,3.79386,3.79386,0,0,0-.33131-1.48162,12.60044,12.60044,0,0,1-.08477,1.45734,6.5311,6.5311,0,0,1-.3121,1.36009A10.39634,10.39634,0,0,1,168.71977,237.34805Z" fill="#dd765e"/><path d="M163.476,245.84614c-3.40916-.66695-4.68747-6.49921-5.93023-12.16928a29.87775,29.87775,0,0,1-.564-12.80264c.61275-3.19312,1.20615-6.28543,3.71161-9.08941,3.481-3.89577,8.33833-4.64443,12.21242-5.24157,4.33642-.6684,7.80269-1.20267,11.14291.61181,3.5404,1.92324,4.44573,1.5455,6.71824,4.49847.78335,1.01791,3.78675,1.23893,5.47174,2.31656.33594.21486,2.28462,1.46113,2.14838,2.61-.05874.49537-.81938,4.60647-7.83678,6.0124-4.05083.81158-5.37068.31946-7.27592,1.34838-4.19638,2.26624-6.68858.76008-7.62971.99437-1.13277.282.08333,1.86134.84715,4.54473a30.53445,30.53445,0,0,1,1.04711,6.20322c.266,3.2905-.17851,4.06756.4739,6.39887a7.67111,7.67111,0,0,0,1.84436,3.74415c1.383,1.37163,3.13461,1.67771,5.5322,2.06462,4.16295.67177,4.41152-.639,4.94183.34856.53061.9881-.08808,4.48849-1.06676,5.37863-2.70351,2.45891-6.03895,1.14488-8.32987.9586-3.09374-.25156-9.859-3.189-10.02337-7.25914-.08834-2.187,1.1872-7.84662,1.99383-11.17329a5.51094,5.51094,0,0,0-1.70467-5.56654,2.22766,2.22766,0,0,0-1.29219-.57439,3.09921,3.09921,0,0,0-2.66238,1.79206c-.12876.27963-.52709,1.2735.69806,4.13547C169.23443,238.94546,166.44371,246.42672,163.476,245.84614Z"/><path d="M192.59363,242.91316a1,1,0,0,1-.27355.01149l-4.473-.4235a4.02221,4.02221,0,0,1-2.71724-1.46341,1.20354,1.20354,0,0,1,.08415-1.617,1.01972,1.01972,0,0,1,1.5085.09542,1.93293,1.93293,0,0,0,1.30576.7033l4.473.4235a1.12906,1.12906,0,0,1,.97381,1.24163A1.1131,1.1131,0,0,1,192.59363,242.91316Z"/><path d="M215.38418,462.265l37.12019-1.58428,2.15536-4.9637a1.40576,1.40576,0,0,0-.49418-2.35384l-22.89184-8.03081s-8.46641,6.22762-16.501,2.60553C214.77271,447.93785,209.17977,458.98129,215.38418,462.265Z" fill="#d6694b"/><path d="M273.22649,457.101l32.94361-15.0744-.14666-7.50445a1.40575,1.40575,0,0,0-1.44533-1.92244l-24.13766,2.42982s-3.02862,14.45164-13.84079,9.35437C266.59966,444.38388,266.21516,456.75685,273.22649,457.101Z" fill="#d6694b"/><path d="M232.09607,283.79281s4.36526-1.57325,9.20194-10.59222,7.68172-16.63217,2.91087-11.22044l-3.56727,4.18412s.51156-8.2123,1.2448-13.078a6.09324,6.09324,0,0,0-3.2954-6.45813c-2.21379-1.04189-4.06771-.4-5.9949,5.02691-2.88237,8.11668-4.17377,12.48651-4.29894,14.69889-.04336.76646.15749,9.09462.15749,9.09462Z" fill="#f9977a"/><path d="M239.93576,271.097a10.23167,10.23167,0,0,1,.10327-2.50427,11.94477,11.94477,0,0,1,.60254-2.42847,7.121,7.121,0,0,1,.01721,2.52112A8.05206,8.05206,0,0,1,239.93576,271.097Z" fill="#dd765e"/><path d="M238.07993,260.56732a31.24724,31.24724,0,0,1,.75879-6.10107,19.565,19.565,0,0,1,2.103-5.77973c-.31628.97882-.557,1.96442-.8081,2.94739-.24256.985-.46619,1.97546-.683,2.96777C239.00266,256.58465,238.60007,258.57782,238.07993,260.56732Z" fill="#dd765e"/><path d="M235.25144,259.4682a28.1849,28.1849,0,0,1,.60156-6.71137,19.54683,19.54683,0,0,1,.95935-3.25238,7.942,7.942,0,0,1,1.77869-2.87628,11.56731,11.56731,0,0,0-1.31751,3.03992c-.31787,1.05676-.5896,2.13037-.80749,3.2185C236.00119,255.05737,235.65842,257.25641,235.25144,259.4682Z" fill="#dd765e"/><path d="M232.86655,257.81488a21.87453,21.87453,0,0,1,.43677-5.61621,16.64308,16.64308,0,0,1,1.942-5.2898c-.52637,1.80811-.96264,3.59424-1.328,5.41492C233.54367,254.14068,233.2341,255.9682,232.86655,257.81488Z" fill="#dd765e"/><path d="M166.74088,254.60781s-17.19752,5.60679-22.279,22.73036a181.31789,181.31789,0,0,0-7.58806,59.94157s35.81324,13.97252,50.51249-1.83812c0,0,20.39279-55.671-1.47792-77.09975C185.90838,258.34187,201.74066,295.37352,166.74088,254.60781Z" fill="#376f92"/><path d="M162.15915,286.36847a85.03148,85.03148,0,0,0,7.3302,11.03723,42.8941,42.8941,0,0,0,4.42749,4.87781,23.16772,23.16772,0,0,0,5.26135,3.79724l-.49072.076,9.81567-9.35523,9.89783-9.26806-.02771.61071c-2.96826-3.33191-5.9425-6.67407-9.04565-9.88647-1.55713-1.60034-3.12207-3.1947-4.75122-4.72009-.81739-.759-1.64954-1.50367-2.525-2.19324a16.44786,16.44786,0,0,0-1.358-.97046,3.23756,3.23756,0,0,0-1.53381-.60669,3.2809,3.2809,0,0,1,1.58435.51965,13.40988,13.40988,0,0,1,1.42126.9054c.91284.655,1.78223,1.36572,2.63745,2.09143,1.71118,1.45154,3.34485,2.98914,4.941,4.56177,3.18921,3.14978,6.30408,6.36877,9.28931,9.71655l.28174.316-.30957.29492-9.8169,9.35376-9.89929,9.26673-.22412.20983-.267-.13366a21.76686,21.76686,0,0,1-5.40735-4.0376,43.558,43.558,0,0,1-4.36059-5.07275,59.97813,59.97813,0,0,1-3.70008-5.54358C164.19162,290.31048,163.108,288.37213,162.15915,286.36847Z" fill="#10394f"/><path d="M169.09238,334.78741c1.57153-.91113,3.06592-1.91406,4.52783-2.94629a46.84011,46.84011,0,0,0,4.16284-3.35791,33.17378,33.17378,0,0,0,3.65894-3.871,32.29675,32.29675,0,0,0,2.97168-4.4812,17.81883,17.81883,0,0,1-2.34253,4.94287,23.09825,23.09825,0,0,1-3.61511,4.14819A26.73534,26.73534,0,0,1,169.09238,334.78741Z" fill="#10394f"/><path d="M168.04624,340.84991a44.33174,44.33174,0,0,0,4.063-2.15283,38.64294,38.64294,0,0,0,3.77625-2.53552,35.36724,35.36724,0,0,0,3.46728-2.93518c1.11585-1.03614,2.12818-2.17554,3.17444-3.32776a18.63145,18.63145,0,0,1-2.60949,3.86609,21.36582,21.36582,0,0,1-3.43213,3.196,22.56764,22.56764,0,0,1-4.012,2.423A17.48315,17.48315,0,0,1,168.04624,340.84991Z" fill="#10394f"/><path d="M196.79065,289.65959l6.12449,6.72691,6.3891-5.92739,7.97243,5.79829,11.168-25.15888,11.75483,3.73077-9.94352,35.174,23.37485,3.11528,11.777-4.10874a7.602,7.602,0,0,1,6.36186.35534l9.78484,3.79217a2.68715,2.68715,0,0,1-.73417,5.18245q-.25212.02295-.52179.0352a8.83825,8.83825,0,0,1-3.886-.83865c-2.54237-1.10109-7.54348-.98587-10.726.08186l-3.9039,2.10449a5.09392,5.09392,0,0,1-1.90547.59992c-2.2932.22864-4.5398.85011-6.30355.8144l-47.08746,2.32032a9.27206,9.27206,0,0,1-7.08705-2.547l-17.73373-16.96426Z" fill="#f9977a"/><path d="M202.91513,296.38653c1.89868,1.77869,3.72644,3.62256,5.537,5.48206,1.82446,1.84692,3.59082,3.74707,5.35522,5.64892l-.302-.15637c2.80274.35449,5.6023.73438,8.39417,1.17383l4.18518.67993c1.39062.26209,2.785.493,4.17138.78845-1.416-.06286-2.82385-.1903-4.23547-.28674l-4.22168-.39538c-2.81262-.27735-5.61767-.61426-8.41943-.97657l-.18152-.02356-.121-.13305c-1.74451-1.92017-3.48719-3.842-5.17176-5.81726C206.20688,300.40814,204.52548,298.43,202.91513,296.38653Z" fill="#dd765e"/><rect x="98.23534" y="415.12791" width="85.14034" height="8.29486" transform="translate(-299.44393 461.68321) rotate(-76.93852)" fill="#ffba55"/><rect x="242.81907" y="376.9853" width="8.2926" height="84.58009" transform="translate(-77.38444 56.53452) rotate(-11.30262)" fill="#ffba55"/><path d="M251.27818,380.57156,170.91787,383.715a39.376,39.376,0,0,1-38.95532-27.07829L100,259.15091s23.886-4.6445,38.483,45.11806c5.778,19.69768,16.02625,32.11816,26.3005,39.93625a66.25061,66.25061,0,0,0,38.62953,13.15651C219.4915,357.7432,256.49305,360.75509,251.27818,380.57156Z" fill="#f73c4f"/><rect x="386.01575" y="329.59318" width="8.36938" height="132.7578" fill="#935b50"/><rect x="198.89791" y="323.17428" width="211.51066" height="6.41891" rx="1.44287" fill="#935b50"/><rect x="215.58899" y="329.59318" width="8.36938" height="132.7578" fill="#935b50"/><path d="M208.91256,329.59318H400.96619a0,0,0,0,1,0,0V347.7028a2.88575,2.88575,0,0,1-2.88575,2.88575H211.79831a2.88575,2.88575,0,0,1-2.88575-2.88575V329.59318a0,0,0,0,1,0,0Z" fill="#c38f86"/><path d="M400.64949,322.64461s17.8553-111.38307-62.49355-101.60516v17.21761" fill="none" stroke="#fec165" stroke-linecap="round" stroke-linejoin="round" stroke-width="0.79412"/><path d="M318.51751,256.21867h40.68216a20.4825,20.4825,0,0,0-40.68216,0Z" fill="#fec165"/><path d="M378.68464,321.44009h25.1533a0,0,0,0,1,0,0v.90639a.79412.79412,0,0,1-.79412.79412H379.47876a.79412.79412,0,0,1-.79412-.79412v-.90639A0,0,0,0,1,378.68464,321.44009Z" transform="translate(782.52257 644.58067) rotate(-180)" fill="#fec165"/><polygon points="367.853 323.155 353.34 323.155 348.45 297.453 372.743 297.453 367.853 323.155" fill="#e19974"/><polygon points="372.185 300.387 372.743 297.453 348.45 297.453 349.008 300.387 372.185 300.387" fill="#d6694b"/><rect x="352.33235" y="310.97078" width="4.33573" height="4.33573" transform="translate(325.25317 -158.95332) rotate(45)" fill="#d6694b"/><rect x="358.46401" y="310.97078" width="4.33573" height="4.33573" transform="translate(327.04909 -163.28906) rotate(45)" fill="#d6694b"/><rect x="364.52505" y="310.97078" width="4.33573" height="4.33573" transform="translate(328.82433 -167.57486) rotate(45)" fill="#d6694b"/><path d="M366.25005,275.82354s1.27443,18.00466-6.19514,21.82034C360.05491,297.64388,357.469,290.8177,366.25005,275.82354Z" fill="#558031"/><path d="M342.14715,283.55756s12.21986,2.10842,17.90776,14.08632C360.05491,297.64388,346.61722,293.07989,342.14715,283.55756Z" fill="#849f4c"/><path d="M346.48,307.14126s6.21463-9.29734,13.57492-9.49738C360.05491,297.64388,358.94685,305.13,346.48,307.14126Z" fill="#a6b862"/><path d="M354.14585,278.3899s8.62284,7.873,5.90906,19.254C360.05491,297.64388,355.27817,292.5806,354.14585,278.3899Z" fill="#849f4c"/><path d="M360.05491,297.64388s3.02951-11.08981,18.34444-13.93353C378.39935,283.71035,374.95281,293.8078,360.05491,297.64388Z" fill="#a6b862"/><path d="M382.4563,294.74492s-11.68485-4.81717-22.40139,2.899C360.05491,297.64388,374.30141,299.35431,382.4563,294.74492Z" fill="#849f4c"/><path d="M382.35,305.95983s-5.64206-9.03726-22.29509-8.31595Z" fill="#558031"/><path d="M335.85311,296.18105s15.34585-5.69018,24.40261,1.19075C360.25572,297.3718,351.65609,302.10858,335.85311,296.18105Z" fill="#558031"/><path d="M348.43709,279.70461s13.69317,9.68478,11.72886,17.94714C360.166,297.65175,350.66606,290.03485,348.43709,279.70461Z" fill="#558031"/><path d="M372.4574,307.28352s-11.28846-1.92719-12.40249-9.63964C360.05491,297.64388,368.30306,298.05241,372.4574,307.28352Z" fill="#849f4c"/><path d="M334.39761,319.52679v.34a3.27057,3.27057,0,0,1-3.26937,3.26937H321.307a3.27057,3.27057,0,0,1-3.26937-3.26937V306.63238A3.27057,3.27057,0,0,1,321.307,303.363h9.82121a3.27057,3.27057,0,0,1,3.26937,3.26938v12.89441Z" fill="#f65b2b"/><path d="M339.81158,306.73689h-5.41394v1.96163h4.43313v8.86658h-4.43313v1.96163h5.41394a.97943.97943,0,0,0,.98081-.98082v-10.8282A.97954.97954,0,0,0,339.81158,306.73689Z" fill="#e5caf3"/><rect x="326.21763" y="310.13222" width="4.06333" height="4.06333" rx="0.65387" fill="#ffba55"/><rect x="327.78977" y="303.36285" width="0.91992" height="6.76953" fill="#e5caf3"/><line x1="100" y1="462.35098" x2="600" y2="462.35098" fill="none" stroke="#935b50" stroke-linecap="round" stroke-linejoin="round" stroke-width="2"/></svg>