<svg id="Layer_1" data-name="Layer 1" xmlns="http://www.w3.org/2000/svg" viewBox="0 0 700 550"><title>lady in the office</title><path d="M408.90491,451.82729c14.26693-4.46006,27.06766-9.0167,42.46717-17.66466,15.88239-8.92013,86.43567-51.36974,95.61041-124.83787a140.13674,140.13674,0,0,0-5.84725-59.8421c-2.83583-8.31433-8.71819-25.01323-23.56458-41.52775-18.17388-20.22832-38.91142-28.06855-51.07124-32.50227a147.36062,147.36062,0,0,0-57.26088-8.50748c-11.02725.36-30.49173,1.16769-52.61646,10.83409-14.43374,6.30379-23.40655,13.49432-36.6287,24.24061-20.94825,17.04131-23.70506,24.13527-60.35133,59.32411-10.06148,9.65762-18.33191,17.26957-30.957,24.7674-8.75331,5.19755-15.82971,8.10361-28.88505,13.40652-32.08963,13.03779-41.22624,15.67762-51.7267,23.01741-20.42147,14.28449-19.09875,29.86244-19.97672,33.21626a65.95875,65.95875,0,0,0-1.554,26.31262c2.67779,17.62076,12.16859,29.13966,18.05974,36.11071a99.29622,99.29622,0,0,0,28.885,23.21339,184.58849,184.58849,0,0,0,23.66994,10.439Z" fill="#ffe3cb"/><path d="M454.21133,439.39355l-.45313-.80664c20.98145-11.78613,90.15332-55.9707,99.3545-129.69043a146.01524,146.01524,0,0,0-6.06836-62.124c-2.61426-7.665-8.73438-25.61523-24.44434-43.0957-19.24023-21.40918-41.209-29.42285-53.01172-33.72754a152.87474,152.87474,0,0,0-59.47168-8.83789c-10.90527.35449-31.2041,1.01367-54.63672,11.24512l-.37109-.84766c23.59668-10.30274,44.792-10.99121,54.97851-11.32129a153.6773,153.6773,0,0,1,59.81739,8.89258c11.8789,4.333,33.98926,12.39746,53.38281,33.97754,15.83691,17.62207,22,35.69726,24.63184,43.416a146.98479,146.98479,0,0,1,6.11132,62.53809C544.77578,383.16016,475.28848,427.55371,454.21133,439.39355Z" fill="#ffe3cb"/><rect x="216.63948" y="157.22071" width="138.47281" height="105.09098" rx="6.2963" fill="#e5e1e5"/><rect x="216.63906" y="169.70996" width="138.47363" height="0.57227" fill="#a2aee6"/><path d="M224.46979,166.80254c3.31475,0,3.32024-5.15152,0-5.15152-3.31476,0-3.32025,5.15152,0,5.15152Z" fill="#ffba55"/><path d="M233.05565,166.80254c3.31476,0,3.32025-5.15152,0-5.15152-3.31475,0-3.32025,5.15152,0,5.15152Z" fill="#f73c4f"/><path d="M241.06912,166.80254c3.31476,0,3.32025-5.15152,0-5.15152-3.31475,0-3.32024,5.15152,0,5.15152Z" fill="#4f66d0"/><rect x="224.46979" y="178.65103" width="121.57583" height="28.43638" fill="#a2aee6"/><rect x="224.47012" y="216.85352" width="53.16309" height="0.57227" fill="#a2aee6"/><rect x="224.47012" y="225.50781" width="53.16309" height="0.57227" fill="#a2aee6"/><rect x="224.47012" y="234.16211" width="53.16309" height="0.57227" fill="#a2aee6"/><rect x="224.47012" y="243.04492" width="53.16309" height="0.57227" fill="#a2aee6"/><rect x="224.47012" y="251.7002" width="53.16309" height="0.57227" fill="#a2aee6"/><rect x="293.61664" y="214.5056" width="52.42898" height="35.43952" fill="#a2aee6"/><rect x="406.83025" y="103.94914" width="169.78031" height="128.85112" rx="7.71984" fill="#e5e1e5"/><rect x="406.83047" y="119.2627" width="169.78027" height="0.70117" fill="#a2aee6"/><path d="M416.43092,115.69734c4.0642,0,4.07093-6.31624,0-6.31624-4.06419,0-4.07092,6.31624,0,6.31624Z" fill="#ffba55"/><path d="M426.958,115.69734c4.06419,0,4.07092-6.31624,0-6.31624-4.0642,0-4.07093,6.31624,0,6.31624Z" fill="#f73c4f"/><path d="M436.78323,115.69734c4.06419,0,4.07092-6.31624,0-6.31624-4.0642,0-4.07093,6.31624,0,6.31624Z" fill="#4f66d0"/><rect x="416.43105" y="177.06445" width="65.18359" height="0.70117" fill="#a2aee6"/><rect x="416.43105" y="187.67578" width="65.18359" height="0.70117" fill="#a2aee6"/><rect x="416.43105" y="198.28711" width="65.18359" height="0.70117" fill="#a2aee6"/><rect x="416.43105" y="209.17871" width="65.18359" height="0.70117" fill="#a2aee6"/><rect x="416.43105" y="219.78906" width="65.18359" height="0.70117" fill="#a2aee6"/><rect x="501.21127" y="174.18564" width="64.28272" height="43.45208" fill="#a2aee6"/><rect x="415.28508" y="132.21444" width="31.75797" height="31.75797" fill="#a2aee6"/><rect x="455.57261" y="132.21444" width="31.75797" height="31.75797" fill="#a2aee6"/><rect x="496.82145" y="132.21444" width="31.75797" height="31.75797" fill="#a2aee6"/><rect x="536.47035" y="132.21444" width="31.75797" height="31.75797" fill="#a2aee6"/><path d="M556.22627,453.54664H124.26741a.878.878,0,1,1,0-1.75593H556.22627a.878.878,0,0,1,0,1.75593Z" fill="#935b50"/><polygon points="264.258 367.479 214.05 367.479 214.05 339.447 264.167 339.447 264.258 367.479" fill="#935b50"/><rect x="202.90579" y="268.32077" width="72.0122" height="68.14578" rx="6.04129" fill="#d6694b"/><rect x="198.55606" y="359.1818" width="80.71166" height="8.29671" rx="1.34251" fill="#d6694b"/><rect x="203.8724" y="367.47851" width="69.83734" height="5.23579" rx="1.34251" fill="#935b50"/><rect x="234.80382" y="372.7143" width="7.73285" height="52.19676" fill="#d6694b"/><polygon points="242.537 429.057 292.119 446.525 292.119 440.243 242.537 424.911 234.804 424.911 185.181 440.243 185.181 446.525 234.804 429.057 242.537 429.057" fill="#935b50"/><rect x="232.99143" y="422.97785" width="11.35763" height="8.21616" rx="1.34251" fill="#e19974"/><rect x="329.97179" y="332.79251" width="7.61264" height="120.75413" fill="#935b50"/><rect x="123.38944" y="326.95398" width="228.76962" height="5.83852" rx="1.31241" fill="#935b50"/><rect x="138.57135" y="332.79251" width="7.61264" height="120.75413" fill="#935b50"/><path d="M132.49859,332.79251H343.57044a0,0,0,0,1,0,0v15.12968a2.62483,2.62483,0,0,1-2.62483,2.62483H135.12341a2.62483,2.62483,0,0,1-2.62483-2.62483V332.79251a0,0,0,0,1,0,0Z" fill="#c38f86"/><rect x="178.39157" y="439.27591" width="7.37038" height="13.04919" rx="1.67814" fill="#d6694b"/><rect x="291.53826" y="439.27591" width="7.37038" height="13.04919" rx="1.67814" transform="translate(590.4469 891.60101) rotate(-180)" fill="#d6694b"/><path d="M483.53759,244.64812V453.54664h47.22769V244.64812a2.2662,2.2662,0,0,0-2.2662-2.2662H485.80379A2.2662,2.2662,0,0,0,483.53759,244.64812Z" fill="#935b50"/><rect x="486.14375" y="280.38611" width="42.01536" height="31.20558" rx="2.2662" fill="#e19974"/><rect x="486.14375" y="245.78122" width="42.01536" height="31.20558" rx="2.2662" fill="#e19974"/><path d="M525.49026,273.02631a1.4,1.4,0,1,1-1.97827,1.9783c.49841-.71631.55969-.98963.7782-1.2C524.50283,273.58853,524.77822,273.52484,525.49026,273.02631Z" fill="#d6694b"/><path d="M523.512,247.76343a1.4,1.4,0,1,1,1.97827,1.9783c-.71631-.49841-.98963-.55975-1.20007-.77826C524.07424,248.75092,524.01052,248.47543,523.512,247.76343Z" fill="#d6694b"/><path d="M488.81265,249.74173a1.4,1.4,0,1,1,1.97827-1.9783c-.49842.71631-.55982.98959-.77832,1.2C489.80007,249.1795,489.52456,249.24319,488.81265,249.74173Z" fill="#d6694b"/><path d="M490.79092,275.00461a1.4,1.4,0,1,1-1.97827-1.9783c.71631.49841.9895.55975,1.2.77826C490.22866,274.01712,490.29238,274.2926,490.79092,275.00461Z" fill="#d6694b"/><path d="M525.49026,307.6312a1.4,1.4,0,1,1-1.97827,1.9783c.49841-.71631.55969-.98963.7782-1.20008C524.50283,308.19342,524.77822,308.12973,525.49026,307.6312Z" fill="#d6694b"/><path d="M523.512,282.36829a1.4,1.4,0,1,1,1.97827,1.9783c-.71631-.49838-.98963-.55972-1.20007-.77823C524.07424,283.3558,524.01052,283.08032,523.512,282.36829Z" fill="#d6694b"/><path d="M488.81265,284.34659a1.4,1.4,0,1,1,1.97827-1.9783c-.49842.7163-.55982.98962-.77832,1.20007C489.80007,283.78439,489.52456,283.84808,488.81265,284.34659Z" fill="#d6694b"/><path d="M490.79092,309.6095a1.4,1.4,0,1,1-1.97827-1.9783c.71631.49841.9895.55972,1.2.77822C490.22866,308.622,490.29238,308.89749,490.79092,309.6095Z" fill="#d6694b"/><rect x="486.14375" y="349.59588" width="42.01536" height="31.20558" rx="2.2662" fill="#e19974"/><rect x="486.14375" y="384.20076" width="42.01536" height="31.20558" rx="2.2662" fill="#e19974"/><rect x="500.69276" y="257.13489" width="12.91734" height="4.75902" rx="0.87797" fill="#d6694b"/><rect x="500.69276" y="360.94954" width="12.91734" height="4.75902" rx="0.87797" fill="#d6694b"/><rect x="500.69276" y="395.55443" width="12.91734" height="4.75902" rx="0.87797" fill="#d6694b"/><rect x="500.69276" y="291.73977" width="12.91734" height="4.75902" rx="0.87797" fill="#d6694b"/><path d="M525.49026,376.84094a1.4,1.4,0,1,1-1.97827,1.97833c.49841-.7163.55969-.98962.7782-1.20007C524.50283,377.4032,524.77822,377.33948,525.49026,376.84094Z" fill="#d6694b"/><path d="M523.512,351.57806a1.4,1.4,0,1,1,1.97827,1.97831c-.71631-.49839-.98963-.55973-1.20007-.77823C524.07424,352.56558,524.01052,352.29007,523.512,351.57806Z" fill="#d6694b"/><path d="M488.81265,353.55637a1.4,1.4,0,1,1,1.97827-1.97831c-.49842.71631-.55982.98963-.77832,1.20008C489.80007,352.99417,489.52456,353.05786,488.81265,353.55637Z" fill="#d6694b"/><path d="M490.79092,378.81927a1.4,1.4,0,1,1-1.97827-1.97833c.71631.49842.9895.55976,1.2.77826C490.22866,377.83179,490.29238,378.10724,490.79092,378.81927Z" fill="#d6694b"/><path d="M525.49026,411.44586a1.4,1.4,0,1,1-1.97827,1.97827c.49841-.71631.55969-.98962.7782-1.2C524.50283,412.00806,524.77822,411.9444,525.49026,411.44586Z" fill="#d6694b"/><path d="M523.512,386.183a1.4,1.4,0,1,1,1.97827,1.97827c-.71631-.49841-.98963-.55975-1.20007-.77825C524.07424,387.17047,524.01052,386.895,523.512,386.183Z" fill="#d6694b"/><path d="M488.81265,388.16125a1.4,1.4,0,1,1,1.97827-1.97827c-.49842.71631-.55982.98957-.77832,1.2C489.80007,387.59906,489.52456,387.66272,488.81265,388.16125Z" fill="#d6694b"/><path d="M490.79092,413.42413a1.4,1.4,0,1,1-1.97827-1.97827c.71631.49841.9895.55976,1.2.77826C490.22866,412.43665,490.29238,412.71216,490.79092,413.42413Z" fill="#d6694b"/><path d="M497.23955,403.749s23.053.46781,26.55521-3.42753c0,0-7.54916,27.04729-1.85006,40.31751l-25.64026-2.70765S499.3029,416.98386,497.23955,403.749Z" fill="#7ca1b1"/><path d="M491.59479,407.06255s23.053.46782,26.55521-3.42753c0,0-7.54916,27.04729-1.85006,40.31752l-25.64026-2.70766S493.65814,420.29738,491.59479,407.06255Z" fill="#f65b2b"/><path d="M494.47837,409.60878s23.053.46781,26.55521-3.42753c0,0-7.54916,27.04729-1.85006,40.31751l-25.64026-2.70766S496.54172,422.8436,494.47837,409.60878Z" fill="#fff"/><path d="M497.30075,301.55511s23.053.46781,26.55522-3.42753c0,0-7.54917,27.04729-1.85007,40.31751l-25.64026-2.70765S499.3641,314.78993,497.30075,301.55511Z" fill="#ffba55"/><path d="M491.656,304.86862s23.053.46782,26.55521-3.42753c0,0-7.54916,27.04729-1.85006,40.31752L490.72088,339.051S493.71934,318.10345,491.656,304.86862Z" fill="#f65b2b"/><path d="M494.53958,307.41485s23.053.46781,26.55521-3.42753c0,0-7.54917,27.04729-1.85007,40.31751l-25.64026-2.70766S496.60293,320.64967,494.53958,307.41485Z" fill="#fff"/><rect x="486.14375" y="418.80565" width="42.01536" height="31.20558" rx="2.2662" fill="#e19974"/><rect x="500.69276" y="430.15931" width="12.91734" height="4.75902" rx="0.87797" fill="#d6694b"/><path d="M525.49026,446.05072a1.4,1.4,0,1,1-1.97827,1.97833c.49841-.71631.55969-.98962.7782-1.20007C524.50283,446.613,524.77822,446.54926,525.49026,446.05072Z" fill="#d6694b"/><path d="M523.512,420.78784a1.4,1.4,0,1,1,1.97827,1.97827c-.71631-.49835-.98963-.55969-1.20007-.77819C524.07424,421.77533,524.01052,421.49988,523.512,420.78784Z" fill="#d6694b"/><path d="M488.81265,422.76611a1.4,1.4,0,1,1,1.97827-1.97827c-.49842.71631-.55982.98963-.77832,1.20008C489.80007,422.20392,489.52456,422.26764,488.81265,422.76611Z" fill="#d6694b"/><path d="M490.79092,448.02905a1.4,1.4,0,1,1-1.97827-1.97833c.71631.49841.9895.55975,1.2.77826C490.22866,447.04156,490.29238,447.317,490.79092,448.02905Z" fill="#d6694b"/><rect x="486.14375" y="314.99099" width="42.01536" height="31.20558" rx="2.2662" fill="#e19974"/><rect x="500.69276" y="326.34466" width="12.91734" height="4.75902" rx="0.87797" fill="#d6694b"/><path d="M525.49026,342.23608a1.4,1.4,0,1,1-1.97827,1.97831c.49841-.71631.55969-.98963.7782-1.20008C524.50283,342.79828,524.77822,342.73462,525.49026,342.23608Z" fill="#d6694b"/><path d="M523.512,316.97318a1.4,1.4,0,1,1,1.97827,1.9783c-.71631-.49839-.98963-.55973-1.20007-.77823C524.07424,317.96069,524.01052,317.68518,523.512,316.97318Z" fill="#d6694b"/><path d="M488.81265,318.95148a1.4,1.4,0,1,1,1.97827-1.9783c-.49842.7163-.55982.98962-.77832,1.20007C489.80007,318.38928,489.52456,318.453,488.81265,318.95148Z" fill="#d6694b"/><path d="M490.79092,344.21439a1.4,1.4,0,1,1-1.97827-1.97831c.71631.49839.9895.55973,1.2.77823C490.22866,343.22687,490.29238,343.50238,490.79092,344.21439Z" fill="#d6694b"/><path d="M421.18691,426.56438l.20169,8.94857s11.67822,9.39685,26.41986,11.95059c0,0,4.53477,2.13,4.61016,5.47476l-44.23619-.1107-.391-17.34868-.20168-8.94856Z" fill="#f9977a"/><path d="M451.66648,450.67178l-43.4845-.10637a1.02466,1.02466,0,0,0-1.02692,1.04775l.00485.21531a1.02468,1.02468,0,0,0,1.0219,1.00158l44.84851.10991S454.249,451.57,451.66648,450.67178Z" fill="#84382a"/><path d="M433.97048,450.229a4.66582,4.66582,0,0,1-.15853-3.23423c.80624-2.42813,3.50128-3.42924,3.8056-3.53552a1.37052,1.37052,0,0,1,.91327,2.58222,3.86653,3.86653,0,0,0-2.20757,1.89936,2.3809,2.3809,0,0,0,.43737,1.98552,1.36386,1.36386,0,0,1-.40275,1.872,1.32389,1.32389,0,0,1-1.83188-.46214A7.07764,7.07764,0,0,1,433.97048,450.229Z" fill="#84382a"/><path d="M406.56281,435.95966a1.36629,1.36629,0,0,1,.35348-1.528,1.30633,1.30633,0,0,1,1.87112.17374c1.68051,2.01153,3.48778,3.05377,5.37332,3.09829,3.42475.081,6.19654-3.07684,6.2245-3.10791a1.29839,1.29839,0,0,1,1.86891-.08979,1.39391,1.39391,0,0,1,.13883,1.92284c-.14309.16814-3.56241,4.09981-8.20476,4.00146-2.69311-.05723-5.18038-1.42942-7.39305-4.07885A1.40359,1.40359,0,0,1,406.56281,435.95966Z" fill="#84382a"/><path d="M406.5633,435.9609a1.37647,1.37647,0,0,1,.22961-1.40618,1.29683,1.29683,0,0,1,1.87161-.07935c.33843.31288,8.286,7.77837,6.39179,16.43358a1.28853,1.28853,0,0,1-1.58413.98985,1.40547,1.40547,0,0,1-1.00373-1.65446c1.551-7.0939-5.48029-13.69691-5.5504-13.76285A1.40527,1.40527,0,0,1,406.5633,435.9609Z" fill="#84382a"/><path d="M370.04068,425.6971l-1.60011,8.80666s2.59824,5.5702,16.52633,11.03332c0,0,9.47676,4.71781,8.87867,8.00956l-8.774-.18411-33.04628-4.55009,3.10214-17.07355,1.6001-8.80666Z" fill="#f9977a"/><path d="M392.64684,450.8381l-10.80375.25679-29.20865-4.48a.80632.80632,0,0,0-.91888.67242l-.10086.645c-.06877.43975-.30913,1.16491.36276,1.50457l30.17951,4.10977h11.6886S394.99624,452.23685,392.64684,450.8381Z" fill="#84382a"/><path d="M378.97965,450.15851a4.66586,4.66586,0,0,1,.49443-3.20015c1.27759-2.21666,4.11881-2.656,4.43827-2.69893a1.37053,1.37053,0,0,1,.37591,2.71305,3.86649,3.86649,0,0,0-2.54413,1.41716,2.38085,2.38085,0,0,0,.02959,2.0329,1.36386,1.36386,0,0,1-.77062,1.753,1.32387,1.32387,0,0,1-1.70169-.82072A7.07851,7.07851,0,0,1,378.97965,450.15851Z" fill="#84382a"/><path d="M353.82728,431.963a1.3663,1.3663,0,0,1,.65324-1.42582,1.30633,1.30633,0,0,1,1.79807.54609c1.24215,2.30812,2.80321,3.69217,4.64136,4.11457,3.33866.76735,6.68833-1.76929,6.722-1.79411a1.29838,1.29838,0,0,1,1.84884.28748,1.39392,1.39392,0,0,1-.25028,1.91154c-.17394.136-4.31339,3.30057-8.84135,2.27163-2.62671-.59708-4.7876-2.441-6.42293-5.48089A1.40385,1.40385,0,0,1,353.82728,431.963Z" fill="#84382a"/><path d="M353.82751,431.96432a1.37648,1.37648,0,0,1,.50742-1.33138,1.29684,1.29684,0,0,1,1.8494.29825c.26868.37449,6.55445,9.28436,2.96014,17.38261a1.28853,1.28853,0,0,1-1.75069.65143,1.40548,1.40548,0,0,1-.6509-1.82237c2.94446-6.6377-2.617-14.51862-2.67242-14.5973A1.40527,1.40527,0,0,1,353.82751,431.96432Z" fill="#84382a"/><path d="M448.663,337.4109l-10.13318,5.46988h0a5.93609,5.93609,0,0,0-6.8355.90085l-2.34692,2.18931-13.14456-.41185c10.35309-5.95571,2.93089-42.67877-1.75559-58.94633-3.03979-10.55167-4.70621-22.85272-3.84758-29.09884.8331-6.067-.65634-6.09226-3.68123-14.665-1.18131-3.35031.46164-17.01509-1.14131-24.2271-2.038-9.1739,14.92236,4.60222,16.59031,7.999,4.6958,9.563,7.68,26.53244,7.012,32.98378-1.57946,15.25337,13.927,42.09006,15.9251,49.24769C448.39083,319.91165,451.92716,323.81882,448.663,337.4109Z" fill="#376f92"/><path d="M442.96694,337.24106c-.1427-3.49683-.09057-6.96414-.09729-10.42914.01685-1.73242-.01074-3.46094-.04028-5.18893a37.0714,37.0714,0,0,0-.38477-5.17771,18.39145,18.39145,0,0,1,1.16333,5.12491,48.53925,48.53925,0,0,1,.26111,5.24283A59.16254,59.16254,0,0,1,442.96694,337.24106Z" fill="#10394f"/><path d="M425.77346,343.15637c.17627-1.06354.39795-2.1131.58411-3.17132l.636-3.15235,1.27613-6.29181c.442-2.09225.82593-4.19259,1.21484-6.29178.20313-1.04965.35144-2.10455.50342-3.1625l.20129-1.59064.12317-1.60464c.0564.53326.11511,1.07211.14173,1.61242l.02258,1.62183c-.05383,1.07715-.11817,2.15686-.23035,3.22949-.21277,2.14795-.57446,4.27466-.99719,6.38413-.442,2.10608-.91895,4.204-1.511,6.27185C427.15811,339.08139,426.53848,341.14108,425.77346,343.15637Z" fill="#10394f"/><path d="M433.65884,313.40295c-.3534-2.01431-.694-4.02682-1.098-6.02853-.36756-2.007-.75843-4.00943-1.18946-6.00256-.84948-3.98761-1.70154-7.97443-2.77636-11.90345-1.01148-3.9439-2.16224-7.85125-3.50086-11.69448-.31091-.96982-.70215-1.90845-1.04968-2.86545l-.53711-1.42987-.6084-1.3992c-.41113-.92984-.749-1.8993-1.22241-2.801q-.68592-1.365-1.346-2.75229a62.56861,62.56861,0,0,1,5.48523,10.98151,118.29576,118.29576,0,0,1,3.74573,11.70883c1.00012,3.97388,1.87134,7.97794,2.56213,12.0127C432.80264,305.265,433.37283,309.321,433.65884,313.40295Z" fill="#10394f"/><path d="M375.12776,281.96527,354.48,427.28c-.14507,3.35294,13.96057,7.22376,15.28,3.84l27.23652-124.88575,8.24349,116.698c.06333,1.05618.85672,8.64732,1.9148,8.64732h14.112a.98916.98916,0,0,0,.97606-.77695,41.69752,41.69752,0,0,0,.471-7.00882l-1.32834-141.82851Z" fill="#376f92"/><path d="M369.794,357.70584a25.04434,25.04434,0,0,0,3.469.60944,18.6361,18.6361,0,0,0,3.49183.06326,12.84874,12.84874,0,0,0,3.38879-.73581,10.75794,10.75794,0,0,0,2.985-1.80374,8.60055,8.60055,0,0,1-2.86193,2.10165,11.97437,11.97437,0,0,1-3.47779.85511A16.25715,16.25715,0,0,1,369.794,357.70584Z" fill="#10394f"/><path d="M367.927,364.37314c1.35351-.041,2.70019-.153,4.03967-.29059a33.934,33.934,0,0,0,3.98205-.62634,18.98622,18.98622,0,0,0,3.8368-1.163,10.06409,10.06409,0,0,0,3.343-2.18719,8.69067,8.69067,0,0,1-3.20971,2.48071,17.32581,17.32581,0,0,1-3.88257,1.27878,29.28389,29.28389,0,0,1-8.10925.5076Z" fill="#10394f"/><path d="M404.73062,358.63654a25.85674,25.85674,0,0,0,3.00378.313,20.36952,20.36952,0,0,0,2.997-.06716,14.9965,14.9965,0,0,0,5.73364-1.64466,10.10318,10.10318,0,0,1-2.697,1.42053,13.2524,13.2524,0,0,1-2.99793.64093A15.29987,15.29987,0,0,1,404.73062,358.63654Z" fill="#10394f"/><path d="M404.73062,364.3848a21.53375,21.53375,0,0,0,3.50512.67721,26.16414,26.16414,0,0,0,3.55237.18122,27.90474,27.90474,0,0,0,3.55042-.24927c1.18286-.13474,2.34912-.37857,3.52673-.60916a21.34321,21.34321,0,0,1-3.478.92782,23.178,23.178,0,0,1-3.59473.34918,21.98789,21.98789,0,0,1-3.60217-.28216A14.21206,14.21206,0,0,1,404.73062,364.3848Z" fill="#10394f"/><path d="M391.396,301.96716c1.37427,1.07657,2.8075,2.07025,4.25794,3.029a48.53461,48.53461,0,0,0,4.48522,2.64971,32.98753,32.98753,0,0,0,4.76172,2.07828,20.5435,20.5435,0,0,0,5.089,1.04383,16.97743,16.97743,0,0,1-5.18664-.73661,29.72114,29.72114,0,0,1-4.858-2.01458,41.44208,41.44208,0,0,1-4.47192-2.75541A38.489,38.489,0,0,1,391.396,301.96716Z" fill="#10394f"/><path d="M381.52834,310.768c1.99561-.32145,3.986-.60236,5.9419-1.04355a24.74083,24.74083,0,0,0,2.89453-.77262,7.287,7.287,0,0,0,2.63135-1.38412,5.9654,5.9654,0,0,1-2.518,1.68591,19.70365,19.70365,0,0,1-2.91906.87988A29.06956,29.06956,0,0,1,381.52834,310.768Z" fill="#10394f"/><path d="M400.6929,309.16788a6.04184,6.04184,0,0,0,1.59448,3.26019,12.55578,12.55578,0,0,0,2.8042,2.36307c.507.34781,1.05395.63852,1.5863.94919.55664.26855,1.10535.55386,1.66846.812,1.12756.51776,2.29028.95178,3.45154,1.41638-.60523-.15067-1.20411-.32776-1.80872-.49164-.59766-.18387-1.1781-.42-1.76965-.62833-.58972-.2142-1.1438-.51495-1.71753-.77-.54883-.30542-1.11267-.58939-1.639-.937a11.84845,11.84845,0,0,1-2.82385-2.51034A5.48053,5.48053,0,0,1,400.6929,309.16788Z" fill="#10394f"/><path d="M369.62776,221.72309s3.58209-2.42381,5.88-11.68211,3.11943-16.78925.05253-10.80473l-2.26156,4.59911s-1.424-7.53623-1.87918-12.10012a5.67952,5.67952,0,0,0-4.46022-5.07719c-2.23916-.43276-3.7665.57291-4.261,5.918-.73965,7.99436-.90261,12.23852-.50756,14.26585.13686.70236,2.23107,8.17961,2.23107,8.17961Z" fill="#f9977a"/><path d="M373.794,208.45355a7.15539,7.15539,0,0,1-.30884-1.1401,11.53335,11.53335,0,0,1-.17309-1.146c-.03284-.38382-.06629-.76706-.06311-1.155a8.691,8.691,0,0,1,.0498-1.17712,5.08377,5.08377,0,0,1,.39612,1.12,8.06775,8.06775,0,0,1,.19836,1.15351,8.56548,8.56548,0,0,1,.038,1.16778A5.88306,5.88306,0,0,1,373.794,208.45355Z" fill="#dd765e"/><path d="M369.699,199.36755a24.22865,24.22865,0,0,1-.49243-2.82638c-.12451-.94837-.18824-1.90286-.22327-2.85935a24.27911,24.27911,0,0,1,.06665-2.873,13.17428,13.17428,0,0,1,.50562-2.83127c-.1,1.91089-.04956,3.79007.01159,5.68607l.0857,2.844C369.67837,197.45767,369.7073,198.40854,369.699,199.36755Z" fill="#dd765e"/><path d="M366.8915,199.02429a23.32763,23.32763,0,0,1-.6792-3.069,26.48072,26.48072,0,0,1-.31884-3.132,17.73194,17.73194,0,0,1,.12292-3.15808,7.41809,7.41809,0,0,1,.94287-3.00717,10.74506,10.74506,0,0,0-.49511,3.04843c-.038,1.02826-.04163,2.06009.01294,3.09323C366.55337,194.8678,366.7488,196.933,366.8915,199.02429Z" fill="#dd765e"/><path d="M364.35732,198.07849a16.99538,16.99538,0,0,1-.60974-2.55807,22.52058,22.52058,0,0,1-.28564-2.61573,19.48409,19.48409,0,0,1,.05029-2.63556,12.84479,12.84479,0,0,1,.48926-2.58908c-.02124.87976-.05054,1.74228-.04,2.60724.02454.8646.03467,1.72647.084,2.58939l.14673,2.59207Z" fill="#dd765e"/><path d="M369.26052,214.49216l-5.86719-1.33345-7.791,27.92758c-2.5791,9.245,9.3863,15.357,15.37586,7.85723,2.3822-2.98291,4.05719-5.486,4.4162-6.98207l1.33349,15.73483-13.28039,90.509a66.6816,66.6816,0,0,0,29.5486,7.63372,70.80229,70.80229,0,0,0,32.1093-7.63372c-.39272-31.67117-3.75918-58.70145-3.62986-90,.01044-2.52693,2.21536-24.07918,2.19016-26.11142l11.95984,15.71866c5.64184,6.68347,16.04284,6.68347,21.11-5.051l8.0008-17.60169-11.20112-6.934-8.00073,12.80123L429.34164,206.545a20.93936,20.93936,0,0,0-17.46479-9.38783H387.46309a13.1778,13.1778,0,0,0-11.14574,6.14737Z" fill="#ffba55"/><path d="M357.29019,235.036c1.65527-3.62192,3.57226-7.0914,5.55346-10.5235,2.0072-3.4169,4.08008-6.79556,6.41687-10.02038-1.6532,3.62314-3.57055,7.09247-5.55346,10.52353C361.69814,228.43152,359.625,231.81,357.29019,235.036Z" fill="#e6952a"/><path d="M375.39443,241.96146c-.20617-2.28913-.30285-4.57822-.38281-6.86734-.09143-2.2891-.10437-4.57819-.11682-6.86731.01111-2.2891.02441-4.57822.115-6.86731l.13953-3.43369c.08313-1.14453.13171-2.28909.24511-3.43365.11341,1.14456.16211,2.28912.24512,3.43365l.13953,3.43369c.09057,2.28909.10388,4.57821.11511,6.86731-.01257,2.28912-.02551,4.57821-.11694,6.86731C375.69729,237.38324,375.60073,239.67233,375.39443,241.96146Z" fill="#e6952a"/><path d="M423.66567,232.09384c-1.64074-2.34027-3.19116-4.73477-4.72546-7.13891-1.54614-2.39707-3.02478-4.8346-4.50269-7.27262l-.025-.04126-.01282-.03644a20.58237,20.58237,0,0,1-.99524-4.39221,17.69233,17.69233,0,0,1,.05164-4.48874,13.32307,13.32307,0,0,1,1.4176-4.25122,11.23484,11.23484,0,0,1,2.92481-3.31488,12.25346,12.25346,0,0,0-2.48255,3.54022,12.7434,12.7434,0,0,0-1.08911,4.12171,19.52835,19.52835,0,0,0,.12293,4.275,20.65767,20.65767,0,0,0,.98034,4.15232l-.03772-.07734c1.45569,2.45127,2.91065,4.90308,4.2981,7.39536C420.98965,227.05,422.373,229.5448,423.66567,232.09384Z" fill="#e6952a"/><path d="M378.59475,274.49789c1.53906.50666,3.08692.96247,4.65991,1.32053.78015.19885,1.57019.35947,2.35327.54086l2.37232.43738a63.039,63.039,0,0,0,9.57666.84818c1.60315.06738,3.20093-.05545,4.80176-.12223.79773-.06454,1.59228-.16729,2.38952-.24887L405.943,277.14l1.18457-.20343c.78882-.142,1.58557-.25708,2.37134-.42138l2.33557-.598c.38989-.09894.78882-.17322,1.173-.29282l1.14685-.38049q1.14588-.38723,2.31067-.746a38.52927,38.52927,0,0,1-9.19348,3.19431l-1.19409.27493c-.40174.06961-.80738.11579-1.21118.17478-.80884.107-1.6167.23489-2.42823.32425-1.62951.098-3.26025.22955-4.89392.178a48.60759,48.60759,0,0,1-9.708-1.09545A42.78181,42.78181,0,0,1,378.59475,274.49789Z" fill="#e6952a"/><path d="M452.20181,235.036a16.78747,16.78747,0,0,0-2.84314-3.61383,3.26,3.26,0,0,0-1.81226-.8883,2.257,2.257,0,0,0-1.65063.82318l-.0282-.68851a9.471,9.471,0,0,1,1.759,2.5347,13.452,13.452,0,0,1,1.01306,2.84308,14.98631,14.98631,0,0,1,.0951,5.9151l-.0962-1.46253c-.06262-.48334-.09594-.96567-.18188-1.44064a19.58177,19.58177,0,0,0-.62122-2.7974,15.93161,15.93161,0,0,0-1.07165-2.616,10.469,10.469,0,0,0-1.56226-2.25916l-.38086-.40359.35254-.28519a4.11609,4.11609,0,0,1,1.07215-.80377,1.674,1.674,0,0,1,.665-.22385,1.81712,1.81712,0,0,1,.70838-.02988,3.77381,3.77381,0,0,1,2.24328,1.26011,9.85792,9.85792,0,0,1,1.38929,1.96978A13.32281,13.32281,0,0,1,452.20181,235.036Z" fill="#e6952a"/><path d="M454.94608,219.09923l5.87874-15.00806,9.26926-12.359a1.43259,1.43259,0,0,1,2.0129-.281h0a1.43259,1.43259,0,0,1,.32332,1.938l-5.20487,7.76845s7.23237-5.10072,7.74769,3.7902a2.48683,2.48683,0,0,1-2.0069,2.58552,7.41251,7.41251,0,0,0-2.45158.91386s.889,8.44525-4.62267,8.71194l-2.30943,7.28653Z" fill="#f9977a"/><path d="M459.48479,207.51219s.84518-6.1289.27167-7.69534a1.7438,1.7438,0,0,1,.08449-1.30179c.602-1.34865,1.8586-3.02889,2.91472,3.00164l-1.93085,2.57447Z" fill="#f9977a"/><path d="M390.91768,197.59083l-.66673-35.3367h26.26917v21.00322a8.33534,8.33534,0,0,1-8.33534,8.33535h-.59884l.13334,5.99813Z" fill="#f9977a"/><polygon points="407.586 191.593 403.386 191.593 407.719 197.591 407.586 191.593" fill="#dd765e"/><path d="M390.80451,191.5927s4.27106,6.4858,17.44816-13.2037c0,0-5.41879-2.9557-.63359-6.38167A2.76379,2.76379,0,0,1,409.08,171.49c.958-.05052,2.41724.095,2.50636,1.43185l4.9338-10.66768s5.06715,1.20011,4.80046-4.80046c0,0,5.2005-3.067-1.20011-5.73388,0,0,.26669-7.46738-6.80065-2.00019,0,0-4.80046-11.06772-17.0683,4.66711,0,0-20.0019,1.7335-10.53433,18.40176Z" fill="#1e1d22"/><circle cx="407.52656" cy="180.43332" r="2.78353" fill="#f73c4f"/><path d="M414.99557,342.08527l-11.16,2.83818h0a5.93606,5.93606,0,0,0-6.84914-.79048l-2.80933,1.552-12.64875-3.59973c11.49158-3.25586,13.23358-40.68095,12.64874-57.6-.37933-10.97426.9993-23.31088,3.35281-29.16,2.28516-5.68164.84668-6.06873,0-15.12-.33007-3.53711,4.59037-16.3907,4.79154-23.776.25683-9.394,1.77-20.63295,10.51414-21.83754,5.957-.82178,10.06594,4.37543,11.34133,6.56049,0,0-2.68821-2.13431-5.1241-1.2607-5.336,1.91371-3.37853,24.6346-2.58777,28.33525,2.22624,10.41846.98916,27.60388-1.22946,33.69846-5.24563,14.40983,3.26038,44.2143,3.4557,51.643C418.99205,325.04631,421.4707,329.69689,414.99557,342.08527Z" fill="#376f92"/><path d="M409.51223,340.53375c.713-3.42639,1.60767-6.77667,2.44483-10.139.43811-1.6762.83227-3.3594,1.22424-5.04263a37.07544,37.07544,0,0,0,.88733-5.11557,18.38663,18.38663,0,0,1-.11939,5.25391,48.51431,48.51431,0,0,1-1.02319,5.14868A59.16558,59.16558,0,0,1,409.51223,340.53375Z" fill="#10394f"/><path d="M391.396,342.085c.42981-.98862.90039-1.95264,1.33862-2.93368l1.38428-2.90265,2.76953-5.79178c.93823-1.92169,1.82178-3.86536,2.71009-5.8067.45275-.96857.85339-1.95563,1.25842-2.94477l.5824-1.49377.51013-1.52637c-.07508.531-.14942,1.06787-.25513,1.59839l-.37305,1.57855c-.31445,1.03162-.63964,2.06317-1.00952,3.07624-.72937,2.03152-1.598,4.00616-2.52148,5.94925-.94153,1.93508-1.91492,3.85372-2.99256,5.71527C393.7311,338.46976,392.62856,340.31659,391.396,342.085Z" fill="#10394f"/><path d="M385.11556,159.37723c-4.68,2.8769-8.72364,4.19719-10.44,14.708-.94158,5.76615-.94158,5.76615-.72,17.04.52918,26.91727-2.3764,32.48107-3.6,34.56-2.90033,4.92754-4.5232,4.15988-8.64,11.04-3.202,5.35132-6.427,10.74112-6.24,17.52.21131,7.66243,4.77863,16.98153,12.96,20.4,11.41279,4.76865,25.00135-3.97444,30.72-12.96,7.21753-11.34059,4.9873-27.91925,4.31994-32.88-.50549-3.75764-1.66565-9.57035-.48-17.52.129-.86511.43781-2.77453,2.64-10.32,4.99633-17.11929-2.9729-25.06608-7.68-31.44C394.0594,164.24938,387.82436,157.71205,385.11556,159.37723Z" fill="#1e1d22"/><path d="M409.51223,254.00528l.62488-9.91278c.18811-3.30219.40784-6.59934.55664-9.8988.15417-3.29853.25525-6.59687.27075-9.89448-.02124-1.64654-.04126-3.29626-.18677-4.93545a23.11144,23.11144,0,0,0-.78784-4.87161c1.29431,3.08365,1.52429,6.48791,1.74353,9.78668.16638,3.32291.09119,6.64633-.04138,9.962-.17468,3.31384-.42114,6.6221-.79211,9.91723C410.53787,247.45352,410.10781,250.7417,409.51223,254.00528Z" fill="#10394f"/><path d="M406.28811,315.14673c.14758-2.03977.30713-4.07465.40271-6.11447.13208-2.03611.24048-4.07346.30774-6.11154.147-4.07444.29114-8.14878.2052-12.22123-.02075-4.07147-.18567-8.14145-.54822-12.19491-.06543-1.01633-.21643-2.022-.32043-3.03479l-.17285-1.51761-.24939-1.50522c-.17249-1.00195-.264-2.02451-.50367-3.01431q-.33306-1.49094-.63537-2.99719a62.57158,62.57158,0,0,1,2.64648,11.98654,118.29648,118.29648,0,0,1,.78235,12.26846c.00244,4.09778-.12744,8.19348-.4397,12.275C407.43887,307.04517,407.00442,311.118,406.28811,315.14673Z" fill="#10394f"/><path d="M367.74,347.24a1.5009,1.5009,0,0,0,0-3,1.5009,1.5009,0,0,0,0,3Z" fill="#376f92"/><path d="M373.68,349.4a1.5009,1.5009,0,0,0,0-3,1.5009,1.5009,0,0,0,0,3Z" fill="#376f92"/><path d="M380.34,351.56a1.5009,1.5009,0,0,0,0-3,1.5009,1.5009,0,0,0,0,3Z" fill="#376f92"/><path d="M387.36,352.64a1.5009,1.5009,0,0,0,0-3,1.5009,1.5009,0,0,0,0,3Z" fill="#376f92"/><path d="M395.46,353a1.5009,1.5009,0,0,0,0-3,1.5009,1.5009,0,0,0,0,3Z" fill="#376f92"/><path d="M404.28,352.1a1.5009,1.5009,0,0,0,0-3,1.5009,1.5009,0,0,0,0,3Z" fill="#376f92"/><path d="M412.74,350.12a1.5009,1.5009,0,0,0,0-3,1.5009,1.5009,0,0,0,0,3Z" fill="#376f92"/><path d="M419.76,348.14a1.5009,1.5009,0,0,0,0-3,1.5009,1.5009,0,0,0,0,3Z" fill="#376f92"/><path d="M454.14,224.3a1.5009,1.5009,0,0,0,0-3,1.5009,1.5009,0,0,0,0,3Z" fill="#376f92"/><path d="M457.74,226.46a1.5009,1.5009,0,0,0,0-3,1.5009,1.5009,0,0,0,0,3Z" fill="#376f92"/><path d="M461.34,228.62a1.5009,1.5009,0,0,0,0-3,1.5009,1.5009,0,0,0,0,3Z" fill="#376f92"/><path d="M365.22,217.64a1.5009,1.5009,0,0,0,0-3,1.5009,1.5009,0,0,0,0,3Z" fill="#376f92"/><path d="M356.52,427.16a1.5009,1.5009,0,0,0,0-3,1.5009,1.5009,0,0,0,0,3Z" fill="#ffba55"/><path d="M361.78331,429.86a1.5009,1.5009,0,0,0,0-3,1.5009,1.5009,0,0,0,0,3Z" fill="#ffba55"/><path d="M367.8,430.28a1.5009,1.5009,0,0,0,0-3,1.5009,1.5009,0,0,0,0,3Z" fill="#ffba55"/><path d="M409.32,430.1a1.5009,1.5009,0,0,0,0-3,1.5009,1.5009,0,0,0,0,3Z" fill="#ffba55"/><path d="M414.84,430.1a1.5009,1.5009,0,0,0,0-3,1.5009,1.5009,0,0,0,0,3Z" fill="#ffba55"/><path d="M420.12,429.74a1.5009,1.5009,0,0,0,0-3,1.5009,1.5009,0,0,0,0,3Z" fill="#ffba55"/></svg>