<svg id="Layer_1" data-name="Layer 1" xmlns="http://www.w3.org/2000/svg" viewBox="0 0 700 550"><title>lady cooking in the kitchen</title><path d="M146.61877,434.0534a116.954,116.954,0,0,1-1.61373-16.68115,123.01093,123.01093,0,0,1,.66082-16.76721,89.48412,89.48412,0,0,1,3.42838-16.42932,72.547,72.547,0,0,1,3.06018-7.82044,59.70262,59.70262,0,0,1,4.18759-7.26184,62.8978,62.8978,0,0,0-6.77447,15.22925c-.76938,2.67468-1.46323,5.37073-2.00281,8.10217q-.78909,4.1001-1.25949,8.2533a131.449,131.449,0,0,0-.807,16.6842q.03878,4.18122.323,8.358C145.998,428.50409,146.23431,431.28717,146.61877,434.0534Z" fill="#50661a"/><path d="M146.61878,392.2169s-29.38216,3.70052-42.16928-8.90756c-9.4892-9.35633-.46339-25.45988,12.5413-22.55062C125.69714,362.7064,136.43568,370.44518,146.61878,392.2169Z" fill="#5e7c24"/><path d="M146.61877,392.21686c-4.12451-1.25538-8.18411-2.72535-12.18035-4.35267q-5.99154-2.4483-11.74848-5.44238-2.86308-1.5174-5.61828-3.233a56.51267,56.51267,0,0,1-5.33573-3.689,39.85351,39.85351,0,0,1-4.80044-4.36645,19.32026,19.32026,0,0,1-3.52768-5.4104,19.16635,19.16635,0,0,0,3.75784,5.195,39.99129,39.99129,0,0,0,4.8706,4.18774,82.17463,82.17463,0,0,0,10.95469,6.74744c3.78482,2.03674,7.6976,3.83142,11.63885,5.55639q2.95783,1.29144,5.96033,2.48194C142.584,390.70428,144.59061,391.48871,146.61877,392.21686Z" fill="#50661a"/><path d="M114.758,377.35968l.02874-4.33472c-.008-1.44079.00037-2.87927-.08157-4.313a37.68365,37.68365,0,0,0-.38086-4.27429l-.19934-1.04993c-.07086-.34936-.19373-.68127-.28558-1.02649a7.577,7.577,0,0,0-.38749-.9923,8.68329,8.68329,0,0,0-.57708-.9065,7.29943,7.29943,0,0,1,1.936,3.88062,29.1144,29.1144,0,0,1,.53732,4.34155c.029,1.45508.03,2.90845-.06833,4.35681A36.45521,36.45521,0,0,1,114.758,377.35968Z" fill="#50661a"/><path d="M100.93005,377.35968c1.72709-.30066,3.43061-.54834,5.09577-.93189a15.316,15.316,0,0,0,2.41644-.76086,3.49292,3.49292,0,0,0,1.888-1.59082,3.03088,3.03088,0,0,1-1.65842,2.03821,9.85308,9.85308,0,0,1-2.49914.9403A15.88038,15.88038,0,0,1,100.93005,377.35968Z" fill="#50661a"/><path d="M106.24194,384.888a48.9463,48.9463,0,0,0,6.82074-1.371,12.80786,12.80786,0,0,0,3.12921-1.34241,4.47258,4.47258,0,0,0,2.08179-2.59363,4.05218,4.05218,0,0,1-1.79471,3.00635,10.427,10.427,0,0,1-3.22992,1.546A20.25272,20.25272,0,0,1,106.24194,384.888Z" fill="#50661a"/><path d="M122.67114,382.05267q.73454-2.1535,1.34928-4.32361c.39788-1.45068.79034-2.90185,1.04995-4.379a25.96445,25.96445,0,0,0,.40213-8.94348,15.06329,15.06329,0,0,1,.68662,4.50965,26.96673,26.96673,0,0,1-.45706,4.55664,35.6396,35.6396,0,0,1-1.21122,4.40466A28.09113,28.09113,0,0,1,122.67114,382.05267Z" fill="#50661a"/><path d="M118.27368,390.55475c.93674-.24585,1.843-.553,2.73081-.88147a15.24935,15.24935,0,0,0,2.54165-1.2074,9.35095,9.35095,0,0,0,2.14771-1.74219,7.5821,7.5821,0,0,0,1.34186-2.46374,5.45387,5.45387,0,0,1-.94492,2.77234,7.61825,7.61825,0,0,1-2.21347,1.98583,10.625,10.625,0,0,1-2.71841,1.1316A10.94572,10.94572,0,0,1,118.27368,390.55475Z" fill="#50661a"/><path d="M133.16183,371.02105a14.29678,14.29678,0,0,1,1.38147,3.84278,16.495,16.495,0,0,1,.32276,4.10217,13.381,13.381,0,0,1-.86148,4.0304,12.091,12.091,0,0,1-2.08328,3.515,18.33976,18.33976,0,0,0,1.61489-3.677,14.65563,14.65563,0,0,0,.68738-3.90527,18.861,18.861,0,0,0-.166-3.97925A24.14478,24.14478,0,0,0,133.16183,371.02105Z" fill="#50661a"/><path d="M131.262,392.21686c1.06791-.53528,2.1175-.99439,3.12439-1.53382a12.4462,12.4462,0,0,0,2.81913-1.94739,5.28985,5.28985,0,0,1-2.51688,2.516A8.20989,8.20989,0,0,1,131.262,392.21686Z" fill="#50661a"/><path d="M140.563,380.93548a14.38561,14.38561,0,0,1,1.00931,4.56714,10.26507,10.26507,0,0,1-.11325,2.36389,4.54519,4.54519,0,0,1-.89606,2.18274,7.20085,7.20085,0,0,0,.39648-2.23938,20.0198,20.0198,0,0,0-.03006-2.27112C140.85062,384.01678,140.66714,382.497,140.563,380.93548Z" fill="#50661a"/><path d="M145.55087,392.06888s-22.8927-18.78641-22.533-36.74038c.2669-13.32346,18.165-17.84521,24.99628-6.40319C152.58747,356.58549,154.35407,369.70357,145.55087,392.06888Z" fill="#c4ce6e"/><path d="M145.55087,392.06891a125.61789,125.61789,0,0,1-5.34384-11.78833q-2.386-6.02307-4.17206-12.27222-.862-3.12873-1.50384-6.3169a53.83915,53.83915,0,0,1-.96878-6.42895,39.90429,39.90429,0,0,1-.08252-6.50781,18.59907,18.59907,0,0,1,1.5892-6.27661,19.9454,19.9454,0,0,0-1.09988,6.3059,39.95836,39.95836,0,0,0,.358,6.39612,83.8197,83.8197,0,0,0,2.67,12.56018c1.10816,4.14649,2.497,8.21607,3.92649,12.27063q1.07249,3.04194,2.24987,6.04846C143.92645,388.077,144.73965,390.07049,145.55087,392.06891Z" fill="#8b9d36"/><path d="M134.42639,358.72076c2.031-2.089,4.121-4.05627,6.11411-6.10925.99408-1.02612,1.953-2.07813,2.853-3.17481a18.31054,18.31054,0,0,0,1.21109-1.73462,7.49728,7.49728,0,0,0,.48734-.9392,10.05266,10.05266,0,0,0,.30661-1.02942,7.02265,7.02265,0,0,1-1.37009,4.15686,24.3759,24.3759,0,0,1-2.77044,3.41687A33.57422,33.57422,0,0,1,134.42639,358.72076Z" fill="#8b9d36"/><path d="M124.91693,348.68182c1.50449.94629,2.86511,1.97925,4.27869,2.91016a18.7329,18.7329,0,0,0,2.16241,1.24865,3.71668,3.71668,0,0,0,2.40732.40748,2.93988,2.93988,0,0,1-2.66629.32861,9.10756,9.10756,0,0,1-2.45312-1.15A13.04688,13.04688,0,0,1,124.91693,348.68182Z" fill="#8b9d36"/><path d="M123.10437,357.71551c1.94489,1.34229,3.79431,2.7262,5.77414,3.85449a13.84889,13.84889,0,0,0,3.06662,1.36719,4.65462,4.65462,0,0,0,3.28635-.13635,3.95308,3.95308,0,0,1-3.445.90039,10.0004,10.0004,0,0,1-3.4035-1.26331,17.52741,17.52741,0,0,1-2.88584-2.10351A15.76428,15.76428,0,0,1,123.10437,357.71551Z" fill="#8b9d36"/><path d="M136.46124,367.69305c1.35892-.68872,2.68375-1.40954,4.0047-2.12146,1.31092-.73083,2.615-1.46313,3.86789-2.27173a42.4668,42.4668,0,0,0,3.63718-2.58349,27.07961,27.07961,0,0,0,3.22769-3.12476,13.76463,13.76463,0,0,1-2.70673,3.70569,23.1952,23.1952,0,0,1-3.62207,2.84607A27.37121,27.37121,0,0,1,136.46124,367.69305Z" fill="#8b9d36"/><path d="M127.26462,370.34747c.87362.44617,1.72671.86707,2.58407,1.255a17.61563,17.61563,0,0,0,2.60608.96508,10.16851,10.16851,0,0,0,2.68051.39417,8.65742,8.65742,0,0,0,2.725-.58215,5.053,5.053,0,0,1-2.649,1.35876,7.32887,7.32887,0,0,1-3.02527-.20825,9.88644,9.88644,0,0,1-2.70935-1.24512A9.25423,9.25423,0,0,1,127.26462,370.34747Z" fill="#8b9d36"/><path d="M151.6846,367.72271a14.11913,14.11913,0,0,1-4.48129,6.837,15.652,15.652,0,0,1-1.694,1.22754c-.29913.17944-.61749.32788-.92447.49219a5.2669,5.2669,0,0,1-.956.42029,11.06382,11.06382,0,0,1-4.04337.77514,21.53566,21.53566,0,0,0,3.72128-1.486,16.56147,16.56147,0,0,0,3.25187-2.19287,22.14966,22.14966,0,0,0,2.77539-2.80566A30.01639,30.01639,0,0,0,151.6846,367.72271Z" fill="#8b9d36"/><path d="M134.99,380.92c1.1965.28662,2.24786.6958,3.31876,1.04492a20.97318,20.97318,0,0,0,3.296.876,3.64781,3.64781,0,0,1-1.80307.3977,6.33305,6.33305,0,0,1-1.811-.32617,7.52815,7.52815,0,0,1-1.63369-.79187A5.43309,5.43309,0,0,1,134.99,380.92Z" fill="#8b9d36"/><path d="M149.57654,379.91424a9.50542,9.50542,0,0,1-1.04367,2.12537,12.75381,12.75381,0,0,1-1.44858,1.87012,9.19017,9.19017,0,0,1-1.83991,1.53235,4.1458,4.1458,0,0,1-2.28439.73962,8.91233,8.91233,0,0,0,1.81491-1.36292c.543-.50952,1.07419-1.03662,1.5824-1.59484C147.40378,382.13373,148.39755,380.9848,149.57654,379.91424Z" fill="#8b9d36"/><path d="M144.86288,423.53488s-29.59516,1.06406-41.20629-12.6347c-8.6165-10.16571,1.81019-25.39967,14.50342-21.34164C126.65784,392.2753,136.663,400.94139,144.86288,423.53488Z" fill="#c4ce6e"/><path d="M144.86288,423.53485a125.61141,125.61141,0,0,1-11.80722-5.30188c-3.84967-1.95789-7.59939-4.11572-11.24893-6.44019q-2.71664-1.77521-5.30758-3.74084a53.82922,53.82922,0,0,1-4.98063-4.179,39.89638,39.89638,0,0,1-4.36834-4.82458,18.598,18.598,0,0,1-2.96192-5.75733,19.946,19.946,0,0,0,3.34824,5.45557,39.94963,39.94963,0,0,0,4.50088,4.55847,83.826,83.826,0,0,0,10.31339,7.65c3.57468,2.37548,7.309,4.50757,11.06372,6.60144q2.81707,1.57086,5.68933,3.0459C141.00339,421.61688,142.93225,422.57342,144.86288,423.53485Z" fill="#8b9d36"/><path d="M114.45483,405.8941c.14032-2.91028.4054-5.76819.54126-8.62634.06623-1.42713.08905-2.85047.03815-4.26819a18.32217,18.32217,0,0,0-.23993-2.10205,7.4936,7.4936,0,0,0-.2561-1.02661,10.04358,10.04358,0,0,0-.45136-.97461,7.02186,7.02186,0,0,1,1.72361,4.02319,24.37673,24.37673,0,0,1,.18392,4.395A33.57486,33.57486,0,0,1,114.45483,405.8941Z" fill="#8b9d36"/><path d="M100.68207,404.66021c1.75412-.28613,3.45785-.412,5.13363-.64953a18.71288,18.71288,0,0,0,2.44754-.49475,3.71621,3.71621,0,0,0,2.07453-1.28748,2.94011,2.94011,0,0,1-1.78156,2.01074,9.10788,9.10788,0,0,1-2.60028.761A13.04428,13.04428,0,0,1,100.68207,404.66021Z" fill="#8b9d36"/><path d="M105.301,412.6325c2.3464-.28063,4.64877-.46691,6.87979-.931a13.84117,13.84117,0,0,0,3.20382-1.00439,4.65338,4.65338,0,0,0,2.37369-2.27686,3.95281,3.95281,0,0,1-1.98706,2.95472,10.00375,10.00375,0,0,1-3.38766,1.30517,17.52583,17.52583,0,0,1-3.55561.33252A15.75539,15.75539,0,0,1,105.301,412.6325Z" fill="#8b9d36"/><path d="M121.91769,411.27435c.56308-1.41565,1.07932-2.83276,1.59861-4.2406.49926-1.41541.99234-2.82739,1.39666-4.2627a42.47855,42.47855,0,0,0,1.01731-4.34375,27.082,27.082,0,0,0,.35214-4.47863,13.76665,13.76665,0,0,1,.42291,4.56945,23.194,23.194,0,0,1-.8323,4.53064A27.37166,27.37166,0,0,1,121.91769,411.27435Z" fill="#8b9d36"/><path d="M116.77914,419.35028c.95023-.24378,1.86835-.49268,2.76783-.76917a17.60117,17.60117,0,0,0,2.59256-1.001,10.16648,10.16648,0,0,0,2.27047-1.47827,8.65731,8.65731,0,0,0,1.6579-2.23963,5.05312,5.05312,0,0,1-1.087,2.77161,7.32785,7.32785,0,0,1-2.406,1.84582,9.88862,9.88862,0,0,1-2.85525.85938A9.25788,9.25788,0,0,1,116.77914,419.35028Z" fill="#8b9d36"/><path d="M133.35086,401.22284a14.1191,14.1191,0,0,1,1.16455,8.09131,15.66027,15.66027,0,0,1-.45779,2.04126c-.10553.33251-.246.65441-.36743.98071a5.25579,5.25579,0,0,1-.4386.94775,11.06128,11.06128,0,0,1-2.51847,3.25684,21.53587,21.53587,0,0,0,1.80664-3.57654,16.55971,16.55971,0,0,0,.987-3.796,22.1451,22.1451,0,0,0,.22422-3.94006A30.01879,30.01879,0,0,0,133.35086,401.22284Z" fill="#8b9d36"/><path d="M129.56735,422.16461c1.08679-.57678,2.14572-.96582,3.17972-1.41272a20.97057,20.97057,0,0,0,3.05075-1.52429,3.64611,3.64611,0,0,1-1.08865,1.49133,6.33427,6.33427,0,0,1-1.57361.95386,7.52919,7.52919,0,0,1-1.74884.4873A5.43025,5.43025,0,0,1,129.56735,422.16461Z" fill="#8b9d36"/><path d="M139.83789,411.75812a9.50564,9.50564,0,0,1,.624,2.28417,12.75575,12.75575,0,0,1,.15143,2.3606,9.19013,9.19013,0,0,1-.36542,2.36646,4.14629,4.14629,0,0,1-1.2232,2.06616,8.91177,8.91177,0,0,0,.45874-2.2229c.07-.74121.11944-1.48792.131-2.2428C139.67764,414.86,139.66245,413.341,139.83789,411.75812Z" fill="#8b9d36"/><path d="M146.611,394.20487s29.53662,2.14316,41.63983-11.12284c8.98168-9.84455-.88224-25.44881-13.71509-21.8566C165.9444,363.63033,155.62968,371.9256,146.611,394.20487Z" fill="#5e7c24"/><path d="M146.611,394.20489c1.98685-.83435,3.94925-1.72363,5.89737-2.64074q2.93266-1.35188,5.82089-2.79334c3.84464-1.93066,7.65714-3.92969,11.32911-6.16357a82.17419,82.17419,0,0,0,10.58291-7.31665,39.99384,39.99384,0,0,0,4.64255-4.43921,19.16427,19.16427,0,0,0,3.47818-5.38611,19.31972,19.31972,0,0,1-3.23694,5.58911,39.861,39.861,0,0,1-4.56308,4.614,56.54459,56.54459,0,0,1-5.13336,3.9657q-2.65847,1.85706-5.43967,3.52527-5.57844,3.299-11.44458,6.05542C154.63965,391.05084,150.66339,392.73333,146.611,394.20489Z" fill="#50661a"/><path d="M177.6424,377.68524a36.4521,36.4521,0,0,1-.74918-4.28467c-.17471-1.441-.25046-2.89258-.2984-4.34717a29.11335,29.11335,0,0,1,.30722-4.36377,7.29876,7.29876,0,0,1,1.72827-3.97741,8.67086,8.67086,0,0,0-.52838.93567,7.57644,7.57644,0,0,0-.33453,1.01135c-.07349.34961-.17865.6875-.231,1.04016l-.14359,1.05908a37.68051,37.68051,0,0,0-.15454,4.28833c-.0061,1.436.07831,2.87207.14639,4.31128Z" fill="#50661a"/><path d="M191.451,376.95477a15.88214,15.88214,0,0,1-5.25144-.02759,9.85144,9.85144,0,0,1-2.54534-.80713,3.03034,3.03034,0,0,1-1.7638-1.94775,3.49292,3.49292,0,0,0,1.96942,1.489,15.3252,15.3252,0,0,0,2.45328.63208C187.99622,376.58844,189.71045,376.74579,191.451,376.95477Z" fill="#50661a"/><path d="M186.54425,384.75323a20.25223,20.25223,0,0,1-7.03723-.38354,10.42616,10.42616,0,0,1-3.307-1.37317,4.05211,4.05211,0,0,1-1.95105-2.90723,4.47217,4.47217,0,0,0,2.21591,2.47986,12.80662,12.80662,0,0,0,3.19577,1.17529A48.94124,48.94124,0,0,0,186.54425,384.75323Z" fill="#50661a"/><path d="M169.98819,382.78973a28.09241,28.09241,0,0,1-2.03772-4.07324,35.64449,35.64449,0,0,1-1.44223-4.33447,26.96645,26.96645,0,0,1-.69714-4.52625,15.06468,15.06468,0,0,1,.44744-4.53955,25.96324,25.96324,0,0,0,.874,8.90967c.33728,1.46142.80585,2.88989,1.27984,4.3175Q169.13637,380.6817,169.98819,382.78973Z" fill="#50661a"/><path d="M174.82864,391.04767a10.9479,10.9479,0,0,1-2.90255-.25208,10.62487,10.62487,0,0,1-2.77442-.98645,7.61789,7.61789,0,0,1-2.31527-1.86609,5.4539,5.4539,0,0,1-1.09006-2.71863,7.58306,7.58306,0,0,0,1.47012,2.38953,9.35635,9.35635,0,0,0,2.23676,1.62634,15.26077,15.26077,0,0,0,2.60189,1.07141C172.959,390.59271,173.88025,390.85162,174.82864,391.04767Z" fill="#50661a"/><path d="M158.92938,372.3277a24.14666,24.14666,0,0,0-.68692,3.9707,18.86276,18.86276,0,0,0,.04444,3.98254,14.65558,14.65558,0,0,0,.89273,3.86341,18.34267,18.34267,0,0,0,1.80685,3.58654,12.09045,12.09045,0,0,1-2.26605-3.40014,13.38029,13.38029,0,0,1-1.07318-3.97913,16.49485,16.49485,0,0,1,.10559-4.11352A14.296,14.296,0,0,1,158.92938,372.3277Z" fill="#50661a"/><path d="M161.94626,393.39361a8.21135,8.21135,0,0,1-3.47284-.783,5.28958,5.28958,0,0,1-2.6463-2.37951,12.44792,12.44792,0,0,0,2.91809,1.7959C159.77917,392.51239,160.85156,392.91546,161.94626,393.39361Z" fill="#50661a"/><path d="M152.06229,382.61932c-.02152,1.56482-.12445,3.09216-.12275,4.61621a20.02131,20.02131,0,0,0,.09,2.26953,7.20061,7.20061,0,0,0,.51425,2.21534,4.54537,4.54537,0,0,1-1.01013-2.13245,10.26513,10.26513,0,0,1-.238-2.35462A14.38549,14.38549,0,0,1,152.06229,382.61932Z" fill="#50661a"/><path d="M145.48742,423.19864s29.53662,2.14315,41.63983-11.12284c8.98168-9.84456-.88224-25.44881-13.71509-21.8566C164.82087,392.62409,154.50615,400.91937,145.48742,423.19864Z" fill="#8b9d36"/><path d="M145.48743,423.19867c1.96441-.89051,3.92688-1.77588,5.86218-2.72034q2.9208-1.37495,5.79669-2.8363c3.82865-1.95557,7.63825-3.95,11.29721-6.19336A83.812,83.812,0,0,0,179.02917,404.18a39.96065,39.96065,0,0,0,4.66419-4.39111,19.94907,19.94907,0,0,0,3.54507-5.32984,18.59759,18.59759,0,0,1-3.17,5.64539,39.89221,39.89221,0,0,1-4.54147,4.662,53.83728,53.83728,0,0,1-5.12976,3.9945q-2.65924,1.86713-5.44056,3.54468c-3.73193,2.1897-7.55786,4.20935-11.47641,6.02539A125.60794,125.60794,0,0,1,145.48743,423.19867Z" fill="#5e7c24"/><path d="M176.51886,406.679a33.57277,33.57277,0,0,1-1.22549-8.63,24.37753,24.37753,0,0,1,.34414-4.38538,7.02273,7.02273,0,0,1,1.86926-3.95764,10.04351,10.04351,0,0,0-.4866.95752,7.48887,7.48887,0,0,0-.29339,1.0166,18.31324,18.31324,0,0,0-.31647,2.09192c-.1026,1.41492-.13172,2.83814-.11762,4.26672C176.32419,400.89984,176.48483,403.76556,176.51886,406.679Z" fill="#5e7c24"/><path d="M190.32748,405.94854a13.04685,13.04685,0,0,1-5.28277.14734,9.10633,9.10633,0,0,1-2.57077-.85546,2.93968,2.93968,0,0,1-1.707-2.07435,3.71635,3.71635,0,0,0,2.02615,1.36231,18.73031,18.73031,0,0,0,2.42786.58374C186.88693,405.41058,188.585,405.59857,190.32748,405.94854Z" fill="#5e7c24"/><path d="M185.42072,413.747a15.77008,15.77008,0,0,1-3.53852.25122,17.52948,17.52948,0,0,1-3.54111-.46216,9.99983,9.99983,0,0,1-3.33776-1.42786,3.95287,3.95287,0,0,1-1.87793-3.02527,4.65377,4.65377,0,0,0,2.289,2.36206,13.85167,13.85167,0,0,0,3.165,1.12049C180.79208,413.11078,183.08609,413.38092,185.42072,413.747Z" fill="#5e7c24"/><path d="M168.86465,411.78351a27.37275,27.37275,0,0,1-3.65255-8.36451,23.19093,23.19093,0,0,1-.66645-4.558,13.76589,13.76589,0,0,1,.58936-4.551,27.07708,27.07708,0,0,0,.18848,4.48852,42.47511,42.47511,0,0,0,.85815,4.37805c.35169,1.449.79291,2.87818,1.2402,4.31079C167.88943,408.91327,168.35361,410.3482,168.86465,411.78351Z" fill="#5e7c24"/><path d="M173.70511,420.04144a9.25167,9.25167,0,0,1-2.93817-.11853,9.889,9.889,0,0,1-2.822-.96289,7.32983,7.32983,0,0,1-2.337-1.93237,5.0531,5.0531,0,0,1-.98514-2.80945,8.65723,8.65723,0,0,0,1.57508,2.29858,10.16345,10.16345,0,0,0,2.215,1.56018,17.59871,17.59871,0,0,0,2.55432,1.09485C171.856,419.481,172.76443,419.76324,173.70511,420.04144Z" fill="#5e7c24"/><path d="M157.80585,401.32147a30.02226,30.02226,0,0,0-.546,3.988,22.14807,22.14807,0,0,0,.08032,3.94555,16.55939,16.55939,0,0,0,.84781,3.82947,21.53313,21.53313,0,0,0,1.675,3.64014,11.06219,11.06219,0,0,1-2.398-3.34656,5.258,5.258,0,0,1-.40372-.96313c-.10947-.33045-.2381-.65735-.33142-.99341a15.66953,15.66953,0,0,1-.383-2.05664A14.11948,14.11948,0,0,1,157.80585,401.32147Z" fill="#5e7c24"/><path d="M160.82275,422.38739a5.43068,5.43068,0,0,1-1.818-.07093,7.5308,7.5308,0,0,1-1.72989-.55078,6.33347,6.33347,0,0,1-1.53778-1.01062,3.6469,3.6469,0,0,1-1.03351-1.53015,20.96311,20.96311,0,0,0,2.99314,1.63465C158.71368,421.34393,159.75772,421.7713,160.82275,422.38739Z" fill="#5e7c24"/><path d="M150.93875,411.6131c.11759,1.58825.047,3.10559.055,4.61682-.016.75476.00623,1.5028.04911,2.24609a8.91132,8.91132,0,0,0,.37735,2.23816,4.14679,4.14679,0,0,1-1.147-2.10962,9.189,9.189,0,0,1-.27887-2.37805,12.75608,12.75608,0,0,1,.23749-2.35352A9.50482,9.50482,0,0,1,150.93875,411.6131Z" fill="#5e7c24"/><path d="M155.35738,370.68756s-8.18919-28.45949,2.29519-43.03865c7.78036-10.81905,25.08358-4.3857,24.21547,8.91212C181.28686,345.46362,175.29743,357.2675,155.35738,370.68756Z" fill="#8b9d36"/><path d="M155.35736,370.68756a125.603,125.603,0,0,1,2.28937-12.73889c.96884-4.20887,2.15591-8.36914,3.52881-12.47242q1.06563-3.06536,2.34628-6.05468a53.84239,53.84239,0,0,1,2.85056-5.84339,39.90719,39.90719,0,0,1,3.625-5.40539,18.6,18.6,0,0,1,4.87027-4.26624,19.94537,19.94537,0,0,0-4.484,4.56812,39.96457,39.96457,0,0,0-3.33478,5.4696,83.81937,83.81937,0,0,0-4.929,11.8573c-1.44052,4.043-2.60632,8.182-3.73007,12.33167q-.8431,3.11334-1.57977,6.25708C156.28513,366.47882,155.82349,368.58172,155.35736,370.68756Z" fill="#5e7c24"/><path d="M165.12137,336.91607c2.85782-.56762,5.695-1.00146,8.5011-1.56079,1.40085-.28088,2.78738-.6029,4.15081-.99511a18.33948,18.33948,0,0,0,1.9816-.74109,7.50251,7.50251,0,0,0,.93421-.49683,10.03137,10.03137,0,0,0,.83661-.67358,7.02261,7.02261,0,0,1-3.487,2.64526,24.37955,24.37955,0,0,1-4.22013,1.24133A33.57653,33.57653,0,0,1,165.12137,336.91607Z" fill="#5e7c24"/><path d="M162.988,323.25372c.70184,1.63281,1.236,3.25562,1.87164,4.82422a18.72219,18.72219,0,0,0,1.072,2.25525,3.71733,3.71733,0,0,0,1.751,1.70166,2.94034,2.94034,0,0,1-2.3819-1.24256,9.10633,9.10633,0,0,1-1.36725-2.339A13.0465,13.0465,0,0,1,162.988,323.25372Z" fill="#5e7c24"/><path d="M156.36932,329.66339c.83969,2.209,1.57718,4.39795,2.56708,6.45056a13.85079,13.85079,0,0,0,1.74927,2.86584,4.654,4.654,0,0,0,2.78332,1.75257,3.953,3.953,0,0,1-3.34753-1.2135,10.00134,10.00134,0,0,1-2.0856-2.97156,17.52653,17.52653,0,0,1-1.18253-3.36963A15.76357,15.76357,0,0,1,156.36932,329.66339Z" fill="#5e7c24"/><path d="M161.70541,345.45855c1.50977.204,3.00968.36219,4.50135.52564,1.49408.14221,2.98346.27917,4.47387.32446a42.4772,42.4772,0,0,0,4.46091-.06335,27.08324,27.08324,0,0,0,4.43088-.74134,13.76731,13.76731,0,0,1-4.33158,1.51539,23.18675,23.18675,0,0,1-4.59744.288A27.372,27.372,0,0,1,161.70541,345.45855Z" fill="#5e7c24"/><path d="M152.62662,342.42535c.46621.86316.92981,1.69385,1.41559,2.49976a17.60544,17.60544,0,0,0,1.5982,2.27356,10.166,10.166,0,0,0,1.98343,1.84558,8.65825,8.65825,0,0,0,2.57407,1.06714,5.05363,5.05363,0,0,1-2.95221-.38452,7.33053,7.33053,0,0,1-2.37284-1.88819,9.88508,9.88508,0,0,1-1.52429-2.56274A9.25331,9.25331,0,0,1,152.62662,342.42535Z" fill="#5e7c24"/><path d="M174.22342,354.12164a14.11943,14.11943,0,0,1-7.56964,3.08667,15.64979,15.64979,0,0,1-2.09137.04944c-.34815-.022-.69449-.08045-1.04047-.11939a5.2569,5.2569,0,0,1-1.02569-.19641,11.062,11.062,0,0,1-3.76914-1.65612,21.5394,21.5394,0,0,0,3.90729.88818,16.55917,16.55917,0,0,0,3.922.03967,22.13948,22.13948,0,0,0,3.87732-.73523A30.02421,30.02421,0,0,0,174.22342,354.12164Z" fill="#5e7c24"/><path d="M152.98819,355.51458c.82251.915,1.45605,1.84852,2.13968,2.74378a20.976,20.976,0,0,0,2.21686,2.59155,3.64628,3.64628,0,0,1-1.71033-.69568,6.33016,6.33016,0,0,1-1.30606-1.29626,7.53222,7.53222,0,0,1-.89584-1.579A5.4313,5.4313,0,0,1,152.98819,355.51458Z" fill="#5e7c24"/><path d="M165.56946,362.9638a9.50333,9.50333,0,0,1-2.06549,1.15784,12.75091,12.75091,0,0,1-2.25394.71777,9.18576,9.18576,0,0,1-2.38452.21766,4.14656,4.14656,0,0,1-2.30072-.68714,8.91707,8.91707,0,0,0,2.26785-.09241c.73615-.11145,1.47269-.244,2.208-.41528C162.52087,363.55841,163.99112,363.17633,165.56946,362.9638Z" fill="#5e7c24"/><path d="M125.65211,426.487v5.34632a1.85289,1.85289,0,0,0,1.83439,1.87085h36.75276a1.85289,1.85289,0,0,0,1.83438-1.87085v-4.927a1.85339,1.85339,0,0,0-1.81386-1.87073l-36.75276-.41936A1.8524,1.8524,0,0,0,125.65211,426.487Z" fill="#d6694b"/><polygon points="127.406 433.704 128.714 461.298 162.148 461.298 164.319 433.704 127.406 433.704" fill="#e19974"/><path d="M519.386,255.88056c8.25271,57.92528-77.04822,186.18-140.09178,126.97115-33.18479-31.16639-112.26115-65.7748-169.97705-82.79528-56.12065-16.55027,54.46838-114.772,140.09154-126.97086S511.13327,197.95529,519.386,255.88056Z" fill="#ffe3cb"/><path d="M194.14941,301.355c-11.87207-3.501-17.75927-10.69336-17.02392-20.79883,1.31543-18.08105,23.63428-44.84961,58.24609-69.85937C271.604,184.5152,313.66943,165.97418,347.897,161.09723c94.04932-13.39942,177.94727,27.53515,187.02539,91.248l-.99023.14063c-8.99951-63.167-92.39258-103.72363-185.89453-90.39844-34.07373,4.85449-75.97315,23.3291-112.08057,49.41992-34.37842,24.8418-56.53955,51.32715-57.834,69.12207-.707,9.71582,4.78027,16.36621,16.30957,19.7666Z" fill="#ffe3cb"/><path d="M234.05093,226.22876c2.36471-4.41431,4.69807-11.038,4.42828-20.64482a29.54955,29.54955,0,0,0-7.93252-9.4962c1.50337.03225,2.71163.12056,3.86978.02972,7.69359-.60327,17.1872-9.44624,16.26121-17.82163-.807-7.29959-9.23653-11.59975-11.28732-12.64607a17.15516,17.15516,0,0,0-16.74021-.04562,19.55479,19.55479,0,0,0-7.45412,7.34762c-1.84735,3.00994-1.79432,3.30316-5.14869,6.179-3.71375,3.184-6.20646,4.2047-8.18442,7.73551-1.25249,2.236-1.21162,5.96784-1.00148,8.7125a31.112,31.112,0,0,0-8.58337,12.69775c-2.747,7.24745-2.79626,16.048-2.80925,18.37068-.02908,5.18661.60161,8.6522-1.6662,12.49993-2.01436,3.41779-4.15933,3.47816-6.67621,6.22285-4.68642,5.11059-6.25882,14.72552-2.70563,20.81681,5.82664,9.98884,24.92126,9.61917,32.09669,1.95322,4.83342-5.16392.61816-9.74939,5.26216-19.93518C220.80494,237.18264,228.22354,237.10708,234.05093,226.22876Z" fill="#160b07"/><path d="M212.8065,208.92853s-17.13066,91.55954-33.23408,112.68171c0,0,.07059,10.10881,24.26909,8.8944C203.84151,330.50464,227.333,208.56683,212.8065,208.92853Z" fill="#376f92"/><path d="M275.56905,203.68182c.193-.94591-1.83562-2.30961-2.17589-2.5383a6.83319,6.83319,0,0,0-2.62109-1.03382,7.26482,7.26482,0,0,0-3.8786.204,7.15049,7.15049,0,0,0-2.041,1.12269c-.55817.43662-2.22822,1.74287-2.04133,2.55159C263.26985,205.97468,275.13215,205.8242,275.56905,203.68182Z" fill="#d8a935"/><path d="M298.75055,195.83829l-2.01683-1.06854s-2.09441-.14546-1.27482,2.08873A4.47431,4.47431,0,0,0,298.391,199.594l3.75365.89069Z" fill="#dd765e"/><path d="M277.21477,202.56684c9.74528-5.45338,33.23856-7.44916,34.26333-7.56166a1.18051,1.18051,0,1,1,.25729,2.34695c-.2453.02674-18.8828,2.45262-33.75544,7.63768-.6914.778-2.40839,1.66126-6.09113,2.52056-10.19864,2.37963-12.4649-4.94353-12.4649-4.94353Z" fill="#160b07"/><path d="M243.70535,207.2507l4.297,3.41637,3.08187,12.81776-28.9422-.357,3.17315-15.14184s2.79417-.33214,5.16366-8.09447Z" fill="#f9977a"/><path d="M242.79157,201.56617s-5.70006,4.16437-12.24414-1.07944c0,0,2.16924,9.17291,13.15792,6.764A6.53388,6.53388,0,0,1,242.79157,201.56617Z" fill="#dd765e"/><path d="M250.05149,182.71557c-2.14049-10.51762-9.70239-17.858-16.88994-16.3952-5.54754,1.129-9.24729,7.17378-9.66422,14.70872a2.05015,2.05015,0,0,0-1.72317-.2501c-1.56117.58015-1.88988,3.57139-.73422,6.681.9757,2.62552,2.69654,4.489,4.14866,4.6586,3.03207,8.24611,9.51632,13.5527,15.72438,12.2893C248.10055,202.9451,252.192,193.23313,250.05149,182.71557Z" fill="#f9977a"/><path d="M241.39548,181.86584a7.02368,7.02368,0,0,0,.42535,3.65027,17.06469,17.06469,0,0,0,1.62412,3.32617l.547.77259a1.57634,1.57634,0,0,1,.32248,1.11981,2.50315,2.50315,0,0,1-1.234,1.7124,4.30652,4.30652,0,0,1-3.82971.08606,6.74189,6.74189,0,0,0,1.87.05347,3.21888,3.21888,0,0,0,1.64459-.59864,2.07422,2.07422,0,0,0,.86679-1.319.89429.89429,0,0,0-.22162-.65124c-.17175-.23841-.38034-.49909-.56387-.76874a12.633,12.633,0,0,1-1.5502-3.55334A5.83342,5.83342,0,0,1,241.39548,181.86584Z" fill="#dd765e"/><path d="M230.16756,184.47664a.50744.50744,0,0,1-.26945-.82272c.12709-.1498,3.16106-3.65364,7.27681-2.93031a.50755.50755,0,1,1-.1756.99979c-3.54962-.62369-6.30038,2.55581-6.32786,2.588A.50768.50768,0,0,1,230.16756,184.47664Z" fill="#160b07"/><path d="M243.49689,180.72416a.50771.50771,0,0,1-.06343-.96916,9.79539,9.79539,0,0,1,6.13659-.09674.50762.50762,0,0,1-.33777.9574,8.86013,8.86013,0,0,0-5.43945.08927A.50788.50788,0,0,1,243.49689,180.72416Z" fill="#160b07"/><path d="M231.23978,186.69659a5.65538,5.65538,0,0,1,1.4194-1.37536,5.3147,5.3147,0,0,1,1.83646-.827,3.85087,3.85087,0,0,1,2.03064.08331,3.946,3.946,0,0,1,1.67706,1.06189,6.10342,6.10342,0,0,0-1.77319-.68335,4.46189,4.46189,0,0,0-1.82557.03369A9.20714,9.20714,0,0,0,231.23978,186.69659Z" fill="#160b07"/><circle cx="235.81513" cy="185.76705" r="1.13848" fill="#160b07"/><circle cx="246.64918" cy="184.41309" r="1.13848" fill="#160b07"/><path d="M242.85687,185.58105a5.65432,5.65432,0,0,1,1.41941-1.3753,5.31251,5.31251,0,0,1,1.83645-.827,3.85087,3.85087,0,0,1,2.03064.08331,3.94577,3.94577,0,0,1,1.67706,1.06183,6.10348,6.10348,0,0,0-1.77322-.68335,4.46154,4.46154,0,0,0-1.82553.03376A9.20692,9.20692,0,0,0,242.85687,185.58105Z" fill="#160b07"/><path d="M221.59039,184.41668a2.34972,2.34972,0,0,1,.46433-1.34216,1.26644,1.26644,0,0,1,.69552-.47363,1.16391,1.16391,0,0,1,.88324.1477,2.59366,2.59366,0,0,1,.94953,1.13623,4.21047,4.21047,0,0,1,.3869,1.33039c-.3262-.33991-.58826-.69831-.86288-1.02619a3.55254,3.55254,0,0,0-.832-.812.63123.63123,0,0,0-.81677.08972A6.0424,6.0424,0,0,0,221.59039,184.41668Z" fill="#dd765e"/><path d="M223.45261,187.86145a7.14465,7.14465,0,0,0,.053-1.24231c-.015-.40094-.04358-.79859-.09272-1.197-.07516-.80176-.221-1.59864-.24951-2.48828A4.28464,4.28464,0,0,1,223.82,184.07a5.08924,5.08924,0,0,1,.3125,1.27692,4.13055,4.13055,0,0,1-.06711,1.33026A2.31106,2.31106,0,0,1,223.45261,187.86145Z" fill="#dd765e"/><circle cx="222.87322" cy="190.67481" r="2.25977" fill="#ffcb33"/><path d="M236.95387,171.94552c-1.25677,1.03067-7.744,11.232-10.082,12.37317a1.44242,1.44242,0,0,1-.85481.17362c-.91449-.13373-1.283-1.31812-2.29957-2.98474-.76826-1.25948-1.10251-1.47606-1.55033-2.18167a10.18167,10.18167,0,0,1-.45893-9.18531,10.78745,10.78745,0,0,1,5.93164-5.23411c5.32647-2.28106,10.47448-.28854,11.78008.21677,7.84382,3.03594,11.19266,10.80142,10.91544,11.02993C250.00954,176.42177,243.39765,166.661,236.95387,171.94552Z" fill="#160b07"/><path d="M191.93355,422.6693S174.34474,438.26094,175.274,439.866s33.63,28.38046,29.78626,20.54041l-5.51365-9.8972a12.8716,12.8716,0,0,1,.89744-13.92036l4.36972-5.90548Z" fill="#f9977a"/><path d="M203.47841,457.56693l-7.43067-4.22564a30.73722,30.73722,0,0,1,4.47141-.7603,1.361,1.361,0,0,0,1.04046-2.02511,2.27571,2.27571,0,0,0-1.96613-1.15956,23.16156,23.16156,0,0,0-6.54052,1.439l-2.86311-2.39578c.29982-1.94232.47261-8.14691-6.55451-18.10081a.63058.63058,0,0,0-.951-.08866l-1.29789,1.25421a.62849.62849,0,0,0-.08076.80812,38.20843,38.20843,0,0,1,5.76255,13.515l-10.24383-8.57189c-2.3778,1.09232-3.62852,4.63508-3.62852,4.63508,2.04253,2.05966,17.11042,19.50824,28.3428,19.50824,5.53909,0,7.35693.95254,9.05872,0C213.7803,459.61727,203.47841,457.56693,203.47841,457.56693Z" fill="#f73943"/><path d="M234.45129,434.36869s-4.64386,23.04127-2.93519,23.7624,46.516,3.52633,38.72455-.41506L257.301,452.00124a12.87156,12.87156,0,0,1-7.67082-11.65076l-.07055-7.346Z" fill="#f9977a"/><path d="M255.23109,272.60191l3.86941,54.36059.04857,106.45639a9.11853,9.11853,0,0,1-7.987,9.06609,150.77745,150.77745,0,0,1-34.08206.31847c-14.05393-1.46679-25.33785-6.476-34.35806-10.56944a10.25945,10.25945,0,0,1-5.93492-10.69485c2.10194-15.80217,4.33413-30.74,7.72682-48.48913,6.31415-33.03308,15.52063-73.14978,27.08994-101.48389Z" fill="#376f92"/><path d="M268.59927,456.99111l-12.38437-.62145a30.73859,30.73859,0,0,1,3.11062-3.30085,1.361,1.361,0,0,0-.38973-2.24315,2.27571,2.27571,0,0,0-2.26784.25914,23.16094,23.16094,0,0,0-4.35309,5.08917l-3.72857-.18708c-.931-1.73084-4.53135-6.78692-16.13707-10.49742a.63059.63059,0,0,0-.81243.50223l-.2802,1.783a.62849.62849,0,0,0,.42244.69364,38.20834,38.20834,0,0,1,12.742,7.31456l-13.34036-.6694c-1.23962,2.30443-.10332,5.88552-.10332,5.88552,21.5752,2.69749,41.9562.83138,45.09138-1.03267S268.59927,456.99111,268.59927,456.99111Z" fill="#f73943"/><path d="M304.21269,214.28109l6.11916-7.394v-1.71a6.45154,6.45154,0,0,0-2.79088-5.31244l-7.32273-5.04591s-2.153-.56659-1.2465,2.153l3.1729,3.51285-6.68574-1.58645s-2.153.79323,0,2.493c0,0-5.21262-.79322-1.92641,2.60631l3.85281,1.47313-.39974.25438a6.93992,6.93992,0,0,0-3.21033,6.08182l.66381,20.29347-16.48774-9.40537-7.9889,16.14778,26.2302,13.49289a9.20863,9.20863,0,0,0,13.26546-9.87382Z" fill="#f9977a"/><path d="M301.32324,204.02594a.26855.26855,0,0,1-.10547-.02051l-5.86425-2.35156a.28271.28271,0,0,1-.15772-.36817.27851.27851,0,0,1,.36865-.15722l5.86426,2.35156a.28305.28305,0,0,1-.10547.5459Z" fill="#dd765e"/><path d="M278.57455,221.56175l-8.61215,17.79089-8.49883-3.96612-6.23247,31.16237a7.67047,7.67047,0,0,1,0,7.0257l-43.62733,3.51285V243.09212l-20.73715-2.37967s12.01168-28.55607,17.111-30.59579,17.33762-2.13065,17.33762-2.13065-1.2465,15.38883,10.8785,13.23579,8.61215-13.23579,8.61215-13.23579h7.86034a12.08893,12.08893,0,0,1,6.2351,1.732Z" fill="#f73c4f"/><path d="M263.27666,226.43438a18.81781,18.81781,0,0,1-.41678,4.57526,18.6043,18.6043,0,0,1-1.3963,4.37689,18.60373,18.60373,0,0,1,.41678-4.57525A18.81739,18.81739,0,0,1,263.27666,226.43438Z" fill="#b02336"/><path d="M248.31873,267.79535a29.46738,29.46738,0,0,1-7.59568,1.82275,28.002,28.002,0,0,1-7.86694-.18713,20.56223,20.56223,0,0,1-7.397-2.74659A17.64674,17.64674,0,0,1,219.876,261.223a23.28033,23.28033,0,0,0,2.79678,2.66943,18.17461,18.17461,0,0,0,3.17242,2.12671,23.40832,23.40832,0,0,0,7.182,2.42713,34.6348,34.6348,0,0,0,7.634.40869c1.282-.05774,2.56354-.1864,3.83887-.37232C245.78094,268.32208,247.051,268.08172,248.31873,267.79535Z" fill="#b02336"/><path d="M212.17035,211.58978a4.52577,4.52577,0,0,1,1.36063,1.35992,6.13058,6.13058,0,0,1,.51458.82642,5.83615,5.83615,0,0,1,.43311.87347,17.27863,17.27863,0,0,1,1.053,3.74347,32.51444,32.51444,0,0,1,.16781,7.73017,54.91276,54.91276,0,0,1-1.3063,7.58606c-.33719,1.23675-.60654,2.48895-.99851,3.70758-.41,1.21393-.78643,2.43493-1.2243,3.63556.46347-2.519,1.044-4.99482,1.46988-7.50049.44519-2.49982.81586-5.00525,1.06393-7.51892a42.86731,42.86731,0,0,0,.0687-7.53723,17.13394,17.13394,0,0,0-.74933-3.67194A7.2623,7.2623,0,0,0,212.17035,211.58978Z" fill="#b02336"/><path d="M296.69629,237.64605c-2.49951,0-2.54053-5.31835-2.541-5.54492a.28331.28331,0,0,1,.28321-.28418h.00048a.28332.28332,0,0,1,.2837.28223c.00341,1.38574.36523,4.98047,1.97363,4.98047a.2832.2832,0,1,1,0,.5664Z" fill="#dd765e"/><circle cx="240.22591" cy="197.62922" r="2.63096" fill="#dd2f22"/><path d="M246.33865,195.65289c.85141-.24048,1.71167-.41949,2.57328-.58911.86068-.17609,1.72769-.30805,2.59472-.43982.869-.11847,1.73807-.23578,2.61344-.30963.87454-.07953,1.75036-.15027,2.63516-.15839-.85129.2414-1.71158.42011-2.57312.59009-.86075.1756-1.72772.3078-2.59488.43884-.86905.11768-1.73813.23523-2.61356.30866C248.09918,195.57336,247.22333,195.64386,246.33865,195.65289Z" fill="#bababa"/><path d="M245.51044,198.10241a5.97511,5.97511,0,0,1,1.09964-.2171,9.23022,9.23022,0,0,1,2.19925-.001,5.92814,5.92814,0,0,1,1.09964.21807,5.93718,5.93718,0,0,1-1.09964.21808,9.23022,9.23022,0,0,1-2.19925-.001A5.9793,5.9793,0,0,1,245.51044,198.10241Z" fill="#bababa"/><path d="M245.51044,200.48468c.71618.06012,1.41717.18048,2.11587.31006.70026.12323,1.38962.28967,2.079.4563.686.17968,1.37174.36047,2.04675.5838a21.25583,21.25583,0,0,1,2.00937.732,21.25617,21.25617,0,0,1-2.11609-.30914c-.70016-.12366-1.38958-.28992-2.0787-.45728-.68585-.18042-1.37164-.361-2.04654-.58477C246.8436,200.99817,246.1694,200.77154,245.51044,200.48468Z" fill="#bababa"/><path d="M273.83392,181.02368a3.41571,3.41571,0,0,1,1.45577,1.3418,2.4692,2.4692,0,0,1,.10861,2.03735,8.60417,8.60417,0,0,1-.9735,1.758,6.01828,6.01828,0,0,1-.64248.793,3.88353,3.88353,0,0,0-.58249.71387,5.62345,5.62345,0,0,0-.77428,1.68555,3.829,3.829,0,0,0,.02437,1.81818,3.64583,3.64583,0,0,0,2.5067,2.61022,3.52417,3.52417,0,0,1-1.81041-.79248,3.78736,3.78736,0,0,1-1.115-1.69574,3.84173,3.84173,0,0,1-.10917-2.05316,6.09268,6.09268,0,0,1,.80165-1.87921,4.44267,4.44267,0,0,1,.67131-.78448,5.474,5.474,0,0,0,.60779-.711,11.53261,11.53261,0,0,0,.99133-1.62128,2.12374,2.12374,0,0,0,.0461-1.76007A3.59392,3.59392,0,0,0,273.83392,181.02368Z" fill="#bababa"/><path d="M268.0692,184.5813A3.4153,3.4153,0,0,1,269.525,185.923a2.46922,2.46922,0,0,1,.10861,2.03736,8.60251,8.60251,0,0,1-.9735,1.758,6.01446,6.01446,0,0,1-.64248.793,3.88287,3.88287,0,0,0-.58249.71387,5.62333,5.62333,0,0,0-.77428,1.68555,3.829,3.829,0,0,0,.02437,1.81817,3.64572,3.64572,0,0,0,2.5067,2.61023,3.52408,3.52408,0,0,1-1.81041-.79242,3.78774,3.78774,0,0,1-1.115-1.69574,3.84166,3.84166,0,0,1-.10916-2.05316,6.09214,6.09214,0,0,1,.80164-1.87927,4.44526,4.44526,0,0,1,.67131-.78449,5.46781,5.46781,0,0,0,.60779-.711,11.53481,11.53481,0,0,0,.99133-1.62121,2.12392,2.12392,0,0,0,.04611-1.76013A3.59381,3.59381,0,0,0,268.0692,184.5813Z" fill="#bababa"/><path d="M265.61832,177.13751a3.416,3.416,0,0,1,1.45575,1.34174,2.46939,2.46939,0,0,1,.10861,2.03741,8.60391,8.60391,0,0,1-.9735,1.758,6.01983,6.01983,0,0,1-.64248.793,3.884,3.884,0,0,0-.58249.71386,5.62265,5.62265,0,0,0-.77426,1.68555,3.82889,3.82889,0,0,0,.02435,1.81818,3.64582,3.64582,0,0,0,2.5067,2.61023,3.5242,3.5242,0,0,1-1.8104-.79249,3.78764,3.78764,0,0,1-1.11505-1.69573,3.84167,3.84167,0,0,1-.10916-2.05317,6.09242,6.09242,0,0,1,.80164-1.87921,4.44309,4.44309,0,0,1,.67131-.78448,5.47558,5.47558,0,0,0,.60778-.711,11.53175,11.53175,0,0,0,.99134-1.62128,2.12377,2.12377,0,0,0,.04611-1.76007A3.59367,3.59367,0,0,0,265.61832,177.13751Z" fill="#bababa"/><path d="M227.30826,206.51s-11.97526-2.50318-14.50176,2.41852L208.918,279.43941s21.43613,72.46258,50.23465,49.68628C259.15266,329.12569,258.90131,209.718,227.30826,206.51Z" fill="#376f92"/><path d="M193.902,330.29547c2.02639-8.60877,4.27108-17.16272,6.62365-25.68884q1.7993-6.38452,3.72684-12.7356c1.279-4.23633,2.645-8.44739,4.22925-12.5979l-.03006.14343.48047-9.11108.53934-9.10828c.1929-3.03552.35278-6.07257.57351-9.10669l.64664-9.10309-.24014,9.12287c-.07486,3.0412-.21057,6.07947-.3133,9.11926l-.34741,9.11768-.40634,9.11474-.00317.07141-.027.07251c-1.53336,4.12354-2.84848,8.342-4.1861,12.54859q-1.97808,6.321-3.82431,12.68725Z" fill="#10394f"/><path d="M259.15265,329.12567a22.34408,22.34408,0,0,1-9.73312,2.46789,23.93861,23.93861,0,0,1-9.94028-1.92431,30.19374,30.19374,0,0,1-8.545-5.49024,47.62973,47.62973,0,0,1-6.77166-7.56359,70.63544,70.63544,0,0,1-5.23514-8.67127l-1.15106-2.25378-1.047-2.30164c-.34283-.7699-.70258-1.53259-1.03134-2.308l-.91535-2.35523a142.46541,142.46541,0,0,1-5.86465-19.28613c1.00909,3.20532,1.91638,6.43494,3.05112,9.59253.50695,1.5979,1.085,3.17053,1.68069,4.7362l.87772,2.35328.96844,2.31628a86.6409,86.6409,0,0,0,9.4765,17.593c3.85947,5.38183,8.72669,10.23376,14.80875,12.93493A23.74219,23.74219,0,0,0,259.15265,329.12567Z" fill="#10394f"/><path d="M217.54739,218.62231l1.56244,11.93048,1.45075,11.94287,2.77163,23.8971c.88337,7.96777,1.80112,15.93518,3.05076,23.83789a66.63636,66.63636,0,0,0,2.789,11.62439,52.03361,52.03361,0,0,0,5.54962,10.60242,49.09632,49.09632,0,0,1-6.00791-10.42835,66.68343,66.68343,0,0,1-3.08847-11.66626c-.727-3.9541-1.27337-7.93384-1.8067-11.91125q-.78067-5.96887-1.47858-11.94483c-.86987-7.97485-1.74761-15.94665-2.54049-23.92767C219.00757,234.598,218.22327,226.61639,217.54739,218.62231Z" fill="#10394f"/><path d="M236.19373,221.2218c1.68078,3.82336,3.09771,7.75793,4.39993,11.72681,1.30179,3.97064,2.39471,8.00653,3.42456,12.05706.96539,4.06647,1.81,8.16462,2.44806,12.2959a111.04573,111.04573,0,0,1,1.24344,12.46521c-.34482-2.06213-.53345-4.13635-.92923-6.18457l-.49384-3.08264-.57843-3.0675c-.79162-4.08393-1.62359-8.16071-2.66055-12.19037-.94412-4.05164-2.04639-8.06507-3.18619-12.069q-.85647-3.00285-1.78378-5.98676C237.48676,225.18713,236.83755,223.20758,236.19373,221.2218Z" fill="#10394f"/><path d="M230.54742,233.1499c.433,1.90564.80289,3.82214,1.20618,5.73322l1.08869,5.75384c.70858,3.83905,1.32028,7.69428,1.96188,11.545.56479,3.86267,1.15048,7.72266,1.6319,11.5979.47369,3.87561.92727,7.75708,1.15887,11.65955l-1.9202-11.54956-1.85751-11.55408-1.73065-11.57544C231.53632,240.897,230.99023,237.03253,230.54742,233.1499Z" fill="#10394f"/><path d="M243.98041,281.85663a96.12007,96.12007,0,0,1,2.72885,9.54235,99.11766,99.11766,0,0,1,1.82162,9.77185,58.52114,58.52114,0,0,1,.54,9.94947,29.02965,29.02965,0,0,1-.60959,4.96362,12.25306,12.25306,0,0,1-1.95413,4.56629,13.18445,13.18445,0,0,0,1.4726-4.65833,29.01481,29.01481,0,0,0,.32205-4.88721A80.4279,80.4279,0,0,0,247.54,301.301c-.41986-3.25964-.98773-6.50207-1.57987-9.74353-.294-1.62134-.62039-3.23755-.96145-4.85144C244.68582,285.0849,244.323,283.47528,243.98041,281.85663Z" fill="#10394f"/><path d="M265.01784,243.88535a1.65977,1.65977,0,0,0-1.06128-2.83295s-5.22216,1.81309-7.14379,1.41647C256.81277,242.46887,246.70178,248.64469,265.01784,243.88535Z" fill="#dd765e"/><path d="M208.43087,251.251l27.87617-6.969s3.56951-5.94918,11.04848-3.22956a9.14357,9.14357,0,0,0,6.51577.56659s6.91238-2.153,1.35981,2.26636l7.139.45327s6.11915-1.73176,5.32593,1.45713c0,0-11.33177,2.28235-13.25818,3.30221s-13.37149,3.39953-13.37149,3.39953l-39.99292,19.04908a9.9331,9.9331,0,0,1-13.77527-11.8564L192.963,241.0524l17.72859,1.935Z" fill="#f9977a"/><path d="M236.307,244.282s3.56951-5.94918,11.04848-3.22956a9.14357,9.14357,0,0,0,6.51577.56659s6.91238-2.153,1.35981,2.26636l7.139.45327s6.11915-1.73176,5.32593,1.45713c0,0-11.33177,2.28235-13.25818,3.30221s-13.37149,3.39953-13.37149,3.39953Z" fill="#f9977a"/><path d="M203.8418,253.65973a.28318.28318,0,0,1-.14453-.52735,35.20555,35.20555,0,0,1,4.63378-2.14746.28369.28369,0,1,1,.19922.53125,35.3054,35.3054,0,0,0-4.54492,2.10449A.2836.2836,0,0,1,203.8418,253.65973Z" fill="#dd765e"/><path d="M249.56543,246.09527a.2832.2832,0,1,1,0-.5664c2.27393,0,5.48975-1.86914,5.522-1.8877a.28322.28322,0,1,1,.28711.48828C255.2373,244.21051,251.99365,246.09527,249.56543,246.09527Z" fill="#dd765e"/><path d="M241.95172,329.64422c.3523,6.31433.595,12.63123.82117,18.94849.22842,6.31726.367,12.6366.55493,18.95471.107,6.32007.25714,12.639.32364,18.96008l.07974,9.48194c-.01,3.16138.01444,6.32214-.02585,9.48425-.1864-3.15686-.30813-6.31531-.46423-9.473l-.35867-9.47546c-.2258-6.31727-.36792-12.63648-.5532-18.95472-.10437-6.32007-.258-12.639-.32186-18.96C241.94122,342.28949,241.89166,335.9682,241.95172,329.64422Z" fill="#10394f"/><path d="M234.72058,326.61554c-.99325,8.77551-2.09512,17.536-3.21344,26.29443l-3.47729,26.25818L224.3233,405.395l-1.9346,13.10229-2.03921,13.088,1.55356-13.15442,1.65817-13.14013,3.479-26.25806,3.70828-26.22656C232.02536,344.06939,233.31866,335.335,234.72058,326.61554Z" fill="#10394f"/><path d="M251.08426,331.66339c.31555,2.80749.52161,5.61975.711,8.43262.20086,2.81237.32321,5.62805.44528,8.4436.09827,2.81641.19452,5.63306.21347,8.45239l.02484,4.229c-.02826,1.41088-.02215,2.82055-.08072,4.23242-.16806-1.40393-.27145-2.81006-.40921-4.215l-.30362-4.2185c-.2-2.81238-.32278-5.62745-.44348-8.44263-.09692-2.816-.19354-5.6322-.21167-8.45142C251.00064,337.30719,250.9877,334.48761,251.08426,331.66339Z" fill="#10394f"/><polygon points="550.02 314.868 530.72 314.868 533.172 309.109 547.569 309.109 550.02 314.868" fill="#f65b2b"/><rect x="302.29855" y="314.84519" width="273.62223" height="147.50579" rx="5" transform="translate(878.21932 777.19617) rotate(-180)" fill="#935b50"/><rect x="492.06735" y="330.47728" width="72.64307" height="116.24161" rx="5" transform="translate(1056.77778 777.19617) rotate(-180)" fill="#e19974"/><rect x="408.21394" y="330.47728" width="72.64307" height="116.24161" rx="5" transform="translate(889.07094 777.19617) rotate(-180)" fill="#e19974"/><rect x="313.5089" y="415.50928" width="84.43636" height="31.20961" rx="5" transform="translate(711.45415 862.22817) rotate(-180)" fill="#e19974"/><rect x="313.5089" y="373.08931" width="84.43636" height="31.20961" rx="5" transform="translate(711.45415 777.38824) rotate(-180)" fill="#e19974"/><rect x="313.5089" y="330.47728" width="84.43636" height="31.20961" rx="5" transform="translate(711.45415 692.16417) rotate(-180)" fill="#e19974"/><rect x="454.35498" y="218.49957" width="69.14551" height="1" fill="#b02336"/><rect x="523.00049" y="214.96344" width="1" height="8.47559" fill="#b02336"/><rect x="453.49658" y="214.96344" width="1" height="8.47559" fill="#b02336"/><rect x="330.35596" y="163.83258" width="69.14502" height="1" fill="#b02336"/><rect x="399.00098" y="160.29645" width="1" height="8.47461" fill="#b02336"/><rect x="329.49707" y="160.29645" width="1" height="8.47461" fill="#b02336"/><path d="M467.2219,218.41737a9.35688,9.35688,0,0,0-1.01465,2.30664,13.184,13.184,0,0,0-.49878,2.30664,18.34233,18.34233,0,0,0,.33618,4.613q.21021,2.30676.50464,4.61328c.22632,1.5376.40381,3.07544.67261,4.613a.1706.1706,0,0,0,.33618,0c.26855-1.5376.44629-3.07544.67261-4.613q.29444-2.30676.50464-4.61328a18.34279,18.34279,0,0,0,.33618-4.613,13.184,13.184,0,0,0-.49878-2.30664,9.35725,9.35725,0,0,0-1.01465-2.30664.1985.1985,0,0,0-.27344-.06275A.20249.20249,0,0,0,467.2219,218.41737Z" fill="#e19974"/><path d="M512.39578,218.03871a11.2596,11.2596,0,0,0-1.01465,2.59961,16.50458,16.50458,0,0,0-.49878,2.59936,23.23887,23.23887,0,0,0,.33618,5.199q.21021,2.59973.5044,5.199c.22656,1.73315.404,3.46606.67285,5.199a.17009.17009,0,0,0,.33618,0c.26856-1.73291.44629-3.46582.67261-5.199q.29443-2.59937.50439-5.199a23.23849,23.23849,0,0,0,.33643-5.199,16.532,16.532,0,0,0-.49878-2.59936,11.27042,11.27042,0,0,0-1.01465-2.59961.1924.1924,0,0,0-.33618,0Z" fill="#e19974"/><path d="M499.41458,218.03871a9.37011,9.37011,0,0,0-1.01465,2.3081,13.25012,13.25012,0,0,0-.49878,2.30811,18.36793,18.36793,0,0,0,.33643,4.61621q.21019,2.30785.50439,4.616c.22656,1.53881.40405,3.07739.67261,4.61621a.1708.1708,0,0,0,.33643,0c.26855-1.53882.446-3.0774.6726-4.61621q.29443-2.30787.5044-4.616a18.36745,18.36745,0,0,0,.33642-4.61621,13.24829,13.24829,0,0,0-.49878-2.30811,9.36969,9.36969,0,0,0-1.01464-2.3081.19855.19855,0,0,0-.27344-.06275A.20325.20325,0,0,0,499.41458,218.03871Z" fill="#e19974"/><path d="M370.89314,294.49043a19.0157,19.0157,0,0,0,4.54248,2.00782,27.62511,27.62511,0,0,0,4.54224.97046,16.80631,16.80631,0,0,0,4.54224-.033c1.51416-.22412,3.02807-.48755,4.54223-.62891l4.54224-.44653,4.54224-.54615c3.02832-.40551,6.05639-.80078,9.08471-1.32373a.33584.33584,0,0,0,0-.66186c-3.02832-.523-6.05639-.918-9.08471-1.32373l-4.54224-.5459-4.54224-.44678c-1.51416-.14136-3.02807-.40478-4.54223-.6289a16.81563,16.81563,0,0,0-4.54224-.033,27.623,27.623,0,0,0-4.54224.97046,19.02521,19.02521,0,0,0-4.54248,2.00781.3907.3907,0,0,0-.12353.53833A.39762.39762,0,0,0,370.89314,294.49043Z" fill="#e19974"/><path d="M391.4803,162.53389a23.52216,23.52216,0,0,0-2.04052,5.23657,35.65232,35.65232,0,0,0-.98633,5.23658,21.97371,21.97371,0,0,0,.03369,5.23657c.22778,1.7456.4956,3.491.63891,5.23657l.45411,5.23657.55493,5.23657c.41211,3.491.81372,6.98194,1.34521,10.47315a.34022.34022,0,0,0,.67261,0c.53149-3.49121.93311-6.98218,1.34521-10.47315l.55494-5.23657.4541-5.23657c.14331-1.74561.41113-3.491.63891-5.23657a21.96169,21.96169,0,0,0,.0337-5.23657,35.65363,35.65363,0,0,0-.98633-5.23658,23.52269,23.52269,0,0,0-2.04053-5.23657.38442.38442,0,0,0-.67261,0Z" fill="#e19974"/><path d="M335.41365,180.00411l4.29492-1.291a7.96128,7.96128,0,0,1-.33886-2.29395,7.86572,7.86572,0,1,1,15.73144,0,7.96162,7.96162,0,0,1-.33886,2.29395l4.29492,1.291a12.35011,12.35011,0,1,0-23.64356,0Z" fill="#e19974"/><path d="M347.23982,236.32246a12.36039,12.36039,0,0,0,11.8584-15.79687l-4.30468,1.25781a7.86449,7.86449,0,1,1-15.11622-.00879l-4.30468-1.25781a12.36806,12.36806,0,0,0,11.86718,15.80566Z" fill="#e19974"/><path d="M396.46549,309.12738H499.78008a0,0,0,0,1,0,0v3.71782a2,2,0,0,1-2,2H398.46549a2,2,0,0,1-2-2v-3.71782A0,0,0,0,1,396.46549,309.12738Z" transform="translate(896.24556 623.97257) rotate(-180)" fill="#c6c6c6"/><path d="M465.74545,304.27829h23.40721a0,0,0,0,1,0,0v2.84909a2,2,0,0,1-2,2H467.74545a2,2,0,0,1-2-2v-2.84909A0,0,0,0,1,465.74545,304.27829Z" transform="translate(954.89812 613.40566) rotate(-180)" fill="#a0a0a0"/><rect x="406.3306" y="304.27829" width="23.40721" height="4.84909" transform="translate(836.0684 613.40566) rotate(-180)" fill="#a0a0a0"/><circle cx="508.75903" cy="388.59809" r="5.48132" fill="#935b50"/><circle cx="464.16533" cy="388.59809" r="5.48132" fill="#935b50"/><circle cx="355.72708" cy="346.08209" r="5.48132" fill="#935b50"/><circle cx="355.72708" cy="388.68142" r="5.48132" fill="#935b50"/><circle cx="355.72708" cy="431.28075" r="5.48132" fill="#935b50"/><circle cx="391.81662" cy="214.49043" r="21.2744" fill="#c6c6c6"/><circle cx="347.2374" cy="200.26229" r="24.85888" fill="#c6c6c6"/><circle cx="347.2374" cy="200.26229" r="13.80493" fill="#a0a0a0"/><circle cx="391.81665" cy="214.06722" r="13.80493" fill="#a0a0a0"/><path d="M472.3534,229.52254v19.28114l-5.08755-2.34986a8.33316,8.33316,0,0,1,.77443-15.442Z" fill="#c6c6c6"/><path d="M481.8019,219.0924a9.35688,9.35688,0,0,0-1.01465,2.30664,13.184,13.184,0,0,0-.49878,2.30664,18.34233,18.34233,0,0,0,.33618,4.613q.21021,2.30676.50464,4.61328c.22632,1.5376.40381,3.07544.67261,4.613a.1706.1706,0,0,0,.33618,0c.26855-1.5376.44629-3.07544.67261-4.613q.29443-2.30676.50464-4.61328a18.34279,18.34279,0,0,0,.33618-4.613,13.184,13.184,0,0,0-.49878-2.30664,9.35725,9.35725,0,0,0-1.01465-2.30664.19849.19849,0,0,0-.27344-.06274A.20236.20236,0,0,0,481.8019,219.0924Z" fill="#e19974"/><path d="M486.9334,230.19757v19.28114l-5.08755-2.34986a8.33316,8.33316,0,0,1,.77443-15.442Z" fill="#c6c6c6"/><path d="M508.92183,256.566l1.96875-.68359a12.373,12.373,0,0,0,8.31452-11.68846v0a12.373,12.373,0,0,0-8.31452-11.68846l-1.96875-.6836Z" fill="#c6c6c6"/><path d="M497.09717,253.13l6.28328-2.18169a2,2,0,0,0,1.344-1.88935V234.3014a2,2,0,0,0-1.344-1.88934l-6.28328-2.1817a2,2,0,0,0-2.656,1.88935v19.121A2,2,0,0,0,497.09717,253.13Z" fill="#c6c6c6"/><path d="M440.84574,286.69677l-5.638,16.23754a2,2,0,0,1-1.88935,1.344H401.521a2,2,0,0,1-1.88935-1.344l-5.638-16.23754a2,2,0,0,1,1.88935-2.656h43.07343A2,2,0,0,1,440.84574,286.69677Z" fill="#c6c6c6"/><path d="M398.2597,287.76434a25.26868,25.26868,0,0,0,3.299,6.08582,22.09124,22.09124,0,0,0,4.863,4.785,19.36458,19.36458,0,0,0,2.91866,1.77185,22.2942,22.2942,0,0,0,3.16528,1.31531,21.65491,21.65491,0,0,0,3.34828.83813,24.97864,24.97864,0,0,0,3.46569.39246,18.46693,18.46693,0,0,1-3.52628.094,21.617,21.617,0,0,1-3.50346-.5863,19.18743,19.18743,0,0,1-11.36049-8.17432,21.44443,21.44443,0,0,1-1.65711-3.14294A18.30873,18.30873,0,0,1,398.2597,287.76434Z" fill="#a0a0a0"/><path d="M404.36663,285.34723a18.37424,18.37424,0,0,0,2.37453,4.6792,15.13293,15.13293,0,0,0,3.62312,3.63757,15.29727,15.29727,0,0,0,4.61073,2.25818,18.59635,18.59635,0,0,0,5.193.765,13.27226,13.27226,0,0,1-14.07929-6.23816A12.66305,12.66305,0,0,1,404.36663,285.34723Z" fill="#a0a0a0"/><path d="M323.92,308.29907s18.72-19.62,38.16-2.52Z" fill="#d8a935"/><polygon points="360.71 314.845 326.36 314.845 316.36 304.278 370.71 304.278 360.71 314.845" fill="#c6c6c6"/><path d="M354.43968,284.24139a3.4159,3.4159,0,0,1,1.45575,1.3418,2.46918,2.46918,0,0,1,.10861,2.03735,8.60293,8.60293,0,0,1-.97349,1.75794,6.02358,6.02358,0,0,1-.64249.79309,3.882,3.882,0,0,0-.58249.71386,5.62283,5.62283,0,0,0-.77426,1.68555,3.82889,3.82889,0,0,0,.02435,1.81812,3.64574,3.64574,0,0,0,2.5067,2.61023,3.5237,3.5237,0,0,1-1.81039-.79248,3.787,3.787,0,0,1-1.115-1.69568,3.84179,3.84179,0,0,1-.10917-2.05323,6.09183,6.09183,0,0,1,.80163-1.87915,4.44611,4.44611,0,0,1,.67131-.78454,5.47208,5.47208,0,0,0,.60781-.71094,11.534,11.534,0,0,0,.99131-1.62134,2.12364,2.12364,0,0,0,.04612-1.76A3.59382,3.59382,0,0,0,354.43968,284.24139Z" fill="#bababa"/><path d="M344.755,272.58929a3.41538,3.41538,0,0,1,1.45575,1.34168,2.46916,2.46916,0,0,1,.10862,2.03735,8.60073,8.60073,0,0,1-.9735,1.75806,6.022,6.022,0,0,1-.64249.79309,3.88214,3.88214,0,0,0-.58249.71374,5.62577,5.62577,0,0,0-.77426,1.68555,3.82926,3.82926,0,0,0,.02436,1.81824,3.64592,3.64592,0,0,0,2.5067,2.61023,3.5248,3.5248,0,0,1-1.8104-.79248,3.78711,3.78711,0,0,1-1.115-1.69568,3.84189,3.84189,0,0,1-.10917-2.05323,6.09356,6.09356,0,0,1,.80163-1.87927,4.446,4.446,0,0,1,.67131-.78442,5.46518,5.46518,0,0,0,.60781-.71106,11.5329,11.5329,0,0,0,.99132-1.62122,2.12394,2.12394,0,0,0,.04611-1.76013A3.59327,3.59327,0,0,0,344.755,272.58929Z" fill="#bababa"/><path d="M334.41,281.38543a3.41544,3.41544,0,0,1,1.45575,1.34168,2.46941,2.46941,0,0,1,.10862,2.03747,8.60344,8.60344,0,0,1-.9735,1.75794,6.022,6.022,0,0,1-.64249.79309,3.88186,3.88186,0,0,0-.58249.71375,5.62536,5.62536,0,0,0-.77426,1.68554,3.82924,3.82924,0,0,0,.02436,1.81824,3.64569,3.64569,0,0,0,2.50669,2.61023,3.52373,3.52373,0,0,1-1.81039-.79248,3.787,3.787,0,0,1-1.115-1.69568,3.84186,3.84186,0,0,1-.10917-2.05322,6.09351,6.09351,0,0,1,.80163-1.87928,4.45024,4.45024,0,0,1,.67131-.78442,5.46452,5.46452,0,0,0,.60781-.71106,11.53179,11.53179,0,0,0,.99131-1.62121,2.12393,2.12393,0,0,0,.04612-1.76014A3.59334,3.59334,0,0,0,334.41,281.38543Z" fill="#bababa"/><path d="M513.50092,283.9377h52.9553a0,0,0,0,1,0,0v.06867A26.47762,26.47762,0,0,1,539.97859,310.484h-.00005a26.47762,26.47762,0,0,1-26.47762-26.47762v-.06867a0,0,0,0,1,0,0Z" fill="#7ca1b1"/><path d="M490.63336,164.23767H512.2932a0,0,0,0,1,0,0v.02809a10.82991,10.82991,0,0,1-10.82991,10.82991h0a10.82991,10.82991,0,0,1-10.82991-10.82991v-.02809A0,0,0,0,1,490.63336,164.23767Z" transform="translate(48.70452 -104.672) rotate(12.5199)" fill="#7ca1b1"/><path d="M492.56794,171.44261h21.65984a0,0,0,0,1,0,0v.02809a10.82991,10.82991,0,0,1-10.82991,10.82991h0a10.82991,10.82991,0,0,1-10.82991-10.82991v-.02809A0,0,0,0,1,492.56794,171.44261Z" transform="translate(-18.37788 65.32318) rotate(-7.29182)" fill="#f65b2b"/><polygon points="507.471 190.393 499.577 190.393 500.58 188.037 506.469 188.037 507.471 190.393" fill="#ffba55"/><path d="M492.53419,177.95482H514.194a0,0,0,0,1,0,0v.02809a10.82991,10.82991,0,0,1-10.82991,10.82991h0a10.82991,10.82991,0,0,1-10.82991-10.82991v-.02809A0,0,0,0,1,492.53419,177.95482Z" fill="#7ca1b1"/><path d="M518.93029,157.50089h27.23882a0,0,0,0,1,0,0v.03532a13.6194,13.6194,0,0,1-13.6194,13.6194h0a13.6194,13.6194,0,0,1-13.6194-13.6194v-.03532A0,0,0,0,1,518.93029,157.50089Z" transform="translate(48.28656 -111.53797) rotate(12.51992)" fill="#7ca1b1"/><path d="M521.36317,166.56163H548.602a0,0,0,0,1,0,0v.03532a13.6194,13.6194,0,0,1-13.6194,13.6194h0a13.6194,13.6194,0,0,1-13.6194-13.6194v-.03532A0,0,0,0,1,521.36317,166.56163Z" transform="translate(-17.68045 69.30404) rotate(-7.29184)" fill="#f65b2b"/><polygon points="540.105 190.393 530.178 190.393 531.439 187.43 538.844 187.43 540.105 190.393" fill="#ffba55"/><path d="M521.32072,174.75121h27.23882a0,0,0,0,1,0,0v.03532a13.6194,13.6194,0,0,1-13.6194,13.6194h0a13.6194,13.6194,0,0,1-13.6194-13.6194v-.03532A0,0,0,0,1,521.32072,174.75121Z" fill="#7ca1b1"/><path d="M567.6036,284.91834H512.35348a.98066.98066,0,0,1,0-1.96131H567.6036a.98066.98066,0,0,1,0,1.96131Z" fill="#f65b2b"/><path d="M516.67823,288.95013a.42322.42322,0,0,0,0-.84593.42322.42322,0,0,0,0,.84593Z" fill="#fff"/><path d="M523.73894,288.59709a.42322.42322,0,0,0,0-.84593.42322.42322,0,0,0,0,.84593Z" fill="#fff"/><path d="M530.44661,288.95013a.42322.42322,0,0,0,0-.84593.42322.42322,0,0,0,0,.84593Z" fill="#fff"/><path d="M536.80125,288.77361a.42322.42322,0,0,0,0-.84593.42322.42322,0,0,0,0,.84593Z" fill="#fff"/><path d="M543.3324,288.77361a.42322.42322,0,0,0,0-.84593.42322.42322,0,0,0,0,.84593Z" fill="#fff"/><path d="M549.687,288.77361a.42322.42322,0,0,0,0-.84593.42322.42322,0,0,0,0,.84593Z" fill="#fff"/><path d="M556.21819,288.77361a.42322.42322,0,0,0,0-.84593.42322.42322,0,0,0,0,.84593Z" fill="#fff"/><path d="M562.92586,288.77361a.42322.42322,0,0,0,0-.84593.42322.42322,0,0,0,0,.84593Z" fill="#fff"/><path d="M520.3851,292.71584a.42322.42322,0,0,0,0-.84593.42322.42322,0,0,0,0,.84593Z" fill="#fff"/><path d="M526.85742,292.59816a.42322.42322,0,0,0,0-.84593.42322.42322,0,0,0,0,.84593Z" fill="#fff"/><path d="M533.68277,292.48048a.42322.42322,0,0,0,0-.84593.42322.42322,0,0,0,0,.84593Z" fill="#fff"/><path d="M539.91973,292.3628a.42322.42322,0,0,0,0-.84593.42322.42322,0,0,0,0,.84593Z" fill="#fff"/><path d="M546.27436,292.3628a.42322.42322,0,0,0,0-.84593.42322.42322,0,0,0,0,.84593Z" fill="#fff"/><path d="M553.09971,292.3628a.42322.42322,0,0,0,0-.84593.42322.42322,0,0,0,0,.84593Z" fill="#fff"/><path d="M559.68971,292.48048a.42322.42322,0,0,0,0-.84593.42322.42322,0,0,0,0,.84593Z" fill="#fff"/><path d="M523.44474,296.12851a.42322.42322,0,0,0,0-.84593.42322.42322,0,0,0,0,.84593Z" fill="#fff"/><path d="M530.38777,296.01083a.42321.42321,0,0,0,0-.84592.42321.42321,0,0,0,0,.84592Z" fill="#fff"/><path d="M526.9751,299.65887a.42322.42322,0,0,0,0-.84593.42322.42322,0,0,0,0,.84593Z" fill="#fff"/><path d="M530.15242,303.65993a.42322.42322,0,0,0,0-.84593.42322.42322,0,0,0,0,.84593Z" fill="#fff"/><path d="M533.68277,307.42564a.42322.42322,0,0,0,0-.84593.42322.42322,0,0,0,0,.84593Z" fill="#fff"/><path d="M536.86009,303.3069a.42322.42322,0,0,0,0-.84593.42322.42322,0,0,0,0,.84593Z" fill="#fff"/><path d="M540.03741,307.19029a.42322.42322,0,0,0,0-.84593.42322.42322,0,0,0,0,.84593Z" fill="#fff"/><path d="M543.3324,303.42458a.42322.42322,0,0,0,0-.84593.42322.42322,0,0,0,0,.84593Z" fill="#fff"/><path d="M546.74508,307.42564a.42322.42322,0,0,0,0-.84593.42322.42322,0,0,0,0,.84593Z" fill="#fff"/><path d="M550.15775,303.3069a.42322.42322,0,0,0,0-.84593.42322.42322,0,0,0,0,.84593Z" fill="#fff"/><path d="M553.21739,299.77654a.42321.42321,0,0,0,0-.84592.42321.42321,0,0,0,0,.84592Z" fill="#fff"/><path d="M556.63007,295.77548a.42322.42322,0,0,0,0-.84593.42322.42322,0,0,0,0,.84593Z" fill="#fff"/><path d="M549.687,295.6578a.42322.42322,0,0,0,0-.84593.42322.42322,0,0,0,0,.84593Z" fill="#fff"/><path d="M546.392,300.12958a.42322.42322,0,0,0,0-.84593.42322.42322,0,0,0,0,.84593Z" fill="#fff"/><path d="M543.09705,296.01083a.42321.42321,0,0,0,0-.84592.42321.42321,0,0,0,0,.84592Z" fill="#fff"/><path d="M539.91973,299.89422a.42322.42322,0,0,0,0-.84593.42322.42322,0,0,0,0,.84593Z" fill="#fff"/><path d="M536.74241,295.77548a.42322.42322,0,0,0,0-.84593.42322.42322,0,0,0,0,.84593Z" fill="#fff"/><path d="M533.56509,299.54119a.42322.42322,0,0,0,0-.84593.42322.42322,0,0,0,0,.84593Z" fill="#fff"/><path d="M483.53068,268.40532H471.56992a1.12574,1.12574,0,0,1-1.12582-1.12583v-3.313a3.38116,3.38116,0,0,1,3.37747-3.37746H481.279a3.38115,3.38115,0,0,1,3.37746,3.37746v3.313A1.12574,1.12574,0,0,1,483.53068,268.40532Zm-10.83494-2.25165h9.70912v-2.18722a1.12715,1.12715,0,0,0-1.12582-1.12582h-7.45747a1.12715,1.12715,0,0,0-1.12583,1.12582Z" fill="#7ca1b1"/><path d="M507.344,279.78645h-59.9298a1.46357,1.46357,0,1,1,0-2.92713H507.344a1.46357,1.46357,0,1,1,0,2.92713Z" fill="#7ca1b1"/><path d="M497.91416,304.34291H457.22245a2.02648,2.02648,0,0,1-2.02648-2.02648v-29.5866h44.74467v29.5866A2.02649,2.02649,0,0,1,497.91416,304.34291Z" fill="#ffba55"/><path d="M457.22245,266.37887h40.69171a2.02648,2.02648,0,0,1,2.02648,2.02648v4.32448a0,0,0,0,1,0,0H455.196a0,0,0,0,1,0,0v-4.32448A2.02648,2.02648,0,0,1,457.22245,266.37887Z" fill="#e6952a"/><path d="M460.35737,154.71084H448.39661a1.12574,1.12574,0,0,1-1.12583-1.12582v-3.313a3.38116,3.38116,0,0,1,3.37747-3.37746h7.45747a3.38116,3.38116,0,0,1,3.37747,3.37746v3.313A1.12573,1.12573,0,0,1,460.35737,154.71084Zm-10.83494-2.25164h9.70911V150.272a1.12715,1.12715,0,0,0-1.12582-1.12582h-7.45747a1.12715,1.12715,0,0,0-1.12582,1.12582Z" fill="#7ca1b1"/><path d="M484.1707,166.092H424.24091a1.46357,1.46357,0,0,1,0-2.92714H484.1707a1.46357,1.46357,0,0,1,0,2.92714Z" fill="#7ca1b1"/><path d="M474.74084,190.64844H434.04913a2.02649,2.02649,0,0,1-2.02648-2.02648V159.03535h44.74467V188.622A2.02648,2.02648,0,0,1,474.74084,190.64844Z" fill="#ffba55"/><path d="M434.04913,152.6844h40.69171a2.02648,2.02648,0,0,1,2.02648,2.02648v4.32448a0,0,0,0,1,0,0H432.02265a0,0,0,0,1,0,0v-4.32448A2.02648,2.02648,0,0,1,434.04913,152.6844Z" fill="#e6952a"/><path d="M432.77734,194.83077h6.03549a0,0,0,0,1,0,0V209.913a1.25912,1.25912,0,0,1-1.25912,1.25912h-3.51725a1.25912,1.25912,0,0,1-1.25912-1.25912V194.83077A0,0,0,0,1,432.77734,194.83077Z" fill="#935b50"/><path d="M533.59583,194.83077h6.03549a0,0,0,0,1,0,0V209.913a1.25912,1.25912,0,0,1-1.25912,1.25912H534.855a1.25912,1.25912,0,0,1-1.25912-1.25912V194.83077A0,0,0,0,1,533.59583,194.83077Z" fill="#935b50"/><path d="M555.57289,196.43312H421.92409a1.4936,1.4936,0,0,1-1.35327-1.60209c0-.88475.60593-3.995,1.35327-3.995h133.6488c.74734,0,1.35327,3.11022,1.35327,3.995A1.4936,1.4936,0,0,1,555.57289,196.43312Z" fill="#d6694b"/><line x1="100" y1="461.82215" x2="600" y2="461.82215" fill="none" stroke="#935b50" stroke-linecap="round" stroke-linejoin="round" stroke-width="2"/></svg>