<svg xmlns="http://www.w3.org/2000/svg" viewBox="0 0 471.40519 336.9962"><title>Asset 19</title><g id="Layer_2" data-name="Layer 2"><g id="Layer_1-2" data-name="Layer 1"><path d="M151.98749,335.99631c-14.83683-4.63823-28.1489-9.37688-44.16355-18.37029-16.51682-9.27644-89.88839-53.42173-99.42961-129.82458a145.73456,145.73456,0,0,1,6.08082-62.23253c2.9491-8.64645,9.06644-26.01239,24.50588-43.1866C57.88088,61.346,79.44679,53.19255,92.09233,48.58172a153.2473,153.2473,0,0,1,59.54821-8.84732c11.46773.37435,31.70974,1.21434,54.71824,11.26686,15.01031,6.5556,24.34154,14.03337,38.09186,25.20893,21.785,17.722,24.652,25.09936,62.76209,61.69384,10.4634,10.04339,19.06419,17.95941,32.19365,25.75674,9.103,5.40517,16.462,8.42732,30.03888,13.94206,33.37147,13.55858,42.873,16.30386,53.79295,23.93685,21.23722,14.85509,19.86166,31.0553,20.7747,34.5431a68.59354,68.59354,0,0,1,1.61607,27.36369c-2.78476,18.32463-12.65467,30.30366-18.78115,37.55317A103.26268,103.26268,0,0,1,396.809,325.14031a191.96377,191.96377,0,0,1-24.61545,10.856Z" fill="#f9e0c0"/><path d="M104.88273,323.045c-21.916-12.31348-94.17285-58.47949-103.79395-135.57227a152.77869,152.77869,0,0,1,6.3545-65.02539C10.1796,114.422,16.58781,95.629,33.05363,77.30675,53.22062,54.8673,76.2089,46.48253,88.55851,41.97862a159.83121,159.83121,0,0,1,62.19824-9.248c10.59278.34375,32.63379,1.06054,57.166,11.77343l-.36524.83594c-24.37207-10.6416-45.48632-11.32812-56.83007-11.69726A158.93141,158.93141,0,0,0,88.871,42.83605C76.59562,47.31358,53.748,55.64659,33.73332,77.91612c-16.3418,18.1836-22.708,36.85352-25.42676,44.82618A151.8339,151.8339,0,0,0,1.995,187.35948c9.56836,76.669,81.5127,122.62891,103.335,134.88868Z" fill="#f4c5a2"/><rect x="237.81297" width="144.00419" height="109.28889" rx="6.54781" fill="#e5e1e5"/><rect x="237.81339" y="12.98839" width="144.00391" height="0.5957" fill="#a2aee6"/><path d="M245.95606,9.96458c3.44717,0,3.45288-5.3573,0-5.3573-3.44716,0-3.45287,5.3573,0,5.3573Z" fill="#ffba55"/><path d="M254.8849,9.96458c3.44716,0,3.45287-5.3573,0-5.3573-3.44717,0-3.45288,5.3573,0,5.3573Z" fill="#f73c4f"/><path d="M263.21847,9.96458c3.44717,0,3.45288-5.3573,0-5.3573-3.44716,0-3.45287,5.3573,0,5.3573Z" fill="#4f66d0"/><rect x="245.95606" y="22.28636" width="126.43225" height="29.57229" fill="#a2aee6"/><path d="M243.38468,104.44347a.29785.29785,0,0,1-.2207-.49805l1.20117-1.32129a.298.298,0,1,1,.44141.40039l-1.20117,1.32129A.29966.29966,0,0,1,243.38468,104.44347Z" fill="#a2aee6"/><path d="M247.03214,100.43077a.29282.29282,0,0,1-.20019-.07812.29592.29592,0,0,1-.01953-.41992l1.81445-1.99512a6.67354,6.67354,0,0,1,.71191-.67774.29773.29773,0,0,1,.377.46094,6.05,6.05,0,0,0-.64844.61719l-1.81543,1.99512A.296.296,0,0,1,247.03214,100.43077Zm45.4043-.48926a.29787.29787,0,0,1-.00488-.5957,6.23375,6.23375,0,0,0,3.28125-.98828.29743.29743,0,1,1,.32226.5,6.82984,6.82984,0,0,1-3.59375,1.084Zm-29.47168-.86816a6.80436,6.80436,0,0,1-2.64258-.53125l-.71191-.29785a.29763.29763,0,1,1,.23047-.54883l.71191.29785a6.33489,6.33489,0,0,0,2.66992.47949l.0127-.001a.2975.2975,0,0,1,.01269.59472C263.15324,99.0714,263.05851,99.07335,262.96476,99.07335Zm26.00488-.0625a.29636.29636,0,0,1-.15234-.042,6.83182,6.83182,0,0,1-.69629-.47852l-2.23047-1.74218a.29772.29772,0,0,1,.36719-.46875l2.23047,1.74218a6.13929,6.13929,0,0,0,.63379.43555.29783.29783,0,0,1-.15235.55371Zm-22.29882-1.02051a.29771.29771,0,0,1-.13379-.56347l3.249-1.63575a.29742.29742,0,0,1,.26758.53125l-3.249,1.63575A.29966.29966,0,0,1,266.67082,97.99034ZM256.371,96.86241a.29544.29544,0,0,1-.11426-.02343l-.15039-.0625a6.27126,6.27126,0,0,0-3.25-.42969.29175.29175,0,0,1-.335-.25488.29748.29748,0,0,1,.25488-.335,6.83478,6.83478,0,0,1,3.55957.47071l.14942.0625a.29764.29764,0,0,1-.11426.57226Zm42.09863-.48535a.29785.29785,0,0,1-.2207-.49805l2.44238-2.69531a.298.298,0,1,1,.44141.40039l-2.44238,2.69532A.2981.2981,0,0,1,298.46964,96.37706Zm-25.30175-1.65918a.29771.29771,0,0,1-.13379-.56347l2.51172-1.26465a6.79693,6.79693,0,0,1,.792-.33887.29745.29745,0,0,1,.19922.56055,6.29411,6.29411,0,0,0-.72364.30957l-2.51172,1.26465A.29966.29966,0,0,1,273.16789,94.71788Zm10.041-.14551a.29526.29526,0,0,1-.18359-.06347l-.55274-.43164a6.286,6.286,0,0,0-2.51562-1.18067.29805.29805,0,0,1-.22754-.35449.29309.29309,0,0,1,.35449-.22754,6.87178,6.87178,0,0,1,2.75586,1.29395l.55273.43164a.29782.29782,0,0,1-.18359.53222Zm20.14551-3.58593a.29784.29784,0,0,1-.2207-.49805l.22558-.249a6.86264,6.86264,0,0,1,2.85059-1.87793.2974.2974,0,0,1,.19336.5625,6.269,6.269,0,0,0-2.60254,1.71582l-.22559.249A.29809.29809,0,0,1,303.35441,90.98644ZM327.29,88.58605H324.453a.29786.29786,0,0,1,0-.59571H327.29a6.15883,6.15883,0,0,0,.76171-.04687.30735.30735,0,0,1,.332.25976.29913.29913,0,0,1-.25977.332A7.01369,7.01369,0,0,1,327.29,88.58605Zm-6.47461,0h-3.63672a.29786.29786,0,0,1,0-.59571h3.63672a.29786.29786,0,0,1,0,.59571Zm-7.27344,0h-3.6377a.29786.29786,0,0,1,0-.59571h3.6377a.29786.29786,0,0,1,0,.59571Zm17.85254-1.44727a.29778.29778,0,0,1-.18653-.5293,6.35585,6.35585,0,0,0,.91407-.90527l1.45019-1.76758a.29772.29772,0,0,1,.46094.377L332.582,86.08214a6.95141,6.95141,0,0,1-1.001.99023A.293.293,0,0,1,331.39445,87.13878Zm4.71484-5.52734a.29788.29788,0,0,1-.23047-.48633l2.30762-2.81153a.29773.29773,0,1,1,.46094.377l-2.30762,2.81152A.29747.29747,0,0,1,336.10929,81.61144Zm24.78223-4.53516a.29781.29781,0,0,1-.041-.59277,6.24206,6.24206,0,0,0,3.13379-1.3877.29746.29746,0,1,1,.38086.457,6.84082,6.84082,0,0,1-3.43262,1.52051A.29006.29006,0,0,1,360.89152,77.07628Zm-3.5625-.48047a.30321.30321,0,0,1-.10059-.01758l-3.42578-1.22363a.29778.29778,0,1,1,.20117-.56055l3.42578,1.22364a.29782.29782,0,0,1-.10058.57812Zm-16.60547-.60742a.29787.29787,0,0,1-.23047-.48633l.4541-.55371a6.81169,6.81169,0,0,1,2.39063-1.85937.29752.29752,0,1,1,.252.53906,6.2274,6.2274,0,0,0-2.18164,1.69726l-.4541.55371A.29747.29747,0,0,1,340.72355,75.98839Zm9.75488-1.83887a.30311.30311,0,0,1-.10058-.01758l-2.03614-.72753a6.31339,6.31339,0,0,0-1.36718-.32129.298.298,0,1,1,.07031-.5918,6.91346,6.91346,0,0,1,1.49707.35254l2.03711.72754a.29782.29782,0,0,1-.10059.57812Zm16.09473-1.25293a.29789.29789,0,0,1-.22949-.4873l2.31933-2.80176a.29759.29759,0,0,1,.459.37891l-2.31934,2.80175A.29766.29766,0,0,1,366.57316,72.89659Z" fill="#a2aee6"/><path d="M371.24992,67.24718a.2979.2979,0,0,1-.2295-.48731l1.13868-1.376a.29759.29759,0,0,1,.459.3789l-1.13867,1.376A.29622.29622,0,0,1,371.24992,67.24718Z" fill="#a2aee6"/><rect x="245.95597" y="59.2755" width="55.28711" height="0.5957" fill="#a2aee6"/><rect x="245.95597" y="68.2755" width="55.28711" height="0.5957" fill="#a2aee6"/><rect x="245.95597" y="77.2755" width="55.28711" height="0.5957" fill="#a2aee6"/><circle cx="371.66945" cy="58.80293" r="3.6884" fill="#fff"/><path d="M371.67669,53.23276a5.323,5.323,0,0,0-5.32329,5.32329c0,2.34437,3.38384,7.49271,4.75618,9.48362a.64594.64594,0,0,0,1.13421,0C373.61472,66.04876,377,60.90042,377,58.55605a5.323,5.323,0,0,0-5.32329-5.32329Zm0,2.48419a2.83909,2.83909,0,1,1-2.83909,2.8391,2.83922,2.83922,0,0,1,2.83909-2.8391Z" fill="#f73c4f"/><circle cx="302.55591" cy="35.07088" r="3.6884" fill="#fff"/><path d="M302.56315,29.5007a5.323,5.323,0,0,0-5.3233,5.3233c0,2.34436,3.38384,7.4927,4.75619,9.48361a.64594.64594,0,0,0,1.13421,0c1.37093-1.99091,4.75619-7.13925,4.75619-9.48361a5.323,5.323,0,0,0-5.32329-5.3233Zm0,2.4842a2.83909,2.83909,0,1,1-2.83909,2.8391,2.83921,2.83921,0,0,1,2.83909-2.8391Z" fill="#f73c4f"/><path d="M235.08931,309.70667l4.18513,17.7375s10.51016-.24125,12.07419-12.92677l-3.584-10.05031Z" fill="#f9977a"/><path d="M124.87311,293.61413,110.872,305.28042s4.90979,9.296,16.9584,5.02991l7.39168-7.69523Z" fill="#f9977a"/><path d="M165.01692,161.28044l-9.97946,80.17395-35.01267,55.30987,11.67089,11.16347L175.8125,256.771a21.84906,21.84906,0,0,0,4.77732-9.5054l9.46032-42.34616L234.19655,313.002l15.73033-6.59659-17.25262-74.59222-21.14292-70.53278Z" fill="#f73c4f"/><polygon points="183.859 161.28 193.012 181.189 202.081 201.135 220.077 241.091 220.087 241.114 220.095 241.138 231.266 275.355 236.758 292.495 242.146 309.669 236.275 292.654 230.509 275.605 219.164 241.445 219.182 241.492 201.407 201.437 192.591 181.377 183.859 161.28" fill="#b02336"/><circle cx="253.61719" cy="61.4572" r="7.32475" fill="#fff"/><path d="M196.86056,84.8792c3.72322,7.629,17.05592,16.48764,19.99431,8.52339l-1.09246-7.07678a14.39125,14.39125,0,0,1,1.45912-8.95244c.27515-.51749.49933-.85342.608-.82927,1.76436.39219,5.43537.81516,4.54678-2.74563a3.09254,3.09254,0,0,1,1.207-2.49393.87248.87248,0,0,0,.06223-1.34247,8.89644,8.89644,0,0,1-2.3234-2.89214.61694.61694,0,0,1,.70692-.82985l3.40391.75592a.497.497,0,0,0,.6043-.50531l-.01851-.456a.53007.53007,0,0,1,.51728-.55143l1.19913-.028a1.26052,1.26052,0,0,0,1.17616-1.62834l-1.4165-4.63832a3.433,3.433,0,0,1,.09892-2.31053c1.01554-2.45349,2.88322-1.39363,2.20392-6.9777,0,0-5.00776-7.22691-18.226-.68756,0,0,.60252-.46451-5.79635,3.785,0,0-2.48868,1.56787-2.11472,7.88938,0,0-9.12641,15.19945-10.51207,16.38587Z" fill="#f9977a"/><path d="M220.45322,56.11806a.48859.48859,0,0,1-.21889-.93439,18.6664,18.6664,0,0,1,7.82856-1.40622.48859.48859,0,0,1,.45929.51613.48372.48372,0,0,1-.51614.45929,18.05573,18.05573,0,0,0-7.37426,1.32356A.4884.4884,0,0,1,220.45322,56.11806Z"/><path d="M222.84,57.46843a3.55345,3.55345,0,0,1,1.90687-.68976,3.91386,3.91386,0,0,1,1.03045.092,2.44866,2.44866,0,0,1,.92877.4408c-.34674-.02145-.66095-.0694-.98162-.06876a6.4981,6.4981,0,0,0-.94666.02289C224.142,57.281,223.52146,57.40569,222.84,57.46843Z" fill="#350500"/><ellipse cx="225.21906" cy="58.07862" rx="0.61556" ry="1.07456" transform="translate(-2.17041 9.18303) rotate(-2.32464)" fill="#050505"/><path d="M205.31817,56.15273a6.44569,6.44569,0,0,1,2.24923-.28708,2.36411,2.36411,0,0,1,1,.34468,4.20448,4.20448,0,0,1,.8602.7589,2.08433,2.08433,0,0,0-1.80373-1.58855,3.086,3.086,0,0,0-2.3057.77205Z" fill="#dd765e"/><path d="M205.47185,59.93861a3.23848,3.23848,0,0,0,1.08774-.70511,3.94876,3.94876,0,0,0,.78683-1.0543,4.78236,4.78236,0,0,0,.25173-.615,3.7066,3.7066,0,0,0,.12251-.652,3.04875,3.04875,0,0,0-.13575-1.29169,10.03856,10.03856,0,0,1-.239,1.22275,5.26863,5.26863,0,0,1-.4344,1.11406A8.69191,8.69191,0,0,1,205.47185,59.93861Z" fill="#dd765e"/><path d="M199.76962,66.51623c-3.01852-.96072-3.52945-6.04233-4.02617-10.98264a23.81686,23.81686,0,0,1,.9124-10.894c.91105-2.62945,1.79332-5.17588,4.37811-7.256,3.59125-2.89006,8.08094-2.9582,11.66184-3.01255,4.00824-.06084,7.21219-.10947,10.04053,1.8138,2.99785,2.03855,3.86116,1.82438,5.59427,4.58637.59742.95208,3.29745,1.48842,4.70616,2.59591.28086.2208,1.91,1.5016,1.65866,2.45745-.1084.41215-1.2557,3.80081-7.77811,4.17356-3.76509.21517-4.90769-.35461-6.75052.294-4.05893,1.42859-6.15227-.13525-7.0321-.04658-1.059.10675-.13145,1.584.263,3.94247a24.4057,24.4057,0,0,1,.25993,5.36848c-.1247,2.81405-.61438,3.41957-.28184,5.46728a6.35746,6.35746,0,0,0,1.25671,3.38136c1.10207,1.321,2.657,1.78367,4.789,2.38985,3.70181,1.05248,4.0731-.02724,4.44434.86972.37145.89746-.57916,3.7861-1.566,4.42513-2.72607,1.76522-5.60575.26578-7.66329-.1583-2.77859-.57268-8.58911-3.84418-8.28553-7.30584.16312-1.86005,1.94978-6.49853,3.05156-9.21837a4.49965,4.49965,0,0,0-.92728-4.90648,2.1045,2.1045,0,0,0-1.10835-.63615,2.85524,2.85524,0,0,0-2.61458,1.206c-.14791.22153-.61982,1.0158.17328,3.579C205.76106,61.34957,202.39725,67.35254,199.76962,66.51623Z"/><path d="M226.51065,67.423a.98044.98044,0,0,1-.24943-.0221l-4.01072-.87858a3.74792,3.74792,0,0,1-2.30224-1.55386.9771.9771,0,1,1,1.61406-1.10167,1.80108,1.80108,0,0,0,1.10632.74676l4.01073.87858a.97719.97719,0,0,1-.16872,1.93087Z"/><path d="M237.087,318.04223s-3.25821,13.577,3.29446,17.18976a4.04076,4.04076,0,0,0,2.83752.42815l36.04239-18.02774a1.31236,1.31236,0,0,0,.57894-1.86715,9.0281,9.0281,0,0,0-7.79754-4.81976c-6.1164.04446-9.42959,5.5625-21.23452,2.05654C250.80824,313.002,242.69365,321.28387,237.087,318.04223Z" fill="#935b50"/><path d="M118.30723,299.12425s-12.70814,2.70178-13.01412,10.17815a2.50142,2.50142,0,0,0,.9346,2.03615l17.00461,24.44612s16.19819.9949,16.20582.21164c.11365-11.66551-6.64286-7.51685-9.32861-12.63135-.89526-1.70483-.09846-9.767-.63228-12.799C129.47725,310.56593,117.91082,305.58844,118.30723,299.12425Z" fill="#935b50"/><path d="M195.46272,74.5099s11.91016,4.17722,20.245,7.6467l.57658.67457A20.84777,20.84777,0,0,1,220.01451,99.445l-3.23972,15.9976,11.67089-16.576,9.81031,7.27317-14.781,30.71a9.68853,9.68853,0,0,1-8.73,5.48671h0l-3.21373,18.94405H165.01692s-2.368-3.04458,5.24344-23.68007C170.26036,137.60037,177.53353,95.822,195.46272,74.5099Z" fill="#ffba55"/><path d="M216.77479,115.44259l11.67089-16.576,9.81031,7.27317-14.781,30.71a9.68853,9.68853,0,0,1-8.73,5.48671h0Z" fill="#ffba55"/><path d="M195.46272,74.5099l-10.624,5.61851c-8.05738,4.26114-11.44553,11.45823-13.05607,20.42957L167.891,115.64a38.88078,38.88078,0,0,0,1.6579,24.42674l12.88982,31.53144,15.73033-6.2583-13.86976-37.54982L191.74157,97.006" fill="#ffba55"/><path d="M184.18947,170.90164l3.37116,7.22554c.2689,1.533,4.2,2.98673,5.65285,2.48268,3.256-1.12965,6.37943-4.63145,6.49257-5.58641l-1.537-1.73383s6.93487,1.35315,7.4423.16914c0,0,.98674-1.11842-2.18993-1.651A11.98368,11.98368,0,0,1,198.198,169.548c-1.29357-.97607-2.48444-2.15941-2.51-3.22112Z" fill="#f9977a"/><path d="M164.67863,244.499l-2.353-1.08121c-.78033-.35016-1.55817-.69629-2.35254-.98694a16.7437,16.7437,0,0,0-2.40826-.75329,8.56638,8.56638,0,0,0-2.52741-.22315,5.29929,5.29929,0,0,1,2.61475-.31982,9.9883,9.9883,0,0,1,2.57129.63791A14.07158,14.07158,0,0,1,164.67863,244.499Z" fill="#b02336"/><path d="M165.017,161.28044a29.88672,29.88672,0,0,0,1.81793,9.04724,33.223,33.223,0,0,0,4.26556,8.143c.40857.65127.94751,1.2073,1.41431,1.81552l.72534.89386c.24884.29163.53284.5524.79736.83008l1.614,1.64172,1.75634,1.49033.87568.74865c.30432.23371.627.44382.93963.667l1.89032,1.3215c1.292.83179,2.66638,1.53528,3.99616,2.31058l.11456.0668.03418.102,2.4342,7.26694c.79847,2.42685,1.59284,4.85516,2.35761,7.29382-.92664-2.38187-1.82373-4.77414-2.71668-7.16782l-2.64007-7.19473.1485.16849c-1.35553-.77124-2.75537-1.47165-4.07569-2.30353l-1.93451-1.32419c-.32013-.22391-.6502-.43478-.96222-.66964l-.89959-.75318-1.79431-1.51337-1.63056-1.69009c-.267-.2858-.553-.5545-.80408-.85434l-.73144-.91861c-.47058-.62482-1.01239-1.197-1.42346-1.86487a30.68065,30.68065,0,0,1-4.15564-8.36847A26.95859,26.95859,0,0,1,165.017,161.28044Z" fill="#b02336"/><path d="M204.266,195.21581a12.28846,12.28846,0,0,0,1.76062-.83463,11.73657,11.73657,0,0,0,1.61218-1.0419,9.23379,9.23379,0,0,0,2.47718-2.80884,8.41779,8.41779,0,0,0,1.07385-3.57235l.05823-.47452-.01136-.4787-.02343-.9639c-.03833-.644-.16663-1.28073-.21656-1.941.20435.61929.40265,1.25174.55908,1.89584l.12555.98887.06031.49768-.01038.50229a7.67054,7.67054,0,0,1-1.00226,3.89266,8.24711,8.24711,0,0,1-2.7799,2.90351A9.74457,9.74457,0,0,1,204.266,195.21581Z" fill="#b02336"/><path d="M229.28877,99.49159l3.09955-7.01511a6.00759,6.00759,0,0,1,1.54589-2.09917l4.95607-4.32337s2.79086-1.26858,6.8503,2.15657c0,0-.21961,2.409-5.9282,1.14041l.09276,2.4116,5.83544-.50743,3.80573.12686s4.82059-3.42515,5.70859-3.42515c0,0,5.83544.38057-4.94745,5.83544L247.94,97.63932a5.77747,5.77747,0,0,1-4.92043,2.74951h-3.74874l-2.31807,4.7847Z" fill="#f9977a"/><polygon points="239.778 96.71 238.256 94.68 260.329 83.897 261.217 85.824 239.778 96.71" fill="#1b2e35"/><path d="M245.14363,99.98307l-4.97651-.85715a.9267.9267,0,0,1-.76941-.91326h0a.9267.9267,0,0,1,.99273-.92435l6.11129.43652-4.17054-1.09229a1.17894,1.17894,0,0,1-.83724-1.456h0a1.17894,1.17894,0,0,1,1.4461-.82187l4.196,1.14422-3.25416-1.97024a1.0093,1.0093,0,0,1-.36539-1.34286h0a1.0093,1.0093,0,0,1,1.24123-.466l5.54975,2.0725" fill="#f9977a"/><path d="M245.14347,100.171a.18022.18022,0,0,1-.03223-.00293l-4.97656-.85742a1.11354,1.11354,0,0,1-.56933-1.91309,1.1,1.1,0,0,1,.83886-.2959l4.09571.292-2.2168-.58008a1.36662,1.36662,0,0,1-.96973-1.68652,1.37109,1.37109,0,0,1,1.67578-.95312l2.90625.793-2.11035-1.27833a1.196,1.196,0,0,1,1.03809-2.14355l5.5498,2.07129a.18756.18756,0,0,1-.13086.35156l-5.5498-2.07324a.82238.82238,0,0,0-.71387,1.47363l3.25391,1.97071a.18733.18733,0,0,1,.07519.23437.19176.19176,0,0,1-.2207.10645l-4.19531-1.14454a.99438.99438,0,0,0-1.2168.69141.99173.99173,0,0,0,.7041,1.22559l4.1709,1.09179a.18724.18724,0,0,1,.13672.21094.17666.17666,0,0,1-.19824.15625l-6.11133-.43652a.73968.73968,0,0,0-.17773,1.46679l4.97656.85743a.18744.18744,0,0,1-.03223.37207Z" fill="#dd765e"/><polyline points="169.549 140.067 182.439 171.598 198.169 165.34 184.299 127.79 191.742 97.006" fill="#ffba55"/><polygon points="169.549 140.067 176.164 155.763 182.708 171.488 182.331 171.328 198.047 165.033 197.859 165.454 190.922 146.68 184.039 127.886 184.01 127.806 184.03 127.725 187.848 112.356 191.742 97.006 188.193 112.44 184.569 127.855 184.559 127.694 191.546 146.45 198.479 165.225 198.591 165.528 198.291 165.647 182.546 171.869 182.276 171.975 182.169 171.708 175.823 155.902 169.549 140.067" fill="#e6952a"/><path d="M229.61338,244.479a9.959,9.959,0,0,1-3.91125-1.22159,6.47973,6.47973,0,0,1-2.8761-3.0336,6.379,6.379,0,0,1-.21442-4.17453,17.986,17.986,0,0,1,.71851-1.94177c.35986-.5881.69659-1.18222,1.06958-1.74783-.234.6445-.50421,1.26046-.75141,1.88247a18.66583,18.66583,0,0,0-.50708,1.923,6.5702,6.5702,0,0,0,.33081,3.778,6.69648,6.69648,0,0,0,2.51282,2.85468,10.14761,10.14761,0,0,0,1.74158.95724A13.26166,13.26166,0,0,0,229.61338,244.479Z" fill="#b02336"/><path d="M216.77476,115.44258c-.02417,2.25211-.12543,4.49839-.23834,6.74378-.11127,2.24551-.28577,4.48626-.42554,6.72961-.19666,2.23908-.363,4.48044-.58808,6.71738-.22576,2.23688-.46252,4.4729-.7777,6.703.02307-2.25217.12457-4.49841.23712-6.74383.11316-2.2454.28509-4.48633.42675-6.72956.19849-2.23892.36231-4.48047.58936-6.71725C216.22367,119.90883,216.46073,117.67281,216.77476,115.44258Z" fill="#e6952a"/><path d="M253.63156,50.39546A10.57079,10.57079,0,0,0,243.0601,60.96692c0,4.65564,6.71993,14.87967,9.44525,18.8334a1.28277,1.28277,0,0,0,2.25241,0c2.72251-3.95373,9.44526-14.17776,9.44526-18.8334a10.5708,10.5708,0,0,0-10.57146-10.57146Zm0,4.93333a5.63811,5.63811,0,1,1-5.63811,5.63813,5.63836,5.63836,0,0,1,5.63811-5.63813Z" fill="#f73c4f"/><path d="M189.13737,179.8268a5.84883,5.84883,0,0,0,2.57757.66794,5.44131,5.44131,0,0,0,2.55176-.48648,10.66375,10.66375,0,0,0,3.96167-3.38324,29.78938,29.78938,0,0,0,2.68012-4.64829c.80035-1.61978,1.405-3.32538,2.12426-5.00372-.21319.88418-.47088,1.7579-.70636,2.64123-.22674.88657-.61853,1.71674-.92181,2.581a22.75921,22.75921,0,0,1-2.61206,4.8515,10.09065,10.09065,0,0,1-4.33081,3.46469A5.66658,5.66658,0,0,1,189.13737,179.8268Z" fill="#b02336"/><path d="M198.169,173.28962s6.93487,1.35315,7.4423.16914c0,0,.98674-1.11842-2.18993-1.651A11.98368,11.98368,0,0,1,198.198,169.548c-1.29357-.97607-2.48444-2.15941-2.51-3.22112Z" fill="#f9977a"/><path d="M177.53117,186.39824c-1.62525,10.00986-3.33832,20.00378-5.07764,29.99292-1.70953,9.99457-3.54822,19.96564-5.316,29.94962l-.01923.10839-.06549.09031-10.18249,14.04357-10.21323,14.02149L136.37479,288.576l-10.371,13.90735,9.956-14.20739,10.04464-14.14325,10.1138-14.09333,10.14441-14.07116-.08453.19833c1.85669-9.96783,3.64239-19.94855,5.55731-29.90579C173.62052,206.29805,175.532,196.34017,177.53117,186.39824Z" fill="#b02336"/><path d="M418.25285,336.54991c-.89942-1.499-22.083-36.80175-25.50977-45.93945l.85547-.32031c3.39648,9.05957,25.2168,45.42285,25.4375,45.78906Z" fill="#8b9d36"/><path d="M400.56585,271.22181a39.22492,39.22492,0,0,0-2.10917,7.06939,66.09048,66.09048,0,0,0-1.078,7.16754,64.77407,64.77407,0,0,0-.29692,7.24176,38.69385,38.69385,0,0,0,.74452,7.34079,38.72912,38.72912,0,0,0,2.11407-7.069,64.87845,64.87845,0,0,0,1.07308-7.168,66.08876,66.08876,0,0,0,.292-7.24221A39.18859,39.18859,0,0,0,400.56585,271.22181Z" fill="#8b9d36"/><path d="M408.61911,282.233a37.41369,37.41369,0,0,0-2.73687,6.66543,62.83361,62.83361,0,0,0-1.71953,6.86081,61.87359,61.87359,0,0,0-.94914,7.00876,37.00357,37.00357,0,0,0,.07846,7.206,36.96966,36.96966,0,0,0,2.74178-6.66448,61.87339,61.87339,0,0,0,1.71462-6.86181,62.93606,62.93606,0,0,0,.94424-7.00966A37.44758,37.44758,0,0,0,408.61911,282.233Z" fill="#8b9d36"/><path d="M413.05634,295.052a31.74548,31.74548,0,0,0-2.32984,6.19548,52.73757,52.73757,0,0,0-1.30358,6.34194,51.85461,51.85461,0,0,0-.5274,6.45272,31.34443,31.34443,0,0,0,.50823,6.60056,31.34527,31.34527,0,0,0,2.33475-6.19481,51.76652,51.76652,0,0,0,1.29867-6.34261,52.73658,52.73658,0,0,0,.5225-6.45344A31.71454,31.71454,0,0,0,413.05634,295.052Z" fill="#8b9d36"/><path d="M418.64423,307.84734a24.30269,24.30269,0,0,0-2.36239,5.27242,39.603,39.603,0,0,0-1.341,5.44873,38.8702,38.8702,0,0,0-.56842,5.58215,24.021,24.021,0,0,0,.46231,5.76014,24.00253,24.00253,0,0,0,2.3673-5.27158,38.93551,38.93551,0,0,0,1.33656-5.44957,39.66777,39.66777,0,0,0,.56352-5.583A24.30234,24.30234,0,0,0,418.64423,307.84734Z" fill="#8b9d36"/><path d="M423.57454,315.84488a21.8797,21.8797,0,0,0-2.49391,4.62938,37.72662,37.72662,0,0,0-1.56795,4.80235,43.10955,43.10955,0,0,0-.94691,4.92484c-.10254.83591-.19661,1.66714-.259,2.51442a18.71227,18.71227,0,0,1-.27552,2.5746,5.05372,5.05372,0,0,0,.60631-.38273l.49219-.49319a9.10128,9.10128,0,0,0,.86087-1.07676,17.24662,17.24662,0,0,0,1.32364-2.30366,25.653,25.653,0,0,0,1.73691-4.85752,28.75328,28.75328,0,0,0,.81763-5.05781A19.041,19.041,0,0,0,423.57454,315.84488Z" fill="#8b9d36"/><path d="M395.77732,296.10354a31.4531,31.4531,0,0,0-5.5549-4.8169,51.47733,51.47733,0,0,0-6.13981-3.66123,50.575,50.575,0,0,0-6.58295-2.78653,31.09365,31.09365,0,0,0-7.17322-1.61982,31.08455,31.08455,0,0,0,5.55178,4.82241,50.5764,50.5764,0,0,0,6.14293,3.65571,51.45484,51.45484,0,0,0,6.58562,2.781A31.45075,31.45075,0,0,0,395.77732,296.10354Z" fill="#8b9d36"/><path d="M401.23369,306.29506a38.74618,38.74618,0,0,0-6.85134-4.4851,64.50882,64.50882,0,0,0-7.307-3.27247,63.35634,63.35634,0,0,0-7.65158-2.35482,38.30553,38.30553,0,0,0-8.11122-1.13065,38.31225,38.31225,0,0,0,6.84866,4.4909,63.36815,63.36815,0,0,0,7.30919,3.26668,64.49544,64.49544,0,0,0,7.65381,2.349A38.74619,38.74619,0,0,0,401.23369,306.29506Z" fill="#8b9d36"/><path d="M407.65659,317.6233a33.042,33.042,0,0,0-6.17592-4.33023,54.30053,54.30053,0,0,0-6.64715-3.12351,53.33665,53.33665,0,0,0-7.00336-2.21026,32.65994,32.65994,0,0,0-7.4786-.992,32.67105,32.67105,0,0,0,6.17369,4.336,53.34578,53.34578,0,0,0,6.64938,3.11778,54.30709,54.30709,0,0,0,7.00559,2.20451A33.04083,33.04083,0,0,0,407.65659,317.6233Z" fill="#8b9d36"/><path d="M412.73268,326.34267a24.77106,24.77106,0,0,0-5.42427-3.57284,39.55957,39.55957,0,0,0-5.81124-2.33659,38.85108,38.85108,0,0,0-6.10459-1.40109,24.50759,24.50759,0,0,0-6.49513-.15309,24.506,24.506,0,0,0,5.42249,3.5787,38.84859,38.84859,0,0,0,5.81347,2.33074,39.54082,39.54082,0,0,0,6.10593,1.39513A24.78361,24.78361,0,0,0,412.73268,326.34267Z" fill="#8b9d36"/><path d="M416.73969,334.16645a32.58027,32.58027,0,0,0-5.96237-4.53029,53.46986,53.46986,0,0,0-6.47685-3.34152,52.53748,52.53748,0,0,0-6.86649-2.442,32.21366,32.21366,0,0,0-7.38587-1.24183,32.20268,32.20268,0,0,0,5.95969,4.536,52.52154,52.52154,0,0,0,6.47953,3.336,53.46232,53.46232,0,0,0,6.86872,2.43617A32.57931,32.57931,0,0,0,416.73969,334.16645Z" fill="#8b9d36"/><path d="M394.0043,291.76512a22.93187,22.93187,0,0,0-.17788-7.3224,34.50372,34.50372,0,0,0-1.86575-6.66142,33.93683,33.93683,0,0,0-3.14436-6.16076,22.70241,22.70241,0,0,0-4.84917-5.49349,22.68943,22.68943,0,0,0,.16941,7.32552,33.96729,33.96729,0,0,0,1.87378,6.6583,34.50579,34.50579,0,0,0,3.15283,6.15758A22.9354,22.9354,0,0,0,394.0043,291.76512Z" fill="#8b9d36"/><path d="M420.60539,336.0421c-.00977-.60937-1.11915-61.05957-12.748-79.47168l.77148-.48828c11.7666,18.62988,12.84864,77.45019,12.88867,79.94434Z" fill="#50661a"/><path d="M412.02335,264.48468a41.84229,41.84229,0,0,1-.27373-8.23382,74.0244,74.0244,0,0,1,.88985-7.98722c.42621-2.63395,1.00622-5.24171,1.68832-7.82779.68121-2.60313,1.54164-5.10769,2.46092-7.77541a11.40856,11.40856,0,0,1,.58892,2.04709,18.24372,18.24372,0,0,1,.32188,2.08013,35.24963,35.24963,0,0,1,.18546,4.12928,53.01748,53.01748,0,0,1-.74318,8.09278,58.8166,58.8166,0,0,1-1.87243,7.87972A37.04938,37.04938,0,0,1,412.02335,264.48468Z" fill="#50661a"/><path d="M397.56056,227.237a29.58389,29.58389,0,0,1,5.15054,6.61772,46.50923,46.50923,0,0,1,3.452,7.25341,45.7021,45.7021,0,0,1,2.16668,7.73456,29.26521,29.26521,0,0,1,.45206,8.37626,29.26406,29.26406,0,0,1-5.15857-6.61472,45.66041,45.66041,0,0,1-3.44394-7.25647,46.50719,46.50719,0,0,1-2.15865-7.73757A29.56868,29.56868,0,0,1,397.56056,227.237Z" fill="#50661a"/><path d="M387.864,242.228a68.1494,68.1494,0,0,1,6.78268,6.24971c2.09624,2.173,4.09663,4.39465,6.05377,6.62831l5.81481,6.67318c.97545,1.09276,1.96115,2.16952,3.00258,3.18944a13.71052,13.71052,0,0,0,3.54827,2.68043,6.159,6.159,0,0,1-2.42837-.06158,11.36908,11.36908,0,0,1-2.33965-.73588,22.59476,22.59476,0,0,1-4.16707-2.38931,40.89812,40.89812,0,0,1-6.86426-6.35029,54.18736,54.18736,0,0,1-5.45459-7.45163A38.7819,38.7819,0,0,1,387.864,242.228Z" fill="#50661a"/><path d="M387.864,257.219a56.13394,56.13394,0,0,1,8.43176,5.18587,95.52543,95.52543,0,0,1,7.5651,6.1485,93.90979,93.90979,0,0,1,6.90929,6.877,55.503,55.503,0,0,1,6.03415,7.8488,55.48172,55.48172,0,0,1-8.43622-5.1813,93.83547,93.83547,0,0,1-7.56108-6.15308,95.517,95.517,0,0,1-6.90483-6.88159A56.12744,56.12744,0,0,1,387.864,257.219Z" fill="#50661a"/><path d="M388.85016,268.981a55.50774,55.50774,0,0,1,8.5187,4.92641,94.40322,94.40322,0,0,1,7.67788,5.91127,92.77833,92.77833,0,0,1,7.04081,6.65657,54.88358,54.88358,0,0,1,6.19108,7.65074,54.85629,54.85629,0,0,1-8.52315-4.92166,92.71851,92.71851,0,0,1-7.67343-5.916,94.39749,94.39749,0,0,1-7.0368-6.66125A55.48,55.48,0,0,1,388.85016,268.981Z" fill="#50661a"/><path d="M389.5073,281.55351a51.60468,51.60468,0,0,1,8.533,4.13948,87.39047,87.39047,0,0,1,7.75813,5.17734,85.93714,85.93714,0,0,1,7.17144,5.96293,50.99527,50.99527,0,0,1,6.389,7.01077,51.04013,51.04013,0,0,1-8.53653-4.13452,85.93,85.93,0,0,1-7.75457-5.18236,87.44877,87.44877,0,0,1-7.16742-5.96789A51.6049,51.6049,0,0,1,389.5073,281.55351Z" fill="#50661a"/><path d="M388.85016,290.67473a57.41348,57.41348,0,0,1,8.928,4.53308,97.79871,97.79871,0,0,1,8.14466,5.56476,96.07941,96.07941,0,0,1,7.55216,6.34561,56.74,56.74,0,0,1,6.76083,7.387,56.74368,56.74368,0,0,1-8.93152-4.52812,96.07878,96.07878,0,0,1-8.14109-5.56972,97.78428,97.78428,0,0,1-7.54815-6.35051A57.41064,57.41064,0,0,1,388.85016,290.67473Z" fill="#50661a"/><path d="M386.54929,299.22073a74.84536,74.84536,0,0,1,9.33232,5.17941c2.96291,1.89673,5.82952,3.90185,8.62435,5.99464,2.80286,2.08058,5.52815,4.2497,8.20529,6.49106,2.70478,2.22212,5.25977,4.53653,8.05817,6.8286a22.56417,22.56417,0,0,1-5.22544-1.52493,51.10153,51.10153,0,0,1-4.85229-2.336,79.64056,79.64056,0,0,1-8.91725-5.80277,91.9439,91.9439,0,0,1-8.101-6.83618A58.23841,58.23841,0,0,1,386.54929,299.22073Z" fill="#50661a"/><path d="M383.75535,308.09547a76.97429,76.97429,0,0,1,10.1339,4.81578c3.23619,1.80284,6.377,3.73858,9.44555,5.77619q4.60352,3.0555,8.985,6.42575,2.19009,1.68987,4.33826,3.44049a38.65913,38.65913,0,0,0,4.40379,3.37206,8.5063,8.5063,0,0,1-2.847-.489c-.9175-.27173-1.80824-.6023-2.68918-.94614-1.757-.69748-3.45464-1.49527-5.11978-2.34066a97.1604,97.1604,0,0,1-9.59891-5.66267,109.73029,109.73029,0,0,1-8.93465-6.62146A67.91279,67.91279,0,0,1,383.75535,308.09547Z" fill="#50661a"/><path d="M414.85608,274.92564a45.424,45.424,0,0,1,1.30982-8.78875,76.32549,76.32549,0,0,1,2.526-8.34383,75.12881,75.12881,0,0,1,3.44707-8.00712,44.93532,44.93532,0,0,1,4.67485-7.558,44.939,44.939,0,0,1-1.30357,8.79087,75.12806,75.12806,0,0,1-2.53225,8.34171,76.43187,76.43187,0,0,1-3.45286,8.005A45.42374,45.42374,0,0,1,414.85608,274.92564Z" fill="#50661a"/><path d="M416.80431,285.188a46.41482,46.41482,0,0,1,2.52244-8.62442,78.16441,78.16441,0,0,1,3.66819-8.02055,76.86111,76.86111,0,0,1,4.53576-7.56358,45.92029,45.92029,0,0,1,5.69265-6.954,45.92112,45.92112,0,0,1-2.51664,8.62731,76.95181,76.95181,0,0,1-3.674,8.01765,78.25562,78.25562,0,0,1-4.54111,7.56069A46.47405,46.47405,0,0,1,416.80431,285.188Z" fill="#50661a"/><path d="M418.27863,295.11207a50.84067,50.84067,0,0,1,3.69227-8.6583,86.15419,86.15419,0,0,1,4.76535-7.93305,84.64289,84.64289,0,0,1,5.57808-7.38409,50.272,50.272,0,0,1,6.66142-6.65195,50.2684,50.2684,0,0,1-3.68737,8.66181,84.54329,84.54329,0,0,1-4.7707,7.92955,86.06283,86.06283,0,0,1-5.583,7.38069A50.84416,50.84416,0,0,1,418.27863,295.11207Z" fill="#50661a"/><path d="M419.35885,306.061a65.558,65.558,0,0,1,5.28607-9.2927q2.94708-4.39814,6.28916-8.47283,3.33093-4.08384,7.04794-7.85237a64.541,64.541,0,0,1,8.06039-7.02475,64.53445,64.53445,0,0,1-5.28116,9.29659q-2.94708,4.39788-6.29362,8.46893-3.339,4.0779-7.05284,7.84847A65.47987,65.47987,0,0,1,419.35885,306.061Z" fill="#50661a"/><path d="M420.23577,317.41452a66.20645,66.20645,0,0,1,6.25974-8.73492q3.4065-4.08927,7.17277-7.81564,3.75557-3.73677,7.8629-7.11994a65.20525,65.20525,0,0,1,8.7844-6.19186,65.20707,65.20707,0,0,1-6.25528,8.73927q-3.40648,4.08885-7.17678,7.81129-3.76293,3.73-7.86736,7.11554A66.17947,66.17947,0,0,1,420.23577,317.41452Z" fill="#50661a"/><path d="M420.76942,324.69446a57.6982,57.6982,0,0,1,6.801-7.38432,98.30389,98.30389,0,0,1,7.582-6.351,96.562,96.562,0,0,1,8.17319-5.56905,57.03644,57.03644,0,0,1,8.96228-4.5259,57.05229,57.05229,0,0,1-6.79739,7.38922,96.64021,96.64021,0,0,1-7.5856,6.34611,98.37247,98.37247,0,0,1-8.1772,5.56409A57.71026,57.71026,0,0,1,420.76942,324.69446Z" fill="#50661a"/><path d="M421.06187,330.77531a61.079,61.079,0,0,1,7.94538-6.60625q4.16751-2.96264,8.58869-5.48178,4.41428-2.53155,9.07552-4.63089a60.36368,60.36368,0,0,1,9.72508-3.49577,60.36961,60.36961,0,0,1-7.9427,6.61154q-4.16751,2.9623-8.59136,5.47644-4.419,2.52344-9.07865,4.62558A61.08853,61.08853,0,0,1,421.06187,330.77531Z" fill="#50661a"/><path d="M420.835,334.71957a65.96605,65.96605,0,0,1,9.29576-5.35428c3.18939-1.53974,6.44118-2.91164,9.746-4.13975q4.9566-1.84386,10.08664-3.22059a65.0026,65.0026,0,0,1,10.54182-1.99437,65.00472,65.00472,0,0,1-9.29353,5.36007q-4.78475,2.30911-9.74827,4.134c-3.30663,1.22333-6.66676,2.303-10.08887,3.2148A65.95531,65.95531,0,0,1,420.835,334.71957Z" fill="#50661a"/><path d="M422.47843,334.54991l-.7832-.4707c.2207-.36621,22.041-36.73047,25.4375-45.78906l.85547.32031C444.56144,297.74816,423.37785,333.05089,422.47843,334.54991Z" fill="#5e7c24"/><path d="M440.16529,269.22181a39.22412,39.22412,0,0,1,2.10917,7.06939,66.09052,66.09052,0,0,1,1.078,7.16754,64.77407,64.77407,0,0,1,.29691,7.24176,38.69464,38.69464,0,0,1-.74451,7.34079,38.72912,38.72912,0,0,1-2.11407-7.069,64.88085,64.88085,0,0,1-1.07309-7.168,66.08876,66.08876,0,0,1-.292-7.24221A39.18943,39.18943,0,0,1,440.16529,269.22181Z" fill="#5e7c24"/><path d="M432.112,280.233a37.41374,37.41374,0,0,1,2.73688,6.66543,62.83356,62.83356,0,0,1,1.71952,6.86081,61.87587,61.87587,0,0,1,.94915,7.00876,37.00359,37.00359,0,0,1-.07847,7.206,36.96966,36.96966,0,0,1-2.74178-6.66448,61.87561,61.87561,0,0,1-1.71462-6.86181,62.93841,62.93841,0,0,1-.94424-7.00966A37.44919,37.44919,0,0,1,432.112,280.233Z" fill="#5e7c24"/><path d="M427.6748,293.052a31.74553,31.74553,0,0,1,2.32985,6.19548,52.73754,52.73754,0,0,1,1.30357,6.34194,51.85078,51.85078,0,0,1,.5274,6.45272,31.34376,31.34376,0,0,1-.50823,6.60056,31.34652,31.34652,0,0,1-2.33475-6.19481,51.76839,51.76839,0,0,1-1.29867-6.34261,52.73856,52.73856,0,0,1-.5225-6.45344A31.71454,31.71454,0,0,1,427.6748,293.052Z" fill="#5e7c24"/><path d="M422.08691,305.84734a24.30273,24.30273,0,0,1,2.3624,5.27242,39.60592,39.60592,0,0,1,1.341,5.44873,38.87162,38.87162,0,0,1,.56842,5.58215,24.02049,24.02049,0,0,1-.46232,5.76014,24.00248,24.00248,0,0,1-2.36729-5.27158,38.93555,38.93555,0,0,1-1.33657-5.44957,39.66924,39.66924,0,0,1-.56351-5.583A24.30285,24.30285,0,0,1,422.08691,305.84734Z" fill="#5e7c24"/><path d="M417.15661,313.84488a21.88015,21.88015,0,0,1,2.49391,4.62938,37.72656,37.72656,0,0,1,1.56794,4.80235,43.10958,43.10958,0,0,1,.94692,4.92484c.10254.83591.1966,1.66714.259,2.51442a18.71223,18.71223,0,0,0,.27551,2.5746,5.05372,5.05372,0,0,1-.60631-.38273l-.49218-.49319a9.10138,9.10138,0,0,1-.86088-1.07676,17.24763,17.24763,0,0,1-1.32363-2.30366,25.653,25.653,0,0,1-1.73691-4.85752,28.75328,28.75328,0,0,1-.81763-5.05781A19.0406,19.0406,0,0,1,417.15661,313.84488Z" fill="#5e7c24"/><path d="M444.95383,294.10354a31.45275,31.45275,0,0,1,5.5549-4.8169,51.47574,51.47574,0,0,1,6.13981-3.66123,50.575,50.575,0,0,1,6.58295-2.78653,31.09365,31.09365,0,0,1,7.17322-1.61982,31.08455,31.08455,0,0,1-5.55178,4.82241,50.5764,50.5764,0,0,1-6.14293,3.65571,51.455,51.455,0,0,1-6.58563,2.781A31.45066,31.45066,0,0,1,444.95383,294.10354Z" fill="#5e7c24"/><path d="M439.49746,304.29506a38.74647,38.74647,0,0,1,6.85133-4.4851,64.50975,64.50975,0,0,1,7.307-3.27247,63.35579,63.35579,0,0,1,7.65158-2.35482,38.30544,38.30544,0,0,1,8.11122-1.13065,38.31232,38.31232,0,0,1-6.84867,4.4909,63.36739,63.36739,0,0,1-7.30919,3.26668,64.49487,64.49487,0,0,1-7.65381,2.349A38.74619,38.74619,0,0,1,439.49746,304.29506Z" fill="#5e7c24"/><path d="M433.07455,315.6233a33.042,33.042,0,0,1,6.17592-4.33023,54.3,54.3,0,0,1,6.64716-3.12351,53.33617,53.33617,0,0,1,7.00336-2.21026,32.65994,32.65994,0,0,1,7.4786-.992,32.67137,32.67137,0,0,1-6.17369,4.336,53.34578,53.34578,0,0,1-6.64938,3.11778,54.30758,54.30758,0,0,1-7.00559,2.20451A33.04092,33.04092,0,0,1,433.07455,315.6233Z" fill="#5e7c24"/><path d="M427.99847,324.34267a24.77106,24.77106,0,0,1,5.42427-3.57284,39.55913,39.55913,0,0,1,5.81124-2.33659,38.85108,38.85108,0,0,1,6.10459-1.40109,24.50757,24.50757,0,0,1,6.49513-.15309,24.50648,24.50648,0,0,1-5.42249,3.5787,38.849,38.849,0,0,1-5.81347,2.33074,39.54109,39.54109,0,0,1-6.10593,1.39513A24.78361,24.78361,0,0,1,427.99847,324.34267Z" fill="#5e7c24"/><path d="M423.99145,332.16645a32.58034,32.58034,0,0,1,5.96238-4.53029,53.47047,53.47047,0,0,1,6.47684-3.34152,52.53762,52.53762,0,0,1,6.8665-2.442,32.21357,32.21357,0,0,1,7.38587-1.24183,32.20241,32.20241,0,0,1-5.9597,4.536,52.5207,52.5207,0,0,1-6.47952,3.336,53.46246,53.46246,0,0,1-6.86873,2.43617A32.57931,32.57931,0,0,1,423.99145,332.16645Z" fill="#5e7c24"/><path d="M446.72685,289.76512a22.9313,22.9313,0,0,1,.17788-7.3224,34.503,34.503,0,0,1,1.86575-6.66142,33.9362,33.9362,0,0,1,3.14436-6.16076,22.70236,22.70236,0,0,1,4.84916-5.49349,22.68886,22.68886,0,0,1-.16941,7.32552,33.96727,33.96727,0,0,1-1.87377,6.6583,34.50711,34.50711,0,0,1-3.15283,6.15758A22.93561,22.93561,0,0,1,446.72685,289.76512Z" fill="#5e7c24"/><path d="M58.04191,335.54991l-.7832-.4707c.2207-.36621,22.041-36.73047,25.4375-45.78906l.85546.32031C80.12492,298.74816,58.94132,334.05089,58.04191,335.54991Z" fill="#8b9d36"/><path d="M75.72874,270.22181a39.22412,39.22412,0,0,1,2.10917,7.06939,66.09052,66.09052,0,0,1,1.078,7.16754,64.77168,64.77168,0,0,1,.29691,7.24176,38.69464,38.69464,0,0,1-.74451,7.34079,38.72912,38.72912,0,0,1-2.11407-7.069,64.88085,64.88085,0,0,1-1.07309-7.168,66.08876,66.08876,0,0,1-.292-7.24221A39.18943,39.18943,0,0,1,75.72874,270.22181Z" fill="#8b9d36"/><path d="M67.67548,281.233a37.41374,37.41374,0,0,1,2.73688,6.66543,62.83356,62.83356,0,0,1,1.71952,6.86081A61.87587,61.87587,0,0,1,73.081,301.768a37.00436,37.00436,0,0,1-.07846,7.206,36.969,36.969,0,0,1-2.74179-6.66448,61.87557,61.87557,0,0,1-1.71461-6.86181,62.93608,62.93608,0,0,1-.94425-7.00966A37.44919,37.44919,0,0,1,67.67548,281.233Z" fill="#8b9d36"/><path d="M63.23825,294.052a31.74489,31.74489,0,0,1,2.32985,6.19548,52.73754,52.73754,0,0,1,1.30357,6.34194,51.85078,51.85078,0,0,1,.5274,6.45272,31.34376,31.34376,0,0,1-.50823,6.60056,31.34652,31.34652,0,0,1-2.33475-6.19481,51.76839,51.76839,0,0,1-1.29867-6.34261,52.74054,52.74054,0,0,1-.5225-6.45344A31.71454,31.71454,0,0,1,63.23825,294.052Z" fill="#8b9d36"/><path d="M57.65037,306.84734a24.30317,24.30317,0,0,1,2.36239,5.27242,39.60592,39.60592,0,0,1,1.341,5.44873,38.87162,38.87162,0,0,1,.56842,5.58215,24.02049,24.02049,0,0,1-.46232,5.76014,24.00248,24.00248,0,0,1-2.36729-5.27158,38.93555,38.93555,0,0,1-1.33657-5.44957,39.66924,39.66924,0,0,1-.56351-5.583A24.30234,24.30234,0,0,1,57.65037,306.84734Z" fill="#8b9d36"/><path d="M52.72006,314.84488a21.88015,21.88015,0,0,1,2.49391,4.62938,37.72656,37.72656,0,0,1,1.56794,4.80235,43.10958,43.10958,0,0,1,.94692,4.92484c.10254.83591.1966,1.66714.259,2.51442a18.71072,18.71072,0,0,0,.27552,2.5746,5.053,5.053,0,0,1-.60632-.38273l-.49218-.49319a9.10239,9.10239,0,0,1-.86088-1.07676,17.24763,17.24763,0,0,1-1.32363-2.30366,25.653,25.653,0,0,1-1.73691-4.85752,28.75328,28.75328,0,0,1-.81763-5.05781A19.0406,19.0406,0,0,1,52.72006,314.84488Z" fill="#8b9d36"/><path d="M80.51728,295.10354a31.45275,31.45275,0,0,1,5.5549-4.8169,51.47654,51.47654,0,0,1,6.13981-3.66123,50.575,50.575,0,0,1,6.58295-2.78653,31.09365,31.09365,0,0,1,7.17322-1.61982,31.08455,31.08455,0,0,1-5.55178,4.82241,50.5764,50.5764,0,0,1-6.14293,3.65571,51.455,51.455,0,0,1-6.58563,2.781A31.45066,31.45066,0,0,1,80.51728,295.10354Z" fill="#8b9d36"/><path d="M75.06091,305.29506a38.74647,38.74647,0,0,1,6.85133-4.4851,64.50975,64.50975,0,0,1,7.307-3.27247,63.35579,63.35579,0,0,1,7.65158-2.35482A38.30544,38.30544,0,0,1,104.982,294.052a38.31232,38.31232,0,0,1-6.84867,4.4909,63.36739,63.36739,0,0,1-7.30919,3.26668,64.49487,64.49487,0,0,1-7.65381,2.349A38.74619,38.74619,0,0,1,75.06091,305.29506Z" fill="#8b9d36"/><path d="M68.638,316.6233a33.04173,33.04173,0,0,1,6.17593-4.33023,54.29914,54.29914,0,0,1,6.64715-3.12351,53.33617,53.33617,0,0,1,7.00336-2.21026,32.65994,32.65994,0,0,1,7.4786-.992,32.67137,32.67137,0,0,1-6.17369,4.336A53.34578,53.34578,0,0,1,83.12,313.42105a54.30758,54.30758,0,0,1-7.00559,2.20451A33.04092,33.04092,0,0,1,68.638,316.6233Z" fill="#8b9d36"/><path d="M63.56192,325.34267a24.77106,24.77106,0,0,1,5.42427-3.57284,39.55957,39.55957,0,0,1,5.81124-2.33659,38.85108,38.85108,0,0,1,6.10459-1.40109,24.50757,24.50757,0,0,1,6.49513-.15309,24.50648,24.50648,0,0,1-5.42249,3.5787,38.849,38.849,0,0,1-5.81347,2.33074,39.54109,39.54109,0,0,1-6.10593,1.39513A24.78361,24.78361,0,0,1,63.56192,325.34267Z" fill="#8b9d36"/><path d="M59.5549,333.16645a32.58034,32.58034,0,0,1,5.96238-4.53029,53.47047,53.47047,0,0,1,6.47684-3.34152,52.53762,52.53762,0,0,1,6.8665-2.442,32.21357,32.21357,0,0,1,7.38587-1.24183,32.20241,32.20241,0,0,1-5.9597,4.536,52.5207,52.5207,0,0,1-6.47952,3.336,53.46246,53.46246,0,0,1-6.86873,2.43617A32.57931,32.57931,0,0,1,59.5549,333.16645Z" fill="#8b9d36"/><path d="M82.2903,290.76512a22.93159,22.93159,0,0,1,.17788-7.3224,34.503,34.503,0,0,1,1.86575-6.66142,33.93683,33.93683,0,0,1,3.14436-6.16076,22.70236,22.70236,0,0,1,4.84916-5.49349,22.68886,22.68886,0,0,1-.16941,7.32552,33.96727,33.96727,0,0,1-1.87377,6.6583,34.50711,34.50711,0,0,1-3.15283,6.15758A22.93561,22.93561,0,0,1,82.2903,290.76512Z" fill="#8b9d36"/><path d="M55.68839,336.0421l-.91211-.01562c.04-2.49415,1.123-61.31446,12.88965-79.94434l.77149.48828C56.80753,274.98448,55.69816,335.4337,55.68839,336.0421Z" fill="#50661a"/><path d="M64.27124,264.48468a41.84154,41.84154,0,0,0,.27374-8.23382,74.02441,74.02441,0,0,0-.88986-7.98722c-.4262-2.63395-1.00621-5.24171-1.68831-7.82779-.68121-2.60313-1.54164-5.10769-2.46092-7.77541a11.40942,11.40942,0,0,0-.58893,2.04709,18.24372,18.24372,0,0,0-.32188,2.08013,35.2518,35.2518,0,0,0-.18546,4.12928,53.01874,53.01874,0,0,0,.74318,8.09278,58.8151,58.8151,0,0,0,1.87244,7.87972A37.04933,37.04933,0,0,0,64.27124,264.48468Z" fill="#50661a"/><path d="M78.734,227.237a29.58331,29.58331,0,0,0-5.15054,6.61772,46.50838,46.50838,0,0,0-3.452,7.25341,45.703,45.703,0,0,0-2.16667,7.73456,29.26485,29.26485,0,0,0-.45206,8.37626,29.26429,29.26429,0,0,0,5.15856-6.61472,45.66046,45.66046,0,0,0,3.444-7.25647A46.50816,46.50816,0,0,0,78.274,235.6102,29.56868,29.56868,0,0,0,78.734,227.237Z" fill="#50661a"/><path d="M88.43058,242.228a68.15161,68.15161,0,0,0-6.78268,6.24971c-2.09623,2.173-4.09662,4.39465-6.05376,6.62831l-5.81481,6.67318c-.97545,1.09276-1.96116,2.16952-3.00259,3.18944a13.71035,13.71035,0,0,1-3.54827,2.68043,6.159,6.159,0,0,0,2.42838-.06158,11.36927,11.36927,0,0,0,2.33965-.73588,22.59467,22.59467,0,0,0,4.16706-2.38931,40.8978,40.8978,0,0,0,6.86427-6.35029,54.189,54.189,0,0,0,5.45459-7.45163A38.78187,38.78187,0,0,0,88.43058,242.228Z" fill="#50661a"/><path d="M88.43058,257.219a56.13494,56.13494,0,0,0-8.43176,5.18587,95.52527,95.52527,0,0,0-7.56509,6.1485,93.90587,93.90587,0,0,0-6.90929,6.877,55.50227,55.50227,0,0,0-6.03415,7.8488,55.4827,55.4827,0,0,0,8.43622-5.1813,93.83722,93.83722,0,0,0,7.56108-6.15308,95.517,95.517,0,0,0,6.90483-6.88159A56.12738,56.12738,0,0,0,88.43058,257.219Z" fill="#50661a"/><path d="M87.44443,268.981a55.50764,55.50764,0,0,0-8.51869,4.92641,94.40164,94.40164,0,0,0-7.67789,5.91127,92.7821,92.7821,0,0,0-7.04081,6.65657A54.88352,54.88352,0,0,0,58.016,294.126a54.85675,54.85675,0,0,0,8.52315-4.92166,92.72018,92.72018,0,0,0,7.67343-5.916,94.39735,94.39735,0,0,0,7.03679-6.66125A55.4793,55.4793,0,0,0,87.44443,268.981Z" fill="#50661a"/><path d="M86.7873,281.55351a51.60479,51.60479,0,0,0-8.533,4.13948,87.39339,87.39339,0,0,0-7.75813,5.17734,85.937,85.937,0,0,0-7.17143,5.96293,50.994,50.994,0,0,0-6.389,7.01077,51.04051,51.04051,0,0,0,8.53653-4.13452,85.92989,85.92989,0,0,0,7.75456-5.18236,87.44877,87.44877,0,0,0,7.16742-5.96789A51.605,51.605,0,0,0,86.7873,281.55351Z" fill="#50661a"/><path d="M87.44443,290.67473a57.41337,57.41337,0,0,0-8.92795,4.53308,97.797,97.797,0,0,0-8.14466,5.56476,96.07759,96.07759,0,0,0-7.55216,6.34561,56.7408,56.7408,0,0,0-6.76084,7.387,56.74422,56.74422,0,0,0,8.93153-4.52812,96.07878,96.07878,0,0,0,8.14109-5.56972,97.78428,97.78428,0,0,0,7.54815-6.35051A57.41057,57.41057,0,0,0,87.44443,290.67473Z" fill="#50661a"/><path d="M89.7453,299.22073a74.84523,74.84523,0,0,0-9.33231,5.17941c-2.96291,1.89673-5.82952,3.90185-8.62436,5.99464-2.80286,2.08058-5.52815,4.2497-8.20529,6.49106-2.70477,2.22212-5.25976,4.53653-8.05816,6.8286a22.56431,22.56431,0,0,0,5.22544-1.52493,51.10018,51.10018,0,0,0,4.85228-2.336,79.6416,79.6416,0,0,0,8.91726-5.80277,91.9468,91.9468,0,0,0,8.101-6.83618A58.23834,58.23834,0,0,0,89.7453,299.22073Z" fill="#50661a"/><path d="M92.53925,308.09547a76.97429,76.97429,0,0,0-10.1339,4.81578c-3.2362,1.80284-6.377,3.73858-9.44555,5.77619q-4.60353,3.0555-8.985,6.42575-2.19008,1.68987-4.33825,3.44049a38.65924,38.65924,0,0,1-4.4038,3.37206,8.50636,8.50636,0,0,0,2.847-.489c.91749-.27173,1.80824-.6023,2.68917-.94614,1.757-.69748,3.45465-1.49527,5.11978-2.34066a97.16171,97.16171,0,0,0,9.59892-5.66267,109.7284,109.7284,0,0,0,8.93464-6.62146A67.91287,67.91287,0,0,0,92.53925,308.09547Z" fill="#50661a"/><path d="M61.43851,274.92564a45.42326,45.42326,0,0,0-1.30981-8.78875,76.32553,76.32553,0,0,0-2.526-8.34383,75.12473,75.12473,0,0,0-3.44707-8.00712,44.934,44.934,0,0,0-4.67485-7.558,44.939,44.939,0,0,0,1.30358,8.79087,75.12589,75.12589,0,0,0,2.53224,8.34171,76.432,76.432,0,0,0,3.45287,8.005A45.42368,45.42368,0,0,0,61.43851,274.92564Z" fill="#50661a"/><path d="M59.49029,285.188a46.41558,46.41558,0,0,0-2.52244-8.62442,78.16234,78.16234,0,0,0-3.6682-8.02055,76.85907,76.85907,0,0,0-4.53575-7.56358,45.92036,45.92036,0,0,0-5.69266-6.954,45.92039,45.92039,0,0,0,2.51665,8.62731,76.95181,76.95181,0,0,0,3.674,8.01765,78.2535,78.2535,0,0,0,4.5411,7.56069A46.47474,46.47474,0,0,0,59.49029,285.188Z" fill="#50661a"/><path d="M58.016,295.11207a50.84227,50.84227,0,0,0-3.69227-8.6583,86.15864,86.15864,0,0,0-4.76535-7.93305,84.64489,84.64489,0,0,0-5.57808-7.38409,50.272,50.272,0,0,0-6.66142-6.65195,50.26758,50.26758,0,0,0,3.68736,8.66181,84.54329,84.54329,0,0,0,4.7707,7.92955,86.065,86.065,0,0,0,5.583,7.38069A50.84354,50.84354,0,0,0,58.016,295.11207Z" fill="#50661a"/><path d="M56.93575,306.061a65.55894,65.55894,0,0,0-5.28607-9.2927q-2.94708-4.39814-6.28916-8.47283-3.33093-4.08384-7.04794-7.85237a64.5404,64.5404,0,0,0-8.0604-7.02475,64.53544,64.53544,0,0,0,5.28117,9.29659q2.94708,4.39788,6.29361,8.46893,3.339,4.0779,7.05285,7.84847A65.47913,65.47913,0,0,0,56.93575,306.061Z" fill="#50661a"/><path d="M56.05882,317.41452a66.20639,66.20639,0,0,0-6.25973-8.73492q-3.4065-4.08927-7.17277-7.81564-3.75558-3.73677-7.8629-7.11994a65.20535,65.20535,0,0,0-8.78441-6.19186,65.20885,65.20885,0,0,0,6.25528,8.73927q3.4065,4.08885,7.17678,7.81129,3.76293,3.73,7.86736,7.11554A66.18077,66.18077,0,0,0,56.05882,317.41452Z" fill="#50661a"/><path d="M55.52518,324.69446a57.69893,57.69893,0,0,0-6.801-7.38432,98.30389,98.30389,0,0,0-7.582-6.351,96.56362,96.56362,0,0,0-8.17319-5.56905,57.037,57.037,0,0,0-8.96229-4.5259,57.05236,57.05236,0,0,0,6.7974,7.38922,96.63838,96.63838,0,0,0,7.5856,6.34611,98.37063,98.37063,0,0,0,8.17719,5.56409A57.71037,57.71037,0,0,0,55.52518,324.69446Z" fill="#50661a"/><path d="M55.23272,330.77531a61.07829,61.07829,0,0,0-7.94537-6.60625q-4.16751-2.96264-8.58869-5.48178-4.41427-2.53155-9.07553-4.63089a60.363,60.363,0,0,0-9.72508-3.49577,60.37091,60.37091,0,0,0,7.9427,6.61154q4.16751,2.9623,8.59137,5.47644,4.41894,2.52344,9.07864,4.62558A61.08889,61.08889,0,0,0,55.23272,330.77531Z" fill="#50661a"/><path d="M55.45964,334.71957a65.96652,65.96652,0,0,0-9.29575-5.35428c-3.18939-1.53974-6.44119-2.91164-9.746-4.13975q-4.9566-1.84386-10.08664-3.22059a65.0026,65.0026,0,0,0-10.54182-1.99437,65.00417,65.00417,0,0,0,9.29353,5.36007q4.78474,2.30911,9.74826,4.134c3.30664,1.22333,6.66677,2.303,10.08887,3.2148A65.95552,65.95552,0,0,0,55.45964,334.71957Z" fill="#50661a"/><path d="M53.86222,334.40538c-.89941-1.499-22.083-36.80078-25.50976-45.93945l.85546-.32031c3.39649,9.05957,25.2168,45.42285,25.4375,45.78906Z" fill="#5e7c24"/><path d="M36.1293,269.22181a39.22408,39.22408,0,0,0-2.10916,7.06939,66.08805,66.08805,0,0,0-1.078,7.16754,64.77407,64.77407,0,0,0-.29692,7.24176,38.69385,38.69385,0,0,0,.74452,7.34079,38.72912,38.72912,0,0,0,2.11407-7.069,64.87845,64.87845,0,0,0,1.07308-7.168,66.08876,66.08876,0,0,0,.292-7.24221A39.18859,39.18859,0,0,0,36.1293,269.22181Z" fill="#5e7c24"/><path d="M44.18256,280.233a37.41369,37.41369,0,0,0-2.73687,6.66543,62.83361,62.83361,0,0,0-1.71953,6.86081A61.87359,61.87359,0,0,0,38.777,300.768a37.00436,37.00436,0,0,0,.07846,7.206,36.96966,36.96966,0,0,0,2.74178-6.66448,61.87339,61.87339,0,0,0,1.71462-6.86181,62.93606,62.93606,0,0,0,.94424-7.00966A37.44758,37.44758,0,0,0,44.18256,280.233Z" fill="#5e7c24"/><path d="M48.61979,293.052A31.74548,31.74548,0,0,0,46.29,299.2475a52.73757,52.73757,0,0,0-1.30358,6.34194,51.85461,51.85461,0,0,0-.5274,6.45272,31.34443,31.34443,0,0,0,.50823,6.60056,31.34594,31.34594,0,0,0,2.33476-6.19481,51.76648,51.76648,0,0,0,1.29866-6.34261,52.73658,52.73658,0,0,0,.5225-6.45344A31.71454,31.71454,0,0,0,48.61979,293.052Z" fill="#5e7c24"/><path d="M54.20768,305.84734a24.30269,24.30269,0,0,0-2.36239,5.27242,39.603,39.603,0,0,0-1.341,5.44873,38.8702,38.8702,0,0,0-.56842,5.58215,24.021,24.021,0,0,0,.46231,5.76014,24.00253,24.00253,0,0,0,2.3673-5.27158,38.93551,38.93551,0,0,0,1.33656-5.44957,39.66777,39.66777,0,0,0,.56352-5.583A24.30234,24.30234,0,0,0,54.20768,305.84734Z" fill="#5e7c24"/><path d="M59.138,313.84488a21.8797,21.8797,0,0,0-2.49391,4.62938,37.725,37.725,0,0,0-1.56794,4.80235,43.10741,43.10741,0,0,0-.94692,4.92484c-.10254.83591-.19661,1.66714-.259,2.51442a18.71227,18.71227,0,0,1-.27552,2.5746,5.05293,5.05293,0,0,0,.60631-.38273l.49219-.49319a9.10128,9.10128,0,0,0,.86087-1.07676,17.24662,17.24662,0,0,0,1.32364-2.30366,25.653,25.653,0,0,0,1.73691-4.85752,28.75328,28.75328,0,0,0,.81763-5.05781A19.041,19.041,0,0,0,59.138,313.84488Z" fill="#5e7c24"/><path d="M31.34077,294.10354a31.4531,31.4531,0,0,0-5.5549-4.8169,51.47654,51.47654,0,0,0-6.13981-3.66123,50.575,50.575,0,0,0-6.58295-2.78653,31.09365,31.09365,0,0,0-7.17322-1.61982,31.08455,31.08455,0,0,0,5.55178,4.82241,50.5764,50.5764,0,0,0,6.14293,3.65571,51.45484,51.45484,0,0,0,6.58562,2.781A31.45087,31.45087,0,0,0,31.34077,294.10354Z" fill="#5e7c24"/><path d="M36.79714,304.29506A38.74618,38.74618,0,0,0,29.9458,299.81a64.50882,64.50882,0,0,0-7.307-3.27247,63.35634,63.35634,0,0,0-7.65158-2.35482A38.30544,38.30544,0,0,0,6.876,293.052a38.31225,38.31225,0,0,0,6.84866,4.4909,63.36815,63.36815,0,0,0,7.30919,3.26668,64.49544,64.49544,0,0,0,7.65381,2.349A38.74629,38.74629,0,0,0,36.79714,304.29506Z" fill="#5e7c24"/><path d="M43.22,315.6233a33.042,33.042,0,0,0-6.17592-4.33023,54.30053,54.30053,0,0,0-6.64715-3.12351,53.33665,53.33665,0,0,0-7.00336-2.21026,32.65994,32.65994,0,0,0-7.4786-.992,32.67105,32.67105,0,0,0,6.17369,4.336,53.34578,53.34578,0,0,0,6.64938,3.11778,54.30709,54.30709,0,0,0,7.00559,2.20451A33.04083,33.04083,0,0,0,43.22,315.6233Z" fill="#5e7c24"/><path d="M48.29613,324.34267a24.77106,24.77106,0,0,0-5.42427-3.57284,39.55957,39.55957,0,0,0-5.81124-2.33659,38.85108,38.85108,0,0,0-6.10459-1.40109,24.50759,24.50759,0,0,0-6.49513-.15309,24.506,24.506,0,0,0,5.42249,3.5787,38.84859,38.84859,0,0,0,5.81347,2.33074,39.54082,39.54082,0,0,0,6.10593,1.39513A24.78361,24.78361,0,0,0,48.29613,324.34267Z" fill="#5e7c24"/><path d="M52.30315,332.16645a32.58067,32.58067,0,0,0-5.96238-4.53029,53.46986,53.46986,0,0,0-6.47685-3.34152,52.53748,52.53748,0,0,0-6.86649-2.442,32.21366,32.21366,0,0,0-7.38587-1.24183,32.20241,32.20241,0,0,0,5.9597,4.536,52.5207,52.5207,0,0,0,6.47952,3.336,53.46232,53.46232,0,0,0,6.86872,2.43617A32.5793,32.5793,0,0,0,52.30315,332.16645Z" fill="#5e7c24"/><path d="M29.56775,289.76512a22.93187,22.93187,0,0,0-.17788-7.3224,34.50372,34.50372,0,0,0-1.86575-6.66142,33.93683,33.93683,0,0,0-3.14436-6.16076,22.70241,22.70241,0,0,0-4.84917-5.49349A22.68943,22.68943,0,0,0,19.7,271.45257a33.968,33.968,0,0,0,1.87378,6.6583,34.50579,34.50579,0,0,0,3.15283,6.15758A22.93561,22.93561,0,0,0,29.56775,289.76512Z" fill="#5e7c24"/><path d="M346.239,327.82577c-.45737-.6-45.79393-60.34572-48.6031-87.21563l-1.1261.1186c2.84194,27.18489,46.95216,85.32283,48.82872,87.78421Z" fill="#8b9d36"/><path d="M297.38114,242.15756a13.24906,13.24906,0,0,0,.51944-5.08649,17.67963,17.67963,0,0,0-.99131-4.54018,17.37381,17.37381,0,0,0-2.13531-4.12624l-.02849-.03952a2.30875,2.30875,0,0,0-4.16179,1.50525l.00339.04854a17.37555,17.37555,0,0,0,.99845,4.53763,17.67828,17.67828,0,0,0,2.14246,4.12369A13.24938,13.24938,0,0,0,297.38114,242.15756Z" fill="#8b9d36"/><path d="M302.77839,258.72925a9.025,9.025,0,0,0,4.32425-2.991,11.87039,11.87039,0,0,0,2.305-4.55328,10.8368,10.8368,0,0,0,.05577-5.24238l-.01386-.05732a2.28575,2.28575,0,0,0-4.37752-.09419q-.0303.09144-.06107.18258c-.43117,1.313-.7526,2.53836-1.09125,3.82047a41.06154,41.06154,0,0,0-.8258,4.04112A26.90187,26.90187,0,0,0,302.77839,258.72925Z" fill="#8b9d36"/><path d="M298.788,248.4192a9.02494,9.02494,0,0,0,4.32424-2.991,11.87044,11.87044,0,0,0,2.305-4.55327,10.83708,10.83708,0,0,0,.05577-5.24239l-.01387-.05731a2.28575,2.28575,0,0,0-4.37752-.09419q-.03029.09142-.06107.18258c-.43116,1.313-.7526,2.53835-1.09125,3.82046a41.06757,41.06757,0,0,0-.8258,4.04113A26.90278,26.90278,0,0,0,298.788,248.4192Z" fill="#8b9d36"/><path d="M299.63821,251.294a14.00629,14.00629,0,0,0-2.52236-4.63329,19.04194,19.04194,0,0,0-3.47957-3.34273,18.70318,18.70318,0,0,0-4.2041-2.36591l-.0978-.03786a2.28777,2.28777,0,0,0-2.6198,3.53122l.06491.083a18.70254,18.70254,0,0,0,3.48426,3.33643,19.06558,19.06558,0,0,0,4.2084,2.36A14.01613,14.01613,0,0,0,299.63821,251.294Z" fill="#8b9d36"/><path d="M309.64861,272.38128a14.03428,14.03428,0,0,0,3.1743-4.22046,19.09965,19.09965,0,0,0,1.60283-4.55707,18.76186,18.76186,0,0,0,.41384-4.81219q-.005-.09077-.01072-.18169a2.26678,2.26678,0,0,0-4.25865-.91345q-.04255.08065-.08439.16147a18.76241,18.76241,0,0,0-1.59528,4.55861,19.10092,19.10092,0,0,0-.40673,4.81406A14.02546,14.02546,0,0,0,309.64861,272.38128Z" fill="#8b9d36"/><path d="M316.21365,284.40736a15.5468,15.5468,0,0,0,3.14119-4.6252,21.84061,21.84061,0,0,0,1.56306-4.92648,21.44935,21.44935,0,0,0,.36822-5.15417q-.00468-.07638-.00979-.15285a2.26626,2.26626,0,0,0-4.29895-.82014q-.03293.06923-.06539.13855a21.46469,21.46469,0,0,0-1.55512,4.92761,21.84654,21.84654,0,0,0-.36072,5.15566A15.5377,15.5377,0,0,0,316.21365,284.40736Z" fill="#8b9d36"/><path d="M323.07334,295.22932a17.77382,17.77382,0,0,0,3.59149-4.82846,25.83349,25.83349,0,0,0,2.03881-5.244,25.37758,25.37758,0,0,0,.8649-5.55945l.00353-.11664a2.2657,2.2657,0,0,0-4.24943-1.13881l-.05522.10267a25.39177,25.39177,0,0,0-2.032,5.2464,25.83686,25.83686,0,0,0-.85718,5.5612A17.774,17.774,0,0,0,323.07334,295.22932Z" fill="#8b9d36"/><path d="M329.96856,306.07564a17.93174,17.93174,0,0,0,3.77706-4.72255,26.11218,26.11218,0,0,0,2.24112-5.19542,25.63874,25.63874,0,0,0,1.0792-5.55381v-.00026a2.28664,2.28664,0,0,0-4.25515-1.31128h0a25.66543,25.66543,0,0,0-2.23415,5.198,26.13793,26.13793,0,0,0-1.07182,5.556A17.93739,17.93739,0,0,0,329.96856,306.07564Z" fill="#8b9d36"/><path d="M335.94525,315.05149a19.77085,19.77085,0,0,0,4.32284-4.68584,29.42265,29.42265,0,0,0,2.8363-5.29616,28.89329,28.89329,0,0,0,1.71161-5.75827l.00005-.00025a2.27968,2.27968,0,0,0-4.11894-1.69144h0a28.897,28.897,0,0,0-2.82954,5.29937,29.425,29.425,0,0,0-1.70443,5.76113A19.75826,19.75826,0,0,0,335.94525,315.05149Z" fill="#8b9d36"/><path d="M343.09926,324.65557a21.06157,21.06157,0,0,0,3.81351-5.3821,31.74715,31.74715,0,0,0,2.26615-5.81587,31.17032,31.17032,0,0,0,1.095-6.144l0-.00033a2.27558,2.27558,0,0,0-4.28735-1.202h0a31.15342,31.15342,0,0,0-2.25882,5.818,31.74089,31.74089,0,0,0-1.08769,6.14609A21.06393,21.06393,0,0,0,343.09926,324.65557Z" fill="#8b9d36"/><path d="M304.91222,263.86807a16.92384,16.92384,0,0,0-3.50812-4.6932,24.31035,24.31035,0,0,0-4.33519-3.31519,23.88735,23.88735,0,0,0-4.96063-2.27277l-.12383-.03854a2.26589,2.26589,0,0,0-2.25993,3.76556l.09219.09108a23.88767,23.88767,0,0,0,4.33918,3.30862,24.30969,24.30969,0,0,0,4.9646,2.2662A16.92447,16.92447,0,0,0,304.91222,263.86807Z" fill="#8b9d36"/><path d="M310.89416,275.36218a14.48186,14.48186,0,0,0-3.52157-4.059A19.89263,19.89263,0,0,0,303.18,268.705a19.534,19.534,0,0,0-4.69988-1.49344l-.05-.0085a2.29862,2.29862,0,0,0-1.84711,4.02261l.039.03235a19.532,19.532,0,0,0,4.1957,2.59143,19.8947,19.8947,0,0,0,4.70291,1.48656A14.47185,14.47185,0,0,0,310.89416,275.36218Z" fill="#8b9d36"/><path d="M317.07808,286.16285a16.13719,16.13719,0,0,0-4.3938-3.64238,22.91405,22.91405,0,0,0-4.85773-2.1038,22.47827,22.47827,0,0,0-5.20887-.93939h0a2.29561,2.29561,0,0,0-1.28525,4.26312h0a22.4722,22.4722,0,0,0,4.85977,2.09656,22.90719,22.90719,0,0,0,5.211.9322A16.12859,16.12859,0,0,0,317.07808,286.16285Z" fill="#8b9d36"/><path d="M324.43287,297.65934a16.96347,16.96347,0,0,0-4.88557-3.25321,24.422,24.422,0,0,0-5.20414-1.6785,24.00841,24.00841,0,0,0-5.44558-.48657l-.12921.005a2.26589,2.26589,0,0,0-.87211,4.30465l.117.05485a23.99015,23.99015,0,0,0,5.20588,1.67088,24.4443,24.4443,0,0,0,5.44728.4789A16.98418,16.98418,0,0,0,324.43287,297.65934Z" fill="#8b9d36"/><path d="M330.59136,307.23056a20.30279,20.30279,0,0,0-5.91277-2.61781,30.37682,30.37682,0,0,0-6.01991-1.01426,29.85908,29.85908,0,0,0-6.10033.19881l-.00036.00006a2.27808,2.27808,0,0,0-.29594,4.44309h0a29.835,29.835,0,0,0,6.02031,1.00673,30.38161,30.38161,0,0,0,6.10112-.20674A20.29378,20.29378,0,0,0,330.59136,307.23056Z" fill="#8b9d36"/><path d="M336.4355,315.26514A17.61491,17.61491,0,0,0,330.792,313.265a25.54978,25.54978,0,0,0-5.58078-.39455,25.092,25.092,0,0,0-5.53342.82072l-.00008,0a2.28825,2.28825,0,0,0,.17359,4.44956h0a25.09546,25.09546,0,0,0,5.58083.38657,25.546,25.546,0,0,0,5.53305-.82834A17.608,17.608,0,0,0,336.4355,315.26514Z" fill="#8b9d36"/><path d="M340.781,321.81466a22.06438,22.06438,0,0,0-6.64909-1.231,33.53122,33.53122,0,0,0-6.40728.35791,32.93727,32.93727,0,0,0-6.22345,1.55961l-.00033.00012a2.2731,2.2731,0,0,0,.671,4.40215h0a32.9572,32.9572,0,0,0,6.40622-.36552,33.53224,33.53224,0,0,0,6.22234-1.56727A22.064,22.064,0,0,0,340.781,321.81466Z" fill="#8b9d36"/><path d="M326.00663,330.14574a2.27,2.27,0,0,0,1.46145,4.18987l.00015,0a30.58608,30.58608,0,0,0,5.95727-1.43009,30.02738,30.02738,0,0,0,5.55608-2.57791,20.19926,20.19926,0,0,0,5.02244-4.11,20.20264,20.20264,0,0,0-6.48907-.09429,30.03659,30.03659,0,0,0-5.95408,1.43682,30.58251,30.58251,0,0,0-5.55423,2.5856Z" fill="#8b9d36"/><path d="M327.937,317.90793c-.0145-.86551-1.64632-86.905-18.21523-113.10405l1.09861-.6936c16.76326,26.506,18.35685,110.22567,18.41615,113.77654Z" fill="#5f7d37"/><path d="M311.05117,206.01661a15.20232,15.20232,0,0,1-4.08336-4.21228,20.28685,20.28685,0,0,1-2.33427-4.79406,19.93474,19.93474,0,0,1-1.00962-5.23437l-.00243-.05585a2.64907,2.64907,0,0,1,4.81854-1.60239l.03146.04612a19.937,19.937,0,0,1,2.326,4.79684,20.28363,20.28363,0,0,1,1.00137,5.23715A15.20206,15.20206,0,0,1,311.05117,206.01661Z" fill="#5f7d37"/><path d="M317.969,224.77944a10.35528,10.35528,0,0,1-6.021.37961,13.62018,13.62018,0,0,1-5.31266-2.46281,12.43425,12.43425,0,0,1-3.77653-4.68227l-.02825-.06148a2.62268,2.62268,0,0,1,3.876-3.19639q.09228.06082.18479.121c1.32166.87621,2.48215,1.7514,3.6985,2.66551a47.11785,47.11785,0,0,1,3.61625,3.05294A30.86821,30.86821,0,0,1,317.969,224.77944Z" fill="#5f7d37"/><path d="M314.2348,212.65657a10.35536,10.35536,0,0,1-6.021.3796,13.62037,13.62037,0,0,1-5.31266-2.4628,12.43436,12.43436,0,0,1-3.77653-4.68228l-.02825-.06148a2.62268,2.62268,0,0,1,3.876-3.19639q.09228.06082.18479.121c1.32166.87621,2.48215,1.7514,3.6985,2.66551a47.12012,47.12012,0,0,1,3.61625,3.05294A30.86774,30.86774,0,0,1,314.2348,212.65657Z" fill="#5f7d37"/><path d="M315.51239,215.85032a16.07074,16.07074,0,0,1-1.02142-5.96621,21.8489,21.8489,0,0,1,.7581-5.48414,21.46077,21.46077,0,0,1,2.105-5.11931l.06119-.10362a2.625,2.625,0,0,1,4.8697,1.31849l.00056.12093a21.459,21.459,0,0,1-.76681,5.48182,21.87577,21.87577,0,0,1-2.11309,5.117A16.08231,16.08231,0,0,1,315.51239,215.85032Z" fill="#5f7d37"/><path d="M321.48469,241.95946a16.10314,16.10314,0,0,1-5.85908-1.54515,21.91536,21.91536,0,0,1-4.68286-2.96536,21.52761,21.52761,0,0,1-3.79327-4.04027q-.06-.08532-.11948-.17127a2.60091,2.60091,0,0,1,3.18656-3.84982q.09567.04241.19079.08546a21.528,21.528,0,0,1,4.67716,2.9721,21.91616,21.91616,0,0,1,3.78819,4.047A16.0931,16.0931,0,0,1,321.48469,241.95946Z" fill="#5f7d37"/><path d="M324.11958,257.458a17.83868,17.83868,0,0,1-6.11693-1.93325,25.06077,25.06077,0,0,1-4.90963-3.32635,24.61127,24.61127,0,0,1-3.99526-4.38074q-.05008-.07212-.09983-.14463a2.60032,2.60032,0,0,1,3.2892-3.79442q.07886.039.15738.07832a24.62806,24.62806,0,0,1,4.90328,3.333,25.0664,25.0664,0,0,1,3.98955,4.38741A17.828,17.828,0,0,1,324.11958,257.458Z" fill="#5f7d37"/><path d="M325.63319,272.08147a20.39379,20.39379,0,0,1-6.667-1.79625,29.64127,29.64127,0,0,1-5.56381-3.27415,29.11824,29.11824,0,0,1-4.7307-4.39274l-.08608-.10255a2.59967,2.59967,0,0,1,3.01807-4.04625l.12272.05323a29.1337,29.1337,0,0,1,5.55937,3.28122,29.64573,29.64573,0,0,1,4.725,4.39979A20.3944,20.3944,0,0,1,325.63319,272.08147Z" fill="#5f7d37"/><path d="M327.13211,286.7521a20.57475,20.57475,0,0,1-6.75887-1.56894,29.96179,29.96179,0,0,1-5.71155-3.08664,29.418,29.418,0,0,1-4.9197-4.23533l-.0002-.00022a2.62371,2.62371,0,0,1,2.90064-4.20567h0a29.44816,29.44816,0,0,1,5.7071,3.09394,29.991,29.991,0,0,1,4.91464,4.24255A20.58159,20.58159,0,0,1,327.13211,286.7521Z" fill="#5f7d37"/><path d="M328.12883,299.08508a22.68518,22.68518,0,0,1-7.22437-1.14795,33.75837,33.75837,0,0,1-6.31923-2.75432,33.1526,33.1526,0,0,1-5.63467-3.97l-.00022-.0002a2.61571,2.61571,0,0,1,2.50772-4.45126h0a33.15725,33.15725,0,0,1,6.31543,2.762,33.76293,33.76293,0,0,1,5.63024,3.97766A22.67094,22.67094,0,0,1,328.12883,299.08508Z" fill="#5f7d37"/><path d="M328.51167,312.82075a24.16649,24.16649,0,0,1-7.26052-2.13712,36.42607,36.42607,0,0,1-6.17509-3.62769,35.76493,35.76493,0,0,1-5.35342-4.75571l-.00025-.00027a2.611,2.611,0,0,1,3.00734-4.13009h0a35.74631,35.74631,0,0,1,6.17,3.63483,36.41912,36.41912,0,0,1,5.34835,4.76277A24.16906,24.16906,0,0,1,328.51167,312.82075Z" fill="#5f7d37"/><path d="M319.69965,230.92481a19.41851,19.41851,0,0,1-.17611-6.72084,27.89385,27.89385,0,0,1,1.54836-6.06752,27.40813,27.40813,0,0,1,2.85265-5.57315l.08414-.12273a2.59989,2.59989,0,0,1,4.71213,1.78535l-.0183.14757a27.40893,27.40893,0,0,1-1.55661,6.06443,27.89383,27.89383,0,0,1-2.8609,5.57006A19.41927,19.41927,0,0,1,319.69965,230.92481Z" fill="#5f7d37"/><path d="M322.48162,245.52976a16.6168,16.6168,0,0,1,.28682-6.15915,22.82477,22.82477,0,0,1,1.92955-5.32042,22.41339,22.41339,0,0,1,3.17174-4.68585l.039-.04319a2.63744,2.63744,0,0,1,4.523,2.31031l-.01213.05687a22.41144,22.41144,0,0,1-1.93716,5.31646,22.827,22.827,0,0,1-3.17936,4.68181A16.60493,16.60493,0,0,1,322.48162,245.52976Z" fill="#5f7d37"/><path d="M324.58878,259.65368a18.51573,18.51573,0,0,1,1.36857-6.40388,26.291,26.291,0,0,1,2.88007-5.34782,25.79134,25.79134,0,0,1,4.024-4.5486l0,0a2.634,2.634,0,0,1,4.18788,2.92632h0a25.78427,25.78427,0,0,1-2.88706,5.34275,26.28387,26.28387,0,0,1-4.031,4.54361A18.50594,18.50594,0,0,1,324.58878,259.65368Z" fill="#5f7d37"/><path d="M326.13589,275.2366a19.46382,19.46382,0,0,1,2.08815-6.4029,28.02236,28.02236,0,0,1,3.49439-5.211,27.54735,27.54735,0,0,1,4.55909-4.309l.11992-.08736a2.59989,2.59989,0,0,1,3.84528,3.25739l-.06642.13259a27.52605,27.52605,0,0,1-3.50138,5.20535,28.04827,28.04827,0,0,1-4.56607,4.30329A19.48777,19.48777,0,0,1,326.13589,275.2366Z" fill="#5f7d37"/><path d="M327.39206,288.23505a23.29561,23.29561,0,0,1,3.465-6.56072,34.85314,34.85314,0,0,1,4.70132-5.19252,34.25913,34.25913,0,0,1,5.636-4.157l.00036-.00021a2.61389,2.61389,0,0,1,3.42472,3.79163h0a34.23153,34.23153,0,0,1-4.707,5.186,34.85971,34.85971,0,0,1-5.64235,4.15047A23.28483,23.28483,0,0,1,327.39206,288.23505Z" fill="#5f7d37"/><path d="M327.83912,299.626a20.21155,20.21155,0,0,1,3.66154-5.813,29.31624,29.31624,0,0,1,4.74627-4.32219,28.7892,28.7892,0,0,1,5.56743-3.19393l.0001,0a2.62556,2.62556,0,0,1,3.0064,4.13121h0a28.79488,28.79488,0,0,1-4.752,4.31506,29.31126,29.31126,0,0,1-5.57251,3.18679A20.20314,20.20314,0,0,1,327.83912,299.626Z" fill="#5f7d37"/><path d="M328.58044,308.61407a25.317,25.317,0,0,1,5.114-5.835,38.47556,38.47556,0,0,1,6.02557-4.23193,37.79326,37.79326,0,0,1,6.71416-3.01886l.00038-.00012a2.60815,2.60815,0,0,1,2.52469,4.442h0a37.81507,37.81507,0,0,1-6.03,4.22432,38.47536,38.47536,0,0,1-6.71861,3.01118A25.31666,25.31666,0,0,1,328.58044,308.61407Z" fill="#5f7d37"/><path d="M347.80976,305.61638a2.60461,2.60461,0,0,1,1.66181,4.8127l-.00015.00009a35.094,35.094,0,0,1-6.38234,2.94633,34.45331,34.45331,0,0,1-6.83685,1.6273,23.17685,23.17685,0,0,1-7.4452-.132,23.18075,23.18075,0,0,1,5.77781-4.69738,34.46448,34.46448,0,0,1,6.38425-2.938,35.091,35.091,0,0,1,6.84066-1.61906Z" fill="#5f7d37"/><path d="M330.03689,335.44189c.17573-.5938,17.51418-59.66375,11.825-81.09737l.89852-.23776c5.756,21.68483-11.111,79.16331-11.83205,81.59942Z" fill="#c4ce6e"/><path d="M342.509,255.45728a10.87546,10.87546,0,0,1-1.88342-3.75051,14.51266,14.51266,0,0,1-.565-3.77245,14.26164,14.26164,0,0,1,.43353-3.78886l.01032-.03864a1.8951,1.8951,0,0,1,3.6322-.0602l.01157.03822a14.2626,14.2626,0,0,1,.55873,3.77257,14.51106,14.51106,0,0,1-.43976,3.789A10.8753,10.8753,0,0,1,342.509,255.45728Z" fill="#c4ce6e"/><path d="M343.20635,269.74607a7.408,7.408,0,0,1-4.19058-1.03219,9.7435,9.7435,0,0,1-3.0976-2.82017,8.89518,8.89518,0,0,1-1.57322-4.00546l-.0061-.048a1.87621,1.87621,0,0,1,3.33076-1.35022q.04994.06131.10015.12224c.7141.88144,1.31841,1.72762,1.9525,2.61233a33.71083,33.71083,0,0,1,1.81327,2.85912A22.082,22.082,0,0,1,343.20635,269.74607Z" fill="#c4ce6e"/><path d="M343.25776,260.67166a7.408,7.408,0,0,1-4.19058-1.03219,9.74369,9.74369,0,0,1-3.09759-2.82017,8.89534,8.89534,0,0,1-1.57323-4.00547l-.0061-.048a1.87621,1.87621,0,0,1,3.33076-1.35022q.04993.0613.10016.12224c.71409.88143,1.3184,1.72761,1.95249,2.61233a33.70812,33.70812,0,0,1,1.81328,2.85911A22.08293,22.08293,0,0,1,343.25776,260.67166Z" fill="#c4ce6e"/><path d="M343.44475,263.12531a11.49657,11.49657,0,0,1,.58243-4.29085,15.63029,15.63029,0,0,1,1.69352-3.58022,15.35255,15.35255,0,0,1,2.53452-3.04236l.064-.0576a1.87787,1.87787,0,0,1,3.0407,1.9442l-.02556.08265a15.35158,15.35158,0,0,1-1.699,3.57677,15.65006,15.65006,0,0,1-2.53954,3.03908A11.505,11.505,0,0,1,343.44475,263.12531Z" fill="#c4ce6e"/><path d="M341.92131,282.225A11.51984,11.51984,0,0,1,338.254,279.914a15.67767,15.67767,0,0,1-2.56-3.02808,15.40017,15.40017,0,0,1-1.72234-3.5709q-.02265-.07109-.04481-.14251a1.86064,1.86064,0,0,1,3.00039-1.944q.0562.04946.11188.09924a15.4005,15.4005,0,0,1,2.55466,3.03146,15.67837,15.67837,0,0,1,1.71742,3.57441A11.5124,11.5124,0,0,1,341.92131,282.225Z" fill="#c4ce6e"/><path d="M340.39572,293.36754a12.76161,12.76161,0,0,1-3.76006-2.63125,17.92766,17.92766,0,0,1-2.63733-3.32308,17.60607,17.60607,0,0,1-1.78718-3.84658l-.03711-.12012a1.86022,1.86022,0,0,1,3.05856-1.8842l.09061.0872a17.619,17.619,0,0,1,2.63157,3.32627,17.93255,17.93255,0,0,1,1.78186,3.84991A12.754,12.754,0,0,1,340.39572,293.36754Z" fill="#c4ce6e"/><path d="M338.29256,303.6723a14.58954,14.58954,0,0,1-4.16485-2.65571,21.20478,21.20478,0,0,1-3.095-3.42776,20.83118,20.83118,0,0,1-2.28653-4.01249l-.03675-.08845a1.85976,1.85976,0,0,1,2.92753-2.11422l.07234.06265a20.84267,20.84267,0,0,1,3.09045,3.43162,21.20786,21.20786,0,0,1,2.28111,4.01609A14.58937,14.58937,0,0,1,338.29256,303.6723Z" fill="#c4ce6e"/><path d="M336.16926,314.00613a14.719,14.719,0,0,1-4.27629-2.52029,21.43429,21.43429,0,0,1-3.236-3.33146,21.0451,21.0451,0,0,1-2.44927-3.9456l-.00009-.0002a1.877,1.877,0,0,1,2.88158-2.24819h0a21.067,21.067,0,0,1,3.23144,3.33549,21.4552,21.4552,0,0,1,2.44426,3.94944A14.7236,14.7236,0,0,1,336.16926,314.00613Z" fill="#c4ce6e"/><path d="M334.20456,322.63686a16.22849,16.22849,0,0,1-4.68428-2.3328,24.15091,24.15091,0,0,1-3.722-3.235,23.71641,23.71641,0,0,1-2.99413-3.91783l-.00011-.00019a1.87123,1.87123,0,0,1,2.66609-2.50007h0a23.71974,23.71974,0,0,1,3.71779,3.23942,24.15247,24.15247,0,0,1,2.98945,3.92213A16.21781,16.21781,0,0,1,334.20456,322.63686Z" fill="#c4ce6e"/><path d="M331.52007,332.09324a17.28814,17.28814,0,0,1-4.49681-3.01563,26.0588,26.0588,0,0,1-3.43636-3.80013,25.58524,25.58524,0,0,1-2.63367-4.39376l-.00011-.00025a1.86786,1.86786,0,0,1,2.93818-2.17373h0a25.57212,25.57212,0,0,1,3.43137,3.80392,26.05306,26.05306,0,0,1,2.62869,4.3975A17.28977,17.28977,0,0,1,331.52007,332.09324Z" fill="#c4ce6e"/><path d="M343.06957,274.31131a13.89146,13.89146,0,0,1,1.32117-4.62458,19.95489,19.95489,0,0,1,2.358-3.80889,19.608,19.608,0,0,1,3.14209-3.19176l.08375-.06572a1.85992,1.85992,0,0,1,2.833,2.229l-.04413.09678a19.6081,19.6081,0,0,1-2.36294,3.805,19.9553,19.9553,0,0,1-3.14706,3.18788A13.892,13.892,0,0,1,343.06957,274.31131Z" fill="#c4ce6e"/><path d="M341.836,284.87548a11.88726,11.88726,0,0,1,1.51665-4.142,16.32836,16.32836,0,0,1,2.4579-3.21726,16.03393,16.03393,0,0,1,3.16957-2.51777l.03586-.02111a1.88678,1.88678,0,0,1,2.59138,2.54674l-.02048.03621a16.03237,16.03237,0,0,1-2.46224,3.21291,16.33013,16.33013,0,0,1-3.1739,2.51338A11.87882,11.87882,0,0,1,341.836,284.87548Z" fill="#c4ce6e"/><path d="M340.24506,294.96663a13.24606,13.24606,0,0,1,2.3074-4.077,18.80844,18.80844,0,0,1,3.11248-3.0321,18.4517,18.4517,0,0,1,3.7218-2.24132h0a1.8843,1.8843,0,0,1,2.23055,2.89528h0a18.4453,18.4453,0,0,1-3.11616,3.02714,18.803,18.803,0,0,1-3.72549,2.23642A13.2388,13.2388,0,0,1,340.24506,294.96663Z" fill="#c4ce6e"/><path d="M337.959,305.93341a13.92409,13.92409,0,0,1,2.79828-3.922,20.046,20.046,0,0,1,3.5024-2.807,19.70672,19.70672,0,0,1,4.03558-1.96305l.10058-.0339a1.85991,1.85991,0,0,1,1.92573,3.04776l-.07376.07624a19.692,19.692,0,0,1-3.506,2.80163,20.06535,20.06535,0,0,1-4.03913,1.95765A13.94117,13.94117,0,0,1,337.959,305.93341Z" fill="#c4ce6e"/><path d="M336.02864,315.074a16.66488,16.66488,0,0,1,3.77181-3.73443,24.93235,24.93235,0,0,1,4.32213-2.53553,24.50811,24.50811,0,0,1,4.738-1.62839l.0003-.00007a1.86993,1.86993,0,0,1,1.52413,3.32218h0a24.48826,24.48826,0,0,1-4.32464,2.52987,24.93822,24.93822,0,0,1-4.74089,1.62254A16.65786,16.65786,0,0,1,336.02864,315.074Z" fill="#c4ce6e"/><path d="M333.89083,322.94388a14.45906,14.45906,0,0,1,3.74559-3.182,20.97181,20.97181,0,0,1,4.16617-1.93191,20.59541,20.59541,0,0,1,4.48461-.98578h.00008a1.87827,1.87827,0,0,1,1.16581,3.46421h0a20.59922,20.59922,0,0,1-4.16853,1.92581,20.96878,20.96878,0,0,1-4.48655.97982A14.453,14.453,0,0,1,333.89083,322.94388Z" fill="#c4ce6e"/><path d="M332.46918,329.237a18.111,18.111,0,0,1,4.74156-2.88546,27.52421,27.52421,0,0,1,5.01989-1.59595,27.0367,27.0367,0,0,1,5.22969-.62037h.00029a1.86583,1.86583,0,0,1,.7704,3.573h0a27.052,27.052,0,0,1-5.0213,1.5898,27.525,27.525,0,0,1-5.23108.61418A18.11112,18.11112,0,0,1,332.46918,329.237Z" fill="#c4ce6e"/><path d="M346.23563,331.31512a1.86328,1.86328,0,0,1,.102,3.641l-.00012,0a25.10577,25.10577,0,0,1-4.98767.642,24.64654,24.64654,0,0,1-5.015-.35564,16.58039,16.58039,0,0,1-5.05287-1.68679,16.58287,16.58287,0,0,1,4.95062-1.96673,24.65517,24.65517,0,0,1,4.98719-.63594,25.10412,25.10412,0,0,1,5.01583.36208Z" fill="#c4ce6e"/><path d="M470.40519,336.9962H13.88664a1,1,0,0,1,0-2H470.40519a1,1,0,0,1,0,2Z" fill="#935b50"/></g></g></svg>