<svg xmlns="http://www.w3.org/2000/svg" viewBox="0 0 502 358.14754"><title>Asset 8</title><g id="Layer_2" data-name="Layer 2"><g id="Layer_1-2" data-name="Layer 1"><path d="M165.44524,52.61362c-53.63614,41.86785-85.62963,218.11205,14.94063,219.3635,52.93813.65863,147.0964,35.4502,209.1743,67.7459,60.36229,31.40285,46.947-140.08-14.94065-219.36306S219.08139,10.74578,165.44524,52.61362Z" fill="#f9e0c0"/><path d="M416.17258,357.15184c-4.55371,0-9.55469-1.38867-14.916-4.17871l.46094-.88672c12.43848,6.47168,22.43555,5.31836,29.707-3.42382,13.2832-15.96875,16.08985-56.05762,7.32324-104.62012-9.20507-50.99317-29.4082-100.2793-54.04492-131.83985C317.09152,25.58641,214.47336-7.71437,155.947,37.97313l-.61523-.78906c58.96-46.02539,162.209-12.64746,230.16015,74.40332,24.73047,31.68262,45.00782,81.13184,54.24024,132.27734,8.81738,48.84571,5.92871,89.24707-7.53809,105.43653C427.84738,354.52587,422.43234,357.15184,416.17258,357.15184Z" fill="#f4c5a2"/><path d="M480.6455,331.49c-.37387-.73686-37.37865-74.07278-35.08357-103.57323l-1.23652-.09524c-2.32214,29.84623,33.68,101.20737,35.214,104.23037Z" fill="#8b9d36"/><path d="M444.98109,229.53324a14.51132,14.51132,0,0,0,1.56683-5.37628,19.36436,19.36436,0,0,0-.16874-5.087,19.02867,19.02867,0,0,0-1.483-4.86763l-.02286-.04822a2.52866,2.52866,0,0,0-4.78115.79729l-.006.053a19.03073,19.03073,0,0,0,.17694,5.08564,19.36219,19.36219,0,0,0,1.49122,4.8663A14.51132,14.51132,0,0,0,444.98109,229.53324Z" fill="#8b9d36"/><path d="M447.51326,248.453a9.8846,9.8846,0,0,0,5.25038-2.36558,13.00107,13.00107,0,0,0,3.38466-4.44829,11.86914,11.86914,0,0,0,1.09823-5.636l-.00358-.06449a2.50346,2.50346,0,0,0-4.69679-.96834q-.05074.09249-.10194.18457c-.72447,1.329-1.31338,2.58527-1.93207,3.89929a44.97624,44.97624,0,0,0-1.68981,4.18955A29.46339,29.46339,0,0,0,447.51326,248.453Z" fill="#8b9d36"/><path d="M445.25651,236.55684a9.88465,9.88465,0,0,0,5.25038-2.36559,13.00107,13.00107,0,0,0,3.38466-4.44829,11.86914,11.86914,0,0,0,1.09823-5.636l-.00358-.06448a2.50346,2.50346,0,0,0-4.69679-.96835q-.05074.09249-.10194.18458c-.72447,1.329-1.31338,2.58527-1.93207,3.89928a44.97736,44.97736,0,0,0-1.68981,4.18955A29.46461,29.46461,0,0,0,445.25651,236.55684Z" fill="#8b9d36"/><path d="M445.60308,239.82194a15.34,15.34,0,0,0-1.79953-5.49047,20.85537,20.85537,0,0,0-3.08621-4.28984,20.4847,20.4847,0,0,0-4.06011-3.38109l-.09786-.06015a2.50566,2.50566,0,0,0-3.52132,3.285l.05347.1023a20.48365,20.48365,0,0,0,3.09252,4.284,20.88181,20.88181,0,0,0,4.06591,3.37558A15.35111,15.35111,0,0,0,445.60308,239.82194Z" fill="#8b9d36"/><path d="M452.21029,264.51943a15.37079,15.37079,0,0,0,4.25513-3.91765,20.91908,20.91908,0,0,0,2.629-4.59144,20.54887,20.54887,0,0,0,1.39876-5.10171q.01257-.09877.02442-.19784a2.48268,2.48268,0,0,0-4.4065-1.82731q-.06182.07845-.12288.15722a20.54932,20.54932,0,0,0-2.62117,4.5946,20.92,20.92,0,0,0-1.39147,5.10513A15.3614,15.3614,0,0,0,452.21029,264.51943Z" fill="#8b9d36"/><path d="M456.90058,278.774a17.02773,17.02773,0,0,0,4.29961-4.3602,23.92147,23.92147,0,0,0,2.65932-4.99724,23.49249,23.49249,0,0,0,1.41733-5.47913q.01009-.08321.01973-.16658a2.48212,2.48212,0,0,0-4.4684-1.73479q-.04917.06807-.09787.1363a23.50856,23.50856,0,0,0-2.651,5,23.92721,23.92721,0,0,0-1.40954,5.48221A17.01758,17.01758,0,0,0,456.90058,278.774Z" fill="#8b9d36"/><path d="M462.14671,291.78975a19.46659,19.46659,0,0,0,4.82493-4.49,28.29434,28.29434,0,0,0,3.23466-5.245,27.79493,27.79493,0,0,0,2.03262-5.81733l.02689-.125a2.4815,2.4815,0,0,0-4.35193-2.06825l-.07982.09967a27.80941,27.80941,0,0,0-3.22777,5.249,28.29805,28.29805,0,0,0-2.02465,5.82075A19.467,19.467,0,0,0,462.14671,291.78975Z" fill="#8b9d36"/><path d="M467.42629,304.83883a19.63954,19.63954,0,0,0,5.00385-4.33913,28.59951,28.59951,0,0,0,3.443-5.15267,28.08113,28.08113,0,0,0,2.26233-5.76882l.00007-.00028a2.50445,2.50445,0,0,0-4.324-2.25516h0a28.10965,28.10965,0,0,0-3.436,5.15686,28.62776,28.62776,0,0,0-2.25483,5.77264A19.64625,19.64625,0,0,0,467.42629,304.83883Z" fill="#8b9d36"/><path d="M472.08685,315.69115a21.654,21.654,0,0,0,5.58449-4.19151,32.224,32.224,0,0,0,4.10405-5.14332,31.64567,31.64567,0,0,0,2.98407-5.86382l.0001-.00027a2.49681,2.49681,0,0,0-4.10194-2.63769h0a31.65024,31.65024,0,0,0-4.09741,5.14812,32.22794,32.22794,0,0,0-2.97689,5.86834A21.64036,21.64036,0,0,0,472.08685,315.69115Z" fill="#8b9d36"/><path d="M477.8912,327.45334a23.06756,23.06756,0,0,0,5.17373-5.04238,34.77046,34.77046,0,0,0,3.59281-5.816,34.13951,34.13951,0,0,0,2.3962-6.40144l.00009-.00035a2.49232,2.49232,0,0,0-4.38029-2.14378h0a34.12,34.12,0,0,0-3.58534,5.81982,34.76275,34.76275,0,0,0-2.38877,6.40513A23.07021,23.07021,0,0,0,477.8912,327.45334Z" fill="#8b9d36"/><path d="M448.79415,254.41109a18.53564,18.53564,0,0,0-2.84952-5.75022,26.62572,26.62572,0,0,0-4.01333-4.42961,26.16183,26.16183,0,0,0-4.89349-3.43057l-.12576-.066a2.48171,2.48171,0,0,0-3.18008,3.6087l.08127.11637a26.16347,26.16347,0,0,0,4.01893,4.42333,26.62626,26.62626,0,0,0,4.89906,3.42428A18.53654,18.53654,0,0,0,448.79415,254.41109Z" fill="#8b9d36"/><path d="M452.96168,267.97711a15.86131,15.86131,0,0,0-2.98961-5.06971,21.787,21.787,0,0,0-4.00175-3.62909,21.39435,21.39435,0,0,0-4.76694-2.53945l-.05216-.01906a2.51756,2.51756,0,0,0-2.7863,3.96735l.03561.04257a21.39209,21.39209,0,0,0,4.0064,3.62236,21.78981,21.78981,0,0,0,4.77156,2.53264A15.85024,15.85024,0,0,0,452.96168,267.97711Z" fill="#8b9d36"/><path d="M457.48409,280.83614a17.67417,17.67417,0,0,0-4.01167-4.79366,25.09624,25.09624,0,0,0-4.8161-3.22819,24.61944,24.61944,0,0,0-5.42495-2.04343h0a2.51426,2.51426,0,0,0-2.2287,4.33769h0a24.61209,24.61209,0,0,0,4.81974,3.22079,25.08848,25.08848,0,0,0,5.42861,2.0361A17.66445,17.66445,0,0,0,457.48409,280.83614Z" fill="#8b9d36"/><path d="M463.13,294.67659a18.57932,18.57932,0,0,0-4.61847-4.47184,26.74827,26.74827,0,0,0-5.27349-2.83866,26.29538,26.29538,0,0,0-5.7696-1.60253l-.14016-.02022a2.4817,2.4817,0,0,0-1.79189,4.46424l.1152.08226a26.27437,26.27437,0,0,0,5.27687,2.8308,26.773,26.773,0,0,0,5.77294,1.5946A18.60169,18.60169,0,0,0,463.13,294.67659Z" fill="#8b9d36"/><path d="M467.86846,306.20624a22.23657,22.23657,0,0,0-5.8508-3.9908,33.26865,33.26865,0,0,0-6.28377-2.28469,32.70167,32.70167,0,0,0-6.61061-.9939l-.0004,0a2.49507,2.49507,0,0,0-1.19866,4.72748h0a32.67571,32.67571,0,0,0,6.28569,2.27665,33.27509,33.27509,0,0,0,6.613.98552A22.22674,22.22674,0,0,0,467.86846,306.20624Z" fill="#8b9d36"/><path d="M472.57264,316.01837a19.29285,19.29285,0,0,0-5.68312-3.27216,27.98377,27.98377,0,0,0-5.93345-1.53017,27.48082,27.48082,0,0,0-6.1231-.21172h-.0001a2.50621,2.50621,0,0,0-.69416,4.82743h0a27.48584,27.48584,0,0,0,5.93509,1.52161,27.97941,27.97941,0,0,0,6.12421.20343A19.28492,19.28492,0,0,0,472.57264,316.01837Z" fill="#8b9d36"/><path d="M475.95658,323.934a24.16626,24.16626,0,0,0-6.91861-2.64272,36.725,36.725,0,0,0-6.97276-.8833,36.07486,36.07486,0,0,0-7.01273.44756l-.00038.00007a2.4896,2.4896,0,0,0-.149,4.87485h0a36.09657,36.09657,0,0,0,6.97313.8749,36.72565,36.72565,0,0,0,7.013-.456A24.16591,24.16591,0,0,0,475.95658,323.934Z" fill="#8b9d36"/><path d="M458.39187,329.98244a2.48621,2.48621,0,0,0,.74455,4.80272h.00016a33.49855,33.49855,0,0,0,6.70035-.36076,32.88743,32.88743,0,0,0,6.49549-1.67662,22.12346,22.12346,0,0,0,6.224-3.43266,22.12694,22.12694,0,0,0-6.97131-1.38662,32.89816,32.89816,0,0,0-6.69824.36864,33.49648,33.49648,0,0,0-6.495,1.68528Z" fill="#8b9d36"/><path d="M462.89478,317.18221c.15578-.93519,15.43654-93.93969,2.77684-125.44233l1.32076-.52959c12.80828,31.87183-2.05426,122.36981-2.69357,126.20654Z" fill="#5f7d37"/><path d="M466.86344,193.30948a16.65031,16.65031,0,0,1-3.56441-5.34609,22.21887,22.21887,0,0,1-1.5651-5.6264,21.83393,21.83393,0,0,1-.051-5.83838l.00844-.06064a2.90138,2.90138,0,0,1,5.50783-.77186l.02475.05591a21.83584,21.83584,0,0,1,1.55566,5.62776,22.216,22.216,0,0,1,.04155,5.83974A16.6503,16.6503,0,0,1,466.86344,193.30948Z" fill="#5f7d37"/><path d="M470.59959,214.89065a11.34151,11.34151,0,0,1-6.56092-.78344,14.91753,14.91753,0,0,1-5.23507-3.705,13.61863,13.61863,0,0,1-3.14081-5.7916l-.01827-.07182a2.87249,2.87249,0,0,1,4.80817-2.67557q.08734.08379.17508.167c1.25017,1.20558,2.32693,2.37814,3.45616,3.60369a51.61042,51.61042,0,0,1,3.29083,4.00475A33.80763,33.80763,0,0,1,470.59959,214.89065Z" fill="#5f7d37"/><path d="M468.9779,201.09246a11.34163,11.34163,0,0,1-6.56093-.78343,14.91739,14.91739,0,0,1-5.23506-3.705,13.61876,13.61876,0,0,1-3.14082-5.7916l-.01826-.07182A2.87248,2.87248,0,0,1,458.831,188.065q.08736.08379.17509.167c1.25017,1.20558,2.32693,2.37815,3.45615,3.60369a51.60416,51.60416,0,0,1,3.29083,4.00476A33.80749,33.80749,0,0,1,468.9779,201.09246Z" fill="#5f7d37"/><path d="M469.72165,204.78576a17.60151,17.60151,0,0,1,.08123-6.629,23.92974,23.92974,0,0,1,1.90266-5.75737,23.505,23.505,0,0,1,3.28131-5.09763l.08643-.0995a2.875,2.875,0,0,1,4.98451,2.38462l-.02334.13038a23.50287,23.50287,0,0,1-1.91158,5.75313,23.95909,23.95909,0,0,1-3.28955,5.09359A17.614,17.614,0,0,1,469.72165,204.78576Z" fill="#5f7d37"/><path d="M470.98455,234.09311a17.63658,17.63658,0,0,1-6.00538-2.82472,24.00239,24.00239,0,0,1-4.45713-4.12162,23.578,23.578,0,0,1-3.286-5.10334q-.04773-.1038-.09479-.20816a2.84864,2.84864,0,0,1,4.19494-3.516q.09465.06462.18859.12984a23.5779,23.5779,0,0,1,4.44965,4.12776,24.00366,24.00366,0,0,1,3.27918,5.10961A17.62577,17.62577,0,0,1,470.98455,234.09311Z" fill="#5f7d37"/><path d="M470.75363,251.3099a19.53784,19.53784,0,0,1-6.20629-3.29384,27.447,27.447,0,0,1-4.6299-4.55539,26.955,26.955,0,0,1-3.43615-5.5101q-.03968-.0876-.07889-.17556a2.848,2.848,0,0,1,4.29451-3.436q.07723.05758.154.11553a26.97406,26.97406,0,0,1,4.62175,4.56132,27.45408,27.45408,0,0,1,3.42868,5.51615A19.52622,19.52622,0,0,1,470.75363,251.3099Z" fill="#5f7d37"/><path d="M469.48817,267.36193a22.336,22.336,0,0,1-6.826-3.25519,32.46457,32.46457,0,0,1-5.34492-4.62871,31.89187,31.89187,0,0,1-4.226-5.66866l-.07242-.12752a2.84729,2.84729,0,0,1,4.05234-3.76093l.12165.08165a31.90843,31.90843,0,0,1,5.33875,4.63544,32.46915,32.46915,0,0,1,4.21844,5.67514A22.33645,22.33645,0,0,1,469.48817,267.36193Z" fill="#5f7d37"/><path d="M468.19755,283.4619a22.53434,22.53434,0,0,1-6.96992-3.02853,32.81516,32.81516,0,0,1-5.54119-4.456,32.21966,32.21966,0,0,1-4.46076-5.53654l-.00017-.00028a2.87361,2.87361,0,0,1,3.95741-3.95591h0a32.25291,32.25291,0,0,1,5.535,4.463,32.84739,32.84739,0,0,1,4.45386,5.5433A22.54172,22.54172,0,0,1,468.19755,283.4619Z" fill="#5f7d37"/><path d="M466.8289,296.94431a24.84573,24.84573,0,0,1-7.55473-2.66723,36.974,36.974,0,0,1-6.2616-4.21834,36.31,36.31,0,0,1-5.28346-5.39227l-.0002-.00026a2.86484,2.86484,0,0,1,3.5828-4.29826h0a36.31489,36.31489,0,0,1,6.256,4.22587,36.97841,36.97841,0,0,1,5.27716,5.39969A24.82994,24.82994,0,0,1,466.8289,296.94431Z" fill="#5f7d37"/><path d="M464.52119,311.81612a26.46852,26.46852,0,0,1-7.39778-3.7399,39.89617,39.89617,0,0,1-5.93338-5.1306,39.17077,39.17077,0,0,1-4.8249-6.183l-.00021-.00035a2.8597,2.8597,0,0,1,4.05738-3.85337h0a39.14984,39.14984,0,0,1,5.9265,5.13729,39.88685,39.88685,0,0,1,4.818,6.18957A26.471,26.471,0,0,1,464.52119,311.81612Z" fill="#5f7d37"/><path d="M471.24692,221.85314a21.268,21.268,0,0,1,1.14124-7.27453,30.55091,30.55091,0,0,1,2.86944-6.22928,30.019,30.019,0,0,1,4.17652-5.43845l.11495-.11555a2.84753,2.84753,0,0,1,4.72232,2.85633l-.04893.15533a30.02033,30.02033,0,0,1-2.87772,6.22433,30.55123,30.55123,0,0,1-4.1848,5.43349A21.26874,21.26874,0,0,1,471.24692,221.85314Z" fill="#5f7d37"/><path d="M471.3514,238.13645a18.19951,18.19951,0,0,1,1.52868-6.57781,24.99871,24.99871,0,0,1,3.1321-5.349,24.54844,24.54844,0,0,1,4.34453-4.41948l.05055-.0388a2.88866,2.88866,0,0,1,4.41464,3.38436l-.02433.05885a24.5455,24.5455,0,0,1-3.13953,5.34325,25.0014,25.0014,0,0,1-4.35193,4.41361A18.18663,18.18663,0,0,1,471.3514,238.13645Z" fill="#5f7d37"/><path d="M470.82424,253.76794a20.2794,20.2794,0,0,1,2.74239-6.6272,28.79545,28.79545,0,0,1,4.16144-5.1903,28.24793,28.24793,0,0,1,5.23542-4.10285l0,0a2.88487,2.88487,0,0,1,3.93166,3.98156h0a28.2405,28.2405,0,0,1-4.168,5.18345,28.78716,28.78716,0,0,1-5.242,4.09609A20.26831,20.26831,0,0,1,470.82424,253.76794Z" fill="#5f7d37"/><path d="M469.40487,270.86017a21.31773,21.31773,0,0,1,3.51732-6.48365,30.69083,30.69083,0,0,1,4.79609-4.92124,30.17074,30.17074,0,0,1,5.76434-3.73878l.14647-.07035a2.84752,2.84752,0,0,1,3.49705,4.27033l-.0978.12967a30.148,30.148,0,0,1-4.80249,4.91379,30.72,30.72,0,0,1-5.77074,3.73126A21.34379,21.34379,0,0,1,469.40487,270.86017Z" fill="#5f7d37"/><path d="M468.1839,285.11081a25.51434,25.51434,0,0,1,5.03173-6.381,38.17242,38.17242,0,0,1,6.09252-4.66235,37.52187,37.52187,0,0,1,6.8943-3.36185l.00043-.00015a2.86285,2.86285,0,0,1,2.93823,4.76253h0a37.49232,37.49232,0,0,1-6.09739,4.65422,38.17932,38.17932,0,0,1-6.89984,3.35351A25.503,25.503,0,0,1,468.1839,285.11081Z" fill="#5f7d37"/><path d="M466.4097,297.46959a22.13673,22.13673,0,0,1,5.09537-5.53666,32.10842,32.10842,0,0,1,5.96859-3.71594,31.53171,31.53171,0,0,1,6.62971-2.338l.00011,0a2.87563,2.87563,0,0,1,2.42037,5.04548h0a31.53737,31.53737,0,0,1-5.97334,3.70712,32.10336,32.10336,0,0,1-6.63377,2.32926A22.12722,22.12722,0,0,1,466.4097,297.46959Z" fill="#5f7d37"/><path d="M465.42833,307.29832a27.72816,27.72816,0,0,1,6.66429-5.27263,42.13831,42.13831,0,0,1,7.32877-3.36536,41.39193,41.39193,0,0,1,7.8303-1.92229l.00043-.00006a2.85657,2.85657,0,0,1,1.83991,5.28491h0a41.41748,41.41748,0,0,1-7.332,3.35628,42.13919,42.13919,0,0,1-7.83356,1.91312A27.72788,27.72788,0,0,1,465.42833,307.29832Z" fill="#5f7d37"/><path d="M486.7357,307.87724a2.8527,2.8527,0,0,1,.837,5.51332l-.00017.00006a38.4361,38.4361,0,0,1-7.4585,1.90986,37.734,37.734,0,0,1-7.68688.399,25.38461,25.38461,0,0,1-7.9938-1.61656,25.38836,25.38836,0,0,1,7.15406-3.9158,37.74691,37.74691,0,0,1,7.4589-1.90051,38.43323,38.43323,0,0,1,7.68936-.38938Z" fill="#5f7d37"/><path d="M461.68445,336.48555c.30689-.60484,30.68151-60.80114,28.79764-85.016l1.015-.07818c1.90608,24.49867-27.64556,83.074-28.9047,85.55539Z" fill="#c4ce6e"/><path d="M490.95886,252.79638a11.91122,11.91122,0,0,1-1.2861-4.413,15.89481,15.89481,0,0,1,.13851-4.17554,15.619,15.619,0,0,1,1.21731-3.99549l.01876-.03958a2.0756,2.0756,0,0,1,3.92451.65444l.0049.04347a15.62164,15.62164,0,0,1-.14523,4.17444,15.893,15.893,0,0,1-1.22405,3.9944A11.91115,11.91115,0,0,1,490.95886,252.79638Z" fill="#c4ce6e"/><path d="M488.88038,268.3263a8.1137,8.1137,0,0,1-4.30967-1.94174,10.67179,10.67179,0,0,1-2.77823-3.6513,9.74244,9.74244,0,0,1-.90146-4.62621l.00294-.05294a2.05492,2.05492,0,0,1,3.85527-.79485q.04164.07593.08368.15151c.59466,1.09089,1.078,2.12207,1.58589,3.20065a36.91757,36.91757,0,0,1,1.38705,3.43891A24.18481,24.18481,0,0,1,488.88038,268.3263Z" fill="#c4ce6e"/><path d="M490.73279,258.56156a8.11351,8.11351,0,0,1-4.30967-1.94174,10.67163,10.67163,0,0,1-2.77823-3.65129,9.74248,9.74248,0,0,1-.90146-4.62622l.00294-.05293a2.05491,2.05491,0,0,1,3.85526-.79485q.04165.07592.08368.15151c.59467,1.09089,1.07806,2.12206,1.5859,3.20065a36.91734,36.91734,0,0,1,1.387,3.4389A24.18481,24.18481,0,0,1,490.73279,258.56156Z" fill="#c4ce6e"/><path d="M490.44831,261.24166a12.59169,12.59169,0,0,1,1.47711-4.50675,17.11889,17.11889,0,0,1,2.53326-3.52122,16.81451,16.81451,0,0,1,3.33265-2.77531l.08033-.04937a2.05673,2.05673,0,0,1,2.89041,2.69644l-.0439.084a16.813,16.813,0,0,1-2.53843,3.51642,17.14017,17.14017,0,0,1-3.33741,2.77078A12.60085,12.60085,0,0,1,490.44831,261.24166Z" fill="#c4ce6e"/><path d="M485.02492,281.51409a12.617,12.617,0,0,1-3.49274-3.21572,17.17138,17.17138,0,0,1-2.158-3.7688,16.86711,16.86711,0,0,1-1.14814-4.18763q-.01032-.08108-.02005-.16239a2.03786,2.03786,0,0,1,3.617-1.49992q.05073.06441.10086.12906a16.86757,16.86757,0,0,1,2.15154,3.77138,17.17167,17.17167,0,0,1,1.14215,4.19045A12.609,12.609,0,0,1,485.02492,281.51409Z" fill="#c4ce6e"/><path d="M481.175,293.21463a13.977,13.977,0,0,1-3.52925-3.579,19.635,19.635,0,0,1-2.18284-4.10188,19.28312,19.28312,0,0,1-1.1634-4.49743l-.01619-.13674a2.0374,2.0374,0,0,1,3.6678-1.424l.08033.11188a19.29658,19.29658,0,0,1,2.176,4.10417,19.64094,19.64094,0,0,1,1.157,4.5A13.9687,13.9687,0,0,1,481.175,293.21463Z" fill="#c4ce6e"/><path d="M476.86881,303.89838a15.97872,15.97872,0,0,1-3.96044-3.68549,23.22424,23.22424,0,0,1-2.65511-4.30527,22.81473,22.81473,0,0,1-1.66843-4.775l-.02208-.10256a2.03689,2.03689,0,0,1,3.5722-1.69768l.06552.08181a22.8267,22.8267,0,0,1,2.64944,4.30854,23.22792,23.22792,0,0,1,1.6619,4.77784A15.97924,15.97924,0,0,1,476.86881,303.89838Z" fill="#c4ce6e"/><path d="M472.53517,314.60945a16.12086,16.12086,0,0,1-4.10731-3.56168,23.4754,23.4754,0,0,1-2.8261-4.22947,23.04948,23.04948,0,0,1-1.857-4.73521l-.00006-.00024a2.05572,2.05572,0,0,1,3.54923-1.8511h0a23.07307,23.07307,0,0,1,2.82036,4.2329,23.49858,23.49858,0,0,1,1.85083,4.73836A16.12575,16.12575,0,0,1,472.53517,314.60945Z" fill="#c4ce6e"/><path d="M468.70964,323.51736a17.77425,17.77425,0,0,1-4.58391-3.44051,26.45091,26.45091,0,0,1-3.36873-4.22179,25.97517,25.97517,0,0,1-2.4494-4.8132l-.00009-.00022a2.04946,2.04946,0,0,1,3.367-2.1651h0a25.979,25.979,0,0,1,3.36328,4.22573,26.454,26.454,0,0,1,2.44352,4.8169A17.76312,17.76312,0,0,1,468.70964,323.51736Z" fill="#c4ce6e"/><path d="M463.94526,333.17212a18.93464,18.93464,0,0,1-4.24675-4.13894,28.54014,28.54014,0,0,1-2.94908-4.774,28.02255,28.02255,0,0,1-1.96688-5.25449l-.00007-.00028a2.04577,2.04577,0,0,1,3.59547-1.75969h0a28.00742,28.00742,0,0,1,2.943,4.77709,28.534,28.534,0,0,1,1.96077,5.25752A18.93663,18.93663,0,0,1,463.94526,333.17212Z" fill="#c4ce6e"/><path d="M487.829,273.21686a15.21475,15.21475,0,0,1,2.339-4.71994,21.8551,21.8551,0,0,1,3.29426-3.636,21.47474,21.47474,0,0,1,4.01672-2.81592l.10323-.05421a2.03706,2.03706,0,0,1,2.6103,2.96214l-.06671.09551a21.47521,21.47521,0,0,1-3.29885,3.6308,21.85564,21.85564,0,0,1-4.0213,2.81076A15.21536,15.21536,0,0,1,487.829,273.21686Z" fill="#c4ce6e"/><path d="M484.40815,284.35225a13.0197,13.0197,0,0,1,2.454-4.16136,17.8836,17.8836,0,0,1,3.28475-2.97887,17.562,17.562,0,0,1,3.91285-2.08446l.04281-.01564a2.06649,2.06649,0,0,1,2.28708,3.25652l-.02923.03495a17.55963,17.55963,0,0,1-3.28857,2.97333,17.8855,17.8855,0,0,1-3.91664,2.07887A13.01031,13.01031,0,0,1,484.40815,284.35225Z" fill="#c4ce6e"/><path d="M480.696,294.90733a14.50779,14.50779,0,0,1,3.2929-3.93478,20.59983,20.59983,0,0,1,3.95321-2.64979,20.20822,20.20822,0,0,1,4.45295-1.67731h0a2.06378,2.06378,0,0,1,1.82938,3.56051h0a20.20253,20.20253,0,0,1-3.95619,2.64373,20.5941,20.5941,0,0,1-4.456,1.67129A14.49976,14.49976,0,0,1,480.696,294.90733Z" fill="#c4ce6e"/><path d="M476.06172,306.268a15.25026,15.25026,0,0,1,3.791-3.67061,21.95546,21.95546,0,0,1,4.32864-2.33006,21.58427,21.58427,0,0,1,4.73585-1.31541l.115-.01659a2.03706,2.03706,0,0,1,1.47084,3.66438l-.09456.06752a21.56758,21.56758,0,0,1-4.33141,2.32361,21.97659,21.97659,0,0,1-4.7386,1.30889A15.26874,15.26874,0,0,1,476.06172,306.268Z" fill="#c4ce6e"/><path d="M472.17223,315.73186a18.25272,18.25272,0,0,1,4.80251-3.27577,27.3082,27.3082,0,0,1,5.1579-1.87534,26.84268,26.84268,0,0,1,5.42619-.81582h.00033a2.048,2.048,0,0,1,.98389,3.88045h0a26.82174,26.82174,0,0,1-5.15947,1.86874,27.31236,27.31236,0,0,1-5.42818.80894A18.244,18.244,0,0,1,472.17223,315.73186Z" fill="#c4ce6e"/><path d="M468.3109,323.786a15.836,15.836,0,0,1,4.66487-2.68589,22.96906,22.96906,0,0,1,4.87035-1.256,22.55741,22.55741,0,0,1,5.026-.17379h.00008a2.05717,2.05717,0,0,1,.56979,3.9625h0a22.561,22.561,0,0,1-4.87169,1.249,22.96651,22.96651,0,0,1-5.02694.167A15.82949,15.82949,0,0,1,468.3109,323.786Z" fill="#c4ce6e"/><path d="M465.53326,330.28337a19.83642,19.83642,0,0,1,5.679-2.16922,30.14622,30.14622,0,0,1,5.72346-.72505,29.61158,29.61158,0,0,1,5.75625.36738l.00031,0a2.04354,2.04354,0,0,1,.12229,4.00142h0a29.62916,29.62916,0,0,1-5.72375.71814,30.146,30.146,0,0,1-5.75652-.37433A19.83581,19.83581,0,0,1,465.53326,330.28337Z" fill="#c4ce6e"/><path d="M479.95089,335.24808a2.04075,2.04075,0,0,1-.61114,3.94221h-.00014a27.497,27.497,0,0,1-5.49984-.29612,26.995,26.995,0,0,1-5.33169-1.37622,18.15956,18.15956,0,0,1-5.10889-2.81763,18.16249,18.16249,0,0,1,5.72226-1.13818,27.004,27.004,0,0,1,5.49812.30259,27.49441,27.49441,0,0,1,5.33131,1.38333Z" fill="#c4ce6e"/><path d="M481.31248,357.14754H455.591l-8.27487-43.9008a1.74489,1.74489,0,0,1,1.70271-2.07651h38.86582a1.74489,1.74489,0,0,1,1.70271,2.07651Z" fill="#935b50"/><path d="M488.98953,316.4188l.59792-3.172a1.7449,1.7449,0,0,0-1.70271-2.07653H449.0188a1.7449,1.7449,0,0,0-1.70271,2.07653l.59792,3.172Z" fill="#d6694b"/><polygon points="457.647 344.714 452.214 339.23 457.647 333.745 463.081 339.23 457.647 344.714" fill="#d6694b"/><polygon points="468.514 344.714 463.081 339.23 468.514 333.745 473.948 339.23 468.514 344.714" fill="#d6694b"/><polygon points="479.256 344.714 473.822 339.23 479.256 333.745 484.689 339.23 479.256 344.714" fill="#d6694b"/><path d="M410.34194,85.898a9.92988,9.92988,0,1,1-19.85977,0c0-5.48412,4.44577-13.07225,9.92989-13.07225S410.34194,80.41383,410.34194,85.898Z" fill="#fec165"/><path d="M398.21732,64.09188h4.309a1,1,0,0,1,1,1v8.5947a0,0,0,0,1,0,0h-6.309a0,0,0,0,1,0,0v-8.5947A1,1,0,0,1,398.21732,64.09188Z" fill="#d77f4a"/><line x1="400.41206" y1="0.5" x2="400.41206" y2="49.33008" fill="none" stroke="#7ca1b1" stroke-miterlimit="10"/><polygon points="400.412 49.33 365.809 97.604 378.411 112.129 400.412 112.129 400.412 49.33" fill="none" stroke="#7ca1b1" stroke-miterlimit="10"/><polyline points="400.412 49.33 383.11 97.818 388.45 112.129" fill="none" stroke="#7ca1b1" stroke-miterlimit="10"/><line x1="365.80858" y1="97.60407" x2="400.41206" y2="97.60407" fill="none" stroke="#7ca1b1" stroke-miterlimit="10"/><polygon points="400.412 49.33 435.016 97.604 422.413 112.129 400.412 112.129 400.412 49.33" fill="none" stroke="#7ca1b1" stroke-miterlimit="10"/><polyline points="400.412 49.33 417.714 97.818 412.374 112.129" fill="none" stroke="#7ca1b1" stroke-miterlimit="10"/><line x1="435.01554" y1="97.60407" x2="400.41206" y2="97.60407" fill="none" stroke="#7ca1b1" stroke-miterlimit="10"/><line x1="392.97821" y1="0.5" x2="407.84591" y2="0.5" fill="none" stroke="#9857bd" stroke-miterlimit="10"/><polygon points="171.559 258.801 160.806 166.397 87.378 167.796 98.004 255.745 171.559 258.801" fill="#c38f86"/><path d="M311.47979,267.72891v41.95818h76.92546c1.5714-38.06565,9.02493-68.40185,16.27735-89.51969,11.59544-33.76963,24.98768-51.79519,25.55166-52.54588l10.47388,7.85989c-.51154.68547-51.0317,59.59621-37.07932,180.15963l-13.00858,1.5065c-1.885-16.28854-2.62167-21.31-2.50657-35.67446H311.47979v34.92121H299.22222V267.72891Z" fill="#c38f86"/><rect x="107.14637" y="255.74497" width="8.03557" height="101.33529" fill="#c38f86"/><rect x="168.36624" y="255.74497" width="8.03557" height="101.33529" fill="#c38f86"/><rect x="98.00359" y="251.05358" width="88.8044" height="13.40075" rx="6.70037" fill="#f65b2b"/><path d="M209.5334,187.27674s1.53891-3.98433,9.93966-8.2471,15.46626-6.722,10.38648-2.44456l-3.92493,3.19548s7.56814-.29937,12.06112-.87258a5.60879,5.60879,0,0,1,5.87438,3.16742c.9126,2.059.2832,3.7517-4.75119,5.41195-7.52962,2.48312-11.578,3.58034-13.61653,3.64935-.70625.02391-8.36613-.33475-8.36613-.33475Z" fill="#f9977a"/><path d="M119.21909,180.32714a7.05291,7.05291,0,0,1-1.16565.04467,11.3575,11.3575,0,0,1-1.14124-.0874c-.37658-.05346-.75281-.1062-1.12549-.19507a8.58724,8.58724,0,0,1-1.12182-.30883,5.01222,5.01222,0,0,1,1.16565-.13306,8.00594,8.00594,0,0,1,1.154.0647,8.47757,8.47757,0,0,1,1.13232.22216A5.8133,5.8133,0,0,1,119.21909,180.32714Z" fill="#dd765e"/><path d="M180.865,332.88474l-.59887,18.90863s10.59913,2.59852,15.59489-9.693l-.876-11.04159Z" fill="#f9977a"/><path d="M180.46308,339.326s-8.4287,10.52831-3.757,16.73374a2.59661,2.59661,0,0,0,2.0898,1.0205l41.78706-.22686a1.36232,1.36232,0,0,0,1.34152-1.52256c-.23982-2.16476-1.25038-6.07968-5.3381-7.87744-5.81208-2.55612-9.93543,2.04982-19.62724-6.28558C196.95914,341.16776,184.39643,344.778,180.46308,339.326Z" fill="#935b50"/><path d="M130.3857,332.88474l-.59887,18.90863s10.59913,2.59852,15.59489-9.693l-.876-11.04159Z" fill="#f9977a"/><path d="M129.98375,339.326s-8.4287,10.52831-3.757,16.73374a2.59663,2.59663,0,0,0,2.08981,1.0205l41.78706-.22686a1.3623,1.3623,0,0,0,1.34151-1.52256c-.23982-2.16476-1.25037-6.07968-5.33809-7.87744-5.81208-2.55612-9.93544,2.04982-19.62724-6.28558C146.47981,341.16776,133.9171,344.778,129.98375,339.326Z" fill="#935b50"/><path d="M157.43495,144.84546l11.02643,5.41308a14.30778,14.30778,0,0,1,5.87225,5.323c2.67053,4.32007,9.86624,21.6687,11.98273,26.82007a2.0062,2.0062,0,0,0,2.14746,1.22192l29.51559-4.87011a12.85731,12.85731,0,0,0,2.71808,12.76782l-39.07129,11.5664a7.99119,7.99119,0,0,1-8.74148-4.08715l-6.1582-11.6792s-4.51307,8.76049-10.6189,19.9104l1.32733,15.92846H93.456l3.71661-41.67944s-.26544-27.07812,12.21173-34.51147c0,0,7.43329-4.77832,21.7688-4.51294a15.18846,15.18846,0,0,1,3.58386-5.27637Z" fill="#f73c4f"/><path d="M93.32207,223.087s-8.48051,31.90891,33.922,32.89072L125.124,337.30387h25.01749l2.96818-83.7807,20.71271,1.11534,1.76063,82.66536h23.51249l-1.46317-90.16248c0-13.28488-9.30229-24.05441-20.77724-24.05441Z" fill="#ffba55"/><path d="M124.13461,243.37767c.3169,2.2.55677,4.37183.96985,6.50733a24.66165,24.66165,0,0,0,.76319,3.15234,10.38458,10.38458,0,0,0,1.37646,2.94043,6.86018,6.86018,0,0,1-1.95093-2.7229,14.519,14.519,0,0,1-.96167-3.22388A21.16339,21.16339,0,0,1,124.13461,243.37767Z" fill="#e6952a"/><path d="M141.37827,223.0869a4.92255,4.92255,0,0,1,4.22082,1.01148,11.40576,11.40576,0,0,1,2.88672,3.4248,29.66507,29.66507,0,0,1,3.04273,8.36768l.458,2.178.32105,2.19775.31726,2.19727c.07165.73584.12988,1.4729.18237,2.21044.29028,2.94336.2909,5.90137.30237,8.84888-.33838-2.93481-.49-5.87451-.90454-8.78638-.09351-.72876-.18128-1.45776-.25549-2.18823l-.35-2.17212-.35278-2.17065-.48487-2.14038a31.26168,31.26168,0,0,0-2.8009-8.24585,11.049,11.049,0,0,0-2.59851-3.41919A4.89429,4.89429,0,0,0,141.37827,223.0869Z" fill="#e6952a"/><path d="M173.82236,254.63842a9.42439,9.42439,0,0,1,1.23877-4.3418,7.11564,7.11564,0,0,1,1.44067-1.8064,4.26193,4.26193,0,0,1,2.04944-1.02148,9.0122,9.0122,0,0,0-2.80725,3.2185c-.36792.61524-.67542,1.27149-.99207,1.9292Z" fill="#e6952a"/><path d="M152.88188,208.3808l13.77063-2.46994a5.22865,5.22865,0,0,1,4.29017.943l9.124,6.93426c-2,4.74067-26.87934,4.68364-26.87934,4.68364S150.13236,208.53684,152.88188,208.3808Z" fill="#f9977a"/><path d="M176.6207,216.04345a49.90316,49.90316,0,0,1-4.37805-2.87452c-1.407-1.02734-2.785-2.09228-4.12024-3.21362l.1499.05981q-1.74078-.26879-3.46472-.68994,1.77429-.03112,3.53161.08789l.06983.00464.08044.05542c1.4364.98828,2.83,2.03321,4.19458,3.11573A49.88144,49.88144,0,0,1,176.6207,216.04345Z" fill="#dd765e"/><path d="M171.44382,217.23925a26.196,26.196,0,0,1-3.02417-2.00122c-.9574-.72925-1.89258-1.48609-2.78272-2.2981l.13282.06518a24.74368,24.74368,0,0,1-2.814-.99462,24.64513,24.64513,0,0,1,2.96362.35327l.05677.01.07641.05517c.9762.7063,1.90747,1.46778,2.81629,2.25684A26.14311,26.14311,0,0,1,171.44382,217.23925Z" fill="#dd765e"/><path d="M165.26389,217.99437a10.174,10.174,0,0,1-2.584-2.32934l.20081.11548a8.54955,8.54955,0,0,1-2.073-.80713,8.54992,8.54992,0,0,1,2.223.08154l.1062.0166.09485.09912A10.172,10.172,0,0,1,165.26389,217.99437Z" fill="#dd765e"/><path d="M173.821,173.11278c-.48377,1.27905-1.03382,2.52515-1.59388,3.76587-.55859,1.2417-1.17151,2.4563-1.75464,3.68555-.63208,1.20483-1.238,2.42285-1.89453,3.61548-.657,1.19238-1.3236,2.38012-2.05749,3.53418.48279-1.27955,1.03308-2.5254,1.59277-3.76661.56018-1.24072,1.171-2.4563,1.75574-3.68481.63354-1.2041,1.23743-2.4231,1.89551-3.615C172.42124,175.45482,173.088,174.26732,173.821,173.11278Z" fill="#b02336"/><path d="M186.1655,189.97045c-.92066.35351-1.82178.72827-2.71973,1.09546-.89306.37866-1.78174.76049-2.63476,1.20507a18.84753,18.84753,0,0,0-2.47657,1.45459,10.35979,10.35979,0,0,0-2.12414,1.9524,6.60574,6.60574,0,0,1,1.79822-2.36695,12.00051,12.00051,0,0,1,2.498-1.64257A16.87853,16.87853,0,0,1,186.1655,189.97045Z" fill="#b02336"/><path d="M121.7883,166.21044c-.77075-1.68824-1.57739-3.35132-2.43555-4.98365a50.64859,50.64859,0,0,0-2.78234-4.76342,26.30609,26.30609,0,0,0-3.35425-4.33545,12.73729,12.73729,0,0,0-4.436-3.1731,10.775,10.775,0,0,1,4.80078,2.80274,23.614,23.614,0,0,1,3.55457,4.33691,40.39339,40.39339,0,0,1,2.68152,4.90405A37.77143,37.77143,0,0,1,121.7883,166.21044Z" fill="#b02336"/><path d="M123.3812,170.989a89.84151,89.84151,0,0,1-.15039,12.6062,45.7645,45.7645,0,0,1-.92005,6.25049,19.33667,19.33667,0,0,1-2.22424,5.93262l.0293-.1001.01977,6.63648-.18555-.20459,34.12293,3.21679.84192.07935-.72278.49634a5.14059,5.14059,0,0,0-1.82605,3.157,12.13957,12.13957,0,0,0-.13452,3.86572,25.14263,25.14263,0,0,0,.80273,3.84839c.36023,1.26807.82959,2.50293,1.30469,3.73657l.1709.44361-.46668-.00147-34.89294-.10449-8.72327-.02612-4.36157-.01319a14.65606,14.65606,0,0,1-4.37231-.35937,8.348,8.348,0,0,1-3.71851-2.31372,8.57925,8.57925,0,0,1-2.02991-3.85938,36.51808,36.51808,0,0,1-1.0968-8.64233,36.4432,36.4432,0,0,0,1.24378,8.604,8.38906,8.38906,0,0,0,2.0487,3.74146,8.08242,8.08242,0,0,0,3.63745,2.17822,15.28118,15.28118,0,0,0,4.2876.29883l4.36157-.01294,8.72327-.02637,34.89294-.10449-.29577.44214c-.49024-1.24952-.97449-2.50147-1.35071-3.79566-.21167-.63867-.33447-1.30591-.50452-1.95825-.13293-.66138-.23633-1.33252-.32007-2.00415a12.7773,12.7773,0,0,1,.17054-4.07935,5.65851,5.65851,0,0,1,2.15161-3.55322l.11914.57569-34.10327-3.42017-.18628-.0188.00049-.186.01977-6.63648.00012-.05444.02942-.04615a19.31249,19.31249,0,0,0,2.21839-5.80615,45.51005,45.51005,0,0,0,1.02172-6.19726A89.75353,89.75353,0,0,0,123.3812,170.989Z" fill="#b02336"/><path d="M136.12387,218.77416a12.91529,12.91529,0,0,1-.50488-3.97217,15.01652,15.01652,0,0,1,.65491-3.98511,12.8201,12.8201,0,0,1,1.80432-3.61743,12.3495,12.3495,0,0,1,2.81946-2.845,20.00253,20.00253,0,0,0-2.3855,3.13062c-.3523.54736-.62732,1.13647-.926,1.71118a16.32714,16.32714,0,0,0-.6687,1.82373,17.05156,17.05156,0,0,0-.782,3.812A21.5252,21.5252,0,0,0,136.12387,218.77416Z" fill="#b02336"/><path d="M105.329,212.801a29.32263,29.32263,0,0,1,2.86926-3.57617,29.02682,29.02682,0,0,1,3.43042-3.06982,26.24569,26.24569,0,0,1,3.91138-2.4502,20.88378,20.88378,0,0,1,4.31665-1.71411l-.06726.62524a20.75319,20.75319,0,0,0-3.87866-1.26269,19.50653,19.50653,0,0,0-4.05567-.47168,12.37733,12.37733,0,0,0-4.00464.69116,10.39776,10.39776,0,0,0-3.45056,2.20215,9.86312,9.86312,0,0,1,3.33179-2.49561,12.43809,12.43809,0,0,1,4.111-.89941,16.84513,16.84513,0,0,1,4.19592.38086,21.32924,21.32924,0,0,1,4.03187,1.25293l.86535.37329-.93262.25195a22.64459,22.64459,0,0,0-4.18212,1.62134,29.74932,29.74932,0,0,0-3.87732,2.32691,28.624,28.624,0,0,0-3.50428,2.87915A35.98645,35.98645,0,0,0,105.329,212.801Z" fill="#b02336"/><path d="M178.73215,176.29857a30.189,30.189,0,0,1-4.13013,2.43408,29.849,29.849,0,0,1-4.43127,1.83008,29.8421,29.8421,0,0,1,4.13025-2.43432A30.19759,30.19759,0,0,1,178.73215,176.29857Z" fill="#b02336"/><path d="M157.229,145.23827a3.01031,3.01031,0,0,1,1.01722,1.23706,8.414,8.414,0,0,1,.59106,1.51294,18.99821,18.99821,0,0,1,.52051,3.19434,37.86757,37.86757,0,0,1-.212,6.43554l-.07763.67578-.48328-.48755a7.76,7.76,0,0,0-2.028-1.44751,6.322,6.322,0,0,0-2.39832-.64428,5.18049,5.18049,0,0,0-2.45349.47339,6.94442,6.94442,0,0,0-1.13452.60669c-.35523.24438-.6864.52734-1.04029.78808.30921-.30566.60364-.63794.94251-.91943a7.20607,7.20607,0,0,1,1.10083-.74585,5.30913,5.30913,0,0,1,2.59363-.6853,5.89164,5.89164,0,0,1,2.64612.58837,8.3212,8.3212,0,0,1,2.24536,1.53833l-.56092.18824c.07874-1.05762.20447-2.11011.257-3.16748.06714-1.05664.0719-2.11377.04956-3.1687a18.55148,18.55148,0,0,0-.30835-3.14063A5.25883,5.25883,0,0,0,157.229,145.23827Z" fill="#b02336"/><path d="M130.94711,142.84886a41.15155,41.15155,0,0,0,2.097,9.16675,32.38592,32.38592,0,0,0,4.25623,8.30249l-.49768.00391a9.6164,9.6164,0,0,1,2.23571-1.9978,10.55979,10.55979,0,0,1,2.69275-1.23951,10.19185,10.19185,0,0,1,2.9065-.45459,12.63212,12.63212,0,0,1,2.90149.28882,14.84151,14.84151,0,0,0-2.8866-.031,11.53446,11.53446,0,0,0-2.78626.60571,10.13955,10.13955,0,0,0-2.50952,1.3042,9.09971,9.09971,0,0,0-2.05346,1.88574l-.26172.33692-.23621-.33326a26.268,26.268,0,0,1-2.51514-4.06591,31.28976,31.28976,0,0,1-1.79785-4.4209,33.98573,33.98573,0,0,1-1.12475-4.62573A28.16661,28.16661,0,0,1,130.94711,142.84886Z" fill="#b02336"/><path d="M148.73386,157.58275l-.03028,5.92578-.139,5.92334c-.11524,3.94849-.30408,7.89429-.51038,11.84009-.25977,3.94214-.51135,7.88623-.92419,11.81885a62.57964,62.57964,0,0,1-1.999,11.67554l.34546-1.43921c.1167-.47754.15857-.97315.24146-1.458.16394-.97144.25927-1.95361.36-2.93433.22376-1.95776.39478-3.92334.53455-5.89062q.45721-5.89857.76806-11.81153Z" fill="#b02336"/><path d="M139.867,100.18188a19.61713,19.61713,0,0,1,9.19482.176c1.41164.39733,6.57461,1.85046,9.35056,6.46273,1.05433,1.75163,1.41033,3.91943,2.12287,8.255.445,2.70807,1.62451,4.59041,1.84386,7.91484a28.14669,28.14669,0,0,1-.78477,8.01983c-.95528,4.09993-.01642,6.33078-.57608,7.12249-2.25546,3.19079-9.87145,1.311-9.72089,5.2691.093,2.444,8.44677,9.912,5.66626,10.60379-6.42631,1.59879-13.97112.00952-17.61845-1.60593-.4972-.22022-6.156-1.48727-5.96689-5.83337.10111-2.32176.75567-17.05221.47506-18.4351-1.01469-4.9983-3.597-5.44445-6.00583-11.40784a9.50388,9.50388,0,0,1,.95964-9.247A19.413,19.413,0,0,1,139.867,100.18188Z" fill="#f9977a"/><ellipse cx="159.77076" cy="119.42287" rx="1.02633" ry="1.27628" transform="translate(-7.56816 10.85859) rotate(-3.80254)" fill="#0a0709"/><ellipse cx="150.53729" cy="120.03656" rx="1.02633" ry="1.27628" transform="translate(-7.62919 10.2476) rotate(-3.80254)" fill="#0a0709"/><path d="M154.70578,117.46727a.64746.64746,0,0,1-.38867-1.166,6.88383,6.88383,0,0,1,7.665-.4834.64789.64789,0,0,1-.71,1.084,5.49326,5.49326,0,0,0-6.17969.43653A.64351.64351,0,0,1,154.70578,117.46727Z" fill="#1e1d22"/><path d="M145.13645,118.104a.64746.64746,0,0,1-.38868-1.166,6.88382,6.88382,0,0,1,7.665-.4834.648.648,0,0,1-.709,1.085,5.479,5.479,0,0,0-6.18067.43555A.6435.6435,0,0,1,145.13645,118.104Z" fill="#1e1d22"/><path d="M153.8862,117.78832a5.7917,5.7917,0,0,0,.76416,3.04736,12.89838,12.89838,0,0,0,1.78784,2.61817l.558.58178a1.25777,1.25777,0,0,1,.38879.84058,2.05945,2.05945,0,0,1-.77124,1.5415,3.71438,3.71438,0,0,1-3.16089.61573,3.98681,3.98681,0,0,0,2.93372-.85816,1.84792,1.84792,0,0,0,.606-1.27734c.00464-.43506-.5061-.73218-.87036-1.15039a11.76021,11.76021,0,0,1-1.76489-2.75879A5.08213,5.08213,0,0,1,153.8862,117.78832Z" fill="#dd765e"/><path d="M137.135,119.33446a3.90219,3.90219,0,0,0-.94873.54981,4.74433,4.74433,0,0,0-.77344.73876,15.43555,15.43555,0,0,0-1.29834,1.78418c.02893-.19018.0846-.37207.12744-.56152l.21351-.53516a4.74469,4.74469,0,0,1,.63488-.97387A2.69429,2.69429,0,0,1,137.135,119.33446Z" fill="#dd765e"/><path d="M136.656,124.70018a7.86931,7.86931,0,0,0-.18323-2.36328,5.30126,5.30126,0,0,0-.35986-1.11084c-.1427-.36914-.3479-.709-.53638-1.08154a3.45256,3.45256,0,0,1,.831.92822,4.15016,4.15016,0,0,1,.48523,1.16626A3.748,3.748,0,0,1,136.656,124.70018Z" fill="#dd765e"/><path d="M143.23582,129.02993s-2.18314-7.21072-2.012-9.328c.23881-2.95041.35826-4.42554-.07067-5.59124-.68651-1.86587.22445-2.17532,1.28129-4.29983.99189-1.99393,4.56358-.67065,5.40786-1.04811,2.36958-1.05954,2.21175-2.07647,3.84735-2.28775,1.67748-.2167,2.884-.74385,4.04442.2706,1.18346,1.03552,3.41593,3.84879,3.8841,3.30387a9.61988,9.61988,0,0,0,1.55693-4.9639,10.66338,10.66338,0,0,0-1.52338-4.89311c-.45769-.86073-2.16194-4.064-5.312-4.74-1.81433-.38945-2.099.4908-5.93549.97476-3.97924.50208-4.16263-.38293-6.21527.35075-2.27216.81228-2.11016,1.91846-5.92418,4.34341a41.07,41.07,0,0,1-3.91675,2.13127c-4.82879,2.43425-5.50094,2.141-6.57026,3.3212-2.30532,2.5444-1.631,6.611-1.46813,7.59324.45888,2.76643,1.60174,3.531,4.26294,7.83446,4.21391,6.81525,3.65984,9.83354,5.098,10.73282.7055.44115,4.08953-2.31983,3.99038-3.56291-.12977-1.62953-1.33906-2.06607-2.87964-4.3314-1.076-1.58324-2.62157-3.85626-1.965-6.05351.39741-1.32824.96049-1.00954,2.3117-.97428,1.83385.04785,2.89923,2.52714,3.75388,4.34191a9.99564,9.99564,0,0,1,.94831,4.19654C139.85151,129.5879,143.949,130.27194,143.23582,129.02993Z" fill="#1e1d22"/><path d="M151.62619,131.67528a10.71159,10.71159,0,0,0,3.9491.886,4.72775,4.72775,0,0,0,1.86279-.38867,11.57511,11.57511,0,0,0,1.82788-1.00513,4.092,4.092,0,0,1-1.44336,1.71338,4.30876,4.30876,0,0,1-1.05114.52832,5.22128,5.22128,0,0,1-1.17212.18359,4.914,4.914,0,0,1-2.24439-.51562A4.68709,4.68709,0,0,1,151.62619,131.67528Z" fill="#dd765e"/><path d="M155.12362,127.058c2.17455-.22022,2.51035-1.3364,6.5993,3.37668,0,0-4.31459-1.03934-12.56456,1.54372C149.15836,131.9784,152.01013,127.3733,155.12362,127.058Z" fill="#1e1d22"/><path d="M131.04913,142.84891s.26547,9.8225,6.10587,17.654a10.75377,10.75377,0,0,1,10.48618-3.58389s-14.76407-12.25207-14.10445-14.07006Z" fill="#f73c4f"/><path d="M149.63223,157.58265c4.77851-4.77851,9.29155,0,9.29155,0,1.19462-10.88438-1.59284-12.34448-1.59284-12.34448l-5.99369-2.38926Z" fill="#f73c4f"/><path d="M157.3309,145.23827a3.00938,3.00938,0,0,1,1.01722,1.23706,8.40473,8.40473,0,0,1,.59118,1.51294,18.99821,18.99821,0,0,1,.52051,3.19434,37.88,37.88,0,0,1-.212,6.43554l-.07763.67578-.4834-.48755a7.756,7.756,0,0,0-2.028-1.44751,6.32134,6.32134,0,0,0-2.39819-.64428,5.18124,5.18124,0,0,0-2.45361.47339,6.94823,6.94823,0,0,0-1.1344.60669c-.35535.24438-.6864.52734-1.04041.78808.30933-.30566.60376-.63794.94251-.91943a7.20716,7.20716,0,0,1,1.101-.74585,5.30913,5.30913,0,0,1,2.59363-.6853,5.89106,5.89106,0,0,1,2.646.58837,8.31923,8.31923,0,0,1,2.24537,1.53833l-.5608.18824c.07874-1.05762.20447-2.11011.257-3.16748.06714-1.05664.0719-2.11377.04956-3.1687a18.56483,18.56483,0,0,0-.30835-3.14063A5.25811,5.25811,0,0,0,157.3309,145.23827Z" fill="#b02336"/><path d="M131.04917,142.84886a41.15076,41.15076,0,0,0,2.09692,9.16675,32.38661,32.38661,0,0,0,4.25635,8.30249l-.49768.00391a9.61828,9.61828,0,0,1,2.23559-1.9978,10.56167,10.56167,0,0,1,2.69275-1.23951,10.1925,10.1925,0,0,1,2.90649-.45459,12.63252,12.63252,0,0,1,2.90162.28882,14.84264,14.84264,0,0,0-2.88672-.031,11.53475,11.53475,0,0,0-2.78614.60571,10.13973,10.13973,0,0,0-2.50952,1.3042,9.09971,9.09971,0,0,0-2.05346,1.88574l-.26172.33692-.23621-.33326a26.268,26.268,0,0,1-2.51514-4.06591,31.2755,31.2755,0,0,1-1.79785-4.4209,33.98615,33.98615,0,0,1-1.12487-4.62573A28.179,28.179,0,0,1,131.04917,142.84886Z" fill="#b02336"/><polygon points="307.476 328.369 310.335 343.491 291.791 346.996 291.73 333.789 307.476 328.369" fill="#f9977a"/><polygon points="260.587 331.237 256.766 346.145 238.485 341.46 244.027 329.472 260.587 331.237" fill="#f9977a"/><path d="M378.42009,222.42438l2.71919,18.17233c2.55175,17.05327-10.13445,31.2504-27.37573,31.5026-19.96556.29205-44.15326.81207-55.20967-3.41142l10.80242,62.03292-18.3194,3.47685-13.40239-40.11837-16.92573,43.75983-20.51335-6.37785,23.61794-78.58294s-8.4732-20.61833,16.64919-27.1,48.20185,1.70387,48.20185,1.70387Z" fill="#8b9d36"/><path d="M328.66452,227.48217c-3.217-.15918-6.43432-.24146-9.65063-.2212-3.21534-.00683-6.42993.06934-9.637.2483a120.73255,120.73255,0,0,0-19.07641,2.34668c-6.2273,1.34326-12.46363,3.2871-17.6919,6.9392a20.76851,20.76851,0,0,0-6.42236,6.89576,19.41067,19.41067,0,0,0-2.3728,9.1875,18.9658,18.9658,0,0,1,1.94018-9.418,21.31236,21.31236,0,0,1,6.40528-7.28931,35.37868,35.37868,0,0,1,8.6018-4.56592,68.727,68.727,0,0,1,9.33155-2.72607,112.74213,112.74213,0,0,1,19.25341-2.135A138.88947,138.88947,0,0,1,328.66452,227.48217Z" fill="#5e7c24"/><path d="M298.55393,268.688c-1.61939-.23365-3.22095-.56372-4.82276-.91089-.79931-.18042-1.59082-.39551-2.38208-.62427a16.48561,16.48561,0,0,1-2.3562-.846l.51978-.19165c-.894,2.36963-1.82862,4.72266-2.77979,7.06885-.94165,2.3501-1.91821,4.68579-2.89355,7.02222q-1.4751,3.4995-3.02857,6.96679c-1.01465,2.32007-2.0791,4.61988-3.17627,6.90625.82447-2.39819,1.68189-4.783,2.58887-7.14721q1.32935-3.55922,2.73657-7.08667c.94653-2.34815,1.8916-4.69678,2.87158-7.03125.97071-2.33814,1.95777-4.66968,2.98536-6.98438l.16674-.37573.35327.18384a28.21751,28.21751,0,0,0,4.51832,1.67944C295.40573,267.81639,296.98142,268.24,298.55393,268.688Z" fill="#5e7c24"/><path d="M280.40866,245.58788a13.33111,13.33111,0,0,1-2.7688,4.36572,16.03476,16.03476,0,0,1-4.11474,3.22461,16.63619,16.63619,0,0,1-4.9148,1.76758,17.39247,17.39247,0,0,1-2.57983.32007c-.8645.01953-1.72949-.02124-2.58228-.07569.84937-.17236,1.69654-.22876,2.52515-.41113.82349-.20459,1.65918-.31445,2.45386-.5918l1.20141-.35888,1.16431-.45655a9.91762,9.91762,0,0,0,1.14062-.50219,11.57428,11.57428,0,0,0,1.10865-.56641,20.28768,20.28768,0,0,0,4.04883-2.8999A20.87423,20.87423,0,0,0,280.40866,245.58788Z" fill="#5e7c24"/><path d="M303.15524,331.89769c-1.36767-5.45092-2.62793-10.92456-3.87207-16.40185-1.24658-5.47656-2.405-10.97193-3.61181-16.457-1.12744-5.502-2.29712-10.99488-3.38526-16.50537l-1.6123-8.26954c-.50171-2.76416-1.03687-5.52124-1.509-8.2915.69384,2.72339,1.32446,5.46,1.98852,8.1897l1.88525,8.21167c1.2439,5.47729,2.40577,10.97192,3.61011,16.45752,1.12476,5.50244,2.2981,10.99463,3.38355,16.50561C301.1196,320.8474,302.19113,326.36107,303.15524,331.89769Z" fill="#5e7c24"/><path d="M253.47067,335.58861c2.57007-6.59717,5.241-13.15185,7.92725-19.70019l8.17261-19.5962,8.3855-19.5061,4.26831-9.72119c1.45654-3.22607,2.88134-6.46558,4.36572-9.67993-1.27564,3.30273-2.61084,6.58032-3.91431,9.87109l-4.01147,9.82984-8.17407,19.5957L262.103,316.187C259.2695,322.67284,256.42063,329.15209,253.47067,335.58861Z" fill="#5e7c24"/><path d="M325.44829,150.48077s-21.1537,24.91724-21.93236,33.74209l10.38218,8.30575" fill="#376f92"/><path d="M323.25819,170.53787c-9.32713-3.87626,3.10322-22.20178,3.10322-22.20178l.1043-.5935a.73239.73239,0,0,0-.80178-.88567c-1.94917.33635-5.98224.57632-4.80833-3.52818a3.80384,3.80384,0,0,0-1.17967-3.00578,1.07132,1.07132,0,0,1,.01682-1.57433,10.08316,10.08316,0,0,0,2.70183-3.22661.71578.71578,0,0,0-.72775-1.01263l-3.76041.64807a.56532.56532,0,0,1-.631-.63319l.04628-.5322a.61536.61536,0,0,0-.53336-.68109l-1.3079-.116a1.48676,1.48676,0,0,1-1.19134-1.98687l1.812-5.32856a4.35609,4.35609,0,0,0-.036-2.88365c-.99229-2.726-2.98746-1.78839-1.94789-8.14368,0,0,5.88177-8.10788,19.9428.46117,0,0-.63141-.58533,6.1135,4.83108,0,0,2.62812,2.00725,1.8584,9.37758,0,0,4.48783,9.98566,1.312,15.83308C343.34383,145.35514,332.58532,174.41413,323.25819,170.53787Z" fill="#f9977a"/><path d="M341.345,131.8644s.14283,27.49994-15.441,16.91562h0c.27532-.28249.4574-.44393.4574-.44393l.1043-.5935a.73239.73239,0,0,0-.80174-.88568c-.12569.02169-.26064.04287-.40169.06255l-.08721-.25281C339.757,146.79276,341.345,131.8644,341.345,131.8644Z" fill="#dd765e"/><path d="M323.9663,122.77584a.5232.5232,0,0,0,.52581-.30665.59583.59583,0,0,0-.23336-.7714,19.45828,19.45828,0,0,0-8.46873-2.18893.574.574,0,0,0,.00634,1.14521,18.82006,18.82006,0,0,1,7.97732,2.06067A.51076.51076,0,0,0,323.9663,122.77584Z"/><path d="M321.28269,124.19017c-.73975-.13964-1.41456-.29541-2.10279-.38086-.34179-.05761-.68335-.06689-1.031-.09155-.35035-.02124-.69629.01441-1.07911.02027a3.02879,3.02879,0,0,1,2.18335-.47657,3.962,3.962,0,0,1,1.08838.31177A3.12825,3.12825,0,0,1,321.28269,124.19017Z" fill="#350500"/><ellipse cx="318.64975" cy="124.7388" rx="1.25803" ry="0.67389" transform="translate(169.27093 432.60792) rotate(-85.49561)" fill="#050505"/><path d="M340.49241,123.86739a6.657,6.657,0,0,0-2.43985-.49207,2.4418,2.4418,0,0,0-1.11174.33384,4.61252,4.61252,0,0,0-.98275.82819,2.45828,2.45828,0,0,1,.74842-1.19942,2.194,2.194,0,0,1,1.31212-.534,3.02154,3.02154,0,0,1,1.35662.26885A3.23794,3.23794,0,0,1,340.49241,123.86739Z" fill="#dd765e"/><path d="M340.10817,128.28628a3.601,3.601,0,0,1-1.14754-.90053,4.71038,4.71038,0,0,1-.799-1.28819,5.92057,5.92057,0,0,1-.23975-.737,4.65323,4.65323,0,0,1-.09652-.77132,3.7938,3.7938,0,0,1,.22209-1.50188,12.5992,12.5992,0,0,0,.1911,1.44724,6.53108,6.53108,0,0,0,.41072,1.33363A10.39661,10.39661,0,0,0,340.10817,128.28628Z" fill="#dd765e"/><path d="M345.95926,136.37819c3.35126-.91445,4.19968-6.82456,5.02452-12.57033a29.87776,29.87776,0,0,0-.37369-12.8096c-.8446-3.13977-1.66252-6.18041-4.36631-8.79368-3.75659-3.6308-8.65562-4.02229-12.563-4.33455-4.37369-.34951-7.86975-.62889-11.06834,1.425-3.3903,2.177-4.32083,1.86644-6.37132,4.97768-.70683,1.07247-3.686,1.51251-5.2877,2.71046-.31934.23885-2.17166,1.62427-1.95179,2.76009.09481.48976,1.154,4.53423,8.25545,5.42327,4.09932.5132,5.37966-.07411,7.355.81274,4.35086,1.95333,6.72626.269,7.682.43381,1.15037.19843.053,1.86245-.51256,4.59451a30.53433,30.53433,0,0,0-.59071,6.26317c-.02467,3.30115.47547,4.04363-.00473,6.4164a7.67108,7.67108,0,0,1-1.56565,3.869c-1.279,1.46909-3.00354,1.90243-5.36642,2.46362-4.10268.97438-4.44643-.31471-4.90311.709-.45694,1.02426.41605,4.47,1.4572,5.28623,2.87608,2.25465,6.1065.70023,8.37767.34694,3.06706-.47711,9.59938-3.90134,9.46573-7.97264-.07181-2.18763-1.75778-7.7388-2.80551-10.99758a5.51094,5.51094,0,0,1,1.29308-5.67629,2.22758,2.22758,0,0,1,1.24672-.66734,3.0992,3.0992,0,0,1,2.78629,1.59259c.14887.26946.61881,1.23155-.39379,4.17544C339.7117,129.91705,343.042,137.17422,345.95926,136.37819Z"/><path d="M316.70516,135.5822a1.00017,1.00017,0,0,0,.27365-.00854l4.43009-.74945a4.02221,4.02221,0,0,0,2.603-1.65818,1.20356,1.20356,0,0,0-.20217-1.60652,1.01971,1.01971,0,0,0-1.49748.20547,1.93289,1.93289,0,0,1-1.25084.7969l-4.43009.74945a1.129,1.129,0,0,0-.88041,1.30951A1.1131,1.1131,0,0,0,316.70516,135.5822Z"/><path d="M310.015,356.01328l-37.13667,1.13426-2.51254-4.79281a1.40575,1.40575,0,0,1,.32074-2.38367l22.24333-9.68321s8.89912,5.59187,16.64735,1.392C309.57726,341.67982,315.96275,352.28473,310.015,356.01328Z" fill="#d6694b"/><path d="M251.95,355.09267l-33.95769-12.62514-.40247-7.49508a1.40575,1.40575,0,0,1,1.30089-2.023l24.25071.65832s4.07725,14.1915,14.48776,8.31726C257.62918,341.92505,258.91739,354.23679,251.95,355.09267Z" fill="#d6694b"/><path d="M280.29766,179.24091s-4.46861-1.24984-9.95183-9.891-8.87734-16.02595-3.72353-10.97756l3.86366,3.91208s-1.11069-8.15292-2.19775-12.95195a6.09322,6.09322,0,0,1,2.81435-6.6818c2.13168-1.201,4.02757-.69637,6.34643,4.57509,3.46816,7.88419,5.07563,12.14789,5.36224,14.34519.09929.76124.50795,9.08179.50795,9.08179Z" fill="#f9977a"/><path d="M271.55051,167.15233a8.05245,8.05245,0,0,1-.89722-2.35229,7.11833,7.11833,0,0,1-.16724-2.51563,11.94256,11.94256,0,0,1,.77857,2.37793A10.23192,10.23192,0,0,1,271.55051,167.15233Z" fill="#dd765e"/><path d="M272.63156,156.51512c-.6643-1.946-1.21142-3.90454-1.80322-5.84936-.28882-.97388-.58423-1.94531-.89819-2.90991-.32227-.96192-.63452-1.92749-1.02149-2.88037a19.5674,19.5674,0,0,1,2.52,5.61035A31.25115,31.25115,0,0,1,272.63156,156.51512Z" fill="#dd765e"/><path d="M275.372,155.21215c-.56763-2.176-1.07031-4.34424-1.69263-6.4751-.29687-1.06934-.64648-2.12012-1.04077-3.15088a11.56282,11.56282,0,0,0-1.53613-2.93555,7.94282,7.94282,0,0,1,1.98413,2.73853,19.54107,19.54107,0,0,1,1.19482,3.17358A28.18176,28.18176,0,0,1,275.372,155.21215Z" fill="#dd765e"/><path d="M277.62961,153.3889c-.50147-1.81494-.94385-3.61474-1.44946-5.39965-.49756-1.78907-1.06324-3.53858-1.72046-5.30323a16.63691,16.63691,0,0,1,2.32373,5.13355A21.881,21.881,0,0,1,277.62961,153.3889Z" fill="#dd765e"/><path d="M343.34383,145.35514s17.56146,4.33427,23.88146,21.04042a181.318,181.318,0,0,1,11.95079,59.22626s-34.69567,16.55385-50.51167,1.86037c0,0-24.409-54.03084-4.16373-77.00142C324.50068,150.48077,311.41862,188.571,343.34383,145.35514Z" fill="#376f92"/><path d="M350.23581,176.69579c-.8,2.06763-1.739,4.08008-2.73486,6.06348a59.93629,59.93629,0,0,1-3.28467,5.79931,43.56,43.56,0,0,1-3.978,5.37793,21.764,21.764,0,0,1-5.09765,4.42212l-.25635.15283-.239-.19287-10.55029-8.51782-10.47461-8.61108-.33032-.27149.25806-.33569c2.73217-3.55713,5.60351-6.99536,8.55371-10.36988,1.477-1.685,2.99389-3.33813,4.59424-4.91088.8-.78614,1.615-1.5586,2.47753-2.27857a13.43287,13.43287,0,0,1,1.35132-1.00708,3.2819,3.2819,0,0,1,1.542-.634,3.23922,3.23922,0,0,0-1.48536.71728,16.45224,16.45224,0,0,0-1.28344,1.06714c-.82276.75171-1.59815,1.55518-2.35791,2.37207-1.51319,1.64038-2.95728,3.345-4.39331,5.05493-2.85987,3.43042-5.58179,6.98121-8.29859,10.52124l-.07226-.60693,10.54907,8.51953,10.47339,8.61231-.49488-.04a23.171,23.171,0,0,0,4.96973-4.17163,42.91581,42.91581,0,0,0,4.05884-5.18848A85.06926,85.06926,0,0,0,350.23581,176.69579Z" fill="#10394f"/><path d="M346.86154,225.49193a26.73754,26.73754,0,0,1-9.7456-4.86548,23.097,23.097,0,0,1-3.90869-3.8728,17.81977,17.81977,0,0,1-2.69776-4.75854,32.29569,32.29569,0,0,0,3.29151,4.25195,33.161,33.161,0,0,0,3.93213,3.59326,46.871,46.871,0,0,0,4.39721,3.04443C343.66379,223.80736,345.22751,224.69823,346.86154,225.49193Z" fill="#10394f"/><path d="M348.34812,231.4619a17.49163,17.49163,0,0,1-4.52271-1.13867,22.57451,22.57451,0,0,1-4.17847-2.12305,21.35933,21.35933,0,0,1-3.65649-2.93652,18.62141,18.62141,0,0,1-2.88525-3.665c1.12768,1.07275,2.2207,2.135,3.40918,3.08691a35.37973,35.37973,0,0,0,3.6726,2.67383,38.62763,38.62763,0,0,0,3.95166,2.25244A44.38228,44.38228,0,0,0,348.34812,231.4619Z" fill="#10394f"/><path d="M315.93756,182.51038l-5.61621,7.15674-6.80542-5.44433-7.5271,6.36572-12.97778-24.2749-11.45057,4.58032,12.4889,34.35278-23.08448,4.81617-11.89965-1.242a7.602,7.602,0,0,0-6.31885.81958l-13.35279,8.39795s.39258,3.01148,4.871,3.20142a8.907,8.907,0,0,0,4.55542-1.095c2.44055-1.30225,7.327-3.55494,10.59668-2.71827l4.04732,1.81342a5.01352,5.01352,0,0,0,1.92042.45832c2.31184.05783,4.46134-1.47756,6.22381-1.64271l47.13108-1.129a9.272,9.272,0,0,0,6.88183-3.05834l16.4458-18.21558Z" fill="#f9977a"/><path d="M310.32126,189.66722c-1.45654,2.15577-2.98877,4.25147-4.53906,6.333-1.53565,2.093-3.13306,4.13721-4.73267,6.17993l-.11084.14161-.1792.03662c-2.76782.56616-5.54077,1.10742-8.32568,1.5896l-4.1814.70312c-1.40088.19922-2.79541.42944-4.20312.5957,1.36108-.396,2.73486-.72827,4.10254-1.0913l4.12426-.98414c2.75245-.64257,5.51661-1.22607,8.28589-1.78466l-.28979.17822c1.6206-2.02588,3.24341-4.05,4.92773-6.02539C306.86984,193.55248,308.55783,191.57982,310.32126,189.66722Z" fill="#dd765e"/><rect x="77.31529" y="224.38975" width="8.36938" height="132.7578" transform="translate(162.99997 581.53729) rotate(-180)" fill="#935b50"/><rect x="61.29186" y="217.97084" width="251.51066" height="6.41891" rx="1.44287" transform="translate(374.09438 442.36059) rotate(-180)" fill="#935b50"/><rect x="287.74206" y="224.38975" width="8.36938" height="132.7578" transform="translate(583.8535 581.53729) rotate(-180)" fill="#935b50"/><path d="M73.62,224.38975H299.90212a2.88575,2.88575,0,0,1,2.88575,2.88575v18.10962a0,0,0,0,1,0,0H70.73424a0,0,0,0,1,0,0V227.27549A2.88575,2.88575,0,0,1,73.62,224.38975Z" transform="translate(373.52211 469.77486) rotate(-180)" fill="#c38f86"/><path d="M299.22218,267.72893h94.75937v-2.4245A10.91042,10.91042,0,0,0,383.07113,254.394H310.1326a10.91042,10.91042,0,0,0-10.91042,10.91041Z" fill="#f65b2b"/><rect x="309.59385" y="267.72893" width="84.38769" height="8.95735" transform="translate(703.5754 544.41522) rotate(-180)" fill="#c38f86"/><polyline points="299.222 267.729 311.48 267.729 311.48 309.687" fill="#c38f86"/><path d="M300.35393,260.48809s61.05364,13.20428,79.434-6.09407C379.78791,254.394,301.35961,238.90051,300.35393,260.48809Z" fill="#8b9d36"/><path d="M152.89968,58.14045h51.30419a0,0,0,0,1,0,0v8.14531a0,0,0,0,1,0,0H152.89968a3.50483,3.50483,0,0,1-3.50483-3.50483V61.64527A3.50483,3.50483,0,0,1,152.89968,58.14045Z" fill="#fff"/><path d="M205.80831,66.49425a.738.738,0,0,1-.738.738H151.82222c-2.03307,0-3.6868-2.233-3.6868-4.9782,0-2.74454,1.65373-4.97753,3.6868-4.97753h53.24809a.738.738,0,0,1,.738.738v.5809a.738.738,0,0,1-.738.738H151.82222c-1.19306,0-2.16349,1.31033-2.16349,2.92063,0,1.611.97043,2.9213,2.16349,2.9213h53.24809a.738.738,0,0,1,.738.738Z" fill="#f65b2b"/><path d="M144.89525,48.18472h51.30419a0,0,0,0,1,0,0V56.33a0,0,0,0,1,0,0H144.89525a3.50483,3.50483,0,0,1-3.50483-3.50483V51.68954a3.50483,3.50483,0,0,1,3.50483-3.50483Z" fill="#fff"/><path d="M197.80388,56.53852a.738.738,0,0,1-.738.738H143.81779c-2.03307,0-3.68681-2.233-3.68681-4.9782,0-2.74453,1.65374-4.97753,3.68681-4.97753h53.24809a.738.738,0,0,1,.738.738v.5809a.738.738,0,0,1-.738.738H143.81779c-1.19306,0-2.16349,1.31034-2.16349,2.92063,0,1.611.97043,2.92131,2.16349,2.92131h53.24809a.738.738,0,0,1,.738.738Z" fill="#ffba55"/><path d="M161.28,38.229h51.30419a0,0,0,0,1,0,0V46.3743a0,0,0,0,1,0,0H161.28a3.50483,3.50483,0,0,1-3.50483-3.50483V41.73382A3.50483,3.50483,0,0,1,161.28,38.229Z" fill="#fff"/><path d="M214.18862,46.5828a.738.738,0,0,1-.738.738H160.20254c-2.03308,0-3.68681-2.233-3.68681-4.97819,0-2.74454,1.65373-4.97753,3.68681-4.97753h53.24808a.738.738,0,0,1,.738.738v.5809a.738.738,0,0,1-.738.738H160.20254c-1.19307,0-2.16349,1.31034-2.16349,2.92064,0,1.611.97042,2.9213,2.16349,2.9213h53.24808a.738.738,0,0,1,.738.738Z" fill="#f65b2b"/><path d="M60.18683,68.89489h7.62033a0,0,0,0,1,0,0V84.86172a1.46109,1.46109,0,0,1-1.46109,1.46109H61.64792a1.46109,1.46109,0,0,1-1.46109-1.46109V68.89489A0,0,0,0,1,60.18683,68.89489Z" fill="#935b50"/><path d="M187.479,68.89489h7.62033a0,0,0,0,1,0,0V84.86172a1.46109,1.46109,0,0,1-1.46109,1.46109h-4.69816a1.46109,1.46109,0,0,1-1.46109-1.46109V68.89489A0,0,0,0,1,187.479,68.89489Z" fill="#935b50"/><path d="M215.227,70.60378H46.48366a1.70862,1.70862,0,0,1,0-3.41724H215.227a1.70862,1.70862,0,1,1,0,3.41724Z" fill="#d6694b"/><line x1="105.42694" y1="63.46495" x2="98.35325" y2="63.46496" fill="none" stroke="#fff" stroke-miterlimit="10" stroke-width="0.85431"/><line x1="105.42693" y1="60.04771" x2="98.35325" y2="60.04772" fill="none" stroke="#fff" stroke-miterlimit="10" stroke-width="0.85431"/><line x1="105.42691" y1="29.29255" x2="98.35322" y2="29.29255" fill="none" stroke="#fff" stroke-miterlimit="10" stroke-width="0.85431"/><line x1="105.42691" y1="25.87531" x2="98.35322" y2="25.87531" fill="none" stroke="#fff" stroke-miterlimit="10" stroke-width="0.85431"/><polygon points="192.142 37.298 181.815 37.298 178.335 19.01 195.622 19.01 192.142 37.298" fill="#e19974"/><polygon points="195.225 21.097 195.622 19.01 178.335 19.01 178.732 21.097 195.225 21.097" fill="#d6694b"/><rect x="181.09768" y="28.62857" width="3.08525" height="3.08525" transform="translate(74.82836 -120.30926) rotate(45)" fill="#d6694b"/><rect x="185.46089" y="28.62857" width="3.08525" height="3.08525" transform="translate(76.10632 -123.39452) rotate(45)" fill="#d6694b"/><rect x="189.77385" y="28.62857" width="3.08525" height="3.08525" transform="translate(77.36955 -126.44424) rotate(45)" fill="#d6694b"/><path d="M191.00134,3.61824s.90687,12.81189-4.40839,15.52708C186.593,19.14532,184.75282,14.28789,191.00134,3.61824Z" fill="#558031"/><path d="M173.85,9.12167A18.74359,18.74359,0,0,1,186.593,19.14532S177.03087,15.89764,173.85,9.12167Z" fill="#849f4c"/><path d="M176.93322,25.90353s4.42225-6.61587,9.65973-6.75821C186.593,19.14532,185.80447,24.47231,176.93322,25.90353Z" fill="#a6b862"/><path d="M182.38814,5.44443s6.1359,5.60229,4.20481,13.70089C186.593,19.14532,183.19389,15.54235,182.38814,5.44443Z" fill="#849f4c"/><path d="M186.593,19.14532s2.15577-7.89137,13.05367-9.91493C199.64662,9.23039,197.19411,16.41561,186.593,19.14532Z" fill="#a6b862"/><path d="M202.5335,17.08246s-8.31479-3.42784-15.94055,2.06286C186.593,19.14532,196.73058,20.36243,202.5335,17.08246Z" fill="#849f4c"/><path d="M202.45786,25.06284S198.443,18.632,186.593,19.14532Z" fill="#558031"/><path d="M169.37127,18.10439s10.91991-4.04907,17.36458.84732C186.73585,18.95171,180.61646,22.32234,169.37127,18.10439Z" fill="#558031"/><path d="M178.32586,6.38s9.74389,6.89157,8.34611,12.771C186.672,19.15092,179.912,13.73083,178.32586,6.38Z" fill="#558031"/><path d="M195.41841,26.00476s-8.03273-1.37136-8.82546-6.85944C186.593,19.14532,192.46224,19.436,195.41841,26.00476Z" fill="#849f4c"/><path d="M38.65769,34.83507s14.03452,10.34457,18.62495,9.15925" fill="none" stroke="#8b9d36" stroke-linecap="round" stroke-linejoin="round" stroke-width="1.78757"/><line x1="54.27097" y1="15.1663" x2="56.42861" y2="44.74861" fill="none" stroke="#8b9d36" stroke-linecap="round" stroke-linejoin="round" stroke-width="1.78757"/><path d="M65.50272,45.53457S67.8287,32.41042,80.01,26.72637" fill="none" stroke="#8b9d36" stroke-linecap="round" stroke-linejoin="round" stroke-width="1.78757"/><path d="M64.43511,42.48573c-.72673-1.42324-4.63206-1.42521-7.12586.32337A6.82912,6.82912,0,0,0,54.90732,45.961c-.42461,1.09374-1.1042,2.84385-.16007,4.04085a3.5431,3.5431,0,0,0,3.92314.72719,19.12255,19.12255,0,0,0,3.36279-3.31345C63.47989,45.58389,65.02087,43.633,64.43511,42.48573Z" fill="#5e7c24"/><path d="M67.47775,42.32416c-.27214.71469.2678,1.534,1.281,3.071a14.75471,14.75471,0,0,0,3.52285,3.7177,4.203,4.203,0,0,0,4.96415.56562,4.021,4.021,0,0,0,1.84135-3.39434c-.01651-2.09387-1.80552-3.38951-2.48185-3.87927C73.32977,40.03255,68.13584,40.59663,67.47775,42.32416Z" fill="#5e7c24"/><path d="M77.08546,28.9086c.23869-.40689.85726-.20015,2.24186-.40426a25.78508,25.78508,0,0,0,3.44292-1.05055,13.24993,13.24993,0,0,1,2.9625-.7274c.41962.002,2.79136.01271,3.60279,1.61638.85009,1.68-.72369,3.70214-.80057,3.79838-1.52143,1.90094-4.12079,1.80821-4.96415,1.77795a7.66393,7.66393,0,0,1-5.36442-2.586C78.01656,31.12063,76.67084,29.615,77.08546,28.9086Z" fill="#5e7c24"/><path d="M55.22768,21.06916c-.84509-.42553-.35055-3.12907-.08014-4.60646A27.41976,27.41976,0,0,1,56.66875,11.856c1.40111-3.69139,1.72081-4.08908,2.24186-4.28309A3.35068,3.35068,0,0,1,62.59375,9.27c.92632,1.79242-.49368,4.05838-2.00164,6.46531C59.14387,18.04664,56.32689,21.6225,55.22768,21.06916Z" fill="#5e7c24"/><path d="M54.90732,28.1812c.62161-1.01153-.52213-2.98964-1.68128-4.04085-.973-.8824-1.96863-1.12224-3.68314-1.53548-1.92563-.46411-4.04521-.97492-4.64379-.0809-.57078.85237.5458,2.52684.80079,2.9094a7.07785,7.07785,0,0,0,3.28264,2.50536C50.69336,28.64684,54.10523,29.48627,54.90732,28.1812Z" fill="#c4ce6e"/><path d="M54.98747,36.02042c.0228-.80479-1.1407-.97163-3.52286-2.9094-1.89109-1.53834-1.94495-2.07326-3.04264-2.42446-1.68042-.53755-3.87406-.02565-4.2435,1.05055-.09035.26351-.07754.57811,1.36114,2.9094,1.11919,1.81347,1.69,2.72722,2.24186,3.071a5.26009,5.26009,0,0,0,4.00328.404C52.7897,37.88366,54.95663,37.11109,54.98747,36.02042Z" fill="#5e7c24"/><path d="M55.863,26.7188c-.78471-.88852.00488-3.03573.96762-4.27253.80814-1.03819,1.748-1.44731,3.36658-2.15208,1.81783-.79153,3.81877-1.66274,4.56078-.886.70753.74056-.10706,2.584-.293,3.00507a7.11114,7.11114,0,0,1-2.80677,3.038C60.09353,26.44586,56.87556,27.86516,55.863,26.7188Z" fill="#5e7c24"/><path d="M56.44366,35.07037c-.15961-.78884.95811-1.1552,2.97455-3.4777,1.60075-1.84374,1.56265-2.38,2.58413-2.9166,1.56377-.8213,3.81194-.6979,4.35928.29811.13391.2439.1749.556-.84506,3.10237-.79347,1.98076-1.2,2.98-1.68511,3.41444a5.26783,5.26783,0,0,1-3.87476,1.09309C58.92618,36.52424,56.6599,36.13942,56.44366,35.07037Z" fill="#5e7c24"/><path d="M43.61811,39.253c-.11229-.87692-1.5564-1.361-3.28264-1.93953-1.55966-.52264-2.79787-.93787-4.2435-.48494-.25563.08-2.52963.7923-2.72228,2.50536-.17289,1.53659,1.46648,2.65838,1.60135,2.74783a4.8434,4.8434,0,0,0,3.76307.404C40.98553,42.05253,43.7834,40.54292,43.61811,39.253Z" fill="#5e7c24"/><path d="M50.10347,43.29381c-1.20564-.86026-3.48116.59894-4.56386,1.29324a9.57107,9.57107,0,0,0-2.80221,2.74761c-.834,1.25158-1.62764,2.44288-1.20107,3.47523.61335,1.484,3.26114,1.46183,3.603,1.45459a5.75843,5.75843,0,0,0,3.92314-1.77795,6.12534,6.12534,0,0,0,1.52143-3.071C50.72963,46.74318,51.29325,44.14289,50.10347,43.29381Z" fill="#c4ce6e"/><path d="M40.49554,35.05055c-.67829-.98632-.44068-1.68544-.72064-3.39434-.445-2.7167-1.39177-3.06461-1.04079-4.44489.27627-1.08628,1.21237-2.24579,2.24186-2.26289,1.44194-.02411,2.36957,2.20458,2.562,2.66694.69979,1.68105.44177,3.1466,0,5.65722-.28843,1.639-.50845,2.81229-1.20086,2.9903C41.66773,36.435,40.87085,35.59621,40.49554,35.05055Z" fill="#8b9d36"/><path d="M71.16068,34.80808c.21393-.60529,1.34789-.69693,2.72228-.80808,1.71712-.13877,3.0042-.24291,4.2435.56561.19069.1243,2.19712,1.471,1.84135,3.07119-.278,1.25027-1.83158,1.90621-2.96228,1.93953-1.22692.03617-2.06115-.65747-3.603-1.93953C72.18778,36.62681,70.89722,35.55346,71.16068,34.80808Z" fill="#8b9d36"/><path d="M73.16232,30.20162c-.3082-.07015-.32731-.49941-.72065-1.69728-.879-2.67614-1.567-2.91926-1.44107-4.04084.13944-1.24085,1.1635-2.56214,2.08157-2.50536,1.00083.06182,1.59941,1.744,1.84158,2.42468a5.243,5.243,0,0,1,.32035,2.50536C75.01953,28.62558,73.83062,30.354,73.16232,30.20162Z" fill="#5e7c24"/><path d="M53.306,18.564c-.46718.66251-3.11975-.12211-4.884-1.69728-.45046-.40207-2.44407-2.18221-1.9215-3.87927a1.99925,1.99925,0,0,1,1.60136-1.45459c.748-.01842,1.2343.74143,2.48207,2.586C53.14959,17.91247,53.51078,18.27354,53.306,18.564Z" fill="#8b9d36"/><path d="M67.878,36.42446c-1.34355.36568-3.1015-2.47182-3.52285-3.15187a10.42626,10.42626,0,0,1-1.60136-5.8188c.05756-1.28512.16246-3.62825,1.52121-4.20242,1.30185-.55,3.06285.816,3.92315,1.85864,1.69757,2.057,1.4276,4.71826,1.20107,6.95024C69.22289,33.79918,68.987,36.12258,67.878,36.42446Z" fill="#c4ce6e"/><path d="M68.0728,67.30484H54.87086L50.62366,44.7721a.8956.8956,0,0,1,.87394-1.06581H71.44606A.8956.8956,0,0,1,72.32,44.7721Z" fill="#e19974"/><path d="M72.01316,46.4002l.30689-1.62809a.89559.89559,0,0,0-.87394-1.06581H51.49759a.89559.89559,0,0,0-.87394,1.06581l.30689,1.62809Z" fill="#d6694b"/><polygon points="55.926 60.923 53.137 58.108 55.926 55.293 58.715 58.108 55.926 60.923" fill="#d6694b"/><polygon points="61.504 60.923 58.715 58.108 61.504 55.293 64.293 58.108 61.504 60.923" fill="#d6694b"/><polygon points="67.017 60.923 64.228 58.108 67.017 55.293 69.806 58.108 67.017 60.923" fill="#d6694b"/><path d="M115.24679,40.94739h44.2465a0,0,0,0,1,0,0v6.95719a0,0,0,0,1,0,0h-44.2465a.72314.72314,0,0,1-.72314-.72314V41.67052a.72314.72314,0,0,1,.72314-.72314Z" transform="matrix(-0.13502, 0.99084, -0.99084, -0.13502, 199.52675, -85.32938)" fill="#7ca1b1"/><line x1="143.02827" y1="26.01353" x2="136.13479" y2="25.07416" fill="none" stroke="#fff" stroke-miterlimit="10" stroke-width="0.84024"/><line x1="142.57447" y1="29.34372" x2="135.68099" y2="28.40435" fill="none" stroke="#fff" stroke-miterlimit="10" stroke-width="0.84024"/><line x1="138.49024" y1="59.31535" x2="131.59677" y2="58.37598" fill="none" stroke="#fff" stroke-miterlimit="10" stroke-width="0.84024"/><line x1="138.03644" y1="62.64553" x2="131.14296" y2="61.70616" fill="none" stroke="#fff" stroke-miterlimit="10" stroke-width="0.84024"/><path d="M121.16156,22.92808l0,44.2465h-6.95719l0-44.2465a.72314.72314,0,0,1,.72313-.72314h5.51092A.72313.72313,0,0,1,121.16156,22.92808Z" fill="#f65b2b"/><rect x="114.2048" y="63.32665" width="6.95703" height="0.83984" fill="#fff"/><rect x="114.2048" y="59.96532" width="6.95703" height="0.83984" fill="#fff"/><rect x="114.2048" y="29.71727" width="6.95703" height="0.83984" fill="#fff"/><rect x="114.2048" y="26.35595" width="6.95703" height="0.83984" fill="#fff"/><path d="M121.15314,67.17458V24.94466a.72314.72314,0,0,1,.72314-.72314h7.9308a.72314.72314,0,0,1,.72314.72314V67.17458Z" fill="#ffba55"/><rect x="121.15305" y="61.89012" width="9.37695" height="0.83984" fill="#fff"/><rect x="115.80922" y="33.64901" width="20.06493" height="6.04973" transform="translate(162.51556 -89.16781) rotate(90)" fill="#fff"/><path d="M97.8829,22.92808l0,44.2465h6.95719l0-44.2465a.72314.72314,0,0,0-.72314-.72314H98.606A.72313.72313,0,0,0,97.8829,22.92808Z" fill="#ffba55"/><rect x="97.88254" y="63.32665" width="6.95801" height="0.83984" fill="#fff"/><rect x="97.88254" y="59.96532" width="6.95801" height="0.83984" fill="#fff"/><rect x="97.88254" y="29.71727" width="6.95801" height="0.83984" fill="#fff"/><rect x="97.88254" y="26.35595" width="6.95801" height="0.83984" fill="#fff"/><path d="M97.89131,67.17458V24.94466a.72313.72313,0,0,0-.72313-.72314h-7.9308a.72314.72314,0,0,0-.72314.72314V67.17458Z" fill="#f65b2b"/><rect x="88.51438" y="61.89012" width="9.37695" height="0.83984" fill="#fff"/><rect x="83.17031" y="33.64901" width="20.06493" height="6.04973" transform="translate(129.87665 -56.5289) rotate(90)" fill="#fff"/><path d="M88.76884,41.00951h42.22992a0,0,0,0,1,0,0v9.37708a0,0,0,0,1,0,0H88.76884a.72314.72314,0,0,1-.72314-.72314v-7.9308a.72314.72314,0,0,1,.72314-.72314Z" transform="translate(155.22028 -63.82418) rotate(90)" fill="#7ca1b1"/><line x1="104.83369" y1="62.30959" x2="114.21077" y2="62.30959" fill="none" stroke="#fff" stroke-miterlimit="10" stroke-width="0.84024"/><rect x="99.48977" y="33.64901" width="20.06493" height="6.04973" transform="translate(146.19611 -72.84835) rotate(90)" fill="#fff"/><polygon points="27.036 353.019 27.036 253.577 29.731 253.577 29.731 250.825 27.036 250.825 27.036 243.255 24.169 243.255 24.169 250.825 21.473 250.825 21.473 253.577 24.169 253.577 24.169 353.019 9.602 353.019 9.602 357.148 41.602 357.148 41.602 353.019 27.036 353.019" fill="#ffba55"/><path d="M39.54953,236.20555a.49861.49861,0,0,1-.41894-.22753q-.249-.38233-.51172-.77149a.5.5,0,0,1,.82812-.56055c.17871.26465.35156.52637.52149.78711a.5001.5001,0,0,1-.419.77246Z" fill="#f65b2b"/><path d="M44.74484,292.80712a.50157.50157,0,0,1-.39843-.19727c-.38086-.50293-.74512-1.02637-1.082-1.55566a.5001.5001,0,0,1,.84375-.53711c.32226.50683.66992,1.00781,1.03515,1.4873a.49991.49991,0,0,1-.39844.80274Zm-1.98242-3.127a.50075.50075,0,0,1-.44336-.26855q-.15087-.28857-.2959-.59082c-.16113-.33594-.332-.71192-.50293-1.13965a.50051.50051,0,0,1,.92969-.37109c.16113.40429.32227.76074.47363,1.07617.09278.19043.18555.37793.28223.5625a.4999.4999,0,0,1-.44336.73144Zm-1.37207-3.4375a.50016.50016,0,0,1-.48144-.36523c-.166-.5957-.31055-1.2168-.42774-1.84863a.49945.49945,0,0,1,.39942-.583.50573.50573,0,0,1,.583.39941c.11231.60352.25,1.19629.40821,1.7627a.50009.50009,0,0,1-.48145.63476Zm-.68847-3.63867a.49973.49973,0,0,1-.4961-.44629c-.06348-.584-.11426-1.209-.14648-1.87695a.49864.49864,0,0,1,.47461-.52344.48313.48313,0,0,1,.52343.47461c.03223.64649.08106,1.252.14258,1.81836a.50029.50029,0,0,1-.498.55371Zm-.1836-3.70117h-.00195a.50035.50035,0,0,1-.49805-.502q.00292-.89357.04688-1.874a.48308.48308,0,0,1,.52148-.47656.49853.49853,0,0,1,.47656.52149q-.04248.96093-.04492,1.833A.49993.49993,0,0,1,40.51828,278.90282Zm.165-3.70215c-.01465,0-.02832-.001-.042-.002a.49933.49933,0,0,1-.457-.53906q.07325-.89649.18359-1.86133a.51441.51441,0,0,1,.55371-.44043.501.501,0,0,1,.44043.55371c-.07324.63379-.13281,1.24219-.18164,1.83008A.49951.49951,0,0,1,40.68332,275.20067Zm.4209-3.68359a.59829.59829,0,0,1-.07129-.00488.50005.50005,0,0,1-.4248-.56543q.13915-.97852.291-1.84571a.49083.49083,0,0,1,.57813-.40625.499.499,0,0,1,.40625.57813c-.09864.56933-.19434,1.17187-.28516,1.81445A.49994.49994,0,0,1,41.10422,271.51708Zm.63476-3.64942a.45752.45752,0,0,1-.10253-.01074.49869.49869,0,0,1-.3877-.59082c.13574-.6582.27734-1.26367.4209-1.82617a.49976.49976,0,1,1,.96875.24609c-.13965.54883-.27735,1.14063-.41113,1.78321A.49939.49939,0,0,1,41.739,267.86766Zm.915-3.58789a.4767.4767,0,0,1-.14648-.02246.49834.49834,0,0,1-.33106-.624c.19825-.64746.39551-1.23145.5879-1.77734a.50036.50036,0,1,1,.94335.334c-.18847.53223-.38183,1.10449-.57617,1.73633A.49975.49975,0,0,1,42.654,264.27977Zm1.21485-3.49609a.49972.49972,0,0,1-.46973-.67188c.21387-.582.41309-1.14355.58984-1.7246a.50015.50015,0,0,1,.957.291c-.18262.59863-.3877,1.17774-.60743,1.77734A.49937.49937,0,0,1,43.86887,260.78368Zm1.04785-3.54395a.52945.52945,0,0,1-.0957-.00878.50115.50115,0,0,1-.39649-.58594,17.86976,17.86976,0,0,0,.25-1.78321.51618.51618,0,0,1,.544-.45214.50042.50042,0,0,1,.45215.54394c-.06153.66309-.14747,1.27832-.26368,1.88086A.50074.50074,0,0,1,44.91672,257.23973Zm.34961-3.68164h-.00488a.50035.50035,0,0,1-.49512-.50488l.00195-.27441c0-.49219-.01562-1.00586-.05078-1.541a.50039.50039,0,0,1,.46582-.53223.48315.48315,0,0,1,.53223.46582c.03711.5586.05273,1.09375.05273,1.60743l-.00195.28418A.50057.50057,0,0,1,45.26633,253.55809Zm-.24121-3.69629a.49993.49993,0,0,1-.49414-.43066c-.08106-.57715-.18555-1.1748-.31739-1.791a.5007.5007,0,0,1,.38477-.59375.508.508,0,0,1,.59375.38477c.13574.6416.24414,1.26074.3291,1.86133a.5.5,0,0,1-.42578.56445A.56715.56715,0,0,1,45.02512,249.8618Zm-.76856-3.625a.50127.50127,0,0,1-.48144-.36328q-.24024-.8496-.55078-1.73828a.5.5,0,0,1,.94336-.332c.21582.61426.40429,1.21289.57031,1.79688a.50136.50136,0,0,1-.34473.61816A.51179.51179,0,0,1,44.25656,246.2368Zm-1.22265-3.49707a.50018.50018,0,0,1-.46192-.30859q-.33984-.81738-.74414-1.66894a.49972.49972,0,0,1,.90235-.42969q.41748.87451.76562,1.71582a.50072.50072,0,0,1-.27051.65332A.48857.48857,0,0,1,43.03391,242.73973Zm-1.59375-3.34668a.49946.49946,0,0,1-.44043-.26367q-.42187-.78369-.90137-1.59472a.4996.4996,0,0,1,.85937-.50977q.4922.82764.92286,1.63184a.50012.50012,0,0,1-.44043.73632Z" fill="#f65b2b"/><path d="M46.60227,294.95262a.49994.49994,0,0,1-.35743-.15039c-.20507-.21-.4248-.4414-.65234-.69238a.49984.49984,0,1,1,.74023-.67187c.21973.24121.42969.46289.627.665a.5.5,0,0,1-.35742.8496Z" fill="#f65b2b"/><rect x="1" y="211.53426" width="49.20446" height="33.72054" fill="#7ca1b1"/><line x1="1" y1="357.14754" x2="501" y2="357.14754" fill="none" stroke="#935b50" stroke-linecap="round" stroke-linejoin="round" stroke-width="2"/></g></g></svg>