<svg id="Layer_1" data-name="Layer 1" xmlns="http://www.w3.org/2000/svg" viewBox="0 0 700 550"><title>man searching for location</title><path d="M266.558,450.09678c-14.83684-4.63822-28.1489-9.37688-44.16355-18.37028-16.51682-9.27644-89.88839-53.42173-99.42962-129.82458a145.73453,145.73453,0,0,1,6.08082-62.23253c2.94911-8.64645,9.06645-26.0124,24.50589-43.1866,18.89984-21.03635,40.46575-29.18976,53.1113-33.80059a153.24684,153.24684,0,0,1,59.5482-8.84732c11.46773.37434,31.70974,1.21434,54.71825,11.26686,15.01031,6.5556,24.34153,14.03336,38.09186,25.20892,21.785,17.722,24.652,25.09936,62.76209,61.69384,10.46339,10.0434,19.06419,17.95942,32.19364,25.75675,9.103,5.40517,16.462,8.42732,30.03889,13.94206,33.37146,13.55858,42.873,16.30386,53.79295,23.93684,21.23721,14.8551,19.86166,31.05531,20.77469,34.54311a68.59361,68.59361,0,0,1,1.61608,27.36369c-2.78476,18.32463-12.65468,30.30366-18.78115,37.55317a103.26286,103.26286,0,0,1-30.03889,24.14067,191.96233,191.96233,0,0,1-24.61544,10.856Z" fill="#ffe3cb"/><path d="M219.4532,437.14551c-21.916-12.31348-94.17285-58.47949-103.79394-135.57227a152.77875,152.77875,0,0,1,6.35449-65.02539c2.73633-8.02539,9.14453-26.81836,25.61035-45.14062,20.167-22.43946,43.15528-30.82422,55.50488-35.32813a159.83154,159.83154,0,0,1,62.19825-9.24805c10.59277.34375,32.63379,1.06055,57.166,11.77344l-.36523.83594c-24.37207-10.6416-45.48633-11.32813-56.83008-11.69727a158.93184,158.93184,0,0,0-61.85645,9.19336c-12.27539,4.47754-35.123,12.81055-55.13769,35.08008-16.3418,18.1836-22.708,36.85352-25.42676,44.82617A151.834,151.834,0,0,0,116.56551,301.46c9.56836,76.669,81.51269,122.62891,103.335,134.88867Z" fill="#ffe3cb"/><rect x="352.38344" y="114.10048" width="144.00419" height="109.28889" rx="6.54781" fill="#e5e1e5"/><rect x="352.38387" y="127.08887" width="144.00391" height="0.5957" fill="#a2aee6"/><path d="M360.52654,124.06505c3.44716,0,3.45287-5.3573,0-5.3573-3.44717,0-3.45288,5.3573,0,5.3573Z" fill="#ffba55"/><path d="M369.45537,124.06505c3.44717,0,3.45288-5.3573,0-5.3573-3.44717,0-3.45288,5.3573,0,5.3573Z" fill="#f73c4f"/><path d="M377.789,124.06505c3.44716,0,3.45287-5.3573,0-5.3573-3.44717,0-3.45288,5.3573,0,5.3573Z" fill="#4f66d0"/><rect x="360.52654" y="136.38684" width="126.43225" height="29.57229" fill="#a2aee6"/><path d="M357.95516,218.544a.29785.29785,0,0,1-.22071-.49805l1.20118-1.32129a.298.298,0,1,1,.4414.40039l-1.20117,1.32129A.29966.29966,0,0,1,357.95516,218.544Z" fill="#a2aee6"/><path d="M361.60262,214.53125a.29284.29284,0,0,1-.2002-.07812.29593.29593,0,0,1-.01953-.41993l1.81445-1.99511a6.67364,6.67364,0,0,1,.71192-.67774.29772.29772,0,0,1,.37695.46094,6.05,6.05,0,0,0-.64844.61719l-1.81543,1.99511A.296.296,0,0,1,361.60262,214.53125Zm45.40429-.48926a.29787.29787,0,0,1-.00488-.5957,6.23378,6.23378,0,0,0,3.28125-.98828.29743.29743,0,0,1,.32227.5,6.82989,6.82989,0,0,1-3.59375,1.084Zm-29.47168-.86816a6.80431,6.80431,0,0,1-2.64257-.53125l-.71192-.29785a.29763.29763,0,1,1,.23047-.54883l.71192.29785a6.33484,6.33484,0,0,0,2.66992.47949l.01269-.001a.2975.2975,0,0,1,.0127.59472C377.72371,213.17188,377.629,213.17383,377.53523,213.17383Zm26.00489-.0625a.29639.29639,0,0,1-.15235-.042,6.83292,6.83292,0,0,1-.69629-.47852l-2.23046-1.74219a.29772.29772,0,1,1,.36718-.46875l2.23047,1.74219a6.13929,6.13929,0,0,0,.63379.43555.29783.29783,0,0,1-.15234.55371Zm-22.29883-1.02051a.29772.29772,0,0,1-.13381-.56348l3.249-1.63574a.29742.29742,0,1,1,.26758.53125l-3.249,1.63574A.29962.29962,0,0,1,381.24129,212.09082Zm-10.29981-1.12793a.29526.29526,0,0,1-.11425-.02344l-.15039-.0625a6.27128,6.27128,0,0,0-3.25-.42968.29174.29174,0,0,1-.335-.25489.29747.29747,0,0,1,.25488-.335,6.83478,6.83478,0,0,1,3.55957.47071l.14941.0625a.29764.29764,0,0,1-.11426.57226Zm42.09864-.48535a.29785.29785,0,0,1-.22071-.49805l2.44239-2.69531a.298.298,0,1,1,.4414.40039l-2.44238,2.69531A.29805.29805,0,0,1,413.04012,210.47754Zm-25.30176-1.65918a.29772.29772,0,0,1-.13379-.56348l2.51172-1.26465a6.79929,6.79929,0,0,1,.792-.33886.29744.29744,0,1,1,.1992.56054,6.297,6.297,0,0,0-.72361.30957l-2.51172,1.26465A.29962.29962,0,0,1,387.73836,208.81836Zm10.041-.14551a.29535.29535,0,0,1-.1836-.06347l-.55273-.43165a6.28612,6.28612,0,0,0-2.51563-1.18066.29807.29807,0,0,1-.22754-.35449.2931.2931,0,0,1,.3545-.22754,6.87185,6.87185,0,0,1,2.75585,1.29394l.55274.43165a.29783.29783,0,0,1-.18359.53222Zm20.1455-3.58594a.29784.29784,0,0,1-.2207-.498l.22559-.249a6.86273,6.86273,0,0,1,2.85058-1.87793.2974.2974,0,0,1,.19336.5625,6.26935,6.26935,0,0,0-2.60254,1.71582l-.22558.249A.2981.2981,0,0,1,417.92488,205.08691Zm23.93555-2.40039h-2.83691a.29785.29785,0,1,1,0-.5957h2.83691a6.159,6.159,0,0,0,.76172-.04687.30734.30734,0,0,1,.332.25976.29915.29915,0,0,1-.25977.332A7.01354,7.01354,0,0,1,441.86043,202.68652Zm-6.47461,0H431.7491a.29785.29785,0,0,1,0-.5957h3.63672a.29785.29785,0,0,1,0,.5957Zm-7.27344,0h-3.63769a.29785.29785,0,0,1,0-.5957h3.63769a.29785.29785,0,0,1,0,.5957Zm17.85254-1.44726a.29778.29778,0,0,1-.18652-.5293,6.35578,6.35578,0,0,0,.91406-.90527l1.4502-1.76758a.29772.29772,0,0,1,.46093.37695l-1.45117,1.76856a6.95134,6.95134,0,0,1-1.001.99023A.29309.29309,0,0,1,445.96492,201.23926Zm4.71485-5.52735a.29787.29787,0,0,1-.23047-.48632l2.30761-2.81153a.29773.29773,0,0,1,.46094.377l-2.30762,2.81152A.29748.29748,0,0,1,450.67977,195.71191Zm24.78222-4.53515a.29781.29781,0,0,1-.041-.59278,6.24212,6.24212,0,0,0,3.13379-1.38769.29746.29746,0,0,1,.38086.457,6.841,6.841,0,0,1-3.43262,1.52051A.2902.2902,0,0,1,475.462,191.17676Zm-3.5625-.48047a.30311.30311,0,0,1-.10058-.01758l-3.42578-1.22363a.29778.29778,0,1,1,.20117-.56055l3.42578,1.22363a.29783.29783,0,0,1-.10059.57813Zm-16.60547-.60742a.29788.29788,0,0,1-.23047-.48633l.45411-.55371a6.81148,6.81148,0,0,1,2.39062-1.85938.29752.29752,0,1,1,.252.53907,6.22749,6.22749,0,0,0-2.18164,1.69726l-.4541.55371A.29747.29747,0,0,1,455.294,190.08887Zm9.75489-1.83887a.30312.30312,0,0,1-.10059-.01758l-2.03613-.72754a6.31478,6.31478,0,0,0-1.36719-.32129.298.298,0,0,1,.07031-.59179,6.91274,6.91274,0,0,1,1.49707.35254l2.03711.72754a.29782.29782,0,0,1-.10058.57812Zm16.09472-1.25293a.29789.29789,0,0,1-.22949-.4873l2.31934-2.80176a.29759.29759,0,1,1,.459.3789l-2.31933,2.80176A.29769.29769,0,0,1,481.14363,186.99707Z" fill="#a2aee6"/><path d="M485.82039,181.34766a.2979.2979,0,0,1-.22949-.48731l1.13867-1.376a.29759.29759,0,1,1,.459.3789l-1.13867,1.376A.2962.2962,0,0,1,485.82039,181.34766Z" fill="#a2aee6"/><rect x="360.52645" y="173.37598" width="55.28711" height="0.5957" fill="#a2aee6"/><rect x="360.52645" y="182.37598" width="55.28711" height="0.5957" fill="#a2aee6"/><rect x="360.52645" y="191.37598" width="55.28711" height="0.5957" fill="#a2aee6"/><circle cx="486.23993" cy="172.90341" r="3.6884" fill="#fff"/><path d="M486.24716,167.33324a5.323,5.323,0,0,0-5.32329,5.32329c0,2.34436,3.38384,7.4927,4.75619,9.48362a.64594.64594,0,0,0,1.13421,0c1.37093-1.99092,4.75618-7.13926,4.75618-9.48362a5.323,5.323,0,0,0-5.32329-5.32329Zm0,2.48419a2.83909,2.83909,0,1,1-2.83909,2.8391,2.83922,2.83922,0,0,1,2.83909-2.8391Zm0,0" fill="#f73c4f"/><circle cx="417.12638" cy="149.17135" r="3.6884" fill="#fff"/><path d="M417.13362,143.60118a5.323,5.323,0,0,0-5.32329,5.32329c0,2.34437,3.38384,7.49271,4.75618,9.48362a.64594.64594,0,0,0,1.13421,0c1.37093-1.99091,4.75619-7.13925,4.75619-9.48362a5.323,5.323,0,0,0-5.32329-5.32329Zm0,2.48419a2.83909,2.83909,0,1,1-2.83909,2.8391,2.83922,2.83922,0,0,1,2.83909-2.8391Zm0,0" fill="#f73c4f"/><path d="M349.65978,423.80715l4.18513,17.7375s10.51017-.24125,12.07419-12.92677l-3.584-10.05031Z" fill="#f9977a"/><path d="M239.44359,407.71461,225.44245,419.3809s4.90979,9.296,16.9584,5.02991l7.39168-7.69523Z" fill="#f9977a"/><path d="M279.58739,275.38092l-9.97945,80.17395-35.01268,55.30987,11.67089,11.16346L290.383,370.87146a21.84919,21.84919,0,0,0,4.77732-9.50539l9.46031-42.34617L348.767,427.1025l15.73034-6.59659L347.24473,345.9137l-21.14291-70.53278Z" fill="#f73c4f"/><polygon points="298.429 275.381 307.583 295.289 316.652 315.236 334.648 355.192 334.658 355.215 334.666 355.239 345.837 389.456 351.328 406.595 356.716 423.769 350.846 406.754 345.08 389.705 333.734 355.545 333.752 355.592 315.978 315.537 307.161 295.478 298.429 275.381" fill="#b02336"/><circle cx="368.18766" cy="175.55767" r="7.32475" fill="#fff"/><path d="M311.431,198.97968c3.72321,7.629,17.05591,16.48763,19.9943,8.52339l-1.09246-7.07678a14.39128,14.39128,0,0,1,1.45912-8.95245c.27515-.51748.49934-.85342.608-.82926,1.76436.39219,5.43536.81516,4.54678-2.74563a3.0925,3.0925,0,0,1,1.207-2.49393.87248.87248,0,0,0,.06222-1.34247,8.89657,8.89657,0,0,1-2.3234-2.89214.617.617,0,0,1,.70693-.82985l3.40391.75592a.497.497,0,0,0,.6043-.50531l-.01851-.456a.53006.53006,0,0,1,.51727-.55143l1.19913-.028a1.26051,1.26051,0,0,0,1.17616-1.62834l-1.4165-4.63831a3.43306,3.43306,0,0,1,.09892-2.31054c1.01555-2.45348,2.88322-1.39362,2.20393-6.97769,0,0-5.00776-7.22691-18.226-.68756,0,0,.60251-.46451-5.79636,3.78505,0,0-2.48868,1.56787-2.11471,7.88938,0,0-9.12642,15.19945-10.51208,16.38587Z" fill="#f9977a"/><path d="M335.0237,170.21853a.48858.48858,0,0,1-.2189-.93438,18.66662,18.66662,0,0,1,7.82857-1.40623.48859.48859,0,0,1,.45928.51614.4837.4837,0,0,1-.51614.45928,18.05558,18.05558,0,0,0-7.37425,1.32357A.48848.48848,0,0,1,335.0237,170.21853Z"/><path d="M337.41048,171.56891a3.55337,3.55337,0,0,1,1.90686-.68976,3.91348,3.91348,0,0,1,1.03046.092,2.4488,2.4488,0,0,1,.92877.4408c-.34674-.02146-.661-.0694-.98163-.06876a6.49672,6.49672,0,0,0-.94666.02289C338.71242,171.38144,338.09194,171.50616,337.41048,171.56891Z" fill="#350500"/><ellipse cx="339.78953" cy="172.1791" rx="0.61556" ry="1.07456" transform="translate(-6.70422 13.92409) rotate(-2.32464)" fill="#050505"/><path d="M319.88864,170.25321a6.44548,6.44548,0,0,1,2.24923-.28708,2.3638,2.3638,0,0,1,1,.34468,4.2042,4.2042,0,0,1,.8602.75889,2.08431,2.08431,0,0,0-1.80372-1.58854,3.086,3.086,0,0,0-2.30571.77205Z" fill="#dd765e"/><path d="M320.04233,174.03909a3.23856,3.23856,0,0,0,1.08773-.70512,3.94834,3.94834,0,0,0,.78683-1.05429,4.78241,4.78241,0,0,0,.25174-.615,3.70769,3.70769,0,0,0,.12251-.652,3.04856,3.04856,0,0,0-.13576-1.29169,10.039,10.039,0,0,1-.239,1.22275,5.26866,5.26866,0,0,1-.43441,1.11406A8.69216,8.69216,0,0,1,320.04233,174.03909Z" fill="#dd765e"/><path d="M314.3401,180.61671c-3.01852-.96072-3.52945-6.04233-4.02618-10.98264a23.81673,23.81673,0,0,1,.91241-10.894c.911-2.62945,1.79332-5.17588,4.3781-7.256,3.59125-2.89006,8.08094-2.9582,11.66184-3.01256,4.00825-.06083,7.2122-.10946,10.04053,1.81381,2.99786,2.03855,3.86116,1.82438,5.59427,4.58637.59742.95208,3.29745,1.48842,4.70616,2.5959.28086.22081,1.91,1.5016,1.65866,2.45746-.10839.41215-1.2557,3.80081-7.77811,4.17355-3.76509.21518-4.90768-.35461-6.75052.294-4.05893,1.42859-6.15227-.13525-7.0321-.04658-1.059.10675-.13144,1.584.263,3.94247a24.40553,24.40553,0,0,1,.25992,5.36848c-.1247,2.814-.61437,3.41957-.28183,5.46728a6.35734,6.35734,0,0,0,1.2567,3.38135c1.10207,1.321,2.657,1.78368,4.789,2.38986,3.70181,1.05248,4.0731-.02725,4.44434.86972.37146.89746-.57916,3.7861-1.566,4.42513-2.72607,1.76522-5.60574.26577-7.66329-.1583-2.77859-.57268-8.5891-3.84418-8.28553-7.30584.16312-1.86006,1.94978-6.49853,3.05156-9.21837a4.49967,4.49967,0,0,0-.92727-4.90648,2.10457,2.10457,0,0,0-1.10835-.63615,2.85518,2.85518,0,0,0-2.61458,1.206c-.14792.22153-.61982,1.0158.17327,3.579C320.33154,175.45005,316.96772,181.453,314.3401,180.61671Z"/><path d="M341.08112,181.52346a.97989.97989,0,0,1-.24942-.02211l-4.01073-.87857a3.748,3.748,0,0,1-2.30224-1.55387.97709.97709,0,1,1,1.61406-1.10166,1.80107,1.80107,0,0,0,1.10633.74676l4.01072.87858a.97719.97719,0,0,1-.16872,1.93087Z"/><path d="M351.65746,432.14271s-3.2582,13.577,3.29447,17.18976a4.04084,4.04084,0,0,0,2.83751.42815l36.04239-18.02774a1.31238,1.31238,0,0,0,.57895-1.86716,9.02811,9.02811,0,0,0-7.79755-4.81975c-6.1164.04446-9.42959,5.5625-21.23451,2.05653C365.37872,427.1025,357.26412,435.38435,351.65746,432.14271Z" fill="#935b50"/><path d="M232.8777,413.22473s-12.70813,2.70178-13.01411,10.17815a2.5014,2.5014,0,0,0,.93459,2.03615l17.00462,24.44612s16.19818.9949,16.20581.21163c.11365-11.66551-6.64286-7.51684-9.32861-12.63134-.89525-1.70484-.09845-9.767-.63228-12.799C244.04772,424.66641,232.4813,419.68891,232.8777,413.22473Z" fill="#935b50"/><path d="M310.0332,188.61038s11.91015,4.17721,20.245,7.6467l.57659.67456a20.84778,20.84778,0,0,1,3.73022,16.61382l-3.23972,15.99761L343.01615,212.967l9.81032,7.27317-14.781,30.71a9.6885,9.6885,0,0,1-8.73,5.48671h0l-3.21372,18.94406H279.58739s-2.368-3.04458,5.24345-23.68007C284.83084,251.70085,292.104,209.92244,310.0332,188.61038Z" fill="#ffba55"/><path d="M331.34526,229.54307,343.01615,212.967l9.81032,7.27317-14.781,30.71a9.6885,9.6885,0,0,1-8.73,5.48671h0Z" fill="#ffba55"/><path d="M310.0332,188.61038l-10.624,5.61851c-8.05738,4.26114-11.44552,11.45823-13.05606,20.42957l-3.89169,15.082a38.88075,38.88075,0,0,0,1.6579,24.42673l12.88982,31.53145,15.73033-6.2583-13.86975-37.54983,7.4423-30.78408" fill="#ffba55"/><path d="M298.75994,285.00212l3.37116,7.22554c.2689,1.533,4.2,2.98673,5.65285,2.48267,3.25605-1.12964,6.37944-4.63145,6.49257-5.5864l-1.537-1.73383s6.93488,1.35314,7.44231.16914c0,0,.98673-1.11842-2.18993-1.651a11.98369,11.98369,0,0,1-5.22335-2.25972c-1.29357-.97607-2.48445-2.15941-2.51-3.22113Z" fill="#f9977a"/><path d="M279.2491,358.59946l-2.353-1.08121c-.78034-.35016-1.55817-.69629-2.35254-.98694a16.74257,16.74257,0,0,0-2.40827-.75329,8.56632,8.56632,0,0,0-2.5274-.22315,5.299,5.299,0,0,1,2.61474-.31982,9.98739,9.98739,0,0,1,2.57129.63791A14.07135,14.07135,0,0,1,279.2491,358.59946Z" fill="#b02336"/><path d="M279.58742,275.38092a29.887,29.887,0,0,0,1.81793,9.04724,33.2234,33.2234,0,0,0,4.26557,8.14295c.40856.65127.94751,1.2073,1.4143,1.81552l.72534.89386c.24884.29162.53284.5524.79737.83008l1.614,1.64172,1.75635,1.49032.87567.74866c.30432.23371.627.44382.93964.667l1.89032,1.32151c1.292.83178,2.66638,1.53528,3.99615,2.31057l.11456.06681.03418.102,2.43421,7.26693c.79846,2.42685,1.59283,4.85517,2.3576,7.29383-.92663-2.38187-1.82373-4.77414-2.71667-7.16782l-2.64008-7.19473.1485.16849c-1.35553-.77124-2.75537-1.47165-4.07568-2.30353l-1.93451-1.32419c-.32013-.22391-.65021-.43478-.96222-.66965l-.8996-.75317-1.79431-1.51337-1.63055-1.69009c-.267-.2858-.553-.55451-.80408-.85434l-.73145-.91861c-.47058-.62482-1.01239-1.197-1.42346-1.86487a30.68079,30.68079,0,0,1-4.15564-8.36847A26.95859,26.95859,0,0,1,279.58742,275.38092Z" fill="#b02336"/><path d="M318.8365,309.31628a12.28632,12.28632,0,0,0,1.76062-.83462,11.73668,11.73668,0,0,0,1.61219-1.0419,9.23376,9.23376,0,0,0,2.47717-2.80884,8.41783,8.41783,0,0,0,1.07385-3.57236l.05823-.47451-.01135-.4787-.02344-.9639c-.03833-.644-.16663-1.28073-.21655-1.941.20434.61929.40265,1.25174.55908,1.89584l.12555.98886.0603.49768-.01038.50229a7.67054,7.67054,0,0,1-1.00225,3.89267,8.24713,8.24713,0,0,1-2.77991,2.90351A9.74449,9.74449,0,0,1,318.8365,309.31628Z" fill="#b02336"/><path d="M343.85924,213.59207l3.09955-7.01511a6.00762,6.00762,0,0,1,1.5459-2.09917l4.95606-4.32338s2.79087-1.26857,6.85031,2.15658c0,0-.21961,2.409-5.9282,1.14041l.09275,2.4116,5.83545-.50743,3.80572.12686s4.82059-3.42515,5.70859-3.42515c0,0,5.83545.38057-4.94744,5.83544l-2.36743,3.84708a5.77748,5.77748,0,0,1-4.92043,2.74951h-3.74874l-2.31808,4.7847Z" fill="#f9977a"/><polygon points="354.349 210.81 352.826 208.781 374.9 197.998 375.788 199.925 354.349 210.81" fill="#1b2e35"/><path d="M359.7141,214.08355l-4.97651-.85715a.92671.92671,0,0,1-.76941-.91326h0a.92672.92672,0,0,1,.99274-.92436l6.11128.43652-4.17054-1.09228a1.17893,1.17893,0,0,1-.83723-1.456h0a1.17893,1.17893,0,0,1,1.44609-.82187l4.196,1.14422-3.25415-1.97024a1.0093,1.0093,0,0,1-.3654-1.34287h0a1.0093,1.0093,0,0,1,1.24123-.466l5.54976,2.07251" fill="#f9977a"/><path d="M359.714,214.27148a.17914.17914,0,0,1-.03223-.00293l-4.97656-.85742a1.11353,1.11353,0,0,1-.56934-1.91308,1.1,1.1,0,0,1,.83887-.2959l4.0957.292-2.2168-.58008a1.36661,1.36661,0,0,1-.96972-1.68652,1.37109,1.37109,0,0,1,1.67578-.95313l2.90625.793-2.11035-1.27832a1.196,1.196,0,0,1,1.03808-2.14355l5.54981,2.07129a.18756.18756,0,0,1-.13086.35156l-5.54981-2.07324a.82238.82238,0,0,0-.71386,1.47363l3.2539,1.9707a.18735.18735,0,0,1,.0752.23438.19177.19177,0,0,1-.22071.10644l-4.19531-1.14453a.99436.99436,0,0,0-1.21679.69141.99171.99171,0,0,0,.7041,1.22558l4.1709,1.0918a.18724.18724,0,0,1,.13671.21094.17666.17666,0,0,1-.19824.15625l-6.11133-.43652a.73968.73968,0,0,0-.17773,1.46679l4.97656.85742a.18744.18744,0,0,1-.03222.37207Z" fill="#dd765e"/><polyline points="284.119 254.167 297.009 285.699 312.739 279.44 298.87 241.891 306.312 211.106" fill="#ffba55"/><polygon points="284.119 254.167 290.735 269.863 297.279 285.588 296.902 285.428 312.617 279.133 312.429 279.555 305.493 260.781 298.61 241.987 298.58 241.906 298.6 241.825 302.419 226.457 306.312 211.106 302.763 226.54 299.139 241.956 299.13 241.795 306.117 260.55 313.049 279.326 313.161 279.629 312.862 279.747 297.117 285.969 296.847 286.076 296.74 285.809 290.394 270.003 284.119 254.167" fill="#e6952a"/><path d="M344.18385,358.57947a9.95921,9.95921,0,0,1-3.91125-1.22159,6.47978,6.47978,0,0,1-2.8761-3.0336,6.379,6.379,0,0,1-.21442-4.17453,17.98729,17.98729,0,0,1,.71851-1.94177c.35986-.58811.6966-1.18222,1.06958-1.74784-.234.6445-.50421,1.26047-.7514,1.88248a18.66123,18.66123,0,0,0-.50708,1.923,6.57015,6.57015,0,0,0,.33081,3.778,6.69643,6.69643,0,0,0,2.51281,2.85467,10.14841,10.14841,0,0,0,1.74158.95725A13.26212,13.26212,0,0,0,344.18385,358.57947Z" fill="#b02336"/><path d="M331.34523,229.54306c-.02417,2.25211-.12543,4.49838-.23834,6.74377-.11127,2.24552-.28577,4.48627-.42554,6.72962-.19665,2.23907-.363,4.48044-.58807,6.71738-.22577,2.23687-.46253,4.4729-.77771,6.703.02307-2.25217.12457-4.49841.23712-6.74384.11316-2.24539.2851-4.48632.42676-6.72955.19848-2.23892.3623-4.48047.58935-6.71725C330.79415,234.00931,331.03121,231.77328,331.34523,229.54306Z" fill="#e6952a"/><path d="M368.202,164.49594a10.57079,10.57079,0,0,0-10.57146,10.57146c0,4.65564,6.71993,14.87966,9.44525,18.8334a1.28277,1.28277,0,0,0,2.25242,0c2.72251-3.95374,9.44525-14.17776,9.44525-18.8334A10.5708,10.5708,0,0,0,368.202,164.49594Zm0,4.93333a5.63811,5.63811,0,1,1-5.63811,5.63813,5.63836,5.63836,0,0,1,5.63811-5.63813Zm0,0" fill="#f73c4f"/><path d="M303.70784,293.92728a5.84883,5.84883,0,0,0,2.57758.66793,5.44118,5.44118,0,0,0,2.55176-.48648,10.66382,10.66382,0,0,0,3.96167-3.38324,29.78956,29.78956,0,0,0,2.68011-4.64828c.80035-1.61978,1.405-3.32538,2.12427-5.00372-.2132.88418-.47089,1.7579-.70636,2.64123-.22675.88657-.61853,1.71674-.92182,2.581a22.75876,22.75876,0,0,1-2.61206,4.8515,10.09067,10.09067,0,0,1-4.33081,3.46469A5.66664,5.66664,0,0,1,303.70784,293.92728Z" fill="#b02336"/><path d="M312.73949,287.3901s6.93488,1.35314,7.44231.16914c0,0,.98673-1.11842-2.18993-1.651a11.98369,11.98369,0,0,1-5.22335-2.25972c-1.29357-.97607-2.48445-2.15941-2.51-3.22113Z" fill="#f9977a"/><path d="M292.10164,300.49872c-1.62524,10.00986-3.33832,20.00378-5.07764,29.99292-1.70953,9.99457-3.54821,19.96564-5.316,29.94961l-.01922.1084-.06549.0903-10.1825,14.04358L261.22759,388.705l-10.28232,13.97143-10.371,13.90735,9.956-14.2074,10.04465-14.14325,10.1138-14.09332,10.14441-14.07117-.08454.19834c1.85669-9.96784,3.6424-19.94855,5.55732-29.90579C288.191,320.39853,290.10243,310.44064,292.10164,300.49872Z" fill="#b02336"/><path d="M532.82332,450.65039c-.89941-1.499-22.083-36.80176-25.50977-45.93945l.85547-.32031c3.39649,9.05957,25.2168,45.42285,25.4375,45.78906Z" fill="#8b9d36"/><path d="M515.13633,385.32228a39.22317,39.22317,0,0,0-2.10917,7.0694,66.09034,66.09034,0,0,0-1.078,7.16753,64.772,64.772,0,0,0-.29691,7.24177,38.69446,38.69446,0,0,0,.74451,7.34078,38.729,38.729,0,0,0,2.11407-7.069,64.88085,64.88085,0,0,0,1.07309-7.168,66.08876,66.08876,0,0,0,.292-7.24221A39.18953,39.18953,0,0,0,515.13633,385.32228Z" fill="#8b9d36"/><path d="M523.18959,396.3335a37.41374,37.41374,0,0,0-2.73688,6.66543,62.83356,62.83356,0,0,0-1.71952,6.86081,61.87587,61.87587,0,0,0-.94915,7.00876,37.00437,37.00437,0,0,0,.07846,7.206,36.96971,36.96971,0,0,0,2.74179-6.66448,61.87557,61.87557,0,0,0,1.71461-6.86181,62.93608,62.93608,0,0,0,.94425-7.00966A37.44919,37.44919,0,0,0,523.18959,396.3335Z" fill="#8b9d36"/><path d="M527.62682,409.1525A31.74489,31.74489,0,0,0,525.297,415.348a52.73754,52.73754,0,0,0-1.30357,6.34194,51.85078,51.85078,0,0,0-.5274,6.45271,31.34319,31.34319,0,0,0,.50823,6.60057,31.34637,31.34637,0,0,0,2.33475-6.19482,51.76824,51.76824,0,0,0,1.29867-6.3426,52.74054,52.74054,0,0,0,.5225-6.45344A31.71454,31.71454,0,0,0,527.62682,409.1525Z" fill="#8b9d36"/><path d="M533.2147,421.94782a24.30317,24.30317,0,0,0-2.36239,5.27242,39.60592,39.60592,0,0,0-1.341,5.44873,38.87162,38.87162,0,0,0-.56842,5.58215,24.02057,24.02057,0,0,0,.46232,5.76014,24.00269,24.00269,0,0,0,2.36729-5.27158,38.93555,38.93555,0,0,0,1.33657-5.44957,39.66939,39.66939,0,0,0,.56351-5.583A24.30234,24.30234,0,0,0,533.2147,421.94782Z" fill="#8b9d36"/><path d="M538.145,429.94536a21.88009,21.88009,0,0,0-2.49391,4.62937,37.72722,37.72722,0,0,0-1.56794,4.80236,43.10916,43.10916,0,0,0-.94692,4.92484c-.10254.83591-.19661,1.66714-.259,2.51442a18.71089,18.71089,0,0,1-.27552,2.5746,5.05441,5.05441,0,0,0,.60632-.38274l.49218-.49318a9.10167,9.10167,0,0,0,.86088-1.07677,17.2469,17.2469,0,0,0,1.32363-2.30365,25.65283,25.65283,0,0,0,1.73691-4.85753,28.753,28.753,0,0,0,.81763-5.0578A19.0406,19.0406,0,0,0,538.145,429.94536Z" fill="#8b9d36"/><path d="M510.34779,410.204a31.4531,31.4531,0,0,0-5.5549-4.8169,51.47654,51.47654,0,0,0-6.13981-3.66123,50.5736,50.5736,0,0,0-6.58295-2.78653,31.09417,31.09417,0,0,0-7.17322-1.61983,31.08461,31.08461,0,0,0,5.55178,4.82242,50.5764,50.5764,0,0,0,6.14293,3.65571,51.455,51.455,0,0,0,6.58563,2.781A31.45119,31.45119,0,0,0,510.34779,410.204Z" fill="#8b9d36"/><path d="M515.80416,420.39554a38.74591,38.74591,0,0,0-6.85133-4.4851,64.50982,64.50982,0,0,0-7.307-3.27248,63.35575,63.35575,0,0,0-7.65158-2.35481,38.30544,38.30544,0,0,0-8.11122-1.13065,38.31315,38.31315,0,0,0,6.84866,4.4909,63.36651,63.36651,0,0,0,7.3092,3.26667,64.49677,64.49677,0,0,0,7.65381,2.349A38.74619,38.74619,0,0,0,515.80416,420.39554Z" fill="#8b9d36"/><path d="M522.22707,431.72378a33.04173,33.04173,0,0,0-6.17593-4.33023A54.29921,54.29921,0,0,0,509.404,424.27a53.33613,53.33613,0,0,0-7.00336-2.21025,32.65939,32.65939,0,0,0-7.4786-.992,32.67137,32.67137,0,0,0,6.17369,4.336,53.34571,53.34571,0,0,0,6.64938,3.11777,54.30606,54.30606,0,0,0,7.00559,2.20452A33.04084,33.04084,0,0,0,522.22707,431.72378Z" fill="#8b9d36"/><path d="M527.30315,440.44315a24.77034,24.77034,0,0,0-5.42427-3.57284,39.55957,39.55957,0,0,0-5.81124-2.33659,38.8511,38.8511,0,0,0-6.10459-1.4011,24.508,24.508,0,0,0-6.49513-.15308,24.50648,24.50648,0,0,0,5.42249,3.5787,38.8479,38.8479,0,0,0,5.81347,2.33073,39.54111,39.54111,0,0,0,6.10593,1.39514A24.78361,24.78361,0,0,0,527.30315,440.44315Z" fill="#8b9d36"/><path d="M531.31017,448.26693a32.58118,32.58118,0,0,0-5.96238-4.5303,53.4719,53.4719,0,0,0-6.47684-3.34152,52.539,52.539,0,0,0-6.8665-2.442,32.21357,32.21357,0,0,0-7.38587-1.24183,32.20241,32.20241,0,0,0,5.9597,4.536,52.51925,52.51925,0,0,0,6.47952,3.33594,53.461,53.461,0,0,0,6.86873,2.43618A32.57931,32.57931,0,0,0,531.31017,448.26693Z" fill="#8b9d36"/><path d="M508.57477,405.86559a22.9316,22.9316,0,0,0-.17788-7.3224,34.50311,34.50311,0,0,0-1.86575-6.66141,33.93724,33.93724,0,0,0-3.14436-6.16077,22.70251,22.70251,0,0,0-4.84916-5.49348,22.68886,22.68886,0,0,0,.16941,7.32552,33.967,33.967,0,0,0,1.87377,6.65829,34.50686,34.50686,0,0,0,3.15283,6.15759A22.93538,22.93538,0,0,0,508.57477,405.86559Z" fill="#8b9d36"/><path d="M535.17586,450.14258c-.00977-.60938-1.11914-61.05957-12.748-79.47168l.77149-.48828c11.7666,18.62988,12.84863,77.45019,12.88867,79.94433Z" fill="#50661a"/><path d="M526.59383,378.58516a41.84154,41.84154,0,0,1-.27374-8.23382,74.02413,74.02413,0,0,1,.88986-7.98722c.4262-2.634,1.00621-5.24171,1.68831-7.82779.68121-2.60314,1.54164-5.10769,2.46092-7.77541a11.40942,11.40942,0,0,1,.58893,2.04709,18.24337,18.24337,0,0,1,.32188,2.08013,35.25171,35.25171,0,0,1,.18546,4.12928,53.01861,53.01861,0,0,1-.74318,8.09277,58.81488,58.81488,0,0,1-1.87244,7.87973A37.04933,37.04933,0,0,1,526.59383,378.58516Z" fill="#50661a"/><path d="M512.131,341.33748a29.58358,29.58358,0,0,1,5.15054,6.61773,46.50838,46.50838,0,0,1,3.452,7.25341,45.703,45.703,0,0,1,2.16667,7.73456,29.26483,29.26483,0,0,1,.45206,8.37626,29.26429,29.26429,0,0,1-5.15856-6.61472,45.66046,45.66046,0,0,1-3.44395-7.25647,46.50746,46.50746,0,0,1-2.15865-7.73757A29.56875,29.56875,0,0,1,512.131,341.33748Z" fill="#50661a"/><path d="M502.43449,356.32846a68.15161,68.15161,0,0,1,6.78268,6.24971c2.09623,2.173,4.09662,4.39465,6.05376,6.62831l5.81481,6.67318c.97545,1.09275,1.96116,2.16952,3.00259,3.18944a13.71009,13.71009,0,0,0,3.54827,2.68042,6.159,6.159,0,0,1-2.42838-.06157,11.36988,11.36988,0,0,1-2.33965-.73588,22.59524,22.59524,0,0,1-4.16706-2.38931,40.89821,40.89821,0,0,1-6.86427-6.35029,54.189,54.189,0,0,1-5.45459-7.45163A38.78187,38.78187,0,0,1,502.43449,356.32846Z" fill="#50661a"/><path d="M502.43449,371.31944a56.13494,56.13494,0,0,1,8.43176,5.18587,95.523,95.523,0,0,1,7.56509,6.1485,93.90587,93.90587,0,0,1,6.90929,6.877,55.5017,55.5017,0,0,1,6.03415,7.8488,55.4827,55.4827,0,0,1-8.43622-5.1813,93.83722,93.83722,0,0,1-7.56108-6.15308,95.517,95.517,0,0,1-6.90483-6.88159A56.12738,56.12738,0,0,1,502.43449,371.31944Z" fill="#50661a"/><path d="M503.42064,383.08146a55.50764,55.50764,0,0,1,8.51869,4.92641,94.40164,94.40164,0,0,1,7.67789,5.91127,92.77808,92.77808,0,0,1,7.0408,6.65657,54.88286,54.88286,0,0,1,6.19108,7.65074,54.85633,54.85633,0,0,1-8.52315-4.92167,92.7179,92.7179,0,0,1-7.67343-5.916,94.39952,94.39952,0,0,1-7.03679-6.66125A55.47856,55.47856,0,0,1,503.42064,383.08146Z" fill="#50661a"/><path d="M504.07777,395.654a51.60589,51.60589,0,0,1,8.533,4.13948,87.39219,87.39219,0,0,1,7.75814,5.17735,85.93505,85.93505,0,0,1,7.17143,5.96293,50.99342,50.99342,0,0,1,6.389,7.01077,51.04051,51.04051,0,0,1-8.53653-4.13452,85.92989,85.92989,0,0,1-7.75456-5.18236,87.4508,87.4508,0,0,1-7.16742-5.96789A51.60381,51.60381,0,0,1,504.07777,395.654Z" fill="#50661a"/><path d="M503.42064,404.7752a57.41429,57.41429,0,0,1,8.92795,4.53309,97.797,97.797,0,0,1,8.14466,5.56476,96.07759,96.07759,0,0,1,7.55216,6.34561,56.74015,56.74015,0,0,1,6.76084,7.387,56.74378,56.74378,0,0,1-8.93153-4.52812,96.08112,96.08112,0,0,1-8.14109-5.56972,97.78216,97.78216,0,0,1-7.54815-6.35052A57.40925,57.40925,0,0,1,503.42064,404.7752Z" fill="#50661a"/><path d="M501.11977,413.32121a74.84518,74.84518,0,0,1,9.33231,5.1794c2.96291,1.89674,5.82952,3.90186,8.62436,5.99464,2.80286,2.08058,5.52815,4.24971,8.20528,6.49106,2.70478,2.22213,5.25977,4.53654,8.05817,6.8286a22.5638,22.5638,0,0,1-5.22544-1.52492,51.10018,51.10018,0,0,1-4.85228-2.336,79.6416,79.6416,0,0,1-8.91726-5.80277,91.9468,91.9468,0,0,1-8.101-6.83618A58.23834,58.23834,0,0,1,501.11977,413.32121Z" fill="#50661a"/><path d="M498.32582,422.196a76.973,76.973,0,0,1,10.1339,4.81578c3.2362,1.80284,6.377,3.73858,9.44555,5.77619q4.60353,3.0555,8.985,6.42575,2.19007,1.68987,4.33825,3.44049a38.65836,38.65836,0,0,0,4.4038,3.37206,8.50686,8.50686,0,0,1-2.847-.489c-.91749-.27173-1.80824-.6023-2.68917-.94614-1.757-.69748-3.45465-1.49528-5.11978-2.34066a97.16055,97.16055,0,0,1-9.59892-5.66267,109.73074,109.73074,0,0,1-8.93464-6.62146A67.91366,67.91366,0,0,1,498.32582,422.196Z" fill="#50661a"/><path d="M529.42656,389.02611a45.42349,45.42349,0,0,1,1.30981-8.78875,76.326,76.326,0,0,1,2.526-8.34382,75.12473,75.12473,0,0,1,3.44707-8.00712,44.934,44.934,0,0,1,4.67485-7.558,44.939,44.939,0,0,1-1.30358,8.79087,75.12589,75.12589,0,0,1-2.53224,8.34171,76.432,76.432,0,0,1-3.45287,8.005A45.4236,45.4236,0,0,1,529.42656,389.02611Z" fill="#50661a"/><path d="M531.37478,399.28846a46.41548,46.41548,0,0,1,2.52244-8.62441,78.16038,78.16038,0,0,1,3.6682-8.02055,76.86038,76.86038,0,0,1,4.53575-7.56359,45.92018,45.92018,0,0,1,5.69266-6.954,45.92114,45.92114,0,0,1-2.51665,8.62731,76.95181,76.95181,0,0,1-3.674,8.01765,78.2535,78.2535,0,0,1-4.5411,7.56069A46.47416,46.47416,0,0,1,531.37478,399.28846Z" fill="#50661a"/><path d="M532.8491,409.21255a50.84192,50.84192,0,0,1,3.69227-8.6583,86.1588,86.1588,0,0,1,4.76535-7.93306,84.64791,84.64791,0,0,1,5.57808-7.38409,50.27191,50.27191,0,0,1,6.66142-6.65194,50.26758,50.26758,0,0,1-3.68736,8.66181,84.54193,84.54193,0,0,1-4.77071,7.92954,86.06127,86.06127,0,0,1-5.583,7.38069A50.84361,50.84361,0,0,1,532.8491,409.21255Z" fill="#50661a"/><path d="M533.92932,420.16145a65.55939,65.55939,0,0,1,5.28607-9.29269q2.94708-4.39814,6.28916-8.47283,3.33093-4.08384,7.04794-7.85237a64.54129,64.54129,0,0,1,8.0604-7.02476,64.53555,64.53555,0,0,1-5.28117,9.2966q-2.94708,4.39788-6.29361,8.46893-3.339,4.0779-7.05285,7.84846A65.479,65.479,0,0,1,533.92932,420.16145Z" fill="#50661a"/><path d="M534.80625,431.515a66.20573,66.20573,0,0,1,6.25973-8.73492q3.4065-4.08927,7.17277-7.81564,3.75558-3.73677,7.8629-7.11994a65.20445,65.20445,0,0,1,8.78441-6.19186,65.20811,65.20811,0,0,1-6.25528,8.73926q-3.4065,4.08885-7.17679,7.8113-3.76292,3.73-7.86735,7.11554A66.1817,66.1817,0,0,1,534.80625,431.515Z" fill="#50661a"/><path d="M535.33989,438.79493a57.69951,57.69951,0,0,1,6.801-7.38431,98.30175,98.30175,0,0,1,7.582-6.351,96.56833,96.56833,0,0,1,8.17319-5.56905,57.0378,57.0378,0,0,1,8.96229-4.52589,57.05236,57.05236,0,0,1-6.7974,7.38922,96.63838,96.63838,0,0,1-7.5856,6.34611,98.37158,98.37158,0,0,1-8.1772,5.56409A57.70889,57.70889,0,0,1,535.33989,438.79493Z" fill="#50661a"/><path d="M535.63235,444.87578a61.079,61.079,0,0,1,7.94537-6.60624q4.16751-2.96264,8.58869-5.48179,4.41427-2.53155,9.07553-4.63088a60.362,60.362,0,0,1,9.72508-3.49577,60.37091,60.37091,0,0,1-7.9427,6.61154q-4.16751,2.96229-8.59137,5.47643-4.41894,2.52345-9.07864,4.62559A61.08823,61.08823,0,0,1,535.63235,444.87578Z" fill="#50661a"/><path d="M535.40543,448.82005a65.96554,65.96554,0,0,1,9.29575-5.35428c3.18939-1.53974,6.44119-2.91164,9.746-4.13976q4.9566-1.84384,10.08664-3.22059a65.00475,65.00475,0,0,1,10.54182-1.99437,65.00424,65.00424,0,0,1-9.29353,5.36008q-4.78475,2.30911-9.74826,4.134c-3.30664,1.22333-6.66677,2.303-10.08887,3.2148A65.95663,65.95663,0,0,1,535.40543,448.82005Z" fill="#50661a"/><path d="M537.04891,448.65039l-.78321-.4707c.22071-.36621,22.041-36.73047,25.4375-45.78906l.85547.32031C559.13191,411.84863,537.94832,447.15137,537.04891,448.65039Z" fill="#5e7c24"/><path d="M554.73577,383.32228a39.22394,39.22394,0,0,1,2.10916,7.0694,66.08788,66.08788,0,0,1,1.078,7.16753,64.77435,64.77435,0,0,1,.29692,7.24177,38.69366,38.69366,0,0,1-.74452,7.34078,38.729,38.729,0,0,1-2.11407-7.069,64.87845,64.87845,0,0,1-1.07308-7.168,66.08627,66.08627,0,0,1-.292-7.24221A39.1887,39.1887,0,0,1,554.73577,383.32228Z" fill="#5e7c24"/><path d="M546.68251,394.3335a37.41369,37.41369,0,0,1,2.73687,6.66543,62.83361,62.83361,0,0,1,1.71953,6.86081,61.87585,61.87585,0,0,1,.94914,7.00876,37.00437,37.00437,0,0,1-.07846,7.206,36.96966,36.96966,0,0,1-2.74178-6.66448,61.87339,61.87339,0,0,1-1.71462-6.86181,62.93606,62.93606,0,0,1-.94424-7.00966A37.44758,37.44758,0,0,1,546.68251,394.3335Z" fill="#5e7c24"/><path d="M542.24528,407.1525a31.74548,31.74548,0,0,1,2.32984,6.19548,52.73757,52.73757,0,0,1,1.30358,6.34194,51.8546,51.8546,0,0,1,.5274,6.45271,31.34452,31.34452,0,0,1-.50823,6.60057,31.34579,31.34579,0,0,1-2.33476-6.19482,51.76633,51.76633,0,0,1-1.29866-6.3426,52.73658,52.73658,0,0,1-.5225-6.45344A31.71454,31.71454,0,0,1,542.24528,407.1525Z" fill="#5e7c24"/><path d="M536.65739,419.94782a24.30269,24.30269,0,0,1,2.36239,5.27242,39.603,39.603,0,0,1,1.341,5.44873,38.87162,38.87162,0,0,1,.56842,5.58215,24.02106,24.02106,0,0,1-.46231,5.76014,24.00274,24.00274,0,0,1-2.3673-5.27158,38.93551,38.93551,0,0,1-1.33656-5.44957,39.66792,39.66792,0,0,1-.56352-5.583A24.30234,24.30234,0,0,1,536.65739,419.94782Z" fill="#5e7c24"/><path d="M531.72708,427.94536a21.87963,21.87963,0,0,1,2.49391,4.62937,37.72563,37.72563,0,0,1,1.56794,4.80236,43.107,43.107,0,0,1,.94692,4.92484c.10254.83591.19661,1.66714.259,2.51442a18.71244,18.71244,0,0,0,.27552,2.5746,5.05434,5.05434,0,0,1-.60631-.38274l-.49219-.49318a9.10056,9.10056,0,0,1-.86087-1.07677,17.24588,17.24588,0,0,1-1.32364-2.30365,25.65283,25.65283,0,0,1-1.73691-4.85753,28.753,28.753,0,0,1-.81763-5.0578A19.041,19.041,0,0,1,531.72708,427.94536Z" fill="#5e7c24"/><path d="M559.5243,408.204a31.4531,31.4531,0,0,1,5.5549-4.8169,51.47654,51.47654,0,0,1,6.13981-3.66123,50.5736,50.5736,0,0,1,6.58295-2.78653,31.09417,31.09417,0,0,1,7.17322-1.61983,31.08461,31.08461,0,0,1-5.55178,4.82242,50.5764,50.5764,0,0,1-6.14293,3.65571,51.45437,51.45437,0,0,1-6.58563,2.781A31.45119,31.45119,0,0,1,559.5243,408.204Z" fill="#5e7c24"/><path d="M554.06793,418.39554a38.74562,38.74562,0,0,1,6.85134-4.4851,64.50889,64.50889,0,0,1,7.307-3.27248,63.3563,63.3563,0,0,1,7.65158-2.35481,38.30544,38.30544,0,0,1,8.11122-1.13065,38.31279,38.31279,0,0,1-6.84866,4.4909,63.36637,63.36637,0,0,1-7.30919,3.26667,64.49734,64.49734,0,0,1-7.65381,2.349A38.74629,38.74629,0,0,1,554.06793,418.39554Z" fill="#5e7c24"/><path d="M547.645,429.72378a33.042,33.042,0,0,1,6.17592-4.33023A54.2999,54.2999,0,0,1,560.4681,422.27a53.33661,53.33661,0,0,1,7.00336-2.21025,32.65939,32.65939,0,0,1,7.4786-.992,32.67105,32.67105,0,0,1-6.17369,4.336,53.34571,53.34571,0,0,1-6.64938,3.11777,54.30557,54.30557,0,0,1-7.00559,2.20452A33.04083,33.04083,0,0,1,547.645,429.72378Z" fill="#5e7c24"/><path d="M542.56894,438.44315a24.77034,24.77034,0,0,1,5.42427-3.57284,39.55957,39.55957,0,0,1,5.81124-2.33659,38.8511,38.8511,0,0,1,6.10459-1.4011,24.508,24.508,0,0,1,6.49513-.15308,24.506,24.506,0,0,1-5.42249,3.5787,38.84747,38.84747,0,0,1-5.81347,2.33073,39.54084,39.54084,0,0,1-6.10593,1.39514A24.78361,24.78361,0,0,1,542.56894,438.44315Z" fill="#5e7c24"/><path d="M538.56192,446.26693a32.58118,32.58118,0,0,1,5.96238-4.5303,53.47129,53.47129,0,0,1,6.47685-3.34152,52.5389,52.5389,0,0,1,6.86649-2.442,32.21366,32.21366,0,0,1,7.38587-1.24183,32.20241,32.20241,0,0,1-5.9597,4.536,52.51925,52.51925,0,0,1-6.47952,3.33594,53.46085,53.46085,0,0,1-6.86872,2.43618A32.5793,32.5793,0,0,1,538.56192,446.26693Z" fill="#5e7c24"/><path d="M561.29732,403.86559a22.93189,22.93189,0,0,1,.17788-7.3224,34.50382,34.50382,0,0,1,1.86575-6.66141,33.93724,33.93724,0,0,1,3.14436-6.16077,22.70256,22.70256,0,0,1,4.84917-5.49348,22.68943,22.68943,0,0,1-.16941,7.32552,33.96769,33.96769,0,0,1-1.87378,6.65829,34.50554,34.50554,0,0,1-3.15283,6.15759A22.93538,22.93538,0,0,1,561.29732,403.86559Z" fill="#5e7c24"/><path d="M172.61238,449.65039l-.7832-.4707c.2207-.36621,22.041-36.73047,25.4375-45.78906l.85547.32031C194.69539,412.84863,173.5118,448.15137,172.61238,449.65039Z" fill="#8b9d36"/><path d="M190.29922,384.32228a39.22394,39.22394,0,0,1,2.10916,7.0694,66.08788,66.08788,0,0,1,1.078,7.16753,64.77435,64.77435,0,0,1,.29692,7.24177,38.69366,38.69366,0,0,1-.74452,7.34078,38.729,38.729,0,0,1-2.11407-7.069,64.87845,64.87845,0,0,1-1.07308-7.168,66.08876,66.08876,0,0,1-.292-7.24221A39.1887,39.1887,0,0,1,190.29922,384.32228Z" fill="#8b9d36"/><path d="M182.246,395.3335a37.41369,37.41369,0,0,1,2.73687,6.66543,62.83361,62.83361,0,0,1,1.71953,6.86081,61.87359,61.87359,0,0,1,.94914,7.00876,37.00358,37.00358,0,0,1-.07846,7.206,36.96966,36.96966,0,0,1-2.74178-6.66448,61.87339,61.87339,0,0,1-1.71462-6.86181,62.93606,62.93606,0,0,1-.94424-7.00966A37.44758,37.44758,0,0,1,182.246,395.3335Z" fill="#8b9d36"/><path d="M177.80873,408.1525a31.74548,31.74548,0,0,1,2.32984,6.19548,52.73757,52.73757,0,0,1,1.30358,6.34194,51.8546,51.8546,0,0,1,.5274,6.45271,31.34452,31.34452,0,0,1-.50823,6.60057,31.34579,31.34579,0,0,1-2.33476-6.19482,51.76633,51.76633,0,0,1-1.29866-6.3426,52.73658,52.73658,0,0,1-.5225-6.45344A31.71454,31.71454,0,0,1,177.80873,408.1525Z" fill="#8b9d36"/><path d="M172.22084,420.94782a24.30269,24.30269,0,0,1,2.36239,5.27242,39.603,39.603,0,0,1,1.341,5.44873,38.8702,38.8702,0,0,1,.56842,5.58215,24.02106,24.02106,0,0,1-.46231,5.76014,24.00274,24.00274,0,0,1-2.3673-5.27158,38.93551,38.93551,0,0,1-1.33656-5.44957,39.66792,39.66792,0,0,1-.56352-5.583A24.30234,24.30234,0,0,1,172.22084,420.94782Z" fill="#8b9d36"/><path d="M167.29053,428.94536a21.87963,21.87963,0,0,1,2.49391,4.62937,37.72563,37.72563,0,0,1,1.56794,4.80236,43.107,43.107,0,0,1,.94692,4.92484c.10254.83591.19661,1.66714.259,2.51442a18.71244,18.71244,0,0,0,.27552,2.5746,5.05434,5.05434,0,0,1-.60631-.38274l-.49219-.49318a9.10056,9.10056,0,0,1-.86087-1.07677,17.24588,17.24588,0,0,1-1.32364-2.30365,25.65283,25.65283,0,0,1-1.73691-4.85753,28.753,28.753,0,0,1-.81763-5.0578A19.041,19.041,0,0,1,167.29053,428.94536Z" fill="#8b9d36"/><path d="M195.08775,409.204a31.4531,31.4531,0,0,1,5.5549-4.8169,51.47654,51.47654,0,0,1,6.13981-3.66123,50.5736,50.5736,0,0,1,6.583-2.78653,31.09417,31.09417,0,0,1,7.17322-1.61983,31.08461,31.08461,0,0,1-5.55178,4.82242,50.5764,50.5764,0,0,1-6.14293,3.65571,51.45484,51.45484,0,0,1-6.58562,2.781A31.4514,31.4514,0,0,1,195.08775,409.204Z" fill="#8b9d36"/><path d="M189.63138,419.39554a38.74562,38.74562,0,0,1,6.85134-4.4851,64.50889,64.50889,0,0,1,7.307-3.27248,63.3563,63.3563,0,0,1,7.65158-2.35481,38.30544,38.30544,0,0,1,8.11122-1.13065,38.31279,38.31279,0,0,1-6.84866,4.4909,63.36637,63.36637,0,0,1-7.30919,3.26667,64.49734,64.49734,0,0,1-7.65381,2.349A38.74629,38.74629,0,0,1,189.63138,419.39554Z" fill="#8b9d36"/><path d="M183.20848,430.72378a33.042,33.042,0,0,1,6.17592-4.33023,54.3006,54.3006,0,0,1,6.64715-3.12352,53.33661,53.33661,0,0,1,7.00336-2.21025,32.65939,32.65939,0,0,1,7.4786-.992,32.67105,32.67105,0,0,1-6.17369,4.336,53.34571,53.34571,0,0,1-6.64938,3.11777,54.30557,54.30557,0,0,1-7.00559,2.20452A33.04083,33.04083,0,0,1,183.20848,430.72378Z" fill="#8b9d36"/><path d="M178.13239,439.44315a24.77034,24.77034,0,0,1,5.42427-3.57284,39.55957,39.55957,0,0,1,5.81124-2.33659,38.8511,38.8511,0,0,1,6.10459-1.4011,24.508,24.508,0,0,1,6.49513-.15308,24.506,24.506,0,0,1-5.42249,3.5787,38.84747,38.84747,0,0,1-5.81347,2.33073,39.54084,39.54084,0,0,1-6.10593,1.39514A24.78361,24.78361,0,0,1,178.13239,439.44315Z" fill="#8b9d36"/><path d="M174.12537,447.26693a32.58118,32.58118,0,0,1,5.96238-4.5303,53.47129,53.47129,0,0,1,6.47685-3.34152,52.5389,52.5389,0,0,1,6.86649-2.442,32.21366,32.21366,0,0,1,7.38587-1.24183,32.20241,32.20241,0,0,1-5.9597,4.536,52.51925,52.51925,0,0,1-6.47952,3.33594,53.46085,53.46085,0,0,1-6.86872,2.43618A32.5793,32.5793,0,0,1,174.12537,447.26693Z" fill="#8b9d36"/><path d="M196.86077,404.86559a22.93189,22.93189,0,0,1,.17788-7.3224,34.50382,34.50382,0,0,1,1.86575-6.66141,33.93724,33.93724,0,0,1,3.14436-6.16077,22.70256,22.70256,0,0,1,4.84917-5.49348,22.68943,22.68943,0,0,1-.16941,7.32552,33.96769,33.96769,0,0,1-1.87378,6.65829,34.50554,34.50554,0,0,1-3.15283,6.15759A22.93517,22.93517,0,0,1,196.86077,404.86559Z" fill="#8b9d36"/><path d="M170.25887,450.14258l-.91211-.01563c.04-2.49414,1.123-61.31445,12.88965-79.94433l.77148.48828C171.378,389.085,170.26863,449.53418,170.25887,450.14258Z" fill="#50661a"/><path d="M178.84172,378.58516a41.84229,41.84229,0,0,0,.27373-8.23382,74.02412,74.02412,0,0,0-.88985-7.98722c-.42621-2.634-1.00622-5.24171-1.68832-7.82779-.68121-2.60314-1.54164-5.10769-2.46092-7.77541a11.40856,11.40856,0,0,0-.58892,2.04709,18.24337,18.24337,0,0,0-.32188,2.08013,35.24953,35.24953,0,0,0-.18546,4.12928,53.01735,53.01735,0,0,0,.74318,8.09277,58.81637,58.81637,0,0,0,1.87243,7.87973A37.04938,37.04938,0,0,0,178.84172,378.58516Z" fill="#50661a"/><path d="M193.30451,341.33748a29.58417,29.58417,0,0,0-5.15054,6.61773,46.50923,46.50923,0,0,0-3.452,7.25341,45.7021,45.7021,0,0,0-2.16668,7.73456,29.26483,29.26483,0,0,0-.45206,8.37626,29.26406,29.26406,0,0,0,5.15857-6.61472,45.66041,45.66041,0,0,0,3.44394-7.25647,46.50746,46.50746,0,0,0,2.15865-7.73757A29.56875,29.56875,0,0,0,193.30451,341.33748Z" fill="#50661a"/><path d="M203.00106,356.32846a68.1494,68.1494,0,0,0-6.78268,6.24971c-2.09624,2.173-4.09663,4.39465-6.05377,6.62831l-5.81481,6.67318c-.97545,1.09275-1.96115,2.16952-3.00258,3.18944a13.71026,13.71026,0,0,1-3.54827,2.68042,6.159,6.159,0,0,0,2.42837-.06157,11.36988,11.36988,0,0,0,2.33965-.73588,22.59533,22.59533,0,0,0,4.16707-2.38931,40.89853,40.89853,0,0,0,6.86426-6.35029,54.18736,54.18736,0,0,0,5.45459-7.45163A38.7819,38.7819,0,0,0,203.00106,356.32846Z" fill="#50661a"/><path d="M203.00106,371.31944a56.13394,56.13394,0,0,0-8.43176,5.18587,95.5232,95.5232,0,0,0-7.5651,6.1485,93.90979,93.90979,0,0,0-6.90929,6.877,55.50244,55.50244,0,0,0-6.03415,7.8488,55.48172,55.48172,0,0,0,8.43622-5.1813,93.83547,93.83547,0,0,0,7.56108-6.15308,95.517,95.517,0,0,0,6.90483-6.88159A56.12744,56.12744,0,0,0,203.00106,371.31944Z" fill="#50661a"/><path d="M202.01491,383.08146a55.50774,55.50774,0,0,0-8.5187,4.92641,94.40149,94.40149,0,0,0-7.67788,5.91127,92.77633,92.77633,0,0,0-7.04081,6.65657,54.88358,54.88358,0,0,0-6.19108,7.65074,54.85633,54.85633,0,0,0,8.52315-4.92167,92.71623,92.71623,0,0,0,7.67343-5.916,94.40161,94.40161,0,0,0,7.0368-6.66125A55.48,55.48,0,0,0,202.01491,383.08146Z" fill="#50661a"/><path d="M201.35777,395.654a51.60627,51.60627,0,0,0-8.533,4.13948,87.39057,87.39057,0,0,0-7.75813,5.17735,85.93519,85.93519,0,0,0-7.17144,5.96293,50.99469,50.99469,0,0,0-6.389,7.01077,51.04013,51.04013,0,0,0,8.53653-4.13452,85.93,85.93,0,0,0,7.75457-5.18236,87.4508,87.4508,0,0,0,7.16742-5.96789A51.60439,51.60439,0,0,0,201.35777,395.654Z" fill="#50661a"/><path d="M202.01491,404.7752a57.4144,57.4144,0,0,0-8.928,4.53309,97.79871,97.79871,0,0,0-8.14466,5.56476,96.07941,96.07941,0,0,0-7.55216,6.34561,56.73938,56.73938,0,0,0-6.76083,7.387,56.74368,56.74368,0,0,0,8.93152-4.52812,96.08112,96.08112,0,0,0,8.14109-5.56972,97.78216,97.78216,0,0,0,7.54815-6.35052A57.40932,57.40932,0,0,0,202.01491,404.7752Z" fill="#50661a"/><path d="M204.31578,413.32121a74.84531,74.84531,0,0,0-9.33232,5.1794c-2.96291,1.89674-5.82952,3.90186-8.62435,5.99464-2.80286,2.08058-5.52815,4.24971-8.20529,6.49106-2.70478,2.22213-5.25977,4.53654-8.05817,6.8286a22.56365,22.56365,0,0,0,5.22544-1.52492,51.10153,51.10153,0,0,0,4.85229-2.336,79.64056,79.64056,0,0,0,8.91725-5.80277,91.9439,91.9439,0,0,0,8.101-6.83618A58.23841,58.23841,0,0,0,204.31578,413.32121Z" fill="#50661a"/><path d="M207.10972,422.196a76.973,76.973,0,0,0-10.1339,4.81578c-3.23619,1.80284-6.377,3.73858-9.44555,5.77619q-4.60351,3.0555-8.985,6.42575-2.19009,1.68987-4.33826,3.44049a38.65913,38.65913,0,0,1-4.40379,3.37206,8.5068,8.5068,0,0,0,2.847-.489c.9175-.27173,1.80824-.6023,2.68918-.94614,1.757-.69748,3.45464-1.49528,5.11978-2.34066a97.1604,97.1604,0,0,0,9.59891-5.66267,109.73263,109.73263,0,0,0,8.93465-6.62146A67.91357,67.91357,0,0,0,207.10972,422.196Z" fill="#50661a"/><path d="M176.009,389.02611a45.42426,45.42426,0,0,0-1.30982-8.78875,76.326,76.326,0,0,0-2.526-8.34382,75.12881,75.12881,0,0,0-3.44707-8.00712,44.93532,44.93532,0,0,0-4.67485-7.558,44.939,44.939,0,0,0,1.30357,8.79087,75.12806,75.12806,0,0,0,2.53225,8.34171,76.43187,76.43187,0,0,0,3.45286,8.005A45.42366,45.42366,0,0,0,176.009,389.02611Z" fill="#50661a"/><path d="M174.06076,399.28846a46.41471,46.41471,0,0,0-2.52244-8.62441,78.16245,78.16245,0,0,0-3.66819-8.02055,76.86243,76.86243,0,0,0-4.53576-7.56359,45.92071,45.92071,0,0,0-5.69265-6.954,45.92112,45.92112,0,0,0,2.51664,8.62731,76.95181,76.95181,0,0,0,3.674,8.01765,78.25562,78.25562,0,0,0,4.54111,7.56069A46.47347,46.47347,0,0,0,174.06076,399.28846Z" fill="#50661a"/><path d="M172.58644,409.21255a50.84032,50.84032,0,0,0-3.69227-8.6583,86.15435,86.15435,0,0,0-4.76535-7.93306,84.64591,84.64591,0,0,0-5.57808-7.38409,50.27191,50.27191,0,0,0-6.66142-6.65194,50.26761,50.26761,0,0,0,3.68737,8.66181,84.54184,84.54184,0,0,0,4.7707,7.92954,86.06127,86.06127,0,0,0,5.583,7.38069A50.84422,50.84422,0,0,0,172.58644,409.21255Z" fill="#50661a"/><path d="M171.50622,420.16145a65.55841,65.55841,0,0,0-5.28607-9.29269q-2.94708-4.39814-6.28916-8.47283-3.33093-4.08384-7.04794-7.85237a64.5419,64.5419,0,0,0-8.06039-7.02476,64.53456,64.53456,0,0,0,5.28116,9.2966q2.94708,4.39788,6.29362,8.46893,3.339,4.0779,7.05284,7.84846A65.479,65.479,0,0,0,171.50622,420.16145Z" fill="#50661a"/><path d="M170.6293,431.515a66.20579,66.20579,0,0,0-6.25974-8.73492q-3.4065-4.08927-7.17277-7.81564-3.75558-3.73677-7.8629-7.11994a65.20435,65.20435,0,0,0-8.7844-6.19186,65.20632,65.20632,0,0,0,6.25528,8.73926q3.40649,4.08885,7.17678,7.8113,3.76293,3.73,7.86735,7.11554A66.18115,66.18115,0,0,0,170.6293,431.515Z" fill="#50661a"/><path d="M170.09565,438.79493a57.69878,57.69878,0,0,0-6.801-7.38431,98.30175,98.30175,0,0,0-7.582-6.351,96.56673,96.56673,0,0,0-8.17319-5.56905,57.03726,57.03726,0,0,0-8.96228-4.52589,57.05229,57.05229,0,0,0,6.79739,7.38922,96.64021,96.64021,0,0,0,7.5856,6.34611,98.37492,98.37492,0,0,0,8.1772,5.56409A57.70934,57.70934,0,0,0,170.09565,438.79493Z" fill="#50661a"/><path d="M169.8032,444.87578a61.07976,61.07976,0,0,0-7.94538-6.60624q-4.16751-2.96264-8.58869-5.48179-4.41428-2.53155-9.07552-4.63088a60.36272,60.36272,0,0,0-9.72508-3.49577,60.36961,60.36961,0,0,0,7.9427,6.61154q4.16751,2.96229,8.59136,5.47643,4.419,2.52345,9.07865,4.62559A61.08752,61.08752,0,0,0,169.8032,444.87578Z" fill="#50661a"/><path d="M170.03012,448.82005a65.96508,65.96508,0,0,0-9.29576-5.35428c-3.18939-1.53974-6.44118-2.91164-9.746-4.13976q-4.9566-1.84384-10.08664-3.22059a65.00475,65.00475,0,0,0-10.54182-1.99437,65.00479,65.00479,0,0,0,9.29353,5.36008q4.78474,2.30911,9.74827,4.134c3.30663,1.22333,6.66676,2.303,10.08887,3.2148A65.95642,65.95642,0,0,0,170.03012,448.82005Z" fill="#50661a"/><path d="M168.4327,448.50586c-.89942-1.499-22.083-36.80078-25.50977-45.93945l.85547-.32032c3.39648,9.05957,25.2168,45.42286,25.4375,45.78907Z" fill="#5e7c24"/><path d="M150.69978,383.32228a39.224,39.224,0,0,0-2.10917,7.0694,66.09034,66.09034,0,0,0-1.078,7.16753,64.77434,64.77434,0,0,0-.29691,7.24177,38.69446,38.69446,0,0,0,.74451,7.34078,38.729,38.729,0,0,0,2.11407-7.069,64.88085,64.88085,0,0,0,1.07309-7.168,66.08876,66.08876,0,0,0,.292-7.24221A39.18953,39.18953,0,0,0,150.69978,383.32228Z" fill="#5e7c24"/><path d="M158.753,394.3335a37.41374,37.41374,0,0,0-2.73688,6.66543,62.83356,62.83356,0,0,0-1.71952,6.86081,61.87587,61.87587,0,0,0-.94915,7.00876,37.00437,37.00437,0,0,0,.07846,7.206,36.969,36.969,0,0,0,2.74179-6.66448,61.87557,61.87557,0,0,0,1.71461-6.86181,62.93608,62.93608,0,0,0,.94425-7.00966A37.44919,37.44919,0,0,0,158.753,394.3335Z" fill="#5e7c24"/><path d="M163.19027,407.1525a31.74489,31.74489,0,0,0-2.32985,6.19548,52.73754,52.73754,0,0,0-1.30357,6.34194,51.85078,51.85078,0,0,0-.5274,6.45271,31.34386,31.34386,0,0,0,.50823,6.60057,31.34637,31.34637,0,0,0,2.33475-6.19482,51.76824,51.76824,0,0,0,1.29867-6.3426,52.74054,52.74054,0,0,0,.5225-6.45344A31.71454,31.71454,0,0,0,163.19027,407.1525Z" fill="#5e7c24"/><path d="M168.77815,419.94782a24.30317,24.30317,0,0,0-2.36239,5.27242,39.60592,39.60592,0,0,0-1.341,5.44873,38.87162,38.87162,0,0,0-.56842,5.58215,24.02057,24.02057,0,0,0,.46232,5.76014,24.00269,24.00269,0,0,0,2.36729-5.27158,38.93555,38.93555,0,0,0,1.33657-5.44957,39.66939,39.66939,0,0,0,.56351-5.583A24.30234,24.30234,0,0,0,168.77815,419.94782Z" fill="#5e7c24"/><path d="M173.70846,427.94536a21.88009,21.88009,0,0,0-2.49391,4.62937,37.72722,37.72722,0,0,0-1.56794,4.80236,43.10916,43.10916,0,0,0-.94692,4.92484c-.10254.83591-.1966,1.66714-.259,2.51442a18.71089,18.71089,0,0,1-.27552,2.5746,5.05441,5.05441,0,0,0,.60632-.38274l.49218-.49318a9.10167,9.10167,0,0,0,.86088-1.07677,17.2469,17.2469,0,0,0,1.32363-2.30365,25.65283,25.65283,0,0,0,1.73691-4.85753,28.753,28.753,0,0,0,.81763-5.0578A19.0406,19.0406,0,0,0,173.70846,427.94536Z" fill="#5e7c24"/><path d="M145.91124,408.204a31.45275,31.45275,0,0,0-5.5549-4.8169,51.47654,51.47654,0,0,0-6.13981-3.66123,50.5736,50.5736,0,0,0-6.583-2.78653,31.09417,31.09417,0,0,0-7.17322-1.61983,31.08461,31.08461,0,0,0,5.55178,4.82242,50.5764,50.5764,0,0,0,6.14293,3.65571,51.455,51.455,0,0,0,6.58563,2.781A31.45119,31.45119,0,0,0,145.91124,408.204Z" fill="#5e7c24"/><path d="M151.36761,418.39554a38.74591,38.74591,0,0,0-6.85133-4.4851,64.50982,64.50982,0,0,0-7.307-3.27248,63.35575,63.35575,0,0,0-7.65158-2.35481,38.30544,38.30544,0,0,0-8.11122-1.13065,38.31287,38.31287,0,0,0,6.84867,4.4909,63.36561,63.36561,0,0,0,7.30919,3.26667,64.49677,64.49677,0,0,0,7.65381,2.349A38.74619,38.74619,0,0,0,151.36761,418.39554Z" fill="#5e7c24"/><path d="M157.79052,429.72378a33.04173,33.04173,0,0,0-6.17593-4.33023,54.29921,54.29921,0,0,0-6.64715-3.12352,53.33613,53.33613,0,0,0-7.00336-2.21025,32.65939,32.65939,0,0,0-7.4786-.992,32.67137,32.67137,0,0,0,6.17369,4.336,53.34571,53.34571,0,0,0,6.64938,3.11777,54.30606,54.30606,0,0,0,7.00559,2.20452A33.04092,33.04092,0,0,0,157.79052,429.72378Z" fill="#5e7c24"/><path d="M162.8666,438.44315a24.77034,24.77034,0,0,0-5.42427-3.57284,39.55957,39.55957,0,0,0-5.81124-2.33659,38.8511,38.8511,0,0,0-6.10459-1.4011,24.508,24.508,0,0,0-6.49513-.15308,24.50648,24.50648,0,0,0,5.42249,3.5787,38.8479,38.8479,0,0,0,5.81347,2.33073,39.54111,39.54111,0,0,0,6.10593,1.39514A24.78361,24.78361,0,0,0,162.8666,438.44315Z" fill="#5e7c24"/><path d="M166.87362,446.26693a32.58084,32.58084,0,0,0-5.96238-4.5303,53.4719,53.4719,0,0,0-6.47684-3.34152,52.539,52.539,0,0,0-6.8665-2.442,32.21357,32.21357,0,0,0-7.38587-1.24183,32.20241,32.20241,0,0,0,5.9597,4.536,52.51925,52.51925,0,0,0,6.47952,3.33594,53.461,53.461,0,0,0,6.86873,2.43618A32.57931,32.57931,0,0,0,166.87362,446.26693Z" fill="#5e7c24"/><path d="M144.13822,403.86559a22.9316,22.9316,0,0,0-.17788-7.3224,34.50311,34.50311,0,0,0-1.86575-6.66141,33.93724,33.93724,0,0,0-3.14436-6.16077,22.70251,22.70251,0,0,0-4.84916-5.49348,22.68886,22.68886,0,0,0,.16941,7.32552,33.967,33.967,0,0,0,1.87377,6.65829,34.50686,34.50686,0,0,0,3.15283,6.15759A22.93538,22.93538,0,0,0,144.13822,403.86559Z" fill="#5e7c24"/><path d="M460.80946,441.92625c-.45738-.6-45.79394-60.34572-48.60311-87.21564l-1.12609.11861c2.84194,27.18488,46.95215,85.32283,48.82871,87.78421Z" fill="#8b9d36"/><path d="M411.95162,356.258a13.24945,13.24945,0,0,0,.51944-5.08649,17.68047,17.68047,0,0,0-.99131-4.54018,17.37385,17.37385,0,0,0-2.13532-4.12624l-.02848-.03953a2.30875,2.30875,0,0,0-4.16179,1.50526l.00338.04854a17.37636,17.37636,0,0,0,.99845,4.53763,17.67866,17.67866,0,0,0,2.14246,4.12369A13.24929,13.24929,0,0,0,411.95162,356.258Z" fill="#8b9d36"/><path d="M417.34887,372.82973a9.02488,9.02488,0,0,0,4.32424-2.991,11.87037,11.87037,0,0,0,2.305-4.55327,10.837,10.837,0,0,0,.05577-5.24238l-.01387-.05732a2.28575,2.28575,0,0,0-4.37752-.09419q-.03028.09144-.06107.18258c-.43116,1.313-.7526,2.53836-1.09125,3.82046a41.06817,41.06817,0,0,0-.8258,4.04113A26.90278,26.90278,0,0,0,417.34887,372.82973Z" fill="#8b9d36"/><path d="M413.35844,362.51967a9.025,9.025,0,0,0,4.32425-2.991,11.87053,11.87053,0,0,0,2.305-4.55328,10.83692,10.83692,0,0,0,.05577-5.24238l-.01386-.05732a2.28575,2.28575,0,0,0-4.37752-.09418q-.0303.09143-.06107.18257c-.43117,1.313-.75261,2.53836-1.09126,3.82047a41.06451,41.06451,0,0,0-.82579,4.04112A26.90193,26.90193,0,0,0,413.35844,362.51967Z" fill="#8b9d36"/><path d="M414.20868,365.39448a14.00626,14.00626,0,0,0-2.52236-4.6333,19.04189,19.04189,0,0,0-3.47957-3.34272,18.7036,18.7036,0,0,0-4.2041-2.36592l-.0978-.03785a2.28777,2.28777,0,0,0-2.6198,3.53122l.06491.083a18.70233,18.70233,0,0,0,3.48427,3.33644,19.06528,19.06528,0,0,0,4.20839,2.36A14.01617,14.01617,0,0,0,414.20868,365.39448Z" fill="#8b9d36"/><path d="M424.21908,386.48175a14.0342,14.0342,0,0,0,3.17431-4.22046,19.09975,19.09975,0,0,0,1.60282-4.55707,18.76178,18.76178,0,0,0,.41385-4.81218q-.005-.09077-.01073-.18169a2.26678,2.26678,0,0,0-4.25865-.91345q-.04255.08065-.08438.16147A18.762,18.762,0,0,0,423.461,376.517a19.10034,19.10034,0,0,0-.40673,4.81405A14.02535,14.02535,0,0,0,424.21908,386.48175Z" fill="#8b9d36"/><path d="M430.78412,398.50784a15.54684,15.54684,0,0,0,3.14119-4.62521,21.84053,21.84053,0,0,0,1.56306-4.92647,21.44888,21.44888,0,0,0,.36822-5.15417q-.00466-.07638-.00978-.15285a2.26627,2.26627,0,0,0-4.299-.82014q-.03291.06923-.06539.13855a21.46438,21.46438,0,0,0-1.55512,4.92761,21.847,21.847,0,0,0-.36071,5.15565A15.53773,15.53773,0,0,0,430.78412,398.50784Z" fill="#8b9d36"/><path d="M437.64381,409.3298a17.774,17.774,0,0,0,3.5915-4.82846,25.83368,25.83368,0,0,0,2.0388-5.244,25.37828,25.37828,0,0,0,.86491-5.55945l.00352-.11664a2.2657,2.2657,0,0,0-4.24942-1.13882l-.05523.10268a25.391,25.391,0,0,0-2.03195,5.2464,25.8374,25.8374,0,0,0-.85719,5.5612A17.77423,17.77423,0,0,0,437.64381,409.3298Z" fill="#8b9d36"/><path d="M444.539,420.17612a17.93179,17.93179,0,0,0,3.77707-4.72255,26.11317,26.11317,0,0,0,2.24112-5.19543,25.63852,25.63852,0,0,0,1.07919-5.5538l0-.00026a2.28665,2.28665,0,0,0-4.25516-1.31128h0a25.66575,25.66575,0,0,0-2.23415,5.198,26.13858,26.13858,0,0,0-1.07182,5.556A17.93771,17.93771,0,0,0,444.539,420.17612Z" fill="#8b9d36"/><path d="M450.51573,429.152a19.771,19.771,0,0,0,4.32283-4.68584,29.42236,29.42236,0,0,0,2.8363-5.29616,28.89417,28.89417,0,0,0,1.71162-5.75827l0-.00025a2.27967,2.27967,0,0,0-4.11893-1.69144h0a28.89806,28.89806,0,0,0-2.82954,5.29938,29.42481,29.42481,0,0,0-1.70442,5.76113A19.75826,19.75826,0,0,0,450.51573,429.152Z" fill="#8b9d36"/><path d="M457.66973,438.756a21.06181,21.06181,0,0,0,3.81352-5.38209,31.7464,31.7464,0,0,0,2.26614-5.81587,31.17032,31.17032,0,0,0,1.095-6.144l0-.00033a2.27557,2.27557,0,0,0-4.28734-1.202h0a31.15448,31.15448,0,0,0-2.25882,5.818,31.74,31.74,0,0,0-1.08768,6.14608A21.06388,21.06388,0,0,0,457.66973,438.756Z" fill="#8b9d36"/><path d="M419.48269,377.96855a16.92386,16.92386,0,0,0-3.50811-4.6932,24.31042,24.31042,0,0,0-4.3352-3.31519,23.88727,23.88727,0,0,0-4.96062-2.27277l-.12384-.03854a2.26589,2.26589,0,0,0-2.25992,3.76556l.09219.09108a23.88806,23.88806,0,0,0,4.33917,3.30862,24.31023,24.31023,0,0,0,4.9646,2.2662A16.92447,16.92447,0,0,0,419.48269,377.96855Z" fill="#8b9d36"/><path d="M425.46464,389.46266a14.48188,14.48188,0,0,0-3.52158-4.059,19.89171,19.89171,0,0,0-4.19263-2.59825,19.53372,19.53372,0,0,0-4.69988-1.49344l-.05-.0085a2.29862,2.29862,0,0,0-1.84711,4.0226l.039.03236a19.5326,19.5326,0,0,0,4.1957,2.59143,19.89484,19.89484,0,0,0,4.70291,1.48656A14.47191,14.47191,0,0,0,425.46464,389.46266Z" fill="#8b9d36"/><path d="M431.64855,400.26332a16.13726,16.13726,0,0,0-4.39379-3.64237,22.91384,22.91384,0,0,0-4.85774-2.1038,22.47817,22.47817,0,0,0-5.20887-.93939h0a2.29561,2.29561,0,0,0-1.28525,4.26312h0a22.47188,22.47188,0,0,0,4.85977,2.09655,22.90674,22.90674,0,0,0,5.211.93221A16.1283,16.1283,0,0,0,431.64855,400.26332Z" fill="#8b9d36"/><path d="M439.00334,411.75981a16.96352,16.96352,0,0,0-4.88556-3.2532,24.4223,24.4223,0,0,0-5.20415-1.6785,24.00836,24.00836,0,0,0-5.44558-.48658l-.1292.005a2.26589,2.26589,0,0,0-.87211,4.30465l.117.05486a23.99005,23.99005,0,0,0,5.20589,1.67088,24.44539,24.44539,0,0,0,5.44727.4789A16.98392,16.98392,0,0,0,439.00334,411.75981Z" fill="#8b9d36"/><path d="M445.16183,421.331a20.30268,20.30268,0,0,0-5.91277-2.61781,30.37512,30.37512,0,0,0-6.01991-1.01426,29.85768,29.85768,0,0,0-6.10033.19881l-.00036,0a2.27809,2.27809,0,0,0-.29594,4.4431h0a29.8345,29.8345,0,0,0,6.02031,1.00672,30.38085,30.38085,0,0,0,6.10112-.20674A20.29347,20.29347,0,0,0,445.16183,421.331Z" fill="#8b9d36"/><path d="M451.006,429.36561a17.615,17.615,0,0,0-5.64355-2.00015,25.54969,25.54969,0,0,0-5.58077-.39455,25.09068,25.09068,0,0,0-5.53342.82072l-.00009,0a2.28826,2.28826,0,0,0,.1736,4.44957h0a25.09539,25.09539,0,0,0,5.58083.38658,25.546,25.546,0,0,0,5.533-.82834A17.60763,17.60763,0,0,0,451.006,429.36561Z" fill="#8b9d36"/><path d="M455.35148,435.91514a22.06444,22.06444,0,0,0-6.6491-1.231,33.53127,33.53127,0,0,0-6.40728.35791,32.93765,32.93765,0,0,0-6.22345,1.55961l-.00033.00012a2.2731,2.2731,0,0,0,.671,4.40215h0a32.9571,32.9571,0,0,0,6.40621-.36552,33.532,33.532,0,0,0,6.22234-1.56727A22.06444,22.06444,0,0,0,455.35148,435.91514Z" fill="#8b9d36"/><path d="M440.5771,444.24621a2.27,2.27,0,0,0,1.46146,4.18987h.00014a30.58537,30.58537,0,0,0,5.95727-1.4301,30.02638,30.02638,0,0,0,5.55608-2.5779,20.19926,20.19926,0,0,0,5.02244-4.11,20.20264,20.20264,0,0,0-6.48907-.09429,30.03717,30.03717,0,0,0-5.95407,1.43681,30.583,30.583,0,0,0-5.55424,2.58561Z" fill="#8b9d36"/><path d="M442.50751,432.00841c-.01449-.86551-1.64632-86.905-18.21522-113.10405l1.0986-.6936c16.76327,26.506,18.35686,110.22566,18.41616,113.77654Z" fill="#5f7d37"/><path d="M425.62165,320.11709a15.20221,15.20221,0,0,1-4.08336-4.21229,20.28625,20.28625,0,0,1-2.33428-4.79405,19.93482,19.93482,0,0,1-1.00962-5.23438l-.00243-.05584a2.64907,2.64907,0,0,1,4.81854-1.6024l.03146.04613a19.93748,19.93748,0,0,1,2.326,4.79683,20.28462,20.28462,0,0,1,1.00137,5.23716A15.20225,15.20225,0,0,1,425.62165,320.11709Z" fill="#5f7d37"/><path d="M432.53942,338.87992a10.35525,10.35525,0,0,1-6.021.37961,13.62022,13.62022,0,0,1-5.31267-2.46281,12.43434,12.43434,0,0,1-3.77652-4.68228l-.02826-.06148a2.62268,2.62268,0,0,1,3.876-3.19638q.09228.06083.18479.121c1.32166.87621,2.48215,1.7514,3.6985,2.6655a47.12233,47.12233,0,0,1,3.61626,3.053A30.8682,30.8682,0,0,1,432.53942,338.87992Z" fill="#5f7d37"/><path d="M428.80527,326.757a10.35524,10.35524,0,0,1-6.021.37961,13.62011,13.62011,0,0,1-5.31266-2.46281,12.43416,12.43416,0,0,1-3.77653-4.68227l-.02826-.06148a2.62268,2.62268,0,0,1,3.876-3.19639q.09228.06083.18479.121c1.32166.87621,2.48215,1.7514,3.6985,2.66551a47.11794,47.11794,0,0,1,3.61626,3.05294A30.8682,30.8682,0,0,1,428.80527,326.757Z" fill="#5f7d37"/><path d="M430.08286,329.95079a16.07067,16.07067,0,0,1-1.02141-5.9662,21.84844,21.84844,0,0,1,.7581-5.48414,21.46036,21.46036,0,0,1,2.105-5.11931l.06118-.10362a2.625,2.625,0,0,1,4.86971,1.31849l.00055.12093a21.45881,21.45881,0,0,1-.7668,5.48181,21.87609,21.87609,0,0,1-2.11309,5.117A16.08219,16.08219,0,0,1,430.08286,329.95079Z" fill="#5f7d37"/><path d="M436.05516,356.05993a16.10284,16.10284,0,0,1-5.85907-1.54515,21.915,21.915,0,0,1-4.68287-2.96535,21.52723,21.52723,0,0,1-3.79326-4.04027q-.06-.08532-.11949-.17128a2.60091,2.60091,0,0,1,3.18657-3.84982q.09566.0424.19078.08547a21.5268,21.5268,0,0,1,4.67716,2.9721,21.91582,21.91582,0,0,1,3.78819,4.047A16.09277,16.09277,0,0,1,436.05516,356.05993Z" fill="#5f7d37"/><path d="M438.69006,371.55852a17.83853,17.83853,0,0,1-6.11694-1.93326,25.0599,25.0599,0,0,1-4.90963-3.32635,24.61086,24.61086,0,0,1-3.99526-4.38073q-.05007-.07212-.09982-.14463a2.60032,2.60032,0,0,1,3.28919-3.79442q.07887.039.15738.07832a24.62806,24.62806,0,0,1,4.90328,3.333,25.06678,25.06678,0,0,1,3.98956,4.3874A17.82815,17.82815,0,0,1,438.69006,371.55852Z" fill="#5f7d37"/><path d="M440.20366,386.18195a20.39373,20.39373,0,0,1-6.667-1.79625,29.64118,29.64118,0,0,1-5.56381-3.27415,29.11916,29.11916,0,0,1-4.73071-4.39274l-.08608-.10255a2.59967,2.59967,0,0,1,3.01807-4.04625l.12272.05323a29.13418,29.13418,0,0,1,5.55937,3.28121,29.64583,29.64583,0,0,1,4.725,4.3998A20.394,20.394,0,0,1,440.20366,386.18195Z" fill="#5f7d37"/><path d="M441.70258,400.85258a20.57476,20.57476,0,0,1-6.75887-1.56895,29.96167,29.96167,0,0,1-5.71154-3.08663,29.41762,29.41762,0,0,1-4.91971-4.23533l-.0002-.00023a2.6237,2.6237,0,0,1,2.90064-4.20566h0a29.449,29.449,0,0,1,5.70711,3.09393,29.99143,29.99143,0,0,1,4.91463,4.24256A20.58159,20.58159,0,0,1,441.70258,400.85258Z" fill="#5f7d37"/><path d="M442.6993,413.18556a22.68494,22.68494,0,0,1-7.22437-1.148,33.75927,33.75927,0,0,1-6.31923-2.75431,33.153,33.153,0,0,1-5.63467-3.97l-.00022-.0002a2.61571,2.61571,0,0,1,2.50773-4.45126h0a33.15716,33.15716,0,0,1,6.31542,2.762,33.7621,33.7621,0,0,1,5.63024,3.97766A22.67051,22.67051,0,0,1,442.6993,413.18556Z" fill="#5f7d37"/><path d="M443.08214,426.92122a24.16637,24.16637,0,0,1-7.26052-2.13711,36.42646,36.42646,0,0,1-6.17509-3.62769,35.76493,35.76493,0,0,1-5.35342-4.75571l-.00025-.00028a2.611,2.611,0,0,1,3.00734-4.13009h0a35.74567,35.74567,0,0,1,6.17,3.63483,36.41912,36.41912,0,0,1,5.34835,4.76277A24.16917,24.16917,0,0,1,443.08214,426.92122Z" fill="#5f7d37"/><path d="M434.27012,345.02528a19.41819,19.41819,0,0,1-.1761-6.72083,27.89369,27.89369,0,0,1,1.54835-6.06752,27.40864,27.40864,0,0,1,2.85265-5.57315l.08415-.12273a2.59989,2.59989,0,0,1,4.71212,1.78535l-.0183.14757a27.40905,27.40905,0,0,1-1.5566,6.06443,27.89383,27.89383,0,0,1-2.8609,5.57006A19.41911,19.41911,0,0,1,434.27012,345.02528Z" fill="#5f7d37"/><path d="M437.0521,359.63024a16.61658,16.61658,0,0,1,.28682-6.15915,22.82429,22.82429,0,0,1,1.92954-5.32042,22.41339,22.41339,0,0,1,3.17174-4.68585l.039-.04319a2.63744,2.63744,0,0,1,4.523,2.31031l-.01213.05687a22.41056,22.41056,0,0,1-1.93716,5.31646,22.82748,22.82748,0,0,1-3.17935,4.68181A16.60509,16.60509,0,0,1,437.0521,359.63024Z" fill="#5f7d37"/><path d="M439.15925,373.75415a18.51629,18.51629,0,0,1,1.36857-6.40388,26.29248,26.29248,0,0,1,2.88007-5.34782,25.7921,25.7921,0,0,1,4.024-4.5486h0a2.634,2.634,0,0,1,4.18788,2.92632h0a25.78427,25.78427,0,0,1-2.88706,5.34275,26.28378,26.28378,0,0,1-4.031,4.54361A18.50559,18.50559,0,0,1,439.15925,373.75415Z" fill="#5f7d37"/><path d="M440.70636,389.33707a19.46431,19.46431,0,0,1,2.08815-6.40289,28.02191,28.02191,0,0,1,3.4944-5.211,27.54743,27.54743,0,0,1,4.55909-4.309l.11991-.08735a2.59989,2.59989,0,0,1,3.84528,3.25739l-.06642.13259a27.52637,27.52637,0,0,1-3.50138,5.20535,28.04746,28.04746,0,0,1-4.56607,4.30329A19.48754,19.48754,0,0,1,440.70636,389.33707Z" fill="#5f7d37"/><path d="M441.96253,402.33553a23.29573,23.29573,0,0,1,3.465-6.56072,34.85376,34.85376,0,0,1,4.70132-5.19253,34.25955,34.25955,0,0,1,5.636-4.15705l.00037-.00021a2.61389,2.61389,0,0,1,3.42471,3.79164h0a34.23306,34.23306,0,0,1-4.707,5.186,34.86015,34.86015,0,0,1-5.64235,4.15047A23.285,23.285,0,0,1,441.96253,402.33553Z" fill="#5f7d37"/><path d="M442.40959,413.72646a20.21122,20.21122,0,0,1,3.66155-5.813,29.31541,29.31541,0,0,1,4.74627-4.32219,28.78861,28.78861,0,0,1,5.56743-3.19393l.00009,0a2.62556,2.62556,0,0,1,3.0064,4.13121h0a28.79444,28.79444,0,0,1-4.752,4.31507,29.31188,29.31188,0,0,1-5.57252,3.18679A20.20326,20.20326,0,0,1,442.40959,413.72646Z" fill="#5f7d37"/><path d="M443.15092,422.71454a25.31687,25.31687,0,0,1,5.114-5.83494,38.47556,38.47556,0,0,1,6.02557-4.23193,37.79336,37.79336,0,0,1,6.71417-3.01886l.00038-.00013a2.60816,2.60816,0,0,1,2.52468,4.442h0a37.81563,37.81563,0,0,1-6.03,4.22432,38.47524,38.47524,0,0,1-6.71861,3.01117A25.31641,25.31641,0,0,1,443.15092,422.71454Z" fill="#5f7d37"/><path d="M462.38024,419.71686a2.60461,2.60461,0,0,1,1.6618,4.8127l-.00014.00009a35.09422,35.09422,0,0,1-6.38234,2.94632,34.45326,34.45326,0,0,1-6.83686,1.62731,23.17686,23.17686,0,0,1-7.4452-.132,23.1807,23.1807,0,0,1,5.77781-4.69737,34.46478,34.46478,0,0,1,6.38425-2.938,35.0902,35.0902,0,0,1,6.84067-1.61906Z" fill="#5f7d37"/><path d="M444.60737,449.54237c.17572-.5938,17.51417-59.66375,11.825-81.09737l.89853-.23776c5.756,21.68483-11.111,79.16331-11.832,81.59942Z" fill="#c4ce6e"/><path d="M457.0795,369.55776a10.87541,10.87541,0,0,1-1.88343-3.75051,14.51264,14.51264,0,0,1-.565-3.77245,14.26077,14.26077,0,0,1,.43353-3.78886l.01031-.03864a1.8951,1.8951,0,0,1,3.6322-.06021l.01158.03823a14.26259,14.26259,0,0,1,.55872,3.77257,14.511,14.511,0,0,1-.43975,3.789A10.87548,10.87548,0,0,1,457.0795,369.55776Z" fill="#c4ce6e"/><path d="M457.77682,383.84655a7.408,7.408,0,0,1-4.19058-1.03219,9.74357,9.74357,0,0,1-3.09759-2.82017,8.89512,8.89512,0,0,1-1.57323-4.00546l-.0061-.048a1.87621,1.87621,0,0,1,3.33076-1.35022q.04994.06131.10016.12224c.71409.88144,1.3184,1.72762,1.95249,2.61233a33.70719,33.70719,0,0,1,1.81327,2.85911A22.08246,22.08246,0,0,1,457.77682,383.84655Z" fill="#c4ce6e"/><path d="M457.82824,374.77214a7.408,7.408,0,0,1-4.19058-1.0322,9.74347,9.74347,0,0,1-3.0976-2.82016,8.89539,8.89539,0,0,1-1.57323-4.00547l-.00609-.048a1.87621,1.87621,0,0,1,3.33076-1.35021q.04994.06129.10015.12224c.71409.88143,1.31841,1.72761,1.9525,2.61233a33.709,33.709,0,0,1,1.81327,2.85911A22.0817,22.0817,0,0,1,457.82824,374.77214Z" fill="#c4ce6e"/><path d="M458.01523,377.22579a11.49657,11.49657,0,0,1,.58242-4.29085,15.63012,15.63012,0,0,1,1.69353-3.58022,15.35186,15.35186,0,0,1,2.53452-3.04236l.064-.0576a1.87786,1.87786,0,0,1,3.04069,1.9442l-.02555.08265a15.351,15.351,0,0,1-1.699,3.57676,15.64911,15.64911,0,0,1-2.53954,3.03909A11.50505,11.50505,0,0,1,458.01523,377.22579Z" fill="#c4ce6e"/><path d="M456.49179,396.3255a11.51954,11.51954,0,0,1-3.66731-2.31107,15.67767,15.67767,0,0,1-2.56-3.02808,15.40014,15.40014,0,0,1-1.72233-3.5709q-.02266-.0711-.04482-.14252a1.86064,1.86064,0,0,1,3.0004-1.944q.05619.04946.11188.09924a15.40044,15.40044,0,0,1,2.55465,3.03146,15.67882,15.67882,0,0,1,1.71743,3.57441A11.51258,11.51258,0,0,1,456.49179,396.3255Z" fill="#c4ce6e"/><path d="M454.9662,407.468a12.76127,12.76127,0,0,1-3.76006-2.63124,17.92786,17.92786,0,0,1-2.63734-3.32309,17.60643,17.60643,0,0,1-1.78717-3.84657l-.03711-.12012a1.86021,1.86021,0,0,1,3.05855-1.8842l.09061.0872a17.61834,17.61834,0,0,1,2.63158,3.32627,17.93278,17.93278,0,0,1,1.78185,3.84991A12.7539,12.7539,0,0,1,454.9662,407.468Z" fill="#c4ce6e"/><path d="M452.863,417.77278a14.58921,14.58921,0,0,1-4.16485-2.65572,21.20483,21.20483,0,0,1-3.095-3.42775,20.83091,20.83091,0,0,1-2.28652-4.01249l-.03676-.08845a1.85976,1.85976,0,0,1,2.92753-2.11422l.07234.06265a20.84222,20.84222,0,0,1,3.09045,3.43162,21.20844,21.20844,0,0,1,2.28112,4.01609A14.58955,14.58955,0,0,1,452.863,417.77278Z" fill="#c4ce6e"/><path d="M450.73974,428.10661a14.71909,14.71909,0,0,1-4.2763-2.52029,21.43377,21.43377,0,0,1-3.236-3.33146,21.04406,21.04406,0,0,1-2.44927-3.9456l-.00009-.0002a1.87694,1.87694,0,0,1,2.88157-2.24819h0a21.06748,21.06748,0,0,1,3.23144,3.33549,21.456,21.456,0,0,1,2.44426,3.94944A14.72385,14.72385,0,0,1,450.73974,428.10661Z" fill="#c4ce6e"/><path d="M448.775,436.73734a16.22868,16.22868,0,0,1-4.68427-2.3328,24.15051,24.15051,0,0,1-3.722-3.235,23.717,23.717,0,0,1-2.99413-3.91782l-.00011-.00019a1.87123,1.87123,0,0,1,2.66609-2.50007h0a23.71974,23.71974,0,0,1,3.71779,3.23942,24.1526,24.1526,0,0,1,2.98945,3.92213A16.21806,16.21806,0,0,1,448.775,436.73734Z" fill="#c4ce6e"/><path d="M446.09054,446.19372a17.28808,17.28808,0,0,1-4.4968-3.01563,26.0583,26.0583,0,0,1-3.43636-3.80014,25.58485,25.58485,0,0,1-2.63367-4.39376l-.00012-.00024a1.86786,1.86786,0,0,1,2.93819-2.17374h0a25.57212,25.57212,0,0,1,3.43137,3.80392,26.05341,26.05341,0,0,1,2.6287,4.39749A17.28991,17.28991,0,0,1,446.09054,446.19372Z" fill="#c4ce6e"/><path d="M457.64,388.41179a13.89158,13.89158,0,0,1,1.32117-4.62459,19.95436,19.95436,0,0,1,2.358-3.80888,19.60673,19.60673,0,0,1,3.14209-3.19176l.08375-.06572a1.85991,1.85991,0,0,1,2.833,2.229l-.04413.09679a19.60855,19.60855,0,0,1-2.36293,3.805,19.9553,19.9553,0,0,1-3.14706,3.18788A13.8921,13.8921,0,0,1,457.64,388.41179Z" fill="#c4ce6e"/><path d="M456.40648,398.976a11.88719,11.88719,0,0,1,1.51665-4.142,16.32825,16.32825,0,0,1,2.45789-3.21725,16.03393,16.03393,0,0,1,3.16957-2.51777l.03587-.02112a1.88678,1.88678,0,0,1,2.59137,2.54675l-.02047.0362a16.03257,16.03257,0,0,1-2.46225,3.21292,16.32983,16.32983,0,0,1-3.1739,2.51338A11.879,11.879,0,0,1,456.40648,398.976Z" fill="#c4ce6e"/><path d="M454.81553,409.06711a13.24615,13.24615,0,0,1,2.3074-4.077,18.80889,18.80889,0,0,1,3.11249-3.0321,18.45089,18.45089,0,0,1,3.72179-2.24132h0a1.8843,1.8843,0,0,1,2.23055,2.89528h0a18.44643,18.44643,0,0,1-3.11616,3.02714,18.80254,18.80254,0,0,1-3.7255,2.23641A13.23868,13.23868,0,0,1,454.81553,409.06711Z" fill="#c4ce6e"/><path d="M452.52947,420.03389a13.92432,13.92432,0,0,1,2.79829-3.922,20.04652,20.04652,0,0,1,3.50239-2.807,19.70677,19.70677,0,0,1,4.03559-1.963l.10057-.0339a1.85991,1.85991,0,0,1,1.92573,3.04776l-.07376.07624a19.69122,19.69122,0,0,1-3.506,2.80162,20.06473,20.06473,0,0,1-4.03912,1.95765A13.941,13.941,0,0,1,452.52947,420.03389Z" fill="#c4ce6e"/><path d="M450.59911,429.17443a16.66529,16.66529,0,0,1,3.77181-3.73443,24.93333,24.93333,0,0,1,4.32214-2.53553,24.50829,24.50829,0,0,1,4.738-1.62838l.00029-.00007a1.86992,1.86992,0,0,1,1.52413,3.32217h0a24.489,24.489,0,0,1-4.32465,2.52987,24.9375,24.9375,0,0,1-4.74089,1.62253A16.65758,16.65758,0,0,1,450.59911,429.17443Z" fill="#c4ce6e"/><path d="M448.46131,437.04436a14.45886,14.45886,0,0,1,3.74559-3.182,20.97173,20.97173,0,0,1,4.16616-1.93191,20.59491,20.59491,0,0,1,4.48462-.98578h.00007a1.87827,1.87827,0,0,1,1.16581,3.46421h0a20.5988,20.5988,0,0,1-4.16854,1.92582,20.96878,20.96878,0,0,1-4.48655.97982A14.453,14.453,0,0,1,448.46131,437.04436Z" fill="#c4ce6e"/><path d="M447.03965,443.3375a18.11114,18.11114,0,0,1,4.74156-2.88545,27.52353,27.52353,0,0,1,5.0199-1.59595,27.03671,27.03671,0,0,1,5.22969-.62038h.00028a1.86582,1.86582,0,0,1,.7704,3.573h0a27.0527,27.0527,0,0,1-5.0213,1.5898,27.52412,27.52412,0,0,1-5.23107.61417A18.11053,18.11053,0,0,1,447.03965,443.3375Z" fill="#c4ce6e"/><path d="M460.80611,445.41559a1.86329,1.86329,0,0,1,.102,3.641l-.00012,0a25.10567,25.10567,0,0,1-4.98767.642,24.64735,24.64735,0,0,1-5.015-.35564,16.58039,16.58039,0,0,1-5.05287-1.68679,16.58292,16.58292,0,0,1,4.95063-1.96673,24.65581,24.65581,0,0,1,4.98719-.636,25.10335,25.10335,0,0,1,5.01582.36209Z" fill="#c4ce6e"/><path d="M584.97566,451.09668H128.45711a1,1,0,1,1,0-2H584.97566a1,1,0,0,1,0,2Z" fill="#935b50"/></svg>