<svg xmlns="http://www.w3.org/2000/svg" viewBox="0 0 508.78047 318.49076"><title>Asset 4</title><g id="Layer_2" data-name="Layer 2"><g id="Layer_1-2" data-name="Layer 1"><path d="M120.33228,195.08881c12.24444,66.93151,153.59449,176.95772,201.31,88.41861,25.11638-46.60522,99.58158-113.91916,156.96832-153.96214C534.4111,90.60881,376.23683,23.02758,277.301,41.12689S108.08784,128.15731,120.33228,195.08881Z" fill="#efedef"/><path d="M101.89324,196.91533C88.42546,123.29522,165.87956,47.22783,274.55046,27.347c39.54493-7.23339,92.77832-2.28515,142.3916,13.23828,47.39258,14.83106,81.875,36.13086,89.98926,55.58887,4.53418,10.875.69239,20.97754-11.1123,29.21387l-.666-.95313c11.46387-7.999,15.06543-17.35644,10.70508-27.81347-7.98633-19.14942-42.18945-40.19531-89.26367-54.92578C367.154,26.2249,314.12859,21.28838,274.75945,28.4915c-108.04,19.76465-185.07422,95.22559-171.72168,168.21485Z" fill="#efedef"/><rect x="192.97236" width="216.6623" height="133.51097" fill="#c0d6f2"/><path d="M390.19792,43.12334a1.11349,1.11349,0,0,1-.46484-.09766h0a1.55846,1.55846,0,0,1-.7666-1.01171,4.90563,4.90563,0,0,1,.49316-3.67188A4.81073,4.81073,0,0,1,392.2907,36.181a1.5267,1.5267,0,0,1,1.21582.1582c.91992.6416.542,2.59082.08789,3.669a5.8783,5.8783,0,0,1-2.75977,2.98144A1.76151,1.76151,0,0,1,390.19792,43.12334Zm-.25781-.55273a.95135.95135,0,0,0,.71192-.04688,5.4113,5.4113,0,0,0,2.48144-2.709c.42676-1.01367.69434-2.64258.08789-3.06543a1.08148,1.08148,0,0,0-.82422-.0791,4.31545,4.31545,0,0,0-2.50586,1.92578,4.42242,4.42242,0,0,0-.44726,3.26758,1.108,1.108,0,0,0,.49609.707Z" fill="#a6b862"/><path d="M246.01174,16.29027a.75045.75045,0,0,0,0-1.5.75045.75045,0,0,0,0,1.5Z" fill="#a6b862"/><path d="M249.21852,16.29027a.75045.75045,0,0,0,0-1.5.75045.75045,0,0,0,0,1.5Z" fill="#a6b862"/><path d="M245.37645,15.75194c2.08041.11105,4.15688.16317,6.23949.0686a28.10142,28.10142,0,0,0,3.11275-.22932c.83891-.13368,2.10987.24124,1.22438-.3787-1.44311-1.01032-3.68139-.322-4.8198.70745a.75855.75855,0,0,0,.53033,1.28033,8.88559,8.88559,0,0,0,3.38373-.077l-.19938-1.47321c-3.10648.71074-5.91912,1.72363-6.78229,5.04646a.7538.7538,0,0,0,1.37081.57792,15.75617,15.75617,0,0,1,4.46872-4.22524c.80038-.527.0786-1.79536-.75708-1.29521a10.51466,10.51466,0,0,0-4.44416,4.19608.75351.75351,0,0,0,1.17793.90887l3.96606-1.67919-.53033-1.28033c-1.46252,1.55241-3.68539,1.61267-4.94493,3.37737-1.49944,2.10083-.73536,5.19344-3.51945,6.63445l.90887,1.17793,3.19022-1.4247-.33095-1.25354-1.77418.91333a.75348.75348,0,0,0,.19938,1.47321l2.04757.03177-.53033-1.28033-.45441.48169a.75756.75756,0,0,0,.331,1.25354l1.634.41464V28.25236l-1.42764.35446A.75347.75347,0,0,0,248.8461,30.08a19.50636,19.50636,0,0,0,4.05487-.36648.75907.75907,0,0,0,.44823-1.10175c-.40715-.8337-.53425-.87247-1.38456-1.22778-.79409-.33182-1.2998.9592-.57792,1.37081a7.763,7.763,0,0,0,1.91155.86438l-.17916-1.37081-.27615.178a.778.778,0,0,0-.34467.847l.08087.37846a.7634.7634,0,0,0,.72321.55062,12.35862,12.35862,0,0,0,1.6048.04245.75045.75045,0,0,0,0-1.5l-1.42946-.00515a.75045.75045,0,0,0,0,1.5l1.83517.0252-.37854-1.3976-.83443.3375a.75046.75046,0,0,0,0,1.5,32.27716,32.27716,0,0,1,5.07064.65376l.19938-1.47321-2.61343-.09592a.75754.75754,0,0,0-.64761,1.12854l.84914,1.62525.44822-1.10175-1.85406-.135-.39876,1.44641,4.57518.99521c.7806.1698,1.39567-1.007.57792-1.37081l-1.30391-.5801c-.72569-.32285-1.57479.54573-.90887,1.17793l.82735.78547.53033-1.28033a17.59038,17.59038,0,0,1-3.38593.08252c-.82285-.01962-1.05039,1.34385-.19938,1.47321l1.94207.29521.19938-1.47321-.93562-.11062c-.77751-.09193-.96537,1.04313-.37854,1.3976l.77555.46846.17916-1.37081c-.73051.19771-1.32974-.09055-2.08764.12893a.76793.76793,0,0,0-.55062.72321c-.02638,1.71379,1.21615,2.56783,2.75281,2.93343V35.5819l-.47846-.12225-.57792,1.37082,1.26808.48666c.53884.296,1.32515-.20148,1.10175-.847a9.89718,9.89718,0,0,0-2.18141-3.53595c-.537-.65284-1.66242.20868-1.17793.90887.681.98421.07974,2.6225,2.425,3.65643.87517.38582,1.63941-.90623.75708-1.2952l-1.72338-1.80363a.77393.77393,0,0,0,.11728-.90887l-.2808-.40581-1.17794.90887a8.538,8.538,0,0,1,1.79565,2.874l1.10175-.847a4.32751,4.32751,0,0,0-1.6264-.63788.75346.75346,0,0,0-.57792,1.37081,1.94069,1.94069,0,0,0,1.6343.27346c.75116-.10364.67747-1.28523,0-1.44642-2.61583-.62236-.66075-.74491-.11455-.89274a.75887.75887,0,0,0,.17916-1.37081l-.77555-.46846L257.072,34.2475l.93562.11062c.83145.0983,1.03506-1.34618.19938-1.47321l-1.94207-.29521-.19938,1.47321a17.59038,17.59038,0,0,0,3.38593-.08252.75951.75951,0,0,0,.53033-1.28033l-.82735-.78547-.90887,1.17794,1.30391.58009.57792-1.37081-4.57518-.9952a.75065.75065,0,0,0-.39876,1.44641,3.94034,3.94034,0,0,0,2.65158.135.75742.75742,0,0,0,.44823-1.10175L257.4041,30.161l-.6476,1.12854,2.61343.09592a.75338.75338,0,0,0,.19938-1.47321,34.50847,34.50847,0,0,0-5.4694-.70734v1.5a1.89551,1.89551,0,0,0,1.59151-.54229.7571.7571,0,0,0-.37854-1.39761l-1.83517-.0252v1.5l1.42946.00515v-1.5q-1.11-.38122-1.031.79866a.76032.76032,0,0,0-.17916-1.37081l-1.55323-.71318-.57792,1.37082.48811.53844.44822-1.10175a12.15133,12.15133,0,0,1-3.65611.3129l.19938,1.47321,1.42764-.35446a.756.756,0,0,0,0-1.44642l-1.634-.41463.331,1.25354.45441-.4817a.75892.75892,0,0,0-.53033-1.28033l-2.04757-.03177.19938,1.47321a3.65171,3.65171,0,0,0,2.43608-1.29909.7551.7551,0,0,0-.331-1.25354c-1.66809-.39362-3.63639.08328-2.799,2.18983a.79733.79733,0,0,0,.72321.55062c1.3262.13236,3.55209-.40377,3.06-2.19835-.76772-2.79965-4.70642.29888-5.63382,1.26836a.75336.75336,0,0,0,.90887,1.17793c1.84718-.95608,2.18871-2.14417,2.92693-3.94445.99522-2.427,1.70022-3.65484,4.00377-4.92231a5.732,5.732,0,0,0,1.83726-1.3796c.4064-.43137.15342-1.34918-.53033-1.28033a8.231,8.231,0,0,0-5.02672,2.11853l1.17794.90887a9.15627,9.15627,0,0,1,3.906-3.65795l-.75708-1.29521a18.96541,18.96541,0,0,0-5.00685,4.76337l1.37082.57792c.74967-2.88591,3.34276-3.45156,5.73463-3.9988.80641-.1845.65114-1.57453-.19938-1.47321a8.88559,8.88559,0,0,1-3.38373.077l.53033,1.28033c2.10522-1.90368,5.84359,1.38338,7.5356-1.54687a.74176.74176,0,0,0,0-.75708c-.74749-1.0641-.82005-.81355-2.10536-.96313-1.52952-.178-4.307.52739-6.00823.607a62.25025,62.25025,0,0,1-6.23949-.0686c-.96465-.0515-.96181,1.44865,0,1.5Z" fill="#a6b862"/><path d="M222.87532,26.33036a8.284,8.284,0,0,0,2.88733,1.66073c.918.30548,1.31171-1.14263.39876-1.44641a6.42213,6.42213,0,0,1-2.22543-1.275c-.72241-.63517-1.78734.42173-1.06066,1.06066Z" fill="#a6b862"/><path d="M229.97686,29.45377a12.80443,12.80443,0,0,1,4.63853,1.23318c.86618.41577,1.62794-.87718.75708-1.29521a14.82377,14.82377,0,0,0-5.39561-1.438c-.96308-.07026-.95863,1.43006,0,1.5Z" fill="#a6b862"/><path d="M229.25822,23.91372a6.28722,6.28722,0,0,0,3.76571,1.03037c.96115-.04481.96663-1.54506,0-1.5a4.89574,4.89574,0,0,1-3.00863-.82557c-.80906-.53169-1.56136.76666-.75708,1.2952Z" fill="#a6b862"/><path d="M235.38134,19.41752a2.87783,2.87783,0,0,0,2.933,1.99518c.95376-.08565.96276-1.58645,0-1.5a1.37888,1.37888,0,0,1-1.4866-.89394c-.30512-.91066-1.75432-.52018-1.44642.39876Z" fill="#a6b862"/><path d="M241.75568,17.061a6.07731,6.07731,0,0,0,3.13552,2.09819.75064.75064,0,0,0,.39876-1.44642,4.75633,4.75633,0,0,1-2.47362-1.71243.75468.75468,0,0,0-1.06066,0,.76839.76839,0,0,0,0,1.06066Z" fill="#a6b862"/><path d="M279.52574,30.68159c2.02831,1.09264,4.1993,2.7475,6.61018,2.40245.95179-.13622.54695-1.58177-.39876-1.44642-1.79956.25756-3.935-1.43276-5.45434-2.25124-.84985-.4578-1.60816.83674-.75708,1.29521Z" fill="#a6b862"/><path d="M301.64387,14.77983a8.73936,8.73936,0,0,1,4.1871,1.46554c.80786.53347,1.56-.765.75708-1.2952a10.30467,10.30467,0,0,0-4.94418-1.67034c-.96255-.07522-.95767,1.42516,0,1.5Z" fill="#a6b862"/><path d="M308.06422,14.21981a14.39587,14.39587,0,0,1,3.01214.08c.94406.13115,1.35227-1.314.39875-1.44642a16.19326,16.19326,0,0,0-3.41089-.13363c-.95728.06859-.96481,1.56913,0,1.5Z" fill="#a6b862"/><path d="M328.95088,24.5823c-.433-2.012,1.07085-2.6147,2.49271-3.44464,1.27468-.744,2.1276-2.5145,3.70992-2.61561.95861-.06126.9655-1.5617,0-1.5a4.17594,4.17594,0,0,0-2.58227,1.13329,13.84664,13.84664,0,0,1-2.93713,2.17993,4.10833,4.10833,0,0,0-2.12965,4.64579c.203.94323,1.64933.54408,1.44642-.39876Z" fill="#a6b862"/><path d="M335.96136,25.42567l.92956.00514c.15492.00086.30988.00056.46479.00257q.07788-.00061.15572.00228.28293.02937-.21919-.27592c-.09741.11933.00385.66388.004.829l.00111,1.09637a.75045.75045,0,0,0,1.5,0c-.00054-.53155.00179-1.06319-.00161-1.59472a1.64051,1.64051,0,0,0-.293-1.1375c-.56906-.65415-1.768-.42291-2.54142-.42719a.75045.75045,0,0,0,0,1.5Z" fill="#a6b862"/><path d="M237.16591,24.07294a3.80711,3.80711,0,0,1,1.39707.68469.77435.77435,0,0,0,1.06066,0,.75466.75466,0,0,0,0-1.06066,5.6001,5.6001,0,0,0-2.059-1.07045.75064.75064,0,0,0-.39876,1.44642Z" fill="#a6b862"/><path d="M236.43548,27.04218a5.31186,5.31186,0,0,0,4.6762,1.4026c.94955-.16259.54695-1.60836-.39876-1.44642a3.72009,3.72009,0,0,1-3.21678-1.01684c-.69685-.66826-1.75905.39092-1.06066,1.06066Z" fill="#a6b862"/><path d="M242.78713,23.7819a2.30777,2.30777,0,0,1-.11614,2.30451c-.50592.82522.79093,1.57962,1.2952.75708a3.85,3.85,0,0,0,.11615-3.81867c-.44087-.8591-1.7356-.10109-1.29521.75708Z" fill="#a6b862"/><path d="M247.40046,32.752l.9642.79909c.738.61163,1.80489-.44387,1.06066-1.06066l-.9642-.79909c-.738-.61163-1.8049.44388-1.06066,1.06066Z" fill="#a6b862"/><path d="M246.90717,36.08316a7.8252,7.8252,0,0,0,4.55645,1.2169c.96161-.04137.96678-1.54159,0-1.5a6.40183,6.40183,0,0,1-3.79937-1.01211c-.818-.51785-1.57145.77967-.75708,1.29521Z" fill="#a6b862"/><path d="M248.49594,68.24715a8.01112,8.01112,0,0,0,7.13605,3.03871c.95112-.0967.96109-1.59772,0-1.5a6.66106,6.66106,0,0,1-6.07539-2.59938c-.59335-.76017-1.64807.3081-1.06066,1.06067Z" fill="#a6b862"/><path d="M322.85915,93.52207c.20795-1.14722.41354-2.2949.62385-3.4417.16691-.91015.24469-2.06014,1.16308-2.52285.86225-.43441.10369-1.72887-.75708-1.2952a3.28806,3.28806,0,0,0-1.62009,2.25909c-.39918,1.49584-.58017,3.07918-.85618,4.6019-.17108.94382,1.27423,1.34867,1.44642.39876Z" fill="#a6b862"/><path d="M343.06879,72.46077v.32068a.75045.75045,0,0,0,1.5,0v-.32068a.75045.75045,0,0,0-1.5,0Z" fill="#a6b862"/><path d="M354.38061,70.52322c.308,2.50371.74162,5.21881,2.83768,6.883.74836.59417,1.8167-.4604,1.06066-1.06066-1.77414-1.4086-2.13689-3.69688-2.39834-5.82235-.11634-.94575-1.61777-.95742-1.5,0Z" fill="#a6b862"/><path d="M289.07315,40.1955a4.621,4.621,0,0,0,.1213,2.009.75064.75064,0,0,0,1.44642-.39876,2.83257,2.83257,0,0,1-.1213-1.21148.77682.77682,0,0,0-.52383-.92259.75467.75467,0,0,0-.92259.52383Z" fill="#a6b862"/><path d="M290.54232,38.70228c3.54929,1.77109,4.54036,6.48086,7.18922,9.11548,1.03671,1.03113,2.38453,1.64827,3.43486,2.7306a8.47657,8.47657,0,0,0,3.02077,2.20652c.891.36887,1.2795-1.08181.39876-1.44642-1.67489-.69338-2.50485-2.25074-3.89729-3.286a13.75145,13.75145,0,0,1-3.60252-3.88373c-1.49184-2.24149-3.31444-5.498-5.78672-6.73168-.86124-.42976-1.62186.86368-.75708,1.2952Z" fill="#a6b862"/><path d="M371.19785,49.01915a10.11807,10.11807,0,0,0,.95786,6.04177c.428.86526,1.72221.10616,1.29521-.75708a8.33648,8.33648,0,0,1-.80666-4.88594c.13226-.9441-1.31285-1.35221-1.44641-.39875Z" fill="#a6b862"/><path d="M374.97524,59.046c1.24567-1.3833,2.88-2.05148,4.06878-3.50237,1.0524-1.28438,2.07-2.65147,3.07168-3.98363,2.11532-2.81332,2.38-5.59754,1.64541-8.97214-.20523-.94278-1.6516-.54381-1.44641.39876.9536,4.38062-.62306,6.59979-3.18679,9.85029a15.13633,15.13633,0,0,1-3.05385,3.40113,12.00373,12.00373,0,0,0-2.15948,1.7473c-.64446.71568.413,1.77985,1.06066,1.06066Z" fill="#a6b862"/><path d="M367.95827,66.726l.28232,1.76985a.75521.75521,0,0,0,.92258.52383.76865.76865,0,0,0,.52383-.92259l-.28231-1.76985a.75521.75521,0,0,0-.92259-.52383.76867.76867,0,0,0-.52383.92259Z" fill="#a6b862"/><path d="M362.04832,77.67452a2.28883,2.28883,0,0,0,2.08856-.844,4.81906,4.81906,0,0,1,2.492-1.37552c.94468-.19542.54488-1.64163-.39876-1.44642a5.86227,5.86227,0,0,0-2.0533.83136,6.49307,6.49307,0,0,0-.7527.5862c-.186.16772-.68048.85065-.977.80191-.94431-.15519-1.3505,1.29-.39876,1.44642Z" fill="#a6b862"/><path d="M359.60545,80.38036c1.35346.66064,2.16676,2.24976,3.2149,3.29171a19.02835,19.02835,0,0,0,3.61451,2.7845.75056.75056,0,0,0,.75708-1.29521,17.32572,17.32572,0,0,1-3.9476-3.21751c-.92014-1.01794-1.61158-2.23868-2.88181-2.8587-.86411-.42179-1.62538.87137-.75708,1.29521Z" fill="#a6b862"/><path d="M369.37019,82.52472c.29863-.06715.764.39064,1.01907.52445a1.90945,1.90945,0,0,0,1.19686.25576,1.54407,1.54407,0,0,0,1.04046-.68936c.23436-.34885.29746-.81675.58763-1.12454.66192-.7021-.39679-1.76483-1.06066-1.06066a3.412,3.412,0,0,0-.61163,1.02729c-.1399.3101-.13834.42271-.4672.25541-.72134-.367-1.23975-.82894-2.10329-.63477-.94142.21168-.543,1.65818.39876,1.44642Z" fill="#a6b862"/><path d="M374.24141,84.57509l1.60034.64887a.75562.75562,0,0,0,.92259-.52383.76754.76754,0,0,0-.52383-.92259l-1.60034-.64887a.75562.75562,0,0,0-.92259.52383.76754.76754,0,0,0,.52383.92259Z" fill="#a6b862"/><path d="M385.16707,84.58593c2.69053.08844,4.35416,2.81533,6.70025,3.82126.8776.37629,1.64263-.91551.75708-1.29521-2.68136-1.14967-4.32192-3.923-7.45733-4.026-.9655-.03174-.96436,1.4683,0,1.5Z" fill="#a6b862"/><path d="M386.43305,86.692a5.52836,5.52836,0,0,1,1.94089,1.54965.77653.77653,0,0,0,1.02614.26906.75419.75419,0,0,0,.26907-1.02614,7.146,7.146,0,0,0-2.479-2.08777c-.86125-.42974-1.62187.8637-.75708,1.2952Z" fill="#a6b862"/><path d="M369.72306,73.10411a1.72579,1.72579,0,0,0,1.875.763,1.698,1.698,0,0,0,1.21454-1.73046c-.05523-.95961-1.55559-.966-1.5,0,.00958.16642-.1292.44962-.29432.21038-.54479-.78929-1.84543-.04009-1.29521.75708Z" fill="#a6b862"/><path d="M395.51557,112.88457c2.14917-2.74645,5.70337-5.91977,4.80932-9.75667-.219-.93976-1.66562-.542-1.44642.39875.716,3.0727-2.69332,6.08617-4.42356,8.29726-.58821.75167.46606,1.82051,1.06066,1.06066Z" fill="#a6b862"/><path d="M389.88791,109.33884a3.05369,3.05369,0,0,0,.69707,1.81612.75488.75488,0,0,0,1.06066,0,.768.768,0,0,0,0-1.06066,1.32618,1.32618,0,0,1-.25773-.75546c-.04577-.961-1.546-.96657-1.5,0Z" fill="#a6b862"/><path d="M251.94426,78.83427c-1.23422,1.07307-.44055,2.06369-2.241,5.3223-1.46771,2.65634-2.59567,3.085-2.44887,4.41829.165,1.49861,1.67583,1.73715,3.60757,3.96844a14.95684,14.95684,0,0,1,2.88616,5.41144,12.83466,12.83466,0,0,1-1.08229,8.6583,15.50652,15.50652,0,0,0-1.08229,10.10139c.82784,3.20135,2.83274,6.01892,3.60765,5.77223.86659-.27582-.86307-4.04666,1.08229-7.93681a42.065,42.065,0,0,1,4.32915-4.68994c3.98835-4.07928,4.61606-4.59787,5.41144-6.13294.98842-1.90768.73732-2.49323,1.80379-3.60765,1.727-1.8046,3.34041-1.26717,4.32923-2.88608.90059-1.47447-.17436-2.35166.7215-4.32915.94218-2.07968,2.63775-2.22794,2.52537-3.24694-.14973-1.35778-3.30077-2.37262-5.77223-2.52529-2.15781-.13326-2.55946.46722-3.60766,0-2.08979-.93141-1.38533-3.71579-3.24686-6.133C260.24544,77.72425,254.297,76.78859,251.94426,78.83427Z" fill="#a6b862"/><path d="M294.43425,54.63919c-3.69843.84269-4.17866,1.44835-5.33133,2.54924-1.02659.98051-.49388,1.56654-1.80379,3.24686-1.42366,1.82621-2.41111,1.59346-2.88607,2.88615-.14949.40687-.16156.72909.7215,4.32916a16.90115,16.90115,0,0,0,1.20258,3.96836,5.57287,5.57287,0,0,0,1.98418,2.58547c.719.41551,1.41225.45425,5.53173-.06011,2.96844-.37057,3.30493-.47765,4.02846-.24049a6.46531,6.46531,0,0,1,3.36716,3.307,9.87393,9.87393,0,0,1,1.14239,4.56974c.08465,1.9739-.367,2.4368-.42089,4.08865-.063,1.9328.50652,2.79327,1.74376,6.19312,2.222,6.10611,1.88216,7.446,3.24686,7.99691,1.79066.72289,4.26579-.821,5.53165-2.16457,1.87547-1.99063.97807-3.41568,3.42726-7.51591.96877-1.62193,1.40418-1.89277,1.74368-3.12666.59306-2.15544-.25028-3.09224.1804-5.11084.32768-1.53555,1.1304-2.46827,2.64565-4.22892,2.87148-3.33649,5.2233-4.10586,4.97049-5.05065-.30126-1.12592-3.62282.03588-5.93256-2.00424-1.67779-1.482-.84775-2.91-2.64558-6.41364-1.04844-2.04323-2.513-4.89742-4.97056-5.37132-2.10431-.40581-2.94374,1.31789-6.24964,1.0482a5.726,5.726,0,0,1-3.37067-1.0482c-1.79514-1.45213-1.11507-3.44863-2.56549-4.249C298.76865,54.2955,297.72572,53.88923,294.43425,54.63919Z" fill="#a6b862"/><path d="M293.31186,47.44783c.04168-1.80044,1.69785-3.14418,2.56541-3.84815a8.84019,8.84019,0,0,1,3.04649-1.60341,12.13272,12.13272,0,0,1,4.00849-.32067c2.98124.05587,2.97937.49731,3.84815.16034,1.67428-.64941,1.31047-2.14509,3.59844-3.74744,1.25828-.88118,2.173-.99241,2.17379-1.54379.0009-.64321-1.24254-1.35093-2.40516-1.443-1.34171-.10626-2.08612.64631-2.40507.32067-.28511-.29107.14622-1.05913,1.12241-3.36716.89553-2.11744.94357-2.44275.80166-2.56541-.36527-.31569-1.8585.8241-2.5654,1.44308A8.92884,8.92884,0,0,0,304.696,33.9793c-.92212,1.99193-.32393,2.86218-1.12241,3.52749-1.28063,1.067-4.50408.23242-4.97049-1.28275-.23927-.77728.74581-1.97187,2.72575-4.32915a25.43821,25.43821,0,0,1,3.68782-3.84815c1.87816-1.52773,2.81732-2.29156,4.32915-2.56541,1.47235-.26668,2.6384.08946,4.97056.80166,1.34367.41038,2.7149.8413,2.72574,1.44308.01493.82515-2.54224,1.17452-2.5654,2.24474-.01028.47562.49192.53067.962,1.44308.61752,1.19866.214,2.0031.64133,2.24474.51232.28976,1.42514-.67819,3.04649-1.92407a18.13513,18.13513,0,0,1,4.00849-2.56541,13.245,13.245,0,0,1,5.1309-.96208c1.95156.08057,3.12233.653,3.68774,0,.58962-.681-.1848-1.87939.32074-2.24474.60358-.43623,2.28291.85573,3.04641,1.44307,1.95009,1.50017,2.07095,2.29066,3.04649,2.40508,1.44389.1693,3.15536-1.33086,3.04641-2.40508-.09983-.98409-1.68823-1.22255-1.60342-1.92407.08213-.67942,1.68317-1.37555,2.88616-.96208.93933.32287.92244,1.07707,1.92408,1.44308,1.16367.42521,2.53743-.09925,2.5654-.481.02659-.36242-1.17664-.36829-2.0844-1.44308-.62764-.74311-.95-1.80322-.64134-2.08441.35875-.32686,1.20666.72949,2.56541.64133.51957-.03376.81863-.21571,2.56541-1.443,2.61377-1.83657,2.70478-1.96363,3.20682-2.08441,1.54747-.37237,2.0261.51166,3.20674,0,1.43158-.62046,1.48345-2.2476,2.40516-2.24475.75877.00237.842,1.10545,2.08441,1.60333,1.19556.47913,2.33657-.05423,2.40507.16034.10806.3386-2.961.95677-3.36715,2.72582a1.845,1.845,0,0,0,.64133,1.92408c1.03458.56817,2.19532-1.433,4.32923-1.28275,1.17852.08294,1.13628.71522,2.88608,1.12241,1.67428.38958,2.01288-.11947,3.52748.16034,2.15161.39748,2.20079,1.56,4.00849,1.92407,1.80077.36267,2.251-.69051,4.97048-1.12241a15.45438,15.45438,0,0,1,6.0929.481c3.27867.70339,3.13244,1.37172,6.09289,1.92408a25.19078,25.19078,0,0,0,6.25323.32074c2.96486-.26635,3.79319-.95824,4.6499-.32074,1.36471,1.01557,1.15634,4.18048-.16033,6.25322-1.25485,1.97538-3.80672,3.416-5.77223,2.88616-1.18056-.31822-1.30892-1.12078-3.36715-1.92408-1.20218-.46917-2.05448-.80183-2.88608-.481-1.48165.57161-1.02414,2.49471-2.40507,3.20674-1.438.7414-2.54641-1.02821-5.45157-.80166a7.98894,7.98894,0,0,0-3.36715,1.12233c-.53091.29253-3.12209,1.72011-2.88608,2.88616.18652.92138,1.92506.62616,2.88608,2.0844a4.08229,4.08229,0,0,1,.32066,3.20683,5.58433,5.58433,0,0,1-3.36707,3.36707c-1.18561.43345-1.568.0791-2.24482.64141-.98377.81741-.55823,1.884-1.60333,2.72574a3.36986,3.36986,0,0,1-2.08441.64133c-1.49234.0124-1.89472-.89047-2.88616-.64133a2.28213,2.28213,0,0,0-1.60341,1.92408c-.05969.96346.81113,1.22737,1.60341,2.72574.28528.53955,1.25135,2.3665.64142,4.00849-.44324,1.19328-1.52529,1.76774-2.72583,2.40507a8.58317,8.58317,0,0,1-4.32915,1.12241c-1.27247-.03792-1.91078-.3877-2.24474,0-.458.53173.192,1.82883.64133,2.72574.97366,1.94333,1.78209,2.19166,1.76374,3.20683a2.40059,2.40059,0,0,1-1.76374,2.24474c-.75077.10129-1.41934-.57242-2.72574-1.92408-.64753-.66987-1.05578-1.17126-2.56541-3.0464-1.45392-1.806-1.80281-2.24483-2.56549-2.72583a3.91888,3.91888,0,0,0-2.40507-.80166c-.40393.0296-.88656.15389-2.56541,1.44308-1.80632,1.38705-2.70943,2.08065-3.04649,2.88607-.41347.988-.02063,1.219-.481,3.04649-.21587.85687-.59876,2.37686-1.12241,2.40507-.80395.04331-1.56989-3.37522-1.60333-3.52748-.64419-2.93175-.00628-4.15651-.96208-4.97057-.94038-.80093-2.02055-.0093-3.04641-.962-.89308-.82939-.34317-1.679-1.12241-2.40507-1.1556-1.07674-2.77589.40858-5.13081-.481-1.33217-.50326-1.17828-1.1163-3.04649-1.92408-.68831-.29758-2.63579-1.13962-3.20682-.48108-.48051.55407.139,2.02561.96208,2.88616a5.55761,5.55761,0,0,0,3.68782,1.44308c1.271.0473,1.81822-.32736,2.08441,0,.47569.58514-.75119,2.42293-1.76375,3.5274-1.02177,1.11458-2.522,2.75111-4.81015,2.72582a5.57306,5.57306,0,0,1-3.52749-1.44307,10.35177,10.35177,0,0,1-2.72582-4.48949c-1.05293-3.74564.67722-6.81-.962-8.1773-1.14165-.9523-2.71334-.07666-3.36715-1.12241a2.50924,2.50924,0,0,1,.80175-3.04641c1.61735-1.04714,4.05986,1.334,4.97048.481.70983-.6649.0703-2.90271-1.28275-4.16882-1.4341-1.342-3.78772-1.70258-5.13081-.80175-.666.44667-.49258.80713-1.60341,2.24474-1.06932,1.38387-1.76481,2.284-2.72574,2.40516-1.16466.14688-1.40834-1.01558-3.52749-1.92408a8.81981,8.81981,0,0,0-4.32915-.64141,10.56548,10.56548,0,0,0-3.52749,1.12241,13.33042,13.33042,0,0,0-2.72574,1.60341c-1.76554,1.36373-1.92416,2.26611-2.72582,2.24475-1.13033-.0301-2.33454-1.86438-1.92408-2.72583.4788-1.00481,2.9474-.25175,3.52749-1.443C293.73439,48.67308,293.28993,48.39621,293.31186,47.44783Z" fill="#a6b862"/><path d="M373.80225,105.00972c1.2334.19458,1.54526-1.39228,4.48948-2.40516a7.44954,7.44954,0,0,1,4.6499-.32067,7.16753,7.16753,0,0,1,2.72574,1.60341c1.52594,1.35582,1.29572,2.16311,2.40508,2.88608a4.62958,4.62958,0,0,0,4.6499,0c2.49242-1.47252,2.2763-4.94423,2.24474-5.45148a8.41679,8.41679,0,0,0-2.24474-5.1309,13.94876,13.94876,0,0,1-2.40516-3.04641c-.18129-.34407-.30142-.62722-.30142-.62722-.55643-1.31186-.51435-2.25135-.66058-2.25894-.26137-.01353-.0557,3.00539-1.28274,3.52749-.77418.32939-1.86936-.4412-2.40508-.96208-1.52365-1.4814-.92994-3.284-1.92407-3.68774-.63408-.25754-1.07324.39545-3.84816,2.08441-2.42081,1.47342-2.74262,1.3758-3.5274,2.24475-1.05652,1.16987-.95963,1.8855-1.92408,2.40507-1.31757.70984-2.28177-.20372-3.04649.32067C369.63922,97.39659,371.25886,104.60848,373.80225,105.00972Z" fill="#a6b862"/><path d="M260.44231,16.66261c1.90826-2.05309,4.108-.60374,6.73423-2.72574,1.5239-1.23129,1.41869-2.23276,2.88607-2.72574a4.72549,4.72549,0,0,1,4.00849.64133c1.23822.842,1.13252,1.68977,2.40516,3.68782,1.742,2.735,2.666,2.28617,3.84815,4.48948.212.39521,2.08025,3.97546.64133,6.0929-.657.96673-1.32809.635-3.36715,2.08441a8.15321,8.15321,0,0,0-3.04641,3.04649c-1.16922,2.60471,1.06744,4.7551,0,5.93256-1.04518,1.15291-4.18978.19418-6.0929-1.12241-.7144-.49421-3.028-2.09485-3.04649-4.32915-.02079-2.51795,2.89374-3.34139,2.56541-5.29123-.236-1.40165-1.965-2.29963-4.32915-3.52741-2.63921-1.37066-3.84978-1.273-4.32915-2.40516C258.81142,19.3099,259.51938,17.6556,260.44231,16.66261Z" fill="#a6b862"/><path d="M200.47536,33.17763c-.112,1.13791,1.23674,1.7056.962,2.72574-.33355,1.23863-2.50155,1.06933-2.72574,2.08441-.22606,1.02341,1.62829,2.77712,3.68782,3.04649,1.804.23594,2.373-.849,4.97049-1.60341a12.366,12.366,0,0,1,7.2153,0c2.343.79351,3.7706,2.26994,5.45157,4.00849a13.46361,13.46361,0,0,1,3.0464,4.16882,16.27929,16.27929,0,0,1,1.12241,5.29123c.3139,3.20209-.20853,3.37066.32067,4.48948.91967,1.94447,2.52814,1.49976,5.13082,4.00849a20.92847,20.92847,0,0,1,3.04649,4.00848c1.86992,2.86341,1.62681,3.36072,2.72574,4.32916,1.47023,1.29571,2.47488.90743,5.61189,1.92407,4.3979,1.4253,6.38241,3.47138,6.73423,3.04641.36283-.43827-1.28291-3.1764-4.00849-4.64982-2.22884-1.20486-3.64582-.73487-4.32915-1.92407-.7825-1.36177.14712-3.59412,1.44308-4.81016a6.16787,6.16787,0,0,1,7.69631-.16033c1.56394,1.32434,1.72623,3.44357,2.08441,3.36707.42839-.0915-.42408-2.99086.481-5.77222a9.69592,9.69592,0,0,1,4.16882-4.97049c2.71661-.54094,3.495-1.39056,3.68782-2.08441.36169-1.30158-1.25934-2.33494-.80166-3.84815a3.26062,3.26062,0,0,1,2.24474-1.92408c2.39562-.67509,4.5385,1.60513,4.97048,1.12241.39162-.43769-1.6229-2.02927-3.36715-5.61189-.68953-1.41625-1.15577-2.77182-1.76366-2.72582-.6755.05105-.72908,1.77238-1.60341,1.92407-.35835.06223-.69646-.16677-2.24474-1.76366-1.6455-1.69712-1.90043-2.09534-2.40516-2.08441-.84171.01827-1.682,1.15936-1.924,2.24474-.417,1.86968,1.11557,2.7896.64134,4.16882a3.53028,3.53028,0,0,1-3.68782,1.92408c-1.968-.35835-1.80771-2.68635-4.48949-4.16882-1.95613-1.08131-3.4293-.60985-3.68782-1.44308-.26456-.8528,1.20144-1.59566,3.20682-4.16882,1.522-1.953,2.52684-3.24229,2.24474-4.6499-.33844-1.689-2.49119-3.35777-3.84815-2.72574-1.02373.47684.06671,2.50237-1.12241,3.68782-.81855.816-1.86569.42294-7.69631,0a17.85359,17.85359,0,0,1-3.20674-.32066c-2.53817-.62918-2.66351-1.62062-4.81023-2.24475a10.5118,10.5118,0,0,0-6.25323.32067c-1.958.73243-1.96893,1.48076-3.36707,1.60341-1.68757.1481-2.22607-.89349-4.97056-1.92408A15.96128,15.96128,0,0,0,204.8045,29.834C202.48815,30.05524,200.63055,31.60089,200.47536,33.17763Z" fill="#a6b862"/><circle cx="95.3073" cy="53.57184" r="28.03391" fill="#ffba55"/><path d="M95.3073,82.10576a28.53369,28.53369,0,1,1,28.53418-28.53418A28.567,28.567,0,0,1,95.3073,82.10576Zm0-56.06738a27.53369,27.53369,0,1,0,27.53418,27.5332A27.56487,27.56487,0,0,0,95.3073,26.03838Z" fill="#d77f4a"/><path d="M95.3073,56.07158a.49971.49971,0,0,1-.5-.5V37.49443a.5.5,0,1,1,1,0V55.57158A.49971.49971,0,0,1,95.3073,56.07158Z" fill="#d77f4a"/><path d="M79.75359,59.81182a.50015.50015,0,0,1-.22461-.94727L98.28581,49.4583a.5005.5005,0,1,1,.44922.89453L79.9782,59.75908A.49852.49852,0,0,1,79.75359,59.81182Z" fill="#d77f4a"/><polygon points="171.899 234.818 123.213 234.818 123.213 207.637 171.811 207.637 171.899 234.818" fill="#935b50"/><rect x="108.18894" y="226.773" width="78.26426" height="8.04513" rx="1.3018" fill="#d6694b"/><rect x="113.34407" y="234.81813" width="67.71967" height="5.07702" rx="1.3018" fill="#935b50"/><rect x="143.33756" y="239.89515" width="7.49837" height="50.61401" fill="#d6694b"/><polygon points="150.836 294.529 198.915 311.468 198.915 305.376 150.836 290.509 143.338 290.509 95.219 305.376 95.219 311.468 143.338 294.529 150.836 294.529" fill="#935b50"/><rect x="88.6359" y="304.43843" width="7.14689" height="12.6535" rx="1.62725" fill="#d6694b"/><rect x="198.35166" y="304.43843" width="7.14689" height="12.6535" rx="1.62725" transform="translate(403.8502 621.53035) rotate(-180)" fill="#d6694b"/><rect x="141.58013" y="288.63457" width="11.01323" height="7.96702" rx="1.3018" fill="#e19974"/><rect x="112.40678" y="138.66713" width="69.82859" height="66.0794" rx="5.8581" fill="#d6694b"/><path d="M139.70659,290.13646l3.55135,18.99919s-10.00233,4.33221-16.835-7.27589l-.87-11.292Z" fill="#f9977a"/><path d="M95.39485,278.5441l-6.781,18.04673S77.899,294.81337,78.088,281.246l5.08237-10.04973Z" fill="#f9977a"/><path d="M144.69023,192.735l34.23789,2.38238s7.78232,13.11515,8.55454,25.099a13.45819,13.45819,0,0,1-13.43526,14.31333H144.69023v62.67491H121.26431l-1.28714-54.17486L96.375,287.2653,74.49367,274.29456l40.02646-77.73a9.168,9.168,0,0,1,10.54476-4.83341l19.62534,5.23915Z" fill="#376f92"/><path d="M141.486,137.54543l-4.4488,3.63708-3.19071,13.64581,29.96435-.38,9.68371-15.334s-14.959-1.1396-18.315-9.40339Z" fill="#f9977a"/><path d="M164.21559,136.87832l18.87773,4.51237a12.78174,12.78174,0,0,1,6.30123,3.65085c7.49719,7.90794,28.49177,30.32525,30.76012,35.74,2.7673,6.60581-14.726,12.09371-19.47,4.77651l-18.48163-20.42719-1.28482,32.62252H136.64138l-2.17431-11.179s-1.779,6.91069-4.15095,8.53673c0,0-14.23185,5.28465-12.05754-9.75627l8.10424-37.80553,14.59817-9.57459s-2.98251,20.90973,16.43517,13.43644C169.34619,146.81188,164.21559,136.87832,164.21559,136.87832Z" fill="#f73c4f"/><ellipse cx="138.34731" cy="128.54181" rx="4.48058" ry="4.60732" fill="#160b07"/><ellipse cx="136.09071" cy="134.03037" rx="4.48058" ry="4.60732" fill="#160b07"/><ellipse cx="135.15299" cy="140.83712" rx="4.48058" ry="4.60732" fill="#160b07"/><ellipse cx="135.22126" cy="147.40748" rx="4.48058" ry="4.60732" fill="#160b07"/><path d="M141.34639,299.07837s8.38266,10.767,3.73646,17.11308a2.55774,2.55774,0,0,1-2.07839,1.04363l-41.55882-.232a1.38,1.38,0,0,1-1.3342-1.55707c.23852-2.21383,1.24355-6.2175,5.30894-8.056,5.78034-2.61407,9.88117,2.09629,19.52-6.42807C124.94042,300.96192,137.43452,304.654,141.34639,299.07837Z" fill="#935b50"/><path d="M92.17655,287.0205s1.559,13.69884-5.6519,16.5482a2.52122,2.52122,0,0,1-2.30038-.24771L49.102,280.47511a1.41724,1.41724,0,0,1-.32885-2.04752c1.34332-1.74734,4.25915-4.59472,8.65421-3.93817,6.249.9335,7.29874,7.16279,19.86611,5.18724C77.2935,279.67666,85.9855,289.61669,92.17655,287.0205Z" fill="#935b50"/><path d="M156.6083,124.12c-1.55646.03433-2.8074.12834-4.00644.03164-7.96532-.64225-17.79422-10.05648-16.83552-18.97294.83553-7.77116,9.56273-12.34911,11.68595-13.463a17.33572,17.33572,0,0,1,17.33144-.04857c4.45832,2.46428,6.9956,5.97575,7.71738,7.82229C187.54418,137.97465,151.67306,128.04624,156.6083,124.12Z" fill="#160b07"/><path d="M142.43206,131.49368s5.90137,4.43339,12.67657-1.14918c0,0-2.24586,9.76549-13.62263,7.20093A7.10652,7.10652,0,0,0,142.43206,131.49368Z" fill="#dd765e"/><path d="M136.41464,109.884c2.21609-11.19708,10.04505-19.01163,17.48646-17.45437,5.74346,1.202,9.57388,7.63722,10.00552,15.65893a2.07286,2.07286,0,0,1,1.784-.26626c1.61631.61763,1.95663,3.80211.76015,7.11265-1.01015,2.79513-2.79177,4.779-4.29517,4.95955-3.13916,8.77883-9.85241,14.42823-16.27973,13.08321C138.43449,131.42039,134.19853,121.081,136.41464,109.884Z" fill="#f9977a"/><path d="M145.37639,108.97939a6.34368,6.34368,0,0,1,.1189,4.03824,13.78523,13.78523,0,0,1-1.5824,3.76568c-.36328.59363-.9126,1.08432-.8501,1.52134a2.13447,2.13447,0,0,0,.85327,1.42413,3.23964,3.23964,0,0,0,1.71216.66388,6.66627,6.66627,0,0,0,1.96863-.05689,4.35093,4.35093,0,0,1-4.02881-.13723,2.601,2.601,0,0,1-1.224-1.85758,1.7448,1.7448,0,0,1,.37158-1.15481c.2-.29056.38794-.5448.56141-.81824a18.92842,18.92842,0,0,0,1.66565-3.53253A7.7158,7.7158,0,0,0,145.37639,108.97939Z" fill="#dd765e"/><path d="M157.3847,110.21886a.53011.53011,0,0,0,.18183-.16963.55028.55028,0,0,0-.13875-.751c-.168-.11789-4.1587-2.85789-8.06862-.95336a.55218.55218,0,0,0-.25011.72.51954.51954,0,0,0,.69992.25672c3.37214-1.64241,6.99108.84462,7.02736.86994A.51339.51339,0,0,0,157.3847,110.21886Z" fill="#160b07"/><path d="M142.81716,108.82016a.518.518,0,0,0,.46-.185.55173.55173,0,0,0-.05693-.76231,10.00088,10.00088,0,0,0-5.94039-2.31913.54063.54063,0,0,0-.00832,1.0808,9.0461,9.0461,0,0,1,5.26429,2.05918A.5188.5188,0,0,0,142.81716,108.82016Z" fill="#160b07"/><path d="M155.8908,114.12218a9.49459,9.49459,0,0,0-3.47779-1.81958,4.49179,4.49179,0,0,0-1.8949-.03619,6.23945,6.23945,0,0,0-1.83691.73034,4.05289,4.05289,0,0,1,1.73328-1.127,3.9146,3.9146,0,0,1,2.11706-.08649,5.45119,5.45119,0,0,1,1.903.88465A5.86783,5.86783,0,0,1,155.8908,114.12218Z" fill="#160b07"/><ellipse cx="151.1538" cy="113.1326" rx="1.17869" ry="1.21203" fill="#160b07"/><ellipse cx="139.93711" cy="111.69118" rx="1.17869" ry="1.21203" fill="#160b07"/><path d="M143.86333,112.93462a9.49312,9.49312,0,0,0-3.47766-1.81958,4.49179,4.49179,0,0,0-1.8949-.03619,6.237,6.237,0,0,0-1.83691.73034,4.05237,4.05237,0,0,1,1.73315-1.127,3.91468,3.91468,0,0,1,2.11707-.08649,5.45061,5.45061,0,0,1,1.90307.88465A5.86734,5.86734,0,0,1,143.86333,112.93462Z" fill="#160b07"/><path d="M165.88091,111.695a6.60115,6.60115,0,0,0-.90039-1.01261.62909.62909,0,0,0-.842-.09857,3.81933,3.81933,0,0,0-.86182.87045c-.28455.34894-.55542.7298-.89465,1.09082a4.47086,4.47086,0,0,1,.39062-1.40332,2.75439,2.75439,0,0,1,.97778-1.21087,1.2014,1.2014,0,0,1,.9347-.1633,1.30953,1.30953,0,0,1,.72607.5104A2.50291,2.50291,0,0,1,165.88091,111.695Z" fill="#dd765e"/><path d="M163.95293,115.36232a2.49827,2.49827,0,0,1-.63855-1.26309,4.47713,4.47713,0,0,1-.07068-1.41147,5.50856,5.50856,0,0,1,.3241-1.35745,4.61638,4.61638,0,0,1,.68457-1.2139c-.02539.94471-.1753,1.79395-.25305,2.64817-.051.42453-.08081.84826-.09717,1.27542A7.897,7.897,0,0,0,163.95293,115.36232Z" fill="#dd765e"/><ellipse cx="164.55278" cy="118.35742" rx="2.33958" ry="2.40576" fill="#ffcb33"/><path d="M142.10517,127.41369s4.33669-6.59918,9.58763-3.8668" fill="#dd2f22"/><path d="M149.97484,98.41818c1.30116,1.09725,8.01749,11.95756,10.438,13.1725a1.45978,1.45978,0,0,0,.885.18483c.94679-.14237,1.32828-1.40327,2.38079-3.17755.79538-1.34085,1.14143-1.57143,1.60507-2.32262a11.11011,11.11011,0,0,0,.47514-9.77869,11.25441,11.25441,0,0,0-6.14112-5.57224c-5.51459-2.42842-10.84442-.30718-12.19613.23077-8.12085,3.23207-11.588,11.49921-11.30095,11.74248C136.45808,103.1836,143.30348,92.79232,149.97484,98.41818Z" fill="#160b07"/><path d="M119.97722,243.02965c-.0835-5.54614-.33581-11.04089-.19031-16.6293a13.17793,13.17793,0,0,1,3.33716-7.6633,13.49784,13.49784,0,0,1,7.28247-4.16965,12.47956,12.47956,0,0,1,8.3208,1.10456,13.43855,13.43855,0,0,1,3.42139,2.51855c.98633,1.01276,1.87769,2.04355,2.82117,3.06445q5.55486,6.16933,10.98706,12.45127-5.81745-5.92777-11.49109-11.98761c-.94434-1.00162-1.87866-2.05289-2.8313-3.01377a12.692,12.692,0,0,0-3.25049-2.3544,12.11864,12.11864,0,0,0-7.82385-1.02585,12.75915,12.75915,0,0,0-6.91333,3.8881,13.05923,13.05923,0,0,0-3.29041,7.2496c-.15759,1.33731-.11157,2.7337-.14257,4.11575l-.05982,4.15058Z" fill="#10394f"/><path d="M144.69023,196.97029c2.52979.86222,5.02613,1.80549,7.51746,2.761,2.49207.95386,4.95679,1.97415,7.43652,2.958,2.45508,1.04367,4.92334,2.05542,7.36609,3.12906,2.44251,1.07428,4.88025,2.16015,7.28406,3.32852-2.53015-.861-5.02649-1.80463-7.51794-2.75973-2.49122-.95582-4.957-1.97352-7.436-2.95926-2.45422-1.04563-4.92358-2.05475-7.3656-3.13038C149.53215,199.22368,147.09453,198.1375,144.69023,196.97029Z" fill="#10394f"/><path d="M144.69023,234.52965a13.41848,13.41848,0,0,1-.39953-3.44122,13.25882,13.25882,0,0,1,.39953-3.44126,13.2584,13.2584,0,0,1,.39954,3.44126A13.41849,13.41849,0,0,1,144.69023,234.52965Z" fill="#10394f"/><path d="M152.058,200.00075c1.86585-.01987,3.72486.04764,5.58289.12839,1.85864.07165,3.71252.20593,5.5664.34045,1.8523.15345,3.70447.30854,5.55188.5253,1.848.20877,3.69507.43,5.53516.74018-1.86585.02111-3.72485-.04673-5.583-.127-1.85864-.07226-3.71252-.20624-5.56616-.34183-1.8523-.15454-3.70459-.30932-5.55188-.5267C155.74529,200.53121,153.89824,200.30968,152.058,200.00075Z" fill="#10394f"/><path d="M134.46709,186.5743c-.49-1.42777-.9209-2.87088-1.3429-4.31635-.42321-1.4451-.798-2.90283-1.19934-4.35363-.35779-1.46216-.73877-2.91828-1.0747-4.38608-.33545-1.468-.66248-2.93811-.92933-4.42392.49085,1.42755.92151,2.87073,1.34375,4.3161.42188,1.4455.79847,2.90274,1.19849,4.35391.35632,1.46253.73926,2.91812,1.07373,4.38632C133.87261,183.61852,134.19939,185.08873,134.46709,186.5743Z" fill="#b02336"/><path d="M182.10417,161.57387a40.10105,40.10105,0,0,1-.61132-4.81555,42.96958,42.96958,0,0,1-.0597-4.86539,22.02269,22.02269,0,0,1,.765-4.82525,9.14009,9.14009,0,0,1,1.00586-2.24625,3.73843,3.73843,0,0,1,1.86523-1.54056,3.83741,3.83741,0,0,0-1.63208,1.68247,8.93636,8.93636,0,0,0-.82617,2.21853,24.67478,24.67478,0,0,0-.62256,4.74164c-.11157,1.59915-.095,3.20752-.06958,4.81589C181.94744,158.34853,182.02,159.95864,182.10417,161.57387Z" fill="#b02336"/><path d="M156.20293,171.03814c1.08838.922,2.0603,1.91314,3.03516,2.90255l2.059,3.48322,4.13708,6.95508,4.13709,6.95507,2.06848,3.47751c.39868,1.33219.80566,2.6594,1.11145,4.04682-1.07325-.93094-2.04517-1.92209-3.02552-2.90827l-2.0686-3.47751-4.137-6.95507-4.13709-6.95508-2.07812-3.47183C156.9008,173.76168,156.4937,172.43453,156.20293,171.03814Z" fill="#10394f"/><path d="M182.96078,188.40361l37.19389-7.62209s5.9332,5.4832,4.8365,13.35279a4.16336,4.16336,0,0,1-4.09005,3.619H183.35834s-22.79954-.06775-24.57853-4.40387l8.11585-6.3425a4.55173,4.55173,0,0,1,3.81611-.86254Z" fill="#f9977a"/><polygon points="162.017 195.631 161.674 195.194 169.132 189.356 172.322 188.992 172.384 189.544 169.35 189.891 162.017 195.631" fill="#dd765e"/><polygon points="166.629 196.72 166.271 196.292 171.366 192.07 173.935 191.453 174.064 191.994 171.559 192.596 166.629 196.72" fill="#dd765e"/><polygon points="172.157 197.379 171.737 197.014 173.851 194.587 175.853 194.161 175.968 194.706 174.148 195.093 172.157 197.379" fill="#dd765e"/><ellipse cx="162.38205" cy="127.41369" rx="4.48058" ry="4.60732" fill="#160b07"/><ellipse cx="162.13818" cy="133.36733" rx="4.48058" ry="4.60732" fill="#160b07"/><ellipse cx="163.57869" cy="140.08055" rx="4.48058" ry="4.60732" fill="#160b07"/><ellipse cx="165.88092" cy="146.21002" rx="4.48058" ry="4.60732" fill="#160b07"/><path d="M172.08285,142.3004l-2.55466-6.32406-5.32618,5.79494-8.77172-.93429s3.87928,7.00917,4.16312,7.78748l4.78238-6.57251Z" fill="#376f92"/><path d="M142.99349,147.36971l-.1787-6.84549-6.99316,3.44487-7.86213-4.10741s1.1762,7.97357,1.16966,8.80478l6.75678-4.37127Z" fill="#376f92"/><path d="M130.87812,139.0771c3.63839-3.878-2.47268-9.28942-2.47268-9.28942a7.32121,7.32121,0,0,1,1.10082-2.29051,2.47887,2.47887,0,0,0-.29464-3.1818c-6.14271-5.97832-7.8253,2.48928-7.8253,2.48928l-1.45605-9.00808a1.36754,1.36754,0,0,0-1.48474-1.16186,1.39025,1.39025,0,0,0-1.20939,1.547l1.63272,14.99275,4.30515,10.15919L117.0726,170.857s-6.6218,19.68073.96006,25.64913a7.65061,7.65061,0,0,0,8.26015,1.229,10.16069,10.16069,0,0,0,5.90115-9.38908V146.18737Z" fill="#f9977a"/><path d="M114.55916,129.86722a1.69333,1.69333,0,0,0,.789.98239c1.4161.73015,4.91346,5.61181,4.91346,5.61181l-1.39278-3.287-.34021-3.12322C113.87363,126.46928,114.098,128.5052,114.55916,129.86722Z" fill="#f9977a"/><rect x="222.61977" y="216.92719" width="7.3818" height="101.34924" fill="#935b50"/><rect x="22.30159" y="197.26571" width="221.83268" height="5.66148" rx="1.27262" fill="#935b50"/><rect x="37.02313" y="206.92719" width="7.3818" height="111.34924" fill="#935b50"/><path d="M31.13451,202.92719H235.80607a0,0,0,0,1,0,0v14.67091a2.54523,2.54523,0,0,1-2.54523,2.54523H33.67975a2.54523,2.54523,0,0,1-2.54523-2.54523V202.92719A0,0,0,0,1,31.13451,202.92719Z" fill="#c38f86"/><rect x="138.28428" y="191.89826" width="60.12" height="5.36745" fill="#d6b9bb"/><path d="M54.70757,189.8506H96.55029a0,0,0,0,1,0,0v6.64316a0,0,0,0,1,0,0H54.70757a2.85847,2.85847,0,0,1-2.85847-2.85847v-.92622A2.85847,2.85847,0,0,1,54.70757,189.8506Z" fill="#fff"/><path d="M97.85884,196.66381a.60189.60189,0,0,1-.60189.6019H53.82882c-1.65813,0-3.00689-1.82119-3.00689-4.06013,0-2.23839,1.34876-4.05958,3.00689-4.05958H97.257a.60189.60189,0,0,1,.60189.6019v.47377a.60189.60189,0,0,1-.60189.6019H53.82882c-.973,0-1.7645,1.06868-1.7645,2.382,0,1.31388.79146,2.38256,1.7645,2.38256H97.257a.60189.60189,0,0,1,.60189.6019Z" fill="#f65b2b"/><path d="M48.17931,181.7309H90.022a0,0,0,0,1,0,0v6.64316a0,0,0,0,1,0,0H48.17931a2.85847,2.85847,0,0,1-2.85847-2.85847v-.92622A2.85847,2.85847,0,0,1,48.17931,181.7309Z" fill="#fff"/><path d="M91.33058,188.54411a.6019.6019,0,0,1-.6019.60189H47.30056c-1.65814,0-3.00689-1.82118-3.00689-4.06012,0-2.23839,1.34875-4.05958,3.00689-4.05958H90.72868a.6019.6019,0,0,1,.6019.6019v.47377a.6019.6019,0,0,1-.6019.6019H47.30056c-.973,0-1.7645,1.06868-1.7645,2.382,0,1.31387.79146,2.38256,1.7645,2.38256H90.72868a.6019.6019,0,0,1,.6019.6019Z" fill="#ffba55"/><path d="M61.5424,173.6112h41.84272a0,0,0,0,1,0,0v6.64316a0,0,0,0,1,0,0H61.5424a2.85847,2.85847,0,0,1-2.85847-2.85847v-.92622a2.85847,2.85847,0,0,1,2.85847-2.85847Z" fill="#fff"/><path d="M104.69367,180.4244a.6019.6019,0,0,1-.6019.6019H60.66365c-1.65814,0-3.00689-1.82118-3.00689-4.06012,0-2.23839,1.34875-4.05958,3.00689-4.05958h43.42812a.6019.6019,0,0,1,.6019.6019v.47377a.6019.6019,0,0,1-.6019.6019H60.66365c-.973,0-1.7645,1.06868-1.7645,2.382,0,1.31387.79145,2.38256,1.7645,2.38256h43.42812a.60189.60189,0,0,1,.6019.60189Z" fill="#f65b2b"/><polygon points="409.068 234.818 360.382 234.818 360.382 207.637 408.979 207.637 409.068 234.818" fill="#935b50"/><rect x="345.35782" y="226.773" width="78.26426" height="8.04513" rx="1.3018" fill="#d6694b"/><rect x="350.51295" y="234.81813" width="67.71967" height="5.07702" rx="1.3018" fill="#935b50"/><rect x="380.50644" y="239.89515" width="7.49837" height="50.61401" fill="#d6694b"/><polygon points="388.005 294.529 436.084 311.468 436.084 305.376 388.005 290.509 380.506 290.509 332.388 305.376 332.388 311.468 380.506 294.529 388.005 294.529" fill="#935b50"/><rect x="325.80477" y="304.43843" width="7.14689" height="12.6535" rx="1.62725" fill="#d6694b"/><rect x="435.52053" y="304.43843" width="7.14689" height="12.6535" rx="1.62725" transform="translate(878.18795 621.53035) rotate(-180)" fill="#d6694b"/><rect x="378.74901" y="288.63457" width="11.01323" height="7.96702" rx="1.3018" fill="#e19974"/><rect x="359.57565" y="138.66713" width="69.82859" height="66.0794" rx="5.8581" fill="#d6694b"/><rect x="385.45315" y="185.60546" width="60.12" height="5.36745" fill="#d6b9bb"/><path d="M415.18343,189.8506h41.84272a0,0,0,0,1,0,0v6.64316a0,0,0,0,1,0,0H415.18343a2.85847,2.85847,0,0,1-2.85847-2.85847v-.92622A2.85847,2.85847,0,0,1,415.18343,189.8506Z" fill="#fff"/><path d="M458.3347,196.66381a.6019.6019,0,0,1-.6019.6019H414.30468c-1.65814,0-3.00689-1.82119-3.00689-4.06013,0-2.23839,1.34875-4.05958,3.00689-4.05958H457.7328a.6019.6019,0,0,1,.6019.6019v.47377a.6019.6019,0,0,1-.6019.6019H414.30468c-.97305,0-1.7645,1.06868-1.7645,2.382,0,1.31388.79145,2.38256,1.7645,2.38256H457.7328a.6019.6019,0,0,1,.6019.6019Z" fill="#f65b2b"/><path d="M408.65517,181.7309h41.84272a0,0,0,0,1,0,0v6.64316a0,0,0,0,1,0,0H408.65517a2.85847,2.85847,0,0,1-2.85847-2.85847v-.92622A2.85847,2.85847,0,0,1,408.65517,181.7309Z" fill="#fff"/><path d="M451.80644,188.54411a.6019.6019,0,0,1-.6019.60189H407.77642c-1.65814,0-3.00689-1.82118-3.00689-4.06012,0-2.23839,1.34875-4.05958,3.00689-4.05958h43.42812a.6019.6019,0,0,1,.6019.6019v.47377a.6019.6019,0,0,1-.6019.6019H407.77642c-.97305,0-1.76451,1.06868-1.76451,2.382,0,1.31387.79146,2.38256,1.76451,2.38256h43.42812a.6019.6019,0,0,1,.6019.6019Z" fill="#ffba55"/><path d="M422.01825,173.6112H463.861a0,0,0,0,1,0,0v6.64316a0,0,0,0,1,0,0H422.01825a2.85847,2.85847,0,0,1-2.85847-2.85847v-.92622A2.85847,2.85847,0,0,1,422.01825,173.6112Z" fill="#fff"/><path d="M465.16952,180.4244a.6019.6019,0,0,1-.60189.6019H421.1395c-1.65813,0-3.00689-1.82118-3.00689-4.06012,0-2.23839,1.34876-4.05958,3.00689-4.05958h43.42813a.6019.6019,0,0,1,.60189.6019v.47377a.6019.6019,0,0,1-.60189.6019H421.1395c-.973,0-1.7645,1.06868-1.7645,2.382,0,1.31387.79146,2.38256,1.7645,2.38256h43.42813a.60189.60189,0,0,1,.60189.60189Z" fill="#f65b2b"/><path d="M377.47782,103.39675s-16.58791,5.63866-11.29712,31.78585-12.26739,32.62719-17.8883,28.06719c0,0,28.54946,16.95124,30.21259-46.11665Z" fill="#160b07"/><path d="M378.44231,121.28856q.04357,2.87965-.16406,5.74549a49.90746,49.90746,0,0,1-.679,5.73446c-.05273.24274-.10815.48325-.188.73969a2.05827,2.05827,0,0,1-.18847.44336.794.794,0,0,1-.15357.18518.56756.56756,0,0,1-.23681.12366.48679.48679,0,0,1-.32471-.01551.56975.56975,0,0,1-.31006-.25647.85487.85487,0,0,1-.07886-.15777,6.40627,6.40627,0,0,1-.25268-1.55536c-.05909-.97214-.08863-1.92942-.0774-2.88993.00074-1.918.10865-3.8312.28956-5.74255.20776,1.90854.36084,3.81552.49023,5.71555.0813.948.12891,1.90014.24048,2.83059a7.21111,7.21111,0,0,0,.21118,1.26447s.01514.03683-.00122.0029c-.0415-.03946.01758-.02683-.18506-.13559a.51838.51838,0,0,0-.24194-.0112.46925.46925,0,0,0-.1604.08118c-.0293.01525-.05616.06845-.04493.04418a1.56154,1.56154,0,0,0,.08008-.21884c.05933-.2005.10718-.42672.15406-.65088.36474-1.82757.59228-3.73495.88476-5.61508Q377.91093,124.118,378.44231,121.28856Z" fill="#ffcb33"/><path d="M379.35629,290.94762l3.58377,18.64522s-10.09363,4.2515-16.98862-7.14033l-.87793-11.08162Z" fill="#f9977a"/><path d="M381.01106,299.72294s8.45917,10.56637,3.77057,16.79424a2.606,2.606,0,0,1-2.09736,1.02419l-41.93815-.22768a1.36724,1.36724,0,0,1-1.34637-1.52807c.24068-2.17258,1.25489-6.10166,5.35739-7.90592,5.8331-2.56536,9.97136,2.05724,19.69821-6.30831C364.45535,301.57139,377.06348,305.19469,381.01106,299.72294Z" fill="#935b50"/><path d="M332.661,279.56928l-7.5214,17.43318s-10.73729-2.16039-10.0328-15.4577l5.50561-9.65719Z" fill="#f9977a"/><path d="M329.09471,287.7562s1.05313,13.49433-6.32607,16.00765a2.606,2.606,0,0,1-2.31027-.33251l-34.551-23.77156a1.36725,1.36725,0,0,1-.25405-2.02068c1.42075-1.66119,4.46887-4.33986,8.87586-3.52484,6.266,1.15883,7.08856,7.3084,19.836,5.86059C314.36518,279.97485,322.75346,290.061,329.09471,287.7562Z" fill="#935b50"/><path d="M380.92432,139.47133l-4.48941,3.56932-3.21984,13.39158,30.23786-.373,9.77209-15.04834s-15.09549-1.11837-18.48211-9.22819Z" fill="#f9977a"/><path d="M381.879,133.53233s5.95524,4.3508,12.79228-1.12777c0,0-2.26636,9.58355-13.747,7.06677A6.82636,6.82636,0,0,0,381.879,133.53233Z" fill="#dd765e"/><path d="M384.41437,193.37774l34.55039,2.338s9.95325,17.465,8.5612,30.663a11.24632,11.24632,0,0,1-11.24489,9.94045h-31.8667V295.901H360.77463l-1.29888-53.16553-23.81758,43.41148L313.5771,273.41783,353.9689,197.136a9.34126,9.34126,0,0,1,10.641-4.74336l19.80447,5.14154Z" fill="#ffba55"/><path d="M359.47576,242.73546c-.11255-2.88153-.16138-5.76306-.24366-8.64459l-.0708-4.32227a24.00837,24.00837,0,0,1,.19556-4.37591,13.458,13.458,0,0,1,12.4668-10.92374,13.23194,13.23194,0,0,1,8.4331,2.462,22.358,22.358,0,0,1,3.21216,3.00461q1.48279,1.57222,2.9353,3.173l5.83863,6.37637c1.91967,2.15055,3.86425,4.2775,5.762,6.44895-2.06226-2.01563-4.07764-4.07569-6.11817-6.11212l-6.04125-6.18463q-1.51356-1.54295-3.00464-3.10749a21.48018,21.48018,0,0,0-3.11158-2.85718A12.296,12.296,0,0,0,371.883,215.466l-.51977.01184-.51294.08655-1.02661.17084c-.676.14828-1.3313.39316-1.99292.59958a20.06939,20.06939,0,0,0-1.86133.93451,11.57493,11.57493,0,0,0-1.68921,1.21624,12.56876,12.56876,0,0,0-4.1709,7.04883,23.33557,23.33557,0,0,0-.31909,4.23419l-.0708,4.32227C359.63689,236.9724,359.5883,239.85393,359.47576,242.73546Z" fill="#e6952a"/><path d="M384.41448,197.53417c2.56591.80435,5.09155,1.71045,7.61059,2.632,2.52368.91092,5.01782,1.8948,7.512,2.87893,2.48559,1.00623,4.97021,2.01435,7.426,3.0943l3.68237,1.62326c1.21387.575,2.44068,1.11811,3.64331,1.72129-1.28686-.39264-2.5498-.84537-3.82519-1.26615l-3.78613-1.36419c-2.5232-.91169-5.01783-1.89518-7.51148-2.88059-2.48486-1.00748-4.96948-2.01523-7.425-3.09592C389.28093,199.807,386.82732,198.72149,384.41448,197.53417Z" fill="#e6952a"/><path d="M384.41448,236.3192a10.46648,10.46648,0,0,1-.49976-3.37707,10.354,10.354,0,0,1,.49976-3.37711,10.354,10.354,0,0,1,.49951,3.37711A10.473,10.473,0,0,1,384.41448,236.3192Z" fill="#e6952a"/><path d="M391.84929,200.5082a112.31761,112.31761,0,0,1,11.25757.35272,111.01422,111.01422,0,0,1,11.18188,1.34924,111.00626,111.00626,0,0,1-11.25756-.35272A112.33213,112.33213,0,0,1,391.84929,200.5082Z" fill="#e6952a"/><path d="M373.00788,142.42238a20.94529,20.94529,0,0,0-11.35738,7.2923l-23.48789,29.52764s-6.91491,3.05852-8.51066,6.516c0,0-6.383,10.9043,2.12766,12.633l15.42559-3.05852,19.54793-22.60645s4.78725,26.06815,8.37769,26.79741,56.11721-.667,56.11721-.667,5.86216-.94747,3.02813-12.45664c0,0-9.81007-47.18451-25.23565-48.91324h-8.64365s.6649,10.77131-9.44152,11.70216-10.90429-9.04258-10.90429-9.04258Z" fill="#f73c4f"/><path d="M389.5369,189.68118l31.03181-6.18437a9.57605,9.57605,0,0,1,11.36688,7.8853,13.79405,13.79405,0,0,1-.97568,7.47463H389.93809s-23.00765-.06649-24.80287-4.32182l8.18992-6.22434a4.69334,4.69334,0,0,1,3.851-.84647Z" fill="#f9977a"/><polygon points="368.396 196.781 368.06 196.339 375.586 190.612 378.801 190.253 378.862 190.804 375.799 191.145 368.396 196.781" fill="#dd765e"/><polygon points="373.05 197.848 372.701 197.418 377.839 193.275 380.432 192.669 380.557 193.208 378.026 193.799 373.05 197.848" fill="#dd765e"/><polygon points="378.629 198.495 378.216 198.126 380.349 195.744 382.367 195.327 382.478 195.87 380.64 196.25 378.629 198.495" fill="#dd765e"/><path d="M366.7531,172.72634a28.58777,28.58777,0,0,1-.22314-3.28079c-.02393-1.09671.01269-2.19434.09838-3.29062a21.08784,21.08784,0,0,1,.50782-3.26572,5.646,5.646,0,0,1,1.47876-2.92886,4.08635,4.08635,0,0,0-.7,1.44558,11.25681,11.25681,0,0,0-.36182,1.57074c-.17334,1.06494-.28076,2.14392-.37305,3.22406-.09839,1.08072-.14892,2.16684-.22607,3.25373Z" fill="#b02336"/><path d="M405.45012,149.322a9.75037,9.75037,0,0,1-.22314-2.78116,8.80579,8.80579,0,0,1,.56982-2.76742,6.14539,6.14539,0,0,1,1.623-2.34192,5.25956,5.25956,0,0,1,2.55151-1.1521,7.00958,7.00958,0,0,0-2.26074,1.46356,7.13868,7.13868,0,0,0-1.39868,2.2337,11.85171,11.85171,0,0,0-.66284,2.60617A20.1243,20.1243,0,0,0,405.45012,149.322Z" fill="#b02336"/><path d="M408.37566,159.02947c.616,1.90857,1.18677,3.82785,1.75781,5.74676l1.6875,5.76184c.53589,1.92771,1.11011,3.84375,1.68067,5.75977.282.95914.57519,1.91492.894,2.86115a10.79194,10.79194,0,0,0,1.16089,2.74292,4.49937,4.49937,0,0,1-.80493-1.27c-.2168-.454-.41749-.91523-.61084-1.37912-.37256-.93314-.71241-1.87754-1.04468-2.8241-.657-1.896-1.22827-3.81793-1.80689-5.73663-.5354-1.93131-1.07934-3.85971-1.56494-5.80375C409.23845,162.94448,408.77043,160.996,408.37566,159.02947Z" fill="#b02336"/><polygon points="297.87 205.572 370.909 211.822 398.611 199.569 341.55 196.955 297.87 205.572" fill="#d6b9bb"/><path d="M333.87566,209.04522l-.00684-.36426c-.05273-2.89844-.9873-4.94141-2.77734-6.07227-2.69238-1.69824-7.2959-1.2832-12.62891,1.13672-7.625,3.46289-12.68359,2.793-12.89551,2.7627l.07813-.54883c.05176.00683,5.12207.67187,12.58887-2.71778,5.50879-2.501,10.30175-2.90234,13.15332-1.10058,1.88086,1.1875,2.89746,3.26074,3.02441,6.168L369.068,198.04522l.1582.53125Z" fill="#b29a9c"/><rect x="315.07362" y="192.77293" width="48.94352" height="5.17762" fill="#d6b9bb"/><path d="M336.56686,196.79556l-3.74015-1.445a3.39342,3.39342,0,0,1-2.17475-3.16561c.0015-1.97581.14733-4.65048.8617-5.76171l4.0499-4.142a3.38962,3.38962,0,0,1,4.15484-.55334c1.81739,1.08336,4.06146,2.65029,4.2953,3.89742,0,0,8.77662-3.59044,4.25533,4.52129l1.86171,3.85639-1.46277,1.59575S339.61206,197.97212,336.56686,196.79556Z" fill="#f9977a"/><path d="M340.39128,187.08809c.77173.62955,1.49976,1.30146,2.22119,1.97977.72608.67392,1.4209,1.37817,2.11573,2.08252.6853.71356,1.36963,1.42792,2.02344,2.17215.65771.74032,1.30908,1.48672,1.91625,2.27621-.77221-.62893-1.50024-1.301-2.22192-1.97909-.72558-.6742-1.42065-1.3783-2.11475-2.08319-.68481-.71408-1.36938-1.42829-2.0227-2.17282C341.65056,188.62352,340.99919,187.877,340.39128,187.08809Z" fill="#dd765e"/><path d="M337.89665,190.81151c.6272.38748,1.21485.82108,1.79639,1.26163.58569.43579,1.14307.9046,1.70044,1.37353.54858.47892,1.09668.95871,1.6167,1.471.52368.50812,1.04175,1.02277,1.51953,1.58438-.62768-.38681-1.21533-.82058-1.79712-1.26089-.58545-.43613-1.14282-.90476-1.6997-1.37427-.54834-.47949-1.09644-.9591-1.61622-1.47177C338.893,191.88729,338.37493,191.37246,337.89665,190.81151Z" fill="#dd765e"/><path d="M335.10417,192.40725a15.134,15.134,0,0,1,1.46192,1.00552c.47412.35022.91943.73309,1.36474,1.11609.43653.39288.87207.78662,1.27955,1.21252a15.00512,15.00512,0,0,1,1.1809,1.32459,15.0445,15.0445,0,0,1-1.46264-1.00479c-.47388-.35056-.91919-.73328-1.364-1.11682-.436-.39347-.87182-.787-1.279-1.21326A15.14125,15.14125,0,0,1,335.10417,192.40725Z" fill="#dd765e"/><path d="M331.77971,170.46569c1.188.76132,2.27051,1.60611,3.35547,2.4487l2.46826,3.1485,4.95337,6.28326,4.95337,6.28326,2.47681,3.14164c.561,1.2557,1.12988,2.50543,1.60644,3.82769-1.17431-.77212-2.25683-1.61685-3.34692-2.45556l-2.47681-3.14164-4.95337-6.28326L335.863,177.435l-2.48559-3.13477C332.81145,173.04842,332.2426,171.79879,331.77971,170.46569Z" fill="#10394f"/><path d="M408.325,103.39675s16.58791,5.63866,11.29712,31.78585,12.26739,32.62719,17.8883,28.06719c0,0-28.54947,16.95124-30.21259-46.11665Z" fill="#160b07"/><path d="M391.58755,126.32711c-8.038-.63028-17.95662-9.86912-16.98918-18.61946.84316-7.62637,9.65-12.119,11.79262-13.2122a17.92318,17.92318,0,0,1,17.48963-.04766,20.43018,20.43018,0,0,1,7.78781,7.67655c1.93006,3.14469,1.65028,16.25994-5.87173,23.03551C402.0111,128.56979,392.79755,126.422,391.58755,126.32711Z" fill="#160b07"/><path d="M375.80667,112.32525c2.23632-10.98846,10.13674-18.65741,17.64606-17.12917,5.79589,1.17957,9.66127,7.49493,10.09685,15.36719a2.142,2.142,0,0,1,1.80031-.2613c1.63106.60613,1.97449,3.73127.76709,6.98014-1.01937,2.743-2.81725,4.68992-4.33438,4.86715-3.16781,8.61527-9.94233,14.15941-16.42831,12.83945C377.845,133.4604,373.57034,123.31366,375.80667,112.32525Z" fill="#f9977a"/><path d="M384.85027,111.43749a6.09628,6.09628,0,0,1,.10351,4.00125,13.20465,13.20465,0,0,1-1.61963,3.71237c-.19189.28174-.40966.55408-.58911.80313a.93415.93415,0,0,0-.23169.68042,2.168,2.168,0,0,0,.90577,1.37808,3.36189,3.36189,0,0,0,1.718.62543,7.046,7.046,0,0,0,1.95386-.05584,4.49939,4.49939,0,0,1-4.00122-.08991,2.61487,2.61487,0,0,1-1.28906-1.78906,1.64548,1.64548,0,0,1,.33691-1.16995l.57129-.80713a17.82669,17.82669,0,0,0,1.69678-3.4751A7.33871,7.33871,0,0,0,384.85027,111.43749Z" fill="#dd765e"/><path d="M405.54192,114.10253a6.31506,6.31506,0,0,0-.90674-.9925.65943.65943,0,0,0-.85327-.09375,3.71107,3.71107,0,0,0-.86939.84839c-.28686.34259-.56054.717-.90136,1.07209a4.39453,4.39453,0,0,1,.404-1.3899,2.71093,2.71093,0,0,1,.99219-1.18713,1.21629,1.21629,0,0,1,.92285-.15433,1.32381,1.32381,0,0,1,.72656.49491A2.4547,2.4547,0,0,1,405.54192,114.10253Z" fill="#dd765e"/><path d="M403.59636,117.7015a2.413,2.413,0,0,1-.64014-1.23728,4.3105,4.3105,0,0,1-.07006-1.3898,5.31418,5.31418,0,0,1,.32641-1.33411,4.47688,4.47688,0,0,1,.68579-1.18695c-.02978.92945-.18213,1.762-.26049,2.5997-.05127.4162-.0813.83161-.09693,1.25049A7.45933,7.45933,0,0,0,403.59636,117.7015Z" fill="#dd765e"/><path d="M389.49064,101.07306c1.313,1.0768,8.09067,11.73477,10.53331,12.92708a1.507,1.507,0,0,0,.89308.18139c.95543-.13972,1.34041-1.37713,2.40251-3.11835.80265-1.31587,1.15186-1.54215,1.61973-2.27935a10.63744,10.63744,0,0,0,.47948-9.5965,11.27036,11.27036,0,0,0-6.19718-5.46843c-5.56492-2.38318-10.9434-.30146-12.30744.22648-8.195,3.17184-11.69373,11.285-11.4041,11.5237C375.8505,105.74969,382.75838,95.552,389.49064,101.07306Z" fill="#160b07"/><path d="M397.41333,112.95308a.53017.53017,0,0,0,.04348-.90344c-.16954-.11569-4.19667-2.80464-8.14227-.9356a.53027.53027,0,1,0,.45392.9585c3.40291-1.61181,7.05488.82889,7.0915.85373A.53038.53038,0,0,0,397.41333,112.95308Z" fill="#160b07"/><path d="M383.11861,110.98644a.53045.53045,0,0,0,.0305-1.01426,10.234,10.234,0,0,0-6.41089.12527.53035.53035,0,0,0,.388.98719,9.2568,9.2568,0,0,1,5.68271-.10737A.53065.53065,0,0,0,383.11861,110.98644Z" fill="#160b07"/><path d="M395.90569,116.78368a9.61775,9.61775,0,0,0-3.51538-1.78317,4.66125,4.66125,0,0,0-1.90723-.03522,6.37538,6.37538,0,0,0-1.85254.71393,4.11983,4.11983,0,0,1,1.752-1.10938,4.02349,4.02349,0,0,1,2.12159-.08706,5.551,5.551,0,0,1,1.9187.864A5.907,5.907,0,0,1,395.90569,116.78368Z" fill="#160b07"/><circle cx="391.12556" cy="115.81254" r="1.18945" fill="#160b07"/><circle cx="379.80649" cy="114.39797" r="1.18945" fill="#160b07"/><path d="M383.76848,115.61824a9.61791,9.61791,0,0,0-3.51538-1.78317,4.66125,4.66125,0,0,0-1.90723-.03525,6.37643,6.37643,0,0,0-1.85254.714,4.12217,4.12217,0,0,1,1.7522-1.10937,4.02246,4.02246,0,0,1,2.12134-.08707,5.55108,5.55108,0,0,1,1.9187.864A5.903,5.903,0,0,1,383.76848,115.61824Z" fill="#160b07"/><path d="M403.89836,119.56978q.33252,2.86076.41333,5.73294a49.876,49.876,0,0,1-.10058,5.77365c-.02808.2468-.05908.49167-.1128.75483a2.05361,2.05361,0,0,1-.14306.46.79136.79136,0,0,1-.134.19964.56939.56939,0,0,1-.22339.14679.48692.48692,0,0,1-.32471.01715.571.571,0,0,1-.33423-.22409.88821.88821,0,0,1-.09424-.14907,6.40289,6.40289,0,0,1-.40722-1.52216c-.1565-.9613-.28174-1.9108-.367-2.86758-.19165-1.90836-.27636-3.82279-.28784-5.74265.39795,1.87811.7417,3.7601,1.061,5.63754.176.935.31884,1.87763.52319,2.79221a7.19373,7.19373,0,0,0,.33691,1.23691s.01856.03515-.001.003c-.04517-.0351.01489-.02844-.19776-.11637a.51839.51839,0,0,0-.2417.01313.46914.46914,0,0,0-.15161.09689c-.02759.01807-.04907.0737-.04028.04843a1.558,1.558,0,0,0,.05762-.22574c.03906-.20547.064-.43533.08813-.663.17969-1.85492.2146-3.77555.31714-5.67551Q403.65374,122.43821,403.89836,119.56978Z" fill="#ffcb33"/><circle cx="388.14631" cy="127.22946" r="2.97924" fill="#dd2f22"/><rect x="459.78865" y="206.92719" width="7.3818" height="111.34924" fill="#935b50"/><rect x="259.47046" y="197.26571" width="221.83268" height="5.66148" rx="1.27262" fill="#935b50"/><rect x="274.19201" y="206.92719" width="7.3818" height="111.34924" fill="#935b50"/><path d="M268.30339,202.92719H472.975a0,0,0,0,1,0,0v14.67091a2.54523,2.54523,0,0,1-2.54523,2.54523H270.84862a2.54523,2.54523,0,0,1-2.54523-2.54523V202.92719A0,0,0,0,1,268.30339,202.92719Z" fill="#c38f86"/><line x1="1" y1="317.49076" x2="501" y2="317.49076" fill="none" stroke="#935b50" stroke-linecap="round" stroke-linejoin="round" stroke-width="2"/></g></g></svg>