<svg id="Layer_1" data-name="Layer 1" xmlns="http://www.w3.org/2000/svg" viewBox="0 0 700 550"><title>students in a class</title><path d="M215.721,330.359c12.24445,66.9315,153.59449,176.95771,201.31,88.41861,25.11638-46.60523,99.58158-113.91917,156.96832-153.96215,55.8005-38.93647-102.37377-106.5177-201.30962-88.41838S203.47655,263.42752,215.721,330.359Z" fill="#efedef"/><path d="M197.282,332.18555c-13.46777-73.62012,63.98633-149.6875,172.65723-169.56836,39.54492-7.2334,92.77832-2.28516,142.3916,13.23828,47.39258,14.83105,81.875,36.13086,89.98926,55.58887,4.53418,10.875.69238,20.97754-11.11231,29.21386l-.666-.95312c11.46387-7.999,15.06543-17.35645,10.70508-27.81348-7.98633-19.14941-42.18946-40.19531-89.26367-54.92578-49.44043-15.4707-102.46583-20.40723-141.835-13.2041-108.04,19.76465-185.07421,95.22558-171.72168,168.21484Z" fill="#efedef"/><rect x="288.36108" y="135.27021" width="216.6623" height="133.51097" fill="#c0d6f2"/><path d="M485.58664,178.39355a1.11364,1.11364,0,0,1-.46484-.09765h0a1.55845,1.55845,0,0,1-.7666-1.01172,4.90564,4.90564,0,0,1,.49316-3.67188,4.81071,4.81071,0,0,1,2.83105-2.16113,1.52669,1.52669,0,0,1,1.21582.15821c.91993.6416.542,2.59082.0879,3.66894a5.87837,5.87837,0,0,1-2.75977,2.98145A1.7617,1.7617,0,0,1,485.58664,178.39355Zm-.25781-.55273a.95132.95132,0,0,0,.71191-.04687,5.4113,5.4113,0,0,0,2.48145-2.709c.42676-1.01367.69433-2.64258.08789-3.06543a1.08148,1.08148,0,0,0-.82422-.0791,4.31551,4.31551,0,0,0-2.50586,1.92578,4.42243,4.42243,0,0,0-.44727,3.26758,1.108,1.108,0,0,0,.4961.707Z" fill="#a6b862"/><path d="M341.40045,151.56049a.75045.75045,0,0,0,0-1.5.75045.75045,0,0,0,0,1.5Z" fill="#a6b862"/><path d="M344.60724,151.56049a.75045.75045,0,0,0,0-1.5.75045.75045,0,0,0,0,1.5Z" fill="#a6b862"/><path d="M340.76516,151.02215c2.08042.11106,4.15689.16317,6.2395.0686a28.10418,28.10418,0,0,0,3.11275-.22931c.83891-.13368,2.10987.24123,1.22437-.3787-1.44311-1.01032-3.68138-.322-4.8198.70744a.75856.75856,0,0,0,.53033,1.28033,8.88564,8.88564,0,0,0,3.38374-.077l-.19938-1.47321c-3.10648.71073-5.91913,1.72362-6.7823,5.04645a.7538.7538,0,0,0,1.37082.57792,15.75642,15.75642,0,0,1,4.46871-4.22524c.80038-.527.07861-1.79535-.75708-1.2952a10.51458,10.51458,0,0,0-4.44415,4.19608.75351.75351,0,0,0,1.17793.90887l3.96606-1.6792-.53033-1.28033c-1.46253,1.55241-3.68539,1.61267-4.94493,3.37738-1.49945,2.10082-.73537,5.19343-3.51945,6.63444l.90887,1.17794,3.19022-1.42471-.331-1.25353-1.77418.91332a.75348.75348,0,0,0,.19938,1.47321l2.04757.03178-.53033-1.28033-.45441.48169a.75755.75755,0,0,0,.331,1.25354l1.634.41463v-1.44641l-1.42765.35445a.75347.75347,0,0,0,.19938,1.47321,19.5064,19.5064,0,0,0,4.05488-.36648.75906.75906,0,0,0,.44822-1.10175c-.40714-.83369-.53424-.87246-1.38455-1.22778-.79409-.33182-1.29981.95921-.57792,1.37081a7.76347,7.76347,0,0,0,1.91154.86439l-.17916-1.37081-.27615.178a.778.778,0,0,0-.34467.847l.08088.37847a.76342.76342,0,0,0,.72321.55062,12.36039,12.36039,0,0,0,1.6048.04244.75045.75045,0,0,0,0-1.5l-1.42946-.00514a.75045.75045,0,0,0,0,1.5l1.83517.0252-.37854-1.3976-.83443.3375a.75046.75046,0,0,0,0,1.5,32.27612,32.27612,0,0,1,5.07064.65375l.19938-1.47321-2.61344-.09592a.75754.75754,0,0,0-.6476,1.12854l.84914,1.62525.44822-1.10175-1.85407-.135-.39876,1.44642,4.57519.9952c.7806.1698,1.39567-1.007.57792-1.37081l-1.30391-.58009c-.72569-.32285-1.5748.54572-.90887,1.17793l.82735.78546.53033-1.28033a17.5904,17.5904,0,0,1-3.38593.08253c-.82285-.01963-1.05039,1.34384-.19938,1.4732l1.94207.29521.19938-1.47321-.93562-.11062c-.77751-.09193-.96537,1.04314-.37854,1.3976l.77555.46846.17916-1.37081c-.73052.19771-1.32975-.09055-2.08764.12893a.76793.76793,0,0,0-.55062.72321c-.02638,1.71379,1.21614,2.56783,2.7528,2.93344v-1.44642l-.47846-.12225-.57791,1.37081,1.26808.48667c.53883.296,1.32515-.20149,1.10175-.847a9.89741,9.89741,0,0,0-2.18141-3.536c-.537-.65284-1.66243.20868-1.17793.90887.681.98422.07973,2.6225,2.425,3.65644.87517.38582,1.63941-.90623.75708-1.29521l-1.72338-1.80362a.77392.77392,0,0,0,.11727-.90887l-.2808-.40581-1.17793.90887a8.53791,8.53791,0,0,1,1.79565,2.874l1.10175-.847a4.32772,4.32772,0,0,0-1.62641-.63788.75346.75346,0,0,0-.57791,1.37081,1.94068,1.94068,0,0,0,1.63429.27347c.75117-.10365.67748-1.28524,0-1.44642-2.61583-.62237-.66074-.74492-.11454-.89274a.75887.75887,0,0,0,.17916-1.37081l-.77555-.46846-.37854,1.3976.93562.11062c.83145.09831,1.03506-1.34618.19938-1.47321l-1.94207-.2952-.19938,1.47321a17.5904,17.5904,0,0,0,3.38593-.08253.75951.75951,0,0,0,.53033-1.28033l-.82735-.78546-.90887,1.17793,1.30391.5801.57792-1.37081-4.57519-.99521a.75066.75066,0,0,0-.39876,1.44642,3.94037,3.94037,0,0,0,2.65159.135.75741.75741,0,0,0,.44822-1.10175l-.84913-1.62525-.64761,1.12854,2.61344.09592a.75338.75338,0,0,0,.19938-1.47321,34.50861,34.50861,0,0,0-5.4694-.70733v1.5a1.89551,1.89551,0,0,0,1.59151-.5423.75709.75709,0,0,0-.37854-1.3976l-1.83517-.0252v1.5l1.42946.00514v-1.5q-1.11-.38123-1.031.79866a.76032.76032,0,0,0-.17916-1.37081l-1.55322-.71317-.57792,1.37081.48811.53844.44822-1.10175a12.151,12.151,0,0,1-3.65612.3129l.19938,1.47321,1.42765-.35446a.756.756,0,0,0,0-1.44641l-1.634-.41464.331,1.25354.45441-.48169a.75893.75893,0,0,0-.53033-1.28033l-2.04757-.03178.19938,1.47321a3.65174,3.65174,0,0,0,2.43608-1.29908.7551.7551,0,0,0-.33095-1.25354c-1.6681-.39363-3.63639.08328-2.799,2.18983a.79736.79736,0,0,0,.72321.55062c1.32621.13235,3.5521-.40378,3.06-2.19835-.76772-2.79966-4.70642.29887-5.63382,1.26835a.75337.75337,0,0,0,.90887,1.17794c1.84718-.95608,2.18871-2.14417,2.92693-3.94445.99522-2.427,1.70021-3.65484,4.00377-4.92232a5.73173,5.73173,0,0,0,1.83726-1.3796c.4064-.43136.15341-1.34918-.53033-1.28033a8.23112,8.23112,0,0,0-5.02672,2.11854l1.17793.90887a9.1564,9.1564,0,0,1,3.906-3.658l-.75708-1.2952a18.9652,18.9652,0,0,0-5.00684,4.76337l1.37081.57791c.74967-2.88591,3.34276-3.45155,5.73464-3.99879.8064-.1845.65113-1.57453-.19938-1.47321a8.88564,8.88564,0,0,1-3.38374.077l.53033,1.28033c2.10523-1.90368,5.8436,1.38339,7.5356-1.54687a.74172.74172,0,0,0,0-.75708c-.74749-1.06409-.82-.81354-2.10536-.96313-1.52952-.178-4.307.52739-6.00822.607a62.25049,62.25049,0,0,1-6.2395-.0686c-.96465-.05149-.9618,1.44866,0,1.5Z" fill="#a6b862"/><path d="M318.264,161.60057a8.284,8.284,0,0,0,2.88733,1.66074c.918.30547,1.3117-1.14264.39875-1.44642a6.42209,6.42209,0,0,1-2.22542-1.275c-.72241-.63517-1.78734.42173-1.06066,1.06066Z" fill="#a6b862"/><path d="M325.36558,164.724a12.80458,12.80458,0,0,1,4.63852,1.23318c.86618.41577,1.62795-.87718.75708-1.2952a14.82373,14.82373,0,0,0-5.3956-1.438c-.96309-.07026-.95863,1.43007,0,1.5Z" fill="#a6b862"/><path d="M324.64694,159.18394a6.28714,6.28714,0,0,0,3.76571,1.03036c.96115-.0448.96662-1.54506,0-1.5a4.89573,4.89573,0,0,1-3.00863-.82557c-.80906-.53168-1.56137.76666-.75708,1.29521Z" fill="#a6b862"/><path d="M330.77006,154.68774a2.87783,2.87783,0,0,0,2.933,1.99517c.95375-.08564.96276-1.58645,0-1.5a1.37889,1.37889,0,0,1-1.48661-.89393c-.30512-.91067-1.75431-.52018-1.44641.39876Z" fill="#a6b862"/><path d="M337.14439,152.33122a6.07737,6.07737,0,0,0,3.13553,2.09818.75064.75064,0,0,0,.39875-1.44641,4.75638,4.75638,0,0,1-2.47362-1.71244.75468.75468,0,0,0-1.06066,0,.76842.76842,0,0,0,0,1.06067Z" fill="#a6b862"/><path d="M374.91445,165.9518c2.02832,1.09264,4.19931,2.7475,6.61018,2.40245.9518-.13622.547-1.58177-.39876-1.44642-1.79955.25756-3.935-1.43275-5.45434-2.25123-.84984-.45781-1.60816.83673-.75708,1.2952Z" fill="#a6b862"/><path d="M397.03258,150.05005a8.73919,8.73919,0,0,1,4.18711,1.46554c.80785.53346,1.56-.765.75708-1.29521a10.30469,10.30469,0,0,0-4.94419-1.67033c-.96255-.07522-.95766,1.42516,0,1.5Z" fill="#a6b862"/><path d="M403.45294,149.49a14.3951,14.3951,0,0,1,3.01213.08c.94407.13115,1.35227-1.314.39876-1.44642a16.19264,16.19264,0,0,0-3.41089-.13363c-.95729.06858-.96482,1.56912,0,1.5Z" fill="#a6b862"/><path d="M424.33959,159.85252c-.433-2.012,1.07086-2.61471,2.49272-3.44465,1.27467-.744,2.12759-2.51449,3.70992-2.6156.9586-.06126.9655-1.5617,0-1.5a4.176,4.176,0,0,0-2.58228,1.13328,13.84624,13.84624,0,0,1-2.93712,2.17993,4.10834,4.10834,0,0,0-2.12965,4.6458c.203.94323,1.64933.54407,1.44641-.39876Z" fill="#a6b862"/><path d="M431.35007,160.69588l.92957.00514c.15492.00086.30988.00057.46478.00257q.0779-.00061.15573.00229.28291.02935-.21919-.27592c-.09741.11932.00385.66387.004.829l.0011,1.09637a.75045.75045,0,0,0,1.5,0c-.00053-.53154.0018-1.06318-.0016-1.59472a1.64053,1.64053,0,0,0-.293-1.1375c-.56907-.65415-1.768-.42291-2.54143-.42719a.75045.75045,0,0,0,0,1.5Z" fill="#a6b862"/><path d="M332.55462,159.34316a3.80685,3.80685,0,0,1,1.39707.68468.77434.77434,0,0,0,1.06066,0,.75464.75464,0,0,0,0-1.06066,5.59977,5.59977,0,0,0-2.059-1.07044.75064.75064,0,0,0-.39876,1.44642Z" fill="#a6b862"/><path d="M331.82419,162.31239a5.31185,5.31185,0,0,0,4.67621,1.4026c.94954-.16259.54695-1.60835-.39876-1.44642a3.72011,3.72011,0,0,1-3.21679-1.01684c-.69684-.66826-1.759.39092-1.06066,1.06066Z" fill="#a6b862"/><path d="M338.17585,159.05211a2.30774,2.30774,0,0,1-.11615,2.30451c-.50591.82523.79094,1.57962,1.29521.75708a3.85006,3.85006,0,0,0,.11615-3.81867c-.44087-.8591-1.7356-.10109-1.29521.75708Z" fill="#a6b862"/><path d="M342.78917,168.02218l.96421.79908c.738.61163,1.80489-.44387,1.06066-1.06066l-.96421-.79908c-.738-.61163-1.80489.44387-1.06066,1.06066Z" fill="#a6b862"/><path d="M342.29589,171.35337a7.82511,7.82511,0,0,0,4.55644,1.2169c.96161-.04136.96679-1.54159,0-1.5a6.40173,6.40173,0,0,1-3.79936-1.01211c-.818-.51784-1.57145.77968-.75708,1.29521Z" fill="#a6b862"/><path d="M343.88465,203.51736a8.01112,8.01112,0,0,0,7.13606,3.03871c.95112-.0967.96108-1.59771,0-1.5a6.66108,6.66108,0,0,1-6.0754-2.59937c-.59334-.76018-1.64806.30809-1.06066,1.06066Z" fill="#a6b862"/><path d="M418.24786,228.79229c.20795-1.14723.41355-2.29491.62385-3.44171.16691-.91014.24469-2.06014,1.16308-2.52284.86225-.43442.10369-1.72888-.75708-1.29521a3.28809,3.28809,0,0,0-1.62009,2.2591c-.39918,1.49584-.58016,3.07917-.85617,4.6019-.17108.94381,1.27423,1.34866,1.44641.39876Z" fill="#a6b862"/><path d="M438.45751,207.731v.32068a.75045.75045,0,0,0,1.5,0V207.731a.75045.75045,0,0,0-1.5,0Z" fill="#a6b862"/><path d="M449.76933,205.79343c.308,2.50371.74161,5.21882,2.83768,6.883.74836.59417,1.81669-.46039,1.06066-1.06066-1.77414-1.4086-2.13689-3.69688-2.39834-5.82235-.11634-.94575-1.61778-.95742-1.5,0Z" fill="#a6b862"/><path d="M384.46187,175.46571a4.621,4.621,0,0,0,.12129,2.009.75065.75065,0,0,0,1.44642-.39876,2.83262,2.83262,0,0,1-.12129-1.21149.77684.77684,0,0,0-.52383-.92259.75468.75468,0,0,0-.92259.52383Z" fill="#a6b862"/><path d="M385.931,173.9725c3.54929,1.77108,4.54036,6.48086,7.18922,9.11547,1.03671,1.03114,2.38452,1.64828,3.43485,2.7306a8.47645,8.47645,0,0,0,3.02078,2.20652c.891.36888,1.2795-1.0818.39876-1.44641-1.67489-.69338-2.50485-2.25074-3.8973-3.286a13.75142,13.75142,0,0,1-3.60251-3.88373c-1.49184-2.24148-3.31444-5.498-5.78672-6.73168-.86124-.42976-1.62186.86368-.75708,1.29521Z" fill="#a6b862"/><path d="M466.58656,184.28936a10.11813,10.11813,0,0,0,.95787,6.04177c.428.86527,1.72221.10617,1.2952-.75707a8.33642,8.33642,0,0,1-.80665-4.88594c.13226-.9441-1.31285-1.35222-1.44642-.39876Z" fill="#a6b862"/><path d="M470.364,194.31621c1.24567-1.38331,2.88-2.05149,4.06878-3.50237,1.0524-1.28438,2.07-2.65147,3.07168-3.98364,2.11531-2.81331,2.38-5.59754,1.64541-8.97213-.20523-.94278-1.6516-.54382-1.44642.39875.9536,4.38062-.62305,6.5998-3.18678,9.8503a15.1365,15.1365,0,0,1-3.05385,3.40112,12.00343,12.00343,0,0,0-2.15948,1.74731c-.64447.71568.413,1.77984,1.06066,1.06066Z" fill="#a6b862"/><path d="M463.347,201.9962l.28231,1.76985a.75522.75522,0,0,0,.92259.52383.76867.76867,0,0,0,.52383-.92259l-.28231-1.76985a.75523.75523,0,0,0-.92259-.52383.76866.76866,0,0,0-.52383.92259Z" fill="#a6b862"/><path d="M457.437,212.94474a2.28883,2.28883,0,0,0,2.08857-.844,4.81912,4.81912,0,0,1,2.492-1.37551c.94468-.19543.54489-1.64163-.39876-1.44642a5.862,5.862,0,0,0-2.05329.83136,6.49208,6.49208,0,0,0-.75271.5862c-.186.16772-.68047.85064-.977.80191-.9443-.15519-1.35049,1.29-.39876,1.44642Z" fill="#a6b862"/><path d="M454.99417,215.65057c1.35346.66065,2.16675,2.24977,3.21489,3.29171a19.02792,19.02792,0,0,0,3.61452,2.7845.75056.75056,0,0,0,.75708-1.29521,17.325,17.325,0,0,1-3.9476-3.21751c-.92015-1.01793-1.61159-2.23868-2.88181-2.8587-.86411-.42179-1.62539.87137-.75708,1.29521Z" fill="#a6b862"/><path d="M464.7589,217.79493c.29864-.06715.764.39065,1.01908.52446a1.90944,1.90944,0,0,0,1.19686.25575,1.544,1.544,0,0,0,1.04046-.68936c.23436-.34885.29746-.81675.58763-1.12454.66192-.7021-.3968-1.76483-1.06066-1.06066a3.41185,3.41185,0,0,0-.61163,1.0273c-.1399.31009-.13835.4227-.4672.25541-.72135-.367-1.23975-.829-2.1033-.63478-.94141.21168-.543,1.65818.39876,1.44642Z" fill="#a6b862"/><path d="M469.63012,219.8453l1.60035.64887a.75562.75562,0,0,0,.92259-.52382.76755.76755,0,0,0-.52383-.92259l-1.60035-.64888a.75563.75563,0,0,0-.92259.52383.76755.76755,0,0,0,.52383.92259Z" fill="#a6b862"/><path d="M480.55579,219.85614c2.69053.08844,4.35415,2.81534,6.70025,3.82126.87759.37629,1.64262-.91551.75707-1.2952-2.68135-1.14968-4.32192-3.923-7.45732-4.02606-.9655-.03174-.96436,1.4683,0,1.5Z" fill="#a6b862"/><path d="M481.82176,221.96219a5.52817,5.52817,0,0,1,1.9409,1.54964.77652.77652,0,0,0,1.02614.26906.75417.75417,0,0,0,.26906-1.02614,7.14592,7.14592,0,0,0-2.479-2.08777c-.86125-.42974-1.62187.8637-.75708,1.29521Z" fill="#a6b862"/><path d="M465.11178,208.37433a1.7258,1.7258,0,0,0,1.875.763,1.698,1.698,0,0,0,1.21454-1.73045c-.05523-.95961-1.5556-.966-1.5,0,.00957.16642-.1292.44962-.29433.21038-.54478-.7893-1.84542-.04009-1.2952.75708Z" fill="#a6b862"/><path d="M490.90429,248.15478c2.14917-2.74645,5.70337-5.91976,4.80932-9.75667-.219-.93975-1.66562-.542-1.44642.39876.716,3.0727-2.69333,6.08617-4.42356,8.29725-.58821.75168.46606,1.82051,1.06066,1.06066Z" fill="#a6b862"/><path d="M485.27663,244.60906a3.05358,3.05358,0,0,0,.69707,1.81611.75487.75487,0,0,0,1.06066,0,.768.768,0,0,0,0-1.06066,1.32618,1.32618,0,0,1-.25773-.75545c-.04577-.961-1.546-.96657-1.5,0Z" fill="#a6b862"/><path d="M347.333,214.10448c-1.23423,1.07307-.44055,2.0637-2.241,5.3223-1.4677,2.65634-2.59566,3.085-2.44886,4.41829.165,1.49862,1.67583,1.73716,3.60757,3.96845a14.9569,14.9569,0,0,1,2.88615,5.41143,12.83469,12.83469,0,0,1-1.08228,8.65831,15.50643,15.50643,0,0,0-1.08229,10.10138c.82784,3.20136,2.83274,6.01893,3.60765,5.77223.86658-.27581-.86307-4.04665,1.08229-7.93681a42.06583,42.06583,0,0,1,4.32915-4.68994c3.98834-4.07927,4.61606-4.59787,5.41144-6.13294.98842-1.90768.73732-2.49323,1.80379-3.60765,1.727-1.8046,3.3404-1.26717,4.32923-2.88607.90059-1.47448-.17436-2.35166.7215-4.32916.94218-2.07967,2.63774-2.22794,2.52536-3.24694-.14973-1.35777-3.30077-2.37262-5.77223-2.52528-2.1578-.13326-2.55945.46721-3.60765,0-2.08979-.93142-1.38534-3.7158-3.24686-6.133C355.63416,212.99446,349.68569,212.05881,347.333,214.10448Z" fill="#a6b862"/><path d="M389.823,189.90941c-3.69842.84268-4.17865,1.44835-5.33132,2.54923-1.02659.98051-.49389,1.56655-1.80379,3.24686-1.42367,1.82622-2.41111,1.59346-2.88607,2.88616-.14949.40687-.16156.72908.7215,4.32915a16.90157,16.90157,0,0,0,1.20257,3.96836,5.573,5.573,0,0,0,1.98418,2.58547c.71906.41551,1.41226.45425,5.53173-.0601,2.96845-.37058,3.30493-.47766,4.02847-.2405a6.46533,6.46533,0,0,1,3.36716,3.307,9.87412,9.87412,0,0,1,1.14239,4.56973c.08465,1.97391-.367,2.4368-.4209,4.08865-.063,1.93281.50653,2.79327,1.74377,6.19313,2.222,6.1061,1.88216,7.446,3.24686,7.99691,1.79066.72288,4.26579-.821,5.53165-2.16458,1.87547-1.99062.97806-3.41568,3.42726-7.51591.96876-1.62192,1.40418-1.89276,1.74368-3.12666.59305-2.15544-.25029-3.09224.18039-5.11083.32768-1.53556,1.13041-2.46828,2.64566-4.22892,2.87148-3.3365,5.2233-4.10587,4.97048-5.05065-.30125-1.12592-3.62282.03588-5.93256-2.00425-1.67779-1.482-.84774-2.91-2.64557-6.41364-1.04845-2.04323-2.51305-4.89741-4.97057-5.37132-2.10431-.4058-2.94373,1.3179-6.24964,1.0482a5.72586,5.72586,0,0,1-3.37066-1.0482c-1.79514-1.45213-1.11507-3.44862-2.56549-4.249C394.15736,189.56572,393.11444,189.15945,389.823,189.90941Z" fill="#a6b862"/><path d="M388.70058,182.71805c.04167-1.80044,1.69785-3.14419,2.56541-3.84815a8.84044,8.84044,0,0,1,3.04649-1.60342,12.13269,12.13269,0,0,1,4.00848-.32066c2.98125.05586,2.97937.49731,3.84816.16033,1.67428-.6494,1.31047-2.14508,3.59843-3.74743,1.25828-.88118,2.173-.99242,2.1738-1.5438.00089-.64321-1.24254-1.35092-2.40516-1.443-1.34171-.10626-2.08612.64631-2.40508.32067-.28511-.29106.14623-1.05913,1.12242-3.36715.89553-2.11744.94356-2.44276.80166-2.56541-.36528-.31569-1.85851.82409-2.56541,1.44308a8.92878,8.92878,0,0,0-2.40507,3.0464c-.92212,1.99193-.32393,2.86218-1.12242,3.52749-1.28062,1.067-4.50408.23243-4.97048-1.28275-.23928-.77728.7458-1.97186,2.72574-4.32915a25.43917,25.43917,0,0,1,3.68782-3.84815c1.87816-1.52773,2.81733-2.29155,4.32915-2.56541,1.47236-.26668,2.6384.08947,4.97057.80167,1.34366.41037,2.71489.8413,2.72574,1.44307.01492.82516-2.54225,1.17453-2.56541,2.24475-.01027.47561.49193.53066.962,1.44307.61752,1.19867.214,2.00311.64133,2.24475.51232.28975,1.42514-.6782,3.04649-1.92408a18.13586,18.13586,0,0,1,4.00849-2.56541,13.24492,13.24492,0,0,1,5.13089-.96208c1.95156.08058,3.12234.653,3.68774,0,.58963-.681-.1848-1.87938.32075-2.24474.60357-.43623,2.28291.85573,3.04641,1.44308,1.95009,1.50016,2.07095,2.29065,3.04648,2.40507,1.4439.16931,3.15537-1.33086,3.04641-2.40507-.09982-.9841-1.68822-1.22256-1.60341-1.92408.08212-.67942,1.68317-1.37555,2.88616-.96208.93932.32287.92244,1.07707,1.92407,1.44308,1.16368.42522,2.53744-.09925,2.56541-.481.02659-.36242-1.17664-.36829-2.08441-1.44308-.62763-.74311-.95-1.80321-.64133-2.08441.35875-.32686,1.20666.72949,2.56541.64134.51957-.03377.81863-.21571,2.56541-1.443,2.61377-1.83657,2.70478-1.96363,3.20682-2.08441,1.54746-.37237,2.0261.51166,3.20674,0,1.43158-.62045,1.48344-2.2476,2.40515-2.24474.75877.00236.842,1.10545,2.08441,1.60333,1.19557.47912,2.33657-.05424,2.40508.16033.10806.33861-2.961.95678-3.36716,2.72582a1.845,1.845,0,0,0,.64134,1.92408c1.03458.56818,2.19532-1.433,4.32923-1.28275,1.17852.08294,1.13628.71522,2.88607,1.12242,1.67428.38957,2.01289-.11948,3.52749.16033,2.15161.39749,2.20079,1.56,4.00849,1.92408,1.80077.36266,2.251-.69051,4.97048-1.12242a15.4544,15.4544,0,0,1,6.0929.481c3.27867.7034,3.13244,1.37172,6.09289,1.92408a25.19158,25.19158,0,0,0,6.25323.32075c2.96485-.26635,3.79319-.95825,4.6499-.32075,1.3647,1.01558,1.15634,4.18048-.16033,6.25323-1.25486,1.97537-3.80673,3.416-5.77223,2.88615-1.18056-.31822-1.30893-1.12078-3.36716-1.92407-1.20217-.46918-2.05448-.80183-2.88607-.481-1.48165.5716-1.02414,2.4947-2.40508,3.20674-1.438.74139-2.5464-1.02822-5.45156-.80167a7.989,7.989,0,0,0-3.36716,1.12233c-.5309.29253-3.12208,1.72012-2.88607,2.88616.18651.92138,1.92506.62616,2.88607,2.08441a4.08228,4.08228,0,0,1,.32067,3.20682,5.58433,5.58433,0,0,1-3.36707,3.36707c-1.18562.43346-1.568.07911-2.24483.64142-.98377.8174-.55823,1.884-1.60333,2.72574a3.3699,3.3699,0,0,1-2.0844.64133c-1.49234.01239-1.89472-.89048-2.88616-.64133a2.28212,2.28212,0,0,0-1.60341,1.92407c-.0597.96347.81112,1.22737,1.60341,2.72574.28527.53956,1.25135,2.36651.64141,4.00849-.44324,1.19328-1.52528,1.76774-2.72582,2.40508a8.58335,8.58335,0,0,1-4.32915,1.12241c-1.27247-.03792-1.91078-.3877-2.24474,0-.458.53172.192,1.82882.64133,2.72574.97366,1.94332,1.78209,2.19165,1.76374,3.20682A2.40059,2.40059,0,0,1,455.0811,207.25c-.75078.10129-1.41935-.57242-2.72574-1.92407-.64753-.66988-1.05579-1.17127-2.56541-3.04641-1.45393-1.806-1.80281-2.24482-2.56549-2.72582a3.91883,3.91883,0,0,0-2.40508-.80167c-.40393.02961-.88656.15389-2.5654,1.44308-1.80632,1.38705-2.70944,2.08066-3.04649,2.88607-.41348.988-.02064,1.219-.481,3.04649-.21587.85688-.59876,2.37686-1.12241,2.40508-.80395.0433-1.5699-3.37523-1.60333-3.52749-.64419-2.93174-.00628-4.1565-.96208-4.97056-.94039-.80094-2.02056-.0093-3.04641-.962-.89308-.82939-.34317-1.679-1.12241-2.40508-1.1556-1.07674-2.7759.40858-5.13082-.481-1.33216-.50326-1.17827-1.11629-3.04649-1.92407-.6883-.29759-2.63578-1.13962-3.20682-.48108-.48051.55407.139,2.02561.96208,2.88615a5.55759,5.55759,0,0,0,3.68782,1.44308c1.271.0473,1.81822-.32735,2.08441,0,.4757.58514-.75118,2.42294-1.76374,3.52741-1.02178,1.11458-2.522,2.7511-4.81015,2.72582a5.573,5.573,0,0,1-3.52749-1.44308,10.35164,10.35164,0,0,1-2.72582-4.48948c-1.05293-3.74565.67721-6.81-.962-8.17731-1.14166-.95229-2.71334-.07666-3.36715-1.12241a2.50925,2.50925,0,0,1,.80174-3.04641c1.61736-1.04714,4.05987,1.334,4.97049.481.70983-.6649.07029-2.90271-1.28275-4.16882-1.43411-1.342-3.78772-1.70258-5.13082-.80174-.666.44666-.49258.80712-1.60341,2.24474-1.06932,1.38387-1.7648,2.284-2.72574,2.40516-1.16465.14687-1.40833-1.01558-3.52748-1.92408a8.81962,8.81962,0,0,0-4.32916-.64141,10.565,10.565,0,0,0-3.52748,1.12241,13.33,13.33,0,0,0-2.72574,1.60341c-1.76554,1.36373-1.92416,2.26611-2.72583,2.24474-1.13032-.03009-2.33453-1.86438-1.92407-2.72582.47879-1.00481,2.9474-.25176,3.52748-1.443C389.12311,183.9433,388.67864,183.66643,388.70058,182.71805Z" fill="#a6b862"/><path d="M469.191,240.27993c1.2334.19458,1.54526-1.39227,4.48948-2.40516a7.44947,7.44947,0,0,1,4.6499-.32066,7.16749,7.16749,0,0,1,2.72574,1.60341c1.52594,1.35581,1.29571,2.16311,2.40508,2.88607a4.62953,4.62953,0,0,0,4.64989,0c2.49242-1.47252,2.27631-4.94422,2.24475-5.45148a8.4168,8.4168,0,0,0-2.24475-5.1309,13.94887,13.94887,0,0,1-2.40515-3.04641c-.18129-.34407-.30142-.62722-.30142-.62722-.55644-1.31186-.51436-2.25135-.66058-2.25893-.26138-.01354-.0557,3.00538-1.28274,3.52749-.77419.32939-1.86936-.44121-2.40508-.96208-1.52365-1.48141-.92995-3.284-1.92408-3.68774-.63407-.25755-1.07323.39545-3.84815,2.08441-2.42081,1.47341-2.74262,1.37579-3.52741,2.24474-1.05651,1.16988-.95963,1.8855-1.92407,2.40508-1.31757.70983-2.28177-.20372-3.04649.32066C465.02794,232.66681,466.64758,239.87869,469.191,240.27993Z" fill="#a6b862"/><path d="M355.831,151.93282c1.90825-2.05309,4.108-.60373,6.73423-2.72574,1.52389-1.23128,1.41869-2.23275,2.88607-2.72574a4.7255,4.7255,0,0,1,4.00848.64133c1.23822.842,1.13253,1.68978,2.40516,3.68782,1.742,2.735,2.666,2.28617,3.84815,4.48949.212.3952,2.08026,3.97546.64134,6.09289-.657.96673-1.32809.635-3.36716,2.08441a8.15318,8.15318,0,0,0-3.0464,3.04649c-1.16923,2.60472,1.06744,4.7551,0,5.93256-1.04519,1.15292-4.18978.19418-6.0929-1.12241-.7144-.49421-3.028-2.09485-3.04649-4.32915-.02079-2.51794,2.89374-3.34138,2.56541-5.29123-.236-1.40165-1.965-2.29963-4.32915-3.52741-2.63922-1.37066-3.84979-1.273-4.32915-2.40515C354.20013,154.58011,354.90809,152.92581,355.831,151.93282Z" fill="#a6b862"/><path d="M295.86407,168.44785c-.112,1.1379,1.23675,1.70559.962,2.72574-.33355,1.23862-2.50155,1.06932-2.72574,2.08441-.22607,1.02341,1.62828,2.77712,3.68782,3.04649,1.804.23593,2.373-.849,4.97048-1.60341a12.3659,12.3659,0,0,1,7.21531,0c2.343.79351,3.7706,2.26994,5.45156,4.00848a13.46347,13.46347,0,0,1,3.04641,4.16882,16.27935,16.27935,0,0,1,1.12241,5.29123c.3139,3.20209-.20853,3.37066.32067,4.48949.91967,1.94446,2.52814,1.49975,5.13081,4.00848a20.92816,20.92816,0,0,1,3.04649,4.00849c1.86993,2.8634,1.62682,3.36071,2.72574,4.32915,1.47024,1.29571,2.47489.90744,5.6119,1.92408,4.3979,1.4253,6.38241,3.47138,6.73423,3.0464.36283-.43826-1.28291-3.1764-4.00849-4.64981-2.22884-1.20487-3.64582-.73488-4.32915-1.92408-.7825-1.36177.14712-3.59412,1.44308-4.81015a6.16785,6.16785,0,0,1,7.6963-.16033c1.56394,1.32433,1.72623,3.44357,2.08441,3.36707.4284-.0915-.42407-2.99087.481-5.77223a9.69585,9.69585,0,0,1,4.16882-4.97048c2.71661-.54094,3.495-1.39056,3.68782-2.08441.36169-1.30159-1.25934-2.33494-.80166-3.84816a3.26057,3.26057,0,0,1,2.24474-1.92407c2.39561-.6751,4.5385,1.60512,4.97048,1.12241.39162-.4377-1.6229-2.02928-3.36715-5.6119-.68953-1.41624-1.15577-2.77182-1.76366-2.72582-.67551.051-.72909,1.77239-1.60342,1.92408-.35834.06222-.69646-.16678-2.24474-1.76367-1.64549-1.69711-1.90042-2.09533-2.40515-2.08441-.84171.01827-1.682,1.15936-1.924,2.24475-.417,1.86968,1.11556,2.78959.64133,4.16882a3.53026,3.53026,0,0,1-3.68782,1.92407c-1.968-.35834-1.8077-2.68635-4.48948-4.16882-1.95613-1.08131-3.4293-.60985-3.68782-1.44307-.26456-.8528,1.20143-1.59567,3.20682-4.16882,1.522-1.953,2.52683-3.2423,2.24474-4.6499-.33844-1.689-2.49119-3.35778-3.84815-2.72574-1.02374.47684.06671,2.50236-1.12241,3.68782-.81855.816-1.86569.42293-7.69631,0a17.85315,17.85315,0,0,1-3.20674-.32067c-2.53817-.62918-2.66352-1.62062-4.81023-2.24474a10.51174,10.51174,0,0,0-6.25323.32066c-1.958.73243-1.96893,1.48076-3.36707,1.60341-1.68758.1481-2.22607-.89349-4.97057-1.92407a15.96139,15.96139,0,0,0-6.25323-1.25924C297.87687,165.32546,296.01927,166.8711,295.86407,168.44785Z" fill="#a6b862"/><circle cx="190.69601" cy="188.84206" r="28.03391" fill="#ffba55"/><path d="M190.696,217.376A28.5337,28.5337,0,1,1,219.2302,188.8418,28.567,28.567,0,0,1,190.696,217.376Zm0-56.06739A27.5337,27.5337,0,1,0,218.2302,188.8418,27.56488,27.56488,0,0,0,190.696,161.30859Z" fill="#d77f4a"/><path d="M190.696,191.3418a.49972.49972,0,0,1-.5-.5V172.76465a.5.5,0,0,1,1,0V190.8418A.49972.49972,0,0,1,190.696,191.3418Z" fill="#d77f4a"/><path d="M175.1423,195.082a.50015.50015,0,0,1-.2246-.94726l18.75683-9.40625a.5005.5005,0,1,1,.44922.89453l-18.75684,9.40625A.49858.49858,0,0,1,175.1423,195.082Z" fill="#d77f4a"/><polygon points="267.288 370.088 218.602 370.088 218.602 342.907 267.199 342.907 267.288 370.088" fill="#935b50"/><rect x="203.57766" y="362.04321" width="78.26426" height="8.04513" rx="1.3018" fill="#d6694b"/><rect x="208.73279" y="370.08834" width="67.71967" height="5.07702" rx="1.3018" fill="#935b50"/><rect x="238.72628" y="375.16536" width="7.49837" height="50.61401" fill="#d6694b"/><polygon points="246.225 429.8 294.304 446.738 294.304 440.646 246.225 425.779 238.726 425.779 190.608 440.646 190.608 446.738 238.726 429.8 246.225 429.8" fill="#935b50"/><rect x="184.02461" y="439.70864" width="7.14689" height="12.6535" rx="1.62725" fill="#d6694b"/><rect x="293.74037" y="439.70864" width="7.14689" height="12.6535" rx="1.62725" transform="translate(594.62763 892.07078) rotate(-180)" fill="#d6694b"/><rect x="236.96885" y="423.90478" width="11.01323" height="7.96702" rx="1.3018" fill="#e19974"/><rect x="207.79549" y="273.93734" width="69.82859" height="66.0794" rx="5.8581" fill="#d6694b"/><path d="M235.09531,425.40667l3.55135,18.99919s-10.00234,4.33222-16.835-7.27589l-.87-11.292Z" fill="#f9977a"/><path d="M190.78357,413.81431l-6.781,18.04674s-10.71487-1.77747-10.52588-15.34483l5.08237-10.04973Z" fill="#f9977a"/><path d="M240.079,328.00516l34.23788,2.38238s7.78233,13.11515,8.55454,25.099a13.45817,13.45817,0,0,1-13.43526,14.31332H240.079v62.67491H216.653l-1.28714-54.17485-23.60215,44.23562-21.88135-12.97075,40.02646-77.73a9.168,9.168,0,0,1,10.54476-4.83342l19.62534,5.23916Z" fill="#376f92"/><path d="M236.87472,272.81565l-4.44881,3.63708-3.19071,13.64581,29.96436-.38005,9.6837-15.334s-14.959-1.1396-18.31494-9.40339Z" fill="#f9977a"/><path d="M259.60431,272.14853,278.482,276.6609a12.78174,12.78174,0,0,1,6.30123,3.65085c7.49718,7.90795,28.49177,30.32525,30.76011,35.74,2.76731,6.6058-14.726,12.0937-19.47,4.7765l-18.48164-20.42718L276.307,333.02358H232.0301l-2.17431-11.17906s-1.779,6.91069-4.151,8.53673c0,0-14.23185,5.28465-12.05754-9.75626l8.10425-37.80554,14.59817-9.57459s-2.98252,20.90973,16.43517,13.43645C264.7349,282.0821,259.60431,272.14853,259.60431,272.14853Z" fill="#f73c4f"/><ellipse cx="233.73603" cy="263.81203" rx="4.48058" ry="4.60732" fill="#160b07"/><ellipse cx="231.47942" cy="269.30059" rx="4.48058" ry="4.60732" fill="#160b07"/><ellipse cx="230.54171" cy="276.10733" rx="4.48058" ry="4.60732" fill="#160b07"/><ellipse cx="230.60998" cy="282.6777" rx="4.48058" ry="4.60732" fill="#160b07"/><path d="M236.7351,434.34858s8.38267,10.767,3.73647,17.11308a2.55777,2.55777,0,0,1-2.07839,1.04363l-41.55883-.232a1.38,1.38,0,0,1-1.33419-1.55708c.23851-2.21383,1.24354-6.2175,5.30894-8.056,5.78033-2.61407,9.88117,2.09629,19.52-6.42807C220.32914,436.23213,232.82323,439.92421,236.7351,434.34858Z" fill="#935b50"/><path d="M187.56527,422.29071s1.559,13.69885-5.65191,16.5482a2.52116,2.52116,0,0,1-2.30038-.24771l-35.12223-22.84588a1.41723,1.41723,0,0,1-.32885-2.04752c1.34331-1.74734,4.25915-4.59471,8.6542-3.93817,6.24906.93351,7.29875,7.1628,19.86612,5.18724C172.68222,414.94687,181.37422,424.88691,187.56527,422.29071Z" fill="#935b50"/><path d="M251.997,259.39024c-1.55645.03433-2.80739.12834-4.00644.03164-7.96531-.64224-17.79421-10.05648-16.83551-18.97294.83553-7.77115,9.56273-12.34911,11.686-13.463a17.33566,17.33566,0,0,1,17.33144-.04857c4.45832,2.46427,6.9956,5.97574,7.71737,7.82229C282.93289,273.24486,247.06177,263.31646,251.997,259.39024Z" fill="#160b07"/><path d="M237.82078,266.76389s5.90137,4.4334,12.67657-1.14918c0,0-2.24586,9.7655-13.62263,7.20094A7.10654,7.10654,0,0,0,237.82078,266.76389Z" fill="#dd765e"/><path d="M231.80336,245.15421c2.21609-11.19708,10.04505-19.01162,17.48645-17.45436,5.74347,1.202,9.57388,7.63721,10.00553,15.65893a2.07283,2.07283,0,0,1,1.784-.26627c1.6163.61764,1.95663,3.80212.76015,7.11266-1.01015,2.79513-2.79177,4.77895-4.29518,4.95955-3.13916,8.77882-9.85241,14.42822-16.27972,13.08321C233.8232,266.6906,229.58725,256.35122,231.80336,245.15421Z" fill="#f9977a"/><path d="M240.76511,244.2496a6.34368,6.34368,0,0,1,.11889,4.03824,13.78539,13.78539,0,0,1-1.58239,3.76569c-.36328.59363-.9126,1.08432-.8501,1.52133a2.13444,2.13444,0,0,0,.85327,1.42413,3.23961,3.23961,0,0,0,1.71216.66388,6.66661,6.66661,0,0,0,1.96863-.05688,4.35093,4.35093,0,0,1-4.02881-.13724,2.60092,2.60092,0,0,1-1.224-1.85757,1.74475,1.74475,0,0,1,.37158-1.15482c.2-.29056.38794-.5448.5614-.81824a18.92656,18.92656,0,0,0,1.66565-3.53253A7.71568,7.71568,0,0,0,240.76511,244.2496Z" fill="#dd765e"/><path d="M252.77342,245.48907a.5301.5301,0,0,0,.18183-.16963.55028.55028,0,0,0-.13875-.751c-.168-.11788-4.15871-2.85788-8.06862-.95336a.55218.55218,0,0,0-.25011.72.51954.51954,0,0,0,.69992.25672c3.37213-1.64241,6.99108.84463,7.02736.86995A.51339.51339,0,0,0,252.77342,245.48907Z" fill="#160b07"/><path d="M238.20588,244.09037a.518.518,0,0,0,.46-.185.55175.55175,0,0,0-.05692-.76232,10.00091,10.00091,0,0,0-5.9404-2.31912.54062.54062,0,0,0-.00832,1.08079,9.04625,9.04625,0,0,1,5.2643,2.05918A.51873.51873,0,0,0,238.20588,244.09037Z" fill="#160b07"/><path d="M251.27951,249.3924a9.49434,9.49434,0,0,0-3.47778-1.81959,4.49179,4.49179,0,0,0-1.8949-.03619,6.2391,6.2391,0,0,0-1.83691.73035,4.05288,4.05288,0,0,1,1.73327-1.127,3.91464,3.91464,0,0,1,2.11707-.08648,5.4512,5.4512,0,0,1,1.90295.88464A5.86736,5.86736,0,0,1,251.27951,249.3924Z" fill="#160b07"/><ellipse cx="246.54251" cy="248.40281" rx="1.17869" ry="1.21203" fill="#160b07"/><ellipse cx="235.32583" cy="246.96139" rx="1.17869" ry="1.21203" fill="#160b07"/><path d="M239.25205,248.20483a9.49308,9.49308,0,0,0-3.47767-1.81958,4.49174,4.49174,0,0,0-1.89489-.03619,6.237,6.237,0,0,0-1.83692.73035,4.05242,4.05242,0,0,1,1.73316-1.127,3.91465,3.91465,0,0,1,2.11706-.08648,5.45074,5.45074,0,0,1,1.90308.88464A5.86734,5.86734,0,0,1,239.25205,248.20483Z" fill="#160b07"/><path d="M261.26962,246.96521a6.60052,6.60052,0,0,0-.90039-1.0126.62909.62909,0,0,0-.842-.09858,3.81957,3.81957,0,0,0-.86181.87046c-.28455.34894-.55542.72979-.89466,1.09082a4.47053,4.47053,0,0,1,.39063-1.40332,2.75429,2.75429,0,0,1,.97778-1.21088,1.20137,1.20137,0,0,1,.93469-.1633,1.30955,1.30955,0,0,1,.72608.51041A2.50287,2.50287,0,0,1,261.26962,246.96521Z" fill="#dd765e"/><path d="M259.34165,250.63254a2.49819,2.49819,0,0,1-.63855-1.26309,4.47685,4.47685,0,0,1-.07068-1.41147,5.509,5.509,0,0,1,.32409-1.35746,4.61673,4.61673,0,0,1,.68457-1.21389c-.02539.9447-.17529,1.79394-.253,2.64816-.051.42453-.08081.84827-.09717,1.27542A7.89829,7.89829,0,0,0,259.34165,250.63254Z" fill="#dd765e"/><ellipse cx="259.94149" cy="253.62763" rx="2.33958" ry="2.40576" fill="#ffcb33"/><path d="M237.49388,262.6839s4.3367-6.59918,9.58764-3.8668" fill="#dd2f22"/><path d="M245.36356,233.6884c1.30115,1.09724,8.01748,11.95755,10.438,13.17249a1.45969,1.45969,0,0,0,.885.18483c.94678-.14237,1.32828-1.40327,2.38078-3.17755.79539-1.34085,1.14144-1.57142,1.60508-2.32261a11.11016,11.11016,0,0,0,.47514-9.7787,11.25439,11.25439,0,0,0-6.14113-5.57224c-5.51459-2.42842-10.84441-.30718-12.19612.23078-8.12085,3.23206-11.588,11.4992-11.30095,11.74247C231.84679,238.45381,238.69219,228.06253,245.36356,233.6884Z" fill="#160b07"/><path d="M215.36594,378.29987c-.0835-5.54615-.33582-11.0409-.19031-16.62931a13.17786,13.17786,0,0,1,3.33716-7.6633,13.49776,13.49776,0,0,1,7.28247-4.16964,12.47956,12.47956,0,0,1,8.3208,1.10455,13.43879,13.43879,0,0,1,3.42139,2.51855c.98632,1.01276,1.87768,2.04355,2.82116,3.06446q5.55487,6.16932,10.98706,12.45126-5.81744-5.92776-11.49109-11.98761c-.94433-1.00162-1.87866-2.05289-2.83129-3.01376a12.69213,12.69213,0,0,0-3.25049-2.3544,12.11858,12.11858,0,0,0-7.82385-1.02585,12.759,12.759,0,0,0-6.91333,3.88809,13.05926,13.05926,0,0,0-3.29041,7.2496c-.15759,1.33731-.11157,2.73371-.14258,4.11576l-.05981,4.15057Z" fill="#10394f"/><path d="M240.079,332.24051c2.52979.86221,5.02612,1.80548,7.51746,2.76105,2.49206.95385,4.95678,1.97415,7.43652,2.958,2.45508,1.04367,4.92334,2.05542,7.36609,3.12906,2.4425,1.07428,4.88025,2.16016,7.28406,3.32852-2.53016-.861-5.02649-1.80462-7.518-2.75973-2.49121-.95581-4.957-1.97351-7.436-2.95926-2.45423-1.04562-4.92359-2.05475-7.3656-3.13037C244.92087,334.4939,242.48325,333.40771,240.079,332.24051Z" fill="#10394f"/><path d="M240.079,369.79987a13.41857,13.41857,0,0,1-.39954-3.44123,13.25876,13.25876,0,0,1,.39954-3.44125,13.25876,13.25876,0,0,1,.39954,3.44125A13.41857,13.41857,0,0,1,240.079,369.79987Z" fill="#10394f"/><path d="M247.44675,335.271c1.86584-.01987,3.72485.04763,5.58288.12838,1.85865.07166,3.71253.20594,5.56641.34046,1.85229.15344,3.70447.30853,5.55188.5253,1.848.20877,3.69507.43,5.53516.74017-1.86585.02112-3.72486-.04672-5.583-.127-1.85864-.07227-3.71253-.20624-5.56616-.34183-1.8523-.15454-3.70459-.30933-5.55188-.5267C251.134,335.80142,249.287,335.5799,247.44675,335.271Z" fill="#10394f"/><path d="M229.85581,321.84451c-.49-1.42776-.9209-2.87088-1.3429-4.31634-.42322-1.4451-.798-2.90283-1.19934-4.35364-.35779-1.46216-.73877-2.91827-1.07471-4.38608-.33545-1.468-.66247-2.93811-.92932-4.42392.49085,1.42755.92151,2.87073,1.34375,4.3161.42188,1.4455.79846,2.90274,1.19849,4.35392.35632,1.46252.73926,2.91812,1.07373,4.38632C229.26132,318.88873,229.58811,320.359,229.85581,321.84451Z" fill="#b02336"/><path d="M277.49289,296.84409a40.101,40.101,0,0,1-.61133-4.81556,42.97176,42.97176,0,0,1-.05969-4.86538,22.02277,22.02277,0,0,1,.765-4.82526,9.14083,9.14083,0,0,1,1.00586-2.24625,3.73847,3.73847,0,0,1,1.86524-1.54055,3.83728,3.83728,0,0,0-1.63208,1.68246,8.936,8.936,0,0,0-.82617,2.21854,24.67468,24.67468,0,0,0-.62256,4.74164c-.11157,1.59915-.095,3.20752-.06958,4.81588C277.33615,293.61874,277.40866,295.22885,277.49289,296.84409Z" fill="#b02336"/><path d="M251.59165,306.30835c1.08837.922,2.0603,1.91315,3.03515,2.90256l2.059,3.48321,4.13709,6.95508,4.13708,6.95508,2.06848,3.47751c.39868,1.33218.80567,2.65939,1.11145,4.04681-1.07324-.93094-2.04516-1.92209-3.02551-2.90826l-2.0686-3.47751-4.137-6.95508-4.13708-6.95508-2.07813-3.47183C252.28952,309.03189,251.88242,307.70474,251.59165,306.30835Z" fill="#10394f"/><path d="M278.3495,323.67382l37.19388-7.62208s5.9332,5.4832,4.83651,13.35278a4.16337,4.16337,0,0,1-4.09006,3.61906H278.74706s-22.79955-.06775-24.57853-4.40387l8.11584-6.34251a4.55175,4.55175,0,0,1,3.81612-.86254Z" fill="#f9977a"/><polygon points="257.406 330.901 257.062 330.464 264.52 324.626 267.711 324.262 267.773 324.814 264.739 325.161 257.406 330.901" fill="#dd765e"/><polygon points="262.017 331.99 261.66 331.563 266.755 327.34 269.324 326.724 269.453 327.265 266.948 327.866 262.017 331.99" fill="#dd765e"/><polygon points="267.546 332.649 267.126 332.284 269.24 329.857 271.242 329.432 271.357 329.977 269.537 330.363 267.546 332.649" fill="#dd765e"/><ellipse cx="257.77077" cy="262.6839" rx="4.48058" ry="4.60732" fill="#160b07"/><ellipse cx="257.5269" cy="268.63754" rx="4.48058" ry="4.60732" fill="#160b07"/><ellipse cx="258.96741" cy="275.35077" rx="4.48058" ry="4.60732" fill="#160b07"/><ellipse cx="261.26964" cy="281.48023" rx="4.48058" ry="4.60732" fill="#160b07"/><path d="M267.47156,277.57062l-2.55465-6.32407-5.32618,5.79494-8.77172-.93429s3.87928,7.00917,4.16311,7.78749l4.78239-6.57251Z" fill="#376f92"/><path d="M238.38221,282.63993l-.1787-6.84549-6.99316,3.44487-7.86214-4.10742s1.17621,7.97357,1.16967,8.80478l6.75678-4.37126Z" fill="#376f92"/><path d="M226.26684,274.34731c3.63838-3.878-2.47268-9.28942-2.47268-9.28942a7.3212,7.3212,0,0,1,1.10081-2.29051,2.47883,2.47883,0,0,0-.29464-3.18179c-6.1427-5.97833-7.82529,2.48928-7.82529,2.48928l-1.456-9.00808a1.36755,1.36755,0,0,0-1.48474-1.16187,1.39026,1.39026,0,0,0-1.2094,1.547l1.63273,14.99274,4.30515,10.1592-6.10142,27.52336s-6.62179,19.68074.96007,25.64914a7.65062,7.65062,0,0,0,8.26015,1.229,10.16068,10.16068,0,0,0,5.90114-9.38907V281.45759Z" fill="#f9977a"/><path d="M209.94788,265.13743a1.69337,1.69337,0,0,0,.789.9824c1.41611.73014,4.91347,5.6118,4.91347,5.6118l-1.39278-3.287-.34022-3.12321C209.26235,261.7395,209.48675,263.77542,209.94788,265.13743Z" fill="#f9977a"/><rect x="318.00849" y="352.1974" width="7.3818" height="101.34924" fill="#935b50"/><rect x="117.6903" y="332.53592" width="221.83268" height="5.66148" rx="1.27262" fill="#935b50"/><rect x="132.41185" y="342.1974" width="7.3818" height="111.34924" fill="#935b50"/><path d="M126.52323,338.1974H331.19479a0,0,0,0,1,0,0v14.67091a2.54523,2.54523,0,0,1-2.54523,2.54523H129.06846a2.54523,2.54523,0,0,1-2.54523-2.54523V338.1974A0,0,0,0,1,126.52323,338.1974Z" fill="#c38f86"/><rect x="233.67299" y="327.16847" width="60.12" height="5.36745" fill="#d6b9bb"/><path d="M150.09629,325.12082H191.939a0,0,0,0,1,0,0V331.764a0,0,0,0,1,0,0H150.09629a2.85847,2.85847,0,0,1-2.85847-2.85847v-.92622A2.85847,2.85847,0,0,1,150.09629,325.12082Z" fill="#fff"/><path d="M193.24756,331.934a.6019.6019,0,0,1-.6019.6019H149.21754c-1.65814,0-3.00689-1.82119-3.00689-4.06012,0-2.2384,1.34875-4.05958,3.00689-4.05958h43.42812a.6019.6019,0,0,1,.6019.60189v.47378a.6019.6019,0,0,1-.6019.60189H149.21754c-.973,0-1.7645,1.06869-1.7645,2.382,0,1.31387.79146,2.38255,1.7645,2.38255h43.42812a.6019.6019,0,0,1,.6019.6019Z" fill="#f65b2b"/><path d="M143.568,317.00112h41.84272a0,0,0,0,1,0,0v6.64316a0,0,0,0,1,0,0H143.568a2.85847,2.85847,0,0,1-2.85847-2.85847v-.92622A2.85847,2.85847,0,0,1,143.568,317.00112Z" fill="#fff"/><path d="M186.7193,323.81432a.6019.6019,0,0,1-.6019.6019H142.68928c-1.65814,0-3.00689-1.82119-3.00689-4.06013,0-2.23839,1.34875-4.05957,3.00689-4.05957H186.1174a.60189.60189,0,0,1,.6019.60189v.47377a.6019.6019,0,0,1-.6019.6019H142.68928c-.97305,0-1.7645,1.06868-1.7645,2.382,0,1.31388.79145,2.38256,1.7645,2.38256H186.1174a.6019.6019,0,0,1,.6019.6019Z" fill="#ffba55"/><path d="M156.93111,308.88141h41.84272a0,0,0,0,1,0,0v6.64316a0,0,0,0,1,0,0H156.93111a2.85847,2.85847,0,0,1-2.85847-2.85847v-.92622A2.85847,2.85847,0,0,1,156.93111,308.88141Z" fill="#fff"/><path d="M200.08239,315.69462a.6019.6019,0,0,1-.6019.6019H156.05236c-1.65813,0-3.00689-1.82119-3.00689-4.06013,0-2.23839,1.34876-4.05958,3.00689-4.05958h43.42813a.6019.6019,0,0,1,.6019.6019v.47377a.6019.6019,0,0,1-.6019.6019H156.05236c-.973,0-1.7645,1.06868-1.7645,2.382,0,1.31388.79146,2.38256,1.7645,2.38256h43.42813a.6019.6019,0,0,1,.6019.6019Z" fill="#f65b2b"/><polygon points="504.456 370.088 455.77 370.088 455.77 342.907 504.368 342.907 504.456 370.088" fill="#935b50"/><rect x="440.74654" y="362.04321" width="78.26426" height="8.04513" rx="1.3018" fill="#d6694b"/><rect x="445.90167" y="370.08834" width="67.71967" height="5.07702" rx="1.3018" fill="#935b50"/><rect x="475.89515" y="375.16536" width="7.49837" height="50.61401" fill="#d6694b"/><polygon points="483.394 429.8 531.473 446.738 531.473 440.646 483.394 425.779 475.895 425.779 427.777 440.646 427.777 446.738 475.895 429.8 483.394 429.8" fill="#935b50"/><rect x="421.19349" y="439.70864" width="7.14689" height="12.6535" rx="1.62725" fill="#d6694b"/><rect x="530.90925" y="439.70864" width="7.14689" height="12.6535" rx="1.62725" transform="translate(1068.96539 892.07078) rotate(-180)" fill="#d6694b"/><rect x="474.13772" y="423.90478" width="11.01323" height="7.96702" rx="1.3018" fill="#e19974"/><rect x="454.96437" y="273.93734" width="69.82859" height="66.0794" rx="5.8581" fill="#d6694b"/><rect x="480.84187" y="320.87567" width="60.12" height="5.36745" fill="#d6b9bb"/><path d="M510.57214,325.12082h41.84272a0,0,0,0,1,0,0V331.764a0,0,0,0,1,0,0H510.57214a2.85847,2.85847,0,0,1-2.85847-2.85847v-.92622a2.85847,2.85847,0,0,1,2.85847-2.85847Z" fill="#fff"/><path d="M553.72341,331.934a.60189.60189,0,0,1-.60189.6019H509.69339c-1.65813,0-3.00689-1.82119-3.00689-4.06012,0-2.2384,1.34876-4.05958,3.00689-4.05958h43.42813a.60189.60189,0,0,1,.60189.60189v.47378a.60189.60189,0,0,1-.60189.60189H509.69339c-.973,0-1.7645,1.06869-1.7645,2.382,0,1.31387.79146,2.38255,1.7645,2.38255h43.42813a.60189.60189,0,0,1,.60189.6019Z" fill="#f65b2b"/><path d="M504.04388,317.00112H545.8866a0,0,0,0,1,0,0v6.64316a0,0,0,0,1,0,0H504.04388a2.85847,2.85847,0,0,1-2.85847-2.85847v-.92622A2.85847,2.85847,0,0,1,504.04388,317.00112Z" fill="#fff"/><path d="M547.19515,323.81432a.6019.6019,0,0,1-.60189.6019H503.16513c-1.65814,0-3.00689-1.82119-3.00689-4.06013,0-2.23839,1.34875-4.05957,3.00689-4.05957h43.42813a.60189.60189,0,0,1,.60189.60189v.47377a.6019.6019,0,0,1-.60189.6019H503.16513c-.973,0-1.7645,1.06868-1.7645,2.382,0,1.31388.79146,2.38256,1.7645,2.38256h43.42813a.6019.6019,0,0,1,.60189.6019Z" fill="#ffba55"/><path d="M517.407,308.88141h41.84272a0,0,0,0,1,0,0v6.64316a0,0,0,0,1,0,0H517.407a2.85847,2.85847,0,0,1-2.85847-2.85847v-.92622A2.85847,2.85847,0,0,1,517.407,308.88141Z" fill="#fff"/><path d="M560.55824,315.69462a.6019.6019,0,0,1-.6019.6019H516.52822c-1.65814,0-3.00689-1.82119-3.00689-4.06013,0-2.23839,1.34875-4.05958,3.00689-4.05958h43.42812a.6019.6019,0,0,1,.6019.6019v.47377a.6019.6019,0,0,1-.6019.6019H516.52822c-.973,0-1.7645,1.06868-1.7645,2.382,0,1.31388.79146,2.38256,1.7645,2.38256h43.42812a.6019.6019,0,0,1,.6019.6019Z" fill="#f65b2b"/><path d="M472.86654,238.667s-16.58791,5.63865-11.29712,31.78584S449.302,303.08,443.68112,298.52c0,0,28.54946,16.95124,30.21259-46.11665Z" fill="#160b07"/><path d="M473.831,256.55878q.04357,2.87965-.16407,5.74548a49.90955,49.90955,0,0,1-.679,5.73447c-.05274.24273-.10816.48324-.188.73968a2.05818,2.05818,0,0,1-.18848.44336.79374.79374,0,0,1-.15356.18518.56738.56738,0,0,1-.23682.12366.48682.48682,0,0,1-.3247-.0155.56979.56979,0,0,1-.31006-.25647.85459.85459,0,0,1-.07886-.15778,6.40674,6.40674,0,0,1-.25269-1.55536c-.05908-.97214-.08862-1.92941-.07739-2.88992.00073-1.918.10864-3.83121.28955-5.74256.20777,1.90854.36084,3.81553.49024,5.71555.08129.948.1289,1.90015.24047,2.8306a7.20979,7.20979,0,0,0,.21119,1.26446s.01513.03684-.00122.0029c-.04151-.03946.01757-.02682-.18506-.13559a.51842.51842,0,0,0-.24195-.0112.46957.46957,0,0,0-.1604.08118c-.02929.01526-.05615.06845-.04492.04419a1.56258,1.56258,0,0,0,.08008-.21884c.05933-.2005.10718-.42673.15405-.65088.36475-1.82758.59229-3.735.88477-5.61508Q473.29965,259.38821,473.831,256.55878Z" fill="#ffcb33"/><path d="M474.745,426.21784l3.58377,18.64521s-10.09363,4.2515-16.98862-7.14033l-.87793-11.08162Z" fill="#f9977a"/><path d="M476.39977,434.99315s8.45918,10.56638,3.77057,16.79425a2.606,2.606,0,0,1-2.09736,1.02418l-41.93815-.22768a1.36724,1.36724,0,0,1-1.34637-1.52806c.24069-2.17259,1.2549-6.10167,5.3574-7.90593,5.83309-2.56536,9.97136,2.05724,19.69821-6.3083C459.84407,436.84161,472.4522,440.4649,476.39977,434.99315Z" fill="#935b50"/><path d="M428.04975,414.83949l-7.52141,17.43319s-10.73728-2.1604-10.03279-15.45771l5.50561-9.65718Z" fill="#f9977a"/><path d="M424.48342,423.02641s1.05314,13.49433-6.32607,16.00765a2.606,2.606,0,0,1-2.31026-.33251L381.29606,414.93a1.36724,1.36724,0,0,1-.254-2.02068c1.42075-1.66118,4.46887-4.33985,8.87586-3.52483,6.266,1.15883,7.08856,7.30839,19.836,5.86059C409.7539,415.24507,418.14218,425.3312,424.48342,423.02641Z" fill="#935b50"/><path d="M476.313,274.74155l-4.48942,3.56932-3.21983,13.39157,30.23785-.373,9.7721-15.04835s-15.09549-1.11836-18.48211-9.22819Z" fill="#f9977a"/><path d="M477.26773,268.80255s5.95524,4.35079,12.79228-1.12778c0,0-2.26636,9.58356-13.747,7.06678A6.82636,6.82636,0,0,0,477.26773,268.80255Z" fill="#dd765e"/><path d="M479.80309,328.648l34.55039,2.338s9.95325,17.465,8.5612,30.663a11.24632,11.24632,0,0,1-11.24489,9.94045h-31.8667v59.58175H456.16335l-1.29889-53.16553-23.81757,43.41147L408.96581,408.688l40.3918-76.28182a9.34129,9.34129,0,0,1,10.641-4.74337l19.80447,5.14155Z" fill="#ffba55"/><path d="M454.86447,378.00568c-.11255-2.88153-.16137-5.76307-.24365-8.6446l-.0708-4.32226a24.00754,24.00754,0,0,1,.19556-4.37592,13.458,13.458,0,0,1,12.46679-10.92373,13.232,13.232,0,0,1,8.43311,2.462,22.358,22.358,0,0,1,3.21216,3.00461q1.48278,1.57224,2.9353,3.173l5.83862,6.37637c1.91968,2.15054,3.86426,4.27749,5.762,6.44894-2.06226-2.01562-4.07764-4.07568-6.11817-6.11212l-6.04126-6.18463q-1.51355-1.54295-3.00464-3.10748a21.47959,21.47959,0,0,0-3.11157-2.85718,12.29585,12.29585,0,0,0-7.84619-2.20651l-.51978.01184-.51294.08655-1.02661.17083c-.676.14829-1.3313.39316-1.99292.59958a20.06922,20.06922,0,0,0-1.86132.93451,11.575,11.575,0,0,0-1.68921,1.21625,12.56863,12.56863,0,0,0-4.1709,7.04883,23.33551,23.33551,0,0,0-.31909,4.23419l-.0708,4.32226C455.02561,372.24261,454.977,375.12415,454.86447,378.00568Z" fill="#e6952a"/><path d="M479.80319,332.80438c2.56592.80435,5.09156,1.71045,7.6106,2.632,2.52368.91092,5.01782,1.89481,7.512,2.87894,2.4856,1.00622,4.97022,2.01434,7.426,3.0943l3.68237,1.62326c1.21387.575,2.44067,1.1181,3.64331,1.72128-1.28686-.39264-2.5498-.84537-3.82519-1.26614l-3.78614-1.3642c-2.52319-.91168-5.01782-1.89517-7.51147-2.88058-2.48487-1.00748-4.96948-2.01523-7.425-3.09592C484.66965,335.07721,482.216,333.9917,479.80319,332.80438Z" fill="#e6952a"/><path d="M479.80319,371.58942a10.46625,10.46625,0,0,1-.49975-3.37708,10.35427,10.35427,0,0,1,.49975-3.3771,10.354,10.354,0,0,1,.49952,3.3771A10.47279,10.47279,0,0,1,479.80319,371.58942Z" fill="#e6952a"/><path d="M487.238,335.77841a112.32068,112.32068,0,0,1,11.25757.35272,111.01424,111.01424,0,0,1,11.18188,1.34925,111.00655,111.00655,0,0,1-11.25757-.35272A112.33491,112.33491,0,0,1,487.238,335.77841Z" fill="#e6952a"/><path d="M468.39659,277.6926a20.94521,20.94521,0,0,0-11.35737,7.2923l-23.48789,29.52763s-6.91492,3.05852-8.51067,6.516c0,0-6.383,10.90429,2.12767,12.633l15.42558-3.05852,19.54794-22.60646s4.78725,26.06815,8.37769,26.79742,56.1172-.667,56.1172-.667,5.86217-.94748,3.02814-12.45665c0,0-9.81007-47.18451-25.23566-48.91324h-8.64364s.66489,10.77131-9.44152,11.70217-10.90429-9.04258-10.90429-9.04258Z" fill="#f73c4f"/><path d="M484.92561,324.95139l31.03182-6.18437a9.57606,9.57606,0,0,1,11.36688,7.8853,13.79418,13.79418,0,0,1-.97569,7.47464H485.3268s-23.00764-.06649-24.80286-4.32183l8.18992-6.22434a4.69328,4.69328,0,0,1,3.85094-.84646Z" fill="#f9977a"/><polygon points="463.785 332.051 463.449 331.609 470.974 325.882 474.19 325.523 474.251 326.074 471.187 326.415 463.785 332.051" fill="#dd765e"/><polygon points="468.439 333.118 468.09 332.688 473.227 328.545 475.821 327.939 475.946 328.479 473.415 329.069 468.439 333.118" fill="#dd765e"/><polygon points="474.017 333.766 473.605 333.396 475.738 331.015 477.756 330.598 477.867 331.141 476.029 331.521 474.017 333.766" fill="#dd765e"/><path d="M462.14182,307.99655a28.58778,28.58778,0,0,1-.22315-3.28079c-.02392-1.09671.0127-2.19434.09839-3.29062a21.0894,21.0894,0,0,1,.50781-3.26572,5.64614,5.64614,0,0,1,1.47876-2.92886,4.08665,4.08665,0,0,0-.7,1.44559,11.25788,11.25788,0,0,0-.36181,1.57074c-.17334,1.06494-.28077,2.14392-.373,3.22406-.09839,1.08072-.14893,2.16684-.22608,3.25372Z" fill="#b02336"/><path d="M500.83884,284.59222a9.75069,9.75069,0,0,1-.22315-2.78115,8.8062,8.8062,0,0,1,.56983-2.76743,6.14545,6.14545,0,0,1,1.623-2.34192,5.25968,5.25968,0,0,1,2.55152-1.1521,7.00974,7.00974,0,0,0-2.26074,1.46356,7.13887,7.13887,0,0,0-1.39869,2.23371,11.85283,11.85283,0,0,0-.66284,2.60617A20.12576,20.12576,0,0,0,500.83884,284.59222Z" fill="#b02336"/><path d="M503.76438,294.29968c.616,1.90857,1.18676,3.82785,1.75781,5.74677l1.6875,5.76184c.53589,1.9277,1.1101,3.84375,1.68066,5.75976.282.95914.5752,1.91492.894,2.86115a10.79265,10.79265,0,0,0,1.16089,2.74292,4.49945,4.49945,0,0,1-.80493-1.27c-.2168-.454-.41748-.91522-.61084-1.37912-.37256-.93314-.7124-1.87753-1.04468-2.8241-.657-1.896-1.22827-3.81793-1.80688-5.73663-.5354-1.9313-1.07935-3.85971-1.56494-5.80374C504.62717,298.21469,504.15915,296.26624,503.76438,294.29968Z" fill="#b02336"/><polygon points="393.259 340.842 466.297 347.092 494 334.839 436.938 332.225 393.259 340.842" fill="#d6b9bb"/><path d="M429.26438,344.31543l-.00684-.36426c-.05274-2.89844-.98731-4.9414-2.77734-6.07226-2.69239-1.69825-7.2959-1.28321-12.62891,1.13672-7.625,3.46289-12.68359,2.793-12.89551,2.76269l.07813-.54883c.05175.00684,5.12207.67188,12.58886-2.71777,5.50879-2.501,10.30176-2.90234,13.15332-1.10059,1.88086,1.1875,2.89746,3.26075,3.02442,6.168l34.65625-10.26367.1582.53125Z" fill="#b29a9c"/><rect x="410.46234" y="328.04314" width="48.94352" height="5.17762" fill="#d6b9bb"/><path d="M431.95558,332.06578l-3.74015-1.44506a3.39341,3.39341,0,0,1-2.17475-3.1656c.00149-1.97582.14733-4.65049.86169-5.76172l4.04991-4.142a3.38962,3.38962,0,0,1,4.15484-.55334c1.81739,1.08336,4.06146,2.6503,4.29529,3.89742,0,0,8.77663-3.59044,4.25534,4.52129l1.86171,3.8564-1.46278,1.59575S435.00077,333.24233,431.95558,332.06578Z" fill="#f9977a"/><path d="M435.78,322.35831c.77173.62954,1.49976,1.30145,2.22119,1.97976.72608.67392,1.4209,1.37818,2.11572,2.08252.68531.71357,1.36963,1.42792,2.02344,2.17215.65772.74033,1.30908,1.48673,1.91626,2.27622-.77222-.62894-1.50024-1.301-2.22192-1.9791-.72559-.67419-1.42066-1.37829-2.11475-2.08319-.68481-.71408-1.36938-1.42828-2.0227-2.17282C437.03928,323.89374,436.38791,323.14719,435.78,322.35831Z" fill="#dd765e"/><path d="M433.28537,326.08173c.6272.38748,1.21484.82107,1.79639,1.26162.58569.43579,1.14306.90461,1.70044,1.37354.54858.47891,1.09668.95871,1.6167,1.471.52368.50811,1.04174,1.02276,1.51953,1.58438-.62769-.38681-1.21533-.82059-1.79712-1.2609-.58545-.43612-1.14282-.90475-1.69971-1.37426-.54834-.4795-1.09643-.95911-1.61621-1.47178C434.28171,327.1575,433.76364,326.64267,433.28537,326.08173Z" fill="#dd765e"/><path d="M430.49289,327.67746a15.13512,15.13512,0,0,1,1.46191,1.00552c.47413.35022.91944.7331,1.36475,1.11609.43652.39289.87207.78662,1.27954,1.21253a15.00366,15.00366,0,0,1,1.18091,1.32458,15.04409,15.04409,0,0,1-1.46265-1.00479c-.47387-.35056-.91919-.73328-1.364-1.11682-.436-.39346-.87183-.787-1.27905-1.21326A15.13818,15.13818,0,0,1,430.49289,327.67746Z" fill="#dd765e"/><path d="M427.16843,305.7359c1.188.76132,2.27051,1.60611,3.35547,2.4487l2.46826,3.1485,4.95337,6.28326,4.95337,6.28327,2.4768,3.14163c.561,1.25571,1.12989,2.50543,1.60645,3.8277-1.17432-.77213-2.25684-1.61685-3.34693-2.45557l-2.4768-3.14163-4.95337-6.28327-4.95337-6.28326-2.4856-3.13476C428.20017,308.31863,427.63132,307.069,427.16843,305.7359Z" fill="#10394f"/><path d="M503.71367,238.667s16.58791,5.63865,11.29712,31.78584S527.27819,303.08,532.89909,298.52c0,0-28.54946,16.95124-30.21259-46.11665Z" fill="#160b07"/><path d="M486.97627,261.59732c-8.038-.63028-17.95663-9.86912-16.98918-18.61946.84315-7.62637,9.65-12.119,11.79261-13.21219a17.92315,17.92315,0,0,1,17.48963-.04767,20.43029,20.43029,0,0,1,7.78782,7.67655c1.93006,3.14469,1.65027,16.25994-5.87174,23.03551C497.39981,263.84,488.18626,261.69222,486.97627,261.59732Z" fill="#160b07"/><path d="M471.19539,247.59547c2.23631-10.98847,10.13673-18.65742,17.64606-17.12917,5.79588,1.17956,9.66126,7.49492,10.09685,15.36718a2.142,2.142,0,0,1,1.80031-.2613c1.63106.60613,1.97449,3.73128.76709,6.98014-1.01937,2.74306-2.81725,4.68992-4.33438,4.86715-3.16781,8.61527-9.94234,14.15942-16.42831,12.83946C473.23367,268.73062,468.95905,258.58387,471.19539,247.59547Z" fill="#f9977a"/><path d="M480.239,246.7077a6.09622,6.09622,0,0,1,.10352,4.00125,13.20471,13.20471,0,0,1-1.61963,3.71238c-.19189.28173-.40967.55407-.58911.80313a.93412.93412,0,0,0-.23169.68042,2.168,2.168,0,0,0,.90576,1.37808,3.362,3.362,0,0,0,1.718.62543,7.04563,7.04563,0,0,0,1.95386-.05585,4.49933,4.49933,0,0,1-4.00122-.08991,2.61488,2.61488,0,0,1-1.28907-1.78906,1.64555,1.64555,0,0,1,.33692-1.16995l.57129-.80713a17.82553,17.82553,0,0,0,1.69677-3.4751A7.33849,7.33849,0,0,0,480.239,246.7077Z" fill="#dd765e"/><path d="M500.93063,249.37274a6.31448,6.31448,0,0,0-.90673-.99249.65941.65941,0,0,0-.85327-.09375,3.71087,3.71087,0,0,0-.86939.84839c-.28686.34259-.56055.717-.90137,1.07208a4.39449,4.39449,0,0,1,.40406-1.38989,2.711,2.711,0,0,1,.99218-1.18714,1.21626,1.21626,0,0,1,.92285-.15432,1.32387,1.32387,0,0,1,.72657.4949A2.45469,2.45469,0,0,1,500.93063,249.37274Z" fill="#dd765e"/><path d="M498.98508,252.97171a2.413,2.413,0,0,1-.64014-1.23727,4.31081,4.31081,0,0,1-.07007-1.3898,5.314,5.314,0,0,1,.32642-1.33411,4.47688,4.47688,0,0,1,.68579-1.18695c-.02979.92944-.18213,1.762-.2605,2.5997-.05127.4162-.0813.8316-.09692,1.25049A7.45823,7.45823,0,0,0,498.98508,252.97171Z" fill="#dd765e"/><path d="M484.87936,236.34327c1.313,1.07681,8.09066,11.73478,10.53331,12.92709a1.507,1.507,0,0,0,.89308.18138c.95542-.13972,1.3404-1.37713,2.40251-3.11835.80265-1.31587,1.15186-1.54215,1.61973-2.27934a10.63746,10.63746,0,0,0,.47948-9.59651,11.27043,11.27043,0,0,0-6.19718-5.46843c-5.56493-2.38317-10.9434-.30145-12.30745.22648-8.195,3.17185-11.69372,11.285-11.40409,11.5237C471.23922,241.01991,478.1471,230.82222,484.87936,236.34327Z" fill="#160b07"/><path d="M492.80205,248.22329a.53015.53015,0,0,0,.04347-.90343c-.16953-.11569-4.19666-2.80464-8.14226-.9356a.53027.53027,0,1,0,.45392.95849c3.4029-1.61181,7.05488.82889,7.09149.85374A.53042.53042,0,0,0,492.80205,248.22329Z" fill="#160b07"/><path d="M478.50733,246.25665a.53044.53044,0,0,0,.03049-1.01425,10.234,10.234,0,0,0-6.41089.12526.53035.53035,0,0,0,.388.98719,9.25684,9.25684,0,0,1,5.68271-.10736A.5306.5306,0,0,0,478.50733,246.25665Z" fill="#160b07"/><path d="M491.2944,252.05389a9.61791,9.61791,0,0,0-3.51538-1.78317,4.6612,4.6612,0,0,0-1.90722-.03522,6.37527,6.37527,0,0,0-1.85254.71393,4.11981,4.11981,0,0,1,1.752-1.10937,4.02335,4.02335,0,0,1,2.12158-.08707,5.551,5.551,0,0,1,1.9187.864A5.90683,5.90683,0,0,1,491.2944,252.05389Z" fill="#160b07"/><circle cx="486.51427" cy="251.08275" r="1.18945" fill="#160b07"/><circle cx="475.1952" cy="249.66818" r="1.18945" fill="#160b07"/><path d="M479.1572,250.88846a9.6176,9.6176,0,0,0-3.51538-1.78317,4.66125,4.66125,0,0,0-1.90723-.03525,6.37564,6.37564,0,0,0-1.85254.714,4.12207,4.12207,0,0,1,1.7522-1.10938,4.02266,4.02266,0,0,1,2.12134-.08707,5.551,5.551,0,0,1,1.9187.864A5.90281,5.90281,0,0,1,479.1572,250.88846Z" fill="#160b07"/><path d="M499.28708,254.84q.33252,2.86074.41333,5.73294a49.8738,49.8738,0,0,1-.10059,5.77365c-.02807.24679-.05908.49167-.11279.75482a2.05356,2.05356,0,0,1-.14307.46.79127.79127,0,0,1-.134.19965.56931.56931,0,0,1-.22339.14679.487.487,0,0,1-.3247.01715.57093.57093,0,0,1-.33423-.22409.88822.88822,0,0,1-.09424-.14908,6.40283,6.40283,0,0,1-.40723-1.52216c-.15649-.9613-.28174-1.91079-.36694-2.86758-.19165-1.90836-.27637-3.82279-.28784-5.74265.39795,1.87812.7417,3.76011,1.061,5.63755.176.935.31885,1.87762.5232,2.7922a7.19256,7.19256,0,0,0,.33691,1.23691s.01855.03516-.001.003c-.04516-.03509.0149-.02844-.19775-.11636a.51839.51839,0,0,0-.2417.01312.46933.46933,0,0,0-.15161.09689c-.02759.01807-.04907.0737-.04028.04844a1.55875,1.55875,0,0,0,.05761-.22574c.03907-.20548.064-.43534.08814-.66306.17969-1.85492.2146-3.77554.31714-5.6755Q499.04246,257.70841,499.28708,254.84Z" fill="#ffcb33"/><circle cx="483.53503" cy="262.49967" r="2.97924" fill="#dd2f22"/><rect x="555.17737" y="342.1974" width="7.3818" height="111.34924" fill="#935b50"/><rect x="354.85918" y="332.53592" width="221.83268" height="5.66148" rx="1.27262" fill="#935b50"/><rect x="369.58073" y="342.1974" width="7.3818" height="111.34924" fill="#935b50"/><path d="M363.69211,338.1974H568.36367a0,0,0,0,1,0,0v14.67091a2.54523,2.54523,0,0,1-2.54523,2.54523H366.23734a2.54523,2.54523,0,0,1-2.54523-2.54523V338.1974A0,0,0,0,1,363.69211,338.1974Z" fill="#c38f86"/><line x1="96.38872" y1="452.76097" x2="596.38872" y2="452.76097" fill="none" stroke="#935b50" stroke-linecap="round" stroke-linejoin="round" stroke-width="2"/></svg>