<svg id="Layer_1" data-name="Layer 1" xmlns="http://www.w3.org/2000/svg" viewBox="0 0 700 550"><title>teacher in a class</title><path d="M149.27418,346.69529c10.77067,58.87544,135.10744,155.6586,177.07978,77.7763,22.0933-40.99569,87.59567-100.20754,138.07518-135.43084,49.0842-34.25-90.05178-93.69694-177.07945-77.7761S138.50352,287.81984,149.27418,346.69529Z" fill="#efedef"/><path d="M133.05469,348.30176c-11.84668-64.75879,56.28418-131.6709,151.876-149.15821,34.7876-6.36425,81.61133-2.01171,125.25245,11.64454,41.68847,13.04589,72.02,31.78222,79.15771,48.89843,3.98926,9.56543.60938,18.45215-9.7749,25.69825l-.585-.83887c10.08349-7.03711,13.25146-15.26758,9.416-24.46582-7.0249-16.84473-37.11133-35.3584-78.51953-48.31543-43.48926-13.6084-90.12939-17.94824-124.76318-11.61524-95.03613,17.38672-162.79883,83.76465-151.05371,147.96875Z" fill="#efedef"/><path d="M161.88135,429.31152a103.40843,103.40843,0,0,1-1.40821-14.67218,113.28944,113.28944,0,0,1,.57-14.74774,86.0065,86.0065,0,0,1,3.01679-14.45135,55.23372,55.23372,0,0,1,6.37433-13.27,54.34444,54.34444,0,0,0-3.37955,6.52868,61.88067,61.88067,0,0,0-2.57843,6.87061,90.43211,90.43211,0,0,0-2.87073,14.38635,121.52466,121.52466,0,0,0-.69858,14.67481q.025,3.67729.28186,7.35083C161.32956,424.431,161.549,426.87793,161.88135,429.31152Z" fill="#50661a"/><path d="M161.88134,392.51053s-25.84564,3.25511-37.09367-7.83542c-8.34705-8.23018-.40762-22.39546,11.03179-19.83637C143.47789,366.552,152.9239,373.35931,161.88134,392.51053Z" fill="#5e7c24"/><path d="M161.88135,392.51056c-3.62808-1.10431-7.19907-2.39746-10.7143-3.82886q-5.27041-2.15359-10.33441-4.78723a67.577,67.577,0,0,1-9.63553-6.08887,35.05782,35.05782,0,0,1-4.22265-3.84094,16.9948,16.9948,0,0,1-3.10309-4.75915,16.8591,16.8591,0,0,0,3.30554,4.56964,35.17917,35.17917,0,0,0,4.28436,3.68365,72.27878,72.27878,0,0,0,9.63614,5.9353c3.32926,1.79163,6.77109,3.37037,10.238,4.88764q2.6018,1.13607,5.24292,2.18323C158.33218,391.18,160.09729,391.87,161.88135,392.51056Z" fill="#50661a"/><path d="M133.85538,379.44153l.02527-3.81293c-.007-1.26739.00036-2.53271-.07172-3.79388a33.15383,33.15383,0,0,0-.335-3.75977,12.66438,12.66438,0,0,0-.42658-1.82654,6.66058,6.66058,0,0,0-.34085-.87286,7.61932,7.61932,0,0,0-.5076-.79736,6.42059,6.42059,0,0,1,1.70294,3.41351,25.60933,25.60933,0,0,1,.47266,3.81891c.02545,1.28.02637,2.55847-.06012,3.83246A32.06248,32.06248,0,0,1,133.85538,379.44153Z" fill="#50661a"/><path d="M121.69183,379.44153l2.26194-.37811c.74615-.14057,1.48986-.26783,2.22049-.44159a14.03165,14.03165,0,0,0,2.127-.66645,3.06818,3.06818,0,0,0,1.6593-1.40222,2.66714,2.66714,0,0,1-1.46023,1.7901,8.47485,8.47485,0,0,1-2.19693.83,14.155,14.155,0,0,1-2.29993.32123A12.56738,12.56738,0,0,1,121.69183,379.44153Z" fill="#50661a"/><path d="M126.36438,386.06378c1.02179-.15314,2.03464-.30194,3.03668-.49725,1-.20276,1.99256-.41858,2.96-.70923a11.73056,11.73056,0,0,0,2.74814-1.18372,3.93184,3.93184,0,0,0,1.83878-2.278c-.04071.2514-.08765.50964-.14395.76977-.09037.24469-.22507.47535-.34073.7193a5.01166,5.01166,0,0,1-1.104,1.14606,9.18772,9.18772,0,0,1-2.83413,1.36871,17.44884,17.44884,0,0,1-3.06061.59644A17.0471,17.0471,0,0,1,126.36438,386.06378Z" fill="#50661a"/><path d="M140.8161,383.56964c.43076-1.26282.82916-2.52856,1.18686-3.80322.35-1.27606.69522-2.55255.92361-3.85193a22.83922,22.83922,0,0,0,.35373-7.867,13.25252,13.25252,0,0,1,.604,3.96685,23.72267,23.72267,0,0,1-.40207,4.00824,31.34718,31.34718,0,0,1-1.06543,3.87445A24.70827,24.70827,0,0,1,140.8161,383.56964Z" fill="#50661a"/><path d="M136.94794,391.04846c.82208-.22345,1.62405-.47552,2.40313-.77221a13.88725,13.88725,0,0,0,2.23471-1.06519,8.398,8.398,0,0,0,1.8917-1.53064,6.65017,6.65017,0,0,0,1.17785-2.16919,4.8052,4.8052,0,0,1-.83367,2.43677,6.60757,6.60757,0,0,1-1.94455,1.74878,9.153,9.153,0,0,1-2.39225.99225A9.65387,9.65387,0,0,1,136.94794,391.04846Z" fill="#50661a"/><path d="M150.0441,373.86584a12.57587,12.57587,0,0,1,1.21521,3.38025,13.54712,13.54712,0,0,1,.28406,3.60852,11.12424,11.12424,0,0,1-.758,3.54517,10.63442,10.63442,0,0,1-1.83252,3.092,16.13367,16.13367,0,0,0,1.42053-3.23444,13.85117,13.85117,0,0,0,.6045-3.43518,18.17879,18.17879,0,0,0-.14591-3.5003A21.24147,21.24147,0,0,0,150.0441,373.86584Z" fill="#50661a"/><path d="M148.373,392.51056c.94018-.46881,1.86343-.87268,2.74835-1.34924a10.78807,10.78807,0,0,0,2.47979-1.713,3.7374,3.7374,0,0,1-.9151,1.29431,6.0996,6.0996,0,0,1-1.29885.91883,7.49352,7.49352,0,0,1-1.46485.58557A6.18881,6.18881,0,0,1,148.373,392.51056Z" fill="#50661a"/><path d="M156.55447,382.587a11.12064,11.12064,0,0,1,.60248,1.97113,12.77642,12.77642,0,0,1,.28534,2.04626,8.76308,8.76308,0,0,1-.10275,2.079,4.00635,4.00635,0,0,1-.78507,1.92041,6.30723,6.30723,0,0,0,.3519-1.96948,18.83527,18.83527,0,0,0-.02957-1.99817C156.80966,385.29706,156.64828,383.96021,156.55447,382.587Z" fill="#50661a"/><path d="M160.942,392.38032s-20.13728-16.52522-19.82091-32.3182c.23478-11.71981,15.97865-15.69731,21.98766-5.63248C167.13162,361.16781,168.68559,372.707,160.942,392.38032Z" fill="#c4ce6e"/><path d="M160.942,392.38031a110.49765,110.49765,0,0,1-4.70063-10.36938q-2.0988-5.29816-3.66989-10.79517-.75824-2.75217-1.32284-5.55652a47.35571,47.35571,0,0,1-.85218-5.65521,35.103,35.103,0,0,1-.0726-5.72452,16.36043,16.36043,0,0,1,1.39792-5.52109,17.54527,17.54527,0,0,0-.96747,5.54694,35.14937,35.14937,0,0,0,.31488,5.62619,73.73047,73.73047,0,0,0,2.3487,11.04843c.97476,3.6474,2.19644,7.22717,3.45385,10.7937Q158.78041,387.11725,160.942,392.38031Z" fill="#8b9d36"/><path d="M151.15646,363.04611c1.78659-1.83764,3.625-3.56811,5.37818-5.37393.87445-.90265,1.718-1.828,2.50967-2.79269a8.086,8.086,0,0,0,1.7637-3.25757,6.17746,6.17746,0,0,1-1.20517,3.65661,21.445,21.445,0,0,1-2.437,3.00559A29.532,29.532,0,0,1,151.15646,363.04611Z" fill="#8b9d36"/><path d="M142.79156,354.21542c1.32343.83237,2.5203,1.74109,3.76371,2.55991a16.46723,16.46723,0,0,0,1.90216,1.09836,3.2692,3.2692,0,0,0,2.11755.35849,2.58626,2.58626,0,0,1-2.34537.289,8.011,8.011,0,0,1-2.15783-1.01166A11.47618,11.47618,0,0,1,142.79156,354.21542Z" fill="#8b9d36"/><path d="M141.1972,362.16177c1.70728,1.18494,3.34168,2.38773,5.07731,3.3881a12.48521,12.48521,0,0,0,2.69683,1.19415,4.09412,4.09412,0,0,0,2.89331-.10895,3.479,3.479,0,0,1-3.03076.78149,8.927,8.927,0,0,1-2.99518-1.10321A15.49128,15.49128,0,0,1,141.1972,362.16177Z" fill="#8b9d36"/><path d="M152.94638,370.93848c1.19537-.6059,2.36072-1.24,3.52271-1.86621,1.1531-.64277,2.30023-1.287,3.40234-1.99823a37.35724,37.35724,0,0,0,3.19937-2.27253,23.819,23.819,0,0,0,2.8392-2.74868,12.1106,12.1106,0,0,1-2.38092,3.25973A20.39867,20.39867,0,0,1,160.343,367.816,24.07763,24.07763,0,0,1,152.94638,370.93848Z" fill="#8b9d36"/><path d="M144.85669,373.27338c.76849.39239,1.51889.76263,2.273,1.10388a15.48781,15.48781,0,0,0,2.29242.84894,8.94258,8.94258,0,0,0,2.35788.34674,7.61586,7.61586,0,0,0,2.397-.512,4.4451,4.4451,0,0,1-2.3302,1.19519,6.44674,6.44674,0,0,1-2.66113-.18316,8.697,8.697,0,0,1-2.38324-1.09528A8.14114,8.14114,0,0,1,144.85669,373.27338Z" fill="#8b9d36"/><path d="M166.33743,370.9646a11.18306,11.18306,0,0,1-1.518,3.28113,13.02056,13.02056,0,0,1-2.42395,2.733,10.80441,10.80441,0,0,1-3.1442,1.88238,9.62273,9.62273,0,0,1-3.55667.68183,19.39374,19.39374,0,0,0,3.27338-1.30707,14.56811,14.56811,0,0,0,2.86047-1.929A22.55667,22.55667,0,0,0,166.33743,370.9646Z" fill="#8b9d36"/><path d="M151.65222,382.5733c1.05249.2522,1.97733.61206,2.91931.91919a18.44237,18.44237,0,0,0,2.8993.77051,3.20723,3.20723,0,0,1-1.586.34985,5.56981,5.56981,0,0,1-1.593-.28692,6.623,6.623,0,0,1-1.43707-.69654A4.77753,4.77753,0,0,1,151.65222,382.5733Z" fill="#8b9d36"/><path d="M164.48309,381.6886a10.1486,10.1486,0,0,1-2.19229,3.51465,8.084,8.084,0,0,1-1.61841,1.34784,3.64805,3.64805,0,0,1-2.00946.65069,7.83875,7.83875,0,0,0,1.59647-1.199c.4776-.44812.94488-.91175,1.39194-1.40283C162.57187,383.64105,163.446,382.63037,164.48309,381.6886Z" fill="#8b9d36"/><path d="M160.33678,420.059s-26.033.936-36.24658-11.11395c-7.5794-8.94214,1.59231-22.3425,12.75775-18.77291C144.323,392.5619,153.12389,400.18491,160.33678,420.059Z" fill="#c4ce6e"/><path d="M160.33679,420.059a110.49819,110.49819,0,0,1-10.38608-4.66382c-3.38632-1.72223-6.68469-3.62036-9.895-5.665q-2.38967-1.5616-4.66874-3.29058a47.35784,47.35784,0,0,1-4.38116-3.676,35.10355,35.10355,0,0,1-3.84253-4.24383,16.36125,16.36125,0,0,1-2.60544-5.06446,17.54539,17.54539,0,0,0,2.94525,4.79895,35.14756,35.14756,0,0,0,3.95914,4.00983,73.73223,73.73223,0,0,0,9.072,6.72919c3.14441,2.08954,6.42923,3.965,9.73206,5.80688Q155.23337,417.54343,160.33679,420.059Z" fill="#8b9d36"/><path d="M133.58871,404.54144c.12345-2.55993.35663-5.07391.47614-7.588.05826-1.25537.07834-2.50738.03354-3.75452a8.0859,8.0859,0,0,0-.83334-3.60943,6.17756,6.17756,0,0,1,1.51614,3.539,21.44609,21.44609,0,0,1,.1618,3.86609A29.53069,29.53069,0,0,1,133.58871,404.54144Z" fill="#8b9d36"/><path d="M121.47369,403.45612c1.543-.25171,3.04169-.36237,4.51575-.57129a16.4713,16.4713,0,0,0,2.15292-.43525,3.26936,3.26936,0,0,0,1.82486-1.1325,2.58616,2.58616,0,0,1-1.56713,1.76867,8.009,8.009,0,0,1-2.2873.66944A11.47574,11.47574,0,0,1,121.47369,403.45612Z" fill="#8b9d36"/><path d="M125.53671,410.46887c2.06412-.24139,4.08542-.4212,6.04865-.8197a12.48323,12.48323,0,0,0,2.81213-.88928,4.0938,4.0938,0,0,0,2.09711-1.99628,3.479,3.479,0,0,1-1.75513,2.59149,8.9257,8.9257,0,0,1-2.97562,1.15485A15.491,15.491,0,0,1,125.53671,410.46887Z" fill="#8b9d36"/><path d="M140.15335,409.27417c.4953-1.24524.9494-2.49176,1.40616-3.73022.43918-1.245.87292-2.48707,1.22858-3.74958a37.35661,37.35661,0,0,0,.89486-3.821,23.82181,23.82181,0,0,0,.30976-3.93958,12.11025,12.11025,0,0,1,.372,4.01947,20.40194,20.40194,0,0,1-.73212,3.98529A24.07679,24.07679,0,0,1,140.15335,409.27417Z" fill="#8b9d36"/><path d="M135.6333,416.378c.83585-.21429,1.64346-.43329,2.43466-.67651a15.48227,15.48227,0,0,0,2.28052-.8805,8.94105,8.94105,0,0,0,1.99719-1.30035,7.61513,7.61513,0,0,0,1.45835-1.97,4.445,4.445,0,0,1-.95615,2.438,6.4468,6.4468,0,0,1-2.11633,1.62365,8.69679,8.69679,0,0,1-2.51163.75592A8.13964,8.13964,0,0,1,135.6333,416.378Z" fill="#8b9d36"/><path d="M150.21039,400.43243a11.18291,11.18291,0,0,1,1.03317,3.46454,13.01752,13.01752,0,0,1-.00882,3.653,10.80383,10.80383,0,0,1-1.11169,3.49194,9.62242,9.62242,0,0,1-2.21534,2.86481,19.39284,19.39284,0,0,0,1.58921-3.14612,14.56757,14.56757,0,0,0,.86816-3.339A22.55817,22.55817,0,0,0,150.21039,400.43243Z" fill="#8b9d36"/><path d="M146.88229,418.8537c.956-.50745,1.88745-.84961,2.797-1.24268a18.4545,18.4545,0,0,0,2.68356-1.34088,3.20777,3.20777,0,0,1-.95761,1.31183,5.569,5.569,0,0,1-1.38421.839,6.625,6.625,0,0,1-1.53833.42877A4.77884,4.77884,0,0,1,146.88229,418.8537Z" fill="#8b9d36"/><path d="M155.9166,409.69971a10.14881,10.14881,0,0,1,.68212,4.08575,8.08359,8.08359,0,0,1-.32147,2.08154,3.64786,3.64786,0,0,1-1.076,1.81757,7.8408,7.8408,0,0,0,.40354-1.95532c.06152-.652.10507-1.3089.11526-1.9729C155.77567,412.42828,155.76227,411.0921,155.9166,409.69971Z" fill="#8b9d36"/><path d="M161.87445,394.25922s25.98152,1.8852,36.628-9.78406c7.90062-8.65964-.77606-22.38572-12.0643-19.22588C178.88088,367.36471,169.80767,374.66154,161.87445,394.25922Z" fill="#5e7c24"/><path d="M161.87445,394.25922c1.74774-.73389,3.47394-1.51618,5.18756-2.32288q2.57969-1.18918,5.12027-2.45715c3.3819-1.69831,6.73551-3.45661,9.96549-5.42163a72.2806,72.2806,0,0,0,9.30914-6.4361,35.1712,35.1712,0,0,0,4.08377-3.90485,16.859,16.859,0,0,0,3.05954-4.73785,16.99567,16.99567,0,0,1-2.84735,4.91644,35.0616,35.0616,0,0,1-4.01386,4.05866,67.57623,67.57623,0,0,1-9.30044,6.58935q-4.907,2.90186-10.067,5.32648C168.9368,391.48486,165.43912,392.96484,161.87445,394.25922Z" fill="#50661a"/><path d="M189.17087,379.728a32.06581,32.06581,0,0,1-.659-3.769c-.15369-1.26763-.22031-2.54437-.26251-3.82391a25.61307,25.61307,0,0,1,.27026-3.83856,6.42054,6.42054,0,0,1,1.52024-3.49869,7.6246,7.6246,0,0,0-.46479.82309,6.66474,6.66474,0,0,0-.29425.88965,12.66411,12.66411,0,0,0-.32947,1.8465,33.14356,33.14356,0,0,0-.13592,3.77221c-.00537,1.26319.06888,2.52637.12878,3.79242Z" fill="#50661a"/><path d="M201.31744,379.08539a12.5698,12.5698,0,0,1-2.30566.175,14.1567,14.1567,0,0,1-2.31369-.19928,8.47352,8.47352,0,0,1-2.2377-.71283,2.667,2.667,0,0,1-1.55277-1.71045,3.06832,3.06832,0,0,0,1.73108,1.31262,14.03237,14.03237,0,0,0,2.15927.55316c.73877.13489,1.48816.22266,2.24073.32367Z" fill="#50661a"/><path d="M197.00125,385.94519a17.0522,17.0522,0,0,1-3.09936.09595,17.45082,17.45082,0,0,1-3.08783-.4339,9.18967,9.18967,0,0,1-2.9025-1.2171,5.01247,5.01247,0,0,1-1.16306-1.08612c-.12838-.23755-.275-.46076-.37823-.70032-.07-.25678-.13049-.51221-.18442-.76111a3.93189,3.93189,0,0,0,1.95655,2.17773,11.72988,11.72988,0,0,0,2.80685,1.03687c.98138.23914,1.984.40222,2.99329.55188C194.95352,385.75116,195.97281,385.84625,197.00125,385.94519Z" fill="#50661a"/><path d="M182.438,384.218a24.71083,24.71083,0,0,1-1.79248-3.583,31.3484,31.3484,0,0,1-1.26862-3.81274,23.71954,23.71954,0,0,1-.61322-3.98145,13.25045,13.25045,0,0,1,.39356-3.99316,22.83861,22.83861,0,0,0,.76883,7.83728c.29669,1.28552.70886,2.542,1.12579,3.79779Q181.68866,382.36375,182.438,384.218Z" fill="#50661a"/><path d="M186.6958,391.482a9.65261,9.65261,0,0,1-2.55237-.22485,9.15591,9.15591,0,0,1-2.44131-.8645,6.60888,6.60888,0,0,1-2.03424-1.64362,4.80521,4.80521,0,0,1-.96121-2.38934,6.64983,6.64983,0,0,0,1.2908,2.10394,8.39687,8.39687,0,0,0,1.96988,1.42853,13.88761,13.88761,0,0,0,2.2879.94568C185.04889,391.093,185.863,391.30231,186.6958,391.482Z" fill="#50661a"/><path d="M172.71021,375.0152a21.2406,21.2406,0,0,0-.60422,3.4928,18.17747,18.17747,0,0,0,.03921,3.50317,13.84744,13.84744,0,0,0,.78513,3.39844,16.1325,16.1325,0,0,0,1.58938,3.15484,10.63442,10.63442,0,0,1-1.99328-2.99084,11.12334,11.12334,0,0,1-.94419-3.50018,13.546,13.546,0,0,1,.093-3.61847A12.57546,12.57546,0,0,1,172.71021,375.0152Z" fill="#50661a"/><path d="M175.364,393.54559a6.18425,6.18425,0,0,1-1.56112-.18133,7.48965,7.48965,0,0,1-1.49375-.50733,6.09961,6.09961,0,0,1-1.34555-.84893,3.73746,3.73746,0,0,1-.98221-1.24415,10.7892,10.7892,0,0,0,2.56684,1.57966C173.457,392.77258,174.40036,393.12714,175.364,393.54559Z" fill="#50661a"/><path d="M166.66965,384.06812c-.02112,1.37628-.11167,2.71978-.108,4.0606a18.82531,18.82531,0,0,0,.07605,1.99689,6.3048,6.3048,0,0,0,.45544,1.94812,4.006,4.006,0,0,1-.88544-1.87622,8.76358,8.76358,0,0,1-.21243-2.07074,12.77458,12.77458,0,0,1,.17685-2.05841A11.12037,11.12037,0,0,1,166.66965,384.06812Z" fill="#50661a"/><path d="M160.88615,419.76322s25.98152,1.8852,36.628-9.78406c7.90062-8.65964-.77606-22.38572-12.0643-19.22589C177.89258,392.86871,168.81937,400.16554,160.88615,419.76322Z" fill="#8b9d36"/><path d="M160.88614,419.76324q5.1871-2.33853,10.25561-4.88787c3.36783-1.7201,6.71888-3.47449,9.93744-5.44788a73.73763,73.73763,0,0,0,9.31153-6.39374,35.15942,35.15942,0,0,0,4.10281-3.86267,17.54528,17.54528,0,0,0,3.11838-4.68829,16.36,16.36,0,0,1-2.78848,4.96594,35.10051,35.10051,0,0,1-3.99482,4.10083,47.36961,47.36961,0,0,1-4.51236,3.51373q-2.33916,1.64237-4.7857,3.118c-3.28275,1.92615-6.64816,3.7027-10.09509,5.30024A110.48719,110.48719,0,0,1,160.88614,419.76324Z" fill="#5e7c24"/><path d="M188.18259,405.23193a29.53293,29.53293,0,0,1-1.078-7.59124,21.44409,21.44409,0,0,1,.30277-3.85755,6.1771,6.1771,0,0,1,1.64425-3.48132,8.08589,8.08589,0,0,0-.9645,3.5766c-.09024,1.24469-.11585,2.49658-.10343,3.75323C188.01132,400.14838,188.15262,402.66919,188.18259,405.23193Z" fill="#5e7c24"/><path d="M200.32913,404.58936a11.47562,11.47562,0,0,1-4.64691.12963,8.01147,8.01147,0,0,1-2.26135-.75244,2.58615,2.58615,0,0,1-1.50156-1.8247,3.26925,3.26925,0,0,0,1.78232,1.1983,16.46019,16.46019,0,0,0,2.13562.51349C197.3027,404.11621,198.79636,404.28156,200.32913,404.58936Z" fill="#5e7c24"/><path d="M196.013,411.44916a15.49114,15.49114,0,0,1-6.22452-.1861,8.92543,8.92543,0,0,1-2.93149-1.26269,3.47894,3.47894,0,0,1-1.65942-2.65381,4.09415,4.09415,0,0,0,2.02289,2.07153,12.4839,12.4839,0,0,0,2.77783.99127C191.94562,410.87921,193.959,411.13263,196.013,411.44916Z" fill="#5e7c24"/><path d="M181.44965,409.722a24.07611,24.07611,0,0,1-3.21293-7.35772,20.39818,20.39818,0,0,1-.58624-4.00934,12.10967,12.10967,0,0,1,.51843-4.00324,23.82008,23.82008,0,0,0,.16581,3.94831,37.3582,37.3582,0,0,0,.75485,3.85107c.30936,1.2746.69748,2.53168,1.09094,3.79187C180.5918,407.1972,181.00012,408.45953,181.44965,409.722Z" fill="#5e7c24"/><path d="M185.70749,416.986a8.14128,8.14128,0,0,1-2.58453-.10418,8.70052,8.70052,0,0,1-2.48237-.84705,6.448,6.448,0,0,1-2.05569-1.69983,4.445,4.445,0,0,1-.86655-2.47125,7.61617,7.61617,0,0,0,1.3855,2.022,8.943,8.943,0,0,0,1.94843,1.37232,15.4868,15.4868,0,0,0,2.24685.96313C184.08093,416.493,184.88,416.74133,185.70749,416.986Z" fill="#5e7c24"/><path d="M171.72189,400.51923a22.55716,22.55716,0,0,0-.40957,6.97876,14.56593,14.56593,0,0,0,.74575,3.36853,19.39548,19.39548,0,0,0,1.47336,3.202,9.62169,9.62169,0,0,1-2.10934-2.94372,10.80429,10.80429,0,0,1-.98355-3.53016,13.02,13.02,0,0,1,.12445-3.65087A11.18342,11.18342,0,0,1,171.72189,400.51923Z" fill="#5e7c24"/><path d="M174.37567,419.04962a4.77717,4.77717,0,0,1-1.59918-.06238,6.62265,6.62265,0,0,1-1.52167-.48455,5.56922,5.56922,0,0,1-1.35266-.889,3.20743,3.20743,0,0,1-.90912-1.34589,18.45369,18.45369,0,0,0,2.63285,1.43793C172.52048,418.13171,173.43884,418.50769,174.37567,419.04962Z" fill="#5e7c24"/><path d="M165.68137,409.57214c.10339,1.397.04129,2.73182.04837,4.0611-.014.66394.00549,1.3219.04321,1.97577a7.839,7.839,0,0,0,.33191,1.96875,3.648,3.648,0,0,1-1.00894-1.85559,8.08251,8.08251,0,0,1-.24527-2.09192A10.14745,10.14745,0,0,1,165.68137,409.57214Z" fill="#5e7c24"/><path d="M169.56813,373.57252s-7.20351-25.034,2.01895-37.85841c6.84389-9.51683,22.06445-3.85782,21.30082,7.83944C192.37667,351.3846,187.10815,361.76774,169.56813,373.57252Z" fill="#8b9d36"/><path d="M169.56815,373.57251a110.48551,110.48551,0,0,1,2.01376-11.2056c.85226-3.7023,1.89645-7.36178,3.10409-10.97125q.93736-2.69637,2.06391-5.3259a47.36271,47.36271,0,0,1,2.50741-5.14A35.10221,35.10221,0,0,1,182.446,336.175a16.35993,16.35993,0,0,1,4.28406-3.75278,17.54539,17.54539,0,0,0-3.94433,4.01834,35.14971,35.14971,0,0,0-2.93335,4.81128,73.72675,73.72675,0,0,0-4.3357,10.43c-1.26715,3.5564-2.29263,7.19724-3.28112,10.84745C171.26181,366.18463,170.38037,369.86725,169.56815,373.57251Z" fill="#5e7c24"/><path d="M178.15689,343.86584c2.51386-.49926,5.00955-.88092,7.47791-1.37292,1.23223-.24707,2.4519-.5303,3.65118-.87537a8.08618,8.08618,0,0,0,3.30078-1.68142,6.1772,6.1772,0,0,1-3.06732,2.32693,21.44405,21.44405,0,0,1-3.71219,1.09189A29.53092,29.53092,0,0,1,178.15689,343.86584Z" fill="#5e7c24"/><path d="M176.28036,331.84793c.61735,1.43634,1.08719,2.86377,1.64637,4.24356a16.46524,16.46524,0,0,0,.94293,1.9838,3.26949,3.26949,0,0,0,1.54019,1.49682,2.58614,2.58614,0,0,1-2.09518-1.09292,8.01,8.01,0,0,1-1.2027-2.05753A11.4751,11.4751,0,0,1,176.28036,331.84793Z" fill="#5e7c24"/><path d="M170.45828,337.48618c.73334,1.94448,1.39661,3.86233,2.258,5.67092a12.485,12.485,0,0,0,1.54291,2.51365,4.094,4.094,0,0,0,2.44421,1.55209,3.479,3.479,0,0,1-2.939-1.07636,8.92645,8.92645,0,0,1-1.84018-2.608A15.49164,15.49164,0,0,1,170.45828,337.48618Z" fill="#5e7c24"/><path d="M175.1521,351.38013c1.328.17947,2.64743.31863,3.95956.4624,1.31424.12506,2.62436.24557,3.9354.28537a37.35942,37.35942,0,0,0,3.924-.0557,23.8172,23.8172,0,0,0,3.89758-.6521,12.10986,12.10986,0,0,1-3.81021,1.33295,20.40273,20.40273,0,0,1-4.0441.25333A24.07717,24.07717,0,0,1,175.1521,351.38013Z" fill="#5e7c24"/><path d="M167.16608,348.71207c.41009.75921.81787,1.4899,1.24517,2.19882a15.4905,15.4905,0,0,0,1.40586,1.99988,8.94258,8.94258,0,0,0,1.74469,1.6235,7.6154,7.6154,0,0,0,2.26425.93863,4.44483,4.44483,0,0,1-2.59686-.3382,6.44742,6.44742,0,0,1-2.08725-1.66088,8.69771,8.69771,0,0,1-1.34082-2.25428A8.13938,8.13938,0,0,1,167.16608,348.71207Z" fill="#5e7c24"/><path d="M186.16342,359.00058a11.18384,11.18384,0,0,1-3.11185,1.8403,13.02009,13.02009,0,0,1-3.54672.87482,10.805,10.805,0,0,1-3.65707-.23432,9.62233,9.62233,0,0,1-3.31552-1.45681,19.39529,19.39529,0,0,0,3.437.78125,14.56761,14.56761,0,0,0,3.44989.03494A22.55779,22.55779,0,0,0,186.16342,359.00058Z" fill="#5e7c24"/><path d="M167.4841,360.22586c.72351.8049,1.28082,1.626,1.88214,2.41345a18.44919,18.44919,0,0,0,1.95,2.27967,3.20764,3.20764,0,0,1-1.50445-.61194,5.57079,5.57079,0,0,1-1.14887-1.14023,6.62515,6.62515,0,0,1-.788-1.389A4.7782,4.7782,0,0,1,167.4841,360.22586Z" fill="#5e7c24"/><path d="M178.55106,366.77844a10.14905,10.14905,0,0,1-3.79953,1.6499,8.08344,8.08344,0,0,1-2.09751.19141,3.64757,3.64757,0,0,1-2.0238-.60449,7.84057,7.84057,0,0,0,1.9949-.0813c.64752-.098,1.29541-.21454,1.94217-.36523C175.86942,367.30151,177.16269,366.96539,178.55106,366.77844Z" fill="#5e7c24"/><path d="M143.43828,422.65575v4.70283a1.62987,1.62987,0,0,0,1.61359,1.64567H177.381a1.62987,1.62987,0,0,0,1.61359-1.64567v-4.33394a1.6303,1.6303,0,0,0-1.59554-1.64557l-32.3291-.36888A1.62943,1.62943,0,0,0,143.43828,422.65575Z" fill="#d6694b"/><polygon points="144.981 429.004 146.131 453.277 175.541 453.277 177.451 429.004 144.981 429.004" fill="#e19974"/><rect x="161.43319" y="116.45336" width="265.61831" height="203.96231" rx="3.15011" fill="#904d24"/><rect x="174.82649" y="126.73777" width="238.83172" height="183.39348" rx="2.83243" fill="#558031"/><path d="M437.23363,198.96957h5.27483a0,0,0,0,1,0,0v17.54825a1.26293,1.26293,0,0,1-1.26293,1.26293h-2.749a1.26293,1.26293,0,0,1-1.26293-1.26293V198.96957A0,0,0,0,1,437.23363,198.96957Z" fill="#935b50"/><path d="M525.34592,198.96957h5.27483a0,0,0,0,1,0,0v17.54825a1.26293,1.26293,0,0,1-1.26293,1.26293h-2.749a1.26293,1.26293,0,0,1-1.26293-1.26293V198.96957A0,0,0,0,1,525.34592,198.96957Z" fill="#935b50"/><path d="M544.55321,200.8141h-116.805c-.65315,0-1.18271-.82576-1.18271-1.84423s.52956-1.84424,1.18271-1.84424h116.805c.65315,0,1.18271.82577,1.18271,1.84424S545.20636,200.8141,544.55321,200.8141Z" fill="#d6694b"/><rect x="450.16309" y="194.18359" width="5.96094" height="0.7207" fill="#fff"/><rect x="450.16309" y="191.30371" width="5.96094" height="0.7207" fill="#fff"/><rect x="450.16309" y="165.38672" width="5.96094" height="0.7207" fill="#fff"/><rect x="450.16309" y="162.50684" width="5.96094" height="0.7207" fill="#fff"/><path d="M466.15825,175.02432h37.28595a0,0,0,0,1,0,0V180.887a0,0,0,0,1,0,0H466.15825a.60938.60938,0,0,1-.60938-.60938v-4.644A.60938.60938,0,0,1,466.15825,175.02432Z" transform="matrix(-0.13502, 0.99084, -0.99084, -0.13502, 726.24018, -278.07624)" fill="#7ca1b1"/><rect x="486.31096" y="159.1126" width="0.70767" height="5.86269" transform="translate(260.43999 622.39511) rotate(-82.24579)" fill="#fff"/><rect x="485.92863" y="161.91869" width="0.70767" height="5.86282" transform="translate(257.2529 624.40603) rotate(-82.23634)" fill="#fff"/><rect x="482.48674" y="187.17552" width="0.70767" height="5.86282" transform="translate(229.25064 642.84064) rotate(-82.23634)" fill="#fff"/><rect x="482.10442" y="189.98174" width="0.70767" height="5.86269" transform="translate(226.21413 644.9312) rotate(-82.24579)" fill="#fff"/><path d="M471.14255,159.83969l0,37.28594h-5.86273l0-37.286a.60937.60937,0,0,1,.60938-.60937h4.644A.60938.60938,0,0,1,471.14255,159.83969Z" fill="#f65b2b"/><rect x="465.27979" y="193.88184" width="5.86279" height="0.70898" fill="#fff"/><rect x="465.27979" y="191.0498" width="5.86279" height="0.70898" fill="#fff"/><rect x="465.27979" y="165.55957" width="5.86279" height="0.70898" fill="#fff"/><rect x="465.27979" y="162.72754" width="5.86279" height="0.70898" fill="#fff"/><path d="M471.13545,197.12563V161.539a.60938.60938,0,0,1,.60938-.60938H478.428a.60938.60938,0,0,1,.60938.60938v35.5866Z" fill="#ffba55"/><rect x="471.13525" y="192.67188" width="7.90234" height="0.70898" fill="#fff"/><rect x="466.6322" y="168.87408" width="16.90845" height="5.09803" transform="translate(646.50951 -303.66334) rotate(90)" fill="#fff"/><path d="M451.52592,159.83969l0,37.28594h5.86273l0-37.286a.60937.60937,0,0,0-.60938-.60937h-4.644A.60938.60938,0,0,0,451.52592,159.83969Z" fill="#ffba55"/><rect x="451.52588" y="193.88184" width="5.86279" height="0.70898" fill="#fff"/><rect x="451.52588" y="191.0498" width="5.86279" height="0.70898" fill="#fff"/><rect x="451.52588" y="165.55957" width="5.86279" height="0.70898" fill="#fff"/><rect x="451.52588" y="162.72754" width="5.86279" height="0.70898" fill="#fff"/><path d="M451.533,197.12563V161.539a.60937.60937,0,0,0-.60937-.60938h-6.68319a.60937.60937,0,0,0-.60937.60938v35.5866Z" fill="#f65b2b"/><rect x="443.63086" y="192.67188" width="7.90234" height="0.70898" fill="#fff"/><rect x="439.12782" y="168.87408" width="16.90845" height="5.09803" transform="translate(619.00513 -276.15896) rotate(90)" fill="#fff"/><path d="M443.84562,175.07667h35.5866a0,0,0,0,1,0,0v7.90194a0,0,0,0,1,0,0h-35.5866a.60938.60938,0,0,1-.60938-.60938v-6.68318A.60938.60938,0,0,1,443.84562,175.07667Z" transform="translate(640.36188 -282.30659) rotate(90)" fill="#7ca1b1"/><rect x="457.3833" y="192.67188" width="7.90186" height="0.70898" fill="#fff"/><rect x="452.88001" y="168.87408" width="16.90845" height="5.09803" transform="translate(632.75732 -289.91115) rotate(90)" fill="#fff"/><rect x="486.99265" y="163.49709" width="47.49272" height="1.41501" transform="translate(159.46562 569.69749) rotate(-66.92083)" fill="#935b50"/><circle cx="508.69794" cy="164.06986" r="19.1286" fill="#c0d6f2"/><path d="M492.96354,153.19578a19.11507,19.11507,0,0,0-2.95374,14.9537c.0121.00691.0235.01566.03577.02223a2.2251,2.2251,0,0,0,2.20089,0,5.75209,5.75209,0,0,0,.683-1.51785c.27529-.71979.33317-.9546.60713-1.13837.34873-.234.64164-.113.83481-.37948.17352-.23941.00685-.43327.0759-.83486a2.29271,2.29271,0,0,1,.98662-1.29013c.65212-.52512.98811-.46989,1.10474-.8276.07314-.22444-.00887-.40032-.34579-1.14563a11.70771,11.70771,0,0,1-.683-1.59375,3.3449,3.3449,0,0,1,.37941-1.89732,29.55529,29.55529,0,0,0,.683-3.11161c.7684-2.916,2.102-4.03832,1.82142-4.32588C498.048,149.75492,495.40039,150.82188,492.96354,153.19578Z" fill="#a6b862"/><path d="M525.08444,154.19829c-1.32169-1.36016-2.583-2.11456-2.93624-1.88816-.15383.09859-.0531.33029-.30351.9107-.2397.55537-.82351,1.48232-1.5179,1.51785-.31112.016-.45487-.15676-1.44195-.98661-1.47-1.23582-1.72258-1.33315-1.97323-1.29019-.64134.11-1.15161,1.11822-.9107,1.51791.23635.39209,1.08878.02108,1.36609.45532a1.10608,1.10608,0,0,1-.45539,1.29019,1.76755,1.76755,0,0,1-1.59375-.07591,3.02391,3.02391,0,0,1-1.59375-1.21428c-.40574-.66939-.28261-1.19429-.60714-1.29018-.294-.08685-.71006.251-.91071.60714-.34642.615.07487,1.06223-.22767,1.5179-.38967.58687-1.3696.26838-1.51784.683-.13748.38431.57448,1.02129,1.13837,1.36609.69825.42688.93564.2628,1.82142.60714,1.325.51505,1.236,1.05406,2.42855,1.44194,1.03586.33692,1.381.02074,1.82148.45539.36173.357.41823.921.53123,2.04908.08979.89619-.01394,1.11038-.07591,1.21427a1.442,1.442,0,0,1-1.51785.60714c-.30259-.08028-.50531-.28116-.9107-.683-.46472-.46068-.46518-.63662-.7589-.75895-.452-.18815-.66611.13874-1.06252,0-.52726-.18458-.7377-.96922-.98662-1.89732-.25121-.9368-.19679-1.32918-.53123-1.51785-.27345-.15429-.44311.03283-1.06252,0a4.7671,4.7671,0,0,1-1.366-.37948,11.94259,11.94259,0,0,0-1.66966-.45532,4.99392,4.99392,0,0,0-2.42861.30357,5.37266,5.37266,0,0,0-2.58031,1.51785,3.85478,3.85478,0,0,0-1.13843,2.88393,3.51378,3.51378,0,0,0,1.13843,2.20084c.8788.76776,1.46762.41075,2.2768,1.13843a3.65144,3.65144,0,0,1,1.06246,2.42856c.02154.39422-.0148.94054-1.21428,3.41517-.93311,1.92514-1.1773,2.14359-1.29018,2.95984-.12624.91279-.07965,2.51109.75895,2.95979.46437.24846.69117-.11265,2.50447-.30357a10.90417,10.90417,0,0,1,2.04908-.07585c1.02894.07038,1.15357.2507,1.74556.15176a3.69137,3.69137,0,0,0,1.74551-.91071c.75176-.61342.67982-.89032,1.442-1.51785a7.31133,7.31133,0,0,1,1.51779-.91071c1.10894-.56169,1.40508-.53578,2.35271-1.06252.8268-.45953,1.46486-.82391,1.44194-1.29018a1.02419,1.02419,0,0,0-.683-.7589c-.56953-.221-.88133.20613-1.36609,0a1.37506,1.37506,0,0,1-.683-1.36609c.04228-.43235.30737-.98374.60714-.98661.37971-.00363.35967.87736,1.06253,1.29018a2.02062,2.02062,0,0,0,1.97323-.15176c.51643-.31842,1.1193-1.0002.98655-1.59375-.10124-.45291-.55139-.4999-.683-1.06252-.08668-.37061-.0159-.88272.22772-.98662.458-.19535,1.41764,1.09875,1.89732,1.74557a5.26947,5.26947,0,0,1,1.29019,2.35265c.13039.92286-.1995,1.53754.22766,1.97323a1.167,1.167,0,0,0,.91071.30357,1.2318,1.2318,0,0,0,.45435-.14145,19.13938,19.13938,0,0,0-.78153-18.30966Z" fill="#a6b862"/><path d="M509.61768,188.81738a25.04077,25.04077,0,0,1-9.67627-1.95605,1.29785,1.29785,0,0,1,1.00195-2.39453,22.48089,22.48089,0,1,0,17.352-41.47852,1.29766,1.29766,0,0,1,1.001-2.39453,25.09,25.09,0,0,1-9.67871,48.22363Z" fill="#935b50"/><path d="M526.37145,193.8024H511.29284v-5.81822a1.65122,1.65122,0,0,0-1.65129-1.65129c-.912,0-4.01027.73926-4.01027,1.65129v5.81822H492.91165a1.65129,1.65129,0,0,0,0,3.30258h33.4598a1.65129,1.65129,0,1,0,0-3.30258Z" fill="#935b50"/><rect x="138.04238" y="195.59087" width="11.94658" height="33.89314" fill="#ffba55"/><polygon points="420.489 452.965 445.917 367.241 438.833 365.14 412.712 453.198 420.489 452.965" fill="#c38f86"/><polygon points="473.008 452.965 480.785 453.198 454.665 365.14 447.58 367.241 473.008 452.965" fill="#c38f86"/><rect x="443.10629" y="360.0288" width="7.38938" height="93.18626" fill="#c38f86"/><rect x="408.9071" y="355.71468" width="81.66306" height="12.32311" rx="6.16155" transform="translate(899.47727 723.75248) rotate(-180)" fill="#935b50"/><path d="M394.09018,319.27466s-.50152,3.89557-7.07039,9.5431-12.34036,9.39183-8.74068,4.45872l2.80532-3.71378s-6.69357,1.92539-10.5807,3.42164a5.15776,5.15776,0,0,1-5.94036-1.54188c-1.26614-1.639-1.07485-3.28863,3.05767-5.87433,6.18075-3.86728,9.556-5.73411,11.36151-6.24235.62552-.17608,7.54518-1.53388,7.54518-1.53388Z" fill="#f9977a"/><path d="M385.032,328.07678a5.34382,5.34382,0,0,1-.89832.59229,7.769,7.769,0,0,1-.96251.44653,7.33736,7.33736,0,0,1-1.01652.31061,4.61556,4.61556,0,0,1-1.07022.1365,7.89086,7.89086,0,0,1,.93425-.52148c.31329-.16116.63778-.29062.96246-.4209A8.873,8.873,0,0,1,385.032,328.07678Z" fill="#dd765e"/><path d="M375.99,328.46964c-1.5498.79193-3.12347,1.48937-4.67952,2.22436-1.56258.72528-3.10709,1.45251-4.61587,2.31461a11.96071,11.96071,0,0,1,2.08938-1.5672,22.05736,22.05736,0,0,1,2.30261-1.22834c.79-.36251,1.59009-.70092,2.41-.98767A22.01111,22.01111,0,0,1,375.99,328.46964Z" fill="#dd765e"/><path d="M374.5641,326.33313c-1.75419.739-3.50889,1.42465-5.21719,2.20807-.86014.378-1.69544.80267-2.51378,1.25372a9.75792,9.75792,0,0,0-2.26976,1.64752,6.73532,6.73532,0,0,1,2.0533-1.99371,16.09626,16.09626,0,0,1,2.51082-1.3905,24.03369,24.03369,0,0,1,2.67025-1.02149A21.17506,21.17506,0,0,1,374.5641,326.33313Z" fill="#dd765e"/><path d="M372.76135,324.66458l-4.34591,1.87317c-.71994.31268-1.423.65674-2.13419.99027-.70573.345-1.39322.72128-2.098,1.09805a14.18821,14.18821,0,0,1,4.01645-2.57294,20.44186,20.44186,0,0,1,2.238-.83746A15.432,15.432,0,0,1,372.76135,324.66458Z" fill="#dd765e"/><path d="M414.37214,430.96527l.55072,17.38805s-9.74679,2.38956-14.3408-8.91353l.80557-10.15367Z" fill="#f9977a"/><path d="M414.74177,436.88851s7.7509,9.68166,3.45487,15.38807a2.3878,2.3878,0,0,1-1.92175.93843l-38.42669-.20862a1.25276,1.25276,0,0,1-1.23364-1.40012c.22053-1.99067,14.04528-5.359,22.95771-13.02408C399.57227,438.58219,411.12473,441.90211,414.74177,436.88851Z" fill="#935b50"/><path d="M460.79211,430.96527l.55071,17.38805s-9.74679,2.38956-14.3408-8.91353l.80557-10.15367Z" fill="#f9977a"/><path d="M461.16173,436.88851s7.7509,9.68166,3.45487,15.38807a2.3878,2.3878,0,0,1-1.92175.93843l-38.42669-.20862a1.25276,1.25276,0,0,1-1.23364-1.40012c.22054-1.99067,14.04529-5.359,22.95771-13.02408C445.99223,438.58219,457.54469,441.90211,461.16173,436.88851Z" fill="#935b50"/><path d="M435.91805,258.04754l-13.42684,6.59136s-10.00911,14.64746-9.27673,20.75058l-7.812,15.13571-20.9947,16.11222,6.83548,9.765,24.9765-13.64263a15.39886,15.39886,0,0,0,6.23962-6.33207l4.91431-9.32024s4.15011,8.05611,9.765,18.30934l-1.22062,14.64746h58.834l-3.41774-38.32754s.24412-24.90069-11.22973-31.73618c0,0-6.83548-4.39424-20.01821-4.15011a13.96564,13.96564,0,0,0-3.29568-4.852Z" fill="#376f92"/><path d="M494.87521,329.99706s7.79854,29.3429-31.19413,30.24576l1.94963,74.78621H442.625l-2.72949-77.04335-19.04707,1.02564L419.22943,435.029H397.60774l1.3455-82.91194c0-12.21656,8.55424-22.12,19.10641-22.12Z" fill="#ffba55"/><path d="M466.54054,348.65613a19.46323,19.46323,0,0,1-.18107,6.11822,13.35015,13.35015,0,0,1-.88435,2.96463,6.30841,6.30841,0,0,1-1.794,2.50385,9.55124,9.55124,0,0,0,1.26579-2.70392,22.684,22.684,0,0,0,.70175-2.89893C466.02853,352.6763,466.24914,350.67911,466.54054,348.65613Z" fill="#e6952a"/><path d="M450.68353,329.99707a4.50028,4.50028,0,0,0-3.66384,1.20779,10.15907,10.15907,0,0,0-2.38954,3.14423,28.7511,28.7511,0,0,0-2.57569,7.58273l-.4459,1.96823-.32443,1.9961-.32177,1.99747c-.06827.67172-.149,1.342-.23492,2.01217-.38124,2.67783-.52074,5.381-.83189,8.0799.01057-2.71057.01113-5.43073.27806-8.13739.04833-.678.10181-1.356.16776-2.03257l.29172-2.0205.29528-2.02115.42109-2.00272a27.27869,27.27869,0,0,1,2.798-7.69479,10.489,10.489,0,0,1,2.65467-3.14942A4.52616,4.52616,0,0,1,450.68353,329.99707Z" fill="#e6952a"/><path d="M420.84848,359.01132c-.5872-1.25863-1.10457-2.48968-1.76711-3.63348A8.28835,8.28835,0,0,0,416.5,352.41806a3.92,3.92,0,0,1,1.88452.93948,6.54018,6.54018,0,0,1,1.32481,1.661A8.66684,8.66684,0,0,1,420.84848,359.01132Z" fill="#e6952a"/><path d="M440.105,316.4735l-12.66324-2.27132a4.80819,4.80819,0,0,0-3.94517.86718l-8.3903,6.37663c1.83914,4.35945,24.71779,4.307,24.71779,4.307S442.63341,316.617,440.105,316.4735Z" fill="#f9977a"/><path d="M418.27511,323.52005a45.89424,45.89424,0,0,1,3.62009-3.17688c1.255-.99554,2.53637-1.95636,3.85732-2.86523l.074-.05091.06417-.00436q1.616-.11019,3.24757-.08069-1.58534.38622-3.186.63452l.1378-.05514c-1.22778,1.03125-2.49509,2.01059-3.78885,2.95517A45.90053,45.90053,0,0,1,418.27511,323.52005Z" fill="#dd765e"/><path d="M423.03571,324.6196a24.06612,24.06612,0,0,1,2.36787-2.34818c.83578-.72555,1.69215-1.42584,2.58986-2.07528l.07032-.05088.05215-.00918a22.729,22.729,0,0,1,2.72525-.32489,22.71671,22.71671,0,0,1-2.58763.9147l.12213-.05987c-.81858.7467-1.67849,1.44259-2.559,2.11322A24.07111,24.07111,0,0,1,423.03571,324.6196Z" fill="#dd765e"/><path d="M428.71865,325.314a9.3556,9.3556,0,0,1,1.8687-2.59668l.08721-.09122.09768-.01517a7.85664,7.85664,0,0,1,2.0443-.07507,7.85794,7.85794,0,0,1-1.90626.74228l.18456-.1062A9.35586,9.35586,0,0,1,428.71865,325.314Z" fill="#dd765e"/><path d="M420.84974,284.04163c.68355,1.05685,1.30114,2.14669,1.90873,3.24154.609,1.09412,1.16389,2.2153,1.7485,3.32163.53589,1.13067,1.09775,2.24838,1.60926,3.39126.511,1.14316,1.01252,2.291,1.44693,3.47242-.6845-1.05637-1.30185-2.14634-1.90979-3.241-.60738-1.09494-1.16442-2.215-1.74743-3.32215-.5343-1.1315-1.09832-2.2481-1.60822-3.39178C421.78641,286.37057,421.2851,285.2226,420.84974,284.04163Z" fill="#10394f"/><path d="M409.498,299.54355a15.09055,15.09055,0,0,1,5.21541,1.53851,10.88367,10.88367,0,0,1,2.298,1.51776,5.9925,5.9925,0,0,1,1.64126,2.19239,9.77069,9.77069,0,0,0-1.9657-1.77967,17.82267,17.82267,0,0,0-2.27669-1.33035c-.783-.40866-1.59881-.76044-2.4181-1.1123Z" fill="#10394f"/><path d="M468.69814,277.6944a33.88658,33.88658,0,0,1,1.79512-4.80167,36.84916,36.84916,0,0,1,2.462-4.515,21.62838,21.62838,0,0,1,3.27631-3.988,9.8475,9.8475,0,0,1,4.42861-2.56336,11.8075,11.8075,0,0,0-4.06539,2.932A24.32187,24.32187,0,0,0,473.518,268.745a47.1005,47.1005,0,0,0-2.5625,4.37512C470.16291,274.61893,469.41681,276.14557,468.69814,277.6944Z" fill="#10394f"/><path d="M467.23339,282.08865a82.5135,82.5135,0,0,0,.34615,11.57239,41.83132,41.83132,0,0,0,.94339,5.69672,17.7029,17.7029,0,0,0,2.04881,5.32867l.03073.04822.00031.05768.03215,6.1029.00109.20621-.207.02075-31.36085,3.14344.12391-.599a5.23229,5.23229,0,0,1,1.99245,3.2929,11.7794,11.7794,0,0,1,.1529,3.76166,21.64386,21.64386,0,0,1-.75934,3.64838c-.34492,1.1918-.78914,2.3446-1.23891,3.495l-.302-.4515,32.08694.0831,8.02174.04254,4.01087.02127a13.92633,13.92633,0,0,0,3.93962-.26789A7.42222,7.42222,0,0,0,490.438,325.294a7.7047,7.7047,0,0,0,1.8847-3.43592,33.51315,33.51315,0,0,0,1.14941-7.91082,33.58884,33.58884,0,0,1-1.00305,7.949,7.896,7.896,0,0,1-1.86594,3.55338,7.68744,7.68744,0,0,1-3.42255,2.133,13.60732,13.60732,0,0,1-4.02394.33722l-4.01087.02124-8.02174.04254-32.08694.0831-.47723.00125.17509-.45294c.43792-1.13284.87062-2.267,1.203-3.4314a22.50211,22.50211,0,0,0,.73717-3.53414,11.13487,11.13487,0,0,0-.1276-3.54465,4.69873,4.69873,0,0,0-1.66537-2.87766l-.75451-.5162.87845-.08289,31.37874-2.95962-.20576.22674.03215-6.1029.031.1055a17.82976,17.82976,0,0,1-2.0366-5.4661,42.0979,42.0979,0,0,1-.84228-5.74985A82.61811,82.61811,0,0,1,467.23339,282.08865Z" fill="#10394f"/><path d="M455.51541,326.031a20.43038,20.43038,0,0,0-.03429-3.62366,17.00548,17.00548,0,0,0-.72019-3.49912,13.86209,13.86209,0,0,0-1.46152-3.24542,18.97241,18.97241,0,0,0-2.17389-2.89187,11.15437,11.15437,0,0,1,2.61234,2.60314,12.29261,12.29261,0,0,1,.97642,1.59241,14.60469,14.60469,0,0,1,.68781,1.73932A12.55578,12.55578,0,0,1,455.51541,326.031Z" fill="#10394f"/><path d="M483.83385,320.53824a33.371,33.371,0,0,0-2.86948-3.05725,26.29382,26.29382,0,0,0-3.22527-2.64035,27.519,27.519,0,0,0-3.56423-2.13517,20.90714,20.90714,0,0,0-3.84067-1.4873l-.92862-.25153.86158-.37124a19.63141,19.63141,0,0,1,3.7135-1.15174,15.40425,15.40425,0,0,1,3.86383-.34683,11.44164,11.44164,0,0,1,3.78447.835,9.05107,9.05107,0,0,1,3.05933,2.30613,9.58033,9.58033,0,0,0-3.17764-2.0138,11.37045,11.37045,0,0,0-3.6785-.62768,18.06317,18.06317,0,0,0-3.72419.43707,19.0733,19.0733,0,0,0-3.56092,1.16156l-.067-.62262a19.14934,19.14934,0,0,1,3.97466,1.57983,24.03767,24.03767,0,0,1,3.59814,2.25779,25.49166,25.49166,0,0,1,5.781,6.12808Z" fill="#10394f"/><path d="M416.33344,286.97113a25.68546,25.68546,0,0,1,4.08638,1.6597,25.38342,25.38342,0,0,1,3.78663,2.26157,25.387,25.387,0,0,1-4.08639-1.65973A25.68532,25.68532,0,0,1,416.33344,286.97113Z" fill="#10394f"/><path d="M436.10752,258.40857a4.847,4.847,0,0,0-1.15214,2.60742,17.06143,17.06143,0,0,0-.27549,2.886c-.01878.96939-.01417,1.9407.04855,2.91171.049.97168.16619,1.939.23694,2.91113l-.55848-.18744a7.67153,7.67153,0,0,1,2.073-1.41806,5.4095,5.4095,0,0,1,2.44274-.53884,4.88869,4.88869,0,0,1,2.39042.63821,6.63389,6.63389,0,0,1,1.01105.69116c.31093.26038.58031.56778.863.85047-.3272-.238-.63306-.49625-.96039-.71955a6.37953,6.37953,0,0,0-1.04451-.55261,4.75655,4.75655,0,0,0-2.25092-.42719,5.83743,5.83743,0,0,0-2.196.59461,7.10423,7.10423,0,0,0-1.85657,1.32754l-.48072.48587-.07792-.67337a34.49607,34.49607,0,0,1-.19135-5.92181,17.49141,17.49141,0,0,1,.48674-2.93945,7.69556,7.69556,0,0,1,.5499-1.39127A2.76018,2.76018,0,0,1,436.10752,258.40857Z" fill="#10394f"/><path d="M460.27584,256.21146a25.60618,25.60618,0,0,1-.37257,4.3486,31.04919,31.04919,0,0,1-1.02744,4.25787,28.782,28.782,0,0,1-1.65193,4.06961,23.99394,23.99394,0,0,1-2.31639,3.74192l-.23551.332-.26033-.33582a8.34739,8.34739,0,0,0-1.88139-1.7298,9.31673,9.31673,0,0,0-2.30069-1.20187,10.66358,10.66358,0,0,0-2.55757-.56259,13.74214,13.74214,0,0,0-2.654.01864,11.54229,11.54229,0,0,1,2.66879-.27551,9.33248,9.33248,0,0,1,2.67735.4122,9.733,9.733,0,0,1,2.48319,1.13748,8.85955,8.85955,0,0,1,2.06277,1.84141l-.4956-.00379a29.9609,29.9609,0,0,0,3.91188-7.6279A38.319,38.319,0,0,0,460.27584,256.21146Z" fill="#10394f"/><path d="M443.9195,269.76035c.24506,3.62539.44248,7.25082.65056,10.87536l.61961,10.87125q.282,5.436.70037,10.86145c.12622,1.80914.2809,3.61679.48458,5.417.0927.90176.18048,1.80478.33118,2.6976a23.87346,23.87346,0,0,0,.52682,2.66663,56.53311,56.53311,0,0,1-1.858-10.73483c-.38375-3.61625-.615-7.2435-.85579-10.86878-.18766-3.62863-.36167-7.2572-.46344-10.88852C443.95477,277.02637,443.8872,273.39417,443.9195,269.76035Z" fill="#10394f"/><path d="M452.07329,216.97556a18.03957,18.03957,0,0,0-8.45541.16185c-1.29812.36538-6.0459,1.70165-8.59862,5.943-.96954,1.61077-1.29691,3.60424-1.95215,7.59116-.40924,2.4903-1.49387,4.22127-1.69559,7.27835a25.883,25.883,0,0,0,.72167,7.37491c.87846,3.77023.01509,5.82168.52975,6.54972,2.07408,2.93421,9.07762,1.20562,8.93917,4.84538-.08549,2.24746-7.76752,9.115-5.2106,9.75108,5.90953,1.47021,12.84761.00875,16.20163-1.47679.45722-.20251,5.661-1.36768,5.48706-5.36428-.093-2.135-.69491-15.68092-.43686-16.95261.93309-4.59635,3.30776-5.00662,5.52286-10.49046a8.73961,8.73961,0,0,0-.88246-8.5034A17.85184,17.85184,0,0,0,452.07329,216.97556Z" fill="#f9977a"/><ellipse cx="433.77009" cy="234.66925" rx="1.17364" ry="0.9438" transform="matrix(0.06632, -0.9978, 0.9978, 0.06632, 170.85067, 651.9216)" fill="#0a0709"/><ellipse cx="442.26104" cy="235.23359" rx="1.17364" ry="0.9438" transform="translate(178.21541 660.92077) rotate(-86.19746)" fill="#0a0709"/><path d="M438.42822,232.87109a.59476.59476,0,0,1-.35644-.11914,5.09636,5.09636,0,0,0-5.68213-.40136.59562.59562,0,0,1-.65332-.9961,6.33517,6.33517,0,0,1,7.04931.44336.59612.59612,0,0,1-.35742,1.07324Z" fill="#1e1d22"/><path d="M447.228,233.45605a.59476.59476,0,0,1-.35645-.11914,5.09657,5.09657,0,0,0-5.68213-.40136.59562.59562,0,0,1-.65332-.9961,6.333,6.333,0,0,1,7.04932.44336.59612.59612,0,0,1-.35742,1.07324Z" fill="#1e1d22"/><path d="M439.1814,233.16605a4.67362,4.67362,0,0,1-.43315,2.94311,10.808,10.808,0,0,1-1.623,2.5369c-.335.38461-.80464.65777-.80033,1.058a1.699,1.699,0,0,0,.55719,1.17462,3.66635,3.66635,0,0,0,2.69779.78922,3.41586,3.41586,0,0,1-2.90668-.56632,1.89294,1.89294,0,0,1-.70917-1.41757,1.15629,1.15629,0,0,1,.35751-.773l.51305-.53488a11.85637,11.85637,0,0,0,1.64409-2.40778A5.3251,5.3251,0,0,0,439.1814,233.16605Z" fill="#dd765e"/><path d="M454.58559,234.58789a2.47758,2.47758,0,0,1,1.88023.92169,4.36908,4.36908,0,0,1,.58388.89551,3.82257,3.82257,0,0,1,.31346,1.00848,14.172,14.172,0,0,0-1.19393-1.64062,4.35693,4.35693,0,0,0-.71117-.67941A3.58682,3.58682,0,0,0,454.58559,234.58789Z" fill="#dd765e"/><path d="M455.02608,239.52213a3.5336,3.5336,0,0,1,.99268-4.18918c-.1734.3424-.362.655-.49327.99441a4.8764,4.8764,0,0,0-.33088,1.02155A7.23521,7.23521,0,0,0,455.02608,239.52213Z" fill="#dd765e"/><path d="M452.10709,241.03994a9.19181,9.19181,0,0,1,.872-3.85907c.78593-1.66883,1.76563-3.94874,3.452-3.99275,1.24255-.03243,1.76035-.32549,2.1258.89593.60376,2.02055-.8175,4.11079-1.807,5.56671-1.41669,2.08316-2.52874,2.4846-2.64807,3.98308-.09117,1.14312,3.02072,3.68207,3.66949,3.2764,1.3225-.827.813-3.60253,4.688-9.86972,2.4472-3.95744,3.49816-4.66049,3.92013-7.20445.14977-.90327.76987-4.64282-1.35006-6.98262-.98333-1.08527-1.60143-.81562-6.04191-3.05411a37.76687,37.76687,0,0,1-3.60177-1.95988c-3.50731-2.23-3.35835-3.24718-5.44779-3.99413-1.88757-.67468-2.05621.13916-5.71546-.32255-3.528-.445-3.78974-1.2545-5.45817-.89637-2.89677.62167-4.464,3.56732-4.88485,4.35883a9.80585,9.80585,0,0,0-1.40087,4.49963,8.84624,8.84624,0,0,0,1.43172,4.56472c.43052.5011,2.48347-2.08594,3.57176-3.03818,1.06707-.93288,2.1766-.44811,3.71918-.24885,1.50407.19429,1.35893,1.12945,3.538,2.10378.77639.34711,4.06085-.86976,4.973.96383.97185,1.95366,1.80955,2.23823,1.17826,3.954-.39444,1.072-.2846,2.42846-.065,5.14161.15741,1.94705-1.85017,8.57792-1.85017,8.57792C448.31952,244.64588,452.0875,244.01684,452.10709,241.03994Z" fill="#1e1d22"/><path d="M441.25974,245.93628a4.30938,4.30938,0,0,1-1.58982,1.28912,4.51811,4.51811,0,0,1-2.06386.47434,4.815,4.815,0,0,1-1.07785-.16883,3.96064,3.96064,0,0,1-.9666-.486,3.76171,3.76171,0,0,1-1.32729-1.57559,10.64878,10.64878,0,0,0,1.68084.92441,4.34516,4.34516,0,0,0,1.71306.35724A9.84573,9.84573,0,0,0,441.25974,245.93628Z" fill="#dd765e"/><path d="M438.04352,241.69039c-1.99968-.20251-2.30847-1.22894-6.0686,3.10514,0,0,3.96762-.95576,11.55416,1.41958C443.52908,246.21511,440.90664,241.98033,438.04352,241.69039Z" fill="#1e1d22"/><path d="M460.182,256.21145s-.24412,9.0326-5.61486,16.23428a9.889,9.889,0,0,0-9.64292-3.29568s13.5768-11.26681,12.97022-12.9386Z" fill="#376f92"/><path d="M443.09332,269.76036c-4.39424-4.39424-8.54436,0-8.54436,0-1.09856-10.00911,1.46475-11.35179,1.46475-11.35179l5.5117-2.19712Z" fill="#376f92"/><path d="M436.01371,258.40857a4.847,4.847,0,0,0-1.15213,2.60742,17.05937,17.05937,0,0,0-.27549,2.886c-.01878.96939-.01418,1.9407.04855,2.91171.049.97168.16618,1.939.23693,2.91113l-.55847-.18744a7.67153,7.67153,0,0,1,2.073-1.41806,5.40943,5.40943,0,0,1,2.44273-.53884,4.88869,4.88869,0,0,1,2.39042.63821,6.6334,6.6334,0,0,1,1.01105.69116c.31093.26038.58031.56778.863.85047-.32719-.238-.63305-.49625-.96039-.71955a6.37912,6.37912,0,0,0-1.04451-.55261,4.75653,4.75653,0,0,0-2.25092-.42719,5.83743,5.83743,0,0,0-2.19595.59461,7.10428,7.10428,0,0,0-1.85658,1.32754l-.48072.48587-.07791-.67337a34.49506,34.49506,0,0,1-.19135-5.92181,17.49139,17.49139,0,0,1,.48673-2.93945,7.697,7.697,0,0,1,.5499-1.39127A2.76018,2.76018,0,0,1,436.01371,258.40857Z" fill="#10394f"/><path d="M460.182,256.21146a25.60618,25.60618,0,0,1-.37257,4.3486,31.04627,31.04627,0,0,1-1.02744,4.25787,28.782,28.782,0,0,1-1.65192,4.06961,23.994,23.994,0,0,1-2.3164,3.74192l-.23551.332-.26032-.33582a8.34782,8.34782,0,0,0-1.88139-1.7298,9.31708,9.31708,0,0,0-2.30069-1.20187,10.66366,10.66366,0,0,0-2.55758-.56259,13.742,13.742,0,0,0-2.654.01864,11.5422,11.5422,0,0,1,2.66878-.27551,9.33242,9.33242,0,0,1,2.67735.4122,9.733,9.733,0,0,1,2.48319,1.13748,8.85955,8.85955,0,0,1,2.06277,1.84141l-.49559-.00379a29.96119,29.96119,0,0,0,3.91187-7.6279A38.31839,38.31839,0,0,0,460.182,256.21146Z" fill="#10394f"/><rect x="338.5808" y="331.19506" width="7.69635" height="122.08188" transform="translate(684.85794 784.472) rotate(-180)" fill="#935b50"/><rect x="323.84591" y="325.29234" width="231.28505" height="5.90272" rx="1.32684" transform="translate(878.97688 656.4874) rotate(-180)" fill="#935b50"/><rect x="532.08578" y="331.19506" width="7.69635" height="122.08188" transform="translate(1071.86791 784.472) rotate(-180)" fill="#935b50"/><path d="M335.18266,331.19506H543.268a2.65369,2.65369,0,0,1,2.65369,2.65369v16.65331a0,0,0,0,1,0,0H332.529a0,0,0,0,1,0,0V333.84874A2.65369,2.65369,0,0,1,335.18266,331.19506Z" transform="translate(878.45064 681.69711) rotate(-180)" fill="#c38f86"/><path d="M367.95851,317.93412h43.23337a0,0,0,0,1,0,0v6.86395a0,0,0,0,1,0,0H367.95851a2.95347,2.95347,0,0,1-2.95347-2.95347v-.957a2.95347,2.95347,0,0,1,2.95347-2.95347Z" fill="#fff"/><path d="M412.54392,324.97376a.6219.6219,0,0,1-.62191.6219H367.05055c-1.71325,0-3.10682-1.88171-3.10682-4.19506,0-2.31279,1.39357-4.1945,3.10682-4.1945H411.922a.62191.62191,0,0,1,.62191.6219v.48952a.6219.6219,0,0,1-.62191.6219H367.05055c-1.00538,0-1.82314,1.1042-1.82314,2.46118,0,1.35754.81776,2.46174,1.82314,2.46174H411.922a.62191.62191,0,0,1,.62191.6219Z" fill="#f65b2b"/><path d="M361.21328,309.54456h43.23337a0,0,0,0,1,0,0v6.86395a0,0,0,0,1,0,0H361.21328a2.95347,2.95347,0,0,1-2.95347-2.95347v-.957A2.95347,2.95347,0,0,1,361.21328,309.54456Z" fill="#fff"/><path d="M405.79869,316.5842a.6219.6219,0,0,1-.62191.6219H360.30532c-1.71324,0-3.10682-1.88171-3.10682-4.19506,0-2.31279,1.39358-4.1945,3.10682-4.1945h44.87146a.62191.62191,0,0,1,.62191.6219v.48952a.6219.6219,0,0,1-.62191.6219H360.30532c-1.00538,0-1.82314,1.1042-1.82314,2.46118,0,1.35754.81776,2.46174,1.82314,2.46174h44.87146a.62191.62191,0,0,1,.62191.6219Z" fill="#ffba55"/><path d="M375.02049,301.155h43.23337a0,0,0,0,1,0,0v6.86395a0,0,0,0,1,0,0H375.02049a2.95347,2.95347,0,0,1-2.95347-2.95347v-.957a2.95347,2.95347,0,0,1,2.95347-2.95347Z" fill="#fff"/><path d="M419.6059,308.19464a.6219.6219,0,0,1-.6219.6219H374.11253c-1.71324,0-3.10682-1.88171-3.10682-4.19506,0-2.31279,1.39358-4.1945,3.10682-4.1945H418.984a.6219.6219,0,0,1,.6219.6219v.48952a.62191.62191,0,0,1-.6219.6219H374.11253c-1.00538,0-1.82314,1.1042-1.82314,2.46118,0,1.35754.81776,2.46174,1.82314,2.46174H418.984a.62191.62191,0,0,1,.6219.6219Z" fill="#f65b2b"/><path d="M579.55469,454.27734H120.44531a1,1,0,1,1,0-2H579.55469a1,1,0,0,1,0,2Z" fill="#935b50"/><path d="M336.52555,163.5391a1.11377,1.11377,0,0,0-.94336-.375H276.40446c-.00928.01514-.01612.0398-.0249.0564a1.51478,1.51478,0,0,0-.33936-.0564h-1.42285a1.92564,1.92564,0,0,1-.31445-.6875,3.34224,3.34224,0,0,1-.09571-.8125,2.08779,2.08779,0,0,1,.86133-1.6875,4.4676,4.4676,0,0,1,2.77734-.6875,15.624,15.624,0,0,1,2.46192.2002,16.66371,16.66371,0,0,1,2.43554.57519,13.57215,13.57215,0,0,1,2.21583.92481,8.6653,8.6653,0,0,1,1.80566,1.25,3.74837,3.74837,0,0,0,.94434-.125,3.367,3.367,0,0,0,.86132-.35059,1.899,1.899,0,0,0,.61524-.5625,1.3083,1.3083,0,0,0,.2334-.76172q0-.4746-.917-1.22558a10.92983,10.92983,0,0,0-2.5166-1.4502,21.54868,21.54868,0,0,0-3.77636-1.19922,21.0127,21.0127,0,0,0-4.71875-.5,13.83084,13.83084,0,0,0-3.47559.38672,7.88761,7.88761,0,0,0-2.46191,1.0625,4.26443,4.26443,0,0,0-1.94239,3.65039,5.35153,5.35153,0,0,0,.10938,1.04981,3.28106,3.28106,0,0,0,.32812.95019H251.97379a2.03536,2.03536,0,0,0-.21972.67481,4.31912,4.31912,0,0,0-.082.75,1.964,1.964,0,0,0,.27441,1.13769,1.08889,1.08889,0,0,0,.957.3877h8.42676v1.25h-2.98242a5.57842,5.57842,0,0,0-3.22852.84961,2.77227,2.77227,0,0,0-1.23047,2.4248,2.94408,2.94408,0,0,0,.38282,1.52539,4.00937,4.00937,0,0,0,.98437,1.125,6.15149,6.15149,0,0,0,1.2998.78711,9.00959,9.00959,0,0,0,1.3545.48828q.54637-.15087,1.19043-.26269a7.183,7.183,0,0,1,1.24414-.11231,4.4087,4.4087,0,0,1,1.68261.23731.763.763,0,0,1,.53418.71191q0,1.15137-2.29882,1.15039a8.04455,8.04455,0,0,1-1.66895-.16211,7.77383,7.77383,0,0,1-1.39453-.42578,7.86016,7.86016,0,0,1-1.14941-.58691q-.52-.3252-.958-.625a2.66005,2.66005,0,0,0-1.10742.6875,1.69279,1.69279,0,0,0-.4795,1.2373,1.866,1.866,0,0,0,.84864,1.59961,6.09407,6.09407,0,0,0,2.2705.90039l1.20411,2.125a4.959,4.959,0,0,0,1.47753,1.77539,3.1827,3.1827,0,0,0,1.77833.5,2.67972,2.67972,0,0,0,1.94238-.6875,2.50517,2.50517,0,0,0,.76562-1.73828q-.71045-.3501-1.43554-.7998a17.00811,17.00811,0,0,1-1.43653-1,13.56649,13.56649,0,0,0,2.57129-.36231,7.06021,7.06021,0,0,0,1.96973-.78711,3.65281,3.65281,0,0,0,1.25879-1.22558,3.27084,3.27084,0,0,0,.4375-1.72461,3.13731,3.13731,0,0,0-1.35352-2.65039,6.87952,6.87952,0,0,0-4.09082-1,10.88452,10.88452,0,0,0-2.708.35058,1.20756,1.20756,0,0,1-.37011-.32519.77415.77415,0,0,1-.15039-.47559.8198.8198,0,0,1,.28808-.64941,1.69657,1.69657,0,0,1,1.08008-.25h4.46q1.50439,0,1.50488-1.25v-2.625h4.17578v11q0,1.125.60157,1.46191a3.78444,3.78444,0,0,0,1.80566.33789,10.719,10.719,0,0,0,1.2041-.07519,5.07412,5.07412,0,0,0,.876-.14942V166.1143h2.46191c.00977-.01612.01758-.043.0271-.06079a1.54742,1.54742,0,0,0,.36451.06079H287.84v2.09961q-.7119-.12452-1.47753-.2002-.76612-.0747-1.42188-.07422a8.09157,8.09157,0,0,0-5.06152,1.39942,5.04239,5.04239,0,0,0-1.80567,4.25,6.665,6.665,0,0,0,.28711,1.91308,6.56,6.56,0,0,0,.80664,1.75,4.58577,4.58577,0,0,0,1.25879,1.28711,2.86687,2.86687,0,0,0,1.6416.5,2.68524,2.68524,0,0,0,1.64161-.45019,2.5382,2.5382,0,0,0,.84765-1.02442,8.6314,8.6314,0,0,1-1.33984-1.73828,3.966,3.966,0,0,1-.54785-2.03711,2.69984,2.69984,0,0,1,.25976-1.25,2.27613,2.27613,0,0,1,.69824-.8125,2.72462,2.72462,0,0,1,1.02539-.4375,6.14567,6.14567,0,0,1,1.27247-.125,7.62463,7.62463,0,0,1,.97168.0625c.31835.042.63378.0957.94335.16211v5.7002a1.56962,1.56962,0,0,0,.60254,1.47558,3.68471,3.68471,0,0,0,1.80567.34961,9.12431,9.12431,0,0,0,1.20312-.08789,5.60284,5.60284,0,0,0,.876-.16211V166.1143h9.43945v1.25h-3.17383a5.18049,5.18049,0,0,0-3.07812.7998,2.66376,2.66376,0,0,0-1.10742,2.29981,3.02988,3.02988,0,0,0,.38281,1.52539,3.47046,3.47046,0,0,0,1.01172,1.125,4.2505,4.2505,0,0,0-1.1211,1.375,3.99766,3.99766,0,0,0-.41015,1.84961,4.60076,4.60076,0,0,0,.54687,2.25,4.93854,4.93854,0,0,0,1.55957,1.70019,7.50527,7.50527,0,0,0,2.43457,1.0625,12.88608,12.88608,0,0,0,3.17383.36231,3.89028,3.89028,0,0,0,2.22949-.5,1.67129,1.67129,0,0,0,.69825-1.4502,3.24824,3.24824,0,0,0-.09571-.75,1.73465,1.73465,0,0,0-.28711-.64941c-.27441.0332-.61132.05859-1.01269.07519s-.72949.02442-.98535.02442a5.52611,5.52611,0,0,1-2.7627-.54981,1.75462,1.75462,0,0,1-.93066-1.59961,1.57445,1.57445,0,0,1,.53418-1.21289,2.69873,2.69873,0,0,1,3.07715-.01269,1.77269,1.77269,0,0,1,.43847,1.25v.20019a1.0373,1.0373,0,0,1-.02734.2002,4.48646,4.48646,0,0,0,1.88769.39941,4.36429,4.36429,0,0,0,.94336-.09961,2.20089,2.20089,0,0,0,.78028-.32519,1.66766,1.66766,0,0,0,.5332-.61231,2.03944,2.03944,0,0,0,.20508-.96289,2.943,2.943,0,0,0-1.58692-2.51172,8.7054,8.7054,0,0,0-4.65039-1.01269c-.27441,0-.543.00879-.80761.02441-.26465.01758-.52442.042-.7793.0752a.89421.89421,0,0,1-.38379-.72461.82039.82039,0,0,1,.28809-.65039,1.70286,1.70286,0,0,1,1.08007-.25h4.37793q1.50439,0,1.50489-1.25V166.1143h3.47363v11q0,1.125.60156,1.46191a3.78448,3.78448,0,0,0,1.80567.33789,10.71911,10.71911,0,0,0,1.2041-.07519,5.074,5.074,0,0,0,.876-.14942V166.1143H321.3a2.82769,2.82769,0,0,1,.42382.8623,3.09715,3.09715,0,0,1,.123.83789,2.30153,2.30153,0,0,1-.13672.79981,1.722,1.722,0,0,1-.4375.66211,2.16817,2.16817,0,0,1-.82031.46289,3.98723,3.98723,0,0,1-1.25879.1748q-.65625,0-1.19043-.0498-.5332-.04981-.86133-.10059a2.71919,2.71919,0,0,0-.49316.7627,2.3099,2.3099,0,0,0-.19141.9375,1.90621,1.90621,0,0,0,.38281,1.21289,1.77659,1.77659,0,0,0,1.25879.58691,11.41666,11.41666,0,0,0,1.06739,2.5752,7.94135,7.94135,0,0,0,1.36816,1.77539,4.86785,4.86785,0,0,0,1.55957,1.02441,4.563,4.563,0,0,0,1.69629.3252,3.21127,3.21127,0,0,0,1.28516-.23731,2.71055,2.71055,0,0,0,.90332-.6123,2.49629,2.49629,0,0,0,.5332-.86231,2.94439,2.94439,0,0,0,.17773-1.01269,9.19053,9.19053,0,0,1-1.21679-.47559,13.27,13.27,0,0,1-1.28614-.6875,9.21072,9.21072,0,0,1-1.21777-.875,6.2719,6.2719,0,0,1-1.01269-1.08691,7.0883,7.0883,0,0,0,2.08007-.65039,6.0913,6.0913,0,0,0,1.96973.76269,9.86985,9.86985,0,0,0,2.02441.23731,9.266,9.266,0,0,0,1.50489-.125v3.77539q0,1.125.60156,1.46191a3.78447,3.78447,0,0,0,1.80566.33789,10.71913,10.71913,0,0,0,1.20411-.07519,5.074,5.074,0,0,0,.876-.14942V166.1143h2.46192a2.22448,2.22448,0,0,0,.23242-.65039,3.76581,3.76581,0,0,0,.0957-.8252A1.788,1.788,0,0,0,336.52555,163.5391Zm-6.99023,6.25a5.1,5.1,0,0,1-1.04.3125,6.09038,6.09038,0,0,1-1.17578.11231,6.28556,6.28556,0,0,1-1.17676-.09961,4.07345,4.07345,0,0,0,.30078-1.52539,4.99706,4.99706,0,0,0-.16406-1.27442,6.87763,6.87763,0,0,0-.4375-1.20019h3.69336Z" fill="#fff"/></svg>