<svg id="Layer_1" data-name="Layer 1" xmlns="http://www.w3.org/2000/svg" viewBox="0 0 700 550"><title>men discussing things in office</title><path d="M418.799,460.00971c14.29622-4.46922,27.12322-9.03521,42.55434-17.70092,15.915-8.93843,86.61308-51.47518,95.80665-125.0941a140.42443,140.42443,0,0,0-5.85925-59.96494c-2.84165-8.33139-8.73609-25.06457-23.613-41.613-18.21118-20.26983-38.99128-28.12616-51.17606-32.569a147.6632,147.6632,0,0,0-57.37842-8.52495c-11.04988.36071-30.55432,1.1701-52.72445,10.85633-14.46337,6.31673-23.4546,13.522-36.70389,24.29038-20.99125,17.07628-23.75372,24.1848-60.4752,59.44587-10.08213,9.67744-18.36954,17.305-31.02059,24.81823-8.77128,5.20822-15.86221,8.12025-28.94435,13.43405-32.15549,13.06454-41.31085,15.70979-51.83287,23.06465-20.46338,14.31381-19.138,29.92373-20.01772,33.28444A66.09423,66.09423,0,0,0,135.857,390.1034c2.6833,17.65693,12.19358,29.19948,18.09682,36.18483a99.50018,99.50018,0,0,0,28.94434,23.26105,184.9686,184.9686,0,0,0,23.71852,10.46043Z" fill="#d5efc8"/><path d="M365.07791,179.541c23.09073-10.08237,43.40388-10.933,54.921-11.30728a153.88787,153.88787,0,0,1,59.767,8.88429c12.69142,4.62892,34.33432,12.81231,53.30571,33.9218,15.49083,17.23668,21.63071,34.66872,24.58882,43.34452a146.31908,146.31908,0,0,1,6.10232,62.45921c-9.571,76.68718-83.21446,120.99029-99.79113,130.30277" fill="none" stroke="#d5efc8" stroke-miterlimit="10" stroke-width="0.87977"/><rect x="243.62542" y="289.16189" width="36.6599" height="16.19402" transform="translate(523.91074 594.5178) rotate(-180)" fill="#b6d1a6"/><rect x="222.35022" y="267.91658" width="36.6599" height="16.19402" transform="translate(481.36034 552.02718) rotate(-180)" fill="#b6d1a6"/><rect x="200.23479" y="289.16189" width="36.6599" height="16.19402" transform="translate(437.12948 594.5178) rotate(-180)" fill="#b6d1a6"/><rect x="229.93206" y="310.4072" width="36.6599" height="16.19402" transform="translate(496.52402 637.00842) rotate(-180)" fill="#b6d1a6"/><rect x="188.17206" y="310.4072" width="36.6599" height="16.19402" transform="translate(413.00402 637.00842) rotate(-180)" fill="#b6d1a6"/><rect x="517.69634" y="366.00816" width="36.6599" height="16.19402" transform="translate(1072.05258 748.21033) rotate(-180)" fill="#b6d1a6"/><rect x="496.42114" y="344.76285" width="36.6599" height="16.19402" transform="translate(1029.50218 705.71972) rotate(-180)" fill="#b6d1a6"/><rect x="474.30571" y="366.00816" width="36.6599" height="16.19402" transform="translate(985.27132 748.21033) rotate(-180)" fill="#b6d1a6"/><rect x="504.00298" y="387.25347" width="36.6599" height="16.19402" transform="translate(1044.66586 790.70095) rotate(-180)" fill="#b6d1a6"/><rect x="462.24298" y="387.25347" width="36.6599" height="16.19402" transform="translate(961.14586 790.70095) rotate(-180)" fill="#b6d1a6"/><rect x="440.01913" y="211.93374" width="36.6599" height="16.19402" transform="translate(916.69816 440.06149) rotate(-180)" fill="#b6d1a6"/><rect x="418.74393" y="190.68843" width="36.6599" height="16.19402" transform="translate(874.14776 397.57088) rotate(-180)" fill="#b6d1a6"/><rect x="396.6285" y="211.93374" width="36.6599" height="16.19402" transform="translate(829.9169 440.06149) rotate(-180)" fill="#b6d1a6"/><rect x="426.32577" y="233.17904" width="36.6599" height="16.19402" transform="translate(889.31144 482.55211) rotate(-180)" fill="#b6d1a6"/><rect x="384.56577" y="233.17904" width="36.6599" height="16.19402" transform="translate(805.79144 482.55211) rotate(-180)" fill="#b6d1a6"/><rect x="199.74591" y="147.20309" width="138.75704" height="105.30668" rx="6.30922" fill="#e5e1e5"/><rect x="199.74609" y="159.71828" width="138.75684" height="0.57422" fill="#a2aee6"/><path d="M207.59229,156.80458c3.32156,0,3.32706-5.16209,0-5.16209-3.32156,0-3.32706,5.16209,0,5.16209Z" fill="#ffba55"/><path d="M216.19578,156.80458c3.32156,0,3.32706-5.16209,0-5.16209-3.32156,0-3.32706,5.16209,0,5.16209Z" fill="#f73c4f"/><path d="M224.2257,156.80458c3.32156,0,3.32706-5.16209,0-5.16209-3.32156,0-3.32706,5.16209,0,5.16209Z" fill="#4f66d0"/><rect x="207.59229" y="168.67739" width="121.82538" height="28.49475" fill="#a2aee6"/><rect x="207.59229" y="206.95754" width="53.27295" height="0.57422" fill="#a2aee6"/><rect x="207.59229" y="215.63039" width="53.27295" height="0.57422" fill="#a2aee6"/><rect x="207.59229" y="224.30227" width="53.27295" height="0.57422" fill="#a2aee6"/><rect x="207.59229" y="233.20363" width="53.27295" height="0.57422" fill="#a2aee6"/><rect x="207.59229" y="241.87551" width="53.27295" height="0.57422" fill="#a2aee6"/><rect x="276.88107" y="204.60555" width="52.5366" height="35.51226" fill="#a2aee6"/><rect x="390.32706" y="93.82218" width="170.12879" height="129.1156" rx="7.73568" fill="#e5e1e5"/><rect x="390.32715" y="109.1675" width="170.12891" height="0.70313" fill="#a2aee6"/><path d="M399.94744,105.59448c4.07254,0,4.07928-6.3292,0-6.3292-4.07253,0-4.07928,6.3292,0,6.3292Z" fill="#ffba55"/><path d="M410.4961,105.59448c4.07254,0,4.07928-6.3292,0-6.3292-4.07253,0-4.07928,6.3292,0,6.3292Z" fill="#f73c4f"/><path d="M420.34152,105.59448c4.07254,0,4.07928-6.3292,0-6.3292-4.07254,0-4.07928,6.3292,0,6.3292Z" fill="#4f66d0"/><rect x="399.94727" y="167.08742" width="65.31738" height="0.70313" fill="#a2aee6"/><rect x="399.94727" y="177.72023" width="65.31738" height="0.70313" fill="#a2aee6"/><rect x="399.94727" y="188.35305" width="65.31738" height="0.70313" fill="#a2aee6"/><rect x="399.94727" y="199.26711" width="65.31738" height="0.70313" fill="#a2aee6"/><rect x="399.94727" y="209.89992" width="65.31738" height="0.70313" fill="#a2aee6"/><rect x="484.90181" y="164.20284" width="64.41466" height="43.54127" fill="#a2aee6"/><rect x="398.79925" y="122.14548" width="31.82315" height="31.82315" fill="#a2aee6"/><rect x="439.16947" y="122.14548" width="31.82315" height="31.82315" fill="#a2aee6"/><rect x="480.50297" y="122.14548" width="31.82315" height="31.82315" fill="#a2aee6"/><rect x="520.23326" y="122.14548" width="31.82315" height="31.82315" fill="#a2aee6"/><path d="M317.87976,229.75339s3.58209-2.4238,5.88-11.6821,3.11943-16.78926.05253-10.80473l-2.26156,4.5991s-1.424-7.53622-1.87918-12.10011a5.67951,5.67951,0,0,0-4.46022-5.07719c-2.23915-.43276-3.7665.5729-4.261,5.918-.73965,7.99435-.90261,12.23851-.50756,14.26585.13687.70235,2.23107,8.17961,2.23107,8.17961Z" fill="#f9977a"/><path d="M322.046,216.48391a7.14378,7.14378,0,0,1-.30883-1.14014,11.53031,11.53031,0,0,1-.17311-1.146c-.03281-.38379-.06632-.76709-.0631-1.155a8.68933,8.68933,0,0,1,.04976-1.177,5.07757,5.07757,0,0,1,.39619,1.11988,8.08038,8.08038,0,0,1,.19835,1.15356,8.5545,8.5545,0,0,1,.03794,1.16772A5.88785,5.88785,0,0,1,322.046,216.48391Z" fill="#dd765e"/><path d="M317.95105,207.398a24.24843,24.24843,0,0,1-.49254-2.82642c-.1244-.94848-.18819-1.90307-.22319-2.85937a24.282,24.282,0,0,1,.06668-2.873,13.17434,13.17434,0,0,1,.50557-2.8313c-.09994,1.91089-.04959,3.79.01161,5.686l.08562,2.844C317.93033,205.48806,317.95929,206.43874,317.95105,207.398Z" fill="#dd765e"/><path d="M315.14348,207.05471a23.32761,23.32761,0,0,1-.67911-3.06909,26.46315,26.46315,0,0,1-.31892-3.13208,17.72018,17.72018,0,0,1,.123-3.158,7.41755,7.41755,0,0,1,.94287-3.00733,10.74581,10.74581,0,0,0-.49517,3.04859c-.038,1.02832-.04155,2.06.013,3.09326C314.80539,202.89821,315.00084,204.9634,315.14348,207.05471Z" fill="#dd765e"/><path d="M312.60931,206.10891a16.994,16.994,0,0,1-.60971-2.55811,22.50876,22.50876,0,0,1-.28566-2.61572,19.49037,19.49037,0,0,1,.05031-2.63574,12.84152,12.84152,0,0,1,.4892-2.58887c-.02117.87964-.05046,1.74219-.04,2.60718.02446.8645.0346,1.72631.08392,2.58935l.14674,2.592Z" fill="#dd765e"/><path d="M302.30845,434.56066,298.69256,453.373s11.71064,4.49167,18.66744-7.00229l1.659-10.44Z" fill="#f9977a"/><path d="M300.63885,443.41464s-8.535,10.66109-3.80437,16.94479a2.62937,2.62937,0,0,0,2.11616,1.03337l42.31409-.22972a1.37951,1.37951,0,0,0,1.35844-1.54177c-.24285-2.19206-1.26614-6.15636-5.40542-7.97679-5.88538-2.58836-10.06074,2.07568-19.87478-6.36485C317.343,445.27967,304.62181,448.93544,300.63885,443.41464Z" fill="#935b50"/><path d="M353.93262,433.90264l2.579,20.91358s10.954,1.95761,15.88839-10.53876L369.734,433.48852Z" fill="#f9977a"/><path d="M354.97728,443.41464s-8.535,10.66109-3.80437,16.94479a2.62935,2.62935,0,0,0,2.11616,1.03337l42.31408-.22972a1.3795,1.3795,0,0,0,1.35844-1.54177c-.24284-2.19206-1.26614-6.15636-5.40542-7.97679-5.88538-2.58836-9.34207,1.07348-19.15611-7.36706C372.40006,444.27746,358.96024,448.93544,354.97728,443.41464Z" fill="#935b50"/><path d="M317.51253,222.52247,311.6453,221.189l-7.791,27.92758c-2.57907,9.245,9.38633,15.357,15.37585,7.85724,2.38224-2.98291,4.0572-5.486,4.41625-6.98207l1.33346,15.73483-3.467,24.269h50.40481V240.12415l11.95986,15.71867c5.64182,6.68347,16.04281,6.68347,21.11-5.051l8.00077-17.60167-11.20107-6.934-8.00076,12.80122-16.19287-24.48207a20.93934,20.93934,0,0,0-17.46477-9.38783H335.71507a13.17778,13.17778,0,0,0-11.14575,6.1474Z" fill="#f73c4f"/><path d="M305.54218,243.06643c.86552-1.78907,1.8012-3.53711,2.74754-5.27881.939-1.7461,1.9283-3.46289,2.91778-5.17969,1.00472-1.70776,2.01073-3.4148,3.06626-5.093,1.04912-1.68188,2.10823-3.35791,3.23877-4.99243-.8645,1.78955-1.80046,3.53735-2.7464,5.2793-.93953,1.74585-1.92858,3.46289-2.91893,5.17895-1.00557,1.70728-2.01134,3.41455-3.06737,5.09253C307.73109,239.75539,306.67172,241.43117,305.54218,243.06643Z" fill="#b02336"/><path d="M323.64645,249.99172c-.15278-2.28906-.22436-4.57813-.28363-6.86719-.061-2.28931-.05539-4.57837-.08635-6.86743.029-2.28906.026-4.57813.08506-6.86719.05969-2.2893.131-4.57837.28492-6.86743.154,2.28906.22522,4.57813.28492,6.86743.059,2.28906.05606,4.57813.085,6.86719-.031,2.28906-.02535,4.57812-.08635,6.86743C323.8708,245.41359,323.79922,247.70266,323.64645,249.99172Z" fill="#b02336"/><path d="M371.91772,240.124c-1.59568-2.36718-3.1244-4.77466-4.64125-7.18945-1.522-2.41138-2.98144-4.8606-4.47523-7.28906l-.01813-.0293-.00989-.02808a20.46992,20.46992,0,0,1-.98-4.36254,17.543,17.543,0,0,1,.01479-4.45923,13.244,13.244,0,0,1,1.375-4.23438,11.36044,11.36044,0,0,1,2.86746-3.34424,12.12029,12.12029,0,0,0-2.53987,3.51123,12.81719,12.81719,0,0,0-1.13165,4.13843,19.67069,19.67069,0,0,0,.086,4.30445,20.76192,20.76192,0,0,0,.99551,4.18188l-.02785-.05688c1.43981,2.46069,2.91394,4.90112,4.32555,7.3789C369.17494,235.12038,370.5798,237.60207,371.91772,240.124Z" fill="#b02336"/><path d="M326.84676,282.5281c1.52829.53393,3.074,1.00244,4.64267,1.38134.77922.20606,1.56893.37183,2.35177.55957l2.37235.45533a57.4765,57.4765,0,0,0,9.59375.88061c1.60687.06885,3.20964-.04565,4.81483-.11621.79941-.0708,1.59551-.17993,2.39389-.26782l1.19644-.14356,1.18582-.21264c.78943-.1482,1.58643-.26929,2.37226-.4397l2.33456-.6167c.38913-.10376.787-.18286,1.17-.30737l1.1431-.39453,2.29884-.77832a40.07722,40.07722,0,0,1-9.21223,3.09643l-1.19275.26563c-.40134.06665-.80649.10937-1.20966.16528-.80774.10059-1.614.22217-2.42381.30518-1.62526.09423-3.251.23413-4.8808.18408a52.36911,52.36911,0,0,1-9.691-1.06324A44.68857,44.68857,0,0,1,326.84676,282.5281Z" fill="#b02336"/><path d="M400.45378,243.06643a16.199,16.199,0,0,0-2.77257-3.68726,3.38751,3.38751,0,0,0-1.87339-.93091,2.35074,2.35074,0,0,0-1.75364.85352l-.02094-.51a9.55783,9.55783,0,0,1,1.73358,2.499,13.61956,13.61956,0,0,1,1.01991,2.814,17.16158,17.16158,0,0,1,.37931,2.94677,16.96184,16.96184,0,0,1-.17926,2.94019l-.05861-1.46265c-.05174-.48437-.07456-.96826-.14946-1.446a16.66413,16.66413,0,0,0-.5863-2.81983,15.61236,15.61236,0,0,0-1.06482-2.64526,10.2795,10.2795,0,0,0-1.58773-2.29492l-.25628-.2688.23534-.24146a2.922,2.922,0,0,1,2.34249-1.0271,3.66743,3.66743,0,0,1,2.1821,1.21753A12.16231,12.16231,0,0,1,400.45378,243.06643Z" fill="#b02336"/><path d="M323.37976,289.99558l-23.079,146.85176a2,2,0,0,0,1.786,2.29418l15.5637,1.49241a2,2,0,0,0,2.15207-1.59864l25.446-124.77073,7.40353,123.465a2,2,0,0,0,1.99641,1.88029h16.87806a2,2,0,0,0,1.9996-2.03987l-2.94185-147.57441Z" fill="#376f92"/><path d="M318.04591,365.7361a25.0385,25.0385,0,0,0,3.469.60938,18.63763,18.63763,0,0,0,3.49188.06348,12.85248,12.85248,0,0,0,3.38872-.73584,10.76088,10.76088,0,0,0,2.985-1.80372,8.603,8.603,0,0,1-2.86186,2.10157,11.97349,11.97349,0,0,1-3.47781.855A16.25411,16.25411,0,0,1,318.04591,365.7361Z" fill="#10394f"/><path d="M316.17908,372.40334c1.35344-.04077,2.7001-.15283,4.03959-.29053a33.91079,33.91079,0,0,0,3.98206-.62622,18.98561,18.98561,0,0,0,3.83685-1.16308,10.06038,10.06038,0,0,0,3.34294-2.18726,8.68928,8.68928,0,0,1-3.20962,2.48071,17.32,17.32,0,0,1-3.88265,1.27881,29.27168,29.27168,0,0,1-8.10917.50757Z" fill="#10394f"/><path d="M352.98257,366.66677a25.84554,25.84554,0,0,0,3.00385.31323,20.38579,20.38579,0,0,0,2.99693-.06738,14.9976,14.9976,0,0,0,5.73369-1.64453,10.10009,10.10009,0,0,1-2.69711,1.42041,13.24869,13.24869,0,0,1-2.99787.64111A15.301,15.301,0,0,1,352.98257,366.66677Z" fill="#10394f"/><path d="M352.98257,372.41506a21.52548,21.52548,0,0,0,3.50524.67724,26.14074,26.14074,0,0,0,3.55227.18116,27.89261,27.89261,0,0,0,3.5505-.24927c1.18286-.13477,2.349-.37842,3.52668-.60913a21.34958,21.34958,0,0,1-3.478.928,23.1996,23.1996,0,0,1-3.59465.34912,21.98925,21.98925,0,0,1-3.60227-.28223A14.20967,14.20967,0,0,1,352.98257,372.41506Z" fill="#10394f"/><path d="M339.648,309.99758c1.37434,1.07641,2.80754,2.07007,4.258,3.02881a48.54979,48.54979,0,0,0,4.48524,2.6499,33.00431,33.00431,0,0,0,4.76168,2.07812,20.54337,20.54337,0,0,0,5.089,1.04395,16.98231,16.98231,0,0,1-5.18667-.73657,29.73144,29.73144,0,0,1-4.85805-2.01465,41.45361,41.45361,0,0,1-4.47185-2.75537A38.50169,38.50169,0,0,1,339.648,309.99758Z" fill="#10394f"/><path d="M329.78036,318.79836c1.9956-.32153,3.986-.6023,5.94184-1.0437a24.72667,24.72667,0,0,0,2.89453-.77246,7.28582,7.28582,0,0,0,2.63139-1.38428,5.96327,5.96327,0,0,1-2.518,1.686,19.71579,19.71579,0,0,1-2.919.87988A29.07874,29.07874,0,0,1,329.78036,318.79836Z" fill="#10394f"/><path d="M348.945,317.19826a6.04029,6.04029,0,0,0,1.59439,3.26,12.561,12.561,0,0,0,2.80429,2.36328c.50689.34766,1.05386.63843,1.58626.949.55661.26855,1.10537.55395,1.66842.812,1.12757.51782,2.29033.9519,3.45162,1.4165-.60524-.15063-1.20418-.32788-1.80876-.4917-.59762-.18383-1.17806-.41992-1.76961-.62817-.58977-.21436-1.14391-.51514-1.71761-.77-.54884-.30542-1.11264-.5896-1.639-.937a11.85065,11.85065,0,0,1-2.82388-2.5105A5.4803,5.4803,0,0,1,348.945,317.19826Z" fill="#10394f"/><path d="M403.19808,227.12954l5.87874-15.00806,9.26926-12.359a1.43258,1.43258,0,0,1,2.0129-.281h0a1.43258,1.43258,0,0,1,.32332,1.938l-5.20487,7.76845s7.23237-5.10071,7.74769,3.79021a2.48684,2.48684,0,0,1-2.0069,2.58552,7.41229,7.41229,0,0,0-2.45158.91386s.889,8.44525-4.62267,8.71194l-2.30943,7.28653Z" fill="#f9977a"/><path d="M407.73679,215.5425s.84519-6.1289.27167-7.69534a1.7438,1.7438,0,0,1,.08449-1.30179c.60205-1.34865,1.8586-3.02889,2.91472,3.00164l-1.93085,2.57447Z" fill="#f9977a"/><path d="M339.16968,205.62114l-.66673-35.33671h26.26918v21.00323a8.33535,8.33535,0,0,1-8.33535,8.33535h-.59884l.13335,5.99813Z" fill="#f9977a"/><polygon points="355.838 199.623 351.638 199.623 355.971 205.621 355.838 199.623" fill="#dd765e"/><path d="M339.05651,199.623s13.18109,2.13109,17.44816-13.2037c0,0-5.86723-3.20031,0-6.80065,0,0,3.20031-.66673,3.33365,1.33346l4.93381-10.66769s5.06715,1.20012,4.80045-4.80045c0,0,5.2005-3.067-1.20011-5.73388,0,0,.26669-7.46738-6.80065-2.00019,0,0-4.80046-11.06773-17.06829,4.66711,0,0-20.00191,1.7335-10.53434,18.40175Z" fill="#1e1d22"/><path d="M212.26611,433.62967l-1.67378,8.87617s8.25846,14.28369,15.2327,2.76093l.075-12.516Z" fill="#f9977a"/><path d="M210.59233,442.50584s-2.78027,18.02771-1.95117,18.02321l42.67887-.2303a1.38295,1.38295,0,0,0,1.36184-1.54562c-.24345-2.19756-16.94946-5.89238-26.7881-14.35407C225.89377,444.39906,214.58528,448.04047,210.59233,442.50584Z" fill="#935b50"/><path d="M172.14473,433.62967l-4.67029,19.29885s11.255,3.861,18.2292-7.66175l2.95848-11.14761Z" fill="#f9977a"/><path d="M205.81829,164.40887a17.9,17.9,0,0,1,8.39.16059c1.28808.36256,5.99914,1.6885,8.53211,5.89706.962,1.59831,1.28689,3.57636,1.93706,7.53244.40607,2.471,1.48231,4.18862,1.68247,7.22206a25.6832,25.6832,0,0,1-.71608,7.31786c-.87167,3.74107-.015,5.77666-.52566,6.49907-2.058,2.91151-9.00741,1.1963-8.87,4.8079.08483,2.23007,5.1703,9.67565,5.19929,12.29.03758,3.3892-9.64107,3.44345-12.96915,1.9694-.45368-.20094-8.75338-7.40619-8.58077-11.37188.09226-2.11854.68952-15.55964.43347-16.82149-.92587-4.5608-3.28217-4.9679-5.48014-10.40931a8.672,8.672,0,0,1,.87564-8.43763A17.71372,17.71372,0,0,1,205.81829,164.40887Z" fill="#f9977a"/><ellipse cx="223.97992" cy="181.9657" rx="0.9365" ry="1.16457" transform="matrix(0.9978, -0.06632, 0.06632, 0.9978, -11.57453, 15.25451)" fill="#0a0709"/><ellipse cx="215.55465" cy="182.52568" rx="0.9365" ry="1.16457" transform="translate(-11.63021 14.69699) rotate(-3.80254)" fill="#0a0709"/><path d="M219.35742,180.18117a.591.591,0,0,1-.35449-1.06445,6.285,6.285,0,0,1,6.99512-.43945.59088.59088,0,0,1-.64649.98925h0a5.004,5.004,0,0,0-5.64062.39746A.59057.59057,0,0,1,219.35742,180.18117Z" fill="#1e1d22"/><path d="M210.626,180.76223a.591.591,0,0,1-.3545-1.06446,6.27966,6.27966,0,0,1,6.99463-.44043.59088.59088,0,0,1-.64648.98926h0a5.00185,5.00185,0,0,0-5.64014.39844A.58955.58955,0,0,1,210.626,180.76223Z" fill="#1e1d22"/><path d="M218.61047,180.47414a6.02685,6.02685,0,0,0,.908,2.67041,14.76981,14.76981,0,0,0,1.64255,2.29321l.50531.53052a1.436,1.436,0,0,1,.43024.957,2.09749,2.09749,0,0,1-.8342,1.59693,3.2153,3.2153,0,0,1-3.04736.38794,3.86789,3.86789,0,0,0,2.51373-.95728,1.4188,1.4188,0,0,0,.42239-.9751c-.02618-.146-.03726-.16992-.19476-.33813l-.52765-.52173a7.48146,7.48146,0,0,1-.92636-1.2627c-.24692-.45825-.46933-.876-.67288-1.35058A4.24825,4.24825,0,0,1,218.61047,180.47414Z" fill="#dd765e"/><path d="M203.32542,181.885a5.74713,5.74713,0,0,0-.79017.62036,8.71622,8.71622,0,0,0-.64813.67359c-.42139.46582-.79269.98242-1.31778,1.50976a2.73025,2.73025,0,0,1,.18881-1.071,3.17887,3.17887,0,0,1,.56849-.93628,2.71965,2.71965,0,0,1,.89541-.66773A1.65757,1.65757,0,0,1,203.32542,181.885Z" fill="#dd765e"/><path d="M202.88834,186.781a18.363,18.363,0,0,0-.34057-2.116,19.18294,19.18294,0,0,0-.64444-2.04077,2.47757,2.47757,0,0,1,.88351.78174,3.03274,3.03274,0,0,1,.49094,1.08911A2.81168,2.81168,0,0,1,202.88834,186.781Z" fill="#dd765e"/><path d="M208.89227,190.73187s-1.99205-6.57958-1.83586-8.51157c.21792-2.69217.32691-4.03817-.06448-5.10184-.62642-1.70256.2048-1.98492,1.16914-3.92347.90507-1.81941,4.16413-.61195,4.93451-.95637,2.16218-.9668,2.01816-1.89472,3.5106-2.08751,1.53065-.19773,2.6316-.67874,3.69041.24692,1.07988.94488,3.11694,3.51191,3.54413,3.01468a8.77762,8.77762,0,0,0,1.42065-4.52941,9.72985,9.72985,0,0,0-1.39-4.46482c-.41762-.78539-1.9727-3.70826-4.84706-4.32512-1.65552-.35537-1.91524.44783-5.416.88943-3.63094.45814-3.79828-.3494-5.67125.32006-2.07328.74117-1.92546,1.75053-5.40564,3.96324a37.47938,37.47938,0,0,1-3.57392,1.94472c-4.40613,2.22117-5.01945,1.95361-5.99518,3.03049-2.10353,2.3217-1.48823,6.03232-1.33962,6.92861.41871,2.52428,1.46154,3.22189,3.88981,7.14872,3.84507,6.21872,3.3395,8.97281,4.65176,9.79338.64375.40254,3.73158-2.11678,3.64111-3.251-.11841-1.48689-1.22185-1.88523-2.62758-3.95228-.98184-1.44466-2.39211-3.51872-1.793-5.52365.36263-1.212.87642-.92118,2.10936-.889,1.67334.04366,2.64546,2.30594,3.42531,3.96186a9.12092,9.12092,0,0,1,.8653,3.82923C205.80419,191.241,209.543,191.86517,208.89227,190.73187Z" fill="#1e1d22"/><path d="M216.54819,193.14553a10.167,10.167,0,0,0,3.60278.77954,4.3545,4.3545,0,0,0,1.68973-.34546,11.119,11.119,0,0,0,1.67859-.89746,3.67161,3.67161,0,0,1-1.30628,1.58325,3.9103,3.9103,0,0,1-.96283.489,4.79358,4.79358,0,0,1-1.07589.16993,4.45547,4.45547,0,0,1-2.05643-.47852A4.19668,4.19668,0,0,1,216.54819,193.14553Z" fill="#dd765e"/><path d="M219.73954,188.93253c1.98421-.20094,2.29062-1.21942,6.02167,3.08113,0,0-3.93694-.94837-11.4648,1.4086C214.29641,193.42226,216.89857,189.22024,219.73954,188.93253Z" fill="#1e1d22"/><path d="M243.32278,242.07274l-5.762-21.40093a17.29175,17.29175,0,0,0-7.75889-10.43243,11.0324,11.0324,0,0,0-2.68347-1.197l-10.09056-2.69685s10.09132,25.16277-17.13028.38778c0,0-8.35859-.33272-16.379,6.85079a11.1912,11.1912,0,0,0-3.24709,5.06623l-6.58389,21.60477,16.28472,2.7711s-7.69692,51.4244-7.76085,51.70714l54.56313-1.23517-4.32126-50.68458Z" fill="#f73c4f"/><path d="M194.57523,223.99294a17.35757,17.35757,0,0,0-.21695-2.35962,13.2557,13.2557,0,0,0-.514-2.27954,8.14887,8.14887,0,0,0-2.3624-3.82056,7.04256,7.04256,0,0,0-4.17309-1.53955,17.942,17.942,0,0,0-4.67627.418,12.65663,12.65663,0,0,1,4.69491-.989,6.97448,6.97448,0,0,1,4.63367,1.54394,7.84787,7.84787,0,0,1,2.43121,4.23535A12.45826,12.45826,0,0,1,194.57523,223.99294Z" fill="#b02336"/><path d="M223.34177,208.033a1.60263,1.60263,0,0,1,1.07129.38989c.14794.12573.30358.24658.44543.38037l.38406.43946a11.1929,11.1929,0,0,1,1.2594,1.95532,30.09851,30.09851,0,0,1,1.74637,4.29687c.46842,1.47022.89069,2.95923,1.22113,4.46363l.51651,2.25415.4386,2.26831c.292,1.51318.49674,3.03857.72141,4.56079.23266,1.52148.43319,3.04638.57815,4.57812.35983,3.05469.55441,6.12549.72919,9.19385-.24173-1.51978-.43555-3.043-.6547-4.563-.18-1.52441-.413-3.0415-.64117-4.55859-.42926-3.03687-.883-6.07056-1.46249-9.07739a88.38232,88.38232,0,0,0-1.99021-8.95289,30.39639,30.39639,0,0,0-1.52749-4.30395,10.93877,10.93877,0,0,0-1.08912-1.99487l-.34219-.45435c-.12689-.13892-.26846-.26343-.40207-.39844A1.55252,1.55252,0,0,0,223.34177,208.033Z" fill="#b02336"/><path d="M189.97229,243.02614a51.60133,51.60133,0,0,1,1.381-6.42822,50.99762,50.99762,0,0,1,2.09671-6.23169,50.99789,50.99789,0,0,1-1.381,6.42822A51.58247,51.58247,0,0,1,189.97229,243.02614Z" fill="#b02336"/><path d="M234.65548,293.54618l-4.632,142.062a3.6057,3.6057,0,0,1-3.52217,3.48726l-15.06561.341a3.60568,3.60568,0,0,1-3.68706-3.64562l1.44027-127.06822L189.17755,436.72247a3.67857,3.67857,0,0,1-3.77112,3.10782l-12.9401-.48124a3.67856,3.67856,0,0,1-3.51894-4.08592l15.7638-140.58634Z" fill="#8b9d36"/><path d="M226.12842,293.73928c.24869,1.824.54388,3.62988.86444,5.42456.33346,1.79223.70618,3.57324,1.20474,5.3125a23.13484,23.13484,0,0,0,1.9693,5.00683,7.15631,7.15631,0,0,0,3.85272,3.56446,5.22859,5.22859,0,0,1-2.555-1.09888,8.86062,8.86062,0,0,1-1.88248-2.10571,18.629,18.629,0,0,1-2.23043-5.12671,36.07873,36.07873,0,0,1-1.2233-10.97705Z" fill="#5e7c24"/><path d="M192.32465,294.50441a23.776,23.776,0,0,1-.20432,5.40113,22.09784,22.09784,0,0,1-1.41659,5.2605,13.15693,13.15693,0,0,1-3.04755,4.5642,9.12749,9.12749,0,0,1-2.27155,1.5647,8.94867,8.94867,0,0,1-2.61844.72778,9.93872,9.93872,0,0,0,4.40427-2.77758,14.86826,14.86826,0,0,0,2.72244-4.41919,29.61006,29.61006,0,0,0,1.55487-5.04444A51.80737,51.80737,0,0,0,192.32465,294.50441Z" fill="#5e7c24"/><polygon points="220.951 293.856 221.272 312.023 221.501 330.191 221.817 366.526 221.929 402.864 221.913 421.032 221.804 439.202 221.482 421.035 221.252 402.867 220.938 366.532 220.828 330.195 220.844 312.026 220.951 293.856" fill="#5e7c24"/><polygon points="197.806 294.38 195.536 312.636 193.176 330.879 188.314 367.347 183.25 403.787 180.646 421.997 177.95 440.195 180.219 421.939 182.579 403.695 187.443 367.228 192.509 330.788 195.112 312.578 197.806 294.38" fill="#5e7c24"/><path d="M202.97119,250.7798a6.35424,6.35424,0,0,1-6.34326-6.20312l-.2583-11.41992,12.689-.28711.25879,11.41992a6.3537,6.3537,0,0,1-6.20068,6.48828C203.06787,250.77883,203.01953,250.7798,202.97119,250.7798Zm-5.95312-17.0039.24463,10.78711a5.73282,5.73282,0,0,0,5.83886,5.58008,5.71131,5.71131,0,0,0,5.58106-5.83985l-.24414-10.78515Z" fill="#b02336"/><polygon points="232.611 249.793 235.158 236.087 202.8 236.82 197.923 273.747 229.012 273.044 232.611 249.793" fill="#49151d"/><path d="M240.737,242.249l1.94585,12.01678a19.90293,19.90293,0,0,1-5.23217,17.09205l-.42626.446a3.61257,3.61257,0,0,1-2.5299,1.11565l-5.483.12412s-15.44235-9.17213-.24416-10.78573l4.36938-3.27281L232.452,242.622Z" fill="#f9977a"/><polygon points="232.611 249.793 235.158 236.087 202.8 236.82 197.923 273.747 218.926 262.163 232.611 249.793" fill="#49151d"/><path d="M175.06843,240.49012,172.68,261.57073c-1.28464,6.34919,1.95735,12.88232,8.28,11.47286l33.17532-5.59222,9.4517,1.13219,4.78818-2.6222,1.05672-8.82158s-1.51294-3.377-7.965-2.87158l-8.64434,2.79944-26.49472,2.36869,3.64445-16.41009Z" fill="#f9977a"/><path d="M217.53025,201.86229l-.00079-.01148s-4.56946,1.57007-8.52942,0c0,0,3.94976,7.188,9.03985,7.53394l-.08838-1.30445a14.29635,14.29635,0,0,1-1.7033-4.23437A1.99054,1.99054,0,0,1,217.53025,201.86229Z" fill="#dd765e"/><path d="M186.38474,442.50584s2.52154,18.02771,1.69244,18.02321l-42.42014-.2303a1.38295,1.38295,0,0,1-1.36184-1.54562c.24345-2.19756,15.50492-5.91591,25.34356-14.37759C169.63876,444.37554,182.3918,448.04047,186.38474,442.50584Z" fill="#935b50"/><path d="M223.587,268.58352a3.78215,3.78215,0,0,1-1.37192-2.42237l-.03623-.38061.0477-.38721a2.61441,2.61441,0,0,1,.22449-.75317,3.39329,3.39329,0,0,1,.97226-1.18018,2.8181,2.8181,0,0,1,.61957-.397,4.13779,4.13779,0,0,1,.64663-.31812,7.63413,7.63413,0,0,1,1.34888-.37451,9.57749,9.57749,0,0,1,2.729-.11255c-.85746.33643-1.70951.5542-2.51975.86426a8.07219,8.07219,0,0,0-2.20383,1.12134,2.41776,2.41776,0,0,0-1.05215,1.8833A5.56221,5.56221,0,0,0,223.587,268.58352Z" fill="#dd765e"/><path d="M485.7943,160.43722a18.12194,18.12194,0,0,0-8.494.16259c-1.30405.36705-6.07352,1.70943-8.6379,5.97017-.974,1.61812-1.30284,3.6207-1.96107,7.62583-.41111,2.50168-1.5007,4.24055-1.70333,7.3116a26.00137,26.00137,0,0,0,.725,7.40859c.88248,3.78746.01517,5.84828.53217,6.57965,2.08356,2.9476,8.41668,1.50236,8.2776,5.15875-.08589,2.25772-4.532,9.50437-4.56134,12.15111-.038,3.43122,7.91981,4.82727,15.08233,1.69844,4.13088-1.8045,8.5502-8.25817,8.37546-12.273-.09341-2.14481-2.33877-14.697-2.07954-15.97452.93735-4.61734,3.32286-5.02949,5.54809-10.53837a8.77951,8.77951,0,0,0-.8865-8.54224A17.93339,17.93339,0,0,0,485.7943,160.43722Z" fill="#f9977a"/><ellipse cx="467.4075" cy="178.21173" rx="1.179" ry="0.94811" transform="translate(258.59053 632.77159) rotate(-86.19746)" fill="#0a0709"/><ellipse cx="475.93723" cy="178.77865" rx="1.179" ry="0.94811" transform="translate(265.98891 641.81187) rotate(-86.19746)" fill="#0a0709"/><path d="M472.08691,176.40578a.598.598,0,0,1-.35791-.11914,5.06317,5.06317,0,0,0-5.71-.40234.59834.59834,0,0,1-.65429-1.002,6.34778,6.34778,0,0,1,7.08105.44532.59882.59882,0,0,1-.35889,1.07812Z" fill="#1e1d22"/><path d="M480.92725,176.99367a.5979.5979,0,0,1-.35791-.11914,5.06192,5.06192,0,0,0-5.71045-.40234.59834.59834,0,0,1-.6543-1.002,6.34579,6.34579,0,0,1,7.08154.44532.59882.59882,0,0,1-.35888,1.07812Z" fill="#1e1d22"/><path d="M472.84351,176.70168a4.69488,4.69488,0,0,1-.43512,2.95654,10.86082,10.86082,0,0,1-1.63039,2.54859c-.3365.38623-.80832.66064-.804,1.06274a1.70666,1.70666,0,0,0,.55975,1.17993,3.68224,3.68224,0,0,0,2.7101.79273,3.4313,3.4313,0,0,1-2.91995-.56885,1.90125,1.90125,0,0,1-.71242-1.42407,1.161,1.161,0,0,1,.35914-.77637l.5154-.53735a11.91146,11.91146,0,0,0,1.65161-2.4187A5.35,5.35,0,0,0,472.84351,176.70168Z" fill="#dd765e"/><path d="M488.31807,178.1299a2.48888,2.48888,0,0,1,1.88883.926,4.38306,4.38306,0,0,1,.58654.89966,3.8396,3.8396,0,0,1,.31489,1.01294,14.2305,14.2305,0,0,0-1.19939-1.64795,4.36984,4.36984,0,0,0-.71441-.68262A3.60422,3.60422,0,0,0,488.31807,178.1299Z" fill="#dd765e"/><path d="M488.76058,183.08669a3.54967,3.54967,0,0,1,.99721-4.20825c-.17419.344-.36366.658-.49552.999a4.89677,4.89677,0,0,0-.3324,1.02612A7.269,7.269,0,0,0,488.76058,183.08669Z" fill="#dd765e"/><path d="M485.82825,184.61153a9.234,9.234,0,0,1,.876-3.87671c.78951-1.67645,1.77369-3.96678,3.46777-4.011,1.24823-.03258,1.76839-.327,2.13551.9.60652,2.02979-.82123,4.12957-1.81524,5.59214-1.42316,2.09267-2.54029,2.49595-2.66017,4.00128-.09159,1.14833,3.03453,3.69888,3.68626,3.29135,1.32853-.83074.8167-3.619,4.70943-9.9148,2.45838-3.97551,3.51414-4.68177,3.938-7.23735.15045-.9074.77338-4.664-1.35623-7.01451-.98783-1.09024-1.60875-.81936-6.06951-3.06807a37.94,37.94,0,0,1-3.61822-1.96883c-3.52333-2.24014-3.37369-3.262-5.47267-4.01237-1.8962-.67777-2.06561.13979-5.74157-.324-3.54412-.44707-3.80706-1.26023-5.4831-.90046-2.91.62451-4.48436,3.58362-4.90716,4.37874a9.85067,9.85067,0,0,0-1.40728,4.52018,8.88664,8.88664,0,0,0,1.43827,4.58557c.43248.50339,2.49481-2.09546,3.58807-3.05206,1.07194-.93714,2.18654-.45016,3.73617-.25,1.51094.19518,1.36514,1.1346,3.55412,2.11339.77993.34869,4.0794-.87373,4.99569.96823.9763,1.96259,1.81782,2.24845,1.18364,3.97211-.39624,1.07686-.2859,2.43955-.06528,5.1651.15813,1.95594-1.85863,8.6171-1.85863,8.6171C482.02338,188.23393,485.80858,187.602,485.82825,184.61153Z" fill="#1e1d22"/><path d="M474.93136,189.53029a4.32976,4.32976,0,0,1-1.59709,1.29492,4.53981,4.53981,0,0,1-2.07328.47657,4.839,4.839,0,0,1-1.08277-.16968,3.97553,3.97553,0,0,1-.971-.488,3.77889,3.77889,0,0,1-1.33336-1.583,10.681,10.681,0,0,0,1.68852.92872,4.36255,4.36255,0,0,0,1.72089.35888A9.88944,9.88944,0,0,0,474.93136,189.53029Z" fill="#dd765e"/><path d="M465.50922,189.82717a8.00974,8.00974,0,0,1,.90553-2.76587,3.53255,3.53255,0,0,1,.46854-.66773,3.45568,3.45568,0,0,1,.71482-.66748,2.45506,2.45506,0,0,1,1.3215-.40356,2.7133,2.7133,0,0,1,.76777.10156,4.38062,4.38062,0,0,1,.60489.23511c.307.15332.56206.30933.67645.342a.3729.3729,0,0,1,.07635.02979c.01849.00561-.00349-.022-.00727-.0271a.47012.47012,0,0,0-.21052-.09229.73728.73728,0,0,0-.38257-.00732.27953.27953,0,0,0-.19548.0393,6.7465,6.7465,0,0,1,.89776-.49365,4.3614,4.3614,0,0,1,2.3251-.26562,5.28471,5.28471,0,0,1,1.98992.86645,8.33884,8.33884,0,0,1,2.15086,2.47095l.32991.59277c.09852.18164.20922.37695.21849.41724a1.99332,1.99332,0,0,0,.27716.41919.89132.89132,0,0,0,.21076.16186c.10245.04395.27109.084.39542.12573a1.84716,1.84716,0,0,0,.77194.07447c.535-.01953,1.13525-.604,1.65079-1.41162l.2238.02832a3.26771,3.26771,0,0,1-1.19256,2.39087,2.79176,2.79176,0,0,1-1.312.45288,3.06514,3.06514,0,0,1-1.37888-.14649,2.83836,2.83836,0,0,1-1.14787-.79638c-.30032-.36377-.52648-.72486-.78565-1.07935a8.09305,8.09305,0,0,0-1.73068-1.87109,3.13114,3.13114,0,0,0-1.09769-.51441,2.35155,2.35155,0,0,0-1.1842.096,5.60037,5.60037,0,0,0-.56161.25659l-.35584.14966a1.47211,1.47211,0,0,1-.40418.01294,3.53407,3.53407,0,0,1-1.195-.69507,1.02491,1.02491,0,0,0-1.07195-.06714,3.66777,3.66777,0,0,0-.96981.78174A15.61162,15.61162,0,0,0,465.699,189.949Z" fill="#1e1d22"/><path d="M480.92753,198.19871a15.70944,15.70944,0,0,1-8.38745,0l-.00007.00049c1.194.437,2.04462,1.09058,1.99268,2.45532a9.2745,9.2745,0,0,1-.82617,2.66895C477.43381,202.8491,480.92753,198.19871,480.92753,198.19871Z" fill="#dd765e"/><path d="M508.592,434.40244l1.58593,9.08344s9.8929,13.5585,16.9536,1.89288L524.8,434.40244Z" fill="#f9977a"/><path d="M510.17788,443.48588s-8.66248,10.82032-3.86119,17.19787a2.66868,2.66868,0,0,0,2.14777,1.0488l42.94608-.23315a1.4001,1.4001,0,0,0,1.37872-1.56479c-.24647-2.22481-15.69716-5.98926-25.65778-14.55585C527.13148,445.37876,514.22033,449.08913,510.17788,443.48588Z" fill="#935b50"/><path d="M483.87319,434.49966l3.6699,19.09333s-12.12239,5.219-19.18309-6.44666l.88714-12.21323Z" fill="#f9977a"/><path d="M485.56772,443.48588s8.66248,10.82032,3.8612,17.19787a2.6687,2.6687,0,0,1-2.14777,1.0488l-42.94608-.23315a1.40011,1.40011,0,0,1-1.37873-1.56479c.24648-2.22481,15.69716-5.98926,25.65778-14.55585C468.61412,445.37876,481.52528,449.08913,485.56772,443.48588Z" fill="#935b50"/><path d="M457.4495,291.13959l8.05194,145.64724a2,2,0,0,0,1.99695,1.8896h18.5877a2,2,0,0,0,1.99884-2.06792L483.64534,305.9577,507.18745,437.03a2,2,0,0,0,1.9685,1.64643h16.65533a2,2,0,0,0,1.982-2.26778L508.16609,291.13959Z" fill="#ffba55"/><path d="M466.10843,291.13967a36.69277,36.69277,0,0,1-.12254,5.60351,35.09486,35.09486,0,0,1-.93517,5.54786,18.959,18.959,0,0,1-2.12886,5.24243,9.55828,9.55828,0,0,1-1.83439,2.18481,5.33594,5.33594,0,0,1-2.54455,1.19946,7.19927,7.19927,0,0,0,3.8796-3.67627,23.34872,23.34872,0,0,0,1.90082-5.13891c.46763-1.781.79619-3.60108,1.09118-5.42993C465.7003,294.84133,465.91547,292.99636,466.10843,291.13967Z" fill="#e6952a"/><path d="M500.43491,291.13967a47.91258,47.91258,0,0,0,.95315,5.3479,29.85,29.85,0,0,0,1.68761,5.10083,15.071,15.071,0,0,0,2.88809,4.43652,9.9281,9.9281,0,0,0,4.5749,2.675,9.212,9.212,0,0,1-2.65834-.709,9.92085,9.92085,0,0,1-2.31638-1.5481,13.35082,13.35082,0,0,1-3.17449-4.54834,22.52811,22.52811,0,0,1-1.565-5.28979A25.244,25.244,0,0,1,500.43491,291.13967Z" fill="#e6952a"/><polygon points="471.366 291.14 471.858 309.579 472.272 328.019 472.978 364.902 473.51 401.787 473.714 420.231 473.84 438.677 473.346 420.237 472.932 401.797 472.227 364.914 471.696 328.029 471.492 309.585 471.366 291.14" fill="#e6952a"/><polygon points="494.868 291.14 497.987 309.553 501.028 327.979 506.991 364.849 512.781 401.747 515.615 420.205 518.371 438.677 515.252 420.263 512.21 401.838 506.249 364.967 500.46 328.069 497.626 309.61 494.868 291.14" fill="#e6952a"/><path d="M456.75835,292.42812l1.9328-23.83783s-14.81811,4.50986-12.241-16.10664l1.44053-24.00873a17.01213,17.01213,0,0,1,7.22579-12.918l14.26209-6.44964,4.775-7.62821h19.328l4.65993,8.07513,14.2757,5.14655c4.7411,3.12219,7.85794,8.182,8.64322,14.93544l.80817,6.95025a191.205,191.205,0,0,1,1.272,23.79491l-.02281,2.55c0,3.07647-3.22133,7.59172-14.81811,8.88025l.64426,19.328S488.97164,297.58225,456.75835,292.42812Z" fill="#376f92"/><path d="M506.36681,253.54065l-.10678-3.07878-2.284-1.90331a4.60318,4.60318,0,0,0-3.38591-1.04592l-8.51753.81615,1.5322,9.41Z" fill="#f9977a"/><path d="M460.624,248.61794c-.34593-3.86548-.42542-7.731-.43962-11.59668.01237-3.86548.09159-7.7312.43962-11.59668.348,3.86548.42725,7.7312.43962,11.59668C461.04936,240.887,460.96988,244.75246,460.624,248.61794Z" fill="#10394f"/><path d="M471.21808,248.23929l-2.65465-4.00492a10.36,10.36,0,0,0-4.70276-3.86081l-3.83775-1.57459c-1.54121-.63234-3.169-.18784-4.81463.07135-2.27131.35774-4.76713,1.44665-2.65664,3.94406a7.16914,7.16914,0,0,0,2.01853,1.61216l7.55752,4.19152Z" fill="#f9977a"/><path d="M515.38653,220.27028a33.91312,33.91312,0,0,0-5.77067,2.90186,11.29983,11.29983,0,0,0-2.38106,2.03979,8.05524,8.05524,0,0,0-1.51225,2.78955,5.58219,5.58219,0,0,1,.96346-3.20214,8.71759,8.71759,0,0,1,2.44154-2.3584,12.89545,12.89545,0,0,1,3.01273-1.47266A12.56429,12.56429,0,0,1,515.38653,220.27028Z" fill="#10394f"/><path d="M508.29961,271.81154a80.32008,80.32008,0,0,1-11.1689,1.1482,99.6031,99.6031,0,0,1-11.24559-.25513,78.03987,78.03987,0,0,1-11.10358-1.85889,50.07919,50.07919,0,0,1-10.4957-3.99438c1.76657.63012,3.45795,1.41528,5.26814,1.885,1.7593.61059,3.58053,1.00879,5.38448,1.45117a89.05937,89.05937,0,0,0,11.02429,1.64185c3.7042.34716,7.42825.45825,11.15407.457q2.795.00328,5.59087-.13086C504.574,272.1028,506.43528,271.96413,508.29961,271.81154Z" fill="#10394f"/><path d="M513.45373,256.99343c-.55835-.44287-1.09452-.86548-1.63422-1.26782a14.24336,14.24336,0,0,0-1.66161-1.07886,8.17324,8.17324,0,0,0-1.78839-.71875,7.73468,7.73468,0,0,0-2.0027-.15576,3.701,3.701,0,0,1,2.09749-.52417,5.29354,5.29354,0,0,1,2.11445.62671,6.85973,6.85973,0,0,1,1.698,1.34228A5.96166,5.96166,0,0,1,513.45373,256.99343Z" fill="#10394f"/><path d="M515.38653,249.90651c-1.75983.62647-3.46472,1.21778-5.13669,1.91919-.841.33472-1.66551.70679-2.48879,1.09107l-2.48923,1.1958a13.12029,13.12029,0,0,1,4.64378-3.1001,15.64747,15.64747,0,0,1,2.68078-.83227A10.89768,10.89768,0,0,1,515.38653,249.90651Z" fill="#10394f"/><path d="M459.97968,222.84743a23.22275,23.22275,0,0,0-2.961-3.48657,10.06613,10.06613,0,0,0-1.78777-1.3,10.68118,10.68118,0,0,0-2.127-.84668,4.78436,4.78436,0,0,1,2.40632.21973,6.49312,6.49312,0,0,1,2.1,1.27636,8.282,8.282,0,0,1,1.51251,1.90015A6.89352,6.89352,0,0,1,459.97968,222.84743Z" fill="#10394f"/><path d="M456.11409,257.63771a10.07583,10.07583,0,0,1-.44256-2.88256,9.44906,9.44906,0,0,1,.40143-2.93775,4.92855,4.92855,0,0,1,1.67287-2.54272,3.82106,3.82106,0,0,1,2.87812-.65674,4.98762,4.98762,0,0,0-2.433,1.17944,5.30424,5.30424,0,0,0-1.28055,2.2876A23.87646,23.87646,0,0,0,456.11409,257.63771Z" fill="#10394f"/><path d="M452.24849,251.83937a4.40028,4.40028,0,0,1,1.44993-2.28369,6.30218,6.30218,0,0,1,2.44406-1.29126,8.327,8.327,0,0,1,2.72069-.26269c.45046.03955.897.11279,1.33706.18872.43492.11963.86662.23657,1.285.3916-.45182.0376-.89033.03662-1.32561.03833l-1.29372.06763a13.516,13.516,0,0,0-2.48667.42309A7.445,7.445,0,0,0,452.24849,251.83937Z" fill="#10394f"/><path d="M505.72255,233.79982l.291,4.989.26475,4.98974.45948,9.98145.01289.28027-.27382.08643-11.902,3.75879c-3.96453,1.262-7.95334,2.4458-11.92882,3.6726-3.9741,1.23121-7.965,2.40845-11.95612,3.58472-3.9872,1.189-7.99007,2.32764-11.99878,3.44751,3.93721-1.34985,7.88028-2.68091,11.839-3.96167,3.95477-1.29321,7.90984-2.58569,11.88166-3.82422,3.97045-1.24292,7.92757-2.52881,11.909-3.73657l11.93576-3.65015-.26074.36622-.18479-9.99048-.05738-4.99634Z" fill="#10394f"/><path d="M493.60482,257.73879c-.26155-1.76392-.5075-3.52759-.85058-5.27075-.15742-.87256-.32605-1.74414-.54554-2.596a6.79344,6.79344,0,0,0-.90264-2.2998l.25683.10009c-2.57468.16455-5.152.26465-7.72793.39991-2.57548.145-5.15443.20678-7.73206.30053-2.57729.10156-5.1563.16211-7.73629.199-2.57915.05713-5.16033.06567-7.74266.04614,2.57177-.23389,5.1447-.44043,7.71966-.5979,2.57412-.178,5.14922-.33228,7.726-.44507,2.57648-.12134,5.15163-.27441,7.73026-.344,2.57822-.07935,5.155-.1941,7.7344-.24439l.174-.00342.08316.10376a3.72693,3.72693,0,0,1,.638,1.335,13.093,13.093,0,0,1,.32779,1.32373c.1842.88306.31353,1.769.431,2.65528C493.38518,254.17849,493.5459,255.95534,493.60482,257.73879Z" fill="#10394f"/><path d="M491.32074,204.24831a6.98965,6.98965,0,0,1,.43962,2.57153,6.90984,6.90984,0,0,1-.43962,2.57129,6.91,6.91,0,0,1-.43962-2.57129A6.98986,6.98986,0,0,1,491.32074,204.24831Z" fill="#10394f"/><path d="M494.32825,204.24831a6.98986,6.98986,0,0,1,.43962,2.57153,6.91,6.91,0,0,1-.43962,2.57129,6.90964,6.90964,0,0,1-.43962-2.57129A6.98945,6.98945,0,0,1,494.32825,204.24831Z" fill="#10394f"/><path d="M473.27572,204.24831a6.98965,6.98965,0,0,1,.43962,2.57153,6.91,6.91,0,0,1-.43962,2.57129,6.91,6.91,0,0,1-.43962-2.57129A6.98965,6.98965,0,0,1,473.27572,204.24831Z" fill="#10394f"/><path d="M476.28322,204.24831a6.98965,6.98965,0,0,1,.43962,2.57153,6.90984,6.90984,0,0,1-.43962,2.57129,6.91,6.91,0,0,1-.43962-2.57129A6.98965,6.98965,0,0,1,476.28322,204.24831Z" fill="#10394f"/><path d="M479.29073,204.24831a6.98986,6.98986,0,0,1,.43962,2.57153,6.91,6.91,0,0,1-.43962,2.57129,6.91006,6.91006,0,0,1-.43963-2.57129A6.98987,6.98987,0,0,1,479.29073,204.24831Z" fill="#10394f"/><path d="M482.29823,204.24831a6.98965,6.98965,0,0,1,.43962,2.57153,6.90984,6.90984,0,0,1-.43962,2.57129,6.91,6.91,0,0,1-.43962-2.57129A6.98986,6.98986,0,0,1,482.29823,204.24831Z" fill="#10394f"/><path d="M485.30573,204.24831a6.98967,6.98967,0,0,1,.43963,2.57153,6.90985,6.90985,0,0,1-.43963,2.57129,6.91,6.91,0,0,1-.43962-2.57129A6.98986,6.98986,0,0,1,485.30573,204.24831Z" fill="#10394f"/><path d="M488.31324,204.24831a6.98965,6.98965,0,0,1,.43962,2.57153,6.91,6.91,0,0,1-.43962,2.57129,6.91,6.91,0,0,1-.43962-2.57129A6.98965,6.98965,0,0,1,488.31324,204.24831Z" fill="#10394f"/><path d="M566.42274,461.73259H133.57726a.87977.87977,0,1,1,0-1.75954H566.42274a.87977.87977,0,0,1,0,1.75954Z" fill="none" stroke="#935b50" stroke-linecap="round" stroke-linejoin="round" stroke-width="2"/></svg>