<svg xmlns="http://www.w3.org/2000/svg" viewBox="0 0 480.28025 372.61721"><title>Asset 17</title><g id="Layer_2" data-name="Layer 2"><g id="Layer_1-2" data-name="Layer 1"><path d="M158.30182,80.31209C106.9956,120.36122,76.3919,288.94946,172.59344,290.14654c50.63853.63,140.7066,33.91027,200.08788,64.80306,57.74017,30.03872,44.9076-133.99495-14.29165-209.834S209.608,40.263,158.30182,80.31209Z" fill="#f9e0c0"/><path d="M398.13825,371.62158c-4.35645,0-9.13965-1.3291-14.26855-3.998l.4414-.84765c11.89942,6.18945,21.46094,5.08789,28.416-3.27539,12.70605-15.27539,15.39062-53.6211,7.00488-100.0752-8.80469-48.77832-28.13086-95.92285-51.69629-126.11328C336.6861,97.15088,296.6402,67.65478,255.273,54.25732c-41.29981-13.37793-78.96485-9.09765-106.05665,12.04981l-.58789-.75391c27.34961-21.34961,65.32911-25.68457,106.93946-12.206,41.54687,13.45508,81.75586,43.0664,113.22168,83.37695,23.65722,30.30664,43.05273,77.60742,51.88379,126.53125,8.43457,46.72461,5.67187,85.37012-7.21094,100.85645C409.30524,369.10986,404.12555,371.62158,398.13825,371.62158Z" fill="#f4c5a2"/><path d="M192.02772,149.82141a1.65754,1.65754,0,0,0-1.44368-2.6539s-4.91206,2.51958-6.86758,2.39473C183.71646,149.56224,174.57675,157.07643,192.02772,149.82141Z" fill="#dd765e"/><path d="M256.41017,91.73219a9.49854,9.49854,0,1,1-18.99707,0c0-5.24589,4.25263-12.5044,9.49853-12.5044S256.41017,86.4863,256.41017,91.73219Z" fill="#ffba55"/><path d="M249.8906,80.05128h-6.03493V71.82993a.95656.95656,0,0,1,.95656-.95656H248.934a.95656.95656,0,0,1,.95656.95656Z" fill="#f65b2b"/><line x1="246.91163" y1="0.47828" x2="246.91163" y2="56.75281" fill="none" stroke="#7ca1b1" stroke-miterlimit="10" stroke-width="0.95656"/><polygon points="246.912 56.753 213.811 102.93 225.866 116.824 246.912 116.824 246.912 56.753" fill="none" stroke="#7ca1b1" stroke-miterlimit="10" stroke-width="0.95656"/><polyline points="246.912 56.753 230.361 103.134 235.47 116.824" fill="none" stroke="#7ca1b1" stroke-miterlimit="10" stroke-width="0.95656"/><line x1="213.81131" y1="102.92981" x2="246.91163" y2="102.92981" fill="none" stroke="#7ca1b1" stroke-miterlimit="10" stroke-width="0.95656"/><polygon points="246.912 56.753 280.012 102.93 267.957 116.824 246.912 116.824 246.912 56.753" fill="none" stroke="#7ca1b1" stroke-miterlimit="10" stroke-width="0.95656"/><polyline points="246.912 56.753 263.462 103.134 258.354 116.824" fill="none" stroke="#7ca1b1" stroke-miterlimit="10" stroke-width="0.95656"/><line x1="280.01195" y1="102.92981" x2="246.91163" y2="102.92981" fill="none" stroke="#7ca1b1" stroke-miterlimit="10" stroke-width="0.95656"/><line x1="239.80071" y1="0.47828" x2="254.02255" y2="0.47828" fill="none" stroke="#9857bd" stroke-miterlimit="10" stroke-width="0.95656"/><path d="M182.34939,151.18308s-2.98178,2.36229-5.33509,2.69338" fill="none" stroke="#dd765e" stroke-linecap="round" stroke-linejoin="round" stroke-width="0.56626"/><path d="M103.188,139.0576c2.49745-4.6621,4.96179-11.65759,4.67686-21.80372a31.20833,31.20833,0,0,0-8.37781-10.02928c1.58775.03406,2.86384.12732,4.087.03139,8.12548-.63714,18.152-9.97651,17.174-18.82207-.85232-7.70935-9.755-12.2509-11.92093-13.356a18.11824,18.11824,0,0,0-17.67994-.04818,20.65257,20.65257,0,0,0-7.87256,7.76008c-1.95106,3.17891-1.895,3.48859-5.43771,6.52591-3.92223,3.36273-6.55487,4.44073-8.64387,8.16974-1.3228,2.36148-1.27963,6.30286-1.05769,9.20159-5.83167,4.89244-8.39125,11.63258-9.06521,13.41055-2.90122,7.65429-2.95322,16.94886-2.96694,19.40192-.03072,5.47777.63538,9.13791-1.75974,13.20163-2.12743,3.60966-4.39281,3.67341-7.051,6.57217-4.94949,5.39748-6.61016,15.55216-2.85751,21.98538,6.15372,10.54957,26.32023,10.15915,33.89846,2.06286,5.10474-5.45379.65286-10.29667,5.55756-21.05425C89.19847,150.62639,97.03352,150.54659,103.188,139.0576Z" fill="#160b07"/><polygon points="111.982 172.139 80.696 171.797 78.054 192.102 112.367 193.233 111.982 172.139" fill="#f9977a"/><path d="M111.53686,119.0142l4.53826,3.60815,3.25487,13.5373-30.56688-.377,3.35127-15.99183s2.951-.35079,5.45352-8.54886Z" fill="#f9977a"/><path d="M110.57177,113.01057s-6.02,4.39814-12.93147-1.14c0,0,2.291,9.68783,13.89656,7.14367A6.90065,6.90065,0,0,1,110.57177,113.01057Z" fill="#dd765e"/><path d="M118.23924,93.10178c-2.26065-11.108-10.247-18.86044-17.83808-17.31556-5.859,1.1924-9.76639,7.57648-10.20671,15.5344a2.16525,2.16525,0,0,0-1.8199-.26414c-1.64881.61272-1.996,3.77187-.77544,7.05609,1.03046,2.7729,2.8479,4.74095,4.38154,4.92011,3.20228,8.709,10.05053,14.31349,16.60708,12.97917C116.17878,114.4669,120.49991,104.20975,118.23924,93.10178Z" fill="#f9977a"/><path d="M109.0973,92.20435a7.41857,7.41857,0,0,0,.44924,3.85522,18.02192,18.02192,0,0,0,1.71531,3.51294l.57766.81592a1.66465,1.66465,0,0,1,.34058,1.18261,2.64409,2.64409,0,0,1-1.30325,1.8086,4.54843,4.54843,0,0,1-4.04471.09082,7.11955,7.11955,0,0,0,1.975.0564,3.399,3.399,0,0,0,1.73691-.63208,2.19131,2.19131,0,0,0,.91544-1.39307.94526.94526,0,0,0-.23407-.688c-.1814-.25171-.40167-.5271-.59552-.81177a13.34075,13.34075,0,0,1-1.63721-3.75293A6.1606,6.1606,0,0,1,109.0973,92.20435Z" fill="#dd765e"/><path d="M97.23911,94.9617a.53593.53593,0,0,1-.28458-.8689c.13423-.15822,3.33852-3.85874,7.6853-3.09481a.536.536,0,1,1-.18546,1.05592c-3.74887-.6587-6.654,2.69928-6.68308,2.73331A.53617.53617,0,0,1,97.23911,94.9617Z" fill="#160b07"/><path d="M111.31669,90.99857a.53621.53621,0,0,1-.067-1.02356,10.34526,10.34526,0,0,1,6.48108-.10217A.53612.53612,0,0,1,117.374,90.884a9.3576,9.3576,0,0,0-5.7448.09427A.53639.53639,0,0,1,111.31669,90.99857Z" fill="#160b07"/><path d="M98.37153,97.30615a5.97531,5.97531,0,0,1,1.499-1.45239,5.61444,5.61444,0,0,1,1.93954-.87354,4.06865,4.06865,0,0,1,2.14466.08814A4.1683,4.1683,0,0,1,105.726,96.1897a6.45139,6.45139,0,0,0-1.87274-.72168,4.71051,4.71051,0,0,0-1.928.03564A9.72574,9.72574,0,0,0,98.37153,97.30615Z" fill="#160b07"/><circle cx="103.20371" cy="96.32454" r="1.20239" fill="#160b07"/><circle cx="114.64594" cy="94.89459" r="1.20239" fill="#160b07"/><path d="M110.64075,96.12817a5.97177,5.97177,0,0,1,1.49909-1.45263,5.60873,5.60873,0,0,1,1.93951-.87329,4.06592,4.06592,0,0,1,2.14465.08789,4.16643,4.16643,0,0,1,1.77121,1.12158,6.44447,6.44447,0,0,0-1.87274-.72168,4.71484,4.71484,0,0,0-1.928.0354A9.7265,9.7265,0,0,0,110.64075,96.12817Z" fill="#160b07"/><path d="M88.18046,94.89844a2.48139,2.48139,0,0,1,.49041-1.41748,1.3361,1.3361,0,0,1,.73453-.50025,1.22923,1.22923,0,0,1,.93283.156,2.73754,2.73754,0,0,1,1.00281,1.2,4.44435,4.44435,0,0,1,.40863,1.405c-.34448-.35889-.62128-.73755-.91132-1.08374a3.75066,3.75066,0,0,0-.87866-.85767.66669.66669,0,0,0-.86261.09473A6.38667,6.38667,0,0,0,88.18046,94.89844Z" fill="#dd765e"/><path d="M90.14722,98.53662a7.54818,7.54818,0,0,0,.056-1.31225c-.01584-.42334-.04605-.84327-.0979-1.26392-.07941-.84692-.23343-1.68848-.26355-2.62817a4.52853,4.52853,0,0,1,.69342,1.2,5.37572,5.37572,0,0,1,.33,1.34863,4.36344,4.36344,0,0,1-.07086,1.405A2.44175,2.44175,0,0,1,90.14722,98.53662Z" fill="#dd765e"/><circle cx="89.5353" cy="101.50781" r="2.38663" fill="#ffcb33"/><path d="M104.40637,81.72714c-1.32732,1.08852-8.1787,11.86247-10.64793,13.06775a1.52342,1.52342,0,0,1-.90279.18336c-.96583-.14124-1.355-1.39211-2.42866-3.15229-.81138-1.33018-1.16439-1.55892-1.63736-2.30414a10.75321,10.75321,0,0,1-.48469-9.70093A11.393,11.393,0,0,1,94.56956,74.293c5.62547-2.40911,11.06247-.30474,12.44136.22894,8.28414,3.20636,11.821,11.40776,11.52819,11.6491C118.19493,86.45466,111.21188,76.146,104.40637,81.72714Z" fill="#160b07"/><circle cx="107.86209" cy="108.85261" r="2.77865" fill="#dd2f22"/><path d="M58.4304,334.00505s-16.82475,14.91436-15.93588,16.44966,32.16915,27.14763,28.49236,19.64815l-5.27414-9.46727a12.31246,12.31246,0,0,1,.85846-13.31567l4.1799-5.649Z" fill="#f9977a"/><path d="M66.70462,362.41605l-9.94217-3.76022c.2868-1.85794.45208-7.793-6.26978-17.31452a.6032.6032,0,0,0-.9097-.08481l-1.2415,1.19973a.60118.60118,0,0,0-.07726.773,36.54872,36.54872,0,0,1,5.51223,12.92791l-9.79884-8.19953c-2.27451,1.04488-3.4709,4.43374-3.4709,4.43374,1.9538,1.97018,14.27115,18.86329,25.01561,18.86329,5.29847,0,7.03734.91116,8.66521,0C77.23214,369.5505,66.70462,362.41605,66.70462,362.41605Z" fill="#f73943"/><path d="M99.10119,345.19624s-4.44213,22.04036-2.80768,22.73017,44.49535,3.37314,37.04237-.397l-12.37752-5.46655a12.31242,12.31242,0,0,1-7.3376-11.14466l-.06748-7.02692Z" fill="#f9977a"/><path d="M118.97833,191.38693l3.70132,51.99927V347.494c-6.83105,6.1984-24.60584,9.361-42.45954,7.20007-16.42984-1.98852-29.0228-10.13829-37.75962-14.15,2.457-19.05689,5.46055-35.69837,9.41618-56.60975,6.3117-33.3667,15.3901-73.50952,26.45684-100.61279Z" fill="#376f92"/><path d="M125.90722,364.2485l-13.285,1.62685c-.89052-1.65565-4.33451-6.4921-15.43609-10.04142a.6032.6032,0,0,0-.77714.48042l-.268,1.70553a.60118.60118,0,0,0,.40409.6635,36.54871,36.54871,0,0,1,12.18851,6.99682l-12.76086-.64032c-1.18577,2.20433-.09883,5.62986-.09883,5.62986,20.638,2.58031,40.13364.79526,43.13263-.98782S125.90722,364.2485,125.90722,364.2485Z" fill="#f73943"/><path d="M198.33565,146.66527s-16.91784-16.03188-32.86528-.51242Z" fill="#d8a935"/><polygon points="167.039 153.876 196.524 152.39 204.651 142.887 157.998 145.238 167.039 153.876" fill="#c6c6c6"/><path d="M171.09711,127.33447a3.08912,3.08912,0,0,0-.97229,1.30591,1.82591,1.82591,0,0,0,.11572,1.509,9.90209,9.90209,0,0,0,.92109,1.34864c.30987.4353.78869.7146,1.16265,1.22851a3.92839,3.92839,0,0,1,.76453,3.34546,3.25642,3.25642,0,0,1-.88379,1.50391,3.02879,3.02879,0,0,1-1.51977.75854,3.13347,3.13347,0,0,0,2.03882-2.34912,3.62611,3.62611,0,0,0-.79523-2.9751c-.26966-.4143-.77692-.75024-1.1167-1.24047a7.38572,7.38572,0,0,1-.91168-1.46705,2.1218,2.1218,0,0,1,.00506-1.75341A2.93683,2.93683,0,0,1,171.09711,127.33447Z" fill="#bababa"/><path d="M178.90632,116.91357a3.08751,3.08751,0,0,0-.97223,1.30591,1.82519,1.82519,0,0,0,.11566,1.50879,9.92509,9.92509,0,0,0,.92108,1.34888c.30988.43506.7887.71435,1.16272,1.22827a3.92868,3.92868,0,0,1,.76447,3.3457,3.25444,3.25444,0,0,1-.88373,1.50366,3.02706,3.02706,0,0,1-1.51978.75855,3.13332,3.13332,0,0,0,2.03882-2.34888,3.62568,3.62568,0,0,0-.79529-2.97509c-.26959-.41431-.77685-.75025-1.1167-1.24073a7.39063,7.39063,0,0,1-.91168-1.46679,2.12236,2.12236,0,0,1,.00513-1.75367A2.9349,2.9349,0,0,1,178.90632,116.91357Z" fill="#bababa"/><path d="M188.16688,124.0166a3.08694,3.08694,0,0,0-.97223,1.30591,1.82508,1.82508,0,0,0,.11566,1.50879,9.92571,9.92571,0,0,0,.92108,1.34888c.30987.435.7887.71435,1.16266,1.22827a3.92866,3.92866,0,0,1,.76452,3.3457,3.25393,3.25393,0,0,1-.88378,1.50366,3.02672,3.02672,0,0,1-1.51972.75855,3.13334,3.13334,0,0,0,2.03882-2.34888,3.62571,3.62571,0,0,0-.79529-2.9751c-.26965-.4143-.77685-.75024-1.1167-1.24048a7.39917,7.39917,0,0,1-.91168-1.467,2.12257,2.12257,0,0,1,.00507-1.75366A2.93539,2.93539,0,0,1,188.16688,124.0166Z" fill="#bababa"/><path d="M59.03705,137.46632s1.12121-3.90006-2.79358-11.94873-7.8535-13.96548-6.46179-7.81147l1.13818,4.672s-5.5588-4.56978-8.63194-7.58218a5.32886,5.32886,0,0,0-6.26575-.97273c-1.87262,1.03536-2.36742,2.67827.49187,6.82446,4.27645,6.20122,6.71219,9.35523,8.2162,10.57735.521.4234,6.52694,4.54756,6.52694,4.54756Z" fill="#f9977a"/><path d="M54.05457,125.40552a6.70661,6.70661,0,0,1-.9082-.63526,10.80374,10.80374,0,0,1-.814-.72094c-.25451-.2566-.50918-.51245-.74026-.7937a8.15867,8.15867,0,0,1-.67224-.87745,4.76761,4.76761,0,0,1,.959.56812,7.57259,7.57259,0,0,1,.83673.71118,8.01929,8.01929,0,0,1,.7298.81812A5.51413,5.51413,0,0,1,54.05457,125.40552Z" fill="#dd765e"/><path d="M45.64036,121.32642a22.68993,22.68993,0,0,1-2.05488-1.73877c-.66009-.60791-1.28018-1.25684-1.88076-1.92456a22.77513,22.77513,0,0,1-1.68024-2.10889,12.35912,12.35912,0,0,1-1.33911-2.34277c1.07751,1.436,2.2442,2.759,3.4288,4.0874C43.28861,118.63354,44.49515,119.94019,45.64036,121.32642Z" fill="#dd765e"/><path d="M43.41227,122.76831a21.921,21.921,0,0,1-2.33512-1.80127,24.81056,24.81056,0,0,1-2.1137-2.06348,16.619,16.619,0,0,1-1.81122-2.3479,6.95789,6.95789,0,0,1-1.13007-2.73242,10.08531,10.08531,0,0,0,1.47727,2.49292c.59121.76319,1.20932,1.5083,1.87008,2.21948C40.66849,119.97876,42.05158,121.34814,43.41227,122.76831Z" fill="#dd765e"/><path d="M41.01862,123.61157a15.92494,15.92494,0,0,1-1.97784-1.4751,21.122,21.122,0,0,1-1.77918-1.71167,14.655,14.655,0,0,1-2.75442-4.08642c.514.64624,1.01172,1.28491,1.53961,1.90137.53772.60791,1.06348,1.22241,1.6181,1.814Z" fill="#dd765e"/><path d="M170.28564,164.63026l-7.67914-10.49483L140.337,161.00394l-14.86626-31.2264a14.50841,14.50841,0,0,0-8.084-7.37738l-4.18271-1.541s1.84929,14.791-9.15748,11.97535a15.60082,15.60082,0,0,1-11.93217-13.04372h0a26.64751,26.64751,0,0,0-25.74929,17.54339c-1.19893,3.32937-2.40992,7.27155-3.58739,11.9378l-2.04777-16.38217-14.59036,1.53583,2.56712,35.39927c.801,11.04539,15.28643,14.585,21.091,5.15366l9.36219-15.21177,1.53583,12.03065,37.62778,4.86346,3.07166-11.00677,3.6147,6.6733a15.28316,15.28316,0,0,0,20.94963,6.03088Z" fill="#8b9d36"/><path d="M140.25168,169.06714a18.2402,18.2402,0,0,0,.61521-4.04492,13.52632,13.52632,0,0,0-.11212-2.02515,7.59009,7.59009,0,0,0-.5752-1.918l.33035-.05249a25.09316,25.09316,0,0,1-1.049,4.44458,12.56376,12.56376,0,0,1-.95584,2.08179,3.33952,3.33952,0,0,1-1.66638,1.51416,3.27167,3.27167,0,0,0,1.51019-1.60449,12.34142,12.34142,0,0,0,.84345-2.08081,28.82784,28.82784,0,0,0,.97168-4.40039l.0859-.59839.24457.54589a8.54225,8.54225,0,0,1,.63477,4.106A14.77045,14.77045,0,0,1,140.25168,169.06714Z" fill="#5e7c24"/><path d="M62.77768,149.272q.35318,2.46423.64734,4.93482l.55317,4.94458.47134,4.95288q.22028,2.47815.37591,4.96289-.35408-2.46423-.64794-4.93482l-.55256-4.94458-.4707-4.95288Q62.93365,151.75671,62.77768,149.272Z" fill="#5e7c24"/><path d="M79.15986,159.76685c.83728-2.64576,1.665-5.29468,2.54361-7.92652l2.59884-7.90771-.00464.01709a29.32464,29.32464,0,0,0,.37723-5.95533,23.32494,23.32494,0,0,0-.95322-5.88623,15.96332,15.96332,0,0,0-2.80557-5.23242,15.14639,15.14639,0,0,0-4.65729-3.71289l1.31885.727.66107.3645.59861.459c.393.31348.80868.60425,1.185.93848l1.0372,1.10327a16.18446,16.18446,0,0,1,2.90806,5.27417,23.61362,23.61362,0,0,1,1.03616,5.95117,25.51571,25.51571,0,0,1-.40155,6.03345l-.00153.008-.00323.00952-2.69116,7.877C81.02149,154.53809,80.08588,157.15088,79.15986,159.76685Z" fill="#5e7c24"/><path d="M94.85941,181.01245a10.31473,10.31473,0,0,1-3.95758-3.70825,11.26091,11.26091,0,0,1-1.15762-2.48731,11.06808,11.06808,0,0,1-.51615-2.67822,18.3092,18.3092,0,0,0,.77375,2.58643,14.07109,14.07109,0,0,0,2.83194,4.51A12.925,12.925,0,0,0,94.85941,181.01245Z" fill="#5e7c24"/><path d="M110.38834,187.83838a24.30721,24.30721,0,0,1-13.47977-1.1582,21.46464,21.46464,0,0,1-5.92642-3.41309,21.90718,21.90718,0,0,1-2.51074-2.3269c-.79126-.82129-1.427-1.77955-2.14438-2.65821a27.902,27.902,0,0,0,4.82349,4.76953,25.01379,25.01379,0,0,0,2.814,1.8816c.48929.28027,1.0105.50317,1.5138.75756a11.80394,11.80394,0,0,0,1.558.65821,24.96047,24.96047,0,0,0,6.56732,1.59546l1.69275.13354c.56583.00562,1.13272.03857,1.69916.02222A21.65288,21.65288,0,0,0,110.38834,187.83838Z" fill="#5e7c24"/><path d="M120.11527,135.10815l1.37729,3.67359c.36209,1.25659.78744,2.49829,1.09384,3.77148.29413,1.27613.61926,2.5481.795,3.84864.09675.64794.22583,1.292.2959,1.94384l.19229,1.95825a38.25638,38.25638,0,0,1-.23153,7.85352,23.63162,23.63162,0,0,1-2.243,7.49658,19.083,19.083,0,0,0,1.26437-3.69507,29.24727,29.24727,0,0,0,.70752-3.83764,40.09247,40.09247,0,0,0,.1485-7.79126,50.78166,50.78166,0,0,0-1.19376-7.71289c-.27237-1.27466-.66812-2.51978-.99405-3.78345Z" fill="#5e7c24"/><path d="M163.69015,156.12141s2.70223-6.37992,10.47674-4.731a9.13134,9.13134,0,0,0,6.52243-.34626s6.53624-3.09094,1.66007,2.05205l7.123-.545s5.81043-2.564,5.46968.7c0,0-10.8887,3.83371-12.65186,5.1103s-12.75038,5.22231-12.75038,5.22231Z" fill="#f9977a"/><path d="M121.39512,165.65414S110.142,126.14991,89.5353,119.78273c0,0-8.57207-1.64016-13.27646,3.61245,0,0,9.26033,119.44838,46.42082,119.99093C122.67966,243.38611,121.863,182.76782,121.39512,165.65414Z" fill="#376f92"/><path d="M122.67966,243.38623a10.79863,10.79863,0,0,1-4.57278-.55176l-1.11185-.34936-1.06024-.47949-1.06168-.48365c-.35394-.16235-.6683-.39355-1.00491-.58716a33.36679,33.36679,0,0,1-7.14868-5.93164c-4.2247-4.58105-7.33084-10.00805-10.19287-15.47705l-1.9252-4.21972c-.31669-.70508-.64994-1.40308-.95279-2.11328l-.82669-2.16431c-1.0691-2.89673-2.3042-5.7356-3.12815-8.71436l-1.36612-4.42138-.68261-2.20972c-.20615-.74268-.38831-1.49219-.57938-2.23877-.72986-2.99683-1.49088-5.98315-2.19113-8.98145.9107,2.94581,1.76068,5.90406,2.64178,8.85181l.64466,2.2146.74359,2.18384,1.48626,4.36548a149.88154,149.88154,0,0,0,6.99195,17.02319,73.39146,73.39146,0,0,0,9.88034,15.41016,33.07034,33.07034,0,0,0,6.8482,6.0249c.32084.20508.62128.44849.95972.6228l1.01764.52124,1.02118.52075,1.07516.39307A11.35244,11.35244,0,0,0,122.67966,243.38623Z" fill="#10394f"/><path d="M114.64594,176.57568c-.58377-2.22168-1.19263-4.43237-1.89728-6.61474q-.99549-3.28968-2.15933-6.52246c-1.54047-4.31079-3.22281-8.56885-5.16818-12.7063a106.64356,106.64356,0,0,0-6.55139-12.02759c-1.28952-1.88257-2.51938-3.81641-3.98783-5.57153-1.32577-1.87622-2.96658-3.47559-4.46975-5.21973a59.974,59.974,0,0,1,9.07037,10.384,95.05822,95.05822,0,0,1,6.80456,12.031,122.03183,122.03183,0,0,1,4.99628,12.876A100.46767,100.46767,0,0,1,114.64594,176.57568Z" fill="#10394f"/><path d="M115.84861,228.084a21.97255,21.97255,0,0,1-2.00193-2.50415c-.62756-.86816-1.20623-1.76855-1.764-2.68286-.58679-.89746-1.09061-1.842-1.62073-2.773-.54083-.92553-1.036-1.875-1.51334-2.83349-1.9591-3.81226-3.61868-7.76538-5.22412-11.73487-3.14142-7.97094-5.69577-16.15258-8.0831-24.37109-1.10083-4.13525-2.20428-8.27075-3.22064-12.42627l-1.46441-6.2478c-.49247-2.08155-.98566-4.16309-1.38791-6.26416-.83271-4.1958-1.74445-8.375-2.51163-12.58179l-2.18225-12.64038c1.7572,8.36963,3.49444,16.73633,5.41223,25.06274.93988,4.16724,1.99185,8.30713,2.979,12.46192,1.04166,4.14087,2.17383,8.259,3.29554,12.37744,2.3048,8.22046,4.86428,16.36987,7.8464,24.36548,1.51566,3.98608,3.09628,7.95508,4.958,11.793.4407.97192.89932,1.93481,1.40359,2.87451.49378.94507.96219,1.90552,1.51322,2.81885.52249.9309,1.06631,1.84863,1.66,2.73584A21.89658,21.89658,0,0,0,115.84861,228.084Z" fill="#10394f"/><path d="M114.318,200.457c-1.57312-3.42651-3.04883-6.8916-4.50977-10.36255-1.463-3.47021-2.8461-6.97217-4.273-10.45678-1.355-3.51319-2.74838-7.011-4.06735-10.53833-1.31818-3.52759-2.62244-7.061-3.82752-10.63355,1.57456,3.42578,3.0499,6.89111,4.51136,10.36206,1.46063,3.471,2.84686,6.97168,4.27148,10.45728,1.35266,3.51391,2.74918,7.01049,4.0658,10.53881C111.80759,193.35156,113.11152,196.885,114.318,200.457Z" fill="#10394f"/><polygon points="89.228 200.257 88.063 215.566 86.799 230.866 84.117 261.452 81.214 292.018 79.684 307.293 78.054 322.56 79.218 307.251 80.481 291.951 83.165 261.365 86.07 230.799 87.6 215.524 89.228 200.257" fill="#10394f"/><path d="M93.03205,211.15112c.19726,3.83545.2897,7.67115.36624,11.50684.07874,3.83569.0715,7.67139.11148,11.50708-.03744,3.83545-.0336,7.67114-.1098,11.50683-.07709,3.8357-.16913,7.67139-.36792,11.50684-.19879-3.83545-.2908-7.67114-.36789-11.50684-.0762-3.83569-.07239-7.67138-.10983-11.50683.04-3.83569.03274-7.67139.11151-11.50708C92.74235,218.82227,92.83478,214.98657,93.03205,211.15112Z" fill="#10394f"/><polygon points="97.64 223.107 99.193 236.129 100.648 249.161 103.402 275.241 105.936 301.344 107.124 314.403 108.213 327.472 106.658 314.45 105.203 301.418 102.451 275.338 99.919 249.235 98.73 236.176 97.64 223.107" fill="#10394f"/><polygon points="259.969 273.168 270.723 180.764 344.15 182.163 333.525 270.111 259.969 273.168" fill="#c38f86"/><rect x="348.23034" y="279.32918" width="77.98315" height="8.27754" transform="translate(774.44382 566.93591) rotate(-180)" fill="#c38f86"/><path d="M349.97314,279.32916V318.103H421.0604c1.45214-35.17668,8.34-63.21053,15.042-82.72565,10.71541-31.2067,23.09126-47.86422,23.61243-48.55794l9.679,7.26336c-.47272.63345-47.15868,64.62574-34.26521,176.03908l-12.0213,1.39217a345.55522,345.55522,0,0,1-2.31633-42.51952H349.97314v41.82343H338.64585V279.32916Z" fill="#c38f86"/><path d="M338.64582,279.32918h87.56766v-2.24049a10.08238,10.08238,0,0,0-10.08237-10.08238H348.72819a10.08238,10.08238,0,0,0-10.08237,10.08238Z" fill="#f65b2b"/><rect x="316.34651" y="270.1114" width="8.03557" height="101.33529" fill="#c38f86"/><rect x="255.12664" y="270.1114" width="8.03557" height="101.33529" fill="#c38f86"/><rect x="244.72047" y="265.42001" width="88.8044" height="13.40075" rx="6.70037" fill="#f65b2b"/><path d="M221.99505,201.64317s-1.53891-3.98433-9.93965-8.2471-15.46626-6.722-10.38649-2.44456l3.92494,3.19548s-7.56814-.29937-12.06113-.87258a5.60878,5.60878,0,0,0-5.87437,3.16742c-.91261,2.059-.28321,3.7517,4.75118,5.41195,7.52963,2.48312,11.578,3.58034,13.61654,3.64935.70624.02391,8.36613-.33475,8.36613-.33475Z" fill="#f9977a"/><path d="M210.148,194.6936a7.0792,7.0792,0,0,1-1.16565.04468,11.36084,11.36084,0,0,1-1.14118-.0874c-.37665-.05347-.75293-.1062-1.12555-.19507a8.57975,8.57975,0,0,1-1.12176-.30884,5.01124,5.01124,0,0,1,1.16565-.133,7.93829,7.93829,0,0,1,1.154.06469,8.44206,8.44206,0,0,1,1.1322.22217A5.81528,5.81528,0,0,1,210.148,194.6936Z" fill="#dd765e"/><path d="M250.66342,347.25117l.59887,18.90863s-10.59913,2.59852-15.59489-9.693l.876-11.04159Z" fill="#f9977a"/><path d="M251.06537,353.69239s8.4287,10.52831,3.757,16.73374a2.59663,2.59663,0,0,1-2.08981,1.0205l-41.787-.22686a1.36231,1.36231,0,0,1-1.34152-1.52256c.23982-2.16476,1.25037-6.07968,5.33809-7.87744,5.81208-2.55612,9.93544,2.04982,19.62724-6.28558C234.56931,355.53419,247.132,359.14443,251.06537,353.69239Z" fill="#935b50"/><path d="M301.14275,347.25117l.59887,18.90863s-10.59912,2.59852-15.59488-9.693l.876-11.04159Z" fill="#f9977a"/><path d="M301.5447,353.69239s8.4287,10.52831,3.757,16.73374a2.59663,2.59663,0,0,1-2.0898,1.0205l-41.78706-.22686a1.36232,1.36232,0,0,1-1.34152-1.52256c.23982-2.16476,1.25037-6.07968,5.33809-7.87744,5.81208-2.55612,9.93544,2.04982,19.62724-6.28558C285.04864,355.53419,297.61135,359.14443,301.5447,353.69239Z" fill="#935b50"/><path d="M274.0935,159.21189,263.06708,164.625a14.30774,14.30774,0,0,0-5.87226,5.323c-2.67053,4.32007-9.86624,21.6687-11.98272,26.82007a2.00622,2.00622,0,0,1-2.14747,1.22192L213.549,193.11985a12.85731,12.85731,0,0,1-2.71808,12.76782l39.07129,11.5664a7.99121,7.99121,0,0,0,8.74149-4.08715l6.1582-11.6792s4.51306,8.76049,10.6189,19.9104l-1.32734,15.92846h63.979l-3.71662-41.67944s.26544-27.07813-12.21173-34.51147c0,0-7.43329-4.77832-21.7688-4.51294a15.18846,15.18846,0,0,0-3.58386-5.27637Z" fill="#f73c4f"/><path d="M338.20639,237.45341s8.48051,31.90891-33.922,32.89072l2.12013,81.32617H281.387l-2.96817-83.7807-20.71271,1.11534-1.76064,82.66536H232.433l1.46317-90.16248c0-13.28488,9.30228-24.05441,20.77724-24.05441Z" fill="#ffba55"/><path d="M307.39387,257.74414a21.16519,21.16519,0,0,1-.1969,6.65332,14.52253,14.52253,0,0,1-.96167,3.22388,6.86135,6.86135,0,0,1-1.95093,2.7229,10.38826,10.38826,0,0,0,1.37646-2.94043,24.66509,24.66509,0,0,0,.76313-3.15259C306.8371,262.116,307.077,259.94409,307.39387,257.74414Z" fill="#e6952a"/><path d="M290.15021,237.45337a4.89419,4.89419,0,0,0-3.98425,1.31348,11.0499,11.0499,0,0,0-2.59851,3.41918,31.2618,31.2618,0,0,0-2.8009,8.24585l-.48493,2.14039-.35278,2.17065-.34992,2.17212c-.07428.73047-.162,1.45923-.25549,2.18823-.41455,2.91187-.56622,5.85156-.9046,8.78638.01147-2.94776.01208-5.90576.30237-8.84912.05255-.73731.11071-1.47461.18243-2.21021l.3172-2.19726.32111-2.19776.45794-2.178a29.66674,29.66674,0,0,1,3.04273-8.36767,11.40545,11.40545,0,0,1,2.88684-3.42481A4.92236,4.92236,0,0,1,290.15021,237.45337Z" fill="#e6952a"/><path d="M257.70612,269.00488l-.92963-2.022c-.31658-.658-.62408-1.314-.99206-1.9292a9.01305,9.01305,0,0,0-2.80713-3.21851,4.26191,4.26191,0,0,1,2.04932,1.02149,7.11,7.11,0,0,1,1.44067,1.8064A9.4237,9.4237,0,0,1,257.70612,269.00488Z" fill="#e6952a"/><path d="M278.64657,222.74723,264.876,220.27729a5.22864,5.22864,0,0,0-4.29017.943l-9.124,6.93426c2,4.74067,26.87933,4.68364,26.87933,4.68364S281.3961,222.90327,278.64657,222.74723Z" fill="#f9977a"/><path d="M254.90772,230.40991a49.905,49.905,0,0,1,3.93665-3.45459c1.36468-1.08252,2.75817-2.12744,4.19464-3.11572l.08044-.05542.06976-.00488q1.75735-.11976,3.53162-.08765-1.724.42-3.46466.68994l.1499-.05981c-1.33514,1.12134-2.71332,2.18628-4.12018,3.21362A49.914,49.914,0,0,1,254.90772,230.40991Z" fill="#dd765e"/><path d="M260.0846,231.60571a26.15724,26.15724,0,0,1,2.575-2.55346c.90888-.78907,1.84015-1.55054,2.81635-2.25684l.07647-.05542.05671-.01a24.74412,24.74412,0,0,1,2.96356-.35327,24.69791,24.69791,0,0,1-2.81391.99487l.13282-.06518c-.8902.812-1.82532,1.56884-2.78278,2.29809A26.18438,26.18438,0,0,1,260.0846,231.60571Z" fill="#dd765e"/><path d="M266.26453,232.36084a10.173,10.173,0,0,1,2.03211-2.82373l.09484-.09937.10621-.01635a8.52954,8.52954,0,0,1,2.22308-.08155,8.54968,8.54968,0,0,1-2.073.80713l.20075-.11548A10.174,10.174,0,0,1,266.26453,232.36084Z" fill="#dd765e"/><path d="M257.70746,187.47925c.733,1.15454,1.39978,2.342,2.05646,3.53467.65814,1.19189,1.262,2.41088,1.89557,3.615.58472,1.22851,1.1955,2.44409,1.75574,3.68481.55969,1.24121,1.10992,2.48706,1.59277,3.7666-.73395-1.15405-1.40051-2.34179-2.05756-3.53418-.65649-1.19262-1.26245-2.41064-1.89447-3.61548-.58313-1.22949-1.1961-2.44384-1.7547-3.68554C258.74122,190.00415,258.19123,188.7583,257.70746,187.47925Z" fill="#b02336"/><path d="M245.363,204.33667a16.88393,16.88393,0,0,1,5.65888,1.69824,11.9978,11.9978,0,0,1,2.498,1.64258,6.60671,6.60671,0,0,1,1.79834,2.36694,10.36464,10.36464,0,0,0-2.12414-1.95239,18.85212,18.85212,0,0,0-2.47663-1.45459c-.853-.44458-1.74163-.82642-2.63482-1.20508C247.18476,205.06494,246.2837,204.69019,245.363,204.33667Z" fill="#b02336"/><path d="M309.74018,180.5769a37.78648,37.78648,0,0,1,1.97131-5.21215,40.42738,40.42738,0,0,1,2.68152-4.90406,23.61624,23.61624,0,0,1,3.55457-4.33667,10.77268,10.77268,0,0,1,4.80072-2.80273,12.73894,12.73894,0,0,0-4.436,3.17285,26.323,26.323,0,0,0-3.35425,4.33545,50.66944,50.66944,0,0,0-2.78241,4.76367C311.31751,177.22559,310.51087,178.88867,309.74018,180.5769Z" fill="#b02336"/><path d="M308.14734,185.35547a89.7351,89.7351,0,0,0,.36737,12.5852,45.50247,45.50247,0,0,0,1.02173,6.19727,19.315,19.315,0,0,0,2.21845,5.80615l.02929.04614.00013.0542.01977,6.63672.00061.186-.1864.0188-34.10321,3.41992.11914-.57569a5.65868,5.65868,0,0,1,2.15161,3.55347,12.7793,12.7793,0,0,1,.17054,4.07935c-.08376.67163-.1872,1.34253-.32013,2.00415-.17005.6521-.29279,1.31958-.50446,1.95825-.37628,1.29419-.86053,2.54614-1.35077,3.79541l-.29571-.4419,34.89294.1045,8.72321.02612,4.36163.01318a15.28134,15.28134,0,0,0,4.2876-.29882,8.08216,8.08216,0,0,0,3.63739-2.17823,8.38786,8.38786,0,0,0,2.0487-3.74145A36.44851,36.44851,0,0,0,336.68061,220a36.51871,36.51871,0,0,1-1.09686,8.64258,8.57858,8.57858,0,0,1-2.02991,3.85937,8.34768,8.34768,0,0,1-3.71845,2.31372,14.66394,14.66394,0,0,1-4.37231.35938l-4.36163.01294-8.72321.02637-34.89294.10449-.46674.00146.1709-.4436c.4751-1.23364.94446-2.46851,1.30469-3.73657a25.13588,25.13588,0,0,0,.80279-3.84839,12.14139,12.14139,0,0,0-.13452-3.866,5.14032,5.14032,0,0,0-1.82605-3.15674l-.72278-.49634.84192-.07934,34.12293-3.2168-.18561.20459.01977-6.63672.02936.10035a19.33369,19.33369,0,0,1-2.22424-5.93262,45.77418,45.77418,0,0,1-.92011-6.25049A89.83242,89.83242,0,0,1,308.14734,185.35547Z" fill="#b02336"/><path d="M295.40461,233.14062a21.5251,21.5251,0,0,0-.0116-3.94213,17.055,17.055,0,0,0-.782-3.812,16.33906,16.33906,0,0,0-.6687-1.82373c-.29877-.5747-.57373-1.16381-.92609-1.71118a20.00118,20.00118,0,0,0-2.38538-3.13061,12.35143,12.35143,0,0,1,2.8194,2.845,12.81848,12.81848,0,0,1,1.80426,3.61743,15.014,15.014,0,0,1,.65491,3.98511A12.917,12.917,0,0,1,295.40461,233.14062Z" fill="#b02336"/><path d="M326.19947,227.16748a35.95,35.95,0,0,0-3.11041-3.33472,28.63478,28.63478,0,0,0-3.50428-2.87915,29.75324,29.75324,0,0,0-3.87732-2.3269,22.64534,22.64534,0,0,0-4.18213-1.62134l-.93261-.25195.86529-.37329a21.31253,21.31253,0,0,1,4.03192-1.25293,16.84426,16.84426,0,0,1,4.19593-.38086,12.43828,12.43828,0,0,1,4.111.89941,9.86357,9.86357,0,0,1,3.33179,2.49561,10.395,10.395,0,0,0-3.45057-2.20215,12.37044,12.37044,0,0,0-4.00457-.69116,19.506,19.506,0,0,0-4.05573.47168,20.75176,20.75176,0,0,0-3.87866,1.26269l-.06732-.62524a20.88189,20.88189,0,0,1,4.31665,1.71411,26.26127,26.26127,0,0,1,3.91138,2.45,27.93716,27.93716,0,0,1,6.29968,6.64624Z" fill="#b02336"/><path d="M252.79621,190.665a30.19734,30.19734,0,0,1,4.43127,1.82983,29.85021,29.85021,0,0,1,4.13025,2.43433,29.87314,29.87314,0,0,1-4.43127-1.83008A30.2241,30.2241,0,0,1,252.79621,190.665Z" fill="#b02336"/><path d="M274.2995,159.60449a5.26007,5.26007,0,0,0-1.267,2.832,18.56875,18.56875,0,0,0-.30835,3.14063c-.02228,1.05517-.01758,2.1123.04956,3.1687.05249,1.05737.17822,2.11011.257,3.16748l-.56079-.188a8.31361,8.31361,0,0,1,2.2453-1.53833,5.89188,5.89188,0,0,1,2.64606-.58838,5.30936,5.30936,0,0,1,2.59369.68531,7.19136,7.19136,0,0,1,1.10083.74584c.33881.2815.6333.61377.94251.91919-.35395-.26049-.68506-.54345-1.04035-.78784a6.94731,6.94731,0,0,0-1.1344-.60669,5.18123,5.18123,0,0,0-2.45361-.47339,6.32193,6.32193,0,0,0-2.39826.64429,7.74647,7.74647,0,0,0-2.02795,1.44751l-.48334.48755-.07763-.67578a37.86767,37.86767,0,0,1-.212-6.43555,18.99217,18.99217,0,0,1,.52051-3.19433,8.39976,8.39976,0,0,1,.59112-1.51294A3.01155,3.01155,0,0,1,274.2995,159.60449Z" fill="#b02336"/><path d="M300.58137,157.21533a28.18634,28.18634,0,0,1-.42048,4.72583,33.98579,33.98579,0,0,1-1.12487,4.62573,31.266,31.266,0,0,1-1.79786,4.42066,26.25841,26.25841,0,0,1-2.51513,4.06616l-.23621.33325-.26172-.33691a9.09969,9.09969,0,0,0-2.05346-1.88574,10.14948,10.14948,0,0,0-2.50946-1.30445,11.53566,11.53566,0,0,0-2.78626-.60547,14.84292,14.84292,0,0,0-2.88666.031,12.63263,12.63263,0,0,1,2.90155-.28882,10.19229,10.19229,0,0,1,2.90656.45435,10.57017,10.57017,0,0,1,2.69269,1.23974,9.61173,9.61173,0,0,1,2.23565,1.99781l-.49768-.00391a32.38658,32.38658,0,0,0,4.25629-8.30249A41.1546,41.1546,0,0,0,300.58137,157.21533Z" fill="#b02336"/><path d="M282.79468,171.949l1.35327,23.65015q.31,5.91138.76813,11.81152c.13971,1.96729.31079,3.93287.53449,5.89063.10077.98071.1961,1.96289.36,2.93408.08289.48511.12482.98071.24152,1.45825l.34546,1.43921a62.56888,62.56888,0,0,1-1.999-11.67553c-.41284-3.93262-.66449-7.87671-.92419-11.8191-.20636-3.94555-.3952-7.89135-.51044-11.83984l-.139-5.92358Z" fill="#b02336"/><path d="M291.66149,114.54831a19.61713,19.61713,0,0,0-9.19482.176c-1.41165.39733-6.57461,1.85046-9.35057,6.46273-1.05432,1.75163-1.41033,3.91943-2.12287,8.255-.445,2.70807-1.6245,4.59041-1.84386,7.91484a28.1464,28.1464,0,0,0,.78478,8.01983c.95528,4.09993.01641,6.33078.57607,7.12249,2.25546,3.19079,9.87146,1.311,9.72089,5.2691-.093,2.444-8.44677,9.912-5.66625,10.60379,6.42631,1.59879,13.97111.00952,17.61844-1.60593.4972-.22022,6.15606-1.48727,5.96689-5.83337-.10111-2.32176-.75567-17.05221-.47505-18.4351,1.01468-4.9983,3.597-5.44445,6.00582-11.40784a9.50388,9.50388,0,0,0-.95964-9.247A19.413,19.413,0,0,0,291.66149,114.54831Z" fill="#f9977a"/><ellipse cx="271.7577" cy="133.7893" rx="1.27628" ry="1.02633" transform="translate(120.24049 396.07608) rotate(-86.19746)" fill="#0a0709"/><ellipse cx="280.99117" cy="134.40299" rx="1.27628" ry="1.02633" transform="translate(128.24927 405.86222) rotate(-86.19746)" fill="#0a0709"/><path d="M276.82282,131.83447a.64351.64351,0,0,1-.38672-.1289,5.47987,5.47987,0,0,0-6.18066-.43653.648.648,0,0,1-.709-1.085,6.882,6.882,0,0,1,7.665.48438.64746.64746,0,0,1-.38867,1.166Z" fill="#1e1d22"/><path d="M286.39216,132.47021a.64351.64351,0,0,1-.38672-.1289,5.4758,5.4758,0,0,0-6.18164-.43555.648.648,0,0,1-.709-1.085,6.876,6.876,0,0,1,7.666.4834.64746.64746,0,0,1-.38867,1.166Z" fill="#1e1d22"/><path d="M277.64222,132.15454a5.08282,5.08282,0,0,1-.471,3.20068,11.75393,11.75393,0,0,1-1.76495,2.75855c-.36426.41846-.875.71533-.87031,1.15063a1.848,1.848,0,0,0,.606,1.27735,3.98673,3.98673,0,0,0,2.93366.85815,3.71508,3.71508,0,0,1-3.16083-.61572,2.05937,2.05937,0,0,1-.77124-1.54175,1.25737,1.25737,0,0,1,.38879-.84033l.55793-.58179a12.891,12.891,0,0,0,1.7879-2.61841A5.7905,5.7905,0,0,0,277.64222,132.15454Z" fill="#dd765e"/><path d="M294.3935,133.70093a2.69338,2.69338,0,0,1,2.04462,1.00219,4.74779,4.74779,0,0,1,.63494.97388l.21344.53516c.04291.18921.09858.37134.12745.56152a15.42138,15.42138,0,0,0-1.29834-1.78418,4.73147,4.73147,0,0,0-.77338-.73877A3.89605,3.89605,0,0,0,294.3935,133.70093Z" fill="#dd765e"/><path d="M294.8725,139.06665a3.748,3.748,0,0,1-.23681-2.46118,4.14852,4.14852,0,0,1,.48516-1.16626,3.45138,3.45138,0,0,1,.83112-.92822c-.18854.37231-.39368.7124-.53638,1.08154a5.29681,5.29681,0,0,0-.35986,1.11084A7.86867,7.86867,0,0,0,294.8725,139.06665Z" fill="#dd765e"/><path d="M291.69824,140.7171a9.9958,9.9958,0,0,1,.94831-4.19654c.85466-1.81477,1.92-4.29406,3.75389-4.34191,1.35121-.03526,1.91428-.354,2.31169.97428.65656,2.19725-.889,4.47027-1.965,6.05351-1.54058,2.26533-2.74987,2.70187-2.87964,4.3314-.09914,1.24308,3.28489,4.00406,3.99039,3.56291,1.43815-.89928.88408-3.91757,5.098-10.73282,2.6612-4.30351,3.80407-5.068,4.26294-7.83446.16287-.98227.83719-5.04884-1.46812-7.59324-1.06933-1.18019-1.74148-.88695-6.57027-3.3212a41.06843,41.06843,0,0,1-3.91674-2.13127c-3.814-2.42495-3.652-3.53114-5.92419-4.34341-2.05264-.73368-2.236.15133-6.21527-.35075-3.83652-.484-4.12115-1.36421-5.93548-.97476-3.15009.676-4.85434,3.87928-5.312,4.74a10.66314,10.66314,0,0,0-1.52338,4.89311,9.61978,9.61978,0,0,0,1.55693,4.9639c.46816.54492,2.70064-2.26835,3.8841-3.30387,1.16038-1.01445,2.36693-.4873,4.04442-.2706,1.63559.21128,1.47776,1.22821,3.84735,2.28775.84428.37746,4.416-.94582,5.40785,1.04811,1.05685,2.12451,1.9678,2.434,1.2813,4.29983-.42893,1.1657-.30949,2.64083-.07067,5.59124.17118,2.11732-2.012,9.328-2.012,9.328C287.57945,144.63837,291.67694,143.95433,291.69824,140.7171Z" fill="#1e1d22"/><path d="M279.90229,146.04175a4.68867,4.68867,0,0,1-1.72882,1.40185,4.91356,4.91356,0,0,1-2.24433.51563,5.22186,5.22186,0,0,1-1.17212-.1836,4.30876,4.30876,0,0,1-1.05114-.52832,4.09243,4.09243,0,0,1-1.44336-1.71337,11.57639,11.57639,0,0,0,1.82782,1.00512,4.723,4.723,0,0,0,1.86285.38843A10.70649,10.70649,0,0,0,279.90229,146.04175Z" fill="#dd765e"/><path d="M276.40483,141.42443c-2.17455-.22022-2.51034-1.3364-6.59929,3.37668,0,0,4.31458-1.03934,12.56456,1.54372C282.3701,146.34483,279.51832,141.73973,276.40483,141.42443Z" fill="#1e1d22"/><path d="M300.47933,157.21534s-.26547,9.8225-6.10588,17.654a10.75376,10.75376,0,0,0-10.48618-3.58389s14.76407-12.25207,14.10445-14.07006Z" fill="#f73c4f"/><path d="M281.89623,171.94908c-4.77851-4.77851-9.29155,0-9.29155,0-1.19463-10.88438,1.59284-12.34448,1.59284-12.34448l5.99369-2.38926Z" fill="#f73c4f"/><path d="M274.19751,159.60449a5.26007,5.26007,0,0,0-1.267,2.832,18.56259,18.56259,0,0,0-.30835,3.14063c-.02234,1.05517-.01758,2.1123.04956,3.1687.05249,1.05737.17822,2.11011.257,3.16748l-.56086-.188a8.3139,8.3139,0,0,1,2.24536-1.53833,5.89153,5.89153,0,0,1,2.64606-.58838,5.30914,5.30914,0,0,1,2.59363.68531,7.189,7.189,0,0,1,1.10089.74584c.33881.2815.63324.61377.94251.91919-.35395-.26049-.68506-.54345-1.04035-.78784a6.95032,6.95032,0,0,0-1.13446-.60669,5.181,5.181,0,0,0-2.45355-.47339,6.32163,6.32163,0,0,0-2.39826.64429,7.74647,7.74647,0,0,0-2.02795,1.44751l-.4834.48755-.07757-.67578a37.86769,37.86769,0,0,1-.212-6.43555,18.99826,18.99826,0,0,1,.52051-3.19433,8.39976,8.39976,0,0,1,.59112-1.51294A3.01169,3.01169,0,0,1,274.19751,159.60449Z" fill="#b02336"/><path d="M300.47931,157.21533a28.179,28.179,0,0,1-.42047,4.72583,33.97671,33.97671,0,0,1-1.12481,4.62573,31.266,31.266,0,0,1-1.79786,4.42066,26.263,26.263,0,0,1-2.51513,4.06616l-.23627.33325-.26166-.33691a9.101,9.101,0,0,0-2.05346-1.88574,10.1508,10.1508,0,0,0-2.50953-1.30445,11.5351,11.5351,0,0,0-2.78619-.60547,14.84287,14.84287,0,0,0-2.88666.031,12.6323,12.6323,0,0,1,2.90155-.28882,10.19155,10.19155,0,0,1,2.9065.45435,10.56961,10.56961,0,0,1,2.69275,1.23974,9.61146,9.61146,0,0,1,2.23559,1.99781l-.49768-.00391a32.38677,32.38677,0,0,0,4.25635-8.30249A41.15059,41.15059,0,0,0,300.47931,157.21533Z" fill="#b02336"/><rect x="168.24421" y="238.75618" width="8.36938" height="132.7578" transform="translate(344.8578 610.27015) rotate(-180)" fill="#935b50"/><rect x="152.22078" y="232.33727" width="251.51066" height="6.41891" rx="1.44287" transform="translate(555.95221 471.09345) rotate(-180)" fill="#935b50"/><rect x="378.67098" y="238.75618" width="8.36938" height="132.7578" transform="translate(765.71134 610.27015) rotate(-180)" fill="#935b50"/><path d="M164.54891,238.75618H390.831a2.88575,2.88575,0,0,1,2.88575,2.88575v18.10962a0,0,0,0,1,0,0H161.66316a0,0,0,0,1,0,0V241.64192A2.88575,2.88575,0,0,1,164.54891,238.75618Z" transform="translate(555.37995 498.50772) rotate(-180)" fill="#c38f86"/><line x1="1" y1="371.61721" x2="479.28025" y2="371.61721" fill="none" stroke="#935b50" stroke-linecap="round" stroke-linejoin="round" stroke-width="2"/></g></g></svg>