<svg id="Layer_1" data-name="Layer 1" xmlns="http://www.w3.org/2000/svg" viewBox="0 0 700 550"><title>women picking out bowl </title><path d="M130.79951,344.01791c11.762,64.2943,147.54264,169.98532,193.37808,84.93478,24.12676-44.76891,95.65792-109.43057,150.78354-147.8958C528.563,243.65457,376.621,178.73614,281.5834,196.12232S119.03751,279.72361,130.79951,344.01791Z" fill="#efedef"/><path d="M113.087,345.772c-6.27441-34.29883,7.55078-70.13769,38.92774-100.91406,31.31933-30.71973,76.39648-52.72852,126.92675-61.97266,37.99122-6.94629,89.123-2.19531,136.78028,12.7168,45.52637,14.24609,78.64941,34.707,86.44433,53.39844,4.35645,10.44629.665,20.15039-10.6748,28.0625l-.63867-.916c11.01172-7.68359,14.4707-16.67285,10.28222-26.71679-7.67089-18.39551-40.52736-38.61231-85.74609-52.76172-47.49316-14.86133-98.4248-19.60547-136.24609-12.6836-50.31348,9.20313-95.1836,31.10547-126.34571,61.6709-31.10449,30.50879-44.8164,65.99219-38.61035,99.915Z" fill="#efedef"/><polygon points="537.379 318.737 518.839 318.737 521.194 313.205 535.024 313.205 537.379 318.737" fill="#f65b2b"/><rect x="299.41745" y="318.71543" width="262.8411" height="141.69384" rx="4.80299" transform="translate(861.676 779.12469) rotate(-180)" fill="#935b50"/><rect x="481.70908" y="333.73159" width="69.78082" height="111.66152" rx="4.80299" transform="translate(1033.19899 779.12469) rotate(-180)" fill="#e19974"/><rect x="401.15961" y="333.73159" width="69.78082" height="111.66152" rx="4.80299" transform="translate(872.10005 779.12469) rotate(-180)" fill="#e19974"/><rect x="310.18609" y="415.4132" width="81.10944" height="29.97991" rx="4.80299" transform="translate(701.48163 860.80631) rotate(-180)" fill="#e19974"/><rect x="310.18609" y="374.66464" width="81.10944" height="29.97991" rx="4.80299" transform="translate(701.48163 779.3092) rotate(-180)" fill="#e19974"/><rect x="310.18609" y="333.73159" width="81.10944" height="29.97991" rx="4.80299" transform="translate(701.48163 697.44308) rotate(-180)" fill="#e19974"/><rect x="342.45223" y="218.70949" width="66.4209" height="0.96094" fill="#b02336"/><rect x="408.39266" y="215.31301" width="0.96094" height="8.14063" fill="#b02336"/><rect x="341.62703" y="215.31301" width="0.96094" height="8.14063" fill="#b02336"/><path d="M354.8122,218.63053a8.98809,8.98809,0,0,0-.97467,2.21576,12.66495,12.66495,0,0,0-.47913,2.21575,17.61958,17.61958,0,0,0,.32294,4.43128q.20191,2.21588.48475,4.43151c.2174,1.477.3879,2.95426.64611,4.43128a.16387.16387,0,0,0,.32293,0c.258-1.477.42871-2.95426.64611-4.43128q.28282-2.21587.48475-4.43151a17.61958,17.61958,0,0,0,.32294-4.43128,12.66495,12.66495,0,0,0-.47913-2.21575,8.98809,8.98809,0,0,0-.97467-2.21576.19068.19068,0,0,0-.26266-.06027A.19449.19449,0,0,0,354.8122,218.63053Z" fill="#e19974"/><path d="M398.20616,218.26679a10.81614,10.81614,0,0,0-.97467,2.49718,15.85493,15.85493,0,0,0-.47913,2.49695,22.3233,22.3233,0,0,0,.32294,4.99413q.20193,2.49729.48452,4.99412c.21764,1.66487.38813,3.3295.64634,4.99413a.16339.16339,0,0,0,.32294,0c.258-1.66463.4287-3.32926.6461-4.99413q.28284-2.49694.48452-4.99412a22.32231,22.32231,0,0,0,.32317-4.99413,15.88117,15.88117,0,0,0-.47912-2.49695,10.827,10.827,0,0,0-.97467-2.49718.18483.18483,0,0,0-.32294,0Z" fill="#e19974"/><path d="M385.73644,218.26679a9.00059,9.00059,0,0,0-.97467,2.21716,12.72666,12.72666,0,0,0-.47913,2.21717,17.64418,17.64418,0,0,0,.32317,4.43432q.20193,2.21693.48452,4.43409c.21764,1.47819.38814,2.95614.64611,4.43433a.16407.16407,0,0,0,.32317,0c.258-1.47819.42847-2.95614.6461-4.43433q.28284-2.21693.48453-4.43409a17.64418,17.64418,0,0,0,.32317-4.43432,12.7285,12.7285,0,0,0-.47913-2.21717,9.001,9.001,0,0,0-.97467-2.21716.19071.19071,0,0,0-.26266-.06027A.1951.1951,0,0,0,385.73644,218.26679Z" fill="#e19974"/><path d="M365.30932,299.16268a18.26639,18.26639,0,0,0,4.3635,1.9287,26.5359,26.5359,0,0,0,4.36326.93222,16.14416,16.14416,0,0,0,4.36327-.03166c1.4545-.21529,2.90876-.46834,4.36326-.60413l4.36327-.42894,4.36326-.52462c2.909-.38954,5.81777-.76923,8.72677-1.27157a.32262.32262,0,0,0,0-.63579c-2.909-.50234-5.81777-.8818-8.72677-1.27157l-4.36326-.52439-4.36327-.42918c-1.4545-.13578-2.90876-.38883-4.36326-.60412a16.15307,16.15307,0,0,0-4.36327-.03166,26.53487,26.53487,0,0,0-4.36326.93222,18.27555,18.27555,0,0,0-4.3635,1.9287.3753.3753,0,0,0-.11867.51712A.382.382,0,0,0,365.30932,299.16268Z" fill="#e19974"/><path d="M389.87407,313.2229h99.24384a0,0,0,0,1,0,0v3.57133a1.9212,1.9212,0,0,1-1.9212,1.9212H391.79527a1.9212,1.9212,0,0,1-1.9212-1.9212V313.2229a0,0,0,0,1,0,0Z" transform="translate(878.99198 631.93833) rotate(-180)" fill="#c6c6c6"/><path d="M456.4243,308.56487h22.48493a0,0,0,0,1,0,0v2.73683a1.9212,1.9212,0,0,1-1.9212,1.9212H458.3455a1.9212,1.9212,0,0,1-1.9212-1.9212v-2.73683a0,0,0,0,1,0,0Z" transform="translate(935.33354 621.78778) rotate(-180)" fill="#a0a0a0"/><rect x="399.35048" y="308.56487" width="22.48493" height="4.65803" transform="translate(821.18589 621.78778) rotate(-180)" fill="#a0a0a0"/><circle cx="497.74308" cy="389.56235" r="5.26535" fill="#935b50"/><circle cx="454.90644" cy="389.56235" r="5.26535" fill="#935b50"/><circle cx="350.74081" cy="348.72154" r="5.26535" fill="#935b50"/><circle cx="350.74081" cy="389.6424" r="5.26535" fill="#935b50"/><circle cx="350.74081" cy="430.56325" r="5.26535" fill="#935b50"/><rect x="456.17" y="170.24562" width="66.4209" height="0.96094" fill="#b02336"/><rect x="455.68953" y="166.85012" width="0.96094" height="8.14063" fill="#b02336"/><rect x="522.45516" y="166.85012" width="0.96094" height="8.14063" fill="#b02336"/><path d="M463.87516,168.99908a22.596,22.596,0,0,1,1.96013,5.03025,34.24891,34.24891,0,0,1,.94746,5.03024,21.10843,21.10843,0,0,1-.03236,5.03024c-.21881,1.67683-.47608,3.35342-.61374,5.03025l-.43621,5.03024-.53307,5.03025c-.39587,3.35341-.78166,6.70683-1.29221,10.06048a.32681.32681,0,0,1-.64611,0c-.51055-3.35365-.89634-6.70707-1.29221-10.06048l-.53307-5.03025-.4362-5.03024c-.13767-1.67683-.39494-3.35342-.61375-5.03025a21.09642,21.09642,0,0,1-.03236-5.03024,34.24891,34.24891,0,0,1,.94746-5.03024,22.596,22.596,0,0,1,1.96013-5.03025.36928.36928,0,0,1,.64611,0Z" fill="#e19974"/><path d="M517.7327,185.781l-4.1257-1.24015a7.64764,7.64764,0,0,0,.32552-2.20356,7.5558,7.5558,0,1,0-15.1116,0,7.64763,7.64763,0,0,0,.32551,2.20356l-4.12569,1.24015a11.86349,11.86349,0,1,1,22.712,0Z" fill="#e19974"/><path d="M506.3725,239.88028a11.87338,11.87338,0,0,1-11.39116-15.17446l4.13507,1.20826a7.55462,7.55462,0,1,0,14.52061-.00845l4.13508-1.20825a11.88077,11.88077,0,0,1-11.3996,15.1829Z" fill="#e19974"/><circle cx="463.55209" cy="218.90846" r="20.43616" fill="#c6c6c6"/><circle cx="506.37482" cy="205.24093" r="23.8794" fill="#c6c6c6"/><circle cx="506.37482" cy="205.24093" r="13.26099" fill="#a0a0a0"/><circle cx="463.55206" cy="218.50192" r="13.26099" fill="#a0a0a0"/><path d="M359.74151,229.29814v18.52144l-4.88709-2.25727a8.00483,8.00483,0,0,1,.74392-14.83357Z" fill="#c6c6c6"/><path d="M368.81772,219.279a8.98841,8.98841,0,0,0-.97467,2.21575,12.66411,12.66411,0,0,0-.47912,2.21576,17.61953,17.61953,0,0,0,.32293,4.43127q.20193,2.21587.48476,4.43152c.2174,1.477.3879,2.95426.6461,4.43127a.16387.16387,0,0,0,.32294,0c.258-1.477.4287-2.95426.6461-4.43127q.28284-2.21588.48476-4.43152a17.62,17.62,0,0,0,.32294-4.43127,12.66506,12.66506,0,0,0-.47913-2.21576,8.98841,8.98841,0,0,0-.97467-2.21575.19066.19066,0,0,0-.26266-.06027A.19442.19442,0,0,0,368.81772,219.279Z" fill="#e19974"/><path d="M373.747,229.94657V248.468l-4.8871-2.25727a8.00482,8.00482,0,0,1,.74392-14.83356Z" fill="#c6c6c6"/><path d="M394.86909,255.27605l1.89118-.65666a11.8855,11.8855,0,0,0,7.98691-11.22792v0a11.8855,11.8855,0,0,0-7.98691-11.22792l-1.89118-.65666Z" fill="#c6c6c6"/><path d="M383.51034,251.97547l6.0357-2.09573a1.9212,1.9212,0,0,0,1.291-1.81491V233.88871a1.9212,1.9212,0,0,0-1.291-1.8149l-6.0357-2.09573a1.92119,1.92119,0,0,0-2.55137,1.8149v18.36758A1.9212,1.9212,0,0,0,383.51034,251.97547Z" fill="#c6c6c6"/><path d="M432.50567,291.67609l-5.41589,15.59776a1.92118,1.92118,0,0,1-1.8149,1.291h-30.5445a1.92118,1.92118,0,0,1-1.8149-1.291l-5.41589-15.59776a1.92119,1.92119,0,0,1,1.8149-2.55137h41.37628A1.92119,1.92119,0,0,1,432.50567,291.67609Z" fill="#c6c6c6"/><path d="M391.59761,292.70168a24.27179,24.27179,0,0,0,3.169,5.846,21.21739,21.21739,0,0,0,4.67139,4.59643,18.60346,18.60346,0,0,0,2.80365,1.70215,21.43784,21.43784,0,0,0,3.04058,1.26343,24.625,24.625,0,0,0,6.54547,1.18213,17.95934,17.95934,0,0,1-6.75274-.4729,18.43106,18.43106,0,0,1-10.91284-7.8523,20.59852,20.59852,0,0,1-1.59186-3.019A17.59329,17.59329,0,0,1,391.59761,292.70168Z" fill="#a0a0a0"/><path d="M397.46388,290.37966a17.64619,17.64619,0,0,0,2.281,4.49487,14.53722,14.53722,0,0,0,3.48035,3.49439,14.69672,14.69672,0,0,0,4.42907,2.16919,17.86415,17.86415,0,0,0,4.98841.73486,12.70985,12.70985,0,0,1-15.17884-10.89331Z" fill="#a0a0a0"/><path d="M320.187,312.42723s17.98241-18.84694,36.65644-2.42071Z" fill="#d8a935"/><polygon points="355.527 318.715 322.531 318.715 312.925 308.565 365.133 308.565 355.527 318.715" fill="#c6c6c6"/><path d="M349.50417,289.3174a3.28205,3.28205,0,0,1,1.39837,1.28882,2.37236,2.37236,0,0,1,.10431,1.95728,8.26556,8.26556,0,0,1-.93512,1.68872c-.35174.5664-.899.97-1.17669,1.44751a5.3996,5.3996,0,0,0-.74378,1.61914,3.67884,3.67884,0,0,0,.02338,1.74658,3.50254,3.50254,0,0,0,2.408,2.50732,3.38624,3.38624,0,0,1-1.73908-.76123,3.63894,3.63894,0,0,1-1.0711-1.6289,3.69127,3.69127,0,0,1-.10486-1.97242,5.85557,5.85557,0,0,1,.77-1.80517,4.27325,4.27325,0,0,1,.6449-.75342,5.25219,5.25219,0,0,0,.58386-.6831,11.08973,11.08973,0,0,0,.95227-1.55738,2.04,2.04,0,0,0,.04425-1.69067A3.452,3.452,0,0,0,349.50417,289.3174Z" fill="#bababa"/><path d="M340.201,278.12453a3.28065,3.28065,0,0,1,1.39843,1.28882,2.37178,2.37178,0,0,1,.10431,1.957,8.2653,8.2653,0,0,1-.93512,1.68872c-.35174.56641-.899.97-1.17669,1.44751a5.40375,5.40375,0,0,0-.74378,1.61914,3.6788,3.6788,0,0,0,.02338,1.74658,3.502,3.502,0,0,0,2.408,2.50733,3.38426,3.38426,0,0,1-1.73908-.76123,3.63759,3.63759,0,0,1-1.0711-1.62891,3.68917,3.68917,0,0,1-.10486-1.97217,5.85156,5.85156,0,0,1,.77-1.80517,4.26072,4.26072,0,0,1,.6449-.75366,5.26631,5.26631,0,0,0,.5838-.68287,11.09212,11.09212,0,0,0,.95227-1.55737,2.04061,2.04061,0,0,0,.04431-1.69092A3.4515,3.4515,0,0,0,340.201,278.12453Z" fill="#bababa"/><path d="M330.26369,286.574a3.28059,3.28059,0,0,1,1.39838,1.28882,2.37235,2.37235,0,0,1,.1043,1.95728,8.26556,8.26556,0,0,1-.93512,1.68872c-.35174.5664-.899.97-1.17669,1.44751a5.3996,5.3996,0,0,0-.74378,1.61914,3.67793,3.67793,0,0,0,.02338,1.74634,3.50248,3.50248,0,0,0,2.408,2.50757,3.38633,3.38633,0,0,1-1.73908-.76124,3.639,3.639,0,0,1-1.0711-1.6289,3.69124,3.69124,0,0,1-.10486-1.97241,5.85552,5.85552,0,0,1,.77-1.80518,4.27325,4.27325,0,0,1,.6449-.75342,5.26813,5.26813,0,0,0,.58386-.6831,11.08785,11.08785,0,0,0,.95227-1.55738,2.04,2.04,0,0,0,.04425-1.69067A3.452,3.452,0,0,0,330.26369,286.574Z" fill="#bababa"/><path d="M502.29813,289.02574h50.86878a0,0,0,0,1,0,0v.066a25.43437,25.43437,0,0,1-25.43437,25.43437h-.00005a25.43437,25.43437,0,0,1-25.43437-25.43437v-.066A0,0,0,0,1,502.29813,289.02574Z" fill="#7ca1b1"/><path d="M554.26909,289.96774H501.19591a.942.942,0,1,1,0-1.884h53.07318a.942.942,0,0,1,0,1.884Z" fill="#f65b2b"/><path d="M505.35026,293.84067a.40654.40654,0,0,0,0-.8126.40654.40654,0,0,0,0,.8126Z" fill="#fff"/><path d="M512.13276,293.50154a.40654.40654,0,0,0,0-.8126.40654.40654,0,0,0,0,.8126Z" fill="#fff"/><path d="M518.57614,293.84067a.40654.40654,0,0,0,0-.8126.40654.40654,0,0,0,0,.8126Z" fill="#fff"/><path d="M524.6804,293.6711a.40654.40654,0,0,0,0-.81259.40654.40654,0,0,0,0,.81259Z" fill="#fff"/><path d="M530.95421,293.6711a.40654.40654,0,0,0,0-.81259.40654.40654,0,0,0,0,.81259Z" fill="#fff"/><path d="M537.05847,293.6711a.40654.40654,0,0,0,0-.81259.40654.40654,0,0,0,0,.81259Z" fill="#fff"/><path d="M543.33228,293.6711a.40654.40654,0,0,0,0-.81259.40654.40654,0,0,0,0,.81259Z" fill="#fff"/><path d="M549.77566,293.6711a.40654.40654,0,0,0,0-.81259.40654.40654,0,0,0,0,.81259Z" fill="#fff"/><path d="M508.91107,297.458a.40654.40654,0,0,0,0-.8126.40654.40654,0,0,0,0,.8126Z" fill="#fff"/><path d="M515.12837,297.345a.40654.40654,0,0,0,0-.8126.40654.40654,0,0,0,0,.8126Z" fill="#fff"/><path d="M521.68479,297.23192a.40654.40654,0,0,0,0-.8126.40654.40654,0,0,0,0,.8126Z" fill="#fff"/><path d="M527.676,297.11888a.40654.40654,0,0,0,0-.8126.40654.40654,0,0,0,0,.8126Z" fill="#fff"/><path d="M533.78026,297.11888a.40654.40654,0,0,0,0-.8126.40654.40654,0,0,0,0,.8126Z" fill="#fff"/><path d="M540.33668,297.11888a.40654.40654,0,0,0,0-.8126.40654.40654,0,0,0,0,.8126Z" fill="#fff"/><path d="M546.667,297.23192a.40654.40654,0,0,0,0-.8126.40654.40654,0,0,0,0,.8126Z" fill="#fff"/><path d="M511.85016,300.73621a.40654.40654,0,0,0,0-.8126.40654.40654,0,0,0,0,.8126Z" fill="#fff"/><path d="M518.51962,300.62317a.40654.40654,0,0,0,0-.8126.40654.40654,0,0,0,0,.8126Z" fill="#fff"/><path d="M515.24141,304.12747a.40654.40654,0,0,0,0-.8126.40654.40654,0,0,0,0,.8126Z" fill="#fff"/><path d="M518.29354,307.97088a.40654.40654,0,0,0,0-.81259.40654.40654,0,0,0,0,.81259Z" fill="#fff"/><path d="M521.68479,311.58822a.40654.40654,0,0,0,0-.8126.40654.40654,0,0,0,0,.8126Z" fill="#fff"/><path d="M524.73692,307.63176a.40654.40654,0,0,0,0-.8126.40654.40654,0,0,0,0,.8126Z" fill="#fff"/><path d="M527.789,311.36214a.40654.40654,0,0,0,0-.8126.40654.40654,0,0,0,0,.8126Z" fill="#fff"/><path d="M530.95421,307.7448a.40654.40654,0,0,0,0-.8126.40654.40654,0,0,0,0,.8126Z" fill="#fff"/><path d="M534.23242,311.58822a.40654.40654,0,0,0,0-.8126.40654.40654,0,0,0,0,.8126Z" fill="#fff"/><path d="M537.51063,307.63176a.40654.40654,0,0,0,0-.8126.40654.40654,0,0,0,0,.8126Z" fill="#fff"/><path d="M540.44972,304.24051a.40654.40654,0,0,0,0-.8126.40654.40654,0,0,0,0,.8126Z" fill="#fff"/><path d="M543.72793,300.39709a.40654.40654,0,0,0,0-.8126.40654.40654,0,0,0,0,.8126Z" fill="#fff"/><path d="M537.05847,300.28405a.40654.40654,0,0,0,0-.8126.40654.40654,0,0,0,0,.8126Z" fill="#fff"/><path d="M533.8933,304.57963a.40654.40654,0,0,0,0-.8126.40654.40654,0,0,0,0,.8126Z" fill="#fff"/><path d="M530.72813,300.62317a.40654.40654,0,0,0,0-.8126.40654.40654,0,0,0,0,.8126Z" fill="#fff"/><path d="M527.676,304.35355a.40654.40654,0,0,0,0-.8126.40654.40654,0,0,0,0,.8126Z" fill="#fff"/><path d="M524.62387,300.39709a.40654.40654,0,0,0,0-.8126.40654.40654,0,0,0,0,.8126Z" fill="#fff"/><path d="M521.57175,304.01442a.40654.40654,0,0,0,0-.8126.40654.40654,0,0,0,0,.8126Z" fill="#fff"/><path d="M473.50877,274.10535H462.01928a1.08138,1.08138,0,0,1-1.08146-1.08146v-3.1825a3.24794,3.24794,0,0,1,3.24439-3.24439h7.16363a3.24794,3.24794,0,0,1,3.24439,3.24439v3.1825A1.08138,1.08138,0,0,1,473.50877,274.10535Zm-10.408-2.16293h9.32657v-2.101a1.08274,1.08274,0,0,0-1.08147-1.08147h-7.16363a1.08274,1.08274,0,0,0-1.08147,1.08147Z" fill="#7ca1b1"/><path d="M496.38382,285.03805H438.81535a1.4059,1.4059,0,0,1,0-2.8118h57.56847a1.4059,1.4059,0,1,1,0,2.8118Z" fill="#7ca1b1"/><path d="M487.32551,308.627H448.23712a1.94664,1.94664,0,0,1-1.94664-1.94663V278.25947h42.98167v28.42085A1.94664,1.94664,0,0,1,487.32551,308.627Z" fill="#ffba55"/><path d="M448.23712,272.15875h39.0884a1.94663,1.94663,0,0,1,1.94663,1.94663v4.15409a0,0,0,0,1,0,0H446.29048a0,0,0,0,1,0,0v-4.15409A1.94663,1.94663,0,0,1,448.23712,272.15875Z" fill="#e6952a"/><path d="M344.62961,125.91636h0a10.40319,10.40319,0,0,1,10.40319,10.40319v.027a0,0,0,0,1,0,0H334.22642a0,0,0,0,1,0,0v-.027a10.40319,10.40319,0,0,1,10.40319-10.40319Z" transform="translate(709.49073 184.43625) rotate(167.48009)" fill="#7ca1b1"/><path d="M342.77125,132.83742h0a10.40319,10.40319,0,0,1,10.40319,10.40319v.027a0,0,0,0,1,0,0H332.36806a0,0,0,0,1,0,0v-.027A10.40319,10.40319,0,0,1,342.77125,132.83742Z" transform="translate(665.24832 318.49413) rotate(-172.70817)" fill="#f65b2b"/><polygon points="338.858 151.041 346.441 151.041 345.478 148.778 339.821 148.778 338.858 151.041" fill="#ffba55"/><path d="M342.80367,139.093h0a10.40319,10.40319,0,0,1,10.40319,10.40319v.027a0,0,0,0,1,0,0H332.40048a0,0,0,0,1,0,0v-.027A10.40319,10.40319,0,0,1,342.80367,139.093Z" transform="translate(685.60736 288.61626) rotate(-180)" fill="#7ca1b1"/><path d="M314.768,119.445h0a13.08277,13.08277,0,0,1,13.08277,13.08277v.03393a0,0,0,0,1,0,0H301.68527a0,0,0,0,1,0,0v-.03393A13.08277,13.08277,0,0,1,314.768,119.445Z" transform="translate(649.36604 180.77534) rotate(167.48007)" fill="#7ca1b1"/><path d="M312.431,128.14876h0a13.08277,13.08277,0,0,1,13.08277,13.08277v.03393a0,0,0,0,1,0,0H299.34825a0,0,0,0,1,0,0v-.03393A13.08277,13.08277,0,0,1,312.431,128.14876Z" transform="translate(605.23785 307.97951) rotate(-172.70817)" fill="#f65b2b"/><polygon points="307.51 151.041 317.046 151.041 315.835 148.195 308.721 148.195 307.51 151.041" fill="#ffba55"/><path d="M312.47179,136.01566h0a13.08277,13.08277,0,0,1,13.08277,13.08277v.03393a0,0,0,0,1,0,0H299.389a0,0,0,0,1,0,0v-.03393A13.08277,13.08277,0,0,1,312.47179,136.01566Z" transform="translate(624.94361 285.14802) rotate(180)" fill="#7ca1b1"/><path d="M383.03444,115.4376v-3.1825a3.24793,3.24793,0,0,1,3.24438-3.24439h7.16364a3.24794,3.24794,0,0,1,3.24439,3.24439v3.1825a1.08138,1.08138,0,0,1-1.08146,1.08146H384.1159A1.08138,1.08138,0,0,1,383.03444,115.4376Zm11.48948-3.1825a1.08274,1.08274,0,0,0-1.08146-1.08146h-7.16364a1.08274,1.08274,0,0,0-1.08146,1.08146v2.101h9.32656Z" fill="#7ca1b1"/><path d="M361.24084,127.45177h57.56848a1.4059,1.4059,0,0,0,0-2.81181H361.24084a1.40591,1.40591,0,0,0,0,2.81181Z" fill="#7ca1b1"/><path d="M370.29915,151.04066h39.0884a1.94662,1.94662,0,0,0,1.94663-1.94663V120.67318H368.35252V149.094A1.94663,1.94663,0,0,0,370.29915,151.04066Z" fill="#ffba55"/><path d="M368.35252,114.57246h42.98167a0,0,0,0,1,0,0v4.15409a1.94663,1.94663,0,0,1-1.94663,1.94663h-39.0884a1.94663,1.94663,0,0,1-1.94663-1.94663v-4.15409A0,0,0,0,1,368.35252,114.57246Z" transform="translate(779.6867 235.24564) rotate(-180)" fill="#e6952a"/><path d="M406.02106,154.878h3.37866a1.20951,1.20951,0,0,1,1.20951,1.20951v14.488a0,0,0,0,1,0,0h-5.79768a0,0,0,0,1,0,0v-14.488A1.20951,1.20951,0,0,1,406.02106,154.878Z" transform="translate(815.42079 325.45346) rotate(-180)" fill="#935b50"/><path d="M309.175,154.878h3.37866a1.20951,1.20951,0,0,1,1.20951,1.20951v14.488a0,0,0,0,1,0,0h-5.79768a0,0,0,0,1,0,0v-14.488A1.20951,1.20951,0,0,1,309.175,154.878Z" transform="translate(621.72859 325.45346) rotate(-180)" fill="#935b50"/><path d="M292.652,156.41719H421.03484a1.43475,1.43475,0,0,0,1.3-1.539c0-.84989-.582-3.83756-1.3-3.83756H292.652c-.71789,0-1.29995,2.98767-1.29995,3.83756A1.43476,1.43476,0,0,0,292.652,156.41719Z" fill="#d6694b"/><line x1="99.31751" y1="460.40927" x2="600.68249" y2="460.40927" fill="none" stroke="#935b50" stroke-linecap="round" stroke-linejoin="round" stroke-width="2"/><path d="M165.79409,417.40114s-18.94734,16.79592-17.94633,18.52492,36.22755,30.57253,32.08691,22.12693l-5.93951-10.66165a13.86577,13.86577,0,0,1,.96675-14.99555l4.70723-6.36161Z" fill="#f9977a"/><path d="M178.23066,454.99422l-8.0046-4.552a33.11273,33.11273,0,0,1,4.81677-.819,1.46614,1.46614,0,0,0,1.12082-2.18152,2.45144,2.45144,0,0,0-2.118-1.24912A24.9499,24.9499,0,0,0,167,447.74265l-3.08426-2.58083c.323-2.09234.50911-8.77616-7.06077-19.49889a.67929.67929,0,0,0-1.02446-.09551l-1.39813,1.35108a.677.677,0,0,0-.087.87054,41.15976,41.15976,0,0,1,6.20764,14.55887l-11.035-9.234c-2.56145,1.1767-3.90878,4.99309-3.90878,4.99309,2.20029,2.21874,18.432,23.16951,30.532,23.16951,5.96692,0,7.92516,1.02611,9.7584,0C189.32825,459.3574,178.23066,454.99422,178.23066,454.99422Z" fill="#376f92"/><path d="M211.59584,430.00418S206.5933,454.82513,208.434,455.602s50.1088,3.79869,41.71557-.44712l-13.93905-6.1562a13.86573,13.86573,0,0,1-8.2633-12.55065l-.076-7.91343Z" fill="#f9977a"/><path d="M248.38137,454.37393l-13.34092-.66945a33.11152,33.11152,0,0,1,3.35087-3.5558,1.46616,1.46616,0,0,0-.41983-2.41642,2.45148,2.45148,0,0,0-2.443.27916,24.95,24.95,0,0,0-4.68932,5.48225l-4.01656-.20153c-1.00286-1.86452-4.88135-7.31113-17.38348-11.30822a.67929.67929,0,0,0-.87518.541l-.30184,1.92069a.677.677,0,0,0,.45507.74722,41.15938,41.15938,0,0,1,13.7262,7.87952l-14.37075-.7211c-1.33537,2.48242-.1113,6.34011-.1113,6.34011,23.24163,2.90584,45.19683.89559,48.57417-1.11243S248.38137,454.37393,248.38137,454.37393Z" fill="#376f92"/><path d="M245.18059,258.73723l4.406,15.26357a31.56941,31.56941,0,0,1,1.204,10.2284l-6.96385,149.10538c-12.87476,5.16518-22.78814,9.618-49.99229,7.13776-17.78514-2.18809-31.35827-13.36192-43.08127-17.45573,4.9899-20.30859,9.621-36.28854,15.99378-57.95782,10.35446-35.20819,24.1844-77.8901,38.08646-107.785Z" fill="#f73c4f"/><path d="M233.72429,315.96926c.19809,6.57812.29092,13.15625.36777,19.73462l.112,19.73462-.11029,19.73462c-.07743,6.57812-.16983,13.15649-.36945,19.73461-.19965-6.57812-.292-13.15649-.36948-19.73461l-.11026-19.73462.112-19.73462C233.43337,329.12551,233.52617,322.54738,233.72429,315.96926Z" fill="#b02336"/><path d="M227.70635,305.74245l-1.84082,13.73218-1.98166,13.71167c-1.33826,9.13867-2.807,18.25732-4.24051,27.38159-1.52161,9.11011-3.02695,18.2229-4.64881,27.31567-1.62551,9.09205-3.28994,18.178-5.13732,27.229l8.83905-54.69849,4.46081-27.34106C224.659,323.9612,226.13652,314.84548,227.70635,305.74245Z" fill="#b02336"/><path d="M219.08345,286.574c-.58206,2.90039-1.22394,5.78687-1.83423,8.68067l-1.94171,8.65527c-1.30716,5.76758-2.70859,11.51221-4.074,17.26611-1.44477,5.73438-2.85428,11.47754-4.37372,17.19361-1.52988,5.7124-3.04975,11.43164-4.85156,17.06885l8.2933-34.49073,4.29092-17.21C216.05333,298.00808,217.51653,292.27883,219.08345,286.574Z" fill="#b02336"/><path d="M222.29314,219.55325c2.256-4.21141,4.48213-10.53064,4.22475-19.69593A28.19142,28.19142,0,0,0,218.95,190.7976c1.43426.03076,2.587.115,3.69191.02835,7.34-.57554,16.39723-9.01206,15.5138-17.0025-.76994-6.96408-8.812-11.0666-10.76852-12.06482a16.3667,16.3667,0,0,0-15.97079-.04353,18.65615,18.65615,0,0,0-7.11151,7.0099c-1.76244,2.8716-1.71184,3.15135-4.912,5.895-3.54306,3.03765-5.9212,4.01144-7.80825,7.38-1.19492,2.13319-1.15592,5.69355-.95544,8.31206a29.68216,29.68216,0,0,0-8.18886,12.11412c-2.62076,6.91434-2.66773,15.31039-2.68012,17.52631-.02775,4.94822.574,8.25453-1.58962,11.92541-1.92178,3.2607-3.96816,3.31829-6.36935,5.93682-4.471,4.8757-5.97115,14.04871-2.58128,19.86,5.55883,9.52973,23.77582,9.177,30.62145,1.86344,4.61125-4.92656.58974-9.30127,5.02029-19.0189C209.656,230.00367,216.73359,229.93158,222.29314,219.55325Z" fill="#160b07"/><path d="M202.00819,202.85336s-22.86778,116.88112-51.255,124.10974c0,0,22.53231,18.29471,35.80386,7.92025C186.557,334.88335,244.3024,202.92487,202.00819,202.85336Z" fill="#f73c4f"/><path d="M174.978,337.99147c2.05945-6.87646,4.27079-13.70459,6.52759-20.51733,2.25653-6.81323,4.64038-13.58325,7.02438-20.35352,2.45334-6.74536,4.94693-13.478,7.59928-20.15014,2.66488-6.66358,5.41742-13.31055,8.70416-19.69653l-2.13678,4.93823L200.68,267.198l-1.96289,5.00708-1.89881,5.032c-2.50631,6.71875-5.00439,13.44141-7.38534,20.20776-2.45789,6.73853-4.82663,13.50928-7.23178,20.26831Z" fill="#b02336"/><path d="M207.67077,251.39188s-20.41111-11.14768-11.99907,33.55975l6.531,20.31635,8.70639-4.10722-1.3318-28.63672Z" fill="#f9977a"/><path d="M205.74894,287.52013s3.83723,2.04137,7.11759,11.049,4.90182,16.446,1.20095,10.79161l-2.74884-4.35551s-.622,7.68233-.59171,12.29142a5.70759,5.70759,0,0,1-3.91745,5.54773c-2.1916.67046-3.82478-.17215-4.88711-5.461-1.58887-7.91017-2.20284-12.13405-2.02355-14.202.06211-.71641,1.36009-8.411,1.36009-8.411Z" fill="#f9977a"/><path d="M211.32268,300.33767a5.91152,5.91152,0,0,1,.26221,1.16137,8.60022,8.60022,0,0,1,.08621,1.1709,8.11615,8.11615,0,0,1-.07559,1.17383,5.107,5.107,0,0,1-.27686,1.16138,8.73,8.73,0,0,1-.17486-1.1709c-.04444-.38745-.0517-.77393-.0597-1.16089a11.58139,11.58139,0,0,1,.05118-1.16357A7.17369,7.17369,0,0,1,211.32268,300.33767Z" fill="#dd765e"/><path d="M208.1964,309.85256c.11017.95752.18231,1.91064.25778,2.86279l.21674,2.85108c.14035,1.90112.28979,3.78442.59277,5.68335a13.23685,13.23685,0,0,1-.80615-2.77564,24.39238,24.39238,0,0,1-.372-2.86377c-.06671-.95947-.10443-1.92016-.0809-2.8811A24.35034,24.35034,0,0,1,208.1964,309.85256Z" fill="#dd765e"/><path d="M205.42726,310.49392c.07975,2.105.104,4.18945.24756,6.2644.0553,1.03809.16858,2.06885.3158,3.09229a10.79608,10.79608,0,0,0,.81885,2.99365,7.453,7.453,0,0,1-1.26185-2.90479,17.811,17.811,0,0,1-.45858-3.14282,26.59021,26.59021,0,0,1-.01419-3.16357A23.43258,23.43258,0,0,1,205.42726,310.49392Z" fill="#dd765e"/><path d="M202.99541,311.70852l.11233,2.62548.12888,2.60572c.04245.86767.12393,1.73.19138,2.59668.08145.86547.20239,1.72412.31707,2.60107a12.90208,12.90208,0,0,1-.76407-2.5354,19.58168,19.58168,0,0,1-.33041-2.62817,22.62091,22.62091,0,0,1,.00742-2.64429A17.07105,17.07105,0,0,1,202.99541,311.70852Z" fill="#dd765e"/><path d="M231.50382,201.44747l4.09954,3.25935,2.94022,12.22862-27.61193-.34057-8.92346-13.74151s12.34544-3.15827,16.87708-8.4268Z" fill="#f9977a"/><path d="M230.632,196.02423s-5.43808,3.973-11.68137-1.02984c0,0,2.06954,8.7513,12.55315,6.45308A6.23354,6.23354,0,0,1,230.632,196.02423Z" fill="#dd765e"/><path d="M237.55827,178.04005c-2.04211-10.0342-9.25644-17.03717-16.11363-15.64164-5.29256,1.07713-8.82226,6.844-9.22,14.03267a1.956,1.956,0,0,0-1.644-.23861c-1.48942.55349-1.803,3.40724-.70048,6.374.93085,2.50484,2.5726,4.28264,3.958,4.44447,2.89271,7.8671,9.07892,12.92978,15.00164,11.72445C235.697,197.33977,239.6004,188.07419,237.55827,178.04005Z" fill="#f9977a"/><path d="M229.3001,177.22927a6.70687,6.70687,0,0,0,.40963,3.4812,15.898,15.898,0,0,0,1.54566,3.1748l.52182.73706a1.50317,1.50317,0,0,1,.30765,1.06812,2.411,2.411,0,0,1-1.17508,1.637,4.10618,4.10618,0,0,1-3.65589.07886,4.54272,4.54272,0,0,0,3.35092-.52319,1.953,1.953,0,0,0,.82914-1.25513.85315.85315,0,0,0-.21143-.62134c-.16388-.22754-.36285-.47632-.538-.7334a12.25416,12.25416,0,0,1-1.48276-3.38867A5.56335,5.56335,0,0,1,229.3001,177.22927Z" fill="#dd765e"/><path d="M218.58826,179.72017a.48412.48412,0,0,1-.25707-.78491c.12126-.14291,3.01578-3.4857,6.94235-2.79562a.48422.48422,0,1,1-.16753.95384c-3.38646-.595-6.01079,2.43834-6.037,2.46908A.48434.48434,0,0,1,218.58826,179.72017Z" fill="#160b07"/><path d="M231.30494,176.14016a.48437.48437,0,0,1-.06052-.92461,9.34525,9.34525,0,0,1,5.85455-.09229.48429.48429,0,0,1-.32225.9134,8.45293,8.45293,0,0,0-5.18944.08516A.48449.48449,0,0,1,231.30494,176.14016Z" fill="#160b07"/><path d="M219.61119,181.83815a5.39651,5.39651,0,0,1,1.35416-1.31225,5.4817,5.4817,0,0,1,1.75207-.78882,3.878,3.878,0,0,1,1.93729.07935,3.76316,3.76316,0,0,1,1.6,1.01318,5.82056,5.82056,0,0,0-1.69172-.6521,3.95585,3.95585,0,0,0-1.74166.03223,6.194,6.194,0,0,0-1.663.63281A11.78941,11.78941,0,0,0,219.61119,181.83815Z" fill="#160b07"/><circle cx="223.97625" cy="180.95127" r="1.08615" fill="#160b07"/><circle cx="234.31235" cy="179.65955" r="1.08615" fill="#160b07"/><path d="M230.69432,180.774a5.3965,5.3965,0,0,1,1.35419-1.31226,5.48154,5.48154,0,0,1,1.752-.78882,3.878,3.878,0,0,1,1.93729.07935,3.76326,3.76326,0,0,1,1.6,1.01318,5.82094,5.82094,0,0,0-1.69171-.6521,3.9596,3.9596,0,0,0-1.74167.032,6.20286,6.20286,0,0,0-1.663.63306A11.79045,11.79045,0,0,0,230.69432,180.774Z" fill="#160b07"/><path d="M210.40532,179.66286a2.24093,2.24093,0,0,1,.443-1.28027,1.20734,1.20734,0,0,1,.66355-.45191,1.10946,1.10946,0,0,1,.84265.14087,2.47454,2.47454,0,0,1,.90588,1.084,4.0162,4.0162,0,0,1,.36911,1.26928c-.31118-.32421-.56122-.66626-.82321-.979a3.38355,3.38355,0,0,0-.79376-.77466.602.602,0,0,0-.77921.08545A5.776,5.776,0,0,0,210.40532,179.66286Z" fill="#dd765e"/><path d="M212.182,182.94948a6.81963,6.81963,0,0,0,.05057-1.1853c-.01431-.38257-.04159-.76172-.08844-1.14185-.07175-.76489-.21088-1.52514-.23807-2.374a4.086,4.086,0,0,1,.62638,1.084,4.854,4.854,0,0,1,.29812,1.21827,3.94061,3.94061,0,0,1-.064,1.269A2.2057,2.2057,0,0,1,212.182,182.94948Z" fill="#dd765e"/><circle cx="211.62919" cy="185.63346" r="2.15591" fill="#ffcb33"/><path d="M224.11034,191.23235s6.04889,3.78868,9.48134-.40976" fill="#dd2f22"/><path d="M225.06265,167.765c-1.199.98329-7.388,10.7157-9.61857,11.80446a1.37616,1.37616,0,0,1-.81553.16564c-.87245-.12759-1.224-1.25754-2.19387-2.84755-.73294-1.20159-1.05183-1.40822-1.47907-2.0814a9.7137,9.7137,0,0,1-.43784-8.76312,10.29164,10.29164,0,0,1,5.659-4.99354c5.08165-2.17622,9.993-.27528,11.23863.20681,7.48331,2.8964,10.67822,10.305,10.41374,10.523C237.51825,172.03552,231.21026,162.72343,225.06265,167.765Z" fill="#160b07"/><path d="M244.28346,423.98293c-3.6427,1.65015-7.3171,3.24634-11.12225,4.54a58.90577,58.90577,0,0,1-11.7352,2.70483,92.59179,92.59179,0,0,1-12.01312.52295c-4.00266-.06421-8.00082-.16357-11.99988-.42187-8.0498-.29492-15.91473-2.82959-23.10464-6.35376-3.625-1.73194-7.103-3.72534-10.59076-5.6687a91.48492,91.48492,0,0,0-10.692-5.3584l.03168-.09082a70.26288,70.26288,0,0,1,11.01654,4.78393c3.55685,1.83521,7.07816,3.7146,10.66421,5.4397,7.16523,3.405,14.74662,6.14575,22.71808,6.741a91.5669,91.5669,0,0,0,23.86176-.38575,74.83458,74.83458,0,0,0,11.61828-2.61279c3.80616-1.16235,7.53623-2.60254,11.3115-3.92969Z" fill="#b02336"/><path d="M210.05969,200.41151s10.24359,8.15306,18.39666-1.04527l21.95055-25.92256,16.30613,9.82549L244.13532,218.181l1.04526,40.55627-35.147,1.54324-16.54693,2.00114s-3.581-14.46207-4.75033-41.383C188.73629,220.89869,186.85482,204.59257,210.05969,200.41151Z" fill="#ffba55"/><path d="M205.66957,220.8987a26.49529,26.49529,0,0,1,2.73264,4.60108,26.19976,26.19976,0,0,1,1.86654,5.01538,26.19808,26.19808,0,0,1-2.73263-4.60108A26.50556,26.50556,0,0,1,205.66957,220.8987Z" fill="#e6952a"/><path d="M240.99953,210.02785a20.912,20.912,0,0,1,2.97479,9.38648,18.5278,18.5278,0,0,1-.26758,4.977,15.57838,15.57838,0,0,1-1.66195,4.6604,28.81082,28.81082,0,0,0,.92031-4.76929,25.67332,25.67332,0,0,0,.05188-4.79663,34.13319,34.13319,0,0,0-.69931-4.76514A42.3741,42.3741,0,0,0,240.99953,210.02785Z" fill="#e6952a"/><path d="M251.85013,174.31332l3.99215-6.51407.13415-34.29381,9.06418-2.09184s7.1078,30.11407,6.06253,38.47618c0,0,1.67638,2.91573-7.00129,11.806Z" fill="#f9977a"/><path d="M256.88832,141.98452s4.34268-.18059,11.19675-6.88278,11.53365-12.70719,5.751-9.21016l-4.36244,2.73782s2.76243-7.19542,4.78353-11.33785a5.7076,5.7076,0,0,0-1.13211-6.69642c-1.68591-1.55253-3.52288-1.49931-6.76851,2.80952-4.85429,6.44446-7.235,9.9871-7.9679,11.92908-.25391.67278-2.41221,8.17171-2.41221,8.17171Z" fill="#f9977a"/><path d="M267.45815,132.83937a7.17867,7.17867,0,0,1,.33807-1.13769,11.58458,11.58458,0,0,1,.45722-1.07129c.17462-.34546.34838-.69092.556-1.02075a8.72988,8.72988,0,0,1,.66425-.98023,5.10571,5.10571,0,0,1-.25281,1.16675,8.11992,8.11992,0,0,1-.43957,1.09107,8.60563,8.60563,0,0,1-.58429,1.01855A5.90537,5.90537,0,0,1,267.45815,132.83937Z" fill="#dd765e"/><path d="M268.75545,122.90847A24.3575,24.3575,0,0,1,269.827,120.232c.39447-.87671.84406-1.72632,1.31928-2.56274a24.40932,24.40932,0,0,1,1.57422-2.42114,13.23052,13.23052,0,0,1,1.92749-2.15357c-1.09461,1.58081-2.044,3.21411-2.99292,4.86743l-1.42878,2.47681C269.74635,121.26467,269.269,122.09279,268.75545,122.90847Z" fill="#dd765e"/><path d="M266.53633,121.13234a23.4297,23.4297,0,0,1,1.0401-2.98266,26.57342,26.57342,0,0,1,1.38141-2.84619,17.80055,17.80055,0,0,1,1.773-2.63526,7.4533,7.4533,0,0,1,2.39423-2.073,10.79531,10.79531,0,0,0-2.03327,2.34473c-.57544.85913-1.12347,1.7395-1.62243,2.65161C268.44234,117.39992,267.51875,119.26906,266.53633,121.13234Z" fill="#dd765e"/><path d="M264.8691,118.98537a17.07715,17.07715,0,0,1,.82965-2.50928,22.64485,22.64485,0,0,1,1.1372-2.3872,19.56763,19.56763,0,0,1,1.43488-2.22681,12.91367,12.91367,0,0,1,1.78558-1.95532c-.48272.74121-.96325,1.46313-1.41113,2.20825-.43567.752-.88214,1.49438-1.29571,2.25806l-1.24341,2.2937Z" fill="#dd765e"/><path d="M244.59817,236.13957s-29.38473-46.05223-42.59-33.28621c0,0-1.21914,94.72551,44.85128,124.10974C246.85947,326.9631,257.60905,296.15733,244.59817,236.13957Z" fill="#f73c4f"/><path d="M208.47267,260.28054c.85044,3.28564,1.76123,6.552,2.75663,9.79272.97323,3.24634,2.00607,6.47437,3.127,9.67017a176.76405,176.76405,0,0,0,7.60825,18.8081,85.30222,85.30222,0,0,0,10.473,17.26783,38.93823,38.93823,0,0,0,7.19485,7.04077,21.81916,21.81916,0,0,0,9.16236,4.103,21.27343,21.27343,0,0,1-9.44419-3.7019,39.30379,39.30379,0,0,1-7.50461-6.9502,61.25079,61.25079,0,0,1-5.92987-8.33593c-1.75683-2.92188-3.389-5.9187-4.85312-8.99366A160.97081,160.97081,0,0,1,213.63,279.9861,175.24428,175.24428,0,0,1,208.47267,260.28054Z" fill="#b02336"/><path d="M211.36794,206.89211c3.2651,2.81274,6.32974,5.84985,9.306,8.96826q4.449,4.69373,8.50515,9.749a116.85265,116.85265,0,0,1,7.46122,10.58228,62.15971,62.15971,0,0,1,5.64682,11.62793l-1.39777-2.90845c-.43863-.97925-1.028-1.88623-1.53329-2.83032l-.77231-1.40967-.84757-1.36767c-.57681-.90406-1.10214-1.83814-1.71979-2.71582-2.35269-3.58423-4.91308-7.02955-7.58871-10.3816-2.62775-3.39282-5.45752-6.62451-8.2955-9.84814-1.41483-1.6167-2.8649-3.20313-4.335-4.771C214.35237,209.99343,212.86019,208.44533,211.36794,206.89211Z" fill="#b02336"/><path d="M211.36794,233.90529c2.74429,6.52857,5.39209,13.09351,8.06176,19.64893L227.43184,273.22q3.99038,9.835,8.21671,19.56616c1.42126,3.23633,2.86148,6.46753,4.46029,9.61646.79175,1.57763,1.61441,3.14087,2.53855,4.64331.213.38843.48813.73193.73162,1.09936a8.818,8.818,0,0,0,.7948,1.05225,6.13323,6.13323,0,0,0,.905.95557,4.44834,4.44834,0,0,0,1.089.74072c-1.64975-.73023-2.71118-2.28906-3.73349-3.7085-.99206-1.47461-1.88275-3.012-2.74246-4.56372-1.69141-3.12036-3.2102-6.32422-4.7168-9.53149-2.97638-6.43262-5.699-12.9729-8.43118-19.50659-2.63586-6.573-5.27649-13.14307-7.79843-19.75928l-3.752-9.93555Z" fill="#b02336"/><path d="M219.08345,231.51271c2.13748,3.23438,4.16434,6.53565,6.16446,9.85254,2.0007,3.31714,3.91156,6.68628,5.83817,10.04737,1.85672,3.40014,3.73208,6.79126,5.47076,10.25757.86261,1.73632,1.71585,3.478,2.52,5.24414.38681.89087.76956,1.783,1.1185,2.69018a11.3115,11.3115,0,0,1,.80414,2.79517,13.34965,13.34965,0,0,0-1.03815-2.69483c-.41253-.87256-.85867-1.73022-1.30832-2.5852-.8862-1.7168-1.81042-3.41528-2.75-5.10523-1.869-3.385-3.73428-6.77417-5.65429-10.1333l-5.63822-10.14868C222.74474,238.3406,220.87944,234.948,219.08345,231.51271Z" fill="#b02336"/></svg>