<svg xmlns="http://www.w3.org/2000/svg" viewBox="0 0 503.36499 352.72188"><title>Asset 16</title><g id="Layer_2" data-name="Layer 2"><g id="Layer_1-2" data-name="Layer 1"><path d="M32.482,235.0072C44.244,299.3015,180.02464,404.99252,225.86009,319.942,249.98685,275.17307,321.518,210.5114,376.64362,172.04617c53.60188-37.40231-98.34009-102.32074-193.37773-84.93456S20.72,170.7129,32.482,235.0072Z" fill="#efedef"/><path d="M14.76949,236.76128c-6.27442-34.29883,7.55078-70.13769,38.92773-100.91406C85.01656,105.12749,130.0937,83.1187,180.624,73.87456c37.99121-6.94629,89.123-2.19531,136.78027,12.7168,45.52637,14.24609,78.64942,34.707,86.44434,53.39844,4.35644,10.44629.665,20.15039-10.67481,28.0625l-.63867-.916c11.01172-7.68359,14.4707-16.67285,10.28223-26.7168-7.6709-18.3955-40.52735-38.6123-85.7461-52.76172-47.49316-14.86132-98.4248-19.60546-136.24609-12.68359-50.31348,9.20313-95.18359,31.10547-126.3457,61.6709-31.1045,30.50879-44.81641,65.99219-38.61035,99.915Z" fill="#efedef"/><polygon points="439.061 209.726 420.522 209.726 422.877 204.194 436.706 204.194 439.061 209.726" fill="#f65b2b"/><rect x="201.09994" y="209.70472" width="262.8411" height="141.69384" rx="4.80299" transform="translate(665.04099 561.10327) rotate(-180)" fill="#935b50"/><rect x="383.39158" y="224.72087" width="69.78082" height="111.66152" rx="4.80299" transform="translate(836.56398 561.10327) rotate(-180)" fill="#e19974"/><rect x="302.84211" y="224.72087" width="69.78082" height="111.66152" rx="4.80299" transform="translate(675.46504 561.10327) rotate(-180)" fill="#e19974"/><rect x="211.86859" y="306.40249" width="81.10944" height="29.97991" rx="4.80299" transform="translate(504.84662 642.78488) rotate(-180)" fill="#e19974"/><rect x="211.86859" y="265.65393" width="81.10944" height="29.97991" rx="4.80299" transform="translate(504.84662 561.28777) rotate(-180)" fill="#e19974"/><rect x="211.86859" y="224.72087" width="81.10944" height="29.97991" rx="4.80299" transform="translate(504.84662 479.42166) rotate(-180)" fill="#e19974"/><rect x="244.13472" y="109.69878" width="66.4209" height="0.96094" fill="#b02336"/><rect x="310.07515" y="106.3023" width="0.96094" height="8.14063" fill="#b02336"/><rect x="243.30952" y="106.3023" width="0.96094" height="8.14063" fill="#b02336"/><path d="M256.49469,109.61982a8.98847,8.98847,0,0,0-.97467,2.21576,12.66475,12.66475,0,0,0-.47913,2.21575,17.62,17.62,0,0,0,.32294,4.43128q.20191,2.21588.48476,4.43151c.2174,1.477.38789,2.95426.6461,4.43128a.16388.16388,0,0,0,.32294,0c.258-1.477.4287-2.95427.6461-4.43128q.28284-2.21587.48476-4.43151a17.61957,17.61957,0,0,0,.32293-4.43128,12.66381,12.66381,0,0,0-.47912-2.21575,8.98884,8.98884,0,0,0-.97467-2.21576.19067.19067,0,0,0-.26267-.06027A.19449.19449,0,0,0,256.49469,109.61982Z" fill="#e19974"/><path d="M299.88865,109.25608a10.8162,10.8162,0,0,0-.97466,2.49718,15.85493,15.85493,0,0,0-.47913,2.49695,22.32257,22.32257,0,0,0,.32293,4.99412q.20193,2.4973.48452,4.99413c.21764,1.66487.38814,3.3295.64634,4.99413a.16339.16339,0,0,0,.32294,0c.258-1.66463.42871-3.32926.64611-4.99413q.28282-2.49695.48452-4.99413a22.32337,22.32337,0,0,0,.32317-4.99412,15.8812,15.8812,0,0,0-.47913-2.49695,10.82616,10.82616,0,0,0-.97467-2.49718.18483.18483,0,0,0-.32294,0Z" fill="#e19974"/><path d="M287.41893,109.25608a9.001,9.001,0,0,0-.97467,2.21716,12.72764,12.72764,0,0,0-.47912,2.21716,17.64332,17.64332,0,0,0,.32317,4.43433q.20191,2.21693.48452,4.43409c.21763,1.47819.38813,2.95614.6461,4.43433a.16407.16407,0,0,0,.32317,0c.258-1.47819.42847-2.95614.64611-4.43433q.28282-2.21692.48452-4.43409a17.64426,17.64426,0,0,0,.32317-4.43433,12.72676,12.72676,0,0,0-.47913-2.21716,9.00059,9.00059,0,0,0-.97467-2.21716.19071.19071,0,0,0-.26266-.06027A.19532.19532,0,0,0,287.41893,109.25608Z" fill="#e19974"/><path d="M266.99181,190.152a18.26644,18.26644,0,0,0,4.3635,1.92871,26.53623,26.53623,0,0,0,4.36327.93222,16.14408,16.14408,0,0,0,4.36326-.03166c1.4545-.21529,2.90877-.46834,4.36327-.60413l4.36326-.42894,4.36327-.52462c2.909-.38954,5.81776-.76923,8.72676-1.27158a.32261.32261,0,0,0,0-.63578c-2.909-.50235-5.81776-.8818-8.72676-1.27158l-4.36327-.52438-4.36326-.42918c-1.4545-.13579-2.90877-.38883-4.36327-.60412a16.15341,16.15341,0,0,0-4.36326-.03167,26.53524,26.53524,0,0,0-4.36327.93223,18.27555,18.27555,0,0,0-4.3635,1.9287.3753.3753,0,0,0-.11867.51712A.38194.38194,0,0,0,266.99181,190.152Z" fill="#e19974"/><path d="M291.55657,204.21219h99.24384a0,0,0,0,1,0,0v3.57133a1.9212,1.9212,0,0,1-1.9212,1.9212H293.47776a1.9212,1.9212,0,0,1-1.9212-1.9212v-3.57133A0,0,0,0,1,291.55657,204.21219Z" transform="translate(682.35697 413.91691) rotate(-180)" fill="#c6c6c6"/><path d="M358.1068,199.55416h22.48493a0,0,0,0,1,0,0V202.291a1.9212,1.9212,0,0,1-1.9212,1.9212H360.028a1.9212,1.9212,0,0,1-1.9212-1.9212v-2.73683A0,0,0,0,1,358.1068,199.55416Z" transform="translate(738.69853 403.76635) rotate(-180)" fill="#a0a0a0"/><rect x="301.03297" y="199.55416" width="22.48493" height="4.65803" transform="translate(624.55088 403.76635) rotate(-180)" fill="#a0a0a0"/><circle cx="399.42557" cy="280.55164" r="5.26535" fill="#935b50"/><circle cx="356.58894" cy="280.55164" r="5.26535" fill="#935b50"/><circle cx="252.42331" cy="239.71083" r="5.26535" fill="#935b50"/><circle cx="252.42331" cy="280.63168" r="5.26535" fill="#935b50"/><circle cx="252.42331" cy="321.55254" r="5.26535" fill="#935b50"/><rect x="357.85249" y="61.23491" width="66.4209" height="0.96094" fill="#b02336"/><rect x="357.37202" y="57.83941" width="0.96094" height="8.14063" fill="#b02336"/><rect x="424.13765" y="57.83941" width="0.96094" height="8.14063" fill="#b02336"/><path d="M365.55765,59.98837a22.59531,22.59531,0,0,1,1.96013,5.03025,34.246,34.246,0,0,1,.94746,5.03024,21.10791,21.10791,0,0,1-.03236,5.03024c-.21881,1.67683-.47608,3.35342-.61374,5.03025l-.43621,5.03024-.53307,5.03024c-.39587,3.35342-.78166,6.70684-1.29221,10.06049a.32681.32681,0,0,1-.6461,0c-.51056-3.35365-.89634-6.70707-1.29222-10.06049l-.53306-5.03024-.43621-5.03024c-.13766-1.67683-.39493-3.35342-.61374-5.03025a21.09589,21.09589,0,0,1-.03237-5.03024,34.24738,34.24738,0,0,1,.94747-5.03024,22.59531,22.59531,0,0,1,1.96013-5.03025.36927.36927,0,0,1,.6461,0Z" fill="#e19974"/><path d="M419.41519,76.77023l-4.12569-1.24014a7.64763,7.64763,0,0,0,.32551-2.20356,7.5558,7.5558,0,1,0-15.1116,0,7.64764,7.64764,0,0,0,.32552,2.20356l-4.1257,1.24014a11.86349,11.86349,0,1,1,22.712,0Z" fill="#e19974"/><path d="M408.055,130.86957a11.87341,11.87341,0,0,1-11.39116-15.17446l4.13508,1.20826a7.55462,7.55462,0,1,0,14.52061-.00845l4.13507-1.20825a11.88074,11.88074,0,0,1-11.3996,15.1829Z" fill="#e19974"/><circle cx="365.23458" cy="109.89775" r="20.43616" fill="#c6c6c6"/><circle cx="408.05731" cy="96.23022" r="23.8794" fill="#c6c6c6"/><circle cx="408.05731" cy="96.23022" r="13.26099" fill="#a0a0a0"/><circle cx="365.23455" cy="109.49121" r="13.26099" fill="#a0a0a0"/><path d="M261.424,120.28743v18.52143l-4.8871-2.25726a8.00483,8.00483,0,0,1,.74392-14.83357Z" fill="#c6c6c6"/><path d="M270.50022,110.26826a8.98787,8.98787,0,0,0-.97467,2.21575,12.66486,12.66486,0,0,0-.47913,2.21576,17.61954,17.61954,0,0,0,.32294,4.43127q.20192,2.21587.48475,4.43151c.2174,1.477.3879,2.95427.64611,4.43128a.16387.16387,0,0,0,.32293,0c.258-1.477.42871-2.95426.64611-4.43128q.28282-2.21586.48475-4.43151a17.61954,17.61954,0,0,0,.32294-4.43127,12.66486,12.66486,0,0,0-.47913-2.21576,8.98787,8.98787,0,0,0-.97467-2.21575.19067.19067,0,0,0-.26266-.06028A.19452.19452,0,0,0,270.50022,110.26826Z" fill="#e19974"/><path d="M275.42953,120.93586V139.4573L270.54244,137.2a8.00482,8.00482,0,0,1,.74392-14.83356Z" fill="#c6c6c6"/><path d="M296.55158,146.26533l1.89118-.65666a11.88549,11.88549,0,0,0,7.98692-11.22792h0a11.8855,11.8855,0,0,0-7.98692-11.22792l-1.89118-.65666Z" fill="#c6c6c6"/><path d="M285.19283,142.96476l6.03571-2.09573a1.92121,1.92121,0,0,0,1.291-1.81491V124.878a1.92119,1.92119,0,0,0-1.291-1.8149l-6.03571-2.09573a1.92119,1.92119,0,0,0-2.55137,1.8149v18.36758A1.9212,1.9212,0,0,0,285.19283,142.96476Z" fill="#c6c6c6"/><path d="M334.18817,182.66538l-5.41589,15.59776a1.9212,1.9212,0,0,1-1.81491,1.291H296.41288a1.9212,1.9212,0,0,1-1.81491-1.291l-5.41589-15.59776A1.9212,1.9212,0,0,1,290.997,180.114h41.37627A1.9212,1.9212,0,0,1,334.18817,182.66538Z" fill="#c6c6c6"/><path d="M293.28011,183.691a24.27176,24.27176,0,0,0,3.169,5.846,21.21739,21.21739,0,0,0,4.67139,4.59643,18.60478,18.60478,0,0,0,2.80365,1.70215,21.43747,21.43747,0,0,0,3.04059,1.26343,24.62528,24.62528,0,0,0,6.54547,1.18213,17.95962,17.95962,0,0,1-6.75275-.4729,18.43114,18.43114,0,0,1-10.91284-7.8523,20.59948,20.59948,0,0,1-1.59186-3.019A17.59326,17.59326,0,0,1,293.28011,183.691Z" fill="#a0a0a0"/><path d="M299.14638,181.369a17.64648,17.64648,0,0,0,2.281,4.49487,14.53718,14.53718,0,0,0,3.48035,3.49438,14.69654,14.69654,0,0,0,4.42908,2.16919,17.86367,17.86367,0,0,0,4.9884.73487A12.70985,12.70985,0,0,1,299.14638,181.369Z" fill="#a0a0a0"/><path d="M221.86948,203.41652s17.9824-18.84695,36.65644-2.42071Z" fill="#d8a935"/><polygon points="257.21 209.705 224.213 209.705 214.607 199.554 266.816 199.554 257.21 209.705" fill="#c6c6c6"/><path d="M251.18666,180.30669a3.28207,3.28207,0,0,1,1.39838,1.28882,2.37242,2.37242,0,0,1,.10431,1.95727,8.26633,8.26633,0,0,1-.93512,1.68873c-.35175.5664-.89905.97-1.1767,1.4475a5.3995,5.3995,0,0,0-.74377,1.61915,3.67884,3.67884,0,0,0,.02337,1.74658,3.50257,3.50257,0,0,0,2.408,2.50732,3.38617,3.38617,0,0,1-1.73907-.76123,3.639,3.639,0,0,1-1.07111-1.62891,3.69123,3.69123,0,0,1-.10486-1.97241,5.8557,5.8557,0,0,1,.77-1.80517,4.273,4.273,0,0,1,.6449-.75342,5.25084,5.25084,0,0,0,.58386-.68311,11.08718,11.08718,0,0,0,.95227-1.55737,2.04,2.04,0,0,0,.04425-1.69067A3.452,3.452,0,0,0,251.18666,180.30669Z" fill="#bababa"/><path d="M241.8835,169.11382a3.28073,3.28073,0,0,1,1.39844,1.28882,2.37186,2.37186,0,0,1,.10431,1.957,8.26625,8.26625,0,0,1-.93512,1.68872c-.35175.56641-.89905.97-1.1767,1.44751a5.40347,5.40347,0,0,0-.74377,1.61914,3.6788,3.6788,0,0,0,.02337,1.74658,3.50206,3.50206,0,0,0,2.408,2.50733,3.38419,3.38419,0,0,1-1.73907-.76123,3.63774,3.63774,0,0,1-1.07111-1.62891,3.68917,3.68917,0,0,1-.10486-1.97217,5.85156,5.85156,0,0,1,.77-1.80517,4.26115,4.26115,0,0,1,.6449-.75367,5.26555,5.26555,0,0,0,.5838-.68286,11.09024,11.09024,0,0,0,.95227-1.55737,2.04057,2.04057,0,0,0,.04431-1.69092A3.45142,3.45142,0,0,0,241.8835,169.11382Z" fill="#bababa"/><path d="M231.94618,177.56328a3.28059,3.28059,0,0,1,1.39838,1.28882,2.37238,2.37238,0,0,1,.10431,1.95728,8.26651,8.26651,0,0,1-.93512,1.68872c-.35175.5664-.899.97-1.1767,1.44751a5.39958,5.39958,0,0,0-.74377,1.61914,3.6778,3.6778,0,0,0,.02337,1.74634,3.50249,3.50249,0,0,0,2.408,2.50756,3.38617,3.38617,0,0,1-1.73907-.76123,3.639,3.639,0,0,1-1.07111-1.6289,3.69127,3.69127,0,0,1-.10486-1.97242,5.85581,5.85581,0,0,1,.77-1.80517,4.27367,4.27367,0,0,1,.6449-.75342,5.26735,5.26735,0,0,0,.58386-.6831,11.08785,11.08785,0,0,0,.95227-1.55738,2.03993,2.03993,0,0,0,.04425-1.69067A3.452,3.452,0,0,0,231.94618,177.56328Z" fill="#bababa"/><path d="M403.98062,180.015h50.86878a0,0,0,0,1,0,0v.066A25.43437,25.43437,0,0,1,429.415,205.51536H429.415A25.43437,25.43437,0,0,1,403.98062,180.081v-.066A0,0,0,0,1,403.98062,180.015Z" fill="#7ca1b1"/><path d="M455.95158,180.957H402.8784a.942.942,0,0,1,0-1.884h53.07318a.942.942,0,1,1,0,1.884Z" fill="#f65b2b"/><path d="M407.03275,184.83a.40654.40654,0,0,0,0-.81259.40654.40654,0,0,0,0,.81259Z" fill="#fff"/><path d="M413.81526,184.49083a.40654.40654,0,0,0,0-.8126.40654.40654,0,0,0,0,.8126Z" fill="#fff"/><path d="M420.25863,184.83a.40654.40654,0,0,0,0-.81259.40654.40654,0,0,0,0,.81259Z" fill="#fff"/><path d="M426.36289,184.66039a.40654.40654,0,0,0,0-.8126.40654.40654,0,0,0,0,.8126Z" fill="#fff"/><path d="M432.63671,184.66039a.40654.40654,0,0,0,0-.8126.40654.40654,0,0,0,0,.8126Z" fill="#fff"/><path d="M438.741,184.66039a.40654.40654,0,0,0,0-.8126.40654.40654,0,0,0,0,.8126Z" fill="#fff"/><path d="M445.01478,184.66039a.40654.40654,0,0,0,0-.8126.40654.40654,0,0,0,0,.8126Z" fill="#fff"/><path d="M451.45816,184.66039a.40654.40654,0,0,0,0-.8126.40654.40654,0,0,0,0,.8126Z" fill="#fff"/><path d="M410.59357,188.44729a.40654.40654,0,0,0,0-.8126.40654.40654,0,0,0,0,.8126Z" fill="#fff"/><path d="M416.81086,188.33425a.40654.40654,0,0,0,0-.8126.40654.40654,0,0,0,0,.8126Z" fill="#fff"/><path d="M423.36728,188.22121a.40654.40654,0,0,0,0-.8126.40654.40654,0,0,0,0,.8126Z" fill="#fff"/><path d="M429.35849,188.10817a.40654.40654,0,0,0,0-.8126.40654.40654,0,0,0,0,.8126Z" fill="#fff"/><path d="M435.46275,188.10817a.40654.40654,0,0,0,0-.8126.40654.40654,0,0,0,0,.8126Z" fill="#fff"/><path d="M442.01917,188.10817a.40654.40654,0,0,0,0-.8126.40654.40654,0,0,0,0,.8126Z" fill="#fff"/><path d="M448.34951,188.22121a.40654.40654,0,0,0,0-.8126.40654.40654,0,0,0,0,.8126Z" fill="#fff"/><path d="M413.53265,191.7255a.40654.40654,0,0,0,0-.8126.40654.40654,0,0,0,0,.8126Z" fill="#fff"/><path d="M420.20211,191.61246a.40654.40654,0,0,0,0-.8126.40654.40654,0,0,0,0,.8126Z" fill="#fff"/><path d="M416.9239,195.11675a.40654.40654,0,0,0,0-.8126.40654.40654,0,0,0,0,.8126Z" fill="#fff"/><path d="M419.976,198.96017a.40654.40654,0,0,0,0-.8126.40654.40654,0,0,0,0,.8126Z" fill="#fff"/><path d="M423.36728,202.57751a.40654.40654,0,0,0,0-.8126.40654.40654,0,0,0,0,.8126Z" fill="#fff"/><path d="M426.41941,198.62105a.40654.40654,0,0,0,0-.8126.40654.40654,0,0,0,0,.8126Z" fill="#fff"/><path d="M429.47154,202.35142a.40654.40654,0,0,0,0-.81259.40654.40654,0,0,0,0,.81259Z" fill="#fff"/><path d="M432.63671,198.73409a.40654.40654,0,0,0,0-.8126.40654.40654,0,0,0,0,.8126Z" fill="#fff"/><path d="M435.91492,202.57751a.40654.40654,0,0,0,0-.8126.40654.40654,0,0,0,0,.8126Z" fill="#fff"/><path d="M439.19313,198.62105a.40654.40654,0,0,0,0-.8126.40654.40654,0,0,0,0,.8126Z" fill="#fff"/><path d="M442.13221,195.2298a.40654.40654,0,0,0,0-.8126.40654.40654,0,0,0,0,.8126Z" fill="#fff"/><path d="M445.41042,191.38638a.40654.40654,0,0,0,0-.8126.40654.40654,0,0,0,0,.8126Z" fill="#fff"/><path d="M438.741,191.27333a.40654.40654,0,0,0,0-.81259.40654.40654,0,0,0,0,.81259Z" fill="#fff"/><path d="M435.57579,195.56892a.40654.40654,0,0,0,0-.8126.40654.40654,0,0,0,0,.8126Z" fill="#fff"/><path d="M432.41062,191.61246a.40654.40654,0,0,0,0-.8126.40654.40654,0,0,0,0,.8126Z" fill="#fff"/><path d="M429.35849,195.34284a.40654.40654,0,0,0,0-.8126.40654.40654,0,0,0,0,.8126Z" fill="#fff"/><path d="M426.30637,191.38638a.40654.40654,0,0,0,0-.8126.40654.40654,0,0,0,0,.8126Z" fill="#fff"/><path d="M423.25424,195.00371a.40654.40654,0,0,0,0-.8126.40654.40654,0,0,0,0,.8126Z" fill="#fff"/><path d="M375.19126,165.09464H363.70177a1.08138,1.08138,0,0,1-1.08146-1.08146v-3.1825a3.24793,3.24793,0,0,1,3.24439-3.24439h7.16364a3.24793,3.24793,0,0,1,3.24439,3.24439v3.1825A1.08138,1.08138,0,0,1,375.19126,165.09464Zm-10.408-2.16293h9.32656v-2.101a1.08274,1.08274,0,0,0-1.08146-1.08147H365.8647a1.08274,1.08274,0,0,0-1.08146,1.08147Z" fill="#7ca1b1"/><path d="M398.06632,176.02734H340.49785a1.4059,1.4059,0,1,1,0-2.8118h57.56847a1.4059,1.4059,0,0,1,0,2.8118Z" fill="#7ca1b1"/><path d="M389.008,199.61624h-39.0884a1.94663,1.94663,0,0,1-1.94663-1.94663V169.24876h42.98166v28.42085A1.94664,1.94664,0,0,1,389.008,199.61624Z" fill="#ffba55"/><path d="M349.91961,163.148H389.008a1.94663,1.94663,0,0,1,1.94663,1.94663v4.15409a0,0,0,0,1,0,0H347.973a0,0,0,0,1,0,0v-4.15409A1.94663,1.94663,0,0,1,349.91961,163.148Z" fill="#e6952a"/><path d="M246.3121,16.90565h0a10.40319,10.40319,0,0,1,10.40319,10.40319v.027a0,0,0,0,1,0,0H235.90891a0,0,0,0,1,0,0v-.027A10.40319,10.40319,0,0,1,246.3121,16.90565Z" transform="translate(491.56241 -9.67981) rotate(167.48009)" fill="#7ca1b1"/><path d="M244.45374,23.82671h0A10.40319,10.40319,0,0,1,254.857,34.2299v.027a0,0,0,0,1,0,0H234.05055a0,0,0,0,1,0,0v-.027a10.40319,10.40319,0,0,1,10.40319-10.40319Z" transform="translate(483.24443 88.87556) rotate(-172.70817)" fill="#f65b2b"/><polygon points="240.541 42.03 248.124 42.03 247.161 39.767 241.504 39.767 240.541 42.03" fill="#ffba55"/><path d="M244.48617,30.08233h0a10.40319,10.40319,0,0,1,10.40319,10.40319v.027a0,0,0,0,1,0,0H234.083a0,0,0,0,1,0,0v-.027a10.40319,10.40319,0,0,1,10.40319-10.40319Z" transform="translate(488.97235 70.59483) rotate(180)" fill="#7ca1b1"/><path d="M216.45053,10.43432h0a13.08277,13.08277,0,0,1,13.08277,13.08277V23.551a0,0,0,0,1,0,0H203.36776a0,0,0,0,1,0,0v-.03393a13.08277,13.08277,0,0,1,13.08277-13.08277Z" transform="translate(431.4377 -13.3407) rotate(167.48007)" fill="#7ca1b1"/><path d="M214.11351,19.13805h0a13.08277,13.08277,0,0,1,13.08277,13.08277v.03393a0,0,0,0,1,0,0H201.03074a0,0,0,0,1,0,0v-.03393a13.08277,13.08277,0,0,1,13.08277-13.08277Z" transform="translate(423.23396 78.36094) rotate(-172.70817)" fill="#f65b2b"/><polygon points="209.193 42.03 218.729 42.03 217.517 39.185 210.404 39.185 209.193 42.03" fill="#ffba55"/><path d="M214.15429,27.00495h0a13.08277,13.08277,0,0,1,13.08277,13.08277v.03393a0,0,0,0,1,0,0H201.07151a0,0,0,0,1,0,0v-.03393A13.08277,13.08277,0,0,1,214.15429,27.00495Z" transform="translate(428.3086 67.1266) rotate(-180)" fill="#7ca1b1"/><path d="M284.71693,6.42689V3.24439A3.24794,3.24794,0,0,1,287.96132,0H295.125a3.24793,3.24793,0,0,1,3.24439,3.24439v3.1825a1.08138,1.08138,0,0,1-1.08146,1.08146H285.79839A1.08138,1.08138,0,0,1,284.71693,6.42689Zm11.48949-3.1825A1.08274,1.08274,0,0,0,295.125,2.16293h-7.16363a1.08274,1.08274,0,0,0-1.08146,1.08146v2.101h9.32656Z" fill="#7ca1b1"/><path d="M262.92334,18.44106h57.56847a1.40591,1.40591,0,0,0,0-2.81181H262.92334a1.40591,1.40591,0,0,0,0,2.81181Z" fill="#7ca1b1"/><path d="M271.98165,42.03h39.0884a1.94664,1.94664,0,0,0,1.94663-1.94663V11.66247H270.035V40.08332A1.94664,1.94664,0,0,0,271.98165,42.03Z" fill="#ffba55"/><path d="M270.035,5.56175h42.98167a0,0,0,0,1,0,0V9.71584A1.94663,1.94663,0,0,1,311.07,11.66247h-39.0884A1.94663,1.94663,0,0,1,270.035,9.71584V5.56175A0,0,0,0,1,270.035,5.56175Z" transform="translate(583.05169 17.22422) rotate(-180)" fill="#e6952a"/><path d="M307.70356,45.86726h3.37866a1.20951,1.20951,0,0,1,1.20951,1.20951v14.488a0,0,0,0,1,0,0H306.494a0,0,0,0,1,0,0v-14.488A1.20951,1.20951,0,0,1,307.70356,45.86726Z" transform="translate(618.78578 107.43203) rotate(-180)" fill="#935b50"/><path d="M210.85746,45.86726h3.37866a1.20951,1.20951,0,0,1,1.20951,1.20951v14.488a0,0,0,0,1,0,0h-5.79768a0,0,0,0,1,0,0v-14.488A1.20951,1.20951,0,0,1,210.85746,45.86726Z" transform="translate(425.09358 107.43203) rotate(-180)" fill="#935b50"/><path d="M194.3345,47.40648H322.71734a1.43476,1.43476,0,0,0,1.3-1.539c0-.84989-.58206-3.83756-1.3-3.83756H194.3345c-.71789,0-1.29995,2.98767-1.29995,3.83756A1.43476,1.43476,0,0,0,194.3345,47.40648Z" fill="#d6694b"/><line x1="1" y1="351.39856" x2="502.36499" y2="351.39856" fill="none" stroke="#935b50" stroke-linecap="round" stroke-linejoin="round" stroke-width="2"/><path d="M67.47658,308.39043s-18.94734,16.79592-17.94633,18.52492,36.22756,30.57253,32.08691,22.12692l-5.93951-10.66164a13.86575,13.86575,0,0,1,.96676-14.99555l4.70722-6.36162Z" fill="#f9977a"/><path d="M79.91315,345.98351l-8.0046-4.552a33.11292,33.11292,0,0,1,4.81677-.819,1.46616,1.46616,0,0,0,1.12083-2.18153,2.45146,2.45146,0,0,0-2.118-1.24911,24.94989,24.94989,0,0,0-7.0457,1.55012l-3.08426-2.58083c.323-2.09234.50911-8.77616-7.06076-19.4989a.6793.6793,0,0,0-1.02447-.0955l-1.39813,1.35108a.677.677,0,0,0-.087.87054,41.15938,41.15938,0,0,1,6.20764,14.55887l-11.03505-9.234c-2.56145,1.17669-3.90878,4.99309-3.90878,4.99309,2.20029,2.21874,18.432,23.16951,30.532,23.16951,5.96692,0,7.92516,1.0261,9.75839,0C91.01074,350.34669,79.91315,345.98351,79.91315,345.98351Z" fill="#376f92"/><path d="M113.27833,320.99347s-5.00254,24.82095-3.16189,25.59778,50.1088,3.79869,41.71557-.44712l-13.939-6.1562a13.86575,13.86575,0,0,1-8.26331-12.55065l-.076-7.91343Z" fill="#f9977a"/><path d="M150.06386,345.36322l-13.34092-.66946a33.1144,33.1144,0,0,1,3.35087-3.5558,1.46615,1.46615,0,0,0-.41983-2.41641,2.45146,2.45146,0,0,0-2.443.27916,24.95049,24.95049,0,0,0-4.68932,5.48224l-4.01656-.20152c-1.00286-1.86452-4.88134-7.31113-17.38347-11.30822a.6793.6793,0,0,0-.87519.541l-.30183,1.92069a.677.677,0,0,0,.45506.74721,41.15946,41.15946,0,0,1,13.7262,7.87953l-14.37075-.7211c-1.33537,2.48242-.1113,6.34011-.1113,6.34011,23.24164,2.90584,45.19683.89559,48.57418-1.11244S150.06386,345.36322,150.06386,345.36322Z" fill="#376f92"/><path d="M146.86309,149.72652l4.40595,15.26357a31.57,31.57,0,0,1,1.204,10.2284l-6.96386,149.10538c-12.87476,5.16518-22.78813,9.618-49.99228,7.13775-17.78515-2.18808-31.35827-13.36192-43.08128-17.45572,4.98991-20.30859,9.621-36.28854,15.99378-57.95783,10.35446-35.20818,24.18441-77.89009,38.08647-107.785Z" fill="#f73c4f"/><path d="M135.40678,206.95855c.19809,6.57812.29093,13.15625.36777,19.73462l.112,19.73461-.11029,19.73462c-.07742,6.57813-.16983,13.1565-.36945,19.73462-.19964-6.57812-.292-13.15649-.36947-19.73462l-.11026-19.73462.112-19.73461C135.11586,220.1148,135.20866,213.53667,135.40678,206.95855Z" fill="#b02336"/><path d="M129.38884,196.73174,127.548,210.46392l-1.98166,13.71167c-1.33826,9.13867-2.807,18.25732-4.24051,27.38159-1.5216,9.11011-3.02695,18.2229-4.6488,27.31567-1.62552,9.092-3.28995,18.178-5.13733,27.229l8.83905-54.69849,4.46081-27.34106C126.34145,214.95049,127.819,205.83477,129.38884,196.73174Z" fill="#b02336"/><path d="M120.766,177.56328c-.58207,2.90039-1.22394,5.78687-1.83423,8.68067L116.99,194.89922c-1.30716,5.76758-2.70859,11.51221-4.074,17.26611-1.44476,5.73438-2.85428,11.47754-4.37372,17.19361-1.52987,5.7124-3.04974,11.43164-4.85156,17.06884l8.2933-34.49072,4.29093-17.21C117.73583,188.99736,119.199,183.26812,120.766,177.56328Z" fill="#b02336"/><path d="M123.97564,110.54254c2.256-4.21141,4.48212-10.53064,4.22474-19.69593a28.19152,28.19152,0,0,0-7.56792-9.05973c1.43427.03077,2.587.115,3.69191.02836,7.34-.57555,16.39723-9.01207,15.5138-17.00251-.76993-6.96407-8.812-11.06659-10.76852-12.06482a16.36673,16.36673,0,0,0-15.97079-.04352,18.656,18.656,0,0,0-7.1115,7.0099c-1.76245,2.8716-1.71185,3.15134-4.912,5.895-3.54306,3.03765-5.9212,4.01144-7.80825,7.38-1.19492,2.13319-1.15593,5.69355-.95545,8.31206a29.68209,29.68209,0,0,0-8.18886,12.11412c-2.62075,6.91434-2.66773,15.31039-2.68012,17.52631-.02774,4.94822.574,8.25453-1.58962,11.92541-1.92177,3.2607-3.96815,3.31829-6.36935,5.93682-4.471,4.8757-5.97115,14.0487-2.58127,19.86,5.55883,9.52973,23.77581,9.177,30.62144,1.86344,4.61126-4.92657.58975-9.30128,5.0203-19.01891C111.33847,120.993,118.41608,120.92087,123.97564,110.54254Z" fill="#160b07"/><path d="M103.69068,93.84264S80.8229,210.72377,52.43565,217.95239c0,0,22.53232,18.29471,35.80386,7.92024C88.23951,225.87263,145.98489,93.91416,103.69068,93.84264Z" fill="#f73c4f"/><path d="M76.66045,228.98076c2.05944-6.87646,4.27078-13.70459,6.52758-20.51733,2.25654-6.81323,4.64039-13.58325,7.02439-20.35352,2.45334-6.74536,4.94693-13.478,7.59927-20.15014,2.66489-6.66358,5.41742-13.31055,8.70416-19.69654l-2.13678,4.93824-2.0166,4.98584-1.96289,5.00708-1.8988,5.032c-2.50632,6.71875-5.0044,13.4414-7.38535,20.20776-2.45788,6.73853-4.82663,13.50928-7.23178,20.26831Z" fill="#b02336"/><path d="M109.35327,142.38117S88.94215,131.23349,97.3542,175.94092l6.531,20.31634,8.70639-4.10721-1.3318-28.63672Z" fill="#f9977a"/><path d="M107.43144,178.50942s3.83722,2.04137,7.11758,11.049,4.90182,16.446,1.201,10.79161l-2.74883-4.35551s-.622,7.68233-.59172,12.29142a5.70759,5.70759,0,0,1-3.91745,5.54773c-2.19159.67046-3.82477-.17216-4.88711-5.461-1.58886-7.91017-2.20284-12.13405-2.02355-14.202.06212-.71641,1.36009-8.41105,1.36009-8.41105Z" fill="#f9977a"/><path d="M113.00517,191.327a5.91161,5.91161,0,0,1,.26221,1.16138,8.59862,8.59862,0,0,1,.08621,1.1709,8.11473,8.11473,0,0,1-.07559,1.17383,5.10681,5.10681,0,0,1-.27686,1.16137,8.72957,8.72957,0,0,1-.17486-1.17089c-.04443-.38745-.0517-.77393-.05969-1.16089a11.57875,11.57875,0,0,1,.05117-1.16358A7.17511,7.17511,0,0,1,113.00517,191.327Z" fill="#dd765e"/><path d="M109.87889,200.84185c.11017.95752.18231,1.91064.25778,2.86279l.21674,2.85107c.14035,1.90113.28979,3.78443.59277,5.68335a13.238,13.238,0,0,1-.80615-2.77563,24.39238,24.39238,0,0,1-.372-2.86377c-.06671-.95947-.10443-1.92017-.0809-2.8811A24.35034,24.35034,0,0,1,109.87889,200.84185Z" fill="#dd765e"/><path d="M107.10976,201.4832c.07974,2.105.104,4.18946.24756,6.26441.05529,1.03808.16857,2.06885.31579,3.09228a10.796,10.796,0,0,0,.81885,2.99366,7.45318,7.45318,0,0,1-1.26184-2.90479,17.81011,17.81011,0,0,1-.45859-3.14282,26.59248,26.59248,0,0,1-.01419-3.16358A23.433,23.433,0,0,1,107.10976,201.4832Z" fill="#dd765e"/><path d="M104.6779,202.6978l.11234,2.62549.12887,2.60572c.04245.86767.12394,1.73.19138,2.59667.08145.86548.20239,1.72413.31708,2.60108a12.90073,12.90073,0,0,1-.76407-2.5354,19.58164,19.58164,0,0,1-.33042-2.62818,22.62075,22.62075,0,0,1,.00742-2.64428A17.07258,17.07258,0,0,1,104.6779,202.6978Z" fill="#dd765e"/><path d="M133.18631,92.43676l4.09955,3.25935,2.94021,12.22862-27.61193-.34058-8.92346-13.74151s12.34544-3.15826,16.87708-8.42679Z" fill="#f9977a"/><path d="M132.31453,87.01351s-5.43807,3.973-11.68137-1.02983c0,0,2.06954,8.7513,12.55315,6.45308A6.23355,6.23355,0,0,1,132.31453,87.01351Z" fill="#dd765e"/><path d="M139.24077,69.02934c-2.04211-10.0342-9.25644-17.03717-16.11364-15.64164-5.29256,1.07713-8.82226,6.844-9.22,14.03267a1.956,1.956,0,0,0-1.644-.23861c-1.48941.55349-1.803,3.40724-.70047,6.374.93085,2.50484,2.57259,4.28263,3.958,4.44447,2.89271,7.8671,9.07892,12.92978,15.00164,11.72445C137.3795,88.32906,141.28289,79.06348,139.24077,69.02934Z" fill="#f9977a"/><path d="M130.98259,68.21856a6.70677,6.70677,0,0,0,.40964,3.4812,15.89822,15.89822,0,0,0,1.54565,3.1748l.52182.73706a1.50313,1.50313,0,0,1,.30765,1.06812,2.411,2.411,0,0,1-1.17508,1.637,4.10619,4.10619,0,0,1-3.65588.07886,4.54269,4.54269,0,0,0,3.35092-.5232,1.953,1.953,0,0,0,.82913-1.25512.85309.85309,0,0,0-.21143-.62134c-.16387-.22754-.36285-.47632-.538-.7334a12.25476,12.25476,0,0,1-1.48276-3.38867A5.56335,5.56335,0,0,1,130.98259,68.21856Z" fill="#dd765e"/><path d="M120.27076,70.70946a.48412.48412,0,0,1-.25707-.78491c.12125-.14291,3.01577-3.4857,6.94235-2.79562a.48422.48422,0,1,1-.16753.95384c-3.38647-.595-6.0108,2.43833-6.037,2.46908A.48432.48432,0,0,1,120.27076,70.70946Z" fill="#160b07"/><path d="M132.98743,67.12945a.48437.48437,0,0,1-.06051-.92461,9.3452,9.3452,0,0,1,5.85454-.09229.48429.48429,0,0,1-.32225.9134,8.45286,8.45286,0,0,0-5.18944.08516A.48457.48457,0,0,1,132.98743,67.12945Z" fill="#160b07"/><path d="M121.29369,72.82744a5.3963,5.3963,0,0,1,1.35415-1.31225,5.48154,5.48154,0,0,1,1.75208-.78882,3.87806,3.87806,0,0,1,1.93728.07934,3.76312,3.76312,0,0,1,1.6,1.01319,5.8205,5.8205,0,0,0-1.69171-.6521,3.95589,3.95589,0,0,0-1.74167.03222,6.19427,6.19427,0,0,0-1.663.63282A11.78809,11.78809,0,0,0,121.29369,72.82744Z" fill="#160b07"/><circle cx="125.65874" cy="71.94055" r="1.08615" fill="#160b07"/><circle cx="135.99484" cy="70.64883" r="1.08615" fill="#160b07"/><path d="M132.37682,71.76323A5.39642,5.39642,0,0,1,133.731,70.451a5.4816,5.4816,0,0,1,1.752-.78882,3.878,3.878,0,0,1,1.93728.07935,3.76311,3.76311,0,0,1,1.6,1.01318,5.82072,5.82072,0,0,0-1.69171-.6521,3.95945,3.95945,0,0,0-1.74167.032,6.2028,6.2028,0,0,0-1.663.63306A11.79008,11.79008,0,0,0,132.37682,71.76323Z" fill="#160b07"/><path d="M112.08781,70.65215a2.24087,2.24087,0,0,1,.443-1.28027,1.20727,1.20727,0,0,1,.66354-.45191,1.10945,1.10945,0,0,1,.84265.14087,2.47463,2.47463,0,0,1,.90589,1.084,4.01613,4.01613,0,0,1,.36911,1.26928c-.31119-.32422-.56122-.66626-.82321-.979a3.38358,3.38358,0,0,0-.79377-.77466.602.602,0,0,0-.7792.08545A5.77606,5.77606,0,0,0,112.08781,70.65215Z" fill="#dd765e"/><path d="M113.86446,73.93877a6.81861,6.81861,0,0,0,.05056-1.1853c-.01431-.38257-.04159-.76172-.08844-1.14185-.07174-.76489-.21087-1.52514-.23806-2.374a4.08608,4.08608,0,0,1,.62637,1.084,4.85364,4.85364,0,0,1,.29813,1.21826,3.94094,3.94094,0,0,1-.064,1.26905A2.20576,2.20576,0,0,1,113.86446,73.93877Z" fill="#dd765e"/><circle cx="113.31168" cy="76.62275" r="2.15591" fill="#ffcb33"/><path d="M125.79283,82.22164s6.04889,3.78868,9.48134-.40976" fill="#dd2f22"/><path d="M126.74515,58.75431c-1.199.98329-7.38806,10.7157-9.61858,11.80446a1.37612,1.37612,0,0,1-.81552.16564c-.87246-.12759-1.224-1.25754-2.19388-2.84755-.73294-1.20159-1.05182-1.40822-1.47907-2.0814a9.71368,9.71368,0,0,1-.43783-8.76312,10.2916,10.2916,0,0,1,5.659-4.99354c5.08165-2.17622,9.99305-.27528,11.23864.20681,7.4833,2.89639,10.67821,10.30495,10.41374,10.523C139.20074,63.02481,132.89276,53.71272,126.74515,58.75431Z" fill="#160b07"/><path d="M145.966,314.97222c-3.6427,1.65014-7.31711,3.24634-11.12226,4.54a58.90653,58.90653,0,0,1-11.73519,2.70483,92.59364,92.59364,0,0,1-12.01313.523c-4.00265-.06421-8.00082-.16357-11.99987-.42187-8.04981-.29493-15.91474-2.82959-23.10465-6.35376-3.625-1.73194-7.103-3.72535-10.59076-5.66871a91.48706,91.48706,0,0,0-10.69195-5.35839l.03167-.09082a70.262,70.262,0,0,1,11.01654,4.78393c3.55686,1.83521,7.07816,3.7146,10.66422,5.4397,7.16522,3.405,14.74661,6.14575,22.71808,6.741a91.56683,91.56683,0,0,0,23.86175-.38575,74.8347,74.8347,0,0,0,11.61829-2.61279c3.80615-1.16235,7.53622-2.60254,11.31149-3.92969Z" fill="#b02336"/><path d="M111.74219,91.4008s10.24359,8.15306,18.39665-1.04527L152.0894,64.433l16.30612,9.82549-22.57771,34.91183,1.04526,40.55627-35.147,1.54323-16.54692,2.00114s-3.581-14.46207-4.75033-41.38295C90.41879,111.888,88.53731,95.58185,111.74219,91.4008Z" fill="#ffba55"/><path d="M107.35207,111.888a26.49616,26.49616,0,0,1,2.73263,4.60107,26.2,26.2,0,0,1,1.86655,5.01538,26.19769,26.19769,0,0,1-2.73264-4.60107A26.50484,26.50484,0,0,1,107.35207,111.888Z" fill="#e6952a"/><path d="M142.682,101.01714a20.912,20.912,0,0,1,2.9748,9.38647,18.52869,18.52869,0,0,1-.26758,4.97706,15.5784,15.5784,0,0,1-1.662,4.6604,28.81085,28.81085,0,0,0,.92032-4.76929,25.675,25.675,0,0,0,.05188-4.79663,34.13616,34.13616,0,0,0-.69931-4.76514A42.37634,42.37634,0,0,0,142.682,101.01714Z" fill="#e6952a"/><path d="M153.53263,65.30261l3.99214-6.51407.13416-34.29381,9.06417-2.09184s7.1078,30.11406,6.06253,38.47618c0,0,1.67639,2.91573-7.00129,11.806Z" fill="#f9977a"/><path d="M158.57081,32.97381s4.34269-.18059,11.19675-6.88278,11.53366-12.70719,5.751-9.21016l-4.36245,2.73782s2.76243-7.19542,4.78353-11.33786a5.70757,5.70757,0,0,0-1.13211-6.69642c-1.68591-1.55252-3.52287-1.4993-6.7685,2.80953-4.8543,6.44446-7.235,9.98709-7.96791,11.92907-.2539.67279-2.4122,8.17172-2.4122,8.17172Z" fill="#f9977a"/><path d="M169.14064,23.82866a7.18076,7.18076,0,0,1,.33807-1.13769,11.58458,11.58458,0,0,1,.45722-1.07129c.17462-.34546.34839-.69092.556-1.02075a8.72843,8.72843,0,0,1,.66424-.98023,5.1057,5.1057,0,0,1-.2528,1.16675,8.12116,8.12116,0,0,1-.43958,1.09106,8.605,8.605,0,0,1-.58429,1.01856A5.90422,5.90422,0,0,1,169.14064,23.82866Z" fill="#dd765e"/><path d="M170.43794,13.89776a24.35756,24.35756,0,0,1,1.07154-2.67652c.39447-.87671.84405-1.72632,1.31927-2.56274A24.41063,24.41063,0,0,1,174.403,6.23735a13.23087,13.23087,0,0,1,1.92749-2.15356c-1.0946,1.58081-2.044,3.21411-2.99292,4.86743L171.90877,11.428C171.42885,12.254,170.95149,13.08208,170.43794,13.89776Z" fill="#dd765e"/><path d="M168.21883,12.12163a23.4297,23.4297,0,0,1,1.0401-2.98266,26.57259,26.57259,0,0,1,1.38141-2.8462,17.80092,17.80092,0,0,1,1.77294-2.63525,7.45341,7.45341,0,0,1,2.39423-2.073,10.79476,10.79476,0,0,0-2.03326,2.34473c-.57544.85913-1.12348,1.7395-1.62244,2.65161C170.12483,8.38921,169.20125,10.25835,168.21883,12.12163Z" fill="#dd765e"/><path d="M166.55159,9.97466a17.07952,17.07952,0,0,1,.82965-2.50928,22.64507,22.64507,0,0,1,1.13721-2.38721,19.56694,19.56694,0,0,1,1.43487-2.2268A12.91374,12.91374,0,0,1,171.73891.89605c-.48273.74121-.96326,1.46313-1.41114,2.20825-.43566.752-.88214,1.49438-1.29571,2.25805l-1.24341,2.29371Z" fill="#dd765e"/><path d="M146.28066,127.12886s-29.38473-46.05223-42.59-33.28622c0,0-1.21914,94.72552,44.85129,124.10975C148.542,217.95239,159.29155,187.14661,146.28066,127.12886Z" fill="#f73c4f"/><path d="M110.15517,151.26983c.85043,3.28564,1.76123,6.552,2.75662,9.79272.97324,3.24634,2.00607,6.47437,3.127,9.67017a176.76786,176.76786,0,0,0,7.60825,18.8081,85.30215,85.30215,0,0,0,10.473,17.26782,38.938,38.938,0,0,0,7.19486,7.04078,21.81912,21.81912,0,0,0,9.16235,4.103,21.2734,21.2734,0,0,1-9.44418-3.7019,39.30349,39.30349,0,0,1-7.50461-6.9502,61.25054,61.25054,0,0,1-5.92987-8.33593c-1.75684-2.92188-3.389-5.91871-4.85312-8.99366a160.96735,160.96735,0,0,1-7.43292-18.99536A175.24214,175.24214,0,0,1,110.15517,151.26983Z" fill="#b02336"/><path d="M113.05043,97.8814c3.26511,2.81274,6.32974,5.84985,9.306,8.96826q4.449,4.69373,8.50516,9.749a116.85172,116.85172,0,0,1,7.46121,10.58228,62.1588,62.1588,0,0,1,5.64682,11.62793l-1.39777-2.90845c-.43863-.97925-1.028-1.88623-1.53329-2.83032l-.77231-1.40967-.84756-1.36768c-.57682-.904-1.10215-1.83813-1.71979-2.71582-2.35269-3.58422-4.91309-7.02954-7.58872-10.38159-2.62774-3.39282-5.45752-6.62451-8.2955-9.84814-1.41482-1.6167-2.8649-3.20313-4.335-4.771C116.03487,100.98272,114.54268,99.43462,113.05043,97.8814Z" fill="#b02336"/><path d="M113.05043,124.89458c2.74429,6.52857,5.39209,13.09351,8.06177,19.64893l8.00213,19.66577q3.99037,9.835,8.21671,19.56616c1.42126,3.23633,2.86148,6.46753,4.4603,9.61646.79174,1.57763,1.61441,3.14086,2.53854,4.64331.213.38842.48813.73193.73163,1.09936a8.81587,8.81587,0,0,0,.7948,1.05225,6.13225,6.13225,0,0,0,.905.95556,4.4481,4.4481,0,0,0,1.089.74073c-1.64975-.73023-2.71118-2.28907-3.73349-3.7085-.99207-1.47461-1.88275-3.012-2.74247-4.56372-1.6914-3.12036-3.2102-6.32422-4.71679-9.53149-2.97638-6.43262-5.699-12.9729-8.43118-19.5066-2.63587-6.573-5.27649-13.14306-7.79844-19.75927l-3.752-9.93555Z" fill="#b02336"/><path d="M120.766,122.502c2.13748,3.23438,4.16433,6.53565,6.16446,9.85254,2.0007,3.31714,3.91156,6.68628,5.83816,10.04737,1.85672,3.40014,3.73209,6.79126,5.47076,10.25756.86261,1.73633,1.71586,3.478,2.52,5.24414.38681.89087.76957,1.783,1.1185,2.69019a11.31107,11.31107,0,0,1,.80414,2.79517,13.34939,13.34939,0,0,0-1.03814-2.69483c-.41254-.87256-.85868-1.73022-1.30832-2.5852-.8862-1.7168-1.81043-3.41529-2.75-5.10523-1.869-3.385-3.73429-6.77417-5.6543-10.1333L126.293,132.72173C124.42723,129.32988,122.56194,125.93731,120.766,122.502Z" fill="#b02336"/></g></g></svg>