<svg id="Layer_1" data-name="Layer 1" xmlns="http://www.w3.org/2000/svg" viewBox="0 0 700 550"><title>women taking clothes out of the cupboard</title><path d="M202.68594,349.61857c11.21248,61.29052,140.64955,162.04372,184.34359,80.96669,22.99957-42.67734,91.18884-104.31806,143.739-140.98622,51.09763-35.6549-93.74571-97.54039-184.34325-80.96648S191.47346,288.32805,202.68594,349.61857Z" fill="#efedef"/><path d="M185.80148,351.29055c-12.333-67.41407,58.59278-137.07129,158.10547-155.27637,36.2168-6.625,84.96094-2.09277,130.38965,12.12207,43.39942,13.58008,74.97461,33.08594,82.40528,50.90332,4.15332,9.959.63378,19.21-10.17579,26.75293l-.60937-.87305c10.49707-7.32519,13.79492-15.89453,9.80273-25.46972-7.31347-17.53516-38.63379-36.8086-81.74023-50.29688-45.27246-14.166-93.8252-18.68457-129.88086-12.0918-98.93457,18.09961-169.47656,87.20118-157.25,154.03809Z" fill="#efedef"/><rect x="154.64686" y="123.15578" width="155.88348" height="260.26361" fill="#e19974"/><rect x="232.5886" y="123.15578" width="77.94174" height="260.26361" fill="#d6694b"/><rect x="154.64686" y="383.41938" width="155.88348" height="24.0349" fill="#d6694b"/><rect x="154.64686" y="407.45428" width="155.88348" height="24.0349" fill="#d6694b"/><rect x="154.64686" y="431.48918" width="155.88348" height="24.0349" fill="#d6694b"/><rect x="149.49653" y="112.1684" width="166.18415" height="10.98738" fill="#935b50"/><rect x="231.87277" y="123.15578" width="1.43164" height="260.26367" fill="#935b50"/><rect x="150.35492" y="455.52408" width="164.46737" height="6.1804" fill="#935b50"/><rect x="223.919" y="392.57557" width="17.33963" height="5.72259" fill="#935b50"/><rect x="223.919" y="416.61019" width="17.33963" height="5.72259" fill="#935b50"/><rect x="223.919" y="440.64481" width="17.33963" height="5.72259" fill="#935b50"/><ellipse cx="193.59539" cy="211.79877" rx="30.36464" ry="80.15341" fill="#ead5cc"/><rect x="154.64719" y="406.73879" width="155.88281" height="1.43164" fill="#935b50"/><rect x="154.64719" y="430.77297" width="155.88281" height="1.43164" fill="#935b50"/><path d="M172.2424,206.08107c.95679-2.33081,1.99585-4.62182,2.99146-6.93383l3.12585-6.86866c2.08557-4.57812,4.27222-9.10693,6.45935-13.63574,2.21753-4.51367,4.43787-9.02637,6.75757-13.49023l3.48425-6.69385c1.20838-2.2085,2.37256-4.43848,3.62-6.62769-.95581,2.3313-1.99487,4.62232-2.98963,6.93482l-3.12536,6.86865c-2.08667,4.57764-4.27283,9.10693-6.46155,13.63477-2.21936,4.51294-4.43909,9.02563-6.75989,13.48925l-3.48376,6.6941C174.65305,201.6614,173.48886,203.89138,172.2424,206.08107Z" fill="#b2a19b"/><path d="M179.20346,220.79958c.95679-2.33081,1.99585-4.62183,2.99146-6.93384l3.12573-6.86865c2.08569-4.57813,4.27234-9.10693,6.45935-13.63574,2.21765-4.51367,4.43787-9.02637,6.75769-13.49048l3.48413-6.69385c1.2085-2.20825,2.37268-4.43823,3.62-6.62744-.95569,2.3313-1.99475,4.62231-2.98951,6.93481l-3.12536,6.86866c-2.08667,4.57763-4.27283,9.10693-6.46167,13.63476-2.21936,4.51294-4.43909,9.02564-6.75989,13.48926l-3.48376,6.69409C181.61411,216.3799,180.44992,218.60988,179.20346,220.79958Z" fill="#b2a19b"/><rect x="240.89962" y="147.58439" width="58.84136" height="10.64068" rx="3.9704" fill="#7ca1b1"/><rect x="244.11565" y="136.94371" width="58.84136" height="10.64068" rx="3.9704" fill="#ffba55"/><rect x="242.50763" y="188.87657" width="58.84136" height="10.64068" rx="3.9704" fill="#7ca1b1"/><rect x="245.72366" y="178.23589" width="58.84136" height="10.64068" rx="3.9704" fill="#ffba55"/><rect x="237.38581" y="167.59521" width="58.84136" height="10.64068" rx="3.9704" fill="#f65b2b"/><rect x="243.46053" y="230.2217" width="58.84136" height="10.64068" rx="3.9704" fill="#7ca1b1"/><rect x="246.67656" y="219.58102" width="58.84136" height="10.64068" rx="3.9704" fill="#ffba55"/><rect x="238.33871" y="208.94034" width="58.84136" height="10.64068" rx="3.9704" fill="#f65b2b"/><rect x="243.09169" y="273.68437" width="58.84136" height="10.64068" rx="3.9704" fill="#f65b2b"/><rect x="239.69037" y="263.04369" width="58.84136" height="10.64068" rx="3.9704" fill="#7ca1b1"/><rect x="239.29333" y="252.40301" width="58.84136" height="10.64068" rx="3.9704" fill="#ffba55"/><rect x="242.30911" y="314.97655" width="58.84136" height="10.64068" rx="3.9704" transform="translate(543.45959 640.59378) rotate(-180)" fill="#7ca1b1"/><rect x="239.09309" y="304.33587" width="58.84136" height="10.64068" rx="3.9704" fill="#f65b2b"/><rect x="247.43093" y="293.6952" width="58.84136" height="10.64068" rx="3.9704" fill="#ffba55"/><rect x="239.69037" y="338.95778" width="58.84136" height="10.64068" rx="3.9704" fill="#ffba55"/><rect x="244.11565" y="349.59846" width="61.40227" height="33.82092" rx="6.61734" fill="#7ca1b1"/><rect x="154.64719" y="382.70363" width="155.88281" height="1.43164" fill="#935b50"/><rect x="232.58859" y="157.51027" width="77.94141" height="1.42969" fill="#935b50"/><rect x="232.58859" y="198.80227" width="77.94141" height="1.42969" fill="#935b50"/><rect x="232.58859" y="240.14797" width="77.94141" height="1.42969" fill="#935b50"/><rect x="232.58859" y="283.60988" width="77.94141" height="1.42969" fill="#935b50"/><rect x="232.58859" y="324.90285" width="77.94141" height="1.42969" fill="#935b50"/><rect x="474.05747" y="327.18521" width="86.37071" height="117.02902" fill="#e19974"/><rect x="465.81599" y="317.29543" width="102.85367" height="3.29659" fill="#935b50"/><rect x="485.43072" y="332.1301" width="63.62423" height="17.14228" fill="#d6694b"/><polygon points="560.428 327.185 474.057 327.185 465.816 320.592 568.67 320.592 560.428 327.185" fill="#d6694b"/><rect x="485.43072" y="358.17318" width="63.62423" height="75.49196" fill="#d6694b"/><rect x="494.33152" y="368.55744" width="45.82263" height="54.72343" fill="#935b50"/><rect x="469.60708" y="444.21423" width="95.27151" height="4.79837" fill="#935b50"/><polygon points="486.878 461.704 483.343 461.704 478.764 449.013 491.456 449.013 486.878 461.704" fill="#e19974"/><polygon points="551.143 461.704 547.608 461.704 543.03 449.013 555.721 449.013 551.143 461.704" fill="#e19974"/><circle cx="516.58351" cy="340.70124" r="2.96693" fill="#935b50"/><circle cx="533.52433" cy="395.91915" r="2.96693" fill="#e19974"/><rect x="515.51828" y="245.34133" width="2.26563" height="21.52148" fill="#f65b2b"/><path d="M540.38919,313.23861h-3.49578s-1.0875-4.73865-8.01174-8.00131c-6.35117-2.99257-7.83536-13.98265-7.83536-13.98265V265.23107a4.66088,4.66088,0,0,0-4.66088-4.66088h0a4.66088,4.66088,0,0,0-4.66088,4.66088v26.02358s-1.48419,10.99008-7.83536,13.98265c-6.92423,3.26266-8.01174,8.00131-8.01174,8.00131H491.6353a4.19481,4.19481,0,0,0-4.19481,4.19481H544.584A4.19481,4.19481,0,0,0,540.38919,313.23861Z" fill="#e19974"/><path d="M520.1542,256.9433a5.32788,5.32788,0,0,1,.39559-4.44859,6.5814,6.5814,0,0,1,5.12137-3.15527c2.82337-.26084,4.91924,1.48264,7.46749,3.411,10.48522,7.93469,8.0699,5.47236,15.74784,11.41161a10.04184,10.04184,0,0,1,3.759,9.86624c-.92571,4.32867-5.66478,7.44031-9.9989,7.68749a9.98069,9.98069,0,0,1-5.54534-1.38548,19.55924,19.55924,0,0,1-5.91712-5.01919A87.27382,87.27382,0,0,1,520.1542,256.9433Z" fill="#ffba55"/><path d="M512.5768,234.54166a5.32789,5.32789,0,0,1-.41965,4.44638,6.58138,6.58138,0,0,1-5.13837,3.12752c-2.82473.24556-4.91114-1.50923-7.44893-3.45134-10.44214-7.9913-8.04017-5.51594-15.68586-11.49664a10.04184,10.04184,0,0,1-3.70552-9.88643c.94911-4.3236,5.70494-7.40956,10.04034-7.63328a9.9807,9.9807,0,0,1,5.53776,1.41545,19.55951,19.55951,0,0,1,5.88989,5.05114A87.27435,87.27435,0,0,1,512.5768,234.54166Z" fill="#ffba55"/><path d="M505.1698,249.49837a5.32786,5.32786,0,0,1,4.45091.36848,6.58138,6.58138,0,0,1,3.18643,5.102c.278,2.82172-1.45263,4.92819-3.36542,7.48814-7.87064,10.53339-5.42307,8.1031-11.31541,15.8171a10.04187,10.04187,0,0,1-9.84315,3.819c-4.33423-.89931-7.4747-5.61933-7.74828-9.95186a9.9807,9.9807,0,0,1,1.35164-5.55368,19.5596,19.5596,0,0,1,4.983-5.9476A87.27406,87.27406,0,0,1,505.1698,249.49837Z" fill="#ffba55"/><path d="M527.52483,241.78458a5.32788,5.32788,0,0,1-4.44886-.39255,6.58137,6.58137,0,0,1-3.15877-5.1192c-.26277-2.82319,1.47927-4.92026,3.40588-7.46983,7.9275-10.49065,5.46682-8.07364,11.40081-15.75565a10.04187,10.04187,0,0,1,9.86366-3.76571c4.32931.92275,7.4442,5.65969,7.69434,9.99363a9.98078,9.98078,0,0,1-1.38168,5.54629,19.55939,19.55939,0,0,1-5.01514,5.92056A87.27365,87.27365,0,0,1,527.52483,241.78458Z" fill="#ffba55"/><circle cx="516.489" cy="245.68119" r="12.59985" fill="#f65b2b"/><path d="M516.489,295.42824a49.74707,49.74707,0,1,1,49.74707-49.74707A49.80336,49.80336,0,0,1,516.489,295.42824Zm0-98.57812A48.83106,48.83106,0,1,0,565.32,245.68117,48.886,48.886,0,0,0,516.489,196.85012Z" fill="#7ca1b1"/><path d="M516.489,277.53273a31.85156,31.85156,0,1,1,31.85157-31.85156A31.88829,31.88829,0,0,1,516.489,277.53273Zm0-62.78711a30.93555,30.93555,0,1,0,30.93555,30.93555A30.971,30.971,0,0,0,516.489,214.74562Z" fill="#7ca1b1"/><rect x="516.08676" y="196.3757" width="0.91479" height="98.58947" transform="translate(-33.4167 88.46075) rotate(-9.48304)" fill="#7ca1b1"/><rect x="467.18859" y="245.15837" width="98.52462" height="0.91572" transform="translate(13.87912 518.50901) rotate(-53.93669)" fill="#7ca1b1"/><rect x="467.05274" y="244.92495" width="98.68402" height="0.91577" transform="translate(-32.25548 84.57488) rotate(-9.08062)" fill="#7ca1b1"/><rect x="516.247" y="196.08969" width="0.91659" height="98.58238" transform="translate(15.79712 521.58213) rotate(-54.2752)" fill="#7ca1b1"/><circle cx="516.489" cy="245.68119" r="8.17665" fill="#7ca1b1"/><path d="M321.097,353.57207a1.5009,1.5009,0,0,0,0-3,1.5009,1.5009,0,0,0,0,3Z" fill="#ffba55"/><path d="M371.95469,232.48567c-2.15062-4.01466-4.27272-10.03865-4.02737-18.77574a26.87442,26.87442,0,0,1,7.21435-8.63647c-1.36725.02933-2.46613.10964-3.51942.027-6.99706-.54865-15.63116-8.591-14.789-16.20816.734-6.63872,8.4003-10.54957,10.26542-11.50116a15.60208,15.60208,0,0,1,15.22465-.04149,17.78443,17.78443,0,0,1,6.77926,6.68241c1.68011,2.73743,1.63187,3.00411,4.68255,5.61962,3.37753,2.89574,5.64457,3.824,7.44346,7.03518,1.13909,2.03352,1.10192,5.42755.9108,7.92372a28.29525,28.29525,0,0,1,7.80628,11.54816c2.49832,6.5913,2.5431,14.5951,2.55492,16.70749.02644,4.71705-.54715,7.86888,1.51535,11.36826,1.832,3.10836,3.78276,3.16327,6.07178,5.65946,4.26213,4.64791,5.69217,13.39236,2.46068,18.93217-5.29913,9.08451-22.665,8.7483-29.19083,1.77639-4.39583-4.69641-.5622-8.86673-4.78576-18.13036C384.00146,242.44785,377.25451,242.37913,371.95469,232.48567Z" fill="#160b07"/><path d="M392.292,216.566s21.79941,111.42053,48.86043,118.31143c0,0-21.47962,17.44-34.13113,7.55021C407.02125,342.42762,351.97369,216.63416,392.292,216.566Z" fill="#f73c4f"/><path d="M427.00156,420.983s18.06214,16.01123,17.10789,17.65945-34.535,29.1442-30.58783,21.09317l5.662-10.16354c3.86082-11.68726-1.86275-22.56578-1.86275-22.56578Z" fill="#f9977a"/><path d="M415.146,456.8198l7.63063-4.33936a31.56454,31.56454,0,0,0-4.59173-.78076,1.39765,1.39765,0,0,1-1.06846-2.07961,2.33693,2.33693,0,0,1,2.019-1.19076A23.78425,23.78425,0,0,1,425.852,449.907l2.94017-2.46026c-.3079-1.99459-.48533-8.36615,6.73089-18.58792a.64755.64755,0,0,1,.9766-.091l1.33281,1.28795a.6454.6454,0,0,1,.08294.82987,39.23651,39.23651,0,0,0-5.91763,13.87869l10.5195-8.80256c2.44178,1.12172,3.72616,4.75981,3.72616,4.75981-2.09748,2.11509-15.22161,20.0242-26.75627,20.0242-5.68815,0-9.90416,1.20958-11.65175.23141C404.5669,459.14769,415.146,456.8198,415.146,456.8198Z" fill="#f73943"/><path d="M384.33964,432.99728s4.76883,23.66132,3.01417,24.40186-47.76775,3.62122-39.76665-.42623l13.28783-5.86858a13.218,13.218,0,0,0,7.87724-11.9643l.07245-7.54372Z" fill="#f9977a"/><path d="M349.27271,456.22848l12.71763-.63817a31.56385,31.56385,0,0,0-3.19432-3.38968,1.39766,1.39766,0,0,1,.40022-2.30352,2.33694,2.33694,0,0,1,2.32887.26612,23.78473,23.78473,0,0,1,4.47024,5.22612l3.8289-.19211c.956-1.77742,4.6533-6.96957,16.57134-10.77991a.64755.64755,0,0,1,.83429.51574l.28773,1.831a.64538.64538,0,0,1-.4338.7123,39.23667,39.23667,0,0,0-13.08492,7.5114l13.69936-.68741c1.273,2.36645.1061,6.04391.1061,6.04391-22.1558,2.77008-43.08527.85374-46.30482-1.06047S349.27271,456.22848,349.27271,456.22848Z" fill="#f73943"/><path d="M393.84053,279.86234l41.15518,148.4305c.576,3.30627-16.91027,7.93388-18.65483,4.74842L377.23158,313.737s10.42713,126.77139,9.37789,126.90777c0,0-18.20489.31742-18.35732-.12441a41.69652,41.69652,0,0,1-1.37051-6.88963L352.66743,284.325Z" fill="#376f92"/><path d="M364.17433,215.22578l-3.908,3.10708-2.80285,11.65731,26.32191-.32467L392.292,216.566s-11.76867-3.01071-16.0886-8.0331Z" fill="#f9977a"/><path d="M365.00539,210.05591s5.184,3.78734,11.13562-.98172c0,0-1.97286,8.34244-11.96668,6.15159A5.9423,5.9423,0,0,0,365.00539,210.05591Z" fill="#dd765e"/><path d="M384.61665,214.23826s-9.765,7.77222-17.53723-.99658l-20.92505-24.71143-15.54431,9.36646,21.523,33.28076,3.42175,137.37988a66.52806,66.52806,0,0,0,61.49792-10.38428Q405.06881,306.3579,393.08491,254.543l2.92041,3.18042a46.68586,46.68586,0,0,0,8.93848-23.95508S406.73738,218.22385,384.61665,214.23826Z" fill="#ffba55"/><path d="M388.80173,233.76833a25.27271,25.27271,0,0,1-1.77954,4.781,24.95817,24.95817,0,0,1-2.605,4.386,24.98114,24.98114,0,0,1,1.77954-4.781A25.257,25.257,0,0,1,388.80173,233.76833Z" fill="#e6952a"/><path d="M355.12229,223.40529a40.402,40.402,0,0,0-1.2566,4.47364,32.5667,32.5667,0,0,0-.66674,4.54248,24.47519,24.47519,0,0,0,.04956,4.57251,27.45321,27.45321,0,0,0,.87744,4.54638,14.84641,14.84641,0,0,1-1.58448-4.44238,17.67807,17.67807,0,0,1-.25512-4.74487A19.93577,19.93577,0,0,1,355.12229,223.40529Z" fill="#e6952a"/><path d="M344.77859,189.35932l-3.80564-6.20973-.12789-32.69163-8.6407-1.99411s-6.77573,28.70715-5.7793,36.6786c0,0-1.59806,2.7795,6.6742,11.25441Z" fill="#f9977a"/><path d="M339.97578,158.5409s-4.1398-.17215-10.67365-6.56122-10.99481-12.11352-5.48232-8.77987l4.15864,2.60991s-2.63338-6.85925-4.56-10.80815a5.44093,5.44093,0,0,1,1.07922-6.38357c1.60714-1.48,3.35829-1.42926,6.45228,2.67826,4.62751,6.14338,6.897,9.52051,7.59566,11.37176.242.64135,2.2995,7.78994,2.2995,7.78994Z" fill="#f9977a"/><path d="M329.89987,149.823a5.61324,5.61324,0,0,1-.70434-.89014,8.20267,8.20267,0,0,1-.55713-.9707,7.75755,7.75755,0,0,1-.41895-1.04,4.86759,4.86759,0,0,1-.241-1.11231,8.32283,8.32283,0,0,1,.633.93433c.198.31445.36353.6438.53.97314a11.08549,11.08549,0,0,1,.436,1.021A6.88463,6.88463,0,0,1,329.89987,149.823Z" fill="#dd765e"/><path d="M328.66306,140.356c-.97339-1.55664-1.84986-3.147-2.76416-4.71534-.90454-1.57592-1.80957-3.133-2.853-4.64013a12.61406,12.61406,0,0,1,1.8374,2.053,23.31588,23.31588,0,0,1,1.50073,2.3081c.45288.79712.8816,1.60742,1.25757,2.44287A23.2405,23.2405,0,0,1,328.66306,140.356Z" fill="#dd765e"/><path d="M330.77854,138.66286c-.93653-1.77637-1.8169-3.55786-2.7959-5.282-.47583-.86939-.998-1.7085-1.54663-2.52759a10.29265,10.29265,0,0,0-1.93848-2.23535,7.10657,7.10657,0,0,1,2.28247,1.97632,16.97769,16.97769,0,0,1,1.69019,2.5122,25.37336,25.37336,0,0,1,1.31689,2.71314A22.32874,22.32874,0,0,1,330.77854,138.66286Z" fill="#dd765e"/><path d="M332.36789,136.61623l-2.36475-4.39673c-.394-.72827-.81982-1.43579-1.2351-2.15283-.42676-.71021-.885-1.39844-1.34522-2.10474a14.96942,14.96942,0,0,1,3.07007,3.98658,21.519,21.519,0,0,1,1.084,2.27587A16.269,16.269,0,0,1,332.36789,136.61623Z" fill="#dd765e"/><path d="M330.82576,369.63621l-1.85157-22.92578a8.82307,8.82307,0,0,0-5.582,2.4082c4.56446-5.2998,16.51465-37.92188,25.23926-61.74121,17.84658-48.71993,27.56839-64.87948,35.67563-71.88188a6.52377,6.52377,0,0,1,8.3133-.12915c2.94027,2.335,6.50584,5.16577,6.50814,5.16348-5.55664,5.83593-19.60449,49.38173-28.90039,74.75868-6.35938,17.36231-12.36719,33.76172-17.64746,46.42285C344.61579,360.80808,339.83357,368.90867,330.82576,369.63621Z" fill="#f73c4f"/><path d="M395.08929,256.72573a161.51179,161.51179,0,0,1-24.24484,15.47134l-19.09375,7.01978-2.02547-8.95048,37.31254-22.30885Z" fill="#f9977a"/><path d="M363,266.13544s-3.78572-1.684-12.4771,1.13936-15.23033,5.97164-8.81082,5.43244l4.88507-.49189s-5.40531,4.97661-8.8851,7.65933a5.44093,5.44093,0,0,0-1.86758,6.19893c.78283,2.03973,2.3744,2.77185,6.97055.46534,6.87419-3.4497,10.40725-5.46788,11.85528-6.81638.50166-.46718,5.51942-5.95876,5.51942-5.95876Z" fill="#f9977a"/><path d="M350.1008,269.47243a6.81847,6.81847,0,0,1-.77051.82886,11.01821,11.01821,0,0,1-.844.72143c-.29541.2212-.58984.44263-.907.63672a8.32969,8.32969,0,0,1-.98218.55591,4.87055,4.87055,0,0,1,.70972-.88965,7.75518,7.75518,0,0,1,.8374-.74585,8.20042,8.20042,0,0,1,.93017-.62256A5.63767,5.63767,0,0,1,350.1008,269.47243Z" fill="#dd765e"/><path d="M344.789,277.40578a23.24857,23.24857,0,0,1-2.04834,1.83276c-.708.58179-1.45166,1.11719-2.21167,1.63038a23.267,23.267,0,0,1-2.36938,1.40161,12.62676,12.62676,0,0,1-2.55811,1.02368c1.60425-.887,3.10645-1.88013,4.61695-2.89087C341.7341,279.40407,343.22556,278.36843,344.789,277.40578Z" fill="#dd765e"/><path d="M345.93259,279.86232a22.32494,22.32494,0,0,1-2.15088,2.10718,25.31391,25.31391,0,0,1-2.38477,1.84644,16.99267,16.99267,0,0,1-2.62988,1.50049,7.10432,7.10432,0,0,1-2.92261.75708,10.28889,10.28889,0,0,0,2.72925-1.14209c.85523-.49024,1.69605-1.01,2.5083-1.57788C342.72458,282.24343,344.30466,281.03811,345.93259,279.86232Z" fill="#dd765e"/><path d="M346.44772,282.40187a16.27794,16.27794,0,0,1-1.77075,1.792,21.57233,21.57233,0,0,1-1.98169,1.55761,14.96721,14.96721,0,0,1-4.521,2.209c.72583-.42871,1.44189-.8418,2.13989-1.28882.69043-.458,1.386-.90283,2.0625-1.38037Z" fill="#dd765e"/><path d="M360.937,366.77207a1.5009,1.5009,0,0,0,0-3,1.5009,1.5009,0,0,0,0,3Z" fill="#ffba55"/><path d="M359.737,366.77207a1.5009,1.5009,0,0,0,0-3,1.5009,1.5009,0,0,0,0,3Z" fill="#f73c4f"/><path d="M365.257,368.21207a1.5009,1.5009,0,0,0,0-3,1.5009,1.5009,0,0,0,0,3Z" fill="#f73c4f"/><path d="M371.737,369.41207a1.5009,1.5009,0,0,0,0-3,1.5009,1.5009,0,0,0,0,3Z" fill="#f73c4f"/><path d="M378.697,369.65207a1.5009,1.5009,0,0,0,0-3,1.5009,1.5009,0,0,0,0,3Z" fill="#f73c4f"/><path d="M385.417,369.17207a1.5009,1.5009,0,0,0,0-3,1.5009,1.5009,0,0,0,0,3Z" fill="#f73c4f"/><path d="M392.377,367.73207a1.5009,1.5009,0,0,0,0-3,1.5009,1.5009,0,0,0,0,3Z" fill="#f73c4f"/><path d="M399.097,365.09207a1.5009,1.5009,0,0,0,0-3,1.5009,1.5009,0,0,0,0,3Z" fill="#f73c4f"/><path d="M405.817,361.97207a1.5009,1.5009,0,0,0,0-3,1.5009,1.5009,0,0,0,0,3Z" fill="#f73c4f"/><path d="M411.337,359.33207a1.5009,1.5009,0,0,0,0-3,1.5009,1.5009,0,0,0,0,3Z" fill="#f73c4f"/><path d="M370.48446,439.14486a1.5009,1.5009,0,0,0,0-3,1.5009,1.5009,0,0,0,0,3Z" fill="#f73c4f"/><path d="M376.96446,438.66486a1.5009,1.5009,0,0,0,0-3,1.5009,1.5009,0,0,0,0,3Z" fill="#f73c4f"/><path d="M382.96446,438.66486a1.5009,1.5009,0,0,0,0-3,1.5009,1.5009,0,0,0,0,3Z" fill="#f73c4f"/><path d="M419.44446,432.18486a1.5009,1.5009,0,0,0,0-3,1.5009,1.5009,0,0,0,0,3Z" fill="#f73c4f"/><path d="M425.68446,430.98486a1.5009,1.5009,0,0,0,0-3,1.5009,1.5009,0,0,0,0,3Z" fill="#f73c4f"/><path d="M431.20446,429.06486a1.5009,1.5009,0,0,0,0-3,1.5009,1.5009,0,0,0,0,3Z" fill="#f73c4f"/><path d="M330.697,371.57207a1.5009,1.5009,0,0,0,0-3,1.5009,1.5009,0,0,0,0,3Z" fill="#ffba55"/><path d="M329.257,374.21207a1.5009,1.5009,0,0,0,0-3,1.5009,1.5009,0,0,0,0,3Z" fill="#ffba55"/><path d="M323.017,351.41207a1.5009,1.5009,0,0,0,0-3,1.5009,1.5009,0,0,0,0,3Z" fill="#ffba55"/><path d="M441.817,337.01207a1.5009,1.5009,0,0,0,0-3,1.5009,1.5009,0,0,0,0,3Z" fill="#ffba55"/><path d="M443.497,338.93207a1.5009,1.5009,0,0,0,0-3,1.5009,1.5009,0,0,0,0,3Z" fill="#ffba55"/><path d="M336.937,358.13207a1.5009,1.5009,0,0,0,0-3,1.5009,1.5009,0,0,0,0,3Z" fill="#ffba55"/><path d="M349.657,327.41207a1.5009,1.5009,0,0,0,0-3,1.5009,1.5009,0,0,0,0,3Z" fill="#ffba55"/><path d="M336.457,341.09207a1.5009,1.5009,0,0,0,0-3,1.5009,1.5009,0,0,0,0,3Z" fill="#ffba55"/><path d="M349.177,304.13207a1.5009,1.5009,0,0,0,0-3,1.5009,1.5009,0,0,0,0,3Z" fill="#ffba55"/><path d="M364.777,295.49207a1.5009,1.5009,0,0,0,0-3,1.5009,1.5009,0,0,0,0,3Z" fill="#ffba55"/><path d="M364.777,258.77207a1.5009,1.5009,0,0,0,0-3,1.5009,1.5009,0,0,0,0,3Z" fill="#ffba55"/><path d="M384.217,245.81207a1.5009,1.5009,0,0,0,0-3,1.5009,1.5009,0,0,0,0,3Z" fill="#ffba55"/><path d="M381.577,227.09207a1.5009,1.5009,0,0,0,0-3,1.5009,1.5009,0,0,0,0,3Z" fill="#ffba55"/><path d="M403.897,276.77207a1.5009,1.5009,0,0,0,0-3,1.5009,1.5009,0,0,0,0,3Z" fill="#ffba55"/><path d="M407.257,304.85207a1.5009,1.5009,0,0,0,0-3,1.5009,1.5009,0,0,0,0,3Z" fill="#ffba55"/><path d="M418.777,317.33207a1.5009,1.5009,0,0,0,0-3,1.5009,1.5009,0,0,0,0,3Z" fill="#ffba55"/><path d="M418.297,339.41207a1.5009,1.5009,0,0,0,0-3,1.5009,1.5009,0,0,0,0,3Z" fill="#ffba55"/><path d="M432.697,336.53207a1.5009,1.5009,0,0,0,0-3,1.5009,1.5009,0,0,0,0,3Z" fill="#ffba55"/><path d="M370.96446,387.78486a1.5009,1.5009,0,0,0,0-3,1.5009,1.5009,0,0,0,0,3Z" fill="#ffba55"/><path d="M378.64446,402.18486a1.5009,1.5009,0,0,0,0-3,1.5009,1.5009,0,0,0,0,3Z" fill="#ffba55"/><path d="M370.72446,422.10486a1.5009,1.5009,0,0,0,0-3,1.5009,1.5009,0,0,0,0,3Z" fill="#ffba55"/><path d="M382.00446,430.74486a1.5009,1.5009,0,0,0,0-3,1.5009,1.5009,0,0,0,0,3Z" fill="#ffba55"/><path d="M413.497,368.45207a1.5009,1.5009,0,0,0,0-3,1.5009,1.5009,0,0,0,0,3Z" fill="#ffba55"/><path d="M405.52446,387.54486a1.5009,1.5009,0,0,0,0-3,1.5009,1.5009,0,0,0,0,3Z" fill="#ffba55"/><path d="M418.48446,394.50486a1.5009,1.5009,0,0,0,0-3,1.5009,1.5009,0,0,0,0,3Z" fill="#ffba55"/><path d="M414.88446,411.78486a1.5009,1.5009,0,0,0,0-3,1.5009,1.5009,0,0,0,0,3Z" fill="#ffba55"/><path d="M358.40274,192.91194c1.9467-9.56541,8.824-16.2412,15.36082-14.91087,5.04529,1.02681,8.41009,6.5243,8.78926,13.37707a1.86456,1.86456,0,0,1,1.56717-.22746c1.41983.52763,1.71878,3.24806.66774,6.07618-.88736,2.38781-2.4524,4.08255-3.77306,4.23683-2.75756,7.49955-8.65476,12.32571-14.30077,11.17669C360.17705,211.31,356.456,202.47729,358.40274,192.91194Z" fill="#f9977a"/><path d="M366.27512,192.13918a5.30263,5.30263,0,0,1,.09375,3.48437,11.68145,11.68145,0,0,1-1.41358,3.23023l-.51269.69922a.81266.81266,0,0,0-.20166.59228,1.86178,1.86178,0,0,0,.79028,1.19654,4.33039,4.33039,0,0,0,3.19458.49878,3.91408,3.91408,0,0,1-3.48511-.0752,2.2996,2.2996,0,0,1-1.12036-1.5603,1.43385,1.43385,0,0,1,.29346-1.01856l.49731-.70263a15.14688,15.14688,0,0,0,1.47339-3.02613A6.39111,6.39111,0,0,0,366.27512,192.13918Z" fill="#dd765e"/><path d="M376.48648,194.51357a.4615.4615,0,0,0,.24506-.74824c-.11559-.13624-2.87488-3.32285-6.618-2.665a.4616.4616,0,1,0,.15971.90929c3.22825-.56723,5.73,2.32441,5.755,2.35372A.46172.46172,0,0,0,376.48648,194.51357Z" fill="#160b07"/><path d="M364.36392,191.10082a.46175.46175,0,0,0,.05769-.88142,8.90858,8.90858,0,0,0-5.581-.088.46166.46166,0,0,0,.30719.87072,8.058,8.058,0,0,1,4.947.08119A.462.462,0,0,0,364.36392,191.10082Z" fill="#160b07"/><path d="M375.51145,196.53249a11.23021,11.23021,0,0,0-1.47486-.949,5.90889,5.90889,0,0,0-1.58545-.60328,3.76484,3.76484,0,0,0-1.66015-.03051,5.54367,5.54367,0,0,0-1.6128.62133,3.59142,3.59142,0,0,1,1.52515-.96557,3.69534,3.69534,0,0,1,1.84692-.07569,5.21823,5.21823,0,0,1,1.67017.752A5.14341,5.14341,0,0,1,375.51145,196.53249Z" fill="#160b07"/><circle cx="371.35022" cy="195.68715" r="1.03541" fill="#160b07"/><circle cx="361.49702" cy="194.45577" r="1.03541" fill="#160b07"/><path d="M364.946,195.51809a11.23029,11.23029,0,0,0-1.47486-.949,5.89971,5.89971,0,0,0-1.5852-.60351,3.7696,3.7696,0,0,0-1.6604-.03052,5.55161,5.55161,0,0,0-1.6128.62158,3.58888,3.58888,0,0,1,1.52539-.96582,3.69452,3.69452,0,0,1,1.84668-.07568,5.2232,5.2232,0,0,1,1.67017.75195A5.14066,5.14066,0,0,1,364.946,195.51809Z" fill="#160b07"/><path d="M384.28708,194.459a5.49158,5.49158,0,0,0-.78931-.864.574.574,0,0,0-.74267-.08154,3.22767,3.22767,0,0,0-.75684.73852c-.24975.29834-.488.62427-.78467.93335a3.82583,3.82583,0,0,1,.35181-1.21,2.36139,2.36139,0,0,1,.86353-1.03345,1.05917,1.05917,0,0,1,.80346-.13427,1.15157,1.15157,0,0,1,.63233.43066A2.1361,2.1361,0,0,1,384.28708,194.459Z" fill="#dd765e"/><path d="M382.59348,197.59206a2.10272,2.10272,0,0,1-.55713-1.07715,3.75178,3.75178,0,0,1-.061-1.20971,4.6193,4.6193,0,0,1,.28418-1.16138,3.88955,3.88955,0,0,1,.59717-1.0332c-.02612.80908-.15869,1.53369-.227,2.26293-.04468.36231-.07056.72388-.08423,1.08863A6.47034,6.47034,0,0,0,382.59348,197.59206Z" fill="#dd765e"/><circle cx="383.12043" cy="200.15059" r="2.05518" fill="#ffcb33"/><path d="M371.22239,205.48791s-5.76628,3.61167-9.03838-.39062" fill="#dd2f22"/><path d="M370.31457,183.117c1.143.93735,7.04289,10.21507,9.1692,11.253a1.31189,1.31189,0,0,0,.77743.1579c.83169-.12163,1.16681-1.19879,2.09138-2.71452.6987-1.14545,1.00268-1.34243,1.41-1.98415a9.25985,9.25985,0,0,0,.41738-8.35372,9.81076,9.81076,0,0,0-5.39462-4.76024c-4.84424-2.07455-9.52618-.26242-10.71357.19714-7.13369,2.76108-10.17934,9.82352-9.92722,10.03134C358.44089,187.18794,364.45417,178.3109,370.31457,183.117Z" fill="#160b07"/><path d="M334.777,200.45207a1.5009,1.5009,0,0,0,0-3,1.5009,1.5009,0,0,0,0,3Z" fill="#f73c4f"/><path d="M340.777,196.85207a1.5009,1.5009,0,0,0,0-3,1.5009,1.5009,0,0,0,0,3Z" fill="#f73c4f"/><path d="M346.057,193.25207a1.5009,1.5009,0,0,0,0-3,1.5009,1.5009,0,0,0,0,3Z" fill="#f73c4f"/><path d="M389.737,249.17207a1.5009,1.5009,0,0,0,0-3,1.5009,1.5009,0,0,0,0,3Z" fill="#f73c4f"/><path d="M393.097,252.77207a1.5009,1.5009,0,0,0,0-3,1.5009,1.5009,0,0,0,0,3Z" fill="#f73c4f"/><path d="M395.977,255.89207a1.5009,1.5009,0,0,0,0-3,1.5009,1.5009,0,0,0,0,3Z" fill="#f73c4f"/><path d="M578.93039,462.59719H121.07a1,1,0,0,1,0-2H578.93039a1,1,0,0,1,0,2Z" fill="#935b50"/></svg>