<svg xmlns="http://www.w3.org/2000/svg" viewBox="0 0 459.86035 350.42879"><title>Asset 5</title><g id="Layer_2" data-name="Layer 2"><g id="Layer_1-2" data-name="Layer 1"><path d="M82.6159,237.45017c11.21248,61.29052,140.64955,162.04372,184.34359,80.96669,22.99957-42.67734,91.18884-104.31806,143.739-140.98622,51.09764-35.6549-93.74571-97.54038-184.34325-80.96648S71.40342,176.15966,82.6159,237.45017Z" fill="#efedef"/><path d="M65.73145,239.12215c-12.333-67.41406,58.59277-137.07129,158.10546-155.27637,36.2168-6.625,84.96094-2.09277,130.38965,12.12207,43.39942,13.58008,74.97461,33.08594,82.40528,50.90332,4.15332,9.959.63379,19.21-10.17579,26.75293l-.60937-.873c10.49707-7.3252,13.79492-15.89453,9.80273-25.46973-7.31347-17.53516-38.63378-36.80859-81.74023-50.29687-45.27246-14.166-93.8252-18.68458-129.88086-12.0918-98.93457,18.09961-169.47656,87.20117-157.25,154.03808Z" fill="#efedef"/><rect x="34.57682" y="10.98738" width="155.88348" height="260.26361" fill="#e19974"/><rect x="112.51856" y="10.98738" width="77.94174" height="260.26361" fill="#d6694b"/><rect x="34.57682" y="271.25099" width="155.88348" height="24.0349" fill="#d6694b"/><rect x="34.57682" y="295.28588" width="155.88348" height="24.0349" fill="#d6694b"/><rect x="34.57682" y="319.32078" width="155.88348" height="24.0349" fill="#d6694b"/><rect x="29.42649" width="166.18415" height="10.98738" fill="#935b50"/><rect x="111.80273" y="10.98738" width="1.43164" height="260.26367" fill="#935b50"/><rect x="30.28488" y="343.35568" width="164.46737" height="6.1804" fill="#935b50"/><rect x="103.84896" y="280.40718" width="17.33963" height="5.72259" fill="#935b50"/><rect x="103.84896" y="304.4418" width="17.33963" height="5.72259" fill="#935b50"/><rect x="103.84896" y="328.47641" width="17.33963" height="5.72259" fill="#935b50"/><ellipse cx="73.52535" cy="99.63037" rx="30.36464" ry="80.15341" fill="#ead5cc"/><rect x="34.57715" y="294.57039" width="155.88281" height="1.43164" fill="#935b50"/><rect x="34.57715" y="318.60457" width="155.88281" height="1.43164" fill="#935b50"/><path d="M52.17236,93.91268c.95679-2.33081,1.99585-4.62183,2.99146-6.93384l3.12585-6.86865c2.08557-4.57813,4.27222-9.10694,6.45935-13.63574,2.21753-4.51368,4.43787-9.02637,6.75757-13.49024l3.48425-6.69385c1.20838-2.20849,2.37256-4.43847,3.62-6.62768C77.655,41.994,76.616,44.285,75.62122,46.59749l-3.12537,6.86865c-2.08667,4.57764-4.27283,9.10694-6.46155,13.63477-2.21936,4.51294-4.43909,9.02563-6.75989,13.48926l-3.48376,6.69409C54.583,89.493,53.41882,91.723,52.17236,93.91268Z" fill="#b2a19b"/><path d="M59.13342,108.63118c.95679-2.33081,1.99585-4.62182,2.99146-6.93383l3.12573-6.86866C67.3363,90.25057,69.523,85.72176,71.71,81.193c2.21765-4.51367,4.43787-9.02637,6.75769-13.49048l3.48413-6.69385c1.2085-2.20825,2.37268-4.43823,3.62-6.62744-.95569,2.3313-1.99475,4.62232-2.9895,6.93482l-3.12537,6.86865c-2.08667,4.57764-4.27283,9.10693-6.46167,13.63477-2.21936,4.51294-4.43909,9.02563-6.75989,13.48925l-3.48376,6.6941C61.54407,104.21151,60.37988,106.44149,59.13342,108.63118Z" fill="#b2a19b"/><rect x="120.82958" y="35.41599" width="58.84136" height="10.64068" rx="3.9704" fill="#7ca1b1"/><rect x="124.04561" y="24.77531" width="58.84136" height="10.64068" rx="3.9704" fill="#ffba55"/><rect x="122.43759" y="76.70817" width="58.84136" height="10.64068" rx="3.9704" fill="#7ca1b1"/><rect x="125.65362" y="66.0675" width="58.84136" height="10.64068" rx="3.9704" fill="#ffba55"/><rect x="117.31578" y="55.42682" width="58.84136" height="10.64068" rx="3.9704" fill="#f65b2b"/><rect x="123.39049" y="118.0533" width="58.84136" height="10.64068" rx="3.9704" fill="#7ca1b1"/><rect x="126.60652" y="107.41262" width="58.84136" height="10.64068" rx="3.9704" fill="#ffba55"/><rect x="118.26867" y="96.77194" width="58.84136" height="10.64068" rx="3.9704" fill="#f65b2b"/><rect x="123.02165" y="161.51597" width="58.84136" height="10.64068" rx="3.9704" fill="#f65b2b"/><rect x="119.62034" y="150.87529" width="58.84136" height="10.64068" rx="3.9704" fill="#7ca1b1"/><rect x="119.2233" y="140.23461" width="58.84136" height="10.64068" rx="3.9704" fill="#ffba55"/><rect x="122.23907" y="202.80816" width="58.84136" height="10.64068" rx="3.9704" transform="translate(303.31951 416.25699) rotate(-180)" fill="#7ca1b1"/><rect x="119.02305" y="192.16748" width="58.84136" height="10.64068" rx="3.9704" fill="#f65b2b"/><rect x="127.36089" y="181.5268" width="58.84136" height="10.64068" rx="3.9704" fill="#ffba55"/><rect x="119.62034" y="226.78939" width="58.84136" height="10.64068" rx="3.9704" fill="#ffba55"/><rect x="124.04561" y="237.43006" width="61.40227" height="33.82092" rx="6.61734" fill="#7ca1b1"/><rect x="34.57715" y="270.53524" width="155.88281" height="1.43164" fill="#935b50"/><rect x="112.51855" y="45.34188" width="77.94141" height="1.42969" fill="#935b50"/><rect x="112.51855" y="86.63387" width="77.94141" height="1.42969" fill="#935b50"/><rect x="112.51855" y="127.97957" width="77.94141" height="1.42969" fill="#935b50"/><rect x="112.51855" y="171.44149" width="77.94141" height="1.42969" fill="#935b50"/><rect x="112.51855" y="212.73446" width="77.94141" height="1.42969" fill="#935b50"/><rect x="353.98744" y="215.01681" width="86.37071" height="117.02902" fill="#e19974"/><rect x="345.74596" y="205.12704" width="102.85367" height="3.29659" fill="#935b50"/><rect x="365.36068" y="219.9617" width="63.62423" height="17.14228" fill="#d6694b"/><polygon points="440.358 215.017 353.987 215.017 345.746 208.424 448.6 208.424 440.358 215.017" fill="#d6694b"/><rect x="365.36068" y="246.00478" width="63.62423" height="75.49196" fill="#d6694b"/><rect x="374.26148" y="256.38904" width="45.82263" height="54.72343" fill="#935b50"/><rect x="349.53704" y="332.04583" width="95.27151" height="4.79837" fill="#935b50"/><polygon points="366.808 349.536 363.273 349.536 358.694 336.844 371.386 336.844 366.808 349.536" fill="#e19974"/><polygon points="431.073 349.536 427.538 349.536 422.959 336.844 435.651 336.844 431.073 349.536" fill="#e19974"/><circle cx="396.51347" cy="228.53284" r="2.96693" fill="#935b50"/><circle cx="413.45429" cy="283.75076" r="2.96693" fill="#e19974"/><rect x="395.44824" y="133.17293" width="2.26563" height="21.52148" fill="#f65b2b"/><path d="M420.31915,201.07021h-3.49578s-1.0875-4.73864-8.01174-8.00131c-6.35116-2.99257-7.83536-13.98265-7.83536-13.98265V153.06267a4.66087,4.66087,0,0,0-4.66088-4.66087h0a4.66088,4.66088,0,0,0-4.66088,4.66087v26.02358s-1.48419,10.99008-7.83536,13.98265c-6.92423,3.26267-8.01174,8.00131-8.01174,8.00131h-4.24214a4.19481,4.19481,0,0,0-4.19481,4.19481H424.514A4.1948,4.1948,0,0,0,420.31915,201.07021Z" fill="#e19974"/><path d="M400.08416,144.7749a5.32792,5.32792,0,0,1,.39559-4.44859,6.5814,6.5814,0,0,1,5.12137-3.15527c2.82337-.26083,4.91925,1.48264,7.4675,3.411,10.48521,7.93469,8.06989,5.47235,15.74783,11.4116a10.04185,10.04185,0,0,1,3.759,9.86624c-.92571,4.32867-5.66478,7.44032-9.9989,7.68749a9.98076,9.98076,0,0,1-5.54534-1.38547,19.55941,19.55941,0,0,1-5.91712-5.0192A87.27382,87.27382,0,0,1,400.08416,144.7749Z" fill="#ffba55"/><path d="M392.50677,122.37326a5.328,5.328,0,0,1-.41966,4.44639,6.58139,6.58139,0,0,1-5.13837,3.12751c-2.82473.24556-4.91114-1.50923-7.44892-3.45134-10.44214-7.9913-8.04018-5.51593-15.68587-11.49663a10.04185,10.04185,0,0,1-3.70552-9.88643c.94911-4.3236,5.70495-7.40956,10.04034-7.63328a9.9807,9.9807,0,0,1,5.53776,1.41545,19.55934,19.55934,0,0,1,5.88989,5.05113A87.27428,87.27428,0,0,1,392.50677,122.37326Z" fill="#ffba55"/><path d="M385.09976,137.33a5.3279,5.3279,0,0,1,4.45091.36848,6.58139,6.58139,0,0,1,3.18643,5.102c.278,2.82173-1.45263,4.92819-3.36542,7.48815-7.87064,10.53338-5.42307,8.10309-11.31541,15.81709a10.04183,10.04183,0,0,1-9.84315,3.819c-4.33423-.8993-7.4747-5.61932-7.74828-9.95185a9.98082,9.98082,0,0,1,1.35164-5.55369,19.5596,19.5596,0,0,1,4.983-5.9476A87.27406,87.27406,0,0,1,385.09976,137.33Z" fill="#ffba55"/><path d="M407.45479,129.61619a5.32789,5.32789,0,0,1-4.44885-.39255,6.58137,6.58137,0,0,1-3.15878-5.11921c-.26277-2.82319,1.47927-4.92026,3.40588-7.46983,7.9275-10.49065,5.46682-8.07364,11.40081-15.75564a10.04183,10.04183,0,0,1,9.86366-3.76571c4.32931.92274,7.4442,5.65968,7.69434,9.99363a9.9808,9.9808,0,0,1-1.38167,5.54629,19.55967,19.55967,0,0,1-5.01515,5.92056A87.27408,87.27408,0,0,1,407.45479,129.61619Z" fill="#ffba55"/><circle cx="396.41896" cy="133.51279" r="12.59985" fill="#f65b2b"/><path d="M396.419,183.25985A49.74707,49.74707,0,1,1,446.166,133.51278,49.80336,49.80336,0,0,1,396.419,183.25985Zm0-98.57813A48.83106,48.83106,0,1,0,445.25,133.51278,48.886,48.886,0,0,0,396.419,84.68172Z" fill="#7ca1b1"/><path d="M396.419,165.36434a31.85157,31.85157,0,1,1,31.85156-31.85156A31.8883,31.8883,0,0,1,396.419,165.36434Zm0-62.78711a30.93555,30.93555,0,1,0,30.93554,30.93555A30.971,30.971,0,0,0,396.419,102.57723Z" fill="#7ca1b1"/><rect x="396.01673" y="84.2073" width="0.91479" height="98.58947" transform="translate(-16.57716 67.1457) rotate(-9.48304)" fill="#7ca1b1"/><rect x="347.11855" y="132.98998" width="98.52462" height="0.91572" transform="translate(55.165 375.31112) rotate(-53.93669)" fill="#7ca1b1"/><rect x="346.9827" y="132.75655" width="98.68402" height="0.91577" transform="translate(-16.05741 64.21915) rotate(-9.08062)" fill="#7ca1b1"/><rect x="396.17696" y="83.92129" width="0.91659" height="98.58238" transform="translate(56.89685 377.43146) rotate(-54.2752)" fill="#7ca1b1"/><circle cx="396.41896" cy="133.51279" r="8.17665" fill="#7ca1b1"/><path d="M201.027,241.40367a1.5009,1.5009,0,0,0,0-3,1.5009,1.5009,0,0,0,0,3Z" fill="#ffba55"/><path d="M251.88465,120.31727c-2.15062-4.01465-4.27272-10.03865-4.02737-18.77574a26.87442,26.87442,0,0,1,7.21435-8.63646c-1.36725.02932-2.46612.10963-3.51942.027-6.99706-.54866-15.63116-8.591-14.789-16.20816.734-6.63873,8.40029-10.54957,10.26541-11.50116a15.602,15.602,0,0,1,15.22465-.04149,17.78443,17.78443,0,0,1,6.77926,6.6824c1.68011,2.73744,1.63187,3.00411,4.68255,5.61962,3.37753,2.89574,5.64457,3.824,7.44346,7.03518,1.13909,2.03352,1.10192,5.42755.9108,7.92372a28.29548,28.29548,0,0,1,7.80629,11.54816c2.49831,6.59131,2.54309,14.5951,2.55491,16.7075.02644,4.717-.54715,7.86888,1.51535,11.36825,1.832,3.10837,3.78276,3.16327,6.07178,5.65947,4.26213,4.6479,5.69218,13.39235,2.46068,18.93217-5.29913,9.0845-22.665,8.74829-29.19083,1.77638-4.39583-4.6964-.5622-8.86673-4.78576-18.13036C263.93142,130.27945,257.18447,130.21073,251.88465,120.31727Z" fill="#160b07"/><path d="M272.22191,104.39759S294.02132,215.81811,321.08234,222.709c0,0-21.47962,17.44-34.13113,7.55022C286.95121,230.25923,231.90365,104.46576,272.22191,104.39759Z" fill="#f73c4f"/><path d="M306.93152,308.81464s18.06214,16.01123,17.1079,17.65945-34.535,29.14421-30.58784,21.09317l5.662-10.16354c3.86082-11.68725-1.86274-22.56578-1.86274-22.56578Z" fill="#f9977a"/><path d="M295.076,344.6514l7.63063-4.33936a31.5659,31.5659,0,0,0-4.59173-.78076,1.39765,1.39765,0,0,1-1.06846-2.0796,2.33692,2.33692,0,0,1,2.019-1.19077,23.7846,23.7846,0,0,1,6.71652,1.47771l2.94017-2.46026c-.30789-1.99458-.48533-8.36615,6.73089-18.58792a.64756.64756,0,0,1,.9766-.091l1.33281,1.288a.6454.6454,0,0,1,.08294.82987,39.23652,39.23652,0,0,0-5.91763,13.87869l10.5195-8.80257c2.44179,1.12172,3.72616,4.75982,3.72616,4.75982-2.09748,2.11508-15.22161,20.02419-26.75627,20.02419-5.68815,0-9.90416,1.20958-11.65175.23141C284.49686,346.9793,295.076,344.6514,295.076,344.6514Z" fill="#f73943"/><path d="M264.2696,320.82888s4.76883,23.66133,3.01417,24.40186-47.76775,3.62122-39.76665-.42623l13.28783-5.86858a13.21794,13.21794,0,0,0,7.87724-11.96429l.07245-7.54372Z" fill="#f9977a"/><path d="M229.20267,344.06009l12.71764-.63818a31.56773,31.56773,0,0,0-3.19432-3.38968,1.39765,1.39765,0,0,1,.40021-2.30351,2.33694,2.33694,0,0,1,2.32887.26611,23.78469,23.78469,0,0,1,4.47024,5.22612l3.8289-.19211c.956-1.77741,4.6533-6.96956,16.57134-10.77991a.64755.64755,0,0,1,.83429.51574l.28774,1.831a.64541.64541,0,0,1-.43381.7123,39.23648,39.23648,0,0,0-13.08492,7.5114l13.69936-.68742c1.273,2.36645.1061,6.04391.1061,6.04391-22.1558,2.77008-43.08527.85375-46.30482-1.06046S229.20267,344.06009,229.20267,344.06009Z" fill="#f73943"/><path d="M273.77049,167.69394l41.15518,148.4305c.576,3.30627-16.91026,7.93388-18.65483,4.74842l-39.1093-119.30422S267.58868,328.34,266.53943,328.47641c0,0-18.20489.31742-18.35732-.1244a41.69765,41.69765,0,0,1-1.37051-6.88964L232.59739,172.15665Z" fill="#376f92"/><path d="M244.10429,103.05739l-3.908,3.10707-2.80285,11.65731,26.32192-.32467,8.50656-13.09951s-11.76867-3.01072-16.0886-8.0331Z" fill="#f9977a"/><path d="M244.93535,97.88751s5.184,3.78735,11.13562-.98172c0,0-1.97286,8.34244-11.96668,6.1516A5.94232,5.94232,0,0,0,244.93535,97.88751Z" fill="#dd765e"/><path d="M264.54661,102.06986s-9.765,7.77222-17.53723-.99658l-20.925-24.71143L210.54,85.72831l21.523,33.28076L235.48472,256.389a66.52811,66.52811,0,0,0,61.49793-10.38427q-11.98389-51.81519-23.96778-103.63013l2.92041,3.18042a46.68586,46.68586,0,0,0,8.93848-23.95508S286.66734,106.05546,264.54661,102.06986Z" fill="#ffba55"/><path d="M268.73169,121.59993a25.27177,25.27177,0,0,1-1.77954,4.781,24.95862,24.95862,0,0,1-2.605,4.386,24.981,24.981,0,0,1,1.77954-4.781A25.257,25.257,0,0,1,268.73169,121.59993Z" fill="#e6952a"/><path d="M235.05225,111.2369a40.40181,40.40181,0,0,0-1.2566,4.47363,32.56692,32.56692,0,0,0-.66674,4.54248,24.476,24.476,0,0,0,.04956,4.57251,27.45455,27.45455,0,0,0,.87744,4.54639,14.84617,14.84617,0,0,1-1.58447-4.44239,17.67766,17.67766,0,0,1-.25513-4.74487A19.93573,19.93573,0,0,1,235.05225,111.2369Z" fill="#e6952a"/><path d="M224.70855,77.19092l-3.80564-6.20973L220.775,38.28956l-8.6407-1.99411s-6.77573,28.70716-5.7793,36.6786c0,0-1.59806,2.77951,6.6742,11.25441Z" fill="#f9977a"/><path d="M219.90574,46.3725s-4.1398-.17215-10.67364-6.56122-10.99482-12.11352-5.48233-8.77987l4.15864,2.60992s-2.63338-6.85926-4.56-10.80816a5.44093,5.44093,0,0,1,1.07922-6.38357c1.60714-1.48,3.35829-1.42926,6.45229,2.67827,4.6275,6.14337,6.897,9.5205,7.59565,11.37175.242.64135,2.2995,7.78994,2.2995,7.78994Z" fill="#f9977a"/><path d="M209.82983,37.65462a5.61324,5.61324,0,0,1-.70434-.89014,8.20187,8.20187,0,0,1-.55713-.9707,7.75755,7.75755,0,0,1-.419-1.04,4.868,4.868,0,0,1-.241-1.1123,8.32181,8.32181,0,0,1,.63305.93432c.198.31446.36353.6438.53.97315a11.08413,11.08413,0,0,1,.436,1.021A6.88494,6.88494,0,0,1,209.82983,37.65462Z" fill="#dd765e"/><path d="M208.593,28.18758c-.97339-1.55664-1.84986-3.147-2.76416-4.71533-.90454-1.57593-1.80957-3.13306-2.853-4.64014a12.61359,12.61359,0,0,1,1.8374,2.053A23.31539,23.31539,0,0,1,206.314,23.1932c.45289.79711.8816,1.60742,1.25757,2.44287A23.23756,23.23756,0,0,1,208.593,28.18758Z" fill="#dd765e"/><path d="M210.7085,26.49446c-.93653-1.77636-1.8169-3.55786-2.7959-5.282-.47583-.86938-.99805-1.70849-1.54663-2.52759a10.29288,10.29288,0,0,0-1.93848-2.23535A7.10657,7.10657,0,0,1,206.71,18.42586a16.97726,16.97726,0,0,1,1.69019,2.51221A25.3732,25.3732,0,0,1,209.717,23.6512,22.32928,22.32928,0,0,1,210.7085,26.49446Z" fill="#dd765e"/><path d="M212.29785,24.44783l-2.36474-4.39672c-.394-.72828-.81983-1.4358-1.23511-2.15284-.42676-.7102-.885-1.39843-1.34522-2.10473a14.96937,14.96937,0,0,1,3.07007,3.98657,21.51626,21.51626,0,0,1,1.084,2.27588A16.26886,16.26886,0,0,1,212.29785,24.44783Z" fill="#dd765e"/><path d="M210.75572,257.46781,208.90415,234.542a8.82307,8.82307,0,0,0-5.582,2.4082c4.56446-5.2998,16.51465-37.92187,25.23926-61.74121,17.84658-48.71993,27.5684-64.87948,35.67563-71.88187a6.52377,6.52377,0,0,1,8.3133-.12916c2.94027,2.335,6.50585,5.16577,6.50814,5.16348-5.55664,5.83594-19.60449,49.38173-28.90039,74.75869-6.35937,17.3623-12.36719,33.76171-17.64746,46.42285C224.54576,248.63969,219.76353,256.74027,210.75572,257.46781Z" fill="#f73c4f"/><path d="M275.01925,144.55733a161.51247,161.51247,0,0,1-24.24483,15.47135l-19.09376,7.01978-2.02547-8.95049,37.31254-22.30885Z" fill="#f9977a"/><path d="M242.93,153.96705s-3.78572-1.684-12.4771,1.13935-15.23033,5.97164-8.81082,5.43245l4.88507-.4919s-5.40531,4.97661-8.8851,7.65933a5.44094,5.44094,0,0,0-1.86758,6.19894c.78283,2.03972,2.3744,2.77184,6.97055.46533,6.87419-3.4497,10.40725-5.46787,11.85528-6.81638.50166-.46718,5.51943-5.95875,5.51943-5.95875Z" fill="#f9977a"/><path d="M230.03076,157.304a6.81911,6.81911,0,0,1-.77051.82885,11.01835,11.01835,0,0,1-.844.72144c-.29541.22119-.58984.44263-.907.63672a8.33111,8.33111,0,0,1-.98218.55591,4.87064,4.87064,0,0,1,.70972-.88965,7.753,7.753,0,0,1,.8374-.74585,8.19775,8.19775,0,0,1,.93017-.62256A5.63635,5.63635,0,0,1,230.03076,157.304Z" fill="#dd765e"/><path d="M224.719,165.23738a23.24868,23.24868,0,0,1-2.04834,1.83277c-.708.58179-1.45166,1.11719-2.21167,1.63037a23.26518,23.26518,0,0,1-2.36938,1.40161,12.62618,12.62618,0,0,1-2.55811,1.02368c1.60425-.887,3.10645-1.88012,4.617-2.89087C221.66406,167.23568,223.15552,166.2,224.719,165.23738Z" fill="#dd765e"/><path d="M225.86255,167.69393a22.32379,22.32379,0,0,1-2.15088,2.10718,25.31547,25.31547,0,0,1-2.38477,1.84643A16.991,16.991,0,0,1,218.697,173.148a7.10432,7.10432,0,0,1-2.92261.75708,10.28889,10.28889,0,0,0,2.72925-1.14209c.85523-.49023,1.69605-1.01,2.5083-1.57788C222.65454,170.075,224.23462,168.86971,225.86255,167.69393Z" fill="#dd765e"/><path d="M226.37769,170.23348a16.27794,16.27794,0,0,1-1.77076,1.792,21.57416,21.57416,0,0,1-1.98169,1.55762,14.96742,14.96742,0,0,1-4.521,2.209c.72583-.42871,1.44189-.84179,2.13989-1.28882.69043-.458,1.386-.90283,2.0625-1.38037Z" fill="#dd765e"/><path d="M240.867,254.60367a1.5009,1.5009,0,0,0,0-3,1.5009,1.5009,0,0,0,0,3Z" fill="#ffba55"/><path d="M239.667,254.60367a1.5009,1.5009,0,0,0,0-3,1.5009,1.5009,0,0,0,0,3Z" fill="#f73c4f"/><path d="M245.187,256.04367a1.5009,1.5009,0,0,0,0-3,1.5009,1.5009,0,0,0,0,3Z" fill="#f73c4f"/><path d="M251.667,257.24367a1.5009,1.5009,0,0,0,0-3,1.5009,1.5009,0,0,0,0,3Z" fill="#f73c4f"/><path d="M258.627,257.48367a1.5009,1.5009,0,0,0,0-3,1.5009,1.5009,0,0,0,0,3Z" fill="#f73c4f"/><path d="M265.347,257.00367a1.5009,1.5009,0,0,0,0-3,1.5009,1.5009,0,0,0,0,3Z" fill="#f73c4f"/><path d="M272.307,255.56367a1.5009,1.5009,0,0,0,0-3,1.5009,1.5009,0,0,0,0,3Z" fill="#f73c4f"/><path d="M279.027,252.92367a1.5009,1.5009,0,0,0,0-3,1.5009,1.5009,0,0,0,0,3Z" fill="#f73c4f"/><path d="M285.747,249.80367a1.5009,1.5009,0,0,0,0-3,1.5009,1.5009,0,0,0,0,3Z" fill="#f73c4f"/><path d="M291.267,247.16367a1.5009,1.5009,0,0,0,0-3,1.5009,1.5009,0,0,0,0,3Z" fill="#f73c4f"/><path d="M250.41442,326.97647a1.5009,1.5009,0,0,0,0-3,1.5009,1.5009,0,0,0,0,3Z" fill="#f73c4f"/><path d="M256.89442,326.49647a1.5009,1.5009,0,0,0,0-3,1.5009,1.5009,0,0,0,0,3Z" fill="#f73c4f"/><path d="M262.89442,326.49647a1.5009,1.5009,0,0,0,0-3,1.5009,1.5009,0,0,0,0,3Z" fill="#f73c4f"/><path d="M299.37442,320.01647a1.5009,1.5009,0,0,0,0-3,1.5009,1.5009,0,0,0,0,3Z" fill="#f73c4f"/><path d="M305.61442,318.81647a1.5009,1.5009,0,0,0,0-3,1.5009,1.5009,0,0,0,0,3Z" fill="#f73c4f"/><path d="M311.13442,316.89647a1.5009,1.5009,0,0,0,0-3,1.5009,1.5009,0,0,0,0,3Z" fill="#f73c4f"/><path d="M210.627,259.40367a1.5009,1.5009,0,0,0,0-3,1.5009,1.5009,0,0,0,0,3Z" fill="#ffba55"/><path d="M209.187,262.04367a1.5009,1.5009,0,0,0,0-3,1.5009,1.5009,0,0,0,0,3Z" fill="#ffba55"/><path d="M202.947,239.24367a1.5009,1.5009,0,0,0,0-3,1.5009,1.5009,0,0,0,0,3Z" fill="#ffba55"/><path d="M321.747,224.84367a1.5009,1.5009,0,0,0,0-3,1.5009,1.5009,0,0,0,0,3Z" fill="#ffba55"/><path d="M323.427,226.76367a1.5009,1.5009,0,0,0,0-3,1.5009,1.5009,0,0,0,0,3Z" fill="#ffba55"/><path d="M216.867,245.96367a1.5009,1.5009,0,0,0,0-3,1.5009,1.5009,0,0,0,0,3Z" fill="#ffba55"/><path d="M229.587,215.24367a1.5009,1.5009,0,0,0,0-3,1.5009,1.5009,0,0,0,0,3Z" fill="#ffba55"/><path d="M216.387,228.92367a1.5009,1.5009,0,0,0,0-3,1.5009,1.5009,0,0,0,0,3Z" fill="#ffba55"/><path d="M229.107,191.96367a1.5009,1.5009,0,0,0,0-3,1.5009,1.5009,0,0,0,0,3Z" fill="#ffba55"/><path d="M244.707,183.32367a1.5009,1.5009,0,0,0,0-3,1.5009,1.5009,0,0,0,0,3Z" fill="#ffba55"/><path d="M244.707,146.60367a1.5009,1.5009,0,0,0,0-3,1.5009,1.5009,0,0,0,0,3Z" fill="#ffba55"/><path d="M264.147,133.64367a1.5009,1.5009,0,0,0,0-3,1.5009,1.5009,0,0,0,0,3Z" fill="#ffba55"/><path d="M261.507,114.92367a1.5009,1.5009,0,0,0,0-3,1.5009,1.5009,0,0,0,0,3Z" fill="#ffba55"/><path d="M283.827,164.60367a1.5009,1.5009,0,0,0,0-3,1.5009,1.5009,0,0,0,0,3Z" fill="#ffba55"/><path d="M287.187,192.68367a1.5009,1.5009,0,0,0,0-3,1.5009,1.5009,0,0,0,0,3Z" fill="#ffba55"/><path d="M298.707,205.16367a1.5009,1.5009,0,0,0,0-3,1.5009,1.5009,0,0,0,0,3Z" fill="#ffba55"/><path d="M298.227,227.24367a1.5009,1.5009,0,0,0,0-3,1.5009,1.5009,0,0,0,0,3Z" fill="#ffba55"/><path d="M312.627,224.36367a1.5009,1.5009,0,0,0,0-3,1.5009,1.5009,0,0,0,0,3Z" fill="#ffba55"/><path d="M250.89442,275.61647a1.5009,1.5009,0,0,0,0-3,1.5009,1.5009,0,0,0,0,3Z" fill="#ffba55"/><path d="M258.57442,290.01647a1.5009,1.5009,0,0,0,0-3,1.5009,1.5009,0,0,0,0,3Z" fill="#ffba55"/><path d="M250.65442,309.93647a1.5009,1.5009,0,0,0,0-3,1.5009,1.5009,0,0,0,0,3Z" fill="#ffba55"/><path d="M261.93442,318.57647a1.5009,1.5009,0,0,0,0-3,1.5009,1.5009,0,0,0,0,3Z" fill="#ffba55"/><path d="M293.427,256.28367a1.5009,1.5009,0,0,0,0-3,1.5009,1.5009,0,0,0,0,3Z" fill="#ffba55"/><path d="M285.45442,275.37647a1.5009,1.5009,0,0,0,0-3,1.5009,1.5009,0,0,0,0,3Z" fill="#ffba55"/><path d="M298.41442,282.33647a1.5009,1.5009,0,0,0,0-3,1.5009,1.5009,0,0,0,0,3Z" fill="#ffba55"/><path d="M294.81442,299.61647a1.5009,1.5009,0,0,0,0-3,1.5009,1.5009,0,0,0,0,3Z" fill="#ffba55"/><path d="M238.3327,80.74354c1.9467-9.56541,8.824-16.2412,15.36082-14.91087,5.04529,1.02681,8.41009,6.5243,8.78926,13.37707a1.86463,1.86463,0,0,1,1.56717-.22746c1.41983.52763,1.71878,3.24806.66775,6.07618-.88736,2.38782-2.45241,4.08256-3.77306,4.23683-2.75757,7.49956-8.65477,12.32571-14.30078,11.1767C240.107,99.1416,236.386,90.3089,238.3327,80.74354Z" fill="#f9977a"/><path d="M246.20508,79.97078a5.30266,5.30266,0,0,1,.09375,3.48438,11.68126,11.68126,0,0,1-1.41358,3.23022l-.51269.69922a.81272.81272,0,0,0-.20166.59229,1.86174,1.86174,0,0,0,.79028,1.19653,4.33039,4.33039,0,0,0,3.19458.49878,3.914,3.914,0,0,1-3.48511-.0752,2.29958,2.29958,0,0,1-1.12036-1.5603,1.43382,1.43382,0,0,1,.29346-1.01855l.49731-.70264a15.14679,15.14679,0,0,0,1.47339-3.02612A6.39105,6.39105,0,0,0,246.20508,79.97078Z" fill="#dd765e"/><path d="M256.41644,82.34517a.4615.4615,0,0,0,.24506-.74824c-.11559-.13624-2.87488-3.32285-6.618-2.665a.4616.4616,0,1,0,.15971.90928c3.22825-.56723,5.73,2.32441,5.755,2.35372A.4617.4617,0,0,0,256.41644,82.34517Z" fill="#160b07"/><path d="M244.29388,78.93242a.46175.46175,0,0,0,.05769-.88142,8.90858,8.90858,0,0,0-5.581-.088.46166.46166,0,0,0,.30719.87073,8.058,8.058,0,0,1,4.947.08118A.462.462,0,0,0,244.29388,78.93242Z" fill="#160b07"/><path d="M255.44141,84.36409a11.23124,11.23124,0,0,0-1.47486-.949,5.90852,5.90852,0,0,0-1.58545-.60327,3.76484,3.76484,0,0,0-1.66015-.03052,5.54381,5.54381,0,0,0-1.6128.62134,3.5914,3.5914,0,0,1,1.52515-.96558,3.69546,3.69546,0,0,1,1.84692-.07568,5.218,5.218,0,0,1,1.67017.75195A5.14358,5.14358,0,0,1,255.44141,84.36409Z" fill="#160b07"/><circle cx="251.28018" cy="83.51875" r="1.03541" fill="#160b07"/><circle cx="241.42698" cy="82.28738" r="1.03541" fill="#160b07"/><path d="M244.876,83.34969a11.23132,11.23132,0,0,0-1.47486-.949,5.89971,5.89971,0,0,0-1.5852-.60351,3.76975,3.76975,0,0,0-1.6604-.03052,5.55161,5.55161,0,0,0-1.6128.62158,3.58911,3.58911,0,0,1,1.5254-.96582,3.69447,3.69447,0,0,1,1.84667-.07568,5.22332,5.22332,0,0,1,1.67017.75195A5.14066,5.14066,0,0,1,244.876,83.34969Z" fill="#160b07"/><path d="M264.217,82.29061a5.49213,5.49213,0,0,0-.78931-.864.574.574,0,0,0-.74267-.08154,3.22753,3.22753,0,0,0-.75684.73853c-.24975.29834-.488.62426-.78467.93335a3.82581,3.82581,0,0,1,.35181-1.21,2.36142,2.36142,0,0,1,.86353-1.03344,1.05913,1.05913,0,0,1,.80346-.13428,1.15157,1.15157,0,0,1,.63233.43066A2.13611,2.13611,0,0,1,264.217,82.29061Z" fill="#dd765e"/><path d="M262.52344,85.42366a2.10265,2.10265,0,0,1-.55713-1.07714,3.75213,3.75213,0,0,1-.061-1.20972,4.6194,4.6194,0,0,1,.28418-1.16138,3.88987,3.88987,0,0,1,.59717-1.0332c-.02612.80908-.15869,1.53369-.22705,2.26294-.04468.3623-.07056.72388-.08423,1.08862A6.47128,6.47128,0,0,0,262.52344,85.42366Z" fill="#dd765e"/><circle cx="263.05039" cy="87.98219" r="2.05518" fill="#ffcb33"/><path d="M251.15235,93.31951s-5.76628,3.61168-9.03838-.39062" fill="#dd2f22"/><path d="M250.24453,70.94855c1.143.93736,7.04289,10.21507,9.16921,11.253a1.31184,1.31184,0,0,0,.77742.1579c.83169-.12162,1.16682-1.19878,2.09138-2.71451.6987-1.14546,1.00268-1.34244,1.41-1.98416a9.25984,9.25984,0,0,0,.41738-8.35372,9.81078,9.81078,0,0,0-5.39461-4.76024c-4.84425-2.07455-9.52618-.26241-10.71358.19715-7.13369,2.76108-10.17934,9.82351-9.92722,10.03133C238.37085,75.01954,244.38413,66.1425,250.24453,70.94855Z" fill="#160b07"/><path d="M214.707,88.28367a1.5009,1.5009,0,0,0,0-3,1.5009,1.5009,0,0,0,0,3Z" fill="#f73c4f"/><path d="M220.707,84.68367a1.5009,1.5009,0,0,0,0-3,1.5009,1.5009,0,0,0,0,3Z" fill="#f73c4f"/><path d="M225.987,81.08367a1.5009,1.5009,0,0,0,0-3,1.5009,1.5009,0,0,0,0,3Z" fill="#f73c4f"/><path d="M269.667,137.00367a1.5009,1.5009,0,0,0,0-3,1.5009,1.5009,0,0,0,0,3Z" fill="#f73c4f"/><path d="M273.027,140.60367a1.5009,1.5009,0,0,0,0-3,1.5009,1.5009,0,0,0,0,3Z" fill="#f73c4f"/><path d="M275.907,143.72367a1.5009,1.5009,0,0,0,0-3,1.5009,1.5009,0,0,0,0,3Z" fill="#f73c4f"/><path d="M458.86035,350.42879H1a1,1,0,0,1,0-2H458.86035a1,1,0,0,1,0,2Z" fill="#935b50"/></g></g></svg>