<svg xmlns="http://www.w3.org/2000/svg" viewBox="0 0 1200 900"><defs><style>.cls-1{fill:#fff3f7;}.cls-2{fill:#fc7e85;}.cls-23,.cls-3,.cls-36,.cls-37,.cls-38{fill:none;}.cls-3{stroke:#fc7e85;}.cls-23,.cls-3,.cls-37{stroke-miterlimit:10;}.cls-3,.cls-37{stroke-width:2px;}.cls-4{fill:#a8e5f9;}.cls-5{fill:#89dbf6;}.cls-6{fill:#ff0068;}.cls-7{fill:#87dbf6;}.cls-8{fill:#2e6821;}.cls-9{fill:#abbcca;}.cls-10{fill:#91a6b5;}.cls-11{fill:#3c8f2d;}.cls-12{fill:#91dc4f;}.cls-13{fill:#7bce34;}.cls-14{fill:#feaa40;}.cls-15{fill:#ea8826;}.cls-16{fill:#e22d2d;}.cls-17{fill:#a04833;}.cls-18{fill:#843a2c;}.cls-19{fill:#cc7829;}.cls-20{fill:#c9effb;}.cls-21{fill:#80cbe8;}.cls-22{fill:#59a4ce;}.cls-23{stroke:#59a4ce;stroke-width:4px;}.cls-24{fill:#69baef;}.cls-25{fill:#ea9d7d;}.cls-26{fill:#25beef;}.cls-27{fill:#1a87c4;}.cls-28{fill:#d18165;}.cls-29{fill:#7c2f13;}.cls-30{fill:#fff;}.cls-31{fill:#000001;}.cls-32{fill:#be3e5f;}.cls-33{fill:#e3eaf3;}.cls-34{fill:#ef3e3b;}.cls-35{fill:#c82833;}.cls-36,.cls-37,.cls-38{stroke:#2f170b;}.cls-36,.cls-38{stroke-linecap:round;stroke-linejoin:round;}.cls-36{stroke-width:6px;}.cls-38{stroke-width:5px;}.cls-39{fill:#2f170b;}.cls-40{fill:#ffc065;}.cls-41{fill:#ffaa39;}</style></defs><g id="doctor_patient_talking" data-name="doctor patient talking"><g id="Background"><path class="cls-1" d="M786.85,63.41c29.62,8.61,162,50.9,218.45,164.85,79.26,159.88-54.91,331.51-91.71,378.59C829.21,714.79,603.62,916,379,834.87c-179.86-65-253.69-285-219.08-440.82C217,137.2,551.84-4.92,786.85,63.41Z"/></g><g id="Bricks"><rect class="cls-2" x="912.74" y="396.38" width="64.89" height="28.93" rx="2"/><rect class="cls-2" x="912.74" y="454.14" width="64.89" height="28.93" rx="2"/><rect class="cls-3" x="945.18" y="425.31" width="64.89" height="28.93" rx="2"/><rect class="cls-3" x="880.29" y="425.31" width="64.89" height="28.93" rx="2"/><rect class="cls-3" x="200.96" y="539.38" width="64.89" height="28.93" rx="2"/><rect class="cls-3" x="233.4" y="597.13" width="64.89" height="28.93" rx="2"/><rect class="cls-3" x="246.89" y="568.31" width="64.89" height="28.93" rx="2"/><rect class="cls-2" x="182" y="568.31" width="64.89" height="28.93" rx="2"/><rect class="cls-3" x="578.35" y="153.94" width="64.89" height="28.93" rx="2"/><rect class="cls-3" x="600.27" y="211.8" width="64.89" height="28.93" rx="2"/><rect class="cls-2" x="624.28" y="182.87" width="64.89" height="28.93" rx="2"/><rect class="cls-3" x="559.39" y="182.87" width="64.89" height="28.93" rx="2"/></g><g id="Window"><path class="cls-4" d="M173.09,143.25H134.61a5.3,5.3,0,0,0-5.3,5.3V473.24a5.3,5.3,0,0,0,5.3,5.31H273.2c.62-18.41-.85-37.25.35-55.58a9.77,9.77,0,0,0-1.32-4.91c-8.34-15.84-46.41,3.46-69.58-6.52-44.74-19.26-61.37-159.4-31-263.52C172.13,146.51,172.61,144.91,173.09,143.25Z"/><path class="cls-4" d="M318.49,143.25H280a5.3,5.3,0,0,0-5.3,5.3V473.24a5.3,5.3,0,0,0,5.3,5.31H418.59c.63-18.41-.84-37.25.35-55.58a9.56,9.56,0,0,0-1.32-4.91c-8.33-15.84-46.4,3.46-69.58-6.52-44.73-19.26-61.37-159.4-31-263.52C317.52,146.51,318,144.91,318.49,143.25Z"/><path class="cls-4" d="M464.32,143.25H425.83a5.3,5.3,0,0,0-5.3,5.3V473.24a5.3,5.3,0,0,0,5.3,5.31H564.42c.62-18.41-.85-37.25.35-55.58a9.67,9.67,0,0,0-1.32-4.91c-8.34-15.84-46.4,3.46-69.58-6.52-44.73-19.26-61.37-159.4-31-263.52C463.35,146.51,463.83,144.91,464.32,143.25Z"/><rect class="cls-5" x="418.03" y="302.86" width="5" height="175.69"/><rect class="cls-5" x="271.05" y="302.86" width="5" height="175.69"/><rect class="cls-6" x="129.3" y="156.67" width="435.47" height="3"/><rect class="cls-6" x="129.3" y="172.75" width="435.47" height="3"/><rect class="cls-6" x="129.3" y="188.83" width="435.47" height="3"/><rect class="cls-6" x="129.3" y="204.9" width="435.47" height="3"/><rect class="cls-6" x="129.3" y="220.98" width="435.47" height="3"/><rect class="cls-6" x="129.3" y="237.06" width="435.47" height="3"/><rect class="cls-6" x="129.3" y="253.13" width="435.47" height="3"/><rect class="cls-6" x="129.3" y="269.21" width="435.47" height="3"/><rect class="cls-6" x="129.3" y="285.28" width="435.47" height="3"/><rect class="cls-6" x="129.3" y="301.36" width="435.47" height="3"/><rect class="cls-5" x="531.48" y="143.25" width="5" height="219.55"/><circle class="cls-5" cx="533.98" cy="371.21" r="8.41"/><path class="cls-7" d="M576.93,129.47H117.15a5.74,5.74,0,0,0-5.74,5.74V486.59a5.74,5.74,0,0,0,5.74,5.74H576.93a5.74,5.74,0,0,0,5.74-5.74V135.21A5.74,5.74,0,0,0,576.93,129.47ZM564.78,473.24a5.31,5.31,0,0,1-5.31,5.31H134.61a5.3,5.3,0,0,1-5.3-5.31V148.55a5.3,5.3,0,0,1,5.3-5.3H559.47a5.3,5.3,0,0,1,5.31,5.3Z"/></g><g id="Plant"><path class="cls-8" d="M192.7,759.34c-8.44-56.75,4.65-126.23,4.78-126.93l3.93.75c-.13.69-13.09,69.52-4.76,125.6Z"/><path class="cls-8" d="M187,759.17l-4-.24c2.86-46.38-5.83-49.67-5.92-49.7l.21,0,.31-4C179.73,705.44,190.12,708.8,187,759.17Z"/><path class="cls-8" d="M201.44,751.07l-4-.4c5.13-51.35,10-52.5,12.1-53a3,3,0,0,1,3.22,1.33l-3.38,2.14a.91.91,0,0,0,.63.43.9.9,0,0,0,.66-.09C209.92,702,205.84,707,201.44,751.07Z"/><path class="cls-9" d="M215.15,826.06H158.39a14.8,14.8,0,0,1-14.63-12.6l-10-66.64c-.7-4.62,33.27-1,54.06-1.16,19.6-.2,51.62-2,51.27.29l-9.31,67.51A14.8,14.8,0,0,1,215.15,826.06Z"/><path class="cls-10" d="M186.42,745.67c-20.79.21-53.36-3.47-52.66,1.15l10,66.64a14.8,14.8,0,0,0,14.63,12.6h22.45a35.91,35.91,0,0,1-9.25-23.74c0-1.82.22-13.51,8.72-22.84,5.07-5.57,13.3-8.42,29.75-14.12,7.9-2.74,14.22-4.13,21-9.92a47.93,47.93,0,0,0,7.77-7.83l.23-1.66C239.44,743.63,206,745.48,186.42,745.67Z"/><path class="cls-11" d="M165.65,768.63s.76-3,2.48-9.18a50.86,50.86,0,0,1,6.69-14.31c4.25-6.32,6.76-6.66,7.33-10.86a20,20,0,0,0-.89-8.35c-1-3.1-2.09-3.76-2.13-6.14,0-2.55,1.13-4.52,2.37-6.59,2.36-4,3.69-3.52,4.57-6,1.1-3.13-.09-6.3-1.24-9.33-1.43-3.8-3-3.56-3.52-6.33-.91-4.38,1.7-8.37,1.88-8.64,1.86-2.76,3.68-2.79,4.45-5.1s-.52-5-1-6.09c-1-2.28-2.06-2.85-2-4.62a5.64,5.64,0,0,1,1.28-3.33c1.57-2,3.21-1.49,4.54-2.9,2.16-2.29.9-6.77.5-8.17-1-3.54-2.41-3.54-4.67-8.36-1.36-2.89-2.27-4.85-2.42-7.6-.19-3.86,1.34-5.21.37-7.9-.6-1.7-2.29-4.16-4.16-4.33-6.4-.58-16.81,25.14-16.81,25.14a23,23,0,0,1-3.19-6c-3.22-8.56-2.94-11.81-6-17.23-1.13-2-3.67-6.57-5.91-6.17-1.93.35-2.82,4.27-3.57,7.57-1.44,6.31-.05,8.05-1.9,11.2-.69,1.17-2.66,2.59-6.57,5.39-6.85,4.89-7.79,4.9-8.94,6.87-2.76,4.7-.69,10.23-.54,10.62a15.38,15.38,0,0,0,5.59,6.49,10.62,10.62,0,0,0-5.22,2.26c-2.14,1.88-3,5.62-1.63,7.44.91,1.26,2.18.68,3.67,2.28a6.27,6.27,0,0,1,1.64,4.09c-.05,2.66-2.25,3.16-2.38,5.93a6,6,0,0,0,1.41,4.07c1.49,1.57,2.95.76,4.61,2.4a6.16,6.16,0,0,1,1.7,3.95c0,1.82-1,2.18-.82,3.73a5.43,5.43,0,0,0,2.36,3.29c1.57,1.1,2.43.62,3.3,1.52s.85,2.64.53,5c-.69,5.07-1.17,6-1.4,8.14a19.35,19.35,0,0,0,1.85,10.46c1.53,2.92,2.56,2.56,5.13,6.77a42.25,42.25,0,0,1,3,6.16,75.52,75.52,0,0,1,2.75,7.93C155.27,761.73,165.65,768.63,165.65,768.63Z"/><path class="cls-12" d="M184.28,639.44a13.51,13.51,0,0,1-3.76,4.47c-5,4-15,11.86-17.94,14.2.48-4.59.94-7.93,1.25-9.93l-.6,1.43s-.16-.19-.41-.56c-.42,2.88-1,7.61-1.59,14.05-10.51.57-15.81-19-17.55-27.14a6.94,6.94,0,0,1-.48,2c2.08,9.06,7.45,26.5,18,26.06-.12,1.41-.23,2.89-.34,4.45-13.95,7.38-26.18,1.2-30.59-1.62a15.54,15.54,0,0,0,2,1.54s-.33,0-.85.16c4.85,2.72,14.32,6.48,25.34,2.67a31.55,31.55,0,0,0,4-1.74q-.33,4.93-.56,10.82c-4.86,8.58-19.29,14.93-25.29,17.27a5.77,5.77,0,0,1,.47.77c5.88-2.28,19.14-8.12,24.76-16.3-.11,3.29-.19,6.79-.22,10.49-13.07,16.69-18.13,26.68-20,32.35a19.24,19.24,0,0,0,.21,2.56c1.09-4.76,5.23-14.74,19.79-33.47q0,3.3,0,6.83h0l0,.1q.09,8.28.51,17.63h0c0,.08.37,7.93-6.07,16.77a21.23,21.23,0,0,0-4,11.44c.32.8.6,1.54.85,2.22A20.59,20.59,0,0,1,155,735.78a33,33,0,0,0,5.65-12.17c.78,13.46,2.18,28.43,4.5,44.7l.46.32.3-1.16a517,517,0,0,1-5.11-63.4c2.2,7,8.51,23.57,21,31.65a7.41,7.41,0,0,0,.22-.9C167.22,725,161.35,703,160.79,700.75c0-4.08,0-8,0-11.63A32,32,0,0,0,186.19,702c-.07-.29-.15-.59-.23-.88-16.66-.6-24.22-12-25.11-13.49.11-5.38.31-10.29.56-14.69,2.23,1,10.06,3.73,21-.07a40,40,0,0,0,4-1.63c-.14-.28-.28-.53-.41-.77-13.4,6.25-22.86,2.34-24.54,1.53.29-4.86.64-9.09,1-12.65,1.54-1.22,13.06-10.38,18.6-14.72a14.79,14.79,0,0,0,3.59-4C184.51,640.22,184.38,639.83,184.28,639.44Z"/><path class="cls-11" d="M263.21,755.45s-.55-2.38-1.53-7.26a39.58,39.58,0,0,1-.41-12.31c.72-5.9,2.34-7,1.25-10.14a15.52,15.52,0,0,0-3.58-5.48c-1.8-1.8-2.78-1.88-3.65-3.52s-.81-3.54-.68-5.42c.24-3.58,1.32-3.75,1-5.8-.34-2.57-2.3-4.35-4.17-6-2.34-2.13-3.3-1.43-4.68-3.15a9.77,9.77,0,0,1-1.75-6.68c.31-2.57,1.56-3.23,1.29-5.11s-2.14-3.29-2.85-3.88c-1.51-1.22-2.44-1.25-3.06-2.48a4.3,4.3,0,0,1-.28-2.77c.38-1.94,1.69-2.17,2.12-3.63.69-2.35-1.77-5-2.54-5.85-1.95-2.11-2.93-1.6-6.21-4.16-2-1.53-3.29-2.56-4.37-4.42-1.5-2.62-.91-4.1-2.53-5.62-1-1-3.07-2.08-4.43-1.53-4.65,1.86-2.78,23.41-2.78,23.41a17.9,17.9,0,0,1-4.34-3c-5.27-4.81-6.23-7.17-10.25-9.86-1.51-1-4.88-3.26-6.29-2.19-1.23.93-.46,4,.19,6.52,1.24,4.89,2.82,5.61,2.64,8.46-.06,1.06-.93,2.74-2.66,6.07-3,5.82-3.67,6.16-3.77,7.93-.26,4.25,3.14,7.36,3.38,7.57a12,12,0,0,0,6.18,2.54,8.34,8.34,0,0,0-2.83,3.41c-.82,2.07-.06,5,1.5,5.75,1.09.56,1.76-.3,3.36.29a4.87,4.87,0,0,1,2.59,2.26c.9,1.87-.45,3,.45,5A4.59,4.59,0,0,0,212,716.6c1.59.56,2.32-.51,4.05,0a4.77,4.77,0,0,1,2.59,2.14c.64,1.26,0,1.89.75,2.88a4.15,4.15,0,0,0,2.8,1.45c1.48.21,1.91-.43,2.83-.11s1.53,1.53,2.15,3.31c1.32,3.77,1.32,4.61,1.91,6.15a15,15,0,0,0,5,6.61c2.09,1.49,2.67.88,6,2.89a32.63,32.63,0,0,1,4.28,3.22,59.47,59.47,0,0,1,4.72,4.53C253.56,754.33,263.21,755.45,263.21,755.45Z"/><path class="cls-12" d="M230.43,659.09a10.44,10.44,0,0,1-1,4.44c-2.1,4.52-6.22,13.54-7.43,16.21-1.3-3.36-2.16-5.84-2.65-7.35.05.77.09,1.21.09,1.21l-.49-.24c.73,2.15,2,5.65,3.87,10.32-7.1,4.12-17.72-7.63-21.79-12.64a5.7,5.7,0,0,1,.35,1.53c4.65,5.55,14.56,15.77,21.7,11.75.42,1,.87,2.09,1.34,3.21-7.08,10.07-17.77,10.1-21.83,9.7a12.4,12.4,0,0,0,1.93.37,5,5,0,0,0-.53.41,24.11,24.11,0,0,0,18.55-7.11,24.36,24.36,0,0,0,2.19-2.64c1,2.36,2.16,4.94,3.44,7.71-.34,7.69-8.12,17.2-11.46,20.95a6.16,6.16,0,0,1,.6.37c3.28-3.66,10.43-12.41,11.43-20.09q1.64,3.49,3.57,7.37c-3.18,16.23-3.16,25-2.46,29.56a15,15,0,0,0,1.05,1.71c-.92-3.69-1.58-12.1,1.91-30.27q1.16,2.31,2.43,4.74l0,0,.05.06q3,5.72,6.6,12.07h0s3.06,5.38,1.72,13.8a16.55,16.55,0,0,0,1.26,9.36c.51.44,1,.86,1.38,1.25a16.11,16.11,0,0,1-2-10.51,25.8,25.8,0,0,0-.38-10.45c5.3,9.08,11.58,19,18.94,29.47l.44.06-.2-.91a405.41,405.41,0,0,1-26-42.25c4,4.12,14.26,13.36,25.8,14.56a6.36,6.36,0,0,0-.16-.7C248.87,724.6,237,711.35,235.81,710q-2.2-4.23-4.09-8.09a24.92,24.92,0,0,0,22.17,0c-.15-.18-.31-.36-.47-.53a24,24,0,0,1-22.22-.49c-1.83-3.77-3.43-7.26-4.81-10.4,1.89-.11,8.31-1,14.58-7.49a31.54,31.54,0,0,0,2.19-2.55l-.55-.38c-7.1,9.08-15.06,9.71-16.51,9.75-1.52-3.49-2.78-6.55-3.79-9.15.64-1.39,5.4-11.83,7.71-16.81a11.25,11.25,0,0,0,1.08-4C230.87,659.55,230.65,659.32,230.43,659.09Z"/><path class="cls-13" d="M266.05,700.07s-.73-3-2.07-9.28a50.52,50.52,0,0,1-.71-15.78c.83-7.58,2.89-9,1.45-13a20,20,0,0,0-4.67-7c-2.33-2.29-3.59-2.37-4.73-4.46s-1.1-4.53-1-6.94c.26-4.59,1.63-4.82,1.25-7.46-.48-3.29-3-5.54-5.43-7.69-3-2.7-4.27-1.78-6.06-4-2.83-3.45-2.38-8.2-2.34-8.53.36-3.3,2-4.18,1.57-6.58s-2.78-4.19-3.71-4.93c-1.95-1.55-3.15-1.57-3.95-3.14a5.56,5.56,0,0,1-.41-3.55c.46-2.48,2.15-2.8,2.67-4.68.85-3-2.35-6.41-3.34-7.46-2.54-2.68-3.78-2-8-5.24-2.54-1.93-4.26-3.24-5.66-5.61-2-3.33-1.24-5.23-3.34-7.17-1.33-1.22-4-2.62-5.7-1.9-5.94,2.46-3.22,30.07-3.22,30.07a23,23,0,0,1-5.61-3.83c-6.83-6.09-8.09-9.1-13.29-12.5-1.95-1.26-6.31-4.1-8.1-2.71-1.56,1.21-.52,5.09.34,8.36,1.66,6.26,3.7,7.15,3.52,10.81-.07,1.35-1.15,3.53-3.32,7.81-3.8,7.52-4.62,8-4.73,10.24-.25,5.45,4.15,9.38,4.46,9.65a15.32,15.32,0,0,0,8,3.17,10.59,10.59,0,0,0-3.57,4.41c-1,2.66,0,6.36,2,7.36,1.39.69,2.24-.41,4.31.31a6.3,6.3,0,0,1,3.35,2.86c1.19,2.38-.53,3.85.64,6.36a6,6,0,0,0,3.14,2.95c2,.7,3-.7,5.19,0a6.16,6.16,0,0,1,3.35,2.72c.85,1.6.09,2.41,1,3.68a5.38,5.38,0,0,0,3.62,1.81c1.9.25,2.44-.57,3.63-.18,1.35.44,2,1.94,2.8,4.21,1.75,4.81,1.76,5.89,2.54,7.86a19.2,19.2,0,0,0,6.5,8.4c2.7,1.88,3.44,1.09,7.67,3.62a42.55,42.55,0,0,1,5.55,4.06,77.34,77.34,0,0,1,6.11,5.74C253.66,698.77,266.05,700.07,266.05,700.07Z"/><path class="cls-12" d="M222.58,577a13.53,13.53,0,0,1-1.25,5.7c-2.63,5.83-7.78,17.46-9.3,20.9-1.71-4.29-2.85-7.46-3.5-9.38.07,1,.13,1.55.13,1.55l-.63-.3c1,2.74,2.63,7.22,5.12,13.18-9.05,5.38-22.84-9.52-28.14-15.89a7.24,7.24,0,0,1,.48,2c6,7.06,18.9,20,28,14.75.55,1.3,1.13,2.67,1.76,4.1-8.93,13-22.63,13.22-27.85,12.76a16,16,0,0,0,2.48.45,8.06,8.06,0,0,0-.68.53c5.56.16,15.7-.91,23.68-9.4a32.35,32.35,0,0,0,2.78-3.41c1.33,3,2.84,6.3,4.52,9.84-.32,9.85-10.15,22.17-14.38,27a7,7,0,0,1,.77.47c4.15-4.75,13.19-16.08,14.37-25.93q2.15,4.46,4.67,9.39c-3.83,20.85-3.67,32.05-2.71,37.94a21.11,21.11,0,0,0,1.38,2.18c-1.24-4.73-2.21-15.5,2-38.84,1,2,2.08,4,3.19,6l0,0,.07.07c2.61,4.86,5.48,10,8.63,15.38l0,0c0,.06,4,6.85,2.41,17.67a21.06,21.06,0,0,0,1.76,12c.65.56,1.25,1.09,1.78,1.58a20.7,20.7,0,0,1-2.68-13.44,33,33,0,0,0-.64-13.4c6.93,11.57,15.13,24.17,24.73,37.51l.56.07-.27-1.16a517.86,517.86,0,0,1-34-53.79C237,650.34,250.3,662,265.11,663.4a6.41,6.41,0,0,0-.22-.89c-17.69-1.79-33.12-18.59-34.65-20.31q-2.9-5.4-5.37-10.32a32,32,0,0,0,28.43-.39c-.2-.23-.4-.45-.61-.67-15,7.2-27.05.57-28.5-.3-2.4-4.81-4.51-9.25-6.33-13.27,2.43-.16,10.64-1.36,18.59-9.81a43,43,0,0,0,2.77-3.3c-.25-.19-.49-.35-.71-.49-9,11.75-19.17,12.68-21,12.75-2-4.45-3.66-8.36-5-11.67.79-1.8,6.74-15.26,9.63-21.67a14.61,14.61,0,0,0,1.33-5.2C223.15,577.58,222.86,577.29,222.58,577Z"/><path class="cls-13" d="M104.44,727.59s1.71-2.61,5.35-7.86a50.59,50.59,0,0,1,11-11.33c6.09-4.58,8.57-4.07,10.49-7.86a20.21,20.21,0,0,0,1.89-8.18c.06-3.26-.74-4.24,0-6.5.79-2.42,2.55-3.9,4.4-5.45,3.52-3,4.64-2.11,6.29-4.2,2.07-2.6,2-6,1.89-9.23-.11-4.05-1.62-4.32-1.26-7.13.58-4.43,4.35-7.35,4.61-7.55,2.66-2,4.39-1.43,5.88-3.35s1.14-4.9,1-6.08c-.2-2.48-1-3.37-.41-5a5.58,5.58,0,0,1,2.3-2.72c2.13-1.37,3.52-.36,5.25-1.26,2.78-1.45,3.06-6.1,3.14-7.55.22-3.68-1.12-4.13-1.68-9.44-.33-3.17-.55-5.32.21-8,1.08-3.71,3-4.48,2.94-7.34,0-1.8-.8-4.68-2.52-5.45-5.85-2.64-24.11,18.25-24.11,18.25a22.57,22.57,0,0,1-1.05-6.72c-.24-9.14,1.09-12.13,0-18.24-.41-2.28-1.33-7.41-3.57-7.76-1.94-.31-4.07,3.1-5.86,6-3.42,5.5-2.68,7.6-5.46,10-1,.88-3.36,1.58-8,2.93-8.08,2.38-9,2.09-10.7,3.57-4.14,3.54-4,9.44-4,9.86a15.35,15.35,0,0,0,3.14,8,10.69,10.69,0,0,0-5.66.42c-2.64,1.08-4.64,4.35-4,6.51.45,1.49,1.83,1.35,2.72,3.35a6.28,6.28,0,0,1,.21,4.41c-.92,2.49-3.17,2.24-4.19,4.82a5.92,5.92,0,0,0,0,4.3c.89,2,2.53,1.69,3.56,3.77a6.16,6.16,0,0,1,.32,4.3c-.59,1.72-1.7,1.72-2,3.25a5.38,5.38,0,0,0,1.16,3.88c1.12,1.56,2.09,1.39,2.62,2.52.6,1.29-.06,2.77-1.15,4.93-2.31,4.57-3.09,5.32-4,7.23a19.3,19.3,0,0,0-1.68,10.49c.49,3.26,1.58,3.25,2.63,8.07A42.45,42.45,0,0,1,97.1,701a74.05,74.05,0,0,1,0,8.39C96.9,717.67,104.44,727.59,104.44,727.59Z"/><path class="cls-12" d="M164.36,611.63a13.34,13.34,0,0,1-5,3c-6,2.08-18.05,6.3-21.59,7.54,1.95-4.18,3.48-7.18,4.43-9-.66.72-1,1.16-1,1.16s-.09-.24-.21-.67c-1.34,2.58-3.47,6.86-6.1,12.76-10.12-2.91-8.71-23.16-7.69-31.39a7.41,7.41,0,0,1-1.1,1.69c-1,9.24-1.64,27.48,8.43,30.51-.57,1.28-1.16,2.65-1.77,4.08-15.6,2.41-25.14-7.44-28.38-11.55a16.34,16.34,0,0,0,1.37,2.11s-.32-.07-.85-.13c3.69,4.16,11.41,10.82,23.07,10.82a32.14,32.14,0,0,0,4.39-.31q-1.94,4.56-4.08,10c-7.4,6.52-23.11,7.79-29.55,8a5.83,5.83,0,0,1,.19.88c6.3-.23,20.75-1.4,28.74-7.29-1.19,3.07-2.41,6.36-3.65,9.84-17.82,11.49-25.87,19.27-29.5,24a20.79,20.79,0,0,0-.64,2.49c2.59-4.14,9.77-12.22,29.66-25.15q-1.1,3.14-2.22,6.46h0a.58.58,0,0,0,0,.1c-1.75,5.23-3.53,10.84-5.3,16.83h0c0,.08-2.25,7.61-11.23,13.86a21.19,21.19,0,0,0-7.53,9.49c0,.86.07,1.65.07,2.38a20.73,20.73,0,0,1,8-11.16,33.15,33.15,0,0,0,9.33-9.64c-3.68,13-7.26,27.57-10.4,43.71l.33.45.67-1A520.56,520.56,0,0,1,121,665c-.22,7.39.33,25.06,9.48,36.78a7.13,7.13,0,0,0,.5-.76c-10.81-14.12-9.13-36.87-8.93-39.17q1.95-5.8,3.84-11a32,32,0,0,0,19.75,20.45c0-.3.06-.61.08-.91-15.54-6-18.94-19.31-19.31-21q2.8-7.58,5.34-13.7c1.79,1.66,8.28,6.82,19.89,6.82,1.36,0,2.8-.08,4.3-.23,0-.31-.09-.6-.14-.86-14.7,1.52-22.36-5.28-23.69-6.59,1.87-4.51,3.59-8.39,5.09-11.63,1.85-.65,15.74-5.53,22.39-7.82a14.86,14.86,0,0,0,4.7-2.59C164.33,612.44,164.33,612,164.36,611.63Z"/></g><g id="Calendar"><path class="cls-14" d="M956.74,287.12h-113a3.07,3.07,0,0,1-3.07-3.07V161.76a3.08,3.08,0,0,1,3.07-3.07H977.67a3.07,3.07,0,0,1,3.07,3.07V264Z"/><path class="cls-14" d="M977.67,287.12a3.06,3.06,0,0,0,3.07-3.07V264l-24,23.09Z"/><path class="cls-15" d="M864.71,173.08a2.3,2.3,0,0,1-2.3-2.3V148.69a2.3,2.3,0,1,1,4.6,0v22.09A2.3,2.3,0,0,1,864.71,173.08Z"/><path class="cls-15" d="M849.37,173.08a2.3,2.3,0,0,1-2.3-2.3V148.69a2.3,2.3,0,1,1,4.6,0v22.09A2.3,2.3,0,0,1,849.37,173.08Z"/><path class="cls-15" d="M880.05,173.08a2.3,2.3,0,0,1-2.3-2.3V148.69a2.3,2.3,0,0,1,4.6,0v22.09A2.3,2.3,0,0,1,880.05,173.08Z"/><path class="cls-15" d="M895.39,173.08a2.3,2.3,0,0,1-2.3-2.3V148.69a2.3,2.3,0,0,1,4.6,0v22.09A2.3,2.3,0,0,1,895.39,173.08Z"/><path class="cls-15" d="M910.73,173.08a2.3,2.3,0,0,1-2.3-2.3V148.69a2.3,2.3,0,1,1,4.6,0v22.09A2.3,2.3,0,0,1,910.73,173.08Z"/><path class="cls-15" d="M926.07,173.08a2.3,2.3,0,0,1-2.31-2.3V148.69a2.31,2.31,0,0,1,4.61,0v22.09A2.3,2.3,0,0,1,926.07,173.08Z"/><path class="cls-15" d="M941.4,173.08a2.3,2.3,0,0,1-2.3-2.3V148.69a2.3,2.3,0,0,1,4.6,0v22.09A2.3,2.3,0,0,1,941.4,173.08Z"/><path class="cls-15" d="M956.74,173.08a2.3,2.3,0,0,1-2.3-2.3V148.69a2.3,2.3,0,1,1,4.6,0v22.09A2.3,2.3,0,0,1,956.74,173.08Z"/><path class="cls-15" d="M972.08,173.08a2.3,2.3,0,0,1-2.3-2.3V148.69a2.3,2.3,0,1,1,4.6,0v22.09A2.3,2.3,0,0,1,972.08,173.08Z"/><polygon class="cls-15" points="980.63 263.92 956.64 264.14 956.85 287.23 980.63 263.92"/><circle class="cls-15" cx="923.76" cy="196.85" r="9.94"/><circle class="cls-15" cx="951.34" cy="196.85" r="9.94"/><circle class="cls-15" cx="866.38" cy="221.4" r="9.94"/><circle class="cls-15" cx="895.39" cy="221.4" r="9.94"/><circle class="cls-15" cx="923.76" cy="221.4" r="9.94"/><circle class="cls-15" cx="951.34" cy="221.4" r="9.94"/><circle class="cls-15" cx="866.38" cy="245.94" r="9.94"/><circle class="cls-15" cx="895.39" cy="245.94" r="9.94"/><circle class="cls-15" cx="923.76" cy="245.94" r="9.94"/><circle class="cls-15" cx="951.34" cy="245.94" r="9.94"/><circle class="cls-15" cx="866.38" cy="268.95" r="9.94"/><path class="cls-16" d="M896.54,245.94q1.28-2.19,2.4-4.47a39.35,39.35,0,0,0,2.22-5.25,40.84,40.84,0,0,0-3.55,4.46c-.78,1.1-1.51,2.23-2.22,3.36-.71-1.13-1.45-2.26-2.22-3.36a39.76,39.76,0,0,0-3.56-4.46,40.71,40.71,0,0,0,2.22,5.25c.75,1.52,1.56,3,2.41,4.47-.86,1.46-1.66,2.94-2.41,4.46a41.45,41.45,0,0,0-2.22,5.26,41.66,41.66,0,0,0,3.56-4.46c.77-1.1,1.51-2.23,2.22-3.36.71,1.13,1.44,2.26,2.21,3.36a41.66,41.66,0,0,0,3.56,4.46A41.4,41.4,0,0,0,899,250.4C898.2,248.88,897.39,247.4,896.54,245.94Z"/></g><g id="Cabinet"><path class="cls-17" d="M943,549.63a4.17,4.17,0,0,1,4.17-4.16h124.1V826.33H947.18a4.18,4.18,0,0,1-4.17-4.18Z"/><path class="cls-18" d="M1071.27,545.46V826.32h31.09a4.17,4.17,0,0,0,4.17-4.17V549.63a4.17,4.17,0,0,0-4.17-4.17Z"/><rect class="cls-15" x="948.64" y="560.74" width="105.76" height="39" rx="4.17"/><path class="cls-19" d="M1061.48,560.74h-11.25a4.16,4.16,0,0,1,4.17,4.17v30.67a4.16,4.16,0,0,1-4.17,4.16h11.25a4.17,4.17,0,0,0,4.17-4.16V564.91A4.17,4.17,0,0,0,1061.48,560.74Z"/><circle class="cls-18" cx="1001.52" cy="580.24" r="6.68"/><rect class="cls-15" x="948.64" y="613.57" width="105.76" height="39" rx="4.17"/><path class="cls-19" d="M1061.48,613.57h-11.25a4.16,4.16,0,0,1,4.17,4.16V648.4a4.16,4.16,0,0,1-4.17,4.17h11.25a4.17,4.17,0,0,0,4.17-4.17V617.73A4.17,4.17,0,0,0,1061.48,613.57Z"/><circle class="cls-18" cx="1001.52" cy="633.07" r="6.68"/><rect class="cls-15" x="948.64" y="666.4" width="105.76" height="39" rx="4.17"/><path class="cls-19" d="M1061.48,666.4h-11.25a4.16,4.16,0,0,1,4.17,4.16v30.67a4.17,4.17,0,0,1-4.17,4.17h11.25a4.17,4.17,0,0,0,4.17-4.17V670.56A4.17,4.17,0,0,0,1061.48,666.4Z"/><circle class="cls-18" cx="1001.52" cy="685.9" r="6.68"/><rect class="cls-15" x="948.64" y="719.22" width="105.76" height="39" rx="4.17"/><path class="cls-19" d="M1061.48,719.22h-11.25a4.17,4.17,0,0,1,4.17,4.17v30.67a4.17,4.17,0,0,1-4.17,4.17h11.25a4.17,4.17,0,0,0,4.17-4.17V723.39A4.17,4.17,0,0,0,1061.48,719.22Z"/><circle class="cls-18" cx="1001.52" cy="738.73" r="6.68"/><rect class="cls-15" x="948.64" y="772.05" width="105.76" height="39" rx="4.17"/><path class="cls-19" d="M1061.48,772.05h-11.25a4.17,4.17,0,0,1,4.17,4.17v30.67a4.17,4.17,0,0,1-4.17,4.17h11.25a4.17,4.17,0,0,0,4.17-4.17V776.22A4.17,4.17,0,0,0,1061.48,772.05Z"/><circle class="cls-18" cx="1001.52" cy="791.55" r="6.68"/></g><g id="Chair"><path class="cls-20" d="M399.63,557.89H310.12a18.16,18.16,0,0,1-18-20.71l16.24-114.62a18.16,18.16,0,0,1,18-15.61h57a18.15,18.15,0,0,1,18,15.61l16.25,114.62A18.16,18.16,0,0,1,399.63,557.89Z"/><path class="cls-21" d="M327.54,516.3c-4-4.5-4.48-15.32-5.39-37a264.78,264.78,0,0,1,2.31-49.29,212.2,212.2,0,0,1,4.72-23.1h-2.81a18.16,18.16,0,0,0-18,15.61L292.14,537.18a18.16,18.16,0,0,0,18,20.71h89.51a18.16,18.16,0,0,0,18-20.71l-1-6.73c-3.07-1.23-6.17-2.34-9-3.36C367.53,512.74,341.23,531.65,327.54,516.3Z"/><path class="cls-20" d="M316.66,628a4.29,4.29,0,0,1-4.2-5.17c2.6-12.15,14.83-14.86,29.53-14.86H490.78c14.7,0,26.94,2.71,29.53,14.86a4.29,4.29,0,0,1-4.2,5.17Z"/><path class="cls-21" d="M382.53,607.94H342c-14.7,0-26.93,2.71-29.53,14.86a4.29,4.29,0,0,0,4.2,5.17h35.83C352.49,611.39,365.94,607.94,382.53,607.94Z"/><path class="cls-21" d="M369.79,628H463a0,0,0,0,1,0,0v8.17a3,3,0,0,1-3,3H372.79a3,3,0,0,1-3-3V628A0,0,0,0,1,369.79,628Z"/><path class="cls-22" d="M408.3,639.14h16.17a0,0,0,0,1,0,0v20.49a3,3,0,0,1-3,3H411.3a3,3,0,0,1-3-3V639.14A0,0,0,0,1,408.3,639.14Z"/><path class="cls-22" d="M411.3,760.79h10.17a3,3,0,0,1,3,3v20.49a0,0,0,0,1,0,0H408.3a0,0,0,0,1,0,0V763.79A3,3,0,0,1,411.3,760.79Z"/><line class="cls-23" x1="416.39" y1="662.63" x2="416.39" y2="760.79"/><path class="cls-23" d="M331.91,803.14h0a18.86,18.86,0,0,1,18.87-18.86H482a18.86,18.86,0,0,1,18.87,18.86h0"/><circle class="cls-24" cx="331.91" cy="813.35" r="12.71"/><circle class="cls-22" cx="331.91" cy="813.35" r="6.74"/><circle class="cls-24" cx="500.86" cy="813.35" r="12.71"/><circle class="cls-22" cx="500.86" cy="813.35" r="6.74"/></g><g id="Patient_Bottom_Sitting" data-name="Patient/Bottom/Sitting"><path class="cls-25" d="M493.2,701l4.05-6.75,24.34,12.21a20,20,0,0,0-1.58,7.89C520.15,718.46,493.2,701,493.2,701Z"/><path class="cls-26" d="M352.76,552.22s-21.36,43.29,18.47,64.07,64.64,28.29,65.8,36.94-6.35,20.21-2.89,54.84,9.24,75.61,9.24,75.61,30.59,4.62,35.21,0-1.16-62.59,4-114.7c0,0,9.81-25-3.18-40.57l-11-10.39,64.93-.57s-17.89,19-23.95,36.07-14.14,41-14.14,41l27.41,13.28s38.68-59.74,52-71.57,28.28-45,5.2-54S504,561.71,444.55,560l-2.17-7.76Z"/><path class="cls-27" d="M438.57,588.4,468.49,618l64.93-.57s-17.89,19-23.95,36.07-14.14,41-14.14,41l27.41,13.28c-3.91-9.52-7.93-23.59-5.1-39.35,6.18-34.32,36.94-47.28,34-60.78C549.33,597.16,526.55,587.15,438.57,588.4Z"/><path class="cls-28" d="M514.71,816.57c-9.23-8.28-31.17-18.67-36.17-32.9-3.84,3.83-25.59,1.3-32.85.33h0s-3.51,11.21-3.71,19.29,0,10.39,0,10.39l13.47,1.73V812s7.89.38,12.12,4.62,16.36,9.81,29.44,9.23S524,824.84,514.71,816.57Z"/><path class="cls-2" d="M497,825.8c-13.08.58-25.2-5-29.44-9.23S455.44,812,455.44,812v3.46L442,813.68s-.2-2.31,0-10.39a65.46,65.46,0,0,1,1.92-12.66c.91-3.82,1.8-6.63,1.8-6.63,7.24,1,29,3.5,32.83-.33a26.51,26.51,0,0,0,4.52,7.74c.63.79,1.3,1.56,2,2.31s1.19,1.2,1.8,1.8c.78.75,1.58,1.5,2.43,2.24,8.53,7.42,19.55,13.55,25.43,18.81C523.94,824.84,510.09,825.23,497,825.8Z"/><path class="cls-29" d="M497,825.8c10.5-.46,21.49-.8,20.64-5.2-32.84,7.88-45.85-5-48.23-8.84s-8.2-4.24-8.2-4.24c-10.63-.11-16.32-3.5-19.14-6.09,0,.63-.08,1.26-.1,1.86-.19,8.08,0,10.39,0,10.39l13.47,1.73V812s7.89.38,12.12,4.62S483.93,826.38,497,825.8Z"/><path class="cls-29" d="M485,793.72c-.62.42-1.28.82-1.94,1.19a18.21,18.21,0,0,1-2.77,1.34,12.14,12.14,0,0,1-3.27.89,8.5,8.5,0,0,1,1.84-2.95,10.93,10.93,0,0,1,2.61-2.07,10.18,10.18,0,0,1,1.54-.71C483.68,792.2,484.35,793,485,793.72Z"/><path class="cls-29" d="M489.27,797.76c-.44.27-.89.55-1.36.8a22.94,22.94,0,0,1-2.77,1.35,12.51,12.51,0,0,1-3.27.88,8.21,8.21,0,0,1,1.84-2.95,10.93,10.93,0,0,1,2.61-2.07c.16-.09.34-.17.52-.25C487.62,796.27,488.42,797,489.27,797.76Z"/><path class="cls-28" d="M545.38,754.71c-5.81-11-22.8-28.29-22.57-43.38-4.92,2.27-24.46-7.63-30.93-11.05h0s-7.18,9.31-10.15,16.83-3.6,9.74-3.6,9.74l12,6.29,1.2-3.25s7.27,3.08,9.78,8.52,12,14.86,24.42,18.84S551.18,765.67,545.38,754.71Z"/><path class="cls-2" d="M525.57,757.25c-12.48-4-21.92-13.41-24.43-18.84s-9.78-8.53-9.78-8.53l-1.2,3.25-12-6.28s.61-2.23,3.59-9.75a66.9,66.9,0,0,1,6.18-11.22c2.18-3.26,4-5.59,4-5.59,6.47,3.41,26,13.31,30.93,11a26.29,26.29,0,0,0,1.56,8.83c.32,1,.68,1.91,1.07,2.85.34.78.7,1.54,1.06,2.31.48,1,1,2,1.51,2.95,5.44,9.91,13.66,19.47,17.36,26.44C551.17,765.66,538,761.23,525.57,757.25Z"/><path class="cls-29" d="M525.57,757.25c10,3.2,20.45,6.68,21.17,2.26-33.54-4-41.29-20.54-42.2-25s-6.23-6.8-6.23-6.8c-9.94-3.79-14.1-8.93-15.85-12.34-.26.58-.51,1.15-.73,1.72-3,7.51-3.6,9.74-3.6,9.74l12,6.29,1.2-3.25s7.27,3.08,9.78,8.52S513.1,753.27,525.57,757.25Z"/><path class="cls-29" d="M525.44,723c-.73.18-1.49.33-2.23.44a18,18,0,0,1-3.07.31,12.21,12.21,0,0,1-3.38-.3,8.84,8.84,0,0,1,2.76-2.14,11.05,11.05,0,0,1,3.16-1,10.69,10.69,0,0,1,1.69-.13C524.69,721.11,525.05,722.07,525.44,723Z"/><path class="cls-29" d="M528,728.27c-.51.1-1,.2-1.55.28a23.31,23.31,0,0,1-3.07.3,12.21,12.21,0,0,1-3.38-.3,8.38,8.38,0,0,1,2.75-2.13,10.93,10.93,0,0,1,3.17-1l.57-.06C527,726.3,527.47,727.28,528,728.27Z"/><path class="cls-27" d="M443.38,783.68c.78.12,1.56.23,2.35.33h0c1.21.17,2.42.32,3.63.46h.06l3.59.39,1.15.12h0c1.65.16,3.28.29,4.91.41l2.09.14.38,0,2,.09h0l2.16.07h0c.71,0,1.41,0,2.1,0h0a38.72,38.72,0,0,0,7.27-.6h0c-13.94-12.7-20.1-24.91-23.14-33.48-10.12-28.51-4.3-68.53-2.89-78.21,1.53-10.53,3.24-17.37-.34-25.57-4.69-10.71-14-14.45-31.41-22.92-15.84-7.7-30-14.6-40.46-22.78a19.92,19.92,0,0,1-6.16-23.83c2.47-5.38,7.38-9.8,16.71-10.5a96.4,96.4,0,0,0,44.89-15.62H352.76v0l0,0,0,.09,0,.08-.08.18,0,.06-.14.32a.37.37,0,0,0-.05.11c0,.09-.09.19-.13.29l-.07.16L352,554l-.05.11-.23.57-.07.16c-.06.16-.12.32-.19.49l-.09.23c-.06.18-.13.36-.2.55s0,.13-.08.19c-.09.26-.19.52-.28.8l-.06.17q-.12.33-.24.69l-.1.3c-.07.22-.15.44-.22.67l-.09.28c-.1.32-.2.65-.31,1a.57.57,0,0,1,0,.14c-.09.3-.17.6-.26.91,0,.11-.06.23-.1.34l-.21.8-.09.35c-.1.38-.2.76-.29,1.16h0l-.27,1.19c0,.13-.06.25-.08.38-.07.3-.13.6-.19.91,0,.13-.06.27-.08.4l-.21,1.11,0,.2c-.08.44-.15.88-.22,1.33,0,.13,0,.26-.05.39-.05.33-.1.66-.14,1l-.06.46q-.06.54-.12,1.11l0,.31c-.05.47-.08,1-.12,1.43,0,.13,0,.25,0,.38l-.06,1.1c0,.16,0,.33,0,.49,0,.37,0,.74,0,1.12,0,.13,0,.26,0,.39,0,.5,0,1,0,1.51,0,.11,0,.22,0,.33,0,.4,0,.8.06,1.21,0,.17,0,.33,0,.5,0,.38.05.75.08,1.13,0,.15,0,.3,0,.45.06.52.11,1,.18,1.56,0,.07,0,.15,0,.22.06.45.13.9.2,1.35l.09.5c.07.38.15.76.23,1.14,0,.16.06.32.1.49.12.52.24,1,.38,1.56a39.46,39.46,0,0,0,3.37,8.58q.4.74.84,1.47l.31.53c.35.57.73,1.13,1.12,1.69l.3.43a42,42,0,0,0,2.66,3.32l.36.4c.5.55,1,1.08,1.55,1.61a49.18,49.18,0,0,0,10.4,7.73c.6.34,1.2.67,1.83,1q5.59,2.93,10.8,5.51c2.3,1.15,4.55,2.25,6.73,3.32l3.23,1.56c2.12,1,4.17,2,6.16,2.93s3.9,1.85,5.75,2.71c11.1,5.21,19.71,9.19,25.38,12.7a37.49,37.49,0,0,1,3.68,2.55,16.75,16.75,0,0,1,1.83,1.64,7.34,7.34,0,0,1,2.24,4,16.92,16.92,0,0,1,.06,3.43,96.46,96.46,0,0,1-1.59,9.7c-.09.52-.19,1-.28,1.59s-.17.95-.25,1.44-.17,1-.25,1.52a129.2,129.2,0,0,0-1.4,25.14c0,.94.07,1.89.12,2.87.15,2.86.38,5.9.7,9.15.13,1.29.26,2.6.4,3.91l0,.36c.27,2.63.55,5.28.84,7.93l0,.33c.15,1.33.29,2.66.44,4l.57,5h0c.19,1.6.37,3.2.56,4.78l0,.25c.25,2.14.51,4.26.76,6.35.12,1,.25,2,.37,3l0,.29c.12.93.23,1.85.34,2.77l.05.36c.24,1.92.47,3.81.71,5.65l0,.34c.24,1.88.47,3.71.7,5.47.94,7.29,1.77,13.5,2.36,17.88,0,.27.07.54.11.8s.07.51.1.76c.33,2.41.57,4.1.68,4.88C443.35,783.51,443.38,783.68,443.38,783.68Z"/><path class="cls-30" d="M475.18,785.13C464.87,776.21,456.27,765,451.4,752a100.47,100.47,0,0,1-4.81-20,160.65,160.65,0,0,1-1.53-20.55,253.27,253.27,0,0,1,3.11-41c1-6.74,2.28-13.48.18-19.62a24.21,24.21,0,0,0-4.67-8.37,31.8,31.8,0,0,0-7.53-6.2c-5.67-3.5-11.91-6.31-18-9.33s-12.29-6-18.37-9.14a189.08,189.08,0,0,1-17.81-10.39c-1.43-1-2.84-2-4.23-3a29.11,29.11,0,0,1-4-3.5,21.62,21.62,0,0,1-5.09-9.44c-1.78-7,.37-15,5.93-19.69a20.15,20.15,0,0,1,9.68-4.32c3.53-.55,6.83-.56,10.2-1.15a93.4,93.4,0,0,0,19.68-5,100.67,100.67,0,0,0,9.38-4,79.72,79.72,0,0,0,8.93-5,89.38,89.38,0,0,1-18,9.76,94.45,94.45,0,0,1-19.74,5.74c-3.36.68-6.92.78-10.13,1.36a18.34,18.34,0,0,0-8.73,4.09,16.61,16.61,0,0,0-4.95,8.14,18.27,18.27,0,0,0,0,9.54,19.36,19.36,0,0,0,4.7,8.31,27.05,27.05,0,0,0,3.74,3.15q2,1.5,4.14,2.89a184.56,184.56,0,0,0,17.66,10.06c6.06,3.08,12.19,6.06,18.34,9,3.07,1.49,6.16,3,9.23,4.47s6.15,3.11,9.12,5a34.23,34.23,0,0,1,8.19,6.8,27,27,0,0,1,6.31,14.71,35.45,35.45,0,0,1,.06,5.35c-.22,3.52-.81,6.92-1.33,10.28a270.87,270.87,0,0,0-3.61,40.57,158.31,158.31,0,0,0,1.1,20.31,99.8,99.8,0,0,0,4.32,19.8,74.31,74.31,0,0,0,9.12,18.1A99.36,99.36,0,0,0,475.18,785.13Z"/></g><g id="Patient_Head_Female" data-name="Patient/Head/Female"><path class="cls-31" d="M361.58,443.64s-13.68-12.51,1-26.61,15.5-25.22,14.66-38.21,4.11-34.75,23-41.82,45.24,54.37,45,64.69-5.07,32.81-12.47,35.19S399,467.44,361.58,443.64Z"/><path class="cls-25" d="M417,336c-12.39,2.42-20,18.21-18.25,36.54h-.09c-3.39.66-5.39,5-4.47,9.77s4.42,8,7.81,7.37a4.43,4.43,0,0,0,1.29-.47c6.89,13.88,20.26,21.61,31.26,19.46,13.65-2.66,18.49-19.51,14.46-40.14S430.67,333.32,417,336Z"/><path class="cls-25" d="M430.21,419.48c-.63-2.21,2-7.61,3.6-10.72-10.86,1.67-23.78-6-30.51-19.56a4.43,4.43,0,0,1-1.29.47s-1.06,28.21-7.17,28.56c-7.15,6.14-30.51,26.9-25.75,36.53,4,8.08,25.56,3.91,57.71-2.3a16.14,16.14,0,0,0,8.39-4c6.75-6.44,4.9-18,4-20.61C437.92,424.44,431.11,422.68,430.21,419.48Z"/><path class="cls-28" d="M401.1,400.91c.71-6,.91-11.24.91-11.24a4.43,4.43,0,0,0,1.29-.47c6.73,13.57,19.65,21.23,30.51,19.56a47.36,47.36,0,0,0-3.13,7.06c-.28.07-.55.14-.83.19C420.06,417.92,408.4,412,401.1,400.91Z"/><path class="cls-28" d="M398.55,376.73a14,14,0,0,0-.08,5,10,10,0,0,0,.76,2.24c.14.39.38.75.56,1.16a13.65,13.65,0,0,1,.65,1.27,6.82,6.82,0,0,1-1.36-.59,6.91,6.91,0,0,1-1.15-.95,5.68,5.68,0,0,1-1.41-2.73,5.43,5.43,0,0,1,.23-3.07A4.74,4.74,0,0,1,398.55,376.73Z"/><path class="cls-28" d="M394.84,418.23c3.73-.21,5.57-10.78,6.45-19l5.47,2.45,4.69,9.81s-9,1.95-4.69,11.19c3.83,8.3,14,27.11,28.7,25.5-2.13,1.19-5.07,2.71-8.66,4.27-23.54,10.24-55.67,13.48-60.35,4.22S385.15,426.46,394.84,418.23Z"/><path class="cls-31" d="M444.19,354.25s-6.27-9.75-8.09-7.57-5.31,8.06-17.23,7.44c0,0-7.95,10.4-9.65,22.6s-10.55-4.19-10.55-4.19-11.4-28.41.91-35.16,24.65-6.91,36.94,0S444.19,354.25,444.19,354.25Z"/><circle class="cls-31" cx="383.17" cy="355.48" r="18.76"/><path class="cls-32" d="M431.77,388s1.11,5.68,5.53,6.6c5.61,1.17,7.74-3,7.74-3s-8.37,1-13.27-3.57"/><path class="cls-28" d="M440.1,367.14c.45,2,.84,4,1.39,5.93a12.07,12.07,0,0,0,1.06,2.61c.19.33.54.8.82,1.22s.56.89.83,1.37a6.42,6.42,0,0,1,.93,3.45,3,3,0,0,1-.94,1.92,4,4,0,0,1-1.69.88,12.5,12.5,0,0,1-6.34-.45,24.5,24.5,0,0,0,5.84-1,3,3,0,0,0,.95-.64,1.12,1.12,0,0,0,.29-.81,5.54,5.54,0,0,0-.8-2.37c-.22-.42-.48-.84-.74-1.26s-.53-.8-.81-1.38a10.62,10.62,0,0,1-.92-3.18A19.6,19.6,0,0,1,440.1,367.14Z"/><path class="cls-31" d="M433.85,363a45.4,45.4,0,0,0-5.89,1.37,18.1,18.1,0,0,0-2.71,1.1c-.9.41-1.72,1-2.67,1.51a7.05,7.05,0,0,1,2-2.52,8.91,8.91,0,0,1,2.88-1.54,10.41,10.41,0,0,1,3.21-.51A8.14,8.14,0,0,1,433.85,363Z"/><path class="cls-31" d="M444.08,361.1a8.69,8.69,0,0,1,2.76-.65c.17.5.34,1,.5,1.5h0a17.84,17.84,0,0,0-2.91.3c-1,.14-1.92.45-3,.71A6.79,6.79,0,0,1,444.08,361.1Z"/><path class="cls-31" d="M446.42,374.71a1.54,1.54,0,0,1-1.8-1.21l-.85-4.4a1.53,1.53,0,1,1,3-.59l.86,4.4A1.54,1.54,0,0,1,446.42,374.71Z"/><path class="cls-31" d="M431,375.65a1.54,1.54,0,0,1-1.8-1.21l-.86-4.4a1.53,1.53,0,0,1,3-.59l.86,4.4A1.54,1.54,0,0,1,431,375.65Z"/></g><g id="Doctor_Head_Male" data-name="Doctor/Head/Male"><g id="Doctor_Head_Male_7" data-name="Doctor/Head/Male/7"><path d="M800,308.22s-2.5,30.29-14.49,43.43-.22-44.44-.22-44.44Z"/><path class="cls-25" d="M761.54,366.37c.63-2.22-2-7.61-3.6-10.72,10.85,1.66,23.77-6,30.5-19.56a4.93,4.93,0,0,0,1.3.47s1,28.21,7.17,28.56c7.14,6.13,30.5,26.89,25.75,36.53-4,8.07-25.56,3.91-57.72-2.31a16.18,16.18,0,0,1-8.39-4c-6.74-6.43-4.9-18-3.95-20.61C753.83,371.33,760.64,369.56,761.54,366.37Z"/><path class="cls-28" d="M785,369.58c4.26-9.24-4.69-11.2-4.69-11.2l.06-.13c-5.92,4-12.53,5.73-18.46,4.58l-.83-.2a48.41,48.41,0,0,0-3.13-7.06c10.85,1.67,23.16-6.71,29.89-20.28a2,2,0,0,0,1.91,1.19s.19,5.25.91,11.24h0c.94,7.92,2.78,17.19,6.27,17.39,9.69,8.22,33.09,29.16,28.39,38.45s-36.81,6-60.36-4.23c-3.58-1.56-6.52-3.08-8.65-4.26C771,396.69,781.16,377.87,785,369.58Z"/><path class="cls-25" d="M774.73,282.87c12.4,2.41,20,18.2,18.25,36.53h.1c3.39.66,5.39,5,4.46,9.77s-4.41,8-7.8,7.38a2.76,2.76,0,0,1-2-1c-6.89,13.88-19.53,22.11-30.53,20-13.66-2.66-18.49-19.51-14.47-40.14S761.08,280.2,774.73,282.87Z"/><path class="cls-28" d="M793.2,323.61A4.8,4.8,0,0,1,795,326a5.43,5.43,0,0,1,.23,3.07,5.57,5.57,0,0,1-1.42,2.73,5.49,5.49,0,0,1-1.15.95,6.22,6.22,0,0,1-1.35.59c.19-.48.44-.86.64-1.26s.42-.78.57-1.17a10.54,10.54,0,0,0,.75-2.24A13.74,13.74,0,0,0,793.2,323.61Z"/><path class="cls-32" d="M761.48,340.05a82.31,82.31,0,0,0-10.67,4s-.82-5.32,3.39-6.95S761.48,340.05,761.48,340.05Z"/><path class="cls-28" d="M751.67,314.11a19.6,19.6,0,0,1,.12,6.26,10.42,10.42,0,0,1-.92,3.18c-.28.58-.55.93-.81,1.38s-.51.84-.73,1.26a5.42,5.42,0,0,0-.8,2.36,1.08,1.08,0,0,0,.29.81,2.77,2.77,0,0,0,.94.64,24.08,24.08,0,0,0,5.84,1,12.37,12.37,0,0,1-6.34.44,3.8,3.8,0,0,1-1.68-.88,3,3,0,0,1-.94-1.92,6.41,6.41,0,0,1,.93-3.44c.26-.48.54-.93.83-1.37s.62-.89.82-1.23a11.77,11.77,0,0,0,1-2.6C750.82,318.14,751.22,316.14,751.67,314.11Z"/><path d="M768.74,311a43.14,43.14,0,0,1-6,.64,19.05,19.05,0,0,1-2.92-.15c-1-.09-1.94-.36-3-.56a7,7,0,0,0,2.74,1.72,9.12,9.12,0,0,0,3.23.52,10.46,10.46,0,0,0,3.19-.58A8.07,8.07,0,0,0,768.74,311Z"/><path d="M743.84,311.31c.27.09.55.16.83.23a10.88,10.88,0,0,0,1.59.23,10.1,10.1,0,0,0,1.65,0,8.21,8.21,0,0,0,3.1-.86c-1.48-.15-2.88-.28-4.23-.51-.6-.09-1.18-.21-1.76-.35-.26-.05-.51-.11-.76-.18C744.11,310.34,744,310.82,743.84,311.31Z"/><path d="M745.34,321.68a1.54,1.54,0,0,0,1.8-1.22l.86-4.39a1.53,1.53,0,1,0-3-.59l-.86,4.4A1.54,1.54,0,0,0,745.34,321.68Z"/><path d="M760.76,322.62a1.54,1.54,0,0,0,1.8-1.21l.85-4.4a1.53,1.53,0,1,0-3-.59l-.86,4.4A1.54,1.54,0,0,0,760.76,322.62Z"/><path class="cls-26" d="M771.81,326.1s-24.67-1.56-30.37,0c0,0-2.08,25.49,14.23,29.13s25.83-9,25.83-9Z"/><path class="cls-26" d="M789.82,336.63a25.55,25.55,0,0,0-3.6,2.59,43.07,43.07,0,0,0-3.21,3c-1,1-2,2.14-2.9,3.28a24.89,24.89,0,0,0-2.49,3.67,24.28,24.28,0,0,0,3.61-2.58,42.32,42.32,0,0,0,6.1-6.26A24.89,24.89,0,0,0,789.82,336.63Z"/><path class="cls-26" d="M789.26,320.22a49.79,49.79,0,0,0-6.1,1.49c-2,.61-4,1.27-5.89,2s-3.86,1.55-5.75,2.42a50,50,0,0,0-5.54,3,49.35,49.35,0,0,0,6.1-1.49q3-.9,5.9-2c1.94-.73,3.85-1.55,5.74-2.42A49.11,49.11,0,0,0,789.26,320.22Z"/><path class="cls-30" d="M758,329.1a13.2,13.2,0,0,0-3.63-1.5,17.33,17.33,0,0,0-3.86-.59,14.61,14.61,0,0,0-3.95.35A8.27,8.27,0,0,0,743,329.1c1.34-.13,2.55-.17,3.77-.19s2.45.07,3.68.1C752.91,329.08,755.38,329.27,758,329.1Z"/><path class="cls-27" d="M755.67,355.23a14.78,14.78,0,0,1-7.26-3.93c4.09-1.13,10.44-1.55,15.29-7.08a19.14,19.14,0,0,0,4.68-10.08,18.59,18.59,0,0,0-1-8.29c2.7.14,4.48.25,4.48.25l9.69,20.1S772,358.86,755.67,355.23Z"/><path d="M745.85,304.87s8-9.3,34.06-4.47c0,0-4.11,8.6-.37,10.56s4.61,2.49,3,7.64-4.61,10.45-.29,8.83,11.58-13.84,13.87-4.5c2.23,9.05-3,12-2.5,13.32a.61.61,0,0,0,.32.28c1.67.5,8.26-9.85,9.83-19.62,2.12-13.2-4.27-29.31-16.42-35.74a29.8,29.8,0,0,0-10.8-3.12c-21.47-2.91-45.66,9.56-44.89,17.76C731.91,298.45,734.86,301.72,745.85,304.87Z"/></g></g><g id="Doctor_Bottom" data-name="Doctor/Bottom"><path class="cls-29" d="M686.45,814.71c10.88-8.34,38.6-17,45.54-32.51,3.75,4.71,24.72,3.38,32.68,3h0s2.61,13,2,22S765.52,819,765.52,819l-14.77.56.37-3.89s-8.59-.38-13.62,3.94-18.76,9.33-32.87,7.34S675.56,823.05,686.45,814.71Z"/><path class="cls-26" d="M704.64,826.91c14.1,2,27.83-3,32.86-7.34s13.62-3.94,13.62-3.94l-.37,3.89,14.77-.56s.46-2.57,1.11-11.67a76.66,76.66,0,0,0-.73-14.42c-.58-4.38-1.23-7.62-1.23-7.62-8,.33-28.25,1.55-32.67-3-2.13,2.56-6.17,5-8.58,7.51-.76.82-1.58,1.61-2.4,2.39-.71.62-1.42,1.23-2.14,1.83-.93.76-1.88,1.53-2.88,2.27-10,7.46-22.61,13.2-29.54,18.5C675.57,823.05,690.53,824.91,704.64,826.91Z"/><path class="cls-33" d="M764.67,785.24h0s2.61,13,2,22c-.16,2.13-.3,3.89-.43,5.36-5.2.13-11.28-.28-8.89-3.23,4-4.89,4.07-24.06,4.07-24.06Z"/><path class="cls-33" d="M684.22,816.71a17.93,17.93,0,0,1,2.23-2c4.58-3.51,11.64-7.21,18.79-11.47a29,29,0,0,1,14.54,9.49c3.29,4.14,3.56,10.9,4.45,12-3.65,3.83-40.74-.69-41.45-4.51,0,0,0-.09,0-.13A5.44,5.44,0,0,1,684.22,816.71Z"/><path class="cls-29" d="M704.63,826.91c-11.33-1.6-23.19-3.12-21.8-8,34.73,12.23,50.18-.89,53.18-5s9.33-3.91,9.33-3.91c11.53,1,18-2.25,21.37-4.87,0,.72,0,1.42-.08,2.1-.66,9.1-1.11,11.67-1.11,11.67l-14.77.56.37-3.89s-8.59-.38-13.62,3.94S718.74,828.9,704.63,826.91Z"/><path class="cls-29" d="M721,792.11c.63.53,1.3,1,2,1.53a21,21,0,0,0,2.86,1.8,13,13,0,0,0,3.45,1.32,9.73,9.73,0,0,0-1.68-3.5,12.1,12.1,0,0,0-2.61-2.59,11.71,11.71,0,0,0-1.59-.95C722.66,790.54,721.84,791.33,721,792.11Z"/><path class="cls-29" d="M716,796.21c.46.35.92.7,1.39,1a24.76,24.76,0,0,0,2.86,1.8,13.4,13.4,0,0,0,3.45,1.33,9.54,9.54,0,0,0-1.68-3.51,12.1,12.1,0,0,0-2.61-2.59c-.16-.12-.35-.23-.53-.34C718,794.7,717,795.47,716,796.21Z"/><path class="cls-29" d="M748.61,814.61c10.88-8.35,37.2-14.92,44.14-30.4,3.75,4.71,24.9.35,32.86,0h0s3.83,13.87,3.18,23-1.11,11.66-1.11,11.66l-14.77.56.37-3.89s-8.59-.38-13.62,3.94-18.76,9.34-32.87,7.34S737.72,823,748.61,814.61Z"/><path class="cls-26" d="M766.8,826.8c14.11,2,27.83-3,32.86-7.34s13.62-3.94,13.62-3.94l-.37,3.89,14.77-.56s.46-2.57,1.11-11.66c.33-4.55-.67-10-1.24-14.31a57.88,57.88,0,0,0-1.94-8.66c-8,.34-27.45,1.41-32.85,0a24.21,24.21,0,0,0-7.18,5.39c-.76.82-1.57,1.61-2.4,2.39-.71.62-1.42,1.23-2.14,1.83-.93.77-1.88,1.53-2.88,2.27-10,7.46-22.61,13.21-29.54,18.51C737.73,823,752.69,824.81,766.8,826.8Z"/><path class="cls-33" d="M825.61,784.22h0s3.83,13.87,3.18,23c-.16,2.12-.3,3.88-.43,5.35-5.2.14-11.28-.27-8.89-3.22,4-4.89,4.07-24.07,4.07-24.07C824.8,785.21,824.7,784.25,825.61,784.22Z"/><path class="cls-33" d="M746.38,816.6a17.17,17.17,0,0,1,2.23-2c4.58-3.51,11.64-7.22,18.79-11.48a29.19,29.19,0,0,1,14.54,9.49c3.29,4.14,3.56,10.9,4.45,12-3.65,3.83-40.74-.7-41.45-4.51,0,0,0-.09,0-.14A5.44,5.44,0,0,1,746.38,816.6Z"/><path class="cls-29" d="M766.79,826.8c-11.33-1.6-23.19-3.12-21.8-8,34.73,12.23,50.18-.89,53.18-5S807.5,810,807.5,810c11.53,1,18-2.25,21.37-4.88,0,.72,0,1.43-.08,2.11-.66,9.09-1.11,11.66-1.11,11.66l-14.77.56.37-3.89s-8.59-.38-13.62,3.94S780.9,828.8,766.79,826.8Z"/><path class="cls-29" d="M783.18,792c.63.53,1.3,1,2,1.53a19.22,19.22,0,0,0,2.86,1.8,12.71,12.71,0,0,0,3.45,1.33,9.7,9.7,0,0,0-1.68-3.51,12.1,12.1,0,0,0-2.61-2.59,12.84,12.84,0,0,0-1.59-.95C784.82,790.43,784,791.22,783.18,792Z"/><path class="cls-29" d="M778.16,796.1c.46.35.92.71,1.39,1a24.76,24.76,0,0,0,2.86,1.8,12.71,12.71,0,0,0,3.45,1.33,9.42,9.42,0,0,0-1.68-3.5,11.92,11.92,0,0,0-2.61-2.6c-.16-.12-.35-.23-.53-.34C780.11,794.6,779.16,795.36,778.16,796.1Z"/><path class="cls-34" d="M832.31,562.68a90.78,90.78,0,0,0,5.86-43,89.49,89.49,0,0,0-7.32-26.85s-69.82,10.36-89.34.6c0,0-15.62,138.53-16.11,150.73S732,783.33,732,783.33s19,7.65,32.63,2.44c0,0,10.74-97.31,9.11-122l.89-16.82c.54,12.2,18.24,138.08,18.24,138.08s19.53,6,32.72-.3c0,0,2.54-97.87-1.16-122.38l-.36-47Z"/><path class="cls-35" d="M776.17,601.73c-2.6-30-8-58.76-9.76-58.58-1.35.14,0,15.07.49,49.31.36,27.93-.19,46.68-1,73.22-1.53,51.81-3.6,60.69-5.83,67.85a139.17,139.17,0,0,1-28.1,49.8c6.41,2.88,16.78,6.19,28.37,3.64a38.76,38.76,0,0,0,4.26-1.2s10.74-97.31,9.11-122l3.47-45.36C777.06,613.81,776.79,608.81,776.17,601.73Z"/><path class="cls-35" d="M838.17,519.72a89.49,89.49,0,0,0-7.32-26.85s-69.82,10.36-89.34.6h0c-.76,5.69,53.65,6.82,72.12,40.9,4.59,8.46,3.48,104,4.58,130.5,2.17,51.79.73,60.79-1,68.1a139.1,139.1,0,0,1-24.43,51.6l0,.09c1.34.49,2.85,1,4.5,1.44,5.25,1.1,14.29,2.39,22.46.55.51-.12,1-.25,1.53-.4a40.28,40.28,0,0,0,3.89-1.39l.51-.27c0-.11-.12-3,.06-8.14.51-24.08,1.69-94-1.35-114.14l-.36-47,1.05-6.7v-.05l0-.08,7.18-45.8h0A90.78,90.78,0,0,0,838.17,519.72Z"/><path class="cls-29" d="M782.62,507.78c15.53,0,36-1.26,51.42-6.79l-.67-1.88c-25.61,9.18-65.65,6.4-72.26,5.86l.25-7.63-2-.06-.31,9.51.93.09C760.19,506.9,769.68,507.78,782.62,507.78Z"/><path class="cls-29" d="M760,506.88l.18-2a131.51,131.51,0,0,1-19.41-3.37l-.53,1.93A133.32,133.32,0,0,0,760,506.88Z"/><path class="cls-29" d="M765.57,543.7l1.68-1.09c-7-10.75-4.3-36.2-4.27-36.46l-2-.21C760.87,507,758.19,532.36,765.57,543.7Z"/><path class="cls-29" d="M826.64,544.12l.5-1.94c-12.43-3.15-27.71-23.68-27.87-23.89l-1.61,1.19C798.31,520.35,813.53,540.79,826.64,544.12Z"/><path class="cls-29" d="M765,504.23c-3.86,0-3.87-6,0-6s3.87,6,0,6Z"/><path class="cls-29" d="M806.36,785.27l2-.09c0-.85-3.87-85.44-6-127.24-2.84-55.27,9.46-124.21,9.59-124.9l-2-.36c-.13.7-12.47,69.86-9.62,125.36C802.5,699.84,806.32,784.43,806.36,785.27Z"/></g><g id="Doctor_Torso" data-name="Doctor/Torso"><path class="cls-25" d="M656,474.44l-10.33.42s-2.24-1.79-5.29-4.11c-5.75-4.39-14.37-10.72-16.14-10.61-2.71.16-7.43,2.13,4.3,11.16l-.09.08c-.4.3-2.2,1.48-6.83,1.76-5.34.33-23.29,1.55-26.2,2.65-1.58.59-5.13,5.35,21.48,4.41a1.44,1.44,0,0,1,1.5,1.61c-.08.49-.44.93-1.41,1-2.41.14-23.21.49-22.85,4.25.26,2.74,5.7,2.07,24,1.26,0,0,2.89.75.58,2.24-.8.51-21.41,2.44-22.42,4.07s-3.67,4.31,27.26.93c0,0,.55.31-2.14,1.88-2.86,1.67-11.33,3.92-13.49,7.07s4.12.65,20-4.69L650.15,497c14.72,2.07,69.84,6.78,83.54-7.45,12.82-13.32,19.73-61,19.73-61l-31.38-1-13.13,35.54a6.9,6.9,0,0,1-5.49,4.44l-49.32,7.12"/><line class="cls-36" x1="655.47" y1="474.44" x2="655.47" y2="496.63"/><path class="cls-34" d="M716.67,429.81l12-37.55a38.94,38.94,0,0,1,13-19,28.25,28.25,0,0,1,5.06-3.22,1,1,0,0,1,1.43.94l-1.9,58.8Z"/><path class="cls-26" d="M716.67,429.81l12-37.55a38.94,38.94,0,0,1,13-19,28.25,28.25,0,0,1,5.06-3.22,1,1,0,0,1,1.43.94l-1.9,58.8Z"/><path class="cls-27" d="M747.69,383.48l-1.5,46.33H730.42c-.37-11.25.47-23.68,7.05-37.51,4.48-9.42,7.07-9.89,8.16-9.84A3.29,3.29,0,0,1,747.69,383.48Z"/><path class="cls-25" d="M892.16,564.14a23.19,23.19,0,0,1-.73-5.5c-.23-15.57-1.72-75-10.68-102-2.86-8.62-29.07-52.53-29.07-52.53L814.24,412l33,54.79a27.38,27.38,0,0,1,3.18,7.83l20.11,85.65a8.07,8.07,0,0,1-1.49,6.82c-4.23,5.43-12.6,16.46-12.47,18.48.18,2.71,2.18,7.42,11.13-4.37,0,0,1.53,1.58,1.89,6.91s1.13,25.85,2.81,26.19,5.49,5.22,4.23-22.66c0,0,2.48-1.38,2.64,1s1.54,25.3,4.4,22.84,2-5.73,1.12-24c0,0,1.86-1.49,2.22-.6s2.42,22.51,4.22,22.39,4.33,3.64.75-27.26c0,0,1-.52,2.14,2.58s5.5,16.71,6.91,13,.64-4.13-4.81-19.94l-4-17.57Z"/><path class="cls-28" d="M814.24,412l8.84-1.86c6.59,8.37,14.8,14.45,25.48,30.09,8.32,12.19,13.71,24.59,16.11,29.83,6.56,14.37,5.22,21.69,9.6,57.12,2.62,21.28,3.94,31.92,5.32,37.48,0,0,9.88,39.86,5,49.73a2.72,2.72,0,0,1-1,1.12c-2.86,2.46-4.24-20.43-4.4-22.84s-2.64-1-2.64-1c1.26,27.88-2.54,23-4.23,22.66s-2.45-20.76-2.81-26.15h0v0c-.36-5.33-1.89-6.91-1.89-6.91-8.95,11.79-10.95,7.08-11.13,4.37-.13-2,8.24-13.05,12.47-18.48a8.07,8.07,0,0,0,1.49-6.82L850.4,474.62a27.38,27.38,0,0,0-3.18-7.83Z"/><polygon class="cls-30" points="718.69 423.47 745.21 423.47 745.21 427.47 717.42 427.47 718.69 423.47"/><path class="cls-33" d="M730.37,423.47h14.84v4H730.36C730.34,426.15,730.34,424.82,730.37,423.47Z"/><polygon class="cls-30" points="721.62 414.27 744.72 414.27 744.72 418.27 720.35 418.27 721.62 414.27"/><path class="cls-33" d="M731,414.27h13.7v4h-14.1C730.72,417,730.85,415.62,731,414.27Z"/><path class="cls-26" d="M747.82,498h77.51a8.42,8.42,0,0,0,8.33-9.69L815.37,367.56l-18.85-4.17c-6.73,14.27-27.45,14.92-34.07.6l-14.3,5.44a10.9,10.9,0,0,0-8.31,11.15l.15,4.51,3.57,108.76C743.57,494.14,743.65,495.6,747.82,498Z"/><path class="cls-26" d="M866,428a4.06,4.06,0,0,0,1-5.68l-28.21-39.16s-10-12.88-23.34-15.62l-7.62,39.74,27,41a1.35,1.35,0,0,0,1.91.36Z"/><path class="cls-27" d="M834.7,448.26l-26.77-40.68.06-.39a4.34,4.34,0,0,1,6.9-2.8c5.11,3.89,11.64,10.58,17.62,16.71,6.24,6.4,12.94,13.27,16,19.13l-11.95,8.39A1.35,1.35,0,0,1,834.7,448.26Z"/><rect class="cls-30" x="828.07" y="430.04" width="41.07" height="4" transform="translate(-93.82 568.5) rotate(-35.22)"/><path class="cls-33" d="M843.61,433.12c.88,1.07,1.7,2.13,2.45,3.17L833,445.52l-1.15-1.63-1.1-1.68Z"/><rect class="cls-30" x="822.52" y="421.66" width="40.65" height="4" transform="translate(-94.37 530.93) rotate(-33.22)"/><path class="cls-33" d="M839.4,428.31l-12.46,8.15-1.06-1.6-1.13-1.74,11.87-7.77C837.56,426.33,838.49,427.32,839.4,428.31Z"/><path class="cls-27" d="M743.56,493.85c5.87-2.08,21.16-2.15,44.31-9.45C809.59,477.56,814,472,816,468c4.65-9.35,1.61-21.22.36-26.1-2.25-8.76-2.88-12.11-7.38-23.22-1.51-3.73-2-12.76,0-13.5,2.33-.86,8.92,9.2,15.66,23.17l9.07,59.91a8.42,8.42,0,0,1-8.33,9.69H747.82a4.26,4.26,0,0,1-4.26-4.12Z"/><path class="cls-37" d="M628.24,471.35s4.32,16.18,19.08,11.71"/><path class="cls-25" d="M656,474.47l-10.33.42s-2.24-1.79-5.29-4.1c-5.75-4.4-14.37-10.73-16.14-10.62-2.71.17-7.43,2.14,4.3,11.16l-.09.08c-.4.3-2.2,1.49-6.83,1.77-5.34.32-23.29,1.54-26.2,2.64-1.58.59-5.13,5.35,21.48,4.42a1.42,1.42,0,0,1,1.5,1.6c-.08.5-.44.93-1.41,1-2.41.14-23.21.5-22.85,4.25.26,2.74,5.7,2.07,24,1.26,0,0,2.89.75.58,2.24-.8.51-21.41,2.44-22.42,4.07s-3.67,4.31,27.26.93c0,0,.55.31-2.14,1.88-2.86,1.67-11.33,3.92-13.49,7.07s4.12.66,20-4.68L650.15,497c14.72,2.07,69.84,6.78,83.54-7.45,12.82-13.32,19.73-60.95,19.73-60.95L722,427.57l-13.13,35.54a6.9,6.9,0,0,1-5.49,4.44l-49.32,7.12"/><path class="cls-37" d="M628.24,471.38s4.32,16.18,19.08,11.72"/><path class="cls-33" d="M888.47,563a9.23,9.23,0,0,0,7-8.81c.26-18.78.5-75.39-5.87-93.7-7.68-22.08-42.15-79.7-58-91S795,358.23,795,358.23l9.12,276h66.24L866,559.83A29.93,29.93,0,0,0,888.47,563Z"/><path class="cls-33" d="M795,358.22l9.12,276h66.24l-3.21-54.54-.7-11.93-.47-7.93a29.55,29.55,0,0,0,5.49,2.5L890.89,560l.43,1.72a9.17,9.17,0,0,0,4.1-7.53c.27-18.79.5-75.39-5.87-93.71-7.68-22.08-42.15-79.69-58-91S795,358.22,795,358.22Z"/><path class="cls-9" d="M854.39,634.23c-3-3.58-5.51-4.63-6.34-9.6-2.63-15.84,5-38.4,8-53.76s-6.44-40.4-6.44-40.4l14.17,17.2,2.63,12.16H866l4.38,74.4Z"/><path class="cls-9" d="M866,559.83s-15.23-82.66-16.13-85.68-25.65-41.51-25.65-41.51l-17-25.81s-3.13,26.13,6.49,41.56,21.66,22.16,28.6,57.2S866,559.83,866,559.83Z"/><path class="cls-33" d="M761.88,358.23v276H719.8l12-136.74s-5,6.32-12,5.65c-5.84-.56-47.1-2.41-60.61-3a4.46,4.46,0,0,1-4.27-4.47V472.31a4.47,4.47,0,0,1,4-4.45c11-1.14,40.91-4.47,45.6-7.15C710.28,457.4,708.72,364.83,761.88,358.23Z"/><path class="cls-9" d="M737.12,415.79a42.74,42.74,0,0,1,7,23c0,13.23-4.69,58.37-4.89,73.6s-3.58,48.8-.81,75.93c1.91,18.74,6.28,35.86,11.41,45.86H719.8l12-136.74S738.76,435,737.12,415.79Z"/><line class="cls-36" x1="654.92" y1="473.97" x2="654.92" y2="496.15"/><path class="cls-29" d="M821.52,634.22H922.4V587.46a7.33,7.33,0,0,0-7.33-7.33H828.85a7.33,7.33,0,0,0-7.33,7.33Z"/><polygon class="cls-19" points="922.4 634.22 922.4 623.36 911.43 634.22 922.4 634.22"/><polygon class="cls-19" points="821.52 634.22 821.52 623.36 832.49 634.22 821.52 634.22"/><path class="cls-19" d="M922.4,587.46v2.67H821.52v-2.67a7.33,7.33,0,0,1,7.33-7.33h86.22A7.33,7.33,0,0,1,922.4,587.46Z"/><path class="cls-25" d="M855.93,584c.18,2.71,2.18,7.41,11.13-4.37l.08.09c.3.39,1.5,2.19,1.81,6.82.36,5.33,1.7,23.27,2.81,26.18.61,1.58,5.39,5.1,4.28-21.51a1.44,1.44,0,0,1,1.6-1.51c.5.08.93.44,1,1.4.16,2.41.65,23.22,4.4,22.83,2.74-.28,2-5.72,1.11-24,0,0,.73-2.9,2.23-.6.52.8,2.58,21.4,4.22,22.4s4.33,3.64.75-27.27c0,0,.31-.55,1.9,2.14,1.69,2.85,4,11.29,7.15,13.43s.63-4.12-4.81-19.93l-4.05-17.57-.21-.83a9.41,9.41,0,0,1-2.85,1.27,29.44,29.44,0,0,1-7.56.93,30.07,30.07,0,0,1-9.45-1.58l-1,.11s-1.77,2.26-4.07,5.32C862.08,573.53,855.81,582.19,855.93,584Z"/><polygon class="cls-19" points="866.52 580.3 857.29 580.3 851.85 586.49 860.16 588.89 866.02 587.03 866.52 580.3"/><path class="cls-38" d="M758.45,359.77s-6,9-5.23,39.3"/><path class="cls-9" d="M752.68,442c-.3-.41-.61-.83-.92-1.27-1,1.1-1.85,2.08-2.7,2.93-4.43,4.45-7.9,6.13-10.62,5.12A2.5,2.5,0,0,1,740.1,444h0c1.49,0,4.92-3.14,8.71-7.74-6.83-10.92-14.27-27.48-10.16-35,.84-1.55,3-4.09,7.76-3.76l14.6,1c3.4.23,5.86,1.94,6.93,4.8,3,7.88-5.21,23.06-12.91,33.29,3.58,5.22,7,8.9,8.56,9.06a2.5,2.5,0,0,1,1,4.9,4.11,4.11,0,0,1-1,.13C761.82,450.68,758.42,449.58,752.68,442Zm-10.17-36.11c-.47,6.73,4.34,17.53,9.59,26.18,5.64-7.75,11.09-17.61,11.46-24.38.19-3.65-1.32-4.06-2.88-4.17l-14.61-1-.59,0C743.74,402.45,742.7,403.13,742.51,405.85Z"/><ellipse class="cls-39" cx="737.94" cy="446.38" rx="3.6" ry="3.09" transform="translate(241.52 1151.63) rotate(-86.03)"/><ellipse class="cls-39" cx="765.95" cy="448.32" rx="3.6" ry="3.09" transform="translate(265.65 1181.38) rotate(-86.03)"/><path class="cls-38" d="M798.74,358.38s12.46,22.73.51,72.67"/><circle class="cls-39" cx="798.7" cy="431.73" r="8.96"/><circle class="cls-9" cx="798.7" cy="431.73" r="5.7"/><circle class="cls-39" cx="798.7" cy="431.73" r="2.64"/></g><g id="Patient_Torso" data-name="Patient/Torso"><path class="cls-25" d="M572.47,536.83c-2.41,0-1.21-2.57-1.21-2.57,27.91-.6,22.78-4.07,22.33-5.73s-21-1-26.31-1-7-1.43-7-1.43c11.16-9.71,6.34-11.4,3.62-11.4-1.84,0-10.61,7.35-16.07,12.08a13,13,0,0,1-10.41,3l-49.32-7.12a6.9,6.9,0,0,1-5.49-4.44l-5.31-14.36c-.28-.78-2.79-7.64-12.21-34.45-10.08-28.66-14.76-43.23-21.72-44.84-4-.92-1.8,18.12-14.95,25.19-9.69,5.21-36.18-1.08-36.18-1.08l1.47-29.87c-27.69,4.75-39.05,21.65-39.05,21.65s-41,62.68-43.89,71.3c-9,27.06-10.44,86.45-10.67,102a23.73,23.73,0,0,1-.74,5.5l-4,17.57c-5.44,15.81-6.23,16.22-4.81,19.94s5.8-9.89,6.91-13,2.14-2.58,2.14-2.58c-3.58,30.9-1.06,27.14.75,27.26s3.85-21.51,4.22-22.39,2.22.6,2.22.6c-.91,18.23-1.74,21.5,1.12,24s4.24-20.43,4.4-22.84,2.64-1,2.64-1c-1.26,27.88,2.54,23,4.23,22.66s2.45-20.85,2.81-26.19,1.89-6.91,1.89-6.91c8.95,11.79,10.95,7.08,11.13,4.37.13-2-8.24-13.05-12.47-18.48a8.07,8.07,0,0,1-1.49-6.82l20.11-85.65a27.38,27.38,0,0,1,3.18-7.83l13.38-22.22,12.69-21.1,70.26,19.27c3.07,15.15,8.89,38.17,17.2,46.8,13.7,14.23,68.82,9.52,83.54,7.45a24.21,24.21,0,0,1,7.26.08l14.07,2.27c16.13,4.37,16.59,5.12,20.21,3.46s-10.26-5.12-13.43-6-2.71-2-2.71-2c31.07,1.51,27.15-.75,27.15-2.56s-21.72-2.42-22.63-2.72.46-2.26.46-2.26c18.25-.3,21.57.3,23.83-2.72S574.88,536.83,572.47,536.83Z"/><path class="cls-28" d="M593.89,547.39c0-1.81-21.72-2.42-22.63-2.72s.46-2.26.46-2.26c13.92-.23,19.15.06,21.86-1.12-6.63-2.06-19.08.37-40.68,2.63-39.21,4.12-50.68,1.62-55.2.48-12.43-3.13-28.39-4.54-31.68-16.8-13.2-49.22-22.27-52.87-21.94-70.32l-6,26.45s6.91,47.63,19.73,60.95c13.68,14.21,68.71,9.53,83.5,7.46a24.47,24.47,0,0,1,7.3.07l14.07,2.27c16.13,4.37,16.59,5.12,20.21,3.46s-10.26-5.12-13.43-6-2.71-2-2.71-2C597.81,551.46,593.89,549.2,593.89,547.39Z"/><path class="cls-37" d="M560.25,526.05s-.68,16.74-16.06,15.6"/><line class="cls-36" x1="536.02" y1="529.58" x2="536.02" y2="551.77"/><path class="cls-40" d="M433.13,421.71s13,.81,16.68,6.36c3.27,4.87,15.77,38.55,24.26,62.07,4.44,12.27,7,18.93,8.47,22.48A5.33,5.33,0,0,1,480.6,519c-7.9,5.36-26.13,17.47-30,17.66,0,0-29.46-54.24-23.22-69.12S433.13,421.71,433.13,421.71Z"/><path class="cls-41" d="M475.74,522.18c-1-4.62-3.27-11.25-8.95-16.19-5.3-4.59-9.06-3.79-12-8.16-3.85-5.71.77-9.8-.66-21.18-1.13-9-4.49-10.23-7.8-22.51a83.34,83.34,0,0,1-2.76-17.53c-1,11.93-2.93,35.81-2.93,35.82l-2.57,11.3s.08,2.37.41,6.23q-4.26,38,.17,39.06c1.36.32,3-.71,5.58-5.58,1.6,5,3.9,8.76,6.36,13.26,4.35-2.15,8.91-4.58,13.62-7.32Q470.38,525.78,475.74,522.18Z"/><path class="cls-40" d="M461.87,558.91c13.05-14.65,10.32-39.11-.12-48.84-5.19-4.83-11.15-5-13.92-11.49-2.61-6.1,1.3-11.66,1.3-16.95,0-10.48-13.35-34.83-12.62-39.08l3.07-17.9a1.7,1.7,0,0,0-.93-1.82s-6.32-1.89-6.52-.76l-1.82,10.49a18.15,18.15,0,0,1-18.47,15h-.49a18.15,18.15,0,0,1-17.57-18l-.1-10.8c-6.6,0-18.52,2.09-30.27,10.61-13.61,9.86-43.76,61.63-53.61,78.14a2.63,2.63,0,0,0,1.14,3.73l31.31,14.76,23.22-39.33L352.1,550.91a1.83,1.83,0,0,0,1.79,2.2l77,17.32C433.49,570.61,450.7,571.47,461.87,558.91Z"/><path class="cls-28" d="M377.25,467.14l-4.85-6.85c-6.6,8.37-18.79,19.44-29.47,35.08-8.32,12.19-13.71,24.59-16.11,29.83-6.56,14.37-5.22,21.69-9.6,57.12-2.62,21.28-3.94,31.92-5.32,37.48,0,0-9.88,39.86-5,49.73a2.72,2.72,0,0,0,1,1.12c2.86,2.46,4.24-20.43,4.4-22.84s2.64-1,2.64-1c-1.26,27.88,2.54,23,4.23,22.66s2.45-20.76,2.81-26.15h0v0c.36-5.33,1.89-6.91,1.89-6.91,8.95,11.79,10.95,7.08,11.13,4.37.13-2-8.24-13.05-12.47-18.48a8.07,8.07,0,0,1-1.49-6.82l20.11-85.65a27.38,27.38,0,0,1,3.18-7.83Z"/><path class="cls-41" d="M372.4,460.29c-6.6,8.37-18.79,19.44-29.47,35.08a174.26,174.26,0,0,0-13.69,24.55l13,6.13,0,0a27.62,27.62,0,0,1,2-4.09l21.52-35.76h0l11.45-19Z"/><path class="cls-41" d="M373.62,536.17c-2.73-10.2,3.71-19.71,5.45-22.27C390.75,496.67,419,490.77,449.16,501a109.14,109.14,0,0,0-48.61-16.81c-15.6-1.44-15.63-7.54-16.29-14.56-.77-8.1-6.71-13.9-8-14.38A26.89,26.89,0,0,0,369,470l-3,14.6-.47,2.2,0,0-12.66,60.8c-.22,1.15-.75,2.32-.83,3.16-.24,2.58,2,2.45,2,2.45l76.92,17.3c6.22.58,7.58-.21,7.58-.21S380.52,561.87,373.62,536.17Z"/></g></g></svg>