<svg xmlns="http://www.w3.org/2000/svg" viewBox="0 0 1200 900"><defs><style>.cls-1{fill:#eff5f9;}.cls-12,.cls-2,.cls-20{fill:none;stroke-miterlimit:10;}.cls-2{stroke:#c9effb;stroke-width:2px;}.cls-3{fill:#c9effb;}.cls-4{fill:#454851;}.cls-5{fill:#9d9f9f;}.cls-6{fill:#abbcca;}.cls-7{fill:#e3eaf3;}.cls-8{fill:#ff0068;}.cls-9{fill:#a8e5f9;}.cls-10{fill:#80cbe8;}.cls-11{fill:#59a4ce;}.cls-12{stroke:#59a4ce;stroke-width:4px;}.cls-13{fill:#69baef;}.cls-14{fill:#ea9d7d;}.cls-15{fill:#d18165;}.cls-16{fill:#be3e5f;}.cls-17{fill:#37d6ba;}.cls-18{fill:#0aa68b;}.cls-19{fill:#000001;}.cls-20{stroke:#000001;stroke-linecap:round;stroke-width:3px;}.cls-21{fill:#25beef;}.cls-22{fill:#1a87c4;}.cls-23{fill:#54a4cc;}.cls-24{fill:#ffaa39;}.cls-25{fill:#7c2f13;}</style></defs><g id="delivery_baby" data-name="delivery baby"><g id="Background"><g id="Background1"><path class="cls-1" d="M818.18,63.27c29.62,8.61,162,50.9,218.45,164.86,79.26,159.88-54.91,331.5-91.71,378.59-84.38,107.93-310,309.15-534.55,228-179.86-65-253.69-285-219.08-440.82C248.31,137.06,583.17-5.06,818.18,63.27Z"/></g></g><g id="Bricks"><rect class="cls-2" x="944.57" y="353.36" width="64.89" height="28.93" rx="2"/><rect class="cls-2" x="944.57" y="411.11" width="64.89" height="28.93" rx="2"/><rect class="cls-3" x="977.01" y="382.29" width="64.89" height="28.93" rx="2"/><rect class="cls-3" x="912.13" y="382.29" width="64.89" height="28.93" rx="2"/><rect class="cls-2" x="232.79" y="496.35" width="64.89" height="28.93" rx="2"/><rect class="cls-2" x="265.23" y="554.11" width="64.89" height="28.93" rx="2"/><rect class="cls-3" x="278.72" y="525.28" width="64.89" height="28.93" rx="2"/><rect class="cls-3" x="213.83" y="525.28" width="64.89" height="28.93" rx="2"/><rect class="cls-3" x="610.18" y="110.92" width="64.89" height="28.93" rx="2"/><rect class="cls-3" x="632.1" y="168.78" width="64.89" height="28.93" rx="2"/><rect class="cls-2" x="656.11" y="139.85" width="64.89" height="28.93" rx="2"/><rect class="cls-2" x="591.22" y="139.85" width="64.89" height="28.93" rx="2"/></g><g id="Cabinet"><path class="cls-4" d="M95.83,849.59v-8.87h29.38l-23.62,12.36A3.94,3.94,0,0,1,95.83,849.59Z"/><path class="cls-5" d="M114.13,849.59v-8.87h29.38l-23.62,12.36A3.94,3.94,0,0,1,114.13,849.59Z"/><rect class="cls-5" x="86.68" y="653.19" width="198.93" height="15.29" rx="3.94" transform="translate(372.29 1321.66) rotate(-180)"/><path class="cls-4" d="M90.62,653.19h26.22a3.93,3.93,0,0,0-3.93,3.93v7.42a3.94,3.94,0,0,0,3.93,3.94H90.62a4,4,0,0,1-3.94-3.94v-7.42A3.94,3.94,0,0,1,90.62,653.19Z"/><rect class="cls-5" x="114.13" y="668.48" width="162.34" height="172.51" transform="translate(390.59 1509.46) rotate(-180)"/><rect class="cls-4" x="95.83" y="668.48" width="18.29" height="172.51"/><path class="cls-5" d="M276.46,849.86V841H247.08l23.62,12.37A3.94,3.94,0,0,0,276.46,849.86Z"/><path class="cls-4" d="M247.08,841l11.09,5.81v3.07a3.94,3.94,0,0,1-5.77,3.49L228.79,841Z"/><rect class="cls-6" x="122.05" y="676.53" width="146.48" height="31.6"/><rect class="cls-6" x="122.05" y="718.13" width="146.48" height="31.6"/><rect class="cls-6" x="122.05" y="759.73" width="146.48" height="31.6"/><rect class="cls-6" x="122.05" y="801.34" width="146.48" height="31.59"/><rect class="cls-7" x="142.73" y="676.53" width="125.81" height="31.6"/><rect class="cls-7" x="142.73" y="718.13" width="125.81" height="31.6"/><rect class="cls-7" x="142.73" y="759.73" width="125.81" height="31.6"/><rect class="cls-7" x="142.73" y="801.34" width="125.81" height="31.59"/><circle class="cls-5" cx="205.63" cy="692.33" r="6.38"/><circle class="cls-5" cx="205.63" cy="733.93" r="6.38"/><circle class="cls-5" cx="205.63" cy="775.53" r="6.38"/><circle class="cls-5" cx="205.63" cy="817.13" r="6.38"/></g><g id="Clock"><path class="cls-8" d="M322.12,257h-82.6a5,5,0,0,1-5-5v-82.6a5,5,0,0,1,5-5h82.6a5,5,0,0,1,5,5V252A5,5,0,0,1,322.12,257Z"/><path class="cls-7" d="M316.32,252h-70.9a5.74,5.74,0,0,1-5.8-5.8v-70.9a5.74,5.74,0,0,1,5.8-5.8h70.9a5.74,5.74,0,0,1,5.8,5.8v70.9A5.88,5.88,0,0,1,316.32,252Zm-70.9-79.5a2.77,2.77,0,0,0-2.8,2.8v70.9a2.77,2.77,0,0,0,2.8,2.8h70.9a2.92,2.92,0,0,0,2.8-2.8v-70.9a2.77,2.77,0,0,0-2.8-2.8Z"/><path class="cls-7" d="M261.52,230.08a63.09,63.09,0,0,1,3.4-6.3c1.7-1.5,3.2-3.2,4.9-4.8l9.7-9.7-.6,1.4v-12c0-2-.1-4,.1-6,.6-2,1.2-4,1.9-6a46.21,46.21,0,0,1,1.9,6c.1,2,0,4,.1,6v12.9l-.6.6-9.7,9.7c-1.6,1.6-3.3,3.2-4.8,4.9C265.82,227.88,263.72,229.08,261.52,230.08Z"/></g><g id="Curtains"><rect class="cls-9" x="531.38" y="230.51" width="533.73" height="623.02"/><rect class="cls-8" x="502.07" y="242.4" width="592.35" height="7"/><rect class="cls-8" x="502.07" y="265.18" width="592.35" height="7"/><rect class="cls-8" x="502.07" y="287.96" width="592.35" height="7"/><rect class="cls-8" x="502.07" y="310.75" width="592.35" height="7"/><rect class="cls-8" x="502.07" y="333.53" width="592.35" height="7"/><rect class="cls-8" x="502.07" y="356.32" width="592.35" height="7"/><rect class="cls-8" x="502.07" y="379.1" width="592.35" height="7"/><rect class="cls-8" x="502.07" y="401.88" width="592.35" height="7"/><rect class="cls-8" x="502.07" y="424.67" width="592.35" height="7"/><rect class="cls-8" x="502.07" y="447.45" width="592.35" height="7"/><rect class="cls-8" x="502.07" y="469.92" width="592.35" height="7"/><rect class="cls-8" x="502.07" y="492.7" width="592.35" height="7"/><rect class="cls-8" x="502.07" y="515.49" width="592.35" height="7"/><rect class="cls-8" x="502.07" y="538.27" width="592.35" height="7"/><rect class="cls-8" x="502.07" y="561.06" width="592.35" height="7"/><rect class="cls-8" x="502.07" y="583.84" width="592.35" height="7"/><rect class="cls-8" x="502.07" y="606.62" width="592.35" height="7"/><rect class="cls-8" x="502.07" y="629.41" width="592.35" height="7"/><rect class="cls-8" x="502.07" y="652.19" width="592.35" height="7"/><rect class="cls-8" x="502.07" y="674.98" width="592.35" height="7"/><rect class="cls-8" x="502.07" y="697.94" width="592.35" height="7"/><rect class="cls-8" x="502.07" y="720.73" width="592.35" height="7"/><rect class="cls-8" x="502.07" y="743.51" width="592.35" height="7"/><rect class="cls-8" x="502.07" y="766.29" width="592.35" height="7"/><rect class="cls-8" x="502.07" y="789.08" width="592.35" height="7"/><rect class="cls-8" x="502.07" y="811.86" width="592.35" height="7"/><rect class="cls-8" x="502.07" y="834.64" width="592.35" height="7"/></g><g id="Chair"><path class="cls-3" d="M382.88,585.37H293.37a18.16,18.16,0,0,1-18-20.71L291.63,450a18.17,18.17,0,0,1,18-15.62h57a18.16,18.16,0,0,1,18,15.62l16.25,114.62A18.17,18.17,0,0,1,382.88,585.37Z"/><path class="cls-10" d="M310.79,543.78c-4-4.5-4.48-15.32-5.39-37a264.71,264.71,0,0,1,2.31-49.28,212.94,212.94,0,0,1,4.72-23.11h-2.81a18.17,18.17,0,0,0-18,15.62L275.39,564.66a18.16,18.16,0,0,0,18,20.71h89.51a18.17,18.17,0,0,0,18-20.71l-1-6.73c-3.07-1.24-6.17-2.35-9-3.37C350.78,540.22,324.48,559.12,310.79,543.78Z"/><path class="cls-3" d="M299.91,655.45a4.29,4.29,0,0,1-4.2-5.17c2.6-12.16,14.83-14.87,29.53-14.87H474c14.7,0,26.94,2.71,29.53,14.87a4.29,4.29,0,0,1-4.19,5.17Z"/><path class="cls-10" d="M365.78,635.41H325.24c-14.7,0-26.93,2.71-29.53,14.87a4.29,4.29,0,0,0,4.2,5.17h35.83C335.74,638.86,349.19,635.41,365.78,635.41Z"/><path class="cls-10" d="M353,655.45h93.19a0,0,0,0,1,0,0v8.17a3,3,0,0,1-3,3H356a3,3,0,0,1-3-3v-8.17A0,0,0,0,1,353,655.45Z"/><path class="cls-11" d="M391.55,666.62h16.17a0,0,0,0,1,0,0v20.49a3,3,0,0,1-3,3H394.55a3,3,0,0,1-3-3V666.62A0,0,0,0,1,391.55,666.62Z"/><path class="cls-11" d="M394.55,788.26h10.17a3,3,0,0,1,3,3v20.49a0,0,0,0,1,0,0H391.55a0,0,0,0,1,0,0V791.26A3,3,0,0,1,394.55,788.26Z"/><line class="cls-12" x1="399.64" y1="690.11" x2="399.64" y2="788.26"/><path class="cls-12" d="M315.16,830.62h0A18.87,18.87,0,0,1,334,811.75H465.24a18.87,18.87,0,0,1,18.87,18.87h0"/><circle class="cls-13" cx="315.16" cy="840.82" r="12.71"/><circle class="cls-11" cx="315.16" cy="840.82" r="6.74"/><circle class="cls-13" cx="484.11" cy="840.82" r="12.71"/><circle class="cls-11" cx="484.11" cy="840.82" r="6.74"/></g><g id="Doctor_Head_Female" data-name="Doctor/Head/Female"><circle cx="359.84" cy="416.67" r="24.98"/><path d="M390.09,421.31c-30,7-37.08-8.45-37.93-21.44s4.12-34.75,23-41.82S451.13,407.09,390.09,421.31Z"/><path class="cls-14" d="M392,356.72c-12.4,2.42-20,18.21-18.25,36.54h-.1c-3.39.66-5.38,5-4.46,9.77s4.42,8,7.81,7.37a4.43,4.43,0,0,0,1.29-.47c6.88,13.88,20.25,21.6,31.26,19.46,13.65-2.66,18.48-19.51,14.46-40.15S405.65,354.06,392,356.72Z"/><path class="cls-14" d="M405.18,440.22c-.62-2.21,2-7.61,3.61-10.72-10.86,1.67-23.78-6-30.51-19.56a4.43,4.43,0,0,1-1.29.47s-1.06,28.21-7.17,28.56c-7.15,6.14-30.51,26.9-25.75,36.53,4,8.08,25.56,3.91,57.71-2.3a16.14,16.14,0,0,0,8.39-4c6.75-6.44,4.9-18,3.95-20.62C412.9,445.18,406.09,443.42,405.18,440.22Z"/><path class="cls-15" d="M376.08,421.65c.71-6,.91-11.24.91-11.24a4.43,4.43,0,0,0,1.29-.47c6.73,13.57,19.65,21.23,30.51,19.56a47.37,47.37,0,0,0-3.14,7.06c-.27.07-.54.14-.82.19C395,438.66,383.38,432.75,376.08,421.65Z"/><path class="cls-16" d="M405.49,414.82a83,83,0,0,1,11.3,1.54s-.38-5.36-4.85-6S405.49,414.82,405.49,414.82Z"/><path class="cls-15" d="M415.08,387.93c.45,2,.84,4,1.39,5.92a11.86,11.86,0,0,0,1.06,2.61c.19.33.54.8.81,1.22s.57.9.84,1.38a6.29,6.29,0,0,1,.92,3.44,2.93,2.93,0,0,1-.93,1.92,3.88,3.88,0,0,1-1.69.88,12.5,12.5,0,0,1-6.34-.45,24.09,24.09,0,0,0,5.84-1,2.82,2.82,0,0,0,.95-.64,1.12,1.12,0,0,0,.28-.81,5.49,5.49,0,0,0-.8-2.37c-.22-.42-.47-.83-.73-1.26s-.53-.8-.81-1.37a10.42,10.42,0,0,1-.92-3.18A19.6,19.6,0,0,1,415.08,387.93Z"/><path d="M397,385.23a43.62,43.62,0,0,0,6-.57,18.67,18.67,0,0,0,2.83-.73c.95-.29,1.83-.74,2.84-1.15a7,7,0,0,1-2.33,2.23,9.08,9.08,0,0,1-3.06,1.15,10.75,10.75,0,0,1-3.25.08A8.08,8.08,0,0,1,397,385.23Z"/><path d="M422.13,382.15c.16.48.32,1,.47,1.46l-.14,0a10.44,10.44,0,0,1-3.25.08,8.07,8.07,0,0,1-3-1A44.46,44.46,0,0,0,422.13,382.15Z"/><path d="M421.4,395.49a1.54,1.54,0,0,1-1.8-1.21l-.86-4.4a1.53,1.53,0,1,1,3-.59l.86,4.4A1.54,1.54,0,0,1,421.4,395.49Z"/><path d="M406,396.43a1.53,1.53,0,0,1-1.79-1.21l-.86-4.4a1.53,1.53,0,1,1,3-.58l.85,4.39A1.52,1.52,0,0,1,406,396.43Z"/><path class="cls-15" d="M373.53,397.47a13.76,13.76,0,0,0-.08,5,9.8,9.8,0,0,0,.76,2.23c.14.4.38.76.56,1.17s.45.79.65,1.27a6.58,6.58,0,0,1-1.36-.59,6.91,6.91,0,0,1-1.15-.95,5.62,5.62,0,0,1-1.19-5.8A4.77,4.77,0,0,1,373.53,397.47Z"/><path d="M419.17,375s-6.27-9.75-8.09-7.57-5.31,8.06-17.24,7.44c0,0-7.94,10.4-9.64,22.6s-10.56-4.19-10.56-4.19-11.39-28.41.92-35.16,24.64-6.92,36.94,0S419.17,375,419.17,375Z"/><path class="cls-15" d="M369.82,439c3.73-.21,5.57-10.78,6.44-19l5.48,2.46,4.68,9.81s-8.95,1.95-4.68,11.19c3.82,8.3,14,27.11,28.69,25.5-2.13,1.18-5.06,2.71-8.65,4.27-23.54,10.24-55.67,13.48-60.35,4.22S360.13,447.2,369.82,439Z"/><path class="cls-17" d="M387.39,386.33s16.3-8.7,33.29-8.85c0,0,5.23-20.08-20.69-24s-48.31,15.09-47.92,39.29c0,0,6,10.58,17.11,10.31S377.83,387.42,387.39,386.33Z"/><path class="cls-18" d="M420.86,376.55a5.3,5.3,0,0,0-1.37-1.12,6,6,0,0,0-1.89-.54c-1.57-.26-2.47-.41-3,.09s-.13.68-.54,1.17a2,2,0,0,1-2.16.63c-.6-.28-.43-.85-1.08-1.26a2.17,2.17,0,0,0-2.07,0c-.67.39-.49.87-1.17,1.53a4,4,0,0,1-2.61,1c-1.33,0-1.56-.66-2.43-.45s-.75.89-2.07,2.07c-2.17,1.94-2.79,1.85-3,1.8-.8-.18-.92-1.09-1.8-1.17a2.14,2.14,0,0,0-1.26.45c-1.3.79-1.44,1.56-2.16,2-.54.32-1.51.5-3.33-.36,0,0-1.88-.59-2.43,0s.48,1.64-.09,2.52a2,2,0,0,1-1.53.72c-1.35.09-2.18-.62-3-.7-.45,0,.26.77-.19,1.78-.18.41-.6,1.35-1.35,1.53-1,.23-1.71-1-2.34-.63-.48.25-.22,1.06-.72,1.26-.68.28-1.25-.69-2-.63-1.44.14-1.27,4-3.06,5.13-2.17,1.33-6.42-1.93-7.38-2.7-6.41-5.09-7.73-11.6-9.54-14a37.69,37.69,0,0,0-3.34,16.13s6,10.58,17.11,10.31,8.65-15.62,18.21-16.71c0,0,16.3-8.7,33.29-8.85C420.68,377.48,420.76,377.14,420.86,376.55Z"/><path class="cls-18" d="M383.27,385.35s.15,1.79-.74,2.31a28.35,28.35,0,0,0-2.72,2.09s-3.66-.94-5.43-6.76a24.36,24.36,0,0,1-.73-6.46.66.66,0,0,1,1.27-.28C376.39,379.52,379.21,384.42,383.27,385.35Z"/><path class="cls-18" d="M392.88,382.83s-.52,1.46-1.54,1.58a30.29,30.29,0,0,0-3.33.84s-3-2.3-2.31-8.35a24.49,24.49,0,0,1,1.87-6.19.67.67,0,0,1,1.28.25C388.88,374.62,389.51,380.36,392.88,382.83Z"/><path class="cls-18" d="M408,376.64s.88,1.27,1.9,1.13,4.11-.29,4.11-.29,1.61-2.78-.63-8.44a24.15,24.15,0,0,0-3.42-5.49.67.67,0,0,0-1.17.58C409.68,367.67,410.57,373.38,408,376.64Z"/></g><g id="Patient_Head_Female_Side" data-name="Patient/Head/Female/Side"><path class="cls-14" d="M982.81,449.46a35.62,35.62,0,0,0-4.47,3.92c-8.11,8.26-8.47,10.71-19.05,11.76,0,0-9,2.32-2.25,8.17,0,0-.21,1.3-2.75,4.06S937,490,959,503.15a3,3,0,0,1,.42,4.82l-24.69,17.95,23.68,21.53,36.74-41.11s-5.23-6.78-6-7.53c0,0,15.47-3.77,10.35-10.45s-11.14-2-11.14-2L986.21,484,1002,466.79Z"/><path class="cls-19" d="M994.75,508l-7.42,6.85s0-9.42-.4-13.54a2.29,2.29,0,0,1,1.62-2.42c4.55-1.38,14.92-5.22,10.88-10.49s-10.67-1.37-13.4.56a1.72,1.72,0,0,1-2.27-.25v0a1.69,1.69,0,0,1,0-2.28l9.24-9.83a13.14,13.14,0,0,0-.87-18.62l-6.43-5.82a4.54,4.54,0,0,0-6.14,0h0c2-5.23,7.7-6.59,9.63-7,12.1-2.75,22.35,7.05,24.57,9.18,6.14,5.86,12.62,16.37,9.56,22.12-.76,1.42-2.81,5.08-2.81,5.08s2.71,4.21,2.47,7c-.44,5.17-8.73,9.77-19,15.41C999.13,506.58,996.38,507.6,994.75,508Z"/><path class="cls-19" d="M984.18,467.54a11.35,11.35,0,0,1-3-2.2,15.54,15.54,0,0,1-2.28-2.88,14,14,0,0,1-1.56-3.35,9.82,9.82,0,0,1-.46-3.69c.72,1,1.27,2.06,1.9,3.05l1.81,2.94C981.83,463.38,983.08,465.3,984.18,467.54Z"/><line class="cls-20" x1="976.71" y1="465.43" x2="972.08" y2="470.41"/><path class="cls-16" d="M957.22,483.85c0-1.77-1.81-6.77-2.7-6.73l-.23.25a52.08,52.08,0,0,0-4.37,4.45C951.66,484.36,957.23,483.9,957.22,483.85Z"/><path class="cls-15" d="M992.91,488.15a4.83,4.83,0,0,1,3.88,1.17,2.41,2.41,0,0,1,.59,2.22,4.07,4.07,0,0,1-1.23,1.83,9.43,9.43,0,0,1-3.6,2,6.89,6.89,0,0,1-2,.33,2.81,2.81,0,0,1-1.93-.59,2.83,2.83,0,0,0,1.88.1,8.48,8.48,0,0,0,1.81-.58,11.17,11.17,0,0,0,3.18-2,3.16,3.16,0,0,0,1-1.35,1.64,1.64,0,0,0-.28-1.46A5.74,5.74,0,0,0,992.91,488.15Z"/><path class="cls-15" d="M940.48,529.39c4.31,2.79,25.71-8,32.69-13.09s4.74-8,4.74-8c-6,.78-18.24-4.55-18.24-4.55h0a3,3,0,0,1-.28,4.22l-22,15.69C937.88,526,938.82,528.31,940.48,529.39Z"/><polygon class="cls-19" points="987.24 499.89 948.87 538.81 958.37 547.45 994.75 507.96 987.24 499.89"/><path class="cls-19" d="M984,450.56a52,52,0,0,0,7.1,28.05c8.34,14.43,15.34-5.22,15.34-5.22S997.06,445.14,984,450.56Z"/></g><g id="Patient_Torso_Side" data-name="Patient/Torso/Side"><path class="cls-21" d="M908.56,576c0,24.35-18.56,44.09-41.45,44.08s-54.3-9.49-52-37.29c1.93-23,12.5-47.15,52-50.9C889.93,529.77,908.57,551.69,908.56,576Z"/><path class="cls-21" d="M868.54,556.5c26.53-27.3,26.9-37.89,44-43.43,11.47-3.72,31.34-3.13,39-.47-4.45,4.16-6.86,6.09-8.12,8-1.9,2.81,15.35,4.45,36.42,7.94-.56,1-2.15,9.83-1.87,12.19.88,7.55-6.43,13.92-10.37,20.43a151.49,151.49,0,0,1-9.19,13.48,231.42,231.42,0,0,1-28.07,29.84c-9.71,8.49-16.65,12.94-25.61,24.37-5.13,6.54-5.35,8.27-7.68,9.44-7.23,3.62-23.21-3.79-61.06-49.55a4.21,4.21,0,0,1,1.92-6.7C849.13,576.36,859.81,565.49,868.54,556.5Z"/><path class="cls-22" d="M859.49,616l18.81,18.53a76.43,76.43,0,0,0,11.33,8.27c7.77-4.49,34.6-27.27,36-29.23l30.73-41.69a23.41,23.41,0,0,0,4.9-16.36c-.75-8.45-4.86-18.9-20.44-19.79l-6.79.81a37.31,37.31,0,0,0-24.57,13.6l-25.92,30.65c-2.27,2.29-4.33,1.63-4.26,4.85a5,5,0,0,1-.39,2.62,103.1,103.1,0,0,1-23.22,23.58Q857.66,614,859.49,616Z"/><path class="cls-14" d="M800,602.47c15.43-2.05,52.34,34.32,78.17,22.26,8.23-3.84,48.79-35,48.79-35l-12.24-36.26L864.2,592.62a27.18,27.18,0,0,1-7.41,4.07s-56.72-18-58.81-19.3c-5.89-3.57-17.44-9.73-19.44-9.36-2.67.5-7.11,3,5.64,10.55,0,0-1.39,1.7-6.64,2.68s-25.54,4.13-25.68,5.84-4.55,6.07,23,1.56c0,0,1.65,2.3-.72,2.74s-24.94,4.48-22.17,7,5.93,1.35,23.93-1.69c0,0,1.69,1.68.86,2.14s-22.08,5-21.75,6.81-3.11,4.72,27.16-2.44c0,0,.64,1-2.31,2.42s-16,7.42-12.09,8.39,4.17.14,19.23-7.11C787,607,798.19,602.71,800,602.47Z"/><path class="cls-21" d="M911.69,602.13a4.25,4.25,0,0,0,6-.86L948,560.4l.08-.13c7.78-11.68-1.79-27.12-15.73-25.44l-4.8.58a33.92,33.92,0,0,0-22.36,12.38l-23.81,29.46a1.43,1.43,0,0,0,.25,2Z"/><path class="cls-22" d="M947.92,560.19a18.47,18.47,0,0,0,1.88-6.31,15.92,15.92,0,0,0-.64-6.31,16.15,16.15,0,0,0-7.65-9.39,14.68,14.68,0,0,0-5.8-1.81l-.76-.1a6.57,6.57,0,0,0-.77,0l-1.55,0-3.38.32-1.68.16L926,537c-1.08.16-2.15.37-3.22.61a36,36,0,0,0-6.26,2,27.56,27.56,0,0,0-10.55,8c-2.8,3.55-5.25,7.4-8,11s-5.63,7.09-8.6,10.51c-1.49,1.71-3,3.4-4.56,5.06-.76.83-1.56,1.65-2.34,2.47-.37.42-.9.81-1,1.15a1.18,1.18,0,0,0,.26,1.3l-.18.24a1.66,1.66,0,0,1-.76-1.73,2.41,2.41,0,0,1,.43-.91l.47-.71c.63-.94,1.26-1.89,1.92-2.82,1.29-1.86,2.63-3.69,4-5.51,2.71-3.63,5.49-7.21,8.47-10.62s6.2-6.63,9.15-10.09a43.8,43.8,0,0,1,10.55-8.84,32.35,32.35,0,0,1,6.36-2.9,33.54,33.54,0,0,1,3.41-.9c1.17-.23,2.32-.4,3.43-.56s2.22-.34,3.37-.48l1.85-.12c.3,0,.61-.06.92,0l.93.08a16.27,16.27,0,0,1,7.08,2.14,17.49,17.49,0,0,1,8.38,11.6c.1.6.22,1.19.29,1.79l0,1.82a9.82,9.82,0,0,1-.14,1.79,9.32,9.32,0,0,1-.33,1.75c-.17.58-.33,1.15-.51,1.71s-.5,1.07-.75,1.59l-.39.79-.49.72-1,1.41Z"/><path class="cls-22" d="M899,543.4s-4.19-8.14-7.23-13.89c-1.8,2-3.27,4.14-5.23,6.59C886.54,536.1,894.92,539.89,899,543.4Z"/></g><g id="Patient_Bottom_Side" data-name="Patient/Bottom/Side"><path class="cls-21" d="M891,636.08s-24.13,41.81-63.53,20.24-59.44-38-67.28-34.18S747,638.65,716.23,655s-68,34.34-68,34.34-20.84-22.87-19.57-29.27,52.68-33.82,93.12-67.1c0,0,15.32-22,35.49-19.9l20.59,3.11s15.21-35.13,55.7-12.12l7.65-2.51Z"/><path class="cls-21" d="M891,636.08s-24.13,41.81-63.53,20.24-59.44-38-67.28-34.18S747,638.65,716.23,655s-68,34.34-68,34.34-20.84-22.87-19.57-29.27,52.68-33.82,93.12-67.1c0,0,15.32-22,35.49-19.9L772,576.43l69.21-14.87Z"/><path class="cls-14" d="M583.42,668.17c6.79,11.2,18.16,18.18,24,19.35S618,695,618,695s8.07,11,14.68,6.38a66,66,0,0,0,9.46-8.63c2.67-2.88,4.51-5.18,4.51-5.18-4.83-5.49-19-22.17-18-27.48a26.47,26.47,0,0,1-9,.54c-1-.08-2-.22-3-.37-.84-.15-1.66-.32-2.49-.49-1.07-.24-2.14-.49-3.22-.78-10.91-3-22.13-8.72-29.77-10.69C569.25,645.24,576.63,657,583.42,668.17Z"/><path class="cls-22" d="M648.24,689.35l-1.59-1.77h0c-.81-.92-1.61-1.84-2.39-2.77l0,0L641.88,682l-.73-.89,0,0c-1-1.28-2.06-2.56-3.07-3.85-.43-.55-.86-1.1-1.28-1.66l-.23-.31c-.4-.53-.79-1.07-1.19-1.61h0c-.43-.59-.85-1.18-1.25-1.76l0,0c-.41-.59-.8-1.16-1.18-1.74h0a39.33,39.33,0,0,1-3.54-6.38h0c18.31,4.53,31.89,2.87,40.7.63,29.32-7.43,59.36-34.51,66.63-41.06,7.9-7.12,12.63-12.34,21.44-13.92,11.51-2.06,19.79,3.59,36.51,13.37,15.21,8.9,28.82,16.86,41.42,21a19.92,19.92,0,0,0,23.24-8.13c3.1-5,4.05-11.58-.56-19.72a96.37,96.37,0,0,1-12-46L891,636.08h0v0l0,0-.05.09,0,.07-.11.17,0,.06c0,.08-.12.18-.18.29l-.07.1a3.23,3.23,0,0,1-.18.28.8.8,0,0,1-.09.14l-.23.35-.07.1c-.1.16-.22.33-.34.51l-.1.15c-.1.13-.2.28-.3.43s-.09.13-.14.2l-.34.47-.12.17-.51.69-.11.14-.44.58-.19.25-.44.56-.18.23-.65.8-.1.11c-.19.24-.4.48-.61.73l-.23.27-.54.62-.24.27-.8.88h0c-.27.3-.55.6-.84.89l-.27.28-.65.66-.29.29c-.26.27-.53.53-.81.79a1.85,1.85,0,0,1-.14.14c-.32.31-.65.61-1,.92l-.29.26-.76.67-.35.3-.85.72a2.43,2.43,0,0,1-.25.2c-.36.3-.74.6-1.12.89l-.3.23-.88.67-.4.28-.91.64-.33.23c-.41.28-.83.55-1.26.82l-.28.18-1,.63-.43.25c-.32.19-.65.38-1,.56l-.39.21c-.46.25-.93.49-1.4.72l-.2.1c-.41.2-.82.39-1.24.57l-.46.21c-.36.15-.71.3-1.08.44l-.46.19c-.49.19-1,.38-1.5.55a38.88,38.88,0,0,1-9,2c-.56.06-1.12.1-1.69.13l-.61,0c-.67,0-1.35,0-2,0h-.52a42.14,42.14,0,0,1-4.24-.37l-.53-.07c-.73-.12-1.46-.24-2.2-.39a49.92,49.92,0,0,1-12.21-4.36c-.61-.31-1.22-.63-1.83-1q-5.55-3-10.58-5.91c-2.24-1.28-4.41-2.54-6.51-3.76l-3.08-1.82c-2-1.19-4-2.36-5.87-3.49L796,638.06c-10.5-6.33-18.59-11.28-24.65-14a39.72,39.72,0,0,0-4.17-1.65,18.43,18.43,0,0,0-2.38-.6,7.37,7.37,0,0,0-4.59.37,17,17,0,0,0-2.88,1.85,97.62,97.62,0,0,0-7.19,6.72L749,631.83l-1.06,1-1.13,1A129,129,0,0,1,726.68,649c-.8.5-1.61,1-2.45,1.49q-3.69,2.21-8,4.5l-3.47,1.85-.32.17c-2.34,1.23-4.7,2.47-7.07,3.7l-.28.15-3.57,1.85L697.08,665h0l-4.29,2.19-.22.11-5.7,2.9-2.73,1.38-.25.13-2.5,1.25-.32.16L676,675.71l-.31.15-4.94,2.46c-6.58,3.27-12.19,6-16.17,8l-.73.35-.68.34-4.44,2.15Z"/></g><g id="Seater"><rect class="cls-7" x="949.53" y="493.56" width="40.8" height="173.24" rx="6.54" transform="translate(1383.24 1632.1) rotate(-142.34)"/><rect class="cls-7" x="1035.97" y="443.4" width="40.8" height="49.59" rx="6.54" transform="translate(1606.52 1484.29) rotate(-142.34)"/><path class="cls-23" d="M891.67,728.65,1089.9,471a6.54,6.54,0,0,0-1.2-9.17l-7.25-5.58L891.67,702.92Z"/><rect class="cls-23" x="770.02" y="685.63" width="85.36" height="153.27" rx="6.75" transform="translate(1625.4 1524.53) rotate(-180)"/><path class="cls-7" d="M745,674.83H867.69a27.86,27.86,0,0,1,27.86,27.86V755a0,0,0,0,1,0,0H717.17a0,0,0,0,1,0,0V702.7A27.86,27.86,0,0,1,745,674.83Z" transform="translate(1612.73 1429.86) rotate(-180)"/><rect class="cls-23" x="846.24" y="592.73" width="12" height="67.79"/><path class="cls-6" d="M717.17,704.5H894.52a5.8,5.8,0,0,0,1-.11V674.83H717.17Z"/><rect class="cls-7" x="713.53" y="592.73" width="184.54" height="21.73" rx="6.54" transform="translate(1611.59 1207.19) rotate(-180)"/><rect class="cls-7" x="514.87" y="829.37" width="405.79" height="24.17" rx="6.54" transform="translate(1435.52 1682.9) rotate(-180)"/><path class="cls-7" d="M715.42,691.28H889a6.54,6.54,0,0,0,6.54-6.54V659.53A6.54,6.54,0,0,0,889,653H718.39a21.11,21.11,0,0,0-8.15,1.64L582.52,708a6.54,6.54,0,0,0-3.33,9l9.24,18.48a6.54,6.54,0,0,0,8.29,3.14L713,691.75A6.54,6.54,0,0,1,715.42,691.28Z"/><path class="cls-6" d="M632.7,687.05l-50.18,21a6.54,6.54,0,0,0-3.33,9l9.24,18.48a6.54,6.54,0,0,0,8.29,3.14l36-14.5Z"/><rect class="cls-7" x="547.19" y="603.6" width="69.67" height="233.72" rx="6.65" transform="translate(1164.05 1440.91) rotate(-180)"/></g><g id="Doctor_Botoom_Sitting" data-name="Doctor/Botoom/Sitting"><path class="cls-14" d="M462.92,728.66,467,721.9l24.33,12.22a20,20,0,0,0-1.57,7.89C489.87,746.15,462.92,728.66,462.92,728.66Z"/><path class="cls-17" d="M322.48,579.91S301.13,623.2,341,644s64.65,28.28,65.8,36.94-6.35,20.2-2.88,54.84,9.23,75.61,9.23,75.61,30.6,4.62,35.21,0-1.15-62.59,4-114.7c0,0,9.82-25-3.17-40.57l-11-10.39,64.94-.58s-17.9,19-24,36.08-14.14,41-14.14,41l27.42,13.28s38.67-59.74,51.95-71.58,28.28-45,5.19-54-75.88-20.53-135.33-22.26l-2.17-7.76Z"/><path class="cls-18" d="M408.29,616.08l29.92,29.63,64.94-.58s-17.9,19-24,36.08-14.14,41-14.14,41l27.42,13.28c-3.91-9.52-7.93-23.59-5.1-39.35,6.17-34.32,36.94-47.28,34-60.79C519.06,624.84,496.28,614.83,408.29,616.08Z"/><path class="cls-15" d="M484.44,844.25c-9.24-8.27-31.17-18.66-36.18-32.9-3.83,3.84-25.59,1.3-32.84.33h0s-3.52,11.22-3.71,19.3,0,10.39,0,10.39l13.47,1.73v-3.46s7.88.38,12.12,4.61,16.35,9.82,29.44,9.24S493.67,852.53,484.44,844.25Z"/><path class="cls-24" d="M466.73,853.49c-13.09.58-25.21-5-29.44-9.24s-12.12-4.61-12.12-4.61v3.46l-13.47-1.73s-.19-2.31,0-10.39a66.36,66.36,0,0,1,1.93-12.67c.91-3.81,1.79-6.62,1.79-6.62,7.25,1,29,3.5,32.84-.34a26.21,26.21,0,0,0,4.52,7.75c.62.78,1.3,1.55,2,2.31s1.18,1.2,1.79,1.79c.79.76,1.59,1.51,2.44,2.25,8.53,7.42,19.54,13.55,25.43,18.8C493.66,852.53,479.81,852.91,466.73,853.49Z"/><path class="cls-15" d="M515.1,782.4c-5.8-11-22.79-28.29-22.56-43.38-4.93,2.27-24.47-7.63-30.94-11h0s-7.17,9.31-10.15,16.82-3.59,9.75-3.59,9.75l12,6.28,1.19-3.25s7.27,3.09,9.78,8.53S482.82,781,495.3,784.94,520.91,793.35,515.1,782.4Z"/><path class="cls-24" d="M495.29,784.94c-12.47-4-21.92-13.41-24.43-18.85s-9.77-8.52-9.77-8.52l-1.2,3.25-12-6.28s.62-2.23,3.59-9.75a65.86,65.86,0,0,1,6.19-11.22c2.18-3.26,4-5.59,4-5.59,6.47,3.41,26,13.31,30.93,11a26.31,26.31,0,0,0,1.57,8.83c.31.95.68,1.9,1.06,2.85.35.78.7,1.54,1.07,2.3.47,1,1,2,1.51,3,5.43,9.92,13.65,19.47,17.36,26.44C520.9,793.35,507.77,788.92,495.29,784.94Z"/><path class="cls-18" d="M413.1,811.37l2.36.33h0c1.22.16,2.43.32,3.63.46h.07l3.59.39,1.14.11h0c1.64.16,3.27.29,4.9.41l2.1.14.38,0,2,.09h0l2.16.06h0c.71,0,1.41,0,2.09,0h0a39.62,39.62,0,0,0,7.28-.6h0C431,800.11,424.8,787.9,421.76,779.34c-10.11-28.51-4.29-68.54-2.88-78.22,1.53-10.52,3.24-17.36-.35-25.56-4.68-10.72-14-14.45-31.4-22.92-15.85-7.7-30-14.6-40.47-22.78A19.93,19.93,0,0,1,340.5,606c2.47-5.37,7.39-9.8,16.72-10.49a96.33,96.33,0,0,0,44.88-15.62H322.48v0l0,0,0,.09,0,.07-.09.18,0,.07-.14.31a.37.37,0,0,1-.05.11c0,.1-.08.2-.13.3l-.06.15-.17.39,0,.12q-.12.27-.24.57l-.06.16c-.06.16-.13.32-.19.49l-.09.23c-.07.17-.14.36-.21.55s-.05.12-.07.19c-.09.26-.19.52-.29.8l-.06.17-.23.69c0,.1-.07.19-.1.29s-.15.45-.22.68l-.09.28c-.11.32-.21.65-.31,1,0,0,0,.09,0,.14l-.27.91-.09.34c-.07.26-.15.53-.22.8l-.09.35c-.1.37-.19.76-.29,1.15h0c-.1.39-.19.8-.28,1.2,0,.12-.05.25-.08.38-.06.3-.12.6-.19.9,0,.14-.05.27-.08.41-.07.36-.14.74-.2,1.11,0,.07,0,.13,0,.2-.07.43-.14.88-.21,1.33l-.06.38c-.05.34-.09.67-.13,1l-.06.45-.12,1.11c0,.11,0,.21,0,.32,0,.47-.08,1-.11,1.43l0,.37c0,.37,0,.74-.05,1.11,0,.16,0,.32,0,.49,0,.37,0,.74,0,1.11v.4c0,.5,0,1,0,1.51,0,.1,0,.21,0,.32,0,.41,0,.81,0,1.22l0,.5L317,610c0,.15,0,.3,0,.45q.08.78.18,1.56l0,.22q.09.67.21,1.35l.09.5c.07.38.14.76.22,1.14,0,.16.07.32.11.48.11.52.23,1,.37,1.56a38.62,38.62,0,0,0,3.38,8.58c.26.5.54,1,.83,1.47.11.18.21.36.32.53.35.57.73,1.14,1.12,1.7l.3.43a39.86,39.86,0,0,0,2.66,3.32l.36.4c.49.54,1,1.08,1.54,1.61A49.6,49.6,0,0,0,339.13,643c.59.34,1.2.67,1.82,1q5.61,2.92,10.8,5.51,3.47,1.72,6.74,3.31l3.23,1.56c2.11,1,4.17,2,6.15,2.94l5.76,2.71c11.1,5.21,19.71,9.19,25.37,12.69a40.13,40.13,0,0,1,3.69,2.55,20.2,20.2,0,0,1,1.82,1.64,7.31,7.31,0,0,1,2.24,4,16.11,16.11,0,0,1,.07,3.42c-.2,2.68-.86,5.78-1.59,9.71-.1.52-.19,1-.29,1.58s-.17,1-.25,1.45-.16,1-.24,1.52A128.27,128.27,0,0,0,403,723.74c0,.94.08,1.89.13,2.87.14,2.86.37,5.9.7,9.15.13,1.29.26,2.6.4,3.91l0,.36q.42,3.94.85,7.93l0,.32c.14,1.33.29,2.66.44,4l.57,5v0c.18,1.6.37,3.2.56,4.78l0,.25q.39,3.21.76,6.35c.13,1,.25,2,.37,3l0,.28c.11.94.23,1.86.34,2.78l0,.35c.24,1.93.48,3.82.71,5.65l0,.35c.23,1.88.47,3.71.69,5.47.94,7.29,1.77,13.49,2.37,17.88,0,.27.07.54.11.8s.07.51.1.75c.33,2.42.56,4.11.67,4.89C413.08,811.2,413.1,811.37,413.1,811.37Z"/><path class="cls-25" d="M414.65,814.35a87.16,87.16,0,0,0-2.8,14.24v.09c0,.47-.07.93-.1,1.38,0,.1,0,.2,0,.3s0,.41,0,.62c-.19,8.08,0,10.39,0,10.39l13.46,1.73v-3.46h0s7.88.38,12.12,4.61c4,4,14.87,9.12,27,9.28.81,0,1.62,0,2.44,0,10.17-.45,20.8-.78,20.69-4.8a56.61,56.61,0,0,1-22.63-2.34c-8-2.54-19-6.05-22.32-15.72-2.52-7.42.78-14.72,2.44-17.81a123.3,123.3,0,0,1-29.49-1.13S415.1,812.71,414.65,814.35Z"/><path class="cls-25" d="M459.93,730.24c-2.3,3.22-6.41,9.32-8.48,14.55-3,7.52-3.59,9.75-3.59,9.75l12,6.28,1.2-3.25h0s7.27,3.09,9.78,8.53c2.35,5.09,10.8,13.7,22.13,18,.75.29,1.52.56,2.29.81,10.41,3.32,21.27,6.95,21.21,1.69-6.75-7.77-29.24-11.8-35.51-29.44-3.14-8.84.35-13.88-.57-20.46-2.19-.83-4.47-1.8-6.69-2.8-4.94-2.23-9.56-4.6-12.13-5.95C461.6,728,460.94,728.84,459.93,730.24Z"/></g><g id="Doctor_Torso" data-name="Doctor/Torso"><path class="cls-14" d="M516.06,527.16c2.68-.43,7.71.47-1.79,11.82l.11.06c.45.2,2.47,1,7,.24,5.28-.83,23.07-3.52,26.15-3.08,1.67.23,6.17,4.11-20,9a1.43,1.43,0,0,0-1.12,1.88c.19.47.64.82,1.59.67,2.39-.38,22.78-4.54,23.24-.8.33,2.73-5.13,3.26-23.11,6.42,0,0-2.67,1.35-.09,2.31.89.33,21.43-2.25,22.78-.88s4.51,3.42-26.42,6.81c0,0-.47.42,2.5,1.37,3.15,1,11.9,1.38,14.69,4s-3.88,1.53-20.5-.25l-18,0-.86,0a9.41,9.41,0,0,0,.61-3.06,29.7,29.7,0,0,0-.78-7.58,30.23,30.23,0,0,0-3.64-8.86l-.11-1s1.81-2.23,4.28-5.15C507.26,535.47,514.3,527.43,516.06,527.16Z"/><path class="cls-17" d="M462.48,546.69a6.35,6.35,0,0,1-7-4.78l-17.69-71.63a39,39,0,0,0-11.42-19.94,28.37,28.37,0,0,0-4.79-3.61,1,1,0,0,0-1.51.82l-2.75,58.77,1.42,56c0,.45,0,.9,0,1.35.07,16.28,16.29,27.63,31.86,22.9L504,570.34l-3.75-28.63Z"/><path class="cls-18" d="M503,563.34s-45.79,9.69-60-4.77c-8-8.09-20.67-85.47-20.67-85.47a21.46,21.46,0,0,0-3.2-5.79l-1.83,39,1.42,56c0,.45,0,.9,0,1.35.07,16.28,16.29,27.63,31.86,22.9L504,570.34Z"/><path class="cls-17" d="M425.7,678.84a8.07,8.07,0,0,1-5.95,1.88l-116.93-9.28a8.43,8.43,0,0,1-7.54-10.33l58-222.32,17.13-5c2.49-1.11,3.83-5,4.41-7.25a1.67,1.67,0,0,1,2-1.18l29.37,7.69a1.68,1.68,0,0,1,1.19,2c-.5,1.87-1,4.77.71,5.16l12,5.7a10.89,10.89,0,0,1,7.39,11.78l-.5,4.47c-1.81,16.09-9.13,60.48-8.3,100.11,1,49.19,10.36,94.85,8.12,114.81C426.84,677.32,426.76,677.93,425.7,678.84Z"/><path class="cls-18" d="M408.12,440.27a49.5,49.5,0,0,1-9.27-.06,70.81,70.81,0,0,1-9.17-1.44c-1.52-.34-3-.76-4.5-1.16s-3-.9-4.41-1.5a47.93,47.93,0,0,1-8.36-4c3,.83,5.89,1.77,8.84,2.53s5.89,1.55,8.86,2.19,5.95,1.28,8.95,1.85S405.07,439.75,408.12,440.27Z"/><path class="cls-18" d="M295.28,661.11l.39-1.5L337.1,500.93c7.82-13.39,16.94-7.25,16.92-6.15-1,50.43,67.05,20.74,67.77,19.74-1.2,4.27.85,17.65-5.27,22.66-14.64,12-56.62,24.81-63.17,22.44-.1,0,5.12-17.63,5-17.66-13.26-4.9-17.56-5.28-17.62,8.86-.18,43.13-1,78-1,78,17.81,27.5,69.9,39.15,87.31,46.16a15.68,15.68,0,0,1-.21,2.14c-.65,2.7-4.58,3.78-7,3.7-10.74-.35-57.3-4.66-57.3-4.66l-59.73-4.74A8.43,8.43,0,0,1,295.28,661.11Z"/><path class="cls-14" d="M429,521.48c2.68-.39,7.7.57-1.92,11.81l.11.06c.44.21,2.46,1,7,.32,5.28-.77,23.1-3.27,26.18-2.79,1.67.25,6.12,4.18-20.12,8.73a1.44,1.44,0,0,0-1.14,1.88c.19.47.63.82,1.58.68,2.39-.36,22.83-4.28,23.25-.54.3,2.74-5.16,3.2-23.18,6.16,0,0-2.69,1.33-.12,2.31.89.34,21.46-2,22.79-.62s4.47,3.46-26.5,6.51c0,0-.47.41,2.49,1.4,3.14,1.05,11.89,1.51,14.65,4.15s-3.9,1.48-20.5-.49l-18-.24-.86,0a9.29,9.29,0,0,0,.64-3.06,29.33,29.33,0,0,0-.69-7.58,30,30,0,0,0-3.54-8.91l-.1-1s1.84-2.21,4.34-5.1C420.08,529.7,427.21,521.74,429,521.48Z"/><path class="cls-17" d="M373.37,435.56l-19.05,36-5,57.74L373,549.67l35.3-12.38a4,4,0,0,1,5.22,3.25L416,561.71a4,4,0,0,1-2.22,4c-8,3.82-33.15,15.78-48.49,23.54,0,0-65.21,17.11-62.4.43s1.18-117.4,17.14-134C339.53,435.44,373.37,435.56,373.37,435.56Z"/><path class="cls-18" d="M427.07,675c-8.49-3.42-29.33-16.49-48.44-29a30.08,30.08,0,0,1,.08-50.41l40.23-26.11-.21-8.66-3.17,0c-13,5.94-50.23,28.48-50.23,28.48s-24.71,9.31-39.13-.27a33.05,33.05,0,0,1-9.66-9.4c-6.91-10.39-9.44-27.59-10.05-63.43-2.18,31.37-2.06,64.61-3.56,73.52-.77,4.57-7.63,71.22-7.65,71.4h0a8.33,8.33,0,0,0,7.43,10.32l59.84,4.75s46.56,4.31,57.3,4.66c2.43.08,6.36-1,7-3.7A15.68,15.68,0,0,0,427.07,675Z"/><path class="cls-18" d="M327,450.38h0s33.83,4.94,25.77,59.44a27.19,27.19,0,0,0,5.69,21.49A23.43,23.43,0,0,0,373,539.73h0c0,7.12,0,9.94,0,9.94a139.85,139.85,0,0,1-15.85,1.76c-4.58,2.9-13.91,9.07-17.82,13.57a44.39,44.39,0,0,1,11.51-17.65,5.1,5.1,0,0,1-.19-.5,102.2,102.2,0,0,1-1.68-43S354,458.87,327,450.38Z"/></g></g></svg>