<svg xmlns="http://www.w3.org/2000/svg" viewBox="0 0 1200 900"><defs><style>.cls-1{fill:#eff5f9;}.cls-19,.cls-2,.cls-20,.cls-24{fill:none;}.cls-2{stroke:#c9effb;}.cls-19,.cls-2,.cls-24{stroke-miterlimit:10;}.cls-19,.cls-2{stroke-width:2px;}.cls-3{fill:#54a4cc;}.cls-4{fill:#e3eaf3;}.cls-5{fill:#80cbe8;}.cls-6{fill:#454851;}.cls-7{fill:#9d9f9f;}.cls-8{fill:#396e8e;}.cls-9{fill:#abbcca;}.cls-10{fill:#feaa40;}.cls-11{fill:#ea8826;}.cls-12{fill:#cc7829;}.cls-13{fill:#7c2f13;}.cls-14{fill:#37d6ba;}.cls-15{fill:#0aa68b;}.cls-16{fill:#ea9d7d;}.cls-17{fill:#d18165;}.cls-18{fill:#be3e5f;}.cls-19,.cls-20{stroke:#2f170b;}.cls-20,.cls-24{stroke-linecap:round;}.cls-20{stroke-linejoin:round;stroke-width:6px;}.cls-21{fill:#25beef;}.cls-22{fill:#1a87c4;}.cls-23{fill:#000001;}.cls-24{stroke:#000001;stroke-width:3px;}.cls-25{fill:#c9effb;}</style></defs><g id="operation_theatre" data-name="operation theatre"><g id="Background"><g id="Background2"><path class="cls-1" d="M293.13,757.52c-24.45-18.81-132.32-106.36-143.46-233.06C134,346.7,321.46,235.67,372.88,205.22c117.88-69.83,401.23-175.13,580.87-17.83,143.88,126,132.58,357.75,43.62,490.33C850.77,896.2,487.15,906.7,293.13,757.52Z"/></g></g><g id="Bricks"><rect class="cls-2" x="937.58" y="468.11" width="64.89" height="28.93" rx="2"/><rect class="cls-2" x="937.58" y="525.86" width="64.89" height="28.93" rx="2"/><rect class="cls-2" x="970.03" y="497.04" width="64.89" height="28.93" rx="2"/><rect class="cls-2" x="905.14" y="497.04" width="64.89" height="28.93" rx="2"/><rect class="cls-2" x="225.8" y="611.1" width="64.89" height="28.93" rx="2"/><rect class="cls-2" x="258.25" y="668.85" width="64.89" height="28.93" rx="2"/><rect class="cls-2" x="271.73" y="640.03" width="64.89" height="28.93" rx="2"/><rect class="cls-2" x="206.84" y="640.03" width="64.89" height="28.93" rx="2"/><rect class="cls-2" x="603.2" y="225.66" width="64.89" height="28.93" rx="2"/><rect class="cls-2" x="625.12" y="283.52" width="64.89" height="28.93" rx="2"/><rect class="cls-2" x="649.13" y="254.59" width="64.89" height="28.93" rx="2"/><rect class="cls-2" x="584.24" y="254.59" width="64.89" height="28.93" rx="2"/></g><g id="Operation_Screen" data-name="Operation/Screen"><path class="cls-3" d="M412.66,385.85h-8v-3h8a24,24,0,0,0,23-16.86,185.89,185.89,0,0,0-.5-113.79l-7.34-22.64a24.05,24.05,0,0,0-22.92-16.66h-4.1a24.13,24.13,0,0,0-24.1,24.1h-3a27.13,27.13,0,0,1,27.1-27.1h4.1a27,27,0,0,1,25.77,18.73L438,251.28a188.86,188.86,0,0,1,.5,115.61A27,27,0,0,1,412.66,385.85Z"/><path class="cls-3" d="M181,366.12l-53.59-45.8a42.53,42.53,0,0,1,27.63-74.85h21.58v3H155.05A39.52,39.52,0,0,0,129.37,318L183,363.83Z"/><path class="cls-4" d="M253.21,234.83h80.24a5,5,0,0,1,5,5V394.48a0,0,0,0,1,0,0H248.21a0,0,0,0,1,0,0V239.83A5,5,0,0,1,253.21,234.83Z"/><path class="cls-3" d="M292.33,213.14h2a5,5,0,0,1,5,5v16.69a0,0,0,0,1,0,0h-12a0,0,0,0,1,0,0V218.14A5,5,0,0,1,292.33,213.14Z"/><rect class="cls-5" x="267.95" y="340.68" width="50.76" height="31.67" rx="5"/><circle class="cls-5" cx="293.33" cy="270.84" r="21.11"/><circle class="cls-3" cx="267.3" cy="303.37" r="5.64"/><circle class="cls-5" cx="319.36" cy="303.37" r="5.64"/><circle class="cls-3" cx="319.36" cy="324.77" r="5.64"/><circle class="cls-3" cx="293.33" cy="356.52" r="5.64"/><path class="cls-4" d="M226.67,279.51V244.37H196.3v35.14h0A21,21,0,0,0,182,299.44v95h59v-95a21,21,0,0,0-14.31-19.93Z"/><rect class="cls-5" x="181.98" y="350.88" width="59" height="43.6"/><rect class="cls-3" x="186.97" y="237" width="49.02" height="7.38" rx="3.69"/><path class="cls-3" d="M196.3,244.44h-21a2.41,2.41,0,0,0-2.41,2.41v.68a2.41,2.41,0,0,0,2.41,2.41h2a2.41,2.41,0,0,1,2.41,2.41v5.45a2.41,2.41,0,0,0,2.41,2.41h5a2.41,2.41,0,0,0,2.41-2.41v-5.45a2.41,2.41,0,0,1,2.41-2.41h4.39Z"/><path class="cls-4" d="M360,279.51V244.37h30.37v35.14h0a21,21,0,0,1,14.31,19.93v95h-59v-95A21,21,0,0,1,360,279.51Z"/><rect class="cls-5" x="345.68" y="320.88" width="59" height="73.6"/><rect class="cls-3" x="350.67" y="237" width="49.02" height="7.38" rx="3.69" transform="translate(750.36 481.37) rotate(180)"/></g><g id="Stand"><circle class="cls-6" cx="214.92" cy="816.38" r="21.4"/><circle class="cls-6" cx="367.63" cy="816.38" r="21.4"/><circle class="cls-7" cx="214.92" cy="816.38" r="14.03"/><circle class="cls-7" cx="367.63" cy="816.38" r="14.03"/><rect class="cls-4" x="214.92" y="424.84" width="152.71" height="334.34"/><rect class="cls-3" x="180.67" y="759.18" width="221.21" height="27.48" rx="5"/><rect class="cls-3" x="174.16" y="394.48" width="234.22" height="30.37" rx="5"/><path class="cls-8" d="M180.14,759.18H348a0,0,0,0,1,0,0v27.48a0,0,0,0,1,0,0H180.14a4.48,4.48,0,0,1-4.48-4.48V763.66A4.48,4.48,0,0,1,180.14,759.18Z"/><path class="cls-8" d="M176.57,394.48h51.78a0,0,0,0,1,0,0v30.37a0,0,0,0,1,0,0H176.57a2.4,2.4,0,0,1-2.4-2.4V396.88A2.4,2.4,0,0,1,176.57,394.48Z"/><path class="cls-9" d="M228.34,424.84s12.71,275.4,117.88,334.34H214.92V424.84Z"/></g><g id="Operation_Equipment" data-name="Operation/Equipment"><path class="cls-3" d="M979.86,711,978.78,67.2a6.29,6.29,0,0,0-6.29-6.28H915.1A11.75,11.75,0,0,0,910,62.08l-87.43,42.17-16.8-12.19L906.29,43.34a9.13,9.13,0,0,1,4-.92H988a9.25,9.25,0,0,1,9.25,9.23L998.36,711Z"/><path class="cls-8" d="M989.37,63.75c0-5.1-1.15-13.36-8.72-13.36H910.17c-1.4,0-10.51,4.44-11.76,5L812.62,97l10,7.23L910,62.08a11.75,11.75,0,0,1,5.09-1.16h57.39a6.29,6.29,0,0,1,6.29,6.28L979.86,711h10.6Z"/><ellipse class="cls-4" cx="734.2" cy="153.14" rx="72.52" ry="136.95" transform="translate(304.4 767.78) rotate(-66.82)"/><path class="cls-5" d="M693.25,68.17a186.71,186.71,0,0,1,45.38,4.39q11.13,2.35,22,5.76T781.92,86a276.63,276.63,0,0,1,40.27,20.41c6.39,4,12.59,8.18,18.54,12.72a190.58,190.58,0,0,1,17,14.51,145.49,145.49,0,0,1,14.88,16.46c1.18,1.43,2.18,3,3.28,4.43s2,3.05,3,4.57a95.33,95.33,0,0,1,5.18,9.57,65.38,65.38,0,0,1,3.77,10A56.16,56.16,0,0,1,889.74,189a43.13,43.13,0,0,1-.67,10.29l-.6,2.5c-.18.84-.53,1.63-.79,2.45l-.41,1.23-.51,1.18c-.32.8-.74,1.56-1.12,2.33-3.2,6.14-8.38,11.22-14.38,15.23a72.39,72.39,0,0,1-20.12,8.94,121.38,121.38,0,0,1-22.21,4.14,193.92,193.92,0,0,1-22.9.79,130.63,130.63,0,0,0,46.28-.16,76.66,76.66,0,0,0,22.38-8.13,51.25,51.25,0,0,0,9.87-7.25,44.13,44.13,0,0,0,7.87-9.72c.52-.91,1.07-1.81,1.51-2.77l.7-1.42.6-1.47c.37-1,.83-1.95,1.12-3l.89-3.05a50,50,0,0,0,1.29-12.54,59.43,59.43,0,0,0-1.76-12.3,74.54,74.54,0,0,0-4-11.57,102.34,102.34,0,0,0-12.28-20.67,151.32,151.32,0,0,0-15.82-17.69,204.68,204.68,0,0,0-37.61-28.13c-6.75-3.93-13.67-7.56-20.75-10.82-1.78-.79-3.53-1.63-5.33-2.4l-5.38-2.26c-3.63-1.4-7.25-2.84-10.94-4.09A225.62,225.62,0,0,0,762.33,72a231.46,231.46,0,0,0-22.88-4.28C724.08,65.81,708.41,65.5,693.25,68.17Z"/><path class="cls-5" d="M832.93,217.52c15.72-36.7-18.12-86.39-75.57-111s-116.77-14.8-132.49,21.9c-4,9.37-4.79,19.57-2.78,30-15.45-20.65-21.21-41.83-13.78-59.18,15.77-36.82,84.91-42.53,154.44-12.75s113.11,83.75,97.35,120.57c-6.31,14.73-21.18,24.48-41.19,29A49,49,0,0,0,832.93,217.52Z"/><ellipse class="cls-5" cx="790.2" cy="209.31" rx="15.24" ry="27.07" transform="translate(286.72 853.31) rotate(-66.82)"/><ellipse class="cls-5" cx="747.16" cy="139.21" rx="15.24" ry="27.07" transform="matrix(0.39, -0.92, 0.92, 0.39, 325.07, 771.24)"/><ellipse class="cls-5" cx="661.06" cy="146.24" rx="15.24" ry="27.07" transform="translate(266.4 696.36) rotate(-66.82)"/><ellipse class="cls-5" cx="714.63" cy="194.81" rx="15.24" ry="27.07" transform="translate(254.23 775.05) rotate(-66.82)"/><rect class="cls-4" x="938.24" y="641.76" width="102.96" height="112.79"/><rect class="cls-3" x="906.72" y="617.46" width="166.01" height="24.29" rx="5"/><rect class="cls-3" x="898.33" y="754.55" width="182.79" height="37.02" rx="5"/><circle class="cls-6" cx="913.37" cy="816.38" r="21.4"/><circle class="cls-6" cx="1066.08" cy="816.38" r="21.4"/><circle class="cls-7" cx="913.37" cy="816.38" r="14.03"/><circle class="cls-7" cx="1066.08" cy="816.38" r="14.03"/></g><g id="Blood_Bottle" data-name="Blood/Bottle"><path class="cls-3" d="M621.07,296.81h-9.88c-3.09,0-6.5-1.27-9.87-3.67A25.37,25.37,0,0,1,592,279.69l-2.46-8.24A22.4,22.4,0,0,0,568,255.37H540.59a22.57,22.57,0,0,0-21.28,15.1l-2.83,8.07a26.3,26.3,0,0,1-14.73,15.7c-2.35,1-6.77,2.57-10,2.57h-3.36a20.24,20.24,0,0,1-20.22-20.22v-5a20.24,20.24,0,0,1,20.22-20.22h9.44a2,2,0,1,1,0,4h-9.44a16.24,16.24,0,0,0-16.22,16.22v5a16.23,16.23,0,0,0,16.22,16.22h3.36a26.55,26.55,0,0,0,8.51-2.27,22.3,22.3,0,0,0,12.48-13.32l2.82-8.08a26.57,26.57,0,0,1,25.06-17.77H568a26.38,26.38,0,0,1,25.43,18.93l2.46,8.24a21.38,21.38,0,0,0,7.77,11.34,13.58,13.58,0,0,0,7.55,2.93h9.88a16.24,16.24,0,0,0,16.22-16.22v-5a16.24,16.24,0,0,0-16.22-16.22h-7.4a2,2,0,0,1,0-4h7.4a20.24,20.24,0,0,1,20.22,20.22v5A20.24,20.24,0,0,1,621.07,296.81Z"/><path class="cls-3" d="M493.43,607.32a2,2,0,0,1-2-2V294.88a2,2,0,0,1,4,0V605.32A2,2,0,0,1,493.43,607.32Z"/><rect class="cls-3" x="480.98" y="326.62" width="24.91" height="20.6" rx="6.02"/><rect class="cls-10" x="464.14" y="334.21" width="58.55" height="69.4" rx="6.02"/><path class="cls-11" d="M522.69,397.58V340.23a6,6,0,0,0-6-6H504.59a51.48,51.48,0,0,1,1.12,19.87c-.74,5.24-2.36,15.7-10.85,24.58a35.19,35.19,0,0,1-30.72,11.15v7.77a6,6,0,0,0,6,6h46.5A6,6,0,0,0,522.69,397.58Z"/><path class="cls-3" d="M616.93,607.32a2,2,0,0,1-2-2V294.88a2,2,0,0,1,4,0V605.32A2,2,0,0,1,616.93,607.32Z"/><rect class="cls-3" x="604.47" y="403.71" width="24.91" height="20.6" rx="6.02"/><rect class="cls-10" x="587.64" y="411.3" width="58.55" height="69.4" rx="6.02"/><path class="cls-11" d="M646.19,474.67V417.33a6,6,0,0,0-6-6H628.08a51.34,51.34,0,0,1,1.12,19.88c-.74,5.23-2.36,15.7-10.84,24.58a37.53,37.53,0,0,1-17.71,10.48,37.91,37.91,0,0,1-13,.67v7.76a6,6,0,0,0,6,6h46.5A6,6,0,0,0,646.19,474.67Z"/><rect class="cls-3" x="545.52" y="225.73" width="15.6" height="612.13" rx="7.8"/></g><g id="Doctor_Bottom" data-name="Doctor/Bottom"><path class="cls-12" d="M818.34,837.67c4.09-13.84,22.27-38.41,18.58-55.86,6.1,1.68,23.11-12.45,29.66-17.67h0s10.25,9.39,15.33,17.53,6.29,10.61,6.29,10.61L876,801.91l-2.09-3.54s-7.53,5-9.14,11.79-10.16,19.56-23.39,26.61S814.26,851.5,818.34,837.67Z"/><path class="cls-4" d="M866.58,764.14h0s10.25,9.39,15.33,17.53c1.19,1.91,2.16,3.49,3,4.82-4.34,3.34-9.77,6.76-9.56,2.77.34-6.61-11.45-23-11.45-23Z"/><path class="cls-4" d="M817.69,840.74a17,17,0,0,1,.65-3.07c1.72-5.83,5.43-13.35,8.87-21.41a30.61,30.61,0,0,1,18.24-.93c5.36,1.48,9.78,7.06,11.24,7.47-.73,5.51-35.06,24.65-38,21.85l-.1-.1A5.73,5.73,0,0,1,817.69,840.74Z"/><path class="cls-13" d="M841.36,836.77c-10.62,5.65-21.65,11.71-23.47,6.73C855,832.38,860,811.65,860,806.32s5.51-9.1,5.51-9.1c10.4-6.33,14-13.1,15.15-17.39.43.62.85,1.24,1.23,1.84,5.08,8.14,6.29,10.61,6.29,10.61L876,801.91l-2.09-3.54s-7.53,5-9.14,11.79S854.59,829.72,841.36,836.77Z"/><path class="cls-14" d="M734,505.49S718.4,644,717.91,656.23s6.59,139.13,6.59,139.13,19,7.64,32.63,2.44c0,0,10.74-97.31,9.11-122l3.58-46.87s2.93,39.06,5.86,43.61,59.88,111.63,59.88,111.63,32.54-14.65,32.54-18.88c0,0-18.87-78.1-43-99.91q-.15-45.32-.32-90.63a90.78,90.78,0,0,0,5.86-43,89.79,89.79,0,0,0-7.32-26.85S753.54,515.26,734,505.49Z"/><path class="cls-15" d="M768.68,613.76c-2.61-30-8-58.77-9.76-58.58-1.35.14,0,15.07.49,49.31.36,27.92-.2,46.68-1,73.22-1.53,51.8-3.61,60.69-5.83,67.85a139.26,139.26,0,0,1-28.1,49.8c6.4,2.88,16.78,6.19,28.37,3.63a39.41,39.41,0,0,0,4.26-1.19s10.74-97.31,9.11-122l3.47-45.36C769.57,625.84,769.3,620.84,768.68,613.76Z"/><path class="cls-15" d="M843.89,734.58c-4-21.45-16.14-25.68-26.13-50.79-6-15.11-6.7-32.47-8.09-67.17-2.13-53.22,3.48-57.29-3.53-70.23-18.47-34.07-72.88-35.2-72.13-40.9,21.09,7.25,79.62.66,88.27-.45h0l.7-.1h.23l.11,0a89.79,89.79,0,0,1,7.32,26.85,90.78,90.78,0,0,1-5.86,43q.16,45.31.32,90.63c24.09,21.81,43,99.91,43,99.91q-1.12,1.46-2.43,2.88c-6.54,5.06-24.4,13.38-29,15.49l-.09,0-.09,0-.24.11-.14.06-.09,0-.14.06,0,0-.26.12C841.34,772.24,847.61,754.38,843.89,734.58Z"/><path class="cls-4" d="M789.55,517.67q.47,9,.84,18l.78,18,1.3,36.09c.42,12,.75,24.06,1.1,36.09l.91,36.1-.14-.59c4.5,9.72,9,19.42,13.49,29.16s8.94,19.47,13.33,29.24l13.2,29.3c4.32,9.8,8.71,19.57,12.95,29.42-4.82-9.58-9.47-19.22-14.21-28.83l-14-29c-4.67-9.64-9.25-19.32-13.83-29s-9.11-19.38-13.67-29.08l-.13-.27v-.32l-.82-36.1c-.22-12-.46-24.07-.62-36.1l-.42-36.11-.09-18.06Q789.5,526.7,789.55,517.67Z"/><path class="cls-4" d="M826.42,512.68a99.33,99.33,0,0,1-11.42,3c-3.85.8-7.74,1.45-11.65,2s-7.82,1-11.74,1.27c-2,.19-3.93.3-5.9.39s-3.93.23-5.9.28c-7.87.2-15.75.13-23.61-.37-3.92-.18-7.84-.64-11.75-1s-7.8-1-11.69-1.62c3.94,0,7.86.1,11.78.15l5.87.05c2,0,3.91.09,5.87.06s3.91,0,5.87,0,3.9,0,5.86-.06c3.9,0,7.8-.12,11.71-.23,1.95,0,3.9-.14,5.85-.21l2.92-.12,2.93-.17c3.9-.16,7.79-.49,11.68-.77C810.88,514.69,818.66,513.93,826.42,512.68Z"/><path class="cls-12" d="M679,827.15c10.89-8.34,38.61-17,45.55-32.51,3.74,4.71,24.72,3.38,32.67,3h0s2.62,13,2,22.05-1.11,11.67-1.11,11.67l-14.77.56.37-3.89s-8.58-.38-13.62,3.93-18.76,9.34-32.86,7.34S668.1,835.49,679,827.15Z"/><path class="cls-4" d="M757.2,797.68h0s2.62,13,2,22.05c-.15,2.13-.29,3.89-.42,5.35-5.21.14-11.29-.27-8.9-3.22,4-4.89,4.08-24.06,4.08-24.06Z"/><path class="cls-4" d="M676.76,829.15a16.32,16.32,0,0,1,2.22-2c4.59-3.51,11.64-7.21,18.8-11.48a29.14,29.14,0,0,1,14.53,9.5c3.29,4.13,3.56,10.89,4.46,12-3.65,3.83-40.74-.7-41.45-4.51a.59.59,0,0,1,0-.13A5.36,5.36,0,0,1,676.76,829.15Z"/><path class="cls-13" d="M697.17,839.34c-11.33-1.6-23.19-3.11-21.8-8,34.73,12.24,50.18-.88,53.18-5s9.32-3.91,9.32-3.91c11.54,1,18.06-2.25,21.38-4.87,0,.71,0,1.42-.09,2.1-.65,9.09-1.11,11.67-1.11,11.67l-14.77.56.37-3.89s-8.58-.38-13.62,3.93S711.27,841.34,697.17,839.34Z"/></g><g id="Doctor_Head_Female" data-name="Doctor/Head/Female"><circle cx="802.03" cy="351.45" r="24.98"/><path d="M771.78,356.09c30,7,37.07-8.45,37.92-21.44s-4.11-34.75-23.05-41.82S710.74,341.87,771.78,356.09Z"/><path class="cls-16" d="M769.87,291.5c12.4,2.42,20,18.21,18.25,36.54h.1c3.39.66,5.39,5,4.46,9.77s-4.41,8-7.8,7.37a4.6,4.6,0,0,1-1.3-.47c-6.88,13.88-20.25,21.61-31.25,19.46-13.66-2.66-18.49-19.51-14.47-40.14S756.22,288.84,769.87,291.5Z"/><path class="cls-16" d="M756.68,375c.62-2.21-2-7.6-3.6-10.72,10.85,1.67,23.77-6,30.5-19.56a4.6,4.6,0,0,0,1.3.47s1,28.21,7.17,28.56c7.14,6.14,30.5,26.9,25.75,36.53-4,8.08-25.56,3.91-57.72-2.3a16.18,16.18,0,0,1-8.39-4c-6.74-6.44-4.9-18-4-20.61C749,380,755.77,378.2,756.68,375Z"/><path class="cls-17" d="M785.79,356.43c-.72-6-.91-11.24-.91-11.24a4.6,4.6,0,0,1-1.3-.47c-6.73,13.57-19.65,21.23-30.5,19.56a48.41,48.41,0,0,1,3.13,7.06l.83.2C766.83,373.44,778.49,367.53,785.79,356.43Z"/><path class="cls-18" d="M756.37,349.6a83,83,0,0,0-11.3,1.54s.38-5.36,4.85-6S756.37,349.6,756.37,349.6Z"/><path class="cls-17" d="M746.79,322.71a19.6,19.6,0,0,1,.12,6.26,10.42,10.42,0,0,1-.92,3.18c-.28.57-.55.93-.81,1.38s-.51.84-.73,1.26a5.42,5.42,0,0,0-.8,2.36,1.08,1.08,0,0,0,.29.81,2.87,2.87,0,0,0,.94.64,23.7,23.7,0,0,0,5.84,1,12.37,12.37,0,0,1-6.34.45,3.8,3.8,0,0,1-1.68-.88,3,3,0,0,1-.94-1.92,6.41,6.41,0,0,1,.93-3.44c.26-.48.54-.94.83-1.37s.62-.9.82-1.23a11.3,11.3,0,0,0,1-2.6C745.94,326.74,746.34,324.74,746.79,322.71Z"/><path d="M764.91,320a45.52,45.52,0,0,1-6-.58,19,19,0,0,1-2.83-.73c-.95-.29-1.83-.74-2.84-1.15a6.91,6.91,0,0,0,2.33,2.23,9,9,0,0,0,3.06,1.15,10.44,10.44,0,0,0,3.25.08A8,8,0,0,0,764.91,320Z"/><path d="M739.73,316.93c-.16.48-.32,1-.47,1.46l.15,0a10.67,10.67,0,0,0,3.24.07,8,8,0,0,0,3.05-1A44.62,44.62,0,0,1,739.73,316.93Z"/><path d="M740.46,330.27a1.53,1.53,0,0,0,1.8-1.21l.86-4.4a1.53,1.53,0,0,0-3-.58l-.86,4.4A1.53,1.53,0,0,0,740.46,330.27Z"/><path d="M755.88,331.21a1.53,1.53,0,0,0,1.8-1.21l.85-4.4a1.53,1.53,0,0,0-3-.58l-.86,4.4A1.53,1.53,0,0,0,755.88,331.21Z"/><path class="cls-17" d="M788.34,332.25a4.8,4.8,0,0,1,1.8,2.35,5.43,5.43,0,0,1,.23,3.07A5.57,5.57,0,0,1,789,340.4a5.82,5.82,0,0,1-1.15,1,6.74,6.74,0,0,1-1.35.59c.19-.48.44-.86.64-1.27s.42-.77.57-1.16a10.54,10.54,0,0,0,.75-2.24A13.74,13.74,0,0,0,788.34,332.25Z"/><path d="M742.69,309.78s6.27-9.76,8.1-7.58,5.31,8.07,17.23,7.44c0,0,8,10.4,9.64,22.6s10.56-4.19,10.56-4.19,11.39-28.41-.92-35.16-24.64-6.91-36.94,0S742.69,309.78,742.69,309.78Z"/><path class="cls-17" d="M792.05,373.75c-3.73-.21-5.58-10.78-6.45-19l-5.47,2.45L775.44,367s8.95,2,4.69,11.19c-3.83,8.3-14,27.12-28.7,25.51,2.13,1.18,5.07,2.7,8.65,4.26,23.55,10.24,55.68,13.48,60.36,4.22S801.74,382,792.05,373.75Z"/><path class="cls-14" d="M774.47,321.11s-16.29-8.7-33.28-8.85c0,0-5.23-20.08,20.69-24s48.3,15.09,47.91,39.29c0,0-6,10.58-17.11,10.31S784,322.21,774.47,321.11Z"/><path class="cls-15" d="M741,311.33a4.93,4.93,0,0,1,1.38-1.11,5.41,5.41,0,0,1,1.89-.54c1.56-.27,2.46-.42,3,.09s.13.67.54,1.17a2,2,0,0,0,2.16.63c.6-.28.42-.85,1.08-1.26a2.12,2.12,0,0,1,2.07,0c.66.38.48.86,1.17,1.53a4,4,0,0,0,2.61,1c1.32,0,1.55-.67,2.43-.45s.74.88,2.07,2.07c2.16,1.93,2.78,1.84,3,1.8.79-.18.91-1.1,1.8-1.17a2,2,0,0,1,1.26.45c1.3.78,1.43,1.55,2.16,2,.54.31,1.5.5,3.33-.36,0,0,1.87-.6,2.43,0s-.49,1.64.09,2.52a2.07,2.07,0,0,0,1.53.72c1.34.08,2.18-.62,3-.71.44,0-.26.77.19,1.79.18.4.6,1.35,1.35,1.53,1,.23,1.71-1,2.34-.63.47.24.22,1.06.72,1.26.68.27,1.25-.7,2-.63,1.43.13,1.27,4,3.06,5.13,2.16,1.32,6.41-1.94,7.38-2.7,6.4-5.09,7.73-11.61,9.54-14.05a37.69,37.69,0,0,1,3.33,16.13s-6,10.58-17.11,10.31-8.65-15.61-18.21-16.71c0,0-16.29-8.7-33.28-8.85C741.19,312.26,741.1,311.92,741,311.33Z"/><path class="cls-15" d="M778.59,320.13s-.15,1.79.74,2.31a29.25,29.25,0,0,1,2.73,2.09s3.65-.94,5.43-6.76a24.73,24.73,0,0,0,.73-6.46.67.67,0,0,0-1.28-.28C785.48,314.3,782.66,319.2,778.59,320.13Z"/><path class="cls-15" d="M769,317.62s.51,1.45,1.53,1.58a28.1,28.1,0,0,1,3.33.84s3-2.31,2.32-8.36a24.64,24.64,0,0,0-1.88-6.19.67.67,0,0,0-1.28.25C773,309.4,772.36,315.14,769,317.62Z"/><path class="cls-15" d="M753.9,311.43s-.88,1.27-1.89,1.12-4.11-.29-4.11-.29-1.61-2.78.62-8.43a24.42,24.42,0,0,1,3.42-5.49.66.66,0,0,1,1.17.57C752.19,302.45,751.29,308.16,753.9,311.43Z"/></g><g id="Doctor_Torso" data-name="Doctor/Torso"><path class="cls-16" d="M649.6,487.82l-10.32.42s-2.25-1.79-5.3-4.11c-5.75-4.4-14.37-10.72-16.14-10.61-2.71.16-7.42,2.13,4.3,11.16l-.09.08c-.39.29-2.2,1.48-6.83,1.76-5.33.33-23.28,1.55-26.2,2.64-1.58.6-5.13,5.36,21.48,4.42a1.44,1.44,0,0,1,1.51,1.6c-.09.5-.45.93-1.41,1-2.42.15-23.22.5-22.86,4.26.26,2.74,5.7,2.06,24,1.26,0,0,2.9.75.59,2.23-.8.52-21.42,2.44-22.43,4.08s-3.67,4.31,27.26.92c0,0,.55.32-2.14,1.89-2.86,1.67-11.32,3.92-13.48,7.06s4.11.66,20-4.68l22.28-2.82c14.72,2.07,69.85,6.77,83.54-7.45C740.1,489.6,747,442,747,442l-31.37-1.06-13.14,35.55A6.91,6.91,0,0,1,697,480.9L647.68,488"/><path class="cls-19" d="M621.82,484.73s4.32,16.18,19.08,11.71"/><path class="cls-14" d="M710.25,443.19l12-37.55a39,39,0,0,1,13-19,27.7,27.7,0,0,1,5.06-3.22,1,1,0,0,1,1.44.94l-1.91,58.8L735.85,490a25.84,25.84,0,0,1-27.34,24.9l-59.42-2.64.51-24.39,42.93-11.16A10.92,10.92,0,0,0,700,470Z"/><path class="cls-15" d="M741.27,396.85a3.27,3.27,0,0,0-2.06-1c-1.09,0-3.68.42-8.16,9.84a59.88,59.88,0,0,0-4.34,11.52c-4.18,19.66-6.13,54.23-14.12,69.09-5.85,10.87-21.07,22.6-63.46,24.15l0,1.77,59.42,2.64A25.84,25.84,0,0,0,735.85,490L739,452.31c-1.26-3.51-2.42-6.63-3.35-9.12h4.11Z"/><path class="cls-16" d="M885.74,577.52A23.27,23.27,0,0,1,885,572c-.23-15.56-1.72-74.95-10.68-102-2.86-8.63-29.07-52.54-29.07-52.54l-37.43,7.92,33,54.79A27.1,27.1,0,0,1,844,488l20.11,85.65a8.07,8.07,0,0,1-1.48,6.81c-4.23,5.43-12.61,16.47-12.48,18.49.18,2.71,2.19,7.41,11.14-4.37,0,0,1.53,1.58,1.88,6.91s1.13,25.84,2.81,26.18,5.49,5.23,4.23-22.65c0,0,2.48-1.38,2.64,1s1.54,25.29,4.4,22.84,2-5.73,1.12-24c0,0,1.87-1.49,2.23-.61s2.41,22.52,4.22,22.4,4.32,3.64.74-27.26c0,0,1-.53,2.14,2.57s5.5,16.72,6.92,13,.63-4.13-4.81-19.94l-4-17.57Z"/><path class="cls-17" d="M807.83,425.38l8.83-1.87c6.6,8.38,14.8,14.46,25.48,30.1,8.33,12.19,13.72,24.59,16.11,29.83,6.56,14.36,5.23,21.69,9.6,57.12,2.63,21.28,3.94,31.91,5.32,37.48,0,0,8.08,37.13,5.06,49.72a1.7,1.7,0,0,1-1,1.13c-2.86,2.45-4.24-20.43-4.4-22.84s-2.64-1-2.64-1c1.26,27.88-2.54,23-4.23,22.65s-2.45-20.76-2.8-26.14h0v0c-.35-5.33-1.88-6.91-1.88-6.91-8.95,11.78-11,7.08-11.14,4.37-.13-2,8.25-13.06,12.48-18.49a8.07,8.07,0,0,0,1.48-6.81L844,488a27.1,27.1,0,0,0-3.18-7.83Z"/><path class="cls-14" d="M717.77,614.51a8.09,8.09,0,0,0,5.79,2.34H840.85a8.44,8.44,0,0,0,8.34-9.7L809,380.94l-16.68-6.32c-2.39-1.3-3.42-5.3-3.82-7.58a1.66,1.66,0,0,0-1.94-1.33l-29.88,5.34a1.66,1.66,0,0,0-1.34,1.94c.34,1.9.58,4.83-1.12,5.09l-12.44,4.73a10.88,10.88,0,0,0-8.3,11.15l.14,4.5c.48,14.65,3.84,65.29.35,100.45-5.14,51.9-17.88,92.2-17.17,113.81C716.76,612.9,716.79,613.52,717.77,614.51Z"/><path class="cls-14" d="M888.75,571.61c1.42-1-3.4-57-8.16-87.86-1.67-10.83-6.77-27.38-12.72-36.58,0,0-19.53-33.64-32.4-48.48-4.6-5.31-13.14-15-26.52-17.75l-7.62,39.74,37.38,61.65c.42.63,21.93,89.72,22.55,89.28Z"/><path class="cls-15" d="M802.51,418.58a2.44,2.44,0,0,0-.93,2l-.06.39,16.35,27h0l20.84,34.37c.42.63,21.93,89.72,22.55,89.28h10l-.06-.26c-13.09-58.61-19.67-88-21.78-93.22C835.3,443.42,807.37,415.89,802.51,418.58Z"/><line class="cls-20" x1="649.05" y1="487.82" x2="649.05" y2="510"/><path class="cls-15" d="M849.19,607.15l-.28-1.53L820.17,444.17c-6.74-14-15.33-26.45-17.66-25.59-2,.74-.93,10.09-1,11.19-3,50.35-66.21,22.29-66.85,21.24.85,4.35,2.94,11.25,8.64,16.74,13.65,13.13,36.33,6.87,43.05,5l.32-.08a20.3,20.3,0,0,1,25.91,20.92c-3.24,43-26.08,72.84-26.08,72.84-19.93,26-51.89,38.51-69.8,44.12a16.86,16.86,0,0,0,0,2.15c.44,2.74,4.26,4.13,6.69,4.24,10.73.51,57.49-.11,57.49-.11h59.92A8.44,8.44,0,0,0,849.19,607.15Z"/><path class="cls-15" d="M754.17,378.08c3.08-.28,6.12-.56,9.16-.89s6-.68,9.06-1.13,6-.92,9-1.48,6-1.24,9-1.82a49.57,49.57,0,0,1-8.65,3.34c-1.48.48-3,.76-4.51,1.14s-3,.58-4.58.8a71.73,71.73,0,0,1-9.25.71A49.36,49.36,0,0,1,754.17,378.08Z"/></g><g id="Patient_Bottom_Side" data-name="Patient/Bottom/Side"><path class="cls-16" d="M916.52,565.36c1.15,14.1-4.39,27.41-8.79,32.14-3.12,3.36-3.47,8.47-3.41,11.15a22.91,22.91,0,0,1-.48,5.48c-1,4.48-3.49,11.45-9.41,11.53-4.37.06-6.7-1.51-10.84-2.33s-10.72-4.25-10.72-4.25c.74-7.86,4-27.81-.32-31.8,2.91-1.14,4.84-3.24,7.41-5.49.82-.7,1.62-1.46,2.41-2.24.63-.66,1.25-1.32,1.87-2,.78-.87,1.56-1.77,2.32-2.72,7.67-9.5,13.84-21.64,19.29-28.2C914.41,536.32,915.38,551.26,916.52,565.36Z"/><path class="cls-21" d="M580.87,553.26s139.36-3.64,151.56-3.07,141.46,36.49,141.46,36.49,6,19.55-.38,32.72c0,0-103.82-10.23-128.33-14l-44.45-5.87s-98,34.27-117,30.51a89.22,89.22,0,0,1-26.12-9.61S588.91,573.55,580.87,553.26Z"/><path class="cls-22" d="M583.72,630.06a89.22,89.22,0,0,1-26.12-9.61s31.31-46.9,23.27-67.19l4.87-.13a46.74,46.74,0,0,0,8.8,20.47c13,17.29,34,21.72,39,22.62,25.42,4.62,36-9.5,65.74-13.23a104.24,104.24,0,0,1,14.84-.49,254.77,254.77,0,0,1,64.51,8.3c19.12,4.7,49.35,15.31,97.68,9.83.4,6,0,13-2.8,18.77,0,0-103.82-10.23-128.33-14l-39.83.74S602.75,633.82,583.72,630.06Z"/></g><g id="Patient_Head_Male_Side" data-name="Patient/Head/Male/Side"><path class="cls-16" d="M381.1,536.89a37.35,37.35,0,0,1,5.91.69c11.37,2.2,13.06,4,22.37-1.14,0,0,8.72-3.19,6.48,5.44,0,0,.91,1,4.57,1.79,3.49.8,21.41.56,10.81,23.87a3,3,0,0,0,2.39,4.2l30.51.75-7.26,31.17-53.59-13s.46-8.56.69-9.63c0,0-14.87,5.68-14.46-2.72s8-8,8-8l.37-3.12L375.19,562Z"/><path class="cls-23" d="M404.51,591.83l10,1.42s-5.36-7.74-7.37-11.37a2.28,2.28,0,0,0-2.71-1.07c-4.52,1.44-15.24,4.17-14.91-2.46s8-7.19,11.35-7.15a1.7,1.7,0,0,0,1.72-1.49v0a1.69,1.69,0,0,0-1.32-1.86L388.08,565a13.14,13.14,0,0,1-9.86-15.82l2-8.44a4.54,4.54,0,0,1,5.09-3.45h0c-4.66-3.13-10.09-1-11.92-.32-11.53,4.61-14.4,18.51-15,21.51-1.71,8.32-1.08,20.65,4.71,23.64,1.43.74,5.19,2.59,5.19,2.59s.16,5,1.94,7.16c3.3,4,12.74,3.08,24.42,1.88C400.12,593.17,403,592.46,404.51,591.83Z"/><path class="cls-23" d="M390.25,552.56c-.37-2.47-.43-4.76-.56-7.07l-.17-3.45c0-1.17-.17-2.32-.17-3.59a9.9,9.9,0,0,1,1.71,3.3,14.11,14.11,0,0,1,.63,3.64,16.11,16.11,0,0,1-.24,3.67A11.72,11.72,0,0,1,390.25,552.56Z"/><line class="cls-24" x1="395.2" y1="546.57" x2="401.84" y2="548.04"/><path class="cls-18" d="M421.7,550.67c-1-1.47-2.35-6.6-1.6-7.08l.33.08a52.46,52.46,0,0,1,6.12,1.18C426.57,547.93,421.73,550.71,421.7,550.67Z"/><path class="cls-17" d="M394.77,574.47a5.77,5.77,0,0,0-1.75,3.24,1.64,1.64,0,0,0,.6,1.37,3.27,3.27,0,0,0,1.59.54,11.53,11.53,0,0,0,3.74-.18,8.64,8.64,0,0,0,1.81-.56,2.77,2.77,0,0,0,1.49-1.14,2.73,2.73,0,0,1-1.25,1.57,7.14,7.14,0,0,1-1.85.88,9.35,9.35,0,0,1-4.08.42,4,4,0,0,1-2.06-.8,2.41,2.41,0,0,1-.77-2.17A4.89,4.89,0,0,1,394.77,574.47Z"/><path class="cls-17" d="M461.34,578.64c-2,4.74-25.69,8-34.33,7.8s-8.45-3.9-8.45-3.9c5.41-2.78,12.43-14.1,12.43-14.1h0a3,3,0,0,0,2.63,3.31l27.05.4C461.59,574.4,462.1,576.8,461.34,578.64Z"/></g><g id="Patient_Torso_Side" data-name="Patient/Torso/Side"><path class="cls-21" d="M550.28,554.59c-37.81-4.38-37.58-17.26-60.59-9-11.35,4.07-39,22.43-44,26.66,6.08.41,9.18-.25,11.35.4,3.25,1-5.19,10.52-19.31,26.54a17.59,17.59,0,0,1,4.87,2.11,15,15,0,0,1,3.95,4.25A34.16,34.16,0,0,0,464,619.36,150.52,150.52,0,0,0,479.62,624a231.65,231.65,0,0,0,40.62,5.37c12.89.45,21.08-.5,35.25,2.7,8.11,1.82,9.37,3,11.92,2.45,7.88-1.76,15.59-17.6,16-77a4.22,4.22,0,0,0-5.73-4C565.42,556.26,562.73,556,550.28,554.59Z"/><path class="cls-22" d="M582.46,593.52l-2.86,26.25a76.48,76.48,0,0,1-3.55,13.58c-8.86,1.42-44,.74-46.42.14l-50.16-12.88A23.37,23.37,0,0,1,465.33,611c-4.76-7-8.18-17.71,3.32-28.25l5.78-3.66a37.29,37.29,0,0,1,27.63-5l39.47,7.35c3.21.34,4.38-1.47,6.36,1.07a5,5,0,0,0,2,1.78,103.18,103.18,0,0,0,32.9,3.59C582.66,589.85,582.56,591.72,582.46,593.52Z"/><path class="cls-16" d="M667.21,588.51a23.75,23.75,0,0,0-5.39,1.33c-14.57,5.49-70.37,25.87-98.83,27.45-9.08.5-59.54-7.79-59.54-7.79l-6.35-37.74,63.06,10.61a27.28,27.28,0,0,0,8.46.09l87-12.67a8.07,8.07,0,0,0,5.8-3.89c3.5-5.92,10.7-17.76,12.63-18.37,2.59-.83,7.7-.69,0,12,0,0,2,.84,7.13-.78s24.45-8.42,25.39-7,6.87,3.19-19.53,12.24c0,0-.38,2.81,1.92,2.07s24.1-7.83,22.86-4.27-4.58,4-21.88,9.82c0,0-.7,2.28.25,2.29s21.84-6,22.39-4.28,5,2.69-25.09,10.69c0,0-.12,1.14,3.18,1s17.57-1,14.62,1.68-3.61,2.09-20.31,2.82l-17.83,2.68Z"/><path class="cls-21" d="M533.25,615.78a4.26,4.26,0,0,1-5.2,3.13l-49.29-12.53-.14,0c-13.42-4.13-15.76-22.14-3.9-29.66l4.09-2.58A33.91,33.91,0,0,1,504,569.54L541,577.32a1.43,1.43,0,0,1,1.09,1.73Z"/><path class="cls-22" d="M478.57,606.48l-1.66-.46-.84-.25-.8-.36c-.52-.25-1.07-.49-1.59-.76s-1-.66-1.47-1a9.3,9.3,0,0,1-1.36-1.15,10.94,10.94,0,0,1-1.25-1.3l-1.11-1.43c-.33-.51-.61-1-.91-1.58a17.47,17.47,0,0,1-.84-14.28,16.38,16.38,0,0,1,4.13-6.14l.67-.64c.23-.21.5-.37.74-.56l1.51-1.07c1-.62,1.94-1.17,2.92-1.76s2-1.18,3-1.74a31.85,31.85,0,0,1,3.21-1.45,33.45,33.45,0,0,1,6.77-1.78,43.78,43.78,0,0,1,13.76.18c4.47.82,9,1.29,13.47,2s8.88,1.79,13.28,2.88c2.2.55,4.39,1.12,6.57,1.75,1.1.3,2.18.64,3.27,1l.81.25a2.5,2.5,0,0,1,.91.43,1.64,1.64,0,0,1,.5,1.82L542,579a1.18,1.18,0,0,0-.62-1.17,7.57,7.57,0,0,0-1.53-.24c-1.12-.13-2.25-.26-3.38-.43q-3.37-.45-6.72-1c-4.47-.76-8.92-1.6-13.32-2.7s-8.73-2.54-13.13-3.52a27.58,27.58,0,0,0-13.24.47,35.64,35.64,0,0,0-6.14,2.38c-1,.49-1.94,1-2.88,1.56l-1.38.87-1.41.94-2.8,1.89-1.23,1a7.11,7.11,0,0,0-.6.49l-.53.56a14.81,14.81,0,0,0-3.35,5.06,16.11,16.11,0,0,0,0,12.11,15.87,15.87,0,0,0,3.49,5.3,18.42,18.42,0,0,0,5.45,3.7Z"/></g><g id="Bed"><path class="cls-25" d="M417.1,616.57H327.42a8,8,0,0,1-8-8V593.76c0-19.69,66-6,66-6s39.72-.62,39.72,6v14.81A8,8,0,0,1,417.1,616.57Z"/><path class="cls-5" d="M417.1,604.11H327.42a8,8,0,0,1-8-8v12.46a8,8,0,0,0,8,8H417.1a8,8,0,0,0,8-8V596.11A8,8,0,0,1,417.1,604.11Z"/><rect class="cls-25" x="247.66" y="616.57" width="752.58" height="37.02" rx="10"/></g></g></svg>