<svg xmlns="http://www.w3.org/2000/svg" viewBox="0 0 1200 900"><defs><style>.cls-1{fill:#eff5f9;}.cls-2,.cls-24,.cls-25,.cls-29{fill:none;}.cls-2{stroke:#c9effb;}.cls-2,.cls-24{stroke-miterlimit:10;stroke-width:2px;}.cls-3{fill:#c9effb;}.cls-4{fill:#ea9d7d;}.cls-5{fill:#000001;}.cls-6{fill:#be3e5f;}.cls-7{fill:#d18165;}.cls-8{fill:#80cbe8;}.cls-9{fill:#89dbf6;}.cls-10{fill:#a8e5f9;}.cls-11{fill:#454851;}.cls-12{fill:#9d9f9f;}.cls-13{fill:#e3eaf3;}.cls-14{fill:#cc7829;}.cls-15{fill:#a04833;}.cls-16{fill:#abbcca;}.cls-17{fill:#ef3e3b;}.cls-18{fill:#c82833;}.cls-19{fill:#54a4cc;}.cls-20{fill:#396e8e;}.cls-21{fill:#7c2f13;}.cls-22{fill:#37d6ba;}.cls-23{fill:#0aa68b;}.cls-24,.cls-25,.cls-29{stroke:#2f170b;}.cls-25{stroke-linecap:round;stroke-width:6px;}.cls-25,.cls-29{stroke-linejoin:round;}.cls-26{fill:#25beef;}.cls-27{fill:#1a87c4;}.cls-28{fill:#fff;}.cls-29{stroke-width:4px;}.cls-30{fill:#feaa40;}.cls-31{fill:#2f170b;}</style></defs><g id="Sonography"><g id="Background"><g id="Background1"><path class="cls-1" d="M797.46,63.41c29.62,8.61,162,50.9,218.45,164.85,79.25,159.88-54.91,331.51-91.72,378.59-84.37,107.94-310,309.15-534.54,228-179.87-65-253.69-285-219.09-440.82C227.59,137.2,562.45-4.92,797.46,63.41Z"/></g></g><g id="Bricks"><rect class="cls-2" x="945.22" y="331.98" width="64.89" height="28.93" rx="2"/><rect class="cls-2" x="945.22" y="389.73" width="64.89" height="28.93" rx="2"/><rect class="cls-3" x="977.66" y="360.91" width="64.89" height="28.93" rx="2"/><rect class="cls-3" x="912.78" y="360.91" width="64.89" height="28.93" rx="2"/><rect class="cls-2" x="233.44" y="474.97" width="64.89" height="28.93" rx="2"/><rect class="cls-2" x="265.88" y="532.73" width="64.89" height="28.93" rx="2"/><rect class="cls-3" x="279.37" y="503.9" width="64.89" height="28.93" rx="2"/><rect class="cls-3" x="214.48" y="503.9" width="64.89" height="28.93" rx="2"/><rect class="cls-3" x="610.83" y="89.54" width="64.89" height="28.93" rx="2"/><rect class="cls-3" x="632.75" y="147.4" width="64.89" height="28.93" rx="2"/><rect class="cls-2" x="656.76" y="118.47" width="64.89" height="28.93" rx="2"/><rect class="cls-2" x="591.87" y="118.47" width="64.89" height="28.93" rx="2"/></g><g id="Patient_Head_Female_Side" data-name="Patient/Head/Female/Side"><path class="cls-4" d="M340,552.38a36.31,36.31,0,0,1,5.93-.53c11.58-.15,13.59,1.28,21.66-5.65,0,0,7.89-4.9,7.46,4,0,0,1.08.75,4.84.82,3.57.07,21.07-3.79,15.41,21.18a3,3,0,0,0,3.2,3.63l30-5.45-.79,32-55.1-1.83s-1.3-8.46-1.28-9.56c0,0-13.42,8.58-14.71.27s6.23-9.46,6.23-9.46l-.27-3.13-23.3-.48Z"/><path class="cls-5" d="M374.1,601.43l10.07-.64s-6.81-6.5-9.51-9.64a2.31,2.31,0,0,0-2.88-.5c-4.13,2.33-14.07,7.18-15.09.62s6.38-8.67,9.66-9.31a1.69,1.69,0,0,0,1.38-1.81v0a1.7,1.7,0,0,0-1.68-1.55l-13.49-.11A13.14,13.14,0,0,1,339.7,565l.23-8.67a4.54,4.54,0,0,1,4.29-4.4h0c-5.19-2.13-10.08,1-11.73,2.1-10.35,6.85-10.34,21-10.34,24.11,0,8.49,3.12,20.44,9.39,22.19,1.56.43,5.61,1.49,5.61,1.49s1.18,4.86,3.36,6.61c4,3.25,13.1.44,24.29-3.11C370.07,603.63,372.71,602.35,374.1,601.43Z"/><path class="cls-5" d="M352.17,565.86c-.86-2.34-1.39-4.58-2-6.81l-.87-3.34c-.28-1.14-.63-2.24-.89-3.48a10,10,0,0,1,2.35,2.88,14.47,14.47,0,0,1,1.35,3.44,16,16,0,0,1,.5,3.64A11.18,11.18,0,0,1,352.17,565.86Z"/><path class="cls-5" d="M358.07,559.57c-.21-.71-.43-1.26-.61-1.82s-.36-1.1-.51-1.67a15,15,0,0,1-.36-1.75,7.77,7.77,0,0,1-.06-2,4.62,4.62,0,0,1,1.52,1.42,5.91,5.91,0,0,1,.84,1.84,5.27,5.27,0,0,1,.13,2.06A3,3,0,0,1,358.07,559.57Z"/><path class="cls-6" d="M382.58,557.64c-1.27-1.24-3.63-6-3-6.61h.35a51.43,51.43,0,0,1,6.23-.09C386.8,554,382.62,557.67,382.58,557.64Z"/><path class="cls-7" d="M361,586.41a5.72,5.72,0,0,0-1.06,3.52,1.65,1.65,0,0,0,.86,1.22,3.38,3.38,0,0,0,1.68.21,11.74,11.74,0,0,0,3.62-.94,9.21,9.21,0,0,0,1.66-.91,2.83,2.83,0,0,0,1.23-1.43,2.8,2.8,0,0,1-.91,1.8,6.72,6.72,0,0,1-1.63,1.23,9.31,9.31,0,0,1-3.91,1.24,4,4,0,0,1-2.18-.37,2.39,2.39,0,0,1-1.19-2A4.82,4.82,0,0,1,361,586.41Z"/><path class="cls-7" d="M427.07,577c-.95,5-23.52,13.08-32,14.6s-9.06-2.1-9.06-2.1c4.74-3.82,9.31-16.33,9.31-16.33h0a3,3,0,0,0,3.24,2.71l26.56-5.09C426.45,572.79,427.44,575,427.07,577Z"/><polygon class="cls-5" points="373.45 590.42 428.1 589.56 427.78 602.39 374.1 601.43 373.45 590.42"/><path class="cls-5" d="M340,554a52.06,52.06,0,0,1,15.37,24.52C360.05,594.53,341,586,341,586S327.08,559.69,340,554Z"/><path class="cls-7" d="M385.92,559.15c-.73-.09-1.32-.11-1.91-.17s-1.15-.11-1.73-.19a17.13,17.13,0,0,1-1.75-.37,7.8,7.8,0,0,1-1.87-.74,4.61,4.61,0,0,1,1.91-.83,6,6,0,0,1,2,0,5.27,5.27,0,0,1,2,.7A3,3,0,0,1,385.92,559.15Z"/></g><g id="Cabinet"><path class="cls-3" d="M228,573.75a4.13,4.13,0,0,0-4.14-4.13H100.62V848.55H223.87a4.14,4.14,0,0,0,4.14-4.14Z"/><path class="cls-8" d="M100.63,569.61V848.55H69.75a4.15,4.15,0,0,1-4.14-4.14V573.75a4.14,4.14,0,0,1,4.14-4.14Z"/><path class="cls-9" d="M115.15,584.78h10.18a4,4,0,0,0-3.78,4.14v30.46a4,4,0,0,0,3.78,4.14H115.15a4,4,0,0,1-3.77-4.14V588.92A4,4,0,0,1,115.15,584.78Z"/><path class="cls-9" d="M115.15,637.25h10.18a4,4,0,0,0-3.78,4.14v30.46a4,4,0,0,0,3.78,4.14H115.15a4,4,0,0,1-3.77-4.14V641.39A4,4,0,0,1,115.15,637.25Z"/><path class="cls-9" d="M115.15,689.72h10.18a4,4,0,0,0-3.78,4.13v30.46a4,4,0,0,0,3.78,4.14H115.15a4,4,0,0,1-3.77-4.14V693.85A4,4,0,0,1,115.15,689.72Z"/><path class="cls-9" d="M115.15,742.18h10.18a4,4,0,0,0-3.78,4.14v30.46a4,4,0,0,0,3.78,4.14H115.15a4,4,0,0,1-3.77-4.14V746.32A4,4,0,0,1,115.15,742.18Z"/><path class="cls-9" d="M115.15,794.65h10.18a4,4,0,0,0-3.78,4.14v30.46a4,4,0,0,0,3.78,4.14H115.15a4,4,0,0,1-3.77-4.14V798.79A4,4,0,0,1,115.15,794.65Z"/><rect class="cls-10" x="121.55" y="584.78" width="95.7" height="38.74" rx="3.95" transform="translate(338.81 1208.3) rotate(-180)"/><ellipse class="cls-9" cx="169.4" cy="604.15" rx="6.04" ry="6.63"/><rect class="cls-10" x="121.55" y="637.25" width="95.7" height="38.74" rx="3.95" transform="translate(338.81 1313.23) rotate(-180)"/><ellipse class="cls-9" cx="169.4" cy="656.62" rx="6.04" ry="6.63"/><rect class="cls-10" x="121.55" y="689.72" width="95.7" height="38.74" rx="3.95" transform="translate(338.81 1418.17) rotate(-180)"/><ellipse class="cls-9" cx="169.4" cy="709.08" rx="6.04" ry="6.63"/><rect class="cls-10" x="121.55" y="742.18" width="95.7" height="38.74" rx="3.95" transform="translate(338.81 1523.1) rotate(-180)"/><ellipse class="cls-9" cx="169.4" cy="761.55" rx="6.04" ry="6.63"/><rect class="cls-10" x="121.55" y="794.65" width="95.7" height="38.74" rx="3.95" transform="translate(338.81 1628.03) rotate(-180)"/><ellipse class="cls-9" cx="169.4" cy="814.02" rx="6.04" ry="6.63"/></g><g id="Stand"><circle class="cls-11" cx="435.05" cy="826.88" r="21.4"/><circle class="cls-11" cx="587.76" cy="826.88" r="21.4"/><circle class="cls-12" cx="435.05" cy="826.88" r="14.03"/><circle class="cls-12" cx="587.76" cy="826.88" r="14.03"/><rect class="cls-13" x="435.05" y="435.34" width="152.71" height="334.34"/><rect class="cls-14" x="400.8" y="769.68" width="221.21" height="27.48" rx="5"/><rect class="cls-14" x="394.29" y="404.98" width="234.22" height="30.37" rx="5"/><path class="cls-15" d="M400.27,769.68H568.13a0,0,0,0,1,0,0v27.48a0,0,0,0,1,0,0H400.27a4.48,4.48,0,0,1-4.48-4.48V774.16A4.48,4.48,0,0,1,400.27,769.68Z"/><path class="cls-15" d="M396.7,405h51.78a0,0,0,0,1,0,0v30.37a0,0,0,0,1,0,0H396.7a2.4,2.4,0,0,1-2.4-2.4V407.38A2.4,2.4,0,0,1,396.7,405Z"/><path class="cls-16" d="M448.47,435.34s12.72,275.4,117.88,334.34H435.05V435.34Z"/></g><g id="Frame"><rect class="cls-13" x="156.78" y="197.61" width="115.4" height="106.83"/><path class="cls-11" d="M145.59,191.25V310.8a4,4,0,0,0,4,4H279.37a4,4,0,0,0,4-4V191.25a4,4,0,0,0-4-4H149.59A4,4,0,0,0,145.59,191.25ZM268.18,304.44H160.78a4,4,0,0,1-4-4V201.61a4,4,0,0,1,4-4h107.4a4,4,0,0,1,4,4v98.83A4,4,0,0,1,268.18,304.44Z"/><path class="cls-17" d="M251.91,274.22c-.49-.45-1.07.13-2-.06-2.28-.44-1.89-4.31-5.11-7.72-1.65-1.74-3.24-2.32-3-3,.3-1,3.46,0,5.26-1.81.24-.24.83-.91,1.19-3.48.63-4.65-.41-9-1-9-.33,0-.17,1.26-1.21,2.26a4.2,4.2,0,0,1-2.6,1c-2.19.2-9,.9-12.15,1.54s-6.91,1.42-9.13,4.53c-1.74,2.44-1.14,4.43-3.18,6,.76-4.2,3-11.77,9.84-17.16,5.7-4.5,10-13.27,11-22.35.76-7.15-.61-13.23-3.84-17.12a1,1,0,0,0-1.4-.14,1,1,0,0,0-.14,1.41c2.84,3.43,4.08,9.13,3.39,15.64-.9,8.57-4.9,16.81-10.2,21-8.25,6.52-10.3,15.82-10.81,19.83-1.7.49-3.38.31-3.74-.38s1-1.78,2.28-3.92a18.48,18.48,0,0,0,2.42-8.66c.23-2.86.67-8.37-2.77-11.78-1.47-1.45-4-2.89-5.42-2.05-1.06.63-1.1,2.35-1.14,4.36a25.09,25.09,0,0,0,.95,6.86c.49,1.71.86,2.33.51,3.2-.23.56-.63.88-3.11,2.27-2.75,1.54-3.35,1.76-3.79,2.6-.66,1.23-.17,2.26-.62,2.41-.67.25-2.64-1.85-2.32-3.65.2-1.14,1.18-1.41,2.64-2.69,1.78-1.57,4.57-4.92,4-7.67-.36-1.59-1.52-1.48-2.46-3.72s-.34-3.46-.6-5c-.68-3.92-6.79-7.61-12.64-7.47-7.8.18-11.85,7.07-12.12,7.56-.5.89-3,5.36-1.58,10,.87,2.74,2.94,4.88,6,8A34.23,34.23,0,0,1,186,258.9a17.66,17.66,0,0,1,3.36,7.81c1.19,5.94,6.81,15.28,13.27,20.34,2.51,2,13,9.45,23.19,5.08,5.78-2.48,11-8.6,11.19-14.76.11-4.57-2.6-8.62-1.56-9.25.84-.5,3.16,1.85,3.91,2.62,4.46,4.54,4.29,8.25,7.18,9a4.86,4.86,0,0,0,4.58-1.49C252.23,277,252.66,274.89,251.91,274.22Z"/><path class="cls-18" d="M237,277.37c.11-4.42-2.41-8.34-1.64-9.16-1.48-1.23-3.93-3-5.74-2.24-3.78,1.62,1.11,12.5-4,16.38-6.36,4.87-16.38-.13-21.06-4.32s-6.58-9.66-8.1-13.86c-2.44-6.74-1.41-8.83-4.32-13.14-3.36-5-5.89-3.9-8.64-8.46a15.29,15.29,0,0,1-2.08-8A16.22,16.22,0,0,0,178.7,238c-.5.89-3,5.36-1.58,10,.87,2.74,2.94,4.88,6,8A34.23,34.23,0,0,1,186,258.9a17.66,17.66,0,0,1,3.36,7.81c1.19,5.94,6.81,15.28,13.27,20.34,2.51,2,13,9.45,23.19,5.08C231.6,289.65,236.85,283.53,237,277.37Z"/></g><g id="Sonography_Equipment" data-name="Sonography/Equipment"><rect class="cls-19" x="1090.87" y="61.51" width="17.82" height="788.73"/><rect class="cls-19" x="1007.46" y="263.13" width="126.92" height="21.29" rx="10.64"/><rect class="cls-19" x="1007.46" y="392.53" width="126.92" height="21.29" rx="10.64"/><rect class="cls-19" x="1007.46" y="133.73" width="126.92" height="21.29" rx="10.64"/><circle class="cls-11" cx="879.63" cy="828.84" r="21.4"/><circle class="cls-11" cx="1032.34" cy="828.84" r="21.4"/><circle class="cls-12" cx="879.63" cy="828.84" r="14.03"/><circle class="cls-12" cx="1032.34" cy="828.84" r="14.03"/><rect class="cls-13" x="904.5" y="654.22" width="102.96" height="112.79"/><rect class="cls-19" x="942.68" y="261.48" width="26.61" height="368.45"/><rect class="cls-19" x="872.98" y="629.93" width="166.01" height="24.29" rx="5"/><rect class="cls-19" x="864.59" y="767.02" width="182.79" height="37.02" rx="5"/><rect class="cls-20" x="892.52" y="197.11" width="126.92" height="21.29" rx="10.64"/><rect class="cls-20" x="892.52" y="259.79" width="126.92" height="21.29" rx="10.64"/><path class="cls-8" d="M1035.28,175.44H876.69a8.21,8.21,0,0,0-8.21,8.21V305.18a8.21,8.21,0,0,0,8.21,8.21h158.59a8.21,8.21,0,0,0,8.21-8.21V183.65A8.21,8.21,0,0,0,1035.28,175.44Zm-3,118.41a6.94,6.94,0,0,1-6.94,6.93H886.64a6.93,6.93,0,0,1-6.93-6.93V195a6.93,6.93,0,0,1,6.93-6.93h138.68a6.94,6.94,0,0,1,6.94,6.93Z"/><rect class="cls-13" x="879.71" y="188.05" width="152.54" height="112.73" rx="6.93"/><circle class="cls-8" cx="977.07" cy="290.24" r="5.62"/><circle class="cls-8" cx="1018.66" cy="290.24" r="5.62"/><circle class="cls-8" cx="997.86" cy="290.24" r="5.62"/><path class="cls-8" d="M923.47,197.46c7,10.16,19.23,16.35,32.4,16.35,13.32,0,25.72-6.34,32.63-16.7l18,59.43c-10.74,16.09-30,25.95-50.73,25.95-20.47,0-39.54-9.63-50.37-25.42Z"/><path class="cls-17" d="M953.54,239.31c.77-.48,1.45-.05,3,.12,1.87.22,5.31.08,6.59-1.75.75-1.05.07-1.68.88-3.42s1.85-2,2.59-3c1.94-2.48.86-8-2.33-11.38-4.24-4.47-10.43-3.19-10.86-3.09-.79.17-4.76,1.06-6.69,4.36-1.15,2-1.3,4.31-1.52,7.77a28.89,28.89,0,0,1-.18,3.25,14,14,0,0,1-2.8,6.11c-2.85,3.85-5.35,12.1-4.89,18.58.18,2.51,1.36,12.64,9.33,16.29,4.53,2.07,10.9,1.91,14.6-1.27,2.74-2.36,3.67-6.09,4.59-5.82.75.22.59,2.83.54,3.69-.29,5-2.56,6.88-1.47,9a3.84,3.84,0,0,0,3.31,1.9c1.32,0,2.78-.88,2.78-1.68,0-.53-.64-.56-1-1.22-1-1.58,1.53-3.4,1.82-7.1.14-1.89-.37-3.13.15-3.37.72-.33,1.82,2,3.85,2.13.26,0,1,0,2.67-1.15,3.06-2.1,5-5,4.71-5.36-.18-.19-.83.57-2,.49a3.29,3.29,0,0,1-2-1c-1.28-1.18-5.32-4.83-7.35-6.31s-4.5-3.3-7.51-2.95c-2.39.28-3.22,1.74-5.34,1.32s-3.77-2.26-3.47-3.08c.23-.63,1.56-.38,3.51-.74a14.57,14.57,0,0,0,6.36-3.18c1.8-1.38,5.27-4.05,5.44-7.88.07-1.63-.44-3.89-1.67-4.26-.93-.29-2,.6-3.17,1.64a20.65,20.65,0,0,0-3.52,4.2c-.73,1.19-.91,1.74-1.6,2-.45.16-.85.1-3-.62-2.36-.79-2.81-1-3.54-.85-1.07.27-1.41,1.1-1.74.93C952.13,242.35,952.31,240.08,953.54,239.31Z"/><rect class="cls-13" x="879.71" y="350.92" width="152.54" height="112.73" rx="6.93"/><circle class="cls-8" cx="977.07" cy="436.7" r="5.62"/><circle class="cls-8" cx="1018.66" cy="436.7" r="5.62"/><circle class="cls-8" cx="997.86" cy="436.7" r="5.62"/><rect class="cls-8" x="970.57" y="359.99" width="55.58" height="35.18" rx="8.72"/><rect class="cls-8" x="888.38" y="419.11" width="55.58" height="35.18" rx="8.72"/><rect class="cls-8" x="888.38" y="359.99" width="55.58" height="35.18" rx="8.72"/><rect class="cls-8" x="952.24" y="350.92" width="7.49" height="112.73"/><rect class="cls-8" x="952.24" y="331.02" width="7.49" height="152.54" transform="translate(1363.27 -548.7) rotate(90)"/><path class="cls-8" d="M1035.28,338.31H876.69a8.22,8.22,0,0,0-8.21,8.21V468.06a8.22,8.22,0,0,0,8.21,8.21h158.59a8.22,8.22,0,0,0,8.21-8.21V346.52A8.22,8.22,0,0,0,1035.28,338.31Zm-3,118.41a6.94,6.94,0,0,1-6.94,6.93H886.64a6.93,6.93,0,0,1-6.93-6.93V357.85a6.94,6.94,0,0,1,6.93-6.93h138.68a6.94,6.94,0,0,1,6.94,6.93Z"/></g><g id="Doctor_Bottom" data-name="Doctor/Bottom"><path class="cls-14" d="M753.33,846c4.08-13.84,22.27-38.41,18.57-55.86,6.1,1.68,23.11-12.45,29.66-17.67h0s10.26,9.4,15.33,17.53,6.29,10.61,6.29,10.61L811,810.22l-2.1-3.54s-7.53,5-9.13,11.79-10.17,19.56-23.4,26.61S749.24,859.81,753.33,846Z"/><path class="cls-13" d="M801.56,772.45h0s10.26,9.4,15.33,17.53c1.19,1.91,2.16,3.49,3,4.82-4.34,3.34-9.76,6.76-9.56,2.77.34-6.61-11.45-23-11.45-23Z"/><path class="cls-13" d="M752.67,849.05a18,18,0,0,1,.66-3.07c1.72-5.83,5.42-13.35,8.87-21.41a30.57,30.57,0,0,1,18.23-.93c5.37,1.48,9.79,7.06,11.25,7.47-.73,5.52-35.07,24.65-38,21.85l-.11-.1A5.79,5.79,0,0,1,752.67,849.05Z"/><path class="cls-21" d="M776.34,845.08c-10.62,5.65-21.64,11.71-23.47,6.73C790,840.69,795,820,795,814.63s5.5-9.1,5.5-9.1c10.41-6.33,14-13.1,15.16-17.39.43.62.85,1.24,1.22,1.84,5.08,8.14,6.29,10.61,6.29,10.61L811,810.22l-2.1-3.54s-7.53,5-9.13,11.79S789.57,838,776.34,845.08Z"/><path class="cls-22" d="M669,513.81s-15.61,138.53-16.1,150.73,6.59,139.13,6.59,139.13,19,7.64,32.62,2.44c0,0,10.74-97.31,9.12-122l3.58-46.87s2.93,39.06,5.85,43.61,59.88,111.63,59.88,111.63,32.55-14.65,32.55-18.88c0,0-18.88-78.1-43-99.91q-.17-45.31-.32-90.63a90.93,90.93,0,0,0,5.85-43,89.19,89.19,0,0,0-7.32-26.85S688.53,523.57,669,513.81Z"/><path class="cls-23" d="M703.67,622.07c-2.61-30-8-58.76-9.77-58.58-1.34.14.05,15.07.49,49.31.36,27.92-.19,46.68-1,73.22-1.53,51.8-3.61,60.69-5.83,67.85a139.41,139.41,0,0,1-28.1,49.8c6.4,2.88,16.77,6.19,28.37,3.64a39.21,39.21,0,0,0,4.25-1.2s10.74-97.31,9.12-122l3.46-45.36C704.56,634.15,704.28,629.15,703.67,622.07Z"/><path class="cls-23" d="M778.87,742.89c-4-21.45-16.13-25.68-26.12-50.79-6-15.11-6.71-32.47-8.1-67.17-2.13-53.22,3.48-57.29-3.53-70.23-18.47-34.07-72.88-35.2-72.12-40.89,21.09,7.24,79.62.65,88.26-.46h0l.71-.09h.22l.11,0a89.19,89.19,0,0,1,7.32,26.85,90.93,90.93,0,0,1-5.85,43q.15,45.32.32,90.63c24.08,21.81,43,99.91,43,99.91q-1.12,1.46-2.43,2.88c-6.54,5.07-24.4,13.38-29,15.5l-.09,0-.09,0-.24.11-.14.06-.1,0-.13.06-.06,0-.26.12C776.33,780.55,782.6,762.69,778.87,742.89Z"/><path class="cls-13" d="M724.53,526q.48,9,.85,18l.78,18,1.29,36.09c.43,12,.76,24.06,1.11,36.09l.91,36.1-.14-.59c4.49,9.72,9,19.42,13.48,29.17s8.94,19.46,13.33,29.23l13.21,29.3c4.31,9.81,8.71,19.57,12.95,29.42-4.82-9.58-9.48-19.22-14.21-28.83l-14-28.95c-4.67-9.64-9.25-19.32-13.83-29S731.19,680.7,726.64,671l-.14-.28v-.32l-.82-36.1c-.22-12-.47-24.07-.62-36.1l-.43-36.11L724.55,544Q724.49,535,724.53,526Z"/><path class="cls-13" d="M761.41,521A97.84,97.84,0,0,1,750,524c-3.86.8-7.75,1.45-11.65,2s-7.82.95-11.75,1.27c-2,.19-3.93.3-5.89.39s-3.94.23-5.9.29c-7.88.19-15.76.12-23.61-.38-3.93-.18-7.84-.64-11.76-1s-7.8-1-11.68-1.62c3.94,0,7.86.1,11.78.15l5.87,0c2,0,3.91.09,5.87.06s3.91,0,5.86,0,3.91,0,5.86-.06c3.91,0,7.81-.12,11.71-.23,1.95,0,3.9-.14,5.85-.21l2.93-.12,2.92-.17c3.9-.16,7.79-.49,11.69-.76C745.87,523,753.65,522.24,761.41,521Z"/><path class="cls-14" d="M614,835.46c10.88-8.34,38.61-17,45.54-32.51,3.75,4.71,24.72,3.38,32.68,3h0s2.61,13,2,22S693,839.71,693,839.71l-14.77.56.37-3.89s-8.59-.38-13.62,3.93-18.76,9.34-32.87,7.35S603.08,843.8,614,835.46Z"/><path class="cls-13" d="M692.19,806h0s2.61,13,2,22c-.16,2.13-.3,3.89-.43,5.35-5.2.14-11.28-.27-8.89-3.22,4-4.89,4.07-24.06,4.07-24.06Z"/><path class="cls-13" d="M611.74,837.46a17.17,17.17,0,0,1,2.23-2c4.58-3.51,11.64-7.21,18.79-11.47a29,29,0,0,1,14.54,9.49c3.29,4.13,3.56,10.89,4.45,12-3.65,3.83-40.73-.7-41.44-4.51l0-.13A5.47,5.47,0,0,1,611.74,837.46Z"/><path class="cls-21" d="M632.15,847.66c-11.32-1.61-23.19-3.12-21.8-8,34.73,12.23,50.19-.89,53.19-5s9.32-3.91,9.32-3.91c11.53,1,18-2.25,21.38-4.87,0,.71,0,1.42-.09,2.1-.66,9.1-1.11,11.67-1.11,11.67l-14.77.56.37-3.89s-8.59-.38-13.62,3.93S646.26,849.65,632.15,847.66Z"/></g><g id="Doctor_Head_Female" data-name="Doctor/Head/Female"><circle cx="737.01" cy="359.76" r="24.98"/><path d="M706.76,364.4c30,7,37.08-8.45,37.93-21.44s-4.12-34.75-23.05-41.82S645.72,350.18,706.76,364.4Z"/><path class="cls-4" d="M704.86,299.81c12.39,2.42,20,18.21,18.25,36.54h.1c3.38.66,5.38,5,4.46,9.77s-4.42,8-7.81,7.37a4.43,4.43,0,0,1-1.29-.47c-6.88,13.88-20.25,21.61-31.26,19.46-13.65-2.66-18.48-19.51-14.46-40.14S691.2,297.15,704.86,299.81Z"/><path class="cls-4" d="M691.66,383.32c.63-2.22-1.95-7.61-3.6-10.72,10.86,1.66,23.78-6,30.51-19.57a4.43,4.43,0,0,0,1.29.47s1.06,28.21,7.17,28.56c7.15,6.14,30.51,26.9,25.75,36.53-4,8.08-25.56,3.91-57.71-2.3a16.14,16.14,0,0,1-8.39-4c-6.75-6.44-4.9-18-3.95-20.61C684,388.27,690.76,386.51,691.66,383.32Z"/><path class="cls-7" d="M720.77,364.74c-.71-6-.91-11.24-.91-11.24a4.43,4.43,0,0,1-1.29-.47c-6.73,13.57-19.65,21.23-30.51,19.56a47.37,47.37,0,0,1,3.14,7.06l.82.2C701.81,381.76,713.47,375.84,720.77,364.74Z"/><path class="cls-6" d="M691.35,357.91a84.6,84.6,0,0,0-11.29,1.54s.38-5.36,4.85-6S691.35,357.91,691.35,357.91Z"/><path class="cls-7" d="M681.77,331a19.6,19.6,0,0,1,.13,6.26,10.71,10.71,0,0,1-.92,3.18c-.28.57-.55.93-.81,1.38s-.51.84-.73,1.26a5.58,5.58,0,0,0-.81,2.36,1.17,1.17,0,0,0,.29.81,2.82,2.82,0,0,0,1,.64,23.62,23.62,0,0,0,5.84,1,12.39,12.39,0,0,1-6.34.45,3.78,3.78,0,0,1-1.69-.88,2.9,2.9,0,0,1-.93-1.92,6.32,6.32,0,0,1,.92-3.44c.27-.48.55-.94.84-1.37s.62-.89.81-1.23a11.78,11.78,0,0,0,1.06-2.6C680.93,335.05,681.32,333.05,681.77,331Z"/><path d="M699.9,328.33a45.19,45.19,0,0,1-6-.58,18.37,18.37,0,0,1-2.83-.73c-.95-.29-1.83-.74-2.84-1.15a6.82,6.82,0,0,0,2.33,2.23,8.87,8.87,0,0,0,3.06,1.15,10.44,10.44,0,0,0,3.25.08A8.07,8.07,0,0,0,699.9,328.33Z"/><path d="M674.72,325.24c-.16.48-.32,1-.47,1.46l.14,0a10.43,10.43,0,0,0,3.25.07,8.07,8.07,0,0,0,3.05-1A44.46,44.46,0,0,1,674.72,325.24Z"/><path d="M675.45,338.58a1.54,1.54,0,0,0,1.8-1.21l.86-4.4a1.53,1.53,0,0,0-3-.58l-.86,4.4A1.53,1.53,0,0,0,675.45,338.58Z"/><path d="M690.87,339.52a1.52,1.52,0,0,0,1.79-1.21l.86-4.4a1.53,1.53,0,0,0-3-.58l-.86,4.4A1.53,1.53,0,0,0,690.87,339.52Z"/><path class="cls-7" d="M723.32,340.56a4.74,4.74,0,0,1,1.8,2.35,5.59,5.59,0,0,1-1.18,5.8,6.45,6.45,0,0,1-1.15,1,6.09,6.09,0,0,1-1.36.59c.2-.48.44-.86.65-1.26s.42-.78.56-1.17a10,10,0,0,0,.76-2.24A13.76,13.76,0,0,0,723.32,340.56Z"/><path d="M677.68,318.09s6.27-9.76,8.09-7.57,5.31,8.06,17.24,7.43c0,0,7.94,10.4,9.64,22.6s10.56-4.19,10.56-4.19,11.39-28.4-.92-35.16-24.64-6.91-36.94,0S677.68,318.09,677.68,318.09Z"/><path class="cls-7" d="M727,382.06c-3.73-.21-5.57-10.78-6.44-19l-5.48,2.46-4.69,9.8s9,2,4.69,11.2c-3.83,8.29-14,27.11-28.69,25.5,2.13,1.18,5.06,2.7,8.65,4.26,23.54,10.24,55.67,13.48,60.35,4.22S736.72,390.29,727,382.06Z"/><path class="cls-22" d="M709.46,329.42s-16.3-8.7-33.29-8.85c0,0-5.23-20.08,20.69-24s48.31,15.09,47.92,39.29c0,0-6,10.58-17.11,10.31S719,330.52,709.46,329.42Z"/><path class="cls-23" d="M676,319.65a4.86,4.86,0,0,1,1.37-1.12,5.47,5.47,0,0,1,1.89-.54c1.57-.27,2.47-.42,3,.09s.13.67.54,1.17a2,2,0,0,0,2.16.63c.6-.28.43-.85,1.08-1.26a2.12,2.12,0,0,1,2.07,0c.67.38.49.86,1.17,1.53a4,4,0,0,0,2.61,1c1.33,0,1.56-.67,2.43-.45s.74.88,2.07,2.07c2.17,1.93,2.79,1.84,3,1.8.8-.18.91-1.1,1.8-1.17a2,2,0,0,1,1.26.45c1.3.78,1.44,1.55,2.16,2,.54.31,1.51.5,3.33-.36,0,0,1.87-.6,2.43,0s-.48,1.64.09,2.52a2.08,2.08,0,0,0,1.53.72c1.35.08,2.18-.62,3-.71.44,0-.26.77.19,1.79.18.4.6,1.35,1.35,1.53,1,.23,1.71-1,2.34-.63s.22,1.06.72,1.26c.68.27,1.25-.7,2-.63,1.44.13,1.27,4,3.06,5.13,2.17,1.32,6.42-1.94,7.38-2.7,6.41-5.09,7.73-11.61,9.54-14.05a37.69,37.69,0,0,1,3.34,16.13s-6,10.58-17.11,10.31-8.65-15.61-18.21-16.71c0,0-16.3-8.7-33.29-8.85C676.17,320.57,676.09,320.23,676,319.65Z"/><path class="cls-23" d="M713.58,328.44s-.15,1.79.74,2.31a30.14,30.14,0,0,1,2.72,2.09s3.66-.94,5.43-6.76a24.31,24.31,0,0,0,.73-6.46.66.66,0,0,0-1.27-.28C720.46,322.62,717.64,327.51,713.58,328.44Z"/><path class="cls-23" d="M704,325.93s.52,1.45,1.54,1.58a28.1,28.1,0,0,1,3.33.84s3-2.31,2.31-8.36a24.61,24.61,0,0,0-1.87-6.19.67.67,0,0,0-1.28.25C708,317.71,707.34,323.45,704,325.93Z"/><path class="cls-23" d="M688.89,319.74S688,321,687,320.86s-4.11-.29-4.11-.29-1.61-2.78.62-8.43a24.11,24.11,0,0,1,3.43-5.49.67.67,0,0,1,1.17.57C687.17,310.77,686.28,316.47,688.89,319.74Z"/></g><g id="Doctor_Torso" data-name="Doctor/Torso"><path class="cls-4" d="M584.59,496.13l-10.33.42s-2.25-1.79-5.29-4.11c-5.75-4.39-14.37-10.72-16.14-10.61-2.71.16-7.43,2.13,4.3,11.16l-.1.08c-.39.29-2.2,1.48-6.83,1.76-5.33.33-23.28,1.55-26.19,2.65-1.59.59-5.13,5.35,21.48,4.41a1.43,1.43,0,0,1,1.5,1.6c-.08.5-.44.94-1.41,1-2.41.15-23.22.5-22.86,4.26.27,2.74,5.71,2.06,24,1.26,0,0,2.89.75.58,2.23-.8.52-21.41,2.44-22.42,4.08s-3.67,4.31,27.26.92c0,0,.55.32-2.15,1.89-2.86,1.67-11.32,3.92-13.48,7.07s4.12.65,20-4.69l22.29-2.82c14.72,2.07,69.84,6.77,83.54-7.45,12.82-13.32,19.73-61,19.73-61l-31.38-1.06-13.14,35.55a6.89,6.89,0,0,1-5.48,4.44l-49.32,7.12"/><path class="cls-24" d="M556.81,493s4.31,16.18,19.08,11.71"/><path class="cls-22" d="M645.24,451.5l12-37.55a39.07,39.07,0,0,1,13-19,27.78,27.78,0,0,1,5.07-3.22,1,1,0,0,1,1.43.94l-1.9,58.8-3.92,46.76a25.84,25.84,0,0,1-27.34,24.9l-59.42-2.64.51-24.39L627.52,485a10.9,10.9,0,0,0,7.42-6.64Z"/><path class="cls-23" d="M676.26,405.17a3.24,3.24,0,0,0-2.06-1c-1.09,0-3.68.42-8.16,9.84a59,59,0,0,0-4.34,11.52c-4.18,19.66-6.13,54.23-14.12,69.09-5.85,10.87-21.07,22.6-63.47,24.15l0,1.77,59.41,2.64a25.84,25.84,0,0,0,27.35-24.9L674,460.62c-1.25-3.5-2.41-6.63-3.35-9.12h4.12Z"/><path class="cls-4" d="M820.72,585.83a24.35,24.35,0,0,1-.73-5.51c-.23-15.56-1.71-75-10.67-102-2.86-8.62-29.07-52.54-29.07-52.54l-37.44,7.92,33,54.79a27.38,27.38,0,0,1,3.18,7.83L799.08,582a8,8,0,0,1-1.49,6.81c-4.23,5.43-12.61,16.47-12.47,18.49.18,2.71,2.18,7.41,11.13-4.37,0,0,1.53,1.58,1.89,6.91S799.26,635.64,801,636s5.49,5.23,4.23-22.65c0,0,2.48-1.38,2.64,1s1.54,25.3,4.4,22.84,2-5.73,1.12-24c0,0,1.86-1.49,2.22-.61s2.42,22.52,4.22,22.4,4.33,3.64.75-27.26c0,0,1-.53,2.14,2.57s5.5,16.72,6.91,13,.63-4.13-4.81-19.94l-4-17.57Z"/><path class="cls-7" d="M742.81,433.69l8.84-1.87c6.59,8.38,14.79,14.46,25.48,30.1,8.32,12.19,13.71,24.59,16.11,29.83,6.56,14.36,5.22,21.69,9.6,57.12,2.62,21.28,3.94,31.92,5.32,37.48,0,0,8.08,37.13,5.05,49.72a1.7,1.7,0,0,1-1,1.13c-2.86,2.46-4.24-20.43-4.4-22.84s-2.64-1-2.64-1c1.26,27.88-2.55,23-4.23,22.65s-2.45-20.76-2.81-26.14h0v0c-.36-5.33-1.89-6.91-1.89-6.91-9,11.78-11,7.08-11.13,4.37-.14-2,8.24-13.06,12.47-18.49a8,8,0,0,0,1.49-6.81L779,496.31a27.38,27.38,0,0,0-3.18-7.83Z"/><path class="cls-22" d="M652.75,622.82a8.11,8.11,0,0,0,5.79,2.34h117.3a8.43,8.43,0,0,0,8.33-9.69L743.94,389.25l-16.68-6.32c-2.4-1.3-3.43-5.3-3.83-7.58A1.66,1.66,0,0,0,721.5,374l-29.88,5.34a1.68,1.68,0,0,0-1.35,1.94c.35,1.9.59,4.83-1.12,5.09l-12.44,4.73a10.89,10.89,0,0,0-8.3,11.15l.15,4.51c.48,14.64,3.83,65.28.35,100.44-5.14,51.9-17.88,92.2-17.17,113.81C651.74,621.21,651.78,621.83,652.75,622.82Z"/><path class="cls-22" d="M823.74,579.92c1.41-1-3.41-57-8.17-87.86-1.67-10.83-6.76-27.38-12.71-36.58,0,0-19.53-33.64-32.4-48.48-4.6-5.31-13.14-15-26.52-17.75L736.32,429l37.38,61.65c.41.64,21.93,89.72,22.55,89.28Z"/><path class="cls-23" d="M737.5,426.89a2.48,2.48,0,0,0-.94,2l-.06.39,16.36,27h0l20.84,34.37c.41.64,21.93,89.72,22.55,89.28h10l-.05-.26c-13.09-58.61-19.68-88-21.78-93.22C770.29,451.73,742.35,424.2,737.5,426.89Z"/><line class="cls-25" x1="584.04" y1="496.13" x2="584.04" y2="518.31"/><path class="cls-23" d="M784.17,615.47l-.27-1.54L755.16,452.48c-6.74-14-15.34-26.45-17.66-25.59-2,.74-.93,10.09-1,11.19-3,50.35-66.21,22.29-66.84,21.24.85,4.35,2.94,11.26,8.64,16.74,13.64,13.13,36.33,6.88,43.05,5l.31-.08a20.3,20.3,0,0,1,25.91,20.92c-3.23,43-26.08,72.84-26.08,72.84-19.92,26-51.89,38.51-69.8,44.12a15.15,15.15,0,0,0,0,2.15c.43,2.74,4.26,4.13,6.69,4.24,10.73.51,57.49-.11,57.49-.11h59.92A8.43,8.43,0,0,0,784.17,615.47Z"/><path class="cls-23" d="M689.15,386.39c3.08-.28,6.13-.56,9.16-.89s6.06-.68,9.07-1.13,6-.92,9-1.48,6-1.24,9-1.82a49.37,49.37,0,0,1-8.66,3.34c-1.47.48-3,.76-4.5,1.14s-3,.58-4.58.8a71.75,71.75,0,0,1-9.26.71A49.42,49.42,0,0,1,689.15,386.39Z"/></g><g id="Patient_Bottom_Side" data-name="Patient/Bottom/Side"><path class="cls-4" d="M901.74,572c1.15,14.1-4.39,27.41-8.79,32.15-3.12,3.36-3.47,8.46-3.41,11.15a22.92,22.92,0,0,1-.49,5.48c-1,4.47-3.48,11.45-9.41,11.53-4.36.05-6.7-1.51-10.84-2.33s-10.72-4.26-10.72-4.26c.75-7.86,4-27.81-.31-31.79,2.9-1.15,4.83-3.25,7.4-5.49.83-.71,1.63-1.46,2.42-2.24q.95-1,1.86-2c.78-.88,1.56-1.77,2.33-2.72,7.67-9.51,13.84-21.64,19.28-28.2C899.62,542.94,900.59,557.87,901.74,572Z"/><path class="cls-26" d="M566.08,559.87s139.36-3.63,151.56-3.06S859.1,593.3,859.1,593.3s6,19.54-.37,32.71c0,0-103.83-10.23-128.33-14l-44.46-5.86s-98,34.27-117,30.5a89.46,89.46,0,0,1-26.12-9.6S574.13,580.17,566.08,559.87Z"/><path class="cls-27" d="M568.93,636.67a89.46,89.46,0,0,1-26.12-9.6s31.32-46.9,23.27-67.2l4.87-.12a46.82,46.82,0,0,0,8.81,20.47c13,17.29,34,21.72,39,22.62,25.42,4.62,36-9.5,65.75-13.24a104.2,104.2,0,0,1,14.84-.49,254.67,254.67,0,0,1,64.51,8.31c19.11,4.7,49.34,15.3,97.67,9.83.41,6,0,13-2.79,18.76,0,0-103.83-10.23-128.33-14l-39.84.75S588,640.44,568.93,636.67Z"/><path class="cls-28" d="M571,559.75a48,48,0,0,0,7.53,18,52.57,52.57,0,0,0,13.91,13.51,61.83,61.83,0,0,0,8.45,4.82,68.16,68.16,0,0,0,9,3.54,59.35,59.35,0,0,0,19.05,3l2.4-.08c.8,0,1.6-.18,2.39-.26a45.24,45.24,0,0,0,4.75-.79,78.11,78.11,0,0,0,9.3-2.71c6.13-2.16,12.24-4.71,18.6-6.65A108.87,108.87,0,0,1,685.91,588a84.05,84.05,0,0,1,10-.37l9.87.09a252.93,252.93,0,0,1,39.4,4.15c6.48,1.21,12.94,2.73,19.29,4.38s12.69,3.47,19,5.06,12.74,3,19.19,4.06,13,1.79,19.49,2.31a243.44,243.44,0,0,0,39.31-.4,225.43,225.43,0,0,1-39.4,1.87c-6.58-.37-13.16-.94-19.69-1.91s-13-2.21-19.44-3.68-12.8-3.19-19.14-4.75-12.74-3-19.18-4.15a254.56,254.56,0,0,0-38.95-4l-9.83-.12a79.81,79.81,0,0,0-9.68.33,108.72,108.72,0,0,0-19,3.9c-6.23,1.82-12.29,4.28-18.57,6.42a76.44,76.44,0,0,1-9.65,2.68,49,49,0,0,1-5,.73c-.84.06-1.68.18-2.52.21l-2.52,0a61.52,61.52,0,0,1-19.66-3.47,71.1,71.1,0,0,1-9.2-3.83,60.68,60.68,0,0,1-8.55-5.13,53.87,53.87,0,0,1-13.73-14.27,45.24,45.24,0,0,1-4.44-8.85A50.4,50.4,0,0,1,571,559.75Z"/></g><g id="Patient_Torso_Side" data-name="Patient/Torso/Side"><path class="cls-26" d="M503,549.83c-38-2.15-50.78.73-67.11,8.21A81.56,81.56,0,0,0,413,573.16c6.1.05,7.52-.42,9.72.1,3.3.79-3.8,11.59-17,28.41a17.68,17.68,0,0,1,5,1.81,15.23,15.23,0,0,1,4.2,4,34.23,34.23,0,0,0,18.17,12.77A151.25,151.25,0,0,0,449,624a232,232,0,0,0,40.87,3c12.89-.31,21-1.74,35.35.62,8.2,1.35,9.52,2.47,12,1.75,7.77-2.22,14.53-18.49,11.44-77.8a4.21,4.21,0,0,0-6-3.63C530.72,551.32,515.5,550.54,503,549.83Z"/><path class="cls-27" d="M549.91,587.52l-1.31,26.37a76.5,76.5,0,0,1-2.75,13.76c-8.76,2-43.92,3.33-46.32,2.86l-50.84-9.91A23.3,23.3,0,0,1,434,611.87c-5.17-6.72-9.21-17.2,1.65-28.4l5.56-4a37.34,37.34,0,0,1,27.29-6.61l39.83,5c3.22.15,4.29-1.73,6.41.7a5.1,5.1,0,0,0,2.07,1.66,103.29,103.29,0,0,0,33,1.65C549.9,583.84,549.91,585.71,549.91,587.52Z"/><path class="cls-26" d="M508.7,550.14l-5.71-.31c-5.52-.31-10.48-.51-15-.61.06,5,1.43,27.12,20,36a62.68,62.68,0,0,0,11,1c6,0-7-26-7-26S510.68,555.54,508.7,550.14Z"/><path class="cls-4" d="M585,562.58c0,22.31-6.15,45-52.36,33.41-23.43-5.87-34.64-11.1-34.64-33.41s19.48-40.39,43.5-40.39S585,540.27,585,562.58Z"/><path class="cls-7" d="M574.39,536.2c.05.75.08,1.51.08,2.27,0,22.31-6.15,45-52.36,33.42-10.45-2.62-18.46-5.12-24.14-9,.09,22.08,11.3,27.3,34.64,33.15,46.21,11.59,52.36-11.1,52.36-33.41A38.56,38.56,0,0,0,574.39,536.2Z"/><path class="cls-26" d="M488,549.22a9.92,9.92,0,0,1,11.35.42l-3.08,2.57Z"/><path class="cls-4" d="M618.14,619.61a23.42,23.42,0,0,0-5.55,0c-15.46,1.89-74.49,8.51-102.52,3.32-8.94-1.66-56-21.64-56-21.64l2-28.21,59.48,15.24a27.06,27.06,0,0,0,8.2,2.09l87.58,8.26a8,8,0,0,0,6.55-2.41c4.81-4.93,14.59-14.73,16.62-14.87,2.71-.19,7.64,1.15-2.81,11.62,0,0,1.77,1.3,7.1.93s25.75-2.41,26.32-.78,5.93,4.72-21.87,7.27c0,0-1,2.65,1.39,2.48s25.26-1.92,23.22,1.24-5.4,2.8-23.59,4.38c0,0-1.21,2.05-.29,2.29s22.63-.68,22.76,1.12,4.2,3.79-26.91,4.46c0,0-.37,1.08,2.85,1.76s17.31,3.18,13.81,5.09-4,1.18-20.4-2l-18-1.62Z"/><path class="cls-26" d="M494.41,616.35a4.27,4.27,0,0,1-5.26,3l-49-13.67-.15-.05c-13.32-4.44-15.24-22.5-3.21-29.74l4.14-2.49a34,34,0,0,1,25.26-4L503.6,580c.78.19,0,1.84-.22,2.62Z"/><path class="cls-26" d="M499.32,549.64s4.67,10.82,4.94,18.91S503.6,580,503.6,580L495,577.59Z"/><path class="cls-26" d="M499.32,549.64s2.1-9.42,4.61-8.5,3,1.54,3,7.35-2.28,12.45.9,19.21-3.12,17.19-5.1,17.36-1.62-24.4-1.62-24.4Z"/></g><g id="Bed"><path class="cls-3" d="M403.36,627.07H313.68a8,8,0,0,1-8-8V604.26c0-19.69,66-6,66-6s39.72-.62,39.72,6v14.81A8,8,0,0,1,403.36,627.07Z"/><path class="cls-8" d="M403.36,614.61H313.68a8,8,0,0,1-8-8v12.46a8,8,0,0,0,8,8h89.68a8,8,0,0,0,8-8V606.61A8,8,0,0,1,403.36,614.61Z"/><rect class="cls-3" x="233.92" y="627.07" width="752.58" height="37.02" rx="10"/></g><g id="Screen"><path class="cls-29" d="M548.9,498.64,548.12,476a19.79,19.79,0,0,0-19.78-19.78H502.85a19.78,19.78,0,0,1-19.78-19.78h0a19.78,19.78,0,0,1,19.78-19.78h92.3a19.79,19.79,0,0,0,19.78-19.78v-51a19.78,19.78,0,0,0-19.78-19.78h-8.39"/><rect class="cls-13" x="495.96" y="371.49" width="28.88" height="33.33"/><rect class="cls-13" x="450.63" y="251.03" width="119.56" height="106.85"/><path class="cls-15" d="M433.39,243.65V365.26a8,8,0,0,0,8,8h138a8,8,0,0,0,8-8V243.65a8,8,0,0,0-8-8h-138A8,8,0,0,0,433.39,243.65ZM562.17,357.88H458.64a8,8,0,0,1-8-8V259.05a8,8,0,0,1,8-8H562.17a8,8,0,0,1,8,8v90.81A8,8,0,0,1,562.17,357.88Z"/><path class="cls-8" d="M477.89,262.11c7,10.16,19.23,16.35,32.4,16.35s25.72-6.34,32.63-16.69l18,59.42c-10.74,16.09-30,25.95-50.73,25.95-20.47,0-39.54-9.62-50.37-25.41Z"/><path class="cls-20" d="M503.36,307.31c.42-.81,1.23-.77,2.64-1.38,1.72-.75,4.63-2.59,4.84-4.81.11-1.29-.78-1.48-.95-3.4s.59-2.69.75-3.88c.45-3.12-3.25-7.37-7.69-8.69-5.91-1.76-10.64,2.44-11,2.74-.6.54-3.58,3.29-3.61,7.11,0,2.28,1,4.39,2.55,7.5a27.29,27.29,0,0,1,1.47,2.9,14,14,0,0,1,.63,6.7c-.55,4.76,1.41,13.15,5,18.53,1.41,2.09,7.49,10.28,16.22,9.46,5-.46,10.39-3.79,12-8.38,1.2-3.41.15-7.12,1.08-7.34.76-.18,1.93,2.16,2.31,2.92,2.25,4.5,1.22,7.25,3.21,8.52a3.81,3.81,0,0,0,3.81,0c1.14-.67,2-2.15,1.58-2.84-.27-.46-.84-.17-1.51-.54-1.61-.89-.38-3.7-2-7.06-.81-1.7-1.87-2.52-1.54-3,.46-.65,2.59.86,4.4-.08.23-.12.84-.48,1.73-2.33,1.61-3.34,1.88-6.86,1.41-7-.25-.07-.44.91-1.46,1.41a3.35,3.35,0,0,1-2.2.12c-1.7-.38-7-1.52-9.53-1.8s-5.54-.6-8,1.2c-1.93,1.43-1.92,3.11-4,3.81s-4.39-.08-4.54-.94c-.12-.66,1.16-1.1,2.67-2.4a14.61,14.61,0,0,0,3.92-5.92c.87-2.1,2.55-6.14.78-9.55-.75-1.45-2.32-3.15-3.58-2.86-.95.22-1.39,1.51-1.92,3a20.42,20.42,0,0,0-1,5.39c0,1.4.08,2-.39,2.53-.31.37-.69.52-2.89,1-2.45.49-2.95.51-3.49,1-.8.76-.68,1.66-1,1.67C503.65,310.65,502.68,308.59,503.36,307.31Z"/><path class="cls-30" d="M561.76,514.46c4.28,5.74-5.8,13-13,13s-16.63-6.81-13-13,5.81-13,13-13S556.34,507.18,561.76,514.46Z"/><path class="cls-31" d="M564.08,515.69a1.29,1.29,0,0,1-1.77,1.77c-3.66-2.2-8.9-4.76-13.45-4.76-4.77,0-9.79,2.4-13.32,4.55a1.29,1.29,0,0,1-1.79-1.75l10.38-17.8a5.47,5.47,0,0,1,9.46,0Z"/></g></g></svg>